<?xml version="1.0" encoding="UTF-8"?>
<svg xmlns="http://www.w3.org/2000/svg" xmlns:xlink="http://www.w3.org/1999/xlink" width="32px" height="32px" viewBox="0 0 32 29" version="1.1">
<g id="surface1">
<path style=" stroke:none;fill-rule:nonzero;fill:rgb(100%,100%,100%);fill-opacity:1;" d="M 23.582031 5.054688 C 30.375 10.167969 25.207031 10.933594 19.902344 11.679688 C 19.902344 11.679688 17.664062 11.070312 13.785156 9.164062 C 4.988281 4.839844 7.757812 2.804688 14.671875 1.574219 C 3.605469 -3.195312 -5.617188 5.105469 4.554688 13.179688 L 1.765625 15.152344 C 4.058594 16.542969 8.808594 19.460938 8.117188 23.929688 L 5.761719 25.59375 L 12.960938 28.824219 L 18.644531 26.277344 C 18.6875 23.800781 23.15625 22.515625 25.082031 17.484375 C 35.667969 15.082031 32.972656 5.871094 23.582031 5.054688 "/>
<path style=" stroke:none;fill-rule:nonzero;fill:rgb(1.176471%,12.54902%,18.431373%);fill-opacity:1;" d="M 15.390625 20.328125 L 13.351562 18.03125 L 11.007812 18.378906 L 12.089844 16.613281 L 10.046875 14.3125 L 12.761719 15.519531 L 13.839844 13.753906 L 14.433594 16.265625 L 17.144531 17.472656 L 14.796875 17.816406 Z M 18.742188 12.152344 C 5.449219 7.074219 4.570312 2.910156 12.867188 1.46875 C 2.492188 -1.320312 -3.5625 6.117188 6.703125 13.210938 L 3.949219 15.160156 C 6.875 17.09375 9.976562 19.953125 8.921875 24.460938 L 7.535156 25.441406 L 12.867188 27.832031 C 17.828125 22.457031 20.421875 17.234375 18.742188 12.152344 "/>
<path style=" stroke:none;fill-rule:nonzero;fill:rgb(65.490196%,9.803922%,18.823529%);fill-opacity:1;" d="M 25.492188 5.855469 C 30.050781 9.386719 26.882812 11.644531 21.324219 12.257812 C 22.730469 18.121094 18.417969 23.496094 13.847656 27.65625 L 18.035156 25.777344 C 18.347656 23.394531 22.59375 22.15625 24.609375 16.863281 C 34.066406 14.777344 32.523438 8.066406 25.492188 5.855469 "/>
</g>
</svg>
