<?xml version="1.0" encoding="UTF-8"?>
<svg xmlns="http://www.w3.org/2000/svg" xmlns:xlink="http://www.w3.org/1999/xlink" width="32px" height="32px" viewBox="0 0 32 33" version="1.1">
<g id="surface1">
<path style=" stroke:none;fill-rule:nonzero;fill:rgb(100%,100%,100%);fill-opacity:1;" d="M 15.957031 32.691406 C 12.769531 32.703125 10.328125 31.8125 9.15625 31.207031 C 6.867188 30.027344 4.980469 28.46875 3.355469 26.300781 C 1.015625 23.195312 0.566406 20.691406 0.378906 19.332031 C 0.269531 18.621094 0.140625 16.917969 0.382812 15.386719 C 0.660156 13.179688 1.171875 12.082031 1.539062 11.007812 C 1.820312 10.242188 2.738281 8.402344 3.285156 7.558594 C 3.746094 6.894531 4.59375 5.675781 4.9375 5.246094 C 5.03125 5.113281 4.910156 5.175781 4.855469 5.175781 C 4.730469 5.207031 4.664062 5.214844 4.566406 5.207031 C 4.496094 5.207031 4.347656 5.183594 4.265625 5.160156 C 3.8125 5.0625 3.164062 4.570312 3.242188 3.710938 C 3.226562 3.519531 3.4375 1.878906 3.601562 1.367188 C 3.8125 0.652344 4.25 0.316406 5.03125 0.253906 C 5.421875 0.253906 7.0625 0.21875 7.808594 0.335938 C 9.300781 0.480469 10.394531 0.90625 11.042969 2.195312 C 11.5625 3.328125 11.382812 5.097656 10.667969 6.449219 C 10.425781 6.910156 9.9375 7.773438 9.515625 8.328125 C 9.125 8.886719 8.960938 9.175781 8.621094 9.796875 C 8.28125 10.449219 7.144531 12.886719 6.753906 14.480469 C 6.011719 17.453125 6.429688 19.164062 7.859375 21.488281 C 8.914062 23.035156 10.148438 24.148438 11.105469 24.660156 C 12.683594 25.628906 14.835938 25.902344 15.957031 25.902344 C 17.078125 25.902344 19.230469 25.628906 20.808594 24.660156 C 21.765625 24.148438 23.003906 23.035156 24.058594 21.488281 C 25.488281 19.164062 25.902344 17.453125 25.164062 14.480469 C 24.773438 12.886719 23.636719 10.449219 23.292969 9.796875 C 22.953125 9.175781 22.789062 8.886719 22.402344 8.328125 C 21.976562 7.773438 21.492188 6.910156 21.246094 6.449219 C 20.53125 5.097656 20.351562 3.328125 20.875 2.195312 C 21.523438 0.90625 22.617188 0.480469 24.109375 0.335938 C 24.855469 0.21875 26.496094 0.253906 26.886719 0.253906 C 27.664062 0.316406 28.105469 0.652344 28.316406 1.367188 C 28.476562 1.878906 28.6875 3.519531 28.671875 3.710938 C 28.753906 4.570312 28.105469 5.0625 27.648438 5.160156 C 27.566406 5.183594 27.421875 5.207031 27.347656 5.207031 C 27.25 5.214844 27.1875 5.207031 27.058594 5.175781 C 27.007812 5.175781 26.886719 5.113281 26.980469 5.246094 C 27.324219 5.675781 28.167969 6.894531 28.632812 7.558594 C 29.175781 8.402344 30.09375 10.242188 30.378906 11.007812 C 30.746094 12.082031 31.257812 13.179688 31.53125 15.386719 C 31.777344 16.917969 31.644531 18.621094 31.535156 19.332031 C 31.351562 20.691406 30.898438 23.195312 28.5625 26.300781 C 26.9375 28.464844 25.050781 30.027344 22.757812 31.207031 C 21.589844 31.8125 19.144531 32.675781 15.957031 32.691406 "/>
<path style=" stroke:none;fill-rule:nonzero;fill:rgb(0.392157%,20%,41.176471%);fill-opacity:1;" d="M 15.941406 29.621094 C 16.152344 29.621094 16.320312 29.453125 16.320312 29.246094 C 16.320312 29.039062 16.152344 28.871094 15.941406 28.871094 C 15.730469 28.871094 15.558594 29.039062 15.558594 29.246094 C 15.558594 29.453125 15.730469 29.621094 15.941406 29.621094 Z M 5.761719 24.871094 C 5.972656 24.871094 6.144531 24.707031 6.144531 24.5 C 6.144531 24.289062 5.972656 24.121094 5.761719 24.121094 C 5.550781 24.121094 5.378906 24.289062 5.378906 24.5 C 5.378906 24.707031 5.550781 24.871094 5.761719 24.871094 Z M 3.488281 16.207031 C 3.699219 16.207031 3.871094 16.039062 3.871094 15.832031 C 3.871094 15.625 3.699219 15.457031 3.488281 15.457031 C 3.277344 15.457031 3.105469 15.625 3.105469 15.832031 C 3.105469 16.039062 3.277344 16.207031 3.488281 16.207031 Z M 7.972656 6.011719 C 8.183594 6.011719 8.355469 5.84375 8.355469 5.636719 C 8.355469 5.429688 8.183594 5.261719 7.972656 5.261719 C 7.761719 5.261719 7.589844 5.429688 7.589844 5.636719 C 7.589844 5.84375 7.761719 6.011719 7.972656 6.011719 Z M 26.539062 24.5 C 26.539062 24.289062 26.367188 24.121094 26.15625 24.121094 C 25.945312 24.121094 25.773438 24.289062 25.773438 24.5 C 25.773438 24.707031 25.945312 24.875 26.15625 24.875 C 26.367188 24.875 26.539062 24.707031 26.539062 24.5 Z M 28.8125 15.832031 C 28.8125 15.625 28.644531 15.457031 28.429688 15.457031 C 28.21875 15.457031 28.046875 15.625 28.046875 15.832031 C 28.046875 16.039062 28.21875 16.207031 28.429688 16.207031 C 28.644531 16.207031 28.8125 16.039062 28.8125 15.832031 Z M 24.328125 5.636719 C 24.328125 5.429688 24.15625 5.261719 23.945312 5.261719 C 23.734375 5.261719 23.566406 5.429688 23.566406 5.636719 C 23.566406 5.84375 23.734375 6.011719 23.945312 6.011719 C 24.15625 6.011719 24.328125 5.84375 24.328125 5.636719 Z M 8.832031 30.15625 C 6.753906 28.945312 4.867188 27.417969 3.046875 24.472656 C 2.234375 23.019531 0.351562 19.929688 1.28125 14.542969 C 2.351562 9.621094 4.511719 7.136719 5.746094 5.433594 C 6.328125 4.605469 5.730469 4.125 5.257812 4.300781 C 4.863281 4.449219 4.589844 4.457031 4.589844 4.457031 C 3.894531 4.363281 3.992188 3.917969 4.121094 2.753906 L 4.28125 1.800781 C 4.429688 0.957031 4.820312 0.972656 5.84375 0.992188 C 7.46875 1.023438 7.757812 1.035156 8.636719 1.195312 C 9.808594 1.449219 11.335938 2.597656 10.132812 5.75 C 9.386719 7.4375 8.605469 8.011719 7.757812 9.765625 C 6.851562 11.707031 4.640625 16.074219 6.136719 19.800781 C 8.183594 24.804688 12.148438 26.589844 15.917969 26.652344 C 19.6875 26.605469 24.042969 24.421875 25.785156 19.800781 C 27.277344 16.074219 25.066406 11.707031 24.160156 9.765625 C 23.3125 8.011719 22.535156 7.4375 21.785156 5.75 C 20.582031 2.597656 22.113281 1.449219 23.28125 1.195312 C 24.160156 1.035156 24.449219 1.023438 26.074219 0.992188 C 27.097656 0.972656 27.488281 0.957031 27.636719 1.800781 L 27.796875 2.753906 C 27.929688 3.917969 28.027344 4.363281 27.328125 4.457031 C 27.328125 4.457031 27.054688 4.449219 26.660156 4.300781 C 26.191406 4.125 25.589844 4.605469 26.171875 5.433594 C 27.40625 7.136719 29.566406 9.621094 30.636719 14.542969 C 31.570312 19.929688 29.683594 23.019531 28.871094 24.472656 C 27.050781 27.417969 25.167969 28.945312 23.085938 30.15625 C 20.238281 32.101562 14.910156 31.988281 15.933594 31.925781 C 17.003906 32.003906 12.019531 32.132812 8.832031 30.15625 "/>
</g>
</svg>
