<?xml version="1.0" encoding="UTF-8"?>
<svg xmlns="http://www.w3.org/2000/svg" xmlns:xlink="http://www.w3.org/1999/xlink" width="32px" height="32px" viewBox="0 0 32 20" version="1.1">
<g id="surface1">
<path style=" stroke:none;fill-rule:nonzero;fill:rgb(0%,0%,0%);fill-opacity:1;" d="M 30.871094 8.820312 C 30.601562 8.582031 30.378906 8.449219 30.308594 8.390625 C 29.910156 8.078125 30.246094 8.328125 29.859375 8.085938 C 29.585938 7.917969 29.507812 7.777344 29.226562 7.625 C 28.722656 7.34375 28.671875 7.265625 28.265625 6.789062 C 27.914062 6.160156 27.367188 6.070312 26.816406 5.949219 C 26.289062 5.832031 25.910156 5.417969 25.816406 5.277344 C 25.535156 4.828125 25.074219 4.609375 24.832031 4.476562 C 24.078125 4.074219 23.210938 4.144531 22.535156 3.550781 C 21.511719 2.84375 21.238281 2.972656 20.167969 2.941406 C 19.570312 2.925781 18.800781 2.554688 18.546875 2.351562 C 18.335938 2.175781 18.089844 2.066406 17.871094 1.996094 C 17.113281 1.769531 16.597656 2.160156 15.535156 1.65625 C 15.226562 1.507812 14.945312 1.308594 14.640625 1.132812 C 14.539062 1.058594 14.4375 1.003906 14.136719 0.941406 C 13.527344 0.824219 13.023438 0.898438 12.414062 0.957031 C 12.011719 0.984375 11.910156 0.820312 11.605469 0.664062 C 11.300781 0.523438 11 0.417969 10.695312 0.355469 C 10.199219 0.269531 9.675781 0.328125 9.136719 0.433594 C 8.074219 0.640625 7.113281 0.117188 6.082031 0.210938 C 5.910156 0.226562 5.578125 0.4375 5.457031 0.675781 C 5.304688 0.996094 5.304688 1.179688 5.324219 1.496094 C 5.359375 1.925781 5.40625 1.957031 5.492188 2.234375 C 5.679688 2.835938 5.773438 3.164062 5.921875 3.566406 C 6.09375 4.039062 6.089844 4.617188 5.679688 4.804688 C 5.484375 4.894531 5.152344 4.894531 4.96875 4.757812 C 4.679688 4.539062 4.523438 4.242188 4.199219 4.179688 C 3.765625 4.09375 3.246094 4.53125 2.785156 4.652344 C 2.324219 4.769531 2.261719 4.523438 1.945312 4.382812 C 1.734375 4.285156 1.527344 4.421875 1.410156 4.492188 C 1.191406 4.609375 1.144531 4.851562 1.089844 5.109375 C 1.050781 5.316406 1.03125 5.507812 1.082031 5.734375 C 1.160156 6.0625 1.273438 6.257812 1.277344 6.488281 C 1.300781 7.058594 1.203125 7.484375 0.964844 7.78125 C 0.8125 7.972656 0.609375 8.507812 0.546875 8.703125 C 0.335938 9.359375 0.359375 9.25 0.253906 9.859375 C 0.203125 10.171875 0.210938 10.523438 0.183594 10.8125 C 0.179688 10.867188 0.222656 11.527344 0.253906 11.730469 C 0.335938 12.222656 0.429688 12.535156 0.535156 12.945312 C 0.6875 13.542969 0.753906 13.914062 0.738281 14.371094 C 0.722656 14.839844 0.417969 15.285156 0.703125 15.617188 C 0.882812 15.824219 1.355469 16.007812 1.738281 15.84375 C 2.125 15.675781 2.40625 15.480469 2.710938 15.4375 C 3.269531 15.363281 3.632812 15.59375 3.875 15.570312 C 4.089844 15.542969 4.464844 15.335938 4.644531 15.320312 C 4.785156 15.308594 5.09375 15.292969 5.199219 15.375 C 5.375 15.5 5.476562 15.640625 5.449219 16.066406 C 5.449219 16.074219 5.347656 16.527344 5.347656 16.53125 C 5.167969 17.097656 4.976562 17.632812 4.886719 18.015625 C 4.789062 18.425781 4.332031 19.3125 5.257812 19.667969 C 5.648438 19.820312 6.0625 19.789062 6.574219 19.664062 C 6.835938 19.601562 6.941406 19.589844 7.1875 19.546875 C 7.1875 19.53125 7.550781 19.535156 7.550781 19.519531 L 7.875 19.503906 C 8.449219 19.441406 8.582031 19.476562 9.085938 19.546875 C 9.5625 19.605469 10.019531 19.695312 10.492188 19.640625 C 10.730469 19.617188 10.964844 19.574219 11.191406 19.5 C 11.851562 19.292969 12.160156 19.011719 12.953125 18.90625 C 13.613281 18.816406 13.613281 18.929688 14.195312 18.902344 C 14.800781 18.875 15.136719 18.621094 15.390625 18.484375 C 15.699219 18.320312 15.78125 18.304688 15.984375 18.199219 C 16.730469 17.804688 17.613281 17.851562 18.453125 17.652344 C 19.042969 17.511719 19.277344 17.238281 19.941406 17.066406 C 20.207031 16.996094 20.492188 17 20.773438 16.964844 C 20.992188 16.933594 21.371094 16.746094 21.582031 16.554688 C 21.941406 16.226562 21.90625 16.210938 22.1875 16.058594 C 22.65625 15.800781 23.195312 15.804688 23.675781 15.589844 C 24.117188 15.386719 24.574219 15.21875 24.917969 14.875 C 25.425781 14.371094 26.234375 14.226562 26.890625 13.996094 C 27.28125 13.859375 27.792969 13.609375 28.226562 12.886719 C 28.648438 12.179688 29.023438 12.074219 29.765625 11.859375 C 30.261719 11.710938 30.480469 11.609375 30.867188 11.253906 C 31.214844 10.9375 31.335938 10.730469 31.496094 10.511719 C 31.675781 10.253906 32.019531 9.832031 31.652344 9.511719 C 31.492188 9.367188 31.324219 9.109375 30.976562 8.84375 "/>
<path style=" stroke:none;fill-rule:nonzero;fill:rgb(100%,100%,100%);fill-opacity:1;" d="M 30.367188 9.433594 C 29.933594 9.132812 29.898438 9.078125 29.667969 8.929688 C 29.085938 8.550781 28.972656 8.464844 28.683594 8.144531 C 28.402344 7.832031 28.328125 7.722656 28.007812 7.554688 C 27.886719 7.488281 27.082031 7.21875 27.230469 7.242188 C 26.492188 7.117188 26.464844 6.960938 26.175781 6.699219 C 25.933594 6.351562 25.644531 5.941406 25.398438 5.78125 C 25.496094 5.839844 24.949219 5.492188 24.953125 5.5 C 24.535156 5.359375 24.390625 5.394531 23.859375 5.375 C 23.875 5.375 23.285156 5.296875 23.136719 5.226562 C 22.863281 5.109375 22.71875 4.972656 22.535156 4.835938 C 22.121094 4.53125 22.238281 4.601562 21.832031 4.308594 C 21.277344 3.917969 21.207031 4.011719 20.503906 3.945312 C 19.910156 3.886719 19.484375 3.75 19.019531 3.421875 C 18.1875 2.832031 17.378906 3.039062 16.871094 2.964844 C 16.144531 2.859375 15.628906 2.570312 15.355469 2.398438 C 14.765625 2.035156 14.902344 2.203125 14.273438 1.917969 C 13.519531 1.570312 12.816406 2.152344 11.9375 1.90625 C 11.46875 1.78125 11.296875 1.542969 11 1.4375 C 10.097656 1.179688 9.796875 1.316406 9.066406 1.328125 C 8.195312 1.328125 7.417969 1.101562 6.589844 1.109375 C 6.355469 1.109375 6.175781 1.300781 6.210938 1.558594 C 6.210938 1.558594 6.222656 1.871094 6.222656 1.878906 C 6.265625 2.136719 6.363281 2.410156 6.441406 2.699219 C 6.546875 3.046875 6.597656 3.164062 6.746094 3.714844 C 6.800781 4.160156 6.746094 4.28125 6.714844 4.472656 C 6.6875 4.625 6.582031 4.929688 6.507812 5.039062 C 6.421875 5.164062 6.308594 5.214844 6.15625 5.304688 C 5.894531 5.457031 5.625 5.527344 5.34375 5.519531 C 5.050781 5.511719 5.128906 5.511719 4.667969 5.347656 C 4.5 5.28125 4.152344 5.089844 3.808594 5.234375 C 3.140625 5.511719 3.066406 5.28125 2.703125 5.308594 C 2.597656 5.316406 2.488281 5.367188 2.382812 5.414062 C 2.214844 5.484375 2.140625 5.589844 2.03125 5.808594 C 1.96875 5.9375 1.917969 6.15625 1.945312 6.351562 C 1.90625 6.351562 2.011719 6.660156 2.011719 6.667969 C 2.089844 7.085938 2.113281 7.414062 1.949219 7.785156 C 1.792969 8.136719 1.75 8.257812 1.550781 8.542969 C 1.355469 8.820312 1.015625 9.613281 0.988281 10.34375 C 1.015625 10.316406 0.984375 11.210938 1.089844 11.738281 C 1.210938 12.320312 1.382812 12.367188 1.421875 13.332031 C 1.4375 13.695312 1.398438 14.011719 1.386719 14.339844 C 1.382812 14.550781 1.453125 14.847656 1.722656 14.804688 C 2.113281 14.746094 2.554688 14.535156 2.859375 14.523438 C 3.007812 14.519531 3.269531 14.566406 3.378906 14.597656 C 3.996094 14.8125 3.789062 14.652344 4.753906 14.488281 C 5.074219 14.429688 5.515625 14.5 5.691406 14.597656 C 6.257812 14.921875 6.210938 15.628906 6.046875 16.332031 C 6.019531 16.441406 5.878906 17.175781 5.847656 17.289062 C 5.75 17.65625 5.761719 17.679688 5.710938 18.074219 C 5.691406 18.265625 5.699219 18.414062 5.808594 18.589844 C 5.902344 18.730469 6.003906 18.832031 6.144531 18.832031 C 6.773438 18.847656 7.117188 18.832031 7.761719 18.722656 C 8.597656 18.574219 9.019531 18.574219 9.59375 18.625 C 10.183594 18.679688 11.019531 18.664062 11.363281 18.535156 C 11.679688 18.425781 12.09375 18.1875 12.425781 18.117188 C 13.519531 17.890625 13.558594 17.996094 14.449219 17.886719 C 15.160156 17.796875 15.523438 17.445312 15.886719 17.261719 C 16.386719 17.003906 16.824219 16.914062 17.394531 16.914062 C 17.730469 16.914062 18.210938 16.800781 18.445312 16.695312 C 19.390625 16.277344 19.035156 16.304688 20.347656 16.066406 C 21.015625 15.945312 21.492188 15.425781 21.90625 15.203125 C 22.171875 15.054688 22.40625 14.9375 22.703125 14.847656 C 23.101562 14.730469 23.550781 14.667969 23.9375 14.542969 C 24.554688 14.332031 24.742188 14.125 25.078125 13.828125 C 25.359375 13.578125 25.453125 13.585938 25.765625 13.394531 C 26.085938 13.199219 26.550781 13.054688 26.730469 13.003906 C 27.136719 12.878906 27.730469 12.214844 28.289062 11.667969 C 28.941406 11.011719 29.550781 11.121094 30.28125 10.742188 C 30.722656 10.511719 31.011719 10.359375 30.804688 9.949219 C 30.722656 9.785156 30.503906 9.582031 30.324219 9.460938 "/>
<path style="fill-rule:nonzero;fill:rgb(0%,0%,0%);fill-opacity:1;stroke-width:1;stroke-linecap:butt;stroke-linejoin:miter;stroke:rgb(0%,0%,0%);stroke-opacity:1;stroke-miterlimit:4;" d="M 153.119285 127.713565 C 139.489424 117.090416 143.350575 107.612514 149.103689 103.189493 L 150.802595 105.085073 L 147.906732 108.1259 L 148.138401 119.10447 L 187.329078 119.10447 L 192.348573 114.286537 L 192.348573 102.281194 L 189.336876 102.281194 L 175.745627 87.708919 C 201.847003 82.140651 214.666022 93.514134 222.349712 106.111846 L 232.543149 106.111846 L 237.755702 101.056965 L 237.755702 72.07038 L 226.828646 72.07038 L 220.303302 76.098489 C 197.329457 64.882971 179.297885 66.067709 161.304924 71.991398 L 158.37045 68.990062 L 174.973396 59.077756 L 184.973776 59.038265 L 189.877437 54.378296 L 189.877437 44.544972 L 149.875919 44.544972 L 145.667265 48.84952 L 145.667265 55.602525 L 108.175495 77.125261 L 108.175495 60.617915 L 114.198889 54.49677 L 114.198889 44.544972 L 74.93099 44.544972 L 69.563991 50.824083 L 69.563991 58.682843 L 75.973501 58.682843 L 75.973501 101.175439 L 74.004314 101.175439 C 74.004314 101.175439 68.753149 107.099128 69.02343 107.217601 L 69.02343 118.235663 L 110.414962 118.235663 L 114.546393 114.365519 L 114.546393 101.175439 L 108.445775 101.175439 L 108.445775 97.818682 L 131.226563 84.707583 L 133.157138 86.682146 C 128.099031 90.275851 124.083434 93.632608 121.071737 99.003419 C 116.592803 106.427776 114.971119 116.774486 117.596702 125.067651 C 119.295608 130.635918 121.457852 134.032167 125.203168 137.90231 C 128.755426 141.574997 131.805735 143.707525 137.713295 146.511405 C 142.501122 148.920371 153.775681 152.31662 162.579104 153.224919 C 171.112246 153.89627 181.807633 153.777796 188.796315 152.869497 C 196.480004 152.079672 204.511197 149.275793 209.299023 147.30123 C 213.160174 145.445141 217.407439 143.707525 220.689417 141.140593 C 228.952279 135.216904 237.678479 126.252388 237.794313 115.036871 L 222.388323 115.036871 C 217.561885 132.25506 170.996412 140.034838 152.308444 126.765775 " transform="matrix(0.101168,0,0,0.0989143,0.118598,0.0665218)"/>
<path style="fill-rule:nonzero;fill:rgb(89.019608%,9.411765%,21.568627%);fill-opacity:1;stroke-width:0.53446;stroke-linecap:butt;stroke-linejoin:miter;stroke:rgb(89.019608%,9.411765%,21.568627%);stroke-opacity:1;stroke-miterlimit:4;" d="M 188.688473 47.183195 L 151.697033 47.222647 L 151.697033 53.653291 L 156.017201 53.653291 L 107.145297 81.545719 L 107.145297 53.692743 L 113.23982 53.653291 L 113.23982 47.222647 L 77.366995 47.222647 L 77.366995 53.653291 L 83.461518 53.653291 L 83.461518 104.90119 L 77.366995 104.90119 L 77.366995 112.278678 L 113.23982 112.278678 L 113.23982 104.90119 L 107.415308 104.90119 L 107.415308 96.261244 L 135.187818 80.322713 L 158.215858 104.861738 L 153.085658 104.782834 L 153.085658 112.278678 L 190.308536 112.278678 L 190.308536 104.861738 L 189.112776 104.861738 L 155.400034 68.447719 L 180.472439 53.692743 L 188.688473 53.574388 Z M 188.881338 70.262502 C 177.270886 70.183599 169.016279 72.945225 165.004694 74.207683 L 174.570781 84.701864 C 195.168726 79.770388 217.232442 84.899123 226.914248 99.496292 L 236.210324 99.417388 L 236.326043 73.69481 L 227.762852 73.69481 L 221.668329 77.718894 C 208.977835 72.116737 197.907404 70.301954 188.881338 70.262502 Z M 226.914248 99.496292 L 226.68281 99.496292 Z M 136.692162 89.238822 C 128.128972 95.077689 125.236002 100.522039 123.384501 105.808581 C 121.957303 110.187732 119.912938 119.10384 124.040241 127.467624 C 129.054722 136.10757 137.155038 141.157401 142.632394 143.129991 C 151.542741 146.838461 165.969017 150.270769 182.32394 149.63954 C 194.050111 149.363377 204.233365 147.232979 214.069462 142.301503 C 219.816829 139.263714 220.974017 138.553582 226.68281 133.267039 C 230.964406 128.375015 234.435969 125.337226 235.901741 117.723027 L 226.065643 117.723027 C 222.092632 124.232575 216.653848 129.440214 204.156219 133.109232 L 204.233365 133.188136 C 180.08671 140.328913 156.827232 136.738798 146.52826 124.035316 C 137.965069 114.211816 141.976654 105.532419 147.415437 100.837653 Z M 136.692162 89.238822 " transform="matrix(0.101269,0,0,0.0990132,0.102606,0.0665218)"/>
</g>
</svg>
