<?xml version="1.0" encoding="UTF-8"?>
<svg xmlns="http://www.w3.org/2000/svg" xmlns:xlink="http://www.w3.org/1999/xlink" width="32px" height="32px" viewBox="0 0 32 34" version="1.1">
<g id="surface1">
<path style=" stroke:none;fill-rule:nonzero;fill:rgb(13.72549%,12.156863%,12.54902%);fill-opacity:1;" d="M 16.496094 22.070312 C 16.511719 22.078125 16.492188 22.09375 16.5 22.097656 C 16.511719 22.105469 16.523438 22.101562 16.53125 22.097656 C 16.515625 22.09375 16.53125 22.082031 16.527344 22.078125 C 16.519531 22.0625 16.503906 22.074219 16.496094 22.070312 "/>
<path style=" stroke:none;fill-rule:nonzero;fill:rgb(100%,100%,100%);fill-opacity:1;" d="M 16.050781 0.046875 C 11.710938 3.972656 6.046875 3.855469 0.226562 3.125 C -1.027344 17.347656 3.855469 31.382812 15.957031 33.925781 C 28.175781 31.484375 33.003906 17.472656 31.824219 3.242188 C 26.410156 3.789062 20.796875 4.007812 16.050781 0.046875 M 16.050781 0.046875 C 11.710938 3.972656 6.046875 3.855469 0.226562 3.125 C -1.027344 17.347656 3.855469 31.382812 15.957031 33.925781 C 28.175781 31.484375 33.003906 17.472656 31.824219 3.242188 C 26.410156 3.789062 20.796875 4.007812 16.050781 0.046875 "/>
<path style="fill:none;stroke-width:0.667;stroke-linecap:butt;stroke-linejoin:miter;stroke:rgb(3.921569%,3.921569%,3.529412%);stroke-opacity:1;stroke-miterlimit:4;" d="M 146.964966 0.430147 C 107.228271 36.454963 55.366699 35.379596 2.074463 28.676471 C -9.406616 159.190257 35.301636 287.983456 146.106567 311.318934 C 257.984497 288.915441 302.192017 160.337316 291.390503 29.751838 C 241.817993 34.770221 190.421387 36.777574 146.964966 0.430147 Z M 146.964966 0.430147 " transform="matrix(0.109215,0,0,0.108974,0,0)"/>
<path style=" stroke:none;fill-rule:nonzero;fill:rgb(0%,0%,0%);fill-opacity:1;" d="M 16.03125 1.433594 C 12.414062 4.371094 6.710938 5.097656 1.261719 4.304688 C 0.449219 17.273438 4.6875 29.945312 15.921875 32.871094 C 27.167969 30.007812 31.527344 17.390625 30.785156 4.417969 C 25.226562 5.039062 19.632812 4.390625 16.03125 1.433594 "/>
<path style=" stroke:none;fill-rule:nonzero;fill:rgb(100%,100%,100%);fill-opacity:1;" d="M 20.355469 23.789062 C 20.242188 24.132812 20.089844 24.457031 19.898438 24.761719 C 20 24.953125 20.074219 25.15625 20.125 25.363281 C 20.996094 26.035156 21.960938 26.664062 24.414062 26.070312 C 23.976562 25.933594 21.238281 24.574219 20.535156 23.910156 L 20.355469 23.789062 M 11.324219 24.164062 C 11.324219 24.164062 11.730469 24.8125 11.875 24.894531 C 11.875 24.894531 12.050781 25.050781 11.988281 25.601562 C 11 26.335938 8.59375 26.636719 7.371094 26.15625 C 7.371094 26.15625 10.316406 24.996094 11.132812 24.265625 L 11.324219 24.164062 M 18.957031 23.933594 C 18.898438 23.992188 18.851562 24.058594 18.789062 24.117188 C 18.769531 24.144531 18.746094 24.167969 18.71875 24.195312 C 18.652344 24.246094 18.589844 24.292969 18.515625 24.339844 C 18.441406 24.390625 18.386719 24.519531 18.453125 24.578125 C 18.507812 24.628906 18.613281 24.679688 18.683594 24.578125 C 18.71875 24.519531 18.800781 24.507812 18.84375 24.46875 C 18.972656 24.355469 19.0625 24.199219 19.097656 24.03125 C 19.109375 23.96875 19.054688 23.941406 19.015625 23.898438 C 19.023438 23.945312 18.960938 23.933594 18.957031 23.96875 L 18.957031 23.933594 M 12.707031 24.109375 C 12.777344 24.304688 12.941406 24.386719 12.992188 24.464844 C 13.070312 24.589844 13.105469 24.722656 13.179688 24.839844 C 13.050781 24.914062 12.953125 25.121094 12.828125 25.058594 C 12.765625 25.027344 12.746094 24.890625 12.707031 24.796875 C 12.609375 24.554688 12.746094 24.355469 12.707031 24.109375 "/>
<path style=" stroke:none;fill-rule:nonzero;fill:rgb(64.705882%,67.45098%,68.627451%);fill-opacity:1;" d="M 15.054688 10.308594 C 13.578125 10.308594 12.050781 10.675781 11.59375 12.085938 C 11.59375 12.085938 10.816406 14.925781 10.867188 15.371094 C 10.453125 15.496094 9.617188 15.894531 9.867188 18.160156 C 9.867188 18.160156 10.765625 22.226562 11.164062 23.023438 L 11.421875 23.035156 C 11.421875 23.035156 11.660156 22.789062 11.617188 23.597656 C 11.542969 23.886719 11.660156 24.191406 11.910156 24.351562 C 11.910156 24.351562 12.074219 23.671875 12.1875 24.699219 C 12.207031 25.695312 12.523438 26.746094 13.984375 27.78125 C 13.984375 27.78125 14.671875 27.339844 14.75 27.304688 C 14.75 27.304688 13.734375 26.921875 13.210938 26.339844 C 13.210938 26.339844 13.355469 27.046875 12.769531 26.242188 C 12.769531 26.242188 12.488281 25.96875 12.328125 24.117188 C 12.339844 23.859375 12.304688 23.820312 12.097656 23.550781 C 11.292969 21.910156 10.652344 18.128906 12.167969 16.730469 C 13.761719 16.628906 17.570312 16.542969 18.996094 16.804688 C 19.582031 16.945312 19.871094 17.132812 20 18.136719 C 20.285156 19.40625 20.097656 21.941406 19.433594 23.972656 C 19.433594 23.972656 19.339844 24.410156 19.105469 24.621094 C 18.585938 24.929688 18.164062 25.382812 17.890625 25.921875 C 17.765625 26.171875 17.496094 26.417969 17.039062 26.613281 C 16.582031 26.886719 14.894531 27.3125 15.558594 28.050781 C 15.386719 28.121094 15.210938 28.179688 15.03125 28.226562 C 15.03125 28.226562 15.121094 28.640625 15.308594 28.574219 C 15.308594 28.574219 15.648438 28.445312 15.769531 28.230469 C 16.761719 28.355469 18.03125 28.128906 18.808594 27.429688 C 19.113281 27.226562 19.683594 26.957031 19.75 26.425781 C 19.75 26.425781 20.078125 25.8125 19.539062 24.789062 C 19.742188 24.429688 20.074219 23.746094 20.027344 23.230469 C 20.046875 23.199219 21.765625 21.238281 21.972656 18.539062 C 21.972656 18.539062 21.734375 16.949219 21.800781 18.464844 C 21.800781 18.464844 21.78125 18.730469 21.628906 19.496094 C 21.628906 19.496094 21.308594 20.671875 21.480469 19.542969 C 21.511719 18.414062 21.464844 17.28125 21.332031 16.15625 C 21.332031 16.15625 21.28125 15.558594 21.605469 16.425781 C 21.648438 16.585938 21.554688 16.226562 21.554688 16.226562 C 21.554688 16.226562 21.710938 17.320312 21.75 16.546875 C 21.554688 15.640625 21.503906 15.417969 21.234375 15.320312 C 21.105469 14.421875 20.882812 13.542969 20.570312 12.691406 L 20.445312 12.839844 C 20.902344 14.101562 21.199219 18.292969 21.085938 19.496094 C 21.085938 19.496094 20.796875 21.867188 20.546875 21.707031 C 20.546875 21.707031 20.949219 17.707031 20.769531 16.21875 C 20.683594 14.335938 20.410156 13.878906 20.300781 13.132812 C 20.300781 13.132812 19.703125 11.578125 20.324219 12.421875 L 20.398438 12.371094 C 19.867188 11.015625 19.070312 10.359375 16.65625 10.308594 L 16.984375 16.195312 L 14.816406 16.203125 L 15.054688 10.308594 "/>
<path style=" stroke:none;fill-rule:nonzero;fill:rgb(100%,100%,100%);fill-opacity:1;" d="M 12.308594 17.996094 C 12.296875 17.992188 12.792969 17.914062 12.785156 17.914062 C 13.320312 17.914062 14.578125 17.90625 14.851562 18.011719 C 14.988281 18.066406 15.234375 17.941406 15.355469 17.890625 C 15.703125 17.761719 16.035156 17.59375 16.34375 17.390625 C 16.421875 17.34375 16.984375 17.007812 16.882812 16.996094 C 15.578125 16.851562 12.914062 16.867188 12.386719 17.023438 C 12.285156 17.039062 12.191406 17.074219 12.105469 17.132812 C 11.855469 17.40625 11.910156 17.429688 11.734375 17.8125 C 11.847656 17.5625 11.675781 18.128906 11.660156 18.179688 C 11.617188 18.324219 11.867188 18.316406 11.914062 18.246094 C 12.007812 18.121094 12.027344 17.976562 12.308594 17.996094 M 19.59375 22.027344 C 19.546875 22.308594 19.484375 22.589844 19.402344 22.863281 C 19.3125 23.113281 19.269531 23.28125 18.957031 23.542969 C 18.894531 23.003906 18.742188 22.738281 18.773438 22.535156 C 18.5625 22.617188 18.59375 22.925781 18.570312 23.207031 C 18.535156 23.65625 18.65625 23.988281 18.628906 23.855469 C 18.640625 23.917969 18.472656 24.042969 18.410156 24.140625 C 18.222656 24.445312 18 24.726562 17.742188 24.976562 C 17.703125 25.011719 17.691406 25.085938 17.652344 25.105469 C 17.507812 25.167969 17.46875 25.261719 17.382812 25.359375 C 17.316406 25.441406 17.132812 25.503906 17.035156 25.554688 C 16.941406 25.59375 16.84375 25.625 16.746094 25.648438 C 16.621094 25.667969 16.496094 25.671875 16.371094 25.65625 C 16.210938 25.648438 15.992188 25.453125 15.820312 25.410156 C 15.316406 25.289062 15.199219 25.742188 14.417969 25.574219 C 14.097656 25.503906 14.03125 25.289062 13.832031 25.0625 C 13.792969 25.019531 13.601562 24.785156 13.570312 24.753906 C 13.652344 24.839844 13.035156 24.261719 12.917969 23.816406 C 12.785156 23.316406 12.851562 23.277344 12.914062 22.855469 C 12.933594 22.699219 12.90625 22.300781 12.757812 22.277344 C 12.621094 22.414062 12.71875 22.511719 12.679688 22.714844 C 12.640625 22.910156 12.824219 22.917969 12.683594 23.359375 C 12.640625 23.488281 12.574219 23.457031 12.535156 23.371094 C 12.386719 23.058594 12.464844 22.378906 12.132812 22.113281 C 12.058594 22.03125 12.050781 21.910156 12.117188 21.820312 C 12.21875 21.746094 12.316406 21.863281 12.449219 21.835938 C 12.472656 21.828125 12.457031 21.671875 12.441406 21.652344 C 12.332031 21.523438 12.089844 21.574219 12.09375 21.558594 C 12.125 21.300781 12.121094 21.070312 12.03125 20.945312 C 11.914062 20.773438 11.734375 20.746094 11.664062 20.578125 C 11.578125 20.371094 11.539062 20.148438 11.550781 19.925781 C 11.519531 19.773438 11.515625 19.617188 11.539062 19.464844 C 11.5 19.472656 11.515625 19.167969 11.515625 19.148438 C 11.539062 18.925781 11.578125 18.9375 11.613281 18.730469 C 11.621094 18.601562 11.9375 18.523438 11.941406 18.820312 C 11.863281 19.210938 11.980469 19.515625 11.988281 19.910156 C 11.992188 19.957031 12.070312 20.003906 12.121094 20.015625 C 12.980469 20.261719 13.625 20.167969 14.476562 20.152344 C 14.707031 20.148438 14.84375 19.863281 14.894531 19.640625 C 14.960938 19.34375 14.988281 19.042969 14.976562 18.738281 C 15.019531 18.632812 15.121094 18.660156 15.199219 18.75 C 15.34375 18.917969 15.230469 18.980469 15.269531 19.199219 C 15.296875 19.363281 15.078125 19.613281 15.078125 19.613281 C 15.105469 19.613281 15.007812 20.179688 15.03125 20.179688 C 15.074219 20.183594 15 20.691406 14.988281 20.675781 C 14.953125 20.953125 15.144531 20.851562 15.113281 21.050781 C 15.101562 21.132812 15.085938 21.210938 15.066406 21.289062 C 15.09375 21.476562 14.675781 21.433594 14.742188 21.4375 C 14.652344 21.433594 14.578125 21.394531 14.582031 21.320312 C 14.589844 21.214844 14.558594 21.136719 14.5625 21.042969 C 14.359375 21.03125 14.441406 21.195312 14.429688 21.402344 C 14.425781 21.496094 14.488281 21.574219 14.640625 21.597656 C 14.808594 21.625 14.824219 21.644531 14.902344 21.59375 C 14.941406 21.566406 15.074219 21.539062 15.09375 21.476562 C 15.167969 21.773438 15.257812 21.816406 15.480469 21.808594 C 15.578125 21.808594 15.792969 21.84375 15.878906 21.628906 C 15.902344 21.574219 16.046875 21.582031 16.070312 21.527344 C 16.453125 21.601562 16.21875 21.757812 16.683594 21.609375 C 16.765625 21.582031 16.828125 21.519531 16.855469 21.441406 C 16.878906 21.359375 16.867188 21.273438 16.820312 21.203125 C 16.804688 21.183594 16.730469 21.183594 16.726562 21.195312 C 16.675781 21.59375 16.519531 21.476562 16.367188 21.46875 C 15.875 21.441406 16.140625 21.234375 15.722656 21.472656 C 15.671875 21.5 15.523438 21.699219 15.328125 21.542969 C 15.066406 21.308594 15.351562 21.136719 15.382812 20.882812 C 15.40625 20.488281 15.40625 20.09375 15.390625 19.703125 C 15.363281 19.199219 15.492188 19.503906 15.578125 19.289062 C 15.503906 19.304688 15.542969 18.671875 15.539062 18.640625 C 15.496094 18.414062 15.230469 18.503906 15.160156 18.417969 C 15.160156 18.417969 15.128906 18.242188 15.171875 18.234375 C 15.5 18.152344 15.820312 18.03125 16.121094 17.875 C 16.5625 17.667969 16.992188 17.4375 17.40625 17.1875 C 17.496094 17.132812 17.535156 17.011719 17.582031 17.011719 C 18.15625 17.003906 18.710938 16.890625 19.21875 17.171875 C 19.574219 17.371094 19.660156 17.5625 19.753906 17.902344 C 19.714844 17.90625 19.789062 18.261719 19.789062 18.289062 C 19.796875 18.511719 19.785156 18.917969 19.789062 19.027344 C 19.804688 19.757812 19.847656 20.007812 19.746094 20.503906 C 19.746094 20.507812 19.671875 20.683594 19.644531 20.679688 C 19.566406 20.800781 19.46875 20.910156 19.359375 21.007812 C 19.320312 21.039062 19.335938 21.144531 19.363281 21.128906 C 19.472656 21.078125 19.585938 21.035156 19.703125 20.996094 C 19.699219 21.34375 19.664062 21.6875 19.59375 22.023438 "/>
<path style=" stroke:none;fill-rule:nonzero;fill:rgb(0%,0%,0%);fill-opacity:1;" d="M 18.59375 18.523438 C 18.480469 18.425781 18.351562 18.339844 18.21875 18.265625 C 18.136719 18.21875 17.792969 18.449219 17.710938 18.457031 C 17.355469 18.496094 17.15625 18.511719 16.78125 18.523438 C 16.691406 18.523438 16.558594 18.527344 16.503906 18.441406 C 16.46875 18.375 16.472656 18.300781 16.515625 18.238281 C 16.625 18.09375 16.847656 18.339844 16.984375 17.972656 C 16.984375 17.976562 17.40625 17.957031 17.535156 17.953125 C 17.976562 17.929688 18.625 17.933594 18.566406 17.988281 C 18.621094 17.9375 18.707031 18.175781 18.792969 18.238281 C 18.960938 18.351562 18.914062 18.203125 18.988281 18.433594 L 18.984375 18.523438 C 18.976562 18.574219 18.960938 18.625 18.9375 18.671875 C 18.871094 18.660156 18.804688 18.644531 18.738281 18.625 C 18.75 18.625 18.582031 18.523438 18.59375 18.523438 M 16.472656 18.816406 C 16.730469 18.667969 16.277344 18.625 16.359375 19.066406 C 16.351562 19.023438 16.441406 19.050781 16.449219 19.03125 C 16.464844 18.960938 16.46875 18.890625 16.472656 18.816406 M 16.214844 19.820312 C 16.273438 20.117188 16.21875 20.078125 16.1875 20.351562 C 16.15625 20.601562 16.371094 20.660156 16.371094 20.378906 C 16.371094 19.328125 16.300781 19.621094 16.214844 19.820312 M 19.148438 21.324219 C 19.125 21.382812 19.085938 21.386719 19.039062 21.417969 C 19.003906 21.441406 18.960938 21.496094 18.980469 21.535156 C 19 21.558594 19.03125 21.574219 19.0625 21.574219 C 19.09375 21.570312 19.125 21.535156 19.132812 21.507812 C 19.148438 21.445312 19.152344 21.386719 19.148438 21.324219 M 16.5 20.941406 C 16.515625 20.941406 16.53125 20.9375 16.546875 20.925781 C 16.558594 20.914062 16.566406 20.898438 16.566406 20.878906 C 16.566406 20.855469 16.558594 20.835938 16.539062 20.820312 C 16.519531 20.808594 16.492188 20.808594 16.472656 20.820312 C 16.449219 20.828125 16.4375 20.851562 16.4375 20.875 C 16.433594 20.890625 16.441406 20.90625 16.453125 20.921875 C 16.464844 20.933594 16.480469 20.941406 16.5 20.941406 M 18.828125 19.191406 C 18.734375 19.238281 18.648438 19.230469 18.558594 19.28125 C 18.699219 19.199219 17.789062 19.148438 18.132812 19.183594 C 17.902344 19.144531 17.671875 19.121094 17.4375 19.109375 L 17.386719 19.132812 C 17.261719 19.164062 17.195312 19.066406 17.101562 19.003906 C 17.035156 18.960938 16.976562 19.007812 16.914062 18.996094 C 16.929688 18.972656 16.894531 18.957031 16.902344 18.945312 C 16.921875 18.921875 16.949219 18.90625 16.976562 18.902344 C 17.09375 18.902344 17.207031 18.886719 17.320312 18.863281 C 17.6875 18.734375 17.976562 18.910156 18.351562 18.898438 C 18.472656 18.894531 18.636719 18.871094 18.746094 18.949219 C 18.769531 18.964844 18.769531 19.003906 18.785156 19.015625 C 18.835938 19.054688 18.921875 19.03125 18.953125 19.0625 C 19.011719 19.125 18.894531 19.160156 18.828125 19.191406 M 18.464844 19.726562 C 18.441406 19.71875 18.433594 19.6875 18.414062 19.6875 C 18.203125 19.683594 17.996094 19.636719 17.808594 19.546875 C 17.742188 19.519531 17.675781 19.574219 17.605469 19.582031 C 17.511719 19.59375 17.414062 19.554688 17.332031 19.585938 C 17.273438 19.605469 17.222656 19.695312 17.273438 19.722656 C 17.371094 19.765625 17.484375 19.753906 17.570312 19.691406 C 17.695312 19.628906 17.839844 19.621094 17.96875 19.667969 C 18.003906 19.683594 18.042969 19.695312 18.078125 19.699219 C 18.210938 19.695312 18.335938 19.734375 18.464844 19.726562 M 17.097656 19.375 C 17.101562 19.347656 17.046875 19.355469 17.0625 19.320312 C 16.972656 19.292969 16.890625 19.375 16.804688 19.339844 C 16.757812 19.320312 16.726562 19.269531 16.679688 19.242188 C 16.675781 19.3125 16.652344 19.410156 16.710938 19.4375 C 16.832031 19.488281 16.964844 19.335938 17.097656 19.414062 C 17.097656 19.402344 17.097656 19.386719 17.097656 19.375 "/>
<path style=" stroke:none;fill-rule:nonzero;fill:rgb(100%,100%,100%);fill-opacity:1;" d="M 9.792969 13.964844 L 8.996094 14.753906 C 8.996094 14.753906 9.695312 15.84375 9.785156 15.882812 C 9.929688 15.613281 10.171875 15.242188 10.484375 15.21875 L 10.542969 14.816406 L 9.792969 13.964844 M 6.835938 10.824219 L 7.257812 10.828125 C 7.820312 11.445312 9.203125 13.253906 9.203125 13.253906 L 8.992188 13.757812 C 9.53125 13.308594 9.84375 13.011719 10.042969 12.726562 C 10.4375 12.304688 10.789062 12.636719 10.476562 12.914062 C 10.273438 13.308594 9.289062 14.105469 8.648438 14.664062 C 6.824219 16.300781 3.375 13.683594 6.261719 11.160156 L 6.835938 10.824219 "/>
<path style=" stroke:none;fill-rule:nonzero;fill:rgb(0%,0%,0%);fill-opacity:1;" d="M 6.285156 11.789062 C 6.601562 11.402344 6.886719 11.617188 6.632812 11.84375 C 6.441406 12.015625 6.800781 12.402344 7.035156 12.308594 C 7.21875 12.234375 7.441406 12.53125 7.386719 12.640625 C 7.242188 12.933594 7.515625 13.238281 7.730469 13.140625 C 7.847656 13.082031 8.09375 13.277344 8.007812 13.449219 C 7.945312 13.570312 7.972656 13.714844 8.066406 13.808594 C 8.164062 13.902344 8.3125 13.921875 8.429688 13.859375 C 8.742188 13.703125 8.566406 14.125 8.566406 14.125 C 7 15.441406 4.707031 12.925781 6.285156 11.789062 "/>
<path style=" stroke:none;fill-rule:nonzero;fill:rgb(100%,100%,100%);fill-opacity:1;" d="M 6.449219 11.21875 C 6.726562 11.230469 6.960938 11.019531 6.976562 10.742188 C 6.992188 10.464844 6.777344 10.230469 6.5 10.214844 C 6.222656 10.199219 5.988281 10.414062 5.972656 10.691406 C 5.964844 10.824219 6.011719 10.953125 6.101562 11.050781 C 6.191406 11.152344 6.316406 11.210938 6.449219 11.21875 "/>
<path style=" stroke:none;fill-rule:nonzero;fill:rgb(0%,0%,0%);fill-opacity:1;" d="M 6.617188 10.40625 C 6.921875 10.570312 6.65625 11.015625 6.457031 10.96875 C 6.242188 10.917969 6.40625 10.875 6.40625 10.875 C 6.609375 10.902344 6.792969 10.582031 6.539062 10.476562 C 6.441406 10.433594 6.617188 10.40625 6.617188 10.40625 "/>
<path style=" stroke:none;fill-rule:nonzero;fill:rgb(100%,100%,100%);fill-opacity:1;" d="M 24.765625 10.839844 L 24.339844 10.855469 C 23.800781 11.492188 22.472656 13.339844 22.472656 13.339844 L 22.699219 13.839844 C 22.144531 13.40625 21.824219 13.117188 21.617188 12.839844 C 21.210938 12.429688 20.871094 12.773438 21.1875 13.042969 C 21.40625 13.433594 22.414062 14.195312 23.074219 14.734375 C 24.945312 16.3125 28.320312 13.429688 25.355469 11 L 24.765625 10.839844 "/>
<path style=" stroke:none;fill-rule:nonzero;fill:rgb(0%,0%,0%);fill-opacity:1;" d="M 25.40625 11.582031 C 25.140625 11.3125 24.929688 11.464844 25.003906 11.691406 C 25.089844 11.949219 24.769531 12.429688 24.613281 12.332031 C 24.402344 12.199219 24.191406 12.546875 24.269531 12.671875 C 24.402344 12.882812 24.148438 13.292969 23.941406 13.183594 C 23.828125 13.121094 23.59375 13.347656 23.671875 13.5 C 23.804688 13.753906 23.523438 13.988281 23.265625 13.921875 C 22.929688 13.835938 23.136719 14.191406 23.136719 14.191406 C 24.746094 15.460938 27.015625 12.667969 25.40625 11.582031 "/>
<path style=" stroke:none;fill-rule:nonzero;fill:rgb(100%,100%,100%);fill-opacity:1;" d="M 25.167969 11.058594 C 24.890625 11.082031 24.644531 11.039062 24.621094 10.761719 C 24.597656 10.488281 24.808594 10.082031 25.085938 10.058594 C 25.363281 10.039062 25.605469 10.242188 25.628906 10.519531 C 25.652344 10.792969 25.445312 11.035156 25.167969 11.058594 "/>
<path style=" stroke:none;fill-rule:nonzero;fill:rgb(0%,0%,0%);fill-opacity:1;" d="M 24.976562 10.253906 C 24.582031 10.480469 24.863281 10.890625 25.152344 10.8125 C 25.367188 10.753906 25.199219 10.714844 25.199219 10.714844 C 24.917969 10.765625 24.714844 10.476562 25.054688 10.320312 C 25.152344 10.277344 24.976562 10.253906 24.976562 10.253906 "/>
<path style=" stroke:none;fill-rule:nonzero;fill:rgb(100%,100%,100%);fill-opacity:1;" d="M 21.976562 14.101562 C 22.085938 14.164062 22.738281 14.75 22.898438 14.851562 C 22.804688 15.25 22.167969 16.492188 22.027344 16.703125 C 22.007812 15.964844 21.90625 15.128906 21.5 15.128906 L 21.421875 14.828125 L 21.976562 14.101562 "/>
<path style=" stroke:none;fill-rule:nonzero;fill:rgb(0%,0%,0%);fill-opacity:1;" d="M 19.351562 25.851562 C 19.382812 25.628906 19.1875 25.417969 19.050781 25.59375 C 18.976562 25.691406 18.96875 25.867188 18.878906 25.960938 C 18.632812 26.207031 18.480469 26.253906 18.335938 26.40625 C 18.183594 26.570312 18.132812 26.675781 18.28125 26.894531 C 18.292969 26.914062 18.316406 27.136719 18.476562 27.257812 C 18.675781 27.40625 18.957031 27.25 19.253906 26.878906 C 19.320312 26.796875 19.308594 26.679688 19.324219 26.585938 C 19.363281 26.34375 19.316406 26.097656 19.351562 25.851562 M 18.085938 27.246094 C 18.066406 27.859375 17.171875 28.101562 16.8125 27.898438 C 16.753906 27.863281 16.5625 27.695312 16.601562 27.578125 C 16.65625 27.46875 16.753906 27.386719 16.871094 27.351562 C 16.980469 27.308594 17.074219 27.347656 17.179688 27.253906 C 17.324219 27.125 17.425781 27.101562 17.597656 26.9375 C 17.707031 26.855469 17.859375 26.851562 17.972656 26.933594 C 18.082031 26.992188 18.125 27.121094 18.078125 27.234375 L 18.085938 27.246094 "/>
<path style=" stroke:none;fill-rule:nonzero;fill:rgb(100%,100%,100%);fill-opacity:1;" d="M 19.085938 26.332031 C 18.707031 26.585938 18.242188 26.804688 18.679688 27.035156 C 18.78125 27.089844 19.058594 26.890625 19.128906 26.664062 C 19.121094 26.550781 19.109375 26.441406 19.085938 26.332031 M 17.78125 27.523438 C 17.691406 27.582031 17.601562 27.636719 17.503906 27.683594 C 17.34375 27.777344 17.15625 27.816406 16.96875 27.792969 C 16.804688 27.761719 16.871094 27.617188 16.910156 27.613281 C 17.375 27.550781 17.464844 27.289062 17.765625 27.171875 C 17.851562 27.191406 17.867188 27.324219 17.855469 27.363281 C 17.84375 27.417969 17.816406 27.472656 17.78125 27.523438 "/>
<path style=" stroke:none;fill-rule:nonzero;fill:rgb(0%,0%,0%);fill-opacity:1;" d="M 14.269531 21.988281 C 14.152344 22.136719 14.273438 22.160156 13.988281 22.433594 C 13.90625 22.511719 13.757812 22.570312 13.6875 22.671875 C 13.675781 22.714844 13.671875 22.757812 13.671875 22.804688 C 13.855469 22.863281 14.183594 22.71875 14.527344 22.714844 C 14.742188 22.730469 14.949219 22.765625 15.152344 22.824219 C 15.527344 22.902344 15.871094 22.820312 16.316406 22.792969 C 16.855469 22.765625 16.957031 22.894531 17.125 22.875 C 17.457031 22.835938 17.660156 22.671875 17.519531 22.714844 C 17.554688 22.703125 17.242188 22.742188 17.265625 22.695312 C 17.171875 22.679688 17.117188 22.730469 17.039062 22.738281 C 16.851562 22.765625 16.660156 22.746094 16.480469 22.683594 C 16.203125 22.589844 15.890625 22.730469 15.597656 22.730469 C 15.121094 22.730469 14.59375 22.554688 13.996094 22.617188 C 13.941406 22.625 14.484375 22.183594 14.441406 22.234375 C 14.601562 22.039062 14.632812 21.773438 14.664062 21.859375 C 14.65625 21.832031 14.507812 21.683594 14.269531 21.988281 M 14.910156 23.515625 C 15.320312 23.480469 16.085938 23.6875 16.445312 23.558594 C 16.441406 23.59375 16.746094 23.464844 16.738281 23.609375 C 16.726562 23.8125 16.230469 23.773438 16.101562 23.742188 C 15.746094 23.664062 15.617188 23.773438 14.878906 23.753906 C 14.847656 23.75 14.507812 23.804688 14.410156 23.542969 C 14.382812 23.472656 14.601562 23.460938 14.910156 23.515625 M 17.332031 22.238281 C 17.296875 22.335938 17.390625 22.394531 17.445312 22.34375 C 17.464844 22.316406 17.472656 22.277344 17.460938 22.242188 C 17.453125 22.210938 17.425781 22.179688 17.390625 22.167969 C 17.398438 22.21875 17.34375 22.210938 17.332031 22.238281 M 17.171875 22.042969 C 17.140625 22.019531 17.101562 21.996094 17.0625 21.976562 C 16.9375 21.945312 16.835938 21.878906 16.703125 21.855469 C 16.671875 21.851562 16.65625 21.796875 16.710938 21.769531 C 16.796875 21.746094 16.886719 21.757812 16.964844 21.796875 C 17.074219 21.835938 17.089844 21.964844 17.179688 22.019531 C 17.203125 22.035156 17.273438 22.046875 17.253906 22.082031 C 17.234375 22.121094 17.164062 22.105469 17.15625 22.042969 L 17.171875 22.042969 "/>
<path style=" stroke:none;fill-rule:nonzero;fill:rgb(100%,100%,100%);fill-opacity:1;" d="M 17.554688 22.585938 C 17.582031 22.585938 17.605469 22.554688 17.605469 22.515625 C 17.605469 22.480469 17.582031 22.449219 17.554688 22.449219 C 17.527344 22.449219 17.503906 22.480469 17.503906 22.515625 C 17.503906 22.554688 17.527344 22.585938 17.554688 22.585938 M 25.667969 7.496094 C 25.957031 7.691406 26.191406 7.804688 26.417969 7.804688 C 26.570312 7.804688 26.65625 7.746094 26.65625 7.652344 C 26.65625 7.511719 26.503906 7.496094 26.257812 7.441406 C 25.746094 7.335938 25.488281 7.054688 25.488281 6.621094 C 25.488281 5.996094 25.976562 5.535156 26.738281 5.535156 C 27.089844 5.539062 27.4375 5.632812 27.746094 5.808594 L 27.417969 6.585938 C 27.242188 6.449219 27.027344 6.367188 26.804688 6.355469 C 26.65625 6.355469 26.570312 6.410156 26.570312 6.496094 C 26.570312 6.640625 26.769531 6.664062 27.125 6.742188 C 27.515625 6.808594 27.800781 7.148438 27.792969 7.542969 C 27.792969 8.179688 27.28125 8.664062 26.5 8.664062 C 26.085938 8.660156 25.679688 8.542969 25.324219 8.332031 L 25.667969 7.496094 M 5.457031 6.953125 L 5.625 6.953125 C 5.828125 6.953125 5.941406 6.851562 5.941406 6.667969 C 5.941406 6.484375 5.832031 6.371094 5.625 6.371094 L 5.457031 6.371094 Z M 4.402344 5.605469 L 5.753906 5.605469 C 6.550781 5.605469 6.960938 5.96875 6.960938 6.609375 C 6.960938 7.035156 6.730469 7.328125 6.382812 7.371094 L 7.183594 8.585938 L 5.976562 8.585938 L 5.457031 7.601562 L 5.457031 8.585938 L 4.402344 8.585938 L 4.402344 5.605469 M 9.835938 7.476562 L 9.746094 7.140625 C 9.679688 6.925781 9.640625 6.707031 9.625 6.484375 L 9.605469 6.484375 C 9.585938 6.707031 9.546875 6.925781 9.484375 7.140625 L 9.390625 7.476562 Z M 9.03125 5.578125 L 10.226562 5.578125 L 11.269531 8.5625 L 10.117188 8.5625 L 10.019531 8.183594 L 9.210938 8.183594 L 9.117188 8.5625 L 7.964844 8.5625 L 9.03125 5.578125 M 12.230469 5.605469 L 13.324219 5.605469 L 13.324219 8.585938 L 12.230469 8.585938 L 12.230469 5.605469 M 16.199219 7.097656 C 16.199219 6.703125 15.984375 6.519531 15.546875 6.519531 L 15.503906 6.519531 L 15.503906 7.675781 C 15.980469 7.667969 16.199219 7.5 16.199219 7.097656 Z M 14.582031 5.605469 L 15.449219 5.605469 C 15.96875 5.605469 16.355469 5.652344 16.632812 5.792969 C 17.089844 6.023438 17.394531 6.476562 17.433594 6.988281 C 17.46875 7.5 17.234375 7.992188 16.816406 8.289062 C 16.429688 8.554688 15.96875 8.585938 15.371094 8.585938 L 14.582031 8.585938 L 14.582031 5.605469 M 18.453125 5.605469 L 20.449219 5.605469 L 20.449219 6.414062 L 19.503906 6.414062 L 19.503906 6.699219 L 20.363281 6.699219 L 20.363281 7.464844 L 19.503906 7.464844 L 19.503906 7.777344 L 20.476562 7.777344 L 20.476562 8.585938 L 18.453125 8.585938 L 18.453125 5.605469 M 22.738281 6.953125 L 22.90625 6.953125 C 23.109375 6.953125 23.222656 6.851562 23.222656 6.667969 C 23.222656 6.484375 23.113281 6.371094 22.90625 6.371094 L 22.738281 6.371094 Z M 21.683594 5.605469 L 23.035156 5.605469 C 23.832031 5.605469 24.242188 5.96875 24.242188 6.609375 C 24.242188 7.035156 24.011719 7.328125 23.664062 7.371094 L 24.464844 8.585938 L 23.261719 8.585938 L 22.738281 7.601562 L 22.738281 8.585938 L 21.683594 8.585938 L 21.683594 5.605469 "/>
</g>
</svg>
