<?xml version="1.0" encoding="UTF-8"?>
<svg xmlns="http://www.w3.org/2000/svg" xmlns:xlink="http://www.w3.org/1999/xlink" width="32px" height="32px" viewBox="0 0 32 30" version="1.1">
<g id="surface1">
<path style=" stroke:none;fill-rule:nonzero;fill:rgb(64.705882%,67.45098%,68.627451%);fill-opacity:1;" d="M 29.933594 6.5 C 25.660156 3.832031 15.871094 1.789062 8.570312 0.109375 L 0.175781 9.039062 L 7.382812 8.886719 C 3.792969 14.621094 4.523438 28.109375 13.597656 29.902344 C 13.132812 29.015625 12.320312 27.386719 13.371094 25.375 C 14.121094 23.941406 18.28125 16.0625 18.28125 16.0625 L 19.28125 16.0625 C 20.628906 16.0625 21.074219 16.5625 20.476562 17.269531 C 24.070312 17.226562 26.28125 15.878906 27.273438 14.441406 C 26.519531 13.074219 24.117188 11.46875 23.144531 10.816406 L 28.175781 10.816406 C 29.621094 10.816406 29.945312 11.414062 29.605469 12.066406 C 31.960938 11.605469 33.164062 8.519531 29.933594 6.5 "/>
<path style=" stroke:none;fill-rule:nonzero;fill:rgb(100%,100%,100%);fill-opacity:1;" d="M 29.359375 6.773438 C 23.539062 3.542969 9.125 1.390625 9.125 1.390625 L 2.949219 7.933594 L 9.351562 7.933594 C 4.625 14.113281 5.671875 26.585938 12.625 29.175781 C 12.132812 28.015625 11.882812 26.671875 12.769531 24.957031 C 13.773438 23.027344 15.367188 19.78125 17.65625 15.445312 L 19.519531 15.445312 C 21.070312 15.445312 21.5625 16.09375 21.355469 16.59375 C 22.628906 16.59375 24.957031 16.46875 26.644531 14.441406 C 25.238281 12.496094 20.582031 10.226562 20.582031 10.226562 L 28.566406 10.226562 C 29.738281 10.226562 30.324219 10.640625 30.164062 11.339844 C 32.203125 10.355469 31.671875 8.054688 29.359375 6.773438 "/>
<path style=" stroke:none;fill-rule:nonzero;fill:rgb(0%,0%,0%);fill-opacity:1;" d="M 8.71875 2.300781 L 9.28125 3.007812 L 5.683594 6.835938 L 18.328125 7.792969 C 18.304688 7.839844 18.28125 7.886719 18.257812 7.933594 L 9.765625 7.933594 L 10.421875 8.546875 C 9.886719 9.292969 9.429688 10.101562 9.046875 10.945312 L 16.144531 9.511719 C 16.105469 9.566406 16.070312 9.625 16.03125 9.679688 L 7.574219 12.46875 L 8.316406 12.886719 C 7.96875 14.035156 7.742188 15.222656 7.632812 16.414062 L 14.820312 12.097656 C 14.796875 12.164062 14.777344 12.230469 14.757812 12.296875 L 6.832031 18.480469 L 7.5625 18.664062 C 7.601562 20.003906 7.792969 21.3125 8.125 22.527344 L 14.574219 15.003906 C 14.585938 15.0625 14.597656 15.121094 14.613281 15.183594 L 8.222656 24.457031 L 8.824219 24.5 C 9.5625 26.148438 10.617188 27.5 11.957031 28.339844 C 11.4375 27.203125 11.605469 25.835938 12.203125 24.617188 C 12.722656 23.566406 19.5 10.21875 19.5 10.21875 L 18.367188 9.621094 L 28.890625 9.621094 C 29.96875 9.621094 30.566406 10.070312 30.554688 10.671875 C 31.222656 10.113281 31.371094 8.429688 29.117188 7.207031 C 24.222656 4.550781 8.71875 2.300781 8.71875 2.300781 Z M 26.976562 6.996094 C 27.511719 7.175781 28.722656 7.84375 29.183594 8.367188 L 28.3125 8.367188 C 27.96875 7.808594 26.976562 6.996094 26.976562 6.996094 Z M 29.675781 8.167969 C 30.617188 8.644531 30.734375 9.597656 30.609375 9.953125 C 30.523438 9.691406 30.117188 9.238281 29.152344 9.238281 L 26.726562 9.238281 C 26.75 9.191406 26.773438 9.148438 26.796875 9.101562 C 27.257812 9.066406 28.886719 8.929688 29.808594 8.757812 Z M 19.910156 10.441406 L 20.058594 10.871094 C 19.710938 11.542969 18.464844 13.984375 18.035156 14.835938 L 21.265625 14.835938 C 21.308594 15.402344 21.875 15.882812 22.464844 16.011719 C 22.117188 15.550781 22.253906 15.089844 22.515625 14.835938 L 24.042969 14.835938 C 24.464844 14.835938 24.335938 15.339844 23.644531 15.863281 C 24.722656 15.621094 25.53125 15.136719 26.058594 14.441406 C 25.058594 12.929688 19.910156 10.441406 19.910156 10.441406 Z M 19.910156 10.441406 "/>
<path style=" stroke:none;fill-rule:nonzero;fill:rgb(65.490196%,9.803922%,18.823529%);fill-opacity:1;" d="M 10.003906 4.261719 L 8.976562 5.363281 L 25.757812 7.660156 C 25.785156 7.597656 25.816406 7.539062 25.847656 7.480469 C 22.414062 6.492188 15.65625 5.125 10.003906 4.261719 Z M 15.644531 8.746094 L 11.089844 8.847656 C 10.859375 9.15625 10.648438 9.480469 10.453125 9.8125 L 15.511719 8.917969 C 15.554688 8.859375 15.601562 8.800781 15.644531 8.746094 Z M 14.035156 11.386719 L 9.058594 13.15625 C 8.949219 13.5625 8.855469 13.972656 8.777344 14.390625 L 13.949219 11.59375 C 13.976562 11.527344 14.003906 11.457031 14.035156 11.386719 Z M 19.558594 13.601562 L 19.1875 14.3125 L 23.136719 14.3125 C 23.167969 14.253906 23.195312 14.199219 23.222656 14.140625 Z M 13.347656 14.667969 L 8.539062 18.710938 C 8.570312 19.160156 8.621094 19.605469 8.6875 20.039062 L 13.355469 14.886719 C 13.355469 14.8125 13.351562 14.742188 13.347656 14.667969 Z M 14.199219 17.871094 L 10 24.136719 C 10.222656 24.546875 10.464844 24.933594 10.730469 25.289062 L 14.296875 18.050781 C 14.265625 17.992188 14.230469 17.929688 14.199219 17.871094 Z M 14.199219 17.871094 "/>
</g>
</svg>
