<?xml version="1.0" encoding="UTF-8"?>
<svg xmlns="http://www.w3.org/2000/svg" xmlns:xlink="http://www.w3.org/1999/xlink" width="32px" height="32px" viewBox="0 0 32 25" version="1.1">
<g id="surface1">
<path style=" stroke:none;fill-rule:nonzero;fill:rgb(100%,100%,100%);fill-opacity:1;" d="M 31.878906 6.175781 C 31.875 6.058594 31.851562 5.988281 31.851562 5.988281 C 31.707031 5.492188 31.191406 5.183594 30.492188 5.183594 C 30.417969 5.183594 30.34375 5.1875 30.265625 5.195312 C 29.730469 5.246094 28.777344 5.566406 28.492188 5.664062 C 27.601562 5.441406 26.769531 5.335938 25.945312 5.335938 C 25.519531 5.335938 25.09375 5.363281 24.671875 5.421875 L 24.675781 5.421875 L 24.5 5.445312 C 24.5 5.445312 24.433594 5.226562 24.609375 4.71875 C 24.699219 4.457031 24.828125 4.214844 24.828125 4.214844 C 24.828125 4.214844 22.890625 5.207031 22.648438 4.890625 C 22.40625 4.574219 23.488281 2.050781 23.488281 2.050781 C 23.488281 2.050781 21.621094 4.101562 21.253906 4.007812 C 21.109375 3.972656 21.097656 3.230469 21.089844 2.433594 C 21.078125 1.351562 21.117188 0.117188 21.117188 0.117188 C 21.117188 0.117188 19.578125 3.890625 19.203125 3.871094 C 18.878906 3.851562 18.402344 1.839844 18.402344 1.839844 C 18.402344 1.839844 18.105469 3.574219 17.574219 3.789062 C 17.039062 4 15.664062 0.753906 15.664062 0.753906 C 15.664062 0.753906 15.601562 4.003906 15.21875 4.074219 C 14.839844 4.148438 13.621094 2.933594 13.621094 2.933594 C 13.621094 2.933594 14.191406 4.550781 14 4.765625 C 13.882812 4.890625 12.714844 4.179688 11.496094 3.316406 C 10.792969 2.820312 10.207031 2.402344 10.207031 2.402344 C 10.207031 2.402344 10.890625 3.527344 11.4375 4.703125 C 11.8125 5.511719 12.039062 6.285156 11.941406 6.4375 C 11.703125 6.808594 9.894531 6.28125 9.894531 6.28125 C 9.894531 6.28125 10.921875 7.257812 10.855469 7.507812 C 10.824219 7.628906 9.800781 7.542969 8.765625 7.402344 C 7.664062 7.253906 6.542969 7.046875 6.542969 7.046875 C 6.542969 7.046875 10.210938 9.152344 10.09375 9.527344 C 10.003906 9.828125 7.722656 9.582031 7.722656 9.582031 C 7.722656 9.582031 9.707031 10.476562 9.695312 10.773438 C 9.6875 11.066406 5.816406 12.035156 5.816406 12.035156 C 5.816406 12.035156 9.324219 12.757812 9.390625 13.144531 C 9.457031 13.53125 8.007812 14.769531 8.007812 14.769531 C 8.007812 14.769531 9.695312 14.921875 9.78125 15.136719 C 9.863281 15.355469 9.371094 16.21875 8.941406 16.355469 C 8.410156 16.523438 7.925781 16.632812 7.339844 16.632812 C 7.253906 16.632812 7.171875 16.628906 7.089844 16.625 C 7.121094 16.585938 7.148438 16.550781 7.175781 16.511719 C 7.320312 16.304688 7.425781 16.082031 7.484375 15.867188 L 7.484375 15.863281 C 7.515625 15.746094 7.53125 15.628906 7.53125 15.515625 L 7.53125 15.507812 C 7.527344 15.378906 7.484375 15.269531 7.410156 15.195312 C 7.265625 15.070312 7.132812 15.085938 7.035156 15.128906 L 6.703125 15.289062 C 6.675781 15.300781 6.648438 15.3125 6.617188 15.320312 C 6.550781 15.339844 6.417969 15.363281 6.136719 15.363281 C 5.875 15.363281 5.558594 15.34375 5.253906 15.324219 C 5.253906 15.324219 5.066406 15.3125 5.03125 15.3125 C 4.667969 15.3125 4.425781 15.429688 4.28125 15.53125 L 4.203125 15.492188 C 3.460938 15.101562 2.59375 14.945312 2.054688 14.847656 C 2.015625 14.839844 1.972656 14.832031 1.9375 14.824219 C 1.339844 14.710938 1.015625 14.359375 0.988281 14.332031 C 0.9375 14.277344 0.871094 14.207031 0.785156 14.160156 C 0.785156 14.160156 0.632812 14.066406 0.402344 14.132812 C 0.25 14.1875 0.1875 14.300781 0.1875 14.300781 C 0.0585938 14.511719 0.183594 14.820312 0.34375 15.171875 C 0.527344 15.566406 1.105469 16.554688 2.484375 17.1875 C 2.9375 17.394531 3.53125 17.542969 4.25 17.625 C 4.792969 17.6875 5.25 17.695312 5.433594 17.695312 C 5.609375 17.78125 6.148438 18.027344 6.953125 18.273438 C 7.835938 18.546875 9.214844 18.871094 10.796875 18.878906 C 10.796875 18.878906 11.355469 18.882812 11.660156 18.867188 C 11.691406 18.988281 11.46875 19.433594 11.207031 19.957031 C 10.894531 20.574219 10.496094 21.308594 10.496094 21.308594 C 10.496094 21.308594 11.21875 20.675781 11.890625 20.210938 C 12.570312 19.738281 13.332031 19.359375 13.511719 19.578125 C 13.847656 19.992188 13.488281 21.6875 13.488281 21.6875 C 13.488281 21.6875 14.855469 20.492188 15.175781 20.65625 C 15.320312 20.730469 15.335938 21.621094 15.335938 22.5625 C 15.335938 23.679688 15.308594 24.863281 15.308594 24.863281 C 15.308594 24.863281 17.195312 21.097656 17.585938 21.203125 C 17.980469 21.3125 18.410156 23.03125 18.410156 23.03125 C 18.410156 23.03125 19.125 20.9375 19.566406 20.988281 C 19.738281 20.96875 20.117188 21.644531 20.449219 22.339844 C 20.816406 23.101562 21.132812 23.84375 21.132812 23.84375 C 21.132812 23.84375 21.140625 23.066406 21.195312 22.273438 C 21.242188 21.554688 21.335938 20.855469 21.496094 20.816406 C 21.832031 20.734375 22.808594 22.023438 22.808594 22.023438 C 22.808594 22.023438 22.464844 20.226562 22.734375 20.074219 C 23.003906 19.921875 26.253906 22.691406 26.253906 22.691406 C 26.253906 22.691406 24.121094 18.792969 24.382812 18.496094 C 24.640625 18.199219 26.917969 18.804688 26.917969 18.804688 C 26.917969 18.804688 26.582031 18.410156 26.289062 17.964844 C 25.984375 17.496094 25.734375 16.972656 25.851562 16.847656 C 25.960938 16.734375 27.148438 16.851562 28.375 17.089844 C 29.789062 17.359375 30.710938 17.550781 30.710938 17.550781 C 30.710938 17.550781 29.878906 17.105469 28.648438 16.378906 C 27.585938 15.746094 26.648438 15.035156 26.6875 14.917969 C 26.773438 14.671875 29.316406 14.433594 29.316406 14.433594 C 29.316406 14.433594 28.890625 14.183594 28.429688 13.910156 C 27.933594 13.609375 27.402344 13.234375 27.402344 13.097656 C 27.402344 12.976562 28.039062 12.683594 28.878906 12.425781 C 29.886719 12.121094 30.820312 11.917969 30.820312 11.917969 C 30.820312 11.917969 27.355469 11.640625 27.136719 11.15625 C 26.992188 10.820312 27.261719 10.386719 27.460938 10.105469 C 27.660156 9.828125 27.945312 9.574219 27.945312 9.574219 C 28.890625 8.710938 30.097656 7.917969 30.480469 7.683594 C 30.507812 7.667969 30.535156 7.648438 30.5625 7.632812 C 30.5625 7.632812 31.449219 6.988281 31.539062 6.910156 C 31.621094 6.84375 31.824219 6.632812 31.871094 6.367188 C 31.871094 6.367188 31.886719 6.292969 31.878906 6.175781 "/>
<path style=" stroke:none;fill-rule:nonzero;fill:rgb(98.823529%,29.803922%,0.784314%);fill-opacity:1;" d="M 20.847656 1.398438 C 20.523438 2.320312 19.628906 4.367188 19.164062 4.292969 C 18.785156 4.257812 18.484375 3.277344 18.421875 2.898438 C 18.34375 3.253906 18.148438 4.085938 17.578125 4.167969 C 17.011719 4.25 16.234375 2.902344 15.910156 1.914062 C 15.863281 3.679688 15.558594 4.460938 15.320312 4.46875 C 14.84375 4.476562 14.472656 4.011719 14.09375 3.664062 C 14.28125 3.960938 14.546875 4.863281 14.199219 5.144531 C 13.851562 5.421875 11.511719 3.78125 11 3.277344 C 11.578125 4.117188 12.605469 6.09375 12.304688 6.589844 C 12 7.085938 10.9375 6.871094 10.753906 6.78125 C 10.875 6.878906 11.609375 7.714844 10.980469 7.851562 C 10.132812 8.03125 7.820312 7.5 7.699219 7.46875 C 8.25 7.664062 10.679688 9.082031 10.527344 9.628906 C 10.394531 10.101562 9.40625 9.941406 9.019531 9.933594 C 9.367188 10.097656 10.191406 10.421875 10.089844 10.882812 C 9.992188 11.34375 7.667969 11.863281 6.953125 12.011719 C 7.765625 12.1875 9.820312 12.503906 9.851562 13.121094 C 9.882812 13.742188 8.59375 14.59375 8.59375 14.59375 C 8.59375 14.59375 9.738281 14.648438 9.984375 14.777344 C 10.34375 14.96875 10.066406 15.691406 9.746094 16.066406 C 10.183594 15.867188 10.609375 15.609375 11.054688 15.285156 C 10.6875 14.390625 10.484375 13.414062 10.484375 12.386719 C 10.484375 8.132812 13.980469 4.683594 18.296875 4.683594 C 19.878906 4.683594 21.347656 5.144531 22.578125 5.941406 C 23.125 5.742188 23.652344 5.597656 24.160156 5.5 C 24.128906 5.292969 24.15625 5.078125 24.28125 4.808594 C 23.832031 5.171875 22.683594 5.496094 22.351562 5.1875 C 22.019531 4.875 22.574219 3.582031 22.859375 3.046875 C 22.390625 3.601562 21.5625 4.585938 21.058594 4.390625 C 20.554688 4.199219 20.894531 1.851562 20.847656 1.398438 Z M 26.871094 10.632812 C 26.613281 10.875 26.335938 11.136719 26.046875 11.40625 C 26.085938 11.726562 26.109375 12.054688 26.109375 12.386719 C 26.109375 16.644531 22.613281 20.09375 18.296875 20.09375 C 16.585938 20.09375 15.007812 19.554688 13.71875 18.636719 C 13.132812 18.75 12.546875 18.816406 11.957031 18.84375 C 11.863281 19.371094 11.472656 19.914062 11.234375 20.414062 C 12.660156 19.113281 13.449219 19.160156 13.726562 19.308594 C 14.003906 19.460938 13.933594 20.699219 13.851562 21.0625 C 14.074219 20.773438 15.109375 20.136719 15.417969 20.277344 C 15.722656 20.414062 15.585938 23.203125 15.585938 23.773438 C 15.929688 23.035156 17.0625 20.761719 17.550781 20.761719 C 18.035156 20.761719 18.359375 21.621094 18.433594 22.011719 C 18.539062 21.625 19.089844 20.601562 19.582031 20.546875 C 20.074219 20.492188 20.605469 21.992188 20.933594 22.738281 C 20.957031 22.105469 20.910156 20.617188 21.304688 20.464844 C 21.699219 20.3125 22.15625 20.824219 22.421875 21.144531 C 22.351562 20.703125 22.285156 19.839844 22.558594 19.660156 C 22.832031 19.484375 24.773438 21.035156 25.480469 21.730469 C 25.304688 21.296875 23.769531 18.984375 24.046875 18.351562 C 24.300781 17.78125 25.871094 18.21875 26.171875 18.308594 C 25.761719 17.992188 25.3125 16.921875 25.484375 16.574219 C 25.65625 16.230469 28.257812 16.734375 29.347656 17.039062 C 28.472656 16.699219 26.078125 15.257812 26.25 14.832031 C 26.421875 14.402344 27.957031 14.242188 28.425781 14.242188 C 28.285156 14.175781 27.304688 13.644531 26.96875 13.257812 C 26.632812 12.867188 28.402344 12.144531 29.414062 12.007812 C 28.507812 11.9375 26.800781 11.796875 26.785156 11.148438 C 26.777344 10.941406 26.8125 10.773438 26.871094 10.632812 Z M 26.871094 10.632812 "/>
<path style=" stroke:none;fill-rule:nonzero;fill:rgb(0%,55.686275%,59.215686%);fill-opacity:1;" d="M 30.515625 5.453125 C 30.441406 5.453125 30.367188 5.457031 30.292969 5.464844 C 29.699219 5.519531 28.503906 5.945312 28.503906 5.945312 C 26.324219 5.386719 23.738281 5.324219 20.5625 7.230469 C 19.972656 7.585938 19.429688 7.953125 18.929688 8.328125 C 18.429688 8.703125 17.96875 9.085938 17.539062 9.46875 C 17.351562 9.632812 17.113281 9.847656 16.910156 10.050781 C 15.882812 10.386719 15.425781 10.070312 14.007812 10.253906 C 12.886719 10.398438 12.453125 10.777344 12.207031 11.074219 C 12.175781 11.160156 12.179688 11.234375 12.238281 11.28125 C 12.371094 11.386719 12.578125 11.332031 12.96875 11.304688 C 13.359375 11.277344 13.953125 11.285156 14.347656 11.527344 C 14.597656 11.679688 14.714844 12.054688 14.753906 12.261719 C 14.460938 12.570312 14.171875 12.867188 13.882812 13.148438 C 12.09375 14.894531 10.890625 15.9375 9.542969 16.457031 C 6.621094 17.585938 4.976562 16.257812 4.316406 15.867188 C 3.515625 15.363281 2.457031 15.195312 1.886719 15.089844 C 1.316406 14.984375 1.007812 14.714844 0.882812 14.609375 C 0.761719 14.507812 0.667969 14.335938 0.53125 14.375 C 0.496094 14.386719 0.464844 14.394531 0.441406 14.417969 C 0.464844 14.398438 0.496094 14.386719 0.53125 14.375 C 0.554688 14.621094 1.382812 16.652344 4.015625 17.023438 C 4.769531 17.128906 5.007812 17.09375 5.148438 17.085938 C 4.703125 16.699219 4.339844 16.164062 4.308594 16.132812 C 4.410156 16.21875 4.511719 16.300781 4.609375 16.382812 C 5.394531 17.207031 6.289062 17.550781 7.039062 17.675781 C 7.089844 17.6875 7.828125 17.71875 7.828125 17.71875 C 8.691406 17.703125 9.851562 17.453125 10.929688 17.144531 C 14.089844 16.238281 17.136719 13.539062 17.136719 13.539062 C 17.136719 13.539062 16.964844 14.265625 16.898438 14.523438 C 16.855469 14.726562 16.703125 15.410156 16.410156 16.125 C 16.410156 16.125 16.324219 16.339844 16.195312 16.601562 C 16.007812 16.992188 15.746094 17.484375 15.746094 17.6875 C 15.746094 17.699219 15.746094 17.707031 15.746094 17.714844 C 15.746094 17.714844 15.75 17.738281 15.757812 17.765625 C 15.996094 17.640625 16.316406 17.425781 16.683594 17.121094 C 17.261719 16.648438 17.988281 15.929688 18.832031 14.902344 C 20.730469 12.59375 21.03125 11.015625 22.363281 9.789062 C 22.925781 9.265625 24.410156 8.464844 25.167969 8.203125 C 25.179688 8.195312 25.183594 8.195312 25.1875 8.195312 L 25.1875 8.191406 C 26.472656 7.46875 27.726562 6.910156 27.929688 6.832031 C 28.679688 6.53125 31.320312 5.667969 31.601562 6.097656 C 31.5 5.664062 31.023438 5.460938 30.515625 5.453125 Z M 27.921875 6.269531 C 27.925781 6.269531 27.929688 6.273438 27.929688 6.277344 C 27.945312 6.308594 27.8125 6.382812 27.398438 6.550781 C 27.097656 6.671875 26.820312 6.746094 26.371094 6.855469 C 26.167969 6.917969 25.875 7.007812 25.875 7.007812 C 25.871094 7.007812 25.871094 7.003906 25.871094 7.003906 C 25.367188 7.171875 24.511719 7.507812 24.238281 7.902344 C 24.25 7.882812 24.425781 7.53125 24.566406 7.332031 C 24.683594 7.15625 24.949219 6.816406 25.339844 6.648438 C 25.886719 6.414062 26.242188 6.449219 26.492188 6.449219 C 26.746094 6.449219 27.335938 6.433594 27.574219 6.375 C 27.785156 6.324219 27.890625 6.261719 27.921875 6.269531 Z M 24.628906 12.265625 C 24.242188 12.609375 23.851562 12.945312 23.46875 13.257812 C 23.171875 13.503906 22.835938 13.769531 22.460938 14.046875 C 22.34375 15.5 22.042969 16.1875 22.046875 16.320312 C 22.050781 16.394531 22.070312 16.46875 22.128906 16.503906 C 22.476562 16.253906 23.136719 15.605469 23.640625 14.667969 C 24.058594 13.878906 24.40625 12.949219 24.628906 12.265625 Z M 7.125 15.371094 C 7.011719 15.386719 6.960938 15.5 6.695312 15.578125 C 6.382812 15.671875 5.722656 15.625 5.125 15.585938 C 4.691406 15.558594 4.460938 15.722656 4.367188 15.8125 C 4.640625 15.964844 5.515625 16.464844 6.265625 16.609375 C 6.242188 16.574219 7.453125 15.765625 7.125 15.371094 Z M 7.125 15.371094 "/>
<path style=" stroke:none;fill-rule:nonzero;fill:rgb(0%,34.117647%,47.058824%);fill-opacity:1;" d="M 31.316406 6.261719 C 31.101562 6.257812 30.703125 6.359375 30.074219 6.570312 C 30.070312 6.570312 30.066406 6.570312 30.0625 6.574219 C 29.976562 6.601562 29.886719 6.632812 29.792969 6.664062 C 26.824219 7.695312 23.953125 10.914062 20.238281 13.695312 L 20.265625 13.652344 C 21.367188 12.011719 21.746094 10.8125 22.859375 9.789062 C 23.4375 9.246094 24.316406 8.683594 25.1875 8.195312 C 25.183594 8.195312 25.179688 8.195312 25.167969 8.203125 C 24.410156 8.464844 22.925781 9.265625 22.363281 9.789062 C 21.03125 11.015625 20.730469 12.59375 18.832031 14.902344 C 17.988281 15.929688 17.261719 16.648438 16.683594 17.121094 C 16.316406 17.425781 15.996094 17.640625 15.757812 17.765625 C 15.757812 17.769531 15.789062 17.871094 15.875 17.890625 C 16.011719 17.925781 16.527344 17.667969 17.183594 17.121094 C 17.1875 17.121094 18.453125 16.527344 19.054688 16.203125 C 19.765625 15.820312 20.9375 15.101562 21.191406 14.933594 C 21.191406 14.933594 21.195312 14.933594 21.195312 14.933594 C 21.652344 14.632812 22.460938 14.050781 22.460938 14.046875 C 22.835938 13.769531 23.171875 13.503906 23.46875 13.257812 C 23.851562 12.945312 24.242188 12.609375 24.628906 12.265625 C 24.40625 12.949219 24.058594 13.878906 23.640625 14.667969 C 23.136719 15.605469 22.476562 16.253906 22.128906 16.503906 C 22.242188 16.574219 22.40625 16.46875 22.425781 16.460938 C 22.710938 16.304688 23.519531 15.628906 24.058594 14.546875 C 24.832031 13 25.15625 11.8125 25.164062 11.789062 C 25.226562 11.730469 27.71875 9.410156 27.753906 9.378906 C 28.6875 8.527344 29.902344 7.71875 30.339844 7.453125 C 30.792969 7.175781 31.070312 6.96875 31.230469 6.828125 C 31.394531 6.6875 31.445312 6.617188 31.445312 6.617188 C 31.46875 6.570312 31.535156 6.449219 31.523438 6.367188 C 31.511719 6.296875 31.449219 6.261719 31.316406 6.261719 Z M 27.917969 6.269531 C 27.890625 6.265625 27.785156 6.324219 27.574219 6.375 C 27.335938 6.433594 26.746094 6.449219 26.492188 6.449219 C 26.242188 6.449219 25.886719 6.414062 25.339844 6.648438 C 24.949219 6.816406 24.683594 7.15625 24.566406 7.332031 C 24.605469 7.28125 24.640625 7.242188 24.667969 7.21875 C 24.667969 7.21875 25.066406 6.765625 25.878906 6.824219 C 25.851562 6.863281 25.832031 6.921875 25.855469 6.980469 C 25.855469 6.980469 25.859375 6.980469 25.859375 6.980469 C 25.863281 6.988281 25.867188 6.996094 25.871094 7.003906 L 25.875 7.007812 C 25.875 7.007812 26.167969 6.917969 26.371094 6.855469 C 26.820312 6.746094 27.097656 6.671875 27.398438 6.550781 C 27.8125 6.382812 27.945312 6.308594 27.929688 6.277344 C 27.929688 6.273438 27.925781 6.269531 27.917969 6.269531 Z M 17.539062 9.46875 C 17.246094 9.5625 17.023438 9.617188 16.808594 9.652344 C 16.328125 9.746094 15.976562 9.722656 14.976562 9.851562 C 13.40625 10.058594 12.667969 10.542969 12.464844 10.730469 C 12.402344 10.789062 12.351562 10.835938 12.289062 10.925781 C 12.242188 10.988281 12.210938 11.0625 12.207031 11.074219 C 12.453125 10.777344 12.886719 10.402344 14.007812 10.253906 C 15.425781 10.070312 15.882812 10.386719 16.910156 10.050781 C 17.113281 9.847656 17.351562 9.632812 17.539062 9.46875 Z M 17.136719 13.539062 C 17.136719 13.539062 14.089844 16.238281 10.929688 17.144531 C 9.851562 17.453125 8.691406 17.703125 7.828125 17.71875 C 7.984375 17.722656 9.992188 17.800781 12.195312 16.984375 C 13.996094 16.335938 15.765625 15.277344 16.898438 14.523438 C 16.964844 14.265625 17.136719 13.539062 17.136719 13.539062 Z M 0.53125 14.375 C 0.503906 14.382812 0.480469 14.390625 0.460938 14.402344 C 0.453125 14.40625 0.449219 14.414062 0.441406 14.417969 C 0.378906 14.476562 0.386719 14.617188 0.59375 15.058594 C 0.867188 15.652344 1.5 16.4375 2.597656 16.941406 C 3.605469 17.402344 5.136719 17.425781 5.445312 17.425781 L 5.496094 17.425781 C 5.496094 17.425781 8.089844 18.75 11.386719 18.597656 C 11.394531 18.59375 13.347656 18.640625 15.746094 17.714844 C 15.746094 17.707031 15.746094 17.699219 15.746094 17.6875 C 15.746094 17.484375 16.007812 16.992188 16.195312 16.601562 C 16.324219 16.339844 16.410156 16.125 16.410156 16.125 C 15.375 16.664062 13.726562 17.355469 12.234375 17.703125 C 9.292969 18.382812 7.410156 17.792969 7.089844 17.6875 L 7.046875 17.675781 L 7.042969 17.675781 C 7.042969 17.675781 7.039062 17.675781 7.039062 17.671875 C 6.289062 17.550781 5.394531 17.207031 4.609375 16.382812 C 4.511719 16.300781 4.410156 16.21875 4.308594 16.132812 C 4.339844 16.164062 4.703125 16.699219 5.148438 17.085938 C 5.007812 17.09375 4.769531 17.128906 4.015625 17.023438 C 1.382812 16.652344 0.554688 14.621094 0.53125 14.375 Z M 7.152344 15.367188 C 7.140625 15.367188 7.128906 15.371094 7.125 15.371094 C 7.453125 15.765625 6.242188 16.574219 6.265625 16.609375 C 6.308594 16.617188 6.40625 16.632812 6.496094 16.640625 C 6.589844 16.652344 6.695312 16.644531 6.71875 16.644531 C 6.722656 16.644531 6.863281 16.484375 6.949219 16.363281 C 7.089844 16.160156 7.175781 15.960938 7.222656 15.796875 C 7.246094 15.703125 7.257812 15.609375 7.257812 15.515625 C 7.253906 15.386719 7.191406 15.367188 7.152344 15.367188 Z M 7.152344 15.367188 "/>
</g>
</svg>
