<?xml version="1.0" encoding="UTF-8"?>
<svg xmlns="http://www.w3.org/2000/svg" xmlns:xlink="http://www.w3.org/1999/xlink" width="32px" height="32px" viewBox="0 0 32 39" version="1.1">
<g id="surface1">
<path style=" stroke:none;fill-rule:nonzero;fill:rgb(100%,100%,100%);fill-opacity:1;" d="M 31.664062 25.554688 C 31.578125 25.046875 31.113281 24.601562 30.75 24.523438 C 30.726562 24.515625 30.691406 24.507812 30.65625 24.5 C 30.75 24.164062 30.796875 23.894531 30.820312 23.707031 C 31.027344 23.613281 31.269531 23.511719 31.375 23.472656 L 31.734375 23.328125 L 31.660156 22.957031 C 31.515625 22.183594 31.105469 21.546875 30.875 21.230469 C 30.957031 20.96875 31.007812 20.796875 31.007812 20.652344 C 31.007812 20.355469 30.769531 20.050781 30.296875 19.75 C 30.257812 19.726562 30.214844 19.660156 30.214844 19.335938 C 30.214844 19.332031 30.210938 19.03125 30.132812 18.722656 C 30.386719 18.550781 30.707031 18.269531 30.863281 17.828125 C 31.023438 17.382812 31.082031 16.992188 31.105469 16.761719 C 31.117188 16.640625 31.097656 16.339844 31.097656 16.339844 L 31.050781 15.765625 C 31.050781 15.765625 30.757812 15.996094 30.597656 16.121094 C 30.554688 16.152344 30.523438 16.175781 30.503906 16.1875 C 30.480469 16.203125 30.457031 16.21875 30.433594 16.234375 C 30.3125 16.304688 30.183594 16.359375 30.125 16.390625 C 30 16.457031 29.808594 16.53125 29.59375 16.589844 C 29.292969 15.027344 28.175781 12.296875 25.484375 9.890625 C 22.242188 6.992188 16.890625 6.457031 16.664062 6.433594 L 16.164062 6.386719 C 16.164062 6.386719 16.152344 7.132812 16.105469 7.34375 L 16.101562 7.371094 C 16.082031 7.472656 16.0625 7.570312 16.039062 7.660156 C 15.429688 7.28125 15.003906 6.898438 14.796875 6.539062 C 14.417969 5.871094 14.292969 5.257812 14.175781 4.664062 C 14.089844 4.246094 14.011719 3.847656 13.847656 3.464844 C 13.414062 2.453125 12.789062 1.59375 11.996094 0.90625 C 11.851562 0.78125 11.703125 0.65625 11.476562 0.65625 C 11.386719 0.65625 11.253906 0.675781 11.117188 0.785156 C 11.019531 0.863281 10.730469 1.15625 11.054688 1.632812 C 11.058594 1.640625 11.589844 2.601562 11.785156 3.976562 C 11.851562 4.429688 11.867188 4.984375 11.878906 5.574219 C 11.910156 6.769531 11.945312 8.125 12.421875 9.148438 C 12.632812 9.597656 12.902344 10.003906 13.183594 10.355469 C 13.210938 10.390625 13.320312 10.5 13.339844 10.523438 C 13.386719 10.578125 13.4375 10.636719 13.484375 10.6875 C 12.964844 10.644531 12.519531 10.507812 12.074219 10.261719 L 12.054688 10.25 C 10.6875 9.566406 9.640625 7.96875 9.445312 6.269531 L 9.417969 6.050781 C 9.382812 5.75 9.378906 5.445312 9.375 5.121094 C 9.375 4.9375 9.371094 4.75 9.363281 4.5625 C 9.34375 4.085938 9.289062 3.605469 9.207031 3.128906 C 9.171875 2.929688 9.128906 2.726562 9.082031 2.53125 L 9.078125 2.515625 C 9.050781 2.371094 9.011719 2.230469 8.976562 2.121094 C 8.953125 2.035156 8.925781 1.953125 8.898438 1.871094 C 8.828125 1.664062 8.734375 1.464844 8.617188 1.277344 C 8.464844 1.03125 8.320312 0.839844 8.164062 0.667969 C 8.039062 0.535156 7.917969 0.425781 7.792969 0.339844 L 7.773438 0.328125 C 7.722656 0.292969 7.578125 0.214844 7.402344 0.214844 C 7.308594 0.214844 7.21875 0.238281 7.136719 0.28125 L 7.082031 0.3125 C 6.878906 0.457031 6.753906 0.773438 6.9375 1.152344 L 6.957031 1.183594 C 6.960938 1.191406 6.96875 1.210938 6.980469 1.234375 C 6.992188 1.261719 7.003906 1.292969 7.015625 1.324219 C 7.023438 1.355469 7.03125 1.386719 7.039062 1.433594 C 7.101562 1.761719 7.160156 2.550781 6.855469 4.128906 L 6.839844 4.210938 C 6.808594 4.488281 6.777344 4.703125 6.742188 4.898438 C 6.613281 5.65625 6.480469 6.554688 6.457031 7.519531 C 6.457031 7.550781 6.457031 7.609375 6.457031 7.660156 L 6.460938 7.707031 C 6.453125 8.34375 6.550781 13.875 12.054688 15.796875 L 12.058594 15.796875 L 12.039062 15.804688 C 11.789062 17.394531 11.773438 18.375 11.789062 18.851562 C 10.59375 19.316406 9.421875 19.875 8.300781 20.511719 C 6.546875 21.464844 4.917969 22.652344 3.460938 24.035156 C 3.164062 24.320312 2.882812 24.601562 2.597656 24.898438 C 2.53125 24.96875 2.464844 25.039062 2.40625 25.101562 L 2.386719 25.121094 C 1.664062 25.890625 1.015625 26.695312 0.449219 27.507812 C 0.433594 27.535156 0.382812 27.617188 0.363281 27.664062 C 0.296875 27.8125 0.226562 28.09375 0.363281 28.242188 C 0.445312 28.332031 0.601562 28.40625 0.902344 28.28125 C 0.917969 28.277344 0.976562 28.253906 0.996094 28.242188 C 1.054688 28.207031 1.140625 28.15625 1.167969 28.132812 C 2.992188 26.75 7.175781 25.988281 8.398438 25.917969 C 9.421875 25.855469 10.4375 25.707031 10.8125 25.648438 C 11.019531 25.746094 11.417969 25.914062 11.867188 26.011719 C 12.058594 26.050781 12.265625 26.074219 12.484375 26.074219 C 12.671875 26.074219 12.847656 26.058594 13 26.035156 C 13.308594 27.015625 13.933594 27.6875 14.253906 27.988281 C 14.234375 28.578125 14.335938 29.683594 14.78125 30.402344 C 15.144531 30.992188 15.664062 31.441406 15.953125 31.664062 C 15.953125 31.945312 15.976562 32.398438 16.121094 32.78125 C 16.246094 33.125 16.460938 33.4375 16.617188 33.640625 C 16.558594 33.804688 16.496094 34.023438 16.480469 34.265625 C 16.464844 34.542969 16.527344 34.765625 16.609375 34.929688 C 16.539062 35.054688 16.472656 35.207031 16.445312 35.355469 C 16.410156 35.5625 16.453125 35.789062 16.503906 35.953125 C 16.453125 36.058594 16.402344 36.195312 16.375 36.324219 C 16.335938 36.507812 16.367188 36.691406 16.40625 36.828125 C 16.265625 37.246094 16.105469 38.070312 16.640625 38.519531 C 16.800781 38.652344 16.996094 38.722656 17.199219 38.722656 C 17.609375 38.722656 17.945312 38.433594 18.105469 38.265625 C 18.34375 38.15625 18.628906 37.9375 18.789062 37.691406 C 18.910156 37.503906 18.972656 37.320312 19 37.183594 C 19.109375 37.078125 19.246094 36.914062 19.371094 36.679688 C 19.472656 36.484375 19.523438 36.3125 19.542969 36.183594 C 19.773438 35.910156 20.289062 35.230469 20.511719 34.386719 L 20.566406 34.152344 C 20.570312 34.125 20.578125 34.09375 20.582031 34.0625 C 20.703125 33.296875 20.601562 32.582031 20.539062 32.246094 C 20.722656 31.925781 21.078125 31.1875 21.121094 30.335938 C 21.515625 30.074219 22.203125 29.65625 23.042969 29.277344 C 23.074219 29.785156 23.085938 30.3125 22.929688 31.105469 C 22.734375 32.078125 22.023438 32.882812 21.664062 33.234375 C 21.539062 33.355469 21.230469 33.703125 21.230469 33.703125 C 21.230469 33.703125 21.109375 33.804688 21.132812 34.003906 C 21.136719 34.015625 21.144531 34.050781 21.152344 34.078125 C 21.15625 34.085938 21.179688 34.117188 21.1875 34.125 C 21.359375 34.289062 21.828125 34.230469 21.828125 34.230469 C 23.851562 34.015625 25.222656 32.328125 25.804688 30.933594 C 26.167969 30.066406 26.496094 28.910156 26.691406 28.203125 C 27.863281 27.992188 28.949219 27.886719 29.683594 27.816406 C 30.011719 27.78125 30.273438 27.757812 30.441406 27.730469 C 30.890625 27.664062 31.726562 27.542969 31.777344 26.757812 C 31.792969 26.507812 31.757812 26.125 31.660156 25.554688 "/>
<path style=" stroke:none;fill-rule:nonzero;fill:rgb(0%,0%,0%);fill-opacity:1;" d="M 31.199219 25.617188 C 31.148438 25.289062 30.816406 24.996094 30.648438 24.960938 C 30.484375 24.925781 30.0625 24.816406 30.0625 24.816406 C 30.375 23.941406 30.375 23.394531 30.375 23.394531 C 30.648438 23.25 31.199219 23.03125 31.199219 23.03125 C 31.019531 22.0625 30.355469 21.316406 30.355469 21.316406 C 30.410156 21.117188 30.539062 20.769531 30.539062 20.640625 C 30.539062 20.511719 30.300781 20.296875 30.042969 20.132812 C 29.785156 19.96875 29.75 19.675781 29.75 19.328125 C 29.75 18.984375 29.601562 18.546875 29.546875 18.527344 C 29.492188 18.507812 30.203125 18.285156 30.425781 17.664062 C 30.644531 17.046875 30.648438 16.542969 30.648438 16.542969 C 30.355469 16.96875 29.207031 17.140625 29.207031 17.140625 C 29.117188 16.175781 28.335938 13.058594 25.175781 10.234375 C 22.015625 7.410156 16.632812 6.898438 16.632812 6.898438 C 16.640625 7.054688 16.621094 7.242188 16.574219 7.449219 C 16.527344 7.714844 16.449219 8.027344 16.3125 8.28125 C 16.304688 8.296875 16.296875 8.3125 16.285156 8.332031 C 15.542969 7.933594 14.761719 7.394531 14.402344 6.769531 C 13.710938 5.554688 13.796875 4.507812 13.429688 3.652344 C 12.828125 2.246094 11.960938 1.484375 11.703125 1.261719 C 11.554688 1.132812 11.503906 1.089844 11.425781 1.152344 C 11.351562 1.210938 11.402344 1.300781 11.464844 1.390625 C 11.519531 1.476562 12.0625 2.511719 12.265625 3.914062 C 12.464844 5.316406 12.199219 7.53125 12.859375 8.953125 C 13.273438 9.839844 13.953125 10.539062 14.410156 10.945312 C 14.425781 10.957031 14.441406 10.972656 14.457031 10.984375 L 14.605469 11.132812 C 13.660156 11.21875 12.78125 11.1875 11.847656 10.664062 C 10.34375 9.914062 9.191406 8.167969 8.980469 6.324219 L 8.957031 6.101562 C 8.898438 5.59375 8.921875 5.089844 8.898438 4.582031 C 8.878906 4.121094 8.828125 3.664062 8.746094 3.207031 C 8.710938 3.007812 8.667969 2.808594 8.621094 2.613281 C 8.621094 2.609375 8.621094 2.609375 8.621094 2.605469 C 8.601562 2.484375 8.566406 2.367188 8.53125 2.25 C 8.507812 2.171875 8.480469 2.09375 8.457031 2.015625 C 8.394531 1.84375 8.320312 1.679688 8.222656 1.519531 C 8.101562 1.332031 7.972656 1.148438 7.820312 0.984375 C 7.730469 0.886719 7.632812 0.792969 7.523438 0.71875 C 7.523438 0.71875 7.425781 0.652344 7.355469 0.691406 C 7.355469 0.691406 7.265625 0.753906 7.359375 0.949219 C 7.359375 0.949219 7.386719 0.988281 7.414062 1.054688 C 7.429688 1.089844 7.445312 1.136719 7.460938 1.191406 C 7.476562 1.238281 7.488281 1.292969 7.5 1.347656 C 7.574219 1.746094 7.628906 2.609375 7.308594 4.257812 L 7.308594 4.261719 C 7.277344 4.5 7.246094 4.738281 7.207031 4.976562 C 7.074219 5.746094 6.945312 6.621094 6.925781 7.53125 C 6.925781 7.570312 6.929688 7.6875 6.929688 7.710938 C 6.917969 8.519531 7.074219 13.8125 12.59375 15.480469 C 12.566406 15.59375 12.542969 15.703125 12.527344 15.808594 C 12.152344 18.144531 12.289062 19.128906 12.289062 19.128906 C 12.289062 19.128906 12.292969 19.140625 12.292969 19.152344 C 11.164062 19.574219 9.886719 20.144531 8.542969 20.90625 C 7.035156 21.726562 5.402344 22.839844 3.804688 24.359375 C 3.503906 24.644531 3.222656 24.929688 2.957031 25.207031 C 2.890625 25.273438 2.828125 25.34375 2.761719 25.410156 C 2.757812 25.417969 2.753906 25.421875 2.75 25.425781 C 1.90625 26.324219 1.269531 27.15625 0.808594 27.832031 C 3.300781 26.046875 7.199219 25.511719 8.386719 25.441406 C 9.636719 25.367188 10.902344 25.15625 10.902344 25.15625 C 10.902344 25.15625 11.394531 25.417969 11.984375 25.546875 C 12.652344 25.691406 13.355469 25.480469 13.355469 25.480469 C 13.605469 26.765625 14.515625 27.589844 14.753906 27.777344 C 14.691406 28.164062 14.753906 29.4375 15.191406 30.144531 C 15.664062 30.90625 16.441406 31.421875 16.441406 31.421875 C 16.441406 31.421875 16.386719 32.109375 16.570312 32.605469 C 16.753906 33.097656 17.179688 33.546875 17.179688 33.546875 C 17.179688 33.546875 16.984375 33.871094 16.957031 34.277344 C 16.933594 34.683594 17.179688 34.910156 17.179688 34.910156 C 17.179688 34.910156 16.957031 35.191406 16.917969 35.414062 C 16.882812 35.632812 17.019531 35.964844 17.019531 35.964844 C 17.019531 35.964844 16.882812 36.210938 16.84375 36.394531 C 16.804688 36.585938 16.917969 36.816406 16.917969 36.816406 C 16.828125 36.992188 16.558594 37.8125 16.953125 38.140625 C 17.347656 38.472656 17.835938 37.855469 17.835938 37.855469 C 17.988281 37.8125 18.273438 37.625 18.40625 37.417969 C 18.570312 37.164062 18.570312 36.925781 18.570312 36.925781 C 18.570312 36.925781 18.785156 36.789062 18.964844 36.441406 C 19.117188 36.160156 19.09375 35.972656 19.09375 35.972656 C 19.09375 35.972656 19.949219 35.082031 20.128906 33.972656 C 20.28125 33.023438 20.054688 32.148438 20.054688 32.148438 C 20.054688 32.148438 20.695312 31.179688 20.667969 30.070312 C 21.105469 29.769531 22.160156 29.089844 23.472656 28.582031 C 23.511719 29.328125 23.628906 29.976562 23.394531 31.179688 C 23.097656 32.675781 21.757812 33.769531 21.757812 33.769531 C 23.632812 33.566406 24.882812 31.925781 25.375 30.742188 C 25.78125 29.773438 26.152344 28.40625 26.320312 27.789062 C 28.148438 27.433594 29.820312 27.339844 30.375 27.257812 C 31.109375 27.148438 31.292969 26.988281 31.3125 26.714844 C 31.328125 26.4375 31.253906 25.945312 31.199219 25.617188 Z M 31.199219 25.617188 "/>
<path style=" stroke:none;fill-rule:nonzero;fill:rgb(100%,100%,100%);fill-opacity:1;" d="M 12.832031 3.875 C 12.976562 4.511719 13.011719 5.535156 13.011719 5.535156 C 12.96875 5.175781 12.8125 4.613281 12.691406 4.21875 C 12.734375 4.503906 12.769531 4.769531 12.796875 4.988281 C 12.890625 5.75 12.707031 7.109375 13.25 8.535156 C 13.601562 9.457031 14.367188 10.132812 14.824219 10.472656 C 15.203125 9.941406 15.6875 9.261719 16.019531 8.761719 C 14.167969 7.625 13.707031 6.550781 13.425781 5.007812 C 13.382812 4.757812 13.324219 4.523438 13.253906 4.296875 C 13.308594 4.882812 13.261719 5.429688 13.261719 5.429688 C 13.1875 4.867188 12.832031 3.875 12.832031 3.875 Z M 8.011719 3.976562 C 8.015625 4.097656 8.007812 4.21875 8.003906 4.339844 C 7.988281 4.65625 7.917969 5.03125 7.886719 5.34375 C 7.855469 5.65625 7.800781 5.96875 7.753906 6.28125 C 7.742188 6.367188 7.722656 6.539062 7.71875 6.511719 C 7.71875 6.507812 7.71875 6.5 7.71875 6.492188 C 7.699219 6.300781 7.652344 5.683594 7.65625 4.980469 L 7.652344 4.835938 C 7.648438 4.863281 7.644531 4.890625 7.640625 4.917969 C 7.523438 5.59375 7.386719 6.535156 7.375 7.546875 C 7.375 7.578125 7.375 7.660156 7.375 7.707031 C 7.367188 8.023438 7.382812 9.332031 7.949219 10.78125 C 8.8125 12.980469 10.488281 14.441406 12.929688 15.121094 C 14.136719 15.460938 15.5 15.714844 16.445312 15.996094 C 16.445312 16 16.445312 15.996094 16.445312 15.996094 C 16.445312 15.996094 17.492188 16.300781 18.125 16.78125 C 18.125 16.78125 17.4375 16.644531 16.738281 16.558594 C 17.242188 17.300781 18.09375 17.792969 19.066406 17.792969 C 19.804688 17.792969 20.472656 17.507812 20.972656 17.050781 C 20.851562 17.132812 20.738281 17.195312 20.648438 17.238281 C 20.410156 17.355469 20.175781 17.394531 19.996094 17.40625 C 19.59375 17.535156 19.191406 17.476562 19.089844 17.460938 C 19.097656 17.457031 19.105469 17.457031 19.113281 17.453125 C 20.320312 17.246094 21.445312 16.332031 21.320312 14.9375 C 21.265625 14.339844 21.082031 13.703125 20.703125 13.300781 C 21.175781 13.703125 21.496094 14.273438 21.558594 14.929688 C 21.585938 15.253906 21.550781 15.570312 21.457031 15.863281 C 21.613281 15.535156 21.699219 15.175781 21.707031 14.789062 C 21.796875 15.199219 21.761719 15.550781 21.664062 15.851562 C 21.785156 15.554688 21.855469 15.234375 21.859375 14.894531 C 21.867188 14.933594 21.871094 14.972656 21.878906 15.011719 C 21.878906 15.007812 21.878906 15.007812 21.878906 15.003906 C 21.878906 14.800781 21.855469 14.605469 21.816406 14.414062 L 21.8125 14.386719 C 21.652344 13.347656 20.882812 12.355469 19.902344 11.917969 C 19.609375 11.765625 18.71875 11.441406 17.75 11.355469 C 17.3125 11.304688 16.84375 11.308594 16.269531 11.371094 C 16.011719 11.398438 15.765625 11.429688 15.519531 11.460938 C 14.207031 11.628906 12.96875 11.785156 11.644531 11.046875 C 10 10.222656 8.78125 8.386719 8.550781 6.375 L 8.523438 6.152344 C 8.492188 5.875 8.480469 5.582031 8.464844 5.296875 C 8.441406 5.046875 8.394531 4.910156 8.386719 4.941406 C 8.386719 4.960938 8.390625 4.984375 8.390625 5.003906 C 8.390625 5.21875 8.339844 5.429688 8.304688 5.640625 C 8.265625 5.890625 8.214844 6.367188 8.210938 6.347656 C 8.207031 6.328125 8.203125 6.308594 8.199219 6.289062 C 8.1875 6.222656 8.1875 6.152344 8.183594 6.082031 C 8.183594 5.941406 8.179688 5.800781 8.171875 5.660156 C 8.15625 5.308594 8.09375 4.277344 8.066406 4.148438 C 8.058594 4.113281 8.046875 3.996094 8.011719 3.976562 Z M 8.011719 3.976562 "/>
<path style=" stroke:none;fill-rule:nonzero;fill:rgb(91.372549%,74.901961%,60.784314%);fill-opacity:1;" d="M 25.164062 17.34375 C 24.988281 17.347656 24.367188 17.421875 24.195312 17.433594 C 24.191406 17.441406 24.128906 17.453125 24.03125 17.460938 C 24.03125 17.480469 24.03125 17.5 24.03125 17.519531 C 24.03125 17.519531 23.773438 19.503906 22.824219 20.800781 C 23.070312 20.9375 23.699219 21.125 23.917969 21.324219 C 24.328125 21.695312 24.351562 22.230469 24.332031 22.441406 C 24.3125 22.65625 24.28125 23.035156 24.085938 23.785156 C 24.085938 23.785156 24.035156 22.707031 23.941406 22.386719 C 23.84375 22.070312 23.476562 21.777344 23.128906 21.667969 C 22.96875 21.621094 22.679688 21.542969 22.355469 21.472656 C 21.730469 22.183594 21.097656 22.671875 20.507812 23.195312 C 20.570312 23.292969 20.660156 23.375 20.785156 23.40625 C 21.140625 23.5 21.589844 23.289062 21.589844 23.289062 C 21.589844 23.289062 21.304688 24.601562 22.0625 25.722656 C 22.628906 26.554688 23.726562 26.34375 23.726562 26.34375 C 23.726562 26.34375 23.960938 24.691406 24.996094 23.371094 C 25.953125 22.152344 27.121094 21.519531 27.933594 21.28125 C 27.90625 21.132812 27.855469 20.824219 27.914062 20.671875 C 27.992188 20.46875 28.214844 20.285156 28.488281 20.285156 C 28.757812 20.285156 29.070312 20.429688 29.070312 20.429688 C 28.921875 20.402344 28.542969 20.382812 28.351562 20.585938 C 28.199219 20.742188 28.269531 21.054688 28.308594 21.191406 C 29.058594 21.054688 29.75 21.148438 29.878906 21.179688 C 30.023438 21.214844 30.152344 21.191406 30.199219 21.015625 C 30.246094 20.84375 30.246094 20.632812 30.152344 20.5625 C 30.054688 20.492188 29.902344 20.46875 29.75 20.351562 C 29.597656 20.234375 29.46875 19.953125 29.480469 19.542969 C 29.492188 19.132812 29.242188 18.574219 29.242188 18.570312 C 28.675781 18.792969 27.355469 18.394531 26.53125 18.335938 C 25.703125 18.277344 25.125 18.664062 25.125 18.664062 C 24.902344 18.101562 25.164062 17.34375 25.164062 17.34375 Z M 27.363281 18.613281 C 27.738281 18.621094 27.996094 18.71875 27.996094 18.71875 C 27.597656 18.738281 27.316406 18.890625 27.316406 18.890625 C 27.414062 19.007812 27.589844 19.257812 27.597656 19.34375 C 27.597656 19.355469 27.597656 19.378906 27.597656 19.410156 C 27.597656 19.410156 27.59375 19.417969 27.59375 19.433594 L 27.59375 19.4375 C 27.582031 19.570312 27.515625 20.191406 27.371094 20.363281 C 27.351562 20.398438 27.328125 20.429688 27.296875 20.460938 C 27.132812 20.613281 26.84375 20.761719 26.296875 21.136719 C 25.695312 21.550781 25.21875 22.398438 25.21875 22.398438 C 25.21875 22.398438 25.390625 21.597656 25.761719 21.140625 C 26.222656 20.574219 26.824219 20.199219 27.195312 20 L 27.363281 19.261719 C 27.234375 19.179688 27.074219 19.089844 26.917969 19.0625 C 26.597656 19.007812 26.050781 19.015625 25.71875 18.90625 C 25.722656 18.90625 25.722656 18.902344 25.722656 18.902344 C 26.121094 18.851562 26.355469 18.738281 26.949219 18.640625 C 27.09375 18.617188 27.234375 18.609375 27.363281 18.613281 Z M 29.847656 23.667969 C 29.847656 23.667969 27.648438 24.609375 27.019531 26.339844 C 27.019531 26.339844 28.335938 26.375 29.074219 26.460938 C 29.8125 26.546875 30.292969 26.550781 30.460938 26.5625 C 30.625 26.570312 30.964844 26.589844 30.855469 25.992188 C 30.75 25.394531 30.585938 25.289062 30.292969 25.171875 C 30.003906 25.058594 29.507812 25.085938 29.507812 25.085938 C 29.507812 25.085938 29.886719 24.171875 29.847656 23.667969 Z M 19.980469 23.691406 C 19.929688 23.738281 19.882812 23.785156 19.832031 23.835938 C 19.832031 23.835938 20.273438 24.445312 20.542969 25.585938 C 20.75 26.457031 20.199219 27.871094 20.199219 27.871094 C 20.199219 27.871094 20.484375 28.582031 20.609375 29.445312 C 20.628906 29.4375 20.644531 29.425781 20.664062 29.414062 C 20.664062 29.414062 22.191406 28.613281 23.011719 28.273438 C 23.140625 28.21875 23.304688 28.160156 23.488281 28.097656 C 23.503906 27.757812 23.539062 27.289062 23.609375 26.855469 C 23.449219 26.859375 23.304688 26.863281 23.183594 26.863281 C 22.335938 26.863281 21.8125 26.375 21.417969 25.804688 C 21.027344 25.234375 20.757812 24.089844 20.757812 24.089844 C 20.757812 24.089844 20.269531 24.078125 19.980469 23.691406 Z M 26.738281 26.78125 C 26.734375 26.78125 26.730469 26.78125 26.726562 26.78125 C 26.625 26.9375 26.542969 27.105469 26.453125 27.34375 C 26.738281 27.289062 27.011719 27.238281 27.261719 27.203125 C 28.644531 26.996094 29.785156 26.960938 29.96875 26.933594 C 30.152344 26.910156 30.484375 26.921875 30.605469 26.824219 C 30.605469 26.824219 30.222656 26.855469 29.804688 26.84375 C 29.390625 26.832031 27.753906 26.78125 26.738281 26.78125 Z M 26.738281 26.78125 "/>
<path style=" stroke:none;fill-rule:nonzero;fill:rgb(100%,77.647059%,18.431373%);fill-opacity:1;" d="M 17.015625 7.441406 C 17.015625 7.441406 16.976562 7.921875 16.683594 8.535156 C 16.578125 8.753906 16.445312 8.988281 16.265625 9.226562 C 16.011719 9.5625 15.503906 10.261719 15.035156 10.964844 C 15.019531 10.988281 14.933594 11.097656 14.933594 11.097656 C 15.109375 11.078125 15.285156 11.054688 15.464844 11.035156 C 15.710938 11 15.964844 10.96875 16.222656 10.941406 C 16.832031 10.878906 17.328125 10.871094 17.792969 10.925781 C 18.714844 11.007812 19.597656 11.296875 20.015625 11.492188 C 21.179688 11.980469 22.097656 13.15625 22.261719 14.390625 L 22.257812 14.390625 C 22.265625 14.421875 22.273438 14.457031 22.277344 14.492188 C 22.277344 14.503906 22.28125 14.519531 22.28125 14.53125 C 22.289062 14.574219 22.296875 14.617188 22.300781 14.664062 C 22.589844 14.628906 24.109375 14.460938 25.375 14.46875 C 26.507812 14.476562 27.507812 14.59375 27.992188 14.671875 C 27.496094 13.574219 26.730469 12.289062 25.570312 11.199219 C 22.953125 8.738281 19.71875 7.5625 17.015625 7.441406 Z M 13.039062 15.589844 C 13.027344 15.644531 13.019531 15.699219 13.007812 15.75 C 12.976562 15.945312 12.949219 16.140625 12.925781 16.335938 C 13.425781 16.207031 14.015625 16.070312 14.582031 15.972656 C 14.597656 15.96875 14.609375 15.96875 14.621094 15.964844 C 14.613281 15.964844 14.605469 15.960938 14.59375 15.957031 C 14.496094 15.933594 14.398438 15.910156 14.300781 15.886719 C 14.101562 15.835938 13.902344 15.789062 13.703125 15.742188 C 13.480469 15.691406 13.257812 15.640625 13.039062 15.589844 Z M 30.246094 17.132812 C 30.246094 17.132812 29.992188 17.25 29.429688 17.375 C 28.863281 17.5 27.730469 17.328125 27.386719 17.289062 C 27.046875 17.25 26.027344 17.171875 25.738281 17.367188 C 25.445312 17.558594 25.511719 18.136719 25.511719 18.136719 C 25.511719 18.136719 25.746094 17.894531 26.320312 17.75 C 26.894531 17.605469 27.652344 17.714844 27.652344 17.714844 C 27.214844 17.800781 26.972656 17.945312 26.972656 17.945312 C 27.785156 18.050781 27.933594 18.3125 29.019531 18.234375 C 30.109375 18.15625 30.246094 17.132812 30.246094 17.132812 Z M 23.503906 17.558594 C 23.207031 17.582031 22.921875 17.621094 22.636719 17.648438 C 22.636719 17.65625 22.632812 17.667969 22.632812 17.675781 C 22.34375 18.628906 21.789062 19.316406 20.90625 19.714844 C 19.753906 20.878906 18.035156 21.691406 17.078125 22.300781 C 15.386719 23.375 15.109375 25.5 15.109375 25.5 C 15.292969 22.242188 17.304688 21.820312 19.507812 20.21875 C 19.550781 20.1875 19.664062 20.125 19.707031 20.089844 L 19.640625 20.117188 C 19.363281 20.117188 18.800781 20.066406 18.542969 20.007812 C 18.304688 20.171875 18.070312 20.316406 17.851562 20.433594 C 16.703125 21.054688 15.902344 22.074219 15.902344 22.074219 C 16.214844 21.042969 16.941406 20.605469 18.035156 19.84375 C 17.625 19.679688 17.167969 19.394531 16.855469 19.085938 C 16.210938 19.417969 14.789062 20.273438 13.84375 21.160156 C 13.085938 21.871094 11.683594 22.875 10.023438 23.652344 C 11.328125 22.796875 13.527344 20.875 14.300781 20.144531 C 14.300781 20.144531 11.40625 21.800781 10.578125 22.359375 C 10.578125 22.359375 11.65625 21.179688 12.984375 20.453125 C 12.984375 20.453125 10.042969 21.648438 8.351562 22.796875 C 7.472656 23.390625 6.132812 24.597656 5.355469 25.421875 C 5.675781 25.355469 6.882812 25.113281 7.207031 25.078125 C 9.382812 24.855469 11.761719 25.023438 13.84375 22.535156 C 13.878906 22.496094 13.914062 22.453125 13.945312 22.417969 C 13.761719 23.035156 13.6875 23.898438 13.722656 24.859375 C 13.796875 26.9375 15.425781 27.757812 16.054688 28.195312 C 16.039062 27.9375 16 27.683594 16.230469 26.785156 C 16.484375 25.796875 17.171875 24.992188 17.332031 24.867188 C 17.332031 24.867188 16.265625 26.277344 16.574219 28.5 C 16.574219 28.5 16.867188 26.679688 18.25 24.894531 C 19.632812 23.109375 20.960938 22.273438 22.0625 20.9375 C 22.671875 20.199219 23.019531 19.484375 23.226562 18.847656 C 23.394531 18.367188 23.46875 17.902344 23.503906 17.558594 Z M 16.371094 18.460938 C 16.070312 18.523438 12.054688 19.046875 7.195312 22.285156 C 5.585938 23.359375 3.609375 25.265625 2.636719 26.328125 C 3.054688 26.144531 3.953125 25.773438 4.664062 25.554688 C 5.394531 24.8125 6.585938 23.613281 7.679688 22.851562 C 10.214844 21.089844 14.550781 19.269531 16.585938 18.71875 C 16.542969 18.660156 16.5 18.601562 16.460938 18.539062 Z M 29.308594 21.460938 C 28.886719 21.460938 28.300781 21.535156 27.652344 21.828125 C 26.347656 22.417969 25.109375 23.589844 24.574219 24.804688 C 24.039062 26.019531 23.996094 27.304688 23.9375 28.25 C 23.882812 29.191406 24.039062 30.605469 23.667969 31.875 C 23.667969 31.875 24.28125 30.976562 24.503906 28.433594 C 24.703125 26.125 25.28125 24.539062 26.347656 23.796875 C 26.347656 23.796875 25.492188 24.972656 25.203125 26.898438 C 24.910156 28.828125 24.96875 29.578125 24.609375 31.179688 L 24.519531 31.480469 C 24.519531 31.480469 25.375 30.34375 25.839844 27.382812 C 26.246094 24.792969 27.007812 23.632812 28.058594 23.023438 C 28.058594 23.023438 26.65625 24.539062 26.332031 26.707031 C 26.332031 26.707031 27.128906 24.753906 28.382812 23.933594 C 29.636719 23.113281 30.71875 22.839844 30.71875 22.839844 C 30.71875 22.839844 30.675781 22.167969 29.992188 21.53125 C 29.992188 21.53125 29.730469 21.457031 29.308594 21.460938 Z M 13.417969 23.496094 C 13.417969 23.496094 12.445312 24.652344 11.371094 24.917969 L 11.328125 24.921875 C 11.328125 24.921875 11.949219 25.242188 12.457031 25.242188 C 12.96875 25.242188 13.390625 25.078125 13.390625 25.078125 C 13.390625 25.078125 13.304688 23.886719 13.417969 23.496094 Z M 19.375 24.164062 C 19.375 24.164062 18.121094 25.523438 17.628906 26.632812 C 17.191406 27.621094 17.039062 28.417969 17.015625 28.839844 C 17.539062 29.164062 18.171875 29.554688 18.519531 29.828125 C 18.605469 29.628906 18.695312 29.425781 18.792969 29.238281 C 19.351562 28.144531 19.902344 27.753906 20.121094 26.613281 C 20.335938 25.46875 19.789062 24.59375 19.375 24.164062 Z M 15.121094 28.128906 C 15.121094 28.128906 15.113281 29.230469 15.660156 30.074219 C 16.0625 30.699219 17.171875 31.273438 17.890625 31.703125 C 17.953125 31.46875 18.121094 30.871094 18.363281 30.222656 C 18.074219 30.003906 17.230469 29.382812 16.710938 29.097656 C 16.078125 28.75 15.390625 28.363281 15.121094 28.128906 Z M 19.847656 28.472656 C 19.753906 28.621094 19.605469 28.847656 19.519531 28.964844 C 19.246094 29.332031 18.570312 30.792969 18.28125 31.9375 C 18.367188 31.988281 18.445312 32.039062 18.511719 32.085938 C 18.828125 32.304688 19.015625 32.480469 19.125 32.597656 C 19.261719 32.355469 19.53125 32.109375 19.640625 31.914062 C 20.035156 31.199219 20.339844 30.355469 20.242188 29.585938 C 20.175781 29.058594 19.933594 28.640625 19.847656 28.472656 Z M 16.949219 31.710938 C 16.949219 31.945312 16.976562 32.535156 17.3125 33.015625 C 17.742188 33.628906 18.355469 33.945312 18.355469 33.945312 C 18.355469 33.945312 18.628906 33.46875 18.933594 32.929688 C 18.742188 32.769531 18.484375 32.578125 18.167969 32.378906 C 17.878906 32.203125 17.382812 31.957031 16.949219 31.710938 Z M 19.609375 32.554688 C 19.609375 32.554688 19.109375 33.226562 18.757812 33.855469 C 18.511719 34.292969 18.292969 34.867188 18.183594 35.175781 C 18.207031 35.1875 18.226562 35.203125 18.25 35.214844 C 18.480469 35.371094 18.773438 35.78125 18.773438 35.78125 C 18.773438 35.78125 19.40625 35.082031 19.660156 34.292969 C 19.917969 33.503906 19.609375 32.554688 19.609375 32.554688 Z M 17.617188 33.808594 C 17.507812 33.949219 17.3125 34.113281 17.441406 34.542969 C 17.523438 34.804688 17.71875 34.941406 17.914062 35.042969 C 18.039062 34.648438 18.203125 34.210938 18.203125 34.210938 C 17.90625 34.058594 17.617188 33.808594 17.617188 33.808594 Z M 17.457031 35.046875 C 17.457031 35.046875 17.269531 35.296875 17.335938 35.597656 C 17.40625 35.894531 17.6875 36.027344 17.984375 36.175781 C 18.28125 36.324219 18.394531 36.625 18.394531 36.625 C 18.605469 36.476562 18.710938 36.253906 18.59375 36.007812 C 18.476562 35.761719 18.253906 35.554688 17.9375 35.402344 C 17.621094 35.253906 17.457031 35.046875 17.457031 35.046875 Z M 17.347656 36.035156 C 17.039062 36.558594 17.1875 36.679688 17.613281 36.992188 C 17.902344 37.203125 17.847656 37.480469 17.847656 37.480469 C 17.847656 37.480469 18.242188 37.28125 18.214844 37.027344 C 18.199219 36.859375 17.957031 36.515625 17.726562 36.359375 C 17.496094 36.207031 17.347656 36.035156 17.347656 36.035156 Z M 17.273438 37.027344 C 17.097656 37.242188 17.019531 37.667969 17.128906 37.796875 C 17.238281 37.925781 17.390625 37.910156 17.488281 37.804688 C 17.582031 37.695312 17.609375 37.527344 17.476562 37.351562 C 17.371094 37.207031 17.273438 37.027344 17.273438 37.027344 Z M 17.273438 37.027344 "/>
<path style="fill-rule:nonzero;fill:rgb(30.980392%,14.901961%,51.372549%);fill-opacity:1;stroke-width:0.15625;stroke-linecap:butt;stroke-linejoin:miter;stroke:rgb(0%,0%,0%);stroke-opacity:1;stroke-miterlimit:4;" d="M 84.446218 45.374011 C 83.394893 45.171615 80.040103 44.671578 75.870241 44.635861 C 72.090196 44.612049 67.530516 45.088275 66.620943 45.183521 C 66.620943 45.195426 66.620943 45.195426 66.620943 45.207332 C 66.620943 50.838706 61.77776 54.850912 57.265331 54.922346 C 50.449437 55.017591 47.933345 49.529084 47.886094 49.207632 C 47.401776 49.064764 46.88202 48.921896 46.338638 48.779028 C 45.429065 48.886179 44.472241 49.029047 43.456354 49.207632 C 41.578144 49.54099 39.629058 50.005311 38.057977 50.410103 C 37.975288 51.243499 37.857162 52.588837 37.857162 52.695988 C 37.632722 57.446344 37.928038 57.112986 37.928038 57.112986 C 39.298304 56.577232 44.365927 55.26761 44.365927 55.26761 C 45.85432 54.922346 47.614404 54.55327 49.681616 54.172289 C 51.134571 57.10108 54.146794 59.113136 57.631523 59.113136 C 61.990388 59.113136 65.605056 55.981949 66.361065 51.838781 C 75.882054 50.814895 80.38267 50.779178 86.253553 51.564951 C 85.639295 48.290896 84.446218 45.374011 84.446218 45.374011 " transform="matrix(0.330684,0,0,0.3281,0.285934,0.214331)"/>
</g>
</svg>
