<?xml version="1.0" encoding="UTF-8"?>
<svg xmlns="http://www.w3.org/2000/svg" xmlns:xlink="http://www.w3.org/1999/xlink" width="32px" height="32px" viewBox="0 0 32 39" version="1.1">
<g id="surface1">
<path style=" stroke:none;fill-rule:nonzero;fill:rgb(0%,0%,0%);fill-opacity:1;" d="M 28.640625 15.535156 C 25.789062 13.878906 22.984375 14.261719 20.855469 15.210938 C 20.761719 14.511719 20.582031 13.742188 20.277344 12.84375 C 19.824219 11.507812 19.332031 10.230469 18.894531 9.105469 C 18.320312 7.625 17.886719 6.355469 17.644531 5.507812 L 16.09375 0.191406 L 14.484375 5.511719 C 14.238281 6.355469 13.816406 7.628906 13.246094 9.109375 C 12.8125 10.238281 12.320312 11.519531 11.871094 12.855469 C 11.570312 13.753906 11.390625 14.523438 11.296875 15.222656 C 9.167969 14.28125 6.359375 13.902344 3.515625 15.5625 C 1.1875 16.925781 -0.0585938 19.289062 0.261719 21.734375 C 0.554688 23.960938 2.078125 25.710938 4.234375 26.300781 L 5.839844 26.742188 L 6.230469 25.125 C 6.289062 24.90625 6.867188 22.878906 8.691406 22.917969 C 9.957031 22.941406 11.007812 24.0625 11.535156 24.785156 C 11.363281 25.296875 11.273438 25.910156 11.359375 26.570312 L 10.644531 25.617188 L 9.351562 26.582031 C 8.1875 27.445312 6.5 29.589844 7.542969 32.117188 C 8 33.21875 8.976562 33.96875 10.300781 34.234375 C 11.109375 34.394531 12.027344 34.355469 12.878906 34.167969 C 13.214844 35.246094 13.824219 36.546875 14.933594 37.707031 L 16.105469 38.929688 L 17.273438 37.703125 C 18.382812 36.539062 18.988281 35.238281 19.320312 34.160156 C 20.171875 34.34375 21.089844 34.382812 21.898438 34.21875 C 23.21875 33.953125 24.195312 33.199219 24.648438 32.09375 C 25.6875 29.566406 23.992188 27.425781 22.828125 26.5625 L 21.535156 25.605469 L 20.820312 26.558594 C 20.90625 25.898438 20.816406 25.285156 20.644531 24.773438 C 21.167969 24.046875 22.214844 22.925781 23.480469 22.898438 C 25.304688 22.859375 25.886719 24.882812 25.949219 25.113281 L 26.34375 26.730469 C 26.34375 26.71875 27.949219 26.273438 27.949219 26.273438 C 30.101562 25.675781 31.621094 23.921875 31.90625 21.695312 C 32.222656 19.25 30.96875 16.890625 28.640625 15.535156 "/>
<path style=" stroke:none;fill-rule:nonzero;fill:rgb(100%,100%,100%);fill-opacity:1;" d="M 15.5625 5.738281 C 15.363281 6.664062 14.859375 7.980469 14.269531 9.507812 C 13.839844 10.625 13.355469 11.890625 12.914062 13.203125 C 12.492188 14.464844 12.320312 15.40625 12.320312 16.28125 C 12.320312 16.5625 12.351562 16.835938 12.386719 17.113281 C 10.761719 16 7.558594 14.472656 4.070312 16.511719 C 2.132812 17.648438 1.089844 19.59375 1.351562 21.59375 C 1.585938 23.371094 2.800781 24.769531 4.523438 25.242188 L 5.035156 25.382812 L 5.164062 24.867188 C 5.195312 24.742188 5.960938 21.765625 8.714844 21.820312 C 10.929688 21.863281 12.375 24.015625 12.765625 24.679688 C 12.582031 25.023438 12.425781 25.496094 12.425781 26.039062 C 12.425781 26.625 12.625 27.289062 13.132812 27.953125 C 12.929688 28.226562 12.597656 28.5625 12.210938 28.59375 C 11.660156 28.640625 11.101562 28.0625 10.734375 27.566406 L 10.421875 27.152344 L 10.011719 27.460938 C 9.164062 28.09375 7.769531 29.789062 8.558594 31.699219 C 8.875 32.460938 9.550781 32.964844 10.515625 33.15625 C 11.511719 33.355469 12.765625 33.175781 13.660156 32.765625 C 13.832031 33.773438 14.324219 35.480469 15.726562 36.949219 L 16.101562 37.339844 L 16.476562 36.945312 C 17.878906 35.476562 18.363281 33.769531 18.535156 32.761719 C 19.429688 33.164062 20.6875 33.34375 21.683594 33.140625 C 22.644531 32.945312 23.320312 32.441406 23.632812 31.679688 C 24.417969 29.769531 23.019531 28.074219 22.171875 27.445312 L 21.757812 27.136719 L 21.449219 27.550781 C 21.082031 28.046875 20.523438 28.628906 19.972656 28.585938 C 19.585938 28.554688 19.253906 28.21875 19.050781 27.945312 C 19.554688 27.28125 19.753906 26.621094 19.753906 26.039062 C 19.753906 25.492188 19.597656 25.015625 19.410156 24.671875 C 19.796875 24.007812 21.242188 21.851562 23.457031 21.800781 C 26.207031 21.738281 26.980469 24.714844 27.011719 24.84375 L 27.140625 25.355469 L 27.652344 25.214844 C 29.375 24.738281 30.585938 23.335938 30.816406 21.558594 C 31.074219 19.558594 30.027344 17.613281 28.085938 16.484375 C 24.589844 14.449219 21.390625 15.988281 19.769531 17.105469 C 19.800781 16.835938 19.832031 16.570312 19.832031 16.296875 C 19.832031 15.410156 19.660156 14.457031 19.234375 13.195312 C 18.792969 11.882812 18.300781 10.621094 17.871094 9.503906 C 17.28125 7.980469 16.769531 6.660156 16.570312 5.738281 L 16.0625 3.363281 L 15.5625 5.738281 "/>
<path style=" stroke:none;fill-rule:nonzero;fill:rgb(0%,0%,0%);fill-opacity:1;" d="M 16.105469 36.589844 C 18.085938 34.507812 18.109375 31.886719 18.109375 31.886719 C 18.984375 32.757812 22.390625 33.34375 23.15625 31.480469 C 23.992188 29.4375 21.867188 27.859375 21.867188 27.859375 C 19.804688 30.625 18.421875 27.917969 18.421875 27.917969 C 19.992188 26.222656 18.8125 24.695312 18.8125 24.695312 C 18.914062 24.386719 20.65625 21.347656 23.445312 21.285156 C 26.65625 21.210938 27.515625 24.71875 27.515625 24.71875 C 30.886719 23.785156 31.535156 19.085938 27.828125 16.929688 C 23.125 14.195312 19.023438 18.363281 19.023438 18.363281 C 19.40625 16.804688 19.515625 15.636719 18.746094 13.359375 C 17.703125 10.273438 16.425781 7.511719 16.066406 5.84375 C 15.710938 7.511719 14.441406 10.277344 13.40625 13.367188 C 12.640625 15.648438 12.753906 16.8125 13.136719 18.371094 C 13.136719 18.371094 9.027344 14.214844 4.332031 16.960938 C 0.628906 19.125 1.289062 23.820312 4.660156 24.746094 C 4.660156 24.746094 5.511719 21.238281 8.726562 21.300781 C 11.511719 21.359375 13.261719 24.394531 13.363281 24.699219 C 13.363281 24.699219 12.191406 26.234375 13.765625 27.925781 C 13.765625 27.925781 12.386719 30.636719 10.320312 27.875 C 10.320312 27.875 8.195312 29.457031 9.039062 31.5 C 9.804688 33.359375 13.210938 32.765625 14.082031 31.890625 C 14.082031 31.890625 14.113281 34.515625 16.097656 36.589844 "/>
<path style=" stroke:none;fill-rule:nonzero;fill:rgb(82.745098%,73.72549%,55.294118%);fill-opacity:1;" d="M 16.074219 8.03125 L 16.066406 8.074219 L 16.066406 8.03125 C 16.066406 8.03125 15.765625 9.574219 14.292969 13.402344 C 12.820312 17.234375 14.464844 20.429688 14.605469 21.140625 C 14.605469 21.140625 11.453125 16.800781 7.625 16.804688 C 3.796875 16.808594 0.609375 21.167969 4.148438 23.738281 C 4.148438 23.738281 5.183594 20.523438 8.75 20.519531 C 11.375 20.511719 14.003906 23.328125 14.117188 24.722656 C 14.117188 24.722656 12.914062 26.417969 14.585938 27.839844 C 14.585938 27.839844 12.78125 31.636719 10.277344 28.902344 C 10.277344 28.902344 8.355469 31.308594 10.871094 31.890625 C 12.867188 32.351562 14.832031 30.328125 14.832031 30.328125 C 14.832031 30.328125 14.617188 33.527344 16.097656 35.273438 L 16.097656 35.257812 L 16.105469 35.273438 C 17.578125 33.523438 17.355469 30.324219 17.355469 30.324219 C 17.355469 30.324219 19.328125 32.34375 21.324219 31.875 C 23.839844 31.289062 21.90625 28.886719 21.90625 28.886719 C 19.414062 31.625 17.601562 27.835938 17.601562 27.835938 C 19.265625 26.410156 18.0625 24.71875 18.0625 24.71875 C 18.167969 23.324219 20.789062 20.5 23.414062 20.5 C 26.984375 20.5 28.027344 23.710938 28.027344 23.710938 C 31.558594 21.128906 28.359375 16.777344 24.53125 16.785156 C 20.703125 16.789062 17.566406 21.136719 17.566406 21.136719 C 17.699219 20.425781 19.339844 17.222656 17.855469 13.398438 C 16.375 9.570312 16.074219 8.03125 16.074219 8.03125 Z M 16.074219 8.03125 "/>
</g>
</svg>
