<?xml version="1.0" encoding="UTF-8"?>
<svg xmlns="http://www.w3.org/2000/svg" xmlns:xlink="http://www.w3.org/1999/xlink" width="32px" height="32px" viewBox="0 0 32 22" version="1.1">
<g id="surface1">
<path style=" stroke:none;fill-rule:nonzero;fill:rgb(100%,100%,100%);fill-opacity:1;" d="M 18.597656 1.710938 L 17.050781 3.320312 C 19.582031 2.273438 25.109375 0.476562 25.109375 0.476562 L 23.339844 2.199219 C 28.171875 0.777344 31.847656 0.101562 31.847656 0.101562 C 31.847656 0.101562 30.78125 2.5625 29.191406 5.027344 C 29.5 4.996094 31.507812 4.761719 31.507812 4.761719 C 31.507812 4.761719 29.699219 7.738281 27.613281 9.882812 L 28.78125 10.171875 C 28.78125 10.171875 26.960938 12.777344 24.554688 14.90625 C 21.101562 17.964844 19.324219 17.496094 19.324219 17.496094 C 16.757812 19.34375 14.703125 18.40625 14.703125 18.40625 C 14.703125 18.40625 15.589844 16.179688 14.671875 15.941406 C 13.84375 15.730469 12.585938 16.371094 12.429688 16.628906 C 12.265625 17.191406 11.578125 18.617188 10.867188 19.484375 C 9.507812 21.136719 7.996094 21.816406 7.996094 21.816406 C 7.996094 21.816406 6.804688 20.804688 6.796875 19.089844 C 6.796875 19.089844 5.980469 19.949219 4.648438 20.230469 C 3.71875 20.425781 2.449219 20.265625 1.144531 19.1875 C 0.269531 18.460938 0.105469 16.027344 0.105469 16.027344 C 0.105469 16.027344 0.925781 14.464844 2.511719 13.101562 C 2.160156 12.800781 1.945312 12.425781 1.878906 12.191406 C 6.089844 10.367188 6.089844 8.625 9.441406 6.503906 C 12.738281 4.414062 14.8125 3.457031 18.597656 1.710938 "/>
<path style=" stroke:none;fill-rule:nonzero;fill:rgb(0%,28.235294%,31.764706%);fill-opacity:1;" d="M 16.542969 3.1875 L 15.222656 4.566406 C 17.835938 3.417969 23.355469 1.550781 23.355469 1.550781 L 21.75 3.105469 C 27.410156 1.367188 31 0.777344 31 0.777344 C 31 0.777344 29.828125 3.375 28.265625 5.578125 C 29.019531 5.507812 30.597656 5.324219 30.597656 5.324219 C 30.597656 5.324219 29.019531 7.949219 26.691406 10.171875 C 26.949219 10.210938 28.007812 10.449219 28.007812 10.449219 C 28.007812 10.449219 26.601562 12.519531 24.160156 14.644531 C 21.042969 17.355469 19.660156 17.035156 19.660156 17.035156 C 19.660156 17.035156 19.691406 16.929688 19.6875 16.765625 C 19.6875 16.671875 19.667969 16.589844 19.667969 16.585938 C 17.265625 18.828125 15.269531 18.070312 15.269531 18.070312 C 15.269531 18.070312 16.15625 15.9375 14.792969 15.503906 C 13.738281 15.171875 12.125 16.027344 11.996094 16.488281 C 11.855469 16.988281 11.1875 18.375 10.523438 19.1875 C 9.371094 20.59375 8.09375 21.238281 8.09375 21.238281 C 8.09375 21.238281 6.933594 20.351562 7.335938 17.757812 C 7.425781 17.195312 7.3125 16.972656 7.25 16.878906 C 7.058594 16.589844 5.574219 16.90625 5.214844 17.726562 C 4.960938 18.308594 6.433594 18.796875 6.433594 18.796875 C 6.433594 18.796875 5.753906 19.542969 4.5625 19.785156 C 3.816406 19.9375 2.65625 19.886719 1.441406 18.84375 C 0.722656 18.222656 0.574219 16.128906 0.574219 16.128906 C 0.574219 16.128906 1.460938 14.511719 3.191406 13.117188 C 2.851562 12.894531 2.59375 12.519531 2.527344 12.371094 C 6.015625 10.878906 6.492188 8.769531 10.429688 6.410156 C 12.265625 5.3125 14.195312 4.230469 16.542969 3.1875 "/>
<path style=" stroke:none;fill-rule:nonzero;fill:rgb(0%,0%,0%);fill-opacity:1;" d="M 29.726562 1.699219 C 29.726562 1.699219 26.585938 2.359375 25.082031 2.675781 C 22.257812 3.277344 20.015625 4.039062 20.015625 4.039062 L 21.367188 2.738281 C 21.367188 2.738281 17.03125 4.097656 14.472656 5.34375 C 14.1875 5.484375 13.539062 5.761719 13.539062 5.761719 L 14.3125 4.789062 C 14.3125 4.789062 12.257812 5.660156 9.570312 7.4375 C 7.128906 9.050781 6.007812 11.21875 3.140625 12.523438 C 3.140625 12.523438 3.328125 12.832031 3.921875 13.058594 C 3.359375 13.457031 2.007812 14.53125 0.980469 16.222656 C 0.980469 16.222656 1.175781 18.097656 1.699219 18.542969 C 3.832031 20.355469 5.679688 18.894531 5.679688 18.894531 C 5.679688 18.894531 4.402344 18.332031 4.765625 17.53125 C 5.21875 16.535156 6.652344 16.363281 7.03125 16.382812 C 7.03125 16.382812 7.976562 16.335938 7.726562 17.824219 C 7.386719 19.84375 8.179688 20.738281 8.179688 20.738281 C 8.179688 20.738281 10.660156 19.328125 11.636719 16.328125 C 12.011719 15.175781 16.914062 13.570312 15.757812 17.777344 C 16.710938 17.996094 19.003906 17.160156 19.753906 15.796875 C 19.910156 15.992188 20.042969 16.277344 20.0625 16.609375 C 22.066406 16.453125 25.644531 12.664062 26.84375 10.730469 C 26.523438 10.601562 25.953125 10.496094 25.8125 10.46875 C 28.292969 8.117188 29.390625 5.925781 29.390625 5.925781 C 29.390625 5.925781 28.367188 5.980469 27.421875 6.046875 C 28.988281 3.855469 29.726562 1.699219 29.726562 1.699219 Z M 9.140625 11.519531 C 9.335938 11.539062 9.5 11.628906 9.59375 11.785156 C 9.777344 12.089844 9.605469 12.527344 9.210938 12.761719 C 8.8125 12.996094 8.34375 12.941406 8.15625 12.636719 C 8.136719 12.597656 8.117188 12.554688 8.105469 12.515625 C 8.164062 12.480469 8.222656 12.445312 8.277344 12.40625 C 8.285156 12.445312 8.296875 12.480469 8.316406 12.511719 C 8.445312 12.730469 8.789062 12.765625 9.078125 12.59375 C 9.367188 12.417969 9.5 12.105469 9.367188 11.890625 C 9.292969 11.765625 9.152344 11.707031 8.992188 11.703125 C 9.046875 11.636719 9.097656 11.574219 9.140625 11.519531 Z M 9.140625 11.519531 "/>
<path style=" stroke:none;fill-rule:nonzero;fill:rgb(100%,100%,100%);fill-opacity:1;" d="M 19.703125 3.753906 C 19.703125 3.753906 17.066406 4.378906 13.496094 6.0625 C 12.492188 6.539062 11.960938 6.820312 11.960938 6.820312 C 12.113281 6.644531 12.832031 6.019531 13.003906 5.796875 C 10.355469 7.089844 9.386719 7.941406 7.816406 9.597656 C 6.410156 11.078125 6.472656 11.335938 4.34375 12.480469 C 4.34375 12.480469 5.914062 13.121094 7.503906 12.089844 C 7.777344 11.914062 8.039062 11.664062 8.285156 11.402344 C 8.847656 10.753906 8.660156 10.089844 9.40625 9.613281 C 9.300781 9.859375 9.125 10.171875 9.109375 10.496094 C 9.46875 10.003906 10.175781 9.359375 10.964844 8.890625 C 12.972656 7.703125 14.304688 7.496094 14.304688 7.496094 C 14.25 7.515625 14.203125 7.53125 14.152344 7.550781 C 11.410156 8.683594 10.964844 10.164062 10.949219 10.320312 C 10.917969 10.652344 11.941406 9.90625 12.773438 9.804688 C 11.898438 10.113281 11.144531 10.855469 10.777344 11.710938 C 10.625 12.074219 10.578125 12.484375 10.144531 12.808594 C 10.019531 12.917969 9.859375 13.027344 9.644531 13.125 C 9.070312 13.382812 8.671875 13.253906 8.535156 13.164062 C 8.457031 13.109375 8.40625 13.019531 8.40625 13.019531 C 8.683594 13.097656 9.066406 13.03125 9.410156 12.8125 C 9.667969 12.652344 9.855469 12.441406 9.960938 12.226562 C 10.015625 12.109375 10.121094 11.886719 9.96875 11.601562 C 9.890625 11.457031 9.726562 11.378906 9.542969 11.347656 C 9.554688 11.320312 9.648438 11.074219 9.953125 10.71875 C 9.542969 11.007812 9.277344 11.359375 9.140625 11.519531 C 9.332031 11.539062 9.5 11.628906 9.59375 11.785156 C 9.777344 12.089844 9.605469 12.527344 9.210938 12.761719 C 8.8125 12.996094 8.34375 12.941406 8.15625 12.636719 C 8.132812 12.597656 8.117188 12.558594 8.105469 12.515625 C 8.082031 12.527344 8.0625 12.539062 8.042969 12.550781 C 7.917969 12.613281 7.667969 12.71875 7.667969 12.71875 C 7.785156 12.746094 7.945312 12.757812 8.042969 12.742188 C 8.074219 13.171875 8.347656 13.867188 9.878906 13.472656 C 9.441406 13.902344 8.386719 13.871094 7.75 13.539062 C 7.835938 13.605469 7.9375 13.671875 8.054688 13.746094 C 9.972656 14.929688 12.183594 13.816406 12.722656 13.507812 C 12.855469 13.425781 12.988281 13.347656 13.121094 13.28125 C 13.121094 13.28125 12.5625 13.773438 12.183594 14.53125 C 12.855469 13.679688 14.808594 12.308594 17.429688 12.625 C 17.429688 12.625 16.058594 11.964844 13.898438 12.664062 C 13.898438 12.664062 16.878906 10.910156 20.648438 11.65625 C 18.203125 10.839844 16 11.226562 14.699219 11.664062 C 13.933594 11.953125 13.480469 12.195312 13.480469 12.195312 C 13.480469 12.195312 13.671875 12.058594 14.027344 11.847656 C 14.914062 11.203125 16.125 10.503906 17.324219 10.011719 C 18.160156 9.671875 19.816406 9.230469 20.492188 9.191406 C 20.492188 9.191406 18.757812 8.898438 17.171875 9.296875 C 17.171875 9.296875 19.679688 8.324219 22.113281 8.269531 C 22.925781 8.253906 24.792969 8.351562 24.792969 8.351562 C 22.101562 7.558594 19.316406 7.402344 17.414062 7.691406 C 16.332031 7.957031 15.476562 8.222656 15.476562 8.222656 C 15.476562 8.222656 15.625 8.148438 15.914062 8.027344 C 16.597656 7.625 19.414062 6.121094 24.648438 5.308594 C 24.648438 5.308594 23.980469 5.230469 23.160156 5.230469 C 22.324219 5.230469 20.679688 5.511719 20.679688 5.511719 C 21.871094 4.96875 24.117188 4.445312 26.894531 4.179688 C 26.894531 4.179688 22.652344 3.679688 17.511719 5.277344 C 17.46875 5.296875 17.445312 5.308594 17.445312 5.308594 C 17.445312 5.308594 17.988281 4.917969 18.597656 4.515625 C 19.050781 4.21875 19.703125 3.753906 19.703125 3.753906 Z M 8.59375 12.140625 C 8.527344 12.207031 8.453125 12.269531 8.378906 12.328125 C 8.390625 12.359375 8.417969 12.417969 8.480469 12.464844 C 8.59375 12.546875 8.765625 12.53125 8.765625 12.53125 C 8.613281 12.417969 8.585938 12.261719 8.59375 12.140625 Z M 8.59375 12.140625 "/>
<path style=" stroke:none;fill-rule:nonzero;fill:rgb(63.529412%,66.666667%,67.843137%);fill-opacity:1;" d="M 27.507812 3.207031 C 27.507812 3.207031 25.144531 3.394531 22.464844 3.890625 C 19.675781 4.40625 17.871094 5.128906 17.511719 5.277344 C 22.652344 3.679688 26.894531 4.179688 26.894531 4.179688 C 24.117188 4.445312 21.871094 4.96875 20.679688 5.511719 C 20.679688 5.511719 22.324219 5.230469 23.160156 5.230469 C 23.980469 5.230469 24.648438 5.308594 24.648438 5.308594 C 19.414062 6.121094 16.597656 7.625 15.910156 8.027344 C 16.609375 7.734375 18.113281 7.171875 20.269531 6.746094 C 22.304688 6.347656 24.667969 6.246094 25.617188 6.152344 C 26.976562 4.851562 27.507812 3.207031 27.507812 3.207031 Z M 22.585938 7.054688 C 21.542969 7.0625 20.445312 7.121094 19.464844 7.269531 C 18.789062 7.375 18.058594 7.535156 17.414062 7.691406 C 19.316406 7.402344 22.105469 7.558594 24.792969 8.351562 C 24.792969 8.351562 22.929688 8.253906 22.113281 8.269531 C 19.679688 8.324219 17.171875 9.296875 17.171875 9.296875 C 18.757812 8.898438 20.492188 9.191406 20.492188 9.191406 C 19.816406 9.230469 18.160156 9.671875 17.324219 10.011719 C 16.125 10.503906 14.914062 11.203125 14.03125 11.847656 C 15.445312 11.015625 19.464844 9.054688 24.570312 10.136719 C 24.570312 10.136719 24.90625 9.882812 25.792969 8.914062 C 26.734375 7.886719 26.933594 7.253906 26.933594 7.253906 C 26.933594 7.253906 24.886719 7.035156 22.585938 7.054688 Z M 14.152344 7.550781 C 14.125 7.558594 14.058594 7.585938 14.050781 7.585938 C 11.539062 8.519531 10.21875 9.996094 10.414062 10.746094 C 10.488281 11.027344 10.980469 10.738281 10.980469 10.738281 C 10.980469 10.738281 10.316406 11.296875 10.046875 11.902344 C 10.046875 11.933594 10.046875 12.054688 9.960938 12.226562 C 10.027344 12.238281 10.09375 12.25 10.148438 12.242188 C 10.320312 12.226562 10.523438 12.105469 10.523438 12.105469 C 10.523438 12.105469 10.527344 12.460938 10.144531 12.808594 C 10.578125 12.484375 10.625 12.074219 10.777344 11.710938 C 11.144531 10.851562 11.898438 10.113281 12.773438 9.804688 C 11.941406 9.90625 10.921875 10.652344 10.949219 10.320312 C 10.964844 10.164062 11.410156 8.683594 14.152344 7.550781 Z M 19.757812 10.644531 C 17.695312 10.667969 15.84375 11.222656 14.699219 11.664062 C 16 11.226562 18.203125 10.839844 20.648438 11.65625 C 16.878906 10.910156 13.898438 12.664062 13.898438 12.664062 C 16.058594 11.964844 17.429688 12.625 17.429688 12.625 C 14.808594 12.308594 12.855469 13.679688 12.183594 14.53125 C 12.132812 14.636719 12.085938 14.746094 12.042969 14.859375 C 12.648438 14.292969 13.296875 13.832031 14.792969 13.464844 C 18.335938 12.589844 20.796875 13.648438 21.089844 14.761719 C 21.089844 14.761719 21.101562 14.753906 21.125 14.742188 C 21.269531 14.664062 21.820312 14.433594 22.648438 13.621094 C 23.519531 12.769531 24.0625 12.089844 24.28125 11.628906 C 22.921875 10.953125 21.507812 10.683594 20.171875 10.648438 C 20.03125 10.644531 19.894531 10.644531 19.757812 10.644531 Z M 6.671875 13.253906 C 6.097656 13.429688 5.367188 13.378906 4.964844 13.269531 C 4.5 13.589844 2.828125 14.300781 1.761719 16.089844 C 1.816406 16.695312 1.882812 17.472656 2.132812 17.898438 C 3.15625 19.503906 4.941406 18.910156 4.941406 18.910156 C 4.941406 18.910156 2.226562 17.710938 5.128906 15.96875 C 6.054688 15.410156 8.617188 14.992188 10.148438 15.480469 C 10.277344 15.527344 10.4375 15.640625 10.425781 15.671875 C 10.269531 16.445312 9.628906 18.609375 8.5625 19.226562 C 7.976562 18.371094 9.527344 16.414062 7.945312 16.339844 C 7.945312 16.339844 8.339844 16.945312 8.167969 17.757812 C 8.09375 18.117188 7.847656 19.074219 8.285156 20.0625 C 8.285156 20.0625 10.695312 18.628906 11.40625 15.328125 C 11.5 15.003906 11.5625 14.730469 11.703125 14.480469 C 8.613281 15.691406 6.671875 13.253906 6.671875 13.253906 Z M 5.941406 13.746094 C 6.109375 13.882812 6.28125 13.976562 6.730469 14.019531 C 6.730469 14.019531 5.921875 14.253906 5.742188 14.304688 C 5.519531 14.371094 5.042969 14.4375 5.269531 14.101562 C 5.269531 14.101562 5.558594 13.945312 5.941406 13.746094 Z M 15.617188 13.972656 C 13.683594 14.015625 12.796875 14.875 12.796875 14.875 C 12.796875 14.875 13.691406 14.207031 15.207031 14.449219 C 17.445312 14.804688 17.382812 16.210938 17.382812 16.210938 C 17.382812 16.210938 18.390625 15.777344 18.902344 14.894531 C 18.902344 14.894531 18.269531 14.296875 17.125 14.09375 C 16.566406 13.996094 16.0625 13.964844 15.617188 13.972656 Z M 15.617188 13.972656 "/>
</g>
</svg>
