<?xml version="1.0" encoding="UTF-8"?>
<svg xmlns="http://www.w3.org/2000/svg" xmlns:xlink="http://www.w3.org/1999/xlink" width="32px" height="32px" viewBox="0 0 32 14" version="1.1">
<g id="surface1">
<path style=" stroke:none;fill-rule:nonzero;fill:rgb(100%,100%,100%);fill-opacity:1;" d="M 26.8125 11.417969 C 25.429688 11.183594 24.027344 11.070312 22.625 11.078125 L 3.398438 11.078125 C 2.199219 11.078125 0.945312 11.078125 0.332031 10.105469 C -0.332031 9.136719 0.0390625 8.164062 1.105469 6.246094 C 1.1875 6.089844 4.492188 0 4.492188 0 C 4.695312 0.246094 4.917969 0.472656 5.160156 0.683594 C 5.507812 0.945312 5.851562 1.078125 6.757812 1.078125 C 8.386719 1.078125 18.917969 1.050781 19.027344 1.050781 C 21.160156 1.050781 23.320312 1.261719 24.707031 2.78125 C 25.453125 2.859375 27.773438 3.148438 29.71875 4.070312 C 30.839844 4.59375 31.585938 5.382812 31.878906 6.351562 C 31.957031 6.652344 31.992188 6.960938 31.984375 7.269531 C 31.984375 8.191406 31.640625 9.214844 30.972656 10.289062 C 29.507812 12.519531 28.171875 13.308594 28.121094 13.335938 C 27.640625 13.675781 27.082031 13.886719 26.492188 13.9375 C 26.90625 13.464844 27.230469 12.921875 27.453125 12.335938 C 27.691406 11.523438 26.8125 11.417969 26.8125 11.417969 Z M 26.8125 11.417969 "/>
<path style=" stroke:none;fill-rule:nonzero;fill:rgb(0%,13.333333%,26.666667%);fill-opacity:1;" d="M 29.480469 4.566406 C 27.265625 3.515625 24.441406 3.308594 24.441406 3.308594 C 23.214844 1.8125 21.132812 1.601562 19.027344 1.601562 C 19.027344 1.601562 8.414062 1.628906 6.757812 1.628906 C 4.839844 1.628906 4.652344 0.867188 4.652344 0.867188 L 2.066406 5.617188 L 8.757812 5.617188 C 10.867188 5.617188 10.972656 5.40625 12.359375 4.382812 C 13.851562 3.308594 15.027344 2.941406 16.441406 2.941406 C 17.828125 2.941406 18.757812 3.230469 20.332031 3.910156 C 21.878906 4.59375 22.707031 4.933594 23.640625 4.542969 C 23.640625 4.542969 22.917969 5.511719 20.707031 4.59375 C 18.492188 3.703125 17.90625 3.492188 16.546875 3.492188 C 15.238281 3.492188 13.71875 4.121094 11.828125 5.984375 L 14.09375 7.769531 C 14.09375 7.769531 13.558594 8.582031 13.214844 9.082031 C 12.867188 9.582031 12.894531 9.921875 13.078125 10.183594 C 13.265625 10.421875 13.507812 10.527344 14.332031 10.527344 L 22.625 10.527344 C 24.066406 10.527344 25.5 10.652344 26.917969 10.894531 C 29.054688 11.3125 27.667969 13.074219 27.667969 13.074219 C 27.667969 13.074219 29.105469 12.152344 30.492188 9.976562 C 32.066406 7.558594 31.667969 5.589844 29.480469 4.566406 Z M 29.480469 4.566406 "/>
<path style=" stroke:none;fill-rule:nonzero;fill:rgb(100%,100%,100%);fill-opacity:1;" d="M 25.585938 4.933594 C 24.601562 4.699219 25.453125 4.148438 25.453125 4.148438 C 24.496094 4.347656 23.703125 5.007812 23.347656 5.90625 C 23.320312 5.957031 23.292969 5.984375 23.265625 6.039062 C 22.464844 7.613281 21.746094 7.535156 20.386719 7.535156 L 18.066406 7.535156 C 16.171875 7.535156 15.292969 8.453125 14.386719 10.027344 L 15.453125 10.027344 C 16.441406 8.582031 17.160156 8.214844 19.105469 8.109375 C 23.507812 8.109375 27 9.34375 28.867188 10.289062 C 31.507812 5.933594 27.585938 5.222656 25.585938 4.933594 Z M 25.585938 4.933594 "/>
<path style=" stroke:none;fill-rule:nonzero;fill:rgb(100%,100%,100%);fill-opacity:1;" d="M 17.398438 10 C 17.878906 9.265625 18.894531 9.03125 20.492188 9.109375 C 24.492188 9.34375 26.785156 10.105469 28.546875 10.761719 C 26.359375 9.503906 22.441406 8.582031 19.71875 8.582031 C 18.414062 8.582031 17.238281 8.820312 16.574219 10 Z M 17.398438 10 "/>
<path style=" stroke:none;fill-rule:nonzero;fill:rgb(100%,100%,100%);fill-opacity:1;" d="M 21.667969 5.671875 C 21.160156 6.40625 20.464844 6.640625 18.519531 6.511719 C 16.28125 6.351562 16.867188 5.40625 17.105469 4.960938 C 17.1875 4.828125 17.292969 4.59375 17.425781 4.382812 C 15.691406 4.277344 14.441406 5.589844 14.441406 5.589844 C 15.71875 6.851562 16.574219 6.984375 17.746094 6.984375 L 19.933594 6.984375 C 21.960938 6.984375 22.441406 6.089844 22.625 5.671875 C 22.308594 5.722656 21.984375 5.722656 21.667969 5.671875 Z M 21.667969 5.671875 "/>
<path style=" stroke:none;fill-rule:nonzero;fill:rgb(41.176471%,74.509804%,15.686275%);fill-opacity:1;" d="M 20.679688 5.460938 C 20.632812 5.449219 20.585938 5.433594 20.546875 5.40625 C 20.328125 5.636719 20.007812 5.742188 19.691406 5.695312 C 19.238281 5.644531 19 5.328125 19.132812 5.015625 C 19.136719 4.957031 19.15625 4.902344 19.1875 4.855469 C 18.972656 4.777344 18.734375 4.699219 18.519531 4.621094 C 18.066406 5.328125 17.828125 5.800781 19.371094 5.933594 C 20.332031 6.011719 20.601562 5.855469 20.8125 5.511719 C 20.757812 5.484375 20.734375 5.484375 20.679688 5.460938 Z M 20.679688 5.460938 "/>
<path style=" stroke:none;fill-rule:nonzero;fill:rgb(64.705882%,67.45098%,68.627451%);fill-opacity:1;" d="M 12.867188 8.191406 C 12.066406 9.554688 11.746094 9.871094 12.304688 10.527344 L 3.398438 10.527344 C 2.066406 10.527344 1.214844 10.472656 0.785156 9.816406 C 0.359375 9.160156 0.441406 8.558594 1.585938 6.511719 L 9.160156 6.511719 C 10.464844 6.511719 10.8125 6.589844 11.507812 7.113281 C 12.226562 7.664062 12.867188 8.191406 12.867188 8.191406 Z M 12.867188 8.191406 "/>
</g>
</svg>
