<?xml version="1.0" encoding="UTF-8"?>
<svg xmlns="http://www.w3.org/2000/svg" xmlns:xlink="http://www.w3.org/1999/xlink" width="32px" height="32px" viewBox="0 0 32 28" version="1.1">
<g id="surface1">
<path style=" stroke:none;fill-rule:evenodd;fill:rgb(69.411765%,72.941176%,74.901961%);fill-opacity:1;" d="M 30.613281 0.101562 C 30.613281 0.101562 30.683594 1.433594 30.429688 2.65625 C 30.183594 3.832031 30.046875 4.28125 30.046875 4.28125 C 29.523438 4.582031 28.675781 4.957031 27.4375 5.15625 C 25.128906 5.535156 23.03125 4.925781 20.746094 4.042969 C 18.457031 3.160156 15.394531 2.207031 12.550781 2.527344 C 9.796875 2.839844 7.824219 3.9375 6.777344 4.652344 C 5.730469 5.367188 5.535156 5.558594 4.636719 5.808594 C 4.636719 5.808594 5.34375 6.082031 5.707031 6.082031 C 5.707031 6.082031 5.535156 6.777344 5.601562 7.011719 C 5.601562 7.011719 7.097656 6.335938 7.269531 6.652344 C 7.441406 6.96875 6.734375 7.179688 6.242188 7.304688 C 5.75 7.429688 4.464844 7.410156 4.464844 7.410156 C 4.464844 7.410156 5.066406 7.867188 5.28125 8.1875 C 5.28125 8.1875 4.144531 8.671875 2.882812 8.503906 C 2.882812 8.503906 2.839844 8.964844 3.878906 9.71875 C 3.65625 9.796875 3.378906 9.921875 3.203125 10.105469 C 3.203125 10.105469 4.292969 9.882812 4.976562 10.632812 C 5.15625 10.855469 5.214844 11.054688 5.195312 11.304688 C 5.15625 11.757812 4.980469 11.933594 4.542969 12.214844 C 4.292969 12.316406 4.03125 12.441406 3.773438 12.59375 C 2.570312 13.320312 1.691406 14.425781 1.074219 15.691406 C 0.808594 16.238281 0.59375 16.875 0.441406 17.453125 C 0.292969 18.03125 0.238281 18.546875 0.199219 18.871094 C 0.164062 19.191406 0.117188 20.203125 0.117188 20.203125 C 0.117188 20.203125 0.65625 19.457031 0.910156 19.101562 C 1.160156 18.746094 2.757812 16.773438 5.082031 16.203125 C 5.824219 16.015625 6.5625 15.9375 7.273438 15.9375 C 8.972656 15.9375 10.492188 16.390625 11.390625 16.824219 C 12.695312 17.445312 14.839844 18.910156 17.648438 19.371094 C 18.3125 19.476562 19.023438 19.53125 19.765625 19.53125 C 20.472656 19.53125 21.207031 19.480469 21.941406 19.382812 C 21.527344 19.992188 21.128906 20.558594 20.75 21.085938 C 20.367188 20.726562 19.847656 20.691406 19.847656 20.691406 C 19.21875 20.632812 18.902344 21.007812 18.902344 21.007812 C 18.773438 21.144531 18.679688 21.320312 18.640625 21.527344 C 18.597656 21.722656 18.652344 21.945312 18.6875 22.058594 C 18.808594 22.433594 19.132812 22.605469 19.261719 22.660156 C 18.339844 23.867188 18.070312 25.257812 18.070312 25.257812 L 17.652344 25.625 L 17.804688 26.230469 C 17.570312 26.96875 17.9375 27.527344 18.414062 27.757812 C 18.898438 27.992188 19.347656 27.855469 19.347656 27.855469 C 19.632812 27.777344 19.890625 27.601562 20.066406 27.34375 C 20.09375 27.304688 20.117188 27.261719 20.136719 27.222656 C 20.234375 27.171875 20.320312 27.113281 20.390625 27.050781 C 20.523438 27.0625 20.863281 27.074219 20.863281 27.074219 C 21.5625 27.070312 22.242188 26.875 22.761719 26.441406 C 23.171875 26.082031 23.621094 25.464844 23.636719 24.625 C 23.636719 24.46875 23.667969 23.832031 23.132812 23.277344 C 26.5 18.414062 28.6875 15.285156 30.082031 12.097656 C 33.777344 3.652344 30.625 0.132812 30.613281 0.101562 Z M 30.613281 0.101562 "/>
<path style=" stroke:none;fill-rule:evenodd;fill:rgb(0%,0%,0%);fill-opacity:1;" d="M 30.882812 1.554688 C 30.847656 3.316406 30.355469 4.542969 30.355469 4.542969 C 29.65625 4.957031 28.699219 5.398438 27.605469 5.558594 C 25.324219 5.890625 24.203125 5.554688 22.089844 4.890625 C 19.976562 4.222656 16.804688 2.789062 13.550781 2.808594 C 10.296875 2.832031 7.972656 4.21875 5.894531 5.800781 C 5.925781 5.792969 6.4375 5.636719 6.621094 5.574219 C 6.621094 5.574219 6.132812 6.136719 5.988281 6.449219 C 5.988281 6.449219 6.953125 5.734375 8.285156 5.8125 C 8.285156 5.8125 7.820312 5.925781 7.628906 6.210938 C 7.628906 6.210938 8.167969 6.097656 8.265625 6.304688 C 8.359375 6.511719 8.035156 6.988281 7.4375 7.253906 C 6.839844 7.519531 5.875 7.726562 5.257812 7.765625 C 5.257812 7.765625 5.875 7.953125 6.28125 8.332031 C 6.28125 8.332031 5.808594 8.398438 5.296875 8.597656 C 4.871094 8.765625 4.105469 8.863281 3.777344 8.824219 C 3.777344 8.824219 4.222656 9.238281 4.757812 9.566406 C 6.324219 10.519531 5.664062 11.933594 5.160156 12.398438 C 4.828125 12.492188 1.371094 13.417969 0.578125 18.90625 C 0.578125 18.90625 2.332031 16.503906 4.980469 15.839844 C 7.632812 15.175781 10.207031 15.839844 11.554688 16.488281 C 12.902344 17.136719 14.992188 18.558594 17.707031 19 C 19.203125 19.246094 21 19.199219 22.742188 18.871094 C 22.710938 18.914062 21.382812 20.859375 20.8125 21.640625 C 20.8125 21.640625 20.390625 21.117188 19.816406 21.066406 C 19.816406 21.066406 19.574219 21.019531 19.382812 21.117188 L 19.382812 21.121094 C 19.207031 21.195312 19.0625 21.363281 19.015625 21.59375 C 18.964844 21.828125 19.050781 22.011719 19.164062 22.140625 C 19.273438 22.261719 19.40625 22.324219 19.515625 22.351562 C 19.613281 22.375 19.75 22.433594 19.773438 22.5625 C 19.511719 22.957031 19.152344 23.53125 18.894531 24.082031 C 18.691406 24.519531 18.597656 24.894531 18.515625 25.144531 C 18.4375 25.402344 18.371094 25.503906 18.347656 25.515625 L 18.074219 25.753906 C 18.074219 25.753906 18.179688 26.175781 18.207031 26.246094 C 18.140625 26.367188 18.109375 26.507812 18.109375 26.640625 L 18.109375 26.648438 C 18.109375 26.933594 18.25 27.214844 18.507812 27.382812 C 18.710938 27.519531 19.003906 27.527344 19.003906 27.527344 C 19.292969 27.527344 19.574219 27.386719 19.746094 27.132812 C 19.785156 27.074219 19.816406 27.007812 19.839844 26.945312 C 20.046875 26.863281 20.175781 26.746094 20.242188 26.652344 C 20.394531 26.683594 20.84375 26.699219 20.859375 26.699219 C 21.484375 26.695312 22.078125 26.519531 22.511719 26.15625 C 22.859375 25.847656 23.242188 25.324219 23.253906 24.621094 C 23.253906 24.496094 23.292969 23.832031 22.648438 23.308594 C 23.203125 22.515625 23.890625 21.527344 24.609375 20.453125 C 25.949219 18.457031 27.046875 16.71875 27.878906 15.269531 C 28.75 13.796875 31.480469 9.75 31.476562 4.207031 C 31.472656 2.59375 30.882812 1.554688 30.882812 1.554688 Z M 30.882812 1.554688 "/>
<path style=" stroke:none;fill-rule:evenodd;fill:rgb(65.490196%,9.803922%,18.823529%);fill-opacity:1;" d="M 13.789062 3.382812 C 9.449219 3.359375 7.335938 5.601562 7.335938 5.601562 C 7.335938 5.601562 8.367188 5.234375 8.886719 5.566406 C 9.449219 5.925781 8.953125 6.855469 8.769531 7.042969 C 8.246094 7.578125 7.5 7.972656 6.667969 7.972656 C 6.667969 7.972656 7.546875 8.179688 7.832031 8.4375 C 7.832031 8.4375 7.015625 8.542969 6.574219 8.691406 C 6.132812 8.84375 5.265625 9.089844 5.070312 9.089844 C 5.070312 9.089844 7.355469 10.117188 5.9375 12.3125 C 5.9375 12.3125 6.929688 12.164062 7.753906 12.554688 C 7.753906 12.554688 3.230469 11.835938 1.699219 16.75 C 2.277344 16.28125 4.089844 15.023438 6.910156 15.011719 C 10.3125 14.996094 11.773438 15.765625 13.128906 16.570312 C 15.191406 17.800781 16.75 18.167969 17.933594 18.382812 C 21.339844 19.007812 24.757812 17.882812 26.238281 17.203125 C 30.539062 10.71875 31.035156 7.058594 31.105469 4.441406 C 29.71875 5.820312 27.390625 6.15625 26.332031 6.148438 C 23.195312 6.132812 19.792969 4.394531 16.777344 3.730469 C 15.683594 3.492188 14.6875 3.386719 13.789062 3.382812 Z M 18.03125 4.847656 C 18.859375 4.828125 19.6875 5.117188 19.695312 5.121094 C 19.710938 5.125 21.195312 5.585938 21.734375 6.480469 C 22.273438 7.375 22.203125 8.195312 21.875 8.789062 C 21.546875 9.386719 21.234375 9.722656 21.242188 9.921875 C 21.25 10.121094 21.335938 10.285156 21.335938 10.285156 C 21.335938 10.285156 20.960938 11.023438 20.410156 11.230469 C 20.410156 11.230469 20.101562 12.007812 19.773438 12.265625 C 19.445312 12.523438 18.953125 12.789062 18.511719 13.136719 C 18.335938 13.273438 18.136719 13.359375 17.921875 13.402344 C 17.9375 13.414062 17.953125 13.421875 17.964844 13.433594 C 18.855469 13.410156 20.1875 13.304688 21.582031 12.933594 C 24.035156 12.285156 26.363281 10.082031 26.363281 10.082031 C 25.78125 11.957031 25.519531 12.578125 24 13.640625 C 22.476562 14.699219 20.09375 15.023438 20.09375 15.023438 C 20.066406 15.125 19.910156 15.230469 19.910156 15.230469 C 19.910156 15.230469 20.152344 15.320312 20.753906 15.761719 C 21.351562 16.207031 21.1875 16.183594 21.378906 16.3125 C 21.558594 16.429688 21.664062 16.40625 21.679688 16.402344 C 21.738281 16.515625 21.746094 16.683594 21.746094 16.683594 C 21.824219 16.757812 22.214844 17.125 21.851562 17.503906 C 21.488281 17.882812 21.066406 17.53125 21.066406 17.53125 C 20.917969 17.5625 20.773438 17.515625 20.773438 17.515625 C 20.773438 17.515625 20 17.996094 19.226562 17.472656 C 18.597656 17.046875 18.636719 16.539062 18.675781 16.367188 C 18.460938 16.484375 18.234375 16.578125 18 16.652344 C 17.371094 16.84375 16.566406 16.925781 15.769531 16.664062 C 15.246094 16.492188 14.8125 16.191406 14.46875 15.855469 C 14.125 15.519531 13.871094 15.152344 13.707031 14.820312 C 13.679688 14.769531 13.65625 14.71875 13.636719 14.667969 C 13.582031 14.796875 13.320312 15.285156 12.503906 15.25 C 11.566406 15.210938 11.242188 14.367188 11.242188 14.367188 C 11.242188 14.367188 11.097656 14.320312 11 14.207031 C 11 14.207031 10.449219 14.238281 10.390625 13.722656 C 10.335938 13.203125 10.871094 13.140625 10.980469 13.128906 C 10.980469 13.128906 11.089844 13 11.203125 12.941406 C 11.203125 12.941406 11.269531 13.035156 11.5 13.046875 C 11.730469 13.058594 11.585938 12.980469 12.335938 12.984375 C 13.085938 12.984375 13.332031 13.058594 13.332031 13.058594 C 13.332031 13.058594 13.273438 12.878906 13.3125 12.78125 C 13.3125 12.78125 11.613281 11.109375 11.046875 9.363281 C 10.484375 7.613281 10.65625 6.964844 11.34375 5.121094 C 11.34375 5.121094 11.851562 8.261719 13.410156 10.234375 C 14.300781 11.363281 15.300781 12.242188 15.996094 12.789062 C 16.011719 12.789062 16.027344 12.789062 16.042969 12.789062 C 15.894531 12.625 15.78125 12.433594 15.726562 12.214844 C 15.585938 11.675781 15.359375 11.171875 15.253906 10.773438 C 15.148438 10.371094 15.382812 9.570312 15.382812 9.570312 C 15.070312 9.078125 15.222656 8.265625 15.222656 8.265625 C 15.222656 8.265625 15.390625 8.1875 15.519531 8.035156 C 15.648438 7.878906 15.605469 7.425781 15.707031 6.753906 C 15.8125 6.082031 16.257812 5.390625 17.238281 4.996094 C 17.484375 4.898438 17.757812 4.855469 18.03125 4.847656 Z M 18.03125 4.847656 "/>
<path style=" stroke:none;fill-rule:evenodd;fill:rgb(86.27451%,26.666667%,1.960784%);fill-opacity:1;" d="M 15.945312 13.144531 C 14.988281 13.160156 14.140625 13.585938 13.90625 13.875 C 13.894531 13.890625 13.882812 13.90625 13.875 13.921875 C 13.871094 13.925781 13.871094 13.929688 13.871094 13.929688 C 13.960938 13.855469 14.0625 13.84375 14.0625 13.84375 C 13.902344 13.914062 13.910156 14.074219 13.9375 14.132812 C 14.171875 14.695312 14.898438 15.617188 16 15.980469 C 17.117188 16.351562 18.28125 16.050781 18.800781 15.730469 C 18.863281 15.6875 18.941406 15.582031 18.863281 15.433594 C 18.863281 15.433594 18.925781 15.496094 18.957031 15.59375 C 18.972656 15.5 18.949219 15.363281 18.894531 15.207031 C 18.6875 14.59375 17.992188 13.640625 16.917969 13.285156 C 16.59375 13.179688 16.261719 13.136719 15.945312 13.144531 Z M 14.863281 13.769531 C 15.050781 13.773438 15.257812 13.785156 15.476562 13.808594 C 15.4375 13.855469 15.402344 13.90625 15.367188 13.957031 C 14.890625 13.871094 14.457031 13.839844 14.105469 13.835938 C 14.285156 13.796875 14.546875 13.769531 14.863281 13.769531 Z M 17.738281 14.5625 C 18.234375 14.847656 18.601562 15.152344 18.789062 15.371094 C 18.511719 15.171875 18.15625 14.953125 17.738281 14.742188 C 17.738281 14.679688 17.742188 14.621094 17.738281 14.5625 Z M 17.738281 14.5625 "/>
<path style=" stroke:none;fill-rule:evenodd;fill:rgb(100%,100%,100%);fill-opacity:1;" d="M 18.378906 5.292969 C 16.9375 5.273438 16.644531 6.429688 16.636719 6.734375 C 16.632812 6.976562 16.648438 7.140625 16.640625 7.242188 C 16.789062 7.179688 16.929688 7.105469 17.035156 7.003906 C 17.011719 7.03125 16.605469 7.484375 16.171875 7.535156 C 16.171875 7.535156 16.074219 7.945312 15.957031 8.15625 C 15.84375 8.363281 15.617188 8.507812 15.617188 8.507812 C 15.597656 8.800781 15.757812 9.226562 15.9375 9.316406 C 16.117188 9.40625 16.597656 9.5625 16.78125 9.769531 C 16.96875 9.980469 16.972656 10.203125 16.929688 10.359375 C 16.917969 10.425781 16.886719 10.5 16.863281 10.558594 C 16.871094 10.558594 16.875 10.558594 16.878906 10.5625 C 16.917969 10.574219 16.941406 10.601562 16.941406 10.617188 C 16.941406 10.617188 16.917969 10.628906 16.902344 10.652344 C 16.890625 10.675781 16.863281 10.738281 16.855469 10.753906 C 16.828125 10.816406 16.808594 10.867188 16.789062 10.933594 C 16.785156 10.933594 16.785156 10.9375 16.785156 10.9375 C 16.765625 11 16.828125 11.019531 16.828125 11.019531 C 16.828125 11.019531 16.835938 11.023438 16.835938 11.023438 C 16.886719 11.03125 16.941406 11.042969 16.996094 11.054688 L 17 11.054688 C 17.011719 11.054688 17.074219 11.0625 17.097656 11.003906 C 17.121094 10.933594 17.140625 10.875 17.167969 10.804688 C 17.171875 10.800781 17.171875 10.796875 17.175781 10.789062 L 17.175781 10.785156 C 17.175781 10.785156 17.191406 10.738281 17.199219 10.710938 C 17.207031 10.683594 17.234375 10.636719 17.261719 10.636719 C 17.289062 10.636719 17.324219 10.648438 17.320312 10.703125 C 17.316406 10.757812 17.308594 10.792969 17.304688 10.800781 C 17.304688 10.804688 17.304688 10.804688 17.304688 10.808594 C 17.277344 10.894531 17.230469 11.074219 17.230469 11.074219 C 17.203125 11.144531 17.28125 11.167969 17.28125 11.167969 C 17.328125 11.179688 17.398438 11.191406 17.449219 11.207031 C 17.453125 11.207031 17.453125 11.207031 17.457031 11.207031 C 17.457031 11.207031 17.519531 11.226562 17.539062 11.21875 C 17.558594 11.210938 17.574219 11.179688 17.578125 11.167969 C 17.582031 11.160156 17.660156 10.890625 17.667969 10.859375 C 17.675781 10.835938 17.671875 10.792969 17.660156 10.769531 C 17.664062 10.769531 17.734375 10.78125 17.773438 10.792969 C 17.808594 10.804688 17.851562 10.824219 17.875 10.839844 C 17.839844 10.855469 17.820312 10.914062 17.816406 10.921875 C 17.808594 10.941406 17.804688 10.957031 17.796875 10.976562 C 17.773438 11.050781 17.742188 11.144531 17.714844 11.21875 C 17.710938 11.238281 17.707031 11.289062 17.765625 11.308594 C 17.769531 11.3125 17.773438 11.3125 17.773438 11.3125 C 17.824219 11.332031 17.886719 11.351562 17.933594 11.371094 C 17.941406 11.375 17.953125 11.378906 17.964844 11.378906 C 17.988281 11.378906 18.015625 11.367188 18.03125 11.332031 C 18.042969 11.292969 18.070312 11.214844 18.09375 11.144531 C 18.117188 11.074219 18.136719 11.011719 18.136719 11.003906 C 18.136719 10.988281 18.152344 10.964844 18.164062 10.953125 C 18.191406 10.953125 18.210938 10.957031 18.226562 10.964844 C 18.25 10.976562 18.273438 11.003906 18.285156 11.011719 C 18.269531 11.035156 18.246094 11.097656 18.242188 11.132812 C 18.238281 11.164062 18.203125 11.285156 18.1875 11.34375 C 18.183594 11.347656 18.183594 11.355469 18.179688 11.359375 C 18.179688 11.363281 18.179688 11.363281 18.179688 11.367188 C 18.179688 11.367188 18.179688 11.371094 18.179688 11.371094 C 18.167969 11.429688 18.226562 11.460938 18.226562 11.460938 C 18.28125 11.484375 18.332031 11.507812 18.375 11.53125 C 18.375 11.53125 18.382812 11.535156 18.382812 11.535156 C 18.382812 11.535156 18.445312 11.554688 18.46875 11.492188 C 18.46875 11.492188 18.46875 11.488281 18.46875 11.488281 C 18.492188 11.425781 18.507812 11.371094 18.527344 11.304688 C 18.53125 11.289062 18.535156 11.269531 18.539062 11.25 C 18.542969 11.25 18.542969 11.246094 18.542969 11.238281 C 18.542969 11.234375 18.554688 11.199219 18.554688 11.179688 C 18.558594 11.171875 18.558594 11.160156 18.558594 11.152344 C 18.558594 11.152344 18.59375 11.167969 18.632812 11.183594 C 18.648438 11.050781 18.707031 10.949219 18.707031 10.949219 C 18.722656 10.917969 18.738281 10.890625 18.761719 10.867188 C 18.757812 10.867188 18.757812 10.867188 18.757812 10.867188 C 18.832031 10.742188 18.96875 10.613281 19.199219 10.566406 C 19.472656 10.511719 19.953125 10.671875 20.148438 10.707031 C 20.324219 10.738281 20.648438 10.554688 20.835938 10.335938 C 20.867188 10.285156 20.890625 10.25 20.890625 10.25 C 20.890625 10.25 20.800781 10 20.835938 9.765625 C 20.871094 9.53125 21.046875 9.144531 21.046875 9.144531 L 21.03125 9.128906 C 20.730469 8.828125 20.6875 8.246094 20.683594 8.207031 L 20.683594 8.203125 C 20.703125 8.332031 20.757812 8.460938 20.824219 8.582031 C 20.882812 8.496094 20.992188 8.382812 21.117188 8.210938 C 21.207031 8.089844 21.367188 7.761719 21.367188 7.359375 C 21.367188 6.898438 21.160156 6.34375 20.402344 5.890625 C 20.398438 5.890625 20.394531 5.886719 20.394531 5.886719 C 20.382812 5.882812 20.375 5.875 20.363281 5.871094 C 20.265625 5.8125 20.171875 5.761719 20.078125 5.71875 C 20.039062 5.699219 19.996094 5.679688 19.957031 5.664062 C 19.917969 5.644531 19.882812 5.628906 19.847656 5.617188 C 19.820312 5.605469 19.792969 5.597656 19.769531 5.585938 C 19.75 5.578125 19.734375 5.574219 19.71875 5.566406 C 19.660156 5.546875 19.609375 5.53125 19.574219 5.519531 C 19.566406 5.515625 19.5625 5.515625 19.554688 5.511719 C 19.480469 5.488281 19.207031 5.40625 18.863281 5.339844 C 18.6875 5.308594 18.527344 5.292969 18.378906 5.292969 Z M 11.261719 6.472656 C 11.261719 6.472656 11.050781 7.75 12.0625 9.570312 L 12.132812 9.699219 C 12.179688 9.777344 12.242188 9.875 12.316406 10 C 12.683594 10.574219 13.167969 11.195312 13.820312 11.839844 L 13.824219 11.84375 C 13.863281 11.882812 14.640625 12.636719 14.976562 12.929688 C 15.109375 12.890625 15.25 12.863281 15.398438 12.839844 C 14.914062 12.449219 14.441406 12.019531 14.007812 11.558594 C 11.820312 9.222656 11.402344 7.054688 11.261719 6.472656 Z M 16.449219 7.707031 C 16.464844 7.714844 16.703125 7.816406 16.910156 8.011719 C 16.933594 8.03125 16.953125 8.050781 16.972656 8.070312 C 17.199219 8.316406 17.414062 8.539062 17.625 8.605469 C 17.695312 8.628906 17.765625 8.632812 17.832031 8.632812 C 17.835938 8.632812 17.835938 8.632812 17.835938 8.628906 C 17.855469 8.628906 17.871094 8.628906 17.890625 8.625 C 18 8.613281 18.085938 8.585938 18.085938 8.585938 C 18.085938 8.585938 17.972656 8.753906 17.898438 8.847656 C 17.824219 8.945312 17.511719 9.285156 17.273438 9.261719 C 17.273438 9.261719 17.269531 9.257812 17.269531 9.257812 C 17.019531 9.246094 16.640625 9.046875 16.496094 8.90625 C 16.476562 8.886719 16.445312 8.84375 16.445312 8.84375 C 16.441406 8.847656 16.433594 8.851562 16.429688 8.855469 C 16.433594 8.851562 16.441406 8.847656 16.445312 8.84375 C 16.445312 8.839844 16.398438 8.757812 16.394531 8.75 C 16.316406 8.5625 16.332031 8.332031 16.382812 8.144531 C 16.398438 8.089844 16.414062 8.035156 16.4375 7.984375 C 16.4375 7.984375 16.519531 7.800781 16.472656 7.730469 C 16.464844 7.722656 16.460938 7.714844 16.453125 7.710938 C 16.453125 7.710938 16.453125 7.707031 16.449219 7.707031 Z M 18.871094 8.84375 C 18.871094 8.84375 18.875 8.847656 18.875 8.851562 C 18.886719 8.863281 18.929688 8.925781 19 8.992188 C 19.011719 9.003906 19.027344 9.015625 19.039062 9.027344 C 19.039062 9.027344 19.042969 9.03125 19.042969 9.03125 C 19.09375 9.074219 19.152344 9.113281 19.222656 9.132812 C 19.433594 9.203125 19.742188 9.15625 20.074219 9.09375 C 20.101562 9.089844 20.128906 9.085938 20.15625 9.082031 C 20.453125 9.050781 20.714844 9.113281 20.714844 9.113281 L 20.714844 9.117188 L 20.707031 9.117188 C 20.699219 9.117188 20.691406 9.117188 20.683594 9.121094 C 20.597656 9.148438 20.554688 9.34375 20.554688 9.34375 C 20.539062 9.402344 20.519531 9.460938 20.496094 9.515625 C 20.4375 9.640625 20.363281 9.765625 20.265625 9.863281 C 20.191406 9.941406 20.109375 9.976562 20.023438 10.027344 L 20.019531 10.027344 C 20.019531 10.027344 19.96875 10.042969 19.941406 10.042969 C 19.738281 10.070312 19.3125 10.003906 19.109375 9.867188 C 19.105469 9.867188 19.105469 9.867188 19.105469 9.863281 C 18.898438 9.746094 18.859375 9.285156 18.855469 9.164062 C 18.855469 9.046875 18.871094 8.847656 18.871094 8.84375 Z M 15.855469 10.371094 C 15.785156 10.371094 15.703125 10.382812 15.648438 10.421875 C 15.648438 10.421875 15.710938 10.746094 15.871094 11.03125 C 16.03125 11.3125 16.222656 11.8125 16.292969 12.011719 C 16.320312 12.09375 16.378906 12.1875 16.472656 12.28125 C 16.597656 12.210938 16.910156 12.234375 17.253906 12.347656 C 17.578125 12.453125 17.832031 12.613281 17.90625 12.742188 C 18.023438 12.71875 18.117188 12.679688 18.183594 12.636719 C 18.363281 12.519531 18.820312 12.234375 19.121094 12.105469 C 19.425781 11.972656 19.667969 11.75 19.667969 11.75 C 19.644531 11.644531 19.5 11.554688 19.449219 11.527344 C 19.417969 11.53125 19.300781 11.554688 19.238281 11.597656 C 19.171875 11.648438 18.921875 12.011719 18.597656 12.148438 C 18.628906 11.96875 18.511719 11.875 18.480469 11.878906 C 18.449219 11.882812 18.425781 11.953125 18.417969 11.972656 C 18.414062 11.988281 18.351562 12.109375 18.328125 12.167969 C 18.308594 12.226562 18.3125 12.230469 18.3125 12.230469 C 18.261719 12.226562 18.210938 12.226562 18.15625 12.222656 C 18.207031 12.128906 18.25 12.035156 18.292969 11.945312 C 18.324219 11.867188 18.242188 11.851562 18.242188 11.851562 C 18.195312 11.84375 18.148438 11.835938 18.101562 11.828125 C 18.101562 11.828125 18.097656 11.828125 18.097656 11.828125 C 18.039062 11.816406 18.003906 11.855469 17.996094 11.875 C 17.992188 11.890625 17.984375 11.90625 17.980469 11.917969 C 17.957031 11.96875 17.933594 12.019531 17.914062 12.070312 C 17.910156 12.074219 17.910156 12.078125 17.910156 12.078125 C 17.882812 12.140625 17.90625 12.195312 17.90625 12.195312 C 17.886719 12.195312 17.84375 12.195312 17.769531 12.183594 C 17.738281 12.175781 17.691406 12.15625 17.691406 12.15625 C 17.714844 12.132812 17.730469 12.09375 17.730469 12.09375 C 17.777344 11.984375 17.851562 11.8125 17.851562 11.8125 C 17.851562 11.8125 17.878906 11.738281 17.828125 11.722656 C 17.761719 11.707031 17.695312 11.6875 17.628906 11.667969 C 17.582031 11.660156 17.558594 11.699219 17.554688 11.710938 C 17.542969 11.738281 17.523438 11.777344 17.519531 11.796875 C 17.492188 11.867188 17.46875 11.9375 17.441406 12.007812 C 17.441406 12.011719 17.441406 12.011719 17.441406 12.011719 C 17.425781 12.058594 17.4375 12.101562 17.4375 12.101562 C 17.4375 12.101562 17.375 12.085938 17.339844 12.078125 C 17.308594 12.070312 17.257812 12.035156 17.257812 12.035156 C 17.265625 12.027344 17.273438 12.003906 17.28125 11.988281 C 17.3125 11.882812 17.339844 11.75 17.367188 11.640625 C 17.371094 11.625 17.371094 11.578125 17.324219 11.558594 C 17.265625 11.539062 17.210938 11.515625 17.15625 11.496094 C 17.105469 11.480469 17.085938 11.519531 17.078125 11.542969 C 17.054688 11.644531 17.027344 11.761719 17.011719 11.847656 C 17.003906 11.910156 17.03125 11.953125 17.03125 11.953125 C 17.007812 11.945312 16.953125 11.925781 16.910156 11.90625 C 16.882812 11.894531 16.824219 11.855469 16.824219 11.855469 C 16.855469 11.851562 16.871094 11.785156 16.871094 11.785156 C 16.90625 11.714844 16.929688 11.652344 16.957031 11.585938 C 16.957031 11.582031 16.960938 11.582031 16.960938 11.578125 C 16.960938 11.574219 16.960938 11.574219 16.964844 11.570312 C 16.992188 11.5 16.941406 11.460938 16.933594 11.457031 C 16.859375 11.417969 16.777344 11.378906 16.777344 11.378906 C 16.734375 11.355469 16.707031 11.382812 16.699219 11.414062 C 16.667969 11.492188 16.625 11.566406 16.605469 11.65625 C 16.601562 11.707031 16.605469 11.742188 16.605469 11.742188 C 16.503906 11.695312 16.46875 11.621094 16.46875 11.621094 C 16.492188 11.59375 16.523438 11.492188 16.523438 11.402344 C 16.527344 11.308594 16.53125 11.222656 16.488281 11.191406 C 16.445312 11.160156 16.371094 11.238281 16.332031 11.292969 C 16.296875 11.347656 16.285156 11.378906 16.285156 11.378906 L 16.285156 11.386719 C 16.109375 11.085938 16.132812 10.644531 16.109375 10.566406 C 16.085938 10.484375 15.984375 10.378906 15.984375 10.378906 C 15.984375 10.378906 15.925781 10.367188 15.855469 10.371094 Z M 25.609375 11.210938 C 25.609375 11.214844 25.527344 11.28125 25.398438 11.382812 C 25.339844 11.429688 25.28125 11.476562 25.210938 11.53125 C 24.453125 12.121094 22.875 13.179688 20.300781 13.632812 C 19.675781 13.746094 19.042969 13.804688 18.421875 13.832031 C 18.523438 13.9375 18.617188 14.042969 18.703125 14.148438 C 18.703125 14.148438 18.972656 14.128906 19.011719 14.125 C 19.476562 14.085938 19.945312 14.03125 20.40625 13.949219 C 21.546875 13.746094 22.410156 13.460938 22.820312 13.308594 C 22.917969 13.269531 23.007812 13.234375 23.097656 13.195312 C 25.113281 12.332031 25.597656 11.238281 25.609375 11.210938 Z M 12.28125 13.351562 C 12.132812 13.351562 11.984375 13.367188 11.835938 13.386719 C 11.707031 13.40625 11.582031 13.425781 11.460938 13.425781 C 11.429688 13.425781 11.402344 13.425781 11.375 13.421875 L 11.347656 13.417969 C 11.316406 13.410156 11.28125 13.402344 11.25 13.386719 C 11.25 13.394531 11.320312 13.6875 11.714844 13.6875 C 11.71875 13.683594 11.730469 13.65625 11.734375 13.652344 C 11.773438 13.582031 11.847656 13.515625 11.914062 13.476562 C 11.914062 13.476562 11.917969 13.476562 11.917969 13.472656 C 12.039062 13.402344 12.226562 13.359375 12.347656 13.351562 C 12.351562 13.351562 12.304688 13.351562 12.28125 13.351562 Z M 12.367188 13.351562 C 12.257812 13.375 12.136719 13.410156 12.050781 13.464844 C 11.949219 13.53125 11.886719 13.609375 11.851562 13.675781 C 12.179688 13.640625 12.796875 13.648438 12.953125 13.675781 C 12.953125 13.671875 12.957031 13.671875 12.957031 13.671875 C 13.046875 13.53125 13.179688 13.46875 13.277344 13.4375 C 13.117188 13.410156 12.925781 13.390625 12.761719 13.375 C 12.683594 13.367188 12.601562 13.363281 12.519531 13.359375 C 12.46875 13.355469 12.417969 13.355469 12.367188 13.351562 Z M 15.753906 13.644531 C 15.707031 13.699219 15.664062 13.753906 15.625 13.8125 C 15.578125 13.804688 15.535156 13.800781 15.488281 13.792969 C 15.484375 13.800781 15.480469 13.804688 15.476562 13.808594 C 15.4375 13.859375 15.402344 13.90625 15.367188 13.957031 C 15.355469 13.972656 15.34375 13.988281 15.332031 14.007812 C 15.382812 14.015625 15.4375 14.023438 15.488281 14.035156 C 15.4375 14.125 15.394531 14.222656 15.363281 14.324219 C 15.445312 14.335938 15.523438 14.347656 15.605469 14.359375 C 15.640625 14.265625 15.679688 14.171875 15.722656 14.082031 C 15.808594 14.101562 15.890625 14.121094 15.976562 14.140625 C 15.9375 14.226562 15.898438 14.316406 15.867188 14.410156 C 15.945312 14.425781 16.023438 14.445312 16.105469 14.464844 C 16.136719 14.375 16.171875 14.289062 16.207031 14.203125 C 16.289062 14.222656 16.371094 14.25 16.453125 14.273438 C 16.421875 14.359375 16.390625 14.449219 16.359375 14.539062 C 16.4375 14.5625 16.511719 14.585938 16.589844 14.613281 C 16.621094 14.523438 16.648438 14.4375 16.675781 14.347656 C 16.757812 14.375 16.839844 14.40625 16.917969 14.433594 C 16.894531 14.527344 16.867188 14.617188 16.835938 14.707031 C 16.914062 14.738281 16.988281 14.769531 17.0625 14.804688 C 17.089844 14.710938 17.117188 14.617188 17.136719 14.523438 C 17.21875 14.554688 17.296875 14.589844 17.375 14.625 C 17.355469 14.722656 17.332031 14.820312 17.300781 14.917969 C 17.371094 14.957031 17.445312 14.996094 17.515625 15.035156 C 17.550781 14.933594 17.574219 14.832031 17.59375 14.726562 C 17.640625 14.75 17.6875 14.769531 17.734375 14.792969 C 17.734375 14.777344 17.734375 14.757812 17.738281 14.742188 C 17.738281 14.679688 17.742188 14.621094 17.738281 14.5625 C 17.738281 14.550781 17.738281 14.539062 17.738281 14.53125 C 17.699219 14.507812 17.660156 14.484375 17.621094 14.464844 C 17.625 14.398438 17.625 14.328125 17.621094 14.261719 C 17.554688 14.222656 17.488281 14.1875 17.421875 14.15625 C 17.421875 14.222656 17.417969 14.289062 17.414062 14.359375 C 17.339844 14.324219 17.265625 14.289062 17.1875 14.253906 C 17.199219 14.1875 17.207031 14.121094 17.214844 14.054688 C 17.148438 14.023438 17.085938 13.996094 17.023438 13.96875 C 17.011719 14.035156 16.996094 14.101562 16.980469 14.167969 C 16.910156 14.140625 16.835938 14.109375 16.757812 14.085938 C 16.777344 14.019531 16.796875 13.953125 16.816406 13.890625 C 16.75 13.867188 16.6875 13.847656 16.621094 13.828125 C 16.597656 13.890625 16.574219 13.953125 16.550781 14.015625 C 16.472656 13.992188 16.394531 13.96875 16.320312 13.949219 C 16.347656 13.886719 16.378906 13.828125 16.410156 13.765625 C 16.339844 13.75 16.273438 13.734375 16.203125 13.71875 C 16.167969 13.777344 16.132812 13.835938 16.101562 13.898438 C 16.019531 13.878906 15.9375 13.863281 15.855469 13.847656 C 15.894531 13.789062 15.933594 13.730469 15.976562 13.675781 C 15.902344 13.664062 15.828125 13.652344 15.753906 13.644531 Z M 19.734375 15.566406 C 19.792969 15.648438 19.859375 15.785156 19.847656 15.949219 C 19.988281 16.019531 20.484375 16.382812 20.722656 16.605469 C 20.738281 16.53125 20.734375 16.429688 20.691406 16.320312 C 20.660156 16.226562 20.585938 16.121094 20.511719 16.042969 C 20.503906 16.035156 20.492188 16.027344 20.484375 16.023438 C 20.410156 15.96875 20.332031 15.917969 20.253906 15.871094 C 20.144531 15.800781 20.035156 15.738281 19.925781 15.671875 C 19.871094 15.644531 19.820312 15.613281 19.765625 15.585938 C 19.753906 15.578125 19.742188 15.574219 19.734375 15.566406 Z M 20.523438 16.050781 C 20.527344 16.054688 20.746094 16.28125 20.796875 16.40625 C 20.824219 16.476562 20.839844 16.5625 20.835938 16.636719 C 20.835938 16.660156 20.832031 16.675781 20.828125 16.695312 C 20.84375 16.707031 20.855469 16.714844 20.867188 16.726562 C 20.890625 16.738281 20.914062 16.75 20.9375 16.765625 C 20.972656 16.78125 21.011719 16.796875 21.050781 16.804688 C 21.082031 16.8125 21.113281 16.816406 21.144531 16.816406 C 21.230469 16.816406 21.308594 16.785156 21.378906 16.734375 L 21.378906 16.730469 C 21.347656 16.722656 21.316406 16.710938 21.285156 16.699219 C 21.253906 16.683594 21.21875 16.660156 21.1875 16.636719 C 21.148438 16.609375 21.023438 16.496094 20.996094 16.464844 C 20.953125 16.425781 20.914062 16.386719 20.875 16.347656 C 20.824219 16.296875 20.714844 16.199219 20.667969 16.164062 C 20.65625 16.15625 20.523438 16.050781 20.523438 16.050781 Z M 24.421875 18.460938 C 24.410156 18.464844 24.402344 18.46875 24.394531 18.472656 C 24.101562 18.5625 23.804688 18.640625 23.503906 18.710938 C 23.46875 18.761719 21.773438 21.253906 21.175781 22.070312 C 21.1875 22.085938 21.59375 22.425781 21.605469 22.433594 C 21.769531 22.21875 24.121094 18.910156 24.417969 18.460938 Z M 20.308594 22.84375 C 20.300781 22.851562 20.296875 22.863281 20.289062 22.871094 C 20.148438 23.082031 20.015625 23.296875 19.886719 23.511719 C 19.761719 23.71875 19.515625 24.179688 19.507812 24.199219 C 19.507812 24.210938 19.445312 24.554688 19.511719 24.824219 C 19.511719 24.824219 19.511719 24.820312 19.511719 24.820312 C 19.515625 24.816406 19.519531 24.808594 19.511719 24.824219 C 19.914062 23.953125 20.367188 23.367188 20.367188 23.367188 C 20.285156 23.128906 20.300781 22.886719 20.308594 22.84375 Z M 19.496094 24.222656 C 19.480469 24.257812 19.460938 24.292969 19.445312 24.328125 C 19.085938 25.101562 19.097656 25.65625 18.746094 25.960938 C 18.746094 25.960938 18.753906 25.964844 18.769531 25.964844 C 18.863281 25.976562 19.21875 25.964844 19.402344 25.132812 C 19.390625 25.085938 19.378906 25.039062 19.375 24.988281 C 19.34375 24.746094 19.417969 24.417969 19.496094 24.226562 C 19.496094 24.226562 19.496094 24.222656 19.496094 24.222656 Z M 19.496094 24.222656 "/>
<path style=" stroke:none;fill-rule:evenodd;fill:rgb(69.411765%,72.941176%,74.901961%);fill-opacity:1;" d="M 18.164062 5.265625 C 16.65625 5.269531 16.226562 6.375 16.164062 6.628906 C 16.097656 6.898438 16.097656 7.238281 16.082031 7.390625 C 16.082031 7.390625 16.371094 7.351562 16.640625 7.242188 C 16.648438 7.144531 16.632812 6.976562 16.636719 6.734375 C 16.644531 6.402344 17.003906 5.027344 18.863281 5.339844 L 18.855469 5.335938 C 18.792969 5.324219 18.730469 5.3125 18.667969 5.300781 C 18.488281 5.277344 18.320312 5.265625 18.164062 5.265625 Z M 20.078125 5.71875 C 20.171875 5.761719 20.265625 5.8125 20.363281 5.871094 C 20.375 5.875 20.382812 5.882812 20.394531 5.886719 C 20.398438 5.886719 20.398438 5.890625 20.402344 5.890625 C 21.160156 6.347656 21.367188 6.898438 21.367188 7.359375 C 21.367188 7.761719 21.207031 8.089844 21.117188 8.210938 C 20.996094 8.382812 20.882812 8.496094 20.824219 8.582031 C 20.929688 8.769531 21.070312 8.933594 21.171875 9.046875 C 21.261719 8.90625 21.460938 8.660156 21.5625 8.410156 C 21.675781 8.128906 22.105469 6.671875 20.15625 5.75 Z M 11.261719 6.472656 C 11.261719 6.472656 11.25 6.507812 11.25 6.507812 C 11.164062 6.753906 11.132812 7.019531 11.117188 7.277344 C 11.09375 7.714844 11.136719 8.152344 11.230469 8.578125 C 11.328125 9.03125 11.488281 9.464844 11.683594 9.886719 C 11.882812 10.316406 12.128906 10.726562 12.402344 11.113281 C 12.742188 11.59375 13.128906 12.039062 13.546875 12.449219 C 13.726562 12.625 13.914062 12.796875 14.101562 12.960938 C 14.125 12.984375 14.316406 13.167969 14.335938 13.160156 C 14.453125 13.105469 14.582031 13.054688 14.722656 13.007812 L 14.664062 12.957031 C 12.777344 11.3125 12.054688 9.5625 12.054688 9.5625 L 12.058594 9.566406 C 11.054688 7.75 11.261719 6.472656 11.261719 6.472656 Z M 17.121094 7.363281 C 17.097656 7.363281 17.078125 7.363281 17.054688 7.371094 C 17.054688 7.378906 17.496094 7.636719 17.734375 7.882812 C 17.964844 8.140625 18.324219 8.46875 18.542969 8.535156 C 18.757812 8.609375 19.246094 8.566406 19.585938 8.492188 C 19.929688 8.4375 20.441406 8.496094 20.441406 8.488281 C 20.230469 8.230469 19.511719 8.304688 19.105469 8.324219 C 18.757812 8.351562 18.652344 8.296875 18.625 8.289062 C 18.601562 8.28125 18.488281 8.261719 18.222656 8.03125 C 17.929688 7.792969 17.449219 7.351562 17.121094 7.363281 Z M 16.449219 7.707031 C 16.449219 7.707031 16.179688 8.191406 16.15625 8.4375 C 16.132812 8.691406 16.117188 8.921875 16.394531 9.105469 C 16.386719 9.09375 16.277344 8.945312 16.414062 8.867188 C 16.417969 8.863281 16.425781 8.859375 16.429688 8.855469 C 16.433594 8.851562 16.441406 8.847656 16.445312 8.84375 C 16.449219 8.84375 16.398438 8.757812 16.394531 8.75 C 16.316406 8.5625 16.335938 8.332031 16.382812 8.144531 C 16.398438 8.089844 16.414062 8.035156 16.4375 7.984375 C 16.4375 7.984375 16.519531 7.800781 16.472656 7.730469 C 16.464844 7.722656 16.460938 7.714844 16.453125 7.710938 Z M 15.617188 8.507812 C 15.617188 8.507812 15.601562 8.671875 15.601562 8.835938 C 15.601562 8.902344 15.601562 8.96875 15.609375 9.027344 C 15.613281 9.054688 15.621094 9.078125 15.625 9.101562 C 15.675781 9.277344 15.683594 9.386719 16.066406 9.554688 C 16.199219 9.609375 16.328125 9.671875 16.453125 9.742188 C 16.640625 9.84375 16.84375 9.96875 16.921875 10.175781 C 16.921875 10.179688 16.921875 10.179688 16.921875 10.183594 C 16.945312 10.234375 16.945312 10.300781 16.929688 10.355469 C 16.929688 10.347656 16.929688 10.339844 16.921875 10.328125 C 16.90625 10.296875 16.875 10.273438 16.859375 10.242188 C 16.859375 10.242188 16.855469 10.242188 16.855469 10.238281 C 16.8125 10.191406 16.769531 10.148438 16.714844 10.113281 L 16.714844 10.117188 L 16.714844 10.113281 C 16.714844 10.113281 16.675781 10.253906 16.609375 10.355469 C 16.574219 10.414062 16.535156 10.480469 16.496094 10.570312 C 16.496094 10.570312 16.496094 10.574219 16.496094 10.574219 C 16.414062 10.777344 16.507812 10.992188 16.527344 10.992188 C 16.554688 10.992188 16.609375 10.96875 16.710938 10.683594 C 16.714844 10.679688 16.71875 10.664062 16.722656 10.652344 C 16.726562 10.636719 16.71875 10.613281 16.714844 10.59375 C 16.714844 10.59375 16.714844 10.589844 16.714844 10.589844 C 16.726562 10.542969 16.789062 10.546875 16.828125 10.550781 C 16.839844 10.550781 16.851562 10.554688 16.863281 10.558594 C 16.886719 10.5 16.917969 10.425781 16.929688 10.359375 C 16.972656 10.203125 16.96875 9.980469 16.78125 9.769531 C 16.597656 9.5625 16.117188 9.40625 15.9375 9.316406 C 15.757812 9.230469 15.597656 8.800781 15.617188 8.507812 Z M 18.085938 8.585938 C 18.085938 8.585938 17.972656 8.753906 17.898438 8.847656 C 17.824219 8.945312 17.511719 9.285156 17.273438 9.261719 C 17.273438 9.269531 17.269531 9.347656 17.109375 9.449219 C 17.109375 9.449219 17.382812 9.535156 17.585938 9.425781 C 17.792969 9.3125 18.0625 8.808594 18.410156 8.917969 C 18.753906 9.035156 18.660156 9.601562 18.753906 9.808594 C 18.847656 10.011719 19.101562 10.105469 19.117188 10.113281 C 19.054688 9.925781 19.105469 9.863281 19.105469 9.863281 C 18.898438 9.746094 18.859375 9.285156 18.855469 9.164062 C 18.855469 9.046875 18.871094 8.847656 18.871094 8.84375 C 18.71875 8.921875 18.15625 8.738281 18.085938 8.585938 Z M 20.710938 9.117188 C 20.699219 9.117188 20.691406 9.117188 20.683594 9.121094 C 20.597656 9.148438 20.554688 9.34375 20.554688 9.34375 C 20.539062 9.402344 20.519531 9.460938 20.496094 9.515625 C 20.441406 9.640625 20.363281 9.765625 20.265625 9.863281 C 20.191406 9.941406 20.113281 9.976562 20.023438 10.027344 C 20.023438 10.039062 20.027344 10.050781 20.03125 10.058594 C 20.09375 10.210938 19.898438 10.265625 19.898438 10.265625 C 20.234375 10.28125 20.363281 10.085938 20.5 9.871094 C 20.632812 9.660156 20.714844 9.117188 20.714844 9.117188 Z M 18.152344 9.273438 C 18.042969 9.28125 17.945312 9.34375 17.910156 9.441406 C 17.882812 9.523438 17.835938 9.574219 17.777344 9.640625 L 17.773438 9.644531 C 17.726562 9.699219 17.691406 9.71875 17.648438 9.75 C 17.605469 9.773438 17.542969 9.820312 17.519531 9.894531 L 17.484375 9.996094 C 17.4375 10.132812 17.53125 10.285156 17.6875 10.339844 C 17.6875 10.339844 17.617188 10.253906 17.652344 10.152344 C 17.652344 10.152344 17.652344 10.148438 17.65625 10.148438 C 17.609375 10.101562 17.585938 10.039062 17.609375 9.976562 L 17.644531 9.871094 C 17.679688 9.761719 17.777344 9.769531 17.886719 9.632812 C 17.949219 9.566406 18.007812 9.5 18.046875 9.394531 C 18.074219 9.308594 18.171875 9.261719 18.269531 9.285156 C 18.230469 9.273438 18.191406 9.269531 18.152344 9.273438 Z M 18.304688 9.296875 C 18.394531 9.335938 18.441406 9.429688 18.414062 9.515625 C 18.375 9.621094 18.382812 9.707031 18.390625 9.800781 C 18.394531 9.976562 18.476562 10.023438 18.441406 10.132812 L 18.402344 10.238281 C 18.382812 10.300781 18.324219 10.339844 18.257812 10.347656 C 18.257812 10.351562 18.257812 10.351562 18.257812 10.351562 C 18.222656 10.453125 18.117188 10.480469 18.117188 10.480469 C 18.273438 10.535156 18.441406 10.464844 18.488281 10.328125 L 18.523438 10.226562 C 18.550781 10.152344 18.527344 10.078125 18.511719 10.035156 C 18.492188 9.984375 18.476562 9.949219 18.472656 9.875 L 18.472656 9.871094 C 18.46875 9.78125 18.460938 9.714844 18.488281 9.632812 C 18.53125 9.5 18.449219 9.355469 18.304688 9.296875 Z M 15.804688 9.628906 C 15.804688 9.628906 15.804688 9.632812 15.804688 9.632812 C 15.789062 9.6875 15.683594 10.128906 15.65625 10.34375 C 15.632812 10.570312 15.667969 10.683594 15.710938 10.816406 C 15.753906 10.949219 15.957031 11.515625 16.007812 11.671875 C 16.011719 11.6875 16.019531 11.714844 16.027344 11.742188 C 16.082031 11.9375 16.175781 12.320312 16.363281 12.519531 C 16.578125 12.746094 16.785156 12.847656 17.042969 12.933594 C 17.046875 12.933594 17.046875 12.933594 17.046875 12.933594 C 17.175781 12.976562 17.296875 13.007812 17.421875 13.023438 C 17.550781 13.035156 17.683594 13.035156 17.839844 13.007812 C 18.152344 12.953125 18.511719 12.636719 18.644531 12.542969 C 18.78125 12.449219 19.292969 12.117188 19.40625 12.035156 C 19.523438 11.957031 19.621094 11.886719 19.738281 11.691406 C 19.855469 11.492188 20.058594 11.035156 20.058594 11.035156 C 20.058594 11.035156 19.867188 10.996094 19.800781 10.988281 C 19.800781 10.988281 19.800781 10.988281 19.796875 10.992188 C 19.769531 11.042969 19.539062 11.441406 19.457031 11.527344 C 19.457031 11.527344 19.453125 11.527344 19.449219 11.527344 C 19.5 11.554688 19.644531 11.644531 19.671875 11.75 C 19.671875 11.75 19.425781 11.972656 19.125 12.105469 C 18.820312 12.234375 18.363281 12.519531 18.183594 12.636719 C 18.117188 12.679688 18.023438 12.71875 17.90625 12.742188 C 17.832031 12.613281 17.578125 12.453125 17.253906 12.347656 C 16.914062 12.234375 16.597656 12.210938 16.472656 12.28125 C 16.378906 12.1875 16.320312 12.09375 16.292969 12.011719 C 16.222656 11.8125 16.03125 11.3125 15.871094 11.03125 C 15.710938 10.746094 15.652344 10.425781 15.652344 10.425781 C 15.753906 10.339844 15.984375 10.378906 15.984375 10.378906 C 15.980469 10.363281 15.980469 10.34375 15.980469 10.316406 C 15.984375 10.148438 16.03125 9.800781 16.035156 9.75 C 16.039062 9.746094 16.039062 9.746094 16.039062 9.746094 C 15.984375 9.714844 15.804688 9.628906 15.804688 9.628906 Z M 20.835938 10.335938 C 20.648438 10.554688 20.324219 10.738281 20.148438 10.707031 C 19.953125 10.671875 19.476562 10.511719 19.199219 10.570312 C 18.96875 10.613281 18.832031 10.742188 18.757812 10.871094 C 18.757812 10.871094 18.757812 10.867188 18.761719 10.867188 C 18.917969 10.691406 19.195312 10.699219 19.402344 10.726562 C 19.566406 10.746094 19.730469 10.777344 19.890625 10.816406 C 20.300781 10.914062 20.375 10.828125 20.523438 10.71875 C 20.648438 10.625 20.753906 10.480469 20.832031 10.34375 C 20.832031 10.34375 20.832031 10.339844 20.835938 10.335938 Z M 19.03125 10.878906 C 18.824219 10.867188 18.707031 10.949219 18.707031 10.949219 C 18.699219 10.964844 18.648438 11.0625 18.632812 11.183594 C 18.632812 11.1875 18.714844 11.21875 18.730469 11.230469 C 18.742188 11.238281 18.765625 11.246094 18.773438 11.257812 C 18.792969 11.285156 18.796875 11.296875 18.796875 11.296875 C 18.777344 11.300781 18.761719 11.304688 18.742188 11.304688 C 18.730469 11.304688 18.683594 11.320312 18.683594 11.335938 C 18.59375 11.625 18.621094 11.675781 18.640625 11.6875 C 18.660156 11.699219 18.863281 11.585938 18.925781 11.375 C 18.925781 11.375 18.957031 11.203125 18.964844 11.132812 C 18.976562 11.023438 19.027344 10.894531 19.03125 10.878906 Z M 25.609375 11.210938 C 25.597656 11.238281 25.113281 12.332031 23.097656 13.195312 L 23.085938 13.203125 C 23.085938 13.203125 21.410156 14.1875 18.863281 14.367188 C 18.945312 14.484375 19.015625 14.601562 19.078125 14.71875 C 19.867188 14.675781 20.671875 14.566406 21.429688 14.359375 C 21.914062 14.226562 22.390625 14.058594 22.84375 13.847656 C 23.300781 13.636719 23.75 13.378906 24.144531 13.066406 C 24.402344 12.863281 24.644531 12.640625 24.867188 12.398438 C 25.171875 12.066406 25.449219 11.671875 25.597656 11.246094 C 25.597656 11.246094 25.609375 11.210938 25.609375 11.210938 Z M 13.730469 12.796875 C 13.726562 12.796875 13.722656 12.796875 13.714844 12.800781 C 13.695312 12.804688 13.679688 12.824219 13.6875 12.855469 C 13.691406 12.890625 13.726562 12.988281 13.675781 13.136719 C 13.625 13.285156 13.511719 13.378906 13.402344 13.429688 C 13.289062 13.476562 13.152344 13.585938 13.113281 13.765625 C 13.074219 13.941406 12.976562 14.175781 13.003906 14.332031 C 13.015625 14.390625 13.074219 14.472656 13.210938 14.464844 C 13.117188 14.542969 13.027344 14.535156 12.957031 14.503906 C 12.84375 14.707031 12.675781 14.792969 12.363281 14.734375 C 12.046875 14.671875 11.648438 14.375 11.5625 13.871094 C 11.5625 13.859375 11.667969 13.859375 11.714844 13.859375 L 11.730469 13.859375 C 11.714844 13.835938 11.695312 13.800781 11.691406 13.761719 C 11.691406 13.742188 11.699219 13.714844 11.714844 13.6875 C 11.320312 13.6875 11.25 13.394531 11.25 13.386719 C 11.25 13.386719 11.125 13.488281 11.117188 13.65625 C 11.105469 13.585938 11.050781 13.527344 10.972656 13.519531 C 10.878906 13.503906 10.789062 13.566406 10.777344 13.660156 C 10.761719 13.753906 10.828125 13.84375 10.921875 13.855469 C 11.015625 13.871094 11.105469 13.804688 11.121094 13.710938 C 11.121094 13.710938 11.121094 13.707031 11.121094 13.707031 C 11.125 13.726562 11.128906 13.746094 11.132812 13.769531 C 11.148438 13.828125 11.171875 13.871094 11.195312 13.902344 C 11.25 13.980469 11.3125 13.988281 11.3125 13.988281 C 11.3125 13.992188 11.320312 13.980469 11.320312 13.980469 C 11.324219 13.972656 11.359375 13.9375 11.363281 13.941406 C 11.324219 13.914062 11.15625 13.789062 11.257812 13.511719 C 11.257812 13.511719 11.25 13.761719 11.460938 13.894531 C 11.484375 13.996094 11.648438 14.613281 12.265625 14.808594 C 12.933594 15.015625 13.195312 14.703125 13.253906 14.582031 C 13.28125 14.527344 13.351562 14.359375 13.351562 14.359375 C 13.410156 14.195312 13.554688 13.558594 13.613281 13.484375 C 13.667969 13.410156 13.832031 13.109375 13.765625 12.835938 C 13.765625 12.835938 13.753906 12.800781 13.730469 12.796875 Z M 12.464844 13.652344 C 12.25 13.652344 12.015625 13.660156 11.851562 13.675781 C 11.835938 13.710938 11.824219 13.742188 11.824219 13.769531 C 11.824219 13.804688 11.84375 13.839844 11.859375 13.863281 C 11.859375 13.863281 12.457031 13.894531 12.835938 13.996094 C 12.847656 13.945312 12.867188 13.878906 12.894531 13.800781 C 12.910156 13.75 12.933594 13.707031 12.957031 13.671875 C 12.957031 13.671875 12.953125 13.671875 12.953125 13.675781 C 12.875 13.660156 12.679688 13.652344 12.464844 13.652344 Z M 19.753906 14.789062 C 19.734375 14.78125 19.710938 14.796875 19.710938 14.796875 C 19.488281 14.976562 19.4375 15.316406 19.4375 15.40625 C 19.4375 15.5 19.160156 16.097656 19.109375 16.261719 C 19.105469 16.269531 19.058594 16.410156 19.046875 16.496094 C 19.03125 16.628906 19.035156 17.03125 19.699219 17.261719 C 20.308594 17.472656 20.816406 17.078125 20.898438 17.007812 C 21.070312 17.019531 21.191406 16.933594 21.253906 16.875 C 21.28125 16.847656 21.296875 16.828125 21.296875 16.828125 C 21.230469 17.039062 21.09375 17.089844 21.011719 17.101562 C 20.984375 17.105469 20.960938 17.105469 20.949219 17.105469 C 20.953125 17.109375 20.953125 17.117188 20.953125 17.121094 C 20.964844 17.15625 20.960938 17.175781 20.960938 17.175781 C 20.960938 17.175781 20.980469 17.1875 21.015625 17.1875 C 21.0625 17.191406 21.140625 17.179688 21.238281 17.105469 C 21.257812 17.09375 21.269531 17.078125 21.28125 17.066406 C 21.246094 17.144531 21.273438 17.242188 21.355469 17.285156 C 21.4375 17.328125 21.542969 17.300781 21.589844 17.21875 C 21.632812 17.136719 21.601562 17.03125 21.519531 16.988281 C 21.457031 16.953125 21.382812 16.960938 21.332031 17 C 21.382812 16.917969 21.390625 16.835938 21.386719 16.78125 C 21.386719 16.773438 21.378906 16.734375 21.378906 16.734375 C 21.308594 16.785156 21.230469 16.816406 21.140625 16.816406 C 21.113281 16.816406 21.082031 16.8125 21.050781 16.804688 C 21.011719 16.796875 20.972656 16.78125 20.9375 16.765625 C 20.914062 16.75 20.890625 16.738281 20.867188 16.726562 C 20.855469 16.714844 20.839844 16.707031 20.828125 16.695312 C 20.820312 16.726562 20.808594 16.753906 20.796875 16.769531 C 20.773438 16.796875 20.734375 16.816406 20.707031 16.824219 C 20.75 16.859375 20.796875 16.890625 20.835938 16.929688 C 20.457031 17.285156 19.957031 17.285156 19.664062 17.144531 C 19.382812 17.007812 19.296875 16.839844 19.335938 16.605469 C 19.257812 16.589844 19.183594 16.542969 19.15625 16.429688 C 19.160156 16.429688 19.160156 16.429688 19.164062 16.433594 C 19.230469 16.484375 19.335938 16.503906 19.402344 16.441406 C 19.460938 16.386719 19.507812 16.296875 19.550781 16.199219 C 19.585938 16.109375 19.621094 16.015625 19.664062 15.925781 C 19.679688 15.890625 19.691406 15.851562 19.699219 15.8125 C 19.71875 15.703125 19.695312 15.585938 19.640625 15.488281 C 19.578125 15.382812 19.546875 15.238281 19.597656 15.089844 C 19.652344 14.941406 19.738281 14.886719 19.761719 14.863281 C 19.789062 14.839844 19.785156 14.816406 19.773438 14.800781 C 19.765625 14.792969 19.761719 14.789062 19.753906 14.785156 Z M 19.847656 15.949219 C 19.847656 15.949219 19.832031 16.035156 19.816406 16.085938 C 19.789062 16.164062 19.761719 16.226562 19.742188 16.277344 C 20.078125 16.425781 20.394531 16.609375 20.601562 16.75 C 20.632812 16.738281 20.664062 16.722656 20.6875 16.695312 C 20.703125 16.675781 20.714844 16.644531 20.722656 16.605469 C 20.484375 16.382812 19.988281 16.023438 19.847656 15.949219 Z M 25.539062 18.0625 C 25.324219 18.148438 25.113281 18.234375 24.890625 18.308594 C 24.261719 19.285156 22.109375 22.429688 21.921875 22.691406 C 22.039062 22.789062 22.140625 22.875 22.222656 22.945312 C 22.226562 22.949219 22.230469 22.953125 22.234375 22.957031 C 22.785156 22.171875 25.113281 18.726562 25.539062 18.0625 Z M 19.6875 21.644531 C 19.664062 21.644531 19.617188 21.648438 19.605469 21.695312 C 19.601562 21.734375 19.617188 21.769531 19.675781 21.785156 C 19.734375 21.796875 19.914062 21.816406 20.117188 22.003906 C 20.320312 22.191406 20.390625 22.4375 20.386719 22.648438 C 20.382812 22.855469 20.457031 23.148438 20.714844 23.339844 C 20.972656 23.527344 21.277344 23.847656 21.542969 23.921875 C 21.558594 23.925781 21.578125 23.929688 21.59375 23.929688 C 21.769531 23.945312 21.9375 23.789062 21.910156 23.699219 C 21.96875 23.890625 21.917969 24.03125 21.828125 24.128906 C 22.125 24.417969 22.269531 24.746094 22.175781 25.039062 C 22.058594 25.417969 21.628906 25.929688 20.839844 25.917969 C 20.277344 25.914062 19.949219 25.757812 19.804688 25.671875 C 19.804688 25.667969 19.855469 25.5625 19.855469 25.554688 C 19.527344 25.632812 19.40625 25.15625 19.402344 25.132812 C 19.21875 25.964844 18.863281 25.976562 18.769531 25.964844 C 18.753906 25.964844 18.746094 25.960938 18.746094 25.960938 C 18.746094 25.960938 18.816406 26.234375 19.089844 26.363281 C 18.964844 26.324219 18.828125 26.371094 18.75 26.484375 C 18.660156 26.621094 18.695312 26.808594 18.835938 26.898438 C 18.976562 26.988281 19.167969 26.953125 19.257812 26.8125 C 19.351562 26.675781 19.3125 26.488281 19.171875 26.398438 C 19.167969 26.394531 19.160156 26.390625 19.152344 26.386719 C 19.191406 26.402344 19.226562 26.414062 19.273438 26.421875 C 19.636719 26.480469 19.757812 26.308594 19.757812 26.308594 C 19.757812 26.308594 19.734375 26.257812 19.714844 26.1875 C 19.714844 26.1875 19.355469 26.4375 18.953125 26.039062 C 18.96875 26.046875 19.101562 26.089844 19.328125 26.054688 C 19.667969 26.003906 19.714844 25.898438 19.734375 25.878906 C 19.738281 25.875 19.738281 25.875 19.738281 25.871094 C 20.03125 26.027344 20.355469 26.101562 20.816406 26.109375 C 21.335938 26.121094 21.832031 25.960938 22.125 25.710938 C 22.414062 25.460938 22.757812 24.929688 22.628906 24.371094 C 22.523438 23.902344 21.914062 23.445312 21.777344 23.34375 C 21.476562 23.082031 20.703125 22.488281 20.628906 22.359375 C 20.550781 22.21875 20.191406 21.742188 19.699219 21.644531 C 19.699219 21.644531 19.695312 21.644531 19.6875 21.644531 Z M 20.367188 23.367188 C 20.367188 23.367188 19.914062 23.953125 19.511719 24.824219 C 19.523438 24.867188 19.535156 24.90625 19.554688 24.945312 C 19.679688 25.207031 19.789062 25.277344 20.007812 25.265625 C 20.007812 25.265625 20.519531 24.402344 20.882812 23.941406 C 20.808594 23.882812 20.71875 23.804688 20.613281 23.707031 C 20.492188 23.597656 20.417969 23.480469 20.367188 23.367188 Z M 21.25 24.4375 C 21.109375 24.617188 20.945312 24.863281 20.816406 25.074219 C 20.757812 25.167969 20.707031 25.253906 20.664062 25.324219 C 20.710938 25.328125 20.757812 25.332031 20.804688 25.332031 C 20.957031 25.332031 21.113281 25.308594 21.234375 25.261719 C 21.398438 25.199219 21.582031 24.972656 21.574219 24.816406 C 21.574219 24.777344 21.566406 24.746094 21.546875 24.710938 C 21.484375 24.574219 21.347656 24.484375 21.25 24.4375 Z M 21.25 24.4375 "/>
<path style=" stroke:none;fill-rule:evenodd;fill:rgb(0%,0%,0%);fill-opacity:1;" d="M 18.046875 9.394531 C 18.074219 9.308594 18.171875 9.261719 18.265625 9.285156 C 18.273438 9.285156 18.277344 9.289062 18.285156 9.289062 C 18.289062 9.292969 18.296875 9.292969 18.304688 9.296875 C 18.394531 9.335938 18.441406 9.429688 18.414062 9.515625 C 18.375 9.621094 18.382812 9.707031 18.390625 9.796875 C 18.394531 9.972656 18.476562 10.023438 18.4375 10.132812 L 18.402344 10.238281 C 18.382812 10.300781 18.324219 10.339844 18.257812 10.347656 C 18.226562 10.351562 18.195312 10.351562 18.160156 10.34375 C 18.0625 10.308594 18.003906 10.207031 18.035156 10.117188 C 18.039062 10.101562 18.03125 10.082031 18.015625 10.078125 C 18 10.074219 17.980469 10.082031 17.976562 10.097656 C 17.945312 10.1875 17.835938 10.234375 17.734375 10.199219 C 17.703125 10.191406 17.675781 10.171875 17.65625 10.148438 C 17.609375 10.101562 17.585938 10.035156 17.609375 9.976562 L 17.644531 9.871094 C 17.679688 9.761719 17.777344 9.769531 17.886719 9.632812 C 17.949219 9.566406 18.007812 9.5 18.046875 9.394531 Z M 18.046875 9.394531 "/>
<path style=" stroke:none;fill-rule:evenodd;fill:rgb(76.078431%,14.117647%,16.862745%);fill-opacity:1;" d="M 18.800781 15.730469 C 18.28125 16.050781 17.117188 16.351562 16 15.980469 C 14.898438 15.617188 14.171875 14.695312 13.9375 14.132812 C 13.910156 14.074219 13.902344 13.914062 14.0625 13.84375 C 14.0625 13.84375 13.960938 13.855469 13.871094 13.929688 C 13.871094 13.929688 13.863281 13.941406 13.851562 13.964844 C 13.730469 14.328125 14.476562 15.863281 15.878906 16.328125 C 17.289062 16.792969 18.808594 16.050781 18.945312 15.648438 C 18.957031 15.617188 18.957031 15.59375 18.957031 15.59375 C 18.925781 15.496094 18.863281 15.433594 18.863281 15.433594 C 18.941406 15.582031 18.863281 15.6875 18.800781 15.730469 "/>
</g>
</svg>
