<?xml version="1.0" encoding="UTF-8"?>
<svg xmlns="http://www.w3.org/2000/svg" xmlns:xlink="http://www.w3.org/1999/xlink" width="32px" height="32px" viewBox="0 0 32 21" version="1.1">
<g id="surface1">
<path style=" stroke:none;fill-rule:nonzero;fill:rgb(100%,100%,100%);fill-opacity:1;" d="M 3.382812 14.949219 C 5.609375 13.550781 6.3125 11.972656 6.3125 11.972656 L 0 12.863281 L 2.683594 8.175781 L 8.070312 7.730469 C 8.070312 7.730469 10.167969 5.886719 13.414062 4.566406 C 13.414062 4.566406 13.75 3.988281 15.605469 2.9375 C 15.605469 2.9375 17.304688 1.949219 19.242188 1.320312 C 19.242188 1.320312 20.554688 0.875 20.941406 0.855469 L 20.828125 0.441406 L 23.300781 0.234375 L 23.363281 0 C 23.363281 0 24.65625 0.0859375 25.398438 0.410156 L 25.542969 0.21875 C 25.542969 0.21875 27.269531 1 28.558594 2.921875 C 28.558594 2.921875 29.804688 2.851562 30.921875 3.378906 C 30.921875 3.378906 32.105469 3.84375 32.050781 5.195312 C 32.050781 5.195312 32.042969 6.921875 31.519531 8.632812 C 31.519531 8.632812 31.441406 8.898438 31.363281 9.058594 C 31.363281 9.058594 31.257812 9.277344 31.046875 9.550781 C 31.046875 9.550781 30.460938 10.144531 30.234375 10.667969 C 30.234375 10.667969 30.109375 11.015625 29.863281 11.648438 C 29.863281 11.648438 29.675781 12.519531 28.394531 12.566406 C 28.394531 12.566406 27.144531 14.121094 26.625 14.570312 L 26.578125 14.191406 C 26.578125 14.191406 25.707031 14.984375 24.953125 15.457031 L 25.207031 13.253906 C 25.207031 13.253906 25.269531 12.859375 25.015625 12.832031 L 24.363281 12.816406 C 24.363281 12.816406 24.578125 14.140625 24.320312 14.753906 C 24.320312 14.753906 24.15625 15.714844 22.640625 16.175781 C 22.640625 16.175781 21.46875 16.542969 20.128906 16.644531 L 19.839844 16.597656 L 17.730469 17.449219 L 18.34375 15.273438 C 18.34375 15.273438 17.554688 15.351562 17.488281 15.253906 L 15.136719 16.246094 L 16.058594 13.640625 L 16.691406 13.296875 L 16.492188 13.023438 L 15.191406 13.035156 L 14.714844 13.402344 C 13.609375 13.121094 12.539062 13.195312 12.539062 13.195312 L 7.078125 17.558594 L 5.707031 20.535156 L 4.074219 18.386719 L 4.585938 17.726562 L 4.390625 17.582031 L 3.652344 18.15625 L 2.554688 21.0625 L 0.9375 18.820312 L 1.355469 17.910156 L 1.261719 17.351562 C 1.742188 17.039062 2.054688 16.828125 2.296875 16.558594 C 2.429688 16.390625 2.503906 16.332031 2.65625 16.050781 C 2.800781 15.703125 2.808594 15.328125 2.96875 15.210938 C 3.171875 15.074219 3.328125 14.984375 3.382812 14.949219 "/>
<path style=" stroke:none;fill-rule:nonzero;fill:rgb(77.647059%,4.705882%,23.921569%);fill-opacity:1;" d="M 2.988281 8.644531 L 0.902344 12.269531 L 27.84375 8.316406 C 27.84375 8.316406 26.90625 7.613281 28.261719 6.507812 L 2.988281 8.644531 "/>
<path style=" stroke:none;fill-rule:nonzero;fill:rgb(0%,20%,55.294118%);fill-opacity:1;" d="M 30.335938 6 C 30.335938 6 28.234375 7.417969 28.964844 8.636719 C 28.964844 8.636719 28.199219 9.054688 29.042969 9.640625 C 29.042969 9.640625 27.738281 10.21875 28.085938 8.632812 L 6.902344 11.789062 C 6.902344 11.789062 6.449219 13.675781 3.445312 15.464844 C 3.445312 15.464844 3.226562 15.589844 3.207031 15.828125 C 3.207031 15.828125 3.226562 16.125 2.953125 16.484375 C 2.953125 16.484375 2.613281 17.066406 1.828125 17.558594 L 1.886719 17.945312 L 1.519531 18.777344 L 2.417969 20.046875 L 3.234375 17.882812 L 4.84375 16.667969 C 4.84375 16.667969 6.421875 14.234375 9.015625 13.285156 C 9.015625 13.285156 11.304688 12.324219 14.648438 12.867188 L 14.953125 12.578125 L 18.820312 12.496094 C 18.820312 12.496094 18.96875 12.527344 18.871094 12.605469 C 18.871094 12.605469 18.109375 13.183594 17.273438 13.257812 L 17.351562 13.492188 C 17.351562 13.492188 17.375 13.574219 17.3125 13.59375 L 16.5 13.910156 L 15.964844 15.371094 L 17.484375 14.722656 L 17.570312 14.785156 C 17.570312 14.785156 18.894531 14.863281 20.886719 14.46875 C 20.886719 14.46875 22.265625 14.199219 22.652344 12.4375 L 25.28125 12.324219 C 25.28125 12.324219 25.828125 12.441406 25.757812 12.941406 L 25.570312 14.40625 L 26.773438 13.351562 L 26.855469 13.628906 C 26.855469 13.628906 27.769531 12.660156 28 12.101562 C 28 12.101562 29 12.121094 29.25 11.726562 C 29.25 11.726562 29.359375 11.613281 29.679688 10.746094 C 29.679688 10.746094 29.832031 10.136719 30.449219 9.539062 C 30.449219 9.539062 30.925781 9.097656 31.191406 7.941406 C 31.191406 7.941406 31.511719 6.261719 31.511719 5.945312 C 31.511719 5.945312 31.855469 4.285156 30.699219 3.796875 C 30.699219 3.796875 29.84375 3.328125 28.234375 3.457031 C 28.234375 3.457031 27.914062 2.355469 25.699219 0.847656 L 25.539062 1.082031 C 25.539062 1.082031 24.78125 0.570312 23.707031 0.582031 L 23.65625 0.730469 C 23.65625 0.730469 23.003906 0.722656 21.582031 0.871094 L 21.714844 1.257812 C 21.714844 1.257812 18.785156 1.390625 14.628906 4.128906 L 14.554688 4.355469 L 14.023438 4.597656 L 14.304688 4.75 C 14.304688 4.75 11.132812 5.878906 8.820312 7.742188 L 30.335938 6 "/>
<path style=" stroke:none;fill-rule:nonzero;fill:rgb(0%,20%,55.294118%);fill-opacity:1;" d="M 22.914062 12.761719 L 23.824219 12.753906 C 23.824219 12.753906 24.007812 13.933594 23.898438 14.460938 C 23.898438 14.460938 23.71875 15.246094 22.90625 15.550781 C 22.90625 15.550781 21.710938 16.050781 19.917969 16.160156 L 19.832031 16.089844 L 18.46875 16.652344 L 18.917969 15.097656 C 18.917969 15.097656 20.738281 14.957031 21.289062 14.796875 C 21.289062 14.796875 22.703125 14.523438 22.914062 12.761719 "/>
<path style=" stroke:none;fill-rule:nonzero;fill:rgb(0%,20%,55.294118%);fill-opacity:1;" d="M 11.71875 13.226562 C 11.71875 13.226562 8.492188 13.1875 6.285156 15.75 C 6.285156 15.75 6.277344 16.679688 5.132812 17.308594 L 5.175781 17.601562 L 4.632812 18.339844 L 5.597656 19.613281 L 6.683594 17.242188 L 11.71875 13.226562 "/>
</g>
</svg>
