<?xml version="1.0" encoding="UTF-8"?>
<svg xmlns="http://www.w3.org/2000/svg" xmlns:xlink="http://www.w3.org/1999/xlink" width="32px" height="32px" viewBox="0 0 32 17" version="1.1">
<g id="surface1">
<path style="fill-rule:nonzero;fill:rgb(0%,0%,0%);fill-opacity:1;stroke-width:1;stroke-linecap:butt;stroke-linejoin:miter;stroke:rgb(0%,0%,0%);stroke-opacity:1;stroke-miterlimit:4;" d="M 558.474666 526.149825 C 558.549277 526.455712 558.698498 526.761599 558.773108 527.067486 C 558.847719 527.296901 558.922329 527.526316 558.99694 527.755731 C 558.99694 527.755731 558.99694 527.832203 558.99694 527.832203 C 558.101614 530.355771 556.310961 530.508715 552.655046 530.202828 C 547.208479 529.208695 542.209575 528.520449 538.031386 528.13809 C 537.807555 528.13809 537.583723 528.061618 537.359892 528.061618 C 537.210671 528.061618 537.06145 528.061618 536.912229 527.985147 C 536.240734 527.985147 535.64385 527.908675 535.046966 527.832203 C 534.972355 527.832203 534.897745 527.832203 534.823134 527.832203 C 529.376567 527.373373 525.944483 527.373373 525.944483 527.373373 C 539.822038 516.896742 541.388859 500.684731 541.388859 500.684731 L 542.134964 501.296505 C 552.729657 509.020152 558.474666 526.149825 558.474666 526.149825 " transform="matrix(0.0523552,0,0,-0.051081,0.0695277,28.626234)"/>
<path style=" stroke:none;fill-rule:nonzero;fill:rgb(74.901961%,75.294118%,74.901961%);fill-opacity:1;" d="M 21.78125 6.144531 C 22.140625 7.179688 21.535156 8.5625 21.535156 8.5625 C 22.332031 7.898438 22.953125 6.53125 22.953125 6.53125 C 24.257812 6.273438 24.976562 6.53125 24.976562 6.53125 C 25.144531 7.527344 24.769531 8.339844 24.769531 8.339844 C 25.523438 7.75 25.863281 6.183594 25.863281 6.183594 C 25.863281 6.183594 25.5625 5.90625 24.21875 5.8125 C 22.878906 5.722656 21.78125 6.144531 21.78125 6.144531 "/>
<path style=" stroke:none;fill-rule:nonzero;fill:rgb(74.901961%,75.294118%,74.901961%);fill-opacity:1;" d="M 22.761719 10.09375 C 22.761719 10.09375 22.367188 11.164062 21.960938 11.558594 C 21.960938 11.558594 22.484375 11.839844 23.394531 11.757812 C 24.308594 11.675781 24.527344 11.34375 24.609375 11.015625 C 24.695312 10.6875 24.609375 10.226562 24.457031 9.878906 C 24.457031 9.878906 24.527344 10.753906 23.902344 11.195312 C 23.902344 11.195312 23.230469 11.335938 22.789062 11.203125 C 22.789062 11.203125 22.964844 10.851562 22.761719 10.09375 "/>
<path style=" stroke:none;fill-rule:nonzero;fill:rgb(74.901961%,75.294118%,74.901961%);fill-opacity:1;" d="M 20.613281 1.777344 C 20.621094 1.78125 20.632812 1.78125 20.640625 1.78125 C 20.632812 1.78125 20.621094 1.78125 20.613281 1.777344 C 20.0625 1.675781 19.832031 2.082031 19.832031 2.082031 C 19.65625 2.332031 19.722656 2.453125 19.722656 2.453125 C 21.417969 2.425781 22.332031 2.691406 22.332031 2.691406 C 22.332031 2.691406 21.699219 2.019531 20.683594 1.792969 L 20.613281 1.777344 "/>
<path style=" stroke:none;fill-rule:nonzero;fill:rgb(74.901961%,75.294118%,74.901961%);fill-opacity:1;" d="M 27.382812 2.625 C 27.160156 2.421875 26.683594 2.164062 26.164062 2.265625 C 25.644531 2.367188 25.613281 2.917969 25.613281 2.917969 C 26.179688 2.410156 27.382812 2.625 27.382812 2.625 "/>
<path style=" stroke:none;fill-rule:nonzero;fill:rgb(0%,52.156863%,79.215686%);fill-opacity:1;" d="M 14.773438 3.710938 C 14.773438 3.710938 17.566406 3.191406 20.757812 3.925781 C 20.871094 3.824219 21.003906 3.722656 21.160156 3.621094 C 21.160156 3.621094 18.230469 2.828125 14.773438 3.710938 "/>
<path style=" stroke:none;fill-rule:nonzero;fill:rgb(0%,52.156863%,79.215686%);fill-opacity:1;" d="M 14.785156 4.777344 C 14.785156 4.777344 17.234375 4.179688 20.21875 4.582031 C 20.273438 4.472656 20.351562 4.355469 20.453125 4.234375 C 19.375 4.113281 17.191406 4.019531 14.785156 4.777344 "/>
<path style=" stroke:none;fill-rule:nonzero;fill:rgb(0%,52.156863%,79.215686%);fill-opacity:1;" d="M 14.847656 5.808594 C 14.847656 5.808594 17.164062 5.109375 20.078125 5.308594 C 20.0625 5.203125 20.0625 5.082031 20.089844 4.945312 C 18.921875 4.914062 16.953125 5.019531 14.847656 5.808594 "/>
<path style=" stroke:none;fill-rule:nonzero;fill:rgb(0%,52.156863%,79.215686%);fill-opacity:1;" d="M 8.027344 12.914062 C 8.03125 12.914062 8.035156 12.914062 8.042969 12.914062 C 8.09375 12.917969 8.257812 12.933594 8.265625 12.933594 C 8.289062 12.9375 8.566406 12.964844 8.570312 12.964844 C 8.96875 13.007812 9.371094 13.0625 9.777344 13.128906 C 10.691406 9.863281 13.265625 8.117188 13.265625 8.117188 C 9.785156 9.757812 8.320312 12.433594 8.027344 12.914062 "/>
<path style=" stroke:none;fill-rule:nonzero;fill:rgb(0%,52.156863%,79.215686%);fill-opacity:1;" d="M 24.449219 8.386719 C 24.230469 7.398438 24.804688 6.726562 24.804688 6.726562 C 23.496094 7.84375 24.289062 8.964844 24.6875 9.835938 C 25.082031 10.703125 24.921875 11.34375 24.527344 11.785156 C 24.132812 12.230469 23.042969 12.269531 22.308594 12.132812 C 21.574219 12 21.199219 11.246094 21 10.355469 C 20.804688 9.46875 21.160156 7.902344 21.160156 7.902344 C 20.625 8.695312 20.625 10.320312 21.042969 11.632812 C 21.457031 12.945312 22.546875 13.273438 23.339844 13.273438 C 24.132812 13.273438 25.558594 12.617188 25.335938 11.054688 C 25.117188 9.488281 24.664062 9.371094 24.449219 8.386719 "/>
<path style=" stroke:none;fill-rule:nonzero;fill:rgb(0%,52.156863%,79.215686%);fill-opacity:1;" d="M 15.929688 9.183594 C 14.5625 7.835938 14.523438 6.308594 14.523438 6.308594 C 14.523438 6.308594 14.050781 8.089844 15.167969 9.421875 C 16.28125 10.753906 18.992188 10.902344 18.992188 10.902344 C 18.992188 10.902344 17.296875 10.535156 15.929688 9.183594 "/>
<path style=" stroke:none;fill-rule:nonzero;fill:rgb(0%,52.156863%,79.215686%);fill-opacity:1;" d="M 22.839844 3.34375 C 24.445312 3.953125 24.425781 4.890625 24.425781 4.890625 C 24.671875 3.988281 25.808594 3.507812 25.808594 3.507812 C 25.808594 3.507812 25.222656 3.234375 24.410156 3.175781 C 23.597656 3.121094 22.839844 3.34375 22.839844 3.34375 "/>
<path style=" stroke:none;fill-rule:nonzero;fill:rgb(0%,52.156863%,79.215686%);fill-opacity:1;" d="M 20.613281 1.777344 C 19.644531 1.589844 18.71875 1.96875 18.671875 1.988281 C 18.667969 1.988281 18.667969 1.988281 18.667969 1.988281 C 19.558594 2.003906 19.832031 2.082031 19.832031 2.082031 C 19.832031 2.082031 20.0625 1.675781 20.613281 1.777344 "/>
<path style=" stroke:none;fill-rule:nonzero;fill:rgb(0%,52.156863%,79.215686%);fill-opacity:1;" d="M 23.757812 14.039062 C 23.75 14.042969 23.179688 14.238281 22.476562 14.117188 C 22.476562 14.117188 23.40625 14.996094 24.351562 16.914062 C 24.351562 16.917969 24.351562 16.917969 24.351562 16.917969 L 24.390625 16.914062 C 24.296875 16.039062 23.914062 14.574219 23.828125 14.304688 L 23.757812 14.039062 "/>
<path style="fill-rule:nonzero;fill:rgb(0%,0%,0%);fill-opacity:1;stroke-width:1;stroke-linecap:butt;stroke-linejoin:miter;stroke:rgb(0%,0%,0%);stroke-opacity:1;stroke-miterlimit:4;" d="M 471.777252 397.141977 C 471.777252 397.141977 478.939861 413.048102 475.731609 432.548399 C 475.731609 432.548399 462.003275 437.595535 437.083364 432.548399 C 437.083364 432.548399 425.220293 405.783286 409.999749 392.783088 C 409.999749 392.783088 421.564378 419.854088 414.700211 440.119103 C 414.700211 440.119103 435.665765 448.378052 461.25717 446.619202 C 486.923186 444.78388 492.668195 439.354385 492.668195 439.354385 C 492.668195 439.354385 486.177081 408.689212 471.777252 397.141977 Z M 455.213719 341.241126 C 467.1514 349.882434 465.808411 367.012107 465.808411 367.012107 C 468.718221 360.206121 470.359652 351.182454 468.718221 344.758827 C 467.1514 338.3352 462.973212 331.835101 445.514352 330.229194 C 428.130103 328.623287 418.132295 334.129253 418.132295 334.129253 C 425.891788 341.8529 433.427449 362.80616 433.427449 362.80616 C 437.232585 347.97064 433.949723 341.088183 433.949723 341.088183 C 442.380711 338.488143 455.213719 341.241126 455.213719 341.241126 Z M 482.595776 343.994109 C 486.773965 313.405408 459.541128 300.558154 444.469805 300.558154 C 429.323871 300.558154 408.507539 306.981781 400.598824 332.67629 C 392.6155 358.447271 392.6155 390.183048 402.83714 405.706814 C 402.83714 405.706814 396.047583 375.041641 399.778109 357.682553 C 403.583245 340.246993 410.745854 325.487945 424.77263 322.887905 C 438.799406 320.211394 459.541128 320.976112 467.1514 329.693891 C 474.687062 338.3352 477.746093 350.876567 470.135821 367.853296 C 462.600159 384.906497 447.454225 406.85389 472.448747 428.724811 C 472.448747 428.724811 461.481002 415.57167 465.65919 396.224316 C 469.762768 376.953435 478.417588 374.659282 482.595776 343.994109 Z M 384.856007 470.707804 C 327.853576 478.584394 281.147396 466.884216 281.147396 466.884216 C 327.03286 481.719736 368.740136 479.884414 389.332637 477.51379 C 387.392764 475.143165 385.975164 472.849013 384.856007 470.707804 Z M 382.170028 456.560529 C 326.435976 460.384117 282.266553 446.695673 282.266553 446.695673 C 322.481619 462.142967 360.085317 464.207705 382.39386 463.595931 C 381.871586 460.919419 381.871586 458.548795 382.170028 456.560529 Z M 288.384615 375.959302 C 267.046009 402.03617 276.073881 436.907289 276.073881 436.907289 C 276.073881 436.907289 276.819986 407.006834 302.933665 380.624079 C 329.047344 354.164852 361.428306 346.976508 361.428306 346.976508 C 361.428306 346.976508 309.648611 349.882434 288.384615 375.959302 Z M 402.83714 489.519855 C 399.852719 487.531589 397.390572 485.543324 395.152257 483.555058 C 334.195469 497.931748 280.848954 487.761005 280.848954 487.761005 C 346.879256 505.043621 402.83714 489.519855 402.83714 489.519855 Z M 355.235634 521.485048 C 355.235634 521.485048 355.235634 521.485048 355.310244 521.485048 C 356.20557 521.867406 374.783587 529.667525 393.734657 525.308635 C 413.13339 520.873274 425.220293 507.720132 425.220293 507.720132 C 425.220293 507.720132 407.761433 512.996683 375.380472 512.384909 C 375.380472 512.384909 374.112093 514.755533 377.469566 519.649726 C 377.469566 519.649726 372.24683 521.179161 355.235634 521.485048 Z M 498.413205 516.055553 C 508.336403 518.043819 517.438885 512.996683 521.691684 509.020152 C 521.691684 509.020152 498.711647 513.226098 487.893123 503.28477 C 487.893123 503.28477 488.490007 514.067288 498.413205 516.055553 Z M 531.167219 465.660668 C 530.794167 467.725405 530.197283 469.484256 529.451177 471.013691 C 529.451177 471.013691 528.928904 472.466654 527.138252 474.760807 C 525.646041 476.596129 524.00461 478.125564 522.437789 479.578527 C 519.154927 482.713869 513.186086 484.549191 513.186086 484.549191 C 517.289664 481.413849 520.497916 476.825544 520.796358 470.325445 C 521.766295 450.213374 501.024573 442.107368 501.024573 442.107368 C 505.874256 445.319182 514.678296 456.331114 512.36537 470.631332 C 510.127055 484.93155 491.623648 491.737536 491.623648 491.737536 C 491.623648 491.737536 469.911989 482.33151 465.286138 464.666535 C 465.286138 464.666535 465.58458 483.019756 434.91966 494.949349 C 434.91966 494.949349 449.394099 499.308239 464.913085 498.237635 C 480.432071 497.090559 491.623648 491.737536 491.623648 491.737536 C 491.623648 491.737536 494.458848 499.308239 509.679392 501.831807 C 524.974547 504.431847 541.388859 500.684731 541.388859 500.684731 C 538.404439 506.267169 534.897745 514.373175 519.527979 520.643858 C 504.232825 526.914542 490.504491 521.255632 490.504491 521.255632 C 490.504491 521.255632 489.534554 528.596921 478.417588 535.785265 C 460.287233 547.485444 412.461896 554.520845 403.284803 554.979675 C 394.033099 555.438506 410.14897 549.550181 416.640084 545.879537 C 423.951914 541.67359 432.159071 534.561717 432.905176 527.832203 C 433.054397 525.996881 432.681344 524.390974 431.860629 523.090954 C 431.189134 525.002748 429.846145 527.373373 427.458608 530.432243 C 414.327158 547.3325 381.05087 554.597317 356.13096 552.914938 C 331.211049 551.23256 311.364653 541.826534 311.364653 541.826534 C 311.663095 539.532381 302.18756 531.426376 276.073881 528.596921 C 251.15397 525.843938 233.54589 530.432243 227.203996 531.349904 C 227.054775 531.349904 226.905554 531.426376 226.756333 531.426376 C 224.144965 531.732263 222.279702 531.655791 221.458987 529.820469 C 221.384376 529.743997 221.384376 529.591053 221.384376 529.514582 C 221.309766 529.43811 221.309766 529.285166 221.309766 529.208695 C 221.160545 527.908675 221.98126 526.149825 221.98126 526.149825 C 221.832039 526.455712 221.682818 526.685127 221.608208 526.83807 C 223.39886 523.396841 233.993553 503.896545 247.945718 493.878745 C 247.945718 493.878745 256.302096 495.637595 266.225294 496.7082 C 266.225294 496.7082 113.124524 422.224712 51.123189 305.758233 C 78.132195 308.970046 113.721408 310.958312 152.295043 307.593555 C 152.145822 307.593555 152.071211 307.593555 152.071211 307.593555 L 151.996601 307.593555 C 157.592389 316.99958 185.571331 369.382731 252.049296 401.500867 C 252.049296 401.500867 202.880969 367.317994 185.42211 303.387608 C 207.656042 299.564021 230.337638 293.752168 252.57157 285.11086 C 324.12305 257.19867 384.333733 228.062932 452.303909 228.674706 L 463.793927 229.210008 C 463.793927 229.210008 463.793927 229.210008 463.793927 229.28648 C 445.738184 266.834111 427.980882 284.040255 427.980882 284.040255 C 441.410774 281.669631 452.303909 285.493218 452.45313 285.56969 C 453.497677 285.875577 454.318393 286.257936 455.064498 286.640295 C 477.29843 298.569888 481.028956 318.834903 482.819608 333.364536 C 484.908702 350.188321 481.924282 360.894367 481.924282 360.894367 C 481.924282 360.894367 520.423306 411.442195 530.197283 451.131035 C 530.197283 451.131035 532.435598 458.31938 531.167219 465.660668 " transform="matrix(0.0523552,0,0,-0.051081,0.0695277,28.626234)"/>
<path style="fill-rule:nonzero;fill:rgb(0%,52.156863%,79.215686%);fill-opacity:1;stroke-width:1;stroke-linecap:butt;stroke-linejoin:miter;stroke:rgb(0%,52.156863%,79.215686%);stroke-opacity:1;stroke-miterlimit:4;" d="M 608.090656 440.195574 C 585.558282 452.431055 560.116098 456.254642 540.568144 457.01936 C 540.568144 457.01936 540.493533 457.01936 540.418923 457.01936 C 540.493533 457.01936 540.568144 457.01936 540.568144 457.01936 C 541.239638 459.542928 542.134964 462.67827 543.03029 466.043027 C 543.477954 466.043027 543.776396 466.119499 543.776396 466.119499 C 582.946914 467.419518 603.688636 457.01936 603.688636 457.01936 L 601.674152 458.548795 C 582.573861 467.419518 562.429023 470.631332 544.970164 471.090163 L 544.224059 471.090163 C 544.820943 473.843146 545.641658 479.349112 545.790879 479.349112 L 546.163932 479.349112 C 576.306579 478.966753 592.795502 471.85488 592.795502 471.85488 L 590.781018 473.384315 C 575.858915 479.807942 560.563761 482.713869 546.238542 483.63153 C 546.313153 489.213968 545.417827 493.802273 543.254122 497.778804 C 554.296478 507.337773 558.400056 522.02035 558.99694 527.755731 C 559.07155 527.985147 559.146161 528.520449 559.146161 528.596921 C 559.146161 528.749864 559.220771 528.826336 559.220771 528.902808 C 559.220771 529.132223 559.220771 529.361638 559.220771 529.514582 C 559.220771 529.591053 559.220771 529.743997 559.220771 529.820469 C 559.220771 529.973412 559.220771 530.126356 559.220771 530.279299 C 559.146161 530.355771 559.146161 530.508715 559.146161 530.585186 C 559.07155 530.73813 559.07155 530.891073 558.99694 530.967545 C 558.99694 531.044017 558.99694 531.120489 558.922329 531.19696 C 558.847719 531.349904 558.847719 531.502847 558.773108 531.579319 C 558.698498 531.655791 558.698498 531.732263 558.623887 531.808734 C 558.549277 531.885206 558.474666 531.961678 558.400056 532.114621 C 558.400056 532.114621 558.325445 532.191093 558.325445 532.267565 C 558.176224 532.344037 558.101614 532.420508 558.027003 532.49698 C 557.952393 532.573452 557.952393 532.649924 557.877782 532.649924 C 557.803172 532.726395 557.653951 532.802867 557.57934 532.879339 C 557.50473 532.879339 557.50473 532.955811 557.430119 532.955811 C 557.355509 533.032282 557.206288 533.108754 557.131677 533.185226 C 557.057067 533.185226 557.057067 533.185226 556.982456 533.261698 C 556.907846 533.261698 556.758625 533.338169 556.684014 533.414641 C 556.609404 533.414641 556.609404 533.414641 556.534793 533.414641 C 556.460182 533.491113 556.310961 533.491113 556.236351 533.567585 C 556.16174 533.567585 556.16174 533.567585 556.08713 533.567585 C 556.012519 533.644056 555.863298 533.644056 555.788688 533.644056 C 555.788688 533.644056 555.714077 533.720528 555.714077 533.720528 C 555.639467 533.720528 555.490246 533.720528 555.415635 533.720528 C 555.415635 533.720528 555.415635 533.797 555.341025 533.797 C 555.266414 533.797 555.191804 533.797 555.117193 533.797 C 554.967972 533.797 554.893362 533.797 554.893362 533.797 C 535.793071 533.644056 520.050253 540.144155 520.050253 540.144155 C 519.6772 540.297099 519.229537 540.450042 518.781874 540.602986 C 476.328493 556.126752 432.233681 560.562113 392.988552 559.873868 C 375.455082 559.720924 362.696685 558.267961 362.696685 558.267961 C 306.291138 553.526712 265.926851 539.991212 265.926851 539.991212 C 265.926851 539.991212 250.631697 535.708794 230.188417 536.702926 C 230.188417 536.702926 222.578144 536.85587 221.085934 532.03815 C 219.817556 528.979279 219.668334 525.308635 222.503534 517.279101 C 225.861007 508.026019 239.141678 490.666931 239.290899 490.59046 C 199.001223 474.225504 94.024233 415.342255 0.0149892 296.963981 C 0.0149892 296.963981 19.861385 302.16406 51.123189 305.834705 C 113.124524 422.224712 266.225294 496.7082 266.225294 496.7082 C 256.302096 495.637595 247.945718 493.878745 247.945718 493.878745 C 233.993553 503.896545 223.39886 523.473313 221.608208 526.83807 C 221.682818 526.685127 221.832039 526.455712 221.98126 526.149825 C 221.98126 526.149825 221.160545 527.908675 221.309766 529.208695 C 221.309766 529.361638 221.309766 529.43811 221.309766 529.514582 C 221.384376 529.667525 221.384376 529.743997 221.458987 529.820469 C 222.205092 531.655791 224.144965 531.808734 226.756333 531.426376 C 226.905554 531.426376 227.054775 531.426376 227.203996 531.349904 C 233.54589 530.432243 251.07936 525.843938 275.999271 528.596921 C 302.18756 531.502847 311.663095 539.532381 311.364653 541.826534 C 311.364653 541.826534 331.211049 551.23256 356.13096 552.914938 C 381.05087 554.597317 414.327158 547.3325 427.383998 530.508715 C 429.771534 527.449844 431.189134 525.002748 431.786018 523.090954 C 432.606734 524.390974 433.054397 525.996881 432.905176 527.832203 C 432.159071 534.561717 423.951914 541.67359 416.640084 545.879537 C 410.14897 549.550181 394.033099 555.514978 403.210192 554.979675 C 412.461896 554.520845 460.287233 547.561915 478.342977 535.861737 C 489.534554 528.596921 490.504491 521.255632 490.504491 521.255632 C 490.504491 521.255632 504.232825 526.914542 519.527979 520.643858 C 534.823134 514.373175 538.329828 506.267169 541.388859 500.761203 C 541.388859 500.761203 539.822038 516.896742 525.944483 527.373373 C 525.944483 527.373373 529.376567 527.449844 534.823134 527.832203 C 534.897745 527.832203 534.972355 527.832203 535.046966 527.908675 C 535.64385 527.908675 536.240734 527.985147 536.837618 528.061618 C 537.06145 528.061618 537.210671 528.061618 537.359892 528.061618 C 537.583723 528.13809 537.807555 528.13809 538.031386 528.13809 C 542.209575 528.596921 547.208479 529.208695 552.655046 530.279299 C 556.310961 530.508715 558.101614 530.355771 558.99694 527.832203 C 558.99694 527.832203 558.99694 527.832203 558.99694 527.755731 C 558.922329 527.526316 558.847719 527.296901 558.773108 527.067486 C 558.698498 526.761599 558.549277 526.455712 558.474666 526.149825 C 558.474666 526.149825 552.729657 509.020152 542.134964 501.372977 L 541.388859 500.761203 C 541.388859 500.761203 524.899936 504.431847 509.679392 501.908279 C 494.458848 499.308239 491.549038 491.737536 491.549038 491.737536 C 491.549038 491.737536 510.127055 484.93155 512.36537 470.631332 C 514.678296 456.407586 505.874256 445.319182 501.024573 442.107368 C 501.024573 442.107368 521.766295 450.213374 520.796358 470.325445 C 520.497916 476.902016 517.289664 481.413849 513.111475 484.549191 C 513.111475 484.549191 519.154927 482.713869 522.437789 479.578527 C 524.00461 478.125564 525.646041 476.6726 527.138252 474.760807 C 528.854293 472.466654 529.451177 471.013691 529.451177 471.013691 C 530.197283 469.484256 530.794167 467.725405 531.092609 465.660668 C 532.435598 458.31938 530.122672 451.131035 530.122672 451.131035 C 520.348695 411.442195 481.924282 360.970838 481.924282 360.970838 C 511.022381 385.747686 530.421114 429.642472 538.852102 451.742809 C 584.737566 451.207507 609.732088 438.513196 609.732088 438.513196 L 608.016046 440.195574 " transform="matrix(0.0523552,0,0,-0.051081,0.0695277,28.626234)"/>
</g>
</svg>
