<?xml version="1.0" encoding="UTF-8"?>
<svg xmlns="http://www.w3.org/2000/svg" xmlns:xlink="http://www.w3.org/1999/xlink" width="32px" height="32px" viewBox="0 0 32 22" version="1.1">
<g id="surface1">
<path style=" stroke:none;fill-rule:nonzero;fill:rgb(100%,100%,100%);fill-opacity:1;" d="M 28.691406 10.628906 C 28.523438 10.546875 28.546875 10.398438 28.667969 10.308594 C 30.101562 9.265625 31.078125 7.925781 31.078125 5.859375 C 31.078125 3.414062 29.289062 -0.0234375 22.304688 -0.0234375 L 4.285156 -0.0234375 L 0.207031 6.945312 L 3.199219 6.945312 C 3.535156 6.945312 3.804688 7.207031 3.804688 7.535156 L 3.804688 14.480469 C 3.804688 14.808594 3.535156 15.074219 3.199219 15.074219 L -0.0117188 15.074219 L 4.105469 22.007812 L 23.175781 22.007812 C 29.320312 22.007812 31.976562 18.867188 31.976562 15.492188 C 31.976562 13.265625 30.351562 11.449219 28.710938 10.632812 "/>
<path style=" stroke:none;fill-rule:nonzero;fill:rgb(98.431373%,30.980392%,7.843137%);fill-opacity:1;" d="M 18.050781 9.496094 L 15.089844 9.496094 L 15.089844 6.707031 C 15.09375 6.417969 15.335938 6.179688 15.632812 6.179688 L 18.046875 6.179688 C 19.46875 6.179688 19.984375 6.886719 19.984375 7.8125 C 19.984375 8.792969 19.460938 9.492188 18.046875 9.492188 Z M 18.050781 15.914062 L 15.640625 15.914062 C 15.339844 15.914062 15.09375 15.675781 15.09375 15.382812 L 15.09375 12.597656 L 18.054688 12.597656 C 19.476562 12.597656 19.996094 13.277344 19.996094 14.226562 C 19.996094 15.207031 19.46875 15.910156 18.054688 15.910156 Z M 26.5 10.835938 C 26.285156 10.785156 26.320312 10.527344 26.480469 10.46875 C 28.429688 9.742188 29.578125 8.457031 29.578125 6.183594 C 29.605469 3.140625 26.859375 1.046875 22.390625 1.046875 L 5.425781 1.046875 L 2.457031 6.183594 L 4.5 6.183594 C 4.90625 6.183594 5.230469 6.503906 5.230469 6.902344 L 5.230469 15.199219 C 5.230469 15.597656 4.90625 15.914062 4.5 15.914062 L 2.476562 15.914062 L 5.46875 21.035156 L 23.171875 21.03125 C 28.226562 21.03125 30.304688 17.742188 30.304688 15.324219 C 30.304688 13.199219 28.703125 11.363281 26.480469 10.835938 "/>
<path style=" stroke:none;fill-rule:nonzero;fill:rgb(0%,0%,0%);fill-opacity:1;" d="M 11.203125 19.609375 C 8.0625 13.828125 7.242188 7.222656 8.410156 1.03125 L 5.441406 1.03125 L 2.46875 6.171875 L 4.511719 6.171875 C 4.917969 6.171875 5.242188 6.492188 5.242188 6.886719 L 5.242188 13.257812 C 6.773438 15.679688 8.972656 18.003906 11.195312 19.574219 Z M 26.058594 1.652344 C 22.464844 6.875 20.515625 13.519531 21.390625 19.609375 C 22.464844 14.511719 25.257812 9.804688 29.609375 6.398438 C 29.609375 6.347656 29.617188 6.300781 29.617188 6.246094 C 29.632812 4.152344 28.328125 2.5 26.066406 1.675781 Z M 20.03125 1.078125 C 19.46875 2.523438 18.875 4.269531 18.378906 6.230469 C 18.289062 6.222656 18.195312 6.21875 18.097656 6.21875 L 15.683594 6.21875 C 15.386719 6.21875 15.144531 6.453125 15.140625 6.746094 L 15.140625 9.535156 L 17.679688 9.535156 C 17.511719 10.535156 17.378906 11.566406 17.285156 12.628906 L 15.136719 12.628906 L 15.136719 15.417969 C 15.136719 15.710938 15.378906 15.949219 15.679688 15.949219 L 17.167969 15.949219 C 17.1875 17.621094 17.339844 19.335938 17.660156 21.058594 L 15.445312 21.058594 C 13.707031 16.941406 11.304688 10.015625 13.6875 1.035156 L 20.019531 1.035156 "/>
</g>
</svg>
