<?xml version="1.0" encoding="UTF-8"?>
<svg xmlns="http://www.w3.org/2000/svg" xmlns:xlink="http://www.w3.org/1999/xlink" width="32px" height="32px" viewBox="0 0 32 32" version="1.1">
<defs>
<clipPath id="clip1">
  <path d="M 13 5 L 19 5 L 19 27 L 13 27 Z M 13 5 "/>
</clipPath>
<clipPath id="clip2">
  <path d="M 5.519531 16.011719 C 5.519531 21.804688 10.21875 26.503906 16.011719 26.503906 C 21.804688 26.503906 26.503906 21.804688 26.503906 16.011719 C 26.503906 10.21875 21.804688 5.519531 16.011719 5.519531 C 10.21875 5.519531 5.519531 10.21875 5.519531 16.011719 "/>
</clipPath>
<clipPath id="clip3">
  <path d="M 5 7 L 10 7 L 10 25 L 5 25 Z M 5 7 "/>
</clipPath>
<clipPath id="clip4">
  <path d="M 5.519531 16.011719 C 5.519531 21.804688 10.21875 26.503906 16.011719 26.503906 C 21.804688 26.503906 26.503906 21.804688 26.503906 16.011719 C 26.503906 10.21875 21.804688 5.519531 16.011719 5.519531 C 10.21875 5.519531 5.519531 10.21875 5.519531 16.011719 "/>
</clipPath>
<clipPath id="clip5">
  <path d="M 22 7 L 27 7 L 27 25 L 22 25 Z M 22 7 "/>
</clipPath>
<clipPath id="clip6">
  <path d="M 5.519531 16.011719 C 5.519531 21.804688 10.21875 26.503906 16.011719 26.503906 C 21.804688 26.503906 26.503906 21.804688 26.503906 16.011719 C 26.503906 10.21875 21.804688 5.519531 16.011719 5.519531 C 10.21875 5.519531 5.519531 10.21875 5.519531 16.011719 "/>
</clipPath>
</defs>
<g id="surface1">
<path style=" stroke:none;fill-rule:nonzero;fill:rgb(13.72549%,12.156863%,12.54902%);fill-opacity:1;" d="M 32.023438 16.011719 C 32.023438 24.855469 24.855469 32.023438 16.011719 32.023438 C 7.167969 32.023438 0 24.855469 0 16.011719 C 0 7.167969 7.167969 0 16.011719 0 C 24.855469 0 32.023438 7.167969 32.023438 16.011719 "/>
<path style=" stroke:none;fill-rule:nonzero;fill:rgb(63.529412%,56.470588%,38.039216%);fill-opacity:1;" d="M 16.011719 31.664062 C 11.835938 31.664062 7.90625 30.039062 4.953125 27.085938 C 2 24.128906 0.371094 20.203125 0.371094 16.027344 C 0.371094 11.847656 2 7.921875 4.953125 4.96875 C 7.90625 2.011719 11.835938 0.386719 16.011719 0.386719 C 20.1875 0.386719 24.117188 2.011719 27.070312 4.96875 C 30.023438 7.921875 31.652344 11.847656 31.652344 16.027344 C 31.652344 20.203125 30.023438 24.128906 27.070312 27.085938 C 24.117188 30.039062 20.1875 31.664062 16.011719 31.664062 M 16.011719 0.769531 C 7.601562 0.769531 0.757812 7.613281 0.757812 16.027344 C 0.757812 24.4375 7.601562 31.28125 16.011719 31.28125 C 24.421875 31.28125 31.265625 24.4375 31.265625 16.027344 C 31.265625 7.613281 24.421875 0.769531 16.011719 0.769531 "/>
<g clip-path="url(#clip1)" clip-rule="nonzero">
<g clip-path="url(#clip2)" clip-rule="nonzero">
<path style=" stroke:none;fill-rule:nonzero;fill:rgb(50.196078%,0%,4.313725%);fill-opacity:1;" d="M 13.53125 5.40625 L 18.449219 5.40625 L 18.449219 26.617188 L 13.53125 26.617188 Z M 13.53125 5.40625 "/>
</g>
</g>
<g clip-path="url(#clip3)" clip-rule="nonzero">
<g clip-path="url(#clip4)" clip-rule="nonzero">
<path style=" stroke:none;fill-rule:nonzero;fill:rgb(50.196078%,0%,4.313725%);fill-opacity:1;" d="M 5.285156 7.484375 L 9.390625 7.484375 L 9.390625 24.535156 L 5.285156 24.535156 Z M 5.285156 7.484375 "/>
</g>
</g>
<g clip-path="url(#clip5)" clip-rule="nonzero">
<g clip-path="url(#clip6)" clip-rule="nonzero">
<path style=" stroke:none;fill-rule:nonzero;fill:rgb(50.196078%,0%,4.313725%);fill-opacity:1;" d="M 22.589844 7.484375 L 26.695312 7.484375 L 26.695312 24.535156 L 22.589844 24.535156 Z M 22.589844 7.484375 "/>
</g>
</g>
<path style=" stroke:none;fill-rule:nonzero;fill:rgb(13.72549%,12.156863%,12.54902%);fill-opacity:1;" d="M 19.105469 10.125 L 20.125 8.078125 L 11.882812 8.078125 L 12.902344 10.125 L 8.503906 23.171875 L 12.496094 25.792969 L 13.328125 23.421875 L 18.722656 23.421875 L 19.488281 25.773438 L 23.535156 23.167969 Z M 14.90625 18.769531 L 16.007812 15.453125 L 17.148438 18.769531 Z M 14.90625 18.769531 "/>
<path style=" stroke:none;fill-rule:nonzero;fill:rgb(63.529412%,56.470588%,38.039216%);fill-opacity:1;" d="M 18.691406 10.097656 L 19.507812 8.460938 L 12.5 8.460938 L 13.316406 10.097656 L 8.847656 23.351562 L 10.390625 24.792969 L 11.1875 25.171875 L 12.15625 25.601562 L 13.058594 23.039062 L 19 23.039062 L 19.867188 25.699219 L 21.5 24.824219 L 23.214844 23.410156 Z M 14.375 19.152344 L 16.003906 14.257812 L 17.683594 19.152344 Z M 14.375 19.152344 "/>
<path style=" stroke:none;fill-rule:nonzero;fill:rgb(50.588235%,44.705882%,26.666667%);fill-opacity:1;" d="M 14.375 19.152344 L 11.664062 21.097656 L 16.011719 8.453125 L 20.359375 21.097656 L 17.683594 19.152344 L 16.003906 14.257812 Z M 14.375 19.152344 "/>
<path style=" stroke:none;fill-rule:nonzero;fill:rgb(50.588235%,44.705882%,26.666667%);fill-opacity:1;" d="M 10.515625 24.433594 L 11.664062 21.097656 L 20.359375 21.097656 L 21.480469 24.355469 L 19.753906 25.359375 L 19 23.039062 L 13.058594 23.039062 L 12.246094 25.347656 Z M 10.515625 24.433594 "/>
<path style=" stroke:none;fill-rule:nonzero;fill:rgb(63.529412%,56.470588%,38.039216%);fill-opacity:1;" d="M 16.011719 26.632812 C 10.15625 26.632812 5.390625 21.867188 5.390625 16.011719 C 5.390625 10.15625 10.15625 5.390625 16.011719 5.390625 C 21.867188 5.390625 26.632812 10.15625 26.632812 16.011719 C 26.632812 21.867188 21.867188 26.632812 16.011719 26.632812 M 16.011719 5.824219 C 10.394531 5.824219 5.824219 10.394531 5.824219 16.011719 C 5.824219 21.628906 10.394531 26.199219 16.011719 26.199219 C 21.628906 26.199219 26.199219 21.628906 26.199219 16.011719 C 26.199219 10.394531 21.628906 5.824219 16.011719 5.824219 "/>
<path style=" stroke:none;fill-rule:nonzero;fill:rgb(50.588235%,44.705882%,26.666667%);fill-opacity:1;" d="M 16.011719 26.25 C 10.367188 26.25 5.773438 21.65625 5.773438 16.011719 C 5.773438 10.367188 10.367188 5.773438 16.011719 5.773438 C 21.65625 5.773438 26.25 10.367188 26.25 16.011719 C 26.25 21.65625 21.65625 26.25 16.011719 26.25 M 16.011719 6.15625 C 10.578125 6.15625 6.15625 10.578125 6.15625 16.011719 C 6.15625 21.445312 10.578125 25.867188 16.011719 25.867188 C 21.445312 25.867188 25.867188 21.445312 25.867188 16.011719 C 25.867188 10.578125 21.445312 6.15625 16.011719 6.15625 "/>
<path style=" stroke:none;fill-rule:nonzero;fill:rgb(63.921569%,56.862745%,38.039216%);fill-opacity:1;" d="M 16.484375 1.960938 C 16.511719 1.867188 16.539062 1.777344 16.570312 1.683594 C 16.199219 1.664062 15.828125 1.664062 15.457031 1.679688 C 15.484375 1.773438 15.515625 1.867188 15.542969 1.957031 C 15.277344 2.820312 15.015625 3.691406 14.753906 4.574219 C 14.972656 4.550781 15.191406 4.53125 15.414062 4.523438 C 15.453125 4.378906 15.492188 4.234375 15.535156 4.085938 C 15.847656 4.074219 16.160156 4.078125 16.476562 4.089844 C 16.515625 4.234375 16.554688 4.382812 16.597656 4.527344 C 16.816406 4.539062 17.035156 4.558594 17.257812 4.582031 C 17 3.699219 16.742188 2.824219 16.484375 1.960938 M 16.011719 2.398438 C 16.113281 2.761719 16.210938 3.128906 16.3125 3.496094 C 16.109375 3.488281 15.90625 3.488281 15.703125 3.492188 C 15.804688 3.128906 15.910156 2.761719 16.011719 2.398438 "/>
<path style=" stroke:none;fill-rule:nonzero;fill:rgb(63.921569%,56.862745%,38.039216%);fill-opacity:1;" d="M 23.355469 7.136719 C 23.523438 7.277344 23.691406 7.425781 23.855469 7.574219 C 23.988281 7.5 24.117188 7.429688 24.25 7.359375 C 24.480469 7.574219 24.699219 7.796875 24.90625 8.03125 C 24.832031 8.160156 24.757812 8.292969 24.679688 8.421875 C 24.824219 8.585938 24.964844 8.757812 25.101562 8.929688 C 25.550781 8.128906 25.996094 7.335938 26.429688 6.542969 C 26.519531 6.5 26.605469 6.457031 26.691406 6.414062 C 26.480469 6.175781 26.265625 5.949219 26.039062 5.734375 C 25.152344 6.195312 24.257812 6.664062 23.355469 7.136719 M 24.792969 7.058594 C 25.125 6.878906 25.457031 6.695312 25.789062 6.515625 C 25.597656 6.839844 25.410156 7.167969 25.21875 7.496094 C 25.082031 7.347656 24.9375 7.203125 24.792969 7.058594 "/>
<path style=" stroke:none;fill-rule:nonzero;fill:rgb(63.921569%,56.862745%,38.039216%);fill-opacity:1;" d="M 22.53125 3.222656 C 22.429688 3.390625 22.328125 3.558594 22.226562 3.726562 C 22.4375 3.835938 22.640625 3.949219 22.847656 4.066406 C 22.457031 4.707031 22.070312 5.351562 21.683594 5.992188 C 21.859375 6.09375 22.035156 6.199219 22.207031 6.308594 C 22.59375 5.664062 22.984375 5.023438 23.371094 4.382812 C 23.542969 4.492188 23.714844 4.605469 23.886719 4.71875 C 24.035156 4.585938 24.1875 4.453125 24.339844 4.316406 C 23.761719 3.914062 23.15625 3.546875 22.53125 3.222656 "/>
<path style=" stroke:none;fill-rule:nonzero;fill:rgb(63.921569%,56.862745%,38.039216%);fill-opacity:1;" d="M 20.503906 2.375 C 20.34375 2.910156 20.1875 3.445312 20.027344 3.976562 C 19.917969 3.351562 19.804688 2.734375 19.6875 2.128906 C 19.46875 2.074219 19.246094 2.023438 19.027344 1.980469 C 19.027344 2.074219 19.03125 2.171875 19.03125 2.265625 C 18.789062 3.085938 18.546875 3.902344 18.304688 4.71875 C 18.503906 4.761719 18.703125 4.808594 18.898438 4.859375 C 19.058594 4.324219 19.21875 3.789062 19.375 3.253906 C 19.492188 3.863281 19.605469 4.476562 19.71875 5.105469 C 19.902344 5.167969 20.085938 5.238281 20.269531 5.3125 L 21.078125 2.589844 C 20.886719 2.511719 20.695312 2.441406 20.503906 2.375 "/>
<path style=" stroke:none;fill-rule:nonzero;fill:rgb(63.921569%,56.862745%,38.039216%);fill-opacity:1;" d="M 6.039062 5.734375 C 5.8125 5.949219 5.59375 6.175781 5.386719 6.414062 C 5.472656 6.457031 5.558594 6.5 5.644531 6.542969 C 6.082031 7.332031 6.523438 8.128906 6.976562 8.929688 C 7.109375 8.757812 7.25 8.585938 7.398438 8.421875 C 7.320312 8.292969 7.246094 8.160156 7.167969 8.03125 C 7.378906 7.796875 7.597656 7.574219 7.828125 7.359375 C 7.957031 7.429688 8.089844 7.5 8.222656 7.574219 C 8.386719 7.425781 8.550781 7.277344 8.722656 7.136719 C 7.820312 6.664062 6.925781 6.195312 6.039062 5.734375 M 6.859375 7.496094 C 6.667969 7.167969 6.476562 6.839844 6.289062 6.515625 C 6.621094 6.695312 6.953125 6.878906 7.285156 7.0625 C 7.140625 7.203125 6.996094 7.347656 6.859375 7.496094 "/>
<path style=" stroke:none;fill-rule:nonzero;fill:rgb(63.921569%,56.862745%,38.039216%);fill-opacity:1;" d="M 9.546875 3.222656 C 9.648438 3.390625 9.75 3.558594 9.851562 3.726562 C 9.640625 3.835938 9.433594 3.949219 9.230469 4.066406 C 9.617188 4.707031 10.007812 5.351562 10.394531 5.992188 C 10.214844 6.09375 10.042969 6.199219 9.871094 6.308594 C 9.480469 5.664062 9.09375 5.023438 8.707031 4.382812 C 8.535156 4.492188 8.363281 4.605469 8.191406 4.71875 C 8.039062 4.585938 7.890625 4.453125 7.738281 4.316406 C 8.316406 3.914062 8.917969 3.546875 9.546875 3.222656 "/>
<path style=" stroke:none;fill-rule:nonzero;fill:rgb(63.921569%,56.862745%,38.039216%);fill-opacity:1;" d="M 12.421875 4.46875 C 12.214844 3.746094 12.007812 3.027344 11.804688 2.304688 C 11.609375 2.367188 11.414062 2.429688 11.222656 2.5 C 11.484375 3.410156 11.742188 4.320312 12.003906 5.230469 C 12.519531 5.042969 13.050781 4.886719 13.585938 4.765625 C 13.589844 4.566406 13.597656 4.363281 13.601562 4.160156 C 13.203125 4.246094 12.808594 4.347656 12.421875 4.46875 "/>
<path style=" stroke:none;fill-rule:nonzero;fill:rgb(63.921569%,56.862745%,38.039216%);fill-opacity:1;" d="M 11.613281 26.617188 C 11.425781 26.535156 11.238281 26.449219 11.054688 26.363281 C 10.664062 27.226562 10.273438 28.089844 9.882812 28.949219 C 10.066406 29.039062 10.253906 29.121094 10.441406 29.203125 C 10.832031 28.339844 11.222656 27.476562 11.613281 26.617188 "/>
<path style=" stroke:none;fill-rule:nonzero;fill:rgb(63.921569%,56.862745%,38.039216%);fill-opacity:1;" d="M 14.429688 27.390625 C 14.386719 27.582031 14.339844 27.773438 14.296875 27.964844 C 14.0625 27.929688 13.832031 27.890625 13.601562 27.84375 C 13.429688 28.574219 13.261719 29.304688 13.09375 30.035156 C 12.890625 29.996094 12.691406 29.949219 12.496094 29.898438 C 12.664062 29.167969 12.835938 28.4375 13.003906 27.703125 C 12.777344 27.644531 12.550781 27.578125 12.324219 27.507812 C 12.371094 27.316406 12.414062 27.125 12.457031 26.933594 C 13.101562 27.140625 13.761719 27.292969 14.429688 27.390625 "/>
<path style=" stroke:none;fill-rule:nonzero;fill:rgb(63.921569%,56.862745%,38.039216%);fill-opacity:1;" d="M 15.984375 29.183594 C 16.300781 29.183594 16.621094 29.175781 16.941406 29.148438 C 16.9375 28.953125 16.933594 28.757812 16.929688 28.558594 C 16.609375 28.585938 16.289062 28.59375 15.972656 28.59375 C 15.96875 28.425781 15.964844 28.261719 15.960938 28.09375 C 16.367188 28.097656 16.773438 28.078125 17.179688 28.039062 C 17.113281 27.847656 17.050781 27.65625 16.984375 27.464844 C 16.4375 27.511719 15.886719 27.515625 15.335938 27.484375 C 15.355469 28.429688 15.375 29.378906 15.394531 30.324219 C 15.945312 30.355469 16.496094 30.347656 17.042969 30.304688 C 17.101562 30.101562 17.15625 29.898438 17.210938 29.699219 C 16.808594 29.738281 16.402344 29.757812 15.996094 29.753906 C 15.992188 29.5625 15.988281 29.375 15.984375 29.183594 "/>
<path style=" stroke:none;fill-rule:nonzero;fill:rgb(63.921569%,56.862745%,38.039216%);fill-opacity:1;" d="M 20.308594 27.457031 C 20.199219 27.070312 19.804688 26.875 19.417969 26.992188 C 18.992188 27.121094 18.558594 27.230469 18.117188 27.3125 C 18.171875 27.398438 18.226562 27.480469 18.277344 27.566406 C 18.507812 28.386719 18.738281 29.210938 18.96875 30.03125 C 19.378906 29.953125 19.785156 29.847656 20.183594 29.726562 C 20.570312 29.609375 20.785156 29.175781 20.679688 28.789062 C 20.554688 28.34375 20.429688 27.902344 20.308594 27.457031 M 20.101562 28.988281 C 20.121094 29.0625 20.078125 29.140625 20.003906 29.164062 C 19.804688 29.226562 19.605469 29.28125 19.40625 29.332031 C 19.257812 28.796875 19.109375 28.265625 18.960938 27.730469 C 19.160156 27.679688 19.359375 27.625 19.558594 27.566406 C 19.632812 27.542969 19.707031 27.585938 19.726562 27.660156 C 19.851562 28.101562 19.976562 28.546875 20.101562 28.988281 "/>
<path style=" stroke:none;fill-rule:nonzero;fill:rgb(63.921569%,56.862745%,38.039216%);fill-opacity:1;" d="M 9.507812 25.460938 C 9.175781 25.910156 8.84375 26.355469 8.511719 26.804688 C 8.609375 26.195312 8.714844 25.578125 8.824219 24.953125 C 8.671875 24.828125 8.519531 24.703125 8.375 24.570312 C 7.808594 25.332031 7.242188 26.089844 6.679688 26.851562 C 6.832031 26.988281 6.988281 27.117188 7.144531 27.246094 C 7.480469 26.796875 7.8125 26.351562 8.144531 25.902344 C 8.035156 26.527344 7.929688 27.144531 7.832031 27.753906 C 7.992188 27.867188 8.15625 27.972656 8.324219 28.078125 C 8.890625 27.316406 9.457031 26.558594 10.019531 25.796875 C 9.847656 25.691406 9.675781 25.578125 9.507812 25.460938 "/>
<path style=" stroke:none;fill-rule:nonzero;fill:rgb(63.921569%,56.862745%,38.039216%);fill-opacity:1;" d="M 7.203125 23.351562 C 6.636719 23.792969 6.066406 24.234375 5.496094 24.675781 C 5.4375 24.722656 5.347656 24.710938 5.296875 24.652344 C 5.195312 24.527344 5.097656 24.402344 5 24.273438 C 4.957031 24.210938 4.96875 24.121094 5.027344 24.074219 C 5.597656 23.632812 6.167969 23.195312 6.738281 22.753906 C 6.601562 22.5625 6.46875 22.371094 6.34375 22.175781 C 6.285156 22.257812 6.226562 22.335938 6.167969 22.417969 C 5.671875 22.800781 5.179688 23.1875 4.683594 23.570312 C 4.363281 23.816406 4.28125 24.292969 4.523438 24.617188 C 4.625 24.757812 4.734375 24.894531 4.84375 25.03125 C 5.101562 25.34375 5.585938 25.378906 5.902344 25.132812 C 6.472656 24.691406 7.042969 24.25 7.609375 23.808594 C 7.472656 23.660156 7.335938 23.507812 7.203125 23.351562 "/>
<path style=" stroke:none;fill-rule:nonzero;fill:rgb(63.921569%,56.862745%,38.039216%);fill-opacity:1;" d="M 23.347656 25.628906 C 23.671875 25.382812 23.980469 25.121094 24.28125 24.84375 C 24.113281 24.730469 23.949219 24.617188 23.78125 24.503906 C 23.351562 24.890625 22.894531 25.246094 22.410156 25.570312 C 22.492188 25.628906 22.574219 25.683594 22.65625 25.742188 C 23.1875 26.410156 23.714844 27.082031 24.246094 27.75 C 24.414062 27.636719 24.578125 27.515625 24.742188 27.394531 C 24.503906 27.089844 24.261719 26.785156 24.023438 26.484375 C 24.277344 26.289062 24.523438 26.085938 24.761719 25.875 C 24.640625 25.722656 24.519531 25.566406 24.398438 25.414062 C 24.160156 25.625 23.910156 25.828125 23.65625 26.019531 C 23.554688 25.890625 23.449219 25.757812 23.347656 25.628906 "/>
<path style=" stroke:none;fill-rule:nonzero;fill:rgb(63.921569%,56.862745%,38.039216%);fill-opacity:1;" d="M 26.320312 22.546875 C 26 22.300781 25.5625 22.378906 25.324219 22.703125 C 25.21875 22.84375 25.113281 22.984375 25.007812 23.121094 C 24.757812 23.4375 24.804688 23.882812 25.125 24.125 C 25.519531 24.421875 25.910156 24.722656 26.304688 25.019531 C 26.625 25.261719 27.101562 25.210938 27.351562 24.894531 C 27.457031 24.757812 27.5625 24.621094 27.667969 24.480469 C 27.902344 24.152344 27.824219 23.683594 27.503906 23.4375 C 27.441406 23.394531 27.378906 23.347656 27.316406 23.300781 C 27.207031 23.46875 27.089844 23.636719 26.96875 23.804688 C 27.03125 23.851562 27.09375 23.894531 27.152344 23.941406 C 27.214844 23.988281 27.230469 24.078125 27.183594 24.140625 C 27.089844 24.269531 26.992188 24.394531 26.894531 24.523438 C 26.84375 24.582031 26.757812 24.59375 26.695312 24.546875 C 26.300781 24.25 25.910156 23.953125 25.515625 23.652344 C 25.453125 23.605469 25.441406 23.519531 25.492188 23.460938 C 25.589844 23.335938 25.6875 23.207031 25.78125 23.078125 C 25.824219 23.015625 25.914062 23 25.972656 23.046875 C 26.015625 23.082031 26.058594 23.113281 26.101562 23.144531 C 26.222656 22.980469 26.335938 22.8125 26.449219 22.640625 C 26.40625 22.609375 26.363281 22.578125 26.320312 22.546875 "/>
<path style=" stroke:none;fill-rule:nonzero;fill:rgb(63.921569%,56.862745%,38.039216%);fill-opacity:1;" d="M 26.695312 9.066406 C 28.039062 11.132812 28.75 13.53125 28.75 16.011719 C 28.75 18 28.304688 19.90625 27.429688 21.675781 L 27.777344 21.847656 C 28.683594 20.023438 29.140625 18.0625 29.140625 16.011719 C 29.140625 13.382812 28.367188 10.84375 26.902344 8.671875 Z M 26.695312 9.066406 "/>
<path style=" stroke:none;fill-rule:nonzero;fill:rgb(63.921569%,56.862745%,38.039216%);fill-opacity:1;" d="M 5.320312 9.066406 C 3.972656 11.132812 3.265625 13.53125 3.265625 16.011719 C 3.265625 18 3.710938 19.90625 4.585938 21.675781 L 4.238281 21.847656 C 3.332031 20.023438 2.875 18.0625 2.875 16.011719 C 2.875 13.382812 3.648438 10.84375 5.113281 8.671875 Z M 5.320312 9.066406 "/>
</g>
</svg>
