<?xml version="1.0" encoding="UTF-8"?>
<svg xmlns="http://www.w3.org/2000/svg" xmlns:xlink="http://www.w3.org/1999/xlink" width="32px" height="32px" viewBox="0 0 32 32" version="1.1">
<g id="surface1">
<path style=" stroke:none;fill-rule:evenodd;fill:rgb(15.686275%,16.078431%,36.078431%);fill-opacity:1;" d="M 31.921875 16 C 31.921875 24.792969 24.792969 31.921875 16 31.921875 C 7.207031 31.921875 0.078125 24.792969 0.078125 16 C 0.078125 7.207031 7.207031 0.078125 16 0.078125 C 24.792969 0.078125 31.921875 7.207031 31.921875 16 Z M 31.921875 16 "/>
<path style=" stroke:none;fill-rule:nonzero;fill:rgb(100%,100%,100%);fill-opacity:1;" d="M 16 5.578125 C 10.246094 5.578125 5.578125 10.246094 5.578125 16 C 5.578125 21.753906 10.246094 26.421875 16 26.421875 C 21.753906 26.421875 26.421875 21.753906 26.421875 16 C 26.421875 10.246094 21.753906 5.578125 16 5.578125 Z M 16 5.960938 C 21.546875 5.960938 26.039062 10.453125 26.039062 16 C 26.039062 21.546875 21.546875 26.039062 16 26.039062 C 10.453125 26.039062 5.960938 21.546875 5.960938 16 C 5.960938 10.453125 10.453125 5.960938 16 5.960938 Z M 16 5.960938 "/>
<path style=" stroke:none;fill-rule:nonzero;fill:rgb(90.588235%,41.960784%,19.215686%);fill-opacity:1;" d="M 16 0.746094 C 7.578125 0.746094 0.746094 7.578125 0.746094 16 C 0.746094 24.421875 7.578125 31.253906 16 31.253906 C 24.421875 31.253906 31.253906 24.421875 31.253906 16 C 31.253906 7.578125 24.421875 0.746094 16 0.746094 Z M 16 1.070312 C 24.246094 1.070312 30.925781 7.753906 30.925781 16 C 30.925781 24.246094 24.246094 30.929688 16 30.929688 C 7.753906 30.929688 1.074219 24.246094 1.074219 16 C 1.074219 7.753906 7.753906 1.070312 16 1.070312 Z M 16 1.070312 "/>
<path style=" stroke:none;fill-rule:nonzero;fill:rgb(47.058824%,64.705882%,85.882353%);fill-opacity:1;" d="M 16 1.726562 C 8.132812 1.726562 1.722656 8.136719 1.722656 16 C 1.722656 23.867188 8.132812 30.273438 16 30.273438 C 23.867188 30.273438 30.277344 23.867188 30.277344 16 C 30.277344 8.136719 23.867188 1.726562 16 1.726562 Z M 16 4.867188 C 22.171875 4.867188 27.117188 9.828125 27.117188 16 C 27.117188 22.171875 22.171875 27.105469 16 27.105469 C 9.828125 27.105469 4.882812 22.171875 4.882812 16 C 4.882812 9.828125 9.828125 4.867188 16 4.867188 Z M 3.347656 15.195312 L 4.164062 15.789062 L 3.847656 16.765625 L 2.828125 16.765625 L 2.507812 15.785156 Z M 28.664062 15.195312 L 29.480469 15.789062 L 29.164062 16.765625 L 28.144531 16.765625 L 27.828125 15.785156 Z M 28.664062 15.195312 "/>
<path style=" stroke:none;fill-rule:nonzero;fill:rgb(100%,100%,100%);fill-opacity:1;" d="M 10.550781 9.394531 L 9.84375 9.394531 L 9.84375 8.472656 L 12.300781 8.472656 L 12.300781 9.394531 L 11.882812 9.394531 L 15.953125 13.3125 L 18.632812 10.726562 C 18.910156 10.859375 19.183594 11.03125 19.457031 11.214844 L 16.429688 14.097656 L 16.429688 15.589844 L 15.519531 14.691406 L 15.519531 14.148438 Z M 10.550781 9.394531 "/>
<path style=" stroke:none;fill-rule:nonzero;fill:rgb(100%,100%,100%);fill-opacity:1;" d="M 20.019531 9.394531 L 19.574219 9.394531 L 19.574219 8.4375 L 22.03125 8.4375 L 22.03125 9.394531 L 21.328125 9.394531 L 20.460938 10.242188 C 20.199219 10.019531 19.9375 9.882812 19.675781 9.722656 Z M 20.019531 9.394531 "/>
<path style=" stroke:none;fill-rule:nonzero;fill:rgb(100%,100%,100%);fill-opacity:1;" d="M 12.632812 9.808594 L 13.359375 10.488281 C 13.359375 10.488281 14.457031 9.871094 16.011719 9.871094 C 18.753906 9.871094 20.941406 11.671875 21.839844 14.0625 L 22.816406 14.0625 L 22.816406 11.308594 L 21.902344 11.308594 L 21.902344 12.101562 C 20.789062 10.386719 18.628906 8.953125 16.019531 8.953125 C 14.019531 8.953125 12.632812 9.808594 12.632812 9.808594 Z M 12.632812 9.808594 "/>
<path style=" stroke:none;fill-rule:nonzero;fill:rgb(100%,100%,100%);fill-opacity:1;" d="M 13.832031 18.777344 L 13.832031 19.636719 L 11.566406 19.636719 L 11.566406 18.777344 L 12.25 18.777344 L 12.25 13.832031 L 11.597656 13.832031 L 11.597656 12.96875 L 13.351562 12.96875 L 18.96875 18.296875 L 18.96875 13.832031 L 18.296875 13.832031 L 18.296875 12.96875 L 20.5625 12.96875 L 20.5625 13.832031 L 19.859375 13.832031 L 19.859375 19.636719 L 19.117188 19.636719 L 13.160156 14.007812 L 13.160156 18.777344 Z M 13.832031 18.777344 "/>
<path style=" stroke:none;fill-rule:nonzero;fill:rgb(100%,100%,100%);fill-opacity:1;" d="M 15.25 22.15625 L 15.25 23.082031 C 11.664062 22.746094 8.917969 19.640625 8.917969 16.046875 C 8.917969 13.671875 9.988281 11.886719 11.453125 10.59375 L 12.128906 11.246094 C 10.734375 12.40625 9.839844 14.113281 9.839844 16.050781 C 9.839844 19.160156 12.222656 21.78125 15.25 22.15625 Z M 15.25 22.15625 "/>
<path style=" stroke:none;fill-rule:nonzero;fill:rgb(100%,100%,100%);fill-opacity:1;" d="M 16.6875 23.082031 L 16.6875 22.15625 C 19.109375 21.894531 21.246094 20.152344 21.890625 17.851562 L 22.855469 17.851562 C 22.152344 20.601562 19.691406 22.773438 16.6875 23.082031 Z M 16.6875 23.082031 "/>
<path style=" stroke:none;fill-rule:nonzero;fill:rgb(100%,100%,100%);fill-opacity:1;" d="M 17.148438 24.835938 L 14.820312 24.835938 L 14.820312 23.914062 L 15.488281 23.914062 L 15.488281 16.542969 L 16.429688 17.402344 L 16.429688 23.914062 L 17.148438 23.914062 Z M 17.148438 24.835938 "/>
<path style=" stroke:none;fill-rule:nonzero;fill:rgb(15.686275%,16.078431%,36.078431%);fill-opacity:1;" d="M 8.097656 7.203125 L 6.863281 5.996094 L 6.597656 6.261719 L 7.359375 7.007812 L 6.035156 6.84375 L 5.789062 7.09375 L 7.023438 8.300781 L 7.285156 8.03125 L 6.5 7.265625 L 7.871094 7.433594 Z M 8.097656 7.203125 "/>
<path style=" stroke:none;fill-rule:nonzero;fill:rgb(15.686275%,16.078431%,36.078431%);fill-opacity:1;" d="M 9.417969 6.167969 L 9.207031 5.902344 L 8.46875 6.480469 L 8.246094 6.195312 L 8.886719 5.695312 L 8.679688 5.425781 L 8.039062 5.929688 L 7.820312 5.652344 L 8.550781 5.082031 L 8.34375 4.816406 L 7.316406 5.617188 L 8.378906 6.980469 Z M 9.417969 6.167969 "/>
<path style=" stroke:none;fill-rule:nonzero;fill:rgb(15.686275%,16.078431%,36.078431%);fill-opacity:1;" d="M 11.015625 3.347656 L 10.664062 3.53125 L 10.882812 4.734375 L 10 3.867188 L 9.710938 4.015625 L 9.902344 5.238281 L 9.050781 4.363281 L 8.6875 4.550781 L 10.007812 5.824219 L 10.304688 5.675781 L 10.132812 4.492188 L 10.996094 5.316406 L 11.289062 5.164062 Z M 11.015625 3.347656 "/>
<path style=" stroke:none;fill-rule:nonzero;fill:rgb(15.686275%,16.078431%,36.078431%);fill-opacity:1;" d="M 13.8125 2.625 L 13.390625 2.722656 L 13.132812 3.488281 L 12.578125 2.902344 L 12.148438 3 L 13.023438 3.875 L 13.171875 4.539062 L 13.542969 4.457031 L 13.394531 3.785156 Z M 13.8125 2.625 "/>
<path style=" stroke:none;fill-rule:nonzero;fill:rgb(15.686275%,16.078431%,36.078431%);fill-opacity:1;" d="M 15.621094 2.71875 L 15.621094 2.714844 C 15.53125 2.628906 15.433594 2.5625 15.324219 2.519531 C 15.214844 2.476562 15.105469 2.457031 14.988281 2.460938 C 14.875 2.460938 14.761719 2.488281 14.652344 2.535156 C 14.539062 2.582031 14.4375 2.652344 14.34375 2.75 C 14.25 2.84375 14.183594 2.949219 14.136719 3.0625 C 14.089844 3.175781 14.070312 3.289062 14.070312 3.402344 C 14.070312 3.519531 14.09375 3.632812 14.140625 3.738281 C 14.183594 3.847656 14.25 3.945312 14.339844 4.03125 L 14.34375 4.035156 C 14.429688 4.121094 14.53125 4.183594 14.636719 4.226562 C 14.746094 4.269531 14.859375 4.292969 14.972656 4.289062 C 15.085938 4.285156 15.199219 4.261719 15.3125 4.214844 C 15.421875 4.167969 15.523438 4.097656 15.617188 4 C 15.710938 3.90625 15.78125 3.800781 15.824219 3.6875 C 15.871094 3.574219 15.894531 3.460938 15.890625 3.34375 C 15.890625 3.230469 15.867188 3.117188 15.824219 3.011719 C 15.777344 2.902344 15.710938 2.804688 15.621094 2.71875 Z M 15.347656 3.007812 C 15.402344 3.058594 15.441406 3.117188 15.472656 3.179688 C 15.5 3.242188 15.515625 3.308594 15.519531 3.375 C 15.523438 3.441406 15.511719 3.507812 15.488281 3.574219 C 15.460938 3.636719 15.425781 3.699219 15.371094 3.753906 C 15.316406 3.808594 15.257812 3.847656 15.191406 3.875 C 15.128906 3.898438 15.0625 3.910156 14.992188 3.910156 C 14.925781 3.910156 14.859375 3.894531 14.792969 3.867188 C 14.730469 3.839844 14.671875 3.796875 14.617188 3.746094 L 14.613281 3.742188 C 14.5625 3.691406 14.519531 3.632812 14.492188 3.570312 C 14.460938 3.507812 14.445312 3.441406 14.441406 3.375 C 14.4375 3.308594 14.449219 3.242188 14.472656 3.175781 C 14.5 3.113281 14.539062 3.050781 14.589844 2.996094 C 14.644531 2.941406 14.703125 2.902344 14.769531 2.878906 C 14.835938 2.851562 14.902344 2.839844 14.96875 2.839844 C 15.039062 2.839844 15.105469 2.855469 15.167969 2.882812 C 15.234375 2.910156 15.292969 2.949219 15.34375 3.003906 Z M 15.347656 3.007812 "/>
<path style=" stroke:none;fill-rule:nonzero;fill:rgb(15.686275%,16.078431%,36.078431%);fill-opacity:1;" d="M 17.730469 4.28125 L 17.351562 3.640625 C 17.464844 3.605469 17.558594 3.546875 17.628906 3.464844 C 17.703125 3.378906 17.746094 3.269531 17.753906 3.128906 L 17.753906 3.125 C 17.765625 2.945312 17.71875 2.800781 17.609375 2.695312 C 17.503906 2.585938 17.347656 2.527344 17.140625 2.511719 L 16.355469 2.460938 L 16.242188 4.1875 L 16.621094 4.210938 L 16.65625 3.660156 L 16.957031 3.679688 L 17.289062 4.253906 Z M 17.371094 3.125 C 17.363281 3.199219 17.335938 3.253906 17.28125 3.296875 C 17.230469 3.335938 17.15625 3.355469 17.0625 3.347656 L 16.679688 3.324219 L 16.710938 2.828125 L 17.085938 2.851562 C 17.179688 2.859375 17.253906 2.882812 17.304688 2.929688 C 17.351562 2.972656 17.375 3.035156 17.371094 3.117188 Z M 17.371094 3.125 "/>
<path style=" stroke:none;fill-rule:nonzero;fill:rgb(15.686275%,16.078431%,36.078431%);fill-opacity:1;" d="M 19.480469 4.683594 L 18.980469 3.554688 L 19.824219 2.992188 L 19.375 2.890625 L 18.527344 3.476562 L 18.691406 2.738281 L 18.320312 2.65625 L 17.945312 4.34375 L 18.316406 4.425781 L 18.433594 3.910156 L 18.671875 3.75 L 19.035156 4.585938 Z M 19.480469 4.683594 "/>
<path style=" stroke:none;fill-rule:nonzero;fill:rgb(15.686275%,16.078431%,36.078431%);fill-opacity:1;" d="M 21.835938 5.378906 L 21.714844 5.054688 C 21.628906 5.085938 21.546875 5.101562 21.46875 5.105469 C 21.394531 5.113281 21.308594 5.09375 21.21875 5.054688 C 21.152344 5.023438 21.097656 4.984375 21.050781 4.929688 C 21.007812 4.878906 20.976562 4.824219 20.957031 4.757812 C 20.9375 4.695312 20.929688 4.628906 20.933594 4.558594 C 20.9375 4.488281 20.953125 4.421875 20.984375 4.355469 L 20.988281 4.347656 C 21.015625 4.28125 21.058594 4.222656 21.105469 4.175781 C 21.15625 4.125 21.210938 4.085938 21.269531 4.058594 C 21.332031 4.035156 21.394531 4.019531 21.464844 4.019531 C 21.53125 4.019531 21.597656 4.035156 21.664062 4.0625 C 21.742188 4.097656 21.808594 4.148438 21.859375 4.207031 C 21.90625 4.269531 21.949219 4.339844 21.988281 4.421875 L 22.320312 4.265625 C 22.300781 4.214844 22.277344 4.164062 22.25 4.117188 C 22.222656 4.066406 22.1875 4.019531 22.148438 3.976562 C 22.105469 3.933594 22.058594 3.894531 22.003906 3.855469 C 21.949219 3.816406 21.882812 3.777344 21.808594 3.746094 C 21.6875 3.691406 21.566406 3.664062 21.449219 3.660156 C 21.328125 3.65625 21.214844 3.675781 21.109375 3.71875 C 21.003906 3.761719 20.910156 3.820312 20.824219 3.902344 C 20.742188 3.980469 20.671875 4.078125 20.621094 4.191406 L 20.621094 4.195312 C 20.570312 4.308594 20.542969 4.421875 20.539062 4.539062 C 20.535156 4.65625 20.550781 4.769531 20.589844 4.875 C 20.632812 4.980469 20.691406 5.074219 20.769531 5.160156 C 20.851562 5.246094 20.949219 5.316406 21.0625 5.367188 C 21.140625 5.402344 21.210938 5.425781 21.28125 5.441406 C 21.347656 5.457031 21.414062 5.464844 21.476562 5.460938 C 21.539062 5.460938 21.597656 5.453125 21.65625 5.4375 C 21.71875 5.421875 21.777344 5.402344 21.835938 5.378906 Z M 21.835938 5.378906 "/>
<path style=" stroke:none;fill-rule:nonzero;fill:rgb(15.686275%,16.078431%,36.078431%);fill-opacity:1;" d="M 22.253906 6.003906 L 23.152344 4.527344 L 22.828125 4.332031 L 21.929688 5.804688 Z M 22.253906 6.003906 "/>
<path style=" stroke:none;fill-rule:nonzero;fill:rgb(15.686275%,16.078431%,36.078431%);fill-opacity:1;" d="M 24.472656 5.894531 L 24.683594 5.613281 L 23.539062 4.753906 L 23.328125 5.035156 L 23.75 5.351562 L 22.921875 6.453125 L 23.226562 6.679688 L 24.050781 5.578125 Z M 24.472656 5.894531 "/>
<path style=" stroke:none;fill-rule:nonzero;fill:rgb(15.686275%,16.078431%,36.078431%);fill-opacity:1;" d="M 26.128906 7.007812 L 25.824219 6.703125 L 25.039062 6.898438 L 25.234375 6.117188 L 24.921875 5.804688 L 24.652344 7.011719 L 24.171875 7.496094 L 24.441406 7.765625 L 24.925781 7.277344 Z M 26.128906 7.007812 "/>
<path style="fill-rule:nonzero;fill:rgb(15.686275%,16.078431%,36.078431%);fill-opacity:1;stroke-width:3.995992;stroke-linecap:butt;stroke-linejoin:miter;stroke:rgb(15.686275%,16.078431%,36.078431%);stroke-opacity:1;stroke-miterlimit:4;" d="M -47.773948 774.093176 L -72.016722 747.279199 L -108.136006 782.1741 L -104.707735 786.092125 L -88.913201 770.909781 L -70.547463 791.356969 L -66.874316 787.683822 L -85.240053 767.236634 L -72.261599 754.87037 L -51.569534 777.766323 Z M -47.773948 774.093176 " transform="matrix(0.0319038,0,0,0.0319038,9.364016,-0.0910736)"/>
<path style="fill-rule:nonzero;fill:rgb(15.686275%,16.078431%,36.078431%);fill-opacity:1;stroke-width:3.995992;stroke-linecap:butt;stroke-linejoin:miter;stroke:rgb(15.686275%,16.078431%,36.078431%);stroke-opacity:1;stroke-miterlimit:4;" d="M 81.643284 858.820446 L 98.294886 865.064797 L 100.009021 860.167267 L 62.542916 846.209306 L 60.951219 851.106836 L 76.745754 856.983872 L 62.175602 899.469946 L 67.073132 901.428958 Z M 81.643284 858.820446 " transform="matrix(0.0319038,0,0,0.0319038,9.364016,-0.0910736)"/>
<path style="fill-rule:nonzero;fill:rgb(15.686275%,16.078431%,36.078431%);fill-opacity:1;stroke-width:3.995992;stroke-linecap:butt;stroke-linejoin:miter;stroke:rgb(15.686275%,16.078431%,36.078431%);stroke-opacity:1;stroke-miterlimit:4;" d="M 134.291732 868.125753 L 112.130408 862.983347 L 101.845595 912.203524 L 124.863987 917.468369 C 127.312752 918.08056 129.639078 918.325436 131.720529 918.202998 C 133.924417 918.08056 135.760991 917.713245 137.475127 916.856177 C 139.066824 916.121548 140.536083 914.897165 141.638027 913.427906 C 142.739971 911.958647 143.474601 910.122073 143.964354 908.040623 C 144.331669 906.326488 144.331669 904.857229 144.086792 903.38797 C 143.841916 901.918711 143.474601 900.694328 142.739971 899.469946 C 142.12778 898.368001 141.270712 897.266057 140.291206 896.286551 C 139.189262 895.307045 138.087318 894.449977 136.862935 893.715348 C 137.842441 893.470471 138.821947 893.225595 139.801453 892.735842 C 140.780959 892.368527 141.638027 891.756336 142.495095 891.021706 C 143.474601 890.287077 144.20923 889.307571 144.821422 888.205626 C 145.556051 887.103682 146.045804 885.634423 146.290681 884.042726 C 146.780434 882.206152 146.780434 880.369578 146.413119 878.655443 C 146.045804 877.063746 145.311175 875.472048 144.20923 874.125227 C 143.229724 872.778407 141.882904 871.554024 140.168768 870.45208 C 138.454633 869.472574 136.49562 868.615506 134.291732 868.125753 Z M 128.904449 889.797324 L 112.497723 886.124176 L 116.048432 869.227697 L 132.822473 873.023283 C 136.005867 873.757913 138.332194 875.104733 139.679015 876.941307 C 141.148274 878.900319 141.638027 881.104208 141.025836 883.552973 C 140.413645 886.491491 139.066824 888.450503 136.862935 889.430009 C 134.536608 890.409515 131.965405 890.531953 128.904449 889.797324 Z M 126.088369 912.570839 L 107.84507 908.407938 L 111.518217 891.021706 L 128.782011 894.93973 C 132.700035 895.796798 135.516114 897.388495 137.23025 899.347507 C 138.944386 901.428958 139.434139 903.755284 138.944386 906.448926 C 138.332194 909.265006 136.862935 911.224018 134.659047 912.203524 C 132.33272 913.305468 129.51664 913.305468 126.088369 912.570839 Z M 126.088369 912.570839 " transform="matrix(0.0319038,0,0,0.0319038,9.364016,-0.0910736)"/>
<path style="fill-rule:nonzero;fill:rgb(15.686275%,16.078431%,36.078431%);fill-opacity:1;stroke-width:3.995992;stroke-linecap:butt;stroke-linejoin:miter;stroke:rgb(15.686275%,16.078431%,36.078431%);stroke-opacity:1;stroke-miterlimit:4;" d="M 188.654316 873.880351 L 183.756786 873.513036 L 158.167191 923.590281 L 163.432036 924.080034 L 170.778331 910.856703 L 198.082061 912.325962 L 202.979591 926.039046 L 208.489312 926.406361 Z M 196.123049 907.061117 L 172.982219 905.959173 L 185.960674 880.369578 Z M 196.123049 907.061117 " transform="matrix(0.0319038,0,0,0.0319038,9.364016,-0.0910736)"/>
<path style="fill-rule:nonzero;fill:rgb(15.686275%,16.078431%,36.078431%);fill-opacity:1;stroke-width:3.995992;stroke-linecap:butt;stroke-linejoin:miter;stroke:rgb(15.686275%,16.078431%,36.078431%);stroke-opacity:1;stroke-miterlimit:4;" d="M 280.605443 919.182504 L 314.031085 913.060592 L 312.929141 907.918185 L 284.768343 913.18303 L 275.463036 869.227697 L 270.32063 870.084765 Z M 280.605443 919.182504 " transform="matrix(0.0319038,0,0,0.0319038,9.364016,-0.0910736)"/>
<path style="fill-rule:nonzero;fill:rgb(15.686275%,16.078431%,36.078431%);fill-opacity:1;stroke-width:3.995992;stroke-linecap:butt;stroke-linejoin:miter;stroke:rgb(15.686275%,16.078431%,36.078431%);stroke-opacity:1;stroke-miterlimit:4;" d="M 457.773593 779.847774 L 453.733131 783.031168 L 472.71106 806.04956 C 476.261769 810.334898 477.118837 813.395855 477.118837 817.558755 C 477.118837 821.844094 474.180319 825.394803 470.996924 828.088445 C 467.568653 831.026963 465.119888 832.496222 459.855043 832.496222 C 455.937019 832.496222 451.406804 829.680142 447.856095 825.517242 L 429.123042 802.743727 L 425.08258 806.04956 L 444.060509 829.067951 C 446.264397 831.884031 448.835601 833.843043 451.284366 835.312302 C 453.855569 836.781561 456.671649 838.005943 459.732605 838.005943 C 465.487203 838.005943 469.16035 836.414246 474.05788 832.496222 C 478.710534 829.067951 482.873435 823.313353 482.873435 817.069002 C 482.995873 811.069528 479.567602 805.437368 476.139331 801.519344 Z M 457.773593 779.847774 " transform="matrix(0.0319038,0,0,0.0319038,9.364016,-0.0910736)"/>
<path style="fill-rule:nonzero;fill:rgb(15.686275%,16.078431%,36.078431%);fill-opacity:1;stroke-width:3.995992;stroke-linecap:butt;stroke-linejoin:miter;stroke:rgb(15.686275%,16.078431%,36.078431%);stroke-opacity:1;stroke-miterlimit:4;" d="M 227.956995 924.692225 L 261.749952 923.222966 L 261.382637 917.958122 L 232.732086 919.304942 L 229.67113 874.492542 L 224.528723 874.61498 Z M 227.956995 924.692225 " transform="matrix(0.0319038,0,0,0.0319038,9.364016,-0.0910736)"/>
<path style="fill-rule:nonzero;fill:rgb(15.686275%,16.078431%,36.078431%);fill-opacity:1;stroke-width:3.995992;stroke-linecap:butt;stroke-linejoin:miter;stroke:rgb(15.686275%,16.078431%,36.078431%);stroke-opacity:1;stroke-miterlimit:4;" d="M 414.308014 872.288654 L 443.448317 854.902422 L 440.632238 850.494645 L 416.022149 865.187235 L 391.901814 827.231377 L 387.494036 829.80258 Z M 414.308014 872.288654 " transform="matrix(0.0319038,0,0,0.0319038,9.364016,-0.0910736)"/>
<path style="fill:none;stroke-width:9.014959;stroke-linecap:square;stroke-linejoin:round;stroke:rgb(15.686275%,16.078431%,36.078431%);stroke-opacity:1;stroke-miterlimit:4;" d="M -13.426189 817.057696 C -13.426189 829.257444 -23.324097 839.155352 -35.523844 839.155352 C -47.838683 839.155352 -57.736591 829.257444 -57.736591 817.057696 C -57.736591 804.742857 -47.838683 794.844949 -35.523844 794.844949 C -23.324097 794.844949 -13.426189 804.742857 -13.426189 817.057696 Z M -13.426189 817.057696 " transform="matrix(0.0339403,0,0,0.0339403,9.443969,-1.762394)"/>
<path style="fill:none;stroke-width:9.014959;stroke-linecap:square;stroke-linejoin:round;stroke:rgb(15.686275%,16.078431%,36.078431%);stroke-opacity:1;stroke-miterlimit:4;" d="M -13.398581 817.049861 C -13.398581 829.249608 -23.296489 839.147516 -35.611329 839.147516 C -47.811076 839.147516 -57.708984 829.249608 -57.708984 817.049861 C -57.708984 804.850113 -47.811076 794.837113 -35.611329 794.837113 C -23.296489 794.837113 -13.398581 804.850113 -13.398581 817.049861 Z M -13.398581 817.049861 " transform="matrix(0.0339403,0,0,0.0339403,11.24772,-0.582441)"/>
<path style="fill-rule:nonzero;fill:rgb(15.686275%,16.078431%,36.078431%);fill-opacity:1;stroke-width:3.995992;stroke-linecap:butt;stroke-linejoin:miter;stroke:rgb(15.686275%,16.078431%,36.078431%);stroke-opacity:1;stroke-miterlimit:4;" d="M 484.220255 752.299167 L 468.548159 768.950769 L 505.891826 802.49885 L 522.176113 785.357495 C 523.890249 783.520921 525.23707 781.684347 526.216576 779.725335 C 527.196082 777.888762 527.808273 776.052188 527.930711 774.215614 C 528.053149 772.37904 527.808273 770.542467 527.073643 768.828331 C 526.339014 767.114195 525.114631 765.522498 523.522934 764.053239 C 522.298552 762.951295 520.951731 762.094227 519.60491 761.604474 C 518.258089 761.114721 516.911268 760.747406 515.564448 760.747406 C 514.217627 760.747406 512.870806 760.992283 511.523985 761.359598 C 510.177165 761.726912 508.830344 762.339104 507.605961 763.073733 C 507.973276 762.094227 508.095714 761.114721 508.218153 760.012777 C 508.340591 759.033271 508.340591 757.931327 508.095714 756.706944 C 507.850838 755.605 507.483523 754.503056 506.871332 753.278673 C 506.136702 752.176729 505.279635 751.074785 504.055252 749.97284 C 502.585993 748.626019 500.994296 747.768952 499.402598 747.279199 C 497.810901 746.667007 496.096766 746.544569 494.38263 746.789446 C 492.668495 747.034322 490.954359 747.524075 489.117785 748.503581 C 487.40365 749.360649 485.811953 750.70747 484.220255 752.299167 Z M 500.259666 767.848825 L 488.750471 780.215088 L 475.894454 768.705893 L 487.648526 756.094753 C 489.974853 753.645988 492.30118 752.421605 494.627507 752.176729 C 496.953833 751.809414 499.035284 752.544044 500.871858 754.258179 C 503.075746 756.217191 504.055252 758.42108 503.810376 760.869845 C 503.565499 763.31861 502.341117 765.644936 500.259666 767.848825 Z M 518.380528 781.806786 L 505.646949 795.51987 L 492.546056 783.643359 L 504.545005 770.664905 C 507.361085 767.603949 510.054726 766.012251 512.62593 765.522498 C 515.197133 765.032745 517.52346 765.767375 519.60491 767.603949 C 521.808799 769.562961 522.665866 771.766849 522.42099 774.215614 C 522.176113 776.786817 520.829293 779.235582 518.380528 781.806786 Z M 518.380528 781.806786 " transform="matrix(0.0319038,0,0,0.0319038,9.364016,-0.0910736)"/>
<path style=" stroke:none;fill-rule:nonzero;fill:rgb(15.686275%,16.078431%,36.078431%);fill-opacity:1;" d="M 21.746094 27.707031 C 21.640625 27.957031 21.492188 28.140625 21.160156 28.140625 C 20.828125 28.140625 20.5625 27.875 20.5625 27.542969 C 20.5625 27.210938 20.828125 26.945312 21.160156 26.945312 C 21.253906 26.945312 21.339844 26.964844 21.417969 27.003906 L 21.515625 26.710938 C 21.40625 26.664062 21.285156 26.640625 21.160156 26.640625 C 20.664062 26.640625 20.253906 27.046875 20.253906 27.542969 C 20.253906 28.042969 20.664062 28.449219 21.160156 28.449219 C 21.570312 28.449219 21.917969 28.175781 22.027344 27.800781 "/>
</g>
</svg>
