<?xml version="1.0" encoding="UTF-8"?>
<svg xmlns="http://www.w3.org/2000/svg" xmlns:xlink="http://www.w3.org/1999/xlink" width="32px" height="32px" viewBox="0 0 32 25" version="1.1">
<g id="surface1">
<path style=" stroke:none;fill-rule:nonzero;fill:rgb(100%,100%,100%);fill-opacity:1;" d="M 31.984375 15.496094 C 31.972656 15.449219 31.957031 15.402344 31.941406 15.363281 L 31.929688 15.328125 C 31.917969 15.300781 31.90625 15.269531 31.894531 15.238281 C 31.890625 15.226562 31.886719 15.210938 31.882812 15.199219 C 31.882812 15.191406 31.882812 15.183594 31.882812 15.175781 C 31.898438 15.011719 31.855469 14.925781 31.789062 14.8125 C 31.734375 14.726562 31.664062 14.691406 31.613281 14.6875 C 31.601562 14.722656 31.570312 14.742188 31.53125 14.742188 C 31.527344 14.742188 31.519531 14.742188 31.515625 14.742188 C 31.46875 14.734375 31.433594 14.691406 31.441406 14.644531 C 31.441406 14.632812 31.441406 14.621094 31.445312 14.605469 C 31.445312 14.5625 31.433594 14.523438 31.414062 14.484375 C 31.355469 14.378906 30.941406 14.050781 30.785156 14.050781 C 30.660156 14.050781 30.527344 14.117188 30.429688 14.230469 C 30.414062 14.25 30.386719 14.261719 30.359375 14.261719 C 30.355469 14.261719 30.355469 14.261719 30.351562 14.261719 C 30.320312 14.257812 30.292969 14.242188 30.28125 14.214844 C 30.265625 14.191406 30.253906 14.164062 30.242188 14.136719 C 30.214844 14.066406 30.199219 13.992188 30.183594 13.921875 L 30.171875 13.867188 C 30.125 13.679688 30.0625 13.492188 29.808594 13.421875 C 29.789062 13.414062 29.761719 13.410156 29.726562 13.410156 C 29.699219 13.40625 29.667969 13.40625 29.640625 13.402344 L 29.617188 13.402344 C 29.566406 13.402344 29.511719 13.402344 29.460938 13.394531 C 29.355469 13.378906 29.285156 13.347656 29.285156 13.230469 C 29.285156 13.222656 29.285156 13.210938 29.289062 13.203125 L 29.316406 13.125 C 29.339844 13.066406 29.367188 12.980469 29.390625 12.875 C 29.4375 12.679688 29.4375 12.503906 29.402344 12.347656 C 29.394531 12.316406 29.402344 12.289062 29.425781 12.265625 C 29.441406 12.25 29.464844 12.238281 29.492188 12.238281 C 29.496094 12.238281 29.5 12.238281 29.503906 12.238281 C 29.609375 12.253906 29.695312 12.257812 29.71875 12.257812 C 30.261719 12.257812 31.125 11.914062 31.125 10.988281 C 31.125 10.457031 30.679688 9.953125 30.308594 9.621094 C 30.285156 9.601562 30.273438 9.566406 30.28125 9.535156 C 30.289062 9.503906 30.316406 9.480469 30.347656 9.472656 C 30.875 9.339844 31.167969 8.996094 31.167969 8.511719 L 31.167969 8.480469 C 31.167969 8.402344 31.167969 8.316406 31.152344 8.226562 C 31.128906 8.09375 31.082031 7.976562 31.003906 7.859375 C 30.992188 7.847656 30.980469 7.835938 30.953125 7.835938 C 30.941406 7.835938 30.933594 7.835938 30.929688 7.835938 C 30.910156 7.84375 30.886719 7.855469 30.871094 7.867188 C 30.820312 7.898438 30.75 7.957031 30.691406 8.003906 C 30.628906 8.058594 30.550781 8.097656 30.441406 8.132812 C 30.375 8.152344 30.308594 8.171875 30.234375 8.191406 C 30.195312 8.199219 30.15625 8.210938 30.113281 8.222656 C 29.863281 8.289062 29.585938 8.390625 29.28125 8.652344 C 29.140625 8.769531 29.042969 8.96875 29.035156 9.15625 C 29.027344 9.316406 29.085938 9.480469 29.222656 9.660156 C 29.335938 9.8125 29.492188 9.960938 29.652344 10.109375 L 29.707031 10.160156 C 29.765625 10.214844 29.824219 10.269531 29.878906 10.324219 C 29.964844 10.402344 30.027344 10.46875 30.078125 10.53125 C 30.207031 10.683594 30.265625 10.808594 30.265625 10.925781 C 30.265625 11.171875 30.082031 11.339844 29.804688 11.339844 C 29.5 11.335938 29.261719 11.222656 28.933594 11.011719 C 28.882812 10.980469 28.832031 10.945312 28.78125 10.914062 C 28.671875 10.839844 28.558594 10.765625 28.433594 10.691406 C 28.207031 10.554688 27.996094 10.445312 27.773438 10.347656 C 27.710938 10.320312 27.648438 10.296875 27.585938 10.277344 L 27.585938 0 L 4.617188 0 L 4.617188 10.296875 C 4.5 10.324219 4.386719 10.363281 4.277344 10.414062 C 4.121094 10.484375 3.964844 10.574219 3.769531 10.707031 C 3.6875 10.761719 3.605469 10.820312 3.523438 10.878906 C 3.449219 10.929688 3.378906 10.980469 3.304688 11.03125 C 2.984375 11.25 2.707031 11.394531 2.40625 11.394531 C 2.113281 11.394531 1.902344 11.226562 1.875 10.964844 C 1.847656 10.738281 1.96875 10.507812 2.214844 10.316406 L 2.347656 10.210938 C 2.449219 10.132812 2.542969 10.058594 2.628906 9.988281 C 2.769531 9.871094 2.867188 9.773438 2.941406 9.679688 C 3.125 9.445312 3.171875 9.203125 3.09375 8.898438 C 3.019531 8.621094 2.800781 8.433594 2.425781 8.324219 C 2.289062 8.285156 2.152344 8.261719 2.023438 8.242188 L 1.976562 8.234375 C 1.9375 8.226562 1.902344 8.222656 1.871094 8.214844 C 1.832031 8.210938 1.800781 8.203125 1.785156 8.195312 C 1.578125 8.105469 1.132812 7.816406 1.042969 7.757812 L 1.007812 7.734375 L 0.984375 7.769531 C 0.902344 7.882812 0.835938 7.972656 0.789062 8.367188 C 0.734375 8.804688 1.105469 9.335938 1.742188 9.433594 C 1.777344 9.4375 1.804688 9.464844 1.816406 9.496094 C 1.824219 9.53125 1.8125 9.566406 1.78125 9.589844 C 1.109375 10.101562 0.964844 10.324219 0.929688 10.898438 C 0.910156 11.257812 1.039062 11.609375 1.285156 11.863281 C 1.554688 12.140625 1.945312 12.289062 2.417969 12.289062 C 2.542969 12.289062 2.675781 12.277344 2.8125 12.257812 C 2.816406 12.257812 2.820312 12.257812 2.824219 12.257812 C 2.847656 12.257812 2.867188 12.261719 2.882812 12.273438 C 2.902344 12.289062 2.914062 12.3125 2.914062 12.335938 C 2.945312 12.738281 3.023438 13.066406 3.117188 13.210938 C 3.140625 13.246094 3.132812 13.292969 3.101562 13.324219 C 3.070312 13.347656 3.027344 13.375 2.96875 13.394531 C 2.824219 13.449219 2.605469 13.484375 2.390625 13.484375 C 2.253906 13.484375 2.152344 13.574219 2.070312 13.769531 C 2.042969 13.832031 2.023438 13.898438 2.003906 13.964844 L 1.996094 13.980469 C 1.984375 14.015625 1.976562 14.042969 1.964844 14.070312 C 1.957031 14.097656 1.945312 14.121094 1.933594 14.140625 C 1.910156 14.1875 1.867188 14.230469 1.8125 14.28125 C 1.796875 14.292969 1.773438 14.300781 1.753906 14.300781 C 1.746094 14.300781 1.742188 14.300781 1.738281 14.300781 C 1.710938 14.296875 1.6875 14.28125 1.671875 14.257812 C 1.605469 14.140625 1.503906 14.066406 1.363281 14.035156 L 1.34375 14.035156 C 1.136719 14.035156 0.78125 14.207031 0.648438 14.523438 C 0.636719 14.554688 0.609375 14.574219 0.574219 14.578125 L 0.558594 14.582031 C 0.394531 14.597656 0.289062 14.671875 0.230469 14.8125 C 0.207031 14.875 0.191406 14.941406 0.179688 15 L 0.171875 15.042969 C 0.164062 15.09375 0.152344 15.144531 0.140625 15.191406 C 0.128906 15.230469 0.113281 15.265625 0.09375 15.300781 C 0.0820312 15.320312 0.0703125 15.335938 0.0625 15.355469 C 0.0546875 15.367188 0.046875 15.378906 0.0390625 15.390625 C 0.00390625 15.453125 -0.015625 15.519531 0.015625 15.636719 C 0.0273438 15.6875 0.0703125 15.734375 0.140625 15.769531 C 0.191406 15.796875 0.261719 15.820312 0.339844 15.839844 C 0.484375 15.875 0.628906 15.882812 0.652344 15.882812 C 0.675781 15.882812 0.695312 15.878906 0.710938 15.867188 C 0.726562 15.859375 0.738281 15.851562 0.753906 15.839844 C 0.769531 15.828125 0.792969 15.820312 0.816406 15.820312 C 0.820312 15.820312 0.824219 15.820312 0.828125 15.820312 L 0.894531 15.832031 C 0.949219 15.84375 1.019531 15.855469 1.085938 15.871094 L 1.097656 15.871094 C 1.164062 15.886719 1.226562 15.898438 1.28125 15.90625 C 1.308594 15.914062 1.335938 15.917969 1.351562 15.917969 C 1.375 15.921875 1.390625 15.925781 1.398438 15.925781 L 1.402344 15.925781 C 1.683594 15.910156 1.804688 15.804688 1.886719 15.699219 C 1.90625 15.671875 1.925781 15.640625 1.949219 15.609375 L 1.980469 15.554688 L 2.003906 15.515625 C 2.027344 15.476562 2.050781 15.441406 2.074219 15.40625 C 2.09375 15.386719 2.121094 15.371094 2.148438 15.371094 C 2.15625 15.371094 2.164062 15.371094 2.171875 15.375 C 2.203125 15.382812 2.238281 15.390625 2.265625 15.394531 C 2.332031 15.40625 2.390625 15.410156 2.417969 15.414062 C 2.4375 15.414062 2.453125 15.414062 2.472656 15.414062 C 2.742188 15.414062 2.941406 15.269531 3.109375 15.132812 L 3.164062 15.085938 C 3.1875 15.066406 3.214844 15.042969 3.238281 15.023438 C 3.273438 14.996094 3.316406 14.964844 3.363281 14.933594 C 3.441406 14.882812 3.511719 14.859375 3.578125 14.859375 L 3.59375 14.859375 C 3.660156 14.863281 3.902344 14.878906 4.316406 14.941406 C 4.332031 14.945312 4.351562 14.945312 4.367188 14.945312 C 4.4375 14.945312 4.523438 14.929688 4.617188 14.894531 L 4.617188 16.785156 C 4.617188 18.113281 4.792969 18.621094 5.214844 19.332031 L 5.238281 19.371094 L 5.265625 19.410156 C 7.703125 22.941406 11.753906 25.046875 16.101562 25.046875 C 20.449219 25.046875 24.5 22.941406 26.9375 19.410156 L 26.964844 19.371094 L 26.988281 19.332031 C 27.410156 18.621094 27.585938 18.113281 27.585938 16.785156 L 27.585938 14.964844 C 27.613281 14.96875 27.644531 14.96875 27.679688 14.96875 C 27.746094 14.96875 27.816406 14.960938 27.886719 14.941406 C 27.964844 14.921875 28.042969 14.914062 28.121094 14.914062 C 28.160156 14.914062 28.203125 14.917969 28.238281 14.921875 C 28.339844 14.929688 28.429688 14.953125 28.503906 14.972656 L 28.523438 14.976562 C 28.640625 15.003906 28.753906 15.050781 28.863281 15.113281 C 28.957031 15.167969 29.035156 15.226562 29.109375 15.28125 L 29.128906 15.296875 C 29.277344 15.40625 29.433594 15.519531 29.648438 15.519531 C 29.65625 15.519531 29.667969 15.519531 29.675781 15.519531 C 29.691406 15.515625 29.707031 15.511719 29.714844 15.511719 C 29.726562 15.507812 29.738281 15.503906 29.753906 15.5 C 29.785156 15.488281 29.820312 15.472656 29.855469 15.460938 C 29.886719 15.449219 29.925781 15.433594 29.96875 15.425781 C 29.976562 15.425781 29.980469 15.421875 29.988281 15.421875 C 30.015625 15.421875 30.046875 15.4375 30.0625 15.460938 C 30.074219 15.476562 30.085938 15.496094 30.097656 15.515625 C 30.117188 15.546875 30.140625 15.582031 30.167969 15.617188 C 30.25 15.722656 30.402344 15.863281 30.757812 15.871094 C 30.789062 15.871094 30.820312 15.871094 30.851562 15.871094 C 31.035156 15.871094 31.148438 15.859375 31.199219 15.851562 C 31.203125 15.847656 31.207031 15.847656 31.214844 15.847656 C 31.230469 15.847656 31.25 15.855469 31.265625 15.863281 C 31.304688 15.890625 31.34375 15.902344 31.386719 15.902344 C 31.480469 15.902344 31.625 15.875 31.738281 15.832031 C 31.808594 15.808594 31.863281 15.78125 31.90625 15.75 C 31.957031 15.710938 31.988281 15.667969 31.996094 15.621094 C 32.003906 15.585938 32 15.546875 31.984375 15.496094 "/>
<path style=" stroke:none;fill-rule:nonzero;fill:rgb(13.72549%,19.607843%,41.568627%);fill-opacity:1;" d="M 26.71875 14.496094 C 26.5625 14.289062 26.460938 14.019531 26.417969 13.714844 C 26.417969 13.6875 26.402344 13.667969 26.378906 13.652344 C 26.363281 13.644531 26.347656 13.636719 26.328125 13.636719 C 26.320312 13.636719 26.3125 13.640625 26.300781 13.640625 C 26.269531 13.652344 26.238281 13.660156 26.203125 13.667969 L 26.203125 16.785156 C 26.203125 17.929688 26.066406 18.199219 25.789062 18.664062 C 23.6875 21.707031 20.132812 23.707031 16.101562 23.707031 C 12.070312 23.707031 8.515625 21.707031 6.414062 18.664062 C 6.136719 18.199219 6 17.929688 6 16.785156 L 6 13.679688 C 5.992188 13.679688 5.984375 13.679688 5.976562 13.679688 L 5.953125 13.679688 C 5.917969 13.679688 5.886719 13.699219 5.871094 13.726562 C 5.828125 13.804688 5.789062 13.882812 5.753906 13.957031 L 5.6875 14.09375 C 5.625 14.214844 5.558594 14.335938 5.511719 14.390625 C 5.472656 14.441406 5.425781 14.480469 5.378906 14.511719 L 5.378906 16.785156 C 5.378906 18 5.53125 18.382812 5.875 18.964844 L 5.886719 18.980469 L 5.898438 19 C 8.195312 22.324219 12.007812 24.308594 16.101562 24.308594 C 20.195312 24.308594 24.007812 22.324219 26.304688 19 L 26.316406 18.980469 L 26.328125 18.964844 C 26.671875 18.382812 26.824219 18 26.824219 16.785156 L 26.824219 14.597656 C 26.78125 14.566406 26.746094 14.53125 26.71875 14.496094 "/>
<path style=" stroke:none;fill-rule:nonzero;fill:rgb(13.72549%,19.607843%,41.568627%);fill-opacity:1;" d="M 5.871094 9.894531 L 5.90625 9.863281 C 5.9375 9.835938 5.96875 9.808594 6 9.78125 L 6 1.339844 L 26.203125 1.339844 L 26.203125 9.734375 C 26.265625 9.773438 26.324219 9.816406 26.386719 9.855469 C 26.4375 9.890625 26.492188 9.925781 26.542969 9.957031 C 26.636719 10.019531 26.726562 10.058594 26.824219 10.085938 L 26.824219 0.738281 L 5.378906 0.738281 L 5.378906 10.179688 C 5.472656 10.15625 5.566406 10.121094 5.660156 10.0625 C 5.71875 10.023438 5.78125 9.972656 5.871094 9.894531 "/>
<path style=" stroke:none;fill-rule:nonzero;fill:rgb(13.72549%,19.607843%,41.568627%);fill-opacity:1;" d="M 5.230469 10.210938 L 5.230469 0.59375 L 26.972656 0.59375 L 26.972656 10.128906 C 27.007812 10.136719 27.046875 10.144531 27.089844 10.152344 L 27.132812 10.160156 C 27.191406 10.171875 27.253906 10.1875 27.316406 10.199219 L 27.316406 0.261719 L 4.886719 0.261719 L 4.886719 10.246094 C 4.941406 10.242188 4.992188 10.238281 5.042969 10.230469 C 5.105469 10.226562 5.171875 10.21875 5.230469 10.210938 "/>
<path style=" stroke:none;fill-rule:nonzero;fill:rgb(13.72549%,19.607843%,41.568627%);fill-opacity:1;" d="M 26.988281 14.707031 C 26.984375 14.703125 26.976562 14.699219 26.972656 14.695312 L 26.972656 16.785156 C 26.972656 18.035156 26.8125 18.429688 26.457031 19.035156 L 26.441406 19.058594 L 26.429688 19.078125 C 24.105469 22.445312 20.242188 24.453125 16.101562 24.453125 C 11.960938 24.453125 8.097656 22.445312 5.773438 19.078125 L 5.757812 19.058594 L 5.746094 19.035156 C 5.390625 18.429688 5.230469 18.035156 5.230469 16.785156 L 5.230469 14.59375 C 5.207031 14.605469 5.183594 14.617188 5.160156 14.628906 L 5.148438 14.632812 C 5.113281 14.648438 5.082031 14.660156 5.058594 14.675781 C 5 14.710938 4.941406 14.746094 4.886719 14.773438 L 4.886719 16.785156 C 4.886719 18.109375 5.066406 18.558594 5.449219 19.203125 L 5.488281 19.265625 C 7.878906 22.722656 11.84375 24.789062 16.101562 24.789062 C 20.359375 24.789062 24.324219 22.722656 26.714844 19.265625 L 26.753906 19.203125 C 27.136719 18.558594 27.316406 18.109375 27.316406 16.785156 L 27.316406 14.886719 C 27.21875 14.84375 27.132812 14.792969 27.054688 14.746094 C 27.03125 14.730469 27.011719 14.71875 26.988281 14.707031 "/>
<path style=" stroke:none;fill-rule:nonzero;fill:rgb(98.039216%,73.333333%,13.72549%);fill-opacity:1;" d="M 21.042969 13.246094 C 21.019531 13.40625 21.226562 13.652344 21.289062 13.765625 C 21.316406 13.707031 21.492188 13.320312 21.519531 13.273438 C 21.433594 13.265625 21.199219 13.265625 21.042969 13.246094 "/>
<path style=" stroke:none;fill-rule:nonzero;fill:rgb(98.039216%,73.333333%,13.72549%);fill-opacity:1;" d="M 10.933594 13.648438 C 11.015625 13.503906 11.109375 13.484375 11.171875 13.410156 C 11.207031 13.3125 11.257812 13.253906 11.324219 13.167969 C 11.15625 13.195312 10.839844 13.253906 10.703125 13.277344 C 10.734375 13.371094 10.765625 13.585938 10.933594 13.648438 "/>
<path style=" stroke:none;fill-rule:nonzero;fill:rgb(98.039216%,73.333333%,13.72549%);fill-opacity:1;" d="M 21.304688 14.714844 C 21.296875 14.683594 21.285156 14.648438 21.277344 14.617188 C 21.269531 14.578125 21.234375 14.550781 21.191406 14.546875 C 21.148438 14.546875 21.113281 14.574219 21.105469 14.609375 C 21.058594 14.75 20.9375 14.988281 20.609375 15.007812 C 20.601562 15.007812 20.59375 15.007812 20.585938 15.007812 C 20.4375 15.007812 20.246094 14.9375 20.121094 14.890625 L 20.0625 14.867188 C 19.996094 14.84375 19.933594 14.820312 19.871094 14.800781 C 19.785156 14.769531 19.722656 14.753906 19.675781 14.75 C 19.660156 14.75 19.648438 14.75 19.636719 14.75 C 19.617188 14.75 19.597656 14.75 19.574219 14.753906 C 19.539062 14.753906 19.5 14.757812 19.457031 14.765625 C 19.378906 14.773438 19.289062 14.78125 19.203125 14.78125 L 19.179688 14.78125 C 18.992188 14.777344 18.84375 14.726562 18.726562 14.625 C 18.710938 14.609375 18.6875 14.601562 18.664062 14.601562 C 18.640625 14.601562 18.617188 14.609375 18.601562 14.628906 C 18.3125 14.917969 17.953125 15.066406 17.535156 15.066406 L 17.5 15.066406 C 17.414062 15.066406 17.257812 15.019531 17.195312 14.9375 C 17.167969 14.90625 17.160156 14.871094 17.171875 14.832031 C 17.175781 14.808594 17.171875 14.78125 17.152344 14.757812 C 17.136719 14.738281 17.113281 14.726562 17.085938 14.726562 C 16.847656 14.722656 16.710938 14.613281 16.675781 14.507812 C 16.648438 14.421875 16.683594 14.34375 16.777344 14.277344 L 16.800781 14.265625 C 16.832031 14.242188 16.871094 14.214844 16.921875 14.175781 C 17 14.113281 17.085938 14.03125 17.195312 13.925781 C 17.410156 13.703125 17.574219 13.433594 17.707031 13.078125 C 17.824219 12.773438 17.898438 12.441406 17.976562 12.121094 L 17.984375 12.070312 C 18.140625 11.410156 18.316406 10.660156 18.875 10.070312 C 19.285156 9.632812 19.601562 9.394531 20.46875 8.792969 C 20.617188 8.691406 20.769531 8.570312 20.914062 8.449219 C 20.261719 7.582031 19.367188 6.898438 18.328125 6.488281 C 18.785156 7 19.058594 7.664062 19.058594 8.390625 C 19.058594 10 17.714844 11.304688 16.054688 11.304688 C 14.394531 11.304688 13.046875 10 13.046875 8.390625 C 13.046875 7.671875 13.316406 7.015625 13.757812 6.507812 C 12.796875 6.898438 11.964844 7.519531 11.335938 8.304688 C 11.488281 8.414062 11.640625 8.523438 11.824219 8.671875 C 11.945312 8.769531 12.082031 8.878906 12.242188 9.011719 C 12.351562 9.101562 12.476562 9.203125 12.617188 9.320312 C 12.699219 9.398438 12.800781 9.511719 12.929688 9.667969 C 12.972656 9.722656 13.011719 9.773438 13.054688 9.820312 C 13.113281 9.894531 13.164062 9.960938 13.214844 10.019531 C 13.605469 10.484375 13.84375 10.792969 13.898438 11.171875 C 14.007812 11.914062 14.078125 12.335938 14.378906 13.078125 C 14.382812 13.09375 14.394531 13.109375 14.414062 13.132812 C 14.429688 13.152344 14.449219 13.175781 14.46875 13.195312 L 14.539062 13.265625 C 14.5625 13.289062 14.585938 13.3125 14.605469 13.335938 C 14.652344 13.398438 14.691406 13.46875 14.726562 13.527344 L 14.757812 13.585938 C 14.785156 13.636719 14.8125 13.6875 14.84375 13.738281 C 14.914062 13.851562 15.015625 13.996094 15.183594 14.089844 C 15.363281 14.1875 15.398438 14.207031 15.460938 14.261719 C 15.488281 14.289062 15.503906 14.320312 15.503906 14.355469 C 15.5 14.410156 15.46875 14.472656 15.417969 14.515625 C 15.363281 14.5625 15.289062 14.59375 15.195312 14.609375 C 15.171875 14.613281 15.148438 14.628906 15.136719 14.648438 C 15.121094 14.671875 15.117188 14.695312 15.125 14.71875 C 15.140625 14.777344 15.128906 14.835938 15.089844 14.886719 C 15.035156 14.960938 14.929688 15.003906 14.792969 15.007812 C 14.773438 15.007812 14.753906 15.007812 14.734375 15.007812 C 14.171875 15.007812 13.789062 14.75 13.609375 14.597656 C 13.59375 14.582031 13.570312 14.574219 13.550781 14.574219 C 13.53125 14.574219 13.511719 14.582031 13.496094 14.59375 L 13.472656 14.609375 C 13.40625 14.65625 13.308594 14.722656 13.183594 14.773438 C 13.09375 14.816406 12.996094 14.832031 12.871094 14.832031 C 12.828125 14.832031 12.785156 14.832031 12.742188 14.828125 C 12.714844 14.824219 12.683594 14.824219 12.65625 14.820312 C 12.609375 14.816406 12.566406 14.816406 12.523438 14.8125 C 12.5 14.8125 12.476562 14.8125 12.457031 14.8125 C 12.410156 14.8125 12.367188 14.8125 12.332031 14.820312 C 12.230469 14.835938 12.121094 14.871094 12.003906 14.910156 L 11.929688 14.933594 C 11.792969 14.976562 11.640625 15.023438 11.5 15.027344 C 11.488281 15.027344 11.476562 15.027344 11.464844 15.027344 C 11.261719 15.027344 11.117188 14.953125 11.035156 14.804688 C 11.019531 14.773438 11.003906 14.742188 10.992188 14.703125 C 10.980469 14.667969 10.949219 14.644531 10.914062 14.640625 C 10.910156 14.640625 10.910156 14.640625 10.90625 14.640625 C 10.871094 14.640625 10.839844 14.660156 10.824219 14.6875 C 10.824219 14.691406 10.820312 14.695312 10.820312 14.699219 C 11.84375 16.488281 13.8125 17.699219 16.070312 17.699219 C 18.320312 17.699219 20.28125 16.496094 21.308594 14.71875 C 21.304688 14.71875 21.304688 14.714844 21.304688 14.714844 "/>
<path style=" stroke:none;fill-rule:nonzero;fill:rgb(92.941176%,11.764706%,21.176471%);fill-opacity:1;" d="M 9.488281 3.304688 C 9.488281 2.609375 8.925781 2.046875 8.226562 2.046875 C 8.207031 2.046875 8.109375 2.046875 8.089844 2.046875 L 6.621094 2.046875 L 6.621094 6.3125 L 7.511719 6.3125 L 7.511719 2.785156 L 8.042969 2.777344 C 8.371094 2.777344 8.621094 3.027344 8.621094 3.335938 C 8.621094 3.644531 8.355469 3.894531 8.027344 3.894531 L 7.820312 3.898438 L 7.820312 4.914062 L 8.710938 6.3125 L 9.757812 6.3125 L 8.527344 4.53125 C 9.082031 4.394531 9.488281 3.898438 9.488281 3.304688 "/>
<path style=" stroke:none;fill-rule:nonzero;fill:rgb(92.941176%,11.764706%,21.176471%);fill-opacity:1;" d="M 10.464844 4.671875 C 10.464844 4.382812 10.699219 4.148438 10.992188 4.148438 C 11.28125 4.148438 11.515625 4.382812 11.515625 4.671875 Z M 10.984375 3.554688 C 10.199219 3.554688 9.5625 4.191406 9.5625 4.980469 C 9.5625 5.765625 10.199219 6.40625 10.984375 6.40625 C 11.582031 6.40625 12.050781 6.136719 12.289062 5.714844 L 11.59375 5.394531 C 11.503906 5.585938 11.296875 5.71875 11.054688 5.71875 C 10.730469 5.71875 10.46875 5.484375 10.46875 5.1875 C 10.46875 5.171875 10.460938 5.179688 10.464844 5.160156 L 12.363281 5.160156 C 12.367188 5.101562 12.371094 5.042969 12.371094 4.980469 C 12.382812 4.058594 11.765625 3.554688 10.984375 3.554688 "/>
<path style=" stroke:none;fill-rule:nonzero;fill:rgb(92.941176%,11.764706%,21.176471%);fill-opacity:1;" d="M 13.511719 5.007812 C 13.511719 4.636719 13.796875 4.339844 14.148438 4.339844 C 14.5 4.339844 14.785156 4.636719 14.785156 5.007812 C 14.785156 5.375 14.5 5.675781 14.148438 5.675781 C 13.796875 5.675781 13.511719 5.375 13.511719 5.007812 M 15.640625 5.503906 L 15.636719 1.910156 L 14.769531 1.910156 L 14.773438 3.972656 C 14.542969 3.753906 14.238281 3.621094 13.902344 3.621094 C 13.183594 3.621094 12.605469 4.230469 12.605469 4.980469 C 12.605469 5.730469 13.183594 6.339844 13.902344 6.339844 C 13.90625 6.339844 13.910156 6.339844 13.917969 6.339844 C 14.371094 5.894531 14.96875 5.59375 15.640625 5.503906 "/>
<path style=" stroke:none;fill-rule:nonzero;fill:rgb(92.941176%,11.764706%,21.176471%);fill-opacity:1;" d="M 24.742188 6.316406 L 25.582031 6.316406 L 25.582031 1.941406 L 24.742188 1.941406 Z M 24.742188 6.316406 "/>
<path style=" stroke:none;fill-rule:nonzero;fill:rgb(92.941176%,11.764706%,21.176471%);fill-opacity:1;" d="M 21.921875 5.234375 C 21.921875 5.492188 21.703125 5.699219 21.429688 5.699219 C 21.160156 5.699219 20.941406 5.492188 20.941406 5.234375 L 20.941406 3.699219 L 20.085938 3.699219 L 20.085938 5.398438 C 20.085938 5.972656 20.6875 6.441406 21.429688 6.441406 C 22.167969 6.441406 22.769531 5.972656 22.769531 5.398438 L 22.769531 3.699219 L 21.921875 3.699219 Z M 21.921875 5.234375 "/>
<path style=" stroke:none;fill-rule:nonzero;fill:rgb(92.941176%,11.764706%,21.176471%);fill-opacity:1;" d="M 18.363281 5.566406 L 17.5625 5.566406 L 17.5625 2.789062 L 18.121094 2.789062 C 18.367188 2.789062 18.566406 2.992188 18.566406 3.242188 C 18.566406 3.496094 18.367188 3.699219 18.121094 3.699219 L 17.832031 3.699219 L 17.832031 4.46875 L 18.363281 4.46875 C 18.660156 4.46875 18.886719 4.710938 18.886719 5.015625 C 18.875 5.332031 18.6875 5.546875 18.363281 5.566406 M 19.066406 3.980469 C 19.292969 3.761719 19.433594 3.46875 19.433594 3.148438 C 19.433594 2.855469 19.324219 2.589844 19.132812 2.378906 C 18.933594 2.152344 18.578125 2.054688 18.101562 2.054688 L 16.671875 2.054688 L 16.671875 5.539062 C 17.246094 5.652344 17.757812 5.929688 18.164062 6.3125 L 18.519531 6.3125 C 19.226562 6.300781 19.796875 5.753906 19.796875 5.082031 C 19.796875 4.59375 19.628906 4.246094 19.066406 3.980469 "/>
<path style=" stroke:none;fill-rule:nonzero;fill:rgb(92.941176%,11.764706%,21.176471%);fill-opacity:1;" d="M 23.328125 6.316406 L 24.164062 6.316406 L 24.164062 1.941406 L 23.328125 1.941406 Z M 23.328125 6.316406 "/>
<path style=" stroke:none;fill-rule:nonzero;fill:rgb(77.647059%,80%,82.352941%);fill-opacity:1;" d="M 13.792969 9.960938 C 14.671875 10.578125 15.90625 10.671875 16.871094 10.171875 C 17.921875 9.644531 18.554688 8.558594 18.457031 7.390625 C 18.441406 7.222656 18.414062 7.054688 18.367188 6.894531 C 18.664062 7.328125 18.832031 7.839844 18.832031 8.390625 C 18.832031 9.878906 17.589844 11.085938 16.054688 11.085938 C 15.121094 11.085938 14.300781 10.644531 13.792969 9.960938 "/>
<path style=" stroke:none;fill-rule:nonzero;fill:rgb(13.72549%,19.607843%,41.568627%);fill-opacity:1;" d="M 15.234375 9.0625 C 14.582031 8.910156 14.140625 8.757812 14.140625 8.757812 C 14.070312 8.109375 14.128906 7.542969 14.128906 7.542969 C 14.410156 7.398438 15.171875 7.070312 15.171875 7.070312 C 15.535156 7.46875 15.882812 8.003906 15.882812 8.003906 C 15.714844 8.316406 15.234375 9.0625 15.234375 9.0625 M 14.160156 6.414062 C 14.097656 6.515625 13.90625 6.828125 13.734375 7.199219 C 13.570312 7.398438 13.429688 7.597656 13.367188 7.683594 C 13.507812 7.191406 13.785156 6.753906 14.160156 6.414062 M 17.078125 7.980469 C 17.078125 7.980469 17.324219 7.488281 17.613281 7.089844 C 17.613281 7.089844 18.179688 7.347656 18.445312 7.558594 C 18.445312 7.558594 18.539062 7.851562 18.476562 8.710938 C 18.476562 8.710938 18.140625 8.902344 17.652344 9.015625 C 17.652344 9.015625 17.324219 8.476562 17.078125 7.980469 M 15.816406 10.003906 L 17.019531 9.972656 L 17.253906 10.605469 C 16.796875 10.871094 16.25 11.007812 16.25 11.007812 C 15.675781 10.886719 15.347656 10.644531 15.347656 10.644531 Z M 16.054688 5.695312 C 16.417969 5.695312 16.769531 5.761719 17.089844 5.886719 C 17.078125 5.9375 17.039062 6.082031 16.925781 6.261719 C 16.347656 6.1875 15.703125 6.246094 15.703125 6.246094 L 15.167969 5.832031 C 15.445312 5.742188 15.742188 5.695312 16.054688 5.695312 M 14.273438 10.460938 C 13.8125 10.085938 13.476562 9.570312 13.339844 8.984375 C 13.488281 9.132812 13.777344 9.421875 13.777344 9.421875 C 13.949219 9.765625 14.382812 10.371094 14.382812 10.371094 C 14.351562 10.402344 14.304688 10.4375 14.273438 10.460938 "/>
<path style=" stroke:none;fill-rule:nonzero;fill:rgb(13.72549%,19.607843%,41.568627%);fill-opacity:1;" d="M 7.171875 18.472656 L 7.441406 18.785156 L 8.347656 18.058594 C 8.625 17.835938 9.15625 17.367188 9.40625 17.136719 L 9.414062 17.144531 C 8.796875 17.796875 8.285156 18.480469 7.722656 19.117188 L 7.976562 19.414062 L 11.105469 16.90625 L 10.835938 16.589844 L 9.929688 17.320312 C 9.652344 17.539062 9.121094 18.011719 8.871094 18.238281 L 8.863281 18.230469 C 9.480469 17.578125 9.992188 16.898438 10.554688 16.257812 L 10.300781 15.960938 Z M 7.171875 18.472656 "/>
<path style=" stroke:none;fill-rule:nonzero;fill:rgb(13.72549%,19.607843%,41.568627%);fill-opacity:1;" d="M 12.535156 18.046875 L 11.867188 17.550781 C 11.679688 17.414062 11.417969 17.449219 11.277344 17.628906 L 9.320312 20.105469 C 9.179688 20.285156 9.214844 20.542969 9.398438 20.679688 L 10.066406 21.175781 L 10.324219 20.851562 L 9.65625 20.355469 L 10.503906 19.277344 L 11.007812 19.648438 L 11.261719 19.324219 L 10.761719 18.953125 L 11.609375 17.875 L 12.277344 18.371094 Z M 12.535156 18.046875 "/>
<path style=" stroke:none;fill-rule:nonzero;fill:rgb(13.72549%,19.607843%,41.568627%);fill-opacity:1;" d="M 11.582031 22.027344 L 11.945312 22.167969 C 12.28125 21.660156 12.648438 21.171875 13.023438 20.40625 L 13.035156 20.414062 C 12.777344 21.21875 12.703125 21.820312 12.59375 22.410156 L 12.957031 22.550781 L 14.566406 18.933594 L 14.167969 18.78125 C 13.898438 19.4375 13.617188 20.09375 13.347656 20.75 C 13.253906 20.988281 13.167969 21.226562 13.074219 21.464844 L 13.0625 21.460938 C 13.238281 20.828125 13.300781 20.382812 13.40625 19.945312 L 13.078125 19.820312 C 12.847656 20.210938 12.582031 20.578125 12.269531 21.15625 L 12.257812 21.152344 C 12.355469 20.917969 12.460938 20.6875 12.554688 20.449219 C 12.820312 19.792969 13.074219 19.125 13.332031 18.464844 L 12.9375 18.3125 Z M 11.582031 22.027344 "/>
<path style=" stroke:none;fill-rule:nonzero;fill:rgb(13.72549%,19.607843%,41.568627%);fill-opacity:1;" d="M 16.925781 22.933594 L 17.34375 22.890625 L 17.144531 21.140625 C 17.269531 21.078125 17.363281 20.988281 17.425781 20.882812 C 17.484375 20.769531 17.511719 20.644531 17.496094 20.519531 L 17.316406 18.929688 L 16.898438 18.976562 L 17.097656 20.734375 L 16.679688 20.78125 L 16.480469 19.019531 L 16.0625 19.066406 L 16.242188 20.65625 C 16.257812 20.78125 16.308594 20.898438 16.394531 20.992188 C 16.480469 21.082031 16.589844 21.148438 16.726562 21.183594 Z M 16.925781 22.933594 "/>
<path style=" stroke:none;fill-rule:nonzero;fill:rgb(13.72549%,19.607843%,41.568627%);fill-opacity:1;" d="M 20.011719 21.769531 L 19.617188 21.917969 L 18.449219 19.007812 L 18.84375 18.863281 Z M 19.164062 21.90625 C 19.289062 22.21875 19.65625 22.375 19.980469 22.253906 C 20.304688 22.132812 20.464844 21.777344 20.339844 21.460938 L 19.300781 18.871094 C 19.171875 18.558594 18.804688 18.402344 18.480469 18.523438 C 18.160156 18.644531 17.996094 19.003906 18.121094 19.316406 Z M 19.164062 21.90625 "/>
<path style=" stroke:none;fill-rule:nonzero;fill:rgb(13.72549%,19.607843%,41.568627%);fill-opacity:1;" d="M 20.199219 18.125 L 20.539062 17.882812 L 21.367188 18.976562 L 21.027344 19.21875 Z M 22.011719 21.214844 L 22.351562 20.972656 L 21.273438 19.546875 L 21.613281 19.308594 L 22.511719 20.496094 C 22.574219 20.574219 22.675781 20.636719 22.765625 20.675781 L 23.113281 20.429688 C 23.007812 20.382812 22.917969 20.339844 22.851562 20.253906 L 22.050781 19.195312 C 21.902344 19 21.785156 18.980469 21.679688 19.007812 C 21.726562 18.90625 21.753906 18.800781 21.636719 18.648438 L 20.878906 17.644531 C 20.738281 17.460938 20.476562 17.421875 20.289062 17.554688 L 19.609375 18.039062 Z M 22.011719 21.214844 "/>
<path style=" stroke:none;fill-rule:nonzero;fill:rgb(13.72549%,19.607843%,41.568627%);fill-opacity:1;" d="M 21.945312 15.929688 L 21.664062 16.246094 C 21.664062 16.246094 21.726562 16.417969 21.859375 16.53125 C 21.996094 16.648438 22.632812 17.175781 22.632812 17.175781 C 22.632812 17.175781 22.941406 17.40625 22.652344 17.726562 L 21.328125 16.621094 L 21.054688 16.929688 L 24.132812 19.496094 L 24.40625 19.191406 L 22.980469 18.003906 C 22.980469 18.003906 23.253906 17.695312 23.519531 17.914062 C 23.746094 18.105469 24.433594 18.679688 24.433594 18.679688 C 24.433594 18.679688 24.578125 18.8125 24.738281 18.816406 L 25.019531 18.496094 C 25.019531 18.496094 24.84375 18.480469 24.652344 18.324219 C 24.460938 18.164062 23.890625 17.6875 23.890625 17.6875 C 23.890625 17.6875 23.386719 17.21875 22.933594 17.730469 C 22.933594 17.730469 23.324219 17.21875 22.753906 16.742188 C 22.304688 16.367188 22.082031 16.179688 22.082031 16.179688 C 22.082031 16.179688 21.972656 16.074219 21.945312 15.929688 "/>
<path style=" stroke:none;fill-rule:nonzero;fill:rgb(92.941176%,11.764706%,21.176471%);fill-opacity:1;" d="M 8.535156 14.277344 C 8.640625 14.386719 8.636719 14.558594 8.757812 14.648438 C 8.914062 14.671875 9.054688 14.613281 9.175781 14.519531 C 9.246094 14.464844 9.144531 14.394531 9.132812 14.328125 C 9.066406 14.230469 9.113281 14.039062 8.945312 14.03125 C 8.777344 14.058594 8.609375 14.0625 8.441406 14.0625 L 8.394531 14.09375 C 8.363281 14.191406 8.511719 14.191406 8.535156 14.277344 "/>
<path style=" stroke:none;fill-rule:nonzero;fill:rgb(92.941176%,11.764706%,21.176471%);fill-opacity:1;" d="M 0.585938 14.816406 C 0.503906 14.855469 0.414062 14.933594 0.394531 15.023438 C 0.367188 15.1875 0.402344 15.339844 0.273438 15.457031 C 0.265625 15.484375 0.234375 15.519531 0.265625 15.550781 C 0.382812 15.585938 0.492188 15.632812 0.632812 15.648438 C 0.695312 15.449219 0.742188 15.230469 0.816406 15.058594 L 0.816406 15.007812 C 0.753906 14.933594 0.691406 14.835938 0.585938 14.816406 "/>
<path style=" stroke:none;fill-rule:nonzero;fill:rgb(92.941176%,11.764706%,21.176471%);fill-opacity:1;" d="M 13.578125 12.621094 C 13.574219 12.625 13.5625 12.664062 13.5625 12.664062 C 13.5625 12.667969 13.546875 12.710938 13.546875 12.710938 C 13.53125 12.75 13.507812 12.773438 13.472656 12.78125 C 13.453125 12.785156 13.429688 12.785156 13.414062 12.773438 C 13.398438 12.761719 13.390625 12.742188 13.390625 12.71875 C 13.390625 12.71875 13.386719 12.675781 13.386719 12.675781 L 13.371094 12.519531 C 13.359375 12.445312 13.335938 12.390625 13.300781 12.34375 C 13.300781 12.339844 13.230469 12.261719 13.230469 12.261719 C 13.226562 12.257812 13.148438 12.175781 13.148438 12.175781 C 13.089844 12.113281 13.035156 12.085938 12.976562 12.085938 C 12.929688 12.097656 12.890625 12.128906 12.847656 12.171875 L 12.789062 12.238281 L 12.742188 12.304688 C 12.722656 12.332031 12.683594 12.316406 12.683594 12.316406 C 12.683594 12.316406 12.679688 12.316406 12.675781 12.3125 C 12.675781 12.308594 12.671875 12.304688 12.671875 12.304688 C 12.660156 12.273438 12.65625 12.246094 12.65625 12.21875 C 12.65625 12.167969 12.671875 12.125 12.6875 12.089844 L 12.730469 12.003906 L 12.777344 11.90625 L 12.785156 11.894531 C 12.800781 11.882812 12.8125 11.859375 12.828125 11.816406 L 12.84375 11.78125 L 12.871094 11.710938 C 12.914062 11.621094 12.980469 11.597656 13.074219 11.636719 C 13.148438 11.675781 13.191406 11.734375 13.226562 11.789062 L 13.25 11.824219 L 13.28125 11.875 L 13.339844 11.949219 C 13.511719 12.132812 13.59375 12.308594 13.59375 12.488281 C 13.59375 12.53125 13.585938 12.578125 13.578125 12.621094 M 12.933594 14.007812 C 12.933594 14.007812 12.933594 14.007812 12.933594 14.011719 C 12.933594 14.007812 12.929688 14.011719 12.929688 14.011719 C 12.832031 14.039062 12.722656 14.050781 12.601562 14.046875 L 12.59375 14.046875 C 12.597656 14.046875 12.574219 14.035156 12.574219 14.035156 C 12.574219 14.035156 12.550781 14.023438 12.550781 14.023438 C 12.539062 14.011719 12.519531 13.992188 12.53125 13.964844 C 12.578125 13.832031 12.710938 13.679688 12.882812 13.648438 C 12.886719 13.644531 12.898438 13.644531 12.898438 13.644531 L 12.921875 13.644531 L 12.957031 13.652344 C 12.976562 13.65625 13.007812 13.671875 13.015625 13.714844 C 13.019531 13.738281 13.019531 13.765625 13.019531 13.792969 C 13.019531 13.871094 13.003906 13.957031 12.933594 14.007812 M 10.9375 10.65625 L 10.925781 10.652344 C 10.925781 10.652344 10.925781 10.65625 10.921875 10.65625 C 10.921875 10.660156 10.917969 10.660156 10.917969 10.660156 C 10.90625 10.675781 10.878906 10.6875 10.851562 10.667969 C 10.851562 10.667969 10.847656 10.664062 10.84375 10.664062 C 10.84375 10.660156 10.84375 10.65625 10.84375 10.65625 C 10.800781 10.453125 10.757812 10.238281 10.671875 10.039062 C 10.671875 10.039062 10.621094 9.957031 10.621094 9.957031 L 10.605469 9.933594 L 10.5625 9.875 C 10.527344 9.824219 10.496094 9.753906 10.542969 9.671875 L 10.546875 9.664062 C 10.585938 9.628906 10.652344 9.625 10.699219 9.640625 L 10.703125 9.644531 C 10.792969 9.707031 10.851562 9.804688 10.894531 9.875 C 10.945312 9.996094 10.972656 10.144531 10.972656 10.300781 C 10.972656 10.417969 10.957031 10.539062 10.925781 10.652344 L 10.9375 10.65625 M 15.050781 14.234375 C 14.738281 14.058594 14.613281 13.722656 14.417969 13.457031 C 14.347656 13.359375 14.230469 13.300781 14.164062 13.203125 C 13.941406 12.609375 13.746094 12.015625 13.6875 11.332031 C 13.640625 11.164062 13.605469 10.992188 13.511719 10.835938 C 13.226562 10.386719 12.859375 9.980469 12.503906 9.570312 C 12.472656 9.539062 12.472656 9.535156 12.40625 9.472656 L 11.164062 8.472656 C 11.011719 8.359375 10.835938 8.289062 10.664062 8.210938 C 10.402344 8.117188 10.046875 8.136719 9.789062 8.242188 C 9.523438 8.378906 9.28125 8.578125 9 8.671875 C 8.589844 8.847656 8.128906 8.882812 7.777344 9.1875 C 7.574219 9.363281 7.398438 9.628906 7.097656 9.585938 C 6.753906 9.570312 6.453125 9.691406 6.195312 9.894531 C 5.964844 10.097656 5.742188 10.335938 5.445312 10.394531 C 5.183594 10.5 4.863281 10.449219 4.597656 10.546875 C 4.171875 10.648438 3.835938 10.972656 3.476562 11.222656 C 3.113281 11.425781 2.765625 11.644531 2.316406 11.632812 C 2.023438 11.613281 1.738281 11.414062 1.644531 11.140625 C 1.554688 10.824219 1.65625 10.5 1.914062 10.285156 C 2.179688 9.976562 2.605469 9.792969 2.8125 9.4375 C 2.925781 9.25 2.910156 8.945312 2.761719 8.765625 C 2.484375 8.488281 2.085938 8.476562 1.722656 8.390625 C 1.492188 8.328125 1.316406 8.15625 1.109375 8.050781 C 1.03125 8.167969 1.007812 8.292969 1.015625 8.4375 C 1.058594 8.757812 1.308594 9.046875 1.625 9.15625 C 1.808594 9.234375 2.015625 9.179688 2.207031 9.21875 C 2.257812 9.238281 2.3125 9.289062 2.316406 9.347656 C 2.304688 9.398438 2.300781 9.449219 2.253906 9.484375 C 1.960938 9.722656 1.652344 9.949219 1.402344 10.246094 C 1.140625 10.519531 1.109375 11.003906 1.246094 11.347656 C 1.398438 11.746094 1.824219 12.003906 2.230469 12.054688 C 2.53125 12.101562 2.796875 12.023438 3.070312 11.96875 C 3.109375 11.96875 3.125 12.003906 3.140625 12.023438 C 3.164062 12.257812 3.128906 12.464844 3.179688 12.679688 C 3.226562 12.878906 3.296875 13.015625 3.371094 13.207031 C 3.378906 13.273438 3.371094 13.34375 3.320312 13.398438 C 3.171875 13.507812 3.011719 13.585938 2.84375 13.65625 L 2.4375 13.679688 L 2.359375 13.71875 C 2.207031 13.890625 2.199219 14.066406 2.105469 14.261719 C 1.980469 14.464844 1.75 14.558594 1.554688 14.675781 C 1.492188 14.773438 1.425781 14.875 1.335938 14.953125 C 1.269531 15.011719 1.183594 15.027344 1.09375 15.039062 C 0.953125 15.195312 0.921875 15.414062 0.886719 15.628906 C 1.117188 15.648438 1.355469 15.769531 1.582031 15.648438 C 1.777344 15.5625 1.820312 15.332031 1.964844 15.195312 C 2.082031 15.074219 2.253906 15.164062 2.390625 15.191406 C 2.59375 15.199219 2.742188 15.058594 2.914062 14.992188 C 3.035156 14.917969 3.132812 14.785156 3.257812 14.707031 C 3.5 14.597656 3.835938 14.65625 4.085938 14.703125 C 4.285156 14.753906 4.496094 14.722656 4.667969 14.648438 C 4.832031 14.550781 4.984375 14.429688 5.167969 14.386719 C 5.328125 14.308594 5.410156 14.128906 5.476562 13.980469 C 5.527344 13.84375 5.664062 13.738281 5.65625 13.582031 C 5.613281 13.542969 5.566406 13.46875 5.503906 13.472656 C 5.425781 13.582031 5.367188 13.691406 5.277344 13.792969 C 4.898438 14.292969 4.601562 14.34375 3.832031 14.34375 C 3.257812 14.320312 2.746094 14.488281 2.351562 14.921875 C 2.328125 14.9375 2.289062 14.925781 2.269531 14.90625 C 2.253906 14.84375 2.304688 14.742188 2.332031 14.699219 C 2.683594 14.214844 3.226562 14.105469 3.804688 14.09375 C 4.117188 14.074219 4.417969 14.023438 4.683594 13.890625 C 4.984375 13.742188 5.1875 13.515625 5.3125 13.230469 C 5.382812 12.910156 5.410156 12.5625 5.492188 12.257812 C 5.503906 12.226562 5.582031 12.203125 5.605469 12.214844 C 5.636719 12.21875 5.699219 12.246094 5.699219 12.285156 C 5.644531 12.597656 5.539062 12.96875 5.664062 13.273438 C 5.917969 13.59375 6.382812 13.421875 6.722656 13.40625 C 7.082031 13.375 7.367188 13.402344 7.707031 13.421875 C 7.875 13.417969 8 13.457031 8.128906 13.355469 C 8.167969 13.300781 8.179688 13.226562 8.171875 13.164062 C 8.160156 13.074219 8.082031 13.015625 8.171875 12.941406 C 8.195312 12.921875 8.273438 12.933594 8.296875 12.960938 C 8.34375 13.085938 8.363281 13.222656 8.449219 13.335938 C 8.617188 13.542969 8.863281 13.707031 9.09375 13.824219 C 9.3125 13.972656 9.496094 14.179688 9.511719 14.4375 C 9.511719 14.570312 9.386719 14.664062 9.28125 14.722656 C 9.101562 14.808594 8.910156 14.882812 8.699219 14.859375 C 8.421875 14.730469 8.347656 14.445312 8.164062 14.234375 C 8.070312 14.132812 7.929688 14.113281 7.789062 14.125 C 7.636719 14.140625 7.484375 14.144531 7.347656 14.191406 C 7.3125 14.21875 7.300781 14.265625 7.304688 14.3125 C 7.398438 14.480469 7.503906 14.640625 7.609375 14.808594 C 7.730469 14.882812 7.898438 14.769531 8.003906 14.894531 C 8.089844 15.027344 8.148438 15.1875 8.285156 15.289062 C 8.417969 15.398438 8.617188 15.449219 8.789062 15.378906 C 9.175781 15.261719 9.566406 15.140625 9.925781 14.953125 L 10.046875 14.953125 C 10.191406 14.9375 10.355469 14.945312 10.460938 14.839844 C 10.574219 14.675781 10.671875 14.523438 10.757812 14.351562 C 10.847656 14.234375 10.804688 14.058594 10.769531 13.929688 C 10.589844 13.71875 10.492188 13.476562 10.398438 13.234375 C 10.308594 13.207031 10.230469 13.15625 10.128906 13.164062 C 10.082031 13.183594 10.015625 13.171875 9.988281 13.222656 L 10.402344 14.015625 C 10.429688 14.078125 10.460938 14.164062 10.445312 14.246094 C 10.386719 14.414062 10.296875 14.574219 10.15625 14.699219 C 10.128906 14.714844 10.097656 14.730469 10.078125 14.691406 C 10.125 14.519531 10.210938 14.332031 10.199219 14.132812 L 9.796875 13.425781 C 9.746094 13.332031 9.664062 13.242188 9.667969 13.132812 C 9.667969 13.082031 9.714844 13.046875 9.757812 13.027344 C 9.9375 12.96875 10.152344 12.980469 10.289062 12.84375 C 10.464844 12.574219 10.503906 12.308594 10.550781 11.988281 C 10.5625 11.96875 10.601562 11.929688 10.632812 11.929688 C 10.664062 11.917969 10.703125 11.964844 10.71875 11.980469 C 10.769531 12.328125 10.695312 12.683594 10.488281 12.960938 C 10.476562 12.996094 10.460938 13.039062 10.503906 13.066406 C 10.703125 13.128906 10.910156 13.066406 11.078125 12.980469 C 11.292969 12.984375 11.492188 12.933594 11.6875 12.902344 C 11.707031 12.914062 11.730469 12.933594 11.730469 12.953125 C 11.597656 13.097656 11.523438 13.253906 11.488281 13.4375 C 11.332031 13.59375 11.105469 13.730469 11.089844 13.960938 C 11.117188 14.074219 11.214844 13.964844 11.285156 13.976562 C 11.316406 13.980469 11.335938 14.007812 11.335938 14.039062 L 11.179688 14.261719 C 11.09375 14.394531 11.195312 14.546875 11.195312 14.671875 C 11.230469 14.773438 11.355469 14.824219 11.464844 14.824219 C 11.703125 14.816406 11.914062 14.730469 12.121094 14.65625 C 12.351562 14.558594 12.640625 14.566406 12.894531 14.605469 C 13.140625 14.589844 13.320312 14.433594 13.503906 14.277344 C 13.605469 14.277344 13.695312 14.34375 13.761719 14.414062 C 14.046875 14.707031 14.414062 14.835938 14.828125 14.824219 L 14.863281 14.804688 C 14.890625 14.777344 14.878906 14.734375 14.847656 14.714844 L 14.601562 14.589844 C 14.429688 14.484375 14.214844 14.34375 14.15625 14.152344 C 14.101562 13.988281 14.007812 13.804688 13.902344 13.640625 C 13.867188 13.558594 13.785156 13.492188 13.746094 13.410156 C 13.757812 13.402344 13.765625 13.386719 13.785156 13.390625 C 14.054688 13.484375 14.21875 13.742188 14.34375 13.976562 C 14.542969 14.246094 14.832031 14.472656 15.207031 14.414062 L 15.242188 14.386719 C 15.257812 14.367188 15.25 14.34375 15.242188 14.328125 Z M 15.050781 14.234375 "/>
<path style=" stroke:none;fill-rule:nonzero;fill:rgb(92.941176%,11.764706%,21.176471%);fill-opacity:1;" d="M 1.136719 14.800781 C 1.300781 14.707031 1.402344 14.535156 1.488281 14.386719 C 1.472656 14.332031 1.414062 14.292969 1.367188 14.25 C 1.335938 14.226562 1.289062 14.246094 1.253906 14.253906 C 1.136719 14.351562 1.015625 14.429688 0.890625 14.503906 C 0.839844 14.539062 0.859375 14.617188 0.847656 14.671875 C 0.847656 14.722656 0.910156 14.757812 0.941406 14.789062 C 1 14.816406 1.074219 14.820312 1.136719 14.800781 "/>
<path style=" stroke:none;fill-rule:nonzero;fill:rgb(92.941176%,11.764706%,21.176471%);fill-opacity:1;" d="M 23.382812 14.125 C 23.242188 14.148438 23.078125 14.117188 22.9375 14.140625 C 22.875 14.230469 22.816406 14.34375 22.832031 14.464844 C 22.847656 14.589844 22.996094 14.601562 23.089844 14.636719 C 23.179688 14.648438 23.308594 14.675781 23.359375 14.585938 C 23.410156 14.453125 23.457031 14.3125 23.476562 14.167969 C 23.46875 14.128906 23.425781 14.113281 23.382812 14.125 "/>
<path style=" stroke:none;fill-rule:nonzero;fill:rgb(92.941176%,11.764706%,21.176471%);fill-opacity:1;" d="M 22.058594 9.453125 L 22.039062 9.496094 L 22.011719 9.535156 C 22.011719 9.535156 21.847656 9.683594 21.847656 9.683594 L 21.671875 9.84375 C 21.539062 9.96875 21.445312 10.074219 21.378906 10.175781 C 21.320312 10.25 21.277344 10.335938 21.238281 10.421875 C 21.226562 10.445312 21.191406 10.449219 21.175781 10.441406 C 21.175781 10.441406 21.171875 10.441406 21.167969 10.4375 C 21.164062 10.433594 21.164062 10.429688 21.164062 10.429688 C 21.152344 10.398438 21.148438 10.363281 21.148438 10.328125 C 21.148438 10.296875 21.148438 10.265625 21.15625 10.234375 C 21.15625 10.234375 21.1875 10.109375 21.1875 10.109375 L 21.207031 10.050781 C 21.304688 9.792969 21.53125 9.519531 21.820312 9.308594 C 21.859375 9.285156 21.929688 9.269531 21.980469 9.285156 C 22.011719 9.296875 22.035156 9.316406 22.050781 9.347656 C 22.0625 9.367188 22.070312 9.386719 22.070312 9.410156 C 22.070312 9.421875 22.066406 9.4375 22.058594 9.453125 L 22.074219 9.457031 L 22.058594 9.453125 M 19.921875 12.34375 L 19.90625 12.390625 C 19.894531 12.40625 19.878906 12.425781 19.859375 12.4375 C 19.84375 12.449219 19.820312 12.457031 19.789062 12.4375 C 19.761719 12.429688 19.742188 12.410156 19.722656 12.386719 C 19.722656 12.386719 19.699219 12.355469 19.699219 12.355469 L 19.679688 12.320312 C 19.65625 12.28125 19.636719 12.253906 19.582031 12.257812 C 19.53125 12.253906 19.496094 12.273438 19.464844 12.296875 L 19.429688 12.320312 L 19.410156 12.335938 C 19.410156 12.335938 19.355469 12.371094 19.355469 12.371094 C 19.355469 12.371094 19.28125 12.433594 19.28125 12.433594 L 19.25 12.457031 L 19.144531 12.554688 C 19.066406 12.632812 19.023438 12.703125 19.011719 12.773438 C 19.011719 12.773438 18.996094 12.828125 18.996094 12.828125 L 18.992188 12.851562 L 18.988281 12.882812 C 18.980469 12.917969 18.964844 12.957031 18.929688 12.980469 C 18.902344 12.988281 18.875 12.984375 18.847656 12.964844 C 18.832031 12.953125 18.820312 12.933594 18.820312 12.914062 C 18.796875 12.667969 18.886719 12.4375 19.0625 12.285156 C 19.152344 12.210938 19.226562 12.128906 19.289062 12.050781 L 19.359375 11.96875 L 19.496094 11.804688 L 19.511719 11.792969 C 19.609375 11.777344 19.671875 11.863281 19.695312 11.902344 C 19.78125 12.007812 19.851562 12.132812 19.917969 12.285156 C 19.921875 12.296875 19.921875 12.308594 19.921875 12.320312 C 19.921875 12.328125 19.921875 12.335938 19.921875 12.34375 M 19.800781 14.101562 L 19.796875 14.109375 C 19.765625 14.132812 19.722656 14.140625 19.664062 14.140625 L 19.5625 14.128906 L 19.527344 14.121094 L 19.523438 14.121094 C 19.421875 14.066406 19.398438 13.957031 19.386719 13.84375 C 19.386719 13.808594 19.398438 13.777344 19.425781 13.757812 C 19.425781 13.757812 19.425781 13.753906 19.429688 13.753906 L 19.4375 13.753906 C 19.574219 13.753906 19.679688 13.792969 19.746094 13.871094 L 19.800781 13.980469 L 19.8125 13.976562 C 19.808594 13.976562 19.800781 13.980469 19.800781 13.980469 C 19.8125 14.003906 19.816406 14.023438 19.816406 14.046875 C 19.816406 14.066406 19.8125 14.082031 19.800781 14.101562 M 30.96875 15.074219 C 30.699219 15.089844 30.570312 14.808594 30.414062 14.648438 C 30.28125 14.5 30.023438 14.414062 30.03125 14.195312 C 29.980469 14.109375 29.972656 13.972656 29.929688 13.859375 C 29.894531 13.769531 29.855469 13.636719 29.730469 13.617188 C 29.503906 13.582031 29.234375 13.640625 29.089844 13.4375 C 28.945312 13.285156 29.105469 13.105469 29.132812 12.960938 C 29.195312 12.769531 29.203125 12.523438 29.171875 12.328125 C 29.164062 12.21875 29.085938 12.125 29.105469 12.015625 C 29.160156 11.917969 29.285156 11.988281 29.363281 12 C 29.65625 12.082031 30.003906 12.039062 30.269531 11.929688 C 30.636719 11.753906 30.929688 11.394531 30.914062 10.980469 C 30.863281 10.449219 30.46875 10.011719 30.046875 9.667969 C 29.964844 9.601562 29.867188 9.527344 29.839844 9.433594 C 29.832031 9.222656 30.070312 9.324219 30.191406 9.273438 C 30.339844 9.238281 30.484375 9.203125 30.605469 9.121094 C 30.925781 8.914062 30.992188 8.546875 30.929688 8.191406 C 30.921875 8.160156 30.921875 8.117188 30.875 8.117188 C 30.816406 8.160156 30.757812 8.226562 30.683594 8.269531 C 30.480469 8.386719 30.207031 8.363281 29.992188 8.464844 C 29.726562 8.578125 29.394531 8.734375 29.28125 9.03125 C 29.25 9.179688 29.285156 9.332031 29.355469 9.453125 C 29.679688 9.949219 30.363281 10.277344 30.476562 10.875 C 30.515625 11.121094 30.390625 11.296875 30.195312 11.433594 C 29.902344 11.605469 29.464844 11.546875 29.171875 11.394531 C 28.605469 11.121094 28.109375 10.664062 27.503906 10.472656 C 27.121094 10.304688 26.648438 10.347656 26.308594 10.085938 C 26.050781 9.925781 25.816406 9.710938 25.527344 9.640625 C 25.328125 9.574219 25.101562 9.585938 24.917969 9.488281 C 24.730469 9.324219 24.53125 9.171875 24.3125 9.066406 C 24.007812 8.917969 23.671875 8.84375 23.335938 8.773438 C 23.136719 8.726562 23.0625 8.511719 22.902344 8.40625 C 22.625 8.191406 22.316406 8.039062 21.9375 8.070312 C 21.78125 8.082031 21.660156 8.183594 21.539062 8.285156 C 20.738281 8.964844 19.820312 9.433594 19.085938 10.210938 C 18.59375 10.703125 18.460938 11.328125 18.277344 11.933594 C 18.015625 12.847656 17.90625 13.855469 16.957031 14.417969 C 16.941406 14.445312 16.941406 14.488281 16.972656 14.511719 C 17.226562 14.570312 17.472656 14.472656 17.640625 14.308594 C 17.800781 14.058594 17.976562 13.820312 18.195312 13.589844 L 18.25 13.566406 C 18.273438 13.570312 18.304688 13.585938 18.296875 13.621094 C 18.230469 13.824219 18.042969 13.972656 17.980469 14.175781 C 17.898438 14.417969 17.65625 14.605469 17.449219 14.777344 L 17.445312 14.808594 C 17.445312 14.835938 17.472656 14.859375 17.5 14.867188 C 17.960938 14.886719 18.289062 14.566406 18.597656 14.265625 C 18.628906 14.234375 18.671875 14.242188 18.714844 14.25 C 18.851562 14.351562 18.976562 14.503906 19.15625 14.539062 C 19.34375 14.515625 19.542969 14.488281 19.742188 14.503906 C 20.019531 14.585938 20.285156 14.699219 20.5625 14.789062 C 20.707031 14.785156 20.808594 14.652344 20.882812 14.539062 C 20.941406 14.410156 20.859375 14.277344 20.867188 14.148438 C 20.9375 14.109375 21.015625 14.160156 21.089844 14.136719 C 21.121094 14.117188 21.144531 14.082031 21.144531 14.046875 C 21.09375 13.8125 20.878906 13.640625 20.808594 13.421875 C 20.707031 13.140625 20.363281 12.976562 20.300781 12.675781 C 20.316406 12.65625 20.34375 12.625 20.371094 12.644531 C 20.597656 12.800781 20.796875 13.011719 21.074219 13.050781 C 21.28125 13.070312 21.496094 13.089844 21.707031 13.074219 C 21.738281 13.066406 21.765625 13.03125 21.753906 12.996094 C 21.664062 12.8125 21.582031 12.628906 21.527344 12.429688 C 21.457031 12.183594 21.402344 11.835938 21.488281 11.5625 C 21.503906 11.542969 21.570312 11.503906 21.601562 11.511719 C 21.644531 11.523438 21.695312 11.570312 21.699219 11.605469 C 21.730469 12.039062 21.6875 12.4375 21.953125 12.777344 C 22.066406 12.953125 22.265625 12.988281 22.410156 13.128906 C 22.460938 13.199219 22.472656 13.316406 22.433594 13.398438 L 22.117188 13.855469 C 22.042969 13.957031 21.96875 14.066406 21.941406 14.179688 C 21.917969 14.308594 21.933594 14.429688 21.941406 14.550781 C 21.921875 14.558594 21.910156 14.53125 21.890625 14.519531 C 21.804688 14.351562 21.710938 14.136719 21.800781 13.941406 L 22.203125 13.335938 L 22.21875 13.289062 C 22.132812 13.242188 22.03125 13.199219 21.9375 13.179688 C 21.890625 13.199219 21.859375 13.242188 21.828125 13.285156 L 21.433594 13.976562 C 21.40625 14.058594 21.382812 14.117188 21.402344 14.203125 C 21.421875 14.308594 21.449219 14.410156 21.496094 14.496094 C 21.527344 14.636719 21.554688 14.734375 21.621094 14.859375 C 21.722656 14.96875 21.859375 14.871094 21.984375 14.902344 C 22.109375 14.933594 22.15625 15.078125 22.28125 15.113281 C 22.566406 15.207031 22.871094 15.257812 23.152344 15.363281 C 23.300781 15.410156 23.507812 15.464844 23.640625 15.347656 C 23.824219 15.253906 23.871094 15.0625 23.902344 14.886719 C 23.960938 14.808594 24.074219 14.839844 24.160156 14.816406 C 24.316406 14.714844 24.367188 14.53125 24.484375 14.394531 L 24.503906 14.320312 C 24.488281 14.277344 24.449219 14.25 24.40625 14.234375 L 23.871094 14.234375 C 23.625 14.265625 23.605469 14.53125 23.5 14.691406 C 23.441406 14.792969 23.328125 14.835938 23.207031 14.824219 C 22.953125 14.757812 22.644531 14.722656 22.53125 14.460938 C 22.515625 14.394531 22.515625 14.3125 22.566406 14.265625 C 22.695312 14.117188 22.855469 13.949219 23.015625 13.828125 C 23.246094 13.78125 23.472656 13.617188 23.59375 13.417969 C 23.65625 13.332031 23.644531 13.203125 23.75 13.136719 C 23.78125 13.132812 23.851562 13.128906 23.875 13.160156 C 23.921875 13.308594 23.835938 13.414062 23.789062 13.539062 C 24.359375 13.597656 24.800781 13.4375 25.359375 13.457031 C 25.59375 13.457031 25.804688 13.484375 26.035156 13.46875 C 26.265625 13.457031 26.519531 13.367188 26.589844 13.132812 C 26.695312 12.832031 26.550781 12.492188 26.496094 12.207031 L 26.5625 12.160156 C 26.597656 12.136719 26.660156 12.167969 26.6875 12.1875 C 26.785156 12.457031 26.851562 12.78125 26.894531 13.074219 C 26.9375 13.335938 27.050781 13.503906 27.199219 13.722656 C 27.464844 14.109375 27.9375 14.261719 28.40625 14.164062 C 28.96875 14.125 29.457031 14.414062 29.804688 14.839844 L 29.804688 14.867188 C 29.792969 14.886719 29.773438 14.910156 29.746094 14.90625 C 29.449219 14.683594 29.148438 14.445312 28.765625 14.398438 C 28.378906 14.328125 28.03125 14.523438 27.628906 14.367188 C 27.144531 14.210938 26.9375 13.921875 26.734375 13.457031 L 26.691406 13.457031 C 26.660156 13.460938 26.636719 13.492188 26.632812 13.523438 L 26.6875 13.839844 C 26.75 14.09375 26.832031 14.394531 27.117188 14.511719 C 27.335938 14.636719 27.550781 14.820312 27.824219 14.75 C 28.300781 14.648438 28.78125 14.777344 29.148438 15.039062 C 29.269531 15.105469 29.363281 15.226562 29.496094 15.273438 C 29.636719 15.328125 29.808594 15.296875 29.925781 15.207031 C 30.191406 15.121094 30.253906 15.445312 30.4375 15.5625 C 30.601562 15.714844 30.925781 15.652344 31.140625 15.652344 L 31.136719 15.628906 C 31.109375 15.417969 31.050781 15.257812 30.96875 15.074219 "/>
<path style=" stroke:none;fill-rule:nonzero;fill:rgb(92.941176%,11.764706%,21.176471%);fill-opacity:1;" d="M 31.679688 15.339844 C 31.652344 15.222656 31.683594 15.058594 31.605469 14.953125 C 31.539062 14.902344 31.476562 14.824219 31.386719 14.84375 C 31.3125 14.90625 31.203125 14.976562 31.21875 15.085938 C 31.28125 15.265625 31.324219 15.398438 31.359375 15.585938 C 31.382812 15.621094 31.359375 15.695312 31.417969 15.695312 L 31.753906 15.585938 C 31.8125 15.496094 31.703125 15.425781 31.679688 15.339844 "/>
<path style=" stroke:none;fill-rule:nonzero;fill:rgb(92.941176%,11.764706%,21.176471%);fill-opacity:1;" d="M 30.832031 14.28125 C 30.726562 14.195312 30.617188 14.320312 30.5625 14.398438 C 30.601562 14.519531 30.707031 14.621094 30.785156 14.734375 C 30.824219 14.792969 30.894531 14.835938 30.96875 14.839844 C 31.039062 14.839844 31.097656 14.804688 31.152344 14.765625 C 31.1875 14.71875 31.230469 14.664062 31.214844 14.597656 C 31.113281 14.464844 30.957031 14.382812 30.832031 14.28125 "/>
</g>
</svg>
