<?xml version="1.0" encoding="UTF-8"?>
<svg xmlns="http://www.w3.org/2000/svg" xmlns:xlink="http://www.w3.org/1999/xlink" width="32px" height="32px" viewBox="0 0 32 32" version="1.1">
<defs>
<linearGradient id="linear0" gradientUnits="userSpaceOnUse" x1="-2197.6228" y1="-640.0295" x2="-2196.385" y2="-640.0295" gradientTransform="matrix(24.810992,24.810992,-24.810992,24.810992,38645.515008,70405.045008)">
<stop offset="0" style="stop-color:rgb(74.117647%,63.529412%,40.392157%);stop-opacity:1;"/>
<stop offset="0.0739" style="stop-color:rgb(74.117647%,63.529412%,40.392157%);stop-opacity:1;"/>
<stop offset="0.1379" style="stop-color:rgb(79.607843%,70.980392%,50.196078%);stop-opacity:1;"/>
<stop offset="0.2729" style="stop-color:rgb(94.117647%,89.411765%,74.509804%);stop-opacity:1;"/>
<stop offset="0.2746" style="stop-color:rgb(94.117647%,89.803922%,74.901961%);stop-opacity:1;"/>
<stop offset="0.3925" style="stop-color:rgb(80.392157%,71.764706%,50.980392%);stop-opacity:1;"/>
<stop offset="0.4557" style="stop-color:rgb(74.117647%,63.529412%,40.392157%);stop-opacity:1;"/>
<stop offset="0.6613" style="stop-color:rgb(94.117647%,89.803922%,74.901961%);stop-opacity:1;"/>
<stop offset="0.853" style="stop-color:rgb(80.392157%,71.764706%,50.980392%);stop-opacity:1;"/>
<stop offset="0.9557" style="stop-color:rgb(74.117647%,63.529412%,40.392157%);stop-opacity:1;"/>
<stop offset="1" style="stop-color:rgb(74.117647%,63.529412%,40.392157%);stop-opacity:1;"/>
</linearGradient>
<linearGradient id="linear1" gradientUnits="userSpaceOnUse" x1="-2197.6228" y1="-640.0295" x2="-2196.385" y2="-640.0295" gradientTransform="matrix(24.810992,24.810992,-24.810992,24.810992,38645.515008,70405.045008)">
<stop offset="0" style="stop-color:rgb(74.117647%,63.529412%,40.392157%);stop-opacity:1;"/>
<stop offset="0.0739" style="stop-color:rgb(74.117647%,63.529412%,40.392157%);stop-opacity:1;"/>
<stop offset="0.1379" style="stop-color:rgb(79.607843%,70.980392%,50.196078%);stop-opacity:1;"/>
<stop offset="0.2729" style="stop-color:rgb(94.117647%,89.411765%,74.509804%);stop-opacity:1;"/>
<stop offset="0.2746" style="stop-color:rgb(94.117647%,89.803922%,74.901961%);stop-opacity:1;"/>
<stop offset="0.3925" style="stop-color:rgb(80.392157%,71.764706%,50.980392%);stop-opacity:1;"/>
<stop offset="0.4557" style="stop-color:rgb(74.117647%,63.529412%,40.392157%);stop-opacity:1;"/>
<stop offset="0.6613" style="stop-color:rgb(94.117647%,89.803922%,74.901961%);stop-opacity:1;"/>
<stop offset="0.853" style="stop-color:rgb(80.392157%,71.764706%,50.980392%);stop-opacity:1;"/>
<stop offset="0.9557" style="stop-color:rgb(74.117647%,63.529412%,40.392157%);stop-opacity:1;"/>
<stop offset="1" style="stop-color:rgb(74.117647%,63.529412%,40.392157%);stop-opacity:1;"/>
</linearGradient>
<linearGradient id="linear2" gradientUnits="userSpaceOnUse" x1="-2197.6228" y1="-639.9883" x2="-2196.385" y2="-639.9883" gradientTransform="matrix(24.810992,24.810992,-24.810992,24.810992,38641.212496,70409.35)">
<stop offset="0" style="stop-color:rgb(74.117647%,63.529412%,40.392157%);stop-opacity:1;"/>
<stop offset="0.0739" style="stop-color:rgb(74.117647%,63.529412%,40.392157%);stop-opacity:1;"/>
<stop offset="0.1379" style="stop-color:rgb(79.607843%,70.980392%,50.196078%);stop-opacity:1;"/>
<stop offset="0.2729" style="stop-color:rgb(94.117647%,89.411765%,74.509804%);stop-opacity:1;"/>
<stop offset="0.2746" style="stop-color:rgb(94.117647%,89.803922%,74.901961%);stop-opacity:1;"/>
<stop offset="0.3925" style="stop-color:rgb(80.392157%,71.764706%,50.980392%);stop-opacity:1;"/>
<stop offset="0.4557" style="stop-color:rgb(74.117647%,63.529412%,40.392157%);stop-opacity:1;"/>
<stop offset="0.6613" style="stop-color:rgb(94.117647%,89.803922%,74.901961%);stop-opacity:1;"/>
<stop offset="0.853" style="stop-color:rgb(80.392157%,71.764706%,50.980392%);stop-opacity:1;"/>
<stop offset="0.9557" style="stop-color:rgb(74.117647%,63.529412%,40.392157%);stop-opacity:1;"/>
<stop offset="1" style="stop-color:rgb(74.117647%,63.529412%,40.392157%);stop-opacity:1;"/>
</linearGradient>
<linearGradient id="linear3" gradientUnits="userSpaceOnUse" x1="-2197.6228" y1="-640.0079" x2="-2196.385" y2="-640.0079" gradientTransform="matrix(24.810992,24.810992,-24.810992,24.810992,38643.255008,70407.31)">
<stop offset="0" style="stop-color:rgb(74.117647%,63.529412%,40.392157%);stop-opacity:1;"/>
<stop offset="0.0739" style="stop-color:rgb(74.117647%,63.529412%,40.392157%);stop-opacity:1;"/>
<stop offset="0.1379" style="stop-color:rgb(79.607843%,70.980392%,50.196078%);stop-opacity:1;"/>
<stop offset="0.2729" style="stop-color:rgb(94.117647%,89.411765%,74.509804%);stop-opacity:1;"/>
<stop offset="0.2746" style="stop-color:rgb(94.117647%,89.803922%,74.901961%);stop-opacity:1;"/>
<stop offset="0.3925" style="stop-color:rgb(80.392157%,71.764706%,50.980392%);stop-opacity:1;"/>
<stop offset="0.4557" style="stop-color:rgb(74.117647%,63.529412%,40.392157%);stop-opacity:1;"/>
<stop offset="0.6613" style="stop-color:rgb(94.117647%,89.803922%,74.901961%);stop-opacity:1;"/>
<stop offset="0.853" style="stop-color:rgb(80.392157%,71.764706%,50.980392%);stop-opacity:1;"/>
<stop offset="0.9557" style="stop-color:rgb(74.117647%,63.529412%,40.392157%);stop-opacity:1;"/>
<stop offset="1" style="stop-color:rgb(74.117647%,63.529412%,40.392157%);stop-opacity:1;"/>
</linearGradient>
<linearGradient id="linear4" gradientUnits="userSpaceOnUse" x1="-2197.6228" y1="-640.0244" x2="-2196.385" y2="-640.0244" gradientTransform="matrix(24.810992,24.810992,-24.810992,24.810992,38644.98,70405.585008)">
<stop offset="0" style="stop-color:rgb(74.117647%,63.529412%,40.392157%);stop-opacity:1;"/>
<stop offset="0.0739" style="stop-color:rgb(74.117647%,63.529412%,40.392157%);stop-opacity:1;"/>
<stop offset="0.1379" style="stop-color:rgb(79.607843%,70.980392%,50.196078%);stop-opacity:1;"/>
<stop offset="0.2729" style="stop-color:rgb(94.117647%,89.411765%,74.509804%);stop-opacity:1;"/>
<stop offset="0.2746" style="stop-color:rgb(94.117647%,89.803922%,74.901961%);stop-opacity:1;"/>
<stop offset="0.3925" style="stop-color:rgb(80.392157%,71.764706%,50.980392%);stop-opacity:1;"/>
<stop offset="0.4557" style="stop-color:rgb(74.117647%,63.529412%,40.392157%);stop-opacity:1;"/>
<stop offset="0.6613" style="stop-color:rgb(94.117647%,89.803922%,74.901961%);stop-opacity:1;"/>
<stop offset="0.853" style="stop-color:rgb(80.392157%,71.764706%,50.980392%);stop-opacity:1;"/>
<stop offset="0.9557" style="stop-color:rgb(74.117647%,63.529412%,40.392157%);stop-opacity:1;"/>
<stop offset="1" style="stop-color:rgb(74.117647%,63.529412%,40.392157%);stop-opacity:1;"/>
</linearGradient>
<linearGradient id="linear5" gradientUnits="userSpaceOnUse" x1="-2197.6228" y1="-640.0387" x2="-2196.385" y2="-640.0387" gradientTransform="matrix(24.810992,24.810992,-24.810992,24.810992,38646.49,70404.075008)">
<stop offset="0" style="stop-color:rgb(74.117647%,63.529412%,40.392157%);stop-opacity:1;"/>
<stop offset="0.0739" style="stop-color:rgb(74.117647%,63.529412%,40.392157%);stop-opacity:1;"/>
<stop offset="0.1379" style="stop-color:rgb(79.607843%,70.980392%,50.196078%);stop-opacity:1;"/>
<stop offset="0.2729" style="stop-color:rgb(94.117647%,89.411765%,74.509804%);stop-opacity:1;"/>
<stop offset="0.2746" style="stop-color:rgb(94.117647%,89.803922%,74.901961%);stop-opacity:1;"/>
<stop offset="0.3925" style="stop-color:rgb(80.392157%,71.764706%,50.980392%);stop-opacity:1;"/>
<stop offset="0.4557" style="stop-color:rgb(74.117647%,63.529412%,40.392157%);stop-opacity:1;"/>
<stop offset="0.6613" style="stop-color:rgb(94.117647%,89.803922%,74.901961%);stop-opacity:1;"/>
<stop offset="0.853" style="stop-color:rgb(80.392157%,71.764706%,50.980392%);stop-opacity:1;"/>
<stop offset="0.9557" style="stop-color:rgb(74.117647%,63.529412%,40.392157%);stop-opacity:1;"/>
<stop offset="1" style="stop-color:rgb(74.117647%,63.529412%,40.392157%);stop-opacity:1;"/>
</linearGradient>
<linearGradient id="linear6" gradientUnits="userSpaceOnUse" x1="-2197.6228" y1="-640.0549" x2="-2196.385" y2="-640.0549" gradientTransform="matrix(24.810992,24.810992,-24.810992,24.810992,38648.175008,70402.39)">
<stop offset="0" style="stop-color:rgb(74.117647%,63.529412%,40.392157%);stop-opacity:1;"/>
<stop offset="0.0739" style="stop-color:rgb(74.117647%,63.529412%,40.392157%);stop-opacity:1;"/>
<stop offset="0.1379" style="stop-color:rgb(79.607843%,70.980392%,50.196078%);stop-opacity:1;"/>
<stop offset="0.2729" style="stop-color:rgb(94.117647%,89.411765%,74.509804%);stop-opacity:1;"/>
<stop offset="0.2746" style="stop-color:rgb(94.117647%,89.803922%,74.901961%);stop-opacity:1;"/>
<stop offset="0.3925" style="stop-color:rgb(80.392157%,71.764706%,50.980392%);stop-opacity:1;"/>
<stop offset="0.4557" style="stop-color:rgb(74.117647%,63.529412%,40.392157%);stop-opacity:1;"/>
<stop offset="0.6613" style="stop-color:rgb(94.117647%,89.803922%,74.901961%);stop-opacity:1;"/>
<stop offset="0.853" style="stop-color:rgb(80.392157%,71.764706%,50.980392%);stop-opacity:1;"/>
<stop offset="0.9557" style="stop-color:rgb(74.117647%,63.529412%,40.392157%);stop-opacity:1;"/>
<stop offset="1" style="stop-color:rgb(74.117647%,63.529412%,40.392157%);stop-opacity:1;"/>
</linearGradient>
<linearGradient id="linear7" gradientUnits="userSpaceOnUse" x1="-2197.623" y1="-640.0721" x2="-2196.3853" y2="-640.0721" gradientTransform="matrix(24.812032,24.812032,-24.812032,24.812032,38651.69,70403.45)">
<stop offset="0" style="stop-color:rgb(74.117647%,63.529412%,40.392157%);stop-opacity:1;"/>
<stop offset="0.0739" style="stop-color:rgb(74.117647%,63.529412%,40.392157%);stop-opacity:1;"/>
<stop offset="0.1379" style="stop-color:rgb(79.607843%,70.980392%,50.196078%);stop-opacity:1;"/>
<stop offset="0.2729" style="stop-color:rgb(94.117647%,89.411765%,74.509804%);stop-opacity:1;"/>
<stop offset="0.2746" style="stop-color:rgb(94.117647%,89.803922%,74.901961%);stop-opacity:1;"/>
<stop offset="0.3925" style="stop-color:rgb(80.392157%,71.764706%,50.980392%);stop-opacity:1;"/>
<stop offset="0.4557" style="stop-color:rgb(74.117647%,63.529412%,40.392157%);stop-opacity:1;"/>
<stop offset="0.6613" style="stop-color:rgb(94.117647%,89.803922%,74.901961%);stop-opacity:1;"/>
<stop offset="0.853" style="stop-color:rgb(80.392157%,71.764706%,50.980392%);stop-opacity:1;"/>
<stop offset="0.9557" style="stop-color:rgb(74.117647%,63.529412%,40.392157%);stop-opacity:1;"/>
<stop offset="1" style="stop-color:rgb(74.117647%,63.529412%,40.392157%);stop-opacity:1;"/>
</linearGradient>
<linearGradient id="linear8" gradientUnits="userSpaceOnUse" x1="-2197.6228" y1="-640.0872" x2="-2196.385" y2="-640.0872" gradientTransform="matrix(24.810992,24.810992,-24.810992,24.810992,38651.545008,70399.015008)">
<stop offset="0" style="stop-color:rgb(74.117647%,63.529412%,40.392157%);stop-opacity:1;"/>
<stop offset="0.0739" style="stop-color:rgb(74.117647%,63.529412%,40.392157%);stop-opacity:1;"/>
<stop offset="0.1379" style="stop-color:rgb(79.607843%,70.980392%,50.196078%);stop-opacity:1;"/>
<stop offset="0.2729" style="stop-color:rgb(94.117647%,89.411765%,74.509804%);stop-opacity:1;"/>
<stop offset="0.2746" style="stop-color:rgb(94.117647%,89.803922%,74.901961%);stop-opacity:1;"/>
<stop offset="0.3925" style="stop-color:rgb(80.392157%,71.764706%,50.980392%);stop-opacity:1;"/>
<stop offset="0.4557" style="stop-color:rgb(74.117647%,63.529412%,40.392157%);stop-opacity:1;"/>
<stop offset="0.6613" style="stop-color:rgb(94.117647%,89.803922%,74.901961%);stop-opacity:1;"/>
<stop offset="0.853" style="stop-color:rgb(80.392157%,71.764706%,50.980392%);stop-opacity:1;"/>
<stop offset="0.9557" style="stop-color:rgb(74.117647%,63.529412%,40.392157%);stop-opacity:1;"/>
<stop offset="1" style="stop-color:rgb(74.117647%,63.529412%,40.392157%);stop-opacity:1;"/>
</linearGradient>
<linearGradient id="linear9" gradientUnits="userSpaceOnUse" x1="-2197.6228" y1="-640.0952" x2="-2196.385" y2="-640.0952" gradientTransform="matrix(24.810992,24.810992,-24.810992,24.810992,38652.365008,70398.2)">
<stop offset="0" style="stop-color:rgb(74.117647%,63.529412%,40.392157%);stop-opacity:1;"/>
<stop offset="0.0739" style="stop-color:rgb(74.117647%,63.529412%,40.392157%);stop-opacity:1;"/>
<stop offset="0.1379" style="stop-color:rgb(79.607843%,70.980392%,50.196078%);stop-opacity:1;"/>
<stop offset="0.2729" style="stop-color:rgb(94.117647%,89.411765%,74.509804%);stop-opacity:1;"/>
<stop offset="0.2746" style="stop-color:rgb(94.117647%,89.803922%,74.901961%);stop-opacity:1;"/>
<stop offset="0.3925" style="stop-color:rgb(80.392157%,71.764706%,50.980392%);stop-opacity:1;"/>
<stop offset="0.4557" style="stop-color:rgb(74.117647%,63.529412%,40.392157%);stop-opacity:1;"/>
<stop offset="0.6613" style="stop-color:rgb(94.117647%,89.803922%,74.901961%);stop-opacity:1;"/>
<stop offset="0.853" style="stop-color:rgb(80.392157%,71.764706%,50.980392%);stop-opacity:1;"/>
<stop offset="0.9557" style="stop-color:rgb(74.117647%,63.529412%,40.392157%);stop-opacity:1;"/>
<stop offset="1" style="stop-color:rgb(74.117647%,63.529412%,40.392157%);stop-opacity:1;"/>
</linearGradient>
<linearGradient id="linear10" gradientUnits="userSpaceOnUse" x1="-2197.6228" y1="-640.1005" x2="-2196.385" y2="-640.1005" gradientTransform="matrix(24.810992,24.810992,-24.810992,24.810992,38652.915008,70397.65)">
<stop offset="0" style="stop-color:rgb(74.117647%,63.529412%,40.392157%);stop-opacity:1;"/>
<stop offset="0.0739" style="stop-color:rgb(74.117647%,63.529412%,40.392157%);stop-opacity:1;"/>
<stop offset="0.1379" style="stop-color:rgb(79.607843%,70.980392%,50.196078%);stop-opacity:1;"/>
<stop offset="0.2729" style="stop-color:rgb(94.117647%,89.411765%,74.509804%);stop-opacity:1;"/>
<stop offset="0.2746" style="stop-color:rgb(94.117647%,89.803922%,74.901961%);stop-opacity:1;"/>
<stop offset="0.3925" style="stop-color:rgb(80.392157%,71.764706%,50.980392%);stop-opacity:1;"/>
<stop offset="0.4557" style="stop-color:rgb(74.117647%,63.529412%,40.392157%);stop-opacity:1;"/>
<stop offset="0.6613" style="stop-color:rgb(94.117647%,89.803922%,74.901961%);stop-opacity:1;"/>
<stop offset="0.853" style="stop-color:rgb(80.392157%,71.764706%,50.980392%);stop-opacity:1;"/>
<stop offset="0.9557" style="stop-color:rgb(74.117647%,63.529412%,40.392157%);stop-opacity:1;"/>
<stop offset="1" style="stop-color:rgb(74.117647%,63.529412%,40.392157%);stop-opacity:1;"/>
</linearGradient>
<linearGradient id="linear11" gradientUnits="userSpaceOnUse" x1="-2197.6228" y1="-640.1008" x2="-2196.385" y2="-640.1008" gradientTransform="matrix(24.810992,24.810992,-24.810992,24.810992,38652.95,70397.615008)">
<stop offset="0" style="stop-color:rgb(74.117647%,63.529412%,40.392157%);stop-opacity:1;"/>
<stop offset="0.0739" style="stop-color:rgb(74.117647%,63.529412%,40.392157%);stop-opacity:1;"/>
<stop offset="0.1379" style="stop-color:rgb(79.607843%,70.980392%,50.196078%);stop-opacity:1;"/>
<stop offset="0.2729" style="stop-color:rgb(94.117647%,89.411765%,74.509804%);stop-opacity:1;"/>
<stop offset="0.2746" style="stop-color:rgb(94.117647%,89.803922%,74.901961%);stop-opacity:1;"/>
<stop offset="0.3925" style="stop-color:rgb(80.392157%,71.764706%,50.980392%);stop-opacity:1;"/>
<stop offset="0.4557" style="stop-color:rgb(74.117647%,63.529412%,40.392157%);stop-opacity:1;"/>
<stop offset="0.6613" style="stop-color:rgb(94.117647%,89.803922%,74.901961%);stop-opacity:1;"/>
<stop offset="0.853" style="stop-color:rgb(80.392157%,71.764706%,50.980392%);stop-opacity:1;"/>
<stop offset="0.9557" style="stop-color:rgb(74.117647%,63.529412%,40.392157%);stop-opacity:1;"/>
<stop offset="1" style="stop-color:rgb(74.117647%,63.529412%,40.392157%);stop-opacity:1;"/>
</linearGradient>
<linearGradient id="linear12" gradientUnits="userSpaceOnUse" x1="-2197.6228" y1="-640.0966" x2="-2196.385" y2="-640.0966" gradientTransform="matrix(24.810992,24.810992,-24.810992,24.810992,38652.52,70398.045008)">
<stop offset="0" style="stop-color:rgb(74.117647%,63.529412%,40.392157%);stop-opacity:1;"/>
<stop offset="0.0739" style="stop-color:rgb(74.117647%,63.529412%,40.392157%);stop-opacity:1;"/>
<stop offset="0.1379" style="stop-color:rgb(79.607843%,70.980392%,50.196078%);stop-opacity:1;"/>
<stop offset="0.2729" style="stop-color:rgb(94.117647%,89.411765%,74.509804%);stop-opacity:1;"/>
<stop offset="0.2746" style="stop-color:rgb(94.117647%,89.803922%,74.901961%);stop-opacity:1;"/>
<stop offset="0.3925" style="stop-color:rgb(80.392157%,71.764706%,50.980392%);stop-opacity:1;"/>
<stop offset="0.4557" style="stop-color:rgb(74.117647%,63.529412%,40.392157%);stop-opacity:1;"/>
<stop offset="0.6613" style="stop-color:rgb(94.117647%,89.803922%,74.901961%);stop-opacity:1;"/>
<stop offset="0.853" style="stop-color:rgb(80.392157%,71.764706%,50.980392%);stop-opacity:1;"/>
<stop offset="0.9557" style="stop-color:rgb(74.117647%,63.529412%,40.392157%);stop-opacity:1;"/>
<stop offset="1" style="stop-color:rgb(74.117647%,63.529412%,40.392157%);stop-opacity:1;"/>
</linearGradient>
<linearGradient id="linear13" gradientUnits="userSpaceOnUse" x1="-2197.6228" y1="-640.0881" x2="-2196.385" y2="-640.0881" gradientTransform="matrix(24.810992,24.810992,-24.810992,24.810992,38651.63,70398.935008)">
<stop offset="0" style="stop-color:rgb(74.117647%,63.529412%,40.392157%);stop-opacity:1;"/>
<stop offset="0.0739" style="stop-color:rgb(74.117647%,63.529412%,40.392157%);stop-opacity:1;"/>
<stop offset="0.1379" style="stop-color:rgb(79.607843%,70.980392%,50.196078%);stop-opacity:1;"/>
<stop offset="0.2729" style="stop-color:rgb(94.117647%,89.411765%,74.509804%);stop-opacity:1;"/>
<stop offset="0.2746" style="stop-color:rgb(94.117647%,89.803922%,74.901961%);stop-opacity:1;"/>
<stop offset="0.3925" style="stop-color:rgb(80.392157%,71.764706%,50.980392%);stop-opacity:1;"/>
<stop offset="0.4557" style="stop-color:rgb(74.117647%,63.529412%,40.392157%);stop-opacity:1;"/>
<stop offset="0.6613" style="stop-color:rgb(94.117647%,89.803922%,74.901961%);stop-opacity:1;"/>
<stop offset="0.853" style="stop-color:rgb(80.392157%,71.764706%,50.980392%);stop-opacity:1;"/>
<stop offset="0.9557" style="stop-color:rgb(74.117647%,63.529412%,40.392157%);stop-opacity:1;"/>
<stop offset="1" style="stop-color:rgb(74.117647%,63.529412%,40.392157%);stop-opacity:1;"/>
</linearGradient>
<linearGradient id="linear14" gradientUnits="userSpaceOnUse" x1="-2197.6228" y1="-639.9724" x2="-2196.385" y2="-639.9724" gradientTransform="matrix(24.810992,24.810992,-24.810992,24.810992,38639.562496,70411)">
<stop offset="0" style="stop-color:rgb(74.117647%,63.529412%,40.392157%);stop-opacity:1;"/>
<stop offset="0.0739" style="stop-color:rgb(74.117647%,63.529412%,40.392157%);stop-opacity:1;"/>
<stop offset="0.1379" style="stop-color:rgb(79.607843%,70.980392%,50.196078%);stop-opacity:1;"/>
<stop offset="0.2729" style="stop-color:rgb(94.117647%,89.411765%,74.509804%);stop-opacity:1;"/>
<stop offset="0.2746" style="stop-color:rgb(94.117647%,89.803922%,74.901961%);stop-opacity:1;"/>
<stop offset="0.3925" style="stop-color:rgb(80.392157%,71.764706%,50.980392%);stop-opacity:1;"/>
<stop offset="0.4557" style="stop-color:rgb(74.117647%,63.529412%,40.392157%);stop-opacity:1;"/>
<stop offset="0.6613" style="stop-color:rgb(94.117647%,89.803922%,74.901961%);stop-opacity:1;"/>
<stop offset="0.853" style="stop-color:rgb(80.392157%,71.764706%,50.980392%);stop-opacity:1;"/>
<stop offset="0.9557" style="stop-color:rgb(74.117647%,63.529412%,40.392157%);stop-opacity:1;"/>
<stop offset="1" style="stop-color:rgb(74.117647%,63.529412%,40.392157%);stop-opacity:1;"/>
</linearGradient>
<linearGradient id="linear15" gradientUnits="userSpaceOnUse" x1="-2197.6228" y1="-639.9635" x2="-2196.385" y2="-639.9635" gradientTransform="matrix(24.810992,24.810992,-24.810992,24.810992,38638.64,70411.925008)">
<stop offset="0" style="stop-color:rgb(74.117647%,63.529412%,40.392157%);stop-opacity:1;"/>
<stop offset="0.0739" style="stop-color:rgb(74.117647%,63.529412%,40.392157%);stop-opacity:1;"/>
<stop offset="0.1379" style="stop-color:rgb(79.607843%,70.980392%,50.196078%);stop-opacity:1;"/>
<stop offset="0.2729" style="stop-color:rgb(94.117647%,89.411765%,74.509804%);stop-opacity:1;"/>
<stop offset="0.2746" style="stop-color:rgb(94.117647%,89.803922%,74.901961%);stop-opacity:1;"/>
<stop offset="0.3925" style="stop-color:rgb(80.392157%,71.764706%,50.980392%);stop-opacity:1;"/>
<stop offset="0.4557" style="stop-color:rgb(74.117647%,63.529412%,40.392157%);stop-opacity:1;"/>
<stop offset="0.6613" style="stop-color:rgb(94.117647%,89.803922%,74.901961%);stop-opacity:1;"/>
<stop offset="0.853" style="stop-color:rgb(80.392157%,71.764706%,50.980392%);stop-opacity:1;"/>
<stop offset="0.9557" style="stop-color:rgb(74.117647%,63.529412%,40.392157%);stop-opacity:1;"/>
<stop offset="1" style="stop-color:rgb(74.117647%,63.529412%,40.392157%);stop-opacity:1;"/>
</linearGradient>
<linearGradient id="linear16" gradientUnits="userSpaceOnUse" x1="-2197.6228" y1="-639.9586" x2="-2196.385" y2="-639.9586" gradientTransform="matrix(24.810992,24.810992,-24.810992,24.810992,38638.132496,70412.43)">
<stop offset="0" style="stop-color:rgb(74.117647%,63.529412%,40.392157%);stop-opacity:1;"/>
<stop offset="0.0739" style="stop-color:rgb(74.117647%,63.529412%,40.392157%);stop-opacity:1;"/>
<stop offset="0.1379" style="stop-color:rgb(79.607843%,70.980392%,50.196078%);stop-opacity:1;"/>
<stop offset="0.2729" style="stop-color:rgb(94.117647%,89.411765%,74.509804%);stop-opacity:1;"/>
<stop offset="0.2746" style="stop-color:rgb(94.117647%,89.803922%,74.901961%);stop-opacity:1;"/>
<stop offset="0.3925" style="stop-color:rgb(80.392157%,71.764706%,50.980392%);stop-opacity:1;"/>
<stop offset="0.4557" style="stop-color:rgb(74.117647%,63.529412%,40.392157%);stop-opacity:1;"/>
<stop offset="0.6613" style="stop-color:rgb(94.117647%,89.803922%,74.901961%);stop-opacity:1;"/>
<stop offset="0.853" style="stop-color:rgb(80.392157%,71.764706%,50.980392%);stop-opacity:1;"/>
<stop offset="0.9557" style="stop-color:rgb(74.117647%,63.529412%,40.392157%);stop-opacity:1;"/>
<stop offset="1" style="stop-color:rgb(74.117647%,63.529412%,40.392157%);stop-opacity:1;"/>
</linearGradient>
<linearGradient id="linear17" gradientUnits="userSpaceOnUse" x1="-2197.6228" y1="-639.9577" x2="-2196.385" y2="-639.9577" gradientTransform="matrix(24.810992,24.810992,-24.810992,24.810992,38638.035008,70412.53)">
<stop offset="0" style="stop-color:rgb(74.117647%,63.529412%,40.392157%);stop-opacity:1;"/>
<stop offset="0.0739" style="stop-color:rgb(74.117647%,63.529412%,40.392157%);stop-opacity:1;"/>
<stop offset="0.1379" style="stop-color:rgb(79.607843%,70.980392%,50.196078%);stop-opacity:1;"/>
<stop offset="0.2729" style="stop-color:rgb(94.117647%,89.411765%,74.509804%);stop-opacity:1;"/>
<stop offset="0.2746" style="stop-color:rgb(94.117647%,89.803922%,74.901961%);stop-opacity:1;"/>
<stop offset="0.3925" style="stop-color:rgb(80.392157%,71.764706%,50.980392%);stop-opacity:1;"/>
<stop offset="0.4557" style="stop-color:rgb(74.117647%,63.529412%,40.392157%);stop-opacity:1;"/>
<stop offset="0.6613" style="stop-color:rgb(94.117647%,89.803922%,74.901961%);stop-opacity:1;"/>
<stop offset="0.853" style="stop-color:rgb(80.392157%,71.764706%,50.980392%);stop-opacity:1;"/>
<stop offset="0.9557" style="stop-color:rgb(74.117647%,63.529412%,40.392157%);stop-opacity:1;"/>
<stop offset="1" style="stop-color:rgb(74.117647%,63.529412%,40.392157%);stop-opacity:1;"/>
</linearGradient>
<linearGradient id="linear18" gradientUnits="userSpaceOnUse" x1="-2197.6228" y1="-639.9604" x2="-2196.385" y2="-639.9604" gradientTransform="matrix(24.810992,24.810992,-24.810992,24.810992,38638.31,70412.255008)">
<stop offset="0" style="stop-color:rgb(74.117647%,63.529412%,40.392157%);stop-opacity:1;"/>
<stop offset="0.0739" style="stop-color:rgb(74.117647%,63.529412%,40.392157%);stop-opacity:1;"/>
<stop offset="0.1379" style="stop-color:rgb(79.607843%,70.980392%,50.196078%);stop-opacity:1;"/>
<stop offset="0.2729" style="stop-color:rgb(94.117647%,89.411765%,74.509804%);stop-opacity:1;"/>
<stop offset="0.2746" style="stop-color:rgb(94.117647%,89.803922%,74.901961%);stop-opacity:1;"/>
<stop offset="0.3925" style="stop-color:rgb(80.392157%,71.764706%,50.980392%);stop-opacity:1;"/>
<stop offset="0.4557" style="stop-color:rgb(74.117647%,63.529412%,40.392157%);stop-opacity:1;"/>
<stop offset="0.6613" style="stop-color:rgb(94.117647%,89.803922%,74.901961%);stop-opacity:1;"/>
<stop offset="0.853" style="stop-color:rgb(80.392157%,71.764706%,50.980392%);stop-opacity:1;"/>
<stop offset="0.9557" style="stop-color:rgb(74.117647%,63.529412%,40.392157%);stop-opacity:1;"/>
<stop offset="1" style="stop-color:rgb(74.117647%,63.529412%,40.392157%);stop-opacity:1;"/>
</linearGradient>
<linearGradient id="linear19" gradientUnits="userSpaceOnUse" x1="-2197.6228" y1="-639.967" x2="-2196.385" y2="-639.967" gradientTransform="matrix(24.810992,24.810992,-24.810992,24.810992,38639.007504,70411.555008)">
<stop offset="0" style="stop-color:rgb(74.117647%,63.529412%,40.392157%);stop-opacity:1;"/>
<stop offset="0.0739" style="stop-color:rgb(74.117647%,63.529412%,40.392157%);stop-opacity:1;"/>
<stop offset="0.1379" style="stop-color:rgb(79.607843%,70.980392%,50.196078%);stop-opacity:1;"/>
<stop offset="0.2729" style="stop-color:rgb(94.117647%,89.411765%,74.509804%);stop-opacity:1;"/>
<stop offset="0.2746" style="stop-color:rgb(94.117647%,89.803922%,74.901961%);stop-opacity:1;"/>
<stop offset="0.3925" style="stop-color:rgb(80.392157%,71.764706%,50.980392%);stop-opacity:1;"/>
<stop offset="0.4557" style="stop-color:rgb(74.117647%,63.529412%,40.392157%);stop-opacity:1;"/>
<stop offset="0.6613" style="stop-color:rgb(94.117647%,89.803922%,74.901961%);stop-opacity:1;"/>
<stop offset="0.853" style="stop-color:rgb(80.392157%,71.764706%,50.980392%);stop-opacity:1;"/>
<stop offset="0.9557" style="stop-color:rgb(74.117647%,63.529412%,40.392157%);stop-opacity:1;"/>
<stop offset="1" style="stop-color:rgb(74.117647%,63.529412%,40.392157%);stop-opacity:1;"/>
</linearGradient>
<linearGradient id="linear20" gradientUnits="userSpaceOnUse" x1="-2197.6228" y1="-639.978" x2="-2196.385" y2="-639.978" gradientTransform="matrix(24.810992,24.810992,-24.810992,24.810992,38640.145008,70410.42)">
<stop offset="0" style="stop-color:rgb(74.117647%,63.529412%,40.392157%);stop-opacity:1;"/>
<stop offset="0.0739" style="stop-color:rgb(74.117647%,63.529412%,40.392157%);stop-opacity:1;"/>
<stop offset="0.1379" style="stop-color:rgb(79.607843%,70.980392%,50.196078%);stop-opacity:1;"/>
<stop offset="0.2729" style="stop-color:rgb(94.117647%,89.411765%,74.509804%);stop-opacity:1;"/>
<stop offset="0.2746" style="stop-color:rgb(94.117647%,89.803922%,74.901961%);stop-opacity:1;"/>
<stop offset="0.3925" style="stop-color:rgb(80.392157%,71.764706%,50.980392%);stop-opacity:1;"/>
<stop offset="0.4557" style="stop-color:rgb(74.117647%,63.529412%,40.392157%);stop-opacity:1;"/>
<stop offset="0.6613" style="stop-color:rgb(94.117647%,89.803922%,74.901961%);stop-opacity:1;"/>
<stop offset="0.853" style="stop-color:rgb(80.392157%,71.764706%,50.980392%);stop-opacity:1;"/>
<stop offset="0.9557" style="stop-color:rgb(74.117647%,63.529412%,40.392157%);stop-opacity:1;"/>
<stop offset="1" style="stop-color:rgb(74.117647%,63.529412%,40.392157%);stop-opacity:1;"/>
</linearGradient>
<linearGradient id="linear21" gradientUnits="userSpaceOnUse" x1="-2197.6228" y1="-639.9922" x2="-2196.385" y2="-639.9922" gradientTransform="matrix(24.810992,24.810992,-24.810992,24.810992,38641.627504,70408.935008)">
<stop offset="0" style="stop-color:rgb(74.117647%,63.529412%,40.392157%);stop-opacity:1;"/>
<stop offset="0.0739" style="stop-color:rgb(74.117647%,63.529412%,40.392157%);stop-opacity:1;"/>
<stop offset="0.1379" style="stop-color:rgb(79.607843%,70.980392%,50.196078%);stop-opacity:1;"/>
<stop offset="0.2729" style="stop-color:rgb(94.117647%,89.411765%,74.509804%);stop-opacity:1;"/>
<stop offset="0.2746" style="stop-color:rgb(94.117647%,89.803922%,74.901961%);stop-opacity:1;"/>
<stop offset="0.3925" style="stop-color:rgb(80.392157%,71.764706%,50.980392%);stop-opacity:1;"/>
<stop offset="0.4557" style="stop-color:rgb(74.117647%,63.529412%,40.392157%);stop-opacity:1;"/>
<stop offset="0.6613" style="stop-color:rgb(94.117647%,89.803922%,74.901961%);stop-opacity:1;"/>
<stop offset="0.853" style="stop-color:rgb(80.392157%,71.764706%,50.980392%);stop-opacity:1;"/>
<stop offset="0.9557" style="stop-color:rgb(74.117647%,63.529412%,40.392157%);stop-opacity:1;"/>
<stop offset="1" style="stop-color:rgb(74.117647%,63.529412%,40.392157%);stop-opacity:1;"/>
</linearGradient>
<linearGradient id="linear22" gradientUnits="userSpaceOnUse" x1="-2197.6228" y1="-640.0084" x2="-2196.385" y2="-640.0084" gradientTransform="matrix(24.810992,24.810992,-24.810992,24.810992,38643.33,70407.235008)">
<stop offset="0" style="stop-color:rgb(74.117647%,63.529412%,40.392157%);stop-opacity:1;"/>
<stop offset="0.0739" style="stop-color:rgb(74.117647%,63.529412%,40.392157%);stop-opacity:1;"/>
<stop offset="0.1379" style="stop-color:rgb(79.607843%,70.980392%,50.196078%);stop-opacity:1;"/>
<stop offset="0.2729" style="stop-color:rgb(94.117647%,89.411765%,74.509804%);stop-opacity:1;"/>
<stop offset="0.2746" style="stop-color:rgb(94.117647%,89.803922%,74.901961%);stop-opacity:1;"/>
<stop offset="0.3925" style="stop-color:rgb(80.392157%,71.764706%,50.980392%);stop-opacity:1;"/>
<stop offset="0.4557" style="stop-color:rgb(74.117647%,63.529412%,40.392157%);stop-opacity:1;"/>
<stop offset="0.6613" style="stop-color:rgb(94.117647%,89.803922%,74.901961%);stop-opacity:1;"/>
<stop offset="0.853" style="stop-color:rgb(80.392157%,71.764706%,50.980392%);stop-opacity:1;"/>
<stop offset="0.9557" style="stop-color:rgb(74.117647%,63.529412%,40.392157%);stop-opacity:1;"/>
<stop offset="1" style="stop-color:rgb(74.117647%,63.529412%,40.392157%);stop-opacity:1;"/>
</linearGradient>
<linearGradient id="linear23" gradientUnits="userSpaceOnUse" x1="-2197.6228" y1="-640.0252" x2="-2196.385" y2="-640.0252" gradientTransform="matrix(24.810992,24.810992,-24.810992,24.810992,38645.077504,70405.485008)">
<stop offset="0" style="stop-color:rgb(74.117647%,63.529412%,40.392157%);stop-opacity:1;"/>
<stop offset="0.0739" style="stop-color:rgb(74.117647%,63.529412%,40.392157%);stop-opacity:1;"/>
<stop offset="0.1379" style="stop-color:rgb(79.607843%,70.980392%,50.196078%);stop-opacity:1;"/>
<stop offset="0.2729" style="stop-color:rgb(94.117647%,89.411765%,74.509804%);stop-opacity:1;"/>
<stop offset="0.2746" style="stop-color:rgb(94.117647%,89.803922%,74.901961%);stop-opacity:1;"/>
<stop offset="0.3925" style="stop-color:rgb(80.392157%,71.764706%,50.980392%);stop-opacity:1;"/>
<stop offset="0.4557" style="stop-color:rgb(74.117647%,63.529412%,40.392157%);stop-opacity:1;"/>
<stop offset="0.6613" style="stop-color:rgb(94.117647%,89.803922%,74.901961%);stop-opacity:1;"/>
<stop offset="0.853" style="stop-color:rgb(80.392157%,71.764706%,50.980392%);stop-opacity:1;"/>
<stop offset="0.9557" style="stop-color:rgb(74.117647%,63.529412%,40.392157%);stop-opacity:1;"/>
<stop offset="1" style="stop-color:rgb(74.117647%,63.529412%,40.392157%);stop-opacity:1;"/>
</linearGradient>
<linearGradient id="linear24" gradientUnits="userSpaceOnUse" x1="-2197.6228" y1="-640.0422" x2="-2196.385" y2="-640.0422" gradientTransform="matrix(24.810992,24.810992,-24.810992,24.810992,38646.85,70403.715008)">
<stop offset="0" style="stop-color:rgb(74.117647%,63.529412%,40.392157%);stop-opacity:1;"/>
<stop offset="0.0739" style="stop-color:rgb(74.117647%,63.529412%,40.392157%);stop-opacity:1;"/>
<stop offset="0.1379" style="stop-color:rgb(79.607843%,70.980392%,50.196078%);stop-opacity:1;"/>
<stop offset="0.2729" style="stop-color:rgb(94.117647%,89.411765%,74.509804%);stop-opacity:1;"/>
<stop offset="0.2746" style="stop-color:rgb(94.117647%,89.803922%,74.901961%);stop-opacity:1;"/>
<stop offset="0.3925" style="stop-color:rgb(80.392157%,71.764706%,50.980392%);stop-opacity:1;"/>
<stop offset="0.4557" style="stop-color:rgb(74.117647%,63.529412%,40.392157%);stop-opacity:1;"/>
<stop offset="0.6613" style="stop-color:rgb(94.117647%,89.803922%,74.901961%);stop-opacity:1;"/>
<stop offset="0.853" style="stop-color:rgb(80.392157%,71.764706%,50.980392%);stop-opacity:1;"/>
<stop offset="0.9557" style="stop-color:rgb(74.117647%,63.529412%,40.392157%);stop-opacity:1;"/>
<stop offset="1" style="stop-color:rgb(74.117647%,63.529412%,40.392157%);stop-opacity:1;"/>
</linearGradient>
<linearGradient id="linear25" gradientUnits="userSpaceOnUse" x1="-2197.6228" y1="-640.0589" x2="-2196.385" y2="-640.0589" gradientTransform="matrix(24.810992,24.810992,-24.810992,24.810992,38648.59,70401.975008)">
<stop offset="0" style="stop-color:rgb(74.117647%,63.529412%,40.392157%);stop-opacity:1;"/>
<stop offset="0.0739" style="stop-color:rgb(74.117647%,63.529412%,40.392157%);stop-opacity:1;"/>
<stop offset="0.1379" style="stop-color:rgb(79.607843%,70.980392%,50.196078%);stop-opacity:1;"/>
<stop offset="0.2729" style="stop-color:rgb(94.117647%,89.411765%,74.509804%);stop-opacity:1;"/>
<stop offset="0.2746" style="stop-color:rgb(94.117647%,89.803922%,74.901961%);stop-opacity:1;"/>
<stop offset="0.3925" style="stop-color:rgb(80.392157%,71.764706%,50.980392%);stop-opacity:1;"/>
<stop offset="0.4557" style="stop-color:rgb(74.117647%,63.529412%,40.392157%);stop-opacity:1;"/>
<stop offset="0.6613" style="stop-color:rgb(94.117647%,89.803922%,74.901961%);stop-opacity:1;"/>
<stop offset="0.853" style="stop-color:rgb(80.392157%,71.764706%,50.980392%);stop-opacity:1;"/>
<stop offset="0.9557" style="stop-color:rgb(74.117647%,63.529412%,40.392157%);stop-opacity:1;"/>
<stop offset="1" style="stop-color:rgb(74.117647%,63.529412%,40.392157%);stop-opacity:1;"/>
</linearGradient>
<linearGradient id="linear26" gradientUnits="userSpaceOnUse" x1="-2197.6228" y1="-640.0743" x2="-2196.385" y2="-640.0743" gradientTransform="matrix(24.810992,24.810992,-24.810992,24.810992,38650.19,70400.37)">
<stop offset="0" style="stop-color:rgb(74.117647%,63.529412%,40.392157%);stop-opacity:1;"/>
<stop offset="0.0739" style="stop-color:rgb(74.117647%,63.529412%,40.392157%);stop-opacity:1;"/>
<stop offset="0.1379" style="stop-color:rgb(79.607843%,70.980392%,50.196078%);stop-opacity:1;"/>
<stop offset="0.2729" style="stop-color:rgb(94.117647%,89.411765%,74.509804%);stop-opacity:1;"/>
<stop offset="0.2746" style="stop-color:rgb(94.117647%,89.803922%,74.901961%);stop-opacity:1;"/>
<stop offset="0.3925" style="stop-color:rgb(80.392157%,71.764706%,50.980392%);stop-opacity:1;"/>
<stop offset="0.4557" style="stop-color:rgb(74.117647%,63.529412%,40.392157%);stop-opacity:1;"/>
<stop offset="0.6613" style="stop-color:rgb(94.117647%,89.803922%,74.901961%);stop-opacity:1;"/>
<stop offset="0.853" style="stop-color:rgb(80.392157%,71.764706%,50.980392%);stop-opacity:1;"/>
<stop offset="0.9557" style="stop-color:rgb(74.117647%,63.529412%,40.392157%);stop-opacity:1;"/>
<stop offset="1" style="stop-color:rgb(74.117647%,63.529412%,40.392157%);stop-opacity:1;"/>
</linearGradient>
<linearGradient id="linear27" gradientUnits="userSpaceOnUse" x1="-2197.6228" y1="-640.0287" x2="-2196.385" y2="-640.0287" gradientTransform="matrix(24.810992,24.810992,-24.810992,24.810992,38645.445008,70405.12)">
<stop offset="0" style="stop-color:rgb(74.117647%,63.529412%,40.392157%);stop-opacity:1;"/>
<stop offset="0.0739" style="stop-color:rgb(74.117647%,63.529412%,40.392157%);stop-opacity:1;"/>
<stop offset="0.1379" style="stop-color:rgb(79.607843%,70.980392%,50.196078%);stop-opacity:1;"/>
<stop offset="0.2729" style="stop-color:rgb(94.117647%,89.411765%,74.509804%);stop-opacity:1;"/>
<stop offset="0.2746" style="stop-color:rgb(94.117647%,89.803922%,74.901961%);stop-opacity:1;"/>
<stop offset="0.3925" style="stop-color:rgb(80.392157%,71.764706%,50.980392%);stop-opacity:1;"/>
<stop offset="0.4557" style="stop-color:rgb(74.117647%,63.529412%,40.392157%);stop-opacity:1;"/>
<stop offset="0.6613" style="stop-color:rgb(94.117647%,89.803922%,74.901961%);stop-opacity:1;"/>
<stop offset="0.853" style="stop-color:rgb(80.392157%,71.764706%,50.980392%);stop-opacity:1;"/>
<stop offset="0.9557" style="stop-color:rgb(74.117647%,63.529412%,40.392157%);stop-opacity:1;"/>
<stop offset="1" style="stop-color:rgb(74.117647%,63.529412%,40.392157%);stop-opacity:1;"/>
</linearGradient>
<linearGradient id="linear28" gradientUnits="userSpaceOnUse" x1="-2197.6228" y1="-640.0394" x2="-2196.385" y2="-640.0394" gradientTransform="matrix(24.810992,24.810992,-24.810992,24.810992,38646.55,70404.015008)">
<stop offset="0" style="stop-color:rgb(74.117647%,63.529412%,40.392157%);stop-opacity:1;"/>
<stop offset="0.0739" style="stop-color:rgb(74.117647%,63.529412%,40.392157%);stop-opacity:1;"/>
<stop offset="0.1379" style="stop-color:rgb(79.607843%,70.980392%,50.196078%);stop-opacity:1;"/>
<stop offset="0.2729" style="stop-color:rgb(94.117647%,89.411765%,74.509804%);stop-opacity:1;"/>
<stop offset="0.2746" style="stop-color:rgb(94.117647%,89.803922%,74.901961%);stop-opacity:1;"/>
<stop offset="0.3925" style="stop-color:rgb(80.392157%,71.764706%,50.980392%);stop-opacity:1;"/>
<stop offset="0.4557" style="stop-color:rgb(74.117647%,63.529412%,40.392157%);stop-opacity:1;"/>
<stop offset="0.6613" style="stop-color:rgb(94.117647%,89.803922%,74.901961%);stop-opacity:1;"/>
<stop offset="0.853" style="stop-color:rgb(80.392157%,71.764706%,50.980392%);stop-opacity:1;"/>
<stop offset="0.9557" style="stop-color:rgb(74.117647%,63.529412%,40.392157%);stop-opacity:1;"/>
<stop offset="1" style="stop-color:rgb(74.117647%,63.529412%,40.392157%);stop-opacity:1;"/>
</linearGradient>
<linearGradient id="linear29" gradientUnits="userSpaceOnUse" x1="-2197.6228" y1="-640.0479" x2="-2196.385" y2="-640.0479" gradientTransform="matrix(24.810992,24.810992,-24.810992,24.810992,38647.435008,70403.13)">
<stop offset="0" style="stop-color:rgb(74.117647%,63.529412%,40.392157%);stop-opacity:1;"/>
<stop offset="0.0739" style="stop-color:rgb(74.117647%,63.529412%,40.392157%);stop-opacity:1;"/>
<stop offset="0.1379" style="stop-color:rgb(79.607843%,70.980392%,50.196078%);stop-opacity:1;"/>
<stop offset="0.2729" style="stop-color:rgb(94.117647%,89.411765%,74.509804%);stop-opacity:1;"/>
<stop offset="0.2746" style="stop-color:rgb(94.117647%,89.803922%,74.901961%);stop-opacity:1;"/>
<stop offset="0.3925" style="stop-color:rgb(80.392157%,71.764706%,50.980392%);stop-opacity:1;"/>
<stop offset="0.4557" style="stop-color:rgb(74.117647%,63.529412%,40.392157%);stop-opacity:1;"/>
<stop offset="0.6613" style="stop-color:rgb(94.117647%,89.803922%,74.901961%);stop-opacity:1;"/>
<stop offset="0.853" style="stop-color:rgb(80.392157%,71.764706%,50.980392%);stop-opacity:1;"/>
<stop offset="0.9557" style="stop-color:rgb(74.117647%,63.529412%,40.392157%);stop-opacity:1;"/>
<stop offset="1" style="stop-color:rgb(74.117647%,63.529412%,40.392157%);stop-opacity:1;"/>
</linearGradient>
<linearGradient id="linear30" gradientUnits="userSpaceOnUse" x1="-2197.6228" y1="-640.056" x2="-2196.385" y2="-640.056" gradientTransform="matrix(24.810992,24.810992,-24.810992,24.810992,38648.29,70402.275008)">
<stop offset="0" style="stop-color:rgb(74.117647%,63.529412%,40.392157%);stop-opacity:1;"/>
<stop offset="0.0739" style="stop-color:rgb(74.117647%,63.529412%,40.392157%);stop-opacity:1;"/>
<stop offset="0.1379" style="stop-color:rgb(79.607843%,70.980392%,50.196078%);stop-opacity:1;"/>
<stop offset="0.2729" style="stop-color:rgb(94.117647%,89.411765%,74.509804%);stop-opacity:1;"/>
<stop offset="0.2746" style="stop-color:rgb(94.117647%,89.803922%,74.901961%);stop-opacity:1;"/>
<stop offset="0.3925" style="stop-color:rgb(80.392157%,71.764706%,50.980392%);stop-opacity:1;"/>
<stop offset="0.4557" style="stop-color:rgb(74.117647%,63.529412%,40.392157%);stop-opacity:1;"/>
<stop offset="0.6613" style="stop-color:rgb(94.117647%,89.803922%,74.901961%);stop-opacity:1;"/>
<stop offset="0.853" style="stop-color:rgb(80.392157%,71.764706%,50.980392%);stop-opacity:1;"/>
<stop offset="0.9557" style="stop-color:rgb(74.117647%,63.529412%,40.392157%);stop-opacity:1;"/>
<stop offset="1" style="stop-color:rgb(74.117647%,63.529412%,40.392157%);stop-opacity:1;"/>
</linearGradient>
<linearGradient id="linear31" gradientUnits="userSpaceOnUse" x1="-2197.6228" y1="-640.0651" x2="-2196.385" y2="-640.0651" gradientTransform="matrix(24.810992,24.810992,-24.810992,24.810992,38649.23,70401.335008)">
<stop offset="0" style="stop-color:rgb(74.117647%,63.529412%,40.392157%);stop-opacity:1;"/>
<stop offset="0.0739" style="stop-color:rgb(74.117647%,63.529412%,40.392157%);stop-opacity:1;"/>
<stop offset="0.1379" style="stop-color:rgb(79.607843%,70.980392%,50.196078%);stop-opacity:1;"/>
<stop offset="0.2729" style="stop-color:rgb(94.117647%,89.411765%,74.509804%);stop-opacity:1;"/>
<stop offset="0.2746" style="stop-color:rgb(94.117647%,89.803922%,74.901961%);stop-opacity:1;"/>
<stop offset="0.3925" style="stop-color:rgb(80.392157%,71.764706%,50.980392%);stop-opacity:1;"/>
<stop offset="0.4557" style="stop-color:rgb(74.117647%,63.529412%,40.392157%);stop-opacity:1;"/>
<stop offset="0.6613" style="stop-color:rgb(94.117647%,89.803922%,74.901961%);stop-opacity:1;"/>
<stop offset="0.853" style="stop-color:rgb(80.392157%,71.764706%,50.980392%);stop-opacity:1;"/>
<stop offset="0.9557" style="stop-color:rgb(74.117647%,63.529412%,40.392157%);stop-opacity:1;"/>
<stop offset="1" style="stop-color:rgb(74.117647%,63.529412%,40.392157%);stop-opacity:1;"/>
</linearGradient>
<linearGradient id="linear32" gradientUnits="userSpaceOnUse" x1="-2197.6228" y1="-640.0131" x2="-2196.385" y2="-640.0131" gradientTransform="matrix(24.810992,24.810992,-24.810992,24.810992,38643.81,70406.755008)">
<stop offset="0" style="stop-color:rgb(74.117647%,63.529412%,40.392157%);stop-opacity:1;"/>
<stop offset="0.0739" style="stop-color:rgb(74.117647%,63.529412%,40.392157%);stop-opacity:1;"/>
<stop offset="0.1379" style="stop-color:rgb(79.607843%,70.980392%,50.196078%);stop-opacity:1;"/>
<stop offset="0.2729" style="stop-color:rgb(94.117647%,89.411765%,74.509804%);stop-opacity:1;"/>
<stop offset="0.2746" style="stop-color:rgb(94.117647%,89.803922%,74.901961%);stop-opacity:1;"/>
<stop offset="0.3925" style="stop-color:rgb(80.392157%,71.764706%,50.980392%);stop-opacity:1;"/>
<stop offset="0.4557" style="stop-color:rgb(74.117647%,63.529412%,40.392157%);stop-opacity:1;"/>
<stop offset="0.6613" style="stop-color:rgb(94.117647%,89.803922%,74.901961%);stop-opacity:1;"/>
<stop offset="0.853" style="stop-color:rgb(80.392157%,71.764706%,50.980392%);stop-opacity:1;"/>
<stop offset="0.9557" style="stop-color:rgb(74.117647%,63.529412%,40.392157%);stop-opacity:1;"/>
<stop offset="1" style="stop-color:rgb(74.117647%,63.529412%,40.392157%);stop-opacity:1;"/>
</linearGradient>
<linearGradient id="linear33" gradientUnits="userSpaceOnUse" x1="-2197.6228" y1="-640.0087" x2="-2196.385" y2="-640.0087" gradientTransform="matrix(24.810992,24.810992,-24.810992,24.810992,38643.35,70407.215008)">
<stop offset="0" style="stop-color:rgb(74.117647%,63.529412%,40.392157%);stop-opacity:1;"/>
<stop offset="0.0739" style="stop-color:rgb(74.117647%,63.529412%,40.392157%);stop-opacity:1;"/>
<stop offset="0.1379" style="stop-color:rgb(79.607843%,70.980392%,50.196078%);stop-opacity:1;"/>
<stop offset="0.2729" style="stop-color:rgb(94.117647%,89.411765%,74.509804%);stop-opacity:1;"/>
<stop offset="0.2746" style="stop-color:rgb(94.117647%,89.803922%,74.901961%);stop-opacity:1;"/>
<stop offset="0.3925" style="stop-color:rgb(80.392157%,71.764706%,50.980392%);stop-opacity:1;"/>
<stop offset="0.4557" style="stop-color:rgb(74.117647%,63.529412%,40.392157%);stop-opacity:1;"/>
<stop offset="0.6613" style="stop-color:rgb(94.117647%,89.803922%,74.901961%);stop-opacity:1;"/>
<stop offset="0.853" style="stop-color:rgb(80.392157%,71.764706%,50.980392%);stop-opacity:1;"/>
<stop offset="0.9557" style="stop-color:rgb(74.117647%,63.529412%,40.392157%);stop-opacity:1;"/>
<stop offset="1" style="stop-color:rgb(74.117647%,63.529412%,40.392157%);stop-opacity:1;"/>
</linearGradient>
<linearGradient id="linear34" gradientUnits="userSpaceOnUse" x1="-2197.6228" y1="-640.0275" x2="-2196.385" y2="-640.0275" gradientTransform="matrix(24.810992,24.810992,-24.810992,24.810992,38645.317504,70405.245008)">
<stop offset="0" style="stop-color:rgb(74.117647%,63.529412%,40.392157%);stop-opacity:1;"/>
<stop offset="0.0739" style="stop-color:rgb(74.117647%,63.529412%,40.392157%);stop-opacity:1;"/>
<stop offset="0.1379" style="stop-color:rgb(79.607843%,70.980392%,50.196078%);stop-opacity:1;"/>
<stop offset="0.2729" style="stop-color:rgb(94.117647%,89.411765%,74.509804%);stop-opacity:1;"/>
<stop offset="0.2746" style="stop-color:rgb(94.117647%,89.803922%,74.901961%);stop-opacity:1;"/>
<stop offset="0.3925" style="stop-color:rgb(80.392157%,71.764706%,50.980392%);stop-opacity:1;"/>
<stop offset="0.4557" style="stop-color:rgb(74.117647%,63.529412%,40.392157%);stop-opacity:1;"/>
<stop offset="0.6613" style="stop-color:rgb(94.117647%,89.803922%,74.901961%);stop-opacity:1;"/>
<stop offset="0.853" style="stop-color:rgb(80.392157%,71.764706%,50.980392%);stop-opacity:1;"/>
<stop offset="0.9557" style="stop-color:rgb(74.117647%,63.529412%,40.392157%);stop-opacity:1;"/>
<stop offset="1" style="stop-color:rgb(74.117647%,63.529412%,40.392157%);stop-opacity:1;"/>
</linearGradient>
<linearGradient id="linear35" gradientUnits="userSpaceOnUse" x1="-2197.6228" y1="-640.0201" x2="-2196.385" y2="-640.0201" gradientTransform="matrix(24.810992,24.810992,-24.810992,24.810992,38644.555008,70406.01)">
<stop offset="0" style="stop-color:rgb(74.117647%,63.529412%,40.392157%);stop-opacity:1;"/>
<stop offset="0.0739" style="stop-color:rgb(74.117647%,63.529412%,40.392157%);stop-opacity:1;"/>
<stop offset="0.1379" style="stop-color:rgb(79.607843%,70.980392%,50.196078%);stop-opacity:1;"/>
<stop offset="0.2729" style="stop-color:rgb(94.117647%,89.411765%,74.509804%);stop-opacity:1;"/>
<stop offset="0.2746" style="stop-color:rgb(94.117647%,89.803922%,74.901961%);stop-opacity:1;"/>
<stop offset="0.3925" style="stop-color:rgb(80.392157%,71.764706%,50.980392%);stop-opacity:1;"/>
<stop offset="0.4557" style="stop-color:rgb(74.117647%,63.529412%,40.392157%);stop-opacity:1;"/>
<stop offset="0.6613" style="stop-color:rgb(94.117647%,89.803922%,74.901961%);stop-opacity:1;"/>
<stop offset="0.853" style="stop-color:rgb(80.392157%,71.764706%,50.980392%);stop-opacity:1;"/>
<stop offset="0.9557" style="stop-color:rgb(74.117647%,63.529412%,40.392157%);stop-opacity:1;"/>
<stop offset="1" style="stop-color:rgb(74.117647%,63.529412%,40.392157%);stop-opacity:1;"/>
</linearGradient>
</defs>
<g id="surface1">
<path style=" stroke:none;fill-rule:nonzero;fill:url(#linear0);" d="M 32 16.0625 L 32 15.921875 C 31.96875 7.136719 24.800781 0 16 0 C 7.183594 0 0 7.183594 0 16 C 0 24.816406 7.183594 32 16 32 C 24.800781 32 31.96875 24.863281 32 16.0625 Z M 32 16.0625 "/>
<path style=" stroke:none;fill-rule:nonzero;fill:rgb(2.745098%,10.588235%,17.254902%);fill-opacity:1;" d="M 16 0.625 C 7.519531 0.625 0.625 7.519531 0.625 16 C 0.625 24.480469 7.519531 31.375 16 31.375 C 24.480469 31.375 31.375 24.480469 31.375 16 C 31.375 7.519531 24.480469 0.625 16 0.625 "/>
<path style=" stroke:none;fill-rule:nonzero;fill:url(#linear1);" d="M 26.527344 16 C 26.527344 10.191406 21.808594 5.472656 16 5.472656 C 10.191406 5.472656 5.472656 10.191406 5.472656 16 C 5.472656 21.808594 10.191406 26.527344 16 26.527344 C 21.808594 26.527344 26.527344 21.808594 26.527344 16 Z M 26.527344 16 "/>
<path style=" stroke:none;fill-rule:nonzero;fill:rgb(24.313725%,55.686275%,87.058824%);fill-opacity:1;" d="M 16 26.542969 C 17.230469 26.542969 18.414062 26.320312 19.519531 25.9375 L 19.519531 22.734375 C 18.191406 22.960938 16.992188 23.566406 15.984375 24.433594 C 14.976562 23.566406 13.792969 22.976562 12.480469 22.734375 L 12.480469 25.9375 C 13.585938 26.320312 14.769531 26.542969 16 26.542969 "/>
<path style=" stroke:none;fill-rule:nonzero;fill:rgb(2.745098%,10.588235%,17.254902%);fill-opacity:1;" d="M 24.992188 15.265625 C 24.769531 15.183594 24.558594 15.121094 24.558594 15.121094 C 21.886719 14.320312 19.007812 13.902344 15.984375 13.902344 C 13.007812 13.902344 10.046875 14.320312 7.40625 15.121094 C 7.40625 15.121094 7.214844 15.183594 6.992188 15.265625 L 7.488281 15.710938 C 7.902344 15.585938 8.335938 15.472656 8.769531 15.359375 C 9.566406 20 12.289062 23.886719 16.015625 25.9375 C 19.726562 23.886719 22.464844 20 23.265625 15.359375 C 23.679688 15.472656 24.097656 15.566406 24.496094 15.695312 L 24.992188 15.265625 "/>
<path style=" stroke:none;fill-rule:nonzero;fill:rgb(2.745098%,10.588235%,17.254902%);fill-opacity:1;" d="M 16 13.375 C 18.574219 13.375 21.054688 13.679688 23.40625 14.257812 C 23.472656 13.710938 23.488281 13.152344 23.488281 12.59375 C 23.488281 11.34375 23.34375 10.144531 23.089844 8.992188 C 22.351562 9.246094 21.566406 9.390625 20.753906 9.390625 C 18.960938 9.390625 17.3125 8.71875 16 7.585938 C 14.6875 8.71875 13.039062 9.390625 11.246094 9.390625 C 10.433594 9.390625 9.648438 9.246094 8.910156 8.992188 C 8.65625 10.144531 8.511719 11.34375 8.511719 12.59375 C 8.511719 13.152344 8.542969 13.710938 8.59375 14.257812 C 10.945312 13.679688 13.472656 13.375 16 13.375 "/>
<path style=" stroke:none;fill-rule:nonzero;fill:rgb(24.313725%,55.686275%,87.058824%);fill-opacity:1;" d="M 16.015625 5.472656 C 14.785156 5.472656 13.601562 5.695312 12.496094 6.078125 L 12.496094 9.28125 C 13.824219 9.054688 15.023438 8.449219 16.03125 7.585938 C 17.039062 8.449219 18.222656 9.039062 19.535156 9.28125 L 19.535156 6.078125 C 18.433594 5.679688 17.246094 5.472656 16.015625 5.472656 "/>
<path style=" stroke:none;fill-rule:nonzero;fill:url(#linear2);" d="M 3.632812 14.289062 C 3.664062 14.289062 3.679688 14.304688 3.710938 14.304688 C 3.726562 14.304688 3.742188 14.320312 3.761719 14.320312 C 3.777344 14.335938 3.777344 14.335938 3.792969 14.351562 C 3.824219 14.382812 3.855469 14.414062 3.871094 14.464844 C 3.886719 14.511719 3.871094 14.574219 3.871094 14.65625 L 4.113281 14.703125 L 4.382812 13.40625 L 4.144531 13.359375 C 4.128906 13.441406 4.097656 13.503906 4.078125 13.550781 C 4.0625 13.585938 4.03125 13.617188 4 13.632812 C 3.984375 13.648438 3.96875 13.648438 3.953125 13.648438 C 3.9375 13.648438 3.921875 13.648438 3.886719 13.648438 C 3.871094 13.648438 3.839844 13.648438 3.808594 13.632812 C 3.777344 13.632812 3.726562 13.617188 3.679688 13.601562 L 2.574219 13.375 C 2.511719 13.359375 2.464844 13.34375 2.433594 13.328125 C 2.398438 13.3125 2.382812 13.296875 2.367188 13.265625 C 2.335938 13.214844 2.335938 13.136719 2.351562 13.039062 C 2.367188 12.910156 2.414062 12.847656 2.496094 12.832031 C 2.59375 12.800781 2.734375 12.800781 2.960938 12.847656 C 3.121094 12.878906 3.230469 12.929688 3.28125 12.976562 C 3.328125 13.023438 3.34375 13.105469 3.328125 13.199219 C 3.3125 13.246094 3.296875 13.3125 3.265625 13.375 L 3.503906 13.519531 C 3.617188 13.40625 3.679688 13.265625 3.726562 13.070312 C 3.777344 12.816406 3.742188 12.625 3.648438 12.480469 C 3.535156 12.335938 3.34375 12.238281 3.054688 12.175781 C 2.929688 12.144531 2.816406 12.128906 2.703125 12.128906 C 2.574219 12.128906 2.464844 12.144531 2.367188 12.191406 C 2.207031 12.273438 2.113281 12.433594 2.0625 12.671875 C 2.0625 12.703125 2.046875 12.734375 2.046875 12.785156 C 2.046875 12.832031 2.03125 12.878906 2.03125 12.929688 C 2.015625 13.007812 2 13.089844 1.984375 13.167969 C 1.96875 13.246094 1.953125 13.328125 1.9375 13.441406 L 1.777344 14.207031 L 2.015625 14.257812 C 2.03125 14.175781 2.046875 14.128906 2.078125 14.097656 C 2.097656 14.0625 2.128906 14.03125 2.160156 14.015625 C 2.175781 14.015625 2.191406 14 2.207031 14 C 2.222656 14 2.238281 14 2.273438 14 C 2.304688 14 2.320312 14 2.351562 14.015625 C 2.382812 14.015625 2.433594 14.03125 2.480469 14.046875 L 3.566406 14.273438 C 3.566406 14.273438 3.601562 14.273438 3.632812 14.289062 Z M 3.632812 14.289062 "/>
<path style=" stroke:none;fill-rule:nonzero;fill:url(#linear3);" d="M 4.480469 11.167969 C 4.511719 11.183594 4.527344 11.199219 4.542969 11.199219 C 4.558594 11.214844 4.574219 11.214844 4.574219 11.230469 C 4.59375 11.246094 4.59375 11.246094 4.609375 11.265625 C 4.640625 11.3125 4.65625 11.34375 4.65625 11.390625 C 4.65625 11.441406 4.640625 11.503906 4.59375 11.566406 L 4.800781 11.679688 L 5.246094 10.816406 L 4.273438 10.320312 L 4.59375 9.679688 L 5.566406 10.175781 L 6.015625 9.3125 L 5.808594 9.199219 C 5.761719 9.265625 5.726562 9.3125 5.695312 9.34375 C 5.664062 9.375 5.632812 9.390625 5.601562 9.390625 C 5.585938 9.390625 5.566406 9.390625 5.550781 9.390625 C 5.535156 9.390625 5.519531 9.390625 5.503906 9.375 C 5.488281 9.375 5.457031 9.359375 5.425781 9.34375 C 5.390625 9.328125 5.359375 9.3125 5.3125 9.28125 L 4.335938 8.800781 C 4.289062 8.785156 4.257812 8.753906 4.238281 8.753906 C 4.207031 8.734375 4.191406 8.71875 4.175781 8.71875 C 4.160156 8.703125 4.144531 8.703125 4.128906 8.6875 C 4.128906 8.671875 4.113281 8.671875 4.097656 8.65625 C 4.0625 8.609375 4.046875 8.574219 4.046875 8.527344 C 4.046875 8.480469 4.078125 8.414062 4.113281 8.335938 L 3.902344 8.222656 L 3.441406 9.105469 L 4.238281 9.503906 L 3.902344 10.144531 L 3.105469 9.726562 L 2.65625 10.59375 L 2.863281 10.703125 C 2.910156 10.640625 2.945312 10.59375 2.960938 10.558594 C 2.992188 10.527344 3.023438 10.511719 3.054688 10.511719 C 3.070312 10.511719 3.089844 10.511719 3.105469 10.511719 C 3.121094 10.511719 3.136719 10.511719 3.167969 10.527344 C 3.183594 10.527344 3.214844 10.542969 3.246094 10.558594 C 3.28125 10.574219 3.3125 10.59375 3.359375 10.625 L 4.335938 11.136719 C 4.414062 11.136719 4.449219 11.152344 4.480469 11.167969 Z M 4.480469 11.167969 "/>
<path style=" stroke:none;fill-rule:nonzero;fill:url(#linear4);" d="M 6.367188 8.097656 C 6.382812 8.113281 6.414062 8.128906 6.414062 8.144531 C 6.414062 8.160156 6.449219 8.175781 6.449219 8.175781 C 6.449219 8.191406 6.464844 8.207031 6.464844 8.222656 C 6.480469 8.273438 6.496094 8.320312 6.480469 8.351562 C 6.464844 8.398438 6.433594 8.449219 6.382812 8.511719 L 6.558594 8.671875 L 7.40625 7.695312 L 7.230469 7.535156 C 7.183594 7.585938 7.136719 7.632812 7.105469 7.648438 C 7.070312 7.679688 7.039062 7.695312 6.992188 7.679688 C 6.976562 7.679688 6.960938 7.679688 6.945312 7.679688 C 6.929688 7.679688 6.910156 7.664062 6.894531 7.648438 C 6.878906 7.632812 6.847656 7.617188 6.832031 7.601562 C 6.800781 7.585938 6.769531 7.550781 6.734375 7.519531 L 5.902344 6.800781 C 5.871094 6.769531 5.839844 6.734375 5.824219 6.71875 C 5.808594 6.703125 5.777344 6.6875 5.777344 6.671875 C 5.761719 6.65625 5.742188 6.640625 5.742188 6.640625 C 5.742188 6.625 5.726562 6.609375 5.726562 6.59375 C 5.710938 6.542969 5.695312 6.496094 5.710938 6.464844 C 5.726562 6.414062 5.761719 6.367188 5.808594 6.304688 L 5.617188 6.144531 L 4.769531 7.121094 L 4.945312 7.28125 C 4.992188 7.230469 5.039062 7.183594 5.070312 7.167969 C 5.105469 7.152344 5.136719 7.136719 5.183594 7.136719 C 5.199219 7.136719 5.214844 7.136719 5.230469 7.152344 C 5.246094 7.152344 5.265625 7.167969 5.28125 7.167969 C 5.296875 7.183594 5.328125 7.199219 5.34375 7.214844 C 5.375 7.230469 5.40625 7.265625 5.441406 7.296875 L 6.273438 8.015625 C 6.320312 8.046875 6.335938 8.078125 6.367188 8.097656 Z M 6.367188 8.097656 "/>
<path style=" stroke:none;fill-rule:nonzero;fill:url(#linear5);" d="M 9.167969 5.246094 L 8.929688 5.425781 C 8.976562 5.503906 9.007812 5.566406 9.039062 5.617188 C 9.070312 5.664062 9.054688 5.710938 9.054688 5.777344 C 9.054688 5.792969 9.054688 5.808594 9.039062 5.824219 C 9.023438 5.839844 9.023438 5.855469 9.007812 5.871094 C 8.992188 5.886719 8.976562 5.902344 8.945312 5.9375 C 8.910156 5.96875 8.878906 5.984375 8.847656 6.015625 L 8.800781 6.046875 C 8.769531 6.078125 8.734375 6.097656 8.71875 6.113281 C 8.703125 6.128906 8.671875 6.144531 8.65625 6.144531 C 8.640625 6.144531 8.625 6.160156 8.609375 6.160156 C 8.59375 6.160156 8.574219 6.160156 8.558594 6.160156 C 8.542969 6.160156 8.542969 6.160156 8.527344 6.160156 C 8.511719 6.160156 8.511719 6.144531 8.496094 6.144531 C 8.480469 6.144531 8.464844 6.113281 8.449219 6.097656 C 8.433594 6.078125 8.414062 6.046875 8.382812 6.015625 L 7.726562 5.121094 C 7.695312 5.089844 7.679688 5.054688 7.664062 5.023438 C 7.648438 5.007812 7.632812 4.976562 7.617188 4.960938 C 7.601562 4.945312 7.601562 4.929688 7.601562 4.910156 C 7.601562 4.894531 7.601562 4.878906 7.585938 4.863281 C 7.566406 4.816406 7.585938 4.769531 7.601562 4.734375 C 7.617188 4.703125 7.664062 4.65625 7.726562 4.59375 L 7.585938 4.398438 L 6.558594 5.199219 L 6.703125 5.390625 C 6.769531 5.34375 6.816406 5.328125 6.847656 5.3125 C 6.878906 5.296875 6.929688 5.296875 6.960938 5.3125 C 6.976562 5.3125 6.992188 5.328125 7.007812 5.328125 C 7.023438 5.328125 7.039062 5.34375 7.054688 5.359375 C 7.070312 5.375 7.089844 5.390625 7.121094 5.425781 C 7.136719 5.457031 7.167969 5.488281 7.199219 5.535156 L 7.871094 6.414062 C 7.902344 6.449219 7.921875 6.480469 7.9375 6.511719 C 7.953125 6.542969 7.96875 6.558594 7.984375 6.574219 C 8 6.59375 8 6.609375 8 6.625 C 8 6.640625 8 6.65625 8.015625 6.671875 C 8.03125 6.71875 8.015625 6.769531 8 6.800781 C 7.984375 6.832031 7.9375 6.878906 7.871094 6.945312 L 8.015625 7.136719 L 9.648438 5.902344 Z M 9.167969 5.246094 "/>
<path style=" stroke:none;fill-rule:nonzero;fill:url(#linear6);" d="M 11.40625 4.734375 L 11.503906 4.960938 L 12.640625 4.496094 L 12.542969 4.273438 C 12.496094 4.289062 12.449219 4.289062 12.414062 4.289062 C 12.382812 4.289062 12.335938 4.273438 12.304688 4.257812 C 12.273438 4.238281 12.222656 4.207031 12.191406 4.175781 C 12.144531 4.144531 12.097656 4.078125 12.046875 4.015625 L 11.007812 2.847656 C 10.992188 2.832031 10.960938 2.800781 10.945312 2.785156 C 10.929688 2.769531 10.910156 2.753906 10.894531 2.734375 C 10.878906 2.71875 10.863281 2.703125 10.847656 2.671875 C 10.832031 2.65625 10.816406 2.625 10.800781 2.609375 L 10.289062 2.816406 C 10.289062 2.847656 10.304688 2.878906 10.304688 2.945312 C 10.304688 2.992188 10.320312 3.070312 10.320312 3.152344 L 10.398438 4.703125 C 10.398438 4.785156 10.398438 4.847656 10.398438 4.910156 C 10.398438 4.960938 10.382812 5.007812 10.382812 5.039062 C 10.367188 5.070312 10.351562 5.105469 10.335938 5.136719 C 10.304688 5.167969 10.289062 5.183594 10.238281 5.214844 L 10.335938 5.441406 L 11.246094 5.054688 L 11.152344 4.832031 C 11.054688 4.863281 10.992188 4.863281 10.960938 4.863281 C 10.929688 4.863281 10.894531 4.832031 10.863281 4.785156 C 10.847656 4.769531 10.847656 4.734375 10.832031 4.703125 C 10.832031 4.671875 10.816406 4.625 10.816406 4.59375 L 10.816406 4.527344 L 11.390625 4.289062 L 11.441406 4.335938 C 11.519531 4.433594 11.550781 4.496094 11.566406 4.511719 C 11.585938 4.558594 11.585938 4.59375 11.550781 4.625 C 11.535156 4.65625 11.488281 4.703125 11.40625 4.734375 Z M 10.769531 4.144531 L 10.753906 3.726562 L 10.734375 3.425781 C 10.753906 3.441406 10.753906 3.441406 10.769531 3.457031 C 10.785156 3.472656 10.785156 3.472656 10.800781 3.488281 L 10.847656 3.550781 C 10.863281 3.566406 10.878906 3.601562 10.894531 3.617188 L 10.945312 3.664062 C 10.960938 3.679688 10.960938 3.679688 10.976562 3.695312 C 10.976562 3.710938 10.992188 3.710938 11.007812 3.726562 L 11.199219 3.96875 Z M 10.769531 4.144531 "/>
<path style=" stroke:none;fill-rule:nonzero;fill:url(#linear7);" d="M 14.753906 4.160156 C 14.785156 4.160156 14.816406 4.160156 14.847656 4.144531 C 15.183594 4.113281 15.425781 3.984375 15.550781 3.761719 C 15.695312 3.535156 15.742188 3.230469 15.695312 2.847656 C 15.679688 2.671875 15.648438 2.511719 15.601562 2.367188 C 15.550781 2.222656 15.488281 2.097656 15.425781 2 C 15.34375 1.886719 15.230469 1.808594 15.105469 1.761719 C 15.023438 1.726562 14.910156 1.710938 14.800781 1.710938 C 14.734375 1.710938 14.671875 1.710938 14.609375 1.726562 C 14.574219 1.726562 14.542969 1.742188 14.480469 1.742188 C 14.414062 1.742188 14.367188 1.761719 14.320312 1.777344 C 14.257812 1.792969 14.175781 1.792969 14.078125 1.808594 C 13.984375 1.824219 13.855469 1.839844 13.710938 1.855469 L 13.023438 1.921875 L 13.054688 2.160156 C 13.136719 2.160156 13.183594 2.160156 13.230469 2.160156 C 13.265625 2.175781 13.296875 2.191406 13.328125 2.222656 C 13.34375 2.238281 13.34375 2.257812 13.359375 2.273438 C 13.375 2.289062 13.375 2.304688 13.375 2.320312 C 13.375 2.335938 13.390625 2.367188 13.390625 2.398438 C 13.390625 2.433594 13.40625 2.480469 13.40625 2.527344 L 13.535156 3.632812 C 13.535156 3.679688 13.550781 3.710938 13.550781 3.742188 C 13.550781 3.777344 13.550781 3.808594 13.550781 3.824219 C 13.550781 3.839844 13.550781 3.855469 13.550781 3.871094 C 13.550781 3.886719 13.535156 3.902344 13.535156 3.921875 C 13.519531 3.96875 13.488281 4 13.457031 4.015625 C 13.425781 4.03125 13.359375 4.0625 13.265625 4.0625 L 13.296875 4.304688 L 14.144531 4.207031 C 14.222656 4.191406 14.289062 4.191406 14.367188 4.175781 C 14.449219 4.160156 14.527344 4.160156 14.609375 4.160156 C 14.671875 4.160156 14.71875 4.160156 14.753906 4.160156 Z M 14.414062 3.824219 C 14.398438 3.824219 14.382812 3.824219 14.367188 3.824219 C 14.335938 3.824219 14.304688 3.808594 14.273438 3.777344 C 14.257812 3.761719 14.238281 3.761719 14.238281 3.742188 C 14.222656 3.726562 14.222656 3.726562 14.222656 3.710938 C 14.222656 3.695312 14.207031 3.679688 14.207031 3.648438 C 14.207031 3.632812 14.191406 3.585938 14.191406 3.550781 L 14.0625 2.414062 C 14.0625 2.367188 14.046875 2.320312 14.0625 2.289062 C 14.0625 2.257812 14.078125 2.222656 14.097656 2.207031 C 14.113281 2.191406 14.144531 2.175781 14.191406 2.160156 C 14.222656 2.144531 14.289062 2.144531 14.351562 2.128906 C 14.464844 2.113281 14.542969 2.113281 14.625 2.144531 C 14.703125 2.160156 14.753906 2.207031 14.816406 2.257812 C 14.863281 2.320312 14.910156 2.398438 14.945312 2.496094 C 14.976562 2.59375 14.992188 2.734375 15.023438 2.878906 C 15.039062 3.039062 15.054688 3.183594 15.039062 3.296875 C 15.039062 3.40625 15.007812 3.503906 14.976562 3.566406 C 14.945312 3.648438 14.894531 3.695312 14.816406 3.726562 C 14.753906 3.761719 14.65625 3.792969 14.558594 3.808594 C 14.480469 3.808594 14.449219 3.824219 14.414062 3.824219 Z M 14.414062 3.824219 "/>
<path style=" stroke:none;fill-rule:nonzero;fill:url(#linear8);" d="M 18.910156 3.601562 L 18.625 3.550781 C 18.609375 3.632812 18.574219 3.710938 18.558594 3.761719 C 18.542969 3.808594 18.511719 3.839844 18.480469 3.871094 C 18.449219 3.902344 18.398438 3.902344 18.351562 3.921875 C 18.304688 3.921875 18.238281 3.921875 18.160156 3.902344 L 18.0625 3.886719 C 18 3.871094 17.9375 3.871094 17.902344 3.855469 C 17.855469 3.839844 17.839844 3.839844 17.824219 3.808594 C 17.808594 3.792969 17.792969 3.761719 17.792969 3.726562 C 17.792969 3.695312 17.792969 3.648438 17.808594 3.601562 L 17.871094 3.167969 L 18.351562 3.246094 C 18.414062 3.265625 18.480469 3.265625 18.496094 3.28125 C 18.527344 3.28125 18.558594 3.296875 18.59375 3.296875 L 18.65625 2.878906 C 18.625 2.878906 18.59375 2.878906 18.542969 2.878906 C 18.511719 2.878906 18.464844 2.878906 18.414062 2.863281 L 17.902344 2.785156 L 17.96875 2.382812 C 17.96875 2.335938 17.984375 2.304688 18 2.273438 C 18.015625 2.238281 18.03125 2.222656 18.046875 2.207031 C 18.0625 2.191406 18.097656 2.191406 18.128906 2.191406 C 18.160156 2.191406 18.207031 2.191406 18.273438 2.207031 L 18.320312 2.222656 C 18.398438 2.238281 18.464844 2.257812 18.511719 2.273438 C 18.558594 2.289062 18.59375 2.320312 18.625 2.351562 C 18.65625 2.382812 18.671875 2.433594 18.671875 2.480469 C 18.671875 2.527344 18.6875 2.59375 18.6875 2.671875 L 18.976562 2.71875 L 19.089844 1.9375 C 19.039062 1.9375 19.007812 1.953125 18.992188 1.953125 C 18.960938 1.953125 18.929688 1.953125 18.894531 1.953125 C 18.863281 1.953125 18.832031 1.953125 18.785156 1.9375 C 18.734375 1.9375 18.6875 1.921875 18.640625 1.921875 L 17.089844 1.695312 L 17.054688 1.9375 C 17.136719 1.953125 17.183594 1.96875 17.214844 1.984375 C 17.246094 2 17.28125 2.03125 17.296875 2.0625 C 17.296875 2.078125 17.3125 2.097656 17.3125 2.113281 C 17.3125 2.128906 17.328125 2.144531 17.328125 2.175781 C 17.328125 2.191406 17.328125 2.222656 17.328125 2.257812 C 17.328125 2.289062 17.3125 2.335938 17.3125 2.382812 L 17.152344 3.472656 C 17.136719 3.519531 17.136719 3.550781 17.136719 3.585938 C 17.136719 3.617188 17.121094 3.632812 17.121094 3.664062 C 17.121094 3.679688 17.105469 3.695312 17.105469 3.710938 C 17.105469 3.726562 17.089844 3.726562 17.070312 3.742188 C 17.039062 3.792969 17.007812 3.808594 16.960938 3.824219 C 16.910156 3.839844 16.847656 3.839844 16.769531 3.824219 L 16.734375 4.0625 L 18.800781 4.367188 Z M 18.910156 3.601562 "/>
<path style=" stroke:none;fill-rule:nonzero;fill:url(#linear9);" d="M 21.824219 4.671875 L 21.550781 4.558594 C 21.503906 4.640625 21.472656 4.703125 21.441406 4.753906 C 21.40625 4.800781 21.359375 4.832031 21.3125 4.832031 C 21.296875 4.832031 21.28125 4.847656 21.265625 4.847656 C 21.246094 4.847656 21.230469 4.847656 21.199219 4.847656 C 21.183594 4.847656 21.152344 4.832031 21.121094 4.832031 C 21.089844 4.816406 21.054688 4.800781 21.007812 4.785156 L 20.960938 4.769531 C 20.910156 4.753906 20.894531 4.734375 20.863281 4.71875 C 20.832031 4.703125 20.816406 4.703125 20.800781 4.6875 C 20.785156 4.671875 20.769531 4.671875 20.769531 4.65625 C 20.753906 4.65625 20.753906 4.640625 20.753906 4.625 C 20.753906 4.609375 20.734375 4.609375 20.734375 4.59375 C 20.734375 4.574219 20.734375 4.574219 20.734375 4.558594 C 20.734375 4.542969 20.753906 4.527344 20.753906 4.496094 C 20.769531 4.480469 20.769531 4.449219 20.785156 4.398438 L 21.214844 3.359375 C 21.230469 3.3125 21.246094 3.28125 21.265625 3.246094 C 21.28125 3.214844 21.28125 3.199219 21.296875 3.183594 C 21.3125 3.167969 21.3125 3.152344 21.328125 3.136719 C 21.34375 3.121094 21.34375 3.121094 21.359375 3.105469 C 21.390625 3.070312 21.441406 3.054688 21.488281 3.054688 C 21.535156 3.054688 21.601562 3.070312 21.679688 3.105469 L 21.761719 2.878906 L 20.558594 2.382812 L 20.464844 2.609375 C 20.527344 2.640625 20.574219 2.671875 20.609375 2.6875 C 20.640625 2.71875 20.65625 2.753906 20.671875 2.785156 C 20.671875 2.800781 20.671875 2.816406 20.671875 2.832031 C 20.671875 2.847656 20.671875 2.863281 20.671875 2.894531 C 20.671875 2.910156 20.65625 2.945312 20.640625 2.976562 C 20.625 3.007812 20.609375 3.054688 20.59375 3.105469 L 20.175781 4.128906 C 20.160156 4.175781 20.144531 4.207031 20.128906 4.238281 C 20.113281 4.273438 20.097656 4.289062 20.097656 4.304688 C 20.078125 4.320312 20.078125 4.335938 20.0625 4.351562 C 20.046875 4.351562 20.046875 4.367188 20.03125 4.382812 C 20 4.414062 19.953125 4.433594 19.902344 4.433594 C 19.855469 4.433594 19.792969 4.414062 19.710938 4.382812 L 19.617188 4.609375 L 21.503906 5.390625 Z M 21.824219 4.671875 "/>
<path style=" stroke:none;fill-rule:nonzero;fill:url(#linear10);" d="M 24.449219 6.273438 C 24.625 6.238281 24.800781 6.097656 24.976562 5.871094 C 25.152344 5.632812 25.246094 5.425781 25.230469 5.246094 C 25.214844 5.070312 25.121094 4.910156 24.929688 4.769531 C 24.910156 4.753906 24.863281 4.71875 24.832031 4.703125 C 24.800781 4.671875 24.753906 4.65625 24.71875 4.625 C 24.65625 4.574219 24.574219 4.527344 24.511719 4.480469 C 24.449219 4.433594 24.367188 4.382812 24.289062 4.320312 L 23.664062 3.839844 L 23.519531 4.03125 C 23.585938 4.078125 23.617188 4.128906 23.648438 4.160156 C 23.664062 4.191406 23.679688 4.222656 23.679688 4.273438 C 23.679688 4.289062 23.679688 4.304688 23.679688 4.320312 C 23.679688 4.335938 23.664062 4.351562 23.664062 4.367188 C 23.664062 4.382812 23.632812 4.414062 23.617188 4.449219 C 23.601562 4.480469 23.566406 4.511719 23.535156 4.558594 L 22.878906 5.441406 C 22.847656 5.472656 22.832031 5.503906 22.816406 5.535156 C 22.800781 5.550781 22.785156 5.585938 22.769531 5.601562 C 22.753906 5.617188 22.734375 5.632812 22.734375 5.632812 C 22.71875 5.632812 22.71875 5.648438 22.703125 5.648438 C 22.65625 5.664062 22.625 5.679688 22.574219 5.664062 C 22.527344 5.648438 22.480469 5.632812 22.398438 5.585938 L 22.257812 5.777344 L 23.3125 6.558594 L 23.457031 6.367188 C 23.390625 6.320312 23.34375 6.273438 23.3125 6.238281 C 23.296875 6.207031 23.28125 6.160156 23.28125 6.128906 C 23.28125 6.113281 23.28125 6.097656 23.28125 6.078125 C 23.28125 6.0625 23.296875 6.046875 23.296875 6.03125 C 23.296875 6.015625 23.328125 5.984375 23.34375 5.96875 C 23.359375 5.9375 23.390625 5.902344 23.425781 5.855469 L 23.519531 5.726562 C 23.601562 5.855469 23.777344 6.015625 23.902344 6.113281 C 24.078125 6.257812 24.273438 6.320312 24.449219 6.273438 Z M 23.648438 5.503906 L 24.078125 4.929688 C 24.128906 4.878906 24.144531 4.832031 24.175781 4.816406 C 24.191406 4.800781 24.222656 4.785156 24.257812 4.785156 C 24.320312 4.785156 24.382812 4.816406 24.464844 4.878906 C 24.558594 4.960938 24.609375 5.023438 24.59375 5.105469 C 24.574219 5.199219 24.511719 5.34375 24.382812 5.519531 C 24.289062 5.648438 24.207031 5.726562 24.128906 5.761719 C 24.0625 5.792969 23.984375 5.777344 23.902344 5.710938 C 23.902344 5.679688 23.742188 5.585938 23.648438 5.503906 Z M 23.648438 5.503906 "/>
<path style=" stroke:none;fill-rule:nonzero;fill:url(#linear11);" d="M 26.367188 9.488281 C 26.351562 9.457031 26.351562 9.40625 26.367188 9.375 C 26.367188 9.359375 26.382812 9.34375 26.382812 9.328125 C 26.382812 9.3125 26.398438 9.296875 26.414062 9.28125 C 26.433594 9.265625 26.449219 9.246094 26.480469 9.230469 C 26.511719 9.214844 26.542969 9.183594 26.574219 9.152344 L 27.457031 8.480469 C 27.488281 8.449219 27.519531 8.433594 27.550781 8.414062 C 27.585938 8.398438 27.601562 8.382812 27.617188 8.367188 C 27.632812 8.351562 27.648438 8.351562 27.664062 8.351562 C 27.679688 8.351562 27.695312 8.351562 27.710938 8.335938 C 27.761719 8.320312 27.808594 8.335938 27.839844 8.351562 C 27.871094 8.367188 27.921875 8.414062 27.984375 8.480469 L 28.175781 8.335938 L 27.585938 7.566406 L 26.863281 8.113281 L 26.433594 7.550781 L 27.152344 7.007812 L 26.558594 6.238281 L 26.367188 6.382812 C 26.414062 6.449219 26.433594 6.496094 26.449219 6.527344 C 26.464844 6.558594 26.464844 6.609375 26.449219 6.640625 C 26.449219 6.65625 26.433594 6.671875 26.433594 6.6875 C 26.433594 6.703125 26.414062 6.71875 26.398438 6.734375 C 26.382812 6.753906 26.367188 6.769531 26.335938 6.785156 C 26.304688 6.800781 26.273438 6.832031 26.238281 6.863281 L 25.359375 7.535156 C 25.328125 7.566406 25.296875 7.585938 25.265625 7.601562 C 25.246094 7.617188 25.214844 7.632812 25.199219 7.648438 C 25.183594 7.664062 25.167969 7.664062 25.152344 7.664062 C 25.136719 7.664062 25.121094 7.664062 25.105469 7.679688 C 25.054688 7.695312 25.007812 7.679688 24.976562 7.664062 C 24.945312 7.648438 24.894531 7.601562 24.832031 7.535156 L 24.640625 7.679688 L 25.230469 8.449219 L 26.097656 7.777344 L 26.527344 8.335938 L 25.664062 9.007812 L 26.257812 9.792969 L 26.449219 9.648438 C 26.414062 9.585938 26.382812 9.535156 26.367188 9.488281 Z M 26.367188 9.488281 "/>
<path style=" stroke:none;fill-rule:nonzero;fill:url(#linear12);" d="M 28.734375 10.6875 C 28.769531 10.671875 28.785156 10.671875 28.800781 10.65625 C 28.816406 10.640625 28.832031 10.640625 28.847656 10.640625 C 28.863281 10.640625 28.878906 10.640625 28.894531 10.640625 C 28.945312 10.640625 28.992188 10.65625 29.023438 10.6875 C 29.054688 10.71875 29.089844 10.769531 29.136719 10.847656 L 29.359375 10.753906 L 28.832031 9.566406 L 28.609375 9.664062 C 28.640625 9.742188 28.65625 9.792969 28.65625 9.824219 C 28.65625 9.855469 28.65625 9.902344 28.640625 9.9375 C 28.625 9.953125 28.625 9.96875 28.609375 9.984375 C 28.59375 10 28.59375 10.015625 28.558594 10.015625 C 28.542969 10.03125 28.511719 10.046875 28.480469 10.0625 C 28.449219 10.078125 28.414062 10.097656 28.351562 10.113281 L 27.34375 10.558594 C 27.296875 10.574219 27.265625 10.59375 27.230469 10.609375 C 27.199219 10.625 27.183594 10.625 27.167969 10.640625 C 27.152344 10.65625 27.136719 10.65625 27.121094 10.65625 C 27.105469 10.65625 27.089844 10.65625 27.070312 10.65625 C 27.023438 10.65625 26.976562 10.640625 26.945312 10.609375 C 26.910156 10.574219 26.878906 10.527344 26.832031 10.449219 L 26.609375 10.542969 L 27.136719 11.726562 L 27.359375 11.632812 C 27.328125 11.566406 27.3125 11.503906 27.3125 11.472656 C 27.3125 11.441406 27.3125 11.390625 27.328125 11.359375 C 27.34375 11.34375 27.34375 11.328125 27.359375 11.3125 C 27.375 11.296875 27.375 11.296875 27.40625 11.28125 C 27.425781 11.265625 27.457031 11.246094 27.472656 11.230469 C 27.488281 11.214844 27.535156 11.199219 27.601562 11.183594 L 28.609375 10.734375 C 28.671875 10.703125 28.703125 10.6875 28.734375 10.6875 Z M 28.734375 10.6875 "/>
<path style=" stroke:none;fill-rule:nonzero;fill:url(#linear13);" d="M 29.921875 13.472656 C 29.9375 13.457031 29.96875 13.457031 29.984375 13.441406 C 30 13.425781 30.03125 13.425781 30.046875 13.40625 C 30.0625 13.390625 30.097656 13.390625 30.113281 13.375 L 30 12.832031 C 29.96875 12.832031 29.9375 12.832031 29.871094 12.832031 C 29.824219 12.832031 29.742188 12.816406 29.664062 12.800781 L 28.128906 12.574219 C 28.046875 12.558594 27.984375 12.542969 27.9375 12.542969 C 27.886719 12.542969 27.839844 12.511719 27.808594 12.496094 C 27.777344 12.480469 27.742188 12.449219 27.726562 12.433594 C 27.710938 12.398438 27.679688 12.367188 27.664062 12.320312 L 27.425781 12.367188 L 27.617188 13.34375 L 27.855469 13.296875 C 27.839844 13.199219 27.839844 13.136719 27.855469 13.105469 C 27.871094 13.070312 27.902344 13.039062 27.953125 13.039062 C 27.984375 13.039062 28.015625 13.023438 28.046875 13.023438 C 28.078125 13.023438 28.128906 13.023438 28.160156 13.039062 L 28.222656 13.054688 L 28.351562 13.664062 L 28.289062 13.695312 C 28.191406 13.742188 28.113281 13.777344 28.078125 13.792969 C 28.03125 13.808594 28 13.792969 27.96875 13.761719 C 27.9375 13.726562 27.921875 13.679688 27.886719 13.585938 L 27.648438 13.632812 L 27.886719 14.832031 L 28.128906 14.785156 C 28.128906 14.734375 28.128906 14.6875 28.144531 14.65625 C 28.160156 14.625 28.175781 14.59375 28.191406 14.542969 C 28.207031 14.511719 28.257812 14.480469 28.304688 14.449219 C 28.351562 14.414062 28.398438 14.367188 28.480469 14.335938 L 29.824219 13.535156 C 29.871094 13.503906 29.902344 13.488281 29.921875 13.472656 Z M 29.296875 13.167969 C 29.28125 13.167969 29.265625 13.183594 29.246094 13.183594 L 29.183594 13.214844 C 29.167969 13.230469 29.136719 13.246094 29.105469 13.265625 L 29.039062 13.296875 C 29.023438 13.3125 29.023438 13.3125 29.007812 13.3125 C 28.992188 13.3125 28.992188 13.328125 28.976562 13.328125 L 28.703125 13.472656 L 28.609375 13.039062 L 29.023438 13.105469 L 29.328125 13.152344 C 29.328125 13.167969 29.3125 13.167969 29.296875 13.167969 Z M 29.296875 13.167969 "/>
<path style=" stroke:none;fill-rule:nonzero;fill:url(#linear14);" d="M 3.265625 17.710938 L 3.984375 17.390625 L 3.214844 17.230469 L 3.121094 16.449219 L 2.734375 17.136719 L 1.953125 16.976562 L 2.496094 17.566406 L 2.097656 18.257812 L 2.816406 17.921875 L 3.359375 18.511719 Z M 3.265625 17.710938 "/>
<path style=" stroke:none;fill-rule:nonzero;fill:url(#linear15);" d="M 3.664062 21.039062 L 4.335938 21.472656 L 4.046875 20.734375 L 4.671875 20.238281 L 3.871094 20.273438 L 3.601562 19.535156 L 3.375 20.289062 L 2.59375 20.335938 L 3.265625 20.769531 L 3.039062 21.535156 Z M 3.664062 21.039062 "/>
<path style=" stroke:none;fill-rule:nonzero;fill:url(#linear16);" d="M 5.230469 23.855469 L 5.984375 24.128906 L 5.519531 23.472656 L 6.015625 22.832031 L 5.246094 23.054688 L 4.800781 22.414062 L 4.785156 23.199219 L 4.015625 23.425781 L 4.769531 23.695312 L 4.753906 24.496094 Z M 5.230469 23.855469 "/>
<path style=" stroke:none;fill-rule:nonzero;fill:url(#linear17);" d="M 8.222656 26.289062 L 7.617188 25.761719 L 7.9375 25.039062 L 7.246094 25.441406 L 6.65625 24.910156 L 6.832031 25.695312 L 6.144531 26.097656 L 6.945312 26.175781 L 7.121094 26.945312 L 7.425781 26.222656 Z M 8.222656 26.289062 "/>
<path style=" stroke:none;fill-rule:nonzero;fill:url(#linear18);" d="M 10.128906 27.984375 L 10.910156 27.855469 L 10.207031 27.488281 L 10.335938 26.703125 L 9.777344 27.265625 L 9.070312 26.894531 L 9.425781 27.617188 L 8.863281 28.175781 L 9.648438 28.046875 L 10 28.769531 Z M 10.128906 27.984375 "/>
<path style=" stroke:none;fill-rule:nonzero;fill:url(#linear19);" d="M 13.167969 29.039062 L 13.902344 28.734375 L 13.136719 28.542969 L 13.070312 27.761719 L 12.65625 28.433594 L 11.886719 28.257812 L 12.398438 28.847656 L 11.984375 29.535156 L 12.71875 29.230469 L 13.230469 29.824219 Z M 13.167969 29.039062 "/>
<path style=" stroke:none;fill-rule:nonzero;fill:url(#linear20);" d="M 15.984375 29.632812 L 16.640625 30.097656 L 16.382812 29.34375 L 17.023438 28.863281 L 16.222656 28.863281 L 15.984375 28.128906 L 15.742188 28.878906 L 14.945312 28.878906 L 15.585938 29.34375 L 15.34375 30.097656 Z M 15.984375 29.632812 "/>
<path style=" stroke:none;fill-rule:nonzero;fill:url(#linear21);" d="M 19.265625 29.230469 L 20 29.535156 L 19.566406 28.863281 L 20.078125 28.238281 L 19.3125 28.449219 L 18.878906 27.777344 L 18.832031 28.558594 L 18.0625 28.753906 L 18.800781 29.054688 L 18.753906 29.839844 Z M 19.265625 29.230469 "/>
<path style=" stroke:none;fill-rule:nonzero;fill:url(#linear22);" d="M 23.121094 28.175781 L 22.542969 27.617188 L 22.894531 26.910156 L 22.191406 27.28125 L 21.632812 26.734375 L 21.761719 27.503906 L 21.054688 27.886719 L 21.855469 28 L 21.984375 28.785156 L 22.335938 28.0625 Z M 23.121094 28.175781 "/>
<path style=" stroke:none;fill-rule:nonzero;fill:url(#linear23);" d="M 25.039062 26.191406 L 25.839844 26.097656 L 25.152344 25.710938 L 25.3125 24.929688 L 24.71875 25.457031 L 24.03125 25.070312 L 24.351562 25.792969 L 23.761719 26.320312 L 24.558594 26.238281 L 24.878906 26.960938 Z M 25.039062 26.191406 "/>
<path style=" stroke:none;fill-rule:nonzero;fill:url(#linear24);" d="M 27.214844 23.710938 L 27.96875 23.441406 L 27.199219 23.214844 L 27.183594 22.433594 L 26.734375 23.089844 L 25.96875 22.863281 L 26.464844 23.488281 L 26.015625 24.160156 L 26.753906 23.886719 L 27.246094 24.511719 Z M 27.214844 23.710938 "/>
<path style=" stroke:none;fill-rule:nonzero;fill:url(#linear25);" d="M 28.734375 20.785156 L 29.390625 20.351562 L 28.609375 20.320312 L 28.382812 19.550781 L 28.113281 20.304688 L 27.328125 20.273438 L 27.9375 20.769531 L 27.664062 21.503906 L 28.335938 21.054688 L 28.960938 21.550781 Z M 28.734375 20.785156 "/>
<path style=" stroke:none;fill-rule:nonzero;fill:url(#linear26);" d="M 29.183594 17.953125 L 29.902344 18.273438 L 29.503906 17.585938 L 30.046875 16.992188 L 29.265625 17.167969 L 28.863281 16.464844 L 28.785156 17.265625 L 28 17.425781 L 28.734375 17.742188 L 28.640625 18.542969 Z M 29.183594 17.953125 "/>
<path style=" stroke:none;fill-rule:nonzero;fill:url(#linear27);" d="M 12.015625 12.65625 L 12.015625 10.03125 L 11.535156 10.097656 L 11.535156 12.609375 L 11.089844 12.671875 L 11.089844 10.160156 L 10.609375 10.222656 L 10.609375 12.847656 C 10.609375 12.992188 10.703125 13.089844 10.847656 13.089844 C 10.863281 13.089844 10.878906 13.089844 10.894531 13.089844 L 11.726562 12.960938 C 11.902344 12.945312 12.015625 12.816406 12.015625 12.65625 Z M 12.015625 12.65625 "/>
<path style=" stroke:none;fill-rule:nonzero;fill:url(#linear28);" d="M 14.558594 12.71875 L 14.558594 9.808594 L 14.113281 9.839844 L 14.113281 11.246094 L 13.441406 9.886719 L 13.167969 9.902344 L 13.167969 12.800781 L 13.632812 12.785156 L 13.632812 11.40625 L 14.289062 12.734375 Z M 14.558594 12.71875 "/>
<path style=" stroke:none;fill-rule:nonzero;fill:url(#linear29);" d="M 16.222656 9.792969 L 15.742188 9.792969 L 15.742188 12.6875 L 16.222656 12.6875 Z M 16.222656 9.792969 "/>
<path style=" stroke:none;fill-rule:nonzero;fill:url(#linear30);" d="M 18.609375 12.769531 C 18.734375 12.769531 18.878906 12.671875 18.878906 12.511719 L 18.878906 10.160156 C 18.878906 9.984375 18.71875 9.886719 18.59375 9.871094 L 17.695312 9.824219 C 17.566406 9.824219 17.425781 9.921875 17.425781 10.078125 L 17.425781 12.449219 C 17.425781 12.625 17.585938 12.71875 17.710938 12.734375 Z M 18.414062 12.367188 L 17.921875 12.335938 L 17.921875 10.207031 L 18.414062 10.238281 Z M 18.414062 12.367188 "/>
<path style=" stroke:none;fill-rule:nonzero;fill:url(#linear31);" d="M 20.976562 10.128906 L 20.976562 11.535156 L 20.320312 10.03125 L 20.046875 10 L 20.046875 12.910156 L 20.496094 12.960938 L 20.496094 11.617188 L 21.152344 13.054688 L 21.425781 13.089844 L 21.425781 10.191406 Z M 20.976562 10.128906 "/>
<path style=" stroke:none;fill-rule:nonzero;fill:url(#linear32);" d="M 11.617188 16.910156 C 12.015625 16.863281 12.734375 16.542969 13.167969 16.289062 C 13.121094 16.273438 13.089844 16.238281 13.039062 16.207031 C 12.414062 16.449219 11.742188 16.496094 11.246094 16.433594 C 11.296875 16.449219 11.359375 16.480469 11.425781 16.496094 C 11.617188 16.542969 11.839844 16.59375 12.128906 16.542969 L 12.238281 16.527344 L 12.144531 16.609375 C 12.0625 16.6875 11.839844 16.832031 11.617188 16.910156 Z M 11.617188 16.910156 "/>
<path style=" stroke:none;fill-rule:nonzero;fill:url(#linear33);" d="M 18.878906 21.152344 C 18.878906 20.976562 18.832031 20.785156 18.71875 20.609375 C 18.304688 21.3125 17.121094 21.808594 15.808594 21.808594 C 14.496094 21.808594 13.3125 21.3125 12.910156 20.609375 C 12.800781 20.785156 12.753906 20.976562 12.753906 21.152344 C 12.753906 21.457031 12.878906 21.761719 13.152344 22.015625 C 13.695312 22.558594 14.71875 22.894531 15.808594 22.894531 C 17.503906 22.894531 18.878906 22.113281 18.878906 21.152344 Z M 18.878906 21.152344 "/>
<path style=" stroke:none;fill-rule:nonzero;fill:url(#linear34);" d="M 19.070312 20.015625 C 19.167969 20.175781 19.265625 20.398438 19.328125 20.65625 C 19.375 20.65625 19.457031 20.671875 19.566406 20.671875 C 19.855469 20.671875 20.289062 20.609375 20.71875 20.367188 C 20.398438 20.367188 19.761719 20.320312 19.070312 20.015625 Z M 19.070312 20.015625 "/>
<path style=" stroke:none;fill-rule:nonzero;fill:url(#linear35);" d="M 18.609375 19.710938 C 18.609375 19.167969 18.078125 18.753906 17.265625 18.527344 C 17.070312 18.609375 16.847656 18.671875 16.609375 18.753906 C 16.382812 18.816406 16.128906 18.910156 15.855469 19.007812 C 15.246094 19.230469 15.121094 19.425781 15.105469 19.519531 C 15.089844 19.585938 15.121094 19.632812 15.136719 19.648438 C 15.375 19.519531 15.710938 19.40625 16.078125 19.375 C 16.191406 19.359375 16.289062 19.359375 16.398438 19.359375 C 16.976562 19.359375 17.34375 19.519531 17.34375 19.777344 C 17.34375 19.839844 17.3125 19.921875 17.246094 19.984375 C 17.054688 20.175781 16.558594 20.304688 16 20.304688 C 15.519531 20.304688 15.070312 20.160156 14.832031 19.921875 C 14.703125 19.792969 14.640625 19.648438 14.640625 19.503906 C 14.640625 18.976562 15.40625 18.71875 15.902344 18.542969 C 15.96875 18.527344 16.03125 18.496094 16.078125 18.480469 C 16.527344 18.320312 17.054688 18.128906 17.054688 18.128906 C 17.921875 17.855469 18.367188 17.105469 18.257812 16.398438 C 18.128906 15.550781 17.296875 14.960938 16.238281 14.960938 C 16.144531 14.960938 16.03125 14.960938 15.9375 14.976562 C 15.9375 14.976562 15.839844 14.992188 15.726562 14.992188 C 15.601562 14.992188 15.519531 14.976562 15.441406 14.945312 C 15.28125 14.863281 15.136719 14.847656 15.136719 14.847656 C 13.902344 15.121094 13.183594 15.648438 13.054688 15.742188 C 13.105469 15.855469 13.296875 16.238281 13.902344 16.160156 C 14.128906 16.128906 14.320312 16.128906 14.480469 16.113281 C 14.847656 16.097656 15.039062 16.097656 15.328125 15.777344 C 15.519531 15.550781 15.777344 15.535156 15.839844 15.535156 L 15.855469 15.535156 C 16.65625 15.535156 17.359375 15.984375 17.375 16.527344 C 17.375 16.769531 17.265625 17.007812 17.039062 17.183594 C 16.863281 17.328125 16.59375 17.425781 16.367188 17.519531 C 16.367188 17.519531 15.808594 17.710938 15.359375 17.886719 C 15.328125 17.886719 13.183594 18.574219 13.183594 19.871094 C 13.183594 20.128906 13.296875 20.382812 13.519531 20.59375 C 14 21.070312 14.910156 21.359375 15.902344 21.328125 C 17.390625 21.265625 18.609375 20.542969 18.609375 19.710938 Z M 14.625 15.472656 C 14.574219 15.503906 14.449219 15.503906 14.304688 15.503906 C 14.113281 15.503906 13.921875 15.488281 13.921875 15.488281 C 13.921875 15.488281 14.367188 15.265625 14.785156 15.152344 C 14.785156 15.152344 14.71875 15.40625 14.625 15.472656 Z M 14.625 15.472656 "/>
</g>
</svg>
