<?xml version="1.0" encoding="UTF-8"?>
<svg xmlns="http://www.w3.org/2000/svg" xmlns:xlink="http://www.w3.org/1999/xlink" width="32px" height="32px" viewBox="0 0 32 29" version="1.1">
<g id="surface1">
<path style=" stroke:none;fill-rule:nonzero;fill:rgb(100%,100%,100%);fill-opacity:1;" d="M 15.113281 0.621094 L 14.238281 1.238281 C 13.152344 1.242188 13.023438 1.242188 13.023438 1.253906 C 13.023438 1.257812 13.074219 1.414062 13.136719 1.597656 C 13.199219 1.777344 13.25 1.925781 13.246094 1.925781 C 13.242188 1.925781 13.109375 1.835938 12.945312 1.71875 C 12.785156 1.605469 12.648438 1.511719 12.644531 1.511719 C 12.640625 1.511719 12.621094 1.5625 12.597656 1.625 C 12.578125 1.6875 12.496094 1.9375 12.410156 2.183594 L 12.261719 2.625 C 12.117188 2.726562 11.722656 3.003906 11.292969 3.308594 L 10.507812 3.859375 C 10.890625 5.046875 11 5.394531 10.996094 5.398438 C 10.992188 5.402344 10.785156 5.421875 10.539062 5.445312 C 10.292969 5.464844 9.851562 5.511719 9.566406 5.542969 C 9.273438 5.574219 8.890625 5.617188 8.707031 5.640625 C 8.527344 5.660156 8.222656 5.699219 8.035156 5.722656 C 7.84375 5.746094 7.539062 5.789062 7.351562 5.8125 C 7.164062 5.839844 6.894531 5.878906 6.753906 5.902344 C 6.617188 5.921875 6.46875 5.945312 6.429688 5.953125 L 6.363281 5.964844 C 6.355469 11.554688 6.355469 13.175781 6.351562 13.175781 C 6.347656 13.175781 6.242188 13.199219 6.113281 13.21875 C 5.984375 13.246094 5.714844 13.296875 5.511719 13.339844 C 5.308594 13.378906 5.003906 13.441406 4.835938 13.480469 C 4.667969 13.515625 4.417969 13.574219 4.277344 13.609375 C 4.136719 13.640625 3.914062 13.699219 3.78125 13.734375 C 3.652344 13.769531 3.507812 13.808594 3.46875 13.820312 C 3.40625 13.839844 3.394531 13.84375 3.398438 13.859375 C 3.398438 13.871094 3.488281 14.199219 3.597656 14.585938 C 3.707031 14.976562 3.800781 15.296875 3.800781 15.304688 C 3.804688 15.308594 3.65625 15.34375 3.449219 15.378906 C 3.253906 15.417969 2.972656 15.472656 2.824219 15.5 C 2.675781 15.527344 2.476562 15.566406 2.382812 15.585938 C 2.289062 15.605469 2.207031 15.621094 2.195312 15.625 C 2.179688 15.628906 2.179688 15.660156 2.179688 16.117188 L 2.179688 16.609375 C 2.011719 16.777344 1.757812 17.039062 1.503906 17.300781 C 1.25 17.5625 0.863281 17.964844 0.640625 18.191406 C 0.417969 18.421875 0.179688 18.664062 0.113281 18.734375 C 0 18.851562 -0.00390625 18.859375 0.015625 18.871094 C 0.0273438 18.878906 0.175781 18.980469 0.34375 19.097656 C 0.515625 19.214844 0.996094 19.542969 1.414062 19.832031 L 2.175781 20.355469 C 2.175781 21.421875 2.179688 21.546875 2.191406 21.546875 C 2.199219 21.546875 2.25 21.539062 2.308594 21.53125 C 2.367188 21.519531 2.570312 21.484375 2.761719 21.449219 C 2.957031 21.417969 3.289062 21.367188 3.503906 21.328125 C 3.71875 21.296875 4.0625 21.242188 4.273438 21.207031 C 4.480469 21.179688 4.816406 21.125 5.019531 21.097656 C 5.21875 21.066406 5.601562 21.011719 5.867188 20.976562 C 6.136719 20.941406 6.359375 20.910156 6.363281 20.914062 C 6.367188 20.914062 6.375 20.960938 6.378906 21.011719 C 6.382812 21.066406 6.398438 21.167969 6.40625 21.246094 C 6.417969 21.320312 6.441406 21.449219 6.457031 21.535156 C 6.472656 21.621094 6.507812 21.765625 6.53125 21.855469 C 6.554688 21.945312 6.589844 22.070312 6.609375 22.132812 C 6.628906 22.199219 6.675781 22.328125 6.710938 22.421875 C 6.75 22.515625 6.808594 22.65625 6.84375 22.734375 C 6.878906 22.816406 6.945312 22.949219 6.988281 23.03125 C 7.027344 23.113281 7.113281 23.261719 7.171875 23.359375 C 7.230469 23.457031 7.339844 23.628906 7.414062 23.738281 C 7.488281 23.847656 7.59375 23.988281 7.640625 24.054688 C 7.691406 24.117188 7.777344 24.222656 7.828125 24.285156 C 7.882812 24.351562 7.980469 24.464844 8.050781 24.539062 C 8.117188 24.613281 8.234375 24.738281 8.308594 24.816406 C 8.386719 24.894531 8.519531 25.023438 8.605469 25.101562 C 8.691406 25.183594 8.816406 25.296875 8.890625 25.363281 C 8.960938 25.425781 9.117188 25.554688 9.234375 25.652344 C 9.355469 25.746094 9.515625 25.875 9.59375 25.933594 C 9.671875 25.996094 9.796875 26.082031 9.867188 26.132812 C 9.941406 26.183594 10.089844 26.285156 10.199219 26.359375 C 10.308594 26.433594 10.496094 26.554688 10.613281 26.628906 C 10.730469 26.703125 10.929688 26.824219 11.054688 26.894531 C 11.175781 26.96875 11.402344 27.09375 11.558594 27.179688 C 11.710938 27.261719 11.933594 27.378906 12.046875 27.4375 C 12.164062 27.496094 12.367188 27.597656 12.503906 27.660156 C 12.636719 27.726562 12.820312 27.808594 12.910156 27.851562 C 13.003906 27.894531 13.167969 27.964844 13.277344 28.015625 C 13.386719 28.0625 13.597656 28.148438 13.746094 28.210938 C 13.894531 28.269531 14.136719 28.367188 14.28125 28.421875 C 14.425781 28.476562 14.65625 28.5625 14.785156 28.609375 C 14.917969 28.652344 15.191406 28.746094 15.394531 28.8125 C 15.597656 28.878906 15.816406 28.945312 15.878906 28.964844 L 15.996094 28.996094 C 16.273438 28.917969 16.453125 28.863281 16.570312 28.824219 C 16.6875 28.785156 16.875 28.722656 16.988281 28.683594 C 17.101562 28.644531 17.285156 28.582031 17.394531 28.542969 C 17.503906 28.503906 17.699219 28.429688 17.824219 28.378906 C 17.949219 28.332031 18.152344 28.25 18.269531 28.203125 C 18.386719 28.15625 18.582031 28.074219 18.703125 28.019531 C 18.824219 27.96875 19.015625 27.882812 19.128906 27.832031 C 19.238281 27.78125 19.453125 27.679688 19.597656 27.609375 C 19.742188 27.539062 19.949219 27.4375 20.054688 27.382812 C 20.15625 27.332031 20.332031 27.238281 20.441406 27.179688 C 20.550781 27.117188 20.730469 27.019531 20.835938 26.957031 C 20.945312 26.894531 21.117188 26.792969 21.222656 26.730469 C 21.328125 26.667969 21.488281 26.5625 21.585938 26.5 C 21.683594 26.4375 21.839844 26.332031 21.9375 26.265625 C 22.03125 26.203125 22.175781 26.101562 22.25 26.046875 C 22.328125 25.988281 22.433594 25.914062 22.488281 25.871094 C 22.539062 25.832031 22.671875 25.726562 22.785156 25.632812 C 22.898438 25.542969 23.046875 25.417969 23.113281 25.355469 C 23.183594 25.296875 23.316406 25.175781 23.410156 25.085938 C 23.503906 25 23.65625 24.851562 23.742188 24.757812 C 23.832031 24.664062 23.945312 24.542969 23.992188 24.492188 C 24.042969 24.4375 24.125 24.339844 24.179688 24.273438 C 24.234375 24.203125 24.320312 24.097656 24.371094 24.035156 C 24.421875 23.972656 24.511719 23.847656 24.574219 23.757812 C 24.632812 23.667969 24.730469 23.519531 24.789062 23.421875 C 24.847656 23.328125 24.941406 23.164062 24.996094 23.066406 C 25.046875 22.964844 25.121094 22.816406 25.15625 22.734375 C 25.191406 22.65625 25.25 22.515625 25.289062 22.421875 C 25.324219 22.328125 25.371094 22.199219 25.390625 22.132812 C 25.410156 22.070312 25.441406 21.953125 25.464844 21.875 C 25.488281 21.792969 25.515625 21.664062 25.535156 21.582031 C 25.550781 21.503906 25.574219 21.363281 25.589844 21.273438 C 25.601562 21.183594 25.617188 21.066406 25.621094 21.011719 C 25.625 20.960938 25.632812 20.914062 25.636719 20.914062 C 25.640625 20.910156 25.863281 20.941406 26.132812 20.976562 C 26.398438 21.011719 26.78125 21.066406 26.980469 21.097656 C 27.183594 21.125 27.519531 21.179688 27.726562 21.207031 C 27.9375 21.242188 28.28125 21.296875 28.496094 21.328125 C 28.710938 21.367188 29.042969 21.417969 29.238281 21.449219 C 29.429688 21.484375 29.636719 21.519531 29.695312 21.53125 C 29.757812 21.539062 29.808594 21.546875 29.8125 21.546875 C 29.816406 21.546875 29.820312 21.28125 29.820312 20.953125 L 29.820312 20.355469 C 29.972656 20.253906 30.234375 20.074219 30.5 19.890625 C 30.769531 19.710938 31.210938 19.40625 31.484375 19.214844 C 31.761719 19.027344 31.988281 18.867188 31.996094 18.863281 C 32 18.859375 31.980469 18.832031 31.945312 18.796875 C 31.910156 18.761719 31.75 18.59375 31.585938 18.421875 C 31.421875 18.253906 31.210938 18.039062 31.125 17.949219 C 31.035156 17.855469 30.886719 17.703125 30.796875 17.613281 C 30.707031 17.519531 30.5 17.304688 30.335938 17.136719 C 30.171875 16.964844 29.988281 16.777344 29.929688 16.714844 L 29.820312 16.609375 C 29.820312 15.660156 29.820312 15.628906 29.804688 15.625 C 29.792969 15.621094 29.632812 15.589844 29.445312 15.554688 C 29.257812 15.515625 28.902344 15.445312 28.652344 15.402344 C 28.402344 15.355469 28.195312 15.316406 28.195312 15.3125 C 28.195312 15.3125 28.238281 15.164062 28.289062 14.984375 C 28.339844 14.804688 28.433594 14.472656 28.496094 14.253906 C 28.5625 14.03125 28.609375 13.847656 28.605469 13.84375 C 28.601562 13.839844 28.550781 13.824219 28.496094 13.808594 C 28.441406 13.792969 28.28125 13.746094 28.136719 13.710938 C 27.996094 13.675781 27.757812 13.617188 27.609375 13.582031 C 27.460938 13.546875 27.246094 13.5 27.136719 13.472656 C 27.027344 13.449219 26.796875 13.402344 26.628906 13.363281 C 26.457031 13.332031 26.167969 13.273438 25.984375 13.242188 C 25.804688 13.207031 25.652344 13.175781 25.648438 13.175781 C 25.644531 13.175781 25.644531 11.554688 25.640625 9.570312 L 25.636719 5.964844 C 25.429688 5.929688 25.296875 5.910156 25.210938 5.894531 C 25.121094 5.882812 24.898438 5.851562 24.714844 5.824219 C 24.53125 5.796875 24.210938 5.753906 24.003906 5.726562 C 23.796875 5.699219 23.445312 5.65625 23.222656 5.632812 C 22.996094 5.601562 22.625 5.5625 22.398438 5.539062 C 22.167969 5.511719 21.761719 5.472656 21.492188 5.445312 C 21.089844 5.410156 21 5.398438 21.003906 5.386719 C 21.007812 5.378906 21.117188 5.03125 21.25 4.617188 L 21.492188 3.863281 C 20.757812 3.34375 20.359375 3.066406 20.136719 2.910156 L 19.734375 2.628906 C 19.636719 2.34375 19.550781 2.09375 19.484375 1.886719 C 19.414062 1.679688 19.355469 1.511719 19.351562 1.511719 C 19.34375 1.511719 19.210938 1.605469 19.050781 1.71875 C 18.890625 1.835938 18.757812 1.925781 18.753906 1.925781 C 18.753906 1.925781 18.789062 1.804688 18.839844 1.664062 C 18.886719 1.519531 18.9375 1.367188 18.953125 1.328125 C 18.964844 1.289062 18.972656 1.25 18.972656 1.246094 C 18.96875 1.242188 18.699219 1.242188 18.367188 1.242188 L 17.761719 1.238281 C 17.214844 0.851562 16.9375 0.660156 16.800781 0.5625 C 16.660156 0.460938 16.421875 0.296875 16.273438 0.191406 C 16.125 0.0859375 16 0 15.996094 0 C 15.996094 0 15.597656 0.277344 15.113281 0.621094 Z M 15.113281 0.621094 "/>
<path style=" stroke:none;fill-rule:nonzero;fill:rgb(72.156863%,6.666667%,21.568627%);fill-opacity:1;" d="M 15.867188 0.65625 C 15.796875 0.703125 15.441406 0.957031 15.070312 1.21875 L 14.390625 1.695312 C 13.757812 1.695312 13.679688 1.699219 13.679688 1.707031 C 13.679688 1.714844 13.789062 2.03125 13.917969 2.417969 C 14.046875 2.800781 14.15625 3.117188 14.160156 3.125 C 14.164062 3.128906 14.160156 3.132812 14.152344 3.128906 C 14.148438 3.125 13.863281 2.929688 13.523438 2.691406 C 13.183594 2.453125 12.902344 2.257812 12.898438 2.257812 C 12.894531 2.253906 12.839844 2.402344 12.78125 2.585938 C 12.71875 2.769531 12.667969 2.921875 12.664062 2.925781 C 12.660156 2.929688 12.296875 3.179688 11.859375 3.484375 L 11.070312 4.042969 C 11.277344 4.699219 11.40625 5.097656 11.488281 5.351562 C 11.570312 5.605469 11.636719 5.8125 11.632812 5.816406 C 11.628906 5.820312 11.402344 5.839844 11.128906 5.859375 C 10.851562 5.882812 10.425781 5.921875 10.179688 5.945312 C 9.929688 5.96875 9.542969 6.007812 9.320312 6.03125 C 9.09375 6.054688 8.730469 6.097656 8.511719 6.125 C 8.289062 6.152344 7.929688 6.195312 7.710938 6.226562 C 7.488281 6.253906 7.207031 6.292969 7.078125 6.3125 C 6.953125 6.332031 6.84375 6.347656 6.839844 6.351562 C 6.828125 6.355469 6.824219 6.453125 6.824219 6.796875 C 6.824219 7.183594 6.828125 7.238281 6.839844 7.238281 C 6.847656 7.238281 6.976562 7.21875 7.125 7.199219 C 7.269531 7.175781 7.546875 7.136719 7.742188 7.113281 C 7.933594 7.085938 8.289062 7.039062 8.53125 7.011719 C 8.769531 6.980469 9.085938 6.945312 9.230469 6.929688 C 9.371094 6.910156 9.617188 6.886719 9.773438 6.871094 C 9.929688 6.855469 10.199219 6.828125 10.371094 6.8125 C 10.546875 6.796875 10.847656 6.769531 11.046875 6.753906 C 11.246094 6.738281 11.523438 6.714844 11.664062 6.707031 C 11.804688 6.695312 12.09375 6.675781 12.308594 6.664062 C 12.523438 6.648438 12.859375 6.628906 13.0625 6.617188 C 13.261719 6.609375 13.605469 6.589844 13.820312 6.582031 L 14.214844 6.566406 C 14.90625 7.054688 15.304688 7.335938 15.546875 7.507812 C 15.789062 7.679688 15.996094 7.816406 16.003906 7.816406 C 16.007812 7.816406 16.414062 7.53125 16.902344 7.191406 L 17.792969 6.566406 C 18.40625 6.59375 18.746094 6.609375 18.941406 6.617188 C 19.140625 6.628906 19.445312 6.644531 19.621094 6.65625 C 19.796875 6.667969 20.089844 6.6875 20.273438 6.699219 C 20.453125 6.714844 20.761719 6.738281 20.957031 6.753906 C 21.152344 6.769531 21.476562 6.796875 21.679688 6.816406 C 21.886719 6.835938 22.25 6.875 22.496094 6.898438 C 22.742188 6.925781 23.160156 6.972656 23.425781 7.003906 C 23.691406 7.039062 24.054688 7.085938 24.234375 7.105469 C 24.414062 7.132812 24.691406 7.171875 24.851562 7.195312 C 25.011719 7.21875 25.152344 7.238281 25.160156 7.238281 C 25.171875 7.238281 25.175781 7.183594 25.171875 6.792969 L 25.167969 6.351562 C 24.90625 6.308594 24.621094 6.269531 24.363281 6.234375 C 24.109375 6.203125 23.738281 6.152344 23.539062 6.128906 C 23.34375 6.105469 22.980469 6.0625 22.734375 6.039062 C 22.492188 6.011719 22.085938 5.96875 21.835938 5.945312 C 21.585938 5.921875 21.15625 5.882812 20.875 5.863281 C 20.601562 5.839844 20.371094 5.820312 20.371094 5.820312 C 20.367188 5.820312 20.441406 5.585938 20.53125 5.304688 C 20.621094 5.023438 20.746094 4.628906 20.8125 4.425781 C 20.875 4.226562 20.929688 4.058594 20.933594 4.050781 C 20.933594 4.042969 20.621094 3.816406 20.136719 3.480469 C 19.695312 3.171875 19.332031 2.914062 19.328125 2.90625 C 19.324219 2.898438 19.273438 2.746094 19.210938 2.574219 C 19.15625 2.394531 19.105469 2.25 19.105469 2.25 C 19.105469 2.25 18.824219 2.445312 18.480469 2.6875 C 18.140625 2.929688 17.855469 3.128906 17.851562 3.128906 C 17.851562 3.125 17.953125 2.808594 18.082031 2.417969 C 18.210938 2.027344 18.320312 1.707031 18.320312 1.703125 C 18.320312 1.699219 18.160156 1.695312 17.960938 1.695312 L 17.601562 1.695312 C 16.363281 0.824219 16 0.570312 15.996094 0.570312 C 15.988281 0.570312 15.929688 0.609375 15.867188 0.65625 Z M 15.867188 0.65625 "/>
<path style=" stroke:none;fill-rule:nonzero;fill:rgb(100%,100%,100%);fill-opacity:1;" d="M 15.449219 2.039062 C 15.152344 2.25 14.898438 2.429688 14.890625 2.4375 C 14.875 2.449219 14.902344 2.523438 15.089844 3.085938 L 15.304688 3.71875 L 16.695312 3.71875 C 17.082031 2.5625 17.117188 2.445312 17.105469 2.433594 C 17.101562 2.429688 16.847656 2.25 16.546875 2.039062 C 16.246094 1.828125 16 1.65625 15.996094 1.65625 C 15.996094 1.65625 15.75 1.828125 15.449219 2.039062 Z M 12.695312 3.984375 C 12.390625 4.199219 12.136719 4.382812 12.140625 4.390625 C 12.140625 4.398438 12.238281 4.707031 12.363281 5.074219 C 12.484375 5.441406 12.585938 5.742188 12.585938 5.746094 C 12.585938 5.746094 12.890625 5.730469 13.261719 5.710938 C 13.632812 5.691406 13.9375 5.675781 13.9375 5.675781 C 13.9375 5.675781 14.035156 5.386719 14.15625 5.035156 C 14.273438 4.683594 14.371094 4.390625 14.371094 4.382812 C 14.371094 4.378906 14.117188 4.199219 13.8125 3.980469 L 13.25 3.589844 Z M 18.191406 3.980469 C 17.886719 4.199219 17.640625 4.378906 17.640625 4.382812 C 17.636719 4.390625 17.734375 4.683594 17.847656 5.035156 C 17.964844 5.386719 18.0625 5.675781 18.0625 5.675781 C 18.0625 5.675781 18.367188 5.691406 18.738281 5.710938 C 19.109375 5.730469 19.414062 5.746094 19.414062 5.746094 C 19.414062 5.742188 19.515625 5.4375 19.640625 5.0625 C 19.859375 4.414062 19.867188 4.382812 19.851562 4.367188 C 19.839844 4.359375 19.601562 4.191406 19.320312 3.992188 C 19.035156 3.792969 18.789062 3.621094 18.773438 3.609375 L 18.742188 3.585938 Z M 15.300781 4.683594 C 15.300781 4.6875 15.207031 4.972656 15.089844 5.316406 C 14.972656 5.660156 14.882812 5.949219 14.882812 5.953125 C 14.886719 5.960938 15.136719 6.136719 15.441406 6.347656 C 15.746094 6.5625 16 6.734375 16.003906 6.730469 C 16.011719 6.730469 16.257812 6.558594 16.554688 6.351562 C 16.851562 6.144531 17.101562 5.972656 17.105469 5.964844 C 17.117188 5.957031 17.082031 5.835938 16.90625 5.316406 L 16.695312 4.679688 C 15.613281 4.679688 15.300781 4.683594 15.300781 4.683594 Z M 15.300781 4.683594 "/>
<path style=" stroke:none;fill-rule:nonzero;fill:rgb(72.156863%,6.666667%,21.568627%);fill-opacity:1;" d="M 13.679688 7.03125 C 13.523438 7.039062 13.222656 7.050781 13.011719 7.0625 C 12.800781 7.074219 12.433594 7.097656 12.191406 7.113281 C 11.953125 7.128906 11.640625 7.152344 11.496094 7.160156 C 11.355469 7.171875 11.105469 7.191406 10.941406 7.203125 C 10.78125 7.21875 10.488281 7.242188 10.289062 7.261719 C 10.089844 7.28125 9.820312 7.308594 9.691406 7.320312 C 9.558594 7.332031 9.328125 7.359375 9.183594 7.375 C 9.039062 7.390625 8.707031 7.429688 8.445312 7.460938 C 8.183594 7.492188 7.765625 7.546875 7.515625 7.582031 C 7.265625 7.617188 7.007812 7.652344 6.945312 7.664062 L 6.832031 7.679688 C 6.824219 12.792969 6.828125 13.101562 6.839844 13.101562 C 6.847656 13.101562 6.964844 13.082031 7.09375 13.0625 C 7.222656 13.039062 7.433594 13.007812 7.558594 12.988281 C 7.6875 12.96875 7.800781 12.953125 7.8125 12.949219 L 7.835938 12.945312 C 7.835938 9.511719 7.835938 8.515625 7.839844 8.515625 C 7.84375 8.515625 7.980469 8.5 8.140625 8.476562 C 8.304688 8.457031 8.585938 8.421875 8.765625 8.402344 C 8.941406 8.378906 9.300781 8.339844 9.554688 8.3125 C 9.808594 8.289062 10.230469 8.246094 10.488281 8.222656 C 10.746094 8.199219 11.089844 8.167969 11.246094 8.152344 C 11.40625 8.140625 11.6875 8.117188 11.871094 8.105469 C 12.054688 8.09375 12.351562 8.074219 12.527344 8.0625 C 12.703125 8.050781 12.980469 8.035156 13.148438 8.027344 C 13.3125 8.019531 13.59375 8.007812 13.777344 8 C 13.957031 7.992188 14.304688 7.980469 14.550781 7.972656 C 14.796875 7.96875 15.078125 7.960938 15.179688 7.957031 L 15.363281 7.949219 C 14.089844 7.042969 14.054688 7.019531 14.011719 7.019531 C 13.988281 7.015625 13.839844 7.023438 13.679688 7.03125 Z M 17.9375 7.027344 C 17.929688 7.035156 17.777344 7.144531 17.601562 7.269531 C 17.429688 7.394531 17.210938 7.542969 17.125 7.605469 C 17.035156 7.667969 16.890625 7.769531 16.800781 7.835938 C 16.710938 7.898438 16.640625 7.949219 16.640625 7.953125 C 16.644531 7.953125 16.859375 7.957031 17.121094 7.964844 C 17.378906 7.96875 17.769531 7.980469 17.984375 7.988281 C 18.199219 7.996094 18.550781 8.011719 18.769531 8.023438 C 18.984375 8.03125 19.234375 8.046875 19.324219 8.050781 C 19.410156 8.058594 19.644531 8.074219 19.847656 8.085938 C 20.046875 8.101562 20.402344 8.125 20.636719 8.144531 C 20.871094 8.164062 21.230469 8.191406 21.433594 8.210938 C 21.636719 8.230469 22.035156 8.269531 22.316406 8.300781 C 22.597656 8.328125 23.046875 8.378906 23.308594 8.410156 C 23.574219 8.441406 23.871094 8.476562 23.972656 8.492188 C 24.074219 8.507812 24.160156 8.515625 24.164062 8.515625 C 24.171875 8.515625 24.175781 9.261719 24.175781 10.734375 L 24.175781 12.949219 C 24.417969 12.984375 24.636719 13.019531 24.816406 13.046875 C 24.996094 13.078125 25.152344 13.101562 25.160156 13.101562 C 25.171875 13.101562 25.175781 12.792969 25.171875 10.390625 L 25.167969 7.679688 C 24.890625 7.636719 24.6875 7.609375 24.535156 7.585938 C 24.382812 7.566406 24.160156 7.535156 24.035156 7.519531 C 23.910156 7.503906 23.628906 7.46875 23.40625 7.441406 C 23.183594 7.414062 22.859375 7.378906 22.6875 7.359375 C 22.511719 7.339844 22.195312 7.308594 21.976562 7.289062 C 21.757812 7.265625 21.476562 7.238281 21.347656 7.226562 C 21.21875 7.21875 21.089844 7.207031 21.066406 7.203125 C 21.042969 7.203125 20.824219 7.183594 20.582031 7.167969 C 20.339844 7.148438 20.074219 7.128906 19.992188 7.121094 C 19.910156 7.117188 19.738281 7.105469 19.609375 7.097656 C 19.476562 7.089844 19.292969 7.078125 19.199219 7.074219 C 19.101562 7.070312 18.894531 7.058594 18.734375 7.050781 C 18.574219 7.042969 18.375 7.03125 18.292969 7.03125 C 18.210938 7.027344 18.101562 7.023438 18.046875 7.019531 C 17.972656 7.015625 17.949219 7.015625 17.9375 7.027344 Z M 17.9375 7.027344 "/>
<path style=" stroke:none;fill-rule:nonzero;fill:rgb(27.058824%,33.333333%,37.647059%);fill-opacity:1;" d="M 15.332031 8.464844 C 15.210938 8.464844 14.941406 8.472656 14.730469 8.476562 C 14.519531 8.484375 14.167969 8.496094 13.953125 8.503906 C 13.734375 8.511719 13.425781 8.523438 13.261719 8.53125 C 13.097656 8.539062 12.855469 8.550781 12.722656 8.558594 C 12.585938 8.566406 12.285156 8.589844 12.054688 8.605469 C 11.820312 8.621094 11.421875 8.648438 11.167969 8.671875 C 10.914062 8.695312 10.503906 8.730469 10.257812 8.753906 C 10.011719 8.777344 9.632812 8.816406 9.414062 8.839844 C 9.195312 8.867188 8.894531 8.898438 8.738281 8.917969 C 8.585938 8.9375 8.441406 8.953125 8.421875 8.957031 L 8.382812 8.960938 C 8.382812 11.5625 8.390625 12.316406 8.390625 12.320312 C 8.398438 12.320312 8.59375 12.058594 8.828125 11.730469 C 9.066406 11.40625 9.265625 11.132812 9.269531 11.128906 C 9.277344 11.121094 9.40625 11.101562 9.644531 11.074219 C 9.84375 11.054688 10.097656 11.027344 10.203125 11.015625 C 10.308594 11.007812 10.515625 10.984375 10.65625 10.972656 C 10.800781 10.960938 11.082031 10.9375 11.28125 10.921875 C 11.484375 10.90625 11.800781 10.878906 11.988281 10.867188 C 12.175781 10.855469 12.488281 10.832031 12.679688 10.824219 C 12.875 10.8125 13.175781 10.796875 13.347656 10.789062 C 13.515625 10.78125 13.832031 10.769531 14.042969 10.757812 C 14.253906 10.75 14.4375 10.746094 14.449219 10.746094 L 14.46875 10.746094 L 14.46875 12.40625 L 17.53125 12.40625 L 17.53125 10.746094 C 17.570312 10.746094 17.753906 10.75 17.964844 10.757812 C 18.171875 10.769531 18.484375 10.78125 18.652344 10.789062 C 18.824219 10.796875 19.125 10.8125 19.324219 10.824219 C 19.519531 10.832031 19.863281 10.855469 20.082031 10.871094 C 20.300781 10.886719 20.617188 10.910156 20.78125 10.925781 C 20.945312 10.9375 21.222656 10.960938 21.398438 10.976562 C 21.570312 10.996094 21.898438 11.027344 22.125 11.050781 C 22.355469 11.074219 22.582031 11.097656 22.628906 11.105469 L 22.71875 11.117188 C 23.371094 12.015625 23.570312 12.289062 23.582031 12.304688 L 23.605469 12.328125 L 23.605469 8.960938 C 23.546875 8.953125 23.40625 8.9375 23.25 8.917969 C 23.097656 8.898438 22.796875 8.867188 22.585938 8.84375 C 22.375 8.816406 21.996094 8.777344 21.746094 8.753906 C 21.496094 8.730469 21.085938 8.695312 20.832031 8.671875 C 20.578125 8.648438 20.148438 8.617188 19.871094 8.597656 C 19.597656 8.582031 19.253906 8.558594 19.109375 8.550781 C 18.960938 8.542969 18.75 8.53125 18.636719 8.527344 C 18.527344 8.523438 18.320312 8.511719 18.179688 8.507812 C 18.039062 8.5 17.710938 8.492188 17.453125 8.484375 C 17.195312 8.476562 16.660156 8.46875 16.265625 8.464844 C 15.867188 8.460938 15.449219 8.460938 15.332031 8.464844 Z M 15.332031 8.464844 "/>
<path style=" stroke:none;fill-rule:nonzero;fill:rgb(69.019608%,71.764706%,73.333333%);fill-opacity:1;" d="M 10.703125 11.410156 C 10.628906 11.417969 10.402344 11.4375 10.199219 11.457031 C 9.996094 11.476562 9.816406 11.496094 9.800781 11.5 C 9.78125 11.503906 9.648438 11.664062 9.257812 12.160156 C 8.96875 12.519531 8.738281 12.816406 8.742188 12.820312 C 8.746094 12.828125 8.898438 12.8125 9.078125 12.792969 C 9.261719 12.769531 9.488281 12.742188 9.589844 12.730469 C 9.6875 12.722656 9.925781 12.699219 10.117188 12.679688 C 10.308594 12.660156 10.566406 12.636719 10.679688 12.628906 L 10.894531 12.609375 L 10.894531 11.394531 C 10.851562 11.398438 10.777344 11.402344 10.703125 11.410156 Z M 21.117188 12 L 21.117188 12.605469 C 21.152344 12.613281 21.242188 12.621094 21.34375 12.628906 C 21.441406 12.640625 21.683594 12.660156 21.882812 12.679688 C 22.078125 12.699219 22.378906 12.726562 22.546875 12.746094 C 22.714844 12.765625 22.941406 12.792969 23.050781 12.804688 C 23.160156 12.816406 23.253906 12.824219 23.257812 12.820312 C 23.261719 12.816406 23.035156 12.523438 22.753906 12.167969 C 22.472656 11.816406 22.238281 11.519531 22.230469 11.511719 C 22.21875 11.5 22.101562 11.484375 21.722656 11.449219 C 21.453125 11.425781 21.207031 11.402344 21.175781 11.398438 L 21.117188 11.394531 Z M 21.117188 12 "/>
<path style=" stroke:none;fill-rule:nonzero;fill:rgb(72.156863%,6.666667%,21.568627%);fill-opacity:1;" d="M 14.980469 12.863281 C 14.910156 12.867188 14.664062 12.871094 14.425781 12.875 C 14.191406 12.882812 13.832031 12.894531 13.632812 12.902344 C 13.429688 12.910156 13.128906 12.921875 12.960938 12.929688 C 12.792969 12.9375 12.484375 12.957031 12.273438 12.96875 C 12.0625 12.984375 11.792969 13 11.679688 13.007812 C 11.5625 13.015625 11.332031 13.035156 11.164062 13.046875 C 10.996094 13.0625 10.691406 13.085938 10.488281 13.105469 C 10.285156 13.125 9.976562 13.152344 9.804688 13.171875 C 9.628906 13.191406 9.355469 13.222656 9.195312 13.242188 C 9.03125 13.257812 8.746094 13.296875 8.558594 13.316406 C 8.371094 13.34375 8.066406 13.386719 7.878906 13.410156 C 7.691406 13.4375 7.300781 13.5 7.011719 13.546875 C 6.71875 13.59375 6.328125 13.660156 6.140625 13.695312 C 5.953125 13.730469 5.679688 13.78125 5.535156 13.8125 C 5.390625 13.839844 5.148438 13.890625 4.996094 13.921875 C 4.847656 13.957031 4.621094 14.007812 4.503906 14.035156 C 4.378906 14.066406 4.214844 14.105469 4.132812 14.128906 C 4.050781 14.148438 3.980469 14.167969 3.980469 14.167969 C 3.980469 14.167969 4.109375 14.636719 4.269531 15.207031 L 4.558594 16.246094 C 4.113281 18.179688 3.984375 18.753906 3.980469 18.765625 C 3.980469 18.777344 3.980469 18.789062 3.992188 18.789062 C 3.996094 18.789062 4.042969 18.777344 4.09375 18.761719 C 4.140625 18.75 4.328125 18.703125 4.503906 18.660156 C 4.679688 18.617188 4.90625 18.566406 5.007812 18.542969 C 5.109375 18.523438 5.308594 18.480469 5.457031 18.453125 C 5.601562 18.421875 5.898438 18.367188 6.109375 18.328125 C 6.324219 18.289062 6.726562 18.21875 7.007812 18.175781 C 7.28125 18.128906 7.632812 18.074219 7.78125 18.050781 C 7.929688 18.03125 8.269531 17.984375 8.535156 17.949219 C 8.800781 17.914062 9.15625 17.871094 9.324219 17.851562 C 9.492188 17.835938 9.777344 17.804688 9.964844 17.785156 C 10.148438 17.765625 10.445312 17.738281 10.625 17.722656 C 10.800781 17.707031 11.058594 17.683594 11.195312 17.675781 C 11.328125 17.664062 11.589844 17.644531 11.777344 17.628906 C 11.964844 17.617188 12.230469 17.597656 12.367188 17.589844 C 12.503906 17.582031 12.753906 17.570312 12.917969 17.5625 C 13.082031 17.554688 13.378906 17.542969 13.574219 17.535156 C 13.773438 17.527344 14.113281 17.511719 14.332031 17.507812 C 14.585938 17.496094 15.175781 17.496094 15.996094 17.496094 C 16.804688 17.496094 17.410156 17.5 17.664062 17.507812 C 17.882812 17.511719 18.175781 17.523438 18.308594 17.527344 C 18.441406 17.535156 18.699219 17.542969 18.875 17.550781 C 19.050781 17.5625 19.347656 17.574219 19.539062 17.585938 C 19.726562 17.597656 20.035156 17.617188 20.222656 17.628906 C 20.410156 17.644531 20.671875 17.664062 20.804688 17.671875 C 20.941406 17.683594 21.199219 17.707031 21.375 17.722656 C 21.554688 17.738281 21.851562 17.765625 22.035156 17.785156 C 22.222656 17.804688 22.507812 17.835938 22.675781 17.851562 C 22.84375 17.871094 23.199219 17.914062 23.464844 17.949219 C 23.730469 17.984375 24.070312 18.03125 24.21875 18.050781 C 24.367188 18.074219 24.71875 18.128906 24.992188 18.175781 C 25.273438 18.21875 25.617188 18.277344 25.761719 18.304688 C 25.910156 18.332031 26.167969 18.378906 26.332031 18.410156 C 26.5 18.445312 26.761719 18.496094 26.910156 18.527344 C 27.054688 18.558594 27.300781 18.613281 27.449219 18.648438 C 27.597656 18.683594 27.785156 18.730469 27.867188 18.75 C 27.945312 18.773438 28.015625 18.789062 28.019531 18.785156 C 28.023438 18.78125 28.007812 18.695312 27.984375 18.59375 C 27.960938 18.496094 27.828125 17.925781 27.691406 17.328125 L 27.441406 16.246094 C 27.753906 15.148438 27.886719 14.679688 27.9375 14.5 L 28.027344 14.171875 C 27.964844 14.152344 27.796875 14.109375 27.613281 14.0625 C 27.429688 14.019531 27.167969 13.957031 27.035156 13.929688 C 26.898438 13.898438 26.65625 13.847656 26.5 13.816406 C 26.339844 13.785156 26.054688 13.730469 25.867188 13.695312 C 25.679688 13.660156 25.289062 13.59375 24.992188 13.546875 C 24.699219 13.5 24.308594 13.4375 24.121094 13.410156 C 23.933594 13.386719 23.628906 13.34375 23.441406 13.316406 C 23.253906 13.296875 23.007812 13.265625 22.890625 13.25 C 22.777344 13.238281 22.542969 13.210938 22.375 13.191406 C 22.207031 13.175781 21.980469 13.148438 21.871094 13.140625 C 21.761719 13.128906 21.523438 13.105469 21.347656 13.089844 C 21.167969 13.074219 20.910156 13.054688 20.777344 13.042969 C 20.640625 13.03125 20.371094 13.011719 20.171875 13 C 19.972656 12.984375 19.664062 12.964844 19.484375 12.957031 C 19.300781 12.945312 19.007812 12.929688 18.832031 12.921875 C 18.65625 12.914062 18.386719 12.902344 18.234375 12.894531 C 18.078125 12.890625 17.804688 12.882812 17.625 12.875 C 17.441406 12.871094 16.800781 12.867188 16.199219 12.863281 C 15.597656 12.863281 15.050781 12.863281 14.980469 12.863281 Z M 14.980469 12.863281 "/>
<path style=" stroke:none;fill-rule:nonzero;fill:rgb(100%,100%,100%);fill-opacity:1;" d="M 15.039062 13.898438 C 15.007812 13.90625 14.953125 13.929688 14.910156 13.949219 C 14.867188 13.96875 14.808594 14.011719 14.777344 14.039062 C 14.746094 14.070312 14.699219 14.117188 14.679688 14.152344 C 14.65625 14.183594 14.628906 14.242188 14.613281 14.289062 L 14.585938 14.363281 L 14.585938 15.742188 C 14.628906 15.859375 14.65625 15.921875 14.679688 15.953125 C 14.699219 15.984375 14.746094 16.035156 14.777344 16.066406 C 14.808594 16.09375 14.867188 16.132812 14.90625 16.152344 C 14.945312 16.171875 15.003906 16.199219 15.039062 16.207031 C 15.101562 16.222656 15.164062 16.222656 15.855469 16.222656 C 16.550781 16.222656 16.609375 16.222656 16.667969 16.207031 C 16.707031 16.195312 16.765625 16.171875 16.804688 16.152344 C 16.847656 16.132812 16.902344 16.09375 16.945312 16.050781 C 16.988281 16.007812 17.027344 15.957031 17.050781 15.914062 C 17.070312 15.878906 17.09375 15.820312 17.105469 15.789062 C 17.117188 15.738281 17.117188 15.636719 17.117188 15.050781 C 17.117188 14.488281 17.117188 14.363281 17.105469 14.320312 C 17.097656 14.292969 17.074219 14.234375 17.054688 14.195312 C 17.027344 14.144531 16.996094 14.101562 16.945312 14.054688 C 16.894531 14.003906 16.851562 13.972656 16.800781 13.949219 C 16.757812 13.929688 16.699219 13.90625 16.664062 13.898438 C 16.613281 13.886719 16.496094 13.882812 15.847656 13.886719 C 15.25 13.886719 15.085938 13.890625 15.039062 13.898438 Z M 17.566406 13.914062 C 17.566406 13.921875 17.609375 13.964844 17.660156 14.015625 L 17.75 14.109375 L 17.75 16.058594 C 17.605469 16.199219 17.566406 16.238281 17.570312 16.242188 C 17.570312 16.246094 17.742188 16.25 17.945312 16.257812 C 18.148438 16.261719 18.34375 16.269531 18.378906 16.269531 L 18.441406 16.269531 L 18.238281 16.070312 C 18.238281 14.925781 18.242188 14.589844 18.246094 14.589844 C 18.25 14.585938 18.558594 14.96875 18.9375 15.441406 C 19.308594 15.914062 19.621094 16.308594 19.628906 16.316406 C 19.640625 16.332031 19.699219 16.335938 20.007812 16.355469 C 20.207031 16.367188 20.394531 16.375 20.417969 16.378906 C 20.445312 16.382812 20.46875 16.382812 20.46875 16.378906 C 20.46875 16.375 20.425781 16.328125 20.378906 16.277344 L 20.289062 16.179688 L 20.289062 14.234375 C 20.433594 14.09375 20.476562 14.054688 20.476562 14.054688 C 20.472656 14.050781 20.28125 14.039062 20.054688 14.027344 C 19.824219 14.011719 19.625 14 19.617188 14.003906 C 19.609375 14.003906 19.636719 14.039062 19.695312 14.097656 L 19.789062 14.191406 C 19.789062 15.34375 19.785156 15.679688 19.78125 15.683594 C 19.777344 15.683594 19.460938 15.292969 19.078125 14.808594 L 18.390625 13.933594 C 18.332031 13.933594 18.175781 13.929688 18.007812 13.921875 C 17.839844 13.917969 17.671875 13.914062 17.632812 13.910156 C 17.59375 13.910156 17.566406 13.914062 17.566406 13.914062 Z M 12.238281 14.015625 C 11.691406 14.050781 11.246094 14.078125 11.246094 14.082031 C 11.246094 14.085938 11.28125 14.125 11.332031 14.167969 L 11.421875 14.25 L 11.421875 16.214844 C 11.28125 16.359375 11.246094 16.40625 11.257812 16.40625 C 11.261719 16.40625 11.453125 16.390625 11.683594 16.375 C 11.910156 16.355469 12.097656 16.339844 12.101562 16.339844 C 12.105469 16.335938 12.066406 16.296875 12.015625 16.25 L 11.921875 16.167969 L 11.921875 15.648438 C 12.019531 15.640625 12.34375 15.621094 12.703125 15.605469 C 13.300781 15.574219 13.363281 15.570312 13.398438 15.585938 C 13.414062 15.59375 13.441406 15.613281 13.453125 15.628906 C 13.46875 15.660156 13.472656 15.679688 13.472656 15.875 L 13.472656 16.089844 C 13.28125 16.273438 13.269531 16.289062 13.292969 16.289062 C 13.304688 16.289062 13.492188 16.277344 13.707031 16.269531 C 13.921875 16.257812 14.113281 16.25 14.132812 16.25 L 14.167969 16.25 L 13.960938 16.066406 C 13.960938 15.679688 13.957031 15.621094 13.945312 15.582031 C 13.9375 15.550781 13.917969 15.507812 13.90625 15.488281 C 13.894531 15.46875 13.859375 15.425781 13.832031 15.402344 C 13.800781 15.375 13.757812 15.34375 13.734375 15.332031 C 13.710938 15.320312 13.691406 15.3125 13.691406 15.308594 C 13.691406 15.304688 13.710938 15.289062 13.738281 15.273438 C 13.765625 15.257812 13.804688 15.222656 13.824219 15.199219 C 13.847656 15.175781 13.878906 15.132812 13.898438 15.101562 C 13.917969 15.074219 13.9375 15.027344 13.945312 14.996094 C 13.957031 14.949219 13.960938 14.878906 13.960938 14.679688 C 13.960938 14.480469 13.957031 14.410156 13.945312 14.359375 C 13.9375 14.324219 13.914062 14.269531 13.898438 14.238281 C 13.878906 14.207031 13.835938 14.148438 13.796875 14.109375 C 13.757812 14.074219 13.703125 14.03125 13.675781 14.019531 C 13.648438 14.003906 13.59375 13.984375 13.558594 13.972656 C 13.5 13.957031 13.464844 13.953125 13.355469 13.953125 C 13.285156 13.953125 12.78125 13.980469 12.238281 14.015625 Z M 20.90625 14.402344 C 20.90625 14.648438 20.910156 14.71875 20.921875 14.71875 C 20.925781 14.71875 20.972656 14.683594 21.019531 14.640625 L 21.105469 14.5625 L 21.921875 14.644531 L 21.925781 16.320312 C 21.746094 16.484375 21.742188 16.488281 21.765625 16.496094 C 21.78125 16.496094 21.960938 16.519531 22.171875 16.539062 C 22.378906 16.5625 22.5625 16.582031 22.578125 16.585938 C 22.59375 16.585938 22.605469 16.585938 22.605469 16.578125 C 22.605469 16.574219 22.566406 16.523438 22.515625 16.472656 L 22.425781 16.375 C 22.425781 14.742188 22.425781 14.699219 22.441406 14.703125 C 22.453125 14.703125 22.636719 14.722656 22.851562 14.742188 L 23.238281 14.777344 C 23.308594 14.847656 23.355469 14.898438 23.386719 14.929688 L 23.445312 14.996094 C 23.445312 14.496094 23.441406 14.347656 23.4375 14.347656 C 23.433594 14.347656 23.027344 14.308594 22.535156 14.257812 C 22.042969 14.207031 21.496094 14.152344 21.316406 14.132812 C 21.136719 14.113281 20.972656 14.09375 20.949219 14.09375 L 20.910156 14.085938 Z M 9.542969 14.238281 C 9.171875 14.277344 8.835938 14.316406 8.796875 14.328125 C 8.753906 14.335938 8.691406 14.355469 8.65625 14.375 C 8.621094 14.394531 8.566406 14.425781 8.539062 14.445312 C 8.511719 14.464844 8.464844 14.507812 8.433594 14.546875 C 8.40625 14.578125 8.363281 14.640625 8.34375 14.679688 C 8.324219 14.71875 8.296875 14.78125 8.289062 14.816406 C 8.273438 14.875 8.269531 14.929688 8.269531 15.546875 C 8.269531 16.167969 8.269531 16.21875 8.289062 16.273438 C 8.296875 16.304688 8.324219 16.359375 8.34375 16.398438 C 8.367188 16.441406 8.398438 16.484375 8.441406 16.519531 C 8.472656 16.546875 8.527344 16.582031 8.558594 16.597656 C 8.59375 16.613281 8.640625 16.628906 8.664062 16.636719 C 8.691406 16.640625 8.738281 16.644531 8.773438 16.644531 C 8.804688 16.644531 9.148438 16.613281 9.53125 16.574219 C 9.914062 16.53125 10.257812 16.496094 10.289062 16.488281 C 10.320312 16.476562 10.382812 16.453125 10.425781 16.433594 C 10.464844 16.414062 10.519531 16.378906 10.542969 16.359375 C 10.570312 16.335938 10.613281 16.296875 10.640625 16.261719 C 10.671875 16.230469 10.707031 16.175781 10.726562 16.136719 C 10.746094 16.101562 10.773438 16.035156 10.785156 15.992188 C 10.804688 15.917969 10.804688 15.882812 10.804688 15.265625 C 10.804688 14.714844 10.800781 14.605469 10.789062 14.550781 C 10.777344 14.519531 10.757812 14.460938 10.738281 14.425781 C 10.71875 14.390625 10.679688 14.34375 10.644531 14.3125 C 10.613281 14.28125 10.558594 14.242188 10.527344 14.226562 C 10.492188 14.207031 10.433594 14.1875 10.402344 14.179688 C 10.367188 14.171875 10.3125 14.167969 10.277344 14.167969 C 10.246094 14.167969 9.914062 14.199219 9.542969 14.238281 Z M 9.542969 14.238281 "/>
<path style=" stroke:none;fill-rule:nonzero;fill:rgb(69.019608%,71.764706%,73.333333%);fill-opacity:1;" d="M 20.4375 15.230469 L 20.4375 16.128906 L 20.566406 16.253906 L 20.566406 14.535156 L 20.773438 14.351562 C 20.671875 14.34375 20.59375 14.339844 20.539062 14.335938 L 20.433594 14.332031 Z M 20.4375 15.230469 "/>
<path style=" stroke:none;fill-rule:nonzero;fill:rgb(72.156863%,6.666667%,21.568627%);fill-opacity:1;" d="M 15.152344 14.355469 C 15.132812 14.367188 15.105469 14.386719 15.097656 14.410156 C 15.082031 14.441406 15.078125 14.484375 15.082031 15.0625 C 15.085938 15.679688 15.085938 15.6875 15.105469 15.710938 C 15.117188 15.726562 15.136719 15.746094 15.152344 15.75 C 15.167969 15.761719 15.335938 15.765625 15.855469 15.765625 C 16.375 15.765625 16.539062 15.761719 16.558594 15.75 C 16.574219 15.746094 16.59375 15.726562 16.605469 15.707031 L 16.628906 15.671875 C 16.628906 14.449219 16.628906 14.433594 16.609375 14.402344 C 16.597656 14.382812 16.574219 14.363281 16.554688 14.355469 C 16.523438 14.34375 16.425781 14.339844 15.851562 14.339844 C 15.238281 14.339844 15.183594 14.34375 15.152344 14.355469 Z M 12.675781 14.4375 C 12.320312 14.457031 12.003906 14.476562 11.972656 14.476562 L 11.921875 14.476562 L 11.921875 15.199219 C 11.996094 15.191406 12.304688 15.175781 12.65625 15.160156 C 13.007812 15.140625 13.316406 15.125 13.34375 15.121094 C 13.367188 15.117188 13.398438 15.109375 13.410156 15.101562 C 13.421875 15.09375 13.441406 15.070312 13.453125 15.054688 C 13.46875 15.027344 13.472656 15.003906 13.472656 14.757812 C 13.472656 14.507812 13.46875 14.488281 13.453125 14.457031 C 13.441406 14.441406 13.414062 14.421875 13.398438 14.414062 C 13.378906 14.40625 13.355469 14.398438 13.34375 14.398438 C 13.335938 14.402344 13.035156 14.417969 12.675781 14.4375 Z M 12.675781 14.4375 "/>
<path style=" stroke:none;fill-rule:nonzero;fill:rgb(69.019608%,71.764706%,73.333333%);fill-opacity:1;" d="M 17.285156 15.070312 C 17.285156 15.679688 17.28125 15.746094 17.265625 15.808594 C 17.257812 15.847656 17.230469 15.914062 17.203125 15.960938 C 17.179688 16.011719 17.136719 16.074219 17.113281 16.105469 C 17.085938 16.132812 17.039062 16.179688 17.007812 16.207031 C 16.972656 16.230469 16.917969 16.269531 16.882812 16.289062 C 16.84375 16.308594 16.773438 16.335938 16.726562 16.351562 L 16.636719 16.378906 C 15.378906 16.378906 15.121094 16.382812 15.125 16.390625 C 15.125 16.394531 15.164062 16.417969 15.210938 16.441406 C 15.257812 16.464844 15.320312 16.488281 15.34375 16.492188 C 15.378906 16.496094 15.644531 16.5 16.105469 16.5 L 16.8125 16.496094 C 16.914062 16.460938 16.972656 16.4375 17.003906 16.421875 C 17.035156 16.40625 17.089844 16.371094 17.125 16.347656 C 17.15625 16.320312 17.207031 16.273438 17.238281 16.238281 C 17.265625 16.203125 17.308594 16.140625 17.328125 16.097656 C 17.351562 16.054688 17.378906 15.996094 17.386719 15.960938 C 17.402344 15.910156 17.402344 15.835938 17.40625 15.28125 L 17.410156 14.65625 C 17.371094 14.535156 17.34375 14.476562 17.328125 14.449219 C 17.3125 14.421875 17.296875 14.398438 17.292969 14.398438 C 17.289062 14.398438 17.285156 14.699219 17.285156 15.070312 Z M 14.121094 14.65625 C 14.121094 14.792969 14.117188 14.9375 14.109375 14.96875 C 14.105469 15.003906 14.089844 15.0625 14.074219 15.101562 C 14.058594 15.136719 14.027344 15.195312 14.003906 15.230469 L 13.960938 15.289062 C 14.003906 15.34375 14.023438 15.359375 14.027344 15.359375 C 14.035156 15.359375 14.070312 15.332031 14.101562 15.300781 C 14.148438 15.261719 14.175781 15.226562 14.203125 15.164062 L 14.246094 15.082031 C 14.25 14.691406 14.25 14.667969 14.230469 14.605469 C 14.21875 14.570312 14.199219 14.519531 14.183594 14.496094 C 14.167969 14.46875 14.148438 14.441406 14.140625 14.425781 C 14.121094 14.402344 14.121094 14.40625 14.121094 14.65625 Z M 14.121094 14.65625 "/>
<path style=" stroke:none;fill-rule:nonzero;fill:rgb(100%,100%,100%);fill-opacity:1;" d="M 6.5625 14.667969 L 5.300781 14.886719 C 5.304688 15.378906 5.308594 15.523438 5.3125 15.523438 C 5.316406 15.523438 5.359375 15.472656 5.410156 15.417969 L 5.5 15.308594 C 5.679688 15.277344 5.867188 15.246094 6.027344 15.21875 L 6.328125 15.167969 L 6.328125 16.839844 C 6.175781 17.011719 6.148438 17.050781 6.15625 17.050781 C 6.164062 17.054688 6.355469 17.023438 6.582031 16.984375 C 6.804688 16.945312 6.992188 16.910156 7 16.910156 C 7.003906 16.90625 6.964844 16.871094 6.917969 16.828125 L 6.824219 16.753906 L 6.824219 15.082031 C 7.015625 15.046875 7.199219 15.015625 7.359375 14.988281 L 7.644531 14.9375 C 7.792969 15.050781 7.835938 15.085938 7.839844 15.085938 C 7.84375 15.085938 7.84375 14.941406 7.84375 14.765625 C 7.84375 14.515625 7.839844 14.449219 7.832031 14.449219 C 7.824219 14.449219 7.253906 14.546875 6.5625 14.667969 Z M 6.5625 14.667969 "/>
<path style=" stroke:none;fill-rule:nonzero;fill:rgb(69.019608%,71.764706%,73.333333%);fill-opacity:1;" d="M 15.332031 14.492188 C 15.320312 14.496094 15.304688 14.507812 15.292969 14.519531 C 15.277344 14.53125 15.261719 14.550781 15.253906 14.566406 C 15.242188 14.585938 15.238281 14.683594 15.238281 15.101562 L 15.238281 15.609375 L 15.371094 15.609375 C 15.371094 14.730469 15.371094 14.710938 15.390625 14.679688 C 15.402344 14.664062 15.425781 14.644531 15.445312 14.636719 C 15.476562 14.625 15.558594 14.621094 15.972656 14.621094 L 16.46875 14.621094 L 16.46875 14.484375 C 15.597656 14.484375 15.339844 14.488281 15.332031 14.492188 Z M 15.332031 14.492188 "/>
<path style=" stroke:none;fill-rule:nonzero;fill:rgb(100%,100%,100%);fill-opacity:1;" d="M 24.273438 14.496094 C 24.25 14.5 24.203125 14.511719 24.175781 14.523438 C 24.144531 14.535156 24.097656 14.558594 24.070312 14.578125 C 24.039062 14.597656 24 14.636719 23.980469 14.660156 C 23.960938 14.683594 23.929688 14.726562 23.917969 14.75 C 23.90625 14.773438 23.886719 14.820312 23.878906 14.851562 C 23.867188 14.898438 23.867188 15.007812 23.867188 15.5625 C 23.867188 16.105469 23.867188 16.222656 23.878906 16.277344 C 23.886719 16.308594 23.910156 16.367188 23.925781 16.402344 C 23.941406 16.4375 23.976562 16.492188 24 16.523438 C 24.023438 16.554688 24.070312 16.609375 24.105469 16.640625 C 24.140625 16.675781 24.195312 16.714844 24.230469 16.734375 C 24.261719 16.753906 24.316406 16.777344 24.34375 16.789062 C 24.386719 16.808594 24.59375 16.847656 25.121094 16.933594 C 25.5625 17.007812 25.867188 17.050781 25.910156 17.050781 C 25.945312 17.050781 26.003906 17.046875 26.035156 17.039062 C 26.066406 17.03125 26.113281 17.015625 26.140625 17.003906 C 26.167969 16.992188 26.21875 16.953125 26.253906 16.917969 C 26.292969 16.878906 26.332031 16.832031 26.347656 16.800781 C 26.363281 16.773438 26.378906 16.722656 26.390625 16.691406 C 26.402344 16.640625 26.402344 16.535156 26.402344 15.984375 C 26.402344 15.449219 26.398438 15.320312 26.390625 15.265625 C 26.378906 15.230469 26.355469 15.164062 26.335938 15.121094 C 26.3125 15.078125 26.273438 15.015625 26.25 14.980469 C 26.222656 14.949219 26.171875 14.898438 26.136719 14.867188 C 26.097656 14.839844 26.039062 14.800781 26.003906 14.78125 C 25.96875 14.761719 25.902344 14.738281 25.859375 14.726562 C 25.8125 14.71875 25.46875 14.65625 25.089844 14.597656 C 24.714844 14.535156 24.386719 14.484375 24.363281 14.484375 C 24.339844 14.488281 24.300781 14.492188 24.273438 14.496094 Z M 24.273438 14.496094 "/>
<path style=" stroke:none;fill-rule:nonzero;fill:rgb(69.019608%,71.764706%,73.333333%);fill-opacity:1;" d="M 12.675781 14.597656 C 12.375 14.613281 12.117188 14.628906 12.105469 14.628906 L 12.082031 14.628906 L 12.082031 15.039062 C 12.117188 15.03125 12.148438 15.027344 12.167969 15.027344 L 12.210938 15.027344 L 12.210938 14.746094 C 12.324219 14.738281 12.546875 14.726562 12.78125 14.710938 C 13.015625 14.699219 13.230469 14.6875 13.257812 14.683594 L 13.3125 14.679688 L 13.3125 14.5625 C 13.246094 14.566406 12.980469 14.582031 12.675781 14.597656 Z M 10.960938 15.269531 L 10.957031 15.953125 C 10.914062 16.085938 10.886719 16.152344 10.867188 16.1875 C 10.847656 16.222656 10.820312 16.277344 10.796875 16.300781 C 10.777344 16.328125 10.734375 16.378906 10.699219 16.414062 C 10.667969 16.445312 10.609375 16.492188 10.578125 16.511719 C 10.546875 16.535156 10.496094 16.566406 10.464844 16.578125 C 10.433594 16.59375 10.378906 16.613281 10.339844 16.625 C 10.300781 16.636719 10.234375 16.648438 10.195312 16.65625 C 10.152344 16.660156 9.839844 16.695312 9.503906 16.726562 C 9.167969 16.761719 8.871094 16.792969 8.847656 16.796875 C 8.824219 16.796875 8.804688 16.804688 8.804688 16.8125 C 8.804688 16.816406 8.824219 16.832031 8.851562 16.84375 C 8.878906 16.855469 8.925781 16.875 8.960938 16.882812 C 8.992188 16.890625 9.050781 16.898438 9.085938 16.898438 C 9.125 16.898438 9.425781 16.867188 9.757812 16.828125 C 10.089844 16.792969 10.390625 16.753906 10.425781 16.746094 C 10.460938 16.738281 10.519531 16.722656 10.550781 16.710938 C 10.582031 16.699219 10.625 16.675781 10.648438 16.664062 C 10.671875 16.652344 10.714844 16.625 10.742188 16.601562 C 10.773438 16.578125 10.824219 16.535156 10.855469 16.503906 C 10.886719 16.472656 10.929688 16.421875 10.945312 16.394531 C 10.96875 16.367188 11 16.3125 11.015625 16.28125 C 11.03125 16.246094 11.054688 16.1875 11.066406 16.148438 C 11.085938 16.082031 11.085938 16.066406 11.089844 15.484375 C 11.09375 14.972656 11.09375 14.875 11.078125 14.816406 C 11.070312 14.773438 11.046875 14.710938 11.027344 14.671875 C 11.003906 14.632812 10.980469 14.597656 10.976562 14.589844 C 10.964844 14.582031 10.964844 14.722656 10.960938 15.269531 Z M 10.960938 15.269531 "/>
<path style=" stroke:none;fill-rule:nonzero;fill:rgb(72.156863%,6.666667%,21.568627%);fill-opacity:1;" d="M 9.542969 14.695312 C 9.238281 14.726562 8.957031 14.757812 8.921875 14.761719 C 8.867188 14.765625 8.847656 14.769531 8.824219 14.792969 C 8.800781 14.8125 8.785156 14.839844 8.777344 14.867188 C 8.769531 14.898438 8.765625 15.058594 8.765625 15.496094 C 8.765625 15.824219 8.769531 16.09375 8.773438 16.113281 C 8.777344 16.132812 8.796875 16.15625 8.808594 16.164062 C 8.824219 16.171875 8.847656 16.179688 8.867188 16.179688 C 8.886719 16.179688 9.1875 16.148438 9.542969 16.113281 C 9.898438 16.074219 10.203125 16.039062 10.21875 16.035156 C 10.234375 16.027344 10.257812 16.007812 10.273438 15.992188 L 10.304688 15.957031 L 10.304688 14.6875 C 10.246094 14.632812 10.238281 14.628906 10.171875 14.632812 C 10.132812 14.632812 9.847656 14.660156 9.542969 14.695312 Z M 9.542969 14.695312 "/>
<path style=" stroke:none;fill-rule:nonzero;fill:rgb(69.019608%,71.764706%,73.333333%);fill-opacity:1;" d="M 23.605469 14.914062 L 23.605469 15.171875 C 23.695312 15.269531 23.722656 15.296875 23.726562 15.296875 C 23.730469 15.296875 23.734375 15.15625 23.734375 14.980469 L 23.734375 14.664062 C 23.664062 14.652344 23.632812 14.652344 23.621094 14.652344 C 23.605469 14.652344 23.605469 14.667969 23.605469 14.914062 Z M 8.050781 14.691406 L 8 14.699219 L 8.003906 15.226562 C 8.09375 15.296875 8.125 15.316406 8.128906 15.3125 C 8.132812 15.308594 8.136719 15.164062 8.132812 14.992188 C 8.132812 14.699219 8.132812 14.679688 8.117188 14.679688 C 8.105469 14.679688 8.078125 14.6875 8.050781 14.691406 Z M 21.195312 14.875 C 21.195312 14.957031 21.199219 15.027344 21.203125 15.03125 C 21.207031 15.035156 21.253906 15 21.300781 14.957031 L 21.390625 14.875 C 21.648438 14.902344 21.730469 14.910156 21.742188 14.910156 C 21.765625 14.914062 21.765625 14.90625 21.765625 14.847656 C 21.765625 14.792969 21.765625 14.785156 21.742188 14.78125 C 21.730469 14.777344 21.613281 14.765625 21.480469 14.753906 C 21.351562 14.738281 21.230469 14.726562 21.21875 14.726562 C 21.195312 14.726562 21.195312 14.730469 21.195312 14.875 Z M 9.566406 14.847656 C 9.191406 14.886719 9.027344 14.90625 9.003906 14.921875 C 8.988281 14.929688 8.960938 14.949219 8.949219 14.964844 C 8.929688 14.992188 8.929688 15.003906 8.925781 15.511719 L 8.921875 16.03125 C 9 16.019531 9.027344 16.015625 9.03125 16.015625 C 9.042969 16.015625 9.042969 15.917969 9.046875 15.5625 L 9.050781 15.109375 C 9.089844 15.058594 9.117188 15.035156 9.132812 15.027344 C 9.160156 15.015625 9.304688 14.996094 9.625 14.964844 C 9.875 14.941406 10.097656 14.917969 10.117188 14.914062 L 10.152344 14.90625 L 10.152344 14.785156 C 10.105469 14.789062 9.851562 14.816406 9.566406 14.847656 Z M 22.574219 15.601562 L 22.574219 16.320312 L 22.714844 16.457031 L 22.714844 15.007812 C 22.765625 15.015625 22.886719 15.03125 23.019531 15.042969 C 23.152344 15.058594 23.269531 15.066406 23.28125 15.066406 C 23.300781 15.0625 23.300781 15.054688 23.242188 14.996094 L 23.179688 14.933594 C 22.746094 14.894531 22.609375 14.882812 22.597656 14.882812 L 22.574219 14.882812 Z M 22.574219 15.601562 "/>
<path style=" stroke:none;fill-rule:nonzero;fill:rgb(72.156863%,6.666667%,21.568627%);fill-opacity:1;" d="M 24.398438 14.984375 L 24.367188 15.015625 C 24.363281 16.148438 24.367188 16.261719 24.378906 16.285156 C 24.386719 16.300781 24.40625 16.324219 24.429688 16.34375 C 24.449219 16.359375 24.46875 16.375 24.476562 16.375 C 24.480469 16.375 24.773438 16.421875 25.125 16.480469 C 25.480469 16.539062 25.789062 16.585938 25.808594 16.589844 C 25.839844 16.589844 25.855469 16.582031 25.875 16.5625 C 25.890625 16.550781 25.90625 16.523438 25.910156 16.507812 C 25.910156 16.492188 25.914062 16.203125 25.910156 15.871094 C 25.910156 15.28125 25.910156 15.261719 25.890625 15.234375 C 25.878906 15.222656 25.859375 15.199219 25.84375 15.191406 C 25.824219 15.175781 25.671875 15.148438 25.160156 15.0625 C 24.796875 15 24.484375 14.953125 24.464844 14.953125 C 24.441406 14.953125 24.425781 14.960938 24.398438 14.984375 Z M 24.398438 14.984375 "/>
<path style=" stroke:none;fill-rule:nonzero;fill:rgb(69.019608%,71.764706%,73.333333%);fill-opacity:1;" d="M 18.40625 15.53125 L 18.40625 16.019531 L 18.527344 16.136719 L 18.53125 15.1875 C 18.441406 15.070312 18.414062 15.039062 18.414062 15.039062 C 18.410156 15.039062 18.40625 15.257812 18.40625 15.53125 Z M 7.269531 15.15625 L 6.992188 15.207031 L 6.984375 16.660156 C 7.078125 16.730469 7.105469 16.75 7.109375 16.746094 C 7.113281 16.742188 7.113281 16.417969 7.113281 16.023438 C 7.113281 15.628906 7.117188 15.308594 7.121094 15.308594 C 7.125 15.308594 7.253906 15.289062 7.40625 15.261719 C 7.5625 15.234375 7.691406 15.210938 7.699219 15.210938 C 7.703125 15.210938 7.675781 15.1875 7.640625 15.160156 C 7.605469 15.128906 7.570312 15.105469 7.5625 15.105469 C 7.554688 15.109375 7.425781 15.132812 7.269531 15.15625 Z M 24.578125 15.148438 C 24.566406 15.15625 24.546875 15.171875 24.539062 15.183594 C 24.527344 15.203125 24.523438 15.273438 24.523438 15.71875 L 24.523438 16.230469 L 24.648438 16.246094 C 24.660156 15.359375 24.660156 15.339844 24.679688 15.320312 C 24.691406 15.304688 24.707031 15.292969 24.71875 15.289062 C 24.726562 15.28125 24.902344 15.308594 25.234375 15.363281 C 25.507812 15.40625 25.738281 15.445312 25.742188 15.445312 C 25.75 15.445312 25.753906 15.417969 25.753906 15.382812 C 25.753906 15.347656 25.753906 15.320312 25.753906 15.320312 C 25.75 15.320312 25.5 15.277344 25.199219 15.226562 C 24.898438 15.175781 24.636719 15.132812 24.625 15.132812 C 24.609375 15.136719 24.589844 15.140625 24.578125 15.148438 Z M 5.875 15.398438 L 5.59375 15.449219 C 5.597656 15.753906 5.597656 15.757812 5.613281 15.738281 C 5.625 15.726562 5.667969 15.675781 5.710938 15.625 L 5.792969 15.535156 L 6.167969 15.46875 C 6.167969 15.375 6.164062 15.347656 6.164062 15.347656 C 6.160156 15.351562 6.035156 15.371094 5.875 15.398438 Z M 26.574219 15.359375 C 26.574219 15.359375 26.570312 15.660156 26.570312 16.027344 C 26.566406 16.613281 26.566406 16.699219 26.550781 16.75 C 26.539062 16.785156 26.523438 16.832031 26.511719 16.863281 C 26.496094 16.890625 26.46875 16.9375 26.445312 16.964844 C 26.425781 16.996094 26.382812 17.039062 26.351562 17.066406 C 26.324219 17.089844 26.265625 17.128906 26.230469 17.144531 C 26.191406 17.164062 26.128906 17.1875 26.09375 17.195312 C 26.054688 17.203125 25.992188 17.210938 25.929688 17.210938 C 25.847656 17.210938 25.699219 17.1875 25.125 17.089844 C 24.734375 17.023438 24.414062 16.96875 24.410156 16.972656 C 24.40625 16.976562 24.414062 16.992188 24.433594 17.007812 C 24.453125 17.023438 24.496094 17.050781 24.523438 17.066406 C 24.554688 17.085938 24.609375 17.113281 24.644531 17.125 C 24.695312 17.140625 24.894531 17.179688 25.335938 17.253906 C 25.679688 17.308594 25.996094 17.359375 26.042969 17.359375 C 26.109375 17.363281 26.148438 17.359375 26.214844 17.34375 C 26.265625 17.332031 26.324219 17.316406 26.34375 17.304688 C 26.371094 17.292969 26.414062 17.265625 26.445312 17.246094 C 26.476562 17.226562 26.523438 17.183594 26.550781 17.152344 C 26.574219 17.121094 26.613281 17.0625 26.632812 17.019531 C 26.65625 16.976562 26.675781 16.917969 26.683594 16.886719 C 26.695312 16.847656 26.699219 16.707031 26.699219 16.222656 L 26.699219 15.613281 C 26.65625 15.492188 26.628906 15.433594 26.609375 15.40625 C 26.589844 15.375 26.574219 15.355469 26.574219 15.359375 Z M 14.125 15.832031 L 14.121094 15.996094 C 14.207031 16.074219 14.238281 16.101562 14.242188 16.101562 C 14.246094 16.101562 14.25 16.054688 14.25 15.996094 C 14.25 15.921875 14.246094 15.875 14.234375 15.835938 C 14.222656 15.804688 14.203125 15.757812 14.183594 15.734375 C 14.167969 15.710938 14.148438 15.6875 14.140625 15.679688 C 14.128906 15.667969 14.125 15.691406 14.125 15.832031 Z M 12.636719 15.769531 C 12.335938 15.789062 12.085938 15.800781 12.085938 15.800781 C 12.082031 15.800781 12.082031 15.871094 12.082031 15.953125 L 12.082031 16.097656 L 12.210938 16.210938 L 12.210938 15.914062 C 13.042969 15.871094 13.292969 15.859375 13.300781 15.863281 C 13.308594 15.863281 13.3125 15.84375 13.3125 15.796875 L 13.3125 15.734375 C 13.214844 15.738281 12.9375 15.75 12.636719 15.769531 Z M 12.636719 15.769531 "/>
<path style=" stroke:none;fill-rule:nonzero;fill:rgb(72.156863%,6.666667%,21.568627%);fill-opacity:1;" d="M 3.753906 15.792969 C 3.671875 15.808594 3.410156 15.859375 3.171875 15.90625 C 2.9375 15.953125 2.722656 15.992188 2.695312 16 L 2.648438 16.007812 L 2.644531 16.796875 C 2.023438 17.4375 1.59375 17.882812 1.285156 18.199219 C 0.976562 18.519531 0.726562 18.78125 0.726562 18.785156 C 0.726562 18.792969 0.777344 18.832031 0.839844 18.875 C 0.902344 18.917969 1.011719 18.996094 1.085938 19.042969 C 1.15625 19.09375 1.425781 19.277344 1.683594 19.457031 C 1.941406 19.632812 2.238281 19.835938 2.339844 19.90625 C 2.441406 19.976562 2.550781 20.054688 2.585938 20.078125 L 2.648438 20.121094 C 2.648438 20.902344 2.652344 20.996094 2.660156 20.996094 C 2.667969 20.996094 2.734375 20.984375 2.8125 20.972656 C 2.890625 20.960938 3.125 20.921875 3.335938 20.886719 C 3.546875 20.851562 3.824219 20.808594 3.945312 20.789062 C 4.066406 20.769531 4.265625 20.738281 4.382812 20.71875 C 4.503906 20.703125 4.753906 20.664062 4.941406 20.636719 C 5.128906 20.613281 5.355469 20.578125 5.441406 20.566406 C 5.53125 20.554688 5.691406 20.53125 5.796875 20.515625 C 5.914062 20.5 5.992188 20.484375 5.992188 20.476562 C 5.988281 20.472656 5.660156 20.34375 5.265625 20.191406 C 4.867188 20.039062 4.273438 19.808594 3.945312 19.679688 C 3.613281 19.554688 3.34375 19.445312 3.339844 19.441406 C 3.339844 19.4375 3.503906 18.714844 3.707031 17.84375 L 4.074219 16.253906 C 3.949219 15.792969 3.941406 15.765625 3.921875 15.765625 C 3.910156 15.765625 3.835938 15.78125 3.753906 15.792969 Z M 28 16.007812 L 27.929688 16.253906 C 28.335938 18.027344 28.5 18.742188 28.558594 18.992188 C 28.613281 19.238281 28.660156 19.441406 28.660156 19.445312 C 28.65625 19.445312 28.0625 19.675781 27.332031 19.957031 C 26.605469 20.242188 26.007812 20.476562 26.007812 20.480469 C 26.003906 20.484375 26.304688 20.53125 26.675781 20.582031 C 27.042969 20.636719 27.609375 20.71875 27.933594 20.769531 C 28.253906 20.820312 28.699219 20.890625 28.925781 20.929688 C 29.148438 20.964844 29.335938 20.996094 29.34375 20.996094 C 29.347656 20.996094 29.351562 20.84375 29.351562 20.558594 L 29.351562 20.121094 C 30.65625 19.222656 31.09375 18.925781 31.164062 18.878906 L 31.289062 18.792969 L 29.351562 16.789062 L 29.351562 16.007812 C 29.261719 15.992188 29.199219 15.976562 29.152344 15.96875 C 29.105469 15.957031 28.847656 15.90625 28.578125 15.855469 C 28.308594 15.804688 28.082031 15.765625 28.078125 15.765625 C 28.070312 15.765625 28.035156 15.875 28 16.007812 Z M 28 16.007812 "/>
<path style=" stroke:none;fill-rule:nonzero;fill:rgb(69.019608%,71.764706%,73.333333%);fill-opacity:1;" d="M 13.980469 16.40625 L 13.695312 16.414062 C 13.59375 16.515625 13.566406 16.546875 13.566406 16.546875 C 13.566406 16.546875 13.746094 16.542969 13.964844 16.535156 C 14.1875 16.527344 14.386719 16.519531 14.40625 16.515625 L 14.453125 16.511719 C 14.335938 16.40625 14.316406 16.394531 14.292969 16.394531 C 14.277344 16.398438 14.136719 16.402344 13.980469 16.40625 Z M 17.902344 16.480469 L 17.84375 16.539062 C 17.921875 16.539062 18.117188 16.546875 18.332031 16.554688 C 18.546875 16.5625 18.726562 16.566406 18.726562 16.566406 C 18.726562 16.5625 18.699219 16.535156 18.660156 16.5 L 18.59375 16.433594 L 17.964844 16.421875 Z M 11.945312 16.519531 L 11.65625 16.539062 L 11.519531 16.675781 C 11.609375 16.667969 11.804688 16.652344 12.007812 16.640625 C 12.210938 16.625 12.382812 16.613281 12.390625 16.609375 C 12.402344 16.609375 12.390625 16.589844 12.34375 16.546875 C 12.304688 16.511719 12.269531 16.492188 12.257812 16.492188 C 12.246094 16.492188 12.105469 16.503906 11.945312 16.519531 Z M 19.835938 16.496094 C 19.835938 16.5 19.859375 16.53125 19.886719 16.5625 C 19.910156 16.597656 19.933594 16.628906 19.933594 16.628906 C 19.933594 16.628906 20.101562 16.636719 20.308594 16.652344 C 20.511719 16.664062 20.703125 16.675781 20.726562 16.675781 L 20.773438 16.675781 L 20.640625 16.550781 C 20.015625 16.507812 19.832031 16.496094 19.835938 16.496094 Z M 22.089844 16.746094 C 22.054688 16.773438 22.03125 16.796875 22.035156 16.804688 C 22.039062 16.804688 22.234375 16.828125 22.46875 16.851562 C 22.707031 16.878906 22.902344 16.894531 22.902344 16.894531 C 22.902344 16.894531 22.875 16.863281 22.84375 16.828125 L 22.78125 16.761719 C 22.308594 16.710938 22.167969 16.695312 22.160156 16.695312 C 22.152344 16.695312 22.121094 16.71875 22.089844 16.746094 Z M 6.933594 17.078125 C 6.800781 17.101562 6.65625 17.125 6.617188 17.128906 L 6.546875 17.140625 C 6.453125 17.25 6.433594 17.28125 6.4375 17.285156 C 6.445312 17.285156 6.644531 17.253906 6.878906 17.210938 L 7.308594 17.136719 C 7.265625 17.101562 7.234375 17.078125 7.214844 17.0625 L 7.175781 17.039062 Z M 6.933594 17.078125 "/>
<path style=" stroke:none;fill-rule:nonzero;fill:rgb(27.058824%,33.333333%,37.647059%);fill-opacity:1;" d="M 14.742188 17.953125 C 14.59375 17.957031 14.476562 17.960938 14.472656 17.960938 C 14.472656 17.964844 14.46875 19.582031 14.46875 21.554688 L 14.464844 25.148438 C 13.703125 25.753906 13.476562 25.941406 13.46875 25.949219 C 13.453125 25.960938 13.46875 25.96875 13.597656 26.035156 C 13.679688 26.074219 13.851562 26.152344 13.980469 26.210938 C 14.109375 26.269531 14.304688 26.355469 14.410156 26.402344 C 14.519531 26.445312 14.6875 26.515625 14.785156 26.554688 C 14.886719 26.597656 15.054688 26.660156 15.164062 26.703125 C 15.273438 26.746094 15.457031 26.8125 15.570312 26.851562 C 15.683594 26.890625 15.824219 26.941406 15.886719 26.960938 L 15.996094 27 C 16.273438 26.90625 16.441406 26.847656 16.542969 26.8125 C 16.648438 26.773438 16.808594 26.714844 16.898438 26.679688 C 16.992188 26.648438 17.144531 26.585938 17.246094 26.546875 C 17.34375 26.507812 17.5 26.441406 17.59375 26.402344 C 17.6875 26.359375 17.867188 26.28125 17.988281 26.226562 C 18.113281 26.167969 18.289062 26.085938 18.378906 26.042969 C 18.488281 25.992188 18.546875 25.957031 18.539062 25.953125 C 18.535156 25.949219 18.304688 25.761719 18.03125 25.539062 L 17.53125 25.136719 C 17.53125 18.144531 17.527344 17.964844 17.511719 17.957031 C 17.503906 17.957031 16.933594 17.949219 16.25 17.949219 C 15.566406 17.949219 14.886719 17.949219 14.742188 17.953125 Z M 14.742188 17.953125 "/>
<path style=" stroke:none;fill-rule:nonzero;fill:rgb(69.019608%,71.764706%,73.333333%);fill-opacity:1;" d="M 10.503906 18.191406 C 10.3125 18.210938 10.007812 18.242188 9.820312 18.261719 C 9.632812 18.28125 9.246094 18.324219 8.964844 18.355469 C 8.679688 18.390625 8.433594 18.421875 8.417969 18.421875 L 8.382812 18.429688 C 8.382812 19.355469 8.386719 19.359375 8.410156 19.476562 C 8.425781 19.542969 8.460938 19.664062 8.488281 19.742188 C 8.511719 19.824219 8.566406 19.953125 8.605469 20.035156 C 8.644531 20.113281 8.707031 20.230469 8.742188 20.289062 C 8.777344 20.351562 8.835938 20.445312 8.871094 20.496094 C 8.90625 20.550781 8.964844 20.632812 8.996094 20.675781 C 9.03125 20.722656 9.105469 20.816406 9.164062 20.890625 C 9.222656 20.960938 9.320312 21.074219 9.378906 21.140625 C 9.4375 21.207031 9.542969 21.320312 9.613281 21.390625 C 9.683594 21.464844 9.832031 21.605469 9.945312 21.707031 C 10.054688 21.8125 10.214844 21.953125 10.300781 22.019531 C 10.378906 22.089844 10.492188 22.179688 10.546875 22.222656 C 10.601562 22.265625 10.699219 22.339844 10.761719 22.386719 C 10.824219 22.433594 10.878906 22.46875 10.882812 22.464844 C 10.890625 22.460938 10.894531 21.734375 10.894531 20.308594 L 10.894531 18.160156 C 10.859375 18.160156 10.691406 18.175781 10.503906 18.191406 Z M 21.117188 20.316406 L 21.117188 22.480469 C 21.273438 22.363281 21.367188 22.292969 21.421875 22.253906 C 21.476562 22.210938 21.597656 22.113281 21.691406 22.03125 C 21.785156 21.953125 21.9375 21.820312 22.03125 21.734375 C 22.125 21.652344 22.265625 21.515625 22.339844 21.441406 C 22.417969 21.363281 22.539062 21.238281 22.605469 21.160156 C 22.675781 21.085938 22.78125 20.960938 22.839844 20.882812 C 22.902344 20.808594 22.992188 20.695312 23.035156 20.628906 C 23.085938 20.5625 23.160156 20.449219 23.203125 20.378906 C 23.242188 20.3125 23.3125 20.183594 23.355469 20.101562 C 23.398438 20.015625 23.457031 19.890625 23.480469 19.824219 C 23.507812 19.757812 23.539062 19.664062 23.550781 19.617188 C 23.5625 19.566406 23.585938 19.484375 23.59375 19.425781 C 23.613281 19.332031 23.617188 19.289062 23.617188 18.875 L 23.617188 18.429688 C 23.558594 18.421875 23.417969 18.40625 23.269531 18.386719 C 23.121094 18.367188 22.871094 18.335938 22.710938 18.316406 C 22.550781 18.300781 22.269531 18.269531 22.085938 18.25 C 21.902344 18.230469 21.628906 18.207031 21.480469 18.191406 C 21.332031 18.179688 21.191406 18.164062 21.164062 18.160156 L 21.117188 18.15625 Z M 21.117188 20.316406 "/>
<path style=" stroke:none;fill-rule:nonzero;fill:rgb(72.156863%,6.666667%,21.568627%);fill-opacity:1;" d="M 7.394531 18.582031 C 7.15625 18.617188 6.929688 18.65625 6.890625 18.664062 L 6.824219 18.671875 C 6.824219 20.070312 6.832031 20.570312 6.835938 20.679688 C 6.839844 20.792969 6.851562 20.953125 6.859375 21.035156 C 6.871094 21.117188 6.890625 21.261719 6.90625 21.351562 C 6.921875 21.441406 6.957031 21.597656 6.980469 21.695312 C 7.007812 21.792969 7.050781 21.941406 7.078125 22.023438 C 7.105469 22.105469 7.144531 22.21875 7.167969 22.277344 C 7.1875 22.332031 7.230469 22.433594 7.261719 22.503906 C 7.292969 22.570312 7.363281 22.714844 7.417969 22.824219 C 7.472656 22.929688 7.5625 23.085938 7.617188 23.171875 C 7.667969 23.257812 7.734375 23.359375 7.761719 23.398438 C 7.789062 23.4375 7.84375 23.523438 7.890625 23.582031 C 7.933594 23.644531 8.007812 23.746094 8.058594 23.8125 C 8.109375 23.875 8.203125 23.992188 8.269531 24.070312 C 8.335938 24.144531 8.453125 24.277344 8.53125 24.359375 C 8.609375 24.441406 8.757812 24.589844 8.859375 24.6875 C 8.964844 24.785156 9.117188 24.925781 9.199219 25 C 9.28125 25.070312 9.398438 25.167969 9.453125 25.214844 C 9.511719 25.265625 9.644531 25.371094 9.753906 25.453125 C 9.859375 25.535156 10.042969 25.671875 10.152344 25.75 C 10.265625 25.832031 10.445312 25.953125 10.554688 26.027344 C 10.660156 26.09375 10.855469 26.21875 10.988281 26.300781 C 11.121094 26.382812 11.289062 26.484375 11.363281 26.527344 C 11.4375 26.570312 11.574219 26.648438 11.671875 26.703125 C 11.769531 26.753906 11.957031 26.855469 12.09375 26.925781 C 12.226562 26.996094 12.507812 27.136719 12.71875 27.238281 C 12.925781 27.335938 13.203125 27.464844 13.332031 27.523438 C 13.460938 27.578125 13.675781 27.671875 13.8125 27.726562 C 13.945312 27.785156 14.167969 27.875 14.300781 27.925781 C 14.433594 27.980469 14.628906 28.054688 14.730469 28.089844 C 14.832031 28.128906 14.984375 28.183594 15.070312 28.210938 C 15.15625 28.242188 15.398438 28.324219 15.609375 28.390625 L 15.996094 28.511719 C 16.105469 28.484375 16.28125 28.425781 16.460938 28.367188 C 16.636719 28.308594 16.890625 28.222656 17.019531 28.179688 C 17.148438 28.132812 17.359375 28.058594 17.488281 28.007812 C 17.617188 27.957031 17.804688 27.882812 17.910156 27.84375 C 18.011719 27.800781 18.175781 27.734375 18.277344 27.691406 C 18.378906 27.648438 18.570312 27.5625 18.703125 27.503906 C 18.835938 27.449219 19.109375 27.320312 19.3125 27.222656 C 19.515625 27.125 19.785156 26.992188 19.90625 26.925781 C 20.03125 26.863281 20.226562 26.753906 20.34375 26.691406 C 20.457031 26.628906 20.601562 26.546875 20.664062 26.511719 C 20.722656 26.476562 20.878906 26.382812 21.011719 26.300781 C 21.144531 26.21875 21.339844 26.09375 21.445312 26.027344 C 21.554688 25.953125 21.734375 25.832031 21.847656 25.75 C 21.957031 25.671875 22.140625 25.535156 22.246094 25.453125 C 22.355469 25.371094 22.496094 25.257812 22.566406 25.199219 C 22.636719 25.144531 22.742188 25.050781 22.8125 24.992188 C 22.875 24.933594 23.019531 24.800781 23.128906 24.699219 C 23.238281 24.59375 23.386719 24.445312 23.460938 24.367188 C 23.53125 24.292969 23.65625 24.15625 23.730469 24.070312 C 23.804688 23.980469 23.914062 23.847656 23.972656 23.773438 C 24.03125 23.699219 24.136719 23.550781 24.210938 23.445312 C 24.28125 23.335938 24.371094 23.199219 24.410156 23.136719 C 24.449219 23.074219 24.527344 22.929688 24.589844 22.8125 C 24.648438 22.695312 24.730469 22.527344 24.769531 22.441406 C 24.804688 22.351562 24.867188 22.191406 24.902344 22.082031 C 24.941406 21.972656 24.992188 21.804688 25.019531 21.707031 C 25.042969 21.613281 25.074219 21.472656 25.089844 21.398438 C 25.101562 21.324219 25.125 21.195312 25.132812 21.113281 C 25.144531 21.03125 25.160156 20.871094 25.164062 20.757812 C 25.167969 20.648438 25.175781 20.132812 25.175781 19.613281 C 25.175781 19.09375 25.171875 18.671875 25.167969 18.671875 C 25.167969 18.671875 24.949219 18.636719 24.683594 18.59375 C 24.421875 18.550781 24.199219 18.515625 24.191406 18.515625 C 24.175781 18.515625 24.175781 18.632812 24.175781 19.496094 C 24.175781 20.035156 24.167969 20.566406 24.164062 20.675781 C 24.160156 20.785156 24.148438 20.929688 24.140625 20.996094 C 24.132812 21.0625 24.109375 21.195312 24.089844 21.289062 C 24.070312 21.382812 24.039062 21.503906 24.027344 21.558594 C 24.007812 21.613281 23.976562 21.714844 23.957031 21.78125 C 23.933594 21.847656 23.894531 21.953125 23.867188 22.011719 C 23.84375 22.074219 23.789062 22.195312 23.75 22.28125 C 23.707031 22.367188 23.644531 22.488281 23.609375 22.550781 C 23.570312 22.617188 23.507812 22.722656 23.464844 22.789062 C 23.421875 22.855469 23.355469 22.957031 23.3125 23.015625 C 23.273438 23.070312 23.1875 23.1875 23.117188 23.269531 C 23.054688 23.355469 22.9375 23.492188 22.867188 23.574219 C 22.792969 23.65625 22.617188 23.835938 22.472656 23.976562 C 22.328125 24.117188 22.152344 24.28125 22.082031 24.339844 C 22.007812 24.402344 21.886719 24.5 21.8125 24.5625 C 21.734375 24.625 21.59375 24.734375 21.496094 24.804688 C 21.398438 24.878906 21.25 24.984375 21.167969 25.042969 C 21.082031 25.101562 20.917969 25.210938 20.800781 25.285156 C 20.6875 25.359375 20.519531 25.464844 20.433594 25.519531 C 20.34375 25.570312 20.183594 25.664062 20.078125 25.726562 C 19.96875 25.789062 19.804688 25.878906 19.710938 25.929688 C 19.621094 25.980469 19.46875 26.058594 19.382812 26.105469 C 19.292969 26.152344 19.117188 26.238281 18.988281 26.300781 C 18.859375 26.363281 18.671875 26.453125 18.574219 26.496094 C 18.476562 26.542969 18.320312 26.613281 18.230469 26.652344 C 18.136719 26.691406 17.96875 26.765625 17.855469 26.8125 C 17.738281 26.859375 17.5625 26.933594 17.464844 26.972656 C 17.363281 27.011719 17.164062 27.085938 17.019531 27.140625 C 16.875 27.195312 16.707031 27.257812 16.644531 27.277344 C 16.585938 27.296875 16.414062 27.355469 16.265625 27.40625 L 15.996094 27.496094 C 15.683594 27.390625 15.511719 27.332031 15.40625 27.296875 C 15.300781 27.257812 15.097656 27.1875 14.957031 27.132812 C 14.8125 27.078125 14.585938 26.992188 14.457031 26.9375 C 14.324219 26.882812 14.125 26.800781 14.011719 26.753906 C 13.898438 26.707031 13.726562 26.632812 13.628906 26.585938 C 13.527344 26.542969 13.3125 26.445312 13.148438 26.363281 C 12.980469 26.289062 12.75 26.171875 12.628906 26.109375 C 12.503906 26.046875 12.335938 25.953125 12.246094 25.90625 C 12.160156 25.859375 12.011719 25.777344 11.917969 25.722656 C 11.824219 25.667969 11.65625 25.570312 11.546875 25.503906 C 11.4375 25.4375 11.28125 25.339844 11.199219 25.285156 C 11.113281 25.234375 10.964844 25.128906 10.859375 25.058594 C 10.753906 24.984375 10.601562 24.875 10.519531 24.8125 C 10.433594 24.753906 10.320312 24.664062 10.257812 24.617188 C 10.199219 24.570312 10.105469 24.492188 10.046875 24.445312 C 9.992188 24.402344 9.871094 24.292969 9.773438 24.207031 C 9.679688 24.121094 9.546875 24 9.488281 23.941406 C 9.425781 23.878906 9.328125 23.777344 9.261719 23.710938 C 9.199219 23.644531 9.109375 23.542969 9.0625 23.488281 C 9.015625 23.429688 8.9375 23.335938 8.890625 23.277344 C 8.839844 23.21875 8.75 23.097656 8.6875 23.007812 C 8.621094 22.917969 8.527344 22.773438 8.476562 22.6875 C 8.425781 22.601562 8.339844 22.449219 8.289062 22.347656 C 8.238281 22.246094 8.175781 22.109375 8.148438 22.042969 C 8.117188 21.976562 8.078125 21.863281 8.050781 21.792969 C 8.027344 21.71875 7.992188 21.613281 7.976562 21.554688 C 7.960938 21.496094 7.9375 21.394531 7.921875 21.328125 C 7.90625 21.261719 7.886719 21.140625 7.875 21.066406 C 7.863281 20.988281 7.851562 20.910156 7.847656 20.894531 C 7.84375 20.878906 7.839844 20.335938 7.835938 19.6875 L 7.828125 18.511719 Z M 7.394531 18.582031 "/>
<path style=" stroke:none;fill-rule:nonzero;fill:rgb(27.058824%,33.333333%,37.647059%);fill-opacity:1;" d="M 5.964844 18.828125 C 5.753906 18.867188 5.472656 18.925781 5.34375 18.953125 C 5.210938 18.980469 4.980469 19.03125 4.832031 19.0625 C 4.683594 19.097656 4.457031 19.148438 4.328125 19.179688 C 4.203125 19.207031 4.097656 19.234375 4.097656 19.242188 C 4.097656 19.242188 4.605469 19.441406 5.222656 19.679688 C 5.84375 19.921875 6.351562 20.113281 6.355469 20.113281 C 6.355469 20.109375 6.355469 19.804688 6.355469 19.429688 L 6.351562 18.753906 Z M 25.640625 19.433594 C 25.644531 19.808594 25.648438 20.117188 25.652344 20.117188 C 25.65625 20.117188 26.160156 19.921875 26.777344 19.683594 C 27.390625 19.445312 27.894531 19.25 27.894531 19.242188 C 27.894531 19.238281 27.882812 19.230469 27.871094 19.226562 C 27.859375 19.226562 27.746094 19.199219 27.621094 19.167969 C 27.5 19.140625 27.304688 19.09375 27.1875 19.066406 C 27.070312 19.039062 26.867188 18.996094 26.726562 18.964844 C 26.589844 18.9375 26.335938 18.886719 26.160156 18.851562 C 25.980469 18.816406 25.792969 18.78125 25.738281 18.769531 L 25.640625 18.75 Z M 25.640625 19.433594 "/>
<path style=" stroke:none;fill-rule:nonzero;fill:rgb(72.156863%,6.666667%,21.568627%);fill-opacity:1;" d="M 11.753906 19.234375 C 11.753906 19.238281 11.777344 19.265625 11.8125 19.292969 L 11.871094 19.339844 L 11.871094 20.449219 C 11.785156 20.515625 11.753906 20.542969 11.75 20.550781 C 11.738281 20.558594 11.796875 20.5625 12.058594 20.558594 L 12.378906 20.558594 L 12.253906 20.449219 L 12.253906 20.046875 L 13.300781 20.046875 L 13.300781 19.738281 L 12.253906 19.738281 L 12.253906 19.535156 L 13.472656 19.535156 C 13.582031 19.59375 13.613281 19.613281 13.617188 19.613281 C 13.621094 19.613281 13.621094 19.523438 13.621094 19.417969 L 13.621094 19.222656 C 12.070312 19.222656 11.753906 19.226562 11.753906 19.234375 Z M 18.828125 19.238281 C 18.792969 19.246094 18.746094 19.257812 18.722656 19.265625 C 18.699219 19.273438 18.664062 19.289062 18.636719 19.304688 C 18.613281 19.316406 18.566406 19.351562 18.539062 19.378906 C 18.507812 19.410156 18.472656 19.453125 18.457031 19.480469 C 18.441406 19.507812 18.425781 19.558594 18.417969 19.589844 C 18.414062 19.625 18.40625 19.765625 18.40625 19.902344 C 18.410156 20.058594 18.414062 20.167969 18.421875 20.207031 C 18.425781 20.238281 18.449219 20.289062 18.46875 20.320312 C 18.488281 20.351562 18.527344 20.398438 18.554688 20.421875 C 18.582031 20.445312 18.636719 20.480469 18.671875 20.5 C 18.710938 20.515625 18.773438 20.539062 18.8125 20.546875 C 18.871094 20.558594 18.996094 20.558594 19.554688 20.558594 L 20.226562 20.558594 L 20.226562 20.25 C 19.199219 20.25 18.917969 20.246094 18.898438 20.242188 C 18.878906 20.238281 18.847656 20.21875 18.832031 20.203125 L 18.804688 20.171875 C 18.796875 19.671875 18.800781 19.640625 18.816406 19.613281 C 18.824219 19.589844 18.847656 19.570312 18.875 19.558594 C 18.910156 19.539062 18.9375 19.539062 19.496094 19.535156 L 20.082031 19.535156 C 20.179688 19.59375 20.210938 19.613281 20.21875 19.613281 C 20.222656 19.613281 20.226562 19.539062 20.226562 19.417969 L 20.226562 19.222656 C 19.046875 19.226562 18.878906 19.226562 18.828125 19.238281 Z M 18.828125 19.238281 "/>
<path style=" stroke:none;fill-rule:nonzero;fill:rgb(27.058824%,33.333333%,37.647059%);fill-opacity:1;" d="M 23.511719 20.929688 C 23.472656 20.992188 23.390625 21.101562 23.328125 21.179688 C 23.269531 21.257812 23.175781 21.378906 23.117188 21.449219 C 23.058594 21.515625 22.972656 21.613281 22.929688 21.660156 C 22.886719 21.707031 22.777344 21.828125 22.679688 21.925781 C 22.585938 22.023438 22.429688 22.179688 22.332031 22.269531 C 22.230469 22.359375 22.082031 22.492188 22 22.5625 C 21.917969 22.632812 21.773438 22.75 21.679688 22.824219 C 21.589844 22.898438 21.421875 23.023438 21.3125 23.101562 L 21.117188 23.246094 C 21.113281 24.339844 21.117188 24.449219 21.128906 24.441406 C 21.136719 24.433594 21.199219 24.386719 21.273438 24.328125 C 21.34375 24.273438 21.449219 24.1875 21.507812 24.140625 C 21.566406 24.09375 21.675781 24 21.753906 23.933594 C 21.828125 23.863281 21.980469 23.722656 22.085938 23.617188 C 22.195312 23.511719 22.316406 23.386719 22.355469 23.339844 C 22.398438 23.296875 22.472656 23.210938 22.523438 23.152344 C 22.574219 23.09375 22.660156 22.984375 22.71875 22.910156 C 22.773438 22.835938 22.855469 22.722656 22.898438 22.664062 C 22.9375 22.601562 23.003906 22.496094 23.042969 22.429688 C 23.085938 22.363281 23.15625 22.238281 23.199219 22.148438 C 23.246094 22.0625 23.308594 21.929688 23.335938 21.855469 C 23.367188 21.78125 23.414062 21.660156 23.433594 21.59375 C 23.457031 21.523438 23.488281 21.417969 23.507812 21.355469 C 23.523438 21.292969 23.546875 21.179688 23.5625 21.101562 C 23.574219 21.027344 23.589844 20.929688 23.59375 20.890625 C 23.59375 20.855469 23.59375 20.824219 23.59375 20.824219 C 23.589844 20.824219 23.554688 20.871094 23.511719 20.929688 Z M 8.410156 20.882812 C 8.414062 20.910156 8.425781 21 8.441406 21.082031 C 8.453125 21.167969 8.484375 21.296875 8.503906 21.378906 C 8.527344 21.460938 8.558594 21.574219 8.582031 21.628906 C 8.601562 21.691406 8.640625 21.796875 8.671875 21.863281 C 8.699219 21.933594 8.765625 22.074219 8.820312 22.179688 C 8.875 22.28125 8.945312 22.410156 8.976562 22.464844 C 9.011719 22.519531 9.074219 22.613281 9.117188 22.675781 C 9.160156 22.742188 9.25 22.863281 9.316406 22.945312 C 9.378906 23.027344 9.472656 23.144531 9.523438 23.203125 C 9.574219 23.257812 9.6875 23.382812 9.777344 23.476562 C 9.867188 23.570312 10.007812 23.707031 10.089844 23.78125 C 10.171875 23.859375 10.28125 23.957031 10.332031 24 C 10.386719 24.046875 10.484375 24.128906 10.554688 24.1875 C 10.621094 24.242188 10.722656 24.320312 10.773438 24.363281 C 10.824219 24.402344 10.875 24.4375 10.878906 24.4375 C 10.890625 24.4375 10.894531 24.308594 10.894531 23.839844 L 10.894531 23.246094 C 10.6875 23.097656 10.566406 23.011719 10.492188 22.953125 C 10.417969 22.898438 10.292969 22.800781 10.214844 22.734375 C 10.132812 22.671875 10.007812 22.566406 9.933594 22.503906 C 9.859375 22.441406 9.75 22.339844 9.691406 22.285156 C 9.628906 22.230469 9.496094 22.097656 9.390625 21.996094 C 9.285156 21.890625 9.121094 21.714844 9.027344 21.605469 C 8.929688 21.496094 8.789062 21.332031 8.71875 21.238281 C 8.644531 21.144531 8.550781 21.015625 8.503906 20.953125 C 8.460938 20.882812 8.421875 20.832031 8.414062 20.832031 C 8.40625 20.832031 8.40625 20.851562 8.410156 20.882812 Z M 8.410156 20.882812 "/>
<path style=" stroke:none;fill-rule:nonzero;fill:rgb(69.019608%,71.764706%,73.333333%);fill-opacity:1;" d="M 11.324219 24.152344 L 11.324219 24.761719 C 11.691406 24.996094 11.882812 25.117188 11.988281 25.179688 C 12.089844 25.242188 12.28125 25.355469 12.414062 25.425781 C 12.539062 25.5 12.726562 25.601562 12.828125 25.65625 C 12.972656 25.734375 13.007812 25.75 13.023438 25.738281 C 13.03125 25.734375 13.257812 25.550781 13.523438 25.335938 C 13.792969 25.117188 14.011719 24.9375 14.011719 24.933594 C 14.011719 24.929688 13.945312 24.898438 13.863281 24.863281 C 13.78125 24.828125 13.601562 24.75 13.457031 24.6875 C 13.3125 24.621094 13.054688 24.5 12.875 24.414062 C 12.699219 24.324219 12.472656 24.210938 12.371094 24.15625 C 12.269531 24.101562 12.132812 24.023438 12.066406 23.988281 C 12 23.949219 11.875 23.875 11.78125 23.824219 C 11.691406 23.769531 11.566406 23.695312 11.507812 23.65625 C 11.449219 23.617188 11.382812 23.578125 11.363281 23.566406 L 11.328125 23.542969 Z M 20.488281 23.65625 C 20.390625 23.71875 20.203125 23.832031 20.070312 23.90625 C 19.941406 23.984375 19.734375 24.097656 19.613281 24.164062 C 19.492188 24.230469 19.25 24.351562 19.078125 24.4375 C 18.90625 24.519531 18.667969 24.632812 18.546875 24.6875 C 18.429688 24.738281 18.257812 24.8125 18.160156 24.851562 C 18.066406 24.894531 17.988281 24.929688 17.988281 24.933594 C 17.988281 24.9375 18.214844 25.121094 18.488281 25.34375 C 18.765625 25.566406 18.992188 25.746094 19 25.746094 C 19.003906 25.746094 19.097656 25.695312 19.210938 25.636719 C 19.320312 25.578125 19.503906 25.476562 19.617188 25.410156 C 19.730469 25.347656 19.910156 25.242188 20.023438 25.175781 C 20.132812 25.109375 20.324219 24.988281 20.449219 24.90625 L 20.675781 24.761719 C 20.679688 23.804688 20.675781 23.554688 20.671875 23.550781 C 20.664062 23.550781 20.582031 23.597656 20.488281 23.65625 Z M 20.488281 23.65625 "/>
</g>
</svg>
