<?xml version="1.0" encoding="UTF-8"?>
<svg xmlns="http://www.w3.org/2000/svg" xmlns:xlink="http://www.w3.org/1999/xlink" width="32px" height="32px" viewBox="0 0 32 32" version="1.1">
<g id="surface1">
<path style=" stroke:none;fill-rule:nonzero;fill:rgb(0%,23.921569%,65.098039%);fill-opacity:1;" d="M 16 32 C 24.835938 32 32 24.835938 32 16 C 32 7.164062 24.835938 0 16 0 C 7.164062 0 0 7.164062 0 16 C 0 24.835938 7.164062 32 16 32 Z M 16 32 "/>
<path style=" stroke:none;fill-rule:nonzero;fill:rgb(0%,0%,0%);fill-opacity:1;" d="M 16 24.238281 C 20.550781 24.238281 24.238281 20.550781 24.238281 16 C 24.238281 11.449219 20.550781 7.761719 16 7.761719 C 11.449219 7.761719 7.761719 11.449219 7.761719 16 C 7.761719 20.550781 11.449219 24.238281 16 24.238281 Z M 16 24.238281 "/>
<path style=" stroke:none;fill-rule:nonzero;fill:rgb(0%,0%,0%);fill-opacity:1;" d="M 31.035156 16 C 31.035156 7.695312 24.304688 0.964844 16 0.964844 C 7.695312 0.964844 0.964844 7.695312 0.964844 16 C 0.964844 17.472656 1.175781 18.898438 1.570312 20.242188 L 1.113281 20.402344 C 3.011719 26.828125 8.957031 31.519531 16 31.519531 C 23.042969 31.519531 28.988281 26.828125 30.886719 20.402344 L 30.429688 20.242188 C 30.824219 18.894531 31.035156 17.472656 31.035156 16 Z M 1.644531 16 C 1.644531 8.070312 8.070312 1.644531 16 1.644531 C 23.929688 1.644531 30.355469 8.070312 30.355469 16 C 30.355469 17.394531 30.15625 18.746094 29.785156 20.023438 L 16 15.269531 L 2.214844 20.019531 C 1.84375 18.746094 1.644531 17.394531 1.644531 16 Z M 1.644531 16 "/>
<path style=" stroke:none;fill-rule:nonzero;fill:rgb(75.686275%,77.254902%,78.431373%);fill-opacity:1;" d="M 16 0 C 7.164062 0 0 7.164062 0 16 C 0 24.835938 7.164062 32 16 32 C 24.835938 32 32 24.835938 32 16 C 32 7.164062 24.835938 0 16 0 Z M 16 31.035156 C 7.695312 31.035156 0.964844 24.304688 0.964844 16 C 0.964844 7.695312 7.695312 0.964844 16 0.964844 C 24.304688 0.964844 31.035156 7.695312 31.035156 16 C 31.035156 24.304688 24.304688 31.035156 16 31.035156 Z M 16 31.035156 "/>
<path style=" stroke:none;fill-rule:nonzero;fill:rgb(0%,23.921569%,65.098039%);fill-opacity:1;" d="M 7.910156 18.941406 L 6.589844 19.398438 L 6.589844 26.84375 C 8.242188 28.277344 10.222656 29.339844 12.402344 29.902344 L 12.402344 23.820312 C 10.324219 22.863281 8.695312 21.105469 7.910156 18.941406 Z M 7.910156 18.941406 "/>
<path style=" stroke:none;fill-rule:nonzero;fill:rgb(0%,23.921569%,65.098039%);fill-opacity:1;" d="M 25.40625 19.394531 L 24.089844 18.941406 C 23.304688 21.105469 21.671875 22.863281 19.59375 23.820312 L 19.59375 29.902344 C 21.777344 29.339844 23.757812 28.277344 25.40625 26.84375 Z M 25.40625 19.394531 "/>
<path style=" stroke:none;fill-rule:nonzero;fill:rgb(0%,0%,0%);fill-opacity:1;" d="M 16 24.609375 C 14.714844 24.609375 13.496094 24.324219 12.402344 23.820312 L 12.402344 29.902344 C 13.550781 30.199219 14.757812 30.355469 16 30.355469 C 17.242188 30.355469 18.449219 30.199219 19.597656 29.902344 L 19.597656 23.824219 C 18.503906 24.328125 17.285156 24.609375 16 24.609375 Z M 16 24.609375 "/>
<path style=" stroke:none;fill-rule:nonzero;fill:rgb(0%,0%,0%);fill-opacity:1;" d="M 2.472656 20.816406 C 3.308594 23.167969 4.742188 25.238281 6.59375 26.84375 L 6.59375 19.394531 Z M 2.472656 20.816406 "/>
<path style=" stroke:none;fill-rule:nonzero;fill:rgb(0%,0%,0%);fill-opacity:1;" d="M 29.527344 20.816406 L 25.40625 19.398438 L 25.40625 26.84375 C 27.253906 25.238281 28.6875 23.171875 29.527344 20.816406 Z M 29.527344 20.816406 "/>
<path style=" stroke:none;fill-rule:nonzero;fill:rgb(100%,100%,100%);fill-opacity:1;" d="M 12.765625 26.816406 C 12.824219 26.808594 12.902344 26.796875 12.953125 26.8125 L 13.136719 26.867188 C 13.195312 26.882812 13.207031 26.902344 13.195312 26.953125 L 12.757812 28.460938 C 12.742188 28.511719 12.722656 28.519531 12.664062 28.503906 L 12.359375 28.414062 C 12.300781 28.398438 12.289062 28.378906 12.300781 28.332031 L 12.617188 27.234375 L 12.269531 27.132812 C 12.210938 27.117188 12.199219 27.097656 12.210938 27.046875 L 12.246094 26.933594 C 12.25 26.90625 12.261719 26.890625 12.304688 26.878906 C 12.304688 26.878906 12.710938 26.820312 12.765625 26.816406 Z M 12.765625 26.816406 "/>
<path style=" stroke:none;fill-rule:nonzero;fill:rgb(100%,100%,100%);fill-opacity:1;" d="M 14.09375 27.679688 C 14.125 27.347656 14.429688 27.097656 14.839844 27.140625 C 15.441406 27.203125 15.558594 27.597656 15.507812 28.070312 C 15.460938 28.558594 15.207031 28.953125 14.625 28.894531 C 14.386719 28.871094 14.207031 28.773438 14.050781 28.601562 C 14.015625 28.5625 14.027344 28.546875 14.070312 28.511719 L 14.238281 28.375 C 14.28125 28.339844 14.304688 28.332031 14.34375 28.375 C 14.433594 28.476562 14.53125 28.539062 14.695312 28.554688 C 14.890625 28.574219 15.042969 28.417969 15.070312 28.15625 C 15.011719 28.214844 14.902344 28.296875 14.617188 28.265625 C 14.300781 28.234375 14.0625 28.03125 14.09375 27.679688 Z M 14.523438 27.695312 C 14.511719 27.835938 14.625 27.957031 14.777344 27.972656 C 14.953125 27.992188 15.070312 27.890625 15.085938 27.75 C 15.097656 27.601562 15.003906 27.488281 14.828125 27.472656 C 14.660156 27.453125 14.539062 27.546875 14.523438 27.695312 Z M 14.523438 27.695312 "/>
<path style=" stroke:none;fill-rule:nonzero;fill:rgb(100%,100%,100%);fill-opacity:1;" d="M 16.398438 27.828125 C 16.367188 27.496094 16.621094 27.191406 17.027344 27.152344 C 17.632812 27.097656 17.820312 27.464844 17.863281 27.9375 C 17.910156 28.425781 17.738281 28.863281 17.15625 28.917969 C 16.917969 28.941406 16.722656 28.878906 16.535156 28.742188 C 16.492188 28.710938 16.503906 28.691406 16.535156 28.648438 L 16.675781 28.480469 C 16.710938 28.441406 16.730469 28.429688 16.777344 28.464844 C 16.886719 28.546875 16.996094 28.589844 17.160156 28.574219 C 17.351562 28.554688 17.472656 28.375 17.449219 28.109375 C 17.402344 28.179688 17.3125 28.277344 17.027344 28.304688 C 16.710938 28.332031 16.433594 28.179688 16.402344 27.828125 Z M 16.828125 27.761719 C 16.839844 27.902344 16.976562 28 17.128906 27.984375 C 17.304688 27.96875 17.398438 27.847656 17.386719 27.707031 C 17.375 27.558594 17.257812 27.464844 17.082031 27.484375 C 16.914062 27.5 16.8125 27.613281 16.828125 27.761719 Z M 16.828125 27.761719 "/>
<path style=" stroke:none;fill-rule:nonzero;fill:rgb(100%,100%,100%);fill-opacity:1;" d="M 19.046875 27.855469 C 18.992188 27.871094 18.972656 27.859375 18.960938 27.808594 L 18.910156 27.632812 C 18.894531 27.582031 18.90625 27.566406 18.960938 27.550781 L 19.175781 27.492188 C 19.355469 27.441406 19.40625 27.339844 19.382812 27.25 C 19.347656 27.128906 19.257812 27.078125 19.074219 27.128906 C 18.914062 27.171875 18.867188 27.246094 18.796875 27.367188 C 18.769531 27.414062 18.742188 27.414062 18.699219 27.390625 L 18.515625 27.285156 C 18.46875 27.257812 18.453125 27.246094 18.484375 27.199219 C 18.609375 27.003906 18.730469 26.867188 18.980469 26.796875 C 19.277344 26.714844 19.691406 26.753906 19.785156 27.097656 C 19.832031 27.265625 19.761719 27.414062 19.667969 27.515625 C 19.8125 27.542969 19.972656 27.59375 20.03125 27.800781 C 20.125 28.144531 19.851562 28.390625 19.457031 28.5 C 19.207031 28.570312 18.996094 28.527344 18.789062 28.429688 C 18.742188 28.40625 18.746094 28.386719 18.773438 28.335938 L 18.875 28.15625 C 18.902344 28.109375 18.925781 28.097656 18.96875 28.121094 C 19.101562 28.183594 19.207031 28.214844 19.363281 28.171875 C 19.597656 28.105469 19.636719 28.003906 19.601562 27.882812 C 19.578125 27.792969 19.476562 27.734375 19.296875 27.785156 L 19.042969 27.855469 Z M 19.046875 27.855469 "/>
<path style=" stroke:none;fill-rule:nonzero;fill:rgb(100%,100%,100%);fill-opacity:1;" d="M 5.167969 12.980469 C 5.136719 12.925781 5.152344 12.898438 5.203125 12.863281 L 5.433594 12.714844 C 5.488281 12.679688 5.507812 12.671875 5.542969 12.726562 C 5.675781 12.960938 5.722656 13.296875 5.65625 13.59375 C 5.527344 14.199219 4.960938 14.601562 4.40625 14.484375 C 3.851562 14.363281 3.5 13.765625 3.628906 13.160156 C 3.691406 12.859375 3.871094 12.574219 4.089844 12.414062 C 4.140625 12.378906 4.15625 12.394531 4.191406 12.449219 L 4.34375 12.679688 C 4.375 12.730469 4.378906 12.761719 4.324219 12.796875 C 4.164062 12.902344 4.0625 13.054688 4.023438 13.242188 C 3.941406 13.625 4.203125 13.910156 4.515625 13.976562 C 4.820312 14.042969 5.179688 13.890625 5.265625 13.507812 C 5.304688 13.316406 5.273438 13.140625 5.171875 12.976562 Z M 5.167969 12.980469 "/>
<path style=" stroke:none;fill-rule:nonzero;fill:rgb(100%,100%,100%);fill-opacity:1;" d="M 6.390625 11.207031 C 6.441406 11.234375 6.449219 11.261719 6.417969 11.316406 L 6.257812 11.621094 C 6.226562 11.679688 6.203125 11.6875 6.148438 11.660156 L 4.515625 10.804688 C 4.460938 10.777344 4.453125 10.75 4.484375 10.691406 L 5.148438 9.429688 C 5.179688 9.371094 5.203125 9.363281 5.257812 9.386719 L 5.472656 9.5 C 5.523438 9.527344 5.53125 9.550781 5.5 9.609375 L 5.035156 10.496094 L 5.390625 10.683594 L 5.839844 9.824219 C 5.871094 9.765625 5.894531 9.757812 5.949219 9.785156 L 6.164062 9.898438 C 6.214844 9.925781 6.222656 9.949219 6.191406 10.007812 L 5.742188 10.867188 Z M 6.390625 11.207031 "/>
<path style=" stroke:none;fill-rule:nonzero;fill:rgb(100%,100%,100%);fill-opacity:1;" d="M 9.863281 7.230469 C 9.863281 7.289062 9.863281 7.324219 9.839844 7.34375 L 9.804688 7.367188 C 9.78125 7.382812 9.75 7.371094 9.691406 7.351562 L 8.660156 7.03125 L 9.046875 7.769531 C 9.078125 7.824219 9.078125 7.84375 9.023438 7.882812 L 8.746094 8.082031 C 8.691406 8.121094 8.65625 8.121094 8.632812 8.066406 L 7.722656 6.339844 C 7.714844 6.320312 7.710938 6.3125 7.730469 6.300781 L 7.75 6.285156 C 7.761719 6.277344 7.773438 6.277344 7.796875 6.285156 L 9.417969 6.792969 L 9.457031 5.09375 C 9.457031 5.066406 9.464844 5.058594 9.472656 5.050781 L 9.496094 5.035156 C 9.511719 5.023438 9.519531 5.023438 9.535156 5.039062 L 10.878906 6.457031 C 10.917969 6.5 10.910156 6.53125 10.855469 6.570312 L 10.578125 6.769531 C 10.523438 6.808594 10.503906 6.804688 10.464844 6.753906 L 9.894531 6.132812 Z M 9.863281 7.230469 "/>
<path style=" stroke:none;fill-rule:nonzero;fill:rgb(100%,100%,100%);fill-opacity:1;" d="M 12.355469 3.828125 C 12.949219 3.648438 13.574219 3.953125 13.734375 4.496094 C 13.898438 5.042969 13.542969 5.636719 12.949219 5.816406 C 12.355469 5.996094 11.730469 5.691406 11.566406 5.148438 C 11.40625 4.601562 11.761719 4.003906 12.355469 3.828125 Z M 12.835938 5.429688 C 13.21875 5.3125 13.328125 4.945312 13.238281 4.644531 C 13.148438 4.34375 12.855469 4.097656 12.46875 4.214844 C 12.097656 4.324219 11.972656 4.691406 12.0625 4.996094 C 12.152344 5.296875 12.460938 5.539062 12.835938 5.429688 Z M 12.835938 5.429688 "/>
<path style=" stroke:none;fill-rule:nonzero;fill:rgb(100%,100%,100%);fill-opacity:1;" d="M 20.226562 4.023438 C 20.289062 4.039062 20.304688 4.0625 20.289062 4.121094 L 20.21875 4.371094 C 20.203125 4.429688 20.179688 4.441406 20.117188 4.421875 L 19.519531 4.257812 L 19.117188 5.710938 C 19.097656 5.769531 19.078125 5.78125 19.011719 5.761719 L 18.683594 5.671875 C 18.621094 5.652344 18.605469 5.632812 18.621094 5.574219 L 19.023438 4.121094 L 18.429688 3.953125 C 18.363281 3.9375 18.351562 3.914062 18.367188 3.855469 L 18.4375 3.605469 C 18.453125 3.546875 18.476562 3.535156 18.539062 3.554688 L 20.226562 4.019531 Z M 15.53125 5.273438 C 15.53125 5.332031 15.511719 5.347656 15.445312 5.347656 L 15.105469 5.347656 C 15.035156 5.347656 15.019531 5.332031 15.019531 5.273438 L 15.019531 3.335938 C 15.019531 3.316406 15.023438 3.3125 15.046875 3.3125 L 15.078125 3.3125 C 15.101562 3.3125 15.117188 3.320312 15.136719 3.335938 L 16.472656 4.429688 L 16.472656 3.425781 C 16.472656 3.363281 16.492188 3.347656 16.554688 3.347656 L 16.898438 3.347656 C 16.964844 3.347656 16.980469 3.367188 16.980469 3.425781 L 16.980469 5.363281 C 16.980469 5.378906 16.976562 5.386719 16.953125 5.386719 L 16.921875 5.386719 C 16.902344 5.386719 16.886719 5.378906 16.863281 5.363281 L 15.53125 4.25 Z M 15.53125 5.273438 "/>
<path style=" stroke:none;fill-rule:nonzero;fill:rgb(100%,100%,100%);fill-opacity:1;" d="M 22.242188 6.324219 L 22.316406 7.234375 C 22.320312 7.320312 22.261719 7.316406 22.203125 7.28125 L 21.929688 7.121094 C 21.875 7.085938 21.851562 7.046875 21.847656 6.980469 L 21.773438 6.09375 L 21.625 6.003906 L 21.25 6.625 C 21.222656 6.675781 21.195312 6.679688 21.140625 6.644531 L 20.84375 6.46875 C 20.789062 6.433594 20.78125 6.410156 20.8125 6.359375 L 21.761719 4.773438 C 21.792969 4.722656 21.816406 4.71875 21.871094 4.753906 L 22.546875 5.152344 C 22.851562 5.339844 23.164062 5.683594 22.925781 6.082031 C 22.761719 6.355469 22.496094 6.390625 22.242188 6.324219 Z M 22.113281 5.847656 C 22.304688 5.957031 22.421875 5.953125 22.5 5.828125 C 22.578125 5.699219 22.523438 5.589844 22.332031 5.476562 L 22.042969 5.304688 L 21.820312 5.671875 Z M 22.113281 5.847656 "/>
<path style=" stroke:none;fill-rule:nonzero;fill:rgb(100%,100%,100%);fill-opacity:1;" d="M 23.222656 8.125 C 23.175781 8.078125 23.175781 8.054688 23.21875 8.011719 L 24.554688 6.734375 C 24.597656 6.691406 24.621094 6.695312 24.667969 6.742188 L 25.65625 7.773438 C 25.699219 7.820312 25.699219 7.847656 25.65625 7.886719 L 25.484375 8.054688 C 25.441406 8.09375 25.417969 8.09375 25.371094 8.046875 L 24.679688 7.324219 L 24.386719 7.601562 L 25.050781 8.296875 C 25.097656 8.34375 25.097656 8.367188 25.054688 8.410156 L 24.878906 8.574219 C 24.835938 8.617188 24.8125 8.613281 24.765625 8.566406 L 24.101562 7.875 L 23.804688 8.160156 L 24.496094 8.882812 C 24.539062 8.929688 24.539062 8.957031 24.496094 8.996094 L 24.324219 9.164062 C 24.28125 9.203125 24.257812 9.203125 24.210938 9.15625 Z M 25.585938 7.066406 C 25.539062 7.058594 25.496094 7.035156 25.460938 7 L 25.28125 6.808594 C 25.242188 6.769531 25.25 6.742188 25.34375 6.746094 L 25.902344 6.757812 C 25.960938 6.753906 25.976562 6.796875 25.964844 6.859375 L 25.921875 7.0625 C 25.910156 7.117188 25.894531 7.128906 25.824219 7.117188 L 25.589844 7.066406 Z M 25.585938 7.066406 "/>
<path style=" stroke:none;fill-rule:nonzero;fill:rgb(100%,100%,100%);fill-opacity:1;" d="M 26.054688 12.058594 C 26.03125 12.09375 25.984375 12.085938 25.960938 12.046875 L 25.773438 11.6875 C 25.75 11.636719 25.753906 11.613281 25.792969 11.554688 L 25.976562 11.269531 L 25.566406 10.488281 L 25.226562 10.476562 C 25.160156 10.472656 25.136719 10.464844 25.109375 10.414062 L 24.921875 10.054688 C 24.898438 10.015625 24.921875 9.972656 24.964844 9.972656 L 27.144531 10.074219 C 27.203125 10.082031 27.234375 10.074219 27.246094 10.101562 L 27.25 10.109375 C 27.265625 10.136719 27.242188 10.15625 27.214844 10.207031 L 26.054688 12.054688 Z M 26.625 10.414062 L 25.953125 10.40625 L 26.253906 10.980469 L 26.625 10.421875 Z M 26.625 10.414062 "/>
<path style=" stroke:none;fill-rule:nonzero;fill:rgb(100%,100%,100%);fill-opacity:1;" d="M 26.953125 14.394531 C 26.96875 14.460938 26.953125 14.480469 26.894531 14.492188 L 26.660156 14.542969 C 26.601562 14.554688 26.582031 14.539062 26.566406 14.476562 L 26.300781 13.207031 C 26.285156 13.140625 26.300781 13.121094 26.355469 13.109375 L 28.164062 12.726562 C 28.222656 12.714844 28.246094 12.730469 28.257812 12.792969 L 28.328125 13.128906 C 28.34375 13.195312 28.328125 13.214844 28.269531 13.226562 L 26.773438 13.542969 L 26.953125 14.390625 Z M 26.953125 14.394531 "/>
<path style=" stroke:none;fill-rule:nonzero;fill:rgb(0%,0%,0%);fill-opacity:1;" d="M 19.597656 21.773438 C 19.945312 21.308594 20.273438 20.804688 20.574219 20.265625 C 21.902344 17.878906 22.617188 15.007812 22.644531 11.964844 C 22.648438 11.566406 22.636719 11.101562 22.609375 10.648438 C 22.011719 10.464844 20.933594 10.164062 19.59375 9.9375 L 19.597656 21.777344 Z M 19.597656 23.121094 C 19.464844 23.269531 19.328125 23.414062 19.191406 23.550781 L 19.1875 23.554688 C 18.914062 23.828125 18.632812 24.085938 18.339844 24.324219 C 18.335938 24.328125 18.332031 24.332031 18.328125 24.335938 C 18.109375 24.511719 17.886719 24.675781 17.660156 24.832031 C 17.660156 24.832031 17.660156 24.835938 17.65625 24.835938 C 17.585938 24.882812 17.515625 24.929688 17.441406 24.976562 C 17.433594 24.980469 17.425781 24.984375 17.417969 24.992188 C 17.347656 25.035156 17.277344 25.078125 17.207031 25.121094 C 17.203125 25.125 17.199219 25.128906 17.195312 25.128906 C 17.042969 25.222656 16.886719 25.308594 16.730469 25.386719 C 16.726562 25.390625 16.71875 25.394531 16.710938 25.398438 C 16.644531 25.433594 16.574219 25.46875 16.503906 25.5 C 16.492188 25.507812 16.480469 25.511719 16.464844 25.519531 C 16.398438 25.550781 16.332031 25.582031 16.261719 25.613281 C 16.253906 25.617188 16.246094 25.621094 16.238281 25.625 C 16.160156 25.65625 16.078125 25.691406 16 25.722656 C 15.972656 25.710938 15.945312 25.699219 15.917969 25.6875 C 15.875 25.667969 15.832031 25.652344 15.792969 25.636719 C 15.753906 25.621094 15.714844 25.601562 15.679688 25.585938 C 15.644531 25.570312 15.609375 25.554688 15.574219 25.535156 C 15.535156 25.519531 15.496094 25.5 15.457031 25.480469 C 15.421875 25.464844 15.390625 25.449219 15.355469 25.429688 C 15.316406 25.410156 15.277344 25.390625 15.238281 25.371094 C 15.207031 25.355469 15.175781 25.339844 15.144531 25.320312 C 15.074219 25.28125 15 25.238281 14.925781 25.199219 C 14.894531 25.183594 14.867188 25.164062 14.839844 25.148438 C 14.796875 25.125 14.757812 25.097656 14.71875 25.074219 C 14.6875 25.054688 14.660156 25.039062 14.632812 25.019531 C 14.589844 24.996094 14.550781 24.96875 14.507812 24.941406 C 14.480469 24.925781 14.453125 24.90625 14.425781 24.886719 C 14.386719 24.859375 14.34375 24.832031 14.300781 24.804688 C 14.28125 24.789062 14.257812 24.773438 14.238281 24.761719 C 14.152344 24.699219 14.066406 24.636719 13.980469 24.574219 C 13.964844 24.558594 13.945312 24.546875 13.925781 24.535156 C 13.882812 24.5 13.839844 24.46875 13.796875 24.433594 C 13.773438 24.417969 13.75 24.398438 13.730469 24.378906 C 13.6875 24.34375 13.644531 24.3125 13.605469 24.277344 C 13.582031 24.257812 13.558594 24.238281 13.539062 24.222656 C 13.496094 24.183594 13.453125 24.148438 13.410156 24.109375 C 13.394531 24.101562 13.382812 24.089844 13.371094 24.078125 C 13.273438 23.992188 13.179688 23.90625 13.082031 23.816406 C 13.074219 23.808594 13.066406 23.800781 13.058594 23.792969 C 13.015625 23.75 12.96875 23.710938 12.925781 23.667969 C 12.910156 23.648438 12.890625 23.632812 12.871094 23.613281 C 12.832031 23.570312 12.789062 23.527344 12.746094 23.488281 C 12.730469 23.46875 12.710938 23.453125 12.695312 23.433594 C 12.652344 23.390625 12.609375 23.34375 12.566406 23.296875 C 12.558594 23.292969 12.554688 23.285156 12.550781 23.28125 C 12.5 23.226562 12.453125 23.175781 12.402344 23.121094 C 12.332031 23.039062 12.261719 22.957031 12.191406 22.878906 C 12.175781 22.859375 12.160156 22.839844 12.140625 22.816406 C 12.003906 22.652344 11.867188 22.480469 11.734375 22.304688 C 11.71875 22.285156 11.703125 22.265625 11.6875 22.242188 C 11.554688 22.066406 11.425781 21.882812 11.300781 21.695312 C 11.285156 21.675781 11.269531 21.652344 11.253906 21.628906 C 11.191406 21.535156 11.132812 21.441406 11.070312 21.34375 C 11.011719 21.246094 10.953125 21.148438 10.894531 21.050781 C 10.878906 21.027344 10.863281 21.003906 10.851562 20.976562 C 10.792969 20.878906 10.734375 20.777344 10.679688 20.679688 C 9.28125 18.164062 8.527344 15.152344 8.5 11.96875 C 8.496094 11.621094 8.503906 11.242188 8.523438 10.867188 C 8.535156 10.574219 8.550781 10.28125 8.574219 10.011719 C 8.574219 10.011719 8.578125 10.011719 8.582031 10.007812 C 8.585938 10.007812 8.589844 10.003906 8.59375 10.003906 C 8.597656 10.003906 8.601562 10 8.605469 10 C 8.609375 9.996094 8.617188 9.996094 8.621094 9.992188 C 8.625 9.992188 8.632812 9.988281 8.636719 9.988281 C 8.644531 9.984375 8.648438 9.984375 8.652344 9.980469 C 8.660156 9.980469 8.667969 9.976562 8.675781 9.976562 C 8.679688 9.976562 8.683594 9.972656 8.6875 9.96875 C 8.699219 9.964844 8.714844 9.960938 8.730469 9.957031 C 8.734375 9.957031 8.734375 9.953125 8.742188 9.953125 C 8.753906 9.945312 8.765625 9.941406 8.78125 9.9375 C 8.785156 9.9375 8.792969 9.933594 8.796875 9.933594 C 8.832031 9.921875 8.875 9.90625 8.921875 9.890625 C 8.925781 9.890625 8.929688 9.890625 8.933594 9.886719 C 8.957031 9.882812 8.976562 9.875 9 9.867188 C 9.003906 9.867188 9.003906 9.863281 9.011719 9.863281 C 9.035156 9.851562 9.066406 9.84375 9.09375 9.835938 C 9.121094 9.828125 9.152344 9.816406 9.179688 9.808594 C 9.183594 9.808594 9.191406 9.804688 9.195312 9.804688 C 9.226562 9.796875 9.257812 9.785156 9.289062 9.777344 C 9.289062 9.777344 9.289062 9.777344 9.292969 9.777344 C 9.324219 9.765625 9.363281 9.753906 9.398438 9.746094 C 9.398438 9.746094 9.402344 9.742188 9.40625 9.742188 C 9.4375 9.730469 9.472656 9.722656 9.507812 9.710938 C 9.511719 9.710938 9.519531 9.710938 9.523438 9.707031 C 9.597656 9.6875 9.679688 9.664062 9.765625 9.640625 C 9.769531 9.640625 9.773438 9.636719 9.777344 9.636719 C 9.816406 9.625 9.855469 9.613281 9.894531 9.601562 C 9.902344 9.601562 9.90625 9.601562 9.910156 9.597656 C 10 9.574219 10.089844 9.550781 10.1875 9.527344 C 10.195312 9.523438 10.199219 9.523438 10.207031 9.523438 C 10.253906 9.507812 10.300781 9.496094 10.347656 9.484375 C 10.347656 9.484375 10.351562 9.484375 10.355469 9.484375 C 10.40625 9.472656 10.457031 9.460938 10.511719 9.445312 C 10.511719 9.445312 10.511719 9.445312 10.515625 9.445312 C 10.566406 9.433594 10.613281 9.421875 10.667969 9.410156 C 10.675781 9.40625 10.679688 9.40625 10.6875 9.40625 C 10.796875 9.378906 10.90625 9.355469 11.019531 9.328125 C 11.027344 9.328125 11.03125 9.324219 11.039062 9.324219 C 11.089844 9.3125 11.144531 9.300781 11.195312 9.289062 C 11.203125 9.289062 11.207031 9.289062 11.214844 9.285156 C 11.332031 9.261719 11.453125 9.238281 11.574219 9.210938 C 11.582031 9.210938 11.59375 9.207031 11.601562 9.207031 C 11.660156 9.195312 11.714844 9.183594 11.773438 9.171875 C 11.777344 9.171875 11.785156 9.171875 11.789062 9.171875 C 11.851562 9.160156 11.917969 9.148438 11.980469 9.136719 C 11.984375 9.136719 11.988281 9.136719 11.988281 9.136719 C 12.050781 9.125 12.109375 9.113281 12.171875 9.101562 C 12.183594 9.101562 12.195312 9.097656 12.203125 9.097656 C 12.269531 9.085938 12.332031 9.074219 12.398438 9.0625 C 12.398438 9.0625 12.40625 9.0625 12.40625 9.0625 C 12.527344 9.042969 12.644531 9.023438 12.769531 9.007812 C 12.785156 9.003906 12.800781 9.003906 12.816406 9 C 12.933594 8.984375 13.054688 8.96875 13.179688 8.953125 C 13.1875 8.953125 13.195312 8.949219 13.207031 8.949219 C 13.332031 8.933594 13.464844 8.917969 13.59375 8.902344 C 13.609375 8.902344 13.625 8.898438 13.636719 8.898438 C 13.765625 8.882812 13.898438 8.871094 14.03125 8.859375 C 14.035156 8.859375 14.042969 8.859375 14.050781 8.859375 C 14.1875 8.847656 14.324219 8.835938 14.460938 8.824219 C 14.476562 8.824219 14.492188 8.824219 14.503906 8.820312 C 14.644531 8.8125 14.78125 8.804688 14.921875 8.796875 C 14.925781 8.796875 14.929688 8.796875 14.933594 8.796875 C 15.074219 8.792969 15.222656 8.785156 15.363281 8.785156 C 15.378906 8.785156 15.390625 8.785156 15.402344 8.785156 C 15.550781 8.78125 15.695312 8.777344 15.84375 8.777344 C 15.882812 8.777344 15.996094 8.777344 15.996094 8.777344 C 15.996094 8.777344 16.105469 8.777344 16.148438 8.777344 C 16.296875 8.777344 16.445312 8.777344 16.589844 8.785156 C 16.601562 8.785156 16.613281 8.785156 16.621094 8.785156 C 16.917969 8.792969 17.207031 8.804688 17.496094 8.824219 C 17.503906 8.824219 17.511719 8.824219 17.519531 8.824219 C 17.808594 8.84375 18.09375 8.871094 18.371094 8.898438 C 18.375 8.898438 18.375 8.898438 18.378906 8.898438 C 18.800781 8.945312 19.207031 9 19.59375 9.0625 C 19.65625 9.074219 19.722656 9.085938 19.789062 9.097656 C 19.796875 9.097656 19.808594 9.097656 19.820312 9.101562 C 19.882812 9.113281 19.941406 9.121094 20.003906 9.136719 C 20.003906 9.136719 20.007812 9.136719 20.011719 9.136719 C 20.074219 9.148438 20.140625 9.160156 20.207031 9.171875 C 20.210938 9.171875 20.214844 9.171875 20.21875 9.171875 C 20.277344 9.183594 20.335938 9.195312 20.390625 9.207031 C 20.398438 9.207031 20.410156 9.207031 20.417969 9.210938 C 20.542969 9.234375 20.660156 9.261719 20.777344 9.285156 C 20.785156 9.285156 20.792969 9.289062 20.796875 9.289062 C 20.851562 9.300781 20.902344 9.3125 20.957031 9.324219 C 20.960938 9.324219 20.96875 9.328125 20.976562 9.328125 C 21.089844 9.355469 21.199219 9.378906 21.308594 9.40625 C 21.3125 9.40625 21.320312 9.40625 21.328125 9.410156 C 21.378906 9.421875 21.429688 9.433594 21.476562 9.445312 C 21.476562 9.445312 21.480469 9.445312 21.484375 9.445312 C 21.535156 9.460938 21.589844 9.472656 21.640625 9.484375 C 21.644531 9.484375 21.644531 9.484375 21.644531 9.484375 C 21.691406 9.496094 21.742188 9.507812 21.785156 9.519531 C 21.792969 9.523438 21.800781 9.523438 21.804688 9.523438 C 21.902344 9.550781 21.996094 9.574219 22.085938 9.597656 C 22.089844 9.597656 22.09375 9.601562 22.097656 9.601562 C 22.136719 9.613281 22.179688 9.625 22.214844 9.632812 C 22.222656 9.632812 22.226562 9.636719 22.234375 9.636719 C 22.316406 9.660156 22.398438 9.683594 22.472656 9.707031 C 22.476562 9.707031 22.484375 9.710938 22.488281 9.710938 C 22.523438 9.722656 22.558594 9.730469 22.589844 9.742188 C 22.59375 9.742188 22.59375 9.742188 22.597656 9.742188 C 22.632812 9.753906 22.667969 9.761719 22.703125 9.773438 C 22.703125 9.773438 22.707031 9.773438 22.707031 9.773438 C 22.738281 9.78125 22.769531 9.792969 22.800781 9.800781 C 22.804688 9.804688 22.808594 9.804688 22.816406 9.804688 C 22.84375 9.816406 22.875 9.824219 22.902344 9.832031 C 22.933594 9.839844 22.957031 9.851562 22.984375 9.859375 C 22.988281 9.859375 22.996094 9.863281 23 9.863281 C 23.019531 9.871094 23.039062 9.878906 23.058594 9.882812 C 23.066406 9.882812 23.070312 9.886719 23.074219 9.890625 C 23.121094 9.902344 23.164062 9.917969 23.199219 9.929688 C 23.203125 9.933594 23.210938 9.933594 23.214844 9.933594 C 23.226562 9.9375 23.242188 9.945312 23.253906 9.949219 C 23.257812 9.949219 23.261719 9.953125 23.265625 9.953125 C 23.28125 9.957031 23.296875 9.964844 23.308594 9.96875 C 23.3125 9.96875 23.316406 9.96875 23.320312 9.972656 C 23.328125 9.976562 23.335938 9.976562 23.34375 9.980469 C 23.347656 9.980469 23.351562 9.984375 23.355469 9.984375 C 23.363281 9.988281 23.367188 9.988281 23.371094 9.992188 C 23.378906 9.996094 23.386719 9.996094 23.390625 10 C 23.394531 10 23.398438 10 23.398438 10 C 23.414062 10.003906 23.421875 10.007812 23.421875 10.007812 C 23.453125 10.390625 23.476562 10.820312 23.488281 11.238281 C 23.496094 11.488281 23.5 11.734375 23.496094 11.964844 C 23.46875 14.886719 22.835938 17.660156 21.652344 20.039062 C 21.546875 20.253906 21.433594 20.46875 21.316406 20.675781 C 21.261719 20.777344 21.207031 20.878906 21.148438 20.976562 C 21.132812 21 21.117188 21.023438 21.105469 21.046875 C 21.046875 21.148438 20.988281 21.246094 20.925781 21.339844 C 20.867188 21.4375 20.804688 21.53125 20.742188 21.625 C 20.730469 21.648438 20.710938 21.667969 20.699219 21.691406 C 20.574219 21.878906 20.445312 22.0625 20.3125 22.238281 C 20.296875 22.257812 20.28125 22.28125 20.265625 22.300781 C 20.132812 22.476562 19.996094 22.648438 19.855469 22.8125 C 19.839844 22.835938 19.820312 22.851562 19.804688 22.875 C 19.734375 22.957031 19.667969 23.035156 19.59375 23.117188 Z M 12.40625 21.773438 L 12.40625 9.9375 C 12.40625 9.9375 12.402344 9.9375 12.402344 9.9375 C 11.066406 10.160156 9.988281 10.460938 9.390625 10.648438 C 9.363281 11.101562 9.351562 11.566406 9.355469 11.964844 C 9.382812 15.003906 10.097656 17.878906 11.425781 20.265625 C 11.726562 20.804688 12.054688 21.308594 12.402344 21.773438 Z M 12.40625 21.773438 "/>
<path style=" stroke:none;fill-rule:nonzero;fill:rgb(0%,23.921569%,65.098039%);fill-opacity:1;" d="M 9.390625 10.648438 C 9.363281 11.101562 9.351562 11.566406 9.355469 11.964844 C 9.382812 15.003906 10.097656 17.878906 11.425781 20.265625 C 11.726562 20.804688 12.054688 21.308594 12.402344 21.773438 L 12.402344 9.9375 C 11.066406 10.160156 9.988281 10.460938 9.390625 10.648438 Z M 9.390625 10.648438 "/>
<path style=" stroke:none;fill-rule:nonzero;fill:rgb(0%,23.921569%,65.098039%);fill-opacity:1;" d="M 20.574219 20.265625 C 21.902344 17.878906 22.617188 15.007812 22.644531 11.964844 C 22.648438 11.566406 22.636719 11.101562 22.609375 10.648438 C 22.011719 10.464844 20.933594 10.164062 19.59375 9.9375 L 19.59375 21.773438 C 19.945312 21.308594 20.273438 20.804688 20.574219 20.269531 Z M 20.574219 20.265625 "/>
<path style=" stroke:none;fill-rule:nonzero;fill:rgb(100%,100%,100%);fill-opacity:1;" d="M 22.453125 15.550781 C 20.984375 15.3125 19.589844 16.613281 18.546875 19.085938 C 17.980469 20.429688 17.761719 21.300781 17.566406 22.382812 C 17.207031 22.386719 16.65625 22.382812 16.65625 22.382812 C 16.65625 22.382812 16.761719 21.664062 17 20.644531 C 17.238281 19.621094 18.199219 17.0625 18.546875 15.847656 C 18.59375 15.675781 18.632812 15.511719 18.660156 15.347656 C 19.085938 12.867188 17.265625 11.207031 16 10.375 C 14.734375 11.207031 12.910156 12.867188 13.339844 15.347656 C 13.367188 15.511719 13.402344 15.679688 13.449219 15.847656 C 13.796875 17.066406 14.757812 19.621094 15 20.644531 C 15.238281 21.664062 15.339844 22.382812 15.339844 22.382812 C 15.339844 22.382812 14.789062 22.386719 14.433594 22.382812 C 14.234375 21.300781 14.019531 20.433594 13.449219 19.085938 C 12.410156 16.613281 11.011719 15.316406 9.542969 15.550781 C 9.40625 15.574219 9.273438 15.609375 9.144531 15.65625 C 9.453125 17.210938 9.953125 18.683594 10.632812 20.019531 C 10.636719 20.019531 10.636719 20.019531 10.644531 20.019531 C 11.371094 19.902344 12.085938 20.097656 12.589844 20.5625 C 13.371094 21.28125 13.375 22.382812 13.375 22.382812 L 12.128906 22.382812 C 12.503906 22.855469 12.90625 23.289062 13.324219 23.679688 C 14.070312 23.679688 14.894531 23.679688 15.136719 23.679688 C 15.074219 24.027344 14.824219 24.34375 14.464844 24.59375 C 14.960938 24.933594 15.472656 25.214844 16 25.433594 C 16.527344 25.21875 17.039062 24.933594 17.535156 24.59375 C 17.175781 24.34375 16.921875 24.027344 16.863281 23.679688 C 17.105469 23.679688 17.929688 23.679688 18.675781 23.679688 C 19.09375 23.289062 19.496094 22.855469 19.871094 22.382812 L 18.621094 22.382812 C 18.621094 22.382812 18.625 21.28125 19.40625 20.5625 C 19.914062 20.097656 20.621094 19.902344 21.351562 20.019531 C 21.359375 20.019531 21.363281 20.019531 21.367188 20.023438 C 22.046875 18.683594 22.546875 17.210938 22.859375 15.65625 C 22.726562 15.609375 22.59375 15.574219 22.453125 15.550781 Z M 22.453125 15.550781 "/>
<path style=" stroke:none;fill-rule:nonzero;fill:rgb(75.686275%,77.254902%,78.431373%);fill-opacity:1;" d="M 13.335938 15.347656 C 13.363281 15.511719 13.398438 15.675781 13.449219 15.84375 C 13.796875 17.0625 14.757812 19.621094 14.996094 20.640625 C 15.234375 21.664062 15.339844 22.382812 15.339844 22.382812 L 16 22.382812 L 16 10.371094 C 14.730469 11.207031 12.910156 12.863281 13.335938 15.347656 Z M 13.335938 15.347656 "/>
<path style=" stroke:none;fill-rule:nonzero;fill:rgb(75.686275%,77.254902%,78.431373%);fill-opacity:1;" d="M 29.859375 19.753906 L 24.558594 17.925781 C 24.699219 17.308594 24.773438 16.660156 24.773438 16 C 24.773438 14.527344 24.410156 13.140625 23.769531 11.921875 C 23.773438 11.332031 23.746094 10.617188 23.691406 9.992188 L 23.679688 9.820312 L 23.519531 9.761719 C 23.503906 9.757812 22.742188 9.476562 21.523438 9.183594 C 20.015625 7.960938 18.09375 7.226562 16 7.226562 C 13.910156 7.226562 11.984375 7.960938 10.476562 9.183594 C 9.261719 9.476562 8.496094 9.757812 8.480469 9.761719 L 8.320312 9.820312 L 8.308594 9.992188 C 8.257812 10.617188 8.226562 11.332031 8.230469 11.921875 C 7.589844 13.140625 7.226562 14.527344 7.226562 16 C 7.226562 16.660156 7.300781 17.304688 7.441406 17.925781 L 2.140625 19.753906 C 2.1875 19.925781 2.238281 20.097656 2.289062 20.269531 L 7.574219 18.449219 C 8.378906 21.222656 10.519531 23.429688 13.25 24.332031 C 14.074219 25.046875 14.96875 25.601562 15.902344 25.972656 L 16 26.011719 L 16.097656 25.972656 C 17.03125 25.601562 17.925781 25.042969 18.75 24.332031 C 21.480469 23.429688 23.621094 21.222656 24.425781 18.449219 L 29.710938 20.273438 C 29.761719 20.101562 29.8125 19.925781 29.859375 19.753906 Z M 16 7.761719 C 17.492188 7.761719 18.925781 8.160156 20.179688 8.898438 C 19.007812 8.683594 17.617188 8.507812 16.152344 8.507812 L 15.851562 8.507812 C 14.382812 8.507812 12.992188 8.679688 11.820312 8.898438 C 13.074219 8.15625 14.507812 7.761719 16 7.761719 Z M 10.175781 21.824219 C 8.621094 20.269531 7.761719 18.203125 7.761719 16 C 7.761719 15.003906 7.9375 14.039062 8.273438 13.132812 C 8.453125 15.933594 9.195312 18.570312 10.441406 20.8125 C 10.964844 21.75 11.5625 22.59375 12.226562 23.324219 C 11.476562 22.9375 10.785156 22.4375 10.175781 21.824219 Z M 9.886719 18.308594 C 9.9375 18.449219 9.992188 18.589844 10.046875 18.730469 C 9.992188 18.589844 9.9375 18.449219 9.886719 18.308594 Z M 10.058594 18.757812 C 10.117188 18.898438 10.171875 19.035156 10.234375 19.175781 C 10.175781 19.039062 10.117188 18.898438 10.058594 18.757812 Z M 10.234375 19.179688 C 10.359375 19.464844 10.492188 19.746094 10.628906 20.019531 C 10.492188 19.742188 10.359375 19.464844 10.234375 19.179688 Z M 14.492188 24.613281 C 14.542969 24.652344 14.597656 24.6875 14.652344 24.722656 C 14.617188 24.699219 14.582031 24.675781 14.546875 24.652344 C 14.527344 24.640625 14.507812 24.625 14.492188 24.613281 Z M 16 25.4375 C 15.9375 25.410156 15.871094 25.382812 15.808594 25.355469 C 15.871094 25.382812 15.9375 25.410156 16 25.4375 L 16 23.671875 L 15.136719 23.679688 C 15.074219 24.027344 14.820312 24.34375 14.464844 24.597656 C 14.140625 24.375 13.828125 24.128906 13.523438 23.859375 C 12.527344 22.984375 11.636719 21.863281 10.910156 20.554688 C 10.816406 20.378906 10.71875 20.203125 10.628906 20.023438 C 10.632812 20.023438 10.636719 20.023438 10.644531 20.019531 C 11.371094 19.90625 12.085938 20.097656 12.589844 20.5625 C 13.171875 21.097656 13.324219 21.84375 13.363281 22.191406 C 13.117188 19.125 11.183594 17.847656 9.882812 18.300781 C 9.179688 16.378906 8.796875 14.257812 8.769531 12.050781 C 8.769531 12.023438 8.769531 12 8.769531 11.972656 C 8.765625 11.679688 8.773438 11.347656 8.785156 11.015625 C 8.796875 10.746094 8.808594 10.472656 8.828125 10.214844 C 8.992188 10.160156 9.269531 10.066406 9.640625 9.960938 C 9.945312 9.875 10.308594 9.777344 10.722656 9.679688 C 12.042969 9.367188 13.878906 9.046875 15.851562 9.046875 L 16.152344 9.046875 C 18.128906 9.046875 19.960938 9.367188 21.28125 9.679688 C 21.695312 9.777344 22.0625 9.875 22.363281 9.960938 C 22.734375 10.066406 23.011719 10.160156 23.175781 10.214844 C 23.195312 10.472656 23.207031 10.746094 23.21875 11.015625 C 23.234375 11.351562 23.238281 11.679688 23.234375 11.972656 C 23.234375 12 23.234375 12.027344 23.234375 12.054688 C 23.207031 14.261719 22.824219 16.382812 22.121094 18.304688 C 20.820312 17.851562 18.890625 19.128906 18.644531 22.195312 C 18.683594 21.847656 18.835938 21.101562 19.417969 20.566406 C 19.921875 20.101562 20.632812 19.910156 21.363281 20.023438 C 21.367188 20.023438 21.371094 20.023438 21.375 20.023438 C 21.285156 20.203125 21.191406 20.382812 21.09375 20.558594 C 20.367188 21.867188 19.476562 22.988281 18.484375 23.863281 C 18.152344 24.15625 17.808594 24.421875 17.457031 24.65625 C 16.988281 24.972656 16.503906 25.234375 16.003906 25.441406 Z M 14.652344 24.722656 C 14.710938 24.761719 14.773438 24.800781 14.835938 24.835938 C 14.773438 24.796875 14.710938 24.761719 14.652344 24.722656 Z M 14.839844 24.839844 C 14.902344 24.878906 14.960938 24.914062 15.019531 24.949219 C 14.957031 24.914062 14.898438 24.878906 14.839844 24.839844 Z M 15.03125 24.957031 C 15.089844 24.988281 15.144531 25.019531 15.203125 25.050781 C 15.144531 25.019531 15.089844 24.988281 15.03125 24.957031 Z M 15.226562 25.066406 C 15.277344 25.09375 15.332031 25.121094 15.382812 25.152344 C 15.332031 25.121094 15.277344 25.097656 15.226562 25.066406 Z M 15.417969 25.167969 C 15.46875 25.195312 15.519531 25.21875 15.570312 25.246094 C 15.519531 25.21875 15.46875 25.195312 15.417969 25.167969 Z M 15.613281 25.265625 C 15.660156 25.289062 15.710938 25.3125 15.761719 25.332031 C 15.710938 25.3125 15.660156 25.289062 15.613281 25.265625 Z M 22.113281 18.308594 C 22.0625 18.449219 22.007812 18.589844 21.953125 18.730469 C 22.003906 18.589844 22.0625 18.449219 22.113281 18.308594 Z M 21.941406 18.753906 C 21.765625 19.1875 21.578125 19.609375 21.371094 20.019531 C 21.578125 19.609375 21.765625 19.191406 21.941406 18.753906 Z M 21.824219 21.824219 C 21.210938 22.4375 20.523438 22.9375 19.773438 23.324219 C 20.433594 22.59375 21.035156 21.75 21.554688 20.8125 C 22.804688 18.570312 23.546875 15.933594 23.726562 13.136719 C 24.0625 14.039062 24.238281 15.007812 24.238281 16 C 24.238281 18.203125 23.378906 20.269531 21.824219 21.828125 Z M 21.824219 21.824219 "/>
</g>
</svg>
