<?xml version="1.0" encoding="UTF-8"?>
<svg xmlns="http://www.w3.org/2000/svg" xmlns:xlink="http://www.w3.org/1999/xlink" width="32px" height="32px" viewBox="0 0 32 32" version="1.1">
<g id="surface1">
<path style=" stroke:none;fill-rule:nonzero;fill:rgb(7.843137%,9.803922%,27.45098%);fill-opacity:1;" d="M 16 0 C 7.179688 0 0 7.179688 0 16 C 0 24.820312 7.179688 32 16 32 C 24.820312 32 32 24.820312 32 16 C 32 7.179688 24.820312 0 16 0 Z M 16 0 "/>
<path style=" stroke:none;fill-rule:nonzero;fill:rgb(100%,100%,100%);fill-opacity:1;" d="M 30.847656 16 C 30.847656 24.199219 24.199219 30.847656 16 30.847656 C 7.800781 30.847656 1.152344 24.199219 1.152344 16 C 1.152344 7.800781 7.800781 1.152344 16 1.152344 C 24.199219 1.152344 30.847656 7.800781 30.847656 16 Z M 30.847656 16 "/>
<path style=" stroke:none;fill-rule:nonzero;fill:rgb(48.627451%,80.392157%,93.72549%);fill-opacity:1;" d="M 23.578125 23.035156 L 26.085938 24.855469 C 30.523438 19.808594 30.523438 12.191406 26.085938 7.144531 L 23.578125 8.964844 C 23.40625 8.777344 23.222656 8.59375 23.035156 8.421875 L 24.855469 5.914062 C 19.808594 1.476562 12.191406 1.476562 7.144531 5.914062 L 8.964844 8.421875 C 8.777344 8.59375 8.59375 8.777344 8.421875 8.964844 L 5.914062 7.144531 C 1.476562 12.191406 1.476562 19.808594 5.914062 24.855469 L 8.421875 23.035156 C 8.59375 23.222656 8.777344 23.40625 8.964844 23.578125 L 7.144531 26.085938 C 12.191406 30.523438 19.808594 30.523438 24.855469 26.085938 L 23.035156 23.578125 C 23.222656 23.40625 23.40625 23.222656 23.578125 23.035156 Z M 16 25.46875 C 10.78125 25.46875 6.53125 21.21875 6.53125 16 C 6.53125 10.78125 10.78125 6.53125 16 6.53125 C 21.21875 6.53125 25.46875 10.78125 25.46875 16 C 25.46875 21.21875 21.21875 25.46875 16 25.46875 Z M 16 25.46875 "/>
<path style=" stroke:none;fill-rule:nonzero;fill:rgb(100%,0%,0%);fill-opacity:1;" d="M 15.421875 14.960938 L 13.140625 14.285156 L 14.84375 16 L 13.140625 17.714844 L 15.421875 17.042969 L 16 19.433594 L 16.578125 17.042969 L 18.859375 17.714844 L 17.15625 16 L 18.859375 14.285156 L 16.578125 14.960938 L 16 12.566406 Z M 15.421875 14.960938 "/>
<path style=" stroke:none;fill-rule:nonzero;fill:rgb(100%,0%,0%);fill-opacity:1;" d="M 20.042969 9.519531 L 11.957031 9.519531 L 9.519531 11.957031 L 9.519531 14.808594 L 8.328125 16 L 9.519531 17.191406 L 9.519531 20.042969 L 11.957031 22.480469 L 20.042969 22.480469 L 22.480469 20.042969 L 22.480469 17.726562 L 20.023438 17.726562 L 20.023438 19.300781 L 19.300781 20.023438 L 12.699219 20.023438 L 11.976562 19.300781 L 11.976562 12.699219 L 12.699219 11.976562 L 19.300781 11.976562 L 20.023438 12.699219 L 20.023438 14.273438 L 22.480469 14.273438 L 22.480469 11.957031 Z M 20.042969 9.519531 "/>
</g>
</svg>
