<?xml version="1.0" encoding="UTF-8"?>
<svg xmlns="http://www.w3.org/2000/svg" xmlns:xlink="http://www.w3.org/1999/xlink" width="32px" height="32px" viewBox="0 0 32 57" version="1.1">
<g id="surface1">
<path style=" stroke:none;fill-rule:nonzero;fill:rgb(99.607843%,86.666667%,0%);fill-opacity:1;" d="M 0 6.75 L 31.972656 6.75 L 27.167969 52.457031 L 15.988281 46.003906 L 4.804688 52.457031 Z M 0 6.75 "/>
<path style=" stroke:none;fill-rule:nonzero;fill:rgb(0%,0%,0%);fill-opacity:1;" d="M 1.429688 8.035156 L 5.878906 50.355469 L 15.988281 44.519531 L 26.09375 50.355469 L 30.542969 8.035156 Z M 1.429688 8.035156 "/>
<path style=" stroke:none;fill-rule:nonzero;fill:rgb(100%,100%,100%);fill-opacity:1;" d="M 27.109375 19.261719 L 27.746094 13.1875 L 22.699219 10.277344 L 9.273438 10.277344 L 4.226562 13.1875 L 7.75 46.6875 L 25.289062 36.5625 L 26.074219 29.101562 L 21.027344 26.1875 L 20.375 32.390625 L 12.097656 37.164062 L 9.910156 16.34375 L 22.0625 16.34375 L 21.410156 22.546875 Z M 20.585938 45.132812 L 20.023438 44.8125 L 20.023438 44.324219 L 20.585938 44 L 20.597656 44.566406 L 21.714844 44.5625 L 21.707031 43.390625 L 20.976562 43.828125 L 20.027344 43.289062 L 20.027344 41.597656 L 20.589844 41.269531 L 21.71875 41.269531 L 22.289062 41.589844 L 22.289062 44.808594 L 21.71875 45.132812 Z M 20.59375 42.953125 L 20.972656 43.164062 L 21.707031 42.734375 L 21.707031 41.835938 L 20.597656 41.84375 Z M 23.410156 45.132812 L 22.847656 44.8125 L 22.84375 41.597656 L 23.40625 41.269531 L 24.53125 41.269531 L 25.101562 41.589844 L 25.101562 42.078125 L 24.53125 42.40625 L 24.523438 41.839844 L 23.40625 41.847656 L 23.410156 43.011719 L 24.148438 42.582031 L 25.097656 43.117188 L 25.097656 44.808594 L 24.527344 45.132812 Z M 23.410156 43.667969 L 23.410156 44.570312 L 24.53125 44.5625 L 24.523438 43.449219 L 24.152344 43.242188 Z M 23.410156 43.667969 "/>
<path style=" stroke:none;fill-rule:nonzero;fill:rgb(0%,0%,0%);fill-opacity:1;" d="M 22.523438 57.003906 L 21.261719 56.277344 L 20.011719 57.003906 L 19.277344 57.003906 L 19.273438 52.285156 L 20.003906 51.855469 L 20.015625 56.148438 L 20.902344 55.632812 L 20.902344 52.285156 L 21.640625 52.277344 L 21.648438 55.636719 L 22.527344 56.148438 L 22.519531 51.867188 L 23.265625 52.28125 L 23.265625 57.003906 Z M 16.027344 57.003906 L 16.019531 51.964844 L 18.28125 51.960938 L 18.707031 52.699219 L 16.757812 52.710938 L 16.765625 54.121094 L 17.863281 54.113281 L 18.292969 54.855469 L 16.757812 54.867188 L 16.761719 56.269531 L 18.699219 56.261719 L 18.707031 57.003906 Z M 14.566406 57.003906 L 14.5625 55.203125 L 13.980469 54.871094 L 13.105469 55.375 L 13.105469 56.996094 L 12.367188 57.003906 L 12.359375 51.964844 L 14.566406 51.960938 L 15.304688 52.378906 L 15.304688 54.097656 L 14.710938 54.445312 L 15.304688 54.773438 L 15.304688 57.003906 Z M 13.105469 54.523438 L 14.5625 53.667969 L 14.5625 52.703125 L 13.105469 52.710938 Z M 9.441406 57.003906 L 8.707031 56.582031 L 8.703125 52.386719 L 9.4375 51.957031 L 10.910156 51.957031 L 11.648438 52.378906 L 11.652344 53.011719 L 10.910156 53.441406 L 10.902344 52.703125 L 9.441406 52.710938 L 9.449219 56.265625 L 10.910156 56.261719 L 10.902344 55.53125 L 11.648438 55.945312 L 11.652344 56.578125 L 10.910156 57.007812 Z M 28.339844 5.144531 L 27.601562 4.726562 L 27.601562 4.089844 L 28.335938 3.664062 L 28.347656 4.40625 L 29.808594 4.402344 L 29.800781 3.367188 L 27.601562 2.101562 L 27.601562 0.527344 L 28.335938 0.101562 L 29.808594 0.101562 L 30.546875 0.523438 L 30.546875 1.15625 L 29.804688 1.585938 L 29.796875 0.847656 L 28.335938 0.855469 L 28.34375 1.679688 L 30.546875 2.9375 L 30.546875 4.71875 L 29.804688 5.144531 Z M 24.679688 5.144531 L 23.945312 4.726562 L 23.945312 0.425781 L 24.679688 0 L 24.691406 4.40625 L 26.152344 4.402344 L 26.140625 0.0078125 L 26.890625 0.421875 L 26.890625 4.71875 L 26.148438 5.148438 Z M 20.292969 5.144531 L 20.285156 0.109375 L 22.488281 0.101562 L 23.230469 0.523438 L 23.234375 2.0625 L 22.636719 2.40625 L 23.230469 2.734375 L 23.234375 4.71875 L 22.492188 5.148438 Z M 21.027344 3.339844 L 21.027344 4.40625 L 22.488281 4.402344 L 22.480469 3.164062 L 21.902344 2.835938 Z M 21.027344 2.488281 L 22.484375 1.636719 L 22.484375 0.847656 L 21.03125 0.851562 Z M 18.832031 5.144531 L 18.824219 0.960938 L 17.910156 1.503906 L 17.910156 5.136719 L 17.175781 5.144531 L 17.171875 1.5 L 16.242188 0.96875 L 16.253906 5.140625 L 15.515625 5.148438 L 15.507812 0.109375 L 16.242188 0.101562 L 17.539062 0.859375 L 18.828125 0.105469 L 19.570312 0.105469 L 19.574219 5.144531 Z M 12.585938 5.144531 L 11.851562 4.726562 L 11.851562 0.429688 L 12.585938 0.00390625 L 12.597656 4.410156 L 14.058594 4.402344 L 14.046875 0.0078125 L 14.792969 0.421875 L 14.792969 4.71875 L 14.050781 5.148438 Z M 8.746094 5.144531 L 8.742188 0.109375 L 9.476562 0.101562 L 9.484375 4.410156 L 11.425781 4.402344 L 11.007812 5.144531 Z M 5.820312 5.144531 L 5.085938 4.726562 L 5.085938 0.527344 L 5.820312 0.101562 L 7.289062 0.101562 L 8.03125 0.519531 L 8.03125 4.71875 L 7.289062 5.144531 Z M 5.824219 4.410156 L 7.285156 4.402344 L 7.28125 0.847656 L 5.824219 0.851562 Z M 2.160156 5.144531 L 1.425781 4.726562 L 1.425781 0.527344 L 2.160156 0.101562 L 3.632812 0.101562 L 4.371094 0.523438 L 4.371094 1.15625 L 3.628906 1.585938 L 3.621094 0.847656 L 2.160156 0.855469 L 2.164062 4.410156 L 3.625 4.40625 L 3.621094 3.675781 L 4.371094 4.085938 L 4.371094 4.71875 L 3.628906 5.148438 Z M 2.160156 5.144531 "/>
</g>
</svg>
