<?xml version="1.0" encoding="UTF-8"?>
<svg xmlns="http://www.w3.org/2000/svg" xmlns:xlink="http://www.w3.org/1999/xlink" width="32px" height="32px" viewBox="0 0 32 33" version="1.1">
<g id="surface1">
<path style=" stroke:none;fill-rule:nonzero;fill:rgb(13.72549%,12.156863%,12.54902%);fill-opacity:1;" d="M 31.847656 6.304688 C 31.824219 7.296875 31.476562 8.253906 30.847656 9.035156 C 31.039062 9.714844 31.136719 10.414062 31.136719 11.117188 C 31.128906 13.292969 30.085938 14.449219 29.820312 14.839844 C 30.03125 16.171875 29.816406 17.539062 29.199219 18.746094 C 28.5 20.085938 27.546875 21.011719 26.046875 21.746094 C 26.046875 21.746094 24.914062 24.5 23.429688 26.476562 C 20.261719 30.707031 16.605469 32.738281 15.964844 32.941406 C 15.273438 32.726562 11.726562 30.726562 8.542969 26.476562 C 7.0625 24.5 5.925781 21.746094 5.925781 21.746094 C 4.429688 21.011719 3.476562 20.085938 2.777344 18.746094 C 2.160156 17.539062 1.941406 16.171875 2.152344 14.839844 C 1.886719 14.449219 0.84375 13.292969 0.839844 11.121094 C 0.835938 10.414062 0.933594 9.714844 1.125 9.035156 C 0.5 8.253906 0.148438 7.296875 0.125 6.304688 C 0.0820312 5.273438 0.3125 4.253906 0.796875 3.335938 C 0.875 3.203125 0.957031 3.074219 1.050781 2.949219 C 1.152344 3.316406 1.296875 3.671875 1.480469 4.007812 C 1.6875 4.375 1.957031 4.699219 2.28125 4.972656 C 2.691406 5.34375 3.179688 5.621094 3.710938 5.792969 L 3.703125 1.253906 C 5.84375 0.796875 10.164062 0.144531 15.972656 0.144531 C 21.78125 0.144531 26.0625 0.796875 28.269531 1.253906 L 28.265625 5.792969 C 28.792969 5.621094 29.28125 5.34375 29.691406 4.972656 C 30.015625 4.699219 30.285156 4.375 30.492188 4.007812 C 30.675781 3.671875 30.820312 3.316406 30.921875 2.949219 C 31.015625 3.074219 31.097656 3.203125 31.175781 3.335938 C 31.660156 4.253906 31.890625 5.273438 31.847656 6.304688 "/>
<path style=" stroke:none;fill-rule:nonzero;fill:rgb(100%,100%,100%);fill-opacity:1;" d="M 30.992188 4.054688 C 30.785156 4.570312 30.324219 5.054688 29.867188 5.4375 C 29.324219 5.898438 28.378906 6.320312 27.8125 6.410156 L 27.8125 1.578125 C 27.09375 1.433594 22.902344 0.570312 15.980469 0.570312 C 9.058594 0.570312 4.878906 1.433594 4.160156 1.578125 L 4.160156 6.410156 C 3.59375 6.320312 2.652344 5.898438 2.105469 5.4375 C 1.648438 5.054688 1.191406 4.570312 0.980469 4.054688 C 0.710938 4.738281 0.585938 5.46875 0.613281 6.203125 C 0.652344 7.433594 1.078125 8.132812 1.660156 8.957031 C 1.660156 8.957031 1.238281 9.835938 1.332031 11.554688 C 1.414062 13.015625 2.277344 14.199219 2.675781 14.738281 C 2.222656 17.3125 3.445312 19.058594 4.195312 19.898438 C 4.804688 20.550781 5.539062 21.082031 6.355469 21.464844 C 6.75 22.476562 7.769531 24.707031 9.148438 26.445312 C 10.820312 28.550781 13.238281 31.019531 15.960938 32.398438 C 18.6875 31.019531 21.15625 28.550781 22.824219 26.445312 C 24.203125 24.707031 25.222656 22.476562 25.617188 21.464844 C 26.433594 21.082031 27.167969 20.550781 27.777344 19.898438 C 28.53125 19.058594 29.75 17.3125 29.296875 14.738281 C 29.695312 14.199219 30.5625 13.015625 30.640625 11.554688 C 30.734375 9.835938 30.3125 8.957031 30.3125 8.957031 C 30.898438 8.132812 31.320312 7.433594 31.359375 6.203125 C 31.390625 5.46875 31.265625 4.738281 30.992188 4.054688 "/>
<path style=" stroke:none;fill-rule:nonzero;fill:rgb(13.72549%,12.156863%,12.54902%);fill-opacity:1;" d="M 6.949219 2.140625 C 6.8125 2.132812 6.671875 2.140625 6.535156 2.164062 C 6.203125 2.203125 5.414062 2.328125 5.414062 2.328125 L 5.417969 6.902344 C 5.417969 6.902344 5.894531 6.84375 6.0625 6.820312 C 6.246094 6.796875 6.800781 6.730469 6.925781 6.707031 C 7.089844 6.679688 7.246094 6.605469 7.367188 6.492188 C 7.535156 6.328125 7.625 6.105469 7.613281 5.875 L 7.609375 3.066406 C 7.617188 2.863281 7.582031 2.660156 7.507812 2.46875 C 7.4375 2.34375 7.324219 2.242188 7.1875 2.183594 C 7.109375 2.15625 7.03125 2.140625 6.949219 2.140625 Z M 6.601562 2.59375 C 6.664062 2.578125 6.730469 2.59375 6.777344 2.636719 C 6.816406 2.679688 6.824219 2.757812 6.824219 2.894531 L 6.828125 6.058594 C 6.835938 6.128906 6.816406 6.199219 6.765625 6.25 C 6.710938 6.289062 6.648438 6.3125 6.582031 6.316406 L 6.203125 6.367188 L 6.199219 2.648438 Z M 6.601562 2.59375 "/>
<path style=" stroke:none;fill-rule:nonzero;fill:rgb(13.72549%,12.156863%,12.54902%);fill-opacity:1;" d="M 8.109375 6.054688 C 8.035156 6.0625 7.964844 6.097656 7.921875 6.15625 C 7.871094 6.210938 7.847656 6.285156 7.855469 6.359375 C 7.859375 6.433594 7.894531 6.5 7.949219 6.550781 C 8.003906 6.601562 8.078125 6.625 8.152344 6.617188 C 8.226562 6.613281 8.296875 6.578125 8.34375 6.519531 C 8.441406 6.402344 8.425781 6.226562 8.308594 6.125 C 8.253906 6.074219 8.183594 6.050781 8.109375 6.054688 Z M 8.109375 6.054688 "/>
<path style=" stroke:none;fill-rule:nonzero;fill:rgb(13.72549%,12.156863%,12.54902%);fill-opacity:1;" d="M 9.878906 1.78125 C 9.738281 1.789062 9.300781 1.816406 9.03125 2.085938 C 8.859375 2.269531 8.777344 2.515625 8.796875 2.765625 L 8.796875 5.695312 C 8.792969 5.933594 8.898438 6.160156 9.085938 6.308594 C 9.171875 6.375 9.359375 6.519531 9.871094 6.472656 C 10.160156 6.464844 10.441406 6.367188 10.667969 6.1875 C 10.832031 6.046875 10.917969 5.839844 10.90625 5.625 L 10.90625 4.542969 L 10.132812 4.859375 L 10.132812 5.636719 C 10.132812 5.875 10.046875 5.980469 9.859375 6.003906 C 9.738281 6.015625 9.574219 6 9.574219 5.703125 L 9.574219 2.535156 C 9.5625 2.460938 9.585938 2.386719 9.632812 2.328125 C 9.683594 2.273438 9.753906 2.238281 9.828125 2.230469 C 9.90625 2.214844 9.988281 2.234375 10.046875 2.289062 C 10.109375 2.339844 10.136719 2.417969 10.125 2.496094 L 10.125 3.402344 L 10.898438 3.082031 L 10.898438 2.636719 C 10.914062 2.445312 10.875 2.253906 10.789062 2.085938 C 10.613281 1.824219 10.199219 1.757812 9.875 1.78125 Z M 9.878906 1.78125 "/>
<path style=" stroke:none;fill-rule:nonzero;fill:rgb(13.72549%,12.156863%,12.54902%);fill-opacity:1;" d="M 11.433594 5.78125 C 11.359375 5.789062 11.292969 5.824219 11.246094 5.882812 C 11.195312 5.9375 11.171875 6.011719 11.179688 6.085938 C 11.183594 6.160156 11.21875 6.226562 11.277344 6.273438 C 11.332031 6.324219 11.402344 6.347656 11.476562 6.34375 C 11.550781 6.339844 11.621094 6.300781 11.667969 6.246094 C 11.769531 6.128906 11.753906 5.949219 11.636719 5.847656 C 11.582031 5.800781 11.507812 5.777344 11.433594 5.78125 Z M 11.433594 5.78125 "/>
<path style=" stroke:none;fill-rule:nonzero;fill:rgb(13.72549%,12.156863%,12.54902%);fill-opacity:1;" d="M 14.394531 1.589844 L 13.597656 1.609375 L 13.597656 5.492188 C 13.597656 5.765625 13.4375 5.808594 13.277344 5.8125 C 13.082031 5.816406 12.96875 5.734375 12.96875 5.523438 L 12.96875 1.628906 L 12.183594 1.667969 L 12.183594 5.484375 C 12.183594 5.882812 12.347656 6 12.425781 6.070312 C 12.578125 6.199219 12.917969 6.285156 13.269531 6.273438 C 13.683594 6.257812 13.917969 6.171875 14.121094 6.023438 C 14.304688 5.878906 14.410156 5.65625 14.394531 5.425781 Z M 14.394531 1.589844 "/>
<path style=" stroke:none;fill-rule:nonzero;fill:rgb(13.72549%,12.156863%,12.54902%);fill-opacity:1;" d="M 15.878906 1.574219 L 15.148438 1.574219 L 15.148438 6.175781 L 15.929688 6.175781 L 15.929688 2.996094 L 16.691406 4.460938 L 16.691406 6.175781 L 17.460938 6.1875 L 17.460938 1.589844 L 16.671875 1.582031 L 16.667969 3.277344 Z M 15.878906 1.574219 "/>
<path style=" stroke:none;fill-rule:nonzero;fill:rgb(13.72549%,12.156863%,12.54902%);fill-opacity:1;" d="M 18.285156 1.609375 L 18.285156 6.207031 L 19.066406 6.25 L 19.066406 1.636719 Z M 18.285156 1.609375 "/>
<path style=" stroke:none;fill-rule:nonzero;fill:rgb(13.72549%,12.156863%,12.54902%);fill-opacity:1;" d="M 19.597656 1.660156 L 19.363281 2.121094 L 20.210938 2.167969 L 20.210938 6.300781 C 20.210938 6.300781 21.007812 6.355469 20.992188 6.355469 L 20.992188 2.214844 L 21.777344 2.265625 L 21.769531 1.796875 C 21.769531 1.796875 20.980469 1.742188 20.660156 1.722656 C 20.21875 1.699219 19.597656 1.660156 19.597656 1.660156 Z M 19.597656 1.660156 "/>
<path style=" stroke:none;fill-rule:nonzero;fill:rgb(13.72549%,12.156863%,12.54902%);fill-opacity:1;" d="M 22.152344 1.824219 L 22.152344 6.4375 C 22.152344 6.4375 22.75 6.496094 22.972656 6.519531 C 23.222656 6.542969 23.894531 6.613281 23.894531 6.613281 L 23.890625 6.09375 L 22.929688 5.984375 L 22.933594 4.324219 L 23.445312 4.375 L 23.730469 3.84375 L 22.929688 3.761719 L 22.929688 2.378906 L 23.765625 2.464844 L 23.773438 1.984375 C 23.773438 1.984375 23.234375 1.929688 22.996094 1.90625 C 22.800781 1.882812 22.152344 1.824219 22.152344 1.824219 Z M 22.152344 1.824219 "/>
<path style=" stroke:none;fill-rule:nonzero;fill:rgb(13.72549%,12.156863%,12.54902%);fill-opacity:1;" d="M 24.355469 2.058594 L 24.355469 6.679688 C 24.355469 6.679688 24.84375 6.738281 25.003906 6.765625 C 25.164062 6.789062 25.757812 6.867188 25.882812 6.871094 C 26.023438 6.886719 26.171875 6.851562 26.289062 6.773438 C 26.449219 6.675781 26.539062 6.488281 26.539062 6.222656 L 26.535156 3.398438 C 26.546875 3.179688 26.53125 2.964844 26.492188 2.75 C 26.445312 2.589844 26.332031 2.457031 26.179688 2.378906 C 26.039062 2.296875 25.796875 2.253906 25.457031 2.199219 C 25.125 2.148438 24.351562 2.058594 24.351562 2.058594 Z M 25.140625 2.609375 L 25.53125 2.664062 C 25.648438 2.679688 25.683594 2.710938 25.714844 2.773438 C 25.742188 2.855469 25.753906 2.9375 25.746094 3.023438 L 25.746094 6.179688 C 25.746094 6.269531 25.730469 6.3125 25.703125 6.335938 C 25.640625 6.367188 25.570312 6.371094 25.503906 6.351562 L 25.140625 6.304688 Z M 25.140625 2.609375 "/>
<path style=" stroke:none;fill-rule:nonzero;fill:rgb(13.72549%,12.156863%,12.54902%);fill-opacity:1;" d="M 1.285156 5.402344 C 1.09375 6.488281 1.484375 7.503906 2.082031 8.355469 C 3.035156 9.710938 4.375 10.363281 4.964844 10.679688 C 5.855469 11.160156 6.1875 11.359375 6.589844 11.652344 C 7.992188 12.679688 7.636719 13.941406 7.636719 13.941406 C 7.175781 12.921875 6.128906 12.214844 4.597656 11.472656 C 2.480469 10.449219 2.191406 9.496094 2.191406 9.496094 C 1.941406 10.4375 1.953125 11.421875 2.226562 12.355469 C 2.84375 14.414062 4.621094 15.175781 5.976562 15.917969 C 6.511719 16.191406 7.019531 16.519531 7.488281 16.894531 C 8.75 17.96875 8.519531 18.738281 8.519531 18.738281 C 8.066406 17.855469 6.699219 17.277344 5.503906 16.6875 C 3.871094 15.886719 3.347656 15.15625 3.347656 15.15625 C 3.109375 16.539062 3.546875 17.820312 4.117188 18.71875 C 4.871094 19.882812 6.027344 20.746094 7.378906 21.15625 L 24.59375 21.15625 C 25.941406 20.746094 27.097656 19.882812 27.851562 18.71875 C 28.421875 17.820312 28.859375 16.539062 28.621094 15.15625 C 28.621094 15.15625 28.097656 15.886719 26.464844 16.6875 C 25.269531 17.277344 23.902344 17.855469 23.449219 18.738281 C 23.449219 18.738281 23.214844 17.96875 24.480469 16.894531 C 24.949219 16.519531 25.457031 16.191406 25.996094 15.917969 C 27.351562 15.171875 29.121094 14.410156 29.742188 12.355469 C 30.011719 11.421875 30.027344 10.433594 29.777344 9.496094 C 29.777344 9.496094 29.488281 10.449219 27.375 11.472656 C 25.839844 12.214844 24.792969 12.921875 24.332031 13.941406 C 24.332031 13.941406 23.976562 12.679688 25.378906 11.652344 C 25.78125 11.359375 26.113281 11.160156 27.003906 10.679688 C 27.597656 10.363281 28.9375 9.707031 29.886719 8.355469 C 30.484375 7.503906 30.875 6.484375 30.683594 5.402344 C 30.683594 5.402344 30.492188 5.8125 29.769531 6.246094 C 28.890625 6.773438 27.933594 7.042969 26.585938 7.398438 C 25.3125 7.734375 23.136719 8.148438 21.851562 8.847656 C 21.253906 9.171875 20.902344 9.613281 20.890625 10.121094 C 20.859375 11.46875 22.105469 12.730469 22.105469 14.46875 C 22.105469 15.558594 21.238281 16.292969 19.742188 16.292969 C 18.628906 16.292969 18.078125 16.011719 17.804688 15.785156 C 17.511719 15.515625 17.34375 15.144531 17.34375 14.753906 C 17.324219 14.472656 17.429688 14.203125 17.628906 14.003906 C 17.828125 13.800781 18.105469 13.695312 18.394531 13.703125 C 18.726562 13.703125 19.152344 13.878906 19.230469 14.230469 C 19.367188 14.191406 19.894531 13.820312 19.894531 13.042969 C 19.894531 12.523438 19.539062 11.945312 18.558594 11.945312 C 18.300781 11.945312 18.046875 11.976562 17.796875 12.042969 C 17.824219 11.417969 17.222656 11.113281 16.574219 11.113281 C 15.898438 11.113281 15.425781 11.320312 14.078125 11.183594 C 13.769531 11.15625 13.460938 11.09375 13.164062 11 C 13.261719 11.125 13.347656 11.257812 13.414062 11.402344 C 13.511719 11.628906 13.546875 11.875 13.515625 12.117188 C 13.472656 12.539062 13.171875 12.816406 12.734375 12.992188 C 12.921875 13.082031 13.734375 13.328125 13.734375 14.4375 C 13.714844 14.949219 13.480469 15.433594 13.089844 15.773438 C 12.710938 16.109375 12.210938 16.289062 11.699219 16.28125 C 10.445312 16.28125 9.867188 15.558594 9.867188 14.46875 C 9.867188 12.730469 11.101562 11.457031 11.082031 10.121094 C 11.074219 9.613281 10.703125 9.164062 10.121094 8.847656 C 8.835938 8.152344 6.65625 7.734375 5.386719 7.398438 C 4.039062 7.042969 3.082031 6.773438 2.203125 6.246094 C 1.476562 5.8125 1.285156 5.402344 1.285156 5.402344 Z M 13.859375 11.53125 C 14.320312 11.753906 15.203125 11.753906 15.777344 11.660156 C 16.234375 11.585938 16.761719 11.507812 17.066406 11.742188 C 17.464844 12.050781 17.351562 12.578125 17.351562 12.578125 L 17.429688 12.554688 C 17.742188 12.4375 18.078125 12.378906 18.414062 12.386719 C 18.996094 12.386719 19.363281 12.566406 19.4375 12.992188 C 19.464844 13.207031 19.410156 13.429688 19.289062 13.613281 C 19.289062 13.613281 19.082031 13.222656 18.398438 13.222656 C 17.472656 13.222656 16.761719 13.824219 16.785156 14.828125 C 16.808594 15.246094 16.972656 15.644531 17.257812 15.964844 C 17.242188 15.957031 17.242188 16.003906 17.242188 16.003906 C 16.90625 15.832031 16.382812 15.664062 16.105469 15.8125 C 15.75 15.996094 15.773438 16.589844 15.835938 16.925781 L 15.769531 16.953125 C 15.675781 16.707031 15.550781 16.199219 14.824219 15.941406 C 14.515625 15.832031 14.039062 15.855469 13.605469 15.933594 C 14.03125 15.511719 14.285156 14.953125 14.3125 14.363281 C 14.3125 13.480469 13.855469 13.175781 13.613281 13 C 13.847656 12.84375 14.003906 12.601562 14.054688 12.328125 C 14.082031 12.050781 14.011719 11.769531 13.863281 11.53125 Z M 13.859375 11.53125 "/>
<path style=" stroke:none;fill-rule:nonzero;fill:rgb(13.72549%,12.156863%,12.54902%);fill-opacity:1;" d="M 15.644531 12.386719 C 15.773438 12.558594 15.914062 12.71875 16.070312 12.863281 C 16.28125 13.019531 16.628906 12.878906 16.917969 12.761719 C 17.054688 12.699219 17.328125 12.59375 17.328125 12.59375 C 17.230469 12.53125 17.125 12.480469 17.011719 12.449219 C 16.761719 12.386719 16.503906 12.363281 16.246094 12.386719 C 15.984375 12.394531 15.644531 12.386719 15.644531 12.386719 Z M 15.644531 12.386719 "/>
<path style=" stroke:none;fill-rule:nonzero;fill:rgb(13.72549%,12.156863%,12.54902%);fill-opacity:1;" d="M 13.175781 23.796875 C 13.292969 24.03125 13.351562 24.285156 13.355469 24.542969 C 13.367188 24.878906 13.320312 25.210938 13.214844 25.527344 L 18.742188 25.527344 C 18.636719 25.210938 18.589844 24.878906 18.601562 24.542969 C 18.605469 24.285156 18.671875 24.027344 18.785156 23.796875 Z M 13.175781 23.796875 "/>
<path style=" stroke:none;fill-rule:nonzero;fill:rgb(13.72549%,12.156863%,12.54902%);fill-opacity:1;" d="M 11.695312 28.15625 C 12.710938 29.277344 14.789062 30.996094 15.957031 31.597656 C 17.246094 30.933594 19.277344 29.085938 20.328125 28.15625 Z M 11.695312 28.15625 "/>
<path style=" stroke:none;fill-rule:nonzero;fill:rgb(93.72549%,24.313725%,25.882353%);fill-opacity:1;" d="M 21.730469 22.078125 C 23.03125 21.671875 24.578125 21.15625 24.578125 21.15625 L 7.378906 21.15625 C 7.378906 21.15625 8.96875 21.699219 10.277344 22.085938 C 11.40625 22.417969 12.761719 22.890625 13.179688 23.796875 L 18.792969 23.796875 C 19.25 22.890625 20.609375 22.429688 21.726562 22.082031 M 12.613281 26.84375 C 12.339844 27.300781 12.035156 27.738281 11.703125 28.15625 L 20.324219 28.15625 C 20.140625 27.898438 19.746094 27.410156 19.394531 26.84375 C 19.121094 26.433594 18.902344 25.992188 18.746094 25.53125 L 13.214844 25.53125 C 13.058594 25.988281 12.859375 26.425781 12.613281 26.84375 M 20.316406 18.878906 L 19.371094 18.878906 L 20.136719 19.421875 L 19.84375 20.296875 L 20.609375 19.757812 L 21.375 20.296875 L 21.082031 19.421875 L 21.847656 18.878906 L 20.902344 18.878906 L 20.609375 18.003906 Z M 15.652344 18.878906 L 14.703125 18.878906 L 15.46875 19.421875 L 15.175781 20.296875 L 15.945312 19.757812 L 16.707031 20.296875 L 16.417969 19.421875 L 17.183594 18.878906 L 16.234375 18.878906 L 15.945312 18.003906 Z M 11.214844 18.003906 L 11.507812 18.878906 L 12.453125 18.878906 L 11.6875 19.421875 L 11.980469 20.296875 L 11.214844 19.757812 L 10.449219 20.296875 L 10.742188 19.421875 L 9.976562 18.878906 L 10.921875 18.878906 Z M 11.214844 18.003906 "/>
<path style=" stroke:none;fill-rule:nonzero;fill:rgb(13.72549%,12.156863%,12.54902%);fill-opacity:1;" d="M 15.957031 7.136719 C 13.269531 7.144531 10.585938 7.28125 7.914062 7.550781 C 7.914062 7.550781 9.40625 7.890625 10.527344 8.472656 C 11.1875 8.816406 11.636719 9.359375 11.675781 9.9375 C 11.734375 10.78125 11.320312 11.691406 11.070312 12.253906 C 10.664062 13.171875 10.449219 13.914062 10.453125 14.476562 C 10.449219 14.769531 10.535156 15.054688 10.695312 15.300781 C 10.871094 15.542969 11.140625 15.785156 11.746094 15.785156 C 12.761719 15.785156 13.148438 14.90625 13.148438 14.378906 C 13.15625 14.011719 12.976562 13.664062 12.675781 13.449219 C 12.421875 13.246094 12.128906 13.09375 11.820312 12.996094 C 11.820312 12.996094 12.988281 12.628906 12.988281 11.96875 C 12.988281 11.425781 12.648438 10.804688 12.210938 10.351562 L 12.238281 10.324219 C 12.535156 10.457031 12.84375 10.554688 13.164062 10.613281 C 13.707031 10.703125 14.261719 10.746094 14.8125 10.746094 C 15.710938 10.746094 16.121094 10.640625 16.785156 10.640625 C 17.476562 10.640625 18.089844 10.960938 18.238281 11.570312 C 18.480469 11.539062 18.726562 11.535156 18.972656 11.554688 C 19.792969 11.636719 20.355469 12.199219 20.371094 12.929688 C 20.410156 13.839844 19.792969 14.652344 18.886719 14.875 C 18.921875 14.785156 18.929688 14.683594 18.910156 14.585938 C 18.878906 14.359375 18.683594 14.191406 18.449219 14.179688 C 18.066406 14.179688 17.871094 14.488281 17.886719 14.796875 C 17.914062 15.464844 18.6875 15.753906 19.464844 15.796875 C 19.585938 15.800781 19.667969 15.804688 19.78125 15.804688 C 20.503906 15.785156 20.953125 15.609375 21.214844 15.292969 C 21.386719 15.054688 21.480469 14.769531 21.472656 14.476562 C 21.480469 13.914062 21.265625 13.171875 20.859375 12.253906 C 20.609375 11.691406 20.191406 10.78125 20.25 9.9375 C 20.292969 9.359375 20.742188 8.820312 21.402344 8.472656 C 22.503906 7.890625 24.015625 7.550781 24.015625 7.550781 C 21.632812 7.320312 18.839844 7.136719 15.957031 7.136719 Z M 15.957031 7.136719 "/>
<path style=" stroke:none;fill-rule:nonzero;fill:rgb(13.72549%,12.156863%,12.54902%);fill-opacity:1;" d="M 24.691406 21.871094 C 23.632812 22.269531 22.691406 22.554688 21.796875 22.832031 C 20.6875 23.171875 19.207031 23.621094 19.128906 24.492188 C 19.027344 25.59375 20.527344 27.199219 20.90625 27.566406 C 21.734375 26.710938 22.480469 25.777344 23.132812 24.785156 C 23.738281 23.859375 24.257812 22.882812 24.691406 21.871094 Z M 24.691406 21.871094 "/>
<path style=" stroke:none;fill-rule:nonzero;fill:rgb(13.72549%,12.156863%,12.54902%);fill-opacity:1;" d="M 7.289062 21.878906 C 8.183594 23.992188 9.472656 25.925781 11.085938 27.585938 C 11.511719 27.15625 12.851562 25.605469 12.851562 24.5 C 12.851562 23.648438 11.292969 23.1875 10.183594 22.847656 C 9.320312 22.585938 8.347656 22.273438 7.289062 21.878906 Z M 7.289062 21.878906 "/>
</g>
</svg>
