<?xml version="1.0" encoding="UTF-8"?>
<svg xmlns="http://www.w3.org/2000/svg" xmlns:xlink="http://www.w3.org/1999/xlink" width="32px" height="32px" viewBox="0 0 32 33" version="1.1">
<g id="surface1">
<path style=" stroke:none;fill-rule:evenodd;fill:rgb(100%,100%,100%);fill-opacity:1;" d="M 28.492188 2.335938 C 29.417969 4.949219 31.433594 12.039062 31.328125 18.328125 C 27.875 24.03125 21.980469 29.054688 15.988281 32.257812 C 9.996094 29.054688 4.097656 24.03125 0.648438 18.328125 C 0.539062 12.039062 2.558594 4.949219 3.484375 2.335938 C 11.429688 0.09375 20.609375 0.09375 28.492188 2.335938 Z M 28.492188 2.335938 "/>
<path style=" stroke:none;fill-rule:evenodd;fill:rgb(4.313725%,12.156863%,25.490196%);fill-opacity:1;" d="M 28.492188 2.335938 C 29.417969 4.949219 31.433594 12.039062 31.328125 18.328125 C 27.875 24.03125 21.980469 29.054688 15.988281 32.257812 C 9.996094 29.054688 4.097656 24.03125 0.648438 18.328125 C 0.539062 12.039062 2.558594 4.949219 3.484375 2.335938 C 11.429688 0.09375 20.609375 0.09375 28.492188 2.335938 Z M 2.992188 1.808594 C 11.589844 -0.601562 20.003906 -0.601562 28.980469 1.808594 C 30.019531 4.601562 32.113281 12.097656 31.964844 18.503906 C 28.289062 24.859375 21.21875 30.296875 15.988281 32.980469 C 10.753906 30.296875 3.683594 24.859375 0.0078125 18.503906 C -0.140625 12.097656 1.953125 4.605469 2.992188 1.808594 Z M 2.992188 1.808594 "/>
<path style=" stroke:none;fill-rule:nonzero;fill:rgb(4.313725%,12.156863%,25.490196%);fill-opacity:1;" d="M 9.441406 15.773438 L 8.816406 13.9375 L 8.0625 14.371094 L 8.0625 18.457031 L 8.808594 18.03125 L 8.808594 16.019531 L 9.410156 17.6875 L 10.175781 17.25 L 10.175781 13.160156 L 9.441406 13.582031 Z M 9.441406 15.773438 "/>
<path style=" stroke:none;fill-rule:nonzero;fill:rgb(4.313725%,12.156863%,25.490196%);fill-opacity:1;" d="M 26.574219 3.808594 L 26.574219 7.894531 L 27.40625 7.421875 L 27.40625 3.332031 Z M 26.574219 3.808594 "/>
<path style=" stroke:none;fill-rule:nonzero;fill:rgb(4.313725%,12.156863%,25.490196%);fill-opacity:1;" d="M 12.015625 12.011719 C 11.40625 12.359375 11 13.023438 11.003906 13.429688 L 11.003906 15.714844 C 11.003906 16.132812 11.402344 16.539062 12.035156 16.238281 C 13.042969 15.757812 13.023438 15.242188 13.019531 14.839844 L 13.019531 14.269531 L 12.195312 14.742188 L 12.195312 15.316406 L 11.828125 15.523438 L 11.828125 13 L 12.195312 12.789062 L 12.195312 13.589844 L 13.019531 13.125 L 13.019531 12.285156 C 13.019531 11.878906 12.613281 11.671875 12.015625 12.011719 Z M 12.015625 12.011719 "/>
<path style=" stroke:none;fill-rule:nonzero;fill:rgb(4.313725%,12.156863%,25.490196%);fill-opacity:1;" d="M 4.554688 16.269531 C 3.949219 16.613281 3.539062 17.277344 3.542969 17.683594 L 3.542969 19.972656 C 3.542969 20.386719 3.945312 20.796875 4.574219 20.496094 C 5.585938 20.011719 5.5625 19.5 5.5625 19.09375 L 5.5625 18.523438 L 4.734375 18.996094 L 4.734375 19.570312 L 4.371094 19.777344 L 4.371094 17.253906 L 4.734375 17.046875 L 4.734375 17.847656 L 5.5625 17.378906 L 5.5625 16.539062 C 5.558594 16.136719 5.152344 15.925781 4.554688 16.269531 Z M 4.554688 16.269531 "/>
<path style=" stroke:none;fill-rule:nonzero;fill:rgb(4.313725%,12.156863%,25.490196%);fill-opacity:1;" d="M 13.796875 15.1875 L 14.625 14.714844 L 14.625 10.625 L 13.796875 11.101562 Z M 13.796875 15.1875 "/>
<path style=" stroke:none;fill-rule:nonzero;fill:rgb(4.313725%,12.156863%,25.490196%);fill-opacity:1;" d="M 6.335938 19.441406 L 7.167969 18.96875 L 7.167969 14.878906 L 6.335938 15.355469 Z M 6.335938 19.441406 "/>
<path style=" stroke:none;fill-rule:nonzero;fill:rgb(4.313725%,12.156863%,25.490196%);fill-opacity:1;" d="M 23.8125 6.164062 L 24.382812 5.839844 L 24.382812 9.144531 L 25.214844 8.671875 L 25.214844 5.367188 L 25.785156 5.039062 L 25.785156 4.257812 L 23.8125 5.382812 Z M 23.8125 6.164062 "/>
<path style=" stroke:none;fill-rule:nonzero;fill:rgb(4.313725%,12.156863%,25.490196%);fill-opacity:1;" d="M 16.898438 11.519531 L 16.277344 9.6875 L 15.519531 10.117188 L 15.519531 14.203125 L 16.269531 13.777344 L 16.269531 11.769531 L 16.867188 13.433594 L 17.636719 12.996094 L 17.636719 8.910156 L 16.898438 9.328125 Z M 16.898438 11.519531 "/>
<path style=" stroke:none;fill-rule:nonzero;fill:rgb(4.313725%,12.156863%,25.490196%);fill-opacity:1;" d="M 19.894531 9.808594 L 19.269531 7.976562 L 18.515625 8.40625 L 18.515625 12.492188 L 19.261719 12.066406 L 19.261719 10.058594 L 19.863281 11.722656 L 20.632812 11.285156 L 20.632812 7.199219 L 19.894531 7.617188 Z M 19.894531 9.808594 "/>
<path style=" stroke:none;fill-rule:nonzero;fill:rgb(4.313725%,12.156863%,25.490196%);fill-opacity:1;" d="M 21.9375 6.460938 L 21.402344 10.84375 L 22.214844 10.378906 L 22.273438 9.652344 L 22.746094 9.371094 L 22.828125 10.027344 L 23.628906 9.574219 L 22.996094 5.847656 Z M 22.285156 8.910156 L 22.507812 7.324219 L 22.660156 8.679688 Z M 22.285156 8.910156 "/>
<path style=" stroke:none;fill-rule:evenodd;fill:rgb(14.901961%,23.137255%,50.196078%);fill-opacity:1;" d="M 24.660156 2.832031 L 2.09375 15.707031 C 2.417969 10.996094 3.6875 6.105469 4.550781 3.464844 C 11.492188 1.640625 18.613281 1.703125 24.660156 2.832031 Z M 7.261719 5.429688 L 7.261719 6.34375 L 7.816406 6.34375 L 7.816406 7.085938 L 7.261719 7.085938 L 7.261719 8.882812 L 6.335938 9.414062 L 6.335938 4.71875 L 8.15625 4.71875 L 8.15625 5.429688 Z M 10.875 7.027344 L 10.875 8.046875 C 10.875 8.453125 10.4375 8.882812 9.769531 8.882812 C 9.089844 8.882812 8.632812 8.453125 8.632812 8.046875 L 8.632812 5.480469 C 8.632812 5.074219 9.089844 4.644531 9.769531 4.644531 C 10.4375 4.644531 10.875 5.074219 10.875 5.480469 L 10.875 5.8125 L 9.960938 6.332031 L 9.960938 5.308594 L 9.570312 5.535156 L 9.570312 8.21875 L 9.960938 7.996094 L 9.960938 7.546875 Z M 10.875 7.027344 "/>
<path style=" stroke:none;fill-rule:evenodd;fill:rgb(94.117647%,32.54902%,13.72549%);fill-opacity:1;" d="M 5.078125 21.976562 L 28.773438 8.460938 C 29.425781 11.363281 29.964844 14.757812 29.953125 17.933594 C 26.453125 23.546875 21.054688 27.777344 15.988281 30.695312 C 10.960938 27.777344 7.859375 25.113281 5.078125 21.976562 Z M 21.542969 18.390625 C 21.769531 18.328125 21.984375 18.21875 22.167969 18.070312 C 22.179688 18.34375 22.117188 18.617188 21.988281 18.859375 C 21.863281 18.679688 21.714844 18.523438 21.542969 18.390625 Z M 16.835938 18.765625 L 17.554688 18.355469 C 17.328125 18.292969 17.117188 18.175781 16.945312 18.015625 L 18.871094 16.914062 L 18.648438 16.605469 L 21.617188 16.605469 L 21.800781 16.914062 C 21.800781 16.914062 22.292969 17.03125 22.574219 17.304688 L 22.117188 17.375 L 22.34375 17.628906 C 22.171875 17.839844 21.726562 18.117188 21.304688 18.203125 C 21.101562 18.066406 20.886719 17.945312 20.664062 17.847656 L 21.375 17.441406 C 21.375 17.441406 20.964844 17.1875 20.003906 16.917969 C 20.261719 17.082031 20.511719 17.261719 20.742188 17.464844 L 20.125 17.816406 C 20.125 17.816406 21.214844 18.316406 21.8125 19.382812 L 21.089844 19.398438 C 21.089844 19.398438 20.253906 20.9375 18.929688 21.8125 L 18.929688 20.9375 C 18.929688 20.9375 18.058594 20.84375 17.566406 20.46875 L 18.050781 20.179688 C 17.648438 20.089844 17.28125 19.878906 17 19.578125 L 17.636719 19.222656 C 17.636719 19.222656 17.253906 19.171875 16.835938 18.765625 Z M 20.933594 16.816406 C 21.105469 17.019531 21.363281 17.132812 21.632812 17.125 L 21.4375 16.835938 Z M 13.59375 24.246094 L 13.664062 24.875 C 13.238281 25.15625 12.125 25.789062 11.238281 25.355469 C 10.570312 25.03125 10.425781 24.09375 10.921875 23.300781 C 11.503906 22.378906 12.4375 22.359375 12.953125 22.699219 C 12.855469 23.121094 12.585938 23.484375 12.210938 23.703125 L 12.347656 23.15625 C 12.035156 22.996094 11.628906 23.140625 11.394531 23.519531 C 11.082031 24.03125 11.171875 24.617188 11.59375 24.832031 C 12.296875 25.183594 13.59375 24.246094 13.59375 24.246094 Z M 24.796875 21.675781 C 24.796875 21.675781 25.246094 21.671875 25.28125 22.0625 C 25.160156 22 25.019531 21.988281 24.886719 22.03125 C 24.523438 22.160156 24.132812 22.203125 23.746094 22.15625 L 22.792969 23.171875 C 22.808594 23.328125 22.832031 23.480469 22.863281 23.632812 C 22.289062 23.421875 21.742188 23.140625 21.242188 22.789062 L 21.578125 23.390625 C 21.578125 23.390625 21.320312 24.050781 19.925781 24.933594 L 19.871094 24.339844 C 19.871094 24.339844 18.476562 23.46875 17.632812 23.640625 C 16.832031 25.089844 15.417969 24.910156 15.417969 24.910156 L 15.023438 26.304688 C 15.023438 26.304688 16.347656 26.480469 16.085938 27.539062 L 15.722656 27.324219 C 15.738281 27.488281 15.65625 27.648438 15.515625 27.734375 L 15.21875 27.328125 C 15.332031 27.664062 14.785156 27.800781 14.785156 27.800781 C 14.785156 27.800781 14.757812 27.4375 14.644531 27.292969 L 14.222656 26.769531 L 13.824219 23.472656 L 14.324219 23.683594 C 15.054688 23.074219 15.625 22.300781 15.992188 21.429688 C 15.992188 21.429688 17.703125 22.292969 18.917969 22.15625 C 19.175781 22.121094 20.511719 21.191406 21.289062 19.699219 L 21.902344 19.683594 C 22.199219 20.160156 22.40625 20.691406 22.511719 21.242188 L 22.074219 21.160156 C 22.179688 21.390625 22.265625 21.632812 22.320312 21.878906 L 23.453125 21.226562 C 24.128906 20.832031 25.09375 20.757812 25.234375 21.15625 C 25.234375 21.15625 24.917969 21.132812 24.84375 21.273438 C 24.84375 21.273438 25.273438 21.242188 25.316406 21.601562 C 25.316406 21.601562 24.949219 21.496094 24.796875 21.675781 Z M 18.671875 26.964844 L 18.398438 26.761719 C 18.425781 26.890625 18.378906 27.027344 18.277344 27.109375 C 18.207031 26.996094 18.117188 26.890625 18.011719 26.804688 C 18.019531 27.007812 17.71875 27.175781 17.71875 27.175781 C 17.691406 27.050781 17.628906 26.929688 17.539062 26.835938 L 17.160156 26.476562 L 16.121094 25.089844 C 17.253906 25.027344 17.851562 23.917969 17.851562 23.917969 C 19.328125 25.316406 17.496094 25.632812 17.496094 25.632812 L 17.609375 26.128906 C 17.609375 26.128906 18.851562 26.039062 18.671875 26.964844 Z M 22.25 19.589844 C 22.453125 19.859375 22.703125 20.472656 22.847656 21.140625 L 23.386719 20.296875 L 23.566406 20.707031 C 23.921875 20.058594 24.257812 19.457031 24.4375 19.140625 C 24.511719 19.175781 24.59375 19.199219 24.675781 19.203125 L 24.675781 19.4375 C 24.648438 19.496094 24.636719 19.558594 24.636719 19.625 C 24.691406 19.707031 24.765625 19.773438 24.851562 19.820312 C 24.9375 19.773438 25.011719 19.707031 25.066406 19.625 C 25.066406 19.558594 25.054688 19.496094 25.027344 19.4375 L 25.027344 19.203125 C 25.097656 19.191406 25.171875 19.167969 25.253906 19.148438 C 25.363281 18.875 25.316406 18.472656 25.316406 18.472656 C 25.386719 18.390625 25.441406 18.296875 25.472656 18.195312 C 25.351562 18.082031 25.195312 18.011719 25.027344 18 L 25.027344 17.976562 L 25.535156 17.667969 L 25.535156 17.332031 L 25.214844 17.523438 L 25.210938 13.347656 L 24.847656 12.960938 L 24.484375 13.324219 L 24.488281 17.527344 L 24.136719 17.3125 L 24.136719 17.667969 L 24.652344 17.953125 L 24.652344 17.980469 C 24.496094 17.96875 24.339844 18.007812 24.207031 18.09375 C 24.21875 18.203125 24.257812 18.3125 24.320312 18.410156 Z M 15.191406 20.460938 L 13.699219 21.296875 C 14.03125 21.527344 15.050781 21.371094 15.792969 20.96875 C 15.792969 20.96875 17.40625 21.839844 18.609375 21.847656 C 18.609375 21.847656 18.605469 21.1875 18.605469 21.1875 C 16.382812 20.660156 15.730469 19.097656 15.304688 17.996094 L 10.859375 20.527344 C 11.433594 20.992188 13.136719 20.144531 14.488281 19.414062 C 14.515625 19.472656 14.550781 19.539062 14.589844 19.609375 L 12.238281 20.953125 C 12.824219 21.40625 14.011719 20.757812 15.039062 20.289062 C 15.085938 20.347656 15.140625 20.402344 15.191406 20.460938 Z M 21.445312 15.742188 C 21.375 15.636719 21.28125 15.550781 21.171875 15.492188 C 21.0625 15.554688 20.96875 15.636719 20.898438 15.742188 C 20.902344 15.839844 20.917969 15.933594 20.949219 16.023438 L 20.636719 16.023438 C 20.679688 15.886719 20.703125 15.746094 20.707031 15.601562 C 20.59375 15.433594 20.441406 15.292969 20.261719 15.199219 C 20.082031 15.296875 19.929688 15.433594 19.816406 15.605469 C 19.820312 15.746094 19.84375 15.890625 19.886719 16.027344 L 19.578125 16.027344 C 19.605469 15.933594 19.621094 15.839844 19.625 15.742188 C 19.558594 15.640625 19.464844 15.554688 19.351562 15.496094 C 19.242188 15.554688 19.148438 15.640625 19.082031 15.746094 C 19.082031 15.839844 19.101562 15.9375 19.128906 16.027344 L 19.132812 16.375 L 21.394531 16.371094 L 21.394531 16.023438 C 21.425781 15.933594 21.441406 15.839844 21.445312 15.742188 Z M 21.445312 15.742188 "/>
</g>
</svg>
