<?xml version="1.0" encoding="UTF-8"?>
<svg xmlns="http://www.w3.org/2000/svg" xmlns:xlink="http://www.w3.org/1999/xlink" width="32px" height="32px" viewBox="0 0 32 32" version="1.1">
<g id="surface1">
<path style=" stroke:none;fill-rule:nonzero;fill:rgb(96.470588%,70.588235%,80.392157%);fill-opacity:1;" d="M 15.5625 0.015625 C 15.46875 0.015625 15.226562 0.03125 15.027344 0.0390625 C 14.824219 0.0507812 14.527344 0.0742188 14.367188 0.09375 C 14.203125 0.109375 13.910156 0.144531 13.707031 0.175781 C 13.507812 0.203125 13.136719 0.265625 12.886719 0.316406 C 12.632812 0.367188 12.238281 0.457031 12.003906 0.515625 C 11.769531 0.574219 11.398438 0.683594 11.179688 0.75 C 10.964844 0.820312 10.644531 0.929688 10.46875 0.992188 C 10.296875 1.058594 10.023438 1.164062 9.863281 1.234375 C 9.699219 1.300781 9.417969 1.425781 9.234375 1.511719 C 9.046875 1.597656 8.785156 1.726562 8.644531 1.796875 C 8.503906 1.871094 8.253906 2.007812 8.085938 2.105469 C 7.917969 2.199219 7.664062 2.355469 7.515625 2.445312 C 7.371094 2.535156 7.148438 2.679688 7.019531 2.769531 C 6.894531 2.855469 6.613281 3.054688 6.402344 3.214844 C 6.191406 3.375 5.917969 3.585938 5.792969 3.691406 C 5.671875 3.792969 5.5 3.9375 5.417969 4.011719 C 5.335938 4.085938 5.136719 4.265625 4.980469 4.414062 C 4.824219 4.558594 4.578125 4.804688 4.433594 4.960938 C 4.285156 5.113281 4.125 5.289062 4.078125 5.34375 C 4.027344 5.398438 3.980469 5.449219 3.976562 5.457031 C 3.96875 5.460938 3.871094 5.578125 3.75 5.71875 C 3.632812 5.859375 3.445312 6.089844 3.335938 6.234375 C 3.222656 6.378906 3.066406 6.585938 2.992188 6.691406 C 2.914062 6.796875 2.742188 7.054688 2.605469 7.261719 C 2.46875 7.464844 2.265625 7.796875 2.152344 7.988281 C 2.039062 8.1875 1.847656 8.542969 1.726562 8.78125 C 1.605469 9.019531 1.445312 9.355469 1.371094 9.519531 C 1.296875 9.6875 1.175781 9.972656 1.105469 10.148438 C 1.035156 10.328125 0.921875 10.636719 0.855469 10.839844 C 0.785156 11.039062 0.683594 11.359375 0.628906 11.546875 C 0.574219 11.738281 0.496094 12.023438 0.457031 12.179688 C 0.417969 12.335938 0.351562 12.644531 0.304688 12.867188 C 0.261719 13.089844 0.195312 13.464844 0.164062 13.699219 C 0.128906 13.933594 0.0898438 14.265625 0.0703125 14.4375 C 0.0546875 14.609375 0.03125 14.90625 0.0195312 15.097656 C 0.0078125 15.285156 0 15.691406 0 16 C 0 16.308594 0.0078125 16.714844 0.0195312 16.902344 C 0.03125 17.09375 0.0546875 17.390625 0.0703125 17.5625 C 0.0898438 17.734375 0.128906 18.066406 0.164062 18.300781 C 0.195312 18.535156 0.261719 18.910156 0.304688 19.132812 C 0.351562 19.355469 0.417969 19.664062 0.457031 19.820312 C 0.496094 19.976562 0.574219 20.261719 0.628906 20.453125 C 0.683594 20.640625 0.785156 20.960938 0.855469 21.160156 C 0.921875 21.363281 1.035156 21.671875 1.105469 21.851562 C 1.175781 22.027344 1.296875 22.3125 1.371094 22.480469 C 1.445312 22.644531 1.605469 22.980469 1.726562 23.21875 C 1.847656 23.457031 2.039062 23.8125 2.152344 24.011719 C 2.265625 24.203125 2.46875 24.535156 2.605469 24.738281 C 2.742188 24.945312 2.914062 25.203125 2.992188 25.308594 C 3.066406 25.414062 3.222656 25.621094 3.335938 25.765625 C 3.445312 25.910156 3.636719 26.140625 3.75 26.28125 C 3.871094 26.421875 4.003906 26.574219 4.046875 26.625 C 4.09375 26.675781 4.191406 26.785156 4.269531 26.867188 C 4.347656 26.953125 4.46875 27.078125 4.535156 27.148438 C 4.601562 27.222656 4.792969 27.410156 4.960938 27.566406 C 5.128906 27.722656 5.335938 27.914062 5.417969 27.988281 C 5.5 28.0625 5.671875 28.207031 5.792969 28.308594 C 5.917969 28.414062 6.191406 28.625 6.402344 28.785156 C 6.613281 28.945312 6.894531 29.144531 7.019531 29.234375 C 7.148438 29.320312 7.371094 29.464844 7.515625 29.554688 C 7.664062 29.644531 7.917969 29.800781 8.085938 29.894531 C 8.253906 29.992188 8.511719 30.132812 8.664062 30.210938 C 8.816406 30.289062 9.117188 30.4375 9.332031 30.535156 C 9.550781 30.636719 9.878906 30.777344 10.066406 30.851562 C 10.25 30.921875 10.503906 31.019531 10.632812 31.066406 C 10.761719 31.113281 11.027344 31.203125 11.222656 31.261719 C 11.417969 31.324219 11.769531 31.425781 12.003906 31.484375 C 12.238281 31.542969 12.613281 31.628906 12.835938 31.675781 C 13.058594 31.71875 13.386719 31.777344 13.566406 31.804688 C 13.742188 31.832031 14.015625 31.871094 14.171875 31.886719 C 14.328125 31.902344 14.5625 31.925781 14.691406 31.9375 C 14.820312 31.949219 15.160156 31.96875 15.453125 31.980469 C 15.816406 31.996094 16.148438 31.996094 16.527344 31.980469 C 16.828125 31.96875 17.226562 31.945312 17.410156 31.929688 C 17.59375 31.910156 17.859375 31.882812 18 31.867188 C 18.136719 31.847656 18.433594 31.804688 18.660156 31.765625 C 18.882812 31.730469 19.25 31.660156 19.480469 31.605469 C 19.710938 31.554688 20.074219 31.464844 20.292969 31.40625 C 20.507812 31.34375 20.855469 31.238281 21.0625 31.167969 C 21.269531 31.101562 21.609375 30.976562 21.8125 30.894531 C 22.019531 30.8125 22.3125 30.691406 22.460938 30.625 C 22.613281 30.558594 22.914062 30.414062 23.132812 30.304688 C 23.351562 30.199219 23.609375 30.0625 23.710938 30.007812 C 23.8125 29.949219 24.015625 29.832031 24.167969 29.742188 C 24.316406 29.652344 24.609375 29.46875 24.816406 29.332031 C 25.023438 29.195312 25.324219 28.988281 25.484375 28.867188 C 25.648438 28.746094 25.894531 28.554688 26.035156 28.441406 C 26.171875 28.332031 26.398438 28.144531 26.53125 28.027344 C 26.664062 27.90625 26.867188 27.726562 26.976562 27.621094 C 27.085938 27.511719 27.230469 27.375 27.289062 27.316406 C 27.355469 27.253906 27.488281 27.117188 27.585938 27.011719 C 27.6875 26.90625 27.847656 26.730469 27.945312 26.625 C 28.039062 26.519531 28.203125 26.328125 28.308594 26.199219 C 28.414062 26.074219 28.566406 25.886719 28.644531 25.785156 C 28.722656 25.683594 28.863281 25.5 28.949219 25.378906 C 29.039062 25.253906 29.203125 25.019531 29.316406 24.851562 C 29.425781 24.683594 29.613281 24.386719 29.730469 24.191406 C 29.847656 23.996094 30.019531 23.695312 30.113281 23.523438 C 30.207031 23.351562 30.34375 23.078125 30.421875 22.914062 C 30.5 22.753906 30.621094 22.488281 30.691406 22.328125 C 30.757812 22.164062 30.867188 21.902344 30.929688 21.738281 C 30.992188 21.578125 31.085938 21.320312 31.136719 21.171875 C 31.1875 21.019531 31.269531 20.765625 31.320312 20.601562 C 31.367188 20.441406 31.449219 20.148438 31.5 19.953125 C 31.550781 19.757812 31.628906 19.421875 31.671875 19.203125 C 31.71875 18.984375 31.78125 18.625 31.8125 18.402344 C 31.847656 18.179688 31.894531 17.808594 31.917969 17.582031 C 31.941406 17.351562 31.96875 16.988281 31.980469 16.769531 C 31.992188 16.554688 32 16.207031 32 16 C 32 15.792969 31.992188 15.445312 31.980469 15.230469 C 31.96875 15.011719 31.941406 14.648438 31.917969 14.417969 C 31.894531 14.191406 31.851562 13.847656 31.824219 13.65625 C 31.796875 13.46875 31.742188 13.148438 31.703125 12.949219 C 31.664062 12.746094 31.589844 12.417969 31.542969 12.21875 C 31.496094 12.015625 31.421875 11.738281 31.378906 11.597656 C 31.339844 11.460938 31.265625 11.21875 31.214844 11.0625 C 31.164062 10.90625 31.0625 10.617188 30.992188 10.421875 C 30.917969 10.226562 30.792969 9.914062 30.710938 9.722656 C 30.628906 9.535156 30.5 9.246094 30.421875 9.085938 C 30.347656 8.921875 30.207031 8.648438 30.113281 8.476562 C 30.019531 8.304688 29.847656 8.003906 29.730469 7.808594 C 29.613281 7.613281 29.425781 7.316406 29.316406 7.148438 C 29.203125 6.980469 29.039062 6.746094 28.949219 6.621094 C 28.863281 6.5 28.722656 6.316406 28.644531 6.214844 C 28.566406 6.113281 28.414062 5.925781 28.308594 5.800781 C 28.203125 5.671875 28.039062 5.480469 27.945312 5.375 C 27.847656 5.269531 27.6875 5.09375 27.585938 4.988281 C 27.488281 4.882812 27.351562 4.742188 27.28125 4.675781 C 27.214844 4.613281 27.074219 4.476562 26.96875 4.371094 C 26.859375 4.269531 26.664062 4.09375 26.53125 3.972656 C 26.398438 3.855469 26.171875 3.667969 26.035156 3.558594 C 25.894531 3.445312 25.648438 3.253906 25.484375 3.132812 C 25.324219 3.011719 25.023438 2.804688 24.816406 2.667969 C 24.609375 2.53125 24.316406 2.347656 24.167969 2.257812 C 24.015625 2.167969 23.8125 2.050781 23.710938 1.992188 C 23.609375 1.9375 23.359375 1.808594 23.152344 1.703125 C 22.945312 1.601562 22.648438 1.460938 22.492188 1.390625 C 22.335938 1.320312 22.035156 1.191406 21.824219 1.109375 C 21.613281 1.023438 21.269531 0.898438 21.0625 0.832031 C 20.855469 0.761719 20.507812 0.65625 20.292969 0.59375 C 20.074219 0.535156 19.714844 0.445312 19.492188 0.394531 C 19.265625 0.34375 18.925781 0.277344 18.730469 0.246094 C 18.535156 0.210938 18.230469 0.164062 18.058594 0.140625 C 17.886719 0.121094 17.59375 0.0898438 17.410156 0.0703125 C 17.226562 0.0546875 16.84375 0.03125 16.558594 0.0195312 C 16.273438 0.0117188 15.972656 0.00390625 15.886719 0.00390625 C 15.804688 0.0078125 15.660156 0.0117188 15.5625 0.015625 Z M 15.5625 0.015625 "/>
<path style=" stroke:none;fill-rule:nonzero;fill:rgb(0%,0.392157%,0%);fill-opacity:1;" d="M 15.300781 0.609375 C 15.105469 0.617188 14.785156 0.640625 14.589844 0.660156 C 14.394531 0.675781 14.046875 0.71875 13.8125 0.75 C 13.582031 0.785156 13.207031 0.847656 12.980469 0.894531 C 12.753906 0.9375 12.40625 1.015625 12.207031 1.066406 C 12.003906 1.117188 11.667969 1.214844 11.453125 1.277344 C 11.242188 1.34375 10.910156 1.457031 10.714844 1.527344 C 10.519531 1.597656 10.191406 1.730469 9.984375 1.816406 C 9.777344 1.902344 9.433594 2.0625 9.222656 2.164062 C 9.011719 2.269531 8.734375 2.410156 8.613281 2.476562 C 8.492188 2.546875 8.265625 2.675781 8.117188 2.765625 C 7.964844 2.855469 7.664062 3.046875 7.445312 3.191406 C 7.230469 3.335938 6.910156 3.5625 6.738281 3.691406 C 6.5625 3.824219 6.300781 4.035156 6.148438 4.160156 C 6 4.285156 5.746094 4.503906 5.589844 4.644531 C 5.433594 4.789062 5.171875 5.039062 5.011719 5.203125 C 4.851562 5.371094 4.640625 5.59375 4.542969 5.699219 C 4.445312 5.804688 4.265625 6.015625 4.140625 6.164062 C 4.015625 6.316406 3.808594 6.574219 3.683594 6.742188 C 3.558594 6.910156 3.351562 7.203125 3.222656 7.390625 C 3.09375 7.582031 2.898438 7.886719 2.785156 8.070312 C 2.675781 8.253906 2.519531 8.523438 2.441406 8.667969 C 2.363281 8.8125 2.253906 9.023438 2.195312 9.136719 C 2.140625 9.246094 2.027344 9.484375 1.949219 9.664062 C 1.867188 9.84375 1.738281 10.144531 1.664062 10.332031 C 1.589844 10.523438 1.472656 10.828125 1.410156 11.011719 C 1.347656 11.195312 1.257812 11.484375 1.207031 11.652344 C 1.160156 11.816406 1.082031 12.101562 1.035156 12.277344 C 0.992188 12.457031 0.933594 12.714844 0.90625 12.847656 C 0.878906 12.980469 0.832031 13.230469 0.800781 13.402344 C 0.773438 13.578125 0.730469 13.851562 0.710938 14.011719 C 0.6875 14.175781 0.65625 14.46875 0.636719 14.671875 C 0.605469 14.964844 0.601562 15.230469 0.601562 16 C 0.601562 16.769531 0.605469 17.035156 0.636719 17.328125 C 0.65625 17.53125 0.6875 17.824219 0.710938 17.988281 C 0.730469 18.148438 0.773438 18.421875 0.800781 18.597656 C 0.832031 18.769531 0.878906 19.019531 0.90625 19.152344 C 0.933594 19.285156 0.992188 19.542969 1.035156 19.722656 C 1.082031 19.898438 1.160156 20.183594 1.207031 20.347656 C 1.257812 20.515625 1.347656 20.804688 1.410156 20.988281 C 1.472656 21.171875 1.585938 21.472656 1.660156 21.65625 C 1.730469 21.84375 1.859375 22.144531 1.941406 22.328125 C 2.027344 22.511719 2.140625 22.753906 2.195312 22.863281 C 2.253906 22.976562 2.363281 23.1875 2.441406 23.332031 C 2.519531 23.476562 2.675781 23.746094 2.785156 23.929688 C 2.898438 24.113281 3.09375 24.417969 3.222656 24.609375 C 3.351562 24.796875 3.558594 25.089844 3.683594 25.257812 C 3.808594 25.425781 4.015625 25.683594 4.140625 25.835938 C 4.265625 25.984375 4.445312 26.195312 4.542969 26.300781 C 4.640625 26.40625 4.851562 26.628906 5.011719 26.796875 C 5.171875 26.960938 5.433594 27.210938 5.589844 27.355469 C 5.746094 27.496094 6 27.714844 6.148438 27.84375 C 6.300781 27.96875 6.5625 28.175781 6.738281 28.308594 C 6.910156 28.4375 7.230469 28.664062 7.445312 28.808594 C 7.664062 28.953125 7.964844 29.144531 8.117188 29.234375 C 8.265625 29.324219 8.492188 29.453125 8.613281 29.523438 C 8.734375 29.589844 9.011719 29.730469 9.222656 29.835938 C 9.433594 29.9375 9.777344 30.097656 9.984375 30.183594 C 10.191406 30.269531 10.519531 30.402344 10.714844 30.472656 C 10.910156 30.542969 11.242188 30.65625 11.453125 30.722656 C 11.667969 30.785156 12.023438 30.886719 12.246094 30.941406 C 12.46875 30.996094 12.816406 31.074219 13.019531 31.117188 C 13.21875 31.15625 13.574219 31.214844 13.808594 31.25 C 14.042969 31.28125 14.386719 31.324219 14.570312 31.339844 C 14.753906 31.355469 15.128906 31.378906 15.402344 31.394531 C 15.675781 31.40625 16.085938 31.410156 16.316406 31.402344 C 16.542969 31.394531 16.867188 31.378906 17.035156 31.371094 C 17.203125 31.359375 17.46875 31.335938 17.621094 31.320312 C 17.777344 31.300781 18.039062 31.269531 18.203125 31.246094 C 18.363281 31.222656 18.640625 31.179688 18.820312 31.144531 C 19 31.113281 19.28125 31.054688 19.449219 31.015625 C 19.617188 30.976562 19.890625 30.90625 20.058594 30.863281 C 20.226562 30.816406 20.546875 30.71875 20.769531 30.648438 C 20.992188 30.574219 21.328125 30.453125 21.519531 30.382812 C 21.707031 30.308594 22.03125 30.175781 22.238281 30.082031 C 22.445312 29.992188 22.71875 29.863281 22.847656 29.800781 C 22.976562 29.734375 23.191406 29.621094 23.324219 29.550781 C 23.460938 29.476562 23.710938 29.332031 23.882812 29.230469 C 24.054688 29.128906 24.355469 28.9375 24.554688 28.804688 C 24.75 28.675781 25.0625 28.453125 25.253906 28.308594 C 25.441406 28.167969 25.714844 27.949219 25.859375 27.828125 C 26.003906 27.707031 26.230469 27.515625 26.359375 27.398438 C 26.488281 27.28125 26.746094 27.03125 26.9375 26.839844 C 27.128906 26.648438 27.386719 26.375 27.511719 26.230469 C 27.640625 26.085938 27.828125 25.867188 27.929688 25.742188 C 28.027344 25.621094 28.226562 25.367188 28.367188 25.175781 C 28.507812 24.988281 28.699219 24.722656 28.789062 24.585938 C 28.875 24.453125 29.03125 24.210938 29.132812 24.050781 C 29.234375 23.886719 29.382812 23.632812 29.46875 23.484375 C 29.550781 23.332031 29.695312 23.058594 29.789062 22.875 C 29.878906 22.691406 30.011719 22.414062 30.082031 22.257812 C 30.152344 22.101562 30.269531 21.816406 30.347656 21.625 C 30.421875 21.4375 30.550781 21.082031 30.632812 20.835938 C 30.714844 20.589844 30.828125 20.21875 30.882812 20.003906 C 30.941406 19.792969 31.019531 19.46875 31.058594 19.285156 C 31.097656 19.101562 31.160156 18.769531 31.199219 18.542969 C 31.234375 18.320312 31.285156 17.980469 31.308594 17.785156 C 31.328125 17.589844 31.359375 17.292969 31.375 17.125 C 31.390625 16.941406 31.398438 16.496094 31.398438 16 C 31.398438 15.503906 31.390625 15.058594 31.375 14.875 C 31.359375 14.707031 31.328125 14.410156 31.308594 14.214844 C 31.285156 14.019531 31.238281 13.699219 31.207031 13.503906 C 31.175781 13.3125 31.121094 13.015625 31.085938 12.847656 C 31.054688 12.679688 30.980469 12.367188 30.921875 12.152344 C 30.867188 11.9375 30.773438 11.597656 30.710938 11.402344 C 30.648438 11.203125 30.539062 10.890625 30.472656 10.707031 C 30.40625 10.523438 30.277344 10.199219 30.1875 9.988281 C 30.097656 9.773438 29.933594 9.425781 29.828125 9.207031 C 29.71875 8.988281 29.558594 8.683594 29.472656 8.527344 C 29.386719 8.371094 29.234375 8.113281 29.132812 7.949219 C 29.03125 7.789062 28.875 7.546875 28.789062 7.414062 C 28.699219 7.277344 28.507812 7.011719 28.367188 6.824219 C 28.226562 6.632812 28.027344 6.378906 27.929688 6.257812 C 27.828125 6.132812 27.640625 5.914062 27.511719 5.769531 C 27.386719 5.625 27.128906 5.351562 26.9375 5.160156 C 26.746094 4.96875 26.488281 4.71875 26.359375 4.601562 C 26.230469 4.484375 26.003906 4.292969 25.859375 4.171875 C 25.714844 4.050781 25.457031 3.84375 25.285156 3.714844 C 25.109375 3.582031 24.855469 3.398438 24.714844 3.300781 C 24.574219 3.207031 24.359375 3.0625 24.238281 2.984375 C 24.113281 2.90625 23.878906 2.765625 23.710938 2.667969 C 23.542969 2.570312 23.25 2.410156 23.0625 2.308594 C 22.871094 2.210938 22.554688 2.058594 22.363281 1.972656 C 22.164062 1.882812 21.855469 1.75 21.671875 1.675781 C 21.488281 1.605469 21.171875 1.488281 20.972656 1.417969 C 20.769531 1.351562 20.464844 1.253906 20.292969 1.203125 C 20.117188 1.15625 19.855469 1.082031 19.703125 1.042969 C 19.550781 1.007812 19.246094 0.941406 19.023438 0.894531 C 18.800781 0.851562 18.496094 0.792969 18.34375 0.773438 C 18.191406 0.75 17.945312 0.71875 17.796875 0.699219 C 17.644531 0.679688 17.351562 0.652344 17.148438 0.640625 C 16.941406 0.625 16.519531 0.605469 16.210938 0.601562 C 15.90625 0.59375 15.496094 0.597656 15.300781 0.609375 Z M 15.300781 0.609375 "/>
<path style=" stroke:none;fill-rule:nonzero;fill:rgb(100%,100%,100%);fill-opacity:1;" d="M 15.816406 1.738281 C 15.808594 1.746094 15.800781 2.132812 15.804688 2.601562 L 15.808594 3.445312 C 16.117188 3.457031 16.199219 3.449219 16.207031 3.4375 C 16.210938 3.425781 16.210938 3.039062 16.207031 2.574219 L 16.203125 1.734375 C 15.917969 1.726562 15.828125 1.730469 15.816406 1.738281 Z M 13.804688 1.878906 C 13.746094 1.894531 13.65625 1.925781 13.609375 1.949219 C 13.5625 1.972656 13.472656 2.042969 13.414062 2.097656 C 13.34375 2.164062 13.273438 2.257812 13.238281 2.335938 C 13.199219 2.40625 13.160156 2.523438 13.148438 2.597656 C 13.128906 2.695312 13.128906 2.761719 13.148438 2.871094 C 13.160156 2.949219 13.199219 3.070312 13.238281 3.140625 C 13.273438 3.214844 13.347656 3.3125 13.414062 3.375 C 13.472656 3.433594 13.578125 3.507812 13.644531 3.539062 C 13.710938 3.570312 13.824219 3.605469 13.890625 3.617188 C 13.972656 3.632812 14.054688 3.632812 14.152344 3.617188 C 14.230469 3.605469 14.351562 3.570312 14.417969 3.539062 C 14.484375 3.507812 14.578125 3.453125 14.628906 3.410156 C 14.679688 3.367188 14.746094 3.292969 14.777344 3.246094 C 14.8125 3.195312 14.851562 3.125 14.867188 3.085938 L 14.894531 3.023438 C 14.558594 2.910156 14.515625 2.902344 14.511719 2.921875 C 14.503906 2.9375 14.472656 2.992188 14.4375 3.042969 C 14.398438 3.101562 14.339844 3.148438 14.277344 3.183594 C 14.214844 3.210938 14.128906 3.234375 14.0625 3.242188 C 13.988281 3.246094 13.921875 3.238281 13.859375 3.210938 C 13.808594 3.191406 13.742188 3.152344 13.707031 3.125 C 13.675781 3.09375 13.628906 3.035156 13.601562 2.992188 C 13.574219 2.941406 13.546875 2.859375 13.542969 2.789062 C 13.53125 2.695312 13.535156 2.644531 13.566406 2.566406 C 13.585938 2.511719 13.636719 2.429688 13.675781 2.382812 C 13.714844 2.339844 13.785156 2.289062 13.828125 2.269531 C 13.878906 2.246094 13.957031 2.230469 14.03125 2.230469 C 14.105469 2.230469 14.183594 2.246094 14.234375 2.269531 C 14.28125 2.289062 14.347656 2.335938 14.386719 2.371094 L 14.457031 2.4375 C 14.550781 2.367188 14.617188 2.316406 14.664062 2.28125 C 14.710938 2.25 14.75 2.210938 14.753906 2.199219 C 14.753906 2.1875 14.710938 2.136719 14.65625 2.085938 C 14.605469 2.035156 14.519531 1.972656 14.472656 1.949219 C 14.425781 1.925781 14.335938 1.890625 14.269531 1.875 C 14.207031 1.859375 14.097656 1.847656 14.03125 1.847656 C 13.964844 1.847656 13.863281 1.859375 13.804688 1.878906 Z M 17.828125 1.875 C 17.757812 1.886719 17.65625 1.925781 17.59375 1.957031 C 17.535156 1.992188 17.441406 2.058594 17.390625 2.109375 C 17.339844 2.160156 17.273438 2.242188 17.246094 2.292969 C 17.214844 2.34375 17.175781 2.4375 17.15625 2.503906 C 17.132812 2.589844 17.125 2.675781 17.128906 2.796875 C 17.136719 2.945312 17.148438 2.992188 17.210938 3.125 C 17.261719 3.226562 17.320312 3.308594 17.398438 3.382812 C 17.460938 3.441406 17.574219 3.515625 17.648438 3.554688 C 17.761719 3.605469 17.816406 3.621094 17.957031 3.625 C 18.082031 3.632812 18.164062 3.625 18.253906 3.597656 C 18.320312 3.582031 18.414062 3.539062 18.464844 3.511719 C 18.515625 3.480469 18.597656 3.417969 18.648438 3.367188 C 18.699219 3.316406 18.769531 3.214844 18.804688 3.144531 C 18.839844 3.070312 18.878906 2.953125 18.890625 2.878906 C 18.90625 2.785156 18.90625 2.710938 18.894531 2.617188 C 18.882812 2.542969 18.84375 2.425781 18.8125 2.359375 C 18.777344 2.289062 18.703125 2.183594 18.644531 2.121094 C 18.585938 2.0625 18.484375 1.988281 18.425781 1.957031 C 18.363281 1.925781 18.253906 1.890625 18.179688 1.875 C 18.109375 1.859375 18.027344 1.847656 18 1.847656 C 17.972656 1.847656 17.894531 1.859375 17.828125 1.875 Z M 17.828125 1.875 "/>
<path style=" stroke:none;fill-rule:nonzero;fill:rgb(0%,0.392157%,0%);fill-opacity:1;" d="M 17.894531 2.25 C 17.863281 2.257812 17.8125 2.28125 17.78125 2.296875 C 17.75 2.3125 17.691406 2.367188 17.648438 2.410156 C 17.597656 2.464844 17.5625 2.535156 17.539062 2.609375 C 17.519531 2.6875 17.511719 2.757812 17.523438 2.820312 C 17.53125 2.867188 17.550781 2.941406 17.574219 2.980469 C 17.59375 3.019531 17.640625 3.082031 17.675781 3.117188 C 17.714844 3.152344 17.777344 3.195312 17.820312 3.210938 C 17.863281 3.230469 17.945312 3.246094 18.007812 3.246094 C 18.070312 3.246094 18.152344 3.230469 18.1875 3.21875 C 18.222656 3.203125 18.289062 3.160156 18.332031 3.121094 C 18.375 3.082031 18.429688 3.015625 18.449219 2.972656 C 18.472656 2.925781 18.496094 2.84375 18.5 2.789062 C 18.507812 2.722656 18.5 2.652344 18.476562 2.585938 C 18.457031 2.527344 18.421875 2.453125 18.394531 2.417969 C 18.367188 2.382812 18.304688 2.328125 18.257812 2.300781 C 18.207031 2.273438 18.125 2.25 18.058594 2.242188 C 18 2.234375 17.925781 2.238281 17.894531 2.25 Z M 17.894531 2.25 "/>
<path style=" stroke:none;fill-rule:nonzero;fill:rgb(100%,100%,100%);fill-opacity:1;" d="M 19.757812 3.105469 C 19.597656 3.550781 19.472656 3.917969 19.480469 3.921875 C 19.484375 3.925781 19.570312 3.957031 19.667969 3.992188 L 19.84375 4.054688 C 19.902344 3.890625 19.980469 3.675781 20.050781 3.472656 C 20.121094 3.269531 20.1875 3.105469 20.195312 3.109375 C 20.207031 3.109375 20.308594 3.386719 20.421875 3.722656 L 20.625 4.328125 C 20.871094 4.414062 20.945312 4.433594 20.949219 4.425781 C 20.953125 4.417969 21.082031 4.058594 21.234375 3.628906 C 21.386719 3.199219 21.515625 2.839844 21.515625 2.832031 C 21.519531 2.824219 21.4375 2.785156 21.339844 2.75 C 21.214844 2.707031 21.15625 2.695312 21.148438 2.710938 C 21.140625 2.722656 21.0625 2.9375 20.972656 3.191406 C 20.882812 3.441406 20.804688 3.652344 20.796875 3.652344 C 20.792969 3.652344 20.699219 3.378906 20.589844 3.046875 C 20.480469 2.714844 20.378906 2.433594 20.363281 2.417969 C 20.351562 2.402344 20.277344 2.371094 20.195312 2.34375 L 20.046875 2.296875 M 11.15625 2.566406 C 11.042969 2.605469 11.019531 2.625 11.015625 2.660156 C 11.015625 2.6875 10.992188 3.105469 10.960938 3.59375 C 10.929688 4.082031 10.914062 4.480469 10.921875 4.480469 C 10.929688 4.480469 11.019531 4.453125 11.121094 4.414062 L 11.304688 4.347656 C 11.304688 4.082031 11.308594 3.996094 11.316406 3.980469 C 11.328125 3.96875 11.480469 3.90625 11.65625 3.839844 L 11.980469 3.726562 L 12.246094 4.015625 C 12.535156 3.914062 12.621094 3.878906 12.617188 3.871094 C 12.613281 3.863281 12.332031 3.554688 11.988281 3.1875 C 11.597656 2.765625 11.351562 2.515625 11.328125 2.515625 C 11.308594 2.519531 11.230469 2.539062 11.15625 2.566406 Z M 11.15625 2.566406 "/>
<path style=" stroke:none;fill-rule:nonzero;fill:rgb(0%,0.392157%,0%);fill-opacity:1;" d="M 11.355469 3.183594 C 11.347656 3.257812 11.34375 3.375 11.34375 3.453125 L 11.34375 3.589844 C 11.617188 3.492188 11.703125 3.457031 11.707031 3.453125 C 11.714844 3.449219 11.695312 3.417969 11.664062 3.382812 C 11.632812 3.347656 11.554688 3.257812 11.488281 3.183594 L 11.367188 3.050781 "/>
<path style=" stroke:none;fill-rule:nonzero;fill:rgb(100%,100%,100%);fill-opacity:1;" d="M 9.136719 3.46875 L 8.96875 3.570312 C 9.378906 4.253906 9.496094 4.453125 9.492188 4.453125 C 9.488281 4.457031 9.210938 4.351562 8.871094 4.226562 L 8.257812 3.996094 C 8.039062 4.128906 7.976562 4.171875 7.980469 4.179688 C 7.980469 4.1875 8.179688 4.519531 8.421875 4.914062 C 8.660156 5.3125 8.863281 5.636719 8.871094 5.636719 C 8.878906 5.636719 8.957031 5.597656 9.039062 5.546875 C 9.125 5.496094 9.191406 5.449219 9.191406 5.445312 C 9.191406 5.4375 9.078125 5.242188 8.9375 5.007812 C 8.796875 4.773438 8.6875 4.578125 8.691406 4.570312 C 8.691406 4.566406 8.964844 4.660156 9.292969 4.785156 C 9.621094 4.910156 9.898438 5.007812 9.90625 5.007812 C 9.917969 5.007812 9.988281 4.972656 10.066406 4.929688 L 10.207031 4.847656 C 9.527344 3.722656 9.324219 3.390625 9.316406 3.382812 C 9.308594 3.375 9.226562 3.414062 9.136719 3.46875 Z M 22.371094 4.1875 C 21.96875 4.484375 21.636719 4.730469 21.636719 4.738281 C 21.632812 4.75 21.699219 4.796875 21.785156 4.847656 C 21.871094 4.898438 21.949219 4.941406 21.960938 4.945312 C 21.96875 4.945312 22.042969 4.898438 22.128906 4.835938 C 22.273438 4.730469 22.28125 4.726562 22.335938 4.753906 C 22.367188 4.769531 22.5 4.847656 22.636719 4.929688 C 22.769531 5.007812 22.882812 5.074219 22.886719 5.078125 C 22.886719 5.078125 22.878906 5.167969 22.863281 5.277344 L 22.835938 5.472656 C 23.105469 5.628906 23.183594 5.671875 23.1875 5.671875 C 23.191406 5.667969 23.246094 5.253906 23.3125 4.75 C 23.382812 4.246094 23.4375 3.828125 23.4375 3.820312 C 23.4375 3.816406 23.371094 3.777344 23.292969 3.730469 C 23.214844 3.6875 23.140625 3.652344 23.128906 3.652344 C 23.113281 3.652344 22.773438 3.894531 22.371094 4.1875 Z M 22.371094 4.1875 "/>
<path style=" stroke:none;fill-rule:nonzero;fill:rgb(0%,0.392157%,0%);fill-opacity:1;" d="M 22.796875 4.339844 C 22.695312 4.417969 22.613281 4.488281 22.609375 4.496094 C 22.605469 4.503906 22.675781 4.554688 22.761719 4.601562 C 22.847656 4.652344 22.921875 4.699219 22.929688 4.699219 C 22.933594 4.703125 22.953125 4.625 22.964844 4.527344 C 22.980469 4.429688 22.996094 4.316406 23 4.273438 C 23.003906 4.230469 23.003906 4.199219 22.996094 4.199219 C 22.988281 4.199219 22.898438 4.265625 22.796875 4.339844 Z M 22.796875 4.339844 "/>
<path style=" stroke:none;fill-rule:nonzero;fill:rgb(96.470588%,70.588235%,80.392157%);fill-opacity:1;" d="M 15.289062 4.585938 C 15.144531 4.59375 14.898438 4.617188 14.742188 4.632812 C 14.585938 4.652344 14.316406 4.6875 14.144531 4.714844 C 13.96875 4.742188 13.6875 4.796875 13.515625 4.835938 C 13.339844 4.875 13.070312 4.941406 12.914062 4.988281 C 12.757812 5.03125 12.5 5.113281 12.339844 5.167969 C 12.175781 5.222656 11.898438 5.324219 11.71875 5.394531 C 11.539062 5.46875 11.207031 5.617188 10.976562 5.730469 C 10.75 5.84375 10.4375 6.007812 10.289062 6.09375 C 10.136719 6.179688 9.894531 6.328125 9.75 6.425781 L 9.484375 6.601562 L 9.996094 6.613281 C 10.449219 6.335938 10.753906 6.171875 10.96875 6.0625 C 11.179688 5.957031 11.484375 5.8125 11.648438 5.742188 C 11.808594 5.675781 12.046875 5.582031 12.175781 5.535156 C 12.304688 5.488281 12.523438 5.414062 12.660156 5.371094 C 12.800781 5.324219 13.050781 5.253906 13.21875 5.210938 C 13.386719 5.167969 13.660156 5.105469 13.828125 5.070312 C 13.996094 5.039062 14.265625 4.992188 14.425781 4.96875 C 14.589844 4.949219 14.835938 4.917969 14.976562 4.902344 C 15.136719 4.886719 15.507812 4.875 16 4.875 C 16.488281 4.875 16.859375 4.886719 17.015625 4.902344 C 17.148438 4.917969 17.390625 4.945312 17.550781 4.96875 C 17.714844 4.992188 17.984375 5.039062 18.152344 5.070312 C 18.316406 5.101562 18.597656 5.167969 18.769531 5.210938 C 18.941406 5.253906 19.230469 5.335938 19.410156 5.394531 C 19.585938 5.453125 19.886719 5.558594 20.070312 5.632812 C 20.253906 5.703125 20.535156 5.824219 20.699219 5.902344 C 20.859375 5.976562 21.105469 6.097656 21.246094 6.175781 C 21.386719 6.25 21.613281 6.378906 21.746094 6.460938 L 21.996094 6.609375 L 22.511719 6.601562 C 22.074219 6.3125 21.832031 6.164062 21.691406 6.082031 C 21.550781 6.003906 21.246094 5.84375 21.011719 5.730469 C 20.777344 5.613281 20.449219 5.464844 20.28125 5.398438 C 20.113281 5.332031 19.839844 5.230469 19.671875 5.171875 C 19.507812 5.113281 19.222656 5.027344 19.042969 4.976562 C 18.863281 4.929688 18.589844 4.863281 18.433594 4.828125 C 18.277344 4.792969 18.046875 4.75 17.917969 4.726562 C 17.789062 4.703125 17.53125 4.667969 17.339844 4.644531 C 17.148438 4.621094 16.839844 4.59375 16.648438 4.582031 C 16.460938 4.570312 16.136719 4.566406 15.929688 4.566406 C 15.722656 4.566406 15.433594 4.574219 15.289062 4.585938 Z M 15.289062 4.585938 "/>
<path style=" stroke:none;fill-rule:nonzero;fill:rgb(100%,100%,100%);fill-opacity:1;" d="M 24.335938 5.496094 C 24.03125 5.851562 23.785156 6.148438 23.789062 6.152344 C 23.789062 6.152344 23.957031 6.296875 24.15625 6.46875 C 24.359375 6.640625 24.542969 6.800781 24.570312 6.824219 L 24.617188 6.863281 C 24.742188 6.722656 24.792969 6.65625 24.816406 6.625 L 24.859375 6.570312 C 24.449219 6.226562 24.332031 6.121094 24.332031 6.113281 C 24.332031 6.109375 24.519531 5.878906 24.757812 5.609375 C 24.992188 5.332031 25.183594 5.101562 25.183594 5.09375 C 25.183594 5.085938 25.125 5.027344 25.050781 4.964844 C 24.976562 4.898438 24.910156 4.847656 24.902344 4.847656 C 24.894531 4.847656 24.640625 5.140625 24.335938 5.496094 Z M 6.660156 5.238281 C 6.609375 5.261719 6.445312 5.394531 6.289062 5.53125 L 6.003906 5.777344 C 6.546875 6.382812 6.804688 6.671875 6.929688 6.808594 C 7.050781 6.945312 7.15625 7.058594 7.164062 7.058594 C 7.167969 7.058594 7.234375 7 7.3125 6.929688 L 7.449219 6.804688 C 7.085938 6.394531 6.988281 6.269531 6.996094 6.257812 C 7.003906 6.25 7.214844 6.277344 7.460938 6.316406 L 7.914062 6.386719 C 8.03125 6.289062 8.109375 6.21875 8.164062 6.171875 C 8.214844 6.125 8.253906 6.078125 8.242188 6.074219 C 8.234375 6.070312 8.027344 6.03125 7.78125 5.992188 C 7.535156 5.949219 7.332031 5.917969 7.332031 5.914062 C 7.328125 5.914062 7.339844 5.867188 7.359375 5.808594 C 7.371094 5.753906 7.386719 5.675781 7.386719 5.636719 C 7.386719 5.597656 7.367188 5.53125 7.347656 5.484375 C 7.328125 5.441406 7.273438 5.367188 7.222656 5.324219 C 7.171875 5.28125 7.101562 5.234375 7.066406 5.21875 C 7.03125 5.203125 6.945312 5.191406 6.875 5.191406 C 6.785156 5.191406 6.722656 5.207031 6.660156 5.238281 Z M 6.660156 5.238281 "/>
<path style=" stroke:none;fill-rule:nonzero;fill:rgb(0%,0.392157%,0%);fill-opacity:1;" d="M 6.726562 5.632812 C 6.679688 5.667969 6.621094 5.714844 6.59375 5.746094 L 6.542969 5.796875 C 6.683594 5.949219 6.730469 6 6.738281 6.011719 C 6.75 6.023438 6.800781 5.992188 6.867188 5.929688 C 6.929688 5.875 6.992188 5.804688 7 5.773438 C 7.015625 5.738281 7.015625 5.699219 7 5.667969 C 6.988281 5.640625 6.960938 5.609375 6.941406 5.597656 C 6.917969 5.585938 6.878906 5.578125 6.851562 5.578125 C 6.828125 5.578125 6.769531 5.601562 6.726562 5.632812 Z M 6.726562 5.632812 "/>
<path style=" stroke:none;fill-rule:nonzero;fill:rgb(100%,100%,100%);fill-opacity:1;" d="M 4.777344 7.171875 C 4.601562 7.398438 4.453125 7.59375 4.449219 7.601562 C 4.449219 7.609375 4.742188 7.847656 5.105469 8.132812 C 5.472656 8.414062 5.777344 8.648438 5.792969 8.652344 C 5.804688 8.65625 5.925781 8.515625 6.058594 8.339844 C 6.195312 8.164062 6.34375 7.972656 6.390625 7.914062 L 6.472656 7.808594 C 6.261719 7.636719 6.191406 7.585938 6.183594 7.585938 C 6.175781 7.585938 6.074219 7.703125 5.960938 7.847656 C 5.847656 7.992188 5.746094 8.113281 5.738281 8.113281 C 5.730469 8.113281 5.675781 8.078125 5.621094 8.035156 C 5.566406 7.992188 5.519531 7.957031 5.519531 7.949219 C 5.519531 7.945312 5.589844 7.84375 5.683594 7.726562 C 5.773438 7.609375 5.84375 7.507812 5.84375 7.503906 C 5.84375 7.496094 5.78125 7.445312 5.710938 7.390625 C 5.636719 7.335938 5.570312 7.289062 5.5625 7.289062 C 5.550781 7.289062 5.480469 7.367188 5.40625 7.460938 C 5.332031 7.558594 5.257812 7.652344 5.246094 7.675781 C 5.21875 7.714844 5.214844 7.714844 5.101562 7.625 C 5.039062 7.574219 4.992188 7.527344 4.992188 7.523438 C 4.992188 7.515625 5.082031 7.398438 5.195312 7.253906 C 5.304688 7.113281 5.398438 6.988281 5.398438 6.980469 C 5.398438 6.972656 5.335938 6.917969 5.261719 6.859375 C 5.183594 6.800781 5.117188 6.753906 5.113281 6.753906 C 5.109375 6.753906 4.957031 6.941406 4.777344 7.171875 Z M 4.777344 7.171875 "/>
<path style=" stroke:none;fill-rule:nonzero;fill:rgb(96.470588%,70.588235%,80.392157%);fill-opacity:1;" d="M 8.410156 7.113281 C 8.402344 7.117188 8.394531 9.167969 8.398438 11.664062 C 8.398438 14.527344 8.410156 16.332031 8.421875 16.554688 C 8.433594 16.746094 8.460938 17.066406 8.484375 17.265625 C 8.503906 17.46875 8.550781 17.792969 8.585938 17.988281 C 8.617188 18.183594 8.675781 18.480469 8.714844 18.652344 C 8.753906 18.820312 8.8125 19.0625 8.847656 19.1875 C 8.882812 19.3125 8.957031 19.5625 9.011719 19.742188 C 9.070312 19.917969 9.175781 20.222656 9.246094 20.410156 C 9.320312 20.601562 9.4375 20.882812 9.507812 21.039062 C 9.578125 21.195312 9.691406 21.4375 9.761719 21.578125 C 9.832031 21.714844 9.957031 21.953125 10.039062 22.105469 C 10.125 22.253906 10.261719 22.488281 10.34375 22.621094 C 10.429688 22.753906 10.566406 22.964844 10.648438 23.085938 C 10.734375 23.210938 10.894531 23.433594 11.007812 23.585938 C 11.125 23.734375 11.3125 23.972656 11.429688 24.113281 C 11.546875 24.25 11.765625 24.492188 11.914062 24.652344 C 12.0625 24.808594 12.289062 25.035156 12.417969 25.160156 C 12.546875 25.28125 12.75 25.460938 12.867188 25.5625 C 12.980469 25.664062 13.148438 25.800781 13.230469 25.867188 C 13.3125 25.933594 13.488281 26.070312 13.617188 26.164062 C 13.746094 26.257812 13.972656 26.417969 14.125 26.519531 C 14.273438 26.621094 14.511719 26.769531 14.652344 26.851562 C 14.789062 26.9375 15.050781 27.082031 15.230469 27.179688 C 15.40625 27.273438 15.65625 27.398438 15.78125 27.460938 L 16.011719 27.570312 C 16.363281 27.398438 16.605469 27.277344 16.769531 27.1875 C 16.9375 27.097656 17.210938 26.945312 17.375 26.847656 C 17.539062 26.746094 17.789062 26.589844 17.933594 26.492188 C 18.074219 26.394531 18.308594 26.226562 18.453125 26.117188 C 18.601562 26.007812 18.832031 25.824219 18.972656 25.707031 C 19.113281 25.59375 19.367188 25.367188 19.539062 25.203125 C 19.710938 25.042969 19.972656 24.785156 20.117188 24.628906 C 20.261719 24.472656 20.476562 24.230469 20.589844 24.089844 C 20.707031 23.953125 20.90625 23.699219 21.03125 23.535156 C 21.15625 23.367188 21.324219 23.132812 21.402344 23.015625 C 21.480469 22.898438 21.605469 22.707031 21.675781 22.589844 C 21.75 22.472656 21.875 22.257812 21.957031 22.113281 C 22.039062 21.96875 22.179688 21.695312 22.273438 21.503906 C 22.367188 21.316406 22.496094 21.03125 22.5625 20.875 C 22.628906 20.71875 22.742188 20.433594 22.8125 20.238281 C 22.886719 20.042969 22.980469 19.753906 23.03125 19.597656 C 23.078125 19.441406 23.152344 19.179688 23.195312 19.011719 C 23.238281 18.84375 23.296875 18.570312 23.332031 18.402344 C 23.367188 18.234375 23.417969 17.949219 23.445312 17.765625 C 23.472656 17.582031 23.511719 17.289062 23.527344 17.113281 C 23.542969 16.941406 23.570312 16.582031 23.582031 16.316406 C 23.59375 16.003906 23.597656 14.265625 23.59375 11.46875 L 23.589844 7.109375 C 11.839844 7.101562 8.417969 7.105469 8.410156 7.113281 Z M 8.410156 7.113281 "/>
<path style=" stroke:none;fill-rule:nonzero;fill:rgb(100%,100%,100%);fill-opacity:1;" d="M 26.550781 7.6875 C 26.171875 7.957031 25.859375 8.183594 25.855469 8.1875 C 25.851562 8.195312 25.9375 8.328125 26.042969 8.476562 C 26.152344 8.628906 26.269531 8.777344 26.304688 8.808594 C 26.339844 8.839844 26.402344 8.886719 26.445312 8.914062 C 26.488281 8.941406 26.578125 8.980469 26.644531 9.003906 C 26.710938 9.027344 26.820312 9.042969 26.890625 9.042969 C 26.960938 9.042969 27.078125 9.027344 27.148438 9.003906 C 27.222656 8.984375 27.328125 8.933594 27.382812 8.898438 C 27.4375 8.863281 27.511719 8.792969 27.550781 8.75 C 27.585938 8.707031 27.640625 8.625 27.667969 8.566406 C 27.695312 8.511719 27.730469 8.402344 27.742188 8.324219 C 27.761719 8.222656 27.761719 8.148438 27.746094 8.0625 C 27.734375 7.992188 27.703125 7.886719 27.671875 7.828125 C 27.644531 7.765625 27.546875 7.597656 27.449219 7.457031 C 27.355469 7.316406 27.269531 7.199219 27.261719 7.199219 C 27.25 7.199219 26.929688 7.417969 26.550781 7.6875 Z M 26.550781 7.6875 "/>
<path style=" stroke:none;fill-rule:nonzero;fill:rgb(0%,0.392157%,0%);fill-opacity:1;" d="M 8.707031 11.894531 C 8.707031 14.808594 8.714844 16.492188 8.726562 16.683594 C 8.738281 16.847656 8.765625 17.132812 8.789062 17.320312 C 8.808594 17.503906 8.851562 17.789062 8.878906 17.957031 C 8.910156 18.125 8.960938 18.398438 9 18.566406 C 9.035156 18.734375 9.101562 18.992188 9.140625 19.144531 C 9.183594 19.292969 9.269531 19.578125 9.332031 19.773438 C 9.398438 19.964844 9.511719 20.277344 9.582031 20.460938 C 9.65625 20.644531 9.78125 20.9375 9.863281 21.109375 C 9.941406 21.28125 10.082031 21.5625 10.171875 21.730469 C 10.261719 21.894531 10.402344 22.148438 10.488281 22.285156 C 10.570312 22.425781 10.710938 22.648438 10.800781 22.78125 C 10.890625 22.917969 11.023438 23.109375 11.097656 23.207031 C 11.167969 23.308594 11.332031 23.519531 11.457031 23.675781 C 11.582031 23.832031 11.765625 24.054688 11.871094 24.171875 C 11.972656 24.289062 12.152344 24.480469 12.265625 24.59375 C 12.375 24.710938 12.582031 24.910156 12.722656 25.039062 C 12.863281 25.167969 13.085938 25.367188 13.21875 25.476562 C 13.355469 25.589844 13.589844 25.777344 13.746094 25.894531 C 13.902344 26.007812 14.164062 26.191406 14.324219 26.300781 C 14.488281 26.40625 14.757812 26.574219 14.925781 26.671875 C 15.09375 26.769531 15.40625 26.9375 15.621094 27.046875 L 16.011719 27.246094 C 16.582031 26.957031 16.878906 26.796875 17.035156 26.707031 C 17.191406 26.613281 17.472656 26.4375 17.664062 26.3125 C 17.851562 26.1875 18.117188 26 18.253906 25.902344 C 18.386719 25.804688 18.636719 25.605469 18.8125 25.460938 C 18.984375 25.316406 19.289062 25.035156 19.488281 24.84375 C 19.6875 24.644531 19.957031 24.367188 20.085938 24.222656 C 20.214844 24.078125 20.398438 23.867188 20.488281 23.757812 C 20.574219 23.644531 20.726562 23.449219 20.824219 23.320312 C 20.917969 23.191406 21.085938 22.949219 21.199219 22.78125 C 21.308594 22.617188 21.460938 22.378906 21.535156 22.257812 C 21.605469 22.132812 21.738281 21.894531 21.828125 21.730469 C 21.917969 21.5625 22.046875 21.304688 22.113281 21.160156 C 22.179688 21.015625 22.292969 20.765625 22.359375 20.601562 C 22.425781 20.441406 22.515625 20.203125 22.5625 20.074219 C 22.605469 19.949219 22.679688 19.726562 22.726562 19.578125 C 22.769531 19.433594 22.84375 19.179688 22.890625 19.011719 C 22.933594 18.84375 23.003906 18.523438 23.050781 18.300781 C 23.09375 18.078125 23.144531 17.800781 23.160156 17.683594 C 23.179688 17.566406 23.207031 17.34375 23.222656 17.1875 C 23.238281 17.03125 23.261719 16.757812 23.273438 16.578125 C 23.285156 16.375 23.292969 14.585938 23.292969 11.828125 L 23.292969 7.402344 L 8.707031 7.402344 M 26.777344 8.011719 C 26.554688 8.167969 26.375 8.300781 26.378906 8.304688 C 26.378906 8.308594 26.40625 8.351562 26.4375 8.402344 C 26.46875 8.449219 26.523438 8.511719 26.554688 8.542969 C 26.585938 8.570312 26.648438 8.609375 26.6875 8.628906 C 26.730469 8.644531 26.8125 8.660156 26.871094 8.660156 C 26.941406 8.660156 27.011719 8.644531 27.078125 8.609375 C 27.132812 8.582031 27.214844 8.523438 27.257812 8.480469 C 27.300781 8.425781 27.347656 8.351562 27.363281 8.289062 C 27.382812 8.222656 27.390625 8.152344 27.382812 8.101562 C 27.375 8.054688 27.347656 7.980469 27.320312 7.929688 C 27.292969 7.878906 27.25 7.8125 27.222656 7.78125 L 27.179688 7.726562 "/>
<path style=" stroke:none;fill-rule:nonzero;fill:rgb(96.470588%,70.588235%,80.392157%);fill-opacity:1;" d="M 7.691406 8.144531 C 7.578125 8.265625 7.386719 8.476562 7.273438 8.609375 C 7.160156 8.742188 6.96875 8.984375 6.84375 9.144531 C 6.722656 9.308594 6.542969 9.558594 6.449219 9.703125 C 6.355469 9.847656 6.199219 10.09375 6.109375 10.25 C 6.015625 10.40625 5.84375 10.734375 5.722656 10.980469 C 5.601562 11.226562 5.457031 11.542969 5.402344 11.679688 C 5.34375 11.820312 5.257812 12.050781 5.207031 12.191406 C 5.15625 12.335938 5.0625 12.621094 5.003906 12.832031 C 4.945312 13.039062 4.867188 13.339844 4.832031 13.496094 C 4.796875 13.652344 4.746094 13.914062 4.71875 14.074219 C 4.691406 14.234375 4.648438 14.527344 4.628906 14.722656 C 4.605469 14.917969 4.578125 15.28125 4.566406 15.535156 C 4.550781 15.851562 4.550781 16.132812 4.566406 16.464844 C 4.578125 16.726562 4.605469 17.09375 4.625 17.277344 C 4.648438 17.460938 4.683594 17.730469 4.707031 17.875 C 4.730469 18.019531 4.785156 18.285156 4.824219 18.464844 C 4.863281 18.640625 4.945312 18.960938 5.003906 19.167969 C 5.0625 19.378906 5.15625 19.664062 5.207031 19.808594 C 5.257812 19.949219 5.34375 20.179688 5.402344 20.320312 C 5.457031 20.457031 5.601562 20.773438 5.722656 21.019531 C 5.84375 21.265625 6.015625 21.59375 6.109375 21.75 C 6.199219 21.90625 6.355469 22.152344 6.449219 22.296875 C 6.542969 22.441406 6.722656 22.691406 6.84375 22.855469 C 6.96875 23.015625 7.164062 23.261719 7.28125 23.402344 C 7.402344 23.542969 7.640625 23.800781 7.8125 23.976562 C 7.984375 24.152344 8.226562 24.386719 8.347656 24.496094 C 8.472656 24.605469 8.644531 24.757812 8.734375 24.832031 C 8.824219 24.90625 9.007812 25.050781 9.140625 25.148438 C 9.273438 25.25 9.527344 25.425781 9.699219 25.542969 C 9.871094 25.65625 10.148438 25.824219 10.308594 25.917969 C 10.46875 26.011719 10.792969 26.179688 11.027344 26.292969 C 11.261719 26.40625 11.605469 26.558594 11.789062 26.632812 C 11.972656 26.703125 12.238281 26.800781 12.378906 26.847656 C 12.515625 26.894531 12.757812 26.96875 12.914062 27.011719 C 13.070312 27.058594 13.339844 27.125 13.515625 27.164062 C 13.6875 27.203125 13.941406 27.25 14.082031 27.273438 C 14.222656 27.296875 14.363281 27.320312 14.390625 27.324219 C 14.421875 27.332031 14.445312 27.328125 14.441406 27.316406 C 14.441406 27.304688 14.3125 27.214844 14.164062 27.121094 L 13.890625 26.945312 C 13.417969 26.839844 13.167969 26.777344 13.027344 26.738281 C 12.886719 26.699219 12.644531 26.625 12.488281 26.574219 C 12.332031 26.523438 12.105469 26.441406 11.980469 26.394531 C 11.859375 26.347656 11.632812 26.25 11.476562 26.179688 C 11.320312 26.113281 11.054688 25.984375 10.886719 25.898438 C 10.71875 25.8125 10.476562 25.675781 10.347656 25.601562 C 10.222656 25.527344 9.992188 25.382812 9.84375 25.28125 C 9.691406 25.179688 9.464844 25.019531 9.332031 24.925781 C 9.207031 24.828125 9.015625 24.679688 8.90625 24.589844 C 8.800781 24.503906 8.59375 24.320312 8.441406 24.1875 C 8.292969 24.050781 8.050781 23.8125 7.90625 23.65625 C 7.757812 23.5 7.550781 23.265625 7.445312 23.136719 C 7.339844 23.007812 7.164062 22.789062 7.0625 22.652344 C 6.957031 22.511719 6.808594 22.300781 6.730469 22.183594 C 6.652344 22.070312 6.527344 21.871094 6.453125 21.75 C 6.378906 21.625 6.25 21.398438 6.164062 21.242188 C 6.078125 21.085938 5.9375 20.796875 5.847656 20.601562 C 5.757812 20.410156 5.625 20.089844 5.554688 19.894531 C 5.480469 19.699219 5.386719 19.429688 5.347656 19.292969 C 5.308594 19.160156 5.238281 18.914062 5.195312 18.75 C 5.152344 18.582031 5.089844 18.300781 5.054688 18.128906 C 5.019531 17.957031 4.980469 17.714844 4.964844 17.59375 C 4.945312 17.46875 4.921875 17.28125 4.910156 17.175781 C 4.898438 17.070312 4.882812 16.847656 4.871094 16.679688 C 4.859375 16.511719 4.851562 16.210938 4.851562 16.011719 C 4.851562 15.808594 4.859375 15.5 4.871094 15.320312 C 4.882812 15.140625 4.90625 14.878906 4.921875 14.734375 C 4.9375 14.589844 4.96875 14.359375 4.992188 14.226562 C 5.011719 14.089844 5.058594 13.847656 5.09375 13.6875 C 5.125 13.527344 5.191406 13.257812 5.234375 13.089844 C 5.28125 12.921875 5.371094 12.636719 5.429688 12.453125 C 5.492188 12.265625 5.589844 11.996094 5.652344 11.851562 C 5.710938 11.707031 5.816406 11.464844 5.882812 11.316406 C 5.953125 11.164062 6.078125 10.914062 6.164062 10.757812 C 6.25 10.601562 6.378906 10.375 6.453125 10.25 C 6.527344 10.128906 6.652344 9.929688 6.730469 9.816406 C 6.808594 9.699219 6.957031 9.488281 7.0625 9.347656 C 7.164062 9.210938 7.339844 8.992188 7.445312 8.863281 C 7.550781 8.734375 7.703125 8.566406 7.777344 8.488281 L 7.914062 8.34375 L 7.902344 7.921875 M 24.085938 8.136719 L 24.089844 8.34375 C 24.332031 8.613281 24.480469 8.777344 24.570312 8.886719 C 24.660156 8.996094 24.820312 9.195312 24.921875 9.332031 C 25.023438 9.46875 25.175781 9.6875 25.261719 9.816406 C 25.347656 9.941406 25.472656 10.140625 25.542969 10.25 C 25.609375 10.363281 25.738281 10.589844 25.828125 10.757812 C 25.917969 10.925781 26.054688 11.195312 26.128906 11.355469 C 26.203125 11.515625 26.308594 11.765625 26.363281 11.902344 C 26.417969 12.042969 26.511719 12.304688 26.574219 12.480469 C 26.632812 12.660156 26.710938 12.910156 26.746094 13.039062 C 26.78125 13.167969 26.832031 13.386719 26.867188 13.527344 C 26.898438 13.664062 26.949219 13.914062 26.976562 14.074219 C 27.003906 14.234375 27.046875 14.527344 27.070312 14.722656 C 27.089844 14.917969 27.121094 15.28125 27.132812 15.535156 C 27.148438 15.875 27.148438 16.109375 27.132812 16.457031 C 27.121094 16.714844 27.089844 17.082031 27.070312 17.277344 C 27.046875 17.472656 27.003906 17.765625 26.976562 17.925781 C 26.949219 18.085938 26.898438 18.335938 26.867188 18.472656 C 26.832031 18.613281 26.78125 18.832031 26.746094 18.960938 C 26.710938 19.089844 26.632812 19.339844 26.574219 19.519531 C 26.511719 19.695312 26.417969 19.957031 26.363281 20.097656 C 26.308594 20.234375 26.203125 20.484375 26.128906 20.644531 C 26.054688 20.804688 25.914062 21.085938 25.816406 21.261719 C 25.722656 21.441406 25.582031 21.683594 25.511719 21.800781 C 25.4375 21.917969 25.316406 22.105469 25.242188 22.214844 C 25.167969 22.328125 25.023438 22.527344 24.925781 22.660156 C 24.824219 22.796875 24.648438 23.019531 24.53125 23.160156 C 24.417969 23.296875 24.117188 23.617188 23.863281 23.871094 C 23.613281 24.121094 23.300781 24.414062 23.171875 24.519531 C 23.046875 24.628906 22.828125 24.800781 22.6875 24.90625 C 22.546875 25.011719 22.300781 25.183594 22.136719 25.289062 C 21.976562 25.398438 21.699219 25.570312 21.519531 25.671875 C 21.339844 25.773438 21.058594 25.925781 20.890625 26.007812 C 20.722656 26.089844 20.441406 26.21875 20.261719 26.292969 C 20.082031 26.367188 19.75 26.488281 19.519531 26.566406 C 19.292969 26.644531 18.941406 26.746094 18.738281 26.796875 C 18.539062 26.84375 18.324219 26.898438 18.261719 26.910156 C 18.179688 26.925781 18.082031 26.972656 17.898438 27.089844 C 17.757812 27.179688 17.625 27.265625 17.601562 27.28125 C 17.582031 27.296875 17.566406 27.316406 17.574219 27.320312 C 17.578125 27.328125 17.730469 27.304688 17.90625 27.273438 C 18.085938 27.242188 18.339844 27.195312 18.476562 27.164062 C 18.609375 27.136719 18.863281 27.070312 19.042969 27.023438 C 19.222656 26.972656 19.507812 26.886719 19.671875 26.828125 C 19.839844 26.769531 20.113281 26.667969 20.28125 26.601562 C 20.449219 26.535156 20.777344 26.386719 21.011719 26.269531 C 21.246094 26.15625 21.550781 25.996094 21.691406 25.917969 C 21.832031 25.835938 22.089844 25.675781 22.269531 25.554688 C 22.449219 25.4375 22.703125 25.261719 22.835938 25.160156 C 22.972656 25.058594 23.1875 24.890625 23.3125 24.78125 C 23.441406 24.675781 23.667969 24.472656 23.820312 24.335938 C 23.96875 24.195312 24.207031 23.957031 24.347656 23.808594 C 24.488281 23.65625 24.691406 23.425781 24.804688 23.289062 C 24.917969 23.15625 25.089844 22.9375 25.1875 22.804688 C 25.289062 22.671875 25.445312 22.445312 25.535156 22.304688 C 25.628906 22.167969 25.769531 21.945312 25.847656 21.808594 C 25.929688 21.675781 26.089844 21.378906 26.207031 21.152344 C 26.320312 20.921875 26.476562 20.589844 26.550781 20.410156 C 26.625 20.230469 26.730469 19.960938 26.785156 19.808594 C 26.839844 19.65625 26.925781 19.390625 26.976562 19.21875 C 27.023438 19.050781 27.09375 18.796875 27.128906 18.65625 C 27.160156 18.515625 27.210938 18.28125 27.238281 18.128906 C 27.269531 17.980469 27.308594 17.722656 27.332031 17.5625 C 27.355469 17.398438 27.382812 17.148438 27.398438 17.003906 C 27.414062 16.839844 27.425781 16.457031 27.425781 16 C 27.425781 15.542969 27.414062 15.160156 27.398438 14.996094 C 27.382812 14.851562 27.355469 14.601562 27.332031 14.4375 C 27.308594 14.277344 27.265625 14.019531 27.238281 13.871094 C 27.210938 13.71875 27.148438 13.4375 27.101562 13.242188 C 27.050781 13.046875 26.972656 12.765625 26.925781 12.613281 C 26.878906 12.464844 26.796875 12.214844 26.742188 12.066406 C 26.683594 11.914062 26.582031 11.664062 26.515625 11.507812 C 26.449219 11.351562 26.304688 11.046875 26.195312 10.828125 C 26.085938 10.609375 25.929688 10.324219 25.847656 10.191406 C 25.769531 10.054688 25.628906 9.832031 25.535156 9.695312 C 25.445312 9.554688 25.289062 9.328125 25.1875 9.195312 C 25.089844 9.0625 24.917969 8.84375 24.804688 8.710938 C 24.691406 8.574219 24.492188 8.34375 24.351562 8.195312 C 24.21875 8.050781 24.101562 7.929688 24.097656 7.929688 C 24.089844 7.929688 24.085938 8.023438 24.085938 8.136719 Z M 24.085938 8.136719 "/>
<path style=" stroke:none;fill-rule:nonzero;fill:rgb(100%,100%,100%);fill-opacity:1;" d="M 3.546875 9.007812 L 3.238281 9.558594 C 3.3125 9.609375 3.386719 9.652344 3.449219 9.6875 L 3.5625 9.75 L 3.773438 9.367188 C 3.90625 9.445312 4.167969 9.589844 4.4375 9.742188 C 4.710938 9.894531 4.9375 10.015625 4.945312 10.015625 C 4.953125 10.015625 5 9.949219 5.046875 9.863281 C 5.09375 9.78125 5.132812 9.703125 5.132812 9.695312 C 5.132812 9.683594 4.882812 9.535156 4.582031 9.367188 C 4.277344 9.195312 4.015625 9.046875 4.003906 9.035156 C 3.984375 9.019531 4.003906 8.972656 4.082031 8.832031 C 4.136719 8.730469 4.179688 8.644531 4.179688 8.640625 C 4.179688 8.632812 4.109375 8.589844 4.019531 8.542969 L 3.859375 8.457031 "/>
<path style=" stroke:none;fill-rule:nonzero;fill:rgb(96.470588%,70.588235%,80.392157%);fill-opacity:1;" d="M 10.328125 10.007812 L 10.328125 11.011719 L 10.917969 11.011719 C 10.917969 10.082031 10.921875 9.816406 10.933594 9.816406 C 10.941406 9.816406 11.121094 9.988281 11.332031 10.199219 L 11.71875 10.585938 L 12.519531 9.785156 L 12.519531 11.011719 L 13.109375 11.011719 L 13.109375 9.003906 L 12.511719 9.003906 L 11.71875 9.792969 L 10.925781 9.003906 L 10.328125 9.003906 M 13.621094 10 L 13.625 11 L 14.203125 11.011719 L 14.203125 9.003906 L 13.617188 9.003906 M 15.09375 9.988281 C 14.828125 10.527344 14.609375 10.980469 14.609375 10.992188 C 14.609375 11.003906 14.726562 11.011719 14.914062 11.011719 L 15.21875 11.011719 C 15.410156 10.609375 15.46875 10.488281 15.472656 10.484375 C 15.480469 10.476562 15.597656 10.589844 15.734375 10.726562 L 15.988281 10.980469 C 16.378906 10.597656 16.5 10.484375 16.503906 10.484375 C 16.511719 10.484375 16.578125 10.601562 16.648438 10.75 L 16.78125 11.011719 C 17.253906 11.011719 17.390625 11.003906 17.390625 10.996094 C 17.390625 10.988281 17.171875 10.535156 16.902344 9.992188 L 16.414062 9.003906 L 15.574219 9.003906 M 17.78125 10 L 17.785156 11 L 18.363281 11.011719 C 18.363281 10.101562 18.371094 9.832031 18.378906 9.828125 C 18.386719 9.820312 18.566406 9.992188 18.78125 10.203125 L 19.164062 10.585938 L 19.964844 9.785156 L 19.964844 11.011719 L 20.554688 11.011719 L 20.554688 9.003906 L 19.957031 9.003906 L 19.164062 9.792969 L 18.375 9.003906 L 17.773438 9.003906 M 21.066406 10 L 21.074219 11 L 21.660156 11 L 21.671875 9.003906 L 21.0625 9.003906 "/>
<path style=" stroke:none;fill-rule:nonzero;fill:rgb(100%,100%,100%);fill-opacity:1;" d="M 27.816406 9.667969 L 27.054688 10.046875 L 27.546875 11.03125 C 27.789062 10.90625 27.859375 10.859375 27.859375 10.847656 C 27.859375 10.835938 27.792969 10.695312 27.714844 10.535156 C 27.617188 10.34375 27.574219 10.230469 27.585938 10.222656 C 27.597656 10.210938 27.65625 10.179688 27.71875 10.152344 L 27.828125 10.101562 C 28.019531 10.476562 28.082031 10.585938 28.089844 10.585938 C 28.097656 10.585938 28.171875 10.554688 28.257812 10.515625 C 28.339844 10.476562 28.410156 10.433594 28.410156 10.421875 C 28.410156 10.414062 28.359375 10.300781 28.296875 10.179688 C 28.234375 10.058594 28.1875 9.949219 28.183594 9.941406 C 28.183594 9.933594 28.234375 9.902344 28.296875 9.871094 C 28.359375 9.839844 28.417969 9.816406 28.429688 9.816406 C 28.441406 9.816406 28.511719 9.949219 28.59375 10.113281 C 28.671875 10.277344 28.742188 10.417969 28.746094 10.421875 C 28.75 10.429688 28.828125 10.398438 28.917969 10.351562 C 29.007812 10.308594 29.078125 10.265625 29.078125 10.261719 C 29.078125 10.253906 28.972656 10.035156 28.84375 9.769531 C 28.71875 9.503906 28.605469 9.289062 28.597656 9.289062 C 28.585938 9.289062 28.238281 9.460938 27.816406 9.667969 Z M 27.816406 9.667969 "/>
<path style=" stroke:none;fill-rule:nonzero;fill:rgb(0%,0.392157%,0%);fill-opacity:1;" d="M 15.84375 9.738281 L 15.703125 10.027344 L 15.988281 10.3125 L 16.292969 10.007812 C 16.074219 9.574219 16.003906 9.449219 15.996094 9.449219 C 15.984375 9.449219 15.917969 9.582031 15.84375 9.738281 Z M 15.84375 9.738281 "/>
<path style=" stroke:none;fill-rule:nonzero;fill:rgb(100%,100%,100%);fill-opacity:1;" d="M 2.703125 10.753906 C 2.667969 10.855469 2.640625 10.941406 2.644531 10.941406 C 2.644531 10.945312 2.855469 11.015625 3.113281 11.105469 C 3.367188 11.191406 3.574219 11.273438 3.570312 11.285156 C 3.570312 11.296875 3.472656 11.339844 3.359375 11.378906 C 3.25 11.417969 2.976562 11.511719 2.757812 11.585938 L 2.363281 11.722656 L 2.261719 12.042969 C 3.488281 12.46875 3.855469 12.59375 3.871094 12.59375 C 3.886719 12.59375 3.921875 12.515625 3.953125 12.421875 C 3.980469 12.328125 4.003906 12.246094 3.996094 12.238281 C 3.992188 12.234375 3.78125 12.15625 3.53125 12.070312 C 3.28125 11.980469 3.070312 11.898438 3.070312 11.890625 C 3.066406 11.882812 3.332031 11.78125 3.65625 11.671875 C 3.980469 11.558594 4.257812 11.457031 4.273438 11.445312 C 4.285156 11.4375 4.320312 11.359375 4.347656 11.28125 L 4.402344 11.132812 C 4.300781 11.101562 3.949219 10.976562 3.550781 10.839844 C 3.15625 10.699219 2.816406 10.582031 2.800781 10.578125 C 2.777344 10.566406 2.753906 10.609375 2.703125 10.753906 Z M 2.703125 10.753906 "/>
<path style=" stroke:none;fill-rule:nonzero;fill:rgb(96.470588%,70.588235%,80.392157%);fill-opacity:1;" d="M 15.984375 12.117188 C 15.980469 12.128906 15.921875 12.324219 15.859375 12.554688 C 15.796875 12.78125 15.734375 12.972656 15.730469 12.984375 C 15.722656 12.992188 15.5625 12.851562 15.371094 12.675781 C 15.179688 12.5 15.023438 12.363281 15.019531 12.378906 C 15.015625 12.390625 15.0625 12.59375 15.125 12.828125 C 15.1875 13.0625 15.234375 13.257812 15.226562 13.261719 C 15.222656 13.269531 15.019531 13.21875 14.78125 13.15625 C 14.542969 13.09375 14.34375 13.046875 14.335938 13.054688 C 14.332031 13.0625 14.472656 13.199219 14.652344 13.355469 C 14.828125 13.507812 14.976562 13.640625 14.976562 13.648438 C 14.976562 13.652344 14.78125 13.738281 14.539062 13.839844 C 14.300781 13.941406 14.097656 14.035156 14.09375 14.046875 C 14.085938 14.070312 14.183594 14.074219 14.550781 14.074219 L 15.015625 14.074219 C 15.015625 13.957031 15.03125 13.871094 15.046875 13.808594 C 15.066406 13.75 15.109375 13.644531 15.144531 13.578125 C 15.183594 13.511719 15.261719 13.410156 15.332031 13.347656 C 15.398438 13.285156 15.496094 13.214844 15.546875 13.1875 C 15.601562 13.164062 15.699219 13.125 15.761719 13.109375 C 15.824219 13.09375 15.925781 13.078125 15.980469 13.078125 C 16.035156 13.078125 16.132812 13.089844 16.191406 13.097656 C 16.253906 13.109375 16.363281 13.148438 16.4375 13.183594 C 16.515625 13.226562 16.617188 13.300781 16.691406 13.375 C 16.769531 13.449219 16.835938 13.546875 16.875 13.625 C 16.910156 13.699219 16.949219 13.820312 16.964844 13.890625 C 16.976562 13.964844 16.984375 14.042969 16.976562 14.0625 C 16.972656 14.085938 16.910156 14.15625 16.84375 14.222656 C 16.773438 14.285156 16.664062 14.363281 16.59375 14.394531 C 16.523438 14.429688 16.40625 14.472656 16.335938 14.488281 C 16.257812 14.511719 16.121094 14.527344 16.011719 14.527344 C 15.902344 14.527344 15.761719 14.515625 15.695312 14.5 C 15.628906 14.488281 15.5 14.441406 15.410156 14.398438 C 15.304688 14.347656 15.210938 14.285156 15.132812 14.207031 C 15.066406 14.144531 15.011719 14.101562 15.007812 14.109375 C 15 14.117188 15.011719 14.183594 15.023438 14.257812 C 15.039062 14.328125 15.082031 14.449219 15.117188 14.519531 C 15.15625 14.59375 15.234375 14.703125 15.296875 14.765625 C 15.371094 14.839844 15.460938 14.90625 15.5625 14.953125 C 15.660156 14.996094 15.769531 15.035156 15.859375 15.046875 C 15.945312 15.058594 16.046875 15.058594 16.121094 15.046875 C 16.1875 15.039062 16.292969 15.011719 16.355469 14.988281 C 16.414062 14.96875 16.519531 14.90625 16.589844 14.859375 C 16.65625 14.808594 16.75 14.714844 16.796875 14.648438 C 16.847656 14.582031 16.902344 14.480469 16.925781 14.417969 C 16.949219 14.355469 16.972656 14.253906 16.980469 14.191406 L 16.996094 14.074219 C 17.816406 14.074219 17.914062 14.070312 17.90625 14.046875 C 17.902344 14.035156 17.699219 13.941406 17.460938 13.847656 C 17.222656 13.746094 17.023438 13.660156 17.023438 13.652344 C 17.023438 13.644531 17.167969 13.507812 17.347656 13.347656 C 17.527344 13.1875 17.667969 13.054688 17.660156 13.050781 C 17.648438 13.046875 17.449219 13.09375 17.214844 13.15625 C 16.976562 13.222656 16.777344 13.269531 16.769531 13.261719 C 16.761719 13.257812 16.808594 13.054688 16.871094 12.816406 C 16.933594 12.574219 16.984375 12.375 16.980469 12.363281 C 16.976562 12.355469 16.816406 12.496094 16.625 12.675781 C 16.429688 12.851562 16.269531 12.996094 16.265625 12.992188 C 16.261719 12.992188 16.207031 12.800781 16.140625 12.574219 C 16.078125 12.34375 16.019531 12.144531 16.011719 12.125 C 16.003906 12.109375 15.992188 12.105469 15.984375 12.117188 Z M 15.984375 12.117188 "/>
<path style=" stroke:none;fill-rule:nonzero;fill:rgb(100%,100%,100%);fill-opacity:1;" d="M 12.449219 12.367188 C 12.402344 12.390625 12.347656 12.433594 12.328125 12.464844 C 12.304688 12.496094 12.289062 12.523438 12.289062 12.527344 C 12.285156 12.527344 11.878906 12.605469 11.382812 12.695312 C 10.886719 12.785156 10.460938 12.863281 10.433594 12.867188 C 10.410156 12.871094 10.390625 12.886719 10.390625 12.898438 C 10.390625 12.910156 10.824219 12.917969 11.652344 12.917969 C 12.8125 12.917969 12.921875 12.921875 12.984375 12.953125 C 13.023438 12.972656 13.074219 13.019531 13.09375 13.058594 C 13.117188 13.097656 13.136719 13.164062 13.136719 13.203125 C 13.136719 13.242188 13.117188 13.304688 13.097656 13.339844 C 13.074219 13.378906 13.023438 13.425781 12.988281 13.449219 C 12.925781 13.480469 12.867188 13.484375 12.601562 13.484375 C 12.386719 13.484375 12.25 13.496094 12.171875 13.515625 C 12.105469 13.53125 12.003906 13.570312 11.945312 13.601562 C 11.886719 13.628906 11.785156 13.707031 11.71875 13.769531 C 11.652344 13.835938 11.566406 13.9375 11.53125 14.003906 C 11.496094 14.070312 11.453125 14.1875 11.433594 14.265625 C 11.410156 14.359375 11.402344 14.453125 11.410156 14.550781 C 11.417969 14.628906 11.4375 14.746094 11.464844 14.8125 C 11.488281 14.878906 11.535156 14.980469 11.570312 15.035156 C 11.609375 15.09375 12.53125 16.035156 13.726562 17.230469 C 14.875 18.382812 15.824219 19.320312 15.832031 19.316406 C 15.839844 19.308594 15.847656 19.136719 15.847656 18.933594 L 15.847656 18.566406 L 12.773438 15.492188 L 13.21875 15.492188 C 15.234375 17.503906 15.824219 18.089844 15.832031 18.089844 C 15.839844 18.089844 15.847656 17.941406 15.847656 17.757812 L 15.847656 17.429688 L 13.910156 15.492188 L 14.355469 15.492188 C 15.488281 16.625 15.824219 16.953125 15.832031 16.953125 C 15.839844 16.953125 15.84375 16.886719 15.835938 16.804688 C 15.828125 16.726562 15.808594 16.585938 15.785156 16.496094 C 15.765625 16.40625 15.71875 16.265625 15.683594 16.183594 C 15.652344 16.097656 15.570312 15.953125 15.507812 15.859375 C 15.445312 15.761719 15.324219 15.617188 15.242188 15.53125 C 15.15625 15.445312 15.015625 15.332031 14.925781 15.273438 C 14.835938 15.214844 14.710938 15.140625 14.652344 15.113281 C 14.589844 15.085938 14.488281 15.042969 14.425781 15.023438 C 14.367188 15 14.257812 14.96875 14.183594 14.953125 C 14.078125 14.925781 13.871094 14.917969 13.15625 14.90625 L 12.261719 14.894531 C 12.125 14.800781 12.066406 14.734375 12.039062 14.679688 C 12.007812 14.621094 11.992188 14.554688 11.992188 14.496094 C 11.992188 14.441406 12.007812 14.363281 12.023438 14.320312 C 12.039062 14.28125 12.074219 14.226562 12.101562 14.199219 C 12.125 14.171875 12.179688 14.132812 12.21875 14.113281 C 12.285156 14.078125 12.339844 14.074219 12.574219 14.074219 C 12.730469 14.074219 12.910156 14.066406 12.976562 14.054688 C 13.042969 14.042969 13.164062 14 13.242188 13.964844 C 13.328125 13.921875 13.417969 13.855469 13.476562 13.792969 C 13.53125 13.734375 13.605469 13.625 13.640625 13.550781 C 13.703125 13.421875 13.707031 13.398438 13.707031 13.203125 C 13.707031 13.003906 13.703125 12.980469 13.640625 12.847656 C 13.601562 12.769531 13.546875 12.679688 13.519531 12.648438 C 13.488281 12.617188 13.46875 12.589844 13.472656 12.585938 C 13.480469 12.578125 13.644531 12.53125 13.839844 12.476562 C 14.035156 12.417969 14.195312 12.363281 14.199219 12.351562 C 14.203125 12.335938 13.964844 12.332031 13.367188 12.332031 C 12.589844 12.332031 12.523438 12.332031 12.449219 12.367188 Z M 17.796875 12.355469 C 17.8125 12.371094 17.984375 12.429688 18.175781 12.484375 L 18.527344 12.582031 C 18.445312 12.675781 18.394531 12.757812 18.363281 12.828125 C 18.332031 12.894531 18.296875 13.003906 18.285156 13.070312 C 18.273438 13.152344 18.273438 13.238281 18.285156 13.324219 C 18.296875 13.394531 18.328125 13.503906 18.355469 13.5625 C 18.382812 13.621094 18.449219 13.714844 18.5 13.773438 C 18.554688 13.828125 18.632812 13.898438 18.679688 13.925781 C 18.722656 13.957031 18.808594 13.996094 18.871094 14.019531 C 18.960938 14.050781 19.058594 14.0625 19.359375 14.070312 C 19.71875 14.082031 19.738281 14.085938 19.816406 14.136719 C 19.867188 14.167969 19.914062 14.226562 19.953125 14.296875 C 19.984375 14.359375 20.007812 14.441406 20.007812 14.484375 C 20.007812 14.527344 19.992188 14.59375 19.976562 14.636719 C 19.960938 14.679688 19.917969 14.738281 19.890625 14.769531 C 19.859375 14.800781 19.808594 14.84375 19.773438 14.859375 C 19.722656 14.890625 19.601562 14.898438 18.820312 14.90625 C 17.972656 14.917969 17.917969 14.921875 17.753906 14.964844 C 17.660156 14.988281 17.503906 15.046875 17.410156 15.085938 C 17.316406 15.128906 17.171875 15.203125 17.09375 15.25 C 17.019531 15.300781 16.894531 15.398438 16.824219 15.464844 C 16.75 15.53125 16.640625 15.652344 16.570312 15.734375 C 16.503906 15.820312 16.40625 15.980469 16.351562 16.089844 C 16.300781 16.203125 16.238281 16.371094 16.210938 16.464844 C 16.1875 16.5625 16.164062 16.71875 16.160156 16.8125 L 16.148438 16.984375 L 17.644531 15.492188 L 18.089844 15.492188 L 16.152344 17.429688 L 16.152344 18.121094 L 18.78125 15.492188 L 19.226562 15.492188 L 16.152344 18.566406 L 16.164062 19.328125 C 20.347656 15.136719 20.410156 15.074219 20.480469 14.925781 C 20.523438 14.835938 20.5625 14.714844 20.574219 14.632812 C 20.589844 14.53125 20.589844 14.449219 20.574219 14.347656 C 20.5625 14.257812 20.527344 14.144531 20.476562 14.042969 C 20.425781 13.941406 20.359375 13.84375 20.296875 13.785156 C 20.246094 13.734375 20.144531 13.65625 20.078125 13.617188 C 20.011719 13.578125 19.894531 13.53125 19.820312 13.515625 C 19.734375 13.496094 19.574219 13.484375 19.382812 13.484375 C 19.136719 13.484375 19.070312 13.476562 19.011719 13.449219 C 18.976562 13.429688 18.921875 13.382812 18.898438 13.34375 C 18.871094 13.304688 18.851562 13.246094 18.851562 13.210938 C 18.851562 13.175781 18.867188 13.117188 18.886719 13.082031 C 18.90625 13.042969 18.953125 12.988281 18.992188 12.960938 L 19.0625 12.917969 C 21.375 12.917969 21.617188 12.914062 21.59375 12.890625 C 21.578125 12.878906 21.152344 12.792969 20.640625 12.699219 C 20.128906 12.605469 19.714844 12.53125 19.710938 12.527344 C 19.710938 12.523438 19.691406 12.496094 19.667969 12.460938 C 19.648438 12.425781 19.589844 12.382812 19.542969 12.363281 C 19.46875 12.332031 19.371094 12.328125 18.613281 12.328125 C 17.890625 12.328125 17.769531 12.332031 17.796875 12.355469 Z M 28.976562 12.617188 C 28.523438 12.71875 28.152344 12.800781 28.152344 12.804688 C 28.148438 12.804688 28.164062 12.886719 28.1875 12.988281 C 28.210938 13.089844 28.230469 13.171875 28.230469 13.175781 C 28.234375 13.179688 28.371094 13.15625 28.539062 13.117188 C 28.707031 13.082031 28.855469 13.050781 28.867188 13.046875 C 28.875 13.042969 28.910156 13.152344 28.941406 13.289062 C 28.972656 13.425781 29.003906 13.542969 29.007812 13.546875 C 29.015625 13.550781 29.09375 13.539062 29.191406 13.515625 C 29.285156 13.492188 29.363281 13.464844 29.363281 13.457031 C 29.363281 13.445312 29.339844 13.328125 29.3125 13.203125 C 29.28125 13.074219 29.261719 12.964844 29.265625 12.964844 C 29.269531 12.960938 29.328125 12.945312 29.402344 12.929688 C 29.476562 12.914062 29.539062 12.90625 29.546875 12.914062 C 29.550781 12.921875 29.589844 13.066406 29.628906 13.238281 C 29.664062 13.40625 29.699219 13.546875 29.707031 13.546875 C 29.710938 13.546875 29.792969 13.53125 29.882812 13.511719 C 30.003906 13.484375 30.050781 13.46875 30.050781 13.445312 C 30.050781 13.429688 30.003906 13.195312 29.945312 12.929688 C 29.886719 12.664062 29.832031 12.441406 29.820312 12.4375 C 29.808594 12.4375 29.429688 12.515625 28.976562 12.617188 Z M 28.976562 12.617188 "/>
<path style=" stroke:none;fill-rule:nonzero;fill:rgb(0%,0.392157%,0%);fill-opacity:1;" d="M 12.582031 12.625 L 12.582031 12.714844 L 12.925781 12.714844 L 12.925781 12.53125 L 12.582031 12.53125 M 19.074219 12.625 L 19.074219 12.714844 L 19.417969 12.714844 L 19.417969 12.53125 L 19.074219 12.53125 "/>
<path style=" stroke:none;fill-rule:nonzero;fill:rgb(100%,100%,100%);fill-opacity:1;" d="M 1.941406 13.460938 C 1.925781 13.558594 1.917969 13.644531 1.925781 13.652344 C 1.929688 13.65625 2.308594 13.730469 2.761719 13.8125 C 3.21875 13.894531 3.59375 13.957031 3.597656 13.953125 C 3.605469 13.945312 3.625 13.859375 3.644531 13.757812 C 3.660156 13.660156 3.671875 13.574219 3.667969 13.574219 C 3.664062 13.570312 3.300781 13.507812 2.855469 13.425781 C 2.414062 13.347656 2.03125 13.28125 2.011719 13.28125 C 1.980469 13.28125 1.96875 13.3125 1.941406 13.460938 Z M 29.566406 14.4375 C 29.167969 14.464844 29.003906 14.484375 28.9375 14.511719 C 28.886719 14.53125 28.8125 14.570312 28.773438 14.597656 C 28.730469 14.628906 28.675781 14.679688 28.648438 14.710938 C 28.621094 14.746094 28.582031 14.800781 28.566406 14.832031 C 28.546875 14.867188 28.523438 14.953125 28.507812 15.027344 C 28.488281 15.132812 28.488281 15.1875 28.507812 15.300781 C 28.523438 15.378906 28.558594 15.488281 28.585938 15.542969 C 28.617188 15.597656 28.683594 15.675781 28.734375 15.71875 C 28.785156 15.761719 28.871094 15.816406 28.929688 15.839844 C 29.003906 15.867188 29.089844 15.878906 29.203125 15.878906 C 29.296875 15.878906 29.578125 15.863281 29.828125 15.847656 C 30.078125 15.832031 30.285156 15.8125 30.289062 15.8125 C 30.289062 15.808594 30.285156 15.722656 30.277344 15.621094 L 30.265625 15.433594 C 30.15625 15.433594 29.914062 15.445312 29.65625 15.464844 C 29.398438 15.480469 29.15625 15.488281 29.117188 15.480469 C 29.078125 15.476562 29.023438 15.449219 28.992188 15.429688 C 28.960938 15.410156 28.921875 15.351562 28.902344 15.304688 C 28.882812 15.25 28.875 15.1875 28.882812 15.128906 C 28.886719 15.078125 28.910156 15.015625 28.933594 14.984375 C 28.953125 14.957031 29 14.917969 29.039062 14.902344 C 29.09375 14.871094 29.226562 14.859375 29.65625 14.832031 C 29.957031 14.8125 30.210938 14.792969 30.214844 14.785156 C 30.222656 14.777344 30.222656 14.691406 30.214844 14.589844 C 30.203125 14.414062 30.203125 14.40625 30.152344 14.40625 C 30.125 14.402344 29.859375 14.417969 29.566406 14.4375 Z M 30.378906 15.070312 C 30.378906 15.121094 30.386719 15.183594 30.394531 15.210938 C 30.402344 15.253906 30.457031 15.300781 30.585938 15.390625 C 30.683594 15.457031 30.773438 15.511719 30.789062 15.511719 C 30.804688 15.511719 30.808594 15.492188 30.796875 15.4375 C 30.789062 15.394531 30.78125 15.308594 30.78125 15.246094 L 30.78125 15.128906 C 30.539062 15.039062 30.449219 15.003906 30.425781 14.996094 C 30.382812 14.984375 30.378906 14.988281 30.378906 15.070312 Z M 2.832031 16.082031 C 2.785156 16.09375 2.714844 16.128906 2.671875 16.15625 C 2.628906 16.1875 2.597656 16.21875 2.597656 16.222656 C 2.597656 16.230469 2.578125 16.253906 2.554688 16.277344 L 2.515625 16.324219 C 2.382812 16.246094 2.335938 16.234375 2.238281 16.234375 C 2.152344 16.234375 2.085938 16.25 2.035156 16.277344 C 1.992188 16.300781 1.925781 16.347656 1.890625 16.386719 C 1.851562 16.425781 1.800781 16.496094 1.777344 16.546875 C 1.742188 16.632812 1.742188 16.667969 1.753906 17.015625 C 1.761719 17.21875 1.773438 17.394531 1.78125 17.402344 C 1.789062 17.414062 2.171875 17.398438 2.628906 17.375 C 3.089844 17.347656 3.472656 17.320312 3.484375 17.3125 C 3.492188 17.300781 3.488281 17.109375 3.476562 16.886719 C 3.460938 16.636719 3.441406 16.449219 3.425781 16.40625 C 3.410156 16.367188 3.371094 16.300781 3.34375 16.265625 C 3.316406 16.222656 3.246094 16.167969 3.191406 16.136719 C 3.136719 16.109375 3.054688 16.078125 3.003906 16.074219 C 2.953125 16.066406 2.875 16.070312 2.832031 16.082031 Z M 2.832031 16.082031 "/>
<path style=" stroke:none;fill-rule:nonzero;fill:rgb(0%,0.392157%,0%);fill-opacity:1;" d="M 2.867188 16.472656 C 2.84375 16.488281 2.808594 16.519531 2.792969 16.546875 C 2.765625 16.589844 2.761719 16.636719 2.773438 16.789062 L 2.789062 16.976562 C 2.929688 16.957031 3.003906 16.953125 3.042969 16.953125 L 3.113281 16.953125 C 3.097656 16.660156 3.082031 16.5625 3.074219 16.539062 C 3.0625 16.519531 3.027344 16.488281 2.996094 16.472656 C 2.96875 16.457031 2.933594 16.445312 2.925781 16.445312 C 2.917969 16.445312 2.890625 16.457031 2.867188 16.472656 Z M 2.203125 16.632812 C 2.179688 16.644531 2.148438 16.667969 2.136719 16.6875 C 2.121094 16.707031 2.109375 16.78125 2.109375 16.871094 L 2.109375 17.023438 C 2.210938 17 2.289062 16.992188 2.34375 16.992188 L 2.445312 16.992188 C 2.433594 16.8125 2.425781 16.738281 2.414062 16.710938 C 2.402344 16.683594 2.371094 16.648438 2.34375 16.632812 C 2.316406 16.621094 2.28125 16.609375 2.269531 16.609375 C 2.253906 16.609375 2.222656 16.621094 2.203125 16.632812 Z M 2.203125 16.632812 "/>
<path style=" stroke:none;fill-rule:nonzero;fill:rgb(100%,100%,100%);fill-opacity:1;" d="M 29.882812 16.839844 C 29.875 16.917969 29.863281 17.019531 29.859375 17.058594 C 29.847656 17.132812 29.847656 17.136719 29.773438 17.125 C 29.730469 17.121094 29.433594 17.089844 29.113281 17.058594 C 28.792969 17.027344 28.527344 17.007812 28.519531 17.015625 C 28.515625 17.019531 28.5 17.105469 28.492188 17.207031 C 28.480469 17.308594 28.472656 17.390625 28.476562 17.394531 C 28.476562 17.394531 28.777344 17.425781 29.140625 17.464844 C 29.5 17.496094 29.804688 17.53125 29.808594 17.535156 C 29.8125 17.539062 29.808594 17.636719 29.796875 17.75 C 29.78125 17.863281 29.773438 17.957031 29.773438 17.960938 C 29.777344 17.964844 29.859375 17.972656 29.960938 17.984375 C 30.0625 17.996094 30.144531 18.003906 30.148438 18 C 30.148438 18 30.175781 17.71875 30.210938 17.378906 C 30.242188 17.039062 30.261719 16.753906 30.257812 16.746094 C 30.25 16.738281 30.164062 16.722656 30.070312 16.714844 L 29.894531 16.699219 "/>
<path style=" stroke:none;fill-rule:nonzero;fill:rgb(96.470588%,70.588235%,80.392157%);fill-opacity:1;" d="M 18.71875 17.1875 L 18.578125 17.328125 L 18.585938 18.222656 C 18.152344 18.652344 18.023438 18.773438 18.011719 18.761719 C 18.003906 18.753906 18 18.5625 18 18.332031 L 18 17.917969 L 17.714844 18.199219 L 17.714844 19.09375 L 16 20.804688 L 14.285156 19.09375 L 14.285156 18.222656 L 14 17.9375 C 14 18.566406 13.996094 18.753906 13.988281 18.761719 C 13.976562 18.773438 13.847656 18.652344 13.691406 18.5 L 13.414062 18.222656 L 13.414062 17.347656 L 13.128906 17.066406 L 13.128906 18.34375 L 14 19.214844 L 14 23.746094 L 13.117188 23.757812 L 13.117188 24.039062 L 14.285156 24.050781 L 14.285156 19.5 L 15.796875 21.007812 L 15.035156 21.769531 C 15.765625 22.5 15.988281 22.710938 16 22.710938 C 16.011719 22.710938 16.234375 22.5 16.492188 22.242188 L 16.964844 21.769531 L 16.203125 21.007812 C 17.332031 19.878906 17.675781 19.546875 17.6875 19.546875 C 17.710938 19.546875 17.714844 19.984375 17.714844 21.800781 L 17.714844 24.050781 L 18.871094 24.050781 L 18.871094 23.746094 L 18 23.746094 L 18 19.214844 L 18.871094 18.34375 L 18.859375 17.042969 "/>
<path style=" stroke:none;fill-rule:nonzero;fill:rgb(100%,100%,100%);fill-opacity:1;" d="M 3.023438 18.367188 C 2.996094 18.371094 2.746094 18.429688 2.464844 18.496094 C 2.1875 18.5625 1.957031 18.621094 1.953125 18.621094 C 1.949219 18.625 1.964844 18.707031 1.988281 18.808594 C 2.011719 18.910156 2.03125 18.992188 2.035156 18.996094 C 2.039062 19 2.273438 18.945312 2.554688 18.878906 C 2.839844 18.8125 3.109375 18.757812 3.15625 18.757812 C 3.207031 18.757812 3.261719 18.773438 3.308594 18.804688 C 3.347656 18.828125 3.394531 18.882812 3.414062 18.921875 C 3.433594 18.960938 3.449219 19.03125 3.449219 19.082031 C 3.449219 19.136719 3.433594 19.199219 3.410156 19.238281 C 3.386719 19.277344 3.332031 19.320312 3.28125 19.34375 C 3.234375 19.363281 2.972656 19.433594 2.699219 19.5 C 2.425781 19.5625 2.195312 19.617188 2.191406 19.625 C 2.1875 19.628906 2.199219 19.710938 2.222656 19.808594 C 2.242188 19.902344 2.273438 19.984375 2.28125 19.988281 C 2.292969 19.992188 2.539062 19.941406 2.832031 19.871094 C 3.121094 19.804688 3.402344 19.726562 3.460938 19.699219 C 3.515625 19.675781 3.601562 19.609375 3.65625 19.554688 C 3.710938 19.496094 3.765625 19.410156 3.792969 19.339844 C 3.816406 19.269531 3.835938 19.179688 3.835938 19.109375 C 3.835938 19.042969 3.820312 18.941406 3.804688 18.878906 C 3.789062 18.820312 3.75 18.730469 3.726562 18.6875 C 3.699219 18.640625 3.640625 18.570312 3.59375 18.527344 C 3.546875 18.488281 3.46875 18.433594 3.414062 18.410156 C 3.359375 18.386719 3.261719 18.367188 3.195312 18.363281 C 3.128906 18.359375 3.050781 18.359375 3.023438 18.367188 Z M 28.300781 18.570312 C 28.296875 18.578125 28.25 18.75 28.199219 18.949219 C 28.148438 19.152344 28.105469 19.359375 28.105469 19.417969 C 28.105469 19.472656 28.117188 19.554688 28.128906 19.597656 C 28.144531 19.640625 28.1875 19.714844 28.226562 19.757812 C 28.265625 19.800781 28.332031 19.855469 28.378906 19.878906 C 28.421875 19.898438 28.5 19.921875 28.550781 19.929688 C 28.601562 19.933594 28.679688 19.929688 28.722656 19.914062 C 28.769531 19.898438 28.832031 19.867188 28.867188 19.839844 L 28.925781 19.792969 C 29.042969 19.910156 29.105469 19.949219 29.179688 19.96875 C 29.25 19.988281 29.324219 19.996094 29.378906 19.988281 C 29.425781 19.980469 29.496094 19.957031 29.539062 19.9375 C 29.582031 19.914062 29.648438 19.859375 29.691406 19.8125 C 29.734375 19.769531 29.777344 19.707031 29.789062 19.675781 C 29.800781 19.644531 29.847656 19.472656 29.890625 19.292969 C 29.933594 19.117188 29.96875 18.96875 29.964844 18.96875 C 29.964844 18.96875 29.59375 18.875 29.144531 18.761719 C 28.695312 18.648438 28.324219 18.554688 28.316406 18.554688 C 28.3125 18.554688 28.304688 18.5625 28.300781 18.570312 Z M 28.300781 18.570312 "/>
<path style=" stroke:none;fill-rule:nonzero;fill:rgb(0%,0.392157%,0%);fill-opacity:1;" d="M 28.511719 19.195312 C 28.488281 19.289062 28.46875 19.382812 28.46875 19.402344 C 28.46875 19.421875 28.488281 19.460938 28.507812 19.492188 C 28.542969 19.535156 28.566406 19.550781 28.625 19.550781 C 28.679688 19.550781 28.714844 19.535156 28.746094 19.503906 C 28.769531 19.476562 28.808594 19.382812 28.832031 19.285156 C 28.859375 19.191406 28.871094 19.109375 28.863281 19.101562 C 28.851562 19.09375 28.785156 19.074219 28.707031 19.054688 C 28.632812 19.035156 28.566406 19.023438 28.5625 19.023438 C 28.558594 19.023438 28.535156 19.097656 28.511719 19.195312 Z M 29.171875 19.316406 C 29.148438 19.410156 29.144531 19.460938 29.160156 19.5 C 29.167969 19.527344 29.199219 19.5625 29.226562 19.582031 C 29.253906 19.601562 29.292969 19.609375 29.332031 19.601562 C 29.367188 19.59375 29.40625 19.574219 29.429688 19.554688 C 29.449219 19.535156 29.476562 19.464844 29.496094 19.398438 C 29.511719 19.328125 29.523438 19.273438 29.519531 19.269531 C 29.515625 19.269531 29.445312 19.246094 29.363281 19.222656 C 29.277344 19.203125 29.207031 19.183594 29.207031 19.183594 C 29.207031 19.183594 29.1875 19.242188 29.171875 19.316406 Z M 29.171875 19.316406 "/>
<path style=" stroke:none;fill-rule:nonzero;fill:rgb(100%,100%,100%);fill-opacity:1;" d="M 3.9375 20.203125 C 3.851562 20.238281 3.78125 20.265625 3.78125 20.265625 C 3.777344 20.265625 3.832031 20.414062 3.90625 20.59375 C 3.980469 20.773438 4.03125 20.925781 4.023438 20.929688 C 4.015625 20.9375 3.742188 21.050781 3.417969 21.179688 C 3.09375 21.3125 2.824219 21.425781 2.816406 21.433594 C 2.804688 21.4375 2.832031 21.523438 2.867188 21.617188 C 2.914062 21.730469 2.945312 21.789062 2.964844 21.78125 C 2.980469 21.78125 3.335938 21.636719 3.757812 21.46875 C 4.179688 21.300781 4.523438 21.152344 4.523438 21.140625 C 4.523438 21.128906 4.4375 20.898438 4.328125 20.628906 C 4.21875 20.359375 4.121094 20.136719 4.109375 20.136719 C 4.097656 20.140625 4.019531 20.167969 3.9375 20.203125 Z M 27.929688 20.753906 C 27.886719 20.769531 27.808594 20.800781 27.757812 20.828125 C 27.710938 20.851562 27.625 20.914062 27.570312 20.964844 C 27.515625 21.019531 27.445312 21.101562 27.417969 21.152344 C 27.386719 21.199219 27.347656 21.292969 27.328125 21.359375 C 27.308594 21.421875 27.292969 21.53125 27.292969 21.601562 C 27.292969 21.671875 27.304688 21.777344 27.324219 21.839844 C 27.34375 21.902344 27.375 21.988281 27.394531 22.027344 C 27.417969 22.070312 27.472656 22.148438 27.519531 22.199219 C 27.570312 22.25 27.644531 22.316406 27.6875 22.347656 C 27.734375 22.378906 27.8125 22.417969 27.859375 22.4375 C 27.910156 22.457031 28.007812 22.480469 28.074219 22.488281 C 28.144531 22.5 28.246094 22.5 28.316406 22.488281 C 28.382812 22.476562 28.503906 22.4375 28.582031 22.398438 C 28.679688 22.351562 28.753906 22.296875 28.832031 22.214844 C 28.890625 22.148438 28.960938 22.042969 28.992188 21.984375 C 29.019531 21.921875 29.050781 21.8125 29.066406 21.738281 C 29.082031 21.640625 29.082031 21.570312 29.0625 21.472656 C 29.046875 21.394531 29.011719 21.28125 28.980469 21.21875 C 28.949219 21.152344 28.875 21.050781 28.8125 20.988281 C 28.753906 20.925781 28.660156 20.851562 28.613281 20.828125 C 28.5625 20.800781 28.480469 20.769531 28.429688 20.753906 C 28.378906 20.738281 28.265625 20.726562 28.175781 20.726562 C 28.085938 20.726562 27.976562 20.738281 27.929688 20.753906 Z M 27.929688 20.753906 "/>
<path style=" stroke:none;fill-rule:nonzero;fill:rgb(0%,0.392157%,0%);fill-opacity:1;" d="M 28.011719 21.136719 C 27.976562 21.148438 27.917969 21.183594 27.878906 21.207031 C 27.839844 21.234375 27.789062 21.285156 27.765625 21.320312 C 27.738281 21.355469 27.710938 21.414062 27.699219 21.457031 C 27.6875 21.492188 27.675781 21.558594 27.675781 21.597656 C 27.675781 21.636719 27.691406 21.707031 27.707031 21.757812 C 27.722656 21.808594 27.773438 21.886719 27.8125 21.929688 C 27.855469 21.976562 27.925781 22.03125 27.972656 22.050781 C 28.015625 22.074219 28.089844 22.09375 28.132812 22.097656 C 28.179688 22.105469 28.265625 22.097656 28.328125 22.082031 C 28.417969 22.0625 28.457031 22.035156 28.542969 21.953125 C 28.617188 21.878906 28.652344 21.824219 28.671875 21.75 C 28.6875 21.6875 28.695312 21.613281 28.683594 21.5625 C 28.679688 21.515625 28.65625 21.441406 28.632812 21.398438 C 28.613281 21.355469 28.570312 21.296875 28.539062 21.265625 C 28.503906 21.234375 28.441406 21.1875 28.398438 21.167969 C 28.351562 21.144531 28.265625 21.121094 28.195312 21.117188 C 28.128906 21.113281 28.042969 21.121094 28.011719 21.136719 Z M 15.714844 21.496094 L 15.453125 21.761719 L 16 22.304688 L 16.546875 21.757812 C 16.140625 21.351562 16.011719 21.230469 16 21.230469 C 15.988281 21.230469 15.859375 21.351562 15.714844 21.496094 Z M 15.714844 21.496094 "/>
<path style=" stroke:none;fill-rule:nonzero;fill:rgb(100%,100%,100%);fill-opacity:1;" d="M 4.5 22.121094 C 4.492188 22.128906 4.496094 22.21875 4.503906 22.316406 L 4.515625 22.5 C 4.722656 22.523438 4.78125 22.542969 4.839844 22.585938 C 4.882812 22.617188 4.949219 22.6875 4.988281 22.742188 C 5.023438 22.800781 5.058594 22.878906 5.066406 22.925781 C 5.074219 22.96875 5.066406 23.054688 5.050781 23.117188 C 5.035156 23.179688 4.996094 23.265625 4.960938 23.308594 C 4.929688 23.355469 4.851562 23.414062 4.789062 23.445312 C 4.699219 23.492188 4.648438 23.503906 4.550781 23.503906 C 4.480469 23.503906 4.394531 23.492188 4.355469 23.476562 C 4.320312 23.460938 4.261719 23.421875 4.222656 23.390625 C 4.183594 23.359375 4.132812 23.285156 4.105469 23.230469 C 4.074219 23.160156 4.058594 23.089844 4.058594 23.011719 C 4.058594 22.949219 4.070312 22.859375 4.089844 22.820312 C 4.105469 22.777344 4.121094 22.742188 4.121094 22.738281 C 4.117188 22.734375 4.046875 22.695312 3.960938 22.644531 C 3.875 22.597656 3.800781 22.558594 3.789062 22.554688 C 3.78125 22.550781 3.753906 22.59375 3.734375 22.644531 C 3.710938 22.699219 3.683594 22.796875 3.671875 22.863281 C 3.65625 22.949219 3.65625 23.027344 3.671875 23.117188 C 3.683594 23.191406 3.722656 23.3125 3.761719 23.390625 C 3.804688 23.480469 3.871094 23.574219 3.9375 23.644531 C 4 23.707031 4.101562 23.777344 4.171875 23.8125 C 4.238281 23.84375 4.355469 23.878906 4.433594 23.890625 C 4.542969 23.910156 4.605469 23.910156 4.707031 23.890625 C 4.78125 23.878906 4.890625 23.84375 4.949219 23.816406 C 5.011719 23.785156 5.117188 23.710938 5.179688 23.648438 C 5.25 23.582031 5.324219 23.484375 5.359375 23.414062 C 5.394531 23.34375 5.429688 23.226562 5.441406 23.148438 C 5.460938 23.039062 5.460938 22.976562 5.441406 22.875 C 5.429688 22.800781 5.390625 22.683594 5.355469 22.609375 C 5.316406 22.527344 5.25 22.4375 5.175781 22.367188 C 5.113281 22.304688 5.011719 22.230469 4.949219 22.203125 C 4.890625 22.171875 4.796875 22.136719 4.75 22.125 C 4.699219 22.113281 4.625 22.105469 4.582031 22.105469 C 4.539062 22.105469 4.503906 22.109375 4.5 22.121094 Z M 26.496094 22.878906 C 26.425781 22.980469 26.285156 23.183594 26.1875 23.324219 C 26.085938 23.464844 26.007812 23.585938 26.011719 23.59375 C 26.011719 23.597656 26.082031 23.652344 26.164062 23.707031 L 26.316406 23.808594 C 26.617188 23.367188 26.714844 23.238281 26.722656 23.238281 C 26.734375 23.238281 26.980469 23.402344 27.265625 23.597656 C 27.554688 23.796875 27.804688 23.957031 27.820312 23.957031 C 27.835938 23.960938 27.890625 23.894531 27.945312 23.816406 C 28 23.738281 28.042969 23.671875 28.042969 23.664062 C 28.042969 23.660156 27.730469 23.4375 27.34375 23.171875 C 26.957031 22.90625 26.640625 22.691406 26.632812 22.691406 C 26.628906 22.691406 26.566406 22.777344 26.496094 22.878906 Z M 26.496094 22.878906 "/>
<path style=" stroke:none;fill-rule:nonzero;fill:rgb(96.470588%,70.588235%,80.392157%);fill-opacity:1;" d="M 7.742188 26.03125 C 7.699219 26.230469 7.660156 26.402344 7.652344 26.417969 C 7.644531 26.429688 7.488281 26.472656 7.304688 26.515625 C 7.121094 26.554688 6.953125 26.589844 6.933594 26.597656 C 6.914062 26.601562 6.898438 26.613281 6.898438 26.621094 C 6.898438 26.628906 7.058594 26.671875 7.257812 26.714844 C 7.457031 26.757812 7.628906 26.804688 7.640625 26.816406 C 7.65625 26.828125 7.699219 27 7.742188 27.199219 C 7.789062 27.398438 7.832031 27.554688 7.84375 27.550781 C 7.855469 27.546875 7.898438 27.382812 7.941406 27.183594 C 7.984375 26.980469 8.027344 26.816406 8.035156 26.808594 C 8.042969 26.804688 8.214844 26.761719 8.417969 26.71875 C 8.621094 26.671875 8.789062 26.628906 8.789062 26.621094 C 8.785156 26.613281 8.769531 26.601562 8.75 26.597656 C 8.730469 26.59375 8.558594 26.554688 8.367188 26.511719 L 8.019531 26.433594 C 7.902344 25.898438 7.867188 25.726562 7.863281 25.707031 C 7.855469 25.691406 7.84375 25.671875 7.835938 25.671875 C 7.824219 25.671875 7.785156 25.835938 7.742188 26.03125 Z M 24.058594 26.042969 C 24.015625 26.246094 23.972656 26.417969 23.964844 26.425781 C 23.960938 26.4375 23.804688 26.472656 23.621094 26.515625 C 23.433594 26.554688 23.269531 26.589844 23.25 26.597656 C 23.230469 26.601562 23.214844 26.613281 23.210938 26.621094 C 23.210938 26.628906 23.375 26.671875 23.574219 26.714844 C 23.773438 26.757812 23.945312 26.800781 23.953125 26.808594 C 23.964844 26.820312 24.011719 26.988281 24.054688 27.191406 C 24.101562 27.394531 24.144531 27.554688 24.15625 27.550781 C 24.167969 27.546875 24.210938 27.382812 24.257812 27.183594 C 24.300781 26.980469 24.339844 26.816406 24.351562 26.808594 C 24.359375 26.804688 24.53125 26.761719 24.734375 26.71875 C 24.9375 26.671875 25.101562 26.628906 25.101562 26.621094 C 25.101562 26.613281 25.082031 26.601562 25.054688 26.597656 C 25.03125 26.589844 24.863281 26.550781 24.683594 26.511719 C 24.507812 26.472656 24.355469 26.433594 24.347656 26.425781 C 24.339844 26.417969 24.304688 26.28125 24.269531 26.121094 C 24.234375 25.957031 24.195312 25.789062 24.1875 25.75 C 24.175781 25.707031 24.160156 25.671875 24.152344 25.671875 C 24.140625 25.671875 24.101562 25.839844 24.058594 26.042969 Z M 24.058594 26.042969 "/>
<path style=" stroke:none;fill-rule:nonzero;fill:rgb(100%,100%,100%);fill-opacity:1;" d="M 20.035156 27.847656 C 19.933594 27.886719 19.839844 27.921875 19.828125 27.933594 C 19.816406 27.945312 19.765625 28.085938 19.714844 28.242188 C 19.664062 28.402344 19.613281 28.53125 19.605469 28.53125 C 19.597656 28.53125 19.480469 28.445312 19.347656 28.339844 C 19.214844 28.234375 19.089844 28.148438 19.074219 28.148438 C 19.058594 28.148438 18.957031 28.171875 18.851562 28.199219 C 18.746094 28.226562 18.65625 28.25 18.652344 28.253906 C 18.648438 28.257812 18.832031 28.402344 19.054688 28.578125 C 19.277344 28.753906 19.460938 28.910156 19.460938 28.921875 C 19.457031 28.9375 19.378906 29.167969 19.277344 29.433594 C 19.179688 29.703125 19.105469 29.925781 19.113281 29.925781 C 19.121094 29.929688 19.214844 29.910156 19.328125 29.882812 C 19.4375 29.851562 19.53125 29.828125 19.53125 29.824219 C 19.535156 29.824219 19.585938 29.675781 19.652344 29.496094 C 19.71875 29.316406 19.777344 29.164062 19.78125 29.15625 C 19.789062 29.148438 19.925781 29.242188 20.089844 29.363281 L 20.382812 29.582031 C 20.714844 29.472656 20.800781 29.433594 20.789062 29.425781 C 20.777344 29.417969 20.578125 29.269531 20.347656 29.09375 C 20.019531 28.84375 19.929688 28.769531 19.9375 28.738281 C 19.945312 28.71875 20.023438 28.496094 20.113281 28.242188 C 20.210938 27.953125 20.261719 27.78125 20.246094 27.785156 C 20.230469 27.785156 20.136719 27.8125 20.035156 27.847656 Z M 11.660156 27.847656 C 11.652344 27.859375 11.546875 28.230469 11.425781 28.667969 C 11.300781 29.105469 11.207031 29.472656 11.210938 29.484375 C 11.214844 29.496094 11.296875 29.53125 11.386719 29.558594 C 11.480469 29.585938 11.5625 29.601562 11.570312 29.59375 C 11.578125 29.585938 11.640625 29.371094 11.707031 29.121094 C 11.777344 28.867188 11.839844 28.648438 11.851562 28.632812 C 11.859375 28.613281 11.914062 28.734375 12.003906 28.984375 C 12.082031 29.191406 12.152344 29.363281 12.160156 29.363281 C 12.167969 29.363281 12.308594 29.257812 12.46875 29.128906 C 12.632812 29.003906 12.773438 28.898438 12.78125 28.902344 C 12.792969 28.90625 12.742188 29.113281 12.671875 29.363281 C 12.601562 29.613281 12.542969 29.835938 12.542969 29.855469 C 12.539062 29.878906 12.5625 29.894531 12.597656 29.902344 C 12.628906 29.910156 12.707031 29.929688 12.773438 29.945312 C 12.839844 29.960938 12.902344 29.964844 12.910156 29.957031 C 12.917969 29.949219 13.023438 29.582031 13.148438 29.140625 C 13.269531 28.699219 13.371094 28.332031 13.371094 28.320312 C 13.371094 28.308594 13.300781 28.28125 13.214844 28.265625 C 13.128906 28.246094 13.046875 28.226562 13.035156 28.226562 C 13.027344 28.226562 12.863281 28.347656 12.671875 28.5 C 12.339844 28.765625 12.328125 28.773438 12.304688 28.730469 C 12.292969 28.707031 12.222656 28.515625 12.148438 28.308594 L 12.011719 27.933594 C 11.785156 27.859375 11.707031 27.832031 11.695312 27.828125 C 11.683594 27.820312 11.667969 27.832031 11.660156 27.847656 Z M 17.910156 28.386719 L 17.730469 28.421875 C 17.5 28.84375 17.421875 28.96875 17.410156 28.96875 C 17.398438 28.96875 17.296875 28.863281 17.183594 28.734375 L 16.976562 28.5 C 16.785156 28.511719 16.683594 28.519531 16.621094 28.527344 L 16.515625 28.542969 C 17.050781 29.140625 17.207031 29.320312 17.207031 29.328125 C 17.207031 29.335938 17.089844 29.546875 16.945312 29.800781 C 16.796875 30.050781 16.683594 30.261719 16.683594 30.265625 C 16.6875 30.269531 16.785156 30.265625 16.902344 30.257812 L 17.113281 30.246094 C 17.398438 29.753906 17.484375 29.609375 17.492188 29.613281 C 17.5 29.617188 17.617188 29.734375 17.75 29.878906 L 18 30.144531 C 18.320312 30.089844 18.417969 30.070312 18.417969 30.070312 C 18.421875 30.066406 18.257812 29.886719 18.058594 29.667969 C 17.855469 29.449219 17.695312 29.269531 17.695312 29.261719 C 17.695312 29.257812 17.804688 29.054688 17.9375 28.816406 C 18.070312 28.574219 18.179688 28.375 18.179688 28.363281 C 18.179688 28.355469 18.160156 28.351562 18.136719 28.351562 C 18.109375 28.351562 18.007812 28.367188 17.910156 28.386719 Z M 14.074219 29.277344 C 14.039062 29.75 14.019531 30.140625 14.027344 30.148438 C 14.039062 30.15625 14.125 30.175781 14.222656 30.1875 C 14.316406 30.203125 14.398438 30.210938 14.398438 30.210938 C 14.402344 30.207031 14.417969 30 14.433594 29.75 C 14.453125 29.496094 14.46875 29.265625 14.46875 29.238281 C 14.46875 29.207031 14.472656 29.179688 14.484375 29.179688 C 14.492188 29.179688 14.59375 29.332031 14.707031 29.515625 C 14.820312 29.699219 14.917969 29.851562 14.925781 29.851562 C 14.929688 29.851562 15.054688 29.707031 15.199219 29.535156 C 15.445312 29.242188 15.460938 29.226562 15.460938 29.289062 C 15.460938 29.324219 15.449219 29.523438 15.433594 29.730469 C 15.417969 29.933594 15.402344 30.144531 15.402344 30.191406 L 15.402344 30.277344 L 15.789062 30.277344 C 15.804688 30.144531 15.828125 29.757812 15.859375 29.332031 C 15.886719 28.910156 15.90625 28.5625 15.902344 28.5625 C 15.902344 28.558594 15.820312 28.554688 15.726562 28.546875 L 15.554688 28.535156 C 15.113281 29.066406 14.980469 29.222656 14.976562 29.222656 C 14.96875 29.222656 14.859375 29.054688 14.730469 28.847656 C 14.5 28.476562 14.496094 28.476562 14.417969 28.464844 C 14.375 28.457031 14.289062 28.445312 14.234375 28.4375 L 14.132812 28.425781 "/>
</g>
</svg>
