<?xml version="1.0" encoding="UTF-8"?>
<svg xmlns="http://www.w3.org/2000/svg" xmlns:xlink="http://www.w3.org/1999/xlink" width="32px" height="32px" viewBox="0 0 32 45" version="1.1">
<defs>
<clipPath id="clip1">
  <path d="M 0 0 L 32 0 L 32 44.988281 L 0 44.988281 Z M 0 0 "/>
</clipPath>
</defs>
<g id="surface1">
<g clip-path="url(#clip1)" clip-rule="nonzero">
<path style=" stroke:none;fill-rule:nonzero;fill:rgb(92.54902%,90.980392%,22.745098%);fill-opacity:1;" d="M 10.007812 0 L 0 8.136719 L 0 36.796875 L 10.007812 44.988281 L 22.046875 44.988281 L 32 36.796875 L 32 8.136719 L 22.046875 0 Z M 10.007812 0 "/>
<path style=" stroke:none;fill-rule:nonzero;fill:rgb(12.156863%,8.627451%,27.45098%);fill-opacity:1;" d="M 21.628906 1.074219 L 30.90625 8.648438 L 30.90625 36.285156 L 21.628906 43.914062 L 10.371094 43.914062 L 1.09375 36.285156 L 1.09375 8.648438 L 10.371094 1.074219 Z M 21.835938 0.511719 L 10.164062 0.511719 L 0.574219 8.394531 L 0.574219 36.542969 L 10.214844 44.425781 L 21.835938 44.425781 L 31.425781 36.542969 L 31.425781 8.394531 L 31.21875 8.238281 Z M 21.835938 0.511719 "/>
</g>
<path style=" stroke:none;fill-rule:nonzero;fill:rgb(12.156863%,8.627451%,27.45098%);fill-opacity:1;" d="M 13.8125 27.789062 L 13.8125 19.039062 L 17.980469 27.789062 L 20.429688 27.789062 L 11.570312 9.367188 L 11.570312 27.789062 Z M 18.1875 4.300781 L 18.1875 13 L 14.019531 4.300781 L 11.570312 4.300781 L 20.429688 22.671875 L 20.429688 4.300781 Z M 7.714844 7.214844 L 9.382812 7.214844 L 9.382812 24.824219 L 7.714844 24.824219 Z M 4.429688 10.183594 L 5.523438 10.183594 L 5.523438 21.90625 L 4.429688 21.90625 Z M 22.617188 7.214844 L 24.285156 7.214844 L 24.285156 24.824219 L 22.617188 24.824219 Z M 26.476562 10.183594 L 27.570312 10.183594 L 27.570312 21.90625 L 26.476562 21.90625 Z M 15.6875 38.589844 L 14.4375 37.363281 L 14.4375 36.492188 L 14.90625 36.492188 L 14.90625 37.363281 L 15.636719 37.363281 L 15.636719 36.234375 L 15.269531 35.824219 L 14.070312 35.824219 L 13.707031 36.234375 L 13.707031 37.769531 L 14.90625 38.949219 L 14.90625 39.972656 L 14.4375 39.972656 L 14.4375 38.949219 L 13.707031 38.949219 L 13.707031 40.277344 L 14.070312 40.6875 L 15.269531 40.6875 L 15.6875 40.277344 Z M 16.363281 36.234375 L 16.363281 40.277344 L 16.78125 40.6875 L 17.929688 40.6875 L 18.292969 40.277344 L 18.292969 38.949219 L 17.5625 38.949219 L 17.5625 39.972656 L 17.148438 39.972656 L 17.148438 36.492188 L 17.5625 36.492188 L 17.5625 37.363281 L 18.292969 37.363281 L 18.292969 36.234375 L 17.929688 35.824219 L 16.78125 35.824219 Z M 13.1875 32.703125 L 11.933594 31.476562 L 11.933594 30.605469 L 12.402344 30.605469 L 12.402344 31.476562 L 13.132812 31.476562 L 13.132812 30.296875 L 12.769531 29.941406 L 11.621094 29.941406 L 11.207031 30.296875 L 11.207031 31.835938 L 12.402344 33.011719 L 12.402344 34.085938 L 11.988281 34.085938 L 11.988281 33.011719 L 11.207031 33.011719 L 11.207031 34.394531 L 11.621094 34.75 L 12.820312 34.75 L 13.1875 34.394531 Z M 6.203125 29.941406 L 7.089844 32.550781 L 7.089844 29.941406 L 7.871094 29.941406 L 7.871094 34.75 L 7.191406 34.75 L 6.253906 32.140625 L 6.253906 34.75 L 5.523438 34.75 L 5.523438 29.941406 Z M 14.644531 29.941406 L 14.644531 31.9375 L 15.113281 31.9375 L 15.113281 29.941406 L 15.84375 29.941406 L 15.84375 34.75 L 15.113281 34.75 L 15.113281 32.601562 L 14.644531 32.601562 L 14.644531 34.75 L 13.863281 34.75 L 13.863281 29.941406 Z M 17.199219 29.941406 L 17.617188 33.726562 L 18.085938 29.941406 L 18.8125 29.941406 L 18.136719 34.75 L 17.148438 34.75 L 16.46875 29.941406 Z M 19.441406 29.941406 L 20.167969 29.941406 L 20.167969 34.75 L 19.441406 34.75 Z M 21.628906 29.941406 L 21.628906 34.035156 L 22.304688 34.035156 L 22.304688 34.75 L 20.898438 34.75 L 20.898438 29.941406 Z M 23.609375 29.941406 L 23.609375 34.035156 L 24.339844 34.035156 L 24.339844 34.75 L 22.878906 34.75 L 22.878906 29.941406 Z M 26.476562 30.65625 L 25.640625 30.65625 L 25.640625 31.9375 L 26.421875 31.9375 L 26.421875 32.601562 L 25.640625 32.601562 L 25.640625 34.035156 L 26.476562 34.035156 L 26.476562 34.75 L 24.859375 34.75 L 24.859375 29.941406 L 26.476562 29.941406 Z M 10.007812 34.75 L 10.734375 34.75 L 10.058594 29.941406 L 9.070312 29.941406 L 8.390625 34.75 L 9.121094 34.75 L 9.226562 33.933594 L 9.953125 33.933594 Z M 9.277344 33.265625 L 9.539062 30.964844 L 9.796875 33.265625 Z M 9.277344 33.265625 "/>
</g>
</svg>
