<?xml version="1.0" encoding="UTF-8"?>
<svg xmlns="http://www.w3.org/2000/svg" xmlns:xlink="http://www.w3.org/1999/xlink" width="32px" height="32px" viewBox="0 0 32 32" version="1.1">
<g id="surface1">
<path style=" stroke:none;fill-rule:nonzero;fill:rgb(78.431373%,6.27451%,18.039216%);fill-opacity:1;" d="M 15.988281 31.980469 C 7.175781 31.980469 0 24.800781 0 15.988281 C 0 7.175781 7.175781 0 15.988281 0 C 24.800781 0 31.980469 7.175781 31.980469 15.988281 C 31.980469 24.800781 24.800781 31.980469 15.988281 31.980469 "/>
<path style=" stroke:none;fill-rule:nonzero;fill:rgb(100%,100%,100%);fill-opacity:1;" d="M 15.988281 31.246094 C 7.578125 31.246094 0.734375 24.398438 0.734375 15.988281 C 0.734375 7.578125 7.578125 0.734375 15.988281 0.734375 C 24.398438 0.734375 31.246094 7.578125 31.246094 15.988281 C 31.246094 24.398438 24.398438 31.246094 15.988281 31.246094 "/>
<path style=" stroke:none;fill-rule:nonzero;fill:rgb(78.431373%,6.27451%,18.039216%);fill-opacity:1;" d="M 15.988281 30.5 C 7.976562 30.5 1.476562 24.003906 1.476562 15.988281 C 1.476562 7.976562 7.976562 1.476562 15.988281 1.476562 C 24.003906 1.476562 30.5 7.976562 30.5 15.988281 C 30.496094 24 24 30.496094 15.988281 30.5 "/>
<path style=" stroke:none;fill-rule:nonzero;fill:rgb(100%,100%,100%);fill-opacity:1;" d="M 25.910156 15.988281 C 25.910156 21.46875 21.46875 25.910156 15.988281 25.910156 C 10.511719 25.910156 6.070312 21.46875 6.070312 15.988281 C 6.070312 10.511719 10.511719 6.070312 15.988281 6.070312 C 21.46875 6.070312 25.910156 10.511719 25.910156 15.988281 "/>
<path style=" stroke:none;fill-rule:nonzero;fill:rgb(78.431373%,6.27451%,18.039216%);fill-opacity:1;" d="M 15.988281 6.792969 C 13.070312 6.785156 10.316406 8.167969 8.578125 10.515625 C 8.824219 10.589844 9.292969 10.714844 9.867188 10.886719 C 10.769531 11.152344 13.777344 12.035156 14.339844 12.214844 C 15.980469 12.746094 16.414062 12.949219 16.871094 13.4375 C 17.328125 13.9375 18.03125 14.5 18.722656 14.980469 C 19.414062 15.457031 19.742188 15.980469 19.742188 16.808594 C 19.742188 17.636719 19.105469 18.339844 18.710938 18.574219 C 18.710938 18.574219 18.847656 18.179688 18.65625 18 C 18.464844 17.816406 17.859375 17.488281 16.320312 17.59375 C 14.777344 17.710938 12.703125 18.457031 11.300781 19.210938 C 11.300781 19.210938 11.972656 18.15625 12.96875 17.679688 C 12.96875 17.679688 12.140625 17.679688 7.515625 19.699219 C 9.347656 23.945312 14.035156 26.183594 18.488281 24.941406 C 22.941406 23.699219 25.792969 19.359375 25.164062 14.777344 C 24.53125 10.195312 20.613281 6.785156 15.988281 6.792969 M 15.988281 23.25 C 14.050781 23.253906 12.195312 22.472656 10.84375 21.082031 C 14.574219 19.15625 16.902344 19.65625 16.902344 20.027344 C 16.902344 20.410156 16.328125 21.304688 16.328125 21.304688 C 19.371094 20.878906 21.59375 19.039062 21.59375 16.574219 C 21.59375 14.097656 19.273438 12.90625 18.691406 12.542969 C 18.0625 12.152344 18.359375 11.621094 16.285156 10.84375 C 15.023438 10.367188 13.257812 9.898438 12.566406 9.726562 C 15.207031 8.289062 18.464844 8.644531 20.734375 10.617188 C 23 12.589844 23.804688 15.765625 22.75 18.582031 C 21.691406 21.398438 18.996094 23.257812 15.988281 23.25 "/>
<path style=" stroke:none;fill-rule:nonzero;fill:rgb(78.431373%,6.27451%,18.039216%);fill-opacity:1;" d="M 15.914062 13.640625 C 15.542969 13.652344 15.175781 13.578125 14.839844 13.417969 C 14.300781 13.152344 13.46875 12.542969 12.757812 13.203125 C 12.757812 13.203125 13.363281 13.128906 13.308594 13.289062 C 13.257812 13.449219 13.203125 14.375 14.023438 14.722656 C 14.863281 15.074219 15.820312 14.808594 15.914062 13.640625 "/>
<path style=" stroke:none;fill-rule:nonzero;fill:rgb(100%,100%,100%);fill-opacity:1;" d="M 5.125 23.378906 L 5.21875 23.503906 L 6.550781 22.484375 L 6.453125 22.359375 L 6.75 22.125 L 7.175781 22.675781 C 7.496094 23.089844 7.464844 23.398438 7.144531 23.644531 C 6.921875 23.8125 6.71875 23.824219 6.515625 23.71875 C 6.601562 23.996094 6.527344 24.175781 6.261719 24.378906 C 5.910156 24.644531 5.558594 24.535156 5.261719 24.164062 L 4.828125 23.601562 Z M 5.582031 23.972656 C 5.699219 24.121094 5.859375 24.152344 6.050781 24.003906 C 6.242188 23.855469 6.242188 23.707031 6.113281 23.558594 L 6.027344 23.453125 L 5.496094 23.867188 Z M 6.378906 23.3125 C 6.496094 23.464844 6.644531 23.472656 6.816406 23.347656 C 6.984375 23.21875 7.007812 23.070312 6.878906 22.910156 L 6.816406 22.824219 L 6.304688 23.21875 Z M 6.378906 23.3125 "/>
<path style=" stroke:none;fill-rule:nonzero;fill:rgb(100%,100%,100%);fill-opacity:1;" d="M 6.707031 25.292969 L 6.804688 25.375 L 8.546875 24.152344 L 8.898438 24.460938 L 7.921875 26.355469 L 8.003906 26.429688 L 7.761719 26.707031 L 7.164062 26.183594 L 7.398438 25.917969 L 7.546875 26.046875 L 7.675781 25.8125 L 7.324219 25.503906 L 7.113281 25.664062 L 7.261719 25.792969 L 7.027344 26.058594 L 6.453125 25.558594 Z M 7.855469 25.535156 L 8.261719 24.824219 L 7.601562 25.3125 Z M 7.855469 25.535156 "/>
<path style=" stroke:none;fill-rule:nonzero;fill:rgb(100%,100%,100%);fill-opacity:1;" d="M 9.015625 27.320312 L 8.929688 27.480469 L 8.652344 27.320312 L 9.058594 26.621094 L 9.367188 26.800781 C 9.21875 27.089844 9.25 27.257812 9.417969 27.355469 C 9.578125 27.449219 9.695312 27.417969 9.78125 27.269531 C 9.984375 26.917969 9.207031 26.386719 9.578125 25.769531 C 9.78125 25.417969 10.132812 25.355469 10.417969 25.527344 C 10.589844 25.621094 10.683594 25.75 10.664062 25.910156 L 10.75 25.75 L 11.023438 25.910156 L 10.640625 26.578125 L 10.324219 26.398438 C 10.441406 26.164062 10.441406 26.015625 10.292969 25.929688 C 10.238281 25.890625 10.171875 25.875 10.109375 25.886719 C 10.042969 25.902344 9.992188 25.945312 9.960938 26.003906 C 9.769531 26.332031 10.523438 26.875 10.164062 27.492188 C 9.941406 27.875 9.589844 27.90625 9.269531 27.726562 C 9.121094 27.621094 9.003906 27.492188 9.015625 27.320312 "/>
<path style=" stroke:none;fill-rule:nonzero;fill:rgb(100%,100%,100%);fill-opacity:1;" d="M 11.171875 28.226562 L 11.320312 28.277344 L 11.84375 26.683594 L 11.695312 26.632812 L 11.800781 26.28125 L 12.511719 26.503906 L 12.40625 26.855469 L 12.269531 26.8125 L 12.035156 27.554688 L 12.671875 26.941406 L 12.585938 26.90625 L 12.695312 26.558594 L 13.34375 26.769531 L 13.226562 27.132812 L 13.078125 27.078125 L 12.566406 27.546875 L 12.640625 28.703125 L 12.769531 28.734375 L 12.652344 29.085938 L 11.960938 28.863281 L 12.066406 28.523438 L 12.195312 28.566406 L 12.140625 27.863281 L 11.84375 28.152344 L 11.757812 28.429688 L 11.886719 28.460938 L 11.78125 28.800781 L 11.066406 28.578125 Z M 11.171875 28.226562 "/>
<path style=" stroke:none;fill-rule:nonzero;fill:rgb(100%,100%,100%);fill-opacity:1;" d="M 14.085938 28.992188 L 14.246094 29.011719 L 14.394531 27.34375 L 14.234375 27.332031 L 14.265625 26.949219 L 15.722656 27.078125 L 15.648438 27.84375 L 15.234375 27.8125 L 15.265625 27.398438 L 14.851562 27.355469 L 14.796875 28.003906 L 15.171875 28.046875 L 15.140625 28.417969 L 14.765625 28.386719 L 14.703125 29.066406 L 15.128906 29.109375 L 15.160156 28.640625 L 15.585938 28.683594 L 15.523438 29.492188 L 14.054688 29.363281 Z M 14.085938 28.992188 "/>
<path style=" stroke:none;fill-rule:nonzero;fill:rgb(100%,100%,100%);fill-opacity:1;" d="M 17.296875 29.054688 L 17.5 29.023438 L 17.277344 27.34375 L 17.019531 27.375 L 17.074219 27.789062 L 16.722656 27.84375 L 16.617188 27.078125 L 18.285156 26.855469 L 18.390625 27.621094 L 18.042969 27.664062 L 17.988281 27.246094 L 17.734375 27.28125 L 17.957031 28.96875 L 18.15625 28.9375 L 18.199219 29.300781 L 17.339844 29.417969 Z M 17.296875 29.054688 "/>
<path style=" stroke:none;fill-rule:nonzero;fill:rgb(100%,100%,100%);fill-opacity:1;" d="M 19.933594 28.535156 L 20.082031 28.480469 L 19.488281 26.917969 L 19.339844 26.972656 L 19.199219 26.621094 L 19.859375 26.375 C 20.347656 26.183594 20.636719 26.3125 20.773438 26.683594 C 20.867188 26.941406 20.828125 27.140625 20.667969 27.300781 C 20.953125 27.289062 21.113281 27.429688 21.230469 27.738281 C 21.390625 28.152344 21.175781 28.460938 20.730469 28.628906 L 20.0625 28.886719 Z M 20.230469 27.3125 C 20.410156 27.246094 20.464844 27.097656 20.390625 26.90625 C 20.316406 26.707031 20.1875 26.652344 19.996094 26.714844 L 19.902344 26.75 L 20.125 27.34375 Z M 20.625 28.269531 C 20.804688 28.203125 20.878906 28.054688 20.792969 27.832031 C 20.710938 27.609375 20.570312 27.566406 20.378906 27.640625 L 20.253906 27.695312 L 20.496094 28.320312 Z M 20.625 28.269531 "/>
<path style=" stroke:none;fill-rule:nonzero;fill:rgb(100%,100%,100%);fill-opacity:1;" d="M 22.113281 27.628906 L 22.21875 27.566406 L 21.570312 25.546875 L 21.976562 25.300781 L 23.496094 26.789062 L 23.589844 26.726562 L 23.78125 27.035156 L 23.113281 27.449219 L 22.921875 27.152344 L 23.089844 27.046875 L 22.910156 26.855469 L 22.507812 27.097656 L 22.589844 27.355469 L 22.761719 27.246094 L 22.953125 27.546875 L 22.304688 27.9375 Z M 22.675781 26.597656 L 22.113281 26.003906 L 22.378906 26.78125 Z M 22.675781 26.597656 "/>
<path style=" stroke:none;fill-rule:nonzero;fill:rgb(100%,100%,100%);fill-opacity:1;" d="M 24.410156 26.078125 L 24.527344 25.972656 L 23.378906 24.75 L 23.261719 24.855469 L 23.007812 24.578125 L 23.589844 24.039062 L 23.847656 24.3125 L 23.71875 24.429688 L 24.867188 25.664062 L 25.152344 25.398438 L 24.835938 25.070312 L 25.144531 24.769531 L 25.695312 25.367188 L 24.652344 26.34375 Z M 24.410156 26.078125 "/>
<path style=" stroke:none;fill-rule:nonzero;fill:rgb(100%,100%,100%);fill-opacity:1;" d="M 26.109375 24.367188 L 26.195312 24.238281 L 24.855469 23.25 L 24.761719 23.367188 L 24.460938 23.144531 L 24.929688 22.507812 L 25.238281 22.730469 L 25.132812 22.878906 L 26.492188 23.878906 L 26.714844 23.570312 L 26.34375 23.292969 L 26.597656 22.953125 L 27.246094 23.441406 L 26.398438 24.589844 Z M 26.109375 24.367188 "/>
<path style=" stroke:none;fill-rule:nonzero;fill:rgb(100%,100%,100%);fill-opacity:1;" d="M 4.878906 13.054688 L 4.921875 12.925781 L 3.136719 11.769531 L 3.296875 11.320312 L 5.410156 11.523438 L 5.453125 11.417969 L 5.792969 11.535156 L 5.539062 12.277344 L 5.199219 12.164062 L 5.261719 11.980469 L 4.996094 11.949219 L 4.835938 12.394531 L 5.058594 12.535156 L 5.125 12.34375 L 5.464844 12.460938 L 5.21875 13.171875 Z M 4.679688 11.894531 L 3.871094 11.789062 L 4.5625 12.214844 Z M 4.679688 11.894531 "/>
<path style=" stroke:none;fill-rule:nonzero;fill:rgb(100%,100%,100%);fill-opacity:1;" d="M 5.910156 10.515625 L 6.015625 10.34375 L 4.5625 9.472656 L 4.421875 9.695312 L 4.785156 9.910156 L 4.601562 10.214844 L 3.945312 9.824219 L 4.804688 8.367188 L 5.464844 8.761719 L 5.285156 9.070312 L 4.921875 8.855469 L 4.792969 9.078125 L 6.25 9.949219 L 6.359375 9.769531 L 6.675781 9.960938 L 6.230469 10.707031 Z M 5.910156 10.515625 "/>
<path style=" stroke:none;fill-rule:nonzero;fill:rgb(100%,100%,100%);fill-opacity:1;" d="M 7.101562 8.726562 L 7.207031 8.609375 L 5.984375 7.472656 L 5.878906 7.578125 L 5.601562 7.324219 L 6.144531 6.738281 L 6.421875 7.007812 L 6.304688 7.132812 L 7.539062 8.28125 L 7.804688 8.003906 L 7.464844 7.6875 L 7.75 7.378906 L 8.34375 7.929688 L 7.378906 8.972656 Z M 7.101562 8.726562 "/>
<path style=" stroke:none;fill-rule:nonzero;fill:rgb(100%,100%,100%);fill-opacity:1;" d="M 8.675781 7.132812 L 8.78125 7.058594 L 8.003906 5.082031 L 8.386719 4.804688 L 9.992188 6.199219 L 10.089844 6.132812 L 10.300781 6.433594 L 9.664062 6.890625 L 9.460938 6.601562 L 9.621094 6.484375 L 9.429688 6.304688 L 9.046875 6.570312 L 9.152344 6.816406 L 9.3125 6.699219 L 9.515625 6.984375 L 8.898438 7.421875 Z M 9.183594 6.070312 L 8.589844 5.507812 L 8.910156 6.261719 Z M 9.183594 6.070312 "/>
<path style=" stroke:none;fill-rule:nonzero;fill:rgb(100%,100%,100%);fill-opacity:1;" d="M 10.855469 5.707031 L 10.992188 5.65625 L 10.367188 4.105469 L 10.214844 4.15625 L 10.078125 3.804688 L 10.652344 3.570312 L 11.695312 4.601562 L 11.320312 3.710938 L 11.195312 3.761719 L 11.046875 3.414062 L 11.714844 3.136719 L 11.863281 3.488281 L 11.714844 3.550781 L 12.492188 5.433594 L 12.109375 5.59375 L 10.992188 4.519531 L 11.398438 5.484375 L 11.523438 5.433594 L 11.664062 5.773438 L 10.992188 6.050781 Z M 10.855469 5.707031 "/>
<path style=" stroke:none;fill-rule:nonzero;fill:rgb(100%,100%,100%);fill-opacity:1;" d="M 13.554688 4.785156 L 13.757812 4.753906 L 13.460938 3.074219 L 13.203125 3.113281 L 13.277344 3.53125 L 12.925781 3.59375 L 12.789062 2.839844 L 14.457031 2.539062 L 14.585938 3.296875 L 14.234375 3.359375 L 14.160156 2.945312 L 13.90625 2.988281 L 14.203125 4.667969 L 14.40625 4.636719 L 14.46875 4.984375 L 13.617188 5.144531 Z M 13.554688 4.785156 "/>
<path style=" stroke:none;fill-rule:nonzero;fill:rgb(100%,100%,100%);fill-opacity:1;" d="M 15.351562 4.519531 L 15.480469 4.519531 L 16.019531 2.464844 L 16.488281 2.476562 L 16.957031 4.550781 L 17.074219 4.550781 L 17.0625 4.910156 L 16.277344 4.902344 L 16.285156 4.550781 L 16.476562 4.550781 L 16.4375 4.285156 L 15.96875 4.273438 L 15.90625 4.527344 L 16.105469 4.527344 L 16.09375 4.878906 L 15.339844 4.867188 Z M 16.382812 3.964844 L 16.234375 3.15625 L 16.042969 3.953125 Z M 16.382812 3.964844 "/>
<path style=" stroke:none;fill-rule:nonzero;fill:rgb(100%,100%,100%);fill-opacity:1;" d="M 18.828125 4.859375 L 18.976562 4.902344 L 19.519531 3.316406 L 19.371094 3.273438 L 19.496094 2.914062 L 20.242188 3.167969 L 20.113281 3.507812 L 19.964844 3.457031 L 19.761719 4.039062 L 20.253906 4.210938 L 20.453125 3.625 L 20.296875 3.570312 L 20.410156 3.222656 L 21.15625 3.476562 L 21.039062 3.835938 L 20.878906 3.785156 L 20.347656 5.367188 L 20.496094 5.421875 L 20.378906 5.761719 L 19.636719 5.507812 L 19.753906 5.175781 L 19.914062 5.230469 L 20.125 4.59375 L 19.636719 4.421875 L 19.414062 5.058594 L 19.570312 5.113281 L 19.457031 5.453125 L 18.710938 5.199219 Z M 18.828125 4.859375 "/>
<path style=" stroke:none;fill-rule:nonzero;fill:rgb(100%,100%,100%);fill-opacity:1;" d="M 21.285156 5.792969 L 21.390625 5.859375 L 22.910156 4.371094 L 23.3125 4.613281 L 22.65625 6.632812 L 22.75 6.699219 L 22.558594 7.007812 L 21.890625 6.589844 L 22.082031 6.292969 L 22.25 6.398438 L 22.347656 6.15625 L 21.941406 5.910156 L 21.75 6.101562 L 21.921875 6.207031 L 21.730469 6.507812 L 21.082031 6.101562 Z M 22.453125 5.847656 L 22.738281 5.082031 L 22.167969 5.667969 Z M 22.453125 5.847656 "/>
<path style=" stroke:none;fill-rule:nonzero;fill:rgb(100%,100%,100%);fill-opacity:1;" d="M 24.460938 5.910156 L 24.355469 5.804688 L 24.621094 5.539062 L 25.152344 6.058594 L 24.898438 6.324219 L 24.792969 6.21875 L 24.144531 7.101562 L 25.34375 6.25 L 25.621094 6.527344 L 24.792969 7.75 L 25.664062 7.082031 L 25.566406 6.984375 L 25.824219 6.71875 L 26.324219 7.21875 L 26.058594 7.484375 L 25.949219 7.378906 L 24.261719 8.589844 L 23.960938 8.292969 L 24.824219 7.027344 L 23.570312 7.910156 L 23.273438 7.613281 Z M 24.460938 5.910156 "/>
<path style=" stroke:none;fill-rule:nonzero;fill:rgb(100%,100%,100%);fill-opacity:1;" d="M 25.21875 9.152344 L 25.300781 9.28125 L 26.714844 8.386719 L 26.632812 8.261719 L 26.949219 8.046875 L 27.355469 8.6875 L 27.035156 8.878906 L 26.960938 8.761719 L 26.300781 9.183594 L 27.183594 9.121094 L 27.140625 9.035156 L 27.449219 8.84375 L 27.8125 9.417969 L 27.492188 9.621094 L 27.40625 9.484375 L 26.714844 9.515625 L 26.046875 10.449219 L 26.109375 10.566406 L 25.800781 10.757812 L 25.410156 10.140625 L 25.707031 9.949219 L 25.78125 10.066406 L 26.195312 9.484375 L 25.78125 9.527344 L 25.535156 9.675781 L 25.609375 9.792969 L 25.3125 9.984375 L 24.910156 9.34375 Z M 25.21875 9.152344 "/>
<path style=" stroke:none;fill-rule:nonzero;fill:rgb(100%,100%,100%);fill-opacity:1;" d="M 26.375 11.609375 L 26.207031 11.671875 L 26.089844 11.375 L 26.84375 11.089844 L 26.972656 11.417969 C 26.671875 11.546875 26.597656 11.703125 26.664062 11.886719 C 26.726562 12.054688 26.84375 12.109375 26.992188 12.046875 C 27.375 11.894531 27.097656 11.003906 27.769531 10.75 C 28.140625 10.597656 28.460938 10.769531 28.578125 11.078125 C 28.640625 11.257812 28.652344 11.417969 28.535156 11.523438 L 28.703125 11.460938 L 28.820312 11.757812 L 28.097656 12.035156 L 27.972656 11.695312 C 28.203125 11.589844 28.300781 11.472656 28.238281 11.300781 C 28.222656 11.238281 28.179688 11.1875 28.121094 11.15625 C 28.066406 11.128906 27.996094 11.125 27.9375 11.152344 C 27.589844 11.289062 27.832031 12.183594 27.171875 12.4375 C 26.757812 12.597656 26.460938 12.394531 26.332031 12.054688 C 26.28125 11.90625 26.269531 11.726562 26.375 11.609375 "/>
</g>
</svg>
