<?xml version="1.0" encoding="UTF-8"?>
<svg xmlns="http://www.w3.org/2000/svg" xmlns:xlink="http://www.w3.org/1999/xlink" width="32px" height="32px" viewBox="0 0 32 39" version="1.1">
<g id="surface1">
<path style=" stroke:none;fill-rule:nonzero;fill:rgb(93.333333%,88.235294%,77.647059%);fill-opacity:1;" d="M 16.03125 38.839844 C 7.308594 38.839844 0.214844 31.863281 0.214844 23.285156 C 0.214844 19.09375 1.894531 15.15625 4.945312 12.203125 C 4.964844 12.179688 5 12.160156 5.019531 12.136719 C 3.96875 10.582031 3.382812 8.757812 3.828125 6.546875 C 4.652344 2.484375 7.992188 1.257812 8.132812 1.203125 C 8.1875 1.183594 8.242188 1.171875 8.296875 1.171875 C 8.46875 1.171875 8.644531 1.269531 8.730469 1.429688 C 8.785156 1.523438 8.796875 1.640625 8.773438 1.75 C 9.871094 0.839844 10.910156 0.445312 11.34375 0.308594 C 11.398438 0.296875 11.441406 0.285156 11.496094 0.285156 C 11.679688 0.285156 11.867188 0.394531 11.941406 0.5625 C 12.039062 0.789062 11.964844 1.042969 11.746094 1.171875 C 10.75 1.757812 9.878906 2.570312 9.230469 3.488281 C 10.019531 3.304688 10.542969 3.285156 10.726562 3.285156 L 10.824219 3.285156 C 11.0625 3.296875 11.257812 3.488281 11.28125 3.722656 C 11.300781 3.957031 11.148438 4.167969 10.910156 4.234375 C 10.898438 4.234375 9.585938 4.5625 8.144531 5.578125 C 7.875 6.398438 7.730469 7.253906 7.730469 8.117188 C 7.730469 9.757812 8.265625 11.457031 9.195312 12.746094 C 9.414062 13.046875 9.621094 13.3125 9.847656 13.546875 C 9.761719 11.851562 10.269531 9.226562 13.375 8.011719 C 13.429688 7.988281 13.492188 7.976562 13.558594 7.976562 C 13.742188 7.976562 13.90625 8.074219 13.992188 8.246094 C 14.113281 8.46875 14.023438 8.734375 13.808594 8.875 L 13.785156 8.886719 C 13.320312 9.183594 12.917969 9.566406 12.613281 10.015625 C 12.941406 9.917969 13.222656 9.886719 13.40625 9.867188 L 13.492188 9.867188 C 13.699219 9.867188 13.882812 9.996094 13.949219 10.1875 C 14.023438 10.398438 13.9375 10.632812 13.753906 10.75 L 13.722656 10.773438 C 12.734375 11.339844 12.179688 11.988281 12.082031 12.714844 C 11.972656 13.503906 12.417969 14.25 12.734375 14.675781 C 13.570312 13.726562 14.101562 12.117188 14.253906 11.507812 C 14.304688 11.296875 14.5 11.148438 14.730469 11.148438 L 14.785156 11.148438 C 15.035156 11.179688 15.21875 11.382812 15.21875 11.617188 C 15.230469 13.609375 14.6875 14.976562 14.132812 15.839844 C 14.96875 16.246094 15.769531 16.277344 15.957031 16.277344 L 16.0625 16.277344 C 16.238281 16.277344 17.050781 16.257812 17.886719 15.839844 C 17.332031 14.964844 16.789062 13.601562 16.800781 11.617188 C 16.800781 11.371094 16.984375 11.167969 17.234375 11.148438 L 17.289062 11.148438 C 17.507812 11.148438 17.714844 11.296875 17.765625 11.507812 C 17.917969 12.117188 18.460938 13.726562 19.285156 14.675781 C 19.613281 14.25 20.046875 13.503906 19.9375 12.714844 C 19.839844 11.988281 19.285156 11.328125 18.300781 10.773438 C 18.289062 10.773438 18.265625 10.75 18.265625 10.75 C 18.070312 10.632812 17.984375 10.390625 18.058594 10.1875 C 18.125 9.996094 18.308594 9.867188 18.515625 9.867188 L 18.601562 9.867188 C 18.796875 9.886719 19.070312 9.917969 19.394531 10.015625 C 19.089844 9.566406 18.691406 9.183594 18.222656 8.886719 L 18.203125 8.875 C 17.984375 8.746094 17.910156 8.46875 18.015625 8.246094 C 18.105469 8.074219 18.277344 7.976562 18.449219 7.976562 C 18.515625 7.976562 18.570312 7.988281 18.636719 8.011719 C 21.726562 9.226562 22.238281 11.851562 22.160156 13.546875 C 22.390625 13.3125 22.59375 13.046875 22.8125 12.746094 C 23.746094 11.445312 24.277344 9.757812 24.277344 8.117188 C 24.277344 7.253906 24.136719 6.398438 23.863281 5.578125 C 22.410156 4.554688 21.121094 4.234375 21.097656 4.234375 C 20.859375 4.179688 20.707031 3.957031 20.730469 3.722656 C 20.75 3.488281 20.945312 3.296875 21.183594 3.285156 L 21.28125 3.285156 C 21.46875 3.285156 22 3.304688 22.78125 3.488281 C 22.117188 2.558594 21.25 1.757812 20.261719 1.171875 C 20.046875 1.042969 19.96875 0.789062 20.066406 0.5625 C 20.144531 0.394531 20.328125 0.285156 20.511719 0.285156 C 20.566406 0.285156 20.609375 0.296875 20.664062 0.308594 C 21.097656 0.445312 22.140625 0.839844 23.234375 1.75 C 23.214844 1.640625 23.222656 1.535156 23.289062 1.429688 C 23.375 1.269531 23.539062 1.171875 23.722656 1.171875 C 23.777344 1.171875 23.832031 1.183594 23.886719 1.203125 C 24.027344 1.257812 27.367188 2.484375 28.191406 6.546875 C 28.636719 8.757812 28.050781 10.582031 27 12.136719 C 27.03125 12.160156 27.054688 12.179688 27.074219 12.203125 C 30.125 15.15625 31.804688 19.09375 31.804688 23.285156 C 31.847656 31.863281 24.753906 38.839844 16.03125 38.839844 Z M 16.03125 38.839844 "/>
<path style=" stroke:none;fill-rule:nonzero;fill:rgb(0%,27.843137%,10.588235%);fill-opacity:1;" d="M 11.496094 0.777344 C 10.402344 1.117188 8.175781 2.238281 6.875 5 C 6.355469 5.355469 5.910156 5.800781 5.421875 6.386719 C 5.921875 4.136719 7.125 2.527344 8.296875 1.671875 C 8.296875 1.671875 5.085938 2.816406 4.304688 6.65625 C 3.390625 11.125 7.027344 13.921875 9.96875 16.320312 L 7.730469 15.425781 C 7.582031 15.359375 7.472656 15.507812 7.503906 15.679688 L 7.570312 16.222656 C 7.601562 16.523438 7.828125 18.039062 8.675781 18.496094 C 8.847656 18.59375 9.164062 18.710938 10.097656 18.773438 L 11.777344 18.878906 L 11.496094 19.808594 L 13.144531 22.402344 L 12.300781 21.527344 L 10.574219 27.554688 L 15.304688 31.382812 L 13.828125 24.800781 L 16.03125 27.4375 L 18.210938 24.800781 L 16.738281 31.382812 L 21.464844 27.554688 L 19.742188 21.527344 L 18.894531 22.402344 L 20.542969 19.808594 L 20.261719 18.882812 L 21.945312 18.773438 C 22.867188 18.710938 23.179688 18.59375 23.367188 18.496094 C 24.210938 18.039062 24.4375 16.523438 24.472656 16.222656 L 24.535156 15.679688 C 24.570312 15.511719 24.460938 15.359375 24.308594 15.425781 L 22.074219 16.320312 C 25.015625 13.921875 28.648438 11.125 27.738281 6.65625 C 26.957031 2.816406 23.746094 1.671875 23.746094 1.671875 C 24.925781 2.527344 26.121094 4.128906 26.621094 6.386719 C 26.140625 5.800781 25.699219 5.355469 25.167969 5 C 23.851562 2.238281 21.640625 1.117188 20.542969 0.777344 C 21.964844 1.621094 23.148438 2.867188 23.863281 4.308594 C 22.226562 3.730469 21.238281 3.785156 21.238281 3.785156 C 21.238281 3.785156 22.703125 4.136719 24.296875 5.300781 C 24.613281 6.195312 24.785156 7.144531 24.785156 8.136719 C 24.785156 9.878906 24.210938 11.667969 23.222656 13.046875 C 22.671875 13.8125 22.128906 14.347656 21.464844 14.835938 C 21.683594 14.292969 22.53125 10.078125 18.472656 8.480469 L 18.503906 8.5 C 19.46875 9.109375 20.175781 10.058594 20.457031 11.179688 C 19.71875 10.472656 18.9375 10.410156 18.527344 10.355469 C 18.539062 10.355469 18.539062 10.367188 18.546875 10.367188 C 22.3125 12.5 19.320312 15.390625 19.320312 15.390625 C 18.136719 14.410156 17.441406 12.222656 17.289062 11.625 C 17.277344 13.941406 18.058594 15.328125 18.59375 16 C 17.375 16.820312 16.019531 16.769531 16.019531 16.769531 C 16.019531 16.769531 14.664062 16.820312 13.449219 16 C 13.980469 15.328125 14.761719 13.941406 14.75 11.625 C 14.597656 12.222656 13.90625 14.410156 12.722656 15.390625 C 12.722656 15.390625 9.726562 12.5 13.492188 10.367188 C 13.503906 10.367188 13.503906 10.355469 13.515625 10.355469 C 13.101562 10.410156 12.320312 10.484375 11.582031 11.179688 C 11.875 10.058594 12.582031 9.109375 13.535156 8.5 L 13.570312 8.480469 C 9.511719 10.078125 10.359375 14.292969 10.574219 14.835938 C 9.914062 14.347656 9.371094 13.8125 8.816406 13.046875 C 7.828125 11.679688 7.253906 9.886719 7.253906 8.136719 C 7.253906 7.144531 7.429688 6.1875 7.742188 5.300781 C 9.335938 4.136719 10.800781 3.785156 10.800781 3.785156 C 10.800781 3.785156 9.816406 3.730469 8.175781 4.308594 C 8.902344 2.867188 10.085938 1.621094 11.496094 0.777344 Z M 5.28125 12.542969 C 2.460938 15.285156 0.703125 19.082031 0.703125 23.285156 C 0.703125 31.597656 7.582031 38.359375 16.03125 38.359375 C 24.484375 38.359375 31.359375 31.597656 31.359375 23.285156 C 31.359375 19.082031 29.613281 15.285156 26.78125 12.542969 L 26.445312 12.949219 C 29.160156 15.585938 30.828125 19.242188 30.828125 23.285156 C 30.828125 31.320312 24.199219 37.835938 16.03125 37.835938 C 7.863281 37.835938 1.234375 31.320312 1.234375 23.285156 C 1.234375 19.242188 2.914062 15.585938 5.617188 12.949219 Z M 6.019531 13.3125 C 3.402344 15.863281 1.777344 19.394531 1.777344 23.285156 C 1.777344 31.011719 8.167969 37.304688 16.03125 37.304688 C 23.886719 37.304688 30.285156 31.019531 30.285156 23.285156 C 30.285156 19.394531 28.671875 15.871094 26.054688 13.332031 L 25.6875 13.71875 C 28.171875 16.160156 29.746094 19.5625 29.746094 23.285156 C 29.746094 24.152344 29.65625 24.992188 29.507812 25.804688 L 25.265625 24.652344 C 24.589844 29.109375 20.6875 32.546875 15.964844 32.546875 C 11.269531 32.546875 7.363281 29.144531 6.679688 24.707031 L 2.546875 25.804688 C 2.394531 24.984375 2.308594 24.152344 2.308594 23.285156 C 2.308594 19.574219 3.902344 16.117188 6.386719 13.675781 Z M 6.019531 13.3125 "/>
<path style=" stroke:none;fill-rule:nonzero;fill:rgb(93.333333%,88.235294%,77.647059%);fill-opacity:1;" d="M 6.375 6.515625 C 6.234375 6.664062 6.09375 6.816406 5.964844 6.976562 C 4.707031 8.585938 6.558594 11.464844 6.558594 11.464844 C 6.558594 11.464844 5.867188 8.351562 6.375 6.515625 Z M 25.675781 6.515625 C 26.207031 8.351562 25.503906 11.464844 25.503906 11.464844 C 25.503906 11.464844 27.359375 8.585938 26.089844 6.976562 C 25.957031 6.816406 25.816406 6.65625 25.675781 6.515625 Z M 25.675781 6.515625 "/>
<path style=" stroke:none;fill-rule:nonzero;fill:rgb(100%,100%,100%);fill-opacity:1;" d="M 8.296875 16.203125 C 8.296875 16.203125 8.460938 17.558594 9.035156 17.867188 C 9.425781 18.082031 10.367188 18.058594 11.203125 18.125 C 10.28125 17.769531 8.925781 16.8125 8.296875 16.203125 Z M 23.765625 16.203125 C 23.125 16.8125 21.78125 17.769531 20.859375 18.125 C 21.683594 18.058594 22.640625 18.082031 23.027344 17.867188 C 23.605469 17.558594 23.765625 16.203125 23.765625 16.203125 Z M 18.777344 18.238281 C 18.757812 18.238281 18.734375 18.242188 18.710938 18.25 C 18.253906 18.453125 17.8125 18.65625 17.570312 18.761719 C 17.472656 18.804688 17.453125 18.933594 17.527344 19 C 17.757812 19.222656 18.179688 19.433594 18.691406 19.050781 C 18.960938 18.847656 18.960938 18.550781 18.929688 18.359375 C 18.910156 18.292969 18.847656 18.242188 18.777344 18.238281 Z M 13.285156 18.246094 C 13.21875 18.25 13.152344 18.296875 13.144531 18.367188 C 13.113281 18.5625 13.113281 18.859375 13.382812 19.0625 C 13.882812 19.445312 14.316406 19.234375 14.546875 19.007812 C 14.609375 18.933594 14.589844 18.816406 14.492188 18.773438 C 14.253906 18.667969 13.796875 18.464844 13.351562 18.261719 C 13.332031 18.25 13.308594 18.246094 13.285156 18.246094 Z M 15.523438 19.285156 L 15.078125 20.714844 C 15.078125 20.714844 14.925781 21.28125 14.296875 21.675781 L 14.023438 22.847656 L 14.6875 23.734375 L 15.390625 23.734375 L 14.742188 22.785156 L 14.847656 22.199219 C 15.140625 22.507812 15.566406 22.710938 16.03125 22.710938 C 16.496094 22.710938 16.921875 22.515625 17.214844 22.199219 L 17.324219 22.785156 L 16.671875 23.734375 L 17.375 23.734375 L 18.039062 22.847656 L 17.765625 21.675781 C 17.136719 21.28125 16.984375 20.714844 16.984375 20.714844 L 16.542969 19.285156 L 16.03125 19.53125 L 15.519531 19.285156 Z M 15.078125 24.277344 L 15.53125 24.886719 L 16.53125 24.886719 L 16.984375 24.277344 Z M 25.96875 25.527344 L 25.589844 26.753906 L 25.480469 27.09375 L 26.902344 27.511719 L 27.261719 27.617188 L 27.597656 26.527344 L 28.476562 26.785156 L 28.289062 27.390625 L 27.910156 27.273438 L 27.757812 27.753906 L 28.289062 27.914062 L 28.648438 28.023438 L 29.125 26.441406 L 28.769531 26.367188 L 27.585938 26.015625 L 27.226562 25.910156 L 26.890625 26.996094 L 26.132812 26.773438 L 26.316406 26.164062 L 26.695312 26.273438 L 26.847656 25.792969 L 26.328125 25.632812 Z M 6.09375 25.601562 L 2.949219 26.667969 L 3.109375 27.148438 L 5.097656 26.476562 L 4.390625 27.050781 L 5.300781 27.082031 L 3.328125 27.753906 L 3.488281 28.234375 L 6.636719 27.167969 L 6.460938 26.6875 L 5.550781 26.65625 L 6.257812 26.082031 Z M 25.316406 27.285156 L 25.058594 27.753906 L 25.664062 28.566406 L 24.851562 28.140625 L 24.613281 28.585938 L 27.554688 30.125 L 27.792969 29.675781 L 26.511719 29.003906 L 28.050781 29.195312 L 28.300781 28.726562 L 26.1875 28.449219 Z M 6.851562 27.59375 L 3.902344 29.109375 L 4.140625 29.558594 L 7.09375 28.042969 Z M 7.320312 28.492188 L 4.617188 30.402344 L 5.550781 31.679688 L 5.984375 31.371094 L 5.355469 30.496094 L 7.625 28.90625 Z M 24.449219 28.875 L 23.410156 30.15625 L 23.703125 30.390625 L 25.992188 32.191406 L 26.21875 31.914062 L 27.03125 30.914062 L 26.738281 30.6875 L 26.25 30.285156 L 25.9375 30.679688 L 26.316406 30.976562 L 25.914062 31.476562 L 24.15625 30.101562 L 24.558594 29.601562 L 24.925781 29.890625 L 25.242188 29.496094 L 24.742188 29.109375 Z M 8.199219 29.695312 L 6.070312 32.226562 L 6.417969 32.566406 L 7.332031 31.949219 L 6.710938 32.855469 L 7.058594 33.195312 L 9.597656 31.074219 L 9.285156 30.742188 L 8.210938 31.605469 L 8.980469 30.445312 L 8.859375 30.328125 L 7.6875 31.09375 L 8.546875 30.027344 Z M 23.125 30.453125 L 22.726562 30.773438 L 24.535156 32.855469 L 24.039062 33.261719 L 22.246094 31.167969 L 21.859375 31.5 L 23.972656 34.007812 L 24.265625 33.761719 L 24.992188 33.164062 L 25.265625 32.941406 Z M 9.859375 31.253906 L 9.847656 31.265625 L 8.070312 34.007812 L 8.503906 34.273438 L 9.285156 33.066406 L 9.824219 33.410156 L 9.042969 34.613281 L 9.480469 34.882812 L 10.988281 32.566406 L 11.160156 32.300781 L 11.257812 32.152344 L 11.269531 32.140625 Z M 21.183594 31.90625 L 20.035156 32.511719 L 21.609375 35.371094 L 22.757812 34.765625 L 22.898438 34.285156 L 22.410156 33.398438 L 22.117188 33.269531 L 22.171875 32.949219 L 21.660156 32.035156 Z M 10 31.96875 L 10.542969 32.3125 L 10.109375 32.984375 L 9.566406 32.640625 Z M 11.519531 32.300781 L 10.3125 35.328125 L 10.671875 35.46875 L 11.5625 35.800781 L 11.898438 35.925781 L 13.089844 32.886719 L 12.601562 32.707031 L 11.605469 35.253906 L 10.996094 35.03125 L 11.996094 32.480469 Z M 21.316406 32.4375 L 21.695312 33.132812 L 21.121094 33.429688 L 20.738281 32.738281 Z M 18.796875 32.941406 L 17.226562 33.238281 L 17.863281 36.429688 L 19.4375 36.128906 L 19.339844 35.617188 L 18.265625 35.820312 L 18.082031 34.925781 L 19.144531 34.722656 L 19.046875 34.21875 L 17.984375 34.421875 L 17.832031 33.65625 L 18.894531 33.453125 Z M 13.460938 32.972656 L 12.886719 36.195312 L 13.394531 36.277344 L 13.644531 34.871094 L 13.9375 36.363281 L 14.46875 36.460938 L 14.078125 34.402344 L 14.9375 33.226562 L 14.40625 33.132812 L 13.808594 33.953125 L 13.96875 33.058594 Z M 16.867188 33.269531 L 15.273438 33.292969 L 15.328125 36.546875 L 16.921875 36.523438 L 16.910156 36 L 15.824219 36.035156 L 15.816406 35.117188 L 16.898438 35.09375 L 16.886719 34.582031 L 15.804688 34.605469 L 15.792969 33.816406 L 16.878906 33.792969 Z M 21.933594 33.582031 L 22.378906 34.378906 L 21.804688 34.679688 L 21.359375 33.878906 Z M 21.933594 33.582031 "/>
</g>
</svg>
