<?xml version="1.0" encoding="UTF-8"?>
<svg xmlns="http://www.w3.org/2000/svg" xmlns:xlink="http://www.w3.org/1999/xlink" width="32px" height="32px" viewBox="0 0 32 25" version="1.1">
<g id="surface1">
<path style=" stroke:none;fill-rule:nonzero;fill:rgb(100%,100%,100%);fill-opacity:1;" d="M 15.914062 24.871094 L 13.8125 22.242188 C 11.132812 21.394531 9.269531 19.066406 9.097656 16.359375 L 7.640625 15 C 6.398438 15.515625 5.308594 16.058594 5.308594 16.058594 L 1.394531 12.277344 L 3.046875 8.800781 L 0.09375 5.113281 L 4.789062 5.113281 L 5.699219 3.210938 L 8.019531 2.308594 L 8.277344 1.632812 L 10.164062 2.460938 L 10.609375 0.953125 L 10.917969 0.855469 C 12.40625 0.378906 14.125 0.121094 15.882812 0.113281 C 15.933594 0.109375 16.492188 0.117188 16.503906 0.117188 C 16.570312 0.117188 16.84375 0.132812 16.84375 0.132812 C 18.332031 0.203125 19.726562 0.441406 20.996094 0.839844 L 21.308594 0.9375 L 21.71875 2.375 L 22.398438 1.882812 L 26.203125 3.183594 L 27.121094 5.113281 L 31.839844 5.113281 L 28.859375 8.816406 L 30.484375 12.246094 L 26.507812 16.183594 C 26.507812 16.183594 25.066406 15.3125 24.066406 14.933594 L 22.851562 16.265625 C 22.714844 19.039062 20.753906 21.46875 18 22.285156 Z M 15.914062 24.871094 "/>
<path style=" stroke:none;fill-rule:nonzero;fill:rgb(11.372549%,25.882353%,54.117647%);fill-opacity:1;" d="M 15.882812 0.691406 L 15.867188 1.941406 L 16.101562 2.175781 L 16.183594 2.179688 L 16.1875 2.71875 L 16.574219 2.730469 L 16.566406 2.191406 L 16.636719 2.1875 L 16.859375 1.976562 L 16.8125 0.714844 C 16.703125 0.707031 16.464844 0.699219 16.464844 0.699219 L 16.476562 1.816406 L 16.25 1.820312 L 16.246094 0.695312 C 16.246094 0.695312 16.007812 0.691406 15.882812 0.691406 Z M 15.1875 0.71875 C 15.054688 0.726562 14.976562 0.726562 14.828125 0.742188 L 14.699219 2.300781 L 14.445312 2.324219 L 14.59375 0.757812 L 14.238281 0.789062 L 14.039062 2.367188 L 13.78125 2.394531 L 13.976562 0.820312 L 13.617188 0.867188 L 13.34375 2.652344 L 13.550781 2.84375 L 14.027344 2.800781 L 14.230469 2.632812 L 14.390625 2.769531 L 14.828125 2.742188 L 15.082031 2.5 Z M 17.316406 0.75 C 17.246094 0.824219 17.15625 0.882812 17.097656 0.957031 C 17.132812 1.480469 17.160156 2.007812 17.199219 2.527344 L 17.429688 2.769531 L 18.070312 2.8125 L 18.265625 2.519531 C 18.214844 2.042969 18.125 1.554688 18.082031 1.042969 L 17.847656 0.800781 Z M 18.378906 0.867188 L 18.664062 2.867188 L 19.085938 2.917969 L 18.996094 2.332031 L 19.253906 2.359375 L 19.367188 2.960938 L 19.792969 3.035156 L 19.667969 2.308594 L 19.515625 2.136719 L 19.601562 2.023438 L 19.453125 1.296875 L 19.191406 1.003906 Z M 13.355469 0.902344 L 12.519531 1.066406 C 12.4375 1.53125 12.101562 3.027344 12.101562 3.027344 C 12.398438 2.976562 12.714844 2.933594 13.027344 2.894531 C 13.050781 2.773438 13.09375 2.492188 13.09375 2.492188 L 12.648438 2.558594 L 12.730469 2.144531 L 13.164062 2.082031 C 13.191406 1.933594 13.203125 1.875 13.226562 1.714844 C 13.039062 1.742188 12.941406 1.753906 12.78125 1.78125 L 12.859375 1.351562 L 13.292969 1.273438 Z M 19.746094 1.125 C 19.746094 1.125 20.023438 2.433594 20.179688 3.101562 L 20.621094 3.183594 L 20.472656 2.566406 L 20.746094 2.625 L 20.917969 3.246094 L 21.355469 3.339844 L 21.089844 2.457031 L 20.914062 2.269531 L 21.007812 2.140625 L 20.804688 1.410156 C 20.605469 1.355469 20.417969 1.304688 20.417969 1.304688 L 20.609375 2.054688 L 20.535156 2.152344 L 20.382812 2.121094 C 20.382812 2.121094 20.226562 1.515625 20.148438 1.222656 C 19.96875 1.167969 19.746094 1.125 19.746094 1.125 Z M 17.484375 1.128906 L 17.703125 1.152344 L 17.824219 2.363281 L 17.597656 2.347656 Z M 12.1875 1.136719 C 12.046875 1.164062 11.769531 1.238281 11.769531 1.238281 L 11.660156 1.636719 C 11.660156 1.636719 11.542969 1.417969 11.492188 1.3125 C 11.359375 1.351562 11.246094 1.382812 11.09375 1.433594 C 10.910156 2.070312 10.722656 2.707031 10.539062 3.339844 L 10.980469 3.246094 L 11.335938 2.070312 L 11.476562 2.363281 L 11.269531 3.179688 L 11.71875 3.09375 Z M 18.839844 1.320312 L 19.054688 1.359375 L 19.15625 1.855469 L 18.917969 1.828125 Z M 1.332031 5.699219 L 15.914062 23.910156 L 30.597656 5.699219 Z M 1.332031 5.699219 "/>
<path style=" stroke:none;fill-rule:nonzero;fill:rgb(61.960784%,63.529412%,63.529412%);fill-opacity:1;" d="M 29.476562 6.226562 L 15.917969 23.046875 L 2.445312 6.226562 Z M 29.476562 6.226562 "/>
<path style=" stroke:none;fill-rule:nonzero;fill:rgb(11.372549%,25.882353%,54.117647%);fill-opacity:1;" d="M 27.523438 7.398438 L 27.515625 7.386719 L 27.507812 7.378906 L 26.640625 6.820312 L 26.960938 6.226562 L 26.972656 6.207031 L 26.964844 6.1875 L 25.769531 3.671875 L 25.761719 3.65625 L 25.746094 3.648438 L 22.523438 2.546875 L 22.503906 2.539062 L 22.484375 2.550781 L 21.628906 3.179688 L 21.621094 3.183594 L 21.617188 3.195312 L 21.46875 3.539062 C 21.46875 3.539062 20.136719 3.21875 18.175781 3.03125 C 17.976562 3.011719 17.441406 2.96875 16.589844 2.902344 L 16.507812 2.898438 L 16.421875 2.890625 L 16.402344 2.890625 L 16.386719 2.902344 L 15.75 3.511719 L 15.753906 2.886719 C 15.753906 2.886719 13.949219 2.984375 12.765625 3.140625 C 11.585938 3.292969 10.421875 3.574219 10.421875 3.574219 L 10.207031 3.136719 L 10.203125 3.121094 L 10.1875 3.117188 L 8.667969 2.445312 L 8.625 2.429688 L 8.609375 2.46875 L 8.433594 2.933594 L 8.390625 2.839844 L 8.375 2.800781 L 8.335938 2.816406 L 6.160156 3.65625 L 6.144531 3.664062 L 6.136719 3.679688 L 2.128906 12.15625 L 5.421875 15.328125 L 5.574219 15.242188 C 5.671875 15.1875 5.8125 15.109375 5.972656 15.019531 C 6.371094 14.792969 6.917969 14.484375 7.175781 14.363281 L 7.230469 14.339844 C 7.566406 14.183594 7.738281 14.101562 9.335938 13.445312 L 9.472656 13.394531 C 9.472656 13.394531 9.652344 13.328125 9.980469 13.222656 C 10.859375 12.941406 13.140625 12.289062 15.355469 12.289062 L 15.378906 12.289062 C 15.46875 12.289062 15.554688 12.289062 15.644531 12.292969 C 17.148438 12.332031 18.90625 12.640625 20.113281 12.890625 C 21.277344 13.132812 22.152344 13.363281 22.398438 13.429688 L 22.566406 13.480469 C 23.667969 13.890625 25.015625 14.566406 26.261719 15.332031 L 26.417969 15.429688 L 29.75 12.128906 Z M 27.523438 7.398438 "/>
<path style=" stroke:none;fill-rule:nonzero;fill:rgb(61.960784%,63.529412%,63.529412%);fill-opacity:1;" d="M 15.839844 8.890625 L 15.851562 10.136719 L 16.382812 10.15625 L 16.394531 9.441406 Z M 16.625 9.53125 C 16.613281 9.742188 16.613281 10.035156 16.597656 10.1875 C 16.972656 10.230469 17.371094 10.351562 17.722656 10.445312 C 18.042969 10.519531 18.386719 10.648438 18.664062 10.769531 L 18.820312 9.695312 C 18.082031 9.609375 17.378906 9.554688 16.625 9.53125 Z M 15.023438 9.535156 C 14.519531 9.550781 14.019531 9.582031 13.519531 9.625 C 13.5625 9.898438 13.628906 10.304688 13.671875 10.589844 C 13.671875 10.589844 14.132812 10.328125 15.054688 10.230469 Z M 12.609375 9.726562 C 12.121094 9.789062 11.632812 9.863281 11.152344 9.953125 C 11.335938 10.53125 11.570312 11.308594 11.753906 11.890625 C 12.183594 11.585938 12.441406 11.269531 12.890625 11.003906 C 12.808594 10.613281 12.691406 10.109375 12.609375 9.726562 Z M 19.300781 9.753906 L 19.039062 10.984375 C 19.457031 11.21875 19.78125 11.480469 20.15625 11.832031 L 20.230469 11.886719 L 20.816406 10.011719 C 20.308594 9.910156 19.816406 9.824219 19.300781 9.753906 Z M 10.050781 10.183594 C 9.5 10.3125 9.023438 10.449219 8.484375 10.609375 C 8.824219 11.386719 9.203125 12.1875 9.609375 12.933594 C 9.972656 12.800781 10.484375 12.625 10.964844 12.503906 Z M 21.851562 10.238281 L 20.894531 12.613281 L 22.296875 12.933594 L 23.480469 10.6875 C 22.933594 10.515625 22.410156 10.375 21.851562 10.238281 Z M 7.585938 10.894531 C 6.992188 11.097656 6.453125 11.308594 5.875 11.554688 L 7.492188 13.765625 C 7.574219 13.699219 8.367188 13.367188 8.914062 13.148438 C 8.5 12.425781 8 11.628906 7.585938 10.894531 Z M 24.335938 10.972656 L 23.042969 13.210938 C 24.160156 13.628906 25.722656 14.46875 26.34375 14.871094 C 26.628906 14.609375 28.183594 13.039062 28.398438 12.820312 C 27.105469 12.09375 25.746094 11.472656 24.335938 10.972656 Z M 4.460938 12.207031 C 4.105469 12.382812 3.757812 12.566406 3.414062 12.761719 L 5.503906 14.78125 C 5.757812 14.632812 6.027344 14.484375 6.324219 14.320312 Z M 4.460938 12.207031 "/>
<path style=" stroke:none;fill-rule:nonzero;fill:rgb(11.372549%,25.882353%,54.117647%);fill-opacity:1;" d="M 15.972656 9.90625 C 12.503906 9.90625 9.691406 12.613281 9.691406 15.949219 C 9.691406 19.285156 12.503906 21.992188 15.972656 21.992188 C 19.441406 21.992188 22.253906 19.285156 22.253906 15.949219 C 22.253906 12.613281 19.441406 9.90625 15.972656 9.90625 "/>
<path style=" stroke:none;fill-rule:nonzero;fill:rgb(96.078431%,51.764706%,14.901961%);fill-opacity:1;" d="M 8.875 3.019531 L 7.992188 5.429688 L 6.582031 6.597656 L 7.867188 3.472656 L 6.484375 4.003906 L 2.671875 12.050781 L 3.269531 12.628906 C 3.621094 12.429688 3.980469 12.238281 4.34375 12.054688 L 5.558594 9.085938 L 6.625 8.167969 L 6.882812 8.453125 L 5.828125 11.371094 C 6.402344 11.125 6.992188 10.902344 7.585938 10.699219 L 8.351562 8.292969 L 7.691406 7.246094 L 9.054688 6 L 9.855469 3.441406 Z M 22.578125 3.03125 L 22.054688 3.421875 L 23 6.378906 L 26.046875 8.449219 L 26.828125 10.320312 L 25.558594 9.769531 L 25.125 8.605469 L 23.570312 8.164062 L 24.402344 10.796875 C 24.660156 10.890625 24.914062 10.984375 25.164062 11.082031 C 25.855469 11.351562 26.535156 11.648438 27.195312 11.976562 C 27.652344 12.199219 28.105469 12.441406 28.546875 12.691406 L 29.210938 12.039062 L 27.160156 7.691406 L 23.957031 5.632812 L 23.402344 4.128906 L 24.394531 4.46875 L 24.792969 5.410156 L 26.300781 5.875 L 25.421875 4.003906 Z M 16.582031 3.34375 L 15.890625 4.007812 L 15.890625 8.632812 L 16.617188 9.347656 C 17.363281 9.371094 18.105469 9.425781 18.839844 9.507812 L 18.6875 8.191406 L 17.332031 8.113281 L 17.113281 4.414062 L 18.265625 4.46875 L 18.128906 3.453125 Z M 15.21875 3.347656 L 14.050781 3.40625 L 13.503906 9.441406 C 14 9.398438 14.5 9.367188 15.003906 9.351562 Z M 13.363281 3.484375 L 12.277344 3.636719 L 11.921875 5.621094 L 11.519531 3.753906 L 10.242188 4.0625 L 8.464844 10.417969 C 8.980469 10.261719 9.496094 10.125 10.019531 10.003906 L 10.996094 5.730469 L 11.488281 8.023438 L 11.171875 9.761719 C 11.644531 9.675781 12.121094 9.601562 12.605469 9.539062 L 12.609375 9.539062 Z M 18.511719 3.496094 C 18.511719 3.496094 19.066406 7.566406 19.328125 9.570312 C 19.828125 9.636719 20.324219 9.722656 20.816406 9.816406 L 20.433594 7.855469 L 20.8125 7.359375 L 21.371094 7.800781 L 21.886719 10.050781 C 22.425781 10.183594 22.957031 10.332031 23.484375 10.492188 L 22.523438 7.191406 L 21.535156 6.414062 L 22.097656 5.691406 L 21.632812 4.015625 L 20.441406 3.761719 L 20.910156 5.449219 L 20.164062 6.40625 L 19.617188 3.628906 Z M 15.808594 10.355469 C 15.265625 10.367188 14.742188 10.429688 14.246094 10.605469 C 14.457031 10.734375 14.636719 10.78125 14.953125 10.960938 C 15.410156 10.757812 15.875 10.519531 16.359375 10.359375 C 16.171875 10.355469 15.988281 10.351562 15.808594 10.355469 Z M 16.953125 10.4375 C 16.382812 10.578125 15.273438 11.085938 15.273438 11.085938 C 17.15625 11.59375 19.375 11.492188 20.855469 12.925781 C 19.980469 11.578125 18.492188 10.691406 16.953125 10.4375 Z M 13.878906 10.722656 C 13.332031 10.9375 12.746094 11.21875 12.339844 11.574219 C 12.964844 11.644531 13.230469 11.679688 13.742188 11.8125 C 14.046875 11.554688 14.339844 11.324219 14.707031 11.113281 Z M 14.980469 11.207031 C 14.628906 11.414062 14.285156 11.65625 13.992188 11.910156 C 17.210938 12.878906 20.128906 15.90625 20.824219 19.035156 C 21.328125 18.332031 21.632812 17.519531 21.757812 16.65625 C 21.835938 15.332031 21.820312 14.125 20.515625 12.972656 C 18.960938 11.652344 16.796875 11.820312 14.980469 11.207031 Z M 12.027344 11.820312 C 11.453125 12.304688 10.914062 13.046875 10.65625 13.671875 C 11.195312 13.144531 11.867188 12.71875 12.71875 12.902344 L 12.726562 12.90625 C 12.96875 12.574219 13.203125 12.292969 13.511719 12.007812 C 12.9375 11.832031 12.554688 11.839844 12.027344 11.820312 Z M 13.777344 12.101562 C 13.484375 12.378906 13.226562 12.671875 12.996094 12.984375 L 12.996094 12.992188 C 14.078125 13.445312 14.359375 14.554688 14.765625 16.027344 C 15.296875 17.945312 15.792969 19.890625 17.292969 21.390625 C 18.140625 21.199219 19.019531 20.839844 19.820312 20.148438 C 20.066406 19.910156 20.433594 19.578125 20.589844 19.339844 C 20.0625 16.1875 16.996094 12.976562 13.777344 12.101562 Z M 12.367188 13.128906 C 11.519531 13.113281 10.882812 13.71875 10.378906 14.394531 C 9.722656 16.617188 10.59375 18.90625 12.054688 20.089844 C 10.925781 17.824219 11.117188 15.238281 12.539062 13.140625 C 12.480469 13.132812 12.421875 13.128906 12.367188 13.128906 Z M 12.820312 13.214844 C 11.308594 15.277344 11.164062 18.445312 12.679688 20.570312 C 13.902344 21.316406 15.433594 21.761719 16.980469 21.460938 C 14.996094 19.253906 14.824219 16.824219 14.058594 14.636719 C 13.960938 14.347656 13.558594 13.421875 12.820312 13.214844 Z M 12.820312 13.214844 "/>
</g>
</svg>
