<?xml version="1.0" encoding="UTF-8"?>
<svg xmlns="http://www.w3.org/2000/svg" xmlns:xlink="http://www.w3.org/1999/xlink" width="32px" height="32px" viewBox="0 0 32 23" version="1.1">
<g id="surface1">
<path style=" stroke:none;fill-rule:nonzero;fill:rgb(76.078431%,80%,82.352941%);fill-opacity:1;" d="M 12.933594 16.003906 C 14.644531 15.742188 16.367188 15.824219 17.867188 16.449219 L 18.050781 16.046875 C 15.625 15.285156 12.558594 15.3125 10.300781 16.546875 L 10.945312 15.0625 C 8.074219 15.824219 6.167969 17.433594 4.21875 19.070312 C 5.632812 15.769531 8.703125 13.066406 12.164062 12.066406 L 11.996094 12.621094 C 15.039062 11.636719 18.375 11.441406 21.0625 11.886719 L 20.433594 11.066406 L 21.988281 11.46875 L 22.984375 9.984375 L 23.375 11.816406 L 24.902344 12.300781 C 24.902344 12.300781 23.796875 12.761719 23.839844 12.789062 C 29.613281 15.132812 27.761719 22.953125 22.285156 22.980469 C 19.507812 23.007812 17.351562 20.527344 17.449219 17.933594 C 16.019531 17.019531 14.617188 16.574219 12.933594 16.003906 Z M 12.933594 16.003906 "/>
<path style=" stroke:none;fill-rule:nonzero;fill:rgb(76.078431%,80%,82.352941%);fill-opacity:1;" d="M 11.84375 5.589844 L 11.84375 5.574219 C 11.863281 5.367188 11.964844 5.171875 12.121094 5.035156 C 12.28125 4.929688 12.464844 4.875 12.65625 4.867188 C 12.65625 4.867188 12.824219 4.855469 12.976562 4.855469 L 13.480469 4.8125 L 13.480469 8.347656 L 13.046875 8.378906 C 12.78125 8.390625 12.628906 8.40625 12.332031 8.417969 L 11.84375 8.460938 Z M 9.417969 5.492188 C 9.402344 4.917969 9.59375 4.355469 9.964844 3.910156 C 10.367188 3.5 10.914062 3.253906 11.492188 3.21875 C 12.667969 3.121094 13.859375 3.050781 15.039062 3.023438 L 15.90625 3.007812 L 15.90625 12.925781 L 15.890625 13.773438 L 15.023438 13.757812 C 14.871094 13.757812 13.707031 13.800781 13.496094 13.800781 L 13.46875 13.800781 L 12.542969 13.898438 L 12.542969 13.871094 L 11.953125 13.898438 C 11.871094 13.898438 10.46875 14.035156 10.414062 14.050781 L 9.417969 14.214844 Z M 9.417969 5.492188 "/>
<path style=" stroke:none;fill-rule:nonzero;fill:rgb(76.078431%,80%,82.352941%);fill-opacity:1;" d="M 30.917969 16.074219 C 30.917969 16.074219 29.753906 15.714844 29.585938 15.671875 C 29.570312 15.671875 29.570312 15.671875 29.570312 15.660156 C 29.039062 15.507812 28.5625 15.382812 28.226562 15.285156 L 27.609375 15.132812 C 26.433594 14.933594 25.597656 13.894531 25.660156 12.71875 L 25.660156 6.269531 C 25.660156 5.644531 25.855469 5.0625 26.320312 4.703125 C 26.621094 4.472656 26.992188 4.355469 27.371094 4.367188 C 27.578125 4.371094 27.785156 4.394531 27.988281 4.4375 C 28.070312 4.464844 28.296875 4.519531 28.660156 4.617188 C 29.011719 4.714844 29.457031 4.855469 29.90625 4.980469 C 30.804688 5.230469 31.6875 5.476562 31.6875 5.476562 L 32.023438 5.574219 L 32.023438 9.957031 L 29.191406 9.085938 L 29.148438 8.808594 C 29.148438 8.808594 29.066406 8.292969 28.980469 7.824219 L 28.980469 12.730469 L 28.996094 12.761719 C 28.996094 12.761719 28.980469 12.773438 29.082031 12.800781 C 29.082031 12.800781 29.261719 12.84375 29.375 12.871094 C 29.457031 12.550781 29.542969 12.203125 29.542969 12.203125 L 29.65625 11.71875 L 32.023438 12.414062 L 32.039062 16.378906 Z M 30.917969 16.074219 "/>
<path style=" stroke:none;fill-rule:nonzero;fill:rgb(76.078431%,80%,82.352941%);fill-opacity:1;" d="M 0.015625 6.835938 C 0.0234375 6.390625 0.210938 5.96875 0.53125 5.660156 C 0.777344 5.410156 1.074219 5.222656 1.402344 5.105469 C 2.703125 4.6875 4.554688 4.410156 4.640625 4.398438 L 5.128906 4.328125 C 5.34375 4.207031 5.574219 4.117188 5.816406 4.0625 C 6.445312 3.9375 8.394531 3.578125 8.480469 3.5625 L 9.488281 3.371094 L 9.488281 13.453125 L 9.472656 14.203125 L 8.71875 14.285156 C 8.660156 14.285156 7.246094 14.535156 7.175781 14.550781 L 6.125 14.785156 L 6.125 13.148438 L 3.195312 13.839844 L 3.195312 15.492188 L 2.550781 15.644531 C 2.535156 15.644531 2.328125 15.714844 2.101562 15.785156 C 1.863281 15.851562 1.597656 15.9375 1.402344 15.992188 C 1.320312 16.011719 1.238281 16.039062 1.164062 16.074219 L 0 16.492188 L 0 6.835938 Z M 0.015625 6.835938 "/>
<path style=" stroke:none;fill-rule:nonzero;fill:rgb(76.078431%,80%,82.352941%);fill-opacity:1;" d="M 24.664062 14.519531 L 24.636719 14.519531 C 24.625 14.519531 24.609375 14.507812 24.59375 14.507812 C 24.535156 14.5 24.472656 14.484375 24.414062 14.464844 C 24.242188 14.449219 24.074219 14.421875 23.910156 14.382812 C 23.558594 14.328125 23.179688 14.257812 23.152344 14.257812 L 22.800781 14.230469 L 22.394531 14.1875 L 22.394531 3.46875 L 23.320312 3.535156 C 23.417969 3.550781 23.613281 3.578125 23.910156 3.632812 C 24.1875 3.675781 24.527344 3.730469 24.75 3.773438 C 24.863281 3.78125 24.976562 3.800781 25.085938 3.828125 L 25.730469 3.996094 L 25.730469 14.742188 Z M 24.664062 14.519531 "/>
<path style=" stroke:none;fill-rule:nonzero;fill:rgb(76.078431%,80%,82.352941%);fill-opacity:1;" d="M 21.371094 14.035156 C 21.273438 14.023438 20.6875 13.964844 20.082031 13.910156 C 19.496094 13.871094 18.863281 13.828125 18.441406 13.800781 L 18.007812 13.785156 C 17.378906 13.757812 16.832031 13.5625 16.4375 13.175781 C 16.046875 12.773438 15.863281 12.234375 15.863281 11.609375 L 15.863281 4.894531 C 15.863281 4.367188 16.019531 3.871094 16.398438 3.523438 C 16.859375 3.09375 17.421875 3.050781 17.769531 3.050781 L 18.148438 3.050781 C 18.261719 3.050781 18.414062 3.066406 18.640625 3.078125 L 18.890625 3.078125 L 18.878906 3.09375 C 19.128906 3.105469 19.425781 3.132812 19.832031 3.164062 C 21.148438 3.257812 21.5 3.300781 21.695312 3.34375 C 21.757812 3.351562 21.820312 3.371094 21.875 3.398438 L 22.367188 3.632812 L 22.367188 7.128906 L 19.5625 6.769531 L 19.496094 6.449219 C 19.496094 6.449219 19.425781 6.101562 19.355469 5.785156 L 19.226562 5.785156 L 19.242188 7.046875 L 19.242188 7.324219 L 19.4375 7.324219 C 19.558594 7.320312 19.683594 7.332031 19.800781 7.351562 C 19.972656 7.363281 20.179688 7.378906 20.390625 7.390625 C 20.824219 7.433594 21.300781 7.488281 21.539062 7.515625 C 21.597656 7.515625 21.652344 7.519531 21.707031 7.53125 L 22.382812 7.683594 L 22.367188 14.230469 Z M 21.371094 14.035156 "/>
<path style=" stroke:none;fill-rule:nonzero;fill:rgb(0%,0%,0%);fill-opacity:1;" d="M 12.5 7.765625 C 12.613281 7.75 12.726562 7.742188 12.835938 7.738281 L 12.835938 5.492188 C 12.796875 5.5 12.753906 5.503906 12.710938 5.507812 C 12.613281 5.507812 12.558594 5.519531 12.542969 5.546875 C 12.515625 5.5625 12.515625 5.5625 12.5 5.617188 Z M 9.699219 5.492188 C 9.683594 4.367188 10.386719 3.578125 11.535156 3.496094 C 12.695312 3.398438 13.886719 3.328125 15.066406 3.300781 L 15.640625 3.285156 L 15.640625 13.496094 L 15.050781 13.480469 C 14.898438 13.480469 13.566406 13.523438 13.46875 13.550781 L 12.835938 13.605469 L 12.835938 9.847656 C 12.726562 9.847656 12.613281 9.859375 12.5 9.875 L 12.5 13.078125 L 12.488281 13.621094 L 11.953125 13.632812 C 11.84375 13.632812 10.484375 13.773438 10.386719 13.800781 L 9.710938 13.898438 Z M 9.699219 5.492188 "/>
<path style=" stroke:none;fill-rule:nonzero;fill:rgb(0%,0%,0%);fill-opacity:1;" d="M 31.015625 15.8125 C 31.015625 15.8125 29.992188 15.492188 29.710938 15.421875 C 29.683594 15.410156 29.667969 15.410156 29.65625 15.394531 C 29.082031 15.230469 28.5625 15.089844 28.210938 15.007812 L 27.664062 14.867188 C 26.558594 14.617188 25.925781 13.828125 25.941406 12.71875 L 25.941406 6.28125 C 25.941406 5.6875 26.109375 5.230469 26.488281 4.921875 C 26.738281 4.738281 27.042969 4.640625 27.355469 4.644531 C 27.546875 4.648438 27.734375 4.671875 27.917969 4.714844 C 28.097656 4.757812 31.601562 5.753906 31.601562 5.753906 L 31.742188 5.785156 L 31.742188 9.582031 L 29.429688 8.875 L 29.417969 8.765625 C 29.417969 8.765625 29.234375 7.65625 29.164062 7.183594 C 29.023438 7.144531 28.914062 7.113281 28.84375 7.101562 L 28.703125 7.046875 L 28.703125 12.730469 C 28.699219 12.785156 28.714844 12.839844 28.742188 12.882812 C 28.796875 12.980469 28.890625 13.046875 28.996094 13.066406 C 28.996094 13.066406 29.304688 13.148438 29.585938 13.21875 C 29.667969 12.84375 29.796875 12.273438 29.796875 12.273438 L 29.851562 12.082031 L 31.742188 12.648438 L 31.742188 16.03125 Z M 31.015625 15.8125 "/>
<path style=" stroke:none;fill-rule:nonzero;fill:rgb(0%,0%,0%);fill-opacity:1;" d="M 0.292969 6.835938 C 0.324219 6.019531 1.023438 5.519531 1.484375 5.367188 C 2.761719 4.964844 4.597656 4.6875 4.695312 4.675781 L 5.242188 4.578125 C 5.441406 4.464844 5.660156 4.378906 5.886719 4.328125 C 6.515625 4.203125 8.449219 3.84375 8.550781 3.8125 L 9.222656 3.703125 L 9.222656 13.4375 L 9.207031 13.9375 L 8.703125 14.007812 C 8.589844 14.007812 7.230469 14.242188 7.132812 14.273438 L 6.417969 14.425781 L 6.417969 6.546875 L 6.40625 6.546875 C 6.207031 6.601562 6.167969 6.644531 6.125 6.867188 L 6.125 12.855469 L 3.347656 13.507812 L 3.347656 7.226562 C 3.335938 7.234375 3.324219 7.238281 3.308594 7.238281 C 3.207031 7.257812 3.109375 7.300781 3.027344 7.363281 C 2.964844 7.410156 2.929688 7.484375 2.941406 7.558594 L 2.941406 14.8125 L 2.929688 15.257812 L 2.496094 15.351562 C 2.398438 15.382812 1.175781 15.753906 1.09375 15.785156 L 0.308594 16.074219 L 0.308594 6.835938 Z M 0.292969 6.835938 "/>
<path style=" stroke:none;fill-rule:nonzero;fill:rgb(0%,0%,0%);fill-opacity:1;" d="M 24.722656 14.242188 C 24.625 14.214844 23.265625 13.996094 23.167969 13.980469 L 22.816406 13.953125 L 22.648438 13.9375 L 22.648438 3.773438 L 23.277344 3.828125 C 23.433594 3.84375 24.847656 4.078125 25.003906 4.121094 L 25.4375 4.230469 L 25.4375 14.394531 Z M 24.722656 14.242188 "/>
<path style=" stroke:none;fill-rule:nonzero;fill:rgb(0%,0%,0%);fill-opacity:1;" d="M 18.960938 11.277344 C 18.96875 11.316406 18.976562 11.359375 18.988281 11.402344 C 19.003906 11.414062 19.03125 11.441406 19.171875 11.457031 C 19.21875 11.457031 19.265625 11.460938 19.3125 11.46875 L 19.3125 9.554688 C 19.226562 9.546875 19.144531 9.542969 19.058594 9.542969 L 18.960938 9.527344 Z M 21.414062 13.757812 C 21.148438 13.703125 19.3125 13.5625 18.472656 13.523438 L 18.023438 13.496094 C 17.449219 13.480469 16.972656 13.300781 16.648438 12.96875 C 16.328125 12.648438 16.160156 12.164062 16.160156 11.609375 L 16.160156 4.894531 C 16.160156 4.410156 16.300781 4.007812 16.59375 3.71875 C 16.972656 3.371094 17.460938 3.328125 17.785156 3.328125 L 18.148438 3.328125 C 18.386719 3.328125 18.835938 3.371094 19.800781 3.441406 C 21.132812 3.535156 21.484375 3.578125 21.652344 3.605469 C 21.691406 3.617188 21.726562 3.632812 21.765625 3.648438 L 22.101562 3.8125 L 22.101562 6.824219 L 19.800781 6.519531 L 19.773438 6.394531 C 19.773438 6.394531 19.664062 5.851562 19.59375 5.519531 L 19.464844 5.519531 C 19.453125 5.519531 19.101562 5.492188 19.101562 5.492188 L 19.046875 5.492188 C 19.015625 5.488281 18.988281 5.492188 18.960938 5.507812 L 18.960938 7.628906 L 19.4375 7.613281 L 19.453125 7.613281 C 19.5625 7.613281 20.070312 7.65625 20.574219 7.699219 C 21.09375 7.738281 21.554688 7.792969 21.667969 7.808594 L 22.113281 7.90625 L 22.101562 13.898438 Z M 21.414062 13.757812 "/>
<path style=" stroke:none;fill-rule:nonzero;fill:rgb(100%,100%,100%);fill-opacity:1;" d="M 13.144531 5.171875 L 13.144531 8.03125 C 12.90625 8.042969 12.445312 8.070312 12.179688 8.085938 L 12.179688 5.589844 C 12.207031 5.421875 12.261719 5.230469 12.683594 5.199219 C 12.683594 5.199219 12.933594 5.171875 13.144531 5.171875 Z M 15.066406 3.703125 L 15.066406 3.605469 C 13.886719 3.632812 12.726562 3.6875 11.5625 3.785156 C 10.566406 3.882812 10.007812 4.480469 10.019531 5.476562 L 10.019531 13.523438 L 10.316406 13.46875 C 10.414062 13.453125 11.84375 13.316406 11.925781 13.300781 L 12.164062 13.300781 L 12.164062 9.554688 C 12.402344 9.542969 12.867188 9.5 13.132812 9.488281 L 13.132812 13.246094 L 13.425781 13.21875 C 13.496094 13.203125 14.828125 13.148438 15.023438 13.148438 L 15.039062 13.148438 L 15.207031 13.160156 L 15.304688 13.160156 L 15.304688 3.605469 L 15.039062 3.605469 Z M 15.066406 3.703125 "/>
<path style=" stroke:none;fill-rule:nonzero;fill:rgb(100%,100%,100%);fill-opacity:1;" d="M 31.433594 12.871094 L 30.089844 12.480469 L 30.074219 12.578125 C 30.074219 12.578125 29.90625 13.300781 29.835938 13.621094 C 29.304688 13.46875 29.066406 13.398438 28.941406 13.371094 C 28.746094 13.328125 28.578125 13.207031 28.476562 13.039062 C 28.429688 12.941406 28.402344 12.839844 28.394531 12.730469 L 28.394531 7.003906 C 28.398438 6.929688 28.417969 6.859375 28.449219 6.796875 C 28.476562 6.753906 28.519531 6.742188 28.605469 6.742188 C 28.664062 6.742188 28.726562 6.753906 28.785156 6.769531 L 28.8125 6.769531 C 28.828125 6.769531 29.050781 6.835938 29.445312 6.949219 C 29.5 7.28125 29.710938 8.570312 29.710938 8.570312 L 29.710938 8.640625 L 31.421875 9.152344 L 31.421875 6.03125 L 31.351562 6.003906 C 31.351562 6.003906 28.015625 5.0625 27.832031 5.035156 C 27.671875 4.992188 27.507812 4.96875 27.34375 4.964844 C 27.101562 4.957031 26.863281 5.03125 26.667969 5.171875 C 26.375 5.394531 26.234375 5.785156 26.234375 6.28125 L 26.234375 12.71875 C 26.222656 13.6875 26.738281 14.328125 27.707031 14.5625 L 27.761719 14.5625 C 27.875 14.589844 28.800781 14.839844 29.726562 15.089844 L 31.085938 15.507812 L 31.40625 15.601562 Z M 31.433594 12.871094 "/>
<path style=" stroke:none;fill-rule:nonzero;fill:rgb(100%,100%,100%);fill-opacity:1;" d="M 5.941406 4.644531 C 5.597656 4.71875 5.28125 4.886719 5.03125 5.132812 L 5.03125 4.921875 L 4.738281 4.964844 C 4.652344 4.980469 2.816406 5.269531 1.582031 5.660156 C 1.191406 5.796875 0.628906 6.226562 0.617188 6.835938 L 0.617188 15.644531 L 0.96875 15.507812 C 1.035156 15.476562 2.328125 15.089844 2.410156 15.0625 L 2.535156 15.035156 L 2.605469 15.019531 L 2.605469 7.558594 C 2.605469 7.183594 2.957031 7.019531 3.195312 6.933594 C 3.34375 6.898438 3.492188 6.871094 3.644531 6.851562 L 3.644531 13.121094 L 5.789062 12.621094 L 5.789062 6.835938 C 5.84375 6.492188 6 6.324219 6.320312 6.242188 C 6.375 6.226562 6.558594 6.199219 6.726562 6.171875 L 6.726562 14.050781 L 7.050781 13.964844 C 7.121094 13.953125 8.5625 13.703125 8.660156 13.703125 L 8.800781 13.6875 L 8.898438 13.6875 L 8.898438 4.078125 L 8.589844 4.132812 C 8.589844 4.132812 6.574219 4.507812 5.941406 4.644531 Z M 5.941406 4.644531 "/>
<path style=" stroke:none;fill-rule:nonzero;fill:rgb(100%,100%,100%);fill-opacity:1;" d="M 23.25 4.132812 L 23.066406 4.121094 L 22.96875 4.105469 L 22.96875 13.648438 L 23.054688 13.660156 L 23.207031 13.675781 C 23.277344 13.6875 24.722656 13.910156 24.804688 13.9375 L 25.128906 14.007812 L 25.128906 4.453125 L 24.933594 4.398438 C 24.804688 4.367188 23.375 4.132812 23.25 4.132812 Z M 23.25 4.132812 "/>
<path style=" stroke:none;fill-rule:nonzero;fill:rgb(100%,100%,100%);fill-opacity:1;" d="M 19.453125 7.90625 L 19.4375 7.90625 L 19.285156 7.917969 L 19.199219 7.917969 L 19.199219 9.25 L 19.285156 9.25 C 19.285156 9.25 19.480469 9.265625 19.621094 9.277344 L 19.621094 11.816406 C 19.410156 11.789062 19.144531 11.773438 19.144531 11.773438 C 18.96875 11.777344 18.808594 11.695312 18.710938 11.554688 C 18.664062 11.46875 18.640625 11.371094 18.640625 11.277344 L 18.640625 5.507812 C 18.632812 5.421875 18.660156 5.339844 18.710938 5.269531 C 18.796875 5.195312 18.914062 5.160156 19.03125 5.171875 L 19.144531 5.171875 C 19.1875 5.171875 19.425781 5.1875 19.84375 5.230469 C 19.902344 5.476562 20.054688 6.171875 20.054688 6.171875 L 20.070312 6.226562 L 21.792969 6.449219 L 21.792969 3.996094 L 21.636719 3.925781 C 21.570312 3.898438 21.5 3.871094 19.773438 3.746094 C 18.75 3.660156 18.316406 3.632812 18.121094 3.632812 L 17.769531 3.632812 C 17.488281 3.632812 17.097656 3.675781 16.816406 3.9375 C 16.578125 4.160156 16.46875 4.480469 16.46875 4.894531 L 16.46875 11.609375 C 16.46875 12.578125 17.027344 13.160156 18.023438 13.191406 L 18.078125 13.191406 C 18.332031 13.191406 21.09375 13.382812 21.46875 13.453125 L 21.777344 13.507812 L 21.792969 8.140625 L 21.582031 8.101562 C 21.441406 8.070312 19.648438 7.90625 19.453125 7.90625 Z M 19.453125 7.90625 "/>
<path style=" stroke:none;fill-rule:nonzero;fill:rgb(4.313725%,46.666667%,74.117647%);fill-opacity:1;" d="M 31.167969 13.066406 L 30.273438 12.800781 L 30.003906 13.953125 C 29.429688 13.773438 28.84375 13.621094 28.84375 13.621094 C 28.578125 13.558594 28.351562 13.386719 28.226562 13.148438 C 28.15625 13.019531 28.117188 12.878906 28.113281 12.730469 L 28.113281 7.003906 C 28.113281 6.875 28.152344 6.75 28.226562 6.644531 C 28.308594 6.53125 28.492188 6.40625 28.84375 6.519531 C 29.121094 6.582031 29.398438 6.660156 29.667969 6.753906 L 29.933594 8.433594 L 31.15625 8.808594 L 31.15625 6.226562 C 31.15625 6.226562 27.929688 5.3125 27.789062 5.269531 C 26.9375 5.0625 26.5 5.410156 26.5 6.28125 L 26.5 12.71875 C 26.5 13.59375 26.9375 14.105469 27.789062 14.3125 C 27.789062 14.300781 28.871094 14.589844 29.796875 14.855469 L 31.167969 15.257812 Z M 4.777344 6.1875 L 4.777344 5.230469 C 4.777344 5.230469 2.902344 5.519531 1.667969 5.921875 C 1.34375 6.019531 0.882812 6.378906 0.882812 6.851562 L 0.882812 15.285156 C 0.980469 15.242188 2.257812 14.855469 2.355469 14.828125 L 2.355469 7.574219 C 2.355469 7.058594 2.773438 6.808594 3.140625 6.699219 C 3.335938 6.644531 3.925781 6.558594 3.925781 6.558594 L 3.925781 12.800781 L 5.550781 12.414062 L 5.550781 6.824219 C 5.605469 6.378906 5.84375 6.089844 6.277344 5.992188 C 6.699219 5.921875 7.007812 5.878906 7.007812 5.878906 L 7.007812 13.714844 C 7.089844 13.6875 8.550781 13.453125 8.648438 13.4375 L 8.648438 4.382812 C 8.648438 4.382812 6.628906 4.757812 6 4.882812 C 5.363281 5.035156 4.882812 5.546875 4.777344 6.1875 Z M 23.222656 13.425781 C 23.335938 13.425781 24.75 13.660156 24.847656 13.6875 L 24.847656 4.660156 C 24.75 4.632812 23.320312 4.398438 23.222656 4.398438 Z M 10.273438 5.492188 L 10.273438 13.21875 C 10.386719 13.203125 11.8125 13.066406 11.925781 13.066406 L 11.925781 9.320312 C 12.417969 9.277344 12.90625 9.25 13.398438 9.222656 L 13.398438 12.96875 C 13.511719 12.953125 14.96875 12.898438 15.066406 12.898438 L 15.066406 3.855469 C 13.902344 3.882812 12.738281 3.953125 11.574219 4.050781 C 10.722656 4.132812 10.273438 4.632812 10.273438 5.492188 Z M 11.925781 5.589844 C 11.941406 5.410156 12.039062 4.992188 12.65625 4.953125 C 12.90625 4.921875 13.144531 4.910156 13.398438 4.894531 L 13.398438 8.28125 C 12.90625 8.308594 12.402344 8.347656 11.914062 8.378906 L 11.914062 5.589844 Z M 19.453125 9.015625 C 19.550781 9.015625 19.886719 9.042969 19.886719 9.042969 L 19.886719 12.082031 C 19.632812 12.066406 19.382812 12.039062 19.128906 12.023438 C 18.765625 11.996094 18.582031 11.832031 18.5 11.679688 C 18.429688 11.554688 18.394531 11.417969 18.402344 11.277344 L 18.402344 7.046875 C 18.402344 6.242188 18.386719 5.644531 18.386719 5.589844 L 18.386719 5.507812 C 18.386719 5.359375 18.4375 5.21875 18.527344 5.105469 C 18.652344 4.964844 18.863281 4.894531 19.144531 4.921875 C 19.144531 4.910156 19.5625 4.953125 20.070312 4.992188 L 20.292969 6.003906 L 21.539062 6.171875 L 21.539062 4.175781 C 21.441406 4.132812 18.066406 3.871094 18.066406 3.910156 L 18.007812 3.910156 C 17.726562 3.898438 17.292969 3.882812 17.015625 4.132812 C 16.832031 4.300781 16.746094 4.5625 16.746094 4.910156 L 16.746094 11.609375 C 16.746094 12.46875 17.183594 12.898438 18.066406 12.941406 C 18.066406 12.914062 21.105469 13.121094 21.539062 13.203125 C 21.539062 13.105469 21.554688 8.460938 21.554688 8.363281 C 21.441406 8.347656 19.578125 8.167969 19.480469 8.167969 L 19.480469 9.015625 Z M 19.453125 9.015625 "/>
<path style=" stroke:none;fill-rule:nonzero;fill:rgb(4.313725%,46.666667%,74.117647%);fill-opacity:1;" d="M 4.777344 6.1875 L 4.777344 5.230469 C 4.777344 5.230469 2.902344 5.519531 1.667969 5.921875 C 1.34375 6.019531 0.882812 6.378906 0.882812 6.851562 L 0.882812 15.285156 C 0.980469 15.242188 2.257812 14.855469 2.355469 14.828125 L 2.355469 7.574219 C 2.355469 7.074219 2.773438 6.808594 3.140625 6.699219 C 3.335938 6.644531 3.925781 6.558594 3.925781 6.558594 L 3.925781 12.800781 L 5.550781 12.414062 L 5.550781 6.824219 C 5.574219 6.414062 5.871094 6.074219 6.277344 5.992188 C 6.699219 5.921875 7.007812 5.878906 7.007812 5.878906 L 7.007812 13.714844 C 7.089844 13.6875 8.550781 13.453125 8.648438 13.4375 L 8.648438 4.382812 C 8.648438 4.382812 6.628906 4.757812 6 4.882812 C 5.363281 5.035156 4.882812 5.546875 4.777344 6.1875 Z M 23.222656 13.425781 C 23.335938 13.425781 24.75 13.660156 24.847656 13.6875 L 24.847656 4.644531 C 24.75 4.617188 23.320312 4.398438 23.222656 4.382812 Z M 19.453125 9.015625 C 19.550781 9.015625 19.886719 9.042969 19.886719 9.042969 L 19.886719 12.082031 C 19.632812 12.066406 19.382812 12.039062 19.128906 12.023438 C 18.765625 11.996094 18.582031 11.832031 18.5 11.679688 C 18.429688 11.554688 18.390625 11.417969 18.386719 11.277344 L 18.386719 7.046875 C 18.386719 6.242188 18.375 5.644531 18.375 5.589844 L 18.375 5.507812 C 18.371094 5.359375 18.421875 5.21875 18.511719 5.105469 C 18.640625 4.964844 18.851562 4.894531 19.128906 4.921875 C 19.128906 4.910156 19.550781 4.953125 20.054688 4.992188 L 20.277344 6.003906 L 21.527344 6.171875 L 21.527344 4.175781 C 21.414062 4.132812 18.050781 3.871094 18.050781 3.910156 L 17.980469 3.910156 C 17.726562 3.898438 17.28125 3.882812 17 4.132812 C 16.816406 4.300781 16.734375 4.5625 16.734375 4.910156 L 16.734375 11.609375 C 16.734375 12.453125 17.167969 12.898438 18.050781 12.941406 C 18.050781 12.914062 21.09375 13.121094 21.527344 13.203125 L 21.527344 8.363281 C 21.429688 8.347656 19.5625 8.167969 19.453125 8.167969 Z M 19.453125 9.015625 "/>
<path style=" stroke:none;fill-rule:nonzero;fill:rgb(0%,0%,0%);fill-opacity:1;" d="M 10.453125 2.566406 C 10.453125 2.582031 10.441406 2.601562 10.425781 2.609375 C 10.414062 2.636719 10.371094 2.648438 10.316406 2.664062 C 10.242188 2.664062 10.171875 2.679688 10.105469 2.703125 L 10.078125 2.703125 C 10.046875 2.703125 10.046875 2.691406 10.046875 2.691406 C 10.046875 2.6875 10.046875 2.683594 10.042969 2.679688 C 10.042969 2.679688 10.039062 2.675781 10.035156 2.675781 L 10.035156 1.09375 C 10.035156 1.09375 10.035156 1.082031 10.0625 1.054688 C 10.09375 1.023438 10.132812 1.003906 10.175781 1 C 10.230469 1 10.300781 0.972656 10.355469 0.972656 C 10.371094 0.972656 10.386719 0.957031 10.398438 0.957031 C 10.414062 0.957031 10.429688 0.960938 10.441406 0.972656 C 10.445312 0.972656 10.449219 0.972656 10.449219 0.976562 C 10.453125 0.976562 10.453125 0.980469 10.453125 0.984375 Z M 11.015625 0.625 C 10.976562 0.566406 10.914062 0.527344 10.847656 0.511719 C 10.800781 0.492188 10.746094 0.480469 10.691406 0.484375 C 10.621094 0.488281 10.550781 0.496094 10.484375 0.511719 C 10.316406 0.539062 10.132812 0.582031 9.964844 0.597656 C 9.84375 0.617188 9.730469 0.660156 9.628906 0.722656 C 9.566406 0.761719 9.515625 0.8125 9.472656 0.875 C 9.429688 0.953125 9.40625 1.046875 9.402344 1.136719 L 9.402344 2.816406 C 9.398438 2.898438 9.421875 2.984375 9.472656 3.050781 C 9.515625 3.109375 9.574219 3.148438 9.640625 3.164062 L 9.769531 3.164062 C 9.851562 3.164062 9.921875 3.148438 9.992188 3.148438 C 10.175781 3.105469 10.34375 3.078125 10.523438 3.050781 C 10.640625 3.023438 10.753906 2.988281 10.859375 2.941406 C 10.917969 2.898438 10.972656 2.84375 11.015625 2.789062 C 11.0625 2.714844 11.089844 2.625 11.085938 2.539062 L 11.085938 0.859375 C 11.09375 0.773438 11.070312 0.691406 11.015625 0.625 Z M 11.015625 0.625 "/>
<path style=" stroke:none;fill-rule:nonzero;fill:rgb(0%,0%,0%);fill-opacity:1;" d="M 19.003906 0.292969 C 18.964844 0.230469 18.914062 0.183594 18.851562 0.152344 C 18.738281 0.101562 18.621094 0.0742188 18.5 0.0703125 C 18.148438 0.0429688 17.796875 0.0273438 17.460938 0.0273438 L 17.351562 0.0273438 L 17.351562 2.566406 L 17.449219 2.566406 C 17.601562 2.578125 17.757812 2.578125 17.910156 2.59375 L 18.007812 2.59375 L 18.007812 0.457031 C 18.078125 0.457031 18.148438 0.472656 18.21875 0.472656 C 18.472656 0.5 18.429688 0.582031 18.441406 0.597656 L 18.441406 2.609375 L 18.527344 2.609375 C 18.679688 2.621094 18.820312 2.636719 18.976562 2.648438 L 19.074219 2.664062 L 19.074219 0.527344 C 19.085938 0.441406 19.058594 0.355469 19.003906 0.292969 Z M 19.003906 0.292969 "/>
<path style=" stroke:none;fill-rule:nonzero;fill:rgb(0%,0%,0%);fill-opacity:1;" d="M 20.488281 2.359375 C 20.457031 2.363281 20.425781 2.367188 20.390625 2.371094 C 20.367188 2.375 20.34375 2.371094 20.320312 2.359375 C 20.242188 2.355469 20.160156 2.347656 20.082031 2.328125 L 20.082031 0.652344 C 20.152344 0.652344 20.222656 0.664062 20.292969 0.664062 C 20.351562 0.671875 20.410156 0.691406 20.460938 0.722656 C 20.503906 0.75 20.515625 0.761719 20.515625 0.832031 L 20.515625 2.289062 C 20.503906 2.34375 20.503906 2.34375 20.488281 2.359375 Z M 21.09375 0.527344 C 21.046875 0.464844 20.988281 0.414062 20.921875 0.375 C 20.820312 0.316406 20.707031 0.285156 20.585938 0.277344 C 20.449219 0.25 19.734375 0.167969 19.550781 0.152344 L 19.4375 0.140625 L 19.4375 2.703125 L 19.523438 2.703125 C 19.871094 2.746094 20.222656 2.789062 20.558594 2.828125 C 20.609375 2.839844 20.660156 2.84375 20.714844 2.84375 C 20.773438 2.84375 20.835938 2.832031 20.894531 2.816406 C 20.964844 2.796875 21.027344 2.757812 21.078125 2.703125 C 21.132812 2.632812 21.160156 2.542969 21.160156 2.453125 L 21.160156 0.777344 C 21.160156 0.6875 21.136719 0.601562 21.09375 0.527344 Z M 21.09375 0.527344 "/>
<path style=" stroke:none;fill-rule:nonzero;fill:rgb(0%,0%,0%);fill-opacity:1;" d="M 12.488281 1.234375 C 12.488281 1.265625 12.476562 1.292969 12.457031 1.316406 C 12.402344 1.347656 12.339844 1.371094 12.277344 1.386719 C 12.210938 1.386719 12.144531 1.398438 12.082031 1.414062 L 12.082031 0.695312 C 12.15625 0.691406 12.230469 0.683594 12.304688 0.664062 L 12.402344 0.664062 C 12.457031 0.664062 12.488281 0.664062 12.488281 0.679688 C 12.5 0.695312 12.488281 0.679688 12.5 0.707031 L 12.5 1.136719 C 12.492188 1.167969 12.488281 1.203125 12.488281 1.234375 Z M 13.144531 2.609375 L 13.144531 1.761719 C 13.148438 1.667969 13.101562 1.578125 13.019531 1.527344 C 13.003906 1.527344 13.003906 1.511719 12.976562 1.511719 C 13.070312 1.457031 13.128906 1.355469 13.132812 1.25 L 13.132812 0.597656 C 13.132812 0.507812 13.101562 0.417969 13.046875 0.347656 C 13.003906 0.292969 12.945312 0.257812 12.878906 0.234375 C 12.8125 0.21875 12.738281 0.207031 12.667969 0.207031 C 12.621094 0.207031 12.574219 0.210938 12.527344 0.222656 C 12.191406 0.261719 11.84375 0.304688 11.507812 0.347656 L 11.421875 0.359375 L 11.421875 2.914062 L 11.535156 2.898438 C 11.683594 2.871094 11.832031 2.855469 11.984375 2.84375 L 12.066406 2.828125 L 12.066406 1.832031 C 12.140625 1.828125 12.21875 1.816406 12.289062 1.804688 L 12.375 1.804688 C 12.410156 1.800781 12.445312 1.808594 12.472656 1.832031 C 12.488281 1.832031 12.488281 1.84375 12.488281 1.886719 L 12.488281 2.773438 L 12.613281 2.761719 C 12.753906 2.746094 12.90625 2.730469 13.046875 2.71875 L 13.144531 2.703125 Z M 13.144531 2.609375 "/>
<path style=" stroke:none;fill-rule:nonzero;fill:rgb(0%,0%,0%);fill-opacity:1;" d="M 14.941406 2.039062 L 14.941406 1.707031 L 14.839844 1.707031 L 14.449219 1.734375 L 14.292969 2.191406 L 14.125 2.191406 L 14.125 0.0703125 L 14.015625 0.0703125 C 13.875 0.0820312 13.707031 0.0976562 13.566406 0.109375 L 13.46875 0.109375 L 13.46875 2.675781 L 13.582031 2.664062 C 14 2.636719 14.433594 2.609375 14.855469 2.59375 L 14.941406 2.59375 Z M 14.941406 2.039062 "/>
<path style=" stroke:none;fill-rule:nonzero;fill:rgb(0%,0%,0%);fill-opacity:1;" d="M 16.339844 1.179688 L 15.90625 1.179688 L 15.90625 0.511719 C 15.90625 0.5 15.90625 0.484375 15.933594 0.457031 C 15.996094 0.425781 16.0625 0.414062 16.128906 0.417969 L 16.339844 0.417969 Z M 16.902344 0 L 15.851562 0 C 15.730469 -0.00390625 15.613281 0.0117188 15.5 0.0546875 C 15.4375 0.0859375 15.378906 0.128906 15.332031 0.179688 C 15.273438 0.257812 15.246094 0.347656 15.246094 0.445312 L 15.246094 2.566406 L 15.359375 2.566406 C 15.5 2.566406 15.65625 2.550781 15.808594 2.550781 L 15.90625 2.550781 L 15.90625 1.59375 L 16.339844 1.59375 L 16.339844 2.539062 L 16.4375 2.539062 C 16.578125 2.539062 16.746094 2.539062 16.886719 2.550781 L 17 2.550781 L 17 0 Z M 16.902344 0 "/>
<path style=" stroke:none;fill-rule:nonzero;fill:rgb(0%,0%,0%);fill-opacity:1;" d="M 22.507812 2.675781 L 22.507812 2.691406 C 22.496094 2.699219 22.480469 2.707031 22.464844 2.703125 C 22.449219 2.707031 22.433594 2.703125 22.421875 2.691406 C 22.355469 2.671875 22.285156 2.664062 22.214844 2.664062 C 22.15625 2.648438 22.113281 2.621094 22.113281 2.59375 C 22.105469 2.585938 22.101562 2.578125 22.101562 2.566406 L 22.101562 0.972656 L 22.199219 0.972656 C 22.253906 0.984375 22.324219 1 22.382812 1.011719 C 22.421875 1.015625 22.460938 1.03125 22.492188 1.054688 C 22.507812 1.066406 22.515625 1.089844 22.507812 1.109375 Z M 23.082031 0.886719 C 23.046875 0.824219 22.992188 0.769531 22.929688 0.734375 C 22.824219 0.667969 22.710938 0.621094 22.589844 0.597656 C 22.421875 0.570312 22.242188 0.527344 22.074219 0.5 C 22.007812 0.488281 21.941406 0.484375 21.875 0.484375 C 21.824219 0.484375 21.773438 0.488281 21.722656 0.5 C 21.652344 0.515625 21.589844 0.546875 21.539062 0.597656 C 21.484375 0.671875 21.457031 0.765625 21.457031 0.859375 L 21.457031 2.539062 C 21.453125 2.625 21.476562 2.714844 21.527344 2.789062 C 21.566406 2.847656 21.621094 2.902344 21.679688 2.941406 C 21.789062 2.992188 21.898438 3.027344 22.015625 3.050781 C 22.199219 3.078125 22.367188 3.105469 22.535156 3.148438 C 22.609375 3.164062 22.683594 3.171875 22.757812 3.175781 C 22.800781 3.179688 22.84375 3.171875 22.886719 3.164062 C 22.957031 3.152344 23.019531 3.117188 23.066406 3.066406 C 23.121094 2.992188 23.144531 2.902344 23.136719 2.816406 L 23.136719 1.136719 C 23.140625 1.050781 23.121094 0.964844 23.082031 0.886719 Z M 23.082031 0.886719 "/>
<path style=" stroke:none;fill-rule:nonzero;fill:rgb(100%,100%,100%);fill-opacity:1;" d="M 12.375 14.769531 L 12.695312 14.617188 L 12.976562 14.855469 L 12.921875 14.507812 L 13.230469 14.328125 L 12.878906 14.257812 L 12.796875 13.910156 L 12.628906 14.230469 L 12.277344 14.1875 L 12.527344 14.453125 Z M 12.375 14.769531 "/>
<path style=" stroke:none;fill-rule:nonzero;fill:rgb(0%,0%,0%);fill-opacity:1;" d="M 23.265625 12.789062 C 23.585938 12.648438 24.175781 12.398438 24.175781 12.398438 L 24.21875 12.386719 L 24.175781 12.371094 C 24.175781 12.371094 23.222656 12.050781 23.027344 11.996094 C 22.984375 11.773438 22.84375 10.75 22.84375 10.75 L 22.828125 10.707031 L 22.480469 11.261719 C 22.480469 11.261719 22.285156 11.582031 22.171875 11.746094 C 21.945312 11.679688 20.964844 11.441406 20.964844 11.441406 L 20.910156 11.414062 L 20.953125 11.46875 C 20.953125 11.46875 21.34375 11.96875 21.582031 12.289062 C 20.453125 12.050781 19.300781 11.941406 18.148438 11.957031 C 17.714844 11.957031 17.265625 11.96875 16.789062 11.996094 C 15.007812 12.097656 13.246094 12.449219 11.5625 13.039062 L 11.757812 12.453125 L 11.714844 12.46875 C 9.082031 13.285156 6.195312 15.742188 4.917969 18.15625 L 4.945312 18.167969 C 6.742188 16.503906 9.195312 15.160156 11.378906 14.671875 L 10.804688 15.992188 L 10.847656 15.976562 C 11.855469 15.492188 13.203125 15.285156 14.546875 15.285156 C 15.933594 15.285156 17.320312 15.507812 18.402344 15.894531 L 17.996094 16.78125 C 17.015625 16.339844 15.597656 16.046875 14.40625 16.046875 C 14.195312 16.046875 14 16.046875 13.804688 16.0625 L 13.804688 16.101562 C 15.207031 16.492188 16.636719 16.933594 17.785156 17.835938 C 17.773438 17.933594 17.769531 18.03125 17.769531 18.128906 C 17.769531 20.5 19.84375 22.664062 22.296875 22.664062 L 22.351562 22.664062 C 25.03125 22.636719 27.035156 20.195312 27.035156 17.640625 C 27.019531 15.785156 25.941406 13.855469 23.265625 12.789062 Z M 23.265625 12.789062 "/>
<path style=" stroke:none;fill-rule:nonzero;fill:rgb(76.078431%,80%,82.352941%);fill-opacity:1;" d="M 21.792969 17.15625 C 20.8125 17.15625 19.800781 16.796875 18.808594 16.433594 C 18.546875 16.972656 18.414062 17.558594 18.414062 18.15625 C 18.410156 18.472656 18.449219 18.789062 18.527344 19.097656 L 18.78125 19.097656 C 20.753906 19.09375 22.691406 18.578125 24.398438 17.601562 C 24.195312 17.253906 23.972656 16.921875 23.726562 16.601562 C 23.148438 16.96875 22.476562 17.160156 21.792969 17.15625 Z M 21.792969 17.15625 "/>
<path style=" stroke:none;fill-rule:nonzero;fill:rgb(76.078431%,80%,82.352941%);fill-opacity:1;" d="M 18.710938 19.457031 L 18.640625 19.457031 C 19.242188 21.011719 20.628906 22.023438 22.3125 22.050781 C 22.859375 20.734375 23.445312 19.304688 24.820312 18.625 C 24.75 18.40625 24.664062 18.167969 24.566406 17.933594 C 22.785156 18.945312 20.765625 19.472656 18.710938 19.457031 Z M 18.710938 19.457031 "/>
<path style=" stroke:none;fill-rule:nonzero;fill:rgb(76.078431%,80%,82.352941%);fill-opacity:1;" d="M 22.871094 14.632812 C 22.546875 14.492188 22.210938 14.390625 21.863281 14.328125 C 21.695312 14.355469 21.457031 14.367188 21.273438 14.394531 C 22.296875 14.796875 23.054688 15.285156 23.796875 16.128906 C 24.1875 15.839844 24.515625 15.476562 24.765625 15.0625 C 24.078125 14.394531 22.773438 13.578125 19.507812 13.328125 C 20.882812 13.648438 22.144531 14.089844 22.886719 14.605469 Z M 22.871094 14.632812 "/>
<path style=" stroke:none;fill-rule:nonzero;fill:rgb(76.078431%,80%,82.352941%);fill-opacity:1;" d="M 13.75 14.175781 L 14.394531 14.175781 C 16.707031 14.175781 20.265625 14.4375 21.652344 16.0625 L 21.625 16.089844 C 21.148438 15.839844 20.195312 15.394531 19.59375 15.394531 L 19.550781 15.394531 C 19.339844 15.617188 19.152344 15.859375 18.988281 16.117188 C 19.914062 16.464844 20.855469 16.796875 21.777344 16.796875 C 22.390625 16.804688 22.996094 16.640625 23.515625 16.324219 C 21.90625 14.589844 19.199219 13.828125 16.636719 13.828125 C 15.664062 13.832031 14.695312 13.949219 13.75 14.175781 Z M 13.75 14.175781 "/>
<path style=" stroke:none;fill-rule:nonzero;fill:rgb(76.078431%,80%,82.352941%);fill-opacity:1;" d="M 24.679688 17.417969 C 25.125 17.136719 25.523438 16.789062 25.871094 16.394531 C 25.644531 15.976562 25.34375 15.601562 24.988281 15.285156 C 24.734375 15.714844 24.402344 16.097656 24.007812 16.40625 C 24.265625 16.722656 24.488281 17.0625 24.679688 17.417969 Z M 24.679688 17.417969 "/>
<path style=" stroke:none;fill-rule:nonzero;fill:rgb(76.078431%,80%,82.352941%);fill-opacity:1;" d="M 22.703125 22.039062 C 23.507812 21.960938 24.269531 21.644531 24.890625 21.136719 C 24.984375 20.78125 25.03125 20.410156 25.03125 20.042969 C 25.03125 19.691406 25 19.34375 24.933594 19 C 23.699219 19.582031 23.195312 20.859375 22.703125 22.039062 Z M 22.703125 22.039062 "/>
<path style=" stroke:none;fill-rule:nonzero;fill:rgb(76.078431%,80%,82.352941%);fill-opacity:1;" d="M 25.378906 20.277344 L 25.378906 20.636719 C 25.839844 20.050781 26.140625 19.359375 26.25 18.625 C 25.902344 18.660156 25.558594 18.730469 25.226562 18.835938 C 25.332031 19.308594 25.382812 19.792969 25.378906 20.277344 Z M 25.378906 20.277344 "/>
<path style=" stroke:none;fill-rule:nonzero;fill:rgb(76.078431%,80%,82.352941%);fill-opacity:1;" d="M 24.863281 17.753906 C 24.960938 17.988281 25.058594 18.238281 25.15625 18.488281 C 25.527344 18.378906 25.90625 18.308594 26.292969 18.28125 L 26.292969 18.195312 C 26.296875 17.714844 26.214844 17.234375 26.039062 16.78125 C 25.683594 17.144531 25.289062 17.472656 24.863281 17.753906 Z M 24.863281 17.753906 "/>
<path style=" stroke:none;fill-rule:nonzero;fill:rgb(76.078431%,80%,82.352941%);fill-opacity:1;" d="M 26.292969 18.28125 C 25.902344 18.308594 25.515625 18.378906 25.140625 18.488281 C 25.058594 18.238281 24.960938 17.992188 24.847656 17.753906 C 25.277344 17.472656 25.675781 17.144531 26.039062 16.78125 C 26.199219 17.238281 26.285156 17.714844 26.292969 18.195312 Z M 26.292969 18.28125 "/>
<path style=" stroke:none;fill-rule:nonzero;fill:rgb(76.078431%,80%,82.352941%);fill-opacity:1;" d="M 24.988281 15.269531 C 25.34375 15.59375 25.640625 15.972656 25.871094 16.394531 C 25.519531 16.78125 25.121094 17.121094 24.679688 17.40625 C 24.480469 17.058594 24.261719 16.726562 24.019531 16.40625 C 24.414062 16.089844 24.742188 15.707031 24.988281 15.269531 Z M 24.988281 15.269531 "/>
<path style=" stroke:none;fill-rule:nonzero;fill:rgb(76.078431%,80%,82.352941%);fill-opacity:1;" d="M 19.523438 13.316406 C 22.773438 13.5625 24.078125 14.394531 24.777344 15.046875 C 24.527344 15.464844 24.199219 15.824219 23.8125 16.117188 C 23.125 15.347656 22.257812 14.757812 21.289062 14.394531 C 21.476562 14.355469 21.667969 14.328125 21.863281 14.3125 C 22.210938 14.390625 22.550781 14.492188 22.886719 14.617188 L 22.898438 14.589844 C 22.15625 14.078125 20.894531 13.632812 19.523438 13.316406 Z M 19.523438 13.316406 "/>
<path style=" stroke:none;fill-rule:nonzero;fill:rgb(76.078431%,80%,82.352941%);fill-opacity:1;" d="M 18.78125 19.097656 L 18.527344 19.097656 C 18.449219 18.785156 18.410156 18.464844 18.414062 18.140625 C 18.414062 17.550781 18.546875 16.96875 18.808594 16.433594 C 19.800781 16.796875 20.796875 17.15625 21.792969 17.15625 C 22.476562 17.15625 23.148438 16.960938 23.726562 16.601562 C 23.984375 16.90625 24.210938 17.238281 24.398438 17.585938 C 22.691406 18.566406 20.753906 19.089844 18.78125 19.097656 Z M 18.78125 19.097656 "/>
<path style=" stroke:none;fill-rule:nonzero;fill:rgb(76.078431%,80%,82.352941%);fill-opacity:1;" d="M 22.3125 22.050781 C 20.628906 22.023438 19.242188 21.011719 18.640625 19.457031 L 18.710938 19.457031 C 20.765625 19.46875 22.785156 18.945312 24.566406 17.933594 C 24.667969 18.160156 24.75 18.390625 24.820312 18.625 C 23.445312 19.304688 22.84375 20.734375 22.3125 22.050781 Z M 22.3125 22.050781 "/>
<path style=" stroke:none;fill-rule:nonzero;fill:rgb(76.078431%,80%,82.352941%);fill-opacity:1;" d="M 25.378906 20.636719 L 25.378906 20.277344 C 25.382812 19.792969 25.332031 19.308594 25.226562 18.835938 C 25.558594 18.730469 25.902344 18.660156 26.25 18.625 C 26.144531 19.359375 25.84375 20.054688 25.378906 20.636719 Z M 25.378906 20.636719 "/>
<path style=" stroke:none;fill-rule:nonzero;fill:rgb(76.078431%,80%,82.352941%);fill-opacity:1;" d="M 23.515625 16.324219 C 23 16.640625 22.402344 16.804688 21.792969 16.796875 C 20.855469 16.796875 19.914062 16.464844 19.003906 16.117188 C 19.160156 15.859375 19.34375 15.617188 19.550781 15.394531 L 19.605469 15.394531 C 20.195312 15.394531 21.160156 15.824219 21.636719 16.089844 L 21.667969 16.0625 C 20.277344 14.4375 16.71875 14.175781 14.40625 14.175781 L 13.75 14.175781 C 14.699219 13.949219 15.671875 13.835938 16.648438 13.839844 C 19.199219 13.839844 21.917969 14.589844 23.515625 16.324219 Z M 23.515625 16.324219 "/>
<path style=" stroke:none;fill-rule:nonzero;fill:rgb(76.078431%,80%,82.352941%);fill-opacity:1;" d="M 24.890625 21.136719 C 24.269531 21.644531 23.507812 21.960938 22.703125 22.039062 C 23.195312 20.859375 23.699219 19.582031 24.917969 19 C 24.988281 19.34375 25.027344 19.691406 25.03125 20.042969 C 25.03125 20.410156 24.984375 20.78125 24.890625 21.136719 Z M 24.890625 21.136719 "/>
<path style=" stroke:none;fill-rule:nonzero;fill:rgb(76.078431%,80%,82.352941%);fill-opacity:1;" d="M 21.667969 13.132812 L 22.382812 12.898438 L 22.914062 13.496094 L 22.859375 12.703125 L 23.542969 12.414062 L 22.789062 12.164062 L 22.675781 11.386719 L 22.285156 12.023438 L 21.527344 11.832031 L 22.03125 12.46875 Z M 21.667969 13.132812 "/>
<path style=" stroke:none;fill-rule:nonzero;fill:rgb(100%,100%,100%);fill-opacity:1;" d="M 17.910156 13.703125 L 18.402344 13.453125 L 18.808594 13.828125 L 18.722656 13.285156 L 19.199219 13.007812 L 18.652344 12.925781 L 18.542969 12.386719 L 18.289062 12.871094 L 17.742188 12.816406 L 18.121094 13.203125 Z M 17.910156 13.703125 "/>
<path style=" stroke:none;fill-rule:nonzero;fill:rgb(100%,100%,100%);fill-opacity:1;" d="M 12.375 14.769531 L 12.695312 14.617188 L 12.964844 14.855469 L 12.921875 14.507812 L 13.230469 14.328125 L 12.867188 14.257812 L 12.796875 13.910156 L 12.628906 14.230469 L 12.277344 14.1875 L 12.515625 14.453125 Z M 12.375 14.769531 "/>
<path style=" stroke:none;fill-rule:nonzero;fill:rgb(4.313725%,46.666667%,74.117647%);fill-opacity:1;" d="M 24.609375 19.609375 L 24.609375 19.554688 L 24.160156 20.304688 L 24.289062 19.640625 L 24.257812 19.625 C 23.585938 20.429688 23.335938 21 23.125 21.707031 L 23.125 21.746094 L 23.152344 21.734375 C 23.621094 21.582031 24.0625 21.351562 24.457031 21.054688 C 24.566406 20.816406 24.609375 20.332031 24.609375 19.734375 Z M 24.609375 19.609375 "/>
<path style=" stroke:none;fill-rule:nonzero;fill:rgb(4.313725%,46.666667%,74.117647%);fill-opacity:1;" d="M 23.097656 17.863281 C 22.316406 18.011719 21.523438 18.09375 20.726562 18.097656 C 20.617188 18.101562 20.503906 18.097656 20.390625 18.085938 L 22.058594 17.585938 L 22.058594 17.558594 C 20.953125 17.503906 20.097656 17.488281 19.019531 16.988281 L 19.003906 16.976562 L 18.988281 16.988281 C 18.820312 17.332031 18.734375 17.707031 18.738281 18.085938 C 18.734375 18.316406 18.769531 18.546875 18.835938 18.765625 L 18.960938 18.765625 C 19.4375 18.765625 21.429688 18.722656 23.097656 17.890625 Z M 23.097656 17.863281 "/>
<path style=" stroke:none;fill-rule:nonzero;fill:rgb(4.313725%,46.666667%,74.117647%);fill-opacity:1;" d="M 23.460938 19.210938 C 22.621094 19.832031 21.976562 20.332031 20.742188 20.554688 C 21.890625 19.972656 22.660156 19.554688 23.390625 18.820312 L 23.363281 18.792969 C 22.074219 19.542969 20.390625 19.859375 19.214844 19.902344 L 19.171875 19.902344 L 19.199219 19.929688 C 20.167969 21.457031 21.398438 21.59375 21.808594 21.59375 L 21.945312 21.59375 L 21.945312 21.582031 C 22.480469 20.761719 22.816406 19.972656 23.488281 19.222656 Z M 23.460938 19.210938 "/>
<path style=" stroke:none;fill-rule:evenodd;fill:rgb(100%,100%,100%);fill-opacity:1;" d="M 22.589844 14.117188 C 22.535156 14.078125 22.476562 14.050781 22.410156 14.035156 C 23.40625 14.328125 24.078125 14.703125 24.457031 14.992188 C 24.398438 15.078125 24.332031 15.15625 24.257812 15.230469 C 23.78125 14.753906 23.214844 14.375 22.589844 14.117188 Z M 25.660156 19.652344 L 25.660156 19.582031 C 25.722656 19.324219 25.753906 19.058594 25.757812 18.792969 C 25.828125 18.765625 25.90625 18.75 25.984375 18.75 C 25.90625 19.0625 25.796875 19.363281 25.660156 19.652344 Z M 26.082031 17.917969 C 25.957031 17.929688 25.835938 17.949219 25.714844 17.976562 C 25.691406 17.78125 25.648438 17.59375 25.589844 17.40625 C 25.730469 17.308594 25.855469 17.199219 25.96875 17.074219 C 26.050781 17.347656 26.085938 17.632812 26.082031 17.917969 Z M 25.648438 16.296875 C 25.519531 16.40625 25.421875 16.519531 25.308594 16.617188 C 25.199219 16.355469 25.058594 16.109375 24.890625 15.878906 C 24.972656 15.769531 25.058594 15.671875 25.128906 15.5625 C 25.332031 15.785156 25.507812 16.03125 25.648438 16.296875 Z M 25.648438 16.296875 "/>
</g>
</svg>
