<?xml version="1.0" encoding="UTF-8"?>
<svg xmlns="http://www.w3.org/2000/svg" xmlns:xlink="http://www.w3.org/1999/xlink" width="32px" height="32px" viewBox="0 0 32 32" version="1.1">
<g id="surface1">
<path style=" stroke:none;fill-rule:nonzero;fill:rgb(100%,100%,100%);fill-opacity:1;" d="M 31.988281 15.992188 C 31.988281 24.828125 24.828125 31.988281 15.992188 31.988281 C 7.160156 31.988281 0 24.828125 0 15.992188 C 0 7.160156 7.160156 0 15.992188 0 C 24.828125 0 31.988281 7.160156 31.988281 15.992188 "/>
<path style=" stroke:none;fill-rule:nonzero;fill:rgb(11.372549%,25.882353%,54.117647%);fill-opacity:1;" d="M 31.398438 15.992188 C 31.398438 24.503906 24.503906 31.398438 15.992188 31.398438 C 7.484375 31.398438 0.589844 24.503906 0.589844 15.992188 C 0.589844 7.484375 7.484375 0.589844 15.992188 0.589844 C 24.5 0.589844 31.398438 7.484375 31.398438 15.992188 "/>
<path style=" stroke:none;fill-rule:nonzero;fill:rgb(100%,100%,100%);fill-opacity:1;" d="M 2.964844 18.621094 L 3.28125 19.625 L 4.347656 19.625 L 3.488281 20.253906 L 3.796875 21.242188 L 2.964844 20.636719 L 2.121094 21.242188 L 2.4375 20.253906 L 1.570312 19.625 L 2.636719 19.625 Z M 2.964844 18.621094 "/>
<path style=" stroke:none;fill-rule:nonzero;fill:rgb(100%,100%,100%);fill-opacity:1;" d="M 29.027344 18.621094 L 29.34375 19.625 L 30.417969 19.625 L 29.550781 20.253906 L 29.867188 21.242188 L 29.027344 20.636719 L 28.1875 21.242188 L 28.507812 20.253906 L 27.640625 19.625 L 28.699219 19.625 Z M 29.027344 18.621094 "/>
<path style=" stroke:none;fill-rule:nonzero;fill:rgb(100%,100%,100%);fill-opacity:1;" d="M 6.707031 24.007812 L 7.023438 25.007812 L 8.089844 25.007812 L 7.226562 25.640625 L 7.542969 26.628906 L 6.707031 26.023438 L 5.863281 26.628906 L 6.179688 25.640625 L 5.316406 25.007812 L 6.382812 25.007812 Z M 6.707031 24.007812 "/>
<path style=" stroke:none;fill-rule:nonzero;fill:rgb(100%,100%,100%);fill-opacity:1;" d="M 25.632812 24.007812 L 25.953125 25.007812 L 27.015625 25.007812 L 26.15625 25.640625 L 26.472656 26.628906 L 25.632812 26.023438 L 24.789062 26.628906 L 25.113281 25.640625 L 24.246094 25.007812 L 25.308594 25.007812 Z M 25.632812 24.007812 "/>
<path style=" stroke:none;fill-rule:nonzero;fill:rgb(100%,100%,100%);fill-opacity:1;" d="M 12.546875 27.511719 L 12.855469 28.515625 L 13.929688 28.515625 L 13.0625 29.144531 L 13.378906 30.132812 L 12.546875 29.527344 L 11.699219 30.132812 L 12.019531 29.144531 L 11.152344 28.515625 L 12.21875 28.515625 Z M 12.546875 27.511719 "/>
<path style=" stroke:none;fill-rule:nonzero;fill:rgb(100%,100%,100%);fill-opacity:1;" d="M 19.636719 27.511719 L 19.953125 28.515625 L 21.019531 28.515625 L 20.152344 29.144531 L 20.46875 30.132812 L 19.636719 29.527344 L 18.792969 30.132812 L 19.109375 29.144531 L 18.242188 28.515625 L 19.308594 28.515625 Z M 19.636719 27.511719 "/>
<path style=" stroke:none;fill-rule:nonzero;fill:rgb(100%,100%,100%);fill-opacity:1;" d="M 27.546875 16.066406 C 27.546875 22.445312 22.375 27.617188 15.992188 27.617188 C 9.613281 27.617188 4.441406 22.445312 4.441406 16.066406 C 4.441406 9.6875 9.613281 4.515625 15.992188 4.515625 C 22.375 4.515625 27.546875 9.6875 27.546875 16.066406 "/>
<path style=" stroke:none;fill-rule:nonzero;fill:rgb(11.372549%,25.882353%,54.117647%);fill-opacity:1;" d="M 5.132812 18.335938 C 6.386719 24.335938 12.265625 28.179688 18.265625 26.929688 C 21.15625 26.347656 23.6875 24.621094 25.277344 22.140625 C 26.871094 19.671875 27.4375 16.675781 26.855469 13.792969 C 25.597656 7.800781 19.726562 3.953125 13.726562 5.199219 C 7.726562 6.449219 3.875 12.335938 5.132812 18.335938 "/>
<path style=" stroke:none;fill-rule:nonzero;fill:rgb(100%,100%,100%);fill-opacity:1;" d="M 19.769531 7.417969 C 19.808594 7.851562 19.605469 8.273438 19.171875 8.675781 C 17.089844 7.148438 15.105469 6.398438 13.160156 6.386719 C 12.753906 6.386719 12.347656 6.417969 11.945312 6.480469 C 12.566406 6.21875 13.207031 6.019531 13.867188 5.882812 C 15.578125 5.523438 17.347656 5.601562 19.019531 6.109375 C 19.382812 6.457031 19.730469 6.914062 19.769531 7.417969 "/>
<path style=" stroke:none;fill-rule:nonzero;fill:rgb(100%,100%,100%);fill-opacity:1;" d="M 17.597656 25.347656 C 19.785156 23.335938 20.804688 19.03125 21.410156 16.460938 L 21.503906 16.0625 C 21.8125 14.75 22.363281 13.773438 22.957031 13.1875 C 25.152344 16.597656 24.855469 20.121094 24.300781 22.332031 C 22.332031 24.9375 19.253906 26.46875 15.988281 26.472656 C 16.574219 26.171875 17.117188 25.792969 17.597656 25.347656 "/>
<path style=" stroke:none;fill-rule:nonzero;fill:rgb(100%,100%,100%);fill-opacity:1;" d="M 21.574219 10.742188 C 22.464844 9.996094 23.175781 9.429688 23.679688 9.058594 C 24.78125 10.261719 25.582031 11.707031 26.019531 13.277344 C 25.605469 12.726562 25.085938 12.207031 24.519531 12.089844 C 24.03125 11.988281 23.53125 12.128906 23.058594 12.460938 C 22.609375 11.847656 22.113281 11.273438 21.574219 10.742188 "/>
<path style=" stroke:none;fill-rule:nonzero;fill:rgb(100%,100%,100%);fill-opacity:1;" d="M 5.792969 15.601562 C 6.804688 12.890625 10.507812 11.777344 11.902344 11.363281 L 11.960938 11.34375 C 12.582031 11.183594 13.207031 11.058594 13.839844 10.96875 C 15.632812 10.664062 17.847656 10.285156 19.1875 9.285156 C 19.769531 9.730469 20.328125 10.207031 20.859375 10.710938 C 17.832031 13.285156 13.152344 17.605469 8.15625 22.90625 C 6.980469 21.566406 6.175781 19.941406 5.816406 18.191406 C 5.667969 17.496094 5.59375 16.785156 5.59375 16.070312 C 5.707031 15.792969 5.792969 15.601562 5.792969 15.601562 "/>
<path style=" stroke:none;fill-rule:nonzero;fill:rgb(100%,100%,100%);fill-opacity:1;" d="M 21.226562 10.402344 C 20.695312 9.894531 20.140625 9.417969 19.558594 8.96875 C 20.066406 8.472656 20.296875 7.941406 20.246094 7.375 C 20.214844 7.035156 20.09375 6.710938 19.902344 6.429688 C 21.1875 6.957031 22.355469 7.730469 23.339844 8.707031 C 22.820312 9.097656 22.101562 9.667969 21.226562 10.402344 "/>
<path style=" stroke:none;fill-rule:nonzero;fill:rgb(100%,100%,100%);fill-opacity:1;" d="M 18.78125 8.984375 C 17.527344 9.851562 15.449219 10.207031 13.757812 10.492188 C 13.105469 10.585938 12.460938 10.714844 11.824219 10.878906 L 11.761719 10.894531 C 10.421875 11.296875 7.058594 12.300781 5.671875 14.726562 C 5.871094 13.171875 6.425781 11.679688 7.285156 10.367188 C 8.027344 9.230469 8.972656 8.242188 10.074219 7.453125 C 12.539062 6.414062 15.304688 6.488281 18.78125 8.984375 "/>
<path style=" stroke:none;fill-rule:nonzero;fill:rgb(100%,100%,100%);fill-opacity:1;" d="M 24.417969 12.5625 C 25.144531 12.710938 25.921875 13.933594 26.296875 14.632812 C 26.621094 16.90625 26.175781 19.21875 25.035156 21.207031 C 25.089844 20.859375 25.136719 20.488281 25.167969 20.097656 C 25.375 17.550781 24.726562 15.007812 23.328125 12.867188 C 23.707031 12.601562 24.085938 12.496094 24.417969 12.5625 "/>
<path style=" stroke:none;fill-rule:nonzero;fill:rgb(100%,100%,100%);fill-opacity:1;" d="M 21.207031 11.050781 C 21.75 11.582031 22.242188 12.15625 22.679688 12.773438 C 21.96875 13.449219 21.363281 14.570312 21.035156 15.949219 L 20.941406 16.355469 C 20.347656 18.875 19.355469 23.089844 17.277344 24.996094 C 16.582031 25.652344 15.742188 26.140625 14.828125 26.414062 C 13.210938 26.230469 11.65625 25.667969 10.296875 24.773438 C 9.636719 24.339844 9.027344 23.835938 8.480469 23.269531 C 13.523438 17.90625 18.222656 13.589844 21.207031 11.050781 "/>
<path style=" stroke:none;fill-rule:nonzero;fill:rgb(100%,100%,100%);fill-opacity:1;" d="M 18.863281 19.152344 L 19.148438 19.074219 C 19.320312 19.03125 19.429688 18.976562 19.429688 18.726562 C 19.429688 18.519531 19.375 18.148438 19.125 18.148438 C 18.863281 18.148438 18.863281 18.59375 18.863281 18.832031 Z M 18.863281 19.152344 "/>
<path style=" stroke:none;fill-rule:nonzero;fill:rgb(100%,100%,100%);fill-opacity:1;" d="M 15.484375 19 C 15.484375 18.109375 15.449219 17.34375 14.851562 17.34375 C 14.359375 17.34375 14.273438 18.109375 14.273438 19 C 14.273438 19.886719 14.246094 20.660156 14.851562 20.660156 C 15.355469 20.652344 15.484375 19.886719 15.484375 19 "/>
<path style=" stroke:none;fill-rule:nonzero;fill:rgb(100%,100%,100%);fill-opacity:1;" d="M 18.863281 19.152344 L 19.148438 19.074219 C 19.320312 19.03125 19.429688 18.976562 19.429688 18.726562 C 19.429688 18.519531 19.375 18.148438 19.125 18.148438 C 18.863281 18.148438 18.863281 18.59375 18.863281 18.832031 Z M 18.863281 19.152344 "/>
<path style=" stroke:none;fill-rule:nonzero;fill:rgb(100%,100%,100%);fill-opacity:1;" d="M 14.199219 16.960938 L 14.210938 16.960938 C 14.5 16.511719 15.050781 16.292969 15.589844 16.292969 C 16.808594 16.292969 17.558594 17.347656 17.558594 18.765625 C 17.558594 20.441406 16.421875 21.441406 15.015625 21.441406 C 12.855469 21.441406 12.066406 19.699219 12.066406 17.675781 C 12.066406 15.351562 13.078125 13.429688 15.59375 13.429688 C 16.578125 13.429688 17.382812 14.0625 17.382812 15.027344 C 17.390625 15.28125 17.292969 15.523438 17.113281 15.703125 C 16.929688 15.878906 16.683594 15.972656 16.433594 15.960938 C 15.753906 15.960938 15.539062 15.394531 15.4375 14.894531 C 15.398438 14.683594 15.476562 14.21875 15.128906 14.21875 C 14.394531 14.21875 14.277344 15.648438 14.246094 16.175781 Z M 14.199219 16.960938 "/>
<path style=" stroke:none;fill-rule:nonzero;fill:rgb(100%,100%,100%);fill-opacity:1;" d="M 15.484375 19 C 15.484375 18.109375 15.449219 17.34375 14.851562 17.34375 C 14.359375 17.34375 14.273438 18.109375 14.273438 19 C 14.273438 19.886719 14.246094 20.660156 14.851562 20.660156 C 15.355469 20.652344 15.484375 19.886719 15.484375 19 "/>
<path style=" stroke:none;fill-rule:nonzero;fill:rgb(100%,100%,100%);fill-opacity:1;" d="M 2.382812 13.515625 C 2.792969 13.566406 2.960938 13.855469 2.898438 14.390625 L 2.855469 14.777344 L 3.078125 14.804688 C 3.359375 14.839844 3.464844 14.832031 3.5 14.605469 L 3.757812 14.640625 L 3.636719 15.695312 L 3.375 15.660156 C 3.398438 15.425781 3.292969 15.398438 3.011719 15.367188 L 2.1875 15.273438 C 1.90625 15.238281 1.800781 15.246094 1.765625 15.472656 L 1.503906 15.4375 L 1.644531 14.285156 C 1.710938 13.71875 1.960938 13.46875 2.382812 13.515625 Z M 2.605469 14.640625 C 2.644531 14.289062 2.542969 14.101562 2.292969 14.074219 C 2.078125 14.042969 1.921875 14.183594 1.886719 14.445312 C 1.867188 14.628906 1.933594 14.667969 2.132812 14.6875 L 2.589844 14.746094 C 2.59375 14.710938 2.597656 14.679688 2.605469 14.640625 Z M 2.605469 14.640625 "/>
<path style=" stroke:none;fill-rule:nonzero;fill:rgb(100%,100%,100%);fill-opacity:1;" d="M 3.925781 12.351562 C 4.007812 12.132812 3.921875 12.078125 3.660156 11.96875 L 2.898438 11.652344 C 2.636719 11.539062 2.53125 11.519531 2.4375 11.730469 L 2.195312 11.628906 L 2.605469 10.652344 L 2.84375 10.75 C 2.761719 10.96875 2.847656 11.023438 3.109375 11.132812 L 3.304688 11.21875 L 3.609375 10.484375 L 3.414062 10.402344 C 3.15625 10.289062 3.050781 10.269531 2.953125 10.480469 L 2.714844 10.378906 L 3.125 9.402344 L 3.371094 9.5 C 3.289062 9.71875 3.375 9.773438 3.636719 9.886719 L 4.398438 10.203125 C 4.660156 10.3125 4.765625 10.335938 4.859375 10.125 L 5.105469 10.222656 L 4.691406 11.203125 L 4.453125 11.101562 C 4.539062 10.882812 4.449219 10.828125 4.1875 10.71875 L 3.855469 10.578125 L 3.546875 11.3125 L 3.882812 11.453125 C 4.144531 11.5625 4.25 11.585938 4.34375 11.375 L 4.582031 11.472656 L 4.171875 12.449219 Z M 3.925781 12.351562 "/>
<path style=" stroke:none;fill-rule:nonzero;fill:rgb(100%,100%,100%);fill-opacity:1;" d="M 4.949219 7.160156 C 4.816406 7.347656 4.886719 7.425781 5.113281 7.597656 L 5.777344 8.089844 C 6.003906 8.261719 6.097656 8.308594 6.242188 8.128906 L 6.453125 8.285156 L 5.820312 9.128906 L 5.609375 8.972656 C 5.742188 8.785156 5.671875 8.707031 5.4375 8.535156 L 4.777344 8.042969 C 4.546875 7.871094 4.453125 7.820312 4.308594 8.003906 L 4.097656 7.847656 L 4.730469 7.003906 Z M 4.949219 7.160156 "/>
<path style=" stroke:none;fill-rule:nonzero;fill:rgb(100%,100%,100%);fill-opacity:1;" d="M 7.335938 7.28125 L 7.167969 7.082031 C 7.339844 6.925781 7.285156 6.835938 7.101562 6.621094 L 6.570312 5.988281 C 6.386719 5.769531 6.308594 5.699219 6.125 5.84375 L 5.957031 5.640625 L 6.769531 4.964844 L 6.9375 5.164062 C 6.765625 5.320312 6.8125 5.410156 6.996094 5.632812 L 7.589844 6.335938 C 7.730469 6.496094 7.792969 6.523438 7.957031 6.386719 C 8.179688 6.199219 8.273438 5.863281 8.195312 5.441406 L 8.429688 5.390625 L 8.667969 6.167969 Z M 7.335938 7.28125 "/>
<path style=" stroke:none;fill-rule:nonzero;fill:rgb(100%,100%,100%);fill-opacity:1;" d="M 9.851562 5.34375 L 9.742188 5.105469 C 9.941406 4.980469 9.929688 4.847656 9.925781 4.613281 L 9.867188 2.976562 L 10.3125 2.777344 L 11.535156 3.972656 C 11.671875 4.105469 11.75 4.171875 11.929688 4.109375 L 12.039062 4.347656 L 11.074219 4.785156 L 10.96875 4.554688 C 10.976562 4.550781 10.984375 4.546875 10.992188 4.542969 C 11.125 4.480469 11.171875 4.425781 11.132812 4.34375 C 11.121094 4.3125 11.101562 4.289062 11.078125 4.265625 L 10.855469 4.042969 L 10.234375 4.324219 L 10.273438 4.632812 C 10.277344 4.65625 10.28125 4.675781 10.289062 4.699219 C 10.335938 4.792969 10.421875 4.796875 10.574219 4.730469 L 10.679688 4.964844 Z M 10.640625 3.847656 L 10.183594 3.359375 L 10.222656 4.042969 Z M 10.640625 3.847656 "/>
<path style=" stroke:none;fill-rule:nonzero;fill:rgb(100%,100%,100%);fill-opacity:1;" d="M 13.117188 3.757812 C 13.34375 3.722656 13.351562 3.617188 13.3125 3.332031 L 13.195312 2.515625 C 13.15625 2.234375 13.121094 2.132812 12.890625 2.160156 L 12.851562 1.898438 L 13.917969 1.75 C 14.738281 1.632812 15.226562 1.953125 15.328125 2.632812 C 15.421875 3.316406 15.042969 3.753906 14.222656 3.875 L 13.15625 4.027344 Z M 13.882812 3.382812 C 13.910156 3.59375 13.949219 3.648438 14.171875 3.617188 C 14.59375 3.554688 14.828125 3.222656 14.75 2.710938 C 14.679688 2.199219 14.367188 1.945312 13.9375 2.003906 C 13.71875 2.039062 13.699219 2.097656 13.726562 2.308594 Z M 13.882812 3.382812 "/>
<path style=" stroke:none;fill-rule:nonzero;fill:rgb(100%,100%,100%);fill-opacity:1;" d="M 16.84375 3.449219 C 17.070312 3.476562 17.109375 3.375 17.148438 3.09375 L 17.265625 2.277344 C 17.304688 1.992188 17.304688 1.886719 17.078125 1.847656 L 17.117188 1.589844 L 18.875 1.84375 L 19.070312 2.527344 L 18.859375 2.597656 C 18.6875 2.242188 18.441406 2.039062 18.117188 1.992188 C 17.902344 1.960938 17.867188 2.019531 17.835938 2.226562 L 17.792969 2.53125 L 17.894531 2.550781 C 18.117188 2.582031 18.183594 2.519531 18.230469 2.261719 L 18.453125 2.292969 L 18.316406 3.25 L 18.09375 3.214844 C 18.097656 2.964844 18.027344 2.835938 17.855469 2.816406 L 17.753906 2.800781 L 17.683594 3.292969 C 17.65625 3.5 17.671875 3.566406 17.886719 3.59375 C 18.199219 3.636719 18.566406 3.488281 18.855469 3.144531 L 19.039062 3.28125 L 18.609375 3.964844 L 16.804688 3.699219 Z M 16.84375 3.449219 "/>
<path style=" stroke:none;fill-rule:nonzero;fill:rgb(100%,100%,100%);fill-opacity:1;" d="M 20.164062 4.386719 L 20.269531 4.148438 C 20.488281 4.238281 20.542969 4.148438 20.660156 3.882812 L 20.992188 3.125 C 21.109375 2.867188 21.136719 2.765625 20.925781 2.664062 L 21.03125 2.425781 L 21.996094 2.847656 L 21.890625 3.085938 C 21.675781 3 21.621094 3.085938 21.503906 3.347656 L 21.128906 4.191406 C 21.046875 4.386719 21.054688 4.453125 21.253906 4.542969 C 21.519531 4.660156 21.863281 4.597656 22.203125 4.335938 L 22.351562 4.519531 L 21.765625 5.082031 Z M 20.164062 4.386719 "/>
<path style=" stroke:none;fill-rule:nonzero;fill:rgb(100%,100%,100%);fill-opacity:1;" d="M 25.601562 5.957031 C 25.339844 6.28125 25.007812 6.269531 24.585938 5.929688 L 24.28125 5.6875 L 24.140625 5.859375 C 23.964844 6.082031 23.90625 6.175781 24.085938 6.324219 L 23.917969 6.53125 L 23.097656 5.863281 L 23.261719 5.660156 C 23.445312 5.796875 23.53125 5.730469 23.707031 5.507812 L 24.222656 4.863281 C 24.402344 4.644531 24.453125 4.546875 24.28125 4.398438 L 24.445312 4.191406 L 25.351562 4.925781 C 25.789062 5.277344 25.867188 5.625 25.601562 5.957031 Z M 24.53125 5.542969 C 24.800781 5.765625 25.019531 5.777344 25.171875 5.582031 C 25.3125 5.410156 25.277344 5.210938 25.074219 5.042969 C 24.929688 4.925781 24.863281 4.960938 24.734375 5.113281 L 24.445312 5.46875 C 24.480469 5.496094 24.507812 5.519531 24.53125 5.542969 Z M 24.53125 5.542969 "/>
<path style=" stroke:none;fill-rule:nonzero;fill:rgb(100%,100%,100%);fill-opacity:1;" d="M 25.761719 7.886719 C 25.902344 8.074219 25.996094 8.03125 26.230469 7.863281 L 26.90625 7.390625 C 27.140625 7.230469 27.21875 7.152344 27.089844 6.957031 L 27.304688 6.808594 L 27.910156 7.675781 L 27.699219 7.824219 C 27.5625 7.636719 27.46875 7.679688 27.234375 7.847656 L 27.0625 7.96875 L 27.515625 8.617188 L 27.691406 8.496094 C 27.921875 8.335938 28 8.257812 27.871094 8.0625 L 28.082031 7.914062 L 28.6875 8.78125 L 28.472656 8.929688 C 28.332031 8.742188 28.238281 8.785156 28.007812 8.953125 L 27.328125 9.425781 C 27.09375 9.585938 27.015625 9.664062 27.144531 9.855469 L 26.929688 10.007812 L 26.324219 9.140625 L 26.535156 8.992188 C 26.671875 9.179688 26.769531 9.136719 27 8.96875 L 27.296875 8.761719 L 26.839844 8.113281 L 26.546875 8.320312 C 26.3125 8.480469 26.234375 8.558594 26.363281 8.753906 L 26.152344 8.902344 L 25.546875 8.035156 Z M 25.761719 7.886719 "/>
<path style=" stroke:none;fill-rule:nonzero;fill:rgb(100%,100%,100%);fill-opacity:1;" d="M 29.609375 11.523438 C 29.523438 11.308594 29.417969 11.328125 29.148438 11.429688 L 28.378906 11.722656 C 28.113281 11.824219 28.023438 11.878906 28.09375 12.101562 L 27.851562 12.195312 L 27.472656 11.207031 L 27.71875 11.113281 C 27.804688 11.328125 27.910156 11.300781 28.179688 11.203125 L 28.949219 10.90625 C 29.214844 10.808594 29.3125 10.75 29.234375 10.535156 L 29.476562 10.441406 L 29.855469 11.429688 Z M 29.609375 11.523438 "/>
<path style=" stroke:none;fill-rule:nonzero;fill:rgb(100%,100%,100%);fill-opacity:1;" d="M 28.226562 13.355469 L 28.488281 13.324219 C 28.542969 13.550781 28.679688 13.578125 28.898438 13.640625 L 30.484375 14.066406 L 30.542969 14.550781 L 29.042969 15.367188 C 28.871094 15.460938 28.789062 15.511719 28.792969 15.707031 L 28.535156 15.738281 L 28.394531 14.6875 L 28.648438 14.65625 L 28.648438 14.679688 C 28.667969 14.820312 28.710938 14.890625 28.800781 14.878906 C 28.832031 14.871094 28.863281 14.859375 28.894531 14.84375 L 29.171875 14.695312 L 29.082031 14.015625 L 28.777344 13.960938 C 28.753906 13.957031 28.730469 13.953125 28.707031 13.957031 C 28.605469 13.96875 28.574219 14.054688 28.589844 14.21875 L 28.332031 14.25 Z M 29.425781 14.542969 L 30.027344 14.25 L 29.367188 14.089844 Z M 29.425781 14.542969 "/>
<path style=" stroke:none;fill-rule:nonzero;fill:rgb(100%,100%,100%);fill-opacity:1;" d="M 22.484375 17.414062 C 22.273438 17.414062 22.070312 17.507812 21.929688 17.671875 C 21.914062 17.636719 21.902344 17.605469 21.886719 17.578125 L 21.769531 17.347656 L 20.109375 17.835938 L 20.109375 18.75 L 20.414062 18.75 C 20.441406 18.75 20.457031 18.753906 20.464844 18.75 C 20.503906 18.875 20.515625 19.007812 20.503906 19.136719 L 20.503906 20.191406 L 20.199219 20.238281 L 20.199219 21.238281 L 22.496094 21.238281 L 22.496094 20.238281 L 22.195312 20.191406 L 22.195312 19.882812 C 22.203125 19.640625 22.230469 19.402344 22.28125 19.164062 C 22.378906 19.195312 22.480469 19.210938 22.582031 19.210938 C 22.992188 19.210938 23.28125 18.835938 23.28125 18.308594 C 23.285156 17.777344 22.964844 17.414062 22.484375 17.414062 Z M 22.484375 17.414062 "/>
<path style=" stroke:none;fill-rule:nonzero;fill:rgb(100%,100%,100%);fill-opacity:1;" d="M 25.367188 18.476562 C 25.351562 18.429688 25.34375 18.382812 25.339844 18.332031 C 25.339844 18.058594 25.230469 17.425781 24.222656 17.425781 C 23.667969 17.425781 22.574219 17.855469 22.574219 18.847656 C 22.566406 19.148438 22.660156 19.441406 22.839844 19.679688 C 22.609375 19.832031 22.472656 20.09375 22.484375 20.371094 C 22.484375 20.726562 22.664062 21.324219 23.867188 21.324219 C 24.902344 21.324219 25.492188 20.792969 25.492188 19.859375 C 25.496094 18.96875 25.417969 18.675781 25.367188 18.476562 Z M 25.367188 18.476562 "/>
<path style=" stroke:none;fill-rule:nonzero;fill:rgb(100%,100%,100%);fill-opacity:1;" d="M 13.21875 13.132812 C 13.15625 13.0625 13.0625 13.019531 12.96875 13.015625 C 12.816406 13.015625 12.695312 13.113281 12.550781 13.265625 C 12.050781 13.789062 11.355469 14.078125 10.636719 14.0625 C 9.636719 14.0625 8.578125 13.601562 7.742188 12.800781 C 7.675781 12.734375 7.589844 12.699219 7.496094 12.699219 C 7.085938 12.699219 6.980469 13.355469 6.980469 13.367188 L 6.980469 16.660156 L 7.242188 16.699219 C 8.117188 16.851562 9.011719 16.816406 9.875 16.605469 C 9.03125 17.359375 7.128906 19.414062 7.160156 21.371094 C 7.164062 21.730469 7.386719 21.769531 7.480469 21.769531 C 7.574219 21.769531 7.664062 21.730469 7.730469 21.664062 C 7.746094 21.652344 7.765625 21.636719 7.78125 21.625 C 8.140625 21.398438 8.5625 21.289062 8.984375 21.308594 C 9.371094 21.304688 9.75 21.378906 10.101562 21.535156 C 10.164062 21.570312 10.234375 21.589844 10.308594 21.589844 C 10.398438 21.59375 10.488281 21.554688 10.550781 21.484375 C 10.632812 21.386719 10.660156 21.253906 10.636719 21.128906 C 10.496094 19.710938 10.808594 18.160156 11.414062 17.265625 L 11.5 17.132812 C 12.019531 16.371094 13.089844 14.785156 13.289062 13.472656 C 13.316406 13.355469 13.292969 13.230469 13.21875 13.132812 Z M 13.21875 13.132812 "/>
<path style=" stroke:none;fill-rule:nonzero;fill:rgb(100%,100%,100%);fill-opacity:1;" d="M 20.863281 19.425781 L 20.847656 19.175781 C 20.839844 19.019531 20.816406 18.863281 20.777344 18.710938 L 20.765625 18.421875 L 20.707031 18.503906 C 20.496094 17.847656 19.882812 17.410156 19.191406 17.414062 C 18.125 17.414062 17.382812 18.257812 17.382812 19.464844 C 17.382812 20.390625 17.925781 21.324219 19.132812 21.324219 C 19.808594 21.335938 20.4375 20.988281 20.792969 20.414062 L 20.835938 20.335938 L 20.804688 19.441406 Z M 19.570312 20.003906 C 19.464844 20 19.371094 19.9375 19.324219 19.84375 L 19.914062 19.679688 C 19.824219 19.8125 19.707031 19.921875 19.570312 20.003906 Z M 19.570312 20.003906 "/>
<path style=" stroke:none;fill-rule:nonzero;fill:rgb(100%,100%,100%);fill-opacity:1;" d="M 16.894531 16.511719 C 16.832031 16.425781 16.765625 16.328125 16.710938 16.242188 C 17.292969 16.140625 17.714844 15.625 17.691406 15.03125 C 17.691406 13.945312 16.792969 13.128906 15.601562 13.128906 C 13.199219 13.128906 11.761719 14.832031 11.761719 17.683594 C 11.761719 20.269531 12.949219 21.753906 15.015625 21.753906 C 16.695312 21.753906 17.867188 20.527344 17.867188 18.769531 C 17.871094 17.894531 17.28125 17.058594 16.894531 16.511719 Z M 16.894531 16.511719 "/>
<path style=" stroke:none;fill-rule:nonzero;fill:rgb(11.372549%,25.882353%,54.117647%);fill-opacity:1;" d="M 19.574219 20.316406 C 19.203125 20.316406 18.980469 19.976562 18.949219 19.632812 L 20.546875 19.199219 C 20.503906 18.414062 20.046875 17.726562 19.199219 17.726562 C 18.292969 17.726562 17.691406 18.433594 17.691406 19.46875 C 17.691406 20.28125 18.160156 21.019531 19.136719 21.019531 C 19.703125 21.03125 20.234375 20.742188 20.53125 20.257812 L 20.214844 19.882812 C 20.066406 20.125 19.882812 20.316406 19.574219 20.316406 Z M 18.871094 18.835938 C 18.871094 18.597656 18.871094 18.152344 19.132812 18.152344 C 19.375 18.152344 19.4375 18.527344 19.4375 18.730469 C 19.449219 18.816406 19.421875 18.902344 19.371094 18.96875 C 19.316406 19.035156 19.238281 19.074219 19.152344 19.082031 L 18.871094 19.160156 Z M 18.871094 18.835938 "/>
<path style=" stroke:none;fill-rule:nonzero;fill:rgb(11.372549%,25.882353%,54.117647%);fill-opacity:1;" d="M 22.203125 20.929688 L 20.515625 20.929688 L 20.515625 20.503906 L 20.820312 20.457031 L 20.820312 19.136719 C 20.820312 18.664062 20.757812 18.4375 20.421875 18.4375 L 20.421875 18.066406 L 21.621094 17.714844 C 21.746094 17.988281 21.8125 18.285156 21.820312 18.585938 L 21.832031 18.585938 C 21.953125 18.226562 22.101562 17.722656 22.492188 17.722656 C 22.835938 17.722656 22.984375 17.988281 22.984375 18.308594 C 22.984375 18.636719 22.839844 18.902344 22.589844 18.902344 C 22.453125 18.894531 22.316406 18.859375 22.191406 18.804688 C 21.976562 18.730469 21.902344 19.679688 21.902344 19.882812 L 21.902344 20.457031 L 22.203125 20.503906 Z M 22.203125 20.929688 "/>
<path style=" stroke:none;fill-rule:nonzero;fill:rgb(11.372549%,25.882353%,54.117647%);fill-opacity:1;" d="M 25.039062 18.335938 C 25.039062 18.597656 24.8125 18.730469 24.574219 18.730469 C 24.289062 18.714844 24.058594 18.5 24.023438 18.214844 C 23.902344 18.214844 23.8125 18.277344 23.8125 18.488281 C 23.8125 18.976562 25.195312 18.625 25.195312 19.863281 C 25.195312 20.792969 24.523438 21.023438 23.878906 21.023438 C 23.484375 21.023438 22.800781 20.976562 22.800781 20.375 C 22.800781 20.101562 22.953125 19.898438 23.222656 19.898438 C 23.640625 19.898438 23.714844 20.28125 23.785156 20.554688 C 23.804688 20.609375 23.863281 20.648438 23.925781 20.636719 C 24.144531 20.636719 24.308594 20.546875 24.308594 20.398438 C 24.308594 19.84375 22.890625 20.058594 22.890625 18.847656 C 22.890625 18.082031 23.796875 17.738281 24.234375 17.738281 C 24.730469 17.738281 25.039062 17.902344 25.039062 18.335938 "/>
<path style=" stroke:none;fill-rule:nonzero;fill:rgb(11.372549%,25.882353%,54.117647%);fill-opacity:1;" d="M 15.601562 16.300781 C 15.0625 16.300781 14.511719 16.515625 14.222656 16.964844 L 14.210938 16.964844 L 14.265625 16.1875 C 14.300781 15.660156 14.417969 14.226562 15.148438 14.226562 C 15.5 14.226562 15.421875 14.695312 15.460938 14.90625 C 15.554688 15.398438 15.773438 15.972656 16.453125 15.972656 C 16.707031 15.984375 16.953125 15.890625 17.132812 15.710938 C 17.3125 15.535156 17.410156 15.292969 17.40625 15.039062 C 17.40625 14.074219 16.597656 13.4375 15.617188 13.4375 C 13.101562 13.4375 12.089844 15.359375 12.089844 17.6875 C 12.089844 19.710938 12.871094 21.453125 15.039062 21.453125 C 16.445312 21.453125 17.582031 20.453125 17.582031 18.777344 C 17.570312 17.355469 16.820312 16.300781 15.601562 16.300781 Z M 14.851562 20.660156 C 14.25 20.660156 14.273438 19.886719 14.273438 19 C 14.273438 18.109375 14.355469 17.34375 14.851562 17.34375 C 15.457031 17.34375 15.484375 18.109375 15.484375 19 C 15.488281 19.886719 15.359375 20.660156 14.851562 20.660156 Z M 14.851562 20.660156 "/>
<path style=" stroke:none;fill-rule:nonzero;fill:rgb(78.431373%,6.27451%,18.039216%);fill-opacity:1;" d="M 7.285156 13.394531 L 7.285156 16.394531 C 8.964844 16.644531 10.96875 16.476562 12.390625 14.40625 C 12.449219 14.316406 12.484375 14.378906 12.445312 14.457031 C 12.050781 15.261719 11.113281 16.003906 10.300781 16.644531 C 9.523438 17.253906 7.4375 19.441406 7.464844 21.371094 C 7.464844 21.519531 7.46875 21.476562 7.601562 21.378906 C 8.234375 20.910156 9.472656 20.898438 10.234375 21.257812 C 10.339844 21.308594 10.351562 21.292969 10.335938 21.160156 C 10.191406 19.664062 10.523438 18.039062 11.164062 17.089844 C 11.601562 16.433594 12.789062 14.746094 12.996094 13.421875 C 13.015625 13.285156 12.945312 13.304688 12.773438 13.488281 C 11.429688 14.910156 9.003906 14.871094 7.429688 13.371094 C 7.335938 13.265625 7.292969 13.3125 7.285156 13.394531 "/>
<path style=" stroke:none;fill-rule:nonzero;fill:rgb(100%,100%,100%);fill-opacity:1;" d="M 13.074219 11.597656 C 13.074219 13.1875 11.785156 14.472656 10.199219 14.472656 C 8.609375 14.472656 7.320312 13.1875 7.320312 11.597656 C 7.320312 10.007812 8.609375 8.71875 10.199219 8.71875 C 11.785156 8.71875 13.074219 10.007812 13.074219 11.597656 Z M 13.074219 11.597656 "/>
<path style=" stroke:none;fill-rule:nonzero;fill:rgb(11.372549%,25.882353%,54.117647%);fill-opacity:1;" d="M 10.195312 8.824219 L 10.289062 9.128906 L 10.617188 9.128906 L 10.351562 9.320312 L 10.445312 9.617188 L 10.195312 9.433594 L 9.933594 9.617188 L 10.035156 9.320312 L 9.769531 9.128906 L 10.097656 9.128906 Z M 10.195312 8.824219 "/>
<path style=" stroke:none;fill-rule:nonzero;fill:rgb(11.372549%,25.882353%,54.117647%);fill-opacity:1;" d="M 12.105469 9.941406 L 12.207031 10.242188 L 12.535156 10.242188 L 12.265625 10.433594 L 12.363281 10.734375 L 12.105469 10.550781 L 11.851562 10.734375 L 11.949219 10.433594 L 11.683594 10.242188 L 12.011719 10.242188 Z M 12.105469 9.941406 "/>
<path style=" stroke:none;fill-rule:nonzero;fill:rgb(11.372549%,25.882353%,54.117647%);fill-opacity:1;" d="M 11.285156 9.078125 L 11.382812 9.378906 L 11.710938 9.378906 L 11.445312 9.574219 L 11.539062 9.875 L 11.289062 9.691406 L 11.035156 9.875 L 11.128906 9.574219 L 10.863281 9.378906 L 11.191406 9.378906 Z M 11.285156 9.078125 "/>
<path style=" stroke:none;fill-rule:nonzero;fill:rgb(11.372549%,25.882353%,54.117647%);fill-opacity:1;" d="M 12.421875 10.992188 L 12.515625 11.296875 L 12.84375 11.296875 L 12.578125 11.488281 L 12.679688 11.789062 L 12.421875 11.605469 L 12.167969 11.789062 L 12.261719 11.488281 L 12 11.296875 L 12.324219 11.296875 Z M 12.421875 10.992188 "/>
<path style=" stroke:none;fill-rule:nonzero;fill:rgb(11.372549%,25.882353%,54.117647%);fill-opacity:1;" d="M 12.285156 12.105469 L 12.382812 12.410156 L 12.707031 12.410156 L 12.445312 12.605469 L 12.539062 12.90625 L 12.285156 12.71875 L 12.027344 12.90625 L 12.125 12.601562 L 11.863281 12.410156 L 12.191406 12.410156 Z M 12.285156 12.105469 "/>
<path style=" stroke:none;fill-rule:nonzero;fill:rgb(11.372549%,25.882353%,54.117647%);fill-opacity:1;" d="M 11.667969 12.996094 L 11.761719 13.300781 L 12.089844 13.300781 L 11.828125 13.496094 L 11.921875 13.792969 L 11.671875 13.613281 L 11.414062 13.792969 L 11.511719 13.496094 L 11.246094 13.300781 L 11.574219 13.300781 Z M 11.667969 12.996094 "/>
<path style=" stroke:none;fill-rule:nonzero;fill:rgb(11.372549%,25.882353%,54.117647%);fill-opacity:1;" d="M 10.703125 13.496094 L 10.800781 13.800781 L 11.125 13.800781 L 10.855469 13.996094 L 10.957031 14.292969 L 10.703125 14.109375 L 10.445312 14.292969 L 10.539062 13.996094 L 10.28125 13.800781 L 10.601562 13.800781 Z M 10.703125 13.496094 "/>
<path style=" stroke:none;fill-rule:nonzero;fill:rgb(11.372549%,25.882353%,54.117647%);fill-opacity:1;" d="M 8.246094 9.839844 L 8.148438 10.144531 L 7.824219 10.144531 L 8.085938 10.335938 L 7.992188 10.636719 L 8.242188 10.453125 L 8.503906 10.636719 L 8.402344 10.335938 L 8.667969 10.144531 L 8.339844 10.144531 Z M 8.246094 9.839844 "/>
<path style=" stroke:none;fill-rule:nonzero;fill:rgb(11.372549%,25.882353%,54.117647%);fill-opacity:1;" d="M 9.046875 9.078125 L 8.945312 9.378906 L 8.625 9.378906 L 8.886719 9.574219 L 8.792969 9.875 L 9.046875 9.691406 L 9.300781 9.875 L 9.207031 9.574219 L 9.46875 9.378906 L 9.144531 9.378906 Z M 9.046875 9.078125 "/>
<path style=" stroke:none;fill-rule:nonzero;fill:rgb(11.372549%,25.882353%,54.117647%);fill-opacity:1;" d="M 7.871094 10.855469 L 7.773438 11.164062 L 7.445312 11.164062 L 7.714844 11.351562 L 7.621094 11.65625 L 7.871094 11.46875 L 8.125 11.65625 L 8.03125 11.351562 L 8.296875 11.164062 L 7.976562 11.164062 Z M 7.871094 10.855469 "/>
<path style=" stroke:none;fill-rule:nonzero;fill:rgb(11.372549%,25.882353%,54.117647%);fill-opacity:1;" d="M 7.976562 11.96875 L 7.875 12.273438 L 7.546875 12.273438 L 7.8125 12.46875 L 7.71875 12.765625 L 7.96875 12.585938 L 8.222656 12.765625 L 8.128906 12.46875 L 8.390625 12.273438 L 8.070312 12.273438 Z M 7.976562 11.96875 "/>
<path style=" stroke:none;fill-rule:nonzero;fill:rgb(11.372549%,25.882353%,54.117647%);fill-opacity:1;" d="M 8.585938 12.878906 L 8.492188 13.183594 L 8.164062 13.183594 L 8.429688 13.378906 L 8.332031 13.679688 L 8.585938 13.488281 L 8.847656 13.679688 L 8.746094 13.378906 L 9.007812 13.183594 L 8.683594 13.183594 Z M 8.585938 12.878906 "/>
<path style=" stroke:none;fill-rule:nonzero;fill:rgb(11.372549%,25.882353%,54.117647%);fill-opacity:1;" d="M 9.550781 13.457031 L 9.457031 13.761719 L 9.128906 13.761719 L 9.394531 13.957031 L 9.300781 14.253906 L 9.550781 14.074219 L 9.8125 14.253906 L 9.714844 13.949219 L 9.980469 13.761719 L 9.652344 13.761719 Z M 9.550781 13.457031 "/>
</g>
</svg>
