<?xml version="1.0" encoding="UTF-8"?>
<svg xmlns="http://www.w3.org/2000/svg" xmlns:xlink="http://www.w3.org/1999/xlink" width="32px" height="32px" viewBox="0 0 32 32" version="1.1">
<g id="surface1">
<path style=" stroke:none;fill-rule:nonzero;fill:rgb(100%,100%,100%);fill-opacity:1;" d="M 31.980469 15.988281 C 31.980469 24.820312 24.820312 31.980469 15.988281 31.980469 C 7.160156 31.980469 0 24.820312 0 15.988281 C 0 7.160156 7.160156 0 15.988281 0 C 24.820312 0.00390625 31.976562 7.160156 31.980469 15.988281 "/>
<path style=" stroke:none;fill-rule:nonzero;fill:rgb(0%,0%,0%);fill-opacity:1;" d="M 15.988281 31.148438 C 9.890625 31.140625 4.390625 27.480469 2.027344 21.859375 C -0.335938 16.238281 0.898438 9.746094 5.160156 5.382812 C 7.964844 2.5 11.808594 0.859375 15.832031 0.820312 L 16 0.820312 C 22.101562 0.828125 27.601562 4.488281 29.964844 10.109375 C 32.328125 15.734375 31.09375 22.222656 26.832031 26.585938 C 24.023438 29.46875 20.183594 31.113281 16.160156 31.148438 C 16.097656 31.148438 16.042969 31.148438 15.988281 31.148438 "/>
<path style=" stroke:none;fill-rule:nonzero;fill:rgb(100%,100%,100%);fill-opacity:1;" d="M 17.484375 5.585938 L 16.960938 6.117188 L 15.476562 6.117188 L 14.945312 5.585938 L 14.945312 2.65625 L 15.476562 2.121094 L 16.949219 2.121094 L 17.484375 2.65625 Z M 15.949219 2.984375 L 15.789062 3.144531 L 15.789062 5.074219 L 15.949219 5.234375 L 16.492188 5.234375 L 16.652344 5.074219 L 16.652344 3.144531 L 16.492188 2.984375 Z M 15.949219 2.984375 "/>
<path style=" stroke:none;fill-rule:nonzero;fill:rgb(100%,100%,100%);fill-opacity:1;" d="M 26.03125 12.484375 L 25.328125 12.238281 L 24.6875 10.90625 L 24.933594 10.203125 L 27.578125 8.933594 L 28.28125 9.179688 L 28.921875 10.511719 L 28.675781 11.214844 Z M 27.714844 9.976562 L 27.503906 9.902344 L 25.765625 10.734375 L 25.691406 10.949219 L 25.925781 11.4375 L 26.136719 11.511719 L 27.886719 10.679688 L 27.960938 10.46875 Z M 27.714844 9.976562 "/>
<path style=" stroke:none;fill-rule:nonzero;fill:rgb(100%,100%,100%);fill-opacity:1;" d="M 9.648438 7.792969 L 9.65625 8.539062 L 8.625 9.59375 L 7.878906 9.605469 L 5.777344 7.570312 L 5.765625 6.824219 L 6.789062 5.765625 L 7.535156 5.757812 Z M 6.714844 7.089844 L 6.714844 7.3125 L 8.101562 8.65625 L 8.324219 8.65625 L 8.699219 8.273438 L 8.699219 8.046875 L 7.3125 6.707031 L 7.089844 6.707031 Z M 6.714844 7.089844 "/>
<path style=" stroke:none;fill-rule:nonzero;fill:rgb(100%,100%,100%);fill-opacity:1;" d="M 22.910156 3.816406 L 21.363281 7.484375 L 20.722656 7.207031 L 20.550781 4.605469 L 19.644531 6.746094 L 18.941406 6.460938 L 20.5 2.792969 L 21.363281 3.15625 L 21.375 5.4375 L 22.195312 3.507812 Z M 22.910156 3.816406 "/>
<path style=" stroke:none;fill-rule:nonzero;fill:rgb(100%,100%,100%);fill-opacity:1;" d="M 12.664062 4.648438 L 12.484375 5.265625 L 13.589844 6.363281 L 12.8125 6.707031 L 11.78125 5.714844 L 11.40625 5.882812 L 11.929688 7.089844 L 11.214844 7.398438 L 9.648438 3.730469 L 11.351562 2.984375 L 12.078125 3.273438 Z M 11.03125 5.011719 L 11.660156 4.734375 C 11.695312 4.667969 11.722656 4.601562 11.746094 4.53125 L 11.535156 4.03125 L 11.320312 3.945312 L 10.691406 4.222656 Z M 11.03125 5.011719 "/>
<path style=" stroke:none;fill-rule:nonzero;fill:rgb(100%,100%,100%);fill-opacity:1;" d="M 26.03125 7.386719 L 25.507812 6.875 L 23.3125 9.105469 L 22.726562 8.515625 L 24.921875 6.289062 L 24.402344 5.777344 L 24.996094 5.171875 L 26.628906 6.769531 Z M 26.03125 7.386719 "/>
<path style=" stroke:none;fill-rule:nonzero;fill:rgb(100%,100%,100%);fill-opacity:1;" d="M 4.777344 9.65625 L 4.476562 10.320312 L 7.335938 11.597656 L 6.992188 12.367188 L 4.136719 11.085938 L 3.835938 11.746094 L 3.046875 11.394531 L 3.988281 9.304688 Z M 4.777344 9.65625 "/>
<path style=" stroke:none;fill-rule:nonzero;fill:rgb(100%,100%,100%);fill-opacity:1;" d="M 26.617188 19.828125 L 26.222656 20.574219 L 25.945312 20.425781 L 25.871094 20.574219 L 25.625 21.042969 L 25.691406 21.257812 L 26.085938 21.457031 L 26.03125 21.425781 L 26.246094 21.363281 L 26.714844 20.46875 L 27.449219 20.242188 L 28.644531 20.871094 L 28.867188 21.585938 L 28.183594 22.898438 C 28.183594 22.898438 27.460938 23.121094 27.460938 23.109375 L 26.863281 22.792969 L 27.257812 22.046875 L 27.554688 22.203125 L 27.875 21.585938 L 27.8125 21.375 L 27.492188 21.203125 L 27.277344 21.265625 L 26.820312 22.140625 L 26.074219 22.363281 L 24.878906 21.734375 L 24.644531 21 L 25.328125 19.6875 L 26.054688 19.476562 Z M 26.617188 19.828125 "/>
<path style=" stroke:none;fill-rule:nonzero;fill:rgb(100%,100%,100%);fill-opacity:1;" d="M 6.140625 22.578125 L 5.511719 22.4375 L 4.5 23.621094 L 4.105469 22.875 L 5.019531 21.777344 L 4.828125 21.414062 L 3.65625 22.023438 L 3.292969 21.339844 L 6.832031 19.507812 L 7.695312 21.160156 L 7.453125 21.894531 Z M 5.660156 20.980469 L 5.980469 21.585938 L 6.195312 21.652344 L 6.671875 21.394531 L 6.738281 21.179688 L 6.417969 20.574219 Z M 5.660156 20.980469 "/>
<path style=" stroke:none;fill-rule:nonzero;fill:rgb(100%,100%,100%);fill-opacity:1;" d="M 11.351562 27.394531 L 10.777344 28.769531 L 10.085938 28.484375 L 11.621094 24.796875 L 13.304688 25.5 L 13.582031 26.222656 L 13.027344 27.566406 L 12.472656 27.867188 Z M 11.652344 26.683594 L 12.214844 26.917969 L 12.417969 26.832031 L 12.632812 26.332031 L 12.546875 26.128906 L 11.980469 25.894531 Z M 11.652344 26.683594 "/>
<path style=" stroke:none;fill-rule:nonzero;fill:rgb(100%,100%,100%);fill-opacity:1;" d="M 17.398438 26.703125 L 16.671875 26.714844 L 16.703125 29.847656 L 15.871094 29.859375 L 15.839844 26.726562 L 15.117188 26.734375 L 15.105469 25.871094 L 17.398438 25.851562 Z M 17.398438 26.703125 "/>
<path style=" stroke:none;fill-rule:nonzero;fill:rgb(100%,100%,100%);fill-opacity:1;" d="M 22.035156 28.015625 L 21.734375 28.695312 L 20.351562 29.21875 L 19.667969 28.910156 L 18.632812 26.171875 L 18.941406 25.488281 L 20.316406 24.964844 L 21 25.273438 Z M 19.679688 26.128906 L 19.582031 26.332031 L 20.265625 28.140625 L 20.46875 28.238281 L 20.96875 28.046875 L 21.0625 27.84375 L 20.382812 26.042969 L 20.179688 25.945312 Z M 19.679688 26.128906 "/>
<path style=" stroke:none;fill-rule:nonzero;fill:rgb(100%,100%,100%);fill-opacity:1;" d="M 24.957031 24.15625 L 24.964844 24.796875 L 26.351562 25.519531 L 25.710938 26.0625 L 24.433594 25.414062 L 24.125 25.679688 L 24.976562 26.683594 L 24.390625 27.183594 L 21.808594 24.144531 L 23.226562 22.941406 L 24.007812 23.015625 Z M 23.503906 24.964844 L 24.027344 24.519531 L 24.050781 24.292969 L 23.695312 23.878906 L 23.472656 23.855469 L 22.949219 24.304688 Z M 23.503906 24.964844 "/>
<path style=" stroke:none;fill-rule:nonzero;fill:rgb(100%,100%,100%);fill-opacity:1;" d="M 8.058594 27.429688 L 7.441406 26.851562 L 7.730469 26.265625 L 6.875 25.476562 L 6.3125 25.820312 L 5.683594 25.242188 L 9.285156 23.078125 L 9.914062 23.65625 Z M 8.082031 25.53125 L 8.625 24.421875 L 7.570312 25.050781 Z M 8.082031 25.53125 "/>
<path style=" stroke:none;fill-rule:nonzero;fill:rgb(74.117647%,10.588235%,12.941176%);fill-opacity:1;" d="M 19.09375 24.007812 C 19.101562 24.027344 19.113281 24.039062 19.125 24.039062 C 19.171875 24.035156 19.21875 24.027344 19.261719 24.015625 L 19.347656 23.972656 L 19.605469 23.878906 L 20.234375 23.578125 L 20.339844 23.527344 L 20.394531 23.503906 L 20.457031 23.460938 L 20.5625 23.398438 L 20.691406 23.324219 L 20.863281 23.21875 L 21.160156 23.003906 L 21.308594 22.886719 L 21.511719 22.738281 L 21.703125 22.597656 L 21.789062 22.535156 L 21.917969 22.417969 L 22.046875 22.289062 L 22.257812 22.066406 L 22.503906 21.832031 L 22.78125 21.511719 L 22.929688 21.308594 L 22.984375 21.234375 L 23.152344 21.03125 L 23.472656 20.5625 L 23.558594 20.414062 L 23.773438 19.988281 L 23.890625 19.753906 L 24.101562 19.328125 L 24.21875 19.070312 L 24.347656 18.675781 C 24.347656 18.675781 24.496094 18.152344 24.570312 17.875 C 24.585938 17.847656 24.582031 17.816406 24.5625 17.792969 C 24.519531 17.726562 24.484375 17.652344 24.445312 17.578125 C 24.421875 17.546875 24.390625 17.503906 24.367188 17.472656 C 24.347656 17.441406 24.292969 17.375 24.273438 17.34375 L 24.199219 17.269531 C 24.132812 17.207031 24.070312 17.140625 24.015625 17.097656 C 23.988281 17.085938 23.960938 17.070312 23.941406 17.046875 C 23.773438 16.910156 23.585938 16.800781 23.386719 16.714844 C 23.304688 16.683594 23.21875 16.652344 23.132812 16.617188 C 23.058594 16.597656 22.984375 16.578125 22.910156 16.566406 C 22.875 16.554688 22.839844 16.558594 22.8125 16.578125 C 22.78125 16.597656 22.78125 16.640625 22.78125 16.683594 C 22.769531 16.789062 22.769531 16.90625 22.757812 17.023438 C 22.75 17.140625 22.738281 17.246094 22.726562 17.363281 C 22.714844 17.472656 22.714844 17.566406 22.707031 17.675781 C 22.695312 17.8125 22.671875 17.945312 22.640625 18.078125 C 22.597656 18.324219 22.546875 18.582031 22.492188 18.824219 C 22.484375 18.894531 22.46875 18.964844 22.4375 19.027344 C 22.394531 19.132812 22.363281 19.246094 22.34375 19.359375 C 22.292969 19.59375 22.222656 19.820312 22.128906 20.039062 C 22.070312 20.226562 21.992188 20.40625 21.894531 20.574219 C 21.886719 20.582031 21.882812 20.59375 21.886719 20.605469 C 21.832031 20.722656 21.789062 20.839844 21.734375 20.945312 C 21.695312 21.015625 21.660156 21.085938 21.628906 21.160156 C 21.585938 21.253906 21.535156 21.339844 21.480469 21.425781 C 21.394531 21.566406 21.296875 21.691406 21.222656 21.832031 C 21.171875 21.929688 21.109375 22.019531 21.042969 22.109375 C 21.023438 22.128906 21.007812 22.15625 21 22.183594 C 20.953125 22.261719 20.898438 22.335938 20.839844 22.40625 C 20.734375 22.546875 20.617188 22.683594 20.5 22.824219 C 20.425781 22.910156 20.351562 22.984375 20.273438 23.066406 C 20.210938 23.144531 20.136719 23.21875 20.0625 23.292969 C 20.046875 23.308594 20.027344 23.324219 20.007812 23.335938 C 19.964844 23.367188 19.921875 23.402344 19.882812 23.441406 C 19.796875 23.535156 19.699219 23.617188 19.59375 23.6875 C 19.550781 23.71875 19.496094 23.75 19.453125 23.78125 C 19.34375 23.871094 19.222656 23.945312 19.09375 24.007812 "/>
<path style=" stroke:none;fill-rule:nonzero;fill:rgb(74.117647%,10.588235%,12.941176%);fill-opacity:1;" d="M 24.699219 17.300781 C 24.703125 17.296875 24.707031 17.289062 24.710938 17.28125 C 24.710938 17.257812 24.714844 17.238281 24.71875 17.214844 L 24.785156 16.671875 L 24.816406 16.160156 L 24.816406 15.585938 L 24.753906 15.007812 C 24.753906 15.007812 24.679688 14.488281 24.625 14.230469 C 24.605469 14.148438 24.550781 14.082031 24.476562 14.050781 C 24.449219 14.039062 24.417969 14.027344 24.390625 14.019531 C 24.335938 13.996094 24.273438 13.976562 24.21875 13.953125 C 24.089844 13.921875 23.964844 13.878906 23.835938 13.859375 C 23.675781 13.835938 23.527344 13.816406 23.367188 13.804688 C 23.238281 13.792969 23.109375 13.785156 22.984375 13.785156 L 22.714844 13.785156 C 22.664062 13.785156 22.597656 13.785156 22.578125 13.816406 C 22.5625 13.867188 22.5625 13.921875 22.578125 13.976562 C 22.597656 14.101562 22.621094 14.167969 22.640625 14.285156 C 22.714844 14.648438 22.761719 15.019531 22.78125 15.394531 C 22.792969 15.5625 22.800781 15.734375 22.800781 15.894531 L 22.800781 16.023438 C 22.800781 16.050781 22.808594 16.082031 22.824219 16.105469 C 22.835938 16.128906 22.863281 16.140625 22.886719 16.140625 C 22.917969 16.148438 22.949219 16.148438 22.984375 16.160156 C 23.015625 16.171875 23.078125 16.183594 23.109375 16.191406 C 23.261719 16.246094 23.421875 16.300781 23.558594 16.351562 C 23.660156 16.394531 23.761719 16.445312 23.855469 16.5 C 23.867188 16.511719 23.878906 16.511719 23.890625 16.523438 C 23.941406 16.566406 24.007812 16.609375 24.058594 16.652344 C 24.203125 16.742188 24.332031 16.851562 24.445312 16.980469 C 24.464844 17.003906 24.484375 17.035156 24.507812 17.054688 C 24.550781 17.089844 24.613281 17.226562 24.667969 17.28125 C 24.6875 17.289062 24.6875 17.300781 24.699219 17.300781 "/>
<path style=" stroke:none;fill-rule:nonzero;fill:rgb(74.117647%,10.588235%,12.941176%);fill-opacity:1;" d="M 20.851562 11.171875 C 20.898438 11.175781 20.945312 11.171875 20.988281 11.160156 C 21.023438 11.160156 21.042969 11.160156 21.0625 11.128906 C 21.070312 11.101562 21.0625 11.074219 21.042969 11.054688 C 21.03125 11.03125 20.9375 10.851562 20.9375 10.851562 L 20.839844 10.703125 L 20.433594 10.117188 L 20.351562 10.019531 L 20.273438 9.914062 L 20.148438 9.765625 L 19.816406 9.402344 L 19.679688 9.261719 L 19.167969 8.792969 L 18.75 8.476562 L 18.601562 8.398438 L 18.113281 8.101562 L 17.769531 7.921875 L 17.707031 7.886719 L 17.429688 7.78125 L 17.011719 7.632812 L 16.980469 7.621094 L 16.851562 7.589844 L 16.820312 7.578125 L 16.703125 7.546875 L 16.460938 7.503906 L 16.34375 7.503906 L 16.117188 7.460938 L 15.851562 7.441406 L 15.753906 7.429688 L 15.59375 7.429688 L 15.320312 7.441406 L 15.050781 7.472656 L 14.839844 7.472656 L 14.65625 7.492188 L 14.464844 7.535156 L 14.316406 7.578125 L 14.082031 7.621094 L 14.027344 7.621094 L 13.804688 7.695312 L 13.675781 7.730469 L 13.601562 7.769531 L 13.410156 7.824219 L 13.3125 7.878906 L 13.195312 7.921875 L 12.910156 8.039062 L 12.546875 8.175781 L 12.429688 8.230469 L 12.171875 8.367188 L 11.949219 8.515625 L 11.746094 8.625 L 11.671875 8.667969 L 11.449219 8.785156 L 11.417969 8.804688 L 11.160156 9.007812 L 10.949219 9.144531 L 10.90625 9.179688 L 10.671875 9.371094 L 10.585938 9.445312 C 10.585938 9.445312 10.457031 9.550781 10.457031 9.574219 L 10.542969 9.539062 C 10.542969 9.539062 10.703125 9.476562 10.714844 9.476562 L 10.746094 9.476562 L 10.980469 9.378906 L 11.011719 9.378906 L 11.269531 9.273438 L 11.40625 9.230469 L 11.542969 9.179688 L 11.738281 9.113281 L 12.207031 8.933594 L 12.25 8.933594 L 12.484375 8.847656 L 12.675781 8.773438 L 12.695312 8.792969 L 13.058594 8.804688 L 13.292969 8.828125 L 13.304688 8.828125 L 13.773438 8.859375 L 14.421875 8.890625 L 14.421875 8.902344 L 14.65625 9.105469 L 14.679688 9.105469 L 14.914062 9.328125 L 14.933594 9.316406 L 15.253906 9.328125 L 15.265625 9.316406 L 16.074219 9.359375 L 16.074219 9.378906 L 16.4375 9.59375 L 16.449219 9.59375 L 17.089844 9.902344 L 17.089844 9.933594 L 17.449219 9.796875 L 17.984375 9.976562 L 18.070312 10.128906 L 18.261719 10.136719 L 18.453125 10.351562 L 18.472656 10.351562 L 18.625 10.519531 L 18.625 10.53125 L 18.644531 10.53125 L 19.058594 10.628906 L 19.21875 10.863281 L 19.605469 11 C 19.8125 11.054688 20.019531 11.097656 20.234375 11.128906 C 20.433594 11.175781 20.644531 11.191406 20.851562 11.171875 "/>
<path style=" stroke:none;fill-rule:nonzero;fill:rgb(74.117647%,10.588235%,12.941176%);fill-opacity:1;" d="M 24.476562 13.632812 C 24.460938 13.570312 24.445312 13.503906 24.421875 13.441406 L 24.402344 13.378906 L 24.378906 13.292969 L 24.316406 13.089844 L 24.25 12.910156 L 24.050781 12.460938 L 23.964844 12.25 L 23.847656 11.992188 L 23.707031 11.769531 L 23.675781 11.703125 L 23.578125 11.523438 L 23.496094 11.386719 L 23.460938 11.34375 L 22.875 10.554688 C 22.875 10.554688 22.824219 10.488281 22.792969 10.457031 C 22.78125 10.4375 22.769531 10.425781 22.757812 10.425781 C 22.757812 10.425781 22.578125 10.714844 22.503906 10.796875 C 22.429688 10.882812 22.28125 11.023438 22.28125 11.023438 C 22.28125 11.023438 22.152344 11.128906 22.128906 11.140625 C 22.09375 11.167969 22.054688 11.191406 22.011719 11.214844 L 21.886719 11.289062 C 21.886719 11.289062 21.789062 11.332031 21.769531 11.34375 C 21.746094 11.351562 21.734375 11.351562 21.726562 11.363281 C 21.714844 11.375 21.714844 11.386719 21.714844 11.40625 C 21.714844 11.425781 21.726562 11.4375 21.734375 11.460938 C 21.789062 11.578125 21.84375 11.683594 21.894531 11.800781 C 21.976562 11.964844 22.050781 12.136719 22.109375 12.3125 C 22.136719 12.367188 22.15625 12.425781 22.171875 12.484375 C 22.226562 12.632812 22.269531 12.78125 22.3125 12.929688 C 22.332031 12.996094 22.355469 13.058594 22.375 13.132812 C 22.398438 13.195312 22.40625 13.273438 22.429688 13.335938 C 22.4375 13.375 22.472656 13.402344 22.515625 13.398438 L 22.640625 13.398438 C 22.800781 13.398438 22.949219 13.390625 23.109375 13.390625 C 23.152344 13.390625 23.460938 13.421875 23.460938 13.421875 C 23.460938 13.421875 23.570312 13.429688 23.621094 13.441406 C 23.738281 13.464844 23.855469 13.496094 23.972656 13.515625 C 24.074219 13.539062 24.171875 13.570312 24.261719 13.613281 C 24.308594 13.632812 24.351562 13.644531 24.402344 13.65625 C 24.414062 13.65625 24.429688 13.660156 24.445312 13.667969 C 24.464844 13.65625 24.476562 13.644531 24.476562 13.632812 "/>
<path style=" stroke:none;fill-rule:nonzero;fill:rgb(74.117647%,10.588235%,12.941176%);fill-opacity:1;" d="M 22.4375 10.167969 C 22.429688 10.140625 22.414062 10.109375 22.398438 10.085938 L 22.363281 10.03125 L 22.28125 9.933594 L 22.226562 9.851562 L 22.121094 9.742188 L 22.085938 9.710938 C 21.90625 9.5625 21.535156 9.261719 21.535156 9.261719 L 21.425781 9.179688 L 21.234375 9.007812 L 20.273438 8.433594 L 19.519531 8.070312 L 19.113281 7.910156 L 18.964844 7.855469 L 18.464844 7.6875 L 18.113281 7.601562 L 17.769531 7.527344 L 17.71875 7.527344 L 17.683594 7.558594 L 17.695312 7.570312 C 17.710938 7.578125 17.730469 7.585938 17.75 7.589844 L 18.070312 7.71875 C 18.132812 7.75 18.203125 7.777344 18.269531 7.804688 C 18.320312 7.8125 18.367188 7.832031 18.410156 7.855469 L 18.890625 8.144531 C 18.984375 8.203125 19.074219 8.269531 19.15625 8.347656 C 19.214844 8.40625 19.285156 8.457031 19.359375 8.496094 C 19.390625 8.515625 19.421875 8.550781 19.453125 8.570312 C 19.476562 8.582031 19.488281 8.601562 19.507812 8.613281 C 19.605469 8.6875 19.699219 8.765625 19.785156 8.847656 C 19.871094 8.945312 19.964844 9.039062 20.0625 9.125 C 20.15625 9.210938 20.242188 9.300781 20.316406 9.402344 C 20.378906 9.484375 20.449219 9.5625 20.519531 9.636719 C 20.660156 9.773438 20.765625 9.933594 20.894531 10.085938 C 20.902344 10.109375 20.917969 10.128906 20.9375 10.148438 C 21.023438 10.277344 21.097656 10.414062 21.191406 10.53125 C 21.257812 10.617188 21.320312 10.707031 21.375 10.796875 C 21.40625 10.859375 21.441406 10.914062 21.480469 10.96875 C 21.496094 10.996094 21.523438 11.011719 21.554688 11.011719 C 21.574219 11.007812 21.59375 11 21.609375 10.992188 L 21.671875 10.957031 C 21.671875 10.957031 21.757812 10.914062 21.789062 10.90625 C 21.832031 10.886719 21.871094 10.867188 21.90625 10.839844 C 21.925781 10.820312 22.023438 10.757812 22.066406 10.714844 C 22.121094 10.660156 22.171875 10.605469 22.214844 10.542969 L 22.289062 10.445312 L 22.417969 10.234375 C 22.429688 10.214844 22.4375 10.191406 22.4375 10.167969 "/>
<path style=" stroke:none;fill-rule:nonzero;fill:rgb(74.117647%,10.588235%,12.941176%);fill-opacity:1;" d="M 22.035156 13.367188 C 21.980469 13.207031 21.9375 13.058594 21.886719 12.898438 C 21.84375 12.769531 21.800781 12.640625 21.746094 12.515625 C 21.714844 12.441406 21.691406 12.355469 21.660156 12.28125 C 21.652344 12.238281 21.628906 12.207031 21.617188 12.164062 C 21.539062 11.972656 21.453125 11.789062 21.351562 11.609375 C 21.351562 11.597656 21.339844 11.585938 21.332031 11.578125 C 21.324219 11.558594 21.308594 11.542969 21.289062 11.535156 C 21.265625 11.523438 21.246094 11.535156 21.203125 11.535156 C 21.117188 11.542969 21.023438 11.554688 20.980469 11.554688 C 20.9375 11.554688 20.777344 11.566406 20.648438 11.578125 L 20.617188 11.566406 L 20.457031 11.566406 L 20.039062 11.511719 C 19.890625 11.492188 19.539062 11.40625 19.539062 11.40625 L 19.285156 11.320312 L 18.976562 11.214844 L 18.953125 11.226562 L 18.464844 11.183594 L 18.453125 11.191406 L 18.175781 10.980469 L 18.144531 10.980469 L 17.972656 10.820312 L 17.960938 10.789062 L 17.769531 10.757812 L 17.75 10.765625 L 17.589844 10.714844 L 17.566406 10.691406 L 17.207031 10.714844 L 16.875 10.585938 L 15.746094 10.648438 L 15.722656 10.640625 L 15.511719 10.648438 L 15.488281 10.671875 L 14.933594 10.714844 L 14.925781 10.703125 L 14.136719 11.160156 L 14.125 11.191406 L 14.09375 11.226562 L 14.070312 11.214844 L 13.675781 11.171875 L 13.65625 11.183594 L 12.953125 11.183594 L 12.941406 11.171875 L 12.738281 11.160156 L 12.675781 11.128906 L 11.9375 11.703125 L 11.9375 11.714844 L 11.683594 11.917969 L 11.394531 11.78125 L 11.375 11.789062 L 11.269531 11.757812 C 11.269531 11.757812 10.734375 11.898438 10.746094 11.898438 L 10.246094 11.820312 L 10.210938 11.789062 L 10.117188 11.886719 L 9.914062 11.980469 L 9.914062 12.003906 L 9.519531 12.300781 L 8.953125 12.707031 L 8.316406 13.175781 L 8.027344 13.390625 L 8.015625 13.507812 L 7.898438 13.785156 L 7.847656 14.019531 L 7.769531 14.496094 L 7.730469 14.710938 L 7.707031 14.964844 L 7.644531 15.488281 L 7.609375 16.640625 L 7.644531 16.703125 L 7.664062 17.023438 C 7.664062 17.023438 7.664062 17.078125 7.6875 17.078125 L 9.09375 15.628906 L 9.550781 15.445312 L 9.933594 15.425781 L 10.167969 15.160156 L 10.191406 15.105469 L 10.222656 15.117188 L 10.851562 15.042969 L 10.882812 15.019531 L 11.117188 15.019531 L 11.148438 15.03125 L 11.226562 14.933594 L 11.511719 14.765625 L 11.8125 14.550781 L 12.664062 14.5625 L 12.675781 14.582031 L 13.003906 14.613281 L 13.261719 14.5625 L 13.742188 14.070312 L 13.75 14.070312 L 14.136719 13.707031 L 14.699219 13.632812 L 14.722656 13.625 L 14.742188 13.644531 L 15.042969 13.785156 L 15.0625 13.761719 L 15.328125 13.730469 L 15.339844 13.71875 L 15.585938 13.675781 L 15.605469 13.667969 L 15.871094 13.890625 L 15.882812 13.867188 L 16.4375 13.859375 L 16.480469 13.824219 L 16.917969 13.847656 L 16.9375 13.859375 L 17.003906 13.835938 L 17.011719 13.816406 L 17.195312 13.742188 L 17.214844 13.742188 L 17.417969 13.644531 L 17.441406 13.625 L 17.652344 13.539062 L 17.664062 13.515625 L 18.261719 13.28125 L 18.261719 13.273438 L 18.367188 13.238281 L 18.386719 13.21875 L 18.421875 13.25 L 18.589844 13.335938 L 18.644531 13.335938 L 18.835938 13.441406 L 18.847656 13.421875 L 18.910156 13.390625 L 18.921875 13.390625 L 19.015625 13.347656 L 19.015625 13.335938 L 19.15625 13.304688 L 19.519531 13.398438 L 19.59375 13.378906 L 19.65625 13.421875 L 19.921875 13.464844 L 20.179688 13.558594 L 20.328125 13.550781 L 20.382812 13.582031 L 20.425781 13.558594 C 20.425781 13.558594 20.9375 13.496094 21.191406 13.472656 C 21.363281 13.464844 21.523438 13.441406 21.691406 13.429688 C 21.789062 13.421875 21.886719 13.410156 21.96875 13.398438 C 22.035156 13.453125 22.054688 13.429688 22.035156 13.367188 "/>
<path style=" stroke:none;fill-rule:nonzero;fill:rgb(74.117647%,10.588235%,12.941176%);fill-opacity:1;" d="M 22.40625 15.980469 C 22.40625 15.949219 22.398438 15.925781 22.398438 15.882812 C 22.386719 15.785156 22.382812 15.683594 22.386719 15.585938 C 22.386719 15.554688 22.375 15.519531 22.375 15.488281 C 22.363281 15.371094 22.363281 15.242188 22.355469 15.125 C 22.34375 14.964844 22.3125 14.816406 22.289062 14.667969 C 22.269531 14.550781 22.246094 14.433594 22.226562 14.316406 C 22.203125 14.1875 22.183594 14.082031 22.152344 13.953125 C 22.121094 13.824219 22.097656 13.816406 21.96875 13.824219 C 21.957031 13.824219 21.945312 13.828125 21.9375 13.835938 C 21.894531 13.847656 21.820312 13.847656 21.777344 13.859375 C 21.535156 13.890625 21.296875 13.902344 21.042969 13.933594 L 20.328125 14.179688 L 19.292969 14.144531 L 19.175781 14.113281 L 19.175781 14.136719 L 18.867188 14.359375 L 18.824219 14.359375 L 18.582031 14.582031 L 18.570312 14.613281 L 17.953125 14.699219 L 17.386719 15.136719 L 17.324219 15.136719 L 17.023438 15.320312 L 16.90625 15.328125 L 16.789062 15.425781 L 16.757812 15.402344 L 16.183594 15.359375 L 16.085938 15.476562 L 16.085938 15.5 L 15.585938 16.042969 L 15.574219 16.074219 L 15.554688 16.074219 L 14.914062 16.800781 L 14.742188 16.800781 L 14.730469 16.820312 L 14.210938 16.90625 L 14.167969 16.90625 L 14.15625 16.929688 L 13.292969 17.40625 L 12.910156 17.363281 L 12.824219 17.398438 L 12.441406 17.375 L 12.054688 17.792969 L 11.832031 17.835938 L 11.703125 17.824219 L 11.566406 17.875 L 11.480469 17.867188 L 11.480469 17.886719 L 11.011719 18.25 L 10.96875 18.261719 L 10.234375 18.835938 L 10.246094 18.867188 L 9.785156 19.976562 L 9.808594 20.019531 L 9.050781 20.082031 L 8.804688 20.296875 L 8.785156 20.382812 L 9.125 20.851562 L 9.371094 21.234375 L 9.582031 21.511719 L 9.933594 21.894531 C 9.933594 21.90625 9.9375 21.917969 9.945312 21.925781 C 9.957031 21.925781 9.988281 21.925781 9.988281 21.9375 L 10.203125 22.011719 L 10.457031 22.097656 C 10.457031 22.101562 10.457031 22.105469 10.460938 22.105469 C 10.460938 22.109375 10.464844 22.109375 10.46875 22.109375 L 10.488281 22.109375 L 10.914062 22.28125 L 10.949219 22.28125 L 10.96875 22.3125 L 11.011719 22.3125 L 11.109375 22.375 L 11.289062 22.28125 L 11.300781 22.28125 L 11.386719 22.226562 L 12.035156 22.386719 L 12.515625 22.140625 L 13.570312 22.035156 L 14.007812 21.339844 L 14.199219 21.148438 L 14.21875 21.148438 L 14.371094 21.011719 L 14.371094 20.988281 L 14.636719 20.746094 L 14.765625 20.617188 L 14.796875 20.59375 L 15.0625 20.328125 L 15.09375 20.316406 L 15.0625 20.210938 L 15.179688 19.765625 L 15.414062 19.6875 L 15.425781 19.679688 L 15.5 19.667969 L 15.5 19.625 L 15.820312 19.113281 L 15.851562 19.101562 L 15.980469 18.847656 L 16.191406 18.730469 L 16.222656 18.699219 L 16.265625 18.707031 L 16.394531 18.632812 L 16.40625 18.632812 L 16.640625 18.527344 L 16.660156 18.496094 L 17.441406 18.144531 L 17.484375 18.144531 L 17.492188 18.101562 L 17.523438 18.078125 L 17.601562 17.8125 L 17.84375 17.707031 L 18.132812 17.675781 L 18.386719 17.492188 L 18.75 17.503906 L 18.78125 17.535156 L 18.804688 17.515625 L 19.316406 17.289062 L 19.316406 17.226562 L 19.445312 16.992188 L 19.699219 16.929688 L 19.710938 16.90625 L 20.050781 16.832031 L 20.179688 16.671875 L 20.199219 16.671875 C 20.226562 16.644531 20.253906 16.621094 20.285156 16.597656 L 20.519531 16.628906 L 20.53125 16.640625 L 20.660156 16.660156 L 20.746094 16.671875 C 20.746094 16.671875 21.097656 16.511719 21.234375 16.449219 C 21.296875 16.425781 21.351562 16.40625 21.414062 16.382812 C 21.5 16.351562 21.574219 16.332031 21.660156 16.300781 C 21.703125 16.289062 21.746094 16.277344 21.777344 16.265625 L 21.9375 16.234375 L 22.128906 16.203125 L 22.246094 16.191406 C 22.273438 16.1875 22.296875 16.183594 22.320312 16.183594 C 22.347656 16.183594 22.375 16.175781 22.398438 16.160156 C 22.417969 16.140625 22.417969 16.117188 22.429688 16.097656 C 22.414062 16.058594 22.40625 16.019531 22.40625 15.980469 "/>
<path style=" stroke:none;fill-rule:nonzero;fill:rgb(74.117647%,10.588235%,12.941176%);fill-opacity:1;" d="M 22.398438 16.660156 C 22.402344 16.628906 22.394531 16.59375 22.375 16.566406 C 22.359375 16.546875 22.335938 16.539062 22.3125 16.535156 C 22.289062 16.535156 22.203125 16.542969 22.203125 16.542969 L 22.054688 16.566406 C 22.039062 16.5625 22.019531 16.566406 22.003906 16.578125 C 21.917969 16.597656 21.820312 16.617188 21.734375 16.640625 C 21.636719 16.664062 21.542969 16.699219 21.449219 16.734375 C 21.351562 16.777344 21.234375 16.8125 21.140625 16.863281 C 21.105469 16.886719 20.765625 17.046875 20.617188 17.121094 L 20.425781 17.324219 L 20.414062 17.363281 L 20.394531 17.355469 L 20.273438 17.363281 L 20.265625 17.375 L 19.871094 17.503906 L 19.871094 17.546875 L 19.828125 17.589844 L 19.828125 17.609375 L 19.644531 17.929688 L 19.625 17.929688 L 19.625 17.960938 C 19.597656 18.003906 19.574219 18.046875 19.550781 18.089844 L 18.71875 18.625 L 18.699219 18.625 L 18.570312 18.730469 L 18.484375 19.082031 L 18.398438 19.15625 L 18.078125 20.359375 L 18.121094 20.5 L 17.640625 20.734375 L 17.566406 20.734375 L 17.472656 21.148438 L 17.460938 21.160156 L 17.34375 21.542969 L 17.355469 21.566406 L 17.300781 21.894531 L 17.28125 21.917969 L 17.289062 21.949219 L 16.832031 22.683594 L 16.800781 22.695312 L 16.683594 22.875 L 16.683594 22.910156 L 16.289062 23.460938 L 15.871094 23.707031 L 15.894531 23.738281 L 15.871094 23.910156 L 15.90625 23.972656 L 15.839844 23.996094 L 15.542969 24.175781 L 15.511719 24.167969 L 15.0625 24.433594 L 15.007812 24.519531 C 15.066406 24.53125 15.121094 24.539062 15.179688 24.539062 L 15.46875 24.5625 L 15.660156 24.570312 L 16.332031 24.570312 L 16.949219 24.496094 L 17.324219 24.433594 L 17.601562 24.359375 L 17.898438 24.273438 L 18.28125 24.125 L 18.3125 24.101562 L 18.421875 24.039062 C 18.574219 23.960938 18.726562 23.871094 18.867188 23.773438 C 19.101562 23.589844 19.347656 23.410156 19.570312 23.207031 C 19.644531 23.132812 19.722656 23.066406 19.796875 22.992188 C 19.871094 22.929688 19.933594 22.855469 20.007812 22.78125 C 20.019531 22.769531 20.039062 22.757812 20.039062 22.738281 C 20.066406 22.683594 20.101562 22.636719 20.148438 22.597656 C 20.179688 22.570312 20.207031 22.539062 20.234375 22.503906 C 20.285156 22.433594 20.34375 22.367188 20.414062 22.3125 C 20.464844 22.261719 20.507812 22.207031 20.550781 22.152344 C 20.628906 22.046875 20.691406 21.9375 20.765625 21.832031 C 20.863281 21.691406 20.957031 21.554688 21.042969 21.40625 C 21.128906 21.246094 21.214844 21.085938 21.296875 20.9375 C 21.375 20.808594 21.449219 20.667969 21.511719 20.53125 C 21.609375 20.296875 21.714844 20.074219 21.800781 19.828125 C 21.894531 19.578125 21.972656 19.320312 22.035156 19.058594 C 22.085938 18.867188 22.121094 18.664062 22.183594 18.484375 C 22.195312 18.464844 22.195312 18.429688 22.203125 18.410156 C 22.238281 18.25 22.257812 18.089844 22.28125 17.941406 C 22.300781 17.792969 22.320312 17.640625 22.34375 17.492188 C 22.355469 17.386719 22.375 17.289062 22.386719 17.183594 C 22.398438 17.046875 22.40625 16.894531 22.40625 16.757812 L 22.40625 16.714844 C 22.402344 16.699219 22.398438 16.679688 22.398438 16.660156 "/>
</g>
</svg>
