<?xml version="1.0" encoding="UTF-8"?>
<svg xmlns="http://www.w3.org/2000/svg" xmlns:xlink="http://www.w3.org/1999/xlink" width="32px" height="32px" viewBox="0 0 32 32" version="1.1">
<g id="surface1">
<path style=" stroke:none;fill-rule:nonzero;fill:rgb(76.862745%,80.784314%,83.137255%);fill-opacity:1;" d="M 31.902344 16.003906 C 31.902344 7.242188 24.800781 0.140625 16.039062 0.140625 C 7.277344 0.140625 0.171875 7.242188 0.171875 16.003906 C 0.171875 24.761719 7.277344 31.867188 16.039062 31.867188 C 24.800781 31.867188 31.902344 24.761719 31.902344 16.003906 Z M 31.902344 16.003906 "/>
<path style=" stroke:none;fill-rule:nonzero;fill:rgb(89.019608%,9.411765%,21.568627%);fill-opacity:1;" d="M 31.191406 15.925781 C 31.191406 7.507812 24.378906 0.683594 15.972656 0.683594 C 7.570312 0.683594 0.757812 7.507812 0.757812 15.925781 C 0.757812 24.34375 7.570312 31.167969 15.972656 31.167969 C 24.378906 31.167969 31.191406 24.34375 31.191406 15.925781 Z M 31.191406 15.925781 "/>
<path style=" stroke:none;fill-rule:nonzero;fill:rgb(100%,100%,100%);fill-opacity:1;" d="M 31.234375 15.203125 L 0.726562 15.207031 C 0.714844 15.46875 0.707031 15.730469 0.707031 15.996094 C 0.707031 17.386719 0.910156 18.746094 1.289062 20.046875 C 4.882812 20.046875 27.015625 20.042969 30.667969 20.042969 C 31.050781 18.730469 31.253906 17.359375 31.253906 15.957031 C 31.253906 15.703125 31.246094 15.453125 31.234375 15.203125 "/>
<path style=" stroke:none;fill-rule:nonzero;fill:rgb(0%,16.862745%,36.078431%);fill-opacity:1;" d="M 14.023438 31.214844 C 14.640625 31.292969 15.273438 31.332031 15.910156 31.335938 L 15.933594 31.335938 C 17.320312 31.335938 18.667969 31.148438 19.945312 30.800781 C 23.957031 29.652344 27.375 26.808594 29.375 23.160156 L 2.585938 23.160156 C 4.917969 27.386719 9.175781 30.527344 14.023438 31.214844 "/>
<path style=" stroke:none;fill-rule:nonzero;fill:rgb(76.862745%,80.784314%,83.137255%);fill-opacity:1;" d="M 25.339844 10.933594 C 24.683594 9.730469 23.804688 8.664062 22.757812 7.796875 C 22.558594 7.636719 22.355469 7.480469 22.144531 7.332031 C 20.410156 6.097656 18.292969 5.363281 16 5.359375 L 15.980469 5.359375 C 10.292969 5.363281 5.648438 9.824219 5.355469 15.4375 C 5.34375 15.617188 5.339844 15.800781 5.339844 15.984375 L 5.339844 16.003906 C 5.339844 17.472656 5.636719 18.871094 6.175781 20.140625 C 6.242188 20.300781 6.3125 20.457031 6.386719 20.613281 C 6.984375 21.851562 7.816406 22.957031 8.820312 23.875 C 9.074219 24.105469 9.335938 24.320312 9.609375 24.523438 C 11.382812 25.851562 13.582031 26.640625 15.96875 26.644531 L 15.984375 26.644531 C 17.265625 26.640625 18.5 26.414062 19.636719 25.996094 C 23.707031 24.507812 26.613281 20.601562 26.621094 16.015625 L 26.621094 16 C 26.621094 14.535156 26.324219 13.136719 25.785156 11.863281 C 25.652344 11.546875 25.5 11.234375 25.339844 10.933594 "/>
<path style=" stroke:none;fill-rule:nonzero;fill:rgb(100%,100%,100%);fill-opacity:1;" d="M 16.296875 1.605469 C 16.296875 1.605469 16.507812 1.753906 16.484375 1.945312 L 16.21875 4.320312 L 16.761719 4.382812 C 16.867188 4.394531 16.949219 4.394531 16.992188 4.320312 C 16.992188 4.320312 17.058594 3.722656 17.132812 3.054688 L 17.683594 4.261719 C 17.765625 4.460938 17.585938 4.472656 17.585938 4.472656 L 17.75 4.496094 L 18.289062 4.554688 C 18.394531 4.566406 18.476562 4.570312 18.519531 4.496094 L 18.8125 1.890625 L 18.050781 1.804688 L 17.839844 1.78125 C 17.839844 1.78125 18.035156 1.921875 18.015625 2.109375 L 17.902344 3.121094 L 17.253906 1.761719 C 17.238281 1.726562 17.207031 1.707031 17.164062 1.703125 C 17.070312 1.691406 16.523438 1.628906 16.523438 1.628906 Z M 15.902344 1.636719 C 15.824219 1.636719 15.527344 1.660156 15.214844 1.671875 C 15.136719 1.6875 15 1.6875 15.03125 2.003906 L 15.15625 4.378906 L 15.921875 4.339844 L 15.980469 4.324219 C 15.980469 4.324219 15.925781 4.234375 15.910156 4.085938 C 15.910156 4.085938 15.789062 1.933594 15.789062 1.835938 C 15.789062 1.734375 15.902344 1.636719 15.902344 1.636719 Z M 14.292969 1.699219 L 13.320312 1.902344 C 13.320312 1.902344 13.5625 1.980469 13.605469 2.167969 L 13.605469 2.175781 L 13.746094 2.847656 L 13.214844 2.957031 C 13.058594 2.992188 13.023438 3.148438 13.023438 3.148438 L 12.796875 2.011719 L 11.878906 2.199219 C 11.878906 2.199219 12.070312 2.289062 12.109375 2.476562 L 12.113281 2.484375 L 12.597656 4.816406 L 13.132812 4.707031 C 13.238281 4.683594 13.3125 4.660156 13.332031 4.578125 L 13.136719 3.640625 L 13.878906 3.488281 L 14.089844 4.507812 L 14.625 4.398438 C 14.730469 4.375 14.808594 4.351562 14.824219 4.269531 Z M 19.75 2.195312 C 19.703125 2.199219 19.664062 2.207031 19.628906 2.21875 C 19.484375 2.273438 19.359375 2.449219 19.257812 2.746094 L 18.871094 3.859375 C 18.824219 3.988281 18.796875 4.097656 18.785156 4.1875 C 18.765625 4.363281 18.804688 4.496094 18.90625 4.589844 C 19.003906 4.683594 19.1875 4.78125 19.460938 4.875 L 19.9375 5.039062 C 20.28125 5.15625 20.523438 5.191406 20.667969 5.136719 C 20.808594 5.082031 20.933594 4.90625 21.035156 4.609375 C 21.035156 4.609375 21.21875 4.085938 21.246094 4.007812 C 21.292969 3.863281 21.183594 3.773438 21.121094 3.753906 L 20.230469 3.441406 C 20.125 3.40625 20.058594 3.484375 20.019531 3.554688 C 19.984375 3.621094 19.851562 4.003906 19.851562 4.003906 L 19.804688 4.121094 C 19.804688 4.121094 19.90625 4.023438 20.042969 4.070312 L 20.367188 4.183594 C 20.320312 4.304688 20.265625 4.371094 20.207031 4.390625 C 20.15625 4.40625 20.046875 4.386719 19.882812 4.328125 C 19.882812 4.328125 19.765625 4.285156 19.734375 4.265625 C 19.65625 4.214844 19.621094 4.148438 19.632812 4.0625 C 19.636719 4.015625 19.65625 3.949219 19.683594 3.863281 L 19.898438 3.246094 C 19.957031 3.078125 20.015625 2.988281 20.074219 2.96875 C 20.136719 2.949219 20.25 2.96875 20.414062 3.027344 L 21.226562 3.308594 C 21.375 3.359375 21.402344 3.550781 21.402344 3.550781 L 21.457031 3.386719 L 21.601562 2.972656 C 21.644531 2.8125 21.542969 2.726562 21.40625 2.679688 L 20.351562 2.316406 C 20.09375 2.226562 19.898438 2.1875 19.75 2.195312 Z M 11.25 2.398438 C 11.214844 2.394531 11.179688 2.398438 11.148438 2.414062 L 10.226562 2.796875 C 9.894531 2.9375 9.691406 3.074219 9.621094 3.207031 C 9.550781 3.34375 9.578125 3.558594 9.699219 3.847656 L 9.804688 4.097656 C 9.820312 4.132812 9.839844 4.167969 9.863281 4.199219 C 9.949219 4.324219 10.066406 4.402344 10.21875 4.445312 C 10.398438 4.492188 10.605469 4.464844 10.839844 4.367188 L 11.199219 4.21875 C 11.339844 4.160156 11.441406 4.175781 11.5 4.265625 C 11.515625 4.285156 11.523438 4.3125 11.523438 4.339844 C 11.523438 4.339844 11.566406 4.46875 11.277344 4.585938 L 10.554688 4.886719 C 10.394531 4.941406 10.160156 4.789062 10.160156 4.789062 C 10.160156 4.789062 10.308594 5.140625 10.398438 5.359375 C 10.453125 5.488281 10.617188 5.570312 10.746094 5.515625 L 10.820312 5.484375 L 11.316406 5.277344 L 11.679688 5.125 C 12.011719 4.988281 12.210938 4.851562 12.28125 4.714844 C 12.351562 4.578125 12.320312 4.382812 12.203125 4.09375 C 12.203125 4.09375 12.109375 3.878906 12.078125 3.820312 C 11.902344 3.484375 11.539062 3.371094 11.167969 3.523438 L 10.753906 3.699219 C 10.601562 3.761719 10.496094 3.75 10.4375 3.664062 C 10.4375 3.660156 10.417969 3.625 10.417969 3.621094 C 10.398438 3.558594 10.351562 3.449219 10.574219 3.359375 L 11.328125 3.042969 C 11.488281 2.976562 11.734375 3.140625 11.734375 3.140625 C 11.734375 3.140625 11.585938 2.785156 11.496094 2.566406 C 11.457031 2.472656 11.355469 2.402344 11.25 2.398438 Z M 22.042969 2.976562 C 21.984375 2.972656 21.945312 3.019531 21.925781 3.046875 C 21.902344 3.085938 21.671875 3.496094 21.671875 3.496094 L 21.566406 3.679688 C 21.566406 3.679688 21.722656 3.527344 21.902344 3.628906 L 22.304688 3.863281 L 21.277344 5.636719 L 22 6.054688 C 22 6.054688 22.003906 5.9375 22.070312 5.804688 C 22.070312 5.804688 22.636719 4.816406 22.964844 4.242188 L 23.277344 4.421875 C 23.453125 4.527344 23.445312 4.804688 23.445312 4.804688 L 23.613281 4.511719 L 23.894531 4.027344 L 22.761719 3.371094 C 22.761719 3.371094 22.753906 3.367188 22.75 3.363281 L 22.109375 2.992188 C 22.085938 2.980469 22.0625 2.976562 22.042969 2.976562 Z M 7.949219 4.082031 L 7.5 4.398438 C 7.410156 4.464844 7.367188 4.523438 7.378906 4.621094 L 8.140625 6.9375 C 8.1875 7.085938 8.011719 7.347656 8.011719 7.347656 L 8.804688 6.789062 C 8.875 6.742188 8.890625 6.65625 8.867188 6.578125 L 8.753906 6.25 L 9.359375 5.828125 L 9.59375 5.976562 C 9.730469 6.085938 9.632812 6.210938 9.632812 6.210938 L 10.503906 5.601562 Z M 24.285156 4.539062 C 24.128906 4.542969 23.957031 4.667969 23.765625 4.914062 L 23.035156 5.839844 C 22.949219 5.949219 22.886719 6.046875 22.847656 6.125 C 22.773438 6.285156 22.765625 6.421875 22.828125 6.542969 C 22.890625 6.667969 23.035156 6.816406 23.261719 6.996094 L 23.65625 7.304688 C 23.945312 7.53125 24.164062 7.640625 24.316406 7.636719 C 24.46875 7.628906 24.640625 7.503906 24.835938 7.257812 L 25.566406 6.332031 C 25.648438 6.222656 25.714844 6.128906 25.753906 6.046875 C 25.832031 5.890625 25.835938 5.75 25.765625 5.621094 C 25.707031 5.503906 25.5625 5.355469 25.332031 5.175781 L 24.9375 4.863281 C 24.65625 4.640625 24.4375 4.535156 24.285156 4.539062 Z M 6.636719 4.863281 L 6.558594 4.957031 L 6.132812 5.441406 C 6.132812 5.441406 6.132812 5.445312 6.128906 5.449219 C 6.070312 5.511719 6.027344 5.570312 6.035156 5.628906 L 7.117188 7.300781 L 5.589844 6.476562 C 5.398438 6.398438 5.476562 6.183594 5.476562 6.183594 L 5.324219 6.359375 L 5.011719 6.710938 C 5.011719 6.714844 5.007812 6.71875 5.003906 6.722656 C 4.925781 6.808594 4.886719 6.902344 4.929688 6.996094 L 6.023438 8.539062 L 4.492188 7.75 C 4.296875 7.648438 4.382812 7.429688 4.382812 7.429688 L 4.21875 7.609375 L 3.859375 8.019531 C 3.859375 8.023438 3.855469 8.023438 3.851562 8.03125 C 3.769531 8.121094 3.75 8.257812 3.828125 8.324219 C 3.839844 8.332031 3.832031 8.328125 3.832031 8.328125 L 6.207031 9.441406 L 6.765625 8.808594 C 6.84375 8.722656 6.863281 8.679688 6.828125 8.585938 L 6.378906 7.75 L 7.300781 8.203125 L 7.894531 7.53125 C 7.96875 7.445312 7.980469 7.328125 7.949219 7.238281 L 6.683594 5.125 C 6.601562 4.980469 6.636719 4.863281 6.636719 4.863281 Z M 8.367188 5.207031 L 8.734375 5.449219 L 8.515625 5.609375 Z M 24.464844 5.390625 C 24.519531 5.394531 24.613281 5.445312 24.734375 5.535156 C 24.808594 5.59375 24.867188 5.644531 24.886719 5.671875 C 24.945312 5.742188 24.957031 5.816406 24.917969 5.894531 C 24.898438 5.9375 24.859375 5.992188 24.800781 6.0625 L 24.394531 6.574219 C 24.285156 6.714844 24.199219 6.78125 24.125 6.78125 C 24.078125 6.78125 23.988281 6.726562 23.871094 6.640625 C 23.796875 6.582031 23.738281 6.53125 23.71875 6.507812 C 23.660156 6.433594 23.652344 6.359375 23.6875 6.285156 C 23.710938 6.238281 23.75 6.183594 23.804688 6.109375 L 24.207031 5.597656 C 24.316406 5.460938 24.402344 5.390625 24.464844 5.390625 Z M 15.996094 5.628906 C 10.277344 5.628906 5.640625 10.265625 5.640625 15.984375 C 5.640625 21.703125 10.277344 26.339844 15.996094 26.339844 C 21.714844 26.339844 26.351562 21.703125 26.351562 15.984375 C 26.351562 10.265625 21.714844 5.628906 15.996094 5.628906 Z M 26.390625 6.171875 C 26.390625 6.171875 26.429688 6.425781 26.28125 6.542969 L 24.394531 8.015625 L 24.734375 8.445312 C 24.796875 8.53125 24.855469 8.589844 24.9375 8.570312 C 24.9375 8.570312 25.410156 8.199219 25.941406 7.78125 L 25.464844 9.019531 C 25.378906 9.21875 25.246094 9.101562 25.246094 9.101562 L 25.339844 9.230469 L 25.34375 9.230469 L 25.675781 9.660156 C 25.746094 9.742188 25.800781 9.800781 25.878906 9.78125 L 27.945312 8.164062 L 27.476562 7.5625 L 27.34375 7.398438 C 27.34375 7.398438 27.382812 7.632812 27.230469 7.75 L 26.429688 8.378906 L 26.949219 6.964844 C 26.960938 6.929688 26.957031 6.894531 26.929688 6.859375 C 26.871094 6.785156 26.53125 6.347656 26.53125 6.347656 Z M 3.578125 10.390625 L 3.21875 11.492188 L 2.0625 11.492188 L 3 12.171875 L 2.640625 13.273438 L 3.578125 12.59375 L 4.515625 13.273438 L 4.15625 12.171875 L 5.09375 11.492188 L 3.9375 11.492188 Z M 28.382812 10.535156 L 28.027344 11.636719 L 26.867188 11.636719 L 27.804688 12.320312 L 27.449219 13.421875 L 28.382812 12.742188 L 29.320312 13.421875 L 28.964844 12.320312 L 29.902344 11.636719 L 28.742188 11.636719 Z M 23.855469 24.570312 C 23.832031 24.566406 23.804688 24.566406 23.777344 24.570312 C 23.742188 24.574219 23.710938 24.589844 23.679688 24.609375 L 22.859375 25.175781 C 22.5625 25.382812 22.394531 25.554688 22.355469 25.703125 C 22.3125 25.851562 22.386719 26.054688 22.5625 26.3125 L 22.71875 26.535156 C 22.742188 26.566406 22.765625 26.597656 22.796875 26.625 C 22.902344 26.726562 23.035156 26.78125 23.191406 26.789062 C 23.378906 26.796875 23.578125 26.730469 23.785156 26.585938 L 24.105469 26.363281 C 24.230469 26.277344 24.332031 26.273438 24.410156 26.347656 C 24.429688 26.367188 24.441406 26.390625 24.449219 26.417969 C 24.449219 26.417969 24.515625 26.53125 24.261719 26.707031 L 23.617188 27.152344 C 23.46875 27.238281 23.207031 27.136719 23.207031 27.136719 C 23.207031 27.136719 23.425781 27.453125 23.5625 27.644531 C 23.636719 27.757812 23.8125 27.808594 23.933594 27.726562 L 23.996094 27.679688 L 24.441406 27.375 L 24.761719 27.152344 C 25.058594 26.949219 25.226562 26.773438 25.265625 26.625 C 25.308594 26.476562 25.238281 26.292969 25.058594 26.035156 C 25.058594 26.035156 24.925781 25.84375 24.882812 25.792969 C 24.640625 25.503906 24.261719 25.464844 23.929688 25.691406 L 23.558594 25.949219 C 23.425781 26.039062 23.320312 26.050781 23.246094 25.980469 C 23.242188 25.976562 23.21875 25.945312 23.21875 25.941406 C 23.1875 25.882812 23.117188 25.789062 23.316406 25.652344 L 23.988281 25.191406 C 24.132812 25.089844 24.40625 25.195312 24.40625 25.195312 L 24.050781 24.6875 C 24.007812 24.625 23.933594 24.582031 23.855469 24.570312 Z M 7.664062 24.613281 C 7.609375 24.617188 7.5625 24.640625 7.535156 24.683594 C 7.527344 24.699219 7.53125 24.691406 7.53125 24.691406 L 6.683594 27.132812 L 7.398438 27.585938 C 7.492188 27.644531 7.542969 27.660156 7.628906 27.609375 L 8.382812 27.03125 L 8.078125 28.015625 L 8.839844 28.496094 C 8.933594 28.554688 9.050781 28.546875 9.136719 28.503906 L 10.898438 26.84375 C 11.027344 26.738281 11.152344 26.753906 11.152344 26.753906 L 11.042969 26.691406 L 10.5 26.347656 C 10.496094 26.34375 10.496094 26.34375 10.492188 26.34375 C 10.417969 26.296875 10.355469 26.265625 10.296875 26.277344 L 9.101562 27.445312 L 9.539062 26.035156 C 9.566406 25.898438 9.785156 25.894531 9.785156 25.894531 L 9.589844 25.773438 L 9.1875 25.519531 C 9.1875 25.519531 9.183594 25.519531 9.183594 25.515625 C 9.078125 25.453125 8.984375 25.425781 8.894531 25.484375 L 7.664062 26.625 L 8.203125 25.25 C 8.273438 25.039062 8.507812 25.089844 8.507812 25.089844 L 8.300781 24.957031 L 7.839844 24.667969 C 7.835938 24.667969 7.835938 24.664062 7.828125 24.660156 C 7.777344 24.628906 7.71875 24.613281 7.664062 24.613281 Z M 21.703125 26.132812 C 21.609375 26.140625 21.488281 26.171875 21.34375 26.238281 L 19.539062 27.015625 C 19.539062 27.015625 19.789062 27.0625 19.878906 27.21875 L 20.714844 29.152344 C 20.75 29.289062 20.699219 29.433594 20.675781 29.464844 L 22.433594 28.710938 C 22.675781 28.609375 22.8125 28.496094 22.851562 28.375 C 22.890625 28.257812 22.847656 28.050781 22.722656 27.765625 L 22.203125 26.625 C 22.144531 26.496094 22.121094 26.449219 22.082031 26.375 C 22 26.222656 21.894531 26.152344 21.789062 26.136719 C 21.761719 26.132812 21.734375 26.128906 21.703125 26.132812 Z M 11.480469 26.808594 C 11.410156 26.804688 11.320312 26.832031 11.25 27.058594 L 10.472656 29.304688 L 11.195312 29.558594 L 11.253906 29.5625 C 11.253906 29.5625 11.238281 29.464844 11.277344 29.320312 C 11.277344 29.320312 11.980469 27.28125 12.019531 27.191406 C 12.054688 27.097656 12.195312 27.046875 12.195312 27.046875 C 12.125 27.019531 11.84375 26.929688 11.546875 26.820312 C 11.527344 26.816406 11.507812 26.8125 11.480469 26.808594 Z M 21.445312 26.910156 C 21.460938 26.910156 21.476562 26.914062 21.492188 26.917969 C 21.523438 26.933594 21.550781 26.957031 21.578125 26.996094 C 21.609375 27.050781 22.058594 28.046875 22.050781 28.101562 C 22.046875 28.152344 22.019531 28.191406 21.96875 28.214844 L 21.277344 28.515625 L 20.871094 27.582031 C 20.847656 27.519531 20.785156 27.378906 20.714844 27.21875 L 21.390625 26.925781 C 21.410156 26.917969 21.425781 26.914062 21.445312 26.910156 Z M 12.582031 27.183594 C 12.460938 27.195312 12.40625 27.289062 12.371094 27.40625 L 12.289062 27.765625 L 12.292969 27.765625 L 12.257812 27.914062 C 12.257812 27.914062 12.402344 27.804688 12.566406 27.828125 L 13.488281 28.03125 L 11.945312 29.332031 L 11.851562 29.765625 L 13.863281 30.207031 C 13.992188 30.238281 14.078125 30.242188 14.125 30.113281 L 14.269531 29.445312 C 14.269531 29.445312 14.121094 29.59375 13.953125 29.566406 L 12.980469 29.347656 L 14.558594 28.140625 L 14.671875 27.628906 C 14.671875 27.628906 12.667969 27.1875 12.636719 27.1875 C 12.617188 27.183594 12.597656 27.183594 12.582031 27.183594 Z M 19.09375 27.203125 C 19.019531 27.203125 18.929688 27.210938 18.824219 27.230469 L 16.90625 27.59375 C 16.90625 27.59375 17.148438 27.683594 17.191406 27.867188 L 17.617188 30.207031 L 18.152344 30.105469 C 18.257812 30.085938 18.335938 30.066406 18.355469 29.984375 L 18.210938 29.191406 L 18.582031 29.117188 L 19.230469 29.902344 L 20.1875 29.722656 C 20.1875 29.722656 20.019531 29.683594 19.929688 29.59375 L 19.347656 28.953125 C 19.480469 28.917969 19.589844 28.84375 19.632812 28.777344 C 19.695312 28.667969 19.699219 28.460938 19.644531 28.152344 C 19.644531 28.152344 19.535156 27.613281 19.511719 27.53125 C 19.46875 27.367188 19.378906 27.269531 19.28125 27.234375 C 19.230469 27.214844 19.171875 27.203125 19.09375 27.203125 Z M 15.507812 27.605469 C 15.394531 27.605469 15.332031 27.632812 15.28125 27.714844 L 14.578125 30.050781 C 14.535156 30.199219 14.238281 30.3125 14.238281 30.3125 L 15.207031 30.3125 C 15.292969 30.3125 15.355469 30.253906 15.382812 30.171875 L 15.476562 29.839844 L 16.214844 29.839844 L 16.324219 30.097656 C 16.371094 30.265625 16.21875 30.3125 16.21875 30.3125 L 17.285156 30.3125 L 16.058594 27.605469 Z M 18.773438 27.910156 C 18.824219 27.917969 18.859375 27.957031 18.882812 28.027344 C 18.902344 28.082031 18.933594 28.277344 18.914062 28.332031 C 18.898438 28.378906 18.863281 28.410156 18.808594 28.421875 L 18.367188 28.507812 C 18.265625 28.527344 18.191406 28.632812 18.132812 28.757812 L 18 28.050781 L 18.71875 27.910156 C 18.738281 27.910156 18.757812 27.910156 18.773438 27.910156 Z M 15.789062 28.78125 L 15.941406 29.191406 L 15.671875 29.191406 Z M 15.789062 28.78125 "/>
<path style=" stroke:none;fill-rule:nonzero;fill:rgb(89.019608%,9.411765%,21.568627%);fill-opacity:1;" d="M 15.988281 6.492188 C 15.300781 6.492188 14.628906 6.566406 13.980469 6.703125 C 14.457031 6.953125 14.933594 7.402344 15.238281 8.230469 L 15.988281 7.125 L 16.738281 8.230469 C 17.039062 7.40625 17.511719 6.953125 17.988281 6.707031 C 17.34375 6.566406 16.675781 6.492188 15.988281 6.492188 Z M 12.988281 6.976562 C 10.210938 7.902344 8.003906 10.085938 7.046875 12.851562 C 8.320312 10.941406 10.8125 8.765625 14.617188 8.335938 C 14.28125 7.53125 13.601562 7.152344 12.988281 6.976562 Z M 18.972656 6.976562 C 18.363281 7.15625 17.6875 7.535156 17.355469 8.335938 C 21.132812 8.761719 23.613281 10.90625 24.898438 12.808594 C 23.933594 10.0625 21.738281 7.898438 18.972656 6.976562 Z M 18.972656 6.976562 "/>
<path style=" stroke:none;fill-rule:nonzero;fill:rgb(0%,16.862745%,36.078431%);fill-opacity:1;" d="M 19.234375 9.441406 C 18.890625 9.449219 18.730469 9.5625 18.730469 9.5625 L 17.628906 10.179688 L 17.6875 10.382812 L 17.925781 11.257812 C 17.925781 11.257812 18.378906 12.511719 19.457031 13.589844 C 21.488281 15.597656 24.082031 18.535156 23.816406 21.222656 C 24.804688 19.757812 25.390625 18.003906 25.425781 16.113281 C 25.261719 15.160156 24.957031 14.320312 24.574219 13.585938 C 23.867188 12.226562 22.496094 10.941406 20.8125 9.949219 C 20.09375 9.53125 19.574219 9.433594 19.234375 9.441406 Z M 12.738281 9.445312 C 12.398438 9.4375 11.878906 9.53125 11.160156 9.949219 C 9.476562 10.941406 8.109375 12.226562 7.398438 13.589844 C 7.007812 14.34375 6.695312 15.210938 6.535156 16.199219 C 6.585938 18.066406 7.175781 19.800781 8.15625 21.246094 C 7.878906 18.554688 10.480469 15.605469 12.515625 13.589844 C 13.59375 12.515625 14.046875 11.257812 14.046875 11.257812 L 14.285156 10.382812 L 14.34375 10.179688 L 13.242188 9.5625 C 13.242188 9.5625 13.082031 9.449219 12.738281 9.445312 Z M 15.988281 11.433594 C 15.878906 11.511719 12.390625 14.023438 10.851562 16.507812 C 8.78125 19.863281 9.050781 21.796875 9.585938 22.898438 C 10.921875 24.128906 12.613281 24.976562 14.488281 25.273438 L 15.296875 13.816406 L 15.96875 13.140625 L 15.980469 13.132812 L 15.988281 13.140625 L 16.660156 13.816406 L 17.476562 25.265625 L 17.464844 25.273438 C 19.355469 24.972656 21.058594 24.117188 22.398438 22.875 C 22.925781 21.765625 23.175781 19.835938 21.121094 16.507812 C 19.582031 14.023438 16.097656 11.511719 15.984375 11.433594 Z M 15.988281 11.433594 "/>
<path style=" stroke:none;fill-rule:nonzero;fill:rgb(76.862745%,80.784314%,83.137255%);fill-opacity:1;" d="M 15.984375 7.859375 L 15.875 8.082031 L 15.65625 8.53125 L 15.644531 8.550781 L 15.636719 8.566406 L 15.519531 8.808594 L 15.507812 8.832031 L 15.507812 8.835938 L 15.210938 8.851562 C 14.792969 8.878906 14.378906 8.9375 13.96875 9.007812 C 13.789062 9.039062 13.605469 9.066406 13.425781 9.105469 L 14.582031 9.730469 L 14.761719 9.824219 L 14.941406 9.921875 L 14.835938 10.316406 L 14.828125 10.335938 L 14.777344 10.519531 L 14.457031 11.691406 L 15.191406 11.148438 L 15.6875 10.78125 L 15.835938 10.671875 L 15.980469 10.5625 L 15.980469 10.558594 L 15.984375 10.5625 L 15.988281 10.558594 L 15.988281 10.5625 L 16.285156 10.78125 L 17.515625 11.691406 L 17.195312 10.519531 L 17.164062 10.417969 L 17.136719 10.316406 L 17.03125 9.921875 L 17.144531 9.859375 L 17.386719 9.730469 L 18.171875 9.308594 L 18.546875 9.105469 C 18.367188 9.066406 18.183594 9.039062 18 9.007812 C 17.589844 8.9375 17.179688 8.878906 16.761719 8.851562 L 16.464844 8.835938 L 16.460938 8.820312 L 16.453125 8.808594 L 16.335938 8.566406 L 16.328125 8.554688 Z M 15.988281 13.140625 L 15.996094 26.109375 L 17.464844 25.269531 L 17.476562 25.265625 L 16.660156 13.816406 Z M 15.988281 13.140625 "/>
</g>
</svg>
