<?xml version="1.0" encoding="UTF-8"?>
<svg xmlns="http://www.w3.org/2000/svg" xmlns:xlink="http://www.w3.org/1999/xlink" width="32px" height="32px" viewBox="0 0 32 42" version="1.1">
<g id="surface1">
<path style=" stroke:none;fill-rule:nonzero;fill:rgb(0%,0%,0%);fill-opacity:1;" d="M 4.679688 36.605469 C 4.679688 36.839844 4.660156 37.261719 4.175781 37.414062 C 4.015625 37.453125 3.851562 37.472656 3.6875 37.472656 L 3.300781 37.472656 L 3.300781 34.953125 L 3.882812 34.953125 C 4.195312 34.972656 4.523438 34.972656 4.621094 35.261719 C 4.648438 35.386719 4.667969 35.515625 4.679688 35.644531 Z M 3.320312 38.144531 L 3.726562 38.144531 C 4.25 38.164062 4.699219 38.222656 4.871094 38.664062 C 4.910156 38.824219 4.929688 38.984375 4.929688 39.148438 L 4.929688 40.183594 C 4.929688 40.683594 4.890625 40.917969 4.699219 41.070312 C 4.582031 41.167969 4.445312 41.203125 4.078125 41.222656 L 3.320312 41.222656 Z M 5.28125 37.972656 C 5.164062 37.878906 5.035156 37.804688 4.890625 37.761719 C 5.113281 37.644531 5.28125 37.441406 5.355469 37.203125 C 5.398438 37.035156 5.417969 36.859375 5.414062 36.683594 L 5.414062 35.570312 C 5.394531 35.261719 5.375 34.914062 5.144531 34.664062 C 4.894531 34.410156 4.546875 34.277344 4.195312 34.300781 L 2.679688 34.300781 C 2.613281 34.304688 2.5625 34.363281 2.5625 34.433594 L 2.5625 41.800781 C 2.5625 41.878906 2.601562 41.9375 2.679688 41.9375 L 4.230469 41.9375 C 4.613281 41.953125 4.984375 41.828125 5.28125 41.589844 C 5.628906 41.261719 5.6875 40.878906 5.6875 40.453125 L 5.6875 39.183594 C 5.6875 38.761719 5.6875 38.300781 5.28125 37.972656 Z M 5.28125 37.972656 "/>
<path style=" stroke:none;fill-rule:nonzero;fill:rgb(0%,0%,0%);fill-opacity:1;" d="M 8.460938 35.820312 L 8.460938 36.972656 C 8.460938 37.125 8.460938 37.453125 8.089844 37.570312 C 7.964844 37.625 7.824219 37.652344 7.683594 37.644531 L 6.851562 37.644531 L 6.851562 34.953125 L 7.703125 34.953125 C 7.871094 34.945312 8.039062 34.980469 8.1875 35.050781 C 8.441406 35.183594 8.441406 35.511719 8.460938 35.820312 Z M 8.246094 38.242188 C 8.304688 38.222656 8.34375 38.203125 8.402344 38.183594 C 8.785156 38.046875 9.078125 37.730469 9.175781 37.339844 C 9.21875 37.175781 9.238281 37.007812 9.234375 36.839844 L 9.234375 35.625 C 9.214844 35.414062 9.214844 34.914062 8.789062 34.566406 C 8.441406 34.300781 8.054688 34.300781 7.664062 34.28125 L 6.210938 34.28125 C 6.152344 34.285156 6.109375 34.335938 6.113281 34.394531 L 6.113281 41.78125 C 6.109375 41.839844 6.152344 41.890625 6.210938 41.898438 L 6.734375 41.898438 C 6.765625 41.898438 6.796875 41.886719 6.816406 41.863281 C 6.839844 41.84375 6.851562 41.8125 6.851562 41.78125 L 6.851562 38.300781 L 7.472656 38.300781 L 8.789062 41.820312 C 8.808594 41.867188 8.855469 41.898438 8.90625 41.898438 L 9.449219 41.898438 C 9.511719 41.894531 9.5625 41.84375 9.566406 41.78125 C 9.566406 41.742188 9.566406 41.722656 9.546875 41.703125 Z M 8.246094 38.242188 "/>
<path style=" stroke:none;fill-rule:nonzero;fill:rgb(0%,0%,0%);fill-opacity:1;" d="M 10.417969 35.914062 C 10.417969 35.492188 10.535156 35.203125 10.808594 35.03125 C 10.953125 34.929688 11.132812 34.875 11.3125 34.875 C 11.46875 34.871094 11.621094 34.910156 11.757812 34.992188 C 11.878906 35.0625 11.976562 35.160156 12.046875 35.28125 C 12.183594 35.550781 12.222656 35.894531 12.222656 36.472656 L 12.222656 40.070312 C 12.203125 40.453125 12.183594 40.878906 11.835938 41.128906 C 11.691406 41.246094 11.515625 41.304688 11.332031 41.300781 C 10.980469 41.320312 10.652344 41.121094 10.515625 40.800781 C 10.449219 40.539062 10.421875 40.265625 10.4375 39.992188 Z M 12.359375 34.492188 C 12.054688 34.289062 11.695312 34.191406 11.332031 34.203125 L 11.292969 34.203125 C 10.574219 34.203125 9.992188 34.566406 9.796875 35.164062 C 9.722656 35.414062 9.679688 35.671875 9.664062 35.933594 L 9.664062 40.203125 C 9.683594 40.609375 9.703125 41.070312 10.03125 41.492188 C 10.398438 41.9375 11.019531 41.992188 11.273438 41.992188 C 12.183594 41.992188 12.550781 41.511719 12.667969 41.300781 C 12.882812 40.972656 12.902344 40.648438 12.921875 40.261719 L 12.921875 36.203125 C 12.941406 35.605469 12.941406 34.914062 12.359375 34.492188 Z M 12.359375 34.492188 "/>
<path style=" stroke:none;fill-rule:nonzero;fill:rgb(0%,0%,0%);fill-opacity:1;" d="M 14.125 35.914062 C 14.125 35.492188 14.238281 35.203125 14.492188 35.03125 C 14.640625 34.9375 14.816406 34.890625 14.996094 34.894531 C 15.160156 34.882812 15.324219 34.921875 15.460938 35.011719 C 15.582031 35.078125 15.683594 35.179688 15.753906 35.300781 C 15.886719 35.550781 15.90625 35.914062 15.90625 36.492188 L 15.90625 40.070312 C 15.90625 40.472656 15.886719 40.898438 15.539062 41.148438 C 15.394531 41.257812 15.214844 41.3125 15.035156 41.300781 C 14.683594 41.324219 14.355469 41.132812 14.199219 40.820312 C 14.132812 40.554688 14.105469 40.285156 14.125 40.011719 Z M 16.042969 34.492188 C 15.746094 34.289062 15.394531 34.1875 15.035156 34.203125 L 14.996094 34.203125 C 14.257812 34.203125 13.695312 34.566406 13.484375 35.164062 C 13.414062 35.414062 13.375 35.675781 13.367188 35.933594 L 13.367188 40.203125 C 13.386719 40.628906 13.386719 41.089844 13.714844 41.511719 C 14.105469 41.957031 14.703125 41.992188 14.976562 41.992188 C 15.867188 41.992188 16.257812 41.511719 16.371094 41.300781 C 16.585938 40.972656 16.605469 40.648438 16.625 40.28125 L 16.625 36.203125 C 16.625 35.605469 16.625 34.914062 16.042969 34.492188 Z M 16.042969 34.492188 "/>
<path style=" stroke:none;fill-rule:nonzero;fill:rgb(0%,0%,0%);fill-opacity:1;" d="M 18.660156 37.300781 L 20.210938 34.394531 C 20.230469 34.367188 20.230469 34.328125 20.210938 34.300781 C 20.195312 34.261719 20.15625 34.242188 20.117188 34.242188 L 19.535156 34.242188 C 19.492188 34.242188 19.457031 34.261719 19.4375 34.300781 L 17.789062 37.472656 L 17.789062 34.335938 C 17.789062 34.304688 17.777344 34.277344 17.757812 34.253906 C 17.734375 34.234375 17.703125 34.21875 17.671875 34.222656 L 17.148438 34.222656 C 17.085938 34.226562 17.035156 34.277344 17.03125 34.335938 L 17.03125 41.722656 C 17.03125 41.753906 17.042969 41.785156 17.066406 41.808594 C 17.085938 41.828125 17.117188 41.839844 17.148438 41.839844 L 17.652344 41.839844 C 17.722656 41.84375 17.78125 41.792969 17.789062 41.722656 L 17.789062 38.953125 L 18.195312 38.183594 L 19.457031 41.761719 C 19.480469 41.804688 19.523438 41.832031 19.574219 41.839844 L 20.136719 41.839844 C 20.203125 41.832031 20.253906 41.773438 20.25 41.703125 C 20.25 41.6875 20.230469 41.667969 20.230469 41.648438 Z M 18.660156 37.300781 "/>
<path style=" stroke:none;fill-rule:nonzero;fill:rgb(0%,0%,0%);fill-opacity:1;" d="M 23.121094 41.203125 L 21.300781 41.203125 L 21.300781 34.394531 C 21.292969 34.332031 21.246094 34.285156 21.183594 34.28125 L 20.660156 34.28125 C 20.597656 34.285156 20.546875 34.332031 20.542969 34.394531 L 20.542969 41.78125 C 20.546875 41.84375 20.597656 41.894531 20.660156 41.898438 L 23.121094 41.898438 C 23.183594 41.894531 23.234375 41.84375 23.238281 41.78125 L 23.238281 41.320312 C 23.234375 41.257812 23.183594 41.210938 23.121094 41.203125 Z M 23.121094 41.203125 "/>
<path style=" stroke:none;fill-rule:nonzero;fill:rgb(0%,0%,0%);fill-opacity:1;" d="M 25.894531 34.28125 L 25.332031 34.28125 C 25.28125 34.28125 25.238281 34.3125 25.214844 34.355469 L 24.148438 37.511719 L 23.082031 34.355469 C 23.070312 34.304688 23.019531 34.273438 22.964844 34.28125 L 22.421875 34.28125 C 22.382812 34.277344 22.34375 34.300781 22.328125 34.335938 C 22.3125 34.367188 22.304688 34.398438 22.308594 34.433594 L 23.761719 38.53125 L 23.761719 41.78125 C 23.769531 41.851562 23.828125 41.902344 23.898438 41.898438 L 24.402344 41.898438 C 24.433594 41.898438 24.464844 41.886719 24.484375 41.863281 C 24.507812 41.84375 24.519531 41.8125 24.519531 41.78125 L 24.519531 38.53125 L 26.03125 34.433594 C 26.050781 34.40625 26.050781 34.367188 26.03125 34.335938 C 25.992188 34.304688 25.945312 34.285156 25.894531 34.28125 Z M 25.894531 34.28125 "/>
<path style=" stroke:none;fill-rule:nonzero;fill:rgb(0%,0%,0%);fill-opacity:1;" d="M 29.328125 34.28125 L 28.804688 34.28125 C 28.773438 34.28125 28.746094 34.292969 28.726562 34.316406 C 28.707031 34.339844 28.691406 34.367188 28.6875 34.394531 L 28.726562 39.78125 C 28.726562 39.933594 28.746094 40.070312 28.746094 40.222656 L 28.746094 40.472656 L 27.195312 34.375 C 27.191406 34.324219 27.148438 34.28125 27.097656 34.28125 L 26.320312 34.28125 C 26.257812 34.285156 26.210938 34.332031 26.207031 34.394531 L 26.207031 41.78125 C 26.203125 41.8125 26.214844 41.84375 26.238281 41.863281 C 26.261719 41.886719 26.289062 41.898438 26.320312 41.898438 L 26.828125 41.898438 C 26.863281 41.898438 26.882812 41.898438 26.902344 41.878906 C 26.921875 41.839844 26.941406 41.820312 26.941406 41.78125 L 26.902344 36.550781 L 26.902344 35.835938 L 28.398438 41.820312 C 28.410156 41.871094 28.460938 41.902344 28.511719 41.898438 L 29.289062 41.898438 C 29.359375 41.902344 29.417969 41.851562 29.425781 41.78125 L 29.425781 34.394531 C 29.429688 34.367188 29.421875 34.335938 29.40625 34.3125 C 29.386719 34.292969 29.359375 34.277344 29.328125 34.28125 Z M 29.328125 34.28125 "/>
<path style=" stroke:none;fill-rule:nonzero;fill:rgb(0%,0%,0%);fill-opacity:1;" d="M 31.984375 4.386719 L 31.984375 3.460938 L 31.617188 3.269531 C 31.34375 3.136719 25.003906 0 16.199219 0 L 15.792969 0 C 6.984375 0 0.644531 3.136719 0.390625 3.269531 L 0.00390625 3.460938 L 0.00390625 4.367188 C -0.0546875 8.078125 0.390625 17.523438 6.210938 24.855469 C 10.921875 30.816406 15.363281 32.183594 15.847656 32.316406 L 16.042969 32.375 L 16.238281 32.335938 C 16.429688 32.277344 20.949219 30.972656 25.796875 24.871094 C 31.597656 17.542969 32.0625 8.097656 31.984375 4.386719 Z M 31.984375 4.386719 "/>
<path style=" stroke:none;fill-rule:nonzero;fill:rgb(100%,100%,100%);fill-opacity:1;" d="M 16.042969 31.394531 C 15.675781 31.296875 11.484375 30.007812 6.949219 24.296875 C 0.992188 16.773438 0.972656 6.945312 1.011719 4.617188 L 1.011719 4.117188 C 1.019531 4.117188 1.023438 4.113281 1.027344 4.109375 C 1.03125 4.109375 1.03125 4.101562 1.03125 4.097656 L 1.03125 4.078125 L 1.167969 4.019531 C 1.496094 3.886719 2.195312 3.578125 3.222656 3.210938 C 7.265625 1.753906 11.53125 1.003906 15.828125 1 L 16.238281 1 C 20.515625 1.007812 24.765625 1.757812 28.785156 3.210938 C 29.8125 3.578125 30.53125 3.886719 30.839844 4.019531 L 30.976562 4.078125 L 30.976562 4.097656 L 30.996094 4.117188 L 30.996094 4.617188 C 31.054688 6.945312 31.035156 16.773438 25.0625 24.296875 C 20.523438 30.007812 16.390625 31.296875 16.042969 31.394531 Z M 25.351562 24.546875 C 31.054688 17.371094 31.5 8.117188 31.421875 4.480469 L 31.421875 3.808594 L 31.304688 3.75 C 31.054688 3.617188 24.828125 0.558594 16.199219 0.558594 L 15.773438 0.558594 C 7.140625 0.558594 0.933594 3.617188 0.664062 3.75 L 0.546875 3.808594 L 0.546875 4.445312 C 0.46875 8.097656 0.914062 17.351562 6.617188 24.527344 C 11.214844 30.335938 15.480469 31.683594 15.964844 31.796875 L 16.023438 31.816406 L 16.082031 31.796875 C 16.296875 31.757812 20.621094 30.488281 25.351562 24.546875 Z M 25.351562 24.546875 "/>
<path style=" stroke:none;fill-rule:nonzero;fill:rgb(100%,100%,100%);fill-opacity:1;" d="M 27.019531 8.753906 C 24.90625 6.578125 24.671875 6.234375 24.671875 5.328125 C 24.671875 4.445312 25.0625 4.328125 25.449219 4.328125 C 25.691406 4.335938 25.933594 4.375 26.167969 4.445312 C 27.699219 4.886719 27.699219 5.714844 27.699219 6.328125 L 27.699219 7.214844 C 27.699219 7.277344 27.738281 7.339844 27.796875 7.367188 C 28.183594 7.484375 28.359375 7.558594 28.746094 7.695312 C 28.796875 7.726562 28.863281 7.71875 28.902344 7.675781 C 28.953125 7.648438 28.980469 7.597656 28.980469 7.539062 L 28.980469 6.808594 C 28.980469 5.886719 28.980469 4.328125 26.246094 3.539062 C 24.324219 3 23.335938 3.578125 23.335938 5.230469 C 23.335938 6.597656 24.1875 7.40625 25.605469 8.773438 L 25.875 9.042969 C 27.542969 10.675781 27.875 11.195312 27.875 12.214844 C 27.875 12.601562 27.816406 12.851562 27.699219 13.003906 C 27.582031 13.175781 27.40625 13.234375 27.117188 13.234375 C 26.835938 13.226562 26.554688 13.183594 26.28125 13.101562 C 25.546875 12.886719 25.023438 12.601562 24.691406 12.253906 C 24.304688 11.832031 24.304688 11.464844 24.304688 10.734375 L 24.304688 9.964844 C 24.304688 9.886719 24.265625 9.8125 24.1875 9.8125 C 23.761719 9.714844 23.566406 9.675781 23.179688 9.597656 C 23.132812 9.582031 23.078125 9.597656 23.042969 9.636719 C 23.011719 9.675781 22.992188 9.722656 22.984375 9.773438 L 22.984375 11.15625 C 22.984375 12.445312 24.070312 13.445312 26.089844 14.023438 C 26.570312 14.179688 27.074219 14.261719 27.582031 14.273438 C 29.152344 14.273438 29.152344 12.984375 29.152344 12.445312 C 29.171875 11.023438 28.4375 10.195312 27.019531 8.753906 Z M 22.753906 2.847656 C 20.730469 2.484375 18.679688 2.289062 16.625 2.269531 C 16.574219 2.257812 16.523438 2.273438 16.488281 2.308594 C 16.453125 2.34375 16.4375 2.394531 16.449219 2.441406 L 16.449219 3.058594 C 16.457031 3.152344 16.53125 3.226562 16.625 3.230469 C 17.574219 3.230469 18.078125 3.269531 18.992188 3.328125 L 18.992188 12.445312 C 18.988281 12.535156 19.054688 12.613281 19.144531 12.621094 C 19.554688 12.65625 19.746094 12.65625 20.15625 12.714844 L 20.175781 12.714844 C 20.214844 12.714844 20.253906 12.695312 20.269531 12.65625 C 20.3125 12.632812 20.335938 12.589844 20.328125 12.542969 L 20.328125 3.460938 C 21.242188 3.558594 21.765625 3.636719 22.714844 3.808594 C 22.761719 3.8125 22.8125 3.800781 22.851562 3.769531 C 22.890625 3.734375 22.910156 3.6875 22.910156 3.636719 L 22.910156 3.019531 C 22.890625 2.9375 22.832031 2.875 22.753906 2.847656 Z M 15.597656 2.289062 C 13.867188 2.308594 12.144531 2.460938 10.4375 2.75 C 10.398438 2.75 10.355469 2.765625 10.328125 2.796875 C 10.296875 2.824219 10.28125 2.863281 10.28125 2.90625 L 10.28125 12.792969 C 10.289062 12.835938 10.3125 12.875 10.339844 12.90625 C 10.375 12.929688 10.417969 12.941406 10.457031 12.945312 L 10.476562 12.945312 C 12.164062 12.675781 13.867188 12.527344 15.578125 12.503906 C 15.667969 12.496094 15.734375 12.417969 15.734375 12.332031 L 15.734375 11.714844 C 15.730469 11.671875 15.707031 11.628906 15.675781 11.601562 C 15.652344 11.558594 15.605469 11.535156 15.558594 11.542969 C 14.234375 11.558594 12.914062 11.65625 11.601562 11.832031 L 11.601562 7.925781 C 12.675781 7.777344 13.757812 7.6875 14.839844 7.65625 C 14.882812 7.660156 14.925781 7.644531 14.953125 7.617188 C 14.984375 7.585938 15 7.542969 14.996094 7.503906 L 14.996094 6.886719 C 14.992188 6.847656 14.980469 6.804688 14.957031 6.769531 C 14.925781 6.742188 14.882812 6.726562 14.839844 6.734375 C 13.757812 6.757812 12.675781 6.839844 11.601562 6.984375 L 11.601562 3.519531 C 12.917969 3.335938 14.246094 3.238281 15.578125 3.230469 C 15.621094 3.234375 15.664062 3.222656 15.699219 3.191406 C 15.730469 3.164062 15.75 3.121094 15.753906 3.078125 L 15.753906 2.460938 C 15.757812 2.414062 15.734375 2.371094 15.695312 2.347656 C 15.675781 2.3125 15.636719 2.289062 15.597656 2.289062 Z M 8.984375 3 C 8.597656 3.078125 8.402344 3.117188 8.015625 3.210938 C 7.933594 3.21875 7.875 3.289062 7.878906 3.367188 L 7.957031 10.542969 C 7.957031 11.023438 7.976562 11.464844 7.996094 11.867188 C 7.023438 9.367188 5.996094 6.789062 4.949219 4.195312 C 4.917969 4.121094 4.835938 4.078125 4.757812 4.097656 C 4.175781 4.289062 3.882812 4.386719 3.320312 4.617188 C 3.253906 4.640625 3.207031 4.699219 3.203125 4.769531 L 3.203125 14.660156 C 3.207031 14.707031 3.234375 14.753906 3.28125 14.773438 C 3.300781 14.8125 3.339844 14.8125 3.378906 14.8125 C 3.398438 14.816406 3.421875 14.808594 3.4375 14.792969 C 3.785156 14.660156 3.980469 14.601562 4.328125 14.464844 C 4.402344 14.449219 4.449219 14.386719 4.445312 14.3125 C 4.425781 11.984375 4.425781 9.636719 4.40625 7.308594 C 4.40625 6.695312 4.40625 6.347656 4.386719 5.90625 C 5.394531 8.503906 6.40625 11.023438 7.355469 13.425781 C 7.367188 13.46875 7.394531 13.5 7.429688 13.519531 C 7.46875 13.535156 7.511719 13.539062 7.546875 13.523438 C 8.148438 13.390625 8.460938 13.3125 9.0625 13.195312 C 9.136719 13.183594 9.195312 13.117188 9.195312 13.042969 L 9.195312 3.15625 C 9.195312 3.105469 9.175781 3.054688 9.140625 3.019531 C 9.089844 2.996094 9.035156 2.988281 8.984375 3 Z M 8.984375 3 "/>
<path style=" stroke:none;fill-rule:nonzero;fill:rgb(100%,100%,100%);fill-opacity:1;" d="M 21.589844 25.375 C 21.492188 25.449219 21.394531 25.507812 21.28125 25.585938 C 21.007812 25.777344 20.71875 25.929688 20.445312 26.105469 C 20.3125 26.195312 20.179688 26.277344 20.039062 26.355469 C 19.050781 26.96875 17.847656 27.644531 16.585938 28.027344 C 16.242188 28.132812 15.894531 28.214844 15.539062 28.277344 C 15.246094 28.332031 14.945312 28.355469 14.648438 28.355469 L 14.589844 28.355469 C 14.222656 28.351562 13.859375 28.320312 13.503906 28.257812 C 14.882812 28.734375 16.367188 28.808594 17.789062 28.46875 C 18.609375 28.269531 19.390625 27.929688 20.097656 27.46875 C 20.789062 26.914062 21.316406 26.183594 21.628906 25.355469 C 21.609375 25.355469 21.589844 25.355469 21.589844 25.375 Z M 14.839844 27.988281 C 15.652344 27.894531 16.441406 27.652344 17.167969 27.277344 C 17.289062 27.226562 17.40625 27.160156 17.515625 27.085938 C 17.613281 27.046875 17.710938 26.988281 17.808594 26.949219 C 18.488281 26.605469 19.203125 26.21875 20.078125 25.738281 C 20.40625 25.585938 20.699219 25.410156 21.007812 25.238281 L 21.355469 25.046875 C 21.492188 24.96875 21.628906 24.910156 21.746094 24.835938 C 21.765625 24.816406 21.765625 24.816406 21.785156 24.816406 C 21.902344 24.378906 21.980469 23.9375 22.015625 23.488281 C 21.144531 23.910156 19.84375 24.296875 17.945312 24.679688 C 15.519531 25.160156 13.132812 24.949219 11 24.046875 C 9.566406 23.449219 8.886719 22.621094 8.617188 22.179688 C 8.652344 22.503906 8.710938 22.824219 8.789062 23.140625 C 9.253906 24.914062 10.359375 26.453125 11.894531 27.46875 L 11.894531 27.449219 L 12.085938 27.566406 C 12.289062 27.679688 12.503906 27.769531 12.726562 27.835938 C 13.183594 27.957031 13.652344 28.023438 14.125 28.027344 C 14.355469 28.027344 14.589844 28.007812 14.839844 27.988281 Z M 22.441406 24.871094 C 22.421875 24.855469 22.421875 24.855469 22.40625 24.855469 C 22.34375 24.859375 22.28125 24.878906 22.230469 24.910156 C 22.210938 24.929688 22.191406 24.949219 22.171875 24.949219 C 22.152344 24.96875 22.132812 24.96875 22.113281 24.988281 C 21.933594 25.472656 21.691406 25.929688 21.394531 26.355469 C 21.8125 25.925781 22.171875 25.449219 22.460938 24.929688 L 22.441406 24.929688 Z M 22.734375 23.046875 C 22.695312 23.082031 22.675781 23.082031 22.65625 23.121094 C 22.613281 23.144531 22.574219 23.167969 22.539062 23.199219 C 22.5 23.664062 22.40625 24.121094 22.269531 24.566406 C 22.5 24.488281 22.597656 24.585938 22.617188 24.640625 C 22.617188 24.660156 22.617188 24.660156 22.636719 24.660156 C 23.027344 23.910156 23.277344 23.097656 23.375 22.257812 C 23.238281 22.574219 23.015625 22.84375 22.734375 23.046875 Z M 22.539062 22.660156 C 22.558594 22.640625 22.578125 22.640625 22.597656 22.621094 C 23 22.3125 23.285156 21.878906 23.414062 21.390625 C 23.414062 20.792969 23.335938 20.199219 23.179688 19.621094 C 23.179688 19.589844 23.164062 19.5625 23.140625 19.542969 C 23.070312 20.125 22.785156 20.65625 22.347656 21.042969 C 22.476562 21.574219 22.542969 22.117188 22.539062 22.660156 Z M 11.425781 23.546875 C 13.191406 24.121094 14.160156 24.296875 15.441406 24.296875 C 15.90625 24.296875 16.449219 24.277344 17.109375 24.21875 C 18.992188 24.066406 20.96875 23.449219 22.035156 22.929688 C 22.03125 22.414062 21.980469 21.898438 21.878906 21.390625 C 21.546875 21.585938 21.164062 21.679688 20.773438 21.660156 C 20.328125 21.660156 19.804688 21.582031 18.933594 21.371094 C 17.90625 21.121094 16.449219 20.257812 15.152344 19.507812 C 14.453125 19.082031 13.773438 18.699219 13.230469 18.429688 C 11.117188 17.390625 9.914062 17.542969 9.605469 17.601562 C 8.835938 18.871094 8.480469 20.339844 8.578125 21.8125 C 8.730469 22.007812 9.449219 22.890625 11.425781 23.546875 Z M 12.511719 17.5625 C 13.414062 17.960938 14.296875 18.402344 15.152344 18.890625 C 16.722656 19.71875 18.332031 20.582031 19.4375 20.851562 C 20.40625 21.101562 21.203125 21.0625 21.765625 20.792969 L 21.765625 20.757812 C 21.746094 20.71875 21.746094 20.679688 21.726562 20.640625 C 21.261719 18.660156 18.757812 14.3125 14.414062 14.3125 C 14.238281 14.3125 14.066406 14.332031 13.871094 14.332031 C 12.25 14.789062 10.839844 15.785156 9.875 17.160156 C 10.085938 17.097656 10.300781 17.066406 10.515625 17.0625 C 11.078125 17.082031 11.738281 17.253906 12.511719 17.5625 Z M 22.210938 20.488281 C 22.308594 20.367188 22.390625 20.238281 22.460938 20.101562 C 22.984375 19.101562 22.539062 17.984375 22.328125 17.601562 C 20.84375 15.191406 18.101562 13.832031 15.265625 14.101562 C 18.234375 14.253906 21.105469 16.890625 22.210938 20.488281 Z M 22.210938 20.488281 "/>
<path style=" stroke:none;fill-rule:nonzero;fill:rgb(100%,100%,100%);fill-opacity:1;" d="M 18.914062 22.851562 C 18.914062 22.316406 18.914062 21.527344 18.273438 20.910156 C 18.351562 20.792969 18.410156 20.660156 18.449219 20.527344 C 18.539062 20.234375 18.578125 19.925781 18.5625 19.621094 L 18.5625 18.121094 C 18.546875 17.5625 18.46875 16.984375 18 16.484375 C 17.59375 16.023438 16.972656 15.773438 16.238281 15.773438 L 14.21875 15.773438 C 13.996094 15.777344 13.78125 15.867188 13.617188 16.023438 C 13.46875 16.179688 13.382812 16.386719 13.386719 16.601562 L 13.40625 26.296875 C 13.398438 26.589844 13.554688 26.863281 13.8125 27.007812 C 13.945312 27.09375 14.101562 27.140625 14.257812 27.144531 L 16.316406 27.144531 C 16.988281 27.167969 17.644531 26.941406 18.15625 26.507812 L 18.175781 26.507812 C 18.855469 25.910156 18.914062 25.199219 18.933594 24.527344 L 18.933594 24.507812 Z M 18.914062 22.851562 "/>
<path style=" stroke:none;fill-rule:nonzero;fill:rgb(0%,0%,0%);fill-opacity:1;" d="M 16.199219 20.46875 C 16.042969 20.527344 15.945312 20.527344 15.578125 20.542969 L 15.191406 20.542969 C 15.132812 20.542969 15.113281 20.527344 15.113281 20.46875 L 15.113281 17.351562 C 15.109375 17.332031 15.117188 17.308594 15.132812 17.292969 C 15.148438 17.28125 15.167969 17.273438 15.191406 17.273438 L 15.808594 17.273438 C 16.082031 17.257812 16.355469 17.300781 16.605469 17.410156 C 16.691406 17.460938 16.75 17.542969 16.78125 17.640625 C 16.828125 17.808594 16.855469 17.984375 16.859375 18.160156 L 16.859375 19.46875 C 16.839844 19.757812 16.820312 20.277344 16.199219 20.46875 Z M 16.914062 25.488281 C 16.761719 25.605469 16.566406 25.660156 16.101562 25.679688 L 15.230469 25.679688 C 15.171875 25.675781 15.128906 25.625 15.132812 25.566406 L 15.132812 21.699219 C 15.132812 21.679688 15.132812 21.640625 15.191406 21.640625 L 15.597656 21.640625 C 16.023438 21.660156 16.46875 21.679688 16.761719 21.871094 C 16.925781 21.972656 17.050781 22.128906 17.109375 22.316406 C 17.164062 22.515625 17.191406 22.722656 17.1875 22.929688 L 17.1875 24.355469 C 17.207031 24.988281 17.167969 25.296875 16.914062 25.488281 Z M 18.390625 22.929688 C 18.390625 22.371094 18.390625 21.71875 17.828125 21.257812 C 17.699219 21.152344 17.554688 21.066406 17.402344 21.007812 C 17.660156 20.832031 17.851562 20.574219 17.945312 20.277344 C 18.015625 20.039062 18.046875 19.792969 18.039062 19.542969 L 18.039062 18.003906 C 18.019531 17.582031 17.984375 17.082031 17.613281 16.699219 C 17.324219 16.371094 16.839844 16.195312 16.257812 16.195312 L 14.140625 16.195312 C 14.074219 16.199219 14.011719 16.226562 13.96875 16.273438 C 13.929688 16.324219 13.910156 16.382812 13.910156 16.449219 L 13.910156 26.546875 C 13.917969 26.628906 13.957031 26.707031 14.027344 26.757812 C 14.066406 26.78125 14.113281 26.796875 14.160156 26.796875 L 16.296875 26.796875 C 16.84375 26.816406 17.382812 26.640625 17.808594 26.296875 C 18.3125 25.835938 18.371094 25.296875 18.390625 24.679688 Z M 18.390625 22.929688 "/>
</g>
</svg>
