<?xml version="1.0" encoding="UTF-8"?>
<svg xmlns="http://www.w3.org/2000/svg" xmlns:xlink="http://www.w3.org/1999/xlink" width="32px" height="32px" viewBox="0 0 32 31" version="1.1">
<g id="surface1">
<path style=" stroke:none;fill-rule:nonzero;fill:rgb(63.137255%,63.137255%,64.313725%);fill-opacity:1;" d="M 31.273438 4.996094 C 30.554688 6.886719 29.613281 8.859375 29.140625 9.671875 C 28.34375 11.03125 26.761719 11.84375 25.835938 12.160156 C 25.835938 12.160156 25.382812 13.253906 24.910156 13.851562 L 26.804688 13.851562 L 26.804688 16.417969 L 28.621094 17.28125 L 26.804688 18.1875 L 26.804688 20.359375 L 25.046875 21.4375 C 25.046875 21.4375 23.652344 21.265625 22.96875 21.1875 L 17.417969 24.394531 C 16.324219 29.414062 16.039062 30.855469 16.039062 30.855469 C 16.039062 30.855469 15.773438 29.480469 14.660156 24.394531 L 9.113281 21.1875 C 8.4375 21.265625 7.03125 21.4375 7.03125 21.4375 L 5.277344 20.359375 L 5.277344 18.1875 L 3.460938 17.289062 L 5.277344 16.425781 L 5.277344 13.84375 L 7.167969 13.84375 C 6.707031 13.273438 6.234375 12.136719 6.234375 12.136719 C 5.6875 11.949219 5.140625 11.699219 4.667969 11.398438 C 3.914062 10.929688 3.304688 10.304688 2.914062 9.664062 C 2.210938 8.324219 1.3125 6.332031 0.832031 4.988281 C 0.507812 4.175781 0.113281 2.9375 0.113281 2.9375 C 0.113281 2.9375 1.148438 3.425781 1.457031 3.578125 C 0.96875 2.089844 0.53125 0.125 0.53125 0.125 C 0.53125 0.125 7.628906 4.800781 12.613281 8.777344 L 12.691406 8.714844 L 12.691406 8.449219 C 12.691406 8.390625 12.691406 8.296875 12.726562 8.167969 C 12.785156 7.996094 12.914062 7.808594 13.195312 7.621094 C 12.835938 7.339844 12.160156 6.902344 12.101562 6.828125 C 11.628906 6.40625 11.535156 5.9375 11.570312 5.714844 L 11.644531 5.183594 L 14.34375 7.1875 C 15.816406 6.765625 16.851562 6.964844 17.632812 7.1875 L 20.328125 5.183594 L 20.40625 5.714844 C 20.441406 5.964844 20.371094 6.417969 19.875 6.828125 C 19.816406 6.886719 19.15625 7.339844 18.777344 7.621094 C 19.078125 7.808594 19.199219 7.996094 19.25 8.167969 C 19.285156 8.296875 19.285156 8.390625 19.285156 8.449219 L 19.285156 8.714844 L 19.363281 8.777344 C 24.472656 4.707031 31.460938 0.132812 31.460938 0.132812 C 31.460938 0.132812 31.101562 1.757812 30.535156 3.585938 C 30.820312 3.457031 31.878906 2.945312 31.878906 2.945312 C 31.691406 3.9375 31.273438 4.996094 31.273438 4.996094 Z M 31.273438 4.996094 "/>
<path style=" stroke:none;fill-rule:nonzero;fill:rgb(11.372549%,6.666667%,37.647059%);fill-opacity:1;" d="M 7.878906 14.152344 L 5.609375 14.152344 L 5.609375 16.605469 L 4.25 17.265625 L 5.609375 17.980469 L 5.609375 20.152344 L 7.117188 21.078125 C 7.664062 21 8.367188 20.90625 9.199219 20.828125 L 14.996094 24.164062 L 16.058594 29.011719 C 16.058594 28.992188 17.136719 24.164062 17.136719 24.164062 L 22.933594 20.828125 C 23.746094 20.921875 24.464844 21 25.015625 21.078125 L 26.503906 20.152344 L 26.503906 17.980469 L 27.867188 17.28125 L 26.503906 16.605469 L 26.503906 14.152344 L 24.234375 14.152344 C 24.234375 14.152344 24.59375 13.808594 25.03125 13.058594 C 25.21875 12.742188 25.390625 12.339844 25.597656 11.886719 C 27.242188 11.398438 28.449219 10.339844 28.980469 9.324219 C 30.390625 6.757812 31.453125 3.59375 31.453125 3.59375 C 31.453125 3.59375 30.84375 3.894531 30.109375 4.253906 C 30.691406 2.441406 31.066406 0.894531 31.066406 0.894531 C 31.066406 0.894531 24.570312 5.191406 19.492188 9.226562 L 19.054688 8.964844 C 19.054688 8.929688 19.070312 8.570312 19.070312 8.527344 C 19.070312 8.527344 19.132812 8.109375 18.371094 7.851562 C 18.308594 7.835938 18.273438 7.816406 18.242188 7.816406 C 18.601562 7.535156 19.183594 7.117188 19.585938 6.835938 C 20.246094 6.382812 20.167969 5.878906 20.167969 5.878906 L 17.753906 7.671875 C 15.902344 7.066406 14.351562 7.671875 14.351562 7.671875 L 11.9375 5.878906 C 11.9375 5.878906 11.863281 6.363281 12.519531 6.835938 C 12.941406 7.117188 13.523438 7.535156 13.882812 7.816406 C 13.847656 7.835938 13.789062 7.851562 13.753906 7.851562 C 13 8.117188 13.050781 8.527344 13.050781 8.527344 C 13.050781 8.5625 13.070312 8.921875 13.070312 8.964844 L 12.632812 9.1875 C 7.550781 5.160156 1.0625 0.867188 1.0625 0.867188 C 1.0625 0.867188 1.421875 2.417969 2.019531 4.226562 C 1.222656 3.851562 0.675781 3.570312 0.675781 3.570312 C 0.675781 3.570312 1.730469 6.742188 3.132812 9.296875 C 3.648438 10.332031 4.871094 11.375 6.515625 11.863281 C 6.515625 11.863281 6.796875 12.503906 7.03125 12.957031 C 7.328125 13.539062 7.878906 14.152344 7.878906 14.152344 Z M 7.878906 14.152344 "/>
<path style=" stroke:none;fill-rule:nonzero;fill:rgb(0%,47.058824%,54.901961%);fill-opacity:1;" d="M 29.792969 2.664062 C 25.117188 5.519531 20.945312 8.722656 18.769531 10.476562 C 18.753906 10.554688 18.710938 10.628906 18.695312 10.683594 C 20.980469 9.195312 24.945312 6.613281 29.398438 3.722656 C 29.398438 3.722656 29.398438 3.816406 29.792969 2.664062 Z M 2.289062 2.671875 C 2.664062 3.800781 2.679688 3.730469 2.679688 3.730469 C 7.132812 6.59375 11.125 9.203125 13.410156 10.691406 C 13.367188 10.628906 13.351562 10.554688 13.335938 10.476562 C 11.183594 8.722656 7.003906 5.519531 2.289062 2.671875 Z M 16.113281 7.921875 C 15.742188 7.921875 15.355469 7.964844 14.96875 8.058594 C 15.371094 8.621094 15.3125 9.417969 15.3125 9.417969 C 15.15625 8.699219 14.6875 8.363281 14.40625 8.210938 C 14.292969 8.246094 14.164062 8.28125 14.011719 8.339844 C 14.308594 8.460938 14.671875 8.757812 14.917969 9.324219 C 15.039062 9.605469 15.105469 10.683594 15.714844 10.945312 C 15.210938 11.417969 14.582031 11.289062 14.113281 10.871094 C 14.695312 12.136719 15.679688 12.621094 16.058594 12.777344 C 16.390625 12.519531 16.5625 11.742188 16.398438 10.945312 C 17.007812 10.683594 17.085938 9.605469 17.195312 9.324219 C 17.445312 8.734375 17.804688 8.46875 18.105469 8.339844 C 17.976562 8.304688 17.839844 8.246094 17.710938 8.210938 C 17.425781 8.355469 16.957031 8.714844 16.800781 9.417969 C 16.800781 9.417969 16.75 8.621094 17.144531 8.058594 C 16.832031 7.972656 16.480469 7.925781 16.113281 7.921875 Z M 24.644531 12.015625 L 24.207031 12.144531 C 22.738281 12.535156 19.960938 12.914062 19.960938 12.914062 C 21.296875 12.929688 22.453125 13.042969 23.097656 13.117188 C 23.234375 12.945312 23.394531 12.757812 23.457031 12.589844 C 23.457031 12.589844 23.394531 13.09375 23.285156 13.417969 C 23.15625 13.835938 22.980469 14.183594 22.914062 14.261719 C 23.027344 14.179688 24.054688 13.386719 24.644531 12.015625 Z M 22.914062 14.261719 C 22.90625 14.269531 22.890625 14.28125 22.890625 14.28125 C 22.894531 14.28125 22.902344 14.277344 22.914062 14.261719 Z M 7.441406 12.023438 C 8.085938 13.496094 9.199219 14.289062 9.199219 14.289062 C 9.199219 14.289062 8.976562 13.894531 8.804688 13.425781 C 8.691406 13.109375 8.632812 12.597656 8.632812 12.597656 C 8.691406 12.75 8.863281 12.957031 8.992188 13.125 C 9.636719 13.050781 10.78125 12.957031 12.128906 12.921875 C 12.128906 12.921875 9.335938 12.527344 7.878906 12.152344 Z M 9.746094 19.546875 C 9.539062 19.5625 9.351562 19.582031 9.164062 19.605469 L 13.113281 21.890625 C 12.898438 21.660156 12.726562 21.4375 12.582031 21.1875 Z M 22.359375 19.546875 L 19.527344 21.1875 C 19.398438 21.4375 19.226562 21.660156 18.996094 21.890625 L 22.941406 19.605469 C 22.753906 19.582031 22.566406 19.5625 22.359375 19.546875 Z M 15.808594 19.683594 C 15.011719 19.699219 14.414062 19.796875 13.996094 19.90625 C 14.085938 20.015625 14.199219 20.109375 14.292969 20.203125 C 14.765625 20.65625 15.183594 20.863281 15.183594 21.488281 C 15.183594 21.675781 15.089844 21.847656 14.960938 21.976562 C 14.882812 22.085938 14.730469 22.164062 14.601562 22.238281 C 14.566406 22.265625 14.507812 22.28125 14.472656 22.296875 C 15.003906 22.625 15.382812 22.753906 15.535156 22.8125 C 15.535156 22.8125 15.234375 22.863281 14.875 22.828125 C 14.996094 23.015625 15.105469 23.1875 15.21875 23.394531 C 15.3125 23.359375 15.613281 23.1875 16.03125 23.1875 C 16.46875 23.1875 16.75 23.359375 16.8125 23.394531 C 16.90625 23.1875 17.042969 23.015625 17.152344 22.828125 C 16.8125 22.890625 16.496094 22.8125 16.496094 22.8125 C 16.648438 22.753906 17.042969 22.640625 17.554688 22.296875 C 17.523438 22.273438 17.460938 22.257812 17.425781 22.238281 C 17.316406 22.179688 17.179688 22.085938 17.070312 21.976562 C 16.9375 21.847656 16.847656 21.691406 16.847656 21.488281 C 16.847656 20.878906 17.265625 20.65625 17.734375 20.203125 C 17.832031 20.109375 17.925781 20 18.035156 19.90625 C 17.597656 19.796875 17.015625 19.699219 16.21875 19.683594 L 16.015625 22.308594 L 15.996094 22.308594 Z M 13.753906 19.949219 C 13.359375 20.101562 13.128906 20.25 13 20.339844 C 13.28125 20.605469 13.8125 20.949219 14.757812 21.152344 C 14.652344 20.871094 14.351562 20.5625 14.035156 20.230469 Z M 18.34375 19.964844 L 18.0625 20.246094 C 17.753906 20.5625 17.453125 20.871094 17.34375 21.171875 C 18.300781 20.964844 18.816406 20.625 19.097656 20.359375 C 18.984375 20.25 18.738281 20.09375 18.34375 19.964844 Z M 13.019531 20.691406 C 13.28125 21.207031 13.660156 21.675781 14.128906 21.976562 C 14.148438 21.984375 14.679688 21.8125 14.789062 21.582031 C 13.539062 21.300781 13.019531 20.691406 13.019531 20.691406 Z M 19.097656 20.699219 C 19.097656 20.699219 18.582031 21.324219 17.324219 21.589844 C 17.4375 21.8125 17.984375 21.984375 17.984375 21.984375 C 18.457031 21.640625 18.851562 21.214844 19.097656 20.699219 Z M 19.097656 20.699219 "/>
<path style=" stroke:none;fill-rule:nonzero;fill:rgb(100%,100%,100%);fill-opacity:1;" d="M 29.441406 3.714844 C 24.988281 6.59375 21.015625 9.1875 18.738281 10.671875 C 18.644531 10.921875 18.550781 11.125 18.4375 11.332031 L 27.429688 6.449219 L 20.425781 11.503906 L 20.765625 11.441406 L 24.464844 11.082031 C 24.464844 11.082031 26.976562 10.835938 28.378906 8.972656 C 29.039062 7.953125 30.152344 5.03125 30.152344 5.03125 L 28.5 5.859375 C 29.03125 4.613281 29.441406 3.714844 29.441406 3.714844 Z M 2.683594 3.730469 C 2.683594 3.730469 3.074219 4.613281 3.625 5.859375 L 2.003906 5.046875 C 2.003906 5.046875 3.117188 7.972656 3.769531 8.988281 C 5.175781 10.851562 7.683594 11.101562 7.683594 11.101562 L 11.382812 11.460938 L 11.722656 11.519531 L 4.71875 6.46875 L 13.6875 11.347656 C 13.574219 11.144531 13.480469 10.9375 13.386719 10.691406 C 11.109375 9.203125 7.136719 6.613281 2.683594 3.730469 Z M 14.671875 10.050781 C 14.679688 10.050781 14.070312 11.066406 15.203125 11.007812 C 15.203125 11.007812 14.746094 10.707031 14.671875 10.050781 Z M 17.46875 10.050781 C 17.394531 10.707031 16.9375 11.007812 16.9375 11.007812 C 18.054688 11.066406 17.46875 10.050781 17.46875 10.050781 Z M 9.96875 13.648438 L 9.96875 14.632812 L 10.105469 14.757812 L 10.78125 14.757812 L 10.78125 14.402344 L 10.515625 14.402344 L 10.515625 14.511719 L 10.261719 14.511719 L 10.261719 13.914062 L 10.515625 13.914062 L 10.515625 13.992188 L 10.78125 13.992188 L 10.78125 13.648438 Z M 11.40625 13.648438 L 11.40625 14.757812 L 11.671875 14.757812 L 11.671875 14.402344 L 11.988281 14.402344 L 11.988281 14.757812 L 12.253906 14.757812 L 12.253906 13.648438 L 11.988281 13.648438 L 11.988281 14.152344 L 11.671875 14.152344 L 11.671875 13.648438 Z M 12.863281 13.648438 L 12.863281 14.742188 L 13.144531 14.742188 L 13.144531 14.382812 L 13.472656 14.382812 L 13.472656 14.742188 L 13.726562 14.742188 L 13.726562 13.777344 L 13.601562 13.648438 Z M 13.726562 14.742188 L 13.726562 14.757812 L 13.738281 14.742188 Z M 15.921875 13.648438 L 15.921875 14.757812 L 16.605469 14.757812 L 16.605469 14.511719 L 16.203125 14.511719 L 16.203125 13.648438 Z M 17.152344 13.648438 L 17.152344 14.632812 L 17.28125 14.757812 L 18.019531 14.757812 L 18.019531 13.777344 L 17.890625 13.648438 Z M 18.625 13.648438 L 18.625 13.914062 L 18.875 13.914062 L 18.875 14.757812 L 19.175781 14.757812 L 19.175781 13.914062 L 19.398438 13.894531 L 19.398438 13.648438 Z M 19.960938 13.648438 L 19.960938 13.914062 L 20.210938 13.914062 L 20.210938 14.757812 L 20.511719 14.757812 L 20.511719 13.914062 L 20.714844 13.894531 L 20.714844 13.648438 Z M 21.355469 13.648438 L 21.355469 14.757812 L 22.171875 14.757812 L 22.171875 14.511719 L 21.621094 14.511719 L 21.621094 14.339844 L 22.171875 14.339844 L 22.171875 14.082031 L 21.621094 14.082031 L 21.621094 13.914062 L 22.171875 13.914062 L 22.171875 13.648438 Z M 14.371094 13.671875 L 14.371094 14.769531 L 14.652344 14.769531 L 14.652344 14.382812 L 14.859375 14.382812 L 15.03125 14.757812 L 15.3125 14.757812 L 15.132812 14.382812 L 15.242188 14.382812 L 15.242188 13.800781 L 15.113281 13.671875 Z M 13.144531 13.886719 L 13.472656 13.886719 L 13.472656 14.152344 L 13.144531 14.152344 Z M 14.652344 13.894531 L 14.976562 13.894531 L 14.976562 14.117188 L 14.652344 14.117188 Z M 17.417969 13.90625 L 17.734375 13.90625 L 17.734375 14.511719 L 17.417969 14.511719 Z M 23.15625 14.742188 L 23.457031 15.085938 L 23.457031 16.878906 L 25.023438 17.554688 L 25.023438 18.554688 C 25.023438 18.554688 24.664062 18.519531 24.207031 18.445312 L 24.207031 18.128906 L 23.457031 18.035156 L 23.457031 19.050781 C 24.285156 19.144531 25.058594 19.253906 25.777344 19.394531 C 25.757812 18.828125 25.757812 18 25.757812 17.589844 C 26.007812 17.476562 26.230469 17.367188 26.460938 17.246094 C 25.707031 16.886719 24.953125 16.589844 24.175781 16.289062 L 24.175781 15.425781 L 24.988281 15.425781 L 24.988281 15.742188 L 25.757812 15.742188 L 25.757812 14.742188 Z M 6.296875 14.757812 L 6.296875 16.984375 C 6.296875 16.984375 5.671875 17.28125 5.671875 17.296875 L 6.296875 17.621094 L 6.296875 19.433594 C 6.542969 19.402344 6.785156 19.34375 7.050781 19.308594 L 7.050781 17.570312 L 7.914062 17.214844 L 7.914062 19.152344 C 8.164062 19.121094 8.402344 19.078125 8.667969 19.058594 L 8.667969 14.757812 L 7.914062 14.757812 L 7.914062 16.308594 L 7.050781 16.664062 L 7.050781 14.757812 Z M 11.914062 15.402344 L 12.210938 15.757812 L 12.210938 18.734375 C 12.476562 18.71875 12.699219 18.71875 12.964844 18.699219 L 12.964844 17.546875 L 12.957031 17.546875 C 13.148438 17.546875 13.316406 17.527344 13.523438 17.527344 C 13.675781 17.886719 13.804688 18.296875 13.941406 18.65625 C 14.207031 18.65625 14.429688 18.640625 14.695312 18.640625 C 14.542969 18.28125 14.414062 17.871094 14.277344 17.511719 L 14.574219 17.511719 L 14.574219 15.742188 L 14.234375 15.402344 Z M 8.957031 15.417969 L 9.242188 15.757812 L 9.242188 18.589844 L 9.542969 18.949219 C 10.199219 18.871094 10.917969 18.820312 11.640625 18.777344 L 11.640625 15.777344 L 11.28125 15.417969 Z M 20.871094 15.417969 L 20.871094 16.117188 L 21.527344 16.117188 L 21.527344 18.855469 C 21.8125 18.871094 22.078125 18.890625 22.359375 18.929688 L 22.359375 16.117188 L 23.019531 16.117188 L 23.019531 15.417969 Z M 14.859375 15.425781 L 15.15625 15.785156 L 15.15625 18.667969 L 15.929688 18.667969 C 15.921875 18.640625 15.921875 16.117188 15.921875 16.117188 L 16.785156 16.117188 L 16.785156 18.648438 C 17.050781 18.648438 17.316406 18.648438 17.582031 18.667969 L 17.582031 15.785156 L 17.222656 15.425781 Z M 17.882812 15.441406 L 18.164062 15.800781 L 18.164062 18.707031 C 18.933594 18.726562 19.714844 18.769531 20.449219 18.820312 L 20.449219 18.050781 L 20.433594 18.050781 L 20.433594 18.042969 C 19.945312 18.023438 19.449219 17.984375 18.960938 17.964844 L 18.960938 17.433594 C 19.449219 17.453125 19.945312 17.46875 20.433594 17.496094 L 20.433594 16.742188 C 19.945312 16.726562 19.449219 16.726562 18.960938 16.707031 L 18.960938 16.144531 L 20.433594 16.144531 L 20.433594 15.441406 Z M 9.996094 16.117188 L 10.859375 16.117188 L 10.859375 18.074219 C 10.558594 18.09375 10.292969 18.109375 9.996094 18.136719 Z M 12.957031 16.117188 L 13.820312 16.117188 L 13.820312 16.792969 C 13.523438 16.792969 13.257812 16.792969 12.957031 16.8125 Z M 16.039062 23.957031 C 15.679688 23.957031 15.585938 24.050781 15.476562 24.128906 L 16.058594 26.460938 L 16.605469 24.144531 C 16.527344 24.050781 16.398438 23.957031 16.039062 23.957031 Z M 16.039062 23.957031 "/>
</g>
</svg>
