<?xml version="1.0" encoding="UTF-8"?>
<svg xmlns="http://www.w3.org/2000/svg" xmlns:xlink="http://www.w3.org/1999/xlink" width="32px" height="32px" viewBox="0 0 32 32" version="1.1">
<g id="surface1">
<path style=" stroke:none;fill-rule:nonzero;fill:rgb(0%,0%,0%);fill-opacity:1;" d="M 29.128906 12.285156 C 29.015625 10.359375 28.148438 8.621094 27.636719 7.585938 L 27.570312 7.472656 L 27.347656 7.027344 L 27.394531 7.523438 C 27.441406 8.207031 27.601562 10.566406 26.894531 11.917969 C 26.011719 13.71875 23.425781 13.542969 22.574219 13.496094 L 22.527344 13.496094 C 21.128906 13.402344 16.582031 13.242188 15.183594 13.242188 C 13.351562 13.257812 11.328125 13.402344 9.6875 13.527344 C 8.886719 13.59375 8.195312 13.640625 7.726562 13.65625 C 7.679688 13.65625 7.632812 13.671875 7.550781 13.671875 C 5.269531 13.878906 3.824219 13.210938 3.261719 11.679688 C 2.925781 10.742188 2.925781 8.875 2.925781 7.984375 L 2.925781 7.347656 L 2.746094 7.664062 C 1.925781 9.113281 1.417969 10.714844 1.253906 12.367188 C 1.09375 15.234375 2.601562 16.269531 3.742188 16.78125 C 4.949219 17.335938 6.167969 17.417969 6.570312 17.449219 L 6.585938 17.449219 C 6.679688 17.460938 6.769531 17.46875 6.859375 17.464844 C 6.996094 17.460938 7.128906 17.46875 7.261719 17.496094 C 7.039062 17.542969 6.75 17.59375 6.507812 17.625 C 6.234375 17.6875 5.976562 17.71875 5.847656 17.75 C 5.574219 17.816406 4.417969 18.070312 3.808594 18.292969 C 3.292969 18.46875 2.714844 18.738281 2.699219 18.738281 L 2.601562 18.785156 L 2.683594 18.882812 C 2.683594 18.882812 2.875 19.136719 3.070312 19.34375 C 3.855469 20.046875 4.90625 20.386719 5.960938 20.285156 C 7.039062 20.15625 7.632812 19.886719 7.855469 19.773438 C 7.972656 20.179688 8.113281 20.578125 8.273438 20.96875 C 8.757812 22.164062 9.882812 24.476562 10.300781 25.273438 C 10.636719 25.925781 10.972656 26.5 11.199219 26.882812 L 11.277344 27.023438 C 11.210938 27.230469 11.074219 27.410156 10.894531 27.535156 C 10.859375 27.566406 10.84375 27.597656 10.8125 27.613281 L 10.796875 27.644531 L 10.796875 27.695312 C 10.78125 27.902344 10.734375 29.925781 12.097656 31.390625 L 12.113281 31.40625 L 12.128906 31.40625 C 12.820312 31.675781 13.707031 31.949219 15.152344 31.949219 C 16.613281 31.949219 17.851562 31.597656 18.285156 31.390625 L 18.316406 31.359375 C 19.265625 30.242188 19.714844 28.539062 19.714844 27.933594 L 19.714844 27.902344 L 19.683594 27.867188 L 19.617188 27.804688 C 19.394531 27.609375 19.234375 27.347656 19.167969 27.054688 C 19.296875 26.867188 19.519531 26.386719 19.714844 26.003906 C 19.78125 25.835938 19.863281 25.667969 19.957031 25.511719 C 20.355469 24.714844 21.53125 22.195312 22.011719 21.019531 C 22.300781 20.253906 22.460938 19.886719 22.542969 19.726562 C 22.75 19.839844 23.3125 20.09375 24.375 20.203125 C 25.738281 20.332031 27.039062 19.441406 27.410156 18.929688 C 27.472656 18.851562 27.570312 18.738281 27.585938 18.722656 L 27.667969 18.628906 L 27.554688 18.578125 C 27.539062 18.578125 27.507812 18.5625 27.28125 18.484375 L 26.527344 18.246094 L 25.769531 17.992188 C 25.5625 17.925781 24.628906 17.71875 23.972656 17.574219 L 23.457031 17.464844 L 23.617188 17.433594 C 25.191406 17.097656 29.371094 16.382812 29.128906 12.285156 Z M 29.128906 12.285156 "/>
<path style="fill-rule:nonzero;fill:rgb(80.784314%,6.666667%,25.490196%);fill-opacity:1;stroke-width:0.24;stroke-linecap:butt;stroke-linejoin:miter;stroke:rgb(80.784314%,6.666667%,25.490196%);stroke-opacity:1;stroke-miterlimit:4;" d="M 20.626587 61.338501 C 20.276489 69.369873 20.393188 78.136719 22.202026 85.815063 C 20.568237 84.079346 18.846924 82.431885 17.038086 80.9021 C 15.345947 82.696655 13.916382 84.608887 12.253418 86.285767 C 13.974731 77.636597 16.775513 69.252197 20.626587 61.338501 Z M 20.626587 61.338501 " transform="matrix(0.133891,0,0,0.13278,0,0)"/>
<path style="fill-rule:nonzero;fill:rgb(80.784314%,6.666667%,25.490196%);fill-opacity:1;stroke-width:0.24;stroke-linecap:butt;stroke-linejoin:miter;stroke:rgb(80.784314%,6.666667%,25.490196%);stroke-opacity:1;stroke-miterlimit:4;" d="M 214.434814 82.696655 L 214.930786 84.844238 L 210.729614 81.843506 C 208.804077 82.696655 206.995239 83.902832 205.186401 84.726562 C 206.499268 76.842285 206.907715 68.840332 206.411743 60.838379 C 210.116943 67.692993 212.15918 75.135986 214.434814 82.696655 Z M 214.434814 82.696655 " transform="matrix(0.133891,0,0,0.13278,0,0)"/>
<path style="fill-rule:nonzero;fill:rgb(80.784314%,6.666667%,25.490196%);fill-opacity:1;stroke-width:0.24;stroke-linecap:butt;stroke-linejoin:miter;stroke:rgb(80.784314%,6.666667%,25.490196%);stroke-opacity:1;stroke-miterlimit:4;" d="M 113.635864 158.774048 C 117.953735 165.481567 126.005981 167.423218 133.445557 165.481567 C 136.187988 164.86377 138.842896 163.951782 141.351929 162.716187 C 138.784546 170.041504 137.530029 177.778687 137.646729 185.515869 C 137.675903 192.252808 138.755371 198.930908 140.885132 205.314819 C 139.805664 205.079468 138.842896 204.255737 137.646729 203.755615 C 122.884277 196.342041 102.111816 196.577393 87.611938 204.255737 C 88.312134 201.96106 89.041504 199.342773 89.654175 196.93042 C 91.81311 185.78064 90.237671 174.130737 86.386597 163.922363 C 94.205444 167.158447 105.612793 167.893921 111.9729 160.686279 C 112.468872 160.009644 113.023193 159.362427 113.635864 158.774048 Z M 113.635864 158.774048 " transform="matrix(0.133891,0,0,0.13278,0,0)"/>
<path style="fill-rule:nonzero;fill:rgb(80.784314%,6.666667%,25.490196%);fill-opacity:1;stroke-width:0.24;stroke-linecap:butt;stroke-linejoin:miter;stroke:rgb(80.784314%,6.666667%,25.490196%);stroke-opacity:1;stroke-miterlimit:4;" d="M 80.755859 164.275391 C 80.405762 167.423218 79.326294 171.012329 75.971191 172.218506 C 73.199585 172.924561 70.807251 171.365356 68.998413 169.453125 C 68.152344 168.541138 67.598022 167.423218 67.306274 166.217041 C 71.507446 168.982422 77.050659 166.80542 80.63916 164.157715 Z M 80.755859 164.275391 " transform="matrix(0.133891,0,0,0.13278,0,0)"/>
<path style="fill-rule:nonzero;fill:rgb(80.784314%,6.666667%,25.490196%);fill-opacity:1;stroke-width:0.24;stroke-linecap:butt;stroke-linejoin:miter;stroke:rgb(80.784314%,6.666667%,25.490196%);stroke-opacity:1;stroke-miterlimit:4;" d="M 159.848755 164.657837 C 158.885986 167.540894 156.347778 170.394531 153.488647 171.012329 C 151.271362 171.365356 149.083252 170.306274 147.945435 168.364624 C 147.216064 167.305542 146.749268 166.069946 146.632568 164.775513 C 150.366943 167.776245 156.231079 167.040771 159.848755 164.657837 Z M 159.848755 164.657837 " transform="matrix(0.133891,0,0,0.13278,0,0)"/>
<path style="fill-rule:nonzero;fill:rgb(80.784314%,6.666667%,25.490196%);fill-opacity:1;stroke-width:0.24;stroke-linecap:butt;stroke-linejoin:miter;stroke:rgb(80.784314%,6.666667%,25.490196%);stroke-opacity:1;stroke-miterlimit:4;" d="M 151.67981 172.806885 C 153.255249 172.953979 154.859863 172.748047 156.347778 172.218506 C 152.146606 182.662231 147.12854 192.723511 141.9646 202.814209 C 140.155762 197.783569 140.651733 192.370483 140.885132 186.722046 C 141.672852 180.161621 143.131592 173.689453 145.203003 167.423218 C 146.632568 169.806152 148.908203 172.336182 151.67981 172.806885 Z M 151.67981 172.806885 " transform="matrix(0.133891,0,0,0.13278,0,0)"/>
<path style="fill-rule:nonzero;fill:rgb(80.784314%,6.666667%,25.490196%);fill-opacity:1;stroke-width:0.24;stroke-linecap:butt;stroke-linejoin:miter;stroke:rgb(80.784314%,6.666667%,25.490196%);stroke-opacity:1;stroke-miterlimit:4;" d="M 86.036499 202.696533 L 86.036499 202.814209 C 79.676392 193.223633 74.891724 183.015259 70.311279 172.806885 C 72.353516 173.895386 75.854492 174.60144 78.013428 173.159912 C 79.938965 171.659546 81.339355 169.541382 81.952026 167.158447 C 87.115967 177.484497 88.312134 190.928955 86.036499 202.696533 Z M 86.036499 202.696533 " transform="matrix(0.133891,0,0,0.13278,0,0)"/>
<path style="fill-rule:nonzero;fill:rgb(80.784314%,6.666667%,25.490196%);fill-opacity:1;stroke-width:0.24;stroke-linecap:butt;stroke-linejoin:miter;stroke:rgb(80.784314%,6.666667%,25.490196%);stroke-opacity:1;stroke-miterlimit:4;" d="M 145.203003 210.845581 C 144.356934 219.641846 140.885132 227.967407 135.254395 234.733765 C 122.154907 239.88208 104.533325 240.382202 91.433838 234.85144 C 84.957031 227.87915 82.564697 218.876953 82.185425 209.286377 C 96.130981 199.195679 117.837036 196.93042 133.795654 204.138062 C 137.763428 206.050293 141.731201 207.962524 145.203003 210.845581 Z M 145.203003 210.845581 " transform="matrix(0.133891,0,0,0.13278,0,0)"/>
<path style="fill-rule:nonzero;fill:rgb(80.784314%,6.666667%,25.490196%);fill-opacity:1;stroke-width:0.24;stroke-linecap:butt;stroke-linejoin:miter;stroke:rgb(80.784314%,6.666667%,25.490196%);stroke-opacity:1;stroke-miterlimit:4;" d="M 199.088867 138.62207 C 187.243896 134.385742 174.81543 132.091064 162.241089 131.767456 C 161.161621 118.440674 159.586182 110.17395 156.960449 102.613281 C 150.83374 102.260254 123.730347 101.171753 113.169067 101.171753 C 102.724487 101.171753 75.971191 102.848633 69.961182 103.20166 C 66.547729 112.615723 64.330444 122.412231 63.367676 132.355835 C 50.005615 133.385498 36.847778 136.180298 24.244263 140.651978 C 22.552124 141.240356 21.851929 141.858154 21.851929 141.740479 C 26.432373 147.56543 33.375977 151.036865 40.786377 151.213379 C 44.404053 151.331055 51.230957 150.595581 55.548828 148.68335 C 56.77417 148.212646 59.166504 147.124146 59.166504 147.124146 C 59.633301 147.947876 60.041748 148.771606 60.362671 149.654175 C 61.558838 153.007935 63.134277 157.920898 64.213745 159.980225 C 65.76001 163.216309 68.269043 165.599243 72.353516 165.716919 C 75.066772 165.569824 77.546631 164.275391 79.209595 162.127808 C 68.648315 161.539429 64.213745 155.890991 63.484375 147.359497 C 60.946167 147.00647 60.245972 146.771118 60.012573 145.32959 C 59.69165 143.799805 60.070923 142.211182 61.092041 141.005005 C 62.288208 139.328125 64.330444 137.768921 69.348511 139.328125 C 72.236816 140.446045 74.862549 142.064087 77.167358 144.123413 C 79.326294 146.182739 85.686401 152.772583 89.508301 154.920166 C 93.592773 157.33252 101.411621 159.597778 106.429688 154.567139 C 109.638916 151.536987 111.768677 147.536011 112.439697 143.182007 C 104.474976 142.946655 96.539429 142.27002 88.691406 141.122681 C 86.532471 140.769653 87.466064 138.739746 89.158203 139.210449 C 89.158203 139.210449 102.957886 141.005005 112.789795 141.122681 C 112.789795 139.916504 112.789795 138.004272 112.906494 135.739014 C 104.62085 135.5625 96.36438 134.709351 88.195435 133.208984 C 86.386597 132.738281 86.765869 130.678955 88.428833 131.179077 C 96.539429 132.50293 104.708374 133.297241 112.906494 133.562012 C 112.906494 131.885132 113.052368 129.355103 113.052368 127.089844 C 104.912598 126.972168 96.802002 126.236694 88.808105 124.942261 C 86.765869 124.559814 87.232666 122.765259 88.808105 123.00061 C 96.831177 124.11853 104.941772 124.736328 113.052368 124.942261 L 113.052368 119.529175 C 113.052368 117.499268 114.832031 117.381592 114.832031 119.411499 L 114.832031 124.795166 C 122.47583 124.618652 130.090454 123.912598 137.646729 122.647583 C 140.039063 122.17688 139.805664 124.206787 138.726196 124.324463 C 130.848999 125.854248 122.855103 126.766235 114.832031 127.089844 L 114.832031 133.562012 C 122.154907 133.32666 130.790649 133.091309 138.113525 131.414429 C 140.885132 130.796631 141.11853 132.973633 138.842896 133.32666 C 130.936523 134.679932 122.971802 135.474243 114.94873 135.739014 C 114.94873 137.533569 114.94873 139.798828 115.06543 141.122681 C 123.380249 140.887329 131.695068 140.151855 139.922363 138.975098 C 141.8479 138.62207 142.197998 140.651978 140.155762 141.005005 C 138.113525 141.240356 124.313843 143.034912 115.444702 143.299683 C 116.407471 146.300415 116.52417 150.595581 120.842041 154.331787 C 124.926514 157.920898 131.986816 157.567871 136.917358 154.684814 C 140.768433 152.419556 146.865967 145.800293 149.054077 143.770386 C 150.83374 142.211182 155.151611 138.239624 160.928223 138.3573 C 166.55896 138.474976 166.675659 141.358032 167.025757 142.211182 C 167.28833 143.182007 167.521729 144.741211 166.208862 145.564941 C 165.246094 146.182739 164.283325 145.917969 163.320557 146.418091 C 162.591187 151.095703 161.161621 156.361694 157.427246 159.127075 C 153.488647 162.127808 147.361938 162.480835 147.361938 162.480835 C 147.361938 162.480835 148.208008 163.45166 148.441406 163.687012 C 150.046021 164.834351 152.000732 165.334473 153.955444 165.12854 C 156.493652 164.687256 158.856812 163.481079 160.665649 161.657104 C 162.591187 159.127075 164.400024 153.97876 165.712891 150.595581 C 166.208862 149.418823 167.405029 147.124146 167.755127 146.182739 C 168.951294 146.653442 169.447266 147.00647 171.606201 147.859619 C 176.011597 149.50708 180.679565 150.330811 185.405884 150.242554 C 191.27002 150.124878 198.009399 146.535767 201.947998 142.799561 C 202.560669 142.211182 203.990234 140.534302 203.990234 140.534302 C 203.990234 140.534302 200.168335 138.975098 199.088867 138.62207 Z M 199.088867 138.62207 " transform="matrix(0.133891,0,0,0.13278,0,0)"/>
<path style="fill-rule:nonzero;fill:rgb(0%,0%,0%);fill-opacity:1;stroke-width:0.24;stroke-linecap:butt;stroke-linejoin:miter;stroke:rgb(80.784314%,6.666667%,25.490196%);stroke-opacity:1;stroke-miterlimit:4;" d="M 135.837891 212.287109 C 136.917358 214.317017 136.071289 216.611694 134.875122 218.40625 C 132.687012 221.112793 129.127686 222.289551 125.772583 221.406982 C 123.701172 220.759766 121.892334 219.406494 120.725342 217.58252 C 120.22937 219.259399 121.425537 220.436157 121.308838 221.995361 C 121.221313 222.171875 121.046265 222.260132 120.871216 222.289551 C 120.696167 222.31897 120.491943 222.260132 120.346069 222.142456 C 118.449707 219.612427 117.720337 215.758545 119.412476 213.022583 C 121.425537 209.168701 125.393311 207.609497 129.594482 207.962524 C 132.24939 208.315552 134.583374 209.933594 135.837891 212.287109 Z M 135.837891 212.287109 " transform="matrix(0.133891,0,0,0.13278,0,0)"/>
<path style="fill-rule:nonzero;fill:rgb(0%,0%,0%);fill-opacity:1;stroke-width:0.24;stroke-linecap:butt;stroke-linejoin:miter;stroke:rgb(80.784314%,6.666667%,25.490196%);stroke-opacity:1;stroke-miterlimit:4;" d="M 106.925659 213.610962 C 108.588623 216.376343 107.771729 219.965454 106.196289 222.613159 C 105.962891 222.966187 105.612793 223.319214 105.116821 222.966187 C 104.387451 222.142456 105.35022 221.406982 105.466919 220.583252 C 105.700317 219.877197 105.729492 219.141724 105.612793 218.40625 C 103.541382 221.436401 99.865356 222.995605 96.247681 222.377808 C 93.534424 221.730591 91.287964 219.78894 90.237671 217.200073 C 89.741699 215.552612 90.004272 213.728638 90.967041 212.287109 C 93.476074 208.93335 98.027344 208.197876 101.761719 209.404053 C 103.949829 210.139526 105.758667 211.610474 106.925659 213.610962 Z M 106.925659 213.610962 " transform="matrix(0.133891,0,0,0.13278,0,0)"/>
<path style="fill-rule:nonzero;fill:rgb(0%,0%,0%);fill-opacity:1;stroke-width:0.24;stroke-linecap:butt;stroke-linejoin:miter;stroke:rgb(80.784314%,6.666667%,25.490196%);stroke-opacity:1;stroke-miterlimit:4;" d="M 135.604492 231.733032 C 135.371094 232.321411 135.254395 232.321411 134.758423 232.939209 C 133.445557 232.556763 131.986816 232.08606 130.557251 231.615356 C 118.566406 226.937744 103.307983 228.261597 92.046509 232.939209 C 91.667236 232.674438 91.404663 232.291992 91.317139 231.850708 C 104.387451 225.966919 122.388306 225.260864 135.604492 231.733032 Z M 135.604492 231.733032 " transform="matrix(0.133891,0,0,0.13278,0,0)"/>
<path style="fill-rule:nonzero;fill:rgb(0%,0%,0%);fill-opacity:1;stroke-width:0.24;stroke-linecap:butt;stroke-linejoin:miter;stroke:rgb(80.784314%,6.666667%,25.490196%);stroke-opacity:1;stroke-miterlimit:4;" d="M 137.763428 168.011597 C 135.837891 177.484497 129.827881 188.398926 119.762573 191.164307 C 111.827026 193.223633 102.957886 191.517334 97.560547 184.92749 C 93.826172 180.161621 91.608887 174.395508 91.200439 168.364624 C 91.579712 168.18811 91.988159 168.099854 92.396606 168.129272 C 93.242676 177.13147 97.910645 186.957397 106.925659 189.722778 C 115.094604 192.311646 123.99292 189.722778 129.477783 183.132935 C 132.949585 178.51416 135.371094 173.189331 136.567261 167.540894 C 137.004883 167.511475 137.442505 167.687988 137.763428 168.011597 Z M 137.763428 168.011597 " transform="matrix(0.133891,0,0,0.13278,0,0)"/>
<path style=" stroke:none;fill-rule:nonzero;fill:rgb(0%,0%,0%);fill-opacity:1;" d="M 2.652344 0.320312 C 2.394531 0.109375 2.070312 -0.00390625 1.734375 0 C 1.367188 0.015625 0 0.480469 0 2.488281 C 0 4.511719 1.238281 5.164062 1.976562 5.164062 C 2.714844 5.164062 3.46875 4.605469 3.710938 3.617188 C 3.742188 3.476562 3.726562 3.457031 3.582031 3.394531 L 3.101562 3.203125 C 2.988281 3.171875 2.972656 3.171875 2.90625 3.363281 C 2.859375 3.507812 2.652344 4.082031 2.152344 4.082031 C 1.65625 4.082031 1.445312 3.363281 1.445312 2.597656 C 1.445312 1.847656 1.574219 1.132812 2.183594 1.132812 C 2.796875 1.132812 2.925781 1.769531 2.972656 2.007812 C 2.988281 2.121094 3.003906 2.121094 3.117188 2.121094 L 3.566406 2.121094 C 3.664062 2.121094 3.664062 2.121094 3.664062 1.914062 L 3.664062 0.257812 C 3.664062 0.160156 3.648438 0.160156 3.453125 0.160156 L 3.050781 0.160156 C 2.972656 0.160156 2.972656 0.175781 2.925781 0.289062 C 2.875 0.351562 2.78125 0.449219 2.652344 0.320312 Z M 2.652344 0.320312 "/>
<path style=" stroke:none;fill-rule:nonzero;fill:rgb(0%,0%,0%);fill-opacity:1;" d="M 20.984375 1.132812 L 21.914062 4.046875 C 21.964844 4.175781 21.964844 4.191406 22.042969 4.191406 L 22.171875 4.191406 C 22.332031 4.191406 22.332031 4.191406 22.332031 4.320312 L 22.332031 4.875 C 22.332031 5.066406 22.316406 5.066406 22.21875 5.066406 L 20.371094 5.066406 C 20.210938 5.066406 20.210938 5.050781 20.210938 4.941406 L 20.210938 4.367188 C 20.210938 4.191406 20.226562 4.191406 20.355469 4.191406 L 20.535156 4.191406 C 20.628906 4.191406 20.628906 4.160156 20.597656 4.046875 L 20.453125 3.601562 C 20.40625 3.523438 20.390625 3.523438 20.277344 3.523438 L 19.152344 3.523438 L 19.394531 2.851562 L 20.082031 2.851562 C 20.195312 2.851562 20.210938 2.835938 20.179688 2.757812 L 19.761719 1.46875 C 19.746094 1.386719 19.714844 1.386719 19.699219 1.449219 L 19.28125 2.757812 C 19.25 2.851562 19.25 2.851562 19.410156 2.851562 L 19.167969 3.523438 C 19.039062 3.523438 19.039062 3.523438 19.007812 3.601562 L 18.863281 4.046875 C 18.832031 4.175781 18.832031 4.191406 18.910156 4.191406 L 19.085938 4.191406 C 19.230469 4.191406 19.230469 4.207031 19.230469 4.367188 L 19.230469 4.941406 C 19.230469 5.050781 19.214844 5.066406 19.070312 5.066406 L 17.800781 5.066406 C 17.691406 5.066406 17.691406 5.050781 17.691406 4.875 L 17.691406 4.320312 C 17.691406 4.207031 17.707031 4.191406 17.835938 4.191406 L 17.960938 4.191406 C 17.992188 4.195312 18.023438 4.1875 18.046875 4.171875 C 18.070312 4.152344 18.085938 4.125 18.089844 4.097656 L 19.039062 1.148438 C 19.070312 1.070312 19.070312 1.054688 18.925781 1.054688 L 18.75 1.054688 C 18.605469 1.054688 18.605469 1.035156 18.605469 0.925781 L 18.605469 0.335938 C 18.605469 0.160156 18.605469 0.160156 18.8125 0.160156 L 21.273438 0.160156 C 21.417969 0.160156 21.417969 0.175781 21.417969 0.335938 L 21.417969 0.894531 C 21.417969 1.019531 21.417969 1.019531 21.242188 1.019531 L 21.046875 1.019531 C 20.953125 1.003906 20.953125 1.035156 20.984375 1.132812 Z M 20.984375 1.132812 "/>
<path style=" stroke:none;fill-rule:nonzero;fill:rgb(0%,0%,0%);fill-opacity:1;" d="M 25.433594 3.347656 L 25.753906 3.347656 C 25.898438 3.347656 25.898438 3.363281 25.898438 3.441406 C 25.898438 3.730469 25.691406 4.082031 25.160156 4.082031 C 24.664062 4.082031 24.453125 3.363281 24.453125 2.597656 C 24.453125 1.847656 24.582031 1.132812 25.191406 1.132812 C 25.5625 1.121094 25.890625 1.367188 25.980469 1.722656 C 25.996094 1.832031 25.996094 1.832031 26.125 1.832031 L 26.574219 1.832031 C 26.671875 1.832031 26.671875 1.832031 26.671875 1.609375 L 26.671875 0.257812 C 26.671875 0.160156 26.65625 0.160156 26.460938 0.160156 L 26.0625 0.160156 C 25.980469 0.160156 25.980469 0.160156 25.914062 0.289062 C 25.898438 0.351562 25.789062 0.449219 25.660156 0.320312 C 25.402344 0.109375 25.078125 -0.00390625 24.742188 0 C 24.375 0.015625 23.007812 0.480469 23.007812 2.488281 C 23.007812 4.511719 24.230469 5.164062 24.984375 5.164062 C 26.109375 5.164062 26.976562 4.320312 26.976562 2.726562 C 26.976562 2.566406 26.960938 2.550781 26.734375 2.550781 L 25.402344 2.550781 C 25.273438 2.550781 25.257812 2.566406 25.257812 2.710938 L 25.257812 3.234375 C 25.257812 3.347656 25.273438 3.347656 25.433594 3.347656 Z M 25.433594 3.347656 "/>
<path style=" stroke:none;fill-rule:nonzero;fill:rgb(0%,0%,0%);fill-opacity:1;" d="M 29.757812 0.128906 C 28.535156 0.128906 27.554688 1.277344 27.554688 2.664062 C 27.554688 4.0625 28.535156 5.179688 29.757812 5.179688 C 30.960938 5.179688 31.941406 4.0625 31.941406 2.664062 C 31.941406 1.277344 30.960938 0.128906 29.757812 0.128906 L 29.738281 1.035156 C 30.191406 1.035156 30.558594 1.769531 30.558594 2.664062 C 30.558594 3.554688 30.207031 4.289062 29.738281 4.289062 C 29.289062 4.289062 28.921875 3.554688 28.921875 2.664062 C 28.921875 1.769531 29.289062 1.035156 29.738281 1.035156 Z M 29.757812 0.128906 "/>
<path style=" stroke:none;fill-rule:nonzero;fill:rgb(0%,0%,0%);fill-opacity:1;" d="M 5.09375 4.082031 L 5.09375 1.164062 C 5.09375 1.054688 5.078125 1.035156 4.964844 1.035156 L 4.820312 1.035156 C 4.675781 1.035156 4.675781 1.019531 4.675781 0.925781 L 4.675781 0.289062 C 4.675781 0.175781 4.691406 0.160156 4.851562 0.160156 L 6.585938 0.160156 C 6.714844 0.160156 6.730469 0.160156 6.730469 0.289062 L 6.730469 0.878906 C 6.730469 1.003906 6.714844 1.003906 6.585938 1.003906 L 6.492188 1.003906 C 6.410156 1.003906 6.394531 1.003906 6.410156 1.117188 L 6.410156 1.960938 C 6.410156 2.167969 6.410156 2.183594 6.585938 2.183594 L 7.519531 2.183594 C 7.695312 2.183594 7.695312 2.167969 7.695312 1.960938 L 7.695312 1.117188 C 7.695312 1.003906 7.679688 1.003906 7.617188 1.003906 L 7.519531 1.003906 C 7.375 1.003906 7.359375 1.003906 7.359375 0.878906 L 7.359375 0.289062 C 7.359375 0.160156 7.390625 0.160156 7.519531 0.160156 L 9.238281 0.160156 C 9.429688 0.160156 9.429688 0.160156 9.429688 0.289062 L 9.429688 0.925781 C 9.429688 1.035156 9.414062 1.035156 9.269531 1.035156 L 9.125 1.035156 C 9.011719 1.035156 9.011719 1.054688 9.011719 1.164062 L 9.011719 4.082031 C 9.011719 4.191406 9.03125 4.191406 9.15625 4.191406 L 9.304688 4.191406 C 9.429688 4.191406 9.429688 4.191406 9.429688 4.367188 L 9.429688 4.941406 C 9.429688 5.035156 9.429688 5.066406 9.269531 5.066406 L 7.4375 5.066406 C 7.328125 5.066406 7.328125 5.066406 7.328125 4.875 L 7.328125 4.320312 C 7.308594 4.191406 7.328125 4.191406 7.472656 4.191406 L 7.566406 4.191406 C 7.679688 4.191406 7.679688 4.175781 7.679688 4.0625 L 7.679688 3.15625 C 7.679688 2.949219 7.664062 2.933594 7.519531 2.933594 L 6.585938 2.933594 C 6.441406 2.933594 6.425781 2.949219 6.425781 3.15625 L 6.425781 4.0625 C 6.425781 4.191406 6.425781 4.191406 6.539062 4.191406 L 6.636719 4.191406 C 6.78125 4.191406 6.78125 4.191406 6.78125 4.320312 L 6.78125 4.875 C 6.78125 5.066406 6.78125 5.066406 6.667969 5.066406 L 4.820312 5.066406 C 4.675781 5.066406 4.675781 5.066406 4.675781 4.941406 L 4.675781 4.367188 C 4.675781 4.191406 4.691406 4.191406 4.789062 4.191406 L 4.949219 4.191406 C 5.09375 4.191406 5.09375 4.191406 5.09375 4.082031 Z M 5.09375 4.082031 "/>
<path style=" stroke:none;fill-rule:nonzero;fill:rgb(0%,0%,0%);fill-opacity:1;" d="M 10.714844 1.132812 C 10.714844 1.019531 10.714844 1.019531 10.636719 1.019531 L 10.476562 1.019531 C 10.316406 1.019531 10.316406 1.003906 10.316406 0.894531 L 10.316406 0.289062 C 10.316406 0.160156 10.332031 0.160156 10.460938 0.160156 L 12.179688 0.160156 C 12.371094 0.160156 12.371094 0.160156 12.371094 0.289062 L 12.371094 0.925781 C 12.371094 1.035156 12.355469 1.035156 12.210938 1.035156 L 12.128906 1.035156 C 12.019531 1.035156 12.019531 1.054688 12.019531 1.164062 L 12.019531 4.082031 C 12.019531 4.191406 12.035156 4.191406 12.164062 4.191406 L 12.292969 4.191406 C 12.402344 4.191406 12.402344 4.191406 12.402344 4.367188 L 12.402344 4.941406 C 12.402344 5.035156 12.402344 5.066406 12.257812 5.066406 L 10.425781 5.066406 C 10.316406 5.066406 10.316406 5.066406 10.316406 4.875 L 10.316406 4.320312 C 10.300781 4.191406 10.316406 4.191406 10.460938 4.191406 L 10.605469 4.191406 C 10.714844 4.191406 10.714844 4.191406 10.714844 4.0625 Z M 10.714844 1.132812 "/>
<path style=" stroke:none;fill-rule:nonzero;fill:rgb(0%,0%,0%);fill-opacity:1;" d="M 15.746094 0.320312 C 15.488281 0.109375 15.164062 -0.00390625 14.828125 0 C 14.460938 0.015625 13.09375 0.480469 13.09375 2.488281 C 13.09375 4.511719 14.316406 5.164062 15.070312 5.164062 C 15.808594 5.164062 16.566406 4.605469 16.804688 3.617188 C 16.839844 3.476562 16.820312 3.457031 16.675781 3.394531 L 16.195312 3.203125 C 16.082031 3.171875 16.066406 3.171875 16.003906 3.363281 C 15.953125 3.507812 15.746094 4.082031 15.246094 4.082031 C 14.75 4.082031 14.539062 3.363281 14.539062 2.597656 C 14.539062 1.847656 14.667969 1.132812 15.28125 1.132812 C 15.890625 1.132812 16.019531 1.769531 16.066406 2.007812 C 16.082031 2.121094 16.097656 2.121094 16.210938 2.121094 L 16.660156 2.121094 C 16.757812 2.121094 16.757812 2.121094 16.757812 1.914062 L 16.757812 0.257812 C 16.757812 0.160156 16.742188 0.160156 16.550781 0.160156 L 16.148438 0.160156 C 16.066406 0.160156 16.066406 0.175781 16.019531 0.289062 C 15.96875 0.351562 15.875 0.449219 15.746094 0.320312 Z M 15.746094 0.320312 "/>
<path style=" stroke:none;fill-rule:nonzero;fill:rgb(0%,0%,0%);fill-opacity:1;" d="M 4.804688 7.378906 L 4.804688 10.277344 C 4.804688 10.375 4.789062 10.375 4.691406 10.375 L 4.53125 10.375 C 4.402344 10.375 4.386719 10.40625 4.386719 10.535156 L 4.386719 11.140625 C 4.386719 11.25 4.417969 11.25 4.546875 11.25 L 7.230469 11.25 L 6.3125 10.328125 C 6.136719 10.328125 6.121094 10.328125 6.121094 10.136719 L 6.121094 9.304688 C 6.121094 9.148438 6.136719 9.132812 6.3125 9.132812 L 6.3125 8.382812 C 6.121094 8.382812 6.121094 8.367188 6.121094 8.207031 L 6.121094 7.363281 C 6.121094 7.1875 6.136719 7.1875 6.296875 7.1875 C 6.476562 7.1875 7.183594 7.203125 7.183594 7.808594 C 7.183594 8.414062 6.539062 8.382812 6.3125 8.382812 L 6.3125 9.148438 C 6.507812 9.148438 7.183594 9.164062 7.183594 9.769531 C 7.183594 10.375 6.539062 10.359375 6.3125 10.359375 L 7.230469 11.28125 C 7.90625 11.28125 8.402344 10.675781 8.402344 9.992188 C 8.402344 9.304688 7.96875 9.035156 7.617188 8.78125 C 7.871094 8.589844 8.304688 8.300781 8.304688 7.617188 C 8.304688 6.851562 7.550781 6.375 7.085938 6.375 L 4.609375 6.375 C 4.402344 6.375 4.386719 6.375 4.386719 6.535156 L 4.386719 7.15625 C 4.386719 7.25 4.402344 7.265625 4.546875 7.265625 L 4.707031 7.265625 C 4.804688 7.234375 4.804688 7.25 4.804688 7.378906 Z M 4.804688 7.378906 "/>
<path style=" stroke:none;fill-rule:nonzero;fill:rgb(0%,0%,0%);fill-opacity:1;" d="M 13.015625 7.332031 L 13.015625 9.832031 C 13.015625 10.46875 12.675781 11.410156 11.40625 11.410156 C 10.121094 11.410156 9.511719 10.46875 9.511719 9.832031 L 9.511719 7.332031 C 9.511719 7.21875 9.496094 7.21875 9.398438 7.21875 L 9.253906 7.21875 C 9.109375 7.21875 9.109375 7.21875 9.109375 7.089844 L 9.109375 6.535156 C 9.109375 6.34375 9.125 6.34375 9.285156 6.34375 L 11.003906 6.34375 C 11.132812 6.34375 11.167969 6.34375 11.167969 6.503906 L 11.167969 7.058594 C 11.167969 7.1875 11.152344 7.1875 10.972656 7.1875 L 10.828125 7.1875 C 10.75 7.1875 10.734375 7.203125 10.734375 7.296875 L 10.734375 9.738281 C 10.742188 10.140625 11.082031 10.460938 11.488281 10.453125 C 11.683594 10.46875 11.878906 10.398438 12.019531 10.257812 C 12.160156 10.121094 12.234375 9.933594 12.226562 9.738281 L 12.226562 7.332031 C 12.226562 7.1875 12.210938 7.1875 12.097656 7.1875 L 11.96875 7.1875 C 11.824219 7.1875 11.808594 7.1875 11.808594 7.058594 L 11.808594 6.503906 C 11.808594 6.359375 11.808594 6.34375 11.953125 6.34375 L 13.222656 6.34375 C 13.449219 6.34375 13.449219 6.34375 13.449219 6.503906 L 13.449219 7.089844 C 13.449219 7.21875 13.449219 7.21875 13.289062 7.21875 L 13.125 7.21875 C 13.015625 7.234375 13.015625 7.234375 13.015625 7.332031 Z M 13.015625 7.332031 "/>
<path style=" stroke:none;fill-rule:nonzero;fill:rgb(0%,0%,0%);fill-opacity:1;" d="M 19.007812 10.375 L 18.832031 10.375 C 18.71875 10.375 18.703125 10.40625 18.703125 10.566406 L 18.703125 11.140625 C 18.703125 11.25 18.71875 11.25 18.847656 11.25 L 22.011719 11.25 C 22.15625 11.25 22.171875 11.25 22.171875 11.074219 L 22.171875 9.65625 C 22.171875 9.53125 22.15625 9.53125 22.011719 9.53125 L 21.5625 9.53125 C 21.417969 9.53125 21.402344 9.53125 21.402344 9.703125 L 21.402344 10.199219 C 21.402344 10.390625 21.386719 10.40625 21.257812 10.40625 L 20.550781 10.40625 C 20.339844 10.40625 20.324219 10.375 20.324219 10.246094 L 20.324219 7.410156 C 20.324219 7.21875 20.324219 7.21875 20.4375 7.21875 L 20.613281 7.21875 C 20.757812 7.21875 20.757812 7.203125 20.757812 7.089844 L 20.757812 6.535156 C 20.757812 6.375 20.757812 6.359375 20.597656 6.359375 L 18.910156 6.359375 C 18.6875 6.359375 18.6875 6.375 18.6875 6.535156 L 18.6875 7.109375 C 18.6875 7.234375 18.703125 7.25 18.847656 7.25 L 18.992188 7.25 C 19.105469 7.25 19.105469 7.25 19.105469 7.425781 L 19.105469 10.246094 C 19.121094 10.375 19.105469 10.375 19.007812 10.375 Z M 19.007812 10.375 "/>
<path style=" stroke:none;fill-rule:nonzero;fill:rgb(0%,0%,0%);fill-opacity:1;" d="M 26.351562 9.894531 C 26.351562 10.933594 25.355469 11.378906 24.9375 11.378906 C 24.605469 11.371094 24.285156 11.257812 24.019531 11.058594 C 23.890625 10.933594 23.746094 11.074219 23.699219 11.140625 C 23.632812 11.25 23.617188 11.265625 23.570312 11.265625 L 23.363281 11.265625 C 23.152344 11.265625 23.167969 11.265625 23.167969 11.15625 L 23.167969 9.800781 C 23.167969 9.578125 23.167969 9.578125 23.25 9.578125 L 23.570312 9.578125 C 23.683594 9.578125 23.683594 9.59375 23.714844 9.6875 C 23.835938 10.082031 24.199219 10.351562 24.613281 10.359375 C 24.855469 10.359375 25.046875 10.292969 25.046875 10.085938 C 25.046875 9.625 24.773438 9.511719 24.292969 9.257812 C 23.8125 9.019531 23.089844 8.734375 23.089844 7.679688 C 23.085938 6.90625 23.691406 6.265625 24.46875 6.214844 C 24.789062 6.222656 25.09375 6.332031 25.335938 6.535156 C 25.386719 6.574219 25.457031 6.589844 25.519531 6.574219 C 25.582031 6.558594 25.632812 6.511719 25.660156 6.453125 C 25.738281 6.328125 25.738281 6.328125 25.804688 6.328125 L 26.011719 6.328125 C 26.207031 6.328125 26.222656 6.328125 26.222656 6.4375 L 26.222656 7.792969 C 26.222656 8 26.222656 8.015625 26.125 8.015625 L 25.820312 8.015625 C 25.691406 8.015625 25.691406 8 25.660156 7.902344 C 25.511719 7.507812 25.136719 7.242188 24.710938 7.234375 C 24.625 7.226562 24.535156 7.257812 24.476562 7.320312 C 24.414062 7.382812 24.382812 7.46875 24.390625 7.554688 C 24.390625 7.839844 24.710938 8.09375 25.257812 8.367188 C 25.804688 8.621094 26.351562 9.019531 26.351562 9.894531 Z M 26.351562 9.894531 "/>
<path style=" stroke:none;fill-rule:nonzero;fill:rgb(0%,0%,0%);fill-opacity:1;" d="M 14.605469 10.375 L 14.429688 10.375 C 14.316406 10.375 14.300781 10.40625 14.300781 10.566406 L 14.300781 11.140625 C 14.300781 11.25 14.316406 11.25 14.460938 11.25 L 17.625 11.25 C 17.753906 11.25 17.769531 11.25 17.769531 11.074219 L 17.769531 9.65625 C 17.769531 9.53125 17.753906 9.53125 17.625 9.53125 L 17.160156 9.53125 C 17.015625 9.53125 17 9.53125 17 9.703125 L 17 10.199219 C 17 10.390625 16.984375 10.40625 16.855469 10.40625 L 16.148438 10.40625 C 15.9375 10.40625 15.9375 10.375 15.9375 10.246094 L 15.9375 7.410156 C 15.9375 7.21875 15.9375 7.21875 16.035156 7.21875 L 16.210938 7.21875 C 16.355469 7.21875 16.355469 7.203125 16.355469 7.089844 L 16.355469 6.535156 C 16.355469 6.375 16.355469 6.359375 16.195312 6.359375 L 14.507812 6.359375 C 14.300781 6.359375 14.300781 6.375 14.300781 6.535156 L 14.300781 7.109375 C 14.300781 7.234375 14.300781 7.25 14.445312 7.25 L 14.589844 7.25 C 14.703125 7.25 14.703125 7.25 14.703125 7.425781 L 14.703125 10.246094 C 14.71875 10.375 14.703125 10.375 14.605469 10.375 Z M 14.605469 10.375 "/>
<path style=" stroke:none;fill-rule:nonzero;fill:rgb(100%,100%,100%);fill-opacity:1;" d="M 3.246094 12.207031 C 3.9375 13.527344 5.335938 13.960938 6.765625 13.878906 C 7.550781 13.878906 8.324219 13.800781 9.109375 13.75 L 9.109375 13.800781 C 8.710938 14.910156 8.429688 16.058594 8.273438 17.226562 C 6.21875 17.304688 4.113281 17.128906 2.601562 15.777344 C 1.558594 14.738281 1.300781 13.304688 1.527344 11.886719 C 1.765625 11.601562 2.039062 11.363281 2.28125 11.074219 C 2.617188 11.441406 3.164062 11.726562 3.246094 12.207031 Z M 3.246094 12.207031 "/>
<path style=" stroke:none;fill-rule:nonzero;fill:rgb(100%,100%,100%);fill-opacity:1;" d="M 28.839844 11.617188 C 28.886719 11.824219 28.886719 12.015625 28.921875 12.238281 C 29.015625 13.800781 28.324219 15.25 26.976562 16.046875 C 25.5 16.9375 23.796875 17.226562 21.980469 17.289062 C 21.949219 17.128906 21.929688 16.90625 21.898438 16.730469 C 21.773438 15.695312 21.5625 14.675781 21.273438 13.671875 C 23.214844 13.640625 25.578125 14.148438 26.863281 12.382812 C 27.023438 12.125 27.203125 11.917969 27.347656 11.648438 C 27.636719 11.519531 27.910156 11.328125 28.199219 11.1875 C 28.4375 11.296875 28.597656 11.488281 28.839844 11.617188 Z M 28.839844 11.617188 "/>
<path style=" stroke:none;fill-rule:nonzero;fill:rgb(100%,100%,100%);fill-opacity:1;" d="M 21.464844 19.566406 C 21.480469 20.171875 21.273438 20.792969 20.726562 21.082031 C 20.46875 21.210938 20.179688 21.273438 19.890625 21.257812 C 19.882812 21.199219 19.882812 21.140625 19.890625 21.082031 C 20.324219 21.082031 20.757812 20.921875 21 20.570312 C 21.148438 20.292969 21.226562 19.980469 21.222656 19.664062 C 21.296875 19.613281 21.378906 19.578125 21.464844 19.566406 Z M 21.464844 19.566406 "/>
<path style=" stroke:none;fill-rule:nonzero;fill:rgb(100%,100%,100%);fill-opacity:1;" d="M 10.507812 21.191406 C 10.417969 21.21875 10.324219 21.21875 10.234375 21.191406 C 9.839844 21.195312 9.460938 21.03125 9.195312 20.742188 C 8.925781 20.457031 8.789062 20.070312 8.820312 19.679688 C 8.910156 19.648438 9.003906 19.648438 9.09375 19.679688 C 9.09375 20.238281 9.320312 20.96875 10.476562 20.96875 C 10.554688 21.097656 10.476562 21.113281 10.507812 21.191406 Z M 10.507812 21.191406 "/>
</g>
</svg>
