<?xml version="1.0" encoding="UTF-8"?>
<svg xmlns="http://www.w3.org/2000/svg" xmlns:xlink="http://www.w3.org/1999/xlink" width="32px" height="32px" viewBox="0 0 32 32" version="1.1">
<g id="surface1">
<path style=" stroke:none;fill-rule:nonzero;fill:rgb(70.980392%,70.196078%,70.196078%);fill-opacity:1;" d="M 31.972656 15.988281 C 31.972656 24.816406 24.816406 31.972656 15.988281 31.972656 C 7.15625 31.972656 0 24.816406 0 15.988281 C 0 7.15625 7.15625 0 15.988281 0 C 24.816406 0 31.976562 7.15625 31.972656 15.988281 "/>
<path style=" stroke:none;fill-rule:nonzero;fill:rgb(11.372549%,25.882353%,54.117647%);fill-opacity:1;" d="M 31.511719 15.988281 C 31.511719 24.5625 24.5625 31.511719 15.988281 31.511719 C 7.410156 31.511719 0.460938 24.5625 0.460938 15.988281 C 0.460938 7.414062 7.410156 0.460938 15.988281 0.460938 C 24.5625 0.460938 31.515625 7.410156 31.511719 15.988281 "/>
<path style=" stroke:none;fill-rule:nonzero;fill:rgb(78.431373%,6.27451%,18.039216%);fill-opacity:1;" d="M 29.226562 15.988281 C 29.226562 23.300781 23.300781 29.230469 15.988281 29.230469 C 8.671875 29.234375 2.742188 23.304688 2.742188 15.992188 C 2.742188 8.679688 8.667969 2.75 15.980469 2.746094 C 23.296875 2.746094 29.226562 8.671875 29.226562 15.988281 "/>
<path style=" stroke:none;fill-rule:nonzero;fill:rgb(100%,100%,100%);fill-opacity:1;" d="M 15.988281 2.746094 C 8.675781 2.746094 2.746094 8.675781 2.746094 15.988281 C 2.746094 23.300781 8.675781 29.226562 15.988281 29.226562 C 23.300781 29.226562 29.226562 23.300781 29.226562 15.988281 C 29.21875 8.679688 23.296875 2.757812 15.988281 2.746094 M 3.515625 16.375 L 5.949219 16.375 L 5.949219 15.597656 L 3.515625 15.597656 C 3.523438 15.304688 3.535156 15.011719 3.570312 14.722656 C 4.429688 10.375 9.671875 7.015625 15.988281 7.015625 C 22.304688 7.015625 27.539062 10.371094 28.40625 14.722656 C 28.433594 15.011719 28.449219 15.304688 28.460938 15.597656 L 26.023438 15.597656 L 26.023438 16.375 L 28.453125 16.375 C 28.445312 16.667969 28.433594 16.964844 28.398438 17.253906 C 27.535156 21.597656 22.296875 24.957031 15.980469 24.957031 C 9.664062 24.957031 4.429688 21.605469 3.5625 17.253906 C 3.535156 16.964844 3.519531 16.675781 3.515625 16.375 M 15.988281 3.507812 C 21.132812 3.515625 25.75 6.675781 27.617188 11.46875 C 25.394531 8.433594 21.015625 6.363281 15.988281 6.363281 C 10.957031 6.363281 6.574219 8.433594 4.359375 11.46875 C 6.222656 6.671875 10.839844 3.511719 15.988281 3.507812 M 15.988281 28.472656 C 10.839844 28.464844 6.226562 25.304688 4.359375 20.511719 C 6.578125 23.546875 10.957031 25.617188 15.988281 25.617188 C 21.015625 25.617188 25.402344 23.546875 27.617188 20.511719 C 25.746094 25.304688 21.132812 28.464844 15.988281 28.472656 "/>
<path style=" stroke:none;fill-rule:nonzero;fill:rgb(100%,100%,100%);fill-opacity:1;" d="M 10.390625 20.539062 L 11.324219 20.539062 L 11.324219 16.335938 L 10.390625 16.335938 Z M 10.390625 20.539062 "/>
<path style=" stroke:none;fill-rule:nonzero;fill:rgb(100%,100%,100%);fill-opacity:1;" d="M 13.976562 16.335938 L 13.949219 16.335938 C 13.6875 16.335938 12.730469 16.332031 12.546875 16.335938 L 12.496094 16.335938 C 12.210938 16.335938 12.035156 16.46875 11.992188 16.714844 C 11.988281 16.738281 11.984375 16.761719 11.984375 16.785156 C 11.984375 16.796875 11.917969 17.585938 11.996094 17.808594 C 12.125 18.167969 12.414062 18.300781 12.683594 18.386719 C 12.695312 18.386719 12.699219 18.390625 12.710938 18.390625 L 12.761719 18.40625 C 12.789062 18.414062 12.808594 18.433594 12.824219 18.457031 L 12.828125 19.972656 L 12.058594 19.972656 L 12.0625 20.535156 L 13.078125 20.535156 C 13.433594 20.515625 13.671875 20.359375 13.765625 20.09375 C 13.792969 19.890625 13.792969 18.480469 13.777344 18.183594 C 13.769531 18.070312 13.710938 17.964844 13.617188 17.902344 C 13.570312 17.867188 13.519531 17.832031 13.46875 17.800781 C 13.410156 17.773438 13.351562 17.742188 13.292969 17.71875 C 13.074219 17.613281 12.828125 17.492188 12.828125 17.207031 L 12.828125 16.96875 L 13.5625 16.96875 C 13.707031 16.972656 13.84375 16.890625 13.910156 16.757812 C 13.949219 16.691406 13.976562 16.613281 13.988281 16.535156 C 13.996094 16.476562 13.996094 16.417969 13.988281 16.359375 Z M 13.976562 16.335938 "/>
<path style=" stroke:none;fill-rule:nonzero;fill:rgb(100%,100%,100%);fill-opacity:1;" d="M 18.257812 16.332031 C 18.054688 16.324219 17.851562 16.339844 17.652344 16.386719 C 17.191406 16.496094 16.96875 16.804688 16.96875 17.324219 L 16.96875 19.828125 C 16.96875 20.464844 17.429688 20.601562 18.117188 20.601562 C 18.953125 20.601562 19.429688 20.304688 19.429688 19.789062 L 19.429688 17.179688 C 19.429688 16.332031 18.890625 16.332031 18.257812 16.332031 M 17.953125 17.28125 C 17.953125 17.191406 17.960938 17.105469 17.980469 17.019531 L 17.996094 17.003906 C 18.039062 16.996094 18.085938 16.992188 18.128906 16.992188 L 18.144531 16.992188 C 18.460938 16.996094 18.472656 17.089844 18.472656 17.664062 L 18.472656 19.417969 C 18.476562 19.46875 18.472656 19.519531 18.46875 19.574219 C 18.46875 19.621094 18.464844 19.671875 18.453125 19.71875 L 18.433594 19.734375 C 18.378906 19.738281 18.324219 19.746094 18.269531 19.746094 C 18.179688 19.753906 18.089844 19.726562 18.019531 19.667969 C 17.945312 19.589844 17.941406 19.460938 17.945312 19.3125 L 17.945312 17.535156 C 17.945312 17.546875 17.945312 17.347656 17.953125 17.28125 "/>
<path style=" stroke:none;fill-rule:nonzero;fill:rgb(100%,100%,100%);fill-opacity:1;" d="M 21.597656 18.125 C 21.148438 16.503906 20.433594 16.324219 20.140625 16.324219 C 20.097656 16.324219 20.054688 16.328125 20.011719 16.335938 L 19.988281 16.34375 L 19.988281 20.542969 L 20.9375 20.542969 L 20.9375 18.851562 L 21.597656 20.542969 L 22.566406 20.542969 L 22.566406 16.335938 L 21.605469 16.335938 L 21.605469 18.125 Z M 21.597656 18.125 "/>
<path style=" stroke:none;fill-rule:nonzero;fill:rgb(100%,100%,100%);fill-opacity:1;" d="M 9.25 16.332031 L 6.882812 16.335938 L 6.855469 16.335938 L 6.855469 16.363281 C 6.851562 16.675781 7.082031 16.9375 7.386719 16.980469 L 7.386719 20.542969 L 8.359375 20.542969 L 8.359375 18.757812 L 9.175781 18.757812 C 9.609375 18.757812 9.851562 18.472656 9.851562 17.980469 L 9.851562 17.828125 C 9.851562 16.632812 9.804688 16.390625 9.25 16.332031 M 8.871094 18.203125 L 8.34375 18.203125 L 8.34375 16.980469 C 8.34375 16.980469 8.632812 16.976562 8.671875 16.980469 C 8.777344 16.992188 8.871094 17.035156 8.871094 17.160156 C 8.875 17.195312 8.871094 18.203125 8.871094 18.203125 "/>
<path style=" stroke:none;fill-rule:nonzero;fill:rgb(100%,100%,100%);fill-opacity:1;" d="M 16.679688 16.335938 L 14.488281 16.335938 L 14.488281 16.996094 L 15.117188 16.996094 L 15.117188 20.542969 L 16.082031 20.542969 L 16.082031 16.992188 L 16.113281 16.992188 C 16.265625 17 16.414062 16.945312 16.519531 16.835938 C 16.632812 16.707031 16.6875 16.535156 16.679688 16.363281 Z M 16.679688 16.335938 "/>
<path style=" stroke:none;fill-rule:nonzero;fill:rgb(100%,100%,100%);fill-opacity:1;" d="M 25.113281 16.335938 L 25.085938 16.335938 C 24.824219 16.335938 23.863281 16.332031 23.679688 16.335938 L 23.632812 16.335938 C 23.347656 16.335938 23.171875 16.46875 23.125 16.714844 C 23.121094 16.738281 23.121094 16.761719 23.121094 16.785156 C 23.121094 16.796875 23.054688 17.585938 23.132812 17.808594 C 23.257812 18.167969 23.546875 18.300781 23.820312 18.386719 C 23.832031 18.386719 23.835938 18.390625 23.847656 18.390625 L 23.898438 18.40625 C 23.921875 18.414062 23.945312 18.433594 23.957031 18.457031 L 23.964844 19.972656 L 23.191406 19.972656 L 23.199219 20.535156 L 24.214844 20.535156 C 24.570312 20.515625 24.808594 20.359375 24.902344 20.09375 C 24.929688 19.890625 24.929688 18.480469 24.914062 18.183594 C 24.90625 18.070312 24.847656 17.964844 24.753906 17.902344 C 24.703125 17.867188 24.65625 17.832031 24.601562 17.800781 C 24.546875 17.773438 24.484375 17.742188 24.429688 17.71875 C 24.207031 17.613281 23.964844 17.492188 23.964844 17.207031 L 23.964844 16.96875 L 24.695312 16.96875 C 24.84375 16.972656 24.980469 16.890625 25.046875 16.757812 C 25.085938 16.691406 25.113281 16.613281 25.125 16.535156 C 25.128906 16.476562 25.128906 16.417969 25.125 16.359375 Z M 25.113281 16.335938 "/>
<path style=" stroke:none;fill-rule:nonzero;fill:rgb(100%,100%,100%);fill-opacity:1;" d="M 16.515625 13.738281 L 16.675781 13.738281 C 16.832031 13.746094 17.089844 13.789062 17.089844 14.070312 C 17.089844 14.207031 17.101562 14.628906 17.109375 14.78125 L 17.109375 14.84375 C 17.109375 14.933594 17.117188 15.023438 17.128906 15.109375 C 17.195312 15.355469 17.386719 15.503906 17.6875 15.53125 L 17.957031 15.53125 L 17.957031 14.03125 C 17.945312 13.875 17.886719 13.71875 17.785156 13.59375 L 17.761719 13.566406 C 17.914062 13.402344 17.988281 13.1875 17.972656 12.96875 L 17.972656 12.824219 C 17.972656 11.664062 17.929688 11.429688 17.386719 11.367188 L 15.578125 11.367188 L 15.578125 15.476562 L 16.515625 15.476562 Z M 16.519531 12.023438 L 16.707031 12.023438 C 16.953125 12.027344 17.046875 12.027344 17.035156 12.460938 C 17.035156 12.804688 17.035156 12.828125 17.03125 13 L 17.03125 13.035156 C 17.03125 13.085938 17.011719 13.132812 16.980469 13.171875 C 16.960938 13.195312 16.933594 13.207031 16.902344 13.207031 L 16.519531 13.207031 Z M 16.519531 12.023438 "/>
<path style=" stroke:none;fill-rule:nonzero;fill:rgb(100%,100%,100%);fill-opacity:1;" d="M 22.328125 11.375 L 21.410156 11.375 L 21.410156 15.480469 L 22.328125 15.480469 Z M 22.328125 11.375 "/>
<path style=" stroke:none;fill-rule:nonzero;fill:rgb(100%,100%,100%);fill-opacity:1;" d="M 13.5625 15.488281 L 14.5 15.488281 L 14.5 12.019531 L 14.53125 12.019531 C 14.679688 12.027344 14.824219 11.972656 14.933594 11.867188 C 15.039062 11.738281 15.097656 11.574219 15.085938 11.40625 L 15.085938 11.378906 L 12.949219 11.378906 L 12.949219 12.023438 L 13.5625 12.023438 Z M 13.5625 15.488281 "/>
<path style=" stroke:none;fill-rule:nonzero;fill:rgb(100%,100%,100%);fill-opacity:1;" d="M 23.414062 15.488281 L 24.351562 15.488281 L 24.351562 12.019531 L 24.386719 12.019531 C 24.535156 12.027344 24.679688 11.96875 24.785156 11.863281 C 24.894531 11.734375 24.949219 11.570312 24.941406 11.402344 L 24.941406 11.375 L 22.804688 11.375 L 22.804688 12.019531 L 23.414062 12.019531 Z M 23.414062 15.488281 "/>
<path style=" stroke:none;fill-rule:nonzero;fill:rgb(100%,100%,100%);fill-opacity:1;" d="M 12.457031 14.820312 L 11.472656 14.820312 L 11.472656 13.820312 L 12.152344 13.820312 L 12.152344 12.933594 L 11.472656 12.933594 L 11.472656 12.007812 L 12.457031 12.007812 L 12.457031 11.375 L 10.5625 11.375 L 10.558594 15.480469 L 12.457031 15.480469 Z M 12.457031 14.820312 "/>
<path style=" stroke:none;fill-rule:nonzero;fill:rgb(100%,100%,100%);fill-opacity:1;" d="M 9.371094 11.375 L 7.027344 11.375 L 7.023438 11.402344 C 7.007812 11.554688 7.050781 11.707031 7.144531 11.828125 C 7.257812 11.953125 7.417969 12.019531 7.582031 12.019531 L 7.582031 15.476562 L 9.324219 15.476562 C 9.726562 15.476562 9.992188 15.136719 9.992188 14.636719 L 9.992188 12.734375 C 9.992188 11.679688 9.992188 11.394531 9.371094 11.375 M 9.042969 14.820312 L 8.519531 14.820312 L 8.519531 12.019531 C 8.652344 12.003906 8.785156 12.011719 8.914062 12.035156 C 9.039062 12.085938 9.03125 12.308594 9.03125 12.3125 C 9.070312 12.640625 9.046875 14.566406 9.042969 14.820312 "/>
<path style=" stroke:none;fill-rule:nonzero;fill:rgb(100%,100%,100%);fill-opacity:1;" d="M 19.75 11.375 C 19.546875 11.367188 19.34375 11.386719 19.144531 11.429688 C 18.691406 11.535156 18.46875 11.839844 18.46875 12.34375 L 18.46875 14.792969 C 18.46875 15.421875 18.921875 15.546875 19.605469 15.546875 C 20.433594 15.546875 20.910156 15.261719 20.910156 14.761719 L 20.910156 12.207031 C 20.910156 11.375 20.371094 11.375 19.75 11.375 M 19.441406 12.308594 C 19.441406 12.222656 19.449219 12.136719 19.46875 12.050781 L 19.484375 12.035156 C 19.527344 12.027344 19.574219 12.023438 19.617188 12.023438 L 19.632812 12.023438 C 19.949219 12.027344 19.957031 12.125 19.957031 12.683594 L 19.957031 14.40625 C 19.957031 14.453125 19.957031 14.503906 19.949219 14.554688 C 19.949219 14.601562 19.945312 14.648438 19.933594 14.695312 L 19.917969 14.710938 C 19.863281 14.714844 19.804688 14.722656 19.75 14.722656 C 19.660156 14.730469 19.574219 14.703125 19.507812 14.644531 C 19.433594 14.566406 19.429688 14.445312 19.433594 14.300781 L 19.433594 12.5625 C 19.441406 12.5625 19.441406 12.375 19.441406 12.308594 "/>
</g>
</svg>
