<?xml version="1.0" encoding="UTF-8"?>
<svg xmlns="http://www.w3.org/2000/svg" xmlns:xlink="http://www.w3.org/1999/xlink" width="32px" height="32px" viewBox="0 0 32 32" version="1.1">
<g id="surface1">
<path style=" stroke:none;fill-rule:nonzero;fill:rgb(74.509804%,75.294118%,76.078431%);fill-opacity:1;" d="M 31.960938 15.976562 C 31.964844 24.804688 24.808594 31.960938 15.980469 31.960938 C 7.15625 31.960938 0 24.804688 0 15.980469 C 0 7.152344 7.15625 -0.00390625 15.984375 0 C 24.808594 0 31.960938 7.152344 31.960938 15.976562 Z M 31.960938 15.976562 "/>
<path style=" stroke:none;fill-rule:nonzero;fill:rgb(0%,17.647059%,38.431373%);fill-opacity:1;" d="M 31.046875 15.976562 C 31.042969 24.289062 24.300781 31.027344 15.988281 31.023438 C 7.675781 31.023438 0.9375 24.28125 0.9375 15.96875 C 0.9375 7.65625 7.675781 0.917969 15.988281 0.914062 C 24.300781 0.914062 31.042969 7.648438 31.046875 15.960938 C 31.046875 15.96875 31.046875 15.972656 31.046875 15.976562 Z M 31.046875 15.976562 "/>
<path style=" stroke:none;fill-rule:nonzero;fill:rgb(99.215686%,73.333333%,18.823529%);fill-opacity:1;" d="M 15.984375 1.621094 C 8.054688 1.617188 1.625 8.039062 1.621094 15.96875 C 1.617188 23.898438 8.042969 30.332031 15.972656 30.332031 C 23.902344 30.332031 30.332031 23.90625 30.332031 15.976562 C 30.335938 8.050781 23.910156 1.621094 15.984375 1.621094 Z M 15.984375 1.621094 "/>
<path style=" stroke:none;fill-rule:nonzero;fill:rgb(0%,17.647059%,38.431373%);fill-opacity:1;" d="M 25.8125 15.976562 C 25.8125 21.515625 21.402344 26.011719 15.984375 26.011719 C 10.550781 26.011719 6.160156 21.515625 6.160156 15.976562 C 6.160156 10.4375 10.550781 5.949219 15.984375 5.949219 C 21.410156 5.949219 25.8125 10.4375 25.8125 15.976562 Z M 25.8125 15.976562 "/>
<path style=" stroke:none;fill-rule:nonzero;fill:rgb(100%,100%,100%);fill-opacity:1;" d="M 25.183594 15.976562 C 25.183594 21.160156 21.070312 25.359375 15.984375 25.359375 C 10.90625 25.359375 6.785156 21.160156 6.785156 15.976562 C 6.785156 10.792969 10.898438 6.59375 15.984375 6.59375 C 21.070312 6.59375 25.183594 10.792969 25.183594 15.976562 Z M 25.183594 15.976562 "/>
<path style=" stroke:none;fill-rule:nonzero;fill:rgb(0%,17.647059%,38.431373%);fill-opacity:1;" d="M 5.898438 13.171875 L 5.800781 13.535156 L 2.867188 12.8125 L 2.960938 12.441406 Z M 5.898438 13.171875 "/>
<path style=" stroke:none;fill-rule:nonzero;fill:rgb(0%,17.647059%,38.431373%);fill-opacity:1;" d="M 6.308594 8.660156 L 7.570312 9.625 L 7.351562 9.914062 L 4.957031 8.074219 L 5.078125 7.910156 L 6.8125 8.363281 L 5.503906 7.359375 L 5.722656 7.074219 L 8.117188 8.902344 L 8.003906 9.078125 Z M 6.308594 8.660156 "/>
<path style=" stroke:none;fill-rule:nonzero;fill:rgb(0%,17.647059%,38.431373%);fill-opacity:1;" d="M 9.398438 4.015625 L 9.992188 3.710938 C 10.246094 3.582031 10.558594 3.589844 10.722656 3.902344 C 11.097656 4.652344 11.273438 4.972656 11.65625 5.707031 C 11.71875 5.828125 11.722656 5.972656 11.675781 6.101562 C 11.625 6.230469 11.523438 6.335938 11.394531 6.386719 L 10.777344 6.699219 Z M 10.976562 6.226562 L 11.132812 6.140625 C 11.261719 6.089844 11.324219 5.945312 11.273438 5.816406 C 11.269531 5.808594 11.265625 5.800781 11.261719 5.792969 C 10.949219 5.183594 10.722656 4.746094 10.410156 4.128906 C 10.351562 4.011719 10.210938 3.960938 10.09375 4.015625 C 10.089844 4.019531 10.082031 4.023438 10.078125 4.023438 L 9.894531 4.121094 Z M 10.976562 6.226562 "/>
<path style=" stroke:none;fill-rule:nonzero;fill:rgb(0%,17.647059%,38.431373%);fill-opacity:1;" d="M 15.601562 5.304688 L 15.226562 5.332031 L 15.054688 2.308594 L 15.453125 2.28125 Z M 15.601562 5.304688 "/>
<path style=" stroke:none;fill-rule:nonzero;fill:rgb(0%,17.647059%,38.431373%);fill-opacity:1;" d="M 20.007812 6.105469 L 20.140625 5.523438 L 19.636719 5.332031 L 19.328125 5.84375 L 18.972656 5.707031 L 20.585938 3.082031 L 20.957031 3.222656 L 20.382812 6.246094 Z M 20.425781 4.042969 L 20.410156 4.035156 L 19.792969 5.050781 L 20.199219 5.199219 Z M 20.425781 4.042969 "/>
<path style=" stroke:none;fill-rule:nonzero;fill:rgb(0%,17.647059%,38.431373%);fill-opacity:1;" d="M 24.503906 7.28125 L 23.335938 8.378906 L 23.085938 8.117188 L 25.289062 6.046875 L 25.417969 6.183594 L 24.695312 7.839844 L 25.90625 6.699219 L 26.152344 6.960938 L 23.945312 9.035156 L 23.808594 8.886719 Z M 24.503906 7.28125 "/>
<path style=" stroke:none;fill-rule:nonzero;fill:rgb(0%,17.647059%,38.431373%);fill-opacity:1;" d="M 26.011719 12.910156 L 26.542969 12.640625 L 26.367188 12.125 L 25.777344 12.222656 L 25.652344 11.855469 L 28.710938 11.445312 L 28.84375 11.820312 L 26.140625 13.292969 Z M 27.882812 11.941406 L 27.867188 11.917969 L 26.691406 12.082031 L 26.832031 12.492188 Z M 27.882812 11.941406 "/>
<path style=" stroke:none;fill-rule:nonzero;fill:rgb(0%,17.647059%,38.431373%);fill-opacity:1;" d="M 3.953125 22.28125 L 3.773438 21.933594 L 6.445312 20.550781 L 6.890625 21.394531 C 6.976562 21.570312 6.933594 21.699219 6.804688 21.769531 C 6.324219 22.011719 6.082031 22.144531 5.601562 22.394531 C 5.539062 22.433594 5.464844 22.4375 5.398438 22.414062 C 5.332031 22.390625 5.277344 22.339844 5.253906 22.273438 L 4.984375 21.75 Z M 5.269531 21.59375 L 5.488281 22.003906 L 6.558594 21.4375 L 6.339844 21.027344 Z M 5.269531 21.59375 "/>
<path style=" stroke:none;fill-rule:nonzero;fill:rgb(0%,17.647059%,38.431373%);fill-opacity:1;" d="M 7.945312 27.089844 L 8.242188 26.570312 L 7.804688 26.230469 L 7.359375 26.621094 L 7.066406 26.386719 L 9.382812 24.363281 L 9.695312 24.617188 L 8.257812 27.335938 Z M 8.980469 25.246094 L 8.964844 25.21875 L 8.074219 26.003906 L 8.414062 26.273438 Z M 8.980469 25.246094 "/>
<path style=" stroke:none;fill-rule:nonzero;fill:rgb(0%,17.647059%,38.431373%);fill-opacity:1;" d="M 13.3125 28.441406 L 13.695312 28.539062 L 13.503906 29.3125 C 13.476562 29.441406 13.347656 29.527344 13.21875 29.5 C 13.214844 29.496094 13.210938 29.496094 13.207031 29.496094 C 12.9375 29.433594 12.753906 29.382812 12.472656 29.3125 C 12.34375 29.285156 12.257812 29.152344 12.289062 29.019531 C 12.289062 29.015625 12.289062 29.011719 12.292969 29.007812 C 12.527344 28.050781 12.65625 27.519531 12.890625 26.558594 C 12.921875 26.429688 13.046875 26.347656 13.175781 26.375 C 13.179688 26.375 13.183594 26.375 13.1875 26.378906 C 13.457031 26.4375 13.648438 26.5 13.929688 26.558594 C 14.0625 26.59375 14.140625 26.730469 14.105469 26.863281 L 14.101562 26.863281 L 13.957031 27.476562 L 13.570312 27.386719 L 13.703125 26.847656 L 13.25 26.742188 L 12.691406 29.042969 L 13.144531 29.148438 Z M 13.3125 28.441406 "/>
<path style=" stroke:none;fill-rule:nonzero;fill:rgb(0%,17.647059%,38.431373%);fill-opacity:1;" d="M 18.878906 29.476562 L 17.902344 29.660156 L 17.378906 26.683594 L 18.335938 26.507812 L 18.390625 26.832031 L 17.804688 26.925781 L 17.980469 27.902344 L 18.527344 27.804688 L 18.582031 28.128906 L 18.039062 28.222656 L 18.230469 29.261719 L 18.808594 29.164062 Z M 18.878906 29.476562 "/>
<path style=" stroke:none;fill-rule:nonzero;fill:rgb(0%,17.647059%,38.431373%);fill-opacity:1;" d="M 23.328125 27.578125 L 22.996094 27.789062 L 21.296875 25.289062 L 22.125 24.722656 C 22.179688 24.675781 22.253906 24.65625 22.320312 24.671875 C 22.390625 24.683594 22.449219 24.730469 22.484375 24.792969 C 22.71875 25.132812 22.875 25.359375 23.109375 25.707031 C 23.15625 25.761719 23.171875 25.832031 23.160156 25.902344 C 23.144531 25.96875 23.101562 26.03125 23.039062 26.0625 L 22.996094 26.097656 L 24.105469 27.046875 L 23.746094 27.292969 L 22.5 26.195312 L 22.492188 26.054688 L 22.753906 25.878906 L 22.203125 25.078125 L 21.796875 25.359375 Z M 23.328125 27.578125 "/>
<path style=" stroke:none;fill-rule:nonzero;fill:rgb(0%,17.647059%,38.431373%);fill-opacity:1;" d="M 26.402344 23.015625 L 27.003906 23.398438 L 27.179688 23.121094 L 26.59375 22.746094 L 25.472656 22.804688 C 25.402344 22.8125 25.332031 22.800781 25.269531 22.761719 C 25.054688 22.621094 24.957031 22.554688 24.714844 22.414062 C 24.601562 22.34375 24.570312 22.199219 24.640625 22.085938 L 24.644531 22.082031 C 24.757812 21.882812 24.863281 21.734375 24.984375 21.542969 C 25.015625 21.484375 25.070312 21.441406 25.136719 21.429688 C 25.203125 21.417969 25.269531 21.433594 25.324219 21.472656 L 25.855469 21.8125 L 25.644531 22.136719 L 25.183594 21.839844 L 25.007812 22.125 L 25.460938 22.40625 L 26.535156 22.335938 C 26.628906 22.324219 26.722656 22.34375 26.804688 22.394531 C 27.082031 22.578125 27.179688 22.632812 27.476562 22.8125 C 27.589844 22.882812 27.628906 23.03125 27.5625 23.144531 C 27.441406 23.347656 27.34375 23.492188 27.214844 23.683594 C 27.179688 23.742188 27.125 23.785156 27.058594 23.796875 C 26.996094 23.808594 26.925781 23.796875 26.875 23.753906 L 26.210938 23.328125 Z M 26.402344 23.015625 "/>
<path style=" stroke:none;fill-rule:nonzero;fill:rgb(74.509804%,75.294118%,76.078431%);fill-opacity:1;" d="M 13.050781 10.277344 L 10.558594 21.570312 L 15.488281 21.570312 C 15.488281 21.570312 16.039062 19.320312 16.082031 19.121094 L 18.214844 19.121094 C 19.816406 19.128906 21.125 18.589844 22.003906 17.554688 C 23.617188 15.800781 23.335938 13.25 22.125 11.785156 C 21.261719 10.738281 19.972656 10.140625 18.617188 10.15625 L 13.074219 10.15625 Z M 13.050781 10.277344 "/>
<path style=" stroke:none;fill-rule:nonzero;fill:rgb(0%,17.647059%,38.431373%);fill-opacity:1;" d="M 15.722656 18.675781 L 15.132812 21.125 L 11.117188 21.125 L 13.433594 10.617188 L 18.605469 10.617188 C 19.832031 10.601562 21 11.140625 21.777344 12.089844 C 22.925781 13.476562 23.039062 15.785156 21.664062 17.273438 C 20.820312 18.257812 19.574219 18.703125 18.214844 18.683594 Z M 15.722656 18.675781 "/>
<path style=" stroke:none;fill-rule:nonzero;fill:rgb(99.215686%,73.333333%,18.823529%);fill-opacity:1;" d="M 12.890625 13.023438 L 15.15625 13.023438 C 15.417969 13.023438 15.699219 13.230469 15.585938 13.570312 C 15.503906 13.789062 15.449219 14.015625 15.417969 14.242188 C 15.402344 14.40625 15.59375 14.519531 15.699219 14.519531 L 20.324219 14.519531 C 20.410156 14.519531 20.453125 14.496094 20.453125 14.453125 C 20.457031 14.351562 20.445312 14.253906 20.425781 14.15625 C 20.410156 14.058594 20.402344 14.035156 20.3125 14.035156 C 19.738281 14.035156 19.503906 13.773438 18.894531 13.390625 C 18.292969 12.996094 17.40625 12.769531 16.636719 12.769531 L 12.925781 12.769531 Z M 12.890625 13.023438 "/>
<path style=" stroke:none;fill-rule:nonzero;fill:rgb(99.215686%,73.333333%,18.823529%);fill-opacity:1;" d="M 15.699219 16.011719 C 15.617188 15.828125 15.550781 15.636719 15.496094 15.445312 C 15.445312 15.210938 15.234375 15.019531 14.878906 15.019531 L 12.449219 15.019531 L 12.519531 14.746094 L 20.402344 14.757812 C 20.472656 14.757812 20.460938 14.792969 20.453125 14.878906 C 20.453125 14.964844 20.425781 15.121094 20.417969 15.21875 C 20.410156 15.324219 20.332031 15.296875 20.261719 15.296875 C 20.011719 15.289062 19.769531 15.355469 19.554688 15.488281 C 19.234375 15.742188 18.527344 16.175781 18.144531 16.289062 C 17.71875 16.410156 16.160156 16.898438 15.699219 16.011719 Z M 15.699219 16.011719 "/>
<path style=" stroke:none;fill-rule:nonzero;fill:rgb(99.215686%,73.333333%,18.823529%);fill-opacity:1;" d="M 12.019531 17.003906 L 16.132812 17.003906 C 16.296875 17 16.460938 17.046875 16.59375 17.144531 C 16.976562 17.433594 17.410156 17.652344 17.875 17.78125 C 18.085938 17.847656 18.457031 17.761719 18.789062 17.578125 C 19.609375 17.109375 20.140625 16.230469 20.324219 15.652344 C 20.367188 15.503906 20.28125 15.515625 20.175781 15.523438 C 19.828125 15.550781 19.460938 15.863281 18.980469 16.175781 C 18.492188 16.472656 17.527344 16.769531 16.59375 16.769531 L 12.082031 16.769531 Z M 12.019531 17.003906 "/>
<path style=" stroke:none;fill-rule:nonzero;fill:rgb(99.215686%,73.333333%,18.823529%);fill-opacity:1;" d="M 18.066406 11.488281 C 18.191406 11.464844 18.320312 11.472656 18.441406 11.507812 C 19.234375 11.820312 19.964844 12.632812 20.28125 13.492188 C 20.339844 13.667969 20.359375 13.761719 20.28125 13.773438 C 19.921875 13.816406 19.765625 13.632812 19.328125 13.355469 C 18.917969 13.074219 18.464844 12.855469 17.988281 12.710938 C 17.457031 12.542969 16.5 12.507812 16.386719 12.507812 C 16.261719 12.507812 16.273438 12.457031 16.324219 12.40625 C 16.796875 11.925781 17.40625 11.605469 18.066406 11.488281 Z M 18.066406 11.488281 "/>
<path style=" stroke:none;fill-rule:nonzero;fill:rgb(99.215686%,73.333333%,18.823529%);fill-opacity:1;" d="M 21.8125 14.453125 C 21.808594 14.492188 21.777344 14.527344 21.734375 14.53125 L 20.828125 14.53125 C 20.714844 14.53125 20.714844 14.476562 20.714844 14.40625 C 20.695312 14.316406 20.6875 14.222656 20.6875 14.128906 C 20.6875 14.058594 20.652344 13.972656 20.757812 13.929688 C 21.007812 13.800781 21.210938 13.605469 21.351562 13.363281 C 21.378906 13.292969 21.4375 13.179688 21.5 13.277344 C 21.726562 13.617188 21.796875 14.035156 21.8125 14.453125 Z M 21.8125 14.453125 "/>
<path style=" stroke:none;fill-rule:nonzero;fill:rgb(99.215686%,73.333333%,18.823529%);fill-opacity:1;" d="M 21.492188 16.070312 C 21.480469 16.105469 21.410156 16.132812 21.402344 16.070312 C 21.273438 15.765625 21.039062 15.515625 20.742188 15.367188 C 20.679688 15.332031 20.679688 15.289062 20.679688 15.21875 C 20.6875 15.15625 20.714844 14.949219 20.722656 14.871094 C 20.722656 14.800781 20.757812 14.746094 20.8125 14.746094 L 21.75 14.746094 C 21.777344 14.746094 21.820312 14.78125 21.820312 14.800781 C 21.808594 15.242188 21.695312 15.679688 21.492188 16.070312 Z M 21.492188 16.070312 "/>
<path style=" stroke:none;fill-rule:nonzero;fill:rgb(99.215686%,73.333333%,18.823529%);fill-opacity:1;" d="M 19.050781 17.832031 C 18.980469 17.847656 18.832031 17.824219 19.058594 17.691406 C 19.738281 17.292969 20.359375 16.367188 20.515625 15.828125 C 20.585938 15.617188 20.585938 15.609375 20.671875 15.636719 C 20.835938 15.710938 20.972656 15.828125 21.070312 15.976562 C 21.195312 16.152344 21.253906 16.5 21.175781 16.585938 C 20.660156 17.265625 19.898438 17.714844 19.050781 17.832031 Z M 19.050781 17.832031 "/>
<path style=" stroke:none;fill-rule:nonzero;fill:rgb(99.215686%,73.333333%,18.823529%);fill-opacity:1;" d="M 20.785156 13.625 C 20.628906 13.710938 20.59375 13.683594 20.558594 13.570312 C 20.261719 12.535156 19.382812 11.761719 19.023438 11.523438 C 18.964844 11.488281 18.972656 11.457031 19.023438 11.464844 C 19.878906 11.585938 20.722656 12.046875 21.140625 12.683594 C 21.394531 13.050781 20.941406 13.535156 20.785156 13.625 Z M 20.785156 13.625 "/>
</g>
</svg>
