<?xml version="1.0" encoding="UTF-8"?>
<svg xmlns="http://www.w3.org/2000/svg" xmlns:xlink="http://www.w3.org/1999/xlink" width="32px" height="32px" viewBox="0 0 32 44" version="1.1">
<g id="surface1">
<path style=" stroke:none;fill-rule:nonzero;fill:rgb(0%,0%,0%);fill-opacity:1;" d="M 4.109375 12.496094 C 4.203125 11.402344 8.121094 9.96875 14.496094 9.738281 C 13.695312 10.335938 13.164062 11.222656 13.019531 12.207031 L 12.960938 12.667969 C 12.921875 12.964844 12.859375 13.261719 12.769531 13.546875 C 12.519531 14.179688 11.828125 14.714844 11.097656 15.097656 C 8.542969 14.789062 6.394531 14.234375 5.144531 13.566406 C 4.453125 13.222656 4.070312 12.820312 4.109375 12.496094 Z M 28.492188 12.167969 C 28.742188 12.4375 28.722656 12.609375 28.722656 12.667969 C 28.703125 12.972656 28.320312 13.355469 27.667969 13.679688 C 26.304688 14.386719 23.960938 14.925781 21.195312 15.210938 C 21.328125 15.132812 21.460938 15.0625 21.601562 15 L 21.636719 14.980469 C 22.445312 14.65625 23.347656 14.292969 23.386719 12.972656 C 23.40625 12.761719 23.40625 12.132812 23.519531 11.902344 C 23.671875 11.59375 24.058594 11.15625 24.382812 11.019531 L 23.828125 10.925781 L 23.75 10.925781 C 23.921875 10.800781 24.058594 10.636719 24.152344 10.449219 C 26.417969 10.925781 27.9375 11.558594 28.492188 12.167969 Z M 31.257812 10.523438 C 30.085938 9.203125 27.4375 8.152344 24.058594 7.519531 C 24.058594 7.136719 24.308594 6.964844 24.730469 6.660156 C 24.976562 6.488281 25.214844 6.304688 25.441406 6.105469 C 26.535156 5.050781 25.246094 3.484375 25.210938 3.40625 L 24.5 2.546875 L 24.671875 3.65625 C 24.789062 4.402344 24.519531 4.671875 23.671875 5.242188 C 23.578125 5.316406 23.492188 5.390625 23.40625 5.472656 C 23.464844 4.882812 23.425781 4.289062 23.289062 3.714844 C 23.136719 3.023438 22.789062 2.738281 22.789062 2.738281 L 22.695312 3.75 C 22.695312 3.769531 22.617188 4.554688 21.5625 5.511719 C 21.652344 5.40625 21.734375 5.300781 21.8125 5.1875 C 22.328125 4.421875 22.175781 3.578125 22.003906 2.585938 L 21.964844 2.375 C 21.792969 1.359375 22.0625 0.710938 22.234375 0.59375 C 22.40625 0.386719 22.753906 0.0390625 22.753906 0.0390625 C 22.753906 0.0390625 22.578125 -0.0351562 22.0625 0.0195312 C 21.40625 0.117188 20.292969 0.519531 20.3125 1.417969 C 20.351562 1.792969 20.441406 2.160156 20.582031 2.507812 C 20.699219 2.871094 20.8125 3.214844 20.699219 3.371094 C 20.621094 3.503906 20.390625 3.617188 20.007812 3.695312 C 18.433594 3.980469 17.242188 4.6875 16.644531 5.722656 C 16.441406 6.066406 16.296875 6.441406 16.222656 6.832031 C 12.363281 6.851562 8.699219 7.328125 5.875 8.191406 C 2.6875 9.164062 0.941406 10.503906 0.804688 12.054688 C 0.730469 12.878906 1.113281 14.042969 3.148438 15.171875 L 3.128906 15.171875 L 3.707031 15.460938 L 4.011719 15.59375 C 5.070312 16.054688 6.167969 16.414062 7.296875 16.664062 C 6.863281 16.90625 6.457031 17.195312 6.085938 17.527344 C 3.1875 19.902344 2.183594 23.890625 3.617188 27.347656 C 5.046875 30.808594 8.578125 32.933594 12.316406 32.582031 C 16.058594 32.234375 19.128906 29.492188 19.890625 25.828125 C 20.582031 23.78125 20.503906 21.582031 20.46875 20.738281 C 20.390625 18.847656 21.332031 17.792969 21.925781 17.335938 C 24.613281 16.988281 27.015625 16.398438 28.78125 15.613281 L 29.070312 15.480469 L 29.683594 15.191406 L 29.664062 15.171875 C 31.105469 14.371094 31.910156 13.449219 31.988281 12.457031 C 32.0625 11.765625 31.8125 11.117188 31.257812 10.523438 Z M 31.257812 10.523438 "/>
<path style=" stroke:none;fill-rule:nonzero;fill:rgb(0%,0%,0%);fill-opacity:1;" d="M 8.523438 38.433594 L 9.621094 34.015625 L 7.8125 34.015625 L 6.71875 38.433594 Z M 8.523438 38.433594 "/>
<path style=" stroke:none;fill-rule:nonzero;fill:rgb(0%,0%,0%);fill-opacity:1;" d="M 12.460938 35.085938 L 12.574219 36.90625 L 11.636719 36.90625 L 12.574219 38.433594 L 14.226562 38.433594 L 13.976562 34.015625 L 11.269531 34.015625 C 11.269531 34.015625 9.042969 38.433594 9.0625 38.433594 L 10.789062 38.433594 Z M 12.460938 35.085938 "/>
<path style=" stroke:none;fill-rule:nonzero;fill:rgb(0%,0%,0%);fill-opacity:1;" d="M 8.292969 42.527344 L 7.910156 44.039062 L 9.601562 44.039062 L 10.695312 39.601562 L 9.003906 39.601562 L 8.601562 41.324219 L 7.335938 41.324219 L 7.738281 39.601562 L 6.046875 39.601562 L 4.953125 44.039062 L 6.644531 44.039062 L 7.007812 42.527344 Z M 8.292969 42.527344 "/>
<path style=" stroke:none;fill-rule:nonzero;fill:rgb(0%,0%,0%);fill-opacity:1;" d="M 12.328125 43.027344 L 12.441406 42.433594 L 14.535156 42.433594 L 14.804688 41.457031 L 12.710938 41.457031 L 12.84375 40.808594 L 14.9375 40.808594 L 15.265625 39.601562 L 11.460938 39.601562 L 10.347656 44.039062 L 14.152344 44.039062 L 14.417969 43.027344 Z M 12.328125 43.027344 "/>
<path style=" stroke:none;fill-rule:nonzero;fill:rgb(0%,0%,0%);fill-opacity:1;" d="M 23.195312 38.433594 L 24.289062 34.015625 L 22.484375 34.015625 L 21.390625 38.433594 Z M 23.195312 38.433594 "/>
<path style=" stroke:none;fill-rule:nonzero;fill:rgb(0%,0%,0%);fill-opacity:1;" d="M 26.167969 37.441406 C 26.417969 37.765625 26.6875 38.417969 25.574219 38.914062 C 24.269531 39.507812 25.574219 41 23.808594 41 L 23.078125 41 L 22.328125 44.039062 L 20.523438 44.039062 L 21.253906 41 L 20.027344 41 L 20.410156 39.601562 L 23.558594 39.601562 C 25.402344 39.601562 24.097656 38.320312 25.054688 38.148438 C 25.707031 38.035156 26.113281 37.917969 26.167969 37.441406 Z M 26.167969 37.441406 "/>
<path style=" stroke:none;fill-rule:nonzero;fill:rgb(0%,0%,0%);fill-opacity:1;" d="M 3.609375 36.292969 L 3.320312 34.015625 L 1.09375 34.015625 L 0 38.433594 L 1.652344 38.433594 L 2.246094 36.121094 L 2.265625 36.121094 L 2.59375 38.433594 L 3.550781 38.433594 L 4.894531 36.121094 L 4.914062 36.121094 L 4.378906 38.433594 L 5.933594 38.433594 L 7.027344 34.015625 L 4.894531 34.015625 Z M 3.609375 36.292969 "/>
<path style=" stroke:none;fill-rule:nonzero;fill:rgb(0%,0%,0%);fill-opacity:1;" d="M 18.296875 36.292969 L 18.007812 34.015625 L 15.78125 34.015625 L 14.6875 38.433594 L 16.339844 38.433594 L 16.933594 36.121094 L 16.953125 36.121094 L 17.28125 38.433594 L 18.238281 38.433594 L 19.585938 36.121094 L 19.601562 36.121094 L 19.066406 38.433594 L 20.621094 38.433594 L 21.734375 34.015625 L 19.585938 34.015625 L 18.316406 36.292969 Z M 18.296875 36.292969 "/>
<path style=" stroke:none;fill-rule:nonzero;fill:rgb(0%,0%,0%);fill-opacity:1;" d="M 18.027344 40.691406 L 18.144531 42.511719 L 17.203125 42.511719 L 18.144531 44.039062 L 19.796875 44.039062 L 19.546875 39.601562 L 16.839844 39.601562 C 16.839844 39.601562 14.609375 44.039062 14.628906 44.039062 L 16.359375 44.039062 Z M 18.027344 40.691406 "/>
<path style=" stroke:none;fill-rule:nonzero;fill:rgb(59.607843%,0%,18.039216%);fill-opacity:1;" d="M 3.300781 24.699219 C 3.5625 26.054688 4.332031 27.257812 5.453125 28.066406 C 5.835938 28.339844 6.257812 28.558594 6.699219 28.71875 C 6.433594 28.257812 6.105469 27.78125 5.777344 27.300781 C 5.164062 26.402344 4.53125 25.464844 4.128906 24.46875 C 3.714844 23.457031 3.597656 22.351562 3.78125 21.273438 C 3.449219 22.183594 3.28125 23.140625 3.28125 24.105469 C 3.28125 24.316406 3.300781 24.507812 3.300781 24.699219 Z M 3.300781 24.699219 "/>
<path style=" stroke:none;fill-rule:nonzero;fill:rgb(59.607843%,0%,18.039216%);fill-opacity:1;" d="M 4.683594 24.257812 C 5.070312 25.195312 5.683594 26.097656 6.277344 26.957031 C 6.730469 27.605469 7.144531 28.273438 7.527344 28.964844 C 7.90625 29.042969 8.292969 29.101562 8.679688 29.136719 C 8.246094 28.511719 7.890625 27.839844 7.621094 27.128906 C 6.433594 24.183594 6.585938 20.546875 8.0625 18.445312 C 8.800781 17.414062 9.777344 16.574219 10.90625 15.996094 C 11.902344 15.460938 12.539062 15.289062 13.191406 14.90625 C 13.882812 14.503906 14.246094 13.8125 13.785156 12.265625 C 13.679688 11.910156 13.640625 11.542969 13.671875 11.175781 C 13.488281 11.507812 13.371094 11.871094 13.324219 12.246094 C 13.269531 12.726562 13.171875 13.199219 13.035156 13.660156 C 12.421875 15.269531 9.445312 16.148438 9.0625 16.28125 C 8.046875 16.574219 7.105469 17.078125 6.296875 17.753906 C 4.457031 19.378906 3.816406 21.96875 4.683594 24.257812 Z M 4.683594 24.257812 "/>
<path style=" stroke:none;fill-rule:nonzero;fill:rgb(59.607843%,0%,18.039216%);fill-opacity:1;" d="M 17.125 9.738281 C 17.144531 9.835938 17.164062 9.929688 17.183594 10.027344 C 17.261719 10.601562 17.089844 11.058594 16.414062 11.15625 C 15.707031 11.269531 15.457031 10.65625 15.398438 10.160156 C 15.398438 9.96875 15.417969 9.835938 15.417969 9.738281 L 15.070312 9.738281 C 14.769531 9.914062 14.492188 10.125 14.246094 10.371094 C 14.113281 10.675781 13.9375 11.097656 14.207031 12.074219 C 14.667969 13.8125 14.457031 14.867188 13.074219 15.460938 C 11.289062 16.226562 10.136719 16.683594 8.621094 18.597656 C 7.890625 19.496094 7.488281 21.027344 7.429688 22.539062 C 7.386719 24.027344 7.648438 25.511719 8.199219 26.898438 C 8.515625 27.703125 8.9375 28.460938 9.445312 29.15625 C 9.929688 29.132812 10.414062 29.066406 10.886719 28.964844 C 10.351562 28.34375 10.035156 27.566406 9.984375 26.746094 C 9.8125 23.914062 11.328125 22.730469 13.671875 20.875 L 14.726562 19.992188 C 18.910156 16.453125 17.683594 12.859375 18.144531 9.777344 C 17.804688 9.746094 17.464844 9.734375 17.125 9.738281 Z M 17.125 9.738281 "/>
<path style=" stroke:none;fill-rule:nonzero;fill:rgb(59.607843%,0%,18.039216%);fill-opacity:1;" d="M 18.796875 9.796875 C 18.679688 10.429688 18.601562 11.066406 18.566406 11.710938 C 18.394531 14.386719 18.488281 17.429688 15.070312 20.433594 L 14.054688 21.257812 C 11.769531 23.074219 10.464844 24.222656 10.558594 26.6875 C 10.578125 27.480469 10.917969 28.234375 11.5 28.773438 C 12.15625 28.582031 12.785156 28.320312 13.382812 27.988281 C 16.339844 26.304688 18.203125 23.800781 18.910156 20.585938 C 19.355469 18.558594 19.355469 16.914062 19.335938 15.574219 C 19.335938 14.90625 19.429688 13.605469 19.429688 13.605469 C 19.527344 12.78125 19.640625 11.59375 20.621094 10.082031 C 20.660156 10.027344 20.679688 9.988281 20.71875 9.929688 C 20.121094 9.875 19.46875 9.835938 18.796875 9.796875 Z M 18.796875 9.796875 "/>
<path style=" stroke:none;fill-rule:nonzero;fill:rgb(59.607843%,0%,18.039216%);fill-opacity:1;" d="M 19.796875 18.40625 C 19.699219 18.902344 19.679688 19.4375 19.621094 19.972656 C 19.585938 20.164062 19.546875 20.375 19.527344 20.566406 C 19.523438 20.625 19.511719 20.683594 19.488281 20.738281 C 18.757812 24.125 16.820312 26.746094 13.691406 28.507812 C 13.175781 28.800781 12.636719 29.050781 12.078125 29.253906 C 13 29.84375 14.054688 30.035156 14.785156 29.921875 C 17.585938 29.519531 18.949219 27.703125 19.601562 25.75 C 20.273438 23.761719 20.199219 21.640625 20.160156 20.757812 C 20.0625 17.8125 22.328125 16.722656 22.328125 16.722656 C 20.582031 16.625 19.988281 17.390625 19.796875 18.40625 Z M 19.796875 18.40625 "/>
<path style=" stroke:none;fill-rule:nonzero;fill:rgb(59.607843%,0%,18.039216%);fill-opacity:1;" d="M 17.933594 29.253906 C 17.097656 29.9375 16.085938 30.367188 15.015625 30.496094 C 13.746094 30.671875 12.460938 30.316406 11.460938 29.519531 C 11.425781 29.5 11.425781 29.480469 11.386719 29.464844 C 10.90625 29.589844 10.417969 29.679688 9.925781 29.730469 C 11.039062 30.9375 12.539062 31.625 14.515625 31.738281 L 14.535156 31.738281 C 15.882812 31.222656 17.066406 30.355469 17.972656 29.234375 C 17.953125 29.234375 17.953125 29.253906 17.933594 29.253906 Z M 17.933594 29.253906 "/>
<path style=" stroke:none;fill-rule:nonzero;fill:rgb(59.607843%,0%,18.039216%);fill-opacity:1;" d="M 7.527344 31.28125 C 7.527344 30.640625 7.375 30.011719 7.085938 29.445312 C 6.382812 29.242188 5.710938 28.945312 5.089844 28.5625 C 4.730469 28.308594 4.402344 28.011719 4.109375 27.683594 C 4.847656 29.207031 6.039062 30.464844 7.527344 31.28125 Z M 7.527344 31.28125 "/>
<path style=" stroke:none;fill-rule:nonzero;fill:rgb(59.607843%,0%,18.039216%);fill-opacity:1;" d="M 13.230469 32.121094 C 12.183594 31.917969 11.191406 31.484375 10.328125 30.859375 C 9.898438 30.535156 9.503906 30.164062 9.160156 29.75 C 8.707031 29.753906 8.257812 29.707031 7.8125 29.617188 C 8.074219 30.238281 8.171875 30.917969 8.101562 31.585938 C 9.175781 32.074219 10.339844 32.324219 11.519531 32.3125 C 12.09375 32.3125 12.667969 32.257812 13.230469 32.140625 C 13.246094 32.121094 13.230469 32.121094 13.230469 32.121094 Z M 13.230469 32.121094 "/>
<path style=" stroke:none;fill-rule:nonzero;fill:rgb(59.607843%,0%,18.039216%);fill-opacity:1;" d="M 22.808594 11.957031 C 22.617188 12.589844 21.984375 12.511719 21.792969 12.167969 C 21.503906 11.632812 21.621094 11.210938 21.925781 10.925781 C 22.214844 10.640625 22.714844 10.484375 23.195312 10.257812 L 23.210938 10.257812 C 22.65625 10.160156 22.0625 10.082031 21.445312 10.007812 C 21.425781 10.027344 21.425781 10.027344 21.40625 10.027344 C 21.363281 10.09375 21.308594 10.15625 21.253906 10.21875 C 20.542969 11.234375 20.121094 12.425781 20.027344 13.660156 L 20.007812 13.929688 C 19.945312 14.480469 19.925781 15.039062 19.949219 15.59375 L 19.949219 15.863281 C 19.929688 16.089844 19.929688 16.320312 19.929688 16.53125 C 19.949219 16.433594 19.949219 16.417969 19.949219 16.453125 C 20.21875 15.554688 20.734375 15.019531 21.464844 14.714844 C 22.273438 14.40625 23.039062 14.121094 23.078125 12.972656 C 23.097656 12.496094 23.136719 12.015625 23.230469 11.785156 C 23.34375 11.535156 23.539062 11.332031 23.789062 11.210938 C 23.40625 11.195312 22.980469 11.347656 22.808594 11.957031 Z M 22.808594 11.957031 "/>
<path style="fill-rule:nonzero;fill:rgb(97.647059%,62.745098%,10.588235%);fill-opacity:1;stroke-width:0.12;stroke-linecap:butt;stroke-linejoin:miter;stroke:rgb(97.647059%,62.745098%,10.588235%);stroke-opacity:1;stroke-miterlimit:4;" d="M 148.4375 46.702415 C 148.803711 41.899858 153.369141 41.042259 157.788086 36.974787 C 163.452148 31.584162 156.005859 22.689631 156.005859 22.689631 C 156.958008 28.692827 154.199219 30.971591 149.169922 34.573509 C 147.53418 35.627131 146.435547 37.317827 146.166992 39.253551 C 146.09375 41.630327 145.849609 43.982599 145.43457 46.334872 C 146.435547 46.383878 147.436523 46.506392 148.4375 46.702415 Z M 148.4375 46.702415 " transform="matrix(0.16,0,0,0.15942,0,0)"/>
<path style="fill-rule:nonzero;fill:rgb(97.647059%,62.745098%,10.588235%);fill-opacity:1;stroke-width:0.12;stroke-linecap:butt;stroke-linejoin:miter;stroke:rgb(97.647059%,62.745098%,10.588235%);stroke-opacity:1;stroke-miterlimit:4;" d="M 132.958984 38.420455 C 131.665039 39.400568 130.419922 40.429688 129.248047 41.532315 C 128.393555 42.365412 127.563477 43.100497 126.831055 43.933594 C 131.762695 44.301136 136.547852 44.889205 141.235352 45.501776 C 144.116211 40.086648 145.556641 34.083452 143.75 23.645241 C 143.75 23.645241 143.408203 30.726563 132.958984 38.420455 Z M 132.958984 38.420455 " transform="matrix(0.16,0,0,0.15942,0,0)"/>
<path style="fill-rule:nonzero;fill:rgb(97.647059%,62.745098%,10.588235%);fill-opacity:1;stroke-width:0.12;stroke-linecap:butt;stroke-linejoin:miter;stroke:rgb(97.647059%,62.745098%,10.588235%);stroke-opacity:1;stroke-miterlimit:4;" d="M 105.371094 42.855469 C 111.010742 42.977983 116.52832 43.100497 122.045898 43.566051 C 122.167969 43.345526 122.338867 43.149503 122.509766 42.977983 C 126.123047 39.131037 131.762695 35.774148 134.765625 31.461648 C 137.768555 27.124645 136.547852 21.73402 135.351562 15.26527 C 133.447266 4.091974 138.232422 2.058239 138.232422 2.058239 C 138.232422 2.058239 128.759766 3.381392 129.003906 8.772017 C 129.248047 16.098366 136.791992 22.934659 125.390625 25.090909 C 112.915039 27.369673 105.126953 34.083452 103.442383 42.977983 C 104.077148 42.879972 104.711914 42.830966 105.371094 42.855469 Z M 105.371094 42.855469 " transform="matrix(0.16,0,0,0.15942,0,0)"/>
<path style=" stroke:none;fill-rule:nonzero;fill:rgb(100%,100%,100%);fill-opacity:1;" d="M 16.859375 7.289062 C 8.488281 7.214844 1.515625 9.355469 1.285156 12.09375 C 1.191406 13.183594 2.167969 14.195312 3.917969 15.039062 C 5.210938 15.625 6.570312 16.0625 7.96875 16.339844 C 8.292969 16.207031 8.601562 16.089844 8.964844 15.976562 C 9.425781 15.839844 9.875 15.675781 10.308594 15.480469 C 7.96875 15.152344 6.085938 14.617188 4.914062 13.988281 C 4.050781 13.527344 3.589844 13.011719 3.648438 12.457031 C 3.800781 10.621094 9.65625 9.203125 16.703125 9.261719 C 23.769531 9.335938 29.355469 10.886719 29.183594 12.703125 C 29.144531 13.222656 28.664062 13.679688 27.878906 14.101562 C 26.398438 14.886719 23.808594 15.460938 20.640625 15.746094 C 20.53125 15.90625 20.433594 16.070312 20.351562 16.242188 C 21.792969 15.707031 23.460938 16.511719 23.460938 16.511719 C 23.527344 16.539062 23.59375 16.570312 23.65625 16.609375 C 25.746094 16.226562 27.550781 15.6875 28.894531 15.058594 C 30.488281 14.3125 31.46875 13.375 31.546875 12.398438 C 31.777344 9.664062 25.210938 7.386719 16.859375 7.289062 Z M 16.859375 7.289062 "/>
</g>
</svg>
