<?xml version="1.0" encoding="UTF-8"?>
<svg xmlns="http://www.w3.org/2000/svg" xmlns:xlink="http://www.w3.org/1999/xlink" width="32px" height="32px" viewBox="0 0 32 33" version="1.1">
<g id="surface1">
<path style=" stroke:none;fill-rule:nonzero;fill:rgb(100%,100%,100%);fill-opacity:1;" d="M 30.859375 16.914062 C 31.046875 16.46875 31.742188 14.765625 31.742188 14.765625 L 28.800781 16.378906 C 28.785156 16.390625 27.917969 16.851562 26.679688 17.390625 C 27.363281 15.703125 27.9375 13.976562 28.398438 12.21875 C 29.433594 8.304688 29.992188 3.992188 30.007812 3.804688 L 30.238281 2.070312 C 30.238281 2.070312 24.695312 3.589844 24.171875 3.730469 C 22.203125 1.382812 19.167969 0 15.996094 0 C 12.789062 0 9.753906 1.398438 7.789062 3.761719 C 7.246094 3.605469 1.703125 2.070312 1.703125 2.070312 L 1.933594 3.804688 C 1.933594 3.867188 2.523438 8.289062 3.609375 12.265625 C 4.089844 13.960938 4.667969 15.632812 5.34375 17.265625 C 4.027344 16.699219 2.910156 16.191406 2.878906 16.175781 L 0.15625 14.886719 C 0.15625 14.886719 0.804688 16.515625 0.992188 16.960938 C 0.945312 16.960938 0 16.59375 0 16.59375 L 0.914062 19.015625 L 0.914062 19 C 0.976562 19.1875 1.363281 20.214844 4.304688 28.058594 L 4.722656 29.132812 C 4.722656 29.132812 5.371094 28.917969 5.574219 28.855469 C 5.730469 29.285156 6.164062 30.421875 6.164062 30.421875 L 7.355469 29.824219 C 8.253906 29.363281 10.203125 28.578125 11.769531 28.332031 C 13.640625 30.867188 15.097656 32.1875 15.175781 32.234375 L 15.980469 32.953125 L 16.769531 32.234375 C 16.847656 32.171875 18.316406 30.804688 20.144531 28.347656 C 21.550781 28.554688 22.910156 29.007812 24.15625 29.683594 L 25.316406 30.3125 L 25.828125 29.117188 C 25.859375 29.011719 25.902344 28.910156 25.949219 28.808594 C 26.042969 28.824219 26.601562 29.023438 26.601562 29.023438 L 27.035156 27.949219 C 27.113281 27.734375 29 23.390625 30.8125 19.1875 L 32.019531 16.390625 C 32.035156 16.390625 30.859375 16.914062 30.859375 16.914062 Z M 30.859375 16.914062 "/>
<path style=" stroke:none;fill-rule:nonzero;fill:rgb(0%,0%,0%);fill-opacity:1;" d="M 29.03125 16.808594 C 27.980469 17.355469 26.894531 17.84375 25.78125 18.265625 C 26.65625 16.265625 27.375 14.203125 27.933594 12.09375 C 28.96875 8.179688 29.527344 3.792969 29.542969 3.746094 L 29.667969 2.714844 L 28.660156 2.992188 C 28.660156 2.992188 16.257812 6.386719 15.902344 6.492188 C 15.546875 6.402344 2.277344 2.730469 2.277344 2.730469 L 2.414062 3.761719 C 2.414062 3.804688 2.988281 8.179688 4.070312 12.140625 C 4.738281 14.535156 5.496094 16.390625 6.238281 18.140625 C 4.460938 17.453125 2.695312 16.621094 2.679688 16.609375 L 1.070312 15.855469 L 1.71875 17.480469 C 3.296875 21.394531 4.101562 23.546875 5.125 26.277344 L 6.425781 29.761719 L 7.121094 29.410156 C 8.175781 28.886719 10.328125 28.042969 12 27.828125 C 13.90625 30.46875 15.421875 31.816406 15.5 31.878906 L 15.964844 32.308594 L 16.429688 31.878906 C 16.503906 31.816406 18.039062 30.375 19.914062 27.828125 C 21.863281 28.027344 23.535156 28.808594 24.386719 29.269531 L 25.082031 29.636719 L 25.378906 28.933594 C 26.152344 27.074219 29.976562 17.742188 30.023438 17.652344 L 30.765625 15.839844 Z M 29.03125 16.808594 "/>
<path style=" stroke:none;fill-rule:nonzero;fill:rgb(100%,100%,100%);fill-opacity:1;" d="M 30.425781 17.253906 C 30.394531 17.265625 27.328125 18.558594 24.820312 19.171875 C 25.796875 16.945312 26.648438 14.933594 27.453125 11.972656 C 28.492188 8.089844 29.03125 3.730469 29.046875 3.683594 L 29.078125 3.375 L 28.785156 3.453125 C 28.785156 3.453125 15.996094 6.953125 15.886719 6.984375 C 15.792969 6.953125 2.847656 3.375 2.847656 3.375 L 2.878906 3.683594 C 2.894531 3.730469 3.46875 8.089844 4.535156 12.003906 C 5.25 14.582031 6.070312 16.53125 6.875 18.402344 C 6.875 18.402344 7.015625 18.742188 7.136719 19.03125 C 4.96875 18.496094 2.027344 17.46875 1.996094 17.453125 L 1.578125 17.3125 L 1.734375 17.710938 C 3.019531 21.105469 3.683594 22.914062 4.382812 24.851562 L 5.789062 28.71875 L 5.976562 28.65625 C 8.007812 28.0625 10.085938 27.625 12.1875 27.351562 C 14.058594 30.023438 15.792969 31.527344 15.808594 31.542969 L 15.949219 31.648438 L 16.085938 31.542969 C 17.414062 30.265625 18.617188 28.867188 19.679688 27.367188 C 21.335938 27.472656 24.449219 28.179688 25.625 28.625 L 25.8125 28.703125 L 25.890625 28.519531 C 26.664062 26.675781 30.65625 17.605469 30.6875 17.527344 L 30.890625 17.050781 Z M 30.425781 17.253906 "/>
<path style=" stroke:none;fill-rule:nonzero;fill:rgb(76.862745%,80.784314%,83.137255%);fill-opacity:1;" d="M 24.125 19.753906 L 24.292969 19.386719 C 25.378906 16.914062 26.230469 14.964844 27.050781 11.863281 C 27.917969 8.59375 28.460938 4.988281 28.597656 3.945312 C 28.027344 4.097656 15.949219 7.398438 15.949219 7.398438 L 15.886719 7.414062 C 15.886719 7.414062 3.917969 4.113281 3.328125 3.960938 C 3.484375 5.019531 4.027344 8.625 4.9375 11.925781 C 5.636719 14.472656 6.457031 16.390625 7.246094 18.265625 L 7.820312 19.632812 L 12.386719 26.9375 L 12.464844 27.042969 C 14.027344 29.316406 15.5 30.726562 15.949219 31.128906 C 16.382812 30.726562 17.804688 29.316406 19.417969 27.074219 L 19.480469 26.984375 Z M 24.125 19.753906 "/>
<path style=" stroke:none;fill-rule:nonzero;fill:rgb(0%,0%,0%);fill-opacity:1;" d="M 7.277344 15.316406 C 7.152344 15.148438 6.628906 14.320312 6.628906 12.9375 L 6.628906 12.816406 C 6.257812 11.828125 6.070312 10.785156 6.070312 9.730469 C 6.070312 7.167969 7.183594 4.851562 8.980469 3.160156 C 12.933594 -0.480469 19.054688 -0.480469 23.007812 3.160156 C 24.867188 4.851562 25.925781 7.234375 25.933594 9.730469 C 25.9375 10.660156 25.785156 11.582031 25.488281 12.464844 C 25.496094 14.160156 25 15.820312 24.0625 17.238281 C 24.003906 17.289062 23.945312 17.335938 23.875 17.375 L 23.859375 17.375 C 23.84375 17.390625 23.84375 17.390625 23.84375 17.421875 C 23.84375 17.421875 23.8125 17.527344 23.785156 17.621094 L 23.8125 17.605469 L 23.769531 17.667969 C 21.980469 20.058594 19.152344 21.460938 16.148438 21.441406 C 12.015625 21.457031 8.515625 18.878906 7.277344 15.316406 Z M 7.277344 15.316406 "/>
<path style=" stroke:none;fill-rule:nonzero;fill:rgb(0%,49.019608%,77.254902%);fill-opacity:1;" d="M 29.402344 18.066406 C 29.34375 18.082031 23.085938 20.75 15.902344 20.722656 C 9.585938 20.691406 2.414062 18.019531 2.355469 17.988281 L 0.851562 17.421875 L 1.394531 18.847656 C 1.394531 18.894531 1.394531 18.894531 4.785156 27.902344 L 5.03125 28.550781 L 5.699219 28.347656 C 8.996094 27.328125 12.429688 26.800781 15.886719 26.785156 C 20.269531 26.785156 24.09375 27.675781 25.671875 28.210938 L 26.339844 28.425781 L 26.601562 27.78125 C 26.710938 27.535156 28.925781 22.410156 30.394531 19 L 31.121094 17.328125 Z M 29.402344 18.066406 "/>
<path style=" stroke:none;fill-rule:nonzero;fill:rgb(100%,100%,100%);fill-opacity:1;" d="M 29.464844 18.925781 L 28.832031 19.15625 C 28.832031 19.15625 27.421875 19.675781 27.40625 19.675781 C 27.050781 19.78125 26.71875 19.953125 26.429688 20.183594 C 26.277344 20.320312 26.140625 20.472656 26.027344 20.644531 C 26.046875 20.605469 26.054688 20.5625 26.058594 20.519531 L 26.261719 20 L 25.71875 20.152344 L 24.433594 20.492188 C 24.308594 20.519531 23.425781 20.691406 23.164062 20.75 L 22.871094 20.796875 L 21.367188 21.058594 C 21.289062 21.058594 20.71875 21.167969 20.40625 21.457031 C 20.347656 21.53125 20.289062 21.609375 20.238281 21.6875 L 20.332031 21.179688 L 19.941406 21.226562 L 18.734375 21.335938 L 18.6875 21.640625 C 18.65625 21.601562 18.621094 21.566406 18.582031 21.535156 C 18.347656 21.367188 17.960938 21.367188 17.851562 21.382812 L 16.070312 21.425781 L 14.632812 21.410156 C 14.328125 21.421875 14.035156 21.53125 13.796875 21.71875 C 13.75 21.765625 13.71875 21.824219 13.671875 21.871094 L 13.671875 21.597656 L 13.65625 21.351562 C 13.65625 21.351562 12.203125 21.210938 12.15625 21.210938 L 10.390625 20.996094 L 10.46875 21.382812 L 10.484375 21.488281 C 10.078125 21.027344 9.460938 20.875 9.429688 20.859375 C 9.414062 20.859375 7.617188 20.460938 7.617188 20.460938 L 7.742188 20.921875 L 7.820312 21.257812 C 7.773438 21.167969 7.722656 21.082031 7.664062 20.996094 C 7.414062 20.648438 7.0625 20.386719 6.65625 20.246094 C 6.210938 20.089844 5.3125 19.875 5.28125 19.875 L 4.769531 19.753906 C 4.304688 19.554688 3.265625 19.230469 2.925781 19.109375 L 2.355469 18.925781 L 2.570312 19.492188 L 5.542969 27.445312 C 5.542969 27.445312 6.71875 27.121094 6.78125 27.105469 C 6.78125 27.105469 8.003906 26.8125 8.097656 26.800781 C 8.144531 26.785156 9.382812 26.570312 9.382812 26.570312 L 9.382812 26.554688 C 9.722656 26.507812 10.40625 26.398438 10.46875 26.398438 C 10.527344 26.382812 11.117188 26.292969 11.457031 26.261719 L 12.695312 26.140625 C 12.820312 26.125 13.222656 26.09375 13.441406 25.910156 C 13.515625 25.859375 13.582031 25.789062 13.625 25.710938 L 13.640625 26.046875 L 15.113281 26 C 15.175781 25.984375 15.5625 25.953125 15.808594 25.710938 C 15.84375 25.675781 15.875 25.640625 15.902344 25.601562 L 15.886719 25.984375 C 15.886719 25.984375 17.015625 26.015625 17.078125 26.015625 L 18.410156 26.046875 L 19.371094 26.125 L 20.59375 26.261719 C 20.894531 26.285156 21.191406 26.226562 21.460938 26.09375 C 21.492188 26.0625 21.523438 26.046875 21.554688 26.015625 L 21.460938 26.371094 L 22.699219 26.585938 L 22.699219 26.570312 C 22.746094 26.585938 23.613281 26.738281 23.8125 26.769531 L 23.9375 26.8125 C 23.96875 26.8125 24.589844 26.96875 25.054688 26.90625 C 25.625 26.84375 26.214844 26.382812 26.476562 25.785156 L 27.714844 22.976562 C 27.730469 22.914062 29.464844 18.925781 29.464844 18.925781 Z M 29.464844 18.925781 "/>
<path style=" stroke:none;fill-rule:nonzero;fill:rgb(0%,0%,0%);fill-opacity:1;" d="M 18.457031 25.769531 L 19.230469 25.832031 L 19.972656 21.519531 L 18.984375 21.609375 Z M 18.457031 25.769531 "/>
<path style=" stroke:none;fill-rule:nonzero;fill:rgb(0%,0%,0%);fill-opacity:1;" d="M 21.675781 21.839844 L 21.304688 23.375 L 22.265625 23.359375 L 22.917969 21.105469 L 21.414062 21.351562 C 21.414062 21.351562 20.871094 21.441406 20.625 21.6875 C 20.285156 22.027344 20.207031 22.640625 20.207031 22.640625 L 19.601562 25.863281 L 20.5625 25.96875 C 20.808594 25.992188 21.050781 25.949219 21.273438 25.847656 C 21.507812 25.738281 21.644531 25.480469 21.722656 25.25 C 21.800781 25.019531 22.035156 24.097656 22.035156 24.097656 L 21.152344 24.097656 L 20.949219 25.019531 C 20.921875 25.144531 20.871094 25.265625 20.792969 25.371094 C 20.695312 25.484375 20.542969 25.542969 20.390625 25.523438 L 21.027344 22.65625 C 21.082031 22.445312 21.167969 22.246094 21.273438 22.054688 C 21.363281 21.921875 21.515625 21.839844 21.675781 21.839844 Z M 21.675781 21.839844 "/>
<path style=" stroke:none;fill-rule:nonzero;fill:rgb(0%,0%,0%);fill-opacity:1;" d="M 23.351562 23.453125 L 24.171875 20.84375 L 23.320312 21.027344 L 21.832031 26.125 L 22.5 26.214844 L 23.195312 24.050781 L 23.394531 24.035156 C 23.394531 24.035156 23.535156 24.082031 23.535156 24.207031 C 23.53125 24.300781 23.507812 24.394531 23.472656 24.480469 L 22.886719 26.277344 L 23.660156 26.429688 L 24.308594 24.558594 C 24.363281 24.410156 24.390625 24.253906 24.386719 24.097656 C 24.371094 23.949219 24.320312 23.804688 24.230469 23.683594 C 24.230469 23.683594 24.386719 23.683594 24.605469 23.46875 C 24.820312 23.269531 24.820312 23.101562 24.867188 22.945312 C 24.929688 22.792969 25.796875 20.445312 25.796875 20.445312 L 24.664062 20.722656 L 24.015625 22.824219 C 23.984375 22.953125 23.933594 23.078125 23.859375 23.191406 C 23.753906 23.34375 23.675781 23.40625 23.613281 23.40625 C 23.527344 23.433594 23.4375 23.449219 23.351562 23.453125 Z M 23.351562 23.453125 "/>
<path style=" stroke:none;fill-rule:nonzero;fill:rgb(0%,0%,0%);fill-opacity:1;" d="M 27.234375 20.875 L 26.507812 22.808594 L 27.5 22.761719 L 28.925781 19.445312 L 27.5 19.953125 C 27.179688 20.054688 26.882812 20.210938 26.617188 20.414062 C 26.320312 20.710938 26.074219 21.054688 25.890625 21.425781 C 25.8125 21.609375 25.488281 22.332031 25.441406 22.5625 C 25.378906 22.792969 24.898438 24.066406 24.898438 24.066406 L 26.027344 24.066406 L 25.546875 25.339844 C 25.503906 25.53125 25.417969 25.707031 25.300781 25.863281 C 25.1875 26 25.027344 26.09375 24.851562 26.125 L 25.488281 24.496094 L 24.789062 24.496094 L 24.03125 26.523438 C 24.355469 26.609375 24.6875 26.644531 25.023438 26.628906 C 25.472656 26.585938 25.980469 26.230469 26.214844 25.679688 C 26.460938 25.140625 27.265625 23.285156 27.265625 23.285156 L 25.921875 23.359375 L 26.339844 22.179688 C 26.339844 22.179688 26.617188 21.488281 26.816406 21.257812 C 26.933594 21.105469 27.074219 20.976562 27.234375 20.875 Z M 27.234375 20.875 "/>
<path style=" stroke:none;fill-rule:nonzero;fill:rgb(0%,0%,0%);fill-opacity:1;" d="M 2.832031 19.386719 L 5.730469 27.089844 L 6.582031 26.84375 L 4.429688 20.613281 C 4.429688 20.613281 4.753906 20.644531 5.03125 21.136719 C 5.238281 21.503906 5.402344 21.894531 5.511719 22.300781 C 5.589844 22.609375 6.953125 26.769531 6.953125 26.769531 L 7.820312 26.570312 L 6.164062 21.089844 C 6.164062 21.089844 6.363281 21.089844 6.582031 21.457031 C 6.707031 21.671875 6.8125 21.898438 6.890625 22.132812 L 8.160156 26.507812 L 8.996094 26.339844 L 7.929688 22.285156 C 7.929688 22.285156 7.679688 21.566406 7.417969 21.195312 C 7.210938 20.886719 6.90625 20.652344 6.550781 20.535156 C 6.132812 20.398438 5.203125 20.152344 5.203125 20.152344 L 5.34375 20.566406 C 5.164062 20.375 4.960938 20.210938 4.738281 20.078125 C 4.503906 19.9375 2.832031 19.386719 2.832031 19.386719 Z M 2.832031 19.386719 "/>
<path style=" stroke:none;fill-rule:nonzero;fill:rgb(0%,0%,0%);fill-opacity:1;" d="M 9.617188 23.605469 L 9.152344 21.609375 C 9.308594 21.652344 9.457031 21.722656 9.585938 21.824219 C 9.753906 21.980469 9.800781 22.410156 9.800781 22.410156 L 10.035156 23.605469 Z M 10.574219 26.0625 L 11.304688 25.96875 L 10.683594 22.761719 C 10.683594 22.761719 10.542969 22.054688 10.359375 21.765625 C 10.035156 21.289062 9.351562 21.105469 9.351562 21.105469 L 8.019531 20.84375 L 9.398438 26.246094 L 10.21875 26.125 L 9.707031 24.097656 L 10.1875 24.097656 Z M 10.574219 26.0625 "/>
<path style=" stroke:none;fill-rule:nonzero;fill:rgb(0%,0%,0%);fill-opacity:1;" d="M 10.761719 21.335938 L 11.691406 25.941406 L 12.664062 25.832031 C 12.664062 25.832031 13.128906 25.816406 13.253906 25.710938 C 13.410156 25.585938 13.507812 25.402344 13.515625 25.203125 L 13.410156 21.609375 L 12.449219 21.519531 L 12.789062 24.910156 C 12.789062 24.910156 12.820312 25.21875 12.664062 25.371094 C 12.597656 25.453125 12.492188 25.492188 12.386719 25.480469 L 11.890625 21.457031 Z M 10.761719 21.335938 "/>
<path style=" stroke:none;fill-rule:nonzero;fill:rgb(0%,0%,0%);fill-opacity:1;" d="M 13.921875 25.738281 L 15.082031 25.695312 C 15.273438 25.675781 15.457031 25.601562 15.609375 25.480469 C 15.730469 25.335938 15.8125 25.160156 15.839844 24.972656 L 15.855469 24.328125 L 15.066406 24.328125 L 15.082031 24.972656 C 15.089844 25.082031 15.058594 25.191406 14.988281 25.28125 C 14.910156 25.355469 14.648438 25.355469 14.648438 25.355469 L 14.648438 24.050781 L 15.855469 24.050781 L 15.886719 23.667969 L 14.632812 23.667969 L 14.632812 22.53125 C 14.625 22.441406 14.65625 22.351562 14.726562 22.285156 C 14.832031 22.21875 14.957031 22.191406 15.082031 22.210938 L 15.082031 23.375 L 15.917969 23.375 L 16.027344 21.703125 L 14.632812 21.671875 C 14.40625 21.683594 14.191406 21.765625 14.011719 21.902344 C 13.71875 22.164062 13.765625 22.761719 13.765625 22.761719 Z M 13.921875 25.738281 "/>
<path style=" stroke:none;fill-rule:nonzero;fill:rgb(0%,0%,0%);fill-opacity:1;" d="M 17.621094 22.316406 L 17.558594 23.332031 C 17.558594 23.402344 17.535156 23.46875 17.496094 23.53125 C 17.464844 23.570312 17.421875 23.605469 17.371094 23.621094 L 17.09375 23.605469 L 17.171875 22.117188 L 17.371094 22.101562 C 17.433594 22.101562 17.492188 22.117188 17.542969 22.148438 C 17.621094 22.179688 17.621094 22.316406 17.621094 22.316406 Z M 18.394531 21.824219 C 18.238281 21.671875 17.867188 21.6875 17.867188 21.6875 L 16.351562 21.734375 L 16.195312 25.695312 L 16.953125 25.710938 L 17.046875 24.082031 C 17.046875 24.082031 17.296875 24.003906 17.417969 24.175781 C 17.464844 24.242188 17.488281 24.324219 17.480469 24.40625 L 17.386719 25.710938 L 18.132812 25.753906 L 18.269531 24.433594 C 18.296875 24.300781 18.285156 24.164062 18.238281 24.035156 C 18.191406 23.941406 18.109375 23.871094 18.007812 23.835938 C 18.007812 23.835938 18.117188 23.835938 18.269531 23.667969 C 18.375 23.542969 18.4375 23.386719 18.441406 23.222656 L 18.535156 22.300781 C 18.519531 22.300781 18.566406 21.996094 18.394531 21.824219 Z M 18.394531 21.824219 "/>
<path style=" stroke:none;fill-rule:nonzero;fill:rgb(0%,0%,0%);fill-opacity:1;" d="M 17.746094 27.488281 L 18.6875 27.257812 L 17.730469 27.167969 C 17.683594 27.167969 16.785156 27.089844 16.335938 27.089844 C 16.273438 26.90625 15.886719 25.753906 15.886719 25.753906 L 15.730469 26.199219 C 15.714844 26.230469 15.515625 26.785156 15.40625 27.089844 C 14.878906 27.089844 14.183594 27.152344 14.167969 27.152344 L 13.144531 27.257812 L 14.136719 27.472656 C 14.445312 27.535156 15.066406 27.75 15.113281 28.011719 C 15.035156 28.320312 14.832031 28.855469 14.832031 28.855469 L 14.632812 29.347656 C 14.632812 29.347656 15.714844 28.59375 15.871094 28.503906 C 16.027344 28.59375 17.078125 29.332031 17.078125 29.332031 C 17.078125 29.332031 16.644531 28.089844 16.613281 27.980469 C 16.722656 27.828125 17.265625 27.597656 17.746094 27.488281 Z M 17.746094 27.488281 "/>
<path style=" stroke:none;fill-rule:nonzero;fill:rgb(100%,100%,100%);fill-opacity:1;" d="M 16.351562 27.964844 C 16.429688 27.703125 16.878906 27.503906 17.234375 27.382812 C 16.878906 27.351562 16.429688 27.320312 16.195312 27.320312 L 16.148438 27.320312 C 16.148438 27.320312 15.964844 26.8125 15.871094 26.554688 C 15.792969 26.785156 15.667969 27.121094 15.625 27.273438 L 15.609375 27.335938 L 15.546875 27.335938 C 15.296875 27.335938 14.941406 27.351562 14.679688 27.367188 C 14.988281 27.503906 15.359375 27.703125 15.40625 27.996094 L 15.40625 28.042969 C 15.359375 28.210938 15.265625 28.503906 15.191406 28.703125 C 15.4375 28.519531 15.886719 28.210938 15.886719 28.210938 C 15.886719 28.210938 16.367188 28.535156 16.613281 28.703125 C 16.503906 28.441406 16.351562 28.011719 16.351562 28.011719 Z M 16.351562 27.964844 "/>
<path style=" stroke:none;fill-rule:nonzero;fill:rgb(100%,100%,100%);fill-opacity:1;" d="M 6.582031 9.746094 C 6.582031 4.894531 10.808594 0.953125 15.996094 0.953125 C 21.183594 0.953125 25.410156 4.894531 25.410156 9.746094 C 25.410156 14.582031 21.199219 18.527344 15.996094 18.527344 C 10.808594 18.527344 6.582031 14.582031 6.582031 9.746094 Z M 6.582031 9.746094 "/>
<path style=" stroke:none;fill-rule:nonzero;fill:rgb(0%,0%,0%);fill-opacity:1;" d="M 10.3125 4.527344 L 10.699219 4.207031 C 10.960938 4.007812 11.039062 3.730469 10.902344 3.5625 C 10.714844 3.332031 10.421875 3.40625 10.109375 3.636719 L 9.800781 3.898438 Z M 10.28125 3.835938 L 10.296875 3.820312 C 10.421875 3.730469 10.511719 3.714844 10.589844 3.804688 C 10.652344 3.882812 10.605469 3.992188 10.5 4.066406 L 10.484375 4.097656 Z M 10.28125 3.835938 "/>
<path style=" stroke:none;fill-rule:nonzero;fill:rgb(0%,0%,0%);fill-opacity:1;" d="M 12.648438 2.945312 L 12.929688 2.824219 L 13.007812 2.902344 L 13.410156 2.730469 L 12.726562 2.148438 L 12.308594 2.300781 L 12.261719 3.191406 L 12.664062 3.039062 Z M 12.636719 2.730469 L 12.621094 2.488281 L 12.621094 2.472656 C 12.640625 2.503906 12.667969 2.535156 12.695312 2.5625 L 12.789062 2.671875 Z M 12.636719 2.730469 "/>
<path style=" stroke:none;fill-rule:nonzero;fill:rgb(0%,0%,0%);fill-opacity:1;" d="M 14.617188 1.65625 L 15.019531 1.613281 L 15.082031 2.148438 L 15.421875 2.117188 L 15.453125 2.378906 L 14.710938 2.457031 Z M 14.617188 1.65625 "/>
<path style=" stroke:none;fill-rule:nonzero;fill:rgb(0%,0%,0%);fill-opacity:1;" d="M 16.925781 1.613281 L 17.34375 1.671875 L 17.25 2.210938 L 17.589844 2.257812 L 17.542969 2.515625 L 16.816406 2.410156 Z M 16.925781 1.613281 "/>
<path style=" stroke:none;fill-rule:nonzero;fill:rgb(0%,0%,0%);fill-opacity:1;" d="M 19.246094 2.917969 L 19.523438 3.039062 L 19.507812 3.148438 L 19.914062 3.332031 L 19.867188 2.425781 L 19.449219 2.257812 L 18.765625 2.839844 L 19.167969 3.023438 Z M 19.386719 2.777344 L 19.554688 2.578125 L 19.554688 2.59375 C 19.554688 2.640625 19.539062 2.65625 19.539062 2.703125 L 19.523438 2.839844 Z M 19.386719 2.777344 "/>
<path style=" stroke:none;fill-rule:nonzero;fill:rgb(0%,0%,0%);fill-opacity:1;" d="M 21.257812 3.835938 L 21.273438 3.867188 C 21.304688 3.949219 21.355469 4.019531 21.414062 4.082031 C 21.445312 4.113281 21.507812 4.144531 21.523438 4.113281 C 21.539062 4.082031 21.507812 4.035156 21.492188 4.019531 L 21.429688 3.960938 C 21.320312 3.835938 21.257812 3.714844 21.335938 3.605469 C 21.460938 3.46875 21.722656 3.53125 21.910156 3.683594 C 22 3.765625 22.078125 3.859375 22.140625 3.960938 L 21.925781 4.050781 C 21.890625 3.976562 21.839844 3.914062 21.769531 3.867188 C 21.753906 3.835938 21.691406 3.804688 21.675781 3.835938 C 21.660156 3.867188 21.691406 3.898438 21.722656 3.929688 L 21.769531 3.992188 C 21.894531 4.113281 21.941406 4.25 21.847656 4.359375 C 21.722656 4.496094 21.476562 4.421875 21.289062 4.265625 C 21.171875 4.183594 21.078125 4.070312 21.011719 3.945312 Z M 21.257812 3.835938 "/>
<path style=" stroke:none;fill-rule:nonzero;fill:rgb(0%,0%,0%);fill-opacity:1;" d="M 23.890625 7.488281 C 23.828125 7.445312 23.707031 7.367188 23.707031 7.367188 C 23.679688 7.351562 23.660156 7.332031 23.644531 7.304688 C 23.632812 7.230469 23.609375 7.160156 23.582031 7.089844 C 22.765625 6.050781 21.730469 5.195312 20.546875 4.589844 C 20.417969 4.535156 20.285156 4.5 20.144531 4.480469 C 20.117188 4.480469 20.089844 4.46875 20.066406 4.449219 C 19.964844 4.351562 19.84375 4.273438 19.710938 4.222656 C 18.574219 3.761719 17.359375 3.527344 16.132812 3.53125 C 15.757812 3.53125 15.378906 3.558594 15.003906 3.605469 L 15.5 2.945312 C 13.546875 2.886719 12.140625 4.40625 12.140625 4.40625 C 11.671875 4.617188 11.222656 4.863281 10.792969 5.140625 C 10.207031 5.335938 9.726562 5.765625 9.476562 6.324219 C 9.214844 6.523438 8.703125 7.199219 8.703125 7.199219 C 8.582031 7.277344 8.46875 7.363281 8.359375 7.460938 C 7.910156 7.941406 7.601562 8.535156 7.464844 9.179688 C 7.453125 9.191406 7.445312 9.207031 7.449219 9.226562 C 7.433594 9.269531 7.433594 9.332031 7.417969 9.394531 C 7.402344 9.515625 7.371094 9.625 7.355469 9.746094 L 7.371094 9.730469 C 7.371094 9.746094 7.367188 9.765625 7.355469 9.777344 C 7.285156 9.96875 7.230469 10.164062 7.183594 10.359375 C 7.167969 10.4375 6.890625 11.234375 6.890625 11.234375 C 6.195312 13.660156 7.121094 15.117188 7.277344 15.347656 C 8.515625 18.910156 12.015625 21.457031 16.117188 21.457031 C 19.121094 21.476562 21.953125 20.074219 23.738281 17.683594 C 23.769531 17.609375 23.792969 17.53125 23.796875 17.453125 C 23.800781 17.421875 23.820312 17.390625 23.84375 17.375 C 23.96875 17.3125 24.015625 17.265625 24.015625 17.253906 C 24.953125 15.835938 25.449219 14.175781 25.441406 12.480469 C 25.460938 10.695312 24.921875 8.953125 23.890625 7.488281 Z M 23.890625 7.488281 "/>
<path style=" stroke:none;fill-rule:nonzero;fill:rgb(100%,100%,100%);fill-opacity:1;" d="M 12.230469 5.742188 C 12.246094 5.710938 12.277344 5.695312 12.292969 5.679688 L 12.339844 5.632812 L 12.355469 5.632812 C 12.355469 5.351562 12.394531 5.074219 12.464844 4.804688 C 13.316406 3.636719 14.710938 3.332031 14.710938 3.332031 C 14.878906 3.269531 14.773438 3.347656 14.773438 3.347656 C 13.890625 4.328125 13.980469 5.125 13.980469 5.125 L 14.832031 8.148438 C 14.832031 8.148438 14.152344 7.90625 13.625 6.859375 C 13.378906 8.980469 15.40625 10.699219 15.40625 10.699219 C 15.484375 10.773438 15.34375 10.683594 15.34375 10.683594 C 14.847656 10.4375 14.261719 9.898438 14.105469 9.761719 C 14.136719 9.929688 15.128906 14.8125 15.144531 14.84375 C 15.148438 14.875 15.160156 14.90625 15.175781 14.933594 L 15.5 14.105469 L 15.792969 16.578125 C 14.492188 17.757812 13.128906 17.296875 13.054688 17.265625 C 13.070312 17.292969 13.085938 17.316406 13.097656 17.34375 C 13.097656 17.34375 14.214844 19.492188 18.75 19.277344 C 18.75 19.277344 18.859375 19.277344 18.84375 19.292969 C 18.832031 19.292969 18.820312 19.300781 18.8125 19.308594 C 18.742188 19.332031 18.667969 19.347656 18.597656 19.355469 C 13.128906 20.796875 10.296875 16.191406 10.171875 15.992188 C 10 15.746094 9.847656 15.484375 9.722656 15.210938 C 9.722656 15.195312 9.722656 15.164062 9.738281 15.195312 C 9.738281 15.195312 10.3125 15.777344 11.96875 15.933594 L 11.984375 15.933594 C 10.714844 14.550781 10.171875 13.539062 10.09375 13.382812 C 10.09375 13.382812 9.941406 13.152344 9.753906 12.507812 C 9.753906 12.507812 9.769531 12.480469 9.769531 12.507812 C 9.832031 12.632812 10.265625 13.246094 10.777344 13.382812 C 10.34375 12.695312 10.066406 11.605469 10.035156 11.449219 C 10.621094 12.265625 11.675781 12.324219 11.675781 12.324219 C 11.675781 12.320312 11.671875 12.316406 11.671875 12.3125 C 11.667969 12.3125 11.664062 12.308594 11.660156 12.308594 L 11.660156 12.324219 C 9.941406 10.621094 10.3125 8.78125 11.007812 7.445312 C 11.332031 6.820312 11.746094 6.246094 12.230469 5.742188 Z M 12.230469 5.742188 "/>
<path style=" stroke:none;fill-rule:nonzero;fill:rgb(76.862745%,80.784314%,83.137255%);fill-opacity:1;" d="M 17.371094 16.960938 L 16.242188 18.128906 L 17.636719 17.066406 L 16.910156 14.613281 L 17.234375 11.664062 L 16.675781 14.472656 Z M 17.371094 16.960938 "/>
<path style=" stroke:none;fill-rule:nonzero;fill:rgb(76.862745%,80.784314%,83.137255%);fill-opacity:1;" d="M 17.09375 10.972656 C 17.117188 10.96875 17.140625 10.960938 17.15625 10.945312 C 17.273438 10.882812 17.378906 10.800781 17.464844 10.699219 C 17.773438 10.382812 17.933594 9.953125 17.914062 9.515625 C 17.910156 9.203125 17.859375 8.894531 17.761719 8.59375 C 17.746094 9.011719 17.621094 10.53125 17.09375 10.972656 Z M 17.09375 10.972656 "/>
<path style=" stroke:none;fill-rule:nonzero;fill:rgb(76.862745%,80.784314%,83.137255%);fill-opacity:1;" d="M 17.621094 5.957031 C 18.007812 5.371094 18.65625 5.324219 18.9375 5.324219 C 18.726562 5.257812 18.507812 5.21875 18.285156 5.21875 C 18.058594 5.214844 17.835938 5.25 17.621094 5.324219 C 17.496094 5.371094 17.417969 5.402344 17.386719 5.417969 C 17.476562 5.59375 17.554688 5.773438 17.621094 5.957031 Z M 17.621094 5.957031 "/>
<path style=" stroke:none;fill-rule:nonzero;fill:rgb(76.862745%,80.784314%,83.137255%);fill-opacity:1;" d="M 16.628906 7.519531 L 16.644531 7.503906 Z M 17.109375 7.199219 C 17.113281 7.199219 17.117188 7.199219 17.121094 7.203125 C 17.125 7.207031 17.125 7.210938 17.125 7.214844 L 17.125 7.382812 C 17.125 8.640625 16.800781 10.023438 16.660156 10.515625 C 17.074219 9.585938 17.285156 8.582031 17.28125 7.566406 C 17.28125 7.195312 17.25 6.828125 17.1875 6.460938 C 17.171875 6.351562 17.152344 6.246094 17.125 6.140625 C 17 7.089844 16.628906 7.519531 16.628906 7.519531 L 16.613281 7.535156 C 16.597656 7.535156 16.597656 7.535156 16.582031 7.519531 C 16.234375 6.902344 15.777344 6.351562 15.234375 5.894531 C 15.019531 5.703125 14.78125 5.539062 14.523438 5.402344 C 15.667969 7.859375 16.011719 9.746094 16.101562 10.375 L 16.101562 10.160156 C 16.082031 9.398438 15.992188 8.636719 15.839844 7.890625 C 15.714844 7.230469 15.578125 6.753906 15.578125 6.753906 L 15.578125 6.722656 L 15.609375 6.722656 C 16.117188 7.121094 16.492188 8.242188 16.535156 8.457031 C 16.679688 8.246094 16.792969 8.019531 16.878906 7.78125 C 16.96875 7.492188 17.0625 7.214844 17.0625 7.214844 Z M 17.109375 7.199219 "/>
<path style=" stroke:none;fill-rule:nonzero;fill:rgb(76.862745%,80.784314%,83.137255%);fill-opacity:1;" d="M 7.464844 12.308594 C 7.464844 13.476562 7.664062 14.6875 8.6875 16.253906 C 9.660156 18.265625 11.425781 19.339844 12.261719 19.753906 C 12.542969 19.875 12.710938 19.953125 12.710938 19.953125 C 13.851562 20.496094 15.101562 20.777344 16.367188 20.78125 C 18.082031 20.769531 19.757812 20.253906 21.183594 19.308594 C 21.429688 19.140625 21.570312 19.03125 21.570312 19.03125 L 21.675781 18.925781 C 21.675781 18.941406 21.644531 18.957031 21.632812 18.957031 L 21.539062 19.015625 C 19.726562 20.0625 18.070312 20.382812 16.707031 20.382812 C 14.570312 20.382812 13.207031 19.601562 13.207031 19.601562 C 8.6875 17.265625 8.625 13.214844 8.625 13.214844 C 8.625 13.210938 8.625 13.207031 8.628906 13.203125 C 8.632812 13.203125 8.636719 13.199219 8.640625 13.199219 L 8.671875 13.199219 C 9.242188 14.320312 9.957031 14.6875 10.265625 14.8125 C 10.300781 14.832031 10.335938 14.847656 10.375 14.859375 C 9.058594 13.230469 8.6875 11.847656 8.6875 10.820312 C 8.6875 9.441406 9.351562 8.671875 9.351562 8.671875 L 9.367188 8.65625 C 9.371094 8.65625 9.375 8.660156 9.378906 8.660156 C 9.382812 8.664062 9.382812 8.667969 9.382812 8.671875 C 9.300781 9.09375 9.261719 9.519531 9.257812 9.945312 C 9.253906 10.40625 9.316406 10.867188 9.445312 11.3125 C 9.484375 11.433594 9.53125 11.550781 9.585938 11.664062 C 9.542969 11.351562 9.519531 11.03125 9.523438 10.714844 C 9.519531 8.730469 10.3125 6.824219 11.722656 5.417969 C 11.425781 5.539062 11.085938 5.847656 10.808594 6.140625 C 10.5 6.445312 10.25 6.753906 10.25 6.753906 L 10.234375 6.753906 C 10.21875 6.753906 10.21875 6.753906 10.21875 6.738281 C 10.246094 6.492188 10.324219 6.257812 10.453125 6.046875 C 10.210938 6.289062 10.019531 6.570312 9.878906 6.875 C 9.785156 7.0625 9.707031 7.257812 9.644531 7.460938 L 9.644531 7.476562 C 9.25 7.929688 8.921875 8.433594 8.671875 8.980469 C 8.558594 9.210938 8.464844 9.453125 8.390625 9.699219 C 8.375 9.761719 8.359375 9.792969 8.359375 9.808594 C 8.359375 9.808594 8.359375 9.824219 8.332031 9.824219 C 8.300781 9.824219 8.316406 9.808594 8.316406 9.792969 L 8.316406 9.777344 C 8.316406 9.746094 8.320312 9.714844 8.332031 9.683594 C 8.332031 9.101562 8.578125 8.472656 8.671875 8.226562 C 7.988281 8.949219 7.820312 9.945312 7.820312 10.730469 C 7.816406 11.171875 7.871094 11.617188 7.972656 12.050781 C 7.992188 12.546875 8.050781 13.046875 8.144531 13.539062 C 8.253906 14 8.332031 14.335938 8.332031 14.335938 C 8.351562 14.386719 8.367188 14.4375 8.375 14.488281 L 8.375 14.503906 L 8.359375 14.503906 C 8.332031 14.503906 8.332031 14.488281 8.316406 14.472656 C 8.300781 14.472656 8.300781 14.457031 8.285156 14.429688 L 8.253906 14.367188 C 7.757812 13.628906 7.523438 12.433594 7.480469 12.140625 C 7.464844 12.195312 7.460938 12.253906 7.464844 12.308594 Z M 7.464844 12.308594 "/>
<path style=" stroke:none;fill-rule:nonzero;fill:rgb(0%,49.019608%,77.254902%);fill-opacity:1;" d="M 22.683594 7.152344 C 22.683594 7.152344 20.484375 4.234375 16.351562 4.234375 L 16.257812 4.234375 C 16.234375 4.238281 16.210938 4.246094 16.195312 4.265625 C 16.195312 4.296875 16.226562 4.3125 16.257812 4.328125 C 16.589844 4.589844 16.902344 4.875 17.1875 5.1875 L 17.1875 5.203125 L 17.203125 5.1875 C 17.289062 5.148438 17.375 5.117188 17.464844 5.097656 C 17.699219 5.035156 17.9375 5.003906 18.179688 5.003906 C 18.644531 5.003906 19.101562 5.121094 19.507812 5.339844 C 19.292969 5.449219 18.269531 5.957031 18.039062 6.554688 L 18.054688 6.570312 C 18.054688 6.570312 19.089844 7.488281 21.226562 7.488281 C 21.601562 7.492188 21.972656 7.46875 22.34375 7.414062 C 22.40625 7.410156 22.46875 7.402344 22.527344 7.382812 C 22.621094 7.351562 22.730469 7.320312 22.730469 7.214844 C 22.710938 7.195312 22.695312 7.175781 22.683594 7.152344 Z M 22.683594 7.152344 "/>
<path style=" stroke:none;fill-rule:nonzero;fill:rgb(0%,49.019608%,77.254902%);fill-opacity:1;" d="M 18.238281 11.234375 C 18.222656 11.21875 18.210938 11.21875 18.210938 11.234375 C 18.195312 11.234375 18.195312 11.25 18.210938 11.25 C 18.230469 11.273438 18.253906 11.300781 18.269531 11.328125 C 18.394531 11.496094 18.628906 11.894531 18.628906 12.601562 C 18.613281 13.261719 18.449219 13.914062 18.148438 14.503906 C 18.144531 14.277344 18.117188 14.050781 18.070312 13.828125 C 17.992188 13.429688 17.851562 13.015625 17.527344 12.921875 L 17.496094 12.921875 L 17.3125 14.65625 L 18.007812 17.238281 L 16.628906 18.34375 C 16.613281 18.34375 16.613281 18.34375 16.613281 18.355469 C 16.613281 18.359375 16.617188 18.367188 16.617188 18.367188 C 16.621094 18.371094 16.625 18.371094 16.628906 18.371094 C 17.105469 18.496094 17.59375 18.550781 18.085938 18.542969 C 18.671875 18.539062 19.257812 18.476562 19.835938 18.355469 C 19.933594 18.328125 20.015625 18.253906 20.050781 18.15625 C 20.160156 17.597656 20.210938 17.027344 20.207031 16.453125 C 20.222656 14.933594 19.898438 12.769531 18.238281 11.234375 Z M 18.238281 11.234375 "/>
<path style=" stroke:none;fill-rule:nonzero;fill:rgb(0%,49.019608%,77.254902%);fill-opacity:1;" d="M 20.515625 18.15625 C 20.484375 18.140625 20.484375 18.113281 20.484375 18.066406 L 20.484375 17.988281 C 20.535156 17.800781 20.570312 17.613281 20.59375 17.421875 C 20.667969 16.949219 20.707031 16.472656 20.703125 15.992188 C 20.703125 14.441406 20.332031 12.277344 18.582031 10.605469 C 18.574219 10.597656 18.5625 10.59375 18.550781 10.589844 L 18.503906 10.542969 C 18.503906 10.53125 18.511719 10.523438 18.519531 10.515625 L 18.550781 10.515625 C 18.578125 10.515625 18.601562 10.519531 18.628906 10.53125 C 18.925781 10.628906 19.195312 10.796875 19.417969 11.019531 C 19.402344 10.945312 19.371094 10.773438 19.324219 10.558594 C 19.210938 10.191406 19.027344 9.847656 18.78125 9.546875 L 18.734375 9.5 C 18.71875 9.46875 18.703125 9.46875 18.703125 9.441406 L 18.703125 9.410156 L 18.734375 9.410156 C 18.75 9.410156 18.765625 9.425781 18.8125 9.453125 C 18.921875 9.5 23.320312 11.605469 23.472656 15.839844 L 23.472656 15.917969 C 23.480469 16.074219 23.425781 16.230469 23.320312 16.347656 C 23.273438 16.390625 22.234375 17.683594 20.6875 18.15625 C 20.660156 18.175781 20.625 18.1875 20.59375 18.1875 C 20.578125 18.1875 20.53125 18.1875 20.515625 18.15625 Z M 20.515625 18.15625 "/>
<path style=" stroke:none;fill-rule:nonzero;fill:rgb(0%,49.019608%,77.254902%);fill-opacity:1;" d="M 23.8125 15.058594 C 23.722656 11.558594 20.375 9.179688 18.703125 8.195312 C 18.40625 8.011719 18.097656 7.847656 17.777344 7.707031 L 17.699219 7.675781 L 17.804688 7.675781 C 18.210938 7.675781 18.59375 7.847656 18.859375 8.148438 C 18.855469 8 18.828125 7.847656 18.78125 7.707031 L 18.75 7.660156 L 18.796875 7.675781 C 19.277344 7.859375 19.882812 7.921875 20.484375 7.921875 C 21.015625 7.914062 21.542969 7.875 22.066406 7.796875 C 22.484375 7.75 22.761719 7.691406 22.761719 7.691406 L 22.824219 7.691406 C 23.070312 7.691406 23.148438 7.828125 23.148438 7.84375 C 23.722656 8.472656 24.417969 9.914062 24.542969 11.648438 C 24.558594 11.863281 24.558594 12.078125 24.558594 12.277344 C 24.558594 13.582031 24.277344 14.597656 24.078125 15.011719 C 24 15.164062 23.9375 15.242188 23.875 15.242188 C 23.828125 15.226562 23.8125 15.164062 23.8125 15.058594 Z M 23.8125 15.058594 "/>
<path style=" stroke:none;fill-rule:nonzero;fill:rgb(0%,0%,0%);fill-opacity:1;" d="M 14.167969 3.746094 L 14.183594 3.730469 C 14.136719 3.746094 13.222656 4.019531 12.960938 5.371094 C 12.960938 5.371094 12.960938 5.402344 12.976562 5.371094 C 13.054688 5.25 13.332031 4.820312 13.59375 4.941406 L 13.59375 4.910156 C 13.609375 4.804688 13.703125 4.328125 14.167969 3.746094 Z M 14.167969 3.746094 "/>
<path style=" stroke:none;fill-rule:nonzero;fill:rgb(0%,0%,0%);fill-opacity:1;" d="M 13.488281 16.039062 C 13.285156 15.65625 12.03125 12.9375 12.03125 12.9375 C 11.644531 13.078125 11.164062 12.753906 11.164062 12.753906 C 11.785156 14.367188 13.238281 15.777344 13.472656 16.039062 C 13.5 16.085938 13.5 16.070312 13.5 16.070312 C 13.488281 16.070312 13.488281 16.039062 13.488281 16.039062 Z M 13.488281 16.039062 "/>
<path style=" stroke:none;fill-rule:nonzero;fill:rgb(0%,0%,0%);fill-opacity:1;" d="M 12.230469 7.230469 C 11.101562 9.777344 13.640625 10.835938 13.6875 10.851562 L 13.546875 10.253906 L 13.472656 9.929688 C 13.410156 9.898438 13.351562 9.871094 13.285156 9.855469 C 13.269531 9.855469 13.253906 9.839844 13.238281 9.824219 C 13.210938 9.824219 13.183594 9.8125 13.160156 9.792969 C 12.046875 9.210938 12.15625 7.8125 12.230469 7.351562 L 12.230469 7.304688 C 12.242188 7.277344 12.246094 7.246094 12.246094 7.214844 C 12.246094 7.183594 12.246094 7.214844 12.230469 7.230469 Z M 12.230469 7.230469 "/>
<path style=" stroke:none;fill-rule:nonzero;fill:rgb(76.862745%,80.784314%,83.137255%);fill-opacity:1;" d="M 13.90625 14.414062 L 13.71875 11.203125 L 14.816406 14.78125 C 14.816406 14.78125 14.460938 13.9375 13.90625 14.414062 Z M 13.90625 14.414062 "/>
<path style=" stroke:none;fill-rule:nonzero;fill:rgb(76.862745%,80.784314%,83.137255%);fill-opacity:1;" d="M 14.816406 8.148438 L 13.980469 5.125 L 13.980469 5.1875 L 14.214844 7.105469 C 14.226562 7.128906 14.230469 7.15625 14.230469 7.183594 C 14.230469 7.289062 14.167969 7.429688 13.640625 6.890625 C 13.625 6.859375 13.609375 6.859375 13.609375 6.859375 C 14.136719 7.921875 14.816406 8.148438 14.816406 8.148438 Z M 14.816406 8.148438 "/>
<path style=" stroke:none;fill-rule:nonzero;fill:rgb(76.862745%,80.784314%,83.137255%);fill-opacity:1;" d="M 12.820312 8.703125 C 12.75 8.566406 12.714844 8.414062 12.710938 8.257812 C 12.71875 7.976562 12.847656 7.714844 13.070312 7.535156 L 13.082031 7.519531 C 13.0625 7.265625 13.0625 7.007812 13.082031 6.753906 C 12.804688 7.152344 12.214844 8.121094 12.929688 8.871094 C 12.914062 8.855469 12.898438 8.839844 12.898438 8.824219 C 12.871094 8.785156 12.84375 8.746094 12.820312 8.703125 Z M 12.820312 8.703125 "/>
<path style=" stroke:none;fill-rule:nonzero;fill:rgb(0%,0%,0%);fill-opacity:1;" d="M 13.5625 9.085938 C 13.300781 8.605469 13.136719 8.078125 13.082031 7.535156 L 13.082031 7.519531 C 12.859375 7.703125 12.730469 7.972656 12.726562 8.257812 C 12.734375 8.40625 12.765625 8.550781 12.820312 8.6875 C 12.851562 8.730469 12.878906 8.777344 12.898438 8.824219 C 12.914062 8.824219 12.929688 8.855469 12.929688 8.871094 L 12.976562 8.917969 C 13.148438 9.089844 13.382812 9.1875 13.625 9.195312 C 13.597656 9.164062 13.578125 9.125 13.5625 9.085938 Z M 13.5625 9.085938 "/>
<path style=" stroke:none;fill-rule:nonzero;fill:rgb(76.862745%,80.784314%,83.137255%);fill-opacity:1;" d="M 14.570312 14.828125 C 14.570312 14.828125 14.027344 14.6875 14.074219 15.792969 C 14.078125 15.761719 14.089844 15.730469 14.105469 15.703125 C 14.261719 15.332031 14.414062 15.195312 14.554688 15.179688 C 14.664062 15.179688 14.757812 15.289062 14.816406 15.425781 C 14.886719 15.589844 14.941406 15.757812 14.988281 15.933594 C 15.03125 16.078125 15.0625 16.226562 15.082031 16.378906 C 15.09375 16.472656 15.101562 16.570312 15.097656 16.667969 L 15.097656 16.683594 C 15.113281 16.5625 15.34375 15.042969 14.570312 14.828125 Z M 14.570312 14.828125 "/>
<path style=" stroke:none;fill-rule:nonzero;fill:rgb(0%,0%,0%);fill-opacity:1;" d="M 15.097656 16.683594 C 15.082031 16.546875 15.082031 16.453125 15.066406 16.378906 C 15.050781 16.253906 15.019531 16.101562 14.988281 15.949219 C 14.945312 15.765625 14.882812 15.59375 14.800781 15.425781 C 14.742188 15.289062 14.648438 15.195312 14.539062 15.195312 C 14.398438 15.195312 14.261719 15.347656 14.089844 15.703125 C 14.085938 15.738281 14.078125 15.777344 14.058594 15.808594 L 14.339844 16.378906 C 14.339844 16.378906 14.492188 14.828125 15.097656 16.683594 Z M 15.097656 16.683594 "/>
</g>
</svg>
