<?xml version="1.0" encoding="UTF-8"?>
<svg xmlns="http://www.w3.org/2000/svg" xmlns:xlink="http://www.w3.org/1999/xlink" width="32px" height="32px" viewBox="0 0 32 32" version="1.1">
<g id="surface1">
<path style=" stroke:none;fill-rule:nonzero;fill:rgb(38.823529%,44.705882%,47.843137%);fill-opacity:1;" d="M 31.886719 0.0898438 C 31.835938 0.03125 31.757812 -0.00390625 31.679688 0 L 11.652344 0 C 9.261719 0 7.796875 1.027344 7.292969 3.019531 L 0.0117188 31.714844 C -0.0117188 31.796875 0.00390625 31.882812 0.0546875 31.949219 C 0.105469 32.015625 0.183594 32.054688 0.265625 32.054688 L 22.089844 32.054688 C 23.332031 32.054688 24.578125 31.058594 24.859375 29.855469 L 31.933594 0.324219 C 31.957031 0.242188 31.941406 0.15625 31.886719 0.0898438 Z M 31.886719 0.0898438 "/>
<path style=" stroke:none;fill-rule:nonzero;fill:rgb(0%,0%,0%);fill-opacity:1;" d="M 0.265625 31.789062 L 22.089844 31.789062 C 23.214844 31.789062 24.355469 30.882812 24.609375 29.796875 L 31.679688 0.25 L 11.652344 0.25 C 9.796875 0.265625 8.105469 0.863281 7.542969 3.09375 Z M 0.265625 31.789062 "/>
<path style=" stroke:none;fill-rule:nonzero;fill:rgb(38.823529%,44.705882%,47.843137%);fill-opacity:1;" d="M 4.757812 20.125 L 23.691406 20.125 C 24.636719 20.125 25.574219 19.375 25.792969 18.453125 L 29.769531 1.449219 L 12.421875 1.449219 C 10.300781 1.449219 9.351562 2.109375 8.921875 3.855469 Z M 23.691406 20.359375 L 4.460938 20.359375 L 8.683594 3.796875 C 9.234375 1.65625 10.566406 1.230469 12.421875 1.230469 L 30.066406 1.230469 L 26.015625 18.511719 C 25.78125 19.523438 24.742188 20.359375 23.691406 20.359375 Z M 23.691406 20.359375 "/>
<path style=" stroke:none;fill-rule:nonzero;fill:rgb(100%,100%,100%);fill-opacity:1;" d="M 7.601562 29.636719 L 8.136719 30.355469 L 12.125 30.355469 L 13.742188 24.023438 L 12.109375 24.023438 L 10.714844 29.460938 L 9.261719 29.460938 L 10.65625 24.023438 L 8.597656 24.023438 L 8.464844 24.125 L 8.878906 24.679688 Z M 7.601562 29.636719 "/>
<path style=" stroke:none;fill-rule:nonzero;fill:rgb(100%,100%,100%);fill-opacity:1;" d="M 7.738281 26.234375 L 8.121094 24.710938 L 7.589844 23.992188 L 4.328125 23.992188 L 3.4375 24.710938 L 2.886719 26.835938 L 5.644531 27.980469 L 5.273438 29.460938 L 3.835938 29.460938 L 4 28.769531 L 2.5625 28.109375 L 2.175781 29.636719 L 2.695312 30.355469 L 5.972656 30.355469 L 6.863281 29.636719 L 7.410156 27.496094 L 4.652344 26.351562 L 5.023438 24.886719 L 6.460938 24.886719 L 6.285156 25.589844 Z M 7.738281 26.234375 "/>
<path style=" stroke:none;fill-rule:nonzero;fill:rgb(100%,100%,100%);fill-opacity:1;" d="M 19.003906 24.710938 L 18.46875 23.992188 L 14.496094 23.992188 L 12.882812 30.324219 L 14.511719 30.324219 L 15.890625 24.886719 L 17.34375 24.886719 L 15.964844 30.324219 L 18.011719 30.324219 L 18.144531 30.207031 L 17.746094 29.664062 Z M 19.003906 24.710938 "/>
<path style=" stroke:none;fill-rule:nonzero;fill:rgb(100%,100%,100%);fill-opacity:1;" d="M 24.058594 26.234375 L 24.445312 24.710938 L 23.910156 23.992188 L 20.648438 23.992188 L 19.761719 24.710938 L 19.210938 26.835938 L 21.96875 27.980469 L 21.597656 29.460938 L 20.144531 29.460938 L 20.324219 28.769531 L 18.886719 28.109375 L 18.5 29.636719 L 19.019531 30.355469 L 22.296875 30.355469 L 23.183594 29.636719 L 23.734375 27.496094 L 20.976562 26.351562 L 21.347656 24.886719 L 22.785156 24.886719 L 22.605469 25.589844 Z M 24.058594 26.234375 "/>
<path style=" stroke:none;fill-rule:nonzero;fill:rgb(74.509804%,75.294118%,76.078431%);fill-opacity:1;" d="M 2.5625 28.109375 L 3.15625 28.992188 L 3.023438 29.503906 L 3.316406 29.898438 L 5.632812 29.898438 L 6.089844 29.546875 L 6.863281 29.636719 L 5.972656 30.355469 L 2.695312 30.355469 L 2.175781 29.636719 Z M 2.5625 28.109375 "/>
<path style=" stroke:none;fill-rule:nonzero;fill:rgb(74.509804%,75.294118%,76.078431%);fill-opacity:1;" d="M 5.273438 29.460938 L 6.089844 29.546875 L 6.550781 27.746094 L 3.761719 26.585938 L 4.222656 24.796875 L 3.4375 24.710938 L 2.886719 26.835938 L 5.644531 27.980469 Z M 5.273438 29.460938 "/>
<path style=" stroke:none;fill-rule:nonzero;fill:rgb(74.509804%,75.294118%,76.078431%);fill-opacity:1;" d="M 6.964844 24.433594 L 4.710938 24.433594 L 4.222656 24.796875 L 5.023438 24.886719 L 6.460938 24.886719 L 6.285156 25.589844 L 7.144531 25.328125 L 7.277344 24.84375 Z M 6.964844 24.433594 "/>
<path style=" stroke:none;fill-rule:nonzero;fill:rgb(74.509804%,75.294118%,76.078431%);fill-opacity:1;" d="M 18.886719 28.109375 L 19.480469 28.992188 L 19.34375 29.503906 L 19.640625 29.898438 L 21.953125 29.898438 L 22.414062 29.546875 L 23.183594 29.636719 L 22.296875 30.355469 L 19.019531 30.355469 L 18.5 29.636719 Z M 18.886719 28.109375 "/>
<path style=" stroke:none;fill-rule:nonzero;fill:rgb(74.509804%,75.294118%,76.078431%);fill-opacity:1;" d="M 21.597656 29.460938 L 22.414062 29.546875 L 22.875 27.746094 L 20.085938 26.585938 L 20.546875 24.796875 L 19.761719 24.710938 L 19.210938 26.835938 L 21.96875 27.980469 Z M 21.597656 29.460938 "/>
<path style=" stroke:none;fill-rule:nonzero;fill:rgb(74.509804%,75.294118%,76.078431%);fill-opacity:1;" d="M 23.289062 24.433594 L 21.019531 24.433594 L 20.546875 24.796875 L 21.347656 24.886719 L 22.785156 24.886719 L 22.605469 25.589844 L 23.46875 25.328125 L 23.585938 24.84375 Z M 23.289062 24.433594 "/>
<path style=" stroke:none;fill-rule:nonzero;fill:rgb(74.509804%,75.294118%,76.078431%);fill-opacity:1;" d="M 8.464844 24.125 L 9.738281 24.433594 L 8.449219 29.503906 L 8.746094 29.898438 L 11.414062 29.898438 L 12.125 30.355469 L 8.136719 30.355469 L 7.601562 29.636719 L 8.878906 24.679688 Z M 8.464844 24.125 "/>
<path style=" stroke:none;fill-rule:nonzero;fill:rgb(74.509804%,75.294118%,76.078431%);fill-opacity:1;" d="M 12.109375 24.023438 L 12.808594 24.433594 L 11.414062 29.898438 L 10.714844 29.460938 Z M 12.109375 24.023438 "/>
<path style=" stroke:none;fill-rule:nonzero;fill:rgb(74.509804%,75.294118%,76.078431%);fill-opacity:1;" d="M 15.207031 24.433594 L 14.496094 23.992188 L 12.882812 30.324219 L 14.511719 30.324219 L 13.800781 29.898438 Z M 15.207031 24.433594 "/>
<path style=" stroke:none;fill-rule:nonzero;fill:rgb(74.509804%,75.294118%,76.078431%);fill-opacity:1;" d="M 16.871094 29.898438 L 18.160156 24.84375 L 17.863281 24.433594 L 15.207031 24.433594 L 15.890625 24.886719 L 17.34375 24.886719 L 15.964844 30.324219 L 18.011719 30.324219 L 18.144531 30.207031 Z M 16.871094 29.898438 "/>
<path style=" stroke:none;fill-rule:nonzero;fill:rgb(100%,100%,100%);fill-opacity:1;" d="M 5.082031 22.085938 L 4.652344 22.203125 L 4.785156 21.648438 L 5.1875 21.648438 Z M 4.3125 21.324219 L 4.265625 21.355469 L 4.402344 21.53125 L 3.984375 23.203125 L 4.5625 23.203125 L 4.59375 23.15625 L 4.460938 22.996094 L 4.5625 22.554688 L 5.453125 22.277344 L 5.632812 21.546875 L 5.453125 21.324219 Z M 4.3125 21.324219 "/>
<path style=" stroke:none;fill-rule:nonzero;fill:rgb(100%,100%,100%);fill-opacity:1;" d="M 9.027344 21.324219 L 8.597656 21.324219 L 8.433594 22 L 8.019531 22.101562 L 8.210938 21.324219 L 7.648438 21.324219 L 7.601562 21.355469 L 7.738281 21.53125 L 7.320312 23.203125 L 7.75 23.203125 L 7.929688 22.453125 L 8.34375 22.367188 L 8.136719 23.203125 L 8.699219 23.203125 L 8.746094 23.15625 L 8.609375 22.996094 Z M 9.027344 21.324219 "/>
<path style=" stroke:none;fill-rule:nonzero;fill:rgb(100%,100%,100%);fill-opacity:1;" d="M 11.5625 22.894531 L 11.160156 22.894531 L 11.472656 21.632812 L 11.871094 21.632812 Z M 11.367188 21.324219 L 11.085938 21.546875 L 10.730469 22.964844 L 10.910156 23.203125 L 11.679688 23.203125 L 11.960938 22.964844 L 12.316406 21.546875 L 12.140625 21.324219 Z M 11.367188 21.324219 "/>
<path style=" stroke:none;fill-rule:nonzero;fill:rgb(100%,100%,100%);fill-opacity:1;" d="M 18.871094 21.546875 L 18.691406 21.324219 L 17.671875 21.324219 L 17.210938 23.203125 L 17.640625 23.203125 L 18.027344 21.632812 L 18.425781 21.632812 L 18.039062 23.203125 L 18.605469 23.203125 L 18.648438 23.15625 L 18.515625 22.996094 Z M 18.871094 21.546875 "/>
<path style=" stroke:none;fill-rule:nonzero;fill:rgb(100%,100%,100%);fill-opacity:1;" d="M 21.511719 21.324219 L 20.933594 21.324219 L 20.886719 21.355469 L 21.035156 21.53125 L 20.621094 23.203125 L 21.183594 23.203125 L 21.226562 23.15625 L 21.09375 22.996094 Z M 21.511719 21.324219 "/>
<path style=" stroke:none;fill-rule:nonzero;fill:rgb(100%,100%,100%);fill-opacity:1;" d="M 24.550781 23.011719 L 24.328125 22.277344 L 25.082031 21.324219 L 24.667969 21.324219 L 24.238281 21.898438 L 24.089844 21.324219 L 23.527344 21.324219 L 23.480469 21.355469 L 23.703125 21.53125 L 23.925781 22.292969 L 23.214844 23.203125 L 23.617188 23.203125 L 24.03125 22.644531 L 24.179688 23.203125 L 24.742188 23.203125 L 24.785156 23.15625 Z M 24.550781 23.011719 "/>
<path style=" stroke:none;fill-rule:nonzero;fill:rgb(100%,100%,100%);fill-opacity:1;" d="M 15.015625 22.894531 L 14.527344 22.894531 L 14.644531 22.410156 L 15.046875 22.410156 L 15.121094 22.101562 L 14.71875 22.101562 L 14.839844 21.632812 L 15.296875 21.632812 L 15.417969 21.792969 L 15.460938 21.765625 L 15.566406 21.324219 L 14.347656 21.324219 L 14.304688 21.355469 L 14.4375 21.53125 L 14.023438 23.203125 L 15.132812 23.203125 L 15.238281 22.761719 L 15.207031 22.730469 Z M 15.015625 22.894531 "/>
<path style=" stroke:none;fill-rule:nonzero;fill:rgb(97.647059%,62.745098%,10.588235%);fill-opacity:1;" d="M 5.273438 19.816406 L 16.082031 13.96875 L 8.746094 19.816406 L 17.65625 14.757812 L 17.507812 15.785156 L 18.988281 14.964844 L 22.339844 18.101562 L 24.121094 12.796875 L 26.699219 12.632812 L 25.394531 9.425781 L 27.722656 7.621094 L 24.699219 6.449219 L 25.46875 3.238281 L 22.902344 4.398438 L 21.570312 1.640625 L 19.507812 3.664062 L 15.800781 2.023438 L 15.296875 5.289062 L 11.992188 6.007812 L 13.949219 7.167969 L 11.976562 8.148438 L 13.652344 8.296875 L 6.773438 13.570312 L 13.695312 9.9375 L 6.285156 15.519531 L 14.171875 11.460938 L 5.734375 17.71875 L 15.03125 12.824219 Z M 5.273438 19.816406 "/>
<path style=" stroke:none;fill-rule:nonzero;fill:rgb(89.803922%,37.647059%,12.54902%);fill-opacity:1;" d="M 25.054688 9.46875 C 24.925781 12.398438 22.421875 14.675781 19.453125 14.554688 C 16.488281 14.429688 14.183594 11.957031 14.304688 9.023438 C 14.425781 6.089844 16.925781 3.8125 19.894531 3.929688 C 22.867188 4.050781 25.175781 6.53125 25.054688 9.46875 Z M 25.054688 9.46875 "/>
<path style=" stroke:none;fill-rule:nonzero;fill:rgb(72.54902%,34.901961%,8.235294%);fill-opacity:1;" d="M 20.339844 13.835938 C 18.21875 13.753906 16.347656 12.445312 15.558594 10.496094 C 14.769531 8.550781 15.214844 6.328125 16.691406 4.820312 C 14.757812 6.101562 13.871094 8.464844 14.5 10.683594 C 15.125 12.898438 17.121094 14.46875 19.449219 14.570312 C 20.984375 14.628906 22.46875 14.042969 23.542969 12.957031 C 22.597656 13.582031 21.472656 13.890625 20.339844 13.835938 Z M 20.339844 13.835938 "/>
<path style=" stroke:none;fill-rule:nonzero;fill:rgb(0%,0%,0%);fill-opacity:1;" d="M 25.054688 9.308594 C 25.0625 9.121094 25.058594 8.933594 25.039062 8.75 C 24.710938 8.515625 24.328125 8.363281 23.925781 8.308594 C 23.835938 8.308594 23.761719 8.296875 23.675781 8.296875 C 23.625 7.941406 23.546875 7.59375 23.4375 7.253906 C 23.492188 7.265625 23.546875 7.269531 23.601562 7.269531 C 23.984375 7.300781 24.355469 7.34375 24.726562 7.402344 C 24.675781 7.261719 24.617188 7.125 24.550781 6.992188 C 24.148438 6.933594 23.71875 6.886719 23.289062 6.859375 C 23.15625 6.511719 22.992188 6.179688 22.800781 5.863281 C 23.066406 5.816406 23.3125 5.691406 23.511719 5.511719 C 23.40625 5.410156 23.304688 5.320312 23.199219 5.21875 C 23.019531 5.378906 22.789062 5.476562 22.546875 5.496094 C 22.503906 5.4375 22.457031 5.378906 22.429688 5.335938 C 22.070312 4.875 21.644531 4.472656 21.167969 4.132812 C 20.753906 4.011719 20.324219 3.941406 19.894531 3.929688 L 19.835938 3.929688 C 20.671875 4.261719 21.40625 4.800781 21.96875 5.496094 C 21.339844 5.410156 20.71875 5.265625 20.117188 5.070312 C 19.921875 5.011719 19.746094 4.96875 19.566406 4.910156 C 18.742188 4.671875 17.878906 4.570312 17.019531 4.617188 C 16.550781 4.882812 16.125 5.210938 15.757812 5.597656 C 16.4375 5.320312 17.804688 4.851562 19.464844 5.304688 C 19.640625 5.351562 19.820312 5.394531 20.011719 5.453125 C 20.738281 5.671875 21.570312 5.90625 22.28125 5.90625 C 22.472656 6.203125 22.640625 6.511719 22.785156 6.828125 C 22.648438 6.816406 22.507812 6.8125 22.371094 6.816406 C 18.902344 6.757812 15.949219 7.769531 14.304688 9.410156 C 14.308594 9.730469 14.34375 10.046875 14.410156 10.363281 C 14.867188 9.703125 15.566406 9.101562 16.453125 8.601562 C 18.113281 7.679688 20.339844 7.195312 22.695312 7.226562 C 22.785156 7.226562 22.859375 7.242188 22.949219 7.242188 C 23.066406 7.578125 23.15625 7.925781 23.214844 8.28125 C 21.6875 8.355469 20.710938 9.277344 19.566406 10.289062 C 18.558594 11.183594 17.3125 12.078125 15.503906 12.621094 C 15.679688 12.824219 15.867188 13.015625 16.070312 13.191406 C 17.773438 12.515625 18.902344 11.460938 19.863281 10.609375 C 20.960938 9.644531 21.894531 8.71875 23.257812 8.675781 C 23.304688 9.054688 23.304688 9.441406 23.257812 9.820312 C 23.082031 11.902344 21.851562 13.675781 20.191406 14.554688 C 20.609375 14.511719 21.023438 14.425781 21.421875 14.289062 C 21.554688 14.171875 21.6875 14.054688 21.804688 13.9375 C 22.917969 12.851562 23.59375 11.40625 23.71875 9.863281 C 23.761719 9.472656 23.761719 9.082031 23.71875 8.691406 C 23.792969 8.707031 23.867188 8.707031 23.925781 8.71875 C 24.355469 8.792969 24.75 8.996094 25.054688 9.308594 Z M 25.054688 9.308594 "/>
</g>
</svg>
