<?xml version="1.0" encoding="UTF-8"?>
<svg xmlns="http://www.w3.org/2000/svg" xmlns:xlink="http://www.w3.org/1999/xlink" width="32px" height="32px" viewBox="0 0 32 36" version="1.1">
<defs>
<clipPath id="clip1">
  <path d="M 0 0 L 31.960938 0 L 31.960938 35.960938 L 0 35.960938 Z M 0 0 "/>
</clipPath>
</defs>
<g id="surface1">
<g clip-path="url(#clip1)" clip-rule="nonzero">
<path style=" stroke:none;fill-rule:nonzero;fill:rgb(100%,100%,100%);fill-opacity:1;" d="M 31.960938 0 L 27.386719 4.527344 L 23.566406 0.761719 L 19.726562 4.53125 L 15.910156 0.761719 L 12.09375 4.527344 L 8.273438 0.761719 L 4.460938 4.53125 L 0 0.0898438 L 0 20.144531 C 0 28.867188 7.09375 35.960938 15.933594 35.960938 C 24.785156 35.949219 31.957031 28.875 31.960938 20.144531 Z M 31.960938 0 "/>
</g>
<path style=" stroke:none;fill-rule:nonzero;fill:rgb(36.078431%,40%,43.921569%);fill-opacity:1;" d="M 1.425781 22.890625 C 1.804688 24.78125 2.5625 26.574219 3.652344 28.171875 C 4.316406 27.019531 5.648438 25.59375 8.257812 24.984375 C 8.058594 24.324219 7.878906 23.621094 7.726562 22.890625 Z M 1.425781 22.890625 "/>
<path style=" stroke:none;fill-rule:nonzero;fill:rgb(36.078431%,40%,43.921569%);fill-opacity:1;" d="M 4.695312 29.53125 C 7.476562 32.773438 11.554688 34.660156 15.867188 34.699219 C 15.460938 34.496094 15.066406 34.273438 14.6875 34.03125 C 12.871094 32.875 10.371094 30.621094 8.761719 26.441406 C 6.222656 26.988281 5.148438 28.40625 4.695312 29.53125 "/>
<path style=" stroke:none;fill-rule:nonzero;fill:rgb(36.078431%,40%,43.921569%);fill-opacity:1;" d="M 10.324219 26.222656 C 11.46875 29.0625 13.195312 31.242188 15.464844 32.703125 C 16.652344 33.472656 17.96875 34.015625 19.351562 34.3125 C 21.734375 33.761719 23.941406 32.640625 25.777344 31.046875 C 24.328125 30.890625 22.84375 30.070312 21.277344 29.203125 C 18.832031 27.847656 15.789062 26.164062 11.675781 26.164062 C 11.230469 26.164062 10.777344 26.183594 10.324219 26.222656 "/>
<path style=" stroke:none;fill-rule:nonzero;fill:rgb(35.686275%,16.862745%,50.980392%);fill-opacity:1;" d="M 16.507812 15.511719 L 11.21875 15.511719 L 11.21875 21.71875 L 13.414062 21.71875 L 13.414062 16.738281 L 15.066406 16.738281 L 15.066406 21.71875 L 17.160156 21.71875 L 17.160156 16.382812 C 17.160156 15.90625 16.867188 15.511719 16.507812 15.511719 "/>
<path style=" stroke:none;fill-rule:nonzero;fill:rgb(35.686275%,16.862745%,50.980392%);fill-opacity:1;" d="M 18.085938 15.511719 L 18.085938 20.835938 C 18.085938 21.3125 18.375 21.71875 18.734375 21.71875 L 24.015625 21.71875 L 24.015625 17.949219 L 21.90625 17.949219 L 21.90625 20.488281 L 20.257812 20.488281 L 20.257812 16.710938 L 24.015625 16.710938 L 24.015625 15.511719 Z M 18.085938 15.511719 "/>
<path style=" stroke:none;fill-rule:nonzero;fill:rgb(35.686275%,16.862745%,50.980392%);fill-opacity:1;" d="M 5.375 15.511719 L 4.179688 18.019531 L 3.488281 18.019531 L 3.488281 15.511719 L 1.300781 15.511719 L 1.300781 21.71875 L 3.488281 21.71875 L 3.488281 19.222656 L 4.179688 19.222656 L 5.375 21.71875 L 7.558594 21.71875 L 6.015625 18.621094 L 7.558594 15.511719 Z M 5.375 15.511719 "/>
<path style=" stroke:none;fill-rule:nonzero;fill:rgb(35.686275%,16.862745%,50.980392%);fill-opacity:1;" d="M 8.140625 15.511719 L 10.402344 15.511719 L 10.402344 21.71875 L 8.140625 21.71875 Z M 8.140625 15.511719 "/>
<path style=" stroke:none;fill-rule:nonzero;fill:rgb(35.686275%,16.862745%,50.980392%);fill-opacity:1;" d="M 30.667969 17.191406 L 30.667969 15.511719 L 24.863281 15.511719 L 24.863281 18.347656 C 24.863281 18.820312 25.15625 19.203125 25.511719 19.203125 L 28.46875 19.203125 L 28.46875 20.558594 L 24.863281 20.558594 L 24.863281 21.71875 L 30.667969 21.71875 L 30.667969 18.871094 C 30.667969 18.429688 30.421875 18.015625 30.089844 18.015625 L 27.042969 18.015625 L 27.042969 16.714844 L 28.566406 16.714844 L 28.566406 17.191406 Z M 30.667969 17.191406 "/>
<path style=" stroke:none;fill-rule:nonzero;fill:rgb(35.686275%,16.862745%,50.980392%);fill-opacity:1;" d="M 24.492188 9.214844 L 22.640625 9.214844 L 26.460938 5.441406 L 23.566406 2.59375 L 19.726562 6.355469 L 15.910156 2.59375 L 9.199219 9.214844 L 7.34375 9.214844 L 11.160156 5.4375 L 8.273438 2.59375 L 4.460938 6.355469 L 1.300781 3.265625 L 1.300781 14.371094 L 30.667969 14.371094 L 30.667969 3.121094 Z M 24.492188 9.214844 "/>
<path style=" stroke:none;fill-rule:nonzero;fill:rgb(100%,100%,100%);fill-opacity:1;" d="M 7.71875 13.179688 C 7.71875 13.339844 7.847656 13.46875 8.011719 13.472656 L 9.664062 13.472656 L 9.664062 13.035156 L 8.316406 13.035156 L 8.316406 11.617188 L 9.664062 11.617188 L 9.664062 11.179688 L 7.71875 11.179688 Z M 7.71875 13.179688 "/>
<path style=" stroke:none;fill-rule:nonzero;fill:rgb(100%,100%,100%);fill-opacity:1;" d="M 5.027344 11.179688 L 5.027344 13.472656 L 5.628906 13.472656 L 5.628906 12.871094 L 6.371094 12.871094 L 6.371094 13.472656 L 6.972656 13.472656 L 6.972656 11.472656 C 6.96875 11.386719 6.933594 11.308594 6.871094 11.253906 C 6.808594 11.199219 6.726562 11.171875 6.640625 11.179688 Z M 6.371094 12.4375 L 5.628906 12.4375 L 5.628906 11.617188 L 6.371094 11.617188 Z M 6.371094 12.4375 "/>
<path style=" stroke:none;fill-rule:nonzero;fill:rgb(100%,100%,100%);fill-opacity:1;" d="M 29.28125 11.179688 L 27.917969 11.179688 C 27.757812 11.179688 27.625 11.308594 27.625 11.46875 L 27.625 13.179688 C 27.625 13.339844 27.757812 13.46875 27.917969 13.472656 L 29.28125 13.472656 C 29.445312 13.46875 29.574219 13.339844 29.574219 13.175781 L 29.574219 11.46875 C 29.574219 11.308594 29.445312 11.179688 29.28125 11.179688 M 28.972656 13.03125 L 28.230469 13.03125 L 28.230469 11.617188 L 28.972656 11.617188 Z M 28.972656 13.03125 "/>
<path style=" stroke:none;fill-rule:nonzero;fill:rgb(100%,100%,100%);fill-opacity:1;" d="M 2.335938 12.25 C 2.335938 12.414062 2.46875 12.542969 2.628906 12.542969 L 3.679688 12.542969 L 3.679688 13.035156 L 2.335938 13.035156 L 2.335938 13.472656 L 4.28125 13.472656 L 4.28125 12.398438 C 4.28125 12.25 4.167969 12.125 4.015625 12.109375 L 4 12.105469 L 2.933594 12.105469 L 2.933594 11.617188 L 4.28125 11.617188 L 4.28125 11.179688 L 2.335938 11.179688 Z M 2.335938 12.25 "/>
<path style=" stroke:none;fill-rule:nonzero;fill:rgb(100%,100%,100%);fill-opacity:1;" d="M 14.699219 11.179688 L 13.046875 11.179688 L 13.046875 13.472656 L 13.648438 13.472656 L 13.648438 12.871094 L 14.394531 12.871094 L 14.394531 13.472656 L 14.996094 13.472656 L 14.996094 11.472656 C 14.996094 11.308594 14.863281 11.179688 14.699219 11.179688 M 14.394531 12.4375 L 13.648438 12.4375 L 13.648438 11.617188 L 14.394531 11.617188 Z M 14.394531 12.4375 "/>
<path style=" stroke:none;fill-rule:nonzero;fill:rgb(100%,100%,100%);fill-opacity:1;" d="M 25.007812 11.613281 L 25.679688 11.613281 L 25.679688 13.472656 L 26.28125 13.472656 L 26.28125 11.613281 L 26.953125 11.613281 L 26.953125 11.179688 L 25.007812 11.179688 Z M 25.007812 11.613281 "/>
<path style=" stroke:none;fill-rule:nonzero;fill:rgb(100%,100%,100%);fill-opacity:1;" d="M 18.78125 11.179688 L 15.792969 11.179688 L 15.792969 13.472656 L 16.394531 13.472656 L 16.394531 11.617188 L 17.128906 11.617188 L 17.128906 13.472656 L 17.738281 13.472656 L 17.738281 11.617188 L 18.472656 11.617188 L 18.472656 13.472656 L 19.074219 13.472656 L 19.074219 11.472656 C 19.074219 11.308594 18.941406 11.179688 18.78125 11.179688 "/>
<path style=" stroke:none;fill-rule:nonzero;fill:rgb(100%,100%,100%);fill-opacity:1;" d="M 24.101562 11.179688 L 22.453125 11.179688 L 22.453125 13.472656 L 23.054688 13.472656 L 23.054688 11.617188 L 23.796875 11.617188 L 23.796875 13.472656 L 24.398438 13.472656 L 24.398438 11.472656 C 24.398438 11.308594 24.265625 11.179688 24.101562 11.179688 "/>
<path style=" stroke:none;fill-rule:nonzero;fill:rgb(100%,100%,100%);fill-opacity:1;" d="M 19.894531 13.179688 C 19.894531 13.339844 20.023438 13.472656 20.1875 13.472656 L 21.835938 13.472656 L 21.835938 13.035156 L 20.492188 13.035156 L 20.492188 12.542969 L 21.835938 12.542969 L 21.835938 12.109375 L 20.492188 12.109375 L 20.492188 11.617188 L 21.835938 11.617188 L 21.835938 11.179688 L 19.894531 11.179688 Z M 19.894531 13.179688 "/>
<path style=" stroke:none;fill-rule:nonzero;fill:rgb(100%,100%,100%);fill-opacity:1;" d="M 11.976562 12.636719 L 12.300781 12.636719 L 12.300781 11.472656 C 12.296875 11.386719 12.261719 11.308594 12.199219 11.253906 C 12.136719 11.199219 12.054688 11.171875 11.96875 11.179688 L 10.355469 11.179688 L 10.355469 13.472656 L 10.953125 13.472656 L 10.953125 12.636719 L 11.390625 12.636719 L 11.75 13.472656 L 12.335938 13.472656 Z M 11.699219 12.203125 L 10.953125 12.203125 L 10.953125 11.617188 L 11.699219 11.617188 Z M 11.699219 12.203125 "/>
<path style=" stroke:none;fill-rule:nonzero;fill:rgb(36.078431%,40%,43.921569%);fill-opacity:1;" d="M 11.355469 24.648438 C 14.484375 24.585938 17.578125 25.359375 21.523438 27.578125 C 24.441406 29.21875 25.726562 29.714844 26.601562 29.503906 C 27.40625 29.308594 28.152344 28.835938 29.472656 26.085938 C 29.945312 25.066406 30.296875 23.992188 30.515625 22.890625 L 9.289062 22.890625 C 9.4375 23.527344 9.582031 24.15625 9.777344 24.738281 C 10.300781 24.679688 10.828125 24.648438 11.355469 24.648438 "/>
</g>
</svg>
