<?xml version="1.0" encoding="UTF-8"?>
<svg xmlns="http://www.w3.org/2000/svg" xmlns:xlink="http://www.w3.org/1999/xlink" width="32px" height="32px" viewBox="0 0 32 21" version="1.1">
<g id="surface1">
<path style=" stroke:none;fill-rule:nonzero;fill:rgb(0%,0%,0%);fill-opacity:1;" d="M 31.992188 0.0117188 L 28.867188 6.492188 L 16.335938 6.492188 L 12.394531 14.667969 L 8.851562 14.667969 C 8.886719 14.257812 8.96875 13.851562 9.097656 13.457031 C 9.425781 12.507812 10.046875 11.675781 10.871094 11.074219 C 11.085938 11.308594 11.277344 11.558594 11.445312 11.824219 C 11.480469 11.867188 11.53125 11.867188 11.542969 11.824219 L 17.25 0 L 31.992188 0 Z M 31.992188 0.0117188 "/>
<path style=" stroke:none;fill-rule:nonzero;fill:rgb(0%,0%,0%);fill-opacity:1;" d="M 2.988281 17.207031 C 2.632812 17.882812 2.125 18.472656 1.5 18.933594 C 0.605469 17.925781 0.078125 16.664062 0 15.335938 L 3.519531 15.335938 C 3.472656 15.988281 3.292969 16.625 2.988281 17.207031 "/>
<path style=" stroke:none;fill-rule:nonzero;fill:rgb(0%,0%,0%);fill-opacity:1;" d="M 5.84375 15.335938 L 5.84375 20.996094 C 4.414062 20.914062 3.054688 20.355469 2 19.414062 C 2.679688 18.902344 3.230469 18.25 3.613281 17.503906 C 3.96875 16.832031 4.175781 16.09375 4.21875 15.335938 Z M 5.84375 15.335938 "/>
<path style=" stroke:none;fill-rule:nonzero;fill:rgb(0%,0%,0%);fill-opacity:1;" d="M 3.261719 13.457031 C 3.398438 13.847656 3.484375 14.257812 3.507812 14.667969 L 0 14.667969 C 0.078125 13.347656 0.605469 12.089844 1.5 11.085938 C 2.328125 11.679688 2.945312 12.507812 3.261719 13.457031 "/>
<path style=" stroke:none;fill-rule:nonzero;fill:rgb(0%,0%,0%);fill-opacity:1;" d="M 5.84375 9.019531 L 5.84375 14.667969 L 4.207031 14.667969 C 4.175781 14.183594 4.078125 13.703125 3.921875 13.242188 C 3.5625 12.191406 2.890625 11.269531 1.988281 10.589844 C 2.632812 10.011719 3.402344 9.574219 4.242188 9.308594 C 4.761719 9.144531 5.300781 9.050781 5.84375 9.019531 "/>
<path style=" stroke:none;fill-rule:nonzero;fill:rgb(0%,0%,0%);fill-opacity:1;" d="M 8.164062 14.667969 L 6.535156 14.667969 L 6.535156 9.019531 C 7.972656 9.09375 9.335938 9.648438 10.394531 10.589844 C 9.484375 11.265625 8.804688 12.1875 8.449219 13.242188 C 8.292969 13.703125 8.195312 14.183594 8.164062 14.667969 "/>
<path style=" stroke:none;fill-rule:nonzero;fill:rgb(0%,0%,0%);fill-opacity:1;" d="M 10.394531 19.425781 C 9.332031 20.367188 7.964844 20.921875 6.527344 20.996094 L 6.527344 15.335938 L 8.152344 15.335938 C 8.207031 16.089844 8.410156 16.828125 8.757812 17.503906 C 9.148438 18.253906 9.707031 18.910156 10.394531 19.425781 "/>
<path style=" stroke:none;fill-rule:nonzero;fill:rgb(0%,0%,0%);fill-opacity:1;" d="M 12.394531 15.335938 C 12.316406 16.664062 11.785156 17.929688 10.882812 18.933594 C 9.699219 18.070312 8.957031 16.757812 8.851562 15.328125 L 12.394531 15.328125 Z M 12.394531 15.335938 "/>
</g>
</svg>
