<?xml version="1.0" encoding="UTF-8"?>
<svg xmlns="http://www.w3.org/2000/svg" xmlns:xlink="http://www.w3.org/1999/xlink" width="32px" height="32px" viewBox="0 0 32 32" version="1.1">
<g id="surface1">
<path style=" stroke:none;fill-rule:nonzero;fill:rgb(100%,77.647059%,15.294118%);fill-opacity:1;" d="M 15.988281 0 C 24.804688 0.015625 31.949219 7.160156 31.957031 15.980469 C 31.957031 24.792969 24.792969 31.957031 15.988281 31.957031 C 9.523438 31.960938 3.691406 28.070312 1.21875 22.097656 C -1.257812 16.128906 0.109375 9.253906 4.683594 4.683594 C 7.671875 1.671875 11.746094 -0.0117188 15.988281 0 "/>
<path style=" stroke:none;fill-rule:nonzero;fill:rgb(54.509804%,13.72549%,19.607843%);fill-opacity:1;" d="M 15.988281 30.6875 C 24.089844 30.6875 30.679688 24.097656 30.679688 15.980469 C 30.679688 7.878906 24.089844 1.277344 15.988281 1.277344 C 7.871094 1.269531 1.277344 7.871094 1.277344 15.972656 C 1.277344 24.089844 7.871094 30.6875 15.988281 30.6875 "/>
<path style=" stroke:none;fill-rule:nonzero;fill:rgb(5.098039%,13.333333%,25.098039%);fill-opacity:1;" d="M 2.363281 15.972656 C 2.363281 8.46875 8.476562 2.363281 15.980469 2.363281 C 23.496094 2.363281 29.589844 8.457031 29.589844 15.976562 C 29.589844 23.492188 23.496094 29.585938 15.980469 29.585938 C 8.476562 29.59375 2.363281 23.480469 2.363281 15.972656 "/>
<path style=" stroke:none;fill-rule:nonzero;fill:rgb(100%,77.647059%,15.294118%);fill-opacity:1;" d="M 26.703125 10.273438 L 27.003906 10.105469 L 26.03125 8.589844 L 25.757812 8.789062 C 24.097656 6.6875 21.140625 4.347656 18.328125 3.996094 C 20.445312 4.960938 22.828125 7.429688 24.28125 9.332031 L 22.753906 10.441406 L 22.9375 10.722656 L 16.035156 15.203125 L 9.132812 10.722656 L 9.316406 10.441406 L 7.78125 9.332031 C 9.242188 7.429688 11.617188 4.960938 13.742188 3.996094 C 10.9375 4.347656 7.980469 6.6875 6.328125 8.78125 L 6.039062 8.574219 L 5.066406 10.082031 L 5.367188 10.257812 L 5.359375 10.273438 C 4.148438 12.664062 3.25 16.347656 4.121094 19.046875 C 4.097656 16.714844 5.351562 13.511719 6.480469 11.378906 L 8.125 12.304688 L 8.292969 12.039062 L 14.699219 16.066406 L 6.246094 21.5625 L 6.230469 21.546875 L 5.097656 21.851562 L 5.113281 21.882812 C 5.058594 22.089844 5.160156 22.484375 5.402344 22.859375 C 5.640625 23.242188 5.945312 23.488281 6.175781 23.539062 L 6.191406 23.570312 L 6.941406 22.660156 L 6.933594 22.644531 L 23.769531 12.054688 L 23.9375 12.320312 L 25.589844 11.394531 C 26.71875 13.527344 27.972656 16.738281 27.957031 19.0625 C 28.820312 16.355469 27.914062 12.664062 26.703125 10.273438 "/>
<path style=" stroke:none;fill-rule:nonzero;fill:rgb(100%,77.647059%,15.294118%);fill-opacity:1;" d="M 25.832031 21.546875 L 25.816406 21.5625 L 18.039062 16.515625 L 16.683594 17.320312 L 25.128906 22.632812 L 25.121094 22.652344 L 25.871094 23.5625 L 25.894531 23.53125 C 26.117188 23.488281 26.421875 23.234375 26.667969 22.851562 C 26.902344 22.476562 27.011719 22.089844 26.957031 21.875 L 26.972656 21.84375 Z M 25.832031 21.546875 "/>
<path style=" stroke:none;fill-rule:nonzero;fill:rgb(100%,77.647059%,15.294118%);fill-opacity:1;" d="M 17.363281 5.351562 L 16.777344 6.121094 L 15.972656 4.1875 L 15.972656 13.109375 L 18.6875 9.628906 L 21.421875 10.339844 Z M 17.363281 5.351562 "/>
<path style=" stroke:none;fill-rule:nonzero;fill:rgb(100%,100%,100%);fill-opacity:1;" d="M 17.363281 7.445312 L 17.363281 5.351562 L 16.777344 6.121094 Z M 17.363281 7.445312 "/>
<path style=" stroke:none;fill-rule:nonzero;fill:rgb(100%,100%,100%);fill-opacity:1;" d="M 15.972656 4.1875 L 11.042969 10.203125 L 13.214844 9.644531 L 15.972656 13.109375 Z M 15.972656 4.1875 "/>
<path style=" stroke:none;fill-rule:nonzero;fill:rgb(100%,77.647059%,15.294118%);fill-opacity:1;" d="M 13.078125 26.683594 C 13.773438 26.019531 14.671875 25.605469 15.628906 25.511719 L 15.628906 24.175781 L 11.945312 24.175781 C 12.015625 25.121094 12.417969 26.007812 13.078125 26.683594 "/>
<path style=" stroke:none;fill-rule:nonzero;fill:rgb(100%,77.647059%,15.294118%);fill-opacity:1;" d="M 15.621094 27.921875 L 15.621094 26.34375 C 14.90625 26.429688 14.234375 26.738281 13.703125 27.21875 C 14.273438 27.609375 14.933594 27.851562 15.621094 27.921875 "/>
<path style=" stroke:none;fill-rule:nonzero;fill:rgb(100%,100%,100%);fill-opacity:1;" d="M 16.441406 19.734375 L 16.441406 21.308594 C 17.15625 21.226562 17.824219 20.917969 18.351562 20.429688 C 17.78125 20.042969 17.125 19.804688 16.441406 19.734375 "/>
<path style=" stroke:none;fill-rule:nonzero;fill:rgb(100%,100%,100%);fill-opacity:1;" d="M 18.984375 20.972656 C 18.292969 21.636719 17.398438 22.050781 16.441406 22.140625 L 16.441406 23.355469 L 20.117188 23.355469 C 20.007812 22.457031 19.609375 21.621094 18.984375 20.972656 "/>
<path style=" stroke:none;fill-rule:nonzero;fill:rgb(100%,100%,100%);fill-opacity:1;" d="M 15.621094 21.308594 L 15.621094 19.734375 C 14.933594 19.804688 14.277344 20.046875 13.710938 20.4375 C 14.242188 20.917969 14.90625 21.222656 15.621094 21.308594 "/>
<path style=" stroke:none;fill-rule:nonzero;fill:rgb(100%,77.647059%,15.294118%);fill-opacity:1;" d="M 16.441406 24.175781 L 16.441406 25.511719 C 17.398438 25.597656 18.296875 26.011719 18.984375 26.683594 C 19.648438 26.011719 20.054688 25.121094 20.125 24.175781 Z M 16.441406 24.175781 "/>
<path style=" stroke:none;fill-rule:nonzero;fill:rgb(100%,100%,100%);fill-opacity:1;" d="M 11.945312 23.355469 L 15.621094 23.355469 L 15.621094 22.140625 C 14.664062 22.046875 13.765625 21.636719 13.070312 20.972656 C 12.449219 21.625 12.050781 22.457031 11.945312 23.355469 "/>
<path style=" stroke:none;fill-rule:nonzero;fill:rgb(100%,77.647059%,15.294118%);fill-opacity:1;" d="M 16.441406 27.921875 C 17.128906 27.855469 17.785156 27.613281 18.351562 27.21875 C 17.824219 26.734375 17.15625 26.425781 16.441406 26.34375 Z M 16.441406 27.921875 "/>
</g>
</svg>
