<?xml version="1.0" encoding="UTF-8"?>
<svg xmlns="http://www.w3.org/2000/svg" xmlns:xlink="http://www.w3.org/1999/xlink" width="32px" height="32px" viewBox="0 0 32 38" version="1.1">
<g id="surface1">
<path style=" stroke:none;fill-rule:nonzero;fill:rgb(11.372549%,25.882353%,54.117647%);fill-opacity:1;" d="M 16.40625 1.523438 L 15.242188 0 L 14.445312 0 L 14.445312 0.144531 L 14.632812 0.277344 L 14.632812 2.511719 L 15.242188 2.511719 L 15.242188 1 L 16.414062 2.511719 L 17.019531 2.511719 L 17.019531 0 L 16.40625 0 Z M 16.40625 1.523438 "/>
<path style=" stroke:none;fill-rule:nonzero;fill:rgb(11.372549%,25.882353%,54.117647%);fill-opacity:1;" d="M 12.136719 2.890625 L 13.886719 2.589844 L 13.800781 2.074219 L 12.679688 2.265625 L 12.59375 1.785156 L 13.503906 1.628906 L 13.464844 1.402344 L 13.410156 1.113281 L 12.5 1.273438 L 12.417969 0.816406 L 13.4375 0.644531 L 13.484375 0.105469 L 11.828125 0.394531 L 11.695312 0.414062 L 11.511719 0.449219 L 11.539062 0.59375 L 11.742188 0.691406 Z M 12.136719 2.890625 "/>
<path style=" stroke:none;fill-rule:nonzero;fill:rgb(11.372549%,25.882353%,54.117647%);fill-opacity:1;" d="M 9.226562 3.828125 L 10.125 3.503906 C 10.957031 3.207031 11.277344 2.535156 11.023438 1.84375 C 10.769531 1.152344 10.085938 0.84375 9.246094 1.140625 L 8.457031 1.421875 L 8.152344 1.527344 L 8.207031 1.667969 L 8.460938 1.738281 Z M 9.140625 1.738281 L 9.460938 1.628906 C 9.789062 1.507812 10.230469 1.554688 10.421875 2.070312 C 10.609375 2.574219 10.300781 2.890625 9.972656 3.011719 L 9.648438 3.121094 Z M 9.140625 1.738281 "/>
<path style=" stroke:none;fill-rule:nonzero;fill:rgb(11.372549%,25.882353%,54.117647%);fill-opacity:1;" d="M 6.921875 5.074219 L 8.503906 4.171875 L 8.347656 3.625 L 7.195312 4.277344 L 6.203125 2.582031 L 5.785156 2.8125 L 5.644531 2.898438 L 5.503906 2.976562 L 5.578125 3.101562 L 5.78125 3.121094 Z M 6.921875 5.074219 "/>
<path style=" stroke:none;fill-rule:nonzero;fill:rgb(11.372549%,25.882353%,54.117647%);fill-opacity:1;" d="M 5.363281 4.507812 C 4.886719 3.964844 4.082031 3.875 3.453125 4.414062 C 2.824219 4.953125 2.804688 5.746094 3.277344 6.285156 C 3.753906 6.824219 4.558594 6.921875 5.191406 6.382812 C 5.828125 5.84375 5.847656 5.046875 5.363281 4.507812 M 3.78125 5.863281 C 3.488281 5.527344 3.488281 5.113281 3.820312 4.828125 C 4.152344 4.546875 4.578125 4.597656 4.875 4.933594 C 5.167969 5.261719 5.167969 5.691406 4.835938 5.976562 C 4.5 6.257812 4.070312 6.191406 3.78125 5.863281 "/>
<path style=" stroke:none;fill-rule:nonzero;fill:rgb(11.372549%,25.882353%,54.117647%);fill-opacity:1;" d="M 2.777344 6.632812 L 2.273438 7.265625 L 2.140625 7.429688 L 1.925781 7.699219 L 2.328125 8.011719 L 2.730469 7.511719 C 2.847656 7.75 2.8125 8.035156 2.640625 8.242188 C 2.367188 8.582031 1.9375 8.605469 1.589844 8.332031 C 1.234375 8.0625 1.152344 7.648438 1.429688 7.304688 C 1.46875 7.253906 1.515625 7.207031 1.570312 7.167969 C 1.640625 7.113281 1.722656 7.070312 1.808594 7.050781 L 2.019531 6.785156 L 2.28125 6.457031 L 2.292969 6.441406 C 2.28125 6.441406 2.265625 6.4375 2.253906 6.4375 C 1.796875 6.375 1.34375 6.554688 1.054688 6.902344 C 1.03125 6.925781 1.011719 6.949219 0.992188 6.976562 C 0.476562 7.621094 0.609375 8.40625 1.1875 8.847656 C 1.761719 9.289062 2.566406 9.230469 3.085938 8.582031 C 3.105469 8.5625 3.117188 8.539062 3.136719 8.519531 C 3.457031 8.105469 3.492188 7.550781 3.230469 7.101562 C 3.210938 7.0625 3.183594 7.019531 3.160156 6.984375 C 3.078125 6.882812 2.988281 6.789062 2.890625 6.707031 C 2.84375 6.679688 2.808594 6.652344 2.777344 6.632812 "/>
<path style=" stroke:none;fill-rule:nonzero;fill:rgb(11.372549%,25.882353%,54.117647%);fill-opacity:1;" d="M 20.101562 1.898438 L 20.324219 2.101562 C 20.511719 2.273438 20.605469 2.359375 20.566406 2.488281 C 20.539062 2.59375 20.40625 2.648438 20.214844 2.59375 C 19.953125 2.503906 19.734375 2.328125 19.585938 2.09375 L 19.398438 2.726562 C 19.601562 2.914062 19.851562 3.046875 20.121094 3.117188 C 20.613281 3.253906 21.089844 3.082031 21.230469 2.617188 C 21.335938 2.246094 21.136719 1.996094 20.859375 1.746094 L 20.605469 1.503906 C 20.484375 1.390625 20.457031 1.316406 20.484375 1.230469 C 20.511719 1.125 20.640625 1.085938 20.800781 1.125 C 21.042969 1.207031 21.253906 1.355469 21.410156 1.554688 L 21.578125 0.980469 C 21.390625 0.8125 21.164062 0.691406 20.921875 0.625 C 20.390625 0.472656 19.960938 0.703125 19.847656 1.105469 C 19.746094 1.390625 19.835938 1.652344 20.101562 1.898438 "/>
<path style=" stroke:none;fill-rule:nonzero;fill:rgb(11.372549%,25.882353%,54.117647%);fill-opacity:1;" d="M 22.222656 3.859375 L 22.8125 4.128906 L 23.664062 2.324219 L 24.394531 2.660156 L 24.617188 2.1875 L 22.570312 1.25 L 22.347656 1.726562 L 23.078125 2.054688 Z M 22.222656 3.859375 "/>
<path style=" stroke:none;fill-rule:nonzero;fill:rgb(11.372549%,25.882353%,54.117647%);fill-opacity:1;" d="M 23.871094 4.328125 L 23.71875 4.550781 L 24.160156 4.84375 L 24.347656 4.636719 L 24.628906 4.5 L 25.023438 4.757812 L 25.421875 5.011719 L 25.394531 5.324219 L 25.273438 5.566406 L 25.714844 5.863281 L 25.871094 5.640625 L 26.453125 3.328125 L 26.152344 3.121094 L 25.910156 2.964844 L 25.84375 2.917969 L 25.640625 2.785156 L 25.554688 2.910156 L 25.621094 3.082031 Z M 25.78125 3.648438 L 25.546875 4.511719 L 25.300781 4.347656 L 25.050781 4.183594 Z M 25.78125 3.648438 "/>
<path style=" stroke:none;fill-rule:nonzero;fill:rgb(11.372549%,25.882353%,54.117647%);fill-opacity:1;" d="M 27.230469 4.539062 L 27.820312 5.085938 L 26.4375 6.542969 L 26.914062 6.976562 L 28.296875 5.519531 L 28.886719 6.054688 L 29.25 5.679688 L 27.59375 4.164062 Z M 27.230469 4.539062 "/>
<path style=" stroke:none;fill-rule:nonzero;fill:rgb(11.372549%,25.882353%,54.117647%);fill-opacity:1;" d="M 29.09375 7.828125 L 29.664062 8.542969 L 30.082031 8.226562 L 29.511719 7.511719 L 29.878906 7.226562 L 30.515625 8.03125 L 31.019531 7.820312 L 29.972656 6.503906 L 29.980469 6.496094 L 29.777344 6.246094 L 29.664062 6.335938 L 29.671875 6.582031 L 27.886719 7.957031 L 28.980469 9.335938 L 29.394531 9.011719 L 28.699219 8.128906 Z M 29.09375 7.828125 "/>
<path style=" stroke:none;fill-rule:nonzero;fill:rgb(11.372549%,25.882353%,54.117647%);fill-opacity:1;" d="M 31.074219 18.292969 C 31.074219 26.617188 24.203125 33.367188 15.730469 33.367188 C 7.257812 33.367188 0.390625 26.617188 0.390625 18.292969 C 0.390625 9.96875 7.257812 3.222656 15.730469 3.222656 C 24.203125 3.222656 31.070312 9.96875 31.074219 18.292969 "/>
<path style=" stroke:none;fill-rule:nonzero;fill:rgb(99.215686%,72.54902%,15.294118%);fill-opacity:1;" d="M 25.761719 8.433594 C 20.222656 2.984375 11.238281 2.984375 5.695312 8.429688 C 0.152344 13.871094 0.15625 22.699219 5.699219 28.144531 C 11.238281 33.589844 20.222656 33.589844 25.765625 28.148438 C 31.308594 22.703125 31.304688 13.875 25.761719 8.433594 M 6.242188 8.964844 C 10.824219 4.472656 18.019531 3.835938 23.347656 7.449219 C 28.675781 11.058594 30.621094 17.890625 27.976562 23.695312 C 26.34375 23.15625 24.742188 22.550781 23.171875 21.863281 C 22.964844 21.773438 22.757812 21.6875 22.558594 21.59375 L 21.945312 21.3125 L 21.636719 21.167969 L 21.335938 21.023438 L 20.734375 20.726562 C 20.53125 20.625 20.332031 20.519531 20.136719 20.414062 L 19.835938 20.257812 C 19.734375 20.203125 19.640625 20.152344 19.539062 20.097656 L 18.949219 19.777344 L 18.367188 19.441406 C 16.804688 18.546875 15.308594 17.546875 13.894531 16.441406 C 13.1875 15.890625 12.5 15.316406 11.847656 14.703125 C 11.519531 14.402344 11.203125 14.085938 10.894531 13.761719 C 10.824219 13.683594 10.742188 13.605469 10.667969 13.519531 C 10.59375 13.4375 10.519531 13.351562 10.445312 13.269531 C 10.375 13.183594 10.300781 13.101562 10.230469 13.015625 C 10.230469 13.011719 10.226562 13.011719 10.226562 13.003906 C 10.199219 12.035156 10.183594 11.457031 10.183594 11.457031 L 9.515625 11.296875 L 9.515625 12.179688 L 8.945312 12.179688 L 8.945312 11.25 L 8.226562 11.421875 L 8.234375 11.757812 L 7.898438 11.9375 C 7.90625 12.214844 7.914062 12.574219 7.917969 13.003906 C 7.644531 13.472656 4.671875 18.519531 2.449219 20.074219 C 2.363281 19.476562 2.320312 18.875 2.320312 18.273438 C 2.304688 14.78125 3.71875 11.425781 6.242188 8.964844 M 23.871094 24.757812 L 22.488281 24.804688 L 21.363281 21.9375 L 21.585938 22.042969 L 22.203125 22.347656 C 22.410156 22.445312 22.617188 22.535156 22.824219 22.636719 C 22.886719 22.660156 22.945312 22.6875 23 22.714844 Z M 23.535156 22.957031 C 24.09375 23.207031 24.65625 23.445312 25.21875 23.675781 L 25.679688 24.691406 L 24.292969 24.738281 Z M 22.0625 24.816406 L 20.644531 24.863281 L 19.175781 20.765625 C 19.269531 20.816406 19.363281 20.871094 19.457031 20.921875 L 19.761719 21.085938 C 19.960938 21.199219 20.164062 21.304688 20.363281 21.417969 L 20.828125 21.660156 Z M 20.238281 24.875 L 18.976562 24.914062 L 17.140625 19.527344 C 17.421875 19.703125 17.703125 19.882812 17.992188 20.054688 L 18.582031 20.410156 L 18.660156 20.453125 Z M 18.554688 24.933594 L 17.234375 24.980469 L 15.054688 18.109375 C 15.554688 18.480469 16.074219 18.835938 16.589844 19.183594 Z M 16.816406 24.992188 L 15.542969 25.035156 L 12.949219 16.449219 C 13.128906 16.609375 13.316406 16.757812 13.503906 16.910156 C 13.832031 17.179688 14.160156 17.4375 14.503906 17.695312 Z M 15.132812 25.046875 L 13.726562 25.09375 L 10.628906 14.230469 C 10.894531 14.527344 11.179688 14.808594 11.464844 15.09375 C 11.769531 15.390625 12.078125 15.671875 12.386719 15.957031 Z M 13.316406 25.105469 L 12.097656 25.144531 L 10.394531 18.769531 C 10.339844 17.121094 10.292969 15.605469 10.257812 14.382812 Z M 11.6875 25.160156 L 10.632812 25.191406 C 10.566406 23.675781 10.507812 22.082031 10.453125 20.535156 Z M 26.574219 26.074219 C 26.480469 26.191406 26.390625 26.316406 26.292969 26.4375 L 10.6875 26.132812 L 10.679688 25.988281 Z M 26.109375 24.683594 L 25.753906 23.894531 C 26.34375 24.132812 26.941406 24.355469 27.539062 24.566406 C 27.527344 24.585938 27.511719 24.613281 27.5 24.632812 Z M 9.507812 15.039062 L 9.507812 15.851562 L 8.882812 15.851562 L 8.882812 16.601562 L 9.507812 16.601562 L 9.507812 17.410156 L 8.882812 17.410156 L 8.882812 18.164062 L 9.507812 18.164062 L 9.507812 19.683594 L 8.882812 19.683594 L 8.882812 20.433594 L 9.507812 20.433594 L 9.507812 22.003906 L 8.882812 22.003906 L 8.882812 22.753906 L 9.507812 22.753906 L 9.507812 25.21875 L 8.929688 25.238281 L 8.929688 13.769531 L 9.5 13.769531 L 9.5 14.277344 L 8.878906 14.277344 L 8.878906 15.027344 L 9.507812 15.027344 Z M 3.488281 23.703125 L 5.238281 17.914062 C 6.089844 16.789062 6.859375 15.605469 7.542969 14.375 L 4.40625 25.375 C 4.058594 24.839844 3.75 24.28125 3.488281 23.703125 M 3.238281 23.136719 C 2.929688 22.363281 2.695312 21.5625 2.542969 20.746094 C 3.28125 20.144531 3.960938 19.476562 4.566406 18.742188 Z M 7.914062 14.527344 C 7.914062 15.691406 7.890625 17.09375 7.867188 18.589844 L 6.0625 25.34375 L 4.8125 25.382812 Z M 7.824219 20.285156 C 7.777344 21.957031 7.71875 23.683594 7.628906 25.289062 L 6.476562 25.328125 Z M 5.429688 26.753906 L 7.542969 26.824219 C 7.503906 27.464844 7.457031 28.070312 7.402344 28.636719 C 6.996094 28.316406 6.605469 27.976562 6.234375 27.617188 C 5.953125 27.339844 5.6875 27.050781 5.429688 26.753906 M 15.730469 31.476562 C 14.085938 31.480469 12.453125 31.183594 10.917969 30.605469 C 10.855469 29.703125 10.796875 28.625 10.734375 27.445312 L 9.507812 27.035156 L 9.507812 29.980469 C 9.3125 29.882812 9.121094 29.777344 8.929688 29.664062 L 8.929688 26.871094 L 9.507812 26.890625 L 9.507812 26.910156 L 10.132812 26.910156 L 11.265625 26.949219 L 25.394531 27.445312 C 25.339844 27.503906 25.277344 27.558594 25.226562 27.617188 C 22.710938 30.097656 19.292969 31.484375 15.730469 31.476562 "/>
<path style=" stroke:none;fill-rule:nonzero;fill:rgb(11.372549%,25.882353%,54.117647%);fill-opacity:1;" d="M 20.296875 34.347656 L 20.144531 33.570312 L 19.292969 33.734375 L 18.324219 33.921875 L 17.472656 34.085938 L 17.628906 34.855469 L 18.472656 34.699219 L 18.910156 36.886719 L 18.0625 37.050781 L 18.210938 37.820312 L 19.070312 37.664062 L 20.035156 37.476562 L 20.878906 37.3125 L 20.726562 36.535156 L 19.882812 36.699219 L 19.445312 34.511719 Z M 20.296875 34.347656 "/>
<path style=" stroke:none;fill-rule:nonzero;fill:rgb(11.372549%,25.882353%,54.117647%);fill-opacity:1;" d="M 25.226562 33.425781 C 25.695312 34.414062 25.324219 35.566406 24.179688 36.085938 C 23.03125 36.613281 21.898438 36.148438 21.429688 35.160156 C 20.960938 34.171875 21.328125 33.023438 22.476562 32.496094 C 23.621094 31.976562 24.757812 32.4375 25.226562 33.425781 M 24.320312 33.839844 C 24.03125 33.234375 23.433594 32.976562 22.832031 33.253906 C 22.222656 33.53125 22.046875 34.144531 22.335938 34.75 C 22.625 35.351562 23.214844 35.621094 23.824219 35.34375 C 24.425781 35.066406 24.609375 34.441406 24.320312 33.839844 "/>
<path style=" stroke:none;fill-rule:nonzero;fill:rgb(11.372549%,25.882353%,54.117647%);fill-opacity:1;" d="M 28.027344 30.296875 C 27.546875 29.742188 26.789062 29.785156 26.21875 30.265625 L 25.144531 31.167969 L 24.976562 31.304688 L 24.777344 31.476562 L 24.921875 31.640625 L 25.253906 31.613281 L 27.5 34.203125 L 28.242188 33.578125 L 27.324219 32.523438 L 27.539062 32.347656 L 29.195312 32.78125 L 30.09375 32.03125 L 28.175781 31.589844 C 28.390625 31.167969 28.332031 30.660156 28.027344 30.296875 M 27.15625 31.648438 L 26.808594 31.9375 L 26.238281 31.285156 L 26.601562 30.980469 C 26.808594 30.8125 27.070312 30.769531 27.257812 30.988281 C 27.453125 31.199219 27.378906 31.457031 27.15625 31.648438 "/>
<path style=" stroke:none;fill-rule:nonzero;fill:rgb(11.372549%,25.882353%,54.117647%);fill-opacity:1;" d="M 31.65625 30.152344 C 31.414062 30.496094 31.085938 30.769531 30.703125 30.949219 L 29.890625 30.351562 C 30.308594 30.273438 30.683594 30.058594 30.957031 29.742188 C 31.140625 29.507812 31.125 29.296875 31 29.195312 C 30.832031 29.070312 30.65625 29.152344 30.308594 29.320312 L 29.890625 29.511719 C 29.390625 29.75 28.960938 29.730469 28.597656 29.460938 C 28.082031 29.078125 27.988281 28.359375 28.492188 27.703125 C 28.71875 27.394531 29.019531 27.148438 29.363281 26.976562 L 30.101562 27.523438 C 29.734375 27.636719 29.40625 27.847656 29.15625 28.136719 C 29.007812 28.328125 29 28.523438 29.136719 28.625 C 29.242188 28.703125 29.363281 28.703125 29.589844 28.597656 L 30.082031 28.367188 C 30.589844 28.125 31.066406 27.976562 31.535156 28.328125 C 32.140625 28.789062 32.117188 29.554688 31.65625 30.152344 "/>
<path style=" stroke:none;fill-rule:nonzero;fill:rgb(11.372549%,25.882353%,54.117647%);fill-opacity:1;" d="M 16.542969 35.304688 C 16.570312 34.574219 15.980469 34.105469 15.226562 34.078125 L 13.8125 34.03125 L 13.597656 34.027344 L 13.332031 34.019531 L 13.324219 34.242188 L 13.585938 34.441406 L 13.464844 37.839844 L 14.441406 37.875 L 14.492188 36.484375 L 14.773438 36.488281 L 15.695312 37.914062 L 16.878906 37.953125 L 15.765625 36.359375 C 16.210938 36.1875 16.515625 35.773438 16.542969 35.304688 M 14.972656 35.71875 L 14.515625 35.707031 L 14.550781 34.847656 L 15.027344 34.863281 C 15.300781 34.867188 15.515625 35.015625 15.507812 35.304688 C 15.496094 35.585938 15.269531 35.726562 14.972656 35.71875 "/>
<path style=" stroke:none;fill-rule:nonzero;fill:rgb(11.372549%,25.882353%,54.117647%);fill-opacity:1;" d="M 12.183594 34.960938 C 12.390625 34.261719 11.941406 33.65625 11.226562 33.453125 L 9.871094 33.058594 L 9.664062 33 L 9.40625 32.925781 L 9.339844 33.136719 L 9.542969 33.394531 L 8.554688 36.65625 L 9.496094 36.925781 L 9.898438 35.59375 L 10.171875 35.671875 L 10.703125 37.273438 L 11.835938 37.601562 L 11.164062 35.785156 C 11.640625 35.734375 12.039062 35.410156 12.183594 34.960938 M 10.5625 34.980469 L 10.125 34.855469 L 10.375 34.03125 L 10.828125 34.164062 C 11.089844 34.242188 11.265625 34.433594 11.183594 34.710938 C 11.097656 34.980469 10.84375 35.058594 10.5625 34.980469 "/>
<path style=" stroke:none;fill-rule:nonzero;fill:rgb(11.372549%,25.882353%,54.117647%);fill-opacity:1;" d="M 7.570312 31.90625 L 7.226562 31.707031 L 7.09375 31.628906 L 6.8125 31.464844 L 6.699219 31.652344 L 6.792969 31.863281 L 4.25 33.921875 L 4.035156 34.277344 L 4.734375 34.679688 L 4.996094 34.347656 L 5.410156 34.113281 L 6.644531 34.824219 L 6.632812 35.289062 L 6.46875 35.671875 L 7.167969 36.074219 L 7.382812 35.71875 L 8.054688 32.160156 Z M 6.417969 33.828125 L 6.027344 33.605469 L 7.082031 32.722656 L 6.804688 34.050781 Z M 6.417969 33.828125 "/>
<path style=" stroke:none;fill-rule:nonzero;fill:rgb(11.372549%,25.882353%,54.117647%);fill-opacity:1;" d="M 5.25 30.429688 L 5.007812 30.171875 L 4.839844 30.324219 L 4.875 30.59375 L 2.78125 31.484375 L 4.136719 29.238281 L 3.714844 28.78125 L 1.335938 29.929688 L 2.609375 27.601562 L 1.878906 26.8125 L 1.785156 26.714844 L 1.617188 26.859375 L 1.664062 27.226562 L 0 30.441406 L 0.671875 31.160156 L 2.265625 30.507812 L 1.46875 32.011719 L 2.132812 32.726562 L 5.972656 31.214844 Z M 5.25 30.429688 "/>
</g>
</svg>
