<?xml version="1.0" encoding="UTF-8"?>
<svg xmlns="http://www.w3.org/2000/svg" xmlns:xlink="http://www.w3.org/1999/xlink" width="32px" height="32px" viewBox="0 0 32 42" version="1.1">
<g id="surface1">
<path style=" stroke:none;fill-rule:nonzero;fill:rgb(0%,0%,0%);fill-opacity:1;" d="M 21.484375 19.507812 L 21.53125 15.75 C 21.53125 13.992188 19.675781 13.699219 18.304688 13.707031 C 19.21875 13.40625 20.324219 12.898438 21.121094 12.039062 C 21.964844 11.273438 22.558594 10.1875 22.453125 8.675781 C 22.285156 6.125 19.058594 4.863281 13.722656 5.371094 C 13.636719 5.382812 13.550781 5.390625 13.460938 5.394531 C 13.238281 3.558594 12.824219 1.75 12.230469 0 L 11.96875 0.257812 C 11.359375 2.0625 10.898438 3.910156 10.589844 5.789062 C 8.757812 6.09375 6.949219 6.515625 5.175781 7.050781 L 4.914062 7.3125 C 4.914062 7.3125 7.488281 7.085938 10.417969 7.121094 C 10.089844 10.425781 10.429688 13.5625 10.417969 19.484375 C 5.675781 19.351562 1.515625 20.128906 0.503906 21.394531 C 0.171875 21.664062 -0.0117188 21.96875 0 22.285156 C 0.0585938 23.71875 4.367188 25.039062 10.417969 25.546875 L 10.679688 33.691406 L 10.941406 33.433594 L 11.363281 27.902344 C 11.363281 27.824219 11.375 27.742188 11.398438 27.667969 C 11.523438 27.6875 11.648438 27.847656 11.648438 28.128906 L 11.832031 35.40625 L 12.09375 35.148438 L 12.550781 29.222656 C 12.546875 29.113281 12.558594 29.003906 12.585938 28.894531 C 12.710938 28.917969 12.835938 29.097656 12.824219 29.4375 L 13.027344 37.019531 L 13.289062 36.761719 L 13.65625 25.726562 C 14.351562 25.746094 15.058594 25.757812 15.785156 25.757812 C 16.550781 25.757812 17.304688 25.746094 18.042969 25.726562 L 18.410156 37.234375 L 18.671875 36.976562 L 18.980469 30.949219 C 18.976562 30.847656 18.988281 30.746094 19.011719 30.644531 C 19.125 30.667969 19.242188 30.847656 19.242188 31.164062 L 19.558594 39.613281 L 19.820312 39.355469 L 20.140625 32.054688 C 20.140625 31.96875 20.15625 31.878906 20.1875 31.796875 C 20.335938 31.796875 20.496094 31.976562 20.496094 32.324219 L 20.757812 41.996094 L 21.019531 41.734375 L 21.40625 25.535156 C 26.582031 25.082031 30.511719 24.054688 31.492188 22.859375 C 31.8125 22.589844 31.996094 22.308594 31.996094 22.023438 C 31.925781 20.46875 27.128906 19.25 21.484375 19.507812 M 10.371094 23.851562 C 6.222656 23.457031 3.421875 22.621094 3.421875 21.574219 C 3.421875 21.492188 3.445312 21.414062 3.488281 21.347656 C 4.457031 20.671875 7.445312 20.242188 10.429688 19.800781 C 10.429688 20.964844 10.40625 22.226562 10.371094 23.617188 Z M 18.832031 9.703125 C 18.988281 10.867188 18.648438 11.746094 18.042969 12.410156 C 16.960938 13.382812 15.261719 13.820312 13.882812 14.023438 C 13.90625 11.835938 13.871094 9.558594 13.679688 7.324219 C 16.34375 7.605469 18.636719 8.269531 18.832031 9.703125 M 18.042969 24.078125 C 17.394531 24.101562 16.734375 24.113281 16.050781 24.113281 C 15.25 24.113281 14.464844 24.101562 13.710938 24.066406 L 13.746094 23.128906 C 13.679688 20.761719 13.828125 17.78125 13.871094 14.601562 C 15.820312 14.824219 18.15625 15.367188 18.125 16.722656 Z M 28.371094 22.25 C 27.402344 23.007812 24.835938 23.59375 21.441406 23.886719 L 21.484375 19.847656 C 25.371094 20.34375 28.53125 20.90625 28.53125 21.832031 C 28.523438 21.984375 28.46875 22.132812 28.371094 22.25 "/>
<path style=" stroke:none;fill-rule:nonzero;fill:rgb(80.784314%,6.666667%,25.490196%);fill-opacity:1;" d="M 31.996094 22.046875 C 31.925781 20.46875 27.128906 19.25 21.484375 19.519531 L 21.53125 15.761719 C 21.519531 13.4375 18.304688 13.664062 17.222656 13.808594 C 18.488281 13.585938 22.71875 12.535156 22.453125 8.699219 C 22.285156 6.148438 19.058594 4.886719 13.722656 5.394531 C 13.636719 5.40625 13.550781 5.414062 13.460938 5.414062 C 13.238281 3.582031 12.824219 1.773438 12.230469 0.0234375 C 11.488281 2.300781 11.058594 4.097656 10.816406 5.765625 C 8.90625 6.070312 7.023438 6.507812 5.175781 7.074219 C 5.175781 7.074219 7.75 6.847656 10.679688 6.882812 C 10.351562 10.234375 10.691406 13.414062 10.679688 19.519531 C 5.074219 19.328125 0.207031 20.398438 0.261719 22.046875 C 0.308594 23.480469 4.628906 24.800781 10.679688 25.308594 L 10.941406 33.453125 L 11.363281 27.925781 C 11.375 27.238281 11.898438 27.304688 11.898438 27.890625 L 12.09375 35.167969 L 12.550781 29.246094 C 12.539062 28.445312 13.109375 28.488281 13.085938 29.199219 L 13.289062 36.78125 L 13.65625 25.476562 C 14.429688 25.5 15.230469 25.523438 16.039062 25.523438 C 16.800781 25.523438 17.554688 25.511719 18.292969 25.488281 L 18.660156 36.996094 L 18.96875 30.972656 C 18.96875 30.203125 19.492188 30.238281 19.492188 30.925781 L 19.8125 39.378906 L 20.128906 32.078125 C 20.152344 31.355469 20.734375 31.390625 20.746094 32.078125 L 21.007812 41.746094 L 21.394531 25.320312 L 21.394531 25.308594 C 27.550781 24.800781 31.996094 23.480469 31.996094 22.046875 M 19.09375 9.445312 C 19.527344 12.625 16.242188 13.675781 13.882812 14.023438 C 13.925781 11.691406 13.851562 9.355469 13.65625 7.03125 C 16.4375 7.300781 18.886719 7.953125 19.09375 9.445312 M 3.421875 21.574219 C 3.421875 20.601562 7.054688 20.082031 10.691406 19.542969 C 10.691406 20.703125 10.667969 21.96875 10.636719 23.355469 L 10.644531 23.886719 C 6.339844 23.492188 3.421875 22.644531 3.421875 21.574219 M 13.710938 24.066406 L 13.746094 23.128906 C 13.679688 20.683594 13.839844 17.601562 13.871094 14.316406 C 15.855469 14.519531 18.421875 15.050781 18.375 16.472656 L 18.304688 24.078125 C 17.578125 24.101562 16.824219 24.113281 16.050781 24.113281 C 15.25 24.101562 14.476562 24.089844 13.710938 24.066406 M 21.441406 23.886719 L 21.496094 19.554688 C 25.5 20.0625 28.792969 20.636719 28.792969 21.574219 C 28.792969 22.644531 25.785156 23.503906 21.441406 23.886719 "/>
</g>
</svg>
