<?xml version="1.0" encoding="UTF-8"?>
<svg xmlns="http://www.w3.org/2000/svg" xmlns:xlink="http://www.w3.org/1999/xlink" width="32px" height="32px" viewBox="0 0 32 24" version="1.1">
<g id="surface1">
<path style=" stroke:none;fill-rule:nonzero;fill:rgb(2.352941%,9.803922%,13.333333%);fill-opacity:1;" d="M 0.460938 10.382812 C 0.15625 10.65625 -0.0117188 11.046875 0 11.453125 L 0 19.355469 C -0.015625 19.765625 0.152344 20.160156 0.460938 20.4375 C 0.765625 20.714844 1.179688 20.847656 1.59375 20.796875 C 2.308594 20.734375 3.03125 20.679688 3.746094 20.632812 L 3.746094 19.136719 C 3.03125 19.175781 2.308594 19.214844 1.59375 19.257812 L 1.59375 11.550781 C 2.308594 11.597656 3.03125 11.632812 3.746094 11.671875 L 3.746094 10.179688 C 3.03125 10.128906 2.308594 10.074219 1.59375 10.015625 C 1.179688 9.960938 0.761719 10.09375 0.460938 10.382812 "/>
<path style=" stroke:none;fill-rule:nonzero;fill:rgb(2.352941%,9.803922%,13.333333%);fill-opacity:1;" d="M 5.671875 10.300781 C 5.140625 10.265625 4.605469 10.234375 4.074219 10.195312 L 4.074219 20.609375 C 5.238281 20.527344 6.40625 20.460938 7.570312 20.40625 L 7.570312 18.980469 C 6.9375 19 6.304688 19.023438 5.671875 19.050781 Z M 5.671875 10.300781 "/>
<path style=" stroke:none;fill-rule:nonzero;fill:rgb(2.352941%,9.803922%,13.333333%);fill-opacity:1;" d="M 7.886719 20.390625 C 8.429688 20.363281 8.972656 20.339844 9.519531 20.324219 L 9.519531 10.484375 L 7.886719 10.417969 Z M 7.886719 20.390625 "/>
<path style=" stroke:none;fill-rule:nonzero;fill:rgb(2.352941%,9.803922%,13.333333%);fill-opacity:1;" d="M 12.535156 10.566406 C 11.636719 10.550781 10.738281 10.523438 9.839844 10.496094 L 9.839844 20.3125 C 10.371094 20.296875 10.910156 20.28125 11.445312 20.265625 L 11.445312 16.101562 C 11.808594 16.101562 12.171875 16.101562 12.53125 16.09375 C 12.945312 16.105469 13.347656 15.960938 13.664062 15.695312 C 13.96875 15.460938 14.144531 15.097656 14.140625 14.714844 L 14.140625 11.96875 C 14.136719 11.589844 13.964844 11.230469 13.664062 10.996094 C 13.355469 10.71875 12.953125 10.566406 12.535156 10.566406 M 12.535156 14.714844 C 12.171875 14.714844 11.808594 14.714844 11.449219 14.710938 L 11.449219 11.9375 C 11.816406 11.941406 12.175781 11.945312 12.535156 11.953125 Z M 12.535156 14.714844 "/>
<path style=" stroke:none;fill-rule:nonzero;fill:rgb(2.352941%,9.803922%,13.333333%);fill-opacity:1;" d="M 26.707031 15.710938 C 27.015625 15.449219 27.1875 15.066406 27.183594 14.667969 L 27.183594 11.71875 C 27.191406 11.324219 27.015625 10.953125 26.707031 10.710938 C 26.398438 10.4375 25.988281 10.304688 25.578125 10.335938 C 24.679688 10.386719 23.785156 10.429688 22.886719 10.464844 L 22.886719 20.335938 C 23.417969 20.359375 23.957031 20.378906 24.492188 20.40625 L 24.492188 16.160156 C 24.933594 17.578125 25.378906 19.015625 25.824219 20.476562 C 26.355469 20.507812 26.886719 20.539062 27.425781 20.578125 C 26.960938 19.042969 26.496094 17.546875 26.027344 16.066406 C 26.28125 16.007812 26.515625 15.886719 26.707031 15.710938 M 24.492188 11.828125 C 24.851562 11.816406 25.21875 11.800781 25.578125 11.789062 L 25.578125 14.683594 C 25.21875 14.6875 24.851562 14.6875 24.492188 14.6875 Z M 24.492188 11.828125 "/>
<path style=" stroke:none;fill-rule:nonzero;fill:rgb(2.352941%,9.803922%,13.333333%);fill-opacity:1;" d="M 17.164062 10.601562 C 16.265625 10.605469 15.367188 10.605469 14.46875 10.601562 L 14.46875 20.214844 C 15.007812 20.210938 15.539062 20.210938 16.078125 20.210938 L 16.078125 16.09375 L 17.171875 16.09375 C 17.585938 16.105469 17.988281 15.964844 18.304688 15.699219 C 18.605469 15.464844 18.78125 15.101562 18.78125 14.722656 L 18.78125 11.964844 C 18.78125 11.585938 18.605469 11.230469 18.304688 11 C 17.988281 10.726562 17.582031 10.585938 17.164062 10.601562 M 17.164062 14.714844 L 16.070312 14.714844 L 16.070312 11.972656 C 16.4375 11.972656 16.800781 11.972656 17.164062 11.96875 Z M 17.164062 14.714844 "/>
<path style=" stroke:none;fill-rule:nonzero;fill:rgb(2.352941%,9.803922%,13.333333%);fill-opacity:1;" d="M 19.097656 20.230469 C 20.265625 20.253906 21.433594 20.285156 22.605469 20.332031 L 22.605469 18.925781 C 21.972656 18.90625 21.339844 18.890625 20.707031 18.878906 L 20.707031 16.101562 C 21.066406 16.101562 21.714844 16.105469 22.082031 16.105469 L 22.082031 14.703125 C 21.722656 14.703125 21.070312 14.710938 20.707031 14.710938 L 20.707031 11.929688 C 21.339844 11.917969 21.972656 11.902344 22.605469 11.886719 L 22.605469 10.480469 C 21.4375 10.523438 20.269531 10.558594 19.097656 10.578125 L 19.097656 20.230469 "/>
<path style=" stroke:none;fill-rule:nonzero;fill:rgb(2.352941%,9.803922%,13.333333%);fill-opacity:1;" d="M 31.964844 13.035156 L 31.964844 11.453125 C 31.972656 11.046875 31.800781 10.65625 31.496094 10.382812 C 31.191406 10.109375 30.785156 9.972656 30.375 10.015625 C 29.925781 10.054688 29.472656 10.085938 29.023438 10.117188 C 28.589844 10.144531 28.183594 10.332031 27.886719 10.644531 C 27.589844 10.921875 27.425781 11.308594 27.425781 11.710938 L 27.425781 14.667969 C 27.421875 15.066406 27.589844 15.449219 27.886719 15.71875 C 28.191406 16.007812 28.601562 16.164062 29.023438 16.160156 L 30.375 16.175781 L 30.375 19.257812 C 29.925781 19.230469 29.472656 19.207031 29.023438 19.179688 L 29.023438 17.671875 L 27.425781 17.621094 L 27.425781 19.097656 C 27.425781 19.503906 27.589844 19.894531 27.886719 20.175781 C 28.1875 20.480469 28.59375 20.660156 29.023438 20.6875 C 29.472656 20.71875 29.925781 20.757812 30.375 20.789062 C 30.78125 20.839844 31.191406 20.707031 31.496094 20.433594 C 31.808594 20.160156 31.980469 19.765625 31.964844 19.351562 L 31.964844 16.1875 C 31.976562 15.769531 31.804688 15.363281 31.496094 15.078125 C 31.203125 14.773438 30.796875 14.609375 30.375 14.621094 C 29.925781 14.628906 29.472656 14.632812 29.023438 14.640625 L 29.023438 11.617188 C 29.472656 11.597656 29.925781 11.570312 30.375 11.542969 L 30.375 13.085938 C 30.90625 13.074219 31.4375 13.050781 31.964844 13.035156 "/>
<path style=" stroke:none;fill-rule:nonzero;fill:rgb(74.509804%,75.294118%,76.078431%);fill-opacity:1;" d="M 1.6875 10.183594 C 2.320312 10.238281 2.980469 10.289062 3.644531 10.335938 L 3.644531 10.273438 C 2.964844 10.222656 2.269531 10.167969 1.59375 10.113281 C 1.542969 10.109375 1.492188 10.105469 1.441406 10.109375 C 1.105469 10.101562 0.78125 10.222656 0.539062 10.453125 C 0.253906 10.707031 0.101562 11.070312 0.109375 11.449219 L 0.109375 19.351562 C 0.101562 19.65625 0.199219 19.957031 0.386719 20.199219 C 0.246094 19.972656 0.175781 19.710938 0.183594 19.445312 L 0.183594 11.546875 C 0.171875 11.164062 0.328125 10.792969 0.617188 10.535156 C 0.863281 10.300781 1.195312 10.175781 1.539062 10.183594 C 1.585938 10.183594 1.636719 10.183594 1.6875 10.183594 "/>
<path style=" stroke:none;fill-rule:nonzero;fill:rgb(74.509804%,75.294118%,76.078431%);fill-opacity:1;" d="M 5.566406 10.464844 L 5.566406 10.398438 C 5.105469 10.371094 4.640625 10.34375 4.179688 10.308594 L 4.179688 20.5 L 4.25 20.496094 L 4.25 10.382812 L 4.261719 10.382812 C 4.683594 10.410156 5.121094 10.4375 5.566406 10.464844 "/>
<path style=" stroke:none;fill-rule:nonzero;fill:rgb(74.509804%,75.294118%,76.078431%);fill-opacity:1;" d="M 9.414062 10.648438 L 9.414062 10.585938 C 8.945312 10.566406 8.46875 10.546875 7.992188 10.523438 L 7.992188 20.28125 L 8.0625 20.277344 L 8.0625 10.59375 L 8.074219 10.59375 C 8.511719 10.617188 8.960938 10.632812 9.414062 10.648438 "/>
<path style=" stroke:none;fill-rule:nonzero;fill:rgb(74.509804%,75.294118%,76.078431%);fill-opacity:1;" d="M 12.632812 10.742188 C 12.9375 10.742188 13.234375 10.828125 13.492188 10.988281 C 13.214844 10.785156 12.882812 10.675781 12.535156 10.671875 C 11.675781 10.65625 10.804688 10.632812 9.949219 10.601562 L 9.949219 20.203125 L 10.023438 20.203125 L 10.023438 10.675781 L 10.035156 10.675781 C 10.894531 10.703125 11.769531 10.726562 12.632812 10.742188 "/>
<path style=" stroke:none;fill-rule:nonzero;fill:rgb(74.509804%,75.294118%,76.078431%);fill-opacity:1;" d="M 25.785156 10.511719 C 26.054688 10.507812 26.320312 10.578125 26.550781 10.722656 C 26.304688 10.535156 26 10.4375 25.691406 10.445312 C 25.652344 10.445312 25.617188 10.449219 25.585938 10.453125 C 24.734375 10.5 23.863281 10.539062 22.992188 10.574219 L 22.992188 20.242188 L 23.066406 20.25 L 23.066406 10.640625 L 23.074219 10.640625 C 23.953125 10.605469 24.828125 10.5625 25.679688 10.511719 L 25.785156 10.511719 "/>
<path style=" stroke:none;fill-rule:nonzero;fill:rgb(74.509804%,75.294118%,76.078431%);fill-opacity:1;" d="M 16.082031 10.78125 C 16.476562 10.78125 16.875 10.78125 17.265625 10.777344 L 17.28125 10.777344 C 17.585938 10.769531 17.886719 10.847656 18.148438 11.003906 C 17.871094 10.800781 17.53125 10.695312 17.1875 10.703125 L 17.171875 10.703125 C 16.777344 10.703125 16.378906 10.710938 15.988281 10.710938 C 15.527344 10.710938 15.050781 10.710938 14.578125 10.703125 L 14.578125 20.105469 L 14.652344 20.105469 L 14.652344 10.777344 L 14.664062 10.777344 C 15.132812 10.777344 15.609375 10.78125 16.082031 10.78125 "/>
<path style=" stroke:none;fill-rule:nonzero;fill:rgb(74.509804%,75.294118%,76.078431%);fill-opacity:1;" d="M 22.5 10.589844 C 21.410156 10.628906 20.300781 10.660156 19.207031 10.683594 L 19.207031 20.132812 L 19.28125 20.132812 L 19.28125 10.75 L 19.289062 10.75 C 20.351562 10.726562 21.433594 10.699219 22.503906 10.660156 L 22.503906 10.589844 Z M 22.5 10.589844 "/>
<path style=" stroke:none;fill-rule:nonzero;fill:rgb(74.509804%,75.294118%,76.078431%);fill-opacity:1;" d="M 30.472656 10.183594 C 30.519531 10.179688 30.570312 10.179688 30.617188 10.179688 C 30.863281 10.175781 31.105469 10.238281 31.316406 10.363281 C 31.089844 10.191406 30.808594 10.101562 30.523438 10.109375 C 30.476562 10.105469 30.429688 10.109375 30.382812 10.113281 C 29.933594 10.152344 29.484375 10.183594 29.035156 10.21875 C 28.628906 10.242188 28.25 10.417969 27.96875 10.710938 C 27.691406 10.96875 27.535156 11.328125 27.539062 11.707031 L 27.539062 14.660156 C 27.53125 14.953125 27.628906 15.242188 27.816406 15.472656 C 27.675781 15.257812 27.605469 15.007812 27.609375 14.753906 L 27.609375 11.800781 C 27.609375 11.417969 27.765625 11.050781 28.046875 10.785156 C 28.332031 10.492188 28.71875 10.3125 29.128906 10.289062 C 29.574219 10.261719 30.023438 10.222656 30.472656 10.183594 "/>
<path style=" stroke:none;fill-rule:nonzero;fill:rgb(11.372549%,25.882353%,54.117647%);fill-opacity:1;" d="M 0 22.507812 C 10.613281 21.207031 21.351562 21.207031 31.964844 22.507812 L 31.964844 21.960938 C 21.347656 20.753906 10.621094 20.753906 0 21.960938 Z M 0 22.507812 "/>
<path style=" stroke:none;fill-rule:nonzero;fill:rgb(78.431373%,6.27451%,18.039216%);fill-opacity:1;" d="M 3.855469 23.964844 C 11.808594 21.917969 20.160156 21.917969 28.109375 23.964844 L 28.109375 23.449219 C 20.152344 21.457031 11.816406 21.457031 3.855469 23.449219 C 3.855469 23.621094 3.855469 23.792969 3.855469 23.964844 "/>
<path style=" stroke:none;fill-rule:nonzero;fill:rgb(11.372549%,25.882353%,54.117647%);fill-opacity:1;" d="M 12.808594 9.050781 C 8.527344 8.949219 4.25 8.636719 0 8.109375 L 0 8.65625 C 4.515625 9.171875 9.066406 9.46875 13.625 9.542969 C 13.339844 9.402344 13.066406 9.238281 12.808594 9.050781 "/>
<path style=" stroke:none;fill-rule:nonzero;fill:rgb(11.372549%,25.882353%,54.117647%);fill-opacity:1;" d="M 19.15625 9.050781 C 18.902344 9.238281 18.628906 9.402344 18.339844 9.542969 C 22.898438 9.46875 27.449219 9.171875 31.964844 8.65625 L 31.964844 8.109375 C 27.714844 8.636719 23.441406 8.949219 19.15625 9.050781 "/>
<path style=" stroke:none;fill-rule:nonzero;fill:rgb(78.431373%,6.27451%,18.039216%);fill-opacity:1;" d="M 11.742188 8 C 9.082031 7.769531 6.445312 7.316406 3.855469 6.65625 L 3.855469 7.167969 C 6.59375 7.847656 9.378906 8.300781 12.191406 8.515625 C 12.03125 8.351562 11.882812 8.179688 11.742188 8 "/>
<path style=" stroke:none;fill-rule:nonzero;fill:rgb(78.431373%,6.27451%,18.039216%);fill-opacity:1;" d="M 20.222656 8 C 20.082031 8.183594 19.929688 8.359375 19.769531 8.519531 C 22.582031 8.304688 25.367188 7.855469 28.105469 7.175781 L 28.105469 6.660156 C 25.519531 7.320312 22.882812 7.769531 20.222656 8 "/>
<path style=" stroke:none;fill-rule:nonzero;fill:rgb(100%,100%,100%);fill-opacity:1;" d="M 11.054688 4.859375 C 11.054688 2.175781 13.261719 0 15.984375 0 C 18.703125 0 20.910156 2.175781 20.910156 4.859375 C 20.910156 7.542969 18.703125 9.71875 15.984375 9.71875 C 13.261719 9.71875 11.054688 7.542969 11.054688 4.859375 "/>
<path style=" stroke:none;fill-rule:nonzero;fill:rgb(2.352941%,9.803922%,13.333333%);fill-opacity:1;" d="M 15.984375 0 C 13.261719 0 11.054688 2.175781 11.054688 4.859375 C 11.054688 7.542969 13.261719 9.71875 15.984375 9.71875 C 18.703125 9.71875 20.910156 7.542969 20.910156 4.859375 C 20.910156 2.175781 18.703125 0 15.984375 0 M 19.546875 2.160156 C 20.105469 2.875 20.429688 3.742188 20.472656 4.644531 L 18.613281 4.644531 C 18.660156 3.742188 18.984375 2.875 19.546875 2.160156 M 12.425781 2.160156 C 12.988281 2.875 13.308594 3.742188 13.351562 4.644531 L 11.492188 4.644531 C 11.535156 3.742188 11.863281 2.875 12.425781 2.160156 M 12.425781 7.558594 C 11.863281 6.84375 11.542969 5.976562 11.5 5.074219 L 13.359375 5.074219 C 13.308594 5.976562 12.984375 6.839844 12.425781 7.558594 M 16.199219 9.285156 L 16.199219 8.015625 L 15.765625 8.015625 L 15.765625 9.285156 C 14.601562 9.234375 13.503906 8.734375 12.707031 7.890625 C 13.367188 7.089844 13.742188 6.101562 13.785156 5.074219 L 13.785156 4.644531 C 13.742188 3.617188 13.367188 2.628906 12.707031 1.828125 C 13.503906 0.984375 14.601562 0.484375 15.765625 0.433594 L 15.765625 1.691406 L 16.199219 1.691406 L 16.199219 0.433594 C 17.363281 0.484375 18.464844 0.984375 19.257812 1.828125 C 18.601562 2.628906 18.222656 3.617188 18.179688 4.644531 L 18.179688 5.074219 C 18.222656 6.101562 18.601562 7.089844 19.257812 7.890625 C 18.464844 8.734375 17.363281 9.234375 16.199219 9.285156 M 19.546875 7.558594 C 18.984375 6.84375 18.660156 5.976562 18.621094 5.074219 L 20.476562 5.074219 C 20.433594 5.976562 20.109375 6.84375 19.546875 7.558594 "/>
<path style=" stroke:none;fill-rule:nonzero;fill:rgb(78.431373%,6.27451%,18.039216%);fill-opacity:1;" d="M 14.890625 2.824219 L 14.890625 6.878906 L 17.082031 6.878906 L 17.082031 6.320312 L 15.472656 6.320312 L 15.472656 2.824219 Z M 14.890625 2.824219 "/>
<path style=" stroke:none;fill-rule:nonzero;fill:rgb(11.372549%,25.882353%,54.117647%);fill-opacity:1;" d="M 17.832031 4.179688 L 17.832031 2.511719 C 17.832031 2.261719 17.730469 2.160156 17.476562 2.160156 L 14.484375 2.160156 C 14.234375 2.160156 14.136719 2.265625 14.136719 2.511719 L 14.136719 7.207031 C 14.136719 7.460938 14.234375 7.558594 14.484375 7.558594 L 17.476562 7.558594 C 17.726562 7.558594 17.832031 7.453125 17.832031 7.207031 L 17.832031 5.53125 L 17.238281 5.53125 L 17.238281 7.042969 L 14.730469 7.042969 L 14.730469 2.671875 L 17.238281 2.671875 L 17.238281 4.179688 Z M 17.832031 4.179688 "/>
<path style=" stroke:none;fill-rule:nonzero;fill:rgb(78.431373%,6.27451%,18.039216%);fill-opacity:1;" d="M 17.082031 6.164062 L 17.082031 2.824219 L 15.65625 2.824219 L 15.640625 6.164062 L 16.210938 6.164062 L 16.222656 5.121094 L 16.511719 5.121094 L 16.503906 6.164062 Z M 16.511719 4.570312 L 16.222656 4.570312 L 16.222656 3.382812 L 16.511719 3.382812 Z M 16.511719 4.570312 "/>
</g>
</svg>
