<?xml version="1.0" encoding="UTF-8"?>
<svg xmlns="http://www.w3.org/2000/svg" xmlns:xlink="http://www.w3.org/1999/xlink" width="32px" height="32px" viewBox="0 0 32 32" version="1.1">
<g id="surface1">
<path style=" stroke:none;fill-rule:nonzero;fill:rgb(61.960784%,63.529412%,63.529412%);fill-opacity:1;" d="M 31.917969 16.027344 C 31.917969 7.242188 24.800781 0.121094 16.019531 0.121094 C 7.234375 0.121094 0.117188 7.242188 0.117188 16.027344 C 0.117188 24.8125 7.234375 31.933594 16.019531 31.933594 C 24.800781 31.933594 31.917969 24.8125 31.917969 16.027344 Z M 31.917969 16.027344 "/>
<path style=" stroke:none;fill-rule:nonzero;fill:rgb(4.705882%,13.72549%,25.098039%);fill-opacity:1;" d="M 31.4375 16.003906 C 31.4375 7.53125 24.570312 0.660156 16.097656 0.660156 C 7.625 0.660156 0.757812 7.53125 0.757812 16.003906 C 0.757812 24.480469 7.625 31.347656 16.097656 31.347656 C 24.570312 31.347656 31.4375 24.480469 31.4375 16.003906 Z M 31.4375 16.003906 "/>
<path style=" stroke:none;fill-rule:nonzero;fill:rgb(13.72549%,38.039216%,57.254902%);fill-opacity:1;" d="M 16.136719 5.859375 C 15.359375 5.855469 14.589844 5.941406 13.84375 6.109375 C 13.777344 6.332031 13.683594 6.761719 13.839844 7.15625 C 13.933594 7.390625 14.113281 7.582031 14.371094 7.734375 C 15.074219 7.445312 15.835938 7.152344 16.574219 6.90625 C 17.503906 6.570312 18.328125 6.382812 18.96875 6.28125 C 18.953125 6.277344 18.9375 6.273438 18.917969 6.265625 C 18.460938 6.132812 18.003906 6.035156 17.546875 5.96875 C 17.074219 5.898438 16.605469 5.863281 16.136719 5.859375 Z M 13.136719 6.296875 C 11.683594 6.738281 10.34375 7.496094 9.222656 8.519531 C 9.269531 8.519531 9.324219 8.523438 9.375 8.523438 C 10.339844 8.46875 11.710938 8.507812 12.492188 8.539062 C 12.824219 8.390625 13.226562 8.214844 13.671875 8.023438 C 13.476562 7.84375 13.328125 7.632812 13.234375 7.386719 C 13.082031 7 13.085938 6.609375 13.136719 6.296875 Z M 20.363281 6.808594 L 20.363281 6.820312 C 20.335938 6.820312 18.199219 6.769531 15.554688 8.054688 C 15.507812 8.082031 15.460938 8.109375 15.417969 8.140625 C 16.246094 8.382812 16.929688 8.433594 17.421875 8.464844 C 17.535156 8.472656 17.640625 8.480469 17.730469 8.488281 L 17.800781 8.496094 C 18.121094 8.523438 18.566406 8.574219 19.09375 8.667969 C 19.484375 8.1875 19.957031 7.890625 20.273438 7.820312 C 20.648438 7.960938 20.84375 8.179688 20.976562 8.492188 C 21.496094 8.710938 21.847656 9.09375 22.074219 9.550781 C 23.277344 10.074219 24.484375 10.851562 25.410156 11.996094 C 24.441406 9.757812 22.679688 7.882812 20.363281 6.808594 Z M 14.855469 8.636719 C 14.636719 8.878906 14.457031 9.132812 14.320312 9.347656 C 14.59375 9.632812 15.121094 10.183594 15.378906 10.476562 C 15.828125 10.746094 16.277344 11.039062 16.726562 11.351562 C 17.4375 10.550781 18.066406 9.902344 18.691406 9.25 C 18.386719 9.207031 18.074219 9.171875 17.746094 9.144531 L 17.667969 9.136719 C 17.582031 9.128906 17.484375 9.121094 17.375 9.113281 C 16.816406 9.074219 15.925781 9.007812 14.855469 8.636719 Z M 9.199219 9.175781 C 8.9375 9.175781 8.714844 9.183594 8.546875 9.195312 C 7.703125 10.121094 7.023438 11.21875 6.5625 12.453125 C 7.597656 11.378906 9.152344 10.238281 10.878906 10.578125 C 11.011719 10.335938 11.152344 10.09375 11.277344 9.871094 C 10.738281 9.519531 10.402344 9.261719 9.472656 9.179688 C 9.378906 9.175781 9.285156 9.175781 9.199219 9.175781 Z M 22.351562 10.351562 C 22.660156 11.734375 22.308594 13.304688 22.308594 13.304688 C 22.308594 13.304688 23.0625 13.738281 23.242188 14.566406 C 23.242188 14.566406 23.34375 14.609375 23.421875 14.734375 C 23.632812 14.988281 23.898438 15.585938 23.46875 16.753906 C 23.46875 16.753906 23.214844 16.207031 22.671875 16.792969 C 22.625 16.859375 22.582031 16.921875 22.539062 16.988281 C 23.566406 18.402344 24.351562 19.882812 24.75 21.328125 C 25.210938 20.574219 25.578125 19.753906 25.835938 18.867188 C 26.195312 17.636719 26.308594 16.390625 26.207031 15.183594 C 25.945312 13.976562 25.09375 11.757812 22.351562 10.351562 Z M 12.910156 10.589844 C 12.632812 10.722656 12.328125 10.875 12.035156 11.046875 C 12.859375 11.589844 13.476562 12.507812 13.945312 13.585938 C 14.601562 13.355469 15.054688 13.351562 15.054688 13.351562 C 15.496094 12.789062 15.90625 12.296875 16.289062 11.851562 C 15.847656 11.542969 15.402344 11.253906 14.957031 10.988281 C 14.472656 10.8125 13.308594 10.644531 12.910156 10.589844 Z M 10.175781 11.167969 C 8.367188 11.226562 6.765625 13.117188 6.121094 13.992188 C 5.667969 16.1875 5.96875 18.386719 6.859375 20.304688 C 7.339844 19.855469 7.800781 19.394531 8.238281 18.929688 C 8.203125 17.472656 8.398438 16.066406 8.824219 14.722656 C 9.183594 13.597656 9.664062 12.644531 10.175781 11.851562 C 10.253906 11.699219 10.386719 11.457031 10.539062 11.179688 C 10.417969 11.167969 10.296875 11.164062 10.175781 11.167969 Z M 11.421875 11.4375 C 11.265625 11.550781 11.125 11.664062 11.007812 11.78125 C 9.824219 13.445312 8.984375 15.617188 8.902344 18.214844 C 10.164062 16.820312 11.207031 15.53125 11.914062 14.851562 C 12.40625 14.378906 12.902344 14.054688 13.351562 13.832031 C 12.882812 12.746094 12.261719 11.863281 11.421875 11.4375 Z M 22.144531 17.582031 C 21.480469 18.660156 21.15625 19.671875 21.117188 21.449219 C 21.097656 22.421875 21.578125 23.171875 21.933594 24.332031 C 22.816406 23.710938 23.605469 22.945312 24.257812 22.0625 C 23.964844 20.605469 23.199219 19.070312 22.144531 17.582031 Z M 22.144531 17.582031 "/>
<path style=" stroke:none;fill-rule:nonzero;fill:rgb(47.058824%,74.509804%,12.54902%);fill-opacity:1;" d="M 20.246094 8.261719 C 20.050781 8.257812 19.800781 8.433594 19.492188 8.992188 C 20.148438 8.289062 20.726562 8.742188 20.726562 8.742188 C 20.65625 8.574219 20.496094 8.269531 20.246094 8.261719 Z M 14.09375 8.402344 L 12.683594 9.109375 C 12.683594 9.109375 11.675781 9.027344 11.144531 9.011719 C 11.628906 9.324219 12.046875 9.679688 12.046875 9.679688 L 11.421875 10.714844 L 12.753906 9.992188 C 12.753906 9.992188 13.59375 10.132812 14.359375 10.289062 C 13.921875 9.789062 13.390625 9.421875 13.390625 9.421875 Z M 14.660156 14.492188 C 13.890625 14.875 12.738281 16.027344 12.738281 16.027344 C 13.292969 15.648438 14.449219 15.476562 14.449219 15.476562 C 14.476562 15 14.660156 14.492188 14.660156 14.492188 Z M 14.660156 14.492188 "/>
<path style=" stroke:none;fill-rule:nonzero;fill:rgb(61.960784%,63.529412%,63.529412%);fill-opacity:1;" d="M 16.0625 4.574219 C 10.378906 4.574219 5.507812 8.824219 4.730469 14.464844 C 4.410156 16.804688 4.804688 19.132812 5.855469 21.195312 C 5.988281 21.085938 6.117188 20.976562 6.246094 20.863281 C 5.285156 18.917969 4.921875 16.730469 5.226562 14.53125 C 5.96875 9.140625 10.628906 5.074219 16.0625 5.074219 C 16.566406 5.074219 17.074219 5.109375 17.574219 5.175781 C 20.464844 5.574219 23.035156 7.082031 24.804688 9.414062 C 26.570312 11.75 27.328125 14.628906 26.925781 17.523438 C 26.488281 20.714844 24.675781 23.445312 22.140625 25.136719 C 22.175781 25.308594 22.203125 25.488281 22.230469 25.675781 C 24.976562 23.914062 26.953125 21.007812 27.421875 17.589844 C 27.839844 14.566406 27.050781 11.554688 25.199219 9.113281 C 23.351562 6.671875 20.667969 5.097656 17.640625 4.683594 C 17.117188 4.609375 16.585938 4.574219 16.0625 4.574219 Z M 21.066406 9.320312 C 21.089844 9.390625 21.0625 9.644531 21.042969 9.839844 C 21.042969 9.839844 21.042969 9.835938 21.039062 9.835938 C 20.582031 9.917969 19.570312 9.804688 19.242188 9.632812 C 18 10.964844 16.644531 12.820312 15.625 14.523438 C 15.183594 15.425781 14.75 16.484375 14.640625 17.339844 C 14.640625 17.339844 14.5 16.953125 14.46875 16.433594 C 13.902344 16.652344 11.984375 17.597656 11.574219 20.488281 C 11.574219 20.488281 12.792969 19.230469 14.140625 18.738281 C 14.140625 18.738281 13.289062 20.972656 14.917969 24.9375 C 14.917969 24.9375 15.578125 22.507812 16.957031 21.894531 C 17.792969 26.042969 20.242188 26.109375 20.957031 28.933594 C 20.957031 28.933594 21.703125 27.472656 20.804688 24.984375 C 20.804688 24.984375 21.113281 25.074219 21.375 25.382812 C 21.375 25.382812 21.335938 24.65625 20.65625 23.085938 C 20.214844 22.246094 20.074219 21.113281 20.074219 21.113281 C 19.675781 21.476562 19.574219 22.691406 19.574219 22.691406 C 18.359375 19.394531 21.808594 16.125 22.441406 15.640625 C 22.746094 15.40625 22.9375 15.402344 23.050781 15.460938 C 23.171875 15.214844 23.160156 15.054688 23.015625 14.953125 C 23.015625 14.953125 22.957031 14.914062 22.945312 14.90625 C 22.578125 14.710938 21.921875 15.28125 21.492188 15.515625 C 21.0625 15.75 20.441406 16.253906 20.136719 15.5625 C 19.832031 14.871094 20.53125 13.785156 20.773438 13.105469 C 21.308594 11.597656 21.328125 10.710938 21.214844 10.234375 C 21.710938 10.792969 21.867188 11.863281 21.867188 11.863281 C 21.867188 11.863281 22.050781 9.851562 21.066406 9.320312 Z M 10.339844 20.8125 C 10.339844 20.8125 8.039062 22.496094 5.683594 22.632812 C 5.683594 22.632812 8.011719 23.179688 8.996094 22.777344 C 8.902344 22.71875 8.796875 22.628906 8.691406 22.496094 C 8.691406 22.496094 9.644531 21.882812 10.332031 20.824219 C 10.335938 20.820312 10.335938 20.816406 10.339844 20.8125 Z M 10.339844 20.8125 "/>
<path style=" stroke:none;fill-rule:nonzero;fill:rgb(100%,100%,100%);fill-opacity:1;" d="M 17.277344 1.730469 L 17.222656 2.152344 L 17.761719 2.226562 L 17.558594 3.730469 L 17.992188 3.789062 L 18.191406 2.28125 L 18.730469 2.355469 L 18.785156 1.933594 Z M 13.546875 1.902344 L 13.484375 1.914062 L 12.941406 4 L 13.417969 3.917969 L 13.6875 2.894531 L 14.28125 3.769531 L 14.757812 3.6875 Z M 20.019531 2.253906 L 19.464844 4.117188 L 19.882812 4.242188 L 20.4375 2.378906 Z M 11.585938 2.355469 L 10.179688 2.925781 L 10.339844 3.320312 L 10.839844 3.117188 L 11.410156 4.527344 L 11.816406 4.363281 L 11.246094 2.953125 L 11.746094 2.75 Z M 21.90625 2.886719 L 20.996094 4.628906 L 21.382812 4.828125 L 21.800781 4.027344 L 22 4.769531 L 22.050781 4.796875 L 22.773438 4.535156 L 22.351562 5.335938 L 22.742188 5.539062 L 23.652344 3.796875 L 23.589844 3.765625 L 22.3125 4.234375 L 21.964844 2.925781 L 21.964844 2.917969 Z M 8.835938 3.789062 C 8.285156 3.789062 7.835938 4.234375 7.835938 4.789062 C 7.835938 5.339844 8.285156 5.785156 8.835938 5.785156 C 9.386719 5.785156 9.835938 5.339844 9.835938 4.789062 C 9.835938 4.234375 9.386719 3.789062 8.835938 3.789062 Z M 8.835938 4.242188 C 9.136719 4.242188 9.378906 4.484375 9.378906 4.789062 C 9.378906 5.089844 9.136719 5.332031 8.835938 5.332031 C 8.535156 5.332031 8.289062 5.089844 8.289062 4.789062 C 8.289062 4.484375 8.535156 4.242188 8.835938 4.242188 Z M 24.953125 4.761719 L 24.667969 5.089844 L 24.472656 5.3125 L 24.457031 5.332031 L 24.1875 5.640625 L 23.957031 5.90625 L 23.671875 6.234375 L 24 6.519531 L 24.285156 6.765625 C 24.410156 6.875 24.554688 6.933594 24.707031 6.9375 C 24.886719 6.945312 25.058594 6.871094 25.179688 6.730469 C 25.28125 6.613281 25.332031 6.460938 25.320312 6.304688 C 25.429688 6.277344 25.53125 6.214844 25.613281 6.121094 C 25.734375 5.980469 25.785156 5.808594 25.753906 5.636719 C 25.726562 5.496094 25.648438 5.367188 25.523438 5.257812 L 25.28125 5.046875 Z M 24.996094 5.375 L 25.238281 5.585938 C 25.339844 5.671875 25.355469 5.757812 25.285156 5.835938 C 25.199219 5.9375 25.089844 5.878906 25.011719 5.8125 L 24.785156 5.617188 Z M 6.507812 5.609375 L 6.46875 5.613281 C 6.253906 5.617188 6.046875 5.726562 5.859375 5.929688 C 5.742188 6.058594 5.671875 6.210938 5.65625 6.355469 C 5.640625 6.53125 5.703125 6.6875 5.839844 6.8125 C 6.054688 7.007812 6.300781 7.019531 6.601562 6.851562 L 6.8125 6.738281 C 6.921875 6.675781 6.992188 6.652344 7.046875 6.707031 C 7.117188 6.769531 7.101562 6.859375 7 6.972656 C 7 6.972656 6.996094 6.976562 6.996094 6.976562 C 6.863281 7.121094 6.710938 7.132812 6.605469 7.128906 L 6.570312 7.128906 L 6.523438 7.613281 L 6.5625 7.613281 C 6.722656 7.621094 7.039062 7.589844 7.339844 7.261719 C 7.34375 7.257812 7.347656 7.253906 7.347656 7.25 C 7.5 7.082031 7.582031 6.914062 7.589844 6.75 C 7.601562 6.582031 7.53125 6.429688 7.382812 6.296875 C 7.167969 6.097656 6.933594 6.09375 6.597656 6.28125 L 6.363281 6.414062 C 6.277344 6.460938 6.226562 6.464844 6.179688 6.421875 C 6.121094 6.367188 6.132812 6.289062 6.207031 6.207031 C 6.289062 6.113281 6.382812 6.066406 6.5 6.058594 L 6.539062 6.054688 Z M 24.519531 5.925781 L 24.785156 6.160156 C 24.894531 6.253906 24.921875 6.367188 24.851562 6.449219 C 24.78125 6.527344 24.667969 6.523438 24.570312 6.4375 L 24.285156 6.191406 Z M 27.039062 6.777344 L 25.515625 7.984375 L 26.335938 9.023438 L 26.675781 8.753906 L 26.125 8.058594 L 26.382812 7.855469 L 26.855469 8.453125 L 27.195312 8.183594 L 26.722656 7.585938 L 26.972656 7.386719 L 27.523438 8.082031 L 27.859375 7.816406 Z M 4.550781 7.433594 L 3.816406 8.53125 L 5.433594 9.609375 L 6.167969 8.511719 L 5.808594 8.269531 L 5.316406 9.007812 L 5.046875 8.828125 L 5.46875 8.191406 L 5.105469 7.949219 L 4.683594 8.585938 L 4.417969 8.40625 L 4.910156 7.671875 Z M 28.640625 9.082031 L 26.898438 9.941406 L 27.089844 10.335938 L 27.898438 9.9375 L 27.34375 10.855469 L 27.574219 11.320312 C 27.574219 11.320312 27.972656 10.648438 28.003906 10.605469 C 28.167969 10.78125 28.441406 10.804688 28.6875 10.683594 C 29.050781 10.503906 29.164062 10.144531 28.960938 9.734375 Z M 28.449219 9.664062 L 28.574219 9.914062 C 28.660156 10.09375 28.621094 10.21875 28.460938 10.296875 C 28.300781 10.375 28.175781 10.332031 28.085938 10.15625 L 27.964844 9.90625 Z M 3.050781 9.941406 L 2.882812 10.351562 L 3.824219 10.734375 L 2.453125 11.359375 L 2.425781 11.425781 L 4.242188 12.167969 L 4.40625 11.765625 L 3.460938 11.378906 L 4.839844 10.75 L 4.863281 10.683594 Z M 29.734375 11.46875 L 27.996094 12.625 L 28.011719 12.691406 L 29.183594 12.960938 L 28.261719 13.734375 L 28.28125 13.800781 L 30.355469 14.035156 L 30.246094 13.589844 L 29.246094 13.472656 L 30.070312 12.78125 L 30.054688 12.71875 L 29.007812 12.472656 L 29.84375 11.917969 Z M 1.996094 13.054688 L 1.929688 13.488281 L 2.929688 13.644531 L 1.742188 14.566406 L 1.730469 14.640625 L 3.667969 14.941406 L 3.734375 14.511719 L 2.726562 14.355469 L 3.921875 13.425781 L 3.933594 13.355469 Z M 22.375 13.957031 C 22.46875 14.105469 22.472656 14.308594 22.460938 14.4375 C 22.589844 14.40625 22.6875 14.402344 22.757812 14.40625 C 22.738281 14.347656 22.695312 14.261719 22.625 14.171875 C 22.523438 14.046875 22.375 13.957031 22.375 13.957031 Z M 21.359375 14.152344 C 21.464844 14.46875 21.445312 14.789062 21.417969 14.964844 C 21.566406 14.863281 21.703125 14.777344 21.828125 14.707031 C 21.804688 14.65625 21.769531 14.578125 21.71875 14.484375 C 21.617188 14.304688 21.359375 14.152344 21.359375 14.152344 Z M 29.457031 15.101562 C 28.90625 15.101562 28.457031 15.550781 28.457031 16.101562 C 28.457031 16.652344 28.90625 17.101562 29.457031 17.101562 C 30.007812 17.101562 30.457031 16.652344 30.457031 16.101562 C 30.457031 15.550781 30.007812 15.101562 29.457031 15.101562 Z M 29.457031 15.554688 C 29.757812 15.554688 30.003906 15.800781 30.003906 16.101562 C 30.003906 16.402344 29.757812 16.644531 29.457031 16.644531 C 29.15625 16.644531 28.914062 16.402344 28.914062 16.101562 C 28.914062 15.800781 29.15625 15.554688 29.457031 15.554688 Z M 3.644531 16.128906 L 1.699219 16.175781 L 1.710938 16.613281 L 3.652344 16.566406 Z M 3.730469 17.730469 L 1.808594 18.136719 L 1.824219 18.203125 L 2.996094 18.894531 L 2.207031 19.992188 L 2.203125 20 L 2.214844 20.0625 L 4.136719 19.65625 L 4.046875 19.230469 L 3.160156 19.417969 L 3.609375 18.792969 L 3.597656 18.734375 L 2.933594 18.347656 L 3.820312 18.160156 Z M 28.34375 18.125 L 28.050781 19.386719 L 28.480469 19.488281 L 28.675781 18.648438 L 30.140625 18.992188 L 30.238281 18.566406 L 28.347656 18.125 Z M 29.753906 20.554688 L 27.601562 20.652344 L 27.578125 20.710938 L 29.070312 22.265625 L 29.246094 21.820312 L 28.519531 21.054688 L 29.574219 21.003906 Z M 26.863281 22.199219 L 26.15625 23.316406 L 26.523438 23.546875 L 26.996094 22.800781 L 27.269531 22.972656 L 26.863281 23.617188 L 27.230469 23.851562 L 27.640625 23.207031 L 27.910156 23.378906 L 27.4375 24.125 L 27.800781 24.355469 L 28.507812 23.238281 Z M 25.878906 24.269531 C 25.84375 24.269531 25.53125 24.273438 25.320312 24.375 C 25.207031 24.429688 25.109375 24.5 25.03125 24.578125 C 24.929688 24.679688 24.855469 24.800781 24.824219 24.929688 C 24.765625 25.144531 24.828125 25.367188 24.984375 25.515625 C 25.132812 25.65625 25.34375 25.699219 25.546875 25.632812 C 25.613281 25.613281 25.691406 25.574219 25.78125 25.527344 C 25.890625 25.476562 26.050781 25.394531 26.125 25.390625 C 26.304688 25.378906 26.296875 25.636719 26.070312 25.75 C 25.984375 25.789062 25.839844 25.832031 25.761719 25.84375 L 25.816406 26.28125 C 25.847656 26.277344 26.113281 26.242188 26.300781 26.125 C 26.621094 25.925781 26.6875 25.671875 26.695312 25.539062 C 26.703125 25.410156 26.648438 25.226562 26.515625 25.09375 C 26.398438 24.984375 26.242188 24.933594 26.078125 24.949219 C 25.925781 24.964844 25.746094 25.054688 25.585938 25.132812 C 25.519531 25.167969 25.445312 25.203125 25.410156 25.214844 C 25.359375 25.230469 25.320312 25.222656 25.285156 25.191406 C 25.257812 25.164062 25.230469 25.109375 25.25 25.042969 C 25.277344 24.941406 25.375 24.839844 25.511719 24.773438 C 25.601562 24.726562 25.785156 24.710938 25.878906 24.710938 Z M 25.878906 24.269531 "/>
</g>
</svg>
