<?xml version="1.0" encoding="UTF-8"?>
<svg xmlns="http://www.w3.org/2000/svg" xmlns:xlink="http://www.w3.org/1999/xlink" width="32px" height="32px" viewBox="0 0 32 23" version="1.1">
<g id="surface1">
<path style=" stroke:none;fill-rule:nonzero;fill:rgb(54.901961%,45.098039%,29.411765%);fill-opacity:1;" d="M 31.785156 8.792969 L 31.886719 8.828125 L 31.886719 7.09375 C 31.886719 6.816406 31.835938 6.542969 31.738281 6.28125 C 31.640625 6.011719 31.496094 5.761719 31.316406 5.53125 C 31.152344 5.328125 30.960938 5.140625 30.75 4.976562 C 30.5625 4.835938 30.355469 4.714844 30.136719 4.617188 C 30 4.527344 29.726562 4.40625 28.984375 4.113281 C 28.351562 3.875 27.335938 3.507812 26.019531 3.136719 C 24.554688 2.71875 23.066406 2.382812 21.5625 2.132812 C 21.554688 2.113281 20.398438 0.730469 18.671875 1.445312 C 18.613281 1.472656 18.550781 1.496094 18.496094 1.523438 C 18.238281 1.648438 18.011719 1.753906 17.570312 1.640625 C 17.316406 1.566406 16.984375 1.417969 17.113281 0.863281 C 17.15625 0.703125 17.261719 0.566406 17.40625 0.484375 C 17.515625 0.421875 17.644531 0.40625 17.765625 0.441406 C 17.992188 0.503906 18.09375 0.625 18.058594 0.808594 C 18.046875 0.886719 17.992188 0.949219 17.917969 0.976562 C 17.835938 1 17.75 0.984375 17.679688 0.933594 C 17.597656 0.878906 17.484375 0.898438 17.425781 0.976562 C 17.367188 1.058594 17.386719 1.167969 17.472656 1.226562 C 17.636719 1.347656 17.859375 1.378906 18.058594 1.304688 C 18.242188 1.230469 18.375 1.066406 18.40625 0.871094 C 18.433594 0.730469 18.46875 0.273438 17.855469 0.105469 C 17.640625 0.0429688 17.410156 0.0703125 17.214844 0.175781 C 16.984375 0.3125 16.820312 0.53125 16.757812 0.785156 L 16.757812 0.800781 C 16.703125 0.726562 16.640625 0.65625 16.574219 0.589844 L 15.980469 0 L 15.382812 0.589844 C 15.316406 0.65625 15.257812 0.726562 15.203125 0.800781 L 15.203125 0.785156 C 15.132812 0.53125 14.972656 0.316406 14.742188 0.175781 C 14.550781 0.0664062 14.316406 0.0390625 14.101562 0.105469 C 13.488281 0.28125 13.527344 0.738281 13.554688 0.871094 C 13.59375 1.058594 13.722656 1.21875 13.902344 1.304688 C 14.097656 1.378906 14.320312 1.347656 14.488281 1.226562 C 14.570312 1.167969 14.589844 1.058594 14.535156 0.976562 C 14.476562 0.898438 14.359375 0.878906 14.277344 0.933594 C 14.210938 0.988281 14.121094 1.003906 14.039062 0.976562 C 13.96875 0.945312 13.921875 0.882812 13.902344 0.808594 C 13.863281 0.625 13.964844 0.503906 14.195312 0.441406 C 14.316406 0.40625 14.445312 0.421875 14.550781 0.484375 C 14.691406 0.574219 14.796875 0.707031 14.84375 0.863281 C 14.980469 1.417969 14.652344 1.578125 14.386719 1.640625 C 13.949219 1.753906 13.71875 1.648438 13.460938 1.523438 C 13.40625 1.496094 13.34375 1.472656 13.289062 1.445312 C 11.558594 0.730469 10.40625 2.113281 10.386719 2.132812 C 10.386719 2.132812 10.386719 2.136719 10.386719 2.136719 C 10.382812 2.140625 10.378906 2.140625 10.378906 2.140625 C 8.925781 2.382812 7.492188 2.703125 6.078125 3.101562 C 4.675781 3.5 3.304688 3.984375 1.96875 4.554688 L 1.730469 4.660156 L 1.730469 4.695312 C 1.621094 4.710938 1.515625 4.746094 1.417969 4.792969 C 1.035156 4.960938 0.660156 5.144531 0.285156 5.320312 L 0 5.460938 L 0 6.40625 C -0.0078125 6.605469 0.0390625 6.800781 0.136719 6.976562 C 0.152344 7.011719 0.175781 7.039062 0.203125 7.066406 L 0.203125 8.113281 C 0.078125 8.328125 0.0117188 8.566406 0.0078125 8.808594 C 0.00390625 9.023438 0.0703125 9.230469 0.203125 9.402344 L 0.203125 11.585938 L 0.230469 11.648438 C 0.492188 12.277344 1.023438 12.769531 1.683594 13.003906 L 1.65625 13.023438 C 1.65625 13.023438 2.222656 13.902344 3.101562 14.085938 L 2.9375 14.15625 C 2.9375 14.15625 3.558594 15.128906 4.757812 15.328125 L 4.585938 15.410156 C 5.125 15.921875 5.820312 16.253906 6.570312 16.359375 C 7.882812 20.300781 11.6875 22.976562 15.988281 22.976562 C 20.289062 22.976562 24.09375 20.300781 25.40625 16.359375 C 26.15625 16.253906 26.851562 15.921875 27.390625 15.410156 L 27.21875 15.328125 C 28.417969 15.128906 29.039062 14.15625 29.039062 14.15625 L 28.875 14.085938 C 29.753906 13.902344 30.320312 13.023438 30.320312 13.023438 L 30.375 12.949219 C 31.320312 12.570312 31.941406 11.691406 31.96875 10.703125 L 31.96875 9.59375 C 31.9375 9.320312 31.878906 9.050781 31.785156 8.792969 Z M 20.941406 2.042969 C 20.226562 1.9375 19.492188 1.859375 18.742188 1.804688 C 18.761719 1.796875 18.789062 1.789062 18.808594 1.78125 C 19.511719 1.46875 20.339844 1.570312 20.941406 2.042969 Z M 13.132812 1.78125 C 13.15625 1.785156 13.179688 1.796875 13.195312 1.816406 C 12.445312 1.867188 11.707031 1.957031 10.992188 2.0625 C 11.402344 1.753906 12.164062 1.375 13.132812 1.78125 Z M 13.132812 1.78125 "/>
<path style=" stroke:none;fill-rule:nonzero;fill:rgb(3.921569%,13.333333%,25.098039%);fill-opacity:1;" d="M 30.953125 8.050781 L 31.484375 8.253906 L 31.484375 7.09375 C 31.480469 6.863281 31.4375 6.632812 31.363281 6.414062 C 31.277344 6.183594 31.15625 5.96875 31.007812 5.769531 C 30.863281 5.589844 30.699219 5.425781 30.511719 5.285156 C 30.339844 5.15625 30.152344 5.046875 29.953125 4.960938 C 29.855469 4.890625 29.578125 4.757812 28.847656 4.484375 C 28.222656 4.246094 27.21875 3.886719 25.917969 3.515625 C 23.785156 2.898438 20.574219 2.175781 17.222656 2.132812 C 17.140625 1.90625 16.945312 1.738281 16.703125 1.683594 C 16.675781 1.261719 16.355469 0.933594 16.289062 0.863281 L 15.980469 0.554688 L 15.667969 0.863281 C 15.605469 0.925781 15.285156 1.261719 15.257812 1.683594 C 15.015625 1.734375 14.816406 1.898438 14.734375 2.125 C 11.441406 2.175781 8.292969 2.882812 6.195312 3.480469 C 4.8125 3.875 3.460938 4.355469 2.140625 4.917969 L 2.140625 5.152344 C 2.140625 5.152344 2.113281 5.136719 2.097656 5.128906 C 2.03125 5.097656 1.964844 5.085938 1.894531 5.082031 C 1.789062 5.089844 1.6875 5.113281 1.59375 5.152344 C 1.21875 5.320312 0.84375 5.496094 0.476562 5.671875 L 0.410156 5.699219 L 0.410156 6.414062 C 0.402344 6.546875 0.4375 6.675781 0.503906 6.792969 C 0.53125 6.84375 0.574219 6.890625 0.621094 6.925781 L 0.621094 8.21875 C 0.503906 8.398438 0.4375 8.605469 0.429688 8.820312 C 0.417969 8.988281 0.488281 9.152344 0.621094 9.257812 L 0.621094 11.523438 C 0.886719 12.125 1.4375 12.566406 2.097656 12.714844 C 2.125 12.722656 2.152344 12.722656 2.179688 12.730469 L 2.1875 12.730469 C 2.375 12.769531 2.570312 12.785156 2.765625 12.773438 C 2.5625 12.871094 2.371094 12.960938 2.167969 13.066406 C 2.167969 13.074219 2.765625 14.007812 4.171875 13.875 C 3.933594 13.980469 3.707031 14.097656 3.46875 14.203125 C 3.46875 14.210938 4.144531 15.128906 5.648438 15.109375 C 5.300781 15.277344 5.097656 15.382812 5.097656 15.382812 C 5.597656 15.804688 6.234375 16.054688 6.902344 16.085938 C 8.105469 19.953125 11.796875 22.597656 15.988281 22.597656 C 20.179688 22.597656 23.875 19.953125 25.078125 16.085938 C 25.742188 16.046875 26.375 15.800781 26.878906 15.382812 C 26.878906 15.382812 26.667969 15.277344 26.332031 15.109375 C 27.820312 15.136719 28.5 14.21875 28.507812 14.203125 C 28.269531 14.085938 28.042969 13.980469 27.804688 13.875 C 29.222656 14.007812 29.808594 13.082031 29.808594 13.066406 C 29.605469 12.96875 29.414062 12.871094 29.214844 12.773438 C 29.625 12.804688 30.039062 12.714844 30.394531 12.511719 C 31.089844 12.152344 31.53125 11.464844 31.554688 10.703125 L 31.554688 9.59375 C 31.539062 8.878906 30.953125 8.050781 30.953125 8.050781 Z M 30.953125 8.050781 "/>
<path style=" stroke:none;fill-rule:nonzero;fill:rgb(80.784314%,5.490196%,17.647059%);fill-opacity:1;" d="M 22.285156 16.863281 C 22.457031 16.996094 22.640625 17.128906 22.816406 17.257812 C 22.816406 17.242188 20.710938 17.8125 19.199219 17.179688 L 19.035156 17.101562 C 18.65625 18.433594 17.394531 19.355469 15.960938 19.355469 C 14.527344 19.355469 13.265625 18.433594 12.886719 17.101562 C 12.832031 17.128906 12.785156 17.152344 12.722656 17.179688 C 11.21875 17.8125 9.105469 17.242188 9.105469 17.257812 C 9.28125 17.128906 9.464844 16.996094 9.636719 16.863281 C 9.007812 16.941406 8.367188 16.886719 7.761719 16.695312 C 9.125 19.894531 12.359375 21.980469 15.953125 21.980469 C 19.542969 21.980469 22.777344 19.894531 24.144531 16.695312 C 23.546875 16.890625 22.910156 16.949219 22.285156 16.863281 Z M 22.285156 16.863281 "/>
<path style=" stroke:none;fill-rule:nonzero;fill:rgb(100%,100%,100%);fill-opacity:1;" d="M 15.089844 3.011719 C 14.929688 2.9375 14.808594 2.804688 14.742188 2.644531 C 9.4375 2.773438 4.136719 4.609375 4.15625 4.679688 C 3.964844 4.734375 3.824219 4.894531 3.796875 5.082031 L 3.796875 5.269531 C 7.40625 3.917969 11.230469 3.183594 15.101562 3.09375 Z M 15.089844 3.011719 "/>
<path style=" stroke:none;fill-rule:nonzero;fill:rgb(100%,100%,100%);fill-opacity:1;" d="M 28.125 4.808594 C 28.132812 4.738281 22.578125 2.773438 17.195312 2.644531 C 17.128906 2.800781 17.007812 2.933594 16.847656 3.011719 L 16.847656 3.082031 C 20.835938 3.195312 24.773438 3.976562 28.480469 5.390625 L 28.480469 5.207031 C 28.449219 5.019531 28.3125 4.867188 28.125 4.808594 Z M 28.125 4.808594 "/>
<path style=" stroke:none;fill-rule:nonzero;fill:rgb(80.784314%,5.490196%,17.647059%);fill-opacity:1;" d="M 16.554688 2.089844 C 16.207031 2.042969 16.152344 2.519531 16.144531 2.679688 L 16.035156 2.679688 C 16.035156 2.230469 16.261719 2.042969 16.261719 1.746094 C 16.261719 1.445312 15.980469 1.164062 15.980469 1.164062 C 15.980469 1.164062 15.695312 1.445312 15.695312 1.746094 C 15.695312 2.042969 15.914062 2.230469 15.914062 2.679688 L 15.804688 2.679688 C 15.796875 2.519531 15.742188 2.042969 15.394531 2.089844 C 15.019531 2.132812 15.0625 2.625 15.394531 2.667969 C 15.394531 2.667969 15.328125 2.449219 15.511719 2.449219 C 15.648438 2.449219 15.6875 2.597656 15.695312 2.679688 L 15.53125 2.679688 L 15.53125 2.855469 L 15.898438 2.855469 C 15.875 2.945312 15.816406 3.027344 15.730469 3.074219 C 15.761719 3.132812 15.820312 3.171875 15.886719 3.179688 C 15.890625 3.257812 15.925781 3.332031 15.980469 3.390625 C 16.035156 3.335938 16.066406 3.257812 16.070312 3.179688 C 16.136719 3.171875 16.195312 3.132812 16.226562 3.074219 C 16.140625 3.027344 16.082031 2.945312 16.0625 2.855469 L 16.417969 2.855469 L 16.417969 2.679688 L 16.261719 2.679688 C 16.273438 2.597656 16.308594 2.449219 16.445312 2.449219 C 16.628906 2.449219 16.566406 2.667969 16.566406 2.667969 C 16.886719 2.625 16.921875 2.132812 16.554688 2.089844 "/>
<path style=" stroke:none;fill-rule:nonzero;fill:rgb(100%,100%,100%);fill-opacity:1;" d="M 14.855469 5.53125 L 14.855469 4.429688 C 14.859375 4.292969 14.828125 4.15625 14.761719 4.035156 C 14.707031 3.925781 14.625 3.832031 14.523438 3.761719 C 14.417969 3.6875 14.296875 3.636719 14.167969 3.613281 C 14.019531 3.585938 13.867188 3.574219 13.71875 3.585938 C 13.566406 3.59375 13.414062 3.621094 13.269531 3.675781 C 13.136719 3.71875 13.015625 3.785156 12.902344 3.867188 C 12.800781 3.949219 12.71875 4.054688 12.667969 4.175781 C 12.605469 4.304688 12.574219 4.449219 12.574219 4.589844 L 12.574219 5.699219 C 12.453125 5.730469 12.367188 5.835938 12.363281 5.957031 C 12.363281 6.011719 12.382812 6.0625 12.425781 6.101562 C 12.464844 6.144531 12.519531 6.167969 12.574219 6.167969 L 12.574219 7.410156 C 12.570312 7.546875 12.601562 7.683594 12.667969 7.804688 C 12.71875 7.914062 12.800781 8.003906 12.902344 8.070312 C 13.011719 8.144531 13.140625 8.191406 13.269531 8.210938 C 13.570312 8.265625 13.878906 8.246094 14.167969 8.160156 C 14.296875 8.117188 14.417969 8.054688 14.523438 7.972656 C 14.628906 7.894531 14.710938 7.789062 14.761719 7.671875 C 14.824219 7.546875 14.851562 7.410156 14.855469 7.269531 L 14.855469 6.027344 C 14.980469 6.011719 15.074219 5.910156 15.082031 5.789062 C 15.09375 5.65625 14.988281 5.542969 14.855469 5.53125 Z M 14.222656 7.242188 C 14.222656 7.3125 14.207031 7.382812 14.175781 7.445312 C 14.148438 7.5 14.105469 7.546875 14.058594 7.585938 C 14.007812 7.621094 13.957031 7.648438 13.902344 7.671875 C 13.847656 7.695312 13.789062 7.707031 13.726562 7.710938 C 13.667969 7.710938 13.605469 7.707031 13.542969 7.699219 C 13.488281 7.6875 13.429688 7.667969 13.378906 7.636719 C 13.332031 7.605469 13.289062 7.5625 13.261719 7.515625 C 13.230469 7.453125 13.214844 7.382812 13.214844 7.3125 L 13.214844 4.546875 C 13.214844 4.476562 13.230469 4.40625 13.261719 4.34375 C 13.289062 4.289062 13.332031 4.242188 13.378906 4.203125 C 13.429688 4.164062 13.484375 4.132812 13.542969 4.113281 C 13.605469 4.09375 13.664062 4.082031 13.726562 4.078125 C 13.785156 4.074219 13.84375 4.082031 13.902344 4.097656 C 13.957031 4.105469 14.011719 4.132812 14.058594 4.167969 C 14.105469 4.203125 14.144531 4.242188 14.175781 4.289062 C 14.207031 4.355469 14.222656 4.421875 14.222656 4.492188 Z M 14.222656 7.242188 "/>
<path style=" stroke:none;fill-rule:nonzero;fill:rgb(100%,100%,100%);fill-opacity:1;" d="M 2.679688 8.511719 C 2.679688 8.519531 2.679688 8.527344 2.671875 8.519531 L 2.652344 8.5 C 2.636719 8.449219 1.886719 6.035156 1.839844 5.929688 C 1.804688 5.816406 1.777344 5.761719 1.777344 5.753906 C 1.769531 5.722656 1.75 5.695312 1.71875 5.683594 C 1.683594 5.671875 1.644531 5.679688 1.609375 5.699219 C 1.382812 5.804688 1.164062 5.902344 0.933594 6.007812 L 0.933594 6.210938 C 0.929688 6.261719 0.9375 6.3125 0.960938 6.359375 C 0.976562 6.390625 1.003906 6.414062 1.035156 6.429688 C 1.066406 6.445312 1.101562 6.453125 1.136719 6.449219 L 1.136719 8.289062 C 1.019531 8.363281 0.949219 8.484375 0.941406 8.617188 C 0.933594 8.664062 0.957031 8.710938 0.996094 8.742188 C 1.035156 8.769531 1.089844 8.777344 1.136719 8.757812 L 1.136719 11.355469 C 1.308594 11.277344 1.484375 11.199219 1.664062 11.117188 L 1.664062 7.859375 C 1.664062 7.832031 1.664062 7.824219 1.675781 7.824219 L 1.683594 7.832031 C 1.703125 7.890625 1.722656 7.945312 1.746094 8 C 1.785156 8.105469 2.527344 10.484375 2.535156 10.5 C 2.550781 10.550781 2.574219 10.597656 2.597656 10.644531 C 2.609375 10.660156 2.628906 10.671875 2.648438 10.675781 C 2.671875 10.679688 2.691406 10.671875 2.707031 10.660156 C 2.828125 10.617188 2.945312 10.5625 3.066406 10.519531 C 3.109375 10.5 3.148438 10.46875 3.175781 10.429688 C 3.199219 10.394531 3.214844 10.351562 3.210938 10.308594 L 3.210938 7.867188 C 3.3125 7.800781 3.378906 7.695312 3.386719 7.578125 C 3.390625 7.53125 3.375 7.488281 3.339844 7.457031 C 3.304688 7.425781 3.257812 7.410156 3.210938 7.417969 L 3.210938 5.613281 C 3.210938 5.582031 3.21875 5.550781 3.230469 5.523438 C 3.238281 5.507812 3.257812 5.480469 3.265625 5.460938 C 3.304688 5.417969 3.339844 5.371094 3.367188 5.320312 C 3.402344 5.265625 3.417969 5.199219 3.414062 5.136719 L 3.414062 4.960938 C 3.167969 5.058594 2.917969 5.152344 2.671875 5.257812 L 2.671875 8.511719 Z M 2.679688 8.511719 "/>
<path style=" stroke:none;fill-rule:nonzero;fill:rgb(100%,100%,100%);fill-opacity:1;" d="M 27.75 8.554688 C 27.75 8.5625 27.75 8.5625 27.738281 8.554688 C 27.730469 8.546875 27.730469 8.539062 27.722656 8.527344 C 27.703125 8.464844 27.675781 8.351562 27.621094 8.175781 C 27.574219 8 27.511719 7.796875 27.445312 7.566406 C 27.382812 7.339844 27.320312 7.09375 27.246094 6.84375 C 27.171875 6.589844 27.109375 6.359375 27.042969 6.148438 C 26.980469 5.9375 26.925781 5.761719 26.886719 5.613281 C 26.863281 5.539062 26.839844 5.460938 26.824219 5.382812 C 26.816406 5.339844 26.796875 5.300781 26.769531 5.269531 C 26.738281 5.238281 26.699219 5.214844 26.660156 5.199219 C 26.421875 5.128906 26.191406 5.046875 25.953125 4.976562 L 25.953125 5.179688 C 25.953125 5.242188 25.964844 5.300781 25.980469 5.355469 C 26 5.402344 26.023438 5.441406 26.054688 5.480469 C 26.085938 5.519531 26.121094 5.550781 26.164062 5.578125 L 26.164062 7.011719 C 26.113281 7.003906 26.058594 7.019531 26.019531 7.054688 C 25.980469 7.089844 25.960938 7.136719 25.964844 7.1875 C 25.96875 7.316406 26.046875 7.425781 26.164062 7.480469 L 26.164062 9.585938 C 26.347656 9.636719 26.53125 9.699219 26.714844 9.753906 L 26.714844 6.871094 C 26.714844 6.84375 26.714844 6.835938 26.722656 6.84375 C 26.722656 6.855469 26.734375 6.855469 26.734375 6.871094 C 26.75 6.945312 26.769531 7.019531 26.796875 7.09375 C 26.84375 7.234375 26.886719 7.410156 26.953125 7.621094 C 27.015625 7.832031 27.082031 8.0625 27.152344 8.308594 C 27.226562 8.554688 27.292969 8.785156 27.355469 9.003906 C 27.417969 9.222656 27.472656 9.410156 27.519531 9.558594 C 27.566406 9.71875 27.59375 9.804688 27.601562 9.824219 C 27.621094 9.890625 27.640625 9.953125 27.667969 10.015625 C 27.6875 10.066406 27.726562 10.101562 27.777344 10.121094 L 28.132812 10.253906 C 28.167969 10.273438 28.210938 10.273438 28.242188 10.246094 C 28.269531 10.222656 28.28125 10.183594 28.28125 10.148438 L 28.28125 8.195312 C 28.324219 8.199219 28.371094 8.1875 28.40625 8.15625 C 28.441406 8.125 28.457031 8.078125 28.453125 8.035156 C 28.445312 7.917969 28.382812 7.808594 28.28125 7.746094 L 28.28125 6.34375 C 28.277344 6.320312 28.285156 6.292969 28.296875 6.273438 L 28.335938 6.238281 C 28.371094 6.222656 28.40625 6.203125 28.433594 6.175781 C 28.472656 6.132812 28.488281 6.082031 28.480469 6.027344 L 28.480469 5.851562 C 28.234375 5.753906 27.976562 5.664062 27.730469 5.578125 L 27.730469 8.554688 Z M 27.75 8.554688 "/>
<path style=" stroke:none;fill-rule:nonzero;fill:rgb(100%,100%,100%);fill-opacity:1;" d="M 30.878906 9.011719 C 30.800781 8.847656 30.703125 8.691406 30.59375 8.546875 C 30.503906 8.421875 30.402344 8.300781 30.292969 8.175781 C 30.300781 8.160156 30.304688 8.140625 30.300781 8.125 C 30.289062 7.976562 30.199219 7.847656 30.0625 7.78125 C 30.019531 7.753906 29.964844 7.75 29.917969 7.769531 C 29.898438 7.753906 29.882812 7.726562 29.863281 7.710938 C 29.761719 7.601562 29.667969 7.484375 29.578125 7.367188 C 29.511719 7.285156 29.46875 7.1875 29.460938 7.082031 L 29.460938 6.125 C 29.457031 6.085938 29.476562 6.050781 29.503906 6.027344 C 29.535156 6 29.574219 5.984375 29.617188 5.980469 C 29.660156 5.976562 29.707031 5.976562 29.753906 5.980469 C 29.800781 5.992188 29.847656 6.007812 29.890625 6.027344 C 29.925781 6.042969 29.972656 6.070312 30.027344 6.097656 C 30.074219 6.132812 30.128906 6.167969 30.164062 6.203125 C 30.203125 6.242188 30.238281 6.285156 30.265625 6.335938 C 30.292969 6.378906 30.308594 6.429688 30.3125 6.484375 L 30.3125 6.714844 C 30.316406 6.816406 30.351562 6.917969 30.410156 7.003906 C 30.472656 7.097656 30.5625 7.171875 30.667969 7.214844 C 30.757812 7.257812 30.851562 7.292969 30.933594 7.339844 L 30.933594 6.890625 C 30.933594 6.738281 30.90625 6.589844 30.859375 6.449219 C 30.804688 6.3125 30.730469 6.179688 30.640625 6.0625 C 30.546875 5.941406 30.4375 5.835938 30.3125 5.746094 C 30.183594 5.648438 30.046875 5.570312 29.898438 5.507812 C 29.769531 5.449219 29.628906 5.40625 29.488281 5.382812 C 29.378906 5.363281 29.261719 5.371094 29.15625 5.410156 C 29.066406 5.449219 28.988281 5.515625 28.9375 5.601562 C 28.878906 5.722656 28.847656 5.855469 28.855469 5.992188 L 28.855469 6.785156 C 28.855469 6.949219 28.894531 7.109375 28.964844 7.257812 C 29.042969 7.410156 29.136719 7.550781 29.25 7.683594 C 29.359375 7.816406 29.480469 7.949219 29.605469 8.070312 C 29.59375 8.097656 29.589844 8.128906 29.589844 8.160156 C 29.597656 8.304688 29.691406 8.429688 29.824219 8.492188 C 29.882812 8.527344 29.957031 8.523438 30.007812 8.484375 C 30.105469 8.59375 30.191406 8.710938 30.265625 8.835938 C 30.335938 8.957031 30.375 9.09375 30.375 9.234375 L 30.375 10.371094 C 30.378906 10.414062 30.359375 10.460938 30.328125 10.492188 C 30.292969 10.519531 30.253906 10.542969 30.210938 10.554688 C 30.160156 10.5625 30.105469 10.5625 30.054688 10.554688 C 29.996094 10.546875 29.941406 10.535156 29.890625 10.511719 C 29.832031 10.484375 29.777344 10.453125 29.726562 10.414062 C 29.671875 10.371094 29.617188 10.324219 29.570312 10.28125 C 29.523438 10.234375 29.484375 10.183594 29.449219 10.132812 C 29.421875 10.082031 29.40625 10.027344 29.40625 9.972656 L 29.40625 9.707031 C 29.40625 9.621094 29.378906 9.53125 29.324219 9.460938 C 29.257812 9.382812 29.171875 9.324219 29.074219 9.285156 C 28.976562 9.25 28.882812 9.207031 28.78125 9.171875 L 28.78125 9.628906 C 28.78125 9.78125 28.8125 9.929688 28.875 10.070312 C 28.929688 10.207031 29.011719 10.335938 29.113281 10.449219 C 29.214844 10.566406 29.332031 10.667969 29.460938 10.757812 C 29.59375 10.84375 29.734375 10.925781 29.882812 10.996094 C 30.015625 11.050781 30.15625 11.097656 30.300781 11.128906 C 30.417969 11.152344 30.535156 11.148438 30.648438 11.117188 C 30.75 11.09375 30.835938 11.027344 30.886719 10.941406 C 30.957031 10.832031 30.988281 10.707031 30.980469 10.582031 L 30.980469 9.488281 C 30.984375 9.324219 30.953125 9.160156 30.878906 9.011719 Z M 30.878906 9.011719 "/>
<path style=" stroke:none;fill-rule:nonzero;fill:rgb(100%,100%,100%);fill-opacity:1;" d="M 9.609375 6.386719 C 9.582031 6.597656 9.554688 6.808594 9.535156 7.023438 C 9.507812 7.234375 9.492188 7.410156 9.464844 7.578125 C 9.445312 7.734375 9.425781 7.867188 9.40625 7.964844 C 9.398438 8.0625 9.390625 8.113281 9.378906 8.113281 C 9.324219 7.832031 9.28125 7.578125 9.242188 7.347656 C 9.207031 7.117188 9.160156 6.871094 9.105469 6.589844 C 9.058594 6.308594 9.003906 6.035156 8.960938 5.761719 C 8.90625 5.488281 8.859375 5.242188 8.8125 5.003906 C 8.765625 4.773438 8.730469 4.589844 8.695312 4.457031 C 8.683594 4.414062 8.648438 4.386719 8.574219 4.371094 C 8.507812 4.355469 8.433594 4.355469 8.363281 4.371094 C 8.296875 4.390625 8.226562 4.417969 8.164062 4.449219 C 8.101562 4.472656 8.058594 4.527344 8.042969 4.589844 C 8.007812 4.730469 7.972656 4.925781 7.925781 5.179688 C 7.878906 5.425781 7.835938 5.699219 7.777344 6 C 7.734375 6.289062 7.679688 6.589844 7.632812 6.890625 C 7.585938 7.1875 7.542969 7.472656 7.496094 7.71875 C 7.457031 7.964844 7.414062 8.246094 7.359375 8.554688 C 7.359375 8.554688 7.347656 8.511719 7.332031 8.414062 C 7.3125 8.316406 7.304688 8.195312 7.277344 8.042969 C 7.257812 7.894531 7.238281 7.71875 7.210938 7.523438 C 7.183594 7.332031 7.15625 7.128906 7.136719 6.925781 C 7.082031 6.449219 6.875 4.722656 6.875 4.722656 L 6.105469 4.933594 L 6.105469 5.117188 C 6.101562 5.175781 6.117188 5.230469 6.148438 5.277344 C 6.171875 5.308594 6.203125 5.332031 6.242188 5.347656 C 6.261719 5.355469 6.277344 5.375 6.296875 5.382812 C 6.316406 5.402344 6.328125 5.425781 6.332031 5.453125 C 6.398438 5.9375 6.453125 6.386719 6.496094 6.808594 C 6.40625 6.867188 6.347656 6.96875 6.34375 7.074219 C 6.339844 7.128906 6.363281 7.179688 6.402344 7.210938 C 6.445312 7.246094 6.5 7.261719 6.554688 7.25 L 6.554688 7.277344 C 6.582031 7.507812 6.609375 7.734375 6.636719 7.957031 C 6.664062 8.175781 6.691406 8.371094 6.707031 8.546875 C 6.734375 8.722656 6.753906 8.863281 6.761719 8.96875 C 6.773438 9.027344 6.78125 9.085938 6.78125 9.144531 C 6.78125 9.175781 6.796875 9.203125 6.816406 9.222656 C 6.84375 9.253906 6.886719 9.261719 6.917969 9.242188 L 7.632812 9.058594 C 7.675781 9.046875 7.714844 9.027344 7.742188 8.996094 C 7.773438 8.957031 7.800781 8.910156 7.816406 8.863281 C 8 7.832031 8.171875 6.808594 8.355469 5.789062 C 8.53125 6.730469 8.703125 7.683594 8.886719 8.632812 C 8.902344 8.671875 8.925781 8.707031 8.960938 8.730469 C 8.992188 8.75 9.03125 8.757812 9.070312 8.75 L 9.785156 8.617188 C 9.824219 8.609375 9.859375 8.585938 9.882812 8.554688 C 9.90625 8.523438 9.921875 8.492188 9.929688 8.457031 C 9.929688 8.449219 9.9375 8.386719 9.957031 8.273438 C 9.976562 8.160156 9.992188 8.007812 10.011719 7.824219 C 10.039062 7.636719 10.058594 7.4375 10.085938 7.199219 C 10.113281 6.96875 10.140625 6.730469 10.167969 6.484375 L 10.167969 6.457031 C 10.289062 6.421875 10.371094 6.316406 10.378906 6.195312 C 10.382812 6.101562 10.316406 6.019531 10.222656 6 C 10.277344 5.558594 10.332031 5.082031 10.398438 4.574219 C 10.402344 4.542969 10.414062 4.511719 10.433594 4.484375 C 10.449219 4.460938 10.46875 4.441406 10.488281 4.421875 C 10.527344 4.390625 10.558594 4.351562 10.578125 4.308594 C 10.609375 4.253906 10.625 4.195312 10.625 4.132812 L 10.625 3.945312 C 10.359375 3.992188 10.105469 4.027344 9.847656 4.078125 C 9.882812 4.078125 9.671875 5.886719 9.609375 6.386719 Z M 9.609375 6.386719 "/>
<path style=" stroke:none;fill-rule:nonzero;fill:rgb(100%,100%,100%);fill-opacity:1;" d="M 25.386719 7.03125 C 25.378906 6.902344 25.296875 6.792969 25.175781 6.738281 C 25.148438 6.574219 25.121094 6.40625 25.085938 6.238281 C 25.050781 6.007812 25.011719 5.804688 24.976562 5.621094 C 24.949219 5.4375 24.921875 5.285156 24.894531 5.164062 C 24.875 5.046875 24.855469 4.976562 24.855469 4.960938 C 24.84375 4.878906 24.808594 4.804688 24.757812 4.738281 C 24.695312 4.667969 24.613281 4.617188 24.519531 4.597656 C 24.234375 4.527344 23.949219 4.457031 23.667969 4.394531 L 23.667969 4.539062 C 23.652344 4.675781 23.710938 4.8125 23.824219 4.898438 C 23.84375 4.914062 23.851562 4.9375 23.851562 4.960938 C 23.851562 4.988281 23.847656 5.019531 23.839844 5.046875 C 23.839844 5.046875 23.832031 5.101562 23.8125 5.1875 C 23.796875 5.277344 23.765625 5.402344 23.738281 5.550781 C 23.710938 5.699219 23.675781 5.867188 23.640625 6.0625 C 23.621094 6.160156 23.601562 6.246094 23.585938 6.34375 C 23.523438 6.328125 23.460938 6.339844 23.410156 6.375 C 23.363281 6.410156 23.335938 6.46875 23.335938 6.527344 C 23.34375 6.632812 23.402344 6.726562 23.492188 6.785156 C 23.375 7.375 23.082031 8.808594 23.082031 8.808594 L 23.683594 8.941406 C 23.683594 8.941406 23.859375 7.957031 23.867188 7.9375 C 23.878906 7.859375 23.914062 7.824219 23.976562 7.839844 C 24.214844 7.894531 24.464844 7.957031 24.699219 8.015625 C 24.734375 8.023438 24.765625 8.039062 24.792969 8.0625 C 24.824219 8.089844 24.839844 8.132812 24.839844 8.175781 C 24.839844 8.195312 24.976562 9.257812 24.976562 9.257812 C 25.1875 9.320312 25.398438 9.375 25.605469 9.4375 C 25.605469 9.4375 25.351562 7.9375 25.214844 7.199219 C 25.332031 7.179688 25.386719 7.117188 25.386719 7.03125 Z M 24.746094 7.488281 C 24.730469 7.507812 24.710938 7.507812 24.671875 7.496094 C 24.472656 7.445312 24.28125 7.402344 24.078125 7.347656 C 24.050781 7.339844 24.03125 7.324219 24.015625 7.304688 C 23.996094 7.285156 23.988281 7.257812 23.996094 7.234375 C 23.996094 7.234375 24.003906 7.199219 24.015625 7.136719 C 24.023438 7.074219 24.042969 6.996094 24.050781 6.898438 C 24.070312 6.800781 24.085938 6.695312 24.105469 6.574219 C 24.125 6.449219 24.152344 6.324219 24.179688 6.203125 C 24.242188 5.867188 24.308594 5.53125 24.371094 5.1875 L 24.378906 5.1875 C 24.445312 5.558594 24.507812 5.921875 24.574219 6.289062 C 24.601562 6.429688 24.617188 6.5625 24.644531 6.695312 C 24.664062 6.828125 24.683594 6.953125 24.699219 7.046875 C 24.71875 7.152344 24.730469 7.242188 24.746094 7.3125 C 24.75 7.347656 24.757812 7.382812 24.765625 7.417969 C 24.773438 7.453125 24.765625 7.480469 24.746094 7.488281 Z M 24.746094 7.488281 "/>
<path style=" stroke:none;fill-rule:nonzero;fill:rgb(100%,100%,100%);fill-opacity:1;" d="M 17.679688 7.65625 C 17.664062 7.640625 17.648438 7.628906 17.625 7.621094 C 17.609375 7.613281 17.609375 7.585938 17.609375 7.542969 L 17.609375 6.503906 C 17.609375 6.359375 17.582031 6.222656 17.535156 6.089844 C 17.496094 5.972656 17.417969 5.871094 17.316406 5.796875 C 17.269531 5.753906 17.261719 5.710938 17.304688 5.671875 C 17.402344 5.609375 17.476562 5.519531 17.527344 5.417969 C 17.582031 5.308594 17.609375 5.1875 17.609375 5.066406 L 17.609375 4.589844 C 17.609375 4.449219 17.589844 4.3125 17.554688 4.175781 C 17.519531 4.054688 17.457031 3.945312 17.371094 3.851562 C 17.28125 3.753906 17.171875 3.679688 17.050781 3.628906 C 16.898438 3.570312 16.738281 3.539062 16.574219 3.542969 C 16.125 3.53125 15.6875 3.53125 15.238281 3.542969 L 15.238281 3.71875 C 15.234375 3.785156 15.25 3.851562 15.285156 3.910156 C 15.308594 3.949219 15.34375 3.984375 15.382812 4.007812 C 15.402344 4.015625 15.417969 4.027344 15.429688 4.042969 C 15.441406 4.070312 15.449219 4.097656 15.449219 4.125 L 15.449219 5.507812 C 15.332031 5.53125 15.246094 5.628906 15.246094 5.746094 C 15.246094 5.859375 15.332031 5.957031 15.449219 5.972656 L 15.449219 8.078125 L 16.078125 8.078125 L 16.078125 6.078125 C 16.078125 6.027344 16.105469 5.992188 16.164062 5.992188 C 16.300781 5.992188 16.425781 5.992188 16.566406 6 C 16.679688 5.992188 16.792969 6.039062 16.867188 6.125 C 16.933594 6.222656 16.96875 6.339844 16.957031 6.457031 L 16.957031 7.789062 C 16.957031 7.867188 16.984375 7.949219 17.039062 8.007812 C 17.109375 8.070312 17.195312 8.101562 17.289062 8.097656 C 17.472656 8.105469 17.644531 8.113281 17.828125 8.125 L 17.828125 7.886719 C 17.832031 7.828125 17.816406 7.773438 17.78125 7.726562 C 17.753906 7.710938 17.71875 7.683594 17.679688 7.65625 Z M 16.96875 5.058594 C 16.976562 5.175781 16.945312 5.292969 16.875 5.390625 C 16.800781 5.476562 16.691406 5.523438 16.574219 5.515625 C 16.4375 5.515625 16.300781 5.515625 16.164062 5.507812 C 16.144531 5.503906 16.125 5.5 16.105469 5.488281 C 16.089844 5.480469 16.078125 5.464844 16.078125 5.445312 L 16.078125 4.140625 C 16.078125 4.117188 16.089844 4.089844 16.109375 4.074219 C 16.128906 4.058594 16.15625 4.050781 16.179688 4.050781 C 16.308594 4.050781 16.4375 4.050781 16.566406 4.0625 C 16.683594 4.050781 16.796875 4.101562 16.867188 4.195312 C 16.933594 4.292969 16.964844 4.410156 16.957031 4.527344 L 16.957031 5.058594 Z M 16.96875 5.058594 "/>
<path style=" stroke:none;fill-rule:nonzero;fill:rgb(100%,100%,100%);fill-opacity:1;" d="M 19.703125 6.503906 C 19.640625 6.519531 19.601562 6.582031 19.601562 6.667969 C 19.601562 6.695312 19.613281 7.71875 19.59375 7.746094 C 19.578125 7.761719 19.554688 7.769531 19.53125 7.769531 C 19.339844 7.753906 19.15625 7.734375 18.960938 7.71875 C 18.933594 7.71875 18.910156 7.699219 18.898438 7.671875 C 18.886719 7.644531 18.882812 7.617188 18.878906 7.585938 C 18.878906 6.476562 18.878906 5.367188 18.871094 4.246094 C 18.871094 4.214844 18.875 4.1875 18.890625 4.160156 C 18.902344 4.140625 18.917969 4.128906 18.933594 4.125 C 18.976562 4.097656 19.007812 4.066406 19.035156 4.027344 C 19.074219 3.980469 19.09375 3.917969 19.089844 3.859375 L 19.089844 3.675781 C 18.734375 3.636719 18.367188 3.613281 18.011719 3.59375 L 18.011719 3.78125 C 18.007812 3.84375 18.027344 3.902344 18.066406 3.957031 C 18.097656 3.992188 18.132812 4.027344 18.167969 4.0625 C 18.183594 4.078125 18.203125 4.089844 18.222656 4.105469 C 18.234375 4.132812 18.242188 4.164062 18.238281 4.195312 L 18.238281 5.578125 C 18.125 5.589844 18.039062 5.683594 18.039062 5.796875 C 18.042969 5.914062 18.125 6.011719 18.238281 6.042969 L 18.238281 8.148438 C 18.808594 8.183594 19.375 8.238281 19.941406 8.300781 C 19.988281 8.308594 20.023438 8.308594 20.070312 8.316406 C 20.105469 8.316406 20.140625 8.308594 20.171875 8.289062 C 20.207031 8.265625 20.226562 8.226562 20.226562 8.183594 L 20.226562 6.519531 C 20.132812 6.511719 20.042969 6.503906 19.953125 6.484375 C 19.867188 6.476562 19.785156 6.480469 19.703125 6.503906 Z M 19.703125 6.503906 "/>
<path style=" stroke:none;fill-rule:nonzero;fill:rgb(100%,100%,100%);fill-opacity:1;" d="M 5.675781 5.082031 C 5.664062 5.082031 5.652344 5.085938 5.648438 5.09375 L 5.636719 5.09375 C 4.980469 5.296875 4.320312 5.515625 3.671875 5.761719 L 3.671875 5.9375 C 3.664062 6 3.675781 6.058594 3.707031 6.113281 C 3.726562 6.148438 3.757812 6.167969 3.796875 6.175781 L 3.851562 6.203125 C 3.875 6.222656 3.882812 6.253906 3.878906 6.28125 L 3.878906 7.65625 C 3.765625 7.722656 3.695312 7.835938 3.6875 7.964844 C 3.679688 8.011719 3.699219 8.0625 3.738281 8.09375 C 3.777344 8.125 3.832031 8.136719 3.878906 8.125 L 3.878906 10.21875 C 3.933594 10.203125 3.988281 10.183594 4.035156 10.160156 C 4.320312 10.050781 4.601562 9.957031 4.878906 9.867188 C 4.996094 9.824219 5.117188 9.789062 5.242188 9.753906 C 5.335938 9.726562 5.425781 9.691406 5.519531 9.664062 C 5.554688 9.65625 5.59375 9.636719 5.628906 9.628906 L 5.636719 9.628906 C 5.65625 9.625 5.671875 9.613281 5.683594 9.601562 C 5.703125 9.585938 5.722656 9.570312 5.738281 9.550781 C 5.765625 9.515625 5.78125 9.472656 5.785156 9.425781 L 5.785156 8.148438 C 5.691406 8.175781 5.609375 8.203125 5.519531 8.230469 C 5.429688 8.253906 5.34375 8.296875 5.273438 8.351562 C 5.207031 8.402344 5.171875 8.484375 5.179688 8.5625 C 5.179688 8.589844 5.1875 9.222656 5.171875 9.25 C 5.15625 9.273438 5.132812 9.292969 5.105469 9.304688 C 5.023438 9.332031 4.953125 9.355469 4.867188 9.382812 L 4.539062 9.488281 C 4.492188 9.507812 4.464844 9.488281 4.464844 9.425781 L 4.464844 8.015625 C 4.464844 7.960938 4.503906 7.914062 4.558594 7.902344 C 4.804688 7.816406 5.050781 7.734375 5.300781 7.65625 C 5.355469 7.644531 5.394531 7.597656 5.390625 7.542969 L 5.390625 7.199219 C 5.390625 7.164062 5.382812 7.144531 5.355469 7.136719 C 5.332031 7.128906 5.308594 7.128906 5.289062 7.136719 C 5.042969 7.214844 4.796875 7.292969 4.546875 7.382812 C 4.484375 7.402344 4.457031 7.382812 4.457031 7.332031 L 4.457031 6.0625 C 4.457031 6.035156 4.464844 6.011719 4.484375 5.992188 C 4.503906 5.964844 4.519531 5.945312 4.539062 5.945312 C 4.742188 5.875 4.933594 5.816406 5.132812 5.753906 C 5.144531 5.753906 5.152344 5.761719 5.160156 5.769531 C 5.179688 5.789062 5.171875 6.429688 5.171875 6.457031 C 5.171875 6.554688 5.199219 6.597656 5.261719 6.609375 C 5.347656 6.613281 5.429688 6.597656 5.507812 6.574219 C 5.601562 6.546875 5.683594 6.519531 5.773438 6.492188 L 5.773438 5.1875 C 5.773438 5.15625 5.757812 5.125 5.730469 5.109375 C 5.730469 5.09375 5.703125 5.082031 5.675781 5.082031 Z M 5.675781 5.082031 "/>
<path style=" stroke:none;fill-rule:nonzero;fill:rgb(100%,100%,100%);fill-opacity:1;" d="M 22.570312 4.175781 C 22.5625 4.167969 22.550781 4.167969 22.542969 4.167969 L 22.53125 4.167969 C 21.855469 4.042969 21.175781 3.929688 20.5 3.839844 L 20.5 4.015625 C 20.496094 4.082031 20.507812 4.148438 20.535156 4.210938 C 20.558594 4.257812 20.59375 4.292969 20.636719 4.316406 L 20.691406 4.371094 C 20.710938 4.394531 20.722656 4.425781 20.71875 4.457031 L 20.71875 5.832031 C 20.664062 5.832031 20.613281 5.855469 20.574219 5.894531 C 20.539062 5.929688 20.515625 5.980469 20.519531 6.035156 C 20.523438 6.152344 20.605469 6.253906 20.71875 6.289062 L 20.71875 8.386719 L 20.882812 8.414062 L 21.761719 8.546875 C 21.890625 8.5625 22.011719 8.589844 22.136719 8.609375 C 22.230469 8.625 22.320312 8.644531 22.421875 8.660156 C 22.460938 8.671875 22.5 8.675781 22.542969 8.679688 L 22.597656 8.679688 C 22.621094 8.675781 22.644531 8.667969 22.660156 8.652344 C 22.691406 8.628906 22.707031 8.59375 22.707031 8.554688 L 22.707031 7.269531 C 22.613281 7.25 22.523438 7.234375 22.441406 7.214844 C 22.359375 7.199219 22.273438 7.199219 22.195312 7.214844 C 22.128906 7.234375 22.101562 7.285156 22.101562 7.382812 C 22.101562 7.410156 22.109375 8.050781 22.09375 8.070312 C 22.078125 8.089844 22.050781 8.097656 22.027344 8.085938 C 21.945312 8.070312 21.863281 8.0625 21.78125 8.042969 C 21.671875 8.027344 21.554688 8.007812 21.441406 7.992188 C 21.386719 7.980469 21.371094 7.945312 21.371094 7.894531 L 21.371094 6.484375 C 21.371094 6.429688 21.40625 6.40625 21.46875 6.414062 C 21.726562 6.457031 21.984375 6.492188 22.238281 6.546875 C 22.304688 6.554688 22.332031 6.539062 22.332031 6.476562 L 22.332031 6.140625 C 22.335938 6.109375 22.320312 6.078125 22.292969 6.0625 C 22.273438 6.046875 22.253906 6.035156 22.230469 6.027344 C 21.972656 5.980469 21.726562 5.9375 21.46875 5.894531 C 21.40625 5.886719 21.371094 5.851562 21.371094 5.796875 L 21.371094 4.527344 C 21.367188 4.503906 21.378906 4.484375 21.398438 4.46875 C 21.414062 4.453125 21.4375 4.445312 21.460938 4.449219 C 21.664062 4.484375 21.875 4.511719 22.074219 4.554688 L 22.101562 4.582031 C 22.121094 4.609375 22.109375 5.242188 22.109375 5.269531 C 22.105469 5.347656 22.140625 5.421875 22.203125 5.472656 C 22.277344 5.515625 22.363281 5.546875 22.449219 5.558594 C 22.542969 5.578125 22.632812 5.59375 22.714844 5.613281 L 22.714844 4.308594 C 22.710938 4.273438 22.695312 4.238281 22.667969 4.210938 C 22.632812 4.203125 22.605469 4.183594 22.570312 4.175781 Z M 22.570312 4.175781 "/>
<path style=" stroke:none;fill-rule:nonzero;fill:rgb(100%,100%,100%);fill-opacity:1;" d="M 10.808594 17.992188 L 11.257812 18.40625 C 11.355469 18.476562 11.414062 18.585938 11.414062 18.703125 C 11.398438 18.773438 11.363281 18.832031 11.3125 18.878906 C 11.261719 18.933594 11.195312 18.96875 11.121094 18.976562 C 10.992188 18.996094 10.898438 18.914062 10.808594 18.828125 L 10.550781 18.589844 L 10.285156 18.855469 L 10.105469 18.6875 Z M 10.671875 18.464844 L 10.898438 18.679688 C 10.953125 18.730469 11.039062 18.808594 11.128906 18.714844 C 11.160156 18.6875 11.175781 18.648438 11.175781 18.605469 C 11.175781 18.5625 11.148438 18.535156 11.066406 18.464844 L 10.863281 18.273438 Z M 10.671875 18.464844 "/>
<path style=" stroke:none;fill-rule:nonzero;fill:rgb(100%,100%,100%);fill-opacity:1;" d="M 12.007812 18.996094 L 12.8125 19.460938 L 12.722656 19.613281 L 12.136719 19.269531 L 12.015625 19.453125 L 12.582031 19.777344 L 12.492188 19.929688 L 11.925781 19.601562 L 11.796875 19.804688 L 12.410156 20.15625 L 12.320312 20.308594 L 11.484375 19.832031 Z M 12.007812 18.996094 "/>
<path style=" stroke:none;fill-rule:nonzero;fill:rgb(100%,100%,100%);fill-opacity:1;" d="M 13.40625 19.71875 L 13.644531 19.796875 L 13.390625 20.546875 L 13.921875 20.714844 L 13.863281 20.878906 L 13.097656 20.632812 Z M 13.40625 19.71875 "/>
<path style=" stroke:none;fill-rule:nonzero;fill:rgb(100%,100%,100%);fill-opacity:1;" d="M 14.789062 20.078125 L 15.035156 20.113281 L 14.882812 21.074219 L 14.632812 21.039062 Z M 14.789062 20.078125 "/>
<path style=" stroke:none;fill-rule:nonzero;fill:rgb(100%,100%,100%);fill-opacity:1;" d="M 16.929688 20.785156 C 16.914062 20.863281 16.871094 20.9375 16.8125 20.996094 C 16.683594 21.105469 16.515625 21.164062 16.34375 21.164062 C 15.988281 21.179688 15.730469 21.003906 15.714844 20.667969 C 15.695312 20.308594 15.996094 20.140625 16.308594 20.132812 C 16.425781 20.121094 16.757812 20.140625 16.902344 20.414062 L 16.628906 20.457031 C 16.5625 20.355469 16.441406 20.300781 16.316406 20.316406 C 16.191406 20.316406 16.074219 20.386719 16.011719 20.496094 C 15.953125 20.605469 15.957031 20.734375 16.027344 20.839844 C 16.09375 20.945312 16.21875 21.003906 16.34375 20.996094 C 16.480469 21.003906 16.609375 20.925781 16.65625 20.800781 Z M 16.929688 20.785156 "/>
<path style=" stroke:none;fill-rule:nonzero;fill:rgb(100%,100%,100%);fill-opacity:1;" d="M 17.828125 19.9375 L 18.09375 19.867188 L 18.84375 20.667969 L 18.570312 20.75 L 18.433594 20.597656 L 17.9375 20.738281 L 17.910156 20.941406 L 17.644531 21.019531 Z M 18.066406 20.175781 C 18.054688 20.164062 18.046875 20.152344 18.039062 20.140625 C 18.027344 20.132812 18.019531 20.117188 18.019531 20.105469 L 18.019531 20.183594 L 17.964844 20.535156 L 18.304688 20.441406 Z M 18.066406 20.175781 "/>
<path style=" stroke:none;fill-rule:nonzero;fill:rgb(100%,100%,100%);fill-opacity:1;" d="M 19.0625 19.507812 L 19.28125 19.382812 L 19.996094 19.601562 C 20.089844 19.628906 20.097656 19.636719 20.199219 19.671875 C 20.144531 19.59375 20.125 19.578125 20.078125 19.507812 L 19.8125 19.082031 L 20.023438 18.960938 L 20.546875 19.796875 L 20.316406 19.910156 L 19.59375 19.691406 C 19.519531 19.664062 19.484375 19.65625 19.402344 19.621094 C 19.4375 19.664062 19.46875 19.710938 19.492188 19.761719 L 19.777344 20.21875 L 19.566406 20.335938 Z M 19.0625 19.507812 "/>
<path style=" stroke:none;fill-rule:nonzero;fill:rgb(100%,100%,100%);fill-opacity:1;" d="M 21.140625 18.914062 C 21.273438 18.945312 21.410156 18.898438 21.496094 18.800781 C 21.542969 18.757812 21.671875 18.625 21.589844 18.535156 C 21.535156 18.484375 21.480469 18.519531 21.433594 18.554688 C 21.398438 18.570312 21.222656 18.695312 21.1875 18.722656 C 21.105469 18.773438 20.914062 18.898438 20.746094 18.738281 C 20.710938 18.707031 20.6875 18.664062 20.675781 18.617188 C 20.636719 18.464844 20.746094 18.316406 20.867188 18.210938 C 20.957031 18.121094 21.066406 18.054688 21.1875 18.015625 C 21.261719 18 21.339844 18 21.414062 18.015625 L 21.289062 18.21875 C 21.25 18.207031 21.207031 18.207031 21.167969 18.21875 C 21.105469 18.246094 21.046875 18.28125 20.996094 18.324219 C 20.914062 18.394531 20.847656 18.492188 20.914062 18.554688 C 20.957031 18.597656 21.011719 18.570312 21.078125 18.535156 C 21.113281 18.519531 21.289062 18.40625 21.324219 18.378906 C 21.425781 18.316406 21.597656 18.210938 21.753906 18.359375 C 21.984375 18.582031 21.707031 18.855469 21.617188 18.933594 C 21.496094 19.046875 21.296875 19.199219 21.023438 19.109375 Z M 21.140625 18.914062 "/>
<path style=" stroke:none;fill-rule:nonzero;fill:rgb(100%,100%,100%);fill-opacity:1;" d="M 14.808594 14.265625 C 14.808594 14.265625 11.191406 13.101562 12.765625 9.390625 C 12.765625 9.390625 8.941406 9.542969 3.707031 11.578125 C 3.707031 11.578125 3.339844 11.726562 3.121094 11.796875 C 2.785156 11.941406 2.398438 11.929688 2.066406 11.769531 C 2.066406 11.769531 6.855469 9.355469 13.015625 8.800781 C 13.828125 8.730469 13.929688 8.84375 13.71875 9.136719 C 13.542969 9.390625 11.347656 12.078125 14.808594 14.265625 Z M 14.808594 14.265625 "/>
<path style=" stroke:none;fill-rule:nonzero;fill:rgb(54.901961%,45.098039%,29.411765%);fill-opacity:1;" d="M 11.59375 10.441406 C 8.503906 10.828125 5.472656 11.867188 5.472656 11.867188 C 5.984375 12.75 7.386719 12.378906 7.386719 12.378906 C 10.011719 11.664062 11.183594 11.417969 11.558594 11.347656 C 11.539062 11.042969 11.550781 10.742188 11.59375 10.441406 Z M 11.59375 10.441406 "/>
<path style=" stroke:none;fill-rule:nonzero;fill:rgb(54.901961%,45.098039%,29.411765%);fill-opacity:1;" d="M 11.613281 11.894531 C 9.957031 12.214844 8.332031 12.652344 6.746094 13.207031 C 6.746094 13.207031 7.429688 13.964844 8.804688 13.585938 C 9.957031 13.269531 11.429688 12.820312 11.871094 12.679688 C 11.753906 12.425781 11.667969 12.164062 11.613281 11.894531 Z M 11.613281 11.894531 "/>
<path style=" stroke:none;fill-rule:nonzero;fill:rgb(54.901961%,45.098039%,29.411765%);fill-opacity:1;" d="M 12.097656 13.101562 C 11.632812 13.242188 9.296875 13.972656 8.308594 14.34375 C 8.308594 14.34375 8.878906 15.074219 10.507812 14.457031 C 11.640625 14.027344 12.273438 13.769531 12.546875 13.664062 C 12.378906 13.492188 12.226562 13.304688 12.097656 13.101562 Z M 12.097656 13.101562 "/>
<path style=" stroke:none;fill-rule:nonzero;fill:rgb(54.901961%,45.098039%,29.411765%);fill-opacity:1;" d="M 12.914062 13.972656 C 12.5 14.140625 10.992188 14.785156 10.113281 15.1875 C 10.113281 15.1875 11.21875 15.707031 12.601562 14.890625 L 13.460938 14.34375 C 13.269531 14.234375 13.085938 14.109375 12.914062 13.972656 Z M 12.914062 13.972656 "/>
<path style=" stroke:none;fill-rule:nonzero;fill:rgb(54.901961%,45.098039%,29.411765%);fill-opacity:1;" d="M 13.882812 14.554688 C 13.609375 14.722656 12.457031 15.417969 11.898438 15.816406 C 11.898438 15.816406 12.847656 16.191406 13.828125 15.304688 C 14.148438 15.011719 14.324219 14.855469 14.414062 14.757812 C 14.234375 14.699219 14.054688 14.632812 13.882812 14.554688 Z M 13.882812 14.554688 "/>
<path style=" stroke:none;fill-rule:nonzero;fill:rgb(100%,100%,100%);fill-opacity:1;" d="M 17.132812 14.265625 C 17.132812 14.265625 20.746094 13.101562 19.171875 9.390625 C 19.171875 9.390625 23 9.542969 28.234375 11.578125 C 28.234375 11.578125 28.601562 11.726562 28.820312 11.796875 C 29.15625 11.941406 29.542969 11.929688 29.871094 11.769531 C 29.871094 11.769531 25.085938 9.355469 18.925781 8.800781 C 18.113281 8.730469 18.011719 8.84375 18.222656 9.136719 C 18.394531 9.390625 20.59375 12.078125 17.132812 14.265625 Z M 17.132812 14.265625 "/>
<path style=" stroke:none;fill-rule:nonzero;fill:rgb(54.901961%,45.098039%,29.411765%);fill-opacity:1;" d="M 20.34375 10.441406 C 23.4375 10.828125 26.46875 11.867188 26.46875 11.867188 C 25.953125 12.75 24.554688 12.378906 24.554688 12.378906 C 21.929688 11.664062 20.757812 11.417969 20.382812 11.347656 C 20.398438 11.042969 20.386719 10.742188 20.34375 10.441406 Z M 20.34375 10.441406 "/>
<path style=" stroke:none;fill-rule:nonzero;fill:rgb(54.901961%,45.098039%,29.411765%);fill-opacity:1;" d="M 20.328125 11.894531 C 21.980469 12.214844 23.609375 12.652344 25.195312 13.207031 C 25.195312 13.207031 24.507812 13.964844 23.136719 13.585938 C 21.984375 13.269531 20.507812 12.820312 20.070312 12.679688 C 20.183594 12.425781 20.269531 12.164062 20.328125 11.894531 Z M 20.328125 11.894531 "/>
<path style=" stroke:none;fill-rule:nonzero;fill:rgb(54.901961%,45.098039%,29.411765%);fill-opacity:1;" d="M 19.839844 13.101562 C 20.308594 13.242188 22.640625 13.972656 23.628906 14.34375 C 23.628906 14.34375 23.0625 15.074219 21.433594 14.457031 C 20.300781 14.027344 19.667969 13.769531 19.394531 13.664062 C 19.5625 13.492188 19.710938 13.304688 19.839844 13.101562 Z M 19.839844 13.101562 "/>
<path style=" stroke:none;fill-rule:nonzero;fill:rgb(54.901961%,45.098039%,29.411765%);fill-opacity:1;" d="M 19.027344 13.972656 C 19.4375 14.140625 20.949219 14.785156 21.828125 15.1875 C 21.828125 15.1875 20.71875 15.707031 19.339844 14.890625 L 18.476562 14.34375 C 18.671875 14.234375 18.855469 14.109375 19.027344 13.972656 Z M 19.027344 13.972656 "/>
<path style=" stroke:none;fill-rule:nonzero;fill:rgb(54.901961%,45.098039%,29.411765%);fill-opacity:1;" d="M 18.058594 14.554688 C 18.332031 14.722656 19.484375 15.417969 20.042969 15.816406 C 20.042969 15.816406 19.089844 16.191406 18.113281 15.304688 C 17.792969 15.011719 17.617188 14.855469 17.527344 14.757812 C 17.691406 14.703125 17.875 14.632812 18.058594 14.554688 Z M 18.058594 14.554688 "/>
<path style=" stroke:none;fill-rule:nonzero;fill:rgb(100%,100%,100%);fill-opacity:1;" d="M 18.925781 16.28125 C 18.925781 17.851562 17.601562 19.128906 15.96875 19.128906 C 14.335938 19.128906 13.015625 17.851562 13.015625 16.28125 C 13.015625 14.710938 14.335938 13.4375 15.96875 13.4375 C 17.601562 13.433594 18.925781 14.710938 18.925781 16.28125 Z M 18.925781 16.28125 "/>
<path style=" stroke:none;fill-rule:nonzero;fill:rgb(54.901961%,45.098039%,29.411765%);fill-opacity:1;" d="M 18.3125 16.871094 C 18.3125 18.117188 17.265625 19.128906 15.96875 19.128906 C 14.675781 19.128906 13.628906 18.117188 13.628906 16.871094 C 13.628906 15.625 14.675781 14.617188 15.96875 14.617188 C 17.261719 14.621094 18.308594 15.628906 18.3125 16.871094 Z M 18.3125 16.871094 "/>
<path style=" stroke:none;fill-rule:nonzero;fill:rgb(3.921569%,13.333333%,25.098039%);fill-opacity:1;" d="M 15.96875 13.214844 C 14.207031 13.214844 12.777344 14.59375 12.777344 16.289062 C 12.777344 17.988281 14.207031 19.363281 15.96875 19.363281 C 17.734375 19.363281 19.164062 17.988281 19.164062 16.289062 C 19.164062 14.59375 17.734375 13.21875 15.96875 13.214844 Z M 18.652344 15.789062 C 18.449219 16.535156 17.925781 17.164062 17.214844 17.515625 C 17.269531 17.136719 17.445312 16.765625 17.617188 16.378906 C 17.875 15.816406 18.15625 15.207031 18.03125 14.554688 C 18.34375 14.90625 18.558594 15.332031 18.652344 15.789062 Z M 14.570312 14.035156 C 14.9375 13.828125 15.34375 13.699219 15.769531 13.664062 L 15.769531 17.796875 C 15.554688 17.78125 15.34375 17.742188 15.136719 17.683594 C 15.117188 17.171875 14.898438 16.695312 14.679688 16.230469 C 14.332031 15.453125 14.03125 14.785156 14.570312 14.035156 Z M 15.117188 18.070312 C 15.335938 18.125 15.554688 18.160156 15.777344 18.175781 L 15.777344 18.90625 C 15.425781 18.882812 15.085938 18.792969 14.769531 18.640625 C 14.949219 18.492188 15.070312 18.292969 15.117188 18.070312 Z M 16.171875 18.175781 C 16.394531 18.167969 16.617188 18.132812 16.832031 18.070312 C 16.878906 18.292969 17 18.492188 17.179688 18.640625 C 16.863281 18.789062 16.519531 18.878906 16.171875 18.90625 Z M 16.804688 17.683594 C 16.597656 17.746094 16.386719 17.785156 16.171875 17.796875 L 16.171875 13.664062 C 16.597656 13.691406 17.007812 13.816406 17.371094 14.035156 C 17.910156 14.785156 17.609375 15.460938 17.25 16.230469 C 17.039062 16.695312 16.820312 17.171875 16.804688 17.683594 Z M 13.910156 14.5625 C 13.792969 15.214844 14.066406 15.824219 14.324219 16.386719 C 14.496094 16.773438 14.671875 17.152344 14.726562 17.53125 C 14.003906 17.1875 13.480469 16.550781 13.289062 15.796875 C 13.375 15.339844 13.589844 14.914062 13.910156 14.5625 Z M 13.28125 16.75 C 13.621094 17.285156 14.128906 17.703125 14.734375 17.945312 C 14.734375 17.964844 14.734375 17.984375 14.726562 18 C 14.699219 18.191406 14.523438 18.351562 14.40625 18.441406 C 13.8125 18.042969 13.410156 17.433594 13.28125 16.75 Z M 17.527344 18.441406 C 17.367188 18.332031 17.253906 18.179688 17.207031 18 C 17.207031 17.980469 17.203125 17.964844 17.195312 17.945312 C 17.796875 17.703125 18.308594 17.28125 18.652344 16.75 C 18.527344 17.433594 18.121094 18.042969 17.527344 18.441406 Z M 17.527344 18.441406 "/>
<path style=" stroke:none;fill-rule:nonzero;fill:rgb(3.921569%,13.333333%,25.098039%);fill-opacity:1;" d="M 16.921875 9.222656 C 16.921875 9.222656 16.894531 9.320312 16.839844 9.320312 C 16.621094 9.25 16.410156 9.160156 16.207031 9.046875 C 16.125 9.003906 16.015625 8.941406 15.980469 8.925781 C 15.980469 8.925781 15.816406 9.003906 15.742188 9.046875 C 15.539062 9.160156 15.328125 9.25 15.109375 9.320312 C 15.046875 9.320312 15.027344 9.222656 15.027344 9.222656 C 15.027344 9.222656 14.019531 9.804688 14.019531 11.417969 C 14.019531 12.617188 14.671875 13.164062 14.671875 13.164062 L 14.761719 13.507812 L 17.195312 13.507812 L 17.289062 13.164062 C 17.289062 13.164062 17.9375 12.617188 17.9375 11.417969 C 17.917969 9.816406 16.921875 9.222656 16.921875 9.222656 Z M 16.921875 9.222656 "/>
<path style=" stroke:none;fill-rule:nonzero;fill:rgb(100%,100%,100%);fill-opacity:1;" d="M 17.398438 11.023438 C 17.402344 10.601562 17.246094 10.191406 16.957031 9.875 C 16.957031 9.875 16.949219 10.015625 16.703125 9.859375 C 16.488281 9.714844 16.230469 9.636719 15.96875 9.636719 C 15.707031 9.636719 15.449219 9.714844 15.230469 9.859375 C 14.992188 10.015625 14.980469 9.875 14.980469 9.875 C 14.695312 10.195312 14.539062 10.601562 14.542969 11.023438 C 14.542969 11.4375 14.652344 11.636719 14.6875 11.699219 C 14.867188 12.230469 15.378906 12.59375 15.957031 12.597656 C 16.539062 12.601562 17.058594 12.246094 17.242188 11.71875 C 17.261719 11.691406 17.398438 11.496094 17.398438 11.023438 Z M 17.398438 11.023438 "/>
<path style=" stroke:none;fill-rule:nonzero;fill:rgb(3.921569%,13.333333%,25.098039%);fill-opacity:1;" d="M 16.511719 12.140625 C 16.421875 11.992188 16.457031 11.808594 16.59375 11.699219 C 16.59375 11.699219 17.125 11.804688 17.132812 11.136719 C 17.132812 11.0625 17.15625 10.988281 17.195312 10.925781 C 17.195312 10.925781 17.058594 10.808594 16.765625 11.023438 C 16.472656 11.234375 16.316406 11.832031 16.152344 11.691406 C 15.996094 11.550781 16.050781 10.765625 15.96875 10.738281 C 15.886719 10.765625 15.941406 11.550781 15.785156 11.691406 C 15.632812 11.832031 15.464844 11.234375 15.175781 11.023438 C 14.882812 10.808594 14.742188 10.925781 14.742188 10.925781 C 14.785156 10.988281 14.804688 11.0625 14.808594 11.136719 C 14.816406 11.804688 15.347656 11.699219 15.347656 11.699219 C 15.480469 11.804688 15.515625 11.984375 15.4375 12.132812 C 15.4375 12.132812 15.4375 12.136719 15.4375 12.136719 C 15.433594 12.140625 15.433594 12.140625 15.429688 12.140625 C 14.796875 11.488281 14.433594 11.578125 14.617188 12.308594 C 14.789062 13.023438 15.476562 16.085938 15.578125 16.800781 C 15.558594 17.445312 15.484375 17.671875 15.464844 17.71875 L 15.402344 17.851562 L 15.476562 18 C 15.566406 18.132812 15.644531 18.273438 15.703125 18.421875 L 15.960938 19.058594 L 16.21875 18.421875 C 16.277344 18.269531 16.351562 18.125 16.445312 17.992188 L 16.527344 17.851562 L 16.457031 17.707031 C 16.4375 17.664062 16.363281 17.445312 16.34375 16.828125 C 16.4375 16.191406 17.132812 13.03125 17.304688 12.300781 C 17.5 11.585938 17.132812 11.496094 16.511719 12.140625 Z M 16.511719 12.140625 "/>
<path style=" stroke:none;fill-rule:nonzero;fill:rgb(80.784314%,5.490196%,17.647059%);fill-opacity:1;" d="M 15.539062 15.339844 C 15.3125 14.195312 15.136719 13.355469 14.992188 12.738281 C 14.882812 12.273438 15.175781 12.457031 15.328125 12.75 Z M 15.539062 15.339844 "/>
<path style=" stroke:none;fill-rule:nonzero;fill:rgb(80.784314%,5.490196%,17.647059%);fill-opacity:1;" d="M 16.398438 15.339844 C 16.628906 14.195312 16.804688 13.355469 16.949219 12.738281 C 17.058594 12.273438 16.765625 12.457031 16.609375 12.75 Z M 16.398438 15.339844 "/>
<path style=" stroke:none;fill-rule:nonzero;fill:rgb(80.784314%,5.490196%,17.647059%);fill-opacity:1;" d="M 15.191406 11.480469 C 15.171875 11.476562 15.152344 11.464844 15.140625 11.445312 C 15.128906 11.425781 15.128906 11.402344 15.136719 11.382812 C 15.144531 11.367188 15.15625 11.355469 15.164062 11.339844 C 15.132812 11.300781 15.09375 11.269531 15.054688 11.242188 C 15.054688 11.242188 14.980469 11.566406 15.285156 11.53125 C 15.273438 11.507812 15.261719 11.484375 15.246094 11.460938 C 15.238281 11.480469 15.210938 11.480469 15.191406 11.480469 Z M 15.191406 11.480469 "/>
<path style=" stroke:none;fill-rule:nonzero;fill:rgb(80.784314%,5.490196%,17.647059%);fill-opacity:1;" d="M 16.886719 11.242188 C 16.84375 11.269531 16.808594 11.300781 16.777344 11.339844 C 16.789062 11.351562 16.800781 11.367188 16.804688 11.382812 C 16.8125 11.425781 16.789062 11.464844 16.746094 11.480469 C 16.726562 11.484375 16.703125 11.484375 16.683594 11.472656 C 16.667969 11.492188 16.65625 11.515625 16.648438 11.542969 C 16.957031 11.578125 16.886719 11.242188 16.886719 11.242188 Z M 16.886719 11.242188 "/>
<path style=" stroke:none;fill-rule:nonzero;fill:rgb(80.784314%,5.490196%,17.647059%);fill-opacity:1;" d="M 16.117188 15.761719 C 16.21875 14 16.363281 12.75 16.363281 12.589844 C 16.363281 12.523438 16.351562 12.453125 16.335938 12.386719 L 16.226562 12.722656 L 16.191406 12.132812 C 16.128906 12.054688 16.054688 11.992188 15.96875 11.9375 L 15.960938 11.9375 C 15.882812 11.992188 15.8125 12.058594 15.75 12.132812 L 15.714844 12.722656 L 15.605469 12.386719 C 15.582031 12.453125 15.574219 12.519531 15.578125 12.589844 C 15.578125 12.75 15.722656 13.992188 15.824219 15.761719 C 15.925781 17.523438 15.695312 17.851562 15.695312 17.851562 C 15.800781 18.011719 15.890625 18.183594 15.96875 18.359375 C 16.050781 18.183594 16.140625 18.011719 16.246094 17.851562 C 16.246094 17.859375 16.015625 17.53125 16.117188 15.761719 Z M 16.117188 15.761719 "/>
</g>
</svg>
