<?xml version="1.0" encoding="UTF-8"?>
<svg xmlns="http://www.w3.org/2000/svg" xmlns:xlink="http://www.w3.org/1999/xlink" width="32px" height="32px" viewBox="0 0 32 32" version="1.1">
<g id="surface1">
<path style=" stroke:none;fill-rule:nonzero;fill:rgb(100%,100%,100%);fill-opacity:1;" d="M 24.363281 16 C 24.363281 20.625 20.617188 24.375 15.992188 24.375 C 11.367188 24.375 7.617188 20.625 7.617188 16 C 7.617188 11.375 11.367188 7.625 15.992188 7.625 C 20.617188 7.625 24.363281 11.375 24.363281 16 "/>
<path style=" stroke:none;fill-rule:nonzero;fill:rgb(49.803922%,49.019608%,48.627451%);fill-opacity:1;" d="M 7.425781 16 C 7.425781 20.730469 11.261719 24.566406 15.992188 24.566406 C 20.71875 24.566406 24.554688 20.730469 24.554688 16 C 24.554688 11.269531 20.71875 7.4375 15.992188 7.4375 C 11.261719 7.441406 7.433594 11.273438 7.425781 16 M 7.804688 16 C 7.804688 11.480469 11.46875 7.816406 15.992188 7.816406 C 20.511719 7.816406 24.175781 11.480469 24.175781 16 C 24.175781 20.519531 20.511719 24.183594 15.992188 24.183594 C 11.472656 24.179688 7.8125 20.519531 7.804688 16 "/>
<path style=" stroke:none;fill-rule:nonzero;fill:rgb(49.803922%,49.019608%,48.627451%);fill-opacity:1;" d="M 0 16 C 0 24.835938 7.164062 32 16 32 C 24.835938 32 32 24.835938 32 16 C 32 7.164062 24.835938 0 16 0 C 7.167969 0.0117188 0.0117188 7.167969 0 16 "/>
<path style=" stroke:none;fill-rule:nonzero;fill:rgb(100%,100%,100%);fill-opacity:1;" d="M 0.507812 16 C 0.507812 7.445312 7.445312 0.507812 16 0.507812 C 24.558594 0.507812 31.492188 7.445312 31.492188 16 C 31.492188 24.558594 24.554688 31.496094 16 31.496094 C 7.445312 31.484375 0.515625 24.554688 0.507812 16 "/>
<path style=" stroke:none;fill-rule:nonzero;fill:rgb(20.392157%,27.058824%,45.882353%);fill-opacity:1;" d="M 12.316406 24.359375 L 16.011719 25.082031 L 24.511719 18.28125 L 24.855469 14.324219 Z M 12.316406 24.359375 "/>
<path style=" stroke:none;fill-rule:nonzero;fill:rgb(100%,100%,100%);fill-opacity:1;" d="M 24.75 14.183594 L 11.898438 24.460938 L 16.0625 25.277344 L 24.691406 18.375 L 25.082031 13.914062 Z M 24.644531 14.734375 C 24.585938 15.394531 24.351562 18.054688 24.34375 18.1875 C 24.222656 18.285156 16.097656 24.785156 15.96875 24.886719 C 15.828125 24.859375 13.347656 24.375 12.742188 24.253906 C 13.3125 23.800781 24.027344 15.226562 24.644531 14.734375 "/>
<path style=" stroke:none;fill-rule:nonzero;fill:rgb(20.392157%,27.058824%,45.882353%);fill-opacity:1;" d="M 7.625 20.855469 L 22.570312 8.902344 L 24.363281 11.144531 L 9.421875 23.101562 Z M 7.625 20.855469 "/>
<path style=" stroke:none;fill-rule:nonzero;fill:rgb(100%,100%,100%);fill-opacity:1;" d="M 22.453125 8.757812 L 7.371094 20.828125 L 9.394531 23.355469 L 24.621094 11.171875 L 22.597656 8.644531 Z M 22.539062 9.15625 C 22.726562 9.390625 23.921875 10.882812 24.105469 11.117188 C 23.832031 11.335938 9.726562 22.621094 9.449219 22.84375 C 9.261719 22.609375 8.070312 21.117188 7.882812 20.882812 C 8.160156 20.664062 22.261719 9.378906 22.539062 9.15625 "/>
<path style=" stroke:none;fill-rule:nonzero;fill:rgb(20.392157%,27.058824%,45.882353%);fill-opacity:1;" d="M 19.957031 7.472656 C 18.871094 7.058594 17.761719 6.71875 16.628906 6.457031 L 6.488281 14.570312 L 6.722656 14.804688 L 6.722656 18.0625 Z M 19.957031 7.472656 "/>
<path style=" stroke:none;fill-rule:nonzero;fill:rgb(100%,100%,100%);fill-opacity:1;" d="M 16.515625 6.3125 L 6.214844 14.554688 C 6.214844 14.554688 6.476562 14.816406 6.542969 14.878906 L 6.542969 18.441406 L 20.316406 7.421875 L 20.023438 7.304688 C 18.929688 6.886719 17.8125 6.542969 16.671875 6.277344 L 16.585938 6.257812 Z M 16.675781 6.65625 C 17.664062 6.890625 18.636719 7.183594 19.59375 7.53125 C 19.121094 7.910156 7.464844 17.238281 6.90625 17.683594 L 6.90625 14.726562 C 6.90625 14.726562 6.804688 14.628906 6.765625 14.585938 C 7.070312 14.339844 16.539062 6.761719 16.675781 6.65625 "/>
<path style=" stroke:none;fill-rule:nonzero;fill:rgb(84.705882%,43.921569%,26.27451%);fill-opacity:1;" d="M 5.480469 16 C 5.480469 21.808594 10.191406 26.519531 16 26.519531 C 21.808594 26.519531 26.519531 21.808594 26.519531 16 C 26.519531 10.191406 21.808594 5.480469 16 5.480469 C 10.191406 5.488281 5.488281 10.195312 5.480469 16 M 7.761719 16 C 7.761719 11.449219 11.449219 7.761719 16 7.761719 C 20.550781 7.761719 24.238281 11.449219 24.238281 16 C 24.238281 20.550781 20.550781 24.238281 16 24.238281 C 11.453125 24.234375 7.765625 20.546875 7.761719 16 "/>
<path style=" stroke:none;fill-rule:nonzero;fill:rgb(49.803922%,49.019608%,48.627451%);fill-opacity:1;" d="M 7.4375 16 C 7.4375 20.730469 11.269531 24.566406 16 24.566406 C 20.730469 24.566406 24.566406 20.730469 24.566406 16 C 24.566406 11.269531 20.730469 7.4375 16 7.4375 C 11.273438 7.441406 7.441406 11.273438 7.4375 16 M 7.816406 16 C 7.816406 11.480469 11.480469 7.816406 16 7.816406 C 20.519531 7.816406 24.183594 11.480469 24.183594 16 C 24.183594 20.519531 20.519531 24.183594 16 24.183594 C 11.484375 24.179688 7.820312 20.519531 7.816406 16 "/>
<path style=" stroke:none;fill-rule:nonzero;fill:rgb(49.803922%,49.019608%,48.627451%);fill-opacity:1;" d="M 5.144531 16 C 5.144531 21.996094 10.007812 26.855469 16 26.855469 C 21.996094 26.855469 26.855469 21.996094 26.855469 16 C 26.855469 10.007812 21.996094 5.144531 16 5.144531 C 10.007812 5.152344 5.152344 10.007812 5.144531 16 M 5.527344 16 C 5.527344 10.214844 10.214844 5.527344 16 5.527344 C 21.785156 5.527344 26.472656 10.214844 26.472656 16 C 26.472656 21.785156 21.785156 26.472656 16 26.472656 C 10.21875 26.46875 5.535156 21.78125 5.527344 16 "/>
<path style=" stroke:none;fill-rule:nonzero;fill:rgb(20.392157%,27.058824%,45.882353%);fill-opacity:1;" d="M 3.097656 23.273438 C 2.988281 23.292969 2.988281 23.292969 2.953125 23.238281 C 2.941406 23.222656 2.914062 23.175781 2.894531 23.136719 C 2.816406 23.003906 2.765625 22.925781 2.691406 22.8125 C 2.648438 22.742188 2.585938 22.652344 2.539062 22.589844 C 2.515625 22.550781 2.484375 22.511719 2.476562 22.496094 C 2.425781 22.417969 2.429688 22.367188 2.488281 22.328125 C 2.542969 22.292969 2.597656 22.324219 2.679688 22.433594 C 2.777344 22.558594 2.851562 22.5625 3.039062 22.433594 L 4.5625 21.40625 C 4.824219 21.226562 4.839844 21.1875 4.726562 20.960938 C 4.695312 20.890625 4.699219 20.84375 4.746094 20.8125 C 4.800781 20.777344 4.863281 20.8125 4.925781 20.910156 C 4.941406 20.933594 4.957031 20.960938 4.96875 20.988281 C 5.105469 21.238281 5.210938 21.421875 5.273438 21.519531 C 5.339844 21.625 5.433594 21.75 5.53125 21.882812 C 5.554688 21.917969 5.585938 21.960938 5.597656 21.976562 C 5.644531 22.050781 5.640625 22.109375 5.59375 22.136719 C 5.527344 22.179688 5.492188 22.160156 5.378906 22.019531 C 5.28125 21.898438 5.199219 21.890625 5.042969 21.996094 L 3.554688 22.976562 L 5.417969 22.652344 C 5.5 22.636719 5.582031 22.621094 5.664062 22.601562 C 5.886719 22.550781 5.914062 22.550781 5.96875 22.640625 C 6.003906 22.691406 6 22.757812 5.957031 22.800781 L 4.65625 24.664062 L 5.753906 24.023438 C 5.855469 23.964844 5.980469 23.890625 6.101562 23.816406 C 6.316406 23.679688 6.359375 23.578125 6.265625 23.410156 C 6.171875 23.261719 6.167969 23.210938 6.234375 23.167969 C 6.285156 23.136719 6.34375 23.164062 6.390625 23.238281 C 6.398438 23.253906 6.421875 23.296875 6.441406 23.335938 C 6.480469 23.414062 6.53125 23.5 6.582031 23.578125 C 6.636719 23.667969 6.695312 23.753906 6.761719 23.835938 C 6.792969 23.875 6.828125 23.921875 6.839844 23.941406 C 6.878906 24.007812 6.875 24.054688 6.828125 24.085938 C 6.773438 24.117188 6.742188 24.101562 6.632812 23.980469 C 6.53125 23.871094 6.46875 23.871094 6.277344 23.980469 L 4.6875 24.875 C 4.644531 24.898438 4.609375 24.917969 4.558594 24.949219 L 4.492188 24.992188 C 4.386719 25.058594 4.378906 25.109375 4.457031 25.253906 C 4.527344 25.382812 4.53125 25.4375 4.472656 25.472656 C 4.417969 25.511719 4.363281 25.484375 4.304688 25.386719 L 4.0625 24.984375 C 4.007812 24.902344 3.902344 24.738281 3.863281 24.683594 L 3.835938 24.644531 C 3.804688 24.59375 3.804688 24.574219 3.847656 24.515625 L 4.921875 22.964844 Z M 3.097656 23.273438 "/>
<path style=" stroke:none;fill-rule:nonzero;fill:rgb(20.392157%,27.058824%,45.882353%);fill-opacity:1;" d="M 2.539062 20.324219 C 2.417969 19.941406 2.789062 19.496094 3.386719 19.308594 C 3.914062 19.140625 4.359375 19.253906 4.464844 19.582031 C 4.582031 19.960938 4.199219 20.417969 3.609375 20.601562 C 3.082031 20.769531 2.640625 20.652344 2.539062 20.324219 M 2.410156 20.339844 C 2.5 20.644531 2.703125 20.902344 2.984375 21.058594 C 3.261719 21.210938 3.589844 21.246094 3.894531 21.15625 C 4.21875 21.054688 4.476562 20.808594 4.59375 20.492188 C 4.683594 20.195312 4.683594 19.878906 4.59375 19.582031 C 4.511719 19.273438 4.304688 19.011719 4.027344 18.855469 C 3.75 18.699219 3.421875 18.660156 3.113281 18.75 C 2.804688 18.863281 2.558594 19.09375 2.425781 19.394531 C 2.292969 19.695312 2.289062 20.035156 2.410156 20.339844 "/>
<path style=" stroke:none;fill-rule:nonzero;fill:rgb(20.392157%,27.058824%,45.882353%);fill-opacity:1;" d="M 2.246094 16.609375 C 1.984375 16.632812 1.964844 16.65625 1.949219 16.933594 C 1.949219 16.96875 1.921875 16.996094 1.890625 17 C 1.835938 17.003906 1.804688 16.96875 1.800781 16.890625 C 1.796875 16.863281 1.792969 16.839844 1.796875 16.8125 C 1.789062 16.6875 1.785156 16.605469 1.777344 16.535156 C 1.773438 16.480469 1.761719 16.417969 1.75 16.363281 C 1.742188 16.324219 1.734375 16.28125 1.734375 16.261719 C 1.726562 16.195312 1.75 16.160156 1.800781 16.15625 C 1.855469 16.148438 1.875 16.179688 1.910156 16.324219 C 1.9375 16.441406 1.988281 16.464844 2.1875 16.445312 L 3.945312 16.273438 C 4.042969 16.261719 4.066406 16.277344 4.074219 16.355469 C 4.082031 16.414062 4.058594 16.453125 3.984375 16.523438 L 2.351562 18.109375 L 3.554688 17.992188 C 3.789062 17.96875 3.867188 17.949219 3.917969 17.898438 C 3.957031 17.851562 3.957031 17.855469 3.960938 17.65625 C 3.957031 17.613281 3.988281 17.574219 4.03125 17.5625 C 4.074219 17.558594 4.101562 17.597656 4.109375 17.660156 C 4.109375 17.671875 4.109375 17.703125 4.113281 17.730469 C 4.113281 17.828125 4.117188 17.925781 4.128906 18.019531 C 4.136719 18.097656 4.148438 18.179688 4.160156 18.238281 C 4.167969 18.269531 4.175781 18.300781 4.179688 18.335938 C 4.1875 18.390625 4.160156 18.429688 4.117188 18.433594 C 4.0625 18.4375 4.039062 18.402344 4.023438 18.292969 C 4 18.148438 3.921875 18.125 3.53125 18.164062 L 2.601562 18.253906 C 2.21875 18.300781 2.320312 18.289062 2.292969 18.296875 C 2.136719 18.316406 2.101562 18.351562 2.101562 18.464844 C 2.105469 18.578125 2.089844 18.609375 2.035156 18.617188 C 1.988281 18.621094 1.960938 18.585938 1.953125 18.507812 L 1.929688 18.179688 L 1.898438 17.875 C 1.886719 17.761719 1.886719 17.75 1.960938 17.679688 L 3.144531 16.519531 Z M 2.246094 16.609375 "/>
<path style=" stroke:none;fill-rule:nonzero;fill:rgb(20.392157%,27.058824%,45.882353%);fill-opacity:1;" d="M 3.632812 14.707031 C 3.875 14.726562 3.894531 14.710938 3.957031 14.472656 C 3.96875 14.433594 3.992188 14.414062 4.023438 14.417969 C 4.074219 14.421875 4.09375 14.453125 4.089844 14.507812 L 4.089844 14.527344 C 4.082031 14.578125 4.085938 14.546875 4.074219 14.628906 L 4.070312 14.660156 L 4.070312 14.683594 L 4.0625 14.710938 L 4.0625 14.738281 C 4.050781 14.835938 4.039062 14.921875 4.03125 15.046875 C 4.019531 15.15625 4.019531 15.230469 4.011719 15.378906 L 4.011719 15.402344 L 4.007812 15.433594 L 4.007812 15.496094 C 4.007812 15.515625 4.007812 15.535156 4.003906 15.554688 C 4 15.613281 3.976562 15.640625 3.925781 15.636719 C 3.878906 15.632812 3.875 15.625 3.859375 15.484375 C 3.84375 15.339844 3.792969 15.304688 3.585938 15.289062 L 2.019531 15.160156 C 1.964844 15.15625 1.957031 15.164062 1.949219 15.257812 C 1.933594 15.464844 1.984375 15.566406 2.199219 15.742188 C 2.277344 15.804688 2.3125 15.851562 2.308594 15.890625 C 2.304688 15.929688 2.269531 15.957031 2.230469 15.953125 C 2.21875 15.949219 2.203125 15.945312 2.1875 15.941406 L 1.710938 15.765625 C 1.660156 15.746094 1.636719 15.714844 1.640625 15.675781 C 1.640625 15.640625 1.664062 15.613281 1.699219 15.609375 C 1.773438 15.585938 1.78125 15.582031 1.789062 15.503906 L 1.898438 14.160156 C 1.90625 14.03125 1.890625 13.984375 1.824219 13.933594 C 1.773438 13.898438 1.757812 13.875 1.761719 13.839844 C 1.765625 13.796875 1.800781 13.773438 1.851562 13.785156 L 2.382812 13.882812 C 2.457031 13.898438 2.480469 13.921875 2.476562 13.972656 C 2.472656 14.015625 2.4375 14.042969 2.363281 14.066406 C 2.070312 14.160156 2.03125 14.203125 2.007812 14.484375 C 2.003906 14.558594 2.011719 14.574219 2.0625 14.578125 Z M 3.632812 14.707031 "/>
<path style=" stroke:none;fill-rule:nonzero;fill:rgb(20.392157%,27.058824%,45.882353%);fill-opacity:1;" d="M 2.660156 12.78125 C 2.363281 12.703125 2.304688 12.648438 2.347656 12.484375 C 2.425781 12.246094 2.683594 12.121094 2.921875 12.199219 C 3.214844 12.273438 3.363281 12.46875 3.300781 12.710938 C 3.261719 12.859375 3.207031 12.917969 3.113281 12.894531 Z M 3.398438 12.964844 C 3.363281 12.953125 3.351562 12.941406 3.359375 12.90625 C 3.375 12.867188 3.390625 12.824219 3.417969 12.789062 C 3.488281 12.6875 3.539062 12.574219 3.574219 12.453125 C 3.660156 12.085938 3.433594 11.71875 3.070312 11.628906 C 2.683594 11.53125 2.378906 11.769531 2.253906 12.261719 C 2.234375 12.34375 2.203125 12.492188 2.179688 12.625 C 2.148438 12.789062 2.125 12.921875 2.109375 12.980469 C 2.089844 13.054688 2.078125 13.109375 2.039062 13.238281 C 2.003906 13.347656 1.996094 13.367188 1.996094 13.378906 C 1.988281 13.398438 1.980469 13.417969 1.976562 13.4375 C 1.964844 13.492188 1.980469 13.527344 2.027344 13.539062 C 2.058594 13.546875 2.085938 13.527344 2.101562 13.492188 C 2.203125 13.269531 2.226562 13.257812 2.460938 13.316406 L 3.773438 13.648438 C 3.972656 13.699219 4.015625 13.742188 4.007812 13.886719 C 4 14.023438 4.003906 14.035156 4.050781 14.046875 C 4.097656 14.058594 4.128906 14.035156 4.140625 13.980469 C 4.144531 13.960938 4.148438 13.941406 4.152344 13.921875 L 4.160156 13.890625 L 4.164062 13.859375 L 4.179688 13.804688 C 4.207031 13.660156 4.222656 13.589844 4.246094 13.488281 C 4.277344 13.371094 4.300781 13.289062 4.328125 13.199219 L 4.332031 13.167969 L 4.34375 13.144531 L 4.359375 13.089844 C 4.378906 13.011719 4.375 13.042969 4.386719 12.992188 L 4.394531 12.972656 C 4.40625 12.917969 4.390625 12.882812 4.34375 12.871094 C 4.3125 12.863281 4.285156 12.882812 4.269531 12.917969 C 4.167969 13.140625 4.144531 13.152344 3.914062 13.09375 Z M 3.398438 12.964844 "/>
<path style=" stroke:none;fill-rule:nonzero;fill:rgb(20.392157%,27.058824%,45.882353%);fill-opacity:1;" d="M 4.523438 11.046875 C 4.761719 11.152344 4.890625 11.105469 4.984375 10.894531 C 5.09375 10.679688 5.066406 10.421875 4.910156 10.242188 C 4.84375 10.15625 4.828125 10.117188 4.847656 10.070312 C 4.855469 10.050781 4.871094 10.039062 4.890625 10.03125 C 4.90625 10.023438 4.925781 10.027344 4.945312 10.035156 C 4.996094 10.0625 5.042969 10.09375 5.089844 10.128906 C 5.167969 10.1875 5.25 10.238281 5.335938 10.28125 C 5.378906 10.304688 5.386719 10.320312 5.371094 10.355469 C 5.363281 10.371094 5.339844 10.421875 5.320312 10.464844 C 5.261719 10.589844 5.175781 10.765625 5.078125 10.992188 C 4.988281 11.199219 4.863281 11.480469 4.820312 11.585938 C 4.757812 11.730469 4.78125 11.679688 4.679688 11.941406 C 4.671875 11.960938 4.667969 11.980469 4.660156 12 C 4.636719 12.050781 4.601562 12.066406 4.558594 12.046875 C 4.515625 12.027344 4.511719 12.019531 4.542969 11.882812 C 4.574219 11.742188 4.542969 11.691406 4.351562 11.605469 L 3.113281 11.0625 C 2.890625 10.964844 2.867188 10.96875 2.730469 11.175781 C 2.714844 11.207031 2.679688 11.222656 2.648438 11.207031 C 2.601562 11.1875 2.59375 11.152344 2.617188 11.101562 L 2.625 11.082031 L 2.636719 11.066406 L 2.644531 11.046875 L 2.652344 11.019531 L 2.671875 10.992188 L 2.683594 10.964844 L 2.695312 10.941406 L 2.707031 10.914062 L 2.71875 10.890625 C 2.769531 10.796875 2.804688 10.710938 2.878906 10.539062 C 2.933594 10.417969 2.996094 10.265625 3.035156 10.167969 C 3.292969 9.523438 3.214844 9.71875 3.28125 9.542969 L 3.292969 9.519531 C 3.308594 9.480469 3.332031 9.472656 3.371094 9.488281 L 3.488281 9.542969 L 3.695312 9.628906 C 3.785156 9.667969 3.796875 9.6875 3.773438 9.742188 C 3.757812 9.777344 3.730469 9.792969 3.636719 9.804688 C 3.453125 9.808594 3.289062 9.925781 3.226562 10.101562 C 3.101562 10.390625 3.101562 10.421875 3.226562 10.476562 L 3.710938 10.691406 C 3.796875 10.726562 3.835938 10.71875 3.863281 10.65625 C 4.011719 10.3125 4.011719 10.253906 3.871094 10.132812 C 3.804688 10.070312 3.78125 10.03125 3.800781 9.988281 C 3.808594 9.964844 3.828125 9.953125 3.847656 9.945312 C 3.871094 9.941406 3.890625 9.945312 3.910156 9.957031 L 4.214844 10.109375 L 4.480469 10.210938 C 4.539062 10.238281 4.558594 10.273438 4.539062 10.316406 C 4.523438 10.359375 4.484375 10.375 4.414062 10.371094 C 4.222656 10.359375 4.128906 10.40625 4.074219 10.523438 L 4.050781 10.585938 C 3.964844 10.808594 3.964844 10.800781 4.0625 10.84375 Z M 4.523438 11.046875 "/>
<path style=" stroke:none;fill-rule:nonzero;fill:rgb(20.392157%,27.058824%,45.882353%);fill-opacity:1;" d="M 4.089844 9.035156 C 3.886719 8.90625 3.859375 8.910156 3.695312 9.089844 C 3.675781 9.117188 3.636719 9.125 3.609375 9.109375 C 3.566406 9.082031 3.5625 9.042969 3.59375 8.996094 C 3.601562 8.984375 3.609375 8.972656 3.617188 8.964844 L 3.628906 8.949219 L 3.644531 8.921875 L 3.664062 8.898438 L 3.679688 8.871094 L 3.695312 8.851562 L 3.726562 8.804688 C 3.777344 8.730469 3.832031 8.652344 3.894531 8.5625 C 3.960938 8.457031 3.996094 8.398438 4.070312 8.265625 L 4.101562 8.21875 L 4.117188 8.1875 L 4.132812 8.164062 C 4.140625 8.144531 4.152344 8.128906 4.164062 8.113281 C 4.195312 8.066406 4.230469 8.050781 4.269531 8.082031 C 4.308594 8.105469 4.308594 8.117188 4.257812 8.246094 C 4.203125 8.378906 4.230469 8.433594 4.40625 8.546875 L 5.515625 9.265625 C 5.707031 9.386719 5.835938 9.367188 5.941406 9.203125 C 6.074219 9.007812 6.078125 8.753906 5.953125 8.558594 C 5.910156 8.484375 5.90625 8.445312 5.929688 8.410156 C 5.9375 8.390625 5.953125 8.378906 5.96875 8.375 C 5.988281 8.371094 6.007812 8.375 6.019531 8.386719 C 6.085938 8.433594 6.148438 8.484375 6.207031 8.542969 C 6.253906 8.589844 6.300781 8.632812 6.355469 8.671875 C 6.410156 8.714844 6.414062 8.734375 6.378906 8.789062 L 6.359375 8.824219 C 6.296875 8.914062 6.300781 8.90625 6.191406 9.058594 C 6.105469 9.175781 6.019531 9.304688 5.886719 9.511719 C 5.761719 9.707031 5.664062 9.863281 5.554688 10.050781 C 5.515625 10.117188 5.503906 10.144531 5.496094 10.152344 C 5.488281 10.171875 5.480469 10.1875 5.46875 10.203125 C 5.4375 10.25 5.402344 10.265625 5.359375 10.238281 C 5.320312 10.210938 5.320312 10.199219 5.371094 10.074219 C 5.425781 9.941406 5.402344 9.882812 5.226562 9.769531 Z M 4.089844 9.035156 "/>
<path style=" stroke:none;fill-rule:nonzero;fill:rgb(20.392157%,27.058824%,45.882353%);fill-opacity:1;" d="M 5.292969 7.300781 C 5.113281 7.140625 5.085938 7.140625 4.894531 7.289062 C 4.871094 7.316406 4.832031 7.316406 4.808594 7.296875 C 4.769531 7.261719 4.773438 7.226562 4.808594 7.183594 L 4.839844 7.15625 L 4.851562 7.140625 L 4.894531 7.097656 L 4.914062 7.074219 L 4.933594 7.054688 L 4.953125 7.039062 L 4.972656 7.015625 C 5.035156 6.953125 5.101562 6.882812 5.171875 6.800781 C 5.253906 6.707031 5.300781 6.652344 5.394531 6.535156 L 5.410156 6.515625 L 5.433594 6.492188 L 5.453125 6.464844 L 5.46875 6.445312 C 5.480469 6.429688 5.492188 6.414062 5.507812 6.398438 C 5.546875 6.355469 5.582031 6.347656 5.617188 6.382812 C 5.652344 6.410156 5.652344 6.425781 5.582031 6.542969 C 5.507812 6.667969 5.523438 6.726562 5.679688 6.863281 L 6.671875 7.742188 C 6.839844 7.894531 6.96875 7.894531 7.101562 7.746094 C 7.261719 7.574219 7.304688 7.324219 7.210938 7.109375 C 7.179688 7.03125 7.179688 6.992188 7.207031 6.957031 C 7.21875 6.945312 7.234375 6.933594 7.253906 6.933594 C 7.269531 6.933594 7.289062 6.9375 7.300781 6.953125 C 7.359375 7.007812 7.414062 7.070312 7.460938 7.136719 C 7.5 7.1875 7.542969 7.234375 7.589844 7.285156 C 7.640625 7.335938 7.640625 7.355469 7.597656 7.40625 L 7.570312 7.433594 C 7.492188 7.515625 7.5 7.507812 7.367188 7.644531 C 7.265625 7.746094 7.160156 7.859375 7 8.042969 C 6.847656 8.214844 6.722656 8.359375 6.589844 8.523438 C 6.539062 8.585938 6.523438 8.609375 6.515625 8.617188 C 6.503906 8.632812 6.492188 8.648438 6.480469 8.664062 C 6.441406 8.707031 6.40625 8.714844 6.367188 8.679688 C 6.332031 8.648438 6.335938 8.636719 6.40625 8.519531 C 6.480469 8.394531 6.460938 8.335938 6.304688 8.199219 Z M 5.292969 7.300781 "/>
<path style=" stroke:none;fill-rule:nonzero;fill:rgb(20.392157%,27.058824%,45.882353%);fill-opacity:1;" d="M 8.0625 6.429688 C 8.222656 6.613281 8.246094 6.617188 8.457031 6.488281 C 8.480469 6.46875 8.519531 6.472656 8.542969 6.496094 C 8.578125 6.535156 8.570312 6.570312 8.527344 6.609375 L 8.511719 6.621094 C 8.46875 6.652344 8.496094 6.628906 8.429688 6.683594 L 8.410156 6.703125 L 8.386719 6.71875 L 8.367188 6.734375 L 8.34375 6.753906 C 8.277344 6.808594 8.199219 6.871094 8.125 6.9375 C 8 7.046875 7.992188 7.050781 7.777344 7.257812 C 7.761719 7.269531 7.75 7.285156 7.734375 7.296875 C 7.691406 7.335938 7.65625 7.335938 7.621094 7.300781 C 7.589844 7.265625 7.59375 7.253906 7.679688 7.144531 C 7.769531 7.03125 7.757812 6.96875 7.621094 6.8125 L 6.734375 5.792969 C 6.574219 5.609375 6.550781 5.605469 6.339844 5.734375 C 6.3125 5.753906 6.273438 5.75 6.253906 5.726562 C 6.21875 5.691406 6.226562 5.652344 6.269531 5.613281 C 6.28125 5.605469 6.289062 5.597656 6.300781 5.59375 L 6.316406 5.578125 L 6.339844 5.558594 L 6.367188 5.539062 L 6.386719 5.519531 L 6.40625 5.503906 L 6.429688 5.488281 L 6.453125 5.46875 C 6.515625 5.417969 6.597656 5.351562 6.664062 5.292969 C 6.796875 5.175781 6.796875 5.175781 7.019531 4.964844 C 7.03125 4.953125 7.046875 4.9375 7.0625 4.925781 C 7.105469 4.890625 7.140625 4.886719 7.175781 4.921875 C 7.203125 4.957031 7.199219 4.96875 7.117188 5.078125 C 7.027344 5.191406 7.039062 5.253906 7.171875 5.410156 Z M 8.0625 6.429688 "/>
<path style=" stroke:none;fill-rule:nonzero;fill:rgb(20.392157%,27.058824%,45.882353%);fill-opacity:1;" d="M 9.078125 5.59375 C 9.222656 5.8125 9.351562 5.84375 9.546875 5.714844 C 9.753906 5.597656 9.871094 5.363281 9.839844 5.128906 C 9.828125 5.023438 9.839844 4.980469 9.882812 4.949219 C 9.898438 4.941406 9.917969 4.9375 9.933594 4.941406 C 9.953125 4.945312 9.96875 4.957031 9.980469 4.972656 C 10.007812 5.023438 10.03125 5.078125 10.050781 5.132812 C 10.085938 5.222656 10.128906 5.308594 10.175781 5.394531 C 10.199219 5.4375 10.195312 5.453125 10.164062 5.476562 C 10.148438 5.484375 10.101562 5.511719 10.0625 5.539062 C 9.945312 5.609375 9.78125 5.714844 9.570312 5.851562 C 9.382812 5.972656 9.128906 6.140625 9.035156 6.207031 C 8.902344 6.292969 8.949219 6.261719 8.722656 6.429688 C 8.707031 6.441406 8.691406 6.453125 8.671875 6.464844 C 8.625 6.496094 8.589844 6.492188 8.5625 6.453125 C 8.535156 6.414062 8.539062 6.402344 8.640625 6.304688 C 8.742188 6.207031 8.742188 6.144531 8.628906 5.972656 L 7.882812 4.839844 C 7.75 4.636719 7.730469 4.628906 7.503906 4.726562 C 7.472656 4.746094 7.433594 4.738281 7.414062 4.707031 C 7.386719 4.667969 7.398438 4.632812 7.445312 4.601562 L 7.464844 4.589844 L 7.480469 4.582031 L 7.5 4.570312 L 7.523438 4.554688 L 7.554688 4.539062 L 7.578125 4.523438 L 7.597656 4.507812 L 7.625 4.496094 L 7.648438 4.480469 C 7.738281 4.429688 7.816406 4.378906 7.972656 4.273438 C 8.085938 4.199219 8.222656 4.105469 8.308594 4.046875 C 8.871094 3.644531 8.699219 3.769531 8.851562 3.65625 L 8.875 3.640625 C 8.910156 3.617188 8.933594 3.625 8.957031 3.660156 L 9.023438 3.769531 L 9.152344 3.953125 C 9.207031 4.035156 9.207031 4.058594 9.160156 4.089844 C 9.125 4.113281 9.09375 4.109375 9.011719 4.070312 C 8.851562 3.972656 8.648438 3.984375 8.503906 4.097656 C 8.242188 4.269531 8.222656 4.296875 8.300781 4.410156 L 8.589844 4.851562 C 8.644531 4.933594 8.679688 4.941406 8.734375 4.90625 C 9.050781 4.699219 9.082031 4.652344 9.027344 4.472656 C 9.003906 4.382812 9.007812 4.335938 9.046875 4.308594 C 9.066406 4.296875 9.089844 4.296875 9.109375 4.300781 C 9.128906 4.308594 9.148438 4.324219 9.15625 4.34375 L 9.328125 4.636719 L 9.496094 4.871094 C 9.53125 4.921875 9.527344 4.964844 9.488281 4.988281 C 9.449219 5.015625 9.410156 5.007812 9.351562 4.964844 C 9.199219 4.851562 9.09375 4.839844 8.984375 4.910156 L 8.929688 4.949219 C 8.738281 5.089844 8.742188 5.082031 8.800781 5.175781 Z M 9.078125 5.59375 "/>
<path style=" stroke:none;fill-rule:nonzero;fill:rgb(20.392157%,27.058824%,45.882353%);fill-opacity:1;" d="M 10.289062 3.335938 C 10.230469 3.203125 10.257812 3.144531 10.386719 3.085938 C 10.488281 3.050781 10.601562 3.054688 10.699219 3.101562 C 10.800781 3.148438 10.875 3.230469 10.910156 3.335938 C 10.964844 3.445312 10.964844 3.574219 10.917969 3.6875 C 10.867188 3.800781 10.769531 3.886719 10.652344 3.921875 C 10.570312 3.957031 10.554688 3.953125 10.511719 3.855469 Z M 9.625 3.265625 L 9.59375 3.277344 L 9.570312 3.285156 L 9.542969 3.296875 L 9.511719 3.308594 L 9.488281 3.320312 L 9.46875 3.328125 C 9.453125 3.332031 9.441406 3.335938 9.429688 3.339844 C 9.378906 3.363281 9.359375 3.394531 9.378906 3.441406 C 9.394531 3.472656 9.429688 3.484375 9.460938 3.472656 C 9.699219 3.417969 9.722656 3.429688 9.816406 3.648438 L 10.351562 4.894531 C 10.433594 5.085938 10.425781 5.148438 10.304688 5.226562 C 10.191406 5.304688 10.183594 5.316406 10.203125 5.355469 C 10.222656 5.402344 10.257812 5.410156 10.3125 5.390625 C 10.328125 5.382812 10.347656 5.371094 10.363281 5.363281 L 10.390625 5.351562 L 10.421875 5.335938 L 10.449219 5.324219 L 10.472656 5.3125 C 10.601562 5.25 10.667969 5.21875 10.753906 5.179688 C 10.867188 5.132812 10.941406 5.101562 11.035156 5.070312 L 11.0625 5.054688 L 11.085938 5.050781 L 11.109375 5.039062 L 11.136719 5.027344 C 11.214844 4.996094 11.183594 5.011719 11.234375 4.992188 L 11.253906 4.984375 C 11.304688 4.960938 11.320312 4.929688 11.300781 4.886719 C 11.289062 4.855469 11.253906 4.839844 11.222656 4.851562 C 10.984375 4.90625 10.960938 4.894531 10.863281 4.675781 L 10.640625 4.15625 C 10.617188 4.097656 10.621094 4.082031 10.667969 4.0625 C 10.769531 4.019531 10.820312 4.039062 11.011719 4.203125 L 11.636719 4.730469 C 11.6875 4.78125 11.707031 4.78125 11.761719 4.757812 C 11.777344 4.753906 11.789062 4.746094 11.800781 4.738281 C 11.832031 4.71875 11.878906 4.699219 11.929688 4.671875 C 11.976562 4.648438 12.007812 4.632812 12.015625 4.632812 L 12.316406 4.519531 C 12.335938 4.515625 12.351562 4.503906 12.363281 4.484375 C 12.375 4.464844 12.375 4.445312 12.367188 4.425781 C 12.351562 4.386719 12.324219 4.375 12.269531 4.386719 C 12.152344 4.414062 12.128906 4.402344 11.984375 4.285156 L 11.523438 3.898438 C 11.414062 3.78125 11.25 3.734375 11.09375 3.78125 C 11.445312 3.570312 11.554688 3.335938 11.4375 3.0625 C 11.371094 2.914062 11.242188 2.796875 11.085938 2.75 C 10.929688 2.703125 10.761719 2.722656 10.621094 2.808594 C 10.539062 2.84375 10.421875 2.902344 10.296875 2.964844 C 10.140625 3.046875 9.992188 3.117188 9.910156 3.152344 C 9.804688 3.199219 9.75 3.222656 9.648438 3.257812 Z M 9.625 3.265625 "/>
<path style=" stroke:none;fill-rule:nonzero;fill:rgb(20.392157%,27.058824%,45.882353%);fill-opacity:1;" d="M 15.058594 2.375 C 15.140625 2.367188 15.152344 2.347656 15.144531 2.257812 L 15.085938 1.6875 C 15.050781 1.375 15.03125 1.351562 14.714844 1.328125 C 14.660156 1.320312 14.628906 1.296875 14.625 1.25 C 14.617188 1.191406 14.652344 1.15625 14.726562 1.148438 C 14.742188 1.144531 14.761719 1.144531 14.777344 1.148438 L 14.839844 1.140625 L 14.878906 1.140625 L 14.921875 1.136719 L 14.957031 1.132812 L 14.992188 1.132812 L 15.027344 1.128906 C 15.152344 1.125 15.261719 1.113281 15.4375 1.097656 C 15.574219 1.082031 15.671875 1.066406 15.859375 1.039062 L 15.929688 1.03125 L 15.972656 1.023438 L 16.011719 1.019531 C 16.039062 1.015625 16.0625 1.011719 16.089844 1.007812 C 16.160156 1 16.203125 1.027344 16.210938 1.085938 C 16.214844 1.148438 16.203125 1.160156 16.03125 1.207031 C 15.847656 1.261719 15.8125 1.335938 15.84375 1.609375 L 16.023438 3.371094 C 16.054688 3.683594 16.074219 3.707031 16.398438 3.730469 C 16.445312 3.726562 16.484375 3.761719 16.488281 3.808594 C 16.496094 3.867188 16.460938 3.902344 16.386719 3.910156 L 16.359375 3.914062 C 16.292969 3.914062 16.28125 3.914062 16.082031 3.929688 C 15.976562 3.933594 15.835938 3.945312 15.734375 3.957031 C 15.488281 3.980469 15.492188 3.980469 15.097656 4.039062 C 15.074219 4.042969 15.046875 4.046875 15.023438 4.050781 C 14.949219 4.058594 14.910156 4.03125 14.902344 3.96875 C 14.894531 3.90625 14.902344 3.898438 15.082031 3.84375 C 15.261719 3.792969 15.292969 3.722656 15.265625 3.449219 L 15.191406 2.710938 C 15.171875 2.578125 15.167969 2.574219 15.09375 2.582031 L 14.175781 2.675781 C 14.054688 2.691406 14.054688 2.695312 14.0625 2.804688 L 14.140625 3.5625 C 14.171875 3.875 14.191406 3.898438 14.511719 3.925781 C 14.558594 3.921875 14.597656 3.957031 14.601562 4.003906 C 14.609375 4.0625 14.574219 4.097656 14.5 4.101562 L 14.476562 4.105469 C 14.40625 4.109375 14.402344 4.109375 14.199219 4.121094 C 14.085938 4.128906 13.957031 4.136719 13.828125 4.148438 C 13.613281 4.171875 13.597656 4.175781 13.214844 4.230469 C 13.1875 4.238281 13.164062 4.242188 13.136719 4.242188 C 13.0625 4.25 13.023438 4.226562 13.015625 4.164062 C 13.007812 4.101562 13.023438 4.089844 13.195312 4.039062 C 13.375 3.984375 13.410156 3.914062 13.382812 3.640625 L 13.203125 1.878906 C 13.171875 1.566406 13.148438 1.542969 12.828125 1.519531 C 12.769531 1.511719 12.742188 1.488281 12.738281 1.4375 C 12.730469 1.386719 12.769531 1.347656 12.839844 1.339844 C 12.855469 1.339844 12.875 1.339844 12.890625 1.339844 L 12.917969 1.335938 L 13 1.335938 L 13.039062 1.332031 L 13.070312 1.328125 L 13.105469 1.328125 L 13.144531 1.324219 C 13.257812 1.316406 13.390625 1.304688 13.519531 1.292969 C 13.734375 1.269531 13.746094 1.269531 14.128906 1.214844 C 14.15625 1.207031 14.179688 1.203125 14.203125 1.199219 C 14.273438 1.195312 14.316406 1.21875 14.324219 1.28125 C 14.328125 1.34375 14.320312 1.355469 14.144531 1.402344 C 13.964844 1.457031 13.933594 1.527344 13.960938 1.804688 L 14.019531 2.371094 C 14.027344 2.457031 14.050781 2.476562 14.140625 2.46875 Z M 15.058594 2.375 "/>
<path style=" stroke:none;fill-rule:nonzero;fill:rgb(20.392157%,27.058824%,45.882353%);fill-opacity:1;" d="M 17.675781 2.460938 C 17.738281 2.464844 17.800781 2.496094 17.839844 2.546875 C 17.878906 2.601562 17.894531 2.664062 17.882812 2.730469 C 17.867188 2.902344 17.773438 2.929688 17.351562 2.882812 C 17.25 2.871094 17.222656 2.855469 17.230469 2.804688 C 17.269531 2.59375 17.460938 2.445312 17.675781 2.460938 M 18.195312 3.113281 C 18.3125 3.125 18.359375 3.09375 18.371094 2.996094 C 18.40625 2.675781 18.085938 2.378906 17.636719 2.332031 C 17.394531 2.292969 17.144531 2.351562 16.941406 2.496094 C 16.742188 2.636719 16.609375 2.855469 16.570312 3.101562 C 16.527344 3.617188 16.910156 4.066406 17.425781 4.109375 C 17.683594 4.140625 17.9375 4.078125 18.152344 3.933594 C 18.21875 3.886719 18.261719 3.839844 18.265625 3.800781 C 18.265625 3.785156 18.261719 3.773438 18.25 3.761719 C 18.242188 3.75 18.226562 3.742188 18.210938 3.742188 C 18.175781 3.746094 18.136719 3.757812 18.105469 3.78125 C 17.988281 3.859375 17.851562 3.894531 17.710938 3.882812 C 17.535156 3.851562 17.375 3.75 17.273438 3.601562 C 17.167969 3.453125 17.128906 3.269531 17.164062 3.089844 C 17.171875 3.015625 17.191406 3 17.253906 3.007812 Z M 17.410156 2.117188 C 17.421875 2.132812 17.425781 2.136719 17.433594 2.140625 C 17.457031 2.136719 17.480469 2.128906 17.5 2.117188 L 18.238281 1.796875 C 18.28125 1.78125 18.296875 1.765625 18.300781 1.746094 C 18.300781 1.730469 18.296875 1.71875 18.289062 1.703125 L 18.214844 1.582031 C 18.195312 1.550781 18.195312 1.546875 18.179688 1.542969 C 18.152344 1.546875 18.128906 1.558594 18.109375 1.574219 L 17.433594 2.003906 C 17.378906 2.039062 17.378906 2.035156 17.378906 2.042969 C 17.378906 2.050781 17.378906 2.050781 17.394531 2.078125 Z M 17.410156 2.117188 "/>
<path style=" stroke:none;fill-rule:nonzero;fill:rgb(20.392157%,27.058824%,45.882353%);fill-opacity:1;" d="M 18.777344 3.246094 C 18.824219 3.058594 18.804688 3.003906 18.664062 2.957031 C 18.597656 2.9375 18.578125 2.914062 18.585938 2.875 C 18.597656 2.828125 18.597656 2.828125 18.792969 2.820312 C 18.964844 2.796875 19.132812 2.746094 19.292969 2.671875 C 19.375 2.632812 19.398438 2.625 19.433594 2.636719 C 19.464844 2.644531 19.46875 2.664062 19.460938 2.707031 L 19.402344 2.9375 C 19.390625 2.976562 19.390625 2.996094 19.402344 2.996094 C 19.414062 2.996094 19.421875 2.992188 19.425781 2.984375 C 19.578125 2.871094 19.769531 2.820312 19.957031 2.851562 C 20.117188 2.882812 20.226562 3.035156 20.195312 3.199219 C 20.160156 3.324219 20.046875 3.414062 19.917969 3.417969 C 19.789062 3.425781 19.667969 3.347656 19.621094 3.226562 C 19.578125 3.144531 19.558594 3.117188 19.527344 3.113281 C 19.472656 3.109375 19.421875 3.140625 19.398438 3.1875 C 19.339844 3.289062 19.296875 3.398438 19.277344 3.511719 L 19.164062 3.953125 C 19.097656 4.210938 19.101562 4.214844 19.292969 4.308594 C 19.347656 4.332031 19.367188 4.367188 19.355469 4.40625 C 19.34375 4.449219 19.300781 4.464844 19.230469 4.445312 C 19.207031 4.4375 19.1875 4.433594 19.167969 4.425781 C 19.007812 4.375 18.859375 4.335938 18.78125 4.316406 C 18.710938 4.296875 18.554688 4.261719 18.402344 4.226562 C 18.378906 4.226562 18.359375 4.21875 18.339844 4.214844 C 18.265625 4.195312 18.234375 4.164062 18.246094 4.121094 C 18.253906 4.082031 18.289062 4.0625 18.347656 4.066406 C 18.5625 4.078125 18.566406 4.070312 18.628906 3.816406 Z M 18.777344 3.246094 "/>
<path style=" stroke:none;fill-rule:nonzero;fill:rgb(20.392157%,27.058824%,45.882353%);fill-opacity:1;" d="M 21.011719 4.371094 C 20.984375 4.453125 20.933594 4.527344 20.863281 4.582031 C 20.773438 4.628906 20.671875 4.632812 20.582031 4.597656 C 20.53125 4.574219 20.496094 4.53125 20.476562 4.480469 C 20.457031 4.429688 20.464844 4.371094 20.488281 4.324219 C 20.535156 4.21875 20.632812 4.148438 20.742188 4.136719 C 20.859375 4.109375 20.976562 4.097656 21.09375 4.101562 C 21.109375 4.105469 21.109375 4.125 21.097656 4.152344 Z M 21.199219 3.917969 C 21.183594 3.953125 21.183594 3.953125 21.042969 3.957031 L 20.945312 3.960938 L 20.84375 3.964844 L 20.746094 3.96875 C 20.585938 3.976562 20.464844 3.988281 20.371094 3.996094 C 20.191406 4 20.027344 4.109375 19.957031 4.277344 C 19.914062 4.367188 19.914062 4.472656 19.957031 4.5625 C 19.996094 4.65625 20.070312 4.726562 20.167969 4.757812 C 20.261719 4.796875 20.367188 4.816406 20.46875 4.8125 C 20.597656 4.804688 20.726562 4.773438 20.84375 4.726562 C 20.851562 4.722656 20.859375 4.722656 20.871094 4.726562 C 20.882812 4.730469 20.886719 4.746094 20.886719 4.757812 L 20.894531 4.871094 C 20.894531 4.894531 20.898438 4.910156 20.902344 4.929688 C 20.929688 5.011719 20.992188 5.074219 21.070312 5.101562 C 21.214844 5.152344 21.371094 5.152344 21.511719 5.097656 C 21.59375 5.070312 21.640625 5.039062 21.65625 5.003906 C 21.667969 4.976562 21.65625 4.945312 21.628906 4.933594 C 21.617188 4.925781 21.601562 4.925781 21.585938 4.933594 C 21.453125 4.953125 21.464844 4.949219 21.433594 4.9375 C 21.375 4.910156 21.375 4.855469 21.425781 4.730469 L 21.773438 3.898438 C 21.871094 3.65625 21.742188 3.472656 21.351562 3.3125 C 21.128906 3.214844 20.882812 3.191406 20.644531 3.242188 C 20.507812 3.273438 20.382812 3.351562 20.300781 3.464844 C 20.289062 3.492188 20.292969 3.519531 20.304688 3.542969 C 20.316406 3.566406 20.335938 3.582031 20.363281 3.589844 C 20.464844 3.625 20.574219 3.640625 20.679688 3.636719 C 20.769531 3.632812 20.804688 3.609375 20.898438 3.519531 C 21.015625 3.40625 21.132812 3.363281 21.230469 3.402344 C 21.339844 3.449219 21.351562 3.546875 21.273438 3.738281 Z M 21.199219 3.917969 "/>
<path style=" stroke:none;fill-rule:nonzero;fill:rgb(20.392157%,27.058824%,45.882353%);fill-opacity:1;" d="M 22.25 4.304688 C 22.386719 4.082031 22.386719 4.074219 22.230469 3.929688 C 22.1875 3.890625 22.179688 3.851562 22.203125 3.816406 C 22.226562 3.78125 22.269531 3.777344 22.332031 3.820312 C 22.351562 3.832031 22.371094 3.84375 22.386719 3.855469 L 22.457031 3.898438 L 22.488281 3.921875 C 22.585938 3.988281 22.667969 4.042969 22.703125 4.066406 L 22.8125 4.132812 C 22.839844 4.148438 22.871094 4.164062 22.898438 4.183594 C 22.949219 4.214844 22.949219 4.222656 22.898438 4.304688 L 22.378906 5.136719 C 22.257812 5.335938 22.269531 5.488281 22.414062 5.578125 C 22.507812 5.628906 22.617188 5.644531 22.722656 5.621094 C 22.785156 5.605469 22.808594 5.585938 22.863281 5.496094 L 23.226562 4.914062 C 23.363281 4.6875 23.363281 4.679688 23.210938 4.535156 C 23.164062 4.496094 23.152344 4.457031 23.175781 4.421875 C 23.199219 4.382812 23.242188 4.382812 23.308594 4.425781 C 23.3125 4.429688 23.339844 4.445312 23.359375 4.460938 L 23.429688 4.507812 L 23.464844 4.527344 C 23.546875 4.585938 23.609375 4.628906 23.617188 4.632812 C 23.664062 4.660156 23.707031 4.6875 23.804688 4.746094 L 23.882812 4.792969 C 23.921875 4.820312 23.925781 4.828125 23.886719 4.890625 L 23.3125 5.8125 C 23.203125 5.992188 23.203125 6.019531 23.320312 6.113281 C 23.359375 6.144531 23.371094 6.171875 23.351562 6.199219 C 23.328125 6.238281 23.285156 6.234375 23.164062 6.1875 C 23.054688 6.148438 22.921875 6.109375 22.769531 6.070312 C 22.652344 6.046875 22.640625 6.042969 22.617188 6.03125 C 22.585938 6.011719 22.585938 5.992188 22.609375 5.953125 L 22.6875 5.828125 C 22.707031 5.796875 22.710938 5.773438 22.695312 5.761719 C 22.675781 5.75 22.691406 5.753906 22.550781 5.761719 C 22.371094 5.78125 22.191406 5.742188 22.039062 5.652344 C 21.90625 5.578125 21.8125 5.449219 21.785156 5.296875 C 21.757812 5.148438 21.796875 4.992188 21.894531 4.875 Z M 22.25 4.304688 "/>
<path style=" stroke:none;fill-rule:nonzero;fill:rgb(20.392157%,27.058824%,45.882353%);fill-opacity:1;" d="M 24.085938 6.523438 C 23.917969 6.726562 23.917969 6.730469 24.054688 6.898438 C 24.09375 6.941406 24.097656 6.980469 24.070312 7.011719 C 24.042969 7.046875 23.996094 7.042969 23.9375 6.996094 C 23.929688 6.988281 23.90625 6.96875 23.890625 6.949219 C 23.761719 6.835938 23.652344 6.742188 23.578125 6.683594 C 23.53125 6.644531 23.398438 6.539062 23.277344 6.449219 C 23.261719 6.4375 23.242188 6.425781 23.226562 6.410156 C 23.167969 6.363281 23.152344 6.320312 23.179688 6.289062 C 23.207031 6.253906 23.246094 6.253906 23.296875 6.28125 C 23.484375 6.382812 23.492188 6.378906 23.660156 6.171875 L 24.636719 4.976562 C 24.761719 4.824219 24.757812 4.792969 24.636719 4.644531 C 24.605469 4.609375 24.605469 4.582031 24.628906 4.554688 C 24.660156 4.515625 24.699219 4.527344 24.824219 4.597656 C 24.984375 4.695312 25.160156 4.765625 25.339844 4.8125 C 25.359375 4.816406 25.375 4.820312 25.386719 4.832031 C 25.417969 4.855469 25.414062 4.894531 25.371094 4.945312 Z M 24.085938 6.523438 "/>
<path style=" stroke:none;fill-rule:nonzero;fill:rgb(20.392157%,27.058824%,45.882353%);fill-opacity:1;" d="M 25.085938 6.195312 C 25.167969 6.113281 25.175781 6.085938 25.136719 6.046875 L 25.054688 5.96875 C 25.011719 5.925781 24.996094 5.890625 25.023438 5.867188 C 25.046875 5.839844 25.089844 5.847656 25.171875 5.878906 C 25.367188 5.96875 25.589844 5.988281 25.800781 5.933594 C 25.902344 5.90625 25.941406 5.90625 25.972656 5.9375 C 26.011719 5.976562 26.011719 6.003906 25.964844 6.050781 L 25.765625 6.253906 C 25.703125 6.316406 25.699219 6.351562 25.746094 6.398438 L 25.9375 6.585938 C 25.988281 6.636719 25.988281 6.652344 25.941406 6.699219 C 25.890625 6.753906 25.863281 6.757812 25.820312 6.714844 L 25.644531 6.542969 C 25.589844 6.492188 25.566406 6.492188 25.511719 6.546875 L 25.023438 7.050781 C 24.800781 7.28125 24.75 7.40625 24.839844 7.492188 C 24.878906 7.527344 24.925781 7.546875 24.976562 7.554688 C 25.066406 7.570312 25.074219 7.574219 25.085938 7.585938 C 25.105469 7.605469 25.105469 7.636719 25.085938 7.65625 C 25.023438 7.691406 24.949219 7.707031 24.878906 7.695312 C 24.714844 7.679688 24.558594 7.613281 24.4375 7.5 C 24.226562 7.292969 24.242188 7.0625 24.480469 6.816406 Z M 25.085938 6.195312 "/>
<path style=" stroke:none;fill-rule:nonzero;fill:rgb(20.392157%,27.058824%,45.882353%);fill-opacity:1;" d="M 28.277344 8.703125 C 28.214844 8.75 28.167969 8.746094 28.128906 8.691406 C 28.09375 8.644531 28.105469 8.59375 28.167969 8.515625 C 28.386719 8.226562 28.421875 8.003906 28.28125 7.796875 C 28.160156 7.570312 27.875 7.480469 27.644531 7.597656 C 27.515625 7.695312 27.460938 7.863281 27.515625 8.015625 C 27.523438 8.050781 27.527344 8.082031 27.535156 8.121094 L 27.570312 8.238281 L 27.609375 8.355469 L 27.640625 8.46875 C 27.820312 8.867188 27.699219 9.335938 27.351562 9.601562 C 27.09375 9.757812 26.777344 9.804688 26.484375 9.722656 C 26.191406 9.644531 25.945312 9.449219 25.800781 9.183594 C 25.625 8.9375 25.515625 8.648438 25.488281 8.347656 C 25.492188 8.308594 25.507812 8.285156 25.582031 8.230469 C 25.625 8.195312 25.671875 8.164062 25.722656 8.132812 C 25.792969 8.078125 25.835938 8.046875 25.855469 8.035156 C 26.023438 7.921875 26.074219 7.910156 26.121094 7.976562 C 26.148438 8.023438 26.144531 8.085938 26.105469 8.125 C 26.097656 8.148438 26.140625 8.082031 25.957031 8.316406 C 25.769531 8.535156 25.769531 8.859375 25.957031 9.074219 C 26.023438 9.210938 26.140625 9.3125 26.28125 9.359375 C 26.425781 9.40625 26.582031 9.390625 26.714844 9.320312 C 26.871094 9.214844 26.945312 9.023438 26.902344 8.839844 C 26.890625 8.773438 26.878906 8.699219 26.820312 8.414062 C 26.6875 7.785156 26.746094 7.480469 27.039062 7.28125 C 27.570312 7.027344 28.207031 7.234375 28.480469 7.753906 C 28.597656 7.925781 28.679688 8.121094 28.71875 8.324219 C 28.722656 8.382812 28.703125 8.414062 28.636719 8.460938 Z M 28.277344 8.703125 "/>
<path style=" stroke:none;fill-rule:nonzero;fill:rgb(20.392157%,27.058824%,45.882353%);fill-opacity:1;" d="M 27.933594 10.414062 C 27.988281 10.378906 28.050781 10.367188 28.113281 10.375 C 28.203125 10.402344 28.273438 10.464844 28.3125 10.550781 C 28.414062 10.777344 28.222656 11.078125 27.882812 11.230469 C 27.511719 11.394531 27.179688 11.335938 27.070312 11.09375 C 26.996094 10.925781 27.066406 10.800781 27.296875 10.695312 Z M 26.824219 10.90625 C 26.871094 10.886719 26.890625 10.886719 26.90625 10.914062 C 26.910156 10.925781 26.910156 10.933594 26.914062 10.941406 C 26.921875 11.058594 26.953125 11.167969 27 11.273438 C 27.097656 11.496094 27.277344 11.667969 27.503906 11.753906 C 27.730469 11.839844 27.980469 11.832031 28.199219 11.734375 C 28.402344 11.652344 28.5625 11.496094 28.644531 11.300781 C 28.730469 11.101562 28.730469 10.878906 28.648438 10.679688 C 28.609375 10.578125 28.539062 10.492188 28.449219 10.433594 C 28.238281 10.300781 28.246094 10.304688 28.242188 10.289062 C 28.230469 10.269531 28.246094 10.25 28.292969 10.230469 L 28.464844 10.152344 C 28.503906 10.136719 28.515625 10.117188 28.5 10.085938 C 28.488281 10.054688 28.476562 10.050781 28.367188 10.011719 C 28.210938 9.941406 28.074219 9.835938 27.972656 9.699219 C 27.839844 9.53125 27.84375 9.535156 27.796875 9.554688 C 27.78125 9.5625 27.769531 9.574219 27.765625 9.589844 C 27.761719 9.605469 27.761719 9.621094 27.769531 9.636719 C 27.832031 9.839844 27.824219 9.859375 27.617188 9.949219 L 26.296875 10.539062 C 26.101562 10.625 26.035156 10.617188 25.953125 10.492188 C 25.871094 10.378906 25.863281 10.367188 25.816406 10.390625 C 25.769531 10.410156 25.757812 10.449219 25.785156 10.5 C 25.792969 10.519531 25.800781 10.539062 25.8125 10.558594 L 25.824219 10.585938 L 25.839844 10.613281 L 25.851562 10.644531 L 25.863281 10.667969 C 25.933594 10.808594 25.964844 10.867188 26.007812 10.964844 C 26.046875 11.050781 26.082031 11.136719 26.117188 11.222656 L 26.128906 11.25 L 26.136719 11.277344 L 26.148438 11.300781 L 26.160156 11.328125 L 26.171875 11.363281 L 26.183594 11.390625 L 26.191406 11.410156 C 26.195312 11.421875 26.199219 11.4375 26.207031 11.449219 C 26.230469 11.503906 26.261719 11.519531 26.308594 11.5 C 26.34375 11.484375 26.355469 11.445312 26.34375 11.414062 C 26.28125 11.167969 26.292969 11.144531 26.523438 11.039062 Z M 26.824219 10.90625 "/>
<path style=" stroke:none;fill-rule:nonzero;fill:rgb(20.392157%,27.058824%,45.882353%);fill-opacity:1;" d="M 29.230469 12.664062 C 29.296875 12.925781 29 13.210938 28.542969 13.328125 C 28.128906 13.429688 27.8125 13.34375 27.757812 13.113281 C 27.691406 12.855469 28.015625 12.554688 28.480469 12.4375 C 28.855469 12.347656 29.175781 12.441406 29.230469 12.664062 M 29.367188 12.691406 C 29.328125 12.429688 29.179688 12.199219 28.964844 12.050781 C 28.75 11.898438 28.480469 11.84375 28.222656 11.894531 C 27.984375 11.96875 27.789062 12.136719 27.671875 12.359375 C 27.558594 12.582031 27.539062 12.839844 27.617188 13.078125 C 27.660156 13.335938 27.808594 13.566406 28.023438 13.71875 C 28.242188 13.867188 28.507812 13.925781 28.765625 13.875 C 29.257812 13.714844 29.527344 13.183594 29.367188 12.691406 "/>
<path style=" stroke:none;fill-rule:nonzero;fill:rgb(20.392157%,27.058824%,45.882353%);fill-opacity:1;" d="M 28.9375 14.304688 C 29.132812 14.289062 29.175781 14.25 29.171875 14.097656 C 29.171875 14.03125 29.183594 14.003906 29.226562 14 C 29.273438 13.996094 29.273438 13.996094 29.347656 14.175781 C 29.425781 14.332031 29.53125 14.472656 29.652344 14.597656 C 29.714844 14.660156 29.730469 14.683594 29.734375 14.71875 C 29.738281 14.746094 29.71875 14.761719 29.679688 14.765625 L 29.441406 14.789062 C 29.398438 14.792969 29.382812 14.796875 29.382812 14.8125 C 29.382812 14.816406 29.390625 14.824219 29.402344 14.828125 C 29.5625 14.933594 29.671875 15.097656 29.707031 15.285156 C 29.722656 15.421875 29.640625 15.550781 29.507812 15.589844 C 29.375 15.628906 29.234375 15.574219 29.167969 15.453125 C 29.105469 15.328125 29.132812 15.179688 29.242188 15.09375 C 29.304688 15.023438 29.320312 15 29.316406 14.96875 C 29.3125 14.925781 29.265625 14.886719 29.203125 14.871094 C 29.089844 14.847656 28.96875 14.847656 28.855469 14.867188 L 28.402344 14.90625 C 28.140625 14.929688 28.136719 14.933594 28.113281 15.148438 C 28.105469 15.207031 28.082031 15.234375 28.042969 15.238281 C 27.996094 15.246094 27.96875 15.207031 27.960938 15.132812 C 27.960938 15.113281 27.960938 15.089844 27.960938 15.066406 C 27.949219 14.902344 27.941406 14.75 27.933594 14.667969 C 27.925781 14.597656 27.910156 14.4375 27.886719 14.28125 C 27.882812 14.261719 27.878906 14.238281 27.878906 14.21875 C 27.871094 14.140625 27.890625 14.101562 27.9375 14.097656 C 27.976562 14.09375 28.007812 14.121094 28.023438 14.175781 C 28.082031 14.378906 28.089844 14.382812 28.351562 14.359375 Z M 28.9375 14.304688 "/>
<path style=" stroke:none;fill-rule:nonzero;fill:rgb(20.392157%,27.058824%,45.882353%);fill-opacity:1;" d="M 29.367188 16.027344 C 29.484375 16.03125 29.507812 16.019531 29.511719 15.964844 L 29.515625 15.851562 C 29.515625 15.789062 29.535156 15.757812 29.566406 15.757812 C 29.601562 15.757812 29.628906 15.796875 29.65625 15.875 C 29.726562 16.082031 29.863281 16.257812 30.042969 16.375 C 30.136719 16.429688 30.160156 16.460938 30.160156 16.503906 C 30.160156 16.5625 30.136719 16.574219 30.070312 16.574219 L 29.785156 16.566406 C 29.699219 16.5625 29.667969 16.585938 29.667969 16.648438 L 29.660156 16.917969 C 29.65625 16.992188 29.648438 17 29.578125 17 C 29.503906 16.996094 29.484375 16.980469 29.484375 16.917969 L 29.492188 16.675781 C 29.496094 16.601562 29.476562 16.582031 29.398438 16.582031 L 28.699219 16.5625 C 28.378906 16.554688 28.25 16.601562 28.246094 16.726562 C 28.25 16.777344 28.265625 16.828125 28.296875 16.867188 C 28.34375 16.945312 28.347656 16.953125 28.347656 16.972656 C 28.34375 17 28.324219 17.019531 28.296875 17.019531 C 28.226562 17 28.167969 16.953125 28.128906 16.890625 C 28.023438 16.761719 27.96875 16.601562 27.972656 16.433594 C 27.980469 16.140625 28.15625 15.996094 28.5 16.003906 Z M 29.367188 16.027344 "/>
<path style=" stroke:none;fill-rule:nonzero;fill:rgb(20.392157%,27.058824%,45.882353%);fill-opacity:1;" d="M 27.644531 20.476562 C 27.550781 20.457031 27.472656 20.386719 27.453125 20.292969 C 27.371094 19.988281 27.375 19.667969 27.464844 19.367188 C 27.550781 19.011719 27.71875 18.683594 27.953125 18.410156 C 28.3125 18.035156 28.847656 17.875 29.355469 17.996094 C 29.785156 18.148438 30.132812 18.46875 30.324219 18.882812 C 30.515625 19.296875 30.53125 19.773438 30.367188 20.199219 C 30.304688 20.4375 30.203125 20.667969 30.078125 20.878906 C 30.050781 20.929688 30 20.960938 29.945312 20.953125 L 29.585938 20.921875 C 29.550781 20.914062 29.53125 20.914062 29.519531 20.910156 C 29.472656 20.898438 29.441406 20.847656 29.453125 20.800781 C 29.464844 20.75 29.515625 20.714844 29.625 20.671875 C 29.980469 20.542969 30.117188 20.410156 30.191406 20.125 C 30.339844 19.546875 29.914062 19 29.171875 18.808594 C 28.882812 18.6875 28.554688 18.6875 28.265625 18.8125 C 27.976562 18.933594 27.75 19.167969 27.632812 19.464844 C 27.550781 19.789062 27.65625 20.046875 28.011719 20.367188 C 28.074219 20.425781 28.089844 20.460938 28.078125 20.503906 C 28.0625 20.570312 28.007812 20.589844 27.941406 20.570312 Z M 27.644531 20.476562 "/>
<path style=" stroke:none;fill-rule:nonzero;fill:rgb(20.392157%,27.058824%,45.882353%);fill-opacity:1;" d="M 27.316406 21.21875 C 27.074219 21.113281 27.070312 21.117188 26.945312 21.289062 C 26.914062 21.339844 26.875 21.351562 26.839844 21.339844 C 26.800781 21.320312 26.792969 21.277344 26.824219 21.207031 C 26.832031 21.1875 26.839844 21.167969 26.851562 21.148438 C 26.925781 20.996094 26.988281 20.859375 27.023438 20.777344 C 27.050781 20.71875 27.113281 20.5625 27.167969 20.421875 C 27.171875 20.402344 27.1875 20.371094 27.191406 20.363281 C 27.21875 20.292969 27.257812 20.269531 27.296875 20.285156 C 27.335938 20.304688 27.347656 20.339844 27.335938 20.398438 C 27.289062 20.605469 27.292969 20.609375 27.535156 20.714844 L 28.953125 21.332031 C 29.132812 21.410156 29.164062 21.402344 29.273438 21.242188 C 29.296875 21.203125 29.324219 21.195312 29.359375 21.210938 C 29.402344 21.230469 29.402344 21.269531 29.367188 21.410156 C 29.320312 21.589844 29.296875 21.777344 29.300781 21.964844 C 29.304688 21.984375 29.300781 22 29.292969 22.019531 C 29.277344 22.050781 29.238281 22.058594 29.183594 22.035156 Z M 27.316406 21.21875 "/>
<path style=" stroke:none;fill-rule:nonzero;fill:rgb(20.392157%,27.058824%,45.882353%);fill-opacity:1;" d="M 27.785156 22.070312 C 28.011719 22.203125 28.019531 22.203125 28.160156 22.046875 C 28.199219 22 28.238281 21.992188 28.273438 22.015625 C 28.3125 22.039062 28.3125 22.082031 28.273438 22.144531 C 28.261719 22.164062 28.25 22.183594 28.238281 22.199219 L 28.195312 22.269531 L 28.171875 22.300781 C 28.109375 22.402344 28.054688 22.484375 28.035156 22.519531 L 27.96875 22.628906 C 27.949219 22.664062 27.921875 22.710938 27.917969 22.714844 C 27.886719 22.769531 27.878906 22.769531 27.796875 22.71875 L 26.957031 22.214844 C 26.757812 22.09375 26.605469 22.105469 26.515625 22.253906 C 26.46875 22.347656 26.453125 22.460938 26.480469 22.5625 C 26.496094 22.625 26.515625 22.648438 26.605469 22.699219 L 27.195312 23.054688 C 27.417969 23.191406 27.429688 23.191406 27.570312 23.03125 C 27.609375 22.984375 27.648438 22.976562 27.683594 22.996094 C 27.722656 23.019531 27.722656 23.066406 27.683594 23.128906 C 27.671875 23.148438 27.660156 23.167969 27.648438 23.183594 L 27.601562 23.253906 L 27.582031 23.289062 C 27.527344 23.371094 27.484375 23.4375 27.480469 23.441406 C 27.453125 23.488281 27.425781 23.535156 27.371094 23.632812 L 27.324219 23.710938 C 27.296875 23.75 27.289062 23.753906 27.226562 23.71875 L 26.292969 23.15625 C 26.117188 23.050781 26.085938 23.050781 25.996094 23.167969 C 25.964844 23.210938 25.9375 23.21875 25.910156 23.203125 C 25.871094 23.179688 25.871094 23.136719 25.917969 23.011719 C 25.957031 22.902344 25.992188 22.769531 26.027344 22.617188 C 26.03125 22.566406 26.042969 22.515625 26.066406 22.464844 C 26.085938 22.433594 26.101562 22.433594 26.144531 22.457031 L 26.269531 22.53125 C 26.304688 22.550781 26.324219 22.554688 26.335938 22.535156 C 26.347656 22.519531 26.34375 22.535156 26.332031 22.394531 C 26.3125 22.214844 26.347656 22.035156 26.4375 21.878906 C 26.507812 21.742188 26.636719 21.648438 26.785156 21.621094 C 26.9375 21.589844 27.089844 21.628906 27.210938 21.722656 Z M 27.785156 22.070312 "/>
<path style=" stroke:none;fill-rule:nonzero;fill:rgb(20.392157%,27.058824%,45.882353%);fill-opacity:1;" d="M 26.238281 24.460938 C 26.308594 24.527344 26.316406 24.527344 26.316406 24.5625 C 26.320312 24.640625 26.289062 24.71875 26.234375 24.773438 C 26.054688 24.984375 25.683594 24.949219 25.390625 24.695312 C 25.09375 24.441406 24.996094 24.09375 25.167969 23.894531 C 25.222656 23.832031 25.300781 23.796875 25.382812 23.796875 C 25.457031 23.800781 25.507812 23.828125 25.679688 23.976562 Z M 27.125 25.230469 C 27.214844 25.304688 27.234375 25.316406 27.265625 25.273438 C 27.285156 25.25 27.289062 25.234375 27.332031 25.128906 C 27.375 24.976562 27.441406 24.832031 27.527344 24.699219 C 27.59375 24.601562 27.605469 24.558594 27.570312 24.53125 C 27.546875 24.507812 27.519531 24.511719 27.476562 24.546875 C 27.34375 24.667969 27.320312 24.667969 27.183594 24.550781 L 25.824219 23.375 C 25.769531 23.332031 25.722656 23.285156 25.675781 23.234375 C 25.65625 23.214844 25.640625 23.195312 25.632812 23.1875 C 25.617188 23.171875 25.601562 23.167969 25.582031 23.167969 C 25.566406 23.167969 25.550781 23.171875 25.535156 23.1875 C 25.519531 23.207031 25.519531 23.234375 25.542969 23.285156 C 25.59375 23.417969 25.605469 23.460938 25.585938 23.484375 C 25.578125 23.492188 25.566406 23.5 25.554688 23.503906 C 25.367188 23.554688 25.195312 23.664062 25.070312 23.816406 C 24.882812 23.996094 24.78125 24.25 24.78125 24.507812 C 24.78125 24.769531 24.886719 25.019531 25.074219 25.203125 C 25.238281 25.351562 25.453125 25.429688 25.671875 25.414062 C 25.894531 25.402344 26.097656 25.296875 26.242188 25.128906 C 26.316406 25.042969 26.316406 25.042969 26.378906 24.839844 C 26.398438 24.769531 26.417969 24.714844 26.417969 24.703125 C 26.417969 24.6875 26.425781 24.671875 26.433594 24.660156 C 26.449219 24.644531 26.449219 24.644531 26.503906 24.691406 Z M 27.125 25.230469 "/>
<path style=" stroke:none;fill-rule:nonzero;fill:rgb(20.392157%,27.058824%,45.882353%);fill-opacity:1;" d="M 13.226562 29.875 C 13.15625 30.15625 13.179688 30.207031 13.394531 30.261719 C 13.527344 30.292969 13.578125 30.335938 13.558594 30.394531 C 13.542969 30.449219 13.488281 30.464844 13.398438 30.441406 C 13.386719 30.4375 13.339844 30.421875 13.300781 30.410156 C 13.113281 30.34375 12.921875 30.28125 12.726562 30.234375 C 12.554688 30.1875 12.40625 30.15625 12.265625 30.132812 C 12.230469 30.128906 12.191406 30.121094 12.179688 30.117188 C 12.097656 30.097656 12.066406 30.0625 12.082031 30.011719 C 12.097656 29.949219 12.148438 29.9375 12.25 29.960938 C 12.519531 30.035156 12.589844 30.007812 12.640625 29.816406 L 13 28.410156 C 13.046875 28.238281 13.039062 28.214844 12.972656 28.191406 C 12.957031 28.1875 12.9375 28.183594 12.917969 28.1875 L 12.664062 28.199219 C 12.617188 28.199219 12.570312 28.199219 12.527344 28.191406 C 12.503906 28.1875 12.488281 28.179688 12.476562 28.160156 C 12.464844 28.144531 12.460938 28.125 12.464844 28.101562 C 12.480469 28.042969 12.539062 28.027344 12.742188 28.027344 C 13.023438 28.039062 13.308594 28.019531 13.585938 27.964844 C 13.605469 27.957031 13.628906 27.957031 13.652344 27.960938 C 13.695312 27.972656 13.703125 28.007812 13.683594 28.09375 Z M 13.226562 29.875 "/>
<path style=" stroke:none;fill-rule:nonzero;fill:rgb(20.392157%,27.058824%,45.882353%);fill-opacity:1;" d="M 14.527344 28.765625 C 14.488281 29.179688 14.679688 29.585938 14.929688 29.609375 C 14.964844 29.613281 15 29.609375 15.035156 29.597656 C 15.046875 29.597656 15.058594 29.59375 15.070312 29.59375 C 15.09375 29.601562 15.113281 29.625 15.109375 29.652344 C 15.101562 29.75 14.882812 29.8125 14.648438 29.789062 C 14.253906 29.730469 13.976562 29.371094 14.019531 28.976562 C 14.078125 28.492188 14.515625 28.144531 15 28.195312 C 15.269531 28.230469 15.511719 28.371094 15.671875 28.585938 C 15.835938 28.800781 15.90625 29.074219 15.863281 29.339844 C 15.757812 29.992188 15.308594 30.535156 14.6875 30.765625 C 14.488281 30.847656 14.277344 30.910156 14.0625 30.953125 C 14.03125 30.960938 14 30.964844 13.964844 30.960938 C 13.945312 30.960938 13.929688 30.949219 13.914062 30.933594 C 13.902344 30.917969 13.898438 30.898438 13.898438 30.878906 C 13.902344 30.835938 13.929688 30.820312 14.046875 30.792969 C 14.726562 30.613281 15.222656 30.039062 15.304688 29.339844 C 15.355469 28.828125 15.164062 28.359375 14.894531 28.332031 C 14.703125 28.3125 14.554688 28.488281 14.527344 28.765625 "/>
<path style=" stroke:none;fill-rule:nonzero;fill:rgb(20.392157%,27.058824%,45.882353%);fill-opacity:1;" d="M 17.398438 29.171875 C 17.40625 29.136719 17.449219 29.011719 17.46875 28.929688 C 17.484375 28.898438 17.488281 28.863281 17.488281 28.828125 C 17.484375 28.796875 17.46875 28.789062 17.421875 28.792969 L 16.417969 28.871094 C 16.324219 28.878906 16.257812 28.886719 16.230469 28.890625 C 16.1875 28.902344 16.148438 28.90625 16.128906 28.910156 C 16.085938 28.914062 16.0625 28.875 16.054688 28.785156 C 16.054688 28.777344 16.050781 28.707031 16.039062 28.613281 C 16.03125 28.582031 16.027344 28.496094 16.023438 28.453125 C 16.011719 28.316406 16.015625 28.308594 16.078125 28.304688 C 16.113281 28.304688 16.148438 28.304688 16.183594 28.308594 C 16.339844 28.320312 16.503906 28.324219 16.660156 28.308594 L 17.871094 28.210938 C 17.960938 28.203125 17.96875 28.207031 17.972656 28.238281 C 17.976562 28.269531 17.980469 28.261719 17.910156 28.441406 C 17.898438 28.460938 17.890625 28.480469 17.882812 28.503906 L 17.695312 28.957031 L 17.605469 29.1875 C 17.503906 29.421875 17.363281 29.808594 17.1875 30.3125 C 17.125 30.484375 17.078125 30.621094 17.054688 30.699219 C 17.003906 30.855469 17 30.859375 16.949219 30.863281 L 16.90625 30.867188 L 16.882812 30.863281 C 16.8125 30.871094 16.804688 30.871094 16.800781 30.84375 C 16.800781 30.839844 16.800781 30.835938 16.804688 30.824219 C 16.804688 30.804688 16.808594 30.789062 16.8125 30.769531 Z M 17.398438 29.171875 "/>
<path style=" stroke:none;fill-rule:nonzero;fill:rgb(20.392157%,27.058824%,45.882353%);fill-opacity:1;" d="M 19.714844 29.796875 C 19.761719 29.980469 19.785156 29.992188 20.015625 29.96875 C 20.050781 29.960938 20.089844 29.988281 20.097656 30.023438 C 20.109375 30.082031 20.070312 30.121094 19.976562 30.144531 L 19.40625 30.257812 C 19.382812 30.265625 19.28125 30.296875 19.132812 30.34375 C 19.09375 30.351562 19.042969 30.371094 19.027344 30.375 C 18.945312 30.394531 18.910156 30.382812 18.894531 30.328125 C 18.878906 30.265625 18.902344 30.246094 19.054688 30.191406 C 19.167969 30.152344 19.199219 30.085938 19.167969 29.960938 L 19.097656 29.6875 C 19.074219 29.585938 19.070312 29.582031 18.96875 29.605469 L 18.222656 29.792969 C 18.085938 29.824219 18.09375 29.832031 18.054688 29.675781 C 18.046875 29.632812 18.054688 29.589844 18.078125 29.550781 L 18.90625 27.597656 C 18.941406 27.507812 18.960938 27.496094 19.101562 27.460938 C 19.128906 27.453125 19.15625 27.457031 19.164062 27.472656 C 19.171875 27.484375 19.148438 27.527344 19.0625 27.703125 C 18.910156 28.003906 18.785156 28.273438 18.683594 28.515625 L 18.382812 29.238281 C 18.34375 29.316406 18.308594 29.398438 18.28125 29.480469 C 18.265625 29.515625 18.265625 29.523438 18.265625 29.53125 C 18.273438 29.546875 18.292969 29.550781 18.347656 29.539062 L 18.90625 29.398438 C 19.011719 29.371094 19.019531 29.363281 18.992188 29.261719 L 18.867188 28.746094 C 18.839844 28.632812 18.839844 28.625 18.890625 28.589844 C 18.894531 28.582031 18.902344 28.578125 18.90625 28.574219 C 19.011719 28.507812 19.117188 28.441406 19.226562 28.382812 C 19.261719 28.367188 19.285156 28.351562 19.304688 28.34375 C 19.308594 28.339844 19.316406 28.335938 19.324219 28.332031 C 19.34375 28.328125 19.351562 28.335938 19.363281 28.375 L 19.550781 29.128906 C 19.574219 29.222656 19.585938 29.230469 19.667969 29.210938 L 19.890625 29.15625 C 19.960938 29.136719 19.960938 29.136719 19.988281 29.25 C 20.007812 29.335938 20.003906 29.351562 19.929688 29.367188 L 19.714844 29.421875 C 19.636719 29.441406 19.628906 29.453125 19.652344 29.535156 Z M 19.714844 29.796875 "/>
<path style=" stroke:none;fill-rule:nonzero;fill:rgb(20.392157%,27.058824%,45.882353%);fill-opacity:1;" d="M 10.363281 27.980469 L 8.945312 27.96875 L 8.242188 26.738281 L 9.660156 26.75 Z M 10.363281 27.980469 "/>
<path style=" stroke:none;fill-rule:nonzero;fill:rgb(20.392157%,27.058824%,45.882353%);fill-opacity:1;" d="M 21.515625 27.980469 L 22.933594 27.96875 L 23.632812 26.738281 L 22.214844 26.75 Z M 21.515625 27.980469 "/>
</g>
</svg>
