<?xml version="1.0" encoding="UTF-8"?>
<svg xmlns="http://www.w3.org/2000/svg" xmlns:xlink="http://www.w3.org/1999/xlink" width="32px" height="32px" viewBox="0 0 32 41" version="1.1">
<g id="surface1">
<path style=" stroke:none;fill-rule:nonzero;fill:rgb(0%,59.215686%,84.313725%);fill-opacity:1;" d="M 15.847656 34.527344 C 12.824219 34.519531 9.929688 33.304688 7.824219 31.15625 L 11.480469 20.757812 C 11.824219 22.058594 12.554688 24.753906 12.554688 24.75 L 12.714844 25.453125 C 12.871094 26.023438 12.96875 26.605469 13 27.199219 C 13 27.957031 12.71875 28.632812 11.84375 29.542969 L 11.984375 29.960938 C 12.5625 30.273438 13.203125 30.460938 13.863281 30.507812 C 14.050781 31.40625 15.113281 32.777344 15.859375 33.410156 C 16.605469 32.777344 17.667969 31.410156 17.855469 30.507812 C 18.515625 30.460938 19.15625 30.273438 19.734375 29.960938 L 19.875 29.542969 C 19 28.632812 18.71875 27.957031 18.71875 27.199219 C 18.75 26.605469 18.847656 26.023438 19.003906 25.453125 L 19.164062 24.75 C 19.164062 24.753906 19.894531 22.058594 20.238281 20.757812 L 23.925781 31.109375 C 21.816406 33.285156 18.898438 34.519531 15.847656 34.527344 M 4.371094 22.726562 C 4.351562 18.890625 6.191406 15.28125 9.320312 13.019531 C 9.039062 16.46875 6.890625 22.628906 5.210938 27.15625 C 4.65625 25.746094 4.371094 24.242188 4.371094 22.726562 M 18.828125 11.328125 C 18.757812 12.074219 18.628906 12.8125 18.441406 13.539062 C 18.441406 13.539062 18.28125 14.265625 18.277344 14.28125 C 18.273438 14.289062 16.199219 22.546875 15.859375 23.835938 C 15.519531 22.546875 13.445312 14.289062 13.441406 14.28125 C 13.4375 14.265625 13.277344 13.539062 13.277344 13.539062 C 13.085938 12.8125 12.957031 12.070312 12.890625 11.320312 C 14.832031 10.789062 16.886719 10.792969 18.828125 11.328125 M 27.324219 22.726562 C 27.328125 24.199219 27.058594 25.664062 26.53125 27.042969 C 24.839844 22.53125 22.691406 16.457031 22.398438 13.039062 C 25.515625 15.296875 27.347656 18.902344 27.324219 22.726562 M 28.242188 31.574219 C 28.148438 31.320312 28.039062 31.03125 27.917969 30.710938 C 29.890625 28.5 31.066406 25.730469 31.066406 22.726562 C 31.066406 17.558594 27.597656 13.089844 22.558594 10.953125 C 22.777344 9.945312 23.132812 8.96875 23.621094 8.058594 C 23.792969 7.777344 23.984375 7.507812 24.191406 7.257812 C 24.199219 7.246094 24.25 7.195312 24.25 7.195312 L 24.246094 7.191406 C 24.507812 6.882812 24.800781 6.601562 25.117188 6.351562 L 24.910156 5.871094 C 23.898438 6.3125 21.761719 7.320312 20.449219 8.492188 C 19.820312 7.914062 18.640625 7.316406 17.769531 7.042969 L 17.601562 7.441406 C 17.675781 7.507812 17.738281 7.589844 17.785156 7.679688 L 17.800781 7.695312 C 18.289062 8.328125 18.617188 9.070312 18.757812 9.851562 C 16.839844 9.53125 14.878906 9.53125 12.960938 9.851562 C 13.105469 9.066406 13.433594 8.328125 13.917969 7.695312 L 13.933594 7.679688 C 13.980469 7.589844 14.042969 7.507812 14.117188 7.441406 L 13.949219 7.042969 C 13.078125 7.316406 11.898438 7.914062 11.269531 8.492188 C 9.957031 7.320312 7.820312 6.3125 6.808594 5.871094 L 6.601562 6.351562 C 6.917969 6.601562 7.210938 6.882812 7.472656 7.191406 L 7.46875 7.195312 C 7.46875 7.195312 7.519531 7.246094 7.527344 7.257812 C 7.738281 7.507812 7.925781 7.777344 8.097656 8.058594 C 8.582031 8.96875 8.941406 9.941406 9.160156 10.945312 C 4.113281 13.082031 0.640625 17.554688 0.640625 22.726562 C 0.640625 25.765625 1.839844 28.5625 3.851562 30.785156 C 3.742188 31.074219 3.644531 31.339844 3.558594 31.574219 C 2.796875 33.269531 1.59375 34.734375 0.0742188 35.820312 L 0.277344 36.230469 C 3.960938 35.71875 5.21875 36.101562 6.039062 36.230469 L 7.03125 33.410156 C 9.6875 35.015625 12.742188 35.859375 15.851562 35.839844 C 18.988281 35.859375 22.066406 35.003906 24.734375 33.371094 L 25.75 36.230469 C 26.570312 36.101562 27.835938 35.71875 31.519531 36.230469 L 31.722656 35.820312 C 30.203125 34.734375 29.003906 33.269531 28.242188 31.574219 "/>
<path style=" stroke:none;fill-rule:nonzero;fill:rgb(77.254902%,64.313725%,34.901961%);fill-opacity:1;" d="M 15.859375 0 L 15.175781 2.101562 L 12.941406 2.101562 L 14.753906 3.410156 L 14.078125 5.515625 L 15.878906 4.210938 L 17.691406 5.5 L 16.996094 3.398438 L 18.792969 2.101562 L 16.5625 2.101562 Z M 15.859375 0 "/>
<path style=" stroke:none;fill-rule:nonzero;fill:rgb(77.254902%,64.313725%,34.901961%);fill-opacity:1;" d="M 1.230469 39.007812 L 0.941406 39.007812 L 0.941406 40.390625 L 1.253906 40.390625 C 1.519531 40.390625 1.726562 40.304688 1.726562 39.640625 C 1.726562 39.082031 1.511719 39.007812 1.230469 39.007812 Z M 2.347656 40.613281 C 2.054688 40.828125 1.691406 40.929688 1.328125 40.902344 L 0 40.902344 L 0 38.503906 L 1.292969 38.503906 C 1.589844 38.488281 1.886719 38.539062 2.164062 38.652344 C 2.578125 38.839844 2.761719 39.171875 2.761719 39.660156 C 2.792969 40.027344 2.636719 40.382812 2.347656 40.613281 Z M 4.167969 39.007812 L 4.167969 39.5 L 4.4375 39.5 C 4.757812 39.5 4.867188 39.398438 4.867188 39.238281 C 4.867188 39.066406 4.726562 39.007812 4.433594 39.007812 Z M 4.984375 40.902344 L 4.601562 40.230469 C 4.457031 39.984375 4.375 39.953125 4.167969 39.953125 L 4.167969 40.902344 L 3.230469 40.902344 L 3.230469 38.503906 L 4.488281 38.503906 C 5.566406 38.503906 5.914062 38.789062 5.914062 39.1875 C 5.914062 39.601562 5.582031 39.8125 5.152344 39.859375 C 5.300781 39.902344 5.429688 39.992188 5.519531 40.117188 C 5.640625 40.28125 5.949219 40.722656 6.070312 40.902344 Z M 8.421875 39.6875 C 8.421875 39.089844 8.246094 38.945312 7.839844 38.945312 C 7.414062 38.945312 7.238281 39.238281 7.238281 39.695312 C 7.238281 40.308594 7.460938 40.460938 7.851562 40.460938 C 8.25 40.460938 8.421875 40.304688 8.421875 39.6875 Z M 6.1875 39.761719 C 6.1875 38.910156 6.902344 38.460938 7.867188 38.460938 C 9.113281 38.460938 9.472656 39.085938 9.472656 39.613281 C 9.472656 40.300781 9.144531 40.945312 7.835938 40.945312 C 6.773438 40.945312 6.1875 40.484375 6.1875 39.761719 Z M 9.941406 40.902344 L 9.941406 38.503906 L 10.902344 38.503906 L 10.902344 40.902344 Z M 13.933594 39.011719 L 13.082031 39.011719 L 13.082031 40.902344 L 12.132812 40.902344 L 12.132812 39.011719 L 11.28125 39.011719 L 11.28125 38.503906 L 14.042969 38.503906 Z M 16.652344 39.53125 C 16.617188 39.421875 16.59375 39.308594 16.585938 39.191406 C 16.566406 39.324219 16.535156 39.453125 16.484375 39.574219 L 16.335938 39.96875 L 16.808594 39.96875 Z M 17.1875 40.902344 L 17 40.441406 L 16.132812 40.441406 L 15.933594 40.902344 L 14.945312 40.902344 L 16.121094 38.503906 L 17.097656 38.503906 L 18.207031 40.902344 Z M 21.105469 40.164062 C 21.128906 40.300781 21.097656 40.441406 21.015625 40.558594 C 20.863281 40.757812 20.453125 40.945312 19.730469 40.945312 C 19.152344 40.945312 18.753906 40.839844 18.53125 40.644531 C 18.394531 40.515625 18.355469 40.457031 18.355469 40.136719 L 18.355469 38.503906 L 19.300781 38.503906 L 19.300781 40.070312 C 19.300781 40.289062 19.40625 40.4375 19.734375 40.4375 C 20.070312 40.4375 20.167969 40.3125 20.167969 40.082031 L 20.167969 38.503906 L 21.105469 38.503906 Z M 24.210938 39.914062 L 23.863281 39.914062 L 23.863281 40.390625 L 24.21875 40.390625 C 24.457031 40.390625 24.554688 40.289062 24.554688 40.140625 C 24.554688 40.023438 24.5 39.914062 24.210938 39.914062 Z M 23.863281 39.007812 L 23.863281 39.425781 L 24.234375 39.425781 C 24.460938 39.425781 24.539062 39.324219 24.539062 39.199219 C 24.539062 39.074219 24.445312 39.007812 24.226562 39.007812 Z M 24.410156 40.902344 L 22.921875 40.902344 L 22.921875 38.503906 L 24.546875 38.503906 C 25.074219 38.503906 25.507812 38.652344 25.507812 39.09375 C 25.507812 39.308594 25.371094 39.535156 24.964844 39.621094 C 25.324219 39.683594 25.636719 39.875 25.636719 40.164062 C 25.636719 40.601562 25.246094 40.902344 24.410156 40.902344 Z M 28.832031 40.164062 C 28.851562 40.300781 28.820312 40.441406 28.742188 40.558594 C 28.589844 40.757812 28.179688 40.945312 27.457031 40.945312 C 26.878906 40.945312 26.476562 40.839844 26.257812 40.644531 C 26.121094 40.515625 26.078125 40.457031 26.078125 40.136719 L 26.078125 38.503906 L 27.023438 38.503906 L 27.023438 40.070312 C 27.023438 40.289062 27.128906 40.4375 27.460938 40.4375 C 27.796875 40.4375 27.890625 40.3125 27.890625 40.082031 L 27.890625 38.503906 L 28.832031 38.503906 Z M 31.855469 39.011719 L 31.003906 39.011719 L 31.003906 40.902344 L 30.054688 40.902344 L 30.054688 39.011719 L 29.203125 39.011719 L 29.203125 38.503906 L 31.964844 38.503906 Z M 31.855469 39.011719 "/>
</g>
</svg>
