<?xml version="1.0" encoding="UTF-8"?>
<svg xmlns="http://www.w3.org/2000/svg" xmlns:xlink="http://www.w3.org/1999/xlink" width="32px" height="32px" viewBox="0 0 32 32" version="1.1">
<g id="surface1">
<path style=" stroke:none;fill-rule:nonzero;fill:rgb(0%,0%,0%);fill-opacity:1;" d="M 16.011719 0 C 7.183594 0 0 7.183594 0 16.011719 C 0 24.839844 7.183594 32.023438 16.011719 32.023438 C 24.839844 32.023438 32.023438 24.839844 32.023438 16.011719 C 32.023438 7.183594 24.839844 0 16.011719 0 "/>
<path style=" stroke:none;fill-rule:nonzero;fill:rgb(100%,100%,100%);fill-opacity:1;" d="M 16.011719 0.121094 C 7.25 0.121094 0.121094 7.25 0.121094 16.011719 C 0.121094 24.773438 7.25 31.902344 16.011719 31.902344 C 24.773438 31.902344 31.902344 24.773438 31.902344 16.011719 C 31.902344 7.25 24.773438 0.121094 16.011719 0.121094 "/>
<path style=" stroke:none;fill-rule:nonzero;fill:rgb(0%,62.352941%,89.019608%);fill-opacity:1;" d="M 31.078125 16.011719 C 31.078125 24.332031 24.332031 31.078125 16.011719 31.078125 C 7.691406 31.078125 0.945312 24.332031 0.945312 16.011719 C 0.945312 7.6875 7.691406 0.941406 16.011719 0.941406 C 24.332031 0.941406 31.078125 7.6875 31.078125 16.011719 Z M 31.078125 16.011719 "/>
<path style=" stroke:none;fill-rule:nonzero;fill:rgb(86.27451%,18.431373%,20.392157%);fill-opacity:1;" d="M 4.285156 6.539062 C 2.628906 8.597656 1.542969 11.050781 1.128906 13.660156 L 21.433594 30.085938 C 23.894531 29.132812 26.0625 27.550781 27.722656 25.5 Z M 4.285156 6.539062 "/>
<path style=" stroke:none;fill-rule:nonzero;fill:rgb(100%,100%,100%);fill-opacity:1;" d="M 5.265625 23.550781 L 5.035156 23.207031 L 5.652344 23.042969 Z M 5.980469 22.65625 L 4.265625 23.085938 L 4.457031 23.367188 L 4.757812 23.285156 L 5.085938 23.773438 L 4.898438 24.019531 L 5.089844 24.300781 L 6.125 22.863281 Z M 5.980469 22.65625 "/>
<path style=" stroke:none;fill-rule:nonzero;fill:rgb(100%,100%,100%);fill-opacity:1;" d="M 6.769531 23.710938 L 6.558594 23.464844 L 5.292969 24.546875 L 5.996094 25.367188 L 6.214844 25.179688 L 5.726562 24.605469 Z M 6.769531 23.710938 "/>
<path style=" stroke:none;fill-rule:nonzero;fill:rgb(100%,100%,100%);fill-opacity:1;" d="M 7.523438 25.667969 C 7.519531 25.566406 7.476562 25.476562 7.382812 25.355469 L 7.257812 25.199219 C 7.210938 25.144531 7.195312 25.09375 7.191406 25.046875 C 7.1875 25 7.207031 24.960938 7.238281 24.929688 C 7.316406 24.847656 7.441406 24.832031 7.566406 24.949219 C 7.648438 25.023438 7.730469 25.125 7.738281 25.265625 L 8.027344 25.261719 C 8.015625 25.0625 7.933594 24.90625 7.765625 24.75 C 7.503906 24.503906 7.203125 24.503906 7 24.722656 C 6.902344 24.824219 6.859375 24.929688 6.863281 25.042969 C 6.867188 25.144531 6.910156 25.246094 7.003906 25.363281 L 7.125 25.519531 C 7.179688 25.585938 7.195312 25.621094 7.195312 25.664062 C 7.199219 25.714844 7.179688 25.757812 7.140625 25.800781 C 7.050781 25.898438 6.921875 25.882812 6.78125 25.746094 C 6.671875 25.644531 6.589844 25.519531 6.585938 25.371094 L 6.289062 25.382812 C 6.296875 25.613281 6.398438 25.785156 6.582031 25.957031 C 6.835938 26.195312 7.15625 26.246094 7.375 26.011719 C 7.480469 25.902344 7.53125 25.789062 7.523438 25.667969 "/>
<path style=" stroke:none;fill-rule:nonzero;fill:rgb(100%,100%,100%);fill-opacity:1;" d="M 8.3125 26.640625 L 7.980469 26.394531 L 8.511719 26.035156 Z M 8.699219 25.558594 L 7.21875 26.53125 L 7.488281 26.730469 L 7.746094 26.554688 L 8.21875 26.910156 L 8.121094 27.203125 L 8.394531 27.40625 L 8.902344 25.710938 Z M 8.699219 25.558594 "/>
<path style=" stroke:none;fill-rule:nonzero;fill:rgb(100%,100%,100%);fill-opacity:1;" d="M 10.234375 27.15625 C 10.355469 26.828125 10.242188 26.550781 9.972656 26.394531 C 9.808594 26.296875 9.65625 26.28125 9.5 26.320312 C 9.273438 26.382812 9.175781 26.539062 9.015625 26.816406 C 8.855469 27.089844 8.765625 27.25 8.824219 27.476562 C 8.863281 27.632812 8.953125 27.757812 9.121094 27.855469 C 9.386719 28.011719 9.683594 27.980469 9.910156 27.710938 L 9.625 27.542969 C 9.53125 27.644531 9.40625 27.6875 9.265625 27.605469 C 9.1875 27.5625 9.144531 27.496094 9.128906 27.425781 C 9.113281 27.332031 9.136719 27.253906 9.296875 26.980469 C 9.457031 26.703125 9.515625 26.644531 9.605469 26.617188 C 9.671875 26.59375 9.75 26.601562 9.828125 26.644531 C 9.964844 26.726562 9.988281 26.855469 9.949219 26.988281 Z M 10.234375 27.15625 "/>
<path style=" stroke:none;fill-rule:nonzero;fill:rgb(100%,100%,100%);fill-opacity:1;" d="M 10.007812 28.324219 L 11.007812 28.769531 L 11.125 28.503906 L 10.421875 28.191406 L 10.585938 27.824219 L 11.183594 28.089844 L 11.300781 27.824219 L 10.703125 27.558594 L 10.863281 27.203125 L 11.566406 27.515625 L 11.683594 27.25 L 10.679688 26.804688 Z M 10.007812 28.324219 "/>
<path style=" stroke:none;fill-rule:nonzero;fill:rgb(100%,100%,100%);fill-opacity:1;" d="M 8.265625 5.238281 L 8.519531 5.0625 C 8.636719 4.984375 8.765625 5.003906 8.839844 5.109375 C 8.910156 5.214844 8.886719 5.34375 8.769531 5.425781 L 8.515625 5.597656 Z M 9.046875 6.367188 L 8.671875 5.820312 L 8.863281 5.6875 L 9.507812 6.050781 L 9.816406 5.835938 L 9.105469 5.457031 C 9.203125 5.316406 9.238281 5.117188 9.105469 4.925781 C 8.945312 4.695312 8.648438 4.621094 8.371094 4.8125 L 7.835938 5.183594 L 8.78125 6.550781 Z M 9.046875 6.367188 "/>
<path style=" stroke:none;fill-rule:nonzero;fill:rgb(100%,100%,100%);fill-opacity:1;" d="M 10.421875 4.871094 L 10.054688 5.066406 L 9.960938 4.433594 Z M 10.148438 5.65625 L 10.101562 5.347656 L 10.625 5.074219 L 10.847656 5.289062 L 11.148438 5.132812 L 9.839844 3.941406 L 9.613281 4.058594 L 9.847656 5.8125 Z M 10.148438 5.65625 "/>
<path style=" stroke:none;fill-rule:nonzero;fill:rgb(100%,100%,100%);fill-opacity:1;" d="M 11.324219 4.898438 C 11.472656 4.960938 11.625 4.96875 11.800781 4.902344 C 12.089844 4.789062 12.253906 4.539062 12.183594 4.191406 L 11.878906 4.308594 C 11.894531 4.449219 11.851562 4.574219 11.699219 4.632812 C 11.617188 4.660156 11.539062 4.65625 11.476562 4.625 C 11.394531 4.582031 11.34375 4.511719 11.230469 4.214844 C 11.117188 3.917969 11.109375 3.835938 11.140625 3.746094 C 11.164062 3.679688 11.21875 3.625 11.304688 3.59375 C 11.453125 3.535156 11.566406 3.597656 11.648438 3.714844 L 11.957031 3.59375 C 11.777344 3.292969 11.488281 3.210938 11.199219 3.320312 C 11.019531 3.390625 10.914062 3.5 10.847656 3.644531 C 10.75 3.859375 10.8125 4.035156 10.925781 4.332031 C 11.039062 4.628906 11.109375 4.800781 11.324219 4.898438 "/>
<path style=" stroke:none;fill-rule:nonzero;fill:rgb(100%,100%,100%);fill-opacity:1;" d="M 12.921875 4.523438 L 12.46875 2.925781 L 12.15625 3.011719 L 12.609375 4.613281 Z M 12.921875 4.523438 "/>
<path style=" stroke:none;fill-rule:nonzero;fill:rgb(100%,100%,100%);fill-opacity:1;" d="M 13.574219 4.363281 L 13.394531 3.359375 L 14.222656 4.246094 L 14.507812 4.195312 L 14.210938 2.558594 L 13.894531 2.617188 L 14.074219 3.621094 L 13.246094 2.734375 L 12.960938 2.785156 L 13.253906 4.421875 Z M 13.574219 4.363281 "/>
<path style=" stroke:none;fill-rule:nonzero;fill:rgb(100%,100%,100%);fill-opacity:1;" d="M 14.949219 3.996094 C 15.070312 4.101562 15.210938 4.15625 15.402344 4.148438 C 15.578125 4.140625 15.730469 4.089844 15.859375 3.9375 C 15.976562 3.804688 16.003906 3.664062 15.992188 3.421875 L 15.980469 3.179688 L 15.355469 3.210938 L 15.367188 3.484375 L 15.671875 3.46875 L 15.675781 3.53125 C 15.679688 3.617188 15.664062 3.691406 15.613281 3.753906 C 15.5625 3.816406 15.488281 3.855469 15.386719 3.859375 C 15.296875 3.863281 15.226562 3.835938 15.175781 3.785156 C 15.109375 3.714844 15.085938 3.636719 15.070312 3.316406 C 15.054688 3 15.070312 2.921875 15.128906 2.847656 C 15.175781 2.792969 15.242188 2.753906 15.332031 2.75 C 15.496094 2.742188 15.597656 2.820312 15.640625 2.976562 L 15.96875 2.960938 C 15.910156 2.683594 15.703125 2.441406 15.316406 2.460938 C 15.128906 2.46875 14.992188 2.539062 14.882812 2.65625 C 14.726562 2.832031 14.730469 3.019531 14.746094 3.335938 C 14.761719 3.652344 14.773438 3.839844 14.949219 3.996094 "/>
<path style=" stroke:none;fill-rule:nonzero;fill:rgb(100%,100%,100%);fill-opacity:1;" d="M 17.390625 4.214844 C 17.695312 4.25 17.957031 4.097656 18.054688 3.757812 L 17.726562 3.722656 C 17.679688 3.855469 17.582031 3.945312 17.421875 3.925781 C 17.335938 3.914062 17.265625 3.875 17.226562 3.816406 C 17.175781 3.738281 17.160156 3.65625 17.199219 3.339844 C 17.234375 3.023438 17.261719 2.945312 17.332031 2.882812 C 17.382812 2.835938 17.460938 2.8125 17.546875 2.820312 C 17.707031 2.839844 17.78125 2.949219 17.796875 3.085938 L 18.128906 3.125 C 18.105469 2.769531 17.890625 2.566406 17.582031 2.535156 C 17.390625 2.511719 17.242188 2.558594 17.117188 2.65625 C 16.933594 2.804688 16.910156 2.988281 16.875 3.304688 C 16.839844 3.621094 16.820312 3.804688 16.96875 3.988281 C 17.066406 4.113281 17.199219 4.191406 17.390625 4.214844 "/>
<path style=" stroke:none;fill-rule:nonzero;fill:rgb(100%,100%,100%);fill-opacity:1;" d="M 19.34375 4.277344 L 18.609375 4.109375 L 18.917969 2.769531 L 18.601562 2.695312 L 18.226562 4.316406 L 19.28125 4.558594 Z M 19.34375 4.277344 "/>
<path style=" stroke:none;fill-rule:nonzero;fill:rgb(100%,100%,100%);fill-opacity:1;" d="M 19.960938 4.804688 C 20.285156 4.917969 20.617188 4.789062 20.734375 4.457031 L 21.097656 3.429688 L 20.792969 3.320312 L 20.433594 4.339844 C 20.371094 4.519531 20.222656 4.589844 20.058594 4.53125 C 19.894531 4.476562 19.824219 4.328125 19.886719 4.148438 L 20.25 3.128906 L 19.941406 3.019531 L 19.578125 4.050781 C 19.460938 4.382812 19.640625 4.691406 19.960938 4.804688 "/>
<path style=" stroke:none;fill-rule:nonzero;fill:rgb(100%,100%,100%);fill-opacity:1;" d="M 21.738281 4.796875 C 21.871094 4.859375 21.890625 4.976562 21.839844 5.074219 C 21.789062 5.175781 21.683594 5.226562 21.554688 5.160156 L 21.253906 5.007812 L 21.433594 4.644531 Z M 21.738281 4.039062 L 22.023438 4.183594 C 22.144531 4.246094 22.179688 4.347656 22.128906 4.449219 C 22.078125 4.554688 21.972656 4.585938 21.851562 4.523438 L 21.566406 4.382812 Z M 21.453125 5.433594 C 21.71875 5.566406 21.984375 5.511719 22.125 5.234375 C 22.222656 5.035156 22.15625 4.886719 22.085938 4.796875 C 22.179688 4.800781 22.339844 4.75 22.425781 4.585938 C 22.550781 4.328125 22.464844 4.082031 22.175781 3.9375 L 21.578125 3.636719 L 20.832031 5.121094 Z M 21.453125 5.433594 "/>
<path style=" stroke:none;fill-rule:nonzero;fill:rgb(100%,100%,100%);fill-opacity:1;" d="M 23.671875 5.175781 L 23.871094 5.324219 C 23.960938 5.386719 24 5.464844 24.003906 5.550781 C 24.011719 5.644531 23.953125 5.734375 23.800781 5.945312 C 23.644531 6.152344 23.574219 6.234375 23.484375 6.257812 C 23.402344 6.277344 23.316406 6.261719 23.226562 6.195312 L 23.027344 6.046875 Z M 23.625 6.546875 C 23.792969 6.492188 23.898438 6.359375 24.0625 6.136719 C 24.222656 5.914062 24.324219 5.773438 24.324219 5.601562 C 24.328125 5.394531 24.246094 5.242188 24.066406 5.105469 L 23.582031 4.75 L 22.59375 6.089844 L 23.078125 6.445312 C 23.261719 6.578125 23.433594 6.609375 23.625 6.546875 "/>
<path style=" stroke:none;fill-rule:nonzero;fill:rgb(100%,100%,100%);fill-opacity:1;" d="M 24.578125 7.742188 L 24.777344 7.53125 L 24.214844 7.003906 L 24.492188 6.710938 L 24.96875 7.160156 L 25.167969 6.949219 L 24.691406 6.5 L 24.957031 6.214844 L 25.519531 6.742188 L 25.71875 6.53125 L 24.917969 5.78125 L 23.78125 6.992188 Z M 24.578125 7.742188 "/>
<path style=" stroke:none;fill-rule:nonzero;fill:rgb(100%,100%,100%);fill-opacity:1;" d="M 25.988281 8.363281 C 26.03125 8.4375 26.039062 8.472656 26.035156 8.515625 C 26.027344 8.566406 26 8.605469 25.957031 8.640625 C 25.851562 8.722656 25.730469 8.6875 25.609375 8.535156 C 25.519531 8.414062 25.457031 8.28125 25.476562 8.132812 L 25.183594 8.09375 C 25.152344 8.324219 25.226562 8.511719 25.378906 8.710938 C 25.59375 8.988281 25.902344 9.085938 26.15625 8.886719 C 26.273438 8.796875 26.34375 8.691406 26.355469 8.570312 C 26.367188 8.472656 26.339844 8.375 26.265625 8.242188 L 26.167969 8.066406 C 26.128906 8.003906 26.117188 7.949219 26.125 7.90625 C 26.128906 7.859375 26.152344 7.824219 26.1875 7.796875 C 26.277344 7.726562 26.40625 7.734375 26.511719 7.871094 C 26.578125 7.957031 26.644531 8.066406 26.628906 8.207031 L 26.914062 8.246094 C 26.9375 8.050781 26.878906 7.882812 26.738281 7.703125 C 26.519531 7.417969 26.21875 7.371094 25.984375 7.554688 C 25.875 7.640625 25.8125 7.738281 25.800781 7.847656 C 25.789062 7.953125 25.816406 8.058594 25.890625 8.1875 Z M 25.988281 8.363281 "/>
<path style=" stroke:none;fill-rule:nonzero;fill:rgb(100%,100%,100%);fill-opacity:1;" d="M 26.074219 9.671875 L 26.246094 9.949219 L 27.417969 9.234375 L 27.644531 9.601562 L 27.890625 9.453125 L 27.265625 8.433594 L 27.019531 8.585938 L 27.246094 8.957031 Z M 26.074219 9.671875 "/>
<path style=" stroke:none;fill-rule:nonzero;fill:rgb(100%,100%,100%);fill-opacity:1;" d="M 27.957031 10.234375 L 28.085938 10.511719 C 28.144531 10.640625 28.101562 10.761719 27.984375 10.816406 C 27.867188 10.871094 27.746094 10.824219 27.6875 10.695312 L 27.558594 10.417969 Z M 26.710938 10.808594 L 27.3125 10.53125 L 27.410156 10.742188 L 26.945312 11.316406 L 27.101562 11.65625 L 27.597656 11.019531 C 27.71875 11.140625 27.910156 11.210938 28.121094 11.113281 C 28.371094 10.996094 28.5 10.714844 28.355469 10.40625 L 28.082031 9.816406 L 26.574219 10.511719 Z M 26.710938 10.808594 "/>
<path style=" stroke:none;fill-rule:nonzero;fill:rgb(100%,100%,100%);fill-opacity:1;" d="M 28.460938 12.039062 L 27.945312 12.417969 L 27.820312 12.023438 Z M 27.222656 12.015625 L 27.53125 12.019531 L 27.710938 12.582031 L 27.460938 12.765625 L 27.566406 13.089844 L 28.964844 12.003906 L 28.886719 11.761719 L 27.117188 11.691406 Z M 27.222656 12.015625 "/>
<path style=" stroke:none;fill-rule:nonzero;fill:rgb(100%,100%,100%);fill-opacity:1;" d="M 28.726562 12.941406 C 28.589844 12.96875 28.488281 13.027344 28.425781 13.121094 C 28.371094 13.207031 28.347656 13.316406 28.355469 13.464844 L 28.363281 13.664062 C 28.367188 13.75 28.359375 13.785156 28.335938 13.824219 C 28.308594 13.863281 28.265625 13.886719 28.210938 13.898438 C 28.078125 13.925781 27.988281 13.835938 27.949219 13.648438 C 27.921875 13.5 27.929688 13.351562 28.011719 13.230469 L 27.765625 13.0625 C 27.632812 13.253906 27.617188 13.453125 27.664062 13.699219 C 27.730469 14.042969 27.960938 14.269531 28.277344 14.210938 C 28.425781 14.179688 28.535156 14.117188 28.597656 14.015625 C 28.652344 13.933594 28.671875 13.832031 28.664062 13.679688 L 28.65625 13.480469 C 28.652344 13.410156 28.664062 13.355469 28.6875 13.316406 C 28.714844 13.277344 28.753906 13.257812 28.796875 13.25 C 28.910156 13.226562 29.019531 13.289062 29.054688 13.457031 C 29.074219 13.566406 29.082031 13.695312 29.003906 13.816406 L 29.242188 13.976562 C 29.351562 13.8125 29.375 13.640625 29.332031 13.414062 C 29.261719 13.0625 29.015625 12.886719 28.726562 12.941406 "/>
<path style=" stroke:none;fill-rule:nonzero;fill:rgb(100%,100%,100%);fill-opacity:1;" d="M 28.550781 14.835938 L 28.574219 15.171875 C 28.585938 15.320312 28.5 15.394531 28.386719 15.402344 C 28.277344 15.410156 28.175781 15.347656 28.167969 15.203125 L 28.140625 14.863281 Z M 29.222656 14.785156 L 29.246094 15.101562 C 29.257812 15.238281 29.183594 15.320312 29.070312 15.332031 C 28.957031 15.339844 28.875 15.265625 28.863281 15.128906 L 28.839844 14.8125 Z M 27.878906 15.253906 C 27.902344 15.550781 28.085938 15.75 28.394531 15.726562 C 28.617188 15.710938 28.710938 15.578125 28.75 15.472656 C 28.796875 15.554688 28.925781 15.667969 29.109375 15.652344 C 29.390625 15.632812 29.558594 15.429688 29.535156 15.105469 L 29.488281 14.441406 L 27.828125 14.5625 Z M 27.878906 15.253906 "/>
<path style=" stroke:none;fill-rule:nonzero;fill:rgb(100%,100%,100%);fill-opacity:1;" d="M 29.171875 16.886719 C 29.097656 16.941406 29.019531 16.957031 28.703125 16.9375 C 28.382812 16.921875 28.308594 16.894531 28.242188 16.832031 C 28.191406 16.78125 28.15625 16.707031 28.164062 16.617188 C 28.167969 16.527344 28.210938 16.460938 28.265625 16.414062 C 28.339844 16.355469 28.417969 16.34375 28.734375 16.363281 C 29.050781 16.378906 29.128906 16.402344 29.195312 16.46875 C 29.246094 16.519531 29.277344 16.59375 29.273438 16.683594 C 29.269531 16.773438 29.230469 16.839844 29.171875 16.886719 M 28.753906 16.035156 C 28.4375 16.019531 28.25 16.007812 28.074219 16.164062 C 27.957031 16.269531 27.886719 16.410156 27.875 16.601562 C 27.863281 16.792969 27.917969 16.9375 28.023438 17.054688 C 28.179688 17.230469 28.363281 17.246094 28.683594 17.265625 C 29 17.28125 29.1875 17.289062 29.363281 17.132812 C 29.480469 17.027344 29.550781 16.890625 29.5625 16.699219 C 29.574219 16.507812 29.519531 16.363281 29.414062 16.246094 C 29.257812 16.070312 29.070312 16.054688 28.753906 16.035156 "/>
<path style=" stroke:none;fill-rule:nonzero;fill:rgb(100%,100%,100%);fill-opacity:1;" d="M 27.710938 18.074219 C 27.648438 18.410156 27.832031 18.71875 28.179688 18.777344 L 29.253906 18.96875 L 29.3125 18.648438 L 28.246094 18.460938 C 28.058594 18.429688 27.964844 18.296875 27.996094 18.125 C 28.023438 17.953125 28.15625 17.863281 28.34375 17.894531 L 29.410156 18.082031 L 29.464844 17.761719 L 28.390625 17.574219 C 28.042969 17.511719 27.769531 17.738281 27.710938 18.074219 "/>
<path style=" stroke:none;fill-rule:nonzero;fill:rgb(100%,100%,100%);fill-opacity:1;" d="M 28.246094 19.863281 L 28.335938 19.570312 L 28.757812 19.699219 L 28.667969 19.992188 C 28.625 20.128906 28.511719 20.191406 28.386719 20.152344 C 28.265625 20.117188 28.207031 20 28.246094 19.863281 M 27.445312 19.296875 L 28.078125 19.492188 L 28.011719 19.714844 L 27.28125 19.828125 L 27.167969 20.1875 L 27.964844 20.042969 C 27.972656 20.214844 28.066406 20.394531 28.292969 20.464844 C 28.558594 20.546875 28.835938 20.421875 28.9375 20.097656 L 29.128906 19.476562 L 27.539062 18.984375 Z M 27.445312 19.296875 "/>
<path style=" stroke:none;fill-rule:nonzero;fill:rgb(100%,100%,100%);fill-opacity:1;" d="M 27.867188 20.679688 C 27.574219 20.550781 27.40625 20.476562 27.183594 20.558594 C 27.035156 20.617188 26.921875 20.71875 26.84375 20.890625 C 26.769531 21.050781 26.746094 21.210938 26.824219 21.398438 C 26.886719 21.558594 27 21.652344 27.21875 21.75 L 27.441406 21.851562 L 27.699219 21.277344 L 27.449219 21.164062 L 27.324219 21.445312 L 27.269531 21.417969 C 27.191406 21.382812 27.128906 21.332031 27.097656 21.257812 C 27.066406 21.1875 27.066406 21.101562 27.105469 21.011719 C 27.144531 20.929688 27.203125 20.878906 27.269531 20.855469 C 27.359375 20.828125 27.441406 20.847656 27.730469 20.976562 C 28.023438 21.109375 28.085938 21.15625 28.125 21.242188 C 28.152344 21.308594 28.15625 21.386719 28.121094 21.46875 C 28.050781 21.617188 27.9375 21.671875 27.777344 21.640625 L 27.640625 21.9375 C 27.914062 22.011719 28.222656 21.941406 28.382812 21.585938 C 28.460938 21.414062 28.460938 21.261719 28.40625 21.109375 C 28.324219 20.890625 28.15625 20.8125 27.867188 20.679688 "/>
<path style=" stroke:none;fill-rule:nonzero;fill:rgb(0%,0%,0%);fill-opacity:1;" d="M 4.328125 6.640625 L 10.679688 12.210938 C 10.679688 12.230469 10.683594 12.253906 10.6875 12.273438 C 10.78125 12.675781 11.394531 12.957031 11.691406 13.09375 C 11.734375 13.113281 11.769531 13.128906 11.792969 13.140625 C 12.128906 13.316406 12.527344 13.574219 12.617188 13.734375 C 12.664062 13.820312 12.675781 13.898438 12.65625 13.96875 C 12.628906 14.046875 12.5625 14.113281 12.460938 14.160156 C 12.421875 14.179688 12.382812 14.1875 12.335938 14.1875 C 12.144531 14.1875 11.777344 14.066406 10.894531 13.773438 C 10.550781 13.664062 10.128906 13.523438 9.605469 13.355469 C 9.089844 13.191406 8.613281 13.105469 8.1875 13.105469 C 6.972656 13.105469 6.527344 13.765625 6.484375 13.832031 C 6.03125 14.394531 5.78125 15.898438 6.136719 17.75 C 6.152344 17.835938 6.171875 17.925781 6.191406 18.015625 C 6.6875 20.289062 7.949219 22.339844 9.742188 23.789062 C 11.511719 25.226562 13.746094 26.019531 16.023438 26.019531 C 16.128906 26.019531 16.234375 26.015625 16.34375 26.011719 C 17.796875 25.964844 19.238281 25.601562 20.53125 24.949219 L 21.132812 24.644531 L 20.480469 24.816406 C 20.246094 24.878906 19.386719 25.082031 18.261719 25.082031 C 16.957031 25.082031 15.050781 24.800781 13.402344 23.460938 C 11.59375 22 10.996094 20.011719 10.800781 18.957031 C 10.527344 17.476562 10.707031 16.164062 11.039062 15.75 C 11.359375 15.359375 11.886719 15.25 12.449219 15.136719 C 13.035156 15.015625 13.644531 14.890625 14.035156 14.410156 C 14.421875 13.929688 14.417969 13.308594 14.414062 12.707031 C 14.410156 12.136719 14.40625 11.597656 14.726562 11.203125 C 15.078125 10.769531 16.4375 10.300781 18.023438 10.300781 C 19.277344 10.300781 21.113281 10.578125 22.757812 11.910156 C 25.613281 14.222656 25.585938 17.847656 25.554688 18.554688 L 25.519531 19.226562 L 25.691406 18.574219 C 26.691406 14.777344 25.367188 10.730469 22.316406 8.257812 C 19.878906 6.285156 17.226562 5.988281 15.867188 5.988281 C 13.878906 5.988281 12.367188 6.570312 11.898438 7.144531 C 11.820312 7.222656 10.878906 8.199219 12.082031 10.296875 C 12.355469 10.773438 12.578125 11.160156 12.761719 11.472656 C 13.359375 12.503906 13.503906 12.75 13.464844 12.921875 C 13.441406 13.019531 13.371094 13.183594 13.191406 13.183594 C 13.15625 13.183594 13.117188 13.175781 13.082031 13.164062 C 12.902344 13.109375 12.566406 12.773438 12.328125 12.484375 C 12.3125 12.460938 12.289062 12.429688 12.261719 12.394531 C 12.0625 12.128906 11.65625 11.582031 11.238281 11.582031 C 11.21875 11.582031 11.203125 11.582031 11.1875 11.585938 L 4.417969 6.53125 C 4.402344 6.519531 4.335938 6.476562 4.320312 6.476562 C 4.296875 6.503906 4.277344 6.53125 4.253906 6.554688 C 4.257812 6.574219 4.320312 6.628906 4.328125 6.640625 "/>
<path style=" stroke:none;fill-rule:nonzero;fill:rgb(100%,100%,100%);fill-opacity:1;" d="M 10.816406 11.8125 L 10.824219 11.800781 C 10.882812 11.730469 10.949219 11.671875 11.019531 11.636719 L 5.769531 7.71875 L 10.695312 12.039062 C 10.714844 11.960938 10.757812 11.886719 10.816406 11.8125 "/>
<path style=" stroke:none;fill-rule:nonzero;fill:rgb(100%,100%,100%);fill-opacity:1;" d="M 11.238281 11.722656 C 11.125 11.722656 11.027344 11.777344 10.9375 11.890625 L 10.925781 11.902344 C 10.832031 12.019531 10.800781 12.128906 10.824219 12.238281 C 10.902344 12.574219 11.496094 12.847656 11.75 12.964844 C 11.796875 12.984375 11.835938 13.003906 11.859375 13.015625 C 11.933594 13.054688 12.59375 13.402344 12.742188 13.667969 C 12.808594 13.785156 12.824219 13.902344 12.789062 14.011719 C 12.753906 14.125 12.660156 14.222656 12.519531 14.289062 C 12.464844 14.316406 12.40625 14.328125 12.335938 14.328125 C 12.125 14.328125 11.777344 14.214844 10.851562 13.910156 C 10.507812 13.796875 10.085938 13.660156 9.5625 13.488281 C 9.0625 13.328125 8.601562 13.25 8.1875 13.25 C 7.011719 13.25 6.605469 13.902344 6.601562 13.910156 L 6.597656 13.917969 C 6.144531 14.476562 5.90625 16.050781 6.328125 17.984375 C 6.820312 20.226562 8.0625 22.25 9.828125 23.679688 C 11.578125 25.097656 13.777344 25.875 16.023438 25.875 C 17.355469 25.875 18.683594 25.601562 19.90625 25.082031 C 19.496094 25.152344 18.925781 25.222656 18.261719 25.222656 C 16.933594 25.222656 14.996094 24.9375 13.3125 23.574219 C 11.945312 22.464844 11.003906 20.835938 10.660156 18.980469 C 10.367188 17.402344 10.582031 16.09375 10.929688 15.664062 C 11.28125 15.230469 11.859375 15.113281 12.417969 14.996094 C 12.984375 14.878906 13.570312 14.761719 13.925781 14.320312 C 14.28125 13.882812 14.277344 13.285156 14.273438 12.707031 C 14.269531 12.136719 14.261719 11.546875 14.613281 11.113281 C 14.996094 10.644531 16.375 10.15625 18.023438 10.15625 C 19.300781 10.15625 21.171875 10.441406 22.847656 11.800781 C 25.242188 13.738281 25.644531 16.582031 25.695312 17.925781 C 26.394531 14.367188 25.070312 10.671875 22.226562 8.371094 C 19.820312 6.421875 17.210938 6.128906 15.867188 6.128906 C 13.921875 6.128906 12.449219 6.6875 12.007812 7.238281 L 12 7.246094 C 11.988281 7.253906 11.039062 8.191406 12.203125 10.226562 C 12.476562 10.703125 12.703125 11.085938 12.882812 11.402344 C 13.539062 12.523438 13.65625 12.726562 13.601562 12.953125 C 13.542969 13.191406 13.394531 13.324219 13.191406 13.324219 C 13.140625 13.324219 13.089844 13.316406 13.039062 13.300781 C 12.746094 13.210938 12.273438 12.640625 12.21875 12.574219 C 12.203125 12.550781 12.175781 12.519531 12.148438 12.476562 C 11.980469 12.253906 11.585938 11.722656 11.238281 11.722656 "/>
<path style=" stroke:none;fill-rule:nonzero;fill:rgb(0%,0%,0%);fill-opacity:1;" d="M 25.027344 18.539062 C 25.027344 15.234375 22.335938 12.546875 19.03125 12.546875 C 15.726562 12.546875 13.035156 15.234375 13.035156 18.539062 C 13.035156 21.847656 15.726562 24.535156 19.03125 24.535156 C 22.335938 24.535156 25.027344 21.847656 25.027344 18.539062 "/>
<path style=" stroke:none;fill-rule:nonzero;fill:rgb(100%,100%,100%);fill-opacity:1;" d="M 19.03125 12.714844 C 15.820312 12.714844 13.207031 15.328125 13.207031 18.539062 C 13.207031 21.753906 15.820312 24.367188 19.03125 24.367188 C 22.242188 24.367188 24.855469 21.753906 24.855469 18.539062 C 24.855469 15.328125 22.242188 12.714844 19.03125 12.714844 Z M 19.03125 12.714844 "/>
<path style=" stroke:none;fill-rule:nonzero;fill:rgb(0%,28.627451%,58.823529%);fill-opacity:1;" d="M 22.472656 21.339844 C 22.925781 21.339844 23.359375 21.257812 23.839844 20.804688 C 24.320312 20.355469 24.429688 19.734375 24.429688 19.429688 C 24.429688 19.125 24.300781 18.488281 23.878906 18.140625 C 23.453125 17.789062 22.613281 17.605469 22.4375 17.566406 C 22.261719 17.527344 21.9375 17.472656 21.9375 17.046875 C 21.9375 16.617188 22.257812 16.476562 22.4375 16.476562 C 22.617188 16.476562 22.753906 16.617188 22.867188 16.726562 C 22.976562 16.835938 22.921875 17.238281 23.40625 17.238281 C 23.890625 17.238281 23.890625 16.671875 23.515625 16.132812 C 23.144531 15.589844 22.644531 15.5625 22.410156 15.5625 C 22.175781 15.5625 20.984375 15.703125 20.984375 17.046875 C 20.984375 18.386719 22.367188 18.5 22.769531 18.609375 C 23.171875 18.71875 23.515625 19.039062 23.515625 19.507812 C 23.515625 19.980469 23.0625 20.410156 22.480469 20.410156 C 21.898438 20.410156 21.691406 20.132812 21.605469 19.925781 C 21.523438 19.71875 21.441406 19.300781 21.371094 19.054688 C 21.300781 18.804688 20.898438 18.417969 20.898438 18.417969 C 20.898438 18.417969 19.320312 17.199219 19.058594 16.933594 C 19.128906 16.933594 20.554688 16.835938 20.554688 15.425781 C 20.554688 14.011719 18.894531 13.945312 18.894531 13.945312 L 16.316406 13.945312 C 16.097656 13.945312 15.957031 14.152344 15.957031 14.359375 L 15.957031 18.71875 C 15.957031 18.996094 16.246094 19.175781 16.453125 19.175781 C 16.660156 19.175781 16.898438 18.914062 16.898438 18.730469 L 16.898438 14.851562 L 19.199219 14.851562 C 19.363281 14.851562 19.640625 15.054688 19.640625 15.398438 C 19.640625 15.738281 19.316406 15.960938 19.125 15.960938 L 17.554688 15.960938 C 17.359375 15.960938 17.175781 16.210938 17.175781 16.421875 C 17.175781 16.632812 17.371094 16.800781 17.371094 16.800781 C 17.371094 16.800781 19.160156 18.175781 19.539062 18.441406 C 19.417969 18.453125 17.601562 18.894531 17.601562 20.722656 C 17.601562 22.550781 19.242188 23.207031 19.6875 23.207031 L 21.808594 23.207031 C 21.808594 23.207031 22.207031 23.125 22.207031 22.753906 C 22.207031 22.382812 21.808594 22.3125 21.808594 22.3125 L 19.835938 22.3125 C 19.660156 22.3125 18.550781 22.164062 18.550781 20.816406 C 18.550781 19.46875 19.953125 19.347656 20.039062 19.347656 C 20.121094 19.347656 20.351562 19.347656 20.5625 19.414062 C 20.839844 21.277344 22.023438 21.339844 22.472656 21.339844 "/>
<path style=" stroke:none;fill-rule:nonzero;fill:rgb(0%,28.627451%,58.823529%);fill-opacity:1;" d="M 17.121094 20.230469 L 15.445312 20.230469 L 15.445312 18.414062 L 15.328125 18.296875 L 15.328125 17.335938 L 15.070312 16.976562 L 14.890625 15.121094 L 14.710938 16.976562 L 14.421875 17.335938 L 14.421875 18.292969 L 14.226562 18.484375 L 14.226562 21.199219 C 14.226562 21.199219 14.984375 22.445312 15.957031 22.914062 L 17.757812 22.914062 L 18.019531 22.707031 C 18.019531 22.707031 17.121094 22.375 17.121094 20.230469 "/>
</g>
</svg>
