<?xml version="1.0" encoding="UTF-8"?>
<svg xmlns="http://www.w3.org/2000/svg" xmlns:xlink="http://www.w3.org/1999/xlink" width="32px" height="32px" viewBox="0 0 32 35" version="1.1">
<g id="surface1">
<path style=" stroke:none;fill-rule:nonzero;fill:rgb(98.823529%,73.72549%,9.019608%);fill-opacity:1;" d="M 28.195312 11.335938 C 27.816406 9.769531 27.488281 8.414062 27.398438 7.648438 C 27.175781 5.671875 28.054688 4.320312 28.066406 4.308594 L 28.316406 3.929688 L 25.519531 0.457031 L 25.128906 0.550781 C 22.566406 1.179688 19.230469 1.523438 15.746094 1.523438 L 15.585938 1.523438 C 12.101562 1.523438 8.765625 1.179688 6.203125 0.550781 L 5.816406 0.457031 L 3.015625 3.929688 L 3.265625 4.308594 C 3.277344 4.320312 4.15625 5.671875 3.933594 7.648438 C 3.847656 8.414062 3.515625 9.769531 3.136719 11.335938 C 2.421875 14.265625 1.535156 17.914062 1.535156 20.492188 C 1.535156 25.1875 3.46875 27.523438 9.195312 29.75 L 9.785156 29.976562 C 11.996094 30.824219 14.382812 31.5625 15.167969 33.363281 C 15.425781 33.851562 15.492188 33.980469 15.667969 34.617188 C 15.84375 33.980469 15.90625 33.851562 16.164062 33.363281 C 16.949219 31.5625 19.335938 30.824219 21.546875 29.976562 L 22.136719 29.75 C 27.863281 27.523438 29.796875 25.1875 29.796875 20.492188 C 29.796875 17.914062 28.910156 14.265625 28.195312 11.335938 Z M 28.195312 11.335938 "/>
<path style=" stroke:none;fill-rule:nonzero;fill:rgb(88.235294%,20%,15.294118%);fill-opacity:1;" d="M 28.652344 16.164062 C 28.34375 14.582031 27.949219 12.945312 27.589844 11.480469 C 27.210938 9.90625 26.878906 8.5625 26.78125 7.71875 C 26.75 7.472656 26.738281 7.234375 26.738281 7.003906 C 26.742188 5.675781 27.15625 4.691406 27.386719 4.242188 C 27.464844 4.089844 27.519531 4.003906 27.542969 3.96875 L 27.546875 3.964844 L 25.28125 1.152344 C 22.644531 1.792969 19.273438 2.140625 15.746094 2.140625 L 15.667969 2.140625 L 15.667969 32.957031 C 15.898438 32.484375 16.226562 32.082031 16.605469 31.738281 C 17.023438 31.355469 17.511719 31.042969 18.027344 30.765625 C 19.0625 30.21875 20.230469 29.820312 21.320312 29.398438 L 21.910156 29.171875 C 24.023438 28.351562 25.578125 27.523438 26.675781 26.605469 C 27.773438 25.683594 28.429688 24.691406 28.808594 23.433594 C 29.058594 22.589844 29.175781 21.625 29.175781 20.492188 C 29.175781 19.273438 28.960938 17.742188 28.652344 16.164062 Z M 28.652344 16.164062 "/>
<path style=" stroke:none;fill-rule:nonzero;fill:rgb(0%,0%,0%);fill-opacity:1;" d="M 15.664062 2.140625 L 15.585938 2.140625 C 12.058594 2.140625 8.6875 1.792969 6.054688 1.152344 L 3.785156 3.964844 C 3.785156 3.96875 3.789062 3.96875 3.789062 3.96875 C 3.789062 3.972656 3.792969 3.976562 3.792969 3.976562 C 3.796875 3.984375 3.800781 3.988281 3.804688 3.996094 C 3.8125 4.007812 3.824219 4.027344 3.835938 4.046875 C 3.863281 4.089844 3.894531 4.148438 3.933594 4.222656 C 4.011719 4.367188 4.109375 4.578125 4.207031 4.839844 C 4.402344 5.363281 4.59375 6.105469 4.59375 7.003906 C 4.59375 7.234375 4.582031 7.472656 4.550781 7.71875 C 4.453125 8.5625 4.121094 9.90625 3.742188 11.480469 C 3.386719 12.945312 2.988281 14.582031 2.679688 16.164062 C 2.371094 17.742188 2.15625 19.273438 2.160156 20.492188 C 2.15625 21.625 2.273438 22.589844 2.523438 23.429688 C 2.773438 24.273438 3.152344 24.992188 3.699219 25.652344 C 4.789062 26.972656 6.601562 28.078125 9.421875 29.171875 L 10.011719 29.398438 C 10.828125 29.714844 11.691406 30.019531 12.507812 30.382812 C 13.324219 30.746094 14.097656 31.164062 14.726562 31.738281 C 15.105469 32.082031 15.433594 32.484375 15.667969 32.957031 L 15.667969 2.140625 Z M 15.664062 2.140625 "/>
<path style=" stroke:none;fill-rule:nonzero;fill:rgb(100%,100%,100%);fill-opacity:1;" d="M 5.796875 20.816406 C 5.667969 20.683594 5.464844 20.609375 5.28125 20.609375 C 5.09375 20.609375 4.859375 20.679688 4.859375 20.90625 C 4.859375 21.351562 5.988281 21.34375 5.988281 21.945312 C 5.988281 22.292969 5.621094 22.621094 5.109375 22.621094 C 4.910156 22.621094 4.707031 22.589844 4.519531 22.523438 L 4.425781 22.117188 C 4.621094 22.28125 4.886719 22.386719 5.144531 22.386719 C 5.332031 22.386719 5.613281 22.273438 5.613281 22.046875 C 5.613281 21.539062 4.484375 21.632812 4.484375 20.941406 C 4.484375 20.53125 4.910156 20.375 5.308594 20.375 C 5.472656 20.375 5.640625 20.398438 5.796875 20.445312 L 5.796875 20.816406 "/>
<path style=" stroke:none;fill-rule:nonzero;fill:rgb(100%,100%,100%);fill-opacity:1;" d="M 6.917969 22.144531 C 6.917969 22.332031 6.914062 22.457031 7.089844 22.558594 L 7.089844 22.566406 L 6.4375 22.566406 L 6.4375 22.558594 C 6.601562 22.496094 6.582031 22.257812 6.582031 22.113281 L 6.582031 20.660156 L 6.292969 20.660156 C 6.152344 20.660156 6.007812 20.699219 5.90625 20.792969 L 5.894531 20.792969 L 6.007812 20.40625 L 6.019531 20.40625 C 6.058594 20.421875 6.101562 20.421875 6.144531 20.425781 L 7.449219 20.425781 C 7.503906 20.425781 7.558594 20.425781 7.601562 20.40625 L 7.609375 20.40625 L 7.503906 20.792969 L 7.496094 20.792969 C 7.453125 20.679688 7.320312 20.660156 7.210938 20.660156 L 6.917969 20.660156 L 6.917969 22.144531 "/>
<path style=" stroke:none;fill-rule:nonzero;fill:rgb(100%,100%,100%);fill-opacity:1;" d="M 8.378906 20.703125 L 8.054688 21.523438 L 8.703125 21.523438 L 8.378906 20.703125 M 7.972656 21.765625 L 7.800781 22.222656 C 7.730469 22.40625 7.707031 22.5 7.867188 22.558594 L 7.867188 22.566406 L 7.261719 22.566406 L 7.261719 22.558594 C 7.453125 22.464844 7.507812 22.28125 7.582031 22.097656 L 8.128906 20.738281 C 8.175781 20.621094 8.238281 20.484375 8.078125 20.4375 L 8.078125 20.425781 L 8.597656 20.425781 L 9.28125 22.097656 C 9.355469 22.28125 9.414062 22.464844 9.601562 22.558594 L 9.601562 22.566406 L 8.929688 22.566406 L 8.929688 22.558594 C 9.089844 22.488281 9.0625 22.449219 8.972656 22.222656 L 8.796875 21.765625 Z M 7.972656 21.765625 "/>
<path style=" stroke:none;fill-rule:nonzero;fill:rgb(100%,100%,100%);fill-opacity:1;" d="M 10.1875 22.3125 C 10.265625 22.328125 10.34375 22.332031 10.425781 22.332031 C 10.914062 22.332031 11.351562 22.082031 11.351562 21.515625 C 11.351562 20.949219 11.03125 20.660156 10.484375 20.660156 C 10.382812 20.660156 10.285156 20.675781 10.1875 20.699219 L 10.1875 22.3125 M 9.851562 20.875 C 9.851562 20.722656 9.875 20.484375 9.707031 20.4375 L 9.707031 20.425781 L 10.511719 20.425781 C 11.257812 20.425781 11.726562 20.832031 11.726562 21.476562 C 11.726562 22.117188 11.230469 22.566406 10.496094 22.566406 L 9.707031 22.566406 L 9.707031 22.558594 C 9.871094 22.445312 9.851562 22.289062 9.851562 22.097656 Z M 9.851562 20.875 "/>
<path style=" stroke:none;fill-rule:nonzero;fill:rgb(100%,100%,100%);fill-opacity:1;" d="M 12.359375 22.292969 L 12.773438 22.332031 C 12.992188 22.351562 13.21875 22.285156 13.382812 22.140625 L 13.390625 22.140625 L 13.242188 22.566406 L 11.875 22.566406 L 11.875 22.558594 C 12.042969 22.5 12.023438 22.257812 12.023438 22.113281 L 12.023438 20.886719 C 12.023438 20.738281 12.042969 20.5 11.875 20.4375 L 11.875 20.425781 L 12.925781 20.425781 C 12.980469 20.425781 13.039062 20.433594 13.078125 20.410156 L 13.089844 20.410156 L 13.089844 20.792969 L 13.078125 20.792969 C 12.976562 20.675781 12.84375 20.660156 12.691406 20.660156 C 12.578125 20.660156 12.464844 20.664062 12.359375 20.683594 L 12.359375 21.289062 L 12.75 21.289062 C 12.800781 21.289062 12.855469 21.289062 12.894531 21.269531 L 12.902344 21.269531 L 12.902344 21.613281 L 12.894531 21.613281 C 12.839844 21.519531 12.703125 21.523438 12.601562 21.523438 L 12.359375 21.523438 L 12.359375 22.292969 "/>
<path style=" stroke:none;fill-rule:nonzero;fill:rgb(100%,100%,100%);fill-opacity:1;" d="M 15.105469 20.425781 C 15.542969 20.425781 15.785156 20.65625 15.785156 20.953125 C 15.785156 21.238281 15.53125 21.460938 15.261719 21.523438 L 15.734375 22.113281 C 15.871094 22.28125 16.078125 22.449219 16.265625 22.566406 L 15.964844 22.566406 C 15.789062 22.566406 15.683594 22.523438 15.582031 22.40625 L 15.183594 21.914062 L 14.882812 21.457031 C 15.144531 21.417969 15.449219 21.296875 15.449219 20.992188 C 15.449219 20.757812 15.246094 20.621094 15.027344 20.628906 C 14.949219 20.632812 14.878906 20.640625 14.804688 20.65625 L 14.804688 22.113281 C 14.804688 22.261719 14.785156 22.5 14.949219 22.558594 L 14.949219 22.566406 L 14.324219 22.566406 L 14.324219 22.558594 C 14.492188 22.5 14.46875 22.257812 14.46875 22.113281 L 14.46875 20.886719 C 14.46875 20.738281 14.492188 20.5 14.324219 20.4375 L 14.324219 20.425781 L 15.105469 20.425781 "/>
<path style=" stroke:none;fill-rule:nonzero;fill:rgb(100%,100%,100%);fill-opacity:1;" d="M 16.636719 22.292969 L 17.054688 22.332031 C 17.269531 22.351562 17.496094 22.285156 17.660156 22.140625 L 17.667969 22.140625 L 17.523438 22.566406 L 16.152344 22.566406 L 16.152344 22.558594 C 16.320312 22.5 16.300781 22.257812 16.300781 22.113281 L 16.300781 20.886719 C 16.300781 20.738281 16.320312 20.5 16.152344 20.4375 L 16.152344 20.425781 L 17.203125 20.425781 C 17.257812 20.425781 17.316406 20.433594 17.359375 20.410156 L 17.367188 20.410156 L 17.367188 20.792969 L 17.359375 20.792969 C 17.257812 20.675781 17.121094 20.660156 16.96875 20.660156 C 16.855469 20.660156 16.742188 20.664062 16.636719 20.683594 L 16.636719 21.289062 L 17.027344 21.289062 C 17.078125 21.289062 17.132812 21.289062 17.171875 21.269531 L 17.179688 21.269531 L 17.179688 21.613281 L 17.171875 21.613281 C 17.117188 21.519531 16.980469 21.523438 16.878906 21.523438 L 16.636719 21.523438 L 16.636719 22.292969 "/>
<path style=" stroke:none;fill-rule:nonzero;fill:rgb(100%,100%,100%);fill-opacity:1;" d="M 18.15625 22.144531 C 18.15625 22.328125 18.152344 22.457031 18.328125 22.558594 L 18.328125 22.566406 L 17.746094 22.566406 L 17.746094 22.558594 C 17.921875 22.457031 17.921875 22.328125 17.921875 22.144531 L 17.921875 20.847656 C 17.921875 20.664062 17.921875 20.535156 17.75 20.4375 L 17.75 20.425781 L 18.230469 20.425781 L 18.230469 20.429688 C 18.242188 20.46875 18.257812 20.484375 18.277344 20.511719 L 18.324219 20.578125 L 19.523438 22.082031 L 19.523438 20.847656 C 19.523438 20.664062 19.527344 20.535156 19.355469 20.4375 L 19.355469 20.425781 L 19.929688 20.425781 L 19.929688 20.4375 C 19.761719 20.535156 19.761719 20.664062 19.761719 20.847656 L 19.761719 22.671875 C 19.527344 22.59375 19.425781 22.488281 19.28125 22.300781 L 18.15625 20.886719 L 18.15625 22.144531 "/>
<path style=" stroke:none;fill-rule:nonzero;fill:rgb(100%,100%,100%);fill-opacity:1;" d="M 20.4375 22.144531 C 20.4375 22.328125 20.433594 22.457031 20.605469 22.558594 L 20.605469 22.566406 L 20.027344 22.566406 L 20.027344 22.558594 C 20.199219 22.457031 20.199219 22.328125 20.199219 22.144531 L 20.199219 20.847656 C 20.199219 20.664062 20.199219 20.535156 20.03125 20.4375 L 20.03125 20.425781 L 20.507812 20.425781 L 20.507812 20.429688 C 20.519531 20.46875 20.535156 20.484375 20.558594 20.511719 L 20.605469 20.578125 L 21.804688 22.082031 L 21.804688 20.847656 C 21.804688 20.664062 21.808594 20.535156 21.632812 20.4375 L 21.632812 20.425781 L 22.210938 20.425781 L 22.210938 20.4375 C 22.039062 20.535156 22.039062 20.664062 22.039062 20.847656 L 22.039062 22.671875 C 21.808594 22.59375 21.707031 22.488281 21.5625 22.300781 L 20.4375 20.886719 L 20.4375 22.144531 "/>
<path style=" stroke:none;fill-rule:nonzero;fill:rgb(100%,100%,100%);fill-opacity:1;" d="M 23.332031 20.703125 L 23.007812 21.523438 L 23.652344 21.523438 L 23.332031 20.703125 M 22.921875 21.765625 L 22.753906 22.222656 C 22.683594 22.40625 22.660156 22.5 22.816406 22.558594 L 22.816406 22.566406 L 22.214844 22.566406 L 22.214844 22.558594 C 22.402344 22.464844 22.460938 22.28125 22.53125 22.097656 L 23.078125 20.738281 C 23.125 20.621094 23.1875 20.484375 23.03125 20.4375 L 23.03125 20.425781 L 23.546875 20.425781 L 24.230469 22.097656 C 24.304688 22.28125 24.363281 22.464844 24.550781 22.558594 L 24.550781 22.566406 L 23.878906 22.566406 L 23.878906 22.558594 C 24.039062 22.488281 24.015625 22.449219 23.925781 22.222656 L 23.75 21.765625 Z M 22.921875 21.765625 "/>
<path style=" stroke:none;fill-rule:nonzero;fill:rgb(100%,100%,100%);fill-opacity:1;" d="M 24.808594 20.886719 C 24.808594 20.738281 24.832031 20.5 24.664062 20.4375 L 24.664062 20.425781 L 25.285156 20.425781 L 25.285156 20.4375 C 25.121094 20.5 25.140625 20.738281 25.140625 20.886719 L 25.140625 22.113281 C 25.140625 22.257812 25.121094 22.496094 25.285156 22.558594 L 25.285156 22.566406 L 24.664062 22.566406 L 24.664062 22.558594 C 24.828125 22.5 24.808594 22.257812 24.808594 22.113281 L 24.808594 20.886719 "/>
<path style=" stroke:none;fill-rule:nonzero;fill:rgb(100%,100%,100%);fill-opacity:1;" d="M 26.714844 20.816406 C 26.585938 20.683594 26.382812 20.609375 26.199219 20.609375 C 26.015625 20.609375 25.777344 20.679688 25.777344 20.90625 C 25.777344 21.351562 26.90625 21.34375 26.90625 21.945312 C 26.90625 22.292969 26.539062 22.621094 26.027344 22.621094 C 25.828125 22.621094 25.628906 22.589844 25.441406 22.523438 L 25.34375 22.117188 C 25.539062 22.28125 25.808594 22.386719 26.0625 22.386719 C 26.25 22.386719 26.53125 22.273438 26.53125 22.046875 C 26.53125 21.539062 25.402344 21.632812 25.402344 20.941406 C 25.402344 20.53125 25.828125 20.375 26.226562 20.375 C 26.390625 20.375 26.558594 20.398438 26.714844 20.445312 L 26.714844 20.816406 "/>
<path style=" stroke:none;fill-rule:nonzero;fill:rgb(100%,100%,100%);fill-opacity:1;" d="M 8.023438 24.722656 C 8.023438 24.800781 8.007812 24.933594 8.097656 24.96875 L 8.097656 24.976562 L 7.753906 24.976562 L 7.753906 24.96875 C 7.84375 24.9375 7.835938 24.800781 7.835938 24.722656 L 7.835938 24.035156 C 7.835938 23.953125 7.84375 23.820312 7.753906 23.785156 L 7.753906 23.777344 L 8.339844 23.777344 C 8.371094 23.777344 8.402344 23.78125 8.425781 23.769531 L 8.429688 23.769531 L 8.429688 23.980469 L 8.425781 23.980469 C 8.367188 23.917969 8.292969 23.910156 8.207031 23.910156 C 8.144531 23.910156 8.082031 23.910156 8.019531 23.921875 L 8.019531 24.261719 L 8.242188 24.261719 C 8.269531 24.261719 8.296875 24.261719 8.320312 24.25 L 8.324219 24.25 L 8.324219 24.441406 L 8.320312 24.441406 C 8.289062 24.386719 8.214844 24.390625 8.15625 24.390625 L 8.019531 24.390625 L 8.019531 24.722656 "/>
<path style=" stroke:none;fill-rule:nonzero;fill:rgb(100%,100%,100%);fill-opacity:1;" d="M 8.835938 24.355469 C 8.835938 24.613281 9.019531 24.875 9.304688 24.875 C 9.585938 24.875 9.761719 24.671875 9.761719 24.398438 C 9.761719 24.136719 9.59375 23.878906 9.300781 23.878906 C 9.019531 23.878906 8.835938 24.082031 8.835938 24.355469 M 9.972656 24.363281 C 9.972656 24.734375 9.660156 25.003906 9.296875 25.003906 C 8.933594 25.003906 8.628906 24.746094 8.628906 24.375 C 8.628906 24.027344 8.929688 23.738281 9.316406 23.746094 C 9.699219 23.746094 9.972656 24.039062 9.972656 24.363281 Z M 9.972656 24.363281 "/>
<path style=" stroke:none;fill-rule:nonzero;fill:rgb(100%,100%,100%);fill-opacity:1;" d="M 10.394531 24.355469 C 10.394531 24.613281 10.578125 24.875 10.863281 24.875 C 11.144531 24.875 11.320312 24.671875 11.320312 24.398438 C 11.320312 24.136719 11.148438 23.878906 10.859375 23.878906 C 10.578125 23.878906 10.394531 24.082031 10.394531 24.355469 M 11.53125 24.363281 C 11.53125 24.734375 11.21875 25.003906 10.855469 25.003906 C 10.492188 25.003906 10.1875 24.746094 10.1875 24.375 C 10.1875 24.027344 10.488281 23.738281 10.875 23.746094 C 11.257812 23.746094 11.53125 24.039062 11.53125 24.363281 Z M 11.53125 24.363281 "/>
<path style=" stroke:none;fill-rule:nonzero;fill:rgb(100%,100%,100%);fill-opacity:1;" d="M 12.207031 24.738281 C 12.207031 24.84375 12.203125 24.914062 12.300781 24.96875 L 12.300781 24.976562 L 11.9375 24.976562 L 11.9375 24.96875 C 12.03125 24.933594 12.019531 24.800781 12.019531 24.71875 L 12.019531 23.910156 L 11.859375 23.910156 C 11.777344 23.910156 11.695312 23.929688 11.640625 23.984375 L 11.632812 23.984375 L 11.699219 23.765625 L 11.703125 23.765625 C 11.726562 23.773438 11.75 23.773438 11.773438 23.777344 L 12.503906 23.777344 C 12.535156 23.777344 12.5625 23.777344 12.585938 23.765625 L 12.59375 23.765625 L 12.535156 23.984375 L 12.527344 23.984375 C 12.503906 23.917969 12.429688 23.910156 12.371094 23.910156 L 12.207031 23.910156 L 12.207031 24.738281 "/>
<path style=" stroke:none;fill-rule:nonzero;fill:rgb(100%,100%,100%);fill-opacity:1;" d="M 13.203125 24.261719 C 13.320312 24.261719 13.492188 24.21875 13.492188 24.070312 C 13.492188 23.945312 13.375 23.882812 13.265625 23.890625 L 13.140625 23.90625 L 13.140625 24.261719 L 13.203125 24.261719 M 13.300781 24.84375 C 13.453125 24.859375 13.605469 24.789062 13.605469 24.617188 C 13.605469 24.441406 13.429688 24.363281 13.269531 24.375 L 13.140625 24.378906 L 13.140625 24.828125 Z M 12.953125 24.035156 C 12.953125 23.953125 12.96875 23.820312 12.875 23.785156 L 12.875 23.777344 L 13.308594 23.777344 C 13.550781 23.777344 13.691406 23.882812 13.691406 24.042969 C 13.691406 24.164062 13.613281 24.234375 13.507812 24.277344 C 13.671875 24.3125 13.808594 24.421875 13.808594 24.601562 C 13.808594 24.742188 13.710938 24.859375 13.585938 24.917969 C 13.457031 24.980469 13.3125 24.976562 13.175781 24.976562 L 12.875 24.976562 L 12.875 24.96875 C 12.964844 24.933594 12.953125 24.800781 12.953125 24.71875 Z M 12.953125 24.035156 "/>
<path style=" stroke:none;fill-rule:nonzero;fill:rgb(100%,100%,100%);fill-opacity:1;" d="M 14.648438 23.933594 L 14.464844 24.390625 L 14.828125 24.390625 L 14.648438 23.933594 M 14.417969 24.527344 L 14.324219 24.78125 C 14.285156 24.882812 14.273438 24.9375 14.359375 24.96875 L 14.359375 24.976562 L 14.023438 24.976562 L 14.023438 24.96875 C 14.128906 24.917969 14.160156 24.816406 14.199219 24.710938 L 14.507812 23.953125 C 14.53125 23.886719 14.566406 23.8125 14.480469 23.785156 L 14.480469 23.777344 L 14.769531 23.777344 L 15.148438 24.710938 C 15.191406 24.816406 15.226562 24.917969 15.328125 24.96875 L 15.328125 24.976562 L 14.953125 24.976562 L 14.953125 24.96875 C 15.042969 24.929688 15.027344 24.910156 14.980469 24.78125 L 14.878906 24.527344 Z M 14.417969 24.527344 "/>
<path style=" stroke:none;fill-rule:nonzero;fill:rgb(100%,100%,100%);fill-opacity:1;" d="M 16.058594 24.84375 C 16.183594 24.851562 16.292969 24.808594 16.382812 24.734375 L 16.390625 24.734375 L 16.292969 24.976562 L 15.539062 24.976562 L 15.539062 24.96875 C 15.632812 24.9375 15.621094 24.800781 15.621094 24.722656 L 15.621094 24.035156 C 15.621094 23.953125 15.632812 23.820312 15.539062 23.785156 L 15.539062 23.777344 L 15.890625 23.777344 L 15.890625 23.785156 C 15.796875 23.820312 15.808594 23.953125 15.808594 24.035156 L 15.808594 24.828125 L 16.058594 24.84375 "/>
<path style=" stroke:none;fill-rule:nonzero;fill:rgb(100%,100%,100%);fill-opacity:1;" d="M 17.140625 24.84375 C 17.265625 24.851562 17.371094 24.808594 17.464844 24.734375 L 17.46875 24.734375 L 17.375 24.976562 L 16.621094 24.976562 L 16.621094 24.96875 C 16.714844 24.9375 16.703125 24.800781 16.703125 24.722656 L 16.703125 24.035156 C 16.703125 23.953125 16.714844 23.820312 16.621094 23.785156 L 16.621094 23.777344 L 16.972656 23.777344 L 16.972656 23.785156 C 16.878906 23.820312 16.890625 23.953125 16.890625 24.035156 L 16.890625 24.828125 L 17.140625 24.84375 "/>
<path style=" stroke:none;fill-rule:nonzero;fill:rgb(100%,100%,100%);fill-opacity:1;" d="M 19.777344 24.003906 C 19.675781 23.941406 19.558594 23.902344 19.4375 23.902344 C 19.183594 23.902344 19.007812 24.085938 19.007812 24.347656 C 19.007812 24.613281 19.191406 24.851562 19.472656 24.851562 C 19.609375 24.851562 19.75 24.804688 19.863281 24.738281 L 19.871094 24.738281 L 19.777344 24.949219 C 19.691406 24.988281 19.59375 25.003906 19.5 25.003906 C 19.066406 25.003906 18.800781 24.765625 18.800781 24.375 C 18.800781 24 19.066406 23.75 19.441406 23.75 C 19.554688 23.75 19.667969 23.769531 19.777344 23.796875 L 19.777344 24.003906 "/>
<path style=" stroke:none;fill-rule:nonzero;fill:rgb(100%,100%,100%);fill-opacity:1;" d="M 20.71875 24.84375 C 20.84375 24.851562 20.949219 24.808594 21.042969 24.734375 L 21.046875 24.734375 L 20.953125 24.976562 L 20.199219 24.976562 L 20.199219 24.96875 C 20.292969 24.9375 20.28125 24.800781 20.28125 24.722656 L 20.28125 24.035156 C 20.28125 23.953125 20.292969 23.820312 20.199219 23.785156 L 20.199219 23.777344 L 20.546875 23.777344 L 20.546875 23.785156 C 20.457031 23.820312 20.46875 23.953125 20.46875 24.035156 L 20.46875 24.828125 L 20.71875 24.84375 "/>
<path style=" stroke:none;fill-rule:nonzero;fill:rgb(100%,100%,100%);fill-opacity:1;" d="M 22.109375 24.855469 C 22.03125 24.960938 21.878906 25.003906 21.75 25.003906 C 21.628906 25.003906 21.5 24.964844 21.417969 24.878906 C 21.320312 24.773438 21.324219 24.648438 21.324219 24.519531 L 21.324219 24.035156 C 21.324219 23.953125 21.339844 23.820312 21.246094 23.785156 L 21.246094 23.777344 L 21.59375 23.777344 L 21.59375 23.785156 C 21.5 23.820312 21.511719 23.953125 21.511719 24.035156 L 21.511719 24.519531 C 21.511719 24.761719 21.617188 24.875 21.804688 24.875 C 21.90625 24.875 22.011719 24.832031 22.070312 24.746094 C 22.113281 24.691406 22.109375 24.644531 22.109375 24.582031 L 22.109375 24.035156 C 22.109375 23.953125 22.121094 23.820312 22.03125 23.785156 L 22.03125 23.777344 L 22.378906 23.777344 L 22.378906 23.785156 C 22.285156 23.820312 22.296875 23.953125 22.296875 24.035156 L 22.296875 24.722656 C 22.296875 24.800781 22.285156 24.933594 22.378906 24.96875 L 22.378906 24.976562 L 22.109375 24.976562 L 22.109375 24.855469 "/>
<path style=" stroke:none;fill-rule:nonzero;fill:rgb(100%,100%,100%);fill-opacity:1;" d="M 22.976562 24.261719 C 23.09375 24.261719 23.265625 24.21875 23.265625 24.070312 C 23.265625 23.945312 23.148438 23.882812 23.039062 23.890625 L 22.914062 23.90625 L 22.914062 24.261719 L 22.976562 24.261719 M 23.074219 24.84375 C 23.226562 24.859375 23.375 24.789062 23.375 24.617188 C 23.375 24.441406 23.203125 24.363281 23.042969 24.375 L 22.914062 24.378906 L 22.914062 24.828125 Z M 22.726562 24.035156 C 22.726562 23.953125 22.742188 23.820312 22.648438 23.785156 L 22.648438 23.777344 L 23.082031 23.777344 C 23.324219 23.777344 23.464844 23.882812 23.464844 24.042969 C 23.464844 24.164062 23.386719 24.234375 23.28125 24.277344 C 23.445312 24.3125 23.582031 24.421875 23.582031 24.601562 C 23.582031 24.742188 23.484375 24.859375 23.359375 24.917969 C 23.230469 24.980469 23.085938 24.976562 22.949219 24.976562 L 22.648438 24.976562 L 22.648438 24.96875 C 22.738281 24.933594 22.726562 24.800781 22.726562 24.71875 Z M 22.726562 24.035156 "/>
<path style=" stroke:none;fill-rule:nonzero;fill:rgb(98.823529%,73.72549%,9.019608%);fill-opacity:1;" d="M 13.304688 26.730469 C 13.453125 26.679688 13.582031 26.574219 13.660156 26.441406 L 13.664062 26.441406 L 13.664062 27.371094 C 13.664062 27.464844 13.65625 27.539062 13.746094 27.597656 L 13.746094 27.601562 L 13.398438 27.601562 L 13.398438 27.597656 C 13.503906 27.546875 13.496094 27.46875 13.496094 27.371094 L 13.496094 26.734375 L 13.304688 26.734375 L 13.304688 26.730469 "/>
<path style=" stroke:none;fill-rule:nonzero;fill:rgb(98.823529%,73.72549%,9.019608%);fill-opacity:1;" d="M 14.613281 27.53125 C 14.878906 27.476562 15.121094 27.238281 15.121094 26.960938 C 15.121094 26.792969 15.027344 26.609375 14.835938 26.609375 C 14.691406 26.609375 14.59375 26.71875 14.59375 26.859375 C 14.59375 27.007812 14.691406 27.125 14.847656 27.125 C 14.90625 27.125 14.96875 27.105469 15.023438 27.074219 L 14.910156 27.210938 C 14.867188 27.226562 14.820312 27.234375 14.773438 27.234375 C 14.582031 27.234375 14.425781 27.089844 14.425781 26.890625 C 14.425781 26.652344 14.625 26.492188 14.855469 26.492188 C 15.117188 26.492188 15.289062 26.695312 15.289062 26.945312 C 15.289062 27.132812 15.1875 27.316406 15.039062 27.433594 C 14.886719 27.550781 14.71875 27.609375 14.53125 27.632812 L 14.613281 27.53125 "/>
<path style=" stroke:none;fill-rule:nonzero;fill:rgb(98.823529%,73.72549%,9.019608%);fill-opacity:1;" d="M 16.183594 27.046875 C 16.183594 27.214844 16.238281 27.5 16.453125 27.5 C 16.617188 27.5 16.710938 27.296875 16.710938 27.066406 C 16.710938 26.832031 16.613281 26.625 16.445312 26.621094 C 16.234375 26.621094 16.183594 26.886719 16.183594 27.046875 M 16.007812 27.0625 C 16.007812 26.757812 16.15625 26.492188 16.449219 26.492188 C 16.757812 26.492188 16.886719 26.785156 16.886719 27.054688 C 16.886719 27.320312 16.753906 27.628906 16.445312 27.628906 C 16.183594 27.625 16.007812 27.367188 16.007812 27.0625 Z M 16.007812 27.0625 "/>
<path style=" stroke:none;fill-rule:nonzero;fill:rgb(98.823529%,73.72549%,9.019608%);fill-opacity:1;" d="M 17.585938 26.730469 C 17.734375 26.679688 17.863281 26.574219 17.941406 26.441406 L 17.945312 26.441406 L 17.945312 27.371094 C 17.945312 27.464844 17.9375 27.539062 18.027344 27.597656 L 18.027344 27.601562 L 17.679688 27.601562 L 17.679688 27.597656 C 17.78125 27.546875 17.777344 27.46875 17.777344 27.371094 L 17.777344 26.734375 L 17.585938 26.734375 L 17.585938 26.730469 "/>
<path style=" stroke:none;fill-rule:nonzero;fill:rgb(100%,100%,100%);fill-opacity:1;" d="M 18.867188 4.347656 L 12.464844 4.347656 L 8.667969 8.164062 L 8.667969 14.441406 L 12.566406 18.382812 L 18.765625 18.382812 L 18.8125 18.335938 L 22.664062 14.441406 L 22.664062 8.164062 Z M 18.867188 4.347656 "/>
<path style=" stroke:none;fill-rule:nonzero;fill:rgb(88.235294%,20%,15.294118%);fill-opacity:1;" d="M 14.230469 9.148438 C 14.230469 8.390625 14.828125 7.773438 15.582031 7.730469 L 15.582031 4.496094 L 12.53125 4.496094 L 8.820312 8.226562 L 8.820312 14.378906 L 12.628906 18.230469 L 15.582031 18.230469 L 15.582031 10.570312 C 14.828125 10.527344 14.230469 9.910156 14.230469 9.148438 Z M 14.230469 9.148438 "/>
<path style=" stroke:none;fill-rule:nonzero;fill:rgb(0%,0%,0%);fill-opacity:1;" d="M 18.804688 4.496094 L 15.75 4.496094 L 15.75 7.730469 C 16.503906 7.773438 17.101562 8.390625 17.101562 9.148438 C 17.101562 9.910156 16.503906 10.527344 15.75 10.570312 L 15.75 18.230469 L 18.703125 18.230469 L 22.511719 14.378906 L 22.511719 8.226562 Z M 18.804688 4.496094 "/>
<path style=" stroke:none;fill-rule:nonzero;fill:rgb(100%,100%,100%);fill-opacity:1;" d="M 16.066406 7.492188 L 16.105469 7 C 16.105469 7 16.847656 6.960938 17.503906 7.5 C 17.503906 7.5 18.035156 5.960938 18.777344 5.636719 C 18.777344 5.636719 18.828125 5.835938 18.878906 5.847656 C 18.929688 5.859375 19.105469 5.660156 19.15625 5.671875 C 19.207031 5.6875 19.09375 6.359375 20.667969 6.949219 L 20.582031 7.363281 C 20.582031 7.363281 18.652344 7.210938 18.652344 8.351562 C 18.652344 8.863281 19.394531 9.75 19.523438 9.914062 C 19.648438 10.074219 20.457031 10.726562 20.570312 12.464844 C 20.570312 12.464844 20.859375 12.253906 20.859375 11.703125 C 20.859375 11.152344 20.53125 10.050781 20.53125 9.652344 C 20.53125 9.25 20.46875 8.175781 21.566406 8.175781 L 21.566406 8.726562 C 21.566406 8.726562 21.195312 8.714844 21.148438 9.199219 C 21.113281 9.613281 21.652344 11.425781 21.402344 12.113281 C 21.195312 12.679688 21.085938 12.902344 20.683594 13.214844 C 20.277344 13.527344 18.992188 14.542969 20.226562 15.441406 L 19.082031 17.503906 C 19.082031 17.503906 18.410156 17.742188 18.363281 17.742188 C 18.3125 17.742188 18.171875 17.769531 18.273438 17.65625 C 18.375 17.542969 19.257812 16.730469 19.257812 15.84375 C 19.257812 14.953125 17.957031 14.679688 17.957031 13.339844 C 17.957031 12.453125 18.742188 11.914062 18.742188 11.914062 C 18.742188 11.914062 18.601562 11.589844 18.460938 11.476562 C 18.324219 11.363281 17.554688 10.914062 17.441406 10.636719 C 17.441406 10.636719 16.683594 11.25 16.078125 11.289062 C 16.078125 11.289062 15.925781 11.027344 15.914062 10.839844 C 15.914062 10.839844 17.425781 10.648438 17.398438 9.078125 C 17.375 7.761719 16.066406 7.492188 16.066406 7.492188 "/>
<path style=" stroke:none;fill-rule:nonzero;fill:rgb(100%,100%,100%);fill-opacity:1;" d="M 15.265625 7.492188 L 15.226562 7 C 15.226562 7 14.484375 6.960938 13.828125 7.5 C 13.828125 7.5 13.296875 5.960938 12.554688 5.636719 C 12.554688 5.636719 12.503906 5.835938 12.453125 5.847656 C 12.402344 5.859375 12.226562 5.660156 12.175781 5.671875 C 12.125 5.6875 12.238281 6.359375 10.664062 6.949219 L 10.75 7.363281 C 10.75 7.363281 12.679688 7.210938 12.679688 8.351562 C 12.679688 8.863281 11.9375 9.75 11.808594 9.914062 C 11.683594 10.074219 10.875 10.726562 10.761719 12.464844 C 10.761719 12.464844 10.472656 12.253906 10.472656 11.703125 C 10.472656 11.152344 10.800781 10.050781 10.800781 9.652344 C 10.800781 9.25 10.863281 8.175781 9.765625 8.175781 L 9.765625 8.726562 C 9.765625 8.726562 10.136719 8.714844 10.183594 9.199219 C 10.222656 9.613281 9.679688 11.425781 9.929688 12.113281 C 10.136719 12.679688 10.246094 12.902344 10.648438 13.214844 C 11.054688 13.527344 12.339844 14.542969 11.105469 15.441406 L 12.25 17.503906 C 12.25 17.503906 12.921875 17.742188 12.972656 17.742188 C 13.019531 17.742188 13.160156 17.769531 13.058594 17.65625 C 12.957031 17.542969 12.074219 16.730469 12.074219 15.84375 C 12.074219 14.953125 13.375 14.679688 13.375 13.339844 C 13.375 12.453125 12.59375 11.914062 12.59375 11.914062 C 12.59375 11.914062 12.730469 11.589844 12.871094 11.476562 C 13.007812 11.363281 13.777344 10.914062 13.890625 10.636719 C 13.890625 10.636719 14.648438 11.25 15.253906 11.289062 C 15.253906 11.289062 15.40625 11.027344 15.417969 10.839844 C 15.417969 10.839844 13.90625 10.648438 13.933594 9.078125 C 13.960938 7.761719 15.265625 7.492188 15.265625 7.492188 "/>
<path style=" stroke:none;fill-rule:nonzero;fill:rgb(100%,100%,100%);fill-opacity:1;" d="M 13.03125 15.480469 L 14.191406 17.148438 L 14.890625 17.261719 C 14.890625 17.261719 15.007812 17.261719 14.941406 17.164062 C 14.871094 17.0625 14.089844 16.164062 14.015625 15.9375 C 13.941406 15.710938 13.761719 15.519531 14.074219 15.09375 C 14.386719 14.671875 14.980469 14.269531 14.980469 13.417969 C 14.980469 12.570312 14.25 11.882812 13.292969 11.902344 C 12.863281 11.910156 13.210938 12.167969 13.25 12.21875 C 13.34375 12.335938 13.601562 12.695312 13.660156 13.238281 C 13.726562 13.832031 13.425781 14.195312 13.425781 14.246094 C 13.425781 14.386719 13.644531 14.410156 13.644531 14.769531 C 13.644531 15.1875 13.03125 15.480469 13.03125 15.480469 "/>
<path style=" stroke:none;fill-rule:nonzero;fill:rgb(100%,100%,100%);fill-opacity:1;" d="M 18.28125 15.480469 L 17.121094 17.148438 L 16.421875 17.261719 C 16.421875 17.261719 16.304688 17.261719 16.371094 17.164062 C 16.441406 17.0625 17.222656 16.164062 17.296875 15.9375 C 17.375 15.710938 17.550781 15.519531 17.238281 15.09375 C 16.929688 14.671875 16.332031 14.269531 16.332031 13.417969 C 16.332031 12.570312 17.0625 11.882812 18.019531 11.902344 C 18.449219 11.910156 18.101562 12.167969 18.0625 12.21875 C 17.96875 12.335938 17.710938 12.695312 17.652344 13.238281 C 17.585938 13.832031 17.886719 14.195312 17.886719 14.246094 C 17.886719 14.386719 17.667969 14.410156 17.667969 14.769531 C 17.667969 15.1875 18.28125 15.480469 18.28125 15.480469 "/>
</g>
</svg>
