<?xml version="1.0" encoding="UTF-8"?>
<svg xmlns="http://www.w3.org/2000/svg" xmlns:xlink="http://www.w3.org/1999/xlink" width="32px" height="32px" viewBox="0 0 32 40" version="1.1">
<defs>
<clipPath id="clip1">
  <path d="M 0.242188 0.246094 L 31.800781 0.246094 L 31.800781 40 L 0.242188 40 Z M 0.242188 0.246094 "/>
</clipPath>
</defs>
<g id="surface1">
<g clip-path="url(#clip1)" clip-rule="nonzero">
<path style=" stroke:none;fill-rule:nonzero;fill:rgb(0%,30.588235%,63.529412%);fill-opacity:1;" d="M 16.019531 39.792969 C 18.730469 36.054688 26.460938 34.683594 29.234375 33.996094 C 32.007812 33.3125 31.800781 31.347656 31.800781 31.347656 L 31.800781 0.246094 L 0.238281 0.246094 L 0.238281 31.347656 C 0.238281 31.347656 0.0351562 33.3125 2.808594 33.996094 C 5.578125 34.683594 13.3125 36.054688 16.019531 39.792969 "/>
<path style="fill:none;stroke-width:0.424;stroke-linecap:butt;stroke-linejoin:miter;stroke:rgb(100%,100%,100%);stroke-opacity:1;stroke-miterlimit:4;" d="M -0.00169315 -0.000974029 C -2.994958 3.343364 -9.360382 4.819808 -12.875679 5.63249 C -13.338772 5.738863 -13.738716 5.83247 -14.071301 5.913313 C -16.449915 6.508996 -16.403606 8.00246 -16.390976 8.1684 C -16.390976 8.1684 -16.390976 8.1684 -16.390976 8.159891 L -16.390976 41.50966 L 16.438109 41.50966 L 16.438109 8.19393 L 16.442319 8.159891 L 16.442319 8.1684 C 16.454949 8.00246 16.497048 6.508996 14.122644 5.913313 C 13.790059 5.83247 13.385905 5.738863 12.927022 5.63249 C 9.403305 4.815553 3.012621 3.339109 0.0235665 -0.0265033 Z M -0.00169315 -0.000974029 " transform="matrix(0.927864,0,0,-0.918063,15.997665,38.897543)"/>
</g>
<path style=" stroke:none;fill-rule:nonzero;fill:rgb(100%,100%,100%);fill-opacity:1;" d="M 16.019531 19.863281 L 20.792969 9.75 L 16.019531 12.742188 L 11.25 9.75 Z M 16.019531 19.863281 "/>
<path style=" stroke:none;fill-rule:nonzero;fill:rgb(0%,30.588235%,63.529412%);fill-opacity:1;" d="M 16.019531 13.242188 L 18.242188 11.992188 L 16.019531 14.238281 L 13.800781 11.992188 Z M 16.019531 13.242188 "/>
<path style=" stroke:none;fill-rule:nonzero;fill:rgb(100%,100%,100%);fill-opacity:1;" d="M 16.019531 19.863281 L 20.792969 29.976562 L 16.019531 26.984375 L 11.25 29.976562 Z M 16.019531 19.863281 "/>
<path style=" stroke:none;fill-rule:nonzero;fill:rgb(0%,30.588235%,63.529412%);fill-opacity:1;" d="M 16.019531 26.488281 L 18.242188 27.734375 L 16.019531 25.488281 L 13.800781 27.734375 Z M 16.019531 26.488281 "/>
<path style=" stroke:none;fill-rule:nonzero;fill:rgb(100%,100%,100%);fill-opacity:1;" d="M 16.019531 19.863281 L 5.800781 15.140625 L 8.824219 19.863281 L 5.800781 24.585938 Z M 16.019531 19.863281 "/>
<path style=" stroke:none;fill-rule:nonzero;fill:rgb(0%,30.588235%,63.529412%);fill-opacity:1;" d="M 9.328125 19.863281 L 8.066406 17.667969 L 10.335938 19.863281 L 8.066406 22.058594 Z M 9.328125 19.863281 "/>
<path style=" stroke:none;fill-rule:nonzero;fill:rgb(100%,100%,100%);fill-opacity:1;" d="M 16.019531 19.863281 L 26.242188 15.140625 L 23.21875 19.863281 L 26.242188 24.585938 Z M 16.019531 19.863281 "/>
<path style=" stroke:none;fill-rule:nonzero;fill:rgb(0%,30.588235%,63.529412%);fill-opacity:1;" d="M 22.714844 19.863281 L 23.972656 17.667969 L 21.707031 19.863281 L 23.972656 22.058594 Z M 22.714844 19.863281 "/>
<path style=" stroke:none;fill-rule:nonzero;fill:rgb(0%,30.588235%,63.529412%);fill-opacity:1;" d="M 16.019531 24.578125 C 18.652344 24.578125 20.785156 22.46875 20.785156 19.863281 C 20.785156 17.257812 18.652344 15.148438 16.019531 15.148438 C 13.386719 15.148438 11.253906 17.257812 11.253906 19.863281 C 11.253906 22.46875 13.386719 24.578125 16.019531 24.578125 "/>
<path style=" stroke:none;fill-rule:nonzero;fill:rgb(100%,100%,100%);fill-opacity:1;" d="M 16.019531 23.71875 C 18.171875 23.71875 19.917969 21.992188 19.917969 19.863281 C 19.917969 17.734375 18.171875 16.007812 16.019531 16.007812 C 13.867188 16.007812 12.121094 17.734375 12.121094 19.863281 C 12.121094 21.992188 13.867188 23.71875 16.019531 23.71875 "/>
<path style=" stroke:none;fill-rule:nonzero;fill:rgb(0%,30.588235%,63.529412%);fill-opacity:1;" d="M 16.019531 23.324219 C 17.953125 23.324219 19.519531 21.773438 19.519531 19.863281 C 19.519531 17.953125 17.953125 16.402344 16.019531 16.402344 C 14.089844 16.402344 12.523438 17.953125 12.523438 19.863281 C 12.523438 21.773438 14.089844 23.324219 16.019531 23.324219 "/>
<path style=" stroke:none;fill-rule:nonzero;fill:rgb(100%,100%,100%);fill-opacity:1;" d="M 14.050781 16.964844 L 13.863281 17.636719 L 13.296875 17.714844 L 13.453125 17.449219 Z M 14.050781 16.964844 "/>
<path style=" stroke:none;fill-rule:nonzero;fill:rgb(100%,100%,100%);fill-opacity:1;" d="M 13.894531 18.664062 L 12.902344 20.003906 L 13.625 21.5 L 15.089844 21.09375 L 15.074219 19.253906 Z M 13.894531 18.664062 "/>
<path style=" stroke:none;fill-rule:nonzero;fill:rgb(100%,100%,100%);fill-opacity:1;" d="M 14.714844 21.609375 L 15.042969 22.683594 L 16.019531 22.355469 L 16.933594 22.636719 L 17.421875 21.65625 L 16.777344 21.421875 L 16.777344 20.457031 L 15.421875 20.457031 L 15.421875 21.390625 Z M 14.714844 21.609375 "/>
<path style=" stroke:none;fill-rule:nonzero;fill:rgb(100%,100%,100%);fill-opacity:1;" d="M 16.019531 19.863281 L 15.421875 19.863281 L 15.40625 19.039062 L 14.777344 18.710938 L 15.453125 17.746094 L 16.226562 18.023438 L 16.980469 17.789062 L 17.59375 18.835938 L 16.886719 19.148438 L 16.886719 19.863281 Z M 16.019531 19.863281 "/>
<path style=" stroke:none;fill-rule:nonzero;fill:rgb(100%,100%,100%);fill-opacity:1;" d="M 17.171875 19.394531 L 17.171875 21.15625 L 18.492188 21.5625 L 19.234375 20.347656 L 18.507812 18.851562 Z M 17.171875 19.394531 "/>
<path style=" stroke:none;fill-rule:nonzero;fill:rgb(100%,100%,100%);fill-opacity:1;" d="M 19.515625 19.195312 L 19.613281 20.066406 L 19.3125 19.628906 Z M 19.515625 19.195312 "/>
<path style=" stroke:none;fill-rule:nonzero;fill:rgb(100%,100%,100%);fill-opacity:1;" d="M 18.621094 17.464844 L 18.636719 17.929688 L 19.058594 18.007812 Z M 18.621094 17.464844 "/>
<path style=" stroke:none;fill-rule:nonzero;fill:rgb(100%,100%,100%);fill-opacity:1;" d="M 18.164062 17.277344 L 17.988281 17.230469 L 17.988281 17.417969 L 17.53125 17.621094 L 18.148438 18.570312 L 18.632812 18.414062 L 18.964844 18.976562 L 19.171875 18.476562 L 18.351562 18.117188 Z M 18.164062 17.277344 "/>
<path style=" stroke:none;fill-rule:nonzero;fill:rgb(100%,100%,100%);fill-opacity:1;" d="M 12.792969 18.742188 L 12.949219 19.394531 L 12.476562 19.988281 L 12.507812 19.144531 Z M 12.792969 18.742188 "/>
<path style=" stroke:none;fill-rule:nonzero;fill:rgb(100%,100%,100%);fill-opacity:1;" d="M 12.617188 20.066406 L 12.902344 20.671875 L 12.664062 21.015625 L 12.492188 20.316406 Z M 12.617188 20.066406 "/>
<path style=" stroke:none;fill-rule:nonzero;fill:rgb(100%,100%,100%);fill-opacity:1;" d="M 13.136719 21.265625 L 13.46875 21.84375 L 14.210938 21.734375 L 14.570312 22.839844 L 14.445312 22.949219 L 13.816406 22.558594 L 13.203125 21.96875 L 12.949219 21.5625 Z M 13.136719 21.265625 "/>
<path style=" stroke:none;fill-rule:nonzero;fill:rgb(100%,100%,100%);fill-opacity:1;" d="M 14.855469 23.105469 L 16.066406 22.667969 L 17.121094 23.105469 L 16.648438 23.292969 L 15.46875 23.308594 Z M 14.855469 23.105469 "/>
<path style=" stroke:none;fill-rule:nonzero;fill:rgb(100%,100%,100%);fill-opacity:1;" d="M 15.21875 16.511719 L 14.902344 17.136719 L 16.257812 17.683594 L 17.515625 17.230469 L 17.3125 16.652344 L 16.539062 16.371094 L 15.878906 16.355469 Z M 15.21875 16.511719 "/>
<path style=" stroke:none;fill-rule:nonzero;fill:rgb(100%,100%,100%);fill-opacity:1;" d="M 17.421875 22.855469 L 17.957031 21.84375 L 18.585938 22 L 18.980469 21.421875 L 19.089844 21.5625 L 18.730469 22.105469 L 18.351562 22.511719 L 17.816406 22.902344 L 17.597656 22.980469 Z M 17.421875 22.855469 "/>
<path style=" stroke:none;fill-rule:nonzero;fill:rgb(100%,100%,100%);fill-opacity:1;" d="M 13.121094 18.070312 L 13.34375 18.820312 L 13.832031 18.257812 L 14.335938 18.460938 L 14.949219 17.589844 L 14.492188 17.308594 L 14.570312 17.058594 L 14.335938 16.996094 L 14.066406 17.898438 Z M 13.121094 18.070312 "/>
<path style="fill:none;stroke-width:0.085;stroke-linecap:butt;stroke-linejoin:miter;stroke:rgb(100%,100%,100%);stroke-opacity:1;stroke-miterlimit:4;" d="M 0.000297313 0.0000128957 L 0.236054 -1.050943 L -0.1681 -1.646627 L 0.202374 -2.459309 L -0.0333822 -2.816719 M 0.0171371 -3.123071 L 0.324462 -2.765661 L 0.762296 -3.497501 L 1.494825 -3.327305 L 2.004227 -4.820769 L 1.953708 -4.956925 M 2.580988 -1.987017 L 4.344952 -1.987017 L 4.344952 -3.089032 L 5.073271 -3.378364 L 4.412311 -4.684613 L 3.427186 -4.327203 L 2.239984 -4.701632 L 1.79794 -3.259227 L 2.564149 -2.969895 Z M 4.854354 -4.956925 L 4.669117 -4.76971 L 5.380596 -3.463462 L 6.058396 -3.616637 L 7.077201 -2.004037 L 6.723566 -1.306236 L 7.060361 -0.493553 M 6.959323 -0.119124 L 6.584638 -0.919042 L 6.180484 -0.119124 L 5.616353 -0.323358 L 4.770155 1.050969 L 5.279558 1.289242 L 5.212199 1.510496 L 5.738441 1.527516 M 5.873159 1.289242 L 5.991037 0.510599 L 6.723566 0.221267 M 1.427466 1.680692 L 1.15382 0.799931 L 0.273943 0.680794 M 0.0676563 0.391462 L 0.442341 -0.680768 L 1.052781 0.068091 L 1.629543 -0.153163 L 2.4589 1.067988 L 1.920028 1.37434 L 2.004227 1.697711 L 1.528504 1.816848 M 1.81478 -0.238261 L 2.564149 -0.680768 L 2.597828 -1.714705 L 4.395471 -1.714705 L 4.44599 -0.833944 L 5.346917 -0.408456 L 4.530189 0.953107 L 3.599793 0.680794 L 2.732546 1.033949 Z M 1.81478 -0.238261 " transform="matrix(0.927864,0,0,-0.918063,12.886443,18.507824)"/>
<path style=" stroke:none;fill-rule:nonzero;fill:rgb(0%,30.588235%,63.529412%);fill-opacity:1;" d="M 16.019531 16.292969 C 14.027344 16.292969 12.410156 17.890625 12.410156 19.863281 C 12.410156 21.835938 14.027344 23.433594 16.019531 23.433594 C 18.011719 23.433594 19.628906 21.835938 19.628906 19.863281 C 19.628906 17.890625 18.011719 16.292969 16.019531 16.292969 M 16.019531 23.269531 C 14.121094 23.269531 12.578125 21.742188 12.578125 19.863281 C 12.578125 17.984375 14.121094 16.457031 16.019531 16.457031 C 17.921875 16.457031 19.460938 17.984375 19.460938 19.863281 C 19.460938 21.742188 17.921875 23.269531 16.019531 23.269531 "/>
<path style=" stroke:none;fill-rule:nonzero;fill:rgb(100%,100%,100%);fill-opacity:1;" d="M 30.523438 1.460938 L 1.421875 1.460938 L 1.421875 6.820312 L 30.523438 6.820312 Z M 30.523438 1.460938 "/>
<path style=" stroke:none;fill-rule:nonzero;fill:rgb(0%,30.588235%,63.529412%);fill-opacity:1;" d="M 3.625 2.597656 L 5.277344 5.613281 L 4.503906 5.769531 L 4.191406 5.121094 L 3.027344 5.121094 L 2.71875 5.769531 L 1.984375 5.613281 L 3.617188 2.597656 Z M 3.210938 4.558594 L 4.023438 4.558594 L 3.617188 3.816406 Z M 3.210938 4.558594 "/>
<path style=" stroke:none;fill-rule:nonzero;fill:rgb(0%,30.588235%,63.529412%);fill-opacity:1;" d="M 5.4375 5.253906 L 5.960938 4.746094 L 6.484375 5.253906 L 5.960938 5.761719 Z M 5.4375 5.253906 "/>
<path style=" stroke:none;fill-rule:nonzero;fill:rgb(0%,30.588235%,63.529412%);fill-opacity:1;" d="M 7.546875 2.667969 L 8.304688 2.597656 L 8.304688 4.632812 C 8.304688 5.320312 7.929688 5.769531 7.21875 5.769531 C 7.125 5.769531 7.027344 5.769531 6.9375 5.738281 L 6.753906 4.988281 C 6.859375 5.027344 6.972656 5.039062 7.085938 5.039062 C 7.464844 5.039062 7.546875 4.847656 7.546875 4.484375 Z M 7.546875 2.667969 "/>
<path style=" stroke:none;fill-rule:nonzero;fill:rgb(0%,30.588235%,63.529412%);fill-opacity:1;" d="M 8.863281 5.253906 L 9.382812 4.746094 L 9.90625 5.253906 L 9.382812 5.761719 Z M 8.863281 5.253906 "/>
<path style=" stroke:none;fill-rule:nonzero;fill:rgb(0%,30.588235%,63.529412%);fill-opacity:1;" d="M 11.714844 2.597656 L 13.367188 5.613281 L 12.59375 5.769531 L 12.28125 5.121094 L 11.117188 5.121094 L 10.808594 5.769531 L 10.070312 5.613281 L 11.703125 2.597656 Z M 11.300781 4.558594 L 12.109375 4.558594 L 11.703125 3.816406 Z M 11.300781 4.558594 "/>
<path style=" stroke:none;fill-rule:nonzero;fill:rgb(0%,30.588235%,63.529412%);fill-opacity:1;" d="M 16.1875 4.648438 C 16.1875 5.355469 15.628906 5.769531 14.863281 5.769531 C 14.148438 5.769531 13.648438 5.4375 13.648438 4.699219 L 13.648438 2.667969 L 14.40625 2.597656 L 14.40625 4.488281 C 14.40625 4.8125 14.5 5.078125 14.878906 5.078125 C 15.371094 5.078125 15.425781 4.738281 15.425781 4.324219 L 15.425781 2.667969 L 16.1875 2.597656 Z M 16.1875 4.648438 "/>
<path style=" stroke:none;fill-rule:nonzero;fill:rgb(0%,30.588235%,63.529412%);fill-opacity:1;" d="M 17.550781 4.125 L 16.628906 2.820312 L 17.378906 2.597656 L 18.003906 3.535156 L 18.621094 2.597656 L 19.34375 2.847656 L 18.4375 4.113281 L 19.414062 5.523438 L 18.640625 5.769531 L 17.984375 4.746094 L 17.296875 5.769531 L 16.570312 5.503906 Z M 17.550781 4.125 "/>
<path style=" stroke:none;fill-rule:nonzero;fill:rgb(0%,30.588235%,63.529412%);fill-opacity:1;" d="M 19.816406 5.699219 L 19.816406 2.667969 L 21.546875 2.667969 L 21.679688 3.308594 L 20.574219 3.308594 L 20.574219 3.835938 L 21.363281 3.835938 L 21.363281 4.476562 L 20.574219 4.476562 L 20.574219 5.058594 L 21.773438 5.058594 L 21.585938 5.699219 Z M 19.816406 5.699219 "/>
<path style=" stroke:none;fill-rule:nonzero;fill:rgb(0%,30.588235%,63.529412%);fill-opacity:1;" d="M 22.199219 2.667969 L 23.0625 2.667969 C 23.777344 2.667969 24.296875 2.917969 24.296875 3.605469 C 24.296875 3.917969 24.113281 4.257812 23.804688 4.375 L 24.628906 5.527344 L 23.859375 5.769531 L 22.96875 4.339844 L 22.960938 4.339844 L 22.960938 5.664062 L 22.199219 5.734375 Z M 22.960938 4.15625 C 23.285156 4.179688 23.539062 4.074219 23.539062 3.714844 C 23.539062 3.355469 23.269531 3.296875 22.960938 3.308594 Z M 22.960938 4.15625 "/>
<path style=" stroke:none;fill-rule:nonzero;fill:rgb(0%,30.588235%,63.529412%);fill-opacity:1;" d="M 24.90625 2.667969 L 25.765625 2.667969 C 26.480469 2.667969 27.003906 2.917969 27.003906 3.605469 C 27.003906 3.917969 26.820312 4.257812 26.507812 4.375 L 27.332031 5.527344 L 26.566406 5.769531 L 25.671875 4.339844 L 25.664062 4.339844 L 25.664062 5.664062 L 24.90625 5.734375 Z M 25.664062 4.15625 C 25.992188 4.179688 26.246094 4.074219 26.246094 3.714844 C 26.246094 3.355469 25.976562 3.296875 25.664062 3.308594 Z M 25.664062 4.15625 "/>
<path style=" stroke:none;fill-rule:nonzero;fill:rgb(0%,30.588235%,63.529412%);fill-opacity:1;" d="M 27.683594 5.699219 L 27.683594 2.667969 L 29.414062 2.667969 L 29.546875 3.308594 L 28.441406 3.308594 L 28.441406 3.835938 L 29.230469 3.835938 L 29.230469 4.476562 L 28.441406 4.476562 L 28.441406 5.058594 L 29.640625 5.058594 L 29.453125 5.699219 Z M 27.683594 5.699219 "/>
</g>
</svg>
