<?xml version="1.0" encoding="UTF-8"?>
<svg xmlns="http://www.w3.org/2000/svg" xmlns:xlink="http://www.w3.org/1999/xlink" width="32px" height="32px" viewBox="0 0 32 32" version="1.1">
<g id="surface1">
<path style=" stroke:none;fill-rule:nonzero;fill:rgb(21.960784%,15.686275%,30.980392%);fill-opacity:1;" d="M 32.023438 16.011719 C 32.023438 24.855469 24.855469 32.023438 16.011719 32.023438 C 7.167969 32.023438 0 24.855469 0 16.011719 C 0 7.167969 7.167969 0 16.011719 0 C 24.855469 0 32.023438 7.167969 32.023438 16.011719 "/>
<path style=" stroke:none;fill-rule:nonzero;fill:rgb(100%,100%,100%);fill-opacity:1;" d="M 31.589844 16.011719 C 31.589844 24.617188 24.617188 31.589844 16.011719 31.589844 C 7.40625 31.589844 0.433594 24.617188 0.433594 16.011719 C 0.433594 7.40625 7.40625 0.433594 16.011719 0.433594 C 24.617188 0.433594 31.589844 7.40625 31.589844 16.011719 "/>
<path style=" stroke:none;fill-rule:nonzero;fill:rgb(21.960784%,15.686275%,30.980392%);fill-opacity:1;" d="M 31.15625 16.011719 C 31.15625 24.375 24.375 31.15625 16.011719 31.15625 C 7.648438 31.15625 0.867188 24.375 0.867188 16.011719 C 0.867188 7.648438 7.648438 0.867188 16.011719 0.867188 C 24.375 0.867188 31.15625 7.648438 31.15625 16.011719 "/>
<path style=" stroke:none;fill-rule:nonzero;fill:rgb(100%,100%,100%);fill-opacity:1;" d="M 25.75 16.011719 C 25.75 21.390625 21.390625 25.75 16.011719 25.75 C 10.632812 25.75 6.269531 21.390625 6.269531 16.011719 C 6.269531 10.632812 10.632812 6.269531 16.011719 6.269531 C 21.390625 6.269531 25.75 10.632812 25.75 16.011719 "/>
<path style=" stroke:none;fill-rule:nonzero;fill:rgb(41.176471%,31.764706%,53.333333%);fill-opacity:1;" d="M 7.617188 12.9375 L 7.617188 19.085938 L 8.589844 21.183594 L 10.636719 23.28125 L 10.636719 8.742188 L 8.589844 10.839844 Z M 7.617188 12.9375 "/>
<path style=" stroke:none;fill-rule:nonzero;fill:rgb(41.176471%,31.764706%,53.333333%);fill-opacity:1;" d="M 12.195312 24.234375 L 15.214844 25.058594 L 15.214844 6.964844 L 12.195312 7.789062 Z M 12.195312 24.234375 "/>
<path style=" stroke:none;fill-rule:nonzero;fill:rgb(41.176471%,31.764706%,53.333333%);fill-opacity:1;" d="M 16.777344 25.0625 L 19.796875 24.25 L 19.796875 7.773438 L 16.777344 6.960938 Z M 16.777344 25.0625 "/>
<path style=" stroke:none;fill-rule:nonzero;fill:rgb(41.176471%,31.764706%,53.333333%);fill-opacity:1;" d="M 24.378906 19.179688 L 24.378906 12.84375 L 23.402344 10.78125 L 21.355469 8.71875 L 21.355469 23.304688 L 23.402344 21.242188 Z M 24.378906 19.179688 "/>
<path style=" stroke:none;fill-rule:nonzero;fill:rgb(21.960784%,15.686275%,30.980392%);fill-opacity:1;" d="M 16.011719 6.707031 C 10.871094 6.707031 6.707031 10.875 6.707031 16.011719 C 6.707031 21.148438 10.871094 25.316406 16.011719 25.316406 C 21.148438 25.316406 25.316406 21.148438 25.316406 16.011719 C 25.316406 10.875 21.148438 6.707031 16.011719 6.707031 Z M 16.011719 7.140625 C 20.910156 7.140625 24.882812 11.113281 24.882812 16.011719 C 24.882812 20.910156 20.910156 24.882812 16.011719 24.882812 C 11.113281 24.882812 7.140625 20.910156 7.140625 16.011719 C 7.140625 11.113281 11.113281 7.140625 16.011719 7.140625 Z M 16.011719 7.140625 "/>
<path style=" stroke:none;fill-rule:nonzero;fill:rgb(100%,100%,100%);fill-opacity:1;" d="M 2.476562 15.351562 L 2.144531 15.351562 L 2.144531 14.996094 L 2.894531 14.996094 L 2.894531 17.125 L 2.476562 17.125 Z M 2.476562 15.351562 "/>
<path style=" stroke:none;fill-rule:nonzero;fill:rgb(100%,100%,100%);fill-opacity:1;" d="M 4.53125 15.714844 C 4.53125 15.496094 4.386719 15.328125 4.144531 15.328125 C 3.90625 15.328125 3.761719 15.496094 3.761719 15.714844 C 3.761719 15.9375 3.910156 16.109375 4.148438 16.109375 C 4.40625 16.109375 4.53125 15.945312 4.53125 15.714844 M 4.210938 16.410156 C 4.175781 16.425781 4.113281 16.433594 4.078125 16.433594 C 3.664062 16.433594 3.332031 16.144531 3.332031 15.714844 C 3.332031 15.246094 3.699219 14.964844 4.144531 14.964844 C 4.585938 14.964844 4.957031 15.238281 4.957031 15.707031 C 4.957031 15.929688 4.851562 16.132812 4.664062 16.40625 L 4.167969 17.125 L 3.707031 17.125 Z M 4.210938 16.410156 "/>
<path style=" stroke:none;fill-rule:nonzero;fill:rgb(100%,100%,100%);fill-opacity:1;" d="M 26.679688 16.566406 L 27.035156 16.386719 C 27.125 16.589844 27.285156 16.730469 27.53125 16.730469 C 27.78125 16.730469 27.941406 16.589844 27.941406 16.324219 C 27.941406 16.0625 27.734375 15.9375 27.496094 15.9375 C 27.34375 15.9375 27.242188 15.960938 27.164062 15.984375 L 27.132812 15.925781 L 27.65625 15.285156 L 26.851562 15.285156 L 26.851562 14.933594 L 28.339844 14.933594 L 28.339844 14.953125 L 27.769531 15.660156 C 28.089844 15.691406 28.371094 15.941406 28.371094 16.335938 C 28.371094 16.753906 28.09375 17.089844 27.53125 17.089844 C 27.070312 17.089844 26.785156 16.804688 26.679688 16.566406 "/>
<path style=" stroke:none;fill-rule:nonzero;fill:rgb(100%,100%,100%);fill-opacity:1;" d="M 29.617188 15.285156 L 28.601562 15.285156 L 28.601562 14.933594 L 30.210938 14.933594 L 30.210938 14.953125 L 29.214844 17.054688 L 28.777344 17.054688 Z M 29.617188 15.285156 "/>
<path style=" stroke:none;fill-rule:nonzero;fill:rgb(100%,100%,100%);fill-opacity:1;" d="M 7.691406 5.808594 L 7.105469 6.371094 L 8.476562 7.800781 L 8.121094 8.144531 L 6.75 6.710938 L 6.167969 7.269531 L 5.859375 6.945312 L 7.382812 5.488281 Z M 7.691406 5.808594 "/>
<path style=" stroke:none;fill-rule:nonzero;fill:rgb(100%,100%,100%);fill-opacity:1;" d="M 9.988281 6.160156 C 10.175781 6.042969 10.296875 5.882812 10.34375 5.675781 C 10.394531 5.464844 10.359375 5.261719 10.238281 5.066406 C 10.121094 4.871094 9.953125 4.75 9.742188 4.695312 C 9.535156 4.640625 9.339844 4.671875 9.148438 4.785156 C 8.960938 4.902344 8.84375 5.0625 8.792969 5.273438 C 8.75 5.484375 8.785156 5.6875 8.902344 5.882812 C 9.023438 6.078125 9.1875 6.203125 9.394531 6.253906 C 9.601562 6.304688 9.800781 6.273438 9.988281 6.160156 M 10.8125 5.769531 C 10.730469 6.105469 10.535156 6.367188 10.230469 6.554688 C 9.925781 6.742188 9.605469 6.792969 9.265625 6.714844 C 8.925781 6.636719 8.664062 6.441406 8.480469 6.144531 C 8.292969 5.839844 8.242188 5.519531 8.324219 5.179688 C 8.410156 4.839844 8.601562 4.578125 8.90625 4.390625 C 9.214844 4.203125 9.535156 4.152344 9.875 4.234375 C 10.214844 4.3125 10.476562 4.503906 10.664062 4.808594 C 10.847656 5.109375 10.898438 5.429688 10.8125 5.769531 "/>
<path style=" stroke:none;fill-rule:nonzero;fill:rgb(100%,100%,100%);fill-opacity:1;" d="M 12.851562 2.769531 L 13.265625 4.046875 C 13.371094 4.371094 13.367188 4.660156 13.25 4.921875 C 13.128906 5.179688 12.925781 5.359375 12.625 5.453125 C 12.316406 5.554688 12.042969 5.535156 11.789062 5.394531 C 11.539062 5.253906 11.359375 5.023438 11.257812 4.699219 L 10.84375 3.421875 L 11.3125 3.269531 L 11.722656 4.546875 C 11.851562 4.933594 12.148438 5.113281 12.480469 5.007812 C 12.792969 4.90625 12.921875 4.585938 12.796875 4.199219 L 12.382812 2.921875 Z M 12.851562 2.769531 "/>
<path style=" stroke:none;fill-rule:nonzero;fill:rgb(100%,100%,100%);fill-opacity:1;" d="M 15.753906 4.378906 L 15.800781 4.824219 L 14.0625 5.007812 L 13.804688 2.59375 L 14.296875 2.542969 L 14.503906 4.511719 Z M 15.753906 4.378906 "/>
<path style=" stroke:none;fill-rule:nonzero;fill:rgb(100%,100%,100%);fill-opacity:1;" d="M 17.304688 4.515625 C 17.527344 4.539062 17.71875 4.480469 17.882812 4.347656 C 18.050781 4.210938 18.144531 4.027344 18.167969 3.800781 C 18.191406 3.574219 18.136719 3.375 18.003906 3.203125 C 17.871094 3.03125 17.695312 2.9375 17.476562 2.914062 C 17.257812 2.890625 17.066406 2.945312 16.898438 3.085938 C 16.734375 3.226562 16.636719 3.40625 16.613281 3.632812 C 16.589844 3.863281 16.644531 4.0625 16.773438 4.226562 C 16.910156 4.394531 17.085938 4.492188 17.304688 4.515625 M 18.195312 4.707031 C 17.925781 4.921875 17.613281 5.015625 17.257812 4.976562 C 16.898438 4.9375 16.613281 4.78125 16.390625 4.515625 C 16.171875 4.242188 16.082031 3.933594 16.117188 3.582031 C 16.15625 3.230469 16.3125 2.941406 16.582031 2.722656 C 16.855469 2.503906 17.167969 2.414062 17.527344 2.453125 C 17.882812 2.492188 18.167969 2.644531 18.386719 2.917969 C 18.609375 3.1875 18.699219 3.5 18.664062 3.855469 C 18.625 4.203125 18.472656 4.488281 18.195312 4.707031 "/>
<path style=" stroke:none;fill-rule:nonzero;fill:rgb(100%,100%,100%);fill-opacity:1;" d="M 21.640625 3.574219 L 21.191406 4.835938 C 21.074219 5.15625 20.894531 5.386719 20.644531 5.519531 C 20.390625 5.652344 20.121094 5.667969 19.824219 5.5625 C 19.519531 5.453125 19.3125 5.269531 19.199219 5.007812 C 19.085938 4.742188 19.085938 4.449219 19.199219 4.128906 L 19.648438 2.867188 L 20.113281 3.03125 L 19.664062 4.292969 C 19.527344 4.675781 19.652344 5.003906 19.980469 5.121094 C 20.292969 5.230469 20.589844 5.054688 20.726562 4.671875 L 21.175781 3.410156 Z M 21.640625 3.574219 "/>
<path style=" stroke:none;fill-rule:nonzero;fill:rgb(100%,100%,100%);fill-opacity:1;" d="M 23.734375 4.929688 C 23.8125 5.128906 23.816406 5.332031 23.742188 5.539062 L 23.273438 5.363281 C 23.363281 5.152344 23.273438 4.921875 23.066406 4.789062 C 22.863281 4.667969 22.660156 4.691406 22.570312 4.835938 C 22.5 4.953125 22.523438 5.0625 22.644531 5.175781 L 23.035156 5.539062 C 23.328125 5.828125 23.40625 6.152344 23.207031 6.46875 C 23.082031 6.667969 22.914062 6.777344 22.6875 6.800781 C 22.464844 6.824219 22.230469 6.761719 21.984375 6.609375 C 21.757812 6.464844 21.597656 6.292969 21.5 6.085938 C 21.40625 5.878906 21.40625 5.671875 21.503906 5.460938 L 22 5.644531 C 21.914062 5.902344 22 6.109375 22.253906 6.265625 C 22.488281 6.410156 22.6875 6.382812 22.78125 6.234375 C 22.859375 6.109375 22.835938 6.003906 22.683594 5.859375 L 22.296875 5.503906 C 21.984375 5.203125 21.925781 4.894531 22.121094 4.578125 C 22.238281 4.386719 22.402344 4.28125 22.617188 4.257812 C 22.832031 4.226562 23.058594 4.289062 23.296875 4.4375 C 23.507812 4.566406 23.652344 4.730469 23.734375 4.929688 "/>
<path style=" stroke:none;fill-rule:nonzero;fill:rgb(100%,100%,100%);fill-opacity:1;" d="M 24.804688 8.285156 L 24.496094 8.605469 L 23.160156 7.335938 L 24.835938 5.578125 L 26.164062 6.84375 L 25.859375 7.164062 L 24.882812 6.238281 L 24.507812 6.636719 L 25.40625 7.488281 L 25.101562 7.808594 L 24.203125 6.953125 L 23.824219 7.351562 Z M 24.804688 8.285156 "/>
<path style=" stroke:none;fill-rule:nonzero;fill:rgb(100%,100%,100%);fill-opacity:1;" d="M 5.972656 21.9375 L 5.539062 22.214844 L 6.089844 23.078125 L 5.765625 23.285156 L 5.210938 22.425781 L 4.523438 22.867188 L 4.289062 22.507812 L 6.066406 21.367188 L 6.917969 22.691406 L 6.59375 22.902344 Z M 5.972656 21.9375 "/>
<path style=" stroke:none;fill-rule:nonzero;fill:rgb(100%,100%,100%);fill-opacity:1;" d="M 6.445312 24.804688 C 6.578125 24.945312 6.734375 25.015625 6.921875 25.019531 C 7.109375 25.027344 7.277344 24.960938 7.421875 24.824219 C 7.566406 24.6875 7.640625 24.527344 7.652344 24.335938 C 7.660156 24.148438 7.601562 23.988281 7.46875 23.847656 C 7.335938 23.707031 7.179688 23.636719 6.988281 23.628906 C 6.800781 23.628906 6.636719 23.695312 6.488281 23.832031 C 6.34375 23.964844 6.269531 24.128906 6.261719 24.3125 C 6.253906 24.5 6.316406 24.664062 6.445312 24.804688 M 6.921875 25.4375 C 6.621094 25.425781 6.367188 25.308594 6.152344 25.078125 C 5.9375 24.851562 5.839844 24.585938 5.84375 24.285156 C 5.855469 23.980469 5.972656 23.722656 6.195312 23.515625 C 6.421875 23.304688 6.683594 23.203125 6.988281 23.214844 C 7.292969 23.226562 7.550781 23.34375 7.761719 23.570312 C 7.976562 23.800781 8.078125 24.0625 8.066406 24.367188 C 8.058594 24.671875 7.941406 24.929688 7.714844 25.140625 C 7.492188 25.347656 7.226562 25.449219 6.921875 25.4375 "/>
<path style=" stroke:none;fill-rule:nonzero;fill:rgb(100%,100%,100%);fill-opacity:1;" d="M 8.523438 26.605469 C 8.679688 26.714844 8.851562 26.753906 9.03125 26.71875 C 9.214844 26.6875 9.367188 26.585938 9.480469 26.425781 C 9.59375 26.261719 9.636719 26.085938 9.605469 25.898438 C 9.578125 25.714844 9.484375 25.570312 9.324219 25.457031 C 9.167969 25.347656 9 25.308594 8.8125 25.34375 C 8.628906 25.382812 8.480469 25.480469 8.363281 25.644531 C 8.25 25.804688 8.210938 25.980469 8.238281 26.164062 C 8.273438 26.347656 8.367188 26.496094 8.523438 26.605469 M 9.121094 27.125 C 8.824219 27.175781 8.546875 27.113281 8.292969 26.933594 C 8.035156 26.757812 7.882812 26.519531 7.828125 26.222656 C 7.773438 25.921875 7.835938 25.648438 8.011719 25.398438 C 8.1875 25.144531 8.425781 24.992188 8.722656 24.9375 C 9.023438 24.886719 9.300781 24.949219 9.554688 25.128906 C 9.8125 25.304688 9.964844 25.542969 10.019531 25.84375 C 10.074219 26.144531 10.011719 26.417969 9.835938 26.671875 C 9.660156 26.921875 9.421875 27.074219 9.121094 27.125 "/>
<path style=" stroke:none;fill-rule:nonzero;fill:rgb(100%,100%,100%);fill-opacity:1;" d="M 11.949219 26.910156 L 11.3125 26.617188 L 10.585938 28.179688 L 10.199219 28 L 10.921875 26.433594 L 10.285156 26.140625 L 10.449219 25.789062 L 12.113281 26.558594 Z M 11.949219 26.910156 "/>
<path style=" stroke:none;fill-rule:nonzero;fill:rgb(100%,100%,100%);fill-opacity:1;" d="M 12.605469 27.078125 L 12.46875 27.578125 L 12.984375 27.71875 C 13.152344 27.761719 13.285156 27.6875 13.328125 27.53125 C 13.367188 27.394531 13.285156 27.265625 13.148438 27.226562 Z M 12.242188 28.410156 L 12.789062 28.558594 C 12.96875 28.609375 13.09375 28.539062 13.136719 28.382812 C 13.179688 28.226562 13.097656 28.101562 12.941406 28.058594 L 12.378906 27.90625 Z M 13.320312 27.964844 C 13.5 28.042969 13.621094 28.265625 13.546875 28.539062 C 13.453125 28.882812 13.175781 29.042969 12.738281 28.925781 L 11.730469 28.648438 L 12.289062 26.613281 L 13.289062 26.886719 C 13.65625 26.988281 13.832031 27.277344 13.738281 27.617188 C 13.707031 27.734375 13.648438 27.820312 13.5625 27.878906 C 13.480469 27.9375 13.402344 27.960938 13.324219 27.953125 Z M 13.320312 27.964844 "/>
<path style=" stroke:none;fill-rule:nonzero;fill:rgb(100%,100%,100%);fill-opacity:1;" d="M 15.292969 28.484375 L 15.054688 27.707031 L 14.679688 28.429688 Z M 16.023438 29.390625 L 15.5625 29.347656 L 15.421875 28.882812 L 14.492188 28.804688 L 14.265625 29.234375 L 13.804688 29.195312 L 14.898438 27.171875 L 15.296875 27.207031 Z M 16.023438 29.390625 "/>
<path style=" stroke:none;fill-rule:nonzero;fill:rgb(100%,100%,100%);fill-opacity:1;" d="M 17.984375 28.84375 L 18.015625 29.230469 L 16.5 29.355469 L 16.328125 27.253906 L 16.753906 27.21875 L 16.898438 28.933594 Z M 17.984375 28.84375 "/>
<path style=" stroke:none;fill-rule:nonzero;fill:rgb(100%,100%,100%);fill-opacity:1;" d="M 19.960938 28.402344 L 20.050781 28.78125 L 18.574219 29.132812 L 18.082031 27.082031 L 18.496094 26.980469 L 18.898438 28.65625 Z M 19.960938 28.402344 "/>
<path style=" stroke:none;fill-rule:nonzero;fill:rgb(100%,100%,100%);fill-opacity:1;" d="M 22.402344 26.800781 L 22.8125 26.691406 C 22.886719 26.949219 22.875 27.1875 22.769531 27.40625 C 22.664062 27.625 22.5 27.792969 22.265625 27.914062 C 21.988281 28.054688 21.707031 28.074219 21.417969 27.984375 C 21.132812 27.890625 20.917969 27.707031 20.777344 27.425781 C 20.640625 27.152344 20.617188 26.871094 20.714844 26.585938 C 20.808594 26.296875 20.992188 26.082031 21.269531 25.941406 C 21.503906 25.828125 21.734375 25.789062 21.972656 25.835938 C 22.210938 25.878906 22.40625 26.003906 22.566406 26.199219 L 22.246094 26.492188 C 22.023438 26.214844 21.726562 26.164062 21.453125 26.304688 C 21.28125 26.390625 21.167969 26.523438 21.113281 26.699219 C 21.058594 26.878906 21.074219 27.054688 21.164062 27.234375 C 21.253906 27.410156 21.386719 27.53125 21.5625 27.59375 C 21.742188 27.652344 21.917969 27.640625 22.085938 27.554688 C 22.363281 27.414062 22.496094 27.148438 22.402344 26.800781 "/>
<path style=" stroke:none;fill-rule:nonzero;fill:rgb(100%,100%,100%);fill-opacity:1;" d="M 24.667969 25.820312 L 24.898438 26.128906 L 23.6875 27.042969 L 22.417969 25.355469 L 22.761719 25.097656 L 23.796875 26.476562 Z M 24.667969 25.820312 "/>
<path style=" stroke:none;fill-rule:nonzero;fill:rgb(100%,100%,100%);fill-opacity:1;" d="M 25.046875 22.984375 L 25.890625 23.785156 C 26.105469 23.992188 26.226562 24.214844 26.242188 24.460938 C 26.261719 24.707031 26.175781 24.929688 25.988281 25.128906 C 25.796875 25.332031 25.578125 25.433594 25.328125 25.429688 C 25.078125 25.429688 24.84375 25.324219 24.628906 25.121094 L 23.78125 24.320312 L 24.078125 24.007812 L 24.921875 24.808594 C 25.179688 25.050781 25.484375 25.066406 25.691406 24.847656 C 25.890625 24.636719 25.855469 24.339844 25.597656 24.097656 L 24.75 23.296875 Z M 25.046875 22.984375 "/>
<path style=" stroke:none;fill-rule:nonzero;fill:rgb(100%,100%,100%);fill-opacity:1;" d="M 26.941406 23.316406 L 27.25 22.839844 C 27.355469 22.679688 27.324219 22.542969 27.191406 22.453125 C 27.054688 22.367188 26.910156 22.402344 26.820312 22.539062 L 26.503906 23.027344 Z M 25.785156 22.5625 L 26.21875 22.84375 L 26.511719 22.394531 C 26.605469 22.25 26.574219 22.097656 26.4375 22.007812 C 26.320312 21.929688 26.171875 21.96875 26.09375 22.089844 Z M 26.851562 22.148438 C 26.976562 22.003906 27.230469 21.957031 27.464844 22.109375 C 27.761719 22.304688 27.832031 22.621094 27.582031 23 L 27.011719 23.875 L 25.242188 22.71875 L 25.8125 21.847656 C 26.019531 21.53125 26.347656 21.453125 26.644531 21.644531 C 26.746094 21.714844 26.8125 21.792969 26.839844 21.890625 C 26.871094 21.988281 26.871094 22.074219 26.839844 22.144531 Z M 26.851562 22.148438 "/>
<path style=" stroke:none;fill-rule:nonzero;fill:rgb(85.490196%,69.019608%,44.705882%);fill-opacity:1;" d="M 16.011719 7.574219 C 12.992188 7.574219 9.109375 8 9.109375 8 L 9.109375 20.289062 C 9.097656 23.671875 14.457031 22.011719 16.011719 24.882812 C 17.566406 22.011719 22.914062 23.671875 22.914062 20.289062 L 22.914062 8 C 22.914062 8 19.347656 7.574219 16.011719 7.574219 "/>
<path style=" stroke:none;fill-rule:nonzero;fill:rgb(41.176471%,31.764706%,53.333333%);fill-opacity:1;" d="M 22.457031 13.34375 L 9.566406 13.34375 L 9.566406 8.414062 C 10.640625 8.308594 13.617188 8.03125 16.011719 8.03125 C 18.636719 8.03125 21.433594 8.300781 22.457031 8.410156 Z M 22.457031 13.34375 "/>
<path style=" stroke:none;fill-rule:nonzero;fill:rgb(87.058824%,0%,23.529412%);fill-opacity:1;" d="M 22.457031 20.289062 C 22.457031 21.675781 21.421875 21.984375 19.59375 22.414062 C 18.425781 22.6875 17.136719 22.992188 16.242188 23.84375 L 16.242188 21.722656 C 16.089844 21.75 15.9375 21.753906 15.785156 21.730469 L 15.78125 23.84375 C 14.886719 22.992188 13.59375 22.6875 12.425781 22.414062 C 10.597656 21.988281 9.5625 21.675781 9.566406 20.289062 L 9.566406 13.804688 L 15.789062 13.804688 L 15.785156 19.210938 C 15.9375 19.1875 16.09375 19.1875 16.242188 19.21875 L 16.246094 13.804688 L 22.457031 13.804688 Z M 22.457031 20.289062 "/>
<path style=" stroke:none;fill-rule:nonzero;fill:rgb(100%,100%,100%);fill-opacity:1;" d="M 14.636719 18.5625 C 14.636719 18.523438 14.660156 18.496094 14.691406 18.496094 C 14.722656 18.496094 14.746094 18.523438 14.746094 18.5625 L 14.746094 18.710938 L 14.636719 18.710938 Z M 14.589844 18.710938 L 14.476562 18.710938 L 14.476562 18.5625 C 14.476562 18.523438 14.503906 18.496094 14.53125 18.496094 C 14.5625 18.496094 14.589844 18.523438 14.589844 18.5625 Z M 14.453125 17.242188 C 14.453125 17.167969 14.515625 17.082031 14.59375 17.082031 C 14.671875 17.082031 14.730469 17.171875 14.730469 17.246094 L 14.734375 17.511719 L 14.453125 17.511719 Z M 14.429688 18.710938 L 14.316406 18.710938 L 14.316406 18.5625 C 14.316406 18.523438 14.34375 18.496094 14.375 18.496094 C 14.40625 18.496094 14.429688 18.523438 14.429688 18.5625 Z M 14.269531 18.710938 L 14.160156 18.710938 L 14.160156 18.5625 C 14.160156 18.523438 14.183594 18.496094 14.214844 18.496094 C 14.246094 18.496094 14.269531 18.523438 14.269531 18.5625 Z M 13.839844 17.511719 L 13.839844 17.242188 C 13.839844 17.167969 13.902344 17.082031 13.980469 17.082031 C 14.058594 17.082031 14.121094 17.171875 14.121094 17.246094 L 14.121094 17.511719 Z M 14.113281 18.710938 L 14 18.710938 L 14 18.5625 C 14 18.523438 14.023438 18.496094 14.054688 18.496094 C 14.085938 18.496094 14.113281 18.523438 14.113281 18.5625 Z M 13.953125 18.710938 L 13.839844 18.710938 L 13.839844 18.5625 C 13.839844 18.523438 13.867188 18.496094 13.898438 18.496094 C 13.925781 18.496094 13.953125 18.523438 13.953125 18.5625 Z M 13.792969 18.710938 L 13.683594 18.710938 L 13.683594 18.5625 C 13.683594 18.523438 13.707031 18.496094 13.738281 18.496094 C 13.769531 18.496094 13.792969 18.523438 13.792969 18.5625 Z M 13.632812 18.710938 L 13.523438 18.710938 L 13.523438 18.5625 C 13.523438 18.523438 13.546875 18.496094 13.578125 18.496094 C 13.609375 18.496094 13.632812 18.523438 13.632812 18.5625 Z M 13.476562 18.710938 L 13.363281 18.710938 L 13.363281 18.5625 C 13.363281 18.523438 13.386719 18.496094 13.417969 18.496094 C 13.449219 18.496094 13.476562 18.523438 13.476562 18.5625 Z M 13.316406 18.710938 L 13.203125 18.710938 L 13.203125 18.5625 C 13.203125 18.523438 13.230469 18.496094 13.261719 18.496094 C 13.292969 18.496094 13.316406 18.523438 13.316406 18.5625 Z M 13.15625 18.710938 L 13.046875 18.710938 L 13.046875 18.5625 C 13.046875 18.523438 13.070312 18.496094 13.101562 18.496094 C 13.132812 18.496094 13.15625 18.523438 13.15625 18.5625 Z M 13 18.710938 L 12.886719 18.710938 L 12.886719 18.5625 C 12.886719 18.523438 12.910156 18.496094 12.941406 18.496094 C 12.972656 18.496094 13 18.523438 13 18.5625 Z M 13.121094 17.699219 L 12.921875 17.699219 L 12.921875 17.054688 L 13.121094 17.054688 Z M 12.867188 16.121094 C 12.867188 16.046875 12.929688 15.960938 13.007812 15.960938 C 13.085938 15.960938 13.144531 16.050781 13.144531 16.125 L 13.148438 16.390625 L 12.867188 16.390625 Z M 12.839844 18.710938 L 12.726562 18.710938 L 12.726562 18.5625 C 12.726562 18.523438 12.753906 18.496094 12.785156 18.496094 C 12.8125 18.496094 12.839844 18.523438 12.839844 18.5625 Z M 12.679688 18.710938 L 12.566406 18.710938 L 12.566406 18.5625 C 12.566406 18.523438 12.59375 18.496094 12.625 18.496094 C 12.65625 18.496094 12.679688 18.523438 12.679688 18.5625 Z M 12.25 16.390625 L 12.25 16.121094 C 12.25 16.046875 12.3125 15.960938 12.390625 15.960938 C 12.46875 15.960938 12.53125 16.050781 12.53125 16.125 L 12.535156 16.390625 Z M 12.519531 18.710938 L 12.410156 18.710938 L 12.410156 18.5625 C 12.410156 18.523438 12.433594 18.496094 12.464844 18.496094 C 12.496094 18.496094 12.519531 18.523438 12.519531 18.5625 Z M 12.253906 17.0625 L 12.453125 17.0625 L 12.453125 17.707031 L 12.253906 17.707031 Z M 12.363281 18.710938 L 12.25 18.710938 L 12.25 18.5625 C 12.25 18.523438 12.273438 18.496094 12.304688 18.496094 C 12.335938 18.496094 12.363281 18.523438 12.363281 18.5625 Z M 12.203125 18.710938 L 12.089844 18.710938 L 12.089844 18.5625 C 12.089844 18.523438 12.117188 18.496094 12.148438 18.496094 C 12.179688 18.496094 12.203125 18.523438 12.203125 18.5625 Z M 12.042969 18.710938 L 11.933594 18.710938 L 11.933594 18.5625 C 11.933594 18.523438 11.957031 18.496094 11.988281 18.496094 C 12.019531 18.496094 12.042969 18.523438 12.042969 18.5625 Z M 11.886719 18.710938 L 11.773438 18.710938 L 11.773438 18.5625 C 11.773438 18.523438 11.796875 18.496094 11.828125 18.496094 C 11.859375 18.496094 11.886719 18.523438 11.886719 18.5625 Z M 11.726562 18.710938 L 11.613281 18.710938 L 11.613281 18.5625 C 11.613281 18.523438 11.640625 18.496094 11.667969 18.496094 C 11.699219 18.496094 11.726562 18.523438 11.726562 18.5625 Z M 11.308594 17.511719 L 11.308594 17.242188 C 11.308594 17.167969 11.371094 17.082031 11.449219 17.082031 C 11.527344 17.082031 11.589844 17.171875 11.589844 17.246094 L 11.59375 17.511719 Z M 11.566406 18.710938 L 11.453125 18.710938 L 11.453125 18.5625 C 11.453125 18.523438 11.480469 18.496094 11.511719 18.496094 C 11.542969 18.496094 11.566406 18.523438 11.566406 18.5625 Z M 11.40625 18.710938 L 11.296875 18.710938 L 11.296875 18.5625 C 11.296875 18.523438 11.320312 18.496094 11.351562 18.496094 C 11.382812 18.496094 11.40625 18.523438 11.40625 18.5625 Z M 11.25 18.710938 L 11.136719 18.710938 L 11.136719 18.5625 C 11.136719 18.523438 11.160156 18.496094 11.191406 18.496094 C 11.222656 18.496094 11.25 18.523438 11.25 18.5625 Z M 11.089844 18.710938 L 10.976562 18.710938 L 10.976562 18.5625 C 10.976562 18.523438 11.003906 18.496094 11.035156 18.496094 C 11.066406 18.496094 11.089844 18.523438 11.089844 18.5625 Z M 10.929688 18.710938 L 10.820312 18.710938 L 10.820312 18.5625 C 10.820312 18.523438 10.84375 18.496094 10.875 18.496094 C 10.90625 18.496094 10.929688 18.523438 10.929688 18.5625 Z M 10.773438 18.710938 L 10.660156 18.710938 L 10.660156 18.5625 C 10.660156 18.523438 10.683594 18.496094 10.714844 18.496094 C 10.746094 18.496094 10.773438 18.523438 10.773438 18.5625 Z M 10.695312 17.242188 C 10.695312 17.167969 10.761719 17.082031 10.839844 17.082031 C 10.917969 17.082031 10.976562 17.171875 10.976562 17.246094 L 10.980469 17.511719 L 10.695312 17.511719 Z M 10.613281 18.710938 L 10.5 18.710938 L 10.5 18.5625 C 10.5 18.523438 10.523438 18.496094 10.554688 18.496094 C 10.585938 18.496094 10.613281 18.523438 10.613281 18.5625 Z M 14.796875 18.5625 C 14.796875 18.523438 14.820312 18.496094 14.851562 18.496094 C 14.882812 18.496094 14.90625 18.523438 14.90625 18.5625 L 14.90625 18.710938 L 14.796875 18.710938 Z M 14.753906 20.164062 C 14.789062 20.007812 14.859375 19.859375 14.953125 19.730469 L 14.953125 16.21875 L 14.761719 16.21875 L 14.761719 16.652344 L 14.570312 16.652344 L 14.570312 16.21875 L 14.378906 16.21875 L 14.378906 16.652344 L 14.183594 16.652344 L 14.183594 16.21875 L 13.992188 16.21875 L 13.992188 16.652344 L 13.800781 16.652344 L 13.800781 16.21875 L 13.605469 16.21875 L 13.605469 18.058594 L 13.414062 18.058594 L 13.414062 14.816406 L 13.253906 14.816406 L 13.253906 15.359375 L 13.09375 15.359375 L 13.09375 14.816406 L 12.933594 14.816406 L 12.933594 15.359375 L 12.773438 15.359375 L 12.773438 14.816406 L 12.613281 14.816406 L 12.613281 15.359375 L 12.449219 15.359375 L 12.449219 14.816406 L 12.289062 14.816406 L 12.289062 15.359375 L 12.128906 15.359375 L 12.128906 14.816406 L 11.96875 14.816406 L 11.96875 18.058594 L 11.777344 18.058594 L 11.777344 16.21875 L 11.585938 16.21875 L 11.585938 16.652344 L 11.390625 16.652344 L 11.390625 16.21875 L 11.199219 16.21875 L 11.199219 16.652344 L 11.007812 16.652344 L 11.007812 16.21875 L 10.8125 16.21875 L 10.8125 16.652344 L 10.621094 16.652344 L 10.621094 16.21875 L 10.429688 16.21875 L 10.429688 20.554688 L 12.1875 20.554688 L 12.1875 19.582031 C 12.1875 19.453125 12.246094 19.296875 12.335938 19.171875 C 12.441406 19.035156 12.566406 18.960938 12.691406 18.960938 C 12.976562 18.960938 13.191406 19.335938 13.191406 19.582031 L 13.191406 20.554688 L 14.71875 20.554688 C 14.710938 20.421875 14.71875 20.289062 14.753906 20.164062 "/>
<path style=" stroke:none;fill-rule:nonzero;fill:rgb(100%,100%,100%);fill-opacity:1;" d="M 18.097656 17.738281 L 17.070312 17.738281 L 17.070312 17.695312 L 18.097656 17.695312 Z M 18.097656 17.738281 "/>
<path style=" stroke:none;fill-rule:nonzero;fill:rgb(100%,100%,100%);fill-opacity:1;" d="M 21.585938 17.695312 L 21.585938 17.738281 L 20.5625 17.738281 L 20.5625 17.695312 "/>
<path style=" stroke:none;fill-rule:nonzero;fill:rgb(100%,100%,100%);fill-opacity:1;" d="M 21.585938 17.652344 L 20.5625 17.652344 L 21.074219 16.292969 Z M 21.585938 17.652344 "/>
<path style=" stroke:none;fill-rule:nonzero;fill:rgb(100%,100%,100%);fill-opacity:1;" d="M 21.140625 16.226562 C 21.140625 16.261719 21.113281 16.292969 21.074219 16.292969 C 21.039062 16.292969 21.007812 16.261719 21.007812 16.226562 C 21.007812 16.1875 21.039062 16.160156 21.074219 16.160156 C 21.113281 16.160156 21.140625 16.1875 21.140625 16.226562 "/>
<path style=" stroke:none;fill-rule:nonzero;fill:rgb(100%,100%,100%);fill-opacity:1;" d="M 19.394531 14.546875 C 19.394531 14.585938 19.367188 14.613281 19.328125 14.613281 C 19.292969 14.613281 19.261719 14.585938 19.261719 14.546875 C 19.261719 14.511719 19.292969 14.480469 19.328125 14.480469 C 19.367188 14.480469 19.394531 14.511719 19.394531 14.546875 "/>
<path style=" stroke:none;fill-rule:nonzero;fill:rgb(100%,100%,100%);fill-opacity:1;" d="M 20.03125 15.570312 L 18.632812 15.570312 L 19.328125 14.613281 Z M 20.03125 15.570312 "/>
<path style=" stroke:none;fill-rule:nonzero;fill:rgb(100%,100%,100%);fill-opacity:1;" d="M 19.9375 18.097656 L 19.738281 18.097656 L 19.738281 17.617188 C 19.738281 17.546875 19.78125 17.488281 19.832031 17.488281 L 19.84375 17.488281 C 19.898438 17.488281 19.9375 17.546875 19.9375 17.617188 Z M 19.648438 18.097656 L 19.378906 18.097656 L 19.378906 17.617188 C 19.378906 17.546875 19.433594 17.488281 19.503906 17.488281 L 19.523438 17.488281 C 19.59375 17.488281 19.648438 17.546875 19.648438 17.617188 Z M 19.285156 18.097656 L 19.015625 18.097656 L 19.015625 17.617188 C 19.015625 17.546875 19.070312 17.488281 19.140625 17.488281 L 19.160156 17.488281 C 19.230469 17.488281 19.285156 17.546875 19.285156 17.617188 Z M 18.921875 18.097656 L 18.722656 18.097656 L 18.722656 17.617188 C 18.722656 17.546875 18.765625 17.488281 18.816406 17.488281 L 18.828125 17.488281 C 18.882812 17.488281 18.921875 17.546875 18.921875 17.617188 Z M 18.632812 17.402344 L 18.632812 18.1875 L 20.03125 18.1875 L 20.03125 17.402344 Z M 18.632812 17.402344 "/>
<path style=" stroke:none;fill-rule:evenodd;fill:rgb(100%,100%,100%);fill-opacity:1;" d="M 19.1875 14.269531 L 19.300781 14.269531 L 19.300781 14.546875 L 19.359375 14.546875 L 19.359375 14.269531 L 19.472656 14.269531 L 19.472656 14.203125 L 19.359375 14.203125 L 19.359375 14.0625 L 19.300781 14.0625 L 19.300781 14.203125 L 19.1875 14.203125 Z M 19.1875 14.269531 "/>
<path style=" stroke:none;fill-rule:evenodd;fill:rgb(100%,100%,100%);fill-opacity:1;" d="M 20.964844 15.945312 L 21.050781 15.945312 L 21.050781 16.160156 L 21.097656 16.160156 L 21.097656 15.945312 L 21.183594 15.945312 L 21.183594 15.894531 L 21.097656 15.894531 L 21.097656 15.785156 L 21.054688 15.785156 L 21.050781 15.894531 L 20.964844 15.894531 Z M 20.964844 15.945312 "/>
<path style=" stroke:none;fill-rule:nonzero;fill:rgb(100%,100%,100%);fill-opacity:1;" d="M 18.097656 17.652344 L 17.070312 17.652344 L 17.582031 16.292969 Z M 18.097656 17.652344 "/>
<path style=" stroke:none;fill-rule:nonzero;fill:rgb(100%,100%,100%);fill-opacity:1;" d="M 17.652344 16.226562 C 17.652344 16.261719 17.621094 16.292969 17.585938 16.292969 C 17.546875 16.292969 17.515625 16.261719 17.515625 16.226562 C 17.515625 16.1875 17.546875 16.160156 17.585938 16.160156 C 17.621094 16.160156 17.652344 16.1875 17.652344 16.226562 "/>
<path style=" stroke:none;fill-rule:evenodd;fill:rgb(100%,100%,100%);fill-opacity:1;" d="M 17.472656 15.945312 L 17.5625 15.945312 L 17.5625 16.160156 L 17.605469 16.160156 L 17.605469 15.945312 L 17.695312 15.945312 L 17.695312 15.894531 L 17.605469 15.894531 L 17.605469 15.785156 L 17.5625 15.785156 L 17.5625 15.894531 L 17.472656 15.894531 Z M 17.472656 15.945312 "/>
<path style=" stroke:none;fill-rule:nonzero;fill:rgb(100%,100%,100%);fill-opacity:1;" d="M 19.941406 17.261719 L 19.742188 17.261719 L 19.742188 16.957031 L 19.839844 16.652344 L 19.941406 16.957031 Z M 19.652344 17.261719 L 19.378906 17.261719 L 19.378906 16.957031 L 19.515625 16.652344 L 19.652344 16.957031 Z M 19.289062 17.261719 L 19.015625 17.261719 L 19.015625 16.957031 L 19.152344 16.652344 L 19.289062 16.957031 Z M 18.925781 17.261719 L 18.726562 17.261719 L 18.726562 16.957031 L 18.824219 16.652344 L 18.925781 16.957031 Z M 18.632812 16.554688 L 18.632812 17.359375 L 20.03125 17.363281 L 20.03125 16.554688 Z M 18.632812 16.554688 "/>
<path style=" stroke:none;fill-rule:nonzero;fill:rgb(100%,100%,100%);fill-opacity:1;" d="M 19.941406 16.410156 L 19.742188 16.410156 L 19.742188 16.105469 L 19.839844 15.800781 L 19.941406 16.105469 Z M 19.652344 16.410156 L 19.378906 16.410156 L 19.378906 16.105469 L 19.515625 15.800781 L 19.652344 16.105469 Z M 19.289062 16.410156 L 19.015625 16.410156 L 19.015625 16.105469 L 19.152344 15.800781 L 19.289062 16.105469 Z M 18.925781 16.410156 L 18.726562 16.410156 L 18.726562 16.105469 L 18.824219 15.800781 L 18.925781 16.105469 Z M 18.632812 15.703125 L 18.632812 16.507812 L 20.03125 16.511719 L 20.03125 15.703125 Z M 18.632812 15.703125 "/>
<path style=" stroke:none;fill-rule:nonzero;fill:rgb(100%,100%,100%);fill-opacity:1;" d="M 18.632812 15.613281 L 20.03125 15.613281 L 20.03125 15.660156 L 18.632812 15.660156 "/>
<path style=" stroke:none;fill-rule:nonzero;fill:rgb(100%,100%,100%);fill-opacity:1;" d="M 21.492188 19.246094 L 21.292969 19.246094 L 21.292969 19.148438 C 21.292969 19.09375 21.335938 19.046875 21.390625 19.046875 C 21.449219 19.046875 21.492188 19.09375 21.492188 19.148438 Z M 21.199219 19.246094 L 21 19.246094 L 21 19.148438 C 21 19.09375 21.042969 19.046875 21.097656 19.046875 C 21.152344 19.046875 21.199219 19.09375 21.199219 19.148438 Z M 20.902344 19.246094 L 20.703125 19.246094 L 20.703125 19.148438 C 20.703125 19.09375 20.75 19.046875 20.804688 19.046875 C 20.859375 19.046875 20.902344 19.09375 20.902344 19.148438 Z M 20.609375 19.246094 L 20.410156 19.246094 L 20.410156 19.148438 C 20.410156 19.09375 20.453125 19.046875 20.507812 19.046875 C 20.5625 19.046875 20.609375 19.09375 20.609375 19.148438 Z M 20.3125 19.246094 L 20.113281 19.246094 L 20.113281 19.148438 C 20.113281 19.09375 20.160156 19.046875 20.214844 19.046875 C 20.269531 19.046875 20.3125 19.09375 20.3125 19.148438 Z M 20.019531 19.246094 L 19.820312 19.246094 L 19.820312 19.148438 C 19.820312 19.09375 19.863281 19.046875 19.917969 19.046875 C 19.972656 19.046875 20.019531 19.09375 20.019531 19.148438 Z M 19.742188 18.8125 L 19.742188 18.457031 C 19.742188 18.386719 19.785156 18.332031 19.835938 18.332031 L 19.847656 18.332031 C 19.898438 18.332031 19.941406 18.386719 19.941406 18.457031 L 19.941406 18.8125 Z M 19.722656 19.246094 L 19.523438 19.246094 L 19.523438 19.148438 C 19.523438 19.09375 19.570312 19.046875 19.625 19.046875 C 19.679688 19.046875 19.722656 19.09375 19.722656 19.148438 Z M 19.429688 19.246094 L 19.230469 19.246094 L 19.230469 19.148438 C 19.230469 19.09375 19.273438 19.046875 19.328125 19.046875 C 19.382812 19.046875 19.429688 19.09375 19.429688 19.148438 Z M 19.132812 19.246094 L 18.933594 19.246094 L 18.933594 19.148438 C 18.933594 19.09375 18.980469 19.046875 19.035156 19.046875 C 19.089844 19.046875 19.132812 19.09375 19.132812 19.148438 Z M 18.925781 18.8125 L 18.726562 18.8125 L 18.726562 18.457031 C 18.726562 18.386719 18.765625 18.332031 18.816406 18.332031 L 18.832031 18.332031 C 18.882812 18.332031 18.925781 18.386719 18.925781 18.457031 Z M 18.839844 19.246094 L 18.640625 19.246094 L 18.640625 19.148438 C 18.640625 19.09375 18.683594 19.046875 18.742188 19.046875 C 18.796875 19.046875 18.839844 19.09375 18.839844 19.148438 Z M 19.015625 18.457031 C 19.015625 18.386719 19.074219 18.332031 19.144531 18.332031 L 19.160156 18.332031 C 19.230469 18.332031 19.289062 18.386719 19.289062 18.457031 L 19.289062 18.8125 L 19.015625 18.8125 Z M 19.378906 18.457031 C 19.378906 18.386719 19.4375 18.332031 19.503906 18.332031 L 19.523438 18.332031 C 19.59375 18.332031 19.652344 18.386719 19.652344 18.457031 L 19.652344 18.8125 L 19.378906 18.8125 Z M 18.546875 19.246094 L 18.347656 19.246094 L 18.347656 19.148438 C 18.347656 19.09375 18.390625 19.046875 18.445312 19.046875 C 18.5 19.046875 18.546875 19.09375 18.546875 19.148438 Z M 18.25 19.246094 L 18.050781 19.246094 L 18.050781 19.148438 C 18.050781 19.09375 18.097656 19.046875 18.152344 19.046875 C 18.207031 19.046875 18.25 19.09375 18.25 19.148438 Z M 17.957031 19.246094 L 17.757812 19.246094 L 17.757812 19.148438 C 17.757812 19.09375 17.800781 19.046875 17.855469 19.046875 C 17.910156 19.046875 17.957031 19.09375 17.957031 19.148438 Z M 17.660156 19.246094 L 17.460938 19.246094 L 17.460938 19.148438 C 17.460938 19.09375 17.507812 19.046875 17.5625 19.046875 C 17.617188 19.046875 17.660156 19.09375 17.660156 19.148438 Z M 17.367188 19.246094 L 17.167969 19.246094 L 17.167969 19.148438 C 17.167969 19.09375 17.210938 19.046875 17.265625 19.046875 C 17.320312 19.046875 17.367188 19.09375 17.367188 19.148438 Z M 20.5625 17.78125 L 20.5625 18.8125 L 20.03125 18.8125 L 20.03125 18.230469 L 18.632812 18.230469 L 18.632812 18.8125 L 18.097656 18.8125 L 18.097656 17.78125 L 17.070312 17.78125 L 17.070312 19.789062 C 17.089844 19.8125 17.105469 19.839844 17.117188 19.867188 C 17.226562 20.066406 17.277344 20.292969 17.269531 20.515625 L 18.246094 20.515625 L 18.246094 19.84375 C 18.246094 19.65625 18.375 19.480469 18.5625 19.445312 C 18.808594 19.402344 19.019531 19.589844 19.019531 19.824219 L 19.019531 20.515625 L 19.65625 20.515625 L 19.65625 19.824219 C 19.65625 19.613281 19.832031 19.4375 20.042969 19.4375 C 20.257812 19.4375 20.429688 19.613281 20.429688 19.824219 L 20.429688 20.515625 L 21.585938 20.515625 L 21.585938 17.78125 Z M 20.5625 17.78125 "/>
<path style=" stroke:none;fill-rule:nonzero;fill:rgb(85.490196%,69.019608%,44.705882%);fill-opacity:1;" d="M 17.121094 19.867188 C 17.105469 19.839844 17.089844 19.8125 17.070312 19.789062 C 16.910156 19.53125 16.652344 19.332031 16.351562 19.242188 C 16.316406 19.234375 16.28125 19.226562 16.242188 19.21875 C 16.09375 19.1875 15.9375 19.1875 15.785156 19.210938 C 15.636719 19.238281 15.488281 19.285156 15.355469 19.363281 C 15.199219 19.453125 15.0625 19.582031 14.953125 19.730469 C 14.859375 19.859375 14.789062 20.007812 14.753906 20.164062 C 14.71875 20.289062 14.710938 20.421875 14.71875 20.554688 C 14.734375 20.761719 14.796875 20.964844 14.902344 21.140625 C 15.078125 21.425781 15.367188 21.632812 15.683594 21.710938 C 15.71875 21.71875 15.75 21.722656 15.785156 21.730469 L 15.785156 21.710938 C 15.753906 21.703125 15.722656 21.699219 15.691406 21.6875 C 15.382812 21.597656 15.117188 21.378906 14.96875 21.101562 C 14.878906 20.933594 14.832031 20.742188 14.828125 20.554688 C 14.828125 20.433594 14.84375 20.3125 14.878906 20.195312 C 14.898438 20.128906 14.925781 20.066406 14.953125 20.003906 C 15.058594 19.792969 15.226562 19.609375 15.433594 19.496094 C 15.542969 19.429688 15.660156 19.386719 15.785156 19.363281 C 15.933594 19.332031 16.089844 19.328125 16.242188 19.355469 C 16.269531 19.359375 16.292969 19.363281 16.316406 19.371094 C 16.617188 19.441406 16.886719 19.636719 17.050781 19.90625 C 17.058594 19.917969 17.066406 19.929688 17.070312 19.941406 C 17.171875 20.113281 17.226562 20.3125 17.230469 20.515625 C 17.230469 20.617188 17.222656 20.722656 17.195312 20.824219 C 17.121094 21.136719 16.910156 21.414062 16.628906 21.578125 C 16.910156 21.417969 17.125 21.144531 17.21875 20.828125 C 17.25 20.726562 17.265625 20.621094 17.269531 20.515625 C 17.277344 20.292969 17.226562 20.066406 17.121094 19.867188 "/>
<path style=" stroke:none;fill-rule:nonzero;fill:rgb(100%,100%,100%);fill-opacity:1;" d="M 15.34375 22.105469 C 15.339844 22.105469 15.335938 22.109375 15.328125 22.109375 L 15.324219 22.109375 C 15.339844 22.136719 15.375 22.105469 15.34375 22.105469 M 15.378906 22.105469 C 15.375 22.105469 15.371094 22.105469 15.367188 22.109375 C 15.390625 22.113281 15.390625 22.105469 15.378906 22.105469 M 15.597656 22.097656 C 15.585938 22.097656 15.574219 22.101562 15.5625 22.101562 C 15.503906 22.105469 15.445312 22.105469 15.386719 22.109375 C 15.421875 22.175781 15.375 22.199219 15.382812 22.21875 C 15.40625 22.214844 15.429688 22.21875 15.441406 22.226562 C 15.441406 22.226562 15.441406 22.226562 15.441406 22.222656 C 15.4375 22.210938 15.445312 22.203125 15.453125 22.199219 C 15.464844 22.199219 15.472656 22.222656 15.472656 22.222656 C 15.476562 22.234375 15.46875 22.253906 15.453125 22.257812 C 15.453125 22.257812 15.453125 22.253906 15.449219 22.253906 C 15.445312 22.269531 15.425781 22.28125 15.390625 22.292969 C 15.429688 22.417969 15.464844 22.542969 15.445312 22.675781 C 15.484375 22.761719 15.285156 22.878906 15.363281 22.90625 C 15.410156 22.8125 15.378906 22.992188 15.484375 22.9375 C 15.601562 22.945312 15.527344 22.816406 15.617188 22.792969 C 15.640625 22.632812 15.5625 22.472656 15.613281 22.320312 C 15.664062 22.25 15.699219 22.097656 15.597656 22.097656 M 16.277344 22.039062 C 16.261719 22.058594 16.246094 22.070312 16.21875 22.0625 L 16.210938 22.066406 C 16.222656 22.070312 16.234375 22.078125 16.238281 22.078125 C 16.246094 22.078125 16.28125 22.0625 16.28125 22.042969 C 16.28125 22.039062 16.277344 22.042969 16.277344 22.039062 M 16.992188 21.980469 C 16.957031 22.011719 17.09375 22.089844 16.960938 22.0625 C 16.925781 22.105469 16.976562 22.199219 16.949219 22.269531 C 16.960938 22.441406 16.886719 22.628906 16.738281 22.742188 C 16.699219 22.816406 16.820312 22.695312 16.78125 22.785156 C 16.890625 22.835938 16.945312 22.710938 16.988281 22.652344 C 16.980469 22.476562 17.09375 22.316406 17.199219 22.171875 C 17.136719 22.140625 17.15625 22.03125 17.035156 22.070312 C 17.09375 22.015625 17.082031 22 16.992188 21.980469 M 16.972656 21.933594 C 16.914062 21.96875 16.792969 22.015625 16.929688 21.988281 C 16.921875 21.96875 17.039062 21.933594 16.972656 21.933594 M 16.085938 21.917969 C 16.105469 21.917969 16.128906 21.953125 16.128906 21.960938 C 16.128906 21.976562 16.121094 21.988281 16.109375 21.988281 C 16.085938 21.992188 16.0625 21.964844 16.058594 21.945312 C 16.058594 21.925781 16.082031 21.917969 16.085938 21.917969 M 17.363281 21.910156 C 17.371094 21.910156 17.382812 21.914062 17.386719 21.917969 C 17.390625 21.921875 17.394531 21.929688 17.394531 21.9375 C 17.398438 21.941406 17.40625 21.945312 17.414062 21.953125 C 17.417969 21.953125 17.421875 21.960938 17.421875 21.96875 C 17.421875 21.980469 17.402344 21.988281 17.394531 21.988281 C 17.390625 21.992188 17.378906 21.988281 17.375 21.984375 C 17.363281 21.96875 17.34375 21.9375 17.34375 21.933594 C 17.34375 21.925781 17.351562 21.914062 17.363281 21.910156 M 17.421875 21.863281 C 17.425781 21.863281 17.441406 21.878906 17.449219 21.886719 C 17.449219 21.886719 17.453125 21.890625 17.453125 21.898438 C 17.453125 21.902344 17.449219 21.910156 17.445312 21.914062 C 17.429688 21.914062 17.402344 21.886719 17.402344 21.882812 C 17.402344 21.875 17.417969 21.863281 17.421875 21.863281 M 16.199219 21.828125 C 16.214844 21.828125 16.222656 21.84375 16.222656 21.855469 C 16.222656 21.867188 16.222656 21.871094 16.214844 21.871094 C 16.207031 21.871094 16.203125 21.867188 16.195312 21.867188 C 16.191406 21.867188 16.152344 21.894531 16.144531 21.894531 C 16.132812 21.894531 16.128906 21.890625 16.128906 21.882812 C 16.128906 21.875 16.136719 21.835938 16.15625 21.835938 C 16.160156 21.832031 16.171875 21.835938 16.179688 21.835938 C 16.183594 21.835938 16.191406 21.832031 16.199219 21.828125 M 16.269531 21.824219 C 16.289062 21.820312 16.3125 21.851562 16.3125 21.867188 C 16.3125 21.882812 16.289062 21.894531 16.289062 21.894531 C 16.28125 21.894531 16.273438 21.890625 16.265625 21.890625 C 16.261719 21.890625 16.242188 21.90625 16.238281 21.90625 C 16.21875 21.90625 16.222656 21.890625 16.222656 21.890625 C 16.222656 21.878906 16.226562 21.875 16.246094 21.863281 C 16.257812 21.851562 16.25 21.839844 16.253906 21.832031 C 16.257812 21.828125 16.261719 21.824219 16.269531 21.824219 M 16.457031 21.699219 C 16.472656 21.699219 16.472656 21.722656 16.472656 21.722656 C 16.476562 21.761719 16.441406 21.746094 16.4375 21.789062 C 16.433594 21.792969 16.429688 21.796875 16.421875 21.796875 C 16.402344 21.796875 16.398438 21.777344 16.398438 21.773438 C 16.398438 21.769531 16.402344 21.757812 16.402344 21.75 C 16.410156 21.742188 16.421875 21.734375 16.429688 21.726562 C 16.4375 21.71875 16.441406 21.710938 16.445312 21.703125 C 16.445312 21.703125 16.453125 21.699219 16.457031 21.699219 M 16.132812 21.699219 C 16.140625 21.699219 16.148438 21.703125 16.148438 21.710938 C 16.148438 21.714844 16.144531 21.726562 16.144531 21.734375 C 16.144531 21.738281 16.164062 21.757812 16.164062 21.765625 C 16.164062 21.769531 16.160156 21.78125 16.160156 21.78125 C 16.152344 21.789062 16.117188 21.816406 16.113281 21.816406 C 16.101562 21.816406 16.101562 21.808594 16.101562 21.804688 C 16.101562 21.800781 16.109375 21.789062 16.117188 21.78125 C 16.109375 21.777344 16.097656 21.757812 16.097656 21.742188 C 16.097656 21.730469 16.101562 21.699219 16.121094 21.699219 C 16.125 21.699219 16.128906 21.699219 16.132812 21.699219 M 16.609375 21.628906 C 16.621094 21.628906 16.628906 21.640625 16.632812 21.648438 C 16.632812 21.660156 16.609375 21.679688 16.601562 21.679688 C 16.59375 21.683594 16.585938 21.667969 16.585938 21.664062 C 16.585938 21.660156 16.59375 21.632812 16.605469 21.628906 C 16.605469 21.628906 16.605469 21.628906 16.609375 21.628906 M 16.722656 21.625 C 16.726562 21.625 16.738281 21.636719 16.742188 21.640625 C 16.746094 21.640625 16.753906 21.640625 16.757812 21.640625 C 16.761719 21.644531 16.761719 21.644531 16.765625 21.652344 C 16.765625 21.65625 16.742188 21.679688 16.734375 21.695312 C 16.730469 21.695312 16.730469 21.695312 16.726562 21.699219 C 16.71875 21.699219 16.710938 21.691406 16.710938 21.6875 C 16.710938 21.671875 16.707031 21.652344 16.707031 21.648438 C 16.707031 21.640625 16.710938 21.625 16.722656 21.625 M 16.359375 21.597656 C 16.367188 21.597656 16.367188 21.597656 16.371094 21.605469 C 16.371094 21.609375 16.359375 21.628906 16.359375 21.632812 C 16.359375 21.640625 16.378906 21.675781 16.378906 21.679688 C 16.378906 21.683594 16.375 21.695312 16.375 21.703125 C 16.367188 21.707031 16.339844 21.746094 16.332031 21.75 C 16.320312 21.75 16.316406 21.722656 16.316406 21.722656 C 16.316406 21.714844 16.332031 21.691406 16.332031 21.683594 C 16.332031 21.679688 16.324219 21.671875 16.324219 21.664062 C 16.324219 21.652344 16.328125 21.601562 16.359375 21.597656 M 17.117188 21.539062 C 17.121094 21.539062 17.128906 21.542969 17.132812 21.546875 C 17.136719 21.546875 17.140625 21.554688 17.144531 21.558594 C 17.148438 21.558594 17.148438 21.558594 17.15625 21.558594 C 17.160156 21.5625 17.160156 21.566406 17.160156 21.570312 C 17.160156 21.578125 17.160156 21.585938 17.148438 21.585938 C 17.136719 21.585938 17.105469 21.5625 17.105469 21.546875 C 17.105469 21.542969 17.105469 21.546875 17.105469 21.542969 C 17.109375 21.539062 17.109375 21.539062 17.117188 21.539062 M 16.433594 21.484375 C 16.445312 21.484375 16.449219 21.503906 16.449219 21.507812 C 16.449219 21.511719 16.445312 21.511719 16.445312 21.515625 C 16.445312 21.519531 16.453125 21.527344 16.453125 21.53125 C 16.453125 21.542969 16.449219 21.554688 16.4375 21.554688 C 16.421875 21.558594 16.414062 21.539062 16.414062 21.527344 C 16.414062 21.519531 16.414062 21.488281 16.433594 21.484375 M 15.429688 21.476562 C 15.449219 21.472656 15.445312 21.5 15.464844 21.5 C 15.46875 21.496094 15.484375 21.484375 15.492188 21.484375 C 15.511719 21.480469 15.519531 21.519531 15.523438 21.527344 C 15.523438 21.539062 15.515625 21.550781 15.507812 21.550781 C 15.496094 21.554688 15.480469 21.542969 15.476562 21.535156 L 15.46875 21.535156 C 15.449219 21.558594 15.457031 21.566406 15.4375 21.566406 C 15.417969 21.570312 15.410156 21.53125 15.40625 21.519531 C 15.40625 21.515625 15.40625 21.476562 15.429688 21.476562 M 15.375 21.386719 C 15.378906 21.386719 15.386719 21.386719 15.394531 21.390625 C 15.394531 21.398438 15.394531 21.410156 15.398438 21.417969 C 15.402344 21.425781 15.410156 21.4375 15.414062 21.441406 C 15.414062 21.453125 15.40625 21.453125 15.398438 21.453125 C 15.390625 21.453125 15.390625 21.453125 15.386719 21.453125 C 15.378906 21.453125 15.363281 21.46875 15.359375 21.46875 C 15.339844 21.46875 15.339844 21.445312 15.328125 21.433594 C 15.316406 21.429688 15.300781 21.429688 15.285156 21.421875 L 15.285156 21.414062 C 15.292969 21.410156 15.300781 21.40625 15.308594 21.40625 C 15.324219 21.40625 15.328125 21.414062 15.339844 21.414062 C 15.351562 21.414062 15.34375 21.386719 15.371094 21.386719 C 15.371094 21.386719 15.375 21.386719 15.375 21.386719 M 16.925781 21.363281 C 16.929688 21.363281 16.933594 21.363281 16.933594 21.363281 C 16.945312 21.371094 16.953125 21.386719 16.964844 21.398438 C 16.964844 21.402344 16.96875 21.410156 16.96875 21.414062 C 16.96875 21.421875 16.964844 21.425781 16.964844 21.433594 C 16.964844 21.4375 16.972656 21.453125 16.972656 21.460938 C 16.972656 21.46875 16.960938 21.496094 16.953125 21.496094 C 16.9375 21.496094 16.921875 21.464844 16.921875 21.460938 C 16.921875 21.457031 16.929688 21.417969 16.929688 21.414062 C 16.929688 21.394531 16.910156 21.402344 16.910156 21.375 C 16.90625 21.367188 16.914062 21.363281 16.917969 21.363281 C 16.921875 21.363281 16.925781 21.363281 16.925781 21.363281 M 15.449219 21.320312 C 15.460938 21.316406 15.457031 21.34375 15.472656 21.34375 C 15.476562 21.339844 15.484375 21.332031 15.492188 21.332031 C 15.503906 21.332031 15.515625 21.335938 15.515625 21.347656 C 15.515625 21.351562 15.511719 21.367188 15.5 21.375 C 15.496094 21.375 15.488281 21.371094 15.480469 21.375 C 15.476562 21.378906 15.46875 21.382812 15.464844 21.382812 C 15.445312 21.382812 15.429688 21.367188 15.429688 21.351562 C 15.429688 21.339844 15.429688 21.320312 15.449219 21.320312 M 15.570312 21.289062 C 15.578125 21.289062 15.613281 21.296875 15.617188 21.296875 C 15.621094 21.296875 15.628906 21.292969 15.636719 21.289062 C 15.640625 21.292969 15.640625 21.292969 15.640625 21.300781 C 15.644531 21.316406 15.613281 21.320312 15.613281 21.320312 C 15.605469 21.320312 15.597656 21.320312 15.589844 21.320312 C 15.585938 21.320312 15.566406 21.332031 15.558594 21.335938 C 15.554688 21.335938 15.535156 21.332031 15.535156 21.320312 C 15.535156 21.308594 15.558594 21.289062 15.570312 21.289062 M 15.558594 21.136719 C 15.558594 21.136719 15.5625 21.140625 15.566406 21.140625 C 15.566406 21.140625 15.570312 21.140625 15.570312 21.144531 C 15.570312 21.15625 15.542969 21.167969 15.542969 21.167969 C 15.539062 21.167969 15.535156 21.179688 15.53125 21.183594 C 15.515625 21.1875 15.5 21.183594 15.488281 21.191406 C 15.480469 21.191406 15.476562 21.199219 15.472656 21.203125 C 15.464844 21.203125 15.449219 21.210938 15.445312 21.210938 C 15.441406 21.210938 15.425781 21.210938 15.417969 21.210938 C 15.402344 21.210938 15.402344 21.238281 15.378906 21.238281 C 15.359375 21.242188 15.347656 21.226562 15.347656 21.214844 C 15.347656 21.195312 15.375 21.148438 15.390625 21.148438 C 15.410156 21.144531 15.410156 21.171875 15.410156 21.183594 C 15.417969 21.183594 15.425781 21.183594 15.429688 21.183594 C 15.4375 21.183594 15.449219 21.160156 15.472656 21.15625 C 15.476562 21.15625 15.492188 21.164062 15.503906 21.164062 Z M 17.734375 21.09375 C 17.757812 21.089844 17.761719 21.121094 17.765625 21.132812 C 17.765625 21.136719 17.75 21.171875 17.75 21.179688 C 17.75 21.183594 17.753906 21.195312 17.757812 21.199219 C 17.765625 21.207031 17.78125 21.214844 17.785156 21.222656 C 17.800781 21.234375 17.800781 21.242188 17.800781 21.253906 C 17.804688 21.273438 17.792969 21.277344 17.78125 21.304688 C 17.773438 21.3125 17.773438 21.328125 17.765625 21.339844 L 17.757812 21.339844 C 17.753906 21.339844 17.746094 21.332031 17.746094 21.324219 L 17.746094 21.296875 C 17.742188 21.269531 17.71875 21.242188 17.714844 21.234375 C 17.714844 21.230469 17.726562 21.222656 17.734375 21.21875 C 17.730469 21.21875 17.726562 21.214844 17.726562 21.210938 C 17.726562 21.167969 17.707031 21.175781 17.707031 21.144531 C 17.707031 21.136719 17.710938 21.09375 17.734375 21.09375 M 15.511719 20.988281 C 15.511719 20.992188 15.507812 21 15.503906 21.007812 C 15.472656 21.019531 15.476562 21.039062 15.453125 21.039062 C 15.445312 21.039062 15.441406 21.039062 15.4375 21.039062 C 15.421875 21.039062 15.417969 21.066406 15.398438 21.066406 C 15.390625 21.070312 15.382812 21.0625 15.375 21.0625 C 15.371094 21.0625 15.363281 21.070312 15.359375 21.070312 C 15.34375 21.070312 15.328125 21.058594 15.328125 21.039062 C 15.328125 21.015625 15.34375 20.996094 15.371094 20.996094 C 15.382812 20.992188 15.378906 20.996094 15.398438 21.003906 C 15.40625 21.003906 15.414062 21 15.417969 21 C 15.425781 21 15.433594 21.003906 15.441406 21.003906 C 15.445312 21.003906 15.457031 20.996094 15.464844 20.992188 C 15.472656 20.992188 15.488281 20.984375 15.492188 20.988281 Z M 15.210938 20.953125 C 15.210938 20.953125 15.207031 20.960938 15.207031 20.980469 C 15.136719 21.007812 15.246094 21.066406 15.152344 21.058594 C 15.164062 21.132812 15.21875 21.167969 15.109375 21.152344 C 15.050781 21.230469 15.207031 21.125 15.152344 21.214844 C 15.214844 21.289062 15.058594 21.472656 15.199219 21.433594 C 15.203125 21.484375 15.140625 21.589844 15.257812 21.542969 C 15.289062 21.425781 15.109375 21.402344 15.21875 21.285156 C 15.175781 21.25 15.207031 21.171875 15.238281 21.148438 C 15.230469 21.128906 15.230469 21.109375 15.230469 21.109375 C 15.226562 21.105469 15.21875 21.109375 15.214844 21.105469 C 15.210938 21.101562 15.203125 21.09375 15.203125 21.085938 C 15.203125 21.0625 15.222656 21.039062 15.234375 21.003906 C 15.234375 21.003906 15.234375 20.992188 15.234375 20.988281 C 15.238281 20.984375 15.238281 20.984375 15.238281 20.984375 C 15.226562 20.980469 15.21875 20.949219 15.214844 20.953125 M 15.804688 20.808594 C 15.816406 20.808594 15.824219 20.816406 15.824219 20.824219 C 15.824219 20.835938 15.808594 20.867188 15.796875 20.867188 C 15.792969 20.871094 15.789062 20.867188 15.789062 20.863281 L 15.785156 20.824219 C 15.785156 20.8125 15.804688 20.808594 15.804688 20.808594 M 15.339844 20.773438 C 15.347656 20.773438 15.347656 20.773438 15.347656 20.777344 C 15.359375 20.78125 15.355469 20.792969 15.359375 20.800781 C 15.367188 20.8125 15.394531 20.789062 15.394531 20.8125 C 15.394531 20.832031 15.335938 20.851562 15.332031 20.851562 C 15.3125 20.855469 15.300781 20.839844 15.300781 20.828125 C 15.300781 20.816406 15.320312 20.777344 15.339844 20.773438 M 15.75 20.714844 C 15.757812 20.710938 15.773438 20.746094 15.773438 20.746094 C 15.773438 20.761719 15.769531 20.777344 15.757812 20.78125 C 15.753906 20.78125 15.75 20.777344 15.746094 20.773438 C 15.746094 20.769531 15.75 20.765625 15.746094 20.761719 C 15.746094 20.753906 15.742188 20.746094 15.738281 20.742188 C 15.734375 20.742188 15.734375 20.742188 15.734375 20.734375 C 15.734375 20.730469 15.742188 20.714844 15.75 20.714844 M 15.355469 20.609375 C 15.367188 20.605469 15.367188 20.617188 15.367188 20.617188 C 15.367188 20.625 15.363281 20.628906 15.363281 20.636719 C 15.363281 20.648438 15.386719 20.644531 15.386719 20.660156 C 15.386719 20.664062 15.386719 20.667969 15.382812 20.667969 C 15.371094 20.671875 15.347656 20.683594 15.332031 20.6875 C 15.320312 20.683594 15.328125 20.671875 15.324219 20.664062 C 15.320312 20.660156 15.316406 20.660156 15.3125 20.65625 C 15.304688 20.65625 15.296875 20.636719 15.296875 20.636719 C 15.296875 20.628906 15.300781 20.613281 15.316406 20.613281 C 15.320312 20.609375 15.328125 20.621094 15.335938 20.621094 C 15.339844 20.621094 15.351562 20.609375 15.355469 20.609375 M 15.21875 20.46875 C 15.214844 20.46875 15.203125 20.480469 15.203125 20.480469 C 15.199219 20.488281 15.199219 20.5 15.195312 20.503906 C 15.191406 20.515625 15.179688 20.527344 15.175781 20.539062 C 15.179688 20.539062 15.1875 20.542969 15.191406 20.542969 C 15.199219 20.542969 15.203125 20.539062 15.203125 20.539062 C 15.21875 20.519531 15.230469 20.5 15.246094 20.480469 C 15.238281 20.480469 15.226562 20.46875 15.21875 20.46875 M 15.621094 20.441406 C 15.636719 20.441406 15.640625 20.46875 15.640625 20.476562 C 15.644531 20.480469 15.636719 20.492188 15.640625 20.5 C 15.640625 20.503906 15.644531 20.507812 15.644531 20.515625 C 15.644531 20.523438 15.632812 20.527344 15.632812 20.527344 C 15.613281 20.53125 15.605469 20.496094 15.605469 20.492188 C 15.605469 20.488281 15.613281 20.476562 15.613281 20.46875 C 15.609375 20.460938 15.609375 20.453125 15.609375 20.449219 C 15.609375 20.445312 15.613281 20.441406 15.621094 20.441406 M 15.277344 20.289062 C 15.246094 20.292969 15.21875 20.339844 15.214844 20.363281 C 15.214844 20.371094 15.203125 20.378906 15.195312 20.382812 C 15.199219 20.386719 15.207031 20.390625 15.214844 20.390625 C 15.21875 20.390625 15.230469 20.386719 15.234375 20.382812 C 15.253906 20.367188 15.273438 20.332031 15.292969 20.328125 C 15.292969 20.328125 15.328125 20.320312 15.328125 20.304688 C 15.328125 20.300781 15.328125 20.300781 15.324219 20.296875 C 15.308594 20.296875 15.28125 20.289062 15.277344 20.289062 M 15.839844 20.257812 C 15.84375 20.257812 15.863281 20.269531 15.875 20.273438 C 15.886719 20.277344 15.902344 20.28125 15.914062 20.285156 C 15.921875 20.289062 15.984375 20.328125 15.988281 20.347656 C 15.988281 20.359375 15.976562 20.359375 15.976562 20.359375 C 15.96875 20.359375 15.953125 20.351562 15.945312 20.347656 C 15.925781 20.34375 15.910156 20.351562 15.894531 20.34375 C 15.875 20.335938 15.859375 20.3125 15.859375 20.292969 C 15.855469 20.289062 15.828125 20.277344 15.828125 20.269531 C 15.828125 20.265625 15.832031 20.257812 15.839844 20.257812 M 15.882812 20.113281 C 15.886719 20.113281 15.886719 20.113281 15.890625 20.117188 C 15.898438 20.117188 15.921875 20.140625 15.921875 20.148438 C 15.921875 20.160156 15.914062 20.164062 15.910156 20.164062 C 15.898438 20.164062 15.890625 20.148438 15.886719 20.140625 C 15.878906 20.136719 15.867188 20.140625 15.859375 20.144531 C 15.855469 20.140625 15.851562 20.136719 15.851562 20.132812 C 15.851562 20.121094 15.882812 20.113281 15.882812 20.113281 M 15.75 19.894531 C 15.742188 19.894531 15.730469 19.894531 15.722656 19.894531 C 15.636719 19.914062 15.476562 19.949219 15.460938 20.007812 C 15.53125 20.011719 15.679688 20.175781 15.539062 20.09375 C 15.5 20.042969 15.269531 19.980469 15.414062 20.082031 C 15.457031 20.136719 15.683594 20.226562 15.484375 20.1875 C 15.398438 20.160156 15.308594 20 15.226562 20.039062 C 15.257812 20.175781 15.40625 20.253906 15.554688 20.246094 C 15.566406 20.320312 15.414062 20.265625 15.398438 20.351562 C 15.390625 20.375 15.402344 20.464844 15.320312 20.425781 C 15.285156 20.46875 15.441406 20.519531 15.324219 20.519531 C 15.289062 20.570312 15.335938 20.632812 15.246094 20.617188 C 15.296875 20.703125 15.109375 20.605469 15.1875 20.710938 C 15.261719 20.761719 15.078125 20.882812 15.195312 20.859375 C 15.253906 20.824219 15.246094 20.59375 15.273438 20.746094 C 15.335938 20.816406 15.210938 20.867188 15.273438 20.941406 C 15.261719 20.964844 15.253906 20.976562 15.25 20.980469 C 15.261719 20.980469 15.257812 20.988281 15.269531 20.992188 L 15.269531 21.019531 C 15.269531 21.027344 15.265625 21.027344 15.265625 21.035156 C 15.265625 21.042969 15.285156 21.039062 15.285156 21.054688 C 15.285156 21.066406 15.273438 21.089844 15.273438 21.09375 C 15.273438 21.105469 15.292969 21.101562 15.292969 21.121094 C 15.292969 21.125 15.28125 21.152344 15.28125 21.160156 C 15.28125 21.167969 15.285156 21.171875 15.285156 21.175781 L 15.285156 21.195312 C 15.285156 21.195312 15.285156 21.199219 15.277344 21.199219 C 15.269531 21.199219 15.265625 21.195312 15.261719 21.191406 C 15.257812 21.199219 15.257812 21.203125 15.257812 21.210938 C 15.359375 21.292969 15.230469 21.4375 15.28125 21.550781 C 15.328125 21.640625 15.179688 21.574219 15.269531 21.667969 C 15.347656 21.660156 15.339844 21.566406 15.332031 21.515625 C 15.441406 21.542969 15.367188 21.757812 15.507812 21.691406 C 15.535156 21.746094 15.441406 21.832031 15.464844 21.730469 C 15.421875 21.761719 15.289062 21.65625 15.367188 21.75 C 15.4375 21.808594 15.441406 21.832031 15.347656 21.84375 C 15.226562 21.859375 15.1875 21.921875 15.082031 21.96875 C 14.976562 21.988281 14.839844 22.050781 14.859375 22.171875 C 14.859375 22.316406 14.824219 22.460938 14.78125 22.605469 C 14.785156 22.691406 14.800781 22.820312 14.867188 22.789062 C 14.960938 22.804688 15.011719 22.601562 14.953125 22.519531 C 14.957031 22.378906 14.996094 22.21875 15.070312 22.105469 C 15.207031 22.007812 15.410156 22.089844 15.53125 21.980469 C 15.609375 21.992188 15.71875 22.046875 15.734375 21.917969 C 15.824219 21.941406 15.714844 22.054688 15.84375 22.066406 C 15.96875 22.132812 16.03125 22.046875 15.984375 21.941406 C 15.984375 21.835938 16.074219 21.851562 16.027344 21.960938 C 15.980469 22.042969 16.148438 22.160156 16.117188 22.105469 C 16.035156 22.027344 16.167969 22.027344 16.207031 22.015625 C 16.121094 21.9375 16.210938 21.917969 16.257812 21.984375 C 16.300781 21.960938 16.328125 21.933594 16.355469 21.902344 C 16.355469 21.90625 16.355469 21.910156 16.355469 21.914062 L 16.367188 21.910156 C 16.382812 21.898438 16.410156 21.886719 16.421875 21.882812 C 16.429688 21.882812 16.433594 21.886719 16.441406 21.886719 C 16.425781 21.882812 16.402344 21.867188 16.398438 21.871094 C 16.394531 21.871094 16.390625 21.871094 16.382812 21.875 C 16.421875 21.835938 16.460938 21.808594 16.539062 21.828125 C 16.617188 21.863281 16.398438 21.925781 16.554688 21.898438 C 16.59375 21.859375 16.636719 21.644531 16.640625 21.773438 C 16.648438 21.761719 16.667969 21.757812 16.675781 21.742188 C 16.675781 21.738281 16.675781 21.730469 16.675781 21.722656 C 16.675781 21.71875 16.6875 21.710938 16.691406 21.710938 C 16.703125 21.710938 16.722656 21.726562 16.726562 21.738281 C 16.726562 21.753906 16.6875 21.78125 16.6875 21.78125 C 16.6875 21.789062 16.699219 21.804688 16.699219 21.8125 C 16.699219 21.816406 16.695312 21.816406 16.695312 21.816406 C 16.695312 21.820312 16.695312 21.820312 16.6875 21.820312 C 16.679688 21.824219 16.648438 21.8125 16.640625 21.796875 C 16.605469 21.863281 16.714844 21.863281 16.679688 21.902344 C 16.71875 21.863281 16.734375 21.824219 16.796875 21.851562 C 16.90625 21.824219 16.835938 21.695312 16.917969 21.625 C 16.867188 21.617188 16.832031 21.488281 16.886719 21.488281 C 16.910156 21.4375 16.992188 21.6875 16.988281 21.53125 C 17.09375 21.488281 17 21.671875 17.105469 21.664062 C 17.117188 21.667969 17.125 21.671875 17.132812 21.683594 C 17.132812 21.675781 17.136719 21.671875 17.136719 21.671875 C 17.136719 21.667969 17.132812 21.667969 17.132812 21.664062 C 17.121094 21.65625 17.105469 21.65625 17.105469 21.640625 C 17.109375 21.628906 17.117188 21.628906 17.125 21.628906 C 17.128906 21.628906 17.128906 21.628906 17.132812 21.625 C 17.171875 21.625 17.179688 21.640625 17.179688 21.667969 C 17.179688 21.695312 17.171875 21.71875 17.160156 21.746094 L 17.148438 21.75 C 17.148438 21.746094 17.148438 21.746094 17.144531 21.746094 C 17.144531 21.792969 17.136719 21.84375 17.21875 21.828125 C 17.21875 21.824219 17.21875 21.820312 17.222656 21.816406 C 17.207031 21.804688 17.1875 21.8125 17.1875 21.792969 C 17.1875 21.777344 17.207031 21.773438 17.214844 21.773438 C 17.230469 21.773438 17.242188 21.78125 17.25 21.78125 C 17.253906 21.78125 17.273438 21.777344 17.28125 21.773438 C 17.285156 21.769531 17.292969 21.761719 17.296875 21.757812 C 17.296875 21.753906 17.296875 21.746094 17.296875 21.738281 C 17.296875 21.738281 17.304688 21.734375 17.308594 21.734375 C 17.324219 21.730469 17.339844 21.746094 17.339844 21.757812 L 17.339844 21.796875 C 17.332031 21.808594 17.324219 21.8125 17.320312 21.816406 C 17.3125 21.816406 17.296875 21.8125 17.289062 21.8125 C 17.285156 21.8125 17.285156 21.816406 17.277344 21.820312 C 17.289062 21.832031 17.316406 21.839844 17.316406 21.863281 C 17.316406 21.867188 17.308594 21.878906 17.308594 21.886719 C 17.308594 21.890625 17.320312 21.910156 17.320312 21.914062 C 17.320312 21.921875 17.316406 21.941406 17.3125 21.957031 C 17.308594 21.960938 17.300781 21.960938 17.296875 21.964844 C 17.285156 21.964844 17.28125 21.945312 17.28125 21.941406 C 17.28125 21.9375 17.285156 21.933594 17.285156 21.925781 C 17.273438 21.929688 17.261719 21.933594 17.253906 21.925781 C 17.253906 21.921875 17.25 21.921875 17.25 21.917969 C 17.242188 21.929688 17.226562 21.925781 17.203125 21.875 C 17.074219 21.941406 17.117188 21.75 17.058594 21.714844 C 17.019531 21.679688 16.992188 21.621094 16.949219 21.699219 C 16.964844 21.738281 17.015625 21.875 17.007812 21.746094 C 17.148438 21.757812 17.015625 21.992188 17.195312 21.957031 C 17.230469 22.039062 17.351562 21.9375 17.394531 22.03125 C 17.488281 21.984375 17.484375 22.027344 17.480469 22.09375 C 17.535156 21.917969 17.53125 22.191406 17.558594 22.242188 C 17.582031 22.375 17.550781 22.523438 17.523438 22.65625 C 17.519531 22.730469 17.335938 22.832031 17.5 22.835938 C 17.636719 22.84375 17.695312 22.710938 17.691406 22.609375 C 17.675781 22.441406 17.734375 22.269531 17.796875 22.109375 C 17.785156 21.988281 17.695312 21.890625 17.753906 21.769531 C 17.75 21.636719 17.863281 21.546875 17.792969 21.425781 C 17.84375 21.265625 17.824219 21.488281 17.886719 21.523438 C 17.828125 21.601562 17.820312 21.699219 17.796875 21.792969 C 17.753906 21.867188 17.832031 22.023438 17.804688 21.859375 C 17.796875 21.789062 17.859375 21.722656 17.875 21.648438 C 17.9375 21.71875 17.796875 21.914062 17.894531 21.964844 C 17.96875 21.921875 17.90625 21.851562 17.96875 21.777344 C 17.953125 21.671875 18.039062 21.550781 17.957031 21.445312 C 18.015625 21.332031 17.886719 21.257812 17.894531 21.152344 C 17.851562 21.035156 17.710938 20.964844 17.644531 20.859375 C 17.523438 20.804688 17.398438 20.753906 17.257812 20.796875 C 17.136719 20.730469 17.015625 20.867188 16.898438 20.808594 C 16.777344 20.8125 16.683594 20.90625 16.558594 20.882812 C 16.425781 20.964844 16.273438 20.839844 16.132812 20.863281 C 16.035156 20.878906 15.855469 20.871094 15.925781 20.738281 C 15.835938 20.730469 15.851562 20.644531 15.742188 20.660156 C 15.65625 20.636719 15.691406 20.515625 15.746094 20.621094 C 15.835938 20.632812 15.917969 20.632812 16.007812 20.597656 C 16.070312 20.617188 16.277344 20.613281 16.113281 20.578125 C 16.058594 20.496094 16.339844 20.664062 16.242188 20.527344 C 16.136719 20.5 16.207031 20.425781 16.265625 20.511719 C 16.277344 20.367188 16.121094 20.234375 16.035156 20.160156 C 15.9375 20.105469 16.148438 20.148438 16.058594 20.054688 C 15.984375 19.953125 15.882812 19.890625 15.75 19.894531 "/>
<path style=" stroke:none;fill-rule:nonzero;fill:rgb(85.490196%,69.019608%,44.705882%);fill-opacity:1;" d="M 16.011719 18.175781 C 14.816406 18.175781 13.847656 17.207031 13.847656 16.011719 C 13.847656 14.816406 14.816406 13.847656 16.011719 13.847656 C 17.207031 13.847656 18.175781 14.816406 18.175781 16.011719 C 18.175781 17.207031 17.207031 18.175781 16.011719 18.175781 M 16.011719 13.636719 C 14.703125 13.636719 13.636719 14.703125 13.636719 16.011719 C 13.636719 17.320312 14.703125 18.386719 16.011719 18.386719 C 17.320312 18.386719 18.386719 17.320312 18.386719 16.011719 C 18.386719 14.703125 17.320312 13.636719 16.011719 13.636719 "/>
<path style=" stroke:none;fill-rule:nonzero;fill:rgb(21.960784%,15.686275%,30.980392%);fill-opacity:1;" d="M 16.011719 13.847656 C 14.816406 13.847656 13.847656 14.816406 13.847656 16.011719 C 13.847656 17.207031 14.816406 18.175781 16.011719 18.175781 C 17.207031 18.175781 18.175781 17.207031 18.175781 16.011719 C 18.175781 14.816406 17.207031 13.847656 16.011719 13.847656 "/>
<path style=" stroke:none;fill-rule:nonzero;fill:rgb(85.490196%,69.019608%,44.705882%);fill-opacity:1;" d="M 17.65625 15.882812 C 17.605469 15.882812 17.5625 15.910156 17.542969 15.953125 L 17.378906 15.871094 C 17.292969 15.828125 17.21875 15.679688 17.199219 15.617188 L 17.175781 15.542969 C 17.226562 15.527344 17.261719 15.480469 17.261719 15.421875 C 17.261719 15.351562 17.203125 15.292969 17.132812 15.292969 C 17.0625 15.292969 17.003906 15.351562 17.003906 15.421875 C 17.003906 15.449219 17.011719 15.472656 17.027344 15.492188 L 16.964844 15.535156 C 16.78125 15.660156 16.449219 15.75 16.234375 15.792969 C 16.273438 15.574219 16.363281 15.246094 16.488281 15.058594 L 16.53125 14.996094 C 16.550781 15.011719 16.574219 15.019531 16.601562 15.019531 C 16.671875 15.019531 16.730469 14.960938 16.730469 14.890625 C 16.730469 14.816406 16.671875 14.757812 16.601562 14.757812 C 16.542969 14.757812 16.496094 14.796875 16.476562 14.847656 L 16.40625 14.824219 C 16.355469 14.808594 16.199219 14.738281 16.152344 14.644531 L 16.070312 14.480469 C 16.113281 14.460938 16.140625 14.417969 16.140625 14.367188 C 16.140625 14.292969 16.082031 14.238281 16.011719 14.238281 C 15.9375 14.238281 15.882812 14.292969 15.882812 14.367188 C 15.882812 14.417969 15.910156 14.460938 15.953125 14.480469 L 15.871094 14.644531 C 15.824219 14.738281 15.667969 14.808594 15.617188 14.824219 L 15.546875 14.847656 C 15.527344 14.796875 15.480469 14.761719 15.425781 14.761719 C 15.351562 14.761719 15.292969 14.820312 15.292969 14.890625 C 15.292969 14.960938 15.351562 15.019531 15.425781 15.019531 C 15.449219 15.019531 15.472656 15.011719 15.496094 14.996094 L 15.535156 15.058594 C 15.660156 15.246094 15.75 15.574219 15.789062 15.792969 C 15.574219 15.75 15.242188 15.660156 15.058594 15.535156 L 14.996094 15.492188 C 15.007812 15.472656 15.019531 15.449219 15.019531 15.421875 C 15.019531 15.351562 14.960938 15.292969 14.890625 15.292969 C 14.816406 15.292969 14.757812 15.351562 14.757812 15.421875 C 14.757812 15.480469 14.796875 15.527344 14.847656 15.542969 L 14.824219 15.617188 C 14.808594 15.667969 14.734375 15.824219 14.644531 15.871094 L 14.480469 15.953125 C 14.457031 15.910156 14.414062 15.882812 14.363281 15.882812 C 14.292969 15.882812 14.234375 15.941406 14.234375 16.011719 C 14.234375 16.082031 14.292969 16.140625 14.363281 16.140625 C 14.414062 16.140625 14.457031 16.113281 14.480469 16.070312 L 14.644531 16.152344 C 14.734375 16.199219 14.808594 16.355469 14.824219 16.40625 L 14.847656 16.476562 C 14.796875 16.496094 14.761719 16.542969 14.761719 16.601562 C 14.761719 16.671875 14.820312 16.730469 14.890625 16.730469 C 14.960938 16.730469 15.019531 16.671875 15.019531 16.601562 C 15.019531 16.574219 15.011719 16.550781 14.996094 16.527344 L 15.058594 16.488281 C 15.242188 16.363281 15.574219 16.273438 15.789062 16.230469 C 15.75 16.449219 15.660156 16.777344 15.535156 16.964844 L 15.492188 17.027344 C 15.472656 17.011719 15.449219 17.003906 15.421875 17.003906 C 15.351562 17.003906 15.292969 17.0625 15.292969 17.132812 C 15.292969 17.207031 15.351562 17.265625 15.421875 17.265625 C 15.480469 17.265625 15.527344 17.226562 15.546875 17.175781 L 15.617188 17.199219 C 15.667969 17.214844 15.824219 17.285156 15.871094 17.378906 L 15.953125 17.542969 C 15.910156 17.5625 15.882812 17.605469 15.882812 17.65625 C 15.882812 17.730469 15.941406 17.789062 16.011719 17.789062 C 16.082031 17.789062 16.140625 17.730469 16.140625 17.65625 C 16.140625 17.605469 16.113281 17.5625 16.070312 17.542969 L 16.152344 17.378906 C 16.195312 17.292969 16.34375 17.21875 16.40625 17.199219 L 16.476562 17.175781 C 16.496094 17.226562 16.542969 17.265625 16.601562 17.265625 C 16.671875 17.265625 16.730469 17.207031 16.730469 17.132812 C 16.730469 17.0625 16.671875 17.003906 16.601562 17.003906 C 16.574219 17.003906 16.550781 17.011719 16.53125 17.027344 L 16.488281 16.964844 C 16.363281 16.777344 16.273438 16.449219 16.234375 16.230469 C 16.449219 16.273438 16.78125 16.363281 16.964844 16.488281 L 17.027344 16.53125 C 17.011719 16.550781 17.003906 16.574219 17.003906 16.601562 C 17.003906 16.671875 17.0625 16.730469 17.132812 16.730469 C 17.203125 16.730469 17.261719 16.671875 17.261719 16.601562 C 17.261719 16.542969 17.226562 16.496094 17.175781 16.480469 L 17.199219 16.40625 C 17.214844 16.355469 17.285156 16.199219 17.378906 16.152344 L 17.542969 16.070312 C 17.5625 16.113281 17.605469 16.140625 17.65625 16.140625 C 17.730469 16.140625 17.789062 16.082031 17.789062 16.011719 C 17.789062 15.941406 17.730469 15.882812 17.65625 15.882812 "/>
<path style=" stroke:none;fill-rule:nonzero;fill:rgb(87.058824%,0%,23.529412%);fill-opacity:1;" d="M 16.011719 14.714844 C 16.097656 14.886719 16.359375 14.972656 16.359375 14.972656 C 16.175781 15.25 16.054688 15.796875 16.054688 15.96875 C 16.226562 15.96875 16.777344 15.851562 17.050781 15.664062 C 17.050781 15.664062 17.136719 15.925781 17.308594 16.011719 C 17.136719 16.097656 17.050781 16.359375 17.050781 16.359375 C 16.777344 16.171875 16.226562 16.054688 16.054688 16.054688 C 16.054688 16.226562 16.175781 16.773438 16.359375 17.050781 C 16.359375 17.050781 16.097656 17.136719 16.011719 17.308594 C 15.925781 17.136719 15.664062 17.050781 15.664062 17.050781 C 15.847656 16.773438 15.96875 16.226562 15.96875 16.054688 C 15.796875 16.054688 15.246094 16.171875 14.972656 16.359375 C 14.972656 16.359375 14.886719 16.097656 14.714844 16.011719 C 14.886719 15.925781 14.972656 15.664062 14.972656 15.664062 C 15.246094 15.851562 15.796875 15.96875 15.96875 15.96875 C 15.96875 15.796875 15.847656 15.25 15.664062 14.972656 C 15.664062 14.972656 15.925781 14.886719 16.011719 14.714844 "/>
<path style=" stroke:none;fill-rule:nonzero;fill:rgb(85.490196%,69.019608%,44.705882%);fill-opacity:1;" d="M 18.339844 7.707031 C 18.257812 7.835938 17.929688 8.078125 17.753906 8.144531 C 17.710938 8.164062 17.972656 8.136719 18.089844 8.121094 C 18.242188 8.101562 18.441406 8.003906 18.4375 8.039062 C 18.4375 8.191406 18.511719 8.449219 18.703125 8.566406 L 18.722656 8.578125 L 18.742188 8.566406 C 18.933594 8.4375 19.007812 8.203125 19.007812 8.039062 C 19.003906 8.003906 19.203125 8.101562 19.355469 8.121094 C 19.472656 8.136719 19.734375 8.164062 19.691406 8.144531 C 19.515625 8.078125 19.1875 7.835938 19.109375 7.707031 Z M 18.339844 7.707031 "/>
<path style=" stroke:none;fill-rule:nonzero;fill:rgb(85.490196%,69.019608%,44.705882%);fill-opacity:1;" d="M 15.769531 10.96875 C 15.765625 10.730469 15.703125 10.515625 15.597656 10.308594 C 15.3125 9.710938 14.441406 9.726562 14.632812 10.457031 C 14.707031 10.726562 14.945312 10.882812 15.230469 10.910156 C 15.207031 10.839844 15.09375 10.589844 15.1875 10.539062 C 15.332031 10.546875 15.53125 10.847656 15.574219 10.96875 C 15.574219 10.96875 15.574219 10.96875 15.769531 10.96875 "/>
<path style=" stroke:none;fill-rule:nonzero;fill:rgb(85.490196%,69.019608%,44.705882%);fill-opacity:1;" d="M 16.4375 10.96875 C 16.480469 10.847656 16.679688 10.546875 16.824219 10.539062 C 16.914062 10.589844 16.800781 10.839844 16.78125 10.910156 C 17.066406 10.882812 17.304688 10.726562 17.375 10.457031 C 17.566406 9.726562 16.699219 9.710938 16.414062 10.308594 C 16.304688 10.515625 16.246094 10.730469 16.238281 10.96875 C 16.4375 10.96875 16.4375 10.96875 16.4375 10.96875 "/>
<path style=" stroke:none;fill-rule:nonzero;fill:rgb(85.490196%,69.019608%,44.705882%);fill-opacity:1;" d="M 15.988281 8.871094 C 15.714844 9.167969 15.53125 9.511719 15.609375 9.914062 C 15.652344 10.132812 15.761719 10.339844 15.835938 10.554688 C 15.882812 10.6875 15.894531 10.828125 15.886719 10.96875 L 16.121094 10.96875 C 16.109375 10.824219 16.136719 10.6875 16.175781 10.554688 C 16.246094 10.339844 16.355469 10.132812 16.402344 9.914062 C 16.484375 9.496094 16.285156 9.183594 16.023438 8.871094 L 16.003906 8.851562 Z M 15.988281 8.871094 "/>
<path style=" stroke:none;fill-rule:nonzero;fill:rgb(85.490196%,69.019608%,44.705882%);fill-opacity:1;" d="M 16.554688 11.417969 L 15.453125 11.417969 C 15.386719 11.417969 15.335938 11.363281 15.335938 11.296875 L 15.335938 11.207031 C 15.335938 11.144531 15.386719 11.089844 15.453125 11.089844 L 16.554688 11.089844 C 16.621094 11.089844 16.671875 11.144531 16.671875 11.207031 L 16.671875 11.296875 C 16.671875 11.363281 16.621094 11.417969 16.554688 11.417969 "/>
<path style=" stroke:none;fill-rule:nonzero;fill:rgb(85.490196%,69.019608%,44.705882%);fill-opacity:1;" d="M 15.617188 11.539062 C 15.539062 11.667969 15.210938 11.910156 15.035156 11.976562 C 14.992188 11.996094 15.25 11.96875 15.367188 11.953125 C 15.523438 11.933594 15.722656 11.839844 15.71875 11.871094 C 15.71875 12.027344 15.792969 12.28125 15.984375 12.398438 L 16.003906 12.410156 L 16.023438 12.398438 C 16.214844 12.269531 16.289062 12.039062 16.289062 11.871094 C 16.285156 11.839844 16.484375 11.933594 16.636719 11.953125 C 16.753906 11.96875 17.015625 11.996094 16.972656 11.976562 C 16.796875 11.910156 16.46875 11.667969 16.386719 11.539062 Z M 15.617188 11.539062 "/>
<path style=" stroke:none;fill-rule:nonzero;fill:rgb(85.490196%,69.019608%,44.705882%);fill-opacity:1;" d="M 13.421875 12.371094 L 13.40625 12.351562 L 13.386719 12.371094 C 13.113281 12.667969 12.929688 13.007812 13.007812 13.410156 L 13.800781 13.410156 C 13.882812 12.996094 13.683594 12.683594 13.421875 12.371094 "/>
<path style=" stroke:none;fill-rule:nonzero;fill:rgb(85.490196%,69.019608%,44.705882%);fill-opacity:1;" d="M 18.738281 12.371094 L 18.722656 12.351562 L 18.707031 12.371094 C 18.433594 12.667969 18.246094 13.007812 18.328125 13.410156 L 19.117188 13.410156 C 19.199219 12.996094 19.003906 12.683594 18.738281 12.371094 "/>
<path style=" stroke:none;fill-rule:nonzero;fill:rgb(85.490196%,69.019608%,44.705882%);fill-opacity:1;" d="M 10.472656 10.96875 C 10.464844 10.730469 10.40625 10.515625 10.296875 10.308594 C 10.011719 9.710938 9.144531 9.726562 9.335938 10.457031 C 9.40625 10.726562 9.644531 10.882812 9.929688 10.910156 C 9.910156 10.839844 9.796875 10.589844 9.886719 10.539062 C 10.035156 10.546875 10.230469 10.847656 10.273438 10.96875 C 10.273438 10.96875 10.273438 10.96875 10.472656 10.96875 "/>
<path style=" stroke:none;fill-rule:nonzero;fill:rgb(85.490196%,69.019608%,44.705882%);fill-opacity:1;" d="M 11.136719 10.96875 C 11.179688 10.847656 11.378906 10.546875 11.523438 10.539062 C 11.617188 10.589844 11.503906 10.839844 11.480469 10.910156 C 11.765625 10.882812 12.007812 10.726562 12.078125 10.457031 C 12.269531 9.726562 11.398438 9.710938 11.117188 10.308594 C 11.007812 10.515625 10.945312 10.730469 10.941406 10.96875 C 11.136719 10.96875 11.136719 10.96875 11.136719 10.96875 "/>
<path style=" stroke:none;fill-rule:nonzero;fill:rgb(85.490196%,69.019608%,44.705882%);fill-opacity:1;" d="M 10.691406 8.871094 C 10.414062 9.167969 10.230469 9.511719 10.308594 9.914062 C 10.355469 10.132812 10.460938 10.339844 10.535156 10.554688 C 10.582031 10.6875 10.59375 10.828125 10.589844 10.96875 L 10.820312 10.96875 C 10.8125 10.824219 10.835938 10.6875 10.875 10.554688 C 10.945312 10.339844 11.054688 10.132812 11.101562 9.914062 C 11.183594 9.496094 10.988281 9.183594 10.722656 8.871094 L 10.707031 8.851562 Z M 10.691406 8.871094 "/>
<path style=" stroke:none;fill-rule:nonzero;fill:rgb(85.490196%,69.019608%,44.705882%);fill-opacity:1;" d="M 11.253906 11.417969 L 10.152344 11.417969 C 10.085938 11.417969 10.035156 11.363281 10.035156 11.296875 L 10.035156 11.207031 C 10.035156 11.144531 10.085938 11.089844 10.152344 11.089844 L 11.253906 11.089844 C 11.320312 11.089844 11.375 11.144531 11.375 11.207031 L 11.375 11.296875 C 11.375 11.363281 11.320312 11.417969 11.253906 11.417969 "/>
<path style=" stroke:none;fill-rule:nonzero;fill:rgb(85.490196%,69.019608%,44.705882%);fill-opacity:1;" d="M 10.320312 11.539062 C 10.238281 11.667969 9.910156 11.910156 9.734375 11.976562 C 9.691406 11.996094 9.953125 11.96875 10.070312 11.953125 C 10.222656 11.933594 10.421875 11.839844 10.417969 11.871094 C 10.417969 12.027344 10.492188 12.28125 10.683594 12.398438 L 10.703125 12.410156 L 10.722656 12.398438 C 10.917969 12.269531 10.988281 12.039062 10.992188 11.871094 C 10.984375 11.839844 11.183594 11.933594 11.339844 11.953125 C 11.457031 11.96875 11.71875 11.996094 11.671875 11.976562 C 11.496094 11.910156 11.167969 11.667969 11.089844 11.539062 Z M 10.320312 11.539062 "/>
<path style=" stroke:none;fill-rule:nonzero;fill:rgb(85.490196%,69.019608%,44.705882%);fill-opacity:1;" d="M 21.113281 10.96875 C 21.109375 10.730469 21.046875 10.515625 20.9375 10.308594 C 20.65625 9.710938 19.785156 9.726562 19.976562 10.457031 C 20.046875 10.726562 20.289062 10.882812 20.574219 10.910156 C 20.550781 10.839844 20.4375 10.589844 20.53125 10.539062 C 20.675781 10.546875 20.875 10.847656 20.917969 10.96875 C 20.917969 10.96875 20.917969 10.96875 21.113281 10.96875 "/>
<path style=" stroke:none;fill-rule:nonzero;fill:rgb(85.490196%,69.019608%,44.705882%);fill-opacity:1;" d="M 21.777344 10.96875 C 21.824219 10.847656 22.019531 10.546875 22.167969 10.539062 C 22.257812 10.589844 22.144531 10.839844 22.125 10.910156 C 22.410156 10.882812 22.648438 10.726562 22.71875 10.457031 C 22.910156 9.726562 22.042969 9.710938 21.757812 10.308594 C 21.648438 10.515625 21.589844 10.730469 21.582031 10.96875 C 21.777344 10.96875 21.777344 10.96875 21.777344 10.96875 "/>
<path style=" stroke:none;fill-rule:nonzero;fill:rgb(85.490196%,69.019608%,44.705882%);fill-opacity:1;" d="M 21.332031 8.871094 C 21.058594 9.167969 20.875 9.511719 20.953125 9.914062 C 20.996094 10.132812 21.101562 10.339844 21.179688 10.554688 C 21.226562 10.6875 21.238281 10.828125 21.230469 10.96875 L 21.464844 10.96875 C 21.453125 10.824219 21.476562 10.6875 21.519531 10.554688 C 21.589844 10.339844 21.699219 10.132812 21.742188 9.914062 C 21.828125 9.496094 21.628906 9.183594 21.363281 8.871094 L 21.347656 8.851562 Z M 21.332031 8.871094 "/>
<path style=" stroke:none;fill-rule:nonzero;fill:rgb(85.490196%,69.019608%,44.705882%);fill-opacity:1;" d="M 21.898438 11.417969 L 20.796875 11.417969 C 20.730469 11.417969 20.675781 11.363281 20.675781 11.296875 L 20.675781 11.207031 C 20.675781 11.144531 20.730469 11.089844 20.796875 11.089844 L 21.898438 11.089844 C 21.964844 11.089844 22.015625 11.144531 22.015625 11.207031 L 22.015625 11.296875 C 22.015625 11.363281 21.964844 11.417969 21.898438 11.417969 "/>
<path style=" stroke:none;fill-rule:nonzero;fill:rgb(85.490196%,69.019608%,44.705882%);fill-opacity:1;" d="M 20.960938 11.539062 C 20.882812 11.667969 20.554688 11.910156 20.378906 11.976562 C 20.332031 11.996094 20.59375 11.96875 20.710938 11.953125 C 20.867188 11.933594 21.066406 11.839844 21.0625 11.871094 C 21.058594 12.027344 21.132812 12.28125 21.328125 12.398438 L 21.347656 12.410156 L 21.367188 12.398438 C 21.558594 12.269531 21.632812 12.039062 21.632812 11.871094 C 21.628906 11.839844 21.828125 11.933594 21.980469 11.953125 C 22.097656 11.96875 22.359375 11.996094 22.316406 11.976562 C 22.140625 11.910156 21.8125 11.667969 21.730469 11.539062 Z M 20.960938 11.539062 "/>
<path style=" stroke:none;fill-rule:nonzero;fill:rgb(85.490196%,69.019608%,44.705882%);fill-opacity:1;" d="M 13.019531 7.707031 C 12.941406 7.835938 12.609375 8.078125 12.4375 8.144531 C 12.390625 8.164062 12.652344 8.136719 12.769531 8.121094 C 12.921875 8.101562 13.121094 8.003906 13.117188 8.039062 C 13.117188 8.191406 13.191406 8.449219 13.386719 8.566406 L 13.40625 8.578125 L 13.421875 8.566406 C 13.617188 8.4375 13.691406 8.203125 13.691406 8.039062 C 13.6875 8.003906 13.886719 8.101562 14.039062 8.121094 C 14.15625 8.136719 14.417969 8.164062 14.371094 8.144531 C 14.199219 8.078125 13.871094 7.835938 13.789062 7.707031 Z M 13.019531 7.707031 "/>
</g>
</svg>
