<?xml version="1.0" encoding="UTF-8"?>
<svg xmlns="http://www.w3.org/2000/svg" xmlns:xlink="http://www.w3.org/1999/xlink" width="32px" height="32px" viewBox="0 0 32 39" version="1.1">
<g id="surface1">
<path style=" stroke:none;fill-rule:evenodd;fill:rgb(86.27451%,61.568627%,5.882353%);fill-opacity:1;" d="M 31.898438 18.925781 C 31.550781 22.421875 30.203125 25.78125 28.316406 28.742188 C 26.679688 31.3125 24.75 33.515625 22.316406 35.363281 C 20.34375 36.859375 18.304688 38.105469 15.980469 38.996094 C 10.304688 36.8125 6.175781 32.863281 3.230469 27.96875 C 1.292969 24.746094 0.25 21.265625 0.0273438 17.523438 C -0.0898438 15.570312 0.199219 12.953125 0.558594 11.03125 C 1.09375 8.179688 1.980469 5.574219 3.148438 3.128906 L 3.390625 2.964844 C 6.65625 0.730469 12.132812 0 16.070312 0 C 20.019531 0 25.34375 0.726562 28.617188 2.976562 L 28.859375 3.144531 C 31.164062 7.5625 32.394531 13.914062 31.898438 18.925781 Z M 31.898438 18.925781 "/>
<path style=" stroke:none;fill-rule:evenodd;fill:rgb(0%,43.137255%,69.803922%);fill-opacity:1;" d="M 4.128906 4.023438 C 7.003906 2.058594 12.015625 1.15625 15.980469 1.15625 C 19.945312 1.15625 24.988281 2.046875 27.875 4.035156 C 29.738281 7.289062 31.21875 14.097656 30.738281 18.707031 C 30.398438 21.976562 29.191406 25.148438 27.394531 27.96875 C 25.839844 30.414062 23.832031 32.589844 21.527344 34.339844 C 19.820312 35.632812 17.953125 36.691406 15.980469 37.445312 C 11.402344 35.761719 6.921875 31.796875 4.167969 27.222656 C 3.46875 26.054688 2.898438 24.828125 2.445312 23.617188 C 1.703125 21.625 1.269531 19.5 1.144531 17.40625 C 0.886719 13.0625 2.625 6.59375 4.128906 4.023438 Z M 4.128906 4.023438 "/>
<path style=" stroke:none;fill-rule:evenodd;fill:rgb(100%,100%,100%);fill-opacity:1;" d="M 4.289062 7.972656 C 3.144531 11.328125 2.195312 15.46875 2.726562 19.34375 C 2.90625 20.652344 3.183594 21.886719 3.664062 23.167969 C 4.3125 24.90625 5.199219 26.605469 6.265625 28.132812 C 6.941406 29.105469 7.71875 30.019531 8.550781 30.878906 C 10.65625 33.058594 13.304688 34.773438 15.972656 35.886719 C 18.375 35.007812 20.539062 33.582031 22.417969 31.882812 C 23.90625 30.539062 25.21875 28.976562 26.296875 27.28125 C 27.421875 25.515625 28.3125 23.589844 28.871094 21.578125 C 29.28125 20.113281 29.425781 18.65625 29.441406 17.140625 C 29.472656 14.042969 28.8125 10.871094 27.730469 7.996094 C 24.152344 6.355469 20.140625 5.609375 16.011719 5.640625 C 11.878906 5.667969 7.632812 6.472656 4.289062 7.972656 Z M 5.5 8.429688 C 4.542969 11.371094 3.917969 14.4375 3.980469 17.480469 C 3.996094 18.308594 4.054688 19.132812 4.175781 19.953125 C 4.878906 24.636719 7.289062 29.074219 10.8125 32.285156 C 12.136719 33.492188 13.785156 34.628906 15.96875 35.675781 C 17.796875 34.945312 19.527344 33.78125 21.046875 32.417969 C 23.199219 30.492188 24.949219 28.125 26.132812 25.648438 C 27.367188 23.074219 27.988281 20.210938 28.039062 17.371094 C 28.09375 14.328125 27.316406 10.589844 26.539062 8.484375 C 23.308594 6.878906 19.660156 6.148438 15.996094 6.175781 C 12.410156 6.203125 8.882812 6.867188 5.5 8.429688 Z M 5.5 8.429688 "/>
<path style=" stroke:none;fill-rule:evenodd;fill:rgb(100%,100%,100%);fill-opacity:1;" d="M 16.113281 21.640625 C 18.820312 21.640625 21.015625 23.8125 21.015625 26.496094 C 21.015625 29.175781 18.820312 31.351562 16.113281 31.351562 C 13.410156 31.351562 11.214844 29.175781 11.214844 26.496094 C 11.214844 23.8125 13.410156 21.640625 16.113281 21.640625 Z M 16.113281 22.15625 C 18.53125 22.15625 20.496094 24.097656 20.496094 26.496094 C 20.496094 28.890625 18.53125 30.835938 16.113281 30.835938 C 13.695312 30.835938 11.734375 28.890625 11.734375 26.496094 C 11.734375 24.097656 13.695312 22.15625 16.113281 22.15625 Z M 16.113281 22.15625 "/>
<path style=" stroke:none;fill-rule:nonzero;fill:rgb(100%,100%,100%);fill-opacity:1;" d="M 7.808594 11.757812 C 7.46875 11.816406 7.222656 11.941406 7.078125 12.132812 C 6.933594 12.324219 6.878906 12.59375 6.917969 12.933594 L 9.519531 12.507812 L 9.648438 13.257812 L 7.039062 13.691406 C 7.105469 14.066406 7.230469 14.320312 7.421875 14.457031 C 7.613281 14.597656 7.902344 14.632812 8.28125 14.570312 L 9.828125 14.3125 L 9.953125 15.066406 L 8.363281 15.328125 C 8.011719 15.386719 7.730469 15.402344 7.519531 15.378906 C 7.308594 15.355469 7.105469 15.289062 6.90625 15.179688 C 6.644531 15.042969 6.4375 14.839844 6.273438 14.578125 C 6.109375 14.316406 5.996094 13.984375 5.929688 13.59375 C 5.800781 12.832031 5.878906 12.238281 6.160156 11.820312 C 6.441406 11.398438 6.941406 11.128906 7.664062 11.011719 L 9.226562 10.753906 L 9.351562 11.503906 Z M 7.808594 11.757812 "/>
<path style=" stroke:none;fill-rule:nonzero;fill:rgb(100%,100%,100%);fill-opacity:1;" d="M 13.574219 11.253906 L 11.6875 11.363281 C 11.460938 11.375 11.300781 11.433594 11.199219 11.527344 C 11.097656 11.625 11.054688 11.773438 11.066406 11.972656 C 11.074219 12.128906 11.128906 12.191406 11.222656 12.265625 C 11.316406 12.339844 11.453125 12.371094 11.628906 12.359375 L 12.609375 12.304688 C 13.074219 12.28125 13.410156 12.410156 13.617188 12.585938 C 13.824219 12.765625 13.941406 13.078125 13.96875 13.519531 C 13.996094 13.96875 13.902344 14.308594 13.6875 14.53125 C 13.472656 14.753906 13.121094 14.882812 12.636719 14.910156 L 10.375 15.042969 L 10.332031 14.261719 L 12.300781 14.140625 C 12.542969 14.125 12.710938 14.078125 12.804688 13.996094 C 12.898438 13.914062 12.941406 13.75 12.929688 13.574219 C 12.917969 13.394531 12.867188 13.265625 12.769531 13.195312 C 12.675781 13.121094 12.519531 13.089844 12.296875 13.105469 L 11.449219 13.164062 C 10.9375 13.199219 10.605469 13.101562 10.378906 12.921875 C 10.148438 12.738281 10.027344 12.453125 10 12.023438 C 9.972656 11.558594 10.066406 11.210938 10.28125 10.984375 C 10.492188 10.757812 10.878906 10.632812 11.371094 10.601562 L 13.527344 10.472656 Z M 13.574219 11.253906 "/>
<path style=" stroke:none;fill-rule:nonzero;fill:rgb(100%,100%,100%);fill-opacity:1;" d="M 15.515625 11.191406 L 14.066406 11.191406 L 14.066406 10.429688 L 17.941406 10.429688 L 17.941406 11.191406 L 16.488281 11.191406 L 16.488281 14.796875 L 15.515625 14.796875 Z M 15.515625 11.191406 "/>
<path style=" stroke:none;fill-rule:nonzero;fill:rgb(100%,100%,100%);fill-opacity:1;" d="M 19.425781 13.136719 L 20.535156 13.210938 L 20.089844 11.6875 Z M 19.65625 10.53125 L 20.617188 10.589844 L 22.046875 15.066406 L 21.039062 15.003906 L 20.75 13.984375 L 19.113281 13.882812 L 18.710938 14.84375 L 17.714844 14.789062 Z M 19.65625 10.53125 "/>
<path style=" stroke:none;fill-rule:nonzero;fill:rgb(100%,100%,100%);fill-opacity:1;" d="M 24.398438 11.898438 C 24.042969 11.847656 23.792969 11.851562 23.601562 12.070312 C 23.410156 12.289062 23.273438 12.667969 23.195312 13.21875 C 23.125 13.691406 23.160156 13.960938 23.28125 14.175781 C 23.402344 14.390625 23.644531 14.527344 24.011719 14.578125 L 25.414062 14.78125 L 25.292969 15.578125 L 23.847656 15.371094 C 23.53125 15.324219 23.28125 15.257812 23.109375 15.175781 C 22.9375 15.089844 22.78125 14.96875 22.640625 14.808594 C 22.457031 14.601562 22.335938 14.347656 22.273438 14.050781 C 22.210938 13.75 22.207031 13.4375 22.265625 13.042969 C 22.378906 12.277344 22.617188 11.734375 22.984375 11.417969 C 23.347656 11.097656 23.855469 10.984375 24.511719 11.082031 L 25.929688 11.285156 L 25.800781 12.101562 Z M 24.398438 11.898438 "/>
<path style=" stroke:none;fill-rule:nonzero;fill:rgb(93.72549%,82.745098%,41.568627%);fill-opacity:1;" d="M 6.816406 17.773438 L 5.996094 17.773438 L 5.996094 17.402344 L 8.191406 17.402344 L 8.191406 17.773438 L 7.367188 17.773438 L 7.367188 19.523438 L 6.816406 19.523438 Z M 6.816406 17.773438 "/>
<path style=" stroke:none;fill-rule:nonzero;fill:rgb(93.72549%,82.745098%,41.568627%);fill-opacity:1;" d="M 10.660156 17.777344 L 10.007812 17.777344 L 10.007812 18.3125 L 10.660156 18.3125 C 10.835938 18.3125 10.960938 18.292969 11.03125 18.25 C 11.097656 18.210938 11.132812 18.140625 11.132812 18.042969 C 11.132812 17.945312 11.097656 17.878906 11.03125 17.839844 C 10.964844 17.796875 10.839844 17.777344 10.660156 17.777344 Z M 9.472656 17.398438 L 10.785156 17.398438 C 11.09375 17.398438 11.316406 17.453125 11.460938 17.554688 C 11.601562 17.65625 11.671875 17.820312 11.671875 18.039062 C 11.671875 18.199219 11.628906 18.332031 11.542969 18.4375 C 11.453125 18.539062 11.324219 18.605469 11.160156 18.636719 L 11.792969 19.523438 L 11.195312 19.523438 L 10.632812 18.6875 L 10.007812 18.6875 L 10.007812 19.523438 L 9.472656 19.523438 Z M 9.472656 17.398438 "/>
<path style=" stroke:none;fill-rule:nonzero;fill:rgb(93.72549%,82.745098%,41.568627%);fill-opacity:1;" d="M 12.984375 18.441406 C 12.984375 18.074219 13.089844 17.804688 13.296875 17.625 C 13.503906 17.449219 13.824219 17.359375 14.25 17.359375 C 14.679688 17.359375 14.996094 17.449219 15.203125 17.628906 C 15.410156 17.808594 15.511719 18.085938 15.511719 18.460938 C 15.511719 18.835938 15.410156 19.113281 15.203125 19.296875 C 14.996094 19.476562 14.679688 19.566406 14.25 19.566406 C 13.816406 19.566406 13.496094 19.476562 13.289062 19.292969 C 13.085938 19.113281 12.984375 18.828125 12.984375 18.441406 Z M 14.25 17.722656 C 14.019531 17.722656 13.851562 17.78125 13.738281 17.902344 C 13.625 18.019531 13.566406 18.199219 13.566406 18.441406 C 13.566406 18.703125 13.621094 18.894531 13.730469 19.019531 C 13.839844 19.140625 14.015625 19.199219 14.25 19.199219 C 14.480469 19.199219 14.652344 19.140625 14.765625 19.019531 C 14.878906 18.898438 14.933594 18.710938 14.933594 18.460938 C 14.933594 18.210938 14.878906 18.023438 14.765625 17.902344 C 14.652344 17.78125 14.480469 17.722656 14.25 17.722656 Z M 14.25 17.722656 "/>
<path style=" stroke:none;fill-rule:nonzero;fill:rgb(93.72549%,82.745098%,41.568627%);fill-opacity:1;" d="M 16.539062 17.398438 L 17.140625 17.398438 L 17.765625 18.210938 L 18.402344 17.398438 L 19.019531 17.398438 L 18.042969 18.585938 L 18.042969 19.523438 L 17.507812 19.523438 L 17.507812 18.585938 Z M 16.539062 17.398438 "/>
<path style=" stroke:none;fill-rule:nonzero;fill:rgb(93.72549%,82.745098%,41.568627%);fill-opacity:1;" d="M 21.3125 17.769531 C 21.121094 17.769531 20.972656 17.808594 20.875 17.890625 C 20.777344 17.972656 20.722656 18.09375 20.714844 18.261719 L 22.1875 18.261719 L 22.1875 18.632812 L 20.710938 18.632812 C 20.710938 18.816406 20.757812 18.949219 20.851562 19.03125 C 20.941406 19.113281 21.097656 19.152344 21.3125 19.152344 L 22.1875 19.152344 L 22.1875 19.523438 L 21.285156 19.523438 C 21.089844 19.523438 20.933594 19.507812 20.816406 19.480469 C 20.703125 19.453125 20.597656 19.402344 20.496094 19.335938 C 20.367188 19.25 20.269531 19.136719 20.207031 18.996094 C 20.140625 18.859375 20.109375 18.691406 20.109375 18.5 C 20.109375 18.125 20.207031 17.847656 20.398438 17.667969 C 20.59375 17.488281 20.894531 17.398438 21.304688 17.398438 L 22.1875 17.398438 L 22.1875 17.769531 Z M 21.3125 17.769531 "/>
<path style=" stroke:none;fill-rule:nonzero;fill:rgb(93.72549%,82.745098%,41.568627%);fill-opacity:1;" d="M 25.824219 17.777344 L 24.507812 17.777344 C 24.363281 17.777344 24.261719 17.800781 24.195312 17.84375 C 24.128906 17.890625 24.097656 17.960938 24.097656 18.054688 C 24.097656 18.132812 24.125 18.191406 24.179688 18.230469 C 24.238281 18.265625 24.320312 18.285156 24.433594 18.285156 L 25.136719 18.285156 C 25.429688 18.285156 25.636719 18.332031 25.761719 18.425781 C 25.886719 18.519531 25.945312 18.671875 25.945312 18.886719 C 25.945312 19.105469 25.875 19.265625 25.734375 19.367188 C 25.589844 19.472656 25.367188 19.523438 25.058594 19.523438 L 23.640625 19.523438 L 23.640625 19.144531 L 24.976562 19.144531 C 25.128906 19.144531 25.234375 19.125 25.296875 19.089844 C 25.359375 19.050781 25.390625 18.988281 25.390625 18.90625 C 25.390625 18.816406 25.363281 18.753906 25.304688 18.714844 C 25.246094 18.679688 25.152344 18.660156 25.011719 18.660156 L 24.382812 18.660156 C 24.089844 18.660156 23.878906 18.609375 23.742188 18.511719 C 23.605469 18.414062 23.539062 18.261719 23.539062 18.050781 C 23.539062 17.824219 23.609375 17.660156 23.753906 17.554688 C 23.894531 17.453125 24.121094 17.398438 24.429688 17.398438 L 25.824219 17.398438 Z M 25.824219 17.777344 "/>
<path style=" stroke:none;fill-rule:nonzero;fill:rgb(100%,100%,100%);fill-opacity:1;" d="M 11.753906 2.617188 L 12.246094 2.566406 L 12.484375 4.882812 L 11.992188 4.933594 Z M 11.753906 2.617188 "/>
<path style=" stroke:none;fill-rule:nonzero;fill:rgb(100%,100%,100%);fill-opacity:1;" d="M 13.753906 3.367188 L 14.53125 3.367188 C 14.527344 3.152344 14.476562 3.003906 14.382812 2.917969 C 14.289062 2.828125 14.128906 2.785156 13.90625 2.785156 C 13.757812 2.785156 13.648438 2.808594 13.578125 2.859375 C 13.511719 2.90625 13.476562 2.984375 13.476562 3.089844 C 13.476562 3.183594 13.5 3.25 13.546875 3.296875 C 13.59375 3.34375 13.664062 3.367188 13.753906 3.367188 Z M 13.726562 3.761719 C 13.460938 3.761719 13.261719 3.710938 13.136719 3.605469 C 13.007812 3.5 12.945312 3.335938 12.945312 3.117188 C 12.945312 2.875 13.03125 2.695312 13.199219 2.570312 C 13.367188 2.449219 13.617188 2.386719 13.949219 2.386719 C 14.335938 2.386719 14.621094 2.480469 14.804688 2.671875 C 14.988281 2.859375 15.078125 3.15625 15.078125 3.558594 C 15.078125 3.96875 14.980469 4.265625 14.789062 4.457031 C 14.597656 4.648438 14.292969 4.746094 13.875 4.746094 L 13.066406 4.746094 L 13.066406 4.347656 L 13.886719 4.347656 C 14.101562 4.347656 14.261719 4.300781 14.363281 4.203125 C 14.46875 4.109375 14.523438 3.964844 14.53125 3.761719 Z M 13.726562 3.761719 "/>
<path style=" stroke:none;fill-rule:nonzero;fill:rgb(100%,100%,100%);fill-opacity:1;" d="M 15.941406 3.578125 C 15.839844 3.503906 15.765625 3.421875 15.714844 3.328125 C 15.664062 3.234375 15.640625 3.132812 15.640625 3.019531 C 15.640625 2.8125 15.699219 2.660156 15.820312 2.5625 C 15.941406 2.464844 16.128906 2.414062 16.382812 2.414062 L 16.992188 2.414062 C 17.242188 2.414062 17.429688 2.464844 17.550781 2.5625 C 17.671875 2.660156 17.734375 2.808594 17.734375 3.011719 C 17.734375 3.128906 17.707031 3.234375 17.65625 3.328125 C 17.605469 3.421875 17.53125 3.503906 17.433594 3.578125 C 17.546875 3.628906 17.628906 3.695312 17.683594 3.785156 C 17.734375 3.871094 17.761719 3.988281 17.761719 4.125 C 17.761719 4.324219 17.699219 4.476562 17.578125 4.582031 C 17.460938 4.691406 17.285156 4.746094 17.0625 4.746094 L 16.316406 4.746094 C 16.089844 4.746094 15.917969 4.691406 15.796875 4.582031 C 15.675781 4.476562 15.613281 4.324219 15.613281 4.121094 C 15.613281 3.988281 15.640625 3.875 15.695312 3.785156 C 15.746094 3.695312 15.832031 3.628906 15.941406 3.578125 Z M 16.511719 3.777344 C 16.386719 3.777344 16.296875 3.796875 16.238281 3.84375 C 16.179688 3.890625 16.148438 3.960938 16.148438 4.0625 C 16.148438 4.160156 16.175781 4.230469 16.234375 4.277344 C 16.292969 4.324219 16.386719 4.347656 16.511719 4.347656 L 16.863281 4.347656 C 16.988281 4.347656 17.082031 4.324219 17.140625 4.277344 C 17.199219 4.230469 17.230469 4.160156 17.230469 4.0625 C 17.230469 3.964844 17.199219 3.890625 17.140625 3.84375 C 17.082031 3.800781 16.988281 3.777344 16.863281 3.777344 Z M 16.519531 2.8125 C 16.394531 2.8125 16.300781 2.835938 16.242188 2.882812 C 16.179688 2.929688 16.152344 3 16.152344 3.097656 C 16.152344 3.195312 16.179688 3.265625 16.238281 3.308594 C 16.296875 3.355469 16.390625 3.375 16.519531 3.375 L 16.863281 3.375 C 16.988281 3.375 17.082031 3.355469 17.140625 3.308594 C 17.199219 3.265625 17.226562 3.195312 17.226562 3.097656 C 17.226562 3 17.199219 2.925781 17.140625 2.882812 C 17.082031 2.835938 16.988281 2.8125 16.863281 2.8125 Z M 16.519531 2.8125 "/>
<path style=" stroke:none;fill-rule:nonzero;fill:rgb(100%,100%,100%);fill-opacity:1;" d="M 19.609375 3.972656 L 18.832031 3.917969 C 18.820312 4.121094 18.855469 4.273438 18.945312 4.371094 C 19.035156 4.472656 19.183594 4.527344 19.394531 4.542969 C 19.550781 4.554688 19.667969 4.539062 19.742188 4.496094 C 19.816406 4.449219 19.855469 4.375 19.863281 4.265625 C 19.871094 4.175781 19.851562 4.105469 19.808594 4.054688 C 19.765625 4.003906 19.699219 3.976562 19.609375 3.972656 Z M 19.664062 3.574219 C 19.929688 3.59375 20.121094 3.660156 20.242188 3.773438 C 20.363281 3.886719 20.414062 4.054688 20.398438 4.273438 C 20.382812 4.511719 20.285156 4.6875 20.105469 4.800781 C 19.925781 4.910156 19.675781 4.957031 19.347656 4.933594 C 18.960938 4.90625 18.679688 4.792969 18.511719 4.589844 C 18.34375 4.390625 18.273438 4.089844 18.300781 3.6875 C 18.328125 3.28125 18.449219 2.988281 18.65625 2.808594 C 18.863281 2.632812 19.171875 2.554688 19.585938 2.585938 L 20.386719 2.640625 L 20.359375 3.039062 L 19.546875 2.980469 C 19.320312 2.964844 19.15625 3 19.050781 3.085938 C 18.941406 3.171875 18.878906 3.316406 18.859375 3.519531 Z M 19.664062 3.574219 "/>
<path style=" stroke:none;fill-rule:nonzero;fill:rgb(100%,100%,100%);fill-opacity:1;" d="M 14.714844 28.472656 L 13.953125 28.472656 L 13.953125 25.285156 L 13.28125 25.511719 L 13.28125 24.820312 L 14.308594 24.390625 L 14.714844 24.390625 Z M 14.714844 28.472656 "/>
<path style=" stroke:none;fill-rule:nonzero;fill:rgb(100%,100%,100%);fill-opacity:1;" d="M 16.730469 25.6875 L 16.730469 27.179688 C 16.730469 27.65625 16.914062 27.902344 17.425781 27.902344 C 17.953125 27.902344 18.128906 27.640625 18.128906 27.15625 L 18.128906 25.628906 C 18.128906 25.179688 17.929688 25.015625 17.433594 25.015625 C 16.929688 25.015625 16.730469 25.214844 16.730469 25.6875 Z M 15.9375 25.835938 C 15.9375 25.585938 15.960938 25.394531 16 25.261719 C 16.035156 25.125 16.101562 25.003906 16.1875 24.890625 C 16.328125 24.710938 16.492188 24.574219 16.6875 24.488281 C 16.878906 24.398438 17.179688 24.355469 17.433594 24.355469 C 17.667969 24.355469 17.964844 24.402344 18.164062 24.492188 C 18.363281 24.585938 18.535156 24.722656 18.679688 24.902344 C 18.765625 25.003906 18.824219 25.128906 18.863281 25.277344 C 18.902344 25.421875 18.917969 25.613281 18.917969 25.847656 L 18.917969 27.082031 C 18.917969 27.328125 18.898438 27.523438 18.859375 27.660156 C 18.820312 27.796875 18.757812 27.917969 18.667969 28.03125 C 18.53125 28.210938 18.367188 28.34375 18.175781 28.433594 C 17.984375 28.519531 17.683594 28.5625 17.425781 28.5625 C 17.191406 28.5625 16.894531 28.515625 16.695312 28.421875 C 16.496094 28.332031 16.324219 28.195312 16.179688 28.015625 C 16.09375 27.914062 16.035156 27.789062 15.996094 27.640625 C 15.957031 27.496094 15.9375 27.308594 15.9375 27.074219 Z M 15.9375 25.835938 "/>
</g>
</svg>
