<?xml version="1.0" encoding="UTF-8"?>
<svg xmlns="http://www.w3.org/2000/svg" xmlns:xlink="http://www.w3.org/1999/xlink" width="32px" height="32px" viewBox="0 0 32 45" version="1.1">
<defs>
<clipPath id="clip1">
  <path d="M 0.289062 0.28125 L 32 0.28125 L 32 44.679688 L 0.289062 44.679688 Z M 0.289062 0.28125 "/>
</clipPath>
<clipPath id="clip2">
  <path d="M 1 0.28125 L 31 0.28125 L 31 41 L 1 41 Z M 1 0.28125 "/>
</clipPath>
<clipPath id="clip3">
  <path d="M 1 0.28125 L 31 0.28125 L 31 13 L 1 13 Z M 1 0.28125 "/>
</clipPath>
<clipPath id="clip4">
  <path d="M 0.289062 0.28125 L 32 0.28125 L 32 44.679688 L 0.289062 44.679688 Z M 0.289062 0.28125 "/>
</clipPath>
<clipPath id="clip5">
  <path d="M 0.285156 0.28125 L 2.691406 0.28125 L 2.691406 3.445312 L 0.285156 3.445312 Z M 0.285156 0.28125 "/>
</clipPath>
<clipPath id="clip6">
  <path d="M 1 0.28125 L 2.691406 0.28125 L 2.691406 3.445312 L 1 3.445312 Z M 1 0.28125 "/>
</clipPath>
<clipPath id="clip7">
  <path d="M 0.285156 0.28125 L 2.691406 0.28125 L 2.691406 3.445312 L 0.285156 3.445312 Z M 0.285156 0.28125 "/>
</clipPath>
</defs>
<g id="surface1">
<g clip-path="url(#clip1)" clip-rule="nonzero">
<path style=" stroke:none;fill-rule:nonzero;fill:rgb(100%,100%,100%);fill-opacity:1;" d="M 15.988281 44.679688 L 15.761719 44.554688 C 9.234375 40.941406 4.707031 35.851562 2.300781 29.421875 C 0.285156 24.03125 0.285156 18.972656 0.285156 16.8125 C 0.285156 11.773438 1.363281 5.121094 1.375 5.050781 L 1.414062 4.816406 C 1.414062 4.816406 1.824219 4.625 1.925781 4.582031 C 2.015625 3.871094 2.125 3.089844 2.125 3.089844 L 2.347656 2.984375 C 2.410156 2.953125 3.914062 2.242188 6.242188 1.59375 C 8.40625 0.996094 11.851562 0.277344 15.988281 0.277344 C 20.125 0.277344 23.570312 0.996094 25.734375 1.59375 C 28.0625 2.242188 29.5625 2.953125 29.625 2.984375 L 29.847656 3.089844 C 29.847656 3.089844 29.960938 3.871094 30.050781 4.582031 C 30.152344 4.625 30.5625 4.816406 30.5625 4.816406 L 30.601562 5.050781 C 30.613281 5.121094 31.691406 11.773438 31.691406 16.8125 C 31.691406 18.972656 31.691406 24.03125 29.675781 29.421875 C 27.269531 35.851562 22.738281 40.941406 16.214844 44.554688 Z M 15.988281 44.679688 "/>
</g>
<g clip-path="url(#clip2)" clip-rule="nonzero">
<path style=" stroke:none;fill-rule:nonzero;fill:rgb(96.078431%,50.588235%,7.45098%);fill-opacity:1;" d="M 29.207031 3.546875 C 29.207031 3.546875 23.839844 0.96875 15.988281 0.96875 C 8.136719 0.96875 2.765625 3.546875 2.765625 3.546875 C 2.765625 3.546875 2.105469 8.210938 1.851562 12.589844 L 30.125 12.589844 C 29.871094 8.210938 29.207031 3.546875 29.207031 3.546875 M 15.988281 40.328125 C 26.71875 34.164062 29.363281 25.828125 30.011719 20.054688 L 1.964844 20.054688 C 2.613281 25.828125 5.257812 34.164062 15.988281 40.328125 "/>
</g>
<path style=" stroke:none;fill-rule:nonzero;fill:rgb(100%,100%,100%);fill-opacity:1;" d="M 15.878906 32.792969 L 16.179688 32.792969 L 15.878906 33.191406 Z M 16.875 32.980469 L 16.875 33.371094 L 16.578125 33.371094 Z M 14.691406 32.109375 L 14.691406 32.023438 L 14.101562 32.023438 L 14.058594 32.097656 L 13.886719 32.417969 L 13.777344 32.625 L 14.039062 32.625 L 14.039062 33.980469 L 14.691406 33.980469 L 14.691406 33.894531 C 14.761719 33.949219 14.835938 33.976562 14.929688 33.980469 L 15.511719 33.980469 C 15.597656 33.976562 15.671875 33.949219 15.742188 33.894531 L 15.742188 33.980469 L 17.015625 33.980469 L 17.015625 33.898438 C 17.082031 33.949219 17.160156 33.976562 17.246094 33.980469 L 17.828125 33.980469 C 17.925781 33.976562 18.007812 33.941406 18.085938 33.875 C 18.160156 33.804688 18.195312 33.722656 18.195312 33.617188 L 18.195312 33.054688 C 18.195312 32.957031 18.164062 32.875 18.09375 32.804688 L 18.195312 32.804688 L 18.195312 32.382812 C 18.195312 32.28125 18.160156 32.195312 18.082031 32.125 C 18.007812 32.058594 17.925781 32.023438 17.824219 32.023438 L 17.242188 32.023438 C 17.144531 32.023438 17.0625 32.058594 16.984375 32.128906 C 16.96875 32.140625 16.957031 32.15625 16.945312 32.171875 C 16.933594 32.15625 16.921875 32.140625 16.90625 32.125 C 16.832031 32.058594 16.746094 32.023438 16.648438 32.023438 L 16.109375 32.023438 C 16.011719 32.023438 15.929688 32.058594 15.851562 32.128906 C 15.835938 32.140625 15.824219 32.15625 15.8125 32.171875 C 15.796875 32.15625 15.78125 32.140625 15.765625 32.125 C 15.691406 32.058594 15.609375 32.023438 15.507812 32.023438 L 14.925781 32.023438 C 14.835938 32.023438 14.761719 32.050781 14.691406 32.109375 M 14.984375 29.546875 C 15.179688 29.527344 15.371094 29.507812 15.558594 29.496094 C 18.269531 29.300781 20.433594 29.789062 21.175781 31.050781 C 21.925781 32.335938 20.539062 34.753906 17.964844 35.621094 C 17.953125 35.625 17.941406 35.628906 17.929688 35.632812 C 17.863281 35.65625 17.792969 35.679688 17.722656 35.699219 C 17.664062 35.714844 17.605469 35.730469 17.542969 35.746094 C 17.519531 35.753906 17.492188 35.761719 17.464844 35.765625 C 17.375 35.789062 17.28125 35.808594 17.191406 35.828125 C 17.1875 35.828125 17.183594 35.828125 17.179688 35.828125 C 16.863281 35.890625 16.53125 35.925781 16.1875 35.9375 C 16.121094 35.941406 16.054688 35.941406 15.988281 35.941406 C 14.898438 35.941406 13.875 35.578125 12.972656 34.9375 C 11.820312 34.082031 11.152344 32.890625 11.097656 32.179688 C 11.011719 31.074219 10.972656 30.175781 15.347656 28.910156 C 16.558594 28.582031 17.222656 28.53125 17.945312 28.414062 C 18.851562 28.269531 20.214844 27.976562 21.152344 27.1875 C 21.152344 27.1875 21.496094 27.144531 21.566406 27.113281 C 21.65625 27.078125 21.707031 26.699219 21.65625 26.636719 C 21.597656 26.5625 21.050781 25.796875 19.441406 25.148438 C 18.25 24.664062 16.277344 24.117188 13.878906 24.117188 C 13.503906 24.117188 13.410156 24.117188 12.855469 23.941406 C 12.683594 23.886719 12.398438 23.804688 12.054688 23.730469 C 13.167969 22.953125 14.523438 22.496094 15.988281 22.496094 C 19.636719 22.496094 22.617188 25.320312 22.804688 28.867188 C 20.941406 28.632812 17.464844 28.886719 14.984375 29.546875 M 23.382812 28.996094 C 23.328125 28.976562 23.273438 28.957031 23.210938 28.941406 C 23.136719 25.078125 19.925781 21.960938 15.988281 21.960938 C 14.238281 21.960938 12.628906 22.578125 11.378906 23.601562 C 10.722656 23.5 9.976562 23.460938 9.339844 23.601562 C 9.207031 23.632812 8.984375 23.730469 9.292969 24.121094 L 9.785156 24.742188 C 9.828125 24.800781 9.886719 24.988281 9.699219 24.988281 C 9.511719 24.988281 8.722656 24.941406 8.640625 25.023438 C 8.011719 25.640625 7.3125 27.089844 7.3125 28.898438 C 7.3125 29.40625 7.410156 29.929688 7.59375 30.453125 C 7.59375 30.453125 7.664062 30.636719 7.695312 30.722656 C 9.003906 34.003906 12.1875 36.210938 15.988281 36.210938 C 18.730469 36.210938 21.136719 35.042969 22.765625 33.175781 C 23.167969 32.710938 23.523438 32.203125 23.828125 31.660156 C 24.4375 30.402344 24.269531 29.34375 23.382812 28.996094 "/>
<g clip-path="url(#clip3)" clip-rule="nonzero">
<path style=" stroke:none;fill-rule:nonzero;fill:rgb(100%,100%,100%);fill-opacity:1;" d="M 30.125 12.589844 C 29.867188 8.210938 29.207031 3.546875 29.207031 3.546875 C 29.207031 3.546875 23.839844 0.96875 15.988281 0.96875 C 13.71875 0.96875 11.660156 1.183594 9.871094 1.488281 C 9.878906 1.511719 9.894531 1.585938 9.917969 1.714844 C 9.96875 1.972656 10.046875 2.445312 10.105469 3.085938 C 8.425781 3.242188 6.1875 3.347656 3.214844 3.351562 C 2.921875 3.472656 2.765625 3.546875 2.765625 3.546875 C 2.765625 3.546875 2.765625 3.558594 2.761719 3.582031 C 2.761719 3.582031 2.761719 3.585938 2.761719 3.585938 C 2.699219 4.035156 2.09375 8.441406 1.851562 12.589844 Z M 30.125 12.589844 "/>
</g>
<g clip-path="url(#clip4)" clip-rule="nonzero">
<path style=" stroke:none;fill-rule:nonzero;fill:rgb(13.72549%,12.156863%,12.54902%);fill-opacity:1;" d="M 12.765625 6.527344 C 12.496094 5.945312 12.226562 5.363281 11.96875 4.78125 C 11.628906 5.429688 11.28125 6.078125 10.921875 6.722656 C 11.105469 6.648438 11.292969 6.578125 11.476562 6.503906 C 11.59375 6.601562 11.714844 6.699219 11.832031 6.796875 C 11.964844 6.671875 12.101562 6.546875 12.234375 6.421875 C 12.410156 6.457031 12.589844 6.492188 12.765625 6.527344 M 11.507812 9.519531 C 11.410156 9.433594 11.308594 9.351562 11.210938 9.265625 C 10.929688 9.386719 10.648438 9.503906 10.367188 9.621094 C 10.628906 9.691406 10.894531 9.761719 11.15625 9.832031 C 11.273438 9.726562 11.390625 9.625 11.507812 9.519531 M 11.332031 9.15625 C 11.429688 9.238281 11.527344 9.320312 11.625 9.402344 C 11.738281 9.300781 11.855469 9.195312 11.96875 9.09375 C 11.878906 8.894531 11.789062 8.695312 11.703125 8.5 C 11.578125 8.71875 11.453125 8.9375 11.332031 9.15625 M 12.363281 4.910156 C 12.621094 4.789062 12.878906 4.660156 13.136719 4.535156 C 12.886719 4.472656 12.640625 4.410156 12.394531 4.34375 C 12.289062 4.453125 12.183594 4.558594 12.074219 4.664062 C 12.167969 4.746094 12.265625 4.828125 12.363281 4.910156 M 10.449219 11.550781 C 10.648438 11.480469 10.847656 11.40625 11.046875 11.335938 C 11.171875 11.433594 11.296875 11.53125 11.425781 11.628906 C 11.570312 11.507812 11.71875 11.382812 11.863281 11.257812 C 12.050781 11.292969 12.242188 11.328125 12.429688 11.363281 C 12.148438 10.78125 11.875 10.199219 11.609375 9.613281 C 11.234375 10.261719 10.847656 10.90625 10.449219 11.550781 M 9.875 7.371094 C 9.5 8.011719 9.113281 8.648438 8.714844 9.28125 C 8.910156 9.214844 9.105469 9.148438 9.296875 9.078125 C 9.417969 9.183594 9.535156 9.28125 9.652344 9.382812 C 9.796875 9.265625 9.941406 9.144531 10.085938 9.023438 C 10.265625 9.0625 10.449219 9.101562 10.628906 9.144531 C 10.371094 8.554688 10.121094 7.964844 9.875 7.371094 M 11.722656 9.496094 C 11.824219 9.582031 11.925781 9.664062 12.027344 9.746094 C 12.308594 9.625 12.589844 9.5 12.867188 9.375 C 12.601562 9.3125 12.335938 9.246094 12.074219 9.183594 C 11.957031 9.289062 11.839844 9.390625 11.722656 9.496094 M 3.367188 9.464844 C 3.453125 9.558594 3.542969 9.652344 3.632812 9.742188 C 3.757812 9.652344 3.882812 9.5625 4.007812 9.472656 C 3.941406 9.265625 3.875 9.058594 3.8125 8.855469 C 3.664062 9.058594 3.515625 9.261719 3.367188 9.464844 M 6.003906 7.558594 C 5.589844 8.175781 5.167969 8.789062 4.730469 9.398438 C 4.933594 9.34375 5.128906 9.289062 5.328125 9.230469 C 5.441406 9.339844 5.554688 9.445312 5.667969 9.554688 C 5.816406 9.441406 5.96875 9.332031 6.117188 9.21875 C 6.296875 9.269531 6.476562 9.320312 6.65625 9.371094 C 6.433594 8.765625 6.214844 8.164062 6.003906 7.558594 M 3.71875 9.847656 C 3.808594 9.941406 3.898438 10.035156 3.992188 10.128906 C 4.285156 10.039062 4.578125 9.949219 4.867188 9.851562 C 4.609375 9.761719 4.355469 9.667969 4.101562 9.574219 C 3.972656 9.664062 3.84375 9.757812 3.71875 9.847656 M 7.726562 9.785156 C 7.824219 9.875 7.917969 9.964844 8.015625 10.050781 C 8.304688 9.945312 8.589844 9.835938 8.875 9.726562 C 8.613281 9.648438 8.351562 9.570312 8.09375 9.488281 C 7.972656 9.589844 7.847656 9.6875 7.726562 9.785156 M 12.296875 4.257812 C 12.207031 4.0625 12.121094 3.863281 12.035156 3.667969 C 11.925781 3.886719 11.816406 4.105469 11.703125 4.324219 C 11.796875 4.40625 11.890625 4.488281 11.980469 4.570312 C 12.085938 4.464844 12.191406 4.363281 12.296875 4.257812 M 6.335938 11.761719 C 6.539062 11.703125 6.742188 11.644531 6.945312 11.582031 C 7.066406 11.6875 7.183594 11.792969 7.304688 11.898438 C 7.457031 11.78125 7.609375 11.667969 7.761719 11.550781 C 7.949219 11.597656 8.136719 11.644531 8.324219 11.6875 C 8.078125 11.089844 7.839844 10.492188 7.605469 9.894531 C 7.191406 10.519531 6.769531 11.144531 6.335938 11.761719 M 4.804688 7.46875 C 5.054688 7.5625 5.300781 7.652344 5.550781 7.742188 C 5.671875 7.648438 5.792969 7.550781 5.914062 7.457031 C 5.824219 7.367188 5.734375 7.273438 5.644531 7.183594 C 5.367188 7.28125 5.085938 7.375 4.804688 7.46875 M 7.996094 9.394531 C 7.917969 9.191406 7.839844 8.992188 7.761719 8.789062 C 7.628906 9 7.492188 9.210938 7.355469 9.421875 C 7.445312 9.511719 7.542969 9.597656 7.636719 9.6875 C 7.753906 9.589844 7.875 9.492188 7.996094 9.394531 M 11.875 4.683594 C 11.78125 4.601562 11.6875 4.519531 11.59375 4.4375 C 11.332031 4.558594 11.074219 4.675781 10.8125 4.792969 C 11.058594 4.863281 11.304688 4.933594 11.554688 5 C 11.660156 4.894531 11.769531 4.792969 11.875 4.683594 M 4.894531 4.707031 C 4.832031 4.5 4.769531 4.292969 4.707031 4.089844 C 4.570312 4.296875 4.433594 4.5 4.296875 4.707031 C 4.378906 4.796875 4.464844 4.890625 4.546875 4.980469 C 4.664062 4.890625 4.777344 4.796875 4.894531 4.707031 M 4.886719 5.363281 C 5.15625 5.269531 5.429688 5.175781 5.699219 5.074219 C 5.460938 4.988281 5.21875 4.898438 4.984375 4.804688 C 4.867188 4.898438 4.746094 4.992188 4.628906 5.085938 C 4.714844 5.179688 4.800781 5.269531 4.886719 5.363281 M 6.390625 7.066406 C 6.320312 6.863281 6.25 6.660156 6.179688 6.457031 C 6.042969 6.664062 5.910156 6.875 5.773438 7.082031 C 5.859375 7.171875 5.949219 7.261719 6.035156 7.351562 C 6.15625 7.257812 6.273438 7.164062 6.390625 7.066406 M 4.425781 5.085938 C 4.34375 4.992188 4.257812 4.898438 4.175781 4.804688 C 3.902344 4.894531 3.628906 4.984375 3.355469 5.070312 C 3.59375 5.171875 3.832031 5.265625 4.070312 5.359375 C 4.1875 5.269531 4.308594 5.175781 4.425781 5.085938 M 3.503906 9.84375 C 3.410156 9.75 3.320312 9.65625 3.230469 9.5625 C 2.941406 9.648438 2.644531 9.734375 2.351562 9.816406 C 2.605469 9.917969 2.859375 10.019531 3.113281 10.117188 C 3.246094 10.027344 3.375 9.9375 3.503906 9.84375 M 4.136719 7.175781 C 4.289062 7.066406 4.433594 6.960938 4.582031 6.851562 C 4.753906 6.90625 4.925781 6.960938 5.097656 7.011719 C 4.894531 6.40625 4.699219 5.796875 4.507812 5.1875 C 4.097656 5.796875 3.675781 6.398438 3.242188 7 C 3.433594 6.949219 3.628906 6.898438 3.820312 6.847656 C 3.925781 6.957031 4.03125 7.066406 4.136719 7.175781 M 6.398438 7.726562 C 6.675781 7.625 6.953125 7.523438 7.234375 7.417969 C 6.980469 7.335938 6.730469 7.25 6.484375 7.164062 C 6.363281 7.261719 6.242188 7.355469 6.121094 7.453125 C 6.214844 7.542969 6.304688 7.632812 6.398438 7.726562 M 10.277344 7.515625 C 10.550781 7.398438 10.820312 7.28125 11.09375 7.164062 C 10.835938 7.09375 10.582031 7.023438 10.328125 6.953125 C 10.214844 7.054688 10.101562 7.15625 9.988281 7.257812 C 10.082031 7.34375 10.179688 7.429688 10.277344 7.515625 M 9.433594 7.578125 C 9.550781 7.476562 9.664062 7.375 9.78125 7.273438 C 9.683594 7.1875 9.589844 7.101562 9.496094 7.015625 C 9.222656 7.128906 8.949219 7.242188 8.675781 7.347656 C 8.925781 7.425781 9.179688 7.503906 9.433594 7.578125 M 10.230469 6.859375 C 10.148438 6.660156 10.066406 6.460938 9.984375 6.261719 C 9.863281 6.476562 9.738281 6.691406 9.613281 6.90625 C 9.707031 6.992188 9.800781 7.078125 9.894531 7.164062 C 10.007812 7.0625 10.121094 6.960938 10.230469 6.859375 M 2.210938 11.742188 C 2.417969 11.695312 2.625 11.648438 2.832031 11.597656 C 2.945312 11.710938 3.058594 11.820312 3.171875 11.933594 C 3.332031 11.828125 3.492188 11.71875 3.652344 11.613281 C 3.835938 11.667969 4.019531 11.726562 4.203125 11.78125 C 3.992188 11.171875 3.789062 10.5625 3.589844 9.949219 C 3.140625 10.550781 2.679688 11.148438 2.210938 11.742188 M 7.992188 7.09375 C 8.132812 6.980469 8.273438 6.863281 8.417969 6.746094 C 8.589844 6.789062 8.765625 6.835938 8.941406 6.878906 C 8.703125 6.28125 8.472656 5.6875 8.246094 5.089844 C 7.871094 5.71875 7.484375 6.347656 7.085938 6.96875 C 7.277344 6.910156 7.464844 6.847656 7.65625 6.785156 C 7.765625 6.886719 7.878906 6.992188 7.992188 7.09375 M 8.160156 4.992188 C 8.070312 4.902344 7.980469 4.8125 7.890625 4.722656 C 7.625 4.832031 7.359375 4.9375 7.089844 5.039062 C 7.332031 5.121094 7.574219 5.207031 7.816406 5.285156 C 7.933594 5.1875 8.046875 5.089844 8.160156 4.992188 M 8.601562 4.585938 C 8.527344 4.386719 8.453125 4.183594 8.378906 3.980469 C 8.253906 4.195312 8.132812 4.40625 8.007812 4.621094 C 8.09375 4.707031 8.183594 4.792969 8.269531 4.882812 C 8.382812 4.785156 8.492188 4.683594 8.601562 4.585938 M 8.628906 5.242188 C 8.898438 5.132812 9.160156 5.023438 9.425781 4.910156 C 9.183594 4.835938 8.9375 4.757812 8.695312 4.679688 C 8.585938 4.78125 8.472656 4.878906 8.359375 4.980469 C 8.449219 5.066406 8.539062 5.15625 8.628906 5.242188 M 6.363281 9.832031 C 6.621094 9.917969 6.882812 10.003906 7.140625 10.085938 C 7.265625 9.992188 7.390625 9.890625 7.511719 9.792969 C 7.417969 9.707031 7.320312 9.617188 7.226562 9.527344 C 6.941406 9.628906 6.652344 9.730469 6.363281 9.832031 M 16.875 33.371094 L 16.578125 33.371094 L 16.875 32.980469 Z M 16.875 33.839844 L 15.882812 33.839844 L 15.882812 33.417969 L 16.464844 32.652344 L 16.464844 32.488281 L 16.296875 32.488281 L 16.296875 32.652344 L 15.882812 32.652344 L 15.882812 32.382812 C 15.886719 32.316406 15.90625 32.269531 15.953125 32.230469 C 16 32.183594 16.050781 32.164062 16.113281 32.160156 L 16.644531 32.160156 C 16.707031 32.164062 16.761719 32.183594 16.808594 32.230469 C 16.855469 32.269531 16.875 32.316406 16.875 32.382812 L 16.875 32.75 L 16.296875 33.511719 L 16.875 33.511719 Z M 15.878906 32.792969 L 16.179688 32.792969 L 15.878906 33.191406 Z M 15.738281 33.617188 C 15.738281 33.683594 15.714844 33.730469 15.671875 33.773438 C 15.621094 33.816406 15.570312 33.839844 15.507812 33.839844 L 14.929688 33.839844 C 14.867188 33.839844 14.816406 33.816406 14.765625 33.773438 C 14.722656 33.730469 14.703125 33.683594 14.699219 33.617188 L 14.699219 33.332031 L 15.089844 33.332031 L 15.089844 33.519531 L 15.324219 33.519531 L 15.324219 33.167969 L 14.929688 33.167969 C 14.867188 33.164062 14.816406 33.144531 14.765625 33.101562 C 14.722656 33.058594 14.703125 33.011719 14.699219 32.945312 L 14.699219 32.382812 C 14.703125 32.316406 14.722656 32.269531 14.765625 32.230469 C 14.816406 32.183594 14.867188 32.164062 14.929688 32.160156 L 15.507812 32.160156 C 15.570312 32.164062 15.621094 32.183594 15.671875 32.230469 C 15.714844 32.269531 15.738281 32.316406 15.738281 32.382812 Z M 14.550781 33.839844 L 14.179688 33.839844 L 14.179688 32.484375 L 14.011719 32.484375 L 14.1875 32.160156 L 14.550781 32.160156 Z M 17.019531 32.382812 C 17.019531 32.316406 17.039062 32.269531 17.082031 32.230469 C 17.132812 32.183594 17.183594 32.164062 17.246094 32.160156 L 17.824219 32.160156 C 17.886719 32.164062 17.9375 32.183594 17.988281 32.230469 C 18.03125 32.269531 18.054688 32.316406 18.054688 32.382812 L 18.054688 32.667969 L 17.667969 32.667969 L 17.667969 32.484375 L 17.429688 32.484375 L 17.429688 32.835938 L 17.824219 32.835938 C 17.886719 32.835938 17.9375 32.855469 17.988281 32.898438 C 18.03125 32.941406 18.054688 32.988281 18.054688 33.058594 L 18.054688 33.617188 C 18.054688 33.683594 18.03125 33.730469 17.988281 33.773438 C 17.9375 33.816406 17.886719 33.839844 17.824219 33.839844 L 17.246094 33.839844 C 17.183594 33.839844 17.132812 33.816406 17.082031 33.773438 C 17.039062 33.730469 17.019531 33.683594 17.019531 33.617188 Z M 17.015625 33.902344 C 17.085938 33.949219 17.160156 33.976562 17.246094 33.980469 L 17.828125 33.980469 C 17.925781 33.976562 18.007812 33.941406 18.085938 33.875 C 18.160156 33.804688 18.195312 33.722656 18.195312 33.617188 L 18.195312 33.054688 C 18.195312 32.957031 18.164062 32.875 18.09375 32.808594 L 18.195312 32.808594 L 18.195312 32.382812 C 18.195312 32.28125 18.160156 32.195312 18.082031 32.125 C 18.007812 32.058594 17.925781 32.023438 17.824219 32.023438 L 17.242188 32.023438 C 17.144531 32.023438 17.0625 32.058594 16.984375 32.128906 C 16.972656 32.140625 16.957031 32.15625 16.945312 32.167969 C 16.933594 32.152344 16.921875 32.140625 16.90625 32.125 C 16.828125 32.058594 16.746094 32.023438 16.644531 32.023438 L 16.109375 32.023438 C 16.011719 32.023438 15.929688 32.058594 15.851562 32.128906 C 15.835938 32.140625 15.824219 32.15625 15.8125 32.171875 C 15.796875 32.15625 15.785156 32.140625 15.765625 32.125 C 15.691406 32.058594 15.609375 32.023438 15.507812 32.023438 L 14.925781 32.023438 C 14.839844 32.023438 14.761719 32.050781 14.691406 32.109375 L 14.691406 32.023438 L 14.101562 32.023438 L 14.0625 32.097656 L 13.886719 32.421875 L 13.777344 32.625 L 14.039062 32.625 L 14.039062 33.980469 L 14.691406 33.980469 L 14.691406 33.894531 C 14.757812 33.949219 14.839844 33.976562 14.929688 33.980469 L 15.511719 33.980469 C 15.597656 33.976562 15.671875 33.949219 15.742188 33.894531 L 15.742188 33.980469 L 17.015625 33.980469 Z M 17.667969 33.160156 L 17.429688 33.160156 L 17.429688 33.511719 L 17.667969 33.511719 Z M 15.089844 32.84375 L 15.324219 32.84375 L 15.324219 32.492188 L 15.089844 32.492188 Z M 17.769531 26.316406 C 18.804688 26.632812 19.195312 26.234375 19.21875 26.113281 C 19.242188 25.996094 19.273438 25.785156 18.707031 25.492188 C 18.59375 25.433594 18.414062 25.355469 18.320312 25.335938 C 18.210938 25.3125 17.679688 25.273438 17.941406 25.523438 C 18.152344 25.722656 18.4375 25.964844 18.351562 26.046875 C 18.273438 26.128906 17.882812 26.21875 17.382812 26.007812 C 16.839844 25.777344 16.804688 25.496094 16.804688 25.496094 C 16.804688 25.496094 16.738281 25.996094 17.769531 26.316406 M 11.863281 28.125 C 12.683594 28.257812 12.902344 28.1875 13.292969 27.886719 C 13.683594 27.585938 14.652344 26.570312 14.652344 26.570312 C 14.652344 26.570312 13.941406 27.0625 13.386719 27.378906 C 12.832031 27.695312 12.582031 27.679688 12.480469 27.679688 C 12.378906 27.679688 11.308594 27.472656 10.933594 27.363281 C 10.554688 27.253906 10.605469 27.03125 11.011719 26.878906 C 12.402344 26.351562 14.527344 26.214844 14.527344 26.214844 C 11.996094 26.023438 10.464844 26.554688 9.828125 26.855469 C 9.195312 27.15625 9.421875 27.488281 9.742188 27.609375 C 10.0625 27.734375 11.042969 27.996094 11.863281 28.125 M 11.816406 25.136719 C 14.980469 24.132812 18.175781 24.71875 19.34375 25.160156 C 20.527344 25.605469 21.160156 26.308594 21.269531 26.582031 C 21.320312 26.703125 21.222656 26.925781 21.164062 26.945312 C 20.917969 27.042969 20.136719 27.214844 19.3125 27.304688 C 19.792969 27.304688 21.152344 27.1875 21.152344 27.1875 C 21.152344 27.1875 21.496094 27.144531 21.570312 27.113281 C 21.65625 27.078125 21.707031 26.699219 21.652344 26.632812 C 21.59375 26.5625 21.050781 25.796875 19.441406 25.148438 C 18.25 24.664062 16.277344 24.113281 13.878906 24.113281 C 13.503906 24.113281 13.410156 24.117188 12.855469 23.941406 C 12.683594 23.886719 12.398438 23.804688 12.054688 23.726562 C 13.164062 22.953125 14.523438 22.496094 15.988281 22.496094 C 19.636719 22.496094 22.617188 25.320312 22.804688 28.871094 C 20.941406 28.632812 17.464844 28.886719 14.984375 29.546875 C 18.148438 29.210938 20.972656 29.628906 21.738281 31.0625 C 22.640625 32.761719 20.46875 34.792969 19.226562 35.359375 C 17.980469 35.929688 17.1875 36.121094 15.984375 36.121094 C 14.785156 36.121094 12.027344 35.726562 9.679688 33.097656 C 8.285156 31.535156 6.746094 26.742188 11.816406 25.136719 M 7.59375 30.453125 C 7.59375 30.453125 7.664062 30.640625 7.699219 30.722656 C 9.003906 34.003906 12.1875 36.210938 15.988281 36.210938 C 18.730469 36.210938 21.136719 35.042969 22.765625 33.175781 C 23.167969 32.710938 23.523438 32.203125 23.828125 31.660156 C 24.4375 30.40625 24.269531 29.34375 23.382812 28.996094 C 23.328125 28.976562 23.273438 28.957031 23.210938 28.941406 C 23.132812 25.078125 19.925781 21.960938 15.988281 21.960938 C 14.238281 21.960938 12.628906 22.578125 11.378906 23.601562 C 10.722656 23.503906 9.976562 23.460938 9.339844 23.601562 C 9.207031 23.632812 8.984375 23.730469 9.292969 24.121094 L 9.78125 24.742188 C 9.832031 24.800781 9.886719 24.988281 9.699219 24.988281 C 9.511719 24.988281 8.722656 24.941406 8.640625 25.023438 C 8.011719 25.640625 7.3125 27.089844 7.3125 28.894531 C 7.3125 29.40625 7.410156 29.933594 7.59375 30.453125 M 14.984375 29.546875 C 15.175781 29.527344 15.371094 29.511719 15.558594 29.496094 C 15.367188 29.511719 15.175781 29.527344 14.984375 29.546875 M 17.300781 27.832031 C 16.929688 27.765625 16.699219 27.636719 16.464844 27.464844 C 15.445312 26.691406 14.996094 25.824219 15.109375 25.597656 C 15.339844 25.136719 16.632812 25.160156 16.632812 25.160156 C 16.632812 25.160156 15.929688 25.097656 15.183594 25.265625 C 14.609375 25.398438 14.558594 25.730469 14.648438 25.992188 C 14.734375 26.238281 15.0625 26.855469 15.609375 27.441406 C 15.714844 27.550781 15.636719 27.632812 15.519531 27.664062 C 15.304688 27.71875 10.230469 29.269531 9.914062 30.851562 C 9.496094 32.945312 12.34375 35.941406 15.988281 35.941406 C 14.898438 35.941406 13.875 35.578125 12.972656 34.9375 C 11.820312 34.082031 11.152344 32.890625 11.097656 32.179688 C 11.011719 31.074219 10.96875 30.175781 15.347656 28.90625 C 16.558594 28.582031 17.222656 28.53125 17.945312 28.414062 C 18.851562 28.269531 20.214844 27.976562 21.152344 27.1875 C 19.75 28.210938 17.742188 27.910156 17.300781 27.832031 M 15.988281 40.328125 C 5.257812 34.164062 2.613281 25.828125 1.964844 20.054688 L 30.011719 20.054688 C 29.363281 25.828125 26.71875 34.164062 15.988281 40.328125 M 2.761719 3.582031 C 2.871094 3.582031 2.980469 3.582031 3.085938 3.582031 C 7.855469 3.582031 10.769531 3.320312 12.515625 3.007812 C 13.390625 2.855469 13.972656 2.691406 14.351562 2.539062 C 14.441406 2.5 14.519531 2.464844 14.589844 2.433594 C 14.152344 3.511719 13.078125 6.691406 13.078125 11.808594 C 13.078125 11.894531 13.078125 11.988281 13.082031 12.078125 L 19.863281 12.078125 C 20.304688 11.976562 20.753906 11.878906 21.210938 11.789062 C 25.523438 10.941406 28.824219 10.886719 30.007812 10.902344 C 29.960938 10.300781 29.90625 9.703125 29.855469 9.128906 C 29.960938 10.238281 30.054688 11.425781 30.125 12.589844 L 1.851562 12.589844 C 2.09375 8.429688 2.703125 4.011719 2.761719 3.582031 M 3.207031 3.355469 C 3.175781 3.367188 3.144531 3.378906 3.113281 3.394531 C 3.144531 3.378906 3.175781 3.367188 3.207031 3.355469 M 9.875 1.488281 C 9.878906 1.511719 9.894531 1.585938 9.917969 1.714844 C 9.96875 1.972656 10.046875 2.445312 10.105469 3.085938 C 8.425781 3.242188 6.1875 3.347656 3.214844 3.351562 C 4.15625 2.957031 6.527344 2.0625 9.875 1.488281 M 11.613281 1.234375 C 11.160156 1.289062 10.71875 1.351562 10.292969 1.417969 C 10.71875 1.351562 11.160156 1.289062 11.613281 1.234375 M 14.265625 2.324219 C 13.667969 2.5625 12.488281 2.851562 10.339844 3.0625 C 10.273438 2.324219 10.179688 1.804688 10.132812 1.570312 C 11.699219 1.578125 12.867188 1.6875 13.648438 1.8125 C 14.046875 1.878906 14.347656 1.949219 14.539062 2.011719 C 14.617188 2.039062 14.675781 2.0625 14.714844 2.082031 C 14.644531 2.140625 14.5 2.230469 14.265625 2.324219 M 21.101562 2.433594 C 26.40625 2.433594 29.1875 3.539062 29.207031 3.546875 C 29.207031 3.546875 29.5625 6.058594 29.855469 9.128906 C 29.835938 8.933594 29.816406 8.746094 29.796875 8.558594 C 28.859375 8.476562 26.25 8.34375 22.117188 8.890625 C 18.375 9.382812 14.839844 10.535156 13.324219 11.070312 C 13.34375 10.15625 13.394531 9.304688 13.472656 8.527344 C 14.59375 8.121094 17.125 7.324219 20.65625 6.894531 C 25.6875 6.285156 29.074219 6.765625 29.617188 6.851562 C 29.53125 6.058594 29.445312 5.363281 29.375 4.816406 C 28.886719 4.667969 26.105469 3.917969 21.292969 4.199219 C 17.9375 4.394531 15.230469 5.050781 13.953125 5.414062 C 14.019531 5.113281 14.085938 4.832031 14.152344 4.570312 C 14.316406 3.929688 14.480469 3.414062 14.621094 3.023438 C 16.042969 2.746094 18.257812 2.433594 21.101562 2.433594 M 30.144531 5.125 C 29.972656 5.046875 29.621094 4.890625 29.621094 4.890625 C 29.519531 4.050781 29.425781 3.394531 29.425781 3.394531 C 29.425781 3.394531 27.925781 2.675781 25.605469 2.035156 C 23.472656 1.441406 20.070312 0.734375 15.988281 0.734375 C 11.90625 0.734375 8.503906 1.441406 6.367188 2.035156 C 4.050781 2.675781 2.550781 3.394531 2.550781 3.394531 C 2.550781 3.394531 2.457031 4.050781 2.351562 4.890625 C 2.351562 4.890625 2.003906 5.046875 1.828125 5.125 C 1.828125 5.125 0.746094 11.753906 0.746094 16.8125 C 0.746094 21.875 0.96875 35.84375 15.988281 44.15625 C 31.007812 35.84375 31.230469 21.875 31.230469 16.8125 C 31.230469 11.753906 30.144531 5.125 30.144531 5.125 "/>
</g>
<path style=" stroke:none;fill-rule:nonzero;fill:rgb(100%,100%,100%);fill-opacity:1;" d="M 7.503906 14.105469 C 7.363281 13.980469 7.21875 13.921875 7.039062 13.917969 L 5.738281 13.917969 C 5.558594 13.921875 5.410156 13.980469 5.269531 14.105469 C 5.144531 14.226562 5.085938 14.363281 5.082031 14.550781 L 5.082031 18.078125 C 5.085938 18.269531 5.144531 18.40625 5.269531 18.523438 C 5.410156 18.648438 5.558594 18.707031 5.738281 18.714844 L 7.039062 18.714844 C 7.21875 18.707031 7.363281 18.648438 7.503906 18.523438 C 7.632812 18.40625 7.691406 18.269531 7.691406 18.078125 L 7.691406 16.980469 L 6.714844 16.980469 L 6.714844 17.847656 C 6.714844 17.886719 6.699219 17.925781 6.671875 17.953125 C 6.640625 17.980469 6.601562 17.996094 6.5625 17.996094 L 6.230469 17.996094 C 6.191406 17.996094 6.152344 17.980469 6.121094 17.953125 C 6.09375 17.925781 6.078125 17.886719 6.078125 17.847656 L 6.078125 14.777344 C 6.078125 14.738281 6.09375 14.699219 6.125 14.671875 C 6.152344 14.644531 6.191406 14.625 6.230469 14.625 L 6.5625 14.625 C 6.605469 14.625 6.640625 14.640625 6.671875 14.671875 C 6.699219 14.699219 6.714844 14.734375 6.714844 14.777344 L 6.714844 15.65625 L 7.691406 15.65625 L 7.691406 14.550781 C 7.691406 14.363281 7.632812 14.226562 7.503906 14.105469 Z M 27.59375 13.917969 L 27.59375 14.625 L 28.089844 14.625 C 28.132812 14.625 28.167969 14.640625 28.199219 14.671875 C 28.226562 14.699219 28.242188 14.734375 28.242188 14.773438 L 28.242188 18.714844 L 29.179688 18.714844 L 29.179688 14.773438 C 29.179688 14.734375 29.195312 14.699219 29.222656 14.671875 C 29.253906 14.640625 29.289062 14.625 29.332031 14.625 L 29.828125 14.625 L 29.828125 13.917969 Z M 21.375 18.714844 L 23.582031 18.714844 L 23.582031 18.003906 L 22.519531 18.003906 C 22.4375 18.003906 22.371094 17.941406 22.371094 17.859375 L 22.371094 16.832031 C 22.371094 16.75 22.4375 16.683594 22.519531 16.683594 L 23.582031 16.683594 L 23.582031 15.953125 L 22.519531 15.953125 C 22.4375 15.953125 22.371094 15.886719 22.371094 15.804688 L 22.371094 14.773438 C 22.371094 14.691406 22.4375 14.625 22.519531 14.625 L 23.582031 14.625 L 23.582031 13.917969 L 21.375 13.917969 Z M 19.652344 18.714844 L 20.632812 18.714844 L 20.632812 13.917969 L 19.652344 13.917969 Z M 26.746094 14.105469 C 26.605469 13.980469 26.457031 13.921875 26.28125 13.917969 L 24.324219 13.917969 L 24.324219 18.714844 L 25.320312 18.714844 L 25.320312 14.777344 C 25.320312 14.738281 25.335938 14.699219 25.367188 14.671875 C 25.394531 14.644531 25.433594 14.625 25.472656 14.625 L 25.804688 14.625 C 25.84375 14.625 25.882812 14.640625 25.910156 14.671875 C 25.941406 14.699219 25.957031 14.734375 25.957031 14.777344 L 25.957031 18.714844 L 26.933594 18.714844 L 26.933594 14.550781 C 26.933594 14.363281 26.871094 14.226562 26.746094 14.105469 Z M 14.554688 17.847656 C 14.554688 17.886719 14.539062 17.925781 14.511719 17.953125 C 14.480469 17.980469 14.441406 17.996094 14.402344 17.996094 L 14.070312 17.996094 C 14.03125 17.996094 13.992188 17.980469 13.960938 17.953125 C 13.933594 17.925781 13.917969 17.886719 13.917969 17.847656 L 13.917969 14.777344 C 13.917969 14.738281 13.933594 14.699219 13.960938 14.671875 C 13.992188 14.644531 14.03125 14.625 14.070312 14.625 L 14.402344 14.625 C 14.441406 14.625 14.480469 14.640625 14.511719 14.671875 C 14.539062 14.699219 14.550781 14.734375 14.554688 14.777344 Z M 15.34375 14.105469 C 15.203125 13.980469 15.054688 13.921875 14.878906 13.917969 L 13.578125 13.917969 C 13.398438 13.921875 13.25 13.980469 13.109375 14.105469 C 12.984375 14.226562 12.925781 14.363281 12.921875 14.550781 L 12.921875 18.078125 C 12.925781 18.269531 12.984375 18.40625 13.109375 18.523438 C 13.25 18.648438 13.398438 18.707031 13.578125 18.714844 L 14.878906 18.714844 C 15.054688 18.707031 15.203125 18.648438 15.34375 18.523438 C 15.46875 18.40625 15.53125 18.269531 15.53125 18.078125 L 15.53125 14.550781 C 15.53125 14.363281 15.46875 14.226562 15.34375 14.105469 Z M 17.882812 15.804688 C 17.882812 15.84375 17.867188 15.882812 17.835938 15.910156 C 17.808594 15.9375 17.769531 15.953125 17.730469 15.953125 L 17.398438 15.953125 C 17.359375 15.953125 17.320312 15.9375 17.292969 15.910156 C 17.261719 15.878906 17.246094 15.84375 17.246094 15.804688 L 17.246094 14.777344 C 17.246094 14.738281 17.261719 14.699219 17.292969 14.671875 C 17.320312 14.644531 17.359375 14.625 17.398438 14.625 L 17.730469 14.625 C 17.769531 14.625 17.808594 14.640625 17.835938 14.671875 C 17.867188 14.699219 17.882812 14.734375 17.882812 14.777344 Z M 18.492188 16.546875 C 18.578125 16.480469 18.609375 16.457031 18.722656 16.363281 C 18.839844 16.265625 18.910156 16.109375 18.910156 15.917969 L 18.910156 14.546875 C 18.910156 14.359375 18.847656 14.222656 18.722656 14.105469 C 18.582031 13.980469 18.433594 13.921875 18.253906 13.914062 L 16.273438 13.914062 L 16.273438 18.714844 L 17.246094 18.714844 L 17.246094 17.175781 C 17.246094 17.105469 17.296875 17.042969 17.371094 17.027344 C 17.378906 17.027344 17.390625 17.027344 17.398438 17.027344 C 17.460938 17.027344 17.515625 17.0625 17.539062 17.121094 L 18.148438 18.714844 L 19.082031 18.714844 L 18.410156 16.957031 C 18.332031 16.773438 18.390625 16.625 18.492188 16.546875 M 11.136719 17.941406 C 11.109375 17.914062 11.09375 17.875 11.09375 17.835938 L 11.09375 13.917969 L 10.078125 13.917969 L 10.078125 18.714844 L 12.261719 18.714844 L 12.265625 17.988281 L 11.242188 17.988281 C 11.203125 17.988281 11.164062 17.972656 11.136719 17.941406 M 2.136719 18.714844 L 3.128906 18.714844 L 3.128906 16.832031 C 3.128906 16.75 3.195312 16.683594 3.277344 16.683594 L 4.339844 16.683594 L 4.339844 15.953125 L 3.277344 15.953125 C 3.238281 15.953125 3.199219 15.9375 3.171875 15.910156 C 3.144531 15.878906 3.128906 15.84375 3.128906 15.800781 L 3.128906 14.773438 C 3.128906 14.691406 3.195312 14.625 3.277344 14.625 L 4.339844 14.625 L 4.339844 13.917969 L 2.136719 13.917969 Z M 2.136719 18.714844 "/>
<g clip-path="url(#clip5)" clip-rule="nonzero">
<path style=" stroke:none;fill-rule:nonzero;fill:rgb(100%,100%,100%);fill-opacity:1;" d="M 15.988281 44.679688 L 15.761719 44.554688 C 9.234375 40.941406 4.707031 35.851562 2.300781 29.421875 C 0.285156 24.03125 0.285156 18.972656 0.285156 16.8125 C 0.285156 11.773438 1.363281 5.121094 1.375 5.050781 L 1.414062 4.816406 C 1.414062 4.816406 1.824219 4.625 1.925781 4.582031 C 2.015625 3.871094 2.125 3.089844 2.125 3.089844 L 2.347656 2.984375 C 2.410156 2.953125 3.914062 2.242188 6.242188 1.59375 C 8.40625 0.996094 11.851562 0.277344 15.988281 0.277344 C 20.125 0.277344 23.570312 0.996094 25.734375 1.59375 C 28.0625 2.242188 29.5625 2.953125 29.625 2.984375 L 29.847656 3.089844 C 29.847656 3.089844 29.960938 3.871094 30.050781 4.582031 C 30.152344 4.625 30.5625 4.816406 30.5625 4.816406 L 30.601562 5.050781 C 30.613281 5.121094 31.691406 11.773438 31.691406 16.8125 C 31.691406 18.972656 31.691406 24.03125 29.675781 29.421875 C 27.269531 35.851562 22.738281 40.941406 16.214844 44.554688 Z M 15.988281 44.679688 "/>
</g>
<g clip-path="url(#clip6)" clip-rule="nonzero">
<path style=" stroke:none;fill-rule:nonzero;fill:rgb(96.078431%,50.588235%,7.45098%);fill-opacity:1;" d="M 29.207031 3.546875 C 29.207031 3.546875 23.839844 0.96875 15.988281 0.96875 C 8.136719 0.96875 2.765625 3.546875 2.765625 3.546875 C 2.765625 3.546875 2.105469 8.210938 1.851562 12.589844 L 30.125 12.589844 C 29.871094 8.210938 29.207031 3.546875 29.207031 3.546875 M 15.988281 40.328125 C 26.71875 34.164062 29.363281 25.828125 30.011719 20.054688 L 1.964844 20.054688 C 2.613281 25.828125 5.257812 34.164062 15.988281 40.328125 "/>
<path style=" stroke:none;fill-rule:nonzero;fill:rgb(100%,100%,100%);fill-opacity:1;" d="M 30.125 12.589844 C 29.867188 8.210938 29.207031 3.546875 29.207031 3.546875 C 29.207031 3.546875 23.839844 0.96875 15.988281 0.96875 C 13.71875 0.96875 11.660156 1.183594 9.871094 1.488281 C 9.878906 1.511719 9.894531 1.585938 9.917969 1.714844 C 9.96875 1.972656 10.046875 2.445312 10.105469 3.085938 C 8.425781 3.242188 6.1875 3.347656 3.214844 3.351562 C 2.921875 3.472656 2.765625 3.546875 2.765625 3.546875 C 2.765625 3.546875 2.765625 3.558594 2.761719 3.582031 C 2.761719 3.582031 2.761719 3.585938 2.761719 3.585938 C 2.699219 4.035156 2.09375 8.441406 1.851562 12.589844 Z M 30.125 12.589844 "/>
</g>
<g clip-path="url(#clip7)" clip-rule="nonzero">
<path style=" stroke:none;fill-rule:nonzero;fill:rgb(13.72549%,12.156863%,12.54902%);fill-opacity:1;" d="M 12.765625 6.527344 C 12.496094 5.945312 12.226562 5.363281 11.96875 4.78125 C 11.628906 5.429688 11.28125 6.078125 10.921875 6.722656 C 11.105469 6.648438 11.292969 6.578125 11.476562 6.503906 C 11.59375 6.601562 11.714844 6.699219 11.832031 6.796875 C 11.964844 6.671875 12.101562 6.546875 12.234375 6.421875 C 12.410156 6.457031 12.589844 6.492188 12.765625 6.527344 M 11.507812 9.519531 C 11.410156 9.433594 11.308594 9.351562 11.210938 9.265625 C 10.929688 9.386719 10.648438 9.503906 10.367188 9.621094 C 10.628906 9.691406 10.894531 9.761719 11.15625 9.832031 C 11.273438 9.726562 11.390625 9.625 11.507812 9.519531 M 11.332031 9.15625 C 11.429688 9.238281 11.527344 9.320312 11.625 9.402344 C 11.738281 9.300781 11.855469 9.195312 11.96875 9.09375 C 11.878906 8.894531 11.789062 8.695312 11.703125 8.5 C 11.578125 8.71875 11.453125 8.9375 11.332031 9.15625 M 12.363281 4.910156 C 12.621094 4.789062 12.878906 4.660156 13.136719 4.535156 C 12.886719 4.472656 12.640625 4.410156 12.394531 4.34375 C 12.289062 4.453125 12.183594 4.558594 12.074219 4.664062 C 12.167969 4.746094 12.265625 4.828125 12.363281 4.910156 M 10.449219 11.550781 C 10.648438 11.480469 10.847656 11.40625 11.046875 11.335938 C 11.171875 11.433594 11.296875 11.53125 11.425781 11.628906 C 11.570312 11.507812 11.71875 11.382812 11.863281 11.257812 C 12.050781 11.292969 12.242188 11.328125 12.429688 11.363281 C 12.148438 10.78125 11.875 10.199219 11.609375 9.613281 C 11.234375 10.261719 10.847656 10.90625 10.449219 11.550781 M 9.875 7.371094 C 9.5 8.011719 9.113281 8.648438 8.714844 9.28125 C 8.910156 9.214844 9.105469 9.148438 9.296875 9.078125 C 9.417969 9.183594 9.535156 9.28125 9.652344 9.382812 C 9.796875 9.265625 9.941406 9.144531 10.085938 9.023438 C 10.265625 9.0625 10.449219 9.101562 10.628906 9.144531 C 10.371094 8.554688 10.121094 7.964844 9.875 7.371094 M 11.722656 9.496094 C 11.824219 9.582031 11.925781 9.664062 12.027344 9.746094 C 12.308594 9.625 12.589844 9.5 12.867188 9.375 C 12.601562 9.3125 12.335938 9.246094 12.074219 9.183594 C 11.957031 9.289062 11.839844 9.390625 11.722656 9.496094 M 3.367188 9.464844 C 3.453125 9.558594 3.542969 9.652344 3.632812 9.742188 C 3.757812 9.652344 3.882812 9.5625 4.007812 9.472656 C 3.941406 9.265625 3.875 9.058594 3.8125 8.855469 C 3.664062 9.058594 3.515625 9.261719 3.367188 9.464844 M 6.003906 7.558594 C 5.589844 8.175781 5.167969 8.789062 4.730469 9.398438 C 4.933594 9.34375 5.128906 9.289062 5.328125 9.230469 C 5.441406 9.339844 5.554688 9.445312 5.667969 9.554688 C 5.816406 9.441406 5.96875 9.332031 6.117188 9.21875 C 6.296875 9.269531 6.476562 9.320312 6.65625 9.371094 C 6.433594 8.765625 6.214844 8.164062 6.003906 7.558594 M 3.71875 9.847656 C 3.808594 9.941406 3.898438 10.035156 3.992188 10.128906 C 4.285156 10.039062 4.578125 9.949219 4.867188 9.851562 C 4.609375 9.761719 4.355469 9.667969 4.101562 9.574219 C 3.972656 9.664062 3.84375 9.757812 3.71875 9.847656 M 7.726562 9.785156 C 7.824219 9.875 7.917969 9.964844 8.015625 10.050781 C 8.304688 9.945312 8.589844 9.835938 8.875 9.726562 C 8.613281 9.648438 8.351562 9.570312 8.09375 9.488281 C 7.972656 9.589844 7.847656 9.6875 7.726562 9.785156 M 12.296875 4.257812 C 12.207031 4.0625 12.121094 3.863281 12.035156 3.667969 C 11.925781 3.886719 11.816406 4.105469 11.703125 4.324219 C 11.796875 4.40625 11.890625 4.488281 11.980469 4.570312 C 12.085938 4.464844 12.191406 4.363281 12.296875 4.257812 M 6.335938 11.761719 C 6.539062 11.703125 6.742188 11.644531 6.945312 11.582031 C 7.066406 11.6875 7.183594 11.792969 7.304688 11.898438 C 7.457031 11.78125 7.609375 11.667969 7.761719 11.550781 C 7.949219 11.597656 8.136719 11.644531 8.324219 11.6875 C 8.078125 11.089844 7.839844 10.492188 7.605469 9.894531 C 7.191406 10.519531 6.769531 11.144531 6.335938 11.761719 M 4.804688 7.46875 C 5.054688 7.5625 5.300781 7.652344 5.550781 7.742188 C 5.671875 7.648438 5.792969 7.550781 5.914062 7.457031 C 5.824219 7.367188 5.734375 7.273438 5.644531 7.183594 C 5.367188 7.28125 5.085938 7.375 4.804688 7.46875 M 7.996094 9.394531 C 7.917969 9.191406 7.839844 8.992188 7.761719 8.789062 C 7.628906 9 7.492188 9.210938 7.355469 9.421875 C 7.445312 9.511719 7.542969 9.597656 7.636719 9.6875 C 7.753906 9.589844 7.875 9.492188 7.996094 9.394531 M 11.875 4.683594 C 11.78125 4.601562 11.6875 4.519531 11.59375 4.4375 C 11.332031 4.558594 11.074219 4.675781 10.8125 4.792969 C 11.058594 4.863281 11.304688 4.933594 11.554688 5 C 11.660156 4.894531 11.769531 4.792969 11.875 4.683594 M 4.894531 4.707031 C 4.832031 4.5 4.769531 4.292969 4.707031 4.089844 C 4.570312 4.296875 4.433594 4.5 4.296875 4.707031 C 4.378906 4.796875 4.464844 4.890625 4.546875 4.980469 C 4.664062 4.890625 4.777344 4.796875 4.894531 4.707031 M 4.886719 5.363281 C 5.15625 5.269531 5.429688 5.175781 5.699219 5.074219 C 5.460938 4.988281 5.21875 4.898438 4.984375 4.804688 C 4.867188 4.898438 4.746094 4.992188 4.628906 5.085938 C 4.714844 5.179688 4.800781 5.269531 4.886719 5.363281 M 6.390625 7.066406 C 6.320312 6.863281 6.25 6.660156 6.179688 6.457031 C 6.042969 6.664062 5.910156 6.875 5.773438 7.082031 C 5.859375 7.171875 5.949219 7.261719 6.035156 7.351562 C 6.15625 7.257812 6.273438 7.164062 6.390625 7.066406 M 4.425781 5.085938 C 4.34375 4.992188 4.257812 4.898438 4.175781 4.804688 C 3.902344 4.894531 3.628906 4.984375 3.355469 5.070312 C 3.59375 5.171875 3.832031 5.265625 4.070312 5.359375 C 4.1875 5.269531 4.308594 5.175781 4.425781 5.085938 M 3.503906 9.84375 C 3.410156 9.75 3.320312 9.65625 3.230469 9.5625 C 2.941406 9.648438 2.644531 9.734375 2.351562 9.816406 C 2.605469 9.917969 2.859375 10.019531 3.113281 10.117188 C 3.246094 10.027344 3.375 9.9375 3.503906 9.84375 M 4.136719 7.175781 C 4.289062 7.066406 4.433594 6.960938 4.582031 6.851562 C 4.753906 6.90625 4.925781 6.960938 5.097656 7.011719 C 4.894531 6.40625 4.699219 5.796875 4.507812 5.1875 C 4.097656 5.796875 3.675781 6.398438 3.242188 7 C 3.433594 6.949219 3.628906 6.898438 3.820312 6.847656 C 3.925781 6.957031 4.03125 7.066406 4.136719 7.175781 M 6.398438 7.726562 C 6.675781 7.625 6.953125 7.523438 7.234375 7.417969 C 6.980469 7.335938 6.730469 7.25 6.484375 7.164062 C 6.363281 7.261719 6.242188 7.355469 6.121094 7.453125 C 6.214844 7.542969 6.304688 7.632812 6.398438 7.726562 M 10.277344 7.515625 C 10.550781 7.398438 10.820312 7.28125 11.09375 7.164062 C 10.835938 7.09375 10.582031 7.023438 10.328125 6.953125 C 10.214844 7.054688 10.101562 7.15625 9.988281 7.257812 C 10.082031 7.34375 10.179688 7.429688 10.277344 7.515625 M 9.433594 7.578125 C 9.550781 7.476562 9.664062 7.375 9.78125 7.273438 C 9.683594 7.1875 9.589844 7.101562 9.496094 7.015625 C 9.222656 7.128906 8.949219 7.242188 8.675781 7.347656 C 8.925781 7.425781 9.179688 7.503906 9.433594 7.578125 M 10.230469 6.859375 C 10.148438 6.660156 10.066406 6.460938 9.984375 6.261719 C 9.863281 6.476562 9.738281 6.691406 9.613281 6.90625 C 9.707031 6.992188 9.800781 7.078125 9.894531 7.164062 C 10.007812 7.0625 10.121094 6.960938 10.230469 6.859375 M 2.210938 11.742188 C 2.417969 11.695312 2.625 11.648438 2.832031 11.597656 C 2.945312 11.710938 3.058594 11.820312 3.171875 11.933594 C 3.332031 11.828125 3.492188 11.71875 3.652344 11.613281 C 3.835938 11.667969 4.019531 11.726562 4.203125 11.78125 C 3.992188 11.171875 3.789062 10.5625 3.589844 9.949219 C 3.140625 10.550781 2.679688 11.148438 2.210938 11.742188 M 7.992188 7.09375 C 8.132812 6.980469 8.273438 6.863281 8.417969 6.746094 C 8.589844 6.789062 8.765625 6.835938 8.941406 6.878906 C 8.703125 6.28125 8.472656 5.6875 8.246094 5.089844 C 7.871094 5.71875 7.484375 6.347656 7.085938 6.96875 C 7.277344 6.910156 7.464844 6.847656 7.65625 6.785156 C 7.765625 6.886719 7.878906 6.992188 7.992188 7.09375 M 8.160156 4.992188 C 8.070312 4.902344 7.980469 4.8125 7.890625 4.722656 C 7.625 4.832031 7.359375 4.9375 7.089844 5.039062 C 7.332031 5.121094 7.574219 5.207031 7.816406 5.285156 C 7.933594 5.1875 8.046875 5.089844 8.160156 4.992188 M 8.601562 4.585938 C 8.527344 4.386719 8.453125 4.183594 8.378906 3.980469 C 8.253906 4.195312 8.132812 4.40625 8.007812 4.621094 C 8.09375 4.707031 8.183594 4.792969 8.269531 4.882812 C 8.382812 4.785156 8.492188 4.683594 8.601562 4.585938 M 8.628906 5.242188 C 8.898438 5.132812 9.160156 5.023438 9.425781 4.910156 C 9.183594 4.835938 8.9375 4.757812 8.695312 4.679688 C 8.585938 4.78125 8.472656 4.878906 8.359375 4.980469 C 8.449219 5.066406 8.539062 5.15625 8.628906 5.242188 M 6.363281 9.832031 C 6.621094 9.917969 6.882812 10.003906 7.140625 10.085938 C 7.265625 9.992188 7.390625 9.890625 7.511719 9.792969 C 7.417969 9.707031 7.320312 9.617188 7.226562 9.527344 C 6.941406 9.628906 6.652344 9.730469 6.363281 9.832031 M 16.875 33.371094 L 16.578125 33.371094 L 16.875 32.980469 Z M 16.875 33.839844 L 15.882812 33.839844 L 15.882812 33.417969 L 16.464844 32.652344 L 16.464844 32.488281 L 16.296875 32.488281 L 16.296875 32.652344 L 15.882812 32.652344 L 15.882812 32.382812 C 15.886719 32.316406 15.90625 32.269531 15.953125 32.230469 C 16 32.183594 16.050781 32.164062 16.113281 32.160156 L 16.644531 32.160156 C 16.707031 32.164062 16.761719 32.183594 16.808594 32.230469 C 16.855469 32.269531 16.875 32.316406 16.875 32.382812 L 16.875 32.75 L 16.296875 33.511719 L 16.875 33.511719 Z M 15.878906 32.792969 L 16.179688 32.792969 L 15.878906 33.191406 Z M 15.738281 33.617188 C 15.738281 33.683594 15.714844 33.730469 15.671875 33.773438 C 15.621094 33.816406 15.570312 33.839844 15.507812 33.839844 L 14.929688 33.839844 C 14.867188 33.839844 14.816406 33.816406 14.765625 33.773438 C 14.722656 33.730469 14.703125 33.683594 14.699219 33.617188 L 14.699219 33.332031 L 15.089844 33.332031 L 15.089844 33.519531 L 15.324219 33.519531 L 15.324219 33.167969 L 14.929688 33.167969 C 14.867188 33.164062 14.816406 33.144531 14.765625 33.101562 C 14.722656 33.058594 14.703125 33.011719 14.699219 32.945312 L 14.699219 32.382812 C 14.703125 32.316406 14.722656 32.269531 14.765625 32.230469 C 14.816406 32.183594 14.867188 32.164062 14.929688 32.160156 L 15.507812 32.160156 C 15.570312 32.164062 15.621094 32.183594 15.671875 32.230469 C 15.714844 32.269531 15.738281 32.316406 15.738281 32.382812 Z M 14.550781 33.839844 L 14.179688 33.839844 L 14.179688 32.484375 L 14.011719 32.484375 L 14.1875 32.160156 L 14.550781 32.160156 Z M 17.019531 32.382812 C 17.019531 32.316406 17.039062 32.269531 17.082031 32.230469 C 17.132812 32.183594 17.183594 32.164062 17.246094 32.160156 L 17.824219 32.160156 C 17.886719 32.164062 17.9375 32.183594 17.988281 32.230469 C 18.03125 32.269531 18.054688 32.316406 18.054688 32.382812 L 18.054688 32.667969 L 17.667969 32.667969 L 17.667969 32.484375 L 17.429688 32.484375 L 17.429688 32.835938 L 17.824219 32.835938 C 17.886719 32.835938 17.9375 32.855469 17.988281 32.898438 C 18.03125 32.941406 18.054688 32.988281 18.054688 33.058594 L 18.054688 33.617188 C 18.054688 33.683594 18.03125 33.730469 17.988281 33.773438 C 17.9375 33.816406 17.886719 33.839844 17.824219 33.839844 L 17.246094 33.839844 C 17.183594 33.839844 17.132812 33.816406 17.082031 33.773438 C 17.039062 33.730469 17.019531 33.683594 17.019531 33.617188 Z M 17.015625 33.902344 C 17.085938 33.949219 17.160156 33.976562 17.246094 33.980469 L 17.828125 33.980469 C 17.925781 33.976562 18.007812 33.941406 18.085938 33.875 C 18.160156 33.804688 18.195312 33.722656 18.195312 33.617188 L 18.195312 33.054688 C 18.195312 32.957031 18.164062 32.875 18.09375 32.808594 L 18.195312 32.808594 L 18.195312 32.382812 C 18.195312 32.28125 18.160156 32.195312 18.082031 32.125 C 18.007812 32.058594 17.925781 32.023438 17.824219 32.023438 L 17.242188 32.023438 C 17.144531 32.023438 17.0625 32.058594 16.984375 32.128906 C 16.972656 32.140625 16.957031 32.15625 16.945312 32.167969 C 16.933594 32.152344 16.921875 32.140625 16.90625 32.125 C 16.828125 32.058594 16.746094 32.023438 16.644531 32.023438 L 16.109375 32.023438 C 16.011719 32.023438 15.929688 32.058594 15.851562 32.128906 C 15.835938 32.140625 15.824219 32.15625 15.8125 32.171875 C 15.796875 32.15625 15.785156 32.140625 15.765625 32.125 C 15.691406 32.058594 15.609375 32.023438 15.507812 32.023438 L 14.925781 32.023438 C 14.839844 32.023438 14.761719 32.050781 14.691406 32.109375 L 14.691406 32.023438 L 14.101562 32.023438 L 14.0625 32.097656 L 13.886719 32.421875 L 13.777344 32.625 L 14.039062 32.625 L 14.039062 33.980469 L 14.691406 33.980469 L 14.691406 33.894531 C 14.757812 33.949219 14.839844 33.976562 14.929688 33.980469 L 15.511719 33.980469 C 15.597656 33.976562 15.671875 33.949219 15.742188 33.894531 L 15.742188 33.980469 L 17.015625 33.980469 Z M 17.667969 33.160156 L 17.429688 33.160156 L 17.429688 33.511719 L 17.667969 33.511719 Z M 15.089844 32.84375 L 15.324219 32.84375 L 15.324219 32.492188 L 15.089844 32.492188 Z M 17.769531 26.316406 C 18.804688 26.632812 19.195312 26.234375 19.21875 26.113281 C 19.242188 25.996094 19.273438 25.785156 18.707031 25.492188 C 18.59375 25.433594 18.414062 25.355469 18.320312 25.335938 C 18.210938 25.3125 17.679688 25.273438 17.941406 25.523438 C 18.152344 25.722656 18.4375 25.964844 18.351562 26.046875 C 18.273438 26.128906 17.882812 26.21875 17.382812 26.007812 C 16.839844 25.777344 16.804688 25.496094 16.804688 25.496094 C 16.804688 25.496094 16.738281 25.996094 17.769531 26.316406 M 11.863281 28.125 C 12.683594 28.257812 12.902344 28.1875 13.292969 27.886719 C 13.683594 27.585938 14.652344 26.570312 14.652344 26.570312 C 14.652344 26.570312 13.941406 27.0625 13.386719 27.378906 C 12.832031 27.695312 12.582031 27.679688 12.480469 27.679688 C 12.378906 27.679688 11.308594 27.472656 10.933594 27.363281 C 10.554688 27.253906 10.605469 27.03125 11.011719 26.878906 C 12.402344 26.351562 14.527344 26.214844 14.527344 26.214844 C 11.996094 26.023438 10.464844 26.554688 9.828125 26.855469 C 9.195312 27.15625 9.421875 27.488281 9.742188 27.609375 C 10.0625 27.734375 11.042969 27.996094 11.863281 28.125 M 11.816406 25.136719 C 14.980469 24.132812 18.175781 24.71875 19.34375 25.160156 C 20.527344 25.605469 21.160156 26.308594 21.269531 26.582031 C 21.320312 26.703125 21.222656 26.925781 21.164062 26.945312 C 20.917969 27.042969 20.136719 27.214844 19.3125 27.304688 C 19.792969 27.304688 21.152344 27.1875 21.152344 27.1875 C 21.152344 27.1875 21.496094 27.144531 21.570312 27.113281 C 21.65625 27.078125 21.707031 26.699219 21.652344 26.632812 C 21.59375 26.5625 21.050781 25.796875 19.441406 25.148438 C 18.25 24.664062 16.277344 24.113281 13.878906 24.113281 C 13.503906 24.113281 13.410156 24.117188 12.855469 23.941406 C 12.683594 23.886719 12.398438 23.804688 12.054688 23.726562 C 13.164062 22.953125 14.523438 22.496094 15.988281 22.496094 C 19.636719 22.496094 22.617188 25.320312 22.804688 28.871094 C 20.941406 28.632812 17.464844 28.886719 14.984375 29.546875 C 18.148438 29.210938 20.972656 29.628906 21.738281 31.0625 C 22.640625 32.761719 20.46875 34.792969 19.226562 35.359375 C 17.980469 35.929688 17.1875 36.121094 15.984375 36.121094 C 14.785156 36.121094 12.027344 35.726562 9.679688 33.097656 C 8.285156 31.535156 6.746094 26.742188 11.816406 25.136719 M 7.59375 30.453125 C 7.59375 30.453125 7.664062 30.640625 7.699219 30.722656 C 9.003906 34.003906 12.1875 36.210938 15.988281 36.210938 C 18.730469 36.210938 21.136719 35.042969 22.765625 33.175781 C 23.167969 32.710938 23.523438 32.203125 23.828125 31.660156 C 24.4375 30.40625 24.269531 29.34375 23.382812 28.996094 C 23.328125 28.976562 23.273438 28.957031 23.210938 28.941406 C 23.132812 25.078125 19.925781 21.960938 15.988281 21.960938 C 14.238281 21.960938 12.628906 22.578125 11.378906 23.601562 C 10.722656 23.503906 9.976562 23.460938 9.339844 23.601562 C 9.207031 23.632812 8.984375 23.730469 9.292969 24.121094 L 9.78125 24.742188 C 9.832031 24.800781 9.886719 24.988281 9.699219 24.988281 C 9.511719 24.988281 8.722656 24.941406 8.640625 25.023438 C 8.011719 25.640625 7.3125 27.089844 7.3125 28.894531 C 7.3125 29.40625 7.410156 29.933594 7.59375 30.453125 M 14.984375 29.546875 C 15.175781 29.527344 15.371094 29.511719 15.558594 29.496094 C 15.367188 29.511719 15.175781 29.527344 14.984375 29.546875 M 17.300781 27.832031 C 16.929688 27.765625 16.699219 27.636719 16.464844 27.464844 C 15.445312 26.691406 14.996094 25.824219 15.109375 25.597656 C 15.339844 25.136719 16.632812 25.160156 16.632812 25.160156 C 16.632812 25.160156 15.929688 25.097656 15.183594 25.265625 C 14.609375 25.398438 14.558594 25.730469 14.648438 25.992188 C 14.734375 26.238281 15.0625 26.855469 15.609375 27.441406 C 15.714844 27.550781 15.636719 27.632812 15.519531 27.664062 C 15.304688 27.71875 10.230469 29.269531 9.914062 30.851562 C 9.496094 32.945312 12.34375 35.941406 15.988281 35.941406 C 14.898438 35.941406 13.875 35.578125 12.972656 34.9375 C 11.820312 34.082031 11.152344 32.890625 11.097656 32.179688 C 11.011719 31.074219 10.96875 30.175781 15.347656 28.90625 C 16.558594 28.582031 17.222656 28.53125 17.945312 28.414062 C 18.851562 28.269531 20.214844 27.976562 21.152344 27.1875 C 19.75 28.210938 17.742188 27.910156 17.300781 27.832031 M 15.988281 40.328125 C 5.257812 34.164062 2.613281 25.828125 1.964844 20.054688 L 30.011719 20.054688 C 29.363281 25.828125 26.71875 34.164062 15.988281 40.328125 M 2.761719 3.582031 C 2.871094 3.582031 2.980469 3.582031 3.085938 3.582031 C 7.855469 3.582031 10.769531 3.320312 12.515625 3.007812 C 13.390625 2.855469 13.972656 2.691406 14.351562 2.539062 C 14.441406 2.5 14.519531 2.464844 14.589844 2.433594 C 14.152344 3.511719 13.078125 6.691406 13.078125 11.808594 C 13.078125 11.894531 13.078125 11.988281 13.082031 12.078125 L 19.863281 12.078125 C 20.304688 11.976562 20.753906 11.878906 21.210938 11.789062 C 25.523438 10.941406 28.824219 10.886719 30.007812 10.902344 C 29.960938 10.300781 29.90625 9.703125 29.855469 9.125 C 29.960938 10.238281 30.054688 11.425781 30.125 12.589844 L 1.851562 12.589844 C 2.09375 8.429688 2.703125 4.011719 2.761719 3.582031 M 3.207031 3.355469 C 3.175781 3.367188 3.144531 3.378906 3.113281 3.394531 C 3.144531 3.378906 3.175781 3.367188 3.207031 3.355469 M 9.875 1.488281 C 9.878906 1.511719 9.894531 1.585938 9.917969 1.714844 C 9.96875 1.972656 10.046875 2.445312 10.105469 3.085938 C 8.425781 3.242188 6.1875 3.347656 3.214844 3.351562 C 4.15625 2.957031 6.527344 2.0625 9.875 1.488281 M 11.613281 1.234375 C 11.160156 1.289062 10.71875 1.351562 10.292969 1.417969 C 10.71875 1.351562 11.160156 1.289062 11.613281 1.234375 M 14.265625 2.324219 C 13.667969 2.5625 12.488281 2.851562 10.339844 3.0625 C 10.273438 2.324219 10.179688 1.804688 10.132812 1.570312 C 11.699219 1.578125 12.867188 1.6875 13.648438 1.8125 C 14.046875 1.878906 14.347656 1.949219 14.539062 2.011719 C 14.617188 2.039062 14.675781 2.0625 14.714844 2.082031 C 14.644531 2.140625 14.5 2.230469 14.265625 2.324219 M 21.101562 2.433594 C 26.40625 2.433594 29.1875 3.539062 29.207031 3.546875 C 29.207031 3.546875 29.5625 6.058594 29.855469 9.125 C 29.835938 8.933594 29.816406 8.746094 29.796875 8.558594 C 28.859375 8.476562 26.25 8.34375 22.117188 8.890625 C 18.375 9.382812 14.839844 10.535156 13.324219 11.070312 C 13.34375 10.15625 13.394531 9.304688 13.472656 8.527344 C 14.59375 8.121094 17.125 7.324219 20.65625 6.894531 C 25.6875 6.285156 29.074219 6.765625 29.617188 6.851562 C 29.53125 6.058594 29.445312 5.363281 29.375 4.816406 C 28.886719 4.667969 26.105469 3.917969 21.292969 4.199219 C 17.9375 4.394531 15.230469 5.050781 13.953125 5.414062 C 14.019531 5.113281 14.085938 4.832031 14.152344 4.570312 C 14.316406 3.929688 14.480469 3.414062 14.621094 3.023438 C 16.042969 2.746094 18.257812 2.433594 21.101562 2.433594 M 30.144531 5.125 C 29.972656 5.046875 29.621094 4.890625 29.621094 4.890625 C 29.519531 4.050781 29.425781 3.394531 29.425781 3.394531 C 29.425781 3.394531 27.925781 2.675781 25.605469 2.035156 C 23.472656 1.441406 20.070312 0.734375 15.988281 0.734375 C 11.90625 0.734375 8.503906 1.441406 6.367188 2.035156 C 4.050781 2.675781 2.550781 3.394531 2.550781 3.394531 C 2.550781 3.394531 2.457031 4.050781 2.351562 4.890625 C 2.351562 4.890625 2.003906 5.046875 1.828125 5.125 C 1.828125 5.125 0.746094 11.753906 0.746094 16.8125 C 0.746094 21.875 0.96875 35.84375 15.988281 44.15625 C 31.007812 35.84375 31.230469 21.875 31.230469 16.8125 C 31.230469 11.753906 30.144531 5.125 30.144531 5.125 "/>
</g>
</g>
</svg>
