<?xml version="1.0" encoding="UTF-8"?>
<svg xmlns="http://www.w3.org/2000/svg" xmlns:xlink="http://www.w3.org/1999/xlink" width="32px" height="32px" viewBox="0 0 32 30" version="1.1">
<g id="surface1">
<path style="fill:none;stroke-width:0.137439;stroke-linecap:butt;stroke-linejoin:miter;stroke:rgb(100%,100%,0%);stroke-opacity:1;stroke-miterlimit:4;" d="M 52.243042 152.414062 L 57.224731 152.414062 L 57.224731 163.307813 L 52.243042 163.307813 Z M 52.243042 152.414062 " transform="matrix(0.120755,0,0,0.119048,0,0)"/>
<path style=" stroke:none;fill-rule:nonzero;fill:rgb(14.117647%,12.941176%,41.568627%);fill-opacity:1;" d="M 25.800781 29.878906 L 6.183594 29.882812 L 0.121094 11.488281 L 15.992188 0.117188 L 31.863281 11.488281 Z M 25.800781 29.878906 "/>
<path style=" stroke:none;fill-rule:nonzero;fill:rgb(100%,100%,100%);fill-opacity:1;" d="M 24.816406 28.542969 L 7.167969 28.542969 L 1.714844 11.996094 L 15.992188 1.769531 L 30.269531 11.996094 Z M 24.816406 28.542969 "/>
<path style=" stroke:none;fill-rule:evenodd;fill:rgb(87.843137%,11.764706%,7.45098%);fill-opacity:1;" d="M 15.769531 3.003906 C 15.777344 4.980469 14.691406 6.652344 10.761719 9.15625 C 4.804688 13.214844 5.097656 14.996094 4.371094 17.125 L 2.75 12.328125 Z M 15.769531 3.003906 "/>
<path style=" stroke:none;fill-rule:evenodd;fill:rgb(87.843137%,11.764706%,7.45098%);fill-opacity:1;" d="M 5.917969 21.714844 C 4.832031 18.644531 5.292969 16.351562 6.339844 14.585938 C 7.320312 12.9375 8.789062 11.703125 10.425781 10.59375 C 9.347656 11.90625 8.628906 12.976562 8.160156 13.878906 C 6.890625 16.328125 7.121094 17.847656 7.546875 19.121094 C 7.617188 17.417969 7.859375 15.757812 9.671875 14.394531 C 8.414062 17.425781 9.164062 19.277344 9.851562 20.171875 Z M 5.917969 21.714844 "/>
<path style=" stroke:none;fill-rule:nonzero;fill:rgb(87.843137%,11.764706%,7.45098%);fill-opacity:1;" d="M 15.992188 18.636719 L 6.148438 22.640625 L 7.808594 27.675781 L 24.175781 27.675781 L 25.835938 22.640625 Z M 15.992188 18.636719 "/>
<path style=" stroke:none;fill-rule:evenodd;fill:rgb(14.117647%,12.941176%,41.568627%);fill-opacity:1;" d="M 15.269531 14.566406 C 15.082031 16.304688 15.773438 16.574219 16.445312 16.953125 C 16.492188 16.21875 16.738281 16.027344 17.074219 15.953125 C 18.683594 15.601562 19.132812 17.363281 20.164062 17.953125 C 20.734375 18.277344 21.890625 18.140625 22.488281 17.96875 C 24.558594 17.375 25.296875 15.285156 25.464844 13.710938 C 25.816406 13.503906 26.238281 13.484375 26.339844 12.609375 C 24.640625 11.925781 23.222656 11.101562 21.945312 10.203125 C 22.109375 10.089844 22.398438 10.101562 22.453125 9.820312 C 22.472656 9.773438 22.144531 9.515625 21.785156 9.203125 C 20.96875 8.492188 19.59375 7.414062 18.898438 7.257812 C 18.882812 6.519531 18.742188 5.804688 17.910156 5.195312 C 17.914062 5.773438 17.824219 6.378906 17.59375 6.902344 L 16.957031 6.855469 C 17.273438 5.675781 17.304688 4.40625 16.585938 3.269531 L 29.234375 12.328125 L 26.140625 21.714844 L 16.265625 17.867188 C 15.308594 17.457031 14.199219 16.523438 15.269531 14.566406 Z M 15.269531 14.566406 "/>
<path style=" stroke:none;fill-rule:evenodd;fill:rgb(12.54902%,11.764706%,37.254902%);fill-opacity:1;" d="M 18.191406 9.851562 C 18.871094 10.203125 19.25 10.6875 19.496094 11.3125 C 19.761719 11.21875 20.066406 11.199219 20.414062 11.1875 C 20.761719 11.078125 20.894531 10.761719 20.921875 10.421875 C 20.722656 10.527344 20.492188 10.539062 20.242188 10.488281 C 19.640625 9.871094 18.9375 9.765625 18.191406 9.851562 Z M 18.191406 9.851562 "/>
<path style=" stroke:none;fill-rule:nonzero;fill:rgb(100%,100%,100%);fill-opacity:1;" d="M 16.089844 21.699219 C 16.15625 21.039062 17.085938 21.125 17.085938 21.125 L 16.738281 20.695312 C 16.738281 20.695312 16.320312 20.640625 16.132812 21.109375 C 16.128906 21.117188 16.125 21.125 16.121094 21.136719 C 16.121094 21.144531 16.113281 21.148438 16.105469 21.144531 C 16.101562 21.144531 16.097656 21.140625 16.097656 21.128906 C 16.101562 21.117188 16.101562 21.113281 16.105469 21.105469 C 16.21875 20.640625 16.46875 20.289062 16.46875 20.289062 L 16.003906 19.675781 L 15.542969 20.289062 C 15.542969 20.289062 15.789062 20.640625 15.90625 21.105469 C 15.90625 21.113281 15.910156 21.117188 15.910156 21.128906 C 15.914062 21.140625 15.910156 21.144531 15.902344 21.144531 C 15.894531 21.148438 15.890625 21.144531 15.886719 21.136719 C 15.882812 21.125 15.878906 21.117188 15.875 21.109375 C 15.691406 20.640625 15.273438 20.695312 15.273438 20.695312 L 14.921875 21.125 C 14.921875 21.125 15.851562 21.039062 15.917969 21.699219 Z M 16.089844 21.699219 "/>
<path style=" stroke:none;fill-rule:nonzero;fill:rgb(100%,100%,100%);fill-opacity:1;" d="M 8.976562 22.582031 L 8.976562 26.539062 L 11.597656 26.539062 L 11.347656 25.664062 L 10.113281 25.664062 L 10.113281 22.582031 Z M 8.976562 22.582031 "/>
<path style=" stroke:none;fill-rule:nonzero;fill:rgb(100%,100%,100%);fill-opacity:1;" d="M 20.511719 22.585938 C 20.121094 22.585938 19.804688 22.871094 19.804688 23.222656 L 19.804688 25.410156 L 20.191406 26.535156 L 22.304688 26.535156 C 22.695312 26.535156 23.007812 26.25 23.007812 25.894531 L 23.007812 25.121094 L 21.933594 25.121094 L 21.933594 25.707031 L 20.878906 25.707031 L 20.878906 23.429688 L 21.933594 23.429688 L 21.933594 23.996094 L 23.007812 23.996094 L 23.007812 23.222656 C 23.007812 22.871094 22.695312 22.585938 22.304688 22.585938 Z M 20.511719 22.585938 "/>
<path style=" stroke:none;fill-rule:nonzero;fill:rgb(100%,100%,100%);fill-opacity:1;" d="M 12.699219 22.585938 C 12.308594 22.585938 11.996094 22.871094 11.996094 23.222656 L 11.996094 25.410156 L 12.378906 26.535156 L 14.492188 26.535156 C 14.882812 26.535156 15.199219 26.25 15.199219 25.894531 L 15.199219 23.222656 C 15.199219 22.871094 14.882812 22.585938 14.492188 22.585938 Z M 13.066406 23.429688 L 14.125 23.429688 L 14.125 25.707031 L 13.066406 25.707031 Z M 13.066406 23.429688 "/>
<path style=" stroke:none;fill-rule:nonzero;fill:rgb(100%,100%,100%);fill-opacity:1;" d="M 16.855469 24.839844 L 18.03125 25.113281 L 18.03125 25.707031 L 16.972656 25.707031 L 16.972656 25.410156 L 15.898438 25.410156 L 16.285156 26.535156 L 18.398438 26.535156 C 18.789062 26.535156 19.101562 26.25 19.101562 25.894531 L 19.101562 25.007812 C 19.085938 24.695312 18.835938 24.425781 17.871094 24.238281 L 16.972656 24.023438 L 16.972656 23.429688 L 18.03125 23.429688 L 18.03125 23.757812 L 19.101562 23.757812 L 19.101562 23.222656 C 19.101562 22.871094 18.789062 22.585938 18.398438 22.585938 L 16.605469 22.585938 C 16.214844 22.585938 15.898438 22.871094 15.898438 23.222656 L 15.898438 24.238281 C 15.910156 24.621094 16.453125 24.734375 16.855469 24.839844 Z M 16.855469 24.839844 "/>
</g>
</svg>
