<?xml version="1.0" encoding="UTF-8"?>
<svg xmlns="http://www.w3.org/2000/svg" xmlns:xlink="http://www.w3.org/1999/xlink" width="32px" height="32px" viewBox="0 0 32 41" version="1.1">
<g id="surface1">
<path style=" stroke:none;fill-rule:nonzero;fill:rgb(100%,86.27451%,0%);fill-opacity:1;" d="M 0 0 L 0 26.59375 C -0.046875 30.25 1.894531 32.378906 4.273438 33.921875 L 16.007812 40.976562 L 27.746094 33.921875 C 30.125 32.378906 32.0625 30.25 32.019531 26.59375 L 32.019531 0 Z M 0 0 "/>
<path style=" stroke:none;fill-rule:nonzero;fill:rgb(0%,64.705882%,34.509804%);fill-opacity:1;" d="M 3.863281 4.378906 L 3.863281 5.132812 L 4.980469 5.132812 L 4.980469 5.792969 L 3.863281 5.792969 L 3.863281 7.199219 L 3.0625 7.199219 L 3.0625 3.71875 L 5.203125 3.71875 L 5.203125 4.378906 Z M 3.863281 4.378906 "/>
<path style=" stroke:none;fill-rule:nonzero;fill:rgb(0%,64.705882%,34.509804%);fill-opacity:1;" d="M 5.445312 5.445312 C 5.445312 4.378906 6.132812 3.671875 7.164062 3.671875 C 7.679688 3.671875 8.121094 3.847656 8.449219 4.226562 L 7.945312 4.742188 C 7.792969 4.496094 7.511719 4.332031 7.171875 4.332031 C 6.632812 4.332031 6.265625 4.78125 6.265625 5.457031 C 6.265625 6.136719 6.640625 6.589844 7.195312 6.589844 C 7.585938 6.589844 7.832031 6.390625 8.015625 6.058594 L 8.554688 6.539062 C 8.230469 7.007812 7.765625 7.246094 7.175781 7.246094 C 6.140625 7.246094 5.445312 6.523438 5.445312 5.445312 "/>
<path style=" stroke:none;fill-rule:nonzero;fill:rgb(0%,64.705882%,34.509804%);fill-opacity:1;" d="M 9.976562 3.71875 L 10.46875 3.71875 L 12.308594 5.746094 L 12.289062 3.71875 L 13.082031 3.71875 L 13.082031 7.199219 L 12.597656 7.199219 L 10.757812 5.171875 L 10.773438 7.199219 L 9.976562 7.199219 Z M 9.976562 3.71875 "/>
<path style=" stroke:none;fill-rule:nonzero;fill:rgb(0%,64.705882%,34.509804%);fill-opacity:1;" d="M 15.738281 6.605469 L 14.464844 6.605469 L 14.265625 7.199219 L 13.414062 7.199219 L 14.734375 3.71875 L 15.472656 3.71875 L 16.789062 7.199219 L 15.9375 7.199219 Z M 15.515625 5.945312 L 15.101562 4.707031 L 14.6875 5.945312 Z M 15.515625 5.945312 "/>
<path style=" stroke:none;fill-rule:nonzero;fill:rgb(0%,64.705882%,34.509804%);fill-opacity:1;" d="M 17.125 3.71875 L 17.613281 3.71875 L 19.457031 5.746094 L 19.4375 3.71875 L 20.230469 3.71875 L 20.230469 7.199219 L 19.742188 7.199219 L 17.902344 5.171875 L 17.921875 7.199219 L 17.125 7.199219 Z M 17.125 3.71875 "/>
<path style=" stroke:none;fill-rule:nonzero;fill:rgb(0%,64.705882%,34.509804%);fill-opacity:1;" d="M 23.300781 4.378906 L 22.378906 4.378906 L 22.378906 7.199219 L 21.578125 7.199219 L 21.578125 4.378906 L 20.65625 4.378906 L 20.65625 3.71875 L 23.300781 3.71875 Z M 23.300781 4.378906 "/>
<path style=" stroke:none;fill-rule:nonzero;fill:rgb(0%,64.705882%,34.509804%);fill-opacity:1;" d="M 26.003906 6.542969 L 26.003906 7.199219 L 23.726562 7.199219 L 23.726562 3.71875 L 26.007812 3.71875 L 26.007812 4.378906 L 24.527344 4.378906 L 24.527344 5.132812 L 25.851562 5.132812 L 25.851562 5.792969 L 24.527344 5.792969 L 24.527344 6.542969 Z M 26.003906 6.542969 "/>
<path style=" stroke:none;fill-rule:nonzero;fill:rgb(0%,64.705882%,34.509804%);fill-opacity:1;" d="M 26.5 6.800781 L 26.792969 6.265625 C 27.078125 6.503906 27.363281 6.589844 27.625 6.589844 C 27.941406 6.589844 28.125 6.476562 28.125 6.261719 C 28.125 6.039062 27.910156 5.925781 27.578125 5.816406 L 27.421875 5.765625 C 26.859375 5.585938 26.453125 5.34375 26.453125 4.773438 C 26.453125 4.113281 26.945312 3.671875 27.6875 3.671875 C 28.070312 3.671875 28.460938 3.800781 28.804688 4.074219 L 28.457031 4.628906 C 28.222656 4.425781 27.984375 4.332031 27.714844 4.332031 C 27.445312 4.332031 27.273438 4.453125 27.273438 4.640625 C 27.273438 4.851562 27.492188 4.953125 27.78125 5.046875 L 27.9375 5.097656 C 28.4375 5.261719 28.953125 5.554688 28.953125 6.179688 C 28.953125 6.824219 28.441406 7.25 27.6875 7.25 C 27.230469 7.25 26.8125 7.089844 26.5 6.800781 "/>
<path style=" stroke:none;fill-rule:nonzero;fill:rgb(0%,64.705882%,34.509804%);fill-opacity:1;" d="M 19.945312 32.714844 C 19.945312 32.289062 20.167969 31.894531 20.535156 31.667969 C 21.394531 31.140625 22.316406 30.566406 22.925781 30.152344 C 24.226562 29.273438 25.019531 28.628906 25.019531 26.511719 L 25.019531 9.648438 L 26.992188 9.648438 L 26.992188 26.511719 C 26.992188 29.523438 25.59375 30.71875 24.035156 31.773438 C 22.8125 32.597656 20.28125 34.121094 19.945312 34.320312 Z M 19.945312 32.714844 "/>
<path style=" stroke:none;fill-rule:nonzero;fill:rgb(0%,64.705882%,34.509804%);fill-opacity:1;" d="M 21.285156 27.535156 L 10.257812 14.921875 C 10.203125 14.859375 10.097656 14.898438 10.097656 14.980469 L 10.097656 26.390625 C 10.097656 26.859375 10.339844 27.296875 10.738281 27.546875 L 12.070312 28.390625 L 12.070312 20.269531 C 12.070312 20.167969 12.191406 20.121094 12.257812 20.199219 L 19.257812 28.203125 C 19.464844 28.4375 19.8125 28.488281 20.078125 28.316406 Z M 21.285156 27.535156 "/>
<path style=" stroke:none;fill-rule:nonzero;fill:rgb(0%,64.705882%,34.509804%);fill-opacity:1;" d="M 21.917969 9.648438 L 20.550781 9.648438 C 20.21875 9.648438 19.949219 9.917969 19.949219 10.246094 L 19.945312 18.027344 C 19.945312 18.125 19.824219 18.171875 19.757812 18.097656 L 12.804688 10.144531 C 12.527344 9.828125 12.128906 9.648438 11.707031 9.648438 L 9.757812 9.648438 L 21.757812 23.371094 C 21.8125 23.433594 21.917969 23.394531 21.917969 23.3125 Z M 21.917969 9.648438 "/>
<path style=" stroke:none;fill-rule:nonzero;fill:rgb(0%,64.705882%,34.509804%);fill-opacity:1;" d="M 16.167969 32.132812 C 16.140625 32.046875 16.085938 32.019531 16.046875 32.007812 C 16.03125 32.003906 16.015625 32.003906 16.003906 32.003906 C 15.992188 32.003906 15.980469 32.003906 15.964844 32.007812 C 15.921875 32.019531 15.871094 32.046875 15.839844 32.132812 L 14.574219 35.824219 L 16.003906 36.71875 L 17.433594 35.824219 Z M 16.167969 32.132812 "/>
<path style=" stroke:none;fill-rule:nonzero;fill:rgb(0%,64.705882%,34.509804%);fill-opacity:1;" d="M 17.648438 32.066406 C 18.171875 31.933594 18.730469 31.609375 18.757812 31.589844 C 18.773438 31.582031 18.785156 31.5625 18.785156 31.542969 C 18.785156 31.523438 18.773438 31.503906 18.757812 31.496094 C 18.734375 31.480469 18.332031 31.246094 17.894531 31.09375 C 17.679688 31.019531 17.453125 30.960938 17.253906 30.960938 C 16.644531 30.960938 16.335938 31.492188 16.320312 31.511719 C 16.3125 31.53125 16.3125 31.554688 16.320312 31.570312 C 16.328125 31.585938 16.449219 31.789062 16.683594 31.945312 C 16.75 31.992188 16.832031 32.035156 16.921875 32.066406 C 17.023438 32.101562 17.132812 32.125 17.253906 32.125 C 17.378906 32.125 17.511719 32.101562 17.648438 32.066406 "/>
<path style=" stroke:none;fill-rule:nonzero;fill:rgb(0%,64.705882%,34.509804%);fill-opacity:1;" d="M 14.164062 31.078125 C 13.703125 31.226562 13.277344 31.480469 13.25 31.496094 C 13.234375 31.503906 13.226562 31.523438 13.226562 31.542969 C 13.226562 31.5625 13.234375 31.582031 13.25 31.589844 C 13.28125 31.609375 13.835938 31.933594 14.363281 32.066406 C 14.496094 32.101562 14.632812 32.125 14.753906 32.125 C 14.878906 32.125 14.988281 32.101562 15.085938 32.066406 C 15.195312 32.027344 15.292969 31.972656 15.371094 31.914062 C 15.574219 31.761719 15.679688 31.585938 15.6875 31.570312 C 15.695312 31.554688 15.695312 31.53125 15.6875 31.511719 C 15.675781 31.492188 15.367188 30.960938 14.753906 30.960938 C 14.570312 30.960938 14.363281 31.011719 14.164062 31.078125 "/>
<path style=" stroke:none;fill-rule:nonzero;fill:rgb(0%,64.705882%,34.509804%);fill-opacity:1;" d="M 15.976562 31.140625 C 15.984375 31.148438 15.996094 31.148438 16.003906 31.148438 C 16.015625 31.148438 16.023438 31.148438 16.035156 31.140625 C 16.054688 31.128906 16.585938 30.785156 16.585938 30.109375 C 16.585938 29.445312 16.074219 28.484375 16.050781 28.445312 C 16.035156 28.410156 15.976562 28.410156 15.957031 28.445312 C 15.933594 28.484375 15.421875 29.445312 15.421875 30.105469 C 15.421875 30.785156 15.953125 31.128906 15.976562 31.140625 "/>
<path style=" stroke:none;fill-rule:nonzero;fill:rgb(0%,64.705882%,34.509804%);fill-opacity:1;" d="M 12.066406 32.71875 C 12.066406 32.292969 11.847656 31.898438 11.480469 31.675781 C 10.617188 31.144531 9.695312 30.566406 9.085938 30.152344 C 7.789062 29.273438 6.992188 28.628906 6.992188 26.511719 L 6.992188 9.648438 L 5.023438 9.648438 L 5.023438 26.511719 C 5.023438 29.523438 6.421875 30.71875 7.980469 31.773438 C 9.199219 32.597656 11.734375 34.125 12.066406 34.328125 Z M 12.066406 32.71875 "/>
</g>
</svg>
