<?xml version="1.0" encoding="UTF-8"?>
<svg xmlns="http://www.w3.org/2000/svg" xmlns:xlink="http://www.w3.org/1999/xlink" width="32px" height="32px" viewBox="0 0 32 27" version="1.1">
<g id="surface1">
<path style=" stroke:none;fill-rule:evenodd;fill:rgb(89.019608%,83.137255%,67.843137%);fill-opacity:1;" d="M 25.875 0 L 17.339844 0.0078125 L 0 26.945312 L 13.679688 26.945312 L 11.71875 22.894531 L 15.945312 15.929688 C 16.054688 16.359375 16.277344 17.210938 16.308594 17.339844 C 16.09375 17.707031 12.828125 23.261719 12.828125 23.261719 L 17.867188 19.167969 C 17.949219 19.265625 21.441406 23.421875 21.441406 23.421875 C 21.441406 23.421875 19.796875 18.039062 19.6875 17.671875 C 19.773438 17.542969 20.320312 16.683594 20.667969 16.136719 L 22.160156 22.910156 L 19.175781 26.945312 L 32.011719 26.945312 Z M 18.789062 11.242188 L 19.585938 11.242188 L 20.566406 15.683594 L 16.09375 15.683594 Z M 18.789062 11.242188 "/>
<path style=" stroke:none;fill-rule:evenodd;fill:rgb(0%,0%,0%);fill-opacity:1;" d="M 18.25 0.511719 L 18.617188 1.0625 L 24.972656 1.0625 L 30.601562 25.878906 L 21.457031 25.878906 L 23.5 23.167969 L 20.566406 10.28125 L 18.140625 10.28125 L 10.316406 22.921875 L 11.777344 25.871094 L 2.714844 25.871094 L 1.824219 26.410156 L 12.753906 26.410156 L 11.023438 22.910156 L 18.445312 10.757812 L 20.0625 10.757812 L 22.863281 23.03125 L 20.347656 26.414062 L 31.3125 26.414062 L 25.449219 0.515625 Z M 17.660156 0.574219 L 0.988281 26.402344 L 9.160156 21.351562 L 10.105469 20.761719 L 8.421875 16.824219 L 13.789062 13.519531 L 11.945312 10.273438 L 17.136719 7.8125 L 15.460938 4.914062 L 19.460938 3.167969 L 18 1.0625 Z M 17.660156 0.574219 "/>
<path style=" stroke:none;fill-rule:evenodd;fill:rgb(65.490196%,9.803922%,18.823529%);fill-opacity:1;" d="M 18.613281 1.0625 L 20.183594 3.421875 L 16.230469 5.167969 L 17.933594 8.0625 L 12.742188 10.5 L 14.480469 13.660156 L 9.109375 16.984375 L 10.765625 20.96875 L 2.710938 25.871094 L 11.773438 25.871094 L 10.316406 22.921875 L 18.140625 10.28125 L 20.566406 10.28125 L 23.5 23.167969 L 21.457031 25.878906 L 30.601562 25.878906 L 24.972656 1.0625 Z M 16.597656 16.230469 C 16.597656 16.230469 16.851562 17.203125 16.910156 17.421875 C 16.753906 17.683594 14.863281 20.898438 14.863281 20.898438 C 14.863281 20.898438 17.558594 18.707031 17.941406 18.398438 C 18.207031 18.710938 20.113281 20.980469 20.113281 20.980469 C 20.113281 20.980469 19.171875 17.886719 19.082031 17.59375 C 19.222656 17.371094 19.949219 16.230469 19.949219 16.230469 Z M 16.597656 16.230469 "/>
</g>
</svg>
