<?xml version="1.0" encoding="UTF-8"?>
<svg xmlns="http://www.w3.org/2000/svg" xmlns:xlink="http://www.w3.org/1999/xlink" width="32px" height="32px" viewBox="0 0 32 37" version="1.1">
<g id="surface1">
<path style=" stroke:none;fill-rule:nonzero;fill:rgb(0%,27.45098%,52.941176%);fill-opacity:1;" d="M 8.652344 6.398438 L 8.652344 19.042969 L 15.332031 22.953125 L 22.007812 19.042969 L 22.007812 6.398438 Z M 24.34375 18.785156 C 23.851562 18.800781 23.386719 19.292969 23.394531 20.152344 C 23.394531 20.152344 23.390625 24.925781 23.394531 25.386719 C 23.398438 25.851562 23.394531 26.015625 23.410156 26.117188 C 23.417969 26.1875 23.433594 26.246094 23.445312 26.308594 C 23.347656 26.398438 23.246094 26.492188 23.140625 26.582031 C 22.386719 27.214844 22.261719 26.992188 22.191406 26.421875 L 22.195312 22.84375 L 20.976562 23.15625 C 20.976562 23.15625 20.96875 23.269531 20.972656 23.421875 C 20.808594 23.269531 20.496094 23.234375 20.257812 23.242188 C 18.816406 23.277344 17.71875 25.679688 18.109375 27.511719 C 17.855469 27.800781 17.5 28.128906 17.097656 28.488281 L 17.101562 24.246094 L 15.867188 24.589844 L 15.855469 27.800781 C 15.851562 27.855469 15.851562 27.980469 15.851562 28.148438 C 15.6875 28.757812 15.199219 29.089844 14.941406 29.050781 C 14.679688 29.011719 14.605469 28.566406 14.609375 28.355469 L 14.609375 24.925781 L 13.4375 25.226562 C 13.464844 26.59375 12.921875 27.1875 12.308594 27.410156 C 12.109375 26.632812 11.644531 26.015625 10.910156 25.898438 C 10.546875 25.839844 10.238281 25.9375 10.015625 26.117188 C 8.394531 26.644531 8.082031 29.3125 8.769531 30.421875 C 9.175781 31.097656 9.699219 31.242188 9.988281 31.273438 C 11.679688 31.4375 12.5 29.660156 12.410156 28.101562 C 12.835938 27.964844 13.191406 27.714844 13.398438 27.398438 L 13.375 28.414062 C 13.378906 29.089844 13.46875 30.085938 14.242188 30.085938 C 14.832031 30.089844 15.398438 29.660156 15.871094 29.121094 C 15.871094 29.28125 15.867188 29.445312 15.867188 29.613281 C 15.058594 30.394531 14.300781 31.261719 13.988281 32.167969 C 13.96875 32.226562 13.949219 32.285156 13.933594 32.347656 C 12.570312 32.71875 11.425781 33.015625 10.722656 33.171875 C 6.476562 34.125 5.261719 35.292969 5.066406 36.746094 C 6.546875 35.089844 8.285156 35.734375 8.777344 36.027344 C 8.894531 35.773438 9.511719 34.886719 11.003906 34.3125 C 11.90625 33.964844 12.851562 33.625 13.8125 33.289062 C 13.808594 34.519531 14.367188 35.792969 15.539062 35.59375 C 16.441406 35.441406 17.105469 34.839844 17.09375 32.441406 L 17.09375 32.304688 C 22.136719 30.675781 27.167969 29.28125 30.65625 28.074219 C 32.46875 27.449219 32.085938 25.289062 30.484375 24.660156 C 30.589844 24.207031 30.570312 23.707031 30.4375 23.214844 C 29.976562 21.542969 30.320312 20.964844 30.636719 20.679688 C 26.90625 20.191406 26.890625 25.839844 25.164062 26.429688 C 24.871094 26.53125 24.589844 26.28125 24.5625 25.90625 C 26.980469 23.015625 26.566406 18.992188 24.441406 18.789062 C 24.410156 18.785156 24.378906 18.785156 24.34375 18.785156 Z M 24.867188 19.792969 C 25.078125 19.808594 25.355469 20.078125 25.511719 20.628906 C 25.863281 21.871094 25.507812 23.503906 24.582031 24.933594 C 24.585938 23.554688 24.589844 20.566406 24.582031 20.203125 C 24.578125 19.921875 24.703125 19.777344 24.867188 19.792969 Z M 29.21875 21.492188 C 28.761719 21.929688 29.207031 23.183594 29.265625 24.210938 C 29.265625 24.242188 29.265625 24.277344 29.265625 24.308594 C 28.910156 24.253906 28.523438 24.25 28.003906 24.316406 C 27.589844 24.363281 27.292969 24.507812 27.09375 24.691406 C 27.59375 23.445312 28.359375 21.632812 29.21875 21.492188 Z M 5.09375 23.40625 C 4.972656 23.40625 4.851562 23.410156 4.730469 23.417969 C 0.640625 23.6875 -0.539062 27.371094 0.789062 27.691406 C 1.800781 27.933594 2.308594 26.980469 2.390625 26.292969 C 2.140625 26.527344 1.570312 26.703125 1.671875 25.894531 C 1.769531 25.121094 3.070312 24.128906 4.726562 24.003906 C 5.882812 23.921875 6.824219 24.921875 6.878906 26.0625 C 6.925781 27.070312 6.28125 27.996094 5.34375 28.386719 C 4.9375 28.277344 4.46875 28.285156 3.914062 28.4375 C 3.882812 26.328125 4.125 25.148438 4.761719 24.46875 C 4.394531 24.59375 3.992188 24.816406 3.648438 25.214844 C 2.449219 26.652344 2.863281 30.824219 2.570312 32.226562 C 2.4375 32.980469 1.609375 33.378906 1.222656 32.710938 C 0.371094 33.96875 1.796875 35.023438 2.921875 34.425781 C 3.453125 34.140625 4.226562 33.390625 4.082031 31.570312 C 4 30.550781 3.949219 29.667969 3.921875 28.898438 C 4.265625 28.820312 4.828125 28.835938 5.242188 29.601562 C 5.707031 30.472656 6.859375 34.300781 9.601562 32.929688 C 10.234375 32.613281 10.410156 32.160156 10.5 31.699219 C 10.535156 31.523438 10.429688 31.515625 10.3125 31.644531 C 9.648438 32.265625 8.34375 32.394531 7.5 30.738281 C 7.0625 29.882812 6.632812 29.199219 6.105469 28.777344 C 7.457031 28.285156 8.382812 27.128906 8.3125 25.898438 C 8.230469 24.5 6.886719 23.429688 5.09375 23.40625 Z M 20.382812 23.839844 C 20.691406 23.816406 20.972656 24.015625 21.035156 24.28125 C 21.039062 25.136719 21.015625 25.929688 21.015625 26.195312 C 21.023438 26.894531 20.507812 27.742188 19.949219 27.710938 C 19.132812 27.664062 19.085938 25.546875 19.695312 24.375 C 19.882812 24.011719 20.140625 23.859375 20.382812 23.839844 Z M 28.828125 24.839844 C 28.882812 24.835938 28.941406 24.835938 29 24.839844 L 29.007812 24.839844 C 29.066406 24.839844 29.128906 24.847656 29.191406 24.855469 C 29.191406 24.859375 29.195312 24.859375 29.199219 24.859375 C 29.203125 24.859375 29.210938 24.859375 29.21875 24.863281 C 29.128906 25.289062 28.886719 25.613281 28.410156 25.710938 C 27.347656 25.925781 27.386719 25.011719 28.203125 24.90625 C 28.363281 24.886719 28.5 24.867188 28.628906 24.851562 C 28.632812 24.851562 28.636719 24.851562 28.640625 24.851562 C 28.699219 24.847656 28.757812 24.839844 28.816406 24.839844 C 28.820312 24.839844 28.824219 24.839844 28.828125 24.839844 Z M 30.273438 25.222656 C 30.332031 25.25 30.394531 25.277344 30.457031 25.308594 C 31.722656 25.890625 31.425781 27.277344 30.472656 27.558594 C 27.9375 28.316406 22.132812 30 17.097656 31.398438 L 17.097656 29.230469 C 17.539062 28.835938 17.988281 28.464844 18.382812 28.109375 C 18.53125 28.527344 20.054688 29.347656 21.023438 27.578125 C 21.46875 28.960938 23.03125 27.308594 23.394531 27.027344 C 23.484375 26.957031 23.570312 26.886719 23.652344 26.816406 C 24.164062 27.558594 25.28125 27.359375 25.921875 26.746094 C 26.257812 26.421875 26.589844 25.878906 26.8125 25.382812 C 26.863281 25.914062 27.457031 26.414062 28.523438 26.300781 C 29.390625 26.203125 29.960938 25.789062 30.273438 25.222656 Z M 10.730469 26.582031 C 10.785156 26.582031 10.84375 26.59375 10.902344 26.617188 C 11.207031 26.734375 11.429688 27.085938 11.558594 27.527344 C 11.121094 27.519531 10.746094 27.40625 10.640625 27.34375 C 10.082031 27.027344 10.335938 26.566406 10.730469 26.582031 Z M 9.875 27.492188 C 9.976562 27.625 10.117188 27.753906 10.304688 27.863281 C 10.757812 28.121094 11.234375 28.230469 11.683594 28.222656 C 11.75 29.160156 11.449219 30.15625 10.675781 30.15625 C 9.511719 30.160156 9.527344 28.171875 9.875 27.492188 Z M 15.867188 30.402344 C 15.863281 30.886719 15.863281 31.351562 15.863281 31.738281 C 15.472656 31.847656 15.089844 31.953125 14.714844 32.054688 C 14.71875 32.039062 14.726562 32.023438 14.730469 32.007812 C 14.976562 31.453125 15.382812 30.917969 15.867188 30.402344 Z M 15.863281 32.710938 C 15.859375 34.214844 15.796875 34.664062 15.382812 34.773438 C 14.855469 34.910156 14.535156 34.046875 14.527344 33.160156 C 14.972656 33.007812 15.414062 32.859375 15.863281 32.710938 Z M 15.863281 32.710938 "/>
<path style=" stroke:none;fill-rule:nonzero;fill:rgb(75.294118%,60.392157%,35.686275%);fill-opacity:1;" d="M 8.921875 0.230469 C 8.484375 0.230469 8.128906 0.585938 8.128906 1.023438 C 8.128906 1.460938 8.484375 1.816406 8.921875 1.816406 C 9.363281 1.816406 9.714844 1.460938 9.714844 1.023438 C 9.714844 0.585938 9.363281 0.230469 8.921875 0.230469 Z M 13.238281 0.230469 C 12.796875 0.230469 12.445312 0.585938 12.445312 1.023438 C 12.445312 1.460938 12.796875 1.816406 13.238281 1.816406 C 13.675781 1.816406 14.03125 1.460938 14.03125 1.023438 C 14.03125 0.585938 13.675781 0.230469 13.238281 0.230469 Z M 17.5 0.230469 C 17.0625 0.230469 16.707031 0.585938 16.707031 1.023438 C 16.707031 1.460938 17.0625 1.816406 17.5 1.816406 C 17.9375 1.816406 18.292969 1.460938 18.292969 1.023438 C 18.292969 0.585938 17.9375 0.230469 17.5 0.230469 Z M 21.757812 0.230469 C 21.320312 0.230469 20.964844 0.585938 20.964844 1.023438 C 20.964844 1.460938 21.320312 1.816406 21.757812 1.816406 C 22.195312 1.816406 22.550781 1.460938 22.550781 1.023438 C 22.550781 0.585938 22.195312 0.230469 21.757812 0.230469 Z M 8.640625 2.324219 L 8.640625 6.039062 L 22.011719 6.039062 L 22.011719 2.335938 L 21.515625 2.335938 C 21.515625 3.378906 20.667969 4.226562 19.625 4.226562 C 18.582031 4.226562 17.742188 3.378906 17.742188 2.332031 L 17.242188 2.332031 C 17.242188 3.378906 16.394531 4.226562 15.351562 4.226562 C 14.308594 4.226562 13.46875 3.375 13.46875 2.328125 L 12.960938 2.335938 C 12.960938 3.378906 12.117188 4.226562 11.074219 4.226562 C 10.03125 4.226562 9.1875 3.375 9.1875 2.332031 Z M 8.640625 2.324219 "/>
<path style=" stroke:none;fill-rule:nonzero;fill:rgb(0%,0%,0%);fill-opacity:1;" d="M 15.6875 8.734375 L 15.6875 8.84375 L 15.507812 8.84375 C 15.234375 8.84375 14.894531 8.84375 14.441406 9.402344 C 13.863281 10.121094 12.710938 11.855469 12.710938 11.855469 C 12.851562 11.863281 12.980469 11.894531 13.105469 11.929688 C 13.421875 11.460938 14.246094 10.242188 14.707031 9.671875 C 15.160156 9.109375 15.5 9.109375 15.773438 9.109375 L 15.953125 9.109375 L 15.953125 8.734375 Z M 12.632812 8.734375 L 12.632812 8.851562 C 12.222656 8.882812 11.808594 9.128906 11.808594 9.796875 L 11.808594 12.050781 L 12.003906 11.9375 C 12.027344 11.910156 12.050781 11.875 12.074219 11.84375 L 12.074219 10.066406 C 12.074219 9.394531 12.492188 9.148438 12.898438 9.117188 L 12.898438 8.734375 Z M 13.433594 8.851562 L 13.433594 9.109375 C 13.558594 9.109375 13.6875 9.113281 13.796875 9.128906 C 13.8125 8.929688 13.648438 8.867188 13.433594 8.851562 Z M 10.054688 8.855469 L 10.054688 9.109375 L 10.199219 9.113281 C 10.375 9.113281 10.554688 9.152344 10.714844 9.246094 C 10.5625 8.992188 10.308594 8.878906 10.054688 8.855469 Z M 20.726562 10.886719 L 20.726562 13.464844 L 20.578125 13.464844 C 20.59375 13.570312 20.605469 13.664062 20.609375 13.730469 L 20.996094 13.730469 L 20.996094 10.886719 Z M 18.488281 11.296875 C 16.882812 11.246094 16.582031 13.101562 16.558594 14.371094 C 16.527344 16.238281 17.027344 17.339844 17.675781 17.890625 C 17.164062 17.277344 16.796875 16.242188 16.824219 14.636719 C 16.847656 13.371094 17.148438 11.511719 18.753906 11.5625 C 19.203125 11.574219 19.542969 11.71875 19.800781 11.925781 C 19.523438 11.582031 19.113281 11.316406 18.488281 11.296875 Z M 12.613281 12.4375 C 12.242188 12.421875 11.960938 12.628906 11.8125 12.773438 L 11.800781 13.515625 L 11.808594 14.832031 C 11.808594 15.261719 11.980469 15.515625 12.210938 15.652344 C 12.128906 15.511719 12.074219 15.332031 12.074219 15.097656 L 12.066406 13.78125 L 12.078125 13.042969 C 12.3125 12.8125 12.886719 12.417969 13.613281 13.027344 C 13.242188 12.601562 12.902344 12.453125 12.613281 12.4375 Z M 14.242188 12.699219 C 14.925781 13.472656 15.300781 14.523438 15.589844 14.730469 C 15.585938 14.699219 15.582031 14.664062 15.578125 14.632812 C 15.28125 14.132812 14.878906 13.273438 14.242188 12.699219 Z M 12.875 16.039062 L 12.875 16.160156 L 10.054688 16.160156 L 10.054688 16.425781 L 13.140625 16.425781 L 13.140625 16.050781 L 12.996094 16.046875 C 12.957031 16.046875 12.914062 16.042969 12.875 16.039062 Z M 20.851562 16.589844 C 20.855469 16.597656 20.859375 16.601562 20.863281 16.605469 C 21.074219 16.976562 20.695312 18.730469 18.742188 18.730469 C 17.878906 18.730469 17.1875 18.386719 16.621094 17.867188 C 17.238281 18.53125 18.007812 18.996094 19.007812 18.996094 C 20.960938 18.996094 21.339844 17.242188 21.128906 16.875 C 21.046875 16.726562 20.949219 16.636719 20.851562 16.589844 Z M 20.304688 17.074219 C 20.320312 17.121094 20.347656 17.164062 20.382812 17.207031 C 20.382812 17.140625 20.355469 17.101562 20.304688 17.074219 Z M 20.304688 17.074219 "/>
<path style=" stroke:none;fill-rule:nonzero;fill:rgb(100%,100%,100%);fill-opacity:1;" d="M 20.863281 16.609375 C 20.859375 16.601562 20.855469 16.597656 20.851562 16.589844 C 20.390625 15.816406 19.585938 16.726562 20.292969 17.066406 C 20.296875 17.070312 20.296875 17.074219 20.304688 17.074219 C 20.355469 17.105469 20.382812 17.140625 20.382812 17.207031 C 20.386719 17.253906 20.375 17.308594 20.339844 17.398438 C 19.980469 18.308594 18.660156 18.722656 17.675781 17.890625 C 17.027344 17.339844 16.527344 16.242188 16.558594 14.371094 C 16.582031 13.105469 16.882812 11.246094 18.488281 11.296875 C 19.109375 11.316406 19.523438 11.582031 19.800781 11.929688 C 20.222656 12.457031 20.320312 13.167969 20.34375 13.46875 L 20.726562 13.46875 L 20.726562 10.621094 L 20.28125 10.621094 C 20.199219 10.949219 20.148438 11.246094 19.550781 11.082031 C 18.949219 10.917969 18.691406 10.945312 18.480469 10.933594 C 16.640625 10.851562 15.382812 12.925781 15.578125 14.632812 C 15.582031 14.667969 15.585938 14.699219 15.589844 14.734375 C 15.300781 14.523438 14.925781 13.472656 14.242188 12.699219 C 13.933594 12.351562 13.5625 12.0625 13.105469 11.929688 C 12.980469 11.894531 12.851562 11.867188 12.710938 11.855469 C 12.710938 11.855469 13.863281 10.121094 14.441406 9.40625 C 14.894531 8.84375 15.234375 8.84375 15.507812 8.84375 L 15.6875 8.84375 L 15.6875 8.46875 L 13.164062 8.46875 L 13.164062 8.84375 C 13.257812 8.84375 13.347656 8.847656 13.433594 8.851562 C 13.648438 8.867188 13.8125 8.929688 13.792969 9.132812 C 13.789062 9.199219 13.769531 9.28125 13.714844 9.386719 C 13.503906 9.808594 12.523438 11.207031 12.074219 11.84375 C 12.050781 11.878906 12.027344 11.910156 12.003906 11.941406 L 11.808594 12.050781 L 11.808594 9.800781 C 11.808594 9.128906 12.222656 8.882812 12.632812 8.851562 L 12.632812 8.46875 L 9.785156 8.46875 L 9.785156 8.84375 L 9.929688 8.847656 C 9.972656 8.847656 10.011719 8.851562 10.054688 8.855469 C 10.308594 8.878906 10.5625 8.996094 10.714844 9.246094 C 10.796875 9.386719 10.855469 9.5625 10.855469 9.800781 L 10.855469 14.832031 C 10.855469 15.554688 10.367188 15.789062 9.929688 15.78125 L 9.785156 15.789062 L 9.785156 16.164062 L 12.875 16.164062 L 12.875 15.789062 L 12.730469 15.78125 C 12.554688 15.785156 12.371094 15.746094 12.214844 15.652344 C 11.980469 15.515625 11.808594 15.261719 11.808594 14.832031 L 11.800781 13.515625 L 11.8125 12.777344 C 12.074219 12.519531 12.765625 12.058594 13.613281 13.027344 C 13.636719 13.054688 13.660156 13.078125 13.683594 13.105469 C 14.492188 14.09375 15.179688 16.550781 16.617188 17.867188 C 17.191406 18.386719 17.878906 18.730469 18.742188 18.730469 C 20.695312 18.730469 21.070312 16.976562 20.863281 16.609375 "/>
</g>
</svg>
