<?xml version="1.0" encoding="UTF-8"?>
<svg xmlns="http://www.w3.org/2000/svg" xmlns:xlink="http://www.w3.org/1999/xlink" width="32px" height="32px" viewBox="0 0 32 42" version="1.1">
<g id="surface1">
<path style=" stroke:none;fill-rule:nonzero;fill:rgb(100%,100%,100%);fill-opacity:1;" d="M 17.679688 41.128906 L 29.382812 41.128906 C 28.300781 40.410156 27.347656 39.148438 26.921875 37.703125 L 23.648438 26.679688 C 23.296875 25.492188 23.871094 24.308594 24.789062 23.503906 C 23.484375 23.109375 22.328125 22.222656 21.964844 20.992188 L 20.128906 14.824219 C 22.734375 13.964844 24.433594 12.453125 24.433594 10.691406 C 24.433594 8.390625 21.535156 6.507812 17.5 5.96875 L 15.96875 0.808594 L 14.253906 0.808594 L 12.722656 5.96875 C 8.6875 6.507812 5.785156 8.390625 5.785156 10.691406 C 5.785156 12.453125 7.488281 13.964844 10.09375 14.824219 L 8.261719 20.992188 C 7.902344 22.222656 6.738281 23.109375 5.433594 23.503906 C 6.351562 24.308594 6.929688 25.492188 6.578125 26.679688 L 3.300781 37.703125 C 2.871094 39.148438 1.921875 40.410156 0.84375 41.128906 L 12.546875 41.128906 C 11.589844 40.410156 11.070312 39.148438 11.5 37.703125 L 11.785156 36.742188 L 18.441406 36.742188 L 18.726562 37.703125 C 19.15625 39.148438 18.632812 40.410156 17.679688 41.128906 M 14.105469 28.9375 L 15.113281 25.527344 L 16.125 28.9375 Z M 14.105469 28.9375 "/>
<path style=" stroke:none;fill-rule:nonzero;fill:rgb(0%,19.607843%,38.823529%);fill-opacity:1;" d="M 27.414062 40.347656 C 26.855469 39.632812 26.410156 38.800781 26.152344 37.925781 L 22.898438 26.976562 C 22.386719 25.238281 23.339844 24.003906 23.464844 23.804688 C 22.332031 23.207031 21.507812 22.292969 21.191406 21.210938 L 19.214844 14.546875 C 22.003906 13.816406 23.90625 12.367188 23.90625 10.691406 C 23.90625 8.570312 20.851562 6.804688 16.800781 6.410156 L 15.375 1.59375 L 14.855469 1.59375 L 13.425781 6.410156 C 9.375 6.800781 6.316406 8.570312 6.316406 10.691406 C 6.316406 12.367188 8.222656 13.816406 11.011719 14.546875 L 9.03125 21.210938 C 8.714844 22.292969 7.890625 23.207031 6.761719 23.804688 C 6.886719 24.003906 7.839844 25.238281 7.320312 26.976562 L 4.074219 37.925781 C 3.8125 38.800781 3.367188 39.632812 2.808594 40.347656 L 10.914062 40.347656 C 10.261719 38.933594 10.601562 37.898438 10.894531 36.925781 L 11.183594 35.957031 L 19.042969 35.957031 L 19.332031 36.925781 C 19.617188 37.898438 19.960938 38.933594 19.308594 40.347656 M 13.03125 29.71875 L 15.113281 22.714844 L 17.191406 29.71875 Z M 13.03125 29.71875 "/>
<path style=" stroke:none;fill-rule:nonzero;fill:rgb(80.392157%,6.666667%,25.490196%);fill-opacity:1;" d="M 17.265625 12.40625 L 17.269531 12.40625 L 16.226562 8.886719 L 16.429688 9.585938 C 16.003906 9.5625 15.5625 9.546875 15.113281 9.546875 L 15.113281 11.832031 L 21.355469 32.839844 L 22.792969 37.660156 L 25.257812 39.109375 C 25.085938 38.742188 24.933594 38.363281 24.816406 37.980469 L 21.707031 27.539062 C 21.21875 25.90625 21.488281 25.203125 21.839844 24.21875 C 20.910156 23.515625 20.289062 22.597656 19.984375 21.566406 L 17.628906 13.617188 C 17.625 13.617188 17.625 13.617188 17.621094 13.617188 "/>
<path style=" stroke:none;fill-rule:nonzero;fill:rgb(80.392157%,6.666667%,25.490196%);fill-opacity:1;" d="M 15.84375 7.601562 L 15.113281 5.144531 L 15.113281 7.585938 C 15.359375 7.585938 15.605469 7.59375 15.84375 7.601562 "/>
<path style=" stroke:none;fill-rule:nonzero;fill:rgb(80.392157%,6.666667%,25.490196%);fill-opacity:1;" d="M 7.394531 37.789062 L 9.390625 39.109375 C 9.28125 38.453125 9.382812 37.585938 9.574219 36.96875 L 10.238281 34.722656 L 8.867188 32.839844 "/>
<path style=" stroke:none;fill-rule:nonzero;fill:rgb(80.392157%,6.666667%,25.490196%);fill-opacity:1;" d="M 11.351562 30.957031 L 15.113281 18.304688 L 15.113281 11.832031 L 8.867188 32.839844 L 21.359375 32.839844 L 18.867188 30.957031 "/>
<path style=" stroke:none;fill-rule:nonzero;fill:rgb(56.078431%,0%,15.686275%);fill-opacity:1;" d="M 15.113281 18.304688 L 18.867188 30.957031 L 21.359375 32.839844 L 15.113281 11.832031 "/>
<path style=" stroke:none;fill-rule:nonzero;fill:rgb(56.078431%,0%,15.686275%);fill-opacity:1;" d="M 25.257812 39.109375 L 22.792969 37.660156 L 21.355469 32.839844 L 8.867188 32.839844 L 15.113281 11.832031 L 15.113281 9.546875 C 15.5625 9.546875 16.003906 9.5625 16.429688 9.585938 L 16.226562 8.886719 C 16.171875 8.882812 16.113281 8.882812 16.058594 8.878906 C 15.75 8.863281 15.4375 8.855469 15.113281 8.855469 C 14.734375 8.855469 14.363281 8.867188 14.003906 8.886719 L 12.957031 12.40625 L 12.601562 13.617188 C 12.601562 13.617188 12.597656 13.617188 12.597656 13.613281 L 10.238281 21.566406 C 9.933594 22.597656 9.320312 23.511719 8.382812 24.21875 C 8.734375 25.203125 9.003906 25.90625 8.519531 27.539062 L 5.40625 37.980469 C 5.289062 38.363281 5.140625 38.742188 4.960938 39.109375 L 9.390625 39.109375 L 7.394531 37.789062 L 8.867188 32.839844 L 10.238281 34.722656 L 19.984375 34.722656 L 20.65625 36.96875 C 20.835938 37.585938 20.9375 38.453125 20.835938 39.109375 "/>
<path style=" stroke:none;fill-rule:nonzero;fill:rgb(56.078431%,0%,15.686275%);fill-opacity:1;" d="M 15.113281 5.144531 L 14.382812 7.605469 C 14.625 7.59375 14.867188 7.585938 15.113281 7.585938 "/>
<path style=" stroke:none;fill-rule:nonzero;fill:rgb(76.862745%,80.392157%,82.745098%);fill-opacity:1;" d="M 12.957031 12.40625 C 10.695312 12.140625 9.089844 11.46875 9.089844 10.691406 C 9.089844 9.792969 11.203125 9.046875 14.003906 8.886719 C 14.363281 8.867188 14.734375 8.855469 15.113281 8.855469 C 15.4375 8.855469 15.75 8.863281 16.058594 8.878906 C 16.113281 8.882812 16.171875 8.882812 16.226562 8.886719 C 19.019531 9.046875 21.136719 9.792969 21.136719 10.691406 C 21.136719 11.46875 19.53125 12.140625 17.269531 12.40625 L 17.265625 12.40625 L 17.621094 13.617188 C 17.625 13.617188 17.625 13.613281 17.628906 13.613281 C 20.539062 13.1875 22.628906 12.042969 22.628906 10.691406 C 22.628906 9.082031 19.652344 7.753906 15.84375 7.601562 C 15.605469 7.59375 15.359375 7.585938 15.113281 7.585938 C 14.867188 7.585938 14.625 7.59375 14.382812 7.601562 C 10.570312 7.753906 7.597656 9.082031 7.597656 10.691406 C 7.597656 12.042969 9.683594 13.1875 12.597656 13.613281 C 12.597656 13.617188 12.597656 13.617188 12.601562 13.617188 "/>
<path style=" stroke:none;fill-rule:nonzero;fill:rgb(0%,19.607843%,38.823529%);fill-opacity:1;" d="M 29.695312 39.375 L 29.347656 39.375 L 29.347656 40.304688 L 29.113281 40.304688 L 29.113281 39.375 L 28.769531 39.375 L 28.769531 39.175781 L 29.695312 39.175781 M 31.265625 40.304688 L 31.03125 40.304688 L 31.03125 39.40625 L 31.027344 39.40625 L 30.691406 40.304688 L 30.464844 40.304688 L 30.144531 39.40625 L 30.140625 39.40625 L 30.140625 40.304688 L 29.90625 40.304688 L 29.90625 39.175781 L 30.308594 39.175781 L 30.578125 39.910156 L 30.585938 39.910156 L 30.859375 39.175781 L 31.265625 39.175781 Z M 31.265625 40.304688 "/>
</g>
</svg>
