<?xml version="1.0" encoding="UTF-8"?>
<svg xmlns="http://www.w3.org/2000/svg" xmlns:xlink="http://www.w3.org/1999/xlink" width="32px" height="32px" viewBox="0 0 32 33" version="1.1">
<g id="surface1">
<path style=" stroke:none;fill-rule:nonzero;fill:rgb(0%,35.294118%,61.176471%);fill-opacity:1;" d="M 29.585938 13.917969 C 28.667969 15.304688 26.136719 16.273438 18.78125 18.9375 C 18.84375 18.476562 18.964844 17.636719 19.054688 17.074219 C 19.21875 16.789062 19.417969 16.476562 19.628906 16.167969 L 19.683594 16.085938 C 19.84375 15.855469 20.019531 15.636719 20.207031 15.429688 C 20.378906 15.710938 20.640625 16.089844 21.183594 16.078125 C 23.007812 16.027344 23.804688 12.632812 24.089844 11.300781 C 24.234375 11.335938 24.382812 11.351562 24.535156 11.351562 C 24.40625 11.78125 23.386719 14.078125 24.738281 14.464844 C 26.082031 14.859375 26.90625 11.160156 27.148438 10.359375 C 27.96875 11.300781 27.761719 12.292969 27.347656 12.496094 C 27.132812 12.601562 26.894531 12.277344 26.652344 12.503906 C 26.300781 12.84375 26.535156 13.398438 27.019531 13.480469 C 27.722656 13.59375 28.179688 13.125 28.640625 12.636719 C 28.789062 12.492188 29.332031 12.160156 29.664062 12.398438 C 30.171875 12.742188 29.804688 13.585938 29.585938 13.917969 Z M 17.53125 16.710938 C 16.789062 16.851562 17.027344 13.96875 18.128906 13.832031 C 18.34375 13.8125 18.5625 14.066406 18.519531 14.488281 C 18.480469 14.878906 18.410156 15.269531 18.300781 15.648438 C 18.160156 16.085938 17.925781 16.640625 17.53125 16.710938 Z M 21.847656 12.214844 C 22.398438 12.492188 21.4375 13.644531 21 14.113281 C 21.070312 13.054688 21.601562 12.089844 21.847656 12.214844 Z M 17.890625 19.234375 C 17.890625 19.234375 17.636719 19.347656 17.515625 19.390625 C 17.683594 19.144531 17.988281 18.574219 18.050781 18.46875 C 18.023438 18.65625 17.890625 19.234375 17.890625 19.234375 Z M 16.652344 22.667969 C 16.164062 22.75 16.414062 21.519531 16.792969 20.929688 C 17.289062 20.738281 17.707031 20.542969 17.707031 20.542969 C 17.453125 21.757812 17.234375 22.5625 16.652344 22.667969 Z M 14.746094 16.019531 C 14.738281 16.148438 14.597656 17.246094 14.5625 17.363281 C 14.425781 17.917969 14.144531 18.320312 13.75 18.300781 C 13.070312 18.277344 13.375 15.429688 14.34375 15.527344 C 14.464844 15.53125 14.578125 15.585938 14.65625 15.683594 C 14.734375 15.777344 14.765625 15.902344 14.746094 16.019531 Z M 10.3125 19.945312 C 9.761719 19.832031 9.78125 18.363281 10.164062 17.714844 C 10.414062 18.164062 11.070312 18.214844 11.464844 18.160156 C 11.492188 18.796875 11 20.078125 10.3125 19.945312 Z M 11.445312 17.46875 C 11.328125 17.5 11.210938 17.507812 11.089844 17.496094 C 10.816406 17.46875 10.609375 17.335938 10.589844 17.222656 C 10.453125 16.597656 11.414062 16.6875 11.445312 17.46875 Z M 30.5 12.371094 C 30.171875 11.449219 28.9375 11.632812 28.625 11.921875 C 28.625 10.710938 28.011719 10.378906 27.367188 9.636719 C 27.226562 9.113281 27.644531 8.9375 27.699219 8.496094 C 27.8125 7.589844 26.386719 7.847656 26.789062 9.707031 C 26.617188 10.570312 25.699219 13.222656 25.21875 13.292969 C 24.941406 13.328125 24.921875 12.882812 25.070312 12.355469 C 25.210938 11.828125 25.976562 10.871094 25.5 10.386719 C 25.226562 10.105469 24.71875 10.527344 24.257812 10.273438 C 24.257812 10.273438 24.273438 9.894531 24.152344 9.753906 C 24.023438 9.636719 23.828125 9.636719 23.699219 9.753906 C 23.351562 10.023438 23.339844 10.753906 23.523438 11.117188 C 23.382812 12.027344 23.269531 12.390625 22.824219 13.609375 C 22.371094 14.867188 21.289062 15.464844 21.042969 14.699219 C 23.203125 12.632812 22.722656 11.835938 22.386719 11.554688 C 21.828125 11.097656 20.101562 11.921875 20.015625 14.53125 C 20.019531 14.65625 20.03125 14.78125 20.050781 14.902344 C 19.882812 15.105469 19.585938 15.472656 19.203125 15.992188 C 19.382812 14.839844 19.628906 13.160156 19.714844 12.539062 C 19.433594 12.710938 19.125 12.828125 18.800781 12.878906 L 18.738281 13.304688 C 18.277344 12.617188 16.128906 13.265625 16.207031 16.640625 C 16.101562 17.679688 15.542969 17.792969 15.523438 17.546875 C 15.453125 16.316406 16.222656 12.679688 16.484375 11.363281 C 16.207031 11.519531 15.902344 11.617188 15.585938 11.652344 C 15.585938 11.652344 14.921875 15 14.90625 15 C 14.675781 14.796875 14.351562 14.730469 14.058594 14.824219 C 13.253906 15.015625 12.625 16.148438 12.582031 16.863281 C 12.445312 17.007812 12.285156 17.125 12.109375 17.214844 C 12.007812 16.789062 11.8125 16.394531 11.367188 16.261719 C 9.902344 15.816406 8.703125 17.976562 9.089844 20.007812 C 9.207031 20.386719 9.449219 20.714844 9.78125 20.9375 C 10.816406 21.441406 12.15625 20.058594 12.171875 17.898438 C 12.324219 17.792969 12.453125 17.660156 12.554688 17.503906 C 12.460938 18.160156 12.667969 19.382812 13.410156 19.488281 C 14.207031 19.609375 14.652344 18.65625 14.773438 18.257812 C 14.871094 18.523438 15.125 18.699219 15.410156 18.699219 C 16.09375 18.671875 16.308594 17.808594 16.433594 17.433594 C 17.035156 18.390625 18.011719 17.511719 18.230469 16.949219 L 18.152344 17.414062 C 17.601562 18.074219 16.574219 19.714844 16.574219 19.714844 C 14.667969 20.402344 10.957031 21.765625 9.429688 24.046875 C 10.195312 23.898438 10.984375 23.921875 11.742188 24.117188 C 11.988281 23.449219 13.5 22.105469 15.726562 21.367188 C 15.183594 22.460938 15.289062 24.082031 16.222656 24.066406 C 17.832031 24.03125 18.363281 21.273438 18.589844 20.226562 C 20.023438 19.613281 22.582031 18.628906 25.261719 17.492188 C 27.742188 16.429688 31.304688 14.648438 30.5 12.371094 Z M 1.371094 24.109375 C 1.265625 23.847656 1.980469 23.230469 2.617188 23.203125 C 2.371094 23.625 1.472656 24.367188 1.371094 24.109375 Z M 0.03125 18.066406 C -0.0820312 19.101562 0.109375 19.796875 0.914062 20.128906 C 1.507812 20.375 2.191406 19.855469 2.382812 19.558594 C 2.582031 19.261719 2.707031 18.921875 2.75 18.566406 C 2.75 18.566406 1.628906 19.644531 0.976562 18.65625 C 0.601562 18.089844 0.800781 16.402344 3.003906 15.203125 C 5.210938 14.015625 6.304688 14.988281 6.304688 14.988281 C 7.632812 15.730469 7.691406 17.949219 7.300781 19.664062 C 7.003906 20.945312 6.398438 22.285156 5.011719 22.539062 C 4.496094 22.632812 4.296875 22.574219 3.824219 22.5625 C 4.167969 21.777344 4.371094 20.9375 4.425781 20.085938 C 4.757812 16.050781 5.195312 15.660156 5.597656 15.058594 C 2.601562 16.578125 3.464844 21.730469 2.878906 22.582031 C 0.679688 22.90625 0.179688 24.691406 0.617188 24.972656 C 0.949219 25.183594 2.441406 24.785156 3.457031 23.144531 C 4.191406 23.132812 6.546875 23.777344 7.980469 21.175781 C 8.949219 19.417969 9.261719 16.34375 7.699219 14.824219 C 5.457031 12.632812 0.382812 14.875 0.03125 18.066406 Z M 0.03125 18.066406 "/>
<path style=" stroke:none;fill-rule:nonzero;fill:rgb(100%,100%,100%);fill-opacity:1;" d="M 21.890625 5.300781 C 22.433594 4.972656 22.839844 4.460938 23.035156 3.859375 C 23.234375 3.257812 23.199219 2.601562 22.941406 2.019531 C 21.820312 2.699219 21.371094 4.101562 21.890625 5.300781 Z M 21.890625 5.300781 "/>
<path style=" stroke:none;fill-rule:nonzero;fill:rgb(100%,100%,100%);fill-opacity:1;" d="M 19.707031 5.554688 C 19.96875 5.644531 20.242188 5.691406 20.519531 5.691406 C 20.859375 5.6875 21.199219 5.621094 21.515625 5.492188 C 20.890625 4.085938 21.421875 2.4375 22.753906 1.652344 C 22.269531 0.886719 21.425781 0.421875 20.519531 0.421875 C 20.167969 0.421875 19.820312 0.488281 19.496094 0.617188 C 19.792969 1.292969 19.832031 2.054688 19.601562 2.757812 C 19.375 3.460938 18.902344 4.058594 18.265625 4.4375 C 18.59375 4.96875 19.105469 5.367188 19.707031 5.554688 Z M 19.707031 5.554688 "/>
<path style=" stroke:none;fill-rule:nonzero;fill:rgb(100%,100%,100%);fill-opacity:1;" d="M 19.203125 2.628906 C 19.398438 2.035156 19.371094 1.386719 19.125 0.808594 C 18.019531 1.488281 17.570312 2.871094 18.074219 4.066406 C 18.613281 3.738281 19.015625 3.230469 19.203125 2.628906 Z M 19.203125 2.628906 "/>
<path style=" stroke:none;fill-rule:nonzero;fill:rgb(93.72549%,24.313725%,25.882353%);fill-opacity:1;" d="M 22.625 5.773438 C 22.570312 5.761719 22.515625 5.777344 22.46875 5.808594 C 22.421875 5.839844 22.394531 5.886719 22.386719 5.941406 L 21.585938 10.269531 C 21.5625 10.378906 21.636719 10.492188 21.75 10.515625 L 21.792969 10.515625 C 21.890625 10.511719 21.976562 10.441406 21.996094 10.34375 L 22.792969 6.019531 C 22.816406 5.90625 22.738281 5.796875 22.625 5.773438 Z M 20.886719 6.757812 C 20.773438 6.734375 20.664062 6.808594 20.640625 6.921875 L 19.664062 11.246094 C 19.644531 11.359375 19.714844 11.464844 19.828125 11.492188 C 19.839844 11.492188 19.855469 11.5 19.867188 11.5 C 19.96875 11.496094 20.054688 11.425781 20.074219 11.328125 L 21.042969 7.011719 C 21.054688 6.957031 21.046875 6.902344 21.015625 6.851562 C 20.988281 6.804688 20.941406 6.773438 20.886719 6.757812 Z M 19.902344 20.78125 C 19.789062 20.765625 19.679688 20.839844 19.65625 20.949219 L 18.878906 24.964844 C 18.871094 25.019531 18.882812 25.074219 18.914062 25.121094 C 18.945312 25.164062 18.996094 25.195312 19.050781 25.207031 C 19.0625 25.210938 19.078125 25.214844 19.089844 25.210938 C 19.191406 25.207031 19.273438 25.132812 19.289062 25.035156 L 20.074219 21.027344 C 20.09375 20.914062 20.019531 20.804688 19.902344 20.78125 Z M 16.851562 24.75 C 16.738281 24.726562 16.625 24.796875 16.597656 24.910156 L 15.980469 27.660156 C 15.96875 27.714844 15.976562 27.769531 16.007812 27.820312 C 16.035156 27.867188 16.082031 27.898438 16.136719 27.914062 L 16.1875 27.914062 C 16.28125 27.914062 16.367188 27.84375 16.382812 27.75 L 17.007812 24.996094 C 17.019531 24.941406 17.011719 24.886719 16.980469 24.839844 C 16.953125 24.792969 16.90625 24.761719 16.851562 24.75 Z M 19.429688 6.632812 C 19.320312 6.601562 19.203125 6.664062 19.167969 6.773438 L 17.523438 12.074219 C 17.503906 12.128906 17.507812 12.183594 17.53125 12.234375 C 17.558594 12.285156 17.601562 12.320312 17.65625 12.335938 C 17.675781 12.347656 17.699219 12.351562 17.71875 12.347656 C 17.8125 12.347656 17.890625 12.289062 17.917969 12.203125 L 19.566406 6.898438 C 19.597656 6.789062 19.539062 6.671875 19.429688 6.632812 Z M 14.425781 22.75 C 14.316406 22.714844 14.199219 22.777344 14.164062 22.882812 L 13.769531 24.15625 C 13.734375 24.269531 13.792969 24.386719 13.902344 24.425781 C 13.925781 24.425781 13.945312 24.433594 13.96875 24.433594 C 14.058594 24.433594 14.140625 24.371094 14.164062 24.285156 L 14.5625 23.011719 C 14.59375 22.902344 14.535156 22.785156 14.425781 22.75 Z M 13.65625 25.234375 C 13.601562 25.21875 13.542969 25.222656 13.496094 25.25 C 13.445312 25.277344 13.410156 25.320312 13.394531 25.375 L 11.167969 32.535156 C 11.132812 32.640625 11.195312 32.757812 11.304688 32.792969 C 11.324219 32.800781 11.34375 32.808594 11.367188 32.808594 C 11.457031 32.804688 11.539062 32.746094 11.570312 32.660156 L 13.789062 25.492188 C 13.824219 25.386719 13.765625 25.269531 13.65625 25.234375 Z M 16.496094 9.945312 C 16.523438 9.957031 16.554688 9.964844 16.582031 9.964844 C 16.664062 9.964844 16.742188 9.914062 16.773438 9.839844 L 18.328125 6.308594 C 18.375 6.203125 18.328125 6.082031 18.222656 6.035156 C 18.117188 5.988281 17.992188 6.035156 17.945312 6.140625 L 16.390625 9.671875 C 16.347656 9.773438 16.394531 9.894531 16.496094 9.945312 Z M 10.003906 24.726562 C 9.953125 24.703125 9.894531 24.703125 9.84375 24.722656 C 9.789062 24.742188 9.75 24.78125 9.726562 24.832031 L 8.601562 27.386719 C 8.578125 27.4375 8.578125 27.492188 8.597656 27.546875 C 8.617188 27.597656 8.65625 27.636719 8.707031 27.660156 C 8.734375 27.671875 8.765625 27.679688 8.792969 27.679688 C 8.875 27.679688 8.949219 27.628906 8.984375 27.554688 L 10.109375 25 C 10.132812 24.953125 10.132812 24.894531 10.113281 24.84375 C 10.09375 24.789062 10.054688 24.75 10.003906 24.726562 Z M 17.253906 4.28125 C 17.152344 4.226562 17.027344 4.261719 16.972656 4.359375 L 14.800781 8.242188 C 14.742188 8.34375 14.777344 8.472656 14.878906 8.53125 C 14.914062 8.542969 14.949219 8.550781 14.984375 8.550781 C 15.058594 8.554688 15.128906 8.511719 15.160156 8.445312 L 17.332031 4.5625 C 17.386719 4.464844 17.351562 4.339844 17.253906 4.28125 Z M 11.332031 15.28125 L 14.53125 9.585938 C 14.585938 9.484375 14.546875 9.359375 14.449219 9.304688 C 14.347656 9.25 14.222656 9.28125 14.164062 9.382812 L 10.964844 15.085938 C 10.9375 15.132812 10.929688 15.191406 10.945312 15.242188 C 10.960938 15.296875 11 15.339844 11.046875 15.367188 C 11.078125 15.386719 11.113281 15.394531 11.148438 15.394531 C 11.222656 15.394531 11.296875 15.351562 11.332031 15.28125 Z M 6.40625 23.707031 C 6.300781 23.652344 6.171875 23.691406 6.113281 23.792969 L 4.453125 26.765625 C 4.402344 26.867188 4.4375 26.992188 4.539062 27.046875 C 4.570312 27.0625 4.605469 27.070312 4.636719 27.070312 C 4.714844 27.074219 4.785156 27.03125 4.820312 26.964844 L 6.484375 23.988281 C 6.539062 23.890625 6.503906 23.765625 6.40625 23.707031 Z M 19.601562 2.757812 C 19.832031 2.054688 19.792969 1.292969 19.496094 0.617188 C 19.820312 0.488281 20.167969 0.421875 20.519531 0.421875 C 21.425781 0.421875 22.269531 0.886719 22.753906 1.652344 C 21.421875 2.4375 20.894531 4.085938 21.515625 5.492188 C 21.199219 5.621094 20.859375 5.6875 20.519531 5.691406 C 20.242188 5.691406 19.96875 5.644531 19.707031 5.554688 C 19.105469 5.367188 18.59375 4.96875 18.265625 4.4375 C 18.902344 4.058594 19.375 3.460938 19.601562 2.757812 Z M 17.996094 2.242188 C 18.191406 1.648438 18.589844 1.136719 19.125 0.808594 C 19.371094 1.386719 19.398438 2.035156 19.203125 2.628906 C 19.015625 3.230469 18.613281 3.738281 18.074219 4.066406 C 17.832031 3.484375 17.804688 2.839844 17.996094 2.242188 Z M 23.035156 3.859375 C 22.839844 4.460938 22.433594 4.972656 21.890625 5.300781 C 21.371094 4.101562 21.820312 2.699219 22.941406 2.019531 C 23.199219 2.601562 23.234375 3.257812 23.035156 3.859375 Z M 23.238281 1.660156 C 22.605469 0.433594 21.222656 -0.21875 19.867188 0.0742188 C 18.511719 0.367188 17.523438 1.527344 17.457031 2.90625 C 17.386719 4.285156 18.257812 5.535156 19.578125 5.957031 C 20.351562 6.207031 21.191406 6.136719 21.917969 5.769531 C 22.640625 5.398438 23.183594 4.757812 23.429688 3.988281 C 23.683594 3.21875 23.617188 2.378906 23.238281 1.660156 Z M 23.238281 1.660156 "/>
<path style=" stroke:none;fill-rule:nonzero;fill:rgb(0%,35.294118%,61.176471%);fill-opacity:1;" d="M 31.367188 14.355469 L 31.234375 14.355469 L 31.234375 14.234375 L 31.347656 14.234375 C 31.394531 14.234375 31.460938 14.234375 31.460938 14.289062 C 31.460938 14.339844 31.425781 14.355469 31.367188 14.355469 Z M 31.558594 14.296875 C 31.558594 14.164062 31.480469 14.144531 31.367188 14.144531 L 31.128906 14.144531 L 31.128906 14.640625 L 31.234375 14.640625 L 31.234375 14.445312 L 31.320312 14.445312 L 31.429688 14.640625 L 31.542969 14.640625 L 31.425781 14.445312 C 31.464844 14.445312 31.5 14.429688 31.527344 14.402344 C 31.550781 14.375 31.5625 14.335938 31.558594 14.296875 Z M 31.558594 14.296875 "/>
<path style=" stroke:none;fill-rule:nonzero;fill:rgb(0%,35.294118%,61.176471%);fill-opacity:1;" d="M 31.324219 14.769531 C 31.121094 14.765625 30.957031 14.597656 30.957031 14.394531 C 30.957031 14.191406 31.121094 14.027344 31.324219 14.023438 C 31.53125 14.023438 31.699219 14.191406 31.699219 14.394531 C 31.699219 14.601562 31.53125 14.769531 31.324219 14.769531 Z M 31.324219 13.917969 C 31.0625 13.917969 30.851562 14.132812 30.851562 14.394531 C 30.851562 14.65625 31.066406 14.867188 31.328125 14.867188 C 31.589844 14.867188 31.804688 14.65625 31.804688 14.394531 C 31.808594 14.269531 31.757812 14.148438 31.667969 14.058594 C 31.574219 13.96875 31.453125 13.917969 31.324219 13.917969 Z M 31.324219 13.917969 "/>
</g>
</svg>
