<?xml version="1.0" encoding="UTF-8"?>
<svg xmlns="http://www.w3.org/2000/svg" xmlns:xlink="http://www.w3.org/1999/xlink" width="32px" height="32px" viewBox="0 0 32 32" version="1.1">
<g id="surface1">
<path style=" stroke:none;fill-rule:nonzero;fill:rgb(7.058824%,15.686275%,29.411765%);fill-opacity:1;" d="M 16 0.742188 C 7.59375 0.742188 0.742188 7.59375 0.742188 16 C 0.742188 24.40625 7.59375 31.257812 16 31.257812 C 24.40625 31.257812 31.257812 24.40625 31.257812 16 C 31.257812 7.59375 24.40625 0.742188 16 0.742188 "/>
<path style=" stroke:none;fill-rule:nonzero;fill:rgb(100%,77.254902%,18.431373%);fill-opacity:1;" d="M 16 0 C 7.183594 0 0 7.183594 0 16 C 0 24.816406 7.183594 32 16 32 C 24.816406 32 32 24.816406 32 16 C 32 7.183594 24.816406 0 16 0 M 0.742188 16 C 0.742188 7.59375 7.59375 0.742188 16 0.742188 C 24.40625 0.742188 31.257812 7.59375 31.257812 16 C 31.257812 24.40625 24.40625 31.257812 16 31.257812 C 7.59375 31.257812 0.742188 24.40625 0.742188 16 "/>
<path style=" stroke:none;fill-rule:nonzero;fill:rgb(0%,24.313725%,62.745098%);fill-opacity:1;" d="M 16 30.554688 C 7.964844 30.554688 1.445312 24.035156 1.445312 16 C 1.445312 7.964844 7.964844 1.445312 16 1.445312 C 24.035156 1.445312 30.554688 7.964844 30.554688 16 C 30.554688 24.035156 24.035156 30.554688 16 30.554688 M 16 1.816406 C 8.183594 1.816406 1.816406 8.183594 1.816406 16 C 1.816406 23.816406 8.183594 30.183594 16 30.183594 C 23.816406 30.183594 30.183594 23.816406 30.183594 16 C 30.183594 8.183594 23.816406 1.816406 16 1.816406 "/>
<path style=" stroke:none;fill-rule:nonzero;fill:rgb(100%,77.254902%,18.431373%);fill-opacity:1;" d="M 23.183594 12.816406 L 23.183594 14.964844 C 23.183594 16.742188 22.890625 17.816406 21.480469 20.816406 C 20 23.925781 18.183594 24.851562 16 24.851562 C 14.554688 24.851562 13.222656 24.371094 12.148438 23.519531 L 11.890625 23.296875 L 11.851562 23.257812 C 11.554688 23 11.296875 22.703125 11.035156 22.371094 C 11 22.332031 11 22.332031 10.964844 22.296875 C 10.964844 22.257812 10.925781 22.257812 10.925781 22.222656 C 10.777344 22.035156 10.667969 21.851562 10.554688 21.667969 C 10.554688 21.628906 10.519531 21.628906 10.519531 21.59375 C 10.148438 20.964844 9.925781 20.296875 9.742188 19.777344 C 9.667969 19.628906 9.628906 19.480469 9.59375 19.332031 C 9.183594 18.257812 8.371094 16.222656 8 15.183594 C 7.59375 14.074219 7.519531 13.332031 7.777344 12.59375 C 8.035156 11.816406 8.667969 11.222656 9.519531 10.519531 C 10.371094 9.816406 11.074219 9.257812 12.074219 8.554688 C 12.703125 8.109375 13.371094 7.851562 14 7.851562 C 14.257812 7.851562 14.519531 7.890625 14.777344 7.964844 C 14.816406 7.964844 14.851562 8 14.925781 8.035156 C 15.148438 8.109375 15.332031 8.222656 15.480469 8.371094 C 15.480469 8.371094 15.519531 8.332031 15.519531 8.332031 C 15.964844 8.074219 16.480469 7.925781 17 7.925781 C 17.40625 7.925781 17.816406 8 18.148438 8.183594 C 18.222656 8.222656 18.257812 8.257812 18.332031 8.257812 C 18.371094 8.257812 18.371094 8.296875 18.40625 8.296875 C 18.667969 8.445312 18.925781 8.628906 19.109375 8.816406 C 19.40625 8.703125 19.703125 8.667969 20 8.667969 C 20.445312 8.667969 20.816406 8.777344 21.183594 9 L 21.257812 9.035156 C 21.40625 9.148438 21.519531 9.183594 21.628906 9.296875 C 22.667969 10.035156 23.183594 10.777344 23.183594 12.816406 "/>
<path style=" stroke:none;fill-rule:nonzero;fill:rgb(7.058824%,15.686275%,29.411765%);fill-opacity:1;" d="M 21.296875 9.890625 C 21.148438 9.777344 21.074219 9.742188 20.851562 9.59375 C 20.40625 9.296875 19.851562 9.222656 19.035156 9.59375 C 19 9.59375 18.964844 9.628906 18.890625 9.628906 C 18.703125 9.257812 18.40625 9.035156 18.148438 8.890625 C 18.035156 8.816406 18 8.816406 17.890625 8.777344 C 17.332031 8.519531 16.554688 8.480469 15.851562 8.925781 C 15.703125 9 15.519531 9.109375 15.332031 9.222656 C 15.148438 8.925781 14.925781 8.777344 14.667969 8.667969 C 14.59375 8.628906 14.554688 8.628906 14.519531 8.628906 C 14 8.445312 13.183594 8.554688 12.40625 9.109375 C 11.480469 9.777344 10.777344 10.332031 9.890625 11.074219 C 8.257812 12.40625 7.890625 13.183594 8.554688 15 C 8.925781 16 9.703125 18 10.148438 19.148438 C 10.40625 19.816406 10.667969 20.667969 11.148438 21.480469 C 11.183594 21.554688 11.222656 21.628906 11.296875 21.703125 C 11.296875 21.742188 11.332031 21.742188 11.332031 21.777344 C 11.554688 22.109375 11.816406 22.445312 12.109375 22.742188 C 12.148438 22.777344 12.148438 22.777344 12.183594 22.816406 C 12.183594 22.816406 12.222656 22.851562 12.222656 22.851562 C 13.222656 23.742188 14.519531 24.296875 15.964844 24.296875 C 18.628906 24.296875 20.816406 22.109375 20.816406 19.445312 C 20.816406 16.890625 18.742188 14.816406 16.183594 14.816406 C 14.816406 14.816406 13.40625 15.628906 12.59375 16.890625 C 12.257812 16.035156 11.480469 14.183594 10.925781 12.816406 C 10.628906 12.074219 10.703125 11.703125 11.148438 11.257812 C 11.371094 11.035156 11.667969 10.816406 12 10.59375 C 12.332031 10.371094 12.703125 10.519531 12.703125 10.925781 L 12.703125 15.480469 C 13.445312 14.742188 14.371094 14.222656 15.519531 14.035156 L 15.519531 10.257812 C 15.59375 10.222656 15.667969 10.148438 15.742188 10.109375 C 16.035156 9.925781 16.257812 10.148438 16.257812 10.40625 L 16.257812 13.925781 C 16.296875 13.925781 16.296875 13.925781 16.332031 13.925781 C 17.332031 13.925781 18.257812 14.183594 19.035156 14.667969 L 19.035156 10.703125 C 19.109375 10.667969 19.183594 10.628906 19.222656 10.628906 C 19.519531 10.519531 19.742188 10.703125 19.742188 10.964844 C 19.742188 11.222656 19.703125 15.148438 19.703125 15.148438 C 20.816406 16.035156 21.519531 17.40625 21.628906 18.890625 C 22.148438 17.777344 22.519531 16.742188 22.519531 14.964844 L 22.519531 12.816406 C 22.554688 11.035156 22.148438 10.480469 21.296875 9.890625 M 16.183594 16.628906 C 17.742188 16.628906 18.964844 17.890625 18.964844 19.40625 C 18.964844 20.964844 17.703125 22.183594 16.183594 22.183594 C 14.628906 22.183594 13.40625 20.925781 13.40625 19.40625 C 13.40625 17.890625 14.667969 16.628906 16.183594 16.628906 "/>
<path style=" stroke:none;fill-rule:nonzero;fill:rgb(100%,100%,100%);fill-opacity:1;" d="M 14.074219 19.40625 C 14.074219 18.890625 14.257812 18.445312 14.554688 18.074219 C 15.148438 18.851562 15.148438 19.964844 14.554688 20.742188 C 14.257812 20.40625 14.074219 19.925781 14.074219 19.40625 M 14.925781 21.109375 C 15.703125 20.109375 15.703125 18.703125 14.925781 17.742188 C 15.296875 17.480469 15.703125 17.332031 16.183594 17.332031 C 16.667969 17.332031 17.109375 17.480469 17.445312 17.742188 C 16.667969 18.742188 16.667969 20.148438 17.445312 21.109375 C 17.074219 21.371094 16.667969 21.554688 16.183594 21.554688 C 15.703125 21.554688 15.257812 21.371094 14.925781 21.109375 M 17.851562 20.777344 C 17.257812 20 17.257812 18.890625 17.851562 18.109375 C 18.148438 18.480469 18.332031 18.925781 18.332031 19.445312 C 18.296875 19.925781 18.148438 20.40625 17.851562 20.777344 "/>
<path style=" stroke:none;fill-rule:nonzero;fill:rgb(100%,100%,100%);fill-opacity:1;" d="M 5.777344 11.554688 L 4.964844 11.554688 L 6.109375 12.074219 L 5.890625 12.554688 L 5.554688 12.40625 L 5.628906 12.296875 L 4.109375 11.59375 L 4.074219 11.703125 L 3.742188 11.554688 L 3.925781 11.109375 L 4.109375 11.183594 L 5.296875 11.183594 L 4.519531 10.296875 L 4.371094 10.183594 L 4.554688 9.742188 L 4.890625 9.890625 L 4.851562 10 L 6.332031 10.667969 L 6.40625 10.554688 L 6.742188 10.703125 L 6.519531 11.183594 L 5.371094 10.667969 L 5.925781 11.296875 Z M 5.777344 11.554688 "/>
<path style=" stroke:none;fill-rule:nonzero;fill:rgb(100%,100%,100%);fill-opacity:1;" d="M 6.332031 7.296875 L 6.628906 7.554688 L 6.554688 7.628906 L 7.777344 8.703125 L 7.890625 8.628906 L 8.148438 8.851562 L 7.703125 9.371094 L 7.445312 9.109375 L 7.519531 9 L 6.296875 7.925781 L 6.183594 8.035156 L 5.925781 7.816406 Z M 6.332031 7.296875 "/>
<path style=" stroke:none;fill-rule:nonzero;fill:rgb(100%,100%,100%);fill-opacity:1;" d="M 9.851562 6.742188 L 10.183594 6.519531 L 10.480469 6.925781 L 9.371094 7.703125 L 9.148438 7.40625 L 9.257812 7.332031 L 8.332031 5.964844 L 8.222656 6.035156 L 8 5.742188 L 8.554688 5.371094 L 8.777344 5.667969 L 8.667969 5.742188 L 9.59375 7.109375 L 9.925781 6.851562 Z M 9.851562 6.742188 "/>
<path style=" stroke:none;fill-rule:nonzero;fill:rgb(100%,100%,100%);fill-opacity:1;" d="M 13.109375 3.296875 L 13.222656 3.628906 L 13.109375 3.667969 L 13.332031 5.519531 L 13.371094 5.703125 L 13 5.816406 L 12.964844 5.667969 L 12.296875 4.59375 L 12.40625 5.816406 L 12.445312 6 L 12.074219 6.109375 L 12.035156 5.964844 L 11.109375 4.332031 L 11 4.371094 L 10.890625 4 L 11.332031 3.851562 L 11.40625 4.035156 L 12 5.109375 L 11.890625 3.890625 L 12.222656 3.777344 L 12.851562 4.816406 L 12.703125 3.628906 L 12.667969 3.445312 Z M 13.109375 3.296875 "/>
<path style=" stroke:none;fill-rule:nonzero;fill:rgb(100%,100%,100%);fill-opacity:1;" d="M 16.816406 5.035156 L 16.925781 5.035156 L 16.925781 5.40625 L 16.40625 5.40625 L 16.40625 4.777344 L 15.816406 4.777344 L 15.816406 5.40625 L 15.296875 5.40625 L 15.296875 5.035156 L 15.40625 5.035156 L 15.445312 3.777344 L 15.816406 3.035156 L 16.519531 3.035156 L 16.851562 3.777344 Z M 16.40625 3.851562 L 16.222656 3.40625 L 16 3.40625 L 15.777344 3.851562 L 15.777344 4.40625 L 16.40625 4.40625 Z M 16.40625 3.851562 "/>
<path style=" stroke:none;fill-rule:nonzero;fill:rgb(100%,100%,100%);fill-opacity:1;" d="M 20.742188 3.890625 L 20.628906 4.222656 L 20.480469 4.183594 L 20.035156 5.628906 L 19.667969 6.035156 L 18.816406 5.777344 L 18.742188 5.222656 L 19.183594 3.777344 L 19.074219 3.742188 L 19.183594 3.371094 L 19.667969 3.554688 L 19.148438 5.257812 L 19.183594 5.480469 L 19.519531 5.59375 L 19.667969 5.445312 L 20.222656 3.703125 Z M 20.742188 3.890625 "/>
<path style=" stroke:none;fill-rule:nonzero;fill:rgb(100%,100%,100%);fill-opacity:1;" d="M 23.703125 5.554688 L 24 5.742188 L 23.816406 6.035156 L 23.703125 5.964844 L 22.925781 6.445312 L 22.777344 7.332031 L 22.890625 7.40625 L 22.667969 7.703125 L 22.371094 7.519531 L 22.554688 6.40625 L 22.40625 6.296875 L 21.851562 7.148438 L 21.40625 6.851562 L 21.59375 6.519531 L 21.703125 6.59375 L 22.628906 5.257812 L 22.554688 5.183594 L 22.742188 4.890625 L 23.183594 5.183594 L 22.628906 6 L 22.777344 6.109375 Z M 23.703125 5.554688 "/>
<path style=" stroke:none;fill-rule:nonzero;fill:rgb(100%,100%,100%);fill-opacity:1;" d="M 25.890625 8.332031 L 26 8.257812 L 25.742188 7.964844 L 25.222656 8.332031 L 25.628906 8.816406 L 25.332031 9.035156 L 24.964844 8.59375 L 24.445312 9 L 24.703125 9.296875 L 24.816406 9.222656 L 25.074219 9.519531 L 24.667969 9.851562 L 23.851562 8.816406 L 24.109375 8.554688 L 24.183594 8.667969 L 25.480469 7.628906 L 25.40625 7.519531 L 25.667969 7.296875 L 26.519531 8.332031 L 26.148438 8.667969 Z M 25.890625 8.332031 "/>
<path style=" stroke:none;fill-rule:nonzero;fill:rgb(100%,100%,100%);fill-opacity:1;" d="M 27.59375 11.296875 L 27.742188 11.257812 L 27.554688 10.890625 L 26.964844 11.148438 L 27.222656 11.703125 L 26.890625 11.851562 L 26.628906 11.296875 L 26.035156 11.554688 L 26.222656 11.925781 L 26.332031 11.851562 L 26.480469 12.222656 L 26.035156 12.40625 L 25.519531 11.183594 L 25.851562 11.035156 L 25.890625 11.183594 L 27.40625 10.519531 L 27.332031 10.40625 L 27.703125 10.257812 L 28.222656 11.480469 L 27.777344 11.667969 Z M 27.59375 11.296875 "/>
<path style=" stroke:none;fill-rule:nonzero;fill:rgb(100%,100%,100%);fill-opacity:1;" d="M 6.074219 24.480469 L 5.257812 23.445312 L 5.554688 23.222656 L 5.628906 23.332031 L 6.925781 22.332031 L 6.851562 22.222656 L 7.148438 22 L 7.964844 23.035156 L 7.777344 23.40625 L 7.371094 23.703125 L 7.035156 23.777344 L 6.890625 24.074219 L 6.480469 24.40625 Z M 6.667969 23.742188 L 6.742188 23.628906 L 6.40625 23.222656 L 5.890625 23.628906 L 6.183594 24.035156 L 6.332031 24 Z M 7.183594 22.628906 L 6.667969 23.035156 L 7 23.445312 L 7.109375 23.40625 L 7.445312 23.148438 L 7.519531 23.035156 Z M 7.183594 22.628906 "/>
<path style=" stroke:none;fill-rule:nonzero;fill:rgb(100%,100%,100%);fill-opacity:1;" d="M 9.296875 26.816406 L 9.40625 26.890625 L 9.183594 27.183594 L 8.890625 26.964844 L 9.074219 26 L 8.890625 25.851562 L 8.371094 26.59375 L 7.925781 26.296875 L 8.148438 26 L 8.257812 26.074219 L 9.183594 24.703125 L 9.074219 24.628906 L 9.296875 24.332031 L 10.332031 25.074219 L 10.222656 25.59375 L 9.925781 26 L 9.480469 26.257812 L 9.40625 26.222656 Z M 9.074219 25.554688 L 9.480469 25.851562 L 9.59375 25.777344 L 9.890625 25.371094 L 9.925781 25.222656 L 9.519531 24.925781 Z M 9.074219 25.554688 "/>
<path style=" stroke:none;fill-rule:nonzero;fill:rgb(100%,100%,100%);fill-opacity:1;" d="M 12.816406 26.703125 L 12.851562 26.59375 L 12.480469 26.480469 L 12.257812 27.074219 L 12.851562 27.257812 L 12.742188 27.59375 L 12.148438 27.40625 L 11.964844 28.035156 L 12.332031 28.148438 L 12.40625 28.035156 L 12.777344 28.148438 L 12.628906 28.628906 L 11.332031 28.222656 L 11.445312 27.851562 L 11.59375 27.890625 L 12.109375 26.332031 L 11.964844 26.296875 L 12.074219 25.964844 L 13.371094 26.371094 L 13.183594 26.851562 Z M 12.816406 26.703125 "/>
<path style=" stroke:none;fill-rule:nonzero;fill:rgb(100%,100%,100%);fill-opacity:1;" d="M 17.257812 26.667969 L 17.257812 27.035156 L 17.148438 27.035156 L 16.816406 28.851562 L 16.816406 29.035156 L 16.40625 29.035156 L 16.40625 28.851562 L 16.109375 27.667969 L 15.851562 28.890625 L 15.851562 29.074219 L 15.445312 29.074219 L 15.445312 28.890625 L 15.074219 27.074219 L 14.925781 27.074219 L 14.925781 26.703125 L 15.40625 26.703125 L 15.40625 26.851562 L 15.667969 28.035156 L 15.925781 26.851562 L 16.257812 26.851562 L 16.554688 28.035156 L 16.777344 26.851562 L 16.777344 26.667969 Z M 17.257812 26.667969 "/>
<path style=" stroke:none;fill-rule:nonzero;fill:rgb(100%,100%,100%);fill-opacity:1;" d="M 19.890625 26.480469 L 19.851562 26.371094 L 19.480469 26.480469 L 19.667969 27.109375 L 20.257812 26.890625 L 20.371094 27.257812 L 19.777344 27.445312 L 20 28.035156 L 20.371094 27.925781 L 20.332031 27.777344 L 20.742188 27.667969 L 20.890625 28.109375 L 19.628906 28.554688 L 19.519531 28.222656 L 19.628906 28.183594 L 19.074219 26.628906 L 18.964844 26.667969 L 18.851562 26.332031 L 20.109375 25.890625 L 20.257812 26.332031 Z M 19.890625 26.480469 "/>
<path style=" stroke:none;fill-rule:nonzero;fill:rgb(100%,100%,100%);fill-opacity:1;" d="M 23.964844 25.925781 L 24.074219 25.851562 L 24.296875 26.148438 L 24 26.371094 L 23.148438 25.890625 L 22.925781 26.035156 L 23.445312 26.777344 L 23 27.035156 L 22.777344 26.742188 L 22.890625 26.667969 L 21.925781 25.332031 L 21.816406 25.40625 L 21.59375 25.109375 L 22.628906 24.371094 L 23.109375 24.628906 L 23.40625 25.035156 L 23.519531 25.554688 L 23.445312 25.59375 Z M 22.667969 25.703125 L 23.074219 25.40625 L 23.035156 25.296875 L 22.742188 24.890625 L 22.667969 24.816406 L 22.257812 25.109375 Z M 22.667969 25.703125 "/>
<path style=" stroke:none;fill-rule:nonzero;fill:rgb(100%,100%,100%);fill-opacity:1;" d="M 26.703125 23.480469 L 26.074219 24.296875 L 25.667969 24.222656 L 25.480469 24.074219 L 25.703125 23.742188 L 25.816406 23.816406 L 25.964844 23.851562 L 26.222656 23.480469 L 26.183594 23.371094 L 25.925781 23.183594 L 24.851562 23.59375 L 24.371094 23.222656 L 24.183594 22.851562 L 24.816406 22.035156 L 25.183594 22.148438 L 25.40625 22.296875 L 25.148438 22.59375 L 25.035156 22.519531 L 24.925781 22.480469 L 24.628906 22.851562 L 24.703125 22.964844 L 24.925781 23.148438 L 26.035156 22.777344 L 26.519531 23.109375 Z M 26.703125 23.480469 "/>
<path style=" stroke:none;fill-rule:nonzero;fill:rgb(100%,77.254902%,18.431373%);fill-opacity:1;" d="M 26.890625 28.628906 L 27.222656 28.628906 L 27.222656 29.519531 L 27.445312 29.519531 L 27.445312 28.628906 L 27.777344 28.628906 L 27.777344 28.445312 L 26.890625 28.445312 Z M 26.890625 28.628906 "/>
<path style=" stroke:none;fill-rule:nonzero;fill:rgb(100%,77.254902%,18.431373%);fill-opacity:1;" d="M 28.59375 29.148438 L 28.332031 28.445312 L 27.964844 28.445312 L 27.964844 29.519531 L 28.183594 29.519531 L 28.183594 28.667969 L 28.480469 29.519531 L 28.703125 29.519531 L 29 28.667969 L 29.035156 28.667969 L 29.035156 29.519531 L 29.257812 29.519531 L 29.257812 28.445312 L 28.851562 28.445312 Z M 28.59375 29.148438 "/>
</g>
</svg>
