<?xml version="1.0" encoding="UTF-8"?>
<svg xmlns="http://www.w3.org/2000/svg" xmlns:xlink="http://www.w3.org/1999/xlink" width="32px" height="32px" viewBox="0 0 32 18" version="1.1">
<g id="surface3">
<path style=" stroke:none;fill-rule:nonzero;fill:rgb(89.019608%,11.764706%,20.392157%);fill-opacity:1;" d="M 19.710938 0 C 20.324219 0 20.753906 0.417969 20.753906 1.007812 C 20.753906 1.652344 20.242188 2.164062 19.558594 2.164062 C 18.953125 2.164062 18.519531 1.769531 18.519531 1.171875 C 18.519531 0.535156 19.007812 0 19.710938 0 M 7.90625 7.699219 C 8.113281 6.691406 8.113281 6.214844 8.035156 5.542969 L 10.054688 5.160156 C 9.910156 5.757812 9.765625 6.457031 9.589844 7.320312 C 9.265625 8.925781 9.066406 9.816406 8.953125 10.460938 C 8.855469 10.949219 8.847656 11.222656 8.992188 11.402344 C 9.113281 11.5625 9.320312 11.609375 9.519531 11.5625 C 9.910156 11.476562 10.332031 10.988281 10.667969 10.136719 L 10.765625 9.714844 C 10.882812 9.171875 11.089844 8.25 11.332031 7.03125 C 11.5 6.207031 11.554688 5.550781 11.464844 4.882812 L 13.476562 4.507812 C 13.351562 5.035156 13.199219 5.804688 13.046875 6.558594 L 12.398438 9.632812 C 12.3125 10.105469 12.304688 10.375 12.441406 10.546875 C 12.558594 10.695312 12.75 10.734375 12.941406 10.6875 C 13.382812 10.570312 13.699219 10.035156 13.941406 9.460938 C 14.324219 8.550781 14.617188 7.273438 14.769531 6.488281 C 14.960938 5.496094 14.984375 4.914062 14.898438 4.230469 L 16.804688 3.871094 C 16.757812 4.269531 16.691406 4.742188 16.628906 5.128906 C 16.742188 5.59375 17.460938 5.535156 17.90625 5.019531 C 18.289062 4.585938 18.359375 3.980469 18.265625 3.585938 L 20.203125 3.214844 C 20.101562 3.75 19.972656 4.355469 19.757812 5.386719 L 19.136719 8.40625 C 19.015625 8.972656 19.054688 9.203125 19.160156 9.335938 C 19.246094 9.445312 19.398438 9.523438 19.636719 9.46875 C 19.957031 9.40625 20.300781 9.132812 20.636719 8.621094 L 21.367188 5.261719 C 21.601562 4.222656 21.65625 3.609375 21.585938 2.949219 L 23.011719 2.675781 C 23.027344 2.863281 23.035156 3.082031 23.027344 3.320312 C 23.5 2.652344 24.019531 2.289062 24.585938 2.1875 C 25.101562 2.09375 25.660156 2.203125 26.046875 2.609375 C 26.445312 3.027344 26.578125 3.6875 26.386719 4.648438 C 26.246094 5.378906 25.917969 6.378906 25.789062 7.078125 C 25.734375 7.410156 25.742188 7.582031 25.828125 7.691406 C 25.910156 7.792969 26.035156 7.816406 26.171875 7.777344 C 26.4375 7.699219 26.730469 7.402344 27.121094 6.722656 C 27.894531 5.371094 28.628906 3.234375 28.644531 1.605469 L 30.65625 1.21875 C 30.539062 1.527344 30.511719 1.800781 30.511719 1.988281 C 30.511719 3.460938 31.988281 4.453125 31.988281 6.15625 C 31.988281 8.070312 30.121094 8.988281 28.320312 8.53125 L 28.605469 7.101562 C 29.507812 7.488281 30.425781 7.085938 30.425781 6.109375 C 30.425781 5.355469 29.851562 4.640625 29.414062 3.695312 C 29.085938 4.773438 28.574219 6.046875 28.046875 7.007812 C 27.496094 8.007812 26.828125 8.847656 25.917969 9.058594 C 25.351562 9.195312 24.777344 9.058594 24.433594 8.652344 C 24.144531 8.304688 24.027344 7.785156 24.21875 6.898438 C 24.394531 6.070312 24.703125 5.097656 24.824219 4.460938 C 24.894531 4.035156 24.863281 3.824219 24.746094 3.6875 C 24.648438 3.585938 24.503906 3.546875 24.328125 3.585938 C 23.875 3.679688 23.363281 4.285156 22.957031 5.324219 L 22.046875 9.507812 L 20.484375 9.878906 C 20.117188 10.230469 19.703125 10.46875 19.269531 10.5625 C 18.632812 10.703125 18.042969 10.523438 17.707031 10.066406 C 17.46875 9.738281 17.347656 9.25 17.523438 8.421875 L 18.042969 5.96875 C 17.570312 6.511719 16.882812 6.730469 16.332031 6.605469 C 16.054688 7.886719 15.765625 8.863281 15.390625 9.671875 C 14.832031 10.867188 14.066406 11.726562 13.070312 12 C 12.320312 12.214844 11.648438 12.023438 11.21875 11.601562 C 10.734375 12.394531 10.109375 12.796875 9.488281 12.945312 C 8.824219 13.101562 8.125 12.90625 7.691406 12.410156 C 7.253906 11.898438 7.214844 11.191406 7.347656 10.4375 C 7.46875 9.738281 7.730469 8.523438 7.90625 7.699219 M 6.988281 16.609375 C 10.339844 14.613281 15.78125 13.050781 21.671875 11.65625 C 23.78125 11.15625 26.023438 10.632812 28 10.152344 L 27.824219 11.035156 C 19.988281 13.023438 14.386719 15.0625 10.597656 18.011719 C 9.527344 17.476562 8.195312 16.941406 6.988281 16.609375 M 5.066406 1.746094 C 6.328125 1.746094 8.539062 1.957031 9.695312 1.957031 C 10.78125 1.957031 11.921875 1.769531 12.792969 1.0625 L 12.257812 2.414062 C 11.730469 2.964844 10.722656 3.257812 9.449219 3.382812 C 8.800781 3.445312 7.796875 3.484375 6.871094 3.523438 C 6.671875 4.414062 6.488281 5.292969 6.296875 6.285156 C 6.023438 7.652344 5.691406 9.296875 5.355469 11.058594 C 5.050781 12.664062 4.988281 13.363281 5.011719 14.242188 C 4.195312 14.582031 3.183594 15.03125 2.320312 15.5 C 2.945312 13.96875 3.246094 12.71875 3.613281 10.875 C 3.988281 9.003906 4.332031 7.328125 4.597656 5.976562 C 4.753906 5.183594 4.882812 4.507812 5.035156 3.609375 L 4.929688 3.617188 C 2.929688 3.765625 1.867188 4.4375 1.371094 6.261719 L 0 4.8125 C 0.789062 2.414062 2.808594 1.746094 5.066406 1.746094 "/>
</g>
</svg>
