<?xml version="1.0" encoding="UTF-8"?>
<svg xmlns="http://www.w3.org/2000/svg" xmlns:xlink="http://www.w3.org/1999/xlink" width="32px" height="32px" viewBox="0 0 32 32" version="1.1">
<g id="surface1">
<path style=" stroke:none;fill-rule:nonzero;fill:rgb(100%,100%,100%);fill-opacity:1;" d="M 15.960938 31.765625 C 24.679688 31.765625 31.746094 24.699219 31.746094 15.980469 C 31.746094 7.261719 24.679688 0.191406 15.960938 0.191406 C 7.242188 0.191406 0.175781 7.261719 0.175781 15.980469 C 0.175781 24.699219 7.242188 31.765625 15.960938 31.765625 "/>
<path style=" stroke:none;fill-rule:nonzero;fill:rgb(100%,34.901961%,6.27451%);fill-opacity:1;" d="M 15.960938 1.167969 C 7.792969 1.167969 1.148438 7.8125 1.148438 15.980469 C 1.148438 24.148438 7.792969 30.792969 15.960938 30.792969 C 24.128906 30.792969 30.773438 24.148438 30.773438 15.980469 C 30.773438 7.8125 24.128906 1.167969 15.960938 1.167969 "/>
<path style=" stroke:none;fill-rule:nonzero;fill:rgb(100%,100%,100%);fill-opacity:1;" d="M 28.65625 21.832031 C 28.621094 21.90625 28.585938 21.980469 28.550781 22.054688 C 28.351562 22.46875 28.128906 22.871094 27.890625 23.257812 C 27.691406 23.589844 27.476562 23.910156 27.246094 24.21875 C 27.007812 24.546875 26.757812 24.859375 26.492188 25.164062 C 26.296875 25.386719 26.097656 25.601562 25.890625 25.808594 C 24.519531 27.195312 22.863281 28.296875 21.015625 29.015625 C 21.191406 28.925781 21.289062 28.875 21.558594 28.582031 L 21.371094 28.535156 C 21.136719 28.769531 20.882812 28.996094 20.445312 29.171875 L 20.707031 29.128906 C 20.503906 29.203125 20.300781 29.273438 20.089844 29.335938 L 20.355469 29.082031 L 20.136719 28.996094 C 20.035156 29.152344 19.871094 29.3125 19.542969 29.496094 C 18.398438 29.796875 17.199219 29.960938 15.960938 29.960938 C 12.066406 29.960938 8.539062 28.359375 6.003906 25.78125 C 5.796875 25.574219 5.597656 25.355469 5.40625 25.136719 C 5.164062 24.859375 4.933594 24.570312 4.714844 24.277344 C 4.488281 23.96875 4.273438 23.652344 4.070312 23.324219 C 3.84375 22.960938 3.636719 22.585938 3.445312 22.199219 C 3.410156 22.128906 3.375 22.058594 3.339844 21.988281 C 2.910156 21.089844 2.574219 20.140625 2.34375 19.148438 C 2.324219 19.074219 2.308594 19 2.292969 18.925781 C 2.289062 18.898438 2.28125 18.875 2.277344 18.851562 C 2.085938 17.925781 1.980469 16.964844 1.980469 15.980469 C 1.980469 14.113281 2.351562 12.328125 3.019531 10.699219 C 2.972656 10.910156 2.984375 11.085938 3.035156 11.292969 C 2.800781 11.527344 2.636719 11.792969 2.535156 12.171875 L 2.730469 12.289062 C 2.789062 11.980469 3.035156 11.582031 3.242188 11.351562 C 3.09375 10.851562 3.316406 10.570312 3.402344 10.21875 L 3.246094 10.175781 C 4.183594 8.121094 5.609375 6.335938 7.371094 4.957031 C 7.285156 5.113281 7.183594 5.304688 7.136719 5.457031 L 7.34375 5.328125 C 7.34375 5.328125 7.582031 4.929688 7.8125 4.628906 C 8.261719 4.304688 8.730469 4.007812 9.214844 3.738281 L 8.832031 3.960938 C 8.457031 4.40625 8.40625 4.691406 8.265625 5.019531 L 8.710938 4.90625 C 8.789062 4.625 9 4.050781 9.398438 3.640625 C 11.355469 2.59375 13.589844 2 15.960938 2 C 21.285156 2 25.925781 4.992188 28.285156 9.386719 C 28.304688 9.523438 28.363281 9.875 28.265625 9.925781 C 28.296875 10.199219 28.140625 10.507812 28.035156 10.691406 L 28.152344 11.085938 C 28.335938 10.867188 28.472656 10.464844 28.453125 10.246094 C 28.582031 10.152344 28.523438 9.972656 28.519531 9.847656 C 28.628906 10.066406 28.730469 10.285156 28.824219 10.507812 C 28.808594 10.589844 28.757812 10.816406 28.664062 10.933594 C 28.71875 11.191406 28.597656 11.453125 28.492188 11.644531 L 28.636719 12.007812 C 28.703125 11.964844 28.890625 11.476562 28.890625 11.203125 C 28.960938 11.109375 28.976562 11.011719 28.992188 10.925781 C 29.078125 11.144531 29.160156 11.367188 29.234375 11.589844 C 29.21875 11.703125 29.183594 11.917969 29.097656 12 C 29.152344 12.246094 29.035156 12.417969 28.960938 12.582031 L 29.09375 12.949219 C 29.09375 12.949219 29.3125 12.457031 29.304688 12.28125 C 29.34375 12.199219 29.375 12.148438 29.386719 12.085938 C 29.464844 12.347656 29.53125 12.613281 29.59375 12.882812 C 29.546875 13.113281 29.414062 13.328125 29.3125 13.5625 L 29.339844 13.78125 C 29.339844 13.78125 29.515625 13.5625 29.671875 13.25 C 29.707031 13.417969 29.734375 13.585938 29.761719 13.75 C 29.734375 13.835938 29.609375 14.199219 29.53125 14.25 L 29.558594 14.414062 C 29.558594 14.414062 29.714844 14.203125 29.808594 14.058594 C 29.894531 14.6875 29.941406 15.328125 29.941406 15.980469 C 29.941406 16.914062 29.847656 17.828125 29.671875 18.710938 C 29.457031 19.800781 29.109375 20.847656 28.65625 21.832031 "/>
<path style=" stroke:none;fill-rule:nonzero;fill:rgb(0%,17.647059%,44.705882%);fill-opacity:1;" d="M 15.78125 2.476562 L 15.695312 3.164062 L 15.503906 3.367188 L 15.503906 4.796875 L 15.039062 5.148438 L 15.039062 6.175781 L 14.734375 6.378906 L 14.734375 8.460938 L 13.410156 8.460938 L 13.410156 6.835938 L 11.476562 6.835938 L 11.476562 8.417969 L 11.066406 8.59375 L 11.066406 11.46875 L 9.660156 11.46875 L 9.660156 9.0625 L 9.511719 8.917969 L 9.511719 7.65625 L 9.367188 7.65625 L 9.019531 6.332031 C 9.035156 6.269531 9.042969 6.1875 9.042969 6.097656 C 9.042969 5.898438 9.003906 5.820312 8.957031 5.820312 C 8.914062 5.820312 8.875 5.898438 8.875 6.097656 C 8.875 6.195312 8.882812 6.285156 8.898438 6.351562 L 8.546875 7.65625 L 8.398438 7.65625 L 8.398438 8.917969 L 8.253906 9.0625 L 8.253906 11.679688 L 6.699219 11.679688 L 6.699219 11.507812 C 6.613281 11.855469 6.378906 12.445312 6.496094 12.925781 L 6.457031 12.902344 L 6.582031 12.992188 C 6.257812 13.078125 5.730469 13.519531 5.613281 13.839844 L 5.320312 13.605469 C 5.46875 13.171875 5.839844 13.074219 6.273438 12.785156 L 6.171875 12.722656 C 6.152344 12.292969 6.15625 11.816406 6.390625 11.320312 L 6.699219 11.507812 L 6.699219 9.746094 C 6.699219 9.480469 6.316406 9.472656 6.316406 9.472656 L 6.316406 9.003906 L 5.996094 8.914062 L 5.964844 8.710938 L 5.878906 8.683594 L 5.789062 8.710938 L 5.761719 8.914062 L 5.4375 9.003906 L 5.4375 9.472656 C 5.4375 9.472656 5.058594 9.453125 5.058594 9.773438 L 5.058594 12.292969 L 4.441406 12.699219 L 4.441406 14.191406 L 4.207031 14.324219 L 4.207031 15.46875 L 3.988281 15.601562 L 3.988281 17.722656 L 3.546875 17.722656 L 3.546875 15.613281 L 3.445312 15.613281 L 3.183594 13.316406 L 3.050781 13.3125 L 2.773438 15.613281 L 2.609375 15.613281 L 2.609375 17.300781 L 2.273438 17.300781 C 2.273438 17.300781 2.0625 17.476562 2.074219 17.566406 C 2.121094 18 2.191406 18.429688 2.277344 18.851562 C 2.28125 18.875 2.289062 18.898438 2.292969 18.925781 C 2.308594 19 2.328125 19.074219 2.34375 19.148438 C 2.574219 20.140625 2.910156 21.089844 3.339844 21.988281 C 3.644531 21.78125 3.949219 21.5 3.953125 21.496094 L 3.984375 21.464844 L 4.820312 21.464844 L 4.855469 21.492188 C 7.449219 23.65625 12.261719 24.578125 15.296875 24.726562 L 15.082031 24.628906 C 15.375 24.421875 15.757812 23.972656 15.785156 23.855469 L 16.003906 24.117188 C 15.871094 24.332031 15.652344 24.582031 15.457031 24.734375 C 15.644531 24.742188 15.828125 24.746094 16 24.746094 C 19.402344 24.777344 24.679688 23.382812 27.113281 21.257812 L 27.148438 21.230469 L 28.035156 21.230469 L 28.144531 21.339844 L 28.65625 21.832031 C 29.113281 20.847656 29.457031 19.800781 29.671875 18.710938 L 29.53125 18.386719 L 28.886719 18.386719 L 28.886719 16.976562 L 28.183594 16.976562 L 28.183594 17.796875 L 27.597656 17.796875 L 27.597656 10.292969 L 25.957031 10.292969 L 25.957031 14.105469 L 24.726562 14.105469 L 24.726562 9.648438 L 24.503906 9.457031 L 24.503906 8.929688 L 24.019531 8.710938 L 24.019531 8.070312 L 23.21875 8.070312 L 23.21875 8.710938 L 22.738281 8.929688 L 22.738281 9.457031 L 22.515625 9.648438 L 22.515625 10.53125 L 21.324219 10.53125 L 21.324219 7.949219 L 20.328125 7.949219 L 20.328125 6.71875 L 19.683594 6.71875 L 19.683594 6.074219 L 18.21875 6.074219 L 18.21875 6.71875 L 17.691406 6.71875 L 17.691406 8.769531 L 16.894531 8.769531 L 16.894531 6.378906 L 16.589844 6.175781 L 16.589844 5.148438 L 16.125 4.796875 L 16.125 3.367188 L 15.949219 3.164062 L 15.878906 2.476562 Z M 27.230469 21.464844 C 26.949219 21.707031 26.632812 21.9375 26.285156 22.15625 L 26.285156 25.164062 L 26.492188 25.164062 C 26.757812 24.859375 27.007812 24.546875 27.25 24.21875 L 27.25 21.464844 Z M 27.894531 21.464844 L 27.894531 23.257812 C 28.132812 22.871094 28.351562 22.46875 28.550781 22.054688 L 27.976562 21.503906 L 27.9375 21.464844 Z M 4.714844 21.699219 L 4.714844 24.277344 C 4.933594 24.570312 5.164062 24.859375 5.40625 25.136719 L 5.710938 25.136719 L 5.710938 22.386719 C 5.367188 22.171875 5.039062 21.945312 4.742188 21.699219 Z M 4.070312 21.707031 C 3.988281 21.78125 3.722656 22.015625 3.445312 22.199219 C 3.636719 22.585938 3.84375 22.960938 4.070312 23.324219 Z M 26.050781 22.304688 C 25.773438 22.472656 25.480469 22.636719 25.171875 22.789062 L 25.171875 25.164062 L 26.050781 25.164062 Z M 5.945312 22.527344 L 5.945312 25.136719 L 6.824219 25.136719 L 6.824219 22.988281 C 6.519531 22.84375 6.226562 22.691406 5.945312 22.527344 Z M 24.9375 22.90625 C 24.652344 23.042969 24.359375 23.171875 24.058594 23.300781 L 24.058594 25.164062 L 24.9375 25.164062 Z M 7.058594 23.097656 L 7.058594 25.136719 L 7.9375 25.140625 L 7.9375 23.46875 C 7.640625 23.351562 7.347656 23.230469 7.058594 23.097656 Z M 23.824219 23.394531 C 23.535156 23.507812 23.242188 23.617188 22.945312 23.722656 L 22.945312 25.160156 L 23.824219 25.160156 Z M 8.171875 23.554688 L 8.171875 25.140625 L 9.054688 25.140625 L 9.054688 23.855469 C 8.757812 23.761719 8.460938 23.660156 8.171875 23.554688 Z M 22.710938 23.800781 C 22.421875 23.898438 22.125 23.992188 21.832031 24.078125 L 21.832031 25.160156 L 22.710938 25.160156 Z M 9.289062 23.925781 L 9.289062 25.140625 L 10.167969 25.144531 L 10.167969 24.171875 C 9.871094 24.097656 9.578125 24.015625 9.289062 23.925781 Z M 21.597656 24.144531 C 21.304688 24.226562 21.011719 24.300781 20.71875 24.371094 L 20.71875 25.15625 L 21.597656 25.160156 Z M 10.402344 24.230469 L 10.402344 25.144531 L 11.28125 25.144531 L 11.28125 24.433594 C 10.988281 24.371094 10.695312 24.304688 10.402344 24.230469 Z M 20.484375 24.429688 C 20.1875 24.496094 19.894531 24.558594 19.601562 24.613281 L 19.601562 25.15625 L 20.484375 25.15625 Z M 11.515625 24.480469 L 11.515625 25.144531 L 12.394531 25.144531 L 12.394531 24.640625 C 12.105469 24.59375 11.8125 24.539062 11.515625 24.480469 Z M 19.367188 24.65625 C 18.160156 24.875 17 24.992188 15.996094 24.980469 C 15.066406 24.972656 13.890625 24.878906 12.628906 24.679688 L 12.628906 25.144531 L 19.367188 25.15625 Z M 6.003906 25.78125 C 8.539062 28.359375 12.066406 29.960938 15.960938 29.960938 C 17.199219 29.960938 18.398438 29.796875 19.542969 29.496094 C 19.871094 29.316406 20.035156 29.152344 20.140625 28.996094 L 20.355469 29.082031 L 20.089844 29.335938 C 20.300781 29.273438 20.503906 29.203125 20.710938 29.128906 L 20.445312 29.171875 C 20.882812 28.996094 21.136719 28.769531 21.371094 28.535156 L 21.558594 28.585938 C 21.289062 28.875 21.191406 28.925781 21.015625 29.015625 C 22.863281 28.292969 24.519531 27.195312 25.894531 25.808594 L 17.464844 25.796875 L 17.554688 25.890625 C 17.347656 26.214844 16.871094 26.664062 16.546875 26.839844 L 16.3125 26.636719 C 16.628906 26.488281 17.007812 26.082031 17.214844 25.796875 Z M 6.003906 25.78125 "/>
<path style=" stroke:none;fill-rule:nonzero;fill:rgb(100%,100%,100%);fill-opacity:1;" d="M 17.695312 17.742188 C 17.894531 17.625 18.050781 17.652344 18.101562 17.707031 C 18.117188 17.726562 18.121094 17.746094 18.121094 17.773438 C 18.121094 17.824219 18.09375 17.890625 18.035156 17.964844 C 17.796875 18.261719 17.332031 18.445312 17.019531 18.507812 C 17.140625 18.25 17.382812 17.929688 17.695312 17.742188 M 18.269531 18.152344 C 18.382812 18.015625 18.425781 17.882812 18.425781 17.773438 C 18.425781 17.664062 18.386719 17.574219 18.328125 17.507812 C 18.160156 17.316406 17.839844 17.304688 17.542969 17.480469 C 17.078125 17.757812 16.722656 18.292969 16.640625 18.652344 L 16.605469 18.824219 L 16.78125 18.835938 C 17.148438 18.859375 17.910156 18.605469 18.269531 18.152344 M 24.121094 13.109375 L 22.09375 13.128906 C 22.09375 13.128906 21.410156 14.570312 21.339844 14.726562 C 21.171875 14.726562 19.886719 14.75 19.886719 14.75 L 19.167969 16.21875 C 19.167969 16.21875 20.300781 16.175781 20.644531 16.164062 C 20.476562 16.523438 19.738281 18.125 19.738281 18.125 C 19.375 18.828125 18.375 20.148438 17.203125 20.085938 C 17.003906 20.074219 16.90625 19.957031 16.851562 19.761719 C 18.300781 19.589844 18.957031 19.023438 19.207031 18.6875 C 19.464844 18.339844 19.597656 17.980469 19.597656 17.648438 C 19.597656 17.402344 19.523438 17.167969 19.375 16.96875 C 18.984375 16.433594 18.160156 16.265625 17.332031 16.554688 C 15.996094 17.015625 14.976562 18.421875 14.976562 19.726562 C 14.976562 19.796875 14.984375 19.867188 14.988281 19.9375 C 14.925781 19.988281 14.851562 20.035156 14.808594 20.03125 C 14.804688 20.03125 14.800781 20.03125 14.789062 20.011719 C 14.242188 19.105469 16.855469 14.335938 17.839844 12.542969 L 17.960938 12.316406 L 15.59375 12.316406 L 15.550781 12.363281 C 14.761719 13.15625 13.78125 14.785156 12.992188 16.097656 C 12.992188 16.097656 12.800781 16.40625 12.617188 16.707031 C 12.714844 16.320312 12.816406 15.914062 12.816406 15.914062 C 13.101562 14.699219 13.457031 13.191406 13.8125 12.527344 L 13.933594 12.300781 L 13.679688 12.304688 L 11.730469 12.316406 L 11.6875 12.371094 C 11.226562 12.925781 10.671875 14.203125 10.085938 15.558594 C 9.285156 17.417969 8.183594 19.960938 7.519531 19.769531 C 7.488281 19.761719 7.464844 19.746094 7.449219 19.699219 C 7.347656 19.421875 7.695312 18.625 8.070312 18.085938 L 8.339844 17.699219 L 6.691406 18.289062 L 6.667969 18.316406 C 6.117188 18.921875 5.625 20.054688 5.785156 20.832031 C 5.863281 21.199219 6.074219 21.46875 6.402344 21.617188 C 6.84375 21.816406 7.300781 21.824219 7.761719 21.644531 C 8.984375 21.171875 9.945312 19.519531 10.464844 18.445312 C 10.207031 19.652344 9.800781 20.929688 9.511719 21.382812 L 9.363281 21.617188 L 11.238281 21.617188 L 11.28125 21.558594 C 11.511719 21.257812 11.855469 20.691406 12.25 20.039062 C 12.515625 19.597656 12.804688 19.132812 13.089844 18.6875 C 12.9375 19.125 12.832031 19.566406 12.832031 19.980469 C 12.832031 20.332031 12.890625 20.652344 13.011719 20.914062 C 13.203125 21.328125 13.539062 21.582031 13.988281 21.644531 C 14.660156 21.71875 15.230469 21.300781 15.488281 21.046875 C 15.59375 21.164062 15.699219 21.277344 15.847656 21.371094 L 15.851562 21.371094 C 16.394531 21.691406 17.917969 21.808594 19.050781 20.710938 C 19.207031 21.113281 19.535156 21.410156 19.984375 21.511719 C 20.546875 21.640625 21.195312 21.4375 21.691406 21.015625 C 21.964844 21.207031 22.273438 21.394531 22.582031 21.449219 C 24.332031 21.761719 25.195312 20.414062 25.320312 19.75 C 25.363281 19.507812 25.382812 19.289062 25.382812 19.085938 C 25.382812 18.582031 25.265625 18.195312 25.164062 17.867188 C 25.09375 17.632812 25.03125 17.4375 25.03125 17.25 C 25.03125 17.078125 25.082031 16.917969 25.214844 16.734375 L 25.316406 16.59375 C 25.316406 16.59375 24.628906 16.238281 24.410156 16.125 C 24.839844 16.121094 25.460938 16.109375 25.460938 16.109375 L 26.054688 14.660156 C 26.054688 14.660156 23.769531 14.695312 23.363281 14.699219 C 23.519531 14.375 24.121094 13.109375 24.121094 13.109375 M 23.945312 16.132812 C 23.636719 16.359375 23.089844 17.007812 21.949219 18.453125 C 21.640625 18.839844 21.3125 19.257812 21.101562 19.503906 C 21.121094 19.441406 21.144531 19.375 21.1875 19.300781 C 21.1875 19.300781 22.660156 16.164062 22.667969 16.152344 C 22.753906 16.152344 23.308594 16.144531 23.945312 16.132812 M 22.839844 19.242188 C 23.105469 18.824219 23.339844 18.527344 23.5625 18.261719 C 23.570312 18.316406 23.578125 18.402344 23.578125 18.402344 C 23.605469 18.632812 23.632812 18.855469 23.632812 19.105469 C 23.632812 19.230469 23.628906 19.363281 23.609375 19.503906 C 23.585938 19.695312 23.453125 19.976562 23.25 20.121094 C 23.121094 20.214844 22.976562 20.242188 22.824219 20.210938 C 22.773438 20.199219 22.714844 20.152344 22.691406 20.074219 C 22.683594 20.046875 22.679688 20.023438 22.679688 19.996094 C 22.679688 19.863281 22.765625 19.703125 22.921875 19.546875 L 23.027344 19.441406 C 23.027344 19.441406 22.882812 19.289062 22.839844 19.242188 M 22.398438 20.160156 C 22.453125 20.335938 22.59375 20.472656 22.761719 20.507812 C 23 20.558594 23.230469 20.507812 23.425781 20.367188 C 23.71875 20.160156 23.882812 19.792969 23.910156 19.539062 C 23.964844 19.074219 23.921875 18.714844 23.878906 18.363281 L 23.792969 17.511719 L 23.558594 17.785156 L 23.359375 18.03125 C 23.101562 18.339844 22.835938 18.660156 22.515625 19.179688 L 22.453125 19.277344 C 22.453125 19.277344 22.578125 19.40625 22.621094 19.453125 C 22.449219 19.664062 22.375 19.855469 22.375 19.996094 C 22.375 20.0625 22.386719 20.117188 22.398438 20.160156 "/>
<path style=" stroke:none;fill-rule:nonzero;fill:rgb(100%,34.901961%,6.27451%);fill-opacity:1;" d="M 14.261719 2.804688 L 13.75 2.878906 C 13.644531 3.085938 13.367188 3.390625 13.234375 3.496094 C 13.375 3.550781 13.484375 3.683594 13.457031 4.636719 L 13.917969 4.609375 C 13.886719 3.554688 13.691406 3.554688 13.617188 3.554688 C 13.777344 3.449219 14.261719 2.804688 14.261719 2.804688 Z M 15.183594 2.851562 C 15.109375 3.027344 14.570312 3.363281 14.4375 3.464844 C 14.460938 3.484375 14.546875 3.511719 14.621094 3.570312 C 14.75 3.675781 14.933594 3.980469 14.921875 4.644531 L 15.332031 4.671875 C 15.308594 3.910156 15.117188 3.667969 15.042969 3.605469 C 14.988281 3.546875 14.875 3.539062 14.816406 3.523438 C 15.128906 3.402344 15.609375 2.894531 15.609375 2.894531 Z M 12.855469 2.863281 L 12.414062 2.90625 C 12.371094 3.140625 12.238281 3.4375 12.105469 3.539062 C 12.253906 3.800781 12.253906 4.183594 12.019531 4.667969 L 12.457031 4.636719 C 12.691406 4.050781 12.632812 3.757812 12.503906 3.554688 C 12.664062 3.449219 12.855469 2.863281 12.855469 2.863281 Z M 11.683594 3.011719 L 11.199219 3.144531 C 11.140625 3.40625 11.023438 3.582031 10.890625 3.683594 C 11.03125 3.730469 10.960938 3.902344 10.871094 4.125 C 10.792969 4.320312 10.691406 4.46875 10.582031 4.695312 L 11.023438 4.667969 C 11.316406 4.167969 11.535156 3.683594 11.316406 3.625 C 11.476562 3.523438 11.683594 3.011719 11.683594 3.011719 Z M 17.058594 3.023438 C 16.753906 3.378906 16.472656 3.507812 16.34375 3.613281 C 16.574219 3.730469 16.765625 4.125 16.707031 4.726562 L 17.179688 4.84375 C 17.148438 4.082031 16.972656 3.785156 16.753906 3.726562 C 16.914062 3.625 17.542969 3.070312 17.542969 3.070312 Z M 10.5625 3.277344 L 10.121094 3.359375 C 10.042969 3.574219 9.929688 3.742188 9.785156 3.847656 C 9.824219 4.074219 9.742188 4.28125 9.410156 4.785156 L 9.824219 4.730469 C 10.226562 4.214844 10.191406 3.96875 10.1875 3.792969 C 10.359375 3.6875 10.5625 3.277344 10.5625 3.277344 Z M 18.320312 3.289062 C 18.144531 3.496094 17.808594 3.65625 17.675781 3.757812 C 17.820312 4.023438 18.203125 4.445312 18.144531 5.046875 L 18.554688 5.105469 C 18.4375 4.140625 18.261719 3.992188 18.042969 3.933594 C 18.203125 3.832031 18.804688 3.363281 18.804688 3.363281 Z M 19.699219 3.640625 C 19.59375 3.847656 19.332031 3.949219 19.199219 4.050781 C 19.347656 4.316406 19.609375 4.753906 19.550781 5.355469 L 20.007812 5.488281 C 19.917969 4.609375 19.816406 4.226562 19.59375 4.167969 C 19.757812 4.066406 20.152344 3.714844 20.152344 3.714844 Z M 20.988281 4.09375 C 20.886719 4.300781 20.621094 4.402344 20.488281 4.503906 C 20.636719 4.769531 20.871094 5.089844 20.8125 5.691406 L 21.25 5.867188 C 21.164062 4.960938 21.074219 4.726562 20.855469 4.667969 C 21.121094 4.519531 21.441406 4.210938 21.441406 4.210938 Z M 22.363281 4.609375 C 22.261719 4.8125 22 4.855469 21.867188 4.960938 C 22.011719 5.222656 22.277344 5.621094 22.21875 6.21875 L 22.6875 6.453125 C 22.660156 5.722656 22.484375 5.222656 22.261719 5.164062 C 22.554688 5.035156 22.804688 4.753906 22.804688 4.753906 Z M 23.523438 5.164062 C 23.421875 5.3125 23.15625 5.414062 23.023438 5.515625 C 23.171875 5.78125 23.449219 6.117188 23.390625 6.71875 L 23.859375 6.980469 C 23.832031 6.21875 23.65625 5.738281 23.433594 5.679688 C 23.65625 5.574219 23.917969 5.3125 23.917969 5.3125 Z M 24.621094 5.808594 C 24.519531 6.015625 24.386719 6 24.257812 6.101562 C 24.402344 6.367188 24.679688 6.910156 24.621094 7.511719 L 25.03125 7.800781 C 24.972656 6.863281 24.871094 6.351562 24.652344 6.292969 C 24.8125 6.191406 24.972656 6.015625 24.972656 6.015625 Z M 25.796875 6.558594 C 25.75 6.71875 25.574219 6.777344 25.441406 6.878906 C 25.589844 7.144531 25.707031 7.730469 25.648438 8.332031 L 26.058594 8.625 C 26.089844 7.714844 25.957031 7.347656 25.808594 7.070312 C 25.96875 6.96875 26.058594 6.820312 26.058594 6.820312 Z M 26.835938 7.449219 C 26.792969 7.613281 26.660156 7.671875 26.527344 7.773438 C 26.601562 8.097656 26.746094 8.566406 26.660156 9.035156 L 26.980469 9.371094 C 27.054688 8.84375 27.011719 8.285156 26.921875 8.007812 C 27.027344 7.933594 27.128906 7.773438 27.128906 7.773438 Z M 27.640625 8.476562 C 27.640625 8.539062 27.648438 8.941406 27.53125 9 C 27.566406 9.277344 27.484375 9.585938 27.378906 9.765625 L 27.65625 10.105469 C 27.792969 9.824219 27.859375 9.394531 27.835938 9.175781 C 27.871094 9.058594 27.910156 9.074219 27.917969 8.945312 Z M 3.796875 10.265625 C 3.5625 10.761719 3.621094 11.230469 3.710938 11.582031 C 3.476562 11.816406 3.289062 11.960938 3.140625 12.398438 L 3.375 12.546875 C 3.402344 12.222656 3.652344 11.90625 3.945312 11.671875 C 3.796875 11.175781 4.003906 10.699219 4.09375 10.347656 Z M 4.53125 10.46875 C 4.371094 11.003906 4.355469 11.496094 4.441406 11.847656 C 4.207031 12.082031 3.875 12.25 3.726562 12.691406 L 4.019531 12.839844 C 4.136719 12.515625 4.441406 12.082031 4.765625 11.996094 C 4.617188 11.496094 4.78125 10.953125 4.867188 10.601562 Z M 5.453125 10.832031 C 5.277344 11.332031 5.351562 11.710938 5.410156 12.296875 L 5.460938 12.320312 C 5.226562 12.550781 4.765625 12.671875 4.617188 13.105469 L 4.910156 13.34375 C 5.027344 13.019531 5.527344 12.609375 5.847656 12.523438 L 5.761719 12.472656 C 5.613281 11.972656 5.703125 11.359375 5.789062 11.007812 Z M 6.390625 11.316406 C 6.15625 11.816406 6.152344 12.292969 6.171875 12.71875 L 6.273438 12.785156 C 5.839844 13.074219 5.46875 13.167969 5.320312 13.605469 L 5.613281 13.839844 C 5.730469 13.519531 6.257812 13.078125 6.582031 12.992188 L 6.457031 12.902344 L 6.496094 12.925781 C 6.378906 12.441406 6.609375 11.855469 6.699219 11.503906 Z M 7.402344 12.019531 C 7.199219 12.496094 6.933594 13.3125 7.101562 13.417969 L 7.1875 13.523438 C 6.804688 13.667969 6.113281 13.84375 6.03125 14.183594 L 6.308594 14.433594 C 6.363281 14.207031 6.875 13.957031 7.433594 13.8125 L 7.335938 13.691406 C 7.320312 13.210938 7.597656 12.605469 7.710938 12.289062 Z M 13.453125 12.609375 C 13.117188 12.609375 12.011719 12.617188 11.882812 12.621094 C 11.457031 13.164062 10.929688 14.382812 10.367188 15.679688 C 9.152344 18.488281 8.292969 20.308594 7.433594 20.0625 C 7.304688 20.023438 7.210938 19.933594 7.164062 19.804688 C 7.140625 19.738281 7.128906 19.664062 7.128906 19.582031 C 7.128906 19.195312 7.375 18.671875 7.589844 18.289062 C 7.265625 18.40625 6.921875 18.53125 6.871094 18.546875 C 6.441406 19.035156 6.058594 19.867188 6.058594 20.507812 C 6.058594 20.601562 6.066406 20.6875 6.082031 20.769531 C 6.140625 21.046875 6.285156 21.230469 6.527344 21.339844 C 6.898438 21.507812 7.265625 21.515625 7.652344 21.363281 C 9.035156 20.828125 10.128906 18.488281 10.433594 17.785156 C 10.597656 17.402344 10.660156 17.257812 10.820312 17.304688 C 10.90625 17.332031 10.933594 17.386719 10.933594 17.480469 C 10.933594 17.546875 10.921875 17.632812 10.902344 17.742188 C 10.902344 17.742188 10.878906 17.882812 10.878906 17.886719 C 10.6875 19.015625 10.265625 20.554688 9.894531 21.3125 L 11.082031 21.3125 C 11.304688 21.015625 11.621094 20.492188 11.992188 19.882812 C 12.421875 19.171875 12.910156 18.363281 13.347656 17.75 C 13.753906 17.171875 13.808594 17.097656 13.953125 17.1875 C 14.097656 17.273438 14.058594 17.351562 13.738281 17.984375 C 13.167969 18.871094 12.96875 20.105469 13.285156 20.785156 C 13.433594 21.109375 13.683594 21.296875 14.023438 21.34375 C 14.671875 21.417969 15.246094 20.890625 15.363281 20.746094 L 15.484375 20.597656 L 15.601562 20.75 C 15.707031 20.890625 15.839844 21.007812 16.007812 21.113281 C 16.433594 21.359375 17.867188 21.515625 18.90625 20.4375 L 18.921875 20.414062 L 19.101562 20.308594 L 19.1875 20.269531 L 19.253906 20.4375 C 19.253906 20.4375 19.285156 20.515625 19.300781 20.546875 C 19.464844 20.996094 19.800781 21.160156 20.050781 21.21875 C 20.554688 21.332031 21.15625 21.140625 21.585938 20.726562 L 21.675781 20.640625 L 21.777344 20.714844 C 22.042969 20.902344 22.355469 21.101562 22.636719 21.152344 C 24.316406 21.453125 24.953125 20.054688 25.023438 19.691406 C 25.066406 19.46875 25.082031 19.269531 25.082031 19.085938 C 25.082031 18.628906 24.972656 18.277344 24.875 17.957031 C 24.800781 17.710938 24.730469 17.480469 24.730469 17.242188 C 24.730469 17.074219 24.785156 16.894531 24.886719 16.710938 C 24.667969 16.597656 24.25 16.382812 24.171875 16.34375 C 23.90625 16.464844 22.835938 17.820312 22.1875 18.640625 C 21.050781 20.078125 21.039062 20.070312 20.882812 19.996094 L 20.757812 19.847656 C 20.691406 19.648438 20.828125 19.332031 20.914062 19.164062 C 20.914062 19.164062 22.394531 16.023438 22.390625 16.03125 L 22.460938 15.851562 C 22.460938 15.851562 25.070312 15.8125 25.257812 15.8125 C 25.308594 15.683594 25.496094 15.222656 25.601562 14.96875 C 25.21875 14.976562 22.882812 15.011719 22.882812 15.011719 C 22.882812 15.011719 23.484375 13.746094 23.640625 13.417969 C 23.308594 13.421875 22.429688 13.429688 22.285156 13.429688 C 22.210938 13.585938 21.53125 15.023438 21.53125 15.023438 C 21.53125 15.023438 20.242188 15.046875 20.078125 15.050781 C 20.023438 15.164062 19.792969 15.628906 19.664062 15.898438 C 20.011719 15.882812 21.125 15.839844 21.125 15.839844 C 21.125 15.839844 20.015625 18.253906 20.011719 18.257812 C 19.585938 19.082031 18.511719 20.457031 17.1875 20.386719 C 16.910156 20.371094 16.570312 20.234375 16.5 19.664062 L 16.484375 19.507812 L 16.636719 19.492188 C 18.117188 19.363281 18.730469 18.816406 18.964844 18.503906 C 19.335938 18.007812 19.398438 17.511719 19.132812 17.148438 C 18.820312 16.71875 18.136719 16.597656 17.433594 16.839844 C 16.144531 17.289062 15.144531 18.757812 15.296875 19.988281 L 15.304688 20.058594 L 15.253906 20.113281 C 15.210938 20.152344 15 20.355469 14.777344 20.332031 C 14.679688 20.324219 14.59375 20.269531 14.53125 20.175781 C 14.457031 20.050781 14.421875 19.882812 14.421875 19.679688 C 14.421875 18.382812 15.84375 15.566406 17.453125 12.621094 L 15.726562 12.621094 C 14.96875 13.402344 14.019531 14.976562 13.25 16.253906 C 13.25 16.253906 12.582031 17.347656 12.5625 17.378906 C 12.394531 17.632812 12.339844 17.71875 12.207031 17.65625 C 12.140625 17.628906 12.113281 17.585938 12.113281 17.519531 C 12.113281 17.449219 12.144531 17.347656 12.1875 17.191406 L 12.519531 15.84375 C 12.800781 14.660156 13.117188 13.363281 13.453125 12.609375 Z M 8.238281 12.707031 C 7.976562 13.46875 7.84375 13.871094 7.929688 14.25 L 8.011719 14.339844 C 7.773438 14.429688 7.113281 14.613281 6.851562 15.023438 L 7.078125 15.335938 C 7.285156 15.042969 7.902344 14.71875 8.3125 14.660156 L 8.222656 14.5625 C 8.167969 14.007812 8.429688 13.339844 8.546875 13.019531 Z M 9.398438 13.984375 C 9.078125 14.445312 8.75 15.042969 8.78125 15.394531 L 8.863281 15.484375 C 8.265625 15.613281 7.945312 15.597656 7.535156 15.917969 L 7.800781 16.304688 C 8.003906 16.011719 8.75 15.863281 9.160156 15.804688 L 9.074219 15.707031 C 9.050781 15.242188 9.398438 14.65625 9.664062 14.367188 Z M 9.101562 16.742188 C 8.898438 16.800781 8.574219 16.890625 8.28125 17.035156 L 8.21875 17.066406 L 8.347656 17.375 C 8.539062 17.246094 8.8125 17.148438 9.074219 17.109375 Z M 17.984375 17.359375 C 18.121094 17.363281 18.246094 17.414062 18.328125 17.511719 C 18.386719 17.574219 18.425781 17.664062 18.425781 17.773438 C 18.425781 17.886719 18.382812 18.015625 18.269531 18.15625 C 17.910156 18.605469 17.148438 18.859375 16.78125 18.835938 L 16.605469 18.824219 L 16.640625 18.652344 C 16.722656 18.292969 17.078125 17.757812 17.542969 17.480469 C 17.691406 17.394531 17.84375 17.351562 17.984375 17.359375 Z M 23.792969 17.511719 L 23.878906 18.363281 C 23.921875 18.714844 23.96875 19.074219 23.910156 19.542969 C 23.882812 19.792969 23.71875 20.160156 23.425781 20.367188 C 23.230469 20.511719 23 20.558594 22.761719 20.507812 C 22.59375 20.472656 22.453125 20.335938 22.398438 20.160156 C 22.386719 20.117188 22.375 20.0625 22.375 19.996094 C 22.375 19.855469 22.449219 19.667969 22.621094 19.453125 C 22.574219 19.410156 22.453125 19.277344 22.453125 19.277344 L 22.515625 19.179688 C 22.835938 18.660156 23.101562 18.34375 23.359375 18.035156 L 23.558594 17.789062 Z M 12.648438 20.984375 C 12.558594 21.21875 12.472656 21.335938 12.53125 21.570312 L 12.671875 21.746094 C 12.324219 21.6875 12.089844 21.703125 11.742188 21.730469 L 11.503906 22.039062 C 11.738281 22.039062 12.558594 22.011719 12.855469 22.097656 L 12.6875 21.765625 L 12.765625 21.863281 C 12.765625 21.863281 12.765625 21.511719 12.855469 21.304688 Z M 13.894531 21.964844 C 13.621094 22.265625 13.292969 22.695312 13.292969 22.890625 L 13.394531 23.015625 C 13.152344 22.960938 12.417969 23 11.867188 23.058594 L 12.082031 23.398438 C 12.375 23.367188 13.433594 23.351562 13.726562 23.410156 L 13.609375 23.269531 C 13.554688 23.113281 13.59375 22.910156 13.730469 22.726562 C 13.875 22.535156 14.128906 22.261719 14.382812 21.976562 C 14.195312 22.023438 13.894531 21.964844 13.894531 21.964844 Z M 14.96875 22.738281 C 14.847656 22.917969 14.011719 23.726562 14.15625 24.078125 L 14.363281 24.148438 C 14.363281 24.148438 14.554688 24.265625 14.347656 24.148438 C 14.136719 24.03125 13.070312 23.972656 12.511719 24.03125 L 12.789062 24.429688 C 13.082031 24.398438 14.320312 24.355469 14.617188 24.414062 C 14.597656 24.398438 14.375 24.191406 14.4375 24.089844 C 14.539062 23.921875 14.683594 23.640625 15.210938 23.105469 Z M 15.785156 23.84375 C 15.753906 23.960938 15.375 24.414062 15.082031 24.617188 L 15.300781 24.71875 C 15.351562 24.71875 15.40625 24.722656 15.457031 24.726562 C 15.652344 24.570312 15.867188 24.324219 16.003906 24.109375 Z M 17.214844 25.789062 C 17.011719 26.074219 16.628906 26.480469 16.3125 26.625 L 16.546875 26.832031 C 16.871094 26.65625 17.347656 26.207031 17.554688 25.882812 L 17.464844 25.789062 Z M 15.871094 26.070312 C 15.226562 26.15625 14.460938 26.1875 14.109375 26.128906 L 14.378906 26.4375 C 14.933594 26.464844 15.578125 26.40625 16.050781 26.289062 Z M 18.121094 26.398438 C 18.003906 26.582031 17.511719 27.226562 17.128906 27.402344 L 17.390625 27.578125 C 17.714844 27.402344 18.121094 26.972656 18.324219 26.636719 Z M 16.53125 26.847656 C 16.328125 26.933594 16.078125 27.007812 14.824219 26.992188 L 15.121094 27.289062 C 16.058594 27.257812 16.3125 27.199219 16.78125 27.082031 Z M 18.832031 27.074219 C 18.683594 27.335938 18.277344 27.742188 17.894531 27.917969 L 18.128906 28.0625 C 18.453125 27.886719 18.859375 27.601562 19.066406 27.277344 Z M 17.363281 27.578125 C 16.894531 27.738281 16.089844 27.855469 15.621094 27.796875 L 16.003906 28.0625 C 16.53125 28.089844 17.1875 27.898438 17.65625 27.78125 Z M 19.53125 27.601562 C 19.386719 27.867188 19.007812 28.152344 18.628906 28.328125 L 18.769531 28.40625 C 18.652344 28.554688 18.476562 28.8125 17.519531 29.015625 L 17.863281 29.128906 C 18.769531 28.953125 19.097656 28.515625 18.890625 28.488281 L 18.824219 28.4375 L 18.890625 28.472656 C 19.214844 28.296875 19.5625 28.085938 19.765625 27.765625 Z M 20.195312 28 C 19.902344 28.351562 19.742188 28.511719 19.300781 28.6875 L 19.472656 28.757812 L 19.449219 28.75 C 19.296875 28.953125 19.046875 29.179688 18.359375 29.335938 L 18.757812 29.421875 C 19.261719 29.363281 19.800781 28.867188 19.625 28.808594 L 19.542969 28.785156 C 19.863281 28.609375 20.082031 28.496094 20.398438 28.117188 Z M 18.054688 28.03125 C 17.675781 28.355469 17.234375 28.488281 16.648438 28.546875 L 16.988281 28.75 C 17.605469 28.722656 18.394531 28.28125 18.246094 28.136719 Z M 20.796875 28.304688 C 20.59375 28.570312 20.417969 28.746094 20.035156 28.921875 L 20.238281 29.007812 C 20.5625 28.832031 20.652344 28.746094 21.003906 28.363281 Z M 20.796875 28.304688 "/>
<path style=" stroke:none;fill-rule:nonzero;fill:rgb(0%,17.647059%,44.705882%);fill-opacity:1;" d="M 17.953125 17.660156 C 17.882812 17.660156 17.796875 17.683594 17.695312 17.742188 C 17.382812 17.925781 17.140625 18.25 17.019531 18.503906 C 17.332031 18.445312 17.796875 18.261719 18.035156 17.964844 C 18.09375 17.890625 18.121094 17.824219 18.121094 17.769531 C 18.121094 17.746094 18.117188 17.722656 18.101562 17.707031 C 18.074219 17.679688 18.023438 17.65625 17.953125 17.660156 Z M 23.5625 18.257812 C 23.339844 18.527344 23.105469 18.820312 22.839844 19.242188 C 22.882812 19.289062 23.027344 19.441406 23.027344 19.441406 L 22.921875 19.546875 C 22.765625 19.703125 22.679688 19.863281 22.679688 19.992188 C 22.679688 20.019531 22.683594 20.046875 22.691406 20.070312 C 22.714844 20.152344 22.773438 20.199219 22.824219 20.210938 C 22.980469 20.242188 23.121094 20.210938 23.25 20.121094 C 23.453125 19.972656 23.585938 19.695312 23.609375 19.503906 C 23.628906 19.363281 23.632812 19.230469 23.632812 19.105469 C 23.632812 18.855469 23.605469 18.632812 23.578125 18.398438 C 23.578125 18.398438 23.570312 18.316406 23.5625 18.257812 Z M 23.5625 18.257812 "/>
</g>
</svg>
