<?xml version="1.0" encoding="UTF-8"?>
<svg xmlns="http://www.w3.org/2000/svg" xmlns:xlink="http://www.w3.org/1999/xlink" width="32px" height="32px" viewBox="0 0 32 32" version="1.1">
<g id="surface1">
<path style=" stroke:none;fill-rule:nonzero;fill:rgb(100%,100%,100%);fill-opacity:1;" d="M 15.988281 31.882812 C 24.753906 31.882812 31.859375 24.777344 31.859375 16.011719 C 31.859375 7.246094 24.753906 0.140625 15.988281 0.140625 C 7.222656 0.140625 0.117188 7.246094 0.117188 16.011719 C 0.117188 24.777344 7.222656 31.882812 15.988281 31.882812 "/>
<path style=" stroke:none;fill-rule:nonzero;fill:rgb(93.72549%,69.803922%,11.764706%);fill-opacity:1;" d="M 15.988281 0.753906 C 7.574219 0.753906 0.730469 7.597656 0.730469 16.011719 C 0.730469 24.425781 7.574219 31.269531 15.988281 31.269531 C 24.402344 31.269531 31.246094 24.425781 31.246094 16.011719 C 31.246094 7.597656 24.402344 0.753906 15.988281 0.753906 Z M 15.988281 7.371094 C 20.753906 7.371094 24.628906 11.246094 24.628906 16.011719 C 24.628906 20.777344 20.753906 24.65625 15.988281 24.65625 C 11.222656 24.65625 7.347656 20.777344 7.347656 16.011719 C 7.347656 11.246094 11.222656 7.371094 15.988281 7.371094 Z M 15.457031 9.324219 C 15.292969 9.328125 15.132812 9.34375 14.980469 9.378906 C 13.25 9.785156 13.402344 11.160156 13.40625 11.175781 L 13.464844 11.648438 L 13.746094 11.265625 C 14.035156 10.871094 14.386719 10.945312 14.53125 11.039062 C 14.640625 11.109375 14.722656 11.15625 14.722656 11.28125 C 14.722656 11.339844 14.707031 11.40625 14.671875 11.5 C 14.671875 11.5 14.542969 11.839844 14.476562 12.015625 C 14.285156 11.980469 14.097656 11.96875 13.902344 12 C 13.445312 12.078125 13.121094 12.269531 12.929688 12.574219 C 12.640625 13.035156 12.789062 13.574219 12.796875 13.597656 L 12.898438 13.945312 L 13.125 13.664062 C 13.375 13.355469 13.601562 13.429688 13.710938 13.503906 C 13.800781 13.5625 13.851562 13.59375 13.78125 13.851562 C 13.785156 13.847656 12.195312 19.175781 11.976562 19.898438 C 10.675781 20.378906 10.523438 21.257812 10.523438 21.621094 C 10.523438 21.722656 10.535156 21.78125 10.535156 21.785156 L 10.59375 22.101562 L 10.84375 21.894531 C 10.847656 21.890625 11.421875 21.425781 12.375 21.332031 C 12.578125 21.3125 12.875 21.386719 13.160156 21.457031 C 13.441406 21.53125 13.730469 21.605469 13.976562 21.597656 C 14.320312 21.589844 14.605469 21.472656 14.796875 21.265625 C 14.988281 21.054688 15.082031 20.765625 15.0625 20.421875 L 15.054688 20.320312 L 13.972656 19.714844 L 13.929688 19.976562 C 13.921875 20.011719 13.90625 20.070312 13.863281 20.09375 C 13.847656 20.105469 13.828125 20.105469 13.800781 20.109375 C 13.890625 19.804688 14.292969 18.40625 14.355469 18.183594 L 16.628906 18.183594 C 16.691406 18.421875 17.042969 19.796875 17.042969 19.796875 C 17.402344 21.273438 18.535156 21.761719 19.492188 21.589844 C 20.492188 21.410156 21.183594 20.386719 21.300781 18.910156 L 21.316406 18.707031 L 21.109375 18.707031 C 21.011719 18.707031 20.964844 18.765625 20.882812 18.875 C 20.691406 19.121094 20.355469 19.359375 20.105469 19.316406 C 19.945312 19.285156 19.824219 19.132812 19.742188 18.863281 C 19.742188 18.871094 17.992188 11.617188 17.992188 11.617188 C 17.875 10.839844 17.472656 10.171875 16.863281 9.757812 C 16.441406 9.472656 15.941406 9.324219 15.457031 9.324219 Z M 19.183594 12 C 19.015625 12.011719 18.863281 12.082031 18.765625 12.195312 C 18.609375 12.375 18.570312 12.632812 18.667969 12.828125 C 18.75 12.988281 18.902344 13.074219 19.082031 13.066406 C 19.085938 13.066406 19.101562 13.066406 19.113281 13.066406 C 19.109375 13.078125 19.105469 13.09375 19.105469 13.09375 C 19.023438 13.296875 18.988281 13.3125 18.898438 13.355469 L 18.738281 13.425781 L 18.800781 13.585938 L 18.992188 13.859375 L 19.085938 13.835938 C 19.230469 13.804688 19.480469 13.648438 19.5625 13.578125 C 19.851562 13.328125 20.050781 12.859375 19.84375 12.371094 C 19.761719 12.175781 19.585938 12.042969 19.355469 12.007812 C 19.300781 12 19.242188 11.996094 19.183594 12 Z M 21.257812 12.332031 C 20.488281 12.332031 19.953125 12.855469 19.953125 13.605469 C 19.953125 14.40625 20.492188 14.558594 20.96875 14.695312 C 21.136719 14.742188 21.390625 14.816406 21.390625 14.941406 C 21.390625 15.128906 21.144531 15.132812 21.113281 15.132812 C 20.898438 15.132812 20.671875 15.03125 20.433594 14.820312 L 20.296875 14.703125 L 19.777344 15.679688 L 19.882812 15.753906 C 20.257812 16.019531 20.707031 16.164062 21.144531 16.164062 C 21.554688 16.164062 21.929688 16.039062 22.195312 15.8125 C 22.460938 15.589844 22.59375 15.246094 22.59375 14.796875 C 22.59375 14.09375 22.0625 13.855469 21.660156 13.738281 L 21.4375 13.671875 C 21.332031 13.636719 21.152344 13.578125 21.152344 13.488281 C 21.152344 13.40625 21.285156 13.351562 21.382812 13.351562 C 21.550781 13.351562 21.722656 13.421875 21.871094 13.542969 L 22.007812 13.65625 L 22.503906 12.695312 L 22.382812 12.625 C 22.066406 12.445312 21.625 12.332031 21.257812 12.332031 Z M 15.617188 13.992188 C 15.800781 14.796875 16.09375 16.074219 16.164062 16.382812 L 14.925781 16.382812 C 15.019531 16.0625 15.386719 14.789062 15.617188 13.992188 Z M 15.617188 13.992188 "/>
<path style=" stroke:none;fill-rule:nonzero;fill:rgb(0%,21.960784%,19.215686%);fill-opacity:1;" d="M 15.988281 1.203125 C 7.824219 1.203125 1.179688 7.847656 1.179688 16.011719 C 1.179688 24.175781 7.824219 30.820312 15.988281 30.820312 C 24.152344 30.820312 30.792969 24.175781 30.792969 16.011719 C 30.792969 7.847656 24.152344 1.203125 15.988281 1.203125 Z M 15.988281 6.949219 C 20.988281 6.949219 25.054688 11.015625 25.054688 16.011719 C 25.054688 21.011719 20.988281 25.078125 15.988281 25.078125 C 10.988281 25.078125 6.921875 21.011719 6.921875 16.011719 C 6.921875 11.015625 10.988281 6.949219 15.988281 6.949219 Z M 15.988281 6.949219 "/>
<path style=" stroke:none;fill-rule:nonzero;fill:rgb(100%,100%,100%);fill-opacity:1;" d="M 15.675781 2.617188 L 14.96875 2.636719 L 15.054688 5.886719 L 16.5 5.847656 L 16.484375 5.246094 L 15.742188 5.265625 Z M 13.074219 2.886719 L 12.386719 3.097656 L 12.246094 4.65625 L 12.234375 4.660156 L 11.8125 3.269531 L 11.136719 3.476562 L 12.082031 6.585938 L 12.757812 6.382812 L 12.277344 4.796875 L 12.285156 4.792969 L 13.390625 6.1875 L 14.101562 5.972656 L 12.878906 4.515625 Z M 18.847656 2.925781 L 17.25 5.878906 L 17.933594 6.050781 L 18.1875 5.550781 L 18.882812 5.722656 L 18.878906 6.285156 L 19.609375 6.46875 L 19.570312 3.109375 Z M 18.976562 3.820312 L 18.984375 3.824219 L 18.945312 4.320312 L 18.90625 5.203125 L 18.421875 5.082031 L 18.78125 4.28125 Z M 22.140625 4.074219 L 20.417969 6.832031 L 21.015625 7.207031 L 21.808594 5.941406 L 21.875 5.824219 L 22.019531 5.53125 L 22.03125 5.527344 L 21.730469 7.652344 L 22.300781 8.007812 L 24.023438 5.25 L 23.421875 4.875 L 22.648438 6.117188 C 22.558594 6.261719 22.480469 6.410156 22.4375 6.5625 L 22.425781 6.566406 L 22.714844 4.433594 Z M 8.734375 4.714844 L 8.117188 5.132812 L 9.246094 8.292969 L 9.832031 7.898438 L 9.628906 7.375 L 10.222656 6.972656 L 10.640625 7.351562 L 11.265625 6.929688 Z M 8.875 5.628906 L 9.21875 5.992188 L 9.851562 6.609375 L 9.441406 6.886719 L 9.082031 6.085938 L 8.867188 5.632812 L 8.878906 5.628906 Z M 25.601562 6.644531 L 23.113281 8.734375 L 23.515625 9.21875 C 24.234375 10.070312 25 9.941406 25.710938 9.34375 C 27.101562 8.179688 26.023438 7.152344 25.945312 7.054688 Z M 6.363281 7.078125 C 6.007812 7.089844 5.722656 7.261719 5.523438 7.507812 C 5.121094 7.996094 5.082031 8.769531 6.027344 9.542969 C 6.96875 10.3125 7.71875 10.117188 8.121094 9.628906 C 8.519531 9.140625 8.5625 8.367188 7.617188 7.59375 C 7.144531 7.210938 6.71875 7.066406 6.363281 7.078125 Z M 25.613281 7.558594 C 25.988281 8.003906 25.578125 8.535156 25.261719 8.800781 C 24.949219 9.0625 24.355469 9.355469 24.007812 8.90625 Z M 6.257812 7.75 C 6.574219 7.738281 6.972656 8.042969 7.140625 8.179688 C 7.339844 8.34375 7.957031 8.890625 7.660156 9.253906 C 7.363281 9.617188 6.703125 9.121094 6.503906 8.957031 C 6.277344 8.773438 5.6875 8.246094 5.984375 7.882812 C 6.058594 7.792969 6.152344 7.753906 6.257812 7.75 Z M 24.777344 21.289062 C 24.582031 21.390625 24.417969 21.53125 24.292969 21.71875 C 23.949219 22.21875 24.132812 22.738281 24.554688 23.03125 C 24.949219 23.296875 25.289062 23.226562 25.726562 23.03125 C 25.945312 22.9375 26.144531 22.8125 26.351562 22.953125 C 26.53125 23.074219 26.542969 23.300781 26.414062 23.488281 C 26.296875 23.660156 26.148438 23.753906 25.96875 23.832031 L 26.472656 24.179688 C 26.65625 24.105469 26.839844 23.933594 26.953125 23.769531 C 27.328125 23.222656 27.171875 22.675781 26.695312 22.347656 C 25.96875 21.851562 25.335938 22.722656 24.898438 22.421875 C 24.730469 22.3125 24.710938 22.128906 24.832031 21.949219 C 24.941406 21.789062 25.121094 21.695312 25.292969 21.644531 Z M 7.515625 21.683594 L 4.390625 22.910156 L 4.800781 23.480469 L 5.320312 23.261719 L 5.738281 23.84375 L 5.371094 24.273438 L 5.8125 24.882812 L 7.949219 22.289062 Z M 7.035156 22.449219 L 7.039062 22.457031 L 6.6875 22.808594 L 6.089844 23.460938 L 5.800781 23.058594 L 6.59375 22.675781 Z M 23.402344 23.023438 C 23.289062 23.074219 23.183594 23.136719 23.09375 23.21875 C 22.371094 23.855469 22.480469 24.863281 23.015625 25.46875 C 23.582031 26.109375 24.558594 26.359375 25.320312 25.683594 C 25.40625 25.609375 25.476562 25.523438 25.527344 25.425781 L 25.125 24.972656 C 25.074219 25.050781 25.023438 25.125 24.953125 25.1875 C 24.492188 25.59375 23.894531 25.328125 23.574219 24.964844 C 23.246094 24.589844 23.105469 24.027344 23.570312 23.617188 C 23.640625 23.554688 23.710938 23.507812 23.792969 23.464844 Z M 8.679688 23.179688 L 8.289062 23.640625 L 8.710938 24 L 6.992188 26.011719 L 7.53125 26.472656 L 9.25 24.457031 L 9.675781 24.820312 L 10.066406 24.363281 Z M 21.277344 24.816406 L 20.660156 25.160156 L 22.246094 28 L 22.863281 27.65625 Z M 10.769531 24.835938 L 9.421875 27.792969 L 10.066406 28.085938 L 10.636719 26.832031 L 11.289062 27.132812 L 10.71875 28.382812 L 11.359375 28.675781 L 12.707031 25.71875 L 12.066406 25.425781 L 11.539062 26.582031 L 10.886719 26.285156 L 11.414062 25.128906 Z M 20.578125 25.078125 L 20.773438 25.425781 C 20.730469 25.351562 20.578125 25.082031 20.578125 25.078125 Z M 19.761719 25.492188 L 18.019531 26.019531 L 18.195312 26.597656 L 18.726562 26.4375 L 19.5 28.96875 L 20.175781 28.765625 L 19.402344 26.230469 L 19.9375 26.066406 Z M 13.714844 25.960938 L 13.714844 25.964844 L 13.710938 25.988281 C 13.667969 26.226562 13.191406 29.171875 13.191406 29.171875 C 13.191406 29.175781 14.621094 29.40625 14.621094 29.40625 L 14.621094 29.398438 C 14.632812 29.347656 14.71875 28.808594 14.71875 28.808594 L 14.714844 28.808594 C 14.695312 28.804688 13.988281 28.6875 13.988281 28.6875 C 13.988281 28.6875 14.414062 26.078125 14.414062 26.078125 Z M 17.207031 26.144531 L 15.789062 26.21875 L 15.957031 29.464844 L 17.386719 29.390625 L 17.355469 28.785156 L 16.628906 28.824219 L 16.59375 28.09375 L 17.222656 28.058594 L 17.191406 27.457031 L 16.5625 27.488281 L 16.523438 26.785156 L 17.238281 26.746094 Z M 14.71875 28.8125 L 14.714844 28.816406 Z M 14.71875 28.8125 "/>
<path style=" stroke:none;fill-rule:nonzero;fill:rgb(0%,21.960784%,19.215686%);fill-opacity:1;" d="M 15.464844 9.703125 C 15.328125 9.707031 15.195312 9.71875 15.066406 9.75 C 14.257812 9.9375 13.957031 10.359375 13.847656 10.6875 C 14.183594 10.519531 14.542969 10.59375 14.765625 10.738281 C 14.910156 10.828125 15.25 11.035156 15.027344 11.632812 L 14.714844 12.453125 L 14.546875 12.402344 C 14.359375 12.351562 14.164062 12.339844 13.964844 12.375 C 13.621094 12.433594 13.382812 12.566406 13.253906 12.773438 C 13.171875 12.902344 13.144531 13.042969 13.140625 13.164062 C 13.421875 13.003906 13.710938 13.050781 13.917969 13.183594 C 14.0625 13.28125 14.191406 13.40625 14.191406 13.664062 C 14.191406 13.746094 14.179688 13.84375 14.148438 13.957031 L 12.289062 20.1875 L 12.195312 20.21875 C 11.242188 20.535156 10.988281 21.0625 10.921875 21.398438 C 11.214844 21.234375 11.679688 21.019531 12.335938 20.953125 C 12.609375 20.925781 12.9375 21.011719 13.253906 21.089844 C 13.507812 21.15625 13.773438 21.222656 13.96875 21.21875 C 14.210938 21.210938 14.394531 21.140625 14.515625 21.007812 C 14.640625 20.871094 14.675781 20.695312 14.679688 20.542969 C 14.570312 20.484375 14.378906 20.375 14.207031 20.277344 C 14.164062 20.339844 14.113281 20.390625 14.050781 20.425781 C 13.945312 20.484375 13.765625 20.53125 13.496094 20.425781 L 13.335938 20.363281 L 14.070312 17.804688 L 16.777344 17.804688 L 16.921875 17.800781 L 17.410156 19.703125 C 17.734375 21.03125 18.699219 21.347656 19.425781 21.214844 C 20.113281 21.09375 20.609375 20.421875 20.820312 19.449219 C 20.582031 19.621094 20.300781 19.738281 20.035156 19.6875 C 19.824219 19.648438 19.535156 19.492188 19.375 18.960938 C 19.375 18.960938 17.625 11.707031 17.621094 11.6875 C 17.488281 10.808594 17.019531 10.324219 16.648438 10.070312 C 16.292969 9.832031 15.871094 9.703125 15.464844 9.703125 Z M 19.214844 12.289062 C 19.121094 12.296875 19.03125 12.328125 18.988281 12.382812 C 18.894531 12.492188 18.890625 12.621094 18.929688 12.699219 C 18.957031 12.753906 19.003906 12.78125 19.082031 12.773438 C 19.171875 12.769531 19.300781 12.761719 19.378906 12.867188 C 19.40625 12.910156 19.417969 12.957031 19.417969 13.007812 C 19.417969 13.078125 19.394531 13.148438 19.375 13.203125 C 19.324219 13.328125 19.277344 13.394531 19.230469 13.453125 C 19.285156 13.417969 19.347656 13.382812 19.375 13.355469 C 19.515625 13.234375 19.640625 13.03125 19.640625 12.785156 C 19.640625 12.691406 19.621094 12.589844 19.578125 12.484375 C 19.519531 12.34375 19.386719 12.304688 19.3125 12.292969 C 19.28125 12.289062 19.246094 12.289062 19.214844 12.289062 Z M 15.660156 12.480469 L 16.644531 16.765625 L 14.421875 16.765625 L 15.457031 13.183594 Z M 21.257812 12.621094 C 20.652344 12.621094 20.242188 13.015625 20.242188 13.605469 C 20.242188 14.132812 20.476562 14.253906 21.074219 14.425781 C 21.289062 14.484375 21.683594 14.597656 21.683594 14.941406 C 21.683594 15.222656 21.449219 15.421875 21.113281 15.421875 C 20.871094 15.421875 20.632812 15.316406 20.390625 15.136719 C 20.316406 15.277344 20.230469 15.445312 20.160156 15.574219 C 20.464844 15.761719 20.804688 15.875 21.144531 15.875 C 21.488281 15.875 21.792969 15.773438 22.007812 15.59375 C 22.203125 15.425781 22.304688 15.15625 22.304688 14.796875 C 22.304688 14.398438 22.085938 14.167969 21.578125 14.015625 C 21.578125 14.015625 21.355469 13.949219 21.351562 13.949219 C 21.179688 13.894531 20.863281 13.789062 20.863281 13.488281 C 20.863281 13.222656 21.128906 13.0625 21.382812 13.0625 C 21.5625 13.0625 21.738281 13.128906 21.902344 13.230469 C 21.96875 13.101562 22.042969 12.960938 22.109375 12.828125 C 21.847656 12.707031 21.535156 12.621094 21.257812 12.621094 Z M 21.257812 12.621094 "/>
</g>
</svg>
