<?xml version="1.0" encoding="UTF-8"?>
<svg xmlns="http://www.w3.org/2000/svg" xmlns:xlink="http://www.w3.org/1999/xlink" width="32px" height="32px" viewBox="0 0 32 12" version="1.1">
<g id="surface1">
<path style=" stroke:none;fill-rule:nonzero;fill:rgb(7.45098%,15.294118%,30.980392%);fill-opacity:1;" d="M 4.40625 0.191406 C 3.21875 0.21875 2.507812 0.847656 2.121094 1.375 C 1.59375 2.09375 1.429688 2.921875 1.539062 3.367188 L 1.597656 3.605469 L 1.839844 3.691406 C 1.988281 3.738281 2.144531 3.703125 2.261719 3.59375 C 2.613281 3.308594 2.824219 3.234375 2.878906 3.226562 L 2.929688 3.222656 C 2.328125 4.035156 1.960938 5.046875 1.609375 6.027344 C 1.242188 7.054688 0.894531 8.027344 0.335938 8.546875 L 0.160156 8.707031 L 0.203125 8.945312 C 0.25 9.214844 0.285156 9.785156 0.261719 10.363281 C 0.257812 10.5625 0.347656 10.722656 0.5 10.808594 C 0.652344 10.890625 0.832031 10.871094 0.976562 10.761719 C 1.921875 10.058594 2.558594 8.132812 3.121094 6.429688 C 3.355469 5.726562 3.578125 5.054688 3.785156 4.59375 C 3.757812 4.714844 3.757812 4.84375 3.785156 4.972656 C 3.917969 5.476562 4.335938 5.738281 4.832031 5.636719 C 4.832031 5.636719 4.878906 5.617188 4.933594 5.589844 C 5.085938 5.824219 5.167969 6.160156 5.167969 6.53125 C 5.167969 6.816406 5.117188 7.125 5.015625 7.414062 C 4.886719 7.785156 4.46875 8.65625 3.457031 8.632812 C 3.238281 8.625 3.011719 8.53125 2.96875 8.507812 C 2.707031 8.355469 2.472656 8.464844 2.367188 8.636719 C 2.257812 8.808594 2.269531 9.074219 2.496094 9.25 C 2.472656 9.226562 2.511719 9.261719 2.511719 9.261719 C 2.730469 9.457031 3.246094 9.925781 4.273438 9.886719 C 5.132812 9.847656 5.933594 9.242188 6.371094 8.339844 C 6.371094 8.347656 6.367188 8.363281 6.367188 8.375 C 6.367188 8.507812 6.433594 8.605469 6.460938 8.644531 C 6.574219 8.792969 6.8125 8.898438 7.109375 8.714844 C 7.273438 8.613281 7.496094 8.464844 7.738281 8.246094 C 8.144531 7.871094 8.542969 7.359375 9 6.628906 C 9.019531 6.59375 9.25 6.222656 9.476562 5.75 C 9.523438 5.753906 9.578125 5.75 9.628906 5.746094 C 9.515625 6.078125 9.394531 6.480469 9.394531 6.859375 C 9.394531 7.285156 9.542969 7.675781 10.015625 7.886719 C 10.542969 8.125 11.402344 7.925781 12.214844 7.054688 C 12.40625 7.308594 12.671875 7.472656 13.003906 7.503906 C 13.332031 7.515625 13.683594 7.355469 13.949219 7.167969 C 14.144531 7.308594 14.410156 7.441406 14.769531 7.402344 C 15.292969 7.347656 15.8125 6.945312 16.363281 6.164062 L 16.683594 5.671875 C 17.007812 5.164062 17.488281 4.414062 17.867188 4.019531 C 17.839844 4.09375 17.808594 4.175781 17.746094 4.277344 C 17.429688 4.8125 17.128906 5.363281 17.128906 5.839844 C 17.128906 5.949219 17.144531 6.058594 17.183594 6.160156 C 17.265625 6.390625 17.449219 6.566406 17.695312 6.648438 C 18.707031 6.984375 19.777344 6.117188 20.59375 4.335938 C 20.695312 4.308594 20.796875 4.273438 20.898438 4.230469 C 20.78125 4.480469 20.707031 4.71875 20.707031 4.925781 C 20.707031 5.277344 20.851562 5.5625 21.046875 5.75 C 21.550781 6.238281 22.4375 6.210938 23.09375 5.734375 C 23.378906 5.894531 23.710938 5.996094 24.0625 5.996094 C 24.824219 6.011719 25.492188 5.664062 25.902344 5.046875 C 26.304688 4.4375 26.378906 3.652344 26.097656 2.945312 L 26.09375 2.945312 C 25.996094 2.695312 25.707031 1.972656 26.152344 1.355469 C 26.320312 1.152344 26.242188 0.929688 26.214844 0.867188 C 26.1875 0.804688 26.070312 0.597656 25.777344 0.605469 L 25.742188 0.605469 C 24.839844 0.695312 24.335938 1.75 23.808594 2.867188 C 23.753906 2.980469 23.6875 3.105469 23.625 3.222656 C 23.601562 3.21875 23.574219 3.210938 23.550781 3.207031 C 23.464844 3.199219 23.382812 3.207031 23.300781 3.214844 C 23.296875 3.203125 23.296875 3.1875 23.292969 3.171875 C 23.273438 3.121094 23.230469 3.078125 23.195312 3.035156 C 23.265625 3.015625 23.355469 2.992188 23.355469 2.992188 C 23.605469 2.929688 23.695312 2.671875 23.722656 2.5625 C 23.742188 2.492188 23.75 2.417969 23.75 2.347656 C 23.75 2.179688 23.703125 2.019531 23.613281 1.878906 C 23.464844 1.660156 23.222656 1.511719 22.949219 1.472656 C 22.417969 1.402344 21.84375 1.847656 21.605469 2.453125 C 21.417969 2.671875 21.199219 2.824219 20.988281 2.929688 C 20.933594 2.496094 20.667969 2.183594 20.269531 2.113281 C 19.84375 2.039062 19.402344 2.273438 19.226562 2.675781 C 19.21875 2.691406 19.214844 2.707031 19.207031 2.726562 C 19.121094 2.578125 19.003906 2.453125 18.851562 2.390625 C 17.710938 1.9375 16.847656 3.308594 16.082031 4.519531 C 15.777344 5.003906 15.488281 5.460938 15.214844 5.773438 C 15.191406 5.800781 15.179688 5.800781 15.160156 5.820312 C 15.167969 5.742188 15.1875 5.644531 15.242188 5.523438 C 15.25 5.507812 16.285156 3.050781 16.285156 3.050781 L 14.851562 3.195312 C 14.851562 3.195312 14.835938 3.238281 14.824219 3.265625 C 14.695312 3.199219 14.550781 3.144531 14.386719 3.125 C 13.105469 2.960938 12.320312 4.097656 12.007812 5.210938 C 11.988281 5.273438 11.878906 5.496094 11.773438 5.675781 C 11.359375 6.414062 11.003906 6.621094 10.863281 6.632812 C 10.851562 6.59375 10.84375 6.554688 10.84375 6.492188 C 10.84375 6.101562 11.035156 5.304688 11.25 4.777344 C 11.28125 4.683594 11.296875 4.601562 11.296875 4.53125 C 11.296875 4.347656 11.203125 4.234375 11.152344 4.1875 C 11.039062 4.082031 10.847656 4.015625 10.628906 4.128906 C 10.382812 4.273438 10.140625 4.359375 9.914062 4.410156 C 9.917969 4.375 9.925781 4.335938 9.925781 4.300781 C 9.925781 4.203125 9.914062 4.113281 9.886719 4.035156 C 9.75 3.667969 9.476562 3.429688 9.136719 3.375 C 8.796875 3.320312 8.445312 3.464844 8.222656 3.753906 C 8.078125 3.945312 8 4.167969 8 4.40625 C 8 4.554688 8.03125 4.710938 8.089844 4.863281 C 8.148438 5.007812 8.246094 5.144531 8.363281 5.269531 C 8.234375 5.539062 8.082031 5.828125 7.933594 6.089844 C 7.5 6.855469 7.097656 7.40625 6.546875 7.984375 C 6.523438 8.007812 6.507812 8.03125 6.492188 8.054688 C 6.503906 8.015625 6.519531 7.976562 6.535156 7.933594 C 6.652344 7.589844 6.707031 7.238281 6.707031 6.894531 C 6.707031 6.171875 6.449219 5.484375 5.984375 4.921875 C 6.703125 4.355469 7.136719 3.53125 7.136719 2.671875 C 7.136719 2.5 7.117188 2.332031 7.085938 2.160156 C 7.191406 2.128906 7.296875 2.09375 7.40625 2.058594 C 7.808594 1.953125 7.773438 1.597656 7.769531 1.558594 C 7.765625 1.515625 7.707031 1.164062 7.28125 1.167969 C 7.070312 1.171875 6.867188 1.1875 6.667969 1.203125 C 6.246094 0.632812 5.515625 0.1875 4.40625 0.191406 Z M 4.304688 1.570312 C 4.351562 1.566406 4.398438 1.570312 4.449219 1.570312 C 4.546875 1.578125 4.695312 1.605469 4.855469 1.675781 C 4.246094 1.949219 3.714844 2.335938 3.265625 2.820312 L 3.265625 2.769531 C 3.257812 2.671875 3.246094 2.164062 3.546875 1.847656 C 3.71875 1.671875 3.972656 1.578125 4.304688 1.570312 Z M 27.949219 1.96875 L 27.554688 2.585938 C 27.335938 2.921875 27.308594 3.25 27.289062 3.464844 C 27.289062 3.464844 27.28125 3.550781 27.277344 3.585938 C 27.257812 3.605469 27.230469 3.636719 27.230469 3.636719 L 27.042969 3.839844 L 27.019531 3.867188 C 26.753906 4.199219 26.710938 4.480469 26.710938 5.15625 L 26.707031 5.21875 C 26.6875 5.242188 26.664062 5.273438 26.664062 5.273438 C 26.441406 5.558594 26.433594 5.90625 26.425781 6.160156 C 26.425781 6.160156 26.417969 6.363281 26.417969 6.367188 C 25.769531 6.464844 12.976562 8.304688 12.6875 8.34375 C 11.867188 8.453125 11.488281 9.105469 11.546875 9.65625 C 11.652344 10.609375 12.328125 10.894531 12.925781 10.84375 C 13.304688 10.8125 22.597656 9.425781 25.902344 8.933594 C 25.875 9.066406 25.855469 9.203125 25.855469 9.351562 C 25.855469 9.53125 25.886719 9.722656 25.953125 9.921875 C 25.902344 10.042969 25.859375 10.175781 25.839844 10.324219 C 25.828125 10.414062 25.824219 10.5 25.824219 10.574219 C 25.824219 11.105469 26.050781 11.402344 26.253906 11.558594 C 26.582031 11.808594 27.015625 11.828125 27.539062 11.640625 C 28.082031 11.742188 28.679688 11.6875 29.21875 11.480469 C 29.726562 11.578125 30.242188 11.277344 30.496094 11.125 C 30.496094 11.125 30.503906 11.121094 30.503906 11.121094 L 30.527344 11.121094 L 30.882812 11.109375 L 30.941406 11.097656 C 31.175781 11.054688 31.609375 10.972656 31.804688 10.535156 C 31.863281 10.40625 31.882812 10.277344 31.882812 10.160156 C 31.882812 9.855469 31.742188 9.601562 31.683594 9.5 C 31.683594 9.476562 31.6875 9.460938 31.6875 9.433594 C 31.6875 9.351562 31.679688 9.246094 31.652344 9.125 C 31.582031 8.792969 31.402344 8.550781 31.273438 8.375 L 31.167969 8.222656 L 31.125 8.109375 C 31.105469 8.0625 31.082031 8.003906 31.054688 7.941406 C 31.335938 7.707031 31.449219 7.453125 31.496094 7.277344 C 31.589844 6.90625 31.488281 6.519531 31.210938 6.25 C 30.941406 5.980469 30.535156 5.855469 30.078125 5.886719 C 30.066406 5.296875 29.792969 4.960938 29.640625 4.789062 C 29.636719 4.761719 29.636719 4.730469 29.636719 4.730469 C 29.636719 4.382812 29.632812 3.746094 29.117188 3.230469 C 29.003906 3.117188 28.992188 3.085938 28.949219 2.972656 C 28.949219 2.972656 28.894531 2.847656 28.878906 2.816406 C 28.851562 2.746094 28.777344 2.585938 28.53125 2.402344 Z M 22.835938 2.609375 C 22.851562 2.734375 22.90625 2.828125 22.941406 2.867188 C 22.941406 2.867188 22.96875 2.894531 22.980469 2.910156 C 22.894531 2.886719 22.800781 2.871094 22.683594 2.910156 C 22.679688 2.910156 22.675781 2.90625 22.667969 2.90625 C 22.667969 2.898438 22.667969 2.894531 22.667969 2.890625 C 22.667969 2.792969 22.71875 2.695312 22.78125 2.644531 C 22.804688 2.625 22.820312 2.617188 22.835938 2.609375 Z M 5.589844 2.765625 C 5.585938 2.996094 5.527344 3.492188 5.136719 3.972656 L 5.132812 3.980469 C 5.117188 4 5.101562 4.011719 5.082031 4.027344 C 4.734375 3.855469 4.363281 3.875 4.089844 4.097656 C 4.0625 4.117188 4.035156 4.144531 4.011719 4.167969 C 4.015625 4.160156 4.023438 4.152344 4.027344 4.144531 L 4.109375 4.027344 C 4.375 3.660156 4.6875 3.230469 5.589844 2.765625 Z M 24.957031 3.152344 C 24.972656 3.238281 24.992188 3.320312 24.992188 3.417969 C 24.992188 3.457031 24.988281 3.496094 24.984375 3.539062 C 24.953125 4.25 24.535156 4.484375 24.148438 4.5625 C 24.410156 4.164062 24.636719 3.746094 24.832031 3.375 C 24.875 3.304688 24.914062 3.226562 24.957031 3.152344 Z M 19.207031 3.839844 C 19.21875 3.863281 19.222656 3.886719 19.234375 3.910156 C 19.285156 4.003906 19.363281 4.066406 19.4375 4.132812 C 19.121094 4.707031 18.816406 5.078125 18.628906 5.199219 C 18.691406 4.960938 18.875 4.582031 18.988281 4.347656 L 19.140625 4.027344 C 19.171875 3.957031 19.183594 3.902344 19.207031 3.839844 Z M 22.328125 4.269531 C 22.316406 4.335938 22.285156 4.398438 22.285156 4.464844 C 22.285156 4.601562 22.3125 4.738281 22.355469 4.875 C 22.261719 4.90625 22.171875 4.921875 22.125 4.878906 C 22.097656 4.855469 22.082031 4.8125 22.082031 4.757812 C 22.082031 4.6875 22.109375 4.589844 22.164062 4.488281 C 22.203125 4.410156 22.261719 4.339844 22.328125 4.269531 Z M 14.09375 4.375 C 14.121094 4.375 14.125 4.382812 14.128906 4.386719 C 14.144531 4.40625 14.15625 4.457031 14.15625 4.539062 C 14.15625 4.648438 14.128906 4.820312 14.035156 5.058594 C 13.710938 5.910156 13.480469 6.0625 13.417969 6.089844 C 13.402344 6.097656 13.386719 6.105469 13.34375 6.085938 C 13.320312 6.074219 13.257812 5.914062 13.324219 5.566406 C 13.457031 4.910156 13.886719 4.375 14.09375 4.375 Z M 14.09375 4.375 "/>
<path style=" stroke:none;fill-rule:nonzero;fill:rgb(80.784314%,6.666667%,25.490196%);fill-opacity:1;" d="M 4.410156 0.625 C 2.449219 0.667969 1.796875 2.664062 1.945312 3.261719 C 1.949219 3.269531 1.964844 3.285156 1.980469 3.269531 C 2.347656 2.972656 2.652344 2.8125 2.84375 2.796875 C 2.8125 2.269531 2.996094 1.070312 4.46875 1.136719 C 4.800781 1.152344 5.363281 1.335938 5.710938 1.820312 C 4.898438 2.046875 4.023438 2.503906 3.324219 3.402344 C 2.066406 5.015625 1.835938 7.738281 0.617188 8.871094 C 0.675781 9.195312 0.707031 9.808594 0.679688 10.378906 C 0.679688 10.441406 0.714844 10.425781 0.730469 10.410156 C 2.105469 9.382812 2.902344 4.957031 3.691406 3.882812 C 4.046875 3.398438 4.402344 2.792969 5.890625 2.148438 C 5.941406 2.277344 5.984375 2.417969 6.003906 2.578125 C 6.039062 2.871094 5.988281 3.601562 5.460938 4.25 C 5.339844 4.40625 5.132812 4.535156 5.070312 4.523438 C 4.996094 4.460938 5.003906 4.480469 4.917969 4.421875 C 4.464844 4.179688 4.117188 4.539062 4.195312 4.875 C 4.253906 5.097656 4.4375 5.273438 4.753906 5.210938 C 4.851562 5.195312 5.011719 5.046875 5.042969 5.074219 C 6.136719 5.976562 5.585938 9.113281 3.449219 9.066406 C 3.125 9.058594 2.816406 8.917969 2.765625 8.886719 C 2.710938 8.855469 2.710938 8.871094 2.746094 8.894531 C 2.917969 9.046875 3.332031 9.488281 4.257812 9.453125 C 5.988281 9.378906 7.226562 6.492188 5.34375 4.855469 C 6.546875 4.207031 6.96875 2.878906 6.566406 1.882812 C 6.789062 1.804688 7.023438 1.722656 7.289062 1.640625 C 7.347656 1.625 7.394531 1.601562 7.289062 1.601562 C 7.042969 1.605469 6.765625 1.625 6.464844 1.664062 C 6.125 1.058594 5.445312 0.621094 4.410156 0.625 Z M 25.78125 1.039062 C 25.125 1.101562 24.699219 1.976562 24.1875 3.058594 C 24.078125 3.285156 23.953125 3.523438 23.820312 3.757812 C 23.636719 3.605469 23.039062 3.484375 22.789062 4.082031 C 22.644531 4.429688 22.707031 4.757812 22.902344 5.019531 C 22.851562 5.070312 22.800781 5.121094 22.75 5.160156 C 22.140625 5.652344 21.34375 5.140625 21.796875 4.28125 C 22.015625 3.859375 22.558594 3.53125 22.769531 3.449219 C 22.867188 3.40625 22.976562 3.265625 22.8125 3.324219 C 22.613281 3.394531 22.328125 3.28125 22.269531 3.074219 C 22.1875 2.777344 22.320312 2.472656 22.519531 2.308594 C 23.019531 1.890625 23.308594 2.292969 23.257812 2.53125 C 23.230469 2.621094 23.292969 2.554688 23.316406 2.453125 C 23.390625 2.167969 23.171875 1.941406 22.894531 1.902344 C 22.527344 1.859375 22.078125 2.246094 21.949219 2.71875 C 21.523438 3.214844 20.933594 3.488281 20.46875 3.539062 C 20.542969 3.3125 20.589844 3.117188 20.578125 3.011719 C 20.527344 2.378906 19.796875 2.425781 19.609375 2.855469 C 19.421875 3.269531 19.480469 3.890625 20.007812 3.96875 C 19.613281 4.785156 18.945312 5.808594 18.441406 5.691406 C 17.84375 5.558594 18.40625 4.605469 18.761719 3.839844 C 19.042969 3.234375 18.925781 2.886719 18.699219 2.796875 C 17.523438 2.324219 16.507812 4.957031 15.523438 6.0625 C 14.898438 6.769531 14.515625 6.082031 14.863281 5.335938 L 15.613281 3.554688 L 15.148438 3.601562 L 15 3.988281 C 14.9375 3.832031 14.699219 3.601562 14.335938 3.554688 C 13.316406 3.425781 12.675781 4.398438 12.414062 5.332031 C 12.378906 5.460938 12.195312 5.796875 12.140625 5.894531 C 11.605469 6.84375 11.027344 7.214844 10.636719 7.023438 C 10.128906 6.78125 10.675781 5.070312 10.863281 4.609375 C 10.894531 4.515625 10.878906 4.484375 10.816406 4.515625 C 10.375 4.777344 9.816406 4.933594 9.371094 4.910156 C 9.484375 4.601562 9.546875 4.328125 9.492188 4.1875 C 9.203125 3.410156 8.171875 3.898438 8.484375 4.703125 C 8.550781 4.878906 8.6875 5.042969 8.886719 5.160156 C 8.710938 5.535156 8.488281 5.972656 8.296875 6.308594 C 7.796875 7.195312 7.359375 7.75 6.851562 8.289062 C 6.722656 8.421875 6.832031 8.378906 6.894531 8.34375 C 7.070312 8.234375 7.257812 8.105469 7.457031 7.921875 C 7.839844 7.566406 8.226562 7.066406 8.644531 6.394531 C 8.804688 6.136719 9.035156 5.707031 9.21875 5.289062 C 9.386719 5.324219 9.578125 5.335938 9.792969 5.296875 C 9.914062 5.277344 10.140625 5.175781 10.230469 5.132812 C 10.253906 5.125 10.261719 5.15625 10.261719 5.15625 C 10.214844 5.589844 9.335938 7.105469 10.183594 7.488281 C 10.660156 7.703125 11.554688 7.386719 12.335938 6.242188 C 12.390625 6.695312 12.617188 7.03125 13.042969 7.070312 C 13.359375 7.082031 13.808594 6.792969 13.945312 6.605469 C 14.199219 6.839844 14.835938 7.589844 16.019531 5.910156 C 16.304688 5.503906 17.035156 4.25 17.597656 3.675781 C 18.191406 3.078125 18.640625 3.609375 18.105469 4.503906 C 17.71875 5.15625 17.238281 6.039062 17.824219 6.234375 C 18.796875 6.558594 19.738281 5.269531 20.300781 3.964844 C 20.9375 3.863281 21.707031 3.277344 21.914062 3.066406 C 21.929688 3.214844 22.011719 3.417969 22.152344 3.484375 C 21.882812 3.6875 21.59375 3.90625 21.433594 4.113281 C 20.457031 5.496094 22.015625 6.136719 22.960938 5.324219 C 23.003906 5.289062 23.042969 5.25 23.082031 5.210938 C 23.328125 5.421875 23.679688 5.558594 24.070312 5.5625 C 25.382812 5.585938 26.183594 4.308594 25.707031 3.109375 C 25.605469 2.855469 25.21875 1.925781 25.8125 1.097656 C 25.847656 1.058594 25.84375 1.035156 25.78125 1.039062 Z M 25.121094 2.136719 C 25.09375 2.410156 25.464844 2.828125 25.40625 3.570312 C 25.355469 4.679688 24.535156 4.960938 24.101562 5.019531 C 23.820312 5.054688 23.5625 5.015625 23.355469 4.925781 C 24.191406 3.945312 24.710938 2.488281 25.121094 2.136719 Z M 28.035156 2.394531 L 27.804688 2.753906 C 27.628906 3.027344 27.605469 3.296875 27.589844 3.492188 L 27.5625 3.6875 C 27.550781 3.742188 27.523438 3.777344 27.433594 3.859375 L 27.277344 4.035156 L 27.253906 4.0625 C 27.066406 4.296875 27.011719 4.46875 27.011719 5.15625 C 27.011719 5.304688 26.996094 5.34375 26.996094 5.34375 C 26.992188 5.347656 26.953125 5.394531 26.953125 5.394531 L 26.898438 5.464844 C 26.738281 5.671875 26.734375 5.933594 26.726562 6.167969 L 26.710938 6.417969 C 26.695312 6.53125 26.675781 6.601562 26.652344 6.644531 C 26.359375 6.6875 12.851562 8.632812 12.726562 8.648438 C 12.019531 8.746094 11.8125 9.296875 11.847656 9.621094 C 11.945312 10.523438 12.617188 10.5625 12.902344 10.539062 C 13.289062 10.503906 23.71875 8.949219 26.3125 8.5625 C 26.238281 8.789062 26.152344 9.054688 26.152344 9.351562 C 26.152344 9.539062 26.1875 9.738281 26.28125 9.945312 C 26.210938 10.078125 26.15625 10.210938 26.136719 10.363281 C 26.128906 10.441406 26.125 10.507812 26.125 10.574219 C 26.125 10.980469 26.285156 11.195312 26.433594 11.308594 C 26.792969 11.585938 27.277344 11.433594 27.535156 11.328125 C 28.058594 11.4375 28.640625 11.371094 29.164062 11.160156 C 29.589844 11.316406 30.085938 11.015625 30.347656 10.859375 L 30.40625 10.824219 C 30.433594 10.804688 30.453125 10.804688 30.554688 10.8125 L 30.828125 10.804688 L 30.890625 10.792969 C 31.105469 10.753906 31.402344 10.699219 31.535156 10.40625 C 31.570312 10.324219 31.585938 10.242188 31.585938 10.160156 C 31.585938 9.96875 31.5 9.785156 31.421875 9.652344 L 31.402344 9.613281 C 31.402344 9.613281 31.390625 9.597656 31.378906 9.589844 C 31.378906 9.585938 31.378906 9.574219 31.378906 9.574219 C 31.382812 9.539062 31.386719 9.488281 31.386719 9.433594 C 31.386719 9.367188 31.382812 9.285156 31.359375 9.191406 C 31.304688 8.925781 31.15625 8.722656 31.035156 8.558594 L 30.910156 8.378906 L 30.84375 8.21875 C 30.804688 8.117188 30.757812 7.988281 30.65625 7.84375 C 31.035156 7.628906 31.164062 7.367188 31.207031 7.199219 C 31.277344 6.9375 31.199219 6.664062 31.003906 6.472656 C 30.765625 6.230469 30.378906 6.144531 29.9375 6.214844 C 29.917969 6.1875 29.898438 6.160156 29.882812 6.136719 C 29.882812 6.136719 29.800781 6.019531 29.785156 5.988281 C 29.785156 5.972656 29.785156 5.949219 29.785156 5.929688 C 29.785156 5.410156 29.546875 5.140625 29.402344 4.976562 C 29.402344 4.976562 29.359375 4.929688 29.347656 4.910156 C 29.34375 4.867188 29.339844 4.730469 29.339844 4.730469 C 29.335938 4.410156 29.332031 3.875 28.910156 3.453125 C 28.753906 3.292969 28.722656 3.21875 28.671875 3.089844 L 28.601562 2.925781 C 28.585938 2.890625 28.546875 2.804688 28.367188 2.660156 Z M 20.117188 2.8125 C 20.132812 2.816406 20.152344 2.820312 20.171875 2.828125 C 20.367188 2.902344 20.367188 3.109375 20.195312 3.539062 C 20.121094 3.53125 20.050781 3.519531 19.992188 3.496094 C 19.683594 3.367188 19.839844 2.785156 20.117188 2.8125 Z M 23.289062 3.902344 C 23.425781 3.902344 23.550781 4.019531 23.605469 4.117188 C 23.449219 4.359375 23.289062 4.585938 23.125 4.785156 C 22.933594 4.621094 22.855469 4.398438 22.972656 4.160156 C 23.066406 3.964844 23.179688 3.898438 23.289062 3.902344 Z M 14.097656 3.941406 C 14.472656 3.941406 14.769531 4.332031 14.429688 5.21875 C 14.074219 6.148438 13.675781 6.703125 13.179688 6.484375 C 12.410156 6.140625 13.238281 3.941406 14.097656 3.941406 Z M 8.96875 4.0625 C 9.089844 4.0625 9.199219 4.152344 9.191406 4.359375 C 9.191406 4.433594 9.125 4.613281 9.027344 4.847656 C 8.890625 4.796875 8.777344 4.71875 8.710938 4.609375 C 8.523438 4.296875 8.761719 4.058594 8.96875 4.0625 Z M 8.96875 4.0625 "/>
<path style=" stroke:none;fill-rule:nonzero;fill:rgb(7.45098%,15.294118%,30.980392%);fill-opacity:1;" d="M 31.136719 9.820312 C 31.039062 9.714844 31.042969 9.65625 31.050781 9.546875 C 31.058594 9.476562 31.0625 9.382812 31.039062 9.261719 C 30.996094 9.070312 30.882812 8.914062 30.769531 8.765625 L 30.625 8.546875 L 30.535156 8.339844 C 30.488281 8.207031 30.4375 8.070312 30.28125 7.910156 C 30.269531 7.898438 30.257812 7.882812 30.242188 7.871094 L 30.109375 7.703125 C 30.539062 7.578125 30.824219 7.363281 30.886719 7.113281 C 30.925781 6.96875 30.882812 6.824219 30.777344 6.714844 C 30.621094 6.5625 30.277344 6.453125 29.777344 6.597656 C 29.777344 6.597656 29.777344 6.59375 29.777344 6.589844 C 29.734375 6.507812 29.675781 6.421875 29.617188 6.339844 C 29.609375 6.328125 29.601562 6.320312 29.597656 6.3125 C 29.5625 6.261719 29.515625 6.191406 29.484375 6.132812 C 29.464844 6.09375 29.449219 6.058594 29.453125 6.03125 C 29.484375 5.574219 29.296875 5.359375 29.15625 5.207031 C 29.097656 5.136719 29.042969 5.078125 29.027344 5.015625 C 29.011719 4.945312 29.007812 4.847656 29.007812 4.734375 C 29.007812 4.433594 29.003906 4.019531 28.679688 3.691406 C 28.472656 3.488281 28.421875 3.363281 28.367188 3.21875 L 28.304688 3.074219 C 28.285156 3.019531 28.199219 2.953125 28.160156 2.925781 L 28.113281 2.886719 L 28.078125 2.941406 C 27.949219 3.140625 27.929688 3.34375 27.917969 3.519531 L 27.882812 3.769531 C 27.84375 3.925781 27.757812 4.011719 27.660156 4.105469 L 27.53125 4.246094 L 27.503906 4.277344 C 27.386719 4.425781 27.339844 4.511719 27.339844 5.15625 C 27.339844 5.453125 27.289062 5.511719 27.203125 5.617188 L 27.15625 5.675781 C 27.0625 5.792969 27.058594 5.980469 27.054688 6.171875 L 27.039062 6.46875 C 27.03125 6.503906 27.023438 6.542969 27.019531 6.570312 L 26.984375 6.710938 C 26.945312 6.835938 26.898438 6.902344 26.839844 6.953125 C 26.835938 6.957031 26.828125 6.960938 26.824219 6.964844 C 26.785156 6.96875 26.410156 7.023438 25.800781 7.113281 L 25.699219 7.125 C 25.699219 7.125 25.699219 7.125 25.695312 7.125 C 25.3125 7.179688 24.847656 7.25 24.324219 7.324219 L 24.050781 7.363281 C 21.113281 7.785156 16.585938 8.4375 14.261719 8.773438 C 14.253906 8.773438 14.25 8.769531 14.246094 8.769531 L 13.945312 8.816406 L 12.765625 8.988281 C 12.292969 9.050781 12.152344 9.386719 12.171875 9.585938 C 12.191406 9.75 12.246094 10.253906 12.871094 10.199219 C 12.9375 10.191406 13.3125 10.140625 13.894531 10.058594 C 13.898438 10.058594 13.898438 10.058594 13.902344 10.058594 L 14.214844 10.011719 C 16.234375 9.71875 20.113281 9.140625 23.042969 8.707031 L 23.070312 8.703125 L 23.230469 8.679688 C 24.429688 8.5 25.457031 8.347656 26.109375 8.25 C 26.113281 8.25 26.117188 8.25 26.125 8.25 L 26.578125 8.179688 C 26.652344 8.167969 26.710938 8.160156 26.753906 8.152344 C 26.738281 8.300781 26.695312 8.457031 26.636719 8.625 C 26.5625 8.851562 26.480469 9.089844 26.480469 9.347656 C 26.480469 9.535156 26.53125 9.730469 26.65625 9.933594 C 26.652344 9.949219 26.640625 9.976562 26.640625 9.976562 C 26.527344 10.15625 26.480469 10.273438 26.464844 10.40625 C 26.457031 10.464844 26.453125 10.523438 26.453125 10.574219 C 26.453125 10.792969 26.511719 10.949219 26.632812 11.039062 C 26.804688 11.171875 27.097656 11.148438 27.496094 10.976562 C 28.03125 11.117188 28.660156 11.046875 29.191406 10.792969 C 29.476562 10.984375 29.929688 10.714844 30.175781 10.566406 L 30.238281 10.53125 C 30.359375 10.457031 30.46875 10.464844 30.578125 10.476562 L 30.765625 10.472656 L 30.828125 10.460938 C 31.007812 10.429688 31.171875 10.394531 31.234375 10.261719 C 31.28125 10.160156 31.25 10.019531 31.136719 9.820312 Z M 13.859375 9.9375 C 13.289062 10.019531 12.925781 10.070312 12.863281 10.074219 C 12.410156 10.113281 12.320312 9.828125 12.292969 9.570312 C 12.289062 9.5625 12.289062 9.554688 12.289062 9.546875 C 12.289062 9.425781 12.375 9.164062 12.78125 9.109375 L 13.75 8.96875 C 13.832031 9.03125 13.898438 9.179688 13.929688 9.363281 C 13.964844 9.59375 13.9375 9.816406 13.859375 9.9375 Z M 22.546875 8.65625 C 19.824219 9.0625 16.453125 9.558594 14.488281 9.847656 C 14.558594 9.671875 14.558594 9.4375 14.53125 9.261719 C 14.503906 9.105469 14.453125 8.972656 14.386719 8.878906 L 22.441406 7.71875 C 22.503906 7.972656 22.554688 8.257812 22.546875 8.65625 Z M 23.109375 8.164062 C 23.089844 7.964844 23.054688 7.796875 23.015625 7.636719 L 23.542969 7.5625 Z M 23.566406 8.503906 L 23.921875 8.007812 C 23.9375 8.136719 23.945312 8.285156 23.941406 8.449219 C 23.820312 8.464844 23.695312 8.484375 23.566406 8.503906 Z M 24.515625 8.363281 C 24.515625 8.199219 24.507812 8.054688 24.492188 7.921875 L 24.898438 8.304688 C 24.773438 8.324219 24.644531 8.34375 24.515625 8.363281 Z M 25.226562 7.792969 C 25.167969 7.738281 24.917969 7.507812 24.78125 7.382812 L 25.582031 7.269531 C 25.472656 7.429688 25.273438 7.722656 25.226562 7.792969 Z M 26.054688 8.132812 C 25.917969 8.152344 25.761719 8.175781 25.59375 8.203125 L 26.027344 7.625 C 26.046875 7.769531 26.058594 7.933594 26.054688 8.132812 Z M 30.691406 6.804688 C 30.75 6.859375 30.78125 6.933594 30.78125 7.007812 C 30.78125 7.03125 30.777344 7.054688 30.773438 7.082031 C 30.71875 7.292969 30.445312 7.480469 30.042969 7.59375 C 30.007812 7.546875 29.976562 7.480469 29.949219 7.414062 C 29.9375 7.386719 29.925781 7.355469 29.917969 7.332031 C 29.917969 7.328125 29.914062 7.324219 29.914062 7.324219 C 29.890625 7.253906 29.871094 7.191406 29.859375 7.152344 C 29.84375 7.082031 29.832031 7.015625 29.824219 6.953125 C 29.820312 6.902344 29.820312 6.851562 29.820312 6.808594 C 29.820312 6.808594 29.820312 6.789062 29.816406 6.765625 L 29.816406 6.742188 C 29.816406 6.742188 29.8125 6.738281 29.8125 6.738281 L 29.8125 6.730469 C 29.8125 6.726562 29.8125 6.722656 29.8125 6.714844 C 30.261719 6.589844 30.5625 6.671875 30.691406 6.804688 Z M 29.714844 7.042969 C 29.71875 7.082031 29.726562 7.117188 29.738281 7.160156 C 29.738281 7.160156 29.738281 7.160156 29.738281 7.164062 L 29.738281 7.171875 C 29.746094 7.207031 29.757812 7.25 29.769531 7.289062 C 29.695312 7.289062 29.621094 7.273438 29.558594 7.246094 C 29.609375 7.179688 29.664062 7.113281 29.714844 7.042969 Z M 29.566406 6.480469 C 29.441406 6.65625 29.292969 6.84375 29.121094 7.027344 C 28.988281 6.953125 28.765625 6.785156 28.617188 6.644531 C 28.667969 6.636719 28.71875 6.628906 28.769531 6.621094 Z M 29.347656 7.714844 C 29.277344 7.714844 29.210938 7.714844 29.152344 7.707031 C 29.167969 7.691406 29.1875 7.675781 29.203125 7.65625 C 29.25 7.679688 29.300781 7.699219 29.347656 7.714844 Z M 27.535156 7.242188 C 27.527344 7.132812 27.5 7.027344 27.460938 6.949219 C 27.453125 6.929688 27.4375 6.914062 27.429688 6.898438 C 27.597656 6.839844 27.777344 6.796875 27.964844 6.757812 C 28.199219 6.996094 28.535156 7.261719 28.734375 7.394531 C 28.675781 7.4375 28.617188 7.484375 28.554688 7.527344 L 28.402344 7.476562 C 28.152344 7.390625 27.820312 7.277344 27.535156 7.242188 Z M 27.910156 7.875 C 27.730469 7.945312 27.539062 8 27.332031 8.035156 C 27.394531 7.929688 27.441406 7.828125 27.476562 7.726562 C 27.582031 7.742188 27.683594 7.785156 27.785156 7.824219 C 27.824219 7.84375 27.867188 7.859375 27.910156 7.875 Z M 27.175781 6.175781 C 27.179688 6.003906 27.183594 5.835938 27.25 5.753906 L 27.296875 5.695312 C 27.402344 5.566406 27.457031 5.484375 27.457031 5.15625 C 27.457031 4.53125 27.503906 4.472656 27.597656 4.359375 L 27.625 4.320312 L 27.746094 4.195312 C 27.839844 4.097656 27.953125 3.992188 28 3.800781 L 28.035156 3.53125 C 28.046875 3.382812 28.070312 3.226562 28.148438 3.074219 C 28.171875 3.097656 28.191406 3.113281 28.195312 3.125 C 28.195312 3.128906 28.253906 3.265625 28.253906 3.265625 C 28.316406 3.414062 28.371094 3.558594 28.59375 3.785156 C 28.882812 4.070312 28.886719 4.441406 28.886719 4.734375 C 28.890625 4.855469 28.890625 4.960938 28.910156 5.046875 C 28.933594 5.136719 29 5.210938 29.070312 5.289062 C 29.1875 5.421875 29.335938 5.589844 29.335938 5.929688 C 29.335938 5.957031 29.335938 5.988281 29.332031 6.019531 C 29.332031 6.027344 29.332031 6.03125 29.332031 6.035156 L 28.777344 6.132812 C 28.917969 5.792969 28.816406 5.375 28.675781 5.09375 C 28.660156 5.066406 28.625 5.050781 28.59375 5.070312 C 28.566406 5.085938 28.554688 5.121094 28.570312 5.152344 C 28.710938 5.425781 28.804688 5.847656 28.628906 6.15625 L 28.53125 6.171875 C 28.058594 6.242188 27.578125 6.316406 27.160156 6.453125 Z M 26.726562 8.03125 C 26.699219 8.035156 26.667969 8.042969 26.628906 8.046875 C 26.636719 7.675781 26.585938 7.40625 26.519531 7.132812 L 26.78125 7.09375 C 26.785156 7.097656 26.789062 7.101562 26.792969 7.101562 C 26.867188 7.101562 26.910156 7.128906 26.941406 7.191406 C 27.023438 7.375 26.921875 7.777344 26.726562 8.03125 Z M 31.125 10.210938 C 31.089844 10.285156 30.953125 10.3125 30.804688 10.339844 L 30.742188 10.351562 L 30.585938 10.351562 C 30.472656 10.34375 30.332031 10.332031 30.179688 10.421875 L 30.117188 10.457031 C 29.902344 10.589844 29.449219 10.863281 29.234375 10.675781 L 29.207031 10.652344 L 29.171875 10.667969 C 28.976562 10.765625 28.28125 11.066406 27.503906 10.851562 L 27.484375 10.847656 L 27.464844 10.855469 C 27.105469 11.015625 26.839844 11.046875 26.703125 10.941406 C 26.589844 10.855469 26.550781 10.679688 26.582031 10.421875 C 26.597656 10.308594 26.640625 10.207031 26.738281 10.042969 L 26.789062 9.910156 L 26.769531 9.898438 C 26.484375 9.457031 26.621094 9.058594 26.75 8.667969 C 27.59375 8.632812 28.179688 8.445312 28.667969 8.113281 C 29.171875 8.242188 29.824219 8.21875 30.253906 8.066406 C 30.34375 8.179688 30.382812 8.277344 30.421875 8.382812 L 30.519531 8.609375 L 30.675781 8.839844 C 30.777344 8.980469 30.882812 9.125 30.921875 9.292969 C 30.933594 9.34375 30.9375 9.390625 30.9375 9.433594 C 30.9375 9.472656 30.933594 9.507812 30.929688 9.539062 C 30.929688 9.570312 30.925781 9.597656 30.925781 9.625 C 30.925781 9.710938 30.945312 9.796875 31.042969 9.894531 C 31.101562 10.003906 31.132812 10.09375 31.132812 10.160156 C 31.132812 10.179688 31.132812 10.195312 31.125 10.210938 Z M 31.125 10.210938 "/>
<path style=" stroke:none;fill-rule:nonzero;fill:rgb(7.45098%,15.294118%,30.980392%);fill-opacity:1;" d="M 27.953125 5.191406 C 27.964844 5.222656 27.953125 5.257812 27.921875 5.273438 C 27.800781 5.332031 27.695312 5.476562 27.667969 5.632812 C 27.636719 5.785156 27.675781 5.929688 27.773438 6.046875 C 27.796875 6.074219 27.796875 6.113281 27.769531 6.132812 C 27.746094 6.15625 27.710938 6.15625 27.6875 6.128906 C 27.558594 5.984375 27.511719 5.800781 27.546875 5.609375 C 27.585938 5.414062 27.714844 5.238281 27.871094 5.160156 C 27.902344 5.148438 27.9375 5.160156 27.953125 5.191406 Z M 29.863281 8.269531 C 29.898438 8.269531 29.921875 8.296875 29.921875 8.332031 C 29.917969 8.410156 30.015625 8.488281 30.125 8.578125 C 30.324219 8.734375 30.589844 8.953125 30.480469 9.355469 C 30.46875 9.390625 30.4375 9.410156 30.40625 9.398438 C 30.371094 9.390625 30.355469 9.355469 30.363281 9.324219 C 30.453125 9 30.25 8.832031 30.050781 8.675781 C 29.917969 8.566406 29.792969 8.464844 29.800781 8.324219 C 29.804688 8.292969 29.832031 8.265625 29.863281 8.269531 Z M 30.492188 9.613281 C 30.472656 9.695312 30.445312 9.710938 30.425781 9.71875 L 30.300781 9.714844 L 30.167969 9.710938 C 30.082031 9.71875 29.996094 9.753906 29.933594 9.808594 L 29.722656 9.976562 L 29.675781 9.996094 C 29.585938 10.015625 29.5 10.007812 29.40625 9.976562 C 29.375 9.964844 29.34375 9.980469 29.332031 10.011719 C 29.320312 10.042969 29.335938 10.078125 29.367188 10.089844 C 29.480469 10.132812 29.589844 10.140625 29.699219 10.117188 L 29.796875 10.074219 L 30.007812 9.90625 C 30.054688 9.867188 30.117188 9.839844 30.179688 9.832031 L 30.285156 9.839844 L 30.460938 9.835938 C 30.570312 9.804688 30.597656 9.679688 30.609375 9.640625 C 30.613281 9.609375 30.59375 9.574219 30.5625 9.566406 C 30.53125 9.558594 30.5 9.582031 30.492188 9.613281 Z M 29.933594 9.808594 Z M 28.785156 8.503906 C 28.917969 8.71875 28.925781 8.988281 28.8125 9.253906 C 28.789062 9.308594 28.8125 9.363281 28.902344 9.460938 C 28.902344 9.460938 28.933594 9.488281 28.929688 9.515625 C 28.921875 9.542969 28.921875 9.5625 28.894531 9.566406 C 28.875 9.570312 28.839844 9.570312 28.816406 9.542969 C 28.757812 9.484375 28.640625 9.355469 28.703125 9.203125 C 28.800781 8.976562 28.796875 8.75 28.683594 8.570312 C 28.667969 8.542969 28.675781 8.503906 28.703125 8.488281 C 28.730469 8.46875 28.769531 8.476562 28.785156 8.503906 Z M 27.539062 8.699219 C 27.65625 8.816406 27.617188 8.988281 27.515625 9.101562 L 27.367188 9.226562 C 27.238281 9.328125 27.15625 9.394531 27.191406 9.519531 C 27.203125 9.550781 27.183594 9.585938 27.152344 9.59375 C 27.121094 9.601562 27.085938 9.585938 27.078125 9.550781 C 27.015625 9.339844 27.171875 9.222656 27.296875 9.128906 L 27.429688 9.019531 C 27.464844 8.980469 27.535156 8.863281 27.453125 8.785156 C 27.429688 8.761719 27.429688 8.722656 27.453125 8.699219 C 27.476562 8.675781 27.515625 8.675781 27.539062 8.699219 Z M 27.25 10.121094 C 27.304688 10.265625 27.453125 10.347656 27.585938 10.308594 L 27.757812 10.230469 L 27.9375 10.152344 C 28.007812 10.128906 28.070312 10.148438 28.128906 10.167969 C 28.171875 10.183594 28.210938 10.199219 28.246094 10.183594 L 28.292969 10.167969 L 28.292969 10.171875 C 28.292969 10.167969 28.375 10.140625 28.394531 10.160156 C 28.453125 10.214844 28.367188 10.253906 28.394531 10.238281 L 28.300781 10.296875 L 28.285156 10.300781 C 28.214844 10.328125 28.148438 10.304688 28.089844 10.285156 C 28.042969 10.269531 28.003906 10.257812 27.96875 10.269531 L 27.8125 10.339844 L 27.617188 10.429688 C 27.421875 10.484375 27.214844 10.363281 27.140625 10.164062 C 27.128906 10.132812 27.144531 10.097656 27.171875 10.082031 C 27.203125 10.074219 27.238281 10.089844 27.25 10.121094 Z M 28.34375 3.839844 C 28.375 3.851562 28.386719 3.886719 28.375 3.917969 C 28.316406 4.050781 28.320312 4.230469 28.386719 4.390625 C 28.433594 4.507812 28.511719 4.597656 28.597656 4.628906 C 28.628906 4.644531 28.644531 4.679688 28.632812 4.710938 C 28.621094 4.742188 28.585938 4.757812 28.554688 4.746094 C 28.4375 4.699219 28.339844 4.589844 28.277344 4.4375 C 28.199219 4.25 28.195312 4.03125 28.265625 3.871094 C 28.277344 3.839844 28.3125 3.824219 28.34375 3.839844 Z M 28.34375 3.839844 "/>
<path style=" stroke:none;fill-rule:nonzero;fill:rgb(91.764706%,66.666667%,0%);fill-opacity:1;" d="M 28.679688 6.273438 C 28.679688 6.273438 28.679688 6.273438 28.683594 6.273438 C 28.898438 6.234375 29.300781 6.167969 29.359375 6.15625 C 29.359375 6.160156 29.367188 6.164062 29.367188 6.167969 C 29.394531 6.234375 29.441406 6.300781 29.492188 6.371094 L 28.75 6.5 C 28.609375 6.519531 28.46875 6.542969 28.328125 6.566406 C 28.121094 6.597656 28.011719 6.617188 27.96875 6.628906 C 27.753906 6.675781 27.546875 6.726562 27.347656 6.796875 C 27.28125 6.730469 27.203125 6.6875 27.121094 6.675781 C 27.125 6.648438 27.132812 6.621094 27.140625 6.589844 C 27.558594 6.445312 28.058594 6.367188 28.546875 6.292969 C 28.546875 6.292969 28.597656 6.285156 28.679688 6.273438 Z M 30.164062 7.960938 C 29.78125 8.082031 29.253906 8.105469 28.808594 8.015625 C 28.820312 8.007812 28.832031 7.996094 28.84375 7.980469 C 28.863281 7.96875 28.878906 7.957031 28.898438 7.945312 C 28.949219 7.902344 29.003906 7.855469 29.042969 7.816406 C 29.28125 7.867188 29.757812 7.828125 29.992188 7.746094 C 30.039062 7.816406 30.09375 7.886719 30.15625 7.957031 C 30.160156 7.957031 30.164062 7.960938 30.164062 7.960938 Z M 25.820312 7.234375 C 25.863281 7.230469 25.910156 7.222656 25.945312 7.21875 C 25.953125 7.253906 25.972656 7.339844 25.988281 7.402344 C 25.992188 7.421875 25.996094 7.441406 26 7.460938 C 25.957031 7.515625 25.453125 8.1875 25.425781 8.226562 C 25.386719 8.230469 25.097656 8.273438 25.050781 8.28125 C 25.011719 8.246094 24.507812 7.769531 24.46875 7.730469 C 24.449219 7.628906 24.429688 7.535156 24.40625 7.441406 C 24.480469 7.429688 24.59375 7.410156 24.628906 7.40625 L 25.199219 7.929688 C 25.210938 7.941406 25.226562 7.945312 25.246094 7.945312 C 25.261719 7.945312 25.277344 7.933594 25.285156 7.917969 C 25.285156 7.917969 25.722656 7.28125 25.746094 7.242188 Z M 24.285156 7.453125 L 24.34375 7.726562 C 24.375 7.898438 24.394531 8.078125 24.394531 8.300781 C 24.394531 8.328125 24.394531 8.351562 24.394531 8.378906 C 24.328125 8.386719 24.148438 8.414062 24.0625 8.429688 C 24.0625 8.410156 24.0625 8.386719 24.0625 8.367188 C 24.0625 8.171875 24.046875 8.003906 24.019531 7.847656 C 24.019531 7.824219 24.011719 7.78125 24.003906 7.734375 C 23.996094 7.703125 23.988281 7.671875 23.984375 7.636719 C 23.972656 7.585938 23.960938 7.539062 23.953125 7.503906 C 23.980469 7.496094 24.023438 7.492188 24.070312 7.484375 Z M 22.5625 7.707031 C 22.644531 7.695312 22.824219 7.667969 22.894531 7.65625 C 22.949219 7.882812 23 8.132812 23.003906 8.453125 L 23.003906 8.589844 C 22.9375 8.59375 22.753906 8.621094 22.667969 8.632812 C 22.667969 8.613281 22.667969 8.589844 22.667969 8.570312 C 22.667969 8.210938 22.621094 7.945312 22.5625 7.707031 Z M 23.125 8.570312 C 23.125 8.515625 23.125 8.460938 23.125 8.410156 L 23.125 8.351562 C 23.144531 8.320312 23.679688 7.578125 23.710938 7.539062 C 23.734375 7.535156 23.785156 7.527344 23.832031 7.523438 C 23.847656 7.589844 23.886719 7.785156 23.894531 7.832031 C 23.863281 7.878906 23.429688 8.488281 23.402344 8.527344 C 23.382812 8.53125 23.304688 8.542969 23.230469 8.554688 C 23.195312 8.558594 23.160156 8.5625 23.125 8.570312 Z M 26.175781 8.113281 C 26.175781 8.097656 26.179688 8.078125 26.179688 8.058594 C 26.179688 7.824219 26.15625 7.636719 26.125 7.476562 C 26.125 7.472656 26.125 7.464844 26.125 7.460938 C 26.097656 7.332031 26.078125 7.253906 26.066406 7.203125 C 26.148438 7.191406 26.328125 7.164062 26.398438 7.15625 C 26.460938 7.40625 26.511719 7.65625 26.511719 7.992188 C 26.511719 8.015625 26.511719 8.042969 26.511719 8.066406 C 26.417969 8.078125 26.304688 8.09375 26.175781 8.113281 Z M 29.335938 7.515625 C 29.34375 7.507812 29.351562 7.496094 29.359375 7.488281 C 29.402344 7.4375 29.460938 7.371094 29.484375 7.34375 C 29.585938 7.390625 29.695312 7.417969 29.8125 7.410156 C 29.828125 7.445312 29.84375 7.484375 29.859375 7.519531 C 29.875 7.550781 29.886719 7.578125 29.902344 7.601562 C 29.90625 7.609375 29.910156 7.613281 29.910156 7.617188 C 29.914062 7.621094 29.914062 7.621094 29.914062 7.625 C 29.734375 7.65625 29.503906 7.652344 29.296875 7.558594 C 29.304688 7.550781 29.316406 7.535156 29.335938 7.515625 Z M 28.089844 7.796875 C 28.003906 7.785156 27.917969 7.75 27.828125 7.710938 C 27.726562 7.671875 27.621094 7.632812 27.507812 7.613281 C 27.53125 7.527344 27.539062 7.445312 27.539062 7.371094 C 27.808594 7.40625 28.125 7.511719 28.363281 7.59375 L 28.421875 7.613281 C 28.320312 7.679688 28.210938 7.742188 28.09375 7.796875 C 28.09375 7.796875 28.089844 7.796875 28.089844 7.796875 Z M 28.832031 7.308594 C 28.664062 7.203125 28.351562 6.957031 28.109375 6.726562 C 28.171875 6.714844 28.238281 6.703125 28.296875 6.695312 C 28.351562 6.683594 28.40625 6.675781 28.472656 6.667969 C 28.601562 6.804688 28.855469 7.007812 29.03125 7.117188 C 28.96875 7.175781 28.867188 7.277344 28.867188 7.277344 L 28.839844 7.300781 C 28.835938 7.304688 28.832031 7.308594 28.832031 7.308594 Z M 27.082031 6.796875 C 27.164062 6.808594 27.242188 6.847656 27.300781 6.921875 C 27.320312 6.949219 27.339844 6.972656 27.351562 7.003906 C 27.394531 7.09375 27.421875 7.203125 27.421875 7.332031 C 27.421875 7.335938 27.421875 7.339844 27.421875 7.339844 C 27.421875 7.390625 27.417969 7.441406 27.40625 7.492188 C 27.40625 7.5 27.40625 7.507812 27.40625 7.515625 C 27.375 7.683594 27.300781 7.871094 27.171875 8.058594 C 27.148438 8.058594 27.121094 8.066406 27.09375 8.066406 C 27.089844 8.066406 27.085938 8.066406 27.082031 8.066406 C 27.015625 8.074219 26.949219 8.078125 26.882812 8.078125 L 26.882812 8.007812 C 27 7.816406 27.089844 7.566406 27.089844 7.355469 C 27.089844 7.277344 27.078125 7.199219 27.046875 7.140625 C 27.023438 7.085938 26.988281 7.046875 26.949219 7.019531 C 27.003906 6.960938 27.046875 6.890625 27.082031 6.796875 Z M 27.082031 6.796875 "/>
<path style=" stroke:none;fill-rule:nonzero;fill:rgb(91.764706%,66.666667%,0%);fill-opacity:1;" d="M 26.828125 8.414062 C 26.851562 8.34375 26.867188 8.273438 26.875 8.203125 C 26.960938 8.203125 27.121094 8.195312 27.222656 8.175781 C 27.226562 8.175781 27.226562 8.171875 27.230469 8.171875 C 27.558594 8.128906 27.851562 8.039062 28.113281 7.921875 C 28.195312 7.898438 28.457031 7.753906 28.597656 7.648438 C 28.597656 7.648438 28.597656 7.648438 28.597656 7.644531 C 28.691406 7.578125 28.78125 7.507812 28.867188 7.4375 C 28.871094 7.4375 28.875 7.433594 28.878906 7.433594 L 28.945312 7.371094 L 28.953125 7.363281 C 29.230469 7.113281 29.453125 6.839844 29.632812 6.589844 C 29.652344 6.617188 29.671875 6.652344 29.683594 6.6875 C 29.691406 6.703125 29.695312 6.722656 29.695312 6.738281 L 29.695312 6.863281 C 29.691406 6.867188 29.691406 6.871094 29.691406 6.871094 C 28.9375 7.914062 28.269531 8.460938 26.796875 8.539062 C 26.808594 8.5 26.820312 8.457031 26.828125 8.414062 Z M 14.234375 8.894531 C 14.316406 8.957031 14.382812 9.101562 14.414062 9.285156 C 14.425781 9.355469 14.429688 9.425781 14.429688 9.488281 C 14.429688 9.648438 14.394531 9.785156 14.339844 9.867188 C 14.296875 9.875 14.113281 9.902344 13.992188 9.917969 C 14.039062 9.8125 14.066406 9.691406 14.066406 9.5625 C 14.066406 9.484375 14.058594 9.410156 14.046875 9.34375 C 14.019531 9.171875 13.960938 9.046875 13.882812 8.953125 C 14.003906 8.933594 14.195312 8.902344 14.234375 8.894531 Z M 14.234375 8.894531 "/>
</g>
</svg>
