<?xml version="1.0" encoding="UTF-8"?>
<svg xmlns="http://www.w3.org/2000/svg" xmlns:xlink="http://www.w3.org/1999/xlink" width="32px" height="32px" viewBox="0 0 32 44" version="1.1">
<g id="surface1">
<path style=" stroke:none;fill-rule:nonzero;fill:rgb(99.215686%,72.156863%,15.294118%);fill-opacity:1;" d="M 24.003906 0.226562 C 22.449219 1.71875 20.929688 2.066406 18.519531 2.066406 L 2.433594 2.042969 L 0.246094 7.425781 C 1.566406 7.984375 2.433594 9.21875 2.433594 10.699219 L 2.433594 35.355469 C 2.433594 36.835938 1.566406 38.066406 0.246094 38.628906 L 2.433594 43.84375 L 8.578125 43.84375 L 10.769531 38.628906 C 9.445312 38.089844 8.578125 36.8125 8.578125 35.355469 L 8.578125 25.636719 L 18.519531 25.640625 C 20.929688 25.640625 22.449219 26.222656 24.003906 27.714844 C 25.015625 24.648438 28.0625 22.363281 31.804688 21.449219 C 30.386719 19.050781 29.828125 16.925781 29.828125 14.703125 C 29.828125 12.484375 30.144531 10.070312 31.566406 7.671875 C 27.820312 6.757812 24.9375 3.292969 24.003906 0.226562 Z M 8.609375 7.238281 L 21.339844 7.238281 C 23.355469 7.238281 24.617188 8.488281 24.617188 10.144531 L 24.617188 17.597656 C 24.617188 19.335938 23.621094 20.285156 21.339844 20.285156 L 8.609375 20.285156 Z M 8.609375 7.238281 "/>
</g>
</svg>
