<?xml version="1.0" encoding="UTF-8"?>
<svg xmlns="http://www.w3.org/2000/svg" xmlns:xlink="http://www.w3.org/1999/xlink" width="32px" height="32px" viewBox="0 0 32 31" version="1.1">
<g id="surface1">
<path style=" stroke:none;fill-rule:nonzero;fill:rgb(100%,100%,100%);fill-opacity:1;" d="M 28.792969 18.300781 C 27.660156 17.503906 26.296875 17.328125 24.980469 17.152344 C 22.457031 16.824219 20.472656 16.570312 20.1875 12.484375 C 19.769531 6.546875 19.625 5.179688 18.109375 4.09375 C 18.058594 3.679688 17.753906 1.304688 17.753906 1.304688 C 17.65625 0.503906 16.90625 -0.0703125 16.097656 0.0351562 L 11.492188 0.609375 C 11.101562 0.652344 10.753906 0.855469 10.503906 1.164062 C 10.34375 1.375 10.234375 1.613281 10.210938 1.871094 C 9.566406 1.835938 8.945312 2.214844 8.722656 2.839844 C 8.722656 2.839844 7.929688 5.054688 7.777344 5.46875 C 6.859375 5.875 6.121094 7.164062 5.300781 9.757812 L 4.835938 11.257812 C 3.9375 14.203125 3.214844 16.535156 1.871094 17.972656 C 0.710938 19.199219 0.0898438 20.539062 0.0898438 21.765625 C 0.0898438 22.136719 0.140625 22.5 0.257812 22.832031 C 0.605469 23.855469 1.640625 25.191406 4.632812 25.726562 C 6.273438 26.011719 8.179688 27.175781 10.011719 28.304688 C 11.277344 29.082031 12.632812 29.910156 13.851562 30.414062 C 14.636719 30.738281 15.980469 31.3125 19.730469 30.378906 C 19.929688 30.332031 20.335938 30.164062 20.472656 29.523438 C 20.5 29.390625 20.515625 29.230469 20.515625 29.0625 C 20.515625 27.808594 19.632812 25.628906 17.246094 23.609375 C 18.949219 23.777344 20.863281 24.183594 22.269531 24.667969 C 24.605469 25.480469 28.988281 26.035156 31.507812 24.226562 C 31.714844 24.09375 31.945312 23.796875 31.964844 23.25 C 31.964844 22.109375 31 19.84375 28.792969 18.300781 "/>
<path style=" stroke:none;fill-rule:nonzero;fill:rgb(77.647059%,12.54902%,20%);fill-opacity:1;" d="M 28.472656 18.75 C 25.453125 16.621094 20.113281 19.359375 19.625 12.519531 C 19.1875 6.308594 19.027344 5.355469 17.585938 4.402344 L 17.191406 1.367188 C 17.128906 0.875 16.667969 0.511719 16.167969 0.582031 L 11.5625 1.15625 C 11.117188 1.207031 10.789062 1.570312 10.761719 1.992188 C 10.921875 2.054688 11.214844 2.152344 11.570312 2.277344 L 11.535156 1.984375 C 11.527344 1.90625 11.582031 1.835938 11.660156 1.828125 C 11.742188 1.816406 11.8125 1.871094 11.820312 1.949219 L 11.875 2.382812 C 12.070312 2.453125 12.285156 2.523438 12.5 2.601562 L 12.410156 1.921875 C 12.402344 1.816406 12.472656 1.730469 12.570312 1.71875 C 12.667969 1.710938 12.765625 1.78125 12.773438 1.878906 L 12.882812 2.742188 C 13.070312 2.804688 13.246094 2.875 13.425781 2.9375 L 13.292969 1.863281 C 13.273438 1.738281 13.363281 1.625 13.488281 1.613281 C 13.613281 1.597656 13.726562 1.683594 13.746094 1.808594 L 13.90625 3.105469 C 14.085938 3.167969 14.253906 3.230469 14.394531 3.28125 L 14.199219 1.753906 C 14.183594 1.632812 14.269531 1.515625 14.394531 1.507812 C 14.519531 1.492188 14.636719 1.578125 14.644531 1.703125 L 14.867188 3.457031 C 14.929688 3.484375 14.976562 3.492188 14.976562 3.492188 C 15.144531 3.554688 15.296875 3.644531 15.421875 3.75 L 15.152344 1.605469 C 15.144531 1.507812 15.214844 1.410156 15.3125 1.402344 C 15.410156 1.394531 15.507812 1.464844 15.519531 1.5625 L 15.875 4.410156 C 15.929688 4.5625 15.953125 4.71875 15.953125 4.878906 C 15.953125 5.039062 15.929688 5.207031 15.867188 5.375 C 15.867188 5.375 15.0625 7.613281 14.914062 8.019531 C 15.089844 8.371094 15.171875 8.734375 15.171875 9.113281 C 15.171875 10.234375 14.503906 11.445312 13.886719 12.554688 C 13.628906 13.023438 13.378906 13.472656 13.191406 13.886719 C 12.25 16.171875 11.792969 17.585938 11.792969 18.546875 C 11.792969 19.058594 11.917969 19.4375 12.179688 19.761719 C 12.1875 19.15625 12.300781 18.6875 12.363281 18.457031 C 12.96875 18.652344 14.769531 19.207031 15.667969 19.402344 C 15.667969 19.402344 15.597656 21.238281 15.820312 22.550781 C 15.929688 22.632812 16.015625 22.710938 16.078125 22.761719 C 16.195312 22.84375 16.3125 22.921875 16.425781 23.011719 C 18.457031 23.125 20.871094 23.628906 22.429688 24.167969 C 24.855469 25.003906 28.941406 25.402344 31.171875 23.785156 C 31.820312 23.390625 31.027344 20.546875 28.472656 18.75 M 16.683594 4.746094 C 16.605469 4.753906 16.535156 4.703125 16.523438 4.625 L 16.125 1.429688 C 16.117188 1.351562 16.167969 1.28125 16.25 1.269531 C 16.328125 1.261719 16.398438 1.316406 16.410156 1.394531 L 16.808594 4.589844 C 16.820312 4.660156 16.765625 4.738281 16.683594 4.746094 M 30.589844 23.203125 C 29.816406 23.714844 28.773438 23.972656 27.667969 24.050781 C 27.429688 24.058594 27.277344 23.972656 27.222656 23.785156 L 26.421875 21.632812 C 26.34375 21.457031 26.332031 21.289062 26.582031 21.167969 C 26.582031 21.167969 28.222656 20.460938 28.410156 20.363281 C 28.597656 20.265625 28.820312 20.089844 29.042969 20.3125 C 30.136719 21.457031 30.589844 22.710938 30.589844 23.195312 C 30.601562 23.1875 30.589844 23.195312 30.589844 23.203125 "/>
<path style=" stroke:none;fill-rule:nonzero;fill:rgb(77.647059%,12.54902%,20%);fill-opacity:1;" d="M 15.839844 23.238281 C 15.617188 23.0625 14.316406 21.953125 12.472656 20.714844 C 10.628906 19.480469 11.054688 17.636719 12.710938 13.632812 C 13.523438 11.824219 15.375 9.5625 14.324219 8.039062 L 15.359375 5.152344 C 15.527344 4.675781 15.277344 4.15625 14.796875 3.988281 L 10.421875 2.453125 C 9.941406 2.285156 9.417969 2.53125 9.246094 3.007812 L 8.222656 5.902344 C 7.421875 6.078125 6.691406 7.242188 5.84375 9.917969 C 4.695312 13.570312 3.957031 16.5625 2.289062 18.34375 C -0.0898438 20.875 -0.355469 24.273438 4.730469 25.179688 C 7.652344 25.683594 11.101562 28.675781 14.023438 29.882812 C 14.726562 30.175781 15.867188 30.765625 19.597656 29.839844 C 20.410156 29.679688 20.097656 26.167969 15.839844 23.238281 M 4.4375 24.296875 C 2.851562 23.9375 1.863281 23.292969 1.558594 22.402344 C 1.257812 21.492188 1.65625 20.300781 2.636719 19.144531 C 3.75 19.570312 4.6875 20.082031 5.378906 20.546875 C 4.890625 21.582031 4.550781 22.878906 4.4375 24.296875 M 14.566406 4.648438 C 14.636719 4.675781 14.679688 4.753906 14.65625 4.835938 L 13.558594 7.859375 C 13.53125 7.933594 13.453125 7.976562 13.371094 7.949219 C 13.300781 7.921875 13.253906 7.84375 13.28125 7.765625 L 14.378906 4.738281 C 14.40625 4.660156 14.484375 4.625 14.566406 4.648438 M 13.691406 4.339844 C 13.789062 4.375 13.84375 4.480469 13.808594 4.578125 L 12.738281 7.527344 C 12.703125 7.625 12.597656 7.675781 12.5 7.640625 C 12.402344 7.605469 12.355469 7.5 12.382812 7.402344 L 13.453125 4.445312 C 13.488281 4.359375 13.59375 4.304688 13.691406 4.339844 M 12.820312 4.03125 C 12.933594 4.078125 12.996094 4.199219 12.953125 4.324219 L 11.910156 7.199219 C 11.867188 7.3125 11.742188 7.375 11.617188 7.339844 C 11.5 7.296875 11.4375 7.171875 11.484375 7.050781 L 12.515625 4.171875 C 12.570312 4.050781 12.703125 3.988281 12.820312 4.03125 M 9.023438 6.40625 C 8.953125 6.378906 8.910156 6.300781 8.933594 6.21875 L 10.023438 3.195312 C 10.046875 3.125 10.128906 3.078125 10.210938 3.105469 C 10.28125 3.132812 10.324219 3.210938 10.296875 3.289062 L 9.203125 6.316406 C 9.175781 6.398438 9.09375 6.433594 9.023438 6.40625 M 9.898438 6.714844 C 9.800781 6.679688 9.746094 6.574219 9.78125 6.476562 L 10.839844 3.527344 C 10.878906 3.433594 10.984375 3.378906 11.082031 3.414062 C 11.179688 3.449219 11.222656 3.554688 11.199219 3.652344 L 10.128906 6.609375 C 10.09375 6.695312 9.984375 6.75 9.898438 6.714844 M 10.761719 7.023438 C 10.644531 6.980469 10.582031 6.855469 10.628906 6.730469 L 11.660156 3.855469 C 11.707031 3.742188 11.832031 3.679688 11.953125 3.722656 C 12.070312 3.765625 12.132812 3.890625 12.089844 4.015625 L 11.054688 6.890625 C 11.011719 7.003906 10.886719 7.066406 10.761719 7.023438 M 19.144531 29.117188 C 17.761719 29.441406 16.800781 29.539062 16.097656 29.53125 C 15.847656 29.566406 15.644531 29.441406 15.597656 29.152344 L 15.339844 26.902344 C 15.347656 26.671875 15.421875 26.476562 15.707031 26.46875 C 16.382812 26.476562 17.191406 26.40625 17.441406 26.328125 C 17.816406 26.203125 17.914062 26.25 17.960938 26.308594 C 18.875 27.527344 19.152344 28.570312 19.152344 29.054688 C 19.152344 29.082031 19.144531 29.097656 19.144531 29.117188 "/>
<path style=" stroke:none;fill-rule:nonzero;fill:rgb(77.647059%,12.54902%,20%);fill-opacity:1;" d="M 27.410156 25.675781 L 27.542969 25.675781 L 27.542969 26.054688 L 27.632812 26.054688 L 27.632812 25.675781 L 27.777344 25.675781 L 27.777344 25.605469 L 27.410156 25.605469 Z M 27.410156 25.675781 "/>
<path style=" stroke:none;fill-rule:nonzero;fill:rgb(77.647059%,12.54902%,20%);fill-opacity:1;" d="M 28.113281 25.921875 L 27.988281 25.605469 L 27.867188 25.605469 L 27.867188 26.054688 L 27.945312 26.054688 L 27.945312 25.703125 L 27.953125 25.703125 L 28.089844 26.054688 L 28.152344 26.054688 L 28.285156 25.703125 L 28.285156 26.054688 L 28.363281 26.054688 L 28.363281 25.605469 L 28.238281 25.605469 Z M 28.113281 25.921875 "/>
</g>
</svg>
