<?xml version="1.0" encoding="UTF-8"?>
<svg xmlns="http://www.w3.org/2000/svg" xmlns:xlink="http://www.w3.org/1999/xlink" width="32px" height="32px" viewBox="0 0 32 40" version="1.1">
<g id="surface1">
<path style=" stroke:none;fill-rule:nonzero;fill:rgb(18.431373%,14.117647%,11.372549%);fill-opacity:1;" d="M 24.363281 8.5625 L 8.15625 8.5625 C 8.15625 8.5625 9.125 9.949219 9.125 12.582031 L 9.125 14.617188 L 5.695312 14.617188 C 4.871094 14.617188 4.203125 13.953125 4.203125 13.136719 L 4.203125 4.851562 C 4.203125 4.039062 4.875 3.371094 5.695312 3.371094 L 16.820312 3.371094 C 17.675781 3.382812 18.238281 4.226562 18.121094 5.070312 C 18.007812 5.886719 17.578125 6.375 17.578125 6.375 L 21.992188 6.375 L 21.992188 4.472656 C 21.992188 2.050781 20.015625 0.0859375 17.578125 0.0859375 L 4.414062 0.0859375 C 1.976562 0.0859375 0 2.050781 0 4.472656 L 0 13.59375 C 0 16.019531 1.976562 17.980469 4.414062 17.980469 L 16.558594 17.980469 C 17.382812 17.980469 18.050781 18.644531 18.050781 19.464844 L 18.050781 27.367188 C 18.050781 28.179688 17.378906 28.847656 16.5625 28.847656 L 13.328125 28.847656 L 13.328125 19.5625 L 9.125 19.5625 L 9.125 28.847656 L 5.457031 28.847656 C 4.632812 28.847656 3.96875 28.183594 3.96875 27.367188 L 3.96875 26.578125 C 3.96875 23.953125 4.675781 23.34375 4.675781 23.34375 L 0.261719 23.34375 L 0.261719 27.824219 C 0.261719 30.246094 2.238281 32.210938 4.675781 32.210938 L 9.125 32.210938 L 9.125 35.898438 C 9.125 38.527344 8.15625 39.914062 8.15625 39.914062 L 24.367188 39.914062 C 27.546875 39.914062 30.125 37.351562 30.125 34.191406 L 30.125 14.285156 C 30.125 11.125 27.546875 8.5625 24.363281 8.5625 Z M 25.921875 34.269531 C 25.921875 35.519531 24.902344 36.53125 23.648438 36.53125 L 13.328125 36.53125 L 13.328125 32.210938 L 17.839844 32.210938 C 20.277344 32.210938 22.253906 30.246094 22.253906 27.824219 L 22.253906 19.007812 C 22.253906 16.582031 20.277344 14.617188 17.839844 14.617188 L 13.328125 14.617188 L 13.328125 11.945312 L 23.648438 11.945312 C 24.902344 11.945312 25.921875 12.957031 25.921875 14.203125 Z M 25.921875 34.269531 "/>
<path style=" stroke:none;fill-rule:nonzero;fill:rgb(18.431373%,14.117647%,11.372549%);fill-opacity:1;" d="M 30.566406 38.449219 L 30.566406 38.714844 L 30.230469 38.714844 L 30.230469 39.914062 L 29.902344 39.914062 L 29.902344 38.714844 L 29.546875 38.714844 L 29.546875 38.449219 Z M 31.671875 38.449219 L 31.351562 39.257812 L 31.03125 38.449219 L 30.703125 38.449219 L 30.703125 39.914062 L 31.03125 39.914062 L 31.03125 39.101562 L 31.324219 39.824219 L 31.378906 39.824219 L 31.671875 39.101562 L 31.671875 39.914062 L 32 39.914062 L 32 38.449219 Z M 31.671875 38.449219 "/>
</g>
</svg>
