<?xml version="1.0" encoding="UTF-8"?>
<svg xmlns="http://www.w3.org/2000/svg" xmlns:xlink="http://www.w3.org/1999/xlink" width="32px" height="32px" viewBox="0 0 32 30" version="1.1">
<g id="surface1">
<path style=" stroke:none;fill-rule:nonzero;fill:rgb(100%,100%,100%);fill-opacity:1;" d="M 6.59375 27.617188 C 5.578125 27.796875 4.523438 27.984375 3.625 27.546875 C 2.984375 27.234375 2.464844 26.375 2.449219 25.589844 C 2.4375 24.878906 2.53125 24.140625 2.792969 23.363281 C 2.867188 23.441406 2.957031 23.484375 3.046875 23.515625 C 3.246094 23.585938 3.539062 23.585938 3.78125 23.503906 C 4.152344 23.378906 4.519531 23.257812 4.875 23.140625 C 4.855469 23.160156 4.832031 23.179688 4.8125 23.203125 C 4.054688 24.039062 3.738281 25.03125 3.929688 25.949219 C 3.820312 26.011719 3.667969 26.09375 3.507812 26.171875 C 3.507812 26.171875 3.085938 26.367188 3.066406 26.378906 L 2.953125 26.445312 L 2.953125 26.574219 C 2.953125 26.707031 2.953125 26.707031 3.460938 27.003906 C 3.460938 27.007812 3.671875 27.140625 3.785156 27.375 L 3.921875 27.65625 L 4.234375 27.648438 C 4.519531 27.640625 4.746094 27.488281 4.886719 27.367188 C 5.371094 27.574219 5.882812 27.523438 6.332031 27.226562 C 6.714844 27.449219 7.105469 27.492188 7.3125 27.5 C 7.070312 27.535156 6.828125 27.578125 6.59375 27.617188 M 24.445312 22.4375 L 23.164062 22.4375 L 23.152344 22.480469 C 22.984375 22.453125 22.800781 22.457031 22.609375 22.492188 C 21.898438 22.621094 21.355469 23.046875 20.980469 23.75 C 21.023438 23.382812 20.980469 23.097656 20.804688 22.875 C 20.597656 22.617188 20.3125 22.476562 19.96875 22.460938 C 19.84375 22.453125 19.714844 22.46875 19.582031 22.496094 L 19.59375 22.457031 L 17.683594 22.457031 L 17.6875 22.453125 L 17.433594 22.453125 C 17.777344 22.289062 18.015625 21.941406 18.015625 21.539062 C 18.015625 20.972656 17.550781 20.515625 16.976562 20.515625 C 16.539062 20.515625 16.167969 20.78125 16.011719 21.160156 L 16.300781 20.050781 L 14.066406 20.917969 L 13.699219 22.492188 C 12.925781 22.382812 12.402344 22.78125 12.070312 23.183594 C 12.128906 23.078125 12.222656 22.910156 12.214844 22.921875 L 12.441406 22.5625 L 10.238281 22.5625 L 10.300781 22.332031 L 8.523438 22.332031 C 8.523438 22.332031 8.191406 23.644531 8.042969 24.109375 C 8.117188 23.773438 8.429688 22.457031 8.429688 22.457031 L 6.902344 22.457031 C 10.164062 21.347656 12.464844 20.503906 13.761719 19.941406 C 14.367188 19.679688 17.414062 18.59375 18.433594 18.230469 C 19.203125 17.960938 20.128906 17.644531 21.1875 17.292969 C 21.890625 18.34375 23.683594 21.011719 24.761719 22.441406 C 24.695312 22.4375 24.597656 22.4375 24.445312 22.4375 M 17.210938 15.699219 L 17.347656 15.757812 L 16.347656 16.707031 C 15.945312 16.707031 15.808594 17.101562 15.808594 17.101562 L 15.089844 17.296875 C 15.058594 17.265625 14.886719 17.25 14.886719 17.25 L 15.78125 16.484375 C 16.519531 16.261719 17.210938 15.699219 17.210938 15.699219 M 18.078125 16.027344 L 18.945312 16.3125 L 17.742188 16.613281 C 17.742188 16.613281 17.644531 16.546875 17.515625 16.539062 Z M 31.046875 25.75 C 30.8125 25.636719 30.566406 25.570312 30.304688 25.554688 C 30.28125 25.226562 30.171875 24.90625 30.078125 24.640625 C 30.039062 24.523438 30 24.414062 29.976562 24.320312 C 29.859375 23.886719 29.828125 23.710938 29.933594 23.429688 C 30.15625 22.832031 29.378906 22.484375 29.074219 22.347656 C 29.074219 22.347656 28.976562 22.308594 28.976562 22.308594 C 28.886719 22.265625 28.835938 22.285156 28.699219 22.339844 C 28.585938 22.378906 28.457031 22.464844 28.289062 22.617188 C 28.429688 22.390625 28.519531 22.105469 28.542969 21.800781 C 28.632812 21.738281 28.71875 21.636719 28.789062 21.5 C 29.019531 21.046875 29.03125 20.289062 28.363281 19.53125 C 28.09375 19.222656 26.203125 17.613281 24.539062 16.210938 L 24.53125 16.203125 C 25.117188 16.019531 26.011719 15.734375 26.003906 15.738281 C 26.132812 15.703125 26.332031 15.613281 26.519531 15.777344 C 26.683594 15.933594 27.003906 15.992188 27.28125 15.796875 C 27.765625 15.464844 27.496094 14.730469 27.398438 14.457031 C 27.226562 13.976562 26.980469 13.796875 26.804688 13.730469 C 26.636719 13.664062 26.457031 13.660156 26.300781 13.742188 C 26.058594 13.867188 26 14.070312 25.972656 14.238281 C 25.941406 14.417969 25.648438 14.460938 25.128906 14.589844 C 25.128906 14.589844 23.347656 15.066406 23.21875 15.101562 L 23.210938 15.09375 L 22.777344 14.734375 C 22.695312 14.597656 22.527344 14.351562 22.332031 14.195312 C 22.300781 13.648438 21.867188 12.996094 21.511719 12.726562 C 21.492188 12.347656 21.179688 11.792969 20.851562 11.59375 C 19.359375 9.007812 18.03125 7.347656 16.785156 6.523438 L 16.742188 6.496094 C 16.519531 6.351562 16.5 6.328125 16.492188 6.214844 C 16.417969 5.195312 16.140625 4.21875 15.785156 3.695312 C 15.925781 3.476562 16.136719 3.085938 16.28125 2.542969 C 16.28125 2.542969 16.4375 1.957031 16.4375 1.957031 L 16.257812 2.074219 C 16.304688 1.925781 16.351562 1.75 16.394531 1.535156 L 16.398438 1.507812 C 16.410156 1.332031 16.292969 1.265625 16.253906 1.25 C 16.238281 1.242188 16.222656 1.242188 16.207031 1.238281 C 16.222656 1.042969 16.203125 0.808594 16.097656 0.550781 L 15.960938 0.199219 L 15.707031 0.480469 C 15.183594 1.050781 14.390625 1.347656 13.691406 1.609375 C 13.53125 1.671875 13.378906 1.726562 13.234375 1.785156 C 12.09375 2.25 11.386719 2.746094 10.722656 4.152344 C 10.707031 4.164062 10.691406 4.179688 10.671875 4.195312 C 10.367188 4.445312 9.738281 4.964844 9.382812 5.996094 L 9.324219 6.167969 L 9.476562 6.265625 C 9.84375 6.496094 10.242188 6.660156 10.742188 6.832031 C 8.859375 10.972656 12.445312 13.425781 15.445312 14.929688 C 15.269531 15.246094 15.132812 15.539062 15.09375 15.886719 L 13.75 17.277344 C 13.621094 17.3125 13.378906 17.390625 13.234375 17.539062 C 13.1875 17.589844 13.140625 17.660156 13.101562 17.742188 C 13.0625 17.75 13.03125 17.757812 13 17.761719 C 12.160156 17.929688 10.820312 18.230469 7.257812 19.203125 C 6.742188 18.738281 5.882812 18.441406 5.039062 18.441406 C 3.703125 18.441406 2.839844 19.148438 1.957031 20.207031 C 0.679688 21.738281 -0.761719 25.925781 1.148438 28.144531 C 1.476562 28.523438 2.703125 29.746094 4.8125 29.589844 C 5.375 29.546875 5.796875 29.453125 6.167969 29.375 C 6.90625 29.214844 7.242188 29.140625 7.972656 29.625 L 8.265625 29.820312 L 8.542969 29.605469 C 8.960938 29.28125 9.667969 29.390625 10.238281 29.519531 L 11.34375 29.773438 L 10.765625 28.8125 C 9.992188 27.53125 8.894531 27.347656 7.789062 27.445312 C 8.414062 27.273438 8.824219 26.730469 9.128906 26.085938 C 9.085938 26.507812 9.160156 26.960938 9.570312 27.246094 C 10.226562 27.703125 11.050781 27.503906 11.660156 27.132812 C 11.945312 27.375 12.332031 27.515625 12.691406 27.5 C 13 27.496094 13.265625 27.433594 13.511719 27.316406 C 13.679688 27.429688 13.863281 27.5 14.0625 27.519531 C 14.398438 27.550781 14.753906 27.441406 15.128906 27.203125 C 15.324219 27.394531 15.578125 27.5 15.867188 27.5 C 16.003906 27.5 16.144531 27.484375 16.285156 27.449219 L 16.269531 27.5 L 18.28125 27.5 L 18.554688 26.527344 C 18.578125 26.71875 18.636719 26.902344 18.75 27.066406 C 18.875 27.242188 19.117188 27.460938 19.566406 27.5 C 20.042969 27.539062 20.617188 27.359375 21.082031 27.039062 C 21.585938 27.527344 22.222656 27.609375 22.976562 27.273438 C 23.125 27.402344 23.382812 27.550781 23.769531 27.496094 C 24.035156 27.480469 24.300781 27.371094 24.582031 27.164062 C 24.808594 27.386719 25.105469 27.503906 25.433594 27.5 C 25.980469 27.492188 26.4375 27.171875 26.792969 26.84375 C 27.191406 27.242188 27.789062 27.648438 28.710938 27.492188 C 28.867188 27.46875 29 27.433594 29.113281 27.402344 C 29.417969 27.324219 29.457031 27.3125 29.699219 27.515625 L 30.417969 28.113281 L 30.492188 27.207031 C 30.507812 27.164062 30.609375 26.890625 31.09375 26.574219 L 31.796875 26.117188 Z M 31.046875 25.75 "/>
<path style=" stroke:none;fill-rule:nonzero;fill:rgb(7.843137%,14.901961%,29.411765%);fill-opacity:1;" d="M 17.78125 21.539062 C 17.78125 21.101562 17.421875 20.746094 16.976562 20.746094 C 16.535156 20.746094 16.171875 21.101562 16.171875 21.539062 C 16.171875 21.972656 16.535156 22.328125 16.976562 22.328125 C 17.421875 22.328125 17.78125 21.972656 17.78125 21.539062 M 30.941406 25.957031 C 30.625 25.800781 30.316406 25.773438 30.074219 25.785156 C 30.101562 25.421875 29.96875 25.042969 29.855469 24.714844 C 29.816406 24.59375 29.777344 24.480469 29.75 24.382812 C 29.632812 23.953125 29.578125 23.710938 29.710938 23.351562 C 29.859375 22.953125 29.25 22.683594 28.992188 22.566406 L 28.878906 22.519531 C 28.878906 22.515625 28.78125 22.554688 28.78125 22.554688 C 28.441406 22.683594 27.75 23.496094 26.503906 25.046875 C 26.359375 25.230469 26.210938 25.414062 26.09375 25.558594 C 26.167969 25.214844 26.417969 24.101562 26.539062 23.566406 C 27.019531 23.609375 27.386719 23.3125 27.476562 22.863281 C 27.875 22.960938 28.316406 22.382812 28.316406 21.652344 C 28.527344 21.667969 29.125 20.753906 28.1875 19.683594 C 27.902344 19.359375 25.625 17.429688 24.066406 16.117188 L 24.0625 16.113281 L 25.945312 15.515625 C 26.0625 15.484375 26.273438 15.433594 26.378906 15.445312 C 26.449219 15.449219 26.59375 15.546875 26.664062 15.625 C 26.734375 15.691406 26.921875 15.773438 27.144531 15.613281 C 27.445312 15.398438 27.308594 14.894531 27.175781 14.535156 C 27.035156 14.136719 26.855469 13.964844 26.726562 13.914062 C 26.621094 13.875 26.496094 13.863281 26.378906 13.921875 C 26.109375 14.0625 26.234375 14.347656 26.085938 14.457031 C 26.085938 14.457031 26.042969 14.585938 25.203125 14.789062 L 23.273438 15.328125 L 23.160156 15.359375 L 23.152344 15.351562 C 22.808594 15.0625 22.597656 14.886719 22.597656 14.886719 C 22.460938 14.65625 22.269531 14.410156 22.097656 14.316406 C 22.136719 13.757812 21.5625 12.984375 21.265625 12.847656 C 21.347656 12.605469 21.011719 11.910156 20.679688 11.765625 C 19.617188 9.917969 18.179688 7.726562 16.652344 6.714844 C 16.410156 6.554688 16.277344 6.480469 16.257812 6.234375 C 16.171875 5.089844 15.84375 4.109375 15.5 3.703125 C 15.628906 3.527344 15.886719 3.109375 16.054688 2.484375 C 16.054688 2.484375 15.859375 2.613281 15.710938 2.660156 C 15.789062 2.566406 15.988281 2.347656 16.164062 1.492188 C 16.171875 1.390625 16.082031 1.582031 15.871094 1.703125 C 15.90625 1.550781 16.085938 1.152344 15.878906 0.636719 C 15.195312 1.382812 14.101562 1.683594 13.324219 2 C 12.144531 2.480469 11.527344 2.980469 10.914062 4.296875 C 10.695312 4.488281 9.980469 4.976562 9.601562 6.070312 C 9.980469 6.308594 10.390625 6.472656 10.972656 6.667969 C 10.972656 6.667969 10.976562 6.851562 10.980469 6.871094 C 9.210938 10.675781 12.128906 13.046875 15.765625 14.835938 C 15.53125 15.25 15.339844 15.578125 15.320312 15.988281 L 13.871094 17.488281 C 13.871094 17.488281 13.542969 17.554688 13.40625 17.699219 C 13.34375 17.761719 13.296875 17.867188 13.265625 17.945312 C 13.179688 17.960938 13.105469 17.976562 13.046875 17.988281 C 12.167969 18.164062 10.75 18.488281 7.1875 19.460938 C 7.175781 19.449219 7.164062 19.4375 7.152344 19.425781 C 6.6875 18.96875 5.859375 18.671875 5.039062 18.671875 C 3.796875 18.671875 2.980469 19.34375 2.136719 20.355469 C 0.902344 21.835938 -0.503906 25.875 1.328125 27.996094 C 1.636719 28.355469 2.796875 29.507812 4.792969 29.359375 C 5.339844 29.316406 5.753906 29.230469 6.117188 29.148438 C 6.871094 28.984375 7.289062 28.894531 8.101562 29.433594 L 8.253906 29.535156 L 8.398438 29.425781 C 8.890625 29.039062 9.671875 29.152344 10.292969 29.296875 L 10.863281 29.425781 L 10.5625 28.929688 C 9.589844 27.324219 8.089844 27.589844 6.636719 27.847656 C 5.582031 28.03125 4.488281 28.226562 3.519531 27.753906 C 2.796875 27.402344 2.234375 26.472656 2.214844 25.59375 C 2.199219 24.730469 2.398438 23.773438 2.703125 22.945312 C 2.941406 23.25 3.246094 23.414062 3.523438 23.339844 C 3.558594 23.332031 3.59375 23.320312 3.625 23.304688 C 3.652344 23.300781 3.679688 23.296875 3.703125 23.285156 C 8.644531 21.652344 11.996094 20.453125 13.667969 19.734375 C 14.277344 19.46875 17.332031 18.378906 18.351562 18.015625 C 19.257812 17.695312 20.28125 17.347656 21.285156 17.019531 C 21.886719 17.921875 24.265625 21.472656 25.296875 22.757812 C 25.09375 23.9375 24.742188 25.34375 24.140625 25.707031 C 24.113281 25.722656 24.082031 25.742188 24.058594 25.757812 C 24.1875 25.066406 24.617188 23.246094 24.6875 22.972656 L 24.761719 22.671875 L 23.34375 22.671875 L 23.320312 22.761719 C 23.136719 22.691406 22.910156 22.671875 22.652344 22.71875 C 21.554688 22.921875 20.890625 23.914062 20.675781 25.671875 C 20.671875 25.703125 20.667969 25.738281 20.664062 25.761719 C 20.449219 26.003906 20.28125 26.050781 20.230469 26.03125 C 20.214844 26.023438 20.210938 25.984375 20.210938 25.964844 C 20.21875 25.753906 20.332031 25.363281 20.445312 24.984375 C 20.730469 24.023438 20.894531 23.363281 20.617188 23.019531 C 20.457031 22.816406 20.230469 22.703125 19.960938 22.691406 C 19.722656 22.683594 19.476562 22.75 19.257812 22.859375 L 19.296875 22.691406 L 17.828125 22.691406 L 17.785156 22.886719 C 17.621094 23.683594 17.132812 25.367188 16.796875 25.753906 C 16.730469 25.832031 16.601562 25.878906 16.511719 25.890625 C 16.601562 25.453125 17.019531 23.945312 17.289062 22.996094 L 17.378906 22.6875 L 15.886719 22.6875 L 15.84375 22.878906 C 15.839844 22.898438 15.351562 25.019531 14.972656 25.671875 C 14.863281 25.855469 14.761719 25.910156 14.722656 25.898438 C 14.699219 25.890625 14.671875 25.847656 14.675781 25.796875 C 14.714844 25.300781 15.527344 22.09375 15.839844 20.898438 L 15.960938 20.433594 L 14.265625 21.089844 L 13.878906 22.765625 C 13.828125 22.75 13.769531 22.734375 13.707031 22.726562 C 12.617188 22.546875 12.085938 23.523438 11.886719 23.890625 C 11.632812 24.359375 11.375 25.136719 11.351562 25.75 C 11.191406 25.933594 11 26.074219 10.933594 26.0625 C 10.878906 26.058594 10.867188 26.039062 10.855469 26.015625 C 10.648438 25.617188 11.292969 24.105469 11.820312 23.15625 L 12.019531 22.792969 L 9.933594 22.796875 L 9.996094 22.566406 L 8.710938 22.566406 L 8.667969 22.753906 C 8.40625 23.859375 7.933594 25.308594 7.523438 25.878906 C 7.472656 25.949219 7.429688 25.984375 7.402344 26 C 7.425781 25.738281 7.753906 24.277344 8.0625 22.988281 L 8.136719 22.6875 L 6.667969 22.6875 L 6.605469 22.921875 C 6.128906 22.75 5.507812 22.78125 4.988281 23.355469 C 4.234375 24.191406 3.949219 25.167969 4.195312 26.050781 C 4.085938 26.132812 3.84375 26.269531 3.605469 26.378906 L 3.1875 26.578125 L 3.585938 26.8125 C 3.585938 26.8125 3.851562 26.976562 3.996094 27.277344 L 4.066406 27.421875 L 4.226562 27.417969 C 4.496094 27.410156 4.707031 27.226562 4.84375 27.089844 C 5.335938 27.363281 5.875 27.3125 6.324219 26.949219 C 6.734375 27.242188 7.210938 27.269531 7.363281 27.269531 C 8.625 27.269531 9.105469 25.632812 9.457031 24.433594 C 9.503906 24.273438 9.546875 24.121094 9.59375 23.984375 L 10.074219 23.984375 C 10.042969 24.054688 10.011719 24.128906 9.980469 24.207031 C 9.839844 24.535156 9.683594 24.914062 9.558594 25.277344 C 9.421875 25.6875 9.105469 26.640625 9.703125 27.058594 C 10.296875 27.472656 11.097656 27.25 11.683594 26.839844 C 11.964844 27.152344 12.371094 27.285156 12.683594 27.269531 C 13.011719 27.265625 13.285156 27.191406 13.539062 27.039062 C 13.695312 27.183594 13.878906 27.269531 14.085938 27.289062 C 14.472656 27.324219 14.859375 27.125 15.171875 26.890625 C 15.328125 27.132812 15.570312 27.269531 15.867188 27.269531 C 16.113281 27.273438 16.375 27.203125 16.632812 27.078125 L 16.578125 27.269531 L 18.101562 27.269531 L 18.597656 25.492188 C 18.882812 24.359375 19.167969 24.230469 19.222656 24.214844 C 19.25 24.207031 19.269531 24.214844 19.28125 24.222656 C 19.28125 24.296875 19.21875 24.484375 19.160156 24.652344 C 19.109375 24.808594 19.046875 25 18.980469 25.226562 L 18.960938 25.292969 C 18.835938 25.738281 18.621094 26.480469 18.941406 26.933594 C 19.039062 27.070312 19.226562 27.242188 19.582031 27.269531 C 20.074219 27.308594 20.679688 27.085938 21.109375 26.730469 C 21.71875 27.46875 22.457031 27.285156 23.023438 26.996094 C 23.179688 27.167969 23.390625 27.316406 23.753906 27.269531 C 24.070312 27.246094 24.363281 27.058594 24.609375 26.84375 C 24.804688 27.121094 25.089844 27.273438 25.429688 27.269531 C 25.980469 27.261719 26.441406 26.875 26.804688 26.511719 C 27.246094 27.019531 27.796875 27.410156 28.671875 27.265625 C 28.816406 27.242188 28.941406 27.210938 29.054688 27.179688 C 29.378906 27.09375 29.515625 27.058594 29.851562 27.339844 L 30.222656 27.648438 L 30.261719 27.171875 C 30.261719 27.175781 30.320312 26.800781 30.964844 26.378906 L 31.328125 26.148438 Z M 16.503906 16.863281 C 16.328125 16.894531 16.246094 16.917969 16.128906 17.027344 C 16.046875 17.101562 15.988281 17.207031 15.960938 17.28125 C 15.632812 17.367188 15.296875 17.449219 14.972656 17.53125 C 14.898438 17.488281 14.753906 17.433594 14.535156 17.449219 C 14.515625 17.445312 14.457031 17.4375 14.460938 17.375 C 14.464844 17.324219 15.679688 16.242188 15.679688 16.242188 C 16.015625 16.175781 17.261719 15.464844 17.261719 15.464844 L 17.640625 15.617188 L 17.613281 15.679688 L 17.558594 15.773438 L 16.574219 16.800781 C 16.554688 16.824219 16.53125 16.855469 16.503906 16.863281 M 17.640625 16.847656 C 17.554688 16.785156 17.464844 16.75 17.378906 16.75 C 17.066406 16.757812 17.171875 16.644531 17.246094 16.5625 L 18.089844 15.789062 C 18.089844 15.789062 18.753906 16.0625 19.550781 16.335938 C 18.394531 16.648438 17.765625 16.816406 17.640625 16.847656 M 5.664062 25.941406 C 5.660156 25.941406 5.65625 25.941406 5.644531 25.925781 C 5.625 25.90625 5.488281 25.707031 5.667969 25.003906 C 5.800781 24.488281 5.992188 24.140625 6.214844 24.03125 C 6.253906 24.007812 6.316406 23.984375 6.398438 23.988281 C 6.285156 24.949219 5.976562 25.941406 5.664062 25.941406 M 13.4375 25.003906 C 13.371094 25.25 13.308594 25.507812 13.25 25.769531 C 13.242188 25.808594 13.140625 25.886719 13 25.902344 C 12.949219 25.90625 12.859375 25.902344 12.839844 25.855469 C 12.714844 25.570312 12.886719 24.648438 13.292969 24.171875 C 13.414062 24.03125 13.535156 23.960938 13.648438 23.957031 C 13.652344 24.152344 13.527344 24.636719 13.4375 25.003906 M 22.265625 25.949219 C 22.261719 25.949219 22.257812 25.949219 22.246094 25.933594 C 22.230469 25.914062 22.09375 25.714844 22.269531 25.011719 C 22.40625 24.484375 22.585938 24.160156 22.804688 24.050781 C 22.878906 24.011719 22.960938 24.003906 23.054688 24.015625 C 22.925781 24.984375 22.597656 25.949219 22.265625 25.949219 M 28.691406 25.996094 C 28.632812 26.050781 28.523438 26.085938 28.40625 26.089844 C 28.257812 26.09375 28.125 26.046875 28.035156 25.960938 C 27.582031 25.542969 27.582031 25.542969 27.800781 25.265625 C 27.941406 25.085938 28.0625 24.917969 28.183594 24.753906 C 28.289062 24.609375 28.390625 24.476562 28.488281 24.351562 C 28.523438 24.601562 28.597656 24.832031 28.664062 25.050781 C 28.808594 25.496094 28.878906 25.765625 28.691406 25.996094 "/>
<path style=" stroke:none;fill-rule:nonzero;fill:rgb(100%,100%,100%);fill-opacity:1;" d="M 12.886719 5.265625 C 12.808594 5.390625 12.667969 5.46875 12.507812 5.457031 C 12.285156 5.441406 12.117188 5.25 12.132812 5.027344 C 12.148438 4.808594 12.34375 4.640625 12.566406 4.65625 C 12.714844 4.667969 12.839844 4.753906 12.902344 4.878906 C 12.621094 4.847656 12.5625 5.113281 12.5625 5.113281 C 12.378906 4.894531 12.613281 4.769531 12.613281 4.769531 C 12.457031 4.75 12.308594 4.867188 12.296875 5.042969 C 12.285156 5.21875 12.417969 5.371094 12.597656 5.382812 C 12.71875 5.390625 12.824219 5.351562 12.886719 5.265625 "/>
<path style=" stroke:none;fill-rule:nonzero;fill:rgb(71.764706%,12.941176%,14.901961%);fill-opacity:1;" d="M 15.707031 1.140625 C 15.109375 1.753906 14.164062 1.957031 13.355469 2.289062 C 12.171875 2.78125 11.558594 3.539062 11.25 4.269531 C 11.363281 4.464844 12.085938 4.480469 12.191406 4.417969 C 12.375 4.3125 12.625 4.257812 12.824219 4.371094 C 12.96875 4.453125 13.046875 4.535156 13.113281 4.578125 C 13.289062 4.652344 13.53125 4.710938 13.714844 4.671875 C 12.914062 5.460938 12.824219 6.496094 12.898438 6.671875 C 11.957031 6.671875 11.011719 7.921875 10.839844 8.261719 C 9.832031 11.988281 15.578125 14.445312 16.148438 14.707031 C 15.816406 15.226562 15.535156 15.644531 15.5625 15.839844 C 15.582031 15.996094 15.671875 16 15.855469 15.960938 C 16.273438 15.730469 17.015625 15.394531 17.277344 15.097656 C 17.433594 14.917969 17.269531 14.65625 17.191406 14.570312 C 17.109375 14.476562 17.15625 14.394531 17.347656 14.511719 C 17.53125 14.664062 17.5625 14.746094 17.621094 14.878906 C 17.703125 15.070312 17.46875 15.277344 17.46875 15.277344 C 18.113281 15.5625 20.324219 16.417969 21.011719 16.550781 L 20.269531 15.371094 C 18.921875 14.84375 17.023438 14.042969 15.949219 13.519531 C 14.28125 12.703125 11.523438 11.007812 12.898438 8.40625 C 13.300781 7.746094 13.453125 7.734375 13.511719 7.886719 C 13.515625 7.902344 13.503906 7.949219 13.484375 7.957031 C 13.460938 7.980469 13.277344 8.152344 13.109375 8.507812 C 11.816406 10.871094 14.492188 12.5625 16.070312 13.316406 C 18.355469 14.40625 20.46875 15.246094 21.863281 15.703125 C 22.074219 15.773438 22.269531 15.847656 22.421875 15.886719 C 22.84375 16.011719 22.300781 14.570312 21.765625 14.421875 C 18.941406 13.605469 16.21875 12.386719 15.46875 11.65625 C 15.015625 11.605469 13.808594 11.242188 13.613281 9.636719 C 13.605469 9.59375 13.605469 9.554688 13.660156 9.542969 C 13.714844 9.53125 13.734375 9.566406 13.738281 9.589844 C 14.085938 11.050781 15.09375 11.4375 15.523438 11.449219 C 15.757812 11.453125 16.132812 11.222656 16.035156 11.164062 C 15.300781 10.746094 14.886719 9.90625 14.859375 9.816406 C 14.839844 9.761719 14.863281 9.746094 14.898438 9.726562 C 14.929688 9.707031 14.972656 9.722656 15.007812 9.777344 C 15.195312 10.066406 15.894531 11.195312 16.925781 11.226562 C 17.195312 11.234375 17.496094 11.222656 17.558594 10.984375 C 17.558594 10.984375 16.683594 10.589844 16.257812 9.894531 C 16.242188 9.871094 16.230469 9.828125 16.285156 9.796875 C 16.339844 9.761719 16.386719 9.820312 16.410156 9.84375 C 17.242188 10.683594 17.910156 11.023438 18.316406 10.980469 C 18.480469 10.972656 18.59375 10.855469 18.597656 10.777344 C 18.621094 10.472656 18.308594 10.285156 18.226562 10.230469 C 18.214844 10.222656 18.207031 10.195312 18.21875 10.175781 C 18.234375 10.160156 18.265625 10.148438 18.304688 10.167969 C 18.46875 10.246094 18.789062 10.472656 18.761719 10.828125 C 18.757812 10.890625 18.75 10.933594 18.699219 10.984375 C 19.171875 11.230469 19.976562 11.542969 20.351562 11.65625 C 19.203125 9.769531 17.9375 7.78125 16.289062 6.792969 C 16.242188 6.933594 16.382812 7.253906 16.214844 7.175781 C 16.101562 7.121094 16.003906 6.65625 16 6.445312 C 15.976562 5.355469 15.671875 4.445312 15.269531 3.921875 C 15.042969 4.09375 14.636719 4.179688 14.636719 4.183594 C 15.449219 3.476562 15.554688 2.980469 15.554688 2.980469 C 15.316406 3.160156 14.75 3.40625 14.453125 3.457031 C 14.453125 3.457031 15.378906 2.925781 15.75 1.976562 C 15.75 1.96875 15.160156 2.546875 14.296875 2.738281 C 14.296875 2.738281 15.734375 2.09375 15.707031 1.140625 Z M 17.746094 11.050781 C 17.730469 11.15625 17.699219 11.253906 17.535156 11.324219 C 19.039062 12.207031 20.648438 12.6875 21 12.785156 C 21.074219 12.734375 20.886719 12.058594 20.382812 11.882812 C 19.632812 11.621094 19.003906 11.359375 18.558594 11.082031 C 18.402344 11.167969 18.167969 11.21875 17.746094 11.050781 Z M 16.261719 11.277344 C 16.242188 11.402344 15.910156 11.589844 15.761719 11.613281 C 16.84375 12.519531 20.65625 13.914062 21.746094 14.167969 C 21.921875 14.207031 21.667969 13.4375 21.1875 13.121094 C 20.835938 12.886719 18.632812 12.386719 17.238281 11.398438 C 17 11.433594 16.707031 11.445312 16.261719 11.277344 Z M 22.757812 15.328125 C 22.800781 15.425781 22.824219 15.546875 22.847656 15.664062 C 23.039062 16.558594 22.351562 16.0625 20.597656 15.480469 C 22.003906 17.664062 24.144531 20.890625 25.355469 22.398438 C 25.425781 21.953125 25.472656 21.5625 25.503906 21.308594 L 25.53125 21.09375 L 25.785156 20.996094 L 22.480469 16.832031 L 22.777344 16.832031 C 22.777344 16.832031 24.65625 19.222656 26.023438 20.90625 L 26.96875 20.542969 C 25.582031 19.101562 23.277344 16.761719 23.277344 16.761719 L 23.578125 16.769531 C 23.578125 16.746094 28.042969 21.304688 28.042969 21.304688 C 28.289062 21.574219 28.703125 20.660156 28.035156 19.925781 C 27.664062 19.34375 22.757812 15.328125 22.757812 15.328125 Z M 5.039062 18.917969 C 3.972656 18.917969 3.214844 19.449219 2.332031 20.511719 C 1.054688 22.039062 -0.171875 25.878906 1.515625 27.839844 C 2.082031 28.496094 3.226562 29.230469 4.773438 29.117188 C 6.464844 28.988281 6.925781 28.363281 8.242188 29.230469 C 8.863281 28.75 9.808594 28.933594 10.347656 29.058594 C 8.800781 26.492188 5.839844 29.152344 3.410156 27.972656 C 2.570312 27.566406 1.988281 26.539062 1.964844 25.601562 C 1.945312 24.652344 2.179688 23.597656 2.53125 22.695312 C 2.457031 22.554688 2.390625 22.398438 2.34375 22.230469 C 2.160156 21.535156 2.394531 20.835938 2.808594 20.679688 C 2.832031 20.667969 2.855469 20.660156 2.882812 20.652344 C 3.304688 20.53125 3.703125 20.429688 4.089844 20.324219 C 4.226562 20.203125 4.363281 20.105469 4.496094 20.023438 C 4.984375 19.746094 5.910156 19.734375 6.453125 20.121094 C 6.203125 20.414062 5.984375 20.808594 6.339844 21.136719 C 6.621094 21.398438 7.078125 21.289062 7.265625 20.976562 C 7.558594 20.492188 7.320312 19.945312 6.976562 19.597656 C 6.5625 19.191406 5.800781 18.917969 5.039062 18.917969 Z M 27.160156 20.742188 L 26.890625 21.960938 C 27.167969 22.289062 27.355469 22.5 27.402344 22.519531 C 27.832031 22.707031 28.140625 21.867188 27.976562 21.628906 C 27.921875 21.546875 27.601562 21.207031 27.160156 20.742188 Z M 15.597656 20.835938 L 14.480469 21.269531 L 14.03125 23.210938 C 14.03125 23.210938 14.027344 23.027344 13.664062 22.964844 C 12.871094 22.835938 12.429688 23.410156 12.105469 24.003906 C 11.867188 24.449219 11.597656 25.253906 11.597656 25.839844 C 11.597656 25.839844 11.207031 26.347656 10.902344 26.308594 C 9.859375 26.175781 11.597656 23.039062 11.597656 23.039062 L 9.609375 23.039062 L 9.671875 22.808594 L 8.90625 22.808594 C 8.695312 23.699219 8.214844 25.34375 7.726562 26.023438 C 7.460938 26.390625 7.160156 26.289062 7.148438 26.035156 C 7.140625 25.773438 7.820312 22.933594 7.820312 22.933594 L 6.859375 22.933594 L 6.769531 23.273438 C 6.5 23.105469 5.796875 22.832031 5.175781 23.519531 C 4.359375 24.421875 4.222656 25.378906 4.46875 26.097656 C 4.5 26.234375 3.710938 26.601562 3.710938 26.601562 C 3.710938 26.601562 4.035156 26.792969 4.222656 27.171875 C 4.523438 27.164062 4.777344 26.753906 4.8125 26.777344 C 5.277344 27.121094 5.847656 27.117188 6.320312 26.617188 C 6.609375 26.917969 7.039062 27.027344 7.363281 27.027344 C 8.65625 27.027344 9.046875 24.789062 9.410156 23.742188 L 10.4375 23.742188 C 10.289062 24.144531 9.992188 24.769531 9.796875 25.355469 C 9.589844 25.972656 9.464844 26.589844 9.847656 26.859375 C 10.4375 27.269531 11.269531 26.894531 11.738281 26.484375 C 11.933594 26.859375 12.34375 27.039062 12.671875 27.027344 C 13.035156 27.019531 13.308594 26.925781 13.578125 26.71875 C 14.078125 27.398438 14.84375 26.878906 15.265625 26.492188 C 15.339844 26.777344 15.519531 27.023438 15.867188 27.027344 C 16.277344 27.027344 16.710938 26.804688 17.050781 26.484375 L 16.902344 27.027344 L 17.910156 27.027344 L 18.355469 25.429688 C 18.84375 23.492188 19.449219 24.007812 19.496094 24.085938 C 19.609375 24.253906 19.421875 24.578125 19.21875 25.292969 C 19.078125 25.789062 18.703125 26.953125 19.601562 27.027344 C 20.117188 27.066406 20.792969 26.753906 21.140625 26.355469 C 21.65625 27.167969 22.269531 27.144531 23.082031 26.6875 C 23.261719 26.910156 23.394531 27.070312 23.722656 27.027344 C 24.097656 27.007812 24.472656 26.644531 24.675781 26.433594 C 24.792969 26.757812 25.03125 27.03125 25.425781 27.027344 C 25.972656 27.019531 26.460938 26.515625 26.820312 26.144531 C 27.300781 26.757812 27.789062 27.164062 28.628906 27.027344 C 29.214844 26.925781 29.445312 26.679688 30.011719 27.152344 C 30.011719 27.152344 30.050781 26.679688 30.828125 26.175781 C 30.402344 25.964844 29.96875 26.019531 29.730469 26.09375 C 30 25.605469 29.636719 24.925781 29.507812 24.445312 C 29.390625 24.011719 29.316406 23.707031 29.476562 23.269531 C 29.550781 23.074219 28.96875 22.824219 28.871094 22.785156 C 28.375 22.972656 26.246094 25.832031 26.023438 26.011719 C 25.921875 26.097656 25.679688 26.238281 25.824219 25.609375 C 25.824219 25.609375 26.894531 20.839844 26.886719 20.835938 L 25.757812 21.269531 C 25.632812 22.324219 25.296875 25.292969 24.269531 25.914062 C 24.175781 25.972656 23.863281 26.199219 23.773438 26.019531 C 23.722656 25.921875 24.4375 22.949219 24.441406 22.917969 L 23.535156 22.917969 L 23.464844 23.1875 C 23.316406 22.917969 22.9375 22.917969 22.699219 22.960938 C 20.980469 23.277344 20.953125 25.789062 20.894531 25.875 C 20.394531 26.480469 19.949219 26.324219 19.960938 25.953125 C 19.984375 25.3125 20.769531 23.605469 20.421875 23.171875 C 20.039062 22.691406 19.253906 23.035156 18.859375 23.449219 L 18.980469 22.933594 L 18.03125 22.933594 C 17.894531 23.585938 17.394531 25.441406 16.984375 25.914062 C 16.769531 26.160156 16.21875 26.234375 16.242188 25.972656 C 16.269531 25.664062 17.046875 22.929688 17.046875 22.929688 L 16.085938 22.929688 C 16.085938 22.929688 15.589844 25.101562 15.1875 25.792969 C 14.84375 26.382812 14.402344 26.125 14.425781 25.78125 C 14.476562 25.152344 15.597656 20.835938 15.597656 20.835938 Z M 16.976562 20.992188 C 16.667969 20.992188 16.421875 21.238281 16.421875 21.539062 C 16.421875 21.839844 16.667969 22.082031 16.976562 22.082031 C 17.28125 22.082031 17.53125 21.839844 17.53125 21.539062 C 17.53125 21.238281 17.28125 20.992188 16.976562 20.992188 Z M 26.816406 22.300781 L 26.597656 23.296875 C 26.957031 23.285156 27.320312 22.976562 27.140625 22.710938 Z M 28.761719 23.683594 C 28.507812 24.695312 29.417969 25.507812 28.878906 26.160156 C 28.664062 26.378906 28.152344 26.410156 27.859375 26.140625 C 27.273438 25.59375 27.28125 25.519531 27.601562 25.113281 C 28.058594 24.53125 28.351562 24.042969 28.761719 23.683594 Z M 13.625 23.710938 C 13.675781 23.707031 13.730469 23.710938 13.78125 23.722656 C 14.078125 23.796875 13.71875 24.792969 13.492188 25.820312 C 13.421875 26.144531 12.761719 26.296875 12.609375 25.953125 C 12.371094 25.414062 12.867188 23.75 13.625 23.710938 Z M 6.414062 23.742188 C 6.492188 23.746094 6.578125 23.765625 6.667969 23.800781 C 6.667969 23.800781 6.460938 26.183594 5.660156 26.183594 C 5.410156 26.183594 5.191406 25.851562 5.425781 24.945312 C 5.570312 24.371094 5.863281 23.714844 6.414062 23.742188 Z M 23.050781 23.765625 C 23.136719 23.769531 23.226562 23.792969 23.328125 23.828125 C 23.328125 23.828125 23.082031 26.191406 22.261719 26.191406 C 22.011719 26.191406 21.796875 25.863281 22.027344 24.953125 C 22.171875 24.378906 22.449219 23.714844 23.050781 23.765625 Z M 23.050781 23.765625 "/>
<path style=" stroke:none;fill-rule:nonzero;fill:rgb(99.607843%,90.196078%,5.490196%);fill-opacity:1;" d="M 11.007812 4.625 C 10.230469 5.097656 9.878906 5.964844 9.878906 5.964844 C 10.5625 5.824219 10.671875 5.628906 11.191406 5.671875 C 11.378906 5.691406 11.464844 5.773438 11.613281 5.878906 C 11.386719 5.828125 11.210938 5.820312 11.023438 5.8125 C 10.757812 5.808594 10.234375 5.992188 9.96875 6.015625 C 9.96875 6.015625 10.839844 6.386719 11.109375 6.425781 C 11.109375 6.425781 11.671875 6.644531 11.835938 5.941406 C 11.921875 5.5625 11.628906 5.011719 11.253906 5.164062 C 11.25 5.167969 11.324219 4.765625 11.007812 4.625 Z M 26.589844 14.074219 C 26.570312 14.070312 26.550781 14.074219 26.53125 14.078125 C 26.351562 14.109375 26.34375 14.3125 26.34375 14.3125 C 26.34375 14.3125 26.375 14.492188 26.167969 14.644531 C 26.066406 14.722656 25.753906 14.855469 25.253906 14.953125 L 23.324219 15.492188 L 23.910156 15.976562 L 25.890625 15.351562 C 25.890625 15.351562 26.621094 15.171875 26.621094 14.832031 C 26.621094 14.308594 26.898438 15.304688 26.785156 15.5 C 26.785156 15.5 26.878906 15.589844 27.042969 15.472656 C 27.203125 15.359375 27.171875 15.039062 27.011719 14.59375 C 26.871094 14.203125 26.71875 14.078125 26.589844 14.074219 Z M 19.863281 16.441406 L 17.84375 16.984375 C 17.832031 16.988281 17.816406 16.992188 17.796875 17 C 18.023438 17.273438 18.140625 17.714844 17.835938 18.007812 C 18.023438 17.941406 18.265625 17.855469 18.265625 17.855469 C 19.074219 17.570312 20.050781 17.238281 21.171875 16.867188 C 21.171875 16.867188 21.175781 16.863281 21.183594 16.863281 C 21.15625 16.828125 21.144531 16.804688 21.144531 16.804688 C 20.75 16.71875 20.296875 16.585938 19.863281 16.441406 Z M 17.355469 17.128906 C 17.277344 17.148438 17.214844 17.160156 17.175781 17.160156 C 17.054688 17.191406 15.511719 17.585938 15.167969 17.671875 C 15.527344 17.980469 15.585938 18.613281 15.164062 18.972656 C 16.03125 18.652344 17.011719 18.300781 17.550781 18.109375 L 17.660156 18.070312 C 17.785156 17.847656 17.777344 17.40625 17.550781 17.21875 C 17.5 17.179688 17.425781 17.148438 17.355469 17.128906 Z M 14.566406 17.832031 C 14.554688 17.832031 14.542969 17.832031 14.527344 17.832031 C 14.371094 17.871094 14.246094 17.902344 14.246094 17.902344 C 13.671875 18.042969 13.273438 18.132812 13.058594 18.175781 C 11.890625 18.40625 10.117188 18.851562 7.316406 19.617188 C 7.613281 20.011719 7.796875 20.574219 7.480469 21.101562 C 7.34375 21.328125 7.105469 21.484375 6.835938 21.519531 C 6.585938 21.554688 6.34375 21.480469 6.171875 21.316406 C 5.972656 21.136719 5.726562 20.761719 6.085938 20.199219 C 5.941406 20.140625 5.785156 20.101562 5.621094 20.085938 L 2.90625 20.847656 C 2.894531 20.851562 2.878906 20.851562 2.867188 20.855469 C 2.519531 20.980469 2.363281 21.589844 2.515625 22.171875 C 2.675781 22.769531 3.085938 23.226562 3.457031 23.128906 C 3.828125 23.035156 3.972656 22.433594 3.8125 21.839844 C 3.75 21.605469 3.699219 21.453125 3.582031 21.285156 C 3.582031 21.285156 3.835938 21.492188 3.957031 22.003906 C 4.058594 22.441406 4.042969 22.789062 3.917969 23.027344 C 8.6875 21.445312 11.9375 20.28125 13.566406 19.578125 C 13.757812 19.496094 14.195312 19.328125 14.859375 19.082031 C 14.859375 19.082031 14.925781 19.058594 14.976562 19.039062 C 15.128906 18.78125 15.160156 18.15625 14.84375 17.9375 C 14.769531 17.886719 14.660156 17.851562 14.566406 17.832031 Z M 14.566406 17.832031 "/>
</g>
</svg>
