<?xml version="1.0" encoding="UTF-8"?>
<svg xmlns="http://www.w3.org/2000/svg" xmlns:xlink="http://www.w3.org/1999/xlink" width="32px" height="32px" viewBox="0 0 32 32" version="1.1">
<g id="surface1">
<path style=" stroke:none;fill-rule:nonzero;fill:rgb(0%,19.607843%,47.058824%);fill-opacity:1;" d="M 31.914062 16.042969 C 31.914062 7.292969 24.820312 0.203125 16.074219 0.203125 C 7.324219 0.203125 0.234375 7.292969 0.234375 16.042969 C 0.234375 24.792969 7.324219 31.882812 16.074219 31.882812 C 24.820312 31.882812 31.914062 24.792969 31.914062 16.042969 Z M 31.914062 16.042969 "/>
<path style=" stroke:none;fill-rule:nonzero;fill:rgb(100%,100%,100%);fill-opacity:1;" d="M 16.027344 5.46875 C 10.324219 5.46875 5.703125 10.144531 5.703125 15.914062 C 5.703125 21.679688 10.324219 26.355469 16.027344 26.355469 C 21.628906 26.351562 26.203125 21.835938 26.34375 16.175781 L 31.070312 16.175781 L 31.070312 15.710938 L 26.347656 15.710938 C 26.238281 10.023438 21.652344 5.472656 16.027344 5.46875 Z M 5.703125 15.914062 L 5.703125 15.710938 L 0.929688 15.710938 L 0.929688 16.175781 L 5.703125 16.175781 Z M 5.703125 15.914062 "/>
<path style=" stroke:none;fill-rule:nonzero;fill:rgb(75.294118%,6.666667%,12.156863%);fill-opacity:1;" d="M 16.015625 0.867188 C 7.765625 0.867188 1.046875 7.507812 0.902344 15.722656 L 5.710938 15.726562 C 5.78125 13.167969 6.78125 10.632812 8.734375 8.679688 C 9.578125 7.835938 10.535156 7.179688 11.550781 6.6875 C 11.535156 6.6875 11.523438 6.6875 11.515625 6.6875 L 11.882812 6.523438 C 11.886719 6.523438 11.894531 6.523438 11.902344 6.523438 C 12.066406 6.449219 12.234375 6.382812 12.402344 6.316406 C 12.398438 6.316406 12.390625 6.316406 12.390625 6.316406 C 12.496094 6.273438 12.601562 6.238281 12.707031 6.203125 C 12.710938 6.203125 12.71875 6.207031 12.722656 6.207031 C 12.886719 6.148438 13.050781 6.089844 13.21875 6.042969 C 13.21875 6.042969 13.214844 6.042969 13.210938 6.042969 C 13.335938 6.007812 13.457031 5.976562 13.582031 5.945312 C 13.589844 5.945312 13.59375 5.949219 13.601562 5.949219 C 13.796875 5.902344 13.996094 5.855469 14.191406 5.816406 C 14.191406 5.816406 14.1875 5.816406 14.1875 5.816406 C 14.277344 5.800781 14.371094 5.78125 14.460938 5.765625 C 14.46875 5.769531 14.472656 5.773438 14.476562 5.777344 C 14.601562 5.757812 14.730469 5.738281 14.855469 5.722656 C 14.851562 5.71875 14.84375 5.71875 14.84375 5.71875 C 14.90625 5.710938 14.972656 5.703125 15.035156 5.695312 C 18.019531 5.402344 21.105469 6.394531 23.390625 8.679688 C 24.476562 9.765625 25.257812 11.039062 25.757812 12.390625 C 25.769531 12.402344 25.78125 12.414062 25.789062 12.425781 C 25.851562 12.597656 25.910156 12.769531 25.964844 12.945312 C 25.957031 12.929688 25.949219 12.917969 25.945312 12.902344 C 25.976562 13.011719 26 13.125 26.03125 13.234375 L 26.054688 13.261719 C 26.085938 13.371094 26.113281 13.480469 26.136719 13.589844 C 26.132812 13.578125 26.125 13.574219 26.117188 13.5625 C 26.285156 14.265625 26.390625 14.984375 26.410156 15.703125 L 31.125 15.703125 C 31.128906 15.796875 31.132812 15.890625 31.132812 15.984375 C 31.132812 7.648438 24.351562 0.867188 16.015625 0.867188 Z M 10.5 10.152344 L 10.5 13.984375 L 11.6875 13.984375 L 11.703125 13.828125 L 11.679688 13.902344 C 11.679688 12.269531 12.519531 11.542969 14.40625 11.542969 L 14.707031 11.542969 L 14.707031 14.640625 C 14.707031 15.171875 14.324219 15.472656 14.046875 15.632812 C 14.324219 15.773438 14.707031 16.054688 14.707031 16.585938 L 14.707031 19.902344 C 14.707031 20.332031 14.414062 20.589844 13.914062 20.589844 L 13.304688 20.589844 L 13.304688 22.082031 L 18.234375 22.082031 L 18.234375 20.589844 L 17.65625 20.589844 C 17.109375 20.589844 16.832031 20.371094 16.832031 19.933594 L 16.832031 16.585938 C 16.832031 16.058594 17.277344 15.769531 17.585938 15.625 C 17.28125 15.453125 16.832031 15.128906 16.832031 14.640625 L 16.832031 11.546875 L 16.976562 11.550781 L 17.101562 11.550781 C 18.929688 11.550781 19.980469 12.375 19.980469 13.820312 C 19.980469 13.820312 19.980469 13.902344 19.980469 13.984375 L 20.867188 13.984375 L 20.867188 10.152344 Z M 10.5 10.152344 "/>
<path style=" stroke:none;fill-rule:nonzero;fill:rgb(100%,100%,100%);fill-opacity:1;" d="M 15.535156 1.929688 L 14.636719 1.933594 L 14.921875 2.261719 C 14.921875 2.261719 15.421875 3.023438 15.507812 3.152344 C 15.484375 3.195312 15.386719 3.355469 15.386719 3.355469 C 15.386719 3.355469 15.527344 3.492188 15.574219 3.535156 C 15.523438 3.601562 14.875 4.457031 14.875 4.457031 C 14.875 4.457031 14.628906 4.691406 14.628906 4.691406 L 14.535156 4.78125 L 15.394531 4.769531 C 15.394531 4.769531 15.34375 4.546875 15.335938 4.507812 C 15.363281 4.476562 15.828125 3.871094 15.902344 3.777344 C 15.96875 3.878906 16.402344 4.523438 16.40625 4.527344 C 16.40625 4.527344 16.40625 4.527344 16.40625 4.53125 C 16.40625 4.566406 16.425781 4.738281 16.425781 4.738281 L 16.429688 4.78125 L 17.394531 4.78125 L 17.042969 4.4375 C 17.042969 4.433594 16.503906 3.636719 16.414062 3.503906 C 16.441406 3.464844 16.539062 3.308594 16.539062 3.308594 C 16.539062 3.308594 16.414062 3.171875 16.375 3.128906 C 16.421875 3.066406 17.027344 2.257812 17.027344 2.257812 L 17.304688 1.933594 L 16.4375 1.929688 L 16.46875 2 C 16.46875 2 16.535156 2.164062 16.554688 2.203125 C 16.523438 2.246094 16.097656 2.808594 16.027344 2.902344 C 15.960938 2.800781 15.5625 2.191406 15.558594 2.1875 C 15.558594 2.1875 15.558594 2.1875 15.558594 2.183594 C 15.558594 2.148438 15.539062 1.976562 15.539062 1.976562 Z M 10.640625 2.929688 L 10.59375 2.953125 L 8.871094 3.859375 L 9.179688 4.050781 C 9.179688 4.066406 9.511719 4.707031 9.5625 4.804688 C 9.550781 4.84375 9.433594 5.140625 9.433594 5.140625 C 9.433594 5.140625 9.753906 5.234375 9.789062 5.242188 C 9.808594 5.28125 10.179688 6.03125 10.179688 6.03125 C 10.175781 6.035156 10.175781 6.28125 10.175781 6.28125 L 10.171875 6.363281 L 11.917969 5.449219 L 11.65625 4.917969 C 11.65625 4.917969 11.363281 5.308594 11.363281 5.308594 C 11.363281 5.304688 10.804688 5.597656 10.6875 5.660156 C 10.648438 5.582031 10.304688 4.910156 10.265625 4.832031 C 10.339844 4.792969 10.742188 4.582031 10.742188 4.582031 C 10.742188 4.585938 10.992188 4.550781 10.992188 4.550781 L 11.0625 4.542969 L 10.804688 4.023438 C 10.804688 4.023438 10.570312 4.273438 10.570312 4.273438 C 10.570312 4.269531 10.207031 4.460938 10.097656 4.515625 C 10.058594 4.441406 9.792969 3.925781 9.753906 3.851562 C 9.832031 3.808594 10.460938 3.484375 10.460938 3.484375 C 10.460938 3.488281 10.84375 3.480469 10.84375 3.480469 L 10.921875 3.480469 Z M 21.953125 3.183594 L 21.929688 3.207031 C 21.929688 3.207031 21.046875 4.019531 21.046875 4.023438 C 21.042969 4.015625 20.710938 4.066406 20.710938 4.066406 L 20.667969 4.074219 C 20.667969 4.074219 20.671875 4.371094 20.671875 4.410156 C 20.636719 4.441406 19.976562 5.035156 19.976562 5.035156 C 19.984375 5.03125 19.738281 5.183594 19.738281 5.183594 L 19.660156 5.230469 L 20.355469 5.558594 C 20.355469 5.558594 20.363281 5.277344 20.363281 5.242188 C 20.386719 5.21875 20.644531 4.964844 20.6875 4.921875 C 20.742188 4.949219 21.46875 5.289062 21.527344 5.320312 C 21.523438 5.378906 21.484375 5.726562 21.480469 5.761719 C 21.453125 5.785156 21.238281 5.964844 21.238281 5.964844 L 22.15625 6.394531 C 22.15625 6.394531 22.082031 6.011719 22.082031 6.011719 C 22.085938 6.011719 22.207031 5.136719 22.207031 5.121094 C 22.214844 5.128906 22.464844 4.90625 22.464844 4.90625 L 22.5 4.875 C 22.5 4.875 22.246094 4.554688 22.246094 4.554688 C 22.257812 4.550781 22.3125 3.390625 22.3125 3.390625 L 22.3125 3.355469 Z M 21.664062 3.996094 C 21.640625 4.191406 21.570312 4.800781 21.558594 4.90625 C 21.464844 4.863281 21.082031 4.679688 20.980469 4.632812 C 21.066406 4.558594 21.519531 4.132812 21.664062 3.996094 Z M 6.082031 6.089844 L 6.050781 6.128906 L 4.585938 7.875 L 5.050781 8.257812 C 5.050781 8.257812 5.164062 7.8125 5.164062 7.8125 C 5.167969 7.8125 5.378906 7.5625 5.453125 7.476562 C 5.519531 7.53125 5.980469 7.910156 6.007812 7.933594 C 6.011719 7.96875 6.046875 8.269531 6.046875 8.269531 C 6.046875 8.269531 6.351562 8.257812 6.386719 8.257812 C 6.414062 8.28125 7.058594 8.820312 7.058594 8.820312 C 7.058594 8.832031 7.171875 9.070312 7.171875 9.070312 L 7.207031 9.144531 L 7.832031 8.398438 C 7.832031 8.398438 7.472656 8.339844 7.46875 8.339844 C 7.46875 8.332031 6.808594 7.773438 6.796875 7.765625 C 6.796875 7.765625 6.796875 7.761719 6.796875 7.757812 C 6.796875 7.714844 6.753906 7.46875 6.753906 7.46875 L 6.746094 7.421875 C 6.746094 7.421875 6.449219 7.453125 6.410156 7.457031 C 6.382812 7.429688 5.921875 7.042969 5.855469 6.988281 C 5.90625 6.929688 6.128906 6.660156 6.132812 6.65625 C 6.132812 6.660156 6.488281 6.503906 6.488281 6.503906 L 6.566406 6.46875 Z M 26.21875 6.585938 C 26.132812 6.585938 26.046875 6.605469 25.960938 6.640625 C 25.890625 6.671875 25.792969 6.722656 25.734375 6.8125 C 25.660156 6.917969 25.613281 7.058594 25.597656 7.210938 L 25.589844 7.320312 C 25.589844 7.3125 25.585938 7.367188 25.585938 7.375 C 25.578125 7.371094 25.429688 7.507812 25.429688 7.507812 L 25.402344 7.535156 C 25.402344 7.535156 25.582031 7.863281 25.582031 7.867188 L 25.582031 7.875 C 25.582031 7.9375 25.597656 8.25 25.597656 8.25 C 25.59375 8.390625 25.53125 8.53125 25.449219 8.582031 C 25.34375 8.652344 25.210938 8.671875 25.078125 8.636719 C 24.957031 8.605469 24.777344 8.515625 24.636719 8.253906 C 24.476562 7.910156 24.574219 7.65625 24.683594 7.503906 L 24.722656 7.453125 L 24.457031 7.335938 L 24.433594 7.367188 C 24.28125 7.550781 24.230469 7.980469 24.449219 8.40625 C 24.636719 8.78125 24.886719 9.027344 25.171875 9.113281 C 25.394531 9.183594 25.625 9.160156 25.839844 9.042969 C 25.945312 8.988281 26.035156 8.886719 26.074219 8.816406 C 26.152344 8.679688 26.175781 8.519531 26.175781 8.46875 L 26.179688 8.222656 C 26.179688 8.21875 26.171875 8.121094 26.167969 8.085938 C 26.195312 8.058594 26.339844 7.910156 26.339844 7.910156 C 26.339844 7.910156 26.175781 7.625 26.171875 7.617188 C 26.171875 7.617188 26.171875 7.609375 26.171875 7.601562 C 26.171875 7.585938 26.171875 7.550781 26.171875 7.542969 C 26.171875 7.324219 26.230469 7.175781 26.339844 7.128906 C 26.472656 7.074219 26.769531 7.078125 26.898438 7.359375 C 27.007812 7.597656 27.03125 7.75 26.980469 7.933594 L 26.96875 7.980469 L 27.222656 8.078125 L 27.238281 8.027344 C 27.324219 7.757812 27.1875 7.40625 27.097656 7.222656 C 26.925781 6.875 26.585938 6.578125 26.21875 6.585938 Z M 3.769531 10.941406 L 3.398438 12.085938 L 2.199219 12.085938 L 3.171875 12.789062 L 2.800781 13.929688 L 3.769531 13.226562 L 4.742188 13.929688 L 4.371094 12.789062 L 5.339844 12.085938 L 4.140625 12.085938 Z M 28.160156 10.941406 L 27.789062 12.085938 L 26.589844 12.085938 L 27.5625 12.789062 L 27.191406 13.929688 L 28.160156 13.226562 L 29.132812 13.929688 L 28.761719 12.789062 L 29.734375 12.085938 L 28.53125 12.085938 Z M 5.035156 18.363281 L 4.976562 18.417969 C 4.976562 18.417969 4.777344 18.613281 4.773438 18.613281 C 4.773438 18.613281 4.53125 18.699219 4.53125 18.699219 C 4.53125 18.699219 4.046875 18.871094 4.042969 18.875 C 4.042969 18.863281 3.75 18.738281 3.75 18.738281 L 3.707031 18.722656 C 3.707031 18.722656 3.5625 19.039062 3.546875 19.074219 C 3.511719 19.089844 2.738281 19.371094 2.734375 19.371094 C 2.734375 19.367188 2.472656 19.355469 2.472656 19.355469 L 2.394531 19.347656 L 2.722656 20.261719 C 2.722656 20.261719 2.976562 19.992188 2.980469 19.992188 C 2.984375 19.996094 3.632812 19.753906 3.8125 19.6875 C 3.820312 19.707031 3.859375 19.820312 3.875 19.859375 C 3.835938 19.898438 2.945312 20.882812 2.945312 20.882812 L 3.207031 21.621094 C 3.207031 21.621094 3.433594 21.269531 3.441406 21.261719 C 3.457031 21.246094 4.195312 20.472656 4.25 20.414062 C 4.480469 20.679688 4.800781 20.800781 5.070312 20.703125 C 5.25 20.636719 5.375 20.507812 5.445312 20.324219 C 5.542969 20.070312 5.527344 19.707031 5.398438 19.355469 Z M 27.277344 18.816406 L 27.210938 18.851562 C 27.019531 18.949219 26.855469 19.195312 26.738281 19.535156 C 26.585938 19.996094 26.679688 20.582031 27.148438 20.765625 C 27.222656 20.796875 27.332031 20.828125 27.4375 20.808594 C 27.570312 20.78125 27.703125 20.710938 27.824219 20.613281 C 27.824219 20.613281 27.902344 20.542969 27.902344 20.542969 C 27.898438 20.546875 27.933594 20.519531 27.9375 20.515625 C 27.9375 20.523438 28.148438 20.527344 28.148438 20.527344 L 28.1875 20.527344 C 28.1875 20.527344 28.292969 20.160156 28.292969 20.15625 C 28.296875 20.160156 28.546875 19.878906 28.546875 19.878906 C 28.640625 19.789062 28.777344 19.734375 28.863281 19.753906 C 29.007812 19.796875 29.105469 19.882812 29.164062 20 C 29.242188 20.144531 29.25 20.328125 29.191406 20.527344 C 29.070312 20.867188 28.832031 20.976562 28.652344 21.003906 L 28.59375 21.015625 L 28.585938 21.078125 L 28.6875 21.332031 L 28.738281 21.328125 C 28.949219 21.304688 29.316406 21.054688 29.472656 20.5625 C 29.59375 20.1875 29.59375 19.851562 29.480469 19.589844 C 29.375 19.359375 29.179688 19.1875 28.921875 19.113281 C 28.808594 19.078125 28.671875 19.085938 28.585938 19.105469 C 28.441406 19.144531 28.316406 19.238281 28.261719 19.285156 C 28.261719 19.289062 28.089844 19.457031 28.089844 19.457031 C 28.085938 19.460938 28.027344 19.53125 28.007812 19.554688 C 27.972656 19.554688 27.753906 19.558594 27.753906 19.558594 C 27.753906 19.558594 27.671875 19.882812 27.667969 19.898438 C 27.664062 19.898438 27.636719 19.925781 27.636719 19.925781 C 27.441406 20.132812 27.3125 20.132812 27.253906 20.117188 C 27.128906 20.066406 26.914062 19.871094 27.015625 19.585938 C 27.101562 19.347656 27.191406 19.226562 27.347656 19.140625 L 27.386719 19.117188 L 27.386719 19.0625 Z M 4.980469 19.269531 C 5.003906 19.332031 5.050781 19.476562 5.050781 19.476562 C 5.074219 19.539062 5.085938 19.601562 5.085938 19.65625 C 5.085938 19.703125 5.078125 19.742188 5.0625 19.785156 C 5.027344 19.882812 4.941406 19.960938 4.824219 20.003906 C 4.691406 20.050781 4.550781 20.042969 4.445312 19.984375 C 4.359375 19.941406 4.300781 19.867188 4.265625 19.777344 C 4.265625 19.777344 4.207031 19.617188 4.179688 19.539062 C 4.261719 19.511719 4.898438 19.296875 4.980469 19.269531 Z M 25.472656 22.96875 C 25.425781 22.964844 25.378906 22.96875 25.328125 22.976562 C 25.058594 23.015625 24.753906 23.210938 24.511719 23.496094 L 23.828125 24.296875 C 23.828125 24.296875 24.179688 24.402344 24.179688 24.402344 C 24.179688 24.410156 24.753906 24.910156 24.757812 24.914062 C 24.757812 24.914062 24.757812 24.921875 24.757812 24.933594 C 24.757812 24.996094 24.785156 25.234375 24.785156 25.234375 L 24.789062 25.285156 C 24.789062 25.285156 25.140625 25.253906 25.175781 25.25 C 25.207031 25.277344 25.832031 25.8125 25.832031 25.8125 C 25.832031 25.820312 25.945312 26.050781 25.945312 26.050781 L 25.980469 26.121094 L 26.613281 25.386719 L 26.253906 25.296875 C 26.253906 25.289062 25.722656 24.839844 25.578125 24.714844 C 25.601562 24.6875 25.671875 24.605469 25.695312 24.578125 C 25.753906 24.589844 27.042969 24.886719 27.042969 24.886719 L 27.554688 24.296875 C 27.554688 24.296875 27.136719 24.269531 27.128906 24.265625 C 27.121094 24.265625 26.078125 24 25.996094 23.976562 C 26.035156 23.867188 26.066406 23.753906 26.066406 23.652344 C 26.066406 23.4375 25.988281 23.246094 25.84375 23.121094 C 25.734375 23.027344 25.609375 22.976562 25.472656 22.96875 Z M 7.496094 23.242188 L 7.449219 23.257812 C 7.449219 23.257812 6.378906 23.628906 6.375 23.632812 C 6.375 23.625 6.058594 23.546875 6.058594 23.546875 L 6.015625 23.535156 C 6.015625 23.535156 5.890625 23.804688 5.871094 23.839844 C 5.832031 23.851562 4.976562 24.140625 4.976562 24.140625 C 4.976562 24.140625 4.984375 24.144531 4.984375 24.144531 C 4.941406 24.144531 4.867188 24.15625 4.707031 24.179688 C 4.707031 24.179688 4.578125 24.203125 4.578125 24.203125 L 5.128906 24.828125 C 5.128906 24.828125 5.253906 24.558594 5.269531 24.527344 C 5.300781 24.515625 5.613281 24.390625 5.664062 24.371094 C 5.703125 24.417969 6.207031 24.988281 6.246094 25.03125 C 6.21875 25.082031 6.054688 25.367188 6.039062 25.390625 C 6.007812 25.402344 5.71875 25.492188 5.71875 25.492188 L 6.433594 26.304688 C 6.433594 26.304688 6.523438 25.890625 6.523438 25.886719 C 6.523438 25.894531 6.707031 25.589844 6.707031 25.589844 C 6.707031 25.589844 7 25.105469 7 25.101562 C 7.003906 25.113281 7.285156 25 7.285156 25 L 7.324219 24.988281 C 7.324219 24.988281 7.265625 24.597656 7.265625 24.597656 C 7.273438 24.597656 7.761719 23.59375 7.761719 23.59375 L 7.777344 23.5625 Z M 25.125 23.574219 C 25.207031 23.582031 25.285156 23.617188 25.355469 23.679688 C 25.464844 23.769531 25.523438 23.894531 25.527344 24.019531 L 25.527344 24.027344 C 25.527344 24.117188 25.496094 24.203125 25.433594 24.277344 C 25.433594 24.277344 25.324219 24.40625 25.273438 24.46875 C 25.207031 24.410156 24.707031 23.957031 24.644531 23.902344 C 24.6875 23.851562 24.785156 23.738281 24.785156 23.738281 C 24.867188 23.644531 24.953125 23.589844 25.046875 23.574219 C 25.074219 23.570312 25.101562 23.570312 25.125 23.574219 Z M 6.855469 23.9375 C 6.761719 24.097656 6.507812 24.542969 6.457031 24.628906 C 6.390625 24.554688 6.15625 24.289062 6.085938 24.210938 C 6.191406 24.171875 6.679688 24 6.855469 23.9375 Z M 12.234375 25.496094 C 12.136719 25.515625 12.046875 25.519531 11.957031 25.515625 C 12.152344 25.601562 12.347656 25.675781 12.546875 25.746094 C 12.445312 25.6875 12.347656 25.617188 12.234375 25.496094 Z M 10.226562 25.613281 L 10.230469 25.699219 C 10.230469 25.699219 10.253906 26.027344 10.253906 26.027344 C 10.25 26.019531 10.0625 26.402344 10.0625 26.402344 C 10.0625 26.402344 9.945312 26.640625 9.929688 26.675781 C 9.894531 26.6875 9.59375 26.804688 9.59375 26.804688 C 9.59375 26.804688 9.691406 27.167969 9.691406 27.171875 C 9.679688 27.171875 9.4375 27.664062 9.4375 27.664062 C 9.4375 27.664062 9.292969 27.949219 9.292969 27.953125 C 9.289062 27.949219 9.070312 28.109375 9.070312 28.109375 L 9.003906 28.15625 L 9.800781 28.554688 C 9.800781 28.554688 9.753906 28.152344 9.753906 28.148438 C 9.757812 28.148438 10.257812 27.144531 10.4375 26.785156 C 10.484375 27.050781 10.835938 29.070312 10.835938 29.070312 L 11.160156 29.234375 C 11.160156 29.234375 11.695312 28.148438 11.695312 28.144531 C 11.699219 28.152344 11.96875 28.027344 11.96875 28.027344 L 12.007812 28.011719 C 12.007812 28.011719 11.925781 27.675781 11.925781 27.671875 C 11.9375 27.671875 12.136719 27.257812 12.136719 27.257812 C 12.136719 27.257812 12.269531 26.984375 12.273438 26.984375 C 12.277344 26.984375 12.484375 26.820312 12.484375 26.820312 L 12.546875 26.769531 L 11.777344 26.378906 C 11.777344 26.378906 11.8125 26.773438 11.8125 26.777344 C 11.804688 26.773438 11.445312 27.503906 11.445312 27.503906 C 11.445312 27.503906 11.34375 27.71875 11.269531 27.863281 C 11.222656 27.605469 10.925781 25.957031 10.925781 25.957031 Z M 21.835938 25.808594 L 21.765625 25.835938 L 19.96875 26.617188 L 20.285156 26.847656 C 20.285156 26.863281 20.574219 27.542969 20.601562 27.605469 C 20.585938 27.640625 20.445312 27.9375 20.445312 27.9375 C 20.445312 27.9375 20.765625 28.054688 20.800781 28.066406 C 20.816406 28.105469 21.121094 28.855469 21.121094 28.859375 C 21.117188 28.859375 21.097656 29.132812 21.097656 29.132812 L 21.089844 29.214844 L 22.929688 28.414062 L 22.691406 27.859375 C 22.691406 27.859375 22.355469 28.246094 22.355469 28.246094 C 22.355469 28.242188 21.929688 28.429688 21.929688 28.429688 C 21.929688 28.429688 21.761719 28.5 21.699219 28.53125 C 21.675781 28.480469 21.378906 27.773438 21.347656 27.691406 C 21.421875 27.65625 21.804688 27.492188 21.804688 27.492188 C 21.804688 27.492188 22.085938 27.476562 22.085938 27.476562 L 22.15625 27.472656 L 21.910156 26.882812 L 21.644531 27.132812 C 21.644531 27.128906 21.199219 27.324219 21.199219 27.324219 C 21.199219 27.324219 21.191406 27.324219 21.191406 27.324219 C 21.15625 27.25 20.929688 26.722656 20.898438 26.644531 C 20.96875 26.617188 21.554688 26.363281 21.578125 26.351562 C 21.605469 26.355469 22.074219 26.378906 22.074219 26.378906 L 21.835938 25.804688 Z M 16.460938 27.242188 C 15.761719 27.234375 15.121094 27.667969 14.910156 28.289062 C 14.910156 28.292969 14.875 28.417969 14.875 28.421875 C 14.871094 28.414062 14.671875 28.625 14.671875 28.625 L 14.640625 28.65625 L 14.863281 28.949219 C 14.984375 29.648438 15.660156 30.183594 16.429688 30.1875 C 16.972656 30.195312 17.128906 30.117188 17.3125 30.023438 L 17.421875 29.96875 C 17.421875 29.96875 17.425781 28.984375 17.425781 28.980469 C 17.433594 28.980469 17.566406 28.742188 17.566406 28.742188 L 17.609375 28.667969 L 16.585938 28.660156 C 16.585938 28.660156 16.761719 28.992188 16.761719 28.996094 C 16.757812 28.996094 16.753906 29.25 16.753906 29.25 L 16.753906 29.738281 C 16.699219 29.753906 16.632812 29.808594 16.433594 29.804688 C 15.945312 29.800781 15.660156 29.367188 15.59375 28.933594 C 15.597656 28.933594 15.8125 28.71875 15.8125 28.71875 L 15.84375 28.683594 C 15.84375 28.683594 15.644531 28.449219 15.617188 28.417969 C 15.621094 28.40625 15.632812 28.332031 15.632812 28.332031 C 15.730469 27.988281 16.003906 27.617188 16.464844 27.628906 C 16.796875 27.636719 17.042969 27.71875 17.160156 27.855469 C 17.160156 27.855469 17.203125 27.90625 17.203125 27.90625 L 17.289062 28.011719 L 17.304688 27.484375 L 17.269531 27.464844 C 17.03125 27.300781 16.828125 27.246094 16.460938 27.242188 Z M 16.460938 27.242188 "/>
<path style=" stroke:none;fill-rule:nonzero;fill:rgb(0%,19.607843%,47.058824%);fill-opacity:1;" d="M 15.070312 5.691406 C 15.058594 5.691406 15.050781 5.695312 15.035156 5.695312 C 14.972656 5.703125 14.90625 5.710938 14.84375 5.714844 C 14.847656 5.71875 14.851562 5.71875 14.855469 5.722656 C 14.933594 5.753906 15.171875 5.84375 15.203125 5.902344 L 15.324219 5.882812 C 15.324219 5.882812 15.175781 5.765625 15.070312 5.691406 Z M 14.460938 5.765625 C 14.371094 5.78125 14.277344 5.796875 14.1875 5.816406 C 14.191406 5.816406 14.191406 5.816406 14.191406 5.816406 C 14.359375 5.863281 14.515625 5.960938 14.6875 6.042969 L 14.851562 6.027344 C 14.851562 6.027344 14.699219 5.898438 14.476562 5.777344 C 14.472656 5.773438 14.46875 5.769531 14.460938 5.765625 Z M 13.582031 5.945312 C 13.457031 5.972656 13.335938 6.007812 13.210938 6.042969 C 13.214844 6.042969 13.21875 6.042969 13.21875 6.042969 C 13.300781 6.058594 13.457031 6.089844 13.519531 6.15625 C 13.703125 6.125 13.828125 6.21875 13.945312 6.277344 L 14.222656 6.1875 C 14.222656 6.1875 13.863281 6.011719 13.734375 6.011719 C 13.679688 5.984375 13.640625 5.960938 13.601562 5.949219 C 13.59375 5.949219 13.589844 5.945312 13.582031 5.945312 Z M 12.707031 6.203125 C 12.601562 6.238281 12.496094 6.273438 12.390625 6.316406 C 12.390625 6.316406 12.398438 6.316406 12.402344 6.316406 C 12.457031 6.328125 12.625 6.371094 12.714844 6.449219 C 12.90625 6.414062 13.097656 6.511719 13.234375 6.597656 L 13.511719 6.5 C 13.480469 6.449219 13.125 6.292969 12.921875 6.289062 C 12.855469 6.238281 12.785156 6.21875 12.722656 6.207031 C 12.71875 6.203125 12.710938 6.203125 12.707031 6.203125 Z M 12.058594 6.519531 C 12.007812 6.515625 11.949219 6.523438 11.902344 6.523438 C 11.894531 6.523438 11.886719 6.523438 11.882812 6.523438 L 11.515625 6.6875 C 11.523438 6.6875 11.535156 6.6875 11.550781 6.6875 C 11.652344 6.675781 11.917969 6.640625 11.953125 6.71875 C 12.160156 6.695312 12.382812 6.824219 12.515625 6.910156 L 12.8125 6.832031 C 12.652344 6.6875 12.363281 6.574219 12.195312 6.585938 C 12.164062 6.535156 12.113281 6.519531 12.058594 6.519531 Z M 11.214844 6.945312 L 10.859375 7.136719 C 10.90625 7.140625 11.207031 7.144531 11.246094 7.234375 C 11.453125 7.214844 11.679688 7.289062 11.808594 7.371094 L 12.070312 7.171875 C 11.867188 7.0625 11.546875 7.003906 11.382812 7.011719 C 11.300781 6.984375 11.3125 6.957031 11.214844 6.945312 Z M 10.324219 7.5 L 10.074219 7.707031 C 10.195312 7.742188 10.234375 7.84375 10.304688 7.945312 C 10.546875 7.898438 10.902344 7.804688 11.246094 7.882812 L 11.507812 7.652344 C 11.117188 7.582031 10.703125 7.601562 10.492188 7.65625 C 10.441406 7.578125 10.324219 7.5 10.324219 7.5 Z M 9.585938 8.265625 L 9.378906 8.453125 C 9.5 8.488281 9.535156 8.625 9.609375 8.722656 C 9.808594 8.625 10.25 8.554688 10.695312 8.613281 L 10.921875 8.316406 C 10.25 8.269531 9.972656 8.355469 9.761719 8.457031 C 9.691406 8.335938 9.585938 8.265625 9.585938 8.265625 Z M 8.953125 9.046875 L 8.792969 9.304688 C 8.941406 9.382812 8.925781 9.480469 9 9.582031 C 9.199219 9.480469 9.609375 9.289062 10.054688 9.351562 L 10.28125 9.054688 C 9.585938 9.070312 9.203125 9.132812 9.152344 9.292969 C 9.082031 9.171875 8.953125 9.046875 8.953125 9.046875 Z M 8.402344 9.808594 L 8.28125 10.101562 C 8.386719 10.179688 8.453125 10.378906 8.527344 10.480469 C 8.726562 10.378906 8.984375 10.179688 9.429688 10.246094 L 9.640625 9.902344 C 9.074219 9.902344 8.710938 10.019531 8.660156 10.179688 C 8.589844 10.011719 8.402344 9.808594 8.402344 9.808594 Z M 21.144531 9.890625 L 21.144531 14.261719 L 19.71875 14.261719 L 20.542969 15.042969 L 21.894531 15.042969 L 21.894531 10.589844 Z M 7.953125 10.621094 L 7.832031 10.945312 C 7.984375 11.027344 8.007812 11.222656 8.078125 11.320312 C 8.28125 11.222656 8.582031 11.039062 9.027344 11.097656 L 9.214844 10.757812 C 8.667969 10.757812 8.292969 10.875 8.242188 11.039062 C 8.15625 10.8125 7.953125 10.621094 7.953125 10.621094 Z M 7.511719 11.617188 L 7.414062 11.949219 C 7.5625 12.035156 7.628906 12.234375 7.703125 12.335938 C 7.902344 12.234375 8.148438 12.066406 8.59375 12.128906 L 8.738281 11.804688 C 8.058594 11.847656 7.882812 11.90625 7.832031 12.066406 C 7.730469 11.867188 7.511719 11.617188 7.511719 11.617188 Z M 14.40625 11.820312 C 12.667969 11.820312 11.957031 12.425781 11.957031 13.921875 L 11.953125 14.261719 L 10.234375 14.261719 L 11.019531 14.996094 L 12.652344 14.996094 L 12.65625 14.722656 C 12.65625 13.1875 12.804688 12.222656 14.429688 12.0625 L 14.429688 11.820312 Z M 17.109375 11.828125 L 17.109375 14.640625 C 17.109375 15.167969 17.957031 15.503906 17.964844 15.507812 L 18.316406 15.644531 C 18.097656 15.476562 17.894531 15.246094 17.894531 14.953125 L 17.894531 12.109375 L 18.027344 12.117188 C 18.550781 12.160156 18.925781 12.300781 19.195312 12.5 C 18.761719 12.070312 18.0625 11.832031 17.109375 11.828125 Z M 25.617188 12.238281 L 25.574219 12.378906 C 25.707031 12.523438 25.835938 12.679688 25.941406 12.902344 C 25.949219 12.917969 25.957031 12.929688 25.964844 12.945312 C 25.910156 12.769531 25.851562 12.597656 25.789062 12.425781 C 25.78125 12.414062 25.769531 12.402344 25.757812 12.390625 C 25.722656 12.347656 25.679688 12.300781 25.617188 12.238281 Z M 7.105469 12.5625 L 7.039062 12.894531 C 7.1875 12.976562 7.253906 13.175781 7.328125 13.277344 C 7.527344 13.175781 7.859375 12.992188 8.304688 13.054688 L 8.417969 12.722656 C 7.761719 12.761719 7.476562 12.824219 7.425781 12.988281 C 7.351562 12.867188 7.105469 12.5625 7.105469 12.5625 Z M 25.445312 12.644531 L 25.394531 12.796875 C 25.585938 12.957031 25.710938 13.09375 25.832031 13.378906 L 25.902344 13.230469 C 25.78125 12.984375 25.714844 12.917969 25.445312 12.644531 Z M 25.242188 13.085938 L 25.148438 13.234375 C 25.40625 13.460938 25.515625 13.585938 25.636719 13.917969 L 25.695312 13.792969 L 25.6875 13.8125 C 25.828125 13.929688 25.992188 14.121094 26.089844 14.640625 L 26.164062 14.34375 C 26.132812 13.96875 25.785156 13.550781 25.734375 13.683594 L 25.714844 13.742188 C 25.59375 13.5 25.515625 13.332031 25.242188 13.085938 Z M 25.953125 13.148438 L 25.882812 13.304688 C 25.960938 13.359375 26.039062 13.441406 26.117188 13.5625 C 26.125 13.574219 26.132812 13.578125 26.136719 13.589844 C 26.113281 13.480469 26.085938 13.371094 26.054688 13.261719 L 26.03125 13.234375 Z M 24.964844 13.546875 L 24.835938 13.714844 C 25.027344 13.832031 25.226562 14.121094 25.347656 14.40625 L 25.410156 14.304688 C 25.515625 14.398438 25.703125 14.535156 25.828125 15.25 L 25.921875 15 C 25.816406 14.320312 25.5 14.066406 25.476562 14.21875 L 25.433594 14.273438 L 25.464844 14.21875 C 25.34375 13.972656 25.195312 13.707031 24.964844 13.546875 Z M 6.804688 13.550781 L 6.734375 13.90625 C 6.882812 14.046875 6.992188 14.300781 7.066406 14.402344 C 7.265625 14.300781 7.578125 14.023438 8.023438 14.085938 L 8.089844 13.785156 C 7.445312 13.835938 7.339844 13.90625 7.183594 14.101562 C 7.113281 13.976562 6.804688 13.550781 6.804688 13.550781 Z M 24.582031 14.054688 L 24.421875 14.222656 C 24.613281 14.339844 24.902344 14.652344 25.023438 14.941406 L 25.136719 14.769531 C 25.015625 14.527344 24.816406 14.214844 24.582031 14.054688 Z M 24.082031 14.582031 L 23.902344 14.730469 C 24.035156 14.816406 24.496094 15.207031 24.613281 15.496094 L 24.753906 15.304688 C 24.632812 15.058594 24.324219 14.746094 24.082031 14.582031 Z M 6.515625 14.65625 L 6.464844 15 C 6.726562 15.226562 6.835938 15.445312 6.914062 15.539062 C 7 15.367188 7.328125 15.207031 7.773438 15.242188 L 7.828125 14.917969 C 7.300781 14.949219 7.058594 15.035156 6.988281 15.1875 C 6.914062 15.066406 6.515625 14.65625 6.515625 14.65625 Z M 25.21875 14.675781 C 25.210938 14.675781 25.203125 14.679688 25.195312 14.6875 L 25.113281 14.828125 C 25.34375 15.117188 25.429688 15.445312 25.457031 15.886719 L 25.617188 15.640625 C 25.613281 15.207031 25.347656 14.65625 25.21875 14.675781 Z M 24.914062 15.113281 L 24.753906 15.324219 C 24.859375 15.679688 24.925781 16.277344 24.867188 16.625 L 25.078125 16.351562 C 25.113281 15.957031 24.988281 15.464844 24.914062 15.113281 Z M 23.5 15.136719 L 23.308594 15.308594 C 23.5 15.421875 23.898438 15.789062 24.019531 16.078125 L 24.175781 15.910156 C 24.054688 15.667969 23.734375 15.296875 23.5 15.136719 Z M 18.339844 15.664062 L 17.953125 15.773438 C 17.945312 15.773438 17.109375 16.015625 17.109375 16.585938 L 17.109375 19.933594 C 17.109375 20.160156 17.203125 20.3125 17.65625 20.3125 L 17.894531 20.3125 C 17.894531 20.289062 17.894531 20.269531 17.894531 20.246094 L 17.894531 19.230469 C 18.128906 19.4375 18.378906 19.609375 18.566406 19.628906 L 18.648438 19.582031 C 18.652344 19.988281 18.617188 20.230469 18.714844 20.515625 L 18.515625 20.328125 L 18.515625 22.359375 L 13.042969 22.359375 L 13.902344 23.171875 L 14.273438 23.171875 C 14.328125 23.261719 14.394531 23.332031 14.472656 23.355469 L 14.648438 23.171875 L 19.175781 23.171875 L 19.175781 20.945312 L 18.851562 20.640625 L 19.109375 20.53125 C 18.917969 20.328125 18.925781 19.726562 18.945312 19.402344 L 18.855469 19.457031 C 18.492188 19.394531 18.097656 19.035156 17.917969 18.789062 L 17.894531 18.796875 L 17.894531 16.898438 C 17.894531 16.214844 18.84375 15.953125 18.84375 15.953125 C 18.84375 15.953125 18.585938 15.851562 18.339844 15.664062 Z M 22.957031 15.675781 L 22.761719 15.847656 C 22.957031 15.960938 23.351562 16.332031 23.472656 16.617188 L 23.597656 16.480469 C 23.636719 16.941406 23.636719 17.457031 23.582031 17.699219 L 23.820312 17.511719 C 23.859375 17.09375 23.832031 16.617188 23.757812 16.265625 L 23.589844 16.386719 C 23.453125 16.148438 23.171875 15.824219 22.957031 15.675781 Z M 24.367188 15.742188 L 24.1875 15.921875 C 24.246094 16.078125 24.292969 16.265625 24.246094 17.195312 L 24.472656 16.984375 C 24.480469 16.285156 24.441406 16.09375 24.367188 15.742188 Z M 6.339844 15.828125 L 6.316406 16.160156 C 6.449219 16.21875 6.691406 16.625 6.761719 16.726562 C 6.78125 16.707031 6.800781 16.644531 6.84375 16.589844 C 6.925781 16.496094 7.152344 16.359375 7.644531 16.378906 L 7.675781 16.074219 C 7.105469 16.082031 6.925781 16.21875 6.875 16.277344 C 6.832031 16.316406 6.8125 16.390625 6.800781 16.433594 C 6.714844 16.203125 6.339844 15.828125 6.339844 15.828125 Z M 22.316406 16.195312 L 22.117188 16.347656 C 22.199219 16.371094 22.425781 16.597656 22.746094 17.074219 L 22.9375 16.914062 C 22.964844 17.445312 23.007812 17.945312 22.949219 18.1875 L 23.179688 18.007812 C 23.226562 17.621094 23.214844 17.171875 23.160156 16.761719 L 22.945312 16.898438 C 22.664062 16.488281 22.476562 16.304688 22.316406 16.195312 Z M 21.46875 16.84375 L 21.195312 17.011719 C 21.316406 17.105469 21.875 17.75 22.136719 17.652344 C 22.136719 17.652344 22.019531 18.445312 22.039062 18.859375 L 22.335938 18.667969 C 22.328125 18.449219 22.34375 17.539062 22.394531 17.324219 C 22.40625 17.3125 22.226562 17.496094 22.15625 17.445312 C 22.039062 17.363281 21.835938 17.25 21.46875 16.84375 Z M 6.261719 16.871094 L 6.269531 17.238281 C 6.414062 17.324219 6.644531 17.558594 6.710938 17.660156 C 6.804688 17.503906 6.910156 17.425781 7.574219 17.566406 L 7.578125 17.25 C 6.792969 17.210938 6.804688 17.28125 6.78125 17.382812 C 6.710938 17.257812 6.261719 16.871094 6.261719 16.871094 Z M 20.453125 17.382812 L 20.078125 17.585938 C 20.292969 17.808594 21 18.367188 21.144531 18.371094 L 21.164062 18.359375 C 21.167969 18.828125 21.105469 19.074219 21.289062 19.4375 L 21.625 19.296875 C 21.429688 19.09375 21.441406 18.488281 21.457031 18.164062 L 21.445312 18.144531 C 21.328125 18.1875 21.175781 18.152344 21.039062 18.035156 C 20.902344 17.917969 20.453125 17.382812 20.453125 17.382812 Z M 6.261719 17.957031 L 6.28125 18.285156 C 6.453125 18.324219 6.667969 18.433594 6.742188 18.53125 C 6.941406 18.429688 7.222656 18.441406 7.578125 18.628906 L 7.566406 18.304688 C 7.140625 18.109375 6.917969 18.144531 6.761719 18.238281 C 6.691406 18.113281 6.261719 17.957031 6.261719 17.957031 Z M 19.160156 18.175781 L 18.820312 18.316406 C 19.128906 18.636719 19.535156 18.988281 19.8125 19.019531 L 19.894531 18.972656 C 19.898438 19.453125 19.835938 19.695312 20.015625 20.0625 L 20.355469 19.921875 C 20.160156 19.71875 20.167969 19.117188 20.1875 18.792969 L 20.097656 18.84375 C 19.734375 18.785156 19.34375 18.425781 19.160156 18.175781 Z M 6.335938 18.832031 L 6.421875 19.195312 C 6.617188 19.246094 6.742188 19.335938 6.816406 19.4375 C 6.855469 19.335938 6.976562 19.394531 7.140625 19.464844 C 7.285156 19.53125 7.390625 19.605469 7.554688 19.699219 L 7.546875 19.371094 C 7.1875 19.136719 6.832031 18.960938 6.78125 19.121094 C 6.710938 19 6.335938 18.832031 6.335938 18.832031 Z M 6.503906 19.667969 L 6.550781 20 C 6.707031 20.066406 6.828125 20.152344 6.902344 20.265625 C 7.070312 20.242188 7.222656 20.308594 7.589844 20.570312 L 7.5625 20.261719 C 7.1875 19.949219 7.003906 19.964844 6.871094 19.964844 C 6.800781 19.832031 6.503906 19.667969 6.503906 19.667969 Z M 13.023438 22.15625 L 12.917969 22.269531 C 12.949219 22.285156 12.988281 22.304688 13.023438 22.320312 Z M 12.535156 22.792969 L 12.386719 23.015625 C 12.75 23.207031 13.101562 23.21875 13.421875 23.21875 L 13.441406 23.195312 C 13.574219 23.488281 13.699219 23.789062 14.023438 23.910156 L 14.203125 23.699219 C 13.96875 23.605469 13.660156 23.203125 13.601562 22.957031 L 13.582031 22.988281 C 13.21875 23.054688 12.792969 22.871094 12.535156 22.792969 Z M 12.105469 23.4375 L 11.972656 23.675781 C 12.332031 23.785156 12.648438 23.804688 13.050781 23.757812 L 13.070312 23.722656 C 13.21875 23.992188 13.253906 24.148438 13.632812 24.371094 L 13.816406 24.160156 C 13.578125 24.066406 13.289062 23.683594 13.230469 23.4375 L 13.191406 23.503906 C 12.816406 23.597656 12.363281 23.515625 12.105469 23.4375 Z M 11.777344 24.113281 L 11.667969 24.359375 C 12.0625 24.492188 12.425781 24.523438 12.691406 24.464844 C 12.824219 24.6875 12.972656 24.898438 13.296875 25.019531 L 13.414062 24.808594 C 13.144531 24.699219 12.898438 24.558594 12.808594 24.230469 C 12.433594 24.324219 12.035156 24.1875 11.777344 24.113281 Z M 11.566406 24.679688 L 11.496094 24.902344 C 11.859375 25.089844 12.207031 25.058594 12.472656 25.003906 C 12.617188 25.210938 12.738281 25.324219 13.0625 25.445312 L 13.175781 25.277344 C 12.835938 25.238281 12.699219 25.0625 12.542969 24.828125 C 12.171875 24.925781 11.824219 24.757812 11.566406 24.679688 Z M 11.566406 24.679688 "/>
</g>
</svg>
