<?xml version="1.0" encoding="UTF-8"?>
<svg xmlns="http://www.w3.org/2000/svg" xmlns:xlink="http://www.w3.org/1999/xlink" width="32px" height="32px" viewBox="0 0 32 32" version="1.1">
<g id="surface1">
<path style=" stroke:none;fill-rule:evenodd;fill:rgb(67.058824%,0%,1.176471%);fill-opacity:1;" d="M 16 0 C 7.164062 0 0 7.164062 0 16 C 0 24.835938 7.164062 32 16 32 C 24.835938 32 32 24.835938 32 16 C 32 7.164062 24.835938 0 16 0 "/>
<path style=" stroke:none;fill-rule:evenodd;fill:rgb(7.843137%,14.901961%,29.411765%);fill-opacity:1;" d="M 16 0.890625 C 7.652344 0.890625 0.886719 7.65625 0.886719 16 C 0.886719 24.347656 7.652344 31.113281 16 31.113281 C 24.347656 31.113281 31.113281 24.347656 31.113281 16 C 31.113281 7.65625 24.347656 0.890625 16 0.890625 "/>
<path style=" stroke:none;fill-rule:evenodd;fill:rgb(67.058824%,0%,1.176471%);fill-opacity:1;" d="M 16 5.128906 C 9.996094 5.128906 5.128906 9.996094 5.128906 16 C 5.128906 22.003906 9.996094 26.871094 16 26.871094 C 22.003906 26.871094 26.871094 22.003906 26.871094 16 C 26.871094 9.996094 22.003906 5.128906 16 5.128906 "/>
<path style=" stroke:none;fill-rule:evenodd;fill:rgb(7.843137%,14.901961%,29.411765%);fill-opacity:1;" d="M 16 5.761719 C 10.34375 5.761719 5.761719 10.347656 5.761719 16 C 5.761719 21.65625 10.34375 26.242188 16 26.242188 C 21.65625 26.242188 26.238281 21.65625 26.238281 16 C 26.238281 10.347656 21.65625 5.761719 16 5.761719 "/>
<path style=" stroke:none;fill-rule:evenodd;fill:rgb(100%,100%,100%);fill-opacity:1;" d="M 16.042969 1.59375 L 15.832031 4.296875 L 16.335938 4.335938 L 16.457031 2.769531 L 17.863281 4.488281 L 17.988281 4.5 L 18.195312 1.796875 L 17.691406 1.761719 L 17.570312 3.324219 L 16.167969 1.605469 Z M 14.195312 1.78125 L 13.667969 1.859375 L 14.050781 4.503906 L 14.578125 4.425781 Z M 11.855469 2.238281 L 11.355469 2.429688 L 11.863281 3.742188 L 10.851562 4.132812 L 10.347656 2.820312 L 9.847656 3.011719 L 10.808594 5.503906 L 11.304688 5.3125 L 11.027344 4.589844 L 12.039062 4.199219 L 12.316406 4.925781 L 12.8125 4.734375 Z M 20.746094 2.535156 C 20.179688 2.535156 19.699219 2.871094 19.488281 3.417969 C 19.207031 4.144531 19.566406 4.914062 20.324219 5.207031 C 20.542969 5.289062 20.742188 5.332031 20.941406 5.332031 C 21.097656 5.332031 21.253906 5.304688 21.410156 5.253906 L 21.441406 5.242188 L 21.8125 4.28125 L 20.707031 3.855469 L 20.53125 4.3125 L 21.167969 4.558594 L 21.066406 4.820312 C 20.894531 4.851562 20.714844 4.824219 20.503906 4.746094 C 20.015625 4.558594 19.8125 4.101562 20 3.613281 C 20.136719 3.253906 20.433594 3.03125 20.773438 3.03125 C 20.871094 3.03125 20.972656 3.050781 21.070312 3.089844 C 21.410156 3.21875 21.503906 3.40625 21.574219 3.585938 L 21.601562 3.648438 L 22.074219 3.453125 L 22.050781 3.394531 C 21.914062 3.027344 21.664062 2.785156 21.257812 2.632812 C 21.089844 2.566406 20.921875 2.535156 20.746094 2.535156 Z M 23.605469 3.8125 L 23.316406 4.207031 L 23.929688 4.652344 L 22.640625 6.414062 L 23.070312 6.730469 L 24.359375 4.964844 L 24.96875 5.410156 L 25.253906 5.015625 Z M 7.945312 4.234375 C 7.796875 4.25 7.652344 4.3125 7.511719 4.414062 C 7.332031 4.542969 7.21875 4.71875 7.179688 4.90625 C 7.144531 5.09375 7.191406 5.289062 7.316406 5.457031 C 7.472656 5.671875 7.671875 5.773438 7.949219 5.773438 C 8.058594 5.773438 8.179688 5.757812 8.332031 5.722656 L 8.519531 5.683594 C 8.617188 5.664062 8.710938 5.644531 8.789062 5.644531 C 8.898438 5.644531 8.96875 5.679688 9.027344 5.761719 C 9.066406 5.8125 9.082031 5.871094 9.070312 5.933594 C 9.054688 6.023438 8.988281 6.117188 8.875 6.199219 C 8.6875 6.339844 8.480469 6.355469 8.277344 6.253906 L 8.21875 6.226562 L 7.984375 6.679688 L 8.046875 6.707031 C 8.199219 6.78125 8.355469 6.820312 8.515625 6.820312 C 8.742188 6.820312 8.964844 6.746094 9.167969 6.597656 C 9.621094 6.265625 9.730469 5.824219 9.449219 5.441406 C 9.285156 5.214844 9.082031 5.109375 8.8125 5.109375 C 8.703125 5.109375 8.578125 5.125 8.410156 5.164062 L 8.21875 5.203125 C 8.105469 5.226562 8.015625 5.242188 7.941406 5.242188 C 7.84375 5.242188 7.785156 5.214844 7.726562 5.136719 C 7.644531 5.023438 7.671875 4.894531 7.800781 4.800781 C 7.933594 4.707031 8.054688 4.695312 8.214844 4.765625 L 8.28125 4.792969 L 8.457031 4.328125 L 8.398438 4.304688 C 8.242188 4.238281 8.09375 4.214844 7.945312 4.234375 Z M 26.148438 6.503906 C 25.835938 6.503906 25.542969 6.609375 25.289062 6.8125 C 24.996094 7.050781 24.8125 7.378906 24.777344 7.742188 C 24.738281 8.097656 24.847656 8.453125 25.082031 8.746094 C 25.347656 9.078125 25.738281 9.273438 26.152344 9.273438 C 26.460938 9.273438 26.757812 9.164062 27.011719 8.964844 C 27.304688 8.726562 27.488281 8.398438 27.523438 8.035156 C 27.558594 7.679688 27.453125 7.324219 27.21875 7.03125 C 26.953125 6.699219 26.558594 6.503906 26.148438 6.503906 Z M 4.910156 6.835938 L 4.84375 6.917969 L 6.207031 9.550781 L 6.550781 9.132812 L 6.328125 8.710938 L 6.949219 7.953125 L 7.40625 8.089844 L 7.761719 7.65625 Z M 26.203125 7.027344 C 26.445312 7.027344 26.667969 7.140625 26.832031 7.34375 C 27.132812 7.71875 27.0625 8.21875 26.667969 8.535156 C 26.496094 8.675781 26.296875 8.75 26.097656 8.75 C 25.851562 8.75 25.628906 8.636719 25.46875 8.433594 C 25.167969 8.058594 25.234375 7.558594 25.632812 7.242188 C 25.804688 7.101562 26 7.027344 26.203125 7.027344 Z M 5.730469 7.582031 L 6.363281 7.777344 L 6.453125 7.800781 L 6.082031 8.25 Z M 3.503906 8.765625 L 3.292969 9.261719 L 4.480469 10.300781 L 2.789062 10.308594 L 2.746094 10.410156 L 3.914062 11.632812 L 2.335938 11.507812 L 2.117188 12.027344 L 4.980469 12.207031 L 5.019531 12.109375 L 3.769531 10.789062 L 5.582031 10.789062 L 5.628906 10.683594 Z M 28.96875 9.71875 L 26.445312 10.714844 L 26.632812 11.183594 L 28.09375 10.609375 L 27.175781 12.597656 L 27.164062 12.625 L 27.207031 12.742188 L 29.730469 11.742188 L 29.542969 11.273438 L 28.082031 11.847656 L 29.011719 9.832031 Z M 5.648438 21.390625 L 3.371094 22.863281 L 3.648438 23.289062 L 4.964844 22.4375 L 4.445312 24.597656 L 4.519531 24.699219 L 6.792969 23.230469 L 6.515625 22.804688 L 5.199219 23.65625 L 5.714844 21.496094 Z M 26.636719 21.695312 C 26.3125 21.695312 26.054688 21.839844 25.875 22.132812 C 25.761719 22.320312 25.71875 22.523438 25.757812 22.710938 C 25.792969 22.898438 25.914062 23.0625 26.089844 23.171875 C 26.21875 23.25 26.347656 23.289062 26.480469 23.289062 C 26.675781 23.289062 26.871094 23.214844 27.132812 23.03125 L 27.289062 22.921875 C 27.421875 22.835938 27.535156 22.757812 27.644531 22.757812 C 27.691406 22.757812 27.742188 22.773438 27.789062 22.804688 C 27.847656 22.835938 27.878906 22.886719 27.894531 22.945312 C 27.914062 23.035156 27.886719 23.148438 27.816406 23.265625 C 27.691406 23.46875 27.511719 23.5625 27.285156 23.542969 L 27.21875 23.539062 L 27.171875 24.046875 L 27.238281 24.050781 C 27.265625 24.054688 27.292969 24.054688 27.316406 24.054688 C 27.699219 24.054688 28.023438 23.867188 28.234375 23.523438 C 28.394531 23.265625 28.449219 23.015625 28.394531 22.792969 C 28.351562 22.613281 28.238281 22.457031 28.058594 22.347656 C 27.917969 22.261719 27.78125 22.21875 27.644531 22.21875 C 27.425781 22.21875 27.222656 22.324219 26.988281 22.484375 L 26.832031 22.59375 C 26.671875 22.703125 26.566406 22.761719 26.476562 22.761719 C 26.4375 22.761719 26.394531 22.75 26.347656 22.71875 C 26.226562 22.644531 26.207031 22.519531 26.289062 22.378906 C 26.375 22.246094 26.480469 22.1875 26.648438 22.1875 L 26.730469 22.191406 L 26.71875 21.695312 Z M 24.066406 24.417969 L 23.6875 24.792969 L 25.574219 26.6875 L 26.746094 25.519531 L 26.398438 25.175781 L 25.605469 25.964844 Z M 8.308594 24.691406 L 5.632812 25.972656 L 6.042969 26.328125 L 6.46875 26.121094 L 7.207031 26.765625 L 7.054688 27.214844 L 7.476562 27.585938 L 8.390625 24.761719 Z M 7.617188 25.558594 L 7.402344 26.1875 L 7.375 26.269531 L 6.941406 25.890625 L 7.019531 25.851562 Z M 9.652344 25.828125 L 9.421875 26.261719 L 10.085938 26.613281 L 9.066406 28.542969 L 9.535156 28.792969 L 10.558594 26.863281 L 11.222656 27.214844 L 11.453125 26.785156 Z M 21.898438 25.988281 L 21.808594 26.042969 L 22.1875 28.984375 L 22.65625 28.707031 L 22.589844 28.238281 L 23.433594 27.738281 L 23.8125 28.023438 L 24.300781 27.738281 Z M 22.414062 26.972656 L 22.945312 27.371094 L 23.015625 27.425781 L 22.519531 27.71875 L 22.507812 27.628906 Z M 19.957031 27.023438 L 19.464844 27.148438 L 19.855469 28.667969 L 17.996094 27.507812 L 17.972656 27.492188 L 17.851562 27.523438 L 18.523438 30.148438 L 19.015625 30.023438 L 18.625 28.503906 L 20.484375 29.660156 L 20.507812 29.675781 L 20.628906 29.644531 Z M 12.492188 27.125 L 11.75 29.6875 L 12.261719 29.835938 L 13.003906 27.269531 Z M 15.464844 27.609375 C 14.6875 27.574219 14.0625 28.148438 14.027344 28.914062 C 13.992188 29.683594 14.570312 30.3125 15.339844 30.347656 C 15.363281 30.347656 15.386719 30.347656 15.40625 30.347656 C 16.15625 30.347656 16.742188 29.785156 16.777344 29.039062 C 16.8125 28.273438 16.234375 27.644531 15.464844 27.609375 Z M 15.402344 28.109375 L 15.445312 28.109375 C 15.679688 28.121094 15.886719 28.21875 16.03125 28.382812 C 16.171875 28.550781 16.246094 28.777344 16.234375 29.019531 C 16.210938 29.527344 15.851562 29.875 15.367188 29.855469 C 14.886719 29.832031 14.554688 29.449219 14.578125 28.945312 C 14.601562 28.453125 14.941406 28.109375 15.402344 28.109375 Z M 16.003906 6.394531 C 10.699219 6.394531 6.398438 10.699219 6.398438 16.003906 C 6.398438 21.308594 10.699219 25.609375 16.003906 25.609375 C 21.308594 25.609375 25.613281 21.308594 25.613281 16.003906 C 25.613281 10.699219 21.308594 6.394531 16.003906 6.394531 "/>
<path style=" stroke:none;fill-rule:evenodd;fill:rgb(7.843137%,14.901961%,29.411765%);fill-opacity:1;" d="M 16.296875 14.273438 C 16.824219 13.019531 17.871094 12.714844 17.871094 14.269531 C 17.871094 15.964844 17.027344 17.976562 16.289062 19.21875 C 15.582031 17.820312 15.683594 15.734375 16.296875 14.273438 M 21.449219 9.171875 C 20.074219 8.070312 18.824219 9.445312 18.824219 10.234375 C 20.203125 10.53125 21.429688 11.902344 20.878906 15.476562 C 20.429688 18.402344 18.707031 20.21875 17.621094 20.257812 C 18.300781 19.273438 18.90625 18.1875 19.304688 16.96875 C 19.671875 15.832031 19.847656 14.882812 19.847656 14.082031 C 19.847656 12.984375 19.546875 12.179688 19.136719 11.640625 C 18.929688 11.375 18.695312 11.175781 18.457031 11.039062 C 18.222656 10.90625 17.949219 10.835938 17.71875 10.832031 C 17.15625 10.832031 16.601562 11.0625 16.160156 11.433594 C 15.496094 11.984375 14.980469 12.84375 14.617188 13.835938 C 14.257812 14.828125 14.054688 15.953125 14.050781 17.050781 C 14.050781 17.90625 14.175781 18.738281 14.457031 19.480469 C 14.625 19.929688 14.855469 20.34375 15.152344 20.699219 C 14.964844 20.882812 14.773438 21.042969 14.578125 21.175781 C 14.167969 21.457031 13.753906 21.605469 13.347656 21.605469 C 13.15625 21.605469 12.964844 21.574219 12.765625 21.5 C 12.488281 21.398438 12.300781 21.21875 12.160156 20.917969 C 12.023438 20.617188 11.949219 20.199219 11.949219 19.699219 C 11.945312 18.457031 12.394531 16.730469 13.089844 15.015625 C 13.746094 13.386719 14.617188 11.761719 15.5 10.527344 C 15.308594 10.523438 15.058594 10.515625 14.90625 10.515625 C 12.558594 10.515625 10.855469 11.058594 9.722656 11.851562 C 8.589844 12.648438 8.035156 13.699219 8.035156 14.679688 C 8.035156 15.320312 8.273438 15.917969 8.726562 16.363281 C 8.976562 16.625 9.3125 16.773438 9.65625 16.773438 C 9.933594 16.773438 10.195312 16.671875 10.390625 16.488281 C 10.613281 16.273438 10.730469 15.980469 10.714844 15.65625 C 10.703125 15.347656 10.570312 15.050781 10.347656 14.816406 C 10.210938 14.667969 10.042969 14.558594 9.863281 14.488281 C 9.988281 14.261719 10.179688 14.039062 10.453125 13.832031 C 10.855469 13.527344 11.433594 13.265625 12.210938 13.125 C 11.722656 13.980469 11.316406 14.832031 10.988281 15.660156 C 10.402344 17.148438 10.082031 18.5625 10.082031 19.785156 C 10.082031 20.617188 10.230469 21.367188 10.5625 21.988281 C 10.890625 22.609375 11.410156 23.09375 12.101562 23.359375 C 12.417969 23.484375 12.742188 23.542969 13.070312 23.542969 C 13.703125 23.542969 14.332031 23.328125 14.933594 22.964844 C 15.425781 22.671875 15.902344 22.28125 16.355469 21.816406 C 17.308594 22.335938 19.527344 22.546875 21.207031 19.550781 C 23.226562 15.953125 23.300781 10.660156 21.449219 9.171875 "/>
<path style=" stroke:none;fill-rule:evenodd;fill:rgb(67.058824%,0%,1.176471%);fill-opacity:1;" d="M 20.414062 9.089844 C 20.25 9.085938 20.085938 9.125 19.929688 9.199219 C 19.574219 9.367188 19.308594 9.707031 19.203125 10 C 20.054688 10.28125 21.339844 11.160156 21.339844 13.867188 C 21.339844 14.359375 21.300781 14.910156 21.207031 15.527344 C 20.78125 18.285156 19.246094 20.15625 18.015625 20.519531 C 17.675781 20.621094 17.367188 20.597656 17.105469 20.472656 C 17.882812 19.421875 18.550781 18.164062 19.007812 16.859375 C 20.417969 12.730469 18.640625 11.148438 17.746094 11.148438 C 14.832031 11.046875 13.046875 18.152344 15.585938 20.707031 C 14.714844 21.652344 13.699219 22.171875 12.65625 21.796875 C 10.296875 20.949219 12.417969 14.585938 14.90625 10.832031 C 8.804688 10.832031 7.359375 14.578125 8.953125 16.140625 C 9.304688 16.511719 9.851562 16.5625 10.171875 16.257812 C 10.496094 15.949219 10.472656 15.402344 10.121094 15.03125 C 9.925781 14.824219 9.671875 14.71875 9.429688 14.714844 C 9.683594 13.824219 10.738281 12.902344 12.8125 12.726562 C 10.015625 17.324219 9.433594 21.976562 12.21875 23.0625 C 13.535156 23.578125 15.03125 22.8125 16.339844 21.40625 C 16.707031 21.605469 17.21875 21.792969 17.660156 21.785156 C 18.535156 21.773438 19.808594 21.371094 20.925781 19.386719 C 21.851562 17.726562 22.410156 15.605469 22.449219 13.5625 C 22.492188 11.609375 22.035156 10.066406 21.242188 9.425781 C 20.96875 9.207031 20.6875 9.09375 20.414062 9.089844 Z M 17.363281 12.90625 C 18.933594 12.90625 18.089844 17.148438 16.285156 19.8125 C 14.71875 17.714844 15.648438 12.90625 17.363281 12.90625 Z M 3.078125 16.160156 L 2.789062 17.050781 L 1.855469 17.050781 L 2.613281 17.597656 L 2.324219 18.484375 L 3.078125 17.9375 L 3.832031 18.484375 L 3.546875 17.597656 L 4.300781 17.050781 L 3.367188 17.050781 Z M 28.921875 16.160156 L 28.632812 17.050781 L 27.699219 17.050781 L 28.453125 17.597656 L 28.167969 18.488281 L 28.921875 17.9375 L 29.675781 18.488281 L 29.390625 17.597656 L 30.144531 17.050781 L 29.210938 17.050781 Z M 28.921875 16.160156 "/>
</g>
</svg>
