<?xml version="1.0" encoding="UTF-8"?>
<svg xmlns="http://www.w3.org/2000/svg" xmlns:xlink="http://www.w3.org/1999/xlink" width="32px" height="32px" viewBox="0 0 32 44" version="1.1">
<g id="surface1">
<path style=" stroke:none;fill-rule:nonzero;fill:rgb(100%,100%,100%);fill-opacity:1;" d="M 5.515625 4.410156 C 4.417969 5.570312 3.359375 7.875 3.207031 9.4375 C 3.160156 9.9375 3.136719 10.402344 3.136719 10.835938 C 3.136719 12.402344 3.457031 13.601562 4.160156 14.773438 C 5.039062 16.234375 6.433594 17.4375 8.191406 18.25 C 9.851562 19.015625 12.238281 20.082031 12.523438 20.199219 C 12.621094 20.238281 12.746094 20.296875 12.882812 20.363281 C 12.335938 20.757812 12.011719 20.988281 11.753906 21.179688 C 10.277344 20.84375 8.417969 21.101562 7.984375 21.203125 C 6.230469 21.617188 4.617188 22.402344 3.449219 23.417969 C 2.261719 24.457031 1.367188 25.644531 1.066406 26.605469 C 0.726562 27.671875 0.835938 28.425781 1.386719 28.855469 C 2.199219 29.484375 3.246094 28.839844 3.589844 28.625 C 4.296875 28.179688 5.597656 27.367188 7.234375 27.125 C 8.660156 26.914062 10.574219 27.109375 11.453125 27.679688 C 11.453125 28.195312 11.453125 28.804688 11.453125 29.226562 C 11.242188 29.417969 11.015625 29.625 11.015625 29.625 C 10.792969 29.84375 10.675781 30.144531 10.675781 30.457031 C 10.675781 30.601562 10.703125 30.75 10.753906 30.894531 C 10.902344 31.292969 11.238281 31.460938 11.238281 31.460938 C 14.074219 33.179688 14.070312 33.179688 15.980469 34.335938 C 15.953125 34.347656 15.894531 34.347656 15.875 34.359375 C 15.621094 34.46875 15.039062 34.832031 15.039062 35.84375 L 15.039062 39.976562 L 17.503906 42.320312 C 18.050781 42.867188 18.582031 42.953125 18.929688 42.933594 C 19.363281 42.90625 19.753906 42.695312 20.03125 42.339844 C 20.03125 42.339844 21.671875 40.246094 22.6875 38.945312 C 23.441406 40.105469 24.628906 41.933594 24.628906 41.933594 C 24.617188 41.914062 24.65625 42 24.65625 42 C 24.796875 42.292969 25.082031 42.90625 25.753906 43.078125 C 26.054688 43.15625 26.527344 43.164062 27.074219 42.765625 C 27.8125 42.234375 29.527344 40.902344 29.820312 40.609375 L 29.875 40.554688 C 30.078125 40.355469 30.386719 40.050781 30.386719 39.550781 L 30.386719 35.609375 C 30.386719 35.1875 30.160156 34.652344 29.632812 34.441406 C 29.253906 34.289062 28.816406 34.289062 28.292969 34.710938 C 28.058594 34.902344 27.660156 35.1875 27.082031 35.625 C 26.746094 35.089844 26.566406 34.804688 26.3125 34.402344 C 26.808594 33.777344 27.996094 32.289062 28.660156 31.457031 C 28.742188 31.523438 28.917969 31.65625 28.917969 31.65625 L 28.945312 31.675781 C 29.644531 32.140625 30.175781 31.96875 30.429688 31.824219 C 31.121094 31.433594 31.136719 30.566406 31.125 30.3125 L 31.125 27 L 29.03125 24.84375 C 28.726562 24.5 28.304688 24.328125 27.867188 24.363281 C 27.421875 24.398438 27.011719 24.648438 26.769531 25.03125 C 26.65625 25.191406 25.660156 26.441406 24.625 27.722656 C 24.625 26.769531 24.625 23.941406 24.625 23.390625 C 24.753906 23.261719 24.886719 23.128906 24.886719 23.128906 C 25.074219 22.96875 25.5 22.445312 25.5 21.832031 C 25.5 21.683594 25.476562 21.535156 25.417969 21.382812 C 25.296875 21.058594 25.007812 20.699219 24.363281 20.546875 C 24.554688 19.824219 24.628906 19.121094 24.636719 18.582031 C 24.636719 18.53125 24.636719 18.480469 24.636719 18.429688 C 24.636719 16.984375 24.300781 15.765625 23.640625 14.804688 C 22.855469 13.660156 22.246094 13.277344 21.40625 12.742188 L 21.1875 12.605469 C 20.207031 11.984375 15.0625 9.292969 14.84375 9.175781 C 14.824219 9.167969 12.871094 8.207031 12.871094 8.207031 C 11.582031 7.554688 11.488281 7.101562 11.488281 6.855469 C 11.488281 6.839844 11.492188 6.824219 11.492188 6.808594 C 11.519531 6.660156 11.871094 6.121094 12.609375 6.121094 C 13.363281 6.121094 13.894531 6.144531 14.886719 6.476562 C 16.460938 7.003906 16.507812 7.640625 16.507812 7.878906 C 16.503906 7.933594 16.457031 8.597656 16.457031 8.597656 L 19.730469 10.824219 L 24.640625 4.550781 L 20.652344 1.898438 L 20.125 2.421875 C 19.949219 2.597656 19.839844 2.699219 19.773438 2.75 C 19.695312 2.734375 19.488281 2.699219 19.488281 2.699219 L 18.609375 2.367188 C 17.226562 1.8125 14.910156 0.878906 12.800781 0.878906 C 9.117188 0.878906 7.183594 2.625 5.515625 4.410156 "/>
<path style=" stroke:none;fill-rule:nonzero;fill:rgb(76.862745%,80.392157%,82.745098%);fill-opacity:1;" d="M 6.011719 4.882812 C 5.015625 5.933594 4.023438 8.09375 3.886719 9.5 C 3.84375 9.972656 3.816406 10.410156 3.816406 10.820312 C 3.816406 12.257812 4.109375 13.351562 4.742188 14.402344 C 5.550781 15.742188 6.835938 16.851562 8.464844 17.605469 C 10.199219 18.402344 12.519531 19.4375 12.773438 19.542969 C 13.246094 19.734375 13.96875 20.125 14.15625 20.328125 C 13.910156 20.503906 12.007812 21.875 11.886719 21.964844 C 10.640625 21.558594 8.675781 21.785156 8.117188 21.917969 C 6.472656 22.304688 4.96875 23.035156 3.886719 23.980469 C 2.804688 24.917969 1.972656 26.015625 1.710938 26.84375 C 1.472656 27.59375 1.5 28.085938 1.789062 28.3125 C 2.066406 28.527344 2.519531 28.4375 3.167969 28.039062 C 3.863281 27.601562 5.304688 26.699219 7.097656 26.433594 C 8.425781 26.238281 9.765625 26.390625 10.765625 26.636719 C 10.765625 26.636719 11.539062 26.875 12.148438 27.285156 C 12.148438 27.472656 12.148438 29.421875 12.148438 29.570312 C 12.042969 29.664062 11.5 30.160156 11.5 30.160156 C 11.410156 30.25 11.371094 30.371094 11.371094 30.484375 C 11.371094 30.550781 11.386719 30.617188 11.40625 30.671875 C 11.457031 30.804688 11.585938 30.875 11.585938 30.875 L 18.34375 34.972656 C 18.34375 34.972656 19.953125 33.753906 20.230469 33.542969 C 20.339844 33.722656 20.480469 33.957031 20.554688 34.082031 C 20.410156 34.261719 18.679688 36.367188 18.464844 36.625 C 18.222656 36.410156 16.957031 35.285156 16.957031 35.285156 C 16.578125 34.941406 16.285156 34.992188 16.144531 35.054688 C 15.890625 35.164062 15.742188 35.46875 15.742188 35.882812 L 15.742188 39.710938 L 18 41.859375 C 18.359375 42.214844 18.671875 42.273438 18.871094 42.261719 C 19.09375 42.25 19.296875 42.136719 19.445312 41.949219 C 19.445312 41.949219 22.054688 38.613281 22.734375 37.746094 C 22.992188 38.140625 25.234375 41.59375 25.234375 41.59375 L 25.308594 41.742188 C 25.421875 41.980469 25.589844 42.34375 25.933594 42.429688 C 26.152344 42.488281 26.390625 42.421875 26.648438 42.234375 C 27.382812 41.703125 29.074219 40.382812 29.3125 40.144531 L 29.367188 40.089844 C 29.535156 39.925781 29.667969 39.796875 29.667969 39.597656 L 29.667969 35.648438 C 29.667969 35.460938 29.5625 35.226562 29.355469 35.140625 C 29.21875 35.082031 28.996094 35.070312 28.714844 35.335938 C 28.726562 35.328125 27.355469 36.359375 26.886719 36.710938 C 26.707031 36.421875 25.542969 34.578125 25.421875 34.386719 C 25.574219 34.199219 28.332031 30.738281 28.542969 30.476562 C 28.75 30.640625 29.339844 31.101562 29.339844 31.101562 C 29.640625 31.296875 29.882812 31.339844 30.078125 31.230469 C 30.429688 31.03125 30.410156 30.441406 30.40625 30.375 L 30.40625 27.3125 L 28.492188 25.339844 C 28.339844 25.167969 28.140625 25.082031 27.929688 25.097656 C 27.710938 25.117188 27.503906 25.246094 27.382812 25.433594 C 27.28125 25.59375 25.800781 27.4375 24.757812 28.726562 C 24.488281 28.511719 24.105469 28.359375 23.898438 28.289062 C 23.898438 28.035156 23.898438 23.257812 23.898438 23.117188 C 23.964844 23.046875 24.40625 22.601562 24.40625 22.601562 C 24.476562 22.539062 24.769531 22.203125 24.769531 21.847656 C 24.769531 21.78125 24.761719 21.714844 24.738281 21.648438 C 24.625 21.355469 24.28125 21.207031 23.71875 21.207031 C 23.707031 21.207031 23.53125 21.222656 23.359375 21.238281 C 23.777344 20.300781 23.894531 19.292969 23.90625 18.578125 C 23.910156 18.53125 23.910156 18.484375 23.910156 18.4375 C 23.910156 17.136719 23.617188 16.054688 23.035156 15.210938 C 22.332031 14.191406 21.835938 13.875 21.007812 13.351562 L 20.785156 13.210938 C 19.828125 12.605469 14.703125 9.921875 14.488281 9.808594 C 14.480469 9.804688 12.527344 8.84375 12.527344 8.84375 C 10.984375 8.066406 10.738281 7.390625 10.738281 6.828125 C 10.738281 6.804688 10.738281 6.777344 10.742188 6.753906 C 10.757812 6.289062 11.425781 5.386719 12.585938 5.386719 C 13.390625 5.386719 14 5.414062 15.097656 5.78125 C 16.523438 6.257812 17.214844 6.945312 17.214844 7.890625 C 17.214844 7.890625 17.191406 8.226562 17.191406 8.226562 L 19.566406 9.839844 L 23.585938 4.703125 L 20.734375 2.804688 L 20.625 2.914062 C 20.011719 3.523438 19.988281 3.519531 19.332031 3.390625 C 19.160156 3.355469 18.792969 3.207031 18.324219 3.019531 C 16.988281 2.480469 14.75 1.578125 12.777344 1.578125 C 9.375 1.578125 7.632812 3.140625 6.011719 4.882812 M 12.042969 22.316406 L 14.597656 20.46875 L 14.597656 20.375 C 14.570312 19.945312 13.34375 19.378906 12.914062 19.195312 C 12.671875 19.089844 10.316406 18.046875 8.625 17.261719 C 7.0625 16.542969 5.832031 15.484375 5.0625 14.210938 C 4.503906 13.277344 4.015625 12.066406 4.261719 9.535156 C 4.390625 8.21875 5.355469 6.125 6.285156 5.140625 C 7.851562 3.460938 9.527344 1.953125 12.777344 1.953125 C 14.675781 1.953125 16.871094 2.835938 18.183594 3.363281 C 18.6875 3.570312 19.054688 3.714844 19.261719 3.753906 C 19.980469 3.898438 20.171875 3.875 20.777344 3.285156 C 20.988281 3.425781 22.761719 4.605469 23.042969 4.792969 C 22.816406 5.078125 19.683594 9.082031 19.488281 9.335938 C 19.246094 9.171875 17.734375 8.140625 17.582031 8.039062 C 17.585938 7.972656 17.589844 7.902344 17.589844 7.902344 C 17.589844 6.78125 16.792969 5.953125 15.214844 5.425781 C 14.066406 5.042969 13.402344 5.011719 12.585938 5.011719 C 11.167969 5.011719 10.386719 6.136719 10.367188 6.738281 C 10.328125 7.710938 10.945312 8.464844 12.359375 9.175781 C 12.359375 9.175781 14.316406 10.140625 14.316406 10.140625 C 14.367188 10.167969 19.640625 12.925781 20.585938 13.527344 L 20.808594 13.667969 C 21.621094 14.183594 22.066406 14.464844 22.730469 15.421875 C 23.28125 16.230469 23.554688 17.289062 23.53125 18.570312 C 23.519531 19.320312 23.402344 20.414062 22.902344 21.367188 L 22.742188 21.671875 L 23.734375 21.578125 C 24.09375 21.578125 24.335938 21.652344 24.382812 21.777344 C 24.445312 21.945312 24.238281 22.253906 24.160156 22.320312 L 23.507812 22.980469 L 23.523438 23.039062 L 23.523438 28.5625 L 23.65625 28.605469 C 23.957031 28.691406 24.488281 28.90625 24.632812 29.105469 L 24.777344 29.300781 L 24.929688 29.113281 C 25.199219 28.78125 27.550781 25.875 27.703125 25.632812 C 27.757812 25.542969 27.859375 25.480469 27.960938 25.472656 C 28.050781 25.464844 28.136719 25.503906 28.210938 25.589844 C 28.210938 25.589844 29.769531 27.195312 30.03125 27.464844 C 30.03125 27.609375 30.03125 30.382812 30.03125 30.382812 C 30.03125 30.398438 30.035156 30.410156 30.035156 30.429688 C 30.035156 30.609375 29.988281 30.847656 29.894531 30.902344 C 29.835938 30.933594 29.710938 30.894531 29.5625 30.796875 C 29.5625 30.796875 28.480469 29.949219 28.480469 29.949219 L 24.964844 34.363281 L 26.785156 37.253906 L 28.960938 35.621094 C 29.09375 35.492188 29.175781 35.46875 29.210938 35.484375 C 29.253906 35.503906 29.292969 35.589844 29.292969 35.648438 L 29.292969 39.597656 C 29.292969 39.640625 29.207031 39.722656 29.105469 39.824219 L 29.046875 39.878906 C 28.835938 40.089844 27.199219 41.375 26.425781 41.929688 C 26.265625 42.046875 26.132812 42.09375 26.027344 42.066406 C 25.859375 42.023438 25.738281 41.769531 25.652344 41.582031 L 25.550781 41.390625 L 22.765625 37.097656 L 19.148438 41.71875 C 19.089844 41.789062 18.992188 41.878906 18.847656 41.886719 C 18.671875 41.898438 18.472656 41.796875 18.269531 41.59375 C 18.269531 41.59375 16.234375 39.65625 16.121094 39.550781 C 16.121094 39.398438 16.121094 35.882812 16.121094 35.882812 C 16.121094 35.582031 16.210938 35.433594 16.296875 35.394531 C 16.390625 35.355469 16.542969 35.417969 16.703125 35.5625 C 16.707031 35.566406 18.507812 37.164062 18.507812 37.164062 L 21.015625 34.113281 L 20.335938 32.988281 C 20.335938 32.988281 18.507812 34.382812 18.324219 34.519531 C 18.109375 34.390625 11.773438 30.546875 11.761719 30.539062 C 11.757812 30.527344 11.75 30.507812 11.75 30.484375 C 11.75 30.460938 11.757812 30.4375 11.765625 30.425781 L 12.523438 29.738281 L 12.527344 29.652344 L 12.527344 27.074219 L 12.441406 27.019531 C 11.929688 26.691406 11.515625 26.453125 10.777344 26.269531 C 9.535156 25.957031 8.066406 25.902344 7.046875 26.0625 C 5.175781 26.359375 3.683594 27.269531 2.972656 27.71875 C 2.285156 28.144531 2.070312 28.050781 2.019531 28.015625 C 1.914062 27.933594 1.863281 27.605469 2.070312 26.953125 C 2.308594 26.203125 3.117188 25.144531 4.132812 24.257812 C 5.171875 23.355469 6.617188 22.652344 8.207031 22.28125 C 8.832031 22.132812 10.769531 21.941406 11.867188 22.339844 L 11.964844 22.371094 Z M 12.042969 22.316406 "/>
<path style=" stroke:none;fill-rule:nonzero;fill:rgb(13.72549%,12.156863%,12.54902%);fill-opacity:1;" d="M 29.75 41.886719 L 29.46875 41.886719 L 29.46875 42.65625 L 29.273438 42.65625 L 29.273438 41.886719 L 28.992188 41.886719 L 28.992188 41.722656 L 29.75 41.722656 M 31.035156 42.65625 L 30.84375 42.65625 L 30.84375 41.914062 L 30.839844 41.914062 L 30.570312 42.65625 L 30.382812 42.65625 L 30.121094 41.914062 L 30.117188 41.914062 L 30.117188 42.65625 L 29.921875 42.65625 L 29.921875 41.722656 L 30.257812 41.722656 L 30.476562 42.332031 L 30.480469 42.332031 L 30.703125 41.722656 L 31.035156 41.722656 Z M 31.035156 42.65625 "/>
<path style=" stroke:none;fill-rule:nonzero;fill:rgb(13.72549%,12.156863%,12.54902%);fill-opacity:1;" d="M 29.726562 30.441406 L 29.726562 27.636719 L 27.964844 26.058594 L 23.082031 32.09375 L 22.394531 31.003906 C 22.992188 30.558594 23.757812 29.992188 23.84375 29.949219 C 23.984375 29.878906 24.335938 29.671875 24.511719 29.671875 C 24.671875 29.671875 24.265625 28.96875 23.101562 28.96875 L 23.101562 22.757812 L 23.773438 22.023438 C 23.773438 22.023438 22.957031 22.152344 22.574219 22.035156 C 22.492188 22.007812 22.355469 21.945312 22.1875 21.859375 C 22.40625 21.511719 22.601562 21.117188 22.75 20.65625 C 23.550781 18.140625 23.027344 15.816406 21.128906 14.386719 C 19.796875 13.382812 14.328125 10.628906 14.328125 10.628906 C 14.328125 10.628906 11.019531 9.015625 10.664062 8.660156 C 10.410156 8.40625 9.890625 8.011719 9.890625 6.765625 C 9.890625 6.023438 10.71875 5.203125 11.078125 5.035156 C 11.652344 4.765625 11.839844 4.636719 12.996094 4.621094 C 13.652344 4.613281 14.265625 4.769531 14.347656 4.777344 C 15.066406 4.851562 16.777344 5.414062 17.660156 6.601562 C 17.996094 6.9375 18.0625 7.921875 18.0625 7.921875 L 19.4375 8.796875 L 22.433594 4.90625 L 20.8125 3.816406 C 20.351562 4.308594 19.472656 4.34375 19.121094 4.167969 C 18.769531 3.992188 15.742188 2.894531 15.3125 2.761719 C 14.503906 2.503906 12.742188 2.308594 11.792969 2.449219 C 10.839844 2.589844 9.277344 2.878906 8.054688 4.167969 C 6.628906 5.675781 6.609375 6.886719 6.609375 7.535156 C 6.609375 8.554688 6.875 9.898438 8.019531 11.039062 C 9.671875 12.679688 12.179688 13.710938 12.742188 14.019531 C 13.746094 14.570312 16.902344 16.214844 17.359375 16.480469 C 19.296875 17.601562 20.035156 18.796875 19.824219 20.304688 C 19.816406 20.378906 19.792969 20.449219 19.773438 20.519531 C 18.925781 20.023438 17.730469 19.273438 17.253906 18.796875 C 17.253906 18.796875 16.960938 19.101562 16.777344 19.285156 L 15.371094 20.335938 C 15.535156 19.65625 15.554688 18.492188 15.527344 18.375 C 15.492188 18.234375 15.386719 17.113281 14.398438 16.410156 C 13.730469 15.933594 12.230469 15.042969 10.945312 14.410156 C 10.394531 14.140625 8.597656 13.058594 7.738281 12.347656 C 7.738281 12.347656 6.261719 10.972656 6.03125 10.132812 C 5.589844 9.167969 5.570312 6.886719 5.800781 6.660156 C 5.800781 6.660156 5.238281 7.289062 4.851562 8.554688 C 4.660156 9.171875 4.53125 9.972656 4.53125 10.519531 C 4.53125 11.429688 4.691406 13.027344 5.695312 14.375 C 6.140625 14.972656 6.832031 15.648438 7.566406 16.132812 C 8.464844 16.722656 9.371094 17.070312 9.429688 17.113281 C 9.675781 17.289062 12.003906 18.265625 12.214844 18.371094 C 12.425781 18.476562 13.492188 18.96875 13.71875 19.089844 C 14.519531 19.515625 14.933594 19.792969 15.1875 20.472656 L 12.777344 22.269531 C 12.777344 22.269531 12.882812 22.460938 12.882812 22.757812 C 12.882812 22.757812 12.882812 22.84375 12.882812 22.988281 C 12.558594 22.878906 12.226562 22.785156 11.898438 22.730469 C 10.3125 22.460938 9.347656 22.476562 8.09375 22.785156 C 6.699219 23.128906 5.238281 23.6875 3.863281 25.054688 C 2.3125 26.601562 2.332031 27.636719 2.332031 27.636719 L 3.878906 26.726562 C 5.175781 26 6.882812 25.566406 8.09375 25.566406 C 10.972656 25.566406 12.46875 26.394531 12.882812 26.855469 C 12.882812 28.292969 12.882812 29.574219 12.882812 29.636719 C 12.882812 30.1875 12.714844 30.257812 12.59375 30.363281 C 12.546875 30.402344 12.503906 30.40625 12.335938 30.519531 C 12.335938 30.519531 12.550781 30.597656 12.601562 30.652344 C 12.742188 30.757812 18.226562 34.054688 18.226562 34.054688 L 20.351562 32.507812 L 21.402344 34.167969 L 18.488281 37.773438 L 16.476562 35.949219 L 16.476562 39.351562 L 18.769531 41.457031 L 22.8125 36.402344 L 26.132812 41.667969 L 28.8125 39.527344 L 28.8125 36.160156 L 26.660156 37.773438 L 24.484375 34.316406 L 28.421875 29.390625 M 16.039062 22.863281 L 17.289062 21.953125 C 17.628906 22.234375 18.027344 22.492188 18.425781 22.71875 C 18.402344 22.742188 18.378906 22.757812 18.378906 22.757812 C 18.378906 22.757812 16.9375 23.988281 16.035156 24.113281 L 16.035156 22.863281 Z M 18.226562 30.863281 L 16.039062 29.53125 L 16.039062 26.226562 C 16.957031 26.0625 19.195312 25 20.351562 23.847656 C 20.367188 24.066406 20.363281 26.273438 20.359375 27.769531 L 19.015625 25.636719 L 16.964844 27.085938 L 16.964844 29.679688 L 18.097656 28.933594 L 18.949219 30.28125 Z M 18.226562 30.863281 "/>
</g>
</svg>
