<?xml version="1.0" encoding="UTF-8"?>
<svg xmlns="http://www.w3.org/2000/svg" xmlns:xlink="http://www.w3.org/1999/xlink" width="32px" height="32px" viewBox="0 0 32 38" version="1.1">
<g id="surface1">
<path style=" stroke:none;fill-rule:nonzero;fill:rgb(20%,20%,40%);fill-opacity:1;" d="M 12.367188 0.238281 C 8.769531 0.238281 5.695312 1.542969 3.554688 3.835938 C 1.382812 6.171875 0.140625 9.347656 0.140625 13.175781 C 0.140625 15.816406 0.917969 18.800781 2.6875 21.171875 C 4.453125 23.546875 7.308594 25.265625 11.464844 25.265625 C 11.539062 25.265625 11.605469 25.261719 11.679688 25.261719 L 11.679688 32.722656 C 11.679688 35.480469 11.066406 36.046875 8.492188 36.046875 L 8.492188 37.828125 L 20.109375 37.828125 L 20.109375 36.046875 C 17.71875 36.046875 16.828125 35.707031 16.828125 32.910156 L 16.828125 27.84375 L 18.453125 27.84375 C 18.453125 27.84375 24.441406 37.828125 24.605469 37.828125 C 25.027344 37.828125 31.757812 37.824219 31.757812 37.824219 L 31.757812 36.054688 C 31.757812 36.054688 30.40625 36.273438 29.148438 35.191406 C 27.84375 33.929688 25.46875 27.289062 23.503906 26.855469 C 24.222656 26.496094 28.753906 25.457031 28.773438 20.621094 C 28.753906 15.394531 23.851562 13.703125 18.945312 13.703125 C 17.902344 13.703125 16 13.777344 14.070312 13.890625 C 11.617188 14.042969 10.359375 14.15625 8.492188 14.308594 L 8.492188 16.085938 C 11.125 16.085938 11.679688 16.691406 11.679688 19.527344 L 11.679688 22.90625 C 8.046875 22.152344 5.664062 18.164062 5.664062 12.5625 C 5.664062 6.632812 8.488281 2.460938 12.613281 2.460938 C 14.167969 2.460938 15.53125 3.074219 16.617188 4.183594 C 17.703125 5.292969 18.480469 6.898438 18.820312 8.851562 L 20.28125 8.851562 L 20 0.851562 L 18.851562 0.851562 C 18.726562 1.234375 18.574219 1.386719 18.292969 1.386719 C 17.519531 1.386719 15.6875 0.238281 12.367188 0.238281 Z M 16.828125 15.519531 L 18.328125 15.519531 C 21.304688 15.519531 22.867188 17.484375 22.867188 20.46875 C 22.867188 24.367188 21.273438 26.066406 16.828125 25.992188 L 16.828125 24.742188 C 16.945312 24.738281 17.0625 24.730469 17.175781 24.730469 C 17.550781 24.730469 17.890625 24.730469 18.167969 24.808594 C 18.480469 24.847656 18.792969 24.921875 19.070312 25.039062 L 19.164062 24.769531 C 20.0625 22.167969 20.808594 19.335938 21.054688 17.152344 L 19.597656 17.152344 C 18.855469 19.113281 17.929688 20.582031 16.828125 21.5625 Z M 16.828125 15.519531 "/>
<path style=" stroke:none;fill-rule:nonzero;fill:rgb(76.862745%,80.784314%,83.137255%);fill-opacity:1;" d="M 7.730469 2.636719 C 7.730469 2.636719 1.429688 5.070312 1.425781 12.992188 C 1.417969 21.105469 7.496094 22.636719 7.496094 22.636719 C 7.496094 22.636719 4.367188 18.757812 4.375 12.53125 C 4.386719 5.832031 7.730469 2.636719 7.730469 2.636719 Z M 15.582031 15.597656 L 12.933594 15.777344 L 12.933594 36.042969 L 15.582031 36.042969 Z M 22.371094 15.777344 C 22.371094 15.777344 24.117188 16.875 24.117188 20.769531 C 24.117188 24.625 22.289062 25.707031 22.289062 25.707031 C 22.289062 25.707031 27.226562 24.703125 27.214844 20.722656 C 27.199219 16.207031 22.371094 15.777344 22.371094 15.777344 Z M 22.367188 27.253906 C 22.367188 27.253906 21.996094 27.398438 21.484375 27.542969 C 20.921875 27.703125 19.769531 27.882812 19.769531 27.882812 C 21.339844 30.039062 24.75 36.054688 24.75 36.054688 L 28.523438 36.0625 C 28.523438 36.0625 27.734375 35.445312 26.636719 33.273438 C 25.613281 30.863281 23.703125 27.917969 22.367188 27.253906 Z M 22.367188 27.253906 "/>
</g>
</svg>
