<?xml version="1.0" encoding="UTF-8"?>
<svg xmlns="http://www.w3.org/2000/svg" xmlns:xlink="http://www.w3.org/1999/xlink" width="32px" height="32px" viewBox="0 0 32 46" version="1.1">
<g id="surface1">
<path style=" stroke:none;fill-rule:nonzero;fill:rgb(4.705882%,17.254902%,33.72549%);fill-opacity:1;" d="M 0.429688 0.230469 C 0.226562 0.222656 0.167969 0.421875 0.417969 0.960938 C 2.277344 4.972656 6.132812 7.46875 10.472656 8.574219 C 7.976562 10.726562 6.503906 11.992188 6.175781 14.714844 C 4.039062 14.871094 1.753906 16.425781 1.03125 17.867188 C 0.207031 19.503906 1.429688 19.539062 2.257812 18.972656 C 3.316406 18.253906 4.820312 17.976562 6.105469 18.03125 L 6.101562 20.089844 C 3.96875 20.25 1.867188 21.800781 1.144531 23.242188 C 0.320312 24.878906 1.539062 24.914062 2.367188 24.351562 C 3.429688 23.628906 4.820312 23.242188 6.105469 23.296875 L 6.105469 29.503906 C 6.105469 31.941406 4.878906 33.160156 4.152344 33.828125 C 3.429688 34.492188 3.828125 35.1875 4.878906 34.765625 C 7.085938 33.890625 9.375 31.8125 9.898438 28.648438 C 10.742188 28.753906 11.753906 28.765625 12.464844 28.652344 L 12.464844 29.503906 C 12.464844 31.941406 11.238281 33.160156 10.511719 33.828125 C 10.503906 33.835938 10.496094 33.847656 10.484375 33.859375 C 8.136719 34.0625 6.039062 34.847656 4.367188 36.140625 C 0.5625 39.089844 -0.0234375 44.632812 0.5625 45.859375 C 0.597656 45.9375 2.703125 39.007812 8.964844 38.269531 C 12.589844 37.847656 17.039062 38.921875 20.832031 42.195312 C 23.175781 38.3125 27.140625 36.097656 31.765625 35.316406 C 30.203125 33.550781 29.816406 32.773438 29.757812 30.777344 L 29.757812 12.601562 C 29.871094 11.050781 30.261719 10.550781 31.394531 9.496094 C 28.863281 8.554688 25.964844 5.617188 24.402344 2.515625 C 16.59375 6.503906 7.890625 6.503906 1.308594 0.742188 C 0.984375 0.453125 0.636719 0.238281 0.429688 0.230469 Z M 22.503906 8.167969 L 24.738281 10.382812 L 24.738281 15.828125 C 22.234375 16.578125 18.625 16.550781 16.371094 15.75 L 16.371094 15.039062 C 16.371094 13.109375 16.53125 10.667969 18.128906 9.128906 C 19.652344 8.964844 21.136719 8.648438 22.503906 8.167969 Z M 12.996094 9.066406 C 14.066406 9.207031 15.148438 9.265625 16.222656 9.246094 C 15.046875 10.265625 14.039062 11.214844 13.363281 12.316406 C 12.46875 12.019531 11.648438 11.84375 10.851562 11.800781 C 11.367188 10.773438 12.105469 9.8125 12.996094 9.066406 Z M 10.90625 13.339844 C 11.5625 13.335938 12.199219 13.4375 12.765625 13.640625 C 12.585938 14.203125 12.472656 14.804688 12.476562 15.492188 L 12.46875 27.007812 C 11.835938 27.140625 10.871094 27.160156 10.007812 27.078125 L 10.007812 15.039062 C 10.007812 14.511719 10.09375 13.949219 10.246094 13.382812 C 10.464844 13.355469 10.6875 13.34375 10.90625 13.339844 Z M 16.371094 17.632812 C 18.625 18.4375 22.234375 18.464844 24.738281 17.714844 L 24.738281 23.003906 C 22.234375 22.253906 18.625 22.28125 16.371094 23.085938 Z M 20.460938 24.347656 C 21.957031 24.332031 23.484375 24.515625 24.738281 24.890625 L 24.738281 32.773438 C 23.175781 33.214844 21.277344 34.324219 19.605469 35.765625 C 17.183594 34.574219 14.796875 33.957031 12.566406 33.832031 C 14.566406 32.496094 16.371094 30.140625 16.371094 27.007812 L 16.371094 24.972656 C 17.496094 24.570312 18.960938 24.359375 20.460938 24.347656 Z M 20.460938 24.347656 "/>
</g>
</svg>
