<?xml version="1.0" encoding="UTF-8"?>
<svg xmlns="http://www.w3.org/2000/svg" xmlns:xlink="http://www.w3.org/1999/xlink" width="32px" height="32px" viewBox="0 0 32 39" version="1.1">
<g id="surface1">
<path style=" stroke:none;fill-rule:nonzero;fill:rgb(0%,0.784314%,0%);fill-opacity:1;" d="M 0.0390625 13.765625 L 0.0390625 0.03125 L 32 0.03125 L 32 13.765625 C 32.046875 26.644531 26.230469 34.644531 16.015625 38.96875 C 5.808594 34.644531 -0.0078125 26.644531 0.0390625 13.765625 Z M 0.0390625 13.765625 "/>
<path style=" stroke:none;fill-rule:evenodd;fill:rgb(77.254902%,14.901961%,7.45098%);fill-opacity:1;" d="M 16.015625 37.480469 C 13.519531 36.359375 11.320312 35.003906 9.441406 33.390625 L 22.601562 33.390625 C 20.71875 35.003906 18.511719 36.359375 16.015625 37.480469 Z M 5.183594 28.472656 L 26.855469 28.472656 C 27.734375 27.054688 28.464844 25.511719 29.03125 23.832031 L 3.007812 23.832031 C 3.574219 25.511719 4.304688 27.054688 5.183594 28.472656 Z M 1.855469 18.917969 L 30.183594 18.917969 C 30.390625 17.453125 30.503906 15.90625 30.519531 14.277344 L 1.519531 14.277344 C 1.535156 15.90625 1.648438 17.453125 1.855469 18.917969 Z M 16.433594 9.359375 L 30.511719 9.359375 L 30.511719 4.71875 L 16.433594 4.71875 Z M 1.519531 13.070312 L 15.175781 13.070312 L 15.175781 1.527344 L 1.519531 1.527344 Z M 1.519531 13.070312 "/>
<path style=" stroke:none;fill-rule:nonzero;fill:rgb(100%,100%,100%);fill-opacity:1;" d="M 8.609375 10.535156 C 7.4375 11.046875 5.664062 10.816406 4.625 9.964844 C 3.808594 9.359375 2.96875 8.273438 2.671875 6.871094 C 3.296875 6.707031 3.371094 6.046875 3.640625 5.554688 C 3.863281 5.160156 4.320312 4.554688 4.671875 4.277344 C 5.414062 3.636719 6.1875 3.160156 8.183594 3.261719 C 8.335938 3.570312 8.289062 4.5625 8.175781 4.980469 C 8.152344 5.058594 8.136719 5.128906 8.078125 5.183594 C 7.550781 4.070312 6.546875 4.078125 5.566406 4.585938 C 3.617188 5.703125 3.871094 9.707031 6.984375 10.007812 C 7.6875 10.078125 8.023438 9.941406 8.609375 9.761719 Z M 10.03125 2.570312 C 11.199219 3.097656 11.808594 4.003906 12.351562 5.285156 C 12.238281 5.375 12.144531 5.34375 12.023438 5.5 C 11.792969 5.789062 11.648438 6.65625 11.070312 7.3125 C 10.804688 7.460938 10.121094 7.429688 10.121094 7.429688 C 10.582031 6.925781 10.777344 6.238281 10.769531 5.617188 C 10.753906 4.097656 9.824219 3.160156 8.328125 2.953125 C 7.304688 2.820312 6.878906 3.035156 6.054688 3.214844 L 5.574219 1.953125 C 5.945312 2.046875 6.214844 2.144531 6.632812 2.160156 C 7.785156 2.214844 8.832031 2.023438 10.03125 2.570312 Z M 7.152344 9.785156 C 6.839844 9.792969 6.328125 9.667969 6.113281 9.550781 L 6.113281 4.59375 C 6.398438 4.46875 6.832031 4.484375 7.136719 4.5625 L 7.152344 7.59375 C 9 7.714844 9.480469 8.074219 10.511719 9.359375 C 11.167969 10.171875 11.785156 11.566406 13.078125 11.03125 C 13.230469 10.96875 13.390625 10.847656 13.503906 10.808594 C 13.40625 11.574219 12.726562 12.226562 12.144531 12.480469 C 11.785156 12.636719 11.609375 12.339844 11.28125 11.96875 C 9.886719 10.375 9.609375 8.359375 7.160156 8.4375 Z M 8.839844 9.132812 C 9.269531 9.492188 9.84375 10.222656 9.878906 10.628906 C 9.871094 11.1875 9.878906 11.761719 10.230469 12.203125 L 10.574219 12.535156 C 9.808594 12.667969 8.824219 12.683594 8.367188 12.179688 C 9.113281 11.625 8.839844 9.132812 8.839844 9.132812 Z M 13.910156 3.515625 C 14.152344 4.242188 14.015625 5.582031 13.113281 5.839844 C 13.167969 5.375 12.847656 4.941406 12.472656 4.851562 C 12.273438 4.628906 12.117188 4.34375 11.96875 4.042969 C 12.917969 4.058594 13.523438 4.101562 13.910156 3.515625 Z M 10.054688 4.042969 C 10.199219 4.214844 10.390625 4.59375 10.441406 4.851562 L 9.886719 4.859375 L 9.878906 7.65625 C 10.28125 7.675781 11.929688 7.707031 12.289062 7.59375 C 12.519531 7.527344 12.660156 7.398438 12.800781 7.265625 C 13.089844 7.769531 12.902344 9.109375 12.015625 9.46875 C 12.0625 7.878906 10.335938 8.746094 9.96875 8.40625 C 9.621094 8.003906 9.261719 7.828125 8.847656 7.648438 C 8.800781 6.996094 8.839844 6.214844 8.839844 5.554688 C 8.839844 4.453125 8.769531 4.796875 8.441406 3.820312 C 9.011719 3.996094 9.527344 4.058594 10.054688 4.042969 Z M 6.113281 10.902344 C 6.160156 10.902344 6.761719 11 7.136719 11.007812 C 7.210938 11.644531 7.105469 11.839844 7.839844 12.519531 C 7.382812 12.722656 6.105469 12.675781 5.640625 12.179688 C 6.019531 11.859375 6.132812 11.457031 6.113281 10.902344 Z M 6.113281 10.902344 "/>
</g>
</svg>
