<?xml version="1.0" encoding="UTF-8"?>
<svg xmlns="http://www.w3.org/2000/svg" xmlns:xlink="http://www.w3.org/1999/xlink" width="32px" height="32px" viewBox="0 0 32 36" version="1.1">
<g id="surface1">
<path style=" stroke:none;fill-rule:evenodd;fill:rgb(100%,100%,100%);fill-opacity:1;" d="M 16.167969 0.757812 C 12.242188 5.527344 7.164062 7.386719 0.984375 6.210938 C 0.84375 21.8125 8.195312 29.1875 16.167969 35.121094 C 24.0625 29.265625 31.546875 21.769531 31.339844 6.222656 C 24.921875 7.390625 20.132812 5.582031 16.167969 0.757812 "/>
<path style="fill:none;stroke-width:6.70469;stroke-linecap:butt;stroke-linejoin:miter;stroke:rgb(55.686275%,3.529412%,15.294118%);stroke-opacity:1;stroke-miterlimit:2.61313;" d="M 419.554557 1037.80518 C 322.739153 917.656439 197.505297 870.817126 45.105327 900.436103 C 41.637313 507.418845 222.937403 321.636025 419.554557 172.163512 C 614.245037 319.667987 798.820474 508.501266 793.714786 900.140898 C 635.438459 870.718724 517.333299 916.278812 419.554557 1037.80518 Z M 419.554557 1037.80518 " transform="matrix(0.0405491,0,0,-0.0396969,-0.844607,41.95545)"/>
<path style=" stroke:none;fill-rule:evenodd;fill:rgb(0%,38.039216%,23.529412%);fill-opacity:1;" d="M 27.960938 18.257812 C 26.222656 22.925781 22.785156 27.777344 16.164062 33.054688 C 9.617188 27.804688 6.179688 22.917969 4.421875 18.257812 L 27.960938 18.257812 "/>
<path style=" stroke:none;fill-rule:evenodd;fill:rgb(52.941176%,3.921569%,15.686275%);fill-opacity:1;" d="M 2.691406 8.125 C 10.742188 8.210938 13.058594 6.617188 16.164062 3.246094 C 19.511719 6.519531 21.734375 8.230469 29.636719 8.125 C 29.605469 11.226562 29.292969 14.332031 28.222656 17.515625 L 4.15625 17.515625 C 3.054688 14.292969 2.726562 11.175781 2.691406 8.125 "/>
<path style=" stroke:none;fill-rule:evenodd;fill:rgb(100%,100%,100%);fill-opacity:1;" d="M 12.382812 8.808594 C 12.652344 8.890625 13.191406 8.710938 13.484375 9.265625 C 13.628906 9.542969 13.886719 9.851562 13.976562 10.441406 L 15.640625 10.1875 C 15.453125 9.542969 15.585938 9.527344 15.417969 9.023438 C 16.449219 8.929688 17.449219 8.710938 18.382812 8.226562 C 18.839844 8.601562 19.246094 8.917969 19.792969 9.132812 C 17.722656 10.265625 17.933594 11.183594 18.085938 11.78125 L 18.902344 12.722656 C 18.871094 10.746094 20.171875 9.480469 21.792969 9.097656 C 20.683594 8.511719 19.617188 7.847656 18.605469 7.066406 C 16.761719 7.703125 14.484375 8.417969 13.53125 7.71875 L 12.382812 8.808594 "/>
<path style=" stroke:none;fill-rule:evenodd;fill:rgb(100%,100%,100%);fill-opacity:1;" d="M 10.71875 13.421875 C 10.710938 13.484375 12.113281 12.726562 12.457031 12.894531 L 12.328125 12.113281 C 13.964844 11.394531 15.632812 11.09375 17.898438 11.460938 C 17.914062 11.113281 17.902344 10.851562 18.066406 10.5 C 17.3125 10.367188 16.5625 10.34375 15.789062 10.285156 C 15.253906 10.332031 14.460938 10.414062 13.882812 10.59375 C 13.304688 10.769531 12.675781 11.011719 12.144531 11.0625 C 11.609375 11.113281 11.355469 10.949219 10.867188 10.828125 C 10.464844 11.28125 10.230469 11.480469 9.625 12.003906 C 10.117188 11.894531 10.851562 12.0625 10.742188 13.164062 L 10.71875 13.421875 "/>
<path style=" stroke:none;fill-rule:evenodd;fill:rgb(100%,100%,100%);fill-opacity:1;" d="M 19.519531 10.75 C 21.113281 11.332031 21.152344 10.785156 21.835938 10.730469 L 22.242188 11.507812 C 20.140625 12.117188 19.15625 14.570312 20.699219 15.972656 C 19.195312 16.25 18.300781 14.417969 19.503906 12.183594 C 19.570312 12.054688 19.492188 11.847656 19.578125 11.714844 L 19.132812 11.601562 C 19.210938 11.261719 19.363281 11.070312 19.519531 10.75 "/>
<path style=" stroke:none;fill-rule:evenodd;fill:rgb(100%,100%,100%);fill-opacity:1;" d="M 20.445312 13 C 20.273438 13.265625 20.117188 13.625 20.097656 14.023438 C 20.917969 14.300781 21.386719 14.75 21.703125 15.816406 C 21.710938 15.851562 21.726562 15.882812 21.742188 15.914062 C 22.15625 16.960938 24.207031 16.984375 24.5625 16.632812 C 24.652344 16.230469 24.53125 15.976562 24.15625 15.875 C 23.722656 15.878906 23.777344 16.300781 23.382812 16.199219 C 22.898438 16.03125 22.636719 15.824219 22.519531 15.429688 C 22.34375 14.835938 22.6875 14.199219 23.613281 13.984375 L 23.152344 13.359375 C 22.234375 13.40625 21.3125 13.40625 20.445312 13 "/>
<path style=" stroke:none;fill-rule:evenodd;fill:rgb(100%,100%,100%);fill-opacity:1;" d="M 19.191406 12.640625 L 18.976562 12.585938 L 18.9375 12.773438 L 18.84375 12.8125 L 18.570312 12.492188 C 17.65625 12.382812 16.742188 12.378906 15.828125 12.472656 L 15.769531 13.511719 C 16.851562 13.429688 17.902344 13.472656 18.882812 13.644531 C 18.953125 13.292969 19.023438 12.957031 19.191406 12.640625 "/>
<path style=" stroke:none;fill-rule:evenodd;fill:rgb(100%,100%,100%);fill-opacity:1;" d="M 13.902344 11.769531 L 13.828125 16.988281 L 15.382812 16.914062 L 15.457031 16.082031 L 16.605469 16.007812 L 16.789062 16.191406 C 15.972656 18.390625 16.445312 19.71875 18.195312 20.175781 L 18.234375 19.960938 C 17.074219 19.164062 16.898438 17.144531 18.417969 16.082031 L 17.9375 15.140625 C 17.035156 14.90625 16.171875 15.542969 15.457031 15.066406 L 15.714844 11.480469 C 15.148438 11.527344 14.542969 11.503906 13.902344 11.769531 "/>
<path style=" stroke:none;fill-rule:evenodd;fill:rgb(100%,100%,100%);fill-opacity:1;" d="M 11.941406 21.625 L 11.753906 23.003906 C 13.859375 23.445312 16.164062 23.550781 18.863281 22.640625 C 20.230469 22.183594 21.5625 21.6875 22.96875 21.917969 C 22.699219 21.519531 24.019531 19.089844 25.15625 20.503906 L 25.785156 20.539062 C 25.5 19.984375 25.511719 19.683594 26.375 19.199219 C 25.425781 19.089844 24.734375 19.164062 24.082031 18.65625 C 21.199219 21.285156 16.78125 22.621094 11.941406 21.625 "/>
<path style=" stroke:none;fill-rule:evenodd;fill:rgb(100%,100%,100%);fill-opacity:1;" d="M 17.75 17.0625 C 17.511719 17.472656 17.398438 17.71875 17.457031 18.128906 C 18.058594 18.183594 18.589844 18.472656 18.824219 18.910156 L 18.84375 16.988281 L 17.75 17.0625 "/>
<path style=" stroke:none;fill-rule:evenodd;fill:rgb(100%,100%,100%);fill-opacity:1;" d="M 13.867188 18.207031 L 13.699219 21.773438 C 14.269531 21.855469 14.710938 21.875 15.234375 21.863281 L 15.34375 18.203125 L 13.867188 18.207031 "/>
<path style=" stroke:none;fill-rule:evenodd;fill:rgb(100%,100%,100%);fill-opacity:1;" d="M 13.660156 23.382812 C 14.3125 23.464844 14.867188 23.429688 15.363281 23.457031 C 15.5 25.621094 16.332031 26.496094 18.183594 27.074219 C 18.554688 27.1875 19.011719 27.308594 19.28125 27.480469 C 14.863281 27.882812 14.875 25.097656 12.902344 27.226562 L 12.367188 26.484375 C 13.03125 25.871094 13.417969 24.675781 13.660156 23.382812 "/>
<path style=" stroke:none;fill-rule:evenodd;fill:rgb(100%,100%,100%);fill-opacity:1;" d="M 13.691406 12.785156 C 11.011719 13.039062 8.574219 14.519531 6.480469 17.792969 C 6.320312 18.023438 5.992188 18.378906 5.933594 18.445312 C 6.207031 18.492188 6.40625 18.699219 6.53125 18.816406 C 7.613281 20.738281 8.800781 21.851562 10.03125 22.480469 C 10.207031 22.03125 10.242188 21.582031 10.304688 21.132812 C 9.546875 20.800781 7.894531 19.335938 8.050781 17.738281 C 8.839844 15.703125 11.359375 13.933594 13.691406 13.96875 L 13.691406 12.785156 "/>
<path style=" stroke:none;fill-rule:evenodd;fill:rgb(100%,100%,100%);fill-opacity:1;" d="M 10.804688 15.0625 C 11.273438 14.660156 11.78125 14.375 12.371094 14.324219 L 12.425781 17.308594 C 13.691406 17.011719 15.089844 16.984375 16.355469 17.066406 L 16.25 18.035156 C 14.957031 18.0625 13.527344 18.0625 12.203125 18.492188 C 12.003906 20.433594 11.828125 22.292969 11.242188 24.148438 C 12.203125 24.464844 12.691406 24.875 12.921875 25.335938 L 12.480469 26.144531 C 11.867188 25.3125 11.261719 24.871094 10.113281 25.066406 L 9.5625 24.582031 C 10.773438 22.308594 10.640625 17.898438 10.804688 15.0625 "/>
<path style=" stroke:none;fill-rule:evenodd;fill:rgb(100%,100%,100%);fill-opacity:1;" d="M 13.03125 27.21875 C 13.152344 27.179688 13.527344 27.867188 14.160156 28.042969 C 14.1875 28.070312 14.597656 28.027344 14.390625 27.949219 C 14.1875 27.867188 13.800781 27.355469 13.566406 26.75 C 13.566406 26.75 12.90625 27.261719 13.03125 27.21875 "/>
</g>
</svg>
