<?xml version="1.0" encoding="UTF-8"?>
<svg xmlns="http://www.w3.org/2000/svg" xmlns:xlink="http://www.w3.org/1999/xlink" width="32px" height="32px" viewBox="0 0 32 38" version="1.1">
<g id="surface1">
<path style=" stroke:none;fill-rule:nonzero;fill:rgb(12.156863%,10.196078%,9.019608%);fill-opacity:1;" d="M 31.960938 22.078125 C 31.960938 30.886719 24.804688 38.03125 15.980469 38.03125 C 7.15625 38.03125 0 30.886719 0 22.078125 C 0 13.269531 7.15625 6.128906 15.980469 6.128906 C 24.804688 6.128906 31.960938 13.269531 31.960938 22.078125 Z M 31.960938 22.078125 "/>
<path style=" stroke:none;fill-rule:nonzero;fill:rgb(100%,100%,100%);fill-opacity:1;" d="M 31.222656 22.078125 C 31.222656 30.480469 24.398438 37.296875 15.980469 37.296875 C 7.5625 37.296875 0.734375 30.480469 0.734375 22.078125 C 0.734375 13.671875 7.5625 6.863281 15.980469 6.863281 C 24.398438 6.863281 31.222656 13.671875 31.222656 22.078125 Z M 31.222656 22.078125 "/>
<path style=" stroke:none;fill-rule:nonzero;fill:rgb(5.098039%,50.196078%,74.901961%);fill-opacity:1;" d="M 11.644531 35.769531 C 13.011719 36.199219 14.46875 36.4375 15.980469 36.4375 C 17.488281 36.4375 18.945312 36.199219 20.3125 35.769531 C 19.089844 34.828125 17.59375 34.269531 15.980469 34.269531 C 14.363281 34.269531 12.867188 34.828125 11.644531 35.769531 Z M 11.644531 35.769531 "/>
<path style=" stroke:none;fill-rule:nonzero;fill:rgb(5.098039%,50.196078%,74.901961%);fill-opacity:1;" d="M 20.3125 8.386719 C 18.945312 7.953125 17.488281 7.722656 15.980469 7.722656 C 14.46875 7.722656 13.011719 7.953125 11.644531 8.386719 C 12.867188 9.328125 14.363281 9.886719 15.980469 9.886719 C 17.59375 9.886719 19.089844 9.328125 20.3125 8.386719 Z M 20.3125 8.386719 "/>
<path style=" stroke:none;fill-rule:nonzero;fill:rgb(5.098039%,50.196078%,74.901961%);fill-opacity:1;" d="M 21.496094 16.445312 C 23.605469 15.671875 25.503906 14.476562 27.085938 12.953125 C 25.503906 11.039062 23.433594 9.542969 21.070312 8.648438 C 20.273438 9.332031 19.355469 9.859375 18.359375 10.1875 C 19.972656 11.351562 21.164062 13.667969 21.496094 16.445312 Z M 21.496094 16.445312 "/>
<path style=" stroke:none;fill-rule:nonzero;fill:rgb(5.098039%,50.196078%,74.901961%);fill-opacity:1;" d="M 13.597656 10.1875 C 12.601562 9.859375 11.683594 9.332031 10.890625 8.648438 C 8.523438 9.542969 6.457031 11.039062 4.875 12.953125 C 6.453125 14.476562 8.351562 15.671875 10.460938 16.445312 C 10.796875 13.667969 11.988281 11.351562 13.597656 10.1875 Z M 13.597656 10.1875 "/>
<path style=" stroke:none;fill-rule:nonzero;fill:rgb(5.098039%,50.196078%,74.901961%);fill-opacity:1;" d="M 10.460938 27.710938 C 8.351562 28.480469 6.453125 29.683594 4.875 31.203125 C 6.457031 33.117188 8.523438 34.613281 10.890625 35.507812 C 11.683594 34.824219 12.601562 34.296875 13.597656 33.96875 C 11.988281 32.804688 10.796875 30.488281 10.460938 27.710938 Z M 10.460938 27.710938 "/>
<path style=" stroke:none;fill-rule:nonzero;fill:rgb(5.098039%,50.196078%,74.901961%);fill-opacity:1;" d="M 21.496094 27.710938 C 21.164062 30.488281 19.972656 32.804688 18.359375 33.96875 C 19.355469 34.296875 20.273438 34.824219 21.070312 35.507812 C 23.433594 34.613281 25.503906 33.117188 27.085938 31.203125 C 25.503906 29.683594 23.605469 28.480469 21.496094 27.710938 Z M 21.496094 27.710938 "/>
<path style=" stroke:none;fill-rule:nonzero;fill:rgb(12.156863%,10.196078%,9.019608%);fill-opacity:1;" d="M 27.507812 30.667969 C 29.300781 28.273438 30.363281 25.296875 30.363281 22.078125 C 30.363281 18.859375 29.300781 15.886719 27.507812 13.488281 C 24.523438 16.34375 20.457031 18.105469 15.980469 18.105469 C 11.5 18.105469 7.433594 16.34375 4.453125 13.488281 C 2.660156 15.886719 1.597656 18.859375 1.597656 22.078125 C 1.597656 25.296875 2.660156 28.273438 4.453125 30.667969 C 7.433594 27.816406 11.5 26.050781 15.980469 26.050781 C 20.457031 26.050781 24.523438 27.816406 27.507812 30.667969 Z M 27.507812 30.667969 "/>
<path style=" stroke:none;fill-rule:nonzero;fill:rgb(12.156863%,10.196078%,9.019608%);fill-opacity:1;" d="M 18.574219 14.691406 C 18.734375 14.640625 18.875 14.480469 18.875 14.21875 C 18.875 14.0625 18.832031 13.933594 18.734375 13.832031 C 18.632812 13.730469 18.503906 13.691406 18.316406 13.691406 C 17.945312 13.691406 17.8125 13.902344 17.699219 14.046875 L 17.957031 14.21875 C 18.070312 14.078125 18.191406 14.035156 18.261719 14.035156 C 18.386719 14.035156 18.503906 14.140625 18.503906 14.277344 C 18.503906 14.375 18.46875 14.441406 18.402344 14.503906 C 18.351562 14.554688 18.273438 14.589844 18.160156 14.589844 L 18.058594 14.589844 L 18.058594 14.890625 L 18.203125 14.890625 C 18.316406 14.890625 18.40625 14.917969 18.460938 14.992188 C 18.503906 15.050781 18.546875 15.121094 18.546875 15.265625 C 18.546875 15.53125 18.386719 15.578125 18.273438 15.578125 C 18.199219 15.578125 18.144531 15.570312 18.101562 15.535156 C 18.046875 15.492188 18 15.421875 17.972656 15.351562 L 17.644531 15.480469 C 17.6875 15.621094 17.757812 15.738281 17.875 15.808594 C 17.972656 15.878906 18.117188 15.921875 18.289062 15.921875 C 18.472656 15.921875 18.632812 15.867188 18.746094 15.75 C 18.863281 15.621094 18.921875 15.464844 18.921875 15.25 C 18.921875 15.09375 18.867188 14.785156 18.574219 14.691406 Z M 18.574219 14.691406 "/>
<path style=" stroke:none;fill-rule:nonzero;fill:rgb(12.156863%,10.196078%,9.019608%);fill-opacity:1;" d="M 15.777344 14.632812 C 15.777344 15.046875 15.707031 15.378906 15.578125 15.59375 C 15.476562 15.765625 15.335938 15.878906 15.148438 15.921875 C 15.101562 15.933594 15.039062 15.9375 14.988281 15.9375 C 14.871094 15.9375 14.773438 15.90625 14.644531 15.820312 L 14.777344 15.535156 C 14.84375 15.566406 14.929688 15.59375 15.003906 15.59375 C 15.09375 15.59375 15.175781 15.550781 15.246094 15.464844 C 15.320312 15.378906 15.363281 15.234375 15.390625 15.046875 C 15.3125 15.113281 15.261719 15.175781 15.074219 15.175781 C 14.917969 15.175781 14.789062 15.121094 14.6875 14.992188 C 14.589844 14.863281 14.546875 14.691406 14.546875 14.476562 C 14.546875 14.21875 14.601562 14.035156 14.703125 13.90625 C 14.804688 13.777344 14.960938 13.703125 15.148438 13.691406 L 15.164062 13.691406 C 15.375 13.691406 15.535156 13.777344 15.636719 13.933594 C 15.734375 14.089844 15.777344 14.320312 15.777344 14.632812 Z M 15.148438 14.847656 C 15.238281 14.847656 15.289062 14.800781 15.320312 14.734375 C 15.351562 14.664062 15.363281 14.5625 15.363281 14.433594 C 15.363281 14.304688 15.351562 14.199219 15.320312 14.132812 C 15.28125 14.058594 15.21875 14.035156 15.148438 14.035156 C 15.089844 14.035156 15.019531 14.066406 14.988281 14.132812 C 14.949219 14.21875 14.933594 14.332031 14.933594 14.433594 C 14.933594 14.640625 14.992188 14.847656 15.148438 14.847656 Z M 15.148438 14.847656 "/>
<path style=" stroke:none;fill-rule:nonzero;fill:rgb(12.156863%,10.196078%,9.019608%);fill-opacity:1;" d="M 13.066406 13.90625 L 13.066406 14.191406 L 13.453125 14.078125 L 13.453125 15.535156 L 13.039062 15.535156 L 13.039062 15.867188 L 14.214844 15.867188 L 14.214844 15.535156 L 13.828125 15.535156 L 13.828125 13.730469 Z M 13.066406 13.90625 "/>
<path style=" stroke:none;fill-rule:nonzero;fill:rgb(12.156863%,10.196078%,9.019608%);fill-opacity:1;" d="M 18.433594 28.691406 L 17.988281 28.691406 L 17.457031 30.839844 L 17.816406 30.839844 L 17.945312 30.308594 L 18.445312 30.308594 L 18.5625 30.839844 L 18.960938 30.839844 Z M 18.015625 29.96875 L 18.144531 29.335938 L 18.191406 29.09375 L 18.195312 29.09375 L 18.242188 29.324219 L 18.375 29.96875 Z M 18.015625 29.96875 "/>
<path style=" stroke:none;fill-rule:nonzero;fill:rgb(12.156863%,10.196078%,9.019608%);fill-opacity:1;" d="M 12.996094 28.71875 L 12.996094 30.839844 L 13.398438 30.839844 L 13.398438 29.921875 L 13.941406 29.921875 L 13.941406 29.582031 L 13.398438 29.582031 L 13.398438 29.066406 L 14.1875 29.066406 L 14.1875 28.71875 Z M 12.996094 28.71875 "/>
<path style=" stroke:none;fill-rule:nonzero;fill:rgb(100%,100%,100%);fill-opacity:1;" d="M 14.160156 18.199219 C 14.160156 18.199219 14.929688 18.210938 14.964844 18.214844 C 14.980469 18.242188 15.597656 19.394531 15.636719 19.472656 C 15.558594 19.472656 15.183594 19.472656 15.183594 19.472656 L 14.566406 18.683594 L 13.914062 19.484375 C 13.914062 19.484375 13.558594 19.476562 13.480469 19.472656 C 13.523438 19.398438 14.160156 18.199219 14.160156 18.199219 Z M 14.160156 18.199219 "/>
<path style=" stroke:none;fill-rule:nonzero;fill:rgb(100%,100%,100%);fill-opacity:1;" d="M 25.011719 24.605469 C 24.546875 24.113281 24.320312 23.457031 24.320312 22.609375 C 24.320312 21.761719 24.550781 21.082031 25.011719 20.59375 C 25.460938 20.105469 26.085938 19.859375 26.871094 19.859375 C 27.65625 19.859375 28.28125 20.105469 28.730469 20.59375 C 29.195312 21.089844 29.425781 21.75 29.425781 22.609375 C 29.425781 23.457031 29.195312 24.113281 28.730469 24.605469 C 28.285156 25.089844 27.664062 25.34375 26.871094 25.355469 C 26.09375 25.355469 25.46875 25.105469 25.011719 24.605469 Z M 25.757812 21.230469 C 25.496094 21.570312 25.367188 22.019531 25.367188 22.609375 C 25.367188 23.1875 25.496094 23.632812 25.757812 23.972656 C 26.019531 24.304688 26.386719 24.46875 26.871094 24.46875 C 27.359375 24.46875 27.722656 24.304688 27.984375 23.972656 C 28.25 23.632812 28.375 23.1875 28.375 22.609375 C 28.375 22.019531 28.25 21.570312 27.984375 21.230469 C 27.71875 20.90625 27.355469 20.746094 26.871094 20.746094 C 26.40625 20.746094 26.039062 20.90625 25.757812 21.230469 Z M 25.757812 21.230469 "/>
<path style=" stroke:none;fill-rule:nonzero;fill:rgb(100%,100%,100%);fill-opacity:1;" d="M 23.890625 20.003906 C 23.890625 20.058594 23.890625 25.144531 23.890625 25.199219 C 23.835938 25.199219 22.910156 25.199219 22.855469 25.199219 C 22.855469 25.144531 22.855469 20.058594 22.855469 20.003906 C 22.910156 20.003906 23.835938 20.003906 23.890625 20.003906 Z M 23.890625 20.003906 "/>
<path style=" stroke:none;fill-rule:nonzero;fill:rgb(100%,100%,100%);fill-opacity:1;" d="M 22.183594 20.003906 C 22.183594 20.058594 22.183594 25.144531 22.183594 25.199219 C 22.128906 25.199219 21.273438 25.199219 21.21875 25.199219 C 21.21875 25.144531 21.21875 20.988281 21.21875 20.988281 L 21.164062 20.984375 C 21.164062 20.984375 20.105469 25.15625 20.09375 25.199219 C 20.050781 25.199219 19.074219 25.199219 19.035156 25.199219 C 19.023438 25.15625 17.953125 20.984375 17.953125 20.984375 L 17.894531 20.988281 C 17.894531 20.988281 17.894531 25.144531 17.894531 25.199219 C 17.839844 25.199219 16.984375 25.199219 16.933594 25.199219 C 16.933594 25.144531 16.933594 20.058594 16.933594 20.003906 C 16.988281 20.003906 18.445312 20.003906 18.488281 20.003906 C 18.5 20.046875 19.558594 24.082031 19.558594 24.082031 C 19.558594 24.082031 20.617188 20.046875 20.625 20.003906 C 20.667969 20.003906 22.128906 20.003906 22.183594 20.003906 Z M 22.183594 20.003906 "/>
<path style=" stroke:none;fill-rule:nonzero;fill:rgb(100%,100%,100%);fill-opacity:1;" d="M 16.429688 20.003906 C 16.429688 20.054688 16.429688 20.796875 16.429688 20.847656 C 16.375 20.847656 13.675781 20.847656 13.675781 20.847656 L 13.675781 22.035156 C 13.675781 22.035156 16.144531 22.035156 16.203125 22.035156 C 16.203125 22.085938 16.203125 22.828125 16.203125 22.878906 C 16.144531 22.878906 13.675781 22.878906 13.675781 22.878906 L 13.675781 24.285156 C 13.675781 24.285156 16.519531 24.285156 16.574219 24.285156 C 16.574219 24.335938 16.574219 25.148438 16.574219 25.199219 C 16.519531 25.199219 12.730469 25.199219 12.671875 25.199219 C 12.671875 25.144531 12.671875 20.058594 12.671875 20.003906 C 12.730469 20.003906 16.375 20.003906 16.429688 20.003906 Z M 16.429688 20.003906 "/>
<path style=" stroke:none;fill-rule:nonzero;fill:rgb(100%,100%,100%);fill-opacity:1;" d="M 10.480469 20.003906 C 11.054688 20.003906 11.476562 20.121094 11.734375 20.351562 C 12.003906 20.589844 12.140625 20.972656 12.140625 21.460938 C 12.140625 21.765625 12.074219 22.035156 11.945312 22.25 C 11.824219 22.449219 11.632812 22.59375 11.375 22.679688 L 11.289062 22.707031 L 11.375 22.734375 C 11.59375 22.804688 11.761719 22.929688 11.859375 23.09375 C 11.953125 23.238281 12 23.472656 12.011719 23.855469 L 12.042969 24.5 C 12.058594 24.824219 12.121094 25.003906 12.242188 25.082031 C 12.242188 25.097656 12.242188 25.164062 12.242188 25.199219 C 12.191406 25.199219 11.136719 25.199219 11.101562 25.199219 C 11.0625 25.117188 11.042969 25.050781 11.027344 24.984375 C 11.007812 24.898438 10.984375 24.792969 10.980469 24.570312 L 10.964844 24.011719 C 10.953125 23.664062 10.890625 23.449219 10.773438 23.332031 C 10.667969 23.214844 10.460938 23.152344 10.164062 23.152344 L 8.972656 23.152344 C 8.972656 23.152344 8.972656 25.144531 8.972656 25.199219 C 8.921875 25.199219 7.996094 25.199219 7.941406 25.199219 C 7.941406 25.144531 7.941406 20.058594 7.941406 20.003906 C 7.996094 20.003906 10.480469 20.003906 10.480469 20.003906 Z M 9.003906 20.847656 L 8.972656 20.847656 L 8.972656 22.292969 L 10.277344 22.292969 C 10.5625 22.292969 10.78125 22.234375 10.914062 22.117188 C 11.042969 22.011719 11.109375 21.828125 11.109375 21.5625 C 11.109375 21.335938 11.046875 21.160156 10.914062 21.027344 C 10.78125 20.910156 10.585938 20.847656 10.335938 20.847656 Z M 9.003906 20.847656 "/>
<path style=" stroke:none;fill-rule:nonzero;fill:rgb(100%,100%,100%);fill-opacity:1;" d="M 3.214844 24.59375 C 2.765625 24.101562 2.535156 23.425781 2.535156 22.59375 C 2.535156 21.757812 2.757812 21.109375 3.214844 20.609375 C 3.65625 20.109375 4.261719 19.859375 5.015625 19.859375 C 5.679688 19.859375 6.203125 20.011719 6.617188 20.328125 C 7.027344 20.652344 7.269531 21.074219 7.34375 21.578125 C 7.28125 21.578125 6.328125 21.578125 6.296875 21.578125 C 6.226562 21.339844 6.078125 21.117188 5.878906 20.96875 C 5.671875 20.8125 5.394531 20.730469 5.058594 20.730469 C 4.601562 20.730469 4.25 20.894531 3.988281 21.230469 C 3.734375 21.570312 3.609375 22.023438 3.609375 22.582031 C 3.609375 23.160156 3.738281 23.605469 4.003906 23.941406 C 4.285156 24.285156 4.65625 24.453125 5.117188 24.453125 C 5.476562 24.453125 5.765625 24.347656 5.996094 24.132812 C 6.226562 23.945312 6.375 23.660156 6.433594 23.285156 L 6.441406 23.253906 C 6.441406 23.253906 5.300781 23.253906 5.246094 23.253906 C 5.246094 23.199219 5.246094 22.460938 5.246094 22.40625 C 5.300781 22.40625 7.3125 22.40625 7.367188 22.40625 C 7.367188 22.464844 7.367188 25.144531 7.367188 25.199219 C 7.316406 25.199219 6.730469 25.199219 6.6875 25.199219 C 6.679688 25.15625 6.550781 24.542969 6.550781 24.542969 L 6.511719 24.597656 C 6.328125 24.851562 6.105469 25.046875 5.847656 25.171875 C 5.621094 25.292969 5.328125 25.355469 4.988281 25.355469 C 4.261719 25.355469 3.664062 25.101562 3.214844 24.59375 Z M 3.214844 24.59375 "/>
<path style=" stroke:none;fill-rule:nonzero;fill:rgb(67.058824%,66.666667%,66.666667%);fill-opacity:1;" d="M 15.980469 0 L 16.617188 1.957031 L 18.675781 1.957031 L 17.007812 3.164062 L 17.644531 5.117188 L 15.980469 3.910156 L 14.3125 5.117188 L 14.949219 3.164062 L 13.285156 1.957031 L 15.34375 1.957031 Z M 15.980469 0 "/>
<path style=" stroke:none;fill-rule:nonzero;fill:rgb(57.647059%,45.882353%,30.980392%);fill-opacity:1;" d="M 7.722656 1.421875 L 8.359375 3.375 L 10.417969 3.375 L 8.75 4.582031 L 9.386719 6.539062 L 7.722656 5.332031 L 6.054688 6.539062 L 6.691406 4.582031 L 5.027344 3.375 L 7.085938 3.375 Z M 7.722656 1.421875 "/>
<path style=" stroke:none;fill-rule:nonzero;fill:rgb(97.254902%,76.470588%,0%);fill-opacity:1;" d="M 24.234375 1.421875 L 24.871094 3.375 L 26.929688 3.375 L 25.265625 4.582031 L 25.902344 6.539062 L 24.234375 5.332031 L 22.570312 6.539062 L 23.207031 4.582031 L 21.542969 3.375 L 23.601562 3.375 Z M 24.234375 1.421875 "/>
<path style=" stroke:none;fill-rule:nonzero;fill:rgb(12.156863%,10.196078%,9.019608%);fill-opacity:1;" d="M 15.335938 29.710938 C 15.464844 29.75 15.5625 29.808594 15.636719 29.910156 C 15.707031 30.007812 15.734375 30.125 15.734375 30.265625 C 15.734375 30.453125 15.679688 30.597656 15.550781 30.695312 C 15.425781 30.789062 15.265625 30.839844 15.097656 30.839844 L 14.488281 30.839844 L 14.488281 28.71875 L 15.117188 28.71875 C 15.425781 28.71875 15.664062 28.90625 15.664062 29.234375 C 15.664062 29.351562 15.636719 29.453125 15.578125 29.535156 C 15.523438 29.617188 15.433594 29.671875 15.335938 29.710938 Z M 15.019531 29.035156 L 14.886719 29.035156 L 14.886719 29.582031 L 15.019531 29.582031 C 15.183594 29.582031 15.277344 29.453125 15.277344 29.292969 C 15.277344 29.085938 15.183594 29.035156 15.019531 29.035156 Z M 15.335938 30.222656 C 15.335938 30.089844 15.292969 30.011719 15.242188 29.960938 C 15.183594 29.910156 15.074219 29.894531 15.003906 29.894531 L 14.886719 29.894531 L 14.886719 30.523438 L 15.097656 30.523438 C 15.203125 30.523438 15.335938 30.460938 15.335938 30.222656 Z M 15.335938 30.222656 "/>
<path style=" stroke:none;fill-rule:nonzero;fill:rgb(12.156863%,10.196078%,9.019608%);fill-opacity:1;" d="M 16.121094 28.71875 L 16.121094 30.839844 L 16.523438 30.839844 L 16.523438 30.039062 L 16.710938 30.039062 C 16.882812 30.023438 17.027344 29.96875 17.140625 29.867188 C 17.269531 29.738281 17.328125 29.582031 17.328125 29.363281 C 17.328125 29.148438 17.269531 28.992188 17.15625 28.878906 C 17.054688 28.777344 16.898438 28.71875 16.710938 28.71875 Z M 16.90625 29.363281 C 16.90625 29.609375 16.792969 29.738281 16.625 29.738281 L 16.523438 29.738281 L 16.523438 29.035156 L 16.625 29.035156 C 16.773438 29.035156 16.90625 29.101562 16.90625 29.363281 Z M 16.90625 29.363281 "/>
<path style=" stroke:none;fill-rule:nonzero;fill:rgb(12.156863%,10.196078%,9.019608%);fill-opacity:1;" d="M 16.265625 13.988281 C 16.152344 14.175781 16.09375 14.460938 16.09375 14.820312 C 16.09375 15.175781 16.152344 15.449219 16.265625 15.636719 C 16.382812 15.820312 16.539062 15.921875 16.753906 15.921875 C 16.96875 15.921875 17.128906 15.820312 17.242188 15.636719 C 17.355469 15.449219 17.414062 15.175781 17.414062 14.820312 C 17.414062 14.460938 17.355469 14.175781 17.242188 13.988281 C 17.128906 13.789062 16.96875 13.691406 16.753906 13.691406 C 16.539062 13.691406 16.382812 13.789062 16.265625 13.988281 Z M 17.011719 14.820312 C 17.011719 15.085938 17 15.300781 16.953125 15.414062 C 16.910156 15.523438 16.851562 15.578125 16.753906 15.578125 C 16.652344 15.578125 16.59375 15.523438 16.550781 15.414062 C 16.511719 15.300781 16.496094 15.085938 16.496094 14.820312 C 16.496094 14.542969 16.511719 14.324219 16.550781 14.203125 C 16.59375 14.089844 16.652344 14.035156 16.753906 14.035156 C 16.855469 14.035156 16.914062 14.089844 16.953125 14.203125 C 17 14.324219 17.011719 14.542969 17.011719 14.820312 Z M 17.011719 14.820312 "/>
</g>
</svg>
