<?xml version="1.0" encoding="UTF-8"?>
<svg xmlns="http://www.w3.org/2000/svg" xmlns:xlink="http://www.w3.org/1999/xlink" width="32px" height="32px" viewBox="0 0 32 32" version="1.1">
<g id="surface1">
<path style=" stroke:none;fill-rule:evenodd;fill:rgb(100%,100%,100%);fill-opacity:1;" d="M 16 0.0546875 C 24.808594 0.0546875 31.945312 7.191406 31.945312 16 C 31.945312 24.808594 24.808594 31.945312 16 31.945312 C 7.191406 31.945312 0.0546875 24.808594 0.0546875 16 C 0.0546875 7.191406 7.191406 0.0546875 16 0.0546875 "/>
<path style=" stroke:none;fill-rule:evenodd;fill:rgb(0%,39.215686%,21.568627%);fill-opacity:1;" d="M 16 0.90625 C 24.335938 0.90625 31.09375 7.664062 31.09375 16 C 31.09375 24.335938 24.335938 31.09375 16 31.09375 C 7.664062 31.09375 0.90625 24.335938 0.90625 16 C 0.90625 7.664062 7.664062 0.90625 16 0.90625 M 16 0.507812 C 24.554688 0.507812 31.492188 7.445312 31.492188 16 C 31.492188 24.554688 24.554688 31.492188 16 31.492188 C 7.445312 31.492188 0.507812 24.554688 0.507812 16 C 0.507812 7.445312 7.445312 0.507812 16 0.507812 "/>
<path style=" stroke:none;fill-rule:evenodd;fill:rgb(0%,39.215686%,21.568627%);fill-opacity:1;" d="M 23.601562 5.03125 L 23.78125 5.445312 L 23.472656 5.777344 L 23.921875 5.734375 L 24.144531 6.132812 L 24.242188 5.6875 L 24.683594 5.601562 L 24.292969 5.371094 L 24.347656 4.917969 L 24.007812 5.21875 Z M 24.917969 6.507812 L 25.042969 7.050781 L 24.597656 7.386719 L 25.152344 7.4375 L 25.328125 7.964844 L 25.546875 7.449219 L 26.101562 7.445312 L 25.683594 7.074219 L 25.847656 6.542969 L 25.371094 6.828125 Z M 26.046875 8.398438 L 26.054688 9.117188 L 25.402344 9.417969 L 26.085938 9.632812 L 26.167969 10.347656 L 26.582031 9.761719 L 27.28125 9.90625 L 26.855469 9.328125 L 27.207031 8.699219 L 26.53125 8.929688 Z M 26.855469 10.820312 L 26.636719 11.710938 L 25.734375 11.875 L 26.511719 12.359375 L 26.386719 13.269531 L 27.085938 12.675781 L 27.910156 13.078125 L 27.5625 12.226562 L 28.199219 11.5625 L 27.285156 11.632812 Z M 5.144531 10.820312 L 5.363281 11.710938 L 6.261719 11.875 L 5.484375 12.359375 L 5.609375 13.269531 L 4.914062 12.675781 L 4.089844 13.078125 L 4.433594 12.226562 L 3.800781 11.5625 L 4.710938 11.632812 Z M 5.949219 8.398438 L 5.941406 9.117188 L 6.59375 9.417969 L 5.910156 9.632812 L 5.832031 10.347656 L 5.417969 9.761719 L 4.714844 9.90625 L 5.140625 9.328125 L 4.789062 8.699219 L 5.46875 8.929688 Z M 7.078125 6.507812 L 6.953125 7.050781 L 7.398438 7.386719 L 6.847656 7.4375 L 6.667969 7.964844 L 6.449219 7.449219 L 5.894531 7.445312 L 6.3125 7.074219 L 6.148438 6.542969 L 6.625 6.828125 Z M 8.398438 5.03125 L 8.21875 5.445312 L 8.523438 5.777344 L 8.074219 5.734375 L 7.855469 6.132812 L 7.757812 5.6875 L 7.316406 5.601562 L 7.703125 5.371094 L 7.648438 4.917969 L 7.988281 5.21875 Z M 25.402344 15.257812 C 25.523438 15 25.628906 14.730469 25.730469 14.449219 C 25.453125 14.402344 25.226562 14.363281 25.007812 14.324219 C 24.480469 14.238281 24.132812 14.410156 23.960938 14.644531 C 23.789062 14.875 23.679688 15.09375 23.554688 15.410156 C 23.429688 15.726562 23.4375 16.304688 24.332031 16.703125 C 25.105469 17.0625 25.6875 17.421875 26.921875 16.367188 C 27.644531 15.789062 27.917969 15.984375 28.183594 16.039062 C 28.558594 16.164062 28.597656 16.316406 28.527344 16.714844 C 28.425781 17.207031 27.871094 16.945312 27.605469 16.839844 C 27.503906 17.230469 27.398438 17.53125 27.226562 17.949219 C 27.386719 18.019531 27.585938 18.109375 27.769531 18.183594 C 28.589844 18.515625 29.515625 18.335938 29.730469 17.339844 C 29.859375 16.675781 29.820312 16.347656 29.820312 16.234375 C 29.808594 15.617188 29.355469 15.066406 28.566406 14.925781 C 27.800781 14.769531 27.289062 14.730469 26.214844 15.535156 C 25.664062 15.945312 25.574219 16.097656 25.074219 15.898438 C 24.808594 15.800781 24.554688 15.710938 24.703125 15.398438 C 24.816406 15.160156 24.933594 15.117188 25.402344 15.257812 M 23.882812 18.265625 L 26.296875 19.253906 C 26.109375 19.628906 26.015625 19.820312 25.757812 20.207031 Z M 22.589844 16.722656 C 22.386719 16.9375 22.175781 17.160156 21.933594 17.371094 L 27.167969 23.945312 C 27.484375 23.515625 27.804688 22.996094 28.078125 22.515625 L 26.644531 21.085938 C 26.953125 20.585938 27.085938 20.300781 27.339844 19.71875 L 28.96875 20.425781 C 29.152344 19.953125 29.292969 19.523438 29.390625 19.066406 Z M 22.074219 22.164062 C 22.648438 21.789062 23 21.496094 22.289062 20.664062 L 21.496094 19.664062 C 21.011719 19 20.730469 19.359375 20.367188 19.527344 Z M 23.289062 27.625 L 19.109375 19.074219 C 19.644531 18.878906 20.101562 18.652344 20.554688 18.386719 C 21.128906 18.015625 21.609375 18.390625 22.09375 18.835938 L 23.316406 19.972656 C 24.476562 21.050781 24.265625 21.855469 24.007812 22.113281 L 27.046875 24.109375 C 26.71875 24.566406 26.394531 24.964844 26.027344 25.34375 L 23.0625 22.949219 L 22.714844 23.183594 L 24.929688 26.421875 C 24.449219 26.84375 23.839844 27.285156 23.289062 27.625 M 18.003906 19.410156 C 18.308594 19.335938 18.507812 19.28125 18.792969 19.1875 L 22.699219 27.980469 C 22.171875 28.269531 21.523438 28.589844 20.867188 28.835938 Z M 17.707031 19.46875 C 17.097656 19.578125 16.746094 19.621094 15.945312 19.628906 L 15.738281 29.710938 C 17.3125 29.753906 18.910156 29.496094 20.265625 29.042969 L 19.8125 27.339844 C 19.089844 27.574219 18.378906 27.746094 17.675781 27.808594 L 17.277344 24.367188 C 18.003906 24.289062 18.402344 24.199219 18.921875 24.03125 L 18.578125 22.75 C 18.09375 22.886719 17.628906 22.964844 17.121094 23.019531 L 16.839844 20.589844 C 17.21875 20.578125 17.617188 20.511719 17.96875 20.421875 Z M 8.214844 27.265625 L 12.710938 18.996094 C 12.976562 19.105469 13.277344 19.199219 13.546875 19.28125 L 13.050781 23.539062 C 13.1875 23.230469 14.722656 19.550781 14.722656 19.535156 C 14.957031 19.570312 15.402344 19.613281 15.597656 19.621094 L 14.992188 29.675781 C 14.476562 29.660156 13.683594 29.539062 13.121094 29.40625 L 13.980469 24.332031 L 11.820312 27.800781 L 11.765625 23.585938 C 11.585938 24.121094 9.800781 28.207031 9.800781 28.222656 C 9.164062 27.894531 8.640625 27.566406 8.214844 27.265625 M 5.347656 24.589844 L 11.15625 18.179688 C 11.136719 18.171875 11.683594 18.507812 11.945312 18.644531 L 7.457031 24.59375 C 7.929688 25.058594 8.105469 25.207031 8.675781 25.636719 L 7.863281 27.015625 C 7.011719 26.402344 5.890625 25.3125 5.347656 24.589844 M 8.429688 18.382812 L 5.832031 19.464844 C 6.027344 19.847656 6.214844 20.144531 6.476562 20.492188 Z M 9.558594 16.84375 C 9.769531 17.0625 10.027344 17.3125 10.285156 17.527344 L 5.164062 24.363281 C 4.835938 23.933594 4.496094 23.425781 4.21875 22.957031 L 5.652344 21.410156 C 5.335938 20.933594 5.058594 20.527344 4.796875 19.917969 L 3.136719 20.652344 C 2.953125 20.167969 2.796875 19.632812 2.71875 19.265625 Z M 7.234375 15.171875 L 5.390625 15.671875 C 5.414062 15.835938 5.441406 15.957031 5.492188 16.117188 C 5.625 16.558594 5.832031 16.550781 6.351562 16.363281 L 7.023438 16.109375 C 7.292969 15.992188 7.5625 15.871094 7.417969 15.5625 C 7.328125 15.394531 7.234375 15.164062 7.234375 15.171875 M 7.8125 14.144531 C 7.929688 14.449219 8.277344 15.113281 8.417969 15.335938 C 8.769531 15.871094 8.539062 16.480469 7.886719 16.816406 L 6.550781 17.496094 C 5.910156 17.8125 4.703125 17.671875 4.476562 16.816406 C 4.375 16.527344 4.328125 16.296875 4.257812 15.984375 L 2.347656 16.515625 C 2.300781 15.824219 2.296875 15.703125 2.335938 15.113281 Z M 16 2.703125 C 20.429688 2.703125 24.019531 6.296875 24.019531 10.722656 C 24.019531 15.152344 20.429688 18.742188 16 18.742188 C 11.570312 18.742188 7.980469 15.152344 7.980469 10.722656 C 7.980469 6.296875 11.570312 2.703125 16 2.703125 M 16 1.339844 C 24.097656 1.339844 30.660156 7.902344 30.660156 16 C 30.660156 24.097656 24.097656 30.660156 16 30.660156 C 7.902344 30.660156 1.339844 24.097656 1.339844 16 C 1.339844 7.902344 7.902344 1.339844 16 1.339844 "/>
<path style=" stroke:none;fill-rule:evenodd;fill:rgb(0%,39.215686%,21.568627%);fill-opacity:1;" d="M 21.933594 6.46875 C 18.457031 5.652344 16.332031 3.765625 16 3.433594 C 15.675781 3.765625 13.484375 5.675781 10.074219 6.46875 C 10.007812 13.914062 15.515625 17.742188 16 18.070312 C 16.484375 17.746094 21.984375 14.054688 21.933594 6.46875 M 16.089844 3.3125 C 17.992188 5.019531 20.167969 5.902344 21.980469 6.332031 C 20.644531 4.519531 18.503906 3.339844 16.089844 3.3125 M 10.015625 6.332031 C 11.773438 5.921875 13.929688 5.015625 15.910156 3.3125 C 13.492188 3.339844 11.351562 4.523438 10.015625 6.332031 M 15.871094 18.171875 C 12.105469 15.546875 9.816406 10.902344 9.921875 6.464844 C 9.070312 7.675781 8.566406 9.148438 8.566406 10.742188 C 8.566406 14.804688 11.828125 18.105469 15.871094 18.171875 M 22.082031 6.472656 C 22.191406 10.9375 19.984375 15.511719 16.128906 18.171875 C 20.175781 18.101562 23.429688 14.800781 23.429688 10.742188 C 23.429688 9.152344 22.933594 7.679688 22.082031 6.472656 M 16 3.117188 C 20.203125 3.117188 23.609375 6.523438 23.609375 10.726562 C 23.609375 14.925781 20.203125 18.332031 16 18.332031 C 11.796875 18.332031 8.390625 14.925781 8.390625 10.726562 C 8.390625 6.523438 11.796875 3.117188 16 3.117188 "/>
<path style=" stroke:none;fill-rule:nonzero;fill:rgb(0%,39.215686%,21.568627%);fill-opacity:1;" d="M 13.84375 9.324219 L 13.84375 7.296875 C 13.84375 6.898438 13.382812 6.792969 13.011719 6.8125 C 13.378906 6.230469 13.921875 6.035156 14.441406 6.476562 C 14.789062 5.988281 15.644531 5.3125 16.449219 5.335938 C 20.042969 5.394531 20.199219 10.554688 17.65625 11.480469 C 15.191406 12.375 14.8125 9.214844 16.351562 9.320312 C 17.355469 9.410156 17.039062 11.082031 16.136719 10.558594 C 16.488281 11.585938 18.742188 10.53125 17.59375 8.511719 C 18.355469 7.734375 17.695312 6.1875 16.574219 6.171875 C 15.621094 6.15625 15.222656 7.046875 15.21875 7.652344 L 15.21875 13.371094 C 15.207031 14.382812 15.351562 15.171875 16.1875 15.613281 C 15.34375 16.007812 14.464844 15.433594 14.308594 14.570312 C 13.945312 14.722656 13.566406 14.617188 13.257812 14.125 C 13.574219 14.085938 13.84375 13.878906 13.84375 13.394531 L 13.84375 10.132812 L 13.421875 9.738281 Z M 13.292969 6.679688 C 13.578125 6.671875 13.988281 6.875 13.988281 7.292969 L 13.988281 9.382812 L 13.628906 9.738281 L 13.988281 10.070312 L 13.988281 13.441406 C 13.988281 13.679688 13.9375 14.050781 13.515625 14.210938 C 13.820312 14.578125 14.109375 14.511719 14.4375 14.328125 C 14.507812 15.347656 15.320312 15.679688 15.855469 15.566406 C 15.152344 15.050781 15.078125 14.234375 15.074219 13.527344 L 15.074219 7.640625 C 15.074219 7.058594 15.472656 6.03125 16.574219 6.035156 C 17.808594 6.035156 18.488281 7.652344 17.765625 8.511719 C 19.023438 10.839844 16.019531 12.007812 15.929688 10.253906 C 16.90625 11.089844 17.136719 9.527344 16.328125 9.460938 C 15.011719 9.351562 15.414062 12.222656 17.660156 11.324219 C 19.988281 10.371094 19.882812 5.5625 16.449219 5.472656 C 15.65625 5.453125 14.933594 6.078125 14.460938 6.691406 C 14.09375 6.328125 13.710938 6.234375 13.292969 6.679688 M 16.574219 16.90625 L 15.429688 16.90625 C 15.71875 17.140625 15.925781 17.285156 16.003906 17.335938 C 16.078125 17.285156 16.28125 17.144531 16.574219 16.90625 M 17.136719 16.414062 L 14.871094 16.414062 C 15.046875 16.578125 15.210938 16.722656 15.355469 16.84375 L 16.648438 16.84375 C 16.792969 16.722656 16.957031 16.578125 17.136719 16.414062 M 17.632812 15.933594 L 14.378906 15.933594 C 14.527344 16.085938 14.671875 16.226562 14.804688 16.355469 L 17.203125 16.355469 C 17.339844 16.226562 17.484375 16.085938 17.632812 15.933594 M 17.628906 10.46875 L 17.804688 10.46875 C 17.789062 10.488281 17.777344 10.507812 17.765625 10.53125 L 17.578125 10.53125 C 17.597656 10.507812 17.613281 10.488281 17.628906 10.46875 M 16.832031 10.46875 L 17.628906 10.46875 C 17.613281 10.488281 17.597656 10.507812 17.578125 10.53125 L 16.78125 10.53125 C 16.800781 10.511719 16.816406 10.492188 16.832031 10.46875 M 16.769531 10.46875 L 16.832031 10.46875 C 16.816406 10.492188 16.800781 10.511719 16.78125 10.53125 L 16.664062 10.53125 C 16.703125 10.515625 16.738281 10.496094 16.769531 10.46875 M 17.871094 9.96875 L 17.980469 9.96875 C 17.976562 9.988281 17.972656 10.007812 17.96875 10.03125 L 17.855469 10.03125 C 17.859375 10.007812 17.867188 9.988281 17.871094 9.96875 M 16.972656 9.96875 L 17.871094 9.96875 C 17.867188 9.988281 17.859375 10.007812 17.855469 10.03125 L 16.972656 10.03125 C 16.972656 10.007812 16.972656 9.988281 16.972656 9.96875 M 16.890625 9.96875 L 16.972656 9.96875 C 16.972656 9.988281 16.972656 10.007812 16.972656 10.03125 L 16.898438 10.03125 C 16.898438 10.007812 16.894531 9.988281 16.890625 9.96875 M 15.472656 9.96875 L 15.539062 9.96875 C 15.53125 9.988281 15.527344 10.007812 15.523438 10.03125 L 15.460938 10.03125 C 15.464844 10.007812 15.46875 9.988281 15.472656 9.96875 M 15.21875 9.96875 L 15.472656 9.96875 C 15.46875 9.988281 15.464844 10.007812 15.460938 10.03125 L 15.21875 10.03125 Z M 15.121094 9.96875 L 15.21875 9.96875 L 15.21875 10.03125 L 15.121094 10.03125 Z M 17.914062 9.484375 L 17.996094 9.484375 C 18 9.503906 18 9.523438 18 9.542969 L 17.914062 9.542969 C 17.914062 9.523438 17.914062 9.503906 17.914062 9.484375 M 16.75 9.484375 L 17.914062 9.484375 C 17.914062 9.503906 17.914062 9.523438 17.914062 9.542969 L 16.8125 9.542969 C 16.792969 9.523438 16.773438 9.503906 16.75 9.484375 M 16.523438 9.484375 L 16.75 9.484375 C 16.773438 9.503906 16.792969 9.523438 16.8125 9.542969 L 16.625 9.542969 C 16.59375 9.523438 16.558594 9.5 16.523438 9.484375 M 15.769531 9.484375 L 15.988281 9.484375 C 15.941406 9.5 15.898438 9.523438 15.859375 9.542969 L 15.703125 9.542969 C 15.722656 9.523438 15.746094 9.503906 15.769531 9.484375 M 15.21875 9.484375 L 15.769531 9.484375 C 15.746094 9.503906 15.722656 9.523438 15.703125 9.542969 L 15.21875 9.542969 Z M 15.121094 9.484375 L 15.21875 9.484375 L 15.21875 9.542969 L 15.121094 9.542969 Z M 17.8125 8.992188 L 17.902344 8.992188 C 17.90625 9.011719 17.914062 9.03125 17.917969 9.050781 L 17.832031 9.050781 C 17.824219 9.03125 17.816406 9.011719 17.8125 8.992188 M 15.21875 8.992188 L 17.8125 8.992188 C 17.816406 9.011719 17.824219 9.03125 17.832031 9.050781 L 15.21875 9.050781 Z M 15.121094 8.992188 L 15.21875 8.992188 L 15.21875 9.050781 L 15.121094 9.050781 Z M 17.605469 8.5 L 17.730469 8.5 C 17.722656 8.503906 17.71875 8.511719 17.710938 8.519531 C 17.71875 8.53125 17.726562 8.546875 17.730469 8.558594 L 17.621094 8.558594 C 17.609375 8.542969 17.601562 8.527344 17.59375 8.511719 C 17.597656 8.507812 17.601562 8.503906 17.605469 8.5 M 15.21875 8.5 L 17.605469 8.5 C 17.601562 8.503906 17.597656 8.507812 17.59375 8.511719 C 17.601562 8.527344 17.609375 8.542969 17.621094 8.558594 L 15.21875 8.558594 Z M 15.125 8.5 L 15.21875 8.5 L 15.21875 8.558594 L 15.125 8.558594 Z M 17.878906 8.007812 L 17.976562 8.007812 C 17.972656 8.027344 17.964844 8.046875 17.960938 8.066406 L 17.859375 8.066406 C 17.867188 8.046875 17.875 8.027344 17.878906 8.007812 M 15.21875 8.007812 L 17.878906 8.007812 C 17.875 8.027344 17.867188 8.046875 17.859375 8.066406 L 15.21875 8.066406 Z M 15.125 8.007812 L 15.21875 8.007812 L 15.21875 8.066406 L 15.125 8.066406 Z M 17.910156 7.515625 L 18 7.515625 C 18 7.535156 18.003906 7.554688 18.003906 7.574219 L 17.917969 7.574219 C 17.917969 7.554688 17.914062 7.535156 17.910156 7.515625 M 15.226562 7.515625 L 17.910156 7.515625 C 17.914062 7.535156 17.917969 7.554688 17.917969 7.574219 L 15.222656 7.574219 C 15.222656 7.554688 15.226562 7.535156 15.226562 7.515625 M 15.128906 7.515625 L 15.226562 7.515625 C 15.226562 7.535156 15.222656 7.554688 15.222656 7.574219 L 15.125 7.574219 C 15.125 7.554688 15.125 7.535156 15.128906 7.515625 M 17.773438 7.019531 L 17.867188 7.019531 C 17.875 7.042969 17.882812 7.0625 17.890625 7.082031 L 17.800781 7.082031 C 17.792969 7.0625 17.78125 7.042969 17.773438 7.019531 M 15.351562 7.019531 L 17.773438 7.019531 C 17.78125 7.042969 17.792969 7.0625 17.800781 7.082031 L 15.328125 7.082031 C 15.335938 7.0625 15.34375 7.042969 15.351562 7.019531 M 15.246094 7.019531 L 15.351562 7.019531 C 15.34375 7.042969 15.335938 7.0625 15.328125 7.082031 L 15.222656 7.082031 C 15.230469 7.0625 15.238281 7.042969 15.246094 7.019531 M 17.425781 6.53125 L 17.566406 6.53125 C 17.582031 6.550781 17.597656 6.570312 17.613281 6.589844 L 17.484375 6.589844 C 17.464844 6.570312 17.445312 6.550781 17.425781 6.53125 M 15.667969 6.53125 L 17.425781 6.53125 C 17.445312 6.550781 17.464844 6.570312 17.484375 6.589844 L 15.613281 6.589844 C 15.632812 6.570312 15.648438 6.550781 15.667969 6.53125 M 15.570312 6.53125 L 15.667969 6.53125 C 15.648438 6.550781 15.632812 6.570312 15.613281 6.589844 L 15.515625 6.589844 C 15.53125 6.570312 15.550781 6.550781 15.570312 6.53125 M 16.101562 11.453125 L 16.480469 11.453125 C 16.585938 11.484375 16.699219 11.507812 16.820312 11.515625 L 16.21875 11.515625 C 16.175781 11.496094 16.136719 11.476562 16.101562 11.453125 M 15.21875 11.453125 L 16.101562 11.453125 C 16.136719 11.476562 16.179688 11.496094 16.21875 11.515625 L 15.21875 11.515625 Z M 15.117188 11.453125 L 15.21875 11.453125 L 15.21875 11.515625 L 15.117188 11.515625 Z M 15.617188 10.960938 L 15.765625 10.960938 C 15.78125 10.980469 15.800781 11 15.816406 11.019531 L 15.652344 11.019531 C 15.640625 11 15.628906 10.980469 15.617188 10.960938 M 15.21875 10.960938 L 15.617188 10.960938 C 15.628906 10.980469 15.640625 11 15.652344 11.019531 L 15.21875 11.019531 Z M 15.121094 10.960938 L 15.21875 10.960938 L 15.21875 11.019531 L 15.117188 11.019531 Z M 15.449219 10.46875 L 15.535156 10.46875 C 15.539062 10.488281 15.542969 10.507812 15.550781 10.53125 L 15.460938 10.53125 C 15.457031 10.507812 15.453125 10.488281 15.449219 10.46875 M 15.21875 10.46875 L 15.453125 10.46875 C 15.453125 10.488281 15.457031 10.507812 15.460938 10.53125 L 15.21875 10.53125 Z M 15.121094 10.46875 L 15.21875 10.46875 L 15.21875 10.53125 L 15.121094 10.53125 Z M 17.695312 5.605469 L 17.597656 5.605469 C 17.539062 5.585938 17.480469 5.5625 17.421875 5.546875 L 17.554688 5.546875 C 17.601562 5.566406 17.648438 5.585938 17.695312 5.605469 M 18.417969 6.097656 L 18.390625 6.097656 C 18.367188 6.078125 18.34375 6.054688 18.320312 6.035156 L 18.351562 6.035156 C 18.375 6.054688 18.398438 6.078125 18.417969 6.097656 M 18.828125 6.589844 L 18.808594 6.589844 C 18.796875 6.570312 18.78125 6.550781 18.769531 6.53125 L 18.785156 6.53125 C 18.800781 6.550781 18.8125 6.570312 18.828125 6.589844 M 19.089844 7.082031 L 19.070312 7.082031 C 19.0625 7.0625 19.050781 7.042969 19.042969 7.019531 L 19.0625 7.019531 C 19.070312 7.042969 19.082031 7.0625 19.089844 7.082031 M 19.257812 7.574219 L 19.234375 7.574219 C 19.230469 7.554688 19.222656 7.535156 19.21875 7.515625 L 19.242188 7.515625 C 19.246094 7.535156 19.253906 7.554688 19.257812 7.574219 M 19.351562 8.066406 L 19.324219 8.066406 C 19.320312 8.046875 19.320312 8.027344 19.316406 8.007812 L 19.34375 8.007812 C 19.347656 8.027344 19.351562 8.046875 19.351562 8.066406 M 19.382812 8.558594 L 19.347656 8.558594 C 19.347656 8.539062 19.347656 8.519531 19.347656 8.5 L 19.382812 8.5 C 19.382812 8.519531 19.382812 8.539062 19.382812 8.558594 M 19.351562 9.050781 L 19.3125 9.050781 C 19.316406 9.03125 19.320312 9.011719 19.320312 8.992188 L 19.359375 8.992188 C 19.359375 9.011719 19.355469 9.03125 19.351562 9.050781 M 19.257812 9.542969 L 19.214844 9.542969 C 19.21875 9.523438 19.226562 9.503906 19.230469 9.484375 L 19.273438 9.484375 C 19.269531 9.503906 19.261719 9.523438 19.257812 9.542969 M 19.09375 10.03125 L 19.042969 10.03125 C 19.054688 10.007812 19.0625 9.988281 19.070312 9.96875 L 19.117188 9.96875 C 19.109375 9.988281 19.101562 10.007812 19.09375 10.03125 M 18.828125 10.53125 L 18.765625 10.53125 C 18.78125 10.507812 18.792969 10.488281 18.808594 10.46875 L 18.867188 10.46875 C 18.855469 10.488281 18.839844 10.507812 18.828125 10.53125 M 18.410156 11.019531 L 18.320312 11.019531 C 18.34375 11 18.367188 10.980469 18.390625 10.960938 L 18.472656 10.960938 C 18.453125 10.980469 18.429688 11 18.410156 11.019531 M 17.554688 11.515625 L 17.0625 11.515625 C 17.179688 11.507812 17.304688 11.484375 17.4375 11.453125 L 17.722656 11.453125 C 17.699219 11.460938 17.679688 11.472656 17.65625 11.480469 C 17.621094 11.492188 17.589844 11.503906 17.554688 11.515625 M 15.21875 12.003906 L 15.117188 12.003906 L 15.117188 11.945312 L 15.21875 11.945312 Z M 15.21875 12.5 L 15.117188 12.5 L 15.117188 12.4375 L 15.21875 12.4375 Z M 15.21875 12.988281 L 15.117188 12.988281 L 15.117188 12.929688 L 15.21875 12.929688 Z M 15.21875 13.472656 L 15.113281 13.472656 L 15.113281 13.410156 L 15.21875 13.410156 C 15.21875 13.429688 15.21875 13.453125 15.21875 13.472656 M 15.238281 13.960938 L 15.113281 13.960938 L 15.113281 13.902344 L 15.234375 13.902344 C 15.234375 13.921875 15.234375 13.941406 15.238281 13.960938 M 15.3125 14.457031 L 15.203125 14.457031 C 15.199219 14.4375 15.195312 14.414062 15.1875 14.394531 L 15.296875 14.394531 C 15.300781 14.417969 15.308594 14.4375 15.3125 14.457031 M 15.496094 14.949219 L 15.390625 14.949219 C 15.378906 14.925781 15.371094 14.90625 15.359375 14.886719 L 15.464844 14.886719 C 15.472656 14.90625 15.484375 14.925781 15.496094 14.949219 M 15.917969 15.441406 L 15.753906 15.441406 C 15.734375 15.421875 15.710938 15.402344 15.691406 15.378906 L 15.84375 15.378906 C 15.867188 15.402344 15.890625 15.421875 15.917969 15.441406 M 14.746094 15.378906 L 14.878906 15.378906 C 14.898438 15.402344 14.921875 15.421875 14.945312 15.441406 L 14.8125 15.441406 C 14.789062 15.421875 14.769531 15.402344 14.746094 15.378906 M 14.40625 14.886719 L 14.539062 14.886719 C 14.546875 14.90625 14.554688 14.925781 14.566406 14.949219 L 14.429688 14.949219 C 14.421875 14.925781 14.414062 14.90625 14.40625 14.886719 M 13.472656 14.394531 L 13.605469 14.394531 C 13.636719 14.417969 13.667969 14.4375 13.703125 14.457031 L 13.539062 14.457031 C 13.519531 14.4375 13.496094 14.417969 13.472656 14.394531 M 13.691406 13.902344 L 13.867188 13.902344 C 13.863281 13.917969 13.863281 13.933594 13.859375 13.949219 C 13.855469 13.953125 13.851562 13.957031 13.847656 13.960938 L 13.632812 13.960938 C 13.652344 13.945312 13.671875 13.925781 13.691406 13.902344 M 13.84375 13.410156 L 13.878906 13.410156 L 13.878906 13.472656 L 13.839844 13.472656 C 13.839844 13.453125 13.84375 13.433594 13.84375 13.410156 M 13.84375 12.929688 L 13.878906 12.929688 L 13.878906 12.988281 L 13.84375 12.988281 Z M 13.84375 12.4375 L 13.882812 12.4375 L 13.882812 12.5 L 13.84375 12.5 Z M 13.84375 11.945312 L 13.882812 11.945312 L 13.882812 12.003906 L 13.84375 12.003906 Z M 13.84375 11.453125 L 13.882812 11.453125 L 13.882812 11.515625 L 13.84375 11.515625 Z M 13.84375 10.960938 L 13.882812 10.960938 L 13.882812 11.019531 L 13.84375 11.019531 Z M 13.84375 10.46875 L 13.882812 10.46875 L 13.882812 10.53125 L 13.84375 10.53125 Z M 13.667969 9.96875 L 13.757812 9.96875 L 13.8125 10.03125 L 13.734375 10.03125 Z M 13.84375 8.992188 L 13.882812 8.992188 L 13.882812 9.050781 L 13.84375 9.050781 Z M 13.84375 8.5 L 13.882812 8.5 L 13.882812 8.558594 L 13.84375 8.558594 Z M 13.84375 8.007812 L 13.886719 8.007812 L 13.886719 8.066406 L 13.84375 8.066406 Z M 13.84375 7.515625 L 13.886719 7.515625 L 13.886719 7.574219 L 13.84375 7.574219 Z M 13.742188 7.019531 L 13.871094 7.019531 C 13.878906 7.039062 13.882812 7.0625 13.882812 7.082031 L 13.785156 7.082031 C 13.773438 7.058594 13.757812 7.039062 13.742188 7.019531 M 13.234375 6.53125 L 13.335938 6.53125 C 13.316406 6.550781 13.300781 6.570312 13.28125 6.589844 L 13.179688 6.589844 C 13.195312 6.570312 13.214844 6.550781 13.234375 6.53125 M 14.847656 6.035156 L 15.023438 6.035156 C 15 6.054688 14.980469 6.078125 14.957031 6.097656 L 14.78125 6.097656 C 14.804688 6.078125 14.824219 6.054688 14.847656 6.035156 M 15.578125 5.546875 L 15.742188 5.546875 C 15.699219 5.5625 15.65625 5.585938 15.617188 5.605469 L 15.460938 5.605469 C 15.5 5.585938 15.539062 5.566406 15.578125 5.546875 M 17.234375 5.113281 L 14.734375 5.113281 C 14.519531 5.253906 14.277344 5.398438 14.011719 5.546875 L 15.578125 5.546875 C 15.539062 5.566406 15.5 5.585938 15.460938 5.605469 L 13.902344 5.605469 C 13.636719 5.75 13.347656 5.894531 13.039062 6.035156 L 14.847656 6.035156 C 14.824219 6.054688 14.804688 6.078125 14.78125 6.097656 L 12.90625 6.097656 C 12.558594 6.25 12.1875 6.398438 11.796875 6.53125 L 13.234375 6.53125 C 13.214844 6.550781 13.199219 6.570312 13.179688 6.589844 L 11.613281 6.589844 C 11.316406 6.6875 11.007812 6.773438 10.6875 6.851562 C 10.6875 6.90625 10.6875 6.964844 10.6875 7.019531 L 13.742188 7.019531 C 13.757812 7.039062 13.773438 7.058594 13.785156 7.082031 L 10.6875 7.082031 C 10.691406 7.226562 10.695312 7.371094 10.703125 7.515625 L 13.84375 7.515625 L 13.84375 7.574219 L 10.707031 7.574219 C 10.714844 7.71875 10.722656 7.863281 10.734375 8.007812 L 13.84375 8.007812 L 13.84375 8.066406 L 10.738281 8.066406 C 10.753906 8.210938 10.769531 8.355469 10.785156 8.5 L 13.84375 8.5 L 13.84375 8.558594 L 10.792969 8.558594 C 10.8125 8.707031 10.832031 8.847656 10.855469 8.992188 L 13.84375 8.992188 L 13.84375 9.050781 L 10.867188 9.050781 C 10.890625 9.199219 10.917969 9.34375 10.949219 9.484375 L 13.886719 9.484375 L 13.824219 9.546875 L 10.960938 9.546875 C 10.988281 9.6875 11.023438 9.828125 11.054688 9.96875 L 13.667969 9.96875 L 13.734375 10.03125 L 11.070312 10.03125 C 11.109375 10.179688 11.148438 10.324219 11.191406 10.46875 L 13.84375 10.46875 L 13.84375 10.53125 L 11.207031 10.53125 C 11.25 10.675781 11.296875 10.820312 11.34375 10.960938 L 13.84375 10.960938 L 13.84375 11.019531 L 11.363281 11.019531 C 11.414062 11.167969 11.464844 11.3125 11.519531 11.453125 L 13.84375 11.453125 L 13.84375 11.515625 L 11.542969 11.515625 C 11.597656 11.660156 11.65625 11.804688 11.71875 11.945312 L 13.84375 11.945312 L 13.84375 12.003906 L 11.746094 12.003906 C 11.808594 12.152344 11.875 12.296875 11.941406 12.4375 L 13.84375 12.4375 L 13.84375 12.5 L 11.972656 12.5 C 12.042969 12.644531 12.117188 12.789062 12.191406 12.929688 L 13.84375 12.929688 L 13.84375 12.992188 L 12.222656 12.992188 C 12.300781 13.132812 12.382812 13.273438 12.460938 13.410156 L 13.84375 13.410156 C 13.84375 13.433594 13.839844 13.453125 13.839844 13.472656 L 12.496094 13.472656 C 12.585938 13.621094 12.675781 13.761719 12.765625 13.902344 L 13.691406 13.902344 C 13.671875 13.925781 13.652344 13.945312 13.632812 13.960938 L 12.804688 13.960938 C 12.902344 14.113281 13.003906 14.257812 13.101562 14.394531 L 13.472656 14.394531 C 13.496094 14.417969 13.519531 14.4375 13.539062 14.457031 L 13.144531 14.457031 C 13.253906 14.605469 13.363281 14.75 13.46875 14.886719 L 14.402344 14.886719 C 14.414062 14.90625 14.421875 14.925781 14.429688 14.949219 L 13.519531 14.949219 C 13.636719 15.097656 13.757812 15.242188 13.875 15.378906 L 14.746094 15.378906 C 14.765625 15.402344 14.789062 15.421875 14.8125 15.441406 L 13.929688 15.441406 C 14.0625 15.59375 14.195312 15.738281 14.320312 15.871094 L 17.691406 15.871094 C 17.820312 15.738281 17.953125 15.59375 18.085938 15.441406 L 15.917969 15.441406 C 15.890625 15.421875 15.867188 15.402344 15.84375 15.378906 L 18.140625 15.378906 C 18.257812 15.242188 18.378906 15.097656 18.5 14.949219 L 15.496094 14.949219 C 15.484375 14.925781 15.472656 14.90625 15.460938 14.886719 L 18.550781 14.886719 C 18.65625 14.75 18.765625 14.605469 18.875 14.457031 L 15.3125 14.457031 C 15.304688 14.4375 15.300781 14.417969 15.296875 14.394531 L 18.917969 14.394531 C 19.019531 14.257812 19.117188 14.113281 19.214844 13.960938 L 15.238281 13.960938 C 15.234375 13.941406 15.234375 13.921875 15.234375 13.902344 L 19.257812 13.902344 C 19.347656 13.761719 19.4375 13.621094 19.523438 13.472656 L 15.21875 13.472656 C 15.21875 13.453125 15.21875 13.429688 15.21875 13.410156 L 19.5625 13.410156 C 19.640625 13.273438 19.71875 13.132812 19.796875 12.992188 L 15.21875 12.992188 L 15.21875 12.929688 L 19.832031 12.929688 C 19.90625 12.789062 19.980469 12.644531 20.050781 12.5 L 15.21875 12.5 L 15.21875 12.4375 L 20.078125 12.4375 C 20.148438 12.296875 20.210938 12.152344 20.277344 12.003906 L 15.21875 12.003906 L 15.21875 11.945312 L 20.300781 11.945312 C 20.363281 11.804688 20.421875 11.660156 20.476562 11.515625 L 17.554688 11.515625 C 17.589844 11.503906 17.621094 11.492188 17.65625 11.480469 C 17.679688 11.472656 17.699219 11.460938 17.722656 11.453125 L 20.5 11.453125 C 20.554688 11.3125 20.605469 11.167969 20.652344 11.019531 L 18.410156 11.019531 C 18.429688 11 18.453125 10.980469 18.472656 10.960938 L 20.675781 10.960938 C 20.722656 10.820312 20.765625 10.675781 20.808594 10.53125 L 18.828125 10.53125 C 18.839844 10.507812 18.855469 10.488281 18.867188 10.46875 L 20.824219 10.46875 C 20.867188 10.324219 20.90625 10.179688 20.941406 10.03125 L 19.09375 10.03125 C 19.101562 10.007812 19.109375 9.988281 19.117188 9.96875 L 20.957031 9.96875 C 20.992188 9.828125 21.023438 9.6875 21.050781 9.546875 L 19.257812 9.546875 C 19.261719 9.523438 19.269531 9.503906 19.273438 9.484375 L 21.066406 9.484375 C 21.09375 9.34375 21.121094 9.199219 21.144531 9.050781 L 19.351562 9.050781 C 19.355469 9.03125 19.359375 9.011719 19.359375 8.992188 L 21.152344 8.992188 C 21.175781 8.847656 21.195312 8.707031 21.214844 8.558594 L 19.382812 8.558594 C 19.382812 8.539062 19.382812 8.519531 19.382812 8.5 L 21.222656 8.5 C 21.238281 8.355469 21.253906 8.210938 21.265625 8.066406 L 19.351562 8.066406 C 19.351562 8.046875 19.347656 8.027344 19.34375 8.007812 L 21.269531 8.007812 C 21.28125 7.863281 21.292969 7.71875 21.300781 7.574219 L 19.257812 7.574219 C 19.253906 7.554688 19.246094 7.535156 19.242188 7.515625 L 21.300781 7.515625 C 21.308594 7.371094 21.3125 7.226562 21.316406 7.082031 L 19.089844 7.082031 C 19.082031 7.0625 19.070312 7.042969 19.0625 7.019531 L 21.316406 7.019531 C 21.316406 6.964844 21.316406 6.90625 21.316406 6.851562 C 20.988281 6.773438 20.671875 6.6875 20.371094 6.589844 L 18.828125 6.589844 C 18.8125 6.570312 18.800781 6.550781 18.785156 6.53125 L 20.183594 6.53125 C 19.78125 6.398438 19.40625 6.25 19.058594 6.097656 L 18.417969 6.097656 C 18.398438 6.078125 18.375 6.054688 18.351562 6.035156 L 18.921875 6.035156 C 18.613281 5.894531 18.324219 5.75 18.058594 5.605469 L 17.695312 5.605469 C 17.648438 5.585938 17.601562 5.566406 17.554688 5.546875 L 17.949219 5.546875 C 17.6875 5.398438 17.449219 5.253906 17.234375 5.113281 M 16.546875 4.621094 L 15.441406 4.621094 C 15.269531 4.75 15.066406 4.894531 14.828125 5.050781 L 17.144531 5.050781 C 16.910156 4.894531 16.710938 4.75 16.546875 4.621094 M 15.523438 4.5625 L 16.46875 4.5625 C 16.226562 4.367188 16.070312 4.222656 16 4.152344 C 15.933594 4.222656 15.769531 4.367188 15.523438 4.5625 M 21.460938 6.742188 C 21.59375 10.851562 19.484375 15.128906 16 17.539062 C 12.601562 15.167969 10.414062 10.824219 10.542969 6.746094 C 12.121094 6.375 14.210938 5.566406 16 3.953125 C 17.71875 5.570312 19.828125 6.359375 21.460938 6.742188 "/>
</g>
</svg>
