<?xml version="1.0" encoding="UTF-8"?>
<svg xmlns="http://www.w3.org/2000/svg" xmlns:xlink="http://www.w3.org/1999/xlink" width="32px" height="32px" viewBox="0 0 32 31" version="1.1">
<g id="surface1">
<path style="fill-rule:evenodd;fill:rgb(100%,100%,100%);fill-opacity:1;stroke-width:1.577909;stroke-linecap:butt;stroke-linejoin:miter;stroke:rgb(0%,0%,0%);stroke-opacity:1;stroke-miterlimit:4;" d="M 73.28555 345.780592 L 280.008562 345.780592 L 280.008562 425.663979 L 176.647056 551.651015 L 73.28555 425.663979 Z M 73.28555 345.780592 " transform="matrix(0.144857,0,0,0.140732,-9.588594,-47.662562)"/>
<path style=" stroke:none;fill-rule:evenodd;fill:rgb(0%,0%,0%);fill-opacity:1;" d="M 2.488281 2.550781 L 29.511719 2.550781 L 29.511719 10.222656 L 2.488281 10.222656 Z M 2.488281 2.550781 "/>
<path style=" stroke:none;fill-rule:evenodd;fill:rgb(99.607843%,0%,0%);fill-opacity:1;" d="M 2.550781 11.605469 L 13.644531 11.605469 L 13.644531 24.816406 Z M 2.550781 11.605469 "/>
<path style=" stroke:none;fill-rule:evenodd;fill:rgb(0%,0%,0%);fill-opacity:1;" d="M 29.390625 11.605469 L 18.296875 11.605469 L 18.296875 24.816406 Z M 29.390625 11.605469 "/>
<path style=" stroke:none;fill-rule:evenodd;fill:rgb(100%,100%,100%);fill-opacity:1;" d="M 23.996094 3.835938 C 23.15625 3.835938 22.992188 4.296875 22.992188 4.589844 L 22.992188 8.097656 C 22.964844 8.710938 23.480469 9.023438 23.957031 9.023438 L 26.65625 9.023438 C 27.238281 9.023438 27.84375 8.710938 27.84375 8.019531 L 27.84375 7.035156 L 26.574219 7.035156 L 26.574219 7.382812 C 26.609375 7.640625 26.480469 7.820312 26.277344 7.8125 L 24.574219 7.8125 C 24.324219 7.828125 24.089844 7.828125 24.152344 7.503906 L 24.152344 5.230469 C 24.203125 5.070312 24.027344 4.839844 24.511719 4.820312 L 26.34375 4.820312 C 26.453125 4.878906 26.617188 4.777344 26.621094 5.152344 L 26.636719 5.5625 L 27.820312 5.5625 L 27.820312 4.582031 C 27.820312 4.015625 27.316406 3.835938 26.863281 3.835938 Z M 14.128906 3.835938 L 10.421875 3.835938 L 10.421875 8.980469 L 11.710938 8.980469 L 11.710938 7.082031 L 14.121094 7.082031 C 14.625 7.082031 15.164062 6.851562 15.164062 6.195312 L 15.164062 4.699219 C 15.164062 4.285156 14.835938 3.84375 14.128906 3.835938 Z M 4.878906 3.835938 C 4.378906 3.875 4.171875 4.097656 4.179688 4.492188 L 4.179688 6.195312 C 4.179688 6.5 4.464844 6.789062 5.203125 6.789062 L 7.449219 6.789062 C 7.554688 6.789062 7.617188 6.839844 7.617188 7.003906 L 7.617188 7.546875 C 7.617188 7.710938 7.554688 7.835938 7.417969 7.835938 L 4.15625 7.835938 L 4.15625 8.9375 L 8.117188 8.9375 C 8.703125 8.9375 8.925781 8.644531 8.925781 8.242188 L 8.925781 6.378906 C 8.925781 5.683594 8.050781 5.722656 7.726562 5.722656 L 5.710938 5.722656 C 5.527344 5.742188 5.355469 5.578125 5.371094 5.402344 L 5.371094 5.039062 C 5.351562 4.902344 5.484375 4.804688 5.660156 4.804688 L 8.925781 4.800781 L 8.925781 3.835938 Z M 16.75 3.835938 L 16.75 9 L 17.929688 9 L 17.929688 7.074219 L 20.585938 7.074219 L 20.585938 5.949219 L 17.949219 5.949219 L 17.949219 4.800781 L 21.496094 4.800781 L 21.496094 3.835938 Z M 11.710938 4.96875 L 13.6875 4.96875 C 13.832031 4.96875 14 4.976562 14 5.253906 L 14 5.726562 C 14 6.007812 13.847656 6.019531 13.691406 6.019531 L 11.710938 6.019531 Z M 11.710938 4.96875 "/>
</g>
</svg>
