<?xml version="1.0" encoding="UTF-8"?>
<svg xmlns="http://www.w3.org/2000/svg" xmlns:xlink="http://www.w3.org/1999/xlink" width="32px" height="32px" viewBox="0 0 32 42" version="1.1">
<g id="surface1">
<path style=" stroke:none;fill-rule:nonzero;fill:rgb(69.019608%,0%,4.313725%);fill-opacity:1;" d="M 31.765625 0.125 C 31.753906 0.148438 31.640625 0.242188 31.519531 0.332031 C 31.394531 0.421875 31.253906 0.535156 31.207031 0.578125 C 31.160156 0.621094 30.890625 0.84375 30.609375 1.070312 C 30.324219 1.300781 30.054688 1.519531 30.007812 1.558594 C 29.960938 1.597656 29.828125 1.703125 29.707031 1.796875 C 29.589844 1.886719 29.484375 1.976562 29.472656 1.988281 C 29.460938 2 29.296875 2.132812 29.109375 2.28125 C 28.917969 2.433594 28.753906 2.566406 28.742188 2.578125 C 28.730469 2.589844 28.625 2.675781 28.507812 2.769531 C 28.390625 2.859375 28.273438 2.957031 28.25 2.980469 C 28.222656 3.003906 27.964844 3.210938 27.675781 3.445312 C 27.386719 3.675781 27.019531 3.972656 26.863281 4.097656 C 26.707031 4.226562 26.492188 4.402344 26.386719 4.484375 C 26.28125 4.570312 25.992188 4.804688 25.746094 5.007812 C 25.496094 5.210938 25.257812 5.40625 25.210938 5.441406 C 25.164062 5.480469 25.027344 5.589844 24.910156 5.683594 C 24.792969 5.777344 24.6875 5.863281 24.675781 5.875 C 24.664062 5.886719 24.5 6.019531 24.308594 6.171875 C 24.121094 6.320312 23.957031 6.453125 23.945312 6.464844 C 23.933594 6.476562 23.828125 6.5625 23.710938 6.65625 C 23.59375 6.75 23.488281 6.835938 23.476562 6.847656 C 23.464844 6.859375 23.253906 7.03125 23.007812 7.226562 C 22.765625 7.425781 22.480469 7.652344 22.382812 7.734375 C 22.277344 7.8125 21.816406 8.191406 21.347656 8.570312 C 20.878906 8.949219 20.460938 9.289062 20.410156 9.332031 C 20.367188 9.371094 20.230469 9.476562 20.113281 9.570312 C 19.996094 9.664062 19.867188 9.765625 19.835938 9.800781 C 19.800781 9.832031 19.632812 9.964844 19.46875 10.09375 C 19.304688 10.222656 19.160156 10.339844 19.148438 10.351562 C 19.136719 10.367188 18.972656 10.5 18.785156 10.652344 C 18.597656 10.804688 18.324219 11.023438 18.183594 11.136719 C 18.039062 11.25 17.796875 11.449219 17.644531 11.570312 C 17.496094 11.695312 17.292969 11.859375 17.199219 11.9375 C 17.105469 12.015625 16.835938 12.230469 16.597656 12.421875 C 16.363281 12.609375 16.046875 12.863281 15.898438 12.984375 C 15.75 13.105469 15.601562 13.222656 15.574219 13.246094 C 15.550781 13.269531 15.375 13.414062 15.1875 13.5625 C 14.996094 13.714844 14.835938 13.847656 14.820312 13.859375 C 14.808594 13.875 14.578125 14.0625 14.304688 14.285156 C 14.03125 14.503906 13.617188 14.835938 13.386719 15.019531 C 13.15625 15.207031 12.945312 15.378906 12.917969 15.402344 C 12.894531 15.425781 12.777344 15.523438 12.660156 15.613281 C 12.542969 15.707031 12.433594 15.792969 12.425781 15.804688 C 12.410156 15.820312 12.238281 15.960938 12.039062 16.117188 C 11.835938 16.277344 11.589844 16.476562 11.484375 16.558594 C 11.378906 16.644531 11.207031 16.785156 11.09375 16.878906 C 10.984375 16.972656 10.855469 17.078125 10.8125 17.113281 C 10.769531 17.148438 10.605469 17.277344 10.453125 17.402344 C 10.300781 17.527344 10.097656 17.691406 10.003906 17.769531 C 9.90625 17.84375 9.640625 18.0625 9.402344 18.25 C 9.167969 18.441406 8.792969 18.742188 8.570312 18.921875 C 8.351562 19.101562 8.082031 19.320312 7.972656 19.410156 C 7.863281 19.5 7.734375 19.605469 7.691406 19.640625 C 7.640625 19.679688 7.402344 19.875 7.160156 20.070312 C 6.917969 20.269531 6.660156 20.476562 6.582031 20.535156 C 6.507812 20.59375 6.3125 20.753906 6.148438 20.890625 C 5.984375 21.023438 5.808594 21.167969 5.761719 21.203125 C 5.714844 21.242188 5.578125 21.351562 5.460938 21.445312 C 5.34375 21.535156 5.238281 21.625 5.226562 21.636719 C 5.214844 21.648438 5.050781 21.78125 4.859375 21.929688 C 4.675781 22.082031 4.507812 22.214844 4.5 22.226562 C 4.488281 22.238281 4.253906 22.429688 3.980469 22.648438 C 3.707031 22.871094 3.351562 23.152344 3.191406 23.28125 C 3.03125 23.410156 2.878906 23.535156 2.855469 23.558594 C 2.828125 23.582031 2.652344 23.722656 2.464844 23.871094 C 2.273438 24.023438 2.042969 24.210938 1.945312 24.292969 C 1.851562 24.375 1.617188 24.566406 1.429688 24.714844 C 1.246094 24.863281 1.066406 25.015625 1.039062 25.054688 C 0.996094 25.105469 0.984375 25.722656 0.984375 27.929688 C 0.984375 29.511719 1.003906 30.765625 1.023438 30.804688 C 1.046875 30.839844 1.089844 30.851562 1.121094 30.839844 C 1.152344 30.824219 1.378906 30.644531 1.628906 30.441406 C 1.875 30.242188 2.117188 30.046875 2.164062 30.007812 C 2.210938 29.96875 2.34375 29.859375 2.460938 29.769531 C 2.578125 29.675781 2.722656 29.5625 2.777344 29.515625 C 2.835938 29.46875 2.902344 29.410156 2.929688 29.386719 C 2.953125 29.363281 3.074219 29.265625 3.191406 29.175781 C 3.308594 29.082031 3.414062 28.996094 3.425781 28.984375 C 3.4375 28.972656 3.546875 28.886719 3.664062 28.792969 C 3.78125 28.703125 3.898438 28.605469 3.925781 28.585938 C 3.949219 28.5625 4.105469 28.4375 4.265625 28.308594 C 4.425781 28.183594 4.636719 28.011719 4.730469 27.929688 C 4.828125 27.847656 5 27.703125 5.117188 27.613281 C 5.238281 27.523438 5.34375 27.4375 5.355469 27.421875 C 5.367188 27.410156 5.605469 27.210938 5.890625 26.984375 C 6.171875 26.753906 6.441406 26.539062 6.488281 26.5 C 6.539062 26.460938 6.671875 26.355469 6.789062 26.261719 C 6.90625 26.167969 7.015625 26.082031 7.023438 26.070312 C 7.035156 26.058594 7.203125 25.925781 7.390625 25.773438 C 7.578125 25.625 7.800781 25.445312 7.886719 25.375 C 7.96875 25.304688 8.085938 25.207031 8.144531 25.160156 C 8.199219 25.113281 8.667969 24.734375 9.183594 24.316406 C 9.695312 23.898438 10.179688 23.507812 10.253906 23.449219 C 10.332031 23.390625 10.574219 23.195312 10.796875 23.011719 C 11.019531 22.832031 11.242188 22.648438 11.289062 22.609375 C 11.335938 22.574219 11.527344 22.417969 11.714844 22.269531 C 11.90625 22.117188 12.128906 21.9375 12.210938 21.867188 C 12.296875 21.796875 12.421875 21.691406 12.488281 21.636719 C 12.558594 21.578125 12.769531 21.410156 12.957031 21.257812 C 13.148438 21.109375 13.511719 20.8125 13.773438 20.597656 C 14.03125 20.386719 14.53125 19.980469 14.886719 19.691406 C 15.238281 19.40625 15.605469 19.113281 15.699219 19.035156 C 15.792969 18.957031 16.226562 18.609375 16.664062 18.257812 C 17.097656 17.902344 17.578125 17.515625 17.730469 17.394531 C 17.878906 17.277344 18.144531 17.0625 18.3125 16.921875 C 18.480469 16.78125 18.703125 16.601562 18.808594 16.515625 C 18.914062 16.429688 19.191406 16.207031 19.425781 16.015625 C 19.664062 15.824219 19.894531 15.636719 19.941406 15.597656 C 19.988281 15.558594 20.121094 15.453125 20.238281 15.359375 C 20.359375 15.265625 20.503906 15.148438 20.5625 15.101562 C 20.621094 15.050781 20.757812 14.933594 20.867188 14.847656 C 20.976562 14.757812 21.101562 14.65625 21.144531 14.617188 C 21.191406 14.582031 21.457031 14.367188 21.738281 14.140625 C 22.023438 13.910156 22.339844 13.65625 22.445312 13.570312 C 22.546875 13.484375 22.753906 13.320312 22.898438 13.203125 C 23.042969 13.085938 23.664062 12.585938 24.273438 12.089844 C 24.882812 11.59375 25.417969 11.15625 25.46875 11.117188 C 25.515625 11.078125 25.785156 10.859375 26.066406 10.632812 C 26.347656 10.402344 26.621094 10.1875 26.667969 10.148438 C 26.714844 10.109375 26.847656 10 26.96875 9.910156 C 27.085938 9.816406 27.203125 9.71875 27.230469 9.695312 C 27.253906 9.671875 27.40625 9.550781 27.566406 9.421875 C 27.730469 9.296875 27.929688 9.128906 28.011719 9.058594 C 28.097656 8.984375 28.78125 8.429688 29.535156 7.820312 C 30.292969 7.207031 30.945312 6.679688 30.992188 6.640625 C 31.039062 6.601562 31.175781 6.496094 31.292969 6.402344 C 31.410156 6.308594 31.5625 6.183594 31.632812 6.128906 C 31.703125 6.066406 31.804688 5.980469 31.859375 5.925781 L 31.957031 5.832031 C 31.960938 0.789062 31.945312 0.179688 31.90625 0.136719 C 31.875 0.109375 31.835938 0.0859375 31.820312 0.0859375 C 31.804688 0.0859375 31.777344 0.105469 31.765625 0.125 Z M 31.765625 0.125 "/>
<path style=" stroke:none;fill-rule:evenodd;fill:rgb(0%,0%,0%);fill-opacity:1;" d="M 3.957031 5.226562 C 3.984375 5.242188 4.25 5.453125 4.550781 5.691406 C 4.851562 5.929688 5.097656 6.152344 5.097656 6.179688 C 5.09375 6.210938 4.78125 6.484375 3.707031 7.351562 L 3.535156 7.207031 C 3.441406 7.132812 3.167969 6.921875 2.503906 6.410156 L 2.484375 7.039062 C 2.472656 7.386719 2.46875 8.863281 2.484375 12.972656 L 2.882812 13.292969 C 3.097656 13.46875 3.300781 13.601562 3.332031 13.585938 C 3.359375 13.574219 3.789062 13.234375 5.183594 12.105469 L 5.1875 7.542969 L 5.535156 7.269531 C 5.722656 7.117188 6.054688 6.851562 6.273438 6.675781 C 6.488281 6.5 6.988281 6.097656 7.382812 5.777344 C 8.019531 5.261719 8.105469 5.203125 8.171875 5.253906 C 8.210938 5.285156 8.550781 5.554688 8.921875 5.855469 C 9.296875 6.15625 9.601562 6.402344 9.605469 6.402344 C 9.613281 6.402344 9.625 7.894531 9.660156 13.023438 L 10.835938 12.085938 L 10.835938 7.585938 L 12.234375 6.445312 C 13.007812 5.816406 13.671875 5.277344 13.714844 5.25 C 13.785156 5.203125 13.871094 5.257812 14.449219 5.730469 C 14.808594 6.019531 15.144531 6.304688 15.292969 6.464844 L 15.292969 9.632812 L 15.195312 9.734375 C 15.144531 9.792969 14.503906 10.320312 13.773438 10.910156 C 13.046875 11.496094 12.421875 12 12.390625 12.019531 C 12.34375 12.054688 12.332031 12.277344 12.335938 14.15625 L 11.628906 14.726562 C 11.242188 15.039062 10.902344 15.285156 10.882812 15.273438 C 10.855469 15.261719 10.839844 15.003906 10.839844 14.007812 L 11.367188 13.3125 C 11.65625 12.925781 11.9375 12.550781 11.988281 12.476562 C 12.039062 12.398438 12.070312 12.339844 12.058594 12.339844 C 12.046875 12.339844 11.90625 12.4375 11.75 12.558594 C 11.589844 12.679688 10.804688 13.3125 10.003906 13.960938 C 9.203125 14.609375 8.46875 15.203125 8.375 15.28125 C 8.28125 15.359375 8.179688 15.425781 8.148438 15.425781 C 8.105469 15.421875 8.09375 14.96875 8.085938 13.324219 C 8.078125 11.972656 8.058594 11.21875 8.03125 11.207031 C 8.007812 11.199219 7.695312 11.429688 7.335938 11.722656 C 6.976562 12.015625 6.683594 12.277344 6.679688 12.304688 C 6.679688 12.335938 6.675781 12.796875 6.664062 14.300781 L 5.964844 14.859375 C 5.582031 15.171875 5.25 15.414062 5.226562 15.402344 C 5.199219 15.390625 5.183594 15.113281 5.183594 14.027344 L 5.582031 13.550781 C 5.800781 13.292969 6.070312 12.957031 6.183594 12.8125 C 6.292969 12.667969 6.371094 12.550781 6.359375 12.550781 C 6.347656 12.550781 6.25 12.617188 6.136719 12.703125 C 6.023438 12.785156 5.214844 13.4375 4.332031 14.148438 C 3.453125 14.859375 2.707031 15.445312 2.671875 15.445312 C 2.636719 15.445312 2.253906 15.160156 1.03125 14.175781 L 1.027344 9.464844 L 1.535156 8.800781 C 1.8125 8.433594 2.078125 8.0625 2.132812 7.976562 C 2.183594 7.886719 2.21875 7.816406 2.207031 7.816406 C 2.195312 7.816406 2.101562 7.878906 2.003906 7.953125 C 1.902344 8.027344 1.511719 8.339844 1.136719 8.644531 C 0.757812 8.949219 0.425781 9.207031 0.398438 9.226562 C 0.359375 9.246094 0.351562 9.226562 0.371094 9.15625 C 0.386719 9.105469 0.539062 8.726562 1.007812 7.566406 L 2.457031 6.382812 C 3.257812 5.734375 3.933594 5.214844 3.957031 5.226562 Z M 6.726562 10.796875 C 6.75 10.808594 7.066406 10.574219 7.433594 10.277344 L 8.097656 9.738281 L 8.097656 7.480469 C 7.050781 6.65625 6.730469 6.417969 6.714844 6.421875 C 6.699219 6.421875 6.683594 7.402344 6.683594 8.597656 C 6.683594 10.007812 6.699219 10.78125 6.726562 10.796875 Z M 12.378906 10.773438 C 12.402344 10.773438 12.722656 10.53125 13.089844 10.234375 L 13.753906 9.695312 L 13.753906 7.5 C 12.738281 6.71875 12.425781 6.476562 12.402344 6.453125 C 12.371094 6.425781 12.355469 7.117188 12.347656 8.59375 C 12.339844 10.027344 12.351562 10.773438 12.378906 10.773438 Z M 5.269531 6.339844 C 5.304688 6.339844 5.335938 6.367188 5.335938 6.398438 C 5.332031 6.429688 5.039062 6.699219 4.679688 6.992188 C 4.320312 7.28125 4 7.519531 3.960938 7.519531 C 3.925781 7.519531 3.902344 7.492188 3.910156 7.460938 C 3.914062 7.425781 4.210938 7.160156 4.5625 6.871094 C 4.914062 6.582031 5.234375 6.34375 5.269531 6.339844 Z M 15.402344 6.546875 C 15.414062 6.546875 15.457031 6.558594 15.496094 6.574219 C 15.5625 6.597656 15.570312 6.714844 15.550781 9.886719 L 12.660156 12.234375 L 12.617188 14.339844 L 11.789062 15.007812 C 11.335938 15.375 10.949219 15.664062 10.925781 15.652344 C 10.902344 15.640625 10.882812 15.609375 10.882812 15.582031 C 10.882812 15.550781 11.230469 15.253906 12.421875 14.304688 L 12.425781 12.210938 L 15.335938 9.84375 L 15.332031 8.3125 C 15.332031 7.472656 15.34375 6.730469 15.359375 6.667969 C 15.375 6.601562 15.394531 6.546875 15.402344 6.546875 Z M 9.828125 6.605469 C 9.859375 6.617188 9.878906 7.539062 9.882812 9.617188 C 9.890625 11.507812 9.878906 12.632812 9.851562 12.664062 C 9.828125 12.695312 9.789062 12.710938 9.765625 12.699219 C 9.738281 12.683594 9.722656 11.621094 9.71875 9.660156 C 9.710938 8.003906 9.726562 6.632812 9.746094 6.621094 C 9.765625 6.601562 9.800781 6.597656 9.828125 6.605469 Z M 2.714844 6.789062 C 2.773438 6.808594 2.78125 7.171875 2.773438 9.859375 C 2.765625 12.539062 2.753906 12.910156 2.699219 12.910156 C 2.640625 12.910156 2.632812 12.539062 2.621094 9.886719 C 2.617188 8.226562 2.621094 6.84375 2.632812 6.8125 C 2.640625 6.785156 2.679688 6.773438 2.714844 6.789062 Z M 6.917969 6.789062 C 6.96875 6.808594 6.980469 7.101562 6.980469 8.613281 C 6.984375 10.191406 6.980469 10.421875 6.921875 10.46875 C 6.867188 10.511719 6.847656 10.511719 6.832031 10.457031 C 6.820312 10.421875 6.808594 9.589844 6.804688 8.605469 C 6.800781 7.621094 6.808594 6.804688 6.828125 6.792969 C 6.84375 6.777344 6.886719 6.777344 6.917969 6.789062 Z M 12.503906 6.761719 C 12.515625 6.757812 12.554688 6.785156 12.582031 6.8125 C 12.625 6.855469 12.636719 7.261719 12.636719 8.628906 C 12.636719 10.253906 12.632812 10.398438 12.5625 10.464844 C 12.492188 10.527344 12.484375 10.527344 12.457031 10.453125 C 12.441406 10.410156 12.425781 9.589844 12.425781 8.628906 C 12.425781 7.671875 12.433594 6.859375 12.449219 6.824219 C 12.460938 6.789062 12.488281 6.761719 12.503906 6.761719 Z M 31.882812 7.210938 C 31.90625 7.222656 31.921875 8.292969 31.914062 12.824219 L 26.570312 17.15625 C 23.632812 19.535156 20.3125 22.226562 19.191406 23.136719 C 18.074219 24.042969 16.441406 25.363281 15.570312 26.070312 C 14.699219 26.777344 13.1875 28.003906 12.210938 28.796875 C 11.230469 29.589844 9.285156 31.167969 7.882812 32.304688 C 6.480469 33.4375 5.1875 34.484375 5.011719 34.625 C 4.835938 34.769531 4.671875 34.898438 4.648438 34.914062 C 4.625 34.929688 3.832031 34.320312 2.890625 33.554688 C 1.949219 32.796875 1.175781 32.144531 1.167969 32.109375 C 1.164062 32.078125 1.367188 31.882812 1.617188 31.683594 C 1.871094 31.484375 3.1875 30.417969 4.542969 29.320312 C 5.894531 28.222656 7.851562 26.636719 8.886719 25.796875 C 9.925781 24.957031 12.074219 23.214844 13.664062 21.925781 C 15.257812 20.636719 17.472656 18.839844 18.59375 17.933594 C 19.710938 17.027344 21.761719 15.363281 23.152344 14.234375 C 24.542969 13.109375 26.652344 11.398438 27.84375 10.4375 C 29.03125 9.472656 30.417969 8.347656 30.921875 7.9375 C 31.429688 7.527344 31.859375 7.199219 31.882812 7.210938 Z M 1.351562 8.703125 C 1.359375 8.703125 1.355469 8.726562 1.339844 8.757812 C 1.324219 8.785156 1.253906 8.882812 1.179688 8.976562 C 1.109375 9.066406 0.835938 9.308594 0.578125 9.515625 C 0.316406 9.722656 0.101562 9.886719 0.09375 9.878906 C 0.0898438 9.871094 0.105469 9.8125 0.136719 9.742188 C 0.171875 9.671875 0.433594 9.425781 0.765625 9.164062 C 1.078125 8.910156 1.34375 8.703125 1.351562 8.703125 Z M 1.351562 8.703125 "/>
<path style=" stroke:none;fill-rule:nonzero;fill:rgb(69.019608%,0%,4.313725%);fill-opacity:1;" d="M 1.007812 11.808594 C 1.007812 13.085938 1.011719 13.621094 1.019531 12.992188 C 1.023438 12.363281 1.023438 11.320312 1.019531 10.667969 C 1.011719 10.019531 1.007812 10.53125 1.007812 11.808594 Z M 1.007812 11.808594 "/>
<path style=" stroke:none;fill-rule:nonzero;fill:rgb(0%,0%,0%);fill-opacity:1;" d="M 7.3125 11.949219 L 6.808594 12.359375 L 6.8125 14.40625 C 5.492188 15.460938 5.246094 15.6875 5.238281 15.75 C 5.230469 15.804688 5.242188 15.839844 5.261719 15.835938 C 5.285156 15.828125 5.679688 15.519531 6.140625 15.148438 L 6.980469 14.472656 L 6.980469 12.421875 C 7.710938 11.832031 7.917969 11.640625 7.910156 11.609375 C 7.902344 11.582031 7.878906 11.550781 7.855469 11.546875 C 7.835938 11.542969 7.589844 11.722656 7.3125 11.949219 Z M 11.007812 13.363281 C 10.945312 13.414062 10.277344 13.960938 9.515625 14.578125 C 8.757812 15.195312 8.136719 15.707031 8.136719 15.71875 C 8.140625 15.730469 8.15625 15.761719 8.171875 15.789062 C 8.191406 15.824219 8.640625 15.488281 9.53125 14.765625 C 10.359375 14.097656 10.917969 13.609375 11.015625 13.480469 C 11.101562 13.363281 11.160156 13.269531 11.144531 13.269531 C 11.128906 13.269531 11.066406 13.3125 11.007812 13.363281 Z M 4.859375 13.953125 C 4.644531 14.121094 4.109375 14.554688 3.667969 14.914062 C 3.230469 15.273438 2.871094 15.589844 2.871094 15.621094 C 2.871094 15.652344 2.894531 15.675781 2.925781 15.679688 C 2.953125 15.679688 3.363281 15.371094 3.832031 14.992188 C 4.304688 14.613281 4.777344 14.21875 4.886719 14.113281 C 4.992188 14.007812 5.121094 13.859375 5.171875 13.785156 C 5.226562 13.710938 5.261719 13.648438 5.257812 13.648438 C 5.253906 13.648438 5.074219 13.785156 4.859375 13.953125 Z M 4.859375 13.953125 "/>
<path style=" stroke:none;fill-rule:nonzero;fill:rgb(69.019608%,0%,4.313725%);fill-opacity:1;" d="M 28.078125 17.167969 C 27.84375 17.359375 27.410156 17.710938 27.117188 17.953125 C 26.820312 18.191406 26.542969 18.421875 26.496094 18.460938 C 26.449219 18.5 26.179688 18.71875 25.894531 18.945312 C 25.613281 19.175781 25.34375 19.390625 25.296875 19.429688 C 25.25 19.46875 25.054688 19.621094 24.867188 19.773438 C 24.679688 19.925781 24.457031 20.105469 24.371094 20.175781 C 24.289062 20.246094 24.125 20.378906 24.011719 20.472656 C 23.898438 20.566406 23.675781 20.746094 23.515625 20.875 C 23.355469 21 22.828125 21.429688 22.339844 21.824219 C 21.847656 22.21875 21.359375 22.617188 21.25 22.707031 C 21.144531 22.792969 21.015625 22.898438 20.96875 22.9375 C 20.921875 22.976562 20.726562 23.128906 20.542969 23.28125 C 20.351562 23.429688 20.128906 23.613281 20.046875 23.683594 C 19.960938 23.75 19.84375 23.847656 19.789062 23.894531 C 19.730469 23.941406 19.589844 24.054688 19.46875 24.148438 C 19.351562 24.242188 19.210938 24.355469 19.152344 24.402344 C 19.097656 24.449219 18.957031 24.5625 18.847656 24.65625 C 18.742188 24.75 18.472656 24.964844 18.25 25.140625 C 18.03125 25.316406 17.832031 25.476562 17.804688 25.5 C 17.777344 25.523438 17.523438 25.730469 17.242188 25.960938 C 16.960938 26.1875 16.652344 26.4375 16.554688 26.515625 C 16.464844 26.589844 16.191406 26.808594 15.957031 26.996094 C 15.722656 27.1875 15.40625 27.441406 15.257812 27.5625 C 15.105469 27.683594 14.960938 27.800781 14.933594 27.824219 C 14.90625 27.847656 14.722656 28.003906 14.523438 28.164062 C 14.320312 28.324219 14.03125 28.558594 13.878906 28.683594 C 13.726562 28.808594 13.5625 28.941406 13.515625 28.980469 C 13.46875 29.019531 13.273438 29.171875 13.085938 29.324219 C 12.898438 29.472656 12.675781 29.652344 12.589844 29.722656 C 12.507812 29.792969 12.390625 29.890625 12.332031 29.9375 C 12.277344 29.984375 12.132812 30.097656 12.015625 30.191406 C 11.898438 30.285156 11.792969 30.371094 11.78125 30.382812 C 11.769531 30.394531 11.5625 30.566406 11.316406 30.761719 C 11.074219 30.960938 10.792969 31.1875 10.6875 31.269531 C 10.585938 31.347656 10.359375 31.527344 10.1875 31.667969 C 10.015625 31.804688 9.863281 31.929688 9.851562 31.945312 C 9.839844 31.957031 9.601562 32.15625 9.316406 32.382812 C 9.035156 32.609375 8.765625 32.828125 8.71875 32.867188 C 8.671875 32.90625 8.476562 33.0625 8.289062 33.210938 C 8.101562 33.363281 7.9375 33.496094 7.925781 33.507812 C 7.914062 33.519531 7.808594 33.605469 7.691406 33.699219 C 7.574219 33.792969 7.429688 33.90625 7.367188 33.957031 C 7.308594 34.007812 6.902344 34.335938 6.46875 34.691406 C 6.03125 35.042969 5.625 35.371094 5.558594 35.421875 C 5.496094 35.472656 5.441406 35.542969 5.441406 35.578125 C 5.4375 35.613281 5.53125 35.71875 5.640625 35.8125 C 5.753906 35.910156 6.011719 36.117188 6.210938 36.277344 C 6.410156 36.4375 6.613281 36.601562 6.664062 36.640625 C 6.707031 36.679688 7.21875 37.09375 7.796875 37.558594 C 8.375 38.023438 8.871094 38.40625 8.902344 38.40625 C 8.929688 38.40625 9.179688 38.226562 9.457031 38.003906 C 9.734375 37.78125 10 37.566406 10.046875 37.527344 C 10.09375 37.488281 10.285156 37.335938 10.472656 37.183594 C 10.664062 37.03125 10.824219 36.898438 10.835938 36.882812 C 10.847656 36.871094 11.089844 36.675781 11.375 36.449219 C 11.65625 36.222656 11.925781 36.003906 11.972656 35.964844 C 12.019531 35.925781 12.257812 35.730469 12.503906 35.535156 C 12.746094 35.335938 13.019531 35.117188 13.109375 35.050781 C 13.195312 34.980469 13.929688 34.382812 14.742188 33.722656 C 15.550781 33.066406 16.25 32.496094 16.300781 32.457031 C 16.347656 32.417969 16.480469 32.3125 16.597656 32.21875 C 16.71875 32.125 16.824219 32.039062 16.835938 32.027344 C 16.847656 32.015625 17.011719 31.882812 17.199219 31.730469 C 17.386719 31.582031 17.609375 31.402344 17.695312 31.332031 C 17.777344 31.261719 17.894531 31.164062 17.953125 31.121094 C 18.011719 31.074219 18.210938 30.910156 18.398438 30.761719 C 18.585938 30.609375 18.75 30.476562 18.761719 30.460938 C 18.773438 30.449219 19.015625 30.25 19.296875 30.023438 C 19.582031 29.796875 19.851562 29.578125 19.898438 29.542969 C 19.945312 29.5 20.214844 29.28125 20.5 29.054688 C 20.78125 28.828125 21.050781 28.609375 21.097656 28.570312 C 21.144531 28.53125 21.382812 28.335938 21.628906 28.140625 C 21.871094 27.945312 22.15625 27.714844 22.257812 27.632812 C 22.359375 27.550781 22.824219 27.175781 23.289062 26.796875 C 23.757812 26.417969 24.175781 26.074219 24.226562 26.035156 C 24.273438 25.996094 24.542969 25.777344 24.824219 25.546875 C 25.109375 25.320312 25.378906 25.101562 25.425781 25.0625 C 25.472656 25.023438 25.722656 24.820312 25.980469 24.613281 C 26.238281 24.402344 26.542969 24.15625 26.660156 24.0625 C 26.773438 23.96875 26.949219 23.828125 27.050781 23.746094 C 27.15625 23.664062 27.542969 23.351562 27.917969 23.046875 C 28.289062 22.742188 28.609375 22.460938 28.625 22.421875 C 28.644531 22.382812 28.660156 21.132812 28.660156 19.648438 C 28.660156 18.160156 28.648438 16.914062 28.636719 16.878906 C 28.625 16.84375 28.59375 16.820312 28.5625 16.820312 C 28.53125 16.820312 28.316406 16.976562 28.078125 17.167969 Z M 28.078125 17.167969 "/>
<path style=" stroke:none;fill-rule:nonzero;fill:rgb(0%,0%,0%);fill-opacity:1;" d="M 24.632812 26.945312 C 24.148438 27.335938 22.769531 28.453125 21.570312 29.429688 C 20.367188 30.402344 17.390625 32.816406 14.949219 34.792969 C 12.511719 36.765625 10.34375 38.527344 10.132812 38.699219 C 9.917969 38.875 9.746094 39.039062 9.746094 39.066406 C 9.746094 39.09375 10.46875 39.703125 11.351562 40.414062 C 12.234375 41.128906 13.015625 41.769531 13.085938 41.835938 C 13.15625 41.902344 13.238281 41.957031 13.269531 41.957031 C 13.296875 41.957031 13.65625 41.6875 14.0625 41.355469 C 14.46875 41.023438 15.28125 40.359375 15.871094 39.882812 C 16.460938 39.40625 17.433594 38.617188 18.035156 38.128906 C 18.636719 37.640625 20.523438 36.113281 22.230469 34.730469 C 23.933594 33.351562 25.386719 32.164062 25.453125 32.101562 L 25.574219 31.984375 C 25.570312 27.648438 25.554688 26.351562 25.539062 26.308594 C 25.511719 26.246094 25.371094 26.347656 24.632812 26.945312 Z M 24.632812 26.945312 "/>
</g>
</svg>
