<?xml version="1.0" encoding="UTF-8"?>
<svg xmlns="http://www.w3.org/2000/svg" xmlns:xlink="http://www.w3.org/1999/xlink" width="32px" height="32px" viewBox="0 0 32 32" version="1.1">
<g id="surface1">
<path style=" stroke:none;fill-rule:nonzero;fill:rgb(0%,0%,0%);fill-opacity:1;" d="M 25.578125 14.0625 L 25.578125 9.257812 L 25.285156 9.34375 C 25.257812 9.351562 22.628906 10.09375 21.519531 8.933594 C 20.25 7.609375 21.28125 5.085938 21.289062 5.058594 L 21.378906 4.84375 L 21.164062 4.757812 C 21.125 4.742188 20.199219 4.371094 18.808594 4.136719 C 17.425781 3.902344 16.097656 3.894531 16.003906 3.894531 L 16 3.894531 C 15.941406 3.894531 14.59375 3.898438 13.191406 4.136719 C 11.800781 4.371094 10.875 4.742188 10.835938 4.757812 L 10.621094 4.84375 L 10.710938 5.058594 C 10.71875 5.085938 11.753906 7.605469 10.480469 8.933594 C 9.375 10.089844 6.742188 9.351562 6.714844 9.34375 L 6.421875 9.257812 L 6.421875 14.058594 C 6.417969 14.257812 6.375 18.984375 8.855469 22.460938 C 12.105469 27.011719 15.785156 28.046875 15.941406 28.085938 L 16 28.105469 L 16.058594 28.085938 C 16.214844 28.046875 19.894531 27.011719 23.144531 22.460938 C 25.625 18.984375 25.582031 14.257812 25.578125 14.0625 "/>
<path style=" stroke:none;fill-rule:nonzero;fill:rgb(100%,100%,100%);fill-opacity:1;" d="M 22.28125 21.84375 C 19.707031 25.445312 16.804688 26.699219 15.996094 26.992188 C 15.359375 26.765625 13.402344 25.9375 11.328125 23.78125 L 24.519531 10.59375 L 24.519531 14.074219 C 24.519531 14.117188 24.550781 18.660156 22.28125 21.84375 M 7.480469 14.074219 L 7.480469 10.578125 C 8.574219 10.726562 10.230469 10.726562 11.246094 9.667969 C 12.449219 8.410156 12.230469 6.570312 11.960938 5.5 C 12.324219 5.394531 12.804688 5.277344 13.367188 5.179688 C 14.675781 4.957031 15.984375 4.957031 16 4.957031 C 16.015625 4.957031 17.320312 4.957031 18.632812 5.179688 C 19.195312 5.277344 19.675781 5.394531 20.039062 5.5 C 19.875 6.15625 19.730469 7.097656 19.917969 8.019531 L 8.472656 19.460938 C 7.460938 16.78125 7.480469 14.109375 7.480469 14.074219 M 25.117188 9.859375 C 24.34375 10.035156 22.253906 10.371094 21.1875 9.253906 C 20.566406 8.605469 20.316406 7.640625 20.464844 6.460938 C 20.535156 5.875 20.6875 5.378906 20.78125 5.109375 C 20.4375 4.988281 19.695312 4.753906 18.730469 4.589844 C 17.367188 4.359375 16.007812 4.355469 16 4.355469 C 15.972656 4.355469 14.625 4.359375 13.269531 4.589844 C 12.304688 4.753906 11.5625 4.988281 11.21875 5.109375 C 11.3125 5.378906 11.464844 5.875 11.535156 6.460938 C 11.683594 7.640625 11.433594 8.605469 10.8125 9.253906 C 9.746094 10.371094 7.65625 10.035156 6.882812 9.859375 L 6.882812 14.0625 C 6.882812 14.113281 6.839844 18.84375 9.230469 22.191406 C 10.882812 24.503906 12.660156 25.863281 13.859375 26.601562 C 14.957031 27.273438 15.777344 27.554688 16 27.625 C 16.222656 27.554688 17.054688 27.269531 18.160156 26.589844 C 19.355469 25.855469 21.121094 24.496094 22.769531 22.191406 C 25.160156 18.839844 25.117188 14.113281 25.117188 14.0625 Z M 25.117188 9.859375 "/>
<path style=" stroke:none;fill-rule:nonzero;fill:rgb(100%,100%,100%);fill-opacity:1;" d="M 19.789062 15.617188 L 19.789062 15.589844 C 19.789062 15.589844 19.785156 15.59375 19.785156 15.59375 Z M 19.789062 15.617188 "/>
<path style=" stroke:none;fill-rule:nonzero;fill:rgb(100%,100%,100%);fill-opacity:1;" d="M 12.027344 18.65625 C 12.027344 18.65625 12.03125 18.65625 12.039062 18.652344 C 12.035156 18.652344 12.035156 18.652344 12.03125 18.652344 C 12.027344 18.65625 12.027344 18.65625 12.027344 18.65625 "/>
<path style=" stroke:none;fill-rule:nonzero;fill:rgb(100%,100%,100%);fill-opacity:1;" d="M 15.070312 24.898438 C 14.828125 24.710938 14.695312 24.46875 14.695312 24.214844 C 14.695312 24.078125 14.734375 23.945312 14.804688 23.824219 L 14.613281 23.371094 C 14.390625 23.613281 14.269531 23.90625 14.269531 24.214844 C 14.269531 24.601562 14.460938 24.964844 14.808594 25.234375 C 15.019531 25.394531 15.269531 25.511719 15.542969 25.574219 L 15.324219 25.050781 C 15.230469 25.007812 15.148438 24.957031 15.070312 24.898438 "/>
<path style=" stroke:none;fill-rule:nonzero;fill:rgb(100%,100%,100%);fill-opacity:1;" d="M 17.109375 22.496094 L 17.003906 22.75 C 17.144531 22.785156 17.28125 22.832031 17.40625 22.886719 L 17.582031 22.472656 C 17.648438 22.332031 17.742188 22.234375 17.820312 22.207031 L 17.050781 22.207031 C 17.128906 22.273438 17.15625 22.386719 17.113281 22.488281 C 17.113281 22.488281 17.113281 22.492188 17.109375 22.496094 "/>
<path style=" stroke:none;fill-rule:nonzero;fill:rgb(100%,100%,100%);fill-opacity:1;" d="M 16.636719 24.707031 L 16.175781 24.707031 L 16 25.121094 L 14.886719 22.496094 C 14.886719 22.492188 14.886719 22.492188 14.886719 22.488281 C 14.84375 22.386719 14.871094 22.273438 14.949219 22.207031 L 14.179688 22.207031 C 14.257812 22.234375 14.347656 22.332031 14.417969 22.472656 L 16 26.214844 Z M 16.636719 24.707031 "/>
<path style=" stroke:none;fill-rule:nonzero;fill:rgb(100%,100%,100%);fill-opacity:1;" d="M 17.339844 23.042969 C 17.214844 22.988281 17.078125 22.945312 16.9375 22.90625 C 16.882812 22.890625 16.824219 22.878906 16.769531 22.867188 C 16.539062 22.820312 16.296875 22.792969 16.046875 22.792969 L 16.027344 22.792969 C 15.757812 22.796875 15.496094 22.847656 15.261719 22.9375 L 15.429688 23.332031 C 15.617188 23.257812 15.828125 23.21875 16.046875 23.21875 L 16.058594 23.21875 C 16.242188 23.222656 16.425781 23.238281 16.597656 23.269531 C 16.65625 23.277344 16.714844 23.289062 16.769531 23.304688 C 16.914062 23.335938 17.050781 23.382812 17.175781 23.4375 C 17.199219 23.445312 17.246094 23.46875 17.246094 23.46875 C 17.273438 23.484375 17.300781 23.503906 17.324219 23.527344 C 17.375 23.578125 17.402344 23.640625 17.410156 23.707031 C 17.414062 23.710938 17.414062 23.714844 17.414062 23.714844 L 17.484375 23.609375 C 17.488281 23.609375 17.488281 23.609375 17.488281 23.609375 L 17.730469 23.257812 C 17.65625 23.207031 17.578125 23.160156 17.496094 23.117188 C 17.445312 23.09375 17.394531 23.066406 17.339844 23.042969 "/>
<path style=" stroke:none;fill-rule:nonzero;fill:rgb(100%,100%,100%);fill-opacity:1;" d="M 16.914062 23.519531 C 16.847656 23.5 16.773438 23.480469 16.703125 23.460938 L 16.5 23.9375 L 16.960938 23.9375 L 17.109375 23.59375 C 17.046875 23.566406 16.980469 23.542969 16.914062 23.519531 "/>
<path style=" stroke:none;fill-rule:nonzero;fill:rgb(100%,100%,100%);fill-opacity:1;" d="M 15.964844 24.535156 L 17.289062 24.535156 L 17.289062 24.9375 C 17.097656 25.035156 16.875 25.105469 16.632812 25.152344 L 16.441406 25.609375 C 16.925781 25.558594 17.375 25.410156 17.710938 25.183594 C 17.710938 25.183594 17.714844 25.179688 17.714844 25.179688 L 17.714844 24.109375 L 15.78125 24.109375 Z M 15.964844 24.535156 "/>
<path style=" stroke:none;fill-rule:nonzero;fill:rgb(100%,100%,100%);fill-opacity:1;" d="M 11.675781 14.316406 C 11.535156 14.414062 11.375 14.496094 11.199219 14.566406 C 11.128906 14.453125 11.050781 14.320312 10.976562 14.195312 C 11.042969 14.167969 11.183594 14.109375 11.195312 14.101562 C 11.199219 14.101562 11.199219 14.101562 11.199219 14.101562 C 11.226562 14.085938 11.25 14.070312 11.269531 14.046875 C 11.320312 13.996094 11.347656 13.933594 11.355469 13.871094 C 11.359375 13.863281 11.359375 13.859375 11.359375 13.859375 Z M 11.675781 14.316406 "/>
<path style=" stroke:none;fill-rule:nonzero;fill:rgb(100%,100%,100%);fill-opacity:1;" d="M 10 14.351562 L 9.992188 14.351562 C 9.875 14.351562 9.761719 14.34375 9.652344 14.320312 C 9.59375 14.308594 9.539062 14.296875 9.480469 14.28125 C 9.324219 14.230469 9.179688 14.164062 9.054688 14.074219 C 9.042969 14.0625 9.027344 14.054688 9.015625 14.042969 C 8.96875 14.007812 8.925781 13.96875 8.886719 13.925781 C 8.726562 13.761719 8.640625 13.566406 8.640625 13.359375 C 8.640625 13.15625 8.726562 12.960938 8.886719 12.792969 L 8.886719 12.25 C 8.839844 12.277344 8.796875 12.308594 8.757812 12.339844 C 8.40625 12.609375 8.214844 12.972656 8.214844 13.359375 C 8.214844 13.75 8.40625 14.113281 8.757812 14.382812 C 8.796875 14.414062 8.839844 14.445312 8.886719 14.472656 C 8.941406 14.507812 8.996094 14.539062 9.054688 14.566406 C 9.1875 14.632812 9.332031 14.683594 9.480469 14.71875 C 9.539062 14.734375 9.59375 14.746094 9.652344 14.753906 C 9.761719 14.769531 9.875 14.777344 9.988281 14.777344 L 9.992188 14.78125 C 10.136719 14.78125 10.277344 14.769531 10.417969 14.753906 L 10.175781 14.347656 C 10.117188 14.351562 10.058594 14.351562 10 14.351562 "/>
<path style=" stroke:none;fill-rule:nonzero;fill:rgb(100%,100%,100%);fill-opacity:1;" d="M 9.054688 14.757812 C 9.054688 14.757812 9.054688 14.933594 9.054688 14.933594 C 9.054688 15.121094 8.960938 15.28125 8.824219 15.355469 L 9.707031 15.355469 C 9.574219 15.277344 9.480469 15.121094 9.480469 14.941406 C 9.480469 14.9375 9.480469 14.933594 9.480469 14.929688 L 9.480469 14.894531 C 9.332031 14.863281 9.191406 14.816406 9.054688 14.757812 "/>
<path style=" stroke:none;fill-rule:nonzero;fill:rgb(100%,100%,100%);fill-opacity:1;" d="M 11.226562 14.949219 C 11.226562 14.949219 10.617188 13.925781 10.589844 13.882812 C 10.554688 13.820312 10.460938 13.664062 10.324219 13.570312 C 10.660156 13.429688 10.917969 13.105469 10.984375 12.710938 C 10.859375 12.664062 10.71875 12.621094 10.570312 12.59375 C 10.53125 12.945312 10.265625 13.21875 9.949219 13.21875 L 9.480469 13.21875 L 9.480469 11.777344 L 9.804688 11.777344 C 9.855469 11.773438 9.910156 11.773438 9.964844 11.769531 C 9.96875 11.769531 9.96875 11.769531 9.972656 11.769531 L 9.992188 11.769531 C 10.28125 11.769531 10.5625 11.804688 10.828125 11.863281 C 10.636719 11.554688 10.316406 11.351562 9.949219 11.351562 L 8.820312 11.351562 C 8.960938 11.425781 9.054688 11.585938 9.054688 11.773438 C 9.054688 11.777344 9.054688 11.777344 9.054688 11.777344 L 9.054688 13.855469 C 9.078125 13.875 9.097656 13.890625 9.121094 13.910156 C 9.226562 13.992188 9.347656 14.054688 9.480469 14.101562 L 9.480469 13.644531 L 9.6875 13.644531 C 9.6875 13.644531 9.808594 13.644531 9.898438 13.6875 C 10 13.738281 10.074219 13.84375 10.085938 13.867188 L 10.972656 15.355469 L 11.695312 15.355469 C 11.523438 15.292969 11.347656 15.152344 11.226562 14.949219 "/>
<path style=" stroke:none;fill-rule:nonzero;fill:rgb(100%,100%,100%);fill-opacity:1;" d="M 11.675781 12.40625 L 11.359375 12.859375 C 11.351562 12.792969 11.324219 12.726562 11.273438 12.675781 C 11.25 12.652344 11.222656 12.632812 11.195312 12.617188 C 11.191406 12.617188 11.175781 12.609375 11.171875 12.605469 C 11.117188 12.582031 11.0625 12.558594 11.003906 12.535156 C 10.871094 12.488281 10.726562 12.449219 10.574219 12.421875 C 10.515625 12.410156 10.457031 12.402344 10.398438 12.394531 C 10.269531 12.375 10.136719 12.367188 10.003906 12.367188 L 9.992188 12.367188 C 9.875 12.367188 9.761719 12.378906 9.652344 12.398438 L 9.652344 11.96875 C 9.703125 11.960938 9.757812 11.953125 9.808594 11.949219 C 9.863281 11.945312 9.917969 11.941406 9.972656 11.941406 L 9.992188 11.941406 C 10.117188 11.941406 10.242188 11.949219 10.367188 11.960938 C 10.558594 11.980469 10.746094 12.015625 10.925781 12.066406 C 10.992188 12.085938 11.058594 12.105469 11.125 12.128906 C 11.328125 12.199219 11.515625 12.292969 11.675781 12.40625 "/>
<path style=" stroke:none;fill-rule:nonzero;fill:rgb(0%,0%,0%);fill-opacity:1;" d="M 18.847656 19.109375 C 18.972656 18.90625 19.089844 18.679688 19.1875 18.4375 C 19.96875 17.933594 20.671875 17.039062 21.03125 15.898438 C 21.417969 14.660156 21.292969 13.328125 20.976562 12.417969 L 19.929688 12.417969 C 20.054688 12.207031 20.152344 11.984375 20.222656 11.761719 C 20.242188 11.699219 20.261719 11.632812 20.277344 11.566406 C 20.429688 10.910156 20.363281 10.277344 19.96875 9.785156 C 19.597656 9.324219 19.015625 9.089844 18.410156 9.019531 C 18.449219 8.769531 18.390625 8.558594 18.292969 8.339844 C 18.175781 8.0625 17.957031 7.847656 17.664062 7.691406 C 17.652344 7.6875 17.640625 7.679688 17.628906 7.675781 C 17.316406 7.519531 16.929688 7.429688 16.488281 7.414062 L 16.488281 5.980469 C 16.488281 5.976562 16.488281 5.976562 16.488281 5.972656 C 16.484375 5.820312 16.355469 5.695312 16.195312 5.695312 C 16.039062 5.695312 15.910156 5.820312 15.902344 5.972656 C 15.902344 5.980469 15.902344 6.003906 15.902344 6.011719 C 15.902344 6.011719 15.902344 6.015625 15.902344 6.015625 C 15.730469 6.042969 15.554688 6.089844 15.382812 6.152344 C 15.148438 6.242188 14.933594 6.359375 14.75 6.492188 L 14.75 6.722656 C 14.675781 6.765625 14.605469 6.808594 14.535156 6.855469 C 14.390625 6.957031 13.800781 7.371094 13.570312 7.96875 C 13.671875 7.914062 13.832031 7.824219 14.21875 7.6875 C 14.738281 7.507812 15.28125 7.429688 15.511719 7.476562 C 15.023438 7.554688 14.507812 7.707031 13.996094 7.929688 C 13.996094 7.929688 13.546875 8.140625 13.523438 8.15625 C 13.546875 8.167969 13.570312 8.183594 13.589844 8.203125 C 13.621094 8.226562 13.648438 8.25 13.675781 8.277344 C 13.917969 8.511719 14.019531 8.847656 13.984375 9.203125 C 13.960938 9.445312 13.878906 9.695312 13.734375 9.929688 C 13.683594 10.011719 13.625 10.089844 13.558594 10.167969 L 12.773438 10.167969 C 12.902344 10.277344 13.015625 10.410156 13.105469 10.5625 C 13.109375 10.570312 13.117188 10.578125 13.121094 10.585938 C 13.210938 10.746094 13.28125 10.925781 13.324219 11.117188 C 13.367188 11.300781 13.382812 11.496094 13.371094 11.699219 L 11.632812 11.699219 C 11.6875 11.757812 11.742188 11.824219 11.789062 11.898438 C 11.9375 12.125 12.0625 12.414062 12.15625 12.757812 C 12.203125 12.933594 12.242188 13.121094 12.273438 13.320312 C 12.359375 13.84375 12.382812 14.445312 12.335938 15.082031 C 12.238281 16.410156 11.84375 17.550781 11.339844 18.136719 C 11.808594 17.863281 12.34375 17.601562 12.921875 17.359375 C 12.664062 17.902344 12.355469 18.351562 12.042969 18.660156 C 12.480469 18.429688 12.960938 18.210938 13.46875 18.011719 C 13.519531 18.871094 13.90625 19.605469 14.457031 19.980469 C 14.402344 19.96875 14.347656 19.953125 14.296875 19.9375 C 14.242188 19.921875 14.1875 19.902344 14.140625 19.882812 C 14.097656 19.863281 14.058594 19.84375 14.019531 19.824219 C 13.859375 20.117188 13.554688 20.3125 13.199219 20.3125 C 13.0625 20.3125 12.929688 20.28125 12.8125 20.226562 C 12.746094 20.195312 12.683594 20.15625 12.625 20.113281 C 12.578125 20.171875 12.523438 20.226562 12.464844 20.277344 C 12.457031 20.285156 12.449219 20.289062 12.441406 20.292969 C 12.398438 20.332031 12.351562 20.363281 12.304688 20.390625 C 12.246094 20.425781 12.183594 20.457031 12.121094 20.480469 C 11.910156 20.5625 11.6875 20.578125 11.472656 20.527344 C 11.625 20.628906 11.804688 20.6875 11.996094 20.6875 C 12.078125 20.6875 12.160156 20.679688 12.234375 20.65625 C 12.269531 20.648438 12.304688 20.636719 12.339844 20.621094 C 12.4375 20.582031 12.523438 20.53125 12.605469 20.464844 C 12.789062 20.617188 13.023438 20.710938 13.277344 20.710938 C 13.59375 20.710938 13.878906 20.570312 14.074219 20.339844 C 13.921875 20.765625 13.527344 21.070312 13.066406 21.070312 C 12.832031 21.070312 12.613281 20.992188 12.433594 20.855469 C 12.660156 21.265625 13.148438 21.546875 13.714844 21.546875 C 14.019531 21.546875 14.300781 21.464844 14.53125 21.324219 C 14.734375 21.484375 15.007812 21.582031 15.3125 21.582031 C 15.664062 21.582031 15.976562 21.453125 16.183594 21.246094 C 16.371094 21.410156 16.617188 21.511719 16.878906 21.511719 C 17.242188 21.511719 17.5625 21.324219 17.765625 21.035156 C 18.046875 21.234375 18.402344 21.355469 18.792969 21.355469 C 19.429688 21.355469 19.980469 21.039062 20.246094 20.574219 C 20.105469 20.621094 19.949219 20.648438 19.789062 20.648438 C 19.328125 20.648438 18.929688 20.433594 18.726562 20.117188 C 18.496094 20.242188 18.242188 20.300781 18 20.292969 C 17.902344 20.289062 17.808594 20.273438 17.71875 20.246094 C 18.125 20.035156 18.523438 19.636719 18.847656 19.109375 "/>
<path style=" stroke:none;fill-rule:nonzero;fill:rgb(100%,100%,100%);fill-opacity:1;" d="M 14.421875 10.84375 C 14.523438 10.683594 14.613281 10.519531 14.6875 10.355469 L 13.152344 10.355469 C 13.425781 10.71875 13.589844 11.207031 13.589844 11.742188 L 13.589844 11.761719 C 13.894531 11.53125 14.183594 11.21875 14.421875 10.84375 "/>
<path style=" stroke:none;fill-rule:nonzero;fill:rgb(100%,100%,100%);fill-opacity:1;" d="M 14.1875 7.539062 C 14.253906 7.511719 14.316406 7.492188 14.382812 7.46875 C 14.8125 7.332031 15.238281 7.265625 15.632812 7.265625 C 15.457031 7.179688 15.257812 7.128906 15.046875 7.113281 C 15.359375 7.007812 15.671875 6.976562 15.957031 7.007812 C 15.859375 6.949219 15.800781 6.839844 15.785156 6.707031 C 15.773438 6.59375 15.792969 6.464844 15.851562 6.339844 C 15.871094 6.300781 15.894531 6.261719 15.917969 6.226562 C 15.6875 6.257812 15.445312 6.328125 15.214844 6.445312 C 15.121094 6.492188 15.03125 6.542969 14.945312 6.601562 L 14.945312 6.863281 C 14.9375 6.867188 14.929688 6.871094 14.917969 6.875 C 14.808594 6.917969 14.695312 6.972656 14.589844 7.035156 C 14.515625 7.082031 14.441406 7.128906 14.375 7.175781 C 14.371094 7.179688 14.367188 7.183594 14.363281 7.1875 C 14.171875 7.328125 14.007812 7.492188 13.878906 7.664062 C 13.925781 7.644531 13.972656 7.625 14.019531 7.605469 C 14.074219 7.582031 14.132812 7.558594 14.1875 7.539062 "/>
<path style=" stroke:none;fill-rule:nonzero;fill:rgb(100%,100%,100%);fill-opacity:1;" d="M 16.296875 5.992188 C 16.296875 5.9375 16.25 5.890625 16.195312 5.890625 C 16.140625 5.890625 16.097656 5.9375 16.097656 5.992188 L 16.097656 7.402344 C 16.164062 7.410156 16.230469 7.421875 16.296875 7.4375 Z M 16.296875 5.992188 "/>
<path style=" stroke:none;fill-rule:nonzero;fill:rgb(100%,100%,100%);fill-opacity:1;" d="M 14.96875 12.636719 C 15.101562 12.566406 15.238281 12.5 15.382812 12.4375 C 17.183594 11.632812 18.925781 11.675781 19.273438 12.535156 C 19.289062 12.566406 19.300781 12.601562 19.308594 12.636719 Z M 21.046875 13.988281 C 21.023438 13.535156 20.953125 13.101562 20.835938 12.691406 C 20.832031 12.671875 20.828125 12.65625 20.820312 12.636719 L 19.566406 12.636719 C 19.890625 12.140625 20.085938 11.644531 20.140625 11.1875 C 20.1875 10.796875 20.128906 10.433594 19.949219 10.125 C 19.636719 9.585938 19.011719 9.28125 18.214844 9.207031 C 18.265625 8.953125 18.25 8.707031 18.15625 8.480469 C 17.742188 7.492188 16 7.28125 14.265625 8.011719 C 14.113281 8.074219 13.964844 8.144531 13.820312 8.21875 C 13.890625 8.277344 13.957031 8.347656 14.011719 8.425781 C 14.171875 8.664062 14.234375 8.945312 14.203125 9.234375 C 14.199219 9.292969 14.1875 9.347656 14.175781 9.40625 C 14.132812 9.613281 14.039062 9.824219 13.910156 10.023438 C 14.074219 9.886719 14.253906 9.753906 14.445312 9.628906 C 14.492188 9.597656 14.535156 9.570312 14.582031 9.542969 C 14.675781 9.484375 14.773438 9.425781 14.875 9.371094 C 16.234375 8.628906 17.550781 8.554688 17.847656 9.191406 C 17.445312 9.191406 17.003906 9.242188 16.542969 9.34375 C 16.050781 9.453125 15.535156 9.625 15.015625 9.855469 C 14.972656 9.882812 14.933594 9.90625 14.894531 9.933594 C 15.109375 10.28125 15.238281 10.6875 15.238281 11.125 C 15.238281 11.367188 15.199219 11.597656 15.128906 11.8125 C 15.082031 11.957031 15.023438 12.09375 14.949219 12.222656 C 14.863281 12.378906 14.636719 12.652344 14.636719 12.652344 C 14.636719 12.652344 14.707031 12.253906 14.71875 11.90625 L 12.058594 11.90625 C 12.117188 12.015625 12.183594 12.144531 12.234375 12.265625 C 12.371094 12.589844 12.476562 12.957031 12.542969 13.347656 C 12.648438 13.945312 12.664062 14.609375 12.574219 15.296875 C 12.539062 15.59375 12.484375 15.875 12.414062 16.148438 C 12.269531 16.71875 12.058594 17.234375 11.800781 17.675781 C 12.179688 17.449219 12.609375 17.230469 13.074219 17.027344 C 13.078125 17.015625 13.082031 17.003906 13.089844 16.992188 C 13.089844 16.988281 13.089844 16.984375 13.089844 16.980469 C 13.089844 16.980469 13.09375 16.980469 13.09375 16.980469 C 13.152344 16.804688 13.347656 16.148438 13.347656 14.828125 C 13.347656 13.304688 13.058594 12.648438 13.042969 12.609375 L 13.039062 12.609375 C 13.039062 12.609375 13.039062 12.605469 13.039062 12.605469 C 13.257812 12.78125 13.4375 13.019531 13.574219 13.300781 C 13.605469 13.371094 13.640625 13.441406 13.667969 13.515625 C 13.9375 14.214844 13.976562 15.132812 13.730469 16.082031 C 13.722656 16.113281 13.710938 16.148438 13.703125 16.179688 C 13.691406 16.222656 13.679688 16.265625 13.664062 16.308594 C 13.617188 16.464844 13.5625 16.617188 13.5 16.765625 C 13.488281 16.800781 13.472656 16.832031 13.460938 16.863281 C 13.230469 17.390625 12.929688 17.84375 12.589844 18.199219 C 13.035156 17.972656 13.53125 17.761719 14.058594 17.574219 C 14.105469 17.558594 14.152344 17.542969 14.195312 17.527344 C 15.628906 17.035156 16.984375 16.824219 17.957031 16.890625 L 17.957031 16.738281 L 19.859375 15.304688 L 20.125 15.304688 L 20.125 15.625 L 18.808594 16.972656 L 18.796875 17.050781 C 19.222656 17.144531 19.53125 17.382812 19.574219 17.699219 C 19.585938 17.78125 19.578125 17.867188 19.550781 17.949219 C 20.519531 17.027344 21.113281 15.582031 21.046875 13.988281 "/>
<path style=" stroke:none;fill-rule:nonzero;fill:rgb(100%,100%,100%);fill-opacity:1;" d="M 16.957031 21.070312 C 16.738281 21.070312 16.53125 21.019531 16.351562 20.933594 C 16.5 21.148438 16.707031 21.285156 16.941406 21.292969 C 17.15625 21.300781 17.359375 21.191406 17.515625 21.011719 C 17.539062 20.984375 17.5625 20.957031 17.585938 20.925781 C 17.539062 20.949219 17.492188 20.96875 17.441406 20.984375 C 17.292969 21.039062 17.128906 21.070312 16.957031 21.070312 "/>
<path style=" stroke:none;fill-rule:nonzero;fill:rgb(100%,100%,100%);fill-opacity:1;" d="M 18.824219 21.082031 C 18.65625 21.066406 18.5 21.003906 18.367188 20.910156 C 18.28125 20.953125 18.199219 20.984375 18.113281 21.007812 C 18.261719 21.117188 18.433594 21.191406 18.625 21.207031 C 18.894531 21.234375 19.15625 21.148438 19.367188 20.980469 C 19.203125 21.0625 19.015625 21.101562 18.824219 21.082031 "/>
<path style=" stroke:none;fill-rule:nonzero;fill:rgb(100%,100%,100%);fill-opacity:1;" d="M 18.359375 20.570312 C 18.429688 20.648438 18.515625 20.714844 18.609375 20.765625 C 18.847656 20.890625 19.152344 20.914062 19.445312 20.816406 C 19.199219 20.820312 18.964844 20.75 18.785156 20.621094 C 18.703125 20.558594 18.632812 20.488281 18.574219 20.402344 C 18.625 20.355469 18.675781 20.308594 18.722656 20.253906 C 18.664062 20.289062 18.605469 20.320312 18.542969 20.351562 C 18.453125 20.390625 18.363281 20.421875 18.273438 20.445312 C 18.210938 20.460938 18.148438 20.472656 18.085938 20.480469 C 18.058594 20.480469 18.035156 20.484375 18.007812 20.484375 C 17.933594 20.492188 17.859375 20.488281 17.785156 20.480469 C 17.769531 20.480469 17.75 20.476562 17.730469 20.476562 C 17.492188 20.441406 17.269531 20.335938 17.09375 20.160156 C 17.023438 20.089844 16.960938 20.007812 16.914062 19.921875 C 16.890625 19.882812 16.871094 19.84375 16.855469 19.800781 C 16.847656 19.78125 16.839844 19.761719 16.832031 19.742188 C 16.796875 19.792969 16.757812 19.839844 16.710938 19.886719 C 16.589844 20.015625 16.4375 20.128906 16.265625 20.21875 C 16.21875 20.242188 16.171875 20.261719 16.125 20.28125 C 16.070312 20.304688 16.019531 20.324219 15.960938 20.339844 C 15.902344 20.359375 15.839844 20.375 15.777344 20.390625 C 15.722656 20.402344 15.664062 20.410156 15.605469 20.417969 C 15.339844 20.453125 15.082031 20.433594 14.847656 20.371094 C 14.8125 20.363281 14.777344 20.351562 14.746094 20.339844 C 14.777344 20.375 14.816406 20.410156 14.851562 20.4375 C 15.117188 20.660156 15.453125 20.773438 15.804688 20.726562 C 15.871094 20.71875 15.9375 20.707031 16 20.6875 C 16.007812 20.683594 16.015625 20.679688 16.023438 20.679688 C 16.082031 20.660156 16.140625 20.636719 16.191406 20.609375 C 16.203125 20.605469 16.214844 20.597656 16.222656 20.59375 C 16.433594 20.480469 16.609375 20.300781 16.730469 20.089844 C 16.769531 20.292969 16.867188 20.476562 17.019531 20.609375 C 17.027344 20.613281 17.03125 20.621094 17.039062 20.625 C 17.210938 20.761719 17.425781 20.824219 17.65625 20.8125 C 17.699219 20.8125 17.742188 20.804688 17.785156 20.800781 C 17.820312 20.792969 17.855469 20.785156 17.890625 20.777344 C 17.972656 20.757812 18.054688 20.730469 18.136719 20.691406 C 18.210938 20.65625 18.289062 20.617188 18.359375 20.570312 "/>
<path style=" stroke:none;fill-rule:nonzero;fill:rgb(100%,100%,100%);fill-opacity:1;" d="M 14.699219 20.925781 C 14.632812 20.890625 14.574219 20.847656 14.523438 20.800781 C 14.503906 20.839844 14.476562 20.875 14.449219 20.910156 C 14.300781 21.09375 14.074219 21.210938 13.824219 21.210938 C 13.792969 21.210938 13.765625 21.207031 13.734375 21.207031 C 13.832031 21.246094 13.933594 21.269531 14.042969 21.269531 C 14.242188 21.269531 14.421875 21.195312 14.5625 21.074219 C 14.714844 21.238281 14.945312 21.34375 15.207031 21.34375 C 15.5625 21.34375 15.863281 21.148438 15.976562 20.867188 C 15.800781 20.992188 15.558594 21.070312 15.292969 21.070312 C 15.070312 21.070312 14.863281 21.015625 14.699219 20.925781 "/>
<path style=" stroke:none;fill-rule:nonzero;fill:rgb(100%,64.313725%,0%);fill-opacity:1;" d="M 14.621094 18.492188 C 14.714844 18.511719 14.816406 18.480469 14.90625 18.410156 C 14.902344 18.410156 14.894531 18.410156 14.890625 18.40625 C 14.714844 18.371094 14.605469 18.152344 14.597656 17.875 L 14.316406 17.976562 C 14.335938 18.25 14.445312 18.453125 14.621094 18.492188 "/>
<path style=" stroke:none;fill-rule:nonzero;fill:rgb(100%,64.313725%,0%);fill-opacity:1;" d="M 17.558594 20.1875 C 17.960938 19.472656 18.324219 18.445312 18.5625 17.273438 C 18.582031 17.183594 18.597656 17.09375 18.613281 17.003906 L 18.308594 16.953125 L 19.859375 15.640625 L 19.859375 15.503906 L 18.148438 16.839844 C 18.148438 16.914062 18.144531 16.988281 18.140625 17.0625 C 18.097656 18.328125 17.847656 19.453125 17.496094 20.160156 C 17.515625 20.167969 17.539062 20.179688 17.558594 20.1875 "/>
<path style=" stroke:none;fill-rule:nonzero;fill:rgb(100%,64.313725%,0%);fill-opacity:1;" d="M 17.691406 20.125 C 17.890625 19.992188 18.089844 19.808594 18.28125 19.585938 C 18.25 19.542969 18.214844 19.5 18.179688 19.457031 C 18.152344 19.425781 18.121094 19.390625 18.089844 19.359375 C 17.964844 19.648438 17.828125 19.90625 17.691406 20.125 "/>
<path style=" stroke:none;fill-rule:nonzero;fill:rgb(100%,64.313725%,0%);fill-opacity:1;" d="M 18.40625 19.425781 C 18.464844 19.347656 18.523438 19.269531 18.578125 19.183594 C 18.53125 19.105469 18.476562 19.015625 18.417969 18.933594 C 18.382812 18.886719 18.351562 18.839844 18.316406 18.796875 C 18.269531 18.921875 18.222656 19.042969 18.175781 19.160156 C 18.226562 19.210938 18.277344 19.269531 18.332031 19.332031 C 18.355469 19.363281 18.382812 19.394531 18.40625 19.425781 "/>
<path style=" stroke:none;fill-rule:nonzero;fill:rgb(100%,64.313725%,0%);fill-opacity:1;" d="M 18.695312 18.996094 C 18.742188 18.917969 18.789062 18.835938 18.832031 18.75 C 18.789062 18.65625 18.726562 18.527344 18.65625 18.40625 C 18.609375 18.328125 18.5625 18.25 18.515625 18.183594 C 18.476562 18.316406 18.4375 18.449219 18.394531 18.574219 C 18.449219 18.644531 18.515625 18.730469 18.578125 18.820312 C 18.621094 18.878906 18.660156 18.941406 18.695312 18.996094 "/>
<path style=" stroke:none;fill-rule:nonzero;fill:rgb(100%,64.313725%,0%);fill-opacity:1;" d="M 19.019531 18.339844 C 19.027344 18.324219 19.035156 18.308594 19.039062 18.289062 C 18.960938 17.992188 18.84375 17.722656 18.699219 17.5 C 18.664062 17.648438 18.625 17.796875 18.585938 17.9375 C 18.628906 17.996094 18.734375 18.148438 18.828125 18.308594 C 18.867188 18.382812 18.90625 18.457031 18.941406 18.523438 C 18.96875 18.464844 18.996094 18.402344 19.019531 18.339844 "/>
<path style=" stroke:none;fill-rule:nonzero;fill:rgb(100%,64.313725%,0%);fill-opacity:1;" d="M 15.4375 20.019531 C 15.5625 20.003906 15.6875 19.980469 15.808594 19.949219 C 15.863281 19.933594 15.917969 19.917969 15.972656 19.902344 C 16.386719 19.769531 16.722656 19.558594 16.914062 19.3125 C 16.945312 19.527344 17.03125 19.730469 17.175781 19.898438 C 17.191406 19.921875 17.210938 19.945312 17.234375 19.964844 C 17.253906 19.984375 17.273438 20.003906 17.292969 20.019531 C 17.3125 20.035156 17.328125 20.046875 17.34375 20.058594 C 17.460938 19.808594 17.566406 19.507812 17.65625 19.171875 C 17.433594 19.1875 16.976562 19.25 16.339844 19.449219 C 15.859375 19.601562 15.34375 19.816406 14.878906 20.039062 C 14.90625 20.039062 14.933594 20.042969 14.960938 20.042969 C 15 20.042969 15.035156 20.042969 15.074219 20.042969 C 15.191406 20.042969 15.3125 20.035156 15.4375 20.019531 "/>
<path style=" stroke:none;fill-rule:nonzero;fill:rgb(100%,64.313725%,0%);fill-opacity:1;" d="M 14.386719 19.699219 C 14.46875 19.78125 14.558594 19.851562 14.65625 19.917969 C 15.164062 19.671875 15.738281 19.417969 16.277344 19.25 C 17.011719 19.023438 17.507812 18.972656 17.710938 18.960938 C 17.746094 18.796875 17.78125 18.628906 17.8125 18.453125 C 17.613281 18.460938 17.136719 18.507812 16.457031 18.734375 C 15.558594 19.039062 14.722656 19.5 14.386719 19.699219 "/>
<path style=" stroke:none;fill-rule:nonzero;fill:rgb(100%,64.313725%,0%);fill-opacity:1;" d="M 14.238281 19.542969 C 14.550781 19.359375 15.4375 18.859375 16.390625 18.539062 C 17.144531 18.285156 17.65625 18.25 17.84375 18.246094 C 17.871094 18.082031 17.890625 17.910156 17.90625 17.738281 C 17.703125 17.742188 17.230469 17.785156 16.574219 18.023438 C 15.65625 18.359375 15.195312 18.683594 15.191406 18.683594 C 15.191406 18.683594 15.558594 18.175781 16.503906 17.828125 C 17.210938 17.570312 17.710938 17.535156 17.925781 17.53125 C 17.9375 17.390625 17.945312 17.25 17.949219 17.105469 C 17.1875 17.191406 16.335938 17.464844 15.496094 17.921875 C 15.460938 17.941406 15.410156 17.96875 15.371094 17.992188 C 15.367188 18.007812 15.363281 18.023438 15.355469 18.039062 C 15.222656 18.480469 14.875 18.769531 14.578125 18.683594 C 14.34375 18.621094 14.214844 18.339844 14.238281 18.007812 L 13.667969 18.214844 C 13.691406 18.5 13.773438 18.792969 13.917969 19.074219 C 14.007812 19.246094 14.117188 19.40625 14.238281 19.542969 "/>
<path style=" stroke:none;fill-rule:nonzero;fill:rgb(88.627451%,13.72549%,10.196078%);fill-opacity:1;" d="M 17.527344 14.34375 C 17.605469 13.835938 17.90625 13.398438 18.328125 13.140625 L 16.203125 13.140625 C 16.625 13.398438 16.925781 13.835938 17.003906 14.34375 C 16.492188 14.269531 16.054688 13.96875 15.796875 13.546875 L 15.796875 15.667969 C 16.054688 15.246094 16.492188 14.949219 17.003906 14.871094 C 16.925781 15.378906 16.625 15.816406 16.203125 16.074219 L 18.328125 16.074219 C 17.90625 15.816406 17.605469 15.378906 17.527344 14.871094 C 18.035156 14.949219 18.472656 15.25 18.734375 15.671875 L 18.734375 13.546875 C 18.472656 13.96875 18.035156 14.269531 17.527344 14.34375 "/>
</g>
</svg>
