<?xml version="1.0" encoding="UTF-8"?>
<svg xmlns="http://www.w3.org/2000/svg" xmlns:xlink="http://www.w3.org/1999/xlink" width="32px" height="32px" viewBox="0 0 32 40" version="1.1">
<g id="surface1">
<path style=" stroke:none;fill-rule:nonzero;fill:rgb(0%,32.941176%,30.196078%);fill-opacity:1;" d="M 16 39.882812 C 24.789062 39.882812 31.921875 32.84375 31.921875 24.164062 C 31.921875 15.496094 24.789062 8.457031 16 8.457031 C 7.210938 8.457031 0.078125 15.496094 0.078125 24.164062 C 0.078125 32.84375 7.210938 39.882812 16 39.882812 "/>
<path style=" stroke:none;fill-rule:nonzero;fill:rgb(100%,100%,100%);fill-opacity:1;" d="M 16 39.246094 C 24.421875 39.246094 31.257812 32.492188 31.257812 24.167969 C 31.257812 15.851562 24.421875 9.097656 16 9.097656 C 7.578125 9.097656 0.742188 15.851562 0.742188 24.167969 C 0.742188 32.492188 7.578125 39.246094 16 39.246094 "/>
<path style=" stroke:none;fill-rule:nonzero;fill:rgb(0%,32.941176%,30.196078%);fill-opacity:1;" d="M 16 38.648438 C 24.089844 38.648438 30.648438 32.164062 30.648438 24.167969 C 30.648438 16.179688 24.089844 9.703125 16 9.703125 C 7.910156 9.703125 1.355469 16.179688 1.355469 24.167969 C 1.355469 32.160156 7.910156 38.648438 16 38.648438 "/>
<path style=" stroke:none;fill-rule:nonzero;fill:rgb(100%,100%,100%);fill-opacity:1;" d="M 16 34.828125 C 21.953125 34.828125 26.789062 30.058594 26.789062 24.164062 C 26.789062 18.28125 21.953125 13.511719 16 13.511719 C 10.046875 13.511719 5.210938 18.28125 5.210938 24.164062 C 5.210938 30.058594 10.046875 34.828125 16 34.828125 "/>
<path style=" stroke:none;fill-rule:nonzero;fill:rgb(0%,32.941176%,30.196078%);fill-opacity:1;" d="M 16 34.292969 C 21.65625 34.292969 26.246094 29.765625 26.246094 24.164062 C 26.246094 18.585938 21.65625 14.046875 16 14.046875 C 10.34375 14.046875 5.753906 18.585938 5.753906 24.164062 C 5.753906 29.765625 10.34375 34.292969 16 34.292969 "/>
<path style=" stroke:none;fill-rule:nonzero;fill:rgb(100%,100%,100%);fill-opacity:1;" d="M 22.710938 23.441406 C 22.703125 22.464844 22.328125 21.929688 21.65625 21.929688 C 20.914062 21.929688 20.53125 22.707031 20.53125 24.234375 C 20.53125 24.925781 20.589844 25.691406 21 26.105469 C 21.183594 26.289062 21.429688 26.382812 21.726562 26.382812 C 22.300781 26.382812 22.710938 25.882812 22.808594 25.0625 L 23.847656 25.132812 C 23.714844 26.546875 22.894531 27.382812 21.65625 27.382812 C 21.089844 27.382812 20.597656 27.195312 20.207031 26.804688 C 19.640625 26.246094 19.308594 25.277344 19.308594 24.164062 C 19.308594 23.0625 19.640625 22.105469 20.207031 21.535156 C 20.609375 21.148438 21.105469 20.949219 21.699219 20.949219 C 22.972656 20.949219 23.699219 21.75 23.847656 23.347656 L 22.714844 23.441406 Z M 22.710938 23.441406 "/>
<path style=" stroke:none;fill-rule:nonzero;fill:rgb(100%,100%,100%);fill-opacity:1;" d="M 15.71875 22.726562 L 15.71875 23.683594 L 17.101562 23.683594 L 17.101562 24.476562 L 15.71875 24.476562 L 15.71875 26.125 L 14.875 26.125 L 14.875 21.90625 L 17.449219 21.90625 L 17.449219 22.726562 Z M 15.71875 22.726562 "/>
<path style=" stroke:none;fill-rule:nonzero;fill:rgb(100%,100%,100%);fill-opacity:1;" d="M 11.558594 23.441406 C 11.539062 22.464844 11.171875 21.929688 10.5 21.929688 C 9.757812 21.929688 9.375 22.707031 9.375 24.234375 C 9.375 24.925781 9.4375 25.691406 9.847656 26.105469 C 10.03125 26.289062 10.273438 26.382812 10.570312 26.382812 C 11.148438 26.382812 11.558594 25.882812 11.652344 25.0625 L 12.691406 25.132812 C 12.550781 26.546875 11.742188 27.382812 10.5 27.382812 C 9.933594 27.382812 9.445312 27.195312 9.050781 26.804688 C 8.484375 26.246094 8.152344 25.277344 8.152344 24.164062 C 8.152344 23.0625 8.484375 22.105469 9.050781 21.535156 C 9.453125 21.148438 9.949219 20.949219 10.542969 20.949219 C 11.820312 20.949219 12.535156 21.75 12.691406 23.347656 Z M 11.558594 23.441406 "/>
<path style=" stroke:none;fill-rule:nonzero;fill:rgb(100%,100%,100%);fill-opacity:1;" d="M 28.96875 28.53125 L 28.96875 28.203125 C 29.039062 28.1875 29.101562 28.152344 29.160156 28.089844 C 29.257812 28.003906 29.285156 27.882812 29.320312 27.765625 L 29.476562 27.203125 L 28.96875 27.066406 L 28.96875 26.730469 L 29.816406 26.953125 L 29.5625 27.902344 C 29.511719 28.089844 29.457031 28.246094 29.300781 28.386719 C 29.207031 28.464844 29.09375 28.515625 28.96875 28.535156 M 28.96875 25.808594 L 28.96875 25.53125 L 30.015625 25.601562 L 30 25.867188 Z M 28.96875 24.339844 L 28.96875 24.011719 L 30.113281 24.082031 L 30.085938 24.410156 Z M 28.96875 22.226562 L 28.96875 21.898438 L 29.894531 21.777344 L 29.9375 22.105469 L 28.96875 22.230469 Z M 28.96875 21.113281 L 28.96875 20.734375 C 29.179688 20.570312 29.308594 20.347656 29.214844 20.046875 C 29.160156 19.898438 29.074219 19.796875 28.96875 19.726562 L 28.96875 19.371094 C 29.195312 19.484375 29.378906 19.683594 29.484375 19.984375 C 29.640625 20.480469 29.398438 20.875 28.96875 21.117188 M 28.96875 19.375 L 28.96875 19.726562 C 28.691406 19.554688 28.28125 19.597656 27.972656 19.703125 C 27.929688 19.710938 27.878906 19.726562 27.835938 19.746094 L 27.835938 19.375 C 27.851562 19.367188 27.871094 19.359375 27.886719 19.347656 C 28.265625 19.234375 28.65625 19.226562 28.96875 19.375 M 28.96875 20.738281 L 28.96875 21.117188 L 28.820312 20.839844 C 28.875 20.8125 28.917969 20.777344 28.96875 20.738281 M 28.96875 21.902344 L 28.96875 22.226562 L 27.835938 22.367188 L 27.835938 22.039062 L 28.96875 21.898438 Z M 28.96875 24.011719 L 28.96875 24.339844 L 28.4375 24.304688 C 28.28125 24.296875 28.0625 24.289062 27.921875 24.375 C 27.886719 24.394531 27.863281 24.417969 27.835938 24.445312 L 27.835938 24.054688 C 28.027344 23.96875 28.238281 23.96875 28.457031 23.988281 L 28.972656 24.011719 Z M 28.96875 25.53125 L 28.96875 25.808594 L 28.339844 25.773438 C 28.160156 25.757812 27.992188 25.738281 27.835938 25.671875 L 27.835938 25.335938 L 27.84375 25.34375 C 27.984375 25.480469 28.183594 25.488281 28.359375 25.5 L 28.96875 25.535156 Z M 28.96875 26.730469 L 28.96875 27.066406 L 28.648438 26.980469 L 28.515625 27.464844 C 28.472656 27.621094 28.421875 27.792969 28.488281 27.949219 C 28.535156 28.070312 28.65625 28.164062 28.777344 28.1875 C 28.847656 28.214844 28.910156 28.214844 28.96875 28.207031 L 28.96875 28.535156 C 28.890625 28.542969 28.8125 28.535156 28.734375 28.515625 C 28.445312 28.4375 28.273438 28.214844 28.28125 27.921875 C 28.183594 28.101562 28.019531 28.230469 27.835938 28.277344 L 27.835938 27.964844 C 27.90625 27.949219 27.976562 27.921875 28.035156 27.878906 C 28.167969 27.785156 28.210938 27.628906 28.246094 27.480469 L 28.402344 26.914062 L 27.835938 26.765625 L 27.835938 26.421875 Z M 27.835938 21.417969 L 27.835938 21.125 C 27.878906 21.125 27.929688 21.125 27.984375 21.117188 L 28.011719 21.417969 C 27.949219 21.425781 27.890625 21.425781 27.835938 21.417969 M 27.835938 19.371094 L 27.835938 19.742188 C 27.667969 19.8125 27.503906 19.898438 27.382812 20 C 27.199219 20.164062 27.074219 20.414062 27.164062 20.675781 C 27.269531 21.003906 27.539062 21.113281 27.835938 21.125 L 27.835938 21.417969 C 27.398438 21.40625 27.050781 21.21875 26.902344 20.761719 C 26.671875 20.0625 27.230469 19.570312 27.832031 19.371094 M 27.832031 22.039062 L 27.832031 22.367188 L 27.617188 22.390625 L 27.773438 23.589844 L 27.476562 23.625 L 27.292969 22.105469 Z M 27.832031 24.058594 L 27.832031 24.445312 C 27.730469 24.558594 27.695312 24.730469 27.683594 24.867188 C 27.675781 25.03125 27.710938 25.210938 27.832031 25.332031 L 27.832031 25.667969 C 27.765625 25.636719 27.703125 25.59375 27.640625 25.539062 C 27.441406 25.351562 27.378906 25.09375 27.398438 24.824219 C 27.414062 24.574219 27.484375 24.308594 27.695312 24.144531 C 27.738281 24.109375 27.78125 24.082031 27.832031 24.058594 M 27.832031 26.421875 L 27.832031 26.765625 L 27.464844 26.660156 L 27.300781 27.273438 C 27.265625 27.410156 27.230469 27.574219 27.292969 27.703125 C 27.34375 27.835938 27.457031 27.921875 27.585938 27.957031 C 27.667969 27.972656 27.753906 27.980469 27.832031 27.964844 L 27.832031 28.273438 C 27.726562 28.300781 27.605469 28.292969 27.492188 28.265625 C 27.273438 28.207031 27.109375 28.085938 27.019531 27.878906 C 26.914062 27.644531 26.960938 27.445312 27.027344 27.222656 L 27.28125 26.273438 Z M 25.597656 32.542969 L 25.597656 31.597656 C 25.625 31.585938 25.648438 31.585938 25.683594 31.585938 C 25.957031 31.585938 26.171875 31.804688 26.171875 32.070312 C 26.171875 32.339844 25.957031 32.554688 25.683594 32.554688 C 25.652344 32.550781 25.625 32.550781 25.597656 32.542969 M 25.597656 17.957031 L 25.597656 17.441406 L 26.261719 18.414062 L 26.015625 18.578125 Z M 25.597656 17.40625 L 25.597656 17.015625 L 27.328125 15.859375 L 27.519531 16.128906 Z M 25.597656 14.792969 L 25.597656 14.34375 L 25.808594 14.144531 L 26.035156 14.378906 Z M 25.597656 14.34375 L 25.597656 14.792969 L 24.332031 15.964844 L 25.171875 16.835938 L 24.960938 17.035156 L 24.246094 16.285156 L 24.246094 15.601562 L 25.601562 14.34375 Z M 25.597656 17.015625 L 25.152344 17.308594 L 25.597656 17.957031 L 25.597656 17.441406 L 25.582031 17.414062 L 25.597656 17.40625 Z M 25.597656 31.59375 L 25.597656 32.542969 C 25.371094 32.5 25.195312 32.300781 25.195312 32.070312 C 25.195312 31.828125 25.371094 31.636719 25.597656 31.59375 M 24.246094 14.109375 L 24.246094 12.917969 L 24.28125 12.886719 L 24.585938 13.109375 Z M 24.246094 12.917969 L 24.246094 14.109375 L 24.054688 14.671875 L 24.054688 13.6875 L 24.203125 13.257812 L 24.054688 13.367188 L 24.054688 13.050781 Z M 24.246094 15.601562 L 24.246094 16.28125 L 24.054688 16.074219 L 24.054688 15.78125 Z M 24.054688 13.050781 L 24.054688 13.367188 L 23.660156 13.636719 L 23.660156 13.324219 Z M 24.054688 13.6875 L 24.054688 14.671875 L 23.695312 15.695312 L 23.660156 15.664062 L 23.660156 14.78125 L 23.679688 14.730469 L 23.660156 14.722656 L 23.660156 14.410156 L 23.765625 14.488281 L 24.050781 13.6875 Z M 24.054688 15.78125 L 24.054688 16.074219 L 23.894531 15.921875 Z M 23.660156 13.324219 L 23.660156 13.636719 L 23.121094 14.015625 L 23.660156 14.410156 L 23.660156 14.722656 L 22.902344 14.160156 L 22.386719 14.523438 L 22.386719 14.214844 Z M 23.660156 14.78125 L 23.660156 15.664062 L 23.425781 15.5 Z M 22.386719 36.121094 L 22.386719 35.648438 L 23.035156 36.320312 L 22.726562 36.460938 L 22.390625 36.121094 Z M 22.386719 33.628906 L 22.386719 33.398438 L 22.519531 33.492188 L 22.386719 33.632812 Z M 22.386719 12.867188 L 22.386719 12.429688 C 22.421875 12.332031 22.421875 12.246094 22.386719 12.160156 L 22.386719 11.738281 C 22.492188 11.808594 22.589844 11.875 22.660156 11.996094 C 22.761719 12.179688 22.773438 12.386719 22.683594 12.574219 C 22.617188 12.710938 22.511719 12.816406 22.390625 12.867188 M 22.390625 11.738281 L 22.390625 12.160156 C 22.378906 12.136719 22.363281 12.109375 22.34375 12.082031 C 22.273438 11.972656 22.160156 11.917969 22.046875 11.867188 L 21.515625 11.609375 L 21.289062 12.066406 L 21.289062 11.324219 L 21.332031 11.230469 L 22.222656 11.660156 C 22.285156 11.6875 22.335938 11.710938 22.390625 11.738281 M 22.390625 12.429688 L 22.390625 12.867188 C 22.277344 12.917969 22.144531 12.929688 22.003906 12.902344 L 22.003906 12.910156 C 22.265625 13.109375 22.355469 13.4375 22.207031 13.730469 C 22.109375 13.929688 21.953125 14.066406 21.734375 14.117188 C 21.570312 14.152344 21.429688 14.128906 21.289062 14.074219 L 21.289062 13.78125 C 21.394531 13.816406 21.507812 13.84375 21.613281 13.816406 C 21.75 13.792969 21.855469 13.703125 21.917969 13.574219 C 21.980469 13.4375 21.988281 13.265625 21.917969 13.136719 C 21.847656 12.988281 21.699219 12.917969 21.570312 12.851562 L 21.289062 12.722656 L 21.289062 12.445312 L 21.59375 12.59375 C 21.742188 12.660156 21.910156 12.738281 22.074219 12.703125 C 22.207031 12.6875 22.320312 12.582031 22.371094 12.472656 C 22.375 12.460938 22.375 12.445312 22.386719 12.429688 M 22.386719 14.214844 L 22.386719 14.523438 L 22.253906 14.628906 L 22.027344 14.464844 Z M 22.386719 33.398438 L 22.386719 33.632812 L 21.921875 34.15625 L 21.792969 34.054688 L 22.289062 33.320312 L 22.382812 33.398438 Z M 22.386719 35.648438 L 22.386719 36.125 L 22.160156 35.890625 L 21.285156 36.304688 L 21.285156 36.027344 L 21.984375 35.699219 L 21.285156 34.96875 L 21.285156 34.511719 L 22.386719 35.652344 Z M 21.285156 37.140625 L 21.285156 36.339844 L 21.398438 37.089844 Z M 21.285156 11.324219 L 21.285156 12.066406 L 21.136719 12.367188 L 21.285156 12.445312 L 21.285156 12.722656 L 21.023438 12.59375 L 20.605469 13.457031 L 21.179688 13.730469 C 21.214844 13.75 21.25 13.765625 21.285156 13.78125 L 21.285156 14.078125 C 21.214844 14.058594 21.144531 14.023438 21.074219 13.988281 L 20.1875 13.566406 Z M 21.285156 34.511719 L 21.285156 34.96875 L 21.074219 34.753906 L 21.257812 36.046875 L 21.285156 36.027344 L 21.285156 36.304688 L 21.277344 36.304688 L 21.285156 36.339844 L 21.285156 37.140625 L 21.15625 37.203125 L 20.789062 34.503906 L 21.128906 34.339844 Z M 16.648438 37.355469 L 16.648438 37.105469 L 17.050781 37.089844 L 16.648438 36.027344 L 16.648438 35.511719 L 16.789062 35.511719 L 17.777344 38.054688 L 17.445312 38.074219 L 17.136719 37.332031 L 16.652344 37.355469 Z M 16.648438 12.160156 L 16.648438 10.875 C 16.726562 11.054688 16.761719 11.261719 16.773438 11.46875 C 16.773438 11.695312 16.738281 11.9375 16.648438 12.160156 M 17.722656 12.945312 L 18.117188 10.667969 L 17.375 10.539062 L 17.425781 10.261719 L 19.214844 10.554688 L 19.171875 10.839844 L 18.4375 10.71875 L 18.046875 12.996094 Z M 20.113281 37.539062 L 18.253906 35.667969 L 18.8125 37.859375 L 18.550781 37.925781 L 17.90625 35.417969 L 18.308594 35.3125 L 20.035156 37.0625 L 19.511719 35.011719 L 19.78125 34.941406 L 20.417969 37.460938 Z M 16.648438 10.875 L 16.648438 12.160156 C 16.5 12.539062 16.203125 12.84375 15.734375 12.851562 L 15.699219 12.851562 L 15.699219 12.59375 L 15.722656 12.59375 C 16.28125 12.574219 16.441406 11.9375 16.421875 11.496094 C 16.421875 11.265625 16.378906 10.996094 16.257812 10.789062 C 16.132812 10.589844 15.941406 10.453125 15.699219 10.453125 L 15.699219 10.1875 C 16.179688 10.183594 16.492188 10.488281 16.648438 10.875 M 16.648438 35.511719 L 16.648438 36.027344 L 16.589844 35.863281 L 16.246094 37.132812 L 16.648438 37.105469 L 16.648438 37.355469 L 16.167969 37.382812 L 15.984375 38.140625 L 15.707031 38.160156 L 16.414062 35.527344 Z M 15.699219 10.183594 L 15.699219 10.453125 L 15.6875 10.453125 C 15.105469 10.46875 14.957031 11.089844 14.964844 11.554688 C 14.972656 11.996094 15.164062 12.582031 15.699219 12.589844 L 15.699219 12.851562 C 14.972656 12.851562 14.632812 12.203125 14.625 11.566406 C 14.605469 10.917969 14.914062 10.203125 15.671875 10.183594 Z M 14.335938 36.898438 L 14.335938 36.632812 C 14.503906 36.65625 14.640625 36.65625 14.789062 36.546875 C 14.886719 36.46875 14.949219 36.355469 14.964844 36.226562 C 14.992188 36.078125 14.949219 35.949219 14.835938 35.847656 C 14.730469 35.753906 14.625 35.734375 14.484375 35.71875 L 14.335938 35.699219 L 14.335938 35.414062 L 14.519531 35.441406 C 14.738281 35.46875 14.9375 35.527344 15.097656 35.675781 C 15.253906 35.828125 15.324219 36.0625 15.289062 36.277344 C 15.253906 36.582031 15.027344 36.832031 14.710938 36.875 L 15.0625 38.132812 L 14.722656 38.089844 L 14.398438 36.90625 Z M 14.335938 35.414062 L 14.335938 35.699219 L 13.839844 35.632812 L 13.707031 36.546875 L 14.320312 36.632812 L 14.335938 36.632812 L 14.335938 36.898438 L 13.671875 36.8125 L 13.515625 37.925781 L 13.191406 37.882812 L 13.550781 35.3125 Z M 12.992188 13.195312 L 12.992188 12.921875 C 13.070312 12.929688 13.160156 12.929688 13.246094 12.902344 C 13.796875 12.773438 13.8125 12.117188 13.707031 11.6875 C 13.648438 11.464844 13.550781 11.214844 13.386719 11.039062 C 13.28125 10.917969 13.140625 10.84375 12.992188 10.816406 L 12.992188 10.539062 C 13.542969 10.574219 13.910156 11.066406 14.039062 11.59375 C 14.1875 12.207031 14.039062 12.988281 13.316406 13.164062 C 13.203125 13.1875 13.097656 13.195312 12.992188 13.195312 M 12.992188 10.539062 L 12.992188 10.816406 C 12.914062 10.808594 12.835938 10.808594 12.757812 10.824219 C 12.179688 10.964844 12.171875 11.609375 12.285156 12.058594 C 12.371094 12.421875 12.609375 12.851562 12.992188 12.921875 L 12.992188 13.195312 C 12.441406 13.164062 12.074219 12.671875 11.945312 12.136719 C 11.796875 11.507812 11.945312 10.746094 12.679688 10.566406 C 12.792969 10.539062 12.894531 10.53125 12.992188 10.539062 M 11.761719 36.703125 L 11.761719 36.433594 L 12.136719 36.566406 L 12.152344 35.261719 L 11.761719 35.78125 L 11.761719 35.355469 L 12.121094 34.882812 L 12.476562 35.003906 L 12.449219 37.730469 L 12.128906 37.617188 L 12.121094 36.824219 Z M 11.761719 35.359375 L 11.761719 35.78125 L 11.367188 36.304688 L 11.761719 36.4375 L 11.761719 36.703125 L 11.203125 36.511719 L 10.835938 37.023438 L 10.835938 36.589844 L 11.761719 35.355469 Z M 10.835938 35.632812 C 10.941406 35.566406 11.027344 35.460938 11.089844 35.351562 C 11.195312 35.160156 11.21875 34.902344 11.140625 34.695312 C 11.070312 34.546875 10.96875 34.433594 10.835938 34.347656 L 10.835938 34.761719 C 10.878906 34.882812 10.871094 35.003906 10.835938 35.117188 Z M 10.835938 14.007812 L 10.835938 13.449219 L 11.046875 13.914062 Z M 10.835938 12.664062 L 10.835938 12.378906 L 11.394531 12.128906 L 11.5 12.371094 Z M 10.835938 11.472656 L 10.835938 11.171875 L 11.132812 11.03125 L 11.253906 11.292969 Z M 10.835938 11.171875 L 10.835938 11.472656 L 10.214844 11.75 L 10.214844 11.4375 Z M 10.835938 12.378906 L 10.835938 12.664062 L 10.539062 12.792969 L 10.835938 13.449219 L 10.835938 14.007812 L 10.75 14.050781 L 10.214844 12.894531 L 10.214844 12.101562 L 10.425781 12.558594 Z M 10.835938 34.351562 L 10.835938 34.761719 C 10.828125 34.761719 10.828125 34.753906 10.828125 34.753906 C 10.765625 34.625 10.679688 34.566406 10.558594 34.503906 L 10.214844 34.324219 L 10.214844 34.019531 L 10.660156 34.246094 C 10.722656 34.28125 10.773438 34.3125 10.835938 34.351562 M 10.835938 35.117188 L 10.835938 35.632812 C 10.765625 35.679688 10.695312 35.710938 10.625 35.730469 C 10.488281 35.773438 10.347656 35.765625 10.214844 35.730469 L 10.214844 35.445312 C 10.304688 35.472656 10.398438 35.480469 10.496094 35.453125 C 10.625 35.410156 10.730469 35.316406 10.792969 35.203125 C 10.808594 35.175781 10.820312 35.140625 10.835938 35.117188 M 10.835938 36.589844 L 10.835938 37.023438 L 10.738281 37.152344 L 10.476562 37.066406 Z M 10.214844 11.4375 L 10.214844 11.75 L 10.085938 11.808594 L 10.214844 12.101562 L 10.214844 12.894531 L 9.667969 11.6875 Z M 10.214844 34.019531 L 10.214844 34.324219 L 10.050781 34.234375 L 9.578125 35.117188 L 10.066406 35.375 C 10.121094 35.402344 10.171875 35.425781 10.214844 35.445312 L 10.214844 35.726562 C 10.136719 35.703125 10.050781 35.667969 9.972656 35.625 L 9.449219 35.359375 L 8.949219 36.289062 L 8.664062 36.132812 L 9.886719 33.839844 L 10.21875 34.019531 Z M 7.335938 16.691406 L 7.335938 15.878906 C 7.421875 15.992188 7.476562 16.128906 7.46875 16.277344 C 7.46875 16.441406 7.414062 16.570312 7.335938 16.691406 M 7.335938 14.722656 L 7.878906 16.070312 L 8.085938 15.898438 L 7.78125 15.171875 L 8.53125 14.558594 L 9.222656 14.972656 L 9.484375 14.757812 L 7.335938 13.421875 L 7.335938 13.792969 L 8.3125 14.414062 L 7.695312 14.921875 L 7.335938 14.042969 Z M 7.335938 13.421875 L 7.335938 13.792969 L 7.207031 13.707031 L 7.335938 14.042969 L 7.335938 14.722656 L 7.160156 14.300781 L 7.160156 13.308594 Z M 7.335938 15.878906 L 7.335938 16.691406 C 7.292969 16.75 7.238281 16.8125 7.1875 16.878906 L 7.160156 16.914062 L 7.160156 15.707031 C 7.179688 15.714844 7.1875 15.734375 7.207031 15.742188 C 7.25 15.785156 7.300781 15.828125 7.335938 15.878906 M 7.160156 13.308594 L 7.160156 14.300781 L 7.003906 13.90625 L 7.003906 13.421875 L 7.144531 13.300781 Z M 7.160156 15.707031 L 7.160156 16.914062 L 7.003906 17.105469 L 7.003906 16.664062 C 7.082031 16.570312 7.144531 16.449219 7.144531 16.328125 C 7.152344 16.199219 7.101562 16.085938 7.003906 16 L 7.003906 15.621094 C 7.058594 15.648438 7.109375 15.675781 7.160156 15.707031 M 7.003906 13.421875 L 7.003906 13.90625 L 6.855469 13.542969 Z M 7.003906 15.625 L 7.003906 16.003906 C 6.996094 15.996094 6.988281 15.984375 6.976562 15.984375 C 6.855469 15.882812 6.691406 15.839844 6.542969 15.875 C 6.382812 15.90625 6.28125 16.027344 6.183594 16.148438 L 6.027344 16.339844 L 6.027344 15.941406 C 6.097656 15.847656 6.15625 15.742188 6.15625 15.632812 C 6.167969 15.511719 6.113281 15.390625 6.027344 15.3125 L 6.027344 14.925781 C 6.078125 14.941406 6.132812 14.976562 6.175781 15.011719 C 6.402344 15.199219 6.464844 15.476562 6.332031 15.734375 L 6.339844 15.742188 C 6.542969 15.578125 6.785156 15.546875 7.003906 15.625 M 7.003906 16.667969 L 7.003906 17.105469 L 6.566406 17.632812 L 6.027344 17.203125 L 6.027344 16.78125 L 6.558594 17.210938 L 6.960938 16.71875 C 6.976562 16.703125 6.988281 16.683594 7.003906 16.667969 M 6.027344 32.554688 L 6.027344 31.589844 L 6.054688 31.589844 C 6.324219 31.589844 6.542969 31.804688 6.542969 32.074219 C 6.542969 32.339844 6.324219 32.554688 6.054688 32.554688 Z M 6.027344 18.417969 L 6.027344 18.039062 L 6.246094 18.167969 L 6.070312 18.453125 Z M 4.691406 26.65625 C 4.8125 26.769531 4.902344 26.917969 4.953125 27.105469 C 5.066406 27.496094 4.9375 27.8125 4.691406 28.054688 L 4.691406 27.46875 C 4.71875 27.382812 4.71875 27.289062 4.691406 27.191406 Z M 6.027344 14.925781 L 6.027344 15.3125 C 6.019531 15.304688 6.007812 15.296875 6 15.289062 C 5.878906 15.191406 5.757812 15.167969 5.609375 15.21875 C 5.484375 15.261719 5.40625 15.355469 5.328125 15.453125 L 4.953125 15.910156 L 5.617188 16.445312 L 5.941406 16.054688 C 5.964844 16.019531 6 15.988281 6.027344 15.941406 L 6.027344 16.339844 L 5.808594 16.609375 L 6.027344 16.78125 L 6.027344 17.203125 L 4.691406 16.125 L 4.691406 15.800781 L 5.164062 15.238281 C 5.292969 15.082031 5.398438 14.960938 5.597656 14.902344 C 5.746094 14.859375 5.894531 14.867188 6.027344 14.929688 M 6.027344 18.042969 L 6.027344 18.421875 L 4.691406 17.628906 L 4.691406 17.25 Z M 6.027344 31.59375 L 6.027344 32.558594 C 5.765625 32.542969 5.5625 32.335938 5.5625 32.074219 C 5.5625 31.816406 5.765625 31.601562 6.027344 31.59375 M 4.691406 21.855469 L 4.691406 21.535156 L 4.789062 21.511719 L 4.734375 21.847656 Z M 4.691406 20.984375 L 4.691406 20.648438 L 5.039062 20.75 L 4.953125 21.0625 Z M 4.691406 19.40625 L 4.691406 19.050781 L 5.5625 19.433594 L 5.425781 19.726562 Z M 3.871094 26.410156 C 4.195312 26.402344 4.492188 26.46875 4.691406 26.660156 L 4.691406 27.195312 L 4.691406 27.1875 C 4.585938 26.796875 4.246094 26.703125 3.886719 26.710938 Z M 4.691406 28.058594 C 4.492188 28.265625 4.203125 28.410156 3.914062 28.488281 C 3.6875 28.546875 3.453125 28.574219 3.234375 28.546875 L 3.234375 28.203125 C 3.433594 28.222656 3.660156 28.1875 3.84375 28.136719 C 4.046875 28.085938 4.28125 27.988281 4.4375 27.851562 C 4.558594 27.746094 4.65625 27.617188 4.691406 27.472656 Z M 4.691406 15.800781 L 4.691406 16.128906 L 4.535156 16 Z M 4.691406 17.25 L 4.691406 17.628906 L 3.828125 17.109375 L 3.992188 16.835938 Z M 4.691406 19.050781 L 4.691406 19.40625 L 3.292969 18.792969 L 3.234375 18.914062 L 3.234375 18.214844 L 3.460938 17.707031 L 3.722656 17.820312 L 3.425781 18.492188 Z M 4.691406 20.648438 L 4.691406 20.984375 L 3.234375 20.550781 L 3.234375 20.214844 L 4.691406 20.644531 Z M 4.691406 21.535156 L 4.691406 21.855469 L 3.539062 22.15625 L 3.433594 22.871094 L 4.558594 23.027344 L 4.515625 23.355469 L 3.234375 23.167969 L 3.234375 22.414062 L 3.257812 22.226562 C 3.285156 22.085938 3.292969 21.96875 3.234375 21.847656 L 3.234375 21.390625 C 3.382812 21.492188 3.488281 21.648438 3.511719 21.835938 L 4.691406 21.53125 Z M 3.234375 26.003906 L 3.234375 25.660156 L 3.304688 25.660156 C 3.75 25.632812 4.351562 25.417969 4.316406 24.867188 C 4.28125 24.339844 3.679688 24.191406 3.234375 24.210938 L 3.234375 23.875 C 3.851562 23.863281 4.535156 24.148438 4.578125 24.847656 C 4.628906 25.589844 3.976562 25.960938 3.320312 25.996094 C 3.285156 26.007812 3.261719 26.007812 3.234375 26.007812 M 3.234375 28.550781 C 2.824219 28.5 2.472656 28.265625 2.34375 27.792969 C 2.203125 27.292969 2.464844 26.902344 2.902344 26.679688 L 3.042969 26.957031 C 2.746094 27.128906 2.507812 27.359375 2.613281 27.730469 C 2.703125 28.050781 2.953125 28.171875 3.234375 28.207031 Z M 3.234375 18.214844 L 3.234375 18.914062 L 2.988281 19.46875 L 2.726562 19.355469 Z M 3.234375 20.21875 L 3.234375 20.554688 L 2.429688 20.320312 L 2.527344 20.011719 Z M 3.234375 21.390625 L 3.234375 21.847656 C 3.226562 21.820312 3.207031 21.796875 3.179688 21.769531 C 3.101562 21.667969 2.988281 21.605469 2.859375 21.589844 C 2.710938 21.5625 2.578125 21.605469 2.472656 21.71875 C 2.378906 21.8125 2.359375 21.925781 2.34375 22.0625 L 2.246094 22.703125 L 3.171875 22.832031 L 3.234375 22.417969 L 3.234375 23.167969 L 1.914062 22.976562 L 2.0625 22.019531 C 2.089844 21.8125 2.152344 21.613281 2.308594 21.460938 C 2.464844 21.304688 2.691406 21.234375 2.910156 21.269531 C 3.03125 21.285156 3.144531 21.328125 3.234375 21.390625 M 3.234375 23.875 L 3.234375 24.210938 L 3.179688 24.210938 C 2.945312 24.226562 2.675781 24.28125 2.472656 24.410156 C 2.273438 24.539062 2.144531 24.746094 2.160156 24.988281 C 2.1875 25.539062 2.769531 25.675781 3.234375 25.660156 L 3.234375 26.003906 C 2.605469 26.015625 1.933594 25.730469 1.890625 25.011719 C 1.878906 25.011719 1.878906 25.003906 1.878906 24.996094 L 1.878906 24.902344 C 1.90625 24.246094 2.527344 23.910156 3.136719 23.875 Z M 3.234375 23.875 "/>
<path style=" stroke:none;fill-rule:nonzero;fill:rgb(100%,100%,100%);fill-opacity:1;" d="M 13.863281 15.210938 C 12.132812 16.203125 10.414062 19.085938 10.238281 19.378906 C 10.054688 19.671875 8.511719 18.242188 8.710938 17.945312 C 9.460938 16.824219 10.980469 15.722656 12.28125 15.253906 C 13.453125 14.84375 14.28125 14.917969 13.863281 15.210938 "/>
<path style=" stroke:none;fill-rule:nonzero;fill:rgb(100%,100%,100%);fill-opacity:1;" d="M 14.671875 15.773438 C 13.652344 17.160156 12.882812 20.09375 12.796875 20.421875 C 12.710938 20.757812 10.648438 20 10.78125 19.636719 C 10.921875 19.265625 11.390625 18.386719 12.140625 17.394531 C 12.585938 16.800781 13.496094 15.773438 14.210938 15.425781 C 14.578125 15.246094 15.03125 15.296875 14.671875 15.773438 "/>
<path style=" stroke:none;fill-rule:nonzero;fill:rgb(100%,100%,100%);fill-opacity:1;" d="M 15.800781 20.777344 C 15.800781 21.15625 13.269531 20.921875 13.328125 20.492188 C 13.390625 20.070312 14.0625 17.058594 15.152344 15.730469 C 15.222656 15.644531 15.257812 15.601562 15.355469 15.53125 C 15.511719 15.410156 15.757812 15.523438 15.746094 15.730469 C 15.800781 17.492188 15.800781 20.386719 15.800781 20.777344 "/>
<path style=" stroke:none;fill-rule:nonzero;fill:rgb(100%,100%,100%);fill-opacity:1;" d="M 13.863281 33.050781 C 12.132812 32.050781 10.414062 29.179688 10.238281 28.886719 C 10.054688 28.59375 8.511719 30.015625 8.710938 30.308594 C 9.460938 31.429688 10.980469 32.535156 12.28125 33 C 13.453125 33.421875 14.28125 33.335938 13.863281 33.050781 "/>
<path style=" stroke:none;fill-rule:nonzero;fill:rgb(100%,100%,100%);fill-opacity:1;" d="M 14.671875 32.492188 C 13.652344 31.101562 12.882812 28.160156 12.796875 27.824219 C 12.710938 27.496094 10.648438 28.265625 10.78125 28.625 C 10.921875 28.988281 11.390625 29.875 12.140625 30.867188 C 12.585938 31.464844 13.496094 32.492188 14.210938 32.835938 C 14.578125 33.015625 15.03125 32.964844 14.671875 32.492188 "/>
<path style=" stroke:none;fill-rule:nonzero;fill:rgb(100%,100%,100%);fill-opacity:1;" d="M 15.800781 27.480469 C 15.800781 27.089844 13.269531 27.332031 13.328125 27.753906 C 13.390625 28.1875 14.0625 31.203125 15.152344 32.535156 C 15.222656 32.609375 15.257812 32.664062 15.355469 32.730469 C 15.511719 32.84375 15.765625 32.765625 15.746094 32.628906 C 15.800781 30.871094 15.800781 27.859375 15.800781 27.480469 "/>
<path style=" stroke:none;fill-rule:nonzero;fill:rgb(100%,100%,100%);fill-opacity:1;" d="M 18.164062 33.050781 C 19.890625 32.050781 21.613281 29.179688 21.785156 28.886719 C 21.96875 28.59375 23.515625 30.015625 23.324219 30.308594 C 22.570312 31.429688 21.042969 32.535156 19.753906 33 C 18.574219 33.421875 17.746094 33.335938 18.164062 33.050781 "/>
<path style=" stroke:none;fill-rule:nonzero;fill:rgb(100%,100%,100%);fill-opacity:1;" d="M 17.351562 32.492188 C 18.382812 31.101562 19.140625 28.160156 19.230469 27.824219 C 19.316406 27.496094 21.375 28.265625 21.246094 28.625 C 21.113281 28.988281 20.636719 29.875 19.882812 30.867188 C 19.4375 31.464844 18.53125 32.492188 17.816406 32.835938 C 17.449219 33.015625 16.992188 32.964844 17.351562 32.492188 "/>
<path style=" stroke:none;fill-rule:nonzero;fill:rgb(100%,100%,100%);fill-opacity:1;" d="M 16.226562 27.480469 C 16.226562 27.089844 18.757812 27.332031 18.695312 27.753906 C 18.636719 28.1875 17.964844 31.203125 16.871094 32.535156 C 16.8125 32.609375 16.769531 32.664062 16.679688 32.730469 C 16.515625 32.84375 16.269531 32.765625 16.28125 32.628906 C 16.226562 30.871094 16.226562 27.859375 16.226562 27.480469 "/>
<path style=" stroke:none;fill-rule:nonzero;fill:rgb(100%,100%,100%);fill-opacity:1;" d="M 18.121094 15.210938 C 19.839844 16.203125 21.570312 19.085938 21.742188 19.378906 C 21.925781 19.671875 23.472656 18.242188 23.269531 17.945312 C 22.519531 16.824219 21 15.722656 19.699219 15.253906 C 18.53125 14.84375 17.703125 14.917969 18.121094 15.210938 "/>
<path style=" stroke:none;fill-rule:nonzero;fill:rgb(100%,100%,100%);fill-opacity:1;" d="M 17.308594 15.773438 C 18.332031 17.160156 19.097656 20.09375 19.1875 20.421875 C 19.273438 20.757812 21.332031 20 21.203125 19.636719 C 21.0625 19.265625 20.589844 18.386719 19.839844 17.394531 C 19.394531 16.800781 18.488281 15.773438 17.773438 15.425781 C 17.402344 15.246094 16.949219 15.296875 17.308594 15.773438 "/>
<path style=" stroke:none;fill-rule:nonzero;fill:rgb(100%,100%,100%);fill-opacity:1;" d="M 16.183594 20.777344 C 16.183594 21.15625 18.714844 20.921875 18.652344 20.492188 C 18.59375 20.070312 17.921875 17.058594 16.828125 15.730469 C 16.761719 15.644531 16.726562 15.601562 16.628906 15.53125 C 16.472656 15.410156 16.226562 15.523438 16.234375 15.730469 C 16.183594 17.492188 16.183594 20.386719 16.183594 20.777344 "/>
<path style=" stroke:none;fill-rule:nonzero;fill:rgb(98.039216%,84.313725%,8.627451%);fill-opacity:1;" d="M 16 0.117188 L 16.847656 2.488281 L 19.386719 2.550781 L 17.363281 4.078125 L 18.085938 6.484375 L 16 5.058594 L 13.914062 6.484375 L 14.636719 4.078125 L 12.613281 2.550781 L 15.152344 2.488281 Z M 16 0.117188 "/>
</g>
</svg>
