<?xml version="1.0" encoding="UTF-8"?>
<svg xmlns="http://www.w3.org/2000/svg" xmlns:xlink="http://www.w3.org/1999/xlink" width="32px" height="32px" viewBox="0 0 32 32" version="1.1">
<g id="surface1">
<path style=" stroke:none;fill-rule:evenodd;fill:rgb(99.607843%,99.607843%,99.607843%);fill-opacity:1;" d="M 16.195312 21.566406 L 16.625 22.882812 L 18 22.882812 L 16.882812 23.695312 L 17.3125 24.996094 L 16.195312 24.199219 L 15.078125 24.996094 L 15.507812 23.695312 L 14.390625 22.882812 L 15.765625 22.882812 Z M 16.195312 21.566406 "/>
<path style=" stroke:none;fill-rule:evenodd;fill:rgb(99.607843%,99.607843%,99.607843%);fill-opacity:1;" d="M 22.074219 12.460938 L 22.5 13.761719 L 23.878906 13.761719 L 22.761719 14.574219 L 23.191406 15.890625 L 22.074219 15.078125 L 20.957031 15.890625 L 21.382812 14.574219 L 20.265625 13.761719 L 21.644531 13.761719 Z M 22.074219 12.460938 "/>
<path style=" stroke:none;fill-rule:evenodd;fill:rgb(99.607843%,99.607843%,99.607843%);fill-opacity:1;" d="M 17.710938 15.0625 L 18.03125 16.042969 L 19.058594 16.042969 L 18.214844 16.65625 L 18.539062 17.617188 L 17.710938 17.023438 L 16.882812 17.617188 L 17.191406 16.65625 L 16.363281 16.042969 L 17.390625 16.042969 Z M 17.710938 15.0625 "/>
<path style=" stroke:none;fill-rule:evenodd;fill:rgb(99.607843%,99.607843%,99.607843%);fill-opacity:1;" d="M 15.933594 7.027344 L 16.347656 8.328125 L 17.742188 8.328125 L 16.625 9.136719 L 17.039062 10.453125 L 15.933594 9.644531 L 14.816406 10.453125 L 15.246094 9.136719 L 14.128906 8.328125 L 15.507812 8.328125 Z M 15.933594 7.027344 "/>
<path style=" stroke:none;fill-rule:evenodd;fill:rgb(99.607843%,99.607843%,99.607843%);fill-opacity:1;" d="M 9.949219 12.351562 L 10.378906 13.652344 L 11.757812 13.652344 L 10.636719 14.464844 L 11.066406 15.78125 L 9.949219 14.96875 L 8.832031 15.78125 L 9.261719 14.464844 L 8.144531 13.652344 L 9.519531 13.652344 Z M 9.949219 12.351562 "/>
<path style=" stroke:none;fill-rule:evenodd;fill:rgb(99.607843%,99.607843%,99.607843%);fill-opacity:1;" d="M 4.914062 21.292969 L 4.378906 21.566406 L 4.53125 21.890625 C 4.636719 22.105469 4.777344 22.316406 5.035156 22.179688 C 5.28125 22.058594 5.203125 21.859375 5.097656 21.660156 Z M 4.914062 21.292969 "/>
<path style=" stroke:none;fill-rule:evenodd;fill:rgb(99.607843%,99.607843%,99.607843%);fill-opacity:1;" d="M 6.230469 24.644531 C 5.753906 25.105469 5.894531 25.472656 6.0625 25.640625 C 6.214844 25.808594 6.582031 25.960938 7.070312 25.503906 C 7.546875 25.042969 7.410156 24.675781 7.242188 24.492188 C 7.085938 24.324219 6.71875 24.171875 6.230469 24.644531 Z M 6.230469 24.644531 "/>
<path style=" stroke:none;fill-rule:evenodd;fill:rgb(99.607843%,99.607843%,99.607843%);fill-opacity:1;" d="M 24.675781 5.679688 C 24.796875 5.527344 24.78125 5.371094 24.492188 5.160156 L 24.15625 4.882812 L 23.789062 5.359375 L 24.171875 5.664062 C 24.308594 5.769531 24.507812 5.894531 24.675781 5.679688 Z M 24.675781 5.679688 "/>
<path style=" stroke:none;fill-rule:evenodd;fill:rgb(99.607843%,99.607843%,99.607843%);fill-opacity:1;" d="M 8.003906 5.160156 C 7.882812 5.003906 7.730469 4.988281 7.453125 5.203125 L 7.117188 5.480469 L 7.5 5.953125 L 7.867188 5.648438 C 8.003906 5.542969 8.175781 5.371094 8.003906 5.160156 Z M 8.003906 5.160156 "/>
<path style=" stroke:none;fill-rule:evenodd;fill:rgb(99.607843%,99.607843%,99.607843%);fill-opacity:1;" d="M 27.0625 9.199219 C 27.613281 8.816406 27.539062 8.433594 27.414062 8.234375 C 27.277344 8.035156 26.941406 7.820312 26.390625 8.203125 C 25.839844 8.570312 25.914062 8.96875 26.039062 9.167969 C 26.175781 9.351562 26.511719 9.566406 27.0625 9.199219 Z M 27.0625 9.199219 "/>
<path style=" stroke:none;fill-rule:evenodd;fill:rgb(99.607843%,99.607843%,99.607843%);fill-opacity:1;" d="M 10.210938 26.804688 L 9.828125 26.605469 L 9.535156 27.125 L 9.964844 27.355469 C 10.117188 27.445312 10.347656 27.539062 10.46875 27.292969 C 10.5625 27.125 10.515625 26.988281 10.210938 26.804688 Z M 10.210938 26.804688 "/>
<path style=" stroke:none;fill-rule:evenodd;fill:rgb(99.607843%,99.607843%,99.607843%);fill-opacity:1;" d="M 30.277344 18.707031 L 29.925781 20.375 L 26.988281 19.730469 L 27.324219 18.125 C 27.492188 17.34375 27.964844 17.28125 28.273438 17.34375 C 28.5625 17.40625 28.703125 17.589844 28.761719 17.832031 C 28.914062 17.589844 29.175781 17.390625 29.605469 17.480469 C 30.203125 17.601562 30.402344 18.183594 30.277344 18.707031 Z M 28.730469 23.160156 C 28.289062 23.972656 27.707031 24.171875 26.988281 23.757812 L 25.363281 22.855469 L 25.824219 22.042969 L 27.261719 22.855469 C 27.523438 22.992188 27.859375 23.191406 28.089844 22.792969 C 28.304688 22.410156 27.964844 22.226562 27.691406 22.074219 L 26.265625 21.261719 L 26.710938 20.464844 L 28.332031 21.367188 C 29.054688 21.765625 29.191406 22.363281 28.730469 23.160156 Z M 25.457031 27.109375 L 23.328125 24.980469 L 23.988281 24.324219 L 25.578125 25.914062 L 26.511719 24.964844 L 27.0625 25.515625 Z M 23.113281 28.792969 C 22.257812 29.269531 21.445312 28.929688 21.015625 28.148438 C 20.542969 27.324219 20.773438 26.480469 21.582031 26.039062 C 22.304688 25.640625 22.914062 25.792969 23.34375 26.421875 L 22.5625 26.863281 C 22.488281 26.773438 22.257812 26.511719 21.921875 26.710938 C 21.539062 26.910156 21.628906 27.355469 21.828125 27.707031 C 22.011719 28.058594 22.347656 28.363281 22.730469 28.148438 C 22.992188 27.996094 22.992188 27.753906 22.914062 27.476562 L 23.710938 27.03125 C 24.003906 27.570312 23.878906 28.363281 23.113281 28.792969 Z M 15.660156 30.628906 L 15.476562 27.628906 L 17.972656 27.476562 L 18.015625 28.242188 L 16.457031 28.332031 L 16.472656 28.714844 L 17.894531 28.625 L 17.941406 29.34375 L 16.515625 29.421875 L 16.546875 29.804688 L 18.15625 29.695312 L 18.199219 30.476562 Z M 14.679688 28.332031 L 13.851562 28.148438 L 13.363281 30.339844 L 12.460938 30.140625 L 12.949219 27.953125 L 12.125 27.78125 L 12.292969 27.015625 L 14.832031 27.582031 Z M 11.359375 27.597656 C 11.203125 27.875 10.929688 28.089844 10.609375 28.042969 C 10.777344 28.257812 10.777344 28.578125 10.625 28.914062 C 10.5625 29.054688 10.394531 29.375 10.410156 29.527344 L 9.597656 29.085938 C 9.628906 28.929688 9.691406 28.792969 9.75 28.640625 C 9.875 28.378906 9.980469 28.105469 9.660156 27.9375 L 9.230469 27.691406 L 8.726562 28.609375 L 7.914062 28.164062 L 9.367188 25.53125 L 10.914062 26.375 C 11.375 26.636719 11.632812 27.109375 11.359375 27.597656 Z M 5.511719 26.160156 C 4.882812 25.503906 4.929688 24.597656 5.585938 23.972656 C 6.261719 23.328125 7.148438 23.3125 7.792969 23.972656 C 8.417969 24.644531 8.375 25.53125 7.714844 26.175781 C 7.042969 26.804688 6.152344 26.820312 5.511719 26.160156 Z M 3.980469 22.378906 L 3.734375 21.890625 L 2.921875 22.304688 L 2.496094 21.476562 L 5.1875 20.113281 L 5.894531 21.507812 C 6.261719 22.226562 5.847656 22.761719 5.464844 22.945312 C 4.820312 23.28125 4.285156 22.992188 3.980469 22.378906 Z M 1.683594 18.796875 C 1.621094 18.460938 1.5625 17.480469 2.496094 17.28125 L 2.679688 18.199219 C 2.601562 18.214844 2.542969 18.230469 2.496094 18.261719 C 2.328125 18.367188 2.328125 18.566406 2.355469 18.75 C 2.386719 18.890625 2.480469 19.117188 2.695312 19.074219 C 2.863281 19.042969 2.878906 18.90625 2.921875 18.367188 C 2.953125 17.863281 2.984375 17.3125 3.582031 17.191406 C 4.253906 17.066406 4.667969 17.589844 4.792969 18.199219 C 4.914062 18.84375 4.777344 19.457031 4.070312 19.625 L 3.902344 18.75 C 4.011719 18.75 4.070312 18.691406 4.117188 18.597656 C 4.148438 18.523438 4.148438 18.414062 4.132812 18.324219 C 4.101562 18.199219 4.042969 18 3.871094 18.03125 C 3.660156 18.09375 3.703125 18.523438 3.660156 18.964844 C 3.628906 19.410156 3.519531 19.855469 2.96875 19.960938 C 2.203125 20.113281 1.820312 19.457031 1.683594 18.796875 Z M 1.636719 13.59375 L 4.652344 13.824219 L 4.4375 16.316406 L 3.671875 16.257812 L 3.796875 14.695312 L 3.429688 14.664062 L 3.304688 16.074219 L 2.601562 16.027344 L 2.710938 14.601562 L 2.34375 14.574219 L 2.203125 16.179688 L 1.4375 16.117188 Z M 3.996094 7.808594 C 4.453125 7.117188 5.066406 6.996094 5.742188 7.347656 L 5.234375 8.097656 C 5.144531 8.050781 4.820312 7.929688 4.59375 8.25 C 4.363281 8.617188 4.636719 8.953125 4.960938 9.183594 C 5.296875 9.414062 5.726562 9.535156 5.96875 9.167969 C 6.152344 8.910156 6.03125 8.695312 5.832031 8.480469 L 6.335938 7.730469 C 6.84375 8.066406 7.101562 8.832031 6.613281 9.566406 C 6.0625 10.378906 5.1875 10.453125 4.453125 9.964844 C 3.660156 9.429688 3.476562 8.585938 3.996094 7.808594 Z M 7.316406 4.394531 C 7.730469 4.070312 8.265625 4.011719 8.632812 4.453125 C 8.832031 4.699219 8.925781 5.035156 8.753906 5.328125 C 9.015625 5.234375 9.308594 5.359375 9.566406 5.632812 C 9.675781 5.742188 9.902344 6.015625 10.058594 6.078125 L 9.320312 6.660156 C 9.199219 6.566406 9.09375 6.460938 8.96875 6.335938 C 8.769531 6.136719 8.570312 5.910156 8.28125 6.136719 L 7.898438 6.460938 L 8.558594 7.269531 L 7.835938 7.851562 L 5.9375 5.511719 Z M 10.378906 2.632812 L 10.976562 4.164062 C 11.082031 4.4375 11.21875 4.804688 11.648438 4.636719 C 12.046875 4.484375 11.910156 4.117188 11.800781 3.84375 L 11.203125 2.3125 L 12.0625 1.976562 L 12.734375 3.6875 C 13.042969 4.46875 12.765625 5.003906 11.910156 5.34375 C 11.050781 5.679688 10.484375 5.464844 10.179688 4.683594 L 9.507812 2.96875 Z M 16.242188 1.4375 L 16.285156 2.113281 L 14.984375 3.765625 L 16.472656 3.660156 L 16.515625 4.4375 L 13.835938 4.621094 L 13.792969 3.902344 L 15.078125 2.296875 L 13.746094 2.386719 L 13.699219 1.621094 Z M 17.847656 1.546875 L 20.296875 2.082031 L 20.128906 2.832031 L 18.597656 2.511719 L 18.523438 2.878906 L 19.898438 3.167969 L 19.746094 3.871094 L 18.367188 3.566406 L 18.277344 3.933594 L 19.855469 4.285156 L 19.699219 5.035156 L 17.222656 4.5 Z M 21.691406 2.648438 L 22.53125 3.046875 L 21.246094 5.769531 L 20.40625 5.371094 Z M 25.257812 4.835938 C 25.671875 5.175781 25.855469 5.679688 25.503906 6.121094 C 25.304688 6.367188 24.996094 6.535156 24.675781 6.445312 C 24.8125 6.675781 24.765625 6.996094 24.570312 7.300781 C 24.476562 7.425781 24.261719 7.714844 24.246094 7.882812 L 23.511719 7.300781 C 23.574219 7.148438 23.648438 7.027344 23.742188 6.886719 C 23.894531 6.660156 24.0625 6.398438 23.773438 6.167969 L 23.390625 5.863281 L 22.730469 6.6875 L 22.011719 6.121094 L 23.863281 3.75 Z M 26.894531 16.011719 C 26.894531 22.027344 21.996094 26.941406 16.011719 26.941406 C 10.027344 26.941406 5.128906 22.027344 5.128906 16.011719 C 5.128906 9.996094 10.027344 5.082031 16.011719 5.082031 C 21.996094 5.082031 26.894531 9.996094 26.894531 16.011719 Z M 28.027344 7.808594 C 28.546875 8.570312 28.347656 9.445312 27.582031 9.964844 C 26.820312 10.46875 25.929688 10.347656 25.425781 9.582031 C 24.90625 8.832031 25.105469 7.945312 25.871094 7.4375 C 26.636719 6.917969 27.523438 7.058594 28.027344 7.808594 Z M 29.253906 13.882812 L 29.359375 15.308594 L 29.742188 15.277344 L 29.621094 13.667969 L 30.386719 13.609375 L 30.585938 16.148438 L 27.570312 16.378906 L 27.386719 13.882812 L 28.164062 13.835938 L 28.273438 15.382812 L 28.65625 15.367188 L 28.546875 13.945312 Z M 26.726562 5.34375 C 23.988281 2.601562 20.191406 0.902344 16.011719 0.902344 C 11.832031 0.902344 8.035156 2.601562 5.296875 5.34375 C 2.542969 8.082031 0.84375 11.847656 0.84375 16.011719 C 0.84375 20.175781 2.542969 23.941406 5.296875 26.679688 C 8.035156 29.421875 11.832031 31.121094 16.011719 31.121094 C 20.191406 31.121094 23.988281 29.421875 26.726562 26.679688 C 29.464844 23.941406 31.179688 20.175781 31.179688 16.011719 C 31.179688 11.847656 29.464844 8.082031 26.726562 5.34375 Z M 26.726562 5.34375 "/>
<path style=" stroke:none;fill-rule:evenodd;fill:rgb(99.607843%,99.607843%,99.607843%);fill-opacity:1;" d="M 29.328125 18.367188 C 29.160156 18.324219 29.039062 18.414062 28.992188 18.628906 L 28.871094 19.195312 L 29.421875 19.316406 L 29.527344 18.78125 C 29.574219 18.582031 29.558594 18.414062 29.328125 18.367188 Z M 29.328125 18.367188 "/>
<path style=" stroke:none;fill-rule:evenodd;fill:rgb(99.607843%,99.607843%,99.607843%);fill-opacity:1;" d="M 28.242188 18.230469 C 28.105469 18.199219 28.011719 18.324219 27.980469 18.507812 L 27.875 18.980469 L 28.320312 19.074219 L 28.425781 18.597656 C 28.472656 18.414062 28.441406 18.277344 28.242188 18.230469 Z M 28.242188 18.230469 "/>
<path style=" stroke:none;fill-rule:evenodd;fill:rgb(99.607843%,99.607843%,99.607843%);fill-opacity:1;" d="M 27.046875 27.003906 C 24.214844 29.835938 20.3125 31.578125 16.011719 31.578125 C 11.710938 31.578125 7.808594 29.835938 4.976562 27.003906 C 2.144531 24.1875 0.382812 20.296875 0.382812 16.011719 C 0.382812 11.726562 2.144531 7.835938 4.976562 5.019531 C 7.808594 2.1875 11.710938 0.445312 16.011719 0.445312 C 20.3125 0.445312 24.214844 2.1875 27.046875 5.019531 C 29.878906 7.835938 31.640625 11.726562 31.640625 16.011719 C 31.640625 20.296875 29.878906 24.1875 27.046875 27.003906 Z M 16.011719 0 C 7.164062 0 0 7.164062 0 16.011719 C 0 24.859375 7.164062 32.023438 16.011719 32.023438 C 24.859375 32.023438 32.023438 24.859375 32.023438 16.011719 C 32.023438 7.164062 24.859375 0 16.011719 0 Z M 16.011719 0 "/>
<path style=" stroke:none;fill-rule:evenodd;fill:rgb(99.607843%,99.607843%,99.607843%);fill-opacity:1;" d="M 7.914062 28.164062 L 9.367188 25.53125 L 10.914062 26.375 C 11.375 26.636719 11.632812 27.109375 11.359375 27.597656 C 11.203125 27.875 10.929688 28.089844 10.609375 28.042969 C 10.777344 28.257812 10.777344 28.578125 10.625 28.914062 C 10.5625 29.054688 10.394531 29.375 10.410156 29.527344 L 9.597656 29.085938 C 9.628906 28.929688 9.691406 28.792969 9.75 28.640625 C 9.875 28.378906 9.980469 28.105469 9.660156 27.9375 L 9.230469 27.691406 L 8.726562 28.609375 Z M 12.460938 30.140625 L 12.949219 27.953125 L 12.125 27.78125 L 12.292969 27.015625 L 14.832031 27.582031 L 14.679688 28.332031 L 13.851562 28.148438 L 13.363281 30.339844 Z M 15.660156 30.628906 L 15.476562 27.628906 L 17.972656 27.476562 L 18.015625 28.242188 L 16.457031 28.332031 L 16.472656 28.714844 L 17.894531 28.625 L 17.941406 29.34375 L 16.515625 29.421875 L 16.546875 29.804688 L 18.15625 29.695312 L 18.199219 30.476562 Z M 5.296875 26.679688 C 8.035156 29.421875 11.832031 31.121094 16.011719 31.121094 C 20.191406 31.121094 23.988281 29.421875 26.726562 26.679688 C 29.464844 23.941406 31.179688 20.175781 31.179688 16.011719 C 31.179688 11.847656 29.464844 8.082031 26.726562 5.34375 C 23.988281 2.601562 20.191406 0.902344 16.011719 0.902344 C 11.832031 0.902344 8.035156 2.601562 5.296875 5.34375 C 2.542969 8.082031 0.84375 11.847656 0.84375 16.011719 C 0.84375 20.175781 2.542969 23.941406 5.296875 26.679688 Z M 16.011719 26.941406 C 10.027344 26.941406 5.128906 22.027344 5.128906 16.011719 C 5.128906 9.996094 10.027344 5.082031 16.011719 5.082031 C 21.996094 5.082031 26.894531 9.996094 26.894531 16.011719 C 26.894531 22.027344 21.996094 26.941406 16.011719 26.941406 Z M 7.714844 26.175781 C 7.042969 26.804688 6.152344 26.820312 5.511719 26.160156 C 4.882812 25.503906 4.929688 24.597656 5.585938 23.972656 C 6.261719 23.328125 7.148438 23.3125 7.792969 23.972656 C 8.417969 24.644531 8.375 25.53125 7.714844 26.175781 Z M 26.265625 21.261719 L 26.710938 20.464844 L 28.332031 21.367188 C 29.054688 21.765625 29.191406 22.363281 28.730469 23.160156 C 28.289062 23.972656 27.707031 24.171875 26.988281 23.757812 L 25.363281 22.855469 L 25.824219 22.042969 L 27.261719 22.855469 C 27.523438 22.992188 27.859375 23.191406 28.089844 22.792969 C 28.304688 22.410156 27.964844 22.226562 27.691406 22.074219 Z M 29.925781 20.375 L 26.988281 19.730469 L 27.324219 18.125 C 27.492188 17.34375 27.964844 17.28125 28.273438 17.34375 C 28.5625 17.40625 28.703125 17.589844 28.761719 17.832031 C 28.914062 17.589844 29.175781 17.390625 29.605469 17.480469 C 30.203125 17.601562 30.402344 18.183594 30.277344 18.707031 Z M 21.015625 28.148438 C 20.542969 27.324219 20.773438 26.480469 21.582031 26.039062 C 22.304688 25.640625 22.914062 25.792969 23.34375 26.421875 L 22.5625 26.863281 C 22.488281 26.773438 22.257812 26.511719 21.921875 26.710938 C 21.539062 26.910156 21.628906 27.355469 21.828125 27.707031 C 22.011719 28.058594 22.347656 28.363281 22.730469 28.148438 C 22.992188 27.996094 22.992188 27.753906 22.914062 27.476562 L 23.710938 27.03125 C 24.003906 27.570312 23.878906 28.363281 23.113281 28.792969 C 22.257812 29.269531 21.445312 28.929688 21.015625 28.148438 Z M 25.457031 27.109375 L 23.328125 24.980469 L 23.988281 24.324219 L 25.578125 25.914062 L 26.511719 24.964844 L 27.0625 25.515625 Z M 5.464844 22.945312 C 4.820312 23.28125 4.285156 22.992188 3.980469 22.378906 L 3.734375 21.890625 L 2.921875 22.304688 L 2.496094 21.476562 L 5.1875 20.113281 L 5.894531 21.507812 C 6.261719 22.226562 5.847656 22.761719 5.464844 22.945312 Z M 2.96875 19.960938 C 2.203125 20.113281 1.820312 19.457031 1.683594 18.796875 C 1.621094 18.460938 1.5625 17.480469 2.496094 17.28125 L 2.679688 18.199219 C 2.601562 18.214844 2.542969 18.230469 2.496094 18.261719 C 2.328125 18.367188 2.328125 18.566406 2.355469 18.75 C 2.386719 18.890625 2.480469 19.117188 2.695312 19.074219 C 2.863281 19.042969 2.878906 18.90625 2.921875 18.367188 C 2.953125 17.863281 2.984375 17.3125 3.582031 17.191406 C 4.253906 17.066406 4.667969 17.589844 4.792969 18.199219 C 4.914062 18.84375 4.777344 19.457031 4.070312 19.625 L 3.902344 18.75 C 4.011719 18.75 4.070312 18.691406 4.117188 18.597656 C 4.148438 18.523438 4.148438 18.414062 4.132812 18.324219 C 4.101562 18.199219 4.042969 18 3.871094 18.03125 C 3.660156 18.09375 3.703125 18.523438 3.660156 18.964844 C 3.628906 19.410156 3.519531 19.855469 2.96875 19.960938 Z M 3.429688 14.664062 L 3.304688 16.074219 L 2.601562 16.027344 L 2.710938 14.601562 L 2.34375 14.574219 L 2.203125 16.179688 L 1.4375 16.117188 L 1.636719 13.59375 L 4.652344 13.824219 L 4.4375 16.316406 L 3.671875 16.257812 L 3.796875 14.695312 Z M 6.613281 9.566406 C 6.0625 10.378906 5.1875 10.453125 4.453125 9.964844 C 3.660156 9.429688 3.476562 8.585938 3.996094 7.808594 C 4.453125 7.117188 5.066406 6.996094 5.742188 7.347656 L 5.234375 8.097656 C 5.144531 8.050781 4.820312 7.929688 4.59375 8.25 C 4.363281 8.617188 4.636719 8.953125 4.960938 9.183594 C 5.296875 9.414062 5.726562 9.535156 5.96875 9.167969 C 6.152344 8.910156 6.03125 8.695312 5.832031 8.480469 L 6.335938 7.730469 C 6.84375 8.066406 7.101562 8.832031 6.613281 9.566406 Z M 7.835938 7.851562 L 5.9375 5.511719 L 7.316406 4.394531 C 7.730469 4.070312 8.265625 4.011719 8.632812 4.453125 C 8.832031 4.699219 8.925781 5.035156 8.753906 5.328125 C 9.015625 5.234375 9.308594 5.359375 9.566406 5.632812 C 9.675781 5.742188 9.902344 6.015625 10.058594 6.078125 L 9.320312 6.660156 C 9.199219 6.566406 9.09375 6.460938 8.96875 6.335938 C 8.769531 6.136719 8.570312 5.910156 8.28125 6.136719 L 7.898438 6.460938 L 8.558594 7.269531 Z M 11.910156 5.34375 C 11.050781 5.679688 10.484375 5.464844 10.179688 4.683594 L 9.507812 2.96875 L 10.378906 2.632812 L 10.976562 4.164062 C 11.082031 4.4375 11.21875 4.804688 11.648438 4.636719 C 12.046875 4.484375 11.910156 4.117188 11.800781 3.84375 L 11.203125 2.3125 L 12.0625 1.976562 L 12.734375 3.6875 C 13.042969 4.46875 12.765625 5.003906 11.910156 5.34375 Z M 16.515625 4.4375 L 13.835938 4.621094 L 13.792969 3.902344 L 15.078125 2.296875 L 13.746094 2.386719 L 13.699219 1.621094 L 16.242188 1.4375 L 16.285156 2.113281 L 14.984375 3.765625 L 16.472656 3.660156 Z M 19.699219 5.035156 L 17.222656 4.5 L 17.847656 1.546875 L 20.296875 2.082031 L 20.128906 2.832031 L 18.597656 2.511719 L 18.523438 2.878906 L 19.898438 3.167969 L 19.746094 3.871094 L 18.367188 3.566406 L 18.277344 3.933594 L 19.855469 4.285156 Z M 21.246094 5.769531 L 20.40625 5.371094 L 21.691406 2.648438 L 22.53125 3.046875 Z M 24.246094 7.882812 L 23.511719 7.300781 C 23.574219 7.148438 23.648438 7.027344 23.742188 6.886719 C 23.894531 6.660156 24.0625 6.398438 23.773438 6.167969 L 23.390625 5.863281 L 22.730469 6.6875 L 22.011719 6.121094 L 23.863281 3.75 L 25.257812 4.835938 C 25.671875 5.175781 25.855469 5.679688 25.503906 6.121094 C 25.304688 6.367188 24.996094 6.535156 24.675781 6.445312 C 24.8125 6.675781 24.765625 6.996094 24.570312 7.300781 C 24.476562 7.425781 24.261719 7.714844 24.246094 7.882812 Z M 27.582031 9.964844 C 26.820312 10.46875 25.929688 10.347656 25.425781 9.582031 C 24.90625 8.832031 25.105469 7.945312 25.871094 7.4375 C 26.636719 6.917969 27.523438 7.058594 28.027344 7.808594 C 28.546875 8.570312 28.347656 9.445312 27.582031 9.964844 Z M 27.570312 16.378906 L 27.386719 13.882812 L 28.164062 13.835938 L 28.273438 15.382812 L 28.65625 15.367188 L 28.546875 13.945312 L 29.253906 13.882812 L 29.359375 15.308594 L 29.742188 15.277344 L 29.621094 13.667969 L 30.386719 13.609375 L 30.585938 16.148438 Z M 27.570312 16.378906 "/>
<path style=" stroke:none;fill-rule:evenodd;fill:rgb(99.607843%,99.607843%,99.607843%);fill-opacity:1;" d="M 6.0625 25.640625 C 6.214844 25.808594 6.582031 25.960938 7.070312 25.503906 C 7.546875 25.042969 7.410156 24.675781 7.242188 24.492188 C 7.085938 24.324219 6.71875 24.171875 6.230469 24.644531 C 5.753906 25.105469 5.894531 25.472656 6.0625 25.640625 Z M 6.0625 25.640625 "/>
<path style=" stroke:none;fill-rule:evenodd;fill:rgb(99.607843%,99.607843%,99.607843%);fill-opacity:1;" d="M 5.035156 22.179688 C 5.28125 22.058594 5.203125 21.859375 5.097656 21.660156 L 4.914062 21.292969 L 4.378906 21.566406 L 4.53125 21.890625 C 4.636719 22.105469 4.777344 22.316406 5.035156 22.179688 Z M 5.035156 22.179688 "/>
<path style=" stroke:none;fill-rule:evenodd;fill:rgb(99.607843%,99.607843%,99.607843%);fill-opacity:1;" d="M 16.011719 31.578125 C 11.710938 31.578125 7.808594 29.835938 4.976562 27.003906 C 2.144531 24.1875 0.382812 20.296875 0.382812 16.011719 C 0.382812 11.726562 2.144531 7.835938 4.976562 5.019531 C 7.808594 2.1875 11.710938 0.445312 16.011719 0.445312 C 20.3125 0.445312 24.214844 2.1875 27.046875 5.019531 C 29.878906 7.835938 31.640625 11.726562 31.640625 16.011719 C 31.640625 20.296875 29.878906 24.1875 27.046875 27.003906 C 24.214844 29.835938 20.3125 31.578125 16.011719 31.578125 Z M 0 16.011719 C 0 24.859375 7.164062 32.023438 16.011719 32.023438 C 24.859375 32.023438 32.023438 24.859375 32.023438 16.011719 C 32.023438 7.164062 24.859375 0 16.011719 0 C 7.164062 0 0 7.164062 0 16.011719 Z M 0 16.011719 "/>
<path style=" stroke:none;fill-rule:evenodd;fill:rgb(99.607843%,99.607843%,99.607843%);fill-opacity:1;" d="M 9.964844 27.355469 C 10.117188 27.445312 10.347656 27.539062 10.46875 27.292969 C 10.5625 27.125 10.515625 26.988281 10.210938 26.804688 L 9.828125 26.605469 L 9.535156 27.125 Z M 9.964844 27.355469 "/>
<path style=" stroke:none;fill-rule:evenodd;fill:rgb(99.607843%,99.607843%,99.607843%);fill-opacity:1;" d="M 15.507812 23.695312 L 15.078125 24.996094 L 16.195312 24.199219 L 17.3125 24.996094 L 16.882812 23.695312 L 18 22.882812 L 16.625 22.882812 L 16.195312 21.566406 L 15.765625 22.882812 L 14.390625 22.882812 Z M 15.507812 23.695312 "/>
<path style=" stroke:none;fill-rule:evenodd;fill:rgb(99.607843%,99.607843%,99.607843%);fill-opacity:1;" d="M 16.882812 17.617188 L 17.710938 17.023438 L 18.539062 17.617188 L 18.214844 16.65625 L 19.058594 16.042969 L 18.03125 16.042969 L 17.710938 15.0625 L 17.390625 16.042969 L 16.363281 16.042969 L 17.191406 16.65625 Z M 16.882812 17.617188 "/>
<path style=" stroke:none;fill-rule:evenodd;fill:rgb(99.607843%,99.607843%,99.607843%);fill-opacity:1;" d="M 21.382812 14.574219 L 20.957031 15.890625 L 22.074219 15.078125 L 23.191406 15.890625 L 22.761719 14.574219 L 23.878906 13.761719 L 22.5 13.761719 L 22.074219 12.460938 L 21.644531 13.761719 L 20.265625 13.761719 Z M 21.382812 14.574219 "/>
<path style=" stroke:none;fill-rule:evenodd;fill:rgb(99.607843%,99.607843%,99.607843%);fill-opacity:1;" d="M 17.039062 10.453125 L 16.625 9.136719 L 17.742188 8.328125 L 16.347656 8.328125 L 15.933594 7.027344 L 15.507812 8.328125 L 14.128906 8.328125 L 15.246094 9.136719 L 14.816406 10.453125 L 15.933594 9.644531 Z M 17.039062 10.453125 "/>
<path style=" stroke:none;fill-rule:evenodd;fill:rgb(99.607843%,99.607843%,99.607843%);fill-opacity:1;" d="M 10.378906 13.652344 L 9.949219 12.351562 L 9.519531 13.652344 L 8.144531 13.652344 L 9.261719 14.464844 L 8.832031 15.78125 L 9.949219 14.96875 L 11.066406 15.78125 L 10.636719 14.464844 L 11.757812 13.652344 Z M 10.378906 13.652344 "/>
<path style=" stroke:none;fill-rule:evenodd;fill:rgb(99.607843%,99.607843%,99.607843%);fill-opacity:1;" d="M 7.5 5.953125 L 7.867188 5.648438 C 8.003906 5.542969 8.175781 5.371094 8.003906 5.160156 C 7.882812 5.003906 7.730469 4.988281 7.453125 5.203125 L 7.117188 5.480469 Z M 7.5 5.953125 "/>
<path style=" stroke:none;fill-rule:evenodd;fill:rgb(99.607843%,99.607843%,99.607843%);fill-opacity:1;" d="M 24.15625 4.882812 L 23.789062 5.359375 L 24.171875 5.664062 C 24.308594 5.769531 24.507812 5.894531 24.675781 5.679688 C 24.796875 5.527344 24.78125 5.371094 24.492188 5.160156 Z M 24.15625 4.882812 "/>
<path style=" stroke:none;fill-rule:evenodd;fill:rgb(99.607843%,99.607843%,99.607843%);fill-opacity:1;" d="M 26.390625 8.203125 C 25.839844 8.570312 25.914062 8.96875 26.039062 9.167969 C 26.175781 9.351562 26.511719 9.566406 27.0625 9.199219 C 27.613281 8.816406 27.539062 8.433594 27.414062 8.234375 C 27.277344 8.035156 26.941406 7.820312 26.390625 8.203125 Z M 26.390625 8.203125 "/>
<path style=" stroke:none;fill-rule:evenodd;fill:rgb(99.607843%,99.607843%,99.607843%);fill-opacity:1;" d="M 28.242188 18.230469 C 28.105469 18.199219 28.011719 18.324219 27.980469 18.507812 L 27.875 18.980469 L 28.320312 19.074219 L 28.425781 18.597656 C 28.472656 18.414062 28.441406 18.277344 28.242188 18.230469 Z M 28.242188 18.230469 "/>
<path style=" stroke:none;fill-rule:evenodd;fill:rgb(99.607843%,99.607843%,99.607843%);fill-opacity:1;" d="M 28.992188 18.628906 L 28.871094 19.195312 L 29.421875 19.316406 L 29.527344 18.78125 C 29.574219 18.582031 29.558594 18.414062 29.328125 18.367188 C 29.160156 18.324219 29.039062 18.414062 28.992188 18.628906 Z M 28.992188 18.628906 "/>
<path style=" stroke:none;fill-rule:evenodd;fill:rgb(18.431373%,32.156863%,61.960784%);fill-opacity:1;" d="M 5.296875 26.679688 C 2.542969 23.941406 0.84375 20.175781 0.84375 16.011719 C 0.84375 11.847656 2.542969 8.082031 5.296875 5.34375 C 8.035156 2.601562 11.832031 0.902344 16.011719 0.902344 C 20.191406 0.902344 23.988281 2.601562 26.726562 5.34375 C 29.464844 8.082031 31.179688 11.847656 31.179688 16.011719 C 31.179688 20.175781 29.464844 23.941406 26.726562 26.679688 C 23.988281 29.421875 20.191406 31.121094 16.011719 31.121094 C 11.832031 31.121094 8.035156 29.421875 5.296875 26.679688 Z M 0.382812 16.011719 C 0.382812 20.296875 2.144531 24.1875 4.976562 27.003906 C 7.808594 29.835938 11.710938 31.578125 16.011719 31.578125 C 20.3125 31.578125 24.214844 29.835938 27.046875 27.003906 C 29.878906 24.1875 31.640625 20.296875 31.640625 16.011719 C 31.640625 11.726562 29.878906 7.835938 27.046875 5.019531 C 24.214844 2.1875 20.3125 0.445312 16.011719 0.445312 C 11.710938 0.445312 7.808594 2.1875 4.976562 5.019531 C 2.144531 7.835938 0.382812 11.726562 0.382812 16.011719 Z M 0.382812 16.011719 "/>
<path style=" stroke:none;fill-rule:evenodd;fill:rgb(18.431373%,32.156863%,61.960784%);fill-opacity:1;" d="M 5.128906 16.011719 C 5.128906 22.027344 10.027344 26.941406 16.011719 26.941406 C 21.996094 26.941406 26.894531 22.027344 26.894531 16.011719 C 26.894531 9.996094 21.996094 5.082031 16.011719 5.082031 C 10.027344 5.082031 5.128906 9.996094 5.128906 16.011719 Z M 15.078125 24.996094 L 15.507812 23.695312 L 14.390625 22.882812 L 15.765625 22.882812 L 16.195312 21.566406 L 16.625 22.882812 L 18 22.882812 L 16.882812 23.695312 L 17.3125 24.996094 L 16.195312 24.199219 Z M 16.882812 17.617188 L 17.191406 16.65625 L 16.363281 16.042969 L 17.390625 16.042969 L 17.710938 15.0625 L 18.03125 16.042969 L 19.058594 16.042969 L 18.214844 16.65625 L 18.539062 17.617188 L 17.710938 17.023438 Z M 17.039062 10.453125 L 15.933594 9.644531 L 14.816406 10.453125 L 15.246094 9.136719 L 14.128906 8.328125 L 15.507812 8.328125 L 15.933594 7.027344 L 16.347656 8.328125 L 17.742188 8.328125 L 16.625 9.136719 Z M 20.957031 15.890625 L 21.382812 14.574219 L 20.265625 13.761719 L 21.644531 13.761719 L 22.074219 12.460938 L 22.5 13.761719 L 23.878906 13.761719 L 22.761719 14.574219 L 23.191406 15.890625 L 22.074219 15.078125 Z M 11.066406 15.78125 L 9.949219 14.96875 L 8.832031 15.78125 L 9.261719 14.464844 L 8.144531 13.652344 L 9.519531 13.652344 L 9.949219 12.351562 L 10.378906 13.652344 L 11.757812 13.652344 L 10.636719 14.464844 Z M 11.066406 15.78125 "/>
<path style=" stroke:none;fill-rule:evenodd;fill:rgb(18.431373%,32.156863%,61.960784%);fill-opacity:1;" d="M 13.835938 4.621094 L 16.515625 4.4375 L 16.472656 3.660156 L 14.984375 3.765625 L 16.285156 2.113281 L 16.242188 1.4375 L 13.699219 1.621094 L 13.746094 2.386719 L 15.078125 2.296875 L 13.792969 3.902344 Z M 13.835938 4.621094 "/>
<path style=" stroke:none;fill-rule:evenodd;fill:rgb(18.431373%,32.156863%,61.960784%);fill-opacity:1;" d="M 17.847656 1.546875 L 17.222656 4.5 L 19.699219 5.035156 L 19.855469 4.285156 L 18.277344 3.933594 L 18.367188 3.566406 L 19.746094 3.871094 L 19.898438 3.167969 L 18.523438 2.878906 L 18.597656 2.511719 L 20.128906 2.832031 L 20.296875 2.082031 Z M 17.847656 1.546875 "/>
<path style=" stroke:none;fill-rule:evenodd;fill:rgb(18.431373%,32.156863%,61.960784%);fill-opacity:1;" d="M 21.691406 2.648438 L 20.40625 5.371094 L 21.246094 5.769531 L 22.53125 3.046875 Z M 21.691406 2.648438 "/>
<path style=" stroke:none;fill-rule:evenodd;fill:rgb(18.431373%,32.156863%,61.960784%);fill-opacity:1;" d="M 23.863281 3.75 L 22.011719 6.121094 L 22.730469 6.6875 L 23.390625 5.863281 L 23.773438 6.167969 C 24.0625 6.398438 23.894531 6.660156 23.742188 6.886719 C 23.648438 7.027344 23.574219 7.148438 23.511719 7.300781 L 24.246094 7.882812 C 24.261719 7.714844 24.476562 7.425781 24.570312 7.300781 C 24.765625 6.996094 24.8125 6.675781 24.675781 6.445312 C 24.996094 6.535156 25.304688 6.367188 25.503906 6.121094 C 25.855469 5.679688 25.671875 5.175781 25.257812 4.835938 Z M 24.675781 5.679688 C 24.507812 5.894531 24.308594 5.769531 24.171875 5.664062 L 23.789062 5.359375 L 24.15625 4.882812 L 24.492188 5.160156 C 24.78125 5.371094 24.796875 5.527344 24.675781 5.679688 Z M 24.675781 5.679688 "/>
<path style=" stroke:none;fill-rule:evenodd;fill:rgb(18.431373%,32.156863%,61.960784%);fill-opacity:1;" d="M 28.027344 7.808594 C 27.523438 7.058594 26.636719 6.917969 25.871094 7.4375 C 25.105469 7.945312 24.90625 8.832031 25.425781 9.582031 C 25.929688 10.347656 26.820312 10.46875 27.582031 9.964844 C 28.347656 9.445312 28.546875 8.570312 28.027344 7.808594 Z M 26.039062 9.167969 C 25.914062 8.96875 25.839844 8.570312 26.390625 8.203125 C 26.941406 7.820312 27.277344 8.035156 27.414062 8.234375 C 27.539062 8.433594 27.613281 8.816406 27.0625 9.199219 C 26.511719 9.566406 26.175781 9.351562 26.039062 9.167969 Z M 26.039062 9.167969 "/>
<path style=" stroke:none;fill-rule:evenodd;fill:rgb(18.431373%,32.156863%,61.960784%);fill-opacity:1;" d="M 4.453125 9.964844 C 5.1875 10.453125 6.0625 10.378906 6.613281 9.566406 C 7.101562 8.832031 6.84375 8.066406 6.335938 7.730469 L 5.832031 8.480469 C 6.03125 8.695312 6.152344 8.910156 5.96875 9.167969 C 5.726562 9.535156 5.296875 9.414062 4.960938 9.183594 C 4.636719 8.953125 4.363281 8.617188 4.59375 8.25 C 4.820312 7.929688 5.144531 8.050781 5.234375 8.097656 L 5.742188 7.347656 C 5.066406 6.996094 4.453125 7.117188 3.996094 7.808594 C 3.476562 8.585938 3.660156 9.429688 4.453125 9.964844 Z M 4.453125 9.964844 "/>
<path style=" stroke:none;fill-rule:evenodd;fill:rgb(18.431373%,32.156863%,61.960784%);fill-opacity:1;" d="M 5.9375 5.511719 L 7.835938 7.851562 L 8.558594 7.269531 L 7.898438 6.460938 L 8.28125 6.136719 C 8.570312 5.910156 8.769531 6.136719 8.96875 6.335938 C 9.09375 6.460938 9.199219 6.566406 9.320312 6.660156 L 10.058594 6.078125 C 9.902344 6.015625 9.675781 5.742188 9.566406 5.632812 C 9.308594 5.359375 9.015625 5.234375 8.753906 5.328125 C 8.925781 5.035156 8.832031 4.699219 8.632812 4.453125 C 8.265625 4.011719 7.730469 4.070312 7.316406 4.394531 Z M 8.003906 5.160156 C 8.175781 5.371094 8.003906 5.542969 7.867188 5.648438 L 7.5 5.953125 L 7.117188 5.480469 L 7.453125 5.203125 C 7.730469 4.988281 7.882812 5.003906 8.003906 5.160156 Z M 8.003906 5.160156 "/>
<path style=" stroke:none;fill-rule:evenodd;fill:rgb(18.431373%,32.156863%,61.960784%);fill-opacity:1;" d="M 10.179688 4.683594 C 10.484375 5.464844 11.050781 5.679688 11.910156 5.34375 C 12.765625 5.003906 13.042969 4.46875 12.734375 3.6875 L 12.0625 1.976562 L 11.203125 2.3125 L 11.800781 3.84375 C 11.910156 4.117188 12.046875 4.484375 11.648438 4.636719 C 11.21875 4.804688 11.082031 4.4375 10.976562 4.164062 L 10.378906 2.632812 L 9.507812 2.96875 Z M 10.179688 4.683594 "/>
<path style=" stroke:none;fill-rule:evenodd;fill:rgb(18.431373%,32.156863%,61.960784%);fill-opacity:1;" d="M 4.652344 13.824219 L 1.636719 13.59375 L 1.4375 16.117188 L 2.203125 16.179688 L 2.34375 14.574219 L 2.710938 14.601562 L 2.601562 16.027344 L 3.304688 16.074219 L 3.429688 14.664062 L 3.796875 14.695312 L 3.671875 16.257812 L 4.4375 16.316406 Z M 4.652344 13.824219 "/>
<path style=" stroke:none;fill-rule:evenodd;fill:rgb(18.431373%,32.156863%,61.960784%);fill-opacity:1;" d="M 4.792969 18.199219 C 4.667969 17.589844 4.253906 17.066406 3.582031 17.191406 C 2.984375 17.3125 2.953125 17.863281 2.921875 18.367188 C 2.878906 18.90625 2.863281 19.042969 2.695312 19.074219 C 2.480469 19.117188 2.386719 18.890625 2.355469 18.75 C 2.328125 18.566406 2.328125 18.367188 2.496094 18.261719 C 2.542969 18.230469 2.601562 18.214844 2.679688 18.199219 L 2.496094 17.28125 C 1.5625 17.480469 1.621094 18.460938 1.683594 18.796875 C 1.820312 19.457031 2.203125 20.113281 2.96875 19.960938 C 3.519531 19.855469 3.628906 19.410156 3.660156 18.964844 C 3.703125 18.523438 3.660156 18.09375 3.871094 18.03125 C 4.042969 18 4.101562 18.199219 4.132812 18.324219 C 4.148438 18.414062 4.148438 18.523438 4.117188 18.597656 C 4.070312 18.691406 4.011719 18.75 3.902344 18.75 L 4.070312 19.625 C 4.777344 19.457031 4.914062 18.84375 4.792969 18.199219 Z M 4.792969 18.199219 "/>
<path style=" stroke:none;fill-rule:evenodd;fill:rgb(18.431373%,32.156863%,61.960784%);fill-opacity:1;" d="M 5.1875 20.113281 L 2.496094 21.476562 L 2.921875 22.304688 L 3.734375 21.890625 L 3.980469 22.378906 C 4.285156 22.992188 4.820312 23.28125 5.464844 22.945312 C 5.847656 22.761719 6.261719 22.226562 5.894531 21.507812 Z M 4.378906 21.566406 L 4.914062 21.292969 L 5.097656 21.660156 C 5.203125 21.859375 5.28125 22.058594 5.035156 22.179688 C 4.777344 22.316406 4.636719 22.105469 4.53125 21.890625 Z M 4.378906 21.566406 "/>
<path style=" stroke:none;fill-rule:evenodd;fill:rgb(18.431373%,32.156863%,61.960784%);fill-opacity:1;" d="M 7.792969 23.972656 C 7.148438 23.3125 6.261719 23.328125 5.585938 23.972656 C 4.929688 24.597656 4.882812 25.503906 5.511719 26.160156 C 6.152344 26.820312 7.042969 26.804688 7.714844 26.175781 C 8.375 25.53125 8.417969 24.644531 7.792969 23.972656 Z M 6.230469 24.644531 C 6.71875 24.171875 7.085938 24.324219 7.242188 24.492188 C 7.410156 24.675781 7.546875 25.042969 7.070312 25.503906 C 6.582031 25.960938 6.214844 25.808594 6.0625 25.640625 C 5.894531 25.472656 5.753906 25.105469 6.230469 24.644531 Z M 6.230469 24.644531 "/>
<path style=" stroke:none;fill-rule:evenodd;fill:rgb(18.431373%,32.156863%,61.960784%);fill-opacity:1;" d="M 9.367188 25.53125 L 7.914062 28.164062 L 8.726562 28.609375 L 9.230469 27.691406 L 9.660156 27.9375 C 9.980469 28.105469 9.875 28.378906 9.75 28.640625 C 9.691406 28.792969 9.628906 28.929688 9.597656 29.085938 L 10.410156 29.527344 C 10.394531 29.375 10.5625 29.054688 10.625 28.914062 C 10.777344 28.578125 10.777344 28.257812 10.609375 28.042969 C 10.929688 28.089844 11.203125 27.875 11.359375 27.597656 C 11.632812 27.109375 11.375 26.636719 10.914062 26.375 Z M 9.535156 27.125 L 9.828125 26.605469 L 10.210938 26.804688 C 10.515625 26.988281 10.5625 27.125 10.46875 27.292969 C 10.347656 27.539062 10.117188 27.445312 9.964844 27.355469 Z M 9.535156 27.125 "/>
<path style=" stroke:none;fill-rule:evenodd;fill:rgb(18.431373%,32.156863%,61.960784%);fill-opacity:1;" d="M 12.949219 27.953125 L 12.460938 30.140625 L 13.363281 30.339844 L 13.851562 28.148438 L 14.679688 28.332031 L 14.832031 27.582031 L 12.292969 27.015625 L 12.125 27.78125 Z M 12.949219 27.953125 "/>
<path style=" stroke:none;fill-rule:evenodd;fill:rgb(18.431373%,32.156863%,61.960784%);fill-opacity:1;" d="M 15.476562 27.628906 L 15.660156 30.628906 L 18.199219 30.476562 L 18.15625 29.695312 L 16.546875 29.804688 L 16.515625 29.421875 L 17.941406 29.34375 L 17.894531 28.625 L 16.472656 28.714844 L 16.457031 28.332031 L 18.015625 28.242188 L 17.972656 27.476562 Z M 15.476562 27.628906 "/>
<path style=" stroke:none;fill-rule:evenodd;fill:rgb(18.431373%,32.156863%,61.960784%);fill-opacity:1;" d="M 21.582031 26.039062 C 20.773438 26.480469 20.542969 27.324219 21.015625 28.148438 C 21.445312 28.929688 22.257812 29.269531 23.113281 28.792969 C 23.878906 28.363281 24.003906 27.570312 23.710938 27.03125 L 22.914062 27.476562 C 22.992188 27.753906 22.992188 27.996094 22.730469 28.148438 C 22.347656 28.363281 22.011719 28.058594 21.828125 27.707031 C 21.628906 27.355469 21.539062 26.910156 21.921875 26.710938 C 22.257812 26.511719 22.488281 26.773438 22.5625 26.863281 L 23.34375 26.421875 C 22.914062 25.792969 22.304688 25.640625 21.582031 26.039062 Z M 21.582031 26.039062 "/>
<path style=" stroke:none;fill-rule:evenodd;fill:rgb(18.431373%,32.156863%,61.960784%);fill-opacity:1;" d="M 23.328125 24.980469 L 25.457031 27.109375 L 27.0625 25.515625 L 26.511719 24.964844 L 25.578125 25.914062 L 23.988281 24.324219 Z M 23.328125 24.980469 "/>
<path style=" stroke:none;fill-rule:evenodd;fill:rgb(18.431373%,32.156863%,61.960784%);fill-opacity:1;" d="M 25.363281 22.855469 L 26.988281 23.757812 C 27.707031 24.171875 28.289062 23.972656 28.730469 23.160156 C 29.191406 22.363281 29.054688 21.765625 28.332031 21.367188 L 26.710938 20.464844 L 26.265625 21.261719 L 27.691406 22.074219 C 27.964844 22.226562 28.304688 22.410156 28.089844 22.792969 C 27.859375 23.191406 27.523438 22.992188 27.261719 22.855469 L 25.824219 22.042969 Z M 25.363281 22.855469 "/>
<path style=" stroke:none;fill-rule:evenodd;fill:rgb(18.431373%,32.156863%,61.960784%);fill-opacity:1;" d="M 26.988281 19.730469 L 29.925781 20.375 L 30.277344 18.707031 C 30.402344 18.183594 30.203125 17.601562 29.605469 17.480469 C 29.175781 17.390625 28.914062 17.589844 28.761719 17.832031 C 28.703125 17.589844 28.5625 17.40625 28.273438 17.34375 C 27.964844 17.28125 27.492188 17.34375 27.324219 18.125 Z M 29.421875 19.316406 L 28.871094 19.195312 L 28.992188 18.628906 C 29.039062 18.414062 29.160156 18.324219 29.328125 18.367188 C 29.558594 18.414062 29.574219 18.582031 29.527344 18.78125 Z M 28.425781 18.597656 L 28.320312 19.074219 L 27.875 18.980469 L 27.980469 18.507812 C 28.011719 18.324219 28.105469 18.199219 28.242188 18.230469 C 28.441406 18.277344 28.472656 18.414062 28.425781 18.597656 Z M 28.425781 18.597656 "/>
<path style=" stroke:none;fill-rule:evenodd;fill:rgb(18.431373%,32.156863%,61.960784%);fill-opacity:1;" d="M 27.570312 16.378906 L 30.585938 16.148438 L 30.386719 13.609375 L 29.621094 13.667969 L 29.742188 15.277344 L 29.359375 15.308594 L 29.253906 13.882812 L 28.546875 13.945312 L 28.65625 15.367188 L 28.273438 15.382812 L 28.164062 13.835938 L 27.386719 13.882812 Z M 27.570312 16.378906 "/>
</g>
</svg>
