<?xml version="1.0" encoding="UTF-8"?>
<svg xmlns="http://www.w3.org/2000/svg" xmlns:xlink="http://www.w3.org/1999/xlink" width="32px" height="32px" viewBox="0 0 32 42" version="1.1">
<g id="surface1">
<path style=" stroke:none;fill-rule:nonzero;fill:rgb(100%,100%,100%);fill-opacity:1;" d="M 31.308594 1.976562 C 31.257812 1.964844 24.261719 0.00390625 16.078125 0 C 16.054688 0 16.03125 0 16.007812 0 C 15.984375 0 15.957031 0 15.933594 0 C 7.75 0.00390625 0.753906 1.964844 0.703125 1.976562 C 0.289062 2.09375 0 2.46875 0 2.894531 L 0 24.910156 L 0.0195312 25.085938 C 0.0351562 25.230469 2.191406 36.09375 15.617188 41.898438 C 15.738281 41.953125 15.871094 41.976562 16.003906 41.976562 C 16.007812 41.976562 16.007812 41.976562 16.007812 41.976562 C 16.140625 41.976562 16.273438 41.953125 16.398438 41.898438 C 29.820312 36.09375 31.976562 25.230469 31.996094 25.085938 L 32.011719 24.910156 L 32.011719 2.894531 C 32.011719 2.46875 31.726562 2.09375 31.308594 1.976562 Z M 31.308594 1.976562 "/>
<path style=" stroke:none;fill-rule:nonzero;fill:rgb(0%,0%,0%);fill-opacity:1;" d="M 31.152344 2.507812 C 31.132812 2.503906 24.070312 0.566406 16.007812 0.554688 C 7.941406 0.566406 0.878906 2.503906 0.859375 2.507812 C 0.683594 2.554688 0.5625 2.714844 0.5625 2.894531 L 0.5625 24.910156 L 0.570312 24.984375 C 0.578125 25.042969 2.65625 35.691406 15.84375 41.390625 C 15.894531 41.414062 15.949219 41.425781 16.007812 41.425781 C 16.0625 41.425781 16.117188 41.414062 16.171875 41.390625 C 29.359375 35.691406 31.4375 25.042969 31.445312 24.984375 L 31.453125 24.910156 L 31.453125 2.894531 C 31.453125 2.714844 31.332031 2.554688 31.152344 2.507812 Z M 31.152344 2.507812 "/>
<path style=" stroke:none;fill-rule:nonzero;fill:rgb(100%,100%,100%);fill-opacity:1;" d="M 16.007812 1.359375 C 12.6875 1.363281 9.539062 1.699219 6.992188 2.089844 L 6.992188 34.460938 C 9.128906 36.652344 12.039062 38.84375 16.007812 40.585938 C 19.972656 38.84375 22.886719 36.652344 25.019531 34.460938 L 25.019531 2.089844 C 22.472656 1.699219 19.328125 1.363281 16.007812 1.359375 Z M 16.007812 1.359375 "/>
<path style=" stroke:none;fill-rule:nonzero;fill:rgb(0%,0%,0%);fill-opacity:1;" d="M 11.597656 31.324219 C 10.355469 30.101562 9.785156 28.644531 9.785156 27.1875 C 9.785156 25.449219 10.589844 23.710938 11.992188 22.332031 C 13.09375 21.246094 14.414062 20.527344 15.785156 20.261719 L 13.867188 18.375 C 13.355469 18.882812 11.378906 20.824219 10.640625 21.550781 L 10.648438 21.550781 L 10.347656 21.84375 L 10.242188 21.945312 C 10.171875 22.003906 10.066406 22.058594 9.941406 22.058594 C 9.804688 22.066406 9.65625 21.992188 9.5625 21.886719 L 8.515625 20.839844 C 8.410156 20.75 8.328125 20.609375 8.339844 20.46875 C 8.335938 20.347656 8.394531 20.242188 8.464844 20.160156 L 15.734375 13 L 14.132812 11.421875 C 13.621094 11.925781 11.644531 13.871094 10.90625 14.597656 L 10.914062 14.597656 L 10.613281 14.890625 L 10.507812 14.992188 C 10.4375 15.050781 10.332031 15.109375 10.207031 15.105469 C 10.066406 15.113281 9.921875 15.039062 9.828125 14.933594 L 8.777344 13.886719 C 8.675781 13.796875 8.59375 13.660156 8.601562 13.519531 C 8.601562 13.394531 8.65625 13.289062 8.726562 13.207031 L 16.851562 5.207031 C 17.019531 5.035156 17.253906 4.933594 17.511719 4.933594 C 17.765625 4.929688 17.996094 5.035156 18.15625 5.199219 L 23.5625 10.527344 C 23.621094 10.597656 23.675781 10.703125 23.675781 10.824219 C 23.683594 10.960938 23.609375 11.105469 23.503906 11.195312 L 23.453125 11.246094 L 23.449219 11.246094 C 23.417969 11.273438 23.378906 11.316406 23.328125 11.363281 C 23.226562 11.464844 23.089844 11.597656 22.953125 11.734375 C 22.679688 12 22.40625 12.269531 22.40625 12.269531 L 22.28125 12.390625 L 17.71875 7.890625 L 15.644531 9.9375 L 23.296875 17.476562 C 23.359375 17.546875 23.414062 17.65625 23.410156 17.777344 C 23.421875 17.910156 23.34375 18.054688 23.238281 18.148438 L 22.019531 19.34375 L 17.453125 14.84375 L 15.378906 16.886719 L 19.148438 20.601562 C 19.84375 20.894531 20.511719 21.335938 21.121094 21.9375 C 22.300781 23.113281 22.964844 24.523438 22.96875 25.929688 C 22.96875 26.949219 22.613281 27.960938 21.867188 28.855469 L 21.746094 29 L 19.964844 27.246094 L 20.03125 27.132812 C 20.367188 26.574219 20.558594 26.007812 20.558594 25.441406 C 20.558594 24.769531 20.289062 24.09375 19.613281 23.425781 C 18.886719 22.710938 18.09375 22.425781 17.285156 22.421875 C 16.0625 22.421875 14.792969 23.109375 13.789062 24.097656 C 12.785156 25.085938 12.085938 26.339844 12.089844 27.542969 C 12.089844 28.339844 12.382812 29.121094 13.109375 29.835938 C 13.722656 30.441406 14.40625 30.699219 15.105469 30.699219 C 15.902344 30.699219 16.722656 30.355469 17.453125 29.761719 L 17.574219 29.664062 L 19.328125 31.394531 L 19.191406 31.515625 C 18.070312 32.496094 16.769531 32.996094 15.464844 32.996094 C 14.09375 32.996094 12.726562 32.4375 11.597656 31.324219 Z M 11.597656 31.324219 "/>
<path style=" stroke:none;fill-rule:nonzero;fill:rgb(80%,0%,0%);fill-opacity:1;" d="M 16.515625 20.5 L 16.167969 20.546875 C 14.765625 20.734375 13.382812 21.445312 12.238281 22.570312 C 10.890625 23.898438 10.128906 25.554688 10.128906 27.1875 C 10.132812 28.558594 10.660156 29.917969 11.839844 31.082031 C 12.914062 32.140625 14.1875 32.65625 15.464844 32.65625 C 16.625 32.65625 17.792969 32.230469 18.824219 31.378906 L 17.550781 30.125 C 16.804688 30.695312 15.957031 31.039062 15.105469 31.039062 C 14.316406 31.039062 13.53125 30.738281 12.863281 30.078125 C 12.078125 29.308594 11.742188 28.425781 11.742188 27.542969 C 11.746094 26.207031 12.5 24.886719 13.546875 23.859375 C 14.59375 22.828125 15.929688 22.082031 17.285156 22.082031 C 18.179688 22.078125 19.074219 22.414062 19.859375 23.183594 C 20.585938 23.902344 20.90625 24.675781 20.90625 25.441406 C 20.90625 26.042969 20.714844 26.628906 20.398438 27.1875 L 21.71875 28.488281 C 22.335938 27.691406 22.621094 26.816406 22.621094 25.929688 C 22.621094 24.632812 22.003906 23.300781 20.878906 22.179688 C 20.289062 21.597656 19.648438 21.179688 18.980469 20.902344 L 18.949219 20.886719 L 14.886719 16.886719 L 17.453125 14.359375 L 22.019531 18.859375 L 22.996094 17.90625 C 23.078125 17.8125 23.054688 17.851562 23.066406 17.777344 C 23.0625 17.742188 23.0625 17.738281 23.039062 17.707031 L 15.152344 9.9375 L 17.71875 7.40625 L 22.285156 11.90625 C 22.546875 11.648438 23.15625 11.046875 23.261719 10.953125 C 23.339844 10.863281 23.320312 10.898438 23.328125 10.824219 C 23.328125 10.789062 23.328125 10.785156 23.304688 10.753906 L 17.910156 5.4375 C 17.804688 5.332031 17.671875 5.273438 17.511719 5.273438 C 17.351562 5.273438 17.203125 5.339844 17.101562 5.445312 L 8.984375 13.4375 C 8.953125 13.476562 8.949219 13.484375 8.949219 13.515625 C 8.957031 13.585938 8.9375 13.550781 9.023438 13.648438 L 10.074219 14.695312 C 10.167969 14.777344 10.132812 14.753906 10.207031 14.765625 C 10.238281 14.761719 10.246094 14.761719 10.277344 14.738281 L 10.355469 14.660156 L 10.363281 14.65625 L 10.367188 14.648438 L 10.378906 14.640625 C 10.386719 14.632812 10.394531 14.621094 10.410156 14.605469 C 10.4375 14.582031 10.476562 14.542969 10.523438 14.492188 C 10.625 14.394531 10.765625 14.253906 10.9375 14.085938 C 11.28125 13.75 11.734375 13.300781 12.191406 12.851562 C 13.101562 11.957031 14.011719 11.0625 14.011719 11.0625 L 14.132812 10.941406 L 16.226562 13 L 8.722656 20.386719 C 8.691406 20.429688 8.6875 20.4375 8.683594 20.46875 C 8.695312 20.539062 8.671875 20.503906 8.757812 20.601562 L 9.808594 21.644531 C 9.902344 21.726562 9.867188 21.707031 9.941406 21.714844 C 9.976562 21.714844 9.984375 21.710938 10.011719 21.691406 L 10.097656 21.609375 L 10.101562 21.601562 L 10.113281 21.59375 C 10.121094 21.585938 10.128906 21.574219 10.144531 21.558594 C 10.171875 21.535156 10.210938 21.496094 10.261719 21.445312 C 10.359375 21.347656 10.503906 21.207031 10.671875 21.039062 C 11.015625 20.703125 11.46875 20.253906 11.925781 19.804688 C 12.835938 18.910156 13.746094 18.015625 13.746094 18.015625 L 13.867188 17.894531 L 16.269531 20.253906 L 16.144531 20.375 L 16.269531 20.253906 Z M 16.515625 20.5 "/>
</g>
</svg>
