<?xml version="1.0" encoding="UTF-8"?>
<svg xmlns="http://www.w3.org/2000/svg" xmlns:xlink="http://www.w3.org/1999/xlink" width="32px" height="32px" viewBox="0 0 32 32" version="1.1">
<g id="surface1">
<path style="fill-rule:nonzero;fill:rgb(100%,100%,100%);fill-opacity:1;stroke-width:21.127;stroke-linecap:butt;stroke-linejoin:miter;stroke:rgb(0%,32.54902%,62.745098%);stroke-opacity:1;stroke-miterlimit:4;" d="M 706.969689 420.944885 C 706.969689 647.038329 523.731229 830.276789 297.637785 830.276789 C 71.544341 830.276789 -111.694119 647.038329 -111.694119 420.944885 C -111.694119 194.851441 71.544341 11.612981 297.637785 11.612981 C 523.731229 11.612981 706.969689 194.851441 706.969689 420.944885 Z M 706.969689 420.944885 " transform="matrix(0.0380097,0,0,0.0380097,4.686869,0)"/>
<path style=" stroke:none;fill-rule:evenodd;fill:rgb(0%,32.54902%,62.745098%);fill-opacity:1;" d="M 1.613281 16.183594 C 1.511719 8.238281 7.871094 1.714844 15.816406 1.613281 C 23.761719 1.515625 30.285156 7.875 30.386719 15.820312 C 30.484375 23.765625 24.125 30.289062 16.179688 30.386719 C 8.238281 30.488281 1.714844 24.128906 1.613281 16.183594 Z M 15.816406 1.4375 C 7.773438 1.539062 1.332031 8.144531 1.433594 16.1875 C 1.535156 24.230469 8.140625 30.667969 16.183594 30.566406 C 24.226562 30.464844 30.667969 23.859375 30.566406 15.816406 C 30.464844 7.773438 23.859375 1.332031 15.816406 1.4375 Z M 15.816406 1.4375 "/>
<path style=" stroke:none;fill-rule:evenodd;fill:rgb(0%,32.54902%,62.745098%);fill-opacity:1;" d="M 15.472656 6.4375 C 13.707031 6.433594 11.652344 7.136719 10.273438 8.277344 C 10.269531 8.28125 10.269531 8.292969 10.277344 8.296875 C 11.066406 8.609375 11.609375 9.023438 12.453125 9.496094 C 12.480469 9.511719 12.492188 9.507812 12.5 9.480469 C 12.90625 7.40625 15.4375 7.980469 15.671875 6.472656 C 15.660156 6.460938 15.664062 6.441406 15.640625 6.441406 C 15.585938 6.441406 15.527344 6.4375 15.472656 6.4375 Z M 16.523438 6.441406 C 16.507812 6.441406 16.5 6.449219 16.5 6.476562 C 16.394531 6.742188 16.707031 7.019531 16.886719 7.199219 C 16.90625 7.214844 16.933594 7.234375 16.957031 7.242188 C 18.085938 7.703125 19.335938 8.042969 19.609375 9.339844 C 19.613281 9.363281 19.617188 9.375 19.640625 9.355469 C 20.242188 8.957031 20.835938 8.550781 21.445312 8.167969 C 21.476562 8.15625 21.464844 8.140625 21.445312 8.128906 C 20.070312 7.148438 18.351562 6.515625 16.523438 6.441406 Z M 9.484375 8.933594 C 8.382812 9.910156 7.4375 11.1875 6.945312 12.621094 C 6.941406 12.636719 6.949219 12.640625 6.96875 12.644531 C 8.046875 12.742188 8.398438 11.335938 9.222656 10.8125 C 9.234375 10.808594 9.246094 10.800781 9.242188 10.789062 C 9.183594 10.148438 9.15625 9.609375 9.484375 8.933594 Z M 22.773438 9.242188 C 22.832031 9.738281 22.785156 10.210938 22.652344 10.667969 C 22.648438 10.691406 22.648438 10.707031 22.675781 10.722656 C 23.46875 11.148438 23.902344 12.394531 24.820312 12.441406 C 24.832031 12.445312 24.851562 12.445312 24.84375 12.433594 C 24.523438 11.324219 23.605469 10.007812 22.773438 9.242188 Z M 25.140625 13.160156 C 24.011719 14.289062 25.84375 16.1875 23.355469 17.246094 C 23.136719 17.3125 22.925781 17.386719 22.726562 17.386719 C 22.175781 17.390625 21.390625 16.96875 21.394531 17.808594 C 21.394531 17.824219 21.40625 17.835938 21.425781 17.839844 C 22.195312 18.171875 23.230469 18.882812 23.25 19.980469 C 23.285156 21.289062 21.90625 22.171875 22.125 23.417969 C 25.070312 20.871094 26.28125 17.109375 25.140625 13.160156 Z M 6.726562 13.347656 C 6.714844 13.347656 6.710938 13.359375 6.699219 13.378906 C 5.585938 16.425781 6.679688 21.164062 10.101562 23.667969 C 10.105469 23.605469 10.140625 23.46875 10.179688 23.378906 C 10.195312 23.34375 10.191406 23.296875 10.179688 23.257812 C 10.054688 22.707031 9.726562 22.148438 9.414062 21.609375 C 8.335938 19.816406 8.933594 18.589844 10.675781 17.792969 C 10.699219 17.785156 10.703125 17.773438 10.691406 17.75 C 10.664062 17.6875 10.636719 17.628906 10.613281 17.570312 C 10.601562 17.554688 10.613281 17.523438 10.570312 17.527344 C 10.179688 17.578125 9.742188 17.613281 9.34375 17.59375 C 8.746094 17.460938 8.171875 17.222656 7.742188 16.589844 C 6.972656 15.511719 8.027344 14.066406 6.757812 13.355469 C 6.746094 13.347656 6.734375 13.34375 6.726562 13.347656 Z M 22.855469 17.75 C 22.886719 17.75 22.914062 17.757812 22.945312 17.765625 C 23.328125 17.835938 23.914062 18.0625 24.261719 18.492188 C 24.285156 18.519531 24.273438 18.542969 24.238281 18.539062 C 23.679688 18.523438 23.054688 18.460938 22.621094 18.117188 C 22.558594 18.070312 22.503906 18.023438 22.546875 17.90625 C 22.578125 17.832031 22.679688 17.777344 22.765625 17.761719 C 22.796875 17.757812 22.828125 17.75 22.855469 17.75 Z M 9.0625 17.980469 C 9.09375 17.976562 9.125 17.980469 9.15625 17.980469 C 9.183594 17.984375 9.207031 17.984375 9.226562 18 C 9.332031 18.128906 9.3125 18.308594 9.113281 18.445312 C 8.6875 18.71875 8.199219 18.730469 7.746094 18.75 C 7.730469 18.753906 7.699219 18.734375 7.730469 18.703125 C 8.140625 18.328125 8.597656 17.984375 9.0625 17.980469 Z M 16.710938 23.117188 C 16.707031 23.117188 16.699219 23.117188 16.695312 23.121094 C 16.347656 23.285156 15.804688 23.367188 15.496094 23.195312 C 15.460938 23.175781 15.4375 23.1875 15.421875 23.210938 C 14.875 24.144531 13.566406 24.121094 12.636719 23.882812 C 11.945312 23.726562 11.273438 23.53125 10.714844 24.082031 C 13.617188 26.175781 18.09375 26.242188 21.453125 23.9375 C 20.816406 23.640625 20.242188 23.855469 19.546875 24.015625 C 18.757812 24.199219 17.648438 24.367188 16.757812 23.136719 C 16.742188 23.132812 16.726562 23.117188 16.710938 23.117188 Z M 16.132812 23.328125 C 16.140625 23.328125 16.148438 23.328125 16.160156 23.328125 C 16.257812 23.339844 16.316406 23.390625 16.378906 23.460938 C 16.410156 23.5 16.417969 23.546875 16.414062 23.59375 C 16.398438 24.023438 16.324219 24.460938 16.179688 24.835938 C 16.175781 24.855469 16.164062 24.859375 16.15625 24.835938 C 15.988281 24.304688 15.703125 23.769531 16.0625 23.351562 C 16.085938 23.332031 16.105469 23.324219 16.132812 23.328125 Z M 16.132812 23.328125 "/>
<path style=" stroke:none;fill-rule:evenodd;fill:rgb(0%,32.54902%,62.745098%);fill-opacity:1;" d="M 17.0625 2.429688 C 17.148438 2.542969 17.234375 2.667969 17.203125 2.804688 C 17.09375 3.433594 16.972656 4.054688 16.847656 4.679688 C 16.824219 4.816406 16.722656 4.878906 16.621094 4.972656 C 17.304688 5.09375 18.585938 5.335938 19.273438 5.464844 C 19.253906 5.195312 19.460938 5.035156 19.542969 4.792969 C 19.316406 4.949219 19.023438 5.007812 18.753906 4.953125 C 18.472656 4.898438 17.773438 4.757812 17.492188 4.703125 C 17.539062 4.484375 17.570312 4.261719 17.617188 4.042969 C 17.894531 4.09375 18.332031 4.195312 18.605469 4.230469 C 18.839844 4.285156 19.015625 3.960938 19.140625 3.808594 C 19.050781 3.828125 18.886719 3.839844 18.792969 3.820312 C 18.507812 3.761719 17.992188 3.65625 17.707031 3.597656 C 17.730469 3.390625 17.777344 3.183594 17.820312 2.980469 C 18.308594 3.109375 19.335938 3.160156 19.699219 3.570312 C 19.714844 3.34375 19.585938 3.058594 19.714844 2.910156 C 19.035156 2.777344 17.738281 2.554688 17.0625 2.429688 Z M 16.734375 2.4375 C 16.082031 2.441406 14.828125 2.511719 14.175781 2.519531 C 14.3125 2.75 14.105469 2.949219 14.101562 3.179688 C 14.324219 2.980469 14.875 2.921875 15.164062 2.929688 C 15.164062 3.558594 15.226562 4.191406 15.238281 4.820312 C 15.242188 4.941406 15.148438 5.015625 15.070312 5.0625 C 15.355469 5.0625 15.804688 5.027344 16.070312 5.019531 C 15.941406 4.902344 15.875 4.890625 15.871094 4.722656 C 15.824219 4.140625 15.800781 3.464844 15.785156 2.886719 C 16.082031 2.863281 16.621094 2.917969 16.863281 3.0625 C 16.859375 2.808594 16.613281 2.558594 16.734375 2.4375 Z M 13.875 2.609375 C 13.457031 2.699219 12.527344 2.765625 12.167969 3.039062 C 11.734375 3.335938 11.636719 4 12.195312 4.292969 C 12.546875 4.433594 13.210938 4.277344 13.558594 4.304688 C 13.796875 4.316406 13.898438 4.648438 13.742188 4.808594 C 13.402344 5.109375 12.480469 5.109375 12.078125 4.988281 C 12.175781 5.21875 12.289062 5.417969 12.390625 5.644531 C 12.527344 5.558594 12.773438 5.539062 12.925781 5.511719 C 13.253906 5.464844 14.035156 5.253906 14.257812 4.988281 C 14.519531 4.675781 14.53125 4.230469 14.277344 3.945312 C 14.046875 3.695312 13.332031 3.738281 13.027344 3.757812 C 12.855469 3.757812 12.714844 3.820312 12.550781 3.738281 C 12.410156 3.644531 12.417969 3.402344 12.574219 3.320312 C 12.875 3.160156 13.558594 3.136719 13.871094 3.265625 C 13.851562 3.046875 13.882812 2.828125 13.875 2.609375 Z M 20.601562 3.171875 C 20.660156 3.3125 20.691406 3.441406 20.625 3.574219 C 20.378906 4.109375 20.097656 4.636719 19.835938 5.175781 C 19.761719 5.332031 19.667969 5.433594 19.492188 5.5 C 19.722656 5.617188 20.125 5.816406 20.359375 5.9375 C 20.261719 5.578125 20.503906 5.253906 20.644531 4.964844 C 20.777344 5.039062 21.136719 5.207031 21.226562 5.351562 C 21.34375 5.550781 21.375 5.757812 21.398438 5.964844 C 21.410156 6.152344 21.425781 6.292969 21.230469 6.359375 C 21.503906 6.46875 21.929688 6.699219 22.183594 6.820312 C 21.984375 6.40625 22.105469 5.84375 21.839844 5.4375 C 22.011719 5.445312 22.304688 5.472656 22.492188 5.359375 C 22.828125 5.164062 22.910156 4.851562 22.792969 4.441406 C 22.730469 4.226562 22.519531 4.101562 22.339844 4.015625 C 21.910156 3.804688 21.035156 3.382812 20.601562 3.171875 Z M 10.800781 3.445312 C 10.203125 3.785156 9.046875 4.359375 8.457031 4.707031 C 8.609375 4.746094 8.71875 4.804688 8.792969 4.9375 C 9.085938 5.472656 9.382812 6.003906 9.675781 6.535156 C 9.753906 6.664062 9.730469 6.824219 9.667969 6.972656 C 10.285156 6.628906 11.4375 6.03125 12.054688 5.691406 C 11.859375 5.582031 11.984375 5.21875 11.90625 4.976562 C 11.84375 5.1875 11.628906 5.378906 11.453125 5.507812 C 11.164062 5.699219 10.492188 6.042969 10.195312 6.210938 C 10.085938 6.019531 9.976562 5.820312 9.871094 5.625 C 10.105469 5.480469 10.644531 5.242188 10.871094 5.089844 C 11.003906 4.921875 10.925781 4.679688 10.957031 4.484375 C 10.898438 4.554688 10.820312 4.617188 10.738281 4.660156 C 10.488281 4.800781 9.941406 5.105469 9.6875 5.242188 C 9.589844 5.058594 9.476562 4.886719 9.390625 4.695312 C 9.855469 4.484375 10.6875 3.921875 11.214844 3.953125 C 11.082031 3.761719 10.871094 3.675781 10.800781 3.445312 Z M 21.144531 3.929688 C 21.375 4.046875 21.710938 4.195312 21.917969 4.308594 C 22.46875 4.59375 22.078125 5.195312 21.679688 4.96875 C 21.449219 4.894531 21.050781 4.667969 20.828125 4.578125 C 20.925781 4.355469 21.046875 4.152344 21.144531 3.929688 Z M 7.914062 5.109375 C 7.851562 5.199219 7.769531 5.285156 7.667969 5.335938 C 7.339844 5.488281 6.75 6.023438 6.605469 6.359375 C 6.410156 6.742188 6.410156 7.097656 6.644531 7.546875 C 6.910156 8.074219 7.285156 8.320312 7.863281 8.320312 C 8.433594 8.285156 8.949219 7.785156 9.183594 7.476562 C 9.3125 7.328125 9.4375 7.164062 9.628906 7.078125 C 9.46875 6.902344 9.300781 6.734375 9.140625 6.558594 C 9.082031 6.769531 8.976562 6.953125 8.839844 7.132812 C 8.632812 7.363281 8.3125 7.730469 7.953125 7.714844 C 7.589844 7.695312 7.472656 7.523438 7.3125 7.347656 C 7.148438 7.167969 7.039062 6.964844 7.066406 6.644531 C 7.09375 6.328125 7.722656 5.742188 8.175781 5.726562 C 8.074219 5.527344 8.019531 5.308594 7.914062 5.109375 Z M 5.707031 7.242188 C 5.542969 7.453125 5.246094 7.828125 5.070312 8.03125 C 5.234375 8.007812 5.382812 8.023438 5.507812 8.117188 C 5.984375 8.488281 6.457031 8.863281 6.933594 9.238281 C 7.054688 9.328125 7.109375 9.464844 7.125 9.625 C 7.300781 9.414062 7.582031 9.050781 7.75 8.847656 C 7.605469 8.867188 7.460938 8.875 7.347656 8.78125 C 6.863281 8.410156 6.386719 8.03125 5.90625 7.652344 C 5.773438 7.554688 5.703125 7.417969 5.707031 7.242188 Z M 4.578125 8.675781 C 4.273438 9.296875 3.652344 10.449219 3.355469 11.070312 C 3.519531 11.003906 3.640625 11.015625 3.792969 11.089844 C 4.328125 11.359375 4.867188 11.621094 5.402344 11.886719 C 5.535156 11.953125 5.652344 12.085938 5.703125 12.222656 C 6.003906 11.589844 6.554688 10.476562 6.898438 9.851562 C 6.828125 9.851562 6.757812 9.792969 6.707031 9.742188 C 6.566406 9.605469 6.492188 9.453125 6.347656 9.320312 C 6.390625 9.570312 6.351562 9.871094 6.246094 10.113281 C 6.117188 10.382812 5.78125 11.039062 5.652344 11.3125 C 5.445312 11.242188 5.28125 11.121094 5.078125 11.027344 C 5.179688 10.785156 5.480469 10.238281 5.585938 9.996094 C 5.585938 9.855469 5.417969 9.617188 5.300781 9.449219 C 5.292969 9.539062 5.253906 9.632812 5.210938 9.714844 C 5.082031 9.980469 4.792969 10.5625 4.660156 10.824219 C 4.472656 10.730469 4.234375 10.640625 4.050781 10.546875 C 4.179688 10.285156 4.503906 9.628906 4.640625 9.367188 C 4.742188 9.160156 4.910156 8.988281 5.121094 8.886719 C 4.902344 8.800781 4.761719 8.828125 4.578125 8.675781 Z M 4.964844 12.125 C 5.050781 12.261719 5.070312 12.5 5.074219 12.664062 C 5.097656 12.980469 4.914062 13.578125 4.863281 13.882812 C 4.285156 13.769531 3.703125 13.628906 3.125 13.503906 C 2.964844 13.472656 2.902344 13.34375 2.808594 13.207031 C 2.746094 13.46875 2.640625 13.960938 2.585938 14.226562 C 2.703125 14.140625 2.789062 14.074219 2.925781 14.105469 C 3.542969 14.234375 4.160156 14.371094 4.773438 14.507812 C 4.917969 14.539062 5.058594 14.648438 5.132812 14.78125 C 5.261719 14.183594 5.511719 13.089844 5.640625 12.492188 C 5.574219 12.496094 5.511719 12.507812 5.453125 12.472656 C 5.273438 12.371094 5.148438 12.21875 4.964844 12.125 Z M 4.964844 12.125 "/>
<path style=" stroke:none;fill-rule:evenodd;fill:rgb(0%,32.54902%,62.745098%);fill-opacity:1;" d="M 4.972656 17.242188 C 4.882812 17.367188 4.761719 17.472656 4.613281 17.5 C 4.046875 17.660156 3.445312 17.78125 2.800781 17.9375 C 2.667969 17.984375 2.589844 17.929688 2.46875 17.835938 C 2.527344 18.09375 2.613281 18.523438 2.675781 18.785156 C 2.90625 18.460938 3.332031 18.472656 3.671875 18.363281 C 3.75 18.632812 3.847656 19.199219 3.9375 19.464844 C 4.078125 19.613281 4.3125 19.632812 4.5 19.699219 C 4.449219 19.625 4.359375 19.472656 4.347656 19.386719 C 4.28125 19.097656 4.15625 18.550781 4.089844 18.269531 C 4.308594 18.21875 4.519531 18.15625 4.738281 18.125 C 4.855469 18.578125 5.125 19.421875 4.917969 19.855469 C 5.136719 19.785156 5.320312 19.542969 5.515625 19.59375 C 5.386719 18.984375 5.089844 17.859375 4.972656 17.242188 Z M 5 20.015625 C 4.929688 20.015625 4.855469 20.019531 4.785156 20.027344 C 4.292969 20.132812 3.839844 20.375 3.632812 20.886719 C 3.355469 21.597656 3.898438 22.695312 4.625 22.964844 C 5.09375 23.128906 5.558594 23.003906 5.902344 22.746094 C 6.226562 22.523438 6.445312 22.15625 6.4375 21.660156 C 6.417969 21.101562 6.105469 20.550781 5.648438 20.234375 C 5.433594 20.082031 5.21875 20.023438 5 20.015625 Z M 4.980469 20.640625 C 5.25 20.636719 5.527344 20.707031 5.710938 20.984375 C 5.941406 21.269531 6.011719 21.675781 5.847656 21.917969 C 5.617188 22.222656 5.242188 22.40625 4.847656 22.386719 C 4.417969 22.375 3.980469 21.824219 4.109375 21.296875 C 4.230469 20.867188 4.71875 20.660156 4.980469 20.640625 Z M 6.675781 22.714844 C 6.570312 22.71875 6.464844 22.742188 6.363281 22.777344 C 5.875 22.960938 5.515625 23.273438 5.375 23.8125 C 5.171875 24.550781 5.980469 25.523438 6.742188 25.660156 C 7.234375 25.742188 7.667969 25.566406 7.964844 25.25 C 8.242188 24.976562 8.417969 24.566406 8.320312 24.078125 C 8.203125 23.53125 7.761719 23.0625 7.257812 22.832031 C 7.035156 22.75 6.851562 22.710938 6.675781 22.714844 Z M 6.917969 23.3125 C 7.128906 23.316406 7.324219 23.398438 7.46875 23.550781 C 7.738281 23.796875 7.863281 24.101562 7.738281 24.421875 C 7.570312 24.800781 7.253906 25.046875 6.863281 25.097656 C 6.4375 25.15625 5.886719 24.59375 5.945312 24.128906 C 6.011719 23.707031 6.289062 23.53125 6.519531 23.410156 C 6.652344 23.34375 6.789062 23.3125 6.917969 23.3125 Z M 8.816406 24.417969 C 8.8125 24.660156 8.5625 24.585938 8.367188 24.894531 C 8.660156 24.863281 9.15625 25.128906 9.390625 25.300781 C 9.046875 25.824219 8.6875 26.332031 8.339844 26.851562 C 8.273438 26.960938 8.160156 26.972656 8.042969 26.980469 C 8.257812 27.132812 8.652344 27.394531 8.871094 27.546875 C 8.828125 27.371094 8.84375 27.226562 8.9375 27.085938 C 9.246094 26.628906 9.558594 26.175781 9.867188 25.71875 C 9.882812 25.699219 9.898438 25.65625 9.933594 25.667969 C 10.183594 25.804688 10.578125 26.148438 10.667969 26.421875 C 10.773438 26.21875 10.75 25.894531 10.945312 25.816406 C 10.410156 25.449219 9.355469 24.777344 8.816406 24.417969 Z M 11.078125 25.929688 C 11.15625 26.070312 11.136719 26.234375 11.089844 26.382812 C 10.917969 26.96875 10.695312 27.496094 10.519531 28.078125 C 10.480469 28.21875 10.390625 28.304688 10.210938 28.347656 C 10.765625 28.523438 11.410156 28.757812 12 28.9375 C 12.605469 29.132812 13.152344 28.988281 13.21875 28.347656 C 13.257812 27.980469 12.867188 27.8125 12.714844 27.730469 C 13.117188 27.78125 13.386719 27.566406 13.410156 27.1875 C 13.441406 26.917969 13.199219 26.625 12.644531 26.445312 C 12.246094 26.316406 11.480469 26.039062 11.078125 25.929688 Z M 19.492188 26.386719 C 19.234375 26.453125 18.804688 26.636719 18.550781 26.722656 C 18.691406 26.78125 18.789062 26.824219 18.839844 26.964844 C 19.019531 27.515625 19.238281 28.027344 19.425781 28.578125 C 19.476562 28.75 19.539062 28.945312 19.445312 29.113281 C 20.03125 28.933594 21.042969 28.570312 21.621094 28.375 C 21.589844 28.328125 21.539062 28.289062 21.542969 28.226562 C 21.527344 28.023438 21.578125 27.855469 21.5625 27.644531 C 21.425781 27.925781 21.132812 28.066406 20.832031 28.183594 C 20.664062 28.238281 20.191406 28.449219 20.023438 28.464844 C 19.839844 27.910156 19.617188 27.324219 19.429688 26.769531 C 19.378906 26.625 19.417969 26.523438 19.492188 26.386719 Z M 11.628906 26.570312 C 11.84375 26.644531 12.453125 26.785156 12.660156 26.871094 C 12.949219 26.992188 12.761719 27.511719 12.457031 27.445312 C 12.246094 27.410156 11.652344 27.242188 11.453125 27.167969 C 11.511719 26.96875 11.566406 26.769531 11.628906 26.570312 Z M 14.460938 26.871094 C 14.480469 26.910156 14.46875 27.003906 14.4375 27.046875 L 13.347656 28.886719 C 13.253906 29.042969 13.160156 29.117188 13.027344 29.21875 C 13.273438 29.257812 13.703125 29.378906 13.953125 29.429688 C 13.871094 29.253906 13.878906 29.039062 14.007812 28.871094 C 14.390625 28.90625 15.109375 28.957031 15.492188 29.003906 C 15.570312 29.183594 15.667969 29.402344 15.492188 29.570312 C 15.746094 29.566406 16.183594 29.558594 16.429688 29.574219 C 16.320312 29.441406 16.210938 29.308594 16.167969 29.136719 C 16.050781 28.796875 15.621094 27.53125 15.484375 27.140625 C 15.464844 27.070312 15.496094 26.980469 15.496094 26.972656 Z M 17.332031 26.886719 C 17.054688 26.929688 16.585938 26.984375 16.320312 27.019531 C 16.445312 27.105469 16.539062 27.164062 16.554688 27.3125 C 16.621094 27.886719 16.738281 28.4375 16.8125 29.011719 C 16.828125 29.191406 16.828125 29.421875 16.703125 29.570312 C 17.3125 29.511719 18.429688 29.328125 19.035156 29.257812 C 19.011719 29.207031 18.972656 29.15625 18.988281 29.097656 C 19.015625 28.890625 19.09375 28.714844 19.117188 28.507812 C 18.917969 28.734375 18.628906 28.859375 18.3125 28.914062 C 18.128906 28.945312 17.601562 29.03125 17.4375 29.027344 C 17.367188 28.445312 17.265625 27.828125 17.195312 27.246094 C 17.175781 27.09375 17.230469 27.003906 17.332031 26.886719 Z M 14.90625 27.3125 L 15.347656 28.519531 C 15.070312 28.503906 14.542969 28.472656 14.265625 28.441406 Z M 11.355469 27.550781 C 11.609375 27.652344 12.03125 27.792969 12.257812 27.882812 C 12.753906 28.054688 12.625 28.71875 12.023438 28.511719 C 11.753906 28.425781 11.394531 28.3125 11.140625 28.214844 C 11.199219 28 11.292969 27.769531 11.355469 27.550781 Z M 11.355469 27.550781 "/>
<path style=" stroke:none;fill-rule:evenodd;fill:rgb(0%,32.54902%,62.745098%);fill-opacity:1;" d="M 24.644531 5.945312 C 24.25 5.929688 23.992188 6.039062 23.71875 6.269531 C 23.414062 6.546875 23.203125 6.871094 23.207031 7.355469 C 23.214844 7.738281 23.632812 8.339844 24.136719 8.65625 C 24.277344 8.761719 24.503906 8.890625 24.523438 9.066406 C 24.691406 8.894531 24.863281 8.726562 25.035156 8.570312 C 24.625 8.445312 23.933594 8.050781 23.835938 7.59375 C 23.773438 7.230469 23.863281 7.113281 24.015625 6.914062 C 24.304688 6.566406 24.597656 6.441406 25.035156 6.5625 C 25.425781 6.71875 25.777344 7.207031 25.804688 7.5625 C 26.007812 7.457031 26.203125 7.371094 26.410156 7.269531 C 26.246094 7.167969 26.171875 7.046875 26.0625 6.898438 C 25.820312 6.546875 25.367188 6.050781 24.820312 5.960938 C 24.757812 5.953125 24.699219 5.949219 24.644531 5.945312 Z M 26.800781 7.8125 C 26.792969 8.070312 26.65625 8.148438 26.472656 8.285156 C 26.027344 8.589844 25.605469 8.902344 25.160156 9.199219 C 25.03125 9.28125 24.867188 9.382812 24.6875 9.296875 C 24.832031 9.519531 25.121094 9.902344 25.265625 10.125 C 25.28125 9.894531 25.40625 9.789062 25.542969 9.699219 C 26.023438 9.378906 26.476562 9.03125 26.960938 8.710938 C 27.101562 8.617188 27.179688 8.578125 27.367188 8.640625 C 27.222656 8.417969 26.945312 8.035156 26.800781 7.8125 Z M 27.65625 9.019531 C 27.523438 9.21875 27.226562 9.097656 27.015625 9.179688 C 27.273438 9.324219 27.554688 9.785156 27.660156 10.054688 C 27.089844 10.324219 26.617188 10.566406 26.042969 10.835938 C 25.933594 10.890625 25.761719 10.855469 25.652344 10.8125 C 25.769531 11.054688 25.96875 11.476562 26.085938 11.714844 C 26.148438 11.53125 26.332031 11.371094 26.507812 11.296875 C 27.019531 11.0625 27.441406 10.839844 27.957031 10.621094 C 28.085938 10.878906 28.308594 11.363281 28.234375 11.652344 C 28.429688 11.535156 28.527344 11.273438 28.753906 11.300781 C 28.480469 10.707031 27.933594 9.609375 27.65625 9.019531 Z M 28.898438 11.582031 C 28.84375 11.832031 28.617188 11.976562 28.480469 12.160156 C 28.199219 12.488281 27.863281 12.855469 27.535156 13.1875 C 27.457031 13.261719 27.261719 13.285156 27.144531 13.3125 C 26.898438 13.347656 26.785156 13.375 26.597656 13.21875 C 26.65625 13.480469 26.753906 13.949219 26.804688 14.214844 C 26.910156 14.054688 27.019531 13.964844 27.226562 13.910156 C 27.410156 13.878906 27.570312 13.808594 27.699219 13.867188 C 28.300781 14.191406 29.421875 14.65625 29.5625 14.800781 L 29.359375 13.820312 C 29.292969 13.914062 29.214844 13.960938 29.132812 13.929688 C 28.773438 13.792969 28.347656 13.59375 28.042969 13.476562 C 28.265625 13.21875 28.527344 12.96875 28.761719 12.722656 C 28.867188 12.597656 29.007812 12.546875 29.132812 12.667969 Z M 28.898438 11.582031 "/>
<path style=" stroke:none;fill-rule:evenodd;fill:rgb(0%,32.54902%,62.745098%);fill-opacity:1;" d="M 27.480469 17.382812 C 27.363281 17.382812 27.234375 17.425781 27.097656 17.515625 C 26.902344 17.6875 26.832031 17.957031 26.765625 18.199219 C 26.679688 18.605469 26.457031 19.441406 26.378906 19.851562 C 26.515625 19.742188 26.628906 19.730469 26.785156 19.761719 C 27.382812 19.890625 27.976562 20.027344 28.570312 20.15625 C 28.714844 20.183594 28.820312 20.296875 28.902344 20.421875 C 28.992188 19.855469 29.34375 18.707031 29.332031 18.128906 C 29.324219 17.65625 28.882812 17.351562 28.464844 17.449219 C 28.226562 17.519531 28.089844 17.792969 28.039062 17.984375 C 28.039062 17.699219 27.820312 17.371094 27.480469 17.382812 Z M 27.480469 18.066406 C 27.65625 18.070312 27.816406 18.230469 27.769531 18.433594 C 27.726562 18.644531 27.640625 19.089844 27.589844 19.300781 C 27.386719 19.257812 27.175781 19.210938 26.972656 19.167969 C 27.03125 18.949219 27.085938 18.636719 27.144531 18.417969 C 27.199219 18.164062 27.34375 18.066406 27.480469 18.066406 Z M 28.578125 18.105469 C 28.757812 18.113281 28.925781 18.296875 28.886719 18.519531 C 28.828125 18.785156 28.726562 19.28125 28.675781 19.546875 C 28.453125 19.5 28.226562 19.449219 28 19.402344 C 28.058594 19.136719 28.144531 18.746094 28.214844 18.480469 C 28.28125 18.203125 28.433594 18.101562 28.578125 18.105469 Z M 26.335938 19.96875 C 26.167969 20.269531 26.015625 20.558594 25.839844 20.863281 C 25.972656 20.800781 26.105469 20.792969 26.214844 20.851562 C 26.605469 21.058594 26.9375 21.25 27.324219 21.464844 C 27.472656 21.550781 27.636719 21.714844 27.652344 21.925781 C 27.644531 22.210938 27.449219 22.554688 27.1875 22.671875 C 26.996094 22.761719 26.78125 22.667969 26.636719 22.585938 C 26.28125 22.375 26.003906 22.222656 25.648438 22.007812 C 25.527344 21.9375 25.417969 21.882812 25.40625 21.65625 C 25.238281 21.945312 25.082031 22.257812 24.90625 22.554688 C 25.140625 22.449219 25.304688 22.519531 25.472656 22.625 C 25.789062 22.804688 26.050781 22.957031 26.363281 23.140625 C 26.601562 23.273438 26.839844 23.363281 27.164062 23.289062 C 27.445312 23.226562 27.683594 22.953125 27.855469 22.675781 C 28.039062 22.378906 28.195312 22.039062 28.179688 21.714844 C 28.164062 21.378906 27.957031 21.148438 27.730469 21 C 27.359375 20.773438 27.066406 20.621094 26.691406 20.402344 C 26.546875 20.316406 26.339844 20.183594 26.335938 19.96875 Z M 26.539062 23.421875 C 26.53125 23.707031 26.375 24.039062 26.171875 24.269531 C 26.074219 24.40625 25.746094 24.773438 25.613281 24.917969 C 25.167969 24.539062 24.761719 24.191406 24.3125 23.816406 C 24.191406 23.71875 24.097656 23.582031 24.09375 23.429688 C 23.910156 23.621094 23.65625 23.902344 23.484375 24.109375 C 23.640625 24.085938 23.785156 24.160156 23.898438 24.257812 C 24.339844 24.632812 24.765625 25.019531 25.210938 25.386719 C 25.34375 25.511719 25.414062 25.628906 25.421875 25.820312 C 25.824219 25.363281 26.578125 24.5 26.972656 24.035156 C 26.917969 24.011719 26.847656 24.003906 26.816406 23.941406 C 26.699219 23.726562 26.664062 23.59375 26.539062 23.421875 Z M 23.445312 24.160156 C 23.316406 24.324219 23.066406 24.421875 22.886719 24.5 C 22.496094 24.6875 21.945312 25.132812 21.832031 25.65625 C 21.742188 26.105469 21.839844 26.472656 22.089844 26.796875 C 22.335938 27.132812 22.644531 27.324219 23.074219 27.335938 C 23.554688 27.332031 24.066406 27.023438 24.445312 26.640625 C 24.566406 26.515625 24.722656 26.34375 24.902344 26.328125 C 24.75 26.148438 24.625 25.945312 24.457031 25.769531 C 24.351562 26.101562 23.835938 26.644531 23.484375 26.738281 C 23.179688 26.808594 22.972656 26.726562 22.746094 26.53125 C 22.496094 26.273438 22.339844 25.953125 22.445312 25.578125 C 22.597656 25.097656 23.238281 24.746094 23.640625 24.8125 C 23.566406 24.597656 23.511719 24.367188 23.445312 24.160156 Z M 23.445312 24.160156 "/>
<path style=" stroke:none;fill-rule:evenodd;fill:rgb(0%,32.54902%,62.745098%);fill-opacity:1;" d="M 16.070312 6.523438 C 16.019531 6.671875 15.984375 6.863281 15.953125 7.035156 C 15.945312 7.070312 15.925781 7.097656 15.902344 7.125 C 14.765625 8.269531 13.359375 7.933594 12.835938 9.613281 C 12.777344 9.757812 12.851562 9.90625 13.105469 10.046875 C 13.132812 10.0625 13.152344 10.054688 13.152344 10.027344 C 13.089844 8.207031 15.554688 8.328125 16.089844 7.0625 C 16.097656 7.050781 16.117188 7.054688 16.121094 7.0625 C 16.574219 7.910156 17.320312 8.019531 18.003906 8.414062 C 18.519531 8.710938 18.886719 8.976562 18.992188 9.816406 C 18.996094 9.855469 19.007812 9.847656 19.027344 9.828125 C 19.105469 9.742188 19.292969 9.699219 19.285156 9.570312 C 19.121094 8.332031 17.757812 8.066406 16.664062 7.554688 C 16.617188 7.519531 16.570312 7.488281 16.527344 7.453125 C 16.296875 7.179688 16.121094 6.875 16.070312 6.523438 Z M 16.050781 8.070312 C 16.039062 8.074219 16.03125 8.074219 16.019531 8.082031 C 16.007812 8.085938 15.996094 8.097656 15.988281 8.113281 C 15.984375 8.125 15.984375 8.160156 15.988281 8.183594 C 15.992188 8.199219 16.007812 8.207031 16.015625 8.21875 C 16.035156 8.242188 16.050781 8.253906 16.074219 8.273438 C 16.101562 8.292969 16.140625 8.265625 16.144531 8.242188 C 16.15625 8.203125 16.15625 8.160156 16.144531 8.125 C 16.144531 8.109375 16.132812 8.101562 16.125 8.089844 C 16.113281 8.078125 16.101562 8.074219 16.082031 8.070312 C 16.074219 8.070312 16.0625 8.070312 16.050781 8.070312 Z M 16.421875 8.417969 C 16.417969 8.417969 16.417969 8.417969 16.414062 8.421875 C 16.40625 8.425781 16.402344 8.4375 16.402344 8.445312 C 16.398438 8.496094 16.378906 8.570312 16.421875 8.59375 C 16.445312 8.605469 16.472656 8.609375 16.492188 8.589844 C 16.5 8.574219 16.515625 8.570312 16.515625 8.542969 C 16.515625 8.53125 16.5 8.527344 16.496094 8.515625 C 16.488281 8.492188 16.492188 8.457031 16.484375 8.445312 C 16.476562 8.433594 16.46875 8.421875 16.457031 8.421875 C 16.445312 8.417969 16.4375 8.414062 16.421875 8.417969 Z M 15.738281 8.421875 C 15.707031 8.433594 15.671875 8.460938 15.660156 8.5 C 15.644531 8.527344 15.644531 8.546875 15.660156 8.5625 C 15.675781 8.585938 15.699219 8.617188 15.726562 8.632812 C 15.753906 8.644531 15.789062 8.644531 15.800781 8.589844 C 15.8125 8.542969 15.8125 8.480469 15.792969 8.460938 C 15.765625 8.441406 15.773438 8.414062 15.738281 8.421875 Z M 16.101562 9.027344 C 15.957031 9.464844 15.917969 9.683594 15.8125 10.035156 C 16.003906 10.035156 16.109375 10.035156 16.246094 10.039062 C 16.132812 9.640625 16.128906 9.484375 16.101562 9.027344 Z M 16.101562 9.027344 "/>
<path style=" stroke:none;fill-rule:evenodd;fill:rgb(0%,32.54902%,62.745098%);fill-opacity:1;" d="M 9.382812 11.191406 C 9.375 11.191406 9.367188 11.195312 9.359375 11.203125 C 8.34375 11.917969 8.070312 13.183594 6.765625 12.972656 C 7.691406 13.40625 7.667969 14.46875 7.765625 15.457031 C 7.84375 16.289062 8.480469 17.40625 10.191406 17.175781 C 10.210938 17.171875 10.222656 17.15625 10.210938 17.140625 C 10.101562 16.984375 9.734375 17.035156 9.644531 17.019531 C 8.289062 16.765625 8.058594 15.515625 7.777344 14.105469 C 7.710938 13.699219 7.445312 13.441406 7.285156 13.132812 C 7.273438 13.101562 7.261719 13.09375 7.300781 13.085938 C 8.164062 12.921875 8.816406 12.171875 9.507812 11.375 C 9.523438 11.367188 9.527344 11.34375 9.507812 11.332031 C 9.46875 11.292969 9.433594 11.25 9.398438 11.203125 C 9.390625 11.195312 9.390625 11.191406 9.382812 11.191406 Z M 9.25 12.832031 C 9.238281 12.832031 9.226562 12.835938 9.214844 12.839844 C 9.203125 12.847656 9.191406 12.859375 9.1875 12.871094 C 9.179688 12.882812 9.183594 12.917969 9.1875 12.945312 C 9.191406 12.960938 9.207031 12.96875 9.214844 12.980469 C 9.234375 13 9.25 13.015625 9.273438 13.03125 C 9.304688 13.050781 9.335938 13.027344 9.34375 13.003906 C 9.351562 12.964844 9.351562 12.917969 9.34375 12.882812 C 9.339844 12.871094 9.332031 12.863281 9.324219 12.851562 C 9.3125 12.839844 9.300781 12.832031 9.28125 12.832031 C 9.273438 12.832031 9.261719 12.832031 9.25 12.832031 Z M 9.640625 13.1875 C 9.636719 13.1875 9.632812 13.1875 9.628906 13.191406 C 9.621094 13.195312 9.617188 13.207031 9.617188 13.214844 C 9.613281 13.265625 9.589844 13.335938 9.632812 13.363281 C 9.65625 13.375 9.683594 13.378906 9.699219 13.359375 C 9.710938 13.34375 9.726562 13.339844 9.726562 13.316406 C 9.730469 13.304688 9.714844 13.300781 9.710938 13.285156 C 9.703125 13.265625 9.707031 13.230469 9.699219 13.214844 C 9.691406 13.207031 9.6875 13.191406 9.675781 13.191406 C 9.660156 13.1875 9.652344 13.183594 9.640625 13.1875 Z M 8.953125 13.238281 C 8.917969 13.25 8.882812 13.277344 8.871094 13.320312 C 8.855469 13.34375 8.859375 13.359375 8.871094 13.375 C 8.886719 13.402344 8.914062 13.433594 8.945312 13.445312 C 8.96875 13.457031 9.003906 13.460938 9.015625 13.40625 C 9.027344 13.359375 9.023438 13.292969 9.003906 13.277344 C 8.976562 13.257812 8.984375 13.230469 8.953125 13.238281 Z M 9.351562 13.835938 C 9.296875 14.277344 9.136719 14.78125 8.980469 15.113281 C 9.164062 15.089844 9.308594 15.203125 9.320312 15.34375 C 9.367188 15.183594 9.492188 15.058594 9.640625 15.101562 C 9.542969 14.699219 9.421875 14.269531 9.351562 13.835938 Z M 9.351562 13.835938 "/>
<path style=" stroke:none;fill-rule:evenodd;fill:rgb(0%,32.54902%,62.745098%);fill-opacity:1;" d="M 10.800781 18.144531 C 10.792969 18.144531 10.785156 18.148438 10.773438 18.152344 C 9.203125 18.757812 8.890625 20.167969 9.769531 21.410156 C 10.429688 22.515625 10.71875 22.972656 10.40625 23.863281 C 11.632812 22.402344 13.808594 24.765625 15.054688 22.945312 C 15.070312 22.921875 15.042969 22.90625 15.019531 22.882812 C 14.957031 22.839844 14.894531 22.8125 14.832031 22.785156 C 14.785156 22.769531 14.761719 22.777344 14.730469 22.820312 C 14.222656 23.355469 12.566406 23.238281 11.3125 23.242188 C 11.277344 23.242188 11.160156 23.261719 11.125 23.28125 C 11.003906 23.34375 10.882812 23.398438 10.753906 23.386719 C 10.71875 23.386719 10.667969 23.367188 10.675781 23.296875 C 10.738281 22.386719 10.195312 21.808594 9.855469 21.054688 C 9.746094 20.800781 8.953125 19.363281 10.863281 18.492188 C 10.871094 18.472656 10.890625 18.464844 10.886719 18.4375 C 10.882812 18.351562 10.863281 18.261719 10.839844 18.171875 C 10.835938 18.148438 10.820312 18.140625 10.800781 18.144531 Z M 12.21875 19.878906 C 12.207031 19.878906 12.195312 19.882812 12.183594 19.886719 C 12.171875 19.894531 12.160156 19.90625 12.152344 19.917969 C 12.148438 19.929688 12.148438 19.96875 12.152344 19.992188 C 12.15625 20.007812 12.175781 20.015625 12.183594 20.027344 C 12.203125 20.046875 12.21875 20.0625 12.242188 20.078125 C 12.269531 20.097656 12.308594 20.074219 12.3125 20.050781 C 12.320312 20.011719 12.324219 19.964844 12.3125 19.929688 C 12.3125 19.917969 12.296875 19.910156 12.292969 19.898438 C 12.28125 19.886719 12.269531 19.878906 12.25 19.878906 C 12.242188 19.878906 12.230469 19.878906 12.21875 19.878906 Z M 12.613281 20.214844 C 12.609375 20.214844 12.605469 20.214844 12.601562 20.21875 C 12.59375 20.222656 12.589844 20.234375 12.589844 20.242188 C 12.585938 20.292969 12.5625 20.363281 12.605469 20.390625 C 12.628906 20.402344 12.652344 20.40625 12.671875 20.386719 C 12.679688 20.371094 12.703125 20.371094 12.703125 20.34375 C 12.703125 20.332031 12.683594 20.328125 12.679688 20.3125 C 12.671875 20.292969 12.679688 20.257812 12.671875 20.242188 C 12.664062 20.234375 12.660156 20.21875 12.644531 20.21875 C 12.632812 20.214844 12.625 20.210938 12.613281 20.214844 Z M 11.910156 20.257812 C 11.875 20.265625 11.839844 20.292969 11.828125 20.335938 C 11.8125 20.359375 11.816406 20.378906 11.828125 20.394531 C 11.847656 20.417969 11.867188 20.449219 11.898438 20.464844 C 11.925781 20.476562 11.957031 20.480469 11.96875 20.421875 C 11.980469 20.378906 11.984375 20.3125 11.960938 20.292969 C 11.933594 20.273438 11.941406 20.25 11.910156 20.257812 Z M 12.269531 20.824219 C 12.214844 21.269531 12.054688 21.773438 11.898438 22.105469 C 12.082031 22.082031 12.226562 22.191406 12.238281 22.335938 C 12.285156 22.171875 12.410156 22.050781 12.554688 22.09375 C 12.460938 21.691406 12.339844 21.261719 12.269531 20.824219 Z M 12.269531 20.824219 "/>
<path style=" stroke:none;fill-rule:evenodd;fill:rgb(0%,32.54902%,62.745098%);fill-opacity:1;" d="M 21.1875 18.140625 C 21.179688 18.140625 21.167969 18.148438 21.164062 18.160156 C 21.132812 18.234375 21.097656 18.304688 21.0625 18.375 C 21.03125 18.460938 21.027344 18.53125 21.152344 18.570312 C 23.402344 19.492188 22.296875 21.230469 21.710938 22.25 C 21.648438 22.355469 21.503906 22.664062 21.492188 22.800781 C 21.46875 22.945312 21.492188 23.074219 21.488281 23.222656 C 21.488281 23.257812 21.4375 23.269531 21.410156 23.261719 C 19.972656 22.988281 18.726562 24.257812 17.546875 22.886719 C 17.4375 22.769531 17.308594 22.757812 17.257812 22.792969 C 17.207031 22.832031 17.167969 22.875 17.132812 22.933594 C 17.105469 22.96875 17.109375 22.988281 17.136719 23.023438 C 18.363281 24.746094 20.175781 22.710938 21.734375 23.566406 C 21.371094 22.691406 22.085938 21.84375 22.492188 21.082031 C 23.398438 19.546875 22.339844 18.605469 21.195312 18.140625 C 21.191406 18.140625 21.1875 18.140625 21.1875 18.140625 Z M 19.996094 19.847656 C 19.980469 19.847656 19.972656 19.851562 19.960938 19.855469 C 19.949219 19.863281 19.9375 19.875 19.929688 19.886719 C 19.925781 19.898438 19.925781 19.9375 19.929688 19.960938 C 19.9375 19.976562 19.949219 19.984375 19.957031 19.992188 C 19.976562 20.015625 19.992188 20.027344 20.015625 20.046875 C 20.046875 20.066406 20.082031 20.042969 20.089844 20.019531 C 20.097656 19.980469 20.097656 19.933594 20.089844 19.898438 C 20.085938 19.886719 20.078125 19.878906 20.070312 19.867188 C 20.058594 19.855469 20.046875 19.847656 20.027344 19.847656 C 20.019531 19.84375 20.003906 19.84375 19.996094 19.847656 Z M 20.371094 20.191406 C 20.367188 20.191406 20.363281 20.195312 20.359375 20.195312 C 20.351562 20.203125 20.347656 20.210938 20.347656 20.222656 C 20.34375 20.269531 20.320312 20.34375 20.363281 20.367188 C 20.386719 20.378906 20.414062 20.382812 20.429688 20.363281 C 20.441406 20.347656 20.457031 20.347656 20.457031 20.320312 C 20.457031 20.308594 20.445312 20.304688 20.4375 20.289062 C 20.433594 20.269531 20.433594 20.234375 20.429688 20.222656 C 20.421875 20.210938 20.417969 20.199219 20.40625 20.195312 C 20.394531 20.195312 20.382812 20.1875 20.371094 20.191406 Z M 19.675781 20.242188 C 19.640625 20.253906 19.609375 20.28125 19.597656 20.324219 C 19.582031 20.347656 19.582031 20.367188 19.597656 20.382812 C 19.613281 20.40625 19.636719 20.4375 19.667969 20.449219 C 19.691406 20.464844 19.726562 20.464844 19.738281 20.410156 C 19.75 20.363281 19.746094 20.296875 19.726562 20.28125 C 19.699219 20.261719 19.707031 20.234375 19.675781 20.242188 Z M 20.054688 20.8125 C 20.003906 21.257812 19.839844 21.761719 19.683594 22.09375 C 19.867188 22.070312 20.015625 22.179688 20.027344 22.324219 C 20.074219 22.160156 20.195312 22.039062 20.34375 22.082031 C 20.246094 21.679688 20.128906 21.25 20.054688 20.8125 Z M 20.054688 20.8125 "/>
<path style=" stroke:none;fill-rule:evenodd;fill:rgb(0%,32.54902%,62.745098%);fill-opacity:1;" d="M 22.550781 11.167969 C 22.546875 11.171875 22.542969 11.175781 22.539062 11.179688 C 22.523438 11.199219 22.507812 11.308594 22.503906 11.382812 C 22.503906 11.394531 22.503906 11.410156 22.519531 11.417969 C 22.839844 11.613281 23.808594 12.710938 24.648438 12.902344 C 24.683594 12.910156 24.691406 12.941406 24.671875 12.960938 C 23.671875 14.136719 24.863281 15.972656 22.890625 16.671875 C 22.523438 16.773438 22.15625 16.726562 22.089844 16.96875 C 22.085938 16.976562 22.097656 16.988281 22.105469 16.988281 C 23.292969 17.0625 24.03125 16.664062 24.253906 15.816406 C 24.539062 14.871094 24 13.53125 25.015625 12.800781 C 25.039062 12.78125 25.027344 12.746094 25.003906 12.75 C 23.980469 12.851562 23.324219 11.765625 22.566406 11.171875 C 22.5625 11.167969 22.554688 11.167969 22.550781 11.167969 Z M 22.875 12.75 C 22.863281 12.75 22.851562 12.753906 22.839844 12.761719 C 22.828125 12.765625 22.816406 12.777344 22.8125 12.792969 C 22.804688 12.804688 22.808594 12.839844 22.8125 12.863281 C 22.816406 12.878906 22.828125 12.890625 22.839844 12.898438 C 22.855469 12.921875 22.871094 12.933594 22.894531 12.949219 C 22.925781 12.96875 22.960938 12.945312 22.96875 12.921875 C 22.976562 12.882812 22.976562 12.839844 22.96875 12.804688 C 22.964844 12.792969 22.957031 12.78125 22.949219 12.769531 C 22.9375 12.757812 22.925781 12.75 22.90625 12.75 C 22.898438 12.75 22.886719 12.746094 22.875 12.75 Z M 23.222656 13.132812 C 23.21875 13.136719 23.214844 13.136719 23.210938 13.140625 C 23.203125 13.144531 23.199219 13.152344 23.199219 13.164062 C 23.199219 13.214844 23.175781 13.285156 23.21875 13.3125 C 23.238281 13.324219 23.265625 13.324219 23.285156 13.304688 C 23.292969 13.292969 23.3125 13.289062 23.3125 13.265625 C 23.3125 13.25 23.296875 13.25 23.292969 13.234375 C 23.285156 13.214844 23.289062 13.179688 23.28125 13.164062 C 23.277344 13.152344 23.269531 13.140625 23.257812 13.140625 C 23.246094 13.136719 23.234375 13.132812 23.222656 13.132812 Z M 22.507812 13.140625 C 22.476562 13.148438 22.445312 13.175781 22.433594 13.21875 C 22.417969 13.242188 22.417969 13.261719 22.433594 13.277344 C 22.449219 13.300781 22.472656 13.332031 22.5 13.347656 C 22.527344 13.359375 22.558594 13.359375 22.570312 13.304688 C 22.582031 13.261719 22.582031 13.195312 22.5625 13.179688 C 22.535156 13.160156 22.542969 13.128906 22.507812 13.140625 Z M 22.894531 13.703125 C 22.839844 14.144531 22.679688 14.652344 22.519531 14.984375 C 22.703125 14.960938 22.851562 15.070312 22.863281 15.214844 C 22.910156 15.050781 23.035156 14.925781 23.179688 14.972656 C 23.085938 14.570312 22.964844 14.136719 22.894531 13.703125 Z M 22.894531 13.703125 "/>
<path style=" stroke:none;fill-rule:evenodd;fill:rgb(0%,32.54902%,62.745098%);fill-opacity:1;" d="M 21.871094 8.429688 C 21.867188 8.429688 21.863281 8.429688 21.859375 8.433594 C 20.949219 8.6875 19.722656 9.738281 18.710938 10.65625 C 18.683594 10.691406 18.640625 10.699219 18.609375 10.6875 C 17.9375 10.464844 17.15625 10.4375 16.503906 10.417969 C 15.574219 10.332031 14.457031 10.445312 13.457031 10.769531 C 13.414062 10.785156 13.382812 10.746094 13.351562 10.707031 C 12.5625 9.828125 11.445312 9.109375 10.242188 8.605469 C 10.210938 8.589844 10.183594 8.574219 10.144531 8.609375 C 9.527344 9.179688 9.660156 10.867188 10.191406 11.78125 C 10.253906 11.914062 10.269531 12.148438 10.269531 12.226562 C 10.308594 12.71875 10.402344 13.144531 10.53125 13.601562 C 10.5625 13.886719 10.671875 14.175781 10.835938 14.421875 C 10.867188 14.460938 10.855469 14.496094 10.832031 14.519531 C 10.621094 14.730469 10.429688 14.929688 10.222656 15.140625 C 10.207031 15.152344 10.175781 15.164062 10.148438 15.167969 C 9.976562 15.1875 9.921875 15.246094 9.839844 15.445312 C 9.828125 15.476562 9.828125 15.496094 9.84375 15.519531 C 9.875 15.574219 10.074219 15.921875 10.242188 16.109375 C 10.402344 16.269531 10.34375 16.417969 10.207031 16.5625 C 10.460938 16.753906 10.921875 17.121094 10.949219 17.179688 C 10.976562 17.328125 11.238281 17.375 11.082031 17.589844 C 11.125 17.597656 11.148438 17.613281 11.179688 17.640625 C 11.203125 17.664062 11.210938 17.6875 11.210938 17.714844 C 11.234375 17.945312 11.277344 18.152344 11.402344 18.375 C 11.921875 19.253906 12.507812 19.121094 13.199219 19.871094 C 13.613281 20.320312 14.023438 20.339844 14.304688 21.132812 C 14.277344 21.4375 14.261719 21.621094 14.386719 21.882812 C 14.535156 22.199219 14.894531 22.210938 15.359375 22.421875 C 15.421875 22.449219 15.457031 22.464844 15.503906 22.515625 C 15.625 22.632812 15.765625 22.707031 15.921875 22.785156 C 16.050781 22.839844 16.203125 22.839844 16.320312 22.777344 C 16.546875 22.652344 16.59375 22.742188 17.007812 22.445312 C 17.398438 22.332031 18.035156 21.851562 17.964844 21.03125 C 17.96875 21.007812 17.972656 20.992188 17.980469 20.972656 C 17.992188 20.933594 18.027344 20.894531 18.0625 20.859375 C 18.21875 20.671875 18.398438 20.503906 18.507812 20.277344 C 18.53125 20.222656 18.550781 20.167969 18.601562 20.125 C 20.160156 18.855469 19.609375 19.414062 20.171875 18.980469 C 21.328125 18.101562 20.570312 17.078125 21.921875 16.503906 C 21.738281 16.117188 21.800781 16.082031 22.394531 15.253906 C 22.082031 15.085938 21.863281 14.894531 21.644531 14.742188 C 20.957031 14.207031 21.582031 13.75 21.636719 13.484375 C 21.675781 13.335938 21.734375 13.148438 21.75 12.957031 C 21.820312 12.515625 21.78125 11.996094 22.007812 11.765625 C 22.171875 11.605469 22.21875 10.730469 22.246094 10.660156 C 22.425781 10.085938 22.359375 10.011719 22.394531 9.652344 C 22.398438 9.601562 22.417969 9.566406 22.394531 9.511719 C 22.265625 9.164062 22.113281 8.824219 21.933594 8.492188 C 21.917969 8.460938 21.90625 8.433594 21.882812 8.429688 C 21.878906 8.429688 21.875 8.429688 21.871094 8.429688 Z M 21.332031 9.773438 C 21.257812 10.492188 20.996094 10.96875 21.078125 11.570312 C 20.773438 11.941406 20.875 12.640625 20.597656 13.058594 C 20.578125 13.082031 20.554688 13.097656 20.523438 13.09375 C 20.152344 13.03125 19.890625 12.5625 19.574219 12.296875 C 19.542969 12.273438 19.527344 12.25 19.535156 12.222656 C 19.664062 11.9375 19.960938 11.648438 19.730469 11.359375 C 19.742188 10.523438 20.738281 10.390625 21.332031 9.773438 Z M 10.613281 9.910156 C 11.199219 10.238281 11.570312 10.789062 11.859375 10.796875 C 11.902344 10.867188 11.96875 10.9375 12.019531 10.996094 C 12.453125 11.484375 12.109375 11.667969 12.488281 12.292969 C 12.53125 12.382812 12.546875 12.46875 12.488281 12.519531 C 12.234375 12.742188 12.011719 12.964844 11.800781 13.207031 C 11.523438 13.542969 11.386719 13.417969 11.304688 13.207031 C 11.253906 13.046875 11.199219 12.871094 11.273438 12.6875 C 11.316406 12.589844 11.289062 12.507812 11.214844 12.410156 C 11.113281 12.269531 11.03125 12.121094 10.953125 11.972656 C 10.921875 11.914062 10.90625 11.867188 10.894531 11.796875 C 10.792969 11.175781 10.8125 10.25 10.613281 9.910156 Z M 17.875 16.042969 C 17.917969 16.035156 17.957031 16.066406 17.960938 16.109375 C 17.964844 16.152344 17.933594 16.191406 17.890625 16.195312 C 17.847656 16.199219 17.8125 16.167969 17.804688 16.125 C 17.800781 16.082031 17.835938 16.046875 17.875 16.042969 Z M 13.882812 16.046875 C 13.925781 16.042969 13.964844 16.074219 13.96875 16.117188 C 13.972656 16.160156 13.941406 16.195312 13.898438 16.203125 C 13.855469 16.207031 13.816406 16.175781 13.8125 16.132812 C 13.808594 16.089844 13.839844 16.054688 13.882812 16.046875 Z M 20.316406 17.785156 C 20.378906 17.785156 20.398438 17.847656 20.390625 17.90625 C 20.324219 18.753906 19.929688 18.519531 19.027344 19.324219 C 18.789062 19.511719 18.867188 19.695312 18.550781 19.964844 C 18.28125 20.214844 18.035156 20.472656 17.804688 20.796875 C 17.769531 20.851562 17.742188 20.792969 17.738281 20.769531 C 17.726562 20.703125 17.6875 20.625 17.632812 20.5625 C 17.480469 20.394531 17.71875 20.417969 17.453125 20.015625 C 17.339844 19.851562 17.210938 20.0625 17.132812 19.796875 C 17.085938 19.625 17.132812 19.710938 17.070312 19.3125 L 17.230469 19.183594 C 17.304688 19.394531 17.40625 19.570312 17.519531 19.71875 C 17.539062 19.738281 17.507812 19.917969 17.578125 20.074219 C 17.589844 19.828125 17.8125 19.683594 17.496094 19.238281 C 17.457031 19.179688 17.433594 19.125 17.417969 19.054688 C 17.417969 19.050781 17.414062 19.042969 17.414062 19.035156 C 18.011719 18.648438 18.683594 18.332031 19.3125 18.066406 C 19.28125 18.105469 19.25 18.140625 19.21875 18.179688 C 19.203125 18.195312 19.234375 18.203125 19.242188 18.199219 C 19.28125 18.1875 19.296875 18.191406 19.328125 18.199219 C 19.347656 18.210938 19.347656 18.230469 19.347656 18.25 C 19.351562 18.324219 19.292969 18.328125 19.308594 18.410156 C 19.414062 18.277344 19.511719 18.148438 19.617188 18.027344 C 19.644531 17.996094 19.675781 17.957031 19.726562 17.964844 L 19.839844 17.980469 C 19.878906 17.980469 19.917969 17.972656 19.960938 17.960938 C 20.0625 17.921875 20.140625 17.871094 20.234375 17.804688 C 20.269531 17.789062 20.292969 17.785156 20.316406 17.785156 Z M 11.820312 17.921875 C 11.824219 17.921875 11.832031 17.925781 11.835938 17.925781 C 12.136719 18.078125 12.546875 18.171875 12.753906 18.257812 C 12.863281 18.308594 12.980469 18.386719 13.066406 18.398438 C 13.101562 18.402344 13.101562 18.382812 13.082031 18.363281 C 13.0625 18.324219 13.039062 18.292969 13.015625 18.261719 C 13.53125 18.5 14.007812 18.777344 14.515625 19.113281 C 14.511719 19.117188 14.511719 19.121094 14.507812 19.125 C 14.496094 19.167969 14.480469 19.207031 14.464844 19.242188 C 14.457031 19.261719 14.449219 19.285156 14.441406 19.300781 C 14.433594 19.316406 14.425781 19.332031 14.421875 19.347656 C 14.410156 19.371094 14.398438 19.398438 14.386719 19.421875 C 14.371094 19.449219 14.355469 19.480469 14.34375 19.507812 C 14.339844 19.515625 14.335938 19.523438 14.332031 19.535156 C 14.324219 19.550781 14.316406 19.570312 14.308594 19.585938 C 14.304688 19.597656 14.300781 19.609375 14.296875 19.621094 C 14.296875 19.625 14.296875 19.632812 14.292969 19.640625 C 14.289062 19.65625 14.289062 19.671875 14.289062 19.6875 C 14.289062 19.703125 14.289062 19.722656 14.289062 19.738281 C 14.289062 19.757812 14.289062 19.777344 14.292969 19.796875 C 14.300781 19.847656 14.316406 19.867188 14.332031 19.875 C 14.335938 19.875 14.34375 19.878906 14.347656 19.878906 C 14.359375 19.882812 14.382812 19.886719 14.390625 19.867188 C 14.398438 19.847656 14.40625 19.832031 14.414062 19.8125 C 14.421875 19.796875 14.429688 19.78125 14.4375 19.761719 C 14.457031 19.730469 14.480469 19.695312 14.5 19.664062 C 14.507812 19.65625 14.511719 19.648438 14.515625 19.640625 C 14.558594 19.582031 14.601562 19.527344 14.644531 19.472656 C 14.648438 19.464844 14.648438 19.460938 14.652344 19.457031 C 14.671875 19.433594 14.6875 19.40625 14.703125 19.382812 C 14.707031 19.371094 14.714844 19.363281 14.71875 19.355469 C 14.734375 19.328125 14.746094 19.304688 14.757812 19.277344 L 15.082031 19.519531 C 15.027344 19.648438 14.960938 19.828125 14.9375 19.953125 C 14.902344 20.238281 14.726562 20.175781 14.597656 20.066406 C 14.605469 20.359375 14.625 20.484375 14.464844 20.742188 C 14.441406 20.777344 14.421875 20.765625 14.410156 20.742188 C 14.015625 19.980469 13.632812 20.160156 13.132812 19.351562 C 13.089844 19.234375 13.003906 19.121094 12.839844 19.0625 C 12.226562 18.820312 11.785156 18.652344 11.800781 17.945312 C 11.800781 17.933594 11.808594 17.921875 11.820312 17.921875 Z M 17.246094 20.460938 C 17.273438 20.464844 17.292969 20.484375 17.304688 20.511719 C 17.425781 20.792969 17.582031 21.285156 17.53125 21.445312 C 17.347656 22.144531 16.855469 22.257812 16.398438 22.199219 C 16.054688 22.152344 16.054688 22.074219 16.046875 21.84375 C 16.050781 21.820312 16.082031 21.808594 16.113281 21.800781 C 16.527344 21.671875 16.777344 21.445312 16.785156 21.015625 C 16.789062 20.957031 16.796875 20.894531 16.765625 20.839844 C 16.882812 20.765625 16.988281 20.691406 17.09375 20.59375 C 17.097656 20.589844 17.101562 20.585938 17.101562 20.582031 C 17.136719 20.535156 17.171875 20.492188 17.222656 20.464844 C 17.230469 20.464844 17.238281 20.460938 17.246094 20.460938 Z M 14.941406 20.515625 C 14.953125 20.511719 14.96875 20.515625 14.980469 20.535156 C 14.992188 20.546875 15.007812 20.582031 15.039062 20.582031 C 15.09375 20.652344 15.171875 20.710938 15.246094 20.765625 C 15.222656 20.789062 15.210938 20.8125 15.199219 20.839844 C 15.179688 20.90625 15.183594 21.019531 15.199219 21.125 C 15.210938 21.183594 15.230469 21.238281 15.261719 21.289062 C 15.410156 21.523438 15.515625 21.628906 15.6875 21.742188 C 15.757812 21.785156 15.832031 21.824219 15.921875 21.8125 C 15.949219 21.8125 15.960938 21.828125 15.957031 21.847656 C 15.933594 22.191406 15.777344 22.214844 15.382812 22.167969 C 14.507812 21.992188 14.429688 21.421875 14.902344 20.5625 C 14.914062 20.535156 14.929688 20.519531 14.941406 20.515625 Z M 16.074219 22.371094 C 16.195312 22.367188 16.324219 22.371094 16.449219 22.386719 C 16.46875 22.390625 16.46875 22.410156 16.464844 22.421875 C 16.445312 22.46875 16.394531 22.527344 16.367188 22.550781 C 16.347656 22.566406 16.324219 22.570312 16.300781 22.578125 C 16.207031 22.601562 16.058594 22.613281 16.035156 22.609375 C 16.011719 22.605469 15.988281 22.59375 15.964844 22.582031 C 15.882812 22.535156 15.808594 22.480469 15.726562 22.433594 C 15.707031 22.417969 15.707031 22.398438 15.726562 22.394531 C 15.835938 22.382812 15.953125 22.375 16.074219 22.371094 Z M 16.074219 22.371094 "/>
<path style=" stroke:none;fill-rule:evenodd;fill:rgb(99.215686%,74.509804%,6.666667%);fill-opacity:1;" d="M 21.773438 9.0625 C 21.769531 9.0625 21.765625 9.066406 21.757812 9.066406 C 20.765625 9.425781 19.535156 10.144531 18.894531 11.097656 C 18.636719 11.308594 18.371094 11.511719 18.097656 11.6875 C 18.667969 10.929688 17.527344 10.878906 16.15625 10.730469 C 15.214844 10.648438 14.085938 10.945312 13.722656 11.144531 C 13.6875 11.164062 13.667969 11.203125 13.695312 11.238281 C 13.796875 11.382812 13.828125 11.554688 13.886719 11.714844 C 13.898438 11.730469 13.878906 11.734375 13.867188 11.722656 C 12.671875 10.652344 10.886719 9.210938 10.292969 9.070312 C 10.265625 9.0625 10.242188 9.074219 10.226562 9.097656 C 10.183594 9.1875 10.175781 9.214844 10.140625 9.300781 C 10.117188 9.378906 10.074219 9.425781 10.054688 9.449219 C 9.714844 9.78125 10.308594 10.40625 10.398438 11.550781 C 10.457031 12.035156 10.574219 12.25 10.6875 12.582031 C 10.703125 12.628906 10.714844 12.667969 10.722656 12.710938 C 10.875 13.246094 10.976562 13.789062 11.179688 14.28125 C 11.425781 15.074219 10.46875 14.945312 10.429688 15.601562 C 10.40625 16.046875 10.929688 16.292969 10.839844 16.617188 C 10.835938 16.640625 10.796875 16.660156 10.820312 16.6875 C 11.222656 17.105469 11.378906 17.007812 11.542969 17.355469 C 11.917969 18.019531 12.332031 17.292969 13.015625 18.261719 C 13.53125 18.5 14.007812 18.777344 14.515625 19.113281 C 14.550781 19 14.582031 18.859375 14.613281 18.675781 C 14.675781 18.316406 14.664062 17.953125 14.433594 17.449219 C 14.390625 17.375 14.417969 17.25 14.492188 17.191406 C 14.527344 17.164062 14.546875 17.152344 14.550781 17.210938 C 14.613281 17.878906 15.160156 18.332031 14.824219 18.964844 C 14.8125 18.988281 14.796875 19.007812 14.800781 19.042969 C 14.808594 19.128906 14.789062 19.207031 14.757812 19.277344 L 15.082031 19.519531 C 15.101562 19.464844 15.121094 19.421875 15.132812 19.390625 C 15.277344 18.648438 15.390625 17.449219 15.5 17.300781 C 15.507812 17.285156 15.519531 17.261719 15.5 17.246094 C 15.375 17.117188 15.230469 16.902344 15.296875 16.835938 C 15.367188 16.785156 15.765625 16.945312 15.761719 17.238281 C 15.746094 17.496094 15.492188 19.902344 15.175781 20.242188 C 15.160156 20.261719 15.167969 20.273438 15.175781 20.285156 C 15.316406 20.480469 15.285156 20.53125 15.238281 20.554688 C 15.191406 20.570312 15.101562 20.5625 15.058594 20.578125 C 15.050781 20.582031 15.042969 20.582031 15.039062 20.582031 C 15.09375 20.652344 15.171875 20.710938 15.246094 20.765625 C 15.289062 20.722656 15.363281 20.691406 15.480469 20.675781 C 15.925781 20.597656 16.351562 20.609375 16.679688 20.761719 C 16.722656 20.785156 16.75 20.8125 16.765625 20.839844 C 16.882812 20.765625 16.988281 20.691406 17.09375 20.59375 C 17.0625 20.617188 17 20.59375 16.988281 20.542969 C 16.808594 19.566406 16.617188 19.417969 16.507812 18.679688 C 16.460938 18.433594 16.4375 18.171875 16.484375 17.929688 C 16.5 17.851562 16.507812 17.78125 16.484375 17.699219 C 16.421875 17.457031 16.425781 17.207031 16.480469 16.96875 C 16.515625 16.886719 16.609375 16.78125 16.675781 16.691406 C 16.730469 16.617188 16.769531 16.535156 16.800781 16.441406 C 16.832031 16.347656 17.140625 15.882812 17.40625 15.8125 C 17.429688 15.804688 17.429688 15.792969 17.433594 15.769531 C 17.4375 15.746094 17.394531 15.746094 17.398438 15.710938 C 17.40625 15.527344 18.5625 15.625 19.171875 15.683594 C 19.402344 15.664062 19.636719 15.625 19.855469 15.585938 C 19.890625 15.578125 19.894531 15.59375 19.871094 15.617188 C 19.691406 15.816406 19.429688 15.925781 19.191406 15.957031 C 19.148438 15.964844 19.132812 15.988281 19.125 16.019531 C 18.992188 16.699219 18.007812 17.027344 17.582031 16.949219 C 17.554688 16.945312 17.554688 16.964844 17.554688 16.976562 C 17.585938 17.324219 17.4375 17.359375 17.304688 18.375 C 17.296875 18.433594 17.300781 18.484375 17.308594 18.542969 C 17.328125 18.707031 17.378906 18.863281 17.414062 19.035156 C 18.011719 18.648438 18.683594 18.332031 19.3125 18.066406 C 19.441406 17.925781 19.570312 17.792969 19.699219 17.644531 C 19.738281 17.597656 19.808594 17.566406 19.875 17.542969 C 20.378906 17.332031 20.890625 17.003906 21.273438 16.589844 C 21.28125 16.574219 21.304688 16.550781 21.296875 16.527344 C 21.183594 15.980469 21.542969 15.820312 21.769531 15.414062 C 21.800781 15.359375 21.765625 15.347656 21.730469 15.328125 C 21.480469 15.171875 21.253906 14.953125 21.078125 14.75 C 21.039062 14.691406 21.019531 14.613281 21.007812 14.546875 C 20.824219 13.699219 21.199219 13.636719 21.265625 13.144531 C 21.261719 12.902344 21.328125 12.613281 21.402344 12.363281 C 21.492188 12.066406 21.535156 11.828125 21.640625 11.660156 C 21.691406 10.183594 22.148438 10.519531 22.023438 9.730469 C 21.992188 9.574219 21.90625 9.289062 21.808594 9.089844 C 21.800781 9.074219 21.789062 9.066406 21.773438 9.0625 Z M 21.492188 9.351562 C 21.5 9.351562 21.507812 9.351562 21.515625 9.351562 C 21.570312 9.355469 21.609375 9.394531 21.617188 9.445312 C 21.625 9.539062 21.648438 9.628906 21.664062 9.714844 C 21.324219 10.53125 21.523438 11.652344 21.078125 12.339844 C 21.054688 12.941406 20.980469 13.324219 20.621094 13.5625 C 20.605469 13.574219 20.589844 13.574219 20.574219 13.5625 C 20.003906 13.285156 19.492188 12.703125 18.996094 12.25 C 19.769531 11.746094 19.070312 11.214844 19.621094 10.636719 C 20.261719 9.957031 20.828125 9.890625 21.417969 9.386719 C 21.441406 9.363281 21.464844 9.355469 21.492188 9.351562 Z M 10.390625 9.394531 C 10.460938 9.394531 10.542969 9.433594 10.601562 9.488281 C 11.171875 9.738281 11.121094 9.96875 11.570312 10.191406 C 11.664062 10.242188 11.828125 10.332031 11.953125 10.359375 C 12.007812 10.558594 12.105469 10.554688 12.3125 10.910156 C 12.363281 11 12.550781 11.144531 12.566406 11.265625 C 12.578125 11.339844 12.578125 11.40625 12.570312 11.476562 C 12.566406 11.679688 12.480469 11.875 12.59375 11.964844 C 12.6875 12.011719 12.625 12.058594 12.792969 12.144531 C 12.875 12.183594 12.917969 12.226562 12.875 12.3125 C 12.742188 12.546875 12.578125 12.738281 12.429688 12.953125 C 12.390625 13 12.335938 13.039062 12.277344 13.074219 C 11.953125 13.269531 11.6875 13.539062 11.394531 13.796875 C 11.378906 13.808594 11.371094 13.796875 11.355469 13.792969 C 11.078125 13.632812 11.003906 13.359375 10.96875 12.984375 C 10.871094 11.980469 10.671875 12.847656 10.332031 9.867188 C 10.289062 9.730469 10.238281 9.492188 10.28125 9.4375 C 10.308594 9.40625 10.347656 9.394531 10.390625 9.394531 Z M 16.921875 11.335938 C 16.667969 11.8125 16.535156 11.769531 16.382812 11.953125 C 16.371094 11.96875 16.359375 11.984375 16.347656 12 C 16.335938 12.015625 16.324219 12.03125 16.3125 12.050781 C 16.300781 12.070312 16.289062 12.085938 16.285156 12.105469 C 16.28125 12.121094 16.28125 12.140625 16.277344 12.152344 C 16.285156 12.308594 16.261719 12.371094 16.300781 12.425781 C 16.304688 12.425781 16.304688 12.433594 16.304688 12.4375 C 16.308594 12.441406 16.308594 12.445312 16.308594 12.449219 C 16.308594 12.460938 16.308594 12.472656 16.304688 12.480469 C 16.273438 12.460938 16.230469 12.425781 16.191406 12.390625 C 16.160156 12.367188 16.136719 12.339844 16.125 12.320312 C 16.125 12.316406 16.125 12.316406 16.125 12.316406 C 16.121094 12.308594 16.121094 12.300781 16.121094 12.296875 C 16.121094 12.28125 16.121094 12.269531 16.117188 12.261719 C 16.113281 12.226562 16.105469 12.230469 16.097656 12.191406 C 16.09375 12.171875 16.085938 12.140625 16.085938 12.085938 C 16.085938 12.058594 16.085938 12.027344 16.085938 11.984375 C 16.082031 11.960938 16.085938 11.949219 16.089844 11.9375 C 16.09375 11.929688 16.097656 11.925781 16.101562 11.921875 C 16.105469 11.917969 16.109375 11.910156 16.113281 11.90625 C 16.347656 11.667969 16.652344 11.511719 16.921875 11.335938 Z M 15.074219 11.394531 C 15.316406 11.558594 15.589844 11.78125 15.855469 12 C 15.863281 12.007812 15.867188 12.015625 15.871094 12.019531 C 15.886719 12.042969 15.898438 12.070312 15.890625 12.105469 C 15.875 12.207031 15.828125 12.304688 15.789062 12.40625 C 15.789062 12.410156 15.785156 12.414062 15.78125 12.417969 C 15.777344 12.417969 15.777344 12.421875 15.773438 12.425781 C 15.761719 12.425781 15.753906 12.425781 15.75 12.421875 C 15.703125 12.359375 15.648438 12.296875 15.605469 12.238281 C 15.589844 12.21875 15.578125 12.195312 15.578125 12.171875 C 15.578125 12.152344 15.578125 12.128906 15.578125 12.113281 C 15.578125 12.097656 15.578125 12.082031 15.578125 12.066406 C 15.574219 12.039062 15.5625 12.011719 15.550781 11.992188 C 15.527344 11.949219 15.480469 11.925781 15.410156 11.910156 C 15.355469 11.890625 15.304688 11.867188 15.261719 11.835938 C 15.261719 11.835938 15.257812 11.835938 15.257812 11.835938 C 15.195312 11.792969 15.152344 11.730469 15.121094 11.660156 C 15.121094 11.660156 15.117188 11.65625 15.117188 11.65625 C 15.089844 11.582031 15.074219 11.496094 15.074219 11.394531 Z M 18.292969 13.734375 C 18.355469 13.730469 18.425781 13.738281 18.492188 13.753906 C 18.5625 13.769531 18.628906 13.792969 18.6875 13.824219 C 18.703125 13.835938 18.707031 13.855469 18.6875 13.863281 C 18.59375 13.890625 18.496094 13.921875 18.394531 13.960938 C 18.347656 13.980469 18.300781 14.003906 18.25 14.023438 C 18 14.132812 17.746094 14.269531 17.496094 14.398438 C 17.46875 14.40625 17.453125 14.402344 17.441406 14.386719 C 17.4375 14.382812 17.433594 14.378906 17.429688 14.367188 C 17.425781 14.339844 17.425781 14.316406 17.429688 14.289062 C 17.429688 14.261719 17.4375 14.238281 17.4375 14.207031 C 17.4375 14.171875 17.460938 14.167969 17.476562 14.148438 C 17.523438 14.128906 17.5625 14.113281 17.597656 14.097656 C 17.695312 14.054688 17.734375 14.019531 17.769531 13.992188 C 17.792969 13.972656 17.8125 13.953125 17.839844 13.929688 C 17.871094 13.910156 17.910156 13.882812 17.972656 13.855469 C 18.011719 13.835938 18.050781 13.820312 18.089844 13.804688 C 18.125 13.789062 18.164062 13.773438 18.203125 13.757812 C 18.230469 13.742188 18.261719 13.734375 18.292969 13.734375 Z M 13.414062 13.785156 C 13.417969 13.785156 13.425781 13.789062 13.429688 13.785156 C 13.445312 13.792969 13.457031 13.796875 13.46875 13.804688 C 13.480469 13.808594 13.488281 13.816406 13.496094 13.824219 C 13.527344 13.847656 13.539062 13.878906 13.613281 13.914062 C 13.632812 13.921875 13.65625 13.933594 13.683594 13.945312 C 13.710938 13.953125 13.746094 13.960938 13.785156 13.972656 C 13.878906 14.003906 13.945312 14.023438 14.007812 14.046875 C 14.011719 14.046875 14.011719 14.046875 14.011719 14.046875 C 14.074219 14.074219 14.132812 14.105469 14.207031 14.15625 C 14.234375 14.175781 14.261719 14.195312 14.292969 14.21875 C 14.320312 14.242188 14.355469 14.269531 14.390625 14.300781 C 14.40625 14.3125 14.421875 14.320312 14.421875 14.34375 C 14.425781 14.351562 14.421875 14.359375 14.421875 14.367188 C 14.417969 14.375 14.414062 14.382812 14.410156 14.390625 C 14.402344 14.410156 14.390625 14.421875 14.375 14.433594 C 14.371094 14.4375 14.367188 14.441406 14.363281 14.441406 C 14.359375 14.441406 14.355469 14.441406 14.347656 14.441406 C 14.320312 14.4375 14.304688 14.433594 14.285156 14.425781 C 14.265625 14.417969 14.25 14.410156 14.238281 14.402344 C 14.222656 14.394531 14.207031 14.386719 14.195312 14.378906 C 14.183594 14.371094 14.175781 14.359375 14.164062 14.347656 C 14.140625 14.328125 14.117188 14.304688 14.089844 14.285156 C 14.074219 14.273438 14.058594 14.261719 14.042969 14.25 C 14.023438 14.242188 14 14.230469 13.980469 14.21875 C 13.953125 14.207031 13.9375 14.207031 13.917969 14.210938 C 13.910156 14.214844 13.902344 14.214844 13.898438 14.21875 C 13.871094 14.230469 13.847656 14.21875 13.820312 14.210938 C 13.800781 14.207031 13.78125 14.199219 13.757812 14.191406 C 13.601562 14.128906 13.40625 13.976562 13.40625 13.796875 C 13.40625 13.792969 13.40625 13.789062 13.410156 13.789062 C 13.410156 13.789062 13.410156 13.785156 13.414062 13.785156 Z M 13.746094 15.527344 C 13.789062 15.527344 13.832031 15.527344 13.875 15.53125 C 13.917969 15.535156 13.960938 15.539062 14.007812 15.546875 C 14.042969 15.550781 14.078125 15.558594 14.113281 15.566406 C 14.121094 15.570312 14.132812 15.570312 14.144531 15.574219 C 14.167969 15.578125 14.1875 15.585938 14.207031 15.589844 C 14.234375 15.597656 14.261719 15.605469 14.289062 15.617188 C 14.328125 15.628906 14.367188 15.644531 14.402344 15.660156 C 14.4375 15.675781 14.472656 15.691406 14.503906 15.707031 C 14.535156 15.726562 14.570312 15.746094 14.601562 15.765625 C 14.628906 15.78125 14.65625 15.800781 14.679688 15.820312 C 14.691406 15.828125 14.707031 15.832031 14.714844 15.839844 C 14.734375 15.855469 14.753906 15.871094 14.773438 15.886719 C 14.777344 15.890625 14.78125 15.894531 14.785156 15.894531 C 14.789062 15.898438 14.792969 15.902344 14.796875 15.902344 C 14.800781 15.910156 14.808594 15.914062 14.8125 15.917969 C 14.839844 15.941406 14.863281 15.964844 14.886719 15.988281 C 14.921875 16.019531 14.949219 16.050781 14.980469 16.082031 C 14.984375 16.085938 14.984375 16.089844 14.988281 16.089844 C 15.015625 16.121094 15.042969 16.15625 15.070312 16.1875 C 15.085938 16.210938 15.101562 16.230469 15.117188 16.25 C 15.128906 16.269531 15.140625 16.285156 15.152344 16.304688 C 15.183594 16.34375 15.207031 16.386719 15.234375 16.433594 C 15.246094 16.453125 15.253906 16.476562 15.25 16.492188 C 15.25 16.5 15.25 16.503906 15.246094 16.511719 C 15.222656 16.566406 15.207031 16.617188 15.195312 16.679688 C 15.191406 16.6875 15.183594 16.695312 15.175781 16.695312 C 15.171875 16.695312 15.167969 16.695312 15.167969 16.695312 C 15.121094 16.667969 15.082031 16.640625 15.042969 16.613281 C 15.007812 16.585938 14.972656 16.558594 14.9375 16.527344 C 14.9375 16.527344 14.933594 16.527344 14.933594 16.527344 C 14.898438 16.5 14.867188 16.46875 14.832031 16.4375 C 14.539062 16.167969 14.335938 15.875 13.9375 15.792969 C 13.761719 15.757812 13.546875 15.765625 13.273438 15.839844 C 13.179688 15.847656 13.078125 15.847656 12.972656 15.839844 C 12.871094 15.835938 12.765625 15.820312 12.664062 15.800781 C 12.613281 15.792969 12.5625 15.78125 12.519531 15.769531 C 12.519531 15.769531 12.515625 15.773438 12.515625 15.769531 C 12.472656 15.761719 12.429688 15.746094 12.390625 15.738281 C 12.386719 15.734375 12.386719 15.738281 12.386719 15.738281 C 12.304688 15.710938 12.238281 15.6875 12.195312 15.664062 C 12.402344 15.667969 12.628906 15.664062 12.824219 15.65625 C 13.019531 15.648438 13.183594 15.636719 13.261719 15.617188 C 13.289062 15.605469 13.320312 15.59375 13.355469 15.582031 C 13.386719 15.574219 13.421875 15.5625 13.460938 15.554688 C 13.464844 15.554688 13.46875 15.554688 13.472656 15.554688 C 13.507812 15.546875 13.542969 15.539062 13.582031 15.535156 C 13.585938 15.535156 13.59375 15.535156 13.597656 15.535156 C 13.644531 15.527344 13.695312 15.527344 13.746094 15.527344 Z M 18.105469 15.863281 C 17.929688 15.871094 17.738281 15.9375 17.519531 16.125 C 17.191406 16.449219 16.917969 16.847656 16.707031 17.230469 C 16.679688 17.273438 16.671875 17.316406 16.683594 17.367188 C 16.921875 18.472656 17.027344 19.023438 17.070312 19.3125 L 17.230469 19.183594 C 17.132812 18.917969 17.085938 18.59375 17.117188 18.207031 C 17.230469 17.914062 17.292969 17.5625 17.34375 17.230469 C 17.515625 16.863281 17.535156 16.707031 17.699219 16.714844 C 17.851562 16.726562 18.003906 16.730469 18.144531 16.703125 C 18.199219 16.691406 18.246094 16.667969 18.292969 16.640625 C 18.53125 16.496094 18.730469 16.304688 18.902344 16.085938 C 18.925781 16.0625 18.9375 16.015625 18.925781 15.992188 C 18.917969 15.976562 18.910156 15.96875 18.886719 15.96875 C 18.640625 15.984375 18.394531 15.84375 18.105469 15.863281 Z M 18.023438 15.886719 C 18.070312 15.886719 18.117188 15.898438 18.164062 15.917969 C 18.253906 15.953125 18.324219 16.023438 18.359375 16.105469 C 18.378906 16.148438 18.386719 16.191406 18.390625 16.238281 C 18.390625 16.285156 18.382812 16.332031 18.363281 16.378906 C 18.34375 16.425781 18.320312 16.464844 18.285156 16.496094 C 18.1875 16.59375 18.035156 16.628906 17.898438 16.578125 C 17.875 16.566406 17.855469 16.558594 17.835938 16.542969 C 17.8125 16.53125 17.796875 16.515625 17.78125 16.5 C 17.683594 16.402344 17.648438 16.25 17.699219 16.113281 C 17.707031 16.09375 17.714844 16.078125 17.726562 16.0625 C 17.726562 16.0625 17.730469 16.0625 17.730469 16.058594 C 17.734375 16.050781 17.738281 16.046875 17.742188 16.039062 C 17.753906 16.027344 17.765625 16.015625 17.773438 16.003906 L 17.785156 15.992188 C 17.796875 15.980469 17.8125 15.964844 17.832031 15.953125 C 17.84375 15.941406 17.859375 15.933594 17.875 15.925781 C 17.878906 15.925781 17.882812 15.925781 17.882812 15.921875 C 17.886719 15.921875 17.890625 15.917969 17.894531 15.917969 C 17.914062 15.910156 17.933594 15.902344 17.957031 15.898438 C 17.976562 15.894531 18 15.890625 18.023438 15.886719 Z M 14.035156 15.894531 C 14.082031 15.894531 14.125 15.902344 14.171875 15.917969 C 14.195312 15.925781 14.214844 15.9375 14.238281 15.953125 C 14.257812 15.964844 14.273438 15.980469 14.289062 15.996094 C 14.304688 16.011719 14.320312 16.03125 14.335938 16.046875 C 14.359375 16.085938 14.378906 16.128906 14.390625 16.175781 C 14.402344 16.242188 14.398438 16.3125 14.371094 16.382812 C 14.363281 16.40625 14.351562 16.421875 14.339844 16.445312 C 14.285156 16.523438 14.207031 16.578125 14.117188 16.597656 C 14.070312 16.605469 14.023438 16.605469 13.980469 16.597656 C 13.957031 16.59375 13.929688 16.585938 13.910156 16.578125 C 13.886719 16.570312 13.863281 16.558594 13.84375 16.546875 C 13.804688 16.519531 13.773438 16.488281 13.746094 16.449219 C 13.683594 16.355469 13.664062 16.230469 13.710938 16.117188 C 13.71875 16.09375 13.730469 16.074219 13.742188 16.054688 C 13.753906 16.035156 13.765625 16.019531 13.78125 16.003906 C 13.785156 16 13.789062 16 13.792969 15.996094 C 13.808594 15.980469 13.820312 15.964844 13.839844 15.953125 C 13.851562 15.945312 13.867188 15.9375 13.882812 15.929688 C 13.882812 15.929688 13.886719 15.925781 13.886719 15.925781 C 13.902344 15.917969 13.917969 15.917969 13.929688 15.910156 C 13.945312 15.90625 13.960938 15.902344 13.976562 15.898438 L 13.980469 15.898438 C 14 15.894531 14.015625 15.894531 14.035156 15.894531 Z M 12.898438 16.070312 C 12.90625 16.070312 12.917969 16.070312 12.925781 16.070312 C 12.929688 16.070312 12.929688 16.070312 12.929688 16.070312 C 12.949219 16.074219 12.964844 16.078125 12.980469 16.085938 C 13 16.09375 13.019531 16.105469 13.042969 16.117188 C 13.0625 16.128906 13.085938 16.144531 13.109375 16.160156 L 13.117188 16.167969 C 13.136719 16.183594 13.15625 16.199219 13.179688 16.214844 C 13.207031 16.234375 13.230469 16.253906 13.257812 16.273438 C 13.308594 16.3125 13.363281 16.355469 13.421875 16.398438 C 13.449219 16.421875 13.480469 16.441406 13.515625 16.460938 C 13.539062 16.476562 13.5625 16.496094 13.589844 16.511719 C 13.601562 16.519531 13.613281 16.523438 13.625 16.53125 C 13.65625 16.546875 13.691406 16.566406 13.722656 16.582031 C 13.757812 16.597656 13.789062 16.613281 13.824219 16.625 C 13.835938 16.628906 13.847656 16.636719 13.859375 16.640625 C 13.894531 16.65625 13.929688 16.664062 13.96875 16.675781 C 14.011719 16.6875 14.058594 16.703125 14.105469 16.710938 C 14.152344 16.71875 14.203125 16.726562 14.253906 16.730469 C 14.304688 16.734375 14.359375 16.738281 14.414062 16.738281 C 14.425781 16.738281 14.433594 16.742188 14.4375 16.746094 C 14.445312 16.75 14.449219 16.753906 14.453125 16.765625 C 14.453125 16.851562 14.375 16.882812 14.289062 16.886719 C 14.238281 16.890625 14.1875 16.886719 14.136719 16.886719 C 13.984375 16.882812 13.835938 16.871094 13.6875 16.847656 C 13.671875 16.84375 13.65625 16.839844 13.640625 16.835938 C 13.625 16.828125 13.613281 16.820312 13.597656 16.808594 C 13.550781 16.777344 13.503906 16.742188 13.453125 16.703125 C 13.40625 16.660156 13.355469 16.621094 13.3125 16.578125 C 13.265625 16.539062 13.222656 16.5 13.183594 16.464844 C 13.148438 16.429688 13.117188 16.398438 13.097656 16.378906 C 13.074219 16.359375 13.058594 16.34375 13.042969 16.328125 C 13.03125 16.3125 13.019531 16.300781 13.007812 16.289062 C 12.988281 16.265625 12.980469 16.25 12.972656 16.238281 C 12.964844 16.230469 12.960938 16.222656 12.953125 16.214844 C 12.933594 16.195312 12.902344 16.171875 12.828125 16.132812 C 12.820312 16.128906 12.816406 16.125 12.8125 16.121094 C 12.8125 16.117188 12.8125 16.117188 12.816406 16.113281 C 12.820312 16.109375 12.820312 16.101562 12.824219 16.097656 C 12.832031 16.09375 12.84375 16.085938 12.851562 16.082031 C 12.859375 16.078125 12.867188 16.074219 12.875 16.074219 C 12.882812 16.070312 12.890625 16.070312 12.898438 16.070312 Z M 12.898438 16.070312 "/>
</g>
</svg>
