<?xml version="1.0" encoding="UTF-8"?>
<svg xmlns="http://www.w3.org/2000/svg" xmlns:xlink="http://www.w3.org/1999/xlink" width="32px" height="32px" viewBox="0 0 32 32" version="1.1">
<g id="surface1">
<path style=" stroke:none;fill-rule:nonzero;fill:rgb(0%,15.686275%,36.862745%);fill-opacity:1;" d="M 15.984375 0 C 7.171875 0 0 7.171875 0 15.984375 C 0 24.796875 7.171875 31.96875 15.984375 31.96875 C 24.796875 31.96875 31.96875 24.796875 31.96875 15.984375 C 31.960938 7.171875 24.796875 0 15.984375 0 "/>
<path style=" stroke:none;fill-rule:nonzero;fill:rgb(100%,100%,100%);fill-opacity:1;" d="M 30.296875 15.984375 C 30.296875 8.078125 23.890625 1.671875 15.976562 1.671875 C 8.070312 1.671875 1.65625 8.078125 1.65625 15.984375 C 1.65625 23.890625 8.070312 30.304688 15.976562 30.304688 C 23.890625 30.296875 30.296875 23.890625 30.296875 15.984375 "/>
<path style=" stroke:none;fill-rule:nonzero;fill:rgb(42.352941%,67.843137%,87.45098%);fill-opacity:1;" d="M 25.101562 15.984375 C 25.101562 10.949219 21.019531 6.867188 15.984375 6.867188 C 10.949219 6.867188 6.867188 10.949219 6.867188 15.984375 C 6.867188 21.019531 10.949219 25.101562 15.984375 25.101562 C 21.019531 25.101562 25.101562 21.019531 25.101562 15.984375 "/>
<path style=" stroke:none;fill-rule:nonzero;fill:rgb(0%,15.686275%,36.862745%);fill-opacity:1;" d="M 15.984375 25.820312 C 10.558594 25.820312 6.148438 21.402344 6.148438 15.976562 C 6.148438 10.550781 10.558594 6.140625 15.984375 6.140625 C 21.410156 6.140625 25.828125 10.550781 25.828125 15.976562 C 25.820312 21.410156 21.410156 25.820312 15.984375 25.820312 Z M 15.984375 6.695312 C 10.863281 6.695312 6.695312 10.863281 6.695312 15.984375 C 6.695312 21.105469 10.863281 25.273438 15.984375 25.273438 C 21.105469 25.273438 25.273438 21.105469 25.273438 15.984375 C 25.273438 10.863281 21.105469 6.695312 15.984375 6.695312 Z M 15.984375 6.695312 "/>
<path style=" stroke:none;fill-rule:nonzero;fill:rgb(42.352941%,67.843137%,87.45098%);fill-opacity:1;" d="M 15.984375 31.3125 C 7.53125 31.3125 0.65625 24.4375 0.65625 15.984375 C 0.65625 7.53125 7.53125 0.65625 15.984375 0.65625 C 24.4375 0.65625 31.3125 7.53125 31.3125 15.984375 C 31.304688 24.4375 24.4375 31.3125 15.984375 31.3125 M 15.984375 0.984375 C 7.710938 0.984375 0.992188 7.710938 0.992188 15.984375 C 0.992188 24.25 7.71875 30.976562 15.984375 30.976562 C 24.25 30.976562 30.976562 24.25 30.976562 15.984375 C 30.976562 7.710938 24.25 0.984375 15.984375 0.984375 "/>
<path style=" stroke:none;fill-rule:nonzero;fill:rgb(42.352941%,67.843137%,87.45098%);fill-opacity:1;" d="M 3.191406 15.632812 L 2.933594 15.695312 L 2.863281 15.429688 L 3.292969 15.304688 L 3.511719 15.304688 L 3.511719 16.804688 L 3.191406 16.804688 Z M 3.191406 15.632812 "/>
<path style=" stroke:none;fill-rule:nonzero;fill:rgb(42.352941%,67.843137%,87.45098%);fill-opacity:1;" d="M 3.886719 16.390625 C 3.886719 16.203125 3.972656 16.101562 4.128906 16.03125 C 4.011719 15.960938 3.941406 15.867188 3.941406 15.703125 L 3.941406 15.695312 C 3.941406 15.46875 4.152344 15.289062 4.464844 15.289062 C 4.777344 15.289062 4.988281 15.46875 4.988281 15.695312 L 4.988281 15.703125 C 4.988281 15.859375 4.917969 15.960938 4.800781 16.03125 C 4.949219 16.109375 5.042969 16.203125 5.042969 16.382812 L 5.042969 16.390625 C 5.042969 16.664062 4.800781 16.828125 4.472656 16.828125 C 4.144531 16.828125 3.886719 16.648438 3.886719 16.390625 Z M 4.714844 16.367188 C 4.714844 16.25 4.605469 16.179688 4.457031 16.179688 C 4.308594 16.179688 4.199219 16.25 4.199219 16.359375 C 4.199219 16.460938 4.292969 16.546875 4.457031 16.546875 C 4.621094 16.546875 4.714844 16.46875 4.714844 16.367188 Z M 4.675781 15.742188 C 4.675781 15.648438 4.597656 15.5625 4.464844 15.5625 C 4.332031 15.5625 4.253906 15.640625 4.253906 15.734375 L 4.253906 15.742188 C 4.253906 15.84375 4.339844 15.921875 4.464844 15.921875 C 4.589844 15.921875 4.675781 15.84375 4.675781 15.742188 Z M 4.675781 15.742188 "/>
<path style=" stroke:none;fill-rule:nonzero;fill:rgb(42.352941%,67.843137%,87.45098%);fill-opacity:1;" d="M 27.449219 16.1875 C 27.371094 16.25 27.277344 16.289062 27.144531 16.289062 C 26.824219 16.289062 26.613281 16.109375 26.613281 15.8125 L 26.613281 15.804688 C 26.613281 15.507812 26.847656 15.28125 27.183594 15.28125 C 27.386719 15.28125 27.496094 15.328125 27.613281 15.445312 C 27.722656 15.554688 27.785156 15.710938 27.785156 16.007812 L 27.785156 16.015625 C 27.785156 16.5 27.558594 16.828125 27.136719 16.828125 C 26.917969 16.828125 26.777344 16.757812 26.644531 16.648438 L 26.816406 16.398438 C 26.925781 16.484375 27.019531 16.523438 27.144531 16.523438 C 27.371094 16.523438 27.433594 16.3125 27.449219 16.1875 Z M 27.457031 15.796875 C 27.457031 15.664062 27.363281 15.5625 27.199219 15.5625 C 27.035156 15.5625 26.949219 15.65625 26.949219 15.789062 L 26.949219 15.796875 C 26.949219 15.929688 27.050781 16.023438 27.207031 16.023438 C 27.363281 16.015625 27.457031 15.921875 27.457031 15.796875 Z M 27.457031 15.796875 "/>
<path style=" stroke:none;fill-rule:nonzero;fill:rgb(42.352941%,67.843137%,87.45098%);fill-opacity:1;" d="M 28.832031 16.476562 L 28.105469 16.476562 L 28.050781 16.242188 L 28.863281 15.296875 L 29.136719 15.296875 L 29.136719 16.210938 L 29.339844 16.210938 L 29.339844 16.476562 L 29.136719 16.476562 L 29.136719 16.796875 L 28.824219 16.796875 L 28.824219 16.476562 Z M 28.832031 16.210938 L 28.832031 15.75 L 28.433594 16.210938 Z M 28.832031 16.210938 "/>
<path style=" stroke:none;fill-rule:nonzero;fill:rgb(100%,100%,100%);fill-opacity:1;" d="M 15.984375 25.273438 C 10.863281 25.273438 6.695312 21.105469 6.695312 15.984375 C 6.695312 10.863281 10.863281 6.695312 15.984375 6.695312 C 21.105469 6.695312 25.273438 10.863281 25.273438 15.984375 C 25.273438 21.105469 21.105469 25.273438 15.984375 25.273438 M 15.984375 7.039062 C 11.050781 7.039062 7.039062 11.050781 7.039062 15.984375 C 7.039062 20.917969 11.050781 24.929688 15.984375 24.929688 C 20.917969 24.929688 24.929688 20.917969 24.929688 15.984375 C 24.929688 11.050781 20.917969 7.039062 15.984375 7.039062 "/>
<path style=" stroke:none;fill-rule:evenodd;fill:rgb(0%,15.686275%,36.862745%);fill-opacity:1;" d="M 15.8125 7.984375 C 11.230469 7.984375 8.585938 8.585938 8.585938 8.585938 C 8.585938 8.585938 7.53125 12.605469 8.132812 17.75 C 8.382812 19.910156 10.136719 24.554688 15.960938 26.144531 C 21.785156 24.5625 23.539062 19.910156 23.789062 17.75 C 24.390625 12.597656 23.335938 8.585938 23.335938 8.585938 C 23.335938 8.585938 20.691406 7.984375 16.109375 7.984375 Z M 15.8125 7.984375 "/>
<path style=" stroke:none;fill-rule:evenodd;fill:rgb(59.215686%,75.686275%,90.588235%);fill-opacity:1;" d="M 22.984375 16.554688 C 22.929688 18.113281 22.6875 22.78125 15.953125 25.351562 C 9.273438 22.851562 8.921875 18.019531 8.921875 16.554688 Z M 22.984375 16.554688 "/>
<path style=" stroke:none;fill-rule:evenodd;fill:rgb(100%,100%,100%);fill-opacity:1;" d="M 22.78125 16.296875 C 22.960938 12.425781 22.304688 9.289062 22.304688 9.289062 C 22.304688 9.289062 19.792969 8.804688 15.960938 8.804688 C 12.121094 8.804688 9.570312 9.335938 9.570312 9.335938 C 9.570312 9.335938 8.875 12.488281 9.0625 16.289062 L 22.78125 16.289062 Z M 22.78125 16.296875 "/>
<path style=" stroke:none;fill-rule:nonzero;fill:rgb(42.352941%,67.843137%,87.45098%);fill-opacity:1;" d="M 16.164062 25.210938 L 9.054688 16.617188 C 8.796875 18.386719 10.230469 23.609375 16.164062 25.210938 Z M 16.164062 25.210938 "/>
<path style=" stroke:none;fill-rule:nonzero;fill:rgb(42.352941%,67.843137%,87.45098%);fill-opacity:1;" d="M 11.175781 16.5625 L 17.757812 24.5 C 18.417969 24.179688 18.910156 23.867188 19.378906 23.492188 L 13.636719 16.5625 Z M 11.175781 16.5625 "/>
<path style=" stroke:none;fill-rule:nonzero;fill:rgb(42.352941%,67.843137%,87.45098%);fill-opacity:1;" d="M 15.742188 16.570312 L 20.605469 22.429688 C 21.082031 21.894531 21.488281 21.402344 21.777344 20.886719 L 18.199219 16.570312 Z M 15.742188 16.570312 "/>
<path style=" stroke:none;fill-rule:nonzero;fill:rgb(42.352941%,67.843137%,87.45098%);fill-opacity:1;" d="M 22.867188 16.570312 L 20.441406 16.5625 L 22.476562 19.019531 C 22.828125 18.261719 22.867188 16.992188 22.867188 16.570312 Z M 22.867188 16.570312 "/>
<path style=" stroke:none;fill-rule:nonzero;fill:rgb(0%,15.686275%,36.862745%);fill-opacity:1;" d="M 18.824219 19.785156 C 18.808594 19.730469 18.761719 19.683594 18.707031 19.660156 L 18.300781 19.519531 C 18.261719 19.503906 18.230469 19.511719 18.191406 19.519531 C 18.160156 19.378906 18.082031 19.253906 17.96875 19.167969 C 17.953125 19.160156 17.9375 19.144531 17.921875 19.136719 C 17.898438 19.121094 17.867188 19.105469 17.835938 19.089844 C 17.78125 19.066406 17.726562 19.050781 17.679688 19.035156 C 17.5625 18.996094 17.445312 18.957031 17.296875 18.855469 C 17.15625 18.753906 17.09375 18.660156 17.03125 18.574219 C 17.015625 18.550781 17 18.535156 16.984375 18.511719 C 16.945312 18.449219 16.890625 18.394531 16.835938 18.347656 C 16.734375 18.277344 16.609375 18.238281 16.484375 18.238281 C 16.453125 18.238281 16.429688 18.246094 16.398438 18.246094 C 16.398438 18.246094 16.398438 18.246094 16.398438 18.238281 C 16.40625 18.191406 16.390625 18.136719 16.367188 18.097656 L 16.117188 17.765625 C 16.078125 17.71875 16.023438 17.6875 15.960938 17.6875 C 15.898438 17.6875 15.84375 17.710938 15.8125 17.757812 L 15.546875 18.089844 C 15.515625 18.128906 15.5 18.183594 15.507812 18.238281 C 15.484375 18.238281 15.46875 18.230469 15.445312 18.230469 C 15.320312 18.230469 15.195312 18.269531 15.09375 18.339844 C 15.078125 18.347656 15.0625 18.363281 15.054688 18.371094 C 15.03125 18.394531 15.007812 18.410156 14.984375 18.441406 C 14.945312 18.488281 14.914062 18.527344 14.882812 18.574219 C 14.804688 18.675781 14.742188 18.769531 14.585938 18.878906 C 14.445312 18.980469 14.335938 19.011719 14.234375 19.042969 C 14.210938 19.050781 14.1875 19.058594 14.164062 19.066406 C 14.09375 19.082031 14.023438 19.113281 13.964844 19.160156 C 13.839844 19.246094 13.761719 19.378906 13.730469 19.527344 C 13.691406 19.511719 13.644531 19.511719 13.597656 19.519531 L 13.199219 19.652344 C 13.144531 19.667969 13.097656 19.714844 13.074219 19.769531 C 13.058594 19.824219 13.066406 19.886719 13.097656 19.933594 L 13.339844 20.285156 C 13.371094 20.324219 13.410156 20.347656 13.457031 20.363281 C 13.394531 20.496094 13.378906 20.660156 13.425781 20.800781 C 13.433594 20.816406 13.441406 20.832031 13.441406 20.847656 C 13.449219 20.878906 13.464844 20.910156 13.488281 20.941406 C 13.519531 20.988281 13.550781 21.035156 13.582031 21.074219 C 13.660156 21.175781 13.730469 21.269531 13.785156 21.449219 C 13.839844 21.613281 13.832031 21.722656 13.832031 21.832031 C 13.832031 21.855469 13.832031 21.886719 13.832031 21.910156 C 13.824219 21.988281 13.832031 22.054688 13.863281 22.125 C 13.910156 22.265625 14.007812 22.382812 14.125 22.453125 C 14.109375 22.484375 14.09375 22.515625 14.101562 22.546875 L 14.101562 22.96875 C 14.101562 23.03125 14.132812 23.085938 14.179688 23.117188 C 14.226562 23.148438 14.289062 23.164062 14.34375 23.148438 L 14.757812 23.03125 C 14.796875 23.023438 14.820312 22.992188 14.84375 22.96875 C 14.96875 23.085938 15.140625 23.140625 15.304688 23.132812 C 15.335938 23.132812 15.367188 23.125 15.40625 23.117188 C 15.460938 23.101562 15.515625 23.085938 15.5625 23.070312 C 15.679688 23.03125 15.796875 22.992188 15.984375 22.992188 C 16.15625 22.992188 16.257812 23.03125 16.367188 23.0625 C 16.390625 23.070312 16.414062 23.078125 16.4375 23.085938 C 16.507812 23.117188 16.585938 23.125 16.65625 23.125 C 16.804688 23.125 16.953125 23.0625 17.0625 22.960938 C 17.085938 22.992188 17.109375 23.007812 17.148438 23.023438 L 17.554688 23.148438 C 17.609375 23.164062 17.671875 23.15625 17.726562 23.125 C 17.773438 23.09375 17.804688 23.039062 17.804688 22.976562 L 17.8125 22.554688 C 17.8125 22.523438 17.804688 22.492188 17.789062 22.460938 C 17.914062 22.390625 18.011719 22.273438 18.050781 22.132812 C 18.058594 22.117188 18.058594 22.101562 18.066406 22.078125 C 18.074219 22.046875 18.082031 22.015625 18.082031 21.980469 C 18.089844 21.925781 18.089844 21.871094 18.089844 21.816406 C 18.089844 21.691406 18.089844 21.574219 18.144531 21.394531 C 18.199219 21.230469 18.261719 21.144531 18.332031 21.058594 C 18.347656 21.035156 18.363281 21.019531 18.378906 20.996094 C 18.425781 20.941406 18.464844 20.871094 18.488281 20.800781 C 18.535156 20.652344 18.519531 20.488281 18.449219 20.347656 C 18.488281 20.332031 18.519531 20.316406 18.542969 20.285156 L 18.792969 19.941406 C 18.832031 19.902344 18.847656 19.847656 18.824219 19.785156 Z M 18.824219 19.785156 "/>
<path style=" stroke:none;fill-rule:nonzero;fill:rgb(100%,78.039216%,34.509804%);fill-opacity:1;" d="M 15.734375 20.699219 C 15.734375 20.566406 15.84375 20.464844 15.976562 20.464844 C 16.109375 20.464844 16.21875 20.574219 16.21875 20.699219 C 16.21875 20.832031 16.109375 20.933594 15.976562 20.933594 C 15.84375 20.933594 15.734375 20.824219 15.734375 20.699219 Z M 15.734375 20.699219 "/>
<path style=" stroke:none;fill-rule:nonzero;fill:rgb(93.333333%,19.215686%,14.117647%);fill-opacity:1;" d="M 15.96875 18.683594 C 15.929688 18.535156 15.835938 18.410156 15.71875 18.339844 L 15.96875 18.019531 L 16.203125 18.339844 C 16.085938 18.417969 16.007812 18.535156 15.96875 18.683594 M 14.054688 20.074219 C 13.933594 19.988281 13.847656 19.878906 13.800781 19.746094 L 13.425781 19.871094 L 13.652344 20.199219 C 13.761719 20.121094 13.910156 20.074219 14.054688 20.074219 M 14.796875 22.28125 C 14.679688 22.375 14.546875 22.421875 14.398438 22.421875 L 14.398438 22.820312 L 14.789062 22.703125 C 14.742188 22.578125 14.742188 22.429688 14.796875 22.28125 M 17.140625 22.289062 C 17.195312 22.429688 17.195312 22.570312 17.148438 22.703125 L 17.53125 22.820312 L 17.539062 22.421875 C 17.40625 22.429688 17.265625 22.382812 17.140625 22.289062 M 17.867188 20.082031 C 18.019531 20.074219 18.152344 20.113281 18.261719 20.199219 L 18.496094 19.878906 L 18.113281 19.746094 C 18.082031 19.871094 17.992188 19.996094 17.867188 20.082031 M 15.484375 22.296875 C 15.304688 22.296875 15.164062 22.15625 15.164062 21.980469 C 15.164062 21.957031 15.140625 21.949219 15.125 21.964844 C 15.007812 22.101562 14.921875 22.226562 14.914062 22.375 C 14.90625 22.59375 15.09375 22.773438 15.320312 22.773438 C 15.335938 22.773438 15.351562 22.773438 15.359375 22.773438 C 15.382812 22.773438 15.398438 22.773438 15.429688 22.765625 C 15.585938 22.726562 15.726562 22.648438 15.992188 22.648438 C 16.21875 22.648438 16.335938 22.710938 16.453125 22.742188 C 16.5 22.757812 16.554688 22.773438 16.609375 22.773438 C 16.835938 22.773438 17.015625 22.59375 17.015625 22.375 C 17.015625 22.21875 16.921875 22.101562 16.804688 21.964844 C 16.796875 21.949219 16.773438 21.964844 16.773438 21.980469 C 16.773438 22.148438 16.625 22.296875 16.453125 22.296875 C 16.320312 22.296875 16.148438 22.179688 15.976562 22.179688 C 15.828125 22.179688 15.617188 22.296875 15.484375 22.296875 Z M 15.273438 21.863281 C 15.273438 22.007812 15.390625 22.125 15.539062 22.125 C 15.554688 22.125 15.570312 22.125 15.59375 22.117188 C 15.601562 22.117188 15.609375 22.117188 15.617188 22.109375 C 15.617188 22.109375 15.625 22.109375 15.625 22.109375 C 15.71875 22.078125 15.804688 22.039062 15.96875 22.039062 C 16.132812 22.039062 16.210938 22.085938 16.304688 22.109375 C 16.335938 22.117188 16.367188 22.125 16.398438 22.125 C 16.546875 22.125 16.664062 22.007812 16.664062 21.863281 C 16.664062 21.824219 16.65625 21.785156 16.640625 21.753906 C 16.632812 21.738281 16.625 21.722656 16.617188 21.714844 C 16.617188 21.714844 16.164062 21.097656 16.148438 21.082031 C 16.125 21.050781 16.09375 21.066406 16.078125 21.074219 C 16.054688 21.082031 16 21.097656 15.960938 21.097656 C 15.921875 21.097656 15.875 21.089844 15.851562 21.074219 C 15.820312 21.058594 15.796875 21.050781 15.78125 21.082031 C 15.765625 21.105469 15.4375 21.550781 15.335938 21.691406 C 15.296875 21.738281 15.273438 21.792969 15.273438 21.863281 Z M 17.359375 21.660156 C 17.304688 21.832031 17.125 21.917969 16.953125 21.863281 C 16.929688 21.855469 16.914062 21.871094 16.929688 21.894531 C 17.03125 22.039062 17.117188 22.164062 17.265625 22.21875 C 17.476562 22.289062 17.710938 22.171875 17.773438 21.964844 C 17.78125 21.949219 17.78125 21.941406 17.78125 21.925781 C 17.789062 21.910156 17.789062 21.886719 17.796875 21.863281 C 17.8125 21.699219 17.773438 21.550781 17.859375 21.292969 C 17.929688 21.082031 18.019531 20.988281 18.089844 20.886719 C 18.121094 20.847656 18.152344 20.800781 18.167969 20.753906 C 18.238281 20.542969 18.121094 20.308594 17.914062 20.246094 C 17.765625 20.199219 17.617188 20.253906 17.445312 20.316406 C 17.429688 20.324219 17.429688 20.339844 17.453125 20.347656 C 17.625 20.402344 17.71875 20.582031 17.664062 20.753906 C 17.625 20.878906 17.460938 21.003906 17.40625 21.167969 C 17.359375 21.300781 17.40625 21.527344 17.359375 21.660156 Z M 16.875 21.722656 C 17.015625 21.769531 17.171875 21.691406 17.21875 21.550781 C 17.226562 21.535156 17.226562 21.519531 17.226562 21.496094 C 17.226562 21.488281 17.226562 21.480469 17.226562 21.472656 C 17.226562 21.472656 17.226562 21.464844 17.226562 21.464844 C 17.226562 21.371094 17.210938 21.269531 17.257812 21.121094 C 17.3125 20.964844 17.375 20.902344 17.429688 20.824219 C 17.445312 20.800781 17.460938 20.769531 17.476562 20.738281 C 17.523438 20.597656 17.445312 20.449219 17.304688 20.402344 C 17.265625 20.394531 17.226562 20.386719 17.195312 20.394531 C 17.179688 20.394531 17.164062 20.394531 17.148438 20.402344 C 17.148438 20.402344 16.414062 20.636719 16.390625 20.644531 C 16.359375 20.660156 16.359375 20.691406 16.359375 20.707031 C 16.359375 20.730469 16.351562 20.785156 16.34375 20.824219 C 16.335938 20.855469 16.3125 20.902344 16.289062 20.925781 C 16.265625 20.949219 16.25 20.972656 16.273438 20.996094 C 16.296875 21.019531 16.609375 21.464844 16.71875 21.605469 C 16.757812 21.660156 16.8125 21.699219 16.875 21.722656 Z M 17.3125 19.675781 C 17.460938 19.777344 17.492188 19.980469 17.382812 20.121094 C 17.367188 20.136719 17.382812 20.160156 17.40625 20.152344 C 17.585938 20.105469 17.726562 20.058594 17.820312 19.933594 C 17.953125 19.753906 17.914062 19.503906 17.734375 19.371094 C 17.726562 19.363281 17.710938 19.355469 17.695312 19.347656 C 17.679688 19.332031 17.664062 19.324219 17.632812 19.316406 C 17.484375 19.253906 17.328125 19.238281 17.109375 19.082031 C 16.929688 18.949219 16.867188 18.832031 16.789062 18.730469 C 16.765625 18.691406 16.726562 18.652344 16.679688 18.613281 C 16.5 18.480469 16.242188 18.519531 16.117188 18.699219 C 16.03125 18.824219 16.03125 18.980469 16.039062 19.160156 C 16.039062 19.175781 16.0625 19.183594 16.070312 19.160156 C 16.171875 19.019531 16.375 18.988281 16.523438 19.089844 C 16.632812 19.167969 16.703125 19.363281 16.84375 19.457031 C 16.96875 19.574219 17.203125 19.597656 17.3125 19.675781 Z M 17.226562 20.160156 C 17.3125 20.042969 17.289062 19.871094 17.164062 19.785156 C 17.15625 19.777344 17.140625 19.761719 17.117188 19.753906 C 17.109375 19.753906 17.101562 19.746094 17.09375 19.746094 C 17.09375 19.746094 17.085938 19.746094 17.085938 19.746094 C 16.992188 19.714844 16.898438 19.699219 16.765625 19.605469 C 16.632812 19.511719 16.59375 19.425781 16.539062 19.355469 C 16.523438 19.332031 16.5 19.308594 16.476562 19.285156 C 16.359375 19.199219 16.1875 19.222656 16.101562 19.347656 C 16.078125 19.378906 16.0625 19.410156 16.054688 19.449219 C 16.054688 19.464844 16.046875 19.480469 16.046875 19.496094 C 16.046875 19.496094 16.046875 20.261719 16.046875 20.285156 C 16.046875 20.324219 16.078125 20.324219 16.101562 20.332031 C 16.125 20.339844 16.179688 20.363281 16.203125 20.378906 C 16.234375 20.402344 16.265625 20.433594 16.28125 20.457031 C 16.296875 20.480469 16.3125 20.503906 16.34375 20.488281 C 16.375 20.472656 16.898438 20.308594 17.0625 20.253906 C 17.132812 20.246094 17.1875 20.207031 17.226562 20.160156 Z M 15.40625 19.113281 C 15.546875 19.011719 15.75 19.042969 15.859375 19.183594 C 15.875 19.199219 15.898438 19.199219 15.898438 19.175781 C 15.90625 18.996094 15.90625 18.839844 15.820312 18.714844 C 15.695312 18.535156 15.4375 18.496094 15.257812 18.628906 C 15.242188 18.636719 15.234375 18.644531 15.226562 18.652344 C 15.210938 18.660156 15.195312 18.675781 15.179688 18.699219 C 15.070312 18.824219 15.007812 18.964844 14.789062 19.121094 C 14.609375 19.253906 14.476562 19.277344 14.359375 19.308594 C 14.3125 19.324219 14.257812 19.339844 14.21875 19.371094 C 14.039062 19.503906 13.996094 19.753906 14.132812 19.933594 C 14.226562 20.058594 14.375 20.105469 14.546875 20.152344 C 14.5625 20.160156 14.570312 20.136719 14.5625 20.121094 C 14.460938 19.980469 14.492188 19.777344 14.632812 19.675781 C 14.742188 19.597656 14.945312 19.589844 15.085938 19.488281 C 15.195312 19.410156 15.296875 19.191406 15.40625 19.113281 Z M 15.84375 19.347656 C 15.757812 19.230469 15.585938 19.199219 15.46875 19.285156 C 15.453125 19.292969 15.445312 19.300781 15.429688 19.316406 C 15.421875 19.324219 15.421875 19.324219 15.414062 19.332031 C 15.414062 19.332031 15.40625 19.339844 15.40625 19.339844 C 15.351562 19.417969 15.304688 19.503906 15.171875 19.597656 C 15.039062 19.691406 14.945312 19.699219 14.859375 19.738281 C 14.828125 19.746094 14.796875 19.761719 14.773438 19.777344 C 14.65625 19.863281 14.625 20.027344 14.710938 20.152344 C 14.734375 20.183594 14.765625 20.207031 14.796875 20.222656 C 14.8125 20.230469 14.820312 20.238281 14.835938 20.238281 C 14.835938 20.238281 15.570312 20.472656 15.59375 20.480469 C 15.632812 20.488281 15.648438 20.464844 15.65625 20.449219 C 15.671875 20.433594 15.703125 20.386719 15.734375 20.363281 C 15.765625 20.339844 15.804688 20.324219 15.835938 20.316406 C 15.867188 20.308594 15.890625 20.300781 15.890625 20.269531 C 15.890625 20.238281 15.890625 19.691406 15.890625 19.519531 C 15.898438 19.464844 15.882812 19.402344 15.84375 19.347656 Z M 14.28125 20.746094 C 14.226562 20.574219 14.320312 20.394531 14.484375 20.339844 C 14.507812 20.332031 14.507812 20.308594 14.492188 20.300781 C 14.320312 20.238281 14.171875 20.183594 14.03125 20.230469 C 13.824219 20.292969 13.707031 20.527344 13.777344 20.738281 C 13.777344 20.753906 13.785156 20.761719 13.792969 20.777344 C 13.800781 20.792969 13.808594 20.816406 13.824219 20.839844 C 13.910156 20.980469 14.023438 21.082031 14.109375 21.339844 C 14.179688 21.550781 14.15625 21.683594 14.15625 21.808594 C 14.148438 21.855469 14.15625 21.910156 14.171875 21.964844 C 14.242188 22.171875 14.46875 22.289062 14.679688 22.21875 C 14.828125 22.171875 14.914062 22.046875 15.015625 21.894531 C 15.023438 21.878906 15.007812 21.863281 14.992188 21.871094 C 14.820312 21.925781 14.640625 21.832031 14.585938 21.667969 C 14.546875 21.542969 14.601562 21.347656 14.546875 21.183594 C 14.5 21.035156 14.320312 20.871094 14.28125 20.746094 Z M 14.632812 20.410156 C 14.492188 20.457031 14.414062 20.605469 14.460938 20.746094 C 14.460938 20.761719 14.46875 20.777344 14.484375 20.792969 C 14.492188 20.800781 14.492188 20.808594 14.5 20.808594 C 14.5 20.808594 14.5 20.816406 14.507812 20.816406 C 14.5625 20.894531 14.632812 20.964844 14.6875 21.113281 C 14.742188 21.269531 14.71875 21.355469 14.726562 21.449219 C 14.726562 21.480469 14.726562 21.511719 14.742188 21.542969 C 14.789062 21.683594 14.9375 21.761719 15.078125 21.714844 C 15.117188 21.707031 15.148438 21.683594 15.171875 21.660156 C 15.179688 21.652344 15.195312 21.636719 15.203125 21.628906 C 15.203125 21.628906 15.65625 21.011719 15.664062 20.988281 C 15.6875 20.957031 15.664062 20.933594 15.648438 20.917969 C 15.632812 20.902344 15.601562 20.855469 15.59375 20.816406 C 15.585938 20.785156 15.578125 20.738281 15.578125 20.707031 C 15.578125 20.675781 15.578125 20.652344 15.546875 20.644531 C 15.515625 20.636719 14.992188 20.464844 14.828125 20.410156 C 14.765625 20.394531 14.703125 20.386719 14.632812 20.410156 Z M 14.632812 20.410156 "/>
<path style=" stroke:none;fill-rule:nonzero;fill:rgb(100%,78.039216%,34.509804%);fill-opacity:1;" d="M 18.214844 12.441406 L 19.863281 11.871094 C 19.863281 11.871094 19.722656 12.558594 19.761719 13.089844 C 19.808594 13.777344 20.207031 14.296875 20.207031 14.296875 L 18.175781 15 Z M 18.214844 12.441406 "/>
<path style=" stroke:none;fill-rule:nonzero;fill:rgb(83.137255%,63.137255%,11.764706%);fill-opacity:1;" d="M 20.207031 14.296875 C 20.207031 14.296875 19.847656 13.785156 19.785156 13.183594 C 19.738281 12.730469 19.785156 12.339844 19.863281 11.871094 C 19.792969 12.183594 19.527344 13.066406 18.785156 13.886719 C 18.488281 14.210938 18.355469 14.5 18.300781 14.703125 L 18.269531 10.824219 C 18.269531 10.824219 17.882812 10.964844 17.84375 10.972656 C 17.796875 10.988281 17.773438 11.019531 17.773438 11.027344 C 17.773438 11.050781 17.757812 11.066406 17.726562 11.074219 C 17.695312 11.082031 17.46875 11.167969 17.3125 11.214844 C 17.28125 11.222656 17.296875 11.253906 17.3125 11.253906 C 17.5 11.246094 17.765625 11.222656 17.789062 11.222656 C 17.828125 11.214844 17.84375 11.199219 17.84375 11.175781 C 17.84375 11.175781 17.84375 11.175781 17.84375 11.167969 C 17.851562 11.136719 17.875 11.113281 17.90625 11.113281 C 17.929688 11.113281 18.066406 11.097656 18.152344 11.082031 L 18.113281 15.257812 L 18.300781 15.257812 L 18.300781 14.960938 Z M 20.207031 14.296875 "/>
<path style=" stroke:none;fill-rule:nonzero;fill:rgb(100%,78.039216%,34.509804%);fill-opacity:1;" d="M 12.910156 15.109375 C 12.910156 15.109375 12.605469 14.882812 12.519531 14.453125 C 12.433594 14.015625 12.652344 13.769531 12.652344 13.769531 L 14.648438 13.082031 C 14.648438 13.082031 14.523438 13.480469 14.640625 13.933594 C 14.789062 14.5 15.09375 14.882812 15.09375 14.882812 C 15.09375 14.882812 14.359375 14.742188 13.652344 14.835938 C 12.980469 14.921875 12.910156 15.109375 12.910156 15.109375 Z M 12.910156 15.109375 "/>
<path style=" stroke:none;fill-rule:nonzero;fill:rgb(100%,78.039216%,34.509804%);fill-opacity:1;" d="M 10.613281 14.609375 C 10.613281 14.609375 10.863281 13.933594 11.589844 13.191406 C 12.144531 12.628906 12.503906 12.464844 12.503906 12.464844 C 12.503906 12.464844 12.183594 12.925781 12.050781 13.683594 C 11.964844 14.148438 12.058594 14.742188 12.058594 14.742188 C 12.058594 14.742188 11.683594 14.664062 11.253906 14.617188 C 10.894531 14.578125 10.613281 14.609375 10.613281 14.609375 Z M 10.613281 14.609375 "/>
<path style=" stroke:none;fill-rule:nonzero;fill:rgb(83.137255%,63.137255%,11.764706%);fill-opacity:1;" d="M 12.503906 12.464844 C 12.503906 12.464844 12.191406 12.925781 12.058594 13.683594 C 11.972656 14.148438 12.066406 14.742188 12.066406 14.742188 C 12.066406 14.742188 11.972656 14.71875 11.753906 14.671875 C 10.863281 14.46875 12.503906 12.464844 12.503906 12.464844 Z M 12.503906 12.464844 "/>
<path style=" stroke:none;fill-rule:nonzero;fill:rgb(83.137255%,63.137255%,11.764706%);fill-opacity:1;" d="M 13.675781 13.011719 L 13.660156 11.214844 C 13.621094 11.230469 13.269531 11.347656 13.230469 11.363281 C 13.183594 11.378906 13.160156 11.410156 13.160156 11.425781 C 13.160156 11.449219 13.144531 11.464844 13.113281 11.472656 C 13.082031 11.480469 12.855469 11.558594 12.699219 11.613281 C 12.667969 11.621094 12.683594 11.652344 12.699219 11.652344 C 12.878906 11.644531 13.152344 11.621094 13.175781 11.621094 C 13.214844 11.613281 13.230469 11.597656 13.238281 11.574219 C 13.238281 11.574219 13.238281 11.574219 13.238281 11.566406 C 13.246094 11.535156 13.269531 11.511719 13.300781 11.511719 C 13.324219 11.511719 13.457031 11.496094 13.550781 11.488281 L 13.535156 13.019531 L 13.675781 13.019531 Z M 13.675781 13.011719 "/>
<path style=" stroke:none;fill-rule:nonzero;fill:rgb(83.137255%,63.137255%,11.764706%);fill-opacity:1;" d="M 16 11.386719 L 16.140625 11.386719 L 16.140625 9.664062 C 16.140625 9.664062 15.75 9.804688 15.710938 9.8125 C 15.664062 9.828125 15.640625 9.859375 15.640625 9.867188 C 15.640625 9.890625 15.625 9.90625 15.59375 9.914062 C 15.5625 9.921875 15.335938 10 15.179688 10.050781 C 15.148438 10.058594 15.164062 10.089844 15.179688 10.089844 C 15.367188 10.082031 15.632812 10.058594 15.65625 10.058594 C 15.695312 10.050781 15.710938 10.035156 15.71875 10.011719 C 15.726562 9.984375 15.75 9.960938 15.78125 9.960938 C 15.804688 9.960938 15.929688 9.945312 16.023438 9.9375 Z M 16 11.386719 "/>
<path style=" stroke:none;fill-rule:nonzero;fill:rgb(100%,78.039216%,34.509804%);fill-opacity:1;" d="M 15.648438 10.066406 C 15.648438 10.066406 15.65625 10.066406 15.65625 10.066406 C 15.695312 10.058594 15.710938 10.042969 15.710938 10.019531 C 15.710938 10 15.726562 9.984375 15.75 9.976562 L 15.703125 9.828125 C 15.65625 9.84375 15.640625 9.875 15.640625 9.882812 C 15.640625 9.90625 15.625 9.914062 15.601562 9.921875 Z M 15.648438 10.066406 "/>
<path style=" stroke:none;fill-rule:nonzero;fill:rgb(100%,78.039216%,34.509804%);fill-opacity:1;" d="M 13.167969 11.613281 C 13.167969 11.613281 13.175781 11.613281 13.175781 11.613281 C 13.214844 11.605469 13.230469 11.589844 13.230469 11.566406 C 13.238281 11.542969 13.246094 11.527344 13.269531 11.519531 L 13.222656 11.371094 C 13.175781 11.386719 13.160156 11.417969 13.160156 11.425781 C 13.160156 11.449219 13.144531 11.457031 13.121094 11.464844 Z M 13.167969 11.613281 "/>
<path style=" stroke:none;fill-rule:nonzero;fill:rgb(100%,78.039216%,34.509804%);fill-opacity:1;" d="M 17.773438 11.222656 C 17.773438 11.222656 17.78125 11.222656 17.78125 11.222656 C 17.820312 11.214844 17.835938 11.199219 17.835938 11.175781 C 17.84375 11.152344 17.851562 11.136719 17.875 11.128906 L 17.828125 10.980469 C 17.78125 10.996094 17.765625 11.027344 17.765625 11.035156 C 17.765625 11.058594 17.75 11.066406 17.726562 11.074219 Z M 17.773438 11.222656 "/>
<path style=" stroke:none;fill-rule:nonzero;fill:rgb(83.137255%,63.137255%,11.764706%);fill-opacity:1;" d="M 15.09375 14.882812 C 15.09375 14.882812 14.773438 14.414062 14.648438 13.917969 C 14.539062 13.488281 14.648438 13.082031 14.648438 13.082031 C 14.648438 13.082031 14.4375 13.816406 13.933594 14.210938 C 13.582031 14.492188 12.714844 14.75 12.917969 15.109375 C 12.949219 15.0625 13.035156 14.96875 13.386719 14.882812 C 13.425781 14.875 13.472656 14.867188 13.519531 14.859375 L 13.519531 15.453125 L 13.707031 15.453125 L 13.707031 14.835938 C 14.351562 14.765625 15.09375 14.882812 15.09375 14.882812 Z M 15.09375 14.882812 "/>
<path style=" stroke:none;fill-rule:nonzero;fill:rgb(100%,78.039216%,34.509804%);fill-opacity:1;" d="M 12.699219 13.644531 C 12.699219 13.644531 12.464844 13.503906 12.496094 13.050781 C 12.527344 12.582031 12.761719 12.378906 12.761719 12.363281 L 14.3125 11.832031 C 14.3125 11.832031 14.195312 12.066406 14.28125 12.417969 C 14.375 12.839844 14.648438 13.082031 14.648438 13.082031 C 14.648438 13.082031 13.871094 13.089844 13.167969 13.332031 C 12.824219 13.449219 12.699219 13.644531 12.699219 13.644531 Z M 12.699219 13.644531 "/>
<path style=" stroke:none;fill-rule:nonzero;fill:rgb(83.137255%,63.137255%,11.764706%);fill-opacity:1;" d="M 13.621094 12.667969 C 14.0625 12.300781 14.304688 11.832031 14.304688 11.832031 C 14.304688 11.832031 14.242188 12.128906 14.289062 12.394531 C 14.375 12.847656 14.640625 13.082031 14.640625 13.082031 C 14.640625 13.082031 14.007812 13.089844 13.332031 13.285156 C 12.878906 13.410156 12.738281 13.589844 12.699219 13.652344 C 12.550781 13.308594 13.167969 13.042969 13.621094 12.667969 Z M 13.621094 12.667969 "/>
<path style=" stroke:none;fill-rule:nonzero;fill:rgb(100%,78.039216%,34.509804%);fill-opacity:1;" d="M 15.390625 15.226562 C 15.390625 15.226562 14.960938 14.90625 14.859375 14.304688 C 14.773438 13.832031 15.09375 13.488281 15.09375 13.488281 L 17.523438 12.652344 C 17.523438 12.652344 17.390625 13.191406 17.515625 13.707031 C 17.65625 14.28125 18.183594 15 18.183594 15 C 18.183594 15 17.179688 14.710938 16.304688 14.820312 C 15.46875 14.929688 15.390625 15.226562 15.390625 15.226562 Z M 15.390625 15.226562 "/>
<path style=" stroke:none;fill-rule:nonzero;fill:rgb(100%,78.039216%,34.509804%);fill-opacity:1;" d="M 14.898438 11.378906 C 14.882812 11.011719 15.140625 10.714844 15.148438 10.699219 L 16.890625 10.089844 C 16.890625 10.089844 16.773438 10.363281 16.804688 10.597656 C 16.859375 11.042969 17.109375 11.277344 17.109375 11.277344 C 17.109375 11.277344 16.421875 11.238281 15.617188 11.519531 C 15.171875 11.675781 15.125 11.886719 15.125 11.886719 C 15.125 11.886719 14.914062 11.832031 14.898438 11.378906 Z M 14.898438 11.378906 "/>
<path style=" stroke:none;fill-rule:nonzero;fill:rgb(83.137255%,63.137255%,11.764706%);fill-opacity:1;" d="M 16.273438 10.910156 C 16.585938 10.636719 16.890625 10.097656 16.890625 10.097656 C 16.890625 10.097656 16.773438 10.371094 16.804688 10.605469 C 16.859375 11.050781 17.109375 11.285156 17.109375 11.285156 C 17.109375 11.285156 16.367188 11.277344 15.65625 11.527344 C 15.351562 11.636719 15.15625 11.800781 15.132812 11.894531 C 15.03125 11.550781 15.84375 11.285156 16.273438 10.910156 Z M 16.273438 10.910156 "/>
<path style=" stroke:none;fill-rule:nonzero;fill:rgb(100%,78.039216%,34.509804%);fill-opacity:1;" d="M 15.148438 13.386719 C 15.148438 13.386719 14.898438 13.097656 14.851562 12.644531 C 14.804688 12.175781 15.078125 11.988281 15.101562 11.972656 L 17.117188 11.277344 C 17.117188 11.277344 17.0625 11.425781 17.109375 11.832031 C 17.15625 12.175781 17.492188 12.644531 17.492188 12.644531 C 17.492188 12.644531 16.414062 12.675781 15.75 12.933594 C 15.328125 13.097656 15.148438 13.386719 15.148438 13.386719 Z M 15.148438 13.386719 "/>
<path style=" stroke:none;fill-rule:nonzero;fill:rgb(83.137255%,63.137255%,11.764706%);fill-opacity:1;" d="M 16.484375 12.222656 C 16.921875 11.847656 17.117188 11.285156 17.117188 11.285156 C 17.117188 11.285156 17.0625 11.605469 17.117188 11.855469 C 17.21875 12.292969 17.53125 12.660156 17.53125 12.660156 C 17.53125 12.660156 16.59375 12.675781 15.914062 12.902344 C 15.46875 13.050781 15.195312 13.316406 15.15625 13.394531 C 15.054688 13.011719 16.046875 12.597656 16.484375 12.222656 Z M 16.484375 12.222656 "/>
<path style=" stroke:none;fill-rule:nonzero;fill:rgb(83.137255%,63.137255%,11.764706%);fill-opacity:1;" d="M 18.222656 15.039062 C 18.222656 15.039062 17.679688 14.328125 17.515625 13.707031 C 17.414062 13.292969 17.492188 12.824219 17.523438 12.660156 C 17.460938 12.878906 17.242188 13.589844 16.703125 14.085938 C 16.1875 14.5625 15.171875 14.789062 15.390625 15.234375 C 15.429688 15.164062 15.546875 14.992188 15.960938 14.890625 L 15.953125 15.460938 L 16.148438 15.460938 L 16.148438 14.851562 C 17.046875 14.710938 18.222656 15.039062 18.222656 15.039062 Z M 18.222656 15.039062 "/>
<path style=" stroke:none;fill-rule:evenodd;fill:rgb(100%,78.039216%,34.509804%);fill-opacity:1;" d="M 19.160156 16.375 C 19.285156 16.351562 19.410156 16.320312 19.597656 16.273438 C 19.589844 16.265625 19.574219 16.257812 19.566406 16.25 C 19.363281 16.023438 19.394531 15.78125 19.519531 15.664062 C 19.972656 15.242188 19.964844 14.929688 19.964844 14.929688 C 19.964844 14.929688 18.863281 15.15625 17.414062 15.234375 C 17.320312 15.242188 16.984375 15.390625 16.882812 15.390625 C 16.679688 15.398438 16.476562 15.40625 16.265625 15.40625 C 13.527344 15.429688 12.761719 15.234375 11.863281 15.070312 C 10.949219 14.898438 10.550781 14.71875 10.550781 14.71875 L 10.519531 14.8125 C 10.519531 14.8125 11.238281 15.09375 11.753906 15.34375 C 11.863281 15.398438 12.292969 16.039062 12.433594 16.257812 L 9.179688 16.257812 C 9 12.527344 9.71875 9.476562 9.71875 9.476562 C 9.71875 9.476562 12.207031 8.945312 15.953125 8.945312 L 15.953125 8.546875 C 11.980469 8.546875 9.335938 9.109375 9.335938 9.109375 C 9.335938 9.109375 8.179688 13.183594 8.789062 18.035156 C 9.046875 20.058594 10.714844 23.84375 15.9375 25.601562 L 16.164062 25.28125 L 15.9375 24.960938 C 11.019531 23.3125 9.585938 19.980469 9.335938 18.082031 C 9.28125 17.664062 9.242188 17.242188 9.210938 16.835938 L 15.960938 16.835938 L 15.960938 16.265625 L 12.496094 16.265625 C 12.574219 16.015625 12.816406 15.953125 13.121094 16.023438 C 13.433594 16.101562 13.746094 16.179688 14.039062 16.164062 C 14.78125 16.125 14.671875 15.929688 14.742188 15.929688 C 15.507812 15.976562 15.796875 16.164062 16.460938 16.148438 C 17.070312 16.140625 17.28125 15.976562 17.335938 15.976562 C 18.074219 15.96875 18.355469 16.3125 19.097656 16.375 C 19.121094 16.375 19.144531 16.375 19.160156 16.375 Z M 19.160156 16.375 "/>
<path style=" stroke:none;fill-rule:evenodd;fill:rgb(83.137255%,63.137255%,11.764706%);fill-opacity:1;" d="M 22.5625 9.109375 C 22.5625 9.109375 19.925781 8.546875 15.953125 8.546875 L 15.953125 8.945312 C 19.699219 8.945312 22.179688 9.476562 22.179688 9.476562 C 22.179688 9.476562 22.90625 12.527344 22.71875 16.257812 L 19.457031 16.257812 C 19.199219 16.007812 19.347656 15.679688 19.433594 15.601562 C 19.816406 15.257812 19.816406 15.023438 19.816406 15.023438 C 19.816406 15.023438 18.933594 15.242188 17.484375 15.304688 C 17.390625 15.304688 16.984375 15.492188 16.882812 15.492188 C 16.679688 15.5 16.398438 15.507812 16.1875 15.507812 C 14.296875 15.507812 13.371094 15.46875 11.730469 15.117188 C 11.761719 15.15625 11.777344 15.171875 11.808594 15.21875 C 11.816406 15.234375 12.527344 15.414062 12.535156 15.429688 C 12.644531 15.578125 12.785156 15.679688 12.957031 15.773438 C 13.222656 15.914062 13.613281 16.03125 13.933594 16.054688 C 14.671875 16.101562 14.53125 15.820312 14.601562 15.820312 C 15.359375 15.804688 15.851562 16.078125 16.515625 16.070312 C 17.125 16.0625 17.140625 15.867188 17.203125 15.867188 C 17.804688 15.835938 18.410156 16.09375 18.933594 16.265625 L 15.953125 16.265625 L 15.953125 16.835938 L 22.679688 16.835938 C 22.648438 17.25 22.609375 17.664062 22.554688 18.082031 C 22.304688 19.988281 20.871094 23.3125 15.953125 24.960938 L 15.953125 25.601562 C 21.175781 23.84375 22.851562 20.066406 23.101562 18.035156 C 23.71875 13.183594 22.5625 9.109375 22.5625 9.109375 Z M 22.5625 9.109375 "/>
<path style=" stroke:none;fill-rule:nonzero;fill:rgb(0%,15.686275%,36.862745%);fill-opacity:1;" d="M 3.761719 10.863281 L 4.035156 10.339844 L 5.269531 10.253906 L 4.644531 9.1875 L 4.917969 8.671875 L 7.109375 9.828125 L 6.859375 10.300781 L 5.425781 9.554688 L 6.039062 10.660156 L 6.03125 10.667969 L 4.785156 10.792969 L 6.203125 11.542969 L 5.957031 12.019531 Z M 3.761719 10.863281 "/>
<path style=" stroke:none;fill-rule:nonzero;fill:rgb(0%,15.686275%,36.862745%);fill-opacity:1;" d="M 6.265625 6.960938 L 6.609375 6.59375 L 9.15625 7.53125 L 8.765625 7.945312 L 8.203125 7.726562 L 7.484375 8.492188 L 7.734375 9.039062 L 7.351562 9.445312 Z M 7.726562 7.546875 L 6.914062 7.234375 L 7.273438 8.023438 Z M 7.726562 7.546875 "/>
<path style=" stroke:none;fill-rule:nonzero;fill:rgb(0%,15.686275%,36.862745%);fill-opacity:1;" d="M 8.234375 5.160156 L 8.664062 4.902344 L 10.449219 5.605469 L 9.664062 4.300781 L 10.121094 4.019531 L 11.402344 6.132812 L 11.003906 6.375 L 9.164062 5.652344 L 9.984375 7 L 9.523438 7.28125 Z M 8.234375 5.160156 "/>
<path style=" stroke:none;fill-rule:nonzero;fill:rgb(0%,15.686275%,36.862745%);fill-opacity:1;" d="M 11.566406 4.730469 C 11.371094 4.042969 11.714844 3.339844 12.449219 3.128906 C 12.894531 2.996094 13.214844 3.074219 13.496094 3.222656 L 13.269531 3.707031 C 13.035156 3.589844 12.824219 3.542969 12.582031 3.613281 C 12.183594 3.730469 11.988281 4.144531 12.105469 4.558594 L 12.105469 4.566406 C 12.222656 4.972656 12.605469 5.230469 13.011719 5.113281 C 13.285156 5.035156 13.417969 4.878906 13.558594 4.652344 L 13.988281 4.894531 C 13.816406 5.230469 13.589844 5.472656 13.136719 5.605469 C 12.441406 5.808594 11.761719 5.417969 11.566406 4.730469 Z M 11.566406 4.730469 "/>
<path style=" stroke:none;fill-rule:nonzero;fill:rgb(0%,15.686275%,36.862745%);fill-opacity:1;" d="M 14.539062 2.738281 L 15.078125 2.722656 L 15.109375 3.707031 L 16.109375 3.683594 L 16.085938 2.699219 L 16.632812 2.683594 L 16.695312 5.167969 L 16.148438 5.183594 L 16.125 4.183594 L 15.117188 4.214844 L 15.148438 5.207031 L 14.601562 5.222656 Z M 14.539062 2.738281 "/>
<path style=" stroke:none;fill-rule:nonzero;fill:rgb(0%,15.686275%,36.862745%);fill-opacity:1;" d="M 19.839844 5.503906 L 20.292969 5.285156 C 20.417969 5.542969 20.582031 5.753906 20.839844 5.871094 C 21.042969 5.964844 21.199219 5.941406 21.261719 5.808594 L 21.261719 5.800781 C 21.324219 5.675781 21.269531 5.574219 20.941406 5.308594 C 20.542969 4.980469 20.308594 4.722656 20.511719 4.277344 L 20.511719 4.269531 C 20.699219 3.863281 21.152344 3.746094 21.613281 3.957031 C 21.941406 4.105469 22.171875 4.339844 22.3125 4.628906 L 21.886719 4.886719 C 21.753906 4.652344 21.589844 4.480469 21.402344 4.394531 C 21.214844 4.308594 21.074219 4.347656 21.019531 4.457031 L 21.019531 4.464844 C 20.949219 4.613281 21.027344 4.707031 21.371094 4.988281 C 21.769531 5.316406 21.957031 5.605469 21.769531 5.996094 L 21.769531 6 C 21.566406 6.445312 21.105469 6.539062 20.621094 6.320312 C 20.292969 6.148438 20.003906 5.871094 19.839844 5.503906 Z M 19.839844 5.503906 "/>
<path style=" stroke:none;fill-rule:nonzero;fill:rgb(0%,15.686275%,36.862745%);fill-opacity:1;" d="M 23.460938 5.652344 L 22.859375 5.191406 L 23.164062 4.792969 L 24.796875 6.03125 L 24.492188 6.4375 L 23.890625 5.980469 L 22.695312 7.546875 L 22.257812 7.21875 Z M 23.460938 5.652344 "/>
<path style=" stroke:none;fill-rule:nonzero;fill:rgb(0%,15.686275%,36.862745%);fill-opacity:1;" d="M 27.378906 9.171875 L 27.886719 10.183594 C 28.027344 10.464844 28.058594 10.722656 27.988281 10.941406 C 27.925781 11.128906 27.785156 11.277344 27.574219 11.386719 L 27.566406 11.386719 C 27.207031 11.566406 26.886719 11.488281 26.636719 11.253906 L 26.113281 12.191406 L 25.828125 11.621094 L 26.292969 10.785156 L 26.097656 10.402344 L 25.390625 10.761719 L 25.148438 10.277344 Z M 26.792969 10.691406 C 26.910156 10.925781 27.105469 11.003906 27.292969 10.910156 L 27.300781 10.910156 C 27.511719 10.808594 27.542969 10.605469 27.425781 10.371094 L 27.183594 9.890625 L 26.550781 10.207031 Z M 26.792969 10.691406 "/>
<path style=" stroke:none;fill-rule:nonzero;fill:rgb(0%,15.686275%,36.862745%);fill-opacity:1;" d="M 18.183594 4.402344 L 19.097656 4.597656 L 19.355469 4.160156 L 18.292969 3.925781 L 18.394531 3.433594 L 19.691406 3.714844 L 19.800781 3.246094 L 17.96875 2.847656 L 17.445312 5.269531 L 19.292969 5.675781 L 19.394531 5.199219 L 18.074219 4.910156 Z M 18.183594 4.402344 "/>
<path style=" stroke:none;fill-rule:nonzero;fill:rgb(0%,15.686275%,36.862745%);fill-opacity:1;" d="M 25.546875 6.773438 L 23.640625 8.367188 L 24.859375 9.8125 L 25.226562 9.5 L 24.367188 8.46875 L 24.765625 8.132812 L 25.375 8.859375 L 25.867188 8.695312 L 25.140625 7.820312 L 25.523438 7.5 L 26.371094 8.515625 L 26.746094 8.203125 Z M 25.546875 6.773438 "/>
<path style=" stroke:none;fill-rule:nonzero;fill:rgb(0%,15.686275%,36.862745%);fill-opacity:1;" d="M 11.777344 27.910156 C 11.777344 27.183594 12.316406 26.597656 13.097656 26.597656 C 13.574219 26.597656 13.855469 26.753906 14.09375 26.988281 L 13.746094 27.394531 C 13.550781 27.214844 13.355469 27.113281 13.097656 27.113281 C 12.667969 27.113281 12.363281 27.464844 12.363281 27.902344 L 12.363281 27.910156 C 12.363281 28.339844 12.660156 28.707031 13.097656 28.707031 C 13.386719 28.707031 13.566406 28.589844 13.761719 28.410156 L 14.109375 28.769531 C 13.855469 29.050781 13.566406 29.222656 13.074219 29.222656 C 12.332031 29.207031 11.777344 28.628906 11.777344 27.910156 Z M 11.777344 27.910156 "/>
<path style=" stroke:none;fill-rule:nonzero;fill:rgb(0%,15.686275%,36.862745%);fill-opacity:1;" d="M 14.648438 26.636719 L 15.203125 26.636719 L 15.203125 29.160156 L 14.648438 29.160156 Z M 14.648438 26.636719 "/>
<path style=" stroke:none;fill-rule:nonzero;fill:rgb(0%,15.686275%,36.862745%);fill-opacity:1;" d="M 16.492188 27.152344 L 15.726562 27.152344 L 15.726562 26.636719 L 17.820312 26.636719 L 17.820312 27.152344 L 17.054688 27.152344 L 17.054688 29.167969 L 16.5 29.167969 L 16.5 27.152344 Z M 16.492188 27.152344 "/>
<path style=" stroke:none;fill-rule:nonzero;fill:rgb(0%,15.686275%,36.862745%);fill-opacity:1;" d="M 19.019531 28.167969 L 18.050781 26.636719 L 18.699219 26.636719 L 19.300781 27.652344 L 19.910156 26.636719 L 20.542969 26.636719 L 19.574219 28.152344 L 19.574219 29.160156 L 19.019531 29.160156 Z M 19.019531 28.167969 "/>
</g>
</svg>
