<?xml version="1.0" encoding="UTF-8"?>
<svg xmlns="http://www.w3.org/2000/svg" xmlns:xlink="http://www.w3.org/1999/xlink" width="32px" height="32px" viewBox="0 0 32 65" version="1.1">
<g id="surface1">
<path style=" stroke:none;fill-rule:nonzero;fill:rgb(7.45098%,13.333333%,34.117647%);fill-opacity:1;" d="M 9.507812 40.847656 C 9.296875 40.816406 9.082031 40.902344 8.949219 41.066406 C 8.585938 41.488281 8.40625 42.035156 8.460938 42.589844 L 8.460938 42.585938 C 8.460938 42.71875 8.488281 42.847656 8.535156 42.96875 C 8.601562 43.164062 8.757812 43.316406 8.957031 43.375 C 9.175781 43.382812 9.382812 43.277344 9.503906 43.09375 C 9.910156 42.566406 10.046875 41.882812 9.875 41.242188 C 9.832031 41.054688 9.691406 40.902344 9.507812 40.847656 M 22.527344 46.472656 C 22.621094 46.109375 22.574219 45.726562 22.394531 45.394531 C 22.246094 45.125 21.988281 44.933594 21.6875 44.859375 L 21.367188 44.792969 C 21.074219 44.734375 20.632812 44.644531 19.972656 44.480469 C 19.089844 44.261719 18.332031 44.664062 17.914062 45.558594 C 18.34375 45.679688 18.765625 45.796875 19.179688 45.898438 C 19.21875 45.71875 19.246094 45.539062 19.261719 45.355469 C 19.269531 45.21875 19.390625 45.113281 19.527344 45.121094 C 19.667969 45.128906 19.773438 45.246094 19.765625 45.386719 C 19.75 45.597656 19.71875 45.808594 19.671875 46.015625 C 19.753906 46.035156 19.835938 46.054688 19.917969 46.074219 C 20 46.09375 20.082031 46.109375 20.160156 46.125 C 20.234375 45.773438 20.28125 45.476562 20.28125 45.46875 C 20.300781 45.332031 20.429688 45.238281 20.570312 45.261719 C 20.707031 45.28125 20.800781 45.410156 20.78125 45.542969 C 20.777344 45.570312 20.730469 45.867188 20.65625 46.226562 C 20.828125 46.261719 20.988281 46.289062 21.140625 46.3125 C 21.171875 46.132812 21.195312 45.949219 21.210938 45.765625 C 21.214844 45.628906 21.335938 45.519531 21.472656 45.527344 C 21.613281 45.535156 21.722656 45.652344 21.714844 45.789062 C 21.703125 45.992188 21.675781 46.191406 21.640625 46.390625 C 21.992188 46.4375 22.285156 46.460938 22.527344 46.472656 M 17.84375 47.085938 C 17.996094 47.429688 18.285156 47.703125 18.640625 47.839844 C 19.277344 48.019531 19.929688 48.144531 20.585938 48.21875 C 21.390625 48.304688 22.015625 47.863281 22.375 46.96875 C 22.105469 46.953125 21.820312 46.921875 21.519531 46.882812 C 21.46875 47.0625 21.394531 47.234375 21.300781 47.398438 C 21.234375 47.519531 21.078125 47.5625 20.957031 47.492188 C 20.835938 47.425781 20.792969 47.273438 20.863281 47.152344 C 20.925781 47.039062 20.976562 46.925781 21.015625 46.804688 C 20.859375 46.777344 20.699219 46.746094 20.542969 46.71875 C 20.5 46.90625 20.4375 47.089844 20.363281 47.269531 C 20.328125 47.351562 20.25 47.410156 20.160156 47.417969 C 20.070312 47.429688 19.980469 47.390625 19.929688 47.320312 C 19.875 47.246094 19.863281 47.152344 19.902344 47.070312 C 19.960938 46.921875 20.011719 46.769531 20.046875 46.617188 C 19.96875 46.597656 19.886719 46.578125 19.804688 46.5625 C 19.71875 46.542969 19.632812 46.523438 19.546875 46.503906 C 19.5 46.65625 19.445312 46.804688 19.382812 46.949219 C 19.347656 47.035156 19.269531 47.089844 19.179688 47.101562 C 19.089844 47.113281 19 47.078125 18.945312 47.003906 C 18.890625 46.933594 18.878906 46.839844 18.914062 46.757812 C 18.96875 46.628906 19.015625 46.503906 19.054688 46.382812 C 18.628906 46.277344 18.1875 46.15625 17.746094 46.03125 C 17.65625 46.382812 17.691406 46.753906 17.84375 47.085938 M 23.472656 40.707031 C 23.089844 39.714844 21.808594 39.007812 20.121094 38.632812 C 17.003906 37.933594 12.90625 39.085938 10.300781 41.257812 C 10.398438 41.6875 10.375 42.136719 10.238281 42.554688 C 12.539062 43.722656 14.945312 44.679688 17.421875 45.414062 C 18.03125 44.035156 19.191406 43.773438 20.097656 43.996094 C 20.746094 44.15625 21.160156 44.238281 21.464844 44.300781 L 21.800781 44.371094 C 22.242188 44.476562 22.613281 44.757812 22.835938 45.148438 C 23.058594 45.550781 23.132812 46.023438 23.042969 46.472656 C 23.21875 46.484375 23.394531 46.445312 23.546875 46.359375 C 24.195312 44.527344 24.167969 42.523438 23.472656 40.707031 M 20.53125 48.714844 C 19.835938 48.640625 19.148438 48.503906 18.472656 48.3125 C 17.988281 48.132812 17.597656 47.765625 17.382812 47.296875 C 17.269531 47.050781 17.203125 46.785156 17.191406 46.515625 C 17.183594 46.304688 17.207031 46.089844 17.257812 45.886719 C 14.769531 45.144531 12.355469 44.1875 10.042969 43.019531 C 9.976562 43.136719 9.898438 43.25 9.8125 43.355469 C 9.6875 43.507812 9.523438 43.628906 9.34375 43.710938 C 9.523438 45.296875 10.074219 46.816406 10.949219 48.152344 C 12.109375 49.929688 13.691406 51.144531 15.398438 51.527344 C 16.003906 51.664062 16.796875 51.832031 17.503906 51.675781 C 20.09375 51.105469 22.253906 49.34375 23.320312 46.9375 C 23.183594 46.960938 23.046875 46.972656 22.910156 46.976562 C 22.3125 48.710938 21.050781 48.773438 20.53125 48.714844 M 8.332031 41.390625 C 8.414062 41.203125 8.523438 41.027344 8.652344 40.867188 C 8.746094 40.757812 8.859375 40.660156 8.984375 40.582031 C 9.257812 39.210938 9.914062 37.941406 10.882812 36.921875 C 9.460938 37.921875 8.390625 39.339844 7.824219 40.972656 C 7.976562 41.132812 8.144531 41.273438 8.332031 41.390625 M 8.171875 41.875 C 7.996094 41.753906 7.828125 41.621094 7.667969 41.480469 C 7.445312 42.292969 7.347656 43.132812 7.386719 43.972656 C 7.390625 44.148438 7.40625 44.320312 7.421875 44.492188 C 7.574219 43.925781 7.820312 43.390625 8.148438 42.90625 C 8.085938 42.5625 8.089844 42.214844 8.171875 41.875 M 8.839844 43.757812 C 8.648438 43.707031 8.484375 43.59375 8.375 43.433594 C 7.753906 44.378906 7.492188 45.222656 7.71875 45.984375 C 8.6875 49.203125 11.535156 51.519531 14.914062 51.835938 C 11.664062 50.859375 9.257812 47.507812 8.839844 43.757812 M 12.839844 4.761719 C 12.84375 4.339844 12.796875 3.921875 12.703125 3.511719 C 12.703125 3.511719 13.449219 3.472656 13.449219 2.574219 C 13.449219 1.828125 12.949219 1.324219 12.8125 1.324219 C 12.707031 1.324219 12.679688 1.4375 12.445312 1.4375 C 11.871094 1.4375 11.832031 0.714844 11.832031 0.714844 C 11.914062 0.710938 12.003906 0.710938 12.09375 0.710938 C 13.726562 0.710938 15.242188 1.199219 15.242188 4.761719 C 15.230469 5.9375 15.148438 7.113281 15.003906 8.28125 C 14.878906 9.242188 14.816406 10.210938 14.824219 11.175781 C 14.824219 11.175781 11.972656 10.84375 11.972656 8.722656 C 11.972656 7.347656 12.839844 7.011719 12.839844 4.761719 M 17.375 28.273438 C 17.375 31.058594 16.171875 33.324219 15.480469 34.011719 C 13.332031 36.136719 11.558594 34.589844 11.539062 36.722656 C 10.5625 37.597656 9.863281 38.925781 9.515625 40.445312 C 9.539062 40.445312 9.558594 40.449219 9.582031 40.453125 C 9.789062 40.492188 9.96875 40.613281 10.089844 40.785156 C 12.816406 38.582031 17.019531 37.425781 20.234375 38.144531 C 21.167969 38.316406 22.042969 38.722656 22.777344 39.316406 C 21.785156 37.726562 20.277344 36.515625 18.5 35.886719 C 18.078125 35.734375 17.324219 35.5625 17.324219 34.203125 C 17.324219 31.667969 20.128906 33.640625 21.972656 30.878906 C 22.066406 30.742188 21.933594 30.621094 21.828125 30.730469 C 21.269531 31.28125 19.894531 31.664062 19.171875 31.664062 C 18.828125 31.6875 18.484375 31.632812 18.171875 31.5 C 18.621094 30.628906 19.136719 29.792969 19.710938 28.996094 C 17.996094 27.300781 20.882812 17.96875 28.515625 17.96875 C 28.535156 16.253906 28.363281 14.542969 28.003906 12.863281 C 27.824219 12.90625 26.386719 13.242188 26.320312 12.941406 C 26.261719 12.675781 27.378906 12.101562 27.761719 11.914062 C 27.59375 11.253906 27.339844 10.613281 27.015625 10.011719 C 20.46875 12.054688 21.785156 17.417969 20.191406 17.417969 C 19.152344 17.417969 18.339844 16.617188 18.046875 16.328125 C 14.136719 12.460938 15.960938 9.902344 15.960938 4.761719 C 15.960938 1.296875 14.601562 0 12.09375 0 C 9.582031 0 8.6875 1.074219 8.6875 1.074219 C 8.6875 1.074219 12.125 1.183594 12.125 4.761719 C 12.125 8.5 7.867188 9.535156 7.867188 14.28125 C 7.867188 22.183594 17.375 22.035156 17.375 28.273438 "/>
<path style=" stroke:none;fill-rule:nonzero;fill:rgb(7.45098%,13.333333%,34.117647%);fill-opacity:1;" d="M 2.964844 50.84375 C 3.601562 51.257812 4.28125 51.632812 4.28125 51.632812 L 4.042969 52.238281 C 3.953125 51.871094 3.585938 51.671875 3.109375 51.382812 L 1.554688 53.609375 C 1.304688 53.941406 1.105469 54.308594 0.964844 54.695312 C 0.964844 54.695312 0.707031 54.535156 0.476562 54.363281 C 0.230469 54.183594 0 54.015625 0 54.015625 C 0.230469 53.960938 0.632812 53.375 0.875 53.050781 L 2.386719 50.914062 C 1.820312 50.480469 1.601562 50.394531 1.199219 50.375 L 1.738281 49.972656 C 1.738281 49.972656 2.257812 50.378906 2.964844 50.84375 "/>
<path style=" stroke:none;fill-rule:nonzero;fill:rgb(7.45098%,13.333333%,34.117647%);fill-opacity:1;" d="M 5.753906 52.671875 C 5.066406 52.34375 4.519531 53.117188 4.109375 53.96875 C 3.699219 54.816406 3.433594 55.726562 4.125 56.054688 C 4.816406 56.378906 5.363281 55.601562 5.773438 54.753906 C 6.183594 53.902344 6.445312 53 5.753906 52.671875 M 3.972656 56.367188 C 2.890625 55.855469 2.75 54.679688 3.28125 53.574219 C 3.816406 52.464844 4.835938 51.84375 5.910156 52.351562 C 6.984375 52.859375 7.136719 54.035156 6.601562 55.144531 C 6.070312 56.246094 5.054688 56.878906 3.972656 56.367188 "/>
<path style=" stroke:none;fill-rule:nonzero;fill:rgb(7.45098%,13.333333%,34.117647%);fill-opacity:1;" d="M 8.808594 53.492188 C 9.542969 53.695312 10.136719 53.832031 10.136719 53.832031 L 10.074219 54.480469 C 9.878906 54.199219 9.789062 54.132812 9.164062 53.972656 L 8.40625 56.492188 C 8.347656 56.722656 8.042969 57.59375 8.140625 57.757812 C 8.140625 57.757812 7.929688 57.714844 7.589844 57.621094 C 7.210938 57.515625 7.03125 57.445312 7.03125 57.445312 C 7.226562 57.316406 7.472656 56.574219 7.554688 56.269531 L 8.3125 53.734375 C 7.667969 53.523438 7.515625 53.507812 7.207031 53.648438 L 7.582031 53.097656 C 7.582031 53.097656 8.003906 53.265625 8.808594 53.492188 "/>
<path style=" stroke:none;fill-rule:nonzero;fill:rgb(7.45098%,13.333333%,34.117647%);fill-opacity:1;" d="M 11.828125 54.160156 C 12.546875 54.269531 13.226562 54.328125 13.226562 54.328125 L 13.253906 54.976562 C 12.984375 54.742188 12.882812 54.664062 12.171875 54.574219 L 11.757812 57.160156 C 11.730469 57.398438 11.578125 58.296875 11.695312 58.445312 C 11.695312 58.445312 11.445312 58.421875 11.101562 58.371094 C 10.757812 58.324219 10.546875 58.277344 10.546875 58.277344 C 10.714844 58.144531 10.851562 57.292969 10.882812 57.058594 L 11.304688 54.4375 C 10.6875 54.316406 10.5625 54.363281 10.265625 54.535156 L 10.535156 53.917969 C 10.535156 53.917969 11.109375 54.054688 11.828125 54.160156 "/>
<path style=" stroke:none;fill-rule:nonzero;fill:rgb(7.45098%,13.333333%,34.117647%);fill-opacity:1;" d="M 14.5 56.617188 L 14.445312 58.355469 C 15.363281 58.367188 15.996094 58.308594 16.273438 57.914062 L 16.132812 58.703125 C 16.132812 58.703125 15.625 58.714844 14.878906 58.703125 C 14.058594 58.691406 13.414062 58.640625 13.414062 58.640625 C 13.550781 58.507812 13.585938 57.660156 13.585938 57.421875 L 13.660156 55.714844 C 13.664062 55.261719 13.707031 54.527344 13.550781 54.375 C 14.21875 54.417969 14.132812 54.417969 14.746094 54.441406 C 15.546875 54.472656 16.003906 54.449219 16.003906 54.449219 L 16.101562 55.101562 C 15.789062 54.84375 15.320312 54.8125 14.554688 54.808594 L 14.511719 56.265625 L 15.6875 56.273438 C 15.796875 56.273438 15.800781 56.332031 15.800781 56.449219 C 15.800781 56.566406 15.796875 56.625 15.6875 56.625 Z M 14.5 56.617188 "/>
<path style=" stroke:none;fill-rule:nonzero;fill:rgb(7.45098%,13.333333%,34.117647%);fill-opacity:1;" d="M 19.640625 57.140625 C 19.707031 57.773438 19.773438 58.226562 19.917969 58.3125 C 19.847656 58.410156 19.734375 58.46875 19.613281 58.476562 C 19.433594 58.488281 19.265625 58.40625 19.164062 58.261719 L 17.074219 55.890625 L 17.152344 57.398438 C 17.179688 57.636719 17.207031 58.535156 17.355469 58.652344 L 16.660156 58.6875 C 16.78125 58.539062 16.75 57.683594 16.722656 57.445312 L 16.625 55.742188 C 16.601562 55.507812 16.554688 54.566406 16.40625 54.445312 L 17.042969 54.421875 L 19.183594 56.9375 L 19.003906 55.492188 C 18.976562 55.253906 18.847656 54.390625 18.703125 54.269531 C 18.703125 54.269531 18.78125 54.265625 19.039062 54.230469 C 19.300781 54.195312 19.394531 54.175781 19.394531 54.175781 C 19.273438 54.324219 19.414062 55.207031 19.4375 55.445312 Z M 19.640625 57.140625 "/>
<path style=" stroke:none;fill-rule:nonzero;fill:rgb(7.45098%,13.333333%,34.117647%);fill-opacity:1;" d="M 23.558594 56.246094 C 23.632812 56.539062 23.78125 57.292969 24 57.441406 C 24 57.441406 23.667969 57.535156 23.46875 57.597656 C 23.289062 57.652344 22.890625 57.753906 22.890625 57.753906 C 22.984375 57.589844 22.777344 56.683594 22.71875 56.457031 L 22.519531 55.667969 L 21.195312 55.992188 L 21.347656 56.792969 C 21.390625 57.054688 21.527344 57.925781 21.707031 58.03125 C 21.707031 58.03125 21.519531 58.070312 21.132812 58.148438 C 20.808594 58.214844 20.585938 58.25 20.585938 58.25 C 20.683594 58.085938 20.550781 57.277344 20.511719 57.019531 L 20.1875 55.324219 C 20.128906 55.007812 19.984375 54.207031 19.804688 54.113281 C 19.804688 54.113281 19.976562 54.082031 20.355469 54.007812 C 20.734375 53.933594 20.921875 53.886719 20.921875 53.886719 C 20.828125 54.074219 20.992188 54.84375 21.035156 55.113281 L 21.140625 55.648438 L 22.445312 55.335938 L 22.300781 54.785156 C 22.226562 54.492188 22.0625 53.792969 21.882812 53.664062 C 21.882812 53.664062 22.0625 53.613281 22.425781 53.511719 C 22.789062 53.410156 22.945312 53.351562 22.945312 53.351562 C 22.871094 53.546875 23.074219 54.226562 23.15625 54.578125 Z M 23.558594 56.246094 "/>
<path style=" stroke:none;fill-rule:nonzero;fill:rgb(7.45098%,13.333333%,34.117647%);fill-opacity:1;" d="M 25.746094 54.964844 L 24.597656 53.386719 L 24.679688 55.367188 Z M 25.980469 55.238281 L 24.6875 55.742188 L 24.734375 56.445312 C 24.742188 56.640625 24.769531 56.835938 24.816406 57.027344 C 24.835938 57.082031 24.878906 57.125 24.929688 57.152344 C 24.929688 57.152344 24.792969 57.203125 24.574219 57.273438 C 24.351562 57.34375 24.226562 57.378906 24.226562 57.378906 C 24.304688 57.210938 24.335938 57.023438 24.316406 56.839844 L 24.203125 53.503906 C 24.199219 53.390625 24.175781 53.28125 24.136719 53.171875 C 24.105469 53.105469 24.058594 53.050781 24 53.003906 C 24.164062 52.898438 24.335938 52.804688 24.515625 52.730469 C 24.816406 52.605469 24.941406 52.609375 25.15625 52.859375 L 27.054688 55.191406 C 27.402344 55.636719 27.703125 55.933594 27.902344 55.996094 C 27.902344 55.996094 27.710938 56.082031 27.34375 56.246094 C 26.980469 56.40625 26.738281 56.496094 26.738281 56.496094 C 26.765625 56.402344 26.757812 56.304688 26.714844 56.21875 C 26.613281 56.039062 26.492188 55.867188 26.355469 55.703125 Z M 25.980469 55.238281 "/>
<path style=" stroke:none;fill-rule:nonzero;fill:rgb(7.45098%,13.333333%,34.117647%);fill-opacity:1;" d="M 31.402344 54.03125 C 31.144531 54.203125 30.949219 54.335938 30.949219 54.335938 C 30.929688 54.082031 30.433594 53.457031 30.289062 53.265625 L 29.175781 51.828125 L 30.070312 54.664062 C 30.027344 54.734375 29.976562 54.792969 29.914062 54.84375 C 29.765625 54.96875 29.546875 54.960938 29.40625 54.828125 L 27.285156 53.085938 L 28.027344 54.441406 C 28.207031 54.785156 28.558594 55.5 28.792969 55.570312 C 28.792969 55.570312 28.648438 55.648438 28.464844 55.734375 C 28.277344 55.824219 28.167969 55.875 28.167969 55.875 C 28.207031 55.675781 27.863281 55.085938 27.660156 54.703125 L 26.832031 53.164062 C 26.582031 52.703125 26.308594 52.230469 26.070312 52.136719 C 26.253906 52.046875 26.308594 52.019531 26.570312 51.894531 C 26.789062 51.785156 26.984375 51.679688 26.984375 51.679688 L 29.375 53.695312 L 28.433594 50.84375 C 28.433594 50.84375 28.5625 50.757812 28.800781 50.601562 C 29.039062 50.441406 29.253906 50.285156 29.253906 50.285156 C 29.269531 50.542969 29.769531 51.191406 29.949219 51.421875 L 30.980469 52.734375 C 31.199219 53.003906 31.605469 53.605469 31.898438 53.675781 C 31.898438 53.675781 31.664062 53.855469 31.402344 54.03125 "/>
<path style=" stroke:none;fill-rule:nonzero;fill:rgb(7.45098%,13.333333%,34.117647%);fill-opacity:1;" d="M 6.9375 59.214844 C 7.160156 59.292969 7.445312 59.390625 7.445312 59.390625 C 7.203125 59.566406 6.980469 60.253906 6.839844 60.625 L 6.285156 62.148438 C 6.136719 62.5625 5.882812 63.164062 5.964844 63.378906 C 5.964844 63.378906 5.660156 63.273438 5.414062 63.1875 C 5.203125 63.113281 5.082031 63.070312 4.859375 62.976562 C 5.128906 62.90625 5.386719 62.007812 5.46875 61.785156 L 5.726562 61.074219 L 4.394531 60.523438 L 4.007812 61.335938 C 3.882812 61.621094 3.585938 62.261719 3.65625 62.460938 C 3.65625 62.460938 3.421875 62.367188 3.078125 62.210938 C 2.671875 62.023438 2.582031 61.976562 2.582031 61.976562 C 2.867188 61.835938 3.035156 61.378906 3.253906 60.917969 L 3.949219 59.394531 C 4.1875 58.871094 4.398438 58.417969 4.382812 58.121094 C 4.382812 58.121094 4.507812 58.195312 4.847656 58.347656 C 5.121094 58.46875 5.261719 58.527344 5.414062 58.589844 C 5.195312 58.675781 4.894531 59.445312 4.734375 59.789062 L 4.53125 60.222656 L 5.832031 60.75 L 6.03125 60.261719 C 6.125 60.011719 6.449219 59.265625 6.378906 59.011719 C 6.378906 59.011719 6.644531 59.109375 6.9375 59.214844 "/>
<path style=" stroke:none;fill-rule:nonzero;fill:rgb(7.45098%,13.333333%,34.117647%);fill-opacity:1;" d="M 9.46875 60.285156 C 8.730469 60.09375 8.347656 60.933594 8.109375 61.824219 C 7.871094 62.714844 7.785156 63.640625 8.527344 63.832031 C 9.269531 64.023438 9.652344 63.179688 9.890625 62.289062 C 10.125 61.394531 10.210938 60.476562 9.46875 60.285156 M 8.441406 64.160156 C 7.28125 63.859375 6.914062 62.75 7.21875 61.59375 C 7.527344 60.429688 8.40625 59.648438 9.558594 59.949219 C 10.710938 60.25 11.089844 61.355469 10.78125 62.519531 C 10.472656 63.675781 9.597656 64.464844 8.441406 64.160156 "/>
<path style=" stroke:none;fill-rule:nonzero;fill:rgb(7.45098%,13.333333%,34.117647%);fill-opacity:1;" d="M 11.578125 64.570312 C 11.636719 64.5 11.679688 64.417969 11.703125 64.332031 C 11.777344 64 11.835938 63.667969 11.875 63.332031 L 12.199219 60.847656 C 11.507812 60.765625 11.332031 60.8125 11.027344 60.992188 L 11.3125 60.355469 C 11.527344 60.402344 12.003906 60.453125 12.585938 60.527344 C 12.972656 60.574219 14.128906 60.675781 14.128906 60.675781 L 14.167969 61.3125 C 13.914062 61.019531 13.648438 60.996094 13.074219 60.949219 L 12.75 63.441406 C 12.722656 63.671875 12.59375 64.476562 12.71875 64.714844 C 12.582031 64.699219 12.351562 64.675781 12.15625 64.65625 C 11.957031 64.636719 11.695312 64.589844 11.578125 64.570312 "/>
<path style=" stroke:none;fill-rule:nonzero;fill:rgb(7.45098%,13.333333%,34.117647%);fill-opacity:1;" d="M 17.085938 63.707031 C 17.09375 64.457031 16.480469 64.996094 15.535156 64.984375 C 15.074219 64.996094 14.625 64.84375 14.269531 64.550781 L 14.421875 63.84375 C 14.59375 64.273438 14.992188 64.574219 15.457031 64.628906 C 15.65625 64.652344 15.855469 64.589844 16.007812 64.460938 C 16.164062 64.328125 16.253906 64.140625 16.257812 63.941406 C 16.261719 63.625 16.085938 63.433594 15.34375 63.050781 C 14.632812 62.6875 14.367188 62.324219 14.367188 61.78125 C 14.367188 61.046875 15.015625 60.671875 15.773438 60.671875 C 16.191406 60.671875 16.601562 60.773438 16.96875 60.972656 L 16.808594 61.621094 C 16.472656 61.175781 16.164062 61.007812 15.792969 61.003906 C 15.632812 60.980469 15.46875 61.03125 15.351562 61.140625 C 15.230469 61.246094 15.164062 61.402344 15.171875 61.566406 C 15.175781 61.96875 15.625 62.1875 16.230469 62.523438 C 16.929688 62.910156 17.082031 63.296875 17.085938 63.707031 "/>
<path style=" stroke:none;fill-rule:nonzero;fill:rgb(7.45098%,13.333333%,34.117647%);fill-opacity:1;" d="M 20.527344 61.417969 C 20.554688 61.507812 20.570312 61.601562 20.578125 61.695312 C 20.589844 61.789062 20.589844 61.878906 20.582031 61.972656 C 20.554688 62.242188 20.441406 62.496094 20.253906 62.695312 C 19.941406 63.003906 19.515625 63.175781 19.070312 63.171875 C 18.875 63.183594 18.828125 63.125 18.816406 62.984375 L 18.8125 62.953125 C 18.8125 62.953125 18.808594 62.902344 18.851562 62.898438 L 18.902344 62.894531 C 19.117188 62.878906 19.3125 62.777344 19.453125 62.613281 C 19.621094 62.371094 19.695312 62.074219 19.652344 61.785156 C 19.648438 61.5 19.519531 61.230469 19.296875 61.050781 C 19.109375 60.910156 18.875 60.847656 18.644531 60.871094 C 18.644531 60.871094 18.546875 60.878906 18.445312 60.894531 C 18.429688 60.898438 18.414062 60.90625 18.402344 60.917969 C 18.390625 60.929688 18.386719 60.945312 18.390625 60.960938 L 18.640625 63.535156 C 18.660156 63.761719 18.722656 64.5625 18.914062 64.726562 C 18.914062 64.726562 18.699219 64.75 18.296875 64.78125 C 17.988281 64.804688 17.75 64.8125 17.75 64.8125 C 17.820312 64.542969 17.835938 64.257812 17.796875 63.984375 L 17.601562 61.953125 C 17.578125 61.71875 17.539062 60.921875 17.347656 60.726562 C 17.347656 60.726562 17.863281 60.648438 18.816406 60.5625 C 19.253906 60.492188 19.699219 60.582031 20.074219 60.8125 C 20.292969 60.957031 20.453125 61.171875 20.527344 61.417969 "/>
<path style=" stroke:none;fill-rule:nonzero;fill:rgb(7.45098%,13.333333%,34.117647%);fill-opacity:1;" d="M 24.425781 62.25 C 24.550781 62.652344 24.492188 63.085938 24.273438 63.445312 C 24.050781 63.804688 23.6875 64.054688 23.269531 64.132812 C 22.609375 64.296875 21.660156 64.058594 21.394531 62.914062 L 21.074219 61.558594 C 20.988281 61.183594 20.847656 60.511719 20.628906 60.335938 C 20.628906 60.335938 20.875 60.300781 21.261719 60.230469 C 21.652344 60.160156 21.832031 60.117188 21.832031 60.117188 C 21.730469 60.277344 21.835938 60.902344 21.9375 61.363281 L 22.347656 63.082031 C 22.382812 63.335938 22.511719 63.570312 22.707031 63.738281 C 22.851562 63.832031 23.027344 63.863281 23.199219 63.824219 C 23.378906 63.796875 23.539062 63.691406 23.632812 63.53125 C 23.726562 63.296875 23.734375 63.03125 23.652344 62.789062 L 23.191406 61.070312 C 23.0625 60.597656 22.917969 60.003906 22.761719 59.90625 C 22.761719 59.90625 22.949219 59.855469 23.308594 59.753906 C 23.578125 59.675781 23.738281 59.628906 23.855469 59.589844 C 23.75 59.847656 24.003906 60.640625 24.058594 60.867188 Z M 24.425781 62.25 "/>
<path style=" stroke:none;fill-rule:nonzero;fill:rgb(7.45098%,13.333333%,34.117647%);fill-opacity:1;" d="M 28.640625 61.898438 C 28.726562 61.9375 28.820312 61.945312 28.910156 61.921875 C 28.886719 62.019531 28.832031 62.105469 28.761719 62.179688 C 28.558594 62.433594 28.21875 62.542969 27.90625 62.449219 C 27.234375 62.117188 26.628906 61.675781 26.109375 61.136719 C 26.109375 61.132812 26.109375 61.121094 26.109375 61.117188 C 26.113281 61.109375 26.121094 61.101562 26.128906 61.097656 L 26.167969 61.082031 C 26.394531 60.976562 26.566406 60.785156 26.644531 60.550781 C 26.722656 60.316406 26.703125 60.0625 26.585938 59.84375 C 26.496094 59.597656 26.300781 59.398438 26.054688 59.296875 C 25.867188 59.242188 25.664062 59.253906 25.484375 59.328125 C 25.410156 59.355469 25.34375 59.390625 25.277344 59.4375 C 25.277344 59.4375 25.246094 59.460938 25.285156 59.566406 L 26.109375 61.90625 C 26.234375 62.25 26.453125 62.917969 26.652344 63.03125 C 26.652344 63.03125 26.429688 63.121094 26.089844 63.242188 C 25.75 63.363281 25.546875 63.417969 25.546875 63.417969 C 25.613281 63.15625 25.355469 62.449219 25.289062 62.25 L 24.753906 60.667969 C 24.621094 60.289062 24.375 59.605469 24.175781 59.5 C 24.609375 59.363281 25.03125 59.207031 25.445312 59.027344 C 25.855469 58.824219 26.324219 58.769531 26.769531 58.867188 C 26.996094 58.925781 27.195312 59.066406 27.324219 59.257812 C 27.371094 59.328125 27.414062 59.40625 27.445312 59.484375 C 27.476562 59.558594 27.5 59.636719 27.511719 59.71875 C 27.558594 59.96875 27.511719 60.226562 27.378906 60.449219 C 27.28125 60.617188 27.148438 60.765625 26.984375 60.878906 C 27.488281 61.292969 28.042969 61.636719 28.640625 61.898438 "/>
</g>
</svg>
