<?xml version="1.0" encoding="UTF-8"?>
<svg xmlns="http://www.w3.org/2000/svg" xmlns:xlink="http://www.w3.org/1999/xlink" width="32px" height="32px" viewBox="0 0 32 32" version="1.1">
<g id="surface1">
<path style=" stroke:none;fill-rule:nonzero;fill:rgb(13.72549%,12.156863%,12.54902%);fill-opacity:1;" d="M 8.003906 29.882812 L 0 16.011719 L 8.003906 2.140625 L 24.015625 2.140625 L 32.023438 16.011719 L 24.015625 29.882812 Z M 8.003906 29.882812 "/>
<path style=" stroke:none;fill-rule:nonzero;fill:rgb(99.215686%,72.54902%,7.45098%);fill-opacity:1;" d="M 9.542969 27.214844 L 3.078125 16.011719 L 9.542969 4.808594 L 22.480469 4.808594 L 28.945312 16.011719 L 22.480469 27.214844 Z M 9.542969 27.214844 "/>
<path style=" stroke:none;fill-rule:nonzero;fill:rgb(100%,100%,100%);fill-opacity:1;" d="M 9.683594 26.980469 L 22.347656 26.980469 L 28.675781 16.011719 L 22.339844 5.042969 L 9.683594 5.042969 L 3.347656 16.011719 Z M 22.609375 27.449219 L 9.414062 27.449219 L 2.808594 16.011719 L 2.878906 15.894531 L 9.414062 4.570312 L 22.617188 4.570312 L 22.683594 4.691406 L 29.222656 16.011719 Z M 22.609375 27.449219 "/>
<path style=" stroke:none;fill-rule:nonzero;fill:rgb(13.72549%,12.156863%,12.54902%);fill-opacity:1;" d="M 14.152344 10.78125 L 17.855469 10.78125 L 19.832031 5.824219 L 25.179688 16.691406 L 19.394531 20.113281 L 17.539062 26.199219 L 14.484375 26.199219 L 12.632812 20.101562 L 6.84375 16.691406 L 12.183594 5.824219 Z M 14.152344 10.78125 "/>
<path style=" stroke:none;fill-rule:nonzero;fill:rgb(100%,100%,100%);fill-opacity:1;" d="M 14.917969 17.476562 L 12.191406 14.546875 L 12.191406 17.476562 Z M 19.832031 14.546875 L 19.832031 17.476562 L 17.101562 17.476562 Z M 19.832031 14.546875 "/>
</g>
</svg>
