<?xml version="1.0" encoding="UTF-8"?>
<svg xmlns="http://www.w3.org/2000/svg" xmlns:xlink="http://www.w3.org/1999/xlink" width="32px" height="32px" viewBox="0 0 32 45" version="1.1">
<g id="surface1">
<path style=" stroke:none;fill-rule:evenodd;fill:rgb(48.235294%,0%,22.745098%);fill-opacity:1;" d="M 31.910156 0.0273438 L 0.0507812 0.0273438 L 0.0507812 34.050781 C 0.0507812 36.707031 1.675781 38.800781 4.921875 40.34375 C 6.003906 40.859375 7.4375 41.394531 9.242188 41.933594 L 13.261719 43.152344 L 13.828125 43.414062 C 14.25 43.605469 14.550781 43.769531 14.722656 43.898438 C 15.136719 44.1875 15.542969 44.558594 15.941406 45.019531 C 16.320312 44.625 16.628906 44.332031 16.859375 44.148438 C 17.304688 43.785156 17.871094 43.46875 18.578125 43.203125 C 19.082031 43.007812 20.414062 42.589844 22.574219 41.933594 C 24.433594 41.367188 25.894531 40.84375 26.941406 40.359375 C 30.253906 38.832031 31.910156 36.730469 31.910156 34.050781 Z M 31.910156 0.0273438 "/>
<path style=" stroke:none;fill-rule:evenodd;fill:rgb(63.921569%,77.254902%,91.372549%);fill-opacity:1;" d="M 14.820312 42.5625 C 15.191406 42.8125 15.566406 43.128906 15.949219 43.523438 C 16.296875 43.1875 16.582031 42.933594 16.792969 42.773438 C 17.191406 42.46875 17.71875 42.191406 18.390625 41.957031 C 18.855469 41.789062 20.097656 41.425781 22.101562 40.859375 C 23.832031 40.367188 25.1875 39.914062 26.171875 39.496094 C 29.246094 38.179688 30.78125 36.351562 30.78125 34.035156 L 30.78125 1.171875 L 1.179688 1.171875 L 1.179688 34.035156 C 1.179688 36.335938 2.691406 38.144531 5.703125 39.476562 C 6.707031 39.921875 8.046875 40.382812 9.722656 40.859375 L 13.457031 41.917969 Z M 14.820312 42.5625 "/>
<path style=" stroke:none;fill-rule:evenodd;fill:rgb(100%,100%,100%);fill-opacity:1;" d="M 7.398438 12.335938 L 6.296875 12.171875 L 5.792969 11.164062 L 5.304688 12.171875 L 4.191406 12.335938 L 4.996094 13.125 L 4.800781 14.25 C 5.136719 14.070312 5.46875 13.894531 5.792969 13.714844 L 6.792969 14.25 L 6.597656 13.125 Z M 7.398438 12.335938 "/>
<path style=" stroke:none;fill-rule:evenodd;fill:rgb(100%,89.803922%,0%);fill-opacity:1;" d="M 12.867188 14.335938 C 12.644531 14.558594 12.65625 14.898438 12.417969 15.03125 C 12.242188 15.128906 12.046875 15.097656 11.960938 15.007812 C 11.84375 14.878906 11.800781 14.679688 11.957031 14.507812 C 12.144531 14.296875 12.535156 14.328125 12.867188 14.335938 M 11.191406 17.566406 C 11.1875 17.839844 11.226562 18.046875 11.359375 18.210938 C 11.164062 18.363281 11.203125 18.605469 11.292969 18.824219 C 11.390625 19.058594 11.726562 19.429688 12.136719 19.601562 C 12.207031 19.480469 12.011719 19.15625 12.082031 18.933594 C 12.335938 19.125 12.574219 19.277344 12.738281 19.261719 C 12.625 19.039062 12.613281 18.890625 12.65625 18.832031 C 13.097656 18.464844 13.625 18 13.9375 17.898438 C 14.191406 17.816406 14.457031 17.992188 14.5 18.3125 C 14.550781 18.675781 14.410156 18.980469 14.167969 19.238281 C 13.738281 19.691406 13.164062 19.910156 12.71875 20.402344 C 12.011719 21.183594 11.863281 22.046875 11.003906 22.089844 C 11.480469 21.773438 11.75 21.5 12.019531 20.984375 C 10.324219 21.242188 9.296875 20.332031 8.253906 19.800781 C 7.796875 19.566406 7.339844 19.519531 7.082031 19.464844 C 6.667969 19.039062 6.457031 18.6875 6.359375 18.117188 C 6.246094 17.472656 6.414062 16.898438 5.816406 16.828125 C 5.472656 16.355469 5.039062 16.039062 4.402344 16.453125 C 4.742188 16.511719 4.992188 16.59375 5.160156 17.097656 C 5.109375 17.167969 4.996094 17.28125 4.992188 17.410156 C 4.777344 17.421875 4.710938 17.4375 4.566406 17.574219 C 4 17.347656 3.464844 17.441406 3.195312 18 C 3.589844 17.894531 3.894531 17.90625 4.164062 18.171875 C 4.195312 18.351562 4.214844 18.484375 4.316406 18.617188 C 4.082031 18.757812 3.941406 19.042969 3.929688 19.230469 C 3.472656 19.339844 3.195312 19.625 3.171875 20.058594 C 3.5 19.828125 3.839844 19.800781 4.003906 19.847656 C 4.113281 19.957031 4.207031 20.167969 4.425781 20.226562 C 4.675781 20.296875 5.15625 20.195312 5.4375 20.273438 C 5.546875 20.464844 5.585938 20.566406 5.574219 20.6875 C 5.539062 21.167969 4.753906 20.851562 4.828125 21.566406 C 4.554688 21.644531 4.390625 21.550781 4.152344 21.382812 C 4.3125 22.089844 4.730469 22.414062 5.28125 22.078125 C 5.75 22.179688 6.042969 21.695312 6.464844 21.464844 C 6.871094 21.246094 7.464844 21.53125 7.800781 21.765625 C 8.316406 22.128906 8.863281 22.589844 9.148438 23.683594 C 9.332031 23.496094 9.457031 23.21875 9.488281 22.949219 L 10.824219 24.179688 L 7.941406 26.40625 C 7.746094 26.554688 7.523438 26.695312 7.316406 26.613281 C 7.140625 26.542969 7.039062 26.347656 6.882812 26.203125 C 6.65625 25.992188 6.351562 25.851562 6.027344 26.027344 C 5.511719 26.011719 5.035156 26.132812 4.9375 26.902344 C 5.109375 26.75 5.265625 26.613281 5.585938 26.707031 C 5.585938 26.902344 5.636719 27.070312 5.761719 27.214844 C 5.601562 27.3125 5.496094 27.464844 5.484375 27.5625 C 5.007812 27.589844 4.660156 27.859375 4.613281 28.417969 C 4.882812 28.148438 5.109375 28.03125 5.425781 28.160156 C 5.523438 28.734375 5.785156 28.808594 6.09375 28.769531 C 6.007812 29.015625 5.988281 29.1875 6.097656 29.394531 C 5.933594 29.761719 6.113281 30.234375 6.351562 30.390625 C 6.320312 30.164062 6.359375 29.894531 6.488281 29.773438 C 6.757812 29.839844 6.960938 29.734375 7.230469 29.382812 C 7.296875 29.675781 7.503906 29.839844 7.765625 29.816406 C 7.800781 30.125 7.941406 30.375 8.125 30.535156 C 8.074219 30.28125 8.042969 30.003906 8.089844 29.753906 C 8.582031 29.367188 8.480469 28.945312 8.5625 28.464844 C 8.652344 27.929688 8.925781 27.691406 9.359375 27.410156 C 10.199219 26.859375 11.191406 26.445312 12.761719 26.3125 C 13.25 26.902344 13.738281 27.539062 14.359375 28.082031 C 13.410156 28.839844 12.765625 28.523438 12 28.613281 C 11.652344 28.652344 11.195312 28.8125 10.945312 29.066406 C 10.726562 29.292969 10.617188 29.578125 10.375 29.699219 C 10.183594 29.792969 9.929688 29.820312 9.636719 29.578125 C 9.625 30.265625 9.902344 30.496094 10.609375 30.453125 C 10.359375 30.75 10.097656 30.859375 9.5625 30.664062 C 9.789062 31.210938 10.160156 31.414062 10.734375 31.351562 C 10.871094 32.289062 12.082031 32.8125 11.867188 33.550781 C 11.574219 34.554688 9.347656 34.828125 8.535156 34.308594 C 7.96875 33.945312 7.714844 33.335938 7.042969 33.539062 C 6.675781 33.203125 5.996094 33.09375 5.714844 33.894531 C 6.199219 33.625 6.421875 33.773438 6.316406 34.089844 C 5.445312 34.101562 5.113281 34.53125 5.234375 35.121094 C 5.40625 34.8125 5.585938 34.742188 5.804688 34.785156 C 5.734375 34.949219 5.6875 35.167969 5.695312 35.5 C 5.265625 35.761719 5.246094 36.238281 5.441406 36.636719 C 5.558594 36.308594 5.613281 36.011719 5.878906 35.996094 C 6.039062 36.214844 6.261719 36.367188 6.546875 36.457031 C 6.445312 36.96875 6.472656 37.429688 6.621094 37.816406 C 6.71875 37.476562 6.816406 37.257812 6.945312 37.101562 C 7.394531 37.410156 7.871094 37.417969 8.335938 37.292969 C 9.285156 37.039062 9.867188 36.300781 10.605469 36.292969 C 11.015625 36.285156 11.203125 36.605469 10.925781 36.980469 C 11.515625 36.945312 11.832031 36.808594 12.117188 36.644531 C 12.5625 36.386719 12.84375 36.066406 13.277344 35.964844 C 13.992188 35.792969 15.003906 36.609375 15.488281 35.695312 C 14.921875 35.792969 14.597656 35.535156 14.496094 35.269531 C 15.210938 35.394531 15.671875 35.375 16.054688 34.78125 C 15.015625 34.953125 14.550781 34.054688 14.488281 33.558594 C 14.429688 33.09375 14.578125 32.222656 15.550781 31.925781 C 15.863281 31.28125 16.027344 30.941406 16.367188 30.40625 L 16.480469 29.886719 C 16.550781 30.128906 16.601562 30.359375 16.527344 30.621094 C 16.417969 31.003906 16.148438 31.421875 15.984375 31.859375 C 15.851562 32.222656 15.8125 32.617188 15.832031 32.917969 C 15.855469 33.292969 15.988281 33.636719 16.226562 33.921875 C 16.625 34.394531 17.207031 34.777344 16.796875 35.722656 C 17.234375 35.679688 17.488281 35.472656 17.925781 34.972656 C 18.257812 35.226562 18.503906 35.566406 18.378906 36.027344 C 18.933594 35.855469 19.28125 35.425781 19.476562 34.796875 C 20.269531 34.820312 20.710938 34.976562 20.789062 35.28125 C 20.917969 35.785156 19.648438 37.660156 18.058594 37.722656 C 17.804688 37.65625 17.605469 37.394531 17.40625 37.300781 C 17.230469 37.214844 16.984375 37.234375 16.769531 37.535156 C 16.273438 37.398438 15.6875 37.527344 15.53125 38.082031 C 15.238281 38.210938 14.972656 38.648438 15.015625 39.035156 C 15.121094 38.941406 15.460938 38.714844 15.59375 38.699219 C 15.628906 38.8125 15.828125 38.933594 15.941406 38.96875 C 15.269531 39.554688 15.246094 40.035156 15.304688 40.265625 C 15.589844 39.808594 15.921875 39.722656 16.085938 39.734375 C 16.199219 40.019531 16.425781 40.140625 16.757812 40.175781 L 16.773438 40.972656 L 17.34375 40.34375 C 18.039062 40.683594 18.773438 40.472656 19.289062 40.085938 C 20.246094 39.371094 20.644531 37.980469 21.351562 38.070312 C 21.5 38.089844 21.636719 38.238281 21.566406 38.449219 C 21.742188 38.492188 21.910156 38.421875 22.035156 38.273438 C 22.3125 37.941406 22.488281 37.28125 23.007812 36.507812 C 23.339844 36.015625 24.136719 35.476562 24.367188 34.988281 C 23.996094 35.230469 23.5625 35.152344 23.503906 34.9375 C 24.15625 34.597656 24.742188 34.203125 24.988281 33.269531 C 24.628906 33.433594 24.304688 33.554688 23.945312 33.515625 C 24.246094 32.886719 24.347656 32.234375 24.0625 31.8125 C 23.152344 33.136719 22.066406 32.917969 21.625 32.609375 C 21.28125 32.371094 20.957031 32.007812 20.929688 31.164062 C 20.921875 30.941406 20.976562 30.589844 21.070312 30.261719 C 21.167969 29.933594 21.273438 29.671875 21.277344 29.371094 C 22.621094 30.140625 23.675781 30.375 24.433594 30.339844 C 25.855469 30.277344 26.773438 29.15625 26.726562 27.722656 C 26.699219 27.019531 26.402344 26.34375 25.875 25.671875 C 25.277344 24.914062 24.433594 24.183594 23.875 23.425781 C 23.582031 23.027344 23.386719 22.582031 23.304688 22.175781 C 23.175781 21.523438 23.273438 20.769531 23.972656 20.136719 C 24.726562 20.570312 25.433594 20.746094 26.109375 20.695312 C 26.796875 20.640625 27.347656 20.230469 27.878906 19.796875 C 28.117188 19.601562 28.367188 19.394531 28.878906 19.453125 C 28.710938 19.257812 28.402344 19.046875 27.941406 19.070312 C 29.027344 17.757812 29.464844 16.117188 28.863281 14.96875 C 28.765625 15.632812 28.542969 15.789062 28.34375 15.925781 C 28.078125 16.109375 27.867188 16.140625 27.480469 16.34375 C 27.679688 15.957031 27.660156 15.671875 27.53125 15.234375 C 27.0625 16.445312 26.453125 16.152344 25.59375 17.039062 C 25.695312 16.632812 25.707031 16.308594 25.554688 15.933594 C 25.5 16.300781 25.28125 16.582031 25.0625 16.742188 C 24.289062 17.3125 23.316406 17.445312 23.503906 19.285156 C 22.511719 20.070312 22.148438 21.003906 22.21875 21.933594 C 22.277344 22.703125 22.589844 23.410156 23.09375 24.074219 C 23.628906 24.78125 24.367188 25.4375 24.894531 26.074219 C 25.46875 26.769531 26.011719 27.992188 25.382812 28.867188 C 24.972656 29.433594 23.796875 29.765625 21.308594 28.214844 C 21.179688 26.890625 20.160156 25.53125 19.945312 24.320312 C 19.863281 23.863281 19.90625 23.472656 19.988281 23.058594 C 20.0625 22.695312 20.175781 22.3125 20.167969 21.859375 C 20.59375 22.210938 21.082031 22.296875 21.445312 22.160156 C 21.15625 22.046875 20.910156 21.691406 20.917969 21.242188 C 20.925781 20.539062 21.328125 19.828125 20.945312 19.035156 C 21.265625 19.265625 21.617188 19.398438 22.015625 19.226562 C 21.121094 18.636719 21.9375 17.875 21.511719 16.902344 C 21.824219 17.054688 22.277344 17.054688 22.609375 16.867188 C 21.550781 16.628906 22.089844 15.273438 21.1875 14.402344 C 21.578125 14.417969 21.898438 14.234375 22.085938 13.941406 C 21.136719 14.097656 20.652344 12.820312 19.84375 12.132812 C 19.082031 11.488281 18.148438 11.257812 17.058594 11.460938 C 17.042969 11.300781 17.304688 11.066406 17.621094 10.90625 C 16.628906 10.484375 15.609375 10.800781 14.738281 11.574219 C 14.777344 11.242188 14.722656 10.910156 14.480469 10.59375 C 14.359375 11.285156 13.296875 11.714844 12.925781 12.28125 C 12.753906 12.539062 12.65625 12.820312 12.664062 13.140625 C 11.71875 13.808594 11.457031 13.761719 11.179688 14.570312 C 10.707031 14.960938 10.132812 15.371094 9.78125 15.761719 C 9.792969 15.882812 9.84375 16.027344 9.871094 16.164062 L 10.144531 15.894531 C 10.046875 16.144531 10.0625 16.394531 10.179688 16.59375 C 10.40625 16.980469 10.855469 17.191406 11.113281 17.355469 C 10.953125 16.871094 11 16.742188 11.1875 16.621094 C 11.601562 16.351562 12.5625 16.445312 12.648438 16.578125 C 12.765625 16.757812 12.621094 17.589844 12.097656 17.808594 C 11.71875 17.96875 11.464844 17.851562 11.191406 17.566406 "/>
<path style=" stroke:none;fill-rule:evenodd;fill:rgb(48.235294%,0%,22.745098%);fill-opacity:1;" d="M 26.828125 2.601562 C 25.742188 2.601562 24.816406 2.902344 24.058594 3.496094 C 23.882812 3.636719 23.726562 3.800781 23.585938 3.980469 C 23.4375 4.160156 23.308594 4.359375 23.199219 4.585938 C 23.09375 4.808594 23.007812 5.046875 22.945312 5.308594 C 22.878906 5.570312 22.847656 5.855469 22.847656 6.164062 C 22.847656 6.78125 22.972656 7.304688 23.21875 7.734375 C 23.449219 8.164062 23.75 8.519531 24.117188 8.800781 C 24.878906 9.320312 25.777344 9.574219 26.8125 9.566406 C 27.207031 9.5625 27.578125 9.511719 27.921875 9.425781 C 28.265625 9.347656 28.570312 9.269531 28.84375 9.195312 C 29.007812 8.925781 29.132812 8.398438 29.222656 7.613281 C 29.191406 7.554688 29.128906 7.511719 29.046875 7.496094 C 28.957031 7.488281 28.890625 7.503906 28.84375 7.542969 C 28.71875 7.90625 28.496094 8.25 28.179688 8.570312 C 28.019531 8.722656 27.828125 8.847656 27.601562 8.945312 C 27.375 9.050781 27.105469 9.105469 26.800781 9.105469 C 26.175781 9.105469 25.632812 8.839844 25.171875 8.308594 C 24.699219 7.785156 24.457031 7.023438 24.445312 6.023438 C 24.457031 5.015625 24.703125 4.269531 25.183594 3.777344 C 25.652344 3.300781 26.171875 3.066406 26.75 3.066406 C 27.734375 3.070312 28.359375 3.550781 28.636719 4.503906 C 28.6875 4.542969 28.757812 4.558594 28.84375 4.542969 C 28.929688 4.53125 28.984375 4.492188 29.011719 4.429688 C 28.925781 3.707031 28.890625 3.183594 28.894531 2.863281 C 28.742188 2.84375 28.488281 2.796875 28.128906 2.71875 C 27.777344 2.648438 27.34375 2.609375 26.828125 2.601562 M 18.976562 3.636719 C 18.972656 3.4375 18.988281 3.316406 19.03125 3.269531 C 19.0625 3.238281 19.15625 3.222656 19.308594 3.222656 L 20.199219 3.222656 C 20.457031 3.222656 20.667969 3.246094 20.820312 3.300781 C 20.984375 3.355469 21.097656 3.445312 21.179688 3.550781 C 21.269531 3.675781 21.371094 3.9375 21.472656 4.339844 C 21.535156 4.378906 21.613281 4.386719 21.703125 4.378906 C 21.773438 4.375 21.824219 4.355469 21.851562 4.300781 C 21.835938 3.523438 21.828125 3 21.828125 2.730469 C 21.625 2.75 21.171875 2.761719 20.460938 2.761719 L 18.222656 2.761719 C 17.980469 2.761719 17.738281 2.753906 17.492188 2.75 C 17.25 2.746094 17.019531 2.742188 16.792969 2.730469 C 16.738281 2.757812 16.714844 2.8125 16.714844 2.894531 C 16.714844 2.980469 16.734375 3.046875 16.773438 3.085938 L 16.976562 3.113281 C 17.207031 3.132812 17.351562 3.207031 17.414062 3.335938 C 17.464844 3.464844 17.492188 3.753906 17.492188 4.210938 L 17.492188 7.953125 C 17.492188 8.394531 17.464844 8.679688 17.414062 8.808594 C 17.351562 8.929688 17.207031 9.003906 16.976562 9.03125 L 16.640625 9.082031 C 16.601562 9.117188 16.582031 9.171875 16.582031 9.25 C 16.582031 9.332031 16.601562 9.394531 16.640625 9.433594 C 17.25 9.414062 17.78125 9.402344 18.234375 9.402344 C 18.703125 9.402344 19.246094 9.414062 19.859375 9.433594 C 19.902344 9.394531 19.921875 9.332031 19.921875 9.25 C 19.921875 9.171875 19.902344 9.117188 19.859375 9.082031 L 19.488281 9.03125 C 19.273438 9.003906 19.136719 8.929688 19.070312 8.808594 C 19 8.679688 18.96875 8.394531 18.976562 7.953125 L 18.976562 6.597656 C 18.976562 6.457031 18.996094 6.367188 19.03125 6.332031 C 19.058594 6.304688 19.132812 6.292969 19.261719 6.292969 L 20.132812 6.292969 C 20.394531 6.292969 20.574219 6.324219 20.675781 6.394531 C 20.769531 6.464844 20.828125 6.621094 20.875 6.855469 L 20.921875 7.097656 C 20.96875 7.136719 21.035156 7.152344 21.121094 7.148438 C 21.207031 7.144531 21.269531 7.128906 21.300781 7.089844 C 21.28125 6.773438 21.273438 6.425781 21.273438 6.042969 C 21.273438 5.652344 21.28125 5.292969 21.300781 4.964844 C 21.269531 4.914062 21.207031 4.886719 21.121094 4.886719 C 21.035156 4.886719 20.96875 4.910156 20.921875 4.957031 L 20.875 5.195312 C 20.828125 5.429688 20.769531 5.585938 20.675781 5.65625 C 20.574219 5.734375 20.394531 5.761719 20.132812 5.761719 L 19.261719 5.761719 C 19.132812 5.761719 19.058594 5.746094 19.03125 5.699219 C 18.996094 5.664062 18.976562 5.585938 18.976562 5.457031 Z M 14.460938 5.171875 C 14.804688 4.363281 15.085938 3.796875 15.300781 3.476562 C 15.40625 3.28125 15.59375 3.164062 15.855469 3.125 L 16.117188 3.074219 C 16.160156 3.035156 16.179688 2.976562 16.179688 2.894531 C 16.167969 2.8125 16.136719 2.757812 16.097656 2.730469 C 15.808594 2.75 15.496094 2.761719 15.160156 2.761719 C 14.789062 2.761719 14.375 2.75 13.917969 2.730469 C 13.855469 2.757812 13.824219 2.808594 13.824219 2.882812 C 13.820312 2.964844 13.835938 3.027344 13.875 3.074219 L 14.171875 3.144531 C 14.292969 3.164062 14.367188 3.1875 14.402344 3.214844 C 14.425781 3.242188 14.441406 3.277344 14.441406 3.316406 C 14.441406 3.367188 14.410156 3.488281 14.34375 3.679688 C 14.144531 4.238281 13.878906 4.9375 13.542969 5.785156 L 13.167969 6.730469 C 13.039062 7.046875 12.933594 7.296875 12.847656 7.476562 C 12.777344 7.316406 12.671875 7.058594 12.53125 6.699219 L 11.644531 4.433594 C 11.523438 4.125 11.425781 3.871094 11.347656 3.679688 C 11.277344 3.484375 11.242188 3.363281 11.242188 3.324219 C 11.234375 3.238281 11.316406 3.171875 11.492188 3.132812 L 11.796875 3.074219 C 11.832031 3.023438 11.847656 2.957031 11.847656 2.882812 C 11.847656 2.816406 11.828125 2.765625 11.789062 2.730469 C 11.207031 2.75 10.699219 2.761719 10.269531 2.761719 C 9.804688 2.761719 9.347656 2.75 8.898438 2.730469 C 8.855469 2.757812 8.828125 2.804688 8.8125 2.871094 C 8.796875 2.945312 8.8125 3.011719 8.859375 3.074219 L 9.140625 3.144531 C 9.363281 3.175781 9.519531 3.246094 9.613281 3.355469 C 9.703125 3.457031 9.835938 3.75 10.015625 4.238281 L 11.65625 8.335938 C 11.808594 8.753906 11.949219 9.136719 12.078125 9.484375 C 12.136719 9.539062 12.230469 9.566406 12.351562 9.566406 C 12.503906 9.566406 12.625 9.539062 12.703125 9.484375 C 12.90625 8.957031 13.246094 8.097656 13.726562 6.910156 Z M 5.390625 6.597656 C 5.269531 6.605469 5.191406 6.582031 5.160156 6.535156 C 5.117188 6.5 5.125 6.421875 5.179688 6.292969 L 5.429688 5.539062 C 5.589844 5.046875 5.730469 4.675781 5.84375 4.425781 C 5.941406 4.671875 6.0625 5.023438 6.210938 5.484375 L 6.472656 6.304688 C 6.527344 6.429688 6.539062 6.511719 6.503906 6.542969 C 6.46875 6.578125 6.390625 6.597656 6.269531 6.597656 Z M 6.324219 7.128906 C 6.496094 7.128906 6.617188 7.136719 6.683594 7.148438 C 6.753906 7.171875 6.792969 7.230469 6.808594 7.308594 L 7.078125 8.175781 C 7.207031 8.550781 7.269531 8.78125 7.269531 8.859375 C 7.269531 8.886719 7.257812 8.917969 7.230469 8.953125 C 7.199219 8.984375 7.121094 9.011719 7 9.03125 L 6.671875 9.082031 C 6.628906 9.128906 6.609375 9.191406 6.613281 9.261719 C 6.613281 9.335938 6.640625 9.394531 6.695312 9.433594 C 7.128906 9.414062 7.585938 9.402344 8.0625 9.402344 C 8.601562 9.402344 9.117188 9.414062 9.613281 9.433594 C 9.660156 9.394531 9.6875 9.332031 9.6875 9.242188 C 9.679688 9.164062 9.660156 9.109375 9.625 9.082031 L 9.238281 9.023438 C 9.066406 8.988281 8.9375 8.90625 8.859375 8.769531 C 8.808594 8.695312 8.765625 8.605469 8.726562 8.5 C 8.679688 8.398438 8.625 8.273438 8.5625 8.125 L 7.191406 4.175781 C 6.957031 3.503906 6.800781 3.046875 6.734375 2.800781 C 6.703125 2.667969 6.625 2.601562 6.5 2.601562 C 6.488281 2.617188 6.40625 2.699219 6.25 2.851562 C 6.082031 3.007812 5.875 3.125 5.625 3.207031 C 5.628906 3.460938 5.5 3.886719 5.230469 4.484375 L 4.320312 6.9375 C 4.0625 7.636719 3.855469 8.171875 3.695312 8.550781 C 3.613281 8.738281 3.523438 8.863281 3.421875 8.933594 C 3.320312 9 3.207031 9.039062 3.078125 9.050781 L 2.804688 9.082031 C 2.773438 9.128906 2.757812 9.191406 2.765625 9.261719 C 2.765625 9.335938 2.789062 9.394531 2.835938 9.433594 C 3.246094 9.421875 3.59375 9.410156 3.875 9.40625 C 4.308594 9.410156 4.703125 9.421875 5.058594 9.433594 C 5.105469 9.402344 5.128906 9.339844 5.128906 9.25 C 5.128906 9.171875 5.113281 9.117188 5.082031 9.082031 L 4.773438 9.03125 C 4.632812 9 4.539062 8.96875 4.492188 8.941406 C 4.4375 8.921875 4.410156 8.894531 4.410156 8.859375 C 4.402344 8.800781 4.425781 8.679688 4.484375 8.5 L 4.859375 7.328125 C 4.882812 7.234375 4.921875 7.171875 4.96875 7.148438 C 5 7.136719 5.074219 7.128906 5.1875 7.128906 Z M 6.324219 7.128906 "/>
</g>
</svg>
