<?xml version="1.0" encoding="UTF-8"?>
<svg xmlns="http://www.w3.org/2000/svg" xmlns:xlink="http://www.w3.org/1999/xlink" width="32px" height="32px" viewBox="0 0 32 32" version="1.1">
<g id="surface1">
<path style="fill-rule:nonzero;fill:rgb(100%,100%,100%);fill-opacity:1;stroke-width:1.0875;stroke-linecap:butt;stroke-linejoin:miter;stroke:rgb(0%,0%,0%);stroke-opacity:1;stroke-miterlimit:4;" d="M 84.460383 42.500116 C 84.460383 19.361625 65.63831 0.539552 42.499819 0.539552 C 19.361327 0.539552 0.539254 19.361625 0.539254 42.500116 C 0.539254 65.638608 19.361327 84.460681 42.499819 84.460681 C 65.63831 84.460681 84.460383 65.638608 84.460383 42.500116 " transform="matrix(0.37647,0,0,0.37647,0.000112188,0)"/>
<path style=" stroke:none;fill-rule:nonzero;fill:rgb(89.019608%,2.352941%,7.45098%);fill-opacity:1;" d="M 26.386719 23.90625 L 26.199219 24.109375 L 26.539062 24.425781 L 26.71875 24.234375 C 26.828125 24.117188 26.851562 23.960938 26.738281 23.859375 C 26.625 23.753906 26.488281 23.796875 26.386719 23.90625 M 6.625 24.875 C 6.363281 25.125 6.367188 25.46875 6.582031 25.691406 C 6.796875 25.910156 7.140625 25.925781 7.398438 25.675781 C 7.664062 25.421875 7.660156 25.078125 7.445312 24.855469 C 7.230469 24.636719 6.886719 24.621094 6.625 24.875 M 26.152344 23.410156 C 26.050781 23.3125 25.933594 23.363281 25.863281 23.4375 L 25.683594 23.628906 L 25.980469 23.902344 L 26.152344 23.71875 C 26.238281 23.625 26.246094 23.496094 26.152344 23.410156 M 30 15.992188 C 30.054688 15.898438 30.101562 15.792969 30.101562 15.675781 C 30.101562 15.367188 29.855469 15.121094 29.53125 15.121094 C 29.207031 15.121094 28.964844 15.367188 28.964844 15.675781 C 28.964844 16 29.230469 16.226562 29.507812 16.226562 C 29.53125 16.226562 29.554688 16.222656 29.582031 16.21875 L 29.222656 16.832031 L 29.511719 16.832031 Z M 28.566406 16.304688 C 28.566406 16.109375 28.464844 15.953125 28.308594 15.859375 C 28.386719 15.789062 28.433594 15.683594 28.433594 15.5625 C 28.433594 15.316406 28.242188 15.121094 27.988281 15.121094 C 27.738281 15.121094 27.546875 15.316406 27.546875 15.5625 C 27.546875 15.683594 27.59375 15.789062 27.671875 15.859375 C 27.515625 15.949219 27.414062 16.109375 27.414062 16.304688 C 27.414062 16.613281 27.664062 16.851562 27.988281 16.851562 C 28.316406 16.851562 28.566406 16.613281 28.566406 16.304688 M 26.984375 23.597656 C 26.820312 23.445312 26.609375 23.457031 26.441406 23.570312 C 26.515625 23.40625 26.480469 23.21875 26.347656 23.097656 C 26.179688 22.9375 25.90625 22.945312 25.660156 23.207031 L 25.21875 23.679688 L 26.519531 24.894531 L 26.972656 24.410156 C 27.242188 24.121094 27.175781 23.777344 26.984375 23.597656 M 25.445312 25.203125 L 24.691406 24.339844 L 24.421875 24.574219 L 25.152344 25.410156 C 25.328125 25.613281 25.28125 25.804688 25.132812 25.933594 C 24.980469 26.0625 24.785156 26.082031 24.609375 25.886719 L 23.878906 25.050781 L 23.613281 25.285156 L 24.367188 26.148438 C 24.660156 26.488281 25.082031 26.417969 25.351562 26.183594 C 25.617188 25.949219 25.746094 25.546875 25.445312 25.203125 M 24.15625 27.09375 L 23.988281 26.839844 L 23.394531 27.234375 L 22.574219 26.007812 L 22.277344 26.207031 L 23.269531 27.6875 Z M 22.289062 27.664062 L 21.960938 27.640625 C 21.96875 27.910156 21.847656 28.105469 21.636719 28.199219 C 21.359375 28.320312 21.050781 28.210938 20.898438 27.863281 C 20.738281 27.5 20.890625 27.222656 21.167969 27.097656 C 21.320312 27.03125 21.507812 27.011719 21.683594 27.128906 L 21.816406 26.804688 C 21.546875 26.664062 21.261719 26.6875 21.039062 26.789062 C 20.621094 26.972656 20.328125 27.460938 20.578125 28.027344 C 20.8125 28.554688 21.328125 28.703125 21.757812 28.511719 C 22.078125 28.371094 22.296875 28.066406 22.289062 27.664062 M 19.335938 29.382812 L 19.277344 29.082031 L 18.578125 29.222656 L 18.289062 27.773438 L 17.9375 27.84375 L 18.289062 29.589844 Z M 17.46875 29.734375 L 17.449219 29.429688 L 16.738281 29.46875 L 16.65625 27.996094 L 16.300781 28.015625 L 16.398438 29.792969 Z M 26.300781 16 C 26.300781 15.382812 26.25 14.785156 26.144531 14.191406 C 26.113281 14.023438 26.050781 13.820312 26.050781 13.820312 L 26.640625 11.777344 C 26.765625 11.339844 26.816406 11.21875 26.746094 11.105469 C 26.71875 11.0625 26.667969 10.988281 26.464844 10.933594 L 24.699219 10.496094 L 24.644531 10.394531 C 22.800781 7.5625 19.609375 5.683594 15.984375 5.683594 C 12.347656 5.683594 9.140625 7.578125 7.304688 10.433594 L 7.269531 10.496094 L 5.5 10.9375 C 5.296875 10.992188 5.246094 11.0625 5.21875 11.109375 C 5.152344 11.222656 5.199219 11.34375 5.328125 11.78125 L 5.914062 13.824219 C 5.914062 13.824219 5.863281 14.003906 5.832031 14.175781 C 5.734375 14.710938 5.667969 15.378906 5.667969 16 C 5.667969 21.6875 10.296875 26.316406 15.984375 26.316406 C 21.675781 26.316406 26.300781 21.6875 26.300781 16 M 15.582031 29.816406 L 15.070312 27.972656 L 14.734375 27.9375 L 13.859375 29.640625 L 14.246094 29.679688 L 14.433594 29.292969 L 15.089844 29.359375 L 15.195312 29.777344 Z M 13.09375 27.671875 L 12.472656 27.5 L 11.992188 29.214844 L 12.636719 29.394531 C 13.015625 29.5 13.289062 29.28125 13.359375 29.027344 C 13.417969 28.8125 13.3125 28.632812 13.132812 28.535156 C 13.3125 28.527344 13.460938 28.40625 13.507812 28.234375 C 13.570312 28.007812 13.441406 27.769531 13.09375 27.671875 M 11.804688 27.296875 L 10.464844 26.683594 L 10.339844 26.960938 L 10.847656 27.195312 L 10.234375 28.535156 L 10.558594 28.683594 L 11.171875 27.34375 L 11.679688 27.574219 Z M 9.34375 25.945312 C 8.910156 25.667969 8.355469 25.785156 8.070312 26.238281 C 7.785156 26.6875 7.90625 27.238281 8.34375 27.515625 C 8.78125 27.792969 9.332031 27.671875 9.617188 27.222656 C 9.90625 26.773438 9.78125 26.222656 9.34375 25.945312 M 7.652344 25.933594 C 8.039062 25.558594 8.046875 24.996094 7.6875 24.625 C 7.328125 24.253906 6.761719 24.242188 6.378906 24.613281 C 5.992188 24.984375 5.988281 25.546875 6.347656 25.921875 C 6.703125 26.292969 7.269531 26.304688 7.652344 25.933594 M 5.722656 23.539062 L 6.070312 23.28125 L 6.5 23.863281 L 6.746094 23.679688 L 6.105469 22.8125 L 4.671875 23.871094 L 4.882812 24.15625 L 5.476562 23.71875 L 5.816406 24.183594 L 6.0625 24.003906 Z M 4.210938 16.308594 C 4.210938 16.113281 4.113281 15.957031 3.957031 15.863281 C 4.035156 15.792969 4.082031 15.6875 4.082031 15.566406 C 4.082031 15.320312 3.886719 15.125 3.636719 15.125 C 3.386719 15.125 3.195312 15.320312 3.195312 15.566406 C 3.195312 15.6875 3.242188 15.792969 3.320312 15.863281 C 3.160156 15.953125 3.0625 16.113281 3.0625 16.308594 C 3.0625 16.617188 3.3125 16.855469 3.636719 16.855469 C 3.964844 16.855469 4.210938 16.617188 4.210938 16.308594 M 2.503906 15.125 L 2.242188 15.289062 L 2.242188 16.835938 L 2.503906 16.835938 Z M 4.859375 7.773438 L 6.671875 9.292969 L 7.238281 8.613281 C 7.578125 8.210938 7.460938 7.761719 7.191406 7.539062 C 6.964844 7.347656 6.6875 7.378906 6.472656 7.542969 C 6.5625 7.320312 6.496094 7.070312 6.3125 6.917969 C 6.078125 6.722656 5.714844 6.746094 5.40625 7.117188 Z M 6.882812 5.597656 L 8.367188 7.441406 L 8.738281 7.140625 L 8.148438 6.414062 L 8.320312 6.277344 L 9.3125 6.679688 L 9.757812 6.316406 L 8.636719 5.882812 C 8.792969 5.597656 8.730469 5.300781 8.574219 5.109375 C 8.339844 4.816406 7.933594 4.75 7.5625 5.046875 Z M 9.414062 3.832031 L 10.433594 5.964844 L 11.753906 5.332031 L 11.578125 4.96875 L 10.6875 5.394531 L 10.441406 4.878906 L 11.132812 4.546875 L 10.957031 4.179688 L 10.265625 4.511719 L 10.015625 3.992188 L 10.882812 3.578125 L 10.707031 3.210938 Z M 12.03125 2.753906 L 12.5625 5.0625 L 13.023438 4.953125 L 12.691406 3.503906 L 14.105469 4.707031 L 14.546875 4.605469 L 14.015625 2.300781 L 13.554688 2.40625 L 13.890625 3.867188 L 12.472656 2.652344 Z M 15.03125 2.585938 L 15.773438 2.589844 L 15.761719 4.550781 L 16.238281 4.554688 L 16.25 2.59375 L 16.988281 2.597656 L 16.992188 2.191406 L 15.035156 2.179688 Z M 17.636719 4.652344 L 18.101562 4.742188 L 18.289062 3.785156 L 19.039062 3.929688 L 19.117188 3.527344 L 18.367188 3.382812 L 18.472656 2.820312 L 19.417969 3 L 19.492188 2.601562 L 18.085938 2.332031 Z M 20.480469 5.570312 C 21.113281 5.835938 21.808594 5.554688 22.082031 4.898438 C 22.355469 4.242188 22.070312 3.550781 21.4375 3.285156 C 20.804688 3.019531 20.109375 3.300781 19.832031 3.957031 C 19.558594 4.609375 19.847656 5.304688 20.480469 5.570312 M 23.550781 4.453125 L 22.125 6.34375 L 22.503906 6.628906 L 23.066406 5.882812 L 23.242188 6.015625 L 23.089844 7.074219 L 23.550781 7.417969 L 23.699219 6.226562 C 24.015625 6.308594 24.289062 6.171875 24.433594 5.980469 C 24.664062 5.675781 24.628906 5.269531 24.25 4.980469 Z M 25.835938 6.339844 L 24.152344 8 L 24.699219 8.558594 C 25.292969 9.160156 26.027344 9.007812 26.441406 8.601562 C 26.855469 8.195312 26.972656 7.492188 26.425781 6.9375 Z M 31.222656 16 C 31.222656 24.390625 24.394531 31.21875 16.003906 31.21875 C 7.609375 31.21875 0.78125 24.390625 0.78125 16 C 0.78125 7.605469 7.609375 0.777344 16.003906 0.777344 C 24.394531 0.777344 31.222656 7.605469 31.222656 16 M 20.652344 5.164062 C 21.03125 5.320312 21.457031 5.160156 21.640625 4.714844 C 21.828125 4.269531 21.644531 3.851562 21.265625 3.691406 C 20.890625 3.535156 20.460938 3.695312 20.277344 4.144531 C 20.089844 4.585938 20.273438 5.003906 20.652344 5.164062 M 24.039062 5.710938 C 24.140625 5.574219 24.125 5.394531 23.960938 5.273438 L 23.683594 5.066406 L 23.3125 5.558594 L 23.574219 5.753906 C 23.738281 5.882812 23.929688 5.855469 24.039062 5.710938 M 29.535156 15.363281 C 29.347656 15.363281 29.230469 15.503906 29.230469 15.675781 C 29.230469 15.839844 29.347656 15.984375 29.535156 15.984375 C 29.71875 15.984375 29.839844 15.839844 29.839844 15.675781 C 29.839844 15.503906 29.71875 15.363281 29.535156 15.363281 M 27.992188 16 C 27.808594 16 27.683594 16.136719 27.683594 16.304688 C 27.683594 16.472656 27.808594 16.609375 27.992188 16.609375 C 28.179688 16.609375 28.304688 16.472656 28.304688 16.304688 C 28.304688 16.136719 28.179688 16 27.992188 16 M 27.992188 15.761719 C 28.109375 15.761719 28.1875 15.675781 28.1875 15.5625 C 28.1875 15.449219 28.109375 15.363281 27.992188 15.363281 C 27.875 15.363281 27.800781 15.449219 27.800781 15.5625 C 27.800781 15.675781 27.875 15.761719 27.992188 15.761719 M 26.085938 8.28125 C 26.382812 7.988281 26.472656 7.5625 26.136719 7.222656 L 25.878906 6.964844 L 24.773438 8.054688 L 25.019531 8.304688 C 25.363281 8.652344 25.789062 8.574219 26.085938 8.28125 M 8.21875 5.429688 C 8.113281 5.300781 7.933594 5.273438 7.777344 5.402344 L 7.507812 5.617188 L 7.894531 6.101562 L 8.148438 5.894531 C 8.3125 5.761719 8.332031 5.570312 8.21875 5.429688 M 3.636719 16.007812 C 3.453125 16.007812 3.328125 16.140625 3.328125 16.3125 C 3.328125 16.476562 3.453125 16.613281 3.636719 16.613281 C 3.824219 16.613281 3.949219 16.476562 3.949219 16.3125 C 3.949219 16.140625 3.824219 16.007812 3.636719 16.007812 M 12.808594 28.640625 L 12.542969 28.566406 L 12.417969 29.015625 L 12.671875 29.085938 C 12.824219 29.128906 12.976562 29.078125 13.015625 28.929688 C 13.058594 28.78125 12.957031 28.683594 12.808594 28.640625 M 9.167969 26.222656 C 8.90625 26.058594 8.570312 26.121094 8.375 26.429688 C 8.179688 26.738281 8.265625 27.070312 8.523438 27.234375 C 8.785156 27.402344 9.121094 27.335938 9.316406 27.03125 C 9.511719 26.722656 9.429688 26.390625 9.167969 26.222656 M 3.636719 15.765625 C 3.753906 15.765625 3.832031 15.679688 3.832031 15.566406 C 3.832031 15.457031 3.753906 15.371094 3.636719 15.371094 C 3.523438 15.371094 3.445312 15.457031 3.445312 15.566406 C 3.445312 15.679688 3.523438 15.765625 3.636719 15.765625 M 5.695312 7.410156 L 5.472656 7.675781 L 5.882812 8.019531 L 6.097656 7.761719 C 6.207031 7.628906 6.207031 7.457031 6.078125 7.351562 C 5.933594 7.230469 5.78125 7.304688 5.695312 7.410156 M 12.984375 27.957031 L 12.734375 27.890625 L 12.625 28.277344 L 12.867188 28.34375 C 12.992188 28.378906 13.109375 28.324219 13.140625 28.203125 C 13.179688 28.066406 13.082031 27.988281 12.984375 27.957031 M 14.589844 28.972656 L 15 29.015625 L 14.851562 28.441406 Z M 6.886719 8.40625 L 6.664062 8.671875 L 6.1875 8.273438 L 6.425781 7.992188 C 6.554688 7.839844 6.730469 7.773438 6.886719 7.902344 C 7.042969 8.035156 7.023438 8.242188 6.886719 8.40625 "/>
<path style=" stroke:none;fill-rule:nonzero;fill:rgb(7.843137%,5.490196%,4.705882%);fill-opacity:1;" d="M 8.101562 10.648438 C 9.820312 8.117188 12.71875 6.453125 16 6.453125 C 19.304688 6.453125 22.222656 8.140625 23.933594 10.699219 L 24.296875 10.546875 C 22.515625 7.871094 19.445312 6.074219 16 6.074219 C 12.558594 6.074219 9.523438 7.832031 7.742188 10.5 L 8.101562 10.644531 Z M 6.234375 14.207031 C 6.128906 14.785156 6.074219 15.390625 6.074219 16 C 6.074219 21.472656 10.527344 25.925781 16 25.925781 C 21.472656 25.925781 25.925781 21.472656 25.925781 16 C 25.925781 15.386719 25.871094 14.785156 25.765625 14.203125 L 25.378906 14.203125 C 25.488281 14.777344 25.546875 15.394531 25.546875 16 C 25.546875 21.261719 21.261719 25.546875 16 25.546875 C 10.738281 25.546875 6.453125 21.261719 6.453125 16 C 6.453125 15.386719 6.511719 14.789062 6.625 14.210938 Z M 6.234375 14.207031 "/>
<path style=" stroke:none;fill-rule:nonzero;fill:rgb(90.980392%,89.411765%,85.098039%);fill-opacity:1;" d="M 8.902344 16.480469 L 8.902344 21.523438 L 9.078125 21.492188 L 9.078125 16.492188 Z M 9.066406 11.0625 L 9.066406 9.902344 L 8.894531 10.0625 L 8.894531 11 Z M 14.535156 9.179688 L 14.535156 10.4375 L 14.710938 10.347656 L 14.710938 9.449219 Z M 14.535156 22.542969 L 14.535156 25.15625 L 14.710938 25.183594 L 14.710938 22.691406 Z M 14.710938 8.390625 L 14.710938 6.824219 L 14.535156 6.863281 L 14.535156 8.296875 Z M 11.898438 16.332031 L 11.898438 15.964844 L 11.722656 16.074219 L 11.722656 16.683594 Z M 11.898438 12.21875 L 11.898438 11.464844 L 11.722656 11.257812 L 11.722656 12.144531 Z M 11.722656 19.730469 L 11.722656 24.160156 L 11.898438 24.261719 L 11.898438 19.445312 Z M 11.898438 10.105469 L 11.898438 7.640625 L 11.722656 7.738281 L 11.722656 9.9375 Z M 23.011719 16.496094 L 23.011719 21.492188 L 23.1875 21.523438 L 23.1875 16.480469 Z M 23.199219 11 L 23.199219 10.0625 L 23.023438 9.902344 L 23.023438 11.066406 Z M 17.382812 9.449219 L 17.382812 10.347656 L 17.554688 10.4375 L 17.554688 9.179688 Z M 17.382812 22.691406 L 17.382812 25.183594 L 17.554688 25.15625 L 17.554688 22.542969 Z M 17.554688 8.296875 L 17.554688 6.863281 L 17.382812 6.824219 L 17.382812 8.390625 Z M 20.367188 16.6875 L 20.367188 16.074219 L 20.191406 15.964844 L 20.191406 16.332031 Z M 20.367188 12.144531 L 20.367188 11.257812 L 20.191406 11.464844 L 20.191406 12.21875 Z M 20.191406 19.445312 L 20.191406 24.261719 L 20.367188 24.160156 L 20.367188 19.730469 Z M 20.191406 10.105469 L 20.191406 7.640625 L 20.367188 7.742188 L 20.367188 9.9375 Z M 20.191406 10.105469 "/>
<path style=" stroke:none;fill-rule:nonzero;fill:rgb(7.843137%,5.490196%,4.705882%);fill-opacity:1;" d="M 18.777344 13.082031 L 24.503906 10.761719 L 23.511719 12.347656 L 18.777344 13.441406 Z M 18.785156 13.703125 L 18.78125 13.953125 L 25.691406 13.953125 L 23.460938 12.734375 Z M 5.683594 11.675781 L 6.234375 13.582031 L 8.175781 12.550781 C 8.175781 12.550781 7.148438 10.855469 7.144531 10.867188 L 5.960938 11.175781 C 5.730469 11.238281 5.664062 11.269531 5.632812 11.320312 C 5.59375 11.375 5.617188 11.429688 5.683594 11.675781 M 8.542969 12.734375 L 6.308594 13.953125 L 13.222656 13.953125 L 13.21875 13.703125 Z M 7.597656 14.6875 C 7.59375 14.75 7.65625 14.804688 7.746094 14.898438 L 9.035156 16.179688 L 10.074219 15.179688 L 8.121094 14.363281 L 7.738281 14.554688 C 7.636719 14.609375 7.601562 14.648438 7.597656 14.6875 M 13.242188 13.082031 L 7.515625 10.761719 L 8.507812 12.347656 L 13.238281 13.441406 Z M 8.574219 14.214844 L 10.367188 14.929688 L 13.242188 14.460938 L 13.234375 14.214844 Z M 10.527344 15.242188 C 10.554688 15.230469 9.375 16.300781 9.375 16.300781 L 10.222656 16.351562 C 10.222656 16.351562 10.484375 16.367188 10.648438 16.328125 C 10.753906 16.308594 11.078125 16.125 11.078125 16.125 C 11.078125 16.125 13.246094 14.960938 13.242188 14.953125 L 13.238281 14.699219 C 13.238281 14.699219 10.496094 15.253906 10.527344 15.242188 M 18.777344 14.699219 L 18.773438 14.953125 C 18.773438 14.960938 20.941406 16.125 20.941406 16.125 C 20.941406 16.125 21.261719 16.308594 21.371094 16.328125 C 21.535156 16.367188 21.792969 16.351562 21.792969 16.351562 L 22.644531 16.300781 C 22.644531 16.300781 21.460938 15.230469 21.492188 15.242188 C 21.519531 15.253906 18.777344 14.699219 18.777344 14.699219 M 24.277344 14.554688 L 23.894531 14.363281 L 21.9375 15.179688 L 22.976562 16.179688 L 24.269531 14.898438 C 24.359375 14.804688 24.417969 14.75 24.414062 14.6875 C 24.414062 14.648438 24.375 14.609375 24.277344 14.554688 M 21.066406 19.269531 C 21.03125 19.21875 20.035156 16.578125 20.035156 16.578125 C 19.867188 16.15625 19.722656 16.082031 19.421875 15.914062 L 18.734375 15.476562 L 18.703125 15.519531 L 19.488281 16.589844 L 19.488281 18.144531 L 22.046875 21.390625 C 22.394531 21.824219 22.40625 21.96875 22.914062 21.96875 L 23.226562 21.824219 L 22.636719 21.726562 C 22.636719 21.726562 21.105469 19.316406 21.066406 19.269531 M 10.960938 19.269531 C 10.921875 19.316406 9.390625 21.726562 9.390625 21.726562 L 8.800781 21.824219 L 9.113281 21.96875 C 9.621094 21.96875 9.632812 21.824219 9.980469 21.390625 L 12.535156 18.144531 L 12.539062 16.589844 L 13.324219 15.519531 L 13.292969 15.476562 L 12.609375 15.914062 C 12.304688 16.082031 12.160156 16.15625 11.992188 16.578125 C 11.992188 16.578125 10.996094 19.21875 10.960938 19.269531 M 26.355469 11.316406 C 26.320312 11.265625 26.253906 11.234375 26.023438 11.171875 L 24.839844 10.863281 C 24.835938 10.851562 23.808594 12.546875 23.808594 12.546875 L 25.753906 13.578125 L 26.300781 11.671875 C 26.367188 11.425781 26.390625 11.371094 26.355469 11.316406 M 18.777344 14.210938 L 18.769531 14.457031 L 21.644531 14.925781 L 23.4375 14.210938 Z M 18.703125 12.679688 L 20.53125 10.699219 L 21.707031 9.269531 L 21.769531 8.878906 L 21.652344 8.769531 L 21.507812 9.214844 L 18.441406 12 C 18.449219 12.027344 18.703125 12.679688 18.703125 12.679688 M 11.484375 10.699219 L 13.3125 12.679688 C 13.3125 12.679688 13.566406 12.027344 13.574219 12 L 10.507812 9.214844 L 10.363281 8.769531 L 10.246094 8.878906 L 10.308594 9.269531 Z M 13.382812 8.046875 L 13.660156 8.371094 L 14.515625 8.839844 L 15.375 10.085938 L 15.132812 10.425781 C 15.132812 10.425781 14.640625 10.585938 14.539062 10.714844 C 14.410156 10.878906 14.382812 11.503906 14.382812 11.503906 L 14.003906 11.722656 L 13.550781 13.058594 L 13.550781 15.175781 L 13.875 15.390625 L 12.917969 16.730469 L 12.917969 19.964844 L 13.984375 21.773438 L 15.445312 22.882812 L 16.007812 23.585938 L 16.570312 22.882812 L 18.027344 21.773438 L 19.097656 19.964844 L 19.097656 16.730469 L 18.160156 15.378906 L 18.460938 15.175781 L 18.460938 13.058594 L 18.011719 11.722656 L 17.628906 11.503906 C 17.628906 11.503906 17.605469 10.878906 17.476562 10.714844 C 17.375 10.585938 16.882812 10.425781 16.882812 10.425781 L 16.652344 10.105469 L 17.527344 8.839844 L 18.382812 8.371094 L 18.660156 8.046875 L 18.238281 8.179688 L 17.332031 8.6875 L 16.460938 9.921875 L 16.027344 9.808594 L 15.578125 9.917969 L 14.710938 8.6875 L 13.804688 8.179688 Z M 15.132812 10.542969 L 15.265625 11.148438 L 14.675781 11.378906 Z M 16.882812 10.542969 L 17.339844 11.378906 L 16.757812 11.140625 Z M 16.003906 12.933594 L 17.773438 13.703125 L 17.183594 15.03125 L 17.183594 13.996094 L 16.003906 13.390625 L 14.328125 13.578125 L 14.3125 13.523438 Z M 13.882812 18.949219 L 15.019531 19.351562 L 16.996094 19.351562 L 18.132812 18.949219 L 18.144531 18.980469 L 17.113281 19.769531 L 14.902344 19.769531 L 13.871094 18.980469 Z M 13.882812 18.949219 "/>
<path style=" stroke:none;fill-rule:nonzero;fill:rgb(98.431373%,72.156863%,0%);fill-opacity:1;" d="M 18.460938 20.4375 L 17.019531 20.945312 L 15.003906 20.945312 L 13.578125 20.4375 L 14.082031 21.316406 L 15.269531 21.746094 L 14.4375 21.726562 L 15.570312 22.585938 L 16.453125 22.585938 L 17.585938 21.726562 L 16.753906 21.746094 L 17.9375 21.316406 Z M 13.871094 13.023438 L 15.074219 12.382812 L 16.945312 12.382812 L 18.152344 13.023438 L 18.019531 12.648438 L 17.152344 11.925781 L 17.921875 12.191406 L 17.839844 11.925781 C 17.839844 11.925781 17.007812 11.515625 16.996094 11.480469 L 15.027344 11.480469 C 15.015625 11.515625 14.183594 11.925781 14.183594 11.925781 L 14.097656 12.191406 L 14.871094 11.925781 L 14 12.648438 Z M 18.742188 16.832031 L 18.742188 16.828125 L 17.042969 17.039062 L 18.332031 16.324219 L 17.824219 15.609375 L 17.089844 16.101562 L 14.929688 16.101562 L 14.21875 15.625 L 13.710938 16.324219 L 14.980469 17.039062 L 13.28125 16.828125 L 13.277344 16.832031 L 13.277344 17.742188 L 14.375 18.152344 L 17.644531 18.152344 L 18.742188 17.742188 Z M 18.742188 16.832031 "/>
</g>
</svg>
