<?xml version="1.0" encoding="UTF-8"?>
<svg xmlns="http://www.w3.org/2000/svg" xmlns:xlink="http://www.w3.org/1999/xlink" width="32px" height="32px" viewBox="0 0 32 32" version="1.1">
<g id="surface1">
<path style=" stroke:none;fill-rule:nonzero;fill:rgb(85.882353%,63.137255%,6.666667%);fill-opacity:1;" d="M 32.074219 16.035156 C 32.074219 24.894531 24.894531 32.074219 16.035156 32.074219 C 7.179688 32.074219 0 24.894531 0 16.035156 C 0 7.179688 7.179688 0 16.035156 0 C 24.894531 0 32.074219 7.179688 32.074219 16.035156 "/>
<path style=" stroke:none;fill-rule:nonzero;fill:rgb(1.176471%,27.45098%,58.039216%);fill-opacity:1;" d="M 31.539062 16.035156 C 31.539062 24.597656 24.597656 31.539062 16.035156 31.539062 C 7.476562 31.539062 0.535156 24.597656 0.535156 16.035156 C 0.535156 7.476562 7.476562 0.535156 16.035156 0.535156 C 24.597656 0.535156 31.539062 7.476562 31.539062 16.035156 "/>
<path style=" stroke:none;fill-rule:nonzero;fill:rgb(85.882353%,63.137255%,6.666667%);fill-opacity:1;" d="M 27.082031 16.035156 C 27.082031 22.136719 22.136719 27.082031 16.035156 27.082031 C 9.933594 27.082031 4.988281 22.136719 4.988281 16.035156 C 4.988281 9.933594 9.933594 4.988281 16.035156 4.988281 C 22.136719 4.988281 27.082031 9.933594 27.082031 16.035156 "/>
<path style=" stroke:none;fill-rule:nonzero;fill:rgb(100%,100%,100%);fill-opacity:1;" d="M 26.75 16.035156 C 26.75 21.953125 21.953125 26.75 16.035156 26.75 C 10.121094 26.75 5.324219 21.953125 5.324219 16.035156 C 5.324219 10.121094 10.121094 5.324219 16.035156 5.324219 C 21.953125 5.324219 26.75 10.121094 26.75 16.035156 "/>
<path style=" stroke:none;fill-rule:nonzero;fill:rgb(85.882353%,63.137255%,6.666667%);fill-opacity:1;" d="M 6.855469 25.277344 C 6.976562 25.390625 7.265625 25.667969 7.265625 25.667969 L 7.546875 25.375 L 6.714844 24.582031 L 6.605469 24.691406 L 5.484375 25.867188 L 5.910156 26.269531 C 5.910156 26.269531 6.269531 25.894531 6.402344 25.757812 C 6.511719 25.863281 6.773438 26.113281 6.773438 26.113281 L 7.054688 25.820312 C 7.054688 25.820312 6.792969 25.566406 6.683594 25.464844 C 6.75 25.390625 6.785156 25.351562 6.855469 25.277344 "/>
<path style=" stroke:none;fill-rule:nonzero;fill:rgb(85.882353%,63.137255%,6.666667%);fill-opacity:1;" d="M 8.867188 26.617188 C 8.832031 26.394531 8.703125 26.195312 8.511719 26.058594 C 8.324219 25.925781 8.09375 25.871094 7.867188 25.90625 C 7.625 25.949219 7.410156 26.089844 7.253906 26.304688 C 7.101562 26.519531 7.039062 26.773438 7.082031 27.015625 C 7.121094 27.242188 7.246094 27.4375 7.4375 27.574219 C 7.625 27.710938 7.855469 27.765625 8.082031 27.726562 C 8.324219 27.683594 8.542969 27.542969 8.695312 27.328125 C 8.816406 27.15625 8.878906 26.960938 8.878906 26.765625 C 8.878906 26.71875 8.875 26.667969 8.867188 26.617188 M 7.671875 27.242188 C 7.476562 27.105469 7.636719 26.816406 7.75 26.65625 C 7.863281 26.5 8.082031 26.25 8.277344 26.390625 C 8.480469 26.535156 8.292969 26.847656 8.199219 26.976562 C 8.109375 27.105469 7.875 27.386719 7.671875 27.242188 Z M 7.671875 27.242188 "/>
<path style=" stroke:none;fill-rule:nonzero;fill:rgb(85.882353%,63.137255%,6.666667%);fill-opacity:1;" d="M 10.179688 27.0625 C 9.730469 26.835938 9.210938 27.023438 8.972656 27.496094 C 8.851562 27.730469 8.828125 27.992188 8.90625 28.222656 C 8.976562 28.441406 9.132812 28.617188 9.339844 28.722656 C 9.550781 28.828125 9.785156 28.847656 10 28.777344 C 10.234375 28.699219 10.429688 28.527344 10.546875 28.292969 C 10.789062 27.820312 10.628906 27.292969 10.179688 27.0625 M 9.683594 28.375 C 9.628906 28.394531 9.578125 28.390625 9.523438 28.359375 C 9.433594 28.316406 9.402344 28.234375 9.402344 28.144531 C 9.402344 28.019531 9.464844 27.871094 9.515625 27.769531 C 9.601562 27.59375 9.78125 27.320312 9.996094 27.425781 C 10.050781 27.453125 10.085938 27.492188 10.101562 27.542969 C 10.136719 27.652344 10.101562 27.828125 10.007812 28.019531 C 9.910156 28.207031 9.789062 28.339844 9.683594 28.375 Z M 9.683594 28.375 "/>
<path style=" stroke:none;fill-rule:nonzero;fill:rgb(85.882353%,63.137255%,6.666667%);fill-opacity:1;" d="M 11.105469 27.714844 L 11.023438 27.949219 C 11.023438 27.949219 11.234375 28.023438 11.296875 28.046875 C 11.21875 28.277344 10.84375 29.339844 10.84375 29.339844 L 11.398438 29.535156 C 11.398438 29.535156 11.769531 28.472656 11.851562 28.242188 C 11.917969 28.261719 12.128906 28.335938 12.128906 28.335938 L 12.261719 27.953125 L 11.15625 27.566406 L 11.105469 27.714844 "/>
<path style=" stroke:none;fill-rule:nonzero;fill:rgb(85.882353%,63.137255%,6.666667%);fill-opacity:1;" d="M 13.402344 28.226562 L 12.65625 28.070312 L 12.621094 28.222656 L 12.289062 29.808594 L 13.050781 29.96875 C 13.292969 30.019531 13.453125 29.960938 13.542969 29.902344 C 13.660156 29.824219 13.742188 29.699219 13.773438 29.550781 C 13.78125 29.511719 13.785156 29.472656 13.785156 29.433594 C 13.785156 29.328125 13.75 29.230469 13.691406 29.148438 C 13.777344 29.082031 13.835938 28.984375 13.863281 28.863281 C 13.867188 28.832031 13.871094 28.796875 13.871094 28.761719 C 13.871094 28.558594 13.757812 28.300781 13.402344 28.226562 M 13.195312 29.4375 C 13.1875 29.472656 13.175781 29.523438 13.148438 29.539062 C 13.121094 29.558594 13.074219 29.558594 13.007812 29.546875 C 13.007812 29.546875 12.980469 29.539062 12.945312 29.53125 C 12.972656 29.417969 12.988281 29.339844 13.011719 29.226562 C 13.042969 29.234375 13.085938 29.242188 13.085938 29.242188 C 13.183594 29.261719 13.203125 29.335938 13.203125 29.390625 C 13.203125 29.410156 13.199219 29.429688 13.195312 29.4375 Z M 13.144531 28.589844 C 13.210938 28.605469 13.257812 28.628906 13.277344 28.65625 C 13.285156 28.667969 13.289062 28.6875 13.289062 28.707031 C 13.289062 28.722656 13.289062 28.734375 13.285156 28.753906 C 13.273438 28.800781 13.261719 28.863281 13.132812 28.839844 C 13.132812 28.839844 13.117188 28.835938 13.09375 28.828125 C 13.113281 28.734375 13.125 28.6875 13.144531 28.589844 Z M 13.144531 28.589844 "/>
<path style=" stroke:none;fill-rule:nonzero;fill:rgb(85.882353%,63.137255%,6.666667%);fill-opacity:1;" d="M 14.78125 28.484375 L 13.96875 30.148438 L 14.433594 30.183594 C 14.433594 30.183594 14.558594 29.917969 14.609375 29.8125 C 14.707031 29.820312 14.804688 29.828125 14.902344 29.835938 C 14.9375 29.945312 15.027344 30.230469 15.027344 30.230469 L 15.644531 30.277344 L 14.957031 28.140625 L 14.78125 28.484375 "/>
<path style=" stroke:none;fill-rule:nonzero;fill:rgb(85.882353%,63.137255%,6.666667%);fill-opacity:1;" d="M 16.613281 29.8125 C 16.601562 29.570312 16.554688 28.464844 16.554688 28.464844 L 15.96875 28.488281 L 16.042969 30.261719 L 17.21875 30.214844 L 17.203125 29.789062 C 17.203125 29.789062 16.78125 29.804688 16.613281 29.8125 "/>
<path style=" stroke:none;fill-rule:nonzero;fill:rgb(85.882353%,63.137255%,6.666667%);fill-opacity:1;" d="M 18.21875 29.640625 C 18.183594 29.402344 18.011719 28.308594 18.011719 28.308594 L 17.859375 28.332031 L 17.429688 28.398438 L 17.707031 30.15625 L 18.867188 29.972656 L 18.800781 29.550781 C 18.800781 29.550781 18.386719 29.617188 18.21875 29.640625 "/>
<path style=" stroke:none;fill-rule:nonzero;fill:rgb(85.882353%,63.137255%,6.666667%);fill-opacity:1;" d="M 21.582031 28.460938 C 21.578125 28.613281 21.488281 28.746094 21.347656 28.800781 C 21.269531 28.832031 21.195312 28.832031 21.121094 28.800781 C 21.007812 28.75 20.902344 28.628906 20.839844 28.46875 C 20.765625 28.28125 20.75 28.125 20.800781 28.011719 C 20.832031 27.933594 20.898438 27.875 21 27.835938 C 21.109375 27.792969 21.210938 27.832031 21.355469 27.914062 L 21.484375 27.992188 L 21.699219 27.652344 L 21.570312 27.566406 C 21.335938 27.410156 21.042969 27.378906 20.792969 27.480469 C 20.558594 27.574219 20.375 27.75 20.28125 27.972656 C 20.183594 28.199219 20.183594 28.457031 20.28125 28.703125 C 20.46875 29.171875 20.996094 29.402344 21.457031 29.214844 C 21.789062 29.082031 21.976562 28.832031 22 28.484375 L 22.011719 28.332031 L 21.589844 28.296875 L 21.582031 28.460938 "/>
<path style=" stroke:none;fill-rule:nonzero;fill:rgb(85.882353%,63.137255%,6.666667%);fill-opacity:1;" d="M 22.949219 27.976562 C 22.832031 27.761719 22.292969 26.796875 22.292969 26.796875 L 22.15625 26.871094 L 21.777344 27.082031 L 22.644531 28.632812 L 23.671875 28.0625 L 23.464844 27.6875 C 23.464844 27.6875 23.097656 27.894531 22.949219 27.976562 "/>
<path style=" stroke:none;fill-rule:nonzero;fill:rgb(85.882353%,63.137255%,6.666667%);fill-opacity:1;" d="M 24.089844 25.582031 L 23.964844 25.675781 L 23.746094 25.835938 L 24.464844 26.820312 C 24.496094 26.863281 24.496094 26.890625 24.496094 26.910156 C 24.488281 26.960938 24.433594 27.015625 24.390625 27.046875 C 24.367188 27.066406 24.316406 27.085938 24.265625 27.078125 C 24.226562 27.074219 24.199219 27.050781 24.171875 27.015625 L 23.460938 26.046875 L 22.984375 26.394531 L 23.695312 27.359375 C 23.796875 27.5 23.929688 27.585938 24.082031 27.609375 C 24.253906 27.636719 24.445312 27.578125 24.625 27.445312 C 24.996094 27.171875 24.992188 26.8125 24.828125 26.59375 L 24.089844 25.582031 "/>
<path style=" stroke:none;fill-rule:nonzero;fill:rgb(85.882353%,63.137255%,6.666667%);fill-opacity:1;" d="M 26.25 25.226562 C 26.140625 25.113281 26.007812 25.0625 25.867188 25.070312 C 25.855469 24.960938 25.816406 24.855469 25.730469 24.769531 C 25.582031 24.613281 25.25 24.496094 24.945312 24.792969 L 24.394531 25.324219 L 25.632812 26.601562 L 26.191406 26.058594 C 26.371094 25.886719 26.410156 25.71875 26.410156 25.609375 C 26.414062 25.472656 26.355469 25.335938 26.25 25.226562 M 25.316406 25.183594 C 25.335938 25.203125 25.355469 25.226562 25.355469 25.257812 C 25.355469 25.285156 25.34375 25.316406 25.300781 25.359375 C 25.300781 25.359375 25.289062 25.371094 25.273438 25.386719 C 25.203125 25.3125 25.171875 25.28125 25.101562 25.207031 C 25.222656 25.09375 25.277344 25.144531 25.316406 25.183594 Z M 25.609375 25.625 C 25.710938 25.527344 25.804688 25.613281 25.832031 25.640625 C 25.859375 25.667969 25.890625 25.707031 25.890625 25.738281 C 25.890625 25.769531 25.863281 25.8125 25.816406 25.855469 C 25.816406 25.855469 25.796875 25.875 25.773438 25.898438 C 25.691406 25.816406 25.636719 25.761719 25.554688 25.675781 C 25.578125 25.652344 25.609375 25.625 25.609375 25.625 Z M 25.609375 25.625 "/>
<path style=" stroke:none;fill-rule:nonzero;fill:rgb(100%,100%,100%);fill-opacity:1;" d="M 6.851562 25.113281 C 6.902344 25.160156 7.261719 25.503906 7.261719 25.503906 L 7.382812 25.378906 L 6.714844 24.746094 L 6.691406 24.773438 L 5.652344 25.863281 L 5.90625 26.105469 C 5.90625 26.105469 6.351562 25.644531 6.398438 25.59375 C 6.445312 25.636719 6.769531 25.949219 6.769531 25.949219 L 6.890625 25.824219 C 6.890625 25.824219 6.566406 25.511719 6.515625 25.46875 C 6.558594 25.421875 6.8125 25.160156 6.851562 25.113281 "/>
<path style=" stroke:none;fill-rule:nonzero;fill:rgb(100%,100%,100%);fill-opacity:1;" d="M 8.445312 26.152344 C 8.28125 26.035156 8.082031 25.988281 7.890625 26.023438 C 7.675781 26.058594 7.484375 26.183594 7.351562 26.371094 C 7.214844 26.5625 7.160156 26.785156 7.195312 26.996094 C 7.230469 27.191406 7.339844 27.363281 7.503906 27.480469 C 7.667969 27.597656 7.867188 27.644531 8.0625 27.609375 C 8.273438 27.574219 8.464844 27.449219 8.597656 27.261719 C 8.707031 27.109375 8.765625 26.9375 8.765625 26.765625 C 8.765625 26.722656 8.761719 26.679688 8.753906 26.636719 C 8.71875 26.445312 8.609375 26.273438 8.445312 26.152344 M 8.292969 27.042969 C 8.183594 27.199219 7.894531 27.542969 7.605469 27.335938 C 7.316406 27.132812 7.542969 26.746094 7.65625 26.589844 C 7.765625 26.433594 8.058594 26.089844 8.34375 26.292969 C 8.632812 26.5 8.40625 26.886719 8.292969 27.042969 Z M 8.292969 27.042969 "/>
<path style=" stroke:none;fill-rule:nonzero;fill:rgb(100%,100%,100%);fill-opacity:1;" d="M 10.125 27.167969 C 9.738281 26.972656 9.285156 27.136719 9.078125 27.550781 C 8.972656 27.757812 8.949219 27.984375 9.015625 28.1875 C 9.078125 28.375 9.210938 28.527344 9.394531 28.617188 C 9.574219 28.710938 9.777344 28.726562 9.964844 28.664062 C 10.167969 28.597656 10.339844 28.449219 10.445312 28.238281 C 10.652344 27.828125 10.515625 27.367188 10.125 27.167969 M 9.472656 28.464844 C 9.15625 28.304688 9.324219 27.886719 9.410156 27.71875 C 9.496094 27.546875 9.734375 27.164062 10.046875 27.324219 C 10.132812 27.363281 10.1875 27.425781 10.214844 27.507812 C 10.277344 27.699219 10.175781 27.941406 10.109375 28.070312 C 10.046875 28.199219 9.90625 28.425781 9.71875 28.488281 C 9.636719 28.515625 9.554688 28.507812 9.472656 28.464844 Z M 9.472656 28.464844 "/>
<path style=" stroke:none;fill-rule:nonzero;fill:rgb(100%,100%,100%);fill-opacity:1;" d="M 11.214844 27.75 L 11.171875 27.878906 C 11.171875 27.878906 11.390625 27.957031 11.445312 27.976562 C 11.421875 28.042969 10.992188 29.269531 10.992188 29.269531 L 11.328125 29.386719 C 11.328125 29.386719 11.757812 28.160156 11.78125 28.09375 C 11.835938 28.113281 12.054688 28.1875 12.054688 28.1875 L 12.113281 28.027344 L 11.226562 27.714844 L 11.214844 27.75 "/>
<path style=" stroke:none;fill-rule:nonzero;fill:rgb(100%,100%,100%);fill-opacity:1;" d="M 13.378906 28.339844 L 12.746094 28.207031 L 12.738281 28.246094 L 12.425781 29.71875 L 13.074219 29.855469 C 13.238281 29.890625 13.375 29.871094 13.480469 29.800781 C 13.570312 29.742188 13.632812 29.648438 13.660156 29.527344 C 13.664062 29.496094 13.667969 29.464844 13.667969 29.433594 C 13.667969 29.304688 13.605469 29.199219 13.492188 29.121094 C 13.621094 29.082031 13.71875 28.984375 13.746094 28.839844 C 13.753906 28.816406 13.757812 28.789062 13.757812 28.761719 C 13.757812 28.613281 13.679688 28.402344 13.378906 28.339844 M 13.15625 28.472656 C 13.265625 28.492188 13.335938 28.535156 13.375 28.59375 C 13.398438 28.625 13.40625 28.664062 13.40625 28.707031 C 13.40625 28.730469 13.40625 28.753906 13.398438 28.777344 C 13.359375 28.972656 13.199219 28.972656 13.109375 28.953125 C 13.109375 28.953125 13.011719 28.933594 12.957031 28.921875 C 12.96875 28.859375 13.042969 28.511719 13.054688 28.449219 C 13.097656 28.457031 13.15625 28.472656 13.15625 28.472656 Z M 13.109375 29.128906 C 13.289062 29.167969 13.316406 29.308594 13.316406 29.394531 C 13.316406 29.433594 13.3125 29.457031 13.308594 29.460938 C 13.292969 29.546875 13.261719 29.605469 13.210938 29.636719 C 13.15625 29.671875 13.082031 29.679688 12.984375 29.660156 C 12.984375 29.660156 12.871094 29.636719 12.808594 29.621094 C 12.820312 29.558594 12.90625 29.152344 12.921875 29.089844 C 12.972656 29.101562 13.109375 29.128906 13.109375 29.128906 Z M 13.109375 29.128906 "/>
<path style=" stroke:none;fill-rule:nonzero;fill:rgb(100%,100%,100%);fill-opacity:1;" d="M 14.886719 28.535156 L 14.152344 30.046875 L 14.363281 30.0625 C 14.363281 30.0625 14.519531 29.734375 14.539062 29.691406 C 14.585938 29.695312 14.945312 29.722656 14.988281 29.726562 C 15.003906 29.769531 15.117188 30.121094 15.117188 30.121094 L 15.480469 30.148438 L 14.933594 28.449219 L 14.886719 28.535156 M 14.804688 29.144531 C 14.84375 29.257812 14.910156 29.476562 14.933594 29.546875 C 14.859375 29.542969 14.691406 29.53125 14.621094 29.523438 C 14.652344 29.457031 14.753906 29.25 14.804688 29.144531 Z M 14.804688 29.144531 "/>
<path style=" stroke:none;fill-rule:nonzero;fill:rgb(100%,100%,100%);fill-opacity:1;" d="M 16.5 29.933594 C 16.5 29.859375 16.445312 28.585938 16.445312 28.585938 L 16.40625 28.585938 L 16.089844 28.597656 L 16.15625 30.140625 L 17.097656 30.101562 L 17.089844 29.910156 C 17.089844 29.910156 16.570312 29.933594 16.5 29.933594 "/>
<path style=" stroke:none;fill-rule:nonzero;fill:rgb(100%,100%,100%);fill-opacity:1;" d="M 18.125 29.777344 C 18.113281 29.703125 17.914062 28.441406 17.914062 28.441406 L 17.875 28.449219 L 17.566406 28.496094 L 17.804688 30.023438 L 18.734375 29.875 L 18.707031 29.683594 C 18.703125 29.683594 18.191406 29.765625 18.125 29.777344 "/>
<path style=" stroke:none;fill-rule:nonzero;fill:rgb(100%,100%,100%);fill-opacity:1;" d="M 21.699219 28.464844 C 21.695312 28.664062 21.574219 28.835938 21.390625 28.910156 C 21.285156 28.953125 21.179688 28.949219 21.078125 28.90625 C 20.933594 28.847656 20.808594 28.703125 20.730469 28.511719 C 20.644531 28.296875 20.632812 28.105469 20.691406 27.964844 C 20.738281 27.859375 20.828125 27.777344 20.957031 27.726562 C 21.125 27.660156 21.28125 27.738281 21.414062 27.816406 L 21.445312 27.832031 L 21.539062 27.683594 L 21.507812 27.664062 C 21.304688 27.53125 21.050781 27.5 20.835938 27.589844 C 20.628906 27.671875 20.46875 27.824219 20.386719 28.019531 C 20.300781 28.214844 20.300781 28.445312 20.390625 28.660156 C 20.550781 29.070312 21.011719 29.269531 21.414062 29.109375 C 21.707031 28.992188 21.863281 28.777344 21.886719 28.476562 L 21.886719 28.4375 L 21.703125 28.425781 L 21.699219 28.464844 "/>
<path style=" stroke:none;fill-rule:nonzero;fill:rgb(100%,100%,100%);fill-opacity:1;" d="M 22.90625 28.136719 C 22.871094 28.070312 22.246094 26.953125 22.246094 26.953125 L 22.210938 26.972656 L 21.9375 27.128906 L 22.691406 28.476562 L 23.511719 28.015625 L 23.417969 27.847656 C 23.417969 27.847656 22.964844 28.101562 22.90625 28.136719 "/>
<path style=" stroke:none;fill-rule:nonzero;fill:rgb(100%,100%,100%);fill-opacity:1;" d="M 24.066406 25.746094 L 24.035156 25.769531 L 23.90625 25.863281 L 24.558594 26.75 C 24.601562 26.808594 24.621094 26.867188 24.609375 26.925781 C 24.59375 27.03125 24.5 27.113281 24.457031 27.140625 C 24.410156 27.175781 24.328125 27.207031 24.246094 27.191406 C 24.179688 27.183594 24.121094 27.144531 24.078125 27.085938 L 23.433594 26.210938 L 23.148438 26.417969 L 23.789062 27.289062 C 23.875 27.40625 23.980469 27.476562 24.097656 27.496094 C 24.289062 27.523438 24.46875 27.417969 24.558594 27.351562 C 24.867188 27.125 24.871094 26.839844 24.738281 26.660156 L 24.066406 25.746094 "/>
<path style=" stroke:none;fill-rule:nonzero;fill:rgb(100%,100%,100%);fill-opacity:1;" d="M 26.167969 25.308594 C 26.046875 25.183594 25.894531 25.15625 25.734375 25.21875 C 25.75 25.179688 25.757812 25.144531 25.757812 25.105469 C 25.757812 25.011719 25.71875 24.921875 25.644531 24.847656 C 25.546875 24.746094 25.289062 24.621094 25.027344 24.875 L 24.5625 25.328125 L 25.636719 26.433594 L 26.109375 25.972656 C 26.230469 25.859375 26.292969 25.734375 26.292969 25.609375 C 26.296875 25.5 26.25 25.394531 26.167969 25.308594 M 25.472656 25.261719 C 25.472656 25.335938 25.421875 25.402344 25.382812 25.441406 C 25.382812 25.441406 25.3125 25.511719 25.269531 25.550781 C 25.226562 25.503906 24.976562 25.25 24.933594 25.203125 C 24.964844 25.175781 25.011719 25.132812 25.011719 25.132812 C 25.15625 24.992188 25.28125 24.980469 25.398438 25.101562 C 25.453125 25.160156 25.472656 25.210938 25.472656 25.261719 Z M 25.769531 26.066406 C 25.726562 26.019531 25.433594 25.71875 25.390625 25.671875 C 25.429688 25.636719 25.527344 25.539062 25.527344 25.539062 C 25.71875 25.355469 25.910156 25.550781 25.917969 25.558594 C 25.976562 25.621094 26.007812 25.679688 26.007812 25.738281 C 26.007812 25.804688 25.96875 25.871094 25.898438 25.941406 C 25.898438 25.941406 25.808594 26.027344 25.769531 26.066406 Z M 25.769531 26.066406 "/>
<path style=" stroke:none;fill-rule:nonzero;fill:rgb(85.882353%,63.137255%,6.666667%);fill-opacity:1;" d="M 8.910156 5.472656 L 8.261719 5.648438 L 8.339844 5.878906 C 8.425781 6.160156 8.347656 6.457031 8.128906 6.648438 C 8.003906 6.753906 7.863281 6.804688 7.707031 6.792969 C 7.472656 6.777344 7.207031 6.625 6.996094 6.382812 C 6.746094 6.101562 6.625 5.828125 6.640625 5.597656 C 6.652344 5.425781 6.734375 5.277344 6.890625 5.140625 C 7.0625 4.988281 7.285156 4.996094 7.585938 5.054688 L 7.804688 5.097656 L 7.949219 4.476562 L 7.726562 4.421875 C 7.246094 4.304688 6.746094 4.421875 6.386719 4.734375 C 5.6875 5.34375 5.632812 6.34375 6.253906 7.058594 C 6.835938 7.722656 7.839844 7.792969 8.496094 7.21875 C 8.96875 6.808594 9.132812 6.28125 8.972656 5.695312 L 8.910156 5.472656 "/>
<path style=" stroke:none;fill-rule:nonzero;fill:rgb(85.882353%,63.137255%,6.666667%);fill-opacity:1;" d="M 10.671875 2.222656 L 10.011719 2.53125 C 10.011719 2.53125 10.378906 3.316406 10.507812 3.585938 C 10.316406 3.675781 10.132812 3.761719 9.945312 3.851562 C 9.816406 3.582031 9.449219 2.796875 9.449219 2.796875 L 8.578125 3.207031 L 9.902344 6.023438 L 10.777344 5.613281 C 10.777344 5.613281 10.367188 4.742188 10.234375 4.460938 C 10.421875 4.371094 10.605469 4.285156 10.792969 4.195312 C 10.925781 4.476562 11.335938 5.347656 11.335938 5.347656 L 12.210938 4.9375 L 10.882812 2.121094 L 10.671875 2.222656 "/>
<path style=" stroke:none;fill-rule:nonzero;fill:rgb(85.882353%,63.137255%,6.666667%);fill-opacity:1;" d="M 13.625 3.964844 C 13.582031 3.757812 13.539062 3.542969 13.496094 3.332031 C 13.765625 3.277344 14.480469 3.132812 14.480469 3.132812 L 14.355469 2.507812 C 14.355469 2.507812 13.640625 2.652344 13.371094 2.707031 C 13.332031 2.515625 13.300781 2.355469 13.261719 2.164062 C 13.539062 2.105469 14.304688 1.953125 14.304688 1.953125 L 14.179688 1.328125 L 13.949219 1.375 L 12.1875 1.730469 L 12.804688 4.78125 L 14.8125 4.375 L 14.683594 3.75 C 14.683594 3.75 13.90625 3.910156 13.625 3.964844 "/>
<path style=" stroke:none;fill-rule:nonzero;fill:rgb(85.882353%,63.137255%,6.666667%);fill-opacity:1;" d="M 16.472656 1.253906 L 15.503906 1.234375 L 15.5 1.46875 L 15.441406 4.347656 L 17.464844 4.390625 L 17.480469 3.714844 C 17.480469 3.714844 16.703125 3.699219 16.417969 3.695312 C 16.425781 3.3125 16.472656 1.253906 16.472656 1.253906 "/>
<path style=" stroke:none;fill-rule:nonzero;fill:rgb(85.882353%,63.137255%,6.666667%);fill-opacity:1;" d="M 19.597656 2.824219 C 19.347656 2.640625 19.273438 2.566406 19.300781 2.46875 C 19.3125 2.414062 19.371094 2.25 19.550781 2.292969 C 19.65625 2.320312 19.765625 2.378906 19.8125 2.609375 L 19.867188 2.871094 L 20.503906 2.652344 L 20.464844 2.453125 C 20.386719 2.058594 20.050781 1.722656 19.632812 1.621094 C 19.332031 1.542969 19.035156 1.585938 18.785156 1.734375 C 18.5625 1.867188 18.402344 2.082031 18.339844 2.335938 C 18.179688 2.972656 18.609375 3.28125 18.894531 3.484375 C 19.183594 3.695312 19.257812 3.773438 19.214844 3.949219 C 19.199219 4.003906 19.167969 4.046875 19.117188 4.078125 C 19.058594 4.113281 18.988281 4.125 18.925781 4.109375 C 18.773438 4.070312 18.707031 4 18.644531 3.800781 L 18.566406 3.5625 L 17.925781 3.824219 L 17.988281 4.027344 C 18.105469 4.421875 18.394531 4.671875 18.863281 4.789062 C 19.386719 4.917969 20.027344 4.675781 20.1875 4.046875 C 20.351562 3.378906 19.898438 3.046875 19.597656 2.824219 "/>
<path style=" stroke:none;fill-rule:nonzero;fill:rgb(85.882353%,63.137255%,6.666667%);fill-opacity:1;" d="M 21.902344 4.484375 C 22.148438 4.609375 22.796875 4.9375 22.796875 4.9375 L 23.085938 4.371094 C 23.085938 4.371094 22.433594 4.039062 22.191406 3.917969 C 22.277344 3.742188 22.351562 3.59375 22.4375 3.421875 C 22.691406 3.550781 23.390625 3.902344 23.390625 3.902344 L 23.679688 3.332031 L 21.867188 2.417969 L 21.761719 2.625 L 20.460938 5.195312 L 22.289062 6.117188 L 22.578125 5.550781 C 22.578125 5.550781 21.867188 5.191406 21.609375 5.0625 C 21.707031 4.871094 21.804688 4.675781 21.902344 4.484375 "/>
<path style=" stroke:none;fill-rule:nonzero;fill:rgb(85.882353%,63.137255%,6.666667%);fill-opacity:1;" d="M 25.511719 4.777344 L 22.605469 6.28125 L 23.164062 6.761719 C 23.164062 6.761719 23.640625 6.507812 23.816406 6.417969 C 23.945312 6.527344 24.136719 6.695312 24.265625 6.804688 C 24.203125 6.992188 24.023438 7.511719 24.023438 7.511719 L 24.789062 8.179688 L 26.03125 4.515625 L 25.511719 4.777344 "/>
<path style=" stroke:none;fill-rule:nonzero;fill:rgb(100%,100%,100%);fill-opacity:1;" d="M 8.804688 5.660156 L 8.460938 5.753906 L 8.484375 5.832031 C 8.59375 6.171875 8.496094 6.53125 8.230469 6.765625 C 8.074219 6.898438 7.894531 6.960938 7.699219 6.949219 C 7.417969 6.929688 7.121094 6.761719 6.878906 6.484375 C 6.601562 6.171875 6.464844 5.859375 6.484375 5.585938 C 6.5 5.375 6.601562 5.1875 6.789062 5.023438 C 7.035156 4.808594 7.34375 4.847656 7.613281 4.902344 L 7.6875 4.914062 L 7.761719 4.589844 L 7.6875 4.574219 C 7.257812 4.46875 6.808594 4.570312 6.488281 4.851562 C 5.859375 5.40625 5.808594 6.308594 6.371094 6.957031 C 6.894531 7.554688 7.804688 7.621094 8.394531 7.101562 C 8.824219 6.726562 8.96875 6.265625 8.824219 5.738281 L 8.804688 5.660156 "/>
<path style=" stroke:none;fill-rule:nonzero;fill:rgb(100%,100%,100%);fill-opacity:1;" d="M 10.738281 2.359375 L 10.21875 2.605469 C 10.21875 2.605469 10.65625 3.539062 10.714844 3.660156 C 10.601562 3.710938 9.984375 4.003906 9.871094 4.058594 C 9.8125 3.933594 9.375 3.003906 9.375 3.003906 L 8.78125 3.28125 L 9.976562 5.816406 L 10.570312 5.539062 C 10.570312 5.539062 10.085938 4.511719 10.027344 4.386719 C 10.136719 4.332031 10.757812 4.042969 10.867188 3.988281 C 10.925781 4.113281 11.414062 5.140625 11.414062 5.140625 L 12.003906 4.863281 L 10.808594 2.328125 L 10.738281 2.359375 "/>
<path style=" stroke:none;fill-rule:nonzero;fill:rgb(100%,100%,100%);fill-opacity:1;" d="M 13.5 4.148438 C 13.476562 4.027344 13.335938 3.332031 13.3125 3.210938 C 13.441406 3.1875 14.296875 3.011719 14.296875 3.011719 L 14.234375 2.691406 C 14.234375 2.691406 13.378906 2.863281 13.246094 2.890625 C 13.222656 2.773438 13.101562 2.160156 13.078125 2.042969 C 13.207031 2.015625 14.121094 1.832031 14.121094 1.832031 L 14.058594 1.511719 L 12.371094 1.851562 L 12.925781 4.597656 L 14.628906 4.253906 L 14.5625 3.933594 C 14.5625 3.933594 13.632812 4.121094 13.5 4.148438 "/>
<path style=" stroke:none;fill-rule:nonzero;fill:rgb(100%,100%,100%);fill-opacity:1;" d="M 16.3125 1.40625 L 15.660156 1.394531 L 15.65625 1.46875 L 15.597656 4.195312 L 17.316406 4.230469 L 17.324219 3.867188 C 17.324219 3.867188 16.394531 3.847656 16.261719 3.84375 C 16.265625 3.699219 16.3125 1.40625 16.3125 1.40625 "/>
<path style=" stroke:none;fill-rule:nonzero;fill:rgb(100%,100%,100%);fill-opacity:1;" d="M 19.585938 2.144531 C 19.792969 2.195312 19.914062 2.332031 19.964844 2.578125 L 19.984375 2.664062 L 20.324219 2.550781 L 20.3125 2.484375 C 20.246094 2.148438 19.957031 1.859375 19.597656 1.769531 C 19.335938 1.703125 19.078125 1.738281 18.867188 1.867188 C 18.675781 1.980469 18.542969 2.160156 18.488281 2.375 C 18.355469 2.910156 18.703125 3.15625 18.984375 3.359375 C 19.265625 3.5625 19.4375 3.699219 19.367188 3.988281 C 19.335938 4.105469 19.257812 4.175781 19.199219 4.210938 C 19.105469 4.265625 18.988281 4.285156 18.890625 4.257812 C 18.683594 4.207031 18.578125 4.097656 18.496094 3.847656 L 18.46875 3.769531 L 18.117188 3.914062 L 18.136719 3.980469 C 18.238281 4.320312 18.488281 4.535156 18.898438 4.636719 C 19.351562 4.75 19.898438 4.546875 20.035156 4.007812 C 20.175781 3.441406 19.804688 3.167969 19.503906 2.949219 C 19.25 2.761719 19.097656 2.636719 19.148438 2.429688 C 19.195312 2.242188 19.347656 2.082031 19.585938 2.144531 "/>
<path style=" stroke:none;fill-rule:nonzero;fill:rgb(100%,100%,100%);fill-opacity:1;" d="M 22.371094 3.210938 C 22.488281 3.273438 23.320312 3.691406 23.320312 3.691406 L 23.46875 3.402344 L 21.933594 2.625 L 21.898438 2.695312 L 20.671875 5.128906 L 22.21875 5.910156 L 22.367188 5.617188 C 22.367188 5.617188 21.523438 5.191406 21.402344 5.128906 C 21.457031 5.019531 21.777344 4.386719 21.832031 4.277344 C 21.949219 4.335938 22.730469 4.730469 22.730469 4.730469 L 22.878906 4.4375 C 22.878906 4.4375 22.097656 4.046875 21.980469 3.984375 C 22.035156 3.878906 22.316406 3.320312 22.371094 3.210938 "/>
<path style=" stroke:none;fill-rule:nonzero;fill:rgb(100%,100%,100%);fill-opacity:1;" d="M 25.582031 4.914062 L 22.882812 6.3125 L 23.183594 6.574219 C 23.183594 6.574219 23.757812 6.269531 23.835938 6.226562 C 23.90625 6.289062 24.378906 6.699219 24.445312 6.757812 C 24.417969 6.84375 24.203125 7.464844 24.203125 7.464844 L 24.714844 7.910156 L 25.761719 4.832031 L 25.582031 4.914062 M 24.148438 6.066406 C 24.277344 6 24.605469 5.832031 24.804688 5.726562 C 24.730469 5.941406 24.605469 6.289062 24.558594 6.425781 C 24.457031 6.332031 24.253906 6.15625 24.148438 6.066406 Z M 24.148438 6.066406 "/>
<path style=" stroke:none;fill-rule:nonzero;fill:rgb(81.960784%,82.745098%,83.137255%);fill-opacity:1;" d="M 23.699219 15.617188 C 23.476562 15.027344 22.714844 14.773438 21.992188 15.046875 C 21.691406 15.160156 21.445312 15.347656 21.277344 15.570312 C 21.753906 14.214844 23.691406 13.925781 23.691406 12.660156 C 23.691406 10.542969 20.683594 11.136719 21.121094 12.660156 C 21.121094 11.96875 22.222656 11.84375 22.222656 12.660156 C 22.222656 13.480469 20.304688 14.015625 20.304688 15.402344 C 20.304688 16.925781 21.828125 17.066406 21.675781 18.464844 C 21.648438 18.703125 21.390625 19.019531 21.015625 19.019531 C 18.679688 19.019531 19.511719 16.144531 18.695312 15.265625 L 18.738281 14.675781 C 19.210938 14.964844 20.464844 14.289062 19.636719 13.253906 C 19.636719 13.761719 18.578125 13.734375 18.578125 12.773438 C 18.578125 11.472656 19.792969 12.152344 19.855469 12.441406 C 19.796875 11.964844 19.773438 11.664062 19.851562 11.394531 C 19.195312 11.605469 19.136719 11.226562 19.21875 11.078125 C 19.3125 10.910156 19.441406 10.710938 19.695312 10.710938 C 19.832031 10.710938 19.917969 10.730469 19.964844 10.765625 C 20.046875 10.820312 20.105469 10.691406 20.09375 10.8125 C 20.164062 10.703125 20.136719 10.839844 20.203125 10.730469 C 20.273438 10.625 20.367188 10.503906 20.527344 10.34375 L 20.523438 10.105469 L 20.710938 10.175781 L 20.894531 9.878906 C 20.699219 9.46875 20.429688 9.667969 20.230469 9.15625 C 20.066406 9.113281 17.492188 9.394531 17.566406 8.367188 C 17.359375 8.367188 16.859375 8.484375 17.167969 8.902344 C 16.929688 8.929688 16.757812 8.660156 16.398438 9.394531 C 16.847656 9.308594 16.613281 9.8125 16.613281 9.957031 C 16.613281 10.886719 15.375 10.871094 15.375 10.4375 C 15.078125 10.726562 15.246094 11.359375 15.699219 11.515625 C 15.699219 11.515625 15.527344 12.195312 15.101562 12.625 C 14.472656 12.601562 13.464844 12.492188 12.882812 11.941406 C 12.632812 11.707031 12.433594 11.578125 12.261719 11.511719 L 12.261719 11.203125 C 12.511719 11.082031 12.785156 10.867188 13.066406 10.507812 C 13.285156 10.238281 13.40625 9.894531 13.375 9.527344 C 13.371094 9.484375 13.363281 9.441406 13.355469 9.398438 C 13.351562 9.382812 13.347656 9.371094 13.347656 9.359375 C 13.339844 9.328125 13.332031 9.300781 13.324219 9.269531 C 13.320312 9.257812 13.316406 9.242188 13.3125 9.226562 C 13.300781 9.199219 13.292969 9.171875 13.28125 9.144531 C 13.277344 9.132812 13.273438 9.117188 13.265625 9.109375 C 13.25 9.070312 13.234375 9.035156 13.214844 9 C 13.207031 8.984375 13.199219 8.972656 13.191406 8.957031 C 13.175781 8.9375 13.164062 8.914062 13.152344 8.894531 C 13.140625 8.878906 13.128906 8.863281 13.117188 8.847656 C 13.105469 8.832031 13.09375 8.8125 13.078125 8.796875 C 13.066406 8.78125 13.050781 8.761719 13.039062 8.746094 C 13.027344 8.734375 13.015625 8.726562 13.007812 8.714844 C 12.96875 8.675781 12.929688 8.636719 12.890625 8.601562 C 12.886719 8.597656 12.882812 8.59375 12.878906 8.589844 C 12.855469 8.570312 12.828125 8.550781 12.804688 8.535156 C 12.800781 8.527344 12.792969 8.523438 12.785156 8.519531 C 12.757812 8.5 12.734375 8.484375 12.707031 8.464844 C 12.703125 8.464844 12.703125 8.464844 12.699219 8.464844 C 12.4375 8.300781 12.117188 8.214844 11.777344 8.242188 C 10.964844 8.308594 10.363281 8.988281 10.429688 9.761719 C 10.484375 10.363281 10.925781 10.84375 11.503906 10.996094 C 11.300781 11.109375 11.128906 11.175781 11.09375 11.175781 C 11.097656 11.179688 11.105469 11.183594 11.117188 11.191406 C 11.117188 11.191406 11.121094 11.191406 11.125 11.195312 C 11.132812 11.199219 11.140625 11.203125 11.152344 11.210938 C 11.152344 11.210938 11.15625 11.210938 11.160156 11.214844 C 11.171875 11.21875 11.183594 11.226562 11.199219 11.234375 C 11.203125 11.234375 11.203125 11.238281 11.207031 11.238281 C 11.222656 11.242188 11.234375 11.25 11.25 11.257812 C 11.253906 11.257812 11.257812 11.257812 11.261719 11.261719 C 11.296875 11.277344 11.335938 11.289062 11.378906 11.300781 C 11.386719 11.304688 11.394531 11.304688 11.398438 11.304688 C 11.417969 11.3125 11.433594 11.316406 11.453125 11.320312 C 11.457031 11.320312 11.464844 11.320312 11.472656 11.324219 C 11.496094 11.328125 11.519531 11.332031 11.542969 11.335938 C 11.546875 11.335938 11.546875 11.335938 11.550781 11.335938 L 11.550781 11.511719 C 11.539062 11.511719 11.53125 11.511719 11.523438 11.515625 C 11.257812 11.558594 11.085938 11.640625 11.011719 11.875 C 10.933594 12.109375 11.011719 12.195312 11.136719 12.363281 C 11.03125 12.550781 10.757812 12.617188 11.113281 13.03125 C 11.089844 13.1875 11.121094 13.4375 11.347656 13.511719 C 11.421875 13.535156 11.484375 13.550781 11.550781 13.5625 L 11.550781 16.660156 C 11.324219 16.777344 11.210938 16.929688 11.148438 17.066406 C 11.148438 17.066406 10.96875 16.664062 10.980469 17.464844 C 11.1875 17.304688 11.105469 17.648438 11.105469 17.648438 C 10.824219 18.011719 11.179688 17.992188 11.179688 17.992188 C 11.421875 17.75 11.375 18.101562 11.375 18.101562 C 11.375 18.53125 11.546875 18.699219 11.550781 18.699219 L 11.550781 21.058594 L 11.34375 21.058594 L 11.34375 21.710938 L 11.707031 21.710938 C 11.503906 21.792969 11.371094 21.992188 11.390625 22.214844 C 11.414062 22.492188 11.671875 22.699219 11.964844 22.675781 C 12.253906 22.652344 12.472656 22.410156 12.445312 22.128906 C 12.429688 21.9375 12.304688 21.78125 12.128906 21.710938 L 12.460938 21.707031 L 12.460938 21.058594 L 12.261719 21.058594 L 12.261719 18.964844 C 12.304688 18.988281 12.347656 19.003906 12.394531 19.011719 C 12.414062 19.015625 12.433594 19.019531 12.453125 19.019531 C 12.460938 19.023438 12.472656 19.023438 12.480469 19.023438 C 12.425781 18.746094 12.589844 18.566406 12.589844 18.566406 C 12.675781 18.4375 12.796875 18.339844 12.9375 18.269531 C 13.351562 18.058594 13.917969 18.113281 14.085938 18.453125 C 15.160156 18.167969 16.082031 17.089844 16.082031 17.089844 L 16.613281 17.988281 C 15.492188 18.363281 13.050781 20.484375 14.746094 21.222656 C 14.746094 21.433594 14.714844 23.023438 13.699219 22.894531 C 12.234375 22.714844 11.867188 23.320312 12.148438 24.003906 C 12.015625 24.578125 12.457031 24.777344 12.457031 24.777344 C 12.390625 24.445312 12.550781 24.171875 13.15625 24.175781 C 13.15625 24.78125 13.546875 24.890625 13.546875 24.890625 C 13.550781 24.371094 13.910156 24.179688 14.230469 24.179688 C 14.226562 24.609375 14.722656 24.769531 14.722656 24.769531 C 14.722656 24.769531 14.597656 24.277344 15.160156 24.179688 C 16.582031 23.933594 15.246094 22.46875 17.40625 22.066406 C 17.40625 22.066406 16.332031 21.90625 16.332031 21.316406 C 16.332031 20.78125 17.304688 20.414062 17.640625 20.414062 C 18.328125 21.730469 19.074219 21.738281 19.273438 21.75 C 19.578125 22.089844 19.472656 23.238281 19.035156 23.214844 C 17.425781 23.128906 17.484375 24.105469 17.664062 24.308594 C 17.644531 24.6875 17.9375 24.90625 17.9375 24.90625 C 17.9375 24.5 18.328125 24.386719 18.824219 24.410156 C 18.796875 24.910156 19.113281 24.984375 19.113281 24.984375 C 19.125 24.484375 19.496094 24.398438 19.757812 24.410156 C 19.738281 24.761719 20.085938 24.867188 20.085938 24.867188 C 20.085938 24.867188 20.050781 24.421875 20.519531 24.421875 C 21.410156 24.421875 20.117188 22.511719 21.855469 20.628906 C 20.332031 21.332031 19.519531 19.566406 19.519531 19.230469 C 20.300781 20.148438 22.84375 20.332031 22.84375 18.761719 C 22.84375 17.265625 21.199219 16.707031 21.96875 16.132812 C 22.417969 15.800781 23.296875 16.472656 22.792969 17.167969 C 23.515625 16.902344 23.917969 16.203125 23.699219 15.617188 M 13.945312 15.664062 C 13.371094 16 12.984375 16.429688 12.460938 16.617188 C 12.382812 16.644531 12.320312 16.652344 12.261719 16.648438 L 12.261719 13.726562 C 12.402344 13.738281 12.761719 13.789062 13.183594 13.960938 C 13.601562 14.191406 13.601562 14.660156 13.074219 14.773438 C 13.40625 15.410156 14.5625 15.097656 14.8125 14.578125 C 14.9375 14.566406 15.042969 14.789062 15.148438 14.996094 C 14.984375 15.078125 14.652344 15.246094 13.945312 15.664062 Z M 20.382812 10.816406 C 20.320312 10.902344 20.257812 10.988281 20.203125 11.0625 C 20.351562 11.304688 20.625 11.457031 20.925781 11.429688 C 21.339844 11.390625 21.644531 11.019531 21.609375 10.605469 C 21.605469 10.589844 21.605469 10.574219 21.601562 10.5625 C 21.558594 10.777344 21.304688 10.957031 20.980469 10.988281 C 20.734375 11.011719 20.515625 10.941406 20.382812 10.816406 Z M 20.382812 10.816406 "/>
<path style=" stroke:none;fill-rule:nonzero;fill:rgb(1.176471%,27.45098%,58.039216%);fill-opacity:1;" d="M 11.089844 9.058594 C 11.089844 9.058594 11.089844 9.0625 11.089844 9.0625 C 11.097656 9.046875 11.105469 9.03125 11.113281 9.015625 C 11.105469 9.03125 11.097656 9.042969 11.089844 9.058594 M 11.117188 21.316406 C 11.117188 21.316406 11.121094 21.316406 11.121094 21.316406 C 11.121094 21.316406 11.117188 21.316406 11.117188 21.316406 Z M 11.101562 7.8125 Z M 10.878906 21.246094 L 11.238281 21.246094 C 11.195312 21.261719 11.15625 21.289062 11.121094 21.316406 C 11.15625 21.300781 11.195312 21.292969 11.234375 21.292969 C 11.414062 21.292969 11.558594 21.441406 11.558594 21.621094 C 11.558594 21.800781 11.414062 21.949219 11.234375 21.949219 C 11.085938 21.949219 10.964844 21.851562 10.925781 21.71875 L 10.925781 21.75 C 10.949219 22.027344 11.203125 22.234375 11.496094 22.210938 C 11.789062 22.1875 12.007812 21.941406 11.980469 21.664062 C 11.964844 21.472656 11.835938 21.316406 11.664062 21.246094 L 11.996094 21.242188 L 11.996094 20.59375 L 11.796875 20.59375 L 11.796875 18.5 C 11.605469 18.398438 11.492188 18.179688 11.535156 17.957031 C 11.660156 17.957031 11.769531 17.988281 11.84375 18.039062 C 11.730469 18.289062 12.015625 18.558594 12.015625 18.558594 C 11.960938 18.28125 12.125 18.101562 12.125 18.101562 C 12.210938 17.972656 12.332031 17.875 12.46875 17.804688 C 12.886719 17.59375 13.453125 17.648438 13.621094 17.988281 C 14.695312 17.703125 15.617188 16.625 15.617188 16.625 L 16.148438 17.523438 C 17.386719 17.523438 16.953125 16.59375 16.875 16.515625 C 17.160156 16.515625 17.558594 16.722656 17.558594 17.1875 C 17.558594 18.332031 14.242188 18.492188 14.242188 19.878906 C 14.242188 20.460938 14.820312 20.679688 14.820312 20.679688 C 14.820312 21.945312 13.953125 22.695312 13.359375 22.695312 C 12.410156 22.695312 11.683594 22.503906 11.683594 23.539062 L 12.015625 23.539062 C 11.699219 23.851562 11.992188 24.3125 11.992188 24.3125 C 11.925781 23.980469 12.085938 23.707031 12.691406 23.710938 L 13.070312 23.710938 C 12.832031 23.949219 12.96875 24.3125 13.082031 24.425781 C 13.082031 23.90625 13.445312 23.714844 13.765625 23.714844 C 13.878906 23.714844 14.039062 23.714844 14.039062 23.714844 C 13.964844 23.789062 14.082031 24.128906 14.257812 24.304688 C 14.257812 24.304688 14.132812 23.8125 14.695312 23.714844 C 16.113281 23.46875 14.78125 22.003906 16.941406 21.601562 C 16.941406 21.601562 15.867188 21.441406 15.867188 20.851562 C 15.867188 20.316406 16.839844 19.949219 17.175781 19.949219 C 17.4375 19.914062 17.691406 19.921875 17.90625 19.96875 C 17.992188 20.816406 18.964844 20.773438 19.179688 20.773438 C 20.003906 21.601562 18.96875 22.929688 18.96875 22.929688 C 17.699219 22.929688 17.199219 23.101562 17.199219 23.84375 L 17.4375 23.84375 C 17.304688 23.976562 17.378906 24.347656 17.472656 24.441406 C 17.472656 24.035156 17.863281 23.921875 18.359375 23.945312 L 18.621094 23.945312 C 18.492188 24.074219 18.515625 24.382812 18.648438 24.519531 C 18.65625 24.015625 19.027344 23.933594 19.292969 23.945312 L 19.511719 23.945312 C 19.429688 24.027344 19.511719 24.289062 19.621094 24.402344 C 19.621094 24.402344 19.585938 23.957031 20.054688 23.957031 C 20.945312 23.957031 19.652344 22.046875 21.390625 20.160156 C 19.867188 20.867188 19.054688 19.101562 19.054688 18.765625 C 19.835938 19.683594 22.378906 19.863281 22.378906 18.296875 C 22.378906 17.035156 21.207031 16.4375 21.304688 15.941406 C 21.339844 15.558594 21.660156 15.257812 22.050781 15.257812 C 22.464844 15.257812 22.796875 15.59375 22.796875 16.007812 C 22.796875 16.324219 22.605469 16.589844 22.328125 16.703125 C 22.328125 16.703125 22.328125 16.699219 22.328125 16.699219 C 22.328125 16.703125 22.328125 16.703125 22.328125 16.703125 C 23.050781 16.4375 23.453125 15.738281 23.234375 15.148438 C 23.011719 14.5625 22.25 14.308594 21.527344 14.582031 C 21.226562 14.695312 20.980469 14.882812 20.8125 15.105469 C 21.289062 13.746094 23.226562 13.460938 23.226562 12.195312 C 23.226562 10.078125 20.21875 10.671875 20.65625 12.195312 C 20.65625 12.171875 20.65625 12.148438 20.660156 12.128906 C 20.738281 11.265625 22.277344 11.089844 22.277344 12.214844 C 22.277344 13.175781 20.304688 13.707031 20.304688 15 C 20.304688 16.324219 21.761719 16.65625 21.761719 18.054688 C 21.761719 18.21875 21.675781 18.9375 20.707031 18.9375 C 19.773438 18.9375 19.324219 18.414062 19.066406 17.730469 C 18.589844 16.8125 18.765625 15.375 18.230469 14.800781 L 18.273438 14.210938 C 18.746094 14.5 19.996094 13.820312 19.175781 12.789062 C 19.175781 13.296875 18.117188 13.269531 18.117188 12.308594 C 18.117188 11.007812 19.328125 11.6875 19.386719 11.972656 C 19.332031 11.5 19.308594 11.199219 19.386719 10.929688 C 18.730469 11.136719 18.671875 10.761719 18.753906 10.613281 C 18.847656 10.445312 18.976562 10.246094 19.230469 10.246094 C 19.597656 10.246094 19.574219 10.382812 19.554688 10.570312 C 19.695312 10.359375 19.734375 10.199219 20.0625 9.878906 L 20.054688 9.640625 L 20.246094 9.710938 L 20.429688 9.414062 C 20.234375 9.003906 19.964844 9.199219 19.765625 8.691406 C 19.601562 8.648438 17.4375 8.449219 17.511719 7.421875 C 17.320312 7.421875 16.800781 8.082031 17.152344 8.4375 C 17.152344 8.4375 16.875 8.4375 16.703125 8.4375 C 16.464844 8.464844 15.902344 8.296875 15.542969 9.03125 C 16.429688 8.144531 17.003906 10.257812 15.371094 10.257812 C 15.132812 10.257812 14.925781 10.160156 14.910156 9.988281 C 14.75 10.703125 15.777344 10.925781 15.777344 10.925781 C 15.777344 11.136719 15.261719 12.285156 15.011719 12.535156 C 15.179688 12.703125 15.234375 13.722656 14.453125 13.722656 C 14.734375 12.960938 13.90625 12.316406 13.101562 11.890625 C 13.105469 11.890625 13.105469 11.890625 13.105469 11.890625 C 12.960938 11.835938 12.820312 11.765625 12.691406 11.6875 C 12.199219 11.460938 11.796875 11.335938 11.796875 11.335938 L 11.796875 10.738281 C 12.046875 10.617188 12.316406 10.402344 12.601562 10.042969 C 12.820312 9.773438 12.941406 9.429688 12.90625 9.0625 C 12.90625 9.015625 12.898438 8.976562 12.890625 8.933594 C 12.886719 8.917969 12.882812 8.90625 12.882812 8.890625 C 12.875 8.863281 12.867188 8.832031 12.859375 8.804688 C 12.855469 8.789062 12.851562 8.777344 12.847656 8.761719 C 12.835938 8.734375 12.828125 8.703125 12.816406 8.675781 C 12.8125 8.664062 12.804688 8.652344 12.800781 8.640625 C 12.785156 8.605469 12.769531 8.570312 12.75 8.535156 C 12.742188 8.519531 12.734375 8.507812 12.726562 8.492188 C 12.710938 8.472656 12.699219 8.449219 12.6875 8.429688 C 12.675781 8.414062 12.664062 8.398438 12.652344 8.378906 C 12.640625 8.363281 12.628906 8.347656 12.613281 8.332031 C 12.601562 8.316406 12.585938 8.296875 12.570312 8.28125 C 12.5625 8.269531 12.550781 8.257812 12.542969 8.25 C 12.503906 8.207031 12.464844 8.171875 12.425781 8.136719 C 12.421875 8.132812 12.417969 8.128906 12.414062 8.125 C 12.390625 8.105469 12.363281 8.085938 12.339844 8.070312 C 12.332031 8.0625 12.328125 8.058594 12.320312 8.054688 C 12.292969 8.035156 12.269531 8.019531 12.238281 8 C 12.238281 8 12.238281 8 12.234375 8 C 11.96875 7.835938 11.652344 7.75 11.3125 7.777344 C 11.242188 7.785156 11.171875 7.796875 11.101562 7.8125 C 10.632812 7.992188 10.292969 8.539062 10.292969 9.1875 C 10.292969 9.796875 10.59375 10.320312 11.019531 10.527344 C 11.027344 10.527344 11.035156 10.53125 11.039062 10.53125 C 10.835938 10.644531 10.664062 10.710938 10.625 10.710938 C 10.632812 10.714844 10.640625 10.71875 10.652344 10.726562 C 10.652344 10.726562 10.65625 10.726562 10.660156 10.730469 C 10.667969 10.734375 10.675781 10.738281 10.683594 10.746094 C 10.6875 10.746094 10.691406 10.746094 10.691406 10.746094 C 10.707031 10.753906 10.71875 10.761719 10.734375 10.769531 C 10.738281 10.769531 10.738281 10.769531 10.742188 10.773438 C 10.753906 10.777344 10.769531 10.785156 10.785156 10.789062 C 10.789062 10.792969 10.792969 10.792969 10.796875 10.796875 C 10.832031 10.808594 10.871094 10.824219 10.914062 10.835938 C 10.921875 10.835938 10.925781 10.839844 10.933594 10.839844 C 10.949219 10.84375 10.96875 10.851562 10.988281 10.851562 C 10.992188 10.855469 11 10.855469 11.007812 10.859375 C 11.03125 10.863281 11.054688 10.867188 11.078125 10.867188 C 11.082031 10.867188 11.082031 10.871094 11.082031 10.871094 C 11.238281 10.882812 11.421875 10.84375 11.421875 10.84375 L 11.421875 11.191406 C 11.394531 11.191406 11.152344 11.113281 11.082031 11.046875 C 11.074219 11.046875 11.066406 11.046875 11.058594 11.050781 C 10.792969 11.09375 10.621094 11.175781 10.542969 11.410156 C 10.46875 11.644531 10.546875 11.730469 10.671875 11.898438 C 10.566406 12.082031 10.292969 12.152344 10.648438 12.566406 C 10.625 12.722656 10.65625 12.972656 10.882812 13.046875 C 10.957031 13.074219 11.019531 13.085938 11.082031 13.097656 C 11.21875 13.097656 11.421875 13.207031 11.421875 13.488281 L 11.421875 16.148438 C 11.542969 16.15625 11.675781 16.171875 11.796875 16.183594 L 11.796875 13.261719 C 11.9375 13.273438 12.296875 13.324219 12.71875 13.496094 C 12.722656 13.5 12.726562 13.5 12.730469 13.503906 C 12.769531 13.507812 12.808594 13.515625 12.847656 13.527344 C 13.128906 13.613281 13.300781 13.859375 13.234375 14.074219 C 13.171875 14.289062 12.890625 14.394531 12.609375 14.308594 C 12.941406 14.945312 14.097656 14.632812 14.347656 14.113281 C 14.46875 14.101562 14.578125 14.324219 14.679688 14.53125 C 14.679688 14.53125 14.96875 14.640625 15.6875 14.640625 C 15.6875 14.640625 12.789062 16.492188 11.949219 16.492188 C 11.59375 16.492188 10.796875 16.492188 10.796875 16.761719 C 10.578125 16.761719 10.265625 17.132812 10.265625 17.34375 C 10.472656 17.183594 10.640625 17.183594 10.640625 17.183594 C 10.816406 17.183594 10.914062 17.238281 10.914062 17.238281 C 10.851562 17.300781 10.558594 17.625 10.558594 17.878906 C 10.800781 17.636719 10.910156 17.636719 10.910156 17.636719 C 10.910156 17.636719 11.160156 17.605469 11.25 17.695312 C 11.191406 17.757812 11.082031 17.976562 11.082031 18.234375 C 11.082031 18.234375 11.234375 17.945312 11.421875 17.945312 L 11.421875 20.726562 C 11.421875 20.8125 11.039062 20.894531 10.878906 20.894531 M 11 12.828125 C 10.925781 12.832031 10.894531 12.738281 10.890625 12.707031 C 10.890625 12.671875 10.917969 12.578125 10.988281 12.574219 C 11.15625 12.566406 11.496094 12.648438 11.5 12.683594 C 11.5 12.714844 11.167969 12.824219 11 12.828125 Z M 10.886719 12.371094 C 10.789062 12.363281 10.757812 12.230469 10.761719 12.183594 C 10.765625 12.136719 10.816406 12.011719 10.914062 12.015625 C 11.148438 12.035156 11.605469 12.199219 11.601562 12.246094 C 11.597656 12.292969 11.125 12.386719 10.886719 12.371094 Z M 10.847656 11.78125 C 10.742188 11.753906 10.734375 11.605469 10.746094 11.554688 C 10.761719 11.507812 10.839844 11.378906 10.945312 11.40625 C 11.195312 11.472656 11.652344 11.738281 11.636719 11.789062 C 11.625 11.839844 11.097656 11.847656 10.847656 11.78125 Z M 11.617188 10.125 C 11.660156 10.019531 11.652344 9.878906 11.625 9.75 C 11.621094 9.75 11.617188 9.75 11.613281 9.75 C 11.3125 9.75 11.070312 9.507812 11.070312 9.207031 C 11.066406 9.15625 11.074219 9.105469 11.089844 9.0625 C 11.089844 9.0625 11.089844 9.058594 11.089844 9.058594 C 11.15625 8.832031 11.363281 8.667969 11.613281 8.667969 C 11.910156 8.667969 12.152344 8.910156 12.152344 9.207031 C 12.152344 9.550781 11.910156 9.871094 11.617188 10.125 Z M 11.617188 10.125 "/>
<path style=" stroke:none;fill-rule:nonzero;fill:rgb(92.941176%,10.980392%,14.117647%);fill-opacity:1;" d="M 19.738281 10.597656 C 19.882812 10.839844 20.160156 10.992188 20.460938 10.960938 C 20.875 10.925781 21.179688 10.554688 21.140625 10.136719 C 21.140625 10.125 21.136719 10.109375 21.136719 10.09375 C 21.09375 10.308594 20.835938 10.492188 20.515625 10.523438 C 20.269531 10.546875 20.046875 10.476562 19.917969 10.351562 C 19.855469 10.4375 19.792969 10.523438 19.738281 10.597656 "/>
<path style=" stroke:none;fill-rule:nonzero;fill:rgb(100%,100%,100%);fill-opacity:1;" d="M 18.726562 9.195312 L 18.988281 9.207031 L 18.859375 9.386719 C 18.859375 9.386719 18.683594 9.441406 18.726562 9.195312 M 18.105469 9.195312 L 18.480469 9.195312 C 18.480469 9.195312 18.46875 9.496094 18.742188 9.523438 L 18.683594 9.621094 C 18.683594 9.621094 17.945312 9.429688 18.105469 9.195312 Z M 18.105469 9.195312 "/>
<path style=" stroke:none;fill-rule:nonzero;fill:rgb(41.568627%,47.843137%,70.980392%);fill-opacity:1;" d="M 11.636719 11.789062 C 11.652344 11.742188 11.195312 11.472656 10.945312 11.40625 C 10.839844 11.382812 10.761719 11.507812 10.746094 11.554688 C 10.734375 11.605469 10.742188 11.753906 10.847656 11.78125 C 11.097656 11.847656 11.625 11.839844 11.636719 11.789062 M 11.601562 12.246094 C 11.605469 12.199219 11.148438 12.035156 10.914062 12.015625 C 10.816406 12.011719 10.765625 12.136719 10.761719 12.183594 C 10.757812 12.230469 10.789062 12.363281 10.886719 12.371094 C 11.125 12.386719 11.597656 12.292969 11.601562 12.246094 Z M 11.082031 10.871094 L 11.082031 11.046875 C 11.152344 11.113281 11.394531 11.191406 11.421875 11.191406 L 11.421875 10.84375 C 11.421875 10.84375 11.238281 10.882812 11.082031 10.871094 Z M 10.988281 12.574219 C 10.917969 12.578125 10.890625 12.671875 10.890625 12.707031 C 10.894531 12.738281 10.925781 12.832031 11 12.828125 C 11.167969 12.824219 11.5 12.714844 11.5 12.683594 C 11.496094 12.648438 11.160156 12.566406 10.988281 12.574219 Z M 10.640625 17.183594 C 10.359375 17.546875 10.558594 17.878906 10.558594 17.878906 C 10.558594 17.625 10.847656 17.300781 10.914062 17.234375 C 10.914062 17.234375 10.816406 17.183594 10.640625 17.183594 Z M 11.535156 17.957031 C 11.492188 18.179688 11.605469 18.398438 11.796875 18.5 C 11.839844 18.519531 11.882812 18.539062 11.929688 18.546875 C 11.949219 18.550781 11.96875 18.554688 11.988281 18.554688 C 11.996094 18.554688 12.003906 18.558594 12.015625 18.558594 C 12.015625 18.558594 11.730469 18.289062 11.84375 18.039062 C 11.769531 17.988281 11.660156 17.957031 11.535156 17.957031 Z M 11.019531 10.527344 C 10.59375 10.320312 10.292969 9.796875 10.292969 9.1875 C 10.292969 8.539062 10.632812 7.992188 11.101562 7.8125 C 10.398438 7.96875 9.902344 8.589844 9.964844 9.296875 C 10.015625 9.890625 10.453125 10.367188 11.019531 10.527344 Z M 15.542969 9.03125 C 15.996094 8.945312 16.148438 9.347656 16.148438 9.492188 C 16.148438 10.035156 15.722656 10.257812 15.371094 10.257812 C 17.003906 10.257812 16.429688 8.144531 15.542969 9.03125 Z M 14.453125 13.722656 C 15.234375 13.722656 15.179688 12.703125 15.011719 12.535156 C 15.261719 12.285156 15.777344 11.136719 15.777344 10.925781 C 15.777344 10.925781 14.746094 10.703125 14.910156 9.988281 L 14.898438 9.984375 C 14.617188 10.28125 14.789062 10.898438 15.234375 11.050781 C 15.234375 11.050781 15.0625 11.730469 14.636719 12.160156 C 14.214844 12.144531 13.621094 12.089844 13.101562 11.890625 C 13.90625 12.316406 14.734375 12.960938 14.453125 13.722656 Z M 11.40625 8.832031 C 11.609375 8.8125 11.785156 8.957031 11.800781 9.148438 C 11.820312 9.339844 11.667969 9.511719 11.46875 9.527344 C 11.265625 9.542969 11.085938 9.398438 11.070312 9.207031 C 11.070312 9.507812 11.3125 9.75 11.613281 9.75 C 11.617188 9.75 11.621094 9.75 11.625 9.75 C 11.652344 9.878906 11.660156 10.019531 11.617188 10.125 C 11.910156 9.871094 12.152344 9.550781 12.152344 9.207031 C 12.152344 8.910156 11.910156 8.667969 11.613281 8.667969 C 11.363281 8.667969 11.152344 8.832031 11.089844 9.0625 C 11.136719 8.9375 11.257812 8.84375 11.40625 8.828125 Z M 17.152344 8.4375 C 16.800781 8.082031 17.320312 7.421875 17.511719 7.421875 C 17.304688 7.421875 16.394531 8.015625 16.703125 8.4375 C 16.875 8.4375 17.152344 8.4375 17.152344 8.4375 Z M 12.609375 14.308594 C 12.890625 14.394531 13.171875 14.289062 13.234375 14.074219 C 13.300781 13.859375 13.125 13.613281 12.847656 13.527344 C 12.808594 13.515625 12.769531 13.507812 12.730469 13.503906 C 13.136719 13.734375 13.128906 14.199219 12.609375 14.308594 Z M 11.796875 11.335938 C 11.796875 11.335938 12.199219 11.460938 12.691406 11.6875 C 12.59375 11.625 12.5 11.554688 12.417969 11.476562 C 12.167969 11.242188 11.96875 11.113281 11.796875 11.046875 Z M 11.949219 16.492188 C 12.789062 16.492188 15.6875 14.640625 15.6875 14.640625 C 14.96875 14.640625 14.679688 14.53125 14.679688 14.53125 C 14.519531 14.613281 14.1875 14.78125 13.480469 15.195312 C 12.90625 15.535156 12.519531 15.964844 11.996094 16.148438 C 11.917969 16.179688 11.851562 16.1875 11.796875 16.183594 C 11.675781 16.171875 11.542969 16.15625 11.421875 16.148438 L 11.421875 13.488281 C 11.421875 13.207031 11.21875 13.097656 11.082031 13.097656 L 11.082031 16.191406 C 10.855469 16.3125 10.746094 16.460938 10.683594 16.601562 C 10.683594 16.601562 10.253906 16.542969 10.265625 17.34375 C 10.265625 17.132812 10.578125 16.761719 10.796875 16.761719 C 10.796875 16.492188 11.59375 16.492188 11.949219 16.492188 Z M 19.179688 20.773438 C 18.964844 20.773438 17.992188 20.816406 17.90625 19.96875 C 17.691406 19.921875 17.4375 19.914062 17.175781 19.949219 C 17.863281 21.265625 18.609375 21.273438 18.804688 21.285156 C 19.109375 21.625 19.007812 22.769531 18.570312 22.746094 C 16.960938 22.664062 17.019531 23.640625 17.199219 23.84375 C 17.199219 23.101562 17.699219 22.929688 18.96875 22.929688 C 18.96875 22.929688 20.003906 21.601562 19.179688 20.773438 Z M 19.511719 23.945312 L 19.292969 23.945312 C 19.273438 24.296875 19.621094 24.402344 19.621094 24.402344 C 19.511719 24.289062 19.429688 24.027344 19.511719 23.945312 Z M 17.472656 24.441406 C 17.378906 24.347656 17.304688 23.976562 17.4375 23.84375 L 17.199219 23.84375 C 17.179688 24.222656 17.472656 24.441406 17.472656 24.441406 Z M 22.277344 12.214844 C 22.277344 11.089844 20.738281 11.265625 20.660156 12.128906 C 20.730469 11.496094 21.757812 11.402344 21.757812 12.195312 C 21.757812 13.015625 19.835938 13.550781 19.835938 14.9375 C 19.835938 16.460938 21.363281 16.601562 21.207031 17.996094 C 21.183594 18.238281 20.921875 18.554688 20.550781 18.554688 C 19.746094 18.554688 19.316406 18.214844 19.066406 17.730469 C 19.320312 18.414062 19.769531 18.9375 20.707031 18.9375 C 21.675781 18.9375 21.761719 18.21875 21.761719 18.054688 C 21.761719 16.65625 20.304688 16.324219 20.304688 15 C 20.304688 13.707031 22.277344 13.175781 22.277344 12.214844 Z M 10.90625 17.636719 C 10.90625 18.070312 11.082031 18.234375 11.082031 18.234375 C 11.082031 17.976562 11.191406 17.757812 11.25 17.695312 C 11.160156 17.605469 10.90625 17.636719 10.90625 17.636719 Z M 22.050781 15.257812 C 21.660156 15.257812 21.339844 15.558594 21.304688 15.941406 C 21.324219 15.847656 21.382812 15.757812 21.503906 15.671875 C 21.953125 15.335938 22.832031 16.007812 22.328125 16.703125 C 22.605469 16.589844 22.796875 16.324219 22.796875 16.007812 C 22.796875 15.59375 22.464844 15.257812 22.050781 15.257812 Z M 18.621094 23.945312 L 18.359375 23.945312 C 18.332031 24.445312 18.648438 24.519531 18.648438 24.519531 C 18.515625 24.382812 18.492188 24.074219 18.621094 23.945312 Z M 11.234375 21.292969 C 11.195312 21.292969 11.15625 21.300781 11.121094 21.316406 C 10.996094 21.410156 10.917969 21.558594 10.925781 21.71875 C 10.964844 21.851562 11.089844 21.949219 11.234375 21.949219 C 11.414062 21.949219 11.558594 21.800781 11.558594 21.621094 C 11.558594 21.441406 11.414062 21.292969 11.234375 21.292969 Z M 13.070312 23.710938 L 12.691406 23.710938 C 12.691406 24.316406 13.082031 24.425781 13.082031 24.425781 C 12.972656 24.3125 12.832031 23.949219 13.070312 23.710938 Z M 14.242188 19.878906 C 14.242188 18.492188 17.5625 18.332031 17.5625 17.1875 C 17.5625 16.722656 17.160156 16.515625 16.875 16.515625 C 16.953125 16.59375 17.386719 17.523438 16.148438 17.523438 C 15.027344 17.898438 12.585938 20.019531 14.28125 20.753906 C 14.277344 20.96875 14.25 22.554688 13.234375 22.429688 C 11.769531 22.25 11.402344 22.855469 11.683594 23.539062 C 11.683594 22.503906 12.410156 22.695312 13.359375 22.695312 C 13.953125 22.695312 14.820312 21.945312 14.820312 20.683594 C 14.820312 20.683594 14.242188 20.460938 14.242188 19.878906 Z M 11.421875 20.726562 L 11.421875 17.945312 C 11.234375 17.945312 11.082031 18.234375 11.082031 18.234375 L 11.082031 20.609375 L 11.082031 20.59375 L 10.878906 20.59375 L 10.878906 20.894531 C 11.039062 20.894531 11.421875 20.8125 11.421875 20.726562 Z M 11.992188 24.3125 C 11.992188 24.3125 11.699219 23.851562 12.015625 23.539062 L 11.683594 23.539062 C 11.550781 24.113281 11.992188 24.3125 11.992188 24.3125 Z M 14.039062 23.714844 C 14.039062 23.714844 13.878906 23.714844 13.765625 23.714844 C 13.761719 24.144531 14.257812 24.304688 14.257812 24.304688 C 14.082031 24.128906 13.964844 23.789062 14.039062 23.714844 Z M 14.039062 23.714844 "/>
<path style=" stroke:none;fill-rule:nonzero;fill:rgb(100%,100%,100%);fill-opacity:1;" d="M 4.8125 19.097656 L 4.792969 19.039062 L 4.785156 18.980469 C 4.757812 18.78125 4.710938 18.410156 4.421875 18.34375 C 4.347656 18.324219 4.265625 18.332031 4.183594 18.367188 C 4.207031 18.28125 4.203125 18.199219 4.175781 18.125 C 4.070312 17.851562 3.691406 17.855469 3.492188 17.855469 L 3.433594 17.855469 L 3.375 17.847656 C 3.175781 17.808594 2.804688 17.742188 2.652344 17.992188 C 2.613281 18.0625 2.597656 18.140625 2.605469 18.230469 C 2.527344 18.179688 2.449219 18.160156 2.371094 18.164062 C 2.078125 18.179688 1.964844 18.535156 1.902344 18.730469 L 1.886719 18.785156 L 1.859375 18.835938 C 1.761719 19.015625 1.582031 19.34375 1.773438 19.566406 C 1.828125 19.628906 1.898438 19.667969 1.984375 19.6875 C 1.914062 19.746094 1.871094 19.8125 1.851562 19.890625 C 1.773438 20.175781 2.078125 20.390625 2.242188 20.507812 L 2.292969 20.542969 L 2.332031 20.585938 C 2.472656 20.734375 2.730469 21.003906 3 20.890625 C 3.074219 20.859375 3.132812 20.804688 3.179688 20.726562 C 3.214844 20.8125 3.265625 20.875 3.328125 20.917969 C 3.578125 21.078125 3.878906 20.855469 4.042969 20.738281 L 4.089844 20.703125 L 4.140625 20.675781 C 4.324219 20.589844 4.664062 20.425781 4.636719 20.132812 C 4.632812 20.054688 4.597656 19.980469 4.539062 19.910156 C 4.628906 19.90625 4.707031 19.878906 4.765625 19.828125 C 4.996094 19.644531 4.875 19.289062 4.8125 19.097656 "/>
<path style=" stroke:none;fill-rule:nonzero;fill:rgb(92.941176%,10.980392%,14.117647%);fill-opacity:1;" d="M 3.519531 19.335938 C 5.171875 20.3125 4.660156 19.238281 4.625 19.078125 C 4.589844 18.921875 4.574219 17.734375 3.519531 19.335938 "/>
<path style=" stroke:none;fill-rule:nonzero;fill:rgb(92.941176%,10.980392%,14.117647%);fill-opacity:1;" d="M 3.414062 19.578125 C 2.996094 21.453125 3.859375 20.636719 4 20.554688 C 4.140625 20.46875 5.265625 20.089844 3.414062 19.578125 "/>
<path style=" stroke:none;fill-rule:nonzero;fill:rgb(92.941176%,10.980392%,14.117647%);fill-opacity:1;" d="M 3.148438 19.558594 C 1.238281 19.738281 2.28125 20.308594 2.40625 20.414062 C 2.527344 20.519531 3.238281 21.472656 3.148438 19.558594 "/>
<path style=" stroke:none;fill-rule:nonzero;fill:rgb(92.941176%,10.980392%,14.117647%);fill-opacity:1;" d="M 3.089844 19.296875 C 2.328125 17.535156 2.109375 18.703125 2.042969 18.855469 C 1.980469 19.003906 1.292969 19.972656 3.089844 19.296875 "/>
<path style=" stroke:none;fill-rule:nonzero;fill:rgb(100%,100%,100%);fill-opacity:1;" d="M 30.375 18.835938 L 30.347656 18.785156 L 30.328125 18.730469 C 30.269531 18.535156 30.15625 18.179688 29.863281 18.164062 C 29.78125 18.160156 29.707031 18.179688 29.628906 18.230469 C 29.636719 18.140625 29.617188 18.0625 29.578125 17.992188 C 29.425781 17.742188 29.058594 17.808594 28.859375 17.847656 L 28.800781 17.855469 L 28.742188 17.855469 C 28.539062 17.855469 28.164062 17.851562 28.058594 18.125 C 28.03125 18.199219 28.027344 18.28125 28.050781 18.367188 C 27.96875 18.332031 27.886719 18.324219 27.808594 18.34375 C 27.523438 18.410156 27.472656 18.78125 27.449219 18.980469 L 27.4375 19.039062 L 27.421875 19.097656 C 27.355469 19.289062 27.238281 19.644531 27.46875 19.828125 C 27.527344 19.878906 27.601562 19.90625 27.695312 19.914062 C 27.636719 19.980469 27.601562 20.054688 27.59375 20.132812 C 27.570312 20.425781 27.910156 20.589844 28.089844 20.675781 L 28.144531 20.703125 L 28.191406 20.738281 C 28.355469 20.855469 28.65625 21.078125 28.902344 20.917969 C 28.96875 20.875 29.019531 20.8125 29.050781 20.726562 C 29.101562 20.804688 29.160156 20.859375 29.230469 20.890625 C 29.503906 21.003906 29.761719 20.734375 29.902344 20.585938 L 29.941406 20.542969 L 29.988281 20.507812 C 30.15625 20.390625 30.460938 20.175781 30.382812 19.890625 C 30.363281 19.8125 30.320312 19.746094 30.246094 19.6875 C 30.335938 19.667969 30.40625 19.628906 30.457031 19.566406 C 30.652344 19.34375 30.472656 19.015625 30.375 18.835938 "/>
<path style=" stroke:none;fill-rule:nonzero;fill:rgb(92.941176%,10.980392%,14.117647%);fill-opacity:1;" d="M 28.914062 19.160156 C 27.476562 17.890625 28.652344 18.042969 28.816406 18.027344 C 28.976562 18.015625 30.113281 17.660156 28.914062 19.160156 "/>
<path style=" stroke:none;fill-rule:nonzero;fill:rgb(92.941176%,10.980392%,14.117647%);fill-opacity:1;" d="M 28.714844 19.335938 C 27.0625 20.3125 27.570312 19.238281 27.609375 19.078125 C 27.644531 18.921875 27.65625 17.734375 28.714844 19.335938 "/>
<path style=" stroke:none;fill-rule:nonzero;fill:rgb(92.941176%,10.980392%,14.117647%);fill-opacity:1;" d="M 28.816406 19.578125 C 29.234375 21.453125 28.371094 20.636719 28.234375 20.554688 C 28.09375 20.46875 26.96875 20.089844 28.816406 19.578125 "/>
<path style=" stroke:none;fill-rule:nonzero;fill:rgb(92.941176%,10.980392%,14.117647%);fill-opacity:1;" d="M 29.082031 19.558594 C 30.992188 19.738281 29.953125 20.308594 29.828125 20.414062 C 29.707031 20.519531 28.996094 21.472656 29.082031 19.558594 "/>
<path style=" stroke:none;fill-rule:nonzero;fill:rgb(92.941176%,10.980392%,14.117647%);fill-opacity:1;" d="M 29.140625 19.296875 C 29.90625 17.535156 30.125 18.703125 30.1875 18.855469 C 30.25 19.003906 30.9375 19.972656 29.140625 19.296875 "/>
<path style=" stroke:none;fill-rule:nonzero;fill:rgb(100%,100%,100%);fill-opacity:1;" d="M 29.511719 19.351562 C 29.511719 19.335938 29.507812 19.324219 29.503906 19.308594 C 29.65625 19.195312 29.824219 19.074219 29.824219 19.074219 L 29.808594 19.039062 C 29.808594 19.039062 29.613281 19.074219 29.429688 19.105469 C 29.335938 18.953125 29.175781 18.847656 28.996094 18.832031 C 28.9375 18.65625 28.878906 18.480469 28.878906 18.480469 L 28.839844 18.484375 C 28.839844 18.484375 28.816406 18.667969 28.789062 18.847656 C 28.675781 18.878906 28.578125 18.941406 28.5 19.03125 C 28.460938 19.082031 28.429688 19.136719 28.40625 19.195312 C 28.222656 19.195312 28.023438 19.195312 28.023438 19.195312 L 28.015625 19.234375 C 28.015625 19.234375 28.199219 19.324219 28.371094 19.40625 C 28.371094 19.421875 28.367188 19.4375 28.371094 19.453125 C 28.382812 19.601562 28.453125 19.738281 28.566406 19.835938 C 28.507812 20.019531 28.4375 20.230469 28.4375 20.230469 L 28.472656 20.25 C 28.472656 20.25 28.625 20.089844 28.765625 19.949219 C 28.835938 19.972656 28.914062 19.980469 28.992188 19.972656 C 29.070312 19.96875 29.144531 19.945312 29.210938 19.910156 C 29.371094 20.023438 29.550781 20.15625 29.550781 20.15625 L 29.582031 20.128906 C 29.582031 20.128906 29.476562 19.9375 29.386719 19.761719 C 29.480469 19.648438 29.527344 19.5 29.511719 19.351562 "/>
<path style=" stroke:none;fill-rule:nonzero;fill:rgb(92.941176%,10.980392%,14.117647%);fill-opacity:1;" d="M 28.910156 19.0625 C 28.820312 19.070312 28.738281 19.113281 28.679688 19.183594 C 28.625 19.253906 28.59375 19.339844 28.601562 19.429688 C 28.621094 19.617188 28.785156 19.757812 28.96875 19.738281 C 29.0625 19.730469 29.140625 19.6875 29.203125 19.621094 C 29.257812 19.550781 29.289062 19.464844 29.28125 19.371094 C 29.261719 19.1875 29.097656 19.046875 28.910156 19.0625 "/>
<path style=" stroke:none;fill-rule:nonzero;fill:rgb(92.941176%,10.980392%,14.117647%);fill-opacity:1;" d="M 3.316406 19.160156 C 4.757812 17.890625 3.578125 18.042969 3.417969 18.027344 C 3.253906 18.015625 2.121094 17.660156 3.316406 19.160156 "/>
<path style=" stroke:none;fill-rule:nonzero;fill:rgb(100%,100%,100%);fill-opacity:1;" d="M 3.863281 19.40625 C 4.035156 19.324219 4.21875 19.234375 4.21875 19.234375 L 4.207031 19.195312 C 4.207031 19.195312 4.011719 19.195312 3.824219 19.195312 C 3.800781 19.136719 3.773438 19.082031 3.730469 19.03125 C 3.65625 18.941406 3.554688 18.878906 3.445312 18.847656 C 3.417969 18.667969 3.390625 18.484375 3.390625 18.484375 L 3.351562 18.480469 C 3.351562 18.480469 3.296875 18.65625 3.238281 18.832031 C 3.054688 18.847656 2.898438 18.953125 2.804688 19.105469 C 2.617188 19.074219 2.425781 19.039062 2.425781 19.039062 L 2.410156 19.074219 C 2.410156 19.074219 2.574219 19.195312 2.726562 19.308594 C 2.726562 19.324219 2.722656 19.335938 2.71875 19.351562 C 2.707031 19.503906 2.753906 19.648438 2.847656 19.761719 C 2.753906 19.9375 2.652344 20.128906 2.652344 20.128906 L 2.683594 20.15625 C 2.683594 20.15625 2.863281 20.023438 3.023438 19.910156 C 3.089844 19.945312 3.164062 19.96875 3.242188 19.972656 C 3.320312 19.980469 3.398438 19.972656 3.46875 19.949219 C 3.605469 20.089844 3.761719 20.25 3.761719 20.25 L 3.796875 20.230469 C 3.796875 20.230469 3.726562 20.019531 3.667969 19.835938 C 3.78125 19.738281 3.851562 19.601562 3.863281 19.453125 C 3.867188 19.4375 3.863281 19.421875 3.863281 19.40625 "/>
<path style=" stroke:none;fill-rule:nonzero;fill:rgb(92.941176%,10.980392%,14.117647%);fill-opacity:1;" d="M 3.550781 19.183594 C 3.492188 19.113281 3.410156 19.070312 3.320312 19.066406 C 3.136719 19.046875 2.96875 19.1875 2.953125 19.371094 C 2.945312 19.464844 2.972656 19.550781 3.03125 19.621094 C 3.089844 19.6875 3.171875 19.730469 3.261719 19.738281 C 3.449219 19.757812 3.613281 19.617188 3.628906 19.429688 C 3.636719 19.339844 3.609375 19.253906 3.550781 19.183594 "/>
<path style=" stroke:none;fill-rule:nonzero;fill:rgb(100%,100%,100%);fill-opacity:1;" d="M 3.527344 11.175781 C 2.722656 11.035156 1.953125 11.574219 1.8125 12.378906 C 1.671875 13.183594 2.210938 13.953125 3.015625 14.097656 C 3.820312 14.238281 4.589844 13.699219 4.730469 12.894531 C 4.875 12.089844 4.332031 11.320312 3.527344 11.175781 "/>
<path style=" stroke:none;fill-rule:nonzero;fill:rgb(92.941176%,10.980392%,14.117647%);fill-opacity:1;" d="M 3.863281 12.296875 C 3.851562 12.289062 3.828125 12.277344 3.800781 12.257812 C 3.679688 12.175781 3.441406 12.019531 3.433594 12.015625 C 3.402344 11.992188 3.371094 11.96875 3.335938 11.949219 C 3.230469 11.878906 3.136719 11.816406 3.046875 11.765625 C 3.015625 11.746094 2.980469 11.726562 2.945312 11.710938 C 2.804688 11.640625 2.667969 11.597656 2.507812 11.582031 C 2.386719 11.671875 2.277344 11.78125 2.191406 11.910156 C 2.558594 12.042969 2.921875 12.253906 3.667969 12.722656 C 3.710938 12.621094 3.855469 12.316406 3.863281 12.296875 "/>
<path style=" stroke:none;fill-rule:nonzero;fill:rgb(92.941176%,10.980392%,14.117647%);fill-opacity:1;" d="M 3.519531 13.09375 C 3.535156 13.054688 3.597656 12.886719 3.625 12.824219 C 2.859375 12.347656 2.503906 12.136719 2.132812 12.007812 C 2.074219 12.109375 2.03125 12.222656 2.003906 12.339844 C 2.214844 12.628906 2.78125 12.914062 3.519531 13.09375 "/>
<path style=" stroke:none;fill-rule:nonzero;fill:rgb(92.941176%,10.980392%,14.117647%);fill-opacity:1;" d="M 3.4375 11.878906 C 3.722656 11.710938 4.050781 11.757812 4.300781 11.84375 C 4.207031 11.722656 4.09375 11.617188 3.960938 11.53125 C 3.722656 11.484375 3.394531 11.476562 3.132812 11.6875 C 3.226562 11.742188 3.328125 11.808594 3.4375 11.878906 "/>
<path style=" stroke:none;fill-rule:nonzero;fill:rgb(92.941176%,10.980392%,14.117647%);fill-opacity:1;" d="M 2.289062 13.253906 C 2.328125 13.28125 2.367188 13.304688 2.410156 13.328125 C 2.492188 13.375 2.585938 13.417969 2.679688 13.449219 C 2.71875 13.464844 2.761719 13.480469 2.800781 13.492188 C 2.945312 13.539062 3.277344 13.625 3.300781 13.632812 C 3.304688 13.621094 3.429688 13.3125 3.476562 13.199219 C 2.902344 13.054688 2.277344 12.808594 1.980469 12.484375 C 1.960938 12.632812 1.96875 12.78125 2 12.921875 C 2.0625 13.058594 2.164062 13.167969 2.289062 13.253906 "/>
<path style=" stroke:none;fill-rule:nonzero;fill:rgb(92.941176%,10.980392%,14.117647%);fill-opacity:1;" d="M 3.320312 13.753906 L 3.199219 13.722656 C 3.089844 13.691406 2.96875 13.660156 2.847656 13.625 C 2.90625 13.75 3 13.851562 3.101562 13.925781 C 3.234375 13.945312 3.367188 13.941406 3.492188 13.917969 C 3.402344 13.847656 3.320312 13.753906 3.320312 13.753906 "/>
<path style=" stroke:none;fill-rule:nonzero;fill:rgb(92.941176%,10.980392%,14.117647%);fill-opacity:1;" d="M 4.515625 12.257812 C 4.488281 12.171875 4.453125 12.085938 4.410156 12.003906 C 4.183594 11.902344 3.839844 11.804688 3.539062 11.953125 L 3.953125 12.226562 C 4.039062 12.21875 4.121094 12.214844 4.191406 12.214844 C 4.230469 12.21875 4.269531 12.21875 4.304688 12.222656 C 4.382812 12.230469 4.453125 12.242188 4.515625 12.257812 "/>
<path style=" stroke:none;fill-rule:nonzero;fill:rgb(92.941176%,10.980392%,14.117647%);fill-opacity:1;" d="M 4.304688 12.335938 C 4.292969 13.015625 3.972656 13.539062 3.695312 13.867188 C 4.128906 13.71875 4.46875 13.34375 4.554688 12.863281 C 4.582031 12.699219 4.578125 12.535156 4.546875 12.382812 C 4.480469 12.363281 4.402344 12.34375 4.304688 12.335938 "/>
<path style=" stroke:none;fill-rule:nonzero;fill:rgb(92.941176%,10.980392%,14.117647%);fill-opacity:1;" d="M 3.03125 11.628906 C 3.222656 11.457031 3.453125 11.398438 3.664062 11.394531 C 3.609375 11.378906 3.554688 11.363281 3.496094 11.355469 C 3.195312 11.300781 2.902344 11.355469 2.652344 11.492188 C 2.785156 11.519531 2.90625 11.566406 3.03125 11.628906 "/>
<path style=" stroke:none;fill-rule:nonzero;fill:rgb(92.941176%,10.980392%,14.117647%);fill-opacity:1;" d="M 3.96875 12.335938 C 3.871094 12.539062 3.8125 12.664062 3.765625 12.78125 C 3.75 12.816406 3.734375 12.847656 3.722656 12.882812 C 3.699219 12.941406 3.628906 13.117188 3.628906 13.117188 L 3.585938 13.222656 L 3.402344 13.675781 C 3.453125 13.742188 3.515625 13.796875 3.574219 13.839844 C 3.847656 13.53125 4.183594 13.007812 4.195312 12.328125 C 4.125 12.324219 4.050781 12.328125 3.96875 12.335938 "/>
<path style=" stroke:none;fill-rule:nonzero;fill:rgb(92.941176%,10.980392%,14.117647%);fill-opacity:1;" d="M 2.710938 13.578125 C 2.621094 13.546875 2.527344 13.511719 2.441406 13.46875 C 2.472656 13.570312 2.519531 13.65625 2.566406 13.734375 C 2.664062 13.796875 2.773438 13.84375 2.886719 13.878906 C 2.8125 13.796875 2.75 13.699219 2.710938 13.578125 "/>
<path style=" stroke:none;fill-rule:nonzero;fill:rgb(92.941176%,10.980392%,14.117647%);fill-opacity:1;" d="M 2.308594 13.398438 C 2.246094 13.359375 2.1875 13.320312 2.136719 13.273438 C 2.195312 13.382812 2.273438 13.480469 2.359375 13.566406 C 2.339844 13.511719 2.320312 13.457031 2.308594 13.398438 "/>
<path style=" stroke:none;fill-rule:nonzero;fill:rgb(100%,100%,100%);fill-opacity:1;" d="M 27.339844 12.894531 C 27.484375 13.699219 28.253906 14.238281 29.058594 14.097656 C 29.863281 13.953125 30.402344 13.183594 30.261719 12.378906 C 30.117188 11.574219 29.347656 11.035156 28.542969 11.175781 C 27.738281 11.320312 27.199219 12.089844 27.339844 12.894531 "/>
<path style=" stroke:none;fill-rule:nonzero;fill:rgb(92.941176%,10.980392%,14.117647%);fill-opacity:1;" d="M 28.207031 12.296875 C 28.222656 12.289062 28.242188 12.277344 28.273438 12.257812 C 28.394531 12.175781 28.632812 12.019531 28.636719 12.015625 C 28.671875 11.992188 28.703125 11.96875 28.734375 11.949219 C 28.839844 11.878906 28.933594 11.816406 29.023438 11.765625 C 29.058594 11.746094 29.09375 11.726562 29.125 11.710938 C 29.265625 11.640625 29.402344 11.597656 29.5625 11.582031 C 29.6875 11.671875 29.792969 11.78125 29.878906 11.910156 C 29.511719 12.042969 29.152344 12.253906 28.402344 12.722656 C 28.359375 12.621094 28.21875 12.316406 28.207031 12.296875 "/>
<path style=" stroke:none;fill-rule:nonzero;fill:rgb(92.941176%,10.980392%,14.117647%);fill-opacity:1;" d="M 28.554688 13.09375 C 28.539062 13.054688 28.472656 12.886719 28.445312 12.824219 C 29.214844 12.347656 29.570312 12.136719 29.941406 12.007812 C 29.996094 12.109375 30.039062 12.222656 30.066406 12.339844 C 29.855469 12.628906 29.292969 12.914062 28.554688 13.09375 "/>
<path style=" stroke:none;fill-rule:nonzero;fill:rgb(92.941176%,10.980392%,14.117647%);fill-opacity:1;" d="M 28.636719 11.878906 C 28.347656 11.710938 28.023438 11.757812 27.769531 11.84375 C 27.863281 11.722656 27.980469 11.617188 28.113281 11.53125 C 28.347656 11.484375 28.679688 11.476562 28.9375 11.6875 C 28.84375 11.742188 28.746094 11.808594 28.636719 11.878906 "/>
<path style=" stroke:none;fill-rule:nonzero;fill:rgb(92.941176%,10.980392%,14.117647%);fill-opacity:1;" d="M 29.78125 13.253906 C 29.746094 13.28125 29.707031 13.304688 29.664062 13.328125 C 29.578125 13.375 29.488281 13.417969 29.394531 13.449219 C 29.351562 13.464844 29.3125 13.480469 29.269531 13.492188 C 29.128906 13.539062 28.796875 13.625 28.773438 13.632812 C 28.765625 13.621094 28.640625 13.3125 28.597656 13.199219 C 29.167969 13.054688 29.792969 12.808594 30.09375 12.484375 C 30.109375 12.632812 30.101562 12.78125 30.074219 12.921875 C 30.007812 13.058594 29.910156 13.167969 29.78125 13.253906 "/>
<path style=" stroke:none;fill-rule:nonzero;fill:rgb(92.941176%,10.980392%,14.117647%);fill-opacity:1;" d="M 28.753906 13.753906 L 28.871094 13.722656 C 28.984375 13.691406 29.101562 13.660156 29.226562 13.625 C 29.164062 13.75 29.070312 13.851562 28.972656 13.925781 C 28.839844 13.945312 28.707031 13.941406 28.578125 13.917969 C 28.671875 13.847656 28.753906 13.753906 28.753906 13.753906 "/>
<path style=" stroke:none;fill-rule:nonzero;fill:rgb(92.941176%,10.980392%,14.117647%);fill-opacity:1;" d="M 27.554688 12.257812 C 27.582031 12.171875 27.617188 12.085938 27.664062 12.003906 C 27.890625 11.902344 28.230469 11.804688 28.53125 11.953125 L 28.117188 12.226562 C 28.03125 12.21875 27.953125 12.214844 27.878906 12.214844 C 27.839844 12.21875 27.804688 12.21875 27.769531 12.222656 C 27.6875 12.230469 27.617188 12.242188 27.554688 12.257812 "/>
<path style=" stroke:none;fill-rule:nonzero;fill:rgb(92.941176%,10.980392%,14.117647%);fill-opacity:1;" d="M 27.769531 12.335938 C 27.78125 13.015625 28.101562 13.539062 28.378906 13.867188 C 27.945312 13.71875 27.601562 13.34375 27.519531 12.863281 C 27.488281 12.699219 27.492188 12.535156 27.523438 12.382812 C 27.589844 12.363281 27.671875 12.34375 27.769531 12.335938 "/>
<path style=" stroke:none;fill-rule:nonzero;fill:rgb(92.941176%,10.980392%,14.117647%);fill-opacity:1;" d="M 29.042969 11.628906 C 28.851562 11.457031 28.621094 11.398438 28.410156 11.394531 C 28.464844 11.378906 28.515625 11.363281 28.574219 11.355469 C 28.875 11.300781 29.167969 11.355469 29.417969 11.492188 C 29.289062 11.519531 29.167969 11.566406 29.042969 11.628906 "/>
<path style=" stroke:none;fill-rule:nonzero;fill:rgb(92.941176%,10.980392%,14.117647%);fill-opacity:1;" d="M 28.101562 12.335938 C 28.203125 12.539062 28.257812 12.664062 28.308594 12.78125 C 28.324219 12.816406 28.335938 12.847656 28.351562 12.882812 C 28.375 12.941406 28.445312 13.117188 28.445312 13.117188 L 28.488281 13.222656 L 28.671875 13.675781 C 28.621094 13.742188 28.558594 13.796875 28.5 13.839844 C 28.226562 13.53125 27.886719 13.007812 27.878906 12.328125 C 27.945312 12.324219 28.023438 12.328125 28.101562 12.335938 "/>
<path style=" stroke:none;fill-rule:nonzero;fill:rgb(92.941176%,10.980392%,14.117647%);fill-opacity:1;" d="M 29.363281 13.578125 C 29.453125 13.546875 29.542969 13.511719 29.628906 13.46875 C 29.597656 13.570312 29.550781 13.65625 29.503906 13.734375 C 29.40625 13.796875 29.300781 13.84375 29.1875 13.878906 C 29.261719 13.796875 29.324219 13.699219 29.363281 13.578125 "/>
<path style=" stroke:none;fill-rule:nonzero;fill:rgb(92.941176%,10.980392%,14.117647%);fill-opacity:1;" d="M 29.765625 13.398438 C 29.824219 13.359375 29.882812 13.320312 29.9375 13.273438 C 29.875 13.382812 29.800781 13.480469 29.710938 13.566406 C 29.734375 13.511719 29.75 13.457031 29.765625 13.398438 "/>
</g>
</svg>
