<?xml version="1.0" encoding="UTF-8"?>
<svg xmlns="http://www.w3.org/2000/svg" xmlns:xlink="http://www.w3.org/1999/xlink" width="32px" height="32px" viewBox="0 0 32 39" version="1.1">
<g id="surface1">
<path style=" stroke:none;fill-rule:nonzero;fill:rgb(100%,100%,100%);fill-opacity:1;" d="M 10.167969 30.851562 C 10.167969 30.851562 5.714844 28.667969 3.542969 25.320312 C 3.554688 28.199219 3.410156 31.789062 3.410156 31.789062 L 10.230469 33.097656 Z M 10.167969 30.851562 "/>
<path style=" stroke:none;fill-rule:nonzero;fill:rgb(100%,100%,100%);fill-opacity:1;" d="M 21.941406 30.914062 C 21.941406 30.914062 26.398438 28.902344 28.566406 25.554688 C 28.554688 28.429688 28.703125 31.789062 28.703125 31.789062 L 21.882812 33.097656 Z M 21.941406 30.914062 "/>
<path style=" stroke:none;fill-rule:nonzero;fill:rgb(100%,100%,100%);fill-opacity:1;" d="M 10.140625 29.828125 L 21.992188 29.828125 L 21.992188 35.113281 L 10.140625 35.113281 Z M 10.140625 29.828125 "/>
<path style=" stroke:none;fill-rule:nonzero;fill:rgb(100%,100%,100%);fill-opacity:1;" d="M 19.59375 30.21875 C 19.59375 32.089844 18.019531 33.609375 16.078125 33.609375 C 14.136719 33.609375 12.5625 32.089844 12.5625 30.21875 C 12.5625 28.34375 14.136719 26.824219 16.078125 26.824219 C 18.019531 26.824219 19.59375 28.34375 19.59375 30.21875 Z M 19.59375 30.21875 "/>
<path style=" stroke:none;fill-rule:nonzero;fill:rgb(100%,100%,100%);fill-opacity:1;" d="M 1.90625 31.988281 L 1.90625 27.035156 L 1.605469 26.921875 L 1.605469 26.253906 L 1.90625 26.121094 L 1.90625 25.652344 L 1.605469 25.542969 L 1.605469 24.742188 L 2.601562 23.820312 L 2.601562 23.601562 C 2.601562 23.601562 2.632812 23.410156 2.886719 23.410156 C 3.144531 23.410156 3.183594 23.410156 3.183594 23.410156 C 3.183594 23.410156 3.410156 23.445312 3.410156 23.601562 C 3.410156 23.761719 3.410156 23.804688 3.410156 23.804688 L 4.429688 24.746094 L 4.421875 25.546875 L 4.117188 25.652344 L 4.117188 26.117188 L 4.425781 26.246094 L 4.425781 31.511719 Z M 1.90625 31.988281 "/>
<path style=" stroke:none;fill-rule:nonzero;fill:rgb(100%,100%,100%);fill-opacity:1;" d="M 30.324219 31.988281 L 30.324219 27.035156 L 30.628906 26.921875 L 30.628906 26.253906 L 30.324219 26.121094 L 30.324219 25.652344 L 30.628906 25.542969 L 30.628906 24.742188 L 29.632812 23.820312 L 29.632812 23.601562 C 29.632812 23.601562 29.597656 23.410156 29.34375 23.410156 C 29.089844 23.410156 29.050781 23.410156 29.050781 23.410156 C 29.050781 23.410156 28.820312 23.445312 28.820312 23.601562 C 28.820312 23.761719 28.820312 23.804688 28.820312 23.804688 L 27.800781 24.746094 L 27.8125 25.546875 L 28.117188 25.652344 L 28.117188 26.117188 L 27.804688 26.246094 L 27.804688 31.511719 Z M 30.324219 31.988281 "/>
<path style=" stroke:none;fill-rule:nonzero;fill:rgb(100%,100%,100%);fill-opacity:1;" d="M 15.765625 38.949219 C 13.304688 38.949219 11.726562 38.125 10.066406 37.253906 C 9.1875 36.792969 8.28125 36.316406 7.214844 35.964844 C 4.195312 34.976562 2.203125 36.191406 2.121094 36.242188 L 1.71875 35.636719 C 1.8125 35.578125 4.074219 34.175781 7.449219 35.28125 C 8.578125 35.652344 9.515625 36.144531 10.421875 36.617188 C 12.132812 37.515625 13.75 38.363281 16.410156 38.207031 C 18.898438 38.0625 20.609375 37.234375 22.261719 36.4375 C 22.96875 36.09375 23.636719 35.773438 24.339844 35.515625 C 24.386719 35.496094 24.441406 35.476562 24.503906 35.453125 C 25.386719 35.113281 28.082031 34.070312 30.410156 35.804688 L 29.960938 36.378906 C 27.96875 34.894531 25.648438 35.789062 24.777344 36.125 C 24.710938 36.148438 24.652344 36.171875 24.605469 36.1875 C 23.933594 36.4375 23.28125 36.75 22.59375 37.082031 C 20.957031 37.875 19.09375 38.773438 16.457031 38.925781 C 16.214844 38.941406 15.988281 38.949219 15.765625 38.949219 Z M 15.765625 38.949219 "/>
<path style=" stroke:none;fill-rule:nonzero;fill:rgb(100%,100%,100%);fill-opacity:1;" d="M 28.964844 37.644531 L 28.441406 37.3125 C 28.324219 37.242188 28.015625 37.191406 27.703125 37.242188 C 27.648438 37.25 27.585938 37.261719 27.527344 37.277344 C 27.265625 37.332031 26.9375 37.402344 26.6875 37.203125 C 26.582031 37.121094 26.457031 36.960938 26.457031 36.671875 C 26.457031 36.453125 26.554688 36.257812 26.730469 36.121094 C 27.308594 35.683594 28.726562 35.988281 29.148438 36.09375 C 29.429688 36.167969 29.738281 36.164062 29.796875 36.109375 C 29.941406 34.550781 30.589844 33.421875 30.957031 32.898438 C 28.332031 31.351562 24.320312 32.191406 22.816406 33.128906 C 20.574219 34.527344 18.703125 35.398438 16.316406 35.40625 C 14.28125 35.410156 12.554688 34.589844 10.734375 33.71875 C 9.714844 33.230469 8.65625 32.726562 7.496094 32.347656 C 5.058594 31.546875 2.285156 32.449219 1.234375 32.855469 C 1.625 33.382812 2.222656 34.417969 2.285156 35.894531 C 2.34375 35.964844 2.652344 35.980469 2.925781 35.921875 C 3.359375 35.835938 4.792969 35.597656 5.347656 36.0625 C 5.519531 36.207031 5.605469 36.40625 5.59375 36.625 C 5.578125 36.914062 5.449219 37.066406 5.339844 37.144531 C 5.078125 37.332031 4.753906 37.246094 4.492188 37.175781 C 4.4375 37.160156 4.378906 37.144531 4.324219 37.136719 C 4.015625 37.070312 3.703125 37.101562 3.582031 37.171875 L 3.042969 37.476562 L 3.023438 36.640625 C 2.8125 36.679688 2.210938 36.757812 1.835938 36.484375 C 1.660156 36.347656 1.558594 36.15625 1.546875 35.929688 C 1.464844 34.035156 0.386719 32.984375 0.375 32.976562 L 0 32.617188 L 0.46875 32.394531 C 0.628906 32.320312 4.378906 30.5625 7.730469 31.664062 C 8.933594 32.058594 10.011719 32.574219 11.050781 33.074219 C 12.789062 33.902344 14.425781 34.6875 16.285156 34.6875 C 16.292969 34.6875 16.300781 34.6875 16.308594 34.6875 C 18.519531 34.679688 20.285156 33.851562 22.417969 32.523438 C 24.179688 31.425781 28.789062 30.480469 31.699219 32.515625 L 32.027344 32.746094 L 31.765625 33.046875 C 31.753906 33.054688 30.710938 34.265625 30.53125 36.164062 C 30.511719 36.394531 30.402344 36.582031 30.21875 36.707031 C 29.835938 36.964844 29.246094 36.859375 29.023438 36.808594 Z M 28.964844 37.644531 "/>
<path style=" stroke:none;fill-rule:nonzero;fill:rgb(100%,100%,100%);fill-opacity:1;" d="M 5.304688 36.0625 C 5.304688 36.0625 4.9375 35.703125 4.785156 35.4375 C 4.480469 34.914062 2.113281 35.949219 2.113281 35.949219 L 2.757812 36.085938 "/>
<path style=" stroke:none;fill-rule:nonzero;fill:rgb(100%,100%,100%);fill-opacity:1;" d="M 26.644531 36.203125 C 26.644531 36.203125 27.019531 35.847656 27.179688 35.589844 C 27.496094 35.070312 29.839844 36.160156 29.839844 36.160156 L 29.191406 36.28125 "/>
<path style=" stroke:none;fill-rule:nonzero;fill:rgb(100%,100%,100%);fill-opacity:1;" d="M 1.835938 36.085938 C 1.835938 36.085938 1.785156 34.660156 1.457031 34.03125 C 1.132812 33.398438 1 32.761719 1 32.761719 C 1 32.761719 2.988281 31.785156 4.28125 31.761719 C 5.574219 31.738281 8.796875 32.285156 9.800781 32.824219 C 10.804688 33.363281 13.511719 34.816406 14.914062 35.113281 C 16.316406 35.40625 18.632812 35.054688 20.085938 34.472656 C 21.535156 33.890625 22.503906 32.886719 23.09375 32.632812 C 23.679688 32.375 25.574219 31.707031 26.847656 31.59375 C 28.125 31.480469 29.660156 31.992188 30.523438 32.152344 C 31.386719 32.3125 31.261719 32.632812 31.261719 32.632812 L 30.21875 35.863281 C 30.21875 35.863281 28.554688 35.3125 27.441406 35.28125 C 26.324219 35.25 24.425781 36.066406 23.839844 36.28125 C 23.253906 36.492188 20.667969 37.546875 19.835938 37.867188 C 19.007812 38.1875 16.195312 38.921875 14.59375 38.570312 C 12.992188 38.21875 9.882812 36.675781 9.070312 36.28125 C 8.257812 35.886719 5.3125 34.941406 4.921875 35.121094 C 4.53125 35.300781 1.835938 36.085938 1.835938 36.085938 Z M 1.835938 36.085938 "/>
<path style=" stroke:none;fill-rule:nonzero;fill:rgb(100%,100%,100%);fill-opacity:1;" d="M 29.578125 5.222656 C 29.519531 5.046875 29.214844 4.910156 27.972656 4.910156 C 27.488281 4.910156 27.039062 4.929688 27.03125 4.929688 C 27.011719 4.929688 26.992188 4.933594 26.976562 4.9375 C 26.207031 4.992188 25.472656 5.167969 24.8125 5.449219 C 25.691406 4.414062 27.058594 3.765625 27.886719 3.445312 C 27.929688 3.429688 28.050781 3.375 28.078125 3.335938 C 28.121094 3.273438 28.1875 3.214844 28.128906 3.117188 C 28.03125 2.945312 27.65625 2.898438 27.40625 2.898438 C 27.136719 2.898438 26.753906 2.9375 26.273438 3.007812 C 26.042969 3.03125 25.816406 3.070312 25.601562 3.113281 C 25.59375 3.117188 25.582031 3.117188 25.574219 3.121094 C 24.621094 3.332031 23.71875 3.75 22.964844 4.328125 C 22.859375 4.410156 22.757812 4.496094 22.660156 4.582031 L 23.265625 3.574219 C 23.59375 3.050781 23.945312 2.566406 24.324219 2.132812 C 24.347656 2.105469 24.363281 2.070312 24.371094 2.035156 C 24.386719 1.960938 24.472656 1.847656 24.421875 1.789062 C 24.390625 1.75 24.324219 1.6875 24.199219 1.6875 C 24.089844 1.6875 23.726562 1.726562 22.335938 2.757812 C 21.03125 3.648438 19.90625 4.804688 19.089844 6.105469 C 18.761719 6.683594 18.1875 7.75 17.996094 8.5 C 17.984375 8.421875 17.976562 8.347656 17.964844 8.277344 C 17.933594 7.972656 17.914062 7.660156 17.90625 7.289062 C 17.902344 6.84375 17.921875 6.449219 17.941406 6.191406 C 17.949219 6.085938 17.925781 5.835938 17.820312 5.808594 C 17.714844 5.785156 17.550781 5.988281 17.507812 6.089844 C 16.832031 7.613281 16.652344 8.878906 16.617188 9.632812 L 16.371094 11.851562 C 16.339844 12.003906 16.222656 12.746094 16.222656 12.746094 C 16.035156 12.425781 15.902344 12.183594 15.753906 11.839844 C 15.75 11.828125 15.746094 11.816406 15.738281 11.804688 L 15.523438 11.46875 C 15.519531 11.460938 15.511719 11.453125 15.503906 11.445312 C 15.179688 11.066406 14.855469 10.875 14.472656 10.648438 C 13.941406 10.332031 13.277344 9.941406 12.296875 8.828125 C 11.75 8.214844 11.121094 6.976562 10.917969 6.121094 C 10.515625 4.429688 10.554688 2.40625 11.015625 0.589844 C 11.058594 0.46875 11.089844 0.246094 11.03125 0.171875 C 10.988281 0.113281 10.910156 0.0742188 10.839844 0.0742188 C 10.691406 0.0742188 10.5625 0.199219 9.652344 1.609375 C 9.652344 1.613281 9.648438 1.617188 9.644531 1.621094 C 9.050781 2.546875 8.628906 3.609375 8.429688 4.691406 C 8.386719 4.925781 8.351562 5.164062 8.328125 5.394531 C 8.117188 4.882812 7.941406 4.355469 7.808594 3.8125 C 7.515625 2.65625 7.421875 1.480469 7.527344 0.414062 C 7.535156 0.347656 7.550781 0.171875 7.5 0.125 C 7.457031 0.0820312 7.390625 0.0546875 7.324219 0.0546875 C 7.121094 0.0546875 6.816406 0.308594 6.175781 1.976562 C 5.566406 3.566406 5.371094 5.023438 5.5625 6.617188 C 4.871094 5.738281 4.558594 4.5 4.28125 3.386719 C 4.210938 3.109375 4.144531 2.839844 4.070312 2.582031 C 4.035156 2.449219 3.9375 2.136719 3.816406 2.195312 C 3.808594 2.199219 3.800781 2.203125 3.792969 2.207031 C 3.792969 2.207031 3.792969 2.210938 3.789062 2.210938 C 3.785156 2.210938 3.78125 2.214844 3.777344 2.21875 C 3.769531 2.222656 3.765625 2.230469 3.761719 2.234375 C 3.734375 2.257812 3.648438 2.53125 3.632812 2.5625 C 3.59375 2.632812 3.570312 2.738281 3.554688 2.886719 C 3.554688 2.894531 3.550781 2.898438 3.550781 2.90625 C 3.550781 2.960938 3.546875 3.011719 3.546875 3.0625 C 3.542969 3.121094 3.539062 3.179688 3.539062 3.234375 C 3.457031 4.070312 3.390625 6.230469 4.527344 8.488281 L 4.550781 8.550781 C 4.566406 8.582031 4.582031 8.617188 4.601562 8.652344 C 4.722656 8.90625 4.863281 9.140625 4.996094 9.367188 C 5.039062 9.441406 5.082031 9.511719 5.128906 9.585938 C 5.285156 9.855469 5.421875 10.019531 5.5625 10.175781 C 4.921875 10.046875 3.972656 9.863281 3.515625 9.792969 C 3.410156 9.78125 3.3125 9.835938 3.273438 9.933594 C 3.234375 10.03125 3.269531 10.140625 3.359375 10.195312 C 3.742188 10.441406 4.4375 11.054688 5.167969 11.71875 L 5.160156 11.71875 L 6.457031 12.898438 L 6.574219 13.007812 C 6.996094 13.398438 7.4375 13.800781 7.855469 14.171875 L 6.96875 14.085938 C 6.871094 14.074219 6.777344 14.132812 6.738281 14.222656 C 6.699219 14.3125 6.726562 14.414062 6.804688 14.476562 L 8.871094 16.113281 L 9.777344 16.816406 C 9.78125 16.820312 9.789062 16.828125 9.796875 16.835938 L 11.347656 18.054688 C 11.386719 18.085938 11.433594 18.101562 11.484375 18.101562 L 11.882812 18.113281 C 11.039062 18.457031 10.269531 18.46875 9.367188 18.167969 C 8.667969 17.941406 8.003906 17.585938 7.441406 17.144531 C 7.359375 17.082031 7.15625 16.964844 7.070312 17.023438 C 6.988281 17.082031 7.050781 17.304688 7.089844 17.398438 C 7.265625 17.820312 7.589844 18.191406 7.917969 18.527344 C 6.847656 18.386719 5.871094 18.097656 4.761719 17.601562 C 4.667969 17.5625 4.5 17.457031 4.433594 17.53125 C 4.371094 17.605469 4.421875 17.839844 4.476562 17.921875 C 4.980469 18.683594 5.382812 19.207031 5.785156 19.617188 C 6.207031 20.042969 6.761719 20.480469 7.03125 20.644531 C 7.085938 20.671875 7.226562 20.757812 7.890625 20.757812 C 8.144531 20.757812 8.421875 20.742188 8.65625 20.722656 C 8.6875 20.71875 8.71875 20.714844 8.746094 20.714844 C 8.078125 20.945312 7.46875 21.03125 6.941406 20.964844 C 6.828125 20.949219 6.566406 20.960938 6.539062 21.066406 C 6.511719 21.175781 6.726562 21.351562 6.835938 21.390625 C 7.625 21.664062 8.402344 21.855469 9.144531 21.953125 C 9.390625 22.019531 10.082031 22.195312 10.832031 22.261719 C 10.882812 22.265625 10.929688 22.265625 10.976562 22.265625 C 11.035156 22.269531 11.097656 22.273438 11.15625 22.28125 C 11.445312 22.308594 11.714844 22.332031 12.007812 22.332031 C 12.242188 22.332031 12.480469 22.316406 12.722656 22.277344 C 12.726562 22.308594 12.734375 22.335938 12.746094 22.363281 L 12.878906 22.613281 C 12.832031 22.621094 12.785156 22.644531 12.75 22.679688 C 12.6875 22.75 12.671875 22.851562 12.71875 22.933594 L 13 23.449219 C 13.003906 23.460938 13.011719 23.46875 13.023438 23.480469 C 13.023438 23.484375 13.03125 23.492188 13.042969 23.507812 C 13.03125 23.511719 13.019531 23.519531 13.007812 23.527344 C 12.933594 23.578125 12.898438 23.671875 12.921875 23.761719 C 13.066406 24.332031 13.347656 24.53125 13.554688 24.679688 C 13.695312 24.777344 13.78125 24.839844 13.828125 24.996094 C 13.855469 25.097656 13.90625 25.214844 13.957031 25.339844 C 14.0625 25.601562 14.222656 25.996094 14.125 26.15625 C 13.988281 26.363281 13.894531 26.425781 13.738281 26.527344 C 13.644531 26.589844 13.523438 26.667969 13.378906 26.796875 C 13.027344 27.105469 13 27.515625 13.304688 28.015625 L 13.324219 28.042969 C 13.371094 28.125 13.460938 28.164062 13.554688 28.152344 C 13.648438 28.136719 13.722656 28.066406 13.738281 27.976562 C 13.8125 27.625 14.40625 27.34375 14.519531 27.335938 C 14.722656 27.324219 14.917969 27.308594 15.050781 27.179688 C 15.265625 26.96875 16.441406 26.957031 16.441406 26.957031 C 16.441406 26.957031 16.578125 26.960938 16.792969 27.003906 C 16.832031 27.023438 16.878906 27.042969 16.914062 27.066406 C 16.953125 27.089844 16.992188 27.101562 17.035156 27.101562 C 17.0625 27.101562 17.457031 27.257812 17.488281 27.292969 C 17.546875 27.359375 18.210938 27.71875 18.285156 27.757812 C 18.332031 27.78125 18.71875 28.285156 18.773438 28.285156 C 18.863281 28.417969 18.898438 28.378906 18.898438 28.25 C 19.152344 28.101562 19.378906 27.777344 19.46875 27.433594 C 19.554688 27.085938 19.503906 26.757812 19.316406 26.484375 C 19.304688 26.46875 19.292969 26.457031 19.277344 26.441406 C 19.238281 26.40625 19.136719 26.328125 19.015625 26.234375 C 18.851562 26.109375 18.578125 25.898438 18.523438 25.835938 C 18.355469 25.652344 18.277344 25.449219 18.195312 25.21875 C 18.261719 25.214844 18.320312 25.183594 18.359375 25.136719 C 18.402344 25.085938 18.417969 25.015625 18.402344 24.953125 L 18.371094 24.824219 C 18.324219 24.632812 18.273438 24.410156 18.230469 24.167969 L 18.230469 24.160156 C 18.238281 24.160156 18.246094 24.160156 18.257812 24.160156 C 18.257812 24.160156 18.257812 24.160156 18.261719 24.160156 C 18.382812 24.160156 18.488281 24.0625 18.488281 23.941406 C 18.488281 23.898438 18.476562 23.863281 18.457031 23.828125 L 18.207031 23.167969 C 18.226562 23.191406 18.246094 23.210938 18.253906 23.21875 C 18.3125 23.28125 18.464844 23.390625 18.546875 23.363281 C 18.632812 23.332031 18.632812 23.171875 18.640625 23.085938 C 18.675781 22.644531 19.019531 22.199219 19.390625 21.941406 C 19.410156 22 19.433594 22.039062 19.4375 22.050781 C 19.476562 22.121094 19.480469 22.28125 19.566406 22.28125 C 19.566406 22.28125 19.570312 22.28125 19.570312 22.28125 C 19.65625 22.28125 19.71875 22.164062 19.839844 22.042969 C 19.996094 21.882812 20.128906 21.746094 20.289062 21.699219 L 21.070312 22.007812 C 21.117188 22.144531 21.210938 22.363281 21.378906 22.496094 C 21.527344 22.613281 21.667969 22.699219 21.925781 22.859375 C 21.953125 22.875 21.984375 22.894531 22.011719 22.914062 C 21.988281 22.925781 21.960938 22.9375 21.933594 22.945312 C 21.84375 22.976562 21.589844 23.058594 21.589844 23.152344 C 21.589844 23.246094 21.839844 23.328125 21.929688 23.359375 C 22.105469 23.421875 22.292969 23.457031 22.480469 23.457031 C 22.863281 23.457031 23.199219 23.320312 23.402344 23.085938 C 23.570312 22.894531 23.632812 22.652344 23.585938 22.382812 C 23.554688 22.183594 23.46875 21.691406 23.445312 21.53125 L 23.65625 20.859375 C 23.664062 20.835938 23.664062 20.8125 23.664062 20.792969 C 23.664062 20.472656 23.570312 20.117188 23.386719 19.734375 L 23.378906 19.707031 C 23.371094 19.679688 23.359375 19.660156 23.339844 19.636719 C 23.332031 19.617188 23.320312 19.597656 23.3125 19.582031 C 23.265625 19.476562 23.203125 19.371094 23.128906 19.261719 C 22.570312 18.363281 21.777344 17.628906 21.742188 17.597656 C 21.675781 17.539062 21.542969 17.429688 21.457031 17.46875 C 21.375 17.503906 21.355469 17.679688 21.359375 17.769531 L 21.363281 17.820312 C 21.308594 17.691406 21.101562 17.480469 21.058594 17.414062 C 20.957031 17.269531 20.882812 17.117188 20.855469 17.011719 C 21.527344 13.980469 23.574219 11.96875 23.59375 11.949219 C 23.632812 11.910156 23.65625 11.863281 23.660156 11.8125 C 24.101562 7.480469 29.167969 5.574219 29.21875 5.554688 C 29.238281 5.546875 29.367188 5.507812 29.382812 5.496094 C 29.5625 5.367188 29.589844 5.265625 29.578125 5.222656 Z M 18.074219 24.09375 C 18.082031 24.097656 18.089844 24.101562 18.09375 24.105469 L 17.996094 24.121094 Z M 18.074219 24.09375 "/>
<path style=" stroke:none;fill-rule:nonzero;fill:rgb(0%,33.333333%,64.705882%);fill-opacity:1;" d="M 15.441406 36.277344 L 15.371094 36.277344 L 15.355469 36.789062 L 15.417969 36.792969 C 15.613281 36.796875 15.71875 36.71875 15.726562 36.539062 C 15.730469 36.371094 15.636719 36.285156 15.441406 36.277344 Z M 15.441406 36.277344 "/>
<path style=" stroke:none;fill-rule:nonzero;fill:rgb(0%,33.333333%,64.705882%);fill-opacity:1;" d="M 17.035156 36.960938 L 17.394531 36.914062 L 17.132812 36.335938 Z M 17.035156 36.960938 "/>
<path style=" stroke:none;fill-rule:nonzero;fill:rgb(0%,33.333333%,64.705882%);fill-opacity:1;" d="M 11.753906 36.046875 L 11.875 35.429688 L 11.429688 35.886719 Z M 11.753906 36.046875 "/>
<path style=" stroke:none;fill-rule:nonzero;fill:rgb(0%,33.333333%,64.705882%);fill-opacity:1;" d="M 5.328125 32.929688 L 5.210938 32.921875 L 5.179688 33.433594 L 5.300781 33.441406 C 5.488281 33.453125 5.59375 33.363281 5.605469 33.195312 C 5.613281 33.035156 5.511719 32.9375 5.328125 32.929688 Z M 5.328125 32.929688 "/>
<path style=" stroke:none;fill-rule:nonzero;fill:rgb(0%,33.333333%,64.705882%);fill-opacity:1;" d="M 20.511719 35.996094 L 20.839844 35.847656 L 20.421875 35.367188 Z M 20.511719 35.996094 "/>
<path style=" stroke:none;fill-rule:nonzero;fill:rgb(0%,33.333333%,64.705882%);fill-opacity:1;" d="M 22.617188 32.828125 C 20.394531 34.210938 18.589844 35.039062 16.3125 35.046875 C 13.238281 35.058594 10.859375 33.066406 7.613281 32.003906 C 4.371094 30.9375 0.636719 32.714844 0.636719 32.714844 C 0.636719 32.714844 1.828125 33.851562 1.917969 35.910156 C 1.917969 35.910156 4.082031 34.53125 7.328125 35.59375 C 10.574219 36.65625 12.253906 38.78125 16.429688 38.535156 C 20.066406 38.324219 22.132812 36.675781 24.46875 35.820312 C 25.195312 35.550781 27.863281 34.339844 30.175781 36.050781 C 30.386719 34.050781 31.488281 32.804688 31.488281 32.804688 C 28.722656 30.875 24.25 31.808594 22.617188 32.828125 Z M 3.757812 34.527344 C 3.167969 34.636719 2.746094 34.332031 2.628906 33.734375 C 2.511719 33.148438 2.808594 32.6875 3.40625 32.578125 C 3.605469 32.542969 3.769531 32.550781 3.917969 32.59375 L 3.9375 33.097656 C 3.816406 33.039062 3.6875 33 3.535156 33.027344 C 3.269531 33.078125 3.136719 33.304688 3.199219 33.625 C 3.261719 33.953125 3.484375 34.105469 3.753906 34.054688 C 3.886719 34.03125 4 33.960938 4.121094 33.859375 L 4.28125 34.300781 C 4.140625 34.402344 3.984375 34.484375 3.757812 34.527344 Z M 5.570312 34.464844 L 5.246094 33.832031 L 5.160156 33.828125 L 5.121094 34.421875 L 4.542969 34.386719 L 4.664062 32.472656 L 5.410156 32.515625 C 5.917969 32.546875 6.195312 32.78125 6.167969 33.191406 C 6.152344 33.449219 6.019531 33.628906 5.792969 33.726562 L 6.1875 34.410156 Z M 7.15625 34.761719 L 6.59375 34.613281 L 6.773438 33.964844 L 6.445312 32.648438 L 7.0625 32.734375 L 7.222656 33.539062 L 7.761719 32.9375 L 8.347656 33.09375 L 7.339844 34.101562 Z M 8.925781 34.125 C 9.277344 34.429688 9.386719 34.640625 9.261719 34.929688 C 9.078125 35.347656 8.699219 35.375 8.332031 35.222656 C 8.066406 35.109375 7.878906 34.96875 7.710938 34.792969 L 7.972656 34.402344 C 8.140625 34.59375 8.335938 34.75 8.511719 34.828125 C 8.617188 34.871094 8.703125 34.863281 8.734375 34.785156 C 8.769531 34.710938 8.738281 34.65625 8.53125 34.46875 C 8.21875 34.1875 8.101562 34 8.238281 33.691406 C 8.398438 33.332031 8.765625 33.269531 9.121094 33.417969 C 9.382812 33.527344 9.523438 33.636719 9.664062 33.792969 L 9.402344 34.183594 C 9.257812 34.007812 9.09375 33.878906 8.957031 33.820312 C 8.851562 33.777344 8.785156 33.789062 8.757812 33.851562 C 8.726562 33.921875 8.753906 33.972656 8.925781 34.125 Z M 9.527344 35.753906 L 10.214844 34.472656 L 9.75 34.234375 L 9.972656 33.816406 L 11.371094 34.53125 L 11.214844 34.984375 L 10.726562 34.738281 L 10.042969 36.015625 Z M 12.183594 37.023438 L 11.617188 36.847656 L 11.671875 36.492188 L 11.121094 36.222656 L 10.886719 36.464844 L 10.382812 36.21875 L 11.875 34.796875 L 12.457031 35.082031 Z M 13.648438 37.570312 L 12.492188 37.207031 L 13.09375 35.382812 L 13.648438 35.554688 L 13.195312 36.921875 L 13.722656 37.085938 Z M 15.4375 37.207031 L 15.347656 37.203125 L 15.324219 37.777344 L 14.746094 37.757812 L 14.8125 35.84375 L 15.492188 35.867188 C 15.996094 35.882812 16.296875 36.109375 16.28125 36.546875 C 16.265625 37 15.929688 37.222656 15.4375 37.207031 Z M 17.742188 37.644531 L 17.582031 37.320312 L 16.96875 37.402344 L 16.917969 37.734375 L 16.359375 37.808594 L 16.761719 35.8125 L 17.410156 35.726562 L 18.3125 37.476562 Z M 18.71875 37.425781 L 18.136719 35.59375 L 18.695312 35.425781 L 19.128906 36.792969 L 19.65625 36.632812 L 19.878906 37.070312 Z M 21.386719 36.453125 L 21.140625 36.1875 L 20.578125 36.4375 L 20.625 36.769531 L 20.113281 36.996094 L 19.917969 34.96875 L 20.511719 34.707031 L 21.886719 36.136719 Z M 22.875 35.753906 C 22.335938 36.011719 21.84375 35.828125 21.570312 35.277344 C 21.304688 34.742188 21.46875 34.222656 22.015625 33.960938 C 22.191406 33.878906 22.355469 33.84375 22.511719 33.847656 L 22.664062 34.328125 C 22.53125 34.300781 22.394531 34.296875 22.257812 34.363281 C 22.015625 34.476562 21.941406 34.730469 22.089844 35.027344 C 22.238281 35.328125 22.496094 35.417969 22.742188 35.300781 C 22.867188 35.242188 22.953125 35.148438 23.046875 35.015625 L 23.316406 35.398438 C 23.210938 35.539062 23.082031 35.65625 22.875 35.753906 Z M 23.574219 35.386719 L 22.832031 33.613281 L 24.03125 33.136719 L 24.203125 33.550781 L 23.53125 33.816406 L 23.636719 34.070312 L 24.144531 33.867188 L 24.382812 34.25 L 23.808594 34.480469 L 23.925781 34.761719 L 24.621094 34.484375 L 24.792969 34.898438 Z M 26.09375 34.523438 L 25.527344 34.640625 L 25.128906 32.761719 L 26.339844 32.515625 L 26.4375 32.96875 L 25.789062 33.101562 L 25.855469 33.40625 L 26.320312 33.308594 L 26.496094 33.75 L 25.949219 33.859375 Z M 26.910156 34.402344 C 26.757812 34.414062 26.625 34.304688 26.613281 34.152344 C 26.601562 34.003906 26.710938 33.875 26.863281 33.863281 C 27.015625 33.851562 27.152344 33.960938 27.164062 34.109375 C 27.175781 34.257812 27.058594 34.390625 26.910156 34.402344 Z M 28.738281 33.148438 C 28.644531 33.054688 28.527344 32.980469 28.375 32.964844 C 28.109375 32.9375 27.910156 33.117188 27.875 33.441406 C 27.835938 33.773438 28.003906 33.984375 28.277344 34.011719 C 28.414062 34.027344 28.539062 33.992188 28.6875 33.929688 L 28.710938 34.394531 C 28.542969 34.457031 28.371094 34.488281 28.144531 34.464844 C 27.546875 34.402344 27.230469 33.992188 27.296875 33.382812 C 27.363281 32.792969 27.78125 32.4375 28.386719 32.5 C 28.585938 32.523438 28.742188 32.578125 28.875 32.660156 Z M 29.171875 34.671875 C 29.015625 34.683594 28.882812 34.574219 28.871094 34.425781 C 28.859375 34.273438 28.972656 34.144531 29.125 34.132812 C 29.277344 34.121094 29.410156 34.230469 29.421875 34.378906 C 29.4375 34.53125 29.324219 34.660156 29.171875 34.671875 Z M 29.171875 34.671875 "/>
<path style=" stroke:none;fill-rule:nonzero;fill:rgb(93.333333%,18.039216%,14.117647%);fill-opacity:1;" d="M 28.777344 37.273438 L 28.558594 37.136719 C 28.378906 37.023438 28.003906 36.980469 27.667969 37.035156 C 27.609375 37.046875 27.546875 37.058594 27.484375 37.070312 C 27.242188 37.125 26.996094 37.175781 26.820312 37.042969 C 26.722656 36.964844 26.671875 36.839844 26.671875 36.675781 C 26.671875 36.519531 26.738281 36.386719 26.863281 36.289062 C 27.386719 35.890625 28.921875 36.257812 29.09375 36.300781 C 29.246094 36.339844 29.71875 36.425781 29.917969 36.289062 C 29.976562 36.25 30.003906 36.195312 30.011719 36.121094 C 30.175781 34.394531 30.972656 33.222656 31.265625 32.84375 C 28.601562 31.105469 24.359375 31.964844 22.695312 32.957031 C 20.800781 34.085938 18.742188 35.191406 16.3125 35.199219 C 16.304688 35.199219 16.296875 35.199219 16.285156 35.199219 C 14.3125 35.199219 12.617188 34.390625 10.828125 33.535156 C 9.800781 33.042969 8.738281 32.535156 7.566406 32.152344 C 4.824219 31.253906 1.679688 32.441406 0.890625 32.773438 C 1.222656 33.15625 1.996094 34.234375 2.070312 35.910156 C 2.074219 35.984375 2.101562 36.042969 2.15625 36.082031 C 2.351562 36.226562 2.824219 36.164062 2.972656 36.132812 C 3.152344 36.09375 4.703125 35.800781 5.207031 36.226562 C 5.328125 36.328125 5.386719 36.460938 5.378906 36.617188 C 5.371094 36.78125 5.3125 36.902344 5.210938 36.976562 C 5.03125 37.105469 4.785156 37.039062 4.546875 36.976562 C 4.488281 36.960938 4.425781 36.945312 4.367188 36.933594 C 4.03125 36.863281 3.65625 36.886719 3.472656 36.992188 L 3.25 37.117188 L 3.234375 36.386719 C 3.164062 36.398438 3.097656 36.410156 3.035156 36.421875 C 2.964844 36.4375 2.3125 36.574219 1.96875 36.316406 C 1.839844 36.222656 1.769531 36.085938 1.761719 35.917969 C 1.675781 33.945312 0.539062 32.835938 0.527344 32.824219 L 0.371094 32.675781 L 0.566406 32.582031 C 0.722656 32.511719 4.394531 30.792969 7.660156 31.863281 C 8.855469 32.253906 9.925781 32.765625 10.960938 33.261719 C 12.71875 34.101562 14.378906 34.898438 16.285156 34.898438 L 16.3125 34.898438 C 18.433594 34.890625 20.265625 34.050781 22.539062 32.699219 C 24.292969 31.652344 28.8125 30.753906 31.574219 32.683594 L 31.710938 32.78125 L 31.601562 32.90625 C 31.589844 32.917969 30.5 34.171875 30.316406 36.144531 C 30.300781 36.308594 30.226562 36.445312 30.09375 36.53125 C 29.738281 36.769531 29.089844 36.605469 29.015625 36.585938 C 28.957031 36.570312 28.894531 36.554688 28.828125 36.542969 Z M 27.65625 36.402344 C 27.390625 36.402344 27.167969 36.4375 27.054688 36.523438 C 27.003906 36.5625 26.980469 36.609375 26.980469 36.671875 C 26.980469 36.742188 26.992188 36.789062 27.015625 36.804688 C 27.074219 36.851562 27.273438 36.808594 27.417969 36.777344 C 27.488281 36.761719 27.554688 36.746094 27.621094 36.738281 C 27.871094 36.699219 28.21875 36.695312 28.503906 36.785156 L 28.523438 36.484375 C 28.238281 36.4375 27.925781 36.402344 27.65625 36.402344 Z M 3.976562 36.589844 C 4.144531 36.589844 4.300781 36.609375 4.433594 36.636719 C 4.496094 36.648438 4.5625 36.667969 4.632812 36.683594 C 4.777344 36.722656 4.972656 36.773438 5.035156 36.734375 C 5.054688 36.71875 5.070312 36.667969 5.074219 36.601562 C 5.078125 36.539062 5.058594 36.492188 5.007812 36.449219 C 4.785156 36.261719 4.117188 36.273438 3.539062 36.34375 L 3.546875 36.644531 C 3.683594 36.605469 3.832031 36.589844 3.976562 36.589844 Z M 3.976562 36.589844 "/>
<path style=" stroke:none;fill-rule:nonzero;fill:rgb(93.333333%,18.039216%,14.117647%);fill-opacity:1;" d="M 15.769531 38.738281 C 13.355469 38.738281 11.804688 37.925781 10.167969 37.066406 C 9.285156 36.605469 8.367188 36.125 7.28125 35.765625 C 4.152344 34.742188 2.023438 36.050781 2 36.066406 L 1.835938 35.816406 C 1.925781 35.757812 4.101562 34.410156 7.378906 35.484375 C 8.488281 35.847656 9.417969 36.335938 10.316406 36.804688 C 12.054688 37.71875 13.699219 38.578125 16.421875 38.421875 C 18.953125 38.273438 20.683594 37.4375 22.355469 36.628906 C 23.058594 36.289062 23.71875 35.96875 24.414062 35.714844 C 24.460938 35.695312 24.515625 35.675781 24.582031 35.648438 C 25.527344 35.285156 28.046875 34.3125 30.277344 35.972656 L 30.089844 36.210938 C 27.996094 34.652344 25.597656 35.578125 24.691406 35.929688 C 24.628906 35.953125 24.570312 35.972656 24.519531 35.992188 C 23.839844 36.246094 23.183594 36.558594 22.492188 36.894531 C 20.871094 37.679688 19.035156 38.566406 16.441406 38.71875 C 16.210938 38.730469 15.988281 38.738281 15.769531 38.738281 Z M 15.769531 38.738281 "/>
<path style=" stroke:none;fill-rule:nonzero;fill:rgb(93.333333%,18.039216%,14.117647%);fill-opacity:1;" d="M 5.0625 36.496094 C 4.332031 35.910156 4.042969 35.34375 4.03125 35.316406 L 4.308594 35.1875 C 4.3125 35.191406 4.578125 35.722656 5.257812 36.265625 Z M 5.0625 36.496094 "/>
<path style=" stroke:none;fill-rule:nonzero;fill:rgb(93.333333%,18.039216%,14.117647%);fill-opacity:1;" d="M 27.015625 36.558594 L 26.835938 36.316406 C 27.625 35.753906 27.71875 35.15625 27.71875 35.152344 L 28.023438 35.195312 C 28.019531 35.222656 27.910156 35.925781 27.015625 36.558594 Z M 27.015625 36.558594 "/>
<path style=" stroke:none;fill-rule:nonzero;fill:rgb(100%,100%,100%);fill-opacity:1;" d="M 17.878906 9.105469 C 17.832031 8.882812 17.78125 8.609375 17.742188 8.300781 C 17.773438 8.554688 17.816406 8.820312 17.878906 9.105469 Z M 17.878906 9.105469 "/>
<path style=" stroke:none;fill-rule:nonzero;fill:rgb(0%,33.333333%,64.705882%);fill-opacity:1;" d="M 23.179688 19.8125 C 23.171875 19.785156 23.167969 19.773438 23.167969 19.773438 C 23.167969 19.773438 23.167969 19.78125 23.171875 19.796875 C 23.152344 19.757812 23.132812 19.714844 23.109375 19.671875 C 23.0625 19.566406 23 19.46875 22.9375 19.371094 C 22.386719 18.488281 21.589844 17.757812 21.589844 17.757812 L 21.601562 17.96875 C 21.601562 17.96875 21.605469 17.972656 21.605469 17.972656 L 21.628906 18.308594 C 21.628906 18.308594 19.054688 16.847656 17.960938 15.5 C 17.109375 14.457031 16.128906 13.320312 15.546875 11.921875 L 15.335938 11.585938 C 14.59375 10.722656 13.820312 10.886719 12.125 8.972656 C 11.546875 8.316406 10.90625 7.023438 10.699219 6.171875 C 10.273438 4.367188 10.347656 2.308594 10.804688 0.519531 C 10.804688 0.519531 11.019531 -0.09375 9.847656 1.726562 C 9.261719 2.636719 8.851562 3.671875 8.652344 4.730469 C 8.554688 5.269531 8.507812 5.8125 8.527344 6.351562 C 8.128906 5.578125 7.8125 4.734375 7.589844 3.863281 C 7.304688 2.71875 7.191406 1.527344 7.308594 0.390625 C 7.308594 0.390625 7.101562 0.191406 6.390625 2.050781 C 5.679688 3.910156 5.566406 5.496094 5.894531 7.273438 C 4.585938 6.1875 4.289062 4.203125 3.855469 2.636719 C 3.855469 2.636719 3.851562 2.636719 3.851562 2.636719 C 3.847656 2.640625 3.84375 2.648438 3.835938 2.660156 C 3.820312 2.691406 3.796875 2.761719 3.785156 2.90625 C 3.785156 3.019531 3.769531 3.132812 3.769531 3.246094 C 3.691406 4.03125 3.617188 6.167969 4.738281 8.398438 C 4.761719 8.453125 4.785156 8.503906 4.808594 8.558594 C 4.96875 8.882812 5.15625 9.179688 5.328125 9.476562 C 5.613281 9.964844 5.832031 10.085938 6.152344 10.515625 C 6.117188 10.511719 4.195312 10.117188 3.488281 10.015625 C 3.914062 10.285156 4.695312 10.980469 5.582031 11.792969 C 5.582031 11.792969 8.238281 12 10.324219 13.507812 C 10.324219 13.507812 8.519531 12.644531 6.351562 12.496094 C 6.480469 12.613281 6.605469 12.734375 6.734375 12.851562 C 7.351562 13.417969 7.972656 13.984375 8.523438 14.460938 L 8.515625 14.460938 L 6.949219 14.308594 L 9.203125 16.085938 L 9.605469 16.101562 C 9.605469 16.101562 10.363281 16.074219 11.109375 16.242188 C 11.910156 16.417969 12.335938 16.671875 12.335938 16.671875 C 11.886719 16.523438 11.144531 16.5 10.699219 16.527344 C 10.378906 16.550781 10.171875 16.636719 9.941406 16.667969 L 10.070312 16.769531 L 11.492188 17.886719 L 12.757812 17.917969 C 11.6875 18.566406 10.640625 18.824219 9.296875 18.382812 C 8.582031 18.152344 7.890625 17.785156 7.304688 17.320312 C 7.539062 17.890625 8.09375 18.378906 8.523438 18.8125 C 7.105469 18.707031 5.964844 18.386719 4.671875 17.808594 C 5.167969 18.558594 5.558594 19.066406 5.953125 19.46875 C 6.34375 19.867188 6.886719 20.300781 7.15625 20.460938 C 7.328125 20.5625 8.117188 20.554688 8.640625 20.507812 C 8.742188 20.496094 8.832031 20.488281 8.90625 20.472656 C 9.023438 20.457031 9.175781 20.421875 9.335938 20.386719 C 9.871094 20.265625 10.519531 20.089844 10.484375 20.113281 C 10.253906 20.261719 9.996094 20.40625 9.730469 20.542969 C 9.570312 20.621094 9.40625 20.695312 9.242188 20.765625 C 8.488281 21.082031 7.667969 21.277344 6.917969 21.1875 C 7.757812 21.476562 8.628906 21.691406 9.515625 21.773438 C 9.824219 21.800781 9.933594 21.796875 10.195312 21.675781 C 10.59375 21.5 10.917969 21.351562 11.234375 21.203125 C 11.394531 21.128906 11.550781 21.054688 11.710938 20.972656 C 11.933594 20.867188 12.160156 20.75 12.414062 20.609375 C 12.269531 20.746094 12.121094 20.871094 11.96875 20.996094 C 11.886719 21.066406 11.800781 21.136719 11.710938 21.203125 C 11.40625 21.449219 11.078125 21.703125 10.703125 22.023438 C 11.703125 22.089844 12.285156 22.253906 13.613281 21.847656 C 13.613281 21.847656 13.339844 22.046875 12.960938 22.261719 L 13.355469 23.015625 L 12.925781 22.828125 L 13.207031 23.34375 C 13.207031 23.34375 13.40625 23.582031 13.691406 23.785156 L 13.785156 24.089844 C 13.566406 24.027344 13.285156 23.796875 13.144531 23.703125 C 13.367188 24.574219 13.898438 24.40625 14.050781 24.933594 C 14.15625 25.289062 14.542969 25.929688 14.324219 26.269531 C 14.066406 26.667969 13.898438 26.640625 13.535156 26.957031 C 13.117188 27.328125 13.441406 27.785156 13.527344 27.933594 C 13.613281 27.503906 13.941406 27.222656 14.125 27.167969 C 14.417969 27.085938 14.769531 27.152344 14.898438 27.023438 C 15.363281 26.574219 16.355469 26.457031 17.042969 26.878906 C 16.722656 26.378906 16.558594 26.394531 15.925781 26.214844 C 17.046875 26.285156 17.117188 26.523438 17.667969 27.148438 C 17.710938 26.792969 17.410156 26.34375 17.152344 26.128906 C 17.074219 26.058594 16.183594 25.9375 15.320312 25.863281 C 15.015625 25.839844 14.894531 25.457031 14.851562 25.253906 C 14.902344 25.28125 15.148438 25.40625 15.386719 25.402344 C 15.324219 25.105469 15.238281 24.765625 15.191406 24.5625 C 15.273438 24.601562 15.363281 24.65625 15.554688 24.660156 L 15.429688 24.160156 C 15.371094 23.761719 15.238281 23.472656 15.628906 22.863281 C 15.847656 23.015625 15.941406 23.078125 16.039062 23.183594 C 16.039062 23.183594 16.121094 23.566406 16.210938 23.769531 C 16.226562 23.808594 16.613281 24.128906 16.625 24.167969 L 15.964844 23.980469 C 15.964844 23.980469 16.183594 24.472656 16.621094 24.757812 C 16.882812 24.847656 17.113281 24.949219 17.1875 25.046875 C 17.265625 25.148438 17.398438 25.425781 17.335938 25.570312 C 17.285156 25.691406 16.933594 25.179688 16.191406 25.789062 C 16.695312 25.796875 17.304688 25.933594 17.4375 26.085938 C 17.605469 26.28125 17.726562 26.457031 17.847656 26.53125 C 18.386719 26.847656 18.425781 27.011719 18.382812 27.632812 C 18.714844 27.382812 18.621094 26.726562 18.574219 26.566406 C 19.015625 27.085938 18.917969 27.789062 18.78125 28.0625 C 19.113281 27.882812 19.515625 27.167969 19.136719 26.605469 C 19.035156 26.511719 18.472656 26.105469 18.363281 25.980469 C 18.082031 25.667969 18.011719 25.316406 17.871094 24.957031 C 17.972656 24.960938 18.09375 25 18.191406 25 C 18.140625 24.785156 18.070312 24.511719 18.019531 24.207031 C 18.011719 24.179688 18.007812 24.152344 18.003906 24.125 C 18.003906 24.113281 18 24.101562 18 24.089844 C 17.992188 24.042969 17.984375 24 17.980469 23.953125 C 17.976562 23.941406 17.976562 23.929688 17.976562 23.917969 C 17.96875 23.871094 17.964844 23.824219 17.960938 23.777344 C 18.140625 23.890625 18.265625 23.941406 18.265625 23.941406 L 17.957031 23.113281 C 17.960938 23.050781 17.96875 22.988281 17.980469 22.925781 C 17.980469 22.921875 17.980469 22.917969 17.980469 22.914062 C 17.992188 22.855469 18.003906 22.800781 18.015625 22.746094 C 18.019531 22.734375 18.019531 22.726562 18.023438 22.71875 C 18.035156 22.664062 18.050781 22.617188 18.066406 22.5625 C 18.070312 22.554688 18.074219 22.539062 18.078125 22.527344 C 18.101562 22.464844 18.125 22.40625 18.152344 22.347656 C 18.011719 22.644531 18.425781 23.070312 18.425781 23.070312 C 18.480469 22.417969 19.078125 21.804688 19.578125 21.585938 C 19.550781 21.765625 19.648438 21.949219 19.648438 21.949219 C 19.796875 21.640625 20.097656 21.519531 20.316406 21.46875 L 20.722656 21.628906 L 21.152344 21.796875 L 21.265625 21.84375 C 21.265625 21.84375 21.34375 22.175781 21.535156 22.328125 C 21.71875 22.472656 21.90625 22.578125 22.363281 22.863281 C 22.332031 22.976562 22.226562 23.078125 22.023438 23.152344 C 22.671875 23.390625 23.492188 23.105469 23.375 22.421875 C 23.332031 22.179688 23.226562 21.515625 23.226562 21.515625 L 23.378906 21.023438 L 23.421875 20.878906 L 23.429688 20.863281 L 23.449219 20.796875 C 23.441406 20.472656 23.335938 20.140625 23.179688 19.8125 Z M 20.871094 20.820312 L 20.527344 20.210938 L 19.644531 19.777344 L 20.363281 20.59375 C 19.984375 20.382812 19.335938 20.046875 18.636719 19.917969 C 18.636719 19.917969 19.230469 20.464844 19.515625 20.734375 C 19.570312 20.769531 19.582031 20.796875 19.582031 20.796875 C 19.5625 20.777344 19.539062 20.757812 19.515625 20.734375 C 19.433594 20.679688 19.242188 20.609375 18.804688 20.585938 C 18.402344 20.546875 17.921875 20.441406 17.488281 20.203125 C 17.488281 20.203125 17.574219 20.328125 17.75 20.476562 C 17.753906 20.476562 17.757812 20.480469 17.757812 20.480469 C 17.757812 20.480469 17.761719 20.484375 17.761719 20.484375 C 17.929688 20.621094 18.171875 20.78125 18.503906 20.886719 C 18.53125 20.894531 18.859375 21.027344 18.886719 21.035156 C 18.648438 21.128906 18.449219 21.242188 18.28125 21.363281 C 17.960938 21.609375 17.761719 21.898438 17.640625 22.199219 C 17.4375 22.714844 17.246094 23.644531 17.394531 24.171875 C 16.9375 23.570312 16.53125 22.800781 16.753906 21.925781 C 16.058594 22.308594 15.613281 22.183594 15.128906 22.113281 C 14.90625 22.40625 14.613281 23.109375 14.574219 23.714844 C 14.535156 23.652344 14.496094 23.582031 14.460938 23.507812 C 14.28125 23.136719 14.1875 22.707031 14.167969 22.292969 C 14.15625 22.128906 14.15625 21.972656 14.171875 21.828125 L 14.171875 21.824219 L 15.761719 20.722656 L 13.449219 20.535156 C 13.484375 20.503906 13.527344 20.476562 13.566406 20.453125 C 14.457031 19.839844 15.554688 19.417969 16.65625 19.464844 C 16.742188 19.46875 16.828125 19.472656 16.914062 19.484375 C 16.203125 19.09375 14.957031 19.113281 14.214844 19.339844 C 13.210938 19.648438 12.816406 19.664062 11.742188 19.480469 C 12.871094 19.257812 12.828125 19.226562 13.496094 18.917969 C 14.046875 18.617188 15.089844 18.066406 16.40625 18.300781 C 16.082031 18.164062 15.804688 18.03125 15.414062 17.941406 C 15.03125 17.855469 14.410156 17.773438 13.738281 17.914062 C 13.738281 17.914062 14.195312 17.4375 15.042969 17.320312 C 13.886719 16.300781 10.464844 14.699219 10.464844 14.699219 C 15.320312 15.820312 17.386719 18.050781 17.695312 18.410156 C 17.714844 18.425781 17.734375 18.441406 17.753906 18.457031 C 17.574219 18.050781 16.496094 15.59375 13.542969 13.796875 C 13.132812 13.550781 12.679688 13.375 12.261719 13.136719 C 11.597656 12.757812 10.980469 12.339844 10.421875 11.878906 L 10.421875 11.890625 C 4.929688 7.625 6.972656 1.757812 6.972656 1.757812 C 6.796875 3.121094 7.03125 4.453125 7.4375 5.636719 C 7.695312 6.390625 8.015625 7.082031 8.347656 7.6875 C 8.714844 8.367188 9.089844 8.929688 9.386719 9.335938 C 10.070312 10.152344 10.882812 10.847656 11.820312 11.351562 C 11.820312 11.351562 7.675781 8.59375 10.03125 2.710938 C 9.9375 2.964844 8.308594 7.679688 14.433594 11.78125 C 14.550781 11.859375 14.636719 11.855469 14.671875 11.941406 C 15.488281 13.859375 18.628906 16.910156 19.210938 18.378906 C 19.1875 18.078125 19.160156 17.777344 19.132812 17.476562 C 19.484375 17.847656 19.757812 18.304688 19.902344 18.789062 C 19.929688 18.492188 19.957031 18.042969 19.984375 17.746094 C 20.492188 18.019531 21.242188 18.585938 21.863281 19.242188 C 21.863281 19.242188 21.855469 19.234375 21.84375 19.226562 C 21.824219 19.203125 21.800781 19.179688 21.785156 19.160156 C 21.792969 19.167969 21.804688 19.179688 21.8125 19.1875 C 21.816406 19.195312 21.820312 19.199219 21.824219 19.203125 C 21.832031 19.210938 21.839844 19.21875 21.84375 19.226562 C 21.851562 19.230469 21.855469 19.238281 21.863281 19.242188 L 21.835938 18.808594 L 21.820312 18.605469 C 21.820312 18.605469 22.757812 19.730469 23.078125 20.601562 C 23.097656 20.652344 23.113281 20.699219 23.128906 20.75 C 23.121094 20.992188 23.085938 21.160156 23.046875 21.265625 C 23.011719 21.359375 22.867188 21.511719 22.835938 21.535156 C 22.8125 21.550781 22.796875 21.554688 22.796875 21.554688 C 22.839844 21.523438 22.851562 21.441406 22.851562 21.367188 C 22.851562 21.277344 22.832031 21.179688 22.796875 21.070312 C 22.765625 20.964844 22.726562 20.867188 22.691406 20.792969 C 22.65625 20.710938 22.628906 20.65625 22.628906 20.65625 C 22.648438 20.859375 22.640625 21.003906 22.617188 21.113281 C 22.617188 21.117188 22.617188 21.121094 22.613281 21.121094 C 22.566406 21.324219 22.472656 21.375 22.445312 21.386719 C 22.441406 21.390625 22.441406 21.390625 22.4375 21.390625 C 22.429688 21.359375 22.425781 21.328125 22.417969 21.296875 C 22.390625 21.226562 22.363281 21.152344 22.332031 21.082031 C 22.226562 20.824219 21.839844 20.105469 21.710938 19.855469 C 21.601562 20.007812 21.75 20.363281 21.75 20.363281 C 21.796875 20.457031 21.914062 20.695312 21.914062 20.695312 C 21.804688 20.9375 21.964844 21.199219 22.179688 21.300781 C 22.121094 21.328125 21.917969 21.300781 21.777344 21.21875 C 21.832031 21.324219 22.019531 21.570312 22.113281 21.644531 C 21.835938 21.578125 21.210938 21.09375 20.871094 20.820312 Z M 22.277344 22.621094 L 22.007812 22.40625 L 21.8125 22.253906 L 21.761719 22.109375 L 21.75 22.070312 L 21.683594 21.871094 L 21.683594 21.863281 C 21.898438 21.988281 22.074219 22.21875 22.183594 22.398438 C 22.207031 22.4375 22.328125 22.664062 22.328125 22.664062 Z M 23.117188 22.777344 C 23.035156 22.878906 22.902344 22.96875 22.761719 23.027344 C 22.609375 23.09375 22.441406 23.125 22.316406 23.09375 C 22.320312 23.09375 22.324219 23.089844 22.328125 23.089844 C 22.339844 23.085938 22.351562 23.078125 22.363281 23.070312 C 22.375 23.066406 22.382812 23.0625 22.390625 23.058594 C 22.707031 22.867188 22.539062 22.511719 22.210938 22.144531 L 22.203125 22.144531 L 21.457031 21.507812 L 21.414062 21.472656 L 21.402344 21.464844 L 21.410156 21.464844 L 21.433594 21.457031 L 21.441406 21.453125 L 21.46875 21.445312 L 21.582031 21.503906 L 21.960938 21.714844 L 21.988281 21.730469 L 22.15625 21.820312 L 22.339844 21.921875 C 22.34375 21.921875 22.34375 21.921875 22.34375 21.921875 C 22.515625 21.882812 22.710938 21.835938 22.738281 21.828125 C 22.863281 21.796875 22.9375 21.761719 22.976562 21.730469 C 22.980469 21.757812 23.304688 22.542969 23.117188 22.777344 Z M 23.117188 22.777344 "/>
<path style=" stroke:none;fill-rule:nonzero;fill:rgb(0%,33.333333%,64.705882%);fill-opacity:1;" d="M 27.042969 5.148438 L 27.078125 5.152344 C 26.03125 5.214844 24.996094 5.511719 24.136719 6.046875 C 24.84375 4.691406 26.414062 3.777344 27.804688 3.242188 C 27.804688 3.242188 27.976562 2.980469 26.296875 3.226562 C 26.082031 3.25 25.863281 3.285156 25.648438 3.332031 C 25.644531 3.332031 25.644531 3.332031 25.640625 3.332031 L 25.644531 3.332031 C 24.722656 3.53125 23.84375 3.933594 23.105469 4.5 C 22.6875 4.824219 22.3125 5.199219 22 5.621094 C 20.585938 7.460938 20.105469 9.066406 20.105469 9.066406 C 20.105469 9.066406 19.902344 6.695312 23.003906 3.566406 C 23.34375 3.007812 23.730469 2.476562 24.152344 1.992188 C 24.152344 1.992188 24.222656 1.636719 22.46875 2.941406 C 21.199219 3.808594 20.089844 4.945312 19.289062 6.21875 C 19.003906 6.71875 18.386719 7.847656 18.210938 8.59375 C 18.210938 8.617188 18.214844 8.640625 18.214844 8.664062 C 18.214844 8.664062 18.234375 9.109375 18.316406 9.703125 C 18.421875 10.421875 18.722656 11.417969 18.722656 11.417969 C 18.515625 11.007812 18.148438 10.105469 18.027344 9.6875 C 17.96875 9.484375 17.921875 9.292969 17.878906 9.109375 C 17.855469 8.992188 17.835938 8.882812 17.816406 8.777344 C 17.804688 8.71875 17.796875 8.65625 17.785156 8.59375 C 17.769531 8.496094 17.757812 8.398438 17.746094 8.304688 C 17.707031 7.957031 17.691406 7.628906 17.6875 7.300781 C 17.679688 6.863281 17.699219 6.472656 17.71875 6.183594 C 16.914062 7.992188 16.835938 9.382812 16.835938 9.9375 C 16.792969 10.292969 16.773438 10.558594 16.757812 10.78125 C 16.96875 11.363281 17.339844 12.136719 18.003906 13.117188 C 18.003906 13.117188 17.40625 12.789062 16.703125 11.589844 C 16.675781 11.855469 16.625 12.15625 16.515625 12.625 C 17.3125 13.949219 18.113281 14.96875 18.835938 15.746094 L 18.835938 14.164062 C 19.09375 14.417969 19.273438 14.613281 19.394531 14.765625 C 19.511719 14.253906 19.671875 13.636719 19.898438 12.980469 C 21.304688 8.894531 22.96875 7.652344 22.96875 7.652344 C 21.4375 9.992188 20.03125 14.726562 20.089844 16.9375 C 20.382812 17.183594 20.652344 17.382812 20.871094 17.535156 C 20.75 17.359375 20.652344 17.160156 20.625 17.003906 C 21.308594 13.847656 23.4375 11.785156 23.4375 11.785156 C 23.898438 7.261719 29.140625 5.34375 29.140625 5.34375 C 29.566406 5.039062 27.042969 5.148438 27.042969 5.148438 Z M 27.042969 5.148438 "/>
<path style=" stroke:none;fill-rule:nonzero;fill:rgb(89.411765%,89.411765%,89.411765%);fill-opacity:1;" d="M 27.828125 31.210938 L 27.828125 28.652344 C 27.554688 28.859375 27.296875 29.042969 27.050781 29.210938 L 27.050781 29.964844 L 26.65625 29.964844 L 26.65625 29.472656 C 24.953125 30.574219 24.113281 30.6875 24.113281 30.6875 C 25.257812 30.117188 26.078125 29.554688 26.65625 29.074219 L 26.65625 28.097656 C 24.566406 29.855469 22.6875 30.757812 21.992188 31.058594 C 21.992188 31.109375 21.992188 31.257812 21.992188 31.464844 L 25.074219 31.464844 C 25.074219 31.464844 25.5 31.464844 25.578125 31.464844 C 26.292969 31.351562 27.058594 31.292969 27.828125 31.328125 "/>
<path style=" stroke:none;fill-rule:nonzero;fill:rgb(71.764706%,71.764706%,71.764706%);fill-opacity:1;" d="M 24.589844 31.671875 C 24.03125 31.8125 23.519531 31.988281 23.089844 32.179688 L 23.089844 31.671875 Z M 24.589844 31.671875 "/>
<path style=" stroke:none;fill-rule:nonzero;fill:rgb(71.764706%,71.764706%,71.764706%);fill-opacity:1;" d="M 20.085938 33.816406 C 19.945312 33.878906 19.695312 33.984375 19.589844 34.027344 L 19.59375 33.507812 L 19.59375 32.441406 L 20.085938 32.441406 Z M 20.085938 33.816406 "/>
<path style=" stroke:none;fill-rule:nonzero;fill:rgb(71.764706%,71.764706%,71.764706%);fill-opacity:1;" d="M 19.59375 31.046875 L 20.085938 31.046875 L 20.085938 32.25 L 19.59375 32.25 Z M 19.59375 31.046875 "/>
<path style=" stroke:none;fill-rule:nonzero;fill:rgb(71.764706%,71.764706%,71.764706%);fill-opacity:1;" d="M 21.792969 32.820312 L 21.792969 32.445312 L 21.351562 32.445312 L 21.351562 33.167969 C 21.5 33.085938 21.644531 33 21.792969 32.914062 Z M 21.792969 32.820312 "/>
<path style=" stroke:none;fill-rule:nonzero;fill:rgb(71.764706%,71.764706%,71.764706%);fill-opacity:1;" d="M 21.351562 31.046875 L 21.792969 31.046875 L 21.792969 32.25 L 21.351562 32.25 Z M 21.351562 31.046875 "/>
<path style=" stroke:none;fill-rule:nonzero;fill:rgb(71.764706%,71.764706%,71.764706%);fill-opacity:1;" d="M 20.621094 33.25 L 20.621094 32.445312 L 20.28125 32.445312 L 20.28125 33.730469 C 20.394531 33.675781 20.507812 33.621094 20.621094 33.5625 Z M 20.621094 33.25 "/>
<path style=" stroke:none;fill-rule:nonzero;fill:rgb(71.764706%,71.764706%,71.764706%);fill-opacity:1;" d="M 20.28125 31.046875 L 20.621094 31.046875 L 20.621094 32.25 L 20.28125 32.25 Z M 20.28125 31.046875 "/>
<path style=" stroke:none;fill-rule:nonzero;fill:rgb(71.764706%,71.764706%,71.764706%);fill-opacity:1;" d="M 20.8125 31.046875 L 21.152344 31.046875 L 21.152344 32.25 L 20.8125 32.25 Z M 20.8125 31.046875 "/>
<path style=" stroke:none;fill-rule:nonzero;fill:rgb(71.764706%,71.764706%,71.764706%);fill-opacity:1;" d="M 21.152344 33.160156 L 21.152344 32.445312 L 20.8125 32.445312 L 20.8125 33.464844 C 20.921875 33.40625 21.039062 33.347656 21.152344 33.28125 Z M 21.152344 33.160156 "/>
<path style=" stroke:none;fill-rule:nonzero;fill:rgb(71.764706%,71.764706%,71.764706%);fill-opacity:1;" d="M 19.59375 30.019531 L 21.796875 30.019531 L 21.796875 30.851562 L 19.59375 30.851562 Z M 19.59375 30.019531 "/>
<path style=" stroke:none;fill-rule:nonzero;fill:rgb(71.764706%,71.764706%,71.764706%);fill-opacity:1;" d="M 10.820312 32.953125 C 10.660156 32.875 10.5 32.800781 10.335938 32.722656 L 10.335938 32.445312 L 10.820312 32.445312 Z M 10.820312 32.953125 "/>
<path style=" stroke:none;fill-rule:nonzero;fill:rgb(71.764706%,71.764706%,71.764706%);fill-opacity:1;" d="M 10.335938 31.046875 L 10.828125 31.046875 L 10.828125 32.25 L 10.335938 32.25 Z M 10.335938 31.046875 "/>
<path style=" stroke:none;fill-rule:nonzero;fill:rgb(71.764706%,71.764706%,71.764706%);fill-opacity:1;" d="M 12.085938 33.550781 C 12.234375 33.621094 12.382812 33.6875 12.53125 33.75 L 12.535156 32.816406 L 12.535156 32.445312 L 12.085938 32.445312 Z M 12.085938 33.550781 "/>
<path style=" stroke:none;fill-rule:nonzero;fill:rgb(71.764706%,71.764706%,71.764706%);fill-opacity:1;" d="M 12.09375 31.046875 L 12.535156 31.046875 L 12.535156 32.25 L 12.09375 32.25 Z M 12.09375 31.046875 "/>
<path style=" stroke:none;fill-rule:nonzero;fill:rgb(71.764706%,71.764706%,71.764706%);fill-opacity:1;" d="M 11.015625 31.046875 L 11.355469 31.046875 L 11.355469 32.25 L 11.015625 32.25 Z M 11.015625 31.046875 "/>
<path style=" stroke:none;fill-rule:nonzero;fill:rgb(71.764706%,71.764706%,71.764706%);fill-opacity:1;" d="M 11.558594 31.046875 L 11.890625 31.046875 L 11.890625 32.25 L 11.558594 32.25 Z M 11.558594 31.046875 "/>
<path style=" stroke:none;fill-rule:nonzero;fill:rgb(71.764706%,71.764706%,71.764706%);fill-opacity:1;" d="M 10.335938 30.019531 L 12.539062 30.019531 L 12.539062 30.851562 L 10.335938 30.851562 Z M 10.335938 30.019531 "/>
<path style=" stroke:none;fill-rule:nonzero;fill:rgb(71.764706%,71.764706%,71.764706%);fill-opacity:1;" d="M 11.550781 33.300781 C 11.652344 33.351562 11.785156 33.417969 11.890625 33.46875 L 11.890625 32.445312 L 11.550781 32.445312 Z M 11.550781 33.300781 "/>
<path style=" stroke:none;fill-rule:nonzero;fill:rgb(71.764706%,71.764706%,71.764706%);fill-opacity:1;" d="M 9.800781 32.476562 C 9.914062 32.527344 10.027344 32.578125 10.140625 32.632812 L 10.140625 31.671875 L 9.800781 31.671875 Z M 9.800781 32.476562 "/>
<path style=" stroke:none;fill-rule:nonzero;fill:rgb(71.764706%,71.764706%,71.764706%);fill-opacity:1;" d="M 11.015625 33.046875 C 11.035156 33.054688 11.054688 33.0625 11.074219 33.070312 C 11.167969 33.117188 11.261719 33.160156 11.355469 33.207031 L 11.355469 32.445312 L 11.019531 32.445312 L 11.019531 32.953125 Z M 11.015625 33.046875 "/>
<path style=" stroke:none;fill-rule:nonzero;fill:rgb(89.411765%,89.411765%,89.411765%);fill-opacity:1;" d="M 4.394531 30.308594 L 4.394531 28.652344 C 4.671875 28.859375 4.925781 29.042969 5.171875 29.210938 L 5.171875 29.964844 L 5.566406 29.964844 L 5.566406 29.472656 C 7.269531 30.574219 8.113281 30.6875 8.113281 30.6875 C 6.964844 30.117188 6.148438 29.554688 5.566406 29.074219 L 5.566406 28.097656 C 7.570312 29.78125 9.378906 30.679688 10.140625 31.019531 C 10.140625 31.152344 10.140625 31.46875 10.140625 31.46875 C 10.140625 31.46875 7.089844 31.484375 7.015625 31.46875 C 6.125 31.28125 5.230469 31.269531 4.394531 31.351562 "/>
<path style=" stroke:none;fill-rule:nonzero;fill:rgb(71.764706%,71.764706%,71.764706%);fill-opacity:1;" d="M 9.070312 32.167969 C 8.640625 31.996094 8.066406 31.769531 7.75 31.664062 L 9.070312 31.664062 Z M 9.070312 32.167969 "/>
<path style=" stroke:none;fill-rule:nonzero;fill:rgb(71.764706%,71.764706%,71.764706%);fill-opacity:1;" d="M 9.265625 32.140625 L 9.265625 31.671875 L 9.605469 31.671875 L 9.605469 32.386719 C 9.570312 32.371094 9.445312 32.320312 9.265625 32.246094 Z M 9.265625 32.140625 "/>
<path style=" stroke:none;fill-rule:nonzero;fill:rgb(71.764706%,71.764706%,71.764706%);fill-opacity:1;" d="M 22.363281 32.445312 L 22.363281 31.671875 L 21.992188 31.671875 L 21.992188 32.796875 C 22.117188 32.722656 22.238281 32.648438 22.363281 32.570312 Z M 22.363281 32.445312 "/>
<path style=" stroke:none;fill-rule:nonzero;fill:rgb(71.764706%,71.764706%,71.764706%);fill-opacity:1;" d="M 22.898438 32.179688 L 22.898438 31.671875 L 22.558594 31.671875 L 22.558594 32.179688 L 22.5625 32.449219 C 22.667969 32.390625 22.777344 32.332031 22.898438 32.273438 Z M 22.898438 32.179688 "/>
<path style=" stroke:none;fill-rule:nonzero;fill:rgb(71.764706%,71.764706%,71.764706%);fill-opacity:1;" d="M 19.398438 30.851562 L 19.398438 30.261719 C 19.398438 28.464844 17.90625 27.007812 16.066406 27.007812 C 14.222656 27.007812 12.730469 28.464844 12.730469 30.261719 L 12.730469 30.851562 L 13.300781 30.851562 C 13.265625 30.675781 13.246094 30.496094 13.246094 30.3125 C 13.246094 28.800781 14.5 27.574219 16.046875 27.574219 C 17.59375 27.574219 18.847656 28.800781 18.847656 30.3125 C 18.847656 30.496094 18.828125 30.679688 18.792969 30.855469 Z M 19.398438 30.851562 "/>
<path style=" stroke:none;fill-rule:nonzero;fill:rgb(89.411765%,89.411765%,89.411765%);fill-opacity:1;" d="M 5.171875 28.480469 L 5.171875 27.75 L 4.394531 26.984375 L 4.394531 27.84375 C 4.5 28.003906 4.738281 28.316406 5.171875 28.726562 Z M 5.171875 28.480469 "/>
<path style=" stroke:none;fill-rule:nonzero;fill:rgb(89.411765%,89.411765%,89.411765%);fill-opacity:1;" d="M 27.828125 27.84375 C 27.722656 28.003906 27.488281 28.316406 27.050781 28.726562 L 27.050781 27.75 L 27.828125 26.980469 Z M 27.828125 27.84375 "/>
<path style=" stroke:none;fill-rule:nonzero;fill:rgb(71.764706%,71.764706%,71.764706%);fill-opacity:1;" d="M 15.507812 33.441406 C 15.417969 33.441406 15.355469 33.496094 15.355469 33.597656 C 15.355469 33.691406 15.40625 33.746094 15.507812 33.746094 C 15.570312 33.746094 15.625 33.726562 15.679688 33.683594 L 15.679688 33.679688 C 15.675781 33.527344 15.609375 33.441406 15.507812 33.441406 Z M 15.507812 33.441406 "/>
<path style=" stroke:none;fill-rule:nonzero;fill:rgb(71.764706%,71.764706%,71.764706%);fill-opacity:1;" d="M 16.347656 33.445312 C 16.230469 33.445312 16.167969 33.550781 16.167969 33.75 C 16.167969 33.949219 16.230469 34.058594 16.347656 34.058594 C 16.464844 34.058594 16.527344 33.949219 16.527344 33.75 C 16.527344 33.550781 16.464844 33.445312 16.347656 33.445312 Z M 16.347656 33.445312 "/>
<path style=" stroke:none;fill-rule:nonzero;fill:rgb(71.764706%,71.764706%,71.764706%);fill-opacity:1;" d="M 3.636719 26.628906 C 3.753906 26.648438 3.863281 26.675781 3.96875 26.707031 L 3.96875 28.167969 C 3.863281 28.136719 3.753906 28.109375 3.636719 28.089844 Z M 3.636719 26.628906 "/>
<path style=" stroke:none;fill-rule:nonzero;fill:rgb(71.764706%,71.764706%,71.764706%);fill-opacity:1;" d="M 3.441406 28.058594 C 3.335938 28.046875 3.222656 28.039062 3.109375 28.035156 L 3.109375 26.574219 C 3.164062 26.574219 3.21875 26.578125 3.273438 26.582031 C 3.328125 26.585938 3.386719 26.589844 3.441406 26.597656 Z M 3.441406 28.058594 "/>
<path style=" stroke:none;fill-rule:nonzero;fill:rgb(71.764706%,71.764706%,71.764706%);fill-opacity:1;" d="M 2.582031 28.058594 C 2.6875 28.046875 2.800781 28.039062 2.914062 28.035156 L 2.914062 26.574219 C 2.800781 26.578125 2.691406 26.585938 2.582031 26.597656 Z M 2.582031 28.058594 "/>
<path style=" stroke:none;fill-rule:nonzero;fill:rgb(71.764706%,71.764706%,71.764706%);fill-opacity:1;" d="M 2.054688 28.171875 C 2.160156 28.140625 2.269531 28.113281 2.386719 28.089844 L 2.386719 26.628906 C 2.269531 26.652344 2.160156 26.675781 2.054688 26.710938 Z M 2.054688 28.171875 "/>
<path style=" stroke:none;fill-rule:nonzero;fill:rgb(71.764706%,71.764706%,71.764706%);fill-opacity:1;" d="M 1.75 25.441406 C 1.824219 25.40625 1.898438 25.378906 1.976562 25.351562 L 1.976562 25.527344 Z M 1.75 25.441406 "/>
<path style=" stroke:none;fill-rule:nonzero;fill:rgb(71.764706%,71.764706%,71.764706%);fill-opacity:1;" d="M 2.914062 25.953125 C 2.800781 25.957031 2.691406 25.964844 2.582031 25.976562 L 2.582031 25.21875 C 2.6875 25.203125 2.800781 25.195312 2.914062 25.191406 Z M 2.914062 25.953125 "/>
<path style=" stroke:none;fill-rule:nonzero;fill:rgb(71.764706%,71.764706%,71.764706%);fill-opacity:1;" d="M 3.441406 25.214844 C 3.335938 25.203125 3.222656 25.195312 3.109375 25.191406 L 3.109375 25.953125 C 3.222656 25.957031 3.335938 25.960938 3.441406 25.976562 Z M 3.441406 25.214844 "/>
<path style=" stroke:none;fill-rule:nonzero;fill:rgb(71.764706%,71.764706%,71.764706%);fill-opacity:1;" d="M 3.636719 25.246094 C 3.753906 25.265625 3.863281 25.292969 3.96875 25.328125 L 3.96875 26.085938 C 3.863281 26.054688 3.753906 26.027344 3.636719 26.007812 Z M 3.636719 25.246094 "/>
<path style=" stroke:none;fill-rule:nonzero;fill:rgb(71.764706%,71.764706%,71.764706%);fill-opacity:1;" d="M 2.386719 26.007812 C 2.269531 26.027344 2.160156 26.054688 2.054688 26.085938 L 2.054688 25.328125 C 2.160156 25.292969 2.269531 25.265625 2.386719 25.246094 Z M 2.386719 26.007812 "/>
<path style=" stroke:none;fill-rule:nonzero;fill:rgb(71.764706%,71.764706%,71.764706%);fill-opacity:1;" d="M 4.042969 25.351562 C 4.125 25.375 4.203125 25.40625 4.273438 25.441406 L 4.042969 25.527344 Z M 4.042969 25.351562 "/>
<path style=" stroke:none;fill-rule:nonzero;fill:rgb(71.764706%,71.764706%,71.764706%);fill-opacity:1;" d="M 1.75 26.820312 C 1.824219 26.789062 1.898438 26.757812 1.976562 26.734375 L 1.976562 26.910156 Z M 1.75 26.820312 "/>
<path style=" stroke:none;fill-rule:nonzero;fill:rgb(71.764706%,71.764706%,71.764706%);fill-opacity:1;" d="M 4.042969 26.734375 C 4.125 26.757812 4.203125 26.789062 4.273438 26.824219 L 4.042969 26.910156 Z M 4.042969 26.734375 "/>
<path style=" stroke:none;fill-rule:nonzero;fill:rgb(71.764706%,71.764706%,71.764706%);fill-opacity:1;" d="M 4.277344 24.945312 C 3.929688 24.789062 3.488281 24.695312 3.011719 24.695312 C 2.535156 24.695312 2.101562 24.789062 1.753906 24.945312 L 1.753906 25.261719 C 2.101562 25.105469 2.535156 25.011719 3.011719 25.011719 C 3.492188 25.011719 3.929688 25.105469 4.277344 25.261719 Z M 4.277344 24.945312 "/>
<path style=" stroke:none;fill-rule:nonzero;fill:rgb(71.764706%,71.764706%,71.764706%);fill-opacity:1;" d="M 4.277344 26.339844 C 3.929688 26.183594 3.488281 26.089844 3.011719 26.089844 C 2.535156 26.089844 2.101562 26.183594 1.753906 26.339844 L 1.753906 26.65625 C 2.101562 26.5 2.535156 26.40625 3.011719 26.40625 C 3.492188 26.40625 3.929688 26.5 4.277344 26.660156 Z M 4.277344 26.339844 "/>
<path style=" stroke:none;fill-rule:nonzero;fill:rgb(71.764706%,71.764706%,71.764706%);fill-opacity:1;" d="M 4.277344 24.804688 C 3.929688 24.648438 3.488281 24.554688 3.011719 24.554688 C 2.535156 24.554688 2.101562 24.648438 1.753906 24.804688 L 2.753906 23.871094 C 2.835938 23.863281 2.925781 23.863281 3.011719 23.863281 C 3.101562 23.863281 3.1875 23.863281 3.273438 23.871094 Z M 4.277344 24.804688 "/>
<path style=" stroke:none;fill-rule:nonzero;fill:rgb(71.764706%,71.764706%,71.764706%);fill-opacity:1;" d="M 2.753906 23.613281 C 2.753906 23.671875 2.753906 23.765625 2.753906 23.765625 C 2.835938 23.761719 2.925781 23.757812 3.011719 23.757812 C 3.101562 23.757812 3.1875 23.761719 3.273438 23.765625 C 3.273438 23.765625 3.273438 23.675781 3.273438 23.613281 C 3.273438 23.554688 3.144531 23.554688 3.109375 23.550781 C 3.078125 23.550781 3.042969 23.550781 3.011719 23.550781 C 2.980469 23.550781 2.949219 23.550781 2.914062 23.550781 C 2.878906 23.554688 2.753906 23.550781 2.753906 23.613281 Z M 2.753906 23.613281 "/>
<path style=" stroke:none;fill-rule:nonzero;fill:rgb(71.764706%,71.764706%,71.764706%);fill-opacity:1;" d="M 3.96875 29.753906 C 3.863281 29.722656 3.753906 29.695312 3.636719 29.675781 L 3.636719 28.253906 C 3.753906 28.273438 3.863281 28.300781 3.96875 28.332031 Z M 3.96875 29.753906 "/>
<path style=" stroke:none;fill-rule:nonzero;fill:rgb(71.764706%,71.764706%,71.764706%);fill-opacity:1;" d="M 3.441406 29.648438 C 3.335938 29.632812 3.222656 29.625 3.109375 29.621094 L 3.109375 28.199219 C 3.222656 28.203125 3.335938 28.210938 3.441406 28.222656 Z M 3.441406 29.648438 "/>
<path style=" stroke:none;fill-rule:nonzero;fill:rgb(71.764706%,71.764706%,71.764706%);fill-opacity:1;" d="M 2.914062 29.621094 C 2.800781 29.625 2.691406 29.632812 2.582031 29.648438 L 2.582031 28.222656 C 2.6875 28.210938 2.800781 28.203125 2.914062 28.199219 Z M 2.914062 29.621094 "/>
<path style=" stroke:none;fill-rule:nonzero;fill:rgb(71.764706%,71.764706%,71.764706%);fill-opacity:1;" d="M 2.386719 29.675781 C 2.269531 29.695312 2.160156 29.722656 2.054688 29.753906 L 2.054688 28.332031 C 2.160156 28.300781 2.269531 28.273438 2.386719 28.253906 Z M 2.386719 29.675781 "/>
<path style=" stroke:none;fill-rule:nonzero;fill:rgb(71.764706%,71.764706%,71.764706%);fill-opacity:1;" d="M 29.839844 26.628906 C 29.953125 26.648438 30.066406 26.675781 30.171875 26.707031 L 30.171875 28.167969 C 30.066406 28.136719 29.953125 28.109375 29.839844 28.089844 Z M 29.839844 26.628906 "/>
<path style=" stroke:none;fill-rule:nonzero;fill:rgb(71.764706%,71.764706%,71.764706%);fill-opacity:1;" d="M 29.648438 28.058594 C 29.539062 28.046875 29.425781 28.039062 29.3125 28.035156 L 29.3125 26.574219 C 29.367188 26.574219 29.421875 26.578125 29.476562 26.582031 C 29.53125 26.585938 29.589844 26.589844 29.648438 26.597656 Z M 29.648438 28.058594 "/>
<path style=" stroke:none;fill-rule:nonzero;fill:rgb(71.764706%,71.764706%,71.764706%);fill-opacity:1;" d="M 28.785156 28.058594 C 28.890625 28.046875 29.003906 28.039062 29.117188 28.035156 L 29.117188 26.574219 C 29.003906 26.578125 28.894531 26.585938 28.785156 26.597656 Z M 28.785156 28.058594 "/>
<path style=" stroke:none;fill-rule:nonzero;fill:rgb(71.764706%,71.764706%,71.764706%);fill-opacity:1;" d="M 28.257812 28.171875 C 28.363281 28.140625 28.472656 28.113281 28.589844 28.089844 L 28.589844 26.628906 C 28.472656 26.652344 28.363281 26.675781 28.257812 26.710938 Z M 28.257812 28.171875 "/>
<path style=" stroke:none;fill-rule:nonzero;fill:rgb(71.764706%,71.764706%,71.764706%);fill-opacity:1;" d="M 27.953125 25.441406 C 28.027344 25.40625 28.101562 25.378906 28.183594 25.351562 L 28.183594 25.527344 Z M 27.953125 25.441406 "/>
<path style=" stroke:none;fill-rule:nonzero;fill:rgb(71.764706%,71.764706%,71.764706%);fill-opacity:1;" d="M 29.117188 25.953125 C 29.003906 25.957031 28.890625 25.964844 28.78125 25.976562 L 28.78125 25.21875 C 28.890625 25.203125 29 25.195312 29.117188 25.191406 Z M 29.117188 25.953125 "/>
<path style=" stroke:none;fill-rule:nonzero;fill:rgb(71.764706%,71.764706%,71.764706%);fill-opacity:1;" d="M 29.648438 25.214844 C 29.539062 25.203125 29.425781 25.195312 29.3125 25.191406 L 29.3125 25.953125 C 29.425781 25.957031 29.539062 25.960938 29.648438 25.976562 Z M 29.648438 25.214844 "/>
<path style=" stroke:none;fill-rule:nonzero;fill:rgb(71.764706%,71.764706%,71.764706%);fill-opacity:1;" d="M 29.839844 25.246094 C 29.953125 25.265625 30.066406 25.292969 30.171875 25.328125 L 30.171875 26.085938 C 30.066406 26.054688 29.953125 26.027344 29.839844 26.007812 Z M 29.839844 25.246094 "/>
<path style=" stroke:none;fill-rule:nonzero;fill:rgb(71.764706%,71.764706%,71.764706%);fill-opacity:1;" d="M 28.589844 26.007812 C 28.472656 26.027344 28.363281 26.054688 28.257812 26.085938 L 28.257812 25.328125 C 28.363281 25.292969 28.472656 25.265625 28.589844 25.246094 Z M 28.589844 26.007812 "/>
<path style=" stroke:none;fill-rule:nonzero;fill:rgb(71.764706%,71.764706%,71.764706%);fill-opacity:1;" d="M 30.25 25.351562 C 30.328125 25.375 30.40625 25.40625 30.476562 25.441406 L 30.25 25.527344 Z M 30.25 25.351562 "/>
<path style=" stroke:none;fill-rule:nonzero;fill:rgb(71.764706%,71.764706%,71.764706%);fill-opacity:1;" d="M 27.953125 26.820312 C 28.027344 26.789062 28.101562 26.757812 28.183594 26.734375 L 28.183594 26.910156 Z M 27.953125 26.820312 "/>
<path style=" stroke:none;fill-rule:nonzero;fill:rgb(71.764706%,71.764706%,71.764706%);fill-opacity:1;" d="M 30.25 26.734375 C 30.328125 26.757812 30.40625 26.789062 30.476562 26.824219 L 30.25 26.910156 Z M 30.25 26.734375 "/>
<path style=" stroke:none;fill-rule:nonzero;fill:rgb(71.764706%,71.764706%,71.764706%);fill-opacity:1;" d="M 30.476562 24.945312 C 30.128906 24.789062 29.691406 24.695312 29.214844 24.695312 C 28.738281 24.695312 28.300781 24.789062 27.953125 24.945312 L 27.953125 25.261719 C 28.300781 25.105469 28.738281 25.011719 29.214844 25.011719 C 29.691406 25.011719 30.128906 25.105469 30.476562 25.261719 Z M 30.476562 24.945312 "/>
<path style=" stroke:none;fill-rule:nonzero;fill:rgb(71.764706%,71.764706%,71.764706%);fill-opacity:1;" d="M 30.476562 26.339844 C 30.128906 26.183594 29.691406 26.089844 29.214844 26.089844 C 28.738281 26.089844 28.300781 26.183594 27.953125 26.339844 L 27.953125 26.65625 C 28.300781 26.5 28.738281 26.40625 29.214844 26.40625 C 29.691406 26.40625 30.128906 26.5 30.476562 26.660156 Z M 30.476562 26.339844 "/>
<path style=" stroke:none;fill-rule:nonzero;fill:rgb(71.764706%,71.764706%,71.764706%);fill-opacity:1;" d="M 30.476562 24.804688 C 30.128906 24.648438 29.691406 24.554688 29.214844 24.554688 C 28.738281 24.554688 28.300781 24.648438 27.953125 24.804688 L 28.953125 23.871094 C 29.039062 23.863281 29.125 23.863281 29.214844 23.863281 C 29.300781 23.863281 29.386719 23.863281 29.472656 23.871094 Z M 30.476562 24.804688 "/>
<path style=" stroke:none;fill-rule:nonzero;fill:rgb(71.764706%,71.764706%,71.764706%);fill-opacity:1;" d="M 28.953125 23.613281 C 28.953125 23.671875 28.953125 23.765625 28.953125 23.765625 C 29.039062 23.761719 29.125 23.757812 29.214844 23.757812 C 29.300781 23.757812 29.386719 23.761719 29.472656 23.765625 C 29.472656 23.765625 29.472656 23.675781 29.472656 23.613281 C 29.472656 23.554688 29.34375 23.554688 29.3125 23.550781 C 29.28125 23.550781 29.246094 23.550781 29.214844 23.550781 C 29.183594 23.550781 29.152344 23.550781 29.117188 23.550781 C 29.082031 23.554688 28.953125 23.550781 28.953125 23.613281 Z M 28.953125 23.613281 "/>
<path style=" stroke:none;fill-rule:nonzero;fill:rgb(71.764706%,71.764706%,71.764706%);fill-opacity:1;" d="M 30.175781 29.753906 C 30.066406 29.722656 29.957031 29.695312 29.839844 29.675781 L 29.839844 28.253906 C 29.957031 28.273438 30.066406 28.300781 30.175781 28.332031 Z M 30.175781 29.753906 "/>
<path style=" stroke:none;fill-rule:nonzero;fill:rgb(71.764706%,71.764706%,71.764706%);fill-opacity:1;" d="M 29.648438 29.648438 C 29.539062 29.632812 29.425781 29.625 29.3125 29.621094 L 29.3125 28.199219 C 29.425781 28.203125 29.539062 28.210938 29.648438 28.222656 Z M 29.648438 29.648438 "/>
<path style=" stroke:none;fill-rule:nonzero;fill:rgb(71.764706%,71.764706%,71.764706%);fill-opacity:1;" d="M 29.117188 29.621094 C 29.003906 29.625 28.890625 29.632812 28.78125 29.648438 L 28.78125 28.222656 C 28.890625 28.210938 29 28.203125 29.117188 28.199219 Z M 29.117188 29.621094 "/>
<path style=" stroke:none;fill-rule:nonzero;fill:rgb(71.764706%,71.764706%,71.764706%);fill-opacity:1;" d="M 28.589844 29.675781 C 28.472656 29.695312 28.363281 29.722656 28.257812 29.753906 L 28.257812 28.332031 C 28.363281 28.300781 28.472656 28.273438 28.589844 28.253906 Z M 28.589844 29.675781 "/>
<path style=" stroke:none;fill-rule:nonzero;fill:rgb(71.764706%,71.764706%,71.764706%);fill-opacity:1;" d="M 30.175781 31.753906 C 30.0625 31.714844 29.949219 31.679688 29.835938 31.648438 C 29.835938 31.558594 29.839844 30.945312 29.839844 30.945312 L 29.839844 29.847656 C 29.839844 29.847656 30.066406 29.894531 30.175781 29.929688 Z M 29.648438 31.59375 C 29.535156 31.566406 29.421875 31.539062 29.3125 31.515625 C 29.3125 31.433594 29.3125 31 29.3125 31 L 29.3125 29.792969 C 29.3125 29.792969 29.539062 29.804688 29.648438 29.820312 Z M 29.121094 31 L 29.117188 29.792969 C 29.003906 29.796875 28.78125 29.820312 28.78125 29.820312 L 28.78125 31 C 28.78125 31 28.777344 31.3125 28.777344 31.421875 C 28.894531 31.4375 29.007812 31.457031 29.121094 31.476562 M 28.589844 31.0625 L 28.589844 29.851562 C 28.472656 29.871094 28.257812 29.929688 28.257812 29.929688 L 28.257812 31.191406 C 28.257812 31.191406 28.257812 31.21875 28.257812 31.363281 C 28.367188 31.371094 28.480469 31.382812 28.589844 31.398438 M 3.96875 30.867188 L 3.96875 29.929688 C 3.863281 29.898438 3.636719 29.851562 3.636719 29.851562 L 3.636719 31.433594 C 3.636719 31.433594 3.855469 31.398438 3.96875 31.382812 Z M 3.441406 29.820312 C 3.335938 29.804688 3.109375 29.792969 3.109375 29.792969 L 3.109375 30.917969 C 3.109375 30.917969 3.109375 31.441406 3.109375 31.53125 C 3.21875 31.507812 3.328125 31.484375 3.441406 31.464844 Z M 2.917969 31.574219 C 2.800781 31.601562 2.6875 31.628906 2.578125 31.65625 C 2.578125 31.578125 2.578125 30.917969 2.578125 30.917969 L 2.578125 29.820312 C 2.578125 29.820312 2.796875 29.800781 2.914062 29.796875 L 2.917969 30.917969 Z M 2.382812 31.710938 C 2.269531 31.742188 2.160156 31.773438 2.054688 31.804688 C 2.054688 31.617188 2.054688 31.089844 2.054688 31.089844 L 2.054688 29.929688 C 2.054688 29.929688 2.269531 29.871094 2.386719 29.851562 L 2.386719 30.960938 Z M 2.382812 31.710938 "/>
<path style=" stroke:none;fill-rule:nonzero;fill:rgb(71.764706%,71.764706%,71.764706%);fill-opacity:1;" d="M 18.742188 31.050781 C 18.414062 32.203125 17.328125 33.046875 16.046875 33.046875 C 14.757812 33.046875 13.675781 32.199219 13.347656 31.046875 L 12.730469 31.046875 L 12.730469 33.835938 C 13.886719 34.328125 15.046875 34.6875 16.304688 34.6875 C 16.3125 34.6875 16.320312 34.6875 16.328125 34.6875 C 17.429688 34.683594 18.417969 34.476562 19.394531 34.105469 L 19.398438 31.042969 Z M 18.742188 31.050781 "/>
<path style=" stroke:none;fill-rule:nonzero;fill:rgb(93.333333%,18.039216%,14.117647%);fill-opacity:1;" d="M 14.96875 31.246094 C 15.421875 31.484375 15.851562 31.597656 16.136719 31.648438 C 16.140625 31.648438 16.148438 31.652344 16.152344 31.652344 C 16.171875 31.652344 16.191406 31.644531 16.207031 31.632812 C 16.226562 31.617188 16.238281 31.59375 16.238281 31.566406 C 16.257812 31.097656 16.152344 30.679688 16.105469 30.523438 C 16.097656 30.5 16.082031 30.480469 16.058594 30.46875 C 15.484375 30.199219 15.019531 29.902344 14.679688 29.582031 C 14.429688 29.351562 14.246094 29.117188 14.140625 28.878906 C 14.125 28.851562 14.097656 28.832031 14.066406 28.828125 C 14.035156 28.824219 14.003906 28.839844 13.988281 28.863281 C 13.796875 29.132812 13.65625 29.441406 13.585938 29.757812 C 13.582031 29.777344 13.582031 29.796875 13.589844 29.8125 C 13.875 30.425781 14.339844 30.90625 14.96875 31.246094 Z M 14.96875 31.246094 "/>
<path style=" stroke:none;fill-rule:nonzero;fill:rgb(93.333333%,18.039216%,14.117647%);fill-opacity:1;" d="M 14.796875 29.449219 C 14.8125 29.460938 14.835938 29.46875 14.859375 29.46875 L 14.867188 29.46875 C 14.890625 29.46875 14.914062 29.457031 14.929688 29.4375 C 15.601562 28.554688 16.332031 28.222656 16.832031 28.105469 C 16.871094 28.09375 16.898438 28.0625 16.902344 28.023438 C 16.902344 27.984375 16.878906 27.949219 16.839844 27.9375 C 16.585938 27.855469 16.324219 27.816406 16.054688 27.816406 C 15.714844 27.816406 15.382812 27.882812 15.066406 28.015625 C 14.761719 28.140625 14.496094 28.316406 14.265625 28.542969 C 14.242188 28.5625 14.234375 28.59375 14.242188 28.625 C 14.277344 28.769531 14.398438 29.074219 14.796875 29.449219 Z M 14.796875 29.449219 "/>
<path style=" stroke:none;fill-rule:nonzero;fill:rgb(93.333333%,18.039216%,14.117647%);fill-opacity:1;" d="M 15.058594 29.5625 C 15.03125 29.601562 15.039062 29.65625 15.078125 29.683594 C 15.355469 29.894531 15.691406 30.09375 16.082031 30.285156 C 16.09375 30.289062 16.105469 30.292969 16.121094 30.292969 C 16.144531 30.292969 16.171875 30.28125 16.1875 30.261719 C 16.421875 30 17.082031 29.367188 18.191406 29.199219 C 18.222656 29.195312 18.246094 29.175781 18.257812 29.152344 C 18.269531 29.128906 18.269531 29.097656 18.257812 29.070312 C 18.0625 28.734375 17.785156 28.445312 17.457031 28.230469 C 17.441406 28.222656 17.425781 28.21875 17.410156 28.214844 C 17.308594 28.214844 16.933594 28.21875 16.453125 28.425781 C 15.925781 28.648438 15.457031 29.03125 15.058594 29.5625 Z M 15.058594 29.5625 "/>
<path style=" stroke:none;fill-rule:nonzero;fill:rgb(93.333333%,18.039216%,14.117647%);fill-opacity:1;" d="M 18.421875 29.414062 C 18.40625 29.375 18.367188 29.351562 18.324219 29.355469 C 18.128906 29.378906 17.9375 29.421875 17.75 29.476562 C 17.726562 29.484375 17.710938 29.5 17.699219 29.519531 C 17.6875 29.542969 17.683594 29.5625 17.691406 29.585938 C 17.757812 29.785156 17.871094 30.183594 17.890625 30.65625 C 17.902344 30.953125 17.875 31.242188 17.8125 31.503906 C 17.769531 31.675781 17.707031 31.847656 17.632812 32.003906 C 17.613281 32.042969 17.625 32.085938 17.660156 32.109375 C 17.675781 32.121094 17.695312 32.128906 17.710938 32.128906 C 17.734375 32.128906 17.753906 32.121094 17.773438 32.105469 C 18.046875 31.855469 18.257812 31.558594 18.402344 31.214844 C 18.640625 30.640625 18.648438 29.996094 18.421875 29.414062 Z M 18.421875 29.414062 "/>
<path style=" stroke:none;fill-rule:nonzero;fill:rgb(93.333333%,18.039216%,14.117647%);fill-opacity:1;" d="M 16.183594 31.863281 C 16.171875 31.84375 16.152344 31.832031 16.128906 31.828125 C 15.851562 31.777344 15.425781 31.671875 14.972656 31.445312 C 14.4375 31.171875 14.003906 30.804688 13.691406 30.347656 C 13.667969 30.316406 13.625 30.300781 13.589844 30.3125 C 13.550781 30.328125 13.527344 30.359375 13.527344 30.398438 C 13.539062 30.695312 13.605469 30.984375 13.726562 31.257812 C 13.902344 31.667969 14.1875 32.019531 14.554688 32.28125 C 14.902344 32.535156 15.3125 32.691406 15.746094 32.746094 C 15.75 32.746094 15.753906 32.746094 15.757812 32.746094 C 15.78125 32.746094 15.804688 32.734375 15.824219 32.714844 C 16.011719 32.503906 16.140625 32.238281 16.199219 31.929688 C 16.203125 31.90625 16.199219 31.882812 16.183594 31.863281 Z M 16.183594 31.863281 "/>
<path style=" stroke:none;fill-rule:nonzero;fill:rgb(93.333333%,18.039216%,14.117647%);fill-opacity:1;" d="M 17.527344 29.65625 C 17.519531 29.636719 17.503906 29.617188 17.480469 29.605469 C 17.457031 29.59375 17.429688 29.59375 17.40625 29.605469 C 16.800781 29.867188 16.433594 30.25 16.300781 30.402344 C 16.28125 30.425781 16.273438 30.457031 16.28125 30.484375 C 16.332031 30.648438 16.417969 30.980469 16.425781 31.378906 C 16.433594 31.628906 16.40625 31.859375 16.351562 32.074219 C 16.296875 32.277344 16.21875 32.460938 16.109375 32.628906 C 16.09375 32.652344 16.09375 32.691406 16.109375 32.71875 C 16.125 32.746094 16.152344 32.761719 16.183594 32.761719 L 16.191406 32.761719 C 16.445312 32.75 16.699219 32.695312 16.945312 32.601562 C 16.957031 32.597656 16.96875 32.59375 16.976562 32.585938 C 17.238281 32.347656 17.433594 32.058594 17.554688 31.730469 C 17.660156 31.457031 17.710938 31.152344 17.714844 30.824219 C 17.71875 30.316406 17.601562 29.875 17.527344 29.65625 Z M 17.527344 29.65625 "/>
<path style=" stroke:none;fill-rule:nonzero;fill:rgb(100%,100%,100%);fill-opacity:1;" d="M 15.046875 34.214844 L 15.046875 33.476562 L 14.859375 33.550781 L 14.839844 33.414062 L 15.066406 33.3125 L 15.222656 33.3125 L 15.222656 34.214844 Z M 15.046875 34.214844 "/>
<path style=" stroke:none;fill-rule:nonzero;fill:rgb(100%,100%,100%);fill-opacity:1;" d="M 15.421875 33.535156 C 15.421875 33.390625 15.550781 33.292969 15.734375 33.292969 C 15.921875 33.292969 16.039062 33.390625 16.039062 33.523438 C 16.039062 33.617188 15.976562 33.6875 15.886719 33.738281 C 16.003906 33.792969 16.066406 33.855469 16.066406 33.976562 C 16.066406 34.121094 15.9375 34.230469 15.726562 34.230469 C 15.507812 34.230469 15.390625 34.117188 15.390625 33.980469 C 15.390625 33.878906 15.460938 33.796875 15.566406 33.742188 C 15.480469 33.695312 15.421875 33.636719 15.421875 33.535156 Z M 15.558594 33.96875 C 15.558594 34.054688 15.632812 34.105469 15.734375 34.105469 C 15.832031 34.105469 15.902344 34.054688 15.902344 33.976562 C 15.902344 33.894531 15.851562 33.859375 15.691406 33.796875 C 15.609375 33.839844 15.558594 33.898438 15.558594 33.96875 Z M 15.878906 33.53125 C 15.878906 33.460938 15.820312 33.417969 15.730469 33.417969 C 15.636719 33.417969 15.585938 33.46875 15.585938 33.53125 C 15.585938 33.597656 15.632812 33.636719 15.765625 33.6875 C 15.835938 33.644531 15.878906 33.59375 15.878906 33.53125 Z M 15.878906 33.53125 "/>
<path style=" stroke:none;fill-rule:nonzero;fill:rgb(100%,100%,100%);fill-opacity:1;" d="M 16.582031 33.652344 C 16.742188 33.652344 16.855469 33.75 16.855469 33.925781 C 16.855469 34.109375 16.714844 34.230469 16.527344 34.230469 C 16.324219 34.230469 16.183594 34.097656 16.183594 33.851562 C 16.183594 33.53125 16.402344 33.359375 16.699219 33.292969 L 16.71875 33.4375 C 16.539062 33.476562 16.394531 33.558594 16.355469 33.71875 C 16.421875 33.679688 16.492188 33.652344 16.582031 33.652344 Z M 16.527344 34.097656 C 16.625 34.097656 16.6875 34.039062 16.6875 33.9375 C 16.6875 33.839844 16.636719 33.785156 16.527344 33.785156 C 16.460938 33.785156 16.402344 33.808594 16.34375 33.851562 C 16.34375 34.007812 16.421875 34.097656 16.527344 34.097656 Z M 16.527344 34.097656 "/>
<path style=" stroke:none;fill-rule:nonzero;fill:rgb(100%,100%,100%);fill-opacity:1;" d="M 17.113281 34.214844 L 17.113281 33.476562 L 16.925781 33.550781 L 16.90625 33.414062 L 17.132812 33.3125 L 17.285156 33.3125 L 17.285156 34.214844 Z M 17.113281 34.214844 "/>
</g>
</svg>
