<?xml version="1.0" encoding="UTF-8"?>
<!DOCTYPE svg PUBLIC "-//W3C//DTD SVG 1.1//EN" "http://www.w3.org/Graphics/SVG/1.1/DTD/svg11.dtd">
<svg xmlns="http://www.w3.org/2000/svg" version="1.1" width="750px" height="603px" style="shape-rendering:geometricPrecision; text-rendering:geometricPrecision; image-rendering:optimizeQuality; fill-rule:evenodd; clip-rule:evenodd" xmlns:xlink="http://www.w3.org/1999/xlink">
<g><path style="opacity:0.985" fill="#1d0d03" d="M 363.5,-0.5 C 364.833,-0.5 366.167,-0.5 367.5,-0.5C 367.5,0.166667 367.833,0.5 368.5,0.5C 368.427,2.02694 369.094,3.02694 370.5,3.5C 370.402,5.55292 371.069,7.21959 372.5,8.5C 372.231,10.4286 372.731,12.0953 374,13.5C 374.464,12.9056 374.631,12.2389 374.5,11.5C 375.167,11.5 375.5,11.1667 375.5,10.5C 377.671,8.49981 380.004,6.66647 382.5,5C 384.473,4.50454 386.473,4.33788 388.5,4.5C 388.771,10.4361 388.937,16.4361 389,22.5C 389.608,20.8455 390.108,19.1789 390.5,17.5C 391.167,17.5 391.5,17.1667 391.5,16.5C 392.167,16.5 392.5,16.1667 392.5,15.5C 394.167,14.5 395.5,13.1667 396.5,11.5C 397.921,8.99058 399.588,6.65725 401.5,4.5C 404.135,5.47349 406.135,7.14016 407.5,9.5C 407.992,11.8185 408.992,13.8185 410.5,15.5C 410.427,17.0269 411.094,18.0269 412.5,18.5C 413.757,21.4274 415.757,23.7607 418.5,25.5C 418.973,26.9063 419.973,27.573 421.5,27.5C 422.93,28.5375 424.597,29.2041 426.5,29.5C 427.209,30.404 428.209,30.7373 429.5,30.5C 430.93,31.5375 432.597,32.2041 434.5,32.5C 436.181,34.0075 438.181,35.0075 440.5,35.5C 441.29,36.4013 442.29,37.0679 443.5,37.5C 447.141,40.8049 450.808,44.1383 454.5,47.5C 458.066,54.0641 462.399,60.0641 467.5,65.5C 469.458,68.7915 471.791,71.7915 474.5,74.5C 474.328,75.4916 474.662,76.1583 475.5,76.5C 475.328,77.4916 475.662,78.1583 476.5,78.5C 477.089,83.4805 477.589,88.4805 478,93.5C 478.941,95.7274 480.108,97.7274 481.5,99.5C 481.263,100.791 481.596,101.791 482.5,102.5C 482.928,105.785 483.928,108.785 485.5,111.5C 485.232,113.099 485.566,114.432 486.5,115.5C 486.216,117.415 486.549,119.081 487.5,120.5C 490.538,143.432 491.704,166.432 491,189.5C 491.717,188.956 492.217,188.289 492.5,187.5C 493.167,187.5 493.5,187.167 493.5,186.5C 497.34,184.333 501.34,183.999 505.5,185.5C 507.142,186.803 508.809,188.136 510.5,189.5C 510.66,191.153 511.326,192.486 512.5,193.5C 513.783,200.828 513.783,208.162 512.5,215.5C 510.723,218.505 509.723,221.838 509.5,225.5C 508.596,226.209 508.263,227.209 508.5,228.5C 507.076,230.515 506.41,232.848 506.5,235.5C 505.566,236.568 505.232,237.901 505.5,239.5C 503.751,245.289 502.418,251.289 501.5,257.5C 500.662,257.842 500.328,258.508 500.5,259.5C 499.662,259.842 499.328,260.508 499.5,261.5C 498.662,261.842 498.328,262.508 498.5,263.5C 497.662,263.842 497.328,264.508 497.5,265.5C 496.833,265.5 496.5,265.833 496.5,266.5C 494.167,268.167 492.167,270.167 490.5,272.5C 489.833,272.5 489.5,272.833 489.5,273.5C 488.1,274.1 487.1,275.1 486.5,276.5C 486.5,273.5 486.5,270.5 486.5,267.5C 488.017,267.489 489.184,266.823 490,265.5C 492.062,263.099 493.729,260.433 495,257.5C 497.712,249.014 499.545,240.347 500.5,231.5C 503.11,225.433 505.276,219.1 507,212.5C 507.167,210 507.333,207.5 507.5,205C 507.475,202.071 506.809,199.571 505.5,197.5C 493.994,209.515 486.994,223.848 484.5,240.5C 481.537,232.551 480.204,224.217 480.5,215.5C 481.416,205.086 482.916,194.752 485,184.5C 486.157,162.341 484.823,140.341 481,118.5C 479.396,110.853 476.896,103.52 473.5,96.5C 465.316,95.6596 457.316,93.993 449.5,91.5C 438.499,87.7086 427.165,86.542 415.5,88C 408.335,89.7064 401.335,91.5397 394.5,93.5C 364.137,95.5264 334.137,93.193 304.5,86.5C 296.238,81.4784 287.238,79.6451 277.5,81C 267.751,93.2187 261.251,107.052 258,122.5C 255.743,133.116 253.743,143.783 252,154.5C 250.817,170.802 251.65,186.968 254.5,203C 254.256,206.186 253.923,209.353 253.5,212.5C 253.5,212.833 253.5,213.167 253.5,213.5C 252.67,222.324 252.17,231.324 252,240.5C 251.667,236.167 251.333,231.833 251,227.5C 249.929,232.317 248.763,236.984 247.5,241.5C 244.718,224.286 238.384,208.62 228.5,194.5C 238.112,202.706 244.445,213.039 247.5,225.5C 248.959,216.506 249.292,207.506 248.5,198.5C 243.84,196.505 239.506,194.005 235.5,191C 232.739,190.278 230.073,190.445 227.5,191.5C 224.077,195.998 222.411,201.164 222.5,207C 222.71,212.45 223.71,217.617 225.5,222.5C 229.459,239.719 236.125,255.719 245.5,270.5C 245.842,271.338 246.508,271.672 247.5,271.5C 247.5,274.833 247.5,278.167 247.5,281.5C 246.833,280.833 246.167,280.167 245.5,279.5C 244.396,277.611 243.063,275.945 241.5,274.5C 239.154,271.129 236.821,267.796 234.5,264.5C 233.89,262.566 232.89,260.899 231.5,259.5C 231.672,258.508 231.338,257.842 230.5,257.5C 230.737,256.209 230.404,255.209 229.5,254.5C 229.043,250.775 228.043,248.775 226.5,248.5C 227.484,246.402 227.151,244.402 225.5,242.5C 225.405,240.214 224.738,238.214 223.5,236.5C 222.739,232.216 221.405,228.216 219.5,224.5C 217.691,215.919 217.191,207.253 218,198.5C 219.359,192.07 222.859,187.403 228.5,184.5C 232.319,184.414 235.985,185.081 239.5,186.5C 240.795,187.488 242.128,188.488 243.5,189.5C 245.632,192.315 246.632,191.981 246.5,188.5C 245.575,178.526 245.242,168.526 245.5,158.5C 246.468,156.393 246.802,154.059 246.5,151.5C 247.461,149.735 247.795,147.735 247.5,145.5C 248.785,142.411 249.451,139.078 249.5,135.5C 251.344,130.449 252.344,125.116 252.5,119.5C 253.434,118.432 253.768,117.099 253.5,115.5C 254.924,113.485 255.59,111.152 255.5,108.5C 256.931,107.22 257.598,105.553 257.5,103.5C 259.403,100.021 261.07,96.3544 262.5,92.5C 265.601,88.4887 268.601,84.3221 271.5,80C 271.043,79.586 270.709,79.086 270.5,78.5C 271.247,78.2635 272.08,77.9302 273,77.5C 273,76.1667 273,74.8333 273,73.5C 273.333,73.8333 273.667,74.1667 274,74.5C 277.089,69.5941 279.923,64.5941 282.5,59.5C 286.417,53.7348 290.584,48.0681 295,42.5C 307.543,30.6581 319.709,18.4914 331.5,6C 334.906,4.92356 336.906,6.09023 337.5,9.5C 337.345,12.8531 338.012,13.1864 339.5,10.5C 341.303,8.51869 342.97,6.35202 344.5,4C 346.193,3.15339 347.86,2.32006 349.5,1.5C 351.68,3.86329 353.347,6.52996 354.5,9.5C 354.343,10.8734 354.51,12.2068 355,13.5C 358.705,10.7593 360.871,7.09264 361.5,2.5C 362.401,1.70951 363.068,0.709515 363.5,-0.5 Z M 337.5,9.5 C 338.167,9.83333 338.833,10.1667 339.5,10.5C 338.012,13.1864 337.345,12.8531 337.5,9.5 Z M 394.5,11.5 C 395.167,11.5 395.833,11.5 396.5,11.5C 395.5,13.1667 394.167,14.5 392.5,15.5C 392.733,13.9382 393.4,12.6049 394.5,11.5 Z"/></g>
<g><path style="opacity:0.012" fill="#210800" d="M 368.5,-0.5 C 368.833,-0.5 369.167,-0.5 369.5,-0.5C 369.5,-0.166667 369.5,0.166667 369.5,0.5C 369.167,0.166667 368.833,-0.166667 368.5,-0.5 Z"/></g>
<g><path style="opacity:0.012" fill="#210800" d="M 346.5,0.5 C 347.833,1.16667 347.833,1.16667 346.5,0.5 Z"/></g>
<g><path style="opacity:0.012" fill="#210800" d="M 349.5,0.5 C 350.833,1.16667 350.833,1.16667 349.5,0.5 Z"/></g>
<g><path style="opacity:0.012" fill="#210800" d="M 361.5,2.5 C 360.475,2.10343 360.308,1.43677 361,0.5C 361.464,1.09442 361.631,1.76109 361.5,2.5 Z"/></g>
<g><path style="opacity:0.012" fill="#210800" d="M 369.5,0.5 C 370.833,1.16667 370.833,1.16667 369.5,0.5 Z"/></g>
<g><path style="opacity:0.012" fill="#210800" d="M 344.5,1.5 C 345.833,2.16667 345.833,2.16667 344.5,1.5 Z"/></g>
<g><path style="opacity:0.012" fill="#210800" d="M 370.5,2.5 C 371.833,3.16667 371.833,3.16667 370.5,2.5 Z"/></g>
<g><path style="opacity:0.012" fill="#210800" d="M 382.5,3.5 C 382.897,2.47498 383.563,2.30831 384.5,3C 383.906,3.46434 383.239,3.63101 382.5,3.5 Z"/></g>
<g><path style="opacity:0.012" fill="#210800" d="M 388.5,3.5 C 387.761,3.63101 387.094,3.46434 386.5,3C 387.437,2.30831 388.103,2.47498 388.5,3.5 Z"/></g>
<g><path style="opacity:0.012" fill="#210800" d="M 388.5,3.5 C 389.167,3.5 389.5,3.83333 389.5,4.5C 389.167,4.16667 388.833,3.83333 388.5,3.5 Z"/></g>
<g><path style="opacity:0.012" fill="#210800" d="M 401.5,4.5 C 400.833,3.16667 400.833,3.16667 401.5,4.5 Z"/></g>
<g><path style="opacity:0.012" fill="#210800" d="M 403.5,3.5 C 404.833,4.16667 404.833,4.16667 403.5,3.5 Z"/></g>
<g><path style="opacity:0.012" fill="#210800" d="M 353.5,4.5 C 354.833,5.16667 354.833,5.16667 353.5,4.5 Z"/></g>
<g><path style="opacity:0.012" fill="#210800" d="M 371.5,4.5 C 372.833,5.16667 372.833,5.16667 371.5,4.5 Z"/></g>
<g><path style="opacity:0.012" fill="#210800" d="M 389.5,4.5 C 390.833,5.16667 390.833,5.16667 389.5,4.5 Z"/></g>
<g><path style="opacity:0.012" fill="#210800" d="M 354.5,9.5 C 354.351,8.44802 354.517,7.44802 355,6.5C 355.74,7.74943 355.573,8.74943 354.5,9.5 Z"/></g>
<g><path style="opacity:0.012" fill="#210800" d="M 372.5,8.5 C 372.369,7.76109 372.536,7.09442 373,6.5C 373.692,7.43677 373.525,8.10343 372.5,8.5 Z"/></g>
<g><path style="opacity:0.012" fill="#210800" d="M 390.5,6.5 C 391.573,7.25057 391.74,8.25057 391,9.5C 390.517,8.55198 390.351,7.55198 390.5,6.5 Z"/></g>
<g><path style="opacity:0.012" fill="#210800" d="M 327.5,7.5 C 328.833,8.16667 328.833,8.16667 327.5,7.5 Z"/></g>
<g><path style="opacity:0.012" fill="#210800" d="M 407.5,8.5 C 408.833,9.16667 408.833,9.16667 407.5,8.5 Z"/></g>
<g><path style="opacity:0.012" fill="#220900" d="M 375.5,10.5 C 374.833,10.5 374.5,10.8333 374.5,11.5C 373.957,11.44 373.624,11.1067 373.5,10.5C 374.257,9.22671 374.923,9.22671 375.5,10.5 Z"/></g>
<g><path style="opacity:0.012" fill="#210800" d="M 396.5,11.5 C 395.833,11.5 395.167,11.5 394.5,11.5C 395.548,9.06732 396.214,9.06732 396.5,11.5 Z"/></g>
<g><path style="opacity:1" fill="#451d00" d="M 456.5,62.5 C 449.435,57.6127 442.768,52.1127 436.5,46C 434.217,43.81 431.551,43.1433 428.5,44C 434.757,50.343 439.091,57.843 441.5,66.5C 441.372,70.1134 439.539,71.78 436,71.5C 433.456,71.6164 431.289,70.783 429.5,69C 422.959,62.1281 416.793,54.9614 411,47.5C 410.763,55.1775 410.763,62.8441 411,70.5C 406.751,73.5134 403.084,72.8467 400,68.5C 396.286,59.8033 392.119,51.47 387.5,43.5C 386.884,51.9165 385.717,60.2498 384,68.5C 382.475,71.0867 380.308,71.9201 377.5,71C 369.239,65.6478 364.072,58.1478 362,48.5C 361.831,41.8085 361.331,35.1419 360.5,28.5C 359.01,30.1256 357.51,31.7923 356,33.5C 352.907,40.683 349.574,47.683 346,54.5C 342.474,59.6835 337.64,63.0169 331.5,64.5C 326.747,63.3567 325.247,60.3567 327,55.5C 334.375,34.3548 332.708,33.3548 322,52.5C 320.649,54.019 319.149,55.3523 317.5,56.5C 316.886,51.4804 317.386,46.4804 319,41.5C 319.667,38.5 319.667,35.5 319,32.5C 315.202,39.2119 311.035,45.7119 306.5,52C 301.059,55.3872 295.392,58.2205 289.5,60.5C 292.78,55.3798 296.28,50.3798 300,45.5C 310.637,35.8635 320.971,25.8635 331,15.5C 330.233,20.3051 328.733,24.9718 326.5,29.5C 328.225,31.4958 330.058,31.1624 332,28.5C 332.934,24.624 335.1,21.7907 338.5,20C 342.069,16.935 345.069,13.435 347.5,9.5C 348.62,13.1875 348.453,16.8542 347,20.5C 342.268,27.5727 337.935,34.9061 334,42.5C 331.696,48.3983 332.029,54.065 335,59.5C 336.458,54.5477 337.791,49.5477 339,44.5C 343.08,36.6712 347.413,29.0045 352,21.5C 358.467,19.5998 363.134,15.5998 366,9.5C 369.251,17.7595 370.084,26.2595 368.5,35C 368.877,43.3422 371.044,51.1756 375,58.5C 376.708,60.5435 378.708,62.2101 381,63.5C 381.667,62.1667 381.667,60.8333 381,59.5C 373.164,47.3169 371.497,34.3169 376,20.5C 377.513,17.4756 379.513,14.8089 382,12.5C 382.333,16.1667 382.667,19.8333 383,23.5C 383.536,25.8689 384.703,27.8689 386.5,29.5C 387.254,33.9531 388.421,38.2864 390,42.5C 394.603,50.7075 398.937,59.0408 403,67.5C 404.25,64.9234 404.584,62.2567 404,59.5C 400.311,51.4592 396.645,43.4592 393,35.5C 392.109,30.4021 393.109,25.7354 396,21.5C 397.524,26.8815 399.858,31.8815 403,36.5C 411.678,46.0108 420.512,55.3441 429.5,64.5C 430.758,61.2778 430.258,58.2778 428,55.5C 420.333,47.1667 412.667,38.8333 405,30.5C 401.726,25.5247 400.893,20.1914 402.5,14.5C 405.99,20.6358 410.323,26.1358 415.5,31C 425.172,34.8968 434.505,39.5635 443.5,45C 448.949,50.0905 453.282,55.9238 456.5,62.5 Z"/></g>
<g><path style="opacity:0.012" fill="#210800" d="M 355.5,10.5 C 356.833,11.1667 356.833,11.1667 355.5,10.5 Z"/></g>
<g><path style="opacity:0.012" fill="#210800" d="M 391.5,16.5 C 390.833,16.5 390.5,16.8333 390.5,17.5C 389.387,16.0536 389.22,14.3869 390,12.5C 390.41,13.9007 390.91,15.234 391.5,16.5 Z"/></g>
<g><path style="opacity:0.012" fill="#210800" d="M 411.5,15.5 C 411.167,15.5 410.833,15.5 410.5,15.5C 410.833,12.8333 411.167,12.8333 411.5,15.5 Z"/></g>
<g><path style="opacity:0.012" fill="#210800" d="M 411.5,15.5 C 412.833,16.1667 412.833,16.1667 411.5,15.5 Z"/></g>
<g><path style="opacity:0.012" fill="#210800" d="M 413.5,18.5 C 412.833,17.1667 412.833,17.1667 413.5,18.5 Z"/></g>
<g><path style="opacity:0.012" fill="#210800" d="M 413.5,18.5 C 414.833,19.1667 414.833,19.1667 413.5,18.5 Z"/></g>
<g><path style="opacity:0.012" fill="#210800" d="M 418.5,24.5 C 419.833,25.1667 419.833,25.1667 418.5,24.5 Z"/></g>
<g><path style="opacity:0.012" fill="#210800" d="M 421.5,26.5 C 420.833,25.1667 420.833,25.1667 421.5,26.5 Z"/></g>
<g><path style="opacity:0.012" fill="#210800" d="M 421.5,27.5 C 421.5,27.1667 421.5,26.8333 421.5,26.5C 424.167,26.8333 424.167,27.1667 421.5,27.5 Z"/></g>
<g><path style="opacity:0.012" fill="#210800" d="M 426.5,29.5 C 426.897,28.475 427.563,28.3083 428.5,29C 427.906,29.4643 427.239,29.631 426.5,29.5 Z"/></g>
<g><path style="opacity:1" fill="#371500" d="M 456.5,62.5 C 462.283,68.045 467.116,74.3784 471,81.5C 471.498,84.4816 471.665,87.4816 471.5,90.5C 468.482,90.6646 465.482,90.498 462.5,90C 450.884,85.5955 438.884,83.0955 426.5,82.5C 414.346,83.7038 402.346,85.8705 390.5,89C 367.048,89.7657 343.714,88.4323 320.5,85C 310.457,83.2077 300.79,80.2077 291.5,76C 287.789,75.8253 284.122,75.3253 280.5,74.5C 283.524,69.7686 286.524,65.1019 289.5,60.5C 295.392,58.2205 301.059,55.3872 306.5,52C 311.035,45.7119 315.202,39.2119 319,32.5C 319.667,35.5 319.667,38.5 319,41.5C 317.386,46.4804 316.886,51.4804 317.5,56.5C 319.149,55.3523 320.649,54.019 322,52.5C 332.708,33.3548 334.375,34.3548 327,55.5C 325.247,60.3567 326.747,63.3567 331.5,64.5C 337.64,63.0169 342.474,59.6835 346,54.5C 349.574,47.683 352.907,40.683 356,33.5C 357.51,31.7923 359.01,30.1256 360.5,28.5C 361.331,35.1419 361.831,41.8085 362,48.5C 364.072,58.1478 369.239,65.6478 377.5,71C 380.308,71.9201 382.475,71.0867 384,68.5C 385.717,60.2498 386.884,51.9165 387.5,43.5C 392.119,51.47 396.286,59.8033 400,68.5C 403.084,72.8467 406.751,73.5134 411,70.5C 410.763,62.8441 410.763,55.1775 411,47.5C 416.793,54.9614 422.959,62.1281 429.5,69C 431.289,70.783 433.456,71.6164 436,71.5C 439.539,71.78 441.372,70.1134 441.5,66.5C 439.091,57.843 434.757,50.343 428.5,44C 431.551,43.1433 434.217,43.81 436.5,46C 442.768,52.1127 449.435,57.6127 456.5,62.5 Z"/></g>
<g><path style="opacity:0.012" fill="#210800" d="M 429.5,30.5 C 429.897,29.475 430.563,29.3083 431.5,30C 430.906,30.4643 430.239,30.631 429.5,30.5 Z"/></g>
<g><path style="opacity:0.012" fill="#210800" d="M 434.5,32.5 C 434.897,31.475 435.563,31.3083 436.5,32C 435.906,32.4643 435.239,32.631 434.5,32.5 Z"/></g>
<g><path style="opacity:0.012" fill="#210800" d="M 437.5,32.5 C 438.833,33.1667 438.833,33.1667 437.5,32.5 Z"/></g>
<g><path style="opacity:0.012" fill="#210800" d="M 440.5,34.5 C 441.833,35.1667 441.833,35.1667 440.5,34.5 Z"/></g>
<g><path style="opacity:0.012" fill="#210800" d="M 443.5,36.5 C 444.833,37.1667 444.833,37.1667 443.5,36.5 Z"/></g>
<g><path style="opacity:0.012" fill="#210800" d="M 445.5,37.5 C 446.833,38.1667 446.833,38.1667 445.5,37.5 Z"/></g>
<g><path style="opacity:0.012" fill="#210800" d="M 292.5,42.5 C 293.833,43.1667 293.833,43.1667 292.5,42.5 Z"/></g>
<g><path style="opacity:0.012" fill="#210800" d="M 455.5,47.5 C 454.833,46.1667 454.833,46.1667 455.5,47.5 Z"/></g>
<g><path style="opacity:0.012" fill="#210800" d="M 455.5,47.5 C 456.833,48.1667 456.833,48.1667 455.5,47.5 Z"/></g>
<g><path style="opacity:0.012" fill="#210800" d="M 282.5,59.5 C 281.833,58.1667 281.833,58.1667 282.5,59.5 Z"/></g>
<g><path style="opacity:0.012" fill="#210800" d="M 281.5,59.5 C 280.833,60.1667 280.833,60.1667 281.5,59.5 Z"/></g>
<g><path style="opacity:0.012" fill="#210800" d="M 277.5,64.5 C 278.833,65.1667 278.833,65.1667 277.5,64.5 Z"/></g>
<g><path style="opacity:0.012" fill="#210800" d="M 468.5,65.5 C 467.833,64.1667 467.833,64.1667 468.5,65.5 Z"/></g>
<g><path style="opacity:0.012" fill="#210800" d="M 468.5,65.5 C 469.167,65.5 469.5,65.8333 469.5,66.5C 469.167,66.1667 468.833,65.8333 468.5,65.5 Z"/></g>
<g><path style="opacity:0.012" fill="#210800" d="M 469.5,66.5 C 470.833,67.1667 470.833,67.1667 469.5,66.5 Z"/></g>
<g><path style="opacity:0.012" fill="#210800" d="M 474.5,73.5 C 475.833,74.1667 475.833,74.1667 474.5,73.5 Z"/></g>
<g><path style="opacity:0.012" fill="#210800" d="M 475.5,75.5 C 476.833,76.1667 476.833,76.1667 475.5,75.5 Z"/></g>
<g><path style="opacity:0.012" fill="#210800" d="M 476.5,77.5 C 477.833,78.1667 477.833,78.1667 476.5,77.5 Z"/></g>
<g><path style="opacity:0.012" fill="#210800" d="M 477.5,79.5 C 478.525,79.8966 478.692,80.5632 478,81.5C 477.536,80.9056 477.369,80.2389 477.5,79.5 Z"/></g>
<g><path style="opacity:1" fill="#d8ab92" d="M 304.5,86.5 C 298.579,85.8774 293.746,87.8774 290,92.5C 283.139,102.894 278.472,114.228 276,126.5C 275.165,135.865 274.165,145.198 273,154.5C 269.667,159.833 266.333,165.167 263,170.5C 262.333,172.5 261.667,174.5 261,176.5C 262.276,189.445 259.776,201.445 253.5,212.5C 253.923,209.353 254.256,206.186 254.5,203C 251.65,186.968 250.817,170.802 252,154.5C 253.743,143.783 255.743,133.116 258,122.5C 261.251,107.052 267.751,93.2187 277.5,81C 287.238,79.6451 296.238,81.4784 304.5,86.5 Z"/></g>
<g><path style="opacity:1" fill="#f1c3aa" d="M 304.5,86.5 C 334.137,93.193 364.137,95.5264 394.5,93.5C 395.5,93.5 396.5,93.5 397.5,93.5C 404.422,119.1 403.588,144.434 395,169.5C 393.156,173.189 391.322,176.855 389.5,180.5C 388.791,181.404 387.791,181.737 386.5,181.5C 379.364,181.524 373.031,183.524 367.5,187.5C 366.532,190.445 366.366,193.445 367,196.5C 370.307,207.397 373.141,218.397 375.5,229.5C 375.312,231.103 375.812,232.437 377,233.5C 377.499,229.514 377.666,225.514 377.5,221.5C 385.832,231.506 396.499,237.672 409.5,240C 417.833,240.667 426.167,240.667 434.5,240C 440.674,238.833 446.34,236.499 451.5,233C 452.944,232.219 454.277,232.386 455.5,233.5C 459.974,243.805 459.474,253.805 454,263.5C 449.667,267.167 445.333,270.833 441,274.5C 438.586,277.815 436.919,281.482 436,285.5C 435.5,298.496 435.333,311.496 435.5,324.5C 432.886,333.343 429.886,342.01 426.5,350.5C 425.808,349.975 425.308,349.308 425,348.5C 423.5,338.844 423.333,329.178 424.5,319.5C 424.468,314.369 423.634,309.369 422,304.5C 418.476,300.94 414.642,297.773 410.5,295C 403.393,292.389 396.059,290.889 388.5,290.5C 387.064,289.571 385.731,288.405 384.5,287C 385.942,286.623 386.942,285.79 387.5,284.5C 394.062,281.699 396.562,276.699 395,269.5C 390.647,263.322 385.814,257.656 380.5,252.5C 380.013,251.527 379.513,250.527 379,249.5C 377.374,248.903 375.541,248.903 373.5,249.5C 386.844,268.987 381.844,278.154 358.5,277C 356.667,275.833 355.167,274.333 354,272.5C 353.667,269.167 353.333,265.833 353,262.5C 351.649,264.019 350.149,265.352 348.5,266.5C 347.614,262.524 346.948,258.524 346.5,254.5C 346.649,253.448 346.483,252.448 346,251.5C 345,253.5 344,255.5 343,257.5C 339.297,260.867 335.964,264.534 333,268.5C 331.744,273.858 332.911,278.524 336.5,282.5C 339.748,284.239 343.414,285.406 347.5,286C 348.5,287 349.5,288 350.5,289C 349.906,289.464 349.239,289.631 348.5,289.5C 333.512,289.271 319.679,292.937 307,300.5C 305.003,303.673 303.169,306.84 301.5,310C 302.755,316.125 303.755,322.292 304.5,328.5C 303.256,333.319 301.756,337.986 300,342.5C 299.385,340.884 298.385,339.551 297,338.5C 296.649,333.802 296.149,329.136 295.5,324.5C 294.325,324.719 293.325,324.386 292.5,323.5C 289.011,319.845 285.345,316.345 281.5,313C 277.216,311.337 272.883,311.004 268.5,312C 267.37,309.572 265.87,307.405 264,305.5C 261.425,293.035 259.425,280.368 258,267.5C 256.828,262.135 255.495,256.801 254,251.5C 253.5,238.838 253.333,226.171 253.5,213.5C 253.5,213.167 253.5,212.833 253.5,212.5C 259.776,201.445 262.276,189.445 261,176.5C 261.667,174.5 262.333,172.5 263,170.5C 266.333,165.167 269.667,159.833 273,154.5C 274.165,145.198 275.165,135.865 276,126.5C 278.472,114.228 283.139,102.894 290,92.5C 293.746,87.8774 298.579,85.8774 304.5,86.5 Z"/></g>
<g><path style="opacity:1" fill="#dfae98" d="M 449.5,91.5 C 455.613,100.057 460.447,109.39 464,119.5C 466.092,132.06 467.092,144.726 467,157.5C 469.583,163.997 471.583,170.664 473,177.5C 471.443,190.373 472.443,203.04 476,215.5C 476.759,217.063 477.926,218.063 479.5,218.5C 479.666,223.511 479.499,228.511 479,233.5C 475.414,257.89 470.414,281.89 464,305.5C 461.263,307.452 459.096,309.952 457.5,313C 451.784,316.056 445.95,318.889 440,321.5C 439.667,320.833 439.333,320.167 439,319.5C 437.811,321.233 436.644,322.9 435.5,324.5C 435.333,311.496 435.5,298.496 436,285.5C 436.919,281.482 438.586,277.815 441,274.5C 445.333,270.833 449.667,267.167 454,263.5C 459.474,253.805 459.974,243.805 455.5,233.5C 454.277,232.386 452.944,232.219 451.5,233C 446.34,236.499 440.674,238.833 434.5,240C 426.167,240.667 417.833,240.667 409.5,240C 396.499,237.672 385.832,231.506 377.5,221.5C 377.167,221.5 376.833,221.5 376.5,221.5C 374.265,209.822 371.265,198.489 367.5,187.5C 373.031,183.524 379.364,181.524 386.5,181.5C 384.594,184.156 384.094,187.156 385,190.5C 386.319,192.487 388.152,193.654 390.5,194C 398.859,193.165 407.192,191.832 415.5,190C 432.081,187.133 446.081,191.633 457.5,203.5C 458.477,199.228 457.643,195.228 455,191.5C 441.869,178.237 426.035,173.403 407.5,177C 401.471,178.066 395.471,179.233 389.5,180.5C 391.322,176.855 393.156,173.189 395,169.5C 403.588,144.434 404.422,119.1 397.5,93.5C 396.5,93.5 395.5,93.5 394.5,93.5C 401.335,91.5397 408.335,89.7064 415.5,88C 427.165,86.542 438.499,87.7086 449.5,91.5 Z"/></g>
<g><path style="opacity:0.012" fill="#210800" d="M 262.5,89.5 C 263.833,90.1667 263.833,90.1667 262.5,89.5 Z"/></g>
<g><path style="opacity:0.012" fill="#210800" d="M 262.5,92.5 C 261.833,91.1667 261.833,91.1667 262.5,92.5 Z"/></g>
<g><path style="opacity:1" fill="#c99983" d="M 449.5,91.5 C 457.316,93.993 465.316,95.6596 473.5,96.5C 476.896,103.52 479.396,110.853 481,118.5C 484.823,140.341 486.157,162.341 485,184.5C 482.916,194.752 481.416,205.086 480.5,215.5C 479.596,216.209 479.263,217.209 479.5,218.5C 477.926,218.063 476.759,217.063 476,215.5C 472.443,203.04 471.443,190.373 473,177.5C 471.583,170.664 469.583,163.997 467,157.5C 467.092,144.726 466.092,132.06 464,119.5C 460.447,109.39 455.613,100.057 449.5,91.5 Z"/></g>
<g><path style="opacity:0.012" fill="#210800" d="M 481.5,99.5 C 481.369,98.7611 481.536,98.0944 482,97.5C 482.692,98.4368 482.525,99.1034 481.5,99.5 Z"/></g>
<g><path style="opacity:0.012" fill="#210800" d="M 257.5,99.5 C 258.833,100.167 258.833,100.167 257.5,99.5 Z"/></g>
<g><path style="opacity:0.012" fill="#210800" d="M 483.5,102.5 C 483.167,102.5 482.833,102.5 482.5,102.5C 482.833,99.8333 483.167,99.8333 483.5,102.5 Z"/></g>
<g><path style="opacity:0.012" fill="#210800" d="M 257.5,103.5 C 257.167,103.5 256.833,103.5 256.5,103.5C 256.833,100.833 257.167,100.833 257.5,103.5 Z"/></g>
<g><path style="opacity:0.012" fill="#210800" d="M 483.5,102.5 C 484.525,102.897 484.692,103.563 484,104.5C 483.536,103.906 483.369,103.239 483.5,102.5 Z"/></g>
<g><path style="opacity:0.012" fill="#210800" d="M 256.5,103.5 C 256.631,104.239 256.464,104.906 256,105.5C 255.308,104.563 255.475,103.897 256.5,103.5 Z"/></g>
<g><path style="opacity:0.012" fill="#210800" d="M 255.5,108.5 C 254.475,108.103 254.308,107.437 255,106.5C 255.464,107.094 255.631,107.761 255.5,108.5 Z"/></g>
<g><path style="opacity:0.012" fill="#210800" d="M 485.5,111.5 C 485.351,110.448 485.517,109.448 486,108.5C 486.74,109.749 486.573,110.749 485.5,111.5 Z"/></g>
<g><path style="opacity:0.012" fill="#210800" d="M 253.5,109.5 C 254.525,109.897 254.692,110.563 254,111.5C 253.536,110.906 253.369,110.239 253.5,109.5 Z"/></g>
<g><path style="opacity:0.012" fill="#210800" d="M 253.5,115.5 C 252.427,114.749 252.26,113.749 253,112.5C 253.483,113.448 253.649,114.448 253.5,115.5 Z"/></g>
<g><path style="opacity:0.012" fill="#210800" d="M 486.5,115.5 C 486.351,114.448 486.517,113.448 487,112.5C 487.74,113.749 487.573,114.749 486.5,115.5 Z"/></g>
<g><path style="opacity:0.012" fill="#210800" d="M 252.5,119.5 C 251.427,118.749 251.26,117.749 252,116.5C 252.483,117.448 252.649,118.448 252.5,119.5 Z"/></g>
<g><path style="opacity:0.012" fill="#210800" d="M 487.5,120.5 C 487.343,119.127 487.51,117.793 488,116.5C 488.765,118.066 488.598,119.399 487.5,120.5 Z"/></g>
<g><path style="opacity:0.012" fill="#210800" d="M 250.5,120.5 C 251.598,121.601 251.765,122.934 251,124.5C 250.51,123.207 250.343,121.873 250.5,120.5 Z"/></g>
<g><path style="opacity:0.012" fill="#210800" d="M 488.5,121.5 C 489.598,122.601 489.765,123.934 489,125.5C 488.51,124.207 488.343,122.873 488.5,121.5 Z"/></g>
<g><path style="opacity:0.012" fill="#210800" d="M 249.5,126.5 C 250.598,127.601 250.765,128.934 250,130.5C 249.51,129.207 249.343,127.873 249.5,126.5 Z"/></g>
<g><path style="opacity:0.012" fill="#210800" d="M 489.5,127.5 C 490.613,128.946 490.78,130.613 490,132.5C 489.506,130.866 489.34,129.199 489.5,127.5 Z"/></g>
<g><path style="opacity:0.012" fill="#210800" d="M 249.5,135.5 C 248.402,134.399 248.235,133.066 249,131.5C 249.49,132.793 249.657,134.127 249.5,135.5 Z"/></g>
<g><path style="opacity:0.012" fill="#210800" d="M 490.5,135.5 C 491.634,137.966 491.801,140.633 491,143.5C 490.503,140.854 490.336,138.187 490.5,135.5 Z"/></g>
<g><path style="opacity:0.012" fill="#210800" d="M 247.5,136.5 C 248.573,137.251 248.74,138.251 248,139.5C 247.517,138.552 247.351,137.552 247.5,136.5 Z"/></g>
<g><path style="opacity:0.012" fill="#210800" d="M 247.5,145.5 C 246.402,144.399 246.235,143.066 247,141.5C 247.49,142.793 247.657,144.127 247.5,145.5 Z"/></g>
<g><path style="opacity:0.012" fill="#210800" d="M 246.5,151.5 C 245.387,150.054 245.22,148.387 246,146.5C 246.494,148.134 246.66,149.801 246.5,151.5 Z"/></g>
<g><path style="opacity:0.012" fill="#210800" d="M 491.5,146.5 C 492.647,150.646 492.814,154.98 492,159.5C 491.501,155.179 491.334,150.846 491.5,146.5 Z"/></g>
<g><path style="opacity:0.012" fill="#210800" d="M 245.5,158.5 C 244.378,156.712 244.211,154.712 245,152.5C 245.495,154.473 245.662,156.473 245.5,158.5 Z"/></g>
<g><path style="opacity:0.012" fill="#210800" d="M 243.5,160.5 C 244.656,168.323 244.823,176.323 244,184.5C 243.5,176.507 243.334,168.507 243.5,160.5 Z"/></g>
<g><path style="opacity:0.012" fill="#210800" d="M 492.5,163.5 C 493.653,169.653 493.82,175.986 493,182.5C 492.5,176.175 492.334,169.842 492.5,163.5 Z"/></g>
<g><path style="opacity:1" fill="#604026" d="M 349.5,188.5 C 347.286,192 343.953,193.667 339.5,193.5C 331.289,191.426 322.956,189.592 314.5,188C 299.768,186.355 286.935,190.522 276,200.5C 275.517,199.552 275.351,198.552 275.5,197.5C 280.56,184.294 290.227,176.794 304.5,175C 319.957,174.076 334.79,176.576 349,182.5C 349.495,184.473 349.662,186.473 349.5,188.5 Z"/></g>
<g><path style="opacity:1" fill="#604027" d="M 386.5,181.5 C 387.791,181.737 388.791,181.404 389.5,180.5C 395.471,179.233 401.471,178.066 407.5,177C 426.035,173.403 441.869,178.237 455,191.5C 457.643,195.228 458.477,199.228 457.5,203.5C 446.081,191.633 432.081,187.133 415.5,190C 407.192,191.832 398.859,193.165 390.5,194C 388.152,193.654 386.319,192.487 385,190.5C 384.094,187.156 384.594,184.156 386.5,181.5 Z"/></g>
<g><path style="opacity:0.012" fill="#210800" d="M 229.5,183.5 C 230.601,182.402 231.934,182.235 233.5,183C 232.207,183.49 230.873,183.657 229.5,183.5 Z"/></g>
<g><path style="opacity:0.012" fill="#210800" d="M 498.5,183.5 C 499.601,182.402 500.934,182.235 502.5,183C 501.207,183.49 499.873,183.657 498.5,183.5 Z"/></g>
<g><path style="opacity:0.012" fill="#210800" d="M 228.5,184.5 C 227.761,184.631 227.094,184.464 226.5,184C 227.437,183.308 228.103,183.475 228.5,184.5 Z"/></g>
<g><path style="opacity:0.012" fill="#210800" d="M 505.5,184.5 C 504.761,184.631 504.094,184.464 503.5,184C 504.437,183.308 505.103,183.475 505.5,184.5 Z"/></g>
<g><path style="opacity:0.012" fill="#210800" d="M 224.5,184.5 C 225.833,185.167 225.833,185.167 224.5,184.5 Z"/></g>
<g><path style="opacity:0.012" fill="#220900" d="M 493.5,186.5 C 492.833,186.5 492.5,186.833 492.5,187.5C 491.427,186.749 491.26,185.749 492,184.5C 492.717,185.044 493.217,185.711 493.5,186.5 Z"/></g>
<g><path style="opacity:0.012" fill="#210800" d="M 505.5,184.5 C 506.833,185.167 506.833,185.167 505.5,184.5 Z"/></g>
<g><path style="opacity:0.012" fill="#210800" d="M 239.5,185.5 C 240.833,186.167 240.833,186.167 239.5,185.5 Z"/></g>
<g><path style="opacity:0.012" fill="#210800" d="M 243.5,189.5 C 243.987,188.527 244.487,187.527 245,186.5C 245.725,188.157 245.225,189.157 243.5,189.5 Z"/></g>
<g><path style="opacity:1" fill="#dcac96" d="M 349.5,188.5 C 349.219,199.26 348.386,209.927 347,220.5C 341.181,228.179 333.347,232.179 323.5,232.5C 307.245,227.963 290.912,227.63 274.5,231.5C 273.833,231.167 273.167,230.833 272.5,230.5C 276.31,227.095 280.31,223.928 284.5,221C 281.591,218.622 278.758,216.122 276,213.5C 274.307,208.072 274.14,202.739 275.5,197.5C 275.351,198.552 275.517,199.552 276,200.5C 286.935,190.522 299.768,186.355 314.5,188C 322.956,189.592 331.289,191.426 339.5,193.5C 343.953,193.667 347.286,192 349.5,188.5 Z"/></g>
<g><path style="opacity:0.012" fill="#210800" d="M 510.5,188.5 C 511.833,189.167 511.833,189.167 510.5,188.5 Z"/></g>
<g><path style="opacity:0.012" fill="#210800" d="M 219.5,189.5 C 220.833,190.167 220.833,190.167 219.5,189.5 Z"/></g>
<g><path style="opacity:0.012" fill="#210800" d="M 218.5,191.5 C 219.833,192.167 219.833,192.167 218.5,191.5 Z"/></g>
<g><path style="opacity:1" fill="#e5b8a0" d="M 228.5,194.5 C 227.89,193.609 227.557,192.609 227.5,191.5C 230.073,190.445 232.739,190.278 235.5,191C 239.506,194.005 243.84,196.505 248.5,198.5C 249.292,207.506 248.959,216.506 247.5,225.5C 244.445,213.039 238.112,202.706 228.5,194.5 Z"/></g>
<g><path style="opacity:0.012" fill="#210800" d="M 512.5,193.5 C 512.369,192.761 512.536,192.094 513,191.5C 513.692,192.437 513.525,193.103 512.5,193.5 Z"/></g>
<g><path style="opacity:1" fill="#e5b8a0" d="M 505.5,197.5 C 501.456,198.944 497.956,201.278 495,204.5C 490.612,210.609 487.279,217.276 485,224.5C 484.079,216.297 484.913,208.297 487.5,200.5C 490.985,197.516 494.318,194.349 497.5,191C 503.555,189.576 506.221,191.743 505.5,197.5 Z"/></g>
<g><path style="opacity:0.012" fill="#210800" d="M 513.5,194.5 C 514.525,194.897 514.692,195.563 514,196.5C 513.536,195.906 513.369,195.239 513.5,194.5 Z"/></g>
<g><path style="opacity:1" fill="#1b120d" d="M 309.5,194.5 C 314.887,194.405 320.22,194.905 325.5,196C 329.381,196.607 332.714,198.274 335.5,201C 332.481,199.521 329.148,198.521 325.5,198C 312.676,195.225 301.343,198.059 291.5,206.5C 295.892,200.89 301.892,196.89 309.5,194.5 Z"/></g>
<g><path style="opacity:1" fill="#d8a893" d="M 227.5,191.5 C 227.557,192.609 227.89,193.609 228.5,194.5C 238.384,208.62 244.718,224.286 247.5,241.5C 247.5,251.5 247.5,261.5 247.5,271.5C 246.508,271.672 245.842,271.338 245.5,270.5C 246.656,263.011 246.822,255.345 246,247.5C 240.109,237.61 233.443,228.277 226,219.5C 225.517,220.448 225.351,221.448 225.5,222.5C 223.71,217.617 222.71,212.45 222.5,207C 222.411,201.164 224.077,195.998 227.5,191.5 Z"/></g>
<g><path style="opacity:1" fill="#18120f" d="M 438.5,204.5 C 427.659,197.7 415.993,195.867 403.5,199C 401.208,200.29 399.208,201.957 397.5,204C 396.833,204.667 396.167,204.667 395.5,204C 405.21,193.727 416.543,191.727 429.5,198C 432.961,199.643 435.961,201.81 438.5,204.5 Z"/></g>
<g><path style="opacity:1" fill="#19110b" d="M 367.5,187.5 C 371.265,198.489 374.265,209.822 376.5,221.5C 376.806,224.385 376.473,227.052 375.5,229.5C 373.141,218.397 370.307,207.397 367,196.5C 366.366,193.445 366.532,190.445 367.5,187.5 Z"/></g>
<g><path style="opacity:0.012" fill="#210800" d="M 514.5,198.5 C 515.643,201.976 515.81,205.642 515,209.5C 514.501,205.848 514.335,202.182 514.5,198.5 Z"/></g>
<g><path style="opacity:0.012" fill="#210800" d="M 215.5,199.5 C 216.65,204.316 216.816,209.316 216,214.5C 215.501,209.511 215.334,204.511 215.5,199.5 Z"/></g>
<g><path style="opacity:1" fill="#dcac96" d="M 505.5,197.5 C 506.809,199.571 507.475,202.071 507.5,205C 507.333,207.5 507.167,210 507,212.5C 505.276,219.1 503.11,225.433 500.5,231.5C 500.66,229.801 500.494,228.134 500,226.5C 493.353,231.622 488.52,237.955 485.5,245.5C 484.549,244.081 484.216,242.415 484.5,240.5C 486.994,223.848 493.994,209.515 505.5,197.5 Z"/></g>
<g><path style="opacity:1" fill="#1d130d" d="M 311.5,199.5 C 321.094,199.419 329.427,202.586 336.5,209C 339.748,209.082 342.081,210.582 343.5,213.5C 336.556,215.197 329.556,217.031 322.5,219C 311.307,221.103 301.974,217.936 294.5,209.5C 299.472,204.852 305.139,201.519 311.5,199.5 Z"/></g>
<g><path style="opacity:1" fill="#1e140e" d="M 410.5,202.5 C 421.48,201.495 430.48,205.162 437.5,213.5C 431.392,219.21 424.059,222.21 415.5,222.5C 407.433,220.967 399.433,219.134 391.5,217C 388.876,216.424 388.209,215.09 389.5,213C 396.416,209.23 403.416,205.73 410.5,202.5 Z"/></g>
<g><path style="opacity:1" fill="#878482" d="M 307.5,208.5 C 307.631,207.624 307.298,206.957 306.5,206.5C 304.925,207.456 303.258,208.123 301.5,208.5C 302.69,205.795 304.856,204.128 308,203.5C 308.5,203.833 309,204.167 309.5,204.5C 309.006,206.026 308.339,207.359 307.5,208.5 Z"/></g>
<g><path style="opacity:1" fill="#533e32" d="M 438.5,204.5 C 439.756,204.461 440.756,204.961 441.5,206C 440.002,206.585 439.002,206.085 438.5,204.5 Z"/></g>
<g><path style="opacity:1" fill="#8d8b89" d="M 334.5,211.5 C 331.948,210.307 329.448,208.973 327,207.5C 326.79,209.058 326.29,210.391 325.5,211.5C 325.756,209.208 325.423,207.041 324.5,205C 327.739,205.446 330.739,206.779 333.5,209C 334.252,209.671 334.586,210.504 334.5,211.5 Z"/></g>
<g><path style="opacity:1" fill="#ecebea" d="M 307.5,208.5 C 307.317,210.936 307.984,213.103 309.5,215C 305.975,215.658 303.141,214.491 301,211.5C 300.26,210.251 300.427,209.251 301.5,208.5C 303.258,208.123 304.925,207.456 306.5,206.5C 307.298,206.957 307.631,207.624 307.5,208.5 Z"/></g>
<g><path style="opacity:1" fill="#93918f" d="M 430.5,212.5 C 428.614,211.639 426.78,210.639 425,209.5C 424.802,211.382 424.302,213.048 423.5,214.5C 423.768,211.881 423.435,209.381 422.5,207C 426.713,206.605 429.38,208.439 430.5,212.5 Z"/></g>
<g><path style="opacity:1" fill="#465c6c" d="M 312.5,207.5 C 312.328,208.492 312.662,209.158 313.5,209.5C 314.636,213.713 316.803,214.38 320,211.5C 320.352,206.89 321.852,206.39 324.5,210C 322.743,215.38 319.076,217.38 313.5,216C 311.416,214.499 310.083,212.499 309.5,210C 309.748,208.251 310.748,207.418 312.5,207.5 Z"/></g>
<g><path style="opacity:1" fill="#dedddb" d="M 313.5,209.5 C 312.662,209.158 312.328,208.492 312.5,207.5C 313.209,206.596 314.209,206.263 315.5,206.5C 315.715,208.179 315.048,209.179 313.5,209.5 Z"/></g>
<g><path style="opacity:1" fill="#e9e9e9" d="M 334.5,211.5 C 334.631,212.376 334.298,213.043 333.5,213.5C 330.345,215.289 327.012,216.122 323.5,216C 324.582,214.67 325.249,213.17 325.5,211.5C 326.29,210.391 326.79,209.058 327,207.5C 329.448,208.973 331.948,210.307 334.5,211.5 Z"/></g>
<g><path style="opacity:1" fill="#949290" d="M 405.5,210.5 C 402.166,210.981 399.833,212.647 398.5,215.5C 397.197,213.243 397.864,211.41 400.5,210C 402.167,209.167 403.833,208.333 405.5,207.5C 406.087,208.233 406.087,209.233 405.5,210.5 Z"/></g>
<g><path style="opacity:1" fill="#d1cfce" d="M 410.5,212.5 C 409.662,212.158 409.328,211.492 409.5,210.5C 410.708,209.218 412.042,209.218 413.5,210.5C 412.995,211.919 411.995,212.585 410.5,212.5 Z"/></g>
<g><path style="opacity:1" fill="#ebeaea" d="M 430.5,212.5 C 430.579,213.93 430.246,215.264 429.5,216.5C 426.982,218.464 424.316,219.13 421.5,218.5C 422.63,217.378 423.297,216.044 423.5,214.5C 424.302,213.048 424.802,211.382 425,209.5C 426.78,210.639 428.614,211.639 430.5,212.5 Z"/></g>
<g><path style="opacity:1" fill="#e6e6e5" d="M 405.5,210.5 C 405.387,213.049 406.054,215.382 407.5,217.5C 407,217.833 406.5,218.167 406,218.5C 403.511,217.394 401.011,216.394 398.5,215.5C 399.833,212.647 402.166,210.981 405.5,210.5 Z"/></g>
<g><path style="opacity:1" fill="#445a6a" d="M 409.5,210.5 C 409.328,211.492 409.662,212.158 410.5,212.5C 412.124,215.428 414.457,216.095 417.5,214.5C 418.154,212.885 418.654,211.218 419,209.5C 422.681,214.746 421.181,218.08 414.5,219.5C 408.652,218.127 406.985,215.127 409.5,210.5 Z"/></g>
<g><path style="opacity:0.012" fill="#210800" d="M 513.5,211.5 C 514.573,212.251 514.74,213.251 514,214.5C 513.517,213.552 513.351,212.552 513.5,211.5 Z"/></g>
<g><path style="opacity:0.012" fill="#210800" d="M 512.5,215.5 C 513.573,216.251 513.74,217.251 513,218.5C 512.517,217.552 512.351,216.552 512.5,215.5 Z"/></g>
<g><path style="opacity:0.012" fill="#210800" d="M 216.5,216.5 C 217.598,217.601 217.765,218.934 217,220.5C 216.51,219.207 216.343,217.873 216.5,216.5 Z"/></g>
<g><path style="opacity:0.012" fill="#210800" d="M 511.5,219.5 C 512.525,219.897 512.692,220.563 512,221.5C 511.536,220.906 511.369,220.239 511.5,219.5 Z"/></g>
<g><path style="opacity:0.012" fill="#210800" d="M 217.5,221.5 C 218.525,221.897 218.692,222.563 218,223.5C 217.536,222.906 217.369,222.239 217.5,221.5 Z"/></g>
<g><path style="opacity:0.012" fill="#210800" d="M 510.5,222.5 C 511.525,222.897 511.692,223.563 511,224.5C 510.536,223.906 510.369,223.239 510.5,222.5 Z"/></g>
<g><path style="opacity:0.012" fill="#210800" d="M 219.5,224.5 C 219.649,225.552 219.483,226.552 219,227.5C 218.26,226.251 218.427,225.251 219.5,224.5 Z"/></g>
<g><path style="opacity:1" fill="#ecbfa6" d="M 245.5,270.5 C 236.125,255.719 229.459,239.719 225.5,222.5C 225.351,221.448 225.517,220.448 226,219.5C 233.443,228.277 240.109,237.61 246,247.5C 246.822,255.345 246.656,263.011 245.5,270.5 Z"/></g>
<g><path style="opacity:0.012" fill="#210800" d="M 509.5,225.5 C 510.525,225.897 510.692,226.563 510,227.5C 509.536,226.906 509.369,226.239 509.5,225.5 Z"/></g>
<g><path style="opacity:0.012" fill="#210800" d="M 219.5,228.5 C 220.525,228.897 220.692,229.563 220,230.5C 219.536,229.906 219.369,229.239 219.5,228.5 Z"/></g>
<g><path style="opacity:0.012" fill="#210800" d="M 508.5,228.5 C 509.573,229.251 509.74,230.251 509,231.5C 508.517,230.552 508.351,229.552 508.5,228.5 Z"/></g>
<g><path style="opacity:1" fill="#e9bca3" d="M 500.5,231.5 C 499.545,240.347 497.712,249.014 495,257.5C 493.729,260.433 492.062,263.099 490,265.5C 489.184,266.823 488.017,267.489 486.5,267.5C 486.635,260.138 486.302,252.804 485.5,245.5C 488.52,237.955 493.353,231.622 500,226.5C 500.494,228.134 500.66,229.801 500.5,231.5 Z"/></g>
<g><path style="opacity:0.012" fill="#210800" d="M 220.5,231.5 C 221.525,231.897 221.692,232.563 221,233.5C 220.536,232.906 220.369,232.239 220.5,231.5 Z"/></g>
<g><path style="opacity:0.012" fill="#210800" d="M 507.5,232.5 C 508.525,232.897 508.692,233.563 508,234.5C 507.536,233.906 507.369,233.239 507.5,232.5 Z"/></g>
<g><path style="opacity:0.999" fill="#461e02" d="M 253.5,213.5 C 253.333,226.171 253.5,238.838 254,251.5C 255.495,256.801 256.828,262.135 258,267.5C 259.425,280.368 261.425,293.035 264,305.5C 265.87,307.405 267.37,309.572 268.5,312C 272.883,311.004 277.216,311.337 281.5,313C 285.345,316.345 289.011,319.845 292.5,323.5C 293.325,324.386 294.325,324.719 295.5,324.5C 296.149,329.136 296.649,333.802 297,338.5C 298.385,339.551 299.385,340.884 300,342.5C 301.756,337.986 303.256,333.319 304.5,328.5C 303.755,322.292 302.755,316.125 301.5,310C 303.169,306.84 305.003,303.673 307,300.5C 319.679,292.937 333.512,289.271 348.5,289.5C 350.985,291.008 353.652,292.341 356.5,293.5C 357.793,297.299 357.793,300.966 356.5,304.5C 355.596,305.209 355.263,306.209 355.5,307.5C 353.265,307.205 351.265,307.539 349.5,308.5C 341.215,307.394 332.882,307.227 324.5,308C 318.586,311.324 315.919,316.49 316.5,323.5C 315.587,333.142 313.92,342.642 311.5,352C 312.145,358.377 313.478,364.543 315.5,370.5C 316.5,370.5 317.5,370.5 318.5,370.5C 318.316,377.797 321.483,383.13 328,386.5C 328.333,385.833 328.667,385.167 329,384.5C 334.34,391.399 339.007,391.066 343,383.5C 344.395,384.815 345.395,384.481 346,382.5C 346.944,374.887 346.444,367.387 344.5,360C 345.63,358.24 346.63,356.407 347.5,354.5C 348.417,355.127 349.417,355.461 350.5,355.5C 360.998,361.113 371.331,360.78 381.5,354.5C 382.393,359.516 382.059,364.516 380.5,369.5C 381.003,375.581 381.837,381.581 383,387.5C 390.302,394.09 397.635,394.09 405,387.5C 405.977,385.26 406.477,382.927 406.5,380.5C 407.5,380.5 408.5,380.5 409.5,380.5C 411.796,364.379 413.796,348.213 415.5,332C 415.011,330.862 414.678,329.695 414.5,328.5C 414.156,324.772 413.49,321.105 412.5,317.5C 410.833,316.334 409.166,316.334 407.5,317.5C 406.5,316.833 405.5,316.167 404.5,315.5C 406.527,315.662 408.527,315.495 410.5,315C 409.167,313.333 407.833,311.667 406.5,310C 395.505,309.5 384.505,309.333 373.5,309.5C 371.909,308.781 370.409,307.781 369,306.5C 368.617,307.056 368.117,307.389 367.5,307.5C 366.45,302.886 366.283,298.22 367,293.5C 369.869,290.114 373.536,288.781 378,289.5C 381.523,289.707 385.023,290.04 388.5,290.5C 396.059,290.889 403.393,292.389 410.5,295C 414.642,297.773 418.476,300.94 422,304.5C 423.634,309.369 424.468,314.369 424.5,319.5C 423.333,329.178 423.5,338.844 425,348.5C 425.308,349.308 425.808,349.975 426.5,350.5C 429.886,342.01 432.886,333.343 435.5,324.5C 436.644,322.9 437.811,321.233 439,319.5C 439.333,320.167 439.667,320.833 440,321.5C 445.95,318.889 451.784,316.056 457.5,313C 459.096,309.952 461.263,307.452 464,305.5C 470.414,281.89 475.414,257.89 479,233.5C 479.499,228.511 479.666,223.511 479.5,218.5C 479.263,217.209 479.596,216.209 480.5,215.5C 480.204,224.217 481.537,232.551 484.5,240.5C 484.216,242.415 484.549,244.081 485.5,245.5C 486.302,252.804 486.635,260.138 486.5,267.5C 486.5,270.5 486.5,273.5 486.5,276.5C 486.667,287.172 486.5,297.839 486,308.5C 483.436,313.879 481.936,319.546 481.5,325.5C 480.213,326.871 479.547,328.705 479.5,331C 480.091,335.819 480.424,340.652 480.5,345.5C 478.791,351.328 478.124,357.328 478.5,363.5C 479.324,366.764 479.658,370.098 479.5,373.5C 478.833,373.5 478.5,373.833 478.5,374.5C 477.532,376.607 477.198,378.941 477.5,381.5C 476.549,382.919 476.216,384.585 476.5,386.5C 475.596,387.209 475.263,388.209 475.5,389.5C 474.596,390.209 474.263,391.209 474.5,392.5C 473.291,394.941 471.624,396.941 469.5,398.5C 468.674,394.864 468.008,391.197 467.5,387.5C 467.189,386.522 466.522,385.855 465.5,385.5C 463.958,389.46 462.624,393.46 461.5,397.5C 458.736,403.857 456.57,410.524 455,417.5C 452.983,422.883 449.983,427.55 446,431.5C 443.333,436.167 440.667,440.833 438,445.5C 431.029,450.639 424.529,456.306 418.5,462.5C 416.476,464.69 414.643,467.023 413,469.5C 412.707,466.046 411.374,465.712 409,468.5C 408.833,468.167 408.667,467.833 408.5,467.5C 411.113,464.941 412.613,461.941 413,458.5C 408.916,462.42 404.416,465.753 399.5,468.5C 398.484,471.855 397.484,475.188 396.5,478.5C 393.687,478.452 391.021,477.785 388.5,476.5C 387.554,476.987 386.554,477.32 385.5,477.5C 382.833,476.5 380.167,475.5 377.5,474.5C 371.536,478.811 364.87,481.478 357.5,482.5C 356.167,482.333 354.833,482.167 353.5,482C 355.741,480.261 357.408,478.094 358.5,475.5C 352.445,475.648 346.445,476.982 340.5,479.5C 338.334,479.57 338.001,478.904 339.5,477.5C 335.443,475.8 331.443,474.133 327.5,472.5C 327.785,474.288 327.452,475.955 326.5,477.5C 322.849,474.349 319.349,471.016 316,467.5C 316,468.833 316,470.167 316,471.5C 313.548,465.984 311.382,460.317 309.5,454.5C 309.167,454.167 308.833,453.833 308.5,453.5C 307.359,456.062 306.526,458.728 306,461.5C 302.853,458.532 300.186,455.198 298,451.5C 297.667,452.167 297.333,452.833 297,453.5C 294.545,446.383 291.211,439.716 287,433.5C 286.845,435.856 286.845,438.189 287,440.5C 284.599,435.952 282.599,431.285 281,426.5C 280.768,427.737 280.268,428.737 279.5,429.5C 279.59,427.304 279.923,425.137 280.5,423C 278.737,417.752 277.07,412.585 275.5,407.5C 274.519,404.579 273.685,401.579 273,398.5C 272.529,400.246 271.862,401.913 271,403.5C 270.79,401.942 270.29,400.609 269.5,399.5C 269.313,397.436 268.813,395.436 268,393.5C 267.667,394.5 267.333,395.5 267,396.5C 265.82,391.374 264.654,386.374 263.5,381.5C 263.405,379.214 262.738,377.214 261.5,375.5C 261.768,373.901 261.434,372.568 260.5,371.5C 260.715,369.821 260.048,368.821 258.5,368.5C 258.672,367.508 258.338,366.842 257.5,366.5C 257.716,359.378 256.883,352.378 255,345.5C 254.019,351.864 253.519,351.531 253.5,344.5C 254.152,343.551 254.486,342.385 254.5,341C 254.325,339.342 253.658,338.009 252.5,337C 253.591,334.936 253.758,332.769 253,330.5C 251.956,332.715 251.29,335.048 251,337.5C 249.957,335.167 249.124,332.834 248.5,330.5C 248.572,324.455 248.072,318.455 247,312.5C 246.667,313.833 246.333,315.167 246,316.5C 246.054,311.496 246.554,306.496 247.5,301.5C 247.581,295.465 247.248,289.465 246.5,283.5C 246.833,282.833 247.167,282.167 247.5,281.5C 247.5,278.167 247.5,274.833 247.5,271.5C 247.5,261.5 247.5,251.5 247.5,241.5C 248.763,236.984 249.929,232.317 251,227.5C 251.333,231.833 251.667,236.167 252,240.5C 252.17,231.324 252.67,222.324 253.5,213.5 Z"/></g>
<g><path style="opacity:1" fill="#090402" d="M 404.5,226.5 C 404.735,225.903 405.235,225.57 406,225.5C 408.795,226.185 411.628,226.685 414.5,227C 411.112,227.659 407.779,227.492 404.5,226.5 Z"/></g>
<g><path style="opacity:1" fill="#896857" d="M 376.5,221.5 C 376.833,221.5 377.167,221.5 377.5,221.5C 377.666,225.514 377.499,229.514 377,233.5C 375.812,232.437 375.312,231.103 375.5,229.5C 376.473,227.052 376.806,224.385 376.5,221.5 Z"/></g>
<g><path style="opacity:1" fill="#413127" d="M 330.5,221.5 C 332.842,221.775 332.842,222.608 330.5,224C 328.5,224.667 326.5,225.333 324.5,226C 321.947,226.851 319.614,226.518 317.5,225C 320.5,224.667 323.5,224.333 326.5,224C 328.32,223.8 329.653,222.966 330.5,221.5 Z"/></g>
<g><path style="opacity:0.012" fill="#210800" d="M 222.5,236.5 C 221.475,236.103 221.308,235.437 222,234.5C 222.464,235.094 222.631,235.761 222.5,236.5 Z"/></g>
<g><path style="opacity:0.012" fill="#210800" d="M 506.5,235.5 C 507.573,236.251 507.74,237.251 507,238.5C 506.517,237.552 506.351,236.552 506.5,235.5 Z"/></g>
<g><path style="opacity:0.012" fill="#210800" d="M 222.5,236.5 C 222.833,236.5 223.167,236.5 223.5,236.5C 223.167,239.167 222.833,239.167 222.5,236.5 Z"/></g>
<g><path style="opacity:0.012" fill="#210800" d="M 505.5,239.5 C 506.598,240.601 506.765,241.934 506,243.5C 505.51,242.207 505.343,240.873 505.5,239.5 Z"/></g>
<g><path style="opacity:0.012" fill="#210800" d="M 225.5,242.5 C 225.649,243.552 225.483,244.552 225,245.5C 224.26,244.251 224.427,243.251 225.5,242.5 Z"/></g>
<g><path style="opacity:0.012" fill="#210800" d="M 504.5,244.5 C 505.613,245.946 505.78,247.613 505,249.5C 504.506,247.866 504.34,246.199 504.5,244.5 Z"/></g>
<g><path style="opacity:0.012" fill="#210800" d="M 226.5,248.5 C 225.475,248.103 225.308,247.437 226,246.5C 226.464,247.094 226.631,247.761 226.5,248.5 Z"/></g>
<g><path style="opacity:0.012" fill="#210800" d="M 503.5,250.5 C 504.573,251.251 504.74,252.251 504,253.5C 503.517,252.552 503.351,251.552 503.5,250.5 Z"/></g>
<g><path style="opacity:0.012" fill="#210800" d="M 229.5,254.5 C 229.631,255.239 229.464,255.906 229,256.5C 228.308,255.563 228.475,254.897 229.5,254.5 Z"/></g>
<g><path style="opacity:0.012" fill="#210800" d="M 502.5,254.5 C 503.525,254.897 503.692,255.563 503,256.5C 502.536,255.906 502.369,255.239 502.5,254.5 Z"/></g>
<g><path style="opacity:0.012" fill="#210800" d="M 230.5,257.5 C 229.833,258.167 229.833,258.167 230.5,257.5 Z"/></g>
<g><path style="opacity:0.012" fill="#210800" d="M 501.5,257.5 C 502.833,258.167 502.833,258.833 501.5,259.5C 501.5,258.833 501.5,258.167 501.5,257.5 Z"/></g>
<g><path style="opacity:0.012" fill="#210800" d="M 231.5,259.5 C 230.833,260.167 230.833,260.167 231.5,259.5 Z"/></g>
<g><path style="opacity:0.012" fill="#210800" d="M 500.5,259.5 C 500.833,259.5 501.167,259.5 501.5,259.5C 501.672,260.492 501.338,261.158 500.5,261.5C 500.5,260.833 500.5,260.167 500.5,259.5 Z"/></g>
<g><path style="opacity:0.012" fill="#210800" d="M 499.5,261.5 C 499.833,261.5 500.167,261.5 500.5,261.5C 500.672,262.492 500.338,263.158 499.5,263.5C 499.5,262.833 499.5,262.167 499.5,261.5 Z"/></g>
<g><path style="opacity:1" fill="#dbac96" d="M 380.5,252.5 C 379.957,252.56 379.624,252.893 379.5,253.5C 380.098,254.795 380.598,256.128 381,257.5C 384.716,261.548 388.05,265.882 391,270.5C 393.002,276.685 391.169,281.185 385.5,284C 386.094,284.464 386.761,284.631 387.5,284.5C 386.942,285.79 385.942,286.623 384.5,287C 385.731,288.405 387.064,289.571 388.5,290.5C 385.023,290.04 381.523,289.707 378,289.5C 373.536,288.781 369.869,290.114 367,293.5C 366.283,298.22 366.45,302.886 367.5,307.5C 363.006,309.108 359.34,308.108 356.5,304.5C 357.793,300.966 357.793,297.299 356.5,293.5C 353.652,292.341 350.985,291.008 348.5,289.5C 349.239,289.631 349.906,289.464 350.5,289C 349.5,288 348.5,287 347.5,286C 343.414,285.406 339.748,284.239 336.5,282.5C 337.738,283.412 339.072,283.579 340.5,283C 336.057,279.938 334.557,275.771 336,270.5C 338.667,267.167 341.333,263.833 344,260.5C 344.845,258.389 345.678,256.389 346.5,254.5C 346.948,258.524 347.614,262.524 348.5,266.5C 350.149,265.352 351.649,264.019 353,262.5C 353.333,265.833 353.667,269.167 354,272.5C 355.167,274.333 356.667,275.833 358.5,277C 381.844,278.154 386.844,268.987 373.5,249.5C 375.541,248.903 377.374,248.903 379,249.5C 379.513,250.527 380.013,251.527 380.5,252.5 Z"/></g>
<g><path style="opacity:0.012" fill="#210800" d="M 498.5,263.5 C 498.833,263.5 499.167,263.5 499.5,263.5C 499.672,264.492 499.338,265.158 498.5,265.5C 498.5,264.833 498.5,264.167 498.5,263.5 Z"/></g>
<g><path style="opacity:0.012" fill="#210800" d="M 234.5,264.5 C 233.833,265.167 233.833,265.167 234.5,264.5 Z"/></g>
<g><path style="opacity:1" fill="#1f160f" d="M 346.5,254.5 C 345.678,256.389 344.845,258.389 344,260.5C 341.333,263.833 338.667,267.167 336,270.5C 334.557,275.771 336.057,279.938 340.5,283C 339.072,283.579 337.738,283.412 336.5,282.5C 332.911,278.524 331.744,273.858 333,268.5C 335.964,264.534 339.297,260.867 343,257.5C 344,255.5 345,253.5 346,251.5C 346.483,252.448 346.649,253.448 346.5,254.5 Z"/></g>
<g><path style="opacity:0.012" fill="#210800" d="M 497.5,265.5 C 497.833,265.5 498.167,265.5 498.5,265.5C 498.315,266.17 497.981,266.17 497.5,265.5 Z"/></g>
<g><path style="opacity:0.012" fill="#210800" d="M 496.5,266.5 C 496.833,266.5 497.167,266.5 497.5,266.5C 497.315,267.17 496.981,267.17 496.5,266.5 Z"/></g>
<g><path style="opacity:0.012" fill="#210800" d="M 495.5,268.5 C 496.833,269.167 496.833,269.167 495.5,268.5 Z"/></g>
<g><path style="opacity:0.012" fill="#210800" d="M 495.5,269.5 C 494.833,270.167 494.833,270.167 495.5,269.5 Z"/></g>
<g><path style="opacity:0.012" fill="#210800" d="M 494.5,270.5 C 493.833,271.167 493.833,271.167 494.5,270.5 Z"/></g>
<g><path style="opacity:0.012" fill="#210800" d="M 493.5,271.5 C 492.833,272.167 492.833,272.167 493.5,271.5 Z"/></g>
<g><path style="opacity:1" fill="#211711" d="M 380.5,252.5 C 385.814,257.656 390.647,263.322 395,269.5C 396.562,276.699 394.062,281.699 387.5,284.5C 386.761,284.631 386.094,284.464 385.5,284C 391.169,281.185 393.002,276.685 391,270.5C 388.05,265.882 384.716,261.548 381,257.5C 380.598,256.128 380.098,254.795 379.5,253.5C 379.624,252.893 379.957,252.56 380.5,252.5 Z"/></g>
<g><path style="opacity:0.012" fill="#210800" d="M 490.5,272.5 C 491.833,273.167 491.833,273.167 490.5,272.5 Z"/></g>
<g><path style="opacity:0.012" fill="#210800" d="M 489.5,273.5 C 489.833,273.5 490.167,273.5 490.5,273.5C 490.315,274.17 489.981,274.17 489.5,273.5 Z"/></g>
<g><path style="opacity:0.012" fill="#210800" d="M 241.5,274.5 C 240.833,275.167 240.833,275.167 241.5,274.5 Z"/></g>
<g><path style="opacity:0.012" fill="#210800" d="M 489.5,274.5 C 488.833,275.167 488.833,275.167 489.5,274.5 Z"/></g>
<g><path style="opacity:0.012" fill="#210800" d="M 241.5,276.5 C 242.833,277.167 242.833,277.167 241.5,276.5 Z"/></g>
<g><path style="opacity:0.012" fill="#210800" d="M 487.5,277.5 C 488.658,286.991 488.825,296.658 488,306.5C 487.5,296.839 487.334,287.172 487.5,277.5 Z"/></g>
<g><path style="opacity:0.012" fill="#210800" d="M 245.5,279.5 C 244.833,280.167 244.833,280.167 245.5,279.5 Z"/></g>
<g><path style="opacity:0.012" fill="#210800" d="M 246.5,283.5 C 246.665,287.182 246.499,290.848 246,294.5C 245.19,290.642 245.357,286.976 246.5,283.5 Z"/></g>
<g><path style="opacity:1" fill="#1e140e" d="M 345.5,280.5 C 346.251,279.427 347.251,279.26 348.5,280C 351.167,282 353.833,284 356.5,286C 359.702,287.483 363.036,287.817 366.5,287C 369.557,284.277 372.89,281.944 376.5,280C 383.704,279.222 384.037,279.889 377.5,282C 373.607,287.452 368.274,290.618 361.5,291.5C 358.472,291.153 355.806,289.986 353.5,288C 351.586,284.646 348.919,282.146 345.5,280.5 Z"/></g>
<g><path style="opacity:0.012" fill="#210800" d="M 245.5,299.5 C 246.613,300.946 246.78,302.613 246,304.5C 245.506,302.866 245.34,301.199 245.5,299.5 Z"/></g>
<g><path style="opacity:0.012" fill="#210800" d="M 244.5,306.5 C 245.598,307.601 245.765,308.934 245,310.5C 244.51,309.207 244.343,307.873 244.5,306.5 Z"/></g>
<g><path style="opacity:1" fill="#20140d" d="M 356.5,304.5 C 359.34,308.108 363.006,309.108 367.5,307.5C 368.117,307.389 368.617,307.056 369,306.5C 370.409,307.781 371.909,308.781 373.5,309.5C 369.917,310.194 366.417,311.194 363,312.5C 358.726,310.449 354.226,309.115 349.5,308.5C 351.265,307.539 353.265,307.205 355.5,307.5C 355.263,306.209 355.596,305.209 356.5,304.5 Z"/></g>
<g><path style="opacity:0.012" fill="#210800" d="M 486.5,309.5 C 487.573,310.251 487.74,311.251 487,312.5C 486.517,311.552 486.351,310.552 486.5,309.5 Z"/></g>
<g><path style="opacity:0.012" fill="#210800" d="M 484.5,313.5 C 485.525,313.897 485.692,314.563 485,315.5C 484.536,314.906 484.369,314.239 484.5,313.5 Z"/></g>
<g><path style="opacity:1" fill="#cb9b84" d="M 349.5,308.5 C 354.226,309.115 358.726,310.449 363,312.5C 366.417,311.194 369.917,310.194 373.5,309.5C 384.505,309.333 395.505,309.5 406.5,310C 407.833,311.667 409.167,313.333 410.5,315C 408.527,315.495 406.527,315.662 404.5,315.5C 390.613,312.757 376.78,313.091 363,316.5C 351.288,313.921 339.455,312.755 327.5,313C 325.392,313.36 323.392,314.027 321.5,315C 333.702,332.924 350.702,340.257 372.5,337C 383.647,333.062 394.647,328.728 405.5,324C 406.669,321.993 407.335,319.827 407.5,317.5C 409.166,316.334 410.833,316.334 412.5,317.5C 413.49,321.105 414.156,324.772 414.5,328.5C 413.842,327.602 413.176,326.602 412.5,325.5C 411.549,324.674 410.549,324.508 409.5,325C 403.332,333.668 395.999,341.168 387.5,347.5C 373.153,352.732 358.82,352.732 344.5,347.5C 339.951,345.131 335.785,342.131 332,338.5C 328.491,331.323 323.825,324.99 318,319.5C 317.79,321.058 317.29,322.391 316.5,323.5C 315.919,316.49 318.586,311.324 324.5,308C 332.882,307.227 341.215,307.394 349.5,308.5 Z"/></g>
<g><path style="opacity:1" fill="#1c140f" d="M 404.5,315.5 C 405.5,316.167 406.5,316.833 407.5,317.5C 407.335,319.827 406.669,321.993 405.5,324C 394.647,328.728 383.647,333.062 372.5,337C 350.702,340.257 333.702,332.924 321.5,315C 323.392,314.027 325.392,313.36 327.5,313C 339.455,312.755 351.288,313.921 363,316.5C 376.78,313.091 390.613,312.757 404.5,315.5 Z"/></g>
<g><path style="opacity:1" fill="#f5f5f5" d="M 327.5,315.5 C 339.757,315.417 351.757,317.084 363.5,320.5C 375.259,316.879 387.259,315.712 399.5,317C 402.37,320.398 401.87,323.231 398,325.5C 390.169,326.999 382.669,329.499 375.5,333C 357.509,336.712 341.676,332.545 328,320.5C 327.506,318.866 327.34,317.199 327.5,315.5 Z"/></g>
<g><path style="opacity:0.012" fill="#210800" d="M 483.5,317.5 C 484.613,318.946 484.78,320.613 484,322.5C 483.506,320.866 483.34,319.199 483.5,317.5 Z"/></g>
<g><path style="opacity:0.012" fill="#210800" d="M 246.5,320.5 C 247.634,322.966 247.801,325.633 247,328.5C 246.503,325.854 246.336,323.187 246.5,320.5 Z"/></g>
<g><path style="opacity:1" fill="#eec0a8" d="M 344.5,347.5 C 346.657,349.412 348.991,351.079 351.5,352.5C 351.414,353.496 351.748,354.329 352.5,355C 351.906,355.464 351.239,355.631 350.5,355.5C 349.417,355.461 348.417,355.127 347.5,354.5C 346.63,356.407 345.63,358.24 344.5,360C 346.444,367.387 346.944,374.887 346,382.5C 345.395,384.481 344.395,384.815 343,383.5C 339.007,391.066 334.34,391.399 329,384.5C 328.667,385.167 328.333,385.833 328,386.5C 321.483,383.13 318.316,377.797 318.5,370.5C 317.5,370.5 316.5,370.5 315.5,370.5C 313.478,364.543 312.145,358.377 311.5,352C 313.92,342.642 315.587,333.142 316.5,323.5C 317.29,322.391 317.79,321.058 318,319.5C 323.825,324.99 328.491,331.323 332,338.5C 335.785,342.131 339.951,345.131 344.5,347.5 Z"/></g>
<g><path style="opacity:0.012" fill="#210800" d="M 482.5,325.5 C 482.369,324.761 482.536,324.094 483,323.5C 483.692,324.437 483.525,325.103 482.5,325.5 Z"/></g>
<g><path style="opacity:1" fill="#efc1a8" d="M 414.5,328.5 C 414.678,329.695 415.011,330.862 415.5,332C 413.796,348.213 411.796,364.379 409.5,380.5C 408.5,380.5 407.5,380.5 406.5,380.5C 406.477,382.927 405.977,385.26 405,387.5C 397.635,394.09 390.302,394.09 383,387.5C 381.837,381.581 381.003,375.581 380.5,369.5C 382.059,364.516 382.393,359.516 381.5,354.5C 381.5,353.833 381.5,353.167 381.5,352.5C 383.5,350.833 385.5,349.167 387.5,347.5C 395.999,341.168 403.332,333.668 409.5,325C 410.549,324.508 411.549,324.674 412.5,325.5C 413.176,326.602 413.842,327.602 414.5,328.5 Z"/></g>
<g><path style="opacity:0.012" fill="#210800" d="M 481.5,325.5 C 481.833,325.5 482.167,325.5 482.5,325.5C 482.315,326.17 481.981,326.17 481.5,325.5 Z"/></g>
<g><path style="opacity:0.012" fill="#210800" d="M 481.5,326.5 C 481.665,329.518 481.498,332.518 481,335.5C 480.195,332.304 480.362,329.304 481.5,326.5 Z"/></g>
<g><path style="opacity:0.012" fill="#210800" d="M 248.5,330.5 C 248.66,332.199 248.494,333.866 248,335.5C 247.22,333.613 247.387,331.946 248.5,330.5 Z"/></g>
<g><path style="opacity:0.012" fill="#210800" d="M 253.5,344.5 C 252.378,342.712 252.211,340.712 253,338.5C 253.495,340.473 253.662,342.473 253.5,344.5 Z"/></g>
<g><path style="opacity:0.012" fill="#210800" d="M 481.5,338.5 C 482.622,340.288 482.789,342.288 482,344.5C 481.505,342.527 481.338,340.527 481.5,338.5 Z"/></g>
<g><path style="opacity:0.012" fill="#210800" d="M 482.5,347.5 C 483.833,348.167 483.833,348.167 482.5,347.5 Z"/></g>
<g><path style="opacity:0.012" fill="#210800" d="M 254.5,351.5 C 255.573,352.251 255.74,353.251 255,354.5C 254.517,353.552 254.351,352.552 254.5,351.5 Z"/></g>
<g><path style="opacity:1" fill="#1e140e" d="M 344.5,347.5 C 358.82,352.732 373.153,352.732 387.5,347.5C 385.5,349.167 383.5,350.833 381.5,352.5C 376.648,354.137 371.648,355.137 366.5,355.5C 361.392,354.972 356.392,353.972 351.5,352.5C 348.991,351.079 346.657,349.412 344.5,347.5 Z"/></g>
<g><path style="opacity:0.196" fill="#240e00" d="M 480.5,345.5 C 481.65,350.316 481.816,355.316 481,360.5C 480.667,356.833 480.333,353.167 480,349.5C 479.826,354.351 479.326,359.018 478.5,363.5C 478.124,357.328 478.791,351.328 480.5,345.5 Z"/></g>
<g><path style="opacity:1" fill="#d2a48e" d="M 351.5,352.5 C 356.392,353.972 361.392,354.972 366.5,355.5C 371.648,355.137 376.648,354.137 381.5,352.5C 381.5,353.167 381.5,353.833 381.5,354.5C 371.331,360.78 360.998,361.113 350.5,355.5C 351.239,355.631 351.906,355.464 352.5,355C 351.748,354.329 351.414,353.496 351.5,352.5 Z"/></g>
<g><path style="opacity:0.012" fill="#210800" d="M 255.5,359.5 C 256.622,361.288 256.789,363.288 256,365.5C 255.505,363.527 255.338,361.527 255.5,359.5 Z"/></g>
<g><path style="opacity:0.012" fill="#210800" d="M 257.5,366.5 C 256.833,367.167 256.833,367.167 257.5,366.5 Z"/></g>
<g><path style="opacity:0.012" fill="#210800" d="M 480.5,366.5 C 481.622,368.288 481.789,370.288 481,372.5C 480.505,370.527 480.338,368.527 480.5,366.5 Z"/></g>
<g><path style="opacity:0.012" fill="#210800" d="M 258.5,368.5 C 258.5,368.833 258.5,369.167 258.5,369.5C 257.83,369.019 257.83,368.685 258.5,368.5 Z"/></g>
<g><path style="opacity:0.012" fill="#210800" d="M 258.5,369.5 C 259.833,370.167 259.833,370.167 258.5,369.5 Z"/></g>
<g><path style="opacity:0.012" fill="#210800" d="M 260.5,371.5 C 260.649,372.552 260.483,373.552 260,374.5C 259.26,373.251 259.427,372.251 260.5,371.5 Z"/></g>
<g><path style="opacity:0.012" fill="#210800" d="M 479.5,373.5 C 480.833,374.167 480.833,374.167 479.5,373.5 Z"/></g>
<g><path style="opacity:0.012" fill="#210800" d="M 478.5,374.5 C 478.833,374.5 479.167,374.5 479.5,374.5C 479.167,382.5 478.833,382.5 478.5,374.5 Z"/></g>
<g><path style="opacity:0.012" fill="#210800" d="M 261.5,375.5 C 261.631,376.239 261.464,376.906 261,377.5C 260.308,376.563 260.475,375.897 261.5,375.5 Z"/></g>
<g><path style="opacity:0.012" fill="#210800" d="M 263.5,381.5 C 263.66,383.199 263.494,384.866 263,386.5C 262.22,384.613 262.387,382.946 263.5,381.5 Z"/></g>
<g><path style="opacity:0.012" fill="#210800" d="M 477.5,381.5 C 478.598,382.601 478.765,383.934 478,385.5C 477.51,384.207 477.343,382.873 477.5,381.5 Z"/></g>
<g><path style="opacity:0.012" fill="#210800" d="M 476.5,386.5 C 477.833,387.5 477.833,388.5 476.5,389.5C 476.5,388.5 476.5,387.5 476.5,386.5 Z"/></g>
<g><path style="opacity:0.012" fill="#210800" d="M 263.5,388.5 C 264.573,389.251 264.74,390.251 264,391.5C 263.517,390.552 263.351,389.552 263.5,388.5 Z"/></g>
<g><path style="opacity:0.97" fill="#1d0f07" d="M 467.5,387.5 C 466.861,388.097 466.528,388.93 466.5,390C 467.177,397.353 468.177,404.52 469.5,411.5C 470.313,414.989 472.313,417.656 475.5,419.5C 477.147,421.326 479.147,422.66 481.5,423.5C 481.973,424.906 482.973,425.573 484.5,425.5C 485.947,426.885 486.947,426.552 487.5,424.5C 488.872,423.488 490.205,422.488 491.5,421.5C 494.167,421.5 496.833,421.5 499.5,421.5C 501.649,422.736 503.982,423.736 506.5,424.5C 507.93,425.537 509.597,426.204 511.5,426.5C 512.78,427.931 514.447,428.598 516.5,428.5C 519.256,430.204 522.256,431.537 525.5,432.5C 527.336,434.588 529.669,435.921 532.5,436.5C 532.842,437.338 533.508,437.672 534.5,437.5C 534.842,438.338 535.508,438.672 536.5,438.5C 539.678,441.258 543.345,443.258 547.5,444.5C 549.509,446.065 551.843,447.065 554.5,447.5C 558.712,450.056 563.378,451.39 568.5,451.5C 569.568,452.434 570.901,452.768 572.5,452.5C 573.568,453.434 574.901,453.768 576.5,453.5C 577.209,454.404 578.209,454.737 579.5,454.5C 580.209,455.404 581.209,455.737 582.5,455.5C 585.314,457.07 588.314,458.403 591.5,459.5C 591.973,460.906 592.973,461.573 594.5,461.5C 594.842,462.338 595.508,462.672 596.5,462.5C 597.911,464.539 599.911,465.539 602.5,465.5C 603.514,466.674 604.847,467.34 606.5,467.5C 609.256,469.204 612.256,470.537 615.5,471.5C 618.982,474.484 621.482,478.151 623,482.5C 624.972,484.232 627.139,485.565 629.5,486.5C 629.842,487.338 630.508,487.672 631.5,487.5C 632.659,489.25 634.326,490.25 636.5,490.5C 638.509,492.065 640.843,493.065 643.5,493.5C 645.214,494.738 647.214,495.405 649.5,495.5C 653.575,497.118 657.908,498.118 662.5,498.5C 665.215,500.072 668.215,501.072 671.5,501.5C 674.979,503.403 678.646,505.07 682.5,506.5C 682.842,507.338 683.508,507.672 684.5,507.5C 693.199,513.203 701.199,519.87 708.5,527.5C 710.094,530.764 712.427,533.431 715.5,535.5C 718.016,539.866 721.016,543.866 724.5,547.5C 724.427,549.027 725.094,550.027 726.5,550.5C 726.427,552.027 727.094,553.027 728.5,553.5C 729.11,555.434 730.11,557.101 731.5,558.5C 731.427,560.027 732.094,561.027 733.5,561.5C 735.659,567.151 738.326,572.484 741.5,577.5C 741.402,579.553 742.069,581.22 743.5,582.5C 743.263,583.791 743.596,584.791 744.5,585.5C 744.263,586.791 744.596,587.791 745.5,588.5C 745.263,589.791 745.596,590.791 746.5,591.5C 746.232,593.099 746.566,594.432 747.5,595.5C 747.232,597.099 747.566,598.432 748.5,599.5C 748.5,600.5 748.5,601.5 748.5,602.5C 746.5,602.5 744.5,602.5 742.5,602.5C 740.092,589.446 735.592,577.112 729,565.5C 717.749,545.912 703.249,529.079 685.5,515C 676.24,509.202 666.24,505.368 655.5,503.5C 644.56,500.954 634.226,496.621 624.5,490.5C 624.167,492.833 623.833,495.167 623.5,497.5C 626.543,532.436 628.21,567.436 628.5,602.5C 626.833,602.5 625.167,602.5 623.5,602.5C 623.551,563.082 621.718,523.749 618,484.5C 615.089,477.773 609.923,473.773 602.5,472.5C 595.702,469.268 589.036,465.768 582.5,462C 572.253,458.75 561.92,455.75 551.5,453C 537.539,445.852 523.539,439.018 509.5,432.5C 509.44,431.957 509.107,431.624 508.5,431.5C 507.505,437.128 507.171,442.794 507.5,448.5C 506.972,488.585 494.805,524.585 471,556.5C 461.352,567.49 450.518,576.99 438.5,585C 432.591,590.404 427.258,596.237 422.5,602.5C 420.5,602.5 418.5,602.5 416.5,602.5C 425.711,589.456 437.044,578.623 450.5,570C 472.959,550.168 488.125,525.668 496,496.5C 502.262,474.547 504.429,452.214 502.5,429.5C 499.375,427.649 496.042,427.149 492.5,428C 500.391,483.677 483.058,529.677 440.5,566C 425.088,575.578 412.088,587.745 401.5,602.5C 399.5,602.5 397.5,602.5 395.5,602.5C 400.897,594.902 406.897,587.735 413.5,581C 428.505,569.898 442.672,557.732 456,544.5C 462.864,536.48 468.697,527.813 473.5,518.5C 474.043,518.44 474.376,518.107 474.5,517.5C 457.671,516.173 441.005,516.173 424.5,517.5C 414.304,518.515 405.804,522.848 399,530.5C 400.964,526.188 404.131,522.688 408.5,520C 414.079,516.542 420.079,514.209 426.5,513C 443.51,512.833 460.51,512.333 477.5,511.5C 488.976,486.23 491.976,460.063 486.5,433C 480.805,430.627 475.638,427.46 471,423.5C 470.667,426.833 470.333,430.167 470,433.5C 468.234,431.404 466.901,429.071 466,426.5C 464.342,416.712 462.842,407.045 461.5,397.5C 462.624,393.46 463.958,389.46 465.5,385.5C 466.522,385.855 467.189,386.522 467.5,387.5 Z M 487.5,424.5 C 486.947,426.552 485.947,426.885 484.5,425.5C 485.609,425.443 486.609,425.11 487.5,424.5 Z"/></g>
<g><path style="opacity:0.012" fill="#210800" d="M 475.5,389.5 C 475.833,389.5 476.167,389.5 476.5,389.5C 476.737,390.791 476.404,391.791 475.5,392.5C 475.5,391.5 475.5,390.5 475.5,389.5 Z"/></g>
<g><path style="opacity:0.012" fill="#210800" d="M 474.5,392.5 C 474.833,392.5 475.167,392.5 475.5,392.5C 475.167,395.167 474.833,395.167 474.5,392.5 Z"/></g>
<g><path style="opacity:0.012" fill="#210800" d="M 473.5,395.5 C 474.833,396.167 474.833,396.167 473.5,395.5 Z"/></g>
<g><path style="opacity:0.012" fill="#210800" d="M 268.5,399.5 C 267.475,399.103 267.308,398.437 268,397.5C 268.464,398.094 268.631,398.761 268.5,399.5 Z"/></g>
<g><path style="opacity:0.012" fill="#210800" d="M 469.5,398.5 C 469.657,399.873 469.49,401.207 469,402.5C 468.235,400.934 468.402,399.601 469.5,398.5 Z"/></g>
<g><path style="opacity:0.012" fill="#210800" d="M 268.5,399.5 C 268.833,399.5 269.167,399.5 269.5,399.5C 269.167,402.167 268.833,402.167 268.5,399.5 Z"/></g>
<g><path style="opacity:0.012" fill="#210800" d="M 272.5,403.5 C 273.573,404.251 273.74,405.251 273,406.5C 272.517,405.552 272.351,404.552 272.5,403.5 Z"/></g>
<g><path style="opacity:0.012" fill="#210800" d="M 469.5,411.5 C 469.337,409.143 469.503,406.81 470,404.5C 470.796,407.039 470.629,409.372 469.5,411.5 Z"/></g>
<g><path style="opacity:0.012" fill="#210800" d="M 273.5,407.5 C 274.638,410.304 274.805,413.304 274,416.5C 273.502,413.518 273.335,410.518 273.5,407.5 Z"/></g>
<g><path style="opacity:1" fill="#f0c2a9" d="M 461.5,397.5 C 462.842,407.045 464.342,416.712 466,426.5C 466.901,429.071 468.234,431.404 470,433.5C 470.333,430.167 470.667,426.833 471,423.5C 475.638,427.46 480.805,430.627 486.5,433C 491.976,460.063 488.976,486.23 477.5,511.5C 460.51,512.333 443.51,512.833 426.5,513C 420.079,514.209 414.079,516.542 408.5,520C 404.131,522.688 400.964,526.188 399,530.5C 405.804,522.848 414.304,518.515 424.5,517.5C 441.009,517.17 457.342,517.504 473.5,518.5C 468.697,527.813 462.864,536.48 456,544.5C 442.672,557.732 428.505,569.898 413.5,581C 406.897,587.735 400.897,594.902 395.5,602.5C 381.5,602.5 367.5,602.5 353.5,602.5C 348.579,594.532 342.579,587.365 335.5,581C 320.495,569.898 306.328,557.732 293,544.5C 289.333,539.833 285.667,535.167 282,530.5C 279.274,526.381 277.107,522.048 275.5,517.5C 293.17,517.333 310.836,517.5 328.5,518C 336.89,520.37 344.224,523.87 350.5,528.5C 344.609,521.718 337.276,517.218 328.5,515C 309.631,513.907 290.797,513.074 272,512.5C 260.729,487.893 257.229,462.226 261.5,435.5C 266.423,432.745 270.923,429.412 275,425.5C 275.175,429.211 275.675,432.878 276.5,436.5C 278.327,434.513 279.327,432.179 279.5,429.5C 280.268,428.737 280.768,427.737 281,426.5C 282.599,431.285 284.599,435.952 287,440.5C 286.845,438.189 286.845,435.856 287,433.5C 291.211,439.716 294.545,446.383 297,453.5C 297.333,452.833 297.667,452.167 298,451.5C 300.186,455.198 302.853,458.532 306,461.5C 306.526,458.728 307.359,456.062 308.5,453.5C 308.833,453.833 309.167,454.167 309.5,454.5C 311.382,460.317 313.548,465.984 316,471.5C 316,470.167 316,468.833 316,467.5C 319.349,471.016 322.849,474.349 326.5,477.5C 327.452,475.955 327.785,474.288 327.5,472.5C 331.443,474.133 335.443,475.8 339.5,477.5C 338.001,478.904 338.334,479.57 340.5,479.5C 346.445,476.982 352.445,475.648 358.5,475.5C 357.408,478.094 355.741,480.261 353.5,482C 354.833,482.167 356.167,482.333 357.5,482.5C 364.87,481.478 371.536,478.811 377.5,474.5C 380.167,475.5 382.833,476.5 385.5,477.5C 386.554,477.32 387.554,476.987 388.5,476.5C 391.021,477.785 393.687,478.452 396.5,478.5C 397.484,475.188 398.484,471.855 399.5,468.5C 404.416,465.753 408.916,462.42 413,458.5C 412.613,461.941 411.113,464.941 408.5,467.5C 408.667,467.833 408.833,468.167 409,468.5C 411.374,465.712 412.707,466.046 413,469.5C 414.643,467.023 416.476,464.69 418.5,462.5C 424.529,456.306 431.029,450.639 438,445.5C 440.667,440.833 443.333,436.167 446,431.5C 449.983,427.55 452.983,422.883 455,417.5C 456.57,410.524 458.736,403.857 461.5,397.5 Z"/></g>
<g><path style="opacity:0.974" fill="#1d0f08" d="M 275.5,407.5 C 277.07,412.585 278.737,417.752 280.5,423C 279.923,425.137 279.59,427.304 279.5,429.5C 279.327,432.179 278.327,434.513 276.5,436.5C 275.675,432.878 275.175,429.211 275,425.5C 270.923,429.412 266.423,432.745 261.5,435.5C 257.229,462.226 260.729,487.893 272,512.5C 290.797,513.074 309.631,513.907 328.5,515C 337.276,517.218 344.609,521.718 350.5,528.5C 344.224,523.87 336.89,520.37 328.5,518C 310.836,517.5 293.17,517.333 275.5,517.5C 277.107,522.048 279.274,526.381 282,530.5C 285.667,535.167 289.333,539.833 293,544.5C 306.328,557.732 320.495,569.898 335.5,581C 342.579,587.365 348.579,594.532 353.5,602.5C 351.5,602.5 349.5,602.5 347.5,602.5C 336.912,587.745 323.912,575.578 308.5,566C 265.941,529.673 248.607,483.673 256.5,428C 252.796,427.196 249.296,427.696 246,429.5C 243.592,467.865 251.592,503.865 270,537.5C 282.5,556.667 298.333,572.5 317.5,585C 323.1,590.399 328.1,596.232 332.5,602.5C 330.5,602.5 328.5,602.5 326.5,602.5C 315.941,590.11 303.941,579.277 290.5,570C 261.658,540.868 245.491,505.701 242,464.5C 240.901,453.86 240.401,443.194 240.5,432.5C 236.687,433.16 233.021,434.326 229.5,436C 218.272,442.781 206.605,448.781 194.5,454C 183.94,456.245 173.606,459.245 163.5,463C 157.601,466.779 151.601,470.279 145.5,473.5C 138.456,474.391 133.622,478.058 131,484.5C 127.224,523.746 125.391,563.079 125.5,602.5C 123.833,602.5 122.167,602.5 120.5,602.5C 121.081,566.785 122.748,531.119 125.5,495.5C 125.167,493.833 124.833,492.167 124.5,490.5C 114.519,496.82 103.852,501.153 92.5,503.5C 73.0732,507.633 56.9066,517.3 44,532.5C 30.8258,547.504 20.1591,564.17 12,582.5C 9.44662,588.99 7.61329,595.657 6.5,602.5C 4.5,602.5 2.5,602.5 0.5,602.5C 1.21862,600.236 1.55195,597.903 1.5,595.5C 2.92381,593.485 3.59047,591.152 3.5,588.5C 4.40397,587.791 4.73731,586.791 4.5,585.5C 16.7247,555.035 35.7247,529.702 61.5,509.5C 63.0269,509.573 64.0269,508.906 64.5,507.5C 72.761,503.752 81.0944,500.418 89.5,497.5C 93.1224,497.678 96.4557,497.011 99.5,495.5C 100.791,495.737 101.791,495.404 102.5,494.5C 103.791,494.737 104.791,494.404 105.5,493.5C 112.358,491.404 118.691,488.238 124.5,484C 126.559,479.115 129.559,474.948 133.5,471.5C 138.833,469.73 143.833,467.397 148.5,464.5C 150.38,464.771 151.713,464.104 152.5,462.5C 153.492,462.672 154.158,462.338 154.5,461.5C 158.539,459.481 162.539,457.481 166.5,455.5C 167.791,455.737 168.791,455.404 169.5,454.5C 170.791,454.737 171.791,454.404 172.5,453.5C 174.099,453.768 175.432,453.434 176.5,452.5C 178.099,452.768 179.432,452.434 180.5,451.5C 184.622,451.303 188.622,450.47 192.5,449C 199.67,446.25 206.337,442.75 212.5,438.5C 213.492,438.672 214.158,438.338 214.5,437.5C 220.539,434.481 226.539,431.481 232.5,428.5C 238.473,426.736 244.14,424.403 249.5,421.5C 252.167,421.5 254.833,421.5 257.5,421.5C 259.807,422.977 261.64,424.977 263,427.5C 267.554,424.882 271.554,421.548 275,417.5C 275.498,414.183 275.665,410.85 275.5,407.5 Z"/></g>
<g><path style="opacity:0.012" fill="#210800" d="M 475.5,418.5 C 476.833,419.167 476.833,419.167 475.5,418.5 Z"/></g>
<g><path style="opacity:0.012" fill="#210800" d="M 250.5,420.5 C 252.288,419.378 254.288,419.211 256.5,420C 254.527,420.495 252.527,420.662 250.5,420.5 Z"/></g>
<g><path style="opacity:0.012" fill="#210800" d="M 477.5,419.5 C 478.833,420.167 478.833,420.167 477.5,419.5 Z"/></g>
<g><path style="opacity:0.012" fill="#210800" d="M 492.5,420.5 C 494.288,419.378 496.288,419.211 498.5,420C 496.527,420.495 494.527,420.662 492.5,420.5 Z"/></g>
<g><path style="opacity:0.012" fill="#210800" d="M 249.5,421.5 C 248.761,421.631 248.094,421.464 247.5,421C 248.437,420.308 249.103,420.475 249.5,421.5 Z"/></g>
<g><path style="opacity:0.012" fill="#210800" d="M 257.5,420.5 C 258.833,421.167 258.833,421.167 257.5,420.5 Z"/></g>
<g><path style="opacity:0.012" fill="#210800" d="M 268.5,420.5 C 269.833,421.167 269.833,421.167 268.5,420.5 Z"/></g>
<g><path style="opacity:0.012" fill="#210800" d="M 491.5,421.5 C 490.833,420.167 490.833,420.167 491.5,421.5 Z"/></g>
<g><path style="opacity:0.012" fill="#210800" d="M 499.5,421.5 C 499.897,420.475 500.563,420.308 501.5,421C 500.906,421.464 500.239,421.631 499.5,421.5 Z"/></g>
<g><path style="opacity:0.012" fill="#210800" d="M 268.5,421.5 C 267.833,422.167 267.833,422.167 268.5,421.5 Z"/></g>
<g><path style="opacity:0.012" fill="#210800" d="M 481.5,422.5 C 482.833,423.167 482.833,423.167 481.5,422.5 Z"/></g>
<g><path style="opacity:0.012" fill="#210800" d="M 483.5,423.5 C 484.833,424.167 484.833,424.167 483.5,423.5 Z"/></g>
<g><path style="opacity:0.012" fill="#210800" d="M 506.5,424.5 C 506.897,423.475 507.563,423.308 508.5,424C 507.906,424.464 507.239,424.631 506.5,424.5 Z"/></g>
<g><path style="opacity:0.012" fill="#210800" d="M 511.5,426.5 C 511.897,425.475 512.563,425.308 513.5,426C 512.906,426.464 512.239,426.631 511.5,426.5 Z"/></g>
<g><path style="opacity:0.012" fill="#210800" d="M 232.5,427.5 C 232.897,426.475 233.563,426.308 234.5,427C 233.906,427.464 233.239,427.631 232.5,427.5 Z"/></g>
<g><path style="opacity:0.012" fill="#210800" d="M 516.5,427.5 C 515.761,427.631 515.094,427.464 514.5,427C 515.437,426.308 516.103,426.475 516.5,427.5 Z"/></g>
<g><path style="opacity:0.012" fill="#210800" d="M 232.5,427.5 C 232.5,427.833 232.5,428.167 232.5,428.5C 229.833,428.167 229.833,427.833 232.5,427.5 Z"/></g>
<g><path style="opacity:1" fill="#0364b3" d="M 347.5,602.5 C 342.5,602.5 337.5,602.5 332.5,602.5C 328.1,596.232 323.1,590.399 317.5,585C 298.333,572.5 282.5,556.667 270,537.5C 251.592,503.865 243.592,467.865 246,429.5C 249.296,427.696 252.796,427.196 256.5,428C 248.607,483.673 265.941,529.673 308.5,566C 323.912,575.578 336.912,587.745 347.5,602.5 Z"/></g>
<g><path style="opacity:1" fill="#0464b3" d="M 416.5,602.5 C 411.5,602.5 406.5,602.5 401.5,602.5C 412.088,587.745 425.088,575.578 440.5,566C 483.058,529.677 500.391,483.677 492.5,428C 496.042,427.149 499.375,427.649 502.5,429.5C 504.429,452.214 502.262,474.547 496,496.5C 488.125,525.668 472.959,550.168 450.5,570C 437.044,578.623 425.711,589.456 416.5,602.5 Z"/></g>
<g><path style="opacity:0.012" fill="#210800" d="M 516.5,428.5 C 516.5,428.167 516.5,427.833 516.5,427.5C 519.167,427.833 519.167,428.167 516.5,428.5 Z"/></g>
<g><path style="opacity:0.012" fill="#210800" d="M 228.5,428.5 C 229.833,429.167 229.833,429.167 228.5,428.5 Z"/></g>
<g><path style="opacity:0.012" fill="#210800" d="M 519.5,428.5 C 520.833,429.167 520.833,429.167 519.5,428.5 Z"/></g>
<g><path style="opacity:0.012" fill="#210800" d="M 525.5,431.5 C 526.833,432.167 526.833,432.167 525.5,431.5 Z"/></g>
<g><path style="opacity:1" fill="#eae7e5" d="M 326.5,602.5 C 264.5,602.5 202.5,602.5 140.5,602.5C 138.072,559.336 139.739,516.336 145.5,473.5C 151.601,470.279 157.601,466.779 163.5,463C 173.606,459.245 183.94,456.245 194.5,454C 206.605,448.781 218.272,442.781 229.5,436C 233.021,434.326 236.687,433.16 240.5,432.5C 240.401,443.194 240.901,453.86 242,464.5C 245.491,505.701 261.658,540.868 290.5,570C 303.941,579.277 315.941,590.11 326.5,602.5 Z"/></g>
<g><path style="opacity:1" fill="#eae7e5" d="M 509.5,432.5 C 523.539,439.018 537.539,445.852 551.5,453C 561.92,455.75 572.253,458.75 582.5,462C 589.036,465.768 595.702,469.268 602.5,472.5C 605.123,490.065 606.957,507.732 608,525.5C 608.5,551.165 608.667,576.831 608.5,602.5C 546.5,602.5 484.5,602.5 422.5,602.5C 427.258,596.237 432.591,590.404 438.5,585C 450.518,576.99 461.352,567.49 471,556.5C 494.805,524.585 506.972,488.585 507.5,448.5C 508.167,443.167 508.833,437.833 509.5,432.5 Z"/></g>
<g><path style="opacity:0.012" fill="#210800" d="M 532.5,435.5 C 533.833,436.167 533.833,436.167 532.5,435.5 Z"/></g>
<g><path style="opacity:0.012" fill="#210800" d="M 214.5,437.5 C 213.833,436.167 213.833,436.167 214.5,437.5 Z"/></g>
<g><path style="opacity:1" fill="#524137" d="M 509.5,432.5 C 508.833,437.833 508.167,443.167 507.5,448.5C 507.171,442.794 507.505,437.128 508.5,431.5C 509.107,431.624 509.44,431.957 509.5,432.5 Z"/></g>
<g><path style="opacity:0.012" fill="#210800" d="M 534.5,436.5 C 535.833,437.167 535.833,437.167 534.5,436.5 Z"/></g>
<g><path style="opacity:0.012" fill="#210800" d="M 212.5,438.5 C 211.833,437.167 211.833,437.167 212.5,438.5 Z"/></g>
<g><path style="opacity:0.012" fill="#210800" d="M 536.5,437.5 C 537.833,438.167 537.833,438.167 536.5,437.5 Z"/></g>
<g><path style="opacity:0.012" fill="#210800" d="M 209.5,438.5 C 210.833,439.167 210.833,439.167 209.5,438.5 Z"/></g>
<g><path style="opacity:0.012" fill="#210800" d="M 538.5,438.5 C 539.833,439.167 539.833,439.167 538.5,438.5 Z"/></g>
<g><path style="opacity:0.012" fill="#210800" d="M 207.5,439.5 C 208.833,440.167 208.833,440.167 207.5,439.5 Z"/></g>
<g><path style="opacity:0.012" fill="#210800" d="M 547.5,444.5 C 547.897,443.475 548.563,443.308 549.5,444C 548.906,444.464 548.239,444.631 547.5,444.5 Z"/></g>
<g><path style="opacity:0.012" fill="#210800" d="M 197.5,444.5 C 198.833,445.167 198.833,445.167 197.5,444.5 Z"/></g>
<g><path style="opacity:0.012" fill="#210800" d="M 550.5,444.5 C 551.833,445.167 551.833,445.167 550.5,444.5 Z"/></g>
<g><path style="opacity:0.012" fill="#210800" d="M 554.5,447.5 C 554.897,446.475 555.563,446.308 556.5,447C 555.906,447.464 555.239,447.631 554.5,447.5 Z"/></g>
<g><path style="opacity:0.012" fill="#210800" d="M 189.5,448.5 C 189.897,447.475 190.563,447.308 191.5,448C 190.906,448.464 190.239,448.631 189.5,448.5 Z"/></g>
<g><path style="opacity:0.012" fill="#210800" d="M 557.5,448.5 C 557.897,447.475 558.563,447.308 559.5,448C 558.906,448.464 558.239,448.631 557.5,448.5 Z"/></g>
<g><path style="opacity:0.012" fill="#210800" d="M 186.5,449.5 C 186.897,448.475 187.563,448.308 188.5,449C 187.906,449.464 187.239,449.631 186.5,449.5 Z"/></g>
<g><path style="opacity:0.012" fill="#210800" d="M 560.5,449.5 C 560.897,448.475 561.563,448.308 562.5,449C 561.906,449.464 561.239,449.631 560.5,449.5 Z"/></g>
<g><path style="opacity:0.012" fill="#210800" d="M 181.5,450.5 C 182.251,449.427 183.251,449.26 184.5,450C 183.552,450.483 182.552,450.649 181.5,450.5 Z"/></g>
<g><path style="opacity:0.012" fill="#210800" d="M 564.5,450.5 C 565.251,449.427 566.251,449.26 567.5,450C 566.552,450.483 565.552,450.649 564.5,450.5 Z"/></g>
<g><path style="opacity:0.012" fill="#210800" d="M 180.5,451.5 C 179.448,451.649 178.448,451.483 177.5,451C 178.749,450.26 179.749,450.427 180.5,451.5 Z"/></g>
<g><path style="opacity:0.012" fill="#210800" d="M 568.5,451.5 C 569.251,450.427 570.251,450.26 571.5,451C 570.552,451.483 569.552,451.649 568.5,451.5 Z"/></g>
<g><path style="opacity:0.012" fill="#210800" d="M 176.5,452.5 C 175.448,452.649 174.448,452.483 173.5,452C 174.749,451.26 175.749,451.427 176.5,452.5 Z"/></g>
<g><path style="opacity:0.012" fill="#210800" d="M 572.5,452.5 C 573.251,451.427 574.251,451.26 575.5,452C 574.552,452.483 573.552,452.649 572.5,452.5 Z"/></g>
<g><path style="opacity:0.012" fill="#210800" d="M 172.5,453.5 C 171.761,453.631 171.094,453.464 170.5,453C 171.437,452.308 172.103,452.475 172.5,453.5 Z"/></g>
<g><path style="opacity:0.012" fill="#210800" d="M 576.5,453.5 C 576.897,452.475 577.563,452.308 578.5,453C 577.906,453.464 577.239,453.631 576.5,453.5 Z"/></g>
<g><path style="opacity:0.012" fill="#210800" d="M 169.5,454.5 C 168.761,454.631 168.094,454.464 167.5,454C 168.437,453.308 169.103,453.475 169.5,454.5 Z"/></g>
<g><path style="opacity:0.012" fill="#210800" d="M 579.5,454.5 C 579.897,453.475 580.563,453.308 581.5,454C 580.906,454.464 580.239,454.631 579.5,454.5 Z"/></g>
<g><path style="opacity:0.012" fill="#210800" d="M 166.5,455.5 C 165.761,455.631 165.094,455.464 164.5,455C 165.437,454.308 166.103,454.475 166.5,455.5 Z"/></g>
<g><path style="opacity:0.012" fill="#210800" d="M 582.5,455.5 C 582.897,454.475 583.563,454.308 584.5,455C 583.906,455.464 583.239,455.631 582.5,455.5 Z"/></g>
<g><path style="opacity:0.012" fill="#210800" d="M 591.5,458.5 C 592.833,459.167 592.833,459.167 591.5,458.5 Z"/></g>
<g><path style="opacity:0.012" fill="#210800" d="M 154.5,459.5 C 155.833,460.167 155.833,460.167 154.5,459.5 Z"/></g>
<g><path style="opacity:0.012" fill="#210800" d="M 594.5,460.5 C 593.833,459.167 593.833,459.167 594.5,460.5 Z"/></g>
<g><path style="opacity:0.012" fill="#210800" d="M 154.5,460.5 C 154.5,460.833 154.5,461.167 154.5,461.5C 153.83,461.019 153.83,460.685 154.5,460.5 Z"/></g>
<g><path style="opacity:0.012" fill="#210800" d="M 594.5,460.5 C 595.833,461.167 595.833,461.167 594.5,460.5 Z"/></g>
<g><path style="opacity:0.012" fill="#210800" d="M 152.5,462.5 C 151.833,461.167 151.833,461.167 152.5,462.5 Z"/></g>
<g><path style="opacity:0.012" fill="#210800" d="M 596.5,461.5 C 597.833,462.167 597.833,462.167 596.5,461.5 Z"/></g>
<g><path style="opacity:0.012" fill="#210800" d="M 149.5,462.5 C 150.833,463.167 150.833,463.167 149.5,462.5 Z"/></g>
<g><path style="opacity:0.012" fill="#210800" d="M 598.5,462.5 C 599.833,463.167 599.833,463.167 598.5,462.5 Z"/></g>
<g><path style="opacity:0.012" fill="#210800" d="M 148.5,464.5 C 147.833,463.167 147.833,463.167 148.5,464.5 Z"/></g>
<g><path style="opacity:0.012" fill="#210800" d="M 600.5,463.5 C 601.833,464.167 601.833,464.167 600.5,463.5 Z"/></g>
<g><path style="opacity:0.012" fill="#210800" d="M 602.5,464.5 C 603.833,465.167 603.833,465.167 602.5,464.5 Z"/></g>
<g><path style="opacity:0.012" fill="#210800" d="M 606.5,467.5 C 606.897,466.475 607.563,466.308 608.5,467C 607.906,467.464 607.239,467.631 606.5,467.5 Z"/></g>
<g><path style="opacity:0.012" fill="#210800" d="M 609.5,468.5 C 609.897,467.475 610.563,467.308 611.5,468C 610.906,468.464 610.239,468.631 609.5,468.5 Z"/></g>
<g><path style="opacity:0.012" fill="#210800" d="M 133.5,469.5 C 134.833,470.167 134.833,470.167 133.5,469.5 Z"/></g>
<g><path style="opacity:0.012" fill="#210800" d="M 133.5,470.5 C 133.5,470.833 133.5,471.167 133.5,471.5C 132.83,471.019 132.83,470.685 133.5,470.5 Z"/></g>
<g><path style="opacity:0.012" fill="#210800" d="M 615.5,470.5 C 616.833,471.167 616.833,471.167 615.5,470.5 Z"/></g>
<g><path style="opacity:0.012" fill="#210800" d="M 130.5,471.5 C 131.833,472.167 131.833,472.167 130.5,471.5 Z"/></g>
<g><path style="opacity:0.012" fill="#210800" d="M 618.5,472.5 C 617.833,471.167 617.833,471.167 618.5,472.5 Z"/></g>
<g><path style="opacity:0.012" fill="#210800" d="M 618.5,472.5 C 619.167,472.5 619.5,472.833 619.5,473.5C 619.167,473.167 618.833,472.833 618.5,472.5 Z"/></g>
<g><path style="opacity:0.012" fill="#210800" d="M 619.5,473.5 C 620.833,474.167 620.833,474.167 619.5,473.5 Z"/></g>
<g><path style="opacity:1" fill="#0566b7" d="M 145.5,473.5 C 139.739,516.336 138.072,559.336 140.5,602.5C 135.5,602.5 130.5,602.5 125.5,602.5C 125.391,563.079 127.224,523.746 131,484.5C 133.622,478.058 138.456,474.391 145.5,473.5 Z"/></g>
<g><path style="opacity:1" fill="#1267b8" d="M 602.5,472.5 C 609.923,473.773 615.089,477.773 618,484.5C 621.718,523.749 623.551,563.082 623.5,602.5C 618.5,602.5 613.5,602.5 608.5,602.5C 608.667,576.831 608.5,551.165 608,525.5C 606.957,507.732 605.123,490.065 602.5,472.5 Z"/></g>
<g><path style="opacity:0.012" fill="#210800" d="M 629.5,485.5 C 630.833,486.167 630.833,486.167 629.5,485.5 Z"/></g>
<g><path style="opacity:0.012" fill="#210800" d="M 631.5,486.5 C 632.833,487.167 632.833,487.167 631.5,486.5 Z"/></g>
<g><path style="opacity:0.012" fill="#210800" d="M 633.5,487.5 C 634.833,488.167 634.833,488.167 633.5,487.5 Z"/></g>
<g><path style="opacity:0.012" fill="#210800" d="M 636.5,490.5 C 636.897,489.475 637.563,489.308 638.5,490C 637.906,490.464 637.239,490.631 636.5,490.5 Z"/></g>
<g><path style="opacity:0.012" fill="#210800" d="M 639.5,490.5 C 640.833,491.167 640.833,491.167 639.5,490.5 Z"/></g>
<g><path style="opacity:0.012" fill="#210800" d="M 105.5,492.5 C 105.897,491.475 106.563,491.308 107.5,492C 106.906,492.464 106.239,492.631 105.5,492.5 Z"/></g>
<g><path style="opacity:0.012" fill="#210800" d="M 105.5,492.5 C 105.5,492.833 105.5,493.167 105.5,493.5C 102.833,493.167 102.833,492.833 105.5,492.5 Z"/></g>
<g><path style="opacity:0.012" fill="#210800" d="M 643.5,493.5 C 643.897,492.475 644.563,492.308 645.5,493C 644.906,493.464 644.239,493.631 643.5,493.5 Z"/></g>
<g><path style="opacity:0.012" fill="#210800" d="M 102.5,494.5 C 101.761,494.631 101.094,494.464 100.5,494C 101.437,493.308 102.103,493.475 102.5,494.5 Z"/></g>
<g><path style="opacity:1" fill="#dead97" d="M 120.5,602.5 C 117.5,602.5 114.5,602.5 111.5,602.5C 108.372,591.909 103.872,581.909 98,572.5C 94.7462,565.491 93.4129,558.158 94,550.5C 95.7567,542.986 98.09,535.652 101,528.5C 101.877,521.751 101.544,515.084 100,508.5C 98.6704,504.993 96.1704,503.327 92.5,503.5C 103.852,501.153 114.519,496.82 124.5,490.5C 124.833,492.167 125.167,493.833 125.5,495.5C 122.748,531.119 121.081,566.785 120.5,602.5 Z"/></g>
<g><path style="opacity:1" fill="#dfae98" d="M 655.5,503.5 C 653.278,503.178 651.444,503.845 650,505.5C 646.126,513.527 645.459,521.861 648,530.5C 649.803,536.242 651.803,541.909 654,547.5C 655.171,555.776 654.171,563.776 651,571.5C 647.667,577.5 644.333,583.5 641,589.5C 638.91,593.599 637.744,597.933 637.5,602.5C 634.5,602.5 631.5,602.5 628.5,602.5C 628.21,567.436 626.543,532.436 623.5,497.5C 623.833,495.167 624.167,492.833 624.5,490.5C 634.226,496.621 644.56,500.954 655.5,503.5 Z"/></g>
<g><path style="opacity:0.012" fill="#210800" d="M 99.5,495.5 C 98.448,495.649 97.448,495.483 96.5,495C 97.7494,494.26 98.7494,494.427 99.5,495.5 Z"/></g>
<g><path style="opacity:0.012" fill="#210800" d="M 649.5,495.5 C 650.601,494.402 651.934,494.235 653.5,495C 652.207,495.49 650.873,495.657 649.5,495.5 Z"/></g>
<g><path style="opacity:0.012" fill="#210800" d="M 90.5,496.5 C 91.6009,495.402 92.9343,495.235 94.5,496C 93.2068,496.49 91.8734,496.657 90.5,496.5 Z"/></g>
<g><path style="opacity:0.012" fill="#210800" d="M 654.5,496.5 C 655.251,495.427 656.251,495.26 657.5,496C 656.552,496.483 655.552,496.649 654.5,496.5 Z"/></g>
<g><path style="opacity:0.012" fill="#210800" d="M 89.5,497.5 C 88.448,497.649 87.448,497.483 86.5,497C 87.7494,496.26 88.7494,496.427 89.5,497.5 Z"/></g>
<g><path style="opacity:0.012" fill="#210800" d="M 662.5,497.5 C 661.448,497.649 660.448,497.483 659.5,497C 660.749,496.26 661.749,496.427 662.5,497.5 Z"/></g>
<g><path style="opacity:0.012" fill="#210800" d="M 662.5,498.5 C 662.5,498.167 662.5,497.833 662.5,497.5C 666.5,497.833 666.5,498.167 662.5,498.5 Z"/></g>
<g><path style="opacity:0.012" fill="#210800" d="M 666.5,499.5 C 666.897,498.475 667.563,498.308 668.5,499C 667.906,499.464 667.239,499.631 666.5,499.5 Z"/></g>
<g><path style="opacity:0.012" fill="#210800" d="M 671.5,500.5 C 670.761,500.631 670.094,500.464 669.5,500C 670.437,499.308 671.103,499.475 671.5,500.5 Z"/></g>
<g><path style="opacity:0.012" fill="#210800" d="M 75.5,500.5 C 76.8333,501.167 76.8333,501.167 75.5,500.5 Z"/></g>
<g><path style="opacity:0.012" fill="#210800" d="M 671.5,501.5 C 671.5,501.167 671.5,500.833 671.5,500.5C 674.167,500.833 674.167,501.167 671.5,501.5 Z"/></g>
<g><path style="opacity:1" fill="#f1c3aa" d="M 655.5,503.5 C 666.24,505.368 676.24,509.202 685.5,515C 703.249,529.079 717.749,545.912 729,565.5C 735.592,577.112 740.092,589.446 742.5,602.5C 707.5,602.5 672.5,602.5 637.5,602.5C 637.744,597.933 638.91,593.599 641,589.5C 644.333,583.5 647.667,577.5 651,571.5C 654.171,563.776 655.171,555.776 654,547.5C 651.803,541.909 649.803,536.242 648,530.5C 645.459,521.861 646.126,513.527 650,505.5C 651.444,503.845 653.278,503.178 655.5,503.5 Z"/></g>
<g><path style="opacity:1" fill="#f1c3aa" d="M 92.5,503.5 C 96.1704,503.327 98.6704,504.993 100,508.5C 101.544,515.084 101.877,521.751 101,528.5C 98.09,535.652 95.7567,542.986 94,550.5C 93.4129,558.158 94.7462,565.491 98,572.5C 103.872,581.909 108.372,591.909 111.5,602.5C 76.5,602.5 41.5,602.5 6.5,602.5C 7.61329,595.657 9.44662,588.99 12,582.5C 20.1591,564.17 30.8258,547.504 44,532.5C 56.9066,517.3 73.0732,507.633 92.5,503.5 Z"/></g>
<g><path style="opacity:0.012" fill="#210800" d="M 682.5,505.5 C 683.833,506.167 683.833,506.167 682.5,505.5 Z"/></g>
<g><path style="opacity:0.012" fill="#210800" d="M 64.5,507.5 C 63.8333,506.167 63.8333,506.167 64.5,507.5 Z"/></g>
<g><path style="opacity:0.012" fill="#210800" d="M 684.5,506.5 C 685.833,507.167 685.833,507.167 684.5,506.5 Z"/></g>
<g><path style="opacity:0.012" fill="#210800" d="M 61.5,507.5 C 62.8333,508.167 62.8333,508.167 61.5,507.5 Z"/></g>
<g><path style="opacity:0.012" fill="#210800" d="M 686.5,507.5 C 687.833,508.167 687.833,508.167 686.5,507.5 Z"/></g>
<g><path style="opacity:0.012" fill="#210800" d="M 61.5,508.5 C 61.5,508.833 61.5,509.167 61.5,509.5C 60.8299,509.019 60.8299,508.685 61.5,508.5 Z"/></g>
<g><path style="opacity:0.012" fill="#210800" d="M 51.5,514.5 C 52.8333,515.167 52.8333,515.167 51.5,514.5 Z"/></g>
<g><path style="opacity:1" fill="#b7907c" d="M 424.5,517.5 C 441.005,516.173 457.671,516.173 474.5,517.5C 474.376,518.107 474.043,518.44 473.5,518.5C 457.342,517.504 441.009,517.17 424.5,517.5 Z"/></g>
<g><path style="opacity:0.012" fill="#210800" d="M 709.5,527.5 C 708.833,526.167 708.833,526.167 709.5,527.5 Z"/></g>
<g><path style="opacity:0.012" fill="#210800" d="M 709.5,527.5 C 710.167,527.5 710.5,527.833 710.5,528.5C 710.167,528.167 709.833,527.833 709.5,527.5 Z"/></g>
<g><path style="opacity:0.012" fill="#210800" d="M 710.5,528.5 C 711.833,529.167 711.833,529.167 710.5,528.5 Z"/></g>
<g><path style="opacity:0.012" fill="#210800" d="M 716.5,535.5 C 715.833,534.167 715.833,534.167 716.5,535.5 Z"/></g>
<g><path style="opacity:0.012" fill="#210800" d="M 716.5,535.5 C 717.833,536.167 717.833,536.167 716.5,535.5 Z"/></g>
<g><path style="opacity:0.012" fill="#210800" d="M 28.5,539.5 C 29.8333,540.167 29.8333,540.167 28.5,539.5 Z"/></g>
<g><path style="opacity:0.012" fill="#210800" d="M 25.5,543.5 C 26.8333,544.167 26.8333,544.167 25.5,543.5 Z"/></g>
<g><path style="opacity:0.012" fill="#210800" d="M 725.5,547.5 C 724.833,546.167 724.833,546.167 725.5,547.5 Z"/></g>
<g><path style="opacity:0.012" fill="#210800" d="M 725.5,547.5 C 726.833,548.167 726.833,548.167 725.5,547.5 Z"/></g>
<g><path style="opacity:0.012" fill="#210800" d="M 727.5,550.5 C 726.833,549.167 726.833,549.167 727.5,550.5 Z"/></g>
<g><path style="opacity:0.012" fill="#210800" d="M 727.5,550.5 C 728.833,551.167 728.833,551.167 727.5,550.5 Z"/></g>
<g><path style="opacity:0.012" fill="#210800" d="M 729.5,553.5 C 728.833,552.167 728.833,552.167 729.5,553.5 Z"/></g>
<g><path style="opacity:0.012" fill="#210800" d="M 729.5,553.5 C 730.833,554.167 730.833,554.167 729.5,553.5 Z"/></g>
<g><path style="opacity:0.012" fill="#210800" d="M 732.5,558.5 C 732.167,558.5 731.833,558.5 731.5,558.5C 731.833,555.833 732.167,555.833 732.5,558.5 Z"/></g>
<g><path style="opacity:0.012" fill="#210800" d="M 732.5,558.5 C 733.833,559.167 733.833,559.167 732.5,558.5 Z"/></g>
<g><path style="opacity:0.012" fill="#210800" d="M 733.5,560.5 C 734.833,561.167 734.833,561.167 733.5,560.5 Z"/></g>
<g><path style="opacity:0.012" fill="#210800" d="M 741.5,577.5 C 741.369,576.761 741.536,576.094 742,575.5C 742.692,576.437 742.525,577.103 741.5,577.5 Z"/></g>
<g><path style="opacity:0.012" fill="#210800" d="M 6.5,576.5 C 7.83333,577.167 7.83333,577.167 6.5,576.5 Z"/></g>
<g><path style="opacity:0.012" fill="#210800" d="M 743.5,582.5 C 743.369,581.761 743.536,581.094 744,580.5C 744.692,581.437 744.525,582.103 743.5,582.5 Z"/></g>
<g><path style="opacity:0.012" fill="#210800" d="M 4.5,585.5 C 3.47498,585.103 3.30831,584.437 4,583.5C 4.46434,584.094 4.63101,584.761 4.5,585.5 Z"/></g>
<g><path style="opacity:0.012" fill="#210800" d="M 744.5,585.5 C 744.369,584.761 744.536,584.094 745,583.5C 745.692,584.437 745.525,585.103 744.5,585.5 Z"/></g>
<g><path style="opacity:0.012" fill="#210800" d="M 3.5,588.5 C 2.47498,588.103 2.30831,587.437 3,586.5C 3.46434,587.094 3.63101,587.761 3.5,588.5 Z"/></g>
<g><path style="opacity:0.012" fill="#210800" d="M 745.5,588.5 C 745.369,587.761 745.536,587.094 746,586.5C 746.692,587.437 746.525,588.103 745.5,588.5 Z"/></g>
<g><path style="opacity:0.012" fill="#210800" d="M 1.5,589.5 C 2.52502,589.897 2.69169,590.563 2,591.5C 1.53566,590.906 1.36899,590.239 1.5,589.5 Z"/></g>
<g><path style="opacity:0.012" fill="#210800" d="M 746.5,591.5 C 746.369,590.761 746.536,590.094 747,589.5C 747.692,590.437 747.525,591.103 746.5,591.5 Z"/></g>
<g><path style="opacity:0.012" fill="#210800" d="M 1.5,595.5 C 0.426544,594.749 0.259877,593.749 1,592.5C 1.48278,593.448 1.64945,594.448 1.5,595.5 Z"/></g>
<g><path style="opacity:0.012" fill="#210800" d="M 747.5,595.5 C 747.351,594.448 747.517,593.448 748,592.5C 748.74,593.749 748.573,594.749 747.5,595.5 Z"/></g>
<g><path style="opacity:0.012" fill="#210800" d="M -0.5,596.5 C 0.833333,597.5 0.833333,598.5 -0.5,599.5C -0.5,598.5 -0.5,597.5 -0.5,596.5 Z"/></g>
<g><path style="opacity:0.012" fill="#210800" d="M 749.5,596.5 C 749.5,597.5 749.5,598.5 749.5,599.5C 749.167,599.5 748.833,599.5 748.5,599.5C 748.263,598.209 748.596,597.209 749.5,596.5 Z"/></g>
</svg>
