<?xml version="1.0" encoding="UTF-8"?>
<!DOCTYPE svg PUBLIC "-//W3C//DTD SVG 1.1//EN" "http://www.w3.org/Graphics/SVG/1.1/DTD/svg11.dtd">
<svg xmlns="http://www.w3.org/2000/svg" version="1.1" width="750px" height="543px" style="shape-rendering:geometricPrecision; text-rendering:geometricPrecision; image-rendering:optimizeQuality; fill-rule:evenodd; clip-rule:evenodd" xmlns:xlink="http://www.w3.org/1999/xlink">
<g><path style="opacity:0.938" fill="#1c0c02" d="M 358.5,-0.5 C 367.5,-0.5 376.5,-0.5 385.5,-0.5C 400.481,2.83039 414.815,8.16372 428.5,15.5C 429.659,17.2503 431.326,18.2503 433.5,18.5C 438.796,22.1539 444.129,25.8206 449.5,29.5C 449.5,30.1667 449.833,30.5 450.5,30.5C 459.76,37.0902 468.093,44.7568 475.5,53.5C 475.5,54.1667 475.833,54.5 476.5,54.5C 485.02,66.7362 491.02,80.0696 494.5,94.5C 496.121,106.436 496.787,118.436 496.5,130.5C 495.523,133.287 495.19,136.287 495.5,139.5C 494.539,141.265 494.205,143.265 494.5,145.5C 493.215,148.589 492.549,151.922 492.5,155.5C 490.733,159.908 490.233,164.574 491,169.5C 491.717,168.956 492.217,168.289 492.5,167.5C 493.492,167.672 494.158,167.338 494.5,166.5C 497.421,166.283 500.087,166.949 502.5,168.5C 502.5,169.167 502.833,169.5 503.5,169.5C 503.5,170.167 503.833,170.5 504.5,170.5C 508.246,178.325 508.413,186.325 505,194.5C 504.489,210.169 503.989,225.836 503.5,241.5C 502.549,242.919 502.216,244.585 502.5,246.5C 501.662,246.842 501.328,247.508 501.5,248.5C 500.662,248.842 500.328,249.508 500.5,250.5C 499.662,250.842 499.328,251.508 499.5,252.5C 498.833,252.5 498.5,252.833 498.5,253.5C 497.833,253.5 497.5,253.833 497.5,254.5C 496.833,254.5 496.5,254.833 496.5,255.5C 495.508,255.328 494.842,255.662 494.5,256.5C 490.5,256.833 490.5,257.167 494.5,257.5C 493.791,258.404 492.791,258.737 491.5,258.5C 491.664,261.187 491.497,263.854 491,266.5C 490.667,263.167 490.333,259.833 490,256.5C 489.016,265.826 488.182,275.159 487.5,284.5C 486.566,285.568 486.232,286.901 486.5,288.5C 485.566,289.568 485.232,290.901 485.5,292.5C 484.596,293.209 484.263,294.209 484.5,295.5C 483.596,296.209 483.263,297.209 483.5,298.5C 482.596,299.209 482.263,300.209 482.5,301.5C 481.662,301.842 481.328,302.508 481.5,303.5C 480.662,303.842 480.328,304.508 480.5,305.5C 479.662,305.842 479.328,306.508 479.5,307.5C 478.662,307.842 478.328,308.508 478.5,309.5C 477.662,309.842 477.328,310.508 477.5,311.5C 476.833,311.5 476.5,311.833 476.5,312.5C 475.662,312.842 475.328,313.508 475.5,314.5C 474.833,314.5 474.5,314.833 474.5,315.5C 473.2,331.055 473.7,346.722 476,362.5C 477.018,364.928 478.852,366.262 481.5,366.5C 481.842,367.338 482.508,367.672 483.5,367.5C 483.56,368.043 483.893,368.376 484.5,368.5C 485.386,367.675 485.719,366.675 485.5,365.5C 487.199,360.658 490.699,358.324 496,358.5C 502.246,360.193 508.413,362.193 514.5,364.5C 526.787,371.31 539.453,377.643 552.5,383.5C 554.792,385.267 557.458,386.267 560.5,386.5C 568.089,388.484 575.756,390.651 583.5,393C 593.436,398.801 603.769,403.801 614.5,408C 618.594,411.045 621.594,414.878 623.5,419.5C 628.847,423.844 634.847,427.177 641.5,429.5C 642.209,430.404 643.209,430.737 644.5,430.5C 646.102,432.074 648.102,432.741 650.5,432.5C 674.216,436.944 694.05,448.278 710,466.5C 713.519,470.903 717.019,475.237 720.5,479.5C 720.5,480.167 720.833,480.5 721.5,480.5C 733.734,497.634 742.734,516.3 748.5,536.5C 748.5,538.5 748.5,540.5 748.5,542.5C 746.833,542.5 745.167,542.5 743.5,542.5C 734.551,504.088 714.218,473.255 682.5,450C 674.078,445.137 665.078,441.971 655.5,440.5C 644.686,437.601 634.352,433.268 624.5,427.5C 624.167,429.833 623.833,432.167 623.5,434.5C 626.44,470.443 628.106,506.443 628.5,542.5C 626.833,542.5 625.167,542.5 623.5,542.5C 623.736,502.076 621.902,461.742 618,421.5C 617.394,418.452 615.894,415.952 613.5,414C 604.83,410.332 596.497,406.165 588.5,401.5C 576.932,396.481 564.932,392.647 552.5,390C 543.659,386.078 534.992,381.912 526.5,377.5C 526.44,376.957 526.107,376.624 525.5,376.5C 524.504,382.463 524.171,388.463 524.5,394.5C 523.138,434.181 510.305,469.515 486,500.5C 477.857,509.637 468.69,517.47 458.5,524C 452.237,529.757 446.57,535.924 441.5,542.5C 439.5,542.5 437.5,542.5 435.5,542.5C 444.69,529.478 456.023,518.644 469.5,510C 497.165,484.172 513.332,452.338 518,414.5C 520.088,400.896 520.755,387.23 520,373.5C 512.014,369.758 503.847,366.425 495.5,363.5C 492.698,363.971 491.364,365.638 491.5,368.5C 499.581,422.439 482.915,466.939 441.5,502C 424.691,512.643 410.691,526.143 399.5,542.5C 397.5,542.5 395.5,542.5 393.5,542.5C 404.668,525.165 419.002,510.999 436.5,500C 451.932,487.075 464.598,471.908 474.5,454.5C 457.51,453.334 440.51,453.167 423.5,454C 413.28,455.859 404.78,460.692 398,468.5C 404.457,457.493 414.291,451.326 427.5,450C 444.177,449.833 460.843,449.333 477.5,448.5C 487.597,425.155 491.264,400.822 488.5,375.5C 484.5,374.167 480.5,372.833 476.5,371.5C 476.13,380.232 474.63,380.565 472,372.5C 470.666,363.162 469.499,353.828 468.5,344.5C 468.041,337.488 467.374,330.488 466.5,323.5C 453.043,335.123 440.376,347.623 428.5,361C 412.247,373.528 393.747,379.028 373,377.5C 346.71,379.024 326.71,368.69 313,346.5C 302.309,336.809 291.976,326.809 282,316.5C 281.5,325.827 281.334,335.161 281.5,344.5C 280.948,355.433 279.781,366.433 278,377.5C 277.333,378.167 276.667,378.833 276,379.5C 274.908,376.956 274.241,374.289 274,371.5C 269.503,374.749 264.837,377.749 260,380.5C 258.025,404.182 261.859,426.849 271.5,448.5C 287.49,449.333 303.49,449.833 319.5,450C 332.074,451.037 342.574,456.204 351,465.5C 351.667,466.167 351.667,466.833 351,467.5C 343.188,459.511 333.688,455.178 322.5,454.5C 306.662,453.173 290.662,453.173 274.5,454.5C 274.624,455.107 274.957,455.44 275.5,455.5C 283.306,470.493 293.639,483.66 306.5,495C 322.202,505.698 336.368,518.198 349,532.5C 351.619,535.406 353.453,538.739 354.5,542.5C 352.833,542.5 351.167,542.5 349.5,542.5C 338.641,526.476 324.975,513.309 308.5,503C 266.206,467.543 249.206,422.376 257.5,367.5C 257.101,364.935 255.601,363.601 253,363.5C 244.835,366.444 236.835,369.777 229,373.5C 226.949,410.34 234.616,445.006 252,477.5C 263.456,495.289 277.956,510.123 295.5,522C 302.454,528.112 308.454,534.946 313.5,542.5C 311.5,542.5 309.5,542.5 307.5,542.5C 298.583,530.749 287.916,520.916 275.5,513C 253.106,492.391 238.272,467.224 231,437.5C 227.574,423.351 225.407,409.018 224.5,394.5C 224.5,388.5 224.5,382.5 224.5,376.5C 223.209,376.263 222.209,376.596 221.5,377.5C 204.684,387.406 186.684,394.24 167.5,398C 164.609,399.274 161.942,400.774 159.5,402.5C 152.764,406.201 145.764,409.367 138.5,412C 134.942,413.892 132.442,416.725 131,420.5C 127.245,461.084 125.079,501.751 124.5,542.5C 123.167,542.5 121.833,542.5 120.5,542.5C 120.446,505.088 122.112,467.755 125.5,430.5C 125.167,429.5 124.833,428.5 124.5,427.5C 114.176,433.839 103.176,438.172 91.5,440.5C 71.4749,445.101 54.9749,455.435 42,471.5C 29.1484,486.522 18.8151,503.189 11,521.5C 8.6491,528.382 6.81576,535.382 5.5,542.5C 3.83333,542.5 2.16667,542.5 0.5,542.5C 0.5,540.5 0.5,538.5 0.5,536.5C 3.48882,525.543 7.48882,514.877 12.5,504.5C 16.4854,497.869 20.4854,491.202 24.5,484.5C 25.1667,484.5 25.5,484.167 25.5,483.5C 28.8024,479.191 32.1357,474.857 35.5,470.5C 36.1667,470.5 36.5,470.167 36.5,469.5C 52.5584,449.47 73.2251,437.136 98.5,432.5C 108.397,430.052 117.397,425.718 125.5,419.5C 126.875,415.911 128.875,412.744 131.5,410C 140.909,406.129 149.909,401.462 158.5,396C 170.972,391.382 183.639,387.382 196.5,384C 213.346,374.576 230.679,366.243 248.5,359C 256.088,356.793 261.088,359.293 263.5,366.5C 262.489,368.402 262.322,370.402 263,372.5C 263.717,371.956 264.217,371.289 264.5,370.5C 265.492,370.672 266.158,370.338 266.5,369.5C 271.093,368.128 273.926,365.128 275,360.5C 275.667,345.5 275.667,330.5 275,315.5C 274.823,311.644 274.323,307.977 273.5,304.5C 273.34,302.847 272.674,301.514 271.5,300.5C 271.34,298.847 270.674,297.514 269.5,296.5C 267.81,290.397 266.144,284.397 264.5,278.5C 264.283,274.295 263.617,270.295 262.5,266.5C 262.802,263.941 262.468,261.607 261.5,259.5C 261.668,256.316 260.334,255.816 257.5,258C 258.737,258.232 259.737,258.732 260.5,259.5C 258.143,259.663 255.81,259.497 253.5,259C 254.5,258.667 255.5,258.333 256.5,258C 254.146,257.153 251.812,256.32 249.5,255.5C 247.804,253.475 246.137,251.475 244.5,249.5C 244.768,247.901 244.434,246.568 243.5,245.5C 243.784,243.585 243.451,241.919 242.5,240.5C 241.822,230.991 240.822,221.657 239.5,212.5C 239.802,209.941 239.468,207.607 238.5,205.5C 238.784,203.585 238.451,201.919 237.5,200.5C 237.784,198.585 237.451,196.919 236.5,195.5C 234.858,189.956 233.858,184.29 233.5,178.5C 236.871,168.984 243.204,166.318 252.5,170.5C 250.129,162.401 247.796,154.401 245.5,146.5C 245.806,143.615 245.473,140.948 244.5,138.5C 244.334,125.149 244.667,111.815 245.5,98.5C 247.503,90.5016 249.837,82.5016 252.5,74.5C 256.154,66.526 260.821,59.1927 266.5,52.5C 267.167,52.5 267.5,52.1667 267.5,51.5C 271.167,48.5 274.5,45.1667 277.5,41.5C 278.167,41.5 278.5,41.1667 278.5,40.5C 301.337,19.4144 328.004,5.74771 358.5,-0.5 Z M 261.5,259.5 C 261.167,259.5 260.833,259.5 260.5,259.5C 259.737,258.732 258.737,258.232 257.5,258C 260.334,255.816 261.668,256.316 261.5,259.5 Z M 484.5,365.5 C 484.833,365.5 485.167,365.5 485.5,365.5C 485.719,366.675 485.386,367.675 484.5,368.5C 483.893,368.376 483.56,368.043 483.5,367.5C 484.338,367.158 484.672,366.492 484.5,365.5 Z"/></g>
<g><path style="opacity:0.016" fill="#170000" d="M 324.5,8.5 C 324.897,7.47498 325.563,7.30831 326.5,8C 325.906,8.46434 325.239,8.63101 324.5,8.5 Z"/></g>
<g><path style="opacity:0.02" fill="#270700" d="M 428.5,14.5 C 429.833,15.1667 429.833,15.1667 428.5,14.5 Z"/></g>
<g><path style="opacity:0.016" fill="#1d0000" d="M 309.5,15.5 C 310.833,16.1667 310.833,16.1667 309.5,15.5 Z"/></g>
<g><path style="opacity:0.016" fill="#1d0000" d="M 430.5,15.5 C 431.833,16.1667 431.833,16.1667 430.5,15.5 Z"/></g>
<g><path style="opacity:0.02" fill="#270700" d="M 433.5,17.5 C 434.833,18.1667 434.833,18.1667 433.5,17.5 Z"/></g>
<g><path style="opacity:0.016" fill="#1d0000" d="M 304.5,18.5 C 305.833,19.1667 305.833,19.1667 304.5,18.5 Z"/></g>
<g><path style="opacity:0.016" fill="#1d0000" d="M 435.5,18.5 C 436.833,19.1667 436.833,19.1667 435.5,18.5 Z"/></g>
<g><path style="opacity:0.005" fill="#0d0100" d="M 449.5,29.5 C 450.497,28.2875 451.497,28.4542 452.5,30C 451.906,30.4643 451.239,30.631 450.5,30.5C 449.833,30.5 449.5,30.1667 449.5,29.5 Z"/></g>
<g><path style="opacity:1" fill="#8f5137" d="M 391.5,34.5 C 405.801,55.238 412.967,78.238 413,103.5C 411.855,116.102 408.021,127.769 401.5,138.5C 400.18,139.942 398.514,140.608 396.5,140.5C 391.029,140.353 386.363,142.02 382.5,145.5C 381.489,149.112 381.322,152.779 382,156.5C 384.663,166.817 387.163,177.15 389.5,187.5C 389.254,189.78 389.254,191.78 389.5,193.5C 390.086,193.291 390.586,192.957 391,192.5C 391.333,189.167 391.667,185.833 392,182.5C 396.426,187.576 401.926,191.076 408.5,193C 429.726,200.826 449.726,198.66 468.5,186.5C 470.134,186.968 471.3,187.968 472,189.5C 475.626,198.635 476.293,207.968 474,217.5C 470.837,225.024 465.337,230.191 457.5,233C 452.426,236.979 449.259,242.146 448,248.5C 447.667,263.5 447.333,278.5 447,293.5C 444.798,302.915 440.298,310.915 433.5,317.5C 434.516,304.85 434.682,292.183 434,279.5C 432.528,273.016 429.028,267.849 423.5,264C 414.506,258.003 404.839,253.337 394.5,250C 387.934,249.473 381.434,249.973 375,251.5C 368.846,249.497 362.679,249.331 356.5,251C 341.885,255.371 330.051,263.538 321,275.5C 319.897,281.756 319.397,288.089 319.5,294.5C 319.746,307.222 320.746,319.889 322.5,332.5C 322.218,338.028 321.551,343.361 320.5,348.5C 316.745,343.24 312.411,338.406 307.5,334C 287.304,319.464 274.804,299.964 270,275.5C 267.898,256.346 264.898,237.346 261,218.5C 260.375,207.99 260.542,197.49 261.5,187C 261.477,181.911 260.811,176.911 259.5,172C 262.208,150.878 268.708,131.045 279,112.5C 279.899,98.1385 281.233,83.8052 283,69.5C 284.232,64.5948 286.732,60.4281 290.5,57C 321.478,37.9685 355.145,30.4685 391.5,34.5 Z"/></g>
<g><path style="opacity:1" fill="#7e432d" d="M 391.5,34.5 C 412.316,35.4536 431.983,40.6202 450.5,50C 452,51.5 453.5,53 455,54.5C 463.423,71.5243 468.089,89.5243 469,108.5C 475.726,123.679 481.06,139.345 485,155.5C 485.426,160.34 485.26,165.173 484.5,170C 486.928,182.567 488.595,195.234 489.5,208C 486.069,233.757 483.236,259.59 481,285.5C 478.555,295.501 474.555,304.835 469,313.5C 457.37,324.726 445.87,336.059 434.5,347.5C 433.532,345.393 433.198,343.059 433.5,340.5C 433.442,332.525 433.442,324.859 433.5,317.5C 440.298,310.915 444.798,302.915 447,293.5C 447.333,278.5 447.667,263.5 448,248.5C 449.259,242.146 452.426,236.979 457.5,233C 465.337,230.191 470.837,225.024 474,217.5C 476.293,207.968 475.626,198.635 472,189.5C 471.3,187.968 470.134,186.968 468.5,186.5C 449.726,198.66 429.726,200.826 408.5,193C 401.926,191.076 396.426,187.576 392,182.5C 391.667,185.833 391.333,189.167 391,192.5C 390.586,192.957 390.086,193.291 389.5,193.5C 389.254,191.78 389.254,189.78 389.5,187.5C 390.645,183.689 390.812,179.689 390,175.5C 387.464,165.357 384.964,155.357 382.5,145.5C 386.363,142.02 391.029,140.353 396.5,140.5C 395.321,143.371 395.321,146.204 396.5,149C 407.742,149.153 418.742,147.487 429.5,144C 436.167,143.333 442.833,143.333 449.5,144C 454.167,146.667 458.833,149.333 463.5,152C 467.714,153.162 469.548,151.662 469,147.5C 467.254,143.673 465.254,140.007 463,136.5C 452.786,129.821 441.619,127.654 429.5,130C 424.961,131.216 420.294,132.216 415.5,133C 410.912,135.138 406.245,136.972 401.5,138.5C 408.021,127.769 411.855,116.102 413,103.5C 412.967,78.238 405.801,55.238 391.5,34.5 Z"/></g>
<g><path style="opacity:0.005" fill="#080000" d="M 278.5,40.5 C 277.833,40.5 277.5,40.8333 277.5,41.5C 275.025,41.2533 275.025,40.5866 277.5,39.5C 278.107,39.6236 278.44,39.9569 278.5,40.5 Z"/></g>
<g><path style="opacity:0.005" fill="#080000" d="M 267.5,51.5 C 266.833,51.5 266.5,51.8333 266.5,52.5C 265.287,51.5029 265.454,50.5029 267,49.5C 267.464,50.0944 267.631,50.7611 267.5,51.5 Z"/></g>
<g><path style="opacity:0.005" fill="#0d0100" d="M 476.5,54.5 C 475.833,54.5 475.5,54.1667 475.5,53.5C 475.747,51.0248 476.413,51.0248 477.5,53.5C 477.376,54.1067 477.043,54.44 476.5,54.5 Z"/></g>
<g><path style="opacity:0.016" fill="#170000" d="M 252.5,74.5 C 252.167,74.5 251.833,74.5 251.5,74.5C 251.833,71.8333 252.167,71.8333 252.5,74.5 Z"/></g>
<g><path style="opacity:0.016" fill="#170000" d="M 251.5,74.5 C 251.631,75.2389 251.464,75.9056 251,76.5C 250.308,75.5632 250.475,74.8966 251.5,74.5 Z"/></g>
<g><path style="opacity:0.016" fill="#1a0000" d="M 495.5,94.5 C 495.167,94.5 494.833,94.5 494.5,94.5C 494.833,89.1667 495.167,89.1667 495.5,94.5 Z"/></g>
<g><path style="opacity:0.016" fill="#180000" d="M 245.5,98.5 C 244.387,97.0536 244.22,95.3869 245,93.5C 245.494,95.1341 245.66,96.8008 245.5,98.5 Z"/></g>
<g><path style="opacity:0.016" fill="#180000" d="M 495.5,94.5 C 496.613,95.9464 496.78,97.6131 496,99.5C 495.506,97.8659 495.34,96.1992 495.5,94.5 Z"/></g>
<g><path style="opacity:0.016" fill="#180000" d="M 243.5,99.5 C 244.622,101.288 244.789,103.288 244,105.5C 243.505,103.527 243.338,101.527 243.5,99.5 Z"/></g>
<g><path style="opacity:0.016" fill="#1b0000" d="M 243.5,138.5 C 242.341,128.008 242.175,117.341 243,106.5C 243.5,117.161 243.667,127.828 243.5,138.5 Z"/></g>
<g><path style="opacity:0.016" fill="#180000" d="M 497.5,130.5 C 497.334,122.826 497.5,115.159 498,107.5C 498.822,115.345 498.656,123.011 497.5,130.5 Z"/></g>
<g><path style="opacity:1" fill="#1b0b00" d="M 396.5,140.5 C 398.514,140.608 400.18,139.942 401.5,138.5C 406.245,136.972 410.912,135.138 415.5,133C 420.294,132.216 424.961,131.216 429.5,130C 441.619,127.654 452.786,129.821 463,136.5C 465.254,140.007 467.254,143.673 469,147.5C 469.548,151.662 467.714,153.162 463.5,152C 458.833,149.333 454.167,146.667 449.5,144C 442.833,143.333 436.167,143.333 429.5,144C 418.742,147.487 407.742,149.153 396.5,149C 395.321,146.204 395.321,143.371 396.5,140.5 Z"/></g>
<g><path style="opacity:0.016" fill="#180000" d="M 496.5,130.5 C 496.833,130.5 497.167,130.5 497.5,130.5C 497.81,133.713 497.477,136.713 496.5,139.5C 496.5,136.5 496.5,133.5 496.5,130.5 Z"/></g>
<g><path style="opacity:1" fill="#1b0c00" d="M 357.5,145.5 C 357.822,147.722 357.155,149.556 355.5,151C 353.153,151.436 350.819,151.936 348.5,152.5C 334.542,147.742 320.209,145.909 305.5,147C 300.314,148.933 295.647,151.6 291.5,155C 288.836,156.513 286.17,156.68 283.5,155.5C 285.902,142.933 293.569,135.433 306.5,133C 318.956,132.888 331.29,134.222 343.5,137C 348.873,138.915 353.54,141.748 357.5,145.5 Z"/></g>
<g><path style="opacity:0.016" fill="#170000" d="M 243.5,138.5 C 243.833,138.5 244.167,138.5 244.5,138.5C 244.5,141.167 244.5,143.833 244.5,146.5C 243.527,144.052 243.194,141.385 243.5,138.5 Z"/></g>
<g><path style="opacity:0.016" fill="#150000" d="M 495.5,139.5 C 495.833,139.5 496.167,139.5 496.5,139.5C 496.795,141.735 496.461,143.735 495.5,145.5C 495.5,143.5 495.5,141.5 495.5,139.5 Z"/></g>
<g><path style="opacity:1" fill="#7d422c" d="M 357.5,145.5 C 358.158,146.793 358.492,148.293 358.5,150C 357.724,155.32 357.058,160.654 356.5,166C 360.555,187.615 351.555,197.615 329.5,196C 324.747,195.383 320.08,194.383 315.5,193C 303.101,192.634 290.768,192.468 278.5,192.5C 281.673,190.413 285.006,188.579 288.5,187C 290.019,185.649 291.352,184.149 292.5,182.5C 289.14,178.307 285.973,173.974 283,169.5C 280.967,164.639 281.134,159.973 283.5,155.5C 286.17,156.68 288.836,156.513 291.5,155C 295.647,151.6 300.314,148.933 305.5,147C 320.209,145.909 334.542,147.742 348.5,152.5C 350.819,151.936 353.153,151.436 355.5,151C 357.155,149.556 357.822,147.722 357.5,145.5 Z"/></g>
<g><path style="opacity:0.016" fill="#170000" d="M 494.5,145.5 C 494.833,145.5 495.167,145.5 495.5,145.5C 495.167,152.167 494.833,152.167 494.5,145.5 Z"/></g>
<g><path style="opacity:0.016" fill="#170000" d="M 244.5,146.5 C 244.833,146.5 245.167,146.5 245.5,146.5C 245.167,153.167 244.833,153.167 244.5,146.5 Z"/></g>
<g><path style="opacity:0.016" fill="#1a0000" d="M 493.5,155.5 C 493.343,154.127 493.51,152.793 494,151.5C 494.765,153.066 494.598,154.399 493.5,155.5 Z"/></g>
<g><path style="opacity:0.016" fill="#170000" d="M 492.5,155.5 C 492.833,155.5 493.167,155.5 493.5,155.5C 493.167,162.167 492.833,162.167 492.5,155.5 Z"/></g>
<g><path style="opacity:1" fill="#120700" d="M 420.5,158.5 C 432.021,156.888 442.687,159.054 452.5,165C 447.57,163.849 442.57,162.516 437.5,161C 428.617,159.865 419.951,160.698 411.5,163.5C 410.304,163.154 410.304,162.654 411.5,162C 414.598,160.772 417.598,159.606 420.5,158.5 Z"/></g>
<g><path style="opacity:1" fill="#1e1108" d="M 423.5,161.5 C 435.385,161.018 446.052,164.351 455.5,171.5C 450.486,175.339 444.819,177.505 438.5,178C 426.446,178.567 414.446,178.067 402.5,176.5C 402.351,175.448 402.517,174.448 403,173.5C 408.793,167.502 415.626,163.502 423.5,161.5 Z"/></g>
<g><path style="opacity:0.016" fill="#1d0000" d="M 494.5,166.5 C 493.508,166.328 492.842,166.662 492.5,167.5C 491.378,165.712 491.211,163.712 492,161.5C 492.335,163.503 493.168,165.17 494.5,166.5 Z"/></g>
<g><path style="opacity:1" fill="#100600" d="M 315.5,160.5 C 324.785,159.74 333.785,160.907 342.5,164C 333.946,162.586 325.28,162.253 316.5,163C 311.079,163.779 306.079,165.613 301.5,168.5C 300.707,167.645 301.04,166.811 302.5,166C 306.717,163.549 311.05,161.715 315.5,160.5 Z"/></g>
<g><path style="opacity:1" fill="#1c0f07" d="M 334.5,180.5 C 329.5,180.5 324.5,180.5 319.5,180.5C 311.764,180.895 305.097,178.561 299.5,173.5C 317.678,159.545 335.178,160.211 352,175.5C 352.684,176.784 352.517,177.951 351.5,179C 348.482,179.499 345.482,179.332 342.5,178.5C 339.614,178.804 336.948,179.471 334.5,180.5 Z"/></g>
<g><path style="opacity:1" fill="#7c7977" d="M 445.5,170.5 C 442.81,169.454 440.143,168.454 437.5,167.5C 437.784,169.415 437.451,171.081 436.5,172.5C 436.5,170.167 436.5,167.833 436.5,165.5C 438.927,165.523 441.26,166.023 443.5,167C 444.823,167.816 445.489,168.983 445.5,170.5 Z"/></g>
<g><path style="opacity:1" fill="#190a01" d="M 382.5,145.5 C 384.964,155.357 387.464,165.357 390,175.5C 390.812,179.689 390.645,183.689 389.5,187.5C 387.163,177.15 384.663,166.817 382,156.5C 381.322,152.779 381.489,149.112 382.5,145.5 Z"/></g>
<g><path style="opacity:0.005" fill="#000000" d="M 502.5,168.5 C 502.897,167.475 503.563,167.308 504.5,168C 505.774,168.977 505.774,169.811 504.5,170.5C 503.833,170.5 503.5,170.167 503.5,169.5C 502.833,169.5 502.5,169.167 502.5,168.5 Z"/></g>
<g><path style="opacity:1" fill="#777472" d="M 317.5,174.5 C 316.566,173.432 316.232,172.099 316.5,170.5C 313.673,170.584 311.006,171.25 308.5,172.5C 310.929,169.121 314.263,167.621 318.5,168C 317.577,170.041 317.244,172.208 317.5,174.5 Z"/></g>
<g><path style="opacity:1" fill="#6f6c69" d="M 341.5,176.5 C 342.398,175.842 343.398,175.176 344.5,174.5C 341.852,172.342 338.852,171.008 335.5,170.5C 335.768,172.099 335.434,173.432 334.5,174.5C 334.5,172.167 334.5,169.833 334.5,167.5C 338.187,168.176 341.52,169.676 344.5,172C 345.38,173.356 345.714,174.856 345.5,176.5C 344.167,176.5 342.833,176.5 341.5,176.5 Z"/></g>
<g><path style="opacity:1" fill="#7b7977" d="M 419.5,172.5 C 418.71,171.391 418.21,170.058 418,168.5C 415.808,169.399 413.642,170.399 411.5,171.5C 410.702,171.957 410.369,172.624 410.5,173.5C 409.427,172.749 409.26,171.749 410,170.5C 412.586,168.455 415.42,166.789 418.5,165.5C 419.474,167.743 419.808,170.076 419.5,172.5 Z"/></g>
<g><path style="opacity:1" fill="#dedddd" d="M 423.5,167.5 C 426.861,168.203 427.194,169.537 424.5,171.5C 422.358,170.563 422.024,169.23 423.5,167.5 Z"/></g>
<g><path style="opacity:1" fill="#ebeaea" d="M 445.5,170.5 C 445.703,172.39 445.037,173.89 443.5,175C 441.302,175.373 439.135,175.873 437,176.5C 436.5,176.167 436,175.833 435.5,175.5C 436.127,174.583 436.461,173.583 436.5,172.5C 437.451,171.081 437.784,169.415 437.5,167.5C 440.143,168.454 442.81,169.454 445.5,170.5 Z"/></g>
<g><path style="opacity:1" fill="#3f1108" d="M 329.5,170.5 C 331.559,169.354 332.559,170.187 332.5,173C 331.594,176.78 329.094,178.613 325,178.5C 323.029,178.532 321.529,177.698 320.5,176C 323.167,176 325.833,176 328.5,176C 330.553,174.322 330.887,172.489 329.5,170.5 Z"/></g>
<g><path style="opacity:1" fill="#eae9e9" d="M 419.5,172.5 C 419.5,173.5 419.5,174.5 419.5,175.5C 416.461,174.99 413.461,174.323 410.5,173.5C 410.369,172.624 410.702,171.957 411.5,171.5C 413.642,170.399 415.808,169.399 418,168.5C 418.21,170.058 418.71,171.391 419.5,172.5 Z"/></g>
<g><path style="opacity:1" fill="#e9e8e7" d="M 317.5,174.5 C 317.539,175.583 317.873,176.583 318.5,177.5C 315.861,178.356 313.194,178.19 310.5,177C 308.963,175.89 308.297,174.39 308.5,172.5C 311.006,171.25 313.673,170.584 316.5,170.5C 316.232,172.099 316.566,173.432 317.5,174.5 Z"/></g>
<g><path style="opacity:1" fill="#dfdfde" d="M 320.5,170.5 C 321.833,170.5 323.167,170.5 324.5,170.5C 324.5,171.5 324.5,172.5 324.5,173.5C 323.167,173.5 321.833,173.5 320.5,173.5C 320.5,172.5 320.5,171.5 320.5,170.5 Z"/></g>
<g><path style="opacity:1" fill="#f0efef" d="M 341.5,176.5 C 339.236,177.219 336.903,177.552 334.5,177.5C 334.5,176.5 334.5,175.5 334.5,174.5C 335.434,173.432 335.768,172.099 335.5,170.5C 338.852,171.008 341.852,172.342 344.5,174.5C 343.398,175.176 342.398,175.842 341.5,176.5 Z"/></g>
<g><path style="opacity:0.016" fill="#190000" d="M 233.5,178.5 C 233.167,178.5 232.833,178.5 232.5,178.5C 232.833,174.5 233.167,174.5 233.5,178.5 Z"/></g>
<g><path style="opacity:1" fill="#894d34" d="M 242.5,174.5 C 247.209,175.103 251.709,176.437 256,178.5C 256.667,184.833 256.667,191.167 256,197.5C 252.822,189.818 248.156,183.152 242,177.5C 241.53,176.423 241.697,175.423 242.5,174.5 Z"/></g>
<g><path style="opacity:0.007" fill="#000000" d="M 232.5,178.5 C 232.662,180.527 232.495,182.527 232,184.5C 231.211,182.288 231.378,180.288 232.5,178.5 Z"/></g>
<g><path style="opacity:1" fill="#4e2818" d="M 319.5,180.5 C 324.5,180.5 329.5,180.5 334.5,180.5C 335.404,181.209 335.737,182.209 335.5,183.5C 336.873,183.343 338.207,183.51 339.5,184C 336.857,185.436 334.19,185.602 331.5,184.5C 332.5,183.667 333.5,182.833 334.5,182C 329.316,181.826 324.316,181.326 319.5,180.5 Z"/></g>
<g><path style="opacity:1" fill="#31190e" d="M 413.5,180.5 C 417.294,179.81 420.961,180.643 424.5,183C 422.5,183.667 420.5,183.667 418.5,183C 416.97,181.88 415.303,181.046 413.5,180.5 Z"/></g>
<g><path style="opacity:1" fill="#79402b" d="M 256.5,223.5 C 253.109,219.072 249.942,214.406 247,209.5C 246.503,212.146 246.336,214.813 246.5,217.5C 245.557,207.044 243.391,196.711 240,186.5C 239.182,183.773 239.348,181.106 240.5,178.5C 251.182,191.544 256.516,206.544 256.5,223.5 Z"/></g>
<g><path style="opacity:0.016" fill="#190000" d="M 508.5,175.5 C 509.645,179.311 509.812,183.311 509,187.5C 508.501,183.514 508.334,179.514 508.5,175.5 Z"/></g>
<g><path style="opacity:0.016" fill="#1a0000" d="M 232.5,185.5 C 233.598,186.601 233.765,187.934 233,189.5C 232.51,188.207 232.343,186.873 232.5,185.5 Z"/></g>
<g><path style="opacity:1" fill="#7e442e" d="M 494.5,172.5 C 499.681,172.85 502.348,175.683 502.5,181C 501.723,185.943 500.556,190.776 499,195.5C 498.6,211.511 497.933,227.511 497,243.5C 496.317,248.013 493.817,250.68 489.5,251.5C 491.436,234.546 492.936,217.546 494,200.5C 495.431,192.566 497.431,184.899 500,177.5C 496.736,181.028 494.236,185.028 492.5,189.5C 491.823,185.407 490.823,181.407 489.5,177.5C 491.521,176.145 493.188,174.479 494.5,172.5 Z"/></g>
<g><path style="opacity:0.006" fill="#0b0000" d="M 236.5,195.5 C 236.5,197.167 236.5,198.833 236.5,200.5C 235.167,198.833 235.167,197.167 236.5,195.5 Z"/></g>
<g><path style="opacity:0.006" fill="#0f0000" d="M 236.5,200.5 C 236.833,200.5 237.167,200.5 237.5,200.5C 237.5,202.167 237.5,203.833 237.5,205.5C 236.549,204.081 236.216,202.415 236.5,200.5 Z"/></g>
<g><path style="opacity:0.016" fill="#160000" d="M 237.5,205.5 C 237.833,205.5 238.167,205.5 238.5,205.5C 238.5,207.833 238.5,210.167 238.5,212.5C 237.532,210.393 237.198,208.059 237.5,205.5 Z"/></g>
<g><path style="opacity:1" fill="#7c422c" d="M 396.5,210.5 C 395.957,210.56 395.624,210.893 395.5,211.5C 396.333,213.167 397.167,214.833 398,216.5C 402.418,220.247 406.084,224.58 409,229.5C 410.109,235.851 407.942,240.684 402.5,244C 403.448,244.483 404.448,244.649 405.5,244.5C 404.207,245.158 402.707,245.492 401,245.5C 397.729,245.279 394.563,244.612 391.5,243.5C 387.53,245.111 383.53,246.778 379.5,248.5C 374.333,247.334 369.333,245.667 364.5,243.5C 360.622,244.688 356.788,246.022 353,247.5C 349.545,247.37 347.378,245.704 346.5,242.5C 352.226,245.392 352.726,244.725 348,240.5C 346.566,236.594 346.233,232.594 347,228.5C 349.333,224.167 351.667,219.833 354,215.5C 354.74,214.251 354.573,213.251 353.5,212.5C 353.971,211.099 354.638,209.766 355.5,208.5C 356.5,209.833 357.5,209.833 358.5,208.5C 359.167,212.5 359.833,216.5 360.5,220.5C 362.5,218.5 364.5,216.5 366.5,214.5C 368.277,228.514 375.943,233.014 389.5,228C 394.069,225.459 395.569,221.625 394,216.5C 392.077,212.742 389.577,209.409 386.5,206.5C 386.833,206.167 387.167,205.833 387.5,205.5C 389.638,206.243 391.804,206.91 394,207.5C 395.31,208.13 396.144,209.13 396.5,210.5 Z"/></g>
<g><path style="opacity:0.016" fill="#170000" d="M 238.5,212.5 C 238.833,212.5 239.167,212.5 239.5,212.5C 239.167,227.167 238.833,227.167 238.5,212.5 Z"/></g>
<g><path style="opacity:1" fill="#8b4e35" d="M 256.5,223.5 C 259.474,232.514 260.807,241.681 260.5,251C 255.572,252.643 252.072,251.143 250,246.5C 247.843,236.965 246.676,227.298 246.5,217.5C 246.336,214.813 246.503,212.146 247,209.5C 249.942,214.406 253.109,219.072 256.5,223.5 Z"/></g>
<g><path style="opacity:0.016" fill="#190000" d="M 239.5,224.5 C 240.643,227.976 240.81,231.642 240,235.5C 239.501,231.848 239.335,228.182 239.5,224.5 Z"/></g>
<g><path style="opacity:1" fill="#190a01" d="M 353.5,212.5 C 354.573,213.251 354.74,214.251 354,215.5C 351.667,219.833 349.333,224.167 347,228.5C 346.233,232.594 346.566,236.594 348,240.5C 352.726,244.725 352.226,245.392 346.5,242.5C 343.765,237.508 342.932,232.175 344,226.5C 346.606,221.405 349.772,216.738 353.5,212.5 Z"/></g>
<g><path style="opacity:1" fill="#180901" d="M 396.5,210.5 C 400.497,215.33 404.997,219.664 410,223.5C 414.256,231.847 412.756,238.847 405.5,244.5C 404.448,244.649 403.448,244.483 402.5,244C 407.942,240.684 410.109,235.851 409,229.5C 406.084,224.58 402.418,220.247 398,216.5C 397.167,214.833 396.333,213.167 395.5,211.5C 395.624,210.893 395.957,210.56 396.5,210.5 Z"/></g>
<g><path style="opacity:0.016" fill="#1a0000" d="M 241.5,240.5 C 240.402,239.399 240.235,238.066 241,236.5C 241.49,237.793 241.657,239.127 241.5,240.5 Z"/></g>
<g><path style="opacity:1" fill="#1a0a01" d="M 389.5,232.5 C 393.828,232.037 397.828,232.87 401.5,235C 394.079,233.367 388.079,235.7 383.5,242C 379.003,244.121 374.67,243.788 370.5,241C 366.872,236.176 362.205,234.176 356.5,235C 359.633,233.43 362.967,233.097 366.5,234C 370.087,236.583 373.92,238.75 378,240.5C 382.002,237.985 385.835,235.318 389.5,232.5 Z"/></g>
<g><path style="opacity:0.006" fill="#0b0000" d="M 241.5,240.5 C 241.833,240.5 242.167,240.5 242.5,240.5C 242.5,242.167 242.5,243.833 242.5,245.5C 241.549,244.081 241.216,242.415 241.5,240.5 Z"/></g>
<g><path style="opacity:0.016" fill="#1a0100" d="M 503.5,241.5 C 504.833,243.167 504.833,244.833 503.5,246.5C 503.5,244.833 503.5,243.167 503.5,241.5 Z"/></g>
<g><path style="opacity:0.016" fill="#150000" d="M 242.5,245.5 C 242.833,245.5 243.167,245.5 243.5,245.5C 243.5,246.833 243.5,248.167 243.5,249.5C 242.566,248.432 242.232,247.099 242.5,245.5 Z"/></g>
<g><path style="opacity:0.016" fill="#1d0000" d="M 502.5,246.5 C 502.833,246.5 503.167,246.5 503.5,246.5C 503.672,247.492 503.338,248.158 502.5,248.5C 502.5,247.833 502.5,247.167 502.5,246.5 Z"/></g>
<g><path style="opacity:1" fill="#75402a" d="M 433.5,317.5 C 433.442,324.859 433.442,332.525 433.5,340.5C 432.833,333.988 432.167,327.321 431.5,320.5C 427.388,325.06 423.055,329.394 418.5,333.5C 418.392,329.753 418.892,326.086 420,322.5C 422.864,314.908 425.531,307.242 428,299.5C 429.259,292.477 428.426,285.811 425.5,279.5C 425.167,278.5 424.5,277.833 423.5,277.5C 415.417,269.451 405.75,263.951 394.5,261C 382.217,262.418 369.883,262.752 357.5,262C 345.795,265.264 335.962,271.431 328,280.5C 323.766,288.258 323.432,296.258 327,304.5C 331.945,314.667 335.278,325.334 337,336.5C 339.559,339.349 342.726,340.183 346.5,339C 362.636,332.409 379.303,330.742 396.5,334C 402.156,337.002 408.156,338.502 414.5,338.5C 397.218,356.805 375.885,367.139 350.5,369.5C 337.401,366.949 327.401,359.949 320.5,348.5C 321.551,343.361 322.218,338.028 322.5,332.5C 320.746,319.889 319.746,307.222 319.5,294.5C 319.397,288.089 319.897,281.756 321,275.5C 330.051,263.538 341.885,255.371 356.5,251C 362.679,249.331 368.846,249.497 375,251.5C 381.434,249.973 387.934,249.473 394.5,250C 404.839,253.337 414.506,258.003 423.5,264C 429.028,267.849 432.528,273.016 434,279.5C 434.682,292.183 434.516,304.85 433.5,317.5 Z"/></g>
<g><path style="opacity:0.016" fill="#170000" d="M 501.5,248.5 C 501.833,248.5 502.167,248.5 502.5,248.5C 502.672,249.492 502.338,250.158 501.5,250.5C 501.5,249.833 501.5,249.167 501.5,248.5 Z"/></g>
<g><path style="opacity:0.004" fill="#0d0000" d="M 243.5,249.5 C 243.833,249.5 244.167,249.5 244.5,249.5C 244.167,252.167 243.833,252.167 243.5,249.5 Z"/></g>
<g><path style="opacity:0.008" fill="#000000" d="M 500.5,250.5 C 500.833,250.5 501.167,250.5 501.5,250.5C 501.672,251.492 501.338,252.158 500.5,252.5C 500.5,251.833 500.5,251.167 500.5,250.5 Z"/></g>
<g><path style="opacity:0.016" fill="#1d0000" d="M 499.5,252.5 C 499.833,252.5 500.167,252.5 500.5,252.5C 500.315,253.17 499.981,253.17 499.5,252.5 Z"/></g>
<g><path style="opacity:0.02" fill="#270700" d="M 498.5,253.5 C 498.833,253.5 499.167,253.5 499.5,253.5C 499.315,254.17 498.981,254.17 498.5,253.5 Z"/></g>
<g><path style="opacity:0.016" fill="#1d0000" d="M 497.5,254.5 C 497.833,254.5 498.167,254.5 498.5,254.5C 498.315,255.17 497.981,255.17 497.5,254.5 Z"/></g>
<g><path style="opacity:0.016" fill="#1d0000" d="M 249.5,255.5 C 249.5,255.833 249.5,256.167 249.5,256.5C 248.83,256.019 248.83,255.685 249.5,255.5 Z"/></g>
<g><path style="opacity:0.016" fill="#1d0000" d="M 496.5,255.5 C 496.833,255.5 497.167,255.5 497.5,255.5C 497.315,256.17 496.981,256.17 496.5,255.5 Z"/></g>
<g><path style="opacity:0.016" fill="#1d0000" d="M 249.5,256.5 C 250.833,257.167 250.833,257.167 249.5,256.5 Z"/></g>
<g><path style="opacity:0.008" fill="#0d0000" d="M 494.5,257.5 C 494.5,257.167 494.5,256.833 494.5,256.5C 495.167,256.5 495.833,256.5 496.5,256.5C 496.158,257.338 495.492,257.672 494.5,257.5 Z"/></g>
<g><path style="opacity:1" fill="#170a02" d="M 431.5,261.5 C 431.897,260.475 432.563,260.308 433.5,261C 437.663,263.821 439.163,267.655 438,272.5C 437.873,267.572 435.706,263.905 431.5,261.5 Z"/></g>
<g><path style="opacity:1" fill="#743d28" d="M 413.5,272.5 C 416.833,274.167 420.167,275.833 423.5,277.5C 424.5,277.833 425.167,278.5 425.5,279.5C 419.877,286.042 414.71,293.042 410,300.5C 404.936,304.411 399.769,308.078 394.5,311.5C 385.358,311.464 376.024,311.297 366.5,311C 363.487,310.498 360.487,309.998 357.5,309.5C 351.727,307.112 346.393,303.945 341.5,300C 338.081,294.577 333.915,289.744 329,285.5C 328.08,282.692 328.913,280.525 331.5,279C 335.229,277.745 338.562,275.912 341.5,273.5C 352.377,267.757 363.877,266.09 376,268.5C 380.709,267.709 385.375,266.709 390,265.5C 398.19,266.731 406.024,269.064 413.5,272.5 Z"/></g>
<g><path style="opacity:0.016" fill="#160000" d="M 262.5,266.5 C 262.663,268.857 262.497,271.19 262,273.5C 261.204,270.961 261.371,268.628 262.5,266.5 Z"/></g>
<g><path style="opacity:0.016" fill="#180000" d="M 489.5,267.5 C 490.641,270.64 490.808,273.973 490,277.5C 489.502,274.183 489.335,270.85 489.5,267.5 Z"/></g>
<g><path style="opacity:0.016" fill="#190000" d="M 488.5,284.5 C 488.338,282.473 488.505,280.473 489,278.5C 489.789,280.712 489.622,282.712 488.5,284.5 Z"/></g>
<g><path style="opacity:1" fill="#1b120d" d="M 381.5,277.5 C 387.898,277.243 394.231,277.743 400.5,279C 404.646,280.937 408.979,282.271 413.5,283C 411.527,283.495 409.527,283.662 407.5,283.5C 407.67,284.822 407.337,285.989 406.5,287C 399.384,289.725 392.384,292.725 385.5,296C 379.519,297.838 373.519,297.838 367.5,296C 360.323,292.405 352.99,289.405 345.5,287C 342.5,286.667 339.5,286.333 336.5,286C 342.463,285.686 347.796,283.686 352.5,280C 362.301,279.008 371.968,278.174 381.5,277.5 Z"/></g>
<g><path style="opacity:0.006" fill="#0b0000" d="M 264.5,278.5 C 264.66,280.199 264.494,281.866 264,283.5C 263.22,281.613 263.387,279.946 264.5,278.5 Z"/></g>
<g><path style="opacity:1" fill="#8e5137" d="M 423.5,277.5 C 420.167,275.833 416.833,274.167 413.5,272.5C 402.272,263.233 389.772,260.9 376,265.5C 363.062,262.057 351.562,264.724 341.5,273.5C 338.562,275.912 335.229,277.745 331.5,279C 328.913,280.525 328.08,282.692 329,285.5C 333.915,289.744 338.081,294.577 341.5,300C 346.393,303.945 351.727,307.112 357.5,309.5C 359.349,310.593 361.016,311.926 362.5,313.5C 368.255,320.805 375.588,322.972 384.5,320C 387.409,318.594 389.409,316.428 390.5,313.5C 391.833,312.833 393.167,312.167 394.5,311.5C 399.769,308.078 404.936,304.411 410,300.5C 414.71,293.042 419.877,286.042 425.5,279.5C 428.426,285.811 429.259,292.477 428,299.5C 425.531,307.242 422.864,314.908 420,322.5C 418.892,326.086 418.392,329.753 418.5,333.5C 417.876,335.754 416.543,337.421 414.5,338.5C 408.156,338.502 402.156,337.002 396.5,334C 379.303,330.742 362.636,332.409 346.5,339C 342.726,340.183 339.559,339.349 337,336.5C 335.278,325.334 331.945,314.667 327,304.5C 323.432,296.258 323.766,288.258 328,280.5C 335.962,271.431 345.795,265.264 357.5,262C 369.883,262.752 382.217,262.418 394.5,261C 405.75,263.951 415.417,269.451 423.5,277.5 Z"/></g>
<g><path style="opacity:1" fill="#f2f1f1" d="M 384.5,280.5 C 390.232,280.283 395.899,280.783 401.5,282C 403.527,283.396 403.86,285.062 402.5,287C 396.311,288.428 390.311,290.428 384.5,293C 375.088,294.439 366.088,293.106 357.5,289C 354.854,288.503 352.187,288.336 349.5,288.5C 348.965,285.762 349.965,283.928 352.5,283C 360.127,281.217 367.794,281.051 375.5,282.5C 378.737,282.322 381.737,281.655 384.5,280.5 Z"/></g>
<g><path style="opacity:1" fill="#180a01" d="M 413.5,272.5 C 406.024,269.064 398.19,266.731 390,265.5C 385.375,266.709 380.709,267.709 376,268.5C 363.877,266.09 352.377,267.757 341.5,273.5C 351.562,264.724 363.062,262.057 376,265.5C 389.772,260.9 402.272,263.233 413.5,272.5 Z"/></g>
<g><path style="opacity:0.016" fill="#1a0000" d="M 487.5,284.5 C 487.833,284.5 488.167,284.5 488.5,284.5C 488.768,286.099 488.434,287.432 487.5,288.5C 487.5,287.167 487.5,285.833 487.5,284.5 Z"/></g>
<g><path style="opacity:0.016" fill="#150000" d="M 486.5,288.5 C 486.833,288.5 487.167,288.5 487.5,288.5C 487.768,290.099 487.434,291.432 486.5,292.5C 486.5,291.167 486.5,289.833 486.5,288.5 Z"/></g>
<g><path style="opacity:0.016" fill="#120000" d="M 485.5,292.5 C 485.833,292.5 486.167,292.5 486.5,292.5C 486.737,293.791 486.404,294.791 485.5,295.5C 485.5,294.5 485.5,293.5 485.5,292.5 Z"/></g>
<g><path style="opacity:0.016" fill="#120000" d="M 484.5,295.5 C 484.833,295.5 485.167,295.5 485.5,295.5C 485.737,296.791 485.404,297.791 484.5,298.5C 484.5,297.5 484.5,296.5 484.5,295.5 Z"/></g>
<g><path style="opacity:0.008" fill="#140200" d="M 269.5,296.5 C 269.631,297.239 269.464,297.906 269,298.5C 268.308,297.563 268.475,296.897 269.5,296.5 Z"/></g>
<g><path style="opacity:0.016" fill="#190000" d="M 483.5,298.5 C 483.833,298.5 484.167,298.5 484.5,298.5C 484.737,299.791 484.404,300.791 483.5,301.5C 483.5,300.5 483.5,299.5 483.5,298.5 Z"/></g>
<g><path style="opacity:0.016" fill="#170000" d="M 271.5,300.5 C 271.631,301.239 271.464,301.906 271,302.5C 270.308,301.563 270.475,300.897 271.5,300.5 Z"/></g>
<g><path style="opacity:0.008" fill="#140200" d="M 482.5,301.5 C 482.833,301.5 483.167,301.5 483.5,301.5C 483.672,302.492 483.338,303.158 482.5,303.5C 482.5,302.833 482.5,302.167 482.5,301.5 Z"/></g>
<g><path style="opacity:0.016" fill="#1d0000" d="M 481.5,303.5 C 481.833,303.5 482.167,303.5 482.5,303.5C 482.672,304.492 482.338,305.158 481.5,305.5C 481.5,304.833 481.5,304.167 481.5,303.5 Z"/></g>
<g><path style="opacity:0.016" fill="#1d0000" d="M 480.5,305.5 C 480.833,305.5 481.167,305.5 481.5,305.5C 481.672,306.492 481.338,307.158 480.5,307.5C 480.5,306.833 480.5,306.167 480.5,305.5 Z"/></g>
<g><path style="opacity:0.008" fill="#0d0000" d="M 479.5,307.5 C 479.833,307.5 480.167,307.5 480.5,307.5C 480.672,308.492 480.338,309.158 479.5,309.5C 479.5,308.833 479.5,308.167 479.5,307.5 Z"/></g>
<g><path style="opacity:0.005" fill="#0f0000" d="M 273.5,304.5 C 273.665,308.182 273.499,311.848 273,315.5C 272.19,311.642 272.357,307.976 273.5,304.5 Z"/></g>
<g><path style="opacity:0.004" fill="#140200" d="M 478.5,309.5 C 478.833,309.5 479.167,309.5 479.5,309.5C 479.672,310.492 479.338,311.158 478.5,311.5C 478.5,310.833 478.5,310.167 478.5,309.5 Z"/></g>
<g><path style="opacity:1" fill="#1b0b01" d="M 357.5,309.5 C 360.487,309.998 363.487,310.498 366.5,311C 376.024,311.297 385.358,311.464 394.5,311.5C 393.167,312.167 391.833,312.833 390.5,313.5C 381.164,316.166 371.831,316.166 362.5,313.5C 361.016,311.926 359.349,310.593 357.5,309.5 Z"/></g>
<g><path style="opacity:0.016" fill="#1d0000" d="M 477.5,311.5 C 477.833,311.5 478.167,311.5 478.5,311.5C 478.315,312.17 477.981,312.17 477.5,311.5 Z"/></g>
<g><path style="opacity:0.008" fill="#0d0000" d="M 476.5,312.5 C 476.833,312.5 477.167,312.5 477.5,312.5C 477.672,313.492 477.338,314.158 476.5,314.5C 476.5,313.833 476.5,313.167 476.5,312.5 Z"/></g>
<g><path style="opacity:1" fill="#723f28" d="M 362.5,313.5 C 371.831,316.166 381.164,316.166 390.5,313.5C 389.409,316.428 387.409,318.594 384.5,320C 375.588,322.972 368.255,320.805 362.5,313.5 Z"/></g>
<g><path style="opacity:0.02" fill="#270700" d="M 475.5,314.5 C 475.833,314.5 476.167,314.5 476.5,314.5C 476.315,315.17 475.981,315.17 475.5,314.5 Z"/></g>
<g><path style="opacity:1" fill="#773d2b" d="M 468.5,344.5 C 464.431,346.299 460.931,348.966 458,352.5C 450.083,364.665 442.416,376.999 435,389.5C 420.178,407.49 401.011,416.157 377.5,415.5C 360.114,416.986 345.614,411.32 334,398.5C 323.291,381.952 310.791,366.786 296.5,353C 292.095,349.13 287.095,346.297 281.5,344.5C 281.334,335.161 281.5,325.827 282,316.5C 291.976,326.809 302.309,336.809 313,346.5C 326.71,368.69 346.71,379.024 373,377.5C 393.747,379.028 412.247,373.528 428.5,361C 440.376,347.623 453.043,335.123 466.5,323.5C 467.374,330.488 468.041,337.488 468.5,344.5 Z"/></g>
<g><path style="opacity:1" fill="#673521" d="M 433.5,340.5 C 433.198,343.059 433.532,345.393 434.5,347.5C 419.8,365.799 400.633,374.132 377,372.5C 371.833,372.333 366.667,372.167 361.5,372C 357.57,371.758 353.903,370.925 350.5,369.5C 375.885,367.139 397.218,356.805 414.5,338.5C 416.543,337.421 417.876,335.754 418.5,333.5C 423.055,329.394 427.388,325.06 431.5,320.5C 432.167,327.321 432.833,333.988 433.5,340.5 Z"/></g>
<g><path style="opacity:0.016" fill="#1d0000" d="M 273.5,316.5 C 274.661,330.661 274.827,344.994 274,359.5C 273.5,345.171 273.333,330.837 273.5,316.5 Z"/></g>
<g><path style="opacity:1" fill="#26150c" d="M 373.5,325.5 C 378.901,324.966 383.901,326.133 388.5,329C 384.349,329.143 380.182,328.977 376,328.5C 372.027,328.433 368.194,329.099 364.5,330.5C 363.304,330.154 363.304,329.654 364.5,329C 367.598,327.772 370.598,326.606 373.5,325.5 Z"/></g>
<g><path style="opacity:0.016" fill="#160000" d="M 474.5,315.5 C 474.833,315.5 475.167,315.5 475.5,315.5C 475.167,348.833 474.833,348.833 474.5,315.5 Z"/></g>
<g><path style="opacity:1" fill="#8f5137" d="M 281.5,344.5 C 287.095,346.297 292.095,349.13 296.5,353C 310.791,366.786 323.291,381.952 334,398.5C 345.614,411.32 360.114,416.986 377.5,415.5C 401.011,416.157 420.178,407.49 435,389.5C 442.416,376.999 450.083,364.665 458,352.5C 460.931,348.966 464.431,346.299 468.5,344.5C 469.499,353.828 470.666,363.162 472,372.5C 474.63,380.565 476.13,380.232 476.5,371.5C 480.5,372.833 484.5,374.167 488.5,375.5C 491.264,400.822 487.597,425.155 477.5,448.5C 460.843,449.333 444.177,449.833 427.5,450C 414.291,451.326 404.457,457.493 398,468.5C 404.78,460.692 413.28,455.859 423.5,454C 440.51,453.167 457.51,453.334 474.5,454.5C 464.598,471.908 451.932,487.075 436.5,500C 419.002,510.999 404.668,525.165 393.5,542.5C 380.5,542.5 367.5,542.5 354.5,542.5C 353.453,538.739 351.619,535.406 349,532.5C 336.368,518.198 322.202,505.698 306.5,495C 293.639,483.66 283.306,470.493 275.5,455.5C 290.991,454.504 306.658,454.17 322.5,454.5C 333.688,455.178 343.188,459.511 351,467.5C 351.667,466.833 351.667,466.167 351,465.5C 342.574,456.204 332.074,451.037 319.5,450C 303.49,449.833 287.49,449.333 271.5,448.5C 261.859,426.849 258.025,404.182 260,380.5C 264.837,377.749 269.503,374.749 274,371.5C 274.241,374.289 274.908,376.956 276,379.5C 276.667,378.833 277.333,378.167 278,377.5C 279.781,366.433 280.948,355.433 281.5,344.5 Z"/></g>
<g><path style="opacity:0.016" fill="#160000" d="M 475.5,341.5 C 476.643,344.976 476.81,348.642 476,352.5C 475.501,348.848 475.335,345.182 475.5,341.5 Z"/></g>
<g><path style="opacity:0.016" fill="#1a0000" d="M 476.5,353.5 C 477.634,355.966 477.801,358.633 477,361.5C 476.503,358.854 476.336,356.187 476.5,353.5 Z"/></g>
<g><path style="opacity:0.016" fill="#1a0000" d="M 491.5,357.5 C 494.304,356.362 497.304,356.195 500.5,357C 497.518,357.498 494.518,357.665 491.5,357.5 Z"/></g>
<g><path style="opacity:0.016" fill="#1d0000" d="M 489.5,357.5 C 490.833,358.167 490.833,358.167 489.5,357.5 Z"/></g>
<g><path style="opacity:0.016" fill="#1d0000" d="M 244.5,358.5 C 245.833,359.167 245.833,359.167 244.5,358.5 Z"/></g>
<g><path style="opacity:0.02" fill="#1f0400" d="M 241.5,360.5 C 241.897,359.475 242.563,359.308 243.5,360C 242.906,360.464 242.239,360.631 241.5,360.5 Z"/></g>
<g><path style="opacity:0.008" fill="#000000" d="M 478.5,363.5 C 477.833,362.167 477.833,362.167 478.5,363.5 Z"/></g>
<g><path style="opacity:0.016" fill="#190000" d="M 264.5,366.5 C 264.167,366.5 263.833,366.5 263.5,366.5C 263.833,362.5 264.167,362.5 264.5,366.5 Z"/></g>
<g><path style="opacity:0.016" fill="#1d0000" d="M 478.5,363.5 C 479.833,364.167 479.833,364.167 478.5,363.5 Z"/></g>
<g><path style="opacity:0.016" fill="#1d0000" d="M 514.5,364.5 C 514.897,363.475 515.563,363.308 516.5,364C 515.906,364.464 515.239,364.631 514.5,364.5 Z"/></g>
<g><path style="opacity:1" fill="#0768b1" d="M 349.5,542.5 C 337.5,542.5 325.5,542.5 313.5,542.5C 308.454,534.946 302.454,528.112 295.5,522C 277.956,510.123 263.456,495.289 252,477.5C 234.616,445.006 226.949,410.34 229,373.5C 236.835,369.777 244.835,366.444 253,363.5C 255.601,363.601 257.101,364.935 257.5,367.5C 249.206,422.376 266.206,467.543 308.5,503C 324.975,513.309 338.641,526.476 349.5,542.5 Z"/></g>
<g><path style="opacity:1" fill="#0768b1" d="M 435.5,542.5 C 423.5,542.5 411.5,542.5 399.5,542.5C 410.691,526.143 424.691,512.643 441.5,502C 482.915,466.939 499.581,422.439 491.5,368.5C 491.364,365.638 492.698,363.971 495.5,363.5C 503.847,366.425 512.014,369.758 520,373.5C 520.755,387.23 520.088,400.896 518,414.5C 513.332,452.338 497.165,484.172 469.5,510C 456.023,518.644 444.69,529.478 435.5,542.5 Z"/></g>
<g><path style="opacity:0.016" fill="#1a0000" d="M 481.5,366.5 C 482.209,365.596 483.209,365.263 484.5,365.5C 484.672,366.492 484.338,367.158 483.5,367.5C 483.158,366.662 482.492,366.328 481.5,366.5 Z"/></g>
<g><path style="opacity:0.016" fill="#170000" d="M 224.5,367.5 C 224.897,366.475 225.563,366.308 226.5,367C 225.906,367.464 225.239,367.631 224.5,367.5 Z"/></g>
<g><path style="opacity:0.004" fill="#000000" d="M 264.5,366.5 C 265.833,367.167 265.833,367.167 264.5,366.5 Z"/></g>
<g><path style="opacity:0.02" fill="#210400" d="M 266.5,369.5 C 265.508,369.328 264.842,369.662 264.5,370.5C 263.115,369.698 263.282,369.031 265,368.5C 265.765,368.57 266.265,368.903 266.5,369.5 Z"/></g>
<g><path style="opacity:0.016" fill="#1d0000" d="M 214.5,372.5 C 215.833,373.167 215.833,373.167 214.5,372.5 Z"/></g>
<g><path style="opacity:1" fill="#e8e6e4" d="M 221.5,377.5 C 223.146,382.927 224.146,388.594 224.5,394.5C 225.407,409.018 227.574,423.351 231,437.5C 238.272,467.224 253.106,492.391 275.5,513C 287.916,520.916 298.583,530.749 307.5,542.5C 256.167,542.5 204.833,542.5 153.5,542.5C 151.214,495.649 153.214,448.983 159.5,402.5C 161.942,400.774 164.609,399.274 167.5,398C 186.684,394.24 204.684,387.406 221.5,377.5 Z"/></g>
<g><path style="opacity:1" fill="#83817f" d="M 221.5,377.5 C 222.209,376.596 223.209,376.263 224.5,376.5C 224.5,382.5 224.5,388.5 224.5,394.5C 224.146,388.594 223.146,382.927 221.5,377.5 Z"/></g>
<g><path style="opacity:1" fill="#e8e5e4" d="M 526.5,377.5 C 534.992,381.912 543.659,386.078 552.5,390C 564.932,392.647 576.932,396.481 588.5,401.5C 595.048,448.351 597.048,495.351 594.5,542.5C 543.5,542.5 492.5,542.5 441.5,542.5C 446.57,535.924 452.237,529.757 458.5,524C 468.69,517.47 477.857,509.637 486,500.5C 510.305,469.515 523.138,434.181 524.5,394.5C 525.167,388.833 525.833,383.167 526.5,377.5 Z"/></g>
<g><path style="opacity:1" fill="#969391" d="M 526.5,377.5 C 525.833,383.167 525.167,388.833 524.5,394.5C 524.171,388.463 524.504,382.463 525.5,376.5C 526.107,376.624 526.44,376.957 526.5,377.5 Z"/></g>
<g><path style="opacity:0.016" fill="#1d0000" d="M 552.5,383.5 C 552.897,382.475 553.563,382.308 554.5,383C 553.906,383.464 553.239,383.631 552.5,383.5 Z"/></g>
<g><path style="opacity:0.008" fill="#140200" d="M 555.5,384.5 C 555.897,383.475 556.563,383.308 557.5,384C 556.906,384.464 556.239,384.631 555.5,384.5 Z"/></g>
<g><path style="opacity:0.02" fill="#1b0200" d="M 560.5,386.5 C 561.601,385.402 562.934,385.235 564.5,386C 563.207,386.49 561.873,386.657 560.5,386.5 Z"/></g>
<g><path style="opacity:0.016" fill="#1a0000" d="M 565.5,387.5 C 566.601,386.402 567.934,386.235 569.5,387C 568.207,387.49 566.873,387.657 565.5,387.5 Z"/></g>
<g><path style="opacity:1" fill="#0868b2" d="M 588.5,401.5 C 596.497,406.165 604.83,410.332 613.5,414C 615.894,415.952 617.394,418.452 618,421.5C 621.902,461.742 623.736,502.076 623.5,542.5C 613.833,542.5 604.167,542.5 594.5,542.5C 597.048,495.351 595.048,448.351 588.5,401.5 Z"/></g>
<g><path style="opacity:1" fill="#0b68b1" d="M 159.5,402.5 C 153.214,448.983 151.214,495.649 153.5,542.5C 143.833,542.5 134.167,542.5 124.5,542.5C 125.079,501.751 127.245,461.084 131,420.5C 132.442,416.725 134.942,413.892 138.5,412C 145.764,409.367 152.764,406.201 159.5,402.5 Z"/></g>
<g><path style="opacity:0.008" fill="#0d0000" d="M 623.5,419.5 C 623.459,415.757 624.126,415.59 625.5,419C 624.906,419.464 624.239,419.631 623.5,419.5 Z"/></g>
<g><path style="opacity:0.016" fill="#1d0000" d="M 641.5,429.5 C 641.897,428.475 642.563,428.308 643.5,429C 642.906,429.464 642.239,429.631 641.5,429.5 Z"/></g>
<g><path style="opacity:1" fill="#7f432d" d="M 120.5,542.5 C 117.5,542.5 114.5,542.5 111.5,542.5C 111.303,538.378 110.47,534.378 109,530.5C 102.641,520.115 97.641,509.115 94,497.5C 93.2951,487.313 95.2951,477.647 100,468.5C 102.601,459.503 101.934,450.836 98,442.5C 96.2111,440.771 94.0444,440.104 91.5,440.5C 103.176,438.172 114.176,433.839 124.5,427.5C 124.833,428.5 125.167,429.5 125.5,430.5C 122.112,467.755 120.446,505.088 120.5,542.5 Z"/></g>
<g><path style="opacity:1" fill="#7e432d" d="M 655.5,440.5 C 653.278,440.178 651.444,440.845 650,442.5C 646.071,450.498 645.404,458.832 648,467.5C 650,473.5 652,479.5 654,485.5C 654.596,490.88 654.262,496.213 653,501.5C 649.468,510.897 645.135,519.897 640,528.5C 638.203,533.023 637.036,537.69 636.5,542.5C 633.833,542.5 631.167,542.5 628.5,542.5C 628.106,506.443 626.44,470.443 623.5,434.5C 623.833,432.167 624.167,429.833 624.5,427.5C 634.352,433.268 644.686,437.601 655.5,440.5 Z"/></g>
<g><path style="opacity:0.016" fill="#1d0000" d="M 644.5,430.5 C 644.897,429.475 645.563,429.308 646.5,430C 645.906,430.464 645.239,430.631 644.5,430.5 Z"/></g>
<g><path style="opacity:0.016" fill="#190000" d="M 98.5,431.5 C 99.2506,430.427 100.251,430.26 101.5,431C 100.552,431.483 99.552,431.649 98.5,431.5 Z"/></g>
<g><path style="opacity:0.016" fill="#190000" d="M 650.5,431.5 C 649.448,431.649 648.448,431.483 647.5,431C 648.749,430.26 649.749,430.427 650.5,431.5 Z"/></g>
<g><path style="opacity:0.016" fill="#1a0000" d="M 98.5,431.5 C 98.5,431.833 98.5,432.167 98.5,432.5C 93.1667,432.167 93.1667,431.833 98.5,431.5 Z"/></g>
<g><path style="opacity:0.016" fill="#1a0000" d="M 650.5,432.5 C 650.5,432.167 650.5,431.833 650.5,431.5C 655.833,431.833 655.833,432.167 650.5,432.5 Z"/></g>
<g><path style="opacity:0.016" fill="#180000" d="M 88.5,433.5 C 89.9464,432.387 91.6131,432.22 93.5,433C 91.8659,433.494 90.1992,433.66 88.5,433.5 Z"/></g>
<g><path style="opacity:0.016" fill="#1a0000" d="M 655.5,433.5 C 656.601,432.402 657.934,432.235 659.5,433C 658.207,433.49 656.873,433.657 655.5,433.5 Z"/></g>
<g><path style="opacity:1" fill="#8f5137" d="M 91.5,440.5 C 94.0444,440.104 96.2111,440.771 98,442.5C 101.934,450.836 102.601,459.503 100,468.5C 95.2951,477.647 93.2951,487.313 94,497.5C 97.641,509.115 102.641,520.115 109,530.5C 110.47,534.378 111.303,538.378 111.5,542.5C 76.1667,542.5 40.8333,542.5 5.5,542.5C 6.81576,535.382 8.6491,528.382 11,521.5C 18.8151,503.189 29.1484,486.522 42,471.5C 54.9749,455.435 71.4749,445.101 91.5,440.5 Z"/></g>
<g><path style="opacity:1" fill="#8f5137" d="M 655.5,440.5 C 665.078,441.971 674.078,445.137 682.5,450C 714.218,473.255 734.551,504.088 743.5,542.5C 707.833,542.5 672.167,542.5 636.5,542.5C 637.036,537.69 638.203,533.023 640,528.5C 645.135,519.897 649.468,510.897 653,501.5C 654.262,496.213 654.596,490.88 654,485.5C 652,479.5 650,473.5 648,467.5C 645.404,458.832 646.071,450.498 650,442.5C 651.444,440.845 653.278,440.178 655.5,440.5 Z"/></g>
<g><path style="opacity:1" fill="#4a2514" d="M 322.5,454.5 C 306.658,454.17 290.991,454.504 275.5,455.5C 274.957,455.44 274.624,455.107 274.5,454.5C 290.662,453.173 306.662,453.173 322.5,454.5 Z"/></g>
<g><path style="opacity:0.007" fill="#080000" d="M 36.5,469.5 C 35.8333,469.5 35.5,469.833 35.5,470.5C 34.2875,469.503 34.4542,468.503 36,467.5C 36.4643,468.094 36.631,468.761 36.5,469.5 Z"/></g>
<g><path style="opacity:0.004" fill="#130100" d="M 721.5,480.5 C 720.833,480.5 720.5,480.167 720.5,479.5C 720.747,477.025 721.413,477.025 722.5,479.5C 722.376,480.107 722.043,480.44 721.5,480.5 Z"/></g>
<g><path style="opacity:0.004" fill="#130100" d="M 25.5,483.5 C 24.8333,483.5 24.5,483.833 24.5,484.5C 23.2875,483.503 23.4542,482.503 25,481.5C 25.4643,482.094 25.631,482.761 25.5,483.5 Z"/></g>
<g><path style="opacity:0.004" fill="#0d0000" d="M 12.5,504.5 C 12.1667,504.5 11.8333,504.5 11.5,504.5C 11.8333,501.833 12.1667,501.833 12.5,504.5 Z"/></g>
<g><path style="opacity:0.016" fill="#1d0000" d="M 11.5,504.5 C 10.8333,505.167 10.8333,505.167 11.5,504.5 Z"/></g>
<g><path style="opacity:0.016" fill="#1a0000" d="M -0.5,532.5 C 0.434475,533.568 0.767809,534.901 0.5,536.5C 0.166667,536.5 -0.166667,536.5 -0.5,536.5C -0.5,535.167 -0.5,533.833 -0.5,532.5 Z"/></g>
<g><path style="opacity:0.016" fill="#1a0000" d="M 749.5,532.5 C 749.5,533.833 749.5,535.167 749.5,536.5C 749.167,536.5 748.833,536.5 748.5,536.5C 748.232,534.901 748.566,533.568 749.5,532.5 Z"/></g>
</svg>
