<?xml version="1.0" encoding="UTF-8"?>
<!DOCTYPE svg PUBLIC "-//W3C//DTD SVG 1.1//EN" "http://www.w3.org/Graphics/SVG/1.1/DTD/svg11.dtd">
<svg xmlns="http://www.w3.org/2000/svg" version="1.1" width="750px" height="612px" style="shape-rendering:geometricPrecision; text-rendering:geometricPrecision; image-rendering:optimizeQuality; fill-rule:evenodd; clip-rule:evenodd" xmlns:xlink="http://www.w3.org/1999/xlink">
<g><path style="opacity:0.016" fill="#1a0100" d="M 340.5,-0.5 C 343.833,-0.5 347.167,-0.5 350.5,-0.5C 347.167,0.833333 343.833,0.833333 340.5,-0.5 Z"/></g>
<g><path style="opacity:0.016" fill="#220200" d="M 351.5,1.5 C 352.601,0.401682 353.934,0.235015 355.5,1C 354.207,1.49001 352.873,1.65668 351.5,1.5 Z"/></g>
<g><path style="opacity:0.016" fill="#210200" d="M 418.5,4.5 C 421.64,3.35916 424.973,3.1925 428.5,4C 425.183,4.49834 421.85,4.66501 418.5,4.5 Z"/></g>
<g><path style="opacity:0.016" fill="#220200" d="M 317.5,5.5 C 318.601,4.40168 319.934,4.23502 321.5,5C 320.207,5.49001 318.873,5.65668 317.5,5.5 Z"/></g>
<g><path style="opacity:0.016" fill="#200200" d="M 435.5,5.5 C 433.473,5.66212 431.473,5.49546 429.5,5C 431.712,4.21086 433.712,4.37753 435.5,5.5 Z"/></g>
<g><path style="opacity:0.016" fill="#260300" d="M 317.5,5.5 C 317.5,5.83333 317.5,6.16667 317.5,6.5C 314.833,6.16667 314.833,5.83333 317.5,5.5 Z"/></g>
<g><path style="opacity:0.016" fill="#210200" d="M 435.5,6.5 C 435.5,6.16667 435.5,5.83333 435.5,5.5C 439.5,5.83333 439.5,6.16667 435.5,6.5 Z"/></g>
<g><path style="opacity:0.016" fill="#260300" d="M 439.5,6.5 C 440.833,7.16667 440.833,7.16667 439.5,6.5 Z"/></g>
<g><path style="opacity:0.004" fill="#0d0000" d="M 448.5,14.5 C 449.497,13.2875 450.497,13.4542 451.5,15C 450.906,15.4643 450.239,15.631 449.5,15.5C 449.5,14.8333 449.167,14.5 448.5,14.5 Z"/></g>
<g><path style="opacity:0.016" fill="#260300" d="M 287.5,16.5 C 288.833,17.1667 288.833,17.1667 287.5,16.5 Z"/></g>
<g><path style="opacity:0.004" fill="#0d0000" d="M 284.5,20.5 C 283.833,20.5 283.5,20.8333 283.5,21.5C 281.025,21.2533 281.025,20.5866 283.5,19.5C 284.107,19.6236 284.44,19.9569 284.5,20.5 Z"/></g>
<g><path style="opacity:0.004" fill="#0d0000" d="M 279.5,25.5 C 278.833,25.5 278.5,25.8333 278.5,26.5C 277.287,25.5029 277.454,24.5029 279,23.5C 279.464,24.0944 279.631,24.7611 279.5,25.5 Z"/></g>
<g><path style="opacity:0.016" fill="#220200" d="M 468.5,32.5 C 468.459,28.7566 469.126,28.5899 470.5,32C 469.906,32.4643 469.239,32.631 468.5,32.5 Z"/></g>
<g><path style="opacity:0.004" fill="#0d0000" d="M 262.5,37.5 C 261.833,37.5 261.5,37.8333 261.5,38.5C 259.025,38.2533 259.025,37.5866 261.5,36.5C 262.107,36.6236 262.44,36.9569 262.5,37.5 Z"/></g>
<g><path style="opacity:0.016" fill="#190100" d="M 480.5,42.5 C 480.5,41.8333 480.167,41.5 479.5,41.5C 480.053,39.3431 481.053,39.5097 482.5,42C 481.906,42.4643 481.239,42.631 480.5,42.5 Z"/></g>
<g><path style="opacity:0.004" fill="#0d0000" d="M 488.5,49.5 C 488.5,48.8333 488.167,48.5 487.5,48.5C 487.747,46.0248 488.413,46.0248 489.5,48.5C 489.376,49.1067 489.043,49.44 488.5,49.5 Z"/></g>
<g><path style="opacity:0.004" fill="#0d0000" d="M 253.5,50.5 C 252.833,50.5 252.5,50.8333 252.5,51.5C 251.287,50.5029 251.454,49.5029 253,48.5C 253.464,49.0944 253.631,49.7611 253.5,50.5 Z"/></g>
<g><path style="opacity:0.004" fill="#190100" d="M 500.5,63.5 C 500.56,62.9569 500.893,62.6236 501.5,62.5C 502.773,63.2565 502.773,63.9232 501.5,64.5C 501.5,63.8333 501.167,63.5 500.5,63.5 Z"/></g>
<g><path style="opacity:0.004" fill="#140100" d="M 245.5,67.5 C 244.833,67.5 244.5,67.8333 244.5,68.5C 243.833,68.5 243.5,68.8333 243.5,69.5C 242.833,69.5 242.5,69.8333 242.5,70.5C 241.441,68.9301 241.941,67.5968 244,66.5C 244.981,60.136 245.481,60.4694 245.5,67.5 Z"/></g>
<g><path style="opacity:0.016" fill="#1f0200" d="M 228.5,115.5 C 229.643,118.976 229.81,122.642 229,126.5C 228.501,122.848 228.335,119.182 228.5,115.5 Z"/></g>
<g><path style="opacity:0.004" fill="#000000" d="M 228.5,142.5 C 227.35,137.684 227.184,132.684 228,127.5C 228.499,132.489 228.666,137.489 228.5,142.5 Z"/></g>
<g><path style="opacity:0.004" fill="#000000" d="M 522.5,148.5 C 522.336,145.813 522.503,143.146 523,140.5C 523.801,143.367 523.634,146.034 522.5,148.5 Z"/></g>
<g><path style="opacity:0.016" fill="#1c0100" d="M 228.5,142.5 C 228.833,142.5 229.167,142.5 229.5,142.5C 229.5,143.833 229.5,145.167 229.5,146.5C 228.566,145.432 228.232,144.099 228.5,142.5 Z"/></g>
<g><path style="opacity:0.016" fill="#190100" d="M 229.5,146.5 C 229.833,146.5 230.167,146.5 230.5,146.5C 230.167,150.5 229.833,150.5 229.5,146.5 Z"/></g>
<g><path style="opacity:0.016" fill="#1e0100" d="M 521.5,148.5 C 521.833,148.5 522.167,148.5 522.5,148.5C 522.81,151.713 522.477,154.713 521.5,157.5C 521.5,154.5 521.5,151.5 521.5,148.5 Z"/></g>
<g><path style="opacity:0.016" fill="#190100" d="M 232.5,172.5 C 232.833,172.5 233.167,172.5 233.5,172.5C 233.167,176.5 232.833,176.5 232.5,172.5 Z"/></g>
<g><path style="opacity:0.016" fill="#1d0100" d="M 520.5,157.5 C 520.833,157.5 521.167,157.5 521.5,157.5C 521.829,170.011 521.495,182.345 520.5,194.5C 520.5,182.167 520.5,169.833 520.5,157.5 Z"/></g>
<g><path style="opacity:0.016" fill="#220200" d="M 230.5,200.5 C 229.359,197.36 229.192,194.027 230,190.5C 230.498,193.817 230.665,197.15 230.5,200.5 Z"/></g>
<g><path style="opacity:0.016" fill="#220200" d="M 519.5,194.5 C 519.833,194.5 520.167,194.5 520.5,194.5C 520.167,199.833 519.833,199.833 519.5,194.5 Z"/></g>
<g><path style="opacity:0.016" fill="#1e0200" d="M 230.5,200.5 C 230.833,200.5 231.167,200.5 231.5,200.5C 231.167,207.167 230.833,207.167 230.5,200.5 Z"/></g>
<g><path style="opacity:0.016" fill="#1c0100" d="M 513.5,205.5 C 514.239,205.369 514.906,205.536 515.5,206C 514.748,206.671 514.414,207.504 514.5,208.5C 514.167,208.5 513.833,208.5 513.5,208.5C 513.5,207.5 513.5,206.5 513.5,205.5 Z"/></g>
<g><path style="opacity:0.016" fill="#1f0200" d="M 514.5,208.5 C 515.833,213.833 515.833,219.167 514.5,224.5C 514.5,219.167 514.5,213.833 514.5,208.5 Z"/></g>
<g><path style="opacity:0.016" fill="#210200" d="M 513.5,224.5 C 513.833,224.5 514.167,224.5 514.5,224.5C 514.737,225.791 514.404,226.791 513.5,227.5C 513.5,226.5 513.5,225.5 513.5,224.5 Z"/></g>
<g><path style="opacity:0.016" fill="#1c0100" d="M 512.5,227.5 C 512.833,227.5 513.167,227.5 513.5,227.5C 513.167,232.833 512.833,232.833 512.5,227.5 Z"/></g>
<g><path style="opacity:0.016" fill="#200200" d="M 231.5,248.5 C 230.353,244.354 230.186,240.02 231,235.5C 231.499,239.821 231.666,244.154 231.5,248.5 Z"/></g>
<g><path style="opacity:0.016" fill="#220200" d="M 514.5,239.5 C 515.653,245.653 515.82,251.986 515,258.5C 514.5,252.175 514.334,245.842 514.5,239.5 Z"/></g>
<g><path style="opacity:0.016" fill="#1e0200" d="M 231.5,248.5 C 231.833,248.5 232.167,248.5 232.5,248.5C 232.167,255.167 231.833,255.167 231.5,248.5 Z"/></g>
<g><path style="opacity:0.004" fill="#130100" d="M 510.5,284.5 C 511.525,284.897 511.692,285.563 511,286.5C 510.536,285.906 510.369,285.239 510.5,284.5 Z"/></g>
<g><path style="opacity:0.004" fill="#0e0000" d="M 502.5,294.5 C 503.239,294.369 503.906,294.536 504.5,295C 503.529,296.481 502.196,297.315 500.5,297.5C 500.5,297.167 500.5,296.833 500.5,296.5C 501.167,296.5 501.5,296.167 501.5,295.5C 502.167,295.5 502.5,295.167 502.5,294.5 Z"/></g>
<g><path style="opacity:0.016" fill="#260300" d="M 499.5,297.5 C 499.833,297.5 500.167,297.5 500.5,297.5C 500.315,298.17 499.981,298.17 499.5,297.5 Z"/></g>
<g><path style="opacity:0.016" fill="#260300" d="M 498.5,298.5 C 498.833,298.5 499.167,298.5 499.5,298.5C 499.315,299.17 498.981,299.17 498.5,298.5 Z"/></g>
<g><path style="opacity:0.016" fill="#260300" d="M 498.5,299.5 C 497.833,300.167 497.833,300.167 498.5,299.5 Z"/></g>
<g><path style="opacity:0.004" fill="#110000" d="M 492.5,301.5 C 493.552,301.351 494.552,301.517 495.5,302C 494.333,302.5 493.5,303.333 493,304.5C 492.517,303.552 492.351,302.552 492.5,301.5 Z"/></g>
<g><path style="opacity:0.016" fill="#1c0100" d="M 258.5,309.5 C 258.657,310.873 258.49,312.207 258,313.5C 257.235,311.934 257.402,310.601 258.5,309.5 Z"/></g>
<g><path style="opacity:0.016" fill="#220200" d="M 490.5,310.5 C 491.833,311.833 491.833,313.167 490.5,314.5C 490.5,313.167 490.5,311.833 490.5,310.5 Z"/></g>
<g><path style="opacity:0.016" fill="#210200" d="M 259.5,317.5 C 258.427,316.749 258.26,315.749 259,314.5C 259.483,315.448 259.649,316.448 259.5,317.5 Z"/></g>
<g><path style="opacity:0.016" fill="#1c0100" d="M 489.5,314.5 C 489.833,314.5 490.167,314.5 490.5,314.5C 490.768,316.099 490.434,317.432 489.5,318.5C 489.5,317.167 489.5,315.833 489.5,314.5 Z"/></g>
<g><path style="opacity:0.016" fill="#1c0100" d="M 259.5,317.5 C 259.833,317.5 260.167,317.5 260.5,317.5C 260.167,322.833 259.833,322.833 259.5,317.5 Z"/></g>
<g><path style="opacity:0.016" fill="#1c0100" d="M 488.5,318.5 C 488.833,318.5 489.167,318.5 489.5,318.5C 489.167,323.833 488.833,323.833 488.5,318.5 Z"/></g>
<g><path style="opacity:0.016" fill="#190100" d="M 262.5,324.5 C 262.5,325.5 262.5,326.5 262.5,327.5C 261.167,326.5 261.167,325.5 262.5,324.5 Z"/></g>
<g><path style="opacity:0.016" fill="#190100" d="M 262.5,327.5 C 262.833,327.5 263.167,327.5 263.5,327.5C 263.167,331.5 262.833,331.5 262.5,327.5 Z"/></g>
<g><path style="opacity:0.016" fill="#260300" d="M 484.5,332.5 C 485.833,333.167 485.833,333.833 484.5,334.5C 484.5,333.833 484.5,333.167 484.5,332.5 Z"/></g>
<g><path style="opacity:0.004" fill="#130100" d="M 265.5,333.5 C 265.631,334.239 265.464,334.906 265,335.5C 264.308,334.563 264.475,333.897 265.5,333.5 Z"/></g>
<g><path style="opacity:0.016" fill="#190100" d="M 483.5,334.5 C 483.833,334.5 484.167,334.5 484.5,334.5C 484.737,335.791 484.404,336.791 483.5,337.5C 483.5,336.5 483.5,335.5 483.5,334.5 Z"/></g>
<g><path style="opacity:0.016" fill="#260300" d="M 482.5,337.5 C 482.833,337.5 483.167,337.5 483.5,337.5C 483.672,338.492 483.338,339.158 482.5,339.5C 482.5,338.833 482.5,338.167 482.5,337.5 Z"/></g>
<g><path style="opacity:0.004" fill="#130100" d="M 267.5,338.5 C 267.5,339.167 267.5,339.833 267.5,340.5C 266.167,339.833 266.167,339.167 267.5,338.5 Z"/></g>
<g><path style="opacity:0.016" fill="#190100" d="M 481.5,339.5 C 481.833,339.5 482.167,339.5 482.5,339.5C 482.737,340.791 482.404,341.791 481.5,342.5C 481.5,341.5 481.5,340.5 481.5,339.5 Z"/></g>
<g><path style="opacity:0.004" fill="#130100" d="M 267.5,340.5 C 267.833,340.5 268.167,340.5 268.5,340.5C 268.5,341.167 268.5,341.833 268.5,342.5C 267.662,342.158 267.328,341.492 267.5,340.5 Z"/></g>
<g><path style="opacity:0.004" fill="#130100" d="M 268.5,342.5 C 268.833,342.5 269.167,342.5 269.5,342.5C 269.5,343.167 269.5,343.833 269.5,344.5C 268.662,344.158 268.328,343.492 268.5,342.5 Z"/></g>
<g><path style="opacity:0.004" fill="#130100" d="M 480.5,342.5 C 480.833,342.5 481.167,342.5 481.5,342.5C 481.672,343.492 481.338,344.158 480.5,344.5C 480.5,343.833 480.5,343.167 480.5,342.5 Z"/></g>
<g><path style="opacity:0.004" fill="#130100" d="M 269.5,344.5 C 269.833,344.5 270.167,344.5 270.5,344.5C 270.5,345.167 270.5,345.833 270.5,346.5C 269.662,346.158 269.328,345.492 269.5,344.5 Z"/></g>
<g><path style="opacity:0.004" fill="#130100" d="M 479.5,344.5 C 479.833,344.5 480.167,344.5 480.5,344.5C 480.672,345.492 480.338,346.158 479.5,346.5C 479.5,345.833 479.5,345.167 479.5,344.5 Z"/></g>
<g><path style="opacity:0.004" fill="#130100" d="M 270.5,346.5 C 270.833,346.5 271.167,346.5 271.5,346.5C 271.5,347.167 271.5,347.833 271.5,348.5C 270.662,348.158 270.328,347.492 270.5,346.5 Z"/></g>
<g><path style="opacity:0.004" fill="#130100" d="M 478.5,346.5 C 478.833,346.5 479.167,346.5 479.5,346.5C 479.672,347.492 479.338,348.158 478.5,348.5C 478.5,347.833 478.5,347.167 478.5,346.5 Z"/></g>
<g><path style="opacity:0.004" fill="#130100" d="M 271.5,348.5 C 271.833,348.5 272.167,348.5 272.5,348.5C 272.167,351.167 271.833,351.167 271.5,348.5 Z"/></g>
<g><path style="opacity:0.004" fill="#130100" d="M 477.5,348.5 C 477.833,348.5 478.167,348.5 478.5,348.5C 478.672,349.492 478.338,350.158 477.5,350.5C 477.5,349.833 477.5,349.167 477.5,348.5 Z"/></g>
<g><path style="opacity:0.846" fill="#1d0e04" d="M 370.5,-0.5 C 376.5,-0.5 382.5,-0.5 388.5,-0.5C 392.5,0.833333 396.5,0.833333 400.5,-0.5C 402.167,-0.5 403.833,-0.5 405.5,-0.5C 409.893,0.857351 414.227,2.52402 418.5,4.5C 423.973,5.61651 429.64,6.28318 435.5,6.5C 440.266,8.38693 444.599,11.0536 448.5,14.5C 449.167,14.5 449.5,14.8333 449.5,15.5C 452.32,18.0807 455.654,19.9141 459.5,21C 463.538,24.183 466.538,28.0164 468.5,32.5C 473.063,34.3954 476.73,37.3954 479.5,41.5C 480.167,41.5 480.5,41.8333 480.5,42.5C 482.808,44.4707 485.142,46.4707 487.5,48.5C 488.167,48.5 488.5,48.8333 488.5,49.5C 491.563,54.9518 495.563,59.6184 500.5,63.5C 501.167,63.5 501.5,63.8333 501.5,64.5C 503.882,70.7993 506.382,77.1327 509,83.5C 509.333,89.5 509.667,95.5 510,101.5C 514.587,106.673 517.587,112.673 519,119.5C 520.212,129.136 521.045,138.803 521.5,148.5C 520.523,151.287 520.19,154.287 520.5,157.5C 519.505,169.655 519.171,181.989 519.5,194.5C 518.312,198.537 516.312,202.204 513.5,205.5C 512.167,206.5 512.167,207.5 513.5,208.5C 513.5,213.833 513.5,219.167 513.5,224.5C 512.596,225.209 512.263,226.209 512.5,227.5C 511.861,228.097 511.528,228.93 511.5,230C 512.823,236.263 513.49,242.597 513.5,249C 511.904,260.932 510.904,272.766 510.5,284.5C 508.244,288.097 505.577,291.431 502.5,294.5C 501.833,294.5 501.5,294.833 501.5,295.5C 500.833,295.5 500.5,295.833 500.5,296.5C 499.833,296.5 499.5,296.833 499.5,297.5C 498.833,297.5 498.5,297.833 498.5,298.5C 496.442,299.933 494.108,300.6 491.5,300.5C 490.949,303.807 490.616,307.14 490.5,310.5C 489.566,311.568 489.232,312.901 489.5,314.5C 488.566,315.568 488.232,316.901 488.5,318.5C 486.595,322.897 485.261,327.563 484.5,332.5C 483.662,332.842 483.328,333.508 483.5,334.5C 482.596,335.209 482.263,336.209 482.5,337.5C 481.662,337.842 481.328,338.508 481.5,339.5C 480.596,340.209 480.263,341.209 480.5,342.5C 479.662,342.842 479.328,343.508 479.5,344.5C 478.662,344.842 478.328,345.508 478.5,346.5C 477.662,346.842 477.328,347.508 477.5,348.5C 476.662,348.842 476.328,349.508 476.5,350.5C 474.412,352.336 473.079,354.669 472.5,357.5C 471.833,357.5 471.5,357.833 471.5,358.5C 470.835,362.151 470.501,365.985 470.5,370C 471.12,385.829 471.62,401.663 472,417.5C 473.704,419.373 475.537,421.04 477.5,422.5C 477.5,423.167 477.833,423.5 478.5,423.5C 480.205,425.192 482.205,426.525 484.5,427.5C 485.167,428.833 485.833,428.833 486.5,427.5C 489.589,422.879 493.923,421.379 499.5,423C 506.833,426 514.167,429 521.5,432C 532.728,438.781 544.395,444.781 556.5,450C 565.181,452.17 573.847,454.337 582.5,456.5C 590.182,461.008 598.182,465.008 606.5,468.5C 614.373,471.042 620.039,476.042 623.5,483.5C 623.5,484.167 623.833,484.5 624.5,484.5C 631.86,490.345 640.193,494.345 649.5,496.5C 677.425,501.627 699.758,515.627 716.5,538.5C 716.5,539.167 716.833,539.5 717.5,539.5C 722.179,546.204 726.846,552.871 731.5,559.5C 738.941,572.504 744.607,586.17 748.5,600.5C 748.205,602.735 748.539,604.735 749.5,606.5C 749.5,608.167 749.5,609.833 749.5,611.5C 747.5,611.5 745.5,611.5 743.5,611.5C 742.05,594.648 736.883,578.982 728,564.5C 717.401,546.894 704.234,531.394 688.5,518C 680.023,511.928 670.689,507.762 660.5,505.5C 647.723,503.122 635.723,498.455 624.5,491.5C 624.167,493.5 623.833,495.5 623.5,497.5C 626.957,535.42 628.624,573.42 628.5,611.5C 626.833,611.5 625.167,611.5 623.5,611.5C 623.877,569.406 622.044,527.406 618,485.5C 616.964,480.732 614.13,477.732 609.5,476.5C 606.397,474.616 603.063,473.282 599.5,472.5C 595.535,470.182 591.535,467.848 587.5,465.5C 582.091,462.86 576.424,460.694 570.5,459C 564.042,457.802 557.709,456.136 551.5,454C 543.114,449.807 534.78,445.64 526.5,441.5C 526.44,440.957 526.107,440.624 525.5,440.5C 524.503,447.468 524.17,454.468 524.5,461.5C 522.547,499.54 510.047,533.54 487,563.5C 478.193,573.3 468.36,581.8 457.5,589C 449.883,595.776 443.216,603.276 437.5,611.5C 435.833,611.5 434.167,611.5 432.5,611.5C 441.622,596.544 453.622,584.378 468.5,575C 491.193,554.461 506.36,529.294 514,499.5C 519.171,479.122 521.004,458.455 519.5,437.5C 517.22,436.298 514.886,435.298 512.5,434.5C 509.5,433.167 506.5,431.833 503.5,430.5C 499.774,428.513 495.94,428.18 492,429.5C 500.264,485.06 483.098,530.893 440.5,567C 428.117,575.71 416.617,585.543 406,596.5C 402.214,601.117 399.048,606.117 396.5,611.5C 394.833,611.5 393.167,611.5 391.5,611.5C 394.391,604.053 398.558,597.387 404,591.5C 415.999,579.598 428.832,568.764 442.5,559C 455.643,547.368 466.309,533.868 474.5,518.5C 457.843,517.334 441.177,517.167 424.5,518C 414.361,519.485 405.861,523.985 399,531.5C 400.237,528.224 402.403,525.391 405.5,523C 412.884,517.48 421.217,514.48 430.5,514C 446.177,513.833 461.844,513.333 477.5,512.5C 488.376,488.155 491.71,462.822 487.5,436.5C 481.38,433.356 475.88,429.356 471,424.5C 470.747,427.79 469.747,430.79 468,433.5C 467.333,432.167 466.667,430.833 466,429.5C 465.5,417.838 465.333,406.171 465.5,394.5C 465.832,385.475 465.498,376.475 464.5,367.5C 454.514,382.126 445.014,397.126 436,412.5C 423.739,428.219 407.572,437.052 387.5,439C 367.06,441.75 348.394,437.416 331.5,426C 315.383,404.215 298.883,382.715 282,361.5C 281.172,378.672 281.338,395.672 282.5,412.5C 282.92,419.284 282.42,425.95 281,432.5C 279.556,429.945 278.389,427.279 277.5,424.5C 272.465,429.7 266.965,434.367 261,438.5C 260.505,440.473 260.338,442.473 260.5,444.5C 259.343,453.324 259.176,462.324 260,471.5C 260.429,476.047 261.262,480.381 262.5,484.5C 264.548,494.764 267.882,504.598 272.5,514C 289.338,514.168 306.005,514.668 322.5,515.5C 305.83,515.333 289.163,515.5 272.5,516C 288.833,516.333 305.167,516.667 321.5,517C 305.823,517.167 290.156,517.667 274.5,518.5C 274.624,519.107 274.957,519.44 275.5,519.5C 288.12,542.291 305.454,560.791 327.5,575C 336.704,582.537 344.871,591.037 352,600.5C 354.072,603.971 355.572,607.638 356.5,611.5C 355.167,611.5 353.833,611.5 352.5,611.5C 346.641,600.659 338.974,591.159 329.5,583C 315.832,573.236 302.999,562.402 291,550.5C 260.862,515.632 249.528,475.299 257,429.5C 254.263,428.39 251.429,428.223 248.5,429C 247.058,429.377 246.058,430.21 245.5,431.5C 242.208,431.647 239.208,432.647 236.5,434.5C 234.072,435.212 231.739,436.212 229.5,437.5C 226.136,482.223 237.636,522.556 264,558.5C 269.5,564 275,569.5 280.5,575C 295.378,584.378 307.378,596.544 316.5,611.5C 314.833,611.5 313.167,611.5 311.5,611.5C 301.624,597.791 289.624,586.291 275.5,577C 253.106,556.391 238.272,531.224 231,501.5C 227.574,487.352 225.407,473.018 224.5,458.5C 224.829,452.463 224.496,446.463 223.5,440.5C 222.893,440.624 222.56,440.957 222.5,441.5C 214.886,445.307 207.22,449.14 199.5,453C 189.253,456.25 178.92,459.25 168.5,462C 165.367,462.86 162.7,464.36 160.5,466.5C 156.527,468.487 152.527,470.487 148.5,472.5C 145.162,473.836 141.829,475.169 138.5,476.5C 131.695,480.448 128.862,486.448 130,494.5C 126.486,533.424 124.986,572.424 125.5,611.5C 123.833,611.5 122.167,611.5 120.5,611.5C 120.73,573.269 122.397,535.103 125.5,497C 125.167,495.167 124.833,493.333 124.5,491.5C 114.247,498.023 103.247,502.356 91.5,504.5C 80.2192,506.807 69.8858,511.307 60.5,518C 35.0473,539.73 17.2139,566.564 7,598.5C 5.92456,602.77 5.42456,607.103 5.5,611.5C 3.5,611.5 1.5,611.5 -0.5,611.5C -0.5,609.833 -0.5,608.167 -0.5,606.5C 0.784567,603.411 1.45123,600.078 1.5,596.5C 2.92381,594.485 3.59047,592.152 3.5,589.5C 4.73838,587.786 5.40505,585.786 5.5,583.5C 12.6264,567.912 21.2931,553.246 31.5,539.5C 32.1667,539.5 32.5,539.167 32.5,538.5C 34.137,536.525 35.8036,534.525 37.5,532.5C 38.1667,532.5 38.5,532.167 38.5,531.5C 54.2815,512.268 74.6148,500.768 99.5,497C 108.504,494.331 116.837,490.331 124.5,485C 123.833,484.667 123.167,484.333 122.5,484C 123.701,483.097 124.535,481.931 125,480.5C 125.333,481.167 125.667,481.833 126,482.5C 127.123,479.751 128.623,477.251 130.5,475C 141.657,469.589 152.657,463.922 163.5,458C 173.039,454.865 182.706,452.199 192.5,450C 204.605,444.781 216.272,438.781 227.5,432C 234.833,429 242.167,426 249.5,423C 255.077,421.379 259.411,422.879 262.5,427.5C 262.345,430.853 263.012,431.186 264.5,428.5C 265.5,428.167 266.167,427.5 266.5,426.5C 268.404,426.262 269.738,425.262 270.5,423.5C 271.167,423.5 271.5,423.167 271.5,422.5C 272.167,422.5 272.5,422.167 272.5,421.5C 273.167,421.5 273.5,421.167 273.5,420.5C 274.79,419.942 275.623,418.942 276,417.5C 276.062,395.336 275.562,373.336 274.5,351.5C 274.068,350.29 273.401,349.29 272.5,348.5C 272.672,347.508 272.338,346.842 271.5,346.5C 271.672,345.508 271.338,344.842 270.5,344.5C 270.672,343.508 270.338,342.842 269.5,342.5C 269.672,341.508 269.338,340.842 268.5,340.5C 268.672,339.508 268.338,338.842 267.5,338.5C 267.598,336.447 266.931,334.78 265.5,333.5C 265.405,331.214 264.738,329.214 263.5,327.5C 263.737,326.209 263.404,325.209 262.5,324.5C 262.279,321.933 261.612,319.599 260.5,317.5C 260.435,314.572 259.768,311.905 258.5,309.5C 258.24,304.012 257.24,298.678 255.5,293.5C 247.579,289.746 241.413,284.079 237,276.5C 235.305,267.066 233.805,257.733 232.5,248.5C 232.078,240.321 233.078,232.321 235.5,224.5C 234.802,216.261 233.469,208.261 231.5,200.5C 231.335,197.15 231.502,193.817 232,190.5C 233.738,187.131 234.905,183.631 235.5,180C 235.592,177.179 234.926,174.679 233.5,172.5C 233.167,155.167 232.833,155.167 232.5,172.5C 231.203,165.475 231.203,158.308 232.5,151C 232.101,149.272 231.434,147.772 230.5,146.5C 230.768,144.901 230.434,143.568 229.5,142.5C 229.835,120.824 232.669,99.4904 238,78.5C 239.259,75.6441 240.759,72.9774 242.5,70.5C 243.167,70.5 243.5,70.1667 243.5,69.5C 244.167,69.5 244.5,69.1667 244.5,68.5C 245.167,68.5 245.5,68.1667 245.5,67.5C 246.659,61.7015 248.993,56.3682 252.5,51.5C 253.167,51.5 253.5,51.1667 253.5,50.5C 256.154,46.5368 258.82,42.5368 261.5,38.5C 262.167,38.5 262.5,38.1667 262.5,37.5C 269.228,35.8071 274.562,32.1404 278.5,26.5C 279.167,26.5 279.5,26.1667 279.5,25.5C 281.167,24.5 282.5,23.1667 283.5,21.5C 284.167,21.5 284.5,21.1667 284.5,20.5C 295.735,16.2054 306.735,11.5387 317.5,6.5C 326.764,4.51821 336.097,2.85154 345.5,1.5C 350.629,1.85916 355.629,2.85916 360.5,4.5C 363.889,2.80553 367.222,1.13886 370.5,-0.5 Z M 268.5,423.5 C 269.167,423.5 269.833,423.5 270.5,423.5C 269.738,425.262 268.404,426.262 266.5,426.5C 267.167,425.5 267.833,424.5 268.5,423.5 Z M 262.5,427.5 C 263.167,427.833 263.833,428.167 264.5,428.5C 263.012,431.186 262.345,430.853 262.5,427.5 Z"/></g>
<g><path style="opacity:1" fill="#33211e" d="M 441.5,308.5 C 442.891,310.792 443.891,313.292 444.5,316C 444.333,316.833 444.167,317.667 444,318.5C 443.768,317.263 443.268,316.263 442.5,315.5C 441.679,312.337 440.012,309.67 437.5,307.5C 437.667,307.167 437.833,306.833 438,306.5C 439.113,307.305 440.279,307.972 441.5,308.5 Z"/></g>
<g><path style="opacity:1" fill="#efa095" d="M 504.5,234.5 C 505.496,234.414 506.329,234.748 507,235.5C 507.781,239.969 508.281,244.469 508.5,249C 507.038,258.764 506.205,268.597 506,278.5C 503.982,285.546 499.816,290.88 493.5,294.5C 492.341,290.878 492.175,287.211 493,283.5C 498.191,267.44 502.024,251.107 504.5,234.5 Z"/></g>
<g><path style="opacity:1" fill="#efa096" d="M 236.5,196.5 C 237.931,196.881 238.764,197.881 239,199.5C 240.54,206.202 242.207,212.869 244,219.5C 245.97,222.968 248.136,226.301 250.5,229.5C 249.409,236.136 249.243,242.802 250,249.5C 252.529,262.133 254.529,274.8 256,287.5C 249.279,283.779 244.279,278.446 241,271.5C 240.755,261.73 239.922,252.064 238.5,242.5C 241.276,227.033 240.61,211.699 236.5,196.5 Z"/></g>
<g><path style="opacity:1" fill="#1c110b" d="M 389.5,198.5 C 390.167,199.5 390.833,200.5 391.5,201.5C 393.995,210.81 396.495,220.143 399,229.5C 399.821,236.679 399.655,243.679 398.5,250.5C 395.758,233.122 392.758,215.788 389.5,198.5 Z"/></g>
<g><path style="opacity:1" fill="#ec9993" d="M 500.5,214.5 C 499.109,216.589 498.442,218.922 498.5,221.5C 499.92,230.531 499.753,239.531 498,248.5C 491.291,269.379 486.624,290.712 484,312.5C 480.823,327.034 475.49,340.701 468,353.5C 455.544,371.298 443.877,389.631 433,408.5C 422.408,423.55 407.908,432.05 389.5,434C 377.385,435.073 365.385,434.406 353.5,432C 350.524,431.295 347.858,430.129 345.5,428.5C 347.456,427.522 349.456,426.522 351.5,425.5C 355.123,426.656 358.789,427.656 362.5,428.5C 371.833,429.833 381.167,429.833 390.5,428.5C 403.286,428.873 412.453,423.54 418,412.5C 412.217,419.808 404.717,424.141 395.5,425.5C 399.768,423.087 403.601,419.42 407,414.5C 411,405.833 415,397.167 419,388.5C 427.446,378.052 435.113,367.052 442,355.5C 447.554,343.977 448.887,331.977 446,319.5C 444.989,320.337 443.822,320.67 442.5,320.5C 442.5,318.833 442.5,317.167 442.5,315.5C 443.268,316.263 443.768,317.263 444,318.5C 444.167,317.667 444.333,316.833 444.5,316C 443.891,313.292 442.891,310.792 441.5,308.5C 442.397,307.402 443.23,307.402 444,308.5C 444.862,310.087 445.529,311.754 446,313.5C 446.739,303.184 451.239,295.017 459.5,289C 464.705,287.046 469.705,284.713 474.5,282C 481.427,272.099 483.261,261.266 480,249.5C 478.612,248.446 477.112,248.28 475.5,249C 468.603,256.301 460.103,259.468 450,258.5C 437.015,257.37 424.182,255.204 411.5,252C 407.278,250.974 403.778,248.807 401,245.5C 400.794,248.623 400.127,251.623 399,254.5C 398.51,253.207 398.343,251.873 398.5,250.5C 399.655,243.679 399.821,236.679 399,229.5C 396.495,220.143 393.995,210.81 391.5,201.5C 391.5,199.167 391.5,196.833 391.5,194.5C 391.369,193.624 391.702,192.957 392.5,192.5C 399.002,191.666 405.669,191.666 412.5,192.5C 410.828,195.946 411.161,199.113 413.5,202C 417.598,203.006 421.764,203.506 426,203.5C 435.758,201.801 445.592,200.968 455.5,201C 464.717,201.899 472.717,205.399 479.5,211.5C 480.631,209.926 480.798,208.259 480,206.5C 474.345,197.528 466.178,192.695 455.5,192C 442.857,190.89 430.19,190.39 417.5,190.5C 432.28,168.116 434.447,144.449 424,119.5C 420.325,112.142 416.159,105.142 411.5,98.5C 412.847,99.0283 414.181,99.195 415.5,99C 411.55,96.5641 409.55,93.0641 409.5,88.5C 410.873,88.3433 412.207,88.51 413.5,89C 420.26,96.6025 428.26,102.436 437.5,106.5C 437.833,106.333 438.167,106.167 438.5,106C 433.209,102.26 429.209,97.4271 426.5,91.5C 427.002,90.479 427.668,90.3123 428.5,91C 431.735,94.9414 435.735,97.2747 440.5,98C 439.594,96.3005 439.261,94.4672 439.5,92.5C 448.594,95.0878 455.094,100.754 459,109.5C 463.623,114.389 469.123,117.555 475.5,119C 473.667,117.167 471.833,115.333 470,113.5C 469.409,112.517 469.743,111.85 471,111.5C 476.104,112.62 480.104,115.287 483,119.5C 489.727,131.613 492.394,144.613 491,158.5C 502.626,175.666 505.793,194.333 500.5,214.5 Z"/></g>
<g><path style="opacity:1" fill="#4b2f29" d="M 419.5,236.5 C 419.56,235.957 419.893,235.624 420.5,235.5C 424.98,237.138 429.647,237.971 434.5,238C 429.225,240.216 424.225,239.716 419.5,236.5 Z"/></g>
<g><path style="opacity:1" fill="#1b0f09" d="M 425.5,213.5 C 437.902,212.408 448.235,216.408 456.5,225.5C 456.291,226.086 455.957,226.586 455.5,227C 448.048,229.575 440.382,231.075 432.5,231.5C 423.857,230.465 415.19,229.799 406.5,229.5C 406.393,227.097 407.393,225.264 409.5,224C 414.652,220.255 419.985,216.755 425.5,213.5 Z"/></g>
<g><path style="opacity:1" fill="#e7e6e6" d="M 421.5,222.5 C 421.472,224.582 422.139,226.416 423.5,228C 421.153,228.334 418.819,228.167 416.5,227.5C 416.182,224.471 417.849,222.805 421.5,222.5 Z"/></g>
<g><path style="opacity:1" fill="#edecec" d="M 441.5,220.5 C 443.833,221.167 446.167,221.833 448.5,222.5C 449.782,223.708 449.782,225.042 448.5,226.5C 445.533,228.004 442.533,228.338 439.5,227.5C 440.577,225.271 441.244,222.937 441.5,220.5 Z"/></g>
<g><path style="opacity:1" fill="#a29f9d" d="M 421.5,222.5 C 417.849,222.805 416.182,224.471 416.5,227.5C 414.775,227.157 414.275,226.157 415,224.5C 416.684,222.649 418.517,220.982 420.5,219.5C 421.386,220.325 421.719,221.325 421.5,222.5 Z"/></g>
<g><path style="opacity:1" fill="#535963" d="M 428.5,220.5 C 426.952,220.821 426.285,221.821 426.5,223.5C 427.5,223.5 428.5,223.5 429.5,223.5C 431.124,223.36 432.29,224.027 433,225.5C 435.829,223.238 435.996,220.905 433.5,218.5C 439.383,217.583 440.883,219.916 438,225.5C 434.743,228.428 430.909,229.262 426.5,228C 424.054,225.514 423.388,222.68 424.5,219.5C 426.488,217.853 427.821,218.186 428.5,220.5 Z"/></g>
<g><path style="opacity:1" fill="#f5f4f4" d="M 428.5,220.5 C 429.404,221.209 429.737,222.209 429.5,223.5C 428.5,223.5 427.5,223.5 426.5,223.5C 426.285,221.821 426.952,220.821 428.5,220.5 Z"/></g>
<g><path style="opacity:1" fill="#fba89d" d="M 411.5,98.5 C 416.159,105.142 420.325,112.142 424,119.5C 434.447,144.449 432.28,168.116 417.5,190.5C 415.95,191.441 414.284,192.107 412.5,192.5C 405.669,191.666 399.002,191.666 392.5,192.5C 391.702,192.957 391.369,193.624 391.5,194.5C 390.326,195.514 389.66,196.847 389.5,198.5C 392.758,215.788 395.758,233.122 398.5,250.5C 398.343,251.873 398.51,253.207 399,254.5C 400.127,251.623 400.794,248.623 401,245.5C 403.778,248.807 407.278,250.974 411.5,252C 424.182,255.204 437.015,257.37 450,258.5C 460.103,259.468 468.603,256.301 475.5,249C 477.112,248.28 478.612,248.446 480,249.5C 483.261,261.266 481.427,272.099 474.5,282C 469.705,284.713 464.705,287.046 459.5,289C 451.239,295.017 446.739,303.184 446,313.5C 445.529,311.754 444.862,310.087 444,308.5C 443.23,307.402 442.397,307.402 441.5,308.5C 440.279,307.972 439.113,307.305 438,306.5C 437.833,306.833 437.667,307.167 437.5,307.5C 440.012,309.67 441.679,312.337 442.5,315.5C 442.5,317.167 442.5,318.833 442.5,320.5C 443.822,320.67 444.989,320.337 446,319.5C 448.887,331.977 447.554,343.977 442,355.5C 435.113,367.052 427.446,378.052 419,388.5C 415,397.167 411,405.833 407,414.5C 403.601,419.42 399.768,423.087 395.5,425.5C 383.473,426.972 371.473,426.806 359.5,425C 350.981,423.151 344.147,418.651 339,411.5C 341.519,417.467 345.685,422.134 351.5,425.5C 349.456,426.522 347.456,427.522 345.5,428.5C 337.391,425.233 330.891,419.9 326,412.5C 313.104,393.602 299.437,375.269 285,357.5C 274.725,342.275 267.725,325.609 264,307.5C 262.142,289.298 259.142,271.298 255,253.5C 254.333,245.833 254.333,238.167 255,230.5C 256.623,226.432 257.79,222.265 258.5,218C 258.662,215.498 257.995,213.331 256.5,211.5C 251.945,194.065 254.445,177.731 264,162.5C 262.885,147.064 266.218,132.731 274,119.5C 276.156,116.843 278.656,115.51 281.5,115.5C 280.687,116.814 279.687,117.981 278.5,119C 283.983,116.24 289.316,112.907 294.5,109C 295.167,108.333 295.833,108.333 296.5,109C 295.289,109.893 295.289,110.726 296.5,111.5C 304.129,108.354 311.129,104.187 317.5,99C 320.72,97.4749 324.053,96.8083 327.5,97C 325.844,98.8294 323.844,100.163 321.5,101C 326.385,101.483 330.885,100.317 335,97.5C 335.36,99.6079 336.027,101.608 337,103.5C 341.628,97.9209 347.462,93.9209 354.5,91.5C 355.568,93.1875 355.401,94.8541 354,96.5C 350.919,99.2931 347.419,101.46 343.5,103C 348.825,103.117 353.825,101.784 358.5,99C 362.217,95.6153 366.217,92.6153 370.5,90C 372.473,89.5045 374.473,89.3379 376.5,89.5C 375.452,93.7192 372.785,96.5525 368.5,98C 377.838,97.6797 385.005,93.513 390,85.5C 391.841,89.1832 394.174,92.5165 397,95.5C 396.328,91.8621 396.495,88.1955 397.5,84.5C 399.83,91.4962 404.496,96.1629 411.5,98.5 Z"/></g>
<g><path style="opacity:1" fill="#1e130e" d="M 403.5,343.5 C 393.228,351.519 381.895,353.519 369.5,349.5C 371.626,348.952 373.626,348.285 375.5,347.5C 385.19,348.315 394.523,346.982 403.5,343.5 Z"/></g>
<g><path style="opacity:1" fill="#0f0703" d="M 359.5,344.5 C 364.709,346.135 370.042,347.135 375.5,347.5C 373.626,348.285 371.626,348.952 369.5,349.5C 365.569,348.868 362.235,347.201 359.5,344.5 Z"/></g>
<g><path style="opacity:1" fill="#da897e" d="M 338.5,312.5 C 347.727,313.749 357.06,315.249 366.5,317C 369.244,317.803 371.911,318.803 374.5,320C 380.604,320.623 386.604,320.123 392.5,318.5C 396.182,318.335 399.848,318.501 403.5,319C 402.748,319.671 402.414,320.504 402.5,321.5C 392.921,325.14 382.921,326.306 372.5,325C 361.436,321.234 350.102,318.734 338.5,317.5C 335.305,316.764 331.971,316.097 328.5,315.5C 327.304,315.846 327.304,316.346 328.5,317C 330.345,318.128 332.345,318.628 334.5,318.5C 336.167,318.5 337.833,318.5 339.5,318.5C 339.694,322.248 341.361,324.915 344.5,326.5C 351.232,329.701 357.898,333.201 364.5,337C 376.582,340.466 388.582,340.133 400.5,336C 405.166,332.849 409.832,330.015 414.5,327.5C 417.292,326.608 418.625,324.608 418.5,321.5C 421.518,321.665 424.518,321.498 427.5,321C 422.845,320.501 418.179,320.334 413.5,320.5C 410.482,320.665 407.482,320.498 404.5,320C 405.833,319.333 405.833,318.667 404.5,318C 411.013,317.828 417.347,317.328 423.5,316.5C 426.456,317.137 429.456,317.637 432.5,318C 432.957,318.414 433.291,318.914 433.5,319.5C 424.192,323.967 416.526,330.467 410.5,339C 408.138,340.511 405.805,342.011 403.5,343.5C 394.523,346.982 385.19,348.315 375.5,347.5C 370.042,347.135 364.709,346.135 359.5,344.5C 355.388,342.272 351.388,339.772 347.5,337C 341.273,328.938 333.939,322.105 325.5,316.5C 324.614,315.675 324.281,314.675 324.5,313.5C 329.214,313.647 333.881,313.314 338.5,312.5 Z"/></g>
<g><path style="opacity:1" fill="#1f1816" d="M 344.5,326.5 C 353.446,328.473 362.112,331.306 370.5,335C 378.5,335.667 386.5,335.667 394.5,335C 400.885,331.815 407.552,329.315 414.5,327.5C 409.832,330.015 405.166,332.849 400.5,336C 388.582,340.133 376.582,340.466 364.5,337C 357.898,333.201 351.232,329.701 344.5,326.5 Z"/></g>
<g><path style="opacity:1" fill="#19120e" d="M 334.5,318.5 C 335.568,317.566 336.901,317.232 338.5,317.5C 350.102,318.734 361.436,321.234 372.5,325C 382.921,326.306 392.921,325.14 402.5,321.5C 406.371,321.815 410.038,321.482 413.5,320.5C 418.179,320.334 422.845,320.501 427.5,321C 424.518,321.498 421.518,321.665 418.5,321.5C 418.625,324.608 417.292,326.608 414.5,327.5C 414.99,325.052 414.157,323.385 412,322.5C 403.146,324.589 394.312,326.755 385.5,329C 382.167,329.667 378.833,329.667 375.5,329C 365.548,326.554 355.714,323.721 346,320.5C 341.955,321.48 341.455,323.48 344.5,326.5C 341.361,324.915 339.694,322.248 339.5,318.5C 337.833,318.5 336.167,318.5 334.5,318.5 Z"/></g>
<g><path style="opacity:1" fill="#efefee" d="M 414.5,327.5 C 407.552,329.315 400.885,331.815 394.5,335C 386.5,335.667 378.5,335.667 370.5,335C 362.112,331.306 353.446,328.473 344.5,326.5C 341.455,323.48 341.955,321.48 346,320.5C 355.714,323.721 365.548,326.554 375.5,329C 378.833,329.667 382.167,329.667 385.5,329C 394.312,326.755 403.146,324.589 412,322.5C 414.157,323.385 414.99,325.052 414.5,327.5 Z"/></g>
<g><path style="opacity:1" fill="#a5685f" d="M 418.5,315.5 C 420.216,315.629 421.883,315.962 423.5,316.5C 417.347,317.328 411.013,317.828 404.5,318C 405.833,318.667 405.833,319.333 404.5,320C 407.482,320.498 410.482,320.665 413.5,320.5C 410.038,321.482 406.371,321.815 402.5,321.5C 402.414,320.504 402.748,319.671 403.5,319C 399.848,318.501 396.182,318.335 392.5,318.5C 401.15,317.324 409.816,316.324 418.5,315.5 Z"/></g>
<g><path style="opacity:1" fill="#905b50" d="M 338.5,317.5 C 336.901,317.232 335.568,317.566 334.5,318.5C 332.345,318.628 330.345,318.128 328.5,317C 327.304,316.346 327.304,315.846 328.5,315.5C 331.971,316.097 335.305,316.764 338.5,317.5 Z"/></g>
<g><path style="opacity:1" fill="#180d08" d="M 338.5,312.5 C 352.722,311.332 366.555,312.999 380,317.5C 383.012,317.274 385.845,316.441 388.5,315C 398.505,314.611 408.505,314.778 418.5,315.5C 409.816,316.324 401.15,317.324 392.5,318.5C 386.604,320.123 380.604,320.623 374.5,320C 371.911,318.803 369.244,317.803 366.5,317C 357.06,315.249 347.727,313.749 338.5,312.5 Z"/></g>
<g><path style="opacity:1" fill="#261a17" d="M 318.5,303.5 C 319.239,303.369 319.906,303.536 320.5,304C 316.381,306.739 314.214,310.573 314,315.5C 312.976,310.548 314.476,306.548 318.5,303.5 Z"/></g>
<g><path style="opacity:1" fill="#20130c" d="M 356.5,270.5 C 357.105,273.918 356.271,277.251 354,280.5C 352.123,287.056 353.957,292.223 359.5,296C 357.803,296.384 356.137,296.218 354.5,295.5C 350.424,291.677 348.924,287.011 350,281.5C 352.178,277.806 354.345,274.139 356.5,270.5 Z"/></g>
<g><path style="opacity:1" fill="#190e0a" d="M 405.5,269.5 C 408.831,273 411.998,276.666 415,280.5C 415.966,285.39 415.466,290.057 413.5,294.5C 411.948,295.622 410.282,296.122 408.5,296C 412.259,292.257 413.426,287.757 412,282.5C 409.302,278.633 406.802,274.633 404.5,270.5C 404.624,269.893 404.957,269.56 405.5,269.5 Z"/></g>
<g><path style="opacity:1" fill="#ea9892" d="M 405.5,269.5 C 404.957,269.56 404.624,269.893 404.5,270.5C 406.802,274.633 409.302,278.633 412,282.5C 413.426,287.757 412.259,292.257 408.5,296C 410.282,296.122 411.948,295.622 413.5,294.5C 412.233,298.257 409.566,300.424 405.5,301C 398.189,311.412 388.522,314.412 376.5,310C 372.868,307.37 369.535,304.37 366.5,301C 362.833,300 359.167,299 355.5,298C 354.748,297.329 354.414,296.496 354.5,295.5C 356.137,296.218 357.803,296.384 359.5,296C 353.957,292.223 352.123,287.056 354,280.5C 356.271,277.251 357.105,273.918 356.5,270.5C 356.783,269.711 357.283,269.044 358,268.5C 358.333,270.167 358.667,271.833 359,273.5C 360.734,271.549 362.901,270.549 365.5,270.5C 362.962,280.906 364.962,282.406 371.5,275C 372.448,274.517 373.448,274.351 374.5,274.5C 372.622,289.296 378.955,295.463 393.5,293C 398.747,291.094 401.747,287.427 402.5,282C 400.819,276.148 398.486,270.648 395.5,265.5C 399.259,266.806 402.593,268.14 405.5,269.5 Z"/></g>
<g><path style="opacity:1" fill="#211510" d="M 364.5,295.5 C 365.601,294.402 366.934,294.235 368.5,295C 371.833,297.667 375.167,300.333 378.5,303C 384.317,305.198 389.983,304.865 395.5,302C 398.055,298.741 401.055,296.407 404.5,295C 401.978,299.034 398.978,302.701 395.5,306C 384.221,310.706 375.221,307.872 368.5,297.5C 367.378,296.37 366.044,295.703 364.5,295.5 Z"/></g>
<g><path style="opacity:1" fill="#e99892" d="M 358.5,197.5 C 356.866,203.98 357.366,210.313 360,216.5C 363.026,232.633 356.526,242.133 340.5,245C 332.99,245.562 325.49,245.395 318,244.5C 308.181,245.913 298.347,247.246 288.5,248.5C 285.733,248.214 283.066,247.547 280.5,246.5C 284.739,244.891 288.405,242.558 291.5,239.5C 290.351,237.203 289.185,234.87 288,232.5C 287.2,224.421 287.367,216.421 288.5,208.5C 294.206,204.347 300.539,201.181 307.5,199C 311.689,198.664 315.856,198.164 320,197.5C 331.098,199.468 342.265,200.301 353.5,200C 355.03,198.88 356.697,198.046 358.5,197.5 Z"/></g>
<g><path style="opacity:1" fill="#1b1210" d="M 342.5,233.5 C 344.735,234.248 344.402,235.081 341.5,236C 337.572,237.325 333.572,237.658 329.5,237C 334.244,236.885 338.578,235.718 342.5,233.5 Z"/></g>
<g><path style="opacity:1" fill="#1b110c" d="M 325.5,211.5 C 335.181,210.51 343.181,213.677 349.5,221C 353.652,221.381 355.985,223.547 356.5,227.5C 346.794,227.601 337.128,228.267 327.5,229.5C 324.833,229.333 322.167,229.167 319.5,229C 315.361,228.088 311.361,226.754 307.5,225C 307.043,224.586 306.709,224.086 306.5,223.5C 311.757,217.71 318.091,213.71 325.5,211.5 Z"/></g>
<g><path style="opacity:1" fill="#e6e6e5" d="M 339.5,219.5 C 342.395,220.399 345.062,221.733 347.5,223.5C 345.062,221.733 342.395,220.399 339.5,219.5 Z"/></g>
<g><path style="opacity:1" fill="#ecebea" d="M 319.5,222.5 C 319.539,223.583 319.873,224.583 320.5,225.5C 320,225.833 319.5,226.167 319,226.5C 316.391,226.162 314.224,225.162 312.5,223.5C 314,221.821 315.833,220.488 318,219.5C 318.232,220.737 318.732,221.737 319.5,222.5 Z"/></g>
<g><path style="opacity:1" fill="#9f9c9a" d="M 319.5,222.5 C 318.732,221.737 318.232,220.737 318,219.5C 315.833,220.488 314,221.821 312.5,223.5C 311.475,223.103 311.308,222.437 312,221.5C 313.896,219.47 316.063,217.803 318.5,216.5C 319.466,218.396 319.799,220.396 319.5,222.5 Z"/></g>
<g><path style="opacity:1" fill="#a2a09f" d="M 347.5,223.5 C 345.062,221.733 342.395,220.399 339.5,219.5C 338.972,218.153 338.805,216.819 339,215.5C 342.885,217.168 345.718,219.834 347.5,223.5 Z"/></g>
<g><path style="opacity:1" fill="#4f5661" d="M 325.5,218.5 C 324.167,219.833 324.167,221.167 325.5,222.5C 327.001,224.739 328.334,224.739 329.5,222.5C 330.086,222.709 330.586,223.043 331,223.5C 332.401,221.116 332.901,218.783 332.5,216.5C 338.417,218.345 339.084,221.512 334.5,226C 330.833,226.667 327.167,226.667 323.5,226C 320.294,221.857 320.96,218.69 325.5,216.5C 326.463,216.97 326.463,217.637 325.5,218.5 Z"/></g>
<g><path style="opacity:1" fill="#875443" d="M 513.5,169.5 C 513.666,178.506 513.5,187.506 513,196.5C 512.667,196.833 512.333,197.167 512,197.5C 511.904,194.549 511.071,191.882 509.5,189.5C 508.667,190.5 507.833,191.5 507,192.5C 507.332,203.489 507.332,214.489 507,225.5C 506.632,226.91 505.799,227.91 504.5,228.5C 503.672,224.204 503.172,219.871 503,215.5C 502.329,214.748 501.496,214.414 500.5,214.5C 505.793,194.333 502.626,175.666 491,158.5C 492.394,144.613 489.727,131.613 483,119.5C 480.104,115.287 476.104,112.62 471,111.5C 469.743,111.85 469.409,112.517 470,113.5C 471.833,115.333 473.667,117.167 475.5,119C 469.123,117.555 463.623,114.389 459,109.5C 455.094,100.754 448.594,95.0878 439.5,92.5C 439.261,94.4672 439.594,96.3005 440.5,98C 435.735,97.2747 431.735,94.9414 428.5,91C 427.668,90.3123 427.002,90.479 426.5,91.5C 429.209,97.4271 433.209,102.26 438.5,106C 438.167,106.167 437.833,106.333 437.5,106.5C 428.26,102.436 420.26,96.6025 413.5,89C 412.207,88.51 410.873,88.3433 409.5,88.5C 409.55,93.0641 411.55,96.5641 415.5,99C 414.181,99.195 412.847,99.0283 411.5,98.5C 404.496,96.1629 399.83,91.4962 397.5,84.5C 396.495,88.1955 396.328,91.8621 397,95.5C 394.174,92.5165 391.841,89.1832 390,85.5C 385.005,93.513 377.838,97.6797 368.5,98C 372.785,96.5525 375.452,93.7192 376.5,89.5C 374.473,89.3379 372.473,89.5045 370.5,90C 366.217,92.6153 362.217,95.6153 358.5,99C 353.825,101.784 348.825,103.117 343.5,103C 347.419,101.46 350.919,99.2931 354,96.5C 355.401,94.8541 355.568,93.1875 354.5,91.5C 347.462,93.9209 341.628,97.9209 337,103.5C 336.027,101.608 335.36,99.6079 335,97.5C 330.885,100.317 326.385,101.483 321.5,101C 323.844,100.163 325.844,98.8294 327.5,97C 324.053,96.8083 320.72,97.4749 317.5,99C 311.129,104.187 304.129,108.354 296.5,111.5C 295.289,110.726 295.289,109.893 296.5,109C 295.833,108.333 295.167,108.333 294.5,109C 289.316,112.907 283.983,116.24 278.5,119C 279.687,117.981 280.687,116.814 281.5,115.5C 278.656,115.51 276.156,116.843 274,119.5C 266.218,132.731 262.885,147.064 264,162.5C 254.445,177.731 251.945,194.065 256.5,211.5C 255.542,211.953 254.708,212.619 254,213.5C 253.802,216.702 252.969,219.702 251.5,222.5C 250.139,220.972 248.972,219.305 248,217.5C 246.812,211.387 245.312,205.387 243.5,199.5C 245.48,198.152 246.647,196.152 247,193.5C 246.12,183.872 245.787,174.205 246,164.5C 248.79,156.35 250.456,148.016 251,139.5C 246.793,143.767 245.459,142.767 247,136.5C 249.194,133.446 250.861,130.112 252,126.5C 252.333,119.833 252.667,113.167 253,106.5C 259.898,100.708 264.231,93.3743 266,84.5C 268.921,82.2879 272.088,80.4545 275.5,79C 277.795,75.7026 280.462,72.7026 283.5,70C 286.191,70.4683 288.858,71.3016 291.5,72.5C 294.399,72.3839 296.732,71.2173 298.5,69C 295.66,64.7693 296.993,62.436 302.5,62C 310.684,59.6019 319.017,58.6019 327.5,59C 324.758,60.8864 323.091,63.3864 322.5,66.5C 325.85,66.665 329.183,66.4983 332.5,66C 338.817,62.6721 345.484,60.3388 352.5,59C 349.433,56.0288 347.6,52.5288 347,48.5C 349.364,50.3628 351.864,52.0295 354.5,53.5C 355.411,49.8344 355.578,46.1677 355,42.5C 356.763,45.0196 358.763,47.3529 361,49.5C 361.167,48.8333 361.333,48.1667 361.5,47.5C 359.516,42.544 357.349,37.8773 355,33.5C 362.89,38.7348 367.557,46.0681 369,55.5C 369.333,51.5 369.667,47.5 370,43.5C 371.353,44.6853 372.52,46.0186 373.5,47.5C 376.844,43.4857 378.677,38.819 379,33.5C 380.771,40.1643 380.604,46.831 378.5,53.5C 378.833,53.8333 379.167,54.1667 379.5,54.5C 381.651,52.2277 383.151,49.561 384,46.5C 384.528,42.0566 385.528,37.7232 387,33.5C 387.934,37.6366 389.268,41.6366 391,45.5C 391.173,41.2815 392.173,37.2815 394,33.5C 394.897,36.2924 396.063,38.9591 397.5,41.5C 400.546,38.6149 403.046,35.2816 405,31.5C 405.542,34.7981 405.042,37.9648 403.5,41C 401.198,44.7647 399.365,48.598 398,52.5C 402.333,49.5 406,45.8333 409,41.5C 406.922,45.6567 404.755,49.9901 402.5,54.5C 402.833,54.8333 403.167,55.1667 403.5,55.5C 410.587,51.5414 417.42,47.2081 424,42.5C 421.488,46.1899 419.488,50.1899 418,54.5C 421.297,51.4278 425.13,49.9278 429.5,50C 425.686,52.6465 422.353,55.8132 419.5,59.5C 422.785,60.3236 426.118,60.8236 429.5,61C 423.847,62.8225 418.847,65.6559 414.5,69.5C 423.548,70.5758 432.215,69.0758 440.5,65C 445.111,63.993 449.445,64.6597 453.5,67C 444.999,67.3722 437.332,70.0389 430.5,75C 442.162,74.8338 453.828,74.8338 465.5,75C 471.247,77.0789 475.414,80.9122 478,86.5C 478.186,84.0995 478.686,81.7662 479.5,79.5C 481.483,80.982 483.316,82.6487 485,84.5C 485.11,81.3543 486.443,80.3543 489,81.5C 493.563,92.4193 496.563,103.753 498,115.5C 499.459,118.756 501.626,121.423 504.5,123.5C 505.281,122.271 505.781,120.938 506,119.5C 509.237,126.116 510.737,133.116 510.5,140.5C 509.762,148.163 509.595,155.83 510,163.5C 510.424,166.025 511.59,168.025 513.5,169.5 Z"/></g>
<g><path style="opacity:1" fill="#a09d9b" d="M 448.5,222.5 C 446.167,221.833 443.833,221.167 441.5,220.5C 440.438,219.425 440.438,218.425 441.5,217.5C 444.43,218.453 446.763,220.12 448.5,222.5 Z"/></g>
<g><path style="opacity:1" fill="#e5e4e3" d="M 325.5,218.5 C 326.586,218.62 327.253,219.287 327.5,220.5C 327.253,221.713 326.586,222.38 325.5,222.5C 324.167,221.167 324.167,219.833 325.5,218.5 Z"/></g>
<g><path style="opacity:1" fill="#412924" d="M 349.5,212.5 C 351.544,213.031 353.211,214.198 354.5,216C 352.228,215.923 350.562,214.757 349.5,212.5 Z"/></g>
<g><path style="opacity:1" fill="#130b07" d="M 423.5,208.5 C 438.775,205.979 451.442,210.479 461.5,222C 460.833,222.667 460.167,222.667 459.5,222C 446.993,210.151 432.66,207.318 416.5,213.5C 415.304,213.154 415.304,212.654 416.5,212C 418.925,210.787 421.259,209.621 423.5,208.5 Z"/></g>
<g><path style="opacity:1" fill="#1a0f0a" d="M 349.5,212.5 C 340.901,208.745 331.901,207.578 322.5,209C 315.834,210.677 309.834,213.343 304.5,217C 316.408,205.365 330.075,202.698 345.5,209C 347.324,209.66 348.657,210.827 349.5,212.5 Z"/></g>
<g><path style="opacity:1" fill="#72473f" d="M 391.5,194.5 C 391.5,196.833 391.5,199.167 391.5,201.5C 390.833,200.5 390.167,199.5 389.5,198.5C 389.66,196.847 390.326,195.514 391.5,194.5 Z"/></g>
<g><path style="opacity:1" fill="#c28973" d="M 417.5,190.5 C 430.19,190.39 442.857,190.89 455.5,192C 466.178,192.695 474.345,197.528 480,206.5C 480.798,208.259 480.631,209.926 479.5,211.5C 472.717,205.399 464.717,201.899 455.5,201C 445.592,200.968 435.758,201.801 426,203.5C 421.764,203.506 417.598,203.006 413.5,202C 411.161,199.113 410.828,195.946 412.5,192.5C 414.284,192.107 415.95,191.441 417.5,190.5 Z"/></g>
<g><path style="opacity:1" fill="#c38973" d="M 358.5,197.5 C 356.697,198.046 355.03,198.88 353.5,200C 342.265,200.301 331.098,199.468 320,197.5C 315.856,198.164 311.689,198.664 307.5,199C 300.539,201.181 294.206,204.347 288.5,208.5C 289.461,204.113 291.461,200.279 294.5,197C 300.661,192.087 307.661,189.087 315.5,188C 328.867,187.168 342.201,187.501 355.5,189C 357.93,191.305 358.93,194.138 358.5,197.5 Z"/></g>
<g><path style="opacity:1" fill="#ae7460" d="M 513.5,169.5 C 511.59,168.025 510.424,166.025 510,163.5C 509.595,155.83 509.762,148.163 510.5,140.5C 510.737,133.116 509.237,126.116 506,119.5C 505.781,120.938 505.281,122.271 504.5,123.5C 501.626,121.423 499.459,118.756 498,115.5C 496.563,103.753 493.563,92.4193 489,81.5C 486.443,80.3543 485.11,81.3543 485,84.5C 483.316,82.6487 481.483,80.982 479.5,79.5C 478.686,81.7662 478.186,84.0995 478,86.5C 475.414,80.9122 471.247,77.0789 465.5,75C 453.828,74.8338 442.162,74.8338 430.5,75C 437.332,70.0389 444.999,67.3722 453.5,67C 449.445,64.6597 445.111,63.993 440.5,65C 432.215,69.0758 423.548,70.5758 414.5,69.5C 418.847,65.6559 423.847,62.8225 429.5,61C 426.118,60.8236 422.785,60.3236 419.5,59.5C 422.353,55.8132 425.686,52.6465 429.5,50C 425.13,49.9278 421.297,51.4278 418,54.5C 419.488,50.1899 421.488,46.1899 424,42.5C 417.42,47.2081 410.587,51.5414 403.5,55.5C 403.167,55.1667 402.833,54.8333 402.5,54.5C 404.755,49.9901 406.922,45.6567 409,41.5C 406,45.8333 402.333,49.5 398,52.5C 399.365,48.598 401.198,44.7647 403.5,41C 405.042,37.9648 405.542,34.7981 405,31.5C 403.046,35.2816 400.546,38.6149 397.5,41.5C 396.063,38.9591 394.897,36.2924 394,33.5C 392.173,37.2815 391.173,41.2815 391,45.5C 389.268,41.6366 387.934,37.6366 387,33.5C 385.528,37.7232 384.528,42.0566 384,46.5C 383.151,49.561 381.651,52.2277 379.5,54.5C 379.167,54.1667 378.833,53.8333 378.5,53.5C 380.604,46.831 380.771,40.1643 379,33.5C 378.677,38.819 376.844,43.4857 373.5,47.5C 372.52,46.0186 371.353,44.6853 370,43.5C 369.667,47.5 369.333,51.5 369,55.5C 367.557,46.0681 362.89,38.7348 355,33.5C 357.349,37.8773 359.516,42.544 361.5,47.5C 361.333,48.1667 361.167,48.8333 361,49.5C 358.763,47.3529 356.763,45.0196 355,42.5C 355.578,46.1677 355.411,49.8344 354.5,53.5C 351.864,52.0295 349.364,50.3628 347,48.5C 347.6,52.5288 349.433,56.0288 352.5,59C 345.484,60.3388 338.817,62.6721 332.5,66C 329.183,66.4983 325.85,66.665 322.5,66.5C 323.091,63.3864 324.758,60.8864 327.5,59C 319.017,58.6019 310.684,59.6019 302.5,62C 296.993,62.436 295.66,64.7693 298.5,69C 296.732,71.2173 294.399,72.3839 291.5,72.5C 288.858,71.3016 286.191,70.4683 283.5,70C 280.462,72.7026 277.795,75.7026 275.5,79C 272.088,80.4545 268.921,82.2879 266,84.5C 264.231,93.3743 259.898,100.708 253,106.5C 252.667,113.167 252.333,119.833 252,126.5C 250.861,130.112 249.194,133.446 247,136.5C 245.459,142.767 246.793,143.767 251,139.5C 250.456,148.016 248.79,156.35 246,164.5C 245.787,174.205 246.12,183.872 247,193.5C 246.647,196.152 245.48,198.152 243.5,199.5C 240.435,191.214 239.768,182.714 241.5,174C 241.333,172.5 241.167,171 241,169.5C 240.586,169.957 240.086,170.291 239.5,170.5C 238.462,165.69 238.462,160.856 239.5,156C 239.332,151.831 238.165,147.997 236,144.5C 234.936,124.943 236.603,105.609 241,86.5C 243.133,78.366 247.633,71.866 254.5,67C 252.637,65.5822 252.137,63.7489 253,61.5C 256.834,56.503 260.167,51.1697 263,45.5C 266.91,41.7916 271.41,38.9583 276.5,37C 281.573,31.2561 287.24,26.2561 293.5,22C 302.388,19.2217 311.055,15.8884 319.5,12C 323.943,11.4725 328.277,10.4725 332.5,9C 343.162,6.39465 353.495,7.22799 363.5,11.5C 364.5,11.3333 365.5,11.1667 366.5,11C 365.549,10.2825 365.383,9.44915 366,8.5C 369.8,5.43368 374.133,4.10034 379,4.5C 388.492,5.13602 397.992,5.63602 407.5,6C 416.54,10.708 426.206,13.0414 436.5,13C 442.484,18.3292 449.151,22.6625 456.5,26C 461.362,30.5618 464.529,36.0618 466,42.5C 466.906,40.388 468.406,39.5547 470.5,40C 480.345,49.1787 489.511,59.0121 498,69.5C 499.604,74.9773 501.604,80.3106 504,85.5C 504.497,87.8098 504.663,90.1432 504.5,92.5C 502.473,92.3379 500.473,92.5045 498.5,93C 502.298,99.7119 506.465,106.212 511,112.5C 512.399,115.363 513.399,118.363 514,121.5C 514.771,128.481 515.271,135.481 515.5,142.5C 514.346,151.454 513.68,160.454 513.5,169.5 Z"/></g>
<g><path style="opacity:0.004" fill="#130100" d="M 476.5,350.5 C 476.833,350.5 477.167,350.5 477.5,350.5C 477.167,353.167 476.833,353.167 476.5,350.5 Z"/></g>
<g><path style="opacity:0.004" fill="#010000" d="M 274.5,351.5 C 274.667,367.837 274.5,384.17 274,400.5C 273.172,383.995 273.338,367.661 274.5,351.5 Z"/></g>
<g><path style="opacity:0.016" fill="#260300" d="M 472.5,357.5 C 473.833,358.167 473.833,358.167 472.5,357.5 Z"/></g>
<g><path style="opacity:0.016" fill="#220200" d="M 471.5,358.5 C 471.833,358.5 472.167,358.5 472.5,358.5C 472.167,386.5 471.833,386.5 471.5,358.5 Z"/></g>
<g><path style="opacity:1" fill="#e18f8c" d="M 465.5,394.5 C 460.84,398 457.007,402.333 454,407.5C 449.136,416.562 444.803,425.896 441,435.5C 429.058,454.23 411.891,464.397 389.5,466C 372.767,467.862 356.434,466.196 340.5,461C 330.831,456.998 323.331,450.498 318,441.5C 312.758,427.682 306.425,414.348 299,401.5C 294.902,395.401 289.569,390.734 283,387.5C 282.5,395.827 282.334,404.16 282.5,412.5C 281.338,395.672 281.172,378.672 282,361.5C 298.883,382.715 315.383,404.215 331.5,426C 348.394,437.416 367.06,441.75 387.5,439C 407.572,437.052 423.739,428.219 436,412.5C 445.014,397.126 454.514,382.126 464.5,367.5C 465.498,376.475 465.832,385.475 465.5,394.5 Z"/></g>
<g><path style="opacity:1" fill="#4f322b" d="M 373.5,374.5 C 380.042,373.989 386.376,374.822 392.5,377C 384.329,376.297 376.162,376.464 368,377.5C 367.5,377.333 367,377.167 366.5,377C 368.927,376.098 371.26,375.264 373.5,374.5 Z"/></g>
<g><path style="opacity:1" fill="#faa89d" d="M 465.5,394.5 C 465.333,406.171 465.5,417.838 466,429.5C 466.667,430.833 467.333,432.167 468,433.5C 469.747,430.79 470.747,427.79 471,424.5C 475.88,429.356 481.38,433.356 487.5,436.5C 491.71,462.822 488.376,488.155 477.5,512.5C 461.844,513.333 446.177,513.833 430.5,514C 421.217,514.48 412.884,517.48 405.5,523C 402.403,525.391 400.237,528.224 399,531.5C 405.861,523.985 414.361,519.485 424.5,518C 441.177,517.167 457.843,517.334 474.5,518.5C 466.309,533.868 455.643,547.368 442.5,559C 428.832,568.764 415.999,579.598 404,591.5C 398.558,597.387 394.391,604.053 391.5,611.5C 379.833,611.5 368.167,611.5 356.5,611.5C 355.572,607.638 354.072,603.971 352,600.5C 344.871,591.037 336.704,582.537 327.5,575C 305.454,560.791 288.12,542.291 275.5,519.5C 290.991,518.504 306.658,518.17 322.5,518.5C 333.168,519.11 342.335,523.11 350,530.5C 350.667,529.833 350.667,529.167 350,528.5C 344.94,522.89 338.773,519.223 331.5,517.5C 328.829,515.882 325.829,515.215 322.5,515.5C 306.005,514.668 289.338,514.168 272.5,514C 267.882,504.598 264.548,494.764 262.5,484.5C 262.433,482.599 262.767,480.766 263.5,479C 261.968,476.039 261.134,472.872 261,469.5C 260.5,461.173 260.334,452.84 260.5,444.5C 260.338,442.473 260.505,440.473 261,438.5C 266.965,434.367 272.465,429.7 277.5,424.5C 278.389,427.279 279.556,429.945 281,432.5C 282.42,425.95 282.92,419.284 282.5,412.5C 282.334,404.16 282.5,395.827 283,387.5C 289.569,390.734 294.902,395.401 299,401.5C 306.425,414.348 312.758,427.682 318,441.5C 323.331,450.498 330.831,456.998 340.5,461C 356.434,466.196 372.767,467.862 389.5,466C 411.891,464.397 429.058,454.23 441,435.5C 444.803,425.896 449.136,416.562 454,407.5C 457.007,402.333 460.84,398 465.5,394.5 Z"/></g>
<g><path style="opacity:0.004" fill="#000000" d="M 273.5,420.5 C 272.833,420.5 272.5,420.833 272.5,421.5C 271.833,421.5 271.5,421.833 271.5,422.5C 270.833,422.5 270.5,422.833 270.5,423.5C 269.833,423.5 269.167,423.5 268.5,423.5C 269.793,421.704 271.293,420.037 273,418.5C 273.464,419.094 273.631,419.761 273.5,420.5 Z"/></g>
<g><path style="opacity:0.004" fill="#160100" d="M 477.5,422.5 C 478.497,421.287 479.497,421.454 480.5,423C 479.906,423.464 479.239,423.631 478.5,423.5C 477.833,423.5 477.5,423.167 477.5,422.5 Z"/></g>
<g><path style="opacity:1" fill="#170c08" d="M 395.5,425.5 C 404.717,424.141 412.217,419.808 418,412.5C 412.453,423.54 403.286,428.873 390.5,428.5C 381.314,427.265 371.981,427.265 362.5,428.5C 358.789,427.656 355.123,426.656 351.5,425.5C 345.685,422.134 341.519,417.467 339,411.5C 344.147,418.651 350.981,423.151 359.5,425C 371.473,426.806 383.473,426.972 395.5,425.5 Z"/></g>
<g><path style="opacity:0.016" fill="#210200" d="M 486.5,427.5 C 485.833,427.5 485.167,427.5 484.5,427.5C 485.548,425.067 486.214,425.067 486.5,427.5 Z"/></g>
<g><path style="opacity:0.016" fill="#1e0200" d="M 232.5,428.5 C 232.897,427.475 233.563,427.308 234.5,428C 233.906,428.464 233.239,428.631 232.5,428.5 Z"/></g>
<g><path style="opacity:1" fill="#2b1912" d="M 390.5,428.5 C 381.167,429.833 371.833,429.833 362.5,428.5C 371.981,427.265 381.314,427.265 390.5,428.5 Z"/></g>
<g><path style="opacity:1" fill="#0a8141" d="M 352.5,611.5 C 348.167,611.5 343.833,611.5 339.5,611.5C 337.112,605.727 333.945,600.393 330,595.5C 318.742,582.647 305.909,571.814 291.5,563C 268.63,541.766 254.796,515.6 250,484.5C 246.641,466.995 245.141,449.328 245.5,431.5C 246.058,430.21 247.058,429.377 248.5,429C 251.429,428.223 254.263,428.39 257,429.5C 249.528,475.299 260.862,515.632 291,550.5C 302.999,562.402 315.832,573.236 329.5,583C 338.974,591.159 346.641,600.659 352.5,611.5 Z"/></g>
<g><path style="opacity:1" fill="#088141" d="M 503.5,430.5 C 504.807,467.93 496.974,503.263 480,536.5C 469.073,553.428 454.906,566.928 437.5,577C 427.918,584.579 419.752,593.413 413,603.5C 411.519,606.11 410.352,608.777 409.5,611.5C 405.167,611.5 400.833,611.5 396.5,611.5C 399.048,606.117 402.214,601.117 406,596.5C 416.617,585.543 428.117,575.71 440.5,567C 483.098,530.893 500.264,485.06 492,429.5C 495.94,428.18 499.774,428.513 503.5,430.5 Z"/></g>
<g><path style="opacity:1" fill="#e3e3df" d="M 245.5,431.5 C 245.141,449.328 246.641,466.995 250,484.5C 254.796,515.6 268.63,541.766 291.5,563C 305.909,571.814 318.742,582.647 330,595.5C 333.945,600.393 337.112,605.727 339.5,611.5C 336.167,611.5 332.833,611.5 329.5,611.5C 324.743,602.538 318.409,594.705 310.5,588C 301.782,580.948 292.782,574.281 283.5,568C 261.727,546.963 247.893,521.463 242,491.5C 238.094,472.703 236.261,453.703 236.5,434.5C 239.208,432.647 242.208,431.647 245.5,431.5 Z"/></g>
<g><path style="opacity:1" fill="#e2e3df" d="M 503.5,430.5 C 506.5,431.833 509.5,433.167 512.5,434.5C 513.178,469.108 506.345,502.108 492,533.5C 485.32,546.015 476.82,557.181 466.5,567C 451.953,576.041 438.786,586.875 427,599.5C 423.727,603.052 421.227,607.052 419.5,611.5C 416.167,611.5 412.833,611.5 409.5,611.5C 410.352,608.777 411.519,606.11 413,603.5C 419.752,593.413 427.918,584.579 437.5,577C 454.906,566.928 469.073,553.428 480,536.5C 496.974,503.263 504.807,467.93 503.5,430.5 Z"/></g>
<g><path style="opacity:1" fill="#098141" d="M 236.5,434.5 C 236.261,453.703 238.094,472.703 242,491.5C 247.893,521.463 261.727,546.963 283.5,568C 292.782,574.281 301.782,580.948 310.5,588C 318.409,594.705 324.743,602.538 329.5,611.5C 325.167,611.5 320.833,611.5 316.5,611.5C 307.378,596.544 295.378,584.378 280.5,575C 275,569.5 269.5,564 264,558.5C 237.636,522.556 226.136,482.223 229.5,437.5C 231.739,436.212 234.072,435.212 236.5,434.5 Z"/></g>
<g><path style="opacity:1" fill="#088141" d="M 512.5,434.5 C 514.886,435.298 517.22,436.298 519.5,437.5C 521.004,458.455 519.171,479.122 514,499.5C 506.36,529.294 491.193,554.461 468.5,575C 453.622,584.378 441.622,596.544 432.5,611.5C 428.167,611.5 423.833,611.5 419.5,611.5C 421.227,607.052 423.727,603.052 427,599.5C 438.786,586.875 451.953,576.041 466.5,567C 476.82,557.181 485.32,546.015 492,533.5C 506.345,502.108 513.178,469.108 512.5,434.5 Z"/></g>
<g><path style="opacity:0.016" fill="#260300" d="M 209.5,439.5 C 210.833,440.167 210.833,440.167 209.5,439.5 Z"/></g>
<g><path style="opacity:1" fill="#868381" d="M 222.5,441.5 C 222.56,440.957 222.893,440.624 223.5,440.5C 224.496,446.463 224.829,452.463 224.5,458.5C 223.833,452.833 223.167,447.167 222.5,441.5 Z"/></g>
<g><path style="opacity:1" fill="#e9e7e4" d="M 222.5,441.5 C 223.167,447.167 223.833,452.833 224.5,458.5C 225.407,473.018 227.574,487.352 231,501.5C 238.272,531.224 253.106,556.391 275.5,577C 289.624,586.291 301.624,597.791 311.5,611.5C 259.833,611.5 208.167,611.5 156.5,611.5C 153.678,591.947 152.844,572.281 154,552.5C 155.595,523.785 157.762,495.118 160.5,466.5C 162.7,464.36 165.367,462.86 168.5,462C 178.92,459.25 189.253,456.25 199.5,453C 207.22,449.14 214.886,445.307 222.5,441.5 Z"/></g>
<g><path style="opacity:1" fill="#e9e7e5" d="M 526.5,441.5 C 534.78,445.64 543.114,449.807 551.5,454C 557.709,456.136 564.042,457.802 570.5,459C 576.424,460.694 582.091,462.86 587.5,465.5C 592.408,508.701 594.575,552.034 594,595.5C 593.639,600.924 592.805,606.257 591.5,611.5C 540.167,611.5 488.833,611.5 437.5,611.5C 443.216,603.276 449.883,595.776 457.5,589C 468.36,581.8 478.193,573.3 487,563.5C 510.047,533.54 522.547,499.54 524.5,461.5C 525.167,454.833 525.833,448.167 526.5,441.5 Z"/></g>
<g><path style="opacity:1" fill="#959290" d="M 526.5,441.5 C 525.833,448.167 525.167,454.833 524.5,461.5C 524.17,454.468 524.503,447.468 525.5,440.5C 526.107,440.624 526.44,440.957 526.5,441.5 Z"/></g>
<g><path style="opacity:0.016" fill="#1e0200" d="M 196.5,446.5 C 196.897,445.475 197.563,445.308 198.5,446C 197.906,446.464 197.239,446.631 196.5,446.5 Z"/></g>
<g><path style="opacity:0.016" fill="#1e0200" d="M 189.5,449.5 C 189.897,448.475 190.563,448.308 191.5,449C 190.906,449.464 190.239,449.631 189.5,449.5 Z"/></g>
<g><path style="opacity:0.016" fill="#260300" d="M 582.5,456.5 C 582.897,455.475 583.563,455.308 584.5,456C 583.906,456.464 583.239,456.631 582.5,456.5 Z"/></g>
<g><path style="opacity:0.016" fill="#1e0200" d="M 148.5,464.5 C 148.897,463.475 149.563,463.308 150.5,464C 149.906,464.464 149.239,464.631 148.5,464.5 Z"/></g>
<g><path style="opacity:0.004" fill="#130100" d="M 600.5,465.5 C 600.897,464.475 601.563,464.308 602.5,465C 601.906,465.464 601.239,465.631 600.5,465.5 Z"/></g>
<g><path style="opacity:0.016" fill="#260300" d="M 606.5,468.5 C 606.897,467.475 607.563,467.308 608.5,468C 607.906,468.464 607.239,468.631 606.5,468.5 Z"/></g>
<g><path style="opacity:1" fill="#0a8441" d="M 160.5,466.5 C 157.762,495.118 155.595,523.785 154,552.5C 152.844,572.281 153.678,591.947 156.5,611.5C 152.5,611.5 148.5,611.5 144.5,611.5C 142.776,565.084 144.11,518.751 148.5,472.5C 152.527,470.487 156.527,468.487 160.5,466.5 Z"/></g>
<g><path style="opacity:0.004" fill="#130100" d="M 609.5,469.5 C 609.897,468.475 610.563,468.308 611.5,469C 610.906,469.464 610.239,469.631 609.5,469.5 Z"/></g>
<g><path style="opacity:1" fill="#0d8442" d="M 587.5,465.5 C 591.535,467.848 595.535,470.182 599.5,472.5C 604.325,518.733 605.658,565.067 603.5,611.5C 599.5,611.5 595.5,611.5 591.5,611.5C 592.805,606.257 593.639,600.924 594,595.5C 594.575,552.034 592.408,508.701 587.5,465.5 Z"/></g>
<g><path style="opacity:1" fill="#e2e2de" d="M 599.5,472.5 C 603.063,473.282 606.397,474.616 609.5,476.5C 610.443,487.482 611.11,498.482 611.5,509.5C 611.472,520.694 612.139,531.694 613.5,542.5C 614.713,565.467 614.713,588.467 613.5,611.5C 610.167,611.5 606.833,611.5 603.5,611.5C 605.658,565.067 604.325,518.733 599.5,472.5 Z"/></g>
<g><path style="opacity:1" fill="#e0e1dc" d="M 148.5,472.5 C 144.11,518.751 142.776,565.084 144.5,611.5C 141.167,611.5 137.833,611.5 134.5,611.5C 132.738,566.414 134.071,521.414 138.5,476.5C 141.829,475.169 145.162,473.836 148.5,472.5 Z"/></g>
<g><path style="opacity:1" fill="#c48077" d="M 260.5,444.5 C 260.334,452.84 260.5,461.173 261,469.5C 261.134,472.872 261.968,476.039 263.5,479C 262.767,480.766 262.433,482.599 262.5,484.5C 261.262,480.381 260.429,476.047 260,471.5C 259.176,462.324 259.343,453.324 260.5,444.5 Z"/></g>
<g><path style="opacity:1" fill="#068140" d="M 609.5,476.5 C 614.13,477.732 616.964,480.732 618,485.5C 622.044,527.406 623.877,569.406 623.5,611.5C 620.167,611.5 616.833,611.5 613.5,611.5C 614.713,588.467 614.713,565.467 613.5,542.5C 613.601,531.302 612.934,520.302 611.5,509.5C 611.11,498.482 610.443,487.482 609.5,476.5 Z"/></g>
<g><path style="opacity:1" fill="#07803f" d="M 138.5,476.5 C 134.071,521.414 132.738,566.414 134.5,611.5C 131.5,611.5 128.5,611.5 125.5,611.5C 124.986,572.424 126.486,533.424 130,494.5C 128.862,486.448 131.695,480.448 138.5,476.5 Z"/></g>
<g><path style="opacity:0.016" fill="#1b0100" d="M 624.5,484.5 C 623.833,484.5 623.5,484.167 623.5,483.5C 623.351,482.448 623.517,481.448 624,480.5C 624.465,481.931 625.299,483.097 626.5,484C 625.906,484.464 625.239,484.631 624.5,484.5 Z"/></g>
<g><path style="opacity:1" fill="#eb9993" d="M 660.5,505.5 C 656.107,505.457 655.774,505.957 659.5,507C 657.087,507.484 654.754,507.15 652.5,506C 656.186,504.801 655.853,504.467 651.5,505C 649.348,507.469 647.848,510.302 647,513.5C 646.333,518.167 646.333,522.833 647,527.5C 649.323,534.819 651.657,542.153 654,549.5C 654.876,556.316 654.21,562.983 652,569.5C 647.651,578.198 643.318,586.864 639,595.5C 637.038,600.656 636.205,605.989 636.5,611.5C 633.833,611.5 631.167,611.5 628.5,611.5C 628.624,573.42 626.957,535.42 623.5,497.5C 623.833,495.5 624.167,493.5 624.5,491.5C 635.723,498.455 647.723,503.122 660.5,505.5 Z"/></g>
<g><path style="opacity:1" fill="#ea9892" d="M 120.5,611.5 C 117.5,611.5 114.5,611.5 111.5,611.5C 111.622,606.768 111.122,602.102 110,597.5C 106.194,588.554 101.861,579.888 97,571.5C 93.4664,563.371 92.7997,555.038 95,546.5C 100.363,535.749 102.363,524.415 101,512.5C 99.8773,509.751 98.3773,507.251 96.5,505C 94.8659,504.506 93.1992,504.34 91.5,504.5C 103.247,502.356 114.247,498.023 124.5,491.5C 124.833,493.333 125.167,495.167 125.5,497C 122.397,535.103 120.73,573.269 120.5,611.5 Z"/></g>
<g><path style="opacity:0.016" fill="#1c0100" d="M 649.5,496.5 C 650.601,495.402 651.934,495.235 653.5,496C 652.207,496.49 650.873,496.657 649.5,496.5 Z"/></g>
<g><path style="opacity:0.016" fill="#200200" d="M 89.5,497.5 C 90.9464,496.387 92.6131,496.22 94.5,497C 92.8659,497.494 91.1992,497.66 89.5,497.5 Z"/></g>
<g><path style="opacity:0.016" fill="#220200" d="M 654.5,497.5 C 655.601,496.402 656.934,496.235 658.5,497C 657.207,497.49 655.873,497.657 654.5,497.5 Z"/></g>
<g><path style="opacity:1" fill="#fba89d" d="M 91.5,504.5 C 93.1992,504.34 94.8659,504.506 96.5,505C 98.3773,507.251 99.8773,509.751 101,512.5C 102.363,524.415 100.363,535.749 95,546.5C 92.7997,555.038 93.4664,563.371 97,571.5C 101.861,579.888 106.194,588.554 110,597.5C 111.122,602.102 111.622,606.768 111.5,611.5C 76.1667,611.5 40.8333,611.5 5.5,611.5C 5.42456,607.103 5.92456,602.77 7,598.5C 17.2139,566.564 35.0473,539.73 60.5,518C 69.8858,511.307 80.2192,506.807 91.5,504.5 Z"/></g>
<g><path style="opacity:1" fill="#fba89d" d="M 660.5,505.5 C 670.689,507.762 680.023,511.928 688.5,518C 704.234,531.394 717.401,546.894 728,564.5C 736.883,578.982 742.05,594.648 743.5,611.5C 707.833,611.5 672.167,611.5 636.5,611.5C 636.205,605.989 637.038,600.656 639,595.5C 643.318,586.864 647.651,578.198 652,569.5C 654.21,562.983 654.876,556.316 654,549.5C 651.657,542.153 649.323,534.819 647,527.5C 646.333,522.833 646.333,518.167 647,513.5C 647.848,510.302 649.348,507.469 651.5,505C 655.853,504.467 656.186,504.801 652.5,506C 654.754,507.15 657.087,507.484 659.5,507C 655.774,505.957 656.107,505.457 660.5,505.5 Z"/></g>
<g><path style="opacity:1" fill="#392017" d="M 322.5,515.5 C 325.829,515.215 328.829,515.882 331.5,517.5C 328.523,517.52 325.523,517.853 322.5,518.5C 306.658,518.17 290.991,518.504 275.5,519.5C 274.957,519.44 274.624,519.107 274.5,518.5C 290.156,517.667 305.823,517.167 321.5,517C 305.167,516.667 288.833,516.333 272.5,516C 289.163,515.5 305.83,515.333 322.5,515.5 Z"/></g>
<g><path style="opacity:1" fill="#1d120e" d="M 322.5,518.5 C 325.523,517.853 328.523,517.52 331.5,517.5C 338.773,519.223 344.94,522.89 350,528.5C 350.667,529.167 350.667,529.833 350,530.5C 342.335,523.11 333.168,519.11 322.5,518.5 Z"/></g>
<g><path style="opacity:1" fill="#b0c4b3" d="M 611.5,509.5 C 612.934,520.302 613.601,531.302 613.5,542.5C 612.139,531.694 611.472,520.694 611.5,509.5 Z"/></g>
<g><path style="opacity:0.004" fill="#0d0000" d="M 38.5,531.5 C 37.8333,531.5 37.5,531.833 37.5,532.5C 36.2875,531.503 36.4542,530.503 38,529.5C 38.4643,530.094 38.631,530.761 38.5,531.5 Z"/></g>
<g><path style="opacity:0.004" fill="#0d0000" d="M 32.5,538.5 C 31.8333,538.5 31.5,538.833 31.5,539.5C 30.2875,538.503 30.4542,537.503 32,536.5C 32.4643,537.094 32.631,537.761 32.5,538.5 Z"/></g>
<g><path style="opacity:0.004" fill="#0d0000" d="M 717.5,539.5 C 716.833,539.5 716.5,539.167 716.5,538.5C 716.747,536.025 717.413,536.025 718.5,538.5C 718.376,539.107 718.043,539.44 717.5,539.5 Z"/></g>
<g><path style="opacity:0.016" fill="#1e0200" d="M 732.5,559.5 C 732.167,559.5 731.833,559.5 731.5,559.5C 731.833,556.833 732.167,556.833 732.5,559.5 Z"/></g>
<g><path style="opacity:0.016" fill="#260300" d="M 732.5,559.5 C 733.833,560.167 733.833,560.167 732.5,559.5 Z"/></g>
<g><path style="opacity:0.016" fill="#1e0200" d="M 5.5,583.5 C 4.47498,583.103 4.30831,582.437 5,581.5C 5.46434,582.094 5.63101,582.761 5.5,583.5 Z"/></g>
<g><path style="opacity:0.016" fill="#210200" d="M 3.5,589.5 C 3.16667,589.5 2.83333,589.5 2.5,589.5C 2.83333,585.5 3.16667,585.5 3.5,589.5 Z"/></g>
<g><path style="opacity:0.016" fill="#210200" d="M 2.5,589.5 C 2.64945,590.552 2.48278,591.552 2,592.5C 1.25988,591.251 1.42654,590.251 2.5,589.5 Z"/></g>
<g><path style="opacity:0.016" fill="#210200" d="M 1.5,596.5 C 1.16667,596.5 0.833333,596.5 0.5,596.5C 0.833333,592.5 1.16667,592.5 1.5,596.5 Z"/></g>
<g><path style="opacity:0.016" fill="#220200" d="M -0.5,596.5 C -0.166667,596.5 0.166667,596.5 0.5,596.5C 0.767809,598.099 0.434475,599.432 -0.5,600.5C -0.5,599.167 -0.5,597.833 -0.5,596.5 Z"/></g>
<g><path style="opacity:0.016" fill="#220200" d="M 749.5,596.5 C 749.5,597.833 749.5,599.167 749.5,600.5C 749.167,600.5 748.833,600.5 748.5,600.5C 748.232,598.901 748.566,597.568 749.5,596.5 Z"/></g>
</svg>
