<?xml version="1.0" encoding="UTF-8"?>
<!DOCTYPE svg PUBLIC "-//W3C//DTD SVG 1.1//EN" "http://www.w3.org/Graphics/SVG/1.1/DTD/svg11.dtd">
<svg xmlns="http://www.w3.org/2000/svg" version="1.1" width="750px" height="561px" style="shape-rendering:geometricPrecision; text-rendering:geometricPrecision; image-rendering:optimizeQuality; fill-rule:evenodd; clip-rule:evenodd" xmlns:xlink="http://www.w3.org/1999/xlink">
<g><path style="opacity:0.966" fill="#1c0d03" d="M 358.5,-0.5 C 367.167,-0.5 375.833,-0.5 384.5,-0.5C 392.1,1.31774 399.766,3.31774 407.5,5.5C 424.728,13.115 440.728,22.7816 455.5,34.5C 455.5,35.1667 455.833,35.5 456.5,35.5C 458.808,37.4707 461.142,39.4707 463.5,41.5C 463.5,42.1667 463.833,42.5 464.5,42.5C 464.5,43.1667 464.833,43.5 465.5,43.5C 465.5,44.1667 465.833,44.5 466.5,44.5C 467.5,46.1667 468.833,47.5 470.5,48.5C 470.5,49.1667 470.833,49.5 471.5,49.5C 471.5,50.1667 471.833,50.5 472.5,50.5C 481.561,61.2875 488.561,73.2875 493.5,86.5C 494.261,91.4366 495.595,96.1033 497.5,100.5C 497.549,104.078 498.215,107.411 499.5,110.5C 501.586,126.466 501.919,142.466 500.5,158.5C 499.532,160.607 499.198,162.941 499.5,165.5C 498.232,167.905 497.565,170.572 497.5,173.5C 496.596,174.209 496.263,175.209 496.5,176.5C 497.5,176.167 498.167,175.5 498.5,174.5C 499.492,174.672 500.158,174.338 500.5,173.5C 503.649,173.211 506.649,173.711 509.5,175C 512.352,178.101 514.352,181.601 515.5,185.5C 515.365,191.181 515.032,196.848 514.5,202.5C 513.518,205.962 513.185,209.629 513.5,213.5C 512.596,214.209 512.263,215.209 512.5,216.5C 511.596,217.209 511.263,218.209 511.5,219.5C 510.662,219.842 510.328,220.508 510.5,221.5C 509.662,221.842 509.328,222.508 509.5,223.5C 507,226.494 505,229.827 503.5,233.5C 502.662,233.842 502.328,234.508 502.5,235.5C 501.662,235.842 501.328,236.508 501.5,237.5C 500.596,238.209 500.263,239.209 500.5,240.5C 499.069,241.78 498.402,243.447 498.5,245.5C 497.596,246.209 497.263,247.209 497.5,248.5C 496.662,248.842 496.328,249.508 496.5,250.5C 495.662,250.842 495.328,251.508 495.5,252.5C 494.596,253.209 494.263,254.209 494.5,255.5C 493.596,256.209 493.263,257.209 493.5,258.5C 492.662,258.842 492.328,259.508 492.5,260.5C 491.662,260.842 491.328,261.508 491.5,262.5C 490.833,262.5 490.5,262.833 490.5,263.5C 489.833,263.5 489.5,263.833 489.5,264.5C 488.167,265.167 487.167,266.167 486.5,267.5C 483.994,268.75 481.327,269.416 478.5,269.5C 478.073,273.824 477.739,278.158 477.5,282.5C 476.566,283.568 476.232,284.901 476.5,286.5C 475.566,287.568 475.232,288.901 475.5,290.5C 474.596,291.209 474.263,292.209 474.5,293.5C 473.596,294.209 473.263,295.209 473.5,296.5C 472.596,297.209 472.263,298.209 472.5,299.5C 471.733,300.172 471.066,301.005 470.5,302C 471.031,325.494 472.197,348.994 474,372.5C 477.573,376.04 481.739,378.706 486.5,380.5C 489.021,377.657 492.188,376.323 496,376.5C 502.246,378.193 508.413,380.193 514.5,382.5C 526.787,389.31 539.453,395.643 552.5,401.5C 554.792,403.267 557.458,404.267 560.5,404.5C 568.089,406.484 575.756,408.651 583.5,411C 593.436,416.801 603.769,421.801 614.5,426C 618.594,429.045 621.594,432.878 623.5,437.5C 630.497,442.669 638.163,446.836 646.5,450C 674.978,454.149 697.812,467.649 715,490.5C 730.66,509.487 741.827,530.82 748.5,554.5C 748.5,556.5 748.5,558.5 748.5,560.5C 746.833,560.5 745.167,560.5 743.5,560.5C 734.551,522.088 714.218,491.255 682.5,468C 674.627,463.543 666.293,460.377 657.5,458.5C 645.769,456.361 634.769,452.027 624.5,445.5C 624.167,447.333 623.833,449.167 623.5,451C 626.936,487.405 628.603,523.905 628.5,560.5C 626.833,560.5 625.167,560.5 623.5,560.5C 623.805,543.786 623.471,527.119 622.5,510.5C 622.488,499.641 621.821,488.974 620.5,478.5C 620.236,465.466 619.402,452.466 618,439.5C 617.394,436.452 615.894,433.952 613.5,432C 603.167,427.563 593.167,422.563 583.5,417C 573.212,413.845 562.879,410.845 552.5,408C 543.221,404.027 534.221,399.527 525.5,394.5C 525.788,430.906 517.621,465.239 501,497.5C 489.925,515.909 475.425,531.075 457.5,543C 451.569,548.424 446.236,554.258 441.5,560.5C 439.5,560.5 437.5,560.5 435.5,560.5C 444.69,547.478 456.023,536.644 469.5,528C 498.804,499.821 515.304,465.321 519,424.5C 520.332,413.526 520.666,402.526 520,391.5C 517.55,390.358 515.05,389.358 512.5,388.5C 509.682,386.928 506.682,385.594 503.5,384.5C 501.183,383.093 498.683,382.093 496,381.5C 494.289,381.439 492.956,382.106 492,383.5C 499.966,438.364 483.133,483.864 441.5,520C 428.783,529.044 416.949,539.211 406,550.5C 403.19,553.464 401.024,556.798 399.5,560.5C 397.5,560.5 395.5,560.5 393.5,560.5C 399.417,551.202 406.417,542.702 414.5,535C 428.588,524.25 442.088,512.75 455,500.5C 462.474,491.857 468.974,482.524 474.5,472.5C 457.51,471.334 440.51,471.167 423.5,472C 413.28,473.859 404.78,478.692 398,486.5C 403.602,476.911 412.102,471.078 423.5,469C 441.466,467.901 459.466,467.068 477.5,466.5C 489.041,440.921 492.041,414.421 486.5,387C 482.071,384.898 477.905,382.398 474,379.5C 473.654,382.576 472.988,385.576 472,388.5C 469.685,385.223 468.351,381.556 468,377.5C 467.646,364.314 466.813,351.314 465.5,338.5C 465.666,329.494 465.5,320.494 465,311.5C 461.578,316.678 457.911,321.678 454,326.5C 442.808,338.691 431.308,350.524 419.5,362C 410.223,367.327 400.223,370.327 389.5,371C 377.5,371.667 365.5,371.667 353.5,371C 342.3,369.712 331.967,366.045 322.5,360C 309.084,345.582 295.251,331.416 281,317.5C 280.5,338.164 280.333,358.831 280.5,379.5C 278.642,390.455 276.642,390.789 274.5,380.5C 271.163,383.171 267.496,385.337 263.5,387C 261.059,390.011 259.893,393.511 260,397.5C 257.569,421.579 261.402,444.579 271.5,466.5C 286.822,467.333 302.156,467.833 317.5,468C 330.226,468.79 341.06,473.623 350,482.5C 350.667,483.167 350.667,483.833 350,484.5C 342.337,477.086 333.17,473.086 322.5,472.5C 306.662,471.173 290.662,471.173 274.5,472.5C 274.624,473.107 274.957,473.44 275.5,473.5C 283.306,488.493 293.639,501.66 306.5,513C 322.202,523.698 336.368,536.198 349,550.5C 351.619,553.406 353.453,556.739 354.5,560.5C 352.833,560.5 351.167,560.5 349.5,560.5C 338.641,544.476 324.975,531.309 308.5,521C 265.876,484.804 248.709,438.971 257,383.5C 253.267,380.876 249.767,381.209 246.5,384.5C 243.088,385.042 240.088,386.375 237.5,388.5C 234.421,388.804 231.587,389.804 229,391.5C 226.134,436.216 237.801,476.549 264,512.5C 273.316,523.158 283.816,532.325 295.5,540C 302.454,546.112 308.454,552.946 313.5,560.5C 311.5,560.5 309.5,560.5 307.5,560.5C 298.583,548.749 287.916,538.916 275.5,531C 251.023,507.888 235.523,479.722 229,446.5C 225.666,429.328 223.833,411.994 223.5,394.5C 214.5,399 205.5,403.5 196.5,408C 186.025,410.535 175.691,413.535 165.5,417C 155.748,422.543 145.748,427.543 135.5,432C 133.383,433.731 131.883,435.898 131,438.5C 129.71,450.804 128.877,463.138 128.5,475.5C 127.179,485.974 126.512,496.641 126.5,507.5C 125.541,525.132 125.207,542.799 125.5,560.5C 123.833,560.5 122.167,560.5 120.5,560.5C 120.402,524.248 122.068,488.082 125.5,452C 125.167,449.833 124.833,447.667 124.5,445.5C 114.18,451.836 103.18,456.17 91.5,458.5C 71.4749,463.101 54.9749,473.435 42,489.5C 29.1484,504.522 18.8151,521.189 11,539.5C 8.38138,546.308 6.54805,553.308 5.5,560.5C 3.5,560.5 1.5,560.5 -0.5,560.5C -0.5,560.167 -0.5,559.833 -0.5,559.5C 0.833333,557.833 0.833333,556.167 -0.5,554.5C -0.5,553.167 -0.5,551.833 -0.5,550.5C 0.221579,550.918 0.721579,551.584 1,552.5C 6.43235,534.639 14.2657,517.972 24.5,502.5C 25.1667,502.5 25.5,502.167 25.5,501.5C 28.8024,497.191 32.1357,492.857 35.5,488.5C 36.1667,488.5 36.5,488.167 36.5,487.5C 52.5584,467.47 73.2251,455.136 98.5,450.5C 107.068,448.385 115.068,444.885 122.5,440C 125.827,435.154 129.493,430.654 133.5,426.5C 134.167,426.5 134.5,426.167 134.5,425.5C 145.324,421.755 155.657,416.922 165.5,411C 175.92,408.25 186.253,405.25 196.5,402C 213.346,392.576 230.679,384.243 248.5,377C 253.307,375.842 257.64,376.676 261.5,379.5C 261.711,381.424 262.377,381.757 263.5,380.5C 265.027,380.573 266.027,379.906 266.5,378.5C 268.434,377.89 270.101,376.89 271.5,375.5C 272.167,375.5 272.5,375.167 272.5,374.5C 273.15,374.196 273.817,373.863 274.5,373.5C 275.778,352.322 275.444,331.322 273.5,310.5C 273.672,309.508 273.338,308.842 272.5,308.5C 270.485,305.131 268.485,301.798 266.5,298.5C 266.672,297.508 266.338,296.842 265.5,296.5C 263.142,290.413 260.809,284.413 258.5,278.5C 258.279,275.933 257.612,273.599 256.5,271.5C 255.705,267.524 255.038,263.524 254.5,259.5C 247.326,259.312 242.326,255.978 239.5,249.5C 239.154,245.148 237.488,241.481 234.5,238.5C 234.672,237.508 234.338,236.842 233.5,236.5C 232.87,232.952 231.87,229.619 230.5,226.5C 229.657,212.518 229.324,198.518 229.5,184.5C 230.833,181.167 230.833,177.833 229.5,174.5C 228.99,168.928 229.823,163.595 232,158.5C 234.55,154.808 238.05,153.142 242.5,153.5C 243.172,154.267 244.005,154.934 245,155.5C 246.098,139.788 247.598,124.121 249.5,108.5C 251.826,96.4106 254.992,84.4106 259,72.5C 261.755,65.9801 265.255,59.9801 269.5,54.5C 270.167,54.5 270.5,54.1667 270.5,53.5C 273.138,50.5256 275.805,47.5256 278.5,44.5C 279.167,44.5 279.5,44.1667 279.5,43.5C 280.167,43.5 280.5,43.1667 280.5,42.5C 281.167,42.5 281.5,42.1667 281.5,41.5C 282.167,41.5 282.5,41.1667 282.5,40.5C 283.167,40.5 283.5,40.1667 283.5,39.5C 286.526,36.8046 289.526,34.1379 292.5,31.5C 293.167,31.5 293.5,31.1667 293.5,30.5C 312.466,14.5171 334.133,4.18376 358.5,-0.5 Z M 497.5,173.5 C 497.5,174.167 497.833,174.5 498.5,174.5C 498.167,175.5 497.5,176.167 496.5,176.5C 496.263,175.209 496.596,174.209 497.5,173.5 Z M 266.5,378.5 C 266.027,379.906 265.027,380.573 263.5,380.5C 263.973,379.094 264.973,378.427 266.5,378.5 Z M 261.5,379.5 C 262.167,379.833 262.833,380.167 263.5,380.5C 262.377,381.757 261.711,381.424 261.5,379.5 Z"/></g>
<g><path style="opacity:0.012" fill="#220000" d="M 407.5,5.5 C 407.897,4.47498 408.563,4.30831 409.5,5C 408.906,5.46434 408.239,5.63101 407.5,5.5 Z"/></g>
<g><path style="opacity:1" fill="#482c18" d="M 393.5,8.5 C 401.383,21.2734 407.383,34.94 411.5,49.5C 410.398,50.1757 409.398,50.8423 408.5,51.5C 374.788,43.4126 341.121,43.5793 307.5,52C 299.792,53.9316 293.292,57.7649 288,63.5C 281.252,77.0801 276.918,91.4134 275,106.5C 270.304,112.556 266.637,119.223 264,126.5C 260.38,140.542 257.213,154.542 254.5,168.5C 252.139,161.829 251.139,154.829 251.5,147.5C 252.414,123.682 256.248,100.348 263,77.5C 266.312,69.5397 270.645,62.2063 276,55.5C 293.087,35.8805 313.587,21.0471 337.5,11C 353.398,4.84885 369.732,3.18218 386.5,6C 389.191,6.15579 391.524,6.98912 393.5,8.5 Z"/></g>
<g><path style="opacity:0.016" fill="#230300" d="M 410.5,6.5 C 410.897,5.47498 411.563,5.30831 412.5,6C 411.906,6.46434 411.239,6.63101 410.5,6.5 Z"/></g>
<g><path style="opacity:1" fill="#432916" d="M 393.5,8.5 C 409.495,11.9973 424.161,18.4973 437.5,28C 453.292,38.7915 466.792,51.9581 478,67.5C 493.611,96.6873 498.945,127.687 494,160.5C 493.074,166.895 491.241,172.895 488.5,178.5C 487.252,175.058 486.419,171.392 486,167.5C 486.537,157.094 484.87,147.094 481,137.5C 477.634,131.48 474.3,125.48 471,119.5C 470.326,102.773 466.659,86.7732 460,71.5C 457.736,68.5665 454.902,66.3999 451.5,65C 438.697,60.121 425.697,55.9543 412.5,52.5C 411.167,52.1667 409.833,51.8333 408.5,51.5C 409.398,50.8423 410.398,50.1757 411.5,49.5C 407.383,34.94 401.383,21.2734 393.5,8.5 Z"/></g>
<g><path style="opacity:0.004" fill="#130000" d="M 293.5,30.5 C 292.833,30.5 292.5,30.8333 292.5,31.5C 290.025,31.2533 290.025,30.5866 292.5,29.5C 293.107,29.6236 293.44,29.9569 293.5,30.5 Z"/></g>
<g><path style="opacity:0.004" fill="#130000" d="M 455.5,34.5 C 456.497,33.2875 457.497,33.4542 458.5,35C 457.906,35.4643 457.239,35.631 456.5,35.5C 455.833,35.5 455.5,35.1667 455.5,34.5 Z"/></g>
<g><path style="opacity:0.012" fill="#1b0000" d="M 283.5,39.5 C 282.833,39.5 282.5,39.8333 282.5,40.5C 281.833,40.5 281.5,40.8333 281.5,41.5C 280.833,41.5 280.5,41.8333 280.5,42.5C 279.833,42.5 279.5,42.8333 279.5,43.5C 278.833,43.5 278.5,43.8333 278.5,44.5C 277.475,44.1034 277.308,43.4368 278,42.5C 279.167,41.3333 280.333,40.1667 281.5,39C 282.437,38.3083 283.103,38.475 283.5,39.5 Z"/></g>
<g><path style="opacity:0.004" fill="#140000" d="M 463.5,41.5 C 463.897,40.475 464.563,40.3083 465.5,41C 466.5,42 467.5,43 468.5,44C 467.906,44.4643 467.239,44.631 466.5,44.5C 465.833,44.5 465.5,44.1667 465.5,43.5C 464.833,43.5 464.5,43.1667 464.5,42.5C 463.833,42.5 463.5,42.1667 463.5,41.5 Z"/></g>
<g><path style="opacity:1" fill="#cc936c" d="M 408.5,51.5 C 409.833,51.8333 411.167,52.1667 412.5,52.5C 416.525,79.6994 411.525,105.033 397.5,128.5C 396.18,129.942 394.514,130.608 392.5,130.5C 388.821,130.363 385.321,131.029 382,132.5C 381.667,132.167 381.333,131.833 381,131.5C 379.905,132.693 379.072,134.027 378.5,135.5C 377.537,139.796 377.371,144.129 378,148.5C 380.525,160.522 383.025,171.189 385.5,180.5C 386.317,178.031 386.817,175.365 387,172.5C 391.326,179.16 397.159,183.993 404.5,187C 410.941,188.258 417.275,189.925 423.5,192C 431.125,193.372 438.792,193.706 446.5,193C 452.437,191.03 458.104,188.53 463.5,185.5C 465.383,185.876 466.883,186.876 468,188.5C 470.261,197.7 469.595,206.7 466,215.5C 464.6,218.902 462.433,221.736 459.5,224C 452.736,226.06 446.569,229.227 441,233.5C 440,235.167 439,236.833 438,238.5C 437.039,244.288 436.205,249.955 435.5,255.5C 423.605,245.514 409.938,238.681 394.5,235C 390.848,234.501 387.182,234.335 383.5,234.5C 382.325,234.719 381.325,234.386 380.5,233.5C 381.665,232.416 382.998,231.583 384.5,231C 389.457,230.254 394.29,230.754 399,232.5C 401.111,232.299 402.945,231.633 404.5,230.5C 413.119,226.48 415.285,220.146 411,211.5C 407.133,207.154 402.633,203.654 397.5,201C 396.117,199.729 395.117,198.229 394.5,196.5C 391.566,195.857 388.233,195.524 384.5,195.5C 384.351,196.552 384.517,197.552 385,198.5C 392.427,205.429 391.927,211.929 383.5,218C 375.93,222.033 369.097,221.2 363,215.5C 360.76,211.024 359.094,206.357 358,201.5C 349.251,216.879 345.751,215.712 347.5,198C 347.167,197.5 346.833,197 346.5,196.5C 345.186,197.313 344.019,198.313 343,199.5C 342.751,198.376 342.251,197.376 341.5,196.5C 340.702,196.957 340.369,197.624 340.5,198.5C 336.523,203.32 332.69,208.32 329,213.5C 327.076,220.559 328.91,226.225 334.5,230.5C 334.418,232.252 335.251,233.252 337,233.5C 342.245,232.899 347.412,231.899 352.5,230.5C 356.869,232.354 361.202,234.187 365.5,236C 363.19,236.497 360.857,236.663 358.5,236.5C 353.768,236.378 349.102,236.878 344.5,238C 334.066,242.049 323.733,246.382 313.5,251C 307.374,256.772 303.54,263.605 302,271.5C 300.185,273.1 299.018,275.1 298.5,277.5C 297.263,278.281 296.263,279.281 295.5,280.5C 294.277,281.614 292.944,281.781 291.5,281C 285.826,277.132 281.993,271.966 280,265.5C 279,265.167 278,264.833 277,264.5C 270.355,251.821 263.355,239.488 256,227.5C 253.972,216.528 252.139,205.528 250.5,194.5C 251.626,185.794 252.959,177.127 254.5,168.5C 257.213,154.542 260.38,140.542 264,126.5C 266.637,119.223 270.304,112.556 275,106.5C 276.918,91.4134 281.252,77.0801 288,63.5C 293.292,57.7649 299.792,53.9316 307.5,52C 341.121,43.5793 374.788,43.4126 408.5,51.5 Z"/></g>
<g><path style="opacity:0.004" fill="#140000" d="M 472.5,50.5 C 471.833,50.5 471.5,50.1667 471.5,49.5C 470.833,49.5 470.5,49.1667 470.5,48.5C 471.286,46.4076 472.286,46.7409 473.5,49.5C 473.376,50.1067 473.043,50.44 472.5,50.5 Z"/></g>
<g><path style="opacity:0.004" fill="#130000" d="M 270.5,53.5 C 269.833,53.5 269.5,53.8333 269.5,54.5C 268.287,53.5029 268.454,52.5029 270,51.5C 270.464,52.0944 270.631,52.7611 270.5,53.5 Z"/></g>
<g><path style="opacity:1" fill="#bd8462" d="M 412.5,52.5 C 425.697,55.9543 438.697,60.121 451.5,65C 454.902,66.3999 457.736,68.5665 460,71.5C 466.659,86.7732 470.326,102.773 471,119.5C 474.3,125.48 477.634,131.48 481,137.5C 484.87,147.094 486.537,157.094 486,167.5C 486.419,171.392 487.252,175.058 488.5,178.5C 489.952,189.846 489.785,201.18 488,212.5C 487.221,216.307 485.554,219.64 483,222.5C 482.667,224.5 482.333,226.5 482,228.5C 474.307,244.414 466.474,260.081 458.5,275.5C 456.384,277.572 454.384,279.738 452.5,282C 450.536,282.624 448.869,282.124 447.5,280.5C 444.656,275.203 442.49,269.536 441,263.5C 438.92,260.935 437.087,258.268 435.5,255.5C 436.205,249.955 437.039,244.288 438,238.5C 439,236.833 440,235.167 441,233.5C 446.569,229.227 452.736,226.06 459.5,224C 462.433,221.736 464.6,218.902 466,215.5C 469.595,206.7 470.261,197.7 468,188.5C 466.883,186.876 465.383,185.876 463.5,185.5C 458.104,188.53 452.437,191.03 446.5,193C 438.792,193.706 431.125,193.372 423.5,192C 417.275,189.925 410.941,188.258 404.5,187C 397.159,183.993 391.326,179.16 387,172.5C 386.817,175.365 386.317,178.031 385.5,180.5C 384.832,165.173 382.498,150.173 378.5,135.5C 379.072,134.027 379.905,132.693 381,131.5C 381.333,131.833 381.667,132.167 382,132.5C 385.321,131.029 388.821,130.363 392.5,130.5C 391.17,132.881 391.336,135.214 393,137.5C 395.796,138.211 398.63,138.878 401.5,139.5C 412.669,138.251 424.002,137.251 435.5,136.5C 444.945,136.394 453.612,138.894 461.5,144C 463.494,146.827 465.828,149.327 468.5,151.5C 468.546,139.478 462.879,130.978 451.5,126C 445.485,124.094 439.318,123.261 433,123.5C 421.154,124.67 409.321,126.337 397.5,128.5C 411.525,105.033 416.525,79.6994 412.5,52.5 Z"/></g>
<g><path style="opacity:0.012" fill="#220000" d="M 493.5,86.5 C 493.369,85.7611 493.536,85.0944 494,84.5C 494.692,85.4368 494.525,86.1034 493.5,86.5 Z"/></g>
<g><path style="opacity:0.012" fill="#1e0000" d="M 498.5,100.5 C 498.167,100.5 497.833,100.5 497.5,100.5C 497.833,95.1667 498.167,95.1667 498.5,100.5 Z"/></g>
<g><path style="opacity:0.012" fill="#1e0000" d="M 498.5,100.5 C 499.598,101.601 499.765,102.934 499,104.5C 498.51,103.207 498.343,101.873 498.5,100.5 Z"/></g>
<g><path style="opacity:0.012" fill="#1f0000" d="M 249.5,108.5 C 249.167,108.5 248.833,108.5 248.5,108.5C 248.833,100.5 249.167,100.5 249.5,108.5 Z"/></g>
<g><path style="opacity:0.012" fill="#1f0000" d="M 500.5,110.5 C 500.167,110.5 499.833,110.5 499.5,110.5C 499.833,103.833 500.167,103.833 500.5,110.5 Z"/></g>
<g><path style="opacity:0.012" fill="#1f0000" d="M 248.5,108.5 C 248.662,110.527 248.495,112.527 248,114.5C 247.211,112.288 247.378,110.288 248.5,108.5 Z"/></g>
<g><path style="opacity:0.013" fill="#200100" d="M 500.5,110.5 C 501.622,112.288 501.789,114.288 501,116.5C 500.505,114.527 500.338,112.527 500.5,110.5 Z"/></g>
<g><path style="opacity:1" fill="#1c0d02" d="M 349.5,126.5 C 349.5,128.5 349.5,130.5 349.5,132.5C 339.046,133.991 328.712,133.491 318.5,131C 300.104,126.419 284.604,130.919 272,144.5C 271.517,143.552 271.351,142.552 271.5,141.5C 275.471,128.038 284.471,119.871 298.5,117C 309.178,117.524 319.845,118.524 330.5,120C 337.031,121.733 343.364,123.9 349.5,126.5 Z"/></g>
<g><path style="opacity:0.014" fill="#1f0100" d="M 501.5,117.5 C 502.641,120.64 502.808,123.973 502,127.5C 501.502,124.183 501.335,120.85 501.5,117.5 Z"/></g>
<g><path style="opacity:1" fill="#1c0d03" d="M 392.5,130.5 C 394.514,130.608 396.18,129.942 397.5,128.5C 409.321,126.337 421.154,124.67 433,123.5C 439.318,123.261 445.485,124.094 451.5,126C 462.879,130.978 468.546,139.478 468.5,151.5C 465.828,149.327 463.494,146.827 461.5,144C 453.612,138.894 444.945,136.394 435.5,136.5C 424.002,137.251 412.669,138.251 401.5,139.5C 398.63,138.878 395.796,138.211 393,137.5C 391.336,135.214 391.17,132.881 392.5,130.5 Z"/></g>
<g><path style="opacity:1" fill="#bc8361" d="M 349.5,126.5 C 349.522,140.341 349.689,154.341 350,168.5C 345.446,176.376 338.613,181.21 329.5,183C 323.5,183.667 317.5,183.667 311.5,183C 299.368,179.891 287.202,179.724 275,182.5C 273.5,182.167 272,181.833 270.5,181.5C 273.348,178.907 276.681,177.074 280.5,176C 281.574,175.261 282.241,174.261 282.5,173C 278.964,169.128 275.797,164.962 273,160.5C 271.893,154.886 271.059,149.219 270.5,143.5C 270.543,142.584 270.876,141.917 271.5,141.5C 271.351,142.552 271.517,143.552 272,144.5C 284.604,130.919 300.104,126.419 318.5,131C 328.712,133.491 339.046,133.991 349.5,132.5C 349.5,130.5 349.5,128.5 349.5,126.5 Z"/></g>
<g><path style="opacity:0.012" fill="#1c0000" d="M 502.5,128.5 C 503.653,134.653 503.82,140.986 503,147.5C 502.5,141.175 502.334,134.842 502.5,128.5 Z"/></g>
<g><path style="opacity:1" fill="#1c1109" d="M 308.5,138.5 C 316.832,137.684 324.832,138.851 332.5,142C 334.954,143.74 336.454,145.907 337,148.5C 328.603,140.508 318.77,138.342 307.5,142C 299.76,144.284 293.26,148.45 288,154.5C 289.237,151.224 291.403,148.391 294.5,146C 299.101,143.202 303.768,140.702 308.5,138.5 Z"/></g>
<g><path style="opacity:0.012" fill="#1f0000" d="M 242.5,153.5 C 243.272,149.25 243.772,144.917 244,140.5C 244.167,142.667 244.333,144.833 244.5,147C 244.467,149.61 243.8,151.777 242.5,153.5 Z"/></g>
<g><path style="opacity:1" fill="#180e07" d="M 419.5,146.5 C 432.635,144.986 443.635,148.986 452.5,158.5C 452.333,158.833 452.167,159.167 452,159.5C 446.972,154.902 441.139,151.735 434.5,150C 427.167,149.333 419.833,149.333 412.5,150C 409.942,151.626 407.275,152.626 404.5,153C 409.107,149.748 414.107,147.582 419.5,146.5 Z"/></g>
<g><path style="opacity:0.012" fill="#210000" d="M 501.5,158.5 C 501.335,155.15 501.502,151.817 502,148.5C 502.808,152.027 502.641,155.36 501.5,158.5 Z"/></g>
<g><path style="opacity:1" fill="#1b1009" d="M 307.5,148.5 C 313.909,148.183 320.243,148.683 326.5,150C 331.69,152.427 336.69,155.094 341.5,158C 345.325,160.232 345.325,162.232 341.5,164C 334.098,164.911 326.765,166.244 319.5,168C 308.38,170.402 298.713,167.735 290.5,160C 295.575,155.141 301.242,151.308 307.5,148.5 Z"/></g>
<g><path style="opacity:1" fill="#1b0f05" d="M 378.5,135.5 C 382.498,150.173 384.832,165.173 385.5,180.5C 383.025,171.189 380.525,160.522 378,148.5C 377.371,144.129 377.537,139.796 378.5,135.5 Z"/></g>
<g><path style="opacity:1" fill="#ebeae9" d="M 311.5,158.5 C 310.596,157.791 310.263,156.791 310.5,155.5C 311.002,153.915 312.002,153.415 313.5,154C 314.38,155.356 314.714,156.856 314.5,158.5C 313.5,158.5 312.5,158.5 311.5,158.5 Z"/></g>
<g><path style="opacity:1" fill="#f4f3f3" d="M 306.5,160.5 C 306.751,162.17 307.418,163.67 308.5,165C 304.72,165.68 301.386,164.846 298.5,162.5C 298.343,161.127 298.51,159.793 299,158.5C 300.912,157.308 302.912,156.308 305,155.5C 305.198,157.382 305.698,159.048 306.5,160.5 Z"/></g>
<g><path style="opacity:1" fill="#4b261b" d="M 310.5,155.5 C 310.263,156.791 310.596,157.791 311.5,158.5C 312.375,162.196 314.375,163.196 317.5,161.5C 317.5,160.833 317.5,160.167 317.5,159.5C 318.117,159.611 318.617,159.944 319,160.5C 319.078,158.343 319.245,156.343 319.5,154.5C 320.736,155.246 322.07,155.579 323.5,155.5C 323.182,164.829 318.849,167.495 310.5,163.5C 309.553,161.941 308.887,160.274 308.5,158.5C 308.453,156.962 309.12,155.962 310.5,155.5 Z"/></g>
<g><path style="opacity:1" fill="#9f9c9a" d="M 335.5,159.5 C 332.366,157.707 329.033,156.374 325.5,155.5C 323.912,154.365 323.579,153.031 324.5,151.5C 327.994,153.079 331.327,154.913 334.5,157C 335.252,157.671 335.586,158.504 335.5,159.5 Z"/></g>
<g><path style="opacity:1" fill="#afacaa" d="M 306.5,160.5 C 305.698,159.048 305.198,157.382 305,155.5C 302.912,156.308 300.912,157.308 299,158.5C 298.51,159.793 298.343,161.127 298.5,162.5C 297.246,160.643 297.246,158.643 298.5,156.5C 301.377,153.742 304.711,152.242 308.5,152C 306.686,154.481 306.02,157.315 306.5,160.5 Z"/></g>
<g><path style="opacity:1" fill="#ecebea" d="M 325.5,155.5 C 329.033,156.374 332.366,157.707 335.5,159.5C 332.688,162.746 329.021,164.746 324.5,165.5C 324.167,165.167 323.833,164.833 323.5,164.5C 325.13,161.724 325.797,158.724 325.5,155.5 Z"/></g>
<g><path style="opacity:1" fill="#1a1008" d="M 420.5,153.5 C 433.222,153.03 443.556,157.697 451.5,167.5C 445.993,171.799 439.66,173.799 432.5,173.5C 423.551,173.676 415.217,171.509 407.5,167C 405.167,166.667 402.833,166.333 400.5,166C 399.09,165.632 398.09,164.799 397.5,163.5C 398.648,161.851 399.981,160.351 401.5,159C 407.954,157.078 414.287,155.245 420.5,153.5 Z"/></g>
<g><path style="opacity:1" fill="#989593" d="M 416.5,165.5 C 415.691,163.708 415.191,161.708 415,159.5C 412.273,160.798 409.44,161.798 406.5,162.5C 409.073,159.534 412.406,157.534 416.5,156.5C 416.742,159.319 416.742,162.319 416.5,165.5 Z"/></g>
<g><path style="opacity:0.013" fill="#200000" d="M 500.5,158.5 C 500.833,158.5 501.167,158.5 501.5,158.5C 501.802,161.059 501.468,163.393 500.5,165.5C 500.5,163.167 500.5,160.833 500.5,158.5 Z"/></g>
<g><path style="opacity:1" fill="#c48c67" d="M 238.5,159.5 C 249.788,162.956 252.621,169.956 247,180.5C 244.391,174.281 240.558,168.948 235.5,164.5C 236.26,162.64 237.26,160.973 238.5,159.5 Z"/></g>
<g><path style="opacity:1" fill="#b9b6b5" d="M 317.5,159.5 C 317.5,160.167 317.5,160.833 317.5,161.5C 315.535,161.052 315.202,160.052 316.5,158.5C 317.107,158.624 317.44,158.957 317.5,159.5 Z"/></g>
<g><path style="opacity:1" fill="#e1e0df" d="M 421.5,163.5 C 421.167,162.5 420.5,161.833 419.5,161.5C 420.048,158.916 421.715,157.916 424.5,158.5C 425.084,161.285 424.084,162.952 421.5,163.5 Z"/></g>
<g><path style="opacity:1" fill="#eeedec" d="M 416.5,165.5 C 416.649,166.552 416.483,167.552 416,168.5C 413.239,167.204 410.405,166.037 407.5,165C 406.748,164.329 406.414,163.496 406.5,162.5C 409.44,161.798 412.273,160.798 415,159.5C 415.191,161.708 415.691,163.708 416.5,165.5 Z"/></g>
<g><path style="opacity:1" fill="#482419" d="M 419.5,161.5 C 420.5,161.833 421.167,162.5 421.5,163.5C 422.128,166.955 424.128,168.122 427.5,167C 429.673,165.135 430.007,162.969 428.5,160.5C 429.776,159.355 431.109,159.355 432.5,160.5C 433.643,168.188 430.31,171.355 422.5,170C 417.857,167.928 416.357,164.428 418,159.5C 418.278,160.416 418.778,161.082 419.5,161.5 Z"/></g>
<g><path style="opacity:1" fill="#8a5f43" d="M 401.5,161.5 C 402.5,161.5 403.5,161.5 404.5,161.5C 404.435,164.998 403.101,165.498 400.5,163C 401.056,162.617 401.389,162.117 401.5,161.5 Z"/></g>
<g><path style="opacity:1" fill="#eeedec" d="M 435.5,161.5 C 438.412,162.429 441.079,163.762 443.5,165.5C 443.548,168.292 442.215,170.125 439.5,171C 437.098,171.814 434.765,171.647 432.5,170.5C 434.874,167.972 435.874,164.972 435.5,161.5 Z"/></g>
<g><path style="opacity:1" fill="#a7a4a2" d="M 443.5,165.5 C 441.079,163.762 438.412,162.429 435.5,161.5C 434.972,160.153 434.805,158.819 435,157.5C 439.039,159.043 441.872,161.71 443.5,165.5 Z"/></g>
<g><path style="opacity:1" fill="#d0cece" d="M 425.5,163.5 C 427.337,163.639 427.67,164.306 426.5,165.5C 425.702,165.043 425.369,164.376 425.5,163.5 Z"/></g>
<g><path style="opacity:0.012" fill="#1f0000" d="M 228.5,174.5 C 227.357,171.024 227.19,167.358 228,163.5C 228.499,167.152 228.665,170.818 228.5,174.5 Z"/></g>
<g><path style="opacity:0.012" fill="#220000" d="M 499.5,165.5 C 499.833,165.5 500.167,165.5 500.5,165.5C 500.167,170.833 499.833,170.833 499.5,165.5 Z"/></g>
<g><path style="opacity:0.014" fill="#230100" d="M 500.5,173.5 C 498.775,173.157 498.275,172.157 499,170.5C 499.513,171.527 500.013,172.527 500.5,173.5 Z"/></g>
<g><path style="opacity:1" fill="#1e140b" d="M 323.5,171.5 C 327.893,171.457 328.226,171.957 324.5,173C 321.558,174.124 318.558,174.458 315.5,174C 318.251,173.057 320.917,172.224 323.5,171.5 Z"/></g>
<g><path style="opacity:0.013" fill="#1f0000" d="M 228.5,174.5 C 228.833,174.5 229.167,174.5 229.5,174.5C 229.5,177.833 229.5,181.167 229.5,184.5C 229.167,184.5 228.833,184.5 228.5,184.5C 228.5,181.167 228.5,177.833 228.5,174.5 Z"/></g>
<g><path style="opacity:1" fill="#2c1d13" d="M 412.5,175.5 C 412.56,174.957 412.893,174.624 413.5,174.5C 417.307,176.286 421.307,177.452 425.5,178C 420.773,179.036 416.44,178.203 412.5,175.5 Z"/></g>
<g><path style="opacity:1" fill="#bb8361" d="M 235.5,166.5 C 240.25,172.676 243.417,179.676 245,187.5C 245.644,197.673 247.31,207.673 250,217.5C 250.37,229.586 251.536,241.586 253.5,253.5C 250.675,253.919 248.509,252.919 247,250.5C 242.776,242.054 239.109,233.387 236,224.5C 235.652,214.325 235.152,204.158 234.5,194C 234.764,189.11 235.431,184.277 236.5,179.5C 235.799,175.192 235.466,170.859 235.5,166.5 Z"/></g>
<g><path style="opacity:1" fill="#c28b66" d="M 503.5,178.5 C 506.858,179.527 508.525,181.86 508.5,185.5C 506.345,185.372 504.345,185.872 502.5,187C 500,189.5 497.5,192 495,194.5C 494.176,191.118 494.343,187.784 495.5,184.5C 498.492,182.829 501.159,180.829 503.5,178.5 Z"/></g>
<g><path style="opacity:0.014" fill="#230200" d="M 516.5,185.5 C 516.167,185.5 515.833,185.5 515.5,185.5C 515.833,181.5 516.167,181.5 516.5,185.5 Z"/></g>
<g><path style="opacity:0.013" fill="#1b0000" d="M 228.5,184.5 C 228.667,195.838 228.5,207.172 228,218.5C 227.174,206.992 227.341,195.659 228.5,184.5 Z"/></g>
<g><path style="opacity:0.012" fill="#1f0000" d="M 516.5,185.5 C 517.641,188.64 517.808,191.973 517,195.5C 516.502,192.183 516.335,188.85 516.5,185.5 Z"/></g>
<g><path style="opacity:1" fill="#bc8461" d="M 506.5,186.5 C 507.5,186.5 508.5,186.5 509.5,186.5C 511.114,203.478 506.948,218.812 497,232.5C 493.667,241.167 490.333,249.833 487,258.5C 484.981,261.712 482.147,263.378 478.5,263.5C 479.548,255.426 481.048,247.426 483,239.5C 487.273,228.348 490.94,217.014 494,205.5C 496.818,198.201 500.984,191.867 506.5,186.5 Z"/></g>
<g><path style="opacity:0.014" fill="#1d0100" d="M 515.5,202.5 C 515.338,200.473 515.505,198.473 516,196.5C 516.789,198.712 516.622,200.712 515.5,202.5 Z"/></g>
<g><path style="opacity:1" fill="#bb8361" d="M 394.5,196.5 C 393.957,196.56 393.624,196.893 393.5,197.5C 394.803,199.968 396.303,202.301 398,204.5C 402.333,207.5 406,211.167 409,215.5C 411.336,222.999 408.836,227.832 401.5,230C 402.448,230.483 403.448,230.649 404.5,230.5C 402.945,231.633 401.111,232.299 399,232.5C 394.29,230.754 389.457,230.254 384.5,231C 382.998,231.583 381.665,232.416 380.5,233.5C 381.325,234.386 382.325,234.719 383.5,234.5C 380.658,235.254 377.991,236.588 375.5,238.5C 369.743,238.596 364.076,237.929 358.5,236.5C 360.857,236.663 363.19,236.497 365.5,236C 361.202,234.187 356.869,232.354 352.5,230.5C 347.412,231.899 342.245,232.899 337,233.5C 335.251,233.252 334.418,232.252 334.5,230.5C 337.113,231.435 339.779,231.602 342.5,231C 332.09,227.688 329.257,221.188 334,211.5C 336.333,208.5 338.667,205.5 341,202.5C 341.765,200.934 341.598,199.601 340.5,198.5C 340.369,197.624 340.702,196.957 341.5,196.5C 342.251,197.376 342.751,198.376 343,199.5C 344.019,198.313 345.186,197.313 346.5,196.5C 346.833,197 347.167,197.5 347.5,198C 345.751,215.712 349.251,216.879 358,201.5C 359.094,206.357 360.76,211.024 363,215.5C 369.097,221.2 375.93,222.033 383.5,218C 391.927,211.929 392.427,205.429 385,198.5C 384.517,197.552 384.351,196.552 384.5,195.5C 388.233,195.524 391.566,195.857 394.5,196.5 Z"/></g>
<g><path style="opacity:0.013" fill="#1b0000" d="M 514.5,202.5 C 514.833,202.5 515.167,202.5 515.5,202.5C 515.815,206.371 515.482,210.038 514.5,213.5C 514.5,209.833 514.5,206.167 514.5,202.5 Z"/></g>
<g><path style="opacity:1" fill="#1c1007" d="M 340.5,198.5 C 341.598,199.601 341.765,200.934 341,202.5C 338.667,205.5 336.333,208.5 334,211.5C 329.257,221.188 332.09,227.688 342.5,231C 339.779,231.602 337.113,231.435 334.5,230.5C 328.91,226.225 327.076,220.559 329,213.5C 332.69,208.32 336.523,203.32 340.5,198.5 Z"/></g>
<g><path style="opacity:1" fill="#1e1106" d="M 394.5,196.5 C 395.117,198.229 396.117,199.729 397.5,201C 402.633,203.654 407.133,207.154 411,211.5C 415.285,220.146 413.119,226.48 404.5,230.5C 403.448,230.649 402.448,230.483 401.5,230C 408.836,227.832 411.336,222.999 409,215.5C 406,211.167 402.333,207.5 398,204.5C 396.303,202.301 394.803,199.968 393.5,197.5C 393.624,196.893 393.957,196.56 394.5,196.5 Z"/></g>
<g><path style="opacity:0.012" fill="#1d0000" d="M 513.5,213.5 C 513.833,213.5 514.167,213.5 514.5,213.5C 514.737,214.791 514.404,215.791 513.5,216.5C 513.5,215.5 513.5,214.5 513.5,213.5 Z"/></g>
<g><path style="opacity:0.016" fill="#1d0200" d="M 512.5,216.5 C 512.833,216.5 513.167,216.5 513.5,216.5C 513.737,217.791 513.404,218.791 512.5,219.5C 512.5,218.5 512.5,217.5 512.5,216.5 Z"/></g>
<g><path style="opacity:0.016" fill="#230300" d="M 511.5,219.5 C 511.833,219.5 512.167,219.5 512.5,219.5C 512.672,220.492 512.338,221.158 511.5,221.5C 511.5,220.833 511.5,220.167 511.5,219.5 Z"/></g>
<g><path style="opacity:0.014" fill="#200100" d="M 229.5,226.5 C 228.371,224.372 228.204,222.039 229,219.5C 229.497,221.81 229.663,224.143 229.5,226.5 Z"/></g>
<g><path style="opacity:0.012" fill="#220000" d="M 510.5,221.5 C 510.833,221.5 511.167,221.5 511.5,221.5C 511.672,222.492 511.338,223.158 510.5,223.5C 510.5,222.833 510.5,222.167 510.5,221.5 Z"/></g>
<g><path style="opacity:0.016" fill="#230300" d="M 509.5,223.5 C 509.833,223.5 510.167,223.5 510.5,223.5C 510.167,226.167 509.833,226.167 509.5,223.5 Z"/></g>
<g><path style="opacity:0.012" fill="#190000" d="M 229.5,226.5 C 229.833,226.5 230.167,226.5 230.5,226.5C 230.167,231.833 229.833,231.833 229.5,226.5 Z"/></g>
<g><path style="opacity:1" fill="#1f1208" d="M 387.5,219.5 C 390.978,219.184 394.312,219.684 397.5,221C 389.183,221.495 382.516,225.162 377.5,232C 371.878,235.615 366.545,235.282 361.5,231C 359.5,227.667 356.833,225 353.5,223C 350.167,222.667 346.833,222.333 343.5,222C 347.039,220.496 350.705,220.163 354.5,221C 358.783,223.615 362.783,226.615 366.5,230C 369.634,230.79 372.634,230.457 375.5,229C 379.399,225.589 383.399,222.422 387.5,219.5 Z"/></g>
<g><path style="opacity:0.004" fill="#110200" d="M 503.5,233.5 C 504.833,234.167 504.833,234.833 503.5,235.5C 503.5,234.833 503.5,234.167 503.5,233.5 Z"/></g>
<g><path style="opacity:0.016" fill="#230300" d="M 502.5,235.5 C 502.833,235.5 503.167,235.5 503.5,235.5C 503.672,236.492 503.338,237.158 502.5,237.5C 502.5,236.833 502.5,236.167 502.5,235.5 Z"/></g>
<g><path style="opacity:0.004" fill="#100000" d="M 233.5,236.5 C 233.5,237.167 233.5,237.833 233.5,238.5C 232.167,237.833 232.167,237.167 233.5,236.5 Z"/></g>
<g><path style="opacity:0.016" fill="#1d0200" d="M 501.5,237.5 C 501.833,237.5 502.167,237.5 502.5,237.5C 502.737,238.791 502.404,239.791 501.5,240.5C 501.5,239.5 501.5,238.5 501.5,237.5 Z"/></g>
<g><path style="opacity:0.004" fill="#110200" d="M 233.5,238.5 C 233.833,238.5 234.167,238.5 234.5,238.5C 234.167,241.167 233.833,241.167 233.5,238.5 Z"/></g>
<g><path style="opacity:0.012" fill="#220000" d="M 500.5,240.5 C 500.833,240.5 501.167,240.5 501.5,240.5C 501.167,243.167 500.833,243.167 500.5,240.5 Z"/></g>
<g><path style="opacity:0.012" fill="#220000" d="M 499.5,245.5 C 499.369,244.761 499.536,244.094 500,243.5C 500.692,244.437 500.525,245.103 499.5,245.5 Z"/></g>
<g><path style="opacity:0.012" fill="#1d0000" d="M 498.5,245.5 C 498.833,245.5 499.167,245.5 499.5,245.5C 499.737,246.791 499.404,247.791 498.5,248.5C 498.5,247.5 498.5,246.5 498.5,245.5 Z"/></g>
<g><path style="opacity:0.012" fill="#220000" d="M 497.5,248.5 C 497.833,248.5 498.167,248.5 498.5,248.5C 498.672,249.492 498.338,250.158 497.5,250.5C 497.5,249.833 497.5,249.167 497.5,248.5 Z"/></g>
<g><path style="opacity:0.004" fill="#100000" d="M 239.5,249.5 C 239.631,250.239 239.464,250.906 239,251.5C 238.308,250.563 238.475,249.897 239.5,249.5 Z"/></g>
<g><path style="opacity:0.012" fill="#220000" d="M 496.5,250.5 C 496.833,250.5 497.167,250.5 497.5,250.5C 497.672,251.492 497.338,252.158 496.5,252.5C 496.5,251.833 496.5,251.167 496.5,250.5 Z"/></g>
<g><path style="opacity:0.012" fill="#1d0000" d="M 495.5,252.5 C 495.833,252.5 496.167,252.5 496.5,252.5C 496.737,253.791 496.404,254.791 495.5,255.5C 495.5,254.5 495.5,253.5 495.5,252.5 Z"/></g>
<g><path style="opacity:0.012" fill="#1d0000" d="M 494.5,255.5 C 494.833,255.5 495.167,255.5 495.5,255.5C 495.737,256.791 495.404,257.791 494.5,258.5C 494.5,257.5 494.5,256.5 494.5,255.5 Z"/></g>
<g><path style="opacity:1" fill="#a77353" d="M 405.5,259.5 C 410.943,262.392 416.276,265.559 421.5,269C 422.554,270.388 422.72,271.888 422,273.5C 414.62,277.873 408.12,283.373 402.5,290C 400.595,291.421 398.595,292.588 396.5,293.5C 381.622,298.353 366.622,298.686 351.5,294.5C 350.893,294.624 350.56,294.957 350.5,295.5C 345.689,292.591 341.022,289.424 336.5,286C 331.608,279.943 326.274,274.443 320.5,269.5C 320.833,268.5 321.5,267.833 322.5,267.5C 322.435,267.938 322.601,268.272 323,268.5C 326.11,266.364 329.277,264.364 332.5,262.5C 334.684,263.108 336.684,262.441 338.5,260.5C 343.819,259.337 349.153,258.171 354.5,257C 360.349,256.398 366.182,256.565 372,257.5C 376.488,256.753 380.988,256.086 385.5,255.5C 392.236,256.518 398.903,257.851 405.5,259.5 Z"/></g>
<g><path style="opacity:0.012" fill="#220000" d="M 493.5,258.5 C 493.833,258.5 494.167,258.5 494.5,258.5C 494.672,259.492 494.338,260.158 493.5,260.5C 493.5,259.833 493.5,259.167 493.5,258.5 Z"/></g>
<g><path style="opacity:0.014" fill="#1c0100" d="M 250.5,261.5 C 251.209,260.596 252.209,260.263 253.5,260.5C 253.657,261.873 253.49,263.207 253,264.5C 252.764,262.881 251.931,261.881 250.5,261.5 Z"/></g>
<g><path style="opacity:0.004" fill="#100000" d="M 492.5,260.5 C 492.833,260.5 493.167,260.5 493.5,260.5C 493.672,261.492 493.338,262.158 492.5,262.5C 492.5,261.833 492.5,261.167 492.5,260.5 Z"/></g>
<g><path style="opacity:0.012" fill="#220000" d="M 491.5,262.5 C 491.833,262.5 492.167,262.5 492.5,262.5C 492.315,263.17 491.981,263.17 491.5,262.5 Z"/></g>
<g><path style="opacity:0.004" fill="#0b0000" d="M 490.5,263.5 C 490.833,263.5 491.167,263.5 491.5,263.5C 490.968,266.46 490.301,266.793 489.5,264.5C 490.167,264.5 490.5,264.167 490.5,263.5 Z"/></g>
<g><path style="opacity:0.012" fill="#220000" d="M 486.5,267.5 C 487.833,268.167 487.833,268.167 486.5,267.5 Z"/></g>
<g><path style="opacity:0.02" fill="#230600" d="M 486.5,268.5 C 485.833,269.167 485.833,269.167 486.5,268.5 Z"/></g>
<g><path style="opacity:0.014" fill="#1b0000" d="M 479.5,270.5 C 480.552,270.351 481.552,270.517 482.5,271C 481.033,272.098 480.199,273.598 480,275.5C 479.506,273.866 479.34,272.199 479.5,270.5 Z"/></g>
<g><path style="opacity:1" fill="#1e1107" d="M 340.5,270.5 C 350.914,270.736 361.247,271.736 371.5,273.5C 380.007,272.565 388.507,271.565 397,270.5C 401.222,270.559 405.389,271.059 409.5,272C 396.534,272.95 383.701,274.784 371,277.5C 365.435,276.811 359.935,275.644 354.5,274C 346.833,273.667 339.167,273.333 331.5,273C 330.5,272.667 329.5,272.333 328.5,272C 332.688,271.824 336.688,271.324 340.5,270.5 Z"/></g>
<g><path style="opacity:0.016" fill="#1a0100" d="M 256.5,271.5 C 256.657,272.873 256.49,274.207 256,275.5C 255.235,273.934 255.402,272.601 256.5,271.5 Z"/></g>
<g><path style="opacity:1" fill="#ca916a" d="M 320.5,269.5 C 326.274,274.443 331.608,279.943 336.5,286C 341.022,289.424 345.689,292.591 350.5,295.5C 354.935,296.372 355.268,297.705 351.5,299.5C 352.982,301.483 354.649,303.316 356.5,305C 361.242,305.206 362.908,307.372 361.5,311.5C 359.088,311.244 357.421,312.244 356.5,314.5C 353.894,315.652 351.227,315.818 348.5,315C 341.335,310.856 334.502,306.356 328,301.5C 327.027,299.36 325.527,297.693 323.5,296.5C 318.728,287.803 317.728,278.803 320.5,269.5 Z"/></g>
<g><path style="opacity:1" fill="#c68e68" d="M 396.5,293.5 C 398.595,292.588 400.595,291.421 402.5,290C 408.12,283.373 414.62,277.873 422,273.5C 422.72,271.888 422.554,270.388 421.5,269C 416.276,265.559 410.943,262.392 405.5,259.5C 400.583,255.721 394.916,253.555 388.5,253C 382.913,252.398 377.413,252.898 372,254.5C 360.017,251.768 348.85,253.768 338.5,260.5C 336.297,260.604 334.297,261.27 332.5,262.5C 329.277,264.364 326.11,266.364 323,268.5C 322.601,268.272 322.435,267.938 322.5,267.5C 325.52,263.149 329.52,259.983 334.5,258C 342.712,254.487 351.212,251.653 360,249.5C 364.318,250.26 368.652,250.926 373,251.5C 389.913,248.129 405.079,251.962 418.5,263C 420.709,264.873 422.542,267.04 424,269.5C 428.479,289.813 421.645,304.647 403.5,314C 400.183,314.498 396.85,314.665 393.5,314.5C 393.657,313.127 393.49,311.793 393,310.5C 392.333,309.167 391.667,309.167 391,310.5C 389.542,305.583 391.375,303.083 396.5,303C 397.833,301.667 397.833,300.333 396.5,299C 394.913,298.138 393.246,297.471 391.5,297C 393.233,295.811 394.9,294.644 396.5,293.5 Z"/></g>
<g><path style="opacity:1" fill="#2b1c12" d="M 338.5,260.5 C 336.684,262.441 334.684,263.108 332.5,262.5C 334.297,261.27 336.297,260.604 338.5,260.5 Z"/></g>
<g><path style="opacity:1" fill="#1a0e05" d="M 405.5,259.5 C 398.903,257.851 392.236,256.518 385.5,255.5C 380.988,256.086 376.488,256.753 372,257.5C 366.182,256.565 360.349,256.398 354.5,257C 349.153,258.171 343.819,259.337 338.5,260.5C 348.85,253.768 360.017,251.768 372,254.5C 377.413,252.898 382.913,252.398 388.5,253C 394.916,253.555 400.583,255.721 405.5,259.5 Z"/></g>
<g><path style="opacity:0.016" fill="#1a0100" d="M 258.5,278.5 C 258.657,279.873 258.49,281.207 258,282.5C 257.235,280.934 257.402,279.601 258.5,278.5 Z"/></g>
<g><path style="opacity:0.014" fill="#1e0100" d="M 477.5,282.5 C 478.833,283.833 478.833,285.167 477.5,286.5C 477.5,285.167 477.5,283.833 477.5,282.5 Z"/></g>
<g><path style="opacity:0.014" fill="#1e0100" d="M 476.5,286.5 C 476.833,286.5 477.167,286.5 477.5,286.5C 477.768,288.099 477.434,289.432 476.5,290.5C 476.5,289.167 476.5,287.833 476.5,286.5 Z"/></g>
<g><path style="opacity:0.012" fill="#220000" d="M 475.5,290.5 C 475.833,290.5 476.167,290.5 476.5,290.5C 476.737,291.791 476.404,292.791 475.5,293.5C 475.5,292.5 475.5,291.5 475.5,290.5 Z"/></g>
<g><path style="opacity:0.012" fill="#220000" d="M 474.5,293.5 C 474.833,293.5 475.167,293.5 475.5,293.5C 475.737,294.791 475.404,295.791 474.5,296.5C 474.5,295.5 474.5,294.5 474.5,293.5 Z"/></g>
<g><path style="opacity:0.02" fill="#1e0400" d="M 473.5,296.5 C 473.833,296.5 474.167,296.5 474.5,296.5C 474.737,297.791 474.404,298.791 473.5,299.5C 473.5,298.5 473.5,297.5 473.5,296.5 Z"/></g>
<g><path style="opacity:0.012" fill="#1b0000" d="M 265.5,296.5 C 265.5,297.167 265.5,297.833 265.5,298.5C 264.167,297.833 264.167,297.167 265.5,296.5 Z"/></g>
<g><path style="opacity:0.012" fill="#1b0000" d="M 265.5,298.5 C 265.833,298.5 266.167,298.5 266.5,298.5C 266.167,301.167 265.833,301.167 265.5,298.5 Z"/></g>
<g><path style="opacity:0.016" fill="#230300" d="M 472.5,299.5 C 472.833,299.5 473.167,299.5 473.5,299.5C 473.167,302.167 472.833,302.167 472.5,299.5 Z"/></g>
<g><path style="opacity:0.004" fill="#100000" d="M 272.5,308.5 C 272.5,309.167 272.5,309.833 272.5,310.5C 271.167,309.833 271.167,309.167 272.5,308.5 Z"/></g>
<g><path style="opacity:0.013" fill="#1e0000" d="M 272.5,310.5 C 272.833,310.5 273.167,310.5 273.5,310.5C 273.167,339.833 272.833,339.833 272.5,310.5 Z"/></g>
<g><path style="opacity:1" fill="#b47c5d" d="M 465.5,338.5 C 462.421,340.467 459.588,342.8 457,345.5C 450.418,354.996 444.085,364.662 438,374.5C 416.268,402.639 387.768,413.473 352.5,407C 337.571,404.792 325.738,397.626 317,385.5C 309.723,370.101 299.889,356.601 287.5,345C 285.413,344.208 283.579,343.041 282,341.5C 281.831,354.34 281.331,367.007 280.5,379.5C 280.333,358.831 280.5,338.164 281,317.5C 295.251,331.416 309.084,345.582 322.5,360C 331.967,366.045 342.3,369.712 353.5,371C 365.5,371.667 377.5,371.667 389.5,371C 400.223,370.327 410.223,367.327 419.5,362C 431.308,350.524 442.808,338.691 454,326.5C 457.911,321.678 461.578,316.678 465,311.5C 465.5,320.494 465.666,329.494 465.5,338.5 Z"/></g>
<g><path style="opacity:0.013" fill="#220000" d="M 273.5,334.5 C 274.66,346.993 274.827,359.66 274,372.5C 273.5,359.838 273.333,347.171 273.5,334.5 Z"/></g>
<g><path style="opacity:1" fill="#cd936c" d="M 465.5,338.5 C 466.813,351.314 467.646,364.314 468,377.5C 468.351,381.556 469.685,385.223 472,388.5C 472.988,385.576 473.654,382.576 474,379.5C 477.905,382.398 482.071,384.898 486.5,387C 492.041,414.421 489.041,440.921 477.5,466.5C 459.466,467.068 441.466,467.901 423.5,469C 412.102,471.078 403.602,476.911 398,486.5C 404.78,478.692 413.28,473.859 423.5,472C 440.51,471.167 457.51,471.334 474.5,472.5C 468.974,482.524 462.474,491.857 455,500.5C 442.088,512.75 428.588,524.25 414.5,535C 406.417,542.702 399.417,551.202 393.5,560.5C 380.5,560.5 367.5,560.5 354.5,560.5C 353.453,556.739 351.619,553.406 349,550.5C 336.368,536.198 322.202,523.698 306.5,513C 293.639,501.66 283.306,488.493 275.5,473.5C 290.991,472.504 306.658,472.17 322.5,472.5C 333.17,473.086 342.337,477.086 350,484.5C 350.667,483.833 350.667,483.167 350,482.5C 341.06,473.623 330.226,468.79 317.5,468C 302.156,467.833 286.822,467.333 271.5,466.5C 261.402,444.579 257.569,421.579 260,397.5C 259.893,393.511 261.059,390.011 263.5,387C 267.496,385.337 271.163,383.171 274.5,380.5C 276.642,390.789 278.642,390.455 280.5,379.5C 281.331,367.007 281.831,354.34 282,341.5C 283.579,343.041 285.413,344.208 287.5,345C 299.889,356.601 309.723,370.101 317,385.5C 325.738,397.626 337.571,404.792 352.5,407C 387.768,413.473 416.268,402.639 438,374.5C 444.085,364.662 450.418,354.996 457,345.5C 459.588,342.8 462.421,340.467 465.5,338.5 Z"/></g>
<g><path style="opacity:0.004" fill="#130100" d="M 272.5,374.5 C 271.833,374.5 271.5,374.833 271.5,375.5C 269.025,375.253 269.025,374.587 271.5,373.5C 272.107,373.624 272.44,373.957 272.5,374.5 Z"/></g>
<g><path style="opacity:0.012" fill="#220000" d="M 244.5,376.5 C 245.833,377.167 245.833,377.167 244.5,376.5 Z"/></g>
<g><path style="opacity:0.016" fill="#230300" d="M 241.5,378.5 C 241.897,377.475 242.563,377.308 243.5,378C 242.906,378.464 242.239,378.631 241.5,378.5 Z"/></g>
<g><path style="opacity:0.016" fill="#230300" d="M 514.5,382.5 C 514.897,381.475 515.563,381.308 516.5,382C 515.906,382.464 515.239,382.631 514.5,382.5 Z"/></g>
<g><path style="opacity:0.02" fill="#1c0400" d="M 224.5,385.5 C 224.897,384.475 225.563,384.308 226.5,385C 225.906,385.464 225.239,385.631 224.5,385.5 Z"/></g>
<g><path style="opacity:1" fill="#de1529" d="M 349.5,560.5 C 345.833,560.5 342.167,560.5 338.5,560.5C 325.676,542.252 309.676,527.419 290.5,516C 270.503,496.181 257.669,472.348 252,444.5C 247.93,424.707 246.097,404.707 246.5,384.5C 249.767,381.209 253.267,380.876 257,383.5C 248.709,438.971 265.876,484.804 308.5,521C 324.975,531.309 338.641,544.476 349.5,560.5 Z"/></g>
<g><path style="opacity:1" fill="#de172a" d="M 503.5,384.5 C 503.714,413.261 499.214,441.261 490,468.5C 483.116,487.371 472.283,503.538 457.5,517C 440.483,527.682 425.65,540.849 413,556.5C 412.209,557.745 411.709,559.078 411.5,560.5C 407.5,560.5 403.5,560.5 399.5,560.5C 401.024,556.798 403.19,553.464 406,550.5C 416.949,539.211 428.783,529.044 441.5,520C 483.133,483.864 499.966,438.364 492,383.5C 492.956,382.106 494.289,381.439 496,381.5C 498.683,382.093 501.183,383.093 503.5,384.5 Z"/></g>
<g><path style="opacity:1" fill="#e6e1e1" d="M 503.5,384.5 C 506.682,385.594 509.682,386.928 512.5,388.5C 513.136,425.163 505.303,459.83 489,492.5C 482.688,503.486 474.855,513.319 465.5,522C 448.812,532.521 434.146,545.354 421.5,560.5C 418.167,560.5 414.833,560.5 411.5,560.5C 411.709,559.078 412.209,557.745 413,556.5C 425.65,540.849 440.483,527.682 457.5,517C 472.283,503.538 483.116,487.371 490,468.5C 499.214,441.261 503.714,413.261 503.5,384.5 Z"/></g>
<g><path style="opacity:1" fill="#e7e1e0" d="M 246.5,384.5 C 246.097,404.707 247.93,424.707 252,444.5C 257.669,472.348 270.503,496.181 290.5,516C 309.676,527.419 325.676,542.252 338.5,560.5C 334.833,560.5 331.167,560.5 327.5,560.5C 321.74,553.236 315.407,546.403 308.5,540C 288.992,528.158 273.159,512.658 261,493.5C 244.006,460.654 236.173,425.654 237.5,388.5C 240.088,386.375 243.088,385.042 246.5,384.5 Z"/></g>
<g><path style="opacity:1" fill="#0d4692" d="M 237.5,388.5 C 236.173,425.654 244.006,460.654 261,493.5C 273.159,512.658 288.992,528.158 308.5,540C 315.407,546.403 321.74,553.236 327.5,560.5C 322.833,560.5 318.167,560.5 313.5,560.5C 308.454,552.946 302.454,546.112 295.5,540C 283.816,532.325 273.316,523.158 264,512.5C 237.801,476.549 226.134,436.216 229,391.5C 231.587,389.804 234.421,388.804 237.5,388.5 Z"/></g>
<g><path style="opacity:1" fill="#0b4591" d="M 512.5,388.5 C 515.05,389.358 517.55,390.358 520,391.5C 520.666,402.526 520.332,413.526 519,424.5C 515.304,465.321 498.804,499.821 469.5,528C 456.023,536.644 444.69,547.478 435.5,560.5C 430.833,560.5 426.167,560.5 421.5,560.5C 434.146,545.354 448.812,532.521 465.5,522C 474.855,513.319 482.688,503.486 489,492.5C 505.303,459.83 513.136,425.163 512.5,388.5 Z"/></g>
<g><path style="opacity:0.012" fill="#220000" d="M 214.5,390.5 C 215.833,391.167 215.833,391.167 214.5,390.5 Z"/></g>
<g><path style="opacity:1" fill="#eae7e5" d="M 307.5,560.5 C 246.833,560.5 186.167,560.5 125.5,560.5C 125.207,542.799 125.541,525.132 126.5,507.5C 127.901,497.03 128.567,486.364 128.5,475.5C 128.877,463.138 129.71,450.804 131,438.5C 131.883,435.898 133.383,433.731 135.5,432C 145.748,427.543 155.748,422.543 165.5,417C 175.691,413.535 186.025,410.535 196.5,408C 205.5,403.5 214.5,399 223.5,394.5C 223.833,411.994 225.666,429.328 229,446.5C 235.523,479.722 251.023,507.888 275.5,531C 287.916,538.916 298.583,548.749 307.5,560.5 Z"/></g>
<g><path style="opacity:1" fill="#eae7e5" d="M 620.5,478.5 C 620.362,489.368 621.029,500.035 622.5,510.5C 623.471,527.119 623.805,543.786 623.5,560.5C 562.833,560.5 502.167,560.5 441.5,560.5C 446.236,554.258 451.569,548.424 457.5,543C 475.425,531.075 489.925,515.909 501,497.5C 517.621,465.239 525.788,430.906 525.5,394.5C 534.221,399.527 543.221,404.027 552.5,408C 562.879,410.845 573.212,413.845 583.5,417C 593.167,422.563 603.167,427.563 613.5,432C 615.894,433.952 617.394,436.452 618,439.5C 619.402,452.466 620.236,465.466 620.5,478.5 Z"/></g>
<g><path style="opacity:0.016" fill="#230300" d="M 552.5,401.5 C 552.897,400.475 553.563,400.308 554.5,401C 553.906,401.464 553.239,401.631 552.5,401.5 Z"/></g>
<g><path style="opacity:0.016" fill="#230300" d="M 555.5,402.5 C 555.897,401.475 556.563,401.308 557.5,402C 556.906,402.464 556.239,402.631 555.5,402.5 Z"/></g>
<g><path style="opacity:0.014" fill="#230100" d="M 560.5,404.5 C 561.601,403.402 562.934,403.235 564.5,404C 563.207,404.49 561.873,404.657 560.5,404.5 Z"/></g>
<g><path style="opacity:0.012" fill="#1e0000" d="M 565.5,405.5 C 566.601,404.402 567.934,404.235 569.5,405C 568.207,405.49 566.873,405.657 565.5,405.5 Z"/></g>
<g><path style="opacity:0.004" fill="#130100" d="M 134.5,425.5 C 133.833,425.5 133.5,425.833 133.5,426.5C 131.025,426.253 131.025,425.587 133.5,424.5C 134.107,424.624 134.44,424.957 134.5,425.5 Z"/></g>
<g><path style="opacity:0.012" fill="#220000" d="M 125.5,432.5 C 126.833,433.167 126.833,433.167 125.5,432.5 Z"/></g>
<g><path style="opacity:0.012" fill="#1e0000" d="M 623.5,437.5 C 623.459,433.757 624.126,433.59 625.5,437C 624.906,437.464 624.239,437.631 623.5,437.5 Z"/></g>
<g><path style="opacity:0.012" fill="#1d0000" d="M 98.5,449.5 C 99.2506,448.427 100.251,448.26 101.5,449C 100.552,449.483 99.552,449.649 98.5,449.5 Z"/></g>
<g><path style="opacity:1" fill="#bd8462" d="M 120.5,560.5 C 117.5,560.5 114.5,560.5 111.5,560.5C 111.303,556.378 110.47,552.378 109,548.5C 103.532,539.23 98.8654,529.564 95,519.5C 92.253,508.976 93.5863,498.976 99,489.5C 101.228,481.967 101.895,474.301 101,466.5C 100,464.5 99,462.5 98,460.5C 96.2111,458.771 94.0444,458.104 91.5,458.5C 103.18,456.17 114.18,451.836 124.5,445.5C 124.833,447.667 125.167,449.833 125.5,452C 122.068,488.082 120.402,524.248 120.5,560.5 Z"/></g>
<g><path style="opacity:1" fill="#be8462" d="M 657.5,458.5 C 651.174,457.981 647.674,460.981 647,467.5C 646,479.831 648.333,491.497 654,502.5C 655.132,510.445 654.132,518.111 651,525.5C 647.588,532.658 643.922,539.658 640,546.5C 638.26,551.035 637.094,555.702 636.5,560.5C 633.833,560.5 631.167,560.5 628.5,560.5C 628.603,523.905 626.936,487.405 623.5,451C 623.833,449.167 624.167,447.333 624.5,445.5C 634.769,452.027 645.769,456.361 657.5,458.5 Z"/></g>
<g><path style="opacity:0.012" fill="#1e0000" d="M 98.5,449.5 C 98.5,449.833 98.5,450.167 98.5,450.5C 93.1667,450.167 93.1667,449.833 98.5,449.5 Z"/></g>
<g><path style="opacity:0.016" fill="#1f0200" d="M 88.5,451.5 C 89.9464,450.387 91.6131,450.22 93.5,451C 91.8659,451.494 90.1992,451.66 88.5,451.5 Z"/></g>
<g><path style="opacity:1" fill="#cd936c" d="M 91.5,458.5 C 94.0444,458.104 96.2111,458.771 98,460.5C 99,462.5 100,464.5 101,466.5C 101.895,474.301 101.228,481.967 99,489.5C 93.5863,498.976 92.253,508.976 95,519.5C 98.8654,529.564 103.532,539.23 109,548.5C 110.47,552.378 111.303,556.378 111.5,560.5C 76.1667,560.5 40.8333,560.5 5.5,560.5C 6.54805,553.308 8.38138,546.308 11,539.5C 18.8151,521.189 29.1484,504.522 42,489.5C 54.9749,473.435 71.4749,463.101 91.5,458.5 Z"/></g>
<g><path style="opacity:1" fill="#cd936c" d="M 657.5,458.5 C 666.293,460.377 674.627,463.543 682.5,468C 714.218,491.255 734.551,522.088 743.5,560.5C 707.833,560.5 672.167,560.5 636.5,560.5C 637.094,555.702 638.26,551.035 640,546.5C 643.922,539.658 647.588,532.658 651,525.5C 654.132,518.111 655.132,510.445 654,502.5C 648.333,491.497 646,479.831 647,467.5C 647.674,460.981 651.174,457.981 657.5,458.5 Z"/></g>
<g><path style="opacity:1" fill="#61402a" d="M 322.5,472.5 C 306.658,472.17 290.991,472.504 275.5,473.5C 274.957,473.44 274.624,473.107 274.5,472.5C 290.662,471.173 306.662,471.173 322.5,472.5 Z"/></g>
<g><path style="opacity:0.02" fill="#1e0200" d="M 36.5,487.5 C 35.8333,487.5 35.5,487.833 35.5,488.5C 34.2875,487.503 34.4542,486.503 36,485.5C 36.4643,486.094 36.631,486.761 36.5,487.5 Z"/></g>
<g><path style="opacity:1" fill="#a6a3a1" d="M 128.5,475.5 C 128.567,486.364 127.901,497.03 126.5,507.5C 126.512,496.641 127.179,485.974 128.5,475.5 Z"/></g>
<g><path style="opacity:1" fill="#b2aead" d="M 620.5,478.5 C 621.821,488.974 622.488,499.641 622.5,510.5C 621.029,500.035 620.362,489.368 620.5,478.5 Z"/></g>
<g><path style="opacity:0.004" fill="#130100" d="M 25.5,501.5 C 24.8333,501.5 24.5,501.833 24.5,502.5C 23.2875,501.503 23.4542,500.503 25,499.5C 25.4643,500.094 25.631,500.761 25.5,501.5 Z"/></g>
<g><path style="opacity:0.014" fill="#1e0100" d="M 749.5,550.5 C 749.5,551.833 749.5,553.167 749.5,554.5C 749.167,554.5 748.833,554.5 748.5,554.5C 748.232,552.901 748.566,551.568 749.5,550.5 Z"/></g>
</svg>
