<?xml version="1.0" encoding="UTF-8"?>
<!DOCTYPE svg PUBLIC "-//W3C//DTD SVG 1.1//EN" "http://www.w3.org/Graphics/SVG/1.1/DTD/svg11.dtd">
<svg xmlns="http://www.w3.org/2000/svg" version="1.1" width="750px" height="559px" style="shape-rendering:geometricPrecision; text-rendering:geometricPrecision; image-rendering:optimizeQuality; fill-rule:evenodd; clip-rule:evenodd" xmlns:xlink="http://www.w3.org/1999/xlink">
<g><path style="opacity:0.012" fill="#1f0200" d="M 348.5,-0.5 C 349.833,-0.5 351.167,-0.5 352.5,-0.5C 352.5,-0.166667 352.5,0.166667 352.5,0.5C 350.901,0.767809 349.568,0.434475 348.5,-0.5 Z"/></g>
<g><path style="opacity:0.923" fill="#1c0d01" d="M 358.5,-0.5 C 368.5,-0.5 378.5,-0.5 388.5,-0.5C 390.265,0.461384 392.265,0.794717 394.5,0.5C 396.905,1.7682 399.572,2.43487 402.5,2.5C 405.215,4.07191 408.215,5.07191 411.5,5.5C 414.979,7.40312 418.646,9.06979 422.5,10.5C 422.842,11.3382 423.508,11.6716 424.5,11.5C 424.973,12.9063 425.973,13.573 427.5,13.5C 432.291,17.0683 437.291,20.4016 442.5,23.5C 448.976,28.248 455.309,33.248 461.5,38.5C 468.841,45.8412 475.841,53.5079 482.5,61.5C 483.34,63.8525 484.674,65.8525 486.5,67.5C 486.992,69.8185 487.992,71.8185 489.5,73.5C 490.659,77.1513 492.326,80.4846 494.5,83.5C 494.402,85.5529 495.069,87.2196 496.5,88.5C 496.263,89.791 496.596,90.791 497.5,91.5C 497.263,92.791 497.596,93.791 498.5,94.5C 498.232,96.099 498.566,97.4324 499.5,98.5C 499.232,100.099 499.566,101.432 500.5,102.5C 500.216,104.415 500.549,106.081 501.5,107.5C 502.82,127.666 501.486,147.666 497.5,167.5C 496.566,168.568 496.232,169.901 496.5,171.5C 495.566,172.568 495.232,173.901 495.5,175.5C 494.596,176.209 494.263,177.209 494.5,178.5C 493.596,179.209 493.263,180.209 493.5,181.5C 492.262,183.214 491.595,185.214 491.5,187.5C 490.152,188.527 489.652,189.86 490,191.5C 491.145,190.364 492.312,189.364 493.5,188.5C 495.698,188.125 497.698,187.458 499.5,186.5C 507.618,186.307 512.952,189.974 515.5,197.5C 516.433,208.516 516.1,219.516 514.5,230.5C 513.539,232.265 513.205,234.265 513.5,236.5C 512.539,238.265 512.205,240.265 512.5,242.5C 511.057,246.615 510.057,250.948 509.5,255.5C 508.596,256.209 508.263,257.209 508.5,258.5C 507.596,259.209 507.263,260.209 507.5,261.5C 506.662,261.842 506.328,262.508 506.5,263.5C 505.662,263.842 505.328,264.508 505.5,265.5C 504.662,265.842 504.328,266.508 504.5,267.5C 503.833,267.5 503.5,267.833 503.5,268.5C 502.662,268.842 502.328,269.508 502.5,270.5C 501.833,270.5 501.5,270.833 501.5,271.5C 500.833,271.5 500.5,271.833 500.5,272.5C 499.833,272.5 499.5,272.833 499.5,273.5C 498.662,273.842 498.328,274.508 498.5,275.5C 497.833,275.5 497.5,275.833 497.5,276.5C 496.833,276.5 496.5,276.833 496.5,277.5C 495.508,277.328 494.842,277.662 494.5,278.5C 493.508,278.328 492.842,278.662 492.5,279.5C 490.5,279.5 488.5,279.5 486.5,279.5C 485.828,278.733 484.995,278.066 484,277.5C 483.506,279.134 483.34,280.801 483.5,282.5C 482.232,284.905 481.565,287.572 481.5,290.5C 480.596,291.209 480.263,292.209 480.5,293.5C 479.596,294.209 479.263,295.209 479.5,296.5C 478.596,297.209 478.263,298.209 478.5,299.5C 477.662,299.842 477.328,300.508 477.5,301.5C 475.326,304.515 473.659,307.849 472.5,311.5C 471.577,330.032 472.077,348.699 474,367.5C 475.31,369.739 477.143,371.406 479.5,372.5C 480.899,373.89 482.566,374.89 484.5,375.5C 484.866,376.695 485.699,377.361 487,377.5C 488.666,376.652 490.166,375.652 491.5,374.5C 494.167,374.5 496.833,374.5 499.5,374.5C 501.649,375.736 503.982,376.736 506.5,377.5C 507.93,378.537 509.597,379.204 511.5,379.5C 513.509,381.065 515.843,382.065 518.5,382.5C 520.649,383.736 522.982,384.736 525.5,385.5C 527.336,387.588 529.669,388.921 532.5,389.5C 532.842,390.338 533.508,390.672 534.5,390.5C 538.347,393.593 542.68,395.926 547.5,397.5C 549.509,399.065 551.843,400.065 554.5,400.5C 558.712,403.056 563.378,404.39 568.5,404.5C 572.978,406.123 577.645,407.456 582.5,408.5C 585.314,410.07 588.314,411.403 591.5,412.5C 591.973,413.906 592.973,414.573 594.5,414.5C 596.579,416.873 599.246,418.206 602.5,418.5C 603.514,419.674 604.847,420.34 606.5,420.5C 609.256,422.204 612.256,423.537 615.5,424.5C 618.982,427.484 621.482,431.151 623,435.5C 624.972,437.232 627.139,438.565 629.5,439.5C 629.842,440.338 630.508,440.672 631.5,440.5C 632.659,442.25 634.326,443.25 636.5,443.5C 639.53,445.403 642.863,446.737 646.5,447.5C 652.867,449.912 659.534,451.579 666.5,452.5C 667.93,453.537 669.597,454.204 671.5,454.5C 674.979,456.403 678.646,458.07 682.5,459.5C 682.842,460.338 683.508,460.672 684.5,460.5C 688.766,463.645 693.099,466.812 697.5,470C 703.73,476.062 709.73,482.229 715.5,488.5C 716.08,490.749 717.413,492.415 719.5,493.5C 720.786,496.117 722.453,498.45 724.5,500.5C 724.738,502.404 725.738,503.738 727.5,504.5C 727.328,505.492 727.662,506.158 728.5,506.5C 729.11,508.434 730.11,510.101 731.5,511.5C 732.584,514.004 733.917,516.337 735.5,518.5C 736.992,522.818 738.992,526.818 741.5,530.5C 741.402,532.553 742.069,534.22 743.5,535.5C 743.595,537.786 744.262,539.786 745.5,541.5C 745.263,542.791 745.596,543.791 746.5,544.5C 746.232,546.099 746.566,547.432 747.5,548.5C 747.232,550.099 747.566,551.432 748.5,552.5C 748.5,554.5 748.5,556.5 748.5,558.5C 746.833,558.5 745.167,558.5 743.5,558.5C 738.252,533.673 727.419,511.673 711,492.5C 703.463,483.296 694.963,475.129 685.5,468C 676.479,462.488 666.813,458.655 656.5,456.5C 645.148,454.153 634.481,449.82 624.5,443.5C 624.167,445.333 623.833,447.167 623.5,449C 626.985,485.416 628.652,521.916 628.5,558.5C 626.833,558.5 625.167,558.5 623.5,558.5C 623.762,518.073 621.929,477.74 618,437.5C 616.667,432.167 613.333,428.833 608,427.5C 607.506,429.134 607.34,430.801 607.5,432.5C 606.835,430.631 606.169,428.631 605.5,426.5C 603.55,425.628 601.55,424.961 599.5,424.5C 596.202,422.515 592.869,420.515 589.5,418.5C 585.676,416.424 581.676,414.59 577.5,413C 558.824,409.91 541.657,403.077 526,392.5C 526.395,428.533 518.395,462.533 502,494.5C 496.644,503.876 490.311,512.543 483,520.5C 473.791,528.711 464.291,536.544 454.5,544C 449.589,548.406 445.255,553.24 441.5,558.5C 439.5,558.5 437.5,558.5 435.5,558.5C 439.803,552.753 444.469,547.253 449.5,542C 483.788,519.688 505.621,488.522 515,448.5C 519.72,429.074 521.22,409.407 519.5,389.5C 516.471,388.16 513.471,386.827 510.5,385.5C 508.046,384.773 505.713,383.773 503.5,382.5C 499.774,380.513 495.94,380.18 492,381.5C 500.266,437.055 483.099,482.888 440.5,519C 424.025,529.309 410.359,542.476 399.5,558.5C 397.833,558.5 396.167,558.5 394.5,558.5C 399.447,549.371 405.78,541.204 413.5,534C 429.026,522.801 443.526,510.301 457,496.5C 463.534,488.809 469.034,480.475 473.5,471.5C 474.043,471.44 474.376,471.107 474.5,470.5C 457.671,469.173 441.005,469.173 424.5,470.5C 414.304,471.515 405.804,475.848 399,483.5C 400.237,480.224 402.403,477.391 405.5,475C 412.916,469.459 421.249,466.459 430.5,466C 446.177,465.833 461.844,465.333 477.5,464.5C 489.107,438.875 492.273,412.209 487,384.5C 482.828,382.081 478.828,379.415 475,376.5C 474.872,380.969 475.705,385.303 477.5,389.5C 477.333,389.833 477.167,390.167 477,390.5C 474.333,389.167 472.333,387.167 471,384.5C 468.838,370.879 467.338,357.213 466.5,343.5C 466.831,335.804 466.497,328.138 465.5,320.5C 458.685,329.149 451.018,336.982 442.5,344C 433.856,350.314 425.523,356.981 417.5,364C 414.754,365.75 411.754,366.75 408.5,367C 406.167,369.333 403.833,371.667 401.5,374C 399.765,374.651 398.098,374.485 396.5,373.5C 392.83,375.586 388.996,377.253 385,378.5C 382.193,377.218 379.526,377.551 377,379.5C 375.395,377.936 373.562,377.436 371.5,378C 372.328,378.915 373.328,379.581 374.5,380C 369.229,380.081 364.063,379.247 359,377.5C 356.702,378.627 354.535,378.294 352.5,376.5C 352.511,377.441 352.011,378.108 351,378.5C 343.138,376.657 335.638,373.823 328.5,370C 325.96,367.795 323.793,365.295 322,362.5C 321.667,363.5 321.333,364.5 321,365.5C 319,362.167 317,358.833 315,355.5C 307.038,349.206 299.371,342.54 292,335.5C 288.692,330.692 285.192,326.025 281.5,321.5C 280.501,334.817 280.167,348.15 280.5,361.5C 280.624,371.39 279.291,381.056 276.5,390.5C 275.758,391.287 274.925,391.953 274,392.5C 273.997,388.433 273.83,384.433 273.5,380.5C 269.5,383.167 265.5,385.833 261.5,388.5C 257.374,415.201 260.874,440.868 272,465.5C 290.797,466.074 309.631,466.907 328.5,468C 336.794,470.141 343.794,474.308 349.5,480.5C 349.333,480.833 349.167,481.167 349,481.5C 342.606,475.721 335.106,472.221 326.5,471C 309.503,470.5 292.503,470.333 275.5,470.5C 282.871,486.067 293.205,499.567 306.5,511C 316.167,518.667 325.833,526.333 335.5,534C 343.22,541.204 349.553,549.371 354.5,558.5C 352.833,558.5 351.167,558.5 349.5,558.5C 344.528,550.013 338.194,542.513 330.5,536C 316.163,525.567 302.663,514.067 290,501.5C 260.62,466.656 249.62,426.656 257,381.5C 253.018,380.06 249.185,380.393 245.5,382.5C 243.249,383.695 240.915,384.695 238.5,385.5C 234.935,387.116 231.269,388.449 227.5,389.5C 225.75,425.103 232.917,458.769 249,490.5C 261.072,511.239 277.238,528.072 297.5,541C 303.459,546.117 308.459,551.95 312.5,558.5C 310.5,558.5 308.5,558.5 306.5,558.5C 302.745,553.24 298.411,548.406 293.5,544C 258.39,520.667 236.556,488.167 228,446.5C 224.724,428.964 222.557,411.298 221.5,393.5C 205.142,403.677 187.476,410.511 168.5,414C 165.216,415.033 162.216,416.533 159.5,418.5C 155.993,420.754 152.327,422.754 148.5,424.5C 146.085,425.305 143.751,426.305 141.5,427.5C 136.32,428.512 132.82,431.512 131,436.5C 129.529,449.462 128.695,462.462 128.5,475.5C 127.467,483.655 126.8,491.988 126.5,500.5C 125.639,519.819 125.306,539.153 125.5,558.5C 123.833,558.5 122.167,558.5 120.5,558.5C 120.681,521.261 122.348,484.095 125.5,447C 125.167,445.833 124.833,444.667 124.5,443.5C 114.53,449.817 103.863,454.15 92.5,456.5C 79.1304,459.018 67.1304,464.518 56.5,473C 38.1352,490.028 23.6352,509.861 13,532.5C 9.56479,540.909 7.06479,549.576 5.5,558.5C 3.83333,558.5 2.16667,558.5 0.5,558.5C 0.5,556.5 0.5,554.5 0.5,552.5C 1.43448,551.432 1.76781,550.099 1.5,548.5C 2.43448,547.432 2.76781,546.099 2.5,544.5C 3.40397,543.791 3.73731,542.791 3.5,541.5C 4.40397,540.791 4.73731,539.791 4.5,538.5C 8.6174,528.926 13.9507,518.26 20.5,506.5C 21.9063,506.027 22.573,505.027 22.5,503.5C 31.181,491.64 40.8476,480.473 51.5,470C 55.9008,466.812 60.2341,463.645 64.5,460.5C 68.8178,459.008 72.8178,457.008 76.5,454.5C 77.791,454.737 78.791,454.404 79.5,453.5C 81.7857,453.405 83.7857,452.738 85.5,451.5C 87.099,451.768 88.4324,451.434 89.5,450.5C 99.8495,449.719 109.183,446.386 117.5,440.5C 120.331,439.921 122.664,438.588 124.5,436.5C 126.762,431.91 129.762,427.91 133.5,424.5C 138.081,422.87 142.414,420.87 146.5,418.5C 147.492,418.672 148.158,418.338 148.5,417.5C 149.492,417.672 150.158,417.338 150.5,416.5C 151.492,416.672 152.158,416.338 152.5,415.5C 153.492,415.672 154.158,415.338 154.5,414.5C 166.486,408.498 179.153,404.331 192.5,402C 199.67,399.25 206.337,395.75 212.5,391.5C 224.752,385.539 237.085,379.872 249.5,374.5C 252.167,374.5 254.833,374.5 257.5,374.5C 258.795,375.488 260.128,376.488 261.5,377.5C 262.103,381.12 263.436,381.453 265.5,378.5C 270.666,377.006 273.666,373.673 274.5,368.5C 275.094,359.179 275.427,349.846 275.5,340.5C 275.719,329.951 275.053,319.617 273.5,309.5C 273.065,306.843 272.065,304.509 270.5,302.5C 270.204,300.597 269.537,298.93 268.5,297.5C 267.204,291.95 265.537,286.617 263.5,281.5C 263.768,279.901 263.434,278.568 262.5,277.5C 262.768,275.901 262.434,274.568 261.5,273.5C 261.784,271.585 261.451,269.919 260.5,268.5C 260.5,266.833 260.5,265.167 260.5,263.5C 257.763,263.599 255.096,263.265 252.5,262.5C 250.5,261.167 248.833,259.5 247.5,257.5C 246.242,254.228 245.075,250.894 244,247.5C 243.667,248.5 243.333,249.5 243,250.5C 241.116,232.796 239.283,214.962 237.5,197C 237.811,190.01 238.977,183.177 241,176.5C 243.098,172.897 245.932,170.23 249.5,168.5C 251.512,169.014 253.512,169.18 255.5,169C 253.381,168.658 253.047,167.825 254.5,166.5C 255.139,165.903 255.472,165.07 255.5,164C 255.054,160.65 254.388,157.483 253.5,154.5C 252.621,136.656 252.287,118.989 252.5,101.5C 254.148,99.5441 254.815,97.2108 254.5,94.5C 256.941,86.5106 259.608,78.5106 262.5,70.5C 263.267,69.828 263.934,68.9947 264.5,68C 263.549,67.2825 263.383,66.4491 264,65.5C 264.667,66.8333 265.333,66.8333 266,65.5C 267.193,63.1136 268.36,60.7802 269.5,58.5C 288.387,35.2832 311.387,17.2832 338.5,4.5C 343.355,3.45646 348.022,2.12313 352.5,0.5C 354.735,0.794717 356.735,0.461384 358.5,-0.5 Z M 491.5,187.5 C 491.842,188.338 492.508,188.672 493.5,188.5C 492.312,189.364 491.145,190.364 490,191.5C 489.652,189.86 490.152,188.527 491.5,187.5 Z"/></g>
<g><path style="opacity:0.012" fill="#1f0200" d="M 394.5,0.5 C 394.5,0.166667 394.5,-0.166667 394.5,-0.5C 395.833,-0.5 397.167,-0.5 398.5,-0.5C 397.432,0.434475 396.099,0.767809 394.5,0.5 Z"/></g>
<g><path style="opacity:0.012" fill="#1f0200" d="M 345.5,1.5 C 345.897,0.474981 346.563,0.308314 347.5,1C 346.906,1.46434 346.239,1.63101 345.5,1.5 Z"/></g>
<g><path style="opacity:0.012" fill="#1f0200" d="M 402.5,1.5 C 401.448,1.64945 400.448,1.48278 399.5,1C 400.749,0.259877 401.749,0.426544 402.5,1.5 Z"/></g>
<g><path style="opacity:0.012" fill="#1f0200" d="M 402.5,2.5 C 402.5,2.16667 402.5,1.83333 402.5,1.5C 406.5,1.83333 406.5,2.16667 402.5,2.5 Z"/></g>
<g><path style="opacity:0.012" fill="#1f0200" d="M 406.5,3.5 C 406.897,2.47498 407.563,2.30831 408.5,3C 407.906,3.46434 407.239,3.63101 406.5,3.5 Z"/></g>
<g><path style="opacity:0.012" fill="#1f0200" d="M 338.5,4.5 C 337.761,4.63101 337.094,4.46434 336.5,4C 337.437,3.30831 338.103,3.47498 338.5,4.5 Z"/></g>
<g><path style="opacity:0.012" fill="#1f0200" d="M 411.5,4.5 C 410.761,4.63101 410.094,4.46434 409.5,4C 410.437,3.30831 411.103,3.47498 411.5,4.5 Z"/></g>
<g><path style="opacity:0.012" fill="#1f0200" d="M 334.5,4.5 C 335.833,5.16667 335.833,5.16667 334.5,4.5 Z"/></g>
<g><path style="opacity:0.012" fill="#1f0200" d="M 411.5,5.5 C 411.5,5.16667 411.5,4.83333 411.5,4.5C 414.167,4.83333 414.167,5.16667 411.5,5.5 Z"/></g>
<g><path style="opacity:0.012" fill="#1f0200" d="M 414.5,5.5 C 415.833,6.16667 415.833,6.16667 414.5,5.5 Z"/></g>
<g><path style="opacity:0.012" fill="#1f0200" d="M 422.5,9.5 C 423.833,10.1667 423.833,10.1667 422.5,9.5 Z"/></g>
<g><path style="opacity:0.012" fill="#1f0200" d="M 424.5,10.5 C 425.833,11.1667 425.833,11.1667 424.5,10.5 Z"/></g>
<g><path style="opacity:0.012" fill="#1f0200" d="M 427.5,12.5 C 426.833,11.1667 426.833,11.1667 427.5,12.5 Z"/></g>
<g><path style="opacity:0.012" fill="#1f0200" d="M 427.5,12.5 C 428.833,13.1667 428.833,13.1667 427.5,12.5 Z"/></g>
<g><path style="opacity:0.012" fill="#1f0200" d="M 306.5,20.5 C 307.833,21.1667 307.833,21.1667 306.5,20.5 Z"/></g>
<g><path style="opacity:0.012" fill="#1f0200" d="M 442.5,22.5 C 443.833,23.1667 443.833,23.1667 442.5,22.5 Z"/></g>
<g><path style="opacity:0.012" fill="#1f0200" d="M 302.5,23.5 C 303.833,24.1667 303.833,24.1667 302.5,23.5 Z"/></g>
<g><path style="opacity:0.012" fill="#1f0200" d="M 444.5,23.5 C 445.833,24.1667 445.833,24.1667 444.5,23.5 Z"/></g>
<g><path style="opacity:0.012" fill="#1f0200" d="M 292.5,31.5 C 293.833,32.1667 293.833,32.1667 292.5,31.5 Z"/></g>
<g><path style="opacity:0.012" fill="#1f0200" d="M 285.5,37.5 C 286.833,38.1667 286.833,38.1667 285.5,37.5 Z"/></g>
<g><path style="opacity:0.012" fill="#1f0200" d="M 461.5,37.5 C 462.833,38.1667 462.833,38.1667 461.5,37.5 Z"/></g>
<g><path style="opacity:0.012" fill="#1f0200" d="M 285.5,38.5 C 284.833,39.1667 284.833,39.1667 285.5,38.5 Z"/></g>
<g><path style="opacity:0.012" fill="#1f0200" d="M 464.5,39.5 C 463.833,38.1667 463.833,38.1667 464.5,39.5 Z"/></g>
<g><path style="opacity:1" fill="#b76c40" d="M 419.5,47.5 C 423.971,60.7091 428.137,74.0424 432,87.5C 432.835,94.3376 433.668,101.171 434.5,108C 434.503,118.591 431.503,128.091 425.5,136.5C 418.859,135.882 412.359,135.549 406,135.5C 404.591,136.781 403.091,137.781 401.5,138.5C 399.099,139.049 396.765,139.882 394.5,141C 390.411,144.095 386.077,146.761 381.5,149C 380.177,149.816 379.511,150.983 379.5,152.5C 375.829,155.249 374.663,158.916 376,163.5C 380.664,174.825 385.831,185.825 391.5,196.5C 391.56,197.043 391.893,197.376 392.5,197.5C 393.459,193.291 395.126,192.791 397.5,196C 407.127,200.577 417.294,202.411 428,201.5C 440.08,201.728 451.746,199.728 463,195.5C 464.711,195.439 466.044,196.106 467,197.5C 472.424,209.073 472.757,220.739 468,232.5C 466.167,234.333 464.333,236.167 462.5,238C 457.974,239.551 453.641,241.551 449.5,244C 448.299,244.903 447.465,246.069 447,247.5C 445.051,260.343 445.217,273.176 447.5,286C 446.937,296.026 443.437,304.86 437,312.5C 429.938,319.73 422.771,326.73 415.5,333.5C 411.126,335.543 408.126,338.876 406.5,343.5C 405.914,343.291 405.414,342.957 405,342.5C 400.287,346.021 395.287,349.021 390,351.5C 382.828,349.463 375.662,349.129 368.5,350.5C 366.185,350.201 366.185,349.368 368.5,348C 359.374,350.647 350.708,349.481 342.5,344.5C 340.568,345.52 338.568,345.687 336.5,345C 333.963,342.094 331.796,338.927 330,335.5C 329.751,336.624 329.251,337.624 328.5,338.5C 325.849,336.35 323.349,334.017 321,331.5C 320.667,332.167 320.333,332.833 320,333.5C 318.579,330.991 316.912,328.657 315,326.5C 314.612,327.428 313.945,328.095 313,328.5C 310.047,327.049 307.213,325.382 304.5,323.5C 303.757,324.908 302.923,326.241 302,327.5C 301.667,327.167 301.333,326.833 301,326.5C 300.221,327.728 299.221,328.728 298,329.5C 296.418,329.155 294.918,329.155 293.5,329.5C 278.813,310.625 269.646,289.292 266,265.5C 265.259,258.463 264.259,251.463 263,244.5C 262.333,217.833 262.333,191.167 263,164.5C 266.98,143.329 269.646,121.996 271,100.5C 272.51,88.4568 276.177,77.1234 282,66.5C 290.818,55.1671 302.318,48.0005 316.5,45C 347.077,38.0207 377.744,37.6874 408.5,44C 412.292,44.8757 415.959,46.0424 419.5,47.5 Z"/></g>
<g><path style="opacity:0.012" fill="#1f0200" d="M 464.5,39.5 C 465.167,39.5 465.5,39.8333 465.5,40.5C 465.167,40.1667 464.833,39.8333 464.5,39.5 Z"/></g>
<g><path style="opacity:0.012" fill="#1f0200" d="M 465.5,40.5 C 466.167,40.5 466.5,40.8333 466.5,41.5C 466.167,41.1667 465.833,40.8333 465.5,40.5 Z"/></g>
<g><path style="opacity:0.012" fill="#1f0200" d="M 466.5,41.5 C 467.833,42.1667 467.833,42.1667 466.5,41.5 Z"/></g>
<g><path style="opacity:1" fill="#a75e37" d="M 419.5,47.5 C 438.484,52.5716 454.984,61.9049 469,75.5C 477.33,87.4514 481.996,100.785 483,115.5C 483.047,151.489 483.047,187.489 483,223.5C 482.309,246.415 479.642,269.082 475,291.5C 468.375,310.754 456.875,326.42 440.5,338.5C 439.548,336.955 439.215,335.288 439.5,333.5C 435.811,332.285 431.977,331.285 428,330.5C 425.911,331.445 423.911,331.445 422,330.5C 420.333,332.167 418.667,333.833 417,335.5C 416.722,334.584 416.222,333.918 415.5,333.5C 422.771,326.73 429.938,319.73 437,312.5C 443.437,304.86 446.937,296.026 447.5,286C 445.217,273.176 445.051,260.343 447,247.5C 447.465,246.069 448.299,244.903 449.5,244C 453.641,241.551 457.974,239.551 462.5,238C 464.333,236.167 466.167,234.333 468,232.5C 472.757,220.739 472.424,209.073 467,197.5C 466.044,196.106 464.711,195.439 463,195.5C 451.746,199.728 440.08,201.728 428,201.5C 417.294,202.411 407.127,200.577 397.5,196C 395.126,192.791 393.459,193.291 392.5,197.5C 391.893,197.376 391.56,197.043 391.5,196.5C 392.097,196.265 392.43,195.765 392.5,195C 388.977,184.101 384.477,173.601 379,163.5C 378.322,159.779 378.489,156.112 379.5,152.5C 379.511,150.983 380.177,149.816 381.5,149C 386.077,146.761 390.411,144.095 394.5,141C 396.765,139.882 399.099,139.049 401.5,138.5C 400.04,144.423 402.04,148.923 407.5,152C 420.822,151.446 434.156,151.113 447.5,151C 453.886,151.596 459.886,153.429 465.5,156.5C 466.631,154.926 466.798,153.259 466,151.5C 464.207,148.705 462.04,146.205 459.5,144C 448.437,139.228 437.104,136.728 425.5,136.5C 431.503,128.091 434.503,118.591 434.5,108C 433.668,101.171 432.835,94.3376 432,87.5C 428.137,74.0424 423.971,60.7091 419.5,47.5 Z"/></g>
<g><path style="opacity:0.012" fill="#1f0200" d="M 269.5,55.5 C 270.833,56.1667 270.833,56.1667 269.5,55.5 Z"/></g>
<g><path style="opacity:0.012" fill="#1f0200" d="M 269.5,58.5 C 268.833,57.1667 268.833,57.1667 269.5,58.5 Z"/></g>
<g><path style="opacity:0.012" fill="#1f0200" d="M 268.5,58.5 C 267.833,59.1667 267.833,59.1667 268.5,58.5 Z"/></g>
<g><path style="opacity:0.012" fill="#1f0200" d="M 483.5,61.5 C 482.833,60.1667 482.833,60.1667 483.5,61.5 Z"/></g>
<g><path style="opacity:0.012" fill="#1f0200" d="M 483.5,61.5 C 484.833,62.1667 484.833,62.1667 483.5,61.5 Z"/></g>
<g><path style="opacity:0.012" fill="#1f0200" d="M 264.5,63.5 C 265.833,64.1667 265.833,64.1667 264.5,63.5 Z"/></g>
<g><path style="opacity:0.012" fill="#1f0200" d="M 486.5,66.5 C 487.833,67.1667 487.833,67.1667 486.5,66.5 Z"/></g>
<g><path style="opacity:0.012" fill="#1f0200" d="M 262.5,70.5 C 261.833,69.1667 261.833,69.1667 262.5,70.5 Z"/></g>
<g><path style="opacity:0.012" fill="#1f0200" d="M 260.5,71.5 C 261.833,72.1667 261.833,72.1667 260.5,71.5 Z"/></g>
<g><path style="opacity:0.012" fill="#1f0200" d="M 490.5,73.5 C 490.167,73.5 489.833,73.5 489.5,73.5C 489.833,70.8333 490.167,70.8333 490.5,73.5 Z"/></g>
<g><path style="opacity:0.012" fill="#1f0200" d="M 490.5,73.5 C 491.833,74.1667 491.833,74.1667 490.5,73.5 Z"/></g>
<g><path style="opacity:0.012" fill="#1f0200" d="M 491.5,75.5 C 492.833,76.1667 492.833,76.1667 491.5,75.5 Z"/></g>
<g><path style="opacity:0.012" fill="#1f0200" d="M 494.5,83.5 C 494.369,82.7611 494.536,82.0944 495,81.5C 495.692,82.4368 495.525,83.1034 494.5,83.5 Z"/></g>
<g><path style="opacity:0.012" fill="#1f0200" d="M 496.5,88.5 C 496.369,87.7611 496.536,87.0944 497,86.5C 497.692,87.4368 497.525,88.1034 496.5,88.5 Z"/></g>
<g><path style="opacity:0.012" fill="#1f0200" d="M 254.5,87.5 C 255.525,87.8966 255.692,88.5632 255,89.5C 254.536,88.9056 254.369,88.2389 254.5,87.5 Z"/></g>
<g><path style="opacity:0.012" fill="#1f0200" d="M 497.5,91.5 C 497.369,90.7611 497.536,90.0944 498,89.5C 498.692,90.4368 498.525,91.1034 497.5,91.5 Z"/></g>
<g><path style="opacity:0.012" fill="#1f0200" d="M 254.5,94.5 C 253.402,93.3991 253.235,92.0657 254,90.5C 254.49,91.7932 254.657,93.1266 254.5,94.5 Z"/></g>
<g><path style="opacity:0.012" fill="#1f0200" d="M 498.5,94.5 C 498.369,93.7611 498.536,93.0944 499,92.5C 499.692,93.4368 499.525,94.1034 498.5,94.5 Z"/></g>
<g><path style="opacity:0.012" fill="#1f0200" d="M 252.5,95.5 C 253.598,96.6009 253.765,97.9343 253,99.5C 252.51,98.2068 252.343,96.8734 252.5,95.5 Z"/></g>
<g><path style="opacity:0.012" fill="#1f0200" d="M 499.5,98.5 C 499.351,97.448 499.517,96.448 500,95.5C 500.74,96.7494 500.573,97.7494 499.5,98.5 Z"/></g>
<g><path style="opacity:1" fill="#311905" d="M 260.5,99.5 C 262.01,100.728 263.51,100.728 265,99.5C 265.506,117.703 263.839,135.703 260,153.5C 257.872,135.46 258.039,117.46 260.5,99.5 Z"/></g>
<g><path style="opacity:0.012" fill="#1f0200" d="M 500.5,102.5 C 500.351,101.448 500.517,100.448 501,99.5C 501.74,100.749 501.573,101.749 500.5,102.5 Z"/></g>
<g><path style="opacity:0.012" fill="#1f0200" d="M 252.5,101.5 C 252.662,103.527 252.495,105.527 252,107.5C 251.211,105.288 251.378,103.288 252.5,101.5 Z"/></g>
<g><path style="opacity:0.012" fill="#1f0200" d="M 501.5,107.5 C 501.343,106.127 501.51,104.793 502,103.5C 502.765,105.066 502.598,106.399 501.5,107.5 Z"/></g>
<g><path style="opacity:0.012" fill="#1f0200" d="M 502.5,108.5 C 503.622,110.288 503.789,112.288 503,114.5C 502.505,112.527 502.338,110.527 502.5,108.5 Z"/></g>
<g><path style="opacity:0.012" fill="#1f0200" d="M 250.5,112.5 C 251.656,120.323 251.823,128.323 251,136.5C 250.5,128.507 250.334,120.507 250.5,112.5 Z"/></g>
<g><path style="opacity:0.012" fill="#1f0200" d="M 503.5,117.5 C 504.645,121.311 504.812,125.311 504,129.5C 503.501,125.514 503.334,121.514 503.5,117.5 Z"/></g>
<g><path style="opacity:1" fill="#1c0c01" d="M 341.5,142.5 C 340.399,143.848 339.399,145.348 338.5,147C 325.17,146.593 311.837,146.26 298.5,146C 291.067,146.252 284.067,148.086 277.5,151.5C 276.913,150.767 276.913,149.767 277.5,148.5C 278.356,145.426 279.69,142.592 281.5,140C 290.937,132.452 301.771,129.285 314,130.5C 322.947,131.123 331.78,132.456 340.5,134.5C 341.092,137.127 341.425,139.794 341.5,142.5 Z"/></g>
<g><path style="opacity:0.012" fill="#1f0200" d="M 502.5,133.5 C 503.638,136.304 503.805,139.304 503,142.5C 502.502,139.518 502.335,136.518 502.5,133.5 Z"/></g>
<g><path style="opacity:1" fill="#45240e" d="M 489.5,111.5 C 490.397,112.598 491.23,112.598 492,111.5C 492.915,112.328 493.581,113.328 494,114.5C 494.333,113.833 494.667,113.167 495,112.5C 497.488,133.947 495.321,154.947 488.5,175.5C 487.161,154.084 487.495,132.751 489.5,111.5 Z"/></g>
<g><path style="opacity:1" fill="#1b0b01" d="M 425.5,136.5 C 437.104,136.728 448.437,139.228 459.5,144C 462.04,146.205 464.207,148.705 466,151.5C 466.798,153.259 466.631,154.926 465.5,156.5C 459.886,153.429 453.886,151.596 447.5,151C 434.156,151.113 420.822,151.446 407.5,152C 402.04,148.923 400.04,144.423 401.5,138.5C 403.091,137.781 404.591,136.781 406,135.5C 412.359,135.549 418.859,135.882 425.5,136.5 Z"/></g>
<g><path style="opacity:0.012" fill="#1f0200" d="M 251.5,142.5 C 252.641,145.64 252.808,148.973 252,152.5C 251.502,149.183 251.335,145.85 251.5,142.5 Z"/></g>
<g><path style="opacity:0.012" fill="#1f0200" d="M 501.5,144.5 C 502.622,146.288 502.789,148.288 502,150.5C 501.505,148.527 501.338,146.527 501.5,144.5 Z"/></g>
<g><path style="opacity:1" fill="#a45c35" d="M 341.5,142.5 C 339.878,148.988 340.378,155.321 343,161.5C 344.061,167.724 343.394,173.724 341,179.5C 337.833,182.667 334.667,185.833 331.5,189C 313.167,187.984 294.833,187.484 276.5,187.5C 279.171,185.029 281.504,182.363 283.5,179.5C 282.562,176.727 280.729,174.727 278,173.5C 274.806,167.187 273.806,160.521 275,153.5C 275.099,151.347 275.933,149.681 277.5,148.5C 276.913,149.767 276.913,150.767 277.5,151.5C 284.067,148.086 291.067,146.252 298.5,146C 311.837,146.26 325.17,146.593 338.5,147C 339.399,145.348 340.399,143.848 341.5,142.5 Z"/></g>
<g><path style="opacity:0.012" fill="#1f0200" d="M 500.5,152.5 C 501.598,153.601 501.765,154.934 501,156.5C 500.51,155.207 500.343,153.873 500.5,152.5 Z"/></g>
<g><path style="opacity:0.012" fill="#1f0200" d="M 253.5,154.5 C 253.662,156.527 253.495,158.527 253,160.5C 252.211,158.288 252.378,156.288 253.5,154.5 Z"/></g>
<g><path style="opacity:0.012" fill="#1f0200" d="M 499.5,158.5 C 500.598,159.601 500.765,160.934 500,162.5C 499.51,161.207 499.343,159.873 499.5,158.5 Z"/></g>
<g><path style="opacity:1" fill="#100601" d="M 304.5,158.5 C 312.685,157.897 320.685,158.731 328.5,161C 315.469,159.365 302.802,160.865 290.5,165.5C 289.304,165.154 289.304,164.654 290.5,164C 295.07,161.606 299.736,159.773 304.5,158.5 Z"/></g>
<g><path style="opacity:0.012" fill="#1f0200" d="M 254.5,166.5 C 253.402,165.399 253.235,164.066 254,162.5C 254.49,163.793 254.657,165.127 254.5,166.5 Z"/></g>
<g><path style="opacity:1" fill="#1b1009" d="M 308.5,162.5 C 318.079,162.32 327.079,164.486 335.5,169C 337.701,170.684 338.367,172.684 337.5,175C 329.14,175.64 320.806,176.473 312.5,177.5C 303.81,177.98 295.81,175.98 288.5,171.5C 291.285,168.6 294.618,166.434 298.5,165C 302.038,164.465 305.372,163.632 308.5,162.5 Z"/></g>
<g><path style="opacity:0.012" fill="#1f0200" d="M 498.5,163.5 C 499.573,164.251 499.74,165.251 499,166.5C 498.517,165.552 498.351,164.552 498.5,163.5 Z"/></g>
<g><path style="opacity:1" fill="#150901" d="M 418.5,163.5 C 429.145,162.525 438.812,165.025 447.5,171C 442.19,168.568 436.523,166.901 430.5,166C 423.883,165.104 417.383,165.604 411,167.5C 410.5,167.333 410,167.167 409.5,167C 412.459,165.396 415.459,164.229 418.5,163.5 Z"/></g>
<g><path style="opacity:1" fill="#ebeaea" d="M 311.5,169.5 C 310.167,169.5 308.833,169.5 307.5,169.5C 307.167,166.5 308.5,165.167 311.5,165.5C 311.5,166.833 311.5,168.167 311.5,169.5 Z"/></g>
<g><path style="opacity:0.012" fill="#1f0200" d="M 249.5,168.5 C 248.761,168.631 248.094,168.464 247.5,168C 248.437,167.308 249.103,167.475 249.5,168.5 Z"/></g>
<g><path style="opacity:0.012" fill="#1f0200" d="M 497.5,167.5 C 498.573,168.251 498.74,169.251 498,170.5C 497.517,169.552 497.351,168.552 497.5,167.5 Z"/></g>
<g><path style="opacity:1" fill="#1b1008" d="M 415.5,168.5 C 426.771,167.767 437.437,169.934 447.5,175C 449.585,176.041 451.252,177.541 452.5,179.5C 445.276,182.177 437.776,183.51 430,183.5C 420.469,182.261 410.969,180.761 401.5,179C 400.14,177.062 400.473,175.396 402.5,174C 406.637,171.489 410.97,169.656 415.5,168.5 Z"/></g>
<g><path style="opacity:1" fill="#e1dfe0" d="M 300.5,166.5 C 301.833,166.5 303.167,166.5 304.5,166.5C 304.292,168.92 304.626,171.253 305.5,173.5C 303.647,174.76 301.814,174.76 300,173.5C 299.297,171.071 299.463,168.738 300.5,166.5 Z"/></g>
<g><path style="opacity:1" fill="#c5c2c4" d="M 322.5,166.5 C 327.788,166.111 330.455,168.444 330.5,173.5C 327.794,173.575 325.127,173.908 322.5,174.5C 322.5,171.833 322.5,169.167 322.5,166.5 Z"/></g>
<g><path style="opacity:0.012" fill="#1f0200" d="M 242.5,170.5 C 243.833,171.167 243.833,171.167 242.5,170.5 Z"/></g>
<g><path style="opacity:1" fill="#b8b4b4" d="M 311.5,169.5 C 313.337,169.639 313.67,170.306 312.5,171.5C 311.702,171.043 311.369,170.376 311.5,169.5 Z"/></g>
<g><path style="opacity:0.012" fill="#1f0200" d="M 496.5,171.5 C 497.573,172.251 497.74,173.251 497,174.5C 496.517,173.552 496.351,172.552 496.5,171.5 Z"/></g>
<g><path style="opacity:1" fill="#ebe9e9" d="M 423.5,175.5 C 422.167,175.5 420.833,175.5 419.5,175.5C 419.5,174.167 419.5,172.833 419.5,171.5C 422.5,171.167 423.833,172.5 423.5,175.5 Z"/></g>
<g><path style="opacity:1" fill="#d9d7d8" d="M 412.5,171.5 C 413.833,171.5 415.167,171.5 416.5,171.5C 416.5,173.833 416.5,176.167 416.5,178.5C 412.45,179.311 409.784,177.811 408.5,174C 409.858,173.066 411.192,172.232 412.5,171.5 Z"/></g>
<g><path style="opacity:1" fill="#dedcdd" d="M 434.5,172.5 C 440.651,173.103 441.984,175.936 438.5,181C 436.421,181.808 434.421,181.641 432.5,180.5C 434.229,178.149 434.896,175.482 434.5,172.5 Z"/></g>
<g><path style="opacity:0.012" fill="#1f0200" d="M 495.5,175.5 C 496.525,175.897 496.692,176.563 496,177.5C 495.536,176.906 495.369,176.239 495.5,175.5 Z"/></g>
<g><path style="opacity:1" fill="#a35e37" d="M 247.5,178.5 C 249.477,174.035 252.477,173.368 256.5,176.5C 258.4,182.366 258.9,188.366 258,194.5C 255.731,188.279 252.231,182.945 247.5,178.5 Z"/></g>
<g><path style="opacity:1" fill="#1b0c02" d="M 379.5,152.5 C 378.489,156.112 378.322,159.779 379,163.5C 384.477,173.601 388.977,184.101 392.5,195C 392.43,195.765 392.097,196.265 391.5,196.5C 385.831,185.825 380.664,174.825 376,163.5C 374.663,158.916 375.829,155.249 379.5,152.5 Z"/></g>
<g><path style="opacity:1" fill="#b7b2b6" d="M 423.5,175.5 C 425.337,175.639 425.67,176.306 424.5,177.5C 423.702,177.043 423.369,176.376 423.5,175.5 Z"/></g>
<g><path style="opacity:0.012" fill="#1f0200" d="M 494.5,178.5 C 495.833,179.5 495.833,180.5 494.5,181.5C 494.5,180.5 494.5,179.5 494.5,178.5 Z"/></g>
<g><path style="opacity:0.012" fill="#1f0200" d="M 493.5,181.5 C 493.833,181.5 494.167,181.5 494.5,181.5C 494.167,185.5 493.833,185.5 493.5,181.5 Z"/></g>
<g><path style="opacity:1" fill="#55301a" d="M 309.5,181.5 C 314.65,180.349 319.984,180.183 325.5,181C 320.246,184.158 314.913,184.324 309.5,181.5 Z"/></g>
<g><path style="opacity:0.012" fill="#1f0200" d="M 236.5,184.5 C 237.613,185.946 237.78,187.613 237,189.5C 236.506,187.866 236.34,186.199 236.5,184.5 Z"/></g>
<g><path style="opacity:0.012" fill="#1f0200" d="M 500.5,185.5 C 501.251,184.427 502.251,184.26 503.5,185C 502.552,185.483 501.552,185.649 500.5,185.5 Z"/></g>
<g><path style="opacity:0.012" fill="#1f0200" d="M 499.5,186.5 C 498.448,186.649 497.448,186.483 496.5,186C 497.749,185.26 498.749,185.427 499.5,186.5 Z"/></g>
<g><path style="opacity:0.012" fill="#1f0200" d="M 505.5,186.5 C 505.897,185.475 506.563,185.308 507.5,186C 506.906,186.464 506.239,186.631 505.5,186.5 Z"/></g>
<g><path style="opacity:1" fill="#281609" d="M 412.5,185.5 C 412.56,184.957 412.893,184.624 413.5,184.5C 417.587,186.685 421.921,188.185 426.5,189C 421.322,189.913 416.656,188.746 412.5,185.5 Z"/></g>
<g><path style="opacity:0.012" fill="#1f0200" d="M 235.5,192.5 C 236.638,195.304 236.805,198.304 236,201.5C 235.502,198.518 235.335,195.518 235.5,192.5 Z"/></g>
<g><path style="opacity:1" fill="#ae653b" d="M 505.5,194.5 C 497.791,198.379 492.291,204.379 489,212.5C 485.601,202.433 488.768,195.933 498.5,193C 499.667,192.833 500.833,192.667 502,192.5C 503.681,192.608 504.848,193.275 505.5,194.5 Z"/></g>
<g><path style="opacity:0.012" fill="#1f0200" d="M 516.5,197.5 C 516.167,197.5 515.833,197.5 515.5,197.5C 515.833,193.5 516.167,193.5 516.5,197.5 Z"/></g>
<g><path style="opacity:1" fill="#a45c35" d="M 505.5,194.5 C 508.188,195.024 509.688,196.691 510,199.5C 510.82,206.014 510.653,212.347 509.5,218.5C 509.649,217.448 509.483,216.448 509,215.5C 508,217.167 507,218.833 506,220.5C 499.436,225.129 493.436,230.462 488,236.5C 487.802,238.382 487.302,240.048 486.5,241.5C 486.775,223.334 493.108,207.667 505.5,194.5 Z"/></g>
<g><path style="opacity:0.012" fill="#1f0200" d="M 516.5,197.5 C 517.613,198.946 517.78,200.613 517,202.5C 516.506,200.866 516.34,199.199 516.5,197.5 Z"/></g>
<g><path style="opacity:0.012" fill="#1f0200" d="M 236.5,204.5 C 237.629,206.628 237.796,208.961 237,211.5C 236.503,209.19 236.337,206.857 236.5,204.5 Z"/></g>
<g><path style="opacity:0.012" fill="#1f0200" d="M 517.5,205.5 C 518.622,207.288 518.789,209.288 518,211.5C 517.505,209.527 517.338,207.527 517.5,205.5 Z"/></g>
<g><path style="opacity:1" fill="#ad643b" d="M 247.5,178.5 C 251.944,187.331 255.111,196.665 257,206.5C 257.301,223.532 258.134,240.532 259.5,257.5C 255.818,258.275 253.318,256.941 252,253.5C 249.869,247.976 248.202,242.309 247,236.5C 245.943,223.149 244.776,209.815 243.5,196.5C 243.502,191.444 244.002,186.444 245,181.5C 245.236,179.881 246.069,178.881 247.5,178.5 Z"/></g>
<g><path style="opacity:1" fill="#a45c35" d="M 335.5,210.5 C 336.241,213.413 336.741,216.413 337,219.5C 337.465,220.931 338.299,222.097 339.5,223C 344.382,221.935 349.382,221.602 354.5,222C 364.913,229.879 375.913,230.545 387.5,224C 390.966,220.96 392.3,217.126 391.5,212.5C 394.385,212.194 397.052,212.527 399.5,213.5C 399.062,213.435 398.728,213.601 398.5,214C 403.009,217.693 405.676,222.36 406.5,228C 406.289,233.411 403.623,237.078 398.5,239C 399.448,239.483 400.448,239.649 401.5,239.5C 399.26,240.687 396.76,241.354 394,241.5C 389.853,240.594 385.686,240.427 381.5,241C 381.167,241.333 380.833,241.667 380.5,242C 381.416,242.278 382.082,242.778 382.5,243.5C 377.372,242.865 373.372,244.532 370.5,248.5C 368.5,247.167 366.5,247.167 364.5,248.5C 360.456,244.263 355.456,242.596 349.5,243.5C 351.969,242.683 354.635,242.183 357.5,242C 349.593,239.663 341.593,238.829 333.5,239.5C 331.8,238.39 330.466,237.057 329.5,235.5C 330.738,236.412 332.072,236.579 333.5,236C 327.829,231.47 325.996,225.637 328,218.5C 330.733,215.938 333.233,213.271 335.5,210.5 Z"/></g>
<g><path style="opacity:0.012" fill="#1f0200" d="M 237.5,212.5 C 238.629,214.628 238.796,216.961 238,219.5C 237.503,217.19 237.337,214.857 237.5,212.5 Z"/></g>
<g><path style="opacity:1" fill="#1a0b01" d="M 335.5,210.5 C 333.233,213.271 330.733,215.938 328,218.5C 325.996,225.637 327.829,231.47 333.5,236C 332.072,236.579 330.738,236.412 329.5,235.5C 322.87,229.59 321.87,222.757 326.5,215C 329.783,213.439 332.617,211.273 335,208.5C 335.464,209.094 335.631,209.761 335.5,210.5 Z"/></g>
<g><path style="opacity:0.012" fill="#1f0200" d="M 516.5,215.5 C 517.629,217.628 517.796,219.961 517,222.5C 516.503,220.19 516.337,217.857 516.5,215.5 Z"/></g>
<g><path style="opacity:1" fill="#b56a3f" d="M 509.5,218.5 C 508.474,234.005 505.307,249.005 500,263.5C 498,266.167 496,268.833 494,271.5C 491.075,274.059 488.075,274.059 485,271.5C 484.865,261.479 485.365,251.479 486.5,241.5C 487.302,240.048 487.802,238.382 488,236.5C 493.436,230.462 499.436,225.129 506,220.5C 507,218.833 508,217.167 509,215.5C 509.483,216.448 509.649,217.448 509.5,218.5 Z"/></g>
<g><path style="opacity:0.012" fill="#1f0200" d="M 238.5,222.5 C 239.638,225.304 239.805,228.304 239,231.5C 238.502,228.518 238.335,225.518 238.5,222.5 Z"/></g>
<g><path style="opacity:0.012" fill="#1f0200" d="M 515.5,224.5 C 516.613,225.946 516.78,227.613 516,229.5C 515.506,227.866 515.34,226.199 515.5,224.5 Z"/></g>
<g><path style="opacity:1" fill="#1a0c02" d="M 399.5,213.5 C 409.393,218.264 412.226,225.597 408,235.5C 406.056,237.221 403.89,238.554 401.5,239.5C 400.448,239.649 399.448,239.483 398.5,239C 403.623,237.078 406.289,233.411 406.5,228C 405.676,222.36 403.009,217.693 398.5,214C 398.728,213.601 399.062,213.435 399.5,213.5 Z"/></g>
<g><path style="opacity:0.012" fill="#1f0200" d="M 514.5,230.5 C 515.613,231.946 515.78,233.613 515,235.5C 514.506,233.866 514.34,232.199 514.5,230.5 Z"/></g>
<g><path style="opacity:0.012" fill="#1f0200" d="M 239.5,233.5 C 240.613,234.946 240.78,236.613 240,238.5C 239.506,236.866 239.34,235.199 239.5,233.5 Z"/></g>
<g><path style="opacity:1" fill="#190b01" d="M 340.5,231.5 C 348.115,230.177 354.782,232.01 360.5,237C 362.423,237.808 364.423,238.308 366.5,238.5C 371.258,236.956 375.925,235.123 380.5,233C 384.5,232.333 388.5,232.333 392.5,233C 384.639,233.508 377.639,236.174 371.5,241C 368.167,241.667 364.833,241.667 361.5,241C 357.664,238.916 353.997,236.583 350.5,234C 346.5,233.667 342.5,233.333 338.5,233C 339.416,232.722 340.082,232.222 340.5,231.5 Z"/></g>
<g><path style="opacity:0.012" fill="#1f0200" d="M 513.5,236.5 C 514.613,237.946 514.78,239.613 514,241.5C 513.506,239.866 513.34,238.199 513.5,236.5 Z"/></g>
<g><path style="opacity:0.012" fill="#1f0200" d="M 240.5,240.5 C 241.573,241.251 241.74,242.251 241,243.5C 240.517,242.552 240.351,241.552 240.5,240.5 Z"/></g>
<g><path style="opacity:0.012" fill="#1f0200" d="M 512.5,242.5 C 513.598,243.601 513.765,244.934 513,246.5C 512.51,245.207 512.343,243.873 512.5,242.5 Z"/></g>
<g><path style="opacity:1" fill="#1b0b01" d="M 382.5,243.5 C 397.489,246.24 409.989,253.24 420,264.5C 422.364,268.219 423.864,272.219 424.5,276.5C 423.448,276.649 422.448,276.483 421.5,276C 410.517,267.012 398.184,260.679 384.5,257C 379.833,256.333 375.167,255.667 370.5,255C 370.014,252.973 370.014,250.807 370.5,248.5C 373.372,244.532 377.372,242.865 382.5,243.5 Z"/></g>
<g><path style="opacity:1" fill="#1b0b01" d="M 349.5,243.5 C 355.456,242.596 360.456,244.263 364.5,248.5C 364.756,250.792 364.423,252.959 363.5,255C 357.246,255.627 351.246,256.794 345.5,258.5C 339.78,258.956 334.78,260.956 330.5,264.5C 324.368,266.736 319.035,270.236 314.5,275C 312.975,276.009 311.308,276.509 309.5,276.5C 311.401,268.214 315.734,261.38 322.5,256C 327.866,252.654 333.2,249.321 338.5,246C 342.344,245.764 346.011,244.93 349.5,243.5 Z"/></g>
<g><path style="opacity:0.012" fill="#1f0200" d="M 511.5,248.5 C 512.573,249.251 512.74,250.251 512,251.5C 511.517,250.552 511.351,249.552 511.5,248.5 Z"/></g>
<g><path style="opacity:0.012" fill="#1f0200" d="M 510.5,255.5 C 510.351,254.448 510.517,253.448 511,252.5C 511.74,253.749 511.573,254.749 510.5,255.5 Z"/></g>
<g><path style="opacity:0.012" fill="#1f0200" d="M 509.5,255.5 C 509.833,255.5 510.167,255.5 510.5,255.5C 510.737,256.791 510.404,257.791 509.5,258.5C 509.5,257.5 509.5,256.5 509.5,255.5 Z"/></g>
<g><path style="opacity:0.012" fill="#1f0200" d="M 247.5,257.5 C 246.833,258.167 246.833,258.167 247.5,257.5 Z"/></g>
<g><path style="opacity:0.012" fill="#1f0200" d="M 508.5,258.5 C 508.833,258.5 509.167,258.5 509.5,258.5C 509.167,261.167 508.833,261.167 508.5,258.5 Z"/></g>
<g><path style="opacity:0.012" fill="#1f0200" d="M 507.5,261.5 C 508.833,262.167 508.833,262.833 507.5,263.5C 507.5,262.833 507.5,262.167 507.5,261.5 Z"/></g>
<g><path style="opacity:0.012" fill="#1f0200" d="M 252.5,262.5 C 252.5,262.833 252.5,263.167 252.5,263.5C 249.833,263.167 249.833,262.833 252.5,262.5 Z"/></g>
<g><path style="opacity:0.012" fill="#1f0200" d="M 252.5,263.5 C 253.833,264.167 253.833,264.167 252.5,263.5 Z"/></g>
<g><path style="opacity:0.012" fill="#1f0200" d="M 506.5,263.5 C 506.833,263.5 507.167,263.5 507.5,263.5C 507.672,264.492 507.338,265.158 506.5,265.5C 506.5,264.833 506.5,264.167 506.5,263.5 Z"/></g>
<g><path style="opacity:0.012" fill="#1f0300" d="M 254.5,265.5 C 255.919,264.549 257.585,264.216 259.5,264.5C 259.649,265.552 259.483,266.552 259,267.5C 257.951,265.893 256.451,265.227 254.5,265.5 Z"/></g>
<g><path style="opacity:1" fill="#1d0e03" d="M 354.5,261.5 C 359.057,262.793 363.723,263.459 368.5,263.5C 374.827,262.722 381.161,262.555 387.5,263C 392.98,265.241 398.313,267.741 403.5,270.5C 403.44,271.043 403.107,271.376 402.5,271.5C 391.603,265.188 380.103,263.855 368,267.5C 362.168,266.325 356.335,265.325 350.5,264.5C 345.136,264.466 339.969,265.466 335,267.5C 334.5,267.333 334,267.167 333.5,267C 336.833,265.333 340.167,263.667 343.5,262C 347.152,261.501 350.818,261.335 354.5,261.5 Z"/></g>
<g><path style="opacity:0.012" fill="#1f0200" d="M 505.5,265.5 C 505.833,265.5 506.167,265.5 506.5,265.5C 506.672,266.492 506.338,267.158 505.5,267.5C 505.5,266.833 505.5,266.167 505.5,265.5 Z"/></g>
<g><path style="opacity:0.012" fill="#1f0200" d="M 504.5,267.5 C 504.833,267.5 505.167,267.5 505.5,267.5C 505.315,268.17 504.981,268.17 504.5,267.5 Z"/></g>
<g><path style="opacity:0.012" fill="#1f0200" d="M 260.5,268.5 C 260.657,269.873 260.49,271.207 260,272.5C 259.235,270.934 259.402,269.601 260.5,268.5 Z"/></g>
<g><path style="opacity:0.012" fill="#1f0200" d="M 503.5,268.5 C 503.833,268.5 504.167,268.5 504.5,268.5C 504.672,269.492 504.338,270.158 503.5,270.5C 503.5,269.833 503.5,269.167 503.5,268.5 Z"/></g>
<g><path style="opacity:0.012" fill="#1f0200" d="M 502.5,270.5 C 502.833,270.5 503.167,270.5 503.5,270.5C 503.315,271.17 502.981,271.17 502.5,270.5 Z"/></g>
<g><path style="opacity:0.012" fill="#1f0200" d="M 501.5,271.5 C 501.833,271.5 502.167,271.5 502.5,271.5C 502.315,272.17 501.981,272.17 501.5,271.5 Z"/></g>
<g><path style="opacity:0.012" fill="#1f0200" d="M 500.5,272.5 C 500.833,272.5 501.167,272.5 501.5,272.5C 501.315,273.17 500.981,273.17 500.5,272.5 Z"/></g>
<g><path style="opacity:0.012" fill="#1f0200" d="M 261.5,273.5 C 261.649,274.552 261.483,275.552 261,276.5C 260.26,275.251 260.427,274.251 261.5,273.5 Z"/></g>
<g><path style="opacity:0.012" fill="#1f0200" d="M 499.5,273.5 C 499.833,273.5 500.167,273.5 500.5,273.5C 500.315,274.17 499.981,274.17 499.5,273.5 Z"/></g>
<g><path style="opacity:0.012" fill="#1f0200" d="M 498.5,275.5 C 499.833,276.167 499.833,276.167 498.5,275.5 Z"/></g>
<g><path style="opacity:1" fill="#9f5b35" d="M 345.5,258.5 C 345.082,259.222 344.416,259.722 343.5,260C 347.356,260.177 351.023,260.677 354.5,261.5C 350.818,261.335 347.152,261.501 343.5,262C 340.167,263.667 336.833,265.333 333.5,267C 334,267.167 334.5,267.333 335,267.5C 339.969,265.466 345.136,264.466 350.5,264.5C 356.335,265.325 362.168,266.325 368,267.5C 380.103,263.855 391.603,265.188 402.5,271.5C 403.107,271.376 403.44,271.043 403.5,270.5C 408.593,274.268 413.926,277.601 419.5,280.5C 414.329,285.832 410.162,291.832 407,298.5C 403.551,302.167 399.718,305.167 395.5,307.5C 374.992,313.875 354.992,312.541 335.5,303.5C 334.893,303.624 334.56,303.957 334.5,304.5C 326.221,297.466 320.554,288.632 317.5,278C 317.645,277.228 317.978,276.561 318.5,276C 323.435,273.394 328.102,270.394 332.5,267C 331.619,266.292 330.953,265.458 330.5,264.5C 334.78,260.956 339.78,258.956 345.5,258.5 Z"/></g>
<g><path style="opacity:0.012" fill="#1f0200" d="M 497.5,276.5 C 497.833,276.5 498.167,276.5 498.5,276.5C 498.315,277.17 497.981,277.17 497.5,276.5 Z"/></g>
<g><path style="opacity:0.012" fill="#1f0200" d="M 262.5,277.5 C 262.649,278.552 262.483,279.552 262,280.5C 261.26,279.251 261.427,278.251 262.5,277.5 Z"/></g>
<g><path style="opacity:0.012" fill="#1f0200" d="M 496.5,277.5 C 496.833,277.5 497.167,277.5 497.5,277.5C 497.315,278.17 496.981,278.17 496.5,277.5 Z"/></g>
<g><path style="opacity:1" fill="#190f07" d="M 346.5,274.5 C 358.838,274.333 371.171,274.5 383.5,275C 388.383,276.072 393.05,277.739 397.5,280C 401.114,280.945 404.781,281.612 408.5,282C 404.11,282.772 399.777,282.606 395.5,281.5C 378.665,294.907 360.998,296.073 342.5,285C 341.167,283.667 339.833,282.333 338.5,281C 321.312,279.41 321.312,278.41 338.5,278C 341.158,276.522 343.825,275.355 346.5,274.5 Z"/></g>
<g><path style="opacity:1" fill="#f1f0f1" d="M 346.5,277.5 C 358.844,278.42 371.177,278.587 383.5,278C 386.932,280.367 387.265,283.034 384.5,286C 375.338,288.478 366.005,289.145 356.5,288C 352.715,287.627 349.215,286.461 346,284.5C 345.444,282.115 345.61,279.782 346.5,277.5 Z"/></g>
<g><path style="opacity:0.012" fill="#1f0200" d="M 494.5,278.5 C 495.833,279.167 495.833,279.167 494.5,278.5 Z"/></g>
<g><path style="opacity:0.012" fill="#1f0200" d="M 486.5,279.5 C 486.217,280.289 485.717,280.956 485,281.5C 484.472,280.184 484.972,279.517 486.5,279.5 Z"/></g>
<g><path style="opacity:0.012" fill="#1f0200" d="M 492.5,280.5 C 492.5,280.167 492.5,279.833 492.5,279.5C 493.167,279.5 493.833,279.5 494.5,279.5C 494.158,280.338 493.492,280.672 492.5,280.5 Z"/></g>
<g><path style="opacity:0.012" fill="#1f0200" d="M 492.5,280.5 C 491.054,281.613 489.387,281.78 487.5,281C 489.134,280.506 490.801,280.34 492.5,280.5 Z"/></g>
<g><path style="opacity:0.012" fill="#1f0200" d="M 263.5,281.5 C 263.649,282.552 263.483,283.552 263,284.5C 262.26,283.251 262.427,282.251 263.5,281.5 Z"/></g>
<g><path style="opacity:0.012" fill="#1f0200" d="M 483.5,282.5 C 484.598,283.601 484.765,284.934 484,286.5C 483.51,285.207 483.343,283.873 483.5,282.5 Z"/></g>
<g><path style="opacity:0.012" fill="#1f0200" d="M 482.5,287.5 C 483.525,287.897 483.692,288.563 483,289.5C 482.536,288.906 482.369,288.239 482.5,287.5 Z"/></g>
<g><path style="opacity:0.012" fill="#1f0200" d="M 481.5,290.5 C 482.833,291.5 482.833,292.5 481.5,293.5C 481.5,292.5 481.5,291.5 481.5,290.5 Z"/></g>
<g><path style="opacity:0.012" fill="#1f0200" d="M 480.5,293.5 C 480.833,293.5 481.167,293.5 481.5,293.5C 481.737,294.791 481.404,295.791 480.5,296.5C 480.5,295.5 480.5,294.5 480.5,293.5 Z"/></g>
<g><path style="opacity:0.012" fill="#1f0200" d="M 479.5,296.5 C 479.833,296.5 480.167,296.5 480.5,296.5C 480.167,299.167 479.833,299.167 479.5,296.5 Z"/></g>
<g><path style="opacity:0.012" fill="#1f0200" d="M 268.5,297.5 C 268.631,298.239 268.464,298.906 268,299.5C 267.308,298.563 267.475,297.897 268.5,297.5 Z"/></g>
<g><path style="opacity:0.012" fill="#1f0200" d="M 478.5,299.5 C 479.833,300.167 479.833,300.833 478.5,301.5C 478.5,300.833 478.5,300.167 478.5,299.5 Z"/></g>
<g><path style="opacity:0.012" fill="#1f0200" d="M 477.5,301.5 C 477.833,301.5 478.167,301.5 478.5,301.5C 478.167,304.167 477.833,304.167 477.5,301.5 Z"/></g>
<g><path style="opacity:0.012" fill="#1f0200" d="M 270.5,302.5 C 270.631,303.239 270.464,303.906 270,304.5C 269.308,303.563 269.475,302.897 270.5,302.5 Z"/></g>
<g><path style="opacity:0.012" fill="#1f0200" d="M 476.5,304.5 C 477.833,305.167 477.833,305.167 476.5,304.5 Z"/></g>
<g><path style="opacity:0.012" fill="#1f0200" d="M 270.5,305.5 C 271.833,306.167 271.833,306.167 270.5,305.5 Z"/></g>
<g><path style="opacity:0.012" fill="#1f0200" d="M 475.5,306.5 C 476.833,307.167 476.833,307.167 475.5,306.5 Z"/></g>
<g><path style="opacity:0.012" fill="#1f0200" d="M 474.5,308.5 C 475.833,309.167 475.833,309.167 474.5,308.5 Z"/></g>
<g><path style="opacity:0.012" fill="#1f0200" d="M 273.5,309.5 C 273.657,310.873 273.49,312.207 273,313.5C 272.235,311.934 272.402,310.601 273.5,309.5 Z"/></g>
<g><path style="opacity:1" fill="#1c0c01" d="M 334.5,304.5 C 334.56,303.957 334.893,303.624 335.5,303.5C 354.992,312.541 374.992,313.875 395.5,307.5C 392.389,309.559 389.056,311.392 385.5,313C 384.333,314.833 383.167,316.667 382,318.5C 377.345,323.336 371.678,326.669 365,328.5C 360.934,327.072 357.434,324.905 354.5,322C 351.268,318.217 348.268,314.217 345.5,310C 341.807,308.153 338.14,306.32 334.5,304.5 Z"/></g>
<g><path style="opacity:0.012" fill="#1f0200" d="M 473.5,310.5 C 474.833,311.167 474.833,311.167 473.5,310.5 Z"/></g>
<g><path style="opacity:0.012" fill="#1f0200" d="M 472.5,311.5 C 472.833,311.5 473.167,311.5 473.5,311.5C 473.167,338.167 472.833,338.167 472.5,311.5 Z"/></g>
<g><path style="opacity:0.012" fill="#1f0200" d="M 273.5,321.5 C 274.66,334.327 274.827,347.327 274,360.5C 273.5,347.504 273.333,334.504 273.5,321.5 Z"/></g>
<g><path style="opacity:1" fill="#9a5333" d="M 466.5,343.5 C 454.455,352.708 443.455,363.208 433.5,375C 421.2,385.631 409.2,396.631 397.5,408C 391.227,414.052 383.727,417.552 375,418.5C 354.032,413.186 335.699,403.186 320,388.5C 310.189,372.038 298.355,357.205 284.5,344C 283.584,343.626 282.75,343.126 282,342.5C 281.828,349.013 281.328,355.347 280.5,361.5C 280.167,348.15 280.501,334.817 281.5,321.5C 285.192,326.025 288.692,330.692 292,335.5C 299.371,342.54 307.038,349.206 315,355.5C 317,358.833 319,362.167 321,365.5C 321.333,364.5 321.667,363.5 322,362.5C 323.793,365.295 325.96,367.795 328.5,370C 335.638,373.823 343.138,376.657 351,378.5C 352.011,378.108 352.511,377.441 352.5,376.5C 354.535,378.294 356.702,378.627 359,377.5C 364.063,379.247 369.229,380.081 374.5,380C 373.328,379.581 372.328,378.915 371.5,378C 373.562,377.436 375.395,377.936 377,379.5C 379.526,377.551 382.193,377.218 385,378.5C 388.996,377.253 392.83,375.586 396.5,373.5C 398.098,374.485 399.765,374.651 401.5,374C 403.833,371.667 406.167,369.333 408.5,367C 411.754,366.75 414.754,365.75 417.5,364C 425.523,356.981 433.856,350.314 442.5,344C 451.018,336.982 458.685,329.149 465.5,320.5C 466.497,328.138 466.831,335.804 466.5,343.5 Z"/></g>
<g><path style="opacity:0.012" fill="#1f0200" d="M 473.5,338.5 C 474.651,343.65 474.817,348.984 474,354.5C 473.501,349.177 473.334,343.844 473.5,338.5 Z"/></g>
<g><path style="opacity:1" fill="#b86c40" d="M 466.5,343.5 C 467.338,357.213 468.838,370.879 471,384.5C 472.333,387.167 474.333,389.167 477,390.5C 477.167,390.167 477.333,389.833 477.5,389.5C 475.705,385.303 474.872,380.969 475,376.5C 478.828,379.415 482.828,382.081 487,384.5C 492.273,412.209 489.107,438.875 477.5,464.5C 461.844,465.333 446.177,465.833 430.5,466C 421.249,466.459 412.916,469.459 405.5,475C 402.403,477.391 400.237,480.224 399,483.5C 405.804,475.848 414.304,471.515 424.5,470.5C 441.009,470.17 457.342,470.504 473.5,471.5C 469.034,480.475 463.534,488.809 457,496.5C 443.526,510.301 429.026,522.801 413.5,534C 405.78,541.204 399.447,549.371 394.5,558.5C 381.167,558.5 367.833,558.5 354.5,558.5C 349.553,549.371 343.22,541.204 335.5,534C 325.833,526.333 316.167,518.667 306.5,511C 293.205,499.567 282.871,486.067 275.5,470.5C 292.503,470.333 309.503,470.5 326.5,471C 335.106,472.221 342.606,475.721 349,481.5C 349.167,481.167 349.333,480.833 349.5,480.5C 343.794,474.308 336.794,470.141 328.5,468C 309.631,466.907 290.797,466.074 272,465.5C 260.874,440.868 257.374,415.201 261.5,388.5C 265.5,385.833 269.5,383.167 273.5,380.5C 273.83,384.433 273.997,388.433 274,392.5C 274.925,391.953 275.758,391.287 276.5,390.5C 279.291,381.056 280.624,371.39 280.5,361.5C 281.328,355.347 281.828,349.013 282,342.5C 282.75,343.126 283.584,343.626 284.5,344C 298.355,357.205 310.189,372.038 320,388.5C 335.699,403.186 354.032,413.186 375,418.5C 383.727,417.552 391.227,414.052 397.5,408C 409.2,396.631 421.2,385.631 433.5,375C 443.455,363.208 454.455,352.708 466.5,343.5 Z"/></g>
<g><path style="opacity:0.012" fill="#1f0200" d="M 272.5,366.5 C 273.622,368.288 273.789,370.288 273,372.5C 272.505,370.527 272.338,368.527 272.5,366.5 Z"/></g>
<g><path style="opacity:0.012" fill="#1f0200" d="M 479.5,371.5 C 480.833,372.167 480.833,372.167 479.5,371.5 Z"/></g>
<g><path style="opacity:0.012" fill="#1f0200" d="M 250.5,373.5 C 252.288,372.378 254.288,372.211 256.5,373C 254.527,373.495 252.527,373.662 250.5,373.5 Z"/></g>
<g><path style="opacity:0.012" fill="#1f0200" d="M 492.5,373.5 C 494.288,372.378 496.288,372.211 498.5,373C 496.527,373.495 494.527,373.662 492.5,373.5 Z"/></g>
<g><path style="opacity:0.012" fill="#1f0200" d="M 249.5,374.5 C 248.761,374.631 248.094,374.464 247.5,374C 248.437,373.308 249.103,373.475 249.5,374.5 Z"/></g>
<g><path style="opacity:0.012" fill="#1f0200" d="M 257.5,373.5 C 258.833,374.167 258.833,374.167 257.5,373.5 Z"/></g>
<g><path style="opacity:0.012" fill="#1f0200" d="M 491.5,374.5 C 490.833,373.167 490.833,373.167 491.5,374.5 Z"/></g>
<g><path style="opacity:0.012" fill="#1f0200" d="M 499.5,374.5 C 499.897,373.475 500.563,373.308 501.5,374C 500.906,374.464 500.239,374.631 499.5,374.5 Z"/></g>
<g><path style="opacity:0.012" fill="#1f0200" d="M 484.5,374.5 C 485.833,375.167 485.833,375.167 484.5,374.5 Z"/></g>
<g><path style="opacity:0.012" fill="#1f0200" d="M 261.5,376.5 C 262.833,377.167 262.833,377.167 261.5,376.5 Z"/></g>
<g><path style="opacity:0.012" fill="#1f0200" d="M 265.5,376.5 C 266.833,377.167 266.833,377.167 265.5,376.5 Z"/></g>
<g><path style="opacity:0.012" fill="#1f0200" d="M 506.5,377.5 C 506.897,376.475 507.563,376.308 508.5,377C 507.906,377.464 507.239,377.631 506.5,377.5 Z"/></g>
<g><path style="opacity:0.012" fill="#1f0200" d="M 265.5,377.5 C 265.5,377.833 265.5,378.167 265.5,378.5C 264.83,378.019 264.83,377.685 265.5,377.5 Z"/></g>
<g><path style="opacity:0.012" fill="#1f0200" d="M 511.5,379.5 C 511.897,378.475 512.563,378.308 513.5,379C 512.906,379.464 512.239,379.631 511.5,379.5 Z"/></g>
<g><path style="opacity:0.012" fill="#1f0200" d="M 233.5,379.5 C 234.833,380.167 234.833,380.167 233.5,379.5 Z"/></g>
<g><path style="opacity:0.012" fill="#1f0200" d="M 514.5,379.5 C 515.833,380.167 515.833,380.167 514.5,379.5 Z"/></g>
<g><path style="opacity:1" fill="#f7b70c" d="M 349.5,558.5 C 345.167,558.5 340.833,558.5 336.5,558.5C 332.693,551.735 328.026,545.569 322.5,540C 307.41,528.248 292.91,515.748 279,502.5C 250.932,467.433 239.765,427.433 245.5,382.5C 249.185,380.393 253.018,380.06 257,381.5C 249.62,426.656 260.62,466.656 290,501.5C 302.663,514.067 316.163,525.567 330.5,536C 338.194,542.513 344.528,550.013 349.5,558.5 Z"/></g>
<g><path style="opacity:1" fill="#f5b50e" d="M 503.5,382.5 C 507.795,416.701 501.962,449.034 486,479.5C 480.735,488.363 474.735,496.696 468,504.5C 455.63,515.927 442.797,526.761 429.5,537C 422.857,543.467 417.191,550.633 412.5,558.5C 408.167,558.5 403.833,558.5 399.5,558.5C 410.359,542.476 424.025,529.309 440.5,519C 483.099,482.888 500.266,437.055 492,381.5C 495.94,380.18 499.774,380.513 503.5,382.5 Z"/></g>
<g><path style="opacity:0.012" fill="#1f0200" d="M 518.5,382.5 C 518.897,381.475 519.563,381.308 520.5,382C 519.906,382.464 519.239,382.631 518.5,382.5 Z"/></g>
<g><path style="opacity:1" fill="#531c84" d="M 245.5,382.5 C 239.765,427.433 250.932,467.433 279,502.5C 292.91,515.748 307.41,528.248 322.5,540C 328.026,545.569 332.693,551.735 336.5,558.5C 333.833,558.5 331.167,558.5 328.5,558.5C 324.124,551.615 318.79,545.449 312.5,540C 297.777,528.95 283.944,516.783 271,503.5C 244.613,468.633 233.779,429.3 238.5,385.5C 240.915,384.695 243.249,383.695 245.5,382.5 Z"/></g>
<g><path style="opacity:1" fill="#531c84" d="M 503.5,382.5 C 505.713,383.773 508.046,384.773 510.5,385.5C 516.441,450.773 492.441,501.607 438.5,538C 431.524,544.132 425.524,550.965 420.5,558.5C 417.833,558.5 415.167,558.5 412.5,558.5C 417.191,550.633 422.857,543.467 429.5,537C 442.797,526.761 455.63,515.927 468,504.5C 474.735,496.696 480.735,488.363 486,479.5C 501.962,449.034 507.795,416.701 503.5,382.5 Z"/></g>
<g><path style="opacity:0.012" fill="#1f0200" d="M 525.5,384.5 C 526.833,385.167 526.833,385.167 525.5,384.5 Z"/></g>
<g><path style="opacity:0.012" fill="#1f0200" d="M 527.5,385.5 C 528.833,386.167 528.833,386.167 527.5,385.5 Z"/></g>
<g><path style="opacity:1" fill="#e2dede" d="M 238.5,385.5 C 233.779,429.3 244.613,468.633 271,503.5C 283.944,516.783 297.777,528.95 312.5,540C 318.79,545.449 324.124,551.615 328.5,558.5C 323.167,558.5 317.833,558.5 312.5,558.5C 308.459,551.95 303.459,546.117 297.5,541C 277.238,528.072 261.072,511.239 249,490.5C 232.917,458.769 225.75,425.103 227.5,389.5C 231.269,388.449 234.935,387.116 238.5,385.5 Z"/></g>
<g><path style="opacity:1" fill="#e3dfdf" d="M 510.5,385.5 C 513.471,386.827 516.471,388.16 519.5,389.5C 521.22,409.407 519.72,429.074 515,448.5C 505.621,488.522 483.788,519.688 449.5,542C 444.469,547.253 439.803,552.753 435.5,558.5C 430.5,558.5 425.5,558.5 420.5,558.5C 425.524,550.965 431.524,544.132 438.5,538C 492.441,501.607 516.441,450.773 510.5,385.5 Z"/></g>
<g><path style="opacity:0.012" fill="#1f0200" d="M 532.5,388.5 C 533.833,389.167 533.833,389.167 532.5,388.5 Z"/></g>
<g><path style="opacity:0.012" fill="#1f0200" d="M 534.5,389.5 C 535.833,390.167 535.833,390.167 534.5,389.5 Z"/></g>
<g><path style="opacity:0.012" fill="#1f0200" d="M 212.5,391.5 C 211.833,390.167 211.833,390.167 212.5,391.5 Z"/></g>
<g><path style="opacity:0.012" fill="#1f0200" d="M 536.5,390.5 C 537.833,391.167 537.833,391.167 536.5,390.5 Z"/></g>
<g><path style="opacity:0.012" fill="#1f0200" d="M 209.5,391.5 C 210.833,392.167 210.833,392.167 209.5,391.5 Z"/></g>
<g><path style="opacity:0.012" fill="#1f0200" d="M 538.5,391.5 C 539.833,392.167 539.833,392.167 538.5,391.5 Z"/></g>
<g><path style="opacity:0.012" fill="#1f0200" d="M 207.5,392.5 C 208.833,393.167 208.833,393.167 207.5,392.5 Z"/></g>
<g><path style="opacity:1" fill="#fdbb00" d="M 306.5,558.5 C 255.833,558.5 205.167,558.5 154.5,558.5C 152.465,538.236 151.965,517.902 153,497.5C 154.45,471.099 156.617,444.766 159.5,418.5C 162.216,416.533 165.216,415.033 168.5,414C 187.476,410.511 205.142,403.677 221.5,393.5C 222.557,411.298 224.724,428.964 228,446.5C 236.556,488.167 258.39,520.667 293.5,544C 298.411,548.406 302.745,553.24 306.5,558.5 Z"/></g>
<g><path style="opacity:1" fill="#fdbb01" d="M 589.5,418.5 C 594.071,459.378 596.238,500.378 596,541.5C 595.555,547.18 595.055,552.846 594.5,558.5C 543.5,558.5 492.5,558.5 441.5,558.5C 445.255,553.24 449.589,548.406 454.5,544C 464.291,536.544 473.791,528.711 483,520.5C 490.311,512.543 496.644,503.876 502,494.5C 518.395,462.533 526.395,428.533 526,392.5C 541.657,403.077 558.824,409.91 577.5,413C 581.676,414.59 585.676,416.424 589.5,418.5 Z"/></g>
<g><path style="opacity:0.012" fill="#1f0200" d="M 199.5,396.5 C 200.833,397.167 200.833,397.167 199.5,396.5 Z"/></g>
<g><path style="opacity:0.012" fill="#1f0200" d="M 547.5,397.5 C 547.897,396.475 548.563,396.308 549.5,397C 548.906,397.464 548.239,397.631 547.5,397.5 Z"/></g>
<g><path style="opacity:0.012" fill="#1f0200" d="M 197.5,397.5 C 198.833,398.167 198.833,398.167 197.5,397.5 Z"/></g>
<g><path style="opacity:0.012" fill="#1f0200" d="M 550.5,397.5 C 551.833,398.167 551.833,398.167 550.5,397.5 Z"/></g>
<g><path style="opacity:0.012" fill="#1f0200" d="M 554.5,400.5 C 554.897,399.475 555.563,399.308 556.5,400C 555.906,400.464 555.239,400.631 554.5,400.5 Z"/></g>
<g><path style="opacity:0.012" fill="#1f0200" d="M 189.5,401.5 C 189.897,400.475 190.563,400.308 191.5,401C 190.906,401.464 190.239,401.631 189.5,401.5 Z"/></g>
<g><path style="opacity:0.012" fill="#1f0200" d="M 557.5,401.5 C 557.897,400.475 558.563,400.308 559.5,401C 558.906,401.464 558.239,401.631 557.5,401.5 Z"/></g>
<g><path style="opacity:0.012" fill="#1f0200" d="M 185.5,402.5 C 186.251,401.427 187.251,401.26 188.5,402C 187.552,402.483 186.552,402.649 185.5,402.5 Z"/></g>
<g><path style="opacity:0.012" fill="#1f0200" d="M 560.5,402.5 C 561.251,401.427 562.251,401.26 563.5,402C 562.552,402.483 561.552,402.649 560.5,402.5 Z"/></g>
<g><path style="opacity:0.012" fill="#1f0200" d="M 181.5,403.5 C 182.251,402.427 183.251,402.26 184.5,403C 183.552,403.483 182.552,403.649 181.5,403.5 Z"/></g>
<g><path style="opacity:0.012" fill="#1f0200" d="M 564.5,403.5 C 565.251,402.427 566.251,402.26 567.5,403C 566.552,403.483 565.552,403.649 564.5,403.5 Z"/></g>
<g><path style="opacity:0.012" fill="#1f0200" d="M 176.5,404.5 C 177.251,403.427 178.251,403.26 179.5,404C 178.552,404.483 177.552,404.649 176.5,404.5 Z"/></g>
<g><path style="opacity:0.012" fill="#1f0200" d="M 568.5,404.5 C 569.601,403.402 570.934,403.235 572.5,404C 571.207,404.49 569.873,404.657 568.5,404.5 Z"/></g>
<g><path style="opacity:0.012" fill="#1f0200" d="M 173.5,405.5 C 173.897,404.475 174.563,404.308 175.5,405C 174.906,405.464 174.239,405.631 173.5,405.5 Z"/></g>
<g><path style="opacity:0.012" fill="#1f0200" d="M 573.5,405.5 C 573.897,404.475 574.563,404.308 575.5,405C 574.906,405.464 574.239,405.631 573.5,405.5 Z"/></g>
<g><path style="opacity:0.012" fill="#1f0200" d="M 582.5,408.5 C 582.897,407.475 583.563,407.308 584.5,408C 583.906,408.464 583.239,408.631 582.5,408.5 Z"/></g>
<g><path style="opacity:0.012" fill="#1f0200" d="M 591.5,411.5 C 592.833,412.167 592.833,412.167 591.5,411.5 Z"/></g>
<g><path style="opacity:0.012" fill="#1f0200" d="M 154.5,412.5 C 155.833,413.167 155.833,413.167 154.5,412.5 Z"/></g>
<g><path style="opacity:0.012" fill="#1f0200" d="M 594.5,413.5 C 593.833,412.167 593.833,412.167 594.5,413.5 Z"/></g>
<g><path style="opacity:0.012" fill="#1f0200" d="M 154.5,413.5 C 154.5,413.833 154.5,414.167 154.5,414.5C 153.83,414.019 153.83,413.685 154.5,413.5 Z"/></g>
<g><path style="opacity:0.012" fill="#1f0200" d="M 594.5,413.5 C 595.833,414.167 595.833,414.167 594.5,413.5 Z"/></g>
<g><path style="opacity:0.012" fill="#1f0200" d="M 152.5,415.5 C 151.833,414.167 151.833,414.167 152.5,415.5 Z"/></g>
<g><path style="opacity:0.012" fill="#1f0200" d="M 596.5,414.5 C 597.833,415.167 597.833,415.167 596.5,414.5 Z"/></g>
<g><path style="opacity:0.012" fill="#1f0200" d="M 150.5,416.5 C 149.833,415.167 149.833,415.167 150.5,416.5 Z"/></g>
<g><path style="opacity:0.012" fill="#1f0200" d="M 598.5,415.5 C 599.833,416.167 599.833,416.167 598.5,415.5 Z"/></g>
<g><path style="opacity:0.012" fill="#1f0200" d="M 148.5,417.5 C 147.833,416.167 147.833,416.167 148.5,417.5 Z"/></g>
<g><path style="opacity:0.012" fill="#1f0200" d="M 600.5,416.5 C 601.833,417.167 601.833,417.167 600.5,416.5 Z"/></g>
<g><path style="opacity:0.012" fill="#1f0200" d="M 146.5,418.5 C 145.833,417.167 145.833,417.167 146.5,418.5 Z"/></g>
<g><path style="opacity:0.012" fill="#1f0200" d="M 602.5,417.5 C 603.833,418.167 603.833,418.167 602.5,417.5 Z"/></g>
<g><path style="opacity:0.012" fill="#1f0200" d="M 606.5,420.5 C 606.897,419.475 607.563,419.308 608.5,420C 607.906,420.464 607.239,420.631 606.5,420.5 Z"/></g>
<g><path style="opacity:1" fill="#e6e1df" d="M 159.5,418.5 C 156.617,444.766 154.45,471.099 153,497.5C 151.965,517.902 152.465,538.236 154.5,558.5C 151.5,558.5 148.5,558.5 145.5,558.5C 143.525,513.773 144.525,469.107 148.5,424.5C 152.327,422.754 155.993,420.754 159.5,418.5 Z"/></g>
<g><path style="opacity:0.012" fill="#1f0200" d="M 609.5,421.5 C 609.897,420.475 610.563,420.308 611.5,421C 610.906,421.464 610.239,421.631 609.5,421.5 Z"/></g>
<g><path style="opacity:1" fill="#e6e2e0" d="M 589.5,418.5 C 592.869,420.515 596.202,422.515 599.5,424.5C 604.418,469.032 605.751,513.699 603.5,558.5C 600.5,558.5 597.5,558.5 594.5,558.5C 595.055,552.846 595.555,547.18 596,541.5C 596.238,500.378 594.071,459.378 589.5,418.5 Z"/></g>
<g><path style="opacity:0.012" fill="#1f0200" d="M 133.5,422.5 C 134.833,423.167 134.833,423.167 133.5,422.5 Z"/></g>
<g><path style="opacity:0.012" fill="#1f0200" d="M 133.5,423.5 C 133.5,423.833 133.5,424.167 133.5,424.5C 132.83,424.019 132.83,423.685 133.5,423.5 Z"/></g>
<g><path style="opacity:0.012" fill="#1f0200" d="M 615.5,423.5 C 616.833,424.167 616.833,424.167 615.5,423.5 Z"/></g>
<g><path style="opacity:0.012" fill="#1f0200" d="M 130.5,424.5 C 131.833,425.167 131.833,425.167 130.5,424.5 Z"/></g>
<g><path style="opacity:0.012" fill="#1f0200" d="M 618.5,425.5 C 617.833,424.167 617.833,424.167 618.5,425.5 Z"/></g>
<g><path style="opacity:0.012" fill="#1f0200" d="M 618.5,425.5 C 619.167,425.5 619.5,425.833 619.5,426.5C 619.167,426.167 618.833,425.833 618.5,425.5 Z"/></g>
<g><path style="opacity:1" fill="#541e85" d="M 148.5,424.5 C 144.525,469.107 143.525,513.773 145.5,558.5C 142.833,558.5 140.167,558.5 137.5,558.5C 135.343,514.719 136.676,471.052 141.5,427.5C 143.751,426.305 146.085,425.305 148.5,424.5 Z"/></g>
<g><path style="opacity:1" fill="#531c84" d="M 599.5,424.5 C 601.55,424.961 603.55,425.628 605.5,426.5C 606.169,428.631 606.835,430.631 607.5,432.5C 612.29,474.359 613.624,516.359 611.5,558.5C 608.833,558.5 606.167,558.5 603.5,558.5C 605.751,513.699 604.418,469.032 599.5,424.5 Z"/></g>
<g><path style="opacity:0.012" fill="#1f0200" d="M 619.5,426.5 C 620.833,427.167 620.833,427.167 619.5,426.5 Z"/></g>
<g><path style="opacity:0.012" fill="#1f0200" d="M 127.5,427.5 C 128.833,428.167 128.833,428.167 127.5,427.5 Z"/></g>
<g><path style="opacity:1" fill="#f7b60d" d="M 623.5,558.5 C 619.5,558.5 615.5,558.5 611.5,558.5C 613.624,516.359 612.29,474.359 607.5,432.5C 607.34,430.801 607.506,429.134 608,427.5C 613.333,428.833 616.667,432.167 618,437.5C 621.929,477.74 623.762,518.073 623.5,558.5 Z"/></g>
<g><path style="opacity:1" fill="#f6b612" d="M 141.5,427.5 C 136.676,471.052 135.343,514.719 137.5,558.5C 133.5,558.5 129.5,558.5 125.5,558.5C 125.306,539.153 125.639,519.819 126.5,500.5C 128.176,492.395 128.843,484.062 128.5,475.5C 128.695,462.462 129.529,449.462 131,436.5C 132.82,431.512 136.32,428.512 141.5,427.5 Z"/></g>
<g><path style="opacity:0.012" fill="#1f0200" d="M 124.5,436.5 C 121.999,436.489 121.832,435.822 124,434.5C 124.464,435.094 124.631,435.761 124.5,436.5 Z"/></g>
<g><path style="opacity:0.012" fill="#1f0200" d="M 629.5,438.5 C 630.833,439.167 630.833,439.167 629.5,438.5 Z"/></g>
<g><path style="opacity:0.012" fill="#1f0200" d="M 117.5,440.5 C 116.833,439.167 116.833,439.167 117.5,440.5 Z"/></g>
<g><path style="opacity:0.012" fill="#1f0200" d="M 631.5,439.5 C 632.833,440.167 632.833,440.167 631.5,439.5 Z"/></g>
<g><path style="opacity:0.012" fill="#1f0200" d="M 114.5,440.5 C 115.833,441.167 115.833,441.167 114.5,440.5 Z"/></g>
<g><path style="opacity:0.012" fill="#1f0200" d="M 633.5,440.5 C 634.833,441.167 634.833,441.167 633.5,440.5 Z"/></g>
<g><path style="opacity:0.012" fill="#1f0200" d="M 636.5,443.5 C 636.897,442.475 637.563,442.308 638.5,443C 637.906,443.464 637.239,443.631 636.5,443.5 Z"/></g>
<g><path style="opacity:0.012" fill="#1f0200" d="M 108.5,443.5 C 109.833,444.167 109.833,444.167 108.5,443.5 Z"/></g>
<g><path style="opacity:0.012" fill="#1f0200" d="M 639.5,443.5 C 640.833,444.167 640.833,444.167 639.5,443.5 Z"/></g>
<g><path style="opacity:0.012" fill="#1f0200" d="M 646.5,447.5 C 647.251,446.427 648.251,446.26 649.5,447C 648.552,447.483 647.552,447.649 646.5,447.5 Z"/></g>
<g><path style="opacity:0.012" fill="#1f0200" d="M 95.5,448.5 C 96.2506,447.427 97.2506,447.26 98.5,448C 97.552,448.483 96.552,448.649 95.5,448.5 Z"/></g>
<g><path style="opacity:1" fill="#a85e37" d="M 120.5,558.5 C 117.5,558.5 114.5,558.5 111.5,558.5C 111.303,554.378 110.47,550.378 109,546.5C 105.255,538.676 101.255,531.009 97,523.5C 93.9661,516.797 92.9661,509.797 94,502.5C 96.4884,494.88 98.8217,487.213 101,479.5C 102.378,472.097 101.378,465.097 98,458.5C 96.5557,456.845 94.7224,456.178 92.5,456.5C 103.863,454.15 114.53,449.817 124.5,443.5C 124.833,444.667 125.167,445.833 125.5,447C 122.348,484.095 120.681,521.261 120.5,558.5 Z"/></g>
<g><path style="opacity:1" fill="#a85f37" d="M 656.5,456.5 C 653.956,456.104 651.789,456.771 650,458.5C 647.402,462.628 646.235,467.128 646.5,472C 647.102,482.012 649.602,491.512 654,500.5C 654.988,507.668 654.322,514.668 652,521.5C 647.651,530.198 643.318,538.864 639,547.5C 637.69,551.07 636.857,554.737 636.5,558.5C 633.833,558.5 631.167,558.5 628.5,558.5C 628.652,521.916 626.985,485.416 623.5,449C 623.833,447.167 624.167,445.333 624.5,443.5C 634.481,449.82 645.148,454.153 656.5,456.5 Z"/></g>
<g><path style="opacity:0.012" fill="#1f0200" d="M 650.5,448.5 C 651.251,447.427 652.251,447.26 653.5,448C 652.552,448.483 651.552,448.649 650.5,448.5 Z"/></g>
<g><path style="opacity:0.012" fill="#1f0200" d="M 90.5,449.5 C 91.6009,448.402 92.9343,448.235 94.5,449C 93.2068,449.49 91.8734,449.657 90.5,449.5 Z"/></g>
<g><path style="opacity:0.012" fill="#1f0200" d="M 654.5,449.5 C 655.601,448.402 656.934,448.235 658.5,449C 657.207,449.49 655.873,449.657 654.5,449.5 Z"/></g>
<g><path style="opacity:0.012" fill="#1f0200" d="M 89.5,450.5 C 88.448,450.649 87.448,450.483 86.5,450C 87.7494,449.26 88.7494,449.427 89.5,450.5 Z"/></g>
<g><path style="opacity:0.012" fill="#1f0200" d="M 659.5,450.5 C 660.251,449.427 661.251,449.26 662.5,450C 661.552,450.483 660.552,450.649 659.5,450.5 Z"/></g>
<g><path style="opacity:0.012" fill="#1f0200" d="M 85.5,451.5 C 84.448,451.649 83.448,451.483 82.5,451C 83.7494,450.26 84.7494,450.427 85.5,451.5 Z"/></g>
<g><path style="opacity:0.012" fill="#1f0200" d="M 663.5,451.5 C 663.897,450.475 664.563,450.308 665.5,451C 664.906,451.464 664.239,451.631 663.5,451.5 Z"/></g>
<g><path style="opacity:0.012" fill="#1f0200" d="M 79.5,452.5 C 79.8966,451.475 80.5632,451.308 81.5,452C 80.9056,452.464 80.2389,452.631 79.5,452.5 Z"/></g>
<g><path style="opacity:0.012" fill="#1f0200" d="M 666.5,452.5 C 666.897,451.475 667.563,451.308 668.5,452C 667.906,452.464 667.239,452.631 666.5,452.5 Z"/></g>
<g><path style="opacity:0.012" fill="#1f0200" d="M 79.5,452.5 C 79.5,452.833 79.5,453.167 79.5,453.5C 76.8333,453.167 76.8333,452.833 79.5,452.5 Z"/></g>
<g><path style="opacity:0.012" fill="#1f0200" d="M 76.5,454.5 C 75.8333,453.167 75.8333,453.167 76.5,454.5 Z"/></g>
<g><path style="opacity:0.012" fill="#1f0200" d="M 671.5,454.5 C 671.897,453.475 672.563,453.308 673.5,454C 672.906,454.464 672.239,454.631 671.5,454.5 Z"/></g>
<g><path style="opacity:1" fill="#b86c40" d="M 92.5,456.5 C 94.7224,456.178 96.5557,456.845 98,458.5C 101.378,465.097 102.378,472.097 101,479.5C 98.8217,487.213 96.4884,494.88 94,502.5C 92.9661,509.797 93.9661,516.797 97,523.5C 101.255,531.009 105.255,538.676 109,546.5C 110.47,550.378 111.303,554.378 111.5,558.5C 76.1667,558.5 40.8333,558.5 5.5,558.5C 7.06479,549.576 9.56479,540.909 13,532.5C 23.6352,509.861 38.1352,490.028 56.5,473C 67.1304,464.518 79.1304,459.018 92.5,456.5 Z"/></g>
<g><path style="opacity:1" fill="#b86c40" d="M 656.5,456.5 C 666.813,458.655 676.479,462.488 685.5,468C 694.963,475.129 703.463,483.296 711,492.5C 727.419,511.673 738.252,533.673 743.5,558.5C 707.833,558.5 672.167,558.5 636.5,558.5C 636.857,554.737 637.69,551.07 639,547.5C 643.318,538.864 647.651,530.198 652,521.5C 654.322,514.668 654.988,507.668 654,500.5C 649.602,491.512 647.102,482.012 646.5,472C 646.235,467.128 647.402,462.628 650,458.5C 651.789,456.771 653.956,456.104 656.5,456.5 Z"/></g>
<g><path style="opacity:0.012" fill="#1f0200" d="M 682.5,458.5 C 683.833,459.167 683.833,459.167 682.5,458.5 Z"/></g>
<g><path style="opacity:0.012" fill="#1f0200" d="M 64.5,460.5 C 63.8333,459.167 63.8333,459.167 64.5,460.5 Z"/></g>
<g><path style="opacity:0.012" fill="#1f0200" d="M 684.5,459.5 C 685.833,460.167 685.833,460.167 684.5,459.5 Z"/></g>
<g><path style="opacity:0.012" fill="#1f0200" d="M 61.5,460.5 C 62.8333,461.167 62.8333,461.167 61.5,460.5 Z"/></g>
<g><path style="opacity:0.012" fill="#1f0200" d="M 686.5,460.5 C 687.833,461.167 687.833,461.167 686.5,460.5 Z"/></g>
<g><path style="opacity:1" fill="#884c2a" d="M 424.5,470.5 C 441.005,469.173 457.671,469.173 474.5,470.5C 474.376,471.107 474.043,471.44 473.5,471.5C 457.342,470.504 441.009,470.17 424.5,470.5 Z"/></g>
<g><path style="opacity:0.012" fill="#1f0200" d="M 716.5,488.5 C 715.833,487.167 715.833,487.167 716.5,488.5 Z"/></g>
<g><path style="opacity:0.012" fill="#1f0200" d="M 31.5,488.5 C 32.8333,489.167 32.8333,489.167 31.5,488.5 Z"/></g>
<g><path style="opacity:0.012" fill="#1f0200" d="M 716.5,488.5 C 717.833,489.167 717.833,489.167 716.5,488.5 Z"/></g>
<g><path style="opacity:1" fill="#bd8a00" d="M 128.5,475.5 C 128.843,484.062 128.176,492.395 126.5,500.5C 126.8,491.988 127.467,483.655 128.5,475.5 Z"/></g>
<g><path style="opacity:0.012" fill="#1f0200" d="M 720.5,493.5 C 719.833,492.167 719.833,492.167 720.5,493.5 Z"/></g>
<g><path style="opacity:0.012" fill="#1f0200" d="M 720.5,493.5 C 721.833,494.167 721.833,494.167 720.5,493.5 Z"/></g>
<g><path style="opacity:0.012" fill="#1f0200" d="M 725.5,500.5 C 724.833,499.167 724.833,499.167 725.5,500.5 Z"/></g>
<g><path style="opacity:0.012" fill="#1f0200" d="M 22.5,500.5 C 23.8333,501.167 23.8333,501.167 22.5,500.5 Z"/></g>
<g><path style="opacity:0.012" fill="#1f0200" d="M 725.5,500.5 C 726.833,501.167 726.833,501.167 725.5,500.5 Z"/></g>
<g><path style="opacity:0.012" fill="#1f0200" d="M 22.5,503.5 C 21.8333,502.167 21.8333,502.167 22.5,503.5 Z"/></g>
<g><path style="opacity:0.012" fill="#1f0200" d="M 21.5,503.5 C 20.8333,504.167 20.8333,504.167 21.5,503.5 Z"/></g>
<g><path style="opacity:0.012" fill="#1f0200" d="M 727.5,503.5 C 728.833,504.167 728.833,504.167 727.5,503.5 Z"/></g>
<g><path style="opacity:0.012" fill="#1f0200" d="M 20.5,506.5 C 19.8333,505.167 19.8333,505.167 20.5,506.5 Z"/></g>
<g><path style="opacity:0.012" fill="#1f0200" d="M 729.5,506.5 C 728.833,505.167 728.833,505.167 729.5,506.5 Z"/></g>
<g><path style="opacity:0.012" fill="#1f0200" d="M 19.5,506.5 C 18.8333,507.167 18.8333,507.167 19.5,506.5 Z"/></g>
<g><path style="opacity:0.012" fill="#1f0200" d="M 729.5,506.5 C 730.833,507.167 730.833,507.167 729.5,506.5 Z"/></g>
<g><path style="opacity:0.012" fill="#1f0200" d="M 732.5,511.5 C 732.167,511.5 731.833,511.5 731.5,511.5C 731.833,508.833 732.167,508.833 732.5,511.5 Z"/></g>
<g><path style="opacity:0.012" fill="#1f0200" d="M 15.5,511.5 C 16.8333,512.167 16.8333,512.167 15.5,511.5 Z"/></g>
<g><path style="opacity:0.012" fill="#1f0200" d="M 732.5,511.5 C 733.833,512.167 733.833,512.167 732.5,511.5 Z"/></g>
<g><path style="opacity:0.012" fill="#1f0200" d="M 736.5,518.5 C 736.167,518.5 735.833,518.5 735.5,518.5C 735.833,515.833 736.167,515.833 736.5,518.5 Z"/></g>
<g><path style="opacity:0.012" fill="#1f0200" d="M 736.5,518.5 C 737.833,519.167 737.833,519.167 736.5,518.5 Z"/></g>
<g><path style="opacity:0.012" fill="#1f0200" d="M 737.5,520.5 C 738.833,521.167 738.833,521.167 737.5,520.5 Z"/></g>
<g><path style="opacity:0.012" fill="#1f0200" d="M 738.5,522.5 C 739.833,523.167 739.833,523.167 738.5,522.5 Z"/></g>
<g><path style="opacity:0.012" fill="#1f0200" d="M 741.5,530.5 C 741.369,529.761 741.536,529.094 742,528.5C 742.692,529.437 742.525,530.103 741.5,530.5 Z"/></g>
<g><path style="opacity:0.012" fill="#1f0200" d="M 743.5,535.5 C 743.369,534.761 743.536,534.094 744,533.5C 744.692,534.437 744.525,535.103 743.5,535.5 Z"/></g>
<g><path style="opacity:0.012" fill="#1f0200" d="M 4.5,538.5 C 3.47498,538.103 3.30831,537.437 4,536.5C 4.46434,537.094 4.63101,537.761 4.5,538.5 Z"/></g>
<g><path style="opacity:0.012" fill="#1f0200" d="M 745.5,541.5 C 745.351,540.448 745.517,539.448 746,538.5C 746.74,539.749 746.573,540.749 745.5,541.5 Z"/></g>
<g><path style="opacity:0.012" fill="#1f0200" d="M 3.5,541.5 C 2.47498,541.103 2.30831,540.437 3,539.5C 3.46434,540.094 3.63101,540.761 3.5,541.5 Z"/></g>
<g><path style="opacity:0.012" fill="#1f0200" d="M 2.5,544.5 C 1.47498,544.103 1.30831,543.437 2,542.5C 2.46434,543.094 2.63101,543.761 2.5,544.5 Z"/></g>
<g><path style="opacity:0.012" fill="#1f0200" d="M 746.5,544.5 C 746.369,543.761 746.536,543.094 747,542.5C 747.692,543.437 747.525,544.103 746.5,544.5 Z"/></g>
<g><path style="opacity:0.012" fill="#1f0200" d="M 1.5,548.5 C 0.426544,547.749 0.259877,546.749 1,545.5C 1.48278,546.448 1.64945,547.448 1.5,548.5 Z"/></g>
<g><path style="opacity:0.012" fill="#1f0200" d="M 747.5,548.5 C 747.351,547.448 747.517,546.448 748,545.5C 748.74,546.749 748.573,547.749 747.5,548.5 Z"/></g>
<g><path style="opacity:0.012" fill="#1f0200" d="M -0.5,549.5 C 0.403972,550.209 0.737305,551.209 0.5,552.5C 0.166667,552.5 -0.166667,552.5 -0.5,552.5C -0.5,551.5 -0.5,550.5 -0.5,549.5 Z"/></g>
<g><path style="opacity:0.012" fill="#1f0200" d="M 749.5,549.5 C 749.5,550.5 749.5,551.5 749.5,552.5C 749.167,552.5 748.833,552.5 748.5,552.5C 748.263,551.209 748.596,550.209 749.5,549.5 Z"/></g>
</svg>
