<?xml version="1.0" encoding="UTF-8"?>
<!DOCTYPE svg PUBLIC "-//W3C//DTD SVG 1.1//EN" "http://www.w3.org/Graphics/SVG/1.1/DTD/svg11.dtd">
<svg xmlns="http://www.w3.org/2000/svg" version="1.1" width="750px" height="607px" style="shape-rendering:geometricPrecision; text-rendering:geometricPrecision; image-rendering:optimizeQuality; fill-rule:evenodd; clip-rule:evenodd" xmlns:xlink="http://www.w3.org/1999/xlink">
<g><path style="opacity:0.97" fill="#1c0c01" d="M 375.5,-0.5 C 379.5,-0.5 383.5,-0.5 387.5,-0.5C 390.371,2.75401 393.871,3.42067 398,1.5C 400.41,1.48241 402.577,2.14908 404.5,3.5C 404.5,4.16667 404.833,4.5 405.5,4.5C 405.5,5.16667 405.833,5.5 406.5,5.5C 409.086,6.41531 411.086,8.08198 412.5,10.5C 412.833,11.8333 413.167,11.8333 413.5,10.5C 418.569,12.3116 423.903,13.4782 429.5,14C 431.333,14.5 432.5,15.6667 433,17.5C 433.333,16.8333 433.667,16.1667 434,15.5C 435.098,16.9675 436.598,17.8008 438.5,18C 436.833,18.3333 435.167,18.6667 433.5,19C 436.518,19.499 439.518,19.3323 442.5,18.5C 447.129,20.0441 451.796,21.3775 456.5,22.5C 456.877,24.258 457.544,25.9246 458.5,27.5C 458.291,28.086 457.957,28.586 457.5,29C 467.029,28.0399 472.695,32.2066 474.5,41.5C 476.936,41.317 479.103,41.9837 481,43.5C 482.969,47.2318 483.969,51.2318 484,55.5C 484.333,52.8333 484.667,50.1667 485,47.5C 486.39,52.5073 486.89,57.5073 486.5,62.5C 488.903,62.393 490.736,63.393 492,65.5C 493.578,68.6572 494.578,71.9906 495,75.5C 495.435,69.1797 496.269,69.013 497.5,75C 496.409,77.0639 496.242,79.2305 497,81.5C 501.636,85.1863 503.802,90.0197 503.5,96C 503.616,101.731 503.282,107.565 502.5,113.5C 499.715,117.456 498.381,121.956 498.5,127C 500.057,146.245 499.39,165.412 496.5,184.5C 495.039,189.335 493.706,194.335 492.5,199.5C 492.902,201.3 493.569,202.967 494.5,204.5C 504.82,205.533 508.487,211.199 505.5,221.5C 504.662,221.842 504.328,222.508 504.5,223.5C 502.16,228.456 500.827,233.789 500.5,239.5C 499.163,241.349 498.497,243.516 498.5,246C 499.813,253.182 499.813,260.349 498.5,267.5C 497.662,267.842 497.328,268.508 497.5,269.5C 496.662,269.842 496.328,270.508 496.5,271.5C 495.833,271.5 495.5,271.833 495.5,272.5C 494.662,272.842 494.328,273.508 494.5,274.5C 493.662,274.842 493.328,275.508 493.5,276.5C 492.833,276.5 492.5,276.833 492.5,277.5C 491.662,277.842 491.328,278.508 491.5,279.5C 490.596,280.209 490.263,281.209 490.5,282.5C 489.596,283.209 489.263,284.209 489.5,285.5C 488.235,287.791 486.902,290.125 485.5,292.5C 484.417,292.539 483.417,292.873 482.5,293.5C 481.755,299.853 481.088,306.186 480.5,312.5C 478.864,316.21 478.198,320.21 478.5,324.5C 477.566,325.568 477.232,326.901 477.5,328.5C 476.566,329.568 476.232,330.901 476.5,332.5C 474.836,333.743 473.669,335.41 473,337.5C 472.369,363.89 473.369,390.223 476,416.5C 476.383,417.056 476.883,417.389 477.5,417.5C 479.336,419.588 481.669,420.921 484.5,421.5C 486.013,424.048 487.013,423.715 487.5,420.5C 491.019,417.721 495.019,416.888 499.5,418C 505.073,420.468 510.74,422.635 516.5,424.5C 526.74,429.956 537.074,435.456 547.5,441C 550.758,442.467 554.092,443.633 557.5,444.5C 566.699,447.307 576.032,450.14 585.5,453C 596.619,458.976 607.786,464.809 619,470.5C 620.795,473.099 622.295,475.766 623.5,478.5C 623.5,479.167 623.833,479.5 624.5,479.5C 626.336,481.588 628.669,482.921 631.5,483.5C 638.331,488.407 645.997,491.407 654.5,492.5C 668.518,495.672 681.518,501.339 693.5,509.5C 693.5,510.167 693.833,510.5 694.5,510.5C 700.5,515.833 706.167,521.5 711.5,527.5C 711.5,528.167 711.833,528.5 712.5,528.5C 729.476,548.117 741.476,570.451 748.5,595.5C 748.205,597.735 748.539,599.735 749.5,601.5C 749.5,603.167 749.5,604.833 749.5,606.5C 747.5,606.5 745.5,606.5 743.5,606.5C 741.177,586.515 734.344,568.181 723,551.5C 712.904,535.838 700.404,522.338 685.5,511C 676.479,505.488 666.813,501.655 656.5,499.5C 645.176,497.16 634.509,492.827 624.5,486.5C 624.167,488.5 623.833,490.5 623.5,492.5C 626.955,530.415 628.621,568.415 628.5,606.5C 626.833,606.5 625.167,606.5 623.5,606.5C 623.5,595.5 623.5,584.5 623.5,573.5C 623.587,560.307 622.92,547.307 621.5,534.5C 620.95,516.464 619.783,498.464 618,480.5C 616.609,474.942 613.109,471.609 607.5,470.5C 604.618,468.892 601.618,467.559 598.5,466.5C 594.172,464.671 590.172,462.338 586.5,459.5C 576.137,455.496 565.471,452.329 554.5,450C 544.554,445.694 534.888,440.861 525.5,435.5C 525.971,471.945 517.805,506.279 501,538.5C 489.925,556.909 475.425,572.075 457.5,584C 449.883,590.776 443.216,598.276 437.5,606.5C 435.833,606.5 434.167,606.5 432.5,606.5C 441.622,591.544 453.622,579.378 468.5,570C 492.879,548.423 508.379,521.589 515,489.5C 519.481,470.715 520.981,451.715 519.5,432.5C 517.021,430.924 514.354,429.924 511.5,429.5C 509.316,427.415 506.649,426.415 503.5,426.5C 503.823,433.022 503.49,439.355 502.5,445.5C 502.83,438.468 502.497,431.468 501.5,424.5C 498.301,423.201 495.135,423.201 492,424.5C 500.232,479.488 483.399,524.988 441.5,561C 428.783,570.044 416.949,580.211 406,591.5C 402.214,596.117 399.048,601.117 396.5,606.5C 395.167,606.5 393.833,606.5 392.5,606.5C 393.428,602.638 394.928,598.971 397,595.5C 410.266,579.566 425.433,565.733 442.5,554C 455.643,542.368 466.309,528.868 474.5,513.5C 457.843,512.334 441.177,512.167 424.5,513C 414.361,514.485 405.861,518.985 399,526.5C 400.237,523.224 402.403,520.391 405.5,518C 411.883,513.644 418.883,510.644 426.5,509C 443.51,508.833 460.51,508.333 477.5,507.5C 489.054,482.41 492.054,456.41 486.5,429.5C 483.339,428.087 480.339,426.42 477.5,424.5C 476.682,427.107 476.182,429.774 476,432.5C 474.615,431.449 473.615,430.116 473,428.5C 470.734,416.938 469.234,405.271 468.5,393.5C 468.048,379.827 467.381,366.16 466.5,352.5C 465.534,354.396 465.201,356.396 465.5,358.5C 464.178,358.33 463.011,358.663 462,359.5C 461.612,363.219 460.945,366.886 460,370.5C 459.803,365.822 458.803,365.488 457,369.5C 456.502,372.482 456.335,375.482 456.5,378.5C 455.5,378.5 454.5,378.5 453.5,378.5C 453.271,385.306 452.105,391.973 450,398.5C 449.333,400.5 448,401.833 446,402.5C 444.908,405.044 444.241,407.711 444,410.5C 443.692,409.692 443.192,409.025 442.5,408.5C 440.336,413.351 437.336,417.518 433.5,421C 432.551,421.617 431.718,421.451 431,420.5C 429.386,423.237 427.219,425.403 424.5,427C 422.095,427.281 422.095,426.615 424.5,425C 424.167,424.833 423.833,424.667 423.5,424.5C 420.672,426.748 417.672,428.748 414.5,430.5C 414.167,429.833 413.833,429.167 413.5,428.5C 411.547,429.761 409.547,430.927 407.5,432C 401.638,432.046 395.971,433.046 390.5,435C 386.655,435.831 382.988,435.331 379.5,433.5C 374.674,434.199 369.84,434.866 365,435.5C 362.79,434.978 360.623,434.312 358.5,433.5C 355.868,434.44 353.202,434.607 350.5,434C 350.833,433.667 351.167,433.333 351.5,433C 347.712,431.373 343.879,431.206 340,432.5C 335.789,430.979 331.622,429.312 327.5,427.5C 326.232,428.428 324.899,428.595 323.5,428C 320.22,425.138 316.72,422.638 313,420.5C 312.586,420.957 312.086,421.291 311.5,421.5C 309.017,415.235 305.517,409.569 301,404.5C 299.693,403.228 298.193,402.228 296.5,401.5C 294.823,398.147 292.657,395.147 290,392.5C 289.683,394.301 289.016,394.634 288,393.5C 286.47,389.91 285.136,386.243 284,382.5C 282,381.833 280.667,380.5 280,378.5C 279.667,378.833 279.333,379.167 279,379.5C 278.825,375.789 278.325,372.122 277.5,368.5C 276.513,381.82 275.846,395.153 275.5,408.5C 275.2,416.242 274.367,423.908 273,431.5C 272.581,432.672 271.915,433.672 271,434.5C 270.118,431.211 269.452,427.877 269,424.5C 262.198,427.088 259.198,432.088 260,439.5C 257.952,463.588 261.952,486.588 272,508.5C 290.803,509.059 309.636,509.893 328.5,511C 337.265,513.213 344.598,517.713 350.5,524.5C 350.333,524.833 350.167,525.167 350,525.5C 343.921,519.709 336.754,515.876 328.5,514C 310.836,513.5 293.17,513.333 275.5,513.5C 282.871,529.067 293.205,542.567 306.5,554C 323.567,565.733 338.734,579.566 352,595.5C 354.072,598.971 355.572,602.638 356.5,606.5C 355.167,606.5 353.833,606.5 352.5,606.5C 345.226,593.384 335.56,582.217 323.5,573C 270.779,537.377 248.612,487.877 257,424.5C 256.196,423.196 255.029,422.529 253.5,422.5C 250.259,422.9 247.593,424.233 245.5,426.5C 242.351,426.415 239.684,427.415 237.5,429.5C 234.523,430.071 231.69,431.071 229,432.5C 226.901,470.684 235.234,506.351 254,539.5C 265.5,556.333 279.667,570.5 296.5,582C 304.893,588.88 311.56,597.047 316.5,606.5C 314.833,606.5 313.167,606.5 311.5,606.5C 301.624,592.791 289.624,581.291 275.5,572C 245.548,542.921 228.882,507.421 225.5,465.5C 225,455.496 224.333,445.496 223.5,435.5C 222.893,435.624 222.56,435.957 222.5,436.5C 213.341,441.245 204.008,445.745 194.5,450C 187.869,451.793 181.202,453.46 174.5,455C 169.78,456.176 165.446,458.01 161.5,460.5C 157.492,462.837 153.492,465.17 149.5,467.5C 144.023,467.693 141.023,470.36 140.5,475.5C 140.5,474.167 140.5,472.833 140.5,471.5C 135.695,472.132 132.528,474.799 131,479.5C 126.876,521.736 125.042,564.069 125.5,606.5C 123.833,606.5 122.167,606.5 120.5,606.5C 120.753,567.433 122.419,528.433 125.5,489.5C 125.167,488.5 124.833,487.5 124.5,486.5C 114.53,492.817 103.863,497.15 92.5,499.5C 79.1304,502.018 67.1304,507.518 56.5,516C 33.8826,536.621 17.716,561.454 8,590.5C 6.20233,595.689 5.369,601.022 5.5,606.5C 3.5,606.5 1.5,606.5 -0.5,606.5C -0.5,604.833 -0.5,603.167 -0.5,601.5C 0.451145,600.081 0.784479,598.415 0.5,596.5C 2.4814,589.926 4.4814,583.259 6.5,576.5C 13.2945,561.577 21.6279,547.577 31.5,534.5C 32.1667,534.5 32.5,534.167 32.5,533.5C 34.137,531.525 35.8036,529.525 37.5,527.5C 38.1667,527.5 38.5,527.167 38.5,526.5C 54.279,507.269 74.6123,495.769 99.5,492C 108.504,489.331 116.837,485.331 124.5,480C 123.833,479.667 123.167,479.333 122.5,479C 123.701,478.097 124.535,476.931 125,475.5C 125.333,476.167 125.667,476.833 126,477.5C 127.123,474.751 128.623,472.251 130.5,470C 141.625,464.604 152.625,458.937 163.5,453C 173.804,449.841 184.138,446.841 194.5,444C 205.625,438.604 216.625,432.937 227.5,427C 234.833,424 242.167,421 249.5,418C 253.981,416.888 257.981,417.721 261.5,420.5C 261.369,421.239 261.536,421.906 262,422.5C 263.518,421.837 264.685,420.837 265.5,419.5C 267.027,419.573 268.027,418.906 268.5,417.5C 269.317,415.031 269.817,412.365 270,409.5C 270.667,392.167 270.667,374.833 270,357.5C 269.832,374.672 269.332,391.672 268.5,408.5C 268.466,390.988 268.466,373.654 268.5,356.5C 267.181,351.687 265.014,347.354 262,343.5C 261.667,344.5 261.333,345.5 261,346.5C 259.682,343.594 259.348,340.594 260,337.5C 260.333,339.167 260.667,340.833 261,342.5C 261.546,339.101 261.213,335.768 260,332.5C 259.667,333.833 259.333,335.167 259,336.5C 257.513,335.747 257.346,334.914 258.5,334C 257.862,330.065 257.196,326.231 256.5,322.5C 256.672,321.508 256.338,320.842 255.5,320.5C 254.341,316.286 254.341,312.119 255.5,308C 254.376,307.161 253.709,305.994 253.5,304.5C 253.779,302.657 254.113,300.823 254.5,299C 251.128,295.084 248.128,290.917 245.5,286.5C 245.737,285.209 245.404,284.209 244.5,283.5C 244.472,280.084 243.472,277.084 241.5,274.5C 241.598,272.447 240.931,270.78 239.5,269.5C 239.737,268.209 239.404,267.209 238.5,266.5C 237.671,261.547 237.337,256.547 237.5,251.5C 238.935,248.45 239.602,245.117 239.5,241.5C 237.787,237.159 237.12,232.159 237.5,226.5C 237.672,225.508 237.338,224.842 236.5,224.5C 235.571,220.873 234.737,217.207 234,213.5C 233.667,215.167 233.333,216.833 233,218.5C 232.245,215.697 232.578,213.03 234,210.5C 234.333,211.167 234.667,211.833 235,212.5C 237.869,206.65 242.369,204.983 248.5,207.5C 249.247,205.711 248.914,204.044 247.5,202.5C 247.405,200.214 246.738,198.214 245.5,196.5C 245.59,193.848 244.924,191.515 243.5,189.5C 243.324,186.273 242.657,183.273 241.5,180.5C 241.453,177.432 240.953,174.432 240,171.5C 238.992,176.541 238.492,176.208 238.5,170.5C 239.496,166.446 239.162,162.446 237.5,158.5C 235.758,155.855 235.091,152.855 235.5,149.5C 236.495,138.012 236.828,126.345 236.5,114.5C 237.833,112.5 237.833,110.5 236.5,108.5C 235.89,102.514 236.89,96.8469 239.5,91.5C 238.56,88.8684 238.393,86.2017 239,83.5C 239.333,84.5 239.667,85.5 240,86.5C 241.019,82.6032 242.519,78.9365 244.5,75.5C 245.167,75.5 245.5,75.1667 245.5,74.5C 246.167,74.5 246.5,74.1667 246.5,73.5C 247.775,71.2704 249.775,69.937 252.5,69.5C 253.308,67.5767 253.808,65.5767 254,63.5C 254.995,62.9341 255.828,62.2674 256.5,61.5C 257.347,58.1835 258.514,54.8502 260,51.5C 261.812,50.0229 263.645,48.6896 265.5,47.5C 266.982,43.9074 267.815,40.2407 268,36.5C 268.333,37.1667 268.667,37.8333 269,38.5C 272.345,33.901 276.845,30.901 282.5,29.5C 283.008,27.0958 284.175,26.4291 286,27.5C 286.352,25.7525 286.852,24.0858 287.5,22.5C 288.167,22.5 288.5,22.1667 288.5,21.5C 289.167,21.5 289.5,21.1667 289.5,20.5C 293.898,18.2747 297.898,15.4413 301.5,12C 305.773,10.9695 310.106,10.3028 314.5,10C 311.5,9.66667 308.5,9.33333 305.5,9C 309.486,8.50115 313.486,8.33449 317.5,8.5C 318.548,10.9327 319.214,10.9327 319.5,8.5C 321.383,6.60239 323.383,4.76906 325.5,3C 327.677,1.79777 330.011,1.29777 332.5,1.5C 333.98,3.77429 336.147,5.10762 339,5.5C 340.129,3.85883 341.629,2.85883 343.5,2.5C 344.779,3.71515 345.779,3.38182 346.5,1.5C 352.397,0.17218 358.231,0.505513 364,2.5C 367.929,1.43836 371.762,0.438358 375.5,-0.5 Z M 346.5,1.5 C 345.779,3.38182 344.779,3.71515 343.5,2.5C 344.391,1.89022 345.391,1.55688 346.5,1.5 Z M 317.5,8.5 C 318.167,8.5 318.833,8.5 319.5,8.5C 319.214,10.9327 318.548,10.9327 317.5,8.5 Z M 494.5,204.5 C 493.469,205.249 492.302,205.915 491,206.5C 490.833,206.167 490.667,205.833 490.5,205.5C 491.689,204.571 493.022,204.238 494.5,204.5 Z M 266.5,417.5 C 267.167,417.5 267.833,417.5 268.5,417.5C 268.027,418.906 267.027,419.573 265.5,419.5C 265.833,418.833 266.167,418.167 266.5,417.5 Z M 265.5,419.5 C 264.685,420.837 263.518,421.837 262,422.5C 261.536,421.906 261.369,421.239 261.5,420.5C 262.833,420.167 264.167,419.833 265.5,419.5 Z M 487.5,420.5 C 487.013,423.715 486.013,424.048 484.5,421.5C 485.609,421.443 486.609,421.11 487.5,420.5 Z"/></g>
<g><path style="opacity:0.012" fill="#290000" d="M 332.5,0.5 C 333.833,1.16667 333.833,1.16667 332.5,0.5 Z"/></g>
<g><path style="opacity:0.004" fill="#190000" d="M 404.5,3.5 C 404.56,2.95691 404.893,2.62358 405.5,2.5C 406.7,3.53119 408.034,4.36453 409.5,5C 408.552,5.48278 407.552,5.64945 406.5,5.5C 405.833,5.5 405.5,5.16667 405.5,4.5C 404.833,4.5 404.5,4.16667 404.5,3.5 Z"/></g>
<g><path style="opacity:0.012" fill="#210100" d="M 314.5,7.5 C 315.251,6.42654 316.251,6.25988 317.5,7C 316.552,7.48278 315.552,7.64945 314.5,7.5 Z"/></g>
<g><path style="opacity:0.012" fill="#290000" d="M 413.5,10.5 C 413.167,10.5 412.833,10.5 412.5,10.5C 413.152,9.27493 414.319,8.60826 416,8.5C 417.167,8.66667 418.333,8.83333 419.5,9C 417.292,9.19088 415.292,9.69088 413.5,10.5 Z"/></g>
<g><path style="opacity:0.012" fill="#290000" d="M 301.5,10.5 C 302.251,9.42654 303.251,9.25988 304.5,10C 303.552,10.4828 302.552,10.6495 301.5,10.5 Z"/></g>
<g><path style="opacity:0.004" fill="#150000" d="M 448.5,19.5 C 448.897,18.475 449.563,18.3083 450.5,19C 449.906,19.4643 449.239,19.631 448.5,19.5 Z"/></g>
<g><path style="opacity:0.004" fill="#150000" d="M 289.5,20.5 C 288.833,20.5 288.5,20.8333 288.5,21.5C 287.833,21.5 287.5,21.8333 287.5,22.5C 286.475,22.1034 286.308,21.4368 287,20.5C 287.977,19.2264 288.811,19.2264 289.5,20.5 Z"/></g>
<g><path style="opacity:0.012" fill="#290000" d="M 457.5,22.5 C 456.833,21.1667 456.833,21.1667 457.5,22.5 Z"/></g>
<g><path style="opacity:0.012" fill="#290000" d="M 457.5,22.5 C 458.833,23.1667 458.833,23.1667 457.5,22.5 Z"/></g>
<g><path style="opacity:0.02" fill="#1f0200" d="M 284.5,23.5 C 285.773,24.0768 285.773,24.7435 284.5,25.5C 283.537,25.0302 283.537,24.3635 284.5,23.5 Z"/></g>
<g><path style="opacity:0.012" fill="#240000" d="M 459.5,26.5 C 461.746,27.2096 464.08,27.7096 466.5,28C 465.333,28.1667 464.167,28.3333 463,28.5C 461.319,28.3917 460.152,27.7251 459.5,26.5 Z"/></g>
<g><path style="opacity:0.012" fill="#210000" d="M 273.5,31.5 C 273.897,30.475 274.563,30.3083 275.5,31C 274.906,31.4643 274.239,31.631 273.5,31.5 Z"/></g>
<g><path style="opacity:0.012" fill="#290000" d="M 273.5,31.5 C 272.833,32.1667 272.833,32.1667 273.5,31.5 Z"/></g>
<g><path style="opacity:0.012" fill="#250100" d="M 475.5,38.5 C 476.473,38.9867 477.473,39.4867 478.5,40C 476.843,40.7252 475.843,40.2252 475.5,38.5 Z"/></g>
<g><path style="opacity:0.012" fill="#280000" d="M 265.5,47.5 C 264.761,47.631 264.094,47.4643 263.5,47C 264.881,40.9801 265.547,41.1468 265.5,47.5 Z"/></g>
<g><path style="opacity:0.012" fill="#280000" d="M 487.5,57.5 C 488.249,58.531 488.915,59.6976 489.5,61C 489.167,61.1667 488.833,61.3333 488.5,61.5C 487.571,60.3112 487.238,58.9778 487.5,57.5 Z"/></g>
<g><path style="opacity:0.012" fill="#280000" d="M 256.5,61.5 C 255.761,61.631 255.094,61.4643 254.5,61C 255.881,54.9801 256.547,55.1468 256.5,61.5 Z"/></g>
<g><path style="opacity:1" fill="#1f0d01" d="M 493.5,132.5 C 492.517,128.702 492.183,124.702 492.5,120.5C 482.584,120.819 472.75,120.486 463,119.5C 462.722,120.416 462.222,121.082 461.5,121.5C 457.525,111.022 450.525,103.189 440.5,98C 426.528,91.1755 411.861,86.6755 396.5,84.5C 358.446,78.0411 322.112,83.2078 287.5,100C 284.42,102.29 281.253,104.457 278,106.5C 275.962,109.243 274.462,112.243 273.5,115.5C 272.732,114.737 272.232,113.737 272,112.5C 271.517,113.448 271.351,114.448 271.5,115.5C 262.5,115.5 253.5,115.5 244.5,115.5C 244.649,114.448 244.483,113.448 244,112.5C 243.809,114.708 243.309,116.708 242.5,118.5C 242.735,113.124 242.402,107.791 241.5,102.5C 242.072,98.343 243.406,97.843 245.5,101C 246.167,101.667 246.833,101.667 247.5,101C 246.232,98.8593 245.565,96.5259 245.5,94C 244.77,85.2899 248.104,78.7899 255.5,74.5C 256.833,75.8333 258.167,75.8333 259.5,74.5C 260.711,73.7261 260.711,72.8928 259.5,72C 335.833,71.5 412.166,71.3333 488.5,71.5C 488.884,76.6431 489.884,81.6431 491.5,86.5C 494.595,86.6263 496.428,88.293 497,91.5C 498.372,100.816 497.372,109.816 494,118.5C 493.501,123.155 493.334,127.821 493.5,132.5 Z"/></g>
<g><path style="opacity:0.012" fill="#1e0000" d="M 246.5,73.5 C 245.833,73.5 245.5,73.8333 245.5,74.5C 244.833,74.5 244.5,74.8333 244.5,75.5C 243.441,73.9301 243.941,72.5968 246,71.5C 246.464,72.0944 246.631,72.7611 246.5,73.5 Z"/></g>
<g><path style="opacity:1" fill="#a04c34" d="M 396.5,84.5 C 408.184,105.086 412.351,127.086 409,150.5C 406.983,158.87 403.15,166.203 397.5,172.5C 397.167,172.5 396.833,172.5 396.5,172.5C 390.265,172.286 384.432,173.62 379,176.5C 378.586,176.043 378.086,175.709 377.5,175.5C 376.638,176.766 375.971,178.099 375.5,179.5C 377.779,194.227 380.445,208.894 383.5,223.5C 383.369,224.376 383.702,225.043 384.5,225.5C 385.251,224.624 385.751,223.624 386,222.5C 388.928,226.381 392.761,228.881 397.5,230C 411.428,232.917 425.428,233.25 439.5,231C 446.535,228.732 453.035,225.565 459,221.5C 461.151,221.643 462.818,222.643 464,224.5C 468.365,233.854 469.365,243.521 467,253.5C 465.877,256.249 464.377,258.749 462.5,261C 446.473,268.039 438.473,280.373 438.5,298C 439.322,309.161 439.989,320.328 440.5,331.5C 438.354,333.775 436.688,336.442 435.5,339.5C 434.808,338.975 434.308,338.308 434,337.5C 434.022,341.818 432.355,345.152 429,347.5C 427.454,350.818 425.788,354.152 424,357.5C 423.259,358.641 422.425,358.641 421.5,357.5C 420.667,358.5 419.833,359.5 419,360.5C 417.342,365.169 415.842,369.836 414.5,374.5C 413.726,375.711 412.893,375.711 412,374.5C 410.888,377.303 409.054,378.303 406.5,377.5C 404.937,380.778 402.604,381.445 399.5,379.5C 396.611,379.931 393.778,380.597 391,381.5C 385.836,378.33 380.336,377.33 374.5,378.5C 372.5,377.833 370.5,377.167 368.5,376.5C 365.676,377.754 362.843,377.754 360,376.5C 358.553,376.945 357.22,377.612 356,378.5C 352.545,377.45 349.045,377.283 345.5,378C 341.848,379.773 338.015,380.94 334,381.5C 330.686,380.193 327.186,379.359 323.5,379C 321.299,375.465 318.465,372.632 315,370.5C 314.667,367.167 314.333,363.833 314,360.5C 312.984,359.366 312.317,359.699 312,361.5C 312.27,355.416 310.937,349.749 308,344.5C 307.667,345.5 307.333,346.5 307,347.5C 304.497,343.83 302.663,339.83 301.5,335.5C 298.353,334.291 296.519,331.958 296,328.5C 292.942,326.043 290.608,323.043 289,319.5C 282.407,312.212 275.407,305.546 268,299.5C 266.288,295.907 264.454,292.407 262.5,289C 260.383,278.08 257.883,267.246 255,256.5C 254.333,248.167 254.333,239.833 255,231.5C 256.883,224.622 257.716,217.622 257.5,210.5C 258.181,197.469 258.514,184.469 258.5,171.5C 259.676,162.482 263.509,154.815 270,148.5C 270.499,143.845 270.666,139.179 270.5,134.5C 270.124,127.908 271.124,121.575 273.5,115.5C 274.462,112.243 275.962,109.243 278,106.5C 281.253,104.457 284.42,102.29 287.5,100C 322.112,83.2078 358.446,78.0411 396.5,84.5 Z"/></g>
<g><path style="opacity:0.012" fill="#230000" d="M 236.5,86.5 C 237.573,87.2506 237.74,88.2506 237,89.5C 236.517,88.552 236.351,87.552 236.5,86.5 Z"/></g>
<g><path style="opacity:1" fill="#8d3d2b" d="M 396.5,84.5 C 411.861,86.6755 426.528,91.1755 440.5,98C 450.525,103.189 457.525,111.022 461.5,121.5C 463.993,131.283 465.16,141.283 465,151.5C 468.771,155.431 471.938,159.764 474.5,164.5C 476.226,167.96 477.392,171.627 478,175.5C 478.013,188.254 478.846,200.92 480.5,213.5C 482.075,224.109 482.575,234.775 482,245.5C 480.808,253.27 479.141,260.936 477,268.5C 478.227,279.164 475.893,288.831 470,297.5C 469.667,296.833 469.333,296.167 469,295.5C 468.727,297.101 468.227,298.601 467.5,300C 460.375,302.783 454.708,307.449 450.5,314C 449.552,314.483 448.552,314.649 447.5,314.5C 445.738,320.467 443.404,326.133 440.5,331.5C 439.989,320.328 439.322,309.161 438.5,298C 438.473,280.373 446.473,268.039 462.5,261C 464.377,258.749 465.877,256.249 467,253.5C 469.365,243.521 468.365,233.854 464,224.5C 462.818,222.643 461.151,221.643 459,221.5C 453.035,225.565 446.535,228.732 439.5,231C 425.428,233.25 411.428,232.917 397.5,230C 392.761,228.881 388.928,226.381 386,222.5C 385.751,223.624 385.251,224.624 384.5,225.5C 383.702,225.043 383.369,224.376 383.5,223.5C 384.587,208.261 381.921,193.594 375.5,179.5C 375.971,178.099 376.638,176.766 377.5,175.5C 378.086,175.709 378.586,176.043 379,176.5C 384.432,173.62 390.265,172.286 396.5,172.5C 392.484,175.159 391.484,178.826 393.5,183.5C 404.227,184.189 414.561,182.356 424.5,178C 440.42,174.062 454.587,177.229 467,187.5C 467.87,186.892 468.37,186.059 468.5,185C 464.606,174.778 457.273,168.445 446.5,166C 437.476,165.46 428.476,165.793 419.5,167C 412.085,168.648 404.752,170.481 397.5,172.5C 403.15,166.203 406.983,158.87 409,150.5C 412.351,127.086 408.184,105.086 396.5,84.5 Z"/></g>
<g><path style="opacity:0.012" fill="#260000" d="M 236.5,108.5 C 236.5,110.5 236.5,112.5 236.5,114.5C 235.167,112.5 235.167,110.5 236.5,108.5 Z"/></g>
<g><path style="opacity:0.012" fill="#270100" d="M 502.5,113.5 C 503.525,113.897 503.692,114.563 503,115.5C 502.536,114.906 502.369,114.239 502.5,113.5 Z"/></g>
<g><path style="opacity:0.012" fill="#270000" d="M 235.5,149.5 C 234.341,138.341 234.174,127.008 235,115.5C 235.5,126.828 235.667,138.162 235.5,149.5 Z"/></g>
<g><path style="opacity:1" fill="#2b1203" d="M 273.5,115.5 C 271.124,121.575 270.124,127.908 270.5,134.5C 269.691,136.292 269.191,138.292 269,140.5C 268.526,135.373 267.526,135.373 266,140.5C 264.488,138.043 263.154,138.043 262,140.5C 261.692,139.692 261.192,139.025 260.5,138.5C 257.5,139.833 254.5,139.833 251.5,138.5C 250.808,139.025 250.308,139.692 250,140.5C 248.863,139.636 247.53,138.636 246,137.5C 244.691,139.891 243.691,139.891 243,137.5C 242.505,139.473 242.338,141.473 242.5,143.5C 241.28,135.315 241.28,126.982 242.5,118.5C 243.309,116.708 243.809,114.708 244,112.5C 244.483,113.448 244.649,114.448 244.5,115.5C 253.5,115.5 262.5,115.5 271.5,115.5C 271.351,114.448 271.517,113.448 272,112.5C 272.232,113.737 272.732,114.737 273.5,115.5 Z"/></g>
<g><path style="opacity:1" fill="#2e1304" d="M 493.5,132.5 C 493.828,143.014 493.494,153.347 492.5,163.5C 491.89,161.15 491.556,161.483 491.5,164.5C 485.623,164.383 479.956,164.383 474.5,164.5C 471.938,159.764 468.771,155.431 465,151.5C 465.16,141.283 463.993,131.283 461.5,121.5C 462.222,121.082 462.722,120.416 463,119.5C 472.75,120.486 482.584,120.819 492.5,120.5C 492.183,124.702 492.517,128.702 493.5,132.5 Z"/></g>
<g><path style="opacity:1" fill="#3c1a09" d="M 270.5,134.5 C 270.666,139.179 270.499,143.845 270,148.5C 263.509,154.815 259.676,162.482 258.5,171.5C 257.71,170.391 257.21,169.058 257,167.5C 256.333,168.833 255.667,168.833 255,167.5C 254,168.167 253,168.833 252,169.5C 250.249,168.826 248.583,168.493 247,168.5C 246.51,169.793 246.343,171.127 246.5,172.5C 244.431,163.065 243.098,153.398 242.5,143.5C 242.338,141.473 242.505,139.473 243,137.5C 243.691,139.891 244.691,139.891 246,137.5C 247.53,138.636 248.863,139.636 250,140.5C 250.308,139.692 250.808,139.025 251.5,138.5C 254.5,139.833 257.5,139.833 260.5,138.5C 261.192,139.025 261.692,139.692 262,140.5C 263.154,138.043 264.488,138.043 266,140.5C 267.526,135.373 268.526,135.373 269,140.5C 269.191,138.292 269.691,136.292 270.5,134.5 Z"/></g>
<g><path style="opacity:0.012" fill="#250000" d="M 237.5,158.5 C 237.662,160.527 237.495,162.527 237,164.5C 236.211,162.288 236.378,160.288 237.5,158.5 Z"/></g>
<g><path style="opacity:0.012" fill="#250000" d="M 238.5,170.5 C 237.387,169.054 237.22,167.387 238,165.5C 238.494,167.134 238.66,168.801 238.5,170.5 Z"/></g>
<g><path style="opacity:1" fill="#1b0b01" d="M 349.5,177.5 C 349.662,179.527 349.495,181.527 349,183.5C 347.181,183.925 345.014,184.258 342.5,184.5C 332.035,182.604 321.701,180.104 311.5,177C 302.59,176.035 293.924,177.035 285.5,180C 281.112,182.523 276.778,185.023 272.5,187.5C 273.434,183.627 274.934,179.961 277,176.5C 280.13,174.372 282.963,171.872 285.5,169C 295.182,165.586 305.182,164.586 315.5,166C 321.013,167.725 326.68,168.725 332.5,169C 337.12,170.66 341.787,172.326 346.5,174C 348.426,174.422 349.426,175.589 349.5,177.5 Z"/></g>
<g><path style="opacity:1" fill="#1b0b01" d="M 396.5,172.5 C 396.833,172.5 397.167,172.5 397.5,172.5C 404.752,170.481 412.085,168.648 419.5,167C 428.476,165.793 437.476,165.46 446.5,166C 457.273,168.445 464.606,174.778 468.5,185C 468.37,186.059 467.87,186.892 467,187.5C 454.587,177.229 440.42,174.062 424.5,178C 414.561,182.356 404.227,184.189 393.5,183.5C 391.484,178.826 392.484,175.159 396.5,172.5 Z"/></g>
<g><path style="opacity:1" fill="#4c2010" d="M 492.5,163.5 C 491.925,181.129 487.925,197.796 480.5,213.5C 478.846,200.92 478.013,188.254 478,175.5C 477.392,171.627 476.226,167.96 474.5,164.5C 479.956,164.383 485.623,164.383 491.5,164.5C 491.556,161.483 491.89,161.15 492.5,163.5 Z"/></g>
<g><path style="opacity:0.012" fill="#230100" d="M 240.5,180.5 C 239.402,179.399 239.235,178.066 240,176.5C 240.49,177.793 240.657,179.127 240.5,180.5 Z"/></g>
<g><path style="opacity:1" fill="#8b3c2a" d="M 349.5,177.5 C 350.163,179.641 350.497,181.975 350.5,184.5C 348.262,195.024 347.095,205.69 347,216.5C 343.725,222.773 338.558,226.273 331.5,227C 321.296,227.454 311.129,226.954 301,225.5C 290.208,227.056 279.375,227.556 268.5,227C 267.542,225.853 267.875,224.853 269.5,224C 273.953,222.274 278.286,220.274 282.5,218C 283.293,216.915 283.96,215.748 284.5,214.5C 281.894,210.391 278.727,206.724 275,203.5C 271.51,198.57 270.677,193.237 272.5,187.5C 276.778,185.023 281.112,182.523 285.5,180C 293.924,177.035 302.59,176.035 311.5,177C 321.701,180.104 332.035,182.604 342.5,184.5C 345.014,184.258 347.181,183.925 349,183.5C 349.495,181.527 349.662,179.527 349.5,177.5 Z"/></g>
<g><path style="opacity:1" fill="#592715" d="M 258.5,171.5 C 258.514,184.469 258.181,197.469 257.5,210.5C 252.136,198.408 248.47,185.741 246.5,172.5C 246.343,171.127 246.51,169.793 247,168.5C 248.583,168.493 250.249,168.826 252,169.5C 253,168.833 254,168.167 255,167.5C 255.667,168.833 256.333,168.833 257,167.5C 257.21,169.058 257.71,170.391 258.5,171.5 Z"/></g>
<g><path style="opacity:0.012" fill="#240000" d="M 240.5,180.5 C 240.833,180.5 241.167,180.5 241.5,180.5C 241.167,185.833 240.833,185.833 240.5,180.5 Z"/></g>
<g><path style="opacity:0.012" fill="#250000" d="M 496.5,184.5 C 497.613,185.946 497.78,187.613 497,189.5C 496.506,187.866 496.34,186.199 496.5,184.5 Z"/></g>
<g><path style="opacity:1" fill="#160b02" d="M 306.5,187.5 C 312.232,187.283 317.899,187.783 323.5,189C 327.337,190.173 330.671,192.173 333.5,195C 329.835,194.016 326.168,192.683 322.5,191C 319.333,190.833 316.167,190.667 313,190.5C 306.549,190.337 300.383,191.171 294.5,193C 298.481,190.838 302.481,189.005 306.5,187.5 Z"/></g>
<g><path style="opacity:0.012" fill="#280100" d="M 243.5,189.5 C 243.649,190.552 243.483,191.552 243,192.5C 242.26,191.251 242.427,190.251 243.5,189.5 Z"/></g>
<g><path style="opacity:1" fill="#150b02" d="M 417.5,189.5 C 429.295,188.355 439.962,191.188 449.5,198C 441.961,194.613 433.961,192.446 425.5,191.5C 417.953,191.459 411.286,193.793 405.5,198.5C 405.167,198.333 404.833,198.167 404.5,198C 408.249,194.135 412.582,191.302 417.5,189.5 Z"/></g>
<g><path style="opacity:1" fill="#180a01" d="M 375.5,179.5 C 381.921,193.594 384.587,208.261 383.5,223.5C 380.445,208.894 377.779,194.227 375.5,179.5 Z"/></g>
<g><path style="opacity:0.012" fill="#290000" d="M 244.5,196.5 C 243.427,195.749 243.26,194.749 244,193.5C 244.483,194.448 244.649,195.448 244.5,196.5 Z"/></g>
<g><path style="opacity:1" fill="#1d120a" d="M 307.5,192.5 C 321.214,190.955 332.548,195.289 341.5,205.5C 341.291,206.086 340.957,206.586 340.5,207C 331.131,207.506 321.798,208.34 312.5,209.5C 304.192,209.675 296.858,207.175 290.5,202C 295.658,197.758 301.325,194.592 307.5,192.5 Z"/></g>
<g><path style="opacity:1" fill="#1c1007" d="M 420.5,193.5 C 430.136,193.157 438.803,195.824 446.5,201.5C 447.583,202.365 447.749,203.365 447,204.5C 437.281,210.26 426.781,212.427 415.5,211C 409.53,210.025 403.53,209.192 397.5,208.5C 398.253,206.247 399.586,204.413 401.5,203C 407.393,198.72 413.727,195.553 420.5,193.5 Z"/></g>
<g><path style="opacity:0.012" fill="#290000" d="M 244.5,196.5 C 244.833,196.5 245.167,196.5 245.5,196.5C 245.167,200.5 244.833,200.5 244.5,196.5 Z"/></g>
<g><path style="opacity:1" fill="#d5d3d3" d="M 310.5,196.5 C 311.5,196.5 312.5,196.5 313.5,196.5C 313.5,197.833 313.5,199.167 313.5,200.5C 310.046,200.733 309.046,199.4 310.5,196.5 Z"/></g>
<g><path style="opacity:1" fill="#d9d7d6" d="M 304.5,195.5 C 305.497,195.47 306.164,195.97 306.5,197C 305.363,200.157 305.363,203.323 306.5,206.5C 295.324,204.649 294.658,200.982 304.5,195.5 Z"/></g>
<g><path style="opacity:1" fill="#d1cfcf" d="M 323.5,196.5 C 328.452,197.125 331.452,199.791 332.5,204.5C 329.689,204.571 327.022,205.238 324.5,206.5C 323.833,206.167 323.167,205.833 322.5,205.5C 323.407,202.579 323.74,199.579 323.5,196.5 Z"/></g>
<g><path style="opacity:1" fill="#dddbdb" d="M 417.5,198.5 C 418.833,198.5 420.167,198.5 421.5,198.5C 421.778,200.346 421.111,201.68 419.5,202.5C 417.889,201.68 417.222,200.346 417.5,198.5 Z"/></g>
<g><path style="opacity:0.012" fill="#290000" d="M 246.5,202.5 C 245.475,202.103 245.308,201.437 246,200.5C 246.464,201.094 246.631,201.761 246.5,202.5 Z"/></g>
<g><path style="opacity:1" fill="#d8d6d6" d="M 430.5,196.5 C 437.171,196.649 439.838,199.816 438.5,206C 436.026,208.099 433.359,208.599 430.5,207.5C 431.751,203.836 431.751,200.169 430.5,196.5 Z"/></g>
<g><path style="opacity:1" fill="#c4c2c2" d="M 314.5,200.5 C 316.465,200.948 316.798,201.948 315.5,203.5C 314.614,202.675 314.281,201.675 314.5,200.5 Z"/></g>
<g><path style="opacity:1" fill="#dbd9d9" d="M 412.5,198.5 C 413.254,201.023 413.92,203.689 414.5,206.5C 411.527,207.509 408.527,207.509 405.5,206.5C 405.351,205.448 405.517,204.448 406,203.5C 408.326,201.934 410.492,200.268 412.5,198.5 Z"/></g>
<g><path style="opacity:1" fill="#bfbdbc" d="M 421.5,202.5 C 422.675,202.281 423.675,202.614 424.5,203.5C 422.948,204.798 421.948,204.465 421.5,202.5 Z"/></g>
<g><path style="opacity:0.02" fill="#230200" d="M 246.5,202.5 C 246.833,202.5 247.167,202.5 247.5,202.5C 247.5,203.5 247.5,204.5 247.5,205.5C 246.448,205.649 245.448,205.483 244.5,205C 245.756,204.583 246.423,203.75 246.5,202.5 Z"/></g>
<g><path style="opacity:1" fill="#994831" d="M 498.5,216.5 C 495.944,217.543 493.777,219.21 492,221.5C 490.333,224.167 488.667,226.833 487,229.5C 482.692,219.118 485.858,212.785 496.5,210.5C 500.629,211.548 501.295,213.548 498.5,216.5 Z"/></g>
<g><path style="opacity:0.012" fill="#260000" d="M 506.5,221.5 C 506.334,217.486 506.501,213.486 507,209.5C 507.812,213.689 507.645,217.689 506.5,221.5 Z"/></g>
<g><path style="opacity:1" fill="#964630" d="M 241.5,211.5 C 245.232,212.199 248.565,213.866 251.5,216.5C 252.818,220.626 252.485,224.626 250.5,228.5C 247.913,223.746 244.746,219.413 241,215.5C 240.421,214.072 240.588,212.738 241.5,211.5 Z"/></g>
<g><path style="opacity:1" fill="#120700" d="M 415.5,215.5 C 419.067,214.965 422.734,215.465 426.5,217C 422.742,217.313 419.076,216.813 415.5,215.5 Z"/></g>
<g><path style="opacity:0.012" fill="#290000" d="M 233.5,219.5 C 234.525,219.897 234.692,220.563 234,221.5C 233.536,220.906 233.369,220.239 233.5,219.5 Z"/></g>
<g><path style="opacity:0.012" fill="#290000" d="M 505.5,221.5 C 505.833,221.5 506.167,221.5 506.5,221.5C 506.672,222.492 506.338,223.158 505.5,223.5C 505.5,222.833 505.5,222.167 505.5,221.5 Z"/></g>
<g><path style="opacity:0.004" fill="#150000" d="M 235.5,224.5 C 234.475,224.103 234.308,223.437 235,222.5C 235.464,223.094 235.631,223.761 235.5,224.5 Z"/></g>
<g><path style="opacity:0.012" fill="#290000" d="M 504.5,223.5 C 504.833,223.5 505.167,223.5 505.5,223.5C 505.167,226.167 504.833,226.167 504.5,223.5 Z"/></g>
<g><path style="opacity:0.012" fill="#270100" d="M 235.5,224.5 C 235.833,224.5 236.167,224.5 236.5,224.5C 236.5,225.167 236.5,225.833 236.5,226.5C 235.662,226.158 235.328,225.492 235.5,224.5 Z"/></g>
<g><path style="opacity:0.012" fill="#290000" d="M 236.5,226.5 C 236.833,226.5 237.167,226.5 237.5,226.5C 237.167,229.167 236.833,229.167 236.5,226.5 Z"/></g>
<g><path style="opacity:1" fill="#883c29" d="M 498.5,216.5 C 499.376,216.369 500.043,216.702 500.5,217.5C 493.997,231.875 491.83,246.875 494,262.5C 489.134,270.898 484.801,279.565 481,288.5C 480.333,283.833 480.333,279.167 481,274.5C 483.161,263.523 485.161,252.523 487,241.5C 489.783,232.605 493.617,224.272 498.5,216.5 Z"/></g>
<g><path style="opacity:1" fill="#8c3d2b" d="M 393.5,236.5 C 392.957,236.56 392.624,236.893 392.5,237.5C 396.061,243.566 400.561,248.899 406,253.5C 408.067,259.987 406.234,264.82 400.5,268C 402.197,268.384 403.863,268.218 405.5,267.5C 405.056,269.113 404.056,270.28 402.5,271C 396.5,271.333 390.5,271.667 384.5,272C 385.056,272.383 385.389,272.883 385.5,273.5C 383.742,273.123 382.075,272.456 380.5,271.5C 375.767,272.35 371.1,273.517 366.5,275C 365.167,278.333 365.167,281.667 366.5,285C 382.909,284.91 398.576,288.577 413.5,296C 415.684,297.363 417.684,298.863 419.5,300.5C 418.883,300.611 418.383,300.944 418,301.5C 416.275,300.536 414.441,299.869 412.5,299.5C 400.343,293.117 387.343,289.117 373.5,287.5C 370.031,287.572 366.698,288.239 363.5,289.5C 350.973,286.549 339.306,288.549 328.5,295.5C 322.228,297.97 316.228,300.97 310.5,304.5C 309.5,304.5 308.5,304.5 307.5,304.5C 317.25,296.287 328.25,290.12 340.5,286C 348.135,283.102 355.802,282.935 363.5,285.5C 363.5,281.833 363.5,278.167 363.5,274.5C 360.171,274.002 357.005,273.002 354,271.5C 352.301,272.406 350.467,272.739 348.5,272.5C 348.611,271.883 348.944,271.383 349.5,271C 344.833,270.667 340.167,270.333 335.5,270C 333.249,269.252 331.916,267.752 331.5,265.5C 333.723,267.779 336.389,268.612 339.5,268C 331.482,264.128 329.649,258.294 334,250.5C 337.584,247.337 339.417,243.671 339.5,239.5C 340.462,237.014 341.295,237.014 342,239.5C 343.584,238.139 345.418,237.472 347.5,237.5C 346.349,242.166 346.349,246.833 347.5,251.5C 350.241,248.353 352.741,245.02 355,241.5C 357.148,245.905 359.314,250.405 361.5,255C 371.331,260.615 380.165,259.449 388,251.5C 390.437,245.668 389.604,240.335 385.5,235.5C 388.418,234.287 391.085,234.621 393.5,236.5 Z"/></g>
<g><path style="opacity:0.012" fill="#230000" d="M 500.5,239.5 C 501.573,240.251 501.74,241.251 501,242.5C 500.517,241.552 500.351,240.552 500.5,239.5 Z"/></g>
<g><path style="opacity:0.012" fill="#220000" d="M 237.5,239.5 C 238.629,241.628 238.796,243.961 238,246.5C 237.503,244.19 237.337,241.857 237.5,239.5 Z"/></g>
<g><path style="opacity:1" fill="#1a0b01" d="M 339.5,239.5 C 339.417,243.671 337.584,247.337 334,250.5C 329.649,258.294 331.482,264.128 339.5,268C 336.389,268.612 333.723,267.779 331.5,265.5C 328.799,261.597 327.966,257.263 329,252.5C 331.955,247.713 335.455,243.38 339.5,239.5 Z"/></g>
<g><path style="opacity:0.012" fill="#240000" d="M 237.5,251.5 C 237.167,251.5 236.833,251.5 236.5,251.5C 236.833,246.167 237.167,246.167 237.5,251.5 Z"/></g>
<g><path style="opacity:1" fill="#1d0d02" d="M 393.5,236.5 C 394.228,238.735 395.561,240.568 397.5,242C 402.687,244.823 406.854,248.657 410,253.5C 411.177,259.132 409.677,263.799 405.5,267.5C 403.863,268.218 402.197,268.384 400.5,268C 406.234,264.82 408.067,259.987 406,253.5C 400.561,248.899 396.061,243.566 392.5,237.5C 392.624,236.893 392.957,236.56 393.5,236.5 Z"/></g>
<g><path style="opacity:0.012" fill="#280000" d="M 236.5,251.5 C 236.666,255.514 236.499,259.514 236,263.5C 235.188,259.311 235.355,255.311 236.5,251.5 Z"/></g>
<g><path style="opacity:0.012" fill="#290000" d="M 237.5,266.5 C 236.475,266.103 236.308,265.437 237,264.5C 237.464,265.094 237.631,265.761 237.5,266.5 Z"/></g>
<g><path style="opacity:1" fill="#190b01" d="M 340.5,262.5 C 343.64,261.359 346.973,261.192 350.5,262C 356.45,264.483 362.45,266.65 368.5,268.5C 373.911,266.965 379.244,265.132 384.5,263C 389.287,262.121 393.953,262.455 398.5,264C 389.91,263.605 382.077,265.771 375,270.5C 370.876,271.572 366.71,271.738 362.5,271C 357.945,267.555 352.945,264.888 347.5,263C 345.19,262.503 342.857,262.337 340.5,262.5 Z"/></g>
<g><path style="opacity:0.012" fill="#1b0000" d="M 237.5,266.5 C 237.833,266.5 238.167,266.5 238.5,266.5C 238.5,267.5 238.5,268.5 238.5,269.5C 237.596,268.791 237.263,267.791 237.5,266.5 Z"/></g>
<g><path style="opacity:0.012" fill="#270100" d="M 498.5,267.5 C 499.833,268.167 499.833,268.833 498.5,269.5C 498.5,268.833 498.5,268.167 498.5,267.5 Z"/></g>
<g><path style="opacity:0.012" fill="#290000" d="M 497.5,269.5 C 497.833,269.5 498.167,269.5 498.5,269.5C 498.672,270.492 498.338,271.158 497.5,271.5C 497.5,270.833 497.5,270.167 497.5,269.5 Z"/></g>
<g><path style="opacity:0.012" fill="#270100" d="M 238.5,269.5 C 238.833,269.5 239.167,269.5 239.5,269.5C 239.167,272.167 238.833,272.167 238.5,269.5 Z"/></g>
<g><path style="opacity:0.02" fill="#220500" d="M 496.5,271.5 C 496.833,271.5 497.167,271.5 497.5,271.5C 497.315,272.17 496.981,272.17 496.5,271.5 Z"/></g>
<g><path style="opacity:1" fill="#90422d" d="M 240.5,217.5 C 244.764,223.429 247.597,230.095 249,237.5C 249.333,243.167 249.667,248.833 250,254.5C 252.158,262.797 254.158,271.13 256,279.5C 256.825,283.211 256.659,286.878 255.5,290.5C 254.108,289.395 252.941,288.061 252,286.5C 249.73,279.025 247.064,271.691 244,264.5C 244.495,252.846 244.828,241.18 245,229.5C 243.202,225.578 241.702,221.578 240.5,217.5 Z"/></g>
<g><path style="opacity:1" fill="#1b0b01" d="M 385.5,273.5 C 399.665,276.945 412.998,282.445 425.5,290C 426.958,292.46 428.791,294.627 431,296.5C 431.866,300.264 433.033,303.931 434.5,307.5C 434.167,308.5 433.5,309.167 432.5,309.5C 429.436,306.43 426.103,303.763 422.5,301.5C 421.791,300.596 420.791,300.263 419.5,300.5C 417.684,298.863 415.684,297.363 413.5,296C 398.576,288.577 382.909,284.91 366.5,285C 365.167,281.667 365.167,278.333 366.5,275C 371.1,273.517 375.767,272.35 380.5,271.5C 382.075,272.456 383.742,273.123 385.5,273.5 Z"/></g>
<g><path style="opacity:0.012" fill="#290000" d="M 495.5,272.5 C 495.833,272.5 496.167,272.5 496.5,272.5C 496.672,273.492 496.338,274.158 495.5,274.5C 495.5,273.833 495.5,273.167 495.5,272.5 Z"/></g>
<g><path style="opacity:1" fill="#1b0b01" d="M 307.5,304.5 C 305.454,306.279 303.287,307.946 301,309.5C 300.003,302.47 302.003,296.47 307,291.5C 313.636,286.432 320.803,282.265 328.5,279C 335.023,276.325 341.69,274.159 348.5,272.5C 350.467,272.739 352.301,272.406 354,271.5C 357.005,273.002 360.171,274.002 363.5,274.5C 363.5,278.167 363.5,281.833 363.5,285.5C 355.802,282.935 348.135,283.102 340.5,286C 328.25,290.12 317.25,296.287 307.5,304.5 Z"/></g>
<g><path style="opacity:0.012" fill="#290000" d="M 241.5,274.5 C 241.631,275.239 241.464,275.906 241,276.5C 240.308,275.563 240.475,274.897 241.5,274.5 Z"/></g>
<g><path style="opacity:0.004" fill="#100100" d="M 494.5,274.5 C 494.833,274.5 495.167,274.5 495.5,274.5C 495.672,275.492 495.338,276.158 494.5,276.5C 494.5,275.833 494.5,275.167 494.5,274.5 Z"/></g>
<g><path style="opacity:0.012" fill="#290000" d="M 493.5,276.5 C 493.833,276.5 494.167,276.5 494.5,276.5C 494.315,277.17 493.981,277.17 493.5,276.5 Z"/></g>
<g><path style="opacity:0.012" fill="#270100" d="M 241.5,277.5 C 242.525,277.897 242.692,278.563 242,279.5C 241.536,278.906 241.369,278.239 241.5,277.5 Z"/></g>
<g><path style="opacity:0.02" fill="#250300" d="M 492.5,277.5 C 492.833,277.5 493.167,277.5 493.5,277.5C 493.672,278.492 493.338,279.158 492.5,279.5C 492.5,278.833 492.5,278.167 492.5,277.5 Z"/></g>
<g><path style="opacity:0.012" fill="#230000" d="M 491.5,279.5 C 491.833,279.5 492.167,279.5 492.5,279.5C 492.737,280.791 492.404,281.791 491.5,282.5C 491.5,281.5 491.5,280.5 491.5,279.5 Z"/></g>
<g><path style="opacity:0.012" fill="#230000" d="M 243.5,283.5 C 242.427,282.749 242.26,281.749 243,280.5C 243.483,281.448 243.649,282.448 243.5,283.5 Z"/></g>
<g><path style="opacity:0.012" fill="#290000" d="M 490.5,282.5 C 490.833,282.5 491.167,282.5 491.5,282.5C 491.737,283.791 491.404,284.791 490.5,285.5C 490.5,284.5 490.5,283.5 490.5,282.5 Z"/></g>
<g><path style="opacity:0.012" fill="#290000" d="M 243.5,283.5 C 243.833,283.5 244.167,283.5 244.5,283.5C 244.167,286.167 243.833,286.167 243.5,283.5 Z"/></g>
<g><path style="opacity:0.012" fill="#230000" d="M 489.5,285.5 C 489.833,285.5 490.167,285.5 490.5,285.5C 490.167,289.5 489.833,289.5 489.5,285.5 Z"/></g>
<g><path style="opacity:0.012" fill="#270100" d="M 245.5,286.5 C 245.631,287.239 245.464,287.906 245,288.5C 244.308,287.563 244.475,286.897 245.5,286.5 Z"/></g>
<g><path style="opacity:1" fill="#1b0d05" d="M 292.5,287.5 C 293.239,287.369 293.906,287.536 294.5,288C 291.478,291.214 289.978,295.048 290,299.5C 289.333,297.167 289.333,294.833 290,292.5C 291.094,290.922 291.928,289.255 292.5,287.5 Z"/></g>
<g><path style="opacity:1" fill="#7f3c27" d="M 412.5,299.5 C 414.441,299.869 416.275,300.536 418,301.5C 418.383,300.944 418.883,300.611 419.5,300.5C 420.791,300.263 421.791,300.596 422.5,301.5C 421.448,301.351 420.448,301.517 419.5,302C 422.58,304.29 425.747,306.457 429,308.5C 429.798,310.259 429.631,311.926 428.5,313.5C 421.824,320.344 415.49,327.511 409.5,335C 407.208,336.29 405.208,337.957 403.5,340C 401.564,340.813 399.564,341.313 397.5,341.5C 378.654,345.36 359.82,345.36 341,341.5C 340.235,341.57 339.735,341.903 339.5,342.5C 334.596,339.77 330.096,336.436 326,332.5C 321.833,324.828 317.166,317.495 312,310.5C 310.872,308.655 310.372,306.655 310.5,304.5C 316.228,300.97 322.228,297.97 328.5,295.5C 334.778,293.847 341.111,292.347 347.5,291C 353.029,290.253 358.362,290.753 363.5,292.5C 367.099,292.28 370.599,291.613 374,290.5C 387.03,292.8 399.863,295.8 412.5,299.5 Z"/></g>
<g><path style="opacity:1" fill="#170a01" d="M 412.5,299.5 C 399.863,295.8 387.03,292.8 374,290.5C 370.599,291.613 367.099,292.28 363.5,292.5C 358.362,290.753 353.029,290.253 347.5,291C 341.111,292.347 334.778,293.847 328.5,295.5C 339.306,288.549 350.973,286.549 363.5,289.5C 366.698,288.239 370.031,287.572 373.5,287.5C 387.343,289.117 400.343,293.117 412.5,299.5 Z"/></g>
<g><path style="opacity:0.012" fill="#290000" d="M 485.5,292.5 C 486.833,293.167 486.833,293.167 485.5,292.5 Z"/></g>
<g><path style="opacity:0.012" fill="#250000" d="M 251.5,301.5 C 252.622,303.288 252.789,305.288 252,307.5C 251.505,305.527 251.338,303.527 251.5,301.5 Z"/></g>
<g><path style="opacity:1" fill="#f6f6f6" d="M 407.5,315.5 C 400.157,317.558 392.823,319.725 385.5,322C 374.167,322.667 362.833,322.667 351.5,322C 347.6,320.435 343.934,318.435 340.5,316C 336.93,314.69 333.263,313.857 329.5,313.5C 327.983,311.064 328.316,308.898 330.5,307C 335.444,306.002 340.444,305.502 345.5,305.5C 366.191,305.97 386.857,306.803 407.5,308C 410.086,310.494 410.086,312.994 407.5,315.5 Z"/></g>
<g><path style="opacity:1" fill="#1d140d" d="M 407.5,315.5 C 410.086,312.994 410.086,310.494 407.5,308C 386.857,306.803 366.191,305.97 345.5,305.5C 340.444,305.502 335.444,306.002 330.5,307C 328.316,308.898 327.983,311.064 329.5,313.5C 325.691,313.209 324.024,311.376 324.5,308C 329.644,305.73 334.978,304.063 340.5,303C 353.018,303.085 365.518,302.918 378,302.5C 392.182,302.47 406.015,304.637 419.5,309C 416.385,309.552 414.052,311.219 412.5,314C 410.975,315.009 409.308,315.509 407.5,315.5 Z"/></g>
<g><path style="opacity:0.004" fill="#0e0000" d="M 480.5,312.5 C 481.598,313.601 481.765,314.934 481,316.5C 480.51,315.207 480.343,313.873 480.5,312.5 Z"/></g>
<g><path style="opacity:0.004" fill="#150000" d="M 479.5,317.5 C 480.525,317.897 480.692,318.563 480,319.5C 479.536,318.906 479.369,318.239 479.5,317.5 Z"/></g>
<g><path style="opacity:0.004" fill="#150000" d="M 255.5,320.5 C 255.5,321.167 255.5,321.833 255.5,322.5C 254.167,321.833 254.167,321.167 255.5,320.5 Z"/></g>
<g><path style="opacity:1" fill="#201915" d="M 329.5,313.5 C 333.263,313.857 336.93,314.69 340.5,316C 343.934,318.435 347.6,320.435 351.5,322C 362.833,322.667 374.167,322.667 385.5,322C 392.823,319.725 400.157,317.558 407.5,315.5C 389.94,326.418 370.94,329.585 350.5,325C 345.956,323.118 341.956,320.451 338.5,317C 335.282,316.1 332.282,314.933 329.5,313.5 Z"/></g>
<g><path style="opacity:0.012" fill="#210000" d="M 479.5,324.5 C 479.369,323.761 479.536,323.094 480,322.5C 480.692,323.437 480.525,324.103 479.5,324.5 Z"/></g>
<g><path style="opacity:0.012" fill="#240000" d="M 478.5,324.5 C 478.833,324.5 479.167,324.5 479.5,324.5C 479.768,326.099 479.434,327.432 478.5,328.5C 478.5,327.167 478.5,325.833 478.5,324.5 Z"/></g>
<g><path style="opacity:0.012" fill="#240000" d="M 477.5,328.5 C 477.833,328.5 478.167,328.5 478.5,328.5C 478.768,330.099 478.434,331.432 477.5,332.5C 477.5,331.167 477.5,329.833 477.5,328.5 Z"/></g>
<g><path style="opacity:0.012" fill="#230000" d="M 255.5,322.5 C 255.833,322.5 256.167,322.5 256.5,322.5C 256.167,337.167 255.833,337.167 255.5,322.5 Z"/></g>
<g><path style="opacity:0.012" fill="#290000" d="M 476.5,332.5 C 476.833,332.5 477.167,332.5 477.5,332.5C 477.167,335.167 476.833,335.167 476.5,332.5 Z"/></g>
<g><path style="opacity:1" fill="#1a0b01" d="M 339.5,342.5 C 339.735,341.903 340.235,341.57 341,341.5C 359.82,345.36 378.654,345.36 397.5,341.5C 394.394,343.268 391.061,344.768 387.5,346C 386.122,347.713 384.455,349.047 382.5,350C 377.612,351.043 372.779,352.21 368,353.5C 362.396,352.713 356.896,351.546 351.5,350C 350.347,348.117 348.681,347.284 346.5,347.5C 345.514,344.24 343.181,342.573 339.5,342.5 Z"/></g>
<g><path style="opacity:1" fill="#83362a" d="M 468.5,393.5 C 464.451,396.384 461.284,400.051 459,404.5C 453.571,417.128 447.571,429.461 441,441.5C 427.25,459.295 409.083,469.128 386.5,471C 366.908,472.696 347.575,471.362 328.5,467C 313.931,461.764 303.097,452.264 296,438.5C 291.45,427.673 286.616,417.006 281.5,406.5C 280.167,405.5 278.833,404.5 277.5,403.5C 276.83,405.291 276.163,406.958 275.5,408.5C 275.846,395.153 276.513,381.82 277.5,368.5C 278.325,372.122 278.825,375.789 279,379.5C 279.333,379.167 279.667,378.833 280,378.5C 280.667,380.5 282,381.833 284,382.5C 285.136,386.243 286.47,389.91 288,393.5C 289.016,394.634 289.683,394.301 290,392.5C 292.657,395.147 294.823,398.147 296.5,401.5C 298.193,402.228 299.693,403.228 301,404.5C 305.517,409.569 309.017,415.235 311.5,421.5C 312.086,421.291 312.586,420.957 313,420.5C 316.72,422.638 320.22,425.138 323.5,428C 324.899,428.595 326.232,428.428 327.5,427.5C 331.622,429.312 335.789,430.979 340,432.5C 343.879,431.206 347.712,431.373 351.5,433C 351.167,433.333 350.833,433.667 350.5,434C 353.202,434.607 355.868,434.44 358.5,433.5C 360.623,434.312 362.79,434.978 365,435.5C 369.84,434.866 374.674,434.199 379.5,433.5C 382.988,435.331 386.655,435.831 390.5,435C 395.971,433.046 401.638,432.046 407.5,432C 409.547,430.927 411.547,429.761 413.5,428.5C 413.833,429.167 414.167,429.833 414.5,430.5C 417.672,428.748 420.672,426.748 423.5,424.5C 423.833,424.667 424.167,424.833 424.5,425C 422.095,426.615 422.095,427.281 424.5,427C 427.219,425.403 429.386,423.237 431,420.5C 431.718,421.451 432.551,421.617 433.5,421C 437.336,417.518 440.336,413.351 442.5,408.5C 443.192,409.025 443.692,409.692 444,410.5C 444.241,407.711 444.908,405.044 446,402.5C 448,401.833 449.333,400.5 450,398.5C 452.105,391.973 453.271,385.306 453.5,378.5C 454.5,378.5 455.5,378.5 456.5,378.5C 456.335,375.482 456.502,372.482 457,369.5C 458.803,365.488 459.803,365.822 460,370.5C 460.945,366.886 461.612,363.219 462,359.5C 463.011,358.663 464.178,358.33 465.5,358.5C 465.201,356.396 465.534,354.396 466.5,352.5C 467.381,366.16 468.048,379.827 468.5,393.5 Z"/></g>
<g><path style="opacity:1" fill="#9f4c34" d="M 468.5,393.5 C 469.234,405.271 470.734,416.938 473,428.5C 473.615,430.116 474.615,431.449 476,432.5C 476.182,429.774 476.682,427.107 477.5,424.5C 480.339,426.42 483.339,428.087 486.5,429.5C 492.054,456.41 489.054,482.41 477.5,507.5C 460.51,508.333 443.51,508.833 426.5,509C 418.883,510.644 411.883,513.644 405.5,518C 402.403,520.391 400.237,523.224 399,526.5C 405.861,518.985 414.361,514.485 424.5,513C 441.177,512.167 457.843,512.334 474.5,513.5C 466.309,528.868 455.643,542.368 442.5,554C 425.433,565.733 410.266,579.566 397,595.5C 394.928,598.971 393.428,602.638 392.5,606.5C 380.5,606.5 368.5,606.5 356.5,606.5C 355.572,602.638 354.072,598.971 352,595.5C 338.734,579.566 323.567,565.733 306.5,554C 293.205,542.567 282.871,529.067 275.5,513.5C 293.17,513.333 310.836,513.5 328.5,514C 336.754,515.876 343.921,519.709 350,525.5C 350.167,525.167 350.333,524.833 350.5,524.5C 344.598,517.713 337.265,513.213 328.5,511C 309.636,509.893 290.803,509.059 272,508.5C 261.952,486.588 257.952,463.588 260,439.5C 259.198,432.088 262.198,427.088 269,424.5C 269.452,427.877 270.118,431.211 271,434.5C 271.915,433.672 272.581,432.672 273,431.5C 274.367,423.908 275.2,416.242 275.5,408.5C 276.163,406.958 276.83,405.291 277.5,403.5C 278.833,404.5 280.167,405.5 281.5,406.5C 286.616,417.006 291.45,427.673 296,438.5C 303.097,452.264 313.931,461.764 328.5,467C 347.575,471.362 366.908,472.696 386.5,471C 409.083,469.128 427.25,459.295 441,441.5C 447.571,429.461 453.571,417.128 459,404.5C 461.284,400.051 464.451,396.384 468.5,393.5 Z"/></g>
<g><path style="opacity:0.012" fill="#1f0000" d="M 268.5,408.5 C 268.5,411.5 268.5,414.5 268.5,417.5C 267.833,417.5 267.167,417.5 266.5,417.5C 267.088,414.39 267.755,411.39 268.5,408.5 Z"/></g>
<g><path style="opacity:0.004" fill="#1b0000" d="M 477.5,417.5 C 477.511,414.999 478.178,414.832 479.5,417C 478.906,417.464 478.239,417.631 477.5,417.5 Z"/></g>
<g><path style="opacity:1" fill="#f5b50f" d="M 352.5,606.5 C 347.5,606.5 342.5,606.5 337.5,606.5C 337.509,604.692 337.009,603.025 336,601.5C 324.075,583.575 308.909,569.075 290.5,558C 274.678,543.536 263.512,526.036 257,505.5C 248.976,479.786 245.143,453.453 245.5,426.5C 247.593,424.233 250.259,422.9 253.5,422.5C 255.029,422.529 256.196,423.196 257,424.5C 248.612,487.877 270.779,537.377 323.5,573C 335.56,582.217 345.226,593.384 352.5,606.5 Z"/></g>
<g><path style="opacity:1" fill="#f5b50d" d="M 502.5,445.5 C 501.954,481.799 491.454,514.799 471,544.5C 461.373,555.21 450.539,564.377 438.5,572C 427.792,581.195 418.792,591.695 411.5,603.5C 410.094,603.973 409.427,604.973 409.5,606.5C 405.167,606.5 400.833,606.5 396.5,606.5C 399.048,601.117 402.214,596.117 406,591.5C 416.949,580.211 428.783,570.044 441.5,561C 483.399,524.988 500.232,479.488 492,424.5C 495.135,423.201 498.301,423.201 501.5,424.5C 502.497,431.468 502.83,438.468 502.5,445.5 Z"/></g>
<g><path style="opacity:0.02" fill="#220500" d="M 516.5,424.5 C 516.897,423.475 517.563,423.308 518.5,424C 517.906,424.464 517.239,424.631 516.5,424.5 Z"/></g>
<g><path style="opacity:0.012" fill="#270100" d="M 519.5,425.5 C 519.897,424.475 520.563,424.308 521.5,425C 520.906,425.464 520.239,425.631 519.5,425.5 Z"/></g>
<g><path style="opacity:1" fill="#531c86" d="M 245.5,426.5 C 245.143,453.453 248.976,479.786 257,505.5C 263.512,526.036 274.678,543.536 290.5,558C 308.909,569.075 324.075,583.575 336,601.5C 337.009,603.025 337.509,604.692 337.5,606.5C 334.833,606.5 332.167,606.5 329.5,606.5C 322.828,596.318 314.828,587.151 305.5,579C 271.74,557.711 251.24,527.211 244,487.5C 239.968,468.375 237.801,449.042 237.5,429.5C 239.684,427.415 242.351,426.415 245.5,426.5 Z"/></g>
<g><path style="opacity:1" fill="#531c86" d="M 511.5,429.5 C 511.611,465.069 504.111,499.069 489,531.5C 482.74,542.839 474.907,553.006 465.5,562C 451.829,570.996 439.329,581.496 428,593.5C 424.944,597.716 422.111,602.049 419.5,606.5C 416.5,606.5 413.5,606.5 410.5,606.5C 411.11,605.609 411.443,604.609 411.5,603.5C 418.792,591.695 427.792,581.195 438.5,572C 450.539,564.377 461.373,555.21 471,544.5C 491.454,514.799 501.954,481.799 502.5,445.5C 503.49,439.355 503.823,433.022 503.5,426.5C 506.649,426.415 509.316,427.415 511.5,429.5 Z"/></g>
<g><path style="opacity:1" fill="#e2dfde" d="M 511.5,429.5 C 514.354,429.924 517.021,430.924 519.5,432.5C 520.981,451.715 519.481,470.715 515,489.5C 508.379,521.589 492.879,548.423 468.5,570C 453.622,579.378 441.622,591.544 432.5,606.5C 428.167,606.5 423.833,606.5 419.5,606.5C 422.111,602.049 424.944,597.716 428,593.5C 439.329,581.496 451.829,570.996 465.5,562C 474.907,553.006 482.74,542.839 489,531.5C 504.111,499.069 511.611,465.069 511.5,429.5 Z"/></g>
<g><path style="opacity:1" fill="#e2dfdf" d="M 237.5,429.5 C 237.801,449.042 239.968,468.375 244,487.5C 251.24,527.211 271.74,557.711 305.5,579C 314.828,587.151 322.828,596.318 329.5,606.5C 325.167,606.5 320.833,606.5 316.5,606.5C 311.56,597.047 304.893,588.88 296.5,582C 279.667,570.5 265.5,556.333 254,539.5C 235.234,506.351 226.901,470.684 229,432.5C 231.69,431.071 234.523,430.071 237.5,429.5 Z"/></g>
<g><path style="opacity:1" fill="#fdbb01" d="M 222.5,436.5 C 223.329,444.657 223.829,452.99 224,461.5C 224.21,463.058 224.71,464.391 225.5,465.5C 228.882,507.421 245.548,542.921 275.5,572C 289.624,581.291 301.624,592.791 311.5,606.5C 259.833,606.5 208.167,606.5 156.5,606.5C 154.342,591.084 153.009,575.584 152.5,560C 153.9,526.554 156.9,493.387 161.5,460.5C 165.446,458.01 169.78,456.176 174.5,455C 181.202,453.46 187.869,451.793 194.5,450C 204.008,445.745 213.341,441.245 222.5,436.5 Z"/></g>
<g><path style="opacity:1" fill="#fdbb00" d="M 586.5,459.5 C 592.011,504.671 594.178,550.004 593,595.5C 592.58,599.191 592.08,602.858 591.5,606.5C 540.167,606.5 488.833,606.5 437.5,606.5C 443.216,598.276 449.883,590.776 457.5,584C 475.425,572.075 489.925,556.909 501,538.5C 517.805,506.279 525.971,471.945 525.5,435.5C 534.888,440.861 544.554,445.694 554.5,450C 565.471,452.329 576.137,455.496 586.5,459.5 Z"/></g>
<g><path style="opacity:0.012" fill="#270100" d="M 557.5,444.5 C 557.897,443.475 558.563,443.308 559.5,444C 558.906,444.464 558.239,444.631 557.5,444.5 Z"/></g>
<g><path style="opacity:0.012" fill="#240000" d="M 564.5,445.5 C 563.127,445.657 561.793,445.49 560.5,445C 562.066,444.235 563.399,444.402 564.5,445.5 Z"/></g>
<g><path style="opacity:0.012" fill="#230100" d="M 564.5,445.5 C 565.873,445.343 567.207,445.51 568.5,446C 566.934,446.765 565.601,446.598 564.5,445.5 Z"/></g>
<g><path style="opacity:1" fill="#b88600" d="M 222.5,436.5 C 222.56,435.957 222.893,435.624 223.5,435.5C 224.333,445.496 225,455.496 225.5,465.5C 224.71,464.391 224.21,463.058 224,461.5C 223.829,452.99 223.329,444.657 222.5,436.5 Z"/></g>
<g><path style="opacity:1" fill="#e7e2e0" d="M 161.5,460.5 C 156.9,493.387 153.9,526.554 152.5,560C 153.009,575.584 154.342,591.084 156.5,606.5C 152.833,606.5 149.167,606.5 145.5,606.5C 144.387,583.853 144.22,561.186 145,538.5C 146.22,514.811 147.72,491.144 149.5,467.5C 153.492,465.17 157.492,462.837 161.5,460.5 Z"/></g>
<g><path style="opacity:1" fill="#e7e1de" d="M 586.5,459.5 C 590.172,462.338 594.172,464.671 598.5,466.5C 603.693,513.025 605.359,559.691 603.5,606.5C 599.5,606.5 595.5,606.5 591.5,606.5C 592.08,602.858 592.58,599.191 593,595.5C 594.178,550.004 592.011,504.671 586.5,459.5 Z"/></g>
<g><path style="opacity:0.02" fill="#220500" d="M 133.5,465.5 C 134.833,466.167 134.833,466.167 133.5,465.5 Z"/></g>
<g><path style="opacity:1" fill="#541d85" d="M 149.5,467.5 C 147.72,491.144 146.22,514.811 145,538.5C 144.22,561.186 144.387,583.853 145.5,606.5C 142.5,606.5 139.5,606.5 136.5,606.5C 135.124,562.757 136.458,519.09 140.5,475.5C 141.023,470.36 144.023,467.693 149.5,467.5 Z"/></g>
<g><path style="opacity:1" fill="#531b85" d="M 598.5,466.5 C 601.618,467.559 604.618,468.892 607.5,470.5C 611.924,515.696 613.59,561.03 612.5,606.5C 609.5,606.5 606.5,606.5 603.5,606.5C 605.359,559.691 603.693,513.025 598.5,466.5 Z"/></g>
<g><path style="opacity:1" fill="#f6b609" d="M 140.5,475.5 C 136.458,519.09 135.124,562.757 136.5,606.5C 132.833,606.5 129.167,606.5 125.5,606.5C 125.042,564.069 126.876,521.736 131,479.5C 132.528,474.799 135.695,472.132 140.5,471.5C 140.5,472.833 140.5,474.167 140.5,475.5 Z"/></g>
<g><path style="opacity:1" fill="#f7b710" d="M 607.5,470.5 C 613.109,471.609 616.609,474.942 618,480.5C 619.783,498.464 620.95,516.464 621.5,534.5C 621.476,547.689 622.143,560.689 623.5,573.5C 623.5,584.5 623.5,595.5 623.5,606.5C 619.833,606.5 616.167,606.5 612.5,606.5C 613.59,561.03 611.924,515.696 607.5,470.5 Z"/></g>
<g><path style="opacity:0.012" fill="#260000" d="M 624.5,479.5 C 623.833,479.5 623.5,479.167 623.5,478.5C 623.351,477.448 623.517,476.448 624,475.5C 624.465,476.931 625.299,478.097 626.5,479C 625.906,479.464 625.239,479.631 624.5,479.5 Z"/></g>
<g><path style="opacity:0.02" fill="#220500" d="M 631.5,482.5 C 632.833,483.167 632.833,483.167 631.5,482.5 Z"/></g>
<g><path style="opacity:0.012" fill="#290000" d="M 633.5,483.5 C 634.833,484.167 634.833,484.167 633.5,483.5 Z"/></g>
<g><path style="opacity:1" fill="#8d3d2b" d="M 120.5,606.5 C 117.5,606.5 114.5,606.5 111.5,606.5C 111.849,600.655 111.016,594.988 109,589.5C 103.527,580.22 98.86,570.553 95,560.5C 93.8549,555.201 93.5216,549.868 94,544.5C 99.6849,532.768 102.018,520.435 101,507.5C 100,505.5 99,503.5 98,501.5C 96.5557,499.845 94.7224,499.178 92.5,499.5C 103.863,497.15 114.53,492.817 124.5,486.5C 124.833,487.5 125.167,488.5 125.5,489.5C 122.419,528.433 120.753,567.433 120.5,606.5 Z"/></g>
<g><path style="opacity:1" fill="#8d3d2b" d="M 656.5,499.5 C 653.956,499.104 651.789,499.771 650,501.5C 646.666,508.467 645.666,515.8 647,523.5C 649.333,530.5 651.667,537.5 654,544.5C 654.776,551.3 654.109,557.967 652,564.5C 647.667,573.167 643.333,581.833 639,590.5C 637.038,595.656 636.205,600.989 636.5,606.5C 633.833,606.5 631.167,606.5 628.5,606.5C 628.621,568.415 626.955,530.415 623.5,492.5C 623.833,490.5 624.167,488.5 624.5,486.5C 634.509,492.827 645.176,497.16 656.5,499.5 Z"/></g>
<g><path style="opacity:0.012" fill="#280100" d="M 654.5,492.5 C 655.601,491.402 656.934,491.235 658.5,492C 657.207,492.49 655.873,492.657 654.5,492.5 Z"/></g>
<g><path style="opacity:0.012" fill="#290000" d="M 659.5,493.5 C 660.251,492.427 661.251,492.26 662.5,493C 661.552,493.483 660.552,493.649 659.5,493.5 Z"/></g>
<g><path style="opacity:1" fill="#a04c34" d="M 92.5,499.5 C 94.7224,499.178 96.5557,499.845 98,501.5C 99,503.5 100,505.5 101,507.5C 102.018,520.435 99.6849,532.768 94,544.5C 93.5216,549.868 93.8549,555.201 95,560.5C 98.86,570.553 103.527,580.22 109,589.5C 111.016,594.988 111.849,600.655 111.5,606.5C 76.1667,606.5 40.8333,606.5 5.5,606.5C 5.369,601.022 6.20233,595.689 8,590.5C 17.716,561.454 33.8826,536.621 56.5,516C 67.1304,507.518 79.1304,502.018 92.5,499.5 Z"/></g>
<g><path style="opacity:1" fill="#a04c34" d="M 656.5,499.5 C 666.813,501.655 676.479,505.488 685.5,511C 700.404,522.338 712.904,535.838 723,551.5C 734.344,568.181 741.177,586.515 743.5,606.5C 707.833,606.5 672.167,606.5 636.5,606.5C 636.205,600.989 637.038,595.656 639,590.5C 643.333,581.833 647.667,573.167 652,564.5C 654.109,557.967 654.776,551.3 654,544.5C 651.667,537.5 649.333,530.5 647,523.5C 645.666,515.8 646.666,508.467 650,501.5C 651.789,499.771 653.956,499.104 656.5,499.5 Z"/></g>
<g><path style="opacity:0.004" fill="#150100" d="M 693.5,509.5 C 694.497,508.287 695.497,508.454 696.5,510C 695.906,510.464 695.239,510.631 694.5,510.5C 693.833,510.5 693.5,510.167 693.5,509.5 Z"/></g>
<g><path style="opacity:0.004" fill="#180000" d="M 38.5,526.5 C 37.8333,526.5 37.5,526.833 37.5,527.5C 36.2875,526.503 36.4542,525.503 38,524.5C 38.4643,525.094 38.631,525.761 38.5,526.5 Z"/></g>
<g><path style="opacity:0.012" fill="#240000" d="M 712.5,528.5 C 711.833,528.5 711.5,528.167 711.5,527.5C 711.747,525.025 712.413,525.025 713.5,527.5C 713.376,528.107 713.043,528.44 712.5,528.5 Z"/></g>
<g><path style="opacity:0.02" fill="#200200" d="M 32.5,533.5 C 31.8333,533.5 31.5,533.833 31.5,534.5C 30.2875,533.503 30.4542,532.503 32,531.5C 32.4643,532.094 32.631,532.761 32.5,533.5 Z"/></g>
<g><path style="opacity:1" fill="#b28101" d="M 621.5,534.5 C 622.92,547.307 623.587,560.307 623.5,573.5C 622.143,560.689 621.476,547.689 621.5,534.5 Z"/></g>
<g><path style="opacity:0.012" fill="#210000" d="M 6.5,571.5 C 7.52502,571.897 7.69169,572.563 7,573.5C 6.53566,572.906 6.36899,572.239 6.5,571.5 Z"/></g>
<g><path style="opacity:0.012" fill="#290000" d="M 6.5,576.5 C 6.16667,576.5 5.83333,576.5 5.5,576.5C 5.83333,573.833 6.16667,573.833 6.5,576.5 Z"/></g>
<g><path style="opacity:0.012" fill="#290000" d="M 5.5,576.5 C 5.63101,577.239 5.46434,577.906 5,578.5C 4.30831,577.563 4.47498,576.897 5.5,576.5 Z"/></g>
<g><path style="opacity:0.012" fill="#210000" d="M -0.5,591.5 C 0.451145,592.919 0.784479,594.585 0.5,596.5C 0.166667,596.5 -0.166667,596.5 -0.5,596.5C -0.5,594.833 -0.5,593.167 -0.5,591.5 Z"/></g>
<g><path style="opacity:0.02" fill="#220300" d="M 749.5,591.5 C 749.5,592.833 749.5,594.167 749.5,595.5C 749.167,595.5 748.833,595.5 748.5,595.5C 748.232,593.901 748.566,592.568 749.5,591.5 Z"/></g>
<g><path style="opacity:1" fill="#d8c9c4" d="M 411.5,603.5 C 411.443,604.609 411.11,605.609 410.5,606.5C 410.167,606.5 409.833,606.5 409.5,606.5C 409.427,604.973 410.094,603.973 411.5,603.5 Z"/></g>
</svg>
