<?xml version="1.0" encoding="UTF-8"?>
<!DOCTYPE svg PUBLIC "-//W3C//DTD SVG 1.1//EN" "http://www.w3.org/Graphics/SVG/1.1/DTD/svg11.dtd">
<svg xmlns="http://www.w3.org/2000/svg" version="1.1" width="750px" height="602px" style="shape-rendering:geometricPrecision; text-rendering:geometricPrecision; image-rendering:optimizeQuality; fill-rule:evenodd; clip-rule:evenodd" xmlns:xlink="http://www.w3.org/1999/xlink">
<g><path style="opacity:0.961" fill="#1c0c01" d="M 398.5,-0.5 C 400.5,-0.5 402.5,-0.5 404.5,-0.5C 404.953,0.458367 405.619,1.2917 406.5,2C 409.539,2.3534 412.205,3.52006 414.5,5.5C 417.69,3.66981 421.023,3.83648 424.5,6C 425.742,9.29405 427.242,12.4607 429,15.5C 430.11,13.9632 431.61,13.2965 433.5,13.5C 433.216,15.4147 433.549,17.0813 434.5,18.5C 435.598,19.397 435.598,20.2303 434.5,21C 436.03,22.1203 437.697,22.9536 439.5,23.5C 439.56,24.0431 439.893,24.3764 440.5,24.5C 442.961,21.5773 444.628,21.9106 445.5,25.5C 444.427,26.2506 444.26,27.2506 445,28.5C 448,27.1667 451,27.1667 454,28.5C 454.483,27.552 454.649,26.552 454.5,25.5C 457.48,25.2411 459.313,26.5744 460,29.5C 460.333,28.8333 460.667,28.1667 461,27.5C 466.083,28.3071 471.25,28.8071 476.5,29C 456.5,29.6667 456.5,30.3333 476.5,31C 477.833,31.3333 479.167,31.6667 480.5,32C 481.252,32.6708 481.586,33.5041 481.5,34.5C 480.127,34.3433 478.793,34.51 477.5,35C 481.167,36 484.833,37 488.5,38C 490.747,39.995 491.747,42.495 491.5,45.5C 490.662,45.8417 490.328,46.5084 490.5,47.5C 489.167,48.5 489.167,49.5 490.5,50.5C 491.167,51.8333 491.833,51.8333 492.5,50.5C 497.798,47.4914 500.465,49.1581 500.5,55.5C 499.475,56.3739 498.808,57.5405 498.5,59C 500.713,61.0814 503.38,62.4147 506.5,63C 507.926,65.0454 508.926,67.2121 509.5,69.5C 509.67,70.8221 509.337,71.9887 508.5,73C 509.762,74.9269 510.762,74.7602 511.5,72.5C 512.167,72.5 512.5,72.1667 512.5,71.5C 514.5,71.5 515.5,72.5 515.5,74.5C 514.152,75.5268 513.652,76.8602 514,78.5C 514.995,77.9341 515.828,77.2674 516.5,76.5C 521.515,77.8436 523.515,81.1769 522.5,86.5C 521.833,86.5 521.5,86.8333 521.5,87.5C 520.833,87.5 520.5,87.8333 520.5,88.5C 519.167,88.8333 519.167,89.1667 520.5,89.5C 519.833,90.8333 518.833,91.8333 517.5,92.5C 517.167,89.8333 516.833,89.8333 516.5,92.5C 515.662,92.8417 515.328,93.5084 515.5,94.5C 514.833,94.5 514.5,94.8333 514.5,95.5C 513.833,95.5 513.5,95.8333 513.5,96.5C 512.167,96.8333 512.167,97.1667 513.5,97.5C 512.85,99.4352 512.517,101.435 512.5,103.5C 511.833,103.5 511.5,103.833 511.5,104.5C 510.167,104.833 510.167,105.167 511.5,105.5C 513.834,107.176 514.834,109.509 514.5,112.5C 513.662,112.842 513.328,113.508 513.5,114.5C 512.662,114.842 512.328,115.508 512.5,116.5C 511.662,116.842 511.328,117.508 511.5,118.5C 510.833,118.5 510.5,118.833 510.5,119.5C 509.508,119.328 508.842,119.662 508.5,120.5C 507.209,120.263 506.209,120.596 505.5,121.5C 504.209,121.263 503.209,121.596 502.5,122.5C 501.833,122.5 501.5,122.833 501.5,123.5C 500.833,123.5 500.5,123.833 500.5,124.5C 499.833,124.5 499.5,124.833 499.5,125.5C 498.833,125.5 498.5,125.833 498.5,126.5C 497.662,126.842 497.328,127.508 497.5,128.5C 496.662,128.842 496.328,129.508 496.5,130.5C 495.549,131.919 495.216,133.585 495.5,135.5C 494.539,137.265 494.205,139.265 494.5,141.5C 494.303,157.984 494.303,174.651 494.5,191.5C 493.532,193.607 493.198,195.941 493.5,198.5C 492.566,199.568 492.232,200.901 492.5,202.5C 491.262,204.214 490.595,206.214 490.5,208.5C 489.596,209.209 489.263,210.209 489.5,211.5C 490.492,211.672 491.158,211.338 491.5,210.5C 492.167,210.5 492.5,210.167 492.5,209.5C 493.492,209.672 494.158,209.338 494.5,208.5C 498.219,208.002 501.553,208.836 504.5,211C 506.585,213.682 508.252,216.516 509.5,219.5C 510.624,224.814 510.624,230.148 509.5,235.5C 508.566,236.568 508.232,237.901 508.5,239.5C 507.566,240.568 507.232,241.901 507.5,243.5C 506.239,246.258 505.406,249.258 505,252.5C 503.833,264.848 502.666,277.181 501.5,289.5C 499.808,291.205 498.475,293.205 497.5,295.5C 496.508,295.328 495.842,295.662 495.5,296.5C 494.833,296.5 494.5,296.833 494.5,297.5C 493.209,297.263 492.209,297.596 491.5,298.5C 488.794,298.425 486.127,298.092 483.5,297.5C 481.351,294.666 480.351,294.999 480.5,298.5C 479.532,300.607 479.198,302.941 479.5,305.5C 478.539,307.265 478.205,309.265 478.5,311.5C 477.539,313.265 477.205,315.265 477.5,317.5C 476.549,318.919 476.216,320.585 476.5,322.5C 475.549,323.919 475.216,325.585 475.5,327.5C 474.566,328.568 474.232,329.901 474.5,331.5C 473.596,332.209 473.263,333.209 473.5,334.5C 472.596,335.209 472.263,336.209 472.5,337.5C 471.662,337.842 471.328,338.508 471.5,339.5C 470.596,340.209 470.263,341.209 470.5,342.5C 469.662,342.842 469.328,343.508 469.5,344.5C 468.662,344.842 468.328,345.508 468.5,346.5C 467.662,346.842 467.328,347.508 467.5,348.5C 466.833,348.5 466.5,348.833 466.5,349.5C 465.662,349.842 465.328,350.508 465.5,351.5C 463.148,370.842 463.148,390.175 465.5,409.5C 471.887,413.357 478.721,416.357 486,418.5C 488.408,414.963 491.741,413.296 496,413.5C 502.246,415.193 508.413,417.193 514.5,419.5C 519.311,422.07 524.311,424.403 529.5,426.5C 536.686,431.261 544.353,435.261 552.5,438.5C 554.792,440.267 557.458,441.267 560.5,441.5C 564.575,443.118 568.908,444.118 573.5,444.5C 587.201,450.31 600.868,456.476 614.5,463C 618.594,466.045 621.594,469.878 623.5,474.5C 629.746,479.458 636.746,483.124 644.5,485.5C 646.102,487.074 648.102,487.741 650.5,487.5C 674.216,491.944 694.05,503.278 710,521.5C 728.317,541.799 741.15,565.132 748.5,591.5C 748.205,593.735 748.539,595.735 749.5,597.5C 749.5,598.833 749.5,600.167 749.5,601.5C 747.5,601.5 745.5,601.5 743.5,601.5C 741.344,583.866 735.51,567.532 726,552.5C 714.983,535.148 701.483,519.982 685.5,507C 675.976,500.901 665.643,497.068 654.5,495.5C 643.895,492.872 633.895,488.538 624.5,482.5C 624.167,484.5 623.833,486.5 623.5,488.5C 626.98,526.082 628.647,563.748 628.5,601.5C 626.833,601.5 625.167,601.5 623.5,601.5C 623.5,591.5 623.5,581.5 623.5,571.5C 623.558,558.642 622.891,545.975 621.5,533.5C 620.975,514.464 619.809,495.464 618,476.5C 616.707,471.374 613.54,468.04 608.5,466.5C 605.574,465.302 602.574,464.302 599.5,463.5C 595.535,461.182 591.535,458.848 587.5,456.5C 577.808,451.654 567.475,448.487 556.5,447C 545.888,442.361 535.554,437.194 525.5,431.5C 525.788,467.906 517.621,502.239 501,534.5C 490.26,552.574 476.093,567.408 458.5,579C 450.883,585.776 444.216,593.276 438.5,601.5C 436.833,601.5 435.167,601.5 433.5,601.5C 434.462,598.243 435.962,595.243 438,592.5C 447.648,581.51 458.482,572.01 470.5,564C 491.425,544.662 505.592,521.162 513,493.5C 518.468,472.163 520.802,450.496 520,428.5C 517.31,427.071 514.477,426.071 511.5,425.5C 508.995,423.989 506.328,422.655 503.5,421.5C 501.012,420.114 498.345,419.114 495.5,418.5C 493.971,418.529 492.804,419.196 492,420.5C 500.233,475.487 483.399,520.987 441.5,557C 428.448,566.379 416.282,576.879 405,588.5C 401.845,592.48 399.345,596.814 397.5,601.5C 395.833,601.5 394.167,601.5 392.5,601.5C 394.696,594.779 398.196,588.779 403,583.5C 413.617,572.543 425.117,562.71 437.5,554C 452.601,541.405 464.934,526.572 474.5,509.5C 457.843,508.334 441.177,508.167 424.5,509C 413.847,510.575 405.014,515.409 398,523.5C 400.637,518.517 404.47,514.35 409.5,511C 414.272,508.41 419.272,506.41 424.5,505C 441.833,504.667 459.167,504.333 476.5,504C 482.745,491.186 486.578,477.686 488,463.5C 488.9,450.452 488.567,437.452 487,424.5C 479.507,422.842 472.34,420.175 465.5,416.5C 465.09,421.065 465.757,425.565 467.5,430C 465.613,430.163 464.113,429.329 463,427.5C 459.626,418.854 458.126,409.854 458.5,400.5C 458.667,386.496 458.5,372.496 458,358.5C 455.407,360.549 452.907,362.715 450.5,365C 435.833,374.333 421.167,383.667 406.5,393C 386.954,396.765 367.287,397.431 347.5,395C 342.172,393.837 337.172,391.837 332.5,389C 322.181,381.173 311.514,373.839 300.5,367C 296.806,363.107 293.473,358.94 290.5,354.5C 289.501,369.152 289.167,383.818 289.5,398.5C 289.9,407.744 288.733,416.744 286,425.5C 285,426.5 284,427.5 283,428.5C 282.825,425.05 282.658,421.717 282.5,418.5C 274.922,421.209 267.756,424.542 261,428.5C 257.474,454.105 260.808,478.772 271,502.5C 286.596,504.311 302.43,505.144 318.5,505C 331.463,505.649 342.129,510.816 350.5,520.5C 350.333,520.833 350.167,521.167 350,521.5C 343.204,514.853 335.038,511.02 325.5,510C 308.837,509.5 292.17,509.333 275.5,509.5C 284.253,526.774 296.253,541.608 311.5,554C 328.247,564.746 342.414,578.246 354,594.5C 355.411,596.65 356.245,598.984 356.5,601.5C 354.833,601.5 353.167,601.5 351.5,601.5C 349.317,596.473 346.483,591.807 343,587.5C 330.19,574.364 316.357,562.53 301.5,552C 263.928,515.952 249.095,472.119 257,420.5C 253.277,418.156 249.61,418.49 246,421.5C 245.501,426.489 245.334,431.489 245.5,436.5C 244.834,431.983 244.167,427.317 243.5,422.5C 241.22,423.136 239.22,424.136 237.5,425.5C 234.523,426.071 231.69,427.071 229,428.5C 226.717,468.033 235.717,504.699 256,538.5C 259,542.5 262,546.5 265,550.5C 280,564.167 295,577.833 310,591.5C 312.619,594.406 314.453,597.739 315.5,601.5C 313.833,601.5 312.167,601.5 310.5,601.5C 300.957,588.123 289.29,576.957 275.5,568C 246.589,540.006 230.089,505.839 226,465.5C 225.074,454.176 224.24,442.843 223.5,431.5C 208.277,440.778 191.944,447.278 174.5,451C 169.78,452.176 165.446,454.01 161.5,456.5C 157.492,458.837 153.492,461.17 149.5,463.5C 146.406,464.213 143.406,465.213 140.5,466.5C 135.889,467.944 132.722,470.944 131,475.5C 126.971,517.406 125.138,559.406 125.5,601.5C 123.833,601.5 122.167,601.5 120.5,601.5C 120.277,563.248 121.943,525.082 125.5,487C 125.167,485.5 124.833,484 124.5,482.5C 114.519,488.82 103.852,493.153 92.5,495.5C 79.1304,498.018 67.1304,503.518 56.5,512C 33.8826,532.621 17.716,557.454 8,586.5C 6.58399,591.412 5.75065,596.412 5.5,601.5C 3.5,601.5 1.5,601.5 -0.5,601.5C -0.5,600.167 -0.5,598.833 -0.5,597.5C 0.461384,595.735 0.794717,593.735 0.5,591.5C 5.76722,572.962 13.7672,555.629 24.5,539.5C 25.1667,539.5 25.5,539.167 25.5,538.5C 28.8024,534.191 32.1357,529.857 35.5,525.5C 36.1667,525.5 36.5,525.167 36.5,524.5C 52.5584,504.47 73.2251,492.136 98.5,487.5C 108.397,485.052 117.397,480.718 125.5,474.5C 126.875,470.911 128.875,467.744 131.5,465C 143.081,459.876 154.414,454.209 165.5,448C 175.92,445.25 186.253,442.25 196.5,439C 213.346,429.576 230.679,421.243 248.5,414C 253.307,412.842 257.64,413.676 261.5,416.5C 261.791,421.141 263.458,421.807 266.5,418.5C 272.23,416.929 277.563,414.596 282.5,411.5C 284.032,400.208 284.699,388.708 284.5,377C 284.671,364.63 284.005,352.464 282.5,340.5C 282.737,339.209 282.404,338.209 281.5,337.5C 281.737,336.209 281.404,335.209 280.5,334.5C 280.435,331.572 279.768,328.905 278.5,326.5C 277.162,313.454 275.495,300.454 273.5,287.5C 272.893,287.624 272.56,287.957 272.5,288.5C 271.833,288.5 271.5,288.833 271.5,289.5C 270.508,289.328 269.842,289.662 269.5,290.5C 268.508,290.328 267.842,290.662 267.5,291.5C 266.209,291.263 265.209,291.596 264.5,292.5C 262.833,292.5 261.167,292.5 259.5,292.5C 255.299,290.971 251.966,288.304 249.5,284.5C 249.454,271.151 248.954,257.818 248,244.5C 247.814,241.964 247.314,239.631 246.5,237.5C 246.562,227.4 247.562,217.4 249.5,207.5C 250.931,205.563 252.598,203.73 254.5,202C 256.81,201.503 259.143,201.337 261.5,201.5C 261.842,202.338 262.508,202.672 263.5,202.5C 263.783,203.289 264.283,203.956 265,204.5C 265.74,203.251 265.573,202.251 264.5,201.5C 264.806,198.615 264.473,195.948 263.5,193.5C 264.191,174.824 264.691,156.158 265,137.5C 264.626,135.509 263.793,133.842 262.5,132.5C 258.846,129.696 255.013,127.03 251,124.5C 250.205,121.811 249.705,119.144 249.5,116.5C 249.278,113.61 249.945,110.943 251.5,108.5C 250.691,106.929 250.357,105.262 250.5,103.5C 251.688,102.316 252.855,102.316 254,103.5C 254.844,101.537 254.344,100.204 252.5,99.5C 251.167,98.0665 249.667,96.7332 248,95.5C 247.51,94.2068 247.343,92.8734 247.5,91.5C 244.235,91.7009 241.569,90.5343 239.5,88C 239.833,87.6667 240.167,87.3333 240.5,87C 233.755,86.7557 230.089,83.2557 229.5,76.5C 230.128,74.7419 231.128,73.2419 232.5,72C 236.417,71.5382 239.75,70.0382 242.5,67.5C 243.404,66.791 243.737,65.791 243.5,64.5C 245.565,64.5172 247.565,64.8505 249.5,65.5C 249.5,66.1667 249.833,66.5 250.5,66.5C 250.833,67.8333 251.167,67.8333 251.5,66.5C 251.954,63.0549 253.288,59.8882 255.5,57C 251.5,53.3333 251.5,49.6667 255.5,46C 258.633,45.6075 261.633,44.7741 264.5,43.5C 266.055,43.722 267.389,44.3887 268.5,45.5C 269.167,45.1667 269.833,44.8333 270.5,44.5C 270.567,42.5756 270.9,40.5756 271.5,38.5C 272.086,38.7093 272.586,39.0426 273,39.5C 273.966,36.0349 276.132,33.7016 279.5,32.5C 279.64,25.3403 282.974,23.007 289.5,25.5C 291.939,22.8872 294.772,20.8872 298,19.5C 300.355,20.6924 302.188,22.359 303.5,24.5C 303.5,26.1667 303.5,27.8333 303.5,29.5C 304.496,29.4142 305.329,29.7476 306,30.5C 306.494,28.8659 306.66,27.1992 306.5,25.5C 307.906,25.0269 308.573,24.0269 308.5,22.5C 310.609,18.8884 313.276,15.7217 316.5,13C 320.809,11.7563 324.142,12.9229 326.5,16.5C 325.962,18.1172 325.629,19.7839 325.5,21.5C 324.833,21.5 324.5,21.8333 324.5,22.5C 323.427,23.2506 323.26,24.2506 324,25.5C 324.717,24.9558 325.217,24.2891 325.5,23.5C 326.167,23.5 326.5,23.1667 326.5,22.5C 327.338,22.1583 327.672,21.4916 327.5,20.5C 328.167,20.5 328.5,20.1667 328.5,19.5C 329.167,19.5 329.5,19.1667 329.5,18.5C 331.01,16.678 332.343,14.678 333.5,12.5C 334.167,12.5 334.5,12.1667 334.5,11.5C 340.633,5.90609 346.3,6.23942 351.5,12.5C 351.833,13.8333 352.167,13.8333 352.5,12.5C 354.698,12.1249 356.698,11.4582 358.5,10.5C 360.965,10.767 363.299,11.4336 365.5,12.5C 365.711,14.4241 366.377,14.7574 367.5,13.5C 370.097,13.2792 370.097,12.7792 367.5,12C 369.23,10.1476 370.396,10.3143 371,12.5C 372.333,9.83333 373.667,9.83333 375,12.5C 379.749,11.5083 384.582,10.8417 389.5,10.5C 388.264,4.5735 390.43,2.24016 396,3.5C 396.662,2.01608 397.496,0.682751 398.5,-0.5 Z M 365.5,12.5 C 366.167,12.8333 366.833,13.1667 367.5,13.5C 366.377,14.7574 365.711,14.4241 365.5,12.5 Z M 326.5,16.5 C 326.833,16.5 327.167,16.5 327.5,16.5C 327.5,17.5 327.5,18.5 327.5,19.5C 326.167,19.8333 326.167,20.1667 327.5,20.5C 327.672,21.4916 327.338,22.1583 326.5,22.5C 326.5,21.8333 326.167,21.5 325.5,21.5C 325.629,19.7839 325.962,18.1172 326.5,16.5 Z M 308.5,22.5 C 308.573,24.0269 307.906,25.0269 306.5,25.5C 306.5,24.8333 306.5,24.1667 306.5,23.5C 307.167,23.1667 307.833,22.8333 308.5,22.5 Z M 324.5,22.5 C 324.5,23.1667 324.833,23.5 325.5,23.5C 325.217,24.2891 324.717,24.9558 324,25.5C 323.26,24.2506 323.427,23.2506 324.5,22.5 Z M 303.5,24.5 C 303.833,24.5 304.167,24.5 304.5,24.5C 304.343,25.8734 304.51,27.2068 305,28.5C 305.232,27.2625 305.732,26.2625 306.5,25.5C 306.66,27.1992 306.494,28.8659 306,30.5C 305.329,29.7476 304.496,29.4142 303.5,29.5C 303.5,27.8333 303.5,26.1667 303.5,24.5 Z M 445.5,25.5 C 448.167,26.8333 450.833,26.8333 453.5,25.5C 453.833,25.5 454.167,25.5 454.5,25.5C 454.649,26.552 454.483,27.552 454,28.5C 451,27.1667 448,27.1667 445,28.5C 444.26,27.2506 444.427,26.2506 445.5,25.5 Z M 302.5,30.5 C 302.728,32.3547 302.061,33.1881 300.5,33C 301.066,32.0053 301.733,31.172 302.5,30.5 Z M 264.5,201.5 C 265.573,202.251 265.74,203.251 265,204.5C 264.283,203.956 263.783,203.289 263.5,202.5C 264.167,202.5 264.5,202.167 264.5,201.5 Z M 490.5,208.5 C 490.328,209.492 490.662,210.158 491.5,210.5C 491.158,211.338 490.492,211.672 489.5,211.5C 489.263,210.209 489.596,209.209 490.5,208.5 Z M 483.5,297.5 C 482.391,297.557 481.391,297.89 480.5,298.5C 480.351,294.999 481.351,294.666 483.5,297.5 Z M 261.5,416.5 C 262.82,417.942 264.486,418.608 266.5,418.5C 263.458,421.807 261.791,421.141 261.5,416.5 Z"/></g>
<g><path style="opacity:0.012" fill="#220100" d="M 387.5,4.5 C 388.451,5.91866 388.784,7.58533 388.5,9.5C 384.162,9.37808 383.828,9.04474 387.5,8.5C 387.5,7.16667 387.5,5.83333 387.5,4.5 Z"/></g>
<g><path style="opacity:0.004" fill="#000000" d="M 359.5,9.5 C 359.897,8.47498 360.563,8.30831 361.5,9C 360.906,9.46434 360.239,9.63101 359.5,9.5 Z"/></g>
<g><path style="opacity:0.012" fill="#1d0000" d="M 371.5,9.5 C 372.251,8.42654 373.251,8.25988 374.5,9C 373.552,9.48278 372.552,9.64945 371.5,9.5 Z"/></g>
<g><path style="opacity:0.012" fill="#220000" d="M 358.5,10.5 C 357.127,10.6567 355.793,10.49 354.5,10C 356.066,9.23502 357.399,9.40168 358.5,10.5 Z"/></g>
<g><path style="opacity:0.012" fill="#220000" d="M 362.5,10.5 C 362.897,9.47498 363.563,9.30831 364.5,10C 363.906,10.4643 363.239,10.631 362.5,10.5 Z"/></g>
<g><path style="opacity:0.02" fill="#1c0300" d="M 334.5,11.5 C 333.833,11.5 333.5,11.8333 333.5,12.5C 332.957,12.44 332.624,12.1067 332.5,11.5C 333.257,10.2267 333.923,10.2267 334.5,11.5 Z"/></g>
<g><path style="opacity:0.02" fill="#200700" d="M 352.5,12.5 C 352.167,12.5 351.833,12.5 351.5,12.5C 351.369,11.6236 351.702,10.9569 352.5,10.5C 353.463,10.9698 353.463,11.6365 352.5,12.5 Z"/></g>
<g><path style="opacity:0.012" fill="#220000" d="M 430.5,11.5 C 431.833,12.1667 431.833,12.1667 430.5,11.5 Z"/></g>
<g><path style="opacity:0.004" fill="#000000" d="M 432.5,11.5 C 433.833,12.1667 433.833,12.1667 432.5,11.5 Z"/></g>
<g><path style="opacity:0.012" fill="#1e0100" d="M 434.5,18.5 C 434.34,16.8008 434.506,15.1341 435,13.5C 435.78,15.3869 435.613,17.0536 434.5,18.5 Z"/></g>
<g><path style="opacity:0.012" fill="#220000" d="M 327.5,16.5 C 328.5,16.8333 329.167,17.5 329.5,18.5C 328.833,18.5 328.5,18.8333 328.5,19.5C 328.167,19.5 327.833,19.5 327.5,19.5C 327.5,18.5 327.5,17.5 327.5,16.5 Z"/></g>
<g><path style="opacity:0.012" fill="#1d0000" d="M 441.5,21.5 C 442.251,20.4265 443.251,20.2599 444.5,21C 443.552,21.4828 442.552,21.6495 441.5,21.5 Z"/></g>
<g><path style="opacity:0.004" fill="#000000" d="M 441.5,21.5 C 440.833,22.1667 440.833,22.1667 441.5,21.5 Z"/></g>
<g><path style="opacity:0.012" fill="#220000" d="M 440.5,22.5 C 439.833,23.1667 439.833,23.1667 440.5,22.5 Z"/></g>
<g><path style="opacity:0.004" fill="#000000" d="M 454.5,23.5 C 455.833,24.1667 455.833,24.1667 454.5,23.5 Z"/></g>
<g><path style="opacity:0.004" fill="#100000" d="M 456.5,24.5 C 456.897,23.475 457.563,23.3083 458.5,24C 457.906,24.4643 457.239,24.631 456.5,24.5 Z"/></g>
<g><path style="opacity:0.012" fill="#1d0400" d="M 306.5,23.5 C 306.5,24.1667 306.5,24.8333 306.5,25.5C 305.732,26.2625 305.232,27.2625 305,28.5C 304.51,27.2068 304.343,25.8734 304.5,24.5C 305.167,24.1667 305.833,23.8333 306.5,23.5 Z"/></g>
<g><path style="opacity:0.012" fill="#1f0000" d="M 453.5,25.5 C 450.833,26.8333 448.167,26.8333 445.5,25.5C 446.222,25.0825 446.722,24.4158 447,23.5C 448.754,25.25 450.921,25.9167 453.5,25.5 Z"/></g>
<g><path style="opacity:0.012" fill="#1f0000" d="M 481.5,34.5 C 482.222,34.0825 482.722,33.4158 483,32.5C 483.772,33.8491 484.939,34.6824 486.5,35C 484.613,35.7796 482.946,35.6129 481.5,34.5 Z"/></g>
<g><path style="opacity:0.012" fill="#1e0000" d="M 268.5,38.5 C 269.598,39.6009 269.765,40.9343 269,42.5C 268.51,41.2068 268.343,39.8734 268.5,38.5 Z"/></g>
<g><path style="opacity:0.012" fill="#1e0000" d="M 492.5,45.5 C 492.343,44.1266 492.51,42.7932 493,41.5C 493.765,43.0657 493.598,44.3991 492.5,45.5 Z"/></g>
<g><path style="opacity:0.02" fill="#210400" d="M 491.5,45.5 C 491.833,45.5 492.167,45.5 492.5,45.5C 492.672,46.4916 492.338,47.1583 491.5,47.5C 491.5,46.8333 491.5,46.1667 491.5,45.5 Z"/></g>
<g><path style="opacity:0.004" fill="#100000" d="M 495.5,47.5 C 495.897,46.475 496.563,46.3083 497.5,47C 496.906,47.4643 496.239,47.631 495.5,47.5 Z"/></g>
<g><path style="opacity:0.012" fill="#220000" d="M 493.5,47.5 C 494.833,48.1667 494.833,48.1667 493.5,47.5 Z"/></g>
<g><path style="opacity:0.02" fill="#180200" d="M 490.5,47.5 C 490.833,47.5 491.167,47.5 491.5,47.5C 491.557,48.609 491.89,49.609 492.5,50.5C 491.833,50.5 491.167,50.5 490.5,50.5C 490.5,49.5 490.5,48.5 490.5,47.5 Z"/></g>
<g><path style="opacity:0.02" fill="#1c0300" d="M 250.5,48.5 C 251.622,50.2884 251.789,52.2884 251,54.5C 250.505,52.5273 250.338,50.5273 250.5,48.5 Z"/></g>
<g><path style="opacity:0.02" fill="#1d0200" d="M 501.5,55.5 C 501.343,54.1266 501.51,52.7932 502,51.5C 502.765,53.0657 502.598,54.3991 501.5,55.5 Z"/></g>
<g><path style="opacity:0.004" fill="#100000" d="M 500.5,55.5 C 500.833,55.5 501.167,55.5 501.5,55.5C 501.167,58.1667 500.833,58.1667 500.5,55.5 Z"/></g>
<g><path style="opacity:0.012" fill="#1d0000" d="M 251.5,66.5 C 251.167,66.5 250.833,66.5 250.5,66.5C 249.833,66.5 249.5,66.1667 249.5,65.5C 250.185,63.5856 250.685,61.5856 251,59.5C 251.497,61.8098 251.663,64.1432 251.5,66.5 Z"/></g>
<g><path style="opacity:0.012" fill="#220100" d="M 242.5,67.5 C 240.354,67.3036 240.188,66.3036 242,64.5C 242.483,65.448 242.649,66.448 242.5,67.5 Z"/></g>
<g><path style="opacity:0.012" fill="#220000" d="M 509.5,69.5 C 509.34,67.8008 509.506,66.1341 510,64.5C 510.78,66.3869 510.613,68.0536 509.5,69.5 Z"/></g>
<g><path style="opacity:0.012" fill="#220000" d="M 512.5,70.5 C 512.897,69.475 513.563,69.3083 514.5,70C 513.906,70.4643 513.239,70.631 512.5,70.5 Z"/></g>
<g><path style="opacity:0.012" fill="#220100" d="M 512.5,70.5 C 512.5,70.8333 512.5,71.1667 512.5,71.5C 511.833,71.5 511.5,71.8333 511.5,72.5C 510.243,71.3774 510.576,70.7107 512.5,70.5 Z"/></g>
<g><path style="opacity:0.004" fill="#0c0100" d="M 516.5,76.5 C 515.662,76.1583 515.328,75.4916 515.5,74.5C 516.222,74.0825 516.722,73.4158 517,72.5C 517.374,73.4162 517.874,74.2496 518.5,75C 517.584,75.2784 516.918,75.7784 516.5,76.5 Z"/></g>
<g><path style="opacity:0.004" fill="#000000" d="M 227.5,75.5 C 228.525,75.8966 228.692,76.5632 228,77.5C 227.536,76.9056 227.369,76.2389 227.5,75.5 Z"/></g>
<g><path style="opacity:0.012" fill="#1d0000" d="M 228.5,78.5 C 229.573,79.2506 229.74,80.2506 229,81.5C 228.517,80.552 228.351,79.552 228.5,78.5 Z"/></g>
<g><path style="opacity:0.012" fill="#1f0100" d="M 523.5,86.5 C 523.338,84.4727 523.505,82.4727 524,80.5C 524.789,82.7116 524.622,84.7116 523.5,86.5 Z"/></g>
<g><path style="opacity:0.02" fill="#200700" d="M 522.5,86.5 C 522.833,86.5 523.167,86.5 523.5,86.5C 523.315,87.1701 522.981,87.1701 522.5,86.5 Z"/></g>
<g><path style="opacity:0.012" fill="#220000" d="M 521.5,87.5 C 521.833,87.5 522.167,87.5 522.5,87.5C 522.315,88.1701 521.981,88.1701 521.5,87.5 Z"/></g>
<g><path style="opacity:0.012" fill="#220000" d="M 520.5,88.5 C 520.833,88.5 521.167,88.5 521.5,88.5C 521.315,89.1701 520.981,89.1701 520.5,88.5 Z"/></g>
<g><path style="opacity:0.012" fill="#1f0100" d="M 243.5,93.5 C 244.209,92.596 245.209,92.2627 246.5,92.5C 246.649,93.552 246.483,94.552 246,95.5C 245.583,94.244 244.75,93.5774 243.5,93.5 Z"/></g>
<g><path style="opacity:0.004" fill="#0f0200" d="M 516.5,92.5 C 516.833,92.5 517.167,92.5 517.5,92.5C 517.672,93.4916 517.338,94.1583 516.5,94.5C 516.5,93.8333 516.5,93.1667 516.5,92.5 Z"/></g>
<g><path style="opacity:0.02" fill="#200700" d="M 515.5,94.5 C 515.833,94.5 516.167,94.5 516.5,94.5C 516.315,95.1701 515.981,95.1701 515.5,94.5 Z"/></g>
<g><path style="opacity:0.02" fill="#200700" d="M 514.5,95.5 C 514.833,95.5 515.167,95.5 515.5,95.5C 515.315,96.1701 514.981,96.1701 514.5,95.5 Z"/></g>
<g><path style="opacity:0.012" fill="#220000" d="M 513.5,96.5 C 513.833,96.5 514.167,96.5 514.5,96.5C 514.315,97.1701 513.981,97.1701 513.5,96.5 Z"/></g>
<g><path style="opacity:0.02" fill="#170400" d="M 252.5,99.5 C 253.368,101.892 252.701,102.059 250.5,100C 251.094,99.5357 251.761,99.369 252.5,99.5 Z"/></g>
<g><path style="opacity:0.012" fill="#220000" d="M 513.5,103.5 C 513.351,102.448 513.517,101.448 514,100.5C 514.74,101.749 514.573,102.749 513.5,103.5 Z"/></g>
<g><path style="opacity:0.012" fill="#220000" d="M 250.5,103.5 C 249.833,102.167 249.833,102.167 250.5,103.5 Z"/></g>
<g><path style="opacity:0.012" fill="#220100" d="M 512.5,103.5 C 512.833,103.5 513.167,103.5 513.5,103.5C 513.5,104.833 512.833,105.5 511.5,105.5C 511.5,105.167 511.5,104.833 511.5,104.5C 512.167,104.5 512.5,104.167 512.5,103.5 Z"/></g>
<g><path style="opacity:0.012" fill="#1e0000" d="M 249.5,103.5 C 249.657,104.873 249.49,106.207 249,107.5C 248.235,105.934 248.402,104.601 249.5,103.5 Z"/></g>
<g><path style="opacity:0.012" fill="#1e0000" d="M 515.5,112.5 C 515.343,111.127 515.51,109.793 516,108.5C 516.765,110.066 516.598,111.399 515.5,112.5 Z"/></g>
<g><path style="opacity:0.012" fill="#220000" d="M 514.5,112.5 C 514.833,112.5 515.167,112.5 515.5,112.5C 515.672,113.492 515.338,114.158 514.5,114.5C 514.5,113.833 514.5,113.167 514.5,112.5 Z"/></g>
<g><path style="opacity:0.012" fill="#1e0100" d="M 248.5,116.5 C 247.387,115.054 247.22,113.387 248,111.5C 248.494,113.134 248.66,114.801 248.5,116.5 Z"/></g>
<g><path style="opacity:0.012" fill="#220000" d="M 513.5,114.5 C 513.833,114.5 514.167,114.5 514.5,114.5C 514.672,115.492 514.338,116.158 513.5,116.5C 513.5,115.833 513.5,115.167 513.5,114.5 Z"/></g>
<g><path style="opacity:0.012" fill="#220000" d="M 248.5,116.5 C 248.833,116.5 249.167,116.5 249.5,116.5C 249.167,120.5 248.833,120.5 248.5,116.5 Z"/></g>
<g><path style="opacity:1" fill="#220f02" d="M 488.5,176.5 C 481.549,175.934 474.882,176.601 468.5,178.5C 467.002,169.248 465.835,159.915 465,150.5C 463.833,149.333 462.667,148.167 461.5,147C 456.155,145.331 450.822,143.665 445.5,142C 432.695,139.405 420.028,136.905 407.5,134.5C 425.557,133.85 443.223,131.016 460.5,126C 460.833,125.667 461.167,125.333 461.5,125C 460.167,124.833 458.833,124.667 457.5,124.5C 435.851,127.483 414.184,130.317 392.5,133C 366.028,132.126 340.028,135.126 314.5,142C 309.045,143.369 304.211,145.869 300,149.5C 297.897,154.976 296.73,160.642 296.5,166.5C 295.698,165.048 295.198,163.382 295,161.5C 287.106,163.449 278.939,164.116 270.5,163.5C 270.344,156.31 270.678,149.144 271.5,142C 271.731,132.407 267.398,125.907 258.5,122.5C 257.548,120.955 257.215,119.288 257.5,117.5C 337.501,117.333 417.501,117.5 497.5,118C 492.95,122.6 490.116,128.1 489,134.5C 488.5,148.496 488.333,162.496 488.5,176.5 Z"/></g>
<g><path style="opacity:0.004" fill="#100000" d="M 512.5,116.5 C 512.833,116.5 513.167,116.5 513.5,116.5C 513.672,117.492 513.338,118.158 512.5,118.5C 512.5,117.833 512.5,117.167 512.5,116.5 Z"/></g>
<g><path style="opacity:0.012" fill="#220000" d="M 511.5,118.5 C 511.833,118.5 512.167,118.5 512.5,118.5C 512.315,119.17 511.981,119.17 511.5,118.5 Z"/></g>
<g><path style="opacity:0.012" fill="#220000" d="M 510.5,119.5 C 510.833,119.5 511.167,119.5 511.5,119.5C 511.315,120.17 510.981,120.17 510.5,119.5 Z"/></g>
<g><path style="opacity:0.012" fill="#220000" d="M 247.5,120.5 C 248.525,120.897 248.692,121.563 248,122.5C 247.536,121.906 247.369,121.239 247.5,120.5 Z"/></g>
<g><path style="opacity:0.004" fill="#100000" d="M 508.5,121.5 C 508.5,121.167 508.5,120.833 508.5,120.5C 509.167,120.5 509.833,120.5 510.5,120.5C 510.158,121.338 509.492,121.672 508.5,121.5 Z"/></g>
<g><path style="opacity:0.012" fill="#220000" d="M 505.5,122.5 C 505.5,122.167 505.5,121.833 505.5,121.5C 506.5,121.5 507.5,121.5 508.5,121.5C 507.791,122.404 506.791,122.737 505.5,122.5 Z"/></g>
<g><path style="opacity:0.004" fill="#0c0100" d="M 502.5,123.5 C 502.5,123.167 502.5,122.833 502.5,122.5C 503.5,122.5 504.5,122.5 505.5,122.5C 504.791,123.404 503.791,123.737 502.5,123.5 Z"/></g>
<g><path style="opacity:0.02" fill="#200700" d="M 501.5,123.5 C 501.833,123.5 502.167,123.5 502.5,123.5C 502.315,124.17 501.981,124.17 501.5,123.5 Z"/></g>
<g><path style="opacity:0.02" fill="#200700" d="M 500.5,124.5 C 500.833,124.5 501.167,124.5 501.5,124.5C 501.315,125.17 500.981,125.17 500.5,124.5 Z"/></g>
<g><path style="opacity:0.004" fill="#170100" d="M 499.5,125.5 C 499.833,125.5 500.167,125.5 500.5,125.5C 500.573,127.027 499.906,128.027 498.5,128.5C 498.5,127.833 498.5,127.167 498.5,126.5C 499.167,126.5 499.5,126.167 499.5,125.5 Z"/></g>
<g><path style="opacity:0.012" fill="#220200" d="M 497.5,128.5 C 497.833,128.5 498.167,128.5 498.5,128.5C 498.672,129.492 498.338,130.158 497.5,130.5C 497.5,129.833 497.5,129.167 497.5,128.5 Z"/></g>
<g><path style="opacity:0.012" fill="#1b0000" d="M 496.5,130.5 C 496.833,130.5 497.167,130.5 497.5,130.5C 497.784,132.415 497.451,134.081 496.5,135.5C 496.5,133.833 496.5,132.167 496.5,130.5 Z"/></g>
<g><path style="opacity:1" fill="#6c3e2a" d="M 407.5,134.5 C 406.022,134.238 404.689,134.571 403.5,135.5C 413.813,155.167 413.979,174.834 404,194.5C 403.005,195.066 402.172,195.733 401.5,196.5C 400.833,196.5 400.167,196.5 399.5,196.5C 390.738,195.207 384.738,198.541 381.5,206.5C 379.615,208.795 379.115,211.462 380,214.5C 385.748,222.733 391.248,231.067 396.5,239.5C 399.423,241.456 402.757,243.622 406.5,246C 420.817,250.348 435.483,251.681 450.5,250C 454.805,249.097 458.639,247.263 462,244.5C 462.667,245.167 463.333,245.833 464,246.5C 465.158,255.038 464.492,263.371 462,271.5C 458.213,277.148 453.046,280.982 446.5,283C 440.538,287.435 437.038,293.269 436,300.5C 435.085,299.672 434.419,298.672 434,297.5C 434.736,303.499 434.569,309.499 433.5,315.5C 434.355,316.293 435.189,315.96 436,314.5C 438.669,330.331 432.836,342.164 418.5,350C 409.5,359.667 400.5,369.333 391.5,379C 388.833,380.667 386.167,382.333 383.5,384C 376.842,384.5 370.175,384.666 363.5,384.5C 359.44,384.515 355.44,384.015 351.5,383C 348.026,381.581 344.693,380.248 341.5,379C 348.502,384.667 356.502,387.833 365.5,388.5C 372.321,389.329 379.321,389.829 386.5,390C 375.839,390.5 365.172,390.667 354.5,390.5C 343.083,389.792 333.416,385.292 325.5,377C 305.256,368.082 292.089,352.916 286,331.5C 284.404,324.2 283.071,316.867 282,309.5C 280.653,291.741 278.653,274.074 276,256.5C 275.759,243.142 275.259,229.808 274.5,216.5C 274.049,199.406 280.549,185.74 294,175.5C 295.549,172.688 296.382,169.688 296.5,166.5C 296.73,160.642 297.897,154.976 300,149.5C 304.211,145.869 309.045,143.369 314.5,142C 340.028,135.126 366.028,132.126 392.5,133C 414.184,130.317 435.851,127.483 457.5,124.5C 458.833,124.667 460.167,124.833 461.5,125C 461.167,125.333 460.833,125.667 460.5,126C 443.223,131.016 425.557,133.85 407.5,134.5 Z"/></g>
<g><path style="opacity:0.004" fill="#0c0500" d="M 262.5,132.5 C 262.631,133.239 262.464,133.906 262,134.5C 261.308,133.563 261.475,132.897 262.5,132.5 Z"/></g>
<g><path style="opacity:0.012" fill="#1f0000" d="M 495.5,135.5 C 495.833,135.5 496.167,135.5 496.5,135.5C 496.795,137.735 496.461,139.735 495.5,141.5C 495.5,139.5 495.5,137.5 495.5,135.5 Z"/></g>
<g><path style="opacity:1" fill="#5e3222" d="M 407.5,134.5 C 420.028,136.905 432.695,139.405 445.5,142C 450.822,143.665 456.155,145.331 461.5,147C 462.667,148.167 463.833,149.333 465,150.5C 465.835,159.915 467.002,169.248 468.5,178.5C 471.835,182.675 475.002,187.008 478,191.5C 478.312,200.853 478.812,210.187 479.5,219.5C 479.313,221.564 478.813,223.564 478,225.5C 478.607,260.159 475.607,294.492 469,328.5C 465.443,341.796 458.277,352.629 447.5,361C 433.5,370 419.5,379 405.5,388C 400.322,389.798 394.989,390.798 389.5,391C 377.659,391.826 365.993,391.659 354.5,390.5C 365.172,390.667 375.839,390.5 386.5,390C 379.321,389.829 372.321,389.329 365.5,388.5C 375.212,388.786 384.879,388.286 394.5,387C 398.538,386.101 402.205,384.434 405.5,382C 391.613,385.375 377.613,386.208 363.5,384.5C 370.175,384.666 376.842,384.5 383.5,384C 386.167,382.333 388.833,380.667 391.5,379C 400.5,369.333 409.5,359.667 418.5,350C 432.836,342.164 438.669,330.331 436,314.5C 435.189,315.96 434.355,316.293 433.5,315.5C 434.569,309.499 434.736,303.499 434,297.5C 434.419,298.672 435.085,299.672 436,300.5C 437.038,293.269 440.538,287.435 446.5,283C 453.046,280.982 458.213,277.148 462,271.5C 464.492,263.371 465.158,255.038 464,246.5C 463.333,245.833 462.667,245.167 462,244.5C 458.639,247.263 454.805,249.097 450.5,250C 435.483,251.681 420.817,250.348 406.5,246C 402.757,243.622 399.423,241.456 396.5,239.5C 397.613,238.054 397.78,236.387 397,234.5C 393.811,226.784 389.144,220.117 383,214.5C 381.748,211.986 381.248,209.32 381.5,206.5C 384.738,198.541 390.738,195.207 399.5,196.5C 396.832,199.29 395.832,202.457 396.5,206C 411.167,206.333 425.833,206.667 440.5,207C 446.783,208.305 452.783,210.471 458.5,213.5C 459.568,211.813 459.401,210.146 458,208.5C 452.297,201.15 444.797,196.983 435.5,196C 424.148,195.31 412.815,195.477 401.5,196.5C 402.172,195.733 403.005,195.066 404,194.5C 413.979,174.834 413.813,155.167 403.5,135.5C 404.689,134.571 406.022,134.238 407.5,134.5 Z"/></g>
<g><path style="opacity:0.012" fill="#210100" d="M 494.5,141.5 C 494.833,141.5 495.167,141.5 495.5,141.5C 495.167,154.833 494.833,154.833 494.5,141.5 Z"/></g>
<g><path style="opacity:0.012" fill="#200000" d="M 262.5,149.5 C 263.657,157.656 263.823,165.99 263,174.5C 262.5,166.173 262.334,157.84 262.5,149.5 Z"/></g>
<g><path style="opacity:0.012" fill="#210000" d="M 495.5,152.5 C 496.66,164.993 496.827,177.66 496,190.5C 495.5,177.838 495.333,165.171 495.5,152.5 Z"/></g>
<g><path style="opacity:1" fill="#341a0b" d="M 296.5,166.5 C 296.382,169.688 295.549,172.688 294,175.5C 280.549,185.74 274.049,199.406 274.5,216.5C 269.47,199.264 268.137,181.598 270.5,163.5C 278.939,164.116 287.106,163.449 295,161.5C 295.198,163.382 295.698,165.048 296.5,166.5 Z"/></g>
<g><path style="opacity:1" fill="#361b0c" d="M 488.5,176.5 C 489.426,191.778 486.426,206.112 479.5,219.5C 478.812,210.187 478.312,200.853 478,191.5C 475.002,187.008 471.835,182.675 468.5,178.5C 474.882,176.601 481.549,175.934 488.5,176.5 Z"/></g>
<g><path style="opacity:0.012" fill="#180000" d="M 262.5,193.5 C 261.348,188.015 261.182,182.349 262,176.5C 262.499,182.157 262.666,187.824 262.5,193.5 Z"/></g>
<g><path style="opacity:0.012" fill="#1d0000" d="M 494.5,191.5 C 495.833,193.833 495.833,196.167 494.5,198.5C 494.5,196.167 494.5,193.833 494.5,191.5 Z"/></g>
<g><path style="opacity:1" fill="#1c0c01" d="M 356.5,201.5 C 356.586,202.496 356.252,203.329 355.5,204C 339.833,204.333 324.167,204.667 308.5,205C 303.401,206.133 298.568,207.966 294,210.5C 292.97,210.164 292.47,209.497 292.5,208.5C 293.933,206.481 295.267,204.314 296.5,202C 299.433,200.729 302.099,199.062 304.5,197C 308.232,195.031 312.232,194.031 316.5,194C 328.5,193.333 340.5,193.333 352.5,194C 354.495,196.157 355.828,198.657 356.5,201.5 Z"/></g>
<g><path style="opacity:0.012" fill="#200000" d="M 262.5,193.5 C 262.833,193.5 263.167,193.5 263.5,193.5C 264.036,196.698 263.369,199.365 261.5,201.5C 262.388,198.946 262.721,196.279 262.5,193.5 Z"/></g>
<g><path style="opacity:1" fill="#1b0b01" d="M 399.5,196.5 C 400.167,196.5 400.833,196.5 401.5,196.5C 412.815,195.477 424.148,195.31 435.5,196C 444.797,196.983 452.297,201.15 458,208.5C 459.401,210.146 459.568,211.813 458.5,213.5C 452.783,210.471 446.783,208.305 440.5,207C 425.833,206.667 411.167,206.333 396.5,206C 395.832,202.457 396.832,199.29 399.5,196.5 Z"/></g>
<g><path style="opacity:0.012" fill="#1e0000" d="M 493.5,198.5 C 493.833,198.5 494.167,198.5 494.5,198.5C 494.768,200.099 494.434,201.432 493.5,202.5C 493.5,201.167 493.5,199.833 493.5,198.5 Z"/></g>
<g><path style="opacity:0.02" fill="#1c0300" d="M 492.5,202.5 C 492.833,202.5 493.167,202.5 493.5,202.5C 493.167,206.5 492.833,206.5 492.5,202.5 Z"/></g>
<g><path style="opacity:1" fill="#5c3121" d="M 356.5,201.5 C 356.868,209.264 358.368,216.931 361,224.5C 362.369,229.437 361.203,233.604 357.5,237C 353.993,239.254 350.327,241.254 346.5,243C 339.5,243.667 332.5,243.667 325.5,243C 319.08,241.516 312.58,240.682 306,240.5C 298.182,241.533 290.348,242.033 282.5,242C 286.846,238.988 290.512,235.321 293.5,231C 288.608,223.671 288.275,216.171 292.5,208.5C 292.47,209.497 292.97,210.164 294,210.5C 298.568,207.966 303.401,206.133 308.5,205C 324.167,204.667 339.833,204.333 355.5,204C 356.252,203.329 356.586,202.496 356.5,201.5 Z"/></g>
<g><path style="opacity:0.02" fill="#210400" d="M 249.5,207.5 C 249.167,207.5 248.833,207.5 248.5,207.5C 248.833,204.833 249.167,204.833 249.5,207.5 Z"/></g>
<g><path style="opacity:0.012" fill="#1f0100" d="M 494.5,208.5 C 493.508,208.328 492.842,208.662 492.5,209.5C 491.833,209.5 491.5,209.833 491.5,210.5C 490.662,210.158 490.328,209.492 490.5,208.5C 491.594,206.164 492.927,206.164 494.5,208.5 Z"/></g>
<g><path style="opacity:0.012" fill="#1e0000" d="M 248.5,207.5 C 248.657,208.873 248.49,210.207 248,211.5C 247.235,209.934 247.402,208.601 248.5,207.5 Z"/></g>
<g><path style="opacity:1" fill="#653926" d="M 495.5,214.5 C 499.145,213.68 501.478,215.013 502.5,218.5C 497.02,220.475 492.52,223.809 489,228.5C 486.651,233.198 484.318,237.864 482,242.5C 481.228,237.096 481.561,231.762 483,226.5C 487.669,222.997 491.836,218.997 495.5,214.5 Z"/></g>
<g><path style="opacity:1" fill="#1b0c01" d="M 305.5,223.5 C 310.914,217.962 317.58,214.795 325.5,214C 332.485,212.907 339.151,213.907 345.5,217C 331.463,214.799 318.13,216.966 305.5,223.5 Z"/></g>
<g><path style="opacity:1" fill="#190a00" d="M 415.5,214.5 C 428.448,213.096 440.115,216.263 450.5,224C 445.943,222.405 441.276,220.738 436.5,219C 427.5,216.193 418.5,216.027 409.5,218.5C 408.304,218.154 408.304,217.654 409.5,217C 411.611,216.155 413.611,215.322 415.5,214.5 Z"/></g>
<g><path style="opacity:0.012" fill="#1d0000" d="M 510.5,219.5 C 510.167,219.5 509.833,219.5 509.5,219.5C 509.833,215.5 510.167,215.5 510.5,219.5 Z"/></g>
<g><path style="opacity:1" fill="#663a26" d="M 256.5,210.5 C 255.402,209.603 255.402,208.77 256.5,208C 257.833,207.333 259.167,207.333 260.5,208C 262.645,211.312 265.312,214.146 268.5,216.5C 270.312,220.33 270.812,224.33 270,228.5C 267.193,221.214 262.693,215.214 256.5,210.5 Z"/></g>
<g><path style="opacity:1" fill="#1e110a" d="M 415.5,218.5 C 427.253,217.75 438.253,220.25 448.5,226C 449.357,226.689 450.023,227.522 450.5,228.5C 445.526,231.066 440.192,232.566 434.5,233C 423.076,233.862 411.743,233.195 400.5,231C 399.633,228.684 400.299,226.684 402.5,225C 406.657,222.255 410.99,220.088 415.5,218.5 Z"/></g>
<g><path style="opacity:0.012" fill="#1f0000" d="M 510.5,219.5 C 511.613,220.946 511.78,222.613 511,224.5C 510.506,222.866 510.34,221.199 510.5,219.5 Z"/></g>
<g><path style="opacity:1" fill="#c9c6c6" d="M 419.5,222.5 C 420.5,222.5 421.5,222.5 422.5,222.5C 422.5,223.5 422.5,224.5 422.5,225.5C 421.5,225.5 420.5,225.5 419.5,225.5C 419.5,224.5 419.5,223.5 419.5,222.5 Z"/></g>
<g><path style="opacity:1" fill="#cccac9" d="M 413.5,221.5 C 414.552,221.351 415.552,221.517 416.5,222C 415.212,224.466 415.212,226.966 416.5,229.5C 413.861,230.356 411.194,230.19 408.5,229C 407.941,228.275 407.608,227.442 407.5,226.5C 408.934,224.058 410.934,222.392 413.5,221.5 Z"/></g>
<g><path style="opacity:1" fill="#d1cfce" d="M 431.5,222.5 C 436.877,222.063 439.377,224.397 439,229.5C 436.242,231.073 433.408,231.407 430.5,230.5C 431.393,227.916 431.726,225.249 431.5,222.5 Z"/></g>
<g><path style="opacity:0.004" fill="#000000" d="M 511.5,225.5 C 512.573,226.251 512.74,227.251 512,228.5C 511.517,227.552 511.351,226.552 511.5,225.5 Z"/></g>
<g><path style="opacity:1" fill="#1c0c01" d="M 381.5,206.5 C 381.248,209.32 381.748,211.986 383,214.5C 389.144,220.117 393.811,226.784 397,234.5C 397.78,236.387 397.613,238.054 396.5,239.5C 391.248,231.067 385.748,222.733 380,214.5C 379.115,211.462 379.615,208.795 381.5,206.5 Z"/></g>
<g><path style="opacity:0.012" fill="#200100" d="M 245.5,237.5 C 244.353,233.354 244.186,229.02 245,224.5C 245.499,228.821 245.666,233.154 245.5,237.5 Z"/></g>
<g><path style="opacity:1" fill="#20130d" d="M 305.5,223.5 C 305.369,224.376 305.702,225.043 306.5,225.5C 317.999,218.373 330.333,216.206 343.5,219C 360.47,228.096 359.137,232.429 339.5,232C 327.952,233.244 316.619,232.244 305.5,229C 304.663,227.989 304.33,226.822 304.5,225.5C 303.448,225.649 302.448,225.483 301.5,225C 302.745,224.209 304.078,223.709 305.5,223.5 Z"/></g>
<g><path style="opacity:1" fill="#f0efef" d="M 347.5,226.5 C 345.713,228.141 343.546,229.141 341,229.5C 339.624,229.316 338.791,228.649 338.5,227.5C 339.434,226.432 339.768,225.099 339.5,223.5C 342.38,223.94 345.046,224.94 347.5,226.5 Z"/></g>
<g><path style="opacity:1" fill="#d0cecd" d="M 319.5,221.5 C 320.5,221.5 321.5,221.5 322.5,221.5C 322.704,224.518 323.037,227.518 323.5,230.5C 320.52,230.38 317.687,229.713 315,228.5C 314.333,227.167 314.333,225.833 315,224.5C 316.652,223.601 318.152,222.601 319.5,221.5 Z"/></g>
<g><path style="opacity:1" fill="#e9e7e7" d="M 327.5,221.5 C 329.465,221.948 329.798,222.948 328.5,224.5C 327.614,223.675 327.281,222.675 327.5,221.5 Z"/></g>
<g><path style="opacity:1" fill="#898582" d="M 347.5,226.5 C 345.046,224.94 342.38,223.94 339.5,223.5C 339.768,225.099 339.434,226.432 338.5,227.5C 338.5,225.167 338.5,222.833 338.5,220.5C 343.136,220.342 346.136,222.342 347.5,226.5 Z"/></g>
<g><path style="opacity:0.012" fill="#1c0000" d="M 510.5,235.5 C 510.338,233.473 510.505,231.473 511,229.5C 511.789,231.712 511.622,233.712 510.5,235.5 Z"/></g>
<g><path style="opacity:1" fill="#673a27" d="M 256.5,210.5 C 261.716,218.937 265.883,227.937 269,237.5C 271.194,251.769 272.527,266.103 273,280.5C 269.983,283.423 266.483,285.423 262.5,286.5C 257.024,286.023 254.358,283.023 254.5,277.5C 255.197,261.46 254.53,245.46 252.5,229.5C 252.568,223.928 253.234,218.428 254.5,213C 254.684,211.624 255.351,210.791 256.5,210.5 Z"/></g>
<g><path style="opacity:0.012" fill="#1e0100" d="M 509.5,235.5 C 509.833,235.5 510.167,235.5 510.5,235.5C 510.768,237.099 510.434,238.432 509.5,239.5C 509.5,238.167 509.5,236.833 509.5,235.5 Z"/></g>
<g><path style="opacity:0.012" fill="#1d0000" d="M 245.5,237.5 C 245.833,237.5 246.167,237.5 246.5,237.5C 246.167,246.833 245.833,246.833 245.5,237.5 Z"/></g>
<g><path style="opacity:0.02" fill="#180200" d="M 508.5,239.5 C 508.833,239.5 509.167,239.5 509.5,239.5C 509.768,241.099 509.434,242.432 508.5,243.5C 508.5,242.167 508.5,240.833 508.5,239.5 Z"/></g>
<g><path style="opacity:1" fill="#663927" d="M 500.5,220.5 C 501.675,220.281 502.675,220.614 503.5,221.5C 504.281,231.747 502.781,241.747 499,251.5C 498.258,263.2 497.258,274.867 496,286.5C 494.268,291.617 490.768,293.45 485.5,292C 481.812,289.458 480.146,285.958 480.5,281.5C 479.408,261.198 484.241,242.531 495,225.5C 496.73,223.598 498.563,221.931 500.5,220.5 Z"/></g>
<g><path style="opacity:0.02" fill="#1d0200" d="M 507.5,243.5 C 507.833,243.5 508.167,243.5 508.5,243.5C 508.167,248.833 507.833,248.833 507.5,243.5 Z"/></g>
<g><path style="opacity:0.012" fill="#210000" d="M 246.5,245.5 C 247.652,250.985 247.818,256.651 247,262.5C 246.501,256.843 246.334,251.176 246.5,245.5 Z"/></g>
<g><path style="opacity:1" fill="#5d3121" d="M 404.5,250.5 C 403.957,250.56 403.624,250.893 403.5,251.5C 406.441,255.944 409.941,259.944 414,263.5C 415.103,270.747 411.937,274.914 404.5,276C 406.134,276.494 407.801,276.66 409.5,276.5C 407.625,278.239 405.292,279.239 402.5,279.5C 394.916,277.153 388.25,278.653 382.5,284C 378.167,284.667 373.833,284.667 369.5,284C 365.664,281.916 361.997,279.583 358.5,277C 352.493,276.868 346.493,276.868 340.5,277C 339.177,276.184 338.511,275.017 338.5,273.5C 340.738,274.537 343.071,274.703 345.5,274C 339.016,272.202 336.849,268.035 339,261.5C 342.204,258.631 345.037,255.465 347.5,252C 347.272,251.601 346.938,251.435 346.5,251.5C 347.389,249.141 348.722,248.975 350.5,251C 351.264,253.069 351.764,255.236 352,257.5C 352.561,258.022 353.228,258.355 354,258.5C 355.929,255.642 358.096,252.976 360.5,250.5C 363.201,255.372 366.534,259.872 370.5,264C 380.585,268.234 389.752,266.734 398,259.5C 398.667,257.167 398.667,254.833 398,252.5C 396.589,250.35 395.755,248.016 395.5,245.5C 399.222,245.861 402.222,247.528 404.5,250.5 Z"/></g>
<g><path style="opacity:1" fill="#1d0d02" d="M 404.5,250.5 C 409.479,253.915 413.979,257.915 418,262.5C 418.979,269.549 416.146,274.216 409.5,276.5C 407.801,276.66 406.134,276.494 404.5,276C 411.937,274.914 415.103,270.747 414,263.5C 409.941,259.944 406.441,255.944 403.5,251.5C 403.624,250.893 403.957,250.56 404.5,250.5 Z"/></g>
<g><path style="opacity:0.012" fill="#200000" d="M 247.5,263.5 C 248.65,268.316 248.816,273.316 248,278.5C 247.501,273.511 247.334,268.511 247.5,263.5 Z"/></g>
<g><path style="opacity:1" fill="#1b0b01" d="M 346.5,251.5 C 346.938,251.435 347.272,251.601 347.5,252C 345.037,255.465 342.204,258.631 339,261.5C 336.849,268.035 339.016,272.202 345.5,274C 343.071,274.703 340.738,274.537 338.5,273.5C 334.76,270.401 333.593,266.401 335,261.5C 337.943,257.117 341.776,253.783 346.5,251.5 Z"/></g>
<g><path style="opacity:1" fill="#1b0b01" d="M 346.5,268.5 C 355.404,265.852 363.07,268.018 369.5,275C 372.366,276.457 375.366,276.79 378.5,276C 382.241,273.268 386.241,270.934 390.5,269C 395.589,268.174 400.589,268.508 405.5,270C 396.804,269.119 389.47,271.786 383.5,278C 375.173,282.117 368.173,280.45 362.5,273C 357.727,269.443 352.394,267.943 346.5,268.5 Z"/></g>
<g><path style="opacity:0.012" fill="#1e0000" d="M 247.5,279.5 C 248.598,280.601 248.765,281.934 248,283.5C 247.51,282.207 247.343,280.873 247.5,279.5 Z"/></g>
<g><path style="opacity:0.012" fill="#220000" d="M 249.5,284.5 C 248.833,285.167 248.833,285.167 249.5,284.5 Z"/></g>
<g><path style="opacity:0.012" fill="#220000" d="M 249.5,286.5 C 250.833,287.167 250.833,287.167 249.5,286.5 Z"/></g>
<g><path style="opacity:0.012" fill="#220000" d="M 501.5,289.5 C 502.525,289.897 502.692,290.563 502,291.5C 501.536,290.906 501.369,290.239 501.5,289.5 Z"/></g>
<g><path style="opacity:0.012" fill="#220000" d="M 269.5,291.5 C 269.5,291.167 269.5,290.833 269.5,290.5C 270.167,290.5 270.833,290.5 271.5,290.5C 271.158,291.338 270.492,291.672 269.5,291.5 Z"/></g>
<g><path style="opacity:0.012" fill="#1e0100" d="M 272.5,288.5 C 273.629,290.628 273.796,292.961 273,295.5C 272.802,293.618 272.302,291.952 271.5,290.5C 271.5,290.167 271.5,289.833 271.5,289.5C 272.167,289.5 272.5,289.167 272.5,288.5 Z"/></g>
<g><path style="opacity:0.012" fill="#220000" d="M 267.5,292.5 C 267.5,292.167 267.5,291.833 267.5,291.5C 268.167,291.5 268.833,291.5 269.5,291.5C 269.158,292.338 268.492,292.672 267.5,292.5 Z"/></g>
<g><path style="opacity:0.012" fill="#1c0100" d="M 259.5,292.5 C 258.749,293.573 257.749,293.74 256.5,293C 257.448,292.517 258.448,292.351 259.5,292.5 Z"/></g>
<g><path style="opacity:0.012" fill="#220000" d="M 264.5,293.5 C 264.5,293.167 264.5,292.833 264.5,292.5C 265.5,292.5 266.5,292.5 267.5,292.5C 266.791,293.404 265.791,293.737 264.5,293.5 Z"/></g>
<g><path style="opacity:1" fill="#1d0d02" d="M 418.5,301.5 C 418.083,302.124 417.416,302.457 416.5,302.5C 406.363,299.84 396.196,297.507 386,295.5C 382.324,295.731 378.657,296.065 375,296.5C 370.924,295.385 366.758,294.719 362.5,294.5C 354.611,295.132 346.777,296.132 339,297.5C 336.967,297.494 335.134,297.161 333.5,296.5C 341.43,295.767 349.097,293.934 356.5,291C 362.606,290.267 368.606,290.767 374.5,292.5C 381.218,291.005 387.885,291.172 394.5,293C 402.206,296.735 410.206,299.568 418.5,301.5 Z"/></g>
<g><path style="opacity:0.004" fill="#0c0000" d="M 264.5,293.5 C 263.399,294.598 262.066,294.765 260.5,294C 261.793,293.51 263.127,293.343 264.5,293.5 Z"/></g>
<g><path style="opacity:1" fill="#5e3425" d="M 418.5,301.5 C 421.919,302.374 425.252,303.54 428.5,305C 429.451,305.718 429.617,306.551 429,307.5C 427.601,308.227 426.101,308.727 424.5,309C 416.918,317.094 407.918,322.927 397.5,326.5C 382.103,328.12 366.77,327.787 351.5,325.5C 344.952,322.893 338.619,319.726 332.5,316C 328.532,311.846 324.698,307.679 321,303.5C 320.257,301.559 320.424,299.726 321.5,298C 325.466,297.172 329.466,296.672 333.5,296.5C 335.134,297.161 336.967,297.494 339,297.5C 346.777,296.132 354.611,295.132 362.5,294.5C 366.758,294.719 370.924,295.385 375,296.5C 378.657,296.065 382.324,295.731 386,295.5C 396.196,297.507 406.363,299.84 416.5,302.5C 417.416,302.457 418.083,302.124 418.5,301.5 Z"/></g>
<g><path style="opacity:0.012" fill="#220000" d="M 497.5,295.5 C 498.833,296.167 498.833,296.167 497.5,295.5 Z"/></g>
<g><path style="opacity:0.012" fill="#1b0000" d="M 495.5,297.5 C 495.5,297.167 495.5,296.833 495.5,296.5C 496.167,296.5 496.833,296.5 497.5,296.5C 497.158,297.338 496.492,297.672 495.5,297.5 Z"/></g>
<g><path style="opacity:0.012" fill="#220000" d="M 494.5,297.5 C 494.833,297.5 495.167,297.5 495.5,297.5C 495.315,298.17 494.981,298.17 494.5,297.5 Z"/></g>
<g><path style="opacity:0.012" fill="#1d0000" d="M 491.5,299.5 C 491.5,299.167 491.5,298.833 491.5,298.5C 492.5,298.5 493.5,298.5 494.5,298.5C 493.791,299.404 492.791,299.737 491.5,299.5 Z"/></g>
<g><path style="opacity:0.004" fill="#0e0000" d="M 491.5,299.5 C 490.054,300.613 488.387,300.78 486.5,300C 488.134,299.506 489.801,299.34 491.5,299.5 Z"/></g>
<g><path style="opacity:1" fill="#1c120b" d="M 355.5,301.5 C 368.164,301.987 380.831,302.487 393.5,303C 403.241,304.854 412.907,306.854 422.5,309C 418.808,308.996 415.475,309.996 412.5,312C 408.167,312.333 403.833,312.667 399.5,313C 387.495,317.746 375.162,318.746 362.5,316C 360.668,315.252 359.001,314.252 357.5,313C 348.421,310.634 339.421,308.301 330.5,306C 328.668,305.252 327.001,304.252 325.5,303C 335.607,304.936 345.607,304.436 355.5,301.5 Z"/></g>
<g><path style="opacity:0.012" fill="#1f0100" d="M 479.5,305.5 C 480.833,307.5 480.833,309.5 479.5,311.5C 479.5,309.5 479.5,307.5 479.5,305.5 Z"/></g>
<g><path style="opacity:1" fill="#f1f0f0" d="M 344.5,305.5 C 365.55,305.528 386.55,306.362 407.5,308C 408.337,309.011 408.67,310.178 408.5,311.5C 401.988,309.808 395.655,310.308 389.5,313C 377.422,314.682 365.755,313.349 354.5,309C 351.183,308.502 347.85,308.335 344.5,308.5C 344.5,307.5 344.5,306.5 344.5,305.5 Z"/></g>
<g><path style="opacity:0.02" fill="#1c0300" d="M 478.5,311.5 C 478.833,311.5 479.167,311.5 479.5,311.5C 479.795,313.735 479.461,315.735 478.5,317.5C 478.5,315.5 478.5,313.5 478.5,311.5 Z"/></g>
<g><path style="opacity:0.012" fill="#1f0000" d="M 477.5,317.5 C 477.833,317.5 478.167,317.5 478.5,317.5C 478.784,319.415 478.451,321.081 477.5,322.5C 477.5,320.833 477.5,319.167 477.5,317.5 Z"/></g>
<g><path style="opacity:0.012" fill="#1f0100" d="M 277.5,326.5 C 276.387,325.054 276.22,323.387 277,321.5C 277.494,323.134 277.66,324.801 277.5,326.5 Z"/></g>
<g><path style="opacity:0.012" fill="#1b0000" d="M 476.5,322.5 C 476.833,322.5 477.167,322.5 477.5,322.5C 477.784,324.415 477.451,326.081 476.5,327.5C 476.5,325.833 476.5,324.167 476.5,322.5 Z"/></g>
<g><path style="opacity:0.012" fill="#1e0100" d="M 277.5,326.5 C 277.833,326.5 278.167,326.5 278.5,326.5C 278.167,331.833 277.833,331.833 277.5,326.5 Z"/></g>
<g><path style="opacity:1" fill="#1a0b00" d="M 351.5,325.5 C 366.77,327.787 382.103,328.12 397.5,326.5C 390.407,330.189 382.74,331.855 374.5,331.5C 366.206,331.511 358.54,329.511 351.5,325.5 Z"/></g>
<g><path style="opacity:0.012" fill="#1e0000" d="M 475.5,327.5 C 475.833,327.5 476.167,327.5 476.5,327.5C 476.768,329.099 476.434,330.432 475.5,331.5C 475.5,330.167 475.5,328.833 475.5,327.5 Z"/></g>
<g><path style="opacity:0.02" fill="#1c0300" d="M 474.5,331.5 C 474.833,331.5 475.167,331.5 475.5,331.5C 475.737,332.791 475.404,333.791 474.5,334.5C 474.5,333.5 474.5,332.5 474.5,331.5 Z"/></g>
<g><path style="opacity:0.02" fill="#1c0300" d="M 280.5,334.5 C 280.5,335.5 280.5,336.5 280.5,337.5C 279.167,336.5 279.167,335.5 280.5,334.5 Z"/></g>
<g><path style="opacity:0.012" fill="#1c0100" d="M 473.5,334.5 C 473.833,334.5 474.167,334.5 474.5,334.5C 474.737,335.791 474.404,336.791 473.5,337.5C 473.5,336.5 473.5,335.5 473.5,334.5 Z"/></g>
<g><path style="opacity:0.012" fill="#220000" d="M 472.5,337.5 C 472.833,337.5 473.167,337.5 473.5,337.5C 473.672,338.492 473.338,339.158 472.5,339.5C 472.5,338.833 472.5,338.167 472.5,337.5 Z"/></g>
<g><path style="opacity:0.02" fill="#1c0300" d="M 280.5,337.5 C 280.833,337.5 281.167,337.5 281.5,337.5C 281.5,338.5 281.5,339.5 281.5,340.5C 280.596,339.791 280.263,338.791 280.5,337.5 Z"/></g>
<g><path style="opacity:0.012" fill="#160000" d="M 471.5,339.5 C 471.833,339.5 472.167,339.5 472.5,339.5C 472.737,340.791 472.404,341.791 471.5,342.5C 471.5,341.5 471.5,340.5 471.5,339.5 Z"/></g>
<g><path style="opacity:0.012" fill="#220200" d="M 470.5,342.5 C 470.833,342.5 471.167,342.5 471.5,342.5C 471.672,343.492 471.338,344.158 470.5,344.5C 470.5,343.833 470.5,343.167 470.5,342.5 Z"/></g>
<g><path style="opacity:0.004" fill="#0f0000" d="M 281.5,340.5 C 281.833,340.5 282.167,340.5 282.5,340.5C 282.167,356.5 281.833,356.5 281.5,340.5 Z"/></g>
<g><path style="opacity:0.012" fill="#220200" d="M 469.5,344.5 C 469.833,344.5 470.167,344.5 470.5,344.5C 470.672,345.492 470.338,346.158 469.5,346.5C 469.5,345.833 469.5,345.167 469.5,344.5 Z"/></g>
<g><path style="opacity:0.004" fill="#0f0200" d="M 468.5,346.5 C 468.833,346.5 469.167,346.5 469.5,346.5C 469.672,347.492 469.338,348.158 468.5,348.5C 468.5,347.833 468.5,347.167 468.5,346.5 Z"/></g>
<g><path style="opacity:0.012" fill="#220000" d="M 467.5,348.5 C 467.833,348.5 468.167,348.5 468.5,348.5C 468.315,349.17 467.981,349.17 467.5,348.5 Z"/></g>
<g><path style="opacity:0.012" fill="#220000" d="M 466.5,349.5 C 466.833,349.5 467.167,349.5 467.5,349.5C 467.672,350.492 467.338,351.158 466.5,351.5C 466.5,350.833 466.5,350.167 466.5,349.5 Z"/></g>
<g><path style="opacity:1" fill="#54291d" d="M 458.5,400.5 C 457.67,392.01 457.17,383.343 457,374.5C 450.428,378.402 444.428,383.069 439,388.5C 433.405,398.026 427.071,407.026 420,415.5C 404.27,427.854 386.27,433.854 366,433.5C 356.122,433.407 346.955,430.907 338.5,426C 329.455,413.411 320.289,400.911 311,388.5C 305.517,381.844 299.017,376.51 291.5,372.5C 290.833,381.324 290.167,389.991 289.5,398.5C 289.167,383.818 289.501,369.152 290.5,354.5C 293.473,358.94 296.806,363.107 300.5,367C 311.514,373.839 322.181,381.173 332.5,389C 337.172,391.837 342.172,393.837 347.5,395C 367.287,397.431 386.954,396.765 406.5,393C 421.167,383.667 435.833,374.333 450.5,365C 452.907,362.715 455.407,360.549 458,358.5C 458.5,372.496 458.667,386.496 458.5,400.5 Z"/></g>
<g><path style="opacity:0.012" fill="#1d0000" d="M 465.5,351.5 C 465.833,351.5 466.167,351.5 466.5,351.5C 466.167,382.167 465.833,382.167 465.5,351.5 Z"/></g>
<g><path style="opacity:0.012" fill="#210000" d="M 282.5,354.5 C 283.661,369.661 283.828,384.994 283,400.5C 282.5,385.17 282.333,369.837 282.5,354.5 Z"/></g>
<g><path style="opacity:1" fill="#6c3e2a" d="M 458.5,400.5 C 458.126,409.854 459.626,418.854 463,427.5C 464.113,429.329 465.613,430.163 467.5,430C 465.757,425.565 465.09,421.065 465.5,416.5C 472.34,420.175 479.507,422.842 487,424.5C 488.567,437.452 488.9,450.452 488,463.5C 486.578,477.686 482.745,491.186 476.5,504C 459.167,504.333 441.833,504.667 424.5,505C 419.272,506.41 414.272,508.41 409.5,511C 404.47,514.35 400.637,518.517 398,523.5C 405.014,515.409 413.847,510.575 424.5,509C 441.177,508.167 457.843,508.334 474.5,509.5C 464.934,526.572 452.601,541.405 437.5,554C 425.117,562.71 413.617,572.543 403,583.5C 398.196,588.779 394.696,594.779 392.5,601.5C 380.5,601.5 368.5,601.5 356.5,601.5C 356.245,598.984 355.411,596.65 354,594.5C 342.414,578.246 328.247,564.746 311.5,554C 296.253,541.608 284.253,526.774 275.5,509.5C 292.17,509.333 308.837,509.5 325.5,510C 335.038,511.02 343.204,514.853 350,521.5C 350.167,521.167 350.333,520.833 350.5,520.5C 342.129,510.816 331.463,505.649 318.5,505C 302.43,505.144 286.596,504.311 271,502.5C 260.808,478.772 257.474,454.105 261,428.5C 267.756,424.542 274.922,421.209 282.5,418.5C 282.658,421.717 282.825,425.05 283,428.5C 284,427.5 285,426.5 286,425.5C 288.733,416.744 289.9,407.744 289.5,398.5C 290.167,389.991 290.833,381.324 291.5,372.5C 299.017,376.51 305.517,381.844 311,388.5C 320.289,400.911 329.455,413.411 338.5,426C 346.955,430.907 356.122,433.407 366,433.5C 386.27,433.854 404.27,427.854 420,415.5C 427.071,407.026 433.405,398.026 439,388.5C 444.428,383.069 450.428,378.402 457,374.5C 457.17,383.343 457.67,392.01 458.5,400.5 Z"/></g>
<g><path style="opacity:0.004" fill="#000000" d="M 464.5,377.5 C 465.648,381.981 465.815,386.648 465,391.5C 464.501,386.845 464.334,382.179 464.5,377.5 Z"/></g>
<g><path style="opacity:1" fill="#1b0b01" d="M 363.5,384.5 C 377.613,386.208 391.613,385.375 405.5,382C 402.205,384.434 398.538,386.101 394.5,387C 384.879,388.286 375.212,388.786 365.5,388.5C 356.502,387.833 348.502,384.667 341.5,379C 344.693,380.248 348.026,381.581 351.5,383C 355.44,384.015 359.44,384.515 363.5,384.5 Z"/></g>
<g><path style="opacity:0.012" fill="#1a0100" d="M 465.5,409.5 C 465.334,404.489 465.501,399.489 466,394.5C 466.195,399.418 466.695,404.251 467.5,409C 466.906,409.464 466.239,409.631 465.5,409.5 Z"/></g>
<g><path style="opacity:0.012" fill="#1c0000" d="M 282.5,411.5 C 281.761,411.631 281.094,411.464 280.5,411C 281.288,407.924 281.788,404.758 282,401.5C 282.498,404.817 282.665,408.15 282.5,411.5 Z"/></g>
<g><path style="opacity:0.012" fill="#220000" d="M 514.5,419.5 C 514.897,418.475 515.563,418.308 516.5,419C 515.906,419.464 515.239,419.631 514.5,419.5 Z"/></g>
<g><path style="opacity:0.004" fill="#0f0200" d="M 517.5,420.5 C 517.897,419.475 518.563,419.308 519.5,420C 518.906,420.464 518.239,420.631 517.5,420.5 Z"/></g>
<g><path style="opacity:1" fill="#f6b60b" d="M 351.5,601.5 C 347.833,601.5 344.167,601.5 340.5,601.5C 340.573,599.973 339.906,598.973 338.5,598.5C 325.631,580.134 309.631,564.967 290.5,553C 271.98,535.47 259.48,514.303 253,489.5C 248.64,472.094 246.14,454.427 245.5,436.5C 245.334,431.489 245.501,426.489 246,421.5C 249.61,418.49 253.277,418.156 257,420.5C 249.095,472.119 263.928,515.952 301.5,552C 316.357,562.53 330.19,574.364 343,587.5C 346.483,591.807 349.317,596.473 351.5,601.5 Z"/></g>
<g><path style="opacity:1" fill="#f5b50e" d="M 503.5,421.5 C 505.043,456.92 498.21,490.587 483,522.5C 473.216,539.951 459.716,553.784 442.5,564C 429.655,573.559 418.988,585.059 410.5,598.5C 409.094,598.973 408.427,599.973 408.5,601.5C 404.833,601.5 401.167,601.5 397.5,601.5C 399.345,596.814 401.845,592.48 405,588.5C 416.282,576.879 428.448,566.379 441.5,557C 483.399,520.987 500.233,475.487 492,420.5C 492.804,419.196 493.971,418.529 495.5,418.5C 498.345,419.114 501.012,420.114 503.5,421.5 Z"/></g>
<g><path style="opacity:1" fill="#541c86" d="M 245.5,436.5 C 246.14,454.427 248.64,472.094 253,489.5C 259.48,514.303 271.98,535.47 290.5,553C 309.631,564.967 325.631,580.134 338.5,598.5C 338.557,599.609 338.89,600.609 339.5,601.5C 336.5,601.5 333.5,601.5 330.5,601.5C 319.239,584.739 304.906,571.239 287.5,561C 270.663,546.816 258.496,529.316 251,508.5C 241.428,481.667 236.928,454 237.5,425.5C 239.22,424.136 241.22,423.136 243.5,422.5C 244.167,427.317 244.834,431.983 245.5,436.5 Z"/></g>
<g><path style="opacity:1" fill="#531c86" d="M 503.5,421.5 C 506.328,422.655 508.995,423.989 511.5,425.5C 512.671,465.169 503.504,502.169 484,536.5C 477.18,545.319 469.68,553.485 461.5,561C 444.094,571.239 429.761,584.739 418.5,601.5C 415.5,601.5 412.5,601.5 409.5,601.5C 410.11,600.609 410.443,599.609 410.5,598.5C 418.988,585.059 429.655,573.559 442.5,564C 459.716,553.784 473.216,539.951 483,522.5C 498.21,490.587 505.043,456.92 503.5,421.5 Z"/></g>
<g><path style="opacity:0.02" fill="#200700" d="M 529.5,425.5 C 530.833,426.167 530.833,426.167 529.5,425.5 Z"/></g>
<g><path style="opacity:0.012" fill="#220000" d="M 531.5,426.5 C 532.833,427.167 532.833,427.167 531.5,426.5 Z"/></g>
<g><path style="opacity:1" fill="#e2dede" d="M 237.5,425.5 C 236.928,454 241.428,481.667 251,508.5C 258.496,529.316 270.663,546.816 287.5,561C 304.906,571.239 319.239,584.739 330.5,601.5C 325.5,601.5 320.5,601.5 315.5,601.5C 314.453,597.739 312.619,594.406 310,591.5C 295,577.833 280,564.167 265,550.5C 262,546.5 259,542.5 256,538.5C 235.717,504.699 226.717,468.033 229,428.5C 231.69,427.071 234.523,426.071 237.5,425.5 Z"/></g>
<g><path style="opacity:1" fill="#e2dfdf" d="M 511.5,425.5 C 514.477,426.071 517.31,427.071 520,428.5C 520.802,450.496 518.468,472.163 513,493.5C 505.592,521.162 491.425,544.662 470.5,564C 458.482,572.01 447.648,581.51 438,592.5C 435.962,595.243 434.462,598.243 433.5,601.5C 428.5,601.5 423.5,601.5 418.5,601.5C 429.761,584.739 444.094,571.239 461.5,561C 469.68,553.485 477.18,545.319 484,536.5C 503.504,502.169 512.671,465.169 511.5,425.5 Z"/></g>
<g><path style="opacity:1" fill="#fdba00" d="M 310.5,601.5 C 259.167,601.5 207.833,601.5 156.5,601.5C 154.538,580.215 154.038,558.882 155,537.5C 156.617,510.449 158.784,483.449 161.5,456.5C 165.446,454.01 169.78,452.176 174.5,451C 191.944,447.278 208.277,440.778 223.5,431.5C 224.24,442.843 225.074,454.176 226,465.5C 230.089,505.839 246.589,540.006 275.5,568C 289.29,576.957 300.957,588.123 310.5,601.5 Z"/></g>
<g><path style="opacity:1" fill="#fdba00" d="M 587.5,456.5 C 592.423,499.694 594.59,543.027 594,586.5C 593.711,591.613 592.878,596.613 591.5,601.5C 540.5,601.5 489.5,601.5 438.5,601.5C 444.216,593.276 450.883,585.776 458.5,579C 476.093,567.408 490.26,552.574 501,534.5C 517.621,502.239 525.788,467.906 525.5,431.5C 535.554,437.194 545.888,442.361 556.5,447C 567.475,448.487 577.808,451.654 587.5,456.5 Z"/></g>
<g><path style="opacity:0.02" fill="#210400" d="M 552.5,438.5 C 552.897,437.475 553.563,437.308 554.5,438C 553.906,438.464 553.239,438.631 552.5,438.5 Z"/></g>
<g><path style="opacity:0.012" fill="#220200" d="M 555.5,439.5 C 555.897,438.475 556.563,438.308 557.5,439C 556.906,439.464 556.239,439.631 555.5,439.5 Z"/></g>
<g><path style="opacity:0.012" fill="#220000" d="M 560.5,441.5 C 561.601,440.402 562.934,440.235 564.5,441C 563.207,441.49 561.873,441.657 560.5,441.5 Z"/></g>
<g><path style="opacity:0.012" fill="#1e0000" d="M 179.5,442.5 C 180.601,441.402 181.934,441.235 183.5,442C 182.207,442.49 180.873,442.657 179.5,442.5 Z"/></g>
<g><path style="opacity:0.012" fill="#1e0000" d="M 565.5,442.5 C 566.601,441.402 567.934,441.235 569.5,442C 568.207,442.49 566.873,442.657 565.5,442.5 Z"/></g>
<g><path style="opacity:0.012" fill="#220000" d="M 573.5,444.5 C 574.251,443.427 575.251,443.26 576.5,444C 575.552,444.483 574.552,444.649 573.5,444.5 Z"/></g>
<g><path style="opacity:0.012" fill="#1d0000" d="M 577.5,445.5 C 578.251,444.427 579.251,444.26 580.5,445C 579.552,445.483 578.552,445.649 577.5,445.5 Z"/></g>
<g><path style="opacity:1" fill="#e6e0df" d="M 587.5,456.5 C 591.535,458.848 595.535,461.182 599.5,463.5C 604.466,509.381 606.132,555.381 604.5,601.5C 600.167,601.5 595.833,601.5 591.5,601.5C 592.878,596.613 593.711,591.613 594,586.5C 594.59,543.027 592.423,499.694 587.5,456.5 Z"/></g>
<g><path style="opacity:1" fill="#e6e1df" d="M 161.5,456.5 C 158.784,483.449 156.617,510.449 155,537.5C 154.038,558.882 154.538,580.215 156.5,601.5C 152.5,601.5 148.5,601.5 144.5,601.5C 142.779,555.371 144.445,509.371 149.5,463.5C 153.492,461.17 157.492,458.837 161.5,456.5 Z"/></g>
<g><path style="opacity:1" fill="#521b85" d="M 149.5,463.5 C 144.445,509.371 142.779,555.371 144.5,601.5C 141.833,601.5 139.167,601.5 136.5,601.5C 134.491,556.401 135.824,511.401 140.5,466.5C 143.406,465.213 146.406,464.213 149.5,463.5 Z"/></g>
<g><path style="opacity:1" fill="#521b85" d="M 599.5,463.5 C 602.574,464.302 605.574,465.302 608.5,466.5C 613.076,511.405 614.409,556.405 612.5,601.5C 609.833,601.5 607.167,601.5 604.5,601.5C 606.132,555.381 604.466,509.381 599.5,463.5 Z"/></g>
<g><path style="opacity:1" fill="#f5b50f" d="M 140.5,466.5 C 135.824,511.401 134.491,556.401 136.5,601.5C 132.833,601.5 129.167,601.5 125.5,601.5C 125.138,559.406 126.971,517.406 131,475.5C 132.722,470.944 135.889,467.944 140.5,466.5 Z"/></g>
<g><path style="opacity:1" fill="#f7b60f" d="M 608.5,466.5 C 613.54,468.04 616.707,471.374 618,476.5C 619.809,495.464 620.975,514.464 621.5,533.5C 621.51,546.355 622.177,559.022 623.5,571.5C 623.5,581.5 623.5,591.5 623.5,601.5C 619.833,601.5 616.167,601.5 612.5,601.5C 614.409,556.405 613.076,511.405 608.5,466.5 Z"/></g>
<g><path style="opacity:0.012" fill="#1e0000" d="M 623.5,474.5 C 623.459,470.757 624.126,470.59 625.5,474C 624.906,474.464 624.239,474.631 623.5,474.5 Z"/></g>
<g><path style="opacity:1" fill="#5f3222" d="M 120.5,601.5 C 117.5,601.5 114.5,601.5 111.5,601.5C 111.795,595.989 110.962,590.656 109,585.5C 103.527,576.22 98.86,566.553 95,556.5C 93.9279,550.859 93.5946,545.193 94,539.5C 98.4301,530.822 100.93,521.655 101.5,512C 102.076,506.723 100.909,501.89 98,497.5C 96.5557,495.845 94.7224,495.178 92.5,495.5C 103.852,493.153 114.519,488.82 124.5,482.5C 124.833,484 125.167,485.5 125.5,487C 121.943,525.082 120.277,563.248 120.5,601.5 Z"/></g>
<g><path style="opacity:1" fill="#5f3222" d="M 654.5,495.5 C 651.708,495.452 649.875,496.785 649,499.5C 647.012,503.224 646.179,507.224 646.5,511.5C 647.122,520.205 649.289,528.539 653,536.5C 655.146,546.453 654.146,556.12 650,565.5C 646.333,572.167 642.667,578.833 639,585.5C 637.197,590.682 636.364,596.016 636.5,601.5C 633.833,601.5 631.167,601.5 628.5,601.5C 628.647,563.748 626.98,526.082 623.5,488.5C 623.833,486.5 624.167,484.5 624.5,482.5C 633.895,488.538 643.895,492.872 654.5,495.5 Z"/></g>
<g><path style="opacity:0.012" fill="#220200" d="M 644.5,485.5 C 644.897,484.475 645.563,484.308 646.5,485C 645.906,485.464 645.239,485.631 644.5,485.5 Z"/></g>
<g><path style="opacity:0.012" fill="#1d0000" d="M 98.5,486.5 C 99.2506,485.427 100.251,485.26 101.5,486C 100.552,486.483 99.552,486.649 98.5,486.5 Z"/></g>
<g><path style="opacity:0.012" fill="#1d0000" d="M 650.5,486.5 C 649.448,486.649 648.448,486.483 647.5,486C 648.749,485.26 649.749,485.427 650.5,486.5 Z"/></g>
<g><path style="opacity:0.012" fill="#220000" d="M 98.5,486.5 C 98.5,486.833 98.5,487.167 98.5,487.5C 93.1667,487.167 93.1667,486.833 98.5,486.5 Z"/></g>
<g><path style="opacity:0.012" fill="#220000" d="M 650.5,487.5 C 650.5,487.167 650.5,486.833 650.5,486.5C 655.833,486.833 655.833,487.167 650.5,487.5 Z"/></g>
<g><path style="opacity:0.012" fill="#1f0000" d="M 88.5,488.5 C 89.9464,487.387 91.6131,487.22 93.5,488C 91.8659,488.494 90.1992,488.66 88.5,488.5 Z"/></g>
<g><path style="opacity:0.012" fill="#1e0100" d="M 655.5,488.5 C 656.601,487.402 657.934,487.235 659.5,488C 658.207,488.49 656.873,488.657 655.5,488.5 Z"/></g>
<g><path style="opacity:1" fill="#6c3e2a" d="M 92.5,495.5 C 94.7224,495.178 96.5557,495.845 98,497.5C 100.909,501.89 102.076,506.723 101.5,512C 100.93,521.655 98.4301,530.822 94,539.5C 93.5946,545.193 93.9279,550.859 95,556.5C 98.86,566.553 103.527,576.22 109,585.5C 110.962,590.656 111.795,595.989 111.5,601.5C 76.1667,601.5 40.8333,601.5 5.5,601.5C 5.75065,596.412 6.58399,591.412 8,586.5C 17.716,557.454 33.8826,532.621 56.5,512C 67.1304,503.518 79.1304,498.018 92.5,495.5 Z"/></g>
<g><path style="opacity:1" fill="#6c3e2a" d="M 654.5,495.5 C 665.643,497.068 675.976,500.901 685.5,507C 701.483,519.982 714.983,535.148 726,552.5C 735.51,567.532 741.344,583.866 743.5,601.5C 707.833,601.5 672.167,601.5 636.5,601.5C 636.364,596.016 637.197,590.682 639,585.5C 642.667,578.833 646.333,572.167 650,565.5C 654.146,556.12 655.146,546.453 653,536.5C 649.289,528.539 647.122,520.205 646.5,511.5C 646.179,507.224 647.012,503.224 649,499.5C 649.875,496.785 651.708,495.452 654.5,495.5 Z"/></g>
<g><path style="opacity:0.012" fill="#1e0000" d="M 36.5,524.5 C 35.8333,524.5 35.5,524.833 35.5,525.5C 34.2875,524.503 34.4542,523.503 36,522.5C 36.4643,523.094 36.631,523.761 36.5,524.5 Z"/></g>
<g><path style="opacity:0.004" fill="#120100" d="M 25.5,538.5 C 24.8333,538.5 24.5,538.833 24.5,539.5C 23.2875,538.503 23.4542,537.503 25,536.5C 25.4643,537.094 25.631,537.761 25.5,538.5 Z"/></g>
<g><path style="opacity:1" fill="#b78501" d="M 621.5,533.5 C 622.891,545.975 623.558,558.642 623.5,571.5C 622.177,559.022 621.51,546.355 621.5,533.5 Z"/></g>
<g><path style="opacity:0.012" fill="#1e0000" d="M -0.5,587.5 C 0.434475,588.568 0.767809,589.901 0.5,591.5C 0.166667,591.5 -0.166667,591.5 -0.5,591.5C -0.5,590.167 -0.5,588.833 -0.5,587.5 Z"/></g>
<g><path style="opacity:0.012" fill="#1e0000" d="M 749.5,587.5 C 749.5,588.833 749.5,590.167 749.5,591.5C 749.167,591.5 748.833,591.5 748.5,591.5C 748.232,589.901 748.566,588.568 749.5,587.5 Z"/></g>
<g><path style="opacity:1" fill="#d9c4b8" d="M 338.5,598.5 C 339.906,598.973 340.573,599.973 340.5,601.5C 340.167,601.5 339.833,601.5 339.5,601.5C 338.89,600.609 338.557,599.609 338.5,598.5 Z"/></g>
<g><path style="opacity:1" fill="#dac9c1" d="M 410.5,598.5 C 410.443,599.609 410.11,600.609 409.5,601.5C 409.167,601.5 408.833,601.5 408.5,601.5C 408.427,599.973 409.094,598.973 410.5,598.5 Z"/></g>
</svg>
