<?xml version="1.0" encoding="UTF-8"?>
<!DOCTYPE svg PUBLIC "-//W3C//DTD SVG 1.1//EN" "http://www.w3.org/Graphics/SVG/1.1/DTD/svg11.dtd">
<svg xmlns="http://www.w3.org/2000/svg" version="1.1" width="750px" height="541px" style="shape-rendering:geometricPrecision; text-rendering:geometricPrecision; image-rendering:optimizeQuality; fill-rule:evenodd; clip-rule:evenodd" xmlns:xlink="http://www.w3.org/1999/xlink">
<g><path style="opacity:0.937" fill="#211408" d="M 743.5,540.5 C 741.833,540.5 740.167,540.5 738.5,540.5C 733.36,516.221 722.86,494.555 707,475.5C 698.756,465.254 689.256,456.42 678.5,449C 670.523,443.952 661.856,440.785 652.5,439.5C 647.371,437.741 642.038,436.241 636.5,435C 631.5,432.5 626.5,430 621.5,427.5C 620.935,446.534 621.768,465.534 624,484.5C 624.5,503.164 624.667,521.83 624.5,540.5C 623.167,540.5 621.833,540.5 620.5,540.5C 620.27,502.038 618.437,463.371 615,424.5C 614.225,416.222 609.725,411.222 601.5,409.5C 593.131,405.315 584.798,401.149 576.5,397C 566.728,394.712 557.061,392.046 547.5,389C 534.695,381.931 521.695,375.431 508.5,369.5C 507.791,368.596 506.791,368.263 505.5,368.5C 505.205,370.735 505.539,372.735 506.5,374.5C 506.999,414.154 496.499,450.488 475,483.5C 472,487.167 469,490.833 466,494.5C 454.769,504.737 443.269,514.571 431.5,524C 426.508,528.818 422.508,534.318 419.5,540.5C 418.167,540.5 416.833,540.5 415.5,540.5C 416.892,535.266 419.392,530.599 423,526.5C 431.515,517.837 440.682,510.004 450.5,503C 481.984,473.854 498.818,437.687 501,394.5C 501.667,385.167 501.667,375.833 501,366.5C 498.848,365.115 496.515,364.115 494,363.5C 491.717,363.949 490.217,365.283 489.5,367.5C 498.003,421.499 481.336,465.999 439.5,501C 423.046,511.288 409.379,524.454 398.5,540.5C 396.833,540.5 395.167,540.5 393.5,540.5C 399.785,529.701 407.785,520.201 417.5,512C 438.388,497.779 455.888,480.279 470,459.5C 471.411,457.35 472.245,455.016 472.5,452.5C 455.497,452.333 438.497,452.5 421.5,453C 412.445,454.443 404.945,458.609 399,465.5C 398.833,465.167 398.667,464.833 398.5,464.5C 404.64,457.861 411.973,453.028 420.5,450C 438.8,448.9 457.133,448.067 475.5,447.5C 487.51,422.661 490.843,396.661 485.5,369.5C 481.839,367.509 478.172,365.509 474.5,363.5C 474.167,364.667 473.833,365.833 473.5,367C 477.023,376.851 475.856,377.684 470,369.5C 466.984,350.943 465.151,332.276 464.5,313.5C 464.088,307.478 463.421,301.478 462.5,295.5C 455.406,308.095 445.739,318.261 433.5,326C 426.342,329.412 419.342,333.078 412.5,337C 377.825,350.117 345.158,346.45 314.5,326C 303.211,319.354 293.544,310.854 285.5,300.5C 284.501,316.152 284.167,331.819 284.5,347.5C 284.74,355.724 283.573,363.724 281,371.5C 275.567,377.065 274.567,376.398 278,369.5C 278.821,366.446 278.655,363.446 277.5,360.5C 273.13,363.366 268.63,366.032 264,368.5C 258.536,395.789 261.536,422.123 273,447.5C 289.093,448.325 305.259,448.825 321.5,449C 330.978,450.243 339.311,453.909 346.5,460C 341.323,458.046 335.99,456.046 330.5,454C 312.537,452.6 294.537,452.1 276.5,452.5C 280.184,461.699 285.351,470.032 292,477.5C 305.985,492.16 321.151,505.327 337.5,517C 344.89,523.874 350.89,531.708 355.5,540.5C 353.833,540.5 352.167,540.5 350.5,540.5C 339.288,524.122 325.288,510.622 308.5,500C 267.102,464.487 250.602,419.653 259,365.5C 255.299,363.484 251.632,363.818 248,366.5C 245.192,403.791 252.858,438.791 271,471.5C 277.088,481.158 284.255,489.991 292.5,498C 303.648,506.001 314.148,514.834 324,524.5C 328.249,529.236 331.416,534.569 333.5,540.5C 332.167,540.5 330.833,540.5 329.5,540.5C 326.366,534.41 322.366,528.91 317.5,524C 304.867,514.091 292.7,503.591 281,492.5C 259.289,465.395 246.956,434.395 244,399.5C 243.149,389.179 242.482,378.845 242,368.5C 229.662,374.252 217.495,380.419 205.5,387C 194.84,391.416 183.84,394.749 172.5,397C 164.948,400.608 157.614,404.441 150.5,408.5C 150.167,408.5 149.833,408.5 149.5,408.5C 142.87,409.888 138.036,413.555 135,419.5C 131.061,459.736 128.894,500.069 128.5,540.5C 127.167,540.5 125.833,540.5 124.5,540.5C 124.012,503.738 125.678,467.071 129.5,430.5C 129.167,429.167 128.833,427.833 128.5,426.5C 118.156,432.852 107.156,437.185 95.5,439.5C 83.7306,441.884 73.0639,446.718 63.5,454C 41.4978,473.198 25.3311,496.364 15,523.5C 13.0371,529.016 11.8704,534.683 11.5,540.5C 9.5,540.5 7.5,540.5 5.5,540.5C 11.2664,512.919 23.4331,488.585 42,467.5C 58.098,448.035 78.598,436.201 103.5,432C 112.753,429.29 121.253,425.123 129,419.5C 130.002,415.836 131.836,412.669 134.5,410C 145.135,405.234 155.468,399.901 165.5,394C 175.703,390.533 186.036,387.533 196.5,385C 213.59,376.122 230.923,367.788 248.5,360C 254.118,357.444 259.118,358.278 263.5,362.5C 268.506,359.999 273.173,356.999 277.5,353.5C 278.666,334.509 278.833,315.509 278,296.5C 274.616,280.122 271.783,263.622 269.5,247C 264.564,242.416 259.398,237.916 254,233.5C 252.667,230.833 251.333,228.167 250,225.5C 247.117,210.75 244.617,195.917 242.5,181C 242.654,175.569 243.821,170.403 246,165.5C 250.139,160.779 255.139,159.445 261,161.5C 259.558,145.572 259.225,129.572 260,113.5C 265.435,63.0768 291.269,27.5768 337.5,7C 366.762,-2.82313 394.762,0.176866 421.5,16C 459.558,36.9109 481.058,69.0775 486,112.5C 486.723,128.56 486.39,144.56 485,160.5C 487.633,158.84 490.466,158.34 493.5,159C 502.168,163.483 507.002,170.65 508,180.5C 509.975,197.597 507.309,213.931 500,229.5C 492.503,238.74 483.67,244.573 473.5,247C 472.822,258.926 471.155,270.759 468.5,282.5C 469.467,307.212 471.134,331.878 473.5,356.5C 477.113,358.89 480.946,360.89 485,362.5C 489.576,358.322 494.742,357.488 500.5,360C 518.077,367.788 535.41,376.122 552.5,385C 562.975,387.535 573.309,390.535 583.5,394C 593.221,399.527 603.221,404.527 613.5,409C 616.43,412.098 618.764,415.598 620.5,419.5C 634.081,428.753 649.081,434.587 665.5,437C 673.608,440.22 681.274,444.22 688.5,449C 711.158,468.668 727.992,492.501 739,520.5C 741.135,527.039 742.635,533.706 743.5,540.5 Z"/></g>
<g><path style="opacity:1" fill="#58382f" d="M 273.5,210.5 C 274.659,221.985 275.325,233.652 275.5,245.5C 273.901,234.039 273.235,222.372 273.5,210.5 Z"/></g>
<g><path style="opacity:1" fill="#936353" d="M 268.5,205.5 C 269.056,216.39 269.723,227.224 270.5,238C 269.5,238.667 268.5,238.667 267.5,238C 262.592,234.762 258.759,230.595 256,225.5C 252.263,214.152 250.096,202.485 249.5,190.5C 249.338,188.473 249.505,186.473 250,184.5C 256.404,191.397 262.571,198.397 268.5,205.5 Z"/></g>
<g><path style="opacity:1" fill="#956555" d="M 502.5,201.5 C 501.263,211.106 498.429,220.106 494,228.5C 490.167,231.667 486.333,234.833 482.5,238C 479.274,239.199 475.941,239.699 472.5,239.5C 472.779,229.753 473.445,220.086 474.5,210.5C 482.367,200.125 491.2,190.458 501,181.5C 502.377,188.076 502.877,194.743 502.5,201.5 Z"/></g>
<g><path style="opacity:1" fill="#805347" d="M 502.5,201.5 C 502.877,194.743 502.377,188.076 501,181.5C 491.2,190.458 482.367,200.125 474.5,210.5C 474.592,195.151 480.926,182.984 493.5,174C 495.5,173.333 497.5,173.333 499.5,174C 502.907,179.234 504.24,185.067 503.5,191.5C 503.498,195.018 503.165,198.351 502.5,201.5 Z"/></g>
<g><path style="opacity:1" fill="#7f5247" d="M 268.5,205.5 C 262.571,198.397 256.404,191.397 250,184.5C 249.505,186.473 249.338,188.473 249.5,190.5C 248.51,184.355 248.177,178.022 248.5,171.5C 256.324,173.819 261.824,178.819 265,186.5C 267.985,192.471 269.151,198.804 268.5,205.5 Z"/></g>
<g><path style="opacity:1" fill="#8f6051" d="M 254.5,165.5 C 259.364,166.015 263.531,168.015 267,171.5C 267.667,175.167 267.667,178.833 267,182.5C 263.083,176.075 257.583,171.742 250.5,169.5C 251.549,167.784 252.882,166.451 254.5,165.5 Z"/></g>
<g><path style="opacity:1" fill="#906152" d="M 487.5,164.5 C 492.791,163.643 496.457,165.643 498.5,170.5C 488.068,172.804 480.568,178.804 476,188.5C 475.333,184.167 475.333,179.833 476,175.5C 479.07,170.927 482.904,167.261 487.5,164.5 Z"/></g>
<g><path style="opacity:1" fill="#1b1006" d="M 378.5,126.5 C 378.938,126.435 379.272,126.601 379.5,127C 376.302,130.594 375.135,134.761 376,139.5C 377.726,143.953 379.726,148.286 382,152.5C 383.893,157.007 385.059,161.673 385.5,166.5C 381.185,159.204 377.352,151.538 374,143.5C 372.266,136.798 373.766,131.131 378.5,126.5 Z"/></g>
<g><path style="opacity:1" fill="#201306" d="M 402.5,109.5 C 415.495,109.166 428.162,110.999 440.5,115C 444.873,116.713 448.707,119.213 452,122.5C 452.444,125.611 453.777,128.277 456,130.5C 456.667,131.833 456.667,133.167 456,134.5C 450.907,130.204 445.074,127.371 438.5,126C 424.874,124.782 411.207,124.115 397.5,124C 393.61,122.055 391.943,118.888 392.5,114.5C 392.983,112.13 394.149,111.463 396,112.5C 398.166,111.269 400.333,110.269 402.5,109.5 Z"/></g>
<g><path style="opacity:1" fill="#815448" d="M 405.5,36.5 C 426.319,42.1511 442.819,53.8178 455,71.5C 456.313,75.4204 457.313,79.4204 458,83.5C 458.129,91.8944 458.796,100.228 460,108.5C 464.452,116.066 467.785,124.066 470,132.5C 471.743,173.55 470.743,214.55 467,255.5C 466.867,284.938 454.367,307.438 429.5,323C 421.014,326.743 412.681,330.743 404.5,335C 397.573,336.874 390.573,337.874 383.5,338C 390.331,335.368 397.331,333.368 404.5,332C 410.57,327.244 416.57,322.577 422.5,318C 424.787,313.642 426.787,309.142 428.5,304.5C 428,304.167 427.5,303.833 427,303.5C 424.79,305.111 422.29,305.778 419.5,305.5C 428.506,298.458 435.339,289.791 440,279.5C 441.998,267.792 441.665,256.126 439,244.5C 437.483,235.007 438.817,226.007 443,217.5C 447.333,213.5 451.667,209.5 456,205.5C 460.436,194.286 460.603,182.953 456.5,171.5C 455.672,170.585 454.672,169.919 453.5,169.5C 449.616,171.295 445.616,172.795 441.5,174C 426.988,175.304 412.654,174.304 398.5,171C 394.281,170.209 390.614,168.375 387.5,165.5C 386.811,167.338 386.478,169.005 386.5,170.5C 385.571,169.311 385.238,167.978 385.5,166.5C 385.059,161.673 383.893,157.007 382,152.5C 379.726,148.286 377.726,143.953 376,139.5C 375.135,134.761 376.302,130.594 379.5,127C 379.272,126.601 378.938,126.435 378.5,126.5C 382.382,121.563 387.048,117.563 392.5,114.5C 391.943,118.888 393.61,122.055 397.5,124C 411.207,124.115 424.874,124.782 438.5,126C 445.074,127.371 450.907,130.204 456,134.5C 456.667,133.167 456.667,131.833 456,130.5C 453.777,128.277 452.444,125.611 452,122.5C 448.707,119.213 444.873,116.713 440.5,115C 428.162,110.999 415.495,109.166 402.5,109.5C 405.625,108.521 408.958,108.187 412.5,108.5C 418.635,92.5002 419.135,76.1669 414,59.5C 411.65,51.6122 408.817,43.9455 405.5,36.5 Z"/></g>
<g><path style="opacity:1" fill="#251811" d="M 411.5,142.5 C 421.056,141.639 430.056,143.473 438.5,148C 440.976,149.309 442.976,151.142 444.5,153.5C 437.66,156.36 430.494,157.693 423,157.5C 412.861,156.385 402.694,155.552 392.5,155C 391.549,154.282 391.383,153.449 392,152.5C 397.93,147.952 404.43,144.619 411.5,142.5 Z"/></g>
<g><path style="opacity:1" fill="#c5c4c4" d="M 417.5,149.5 C 419.337,149.639 419.67,150.306 418.5,151.5C 417.702,151.043 417.369,150.376 417.5,149.5 Z"/></g>
<g><path style="opacity:1" fill="#dcdbdc" d="M 428.5,146.5 C 432.718,147.275 434.052,149.609 432.5,153.5C 430.955,154.452 429.288,154.785 427.5,154.5C 428.092,151.873 428.425,149.206 428.5,146.5 Z"/></g>
<g><path style="opacity:1" fill="#e4e3e3" d="M 410.5,148.5 C 410.286,150.144 410.62,151.644 411.5,153C 408.469,153.495 405.469,153.329 402.5,152.5C 402.414,151.504 402.748,150.671 403.5,150C 405.74,149.023 408.073,148.523 410.5,148.5 Z"/></g>
<g><path style="opacity:1" fill="#8a7c80" d="M 410.5,148.5 C 408.073,148.523 405.74,149.023 403.5,150C 402.748,150.671 402.414,151.504 402.5,152.5C 401.201,150.847 401.534,149.347 403.5,148C 405.459,147.069 407.459,146.236 409.5,145.5C 410.386,146.325 410.719,147.325 410.5,148.5 Z"/></g>
<g><path style="opacity:1" fill="#c9c5c7" d="M 413.5,144.5 C 417.161,144.35 418.161,145.85 416.5,149C 412.707,149.487 411.707,147.987 413.5,144.5 Z"/></g>
<g><path style="opacity:1" fill="#170e07" d="M 413.5,135.5 C 423.215,134.46 431.549,137.294 438.5,144C 434.925,142.5 431.258,140.834 427.5,139C 417.189,136.166 407.523,137.666 398.5,143.5C 398.167,143.333 397.833,143.167 397.5,143C 402.41,139.428 407.743,136.928 413.5,135.5 Z"/></g>
<g><path style="opacity:1" fill="#966656" d="M 405.5,36.5 C 408.817,43.9455 411.65,51.6122 414,59.5C 419.135,76.1669 418.635,92.5002 412.5,108.5C 408.958,108.187 405.625,108.521 402.5,109.5C 400.333,110.269 398.166,111.269 396,112.5C 394.149,111.463 392.983,112.13 392.5,114.5C 387.048,117.563 382.382,121.563 378.5,126.5C 373.766,131.131 372.266,136.798 374,143.5C 377.352,151.538 381.185,159.204 385.5,166.5C 385.238,167.978 385.571,169.311 386.5,170.5C 386.478,169.005 386.811,167.338 387.5,165.5C 390.614,168.375 394.281,170.209 398.5,171C 412.654,174.304 426.988,175.304 441.5,174C 445.616,172.795 449.616,171.295 453.5,169.5C 454.672,169.919 455.672,170.585 456.5,171.5C 460.603,182.953 460.436,194.286 456,205.5C 451.667,209.5 447.333,213.5 443,217.5C 438.817,226.007 437.483,235.007 439,244.5C 441.665,256.126 441.998,267.792 440,279.5C 435.339,289.791 428.506,298.458 419.5,305.5C 407.684,308.788 396.017,311.788 384.5,314.5C 371.234,314.302 357.901,313.135 344.5,311C 343.069,310.535 341.903,309.701 341,308.5C 339.129,309.668 337.629,309.168 336.5,307C 334.167,306.667 331.833,306.333 329.5,306C 326.523,303.622 323.19,302.122 319.5,301.5C 318.804,309.441 321.804,315.441 328.5,319.5C 330.642,323.475 333.642,326.642 337.5,329C 339.167,329.333 340.833,329.667 342.5,330C 345.388,331.813 348.388,333.479 351.5,335C 357.388,336.628 363.388,337.628 369.5,338C 369.833,338.333 370.167,338.667 370.5,339C 357.161,339.668 344.494,337.001 332.5,331C 322.666,325.251 312.999,319.251 303.5,313C 292.278,303.383 284.444,291.549 280,277.5C 278.077,266.873 276.577,256.206 275.5,245.5C 275.325,233.652 274.659,221.985 273.5,210.5C 272.376,183.846 272.543,157.18 274,130.5C 276.186,124.733 278.52,119.066 281,113.5C 282.074,100.182 283.074,86.8491 284,73.5C 285.139,69.8878 286.806,66.5544 289,63.5C 306.296,45.9355 327.129,35.4355 351.5,32C 362.833,31.3333 374.167,31.3333 385.5,32C 392.512,32.5503 399.179,34.0503 405.5,36.5 Z"/></g>
<g><path style="opacity:1" fill="#84564a" d="M 415.5,237.5 C 421.061,240.39 425.728,244.39 429.5,249.5C 424.068,254.43 418.735,259.597 413.5,265C 412.255,265.791 410.922,266.291 409.5,266.5C 408.903,265.861 408.07,265.528 407,265.5C 385.901,270.429 364.734,270.763 343.5,266.5C 342.893,266.624 342.56,266.957 342.5,267.5C 334.725,263.906 327.891,258.906 322,252.5C 321.333,251.5 321.333,250.5 322,249.5C 324.487,247.191 326.487,244.524 328,241.5C 329.129,239.859 330.629,238.859 332.5,238.5C 345.42,231.251 359.087,229.585 373.5,233.5C 378.954,232.43 384.454,231.43 390,230.5C 398.808,231.826 407.308,234.159 415.5,237.5 Z"/></g>
<g><path style="opacity:1" fill="#1c120a" d="M 412.5,234.5 C 413.694,235.272 414.694,236.272 415.5,237.5C 407.308,234.159 398.808,231.826 390,230.5C 384.454,231.43 378.954,232.43 373.5,233.5C 359.087,229.585 345.42,231.251 332.5,238.5C 333.167,237.167 334.167,236.167 335.5,235.5C 347.123,228.171 359.623,226.504 373,230.5C 386.853,226.749 400.02,228.083 412.5,234.5 Z"/></g>
<g><path style="opacity:1" fill="#201309" d="M 366.5,214.5 C 368.539,215.578 370.706,216.578 373,217.5C 373.497,220.146 373.664,222.813 373.5,225.5C 364.827,225.334 356.16,225.5 347.5,226C 341.417,227.54 336.084,230.373 331.5,234.5C 327.799,236.441 324.299,238.774 321,241.5C 324.172,232.641 330.005,225.808 338.5,221C 347.244,216.251 356.577,214.085 366.5,214.5 Z"/></g>
<g><path style="opacity:1" fill="#1f1308" d="M 390.5,214.5 C 403.214,216.108 414.381,221.108 424,229.5C 425.715,232.435 427.548,235.268 429.5,238C 429.333,238.5 429.167,239 429,239.5C 425.281,236.941 421.448,234.608 417.5,232.5C 404.528,225.334 390.528,222.667 375.5,224.5C 374.536,220.207 375.869,217.04 379.5,215C 383.152,214.501 386.818,214.335 390.5,214.5 Z"/></g>
<g><path style="opacity:1" fill="#825548" d="M 399.5,182.5 C 399.062,182.435 398.728,182.601 398.5,183C 409.637,189.923 410.304,197.59 400.5,206C 400.728,206.399 401.062,206.565 401.5,206.5C 399.366,208.033 396.866,208.7 394,208.5C 388.374,206.375 383.541,207.542 379.5,212C 383.28,212.918 386.946,213.751 390.5,214.5C 386.818,214.335 383.152,214.501 379.5,215C 375.869,217.04 374.536,220.207 375.5,224.5C 390.528,222.667 404.528,225.334 417.5,232.5C 416.07,232.579 414.736,232.246 413.5,231.5C 411.481,232.133 411.147,233.133 412.5,234.5C 400.02,228.083 386.853,226.749 373,230.5C 359.623,226.504 347.123,228.171 335.5,235.5C 335.631,234.624 335.298,233.957 334.5,233.5C 333.583,234.127 332.583,234.461 331.5,234.5C 336.084,230.373 341.417,227.54 347.5,226C 356.16,225.5 364.827,225.334 373.5,225.5C 373.664,222.813 373.497,220.146 373,217.5C 370.706,216.578 368.539,215.578 366.5,214.5C 368.949,215.057 371.282,215.057 373.5,214.5C 368.219,213.43 363.219,211.597 358.5,209C 355.145,208.454 351.812,208.621 348.5,209.5C 344.976,209.099 341.642,208.433 338.5,207.5C 347.042,207.774 347.375,206.941 339.5,205C 338.667,204.167 337.833,203.333 337,202.5C 334.661,193.133 337.827,186.633 346.5,183C 345.207,182.51 343.873,182.343 342.5,182.5C 343.919,181.549 345.585,181.216 347.5,181.5C 346.949,185.761 346.949,189.928 347.5,194C 348.5,194.667 349.5,194.667 350.5,194C 353.062,192.262 355.729,190.762 358.5,189.5C 361.238,190.728 363.571,192.562 365.5,195C 375.718,197.984 384.884,196.15 393,189.5C 394.908,186.785 396.241,183.785 397,180.5C 397.995,181.066 398.828,181.733 399.5,182.5 Z"/></g>
<g><path style="opacity:1" fill="#1d1209" d="M 388.5,197.5 C 390.857,197.337 393.19,197.503 395.5,198C 388.651,198.839 383.317,202.172 379.5,208C 371.435,212.317 364.768,210.65 359.5,203C 355.719,201.173 351.719,200.173 347.5,200C 354.871,198.126 361.204,199.793 366.5,205C 370.167,207 373.833,207 377.5,205C 380.818,201.825 384.485,199.325 388.5,197.5 Z"/></g>
<g><path style="opacity:1" fill="#1c1108" d="M 399.5,182.5 C 410.709,185.637 413.542,192.304 408,202.5C 406.056,204.221 403.89,205.554 401.5,206.5C 401.062,206.565 400.728,206.399 400.5,206C 410.304,197.59 409.637,189.923 398.5,183C 398.728,182.601 399.062,182.435 399.5,182.5 Z"/></g>
<g><path style="opacity:1" fill="#1f140c" d="M 342.5,182.5 C 343.873,182.343 345.207,182.51 346.5,183C 337.827,186.633 334.661,193.133 337,202.5C 337.833,203.333 338.667,204.167 339.5,205C 347.375,206.941 347.042,207.774 338.5,207.5C 333.02,203.564 331.186,198.23 333,191.5C 335.43,187.566 338.597,184.566 342.5,182.5 Z"/></g>
<g><path style="opacity:1" fill="#805347" d="M 341.5,121.5 C 341.335,124.518 341.502,127.518 342,130.5C 347.388,135.876 351.054,142.209 353,149.5C 354.248,156.833 351.415,162 344.5,165C 340.112,167.861 335.446,170.194 330.5,172C 325.833,172.667 321.167,172.667 316.5,172C 311.377,169.959 306.21,168.126 301,166.5C 294.737,167.699 288.737,169.699 283,172.5C 282.5,172.167 282,171.833 281.5,171.5C 285.086,168.086 288.086,164.252 290.5,160C 289.013,157.179 286.846,155.013 284,153.5C 283.286,150.405 282.286,147.405 281,144.5C 280.199,141.633 280.366,138.966 281.5,136.5C 281.238,137.978 281.571,139.311 282.5,140.5C 287.628,135.101 293.628,130.934 300.5,128C 313.167,126.667 325.833,125.333 338.5,124C 339.373,122.955 340.373,122.122 341.5,121.5 Z"/></g>
<g><path style="opacity:1" fill="#1d130a" d="M 316.5,143.5 C 327.836,143.056 337.836,146.39 346.5,153.5C 338.842,154.875 331.175,156.375 323.5,158C 314.148,158.651 304.814,158.484 295.5,157.5C 295.351,156.448 295.517,155.448 296,154.5C 302.126,149.356 308.959,145.689 316.5,143.5 Z"/></g>
<g><path style="opacity:1" fill="#d3d3d3" d="M 318.5,150.5 C 320.337,150.639 320.67,151.306 319.5,152.5C 318.702,152.043 318.369,151.376 318.5,150.5 Z"/></g>
<g><path style="opacity:1" fill="#d1cfd0" d="M 310.5,147.5 C 311.791,149.949 312.791,152.616 313.5,155.5C 311.235,156.647 308.902,156.814 306.5,156C 305.424,154.274 305.257,152.441 306,150.5C 307.652,149.601 309.152,148.601 310.5,147.5 Z"/></g>
<g><path style="opacity:1" fill="#e7e7e6" d="M 336.5,151.5 C 335.365,153.213 333.698,153.88 331.5,153.5C 330.402,152.399 330.235,151.066 331,149.5C 332.725,150.464 334.559,151.131 336.5,151.5 Z"/></g>
<g><path style="opacity:1" fill="#928688" d="M 336.5,151.5 C 334.559,151.131 332.725,150.464 331,149.5C 330.235,151.066 330.402,152.399 331.5,153.5C 331.44,154.043 331.107,154.376 330.5,154.5C 328.457,144.939 330.457,143.939 336.5,151.5 Z"/></g>
<g><path style="opacity:1" fill="#d7d6d6" d="M 314.5,146.5 C 317.694,146.176 318.694,147.342 317.5,150C 316.207,150.49 314.873,150.657 313.5,150.5C 313.433,149.041 313.766,147.708 314.5,146.5 Z"/></g>
<g><path style="opacity:1" fill="#190f08" d="M 313.5,137.5 C 322.031,136.43 330.031,137.93 337.5,142C 323.827,137.266 311.16,139.1 299.5,147.5C 299.167,147.333 298.833,147.167 298.5,147C 302.966,142.779 307.966,139.613 313.5,137.5 Z"/></g>
<g><path style="opacity:1" fill="#201307" d="M 341.5,121.5 C 340.373,122.122 339.373,122.955 338.5,124C 325.833,125.333 313.167,126.667 300.5,128C 293.628,130.934 287.628,135.101 282.5,140.5C 281.571,139.311 281.238,137.978 281.5,136.5C 282.991,130.49 286.324,125.657 291.5,122C 306.573,112.469 322.907,109.469 340.5,113C 341.444,115.719 341.777,118.552 341.5,121.5 Z"/></g>
<g><path style="opacity:0.996" fill="#211610" d="M 353.5,238.5 C 368.159,239.356 382.826,239.523 397.5,239C 405.61,241.259 412.943,245.093 419.5,250.5C 417.231,251.815 414.898,252.982 412.5,254C 398.829,254.382 385.162,254.882 371.5,255.5C 357.878,254.095 344.212,253.262 330.5,253C 329.833,252.667 329.167,252.333 328.5,252C 332.41,250.093 335.744,247.427 338.5,244C 343.34,241.386 348.34,239.553 353.5,238.5 Z"/></g>
<g><path style="opacity:1" fill="#edeced" d="M 346.5,242.5 C 364.492,243.364 382.492,243.531 400.5,243C 406.757,243.234 409.091,246.234 407.5,252C 405.667,252.167 403.833,252.333 402,252.5C 381.497,252.949 360.997,252.449 340.5,251C 339.446,249.612 339.28,248.112 340,246.5C 342.013,244.752 344.18,243.418 346.5,242.5 Z"/></g>
<g><path style="opacity:1" fill="#251914" d="M 431.5,243.5 C 432.117,243.611 432.617,243.944 433,244.5C 434.392,249.916 433.226,254.583 429.5,258.5C 429.167,258.333 428.833,258.167 428.5,258C 429.701,257.097 430.535,255.931 431,254.5C 431.499,250.848 431.665,247.182 431.5,243.5 Z"/></g>
<g><path style="opacity:1" fill="#201408" d="M 409.5,266.5 C 406.946,267.606 404.279,268.439 401.5,269C 399.347,273.154 396.014,275.82 391.5,277C 387.626,280.54 383.459,283.706 379,286.5C 375.924,285.712 372.758,285.212 369.5,285C 368.069,284.535 366.903,283.701 366,282.5C 365.586,282.957 365.086,283.291 364.5,283.5C 362.973,281.807 361.64,279.973 360.5,278C 354.852,273.842 348.852,270.342 342.5,267.5C 342.56,266.957 342.893,266.624 343.5,266.5C 364.734,270.763 385.901,270.429 407,265.5C 408.07,265.528 408.903,265.861 409.5,266.5 Z"/></g>
<g><path style="opacity:1" fill="#754b40" d="M 464.5,313.5 C 462.745,314.072 461.078,314.906 459.5,316C 451.961,323.87 444.794,332.037 438,340.5C 430.197,347.302 422.697,354.469 415.5,362C 398.469,373.044 380.135,376.377 360.5,372C 353.668,367.416 346.668,363.083 339.5,359C 327.211,349.713 315.211,340.046 303.5,330C 298.168,325.999 292.502,322.499 286.5,319.5C 285.833,328.991 285.167,338.325 284.5,347.5C 284.167,331.819 284.501,316.152 285.5,300.5C 293.544,310.854 303.211,319.354 314.5,326C 345.158,346.45 377.825,350.117 412.5,337C 419.342,333.078 426.342,329.412 433.5,326C 445.739,318.261 455.406,308.095 462.5,295.5C 463.421,301.478 464.088,307.478 464.5,313.5 Z"/></g>
<g><path style="opacity:1" fill="#976656" d="M 464.5,313.5 C 465.151,332.276 466.984,350.943 470,369.5C 475.856,377.684 477.023,376.851 473.5,367C 473.833,365.833 474.167,364.667 474.5,363.5C 478.172,365.509 481.839,367.509 485.5,369.5C 490.843,396.661 487.51,422.661 475.5,447.5C 457.133,448.067 438.8,448.9 420.5,450C 411.973,453.028 404.64,457.861 398.5,464.5C 398.667,464.833 398.833,465.167 399,465.5C 404.945,458.609 412.445,454.443 421.5,453C 438.497,452.5 455.497,452.333 472.5,452.5C 472.245,455.016 471.411,457.35 470,459.5C 455.888,480.279 438.388,497.779 417.5,512C 407.785,520.201 399.785,529.701 393.5,540.5C 380.833,540.5 368.167,540.5 355.5,540.5C 350.89,531.708 344.89,523.874 337.5,517C 321.151,505.327 305.985,492.16 292,477.5C 285.351,470.032 280.184,461.699 276.5,452.5C 294.537,452.1 312.537,452.6 330.5,454C 335.99,456.046 341.323,458.046 346.5,460C 339.311,453.909 330.978,450.243 321.5,449C 305.259,448.825 289.093,448.325 273,447.5C 261.536,422.123 258.536,395.789 264,368.5C 268.63,366.032 273.13,363.366 277.5,360.5C 278.655,363.446 278.821,366.446 278,369.5C 274.567,376.398 275.567,377.065 281,371.5C 283.573,363.724 284.74,355.724 284.5,347.5C 285.167,338.325 285.833,328.991 286.5,319.5C 292.502,322.499 298.168,325.999 303.5,330C 315.211,340.046 327.211,349.713 339.5,359C 346.668,363.083 353.668,367.416 360.5,372C 380.135,376.377 398.469,373.044 415.5,362C 422.697,354.469 430.197,347.302 438,340.5C 444.794,332.037 451.961,323.87 459.5,316C 461.078,314.906 462.745,314.072 464.5,313.5 Z"/></g>
<g><path style="opacity:1" fill="#501f7f" d="M 350.5,540.5 C 344.833,540.5 339.167,540.5 333.5,540.5C 331.416,534.569 328.249,529.236 324,524.5C 314.148,514.834 303.648,506.001 292.5,498C 284.255,489.991 277.088,481.158 271,471.5C 252.858,438.791 245.192,403.791 248,366.5C 251.632,363.818 255.299,363.484 259,365.5C 250.602,419.653 267.102,464.487 308.5,500C 325.288,510.622 339.288,524.122 350.5,540.5 Z"/></g>
<g><path style="opacity:1" fill="#501f7f" d="M 415.5,540.5 C 409.833,540.5 404.167,540.5 398.5,540.5C 409.379,524.454 423.046,511.288 439.5,501C 481.336,465.999 498.003,421.499 489.5,367.5C 490.217,365.283 491.717,363.949 494,363.5C 496.515,364.115 498.848,365.115 501,366.5C 501.667,375.833 501.667,385.167 501,394.5C 498.818,437.687 481.984,473.854 450.5,503C 440.682,510.004 431.515,517.837 423,526.5C 419.392,530.599 416.892,535.266 415.5,540.5 Z"/></g>
<g><path style="opacity:1" fill="#7e5b04" d="M 508.5,369.5 C 506.744,370.552 506.077,372.219 506.5,374.5C 505.539,372.735 505.205,370.735 505.5,368.5C 506.791,368.263 507.791,368.596 508.5,369.5 Z"/></g>
<g><path style="opacity:1" fill="#fdba00" d="M 329.5,540.5 C 268.167,540.5 206.833,540.5 145.5,540.5C 144.263,511.506 144.263,482.506 145.5,453.5C 147.616,438.691 149.282,423.691 150.5,408.5C 157.614,404.441 164.948,400.608 172.5,397C 183.84,394.749 194.84,391.416 205.5,387C 217.495,380.419 229.662,374.252 242,368.5C 242.482,378.845 243.149,389.179 244,399.5C 246.956,434.395 259.289,465.395 281,492.5C 292.7,503.591 304.867,514.091 317.5,524C 322.366,528.91 326.366,534.41 329.5,540.5 Z"/></g>
<g><path style="opacity:1" fill="#fdba00" d="M 508.5,369.5 C 521.695,375.431 534.695,381.931 547.5,389C 557.061,392.046 566.728,394.712 576.5,397C 584.798,401.149 593.131,405.315 601.5,409.5C 603.9,432.413 605.566,455.413 606.5,478.5C 606.601,499.176 606.268,519.843 605.5,540.5C 543.5,540.5 481.5,540.5 419.5,540.5C 422.508,534.318 426.508,528.818 431.5,524C 443.269,514.571 454.769,504.737 466,494.5C 469,490.833 472,487.167 475,483.5C 496.499,450.488 506.999,414.154 506.5,374.5C 506.077,372.219 506.744,370.552 508.5,369.5 Z"/></g>
<g><path style="opacity:1" fill="#552281" d="M 149.5,408.5 C 147.836,423.469 146.503,438.469 145.5,453.5C 144.263,482.506 144.263,511.506 145.5,540.5C 139.833,540.5 134.167,540.5 128.5,540.5C 128.894,500.069 131.061,459.736 135,419.5C 138.036,413.555 142.87,409.888 149.5,408.5 Z"/></g>
<g><path style="opacity:1" fill="#532082" d="M 601.5,409.5 C 609.725,411.222 614.225,416.222 615,424.5C 618.437,463.371 620.27,502.038 620.5,540.5C 615.833,540.5 611.167,540.5 606.5,540.5C 607.627,519.671 607.627,499.004 606.5,478.5C 605.566,455.413 603.9,432.413 601.5,409.5 Z"/></g>
<g><path style="opacity:1" fill="#bb855b" d="M 149.5,408.5 C 149.833,408.5 150.167,408.5 150.5,408.5C 149.282,423.691 147.616,438.691 145.5,453.5C 146.503,438.469 147.836,423.469 149.5,408.5 Z"/></g>
<g><path style="opacity:1" fill="#825448" d="M 652.5,439.5 C 649.956,439.104 647.789,439.771 646,441.5C 642.024,449.507 641.357,457.84 644,466.5C 651.76,480.217 652.427,494.217 646,508.5C 642.063,515.374 638.397,522.374 635,529.5C 633.892,533.086 633.392,536.753 633.5,540.5C 630.5,540.5 627.5,540.5 624.5,540.5C 624.667,521.83 624.5,503.164 624,484.5C 621.768,465.534 620.935,446.534 621.5,427.5C 626.5,430 631.5,432.5 636.5,435C 642.038,436.241 647.371,437.741 652.5,439.5 Z"/></g>
<g><path style="opacity:1" fill="#825448" d="M 124.5,540.5 C 121.5,540.5 118.5,540.5 115.5,540.5C 113.979,529.104 109.812,518.771 103,509.5C 96.5112,494.15 97.1779,479.15 105,464.5C 107.608,455.919 106.441,447.919 101.5,440.5C 99.604,439.534 97.604,439.201 95.5,439.5C 107.156,437.185 118.156,432.852 128.5,426.5C 128.833,427.833 129.167,429.167 129.5,430.5C 125.678,467.071 124.012,503.738 124.5,540.5 Z"/></g>
<g><path style="opacity:1" fill="#976656" d="M 95.5,439.5 C 97.604,439.201 99.604,439.534 101.5,440.5C 106.441,447.919 107.608,455.919 105,464.5C 97.1779,479.15 96.5112,494.15 103,509.5C 109.812,518.771 113.979,529.104 115.5,540.5C 80.8333,540.5 46.1667,540.5 11.5,540.5C 11.8704,534.683 13.0371,529.016 15,523.5C 25.3311,496.364 41.4978,473.198 63.5,454C 73.0639,446.718 83.7306,441.884 95.5,439.5 Z"/></g>
<g><path style="opacity:1" fill="#976656" d="M 652.5,439.5 C 661.856,440.785 670.523,443.952 678.5,449C 689.256,456.42 698.756,465.254 707,475.5C 722.86,494.555 733.36,516.221 738.5,540.5C 703.5,540.5 668.5,540.5 633.5,540.5C 633.392,536.753 633.892,533.086 635,529.5C 638.397,522.374 642.063,515.374 646,508.5C 652.427,494.217 651.76,480.217 644,466.5C 641.357,457.84 642.024,449.507 646,441.5C 647.789,439.771 649.956,439.104 652.5,439.5 Z"/></g>
<g><path style="opacity:1" fill="#bb845c" d="M 606.5,478.5 C 607.627,499.004 607.627,519.671 606.5,540.5C 606.167,540.5 605.833,540.5 605.5,540.5C 606.268,519.843 606.601,499.176 606.5,478.5 Z"/></g>
</svg>
