<?xml version="1.0" encoding="UTF-8"?>
<!DOCTYPE svg PUBLIC "-//W3C//DTD SVG 1.1//EN" "http://www.w3.org/Graphics/SVG/1.1/DTD/svg11.dtd">
<svg xmlns="http://www.w3.org/2000/svg" version="1.1" width="750px" height="592px" style="shape-rendering:geometricPrecision; text-rendering:geometricPrecision; image-rendering:optimizeQuality; fill-rule:evenodd; clip-rule:evenodd" xmlns:xlink="http://www.w3.org/1999/xlink">
<g><path style="opacity:0.016" fill="#330000" d="M 327.5,-0.5 C 327.833,-0.5 328.167,-0.5 328.5,-0.5C 328.5,-0.166667 328.5,0.166667 328.5,0.5C 328.167,0.166667 327.833,-0.166667 327.5,-0.5 Z"/></g>
<g><path style="opacity:0.958" fill="#1c0c02" d="M 330.5,-0.5 C 336.167,-0.5 341.833,-0.5 347.5,-0.5C 349.65,0.670114 351.984,1.67011 354.5,2.5C 357.282,1.48444 359.949,0.484444 362.5,-0.5C 366.167,-0.5 369.833,-0.5 373.5,-0.5C 378.304,2.46354 383.471,3.13021 389,1.5C 393.596,1.60879 398.096,2.27545 402.5,3.5C 403.436,4.97439 404.77,5.97439 406.5,6.5C 415.96,8.06242 424.293,12.0624 431.5,18.5C 437.367,19.1113 443.034,20.4446 448.5,22.5C 448.5,23.1667 448.833,23.5 449.5,23.5C 451.957,25.7117 453.957,28.3784 455.5,31.5C 461.124,32.9628 463.958,36.6295 464,42.5C 464.435,36.1797 465.269,36.013 466.5,42C 466.167,42.3333 465.833,42.6667 465.5,43C 468.736,47.4871 471.903,51.9871 475,56.5C 475.957,60.9557 477.29,65.2891 479,69.5C 480.371,71.0414 481.871,72.3747 483.5,73.5C 483.5,74.1667 483.833,74.5 484.5,74.5C 486.45,77.4058 488.117,80.4058 489.5,83.5C 489.736,86.9139 490.402,90.2473 491.5,93.5C 493.905,95.6423 495.238,98.309 495.5,101.5C 494.402,102.601 494.235,103.934 495,105.5C 496.794,108.214 497.96,111.214 498.5,114.5C 501.991,116.483 503.658,119.483 503.5,123.5C 502.662,123.842 502.328,124.508 502.5,125.5C 501.662,125.842 501.328,126.508 501.5,127.5C 500.662,127.842 500.328,128.508 500.5,129.5C 499.167,130.167 499.167,130.833 500.5,131.5C 502.023,134.635 502.69,137.968 502.5,141.5C 501.833,141.5 501.5,141.833 501.5,142.5C 500.662,142.842 500.328,143.508 500.5,144.5C 499.167,145.167 499.167,145.833 500.5,146.5C 499.583,149.005 499.583,151.338 500.5,153.5C 500.433,154.959 500.766,156.292 501.5,157.5C 500.662,157.842 500.328,158.508 500.5,159.5C 499.833,159.5 499.5,159.833 499.5,160.5C 498.833,160.5 498.5,160.833 498.5,161.5C 497.833,161.5 497.5,161.833 497.5,162.5C 496.539,164.265 496.205,166.265 496.5,168.5C 495.662,168.842 495.328,169.508 495.5,170.5C 494.566,171.568 494.232,172.901 494.5,174.5C 493.018,176.736 492.685,179.069 493.5,181.5C 492.521,184.625 492.187,187.958 492.5,191.5C 491.596,192.209 491.263,193.209 491.5,194.5C 489.777,196.78 489.111,199.447 489.5,202.5C 494.102,202.384 497.935,204.051 501,207.5C 504.655,214.132 507.321,221.132 509,228.5C 509.5,240.495 509.667,252.495 509.5,264.5C 508.566,265.568 508.232,266.901 508.5,268.5C 507.262,270.214 506.595,272.214 506.5,274.5C 505.596,275.209 505.263,276.209 505.5,277.5C 504.662,277.842 504.328,278.508 504.5,279.5C 503.833,279.5 503.5,279.833 503.5,280.5C 502.662,280.842 502.328,281.508 502.5,282.5C 501.662,282.842 501.328,283.508 501.5,284.5C 500.662,284.842 500.328,285.508 500.5,286.5C 499.662,286.842 499.328,287.508 499.5,288.5C 498.833,288.5 498.5,288.833 498.5,289.5C 497.833,289.5 497.5,289.833 497.5,290.5C 496.833,290.5 496.5,290.833 496.5,291.5C 495.833,291.5 495.5,291.833 495.5,292.5C 494.508,292.328 493.842,292.662 493.5,293.5C 492.209,293.263 491.209,293.596 490.5,294.5C 487.794,294.425 485.127,294.092 482.5,293.5C 481.828,292.733 480.995,292.066 480,291.5C 479.679,302.183 479.179,312.85 478.5,323.5C 477.566,324.568 477.232,325.901 477.5,327.5C 476.566,328.568 476.232,329.901 476.5,331.5C 475.596,332.209 475.263,333.209 475.5,334.5C 474.662,334.842 474.328,335.508 474.5,336.5C 473.596,337.209 473.263,338.209 473.5,339.5C 471.412,341.336 470.079,343.669 469.5,346.5C 468.839,348.134 468.506,349.967 468.5,352C 468.872,358.016 469.538,363.849 470.5,369.5C 471.046,381.657 472.713,393.657 475.5,405.5C 477.887,407.689 480.553,409.356 483.5,410.5C 486.023,413.239 486.69,412.906 485.5,409.5C 488.129,403.355 492.796,401.189 499.5,403C 502.748,404.46 506.081,405.626 509.5,406.5C 524.377,413.939 539.377,421.439 554.5,429C 561.702,431.406 569.035,433.24 576.5,434.5C 586.035,438.266 595.369,442.599 604.5,447.5C 605.78,448.931 607.447,449.598 609.5,449.5C 613.729,451.396 617.396,454.063 620.5,457.5C 620.5,458.167 620.833,458.5 621.5,458.5C 621.796,460.403 622.463,462.07 623.5,463.5C 623.5,464.167 623.833,464.5 624.5,464.5C 627.678,467.258 631.345,469.258 635.5,470.5C 637.181,472.008 639.181,473.008 641.5,473.5C 651.607,476.968 661.94,480.134 672.5,483C 678.22,485.86 683.886,488.693 689.5,491.5C 689.5,492.167 689.833,492.5 690.5,492.5C 698.132,498.464 705.132,505.131 711.5,512.5C 711.5,513.167 711.833,513.5 712.5,513.5C 714.817,517.146 717.484,520.48 720.5,523.5C 720.5,524.167 720.833,524.5 721.5,524.5C 733.734,541.634 742.734,560.3 748.5,580.5C 748.205,582.735 748.539,584.735 749.5,586.5C 749.5,588.167 749.5,589.833 749.5,591.5C 747.5,591.5 745.5,591.5 743.5,591.5C 741.597,572.685 735.43,555.352 725,539.5C 714.48,523.656 701.98,509.49 687.5,497C 678.291,490.894 668.291,486.727 657.5,484.5C 645.841,482.183 634.841,477.849 624.5,471.5C 624.167,473.167 623.833,474.833 623.5,476.5C 626.532,514.774 628.199,553.107 628.5,591.5C 626.833,591.5 625.167,591.5 623.5,591.5C 623.5,580.167 623.5,568.833 623.5,557.5C 623.624,545.303 622.958,533.303 621.5,521.5C 620.975,502.464 619.809,483.464 618,464.5C 617.117,461.898 615.617,459.731 613.5,458C 602.992,453.946 592.992,448.946 583.5,443C 574.713,439.887 565.713,437.553 556.5,436C 545.888,431.361 535.554,426.194 525.5,420.5C 525.828,457.706 517.328,492.706 500,525.5C 488.878,542.956 474.711,557.456 457.5,569C 449.883,575.776 443.216,583.276 437.5,591.5C 435.833,591.5 434.167,591.5 432.5,591.5C 441.622,576.544 453.622,564.378 468.5,555C 494.978,530.885 511.145,501.052 517,465.5C 519.508,449.582 520.508,433.582 520,417.5C 517.55,416.358 515.05,415.358 512.5,414.5C 506.968,411.903 501.302,409.569 495.5,407.5C 493.971,407.529 492.804,408.196 492,409.5C 500.235,464.479 483.402,509.979 441.5,546C 428.448,555.379 416.282,565.879 405,577.5C 401.544,581.789 398.711,586.456 396.5,591.5C 394.833,591.5 393.167,591.5 391.5,591.5C 394.38,584.082 398.547,577.415 404,571.5C 416.517,559.503 429.683,548.336 443.5,538C 456.313,526.698 466.646,513.531 474.5,498.5C 457.51,497.334 440.51,497.167 423.5,498C 413.28,499.859 404.78,504.692 398,512.5C 402.441,503.819 409.608,498.319 419.5,496C 422.471,495.206 425.471,494.539 428.5,494C 444.844,493.833 461.177,493.333 477.5,492.5C 488.313,469.147 491.646,444.814 487.5,419.5C 483.673,417.754 480.007,415.754 476.5,413.5C 475.833,415.5 475.167,417.5 474.5,419.5C 473.201,418.91 472.368,417.91 472,416.5C 468.798,401.913 466.298,387.247 464.5,372.5C 463.999,365.827 463.333,359.161 462.5,352.5C 445.672,360.832 432.172,372.832 422,388.5C 415.384,395.727 407.217,400.227 397.5,402C 383.167,402.667 368.833,402.667 354.5,402C 347.914,400.771 341.581,398.771 335.5,396C 328.522,388.691 321.189,381.691 313.5,375C 302.5,368.167 291.5,361.333 280.5,354.5C 279.504,360.463 279.171,366.463 279.5,372.5C 278.805,386.53 277.638,400.53 276,414.5C 275.632,415.91 274.799,416.91 273.5,417.5C 272.833,415.5 272.167,413.5 271.5,411.5C 268.327,413.587 264.994,415.421 261.5,417C 256.765,443.855 260.432,469.522 272.5,494C 291.21,494.066 309.877,494.733 328.5,496C 336.895,498.063 344.062,502.23 350,508.5C 350.667,509.167 350.667,509.833 350,510.5C 342.337,503.086 333.17,499.086 322.5,498.5C 306.662,497.173 290.662,497.173 274.5,498.5C 274.624,499.107 274.957,499.44 275.5,499.5C 288.12,522.291 305.454,540.791 327.5,555C 337.414,562.912 345.914,572.078 353,582.5C 354.741,585.309 355.908,588.309 356.5,591.5C 355.167,591.5 353.833,591.5 352.5,591.5C 346.641,580.659 338.974,571.159 329.5,563C 313.464,551.967 298.964,539.134 286,524.5C 259.599,490.527 249.932,452.194 257,409.5C 256.196,408.196 255.029,407.529 253.5,407.5C 247.635,409.607 241.968,411.94 236.5,414.5C 234.45,414.961 232.45,415.628 230.5,416.5C 226.331,462.088 237.831,503.088 265,539.5C 273.807,549.3 283.64,557.8 294.5,565C 299.667,570.167 304.833,575.333 310,580.5C 312.694,583.892 314.86,587.559 316.5,591.5C 314.833,591.5 313.167,591.5 311.5,591.5C 301.345,577.514 289.011,565.68 274.5,556C 247.374,529.58 231.541,497.414 227,459.5C 225.668,446.513 224.501,433.513 223.5,420.5C 214.603,425.237 205.603,429.737 196.5,434C 186.025,436.535 175.691,439.535 165.5,443C 155.779,448.527 145.779,453.527 135.5,458C 131.239,462.243 129.405,467.41 130,473.5C 126.393,512.754 124.893,552.088 125.5,591.5C 123.833,591.5 122.167,591.5 120.5,591.5C 120.469,553.586 122.136,515.752 125.5,478C 125.167,475.833 124.833,473.667 124.5,471.5C 114.159,477.849 103.159,482.183 91.5,484.5C 80.7251,486.718 70.7251,490.885 61.5,497C 34.9773,518.536 16.8106,545.703 7,578.5C 5.92456,582.77 5.42456,587.103 5.5,591.5C 3.5,591.5 1.5,591.5 -0.5,591.5C -0.5,589.833 -0.5,588.167 -0.5,586.5C 0.461384,584.735 0.794717,582.735 0.5,580.5C 6.26605,560.3 15.2661,541.634 27.5,524.5C 28.1667,524.5 28.5,524.167 28.5,523.5C 31.5162,520.48 34.1829,517.146 36.5,513.5C 37.1667,513.5 37.5,513.167 37.5,512.5C 49.3293,497.92 63.9959,487.253 81.5,480.5C 97.4335,479.082 111.767,473.749 124.5,464.5C 126.514,459.321 129.847,455.155 134.5,452C 146.323,447.254 157.656,441.754 168.5,435.5C 188.828,432.17 207.495,424.67 224.5,413C 232.5,409.667 240.5,406.333 248.5,403C 254.39,401.309 259.056,402.809 262.5,407.5C 262.351,411.001 263.351,411.334 265.5,408.5C 266.71,408.068 267.71,407.401 268.5,406.5C 270.027,406.573 271.027,405.906 271.5,404.5C 272.955,392.7 273.622,380.7 273.5,368.5C 273.333,361.167 273.167,353.833 273,346.5C 272.148,345.429 271.315,344.429 270.5,343.5C 269.07,339.646 267.403,335.979 265.5,332.5C 264.453,326.98 263.12,321.646 261.5,316.5C 261.802,313.941 261.468,311.607 260.5,309.5C 260.622,304.768 260.122,300.102 259,295.5C 257.698,296.085 256.531,296.751 255.5,297.5C 249.847,298.327 244.847,296.993 240.5,293.5C 240.5,292.833 240.167,292.5 239.5,292.5C 238.136,290.809 236.803,289.142 235.5,287.5C 235.068,286.29 234.401,285.29 233.5,284.5C 233.068,283.29 232.401,282.29 231.5,281.5C 231.068,280.29 230.401,279.29 229.5,278.5C 229.068,277.29 228.401,276.29 227.5,275.5C 227.672,274.508 227.338,273.842 226.5,273.5C 224.732,263.604 222.398,253.937 219.5,244.5C 219.048,233.594 221.214,223.261 226,213.5C 229.061,208.386 233.561,206.053 239.5,206.5C 239.001,202.51 238.501,198.51 238,194.5C 237.392,192.934 236.558,191.6 235.5,190.5C 235.081,182.871 233.747,175.537 231.5,168.5C 231.672,167.508 231.338,166.842 230.5,166.5C 230.405,164.214 229.738,162.214 228.5,160.5C 228.024,156.007 227.358,151.673 226.5,147.5C 226.292,143.121 226.625,138.787 227.5,134.5C 227.199,132.578 226.533,130.912 225.5,129.5C 225.596,123.802 226.096,118.135 227,112.5C 227.997,110.677 229.164,109.01 230.5,107.5C 231.167,107.5 231.5,107.167 231.5,106.5C 232.268,105.737 232.768,104.737 233,103.5C 232.933,95.0109 233.933,86.6776 236,78.5C 237.8,74.7093 240.3,71.5426 243.5,69C 241.314,68.3964 241.148,67.2297 243,65.5C 243.667,66.8333 244.333,66.8333 245,65.5C 245.622,62.2615 246.788,59.2615 248.5,56.5C 249.167,56.5 249.5,56.1667 249.5,55.5C 250.167,55.5 250.5,55.1667 250.5,54.5C 251.167,54.5 251.5,54.1667 251.5,53.5C 252.167,53.5 252.5,53.1667 252.5,52.5C 255.138,49.5256 257.805,46.5256 260.5,43.5C 261.167,43.5 261.5,43.1667 261.5,42.5C 262.601,41.1516 263.601,39.6516 264.5,38C 269.506,36.1804 274.506,34.6804 279.5,33.5C 280.316,31.8564 281.65,30.6897 283.5,30C 281.291,29.043 281.457,27.8764 284,26.5C 284.333,26.8333 284.667,27.1667 285,27.5C 287.713,23.9084 290.547,20.4084 293.5,17C 298.715,14.534 304.048,12.7007 309.5,11.5C 311.296,10.2073 312.963,8.70733 314.5,7C 319.273,4.70472 323.939,2.53805 328.5,0.5C 329.492,0.67158 330.158,0.338246 330.5,-0.5 Z M 448.5,29.5 C 446.391,28.6091 444.391,27.4424 442.5,26C 445.196,25.8513 447.196,27.018 448.5,29.5 Z M 269.5,404.5 C 270.167,404.5 270.833,404.5 271.5,404.5C 271.027,405.906 270.027,406.573 268.5,406.5C 268.833,405.833 269.167,405.167 269.5,404.5 Z M 262.5,407.5 C 263.391,408.11 264.391,408.443 265.5,408.5C 263.351,411.334 262.351,411.001 262.5,407.5 Z M 485.5,409.5 C 486.69,412.906 486.023,413.239 483.5,410.5C 484.167,410.167 484.833,409.833 485.5,409.5 Z"/></g>
<g><path style="opacity:0.005" fill="#1a0100" d="M 384.5,-0.5 C 388.167,-0.5 391.833,-0.5 395.5,-0.5C 391.833,0.833333 388.167,0.833333 384.5,-0.5 Z"/></g>
<g><path style="opacity:0.016" fill="#280300" d="M 323.5,1.5 C 324.251,0.426544 325.251,0.259877 326.5,1C 325.552,1.48278 324.552,1.64945 323.5,1.5 Z"/></g>
<g><path style="opacity:0.016" fill="#330000" d="M 402.5,2.5 C 403.833,3.16667 403.833,3.16667 402.5,2.5 Z"/></g>
<g><path style="opacity:0.016" fill="#330000" d="M 404.5,3.5 C 405.833,4.16667 405.833,4.16667 404.5,3.5 Z"/></g>
<g><path style="opacity:0.016" fill="#2a0300" d="M 406.5,6.5 C 407.946,5.38705 409.613,5.22039 411.5,6C 409.866,6.49351 408.199,6.66018 406.5,6.5 Z"/></g>
<g><path style="opacity:0.016" fill="#2a0200" d="M 412.5,7.5 C 413.251,6.42654 414.251,6.25988 415.5,7C 414.552,7.48278 413.552,7.64945 412.5,7.5 Z"/></g>
<g><path style="opacity:0.008" fill="#150000" d="M 309.5,11.5 C 306.999,11.4891 306.832,10.8224 309,9.5C 309.464,10.0944 309.631,10.7611 309.5,11.5 Z"/></g>
<g><path style="opacity:0.005" fill="#0e0100" d="M 448.5,22.5 C 449.497,21.2875 450.497,21.4542 451.5,23C 450.906,23.4643 450.239,23.631 449.5,23.5C 448.833,23.5 448.5,23.1667 448.5,22.5 Z"/></g>
<g><path style="opacity:0.016" fill="#220100" d="M 279.5,33.5 C 274.461,33.5489 274.295,32.8823 279,31.5C 279.464,32.0944 279.631,32.7611 279.5,33.5 Z"/></g>
<g><path style="opacity:0.02" fill="#270400" d="M 261.5,42.5 C 260.833,42.5 260.5,42.8333 260.5,43.5C 259.287,42.5029 259.454,41.5029 261,40.5C 261.464,41.0944 261.631,41.7611 261.5,42.5 Z"/></g>
<g><path style="opacity:0.005" fill="#140100" d="M 252.5,52.5 C 251.833,52.5 251.5,52.8333 251.5,53.5C 250.833,53.5 250.5,53.8333 250.5,54.5C 249.833,54.5 249.5,54.8333 249.5,55.5C 248.833,55.5 248.5,55.8333 248.5,56.5C 247.475,56.1034 247.308,55.4368 248,54.5C 249.333,53.1667 250.667,51.8333 252,50.5C 252.464,51.0944 252.631,51.7611 252.5,52.5 Z"/></g>
<g><path style="opacity:1" fill="#c97c50" d="M 373.5,69.5 C 379.81,70.1541 386.143,70.6541 392.5,71C 412.056,93.4442 417.556,118.944 409,147.5C 406.526,152.11 404.359,156.777 402.5,161.5C 401.609,162.11 400.609,162.443 399.5,162.5C 393.491,162.334 387.491,162.501 381.5,163C 380.944,163.383 380.611,163.883 380.5,164.5C 379.532,167.445 379.366,170.445 380,173.5C 384.442,185.936 387.942,198.603 390.5,211.5C 390.281,212.675 390.614,213.675 391.5,214.5C 392.298,212.922 392.798,211.256 393,209.5C 394.877,214.373 398.377,217.54 403.5,219C 412.076,221.415 420.743,223.415 429.5,225C 441.542,226.425 452.375,223.591 462,216.5C 463.711,216.439 465.044,217.106 466,218.5C 468.283,227.623 467.95,236.623 465,245.5C 460.411,253.41 453.578,258.243 444.5,260C 443.333,261.167 442.167,262.333 441,263.5C 439.971,267.573 439.138,271.573 438.5,275.5C 437.577,274.697 436.577,274.53 435.5,275C 439.192,277.55 440.858,281.05 440.5,285.5C 446.426,307.022 443.259,327.022 431,345.5C 428.536,348.481 425.703,350.814 422.5,352.5C 415.151,363.678 405.151,366.511 392.5,361C 386.333,360.833 380.167,360.667 374,360.5C 362.334,360.289 350.834,361.122 339.5,363C 334.728,360.228 330.561,356.728 327,352.5C 324.239,353.477 322.906,355.477 323,358.5C 322.725,364.702 322.559,370.702 322.5,376.5C 314.99,370.424 307.99,365.424 301.5,361.5C 301.579,358.729 301.079,356.063 300,353.5C 299.667,354.833 299.333,356.167 299,357.5C 298.355,356.354 297.522,355.354 296.5,354.5C 297.706,352.484 297.706,350.484 296.5,348.5C 295.226,350.85 293.893,350.683 292.5,348C 294.776,346.97 295.443,345.47 294.5,343.5C 293.035,344.609 292.035,344.109 291.5,342C 290.175,342.148 289.008,341.982 288,341.5C 287.333,343.167 287.333,344.833 288,346.5C 288.667,347.833 289.333,347.833 290,346.5C 290.11,348.848 291.277,350.348 293.5,351C 292.978,351.561 292.645,352.228 292.5,353C 293.653,354.654 294.987,356.154 296.5,357.5C 296.376,358.107 296.043,358.44 295.5,358.5C 289.634,355.96 284.634,352.293 280.5,347.5C 280.843,345.775 281.843,345.275 283.5,346C 282.448,347.716 283.114,348.716 285.5,349C 284.619,350.793 285.286,351.46 287.5,351C 286.366,349.984 286.699,349.317 288.5,349C 286.561,348.092 285.561,346.592 285.5,344.5C 283.319,344.716 281.653,343.883 280.5,342C 281.996,341.493 283.163,341.993 284,343.5C 285.124,340.558 285.458,337.558 285,334.5C 283.983,336.376 283.149,338.376 282.5,340.5C 282.331,338.883 281.997,337.216 281.5,335.5C 280.808,336.025 280.308,336.692 280,337.5C 279.751,336.376 279.251,335.376 278.5,334.5C 278.167,335 277.833,335.5 277.5,336C 279.382,338.838 279.715,341.671 278.5,344.5C 276.081,342.001 274.414,339.001 273.5,335.5C 273.389,333.352 274.056,333.019 275.5,334.5C 276.59,333.273 277.924,332.44 279.5,332C 280.337,330.989 280.67,329.822 280.5,328.5C 279.5,328.5 278.5,328.5 277.5,328.5C 278.068,325.412 278.068,322.412 277.5,319.5C 276.201,320.09 275.368,321.09 275,322.5C 272.609,318.788 271.276,319.455 271,324.5C 271,321.167 271,317.833 271,314.5C 270.692,315.308 270.192,315.975 269.5,316.5C 268.353,314.235 268.186,311.902 269,309.5C 269.934,313.282 270.768,313.115 271.5,309C 270.946,306.176 270.446,303.343 270,300.5C 269.692,301.308 269.192,301.975 268.5,302.5C 267.824,301.398 267.158,300.398 266.5,299.5C 267.016,280.971 263.849,262.971 257,245.5C 256.11,240.372 255.61,235.205 255.5,230C 257.234,221.442 258.567,212.775 259.5,204C 258.58,196.814 257.413,189.647 256,182.5C 254.676,171.257 255.676,160.257 259,149.5C 260.08,147.004 261.414,144.67 263,142.5C 263.168,136.505 263.002,130.505 262.5,124.5C 261.573,117.557 261.24,110.557 261.5,103.5C 261.085,98.497 262.752,94.3304 266.5,91C 274.11,85.3612 282.443,81.0278 291.5,78C 318.56,70.0833 345.893,67.2499 373.5,69.5 Z"/></g>
<g><path style="opacity:1" fill="#ba6a47" d="M 373.5,69.5 C 393.999,68.9369 414.333,71.4369 434.5,77C 443.575,79.6919 452.241,83.3586 460.5,88C 463.762,90.592 466.262,93.7587 468,97.5C 472.441,110.966 473.608,124.8 471.5,139C 476.224,153.467 477.724,168.3 476,183.5C 475.094,187.279 474.594,191.112 474.5,195C 476.734,209.136 478.734,223.303 480.5,237.5C 478.718,250.852 476.718,264.185 474.5,277.5C 473.833,285.01 473.167,292.677 472.5,300.5C 471.063,303.044 469.563,303.044 468,300.5C 467.833,301 467.667,301.5 467.5,302C 467.856,305.436 468.023,308.936 468,312.5C 468.44,310.924 469.273,309.59 470.5,308.5C 470.167,307.833 469.833,307.167 469.5,306.5C 473.651,303.616 474.318,304.283 471.5,308.5C 471.709,309.086 472.043,309.586 472.5,310C 470.503,311.153 470.17,312.653 471.5,314.5C 472.183,314.137 472.85,313.804 473.5,313.5C 473.5,314.833 473.5,316.167 473.5,317.5C 472.198,316.193 470.865,316.193 469.5,317.5C 468.833,316.833 468.167,316.167 467.5,315.5C 467.167,316 466.833,316.5 466.5,317C 468.043,319.33 468.543,321.83 468,324.5C 467.667,323.5 467.333,322.5 467,321.5C 466.333,320.167 465.667,320.167 465,321.5C 464.307,325.445 464.807,328.445 466.5,330.5C 463.654,330.191 462.154,328.525 462,325.5C 460.017,327.984 457.85,330.317 455.5,332.5C 456.274,333.711 457.107,333.711 458,332.5C 459.496,334.45 459.663,336.45 458.5,338.5C 456.492,336.238 456.159,336.738 457.5,340C 457,340.5 456.5,341 456,341.5C 454.957,339.299 454.123,336.966 453.5,334.5C 452.833,335.833 452.167,337.167 451.5,338.5C 450.833,337.5 450.167,336.5 449.5,335.5C 447.879,339.442 449.212,341.442 453.5,341.5C 452.769,348.435 451.936,348.769 451,342.5C 450.021,345.625 448.187,348.125 445.5,350C 444.258,350.311 443.258,349.811 442.5,348.5C 441.3,351.973 441.634,355.306 443.5,358.5C 437.871,362.794 432.537,367.461 427.5,372.5C 429.308,365.846 428.641,359.513 425.5,353.5C 424.675,352.614 423.675,352.281 422.5,352.5C 425.703,350.814 428.536,348.481 431,345.5C 443.259,327.022 446.426,307.022 440.5,285.5C 442.002,281.864 441.335,278.53 438.5,275.5C 439.138,271.573 439.971,267.573 441,263.5C 442.167,262.333 443.333,261.167 444.5,260C 453.578,258.243 460.411,253.41 465,245.5C 467.95,236.623 468.283,227.623 466,218.5C 465.044,217.106 463.711,216.439 462,216.5C 452.375,223.591 441.542,226.425 429.5,225C 420.743,223.415 412.076,221.415 403.5,219C 398.377,217.54 394.877,214.373 393,209.5C 392.798,211.256 392.298,212.922 391.5,214.5C 390.614,213.675 390.281,212.675 390.5,211.5C 391.647,207.354 391.814,203.02 391,198.5C 387.751,186.931 384.251,175.598 380.5,164.5C 380.611,163.883 380.944,163.383 381.5,163C 387.491,162.501 393.491,162.334 399.5,162.5C 395.999,168.036 397.665,170.703 404.5,170.5C 417.462,168.42 430.462,167.253 443.5,167C 452.208,169.198 459.541,173.698 465.5,180.5C 465.833,179.333 466.167,178.167 466.5,177C 461.428,159.652 449.761,152.319 431.5,155C 421.725,156.721 412.059,158.888 402.5,161.5C 404.359,156.777 406.526,152.11 409,147.5C 417.556,118.944 412.056,93.4442 392.5,71C 386.143,70.6541 379.81,70.1541 373.5,69.5 Z"/></g>
<g><path style="opacity:0.005" fill="#120000" d="M 484.5,74.5 C 483.833,74.5 483.5,74.1667 483.5,73.5C 483.747,71.0248 484.413,71.0248 485.5,73.5C 485.376,74.1067 485.043,74.44 484.5,74.5 Z"/></g>
<g><path style="opacity:0.016" fill="#210100" d="M 490.5,83.5 C 490.167,83.5 489.833,83.5 489.5,83.5C 489.833,79.5 490.167,79.5 490.5,83.5 Z"/></g>
<g><path style="opacity:0.016" fill="#2a0200" d="M 490.5,83.5 C 491.573,84.2506 491.74,85.2506 491,86.5C 490.517,85.552 490.351,84.552 490.5,83.5 Z"/></g>
<g><path style="opacity:0.007" fill="#100000" d="M 491.5,87.5 C 492.613,88.9464 492.78,90.6131 492,92.5C 491.506,90.8659 491.34,89.1992 491.5,87.5 Z"/></g>
<g><path style="opacity:0.004" fill="#000000" d="M 496.5,101.5 C 496.351,100.448 496.517,99.448 497,98.5C 497.74,99.7494 497.573,100.749 496.5,101.5 Z"/></g>
<g><path style="opacity:0.004" fill="#000000" d="M 495.5,101.5 C 495.833,101.5 496.167,101.5 496.5,101.5C 496.315,102.17 495.981,102.17 495.5,101.5 Z"/></g>
<g><path style="opacity:0.004" fill="#170300" d="M 231.5,106.5 C 230.833,106.5 230.5,106.833 230.5,107.5C 229.535,106.279 229.702,104.946 231,103.5C 231.483,104.448 231.649,105.448 231.5,106.5 Z"/></g>
<g><path style="opacity:0.016" fill="#330000" d="M 504.5,123.5 C 504.343,122.127 504.51,120.793 505,119.5C 505.765,121.066 505.598,122.399 504.5,123.5 Z"/></g>
<g><path style="opacity:1" fill="#6e3f23" d="M 261.5,103.5 C 261.24,110.557 261.573,117.557 262.5,124.5C 261.883,124.389 261.383,124.056 261,123.5C 260.179,116.654 260.346,109.987 261.5,103.5 Z"/></g>
<g><path style="opacity:0.016" fill="#2c0100" d="M 224.5,129.5 C 223.362,126.696 223.195,123.696 224,120.5C 224.498,123.482 224.665,126.482 224.5,129.5 Z"/></g>
<g><path style="opacity:0.016" fill="#270200" d="M 503.5,123.5 C 503.833,123.5 504.167,123.5 504.5,123.5C 504.672,124.492 504.338,125.158 503.5,125.5C 503.5,124.833 503.5,124.167 503.5,123.5 Z"/></g>
<g><path style="opacity:0.016" fill="#330000" d="M 502.5,125.5 C 502.833,125.5 503.167,125.5 503.5,125.5C 503.672,126.492 503.338,127.158 502.5,127.5C 502.5,126.833 502.5,126.167 502.5,125.5 Z"/></g>
<g><path style="opacity:0.008" fill="#1a0100" d="M 501.5,127.5 C 501.833,127.5 502.167,127.5 502.5,127.5C 502.672,128.492 502.338,129.158 501.5,129.5C 501.5,128.833 501.5,128.167 501.5,127.5 Z"/></g>
<g><path style="opacity:0.016" fill="#210100" d="M 224.5,129.5 C 224.833,129.5 225.167,129.5 225.5,129.5C 225.167,133.5 224.833,133.5 224.5,129.5 Z"/></g>
<g><path style="opacity:0.016" fill="#310200" d="M 500.5,129.5 C 500.833,129.5 501.167,129.5 501.5,129.5C 501.5,130.167 501.5,130.833 501.5,131.5C 501.167,131.5 500.833,131.5 500.5,131.5C 500.5,130.833 500.5,130.167 500.5,129.5 Z"/></g>
<g><path style="opacity:0.016" fill="#330000" d="M 501.5,131.5 C 502.833,132.167 502.833,132.167 501.5,131.5 Z"/></g>
<g><path style="opacity:0.016" fill="#290200" d="M 503.5,141.5 C 503.338,139.473 503.505,137.473 504,135.5C 504.789,137.712 504.622,139.712 503.5,141.5 Z"/></g>
<g><path style="opacity:0.016" fill="#2a0100" d="M 225.5,147.5 C 224.357,144.024 224.19,140.358 225,136.5C 225.499,140.152 225.665,143.818 225.5,147.5 Z"/></g>
<g><path style="opacity:0.016" fill="#330000" d="M 502.5,141.5 C 502.833,141.5 503.167,141.5 503.5,141.5C 503.315,142.17 502.981,142.17 502.5,141.5 Z"/></g>
<g><path style="opacity:0.008" fill="#000000" d="M 501.5,142.5 C 501.833,142.5 502.167,142.5 502.5,142.5C 502.672,143.492 502.338,144.158 501.5,144.5C 501.5,143.833 501.5,143.167 501.5,142.5 Z"/></g>
<g><path style="opacity:0.004" fill="#1a0100" d="M 500.5,144.5 C 500.833,144.5 501.167,144.5 501.5,144.5C 501.5,145.167 501.5,145.833 501.5,146.5C 501.167,146.5 500.833,146.5 500.5,146.5C 500.5,145.833 500.5,145.167 500.5,144.5 Z"/></g>
<g><path style="opacity:0.004" fill="#000000" d="M 501.5,146.5 C 502.573,147.251 502.74,148.251 502,149.5C 501.517,148.552 501.351,147.552 501.5,146.5 Z"/></g>
<g><path style="opacity:0.008" fill="#1f0100" d="M 225.5,147.5 C 225.833,147.5 226.167,147.5 226.5,147.5C 226.167,160.833 225.833,160.833 225.5,147.5 Z"/></g>
<g><path style="opacity:0.016" fill="#330000" d="M 501.5,153.5 C 501.167,153.5 500.833,153.5 500.5,153.5C 500.833,149.5 501.167,149.5 501.5,153.5 Z"/></g>
<g><path style="opacity:1" fill="#1b0c01" d="M 345.5,164.5 C 345.5,165.833 345.5,167.167 345.5,168.5C 329.58,167.013 313.58,166.18 297.5,166C 289.941,168.88 283.441,173.38 278,179.5C 276.961,178.756 276.461,177.756 276.5,176.5C 280.415,159.421 291.081,151.921 308.5,154C 320.942,154.823 332.942,157.489 344.5,162C 345.252,162.671 345.586,163.504 345.5,164.5 Z"/></g>
<g><path style="opacity:0.016" fill="#270200" d="M 501.5,153.5 C 502.525,153.897 502.692,154.563 502,155.5C 501.536,154.906 501.369,154.239 501.5,153.5 Z"/></g>
<g><path style="opacity:1" fill="#1c0c01" d="M 399.5,162.5 C 400.609,162.443 401.609,162.11 402.5,161.5C 412.059,158.888 421.725,156.721 431.5,155C 449.761,152.319 461.428,159.652 466.5,177C 466.167,178.167 465.833,179.333 465.5,180.5C 459.541,173.698 452.208,169.198 443.5,167C 430.462,167.253 417.462,168.42 404.5,170.5C 397.665,170.703 395.999,168.036 399.5,162.5 Z"/></g>
<g><path style="opacity:0.004" fill="#000000" d="M 502.5,156.5 C 503.833,157.167 503.833,157.167 502.5,156.5 Z"/></g>
<g><path style="opacity:0.008" fill="#1a0100" d="M 501.5,157.5 C 501.833,157.5 502.167,157.5 502.5,157.5C 502.672,158.492 502.338,159.158 501.5,159.5C 501.5,158.833 501.5,158.167 501.5,157.5 Z"/></g>
<g><path style="opacity:0.016" fill="#330000" d="M 500.5,159.5 C 500.833,159.5 501.167,159.5 501.5,159.5C 501.315,160.17 500.981,160.17 500.5,159.5 Z"/></g>
<g><path style="opacity:0.016" fill="#330000" d="M 499.5,160.5 C 499.833,160.5 500.167,160.5 500.5,160.5C 500.315,161.17 499.981,161.17 499.5,160.5 Z"/></g>
<g><path style="opacity:0.016" fill="#210100" d="M 228.5,160.5 C 228.649,161.552 228.483,162.552 228,163.5C 227.26,162.251 227.427,161.251 228.5,160.5 Z"/></g>
<g><path style="opacity:0.02" fill="#2a0800" d="M 498.5,161.5 C 498.833,161.5 499.167,161.5 499.5,161.5C 499.315,162.17 498.981,162.17 498.5,161.5 Z"/></g>
<g><path style="opacity:0.016" fill="#330000" d="M 497.5,162.5 C 497.833,162.5 498.167,162.5 498.5,162.5C 498.315,163.17 497.981,163.17 497.5,162.5 Z"/></g>
<g><path style="opacity:0.016" fill="#2c0100" d="M 497.5,168.5 C 497.343,167.127 497.51,165.793 498,164.5C 498.765,166.066 498.598,167.399 497.5,168.5 Z"/></g>
<g><path style="opacity:1" fill="#b86946" d="M 345.5,164.5 C 346.602,170.336 346.602,176.336 345.5,182.5C 346.272,186.983 346.938,191.483 347.5,196C 348.043,204.251 344.377,209.584 336.5,212C 323.655,216.596 310.488,217.763 297,215.5C 290.423,215.456 283.923,216.122 277.5,217.5C 276.833,217.167 276.167,216.833 275.5,216.5C 278.057,213.785 281.057,211.618 284.5,210C 286.948,206.858 286.781,203.692 284,200.5C 277.16,193.759 274.66,185.759 276.5,176.5C 276.461,177.756 276.961,178.756 278,179.5C 283.441,173.38 289.941,168.88 297.5,166C 313.58,166.18 329.58,167.013 345.5,168.5C 345.5,167.167 345.5,165.833 345.5,164.5 Z"/></g>
<g><path style="opacity:0.016" fill="#310200" d="M 230.5,166.5 C 230.5,167.167 230.5,167.833 230.5,168.5C 229.167,167.833 229.167,167.167 230.5,166.5 Z"/></g>
<g><path style="opacity:0.016" fill="#210100" d="M 230.5,168.5 C 230.833,168.5 231.167,168.5 231.5,168.5C 231.167,172.5 230.833,172.5 230.5,168.5 Z"/></g>
<g><path style="opacity:0.004" fill="#1a0100" d="M 496.5,168.5 C 496.833,168.5 497.167,168.5 497.5,168.5C 497.672,169.492 497.338,170.158 496.5,170.5C 496.5,169.833 496.5,169.167 496.5,168.5 Z"/></g>
<g><path style="opacity:0.005" fill="#120000" d="M 495.5,170.5 C 495.833,170.5 496.167,170.5 496.5,170.5C 496.768,172.099 496.434,173.432 495.5,174.5C 495.5,173.167 495.5,171.833 495.5,170.5 Z"/></g>
<g><path style="opacity:0.016" fill="#2a0200" d="M 232.5,178.5 C 231.378,176.712 231.211,174.712 232,172.5C 232.495,174.473 232.662,176.473 232.5,178.5 Z"/></g>
<g><path style="opacity:1" fill="#1d1006" d="M 312.5,174.5 C 319.887,174.286 326.887,175.786 333.5,179C 325.306,177.552 316.973,177.219 308.5,178C 300.676,179.74 294.342,183.74 289.5,190C 288.833,190.667 288.167,190.667 287.5,190C 293.709,181.237 302.042,176.071 312.5,174.5 Z"/></g>
<g><path style="opacity:1" fill="#0e0602" d="M 408.5,181.5 C 411.475,178.339 415.142,176.172 419.5,175C 427.808,173.752 435.808,174.752 443.5,178C 446.885,179.699 449.052,182.199 450,185.5C 440.643,176.83 429.81,174.33 417.5,178C 414.479,179.18 411.479,180.346 408.5,181.5 Z"/></g>
<g><path style="opacity:0.016" fill="#250100" d="M 494.5,174.5 C 494.833,174.5 495.167,174.5 495.5,174.5C 495.167,179.833 494.833,179.833 494.5,174.5 Z"/></g>
<g><path style="opacity:0.016" fill="#2d0100" d="M 232.5,178.5 C 233.638,181.304 233.805,184.304 233,187.5C 232.502,184.518 232.335,181.518 232.5,178.5 Z"/></g>
<g><path style="opacity:0.004" fill="#000000" d="M 494.5,181.5 C 494.369,180.761 494.536,180.094 495,179.5C 495.692,180.437 495.525,181.103 494.5,181.5 Z"/></g>
<g><path style="opacity:0.016" fill="#2d0100" d="M 493.5,181.5 C 493.833,181.5 494.167,181.5 494.5,181.5C 494.813,185.042 494.479,188.375 493.5,191.5C 493.5,188.167 493.5,184.833 493.5,181.5 Z"/></g>
<g><path style="opacity:1" fill="#3b1f11" d="M 408.5,181.5 C 407.121,184.073 405.121,185.573 402.5,186C 404.114,183.873 406.114,182.373 408.5,181.5 Z"/></g>
<g><path style="opacity:1" fill="#1d1008" d="M 418.5,185.5 C 430.428,183.892 440.761,187.059 449.5,195C 449.355,195.772 449.022,196.439 448.5,197C 442.455,199.642 436.121,200.809 429.5,200.5C 420.404,199.984 411.404,198.817 402.5,197C 401.167,195.667 401.167,194.333 402.5,193C 408.205,191.087 413.538,188.587 418.5,185.5 Z"/></g>
<g><path style="opacity:1" fill="#1e130d" d="M 312.5,185.5 C 317.913,185.229 323.246,185.729 328.5,187C 333.705,189.226 338.705,191.726 343.5,194.5C 335.836,196.328 328.169,198.495 320.5,201C 315.5,201.667 310.5,201.667 305.5,201C 301.312,200.197 297.646,198.364 294.5,195.5C 299.718,190.562 305.718,187.229 312.5,185.5 Z"/></g>
<g><path style="opacity:1" fill="#726d6a" d="M 329.5,190.5 C 328.167,190.5 326.833,190.5 325.5,190.5C 324.115,189.698 324.282,189.031 326,188.5C 327.459,188.808 328.626,189.475 329.5,190.5 Z"/></g>
<g><path style="opacity:0.008" fill="#1a0100" d="M 235.5,190.5 C 235.631,191.239 235.464,191.906 235,192.5C 234.308,191.563 234.475,190.897 235.5,190.5 Z"/></g>
<g><path style="opacity:1" fill="#dcdad9" d="M 325.5,190.5 C 326.833,190.5 328.167,190.5 329.5,190.5C 331.912,190.244 333.579,191.244 334.5,193.5C 331.507,196.169 328.174,197.169 324.5,196.5C 325.348,194.591 325.682,192.591 325.5,190.5 Z"/></g>
<g><path style="opacity:1" fill="#1a0c02" d="M 380.5,164.5 C 384.251,175.598 387.751,186.931 391,198.5C 391.814,203.02 391.647,207.354 390.5,211.5C 387.942,198.603 384.442,185.936 380,173.5C 379.366,170.445 379.532,167.445 380.5,164.5 Z"/></g>
<g><path style="opacity:1" fill="#787370" d="M 417.5,194.5 C 416.596,193.791 416.263,192.791 416.5,191.5C 414.784,191.629 413.117,191.962 411.5,192.5C 412.911,190.461 414.911,189.461 417.5,189.5C 417.5,191.167 417.5,192.833 417.5,194.5 Z"/></g>
<g><path style="opacity:1" fill="#837f7d" d="M 442.5,193.5 C 440.5,192.833 438.5,192.167 436.5,191.5C 436.369,190.624 436.702,189.957 437.5,189.5C 439.786,190.133 441.452,191.466 442.5,193.5 Z"/></g>
<g><path style="opacity:1" fill="#e6e4e4" d="M 417.5,194.5 C 414.983,196.997 412.317,196.83 409.5,194C 410.044,193.283 410.711,192.783 411.5,192.5C 413.117,191.962 414.784,191.629 416.5,191.5C 416.263,192.791 416.596,193.791 417.5,194.5 Z"/></g>
<g><path style="opacity:1" fill="#e6e5e4" d="M 436.5,191.5 C 438.5,192.167 440.5,192.833 442.5,193.5C 442.67,194.822 442.337,195.989 441.5,197C 439.246,198.15 436.913,198.484 434.5,198C 436.016,196.103 436.683,193.936 436.5,191.5 Z"/></g>
<g><path style="opacity:0.016" fill="#210100" d="M 492.5,191.5 C 492.833,191.5 493.167,191.5 493.5,191.5C 493.737,192.791 493.404,193.791 492.5,194.5C 492.5,193.5 492.5,192.5 492.5,191.5 Z"/></g>
<g><path style="opacity:1" fill="#dddbda" d="M 303.5,192.5 C 305.513,193.475 306.846,195.142 307.5,197.5C 305.525,198.578 303.692,198.245 302,196.5C 301.516,194.807 302.016,193.473 303.5,192.5 Z"/></g>
<g><path style="opacity:1" fill="#421e0f" d="M 313.5,191.5 C 312.414,191.62 311.747,192.287 311.5,193.5C 311.543,194.416 311.876,195.083 312.5,195.5C 313.713,197.676 315.38,198.009 317.5,196.5C 318.769,194.305 318.769,192.139 317.5,190C 322.333,188.834 324.167,190.667 323,195.5C 319.403,198.384 315.236,199.218 310.5,198C 307.545,194.72 307.879,191.886 311.5,189.5C 312.522,189.855 313.189,190.522 313.5,191.5 Z"/></g>
<g><path style="opacity:1" fill="#e5e4e3" d="M 313.5,191.5 C 314.853,193.128 314.519,194.462 312.5,195.5C 311.876,195.083 311.543,194.416 311.5,193.5C 311.747,192.287 312.414,191.62 313.5,191.5 Z"/></g>
<g><path style="opacity:1" fill="#3e1c0b" d="M 422.5,190.5 C 421.046,193.4 422.046,194.733 425.5,194.5C 425.5,195.833 426.167,196.5 427.5,196.5C 430.073,194.868 430.739,192.702 429.5,190C 433.62,189.486 435.12,191.32 434,195.5C 429.656,199.128 424.99,199.462 420,196.5C 419.505,194.527 419.338,192.527 419.5,190.5C 420.5,190.5 421.5,190.5 422.5,190.5 Z"/></g>
<g><path style="opacity:1" fill="#dddbd9" d="M 422.5,190.5 C 423.5,190.5 424.5,190.5 425.5,190.5C 425.5,191.833 425.5,193.167 425.5,194.5C 422.046,194.733 421.046,193.4 422.5,190.5 Z"/></g>
<g><path style="opacity:1" fill="#b7b4b2" d="M 425.5,194.5 C 426.833,194.5 427.5,195.167 427.5,196.5C 427.5,195.167 426.833,194.5 425.5,194.5 Z"/></g>
<g><path style="opacity:0.016" fill="#270200" d="M 491.5,194.5 C 491.833,194.5 492.167,194.5 492.5,194.5C 492.167,197.167 491.833,197.167 491.5,194.5 Z"/></g>
<g><path style="opacity:0.016" fill="#260300" d="M 490.5,197.5 C 491.404,198.209 491.737,199.209 491.5,200.5C 495.172,201.045 494.838,201.378 490.5,201.5C 490.5,200.167 490.5,198.833 490.5,197.5 Z"/></g>
<g><path style="opacity:0.016" fill="#270400" d="M 237.5,203.5 C 238.043,203.56 238.376,203.893 238.5,204.5C 236.926,205.631 235.259,205.798 233.5,205C 235.058,204.79 236.391,204.29 237.5,203.5 Z"/></g>
<g><path style="opacity:1" fill="#2a1609" d="M 330.5,202.5 C 332.379,202.393 332.712,202.893 331.5,204C 325.769,206.68 319.769,207.68 313.5,207C 317.5,206.333 321.5,205.667 325.5,205C 327.491,204.626 329.158,203.793 330.5,202.5 Z"/></g>
<g><path style="opacity:1" fill="#1a0e06" d="M 415.5,205.5 C 415.917,204.876 416.584,204.543 417.5,204.5C 421.267,206.277 425.267,207.444 429.5,208C 424.552,208.74 419.885,207.906 415.5,205.5 Z"/></g>
<g><path style="opacity:1" fill="#bc7349" d="M 233.5,212.5 C 235.857,212.337 238.19,212.503 240.5,213C 243.585,214.96 246.752,216.793 250,218.5C 251.457,222.741 251.791,227.074 251,231.5C 248.891,224.456 244.391,219.623 237.5,217C 235.005,216.843 232.672,216.676 230.5,216.5C 231.524,215.148 232.524,213.815 233.5,212.5 Z"/></g>
<g><path style="opacity:1" fill="#b86a46" d="M 503.5,230.5 C 500.738,237.463 497.238,244.129 493,250.5C 492.913,257.644 491.913,264.644 490,271.5C 489.5,272 489,272.5 488.5,273C 485.413,273.259 482.413,273.759 479.5,274.5C 480.851,264.091 482.685,253.758 485,243.5C 484.471,234.688 486.138,226.355 490,218.5C 491.637,216.19 493.804,214.69 496.5,214C 490.262,213.543 486.095,216.376 484,222.5C 482.279,219.685 481.612,216.685 482,213.5C 485.833,210.648 490,209.148 494.5,209C 499.543,215.293 502.543,222.46 503.5,230.5 Z"/></g>
<g><path style="opacity:1" fill="#b86946" d="M 259.5,288.5 C 259.5,286.167 259.5,283.833 259.5,281.5C 255.419,280.6 251.919,278.6 249,275.5C 246.895,268.544 244.895,261.544 243,254.5C 238.667,249.5 234.333,244.5 230,239.5C 228.601,236.637 227.601,233.637 227,230.5C 226.501,236.157 226.334,241.824 226.5,247.5C 224.714,238.059 225.547,228.725 229,219.5C 234.137,217.887 238.47,219.22 242,223.5C 245.585,229.002 248.919,234.669 252,240.5C 253.183,248.05 255.183,255.384 258,262.5C 260.176,271.246 260.676,279.912 259.5,288.5 Z"/></g>
<g><path style="opacity:1" fill="#b76846" d="M 397.5,225.5 C 397.491,227.308 397.991,228.975 399,230.5C 402,234.167 405,237.833 408,241.5C 409.118,245.923 407.951,249.59 404.5,252.5C 404.082,253.222 403.416,253.722 402.5,254C 397.497,253.868 392.83,254.868 388.5,257C 390.058,257.21 391.391,257.71 392.5,258.5C 386.875,258.645 381.542,259.978 376.5,262.5C 373.184,261.653 369.85,260.486 366.5,259C 364.792,256.957 362.792,255.29 360.5,254C 354.5,253.667 348.5,253.333 342.5,253C 341.177,252.184 340.511,251.017 340.5,249.5C 345.422,250.798 345.589,249.798 341,246.5C 340.333,243.5 340.333,240.5 341,237.5C 344.586,234.101 347.086,230.101 348.5,225.5C 348.369,224.761 348.536,224.094 349,223.5C 349.333,224.5 349.667,225.5 350,226.5C 351.351,224.981 352.851,223.648 354.5,222.5C 355.167,226.833 355.833,231.167 356.5,235.5C 360.067,232.023 363.4,228.356 366.5,224.5C 368.64,228.591 370.473,232.925 372,237.5C 377.892,242.966 384.392,243.799 391.5,240C 395.807,233.659 395.14,227.826 389.5,222.5C 390.723,221.386 392.056,221.219 393.5,222C 395.319,222.74 396.652,223.907 397.5,225.5 Z"/></g>
<g><path style="opacity:0.016" fill="#270200" d="M 218.5,244.5 C 217.355,240.689 217.188,236.689 218,232.5C 218.499,236.486 218.666,240.486 218.5,244.5 Z"/></g>
<g><path style="opacity:1" fill="#c87b4f" d="M 259.5,288.5 C 252.432,294.459 246.265,293.459 241,285.5C 237.667,280.167 234.333,274.833 231,269.5C 230.088,262.014 228.588,254.681 226.5,247.5C 226.334,241.824 226.501,236.157 227,230.5C 227.601,233.637 228.601,236.637 230,239.5C 234.333,244.5 238.667,249.5 243,254.5C 244.895,261.544 246.895,268.544 249,275.5C 251.919,278.6 255.419,280.6 259.5,281.5C 259.5,283.833 259.5,286.167 259.5,288.5 Z"/></g>
<g><path style="opacity:1" fill="#c87a4f" d="M 503.5,230.5 C 503.667,242.505 503.5,254.505 503,266.5C 500.601,274.467 496.767,281.634 491.5,288C 482.17,288.495 478.17,283.995 479.5,274.5C 482.413,273.759 485.413,273.259 488.5,273C 489,272.5 489.5,272 490,271.5C 491.913,264.644 492.913,257.644 493,250.5C 497.238,244.129 500.738,237.463 503.5,230.5 Z"/></g>
<g><path style="opacity:1" fill="#1e0f04" d="M 348.5,225.5 C 347.086,230.101 344.586,234.101 341,237.5C 340.333,240.5 340.333,243.5 341,246.5C 345.589,249.798 345.422,250.798 340.5,249.5C 337.237,246.203 336.071,242.203 337,237.5C 340.336,232.998 344.169,228.998 348.5,225.5 Z"/></g>
<g><path style="opacity:1" fill="#1c0d03" d="M 397.5,225.5 C 402.442,229.611 406.942,234.277 411,239.5C 411.701,242.928 411.368,246.262 410,249.5C 408.512,251.16 406.679,252.16 404.5,252.5C 407.951,249.59 409.118,245.923 408,241.5C 405,237.833 402,234.167 399,230.5C 397.991,228.975 397.491,227.308 397.5,225.5 Z"/></g>
<g><path style="opacity:0.008" fill="#200100" d="M 510.5,264.5 C 510.333,252.495 510.5,240.495 511,228.5C 511.826,240.674 511.66,252.674 510.5,264.5 Z"/></g>
<g><path style="opacity:0.016" fill="#270200" d="M 218.5,244.5 C 218.833,244.5 219.167,244.5 219.5,244.5C 219.167,251.167 218.833,251.167 218.5,244.5 Z"/></g>
<g><path style="opacity:1" fill="#1c0d03" d="M 349.5,246.5 C 352.976,245.357 356.642,245.19 360.5,246C 365.618,248.643 370.785,251.143 376,253.5C 381.044,251.468 385.877,248.968 390.5,246C 394.625,245.146 398.625,245.48 402.5,247C 395.157,246.009 389.157,248.342 384.5,254C 380.445,256.34 376.111,257.007 371.5,256C 366.997,252.245 361.997,249.245 356.5,247C 354.19,246.503 351.857,246.337 349.5,246.5 Z"/></g>
<g><path style="opacity:1" fill="#5f371c" d="M 376.5,262.5 C 381.542,259.978 386.875,258.645 392.5,258.5C 407.469,262.233 420.636,269.233 432,279.5C 435.327,283.972 436.16,288.805 434.5,294C 433.167,294.667 431.833,294.667 430.5,294C 413.937,280.856 395.27,276.023 374.5,279.5C 363.291,275.964 352.624,277.131 342.5,283C 334.985,286.846 328.318,291.846 322.5,298C 321.833,298.667 321.167,298.667 320.5,298C 317.249,293.486 316.749,288.653 319,283.5C 329.962,272.27 342.796,263.937 357.5,258.5C 363.675,260.627 370.008,261.961 376.5,262.5 Z"/></g>
<g><path style="opacity:0.016" fill="#2c0100" d="M 509.5,264.5 C 509.833,264.5 510.167,264.5 510.5,264.5C 510.768,266.099 510.434,267.432 509.5,268.5C 509.5,267.167 509.5,265.833 509.5,264.5 Z"/></g>
<g><path style="opacity:0.016" fill="#2a0200" d="M 508.5,268.5 C 508.833,268.5 509.167,268.5 509.5,268.5C 509.167,272.5 508.833,272.5 508.5,268.5 Z"/></g>
<g><path style="opacity:0.008" fill="#1a0100" d="M 507.5,274.5 C 507.369,273.761 507.536,273.094 508,272.5C 508.692,273.437 508.525,274.103 507.5,274.5 Z"/></g>
<g><path style="opacity:0.008" fill="#1a0100" d="M 226.5,273.5 C 226.5,274.167 226.5,274.833 226.5,275.5C 225.167,274.833 225.167,274.167 226.5,273.5 Z"/></g>
<g><path style="opacity:0.016" fill="#210100" d="M 506.5,274.5 C 506.833,274.5 507.167,274.5 507.5,274.5C 507.737,275.791 507.404,276.791 506.5,277.5C 506.5,276.5 506.5,275.5 506.5,274.5 Z"/></g>
<g><path style="opacity:0.004" fill="#150200" d="M 226.5,275.5 C 226.833,275.5 227.167,275.5 227.5,275.5C 227.167,278.167 226.833,278.167 226.5,275.5 Z"/></g>
<g><path style="opacity:0.004" fill="#1a0100" d="M 505.5,277.5 C 505.833,277.5 506.167,277.5 506.5,277.5C 506.672,278.492 506.338,279.158 505.5,279.5C 505.5,278.833 505.5,278.167 505.5,277.5 Z"/></g>
<g><path style="opacity:0.008" fill="#1a0100" d="M 229.5,278.5 C 229.631,279.239 229.464,279.906 229,280.5C 228.308,279.563 228.475,278.897 229.5,278.5 Z"/></g>
<g><path style="opacity:0.016" fill="#330000" d="M 504.5,279.5 C 504.833,279.5 505.167,279.5 505.5,279.5C 505.315,280.17 504.981,280.17 504.5,279.5 Z"/></g>
<g><path style="opacity:1" fill="#180c04" d="M 438.5,275.5 C 441.335,278.53 442.002,281.864 440.5,285.5C 440.858,281.05 439.192,277.55 435.5,275C 436.577,274.53 437.577,274.697 438.5,275.5 Z"/></g>
<g><path style="opacity:0.016" fill="#270200" d="M 503.5,280.5 C 503.833,280.5 504.167,280.5 504.5,280.5C 504.672,281.492 504.338,282.158 503.5,282.5C 503.5,281.833 503.5,281.167 503.5,280.5 Z"/></g>
<g><path style="opacity:0.008" fill="#1a0100" d="M 231.5,281.5 C 231.631,282.239 231.464,282.906 231,283.5C 230.308,282.563 230.475,281.897 231.5,281.5 Z"/></g>
<g><path style="opacity:0.008" fill="#150200" d="M 502.5,282.5 C 502.833,282.5 503.167,282.5 503.5,282.5C 503.672,283.492 503.338,284.158 502.5,284.5C 502.5,283.833 502.5,283.167 502.5,282.5 Z"/></g>
<g><path style="opacity:0.004" fill="#150200" d="M 233.5,284.5 C 233.631,285.239 233.464,285.906 233,286.5C 232.308,285.563 232.475,284.897 233.5,284.5 Z"/></g>
<g><path style="opacity:0.008" fill="#150200" d="M 501.5,284.5 C 501.833,284.5 502.167,284.5 502.5,284.5C 502.672,285.492 502.338,286.158 501.5,286.5C 501.5,285.833 501.5,285.167 501.5,284.5 Z"/></g>
<g><path style="opacity:1" fill="#1d0f04" d="M 408.5,289.5 C 408.44,290.043 408.107,290.376 407.5,290.5C 396.555,286.093 385.389,285.426 374,288.5C 361.682,284.971 349.849,286.304 338.5,292.5C 345.162,287.422 352.662,284.089 361,282.5C 365.667,283.167 370.333,283.833 375,284.5C 380.402,282.9 385.902,282.4 391.5,283C 397.391,284.684 403.057,286.851 408.5,289.5 Z"/></g>
<g><path style="opacity:1" fill="#a9623d" d="M 408.5,289.5 C 413.426,292.119 418.093,294.953 422.5,298C 417.435,306.901 410.102,313.068 400.5,316.5C 399.903,315.861 399.07,315.528 398,315.5C 382.806,317.936 367.639,318.103 352.5,316C 353.416,316.278 354.082,316.778 354.5,317.5C 345.259,314.205 336.759,308.538 329,300.5C 328.837,298.613 329.671,297.113 331.5,296C 333.886,294.807 336.22,293.64 338.5,292.5C 349.849,286.304 361.682,284.971 374,288.5C 385.389,285.426 396.555,286.093 407.5,290.5C 408.107,290.376 408.44,290.043 408.5,289.5 Z"/></g>
<g><path style="opacity:0.008" fill="#1a0100" d="M 500.5,286.5 C 500.833,286.5 501.167,286.5 501.5,286.5C 501.672,287.492 501.338,288.158 500.5,288.5C 500.5,287.833 500.5,287.167 500.5,286.5 Z"/></g>
<g><path style="opacity:0.004" fill="#150200" d="M 235.5,287.5 C 235.631,288.239 235.464,288.906 235,289.5C 234.308,288.563 234.475,287.897 235.5,287.5 Z"/></g>
<g><path style="opacity:0.016" fill="#330000" d="M 499.5,288.5 C 499.833,288.5 500.167,288.5 500.5,288.5C 500.315,289.17 499.981,289.17 499.5,288.5 Z"/></g>
<g><path style="opacity:0.016" fill="#330000" d="M 498.5,289.5 C 498.833,289.5 499.167,289.5 499.5,289.5C 499.315,290.17 498.981,290.17 498.5,289.5 Z"/></g>
<g><path style="opacity:0.016" fill="#330000" d="M 497.5,290.5 C 497.833,290.5 498.167,290.5 498.5,290.5C 498.315,291.17 497.981,291.17 497.5,290.5 Z"/></g>
<g><path style="opacity:0.016" fill="#330000" d="M 496.5,291.5 C 496.833,291.5 497.167,291.5 497.5,291.5C 497.315,292.17 496.981,292.17 496.5,291.5 Z"/></g>
<g><path style="opacity:0.016" fill="#330000" d="M 495.5,292.5 C 495.833,292.5 496.167,292.5 496.5,292.5C 496.315,293.17 495.981,293.17 495.5,292.5 Z"/></g>
<g><path style="opacity:0.004" fill="#210100" d="M 239.5,292.5 C 240.167,292.5 240.5,292.833 240.5,293.5C 240.44,294.043 240.107,294.376 239.5,294.5C 238.227,293.743 238.227,293.077 239.5,292.5 Z"/></g>
<g><path style="opacity:0.008" fill="#1a0100" d="M 493.5,294.5 C 493.5,294.167 493.5,293.833 493.5,293.5C 494.167,293.5 494.833,293.5 495.5,293.5C 495.158,294.338 494.492,294.672 493.5,294.5 Z"/></g>
<g><path style="opacity:0.016" fill="#210100" d="M 490.5,295.5 C 490.5,295.167 490.5,294.833 490.5,294.5C 491.5,294.5 492.5,294.5 493.5,294.5C 492.791,295.404 491.791,295.737 490.5,295.5 Z"/></g>
<g><path style="opacity:0.006" fill="#090000" d="M 490.5,295.5 C 489.054,296.613 487.387,296.78 485.5,296C 487.134,295.506 488.801,295.34 490.5,295.5 Z"/></g>
<g><path style="opacity:0.016" fill="#2a0200" d="M 255.5,298.5 C 252.696,299.638 249.696,299.805 246.5,299C 249.482,298.502 252.482,298.335 255.5,298.5 Z"/></g>
<g><path style="opacity:0.004" fill="#170000" d="M 255.5,298.5 C 255.5,298.167 255.5,297.833 255.5,297.5C 256.5,297.5 257.5,297.5 258.5,297.5C 258.649,298.552 258.483,299.552 258,300.5C 257.583,299.244 256.75,298.577 255.5,298.5 Z"/></g>
<g><path style="opacity:1" fill="#7b4429" d="M 474.5,277.5 C 474.749,289.531 474.416,301.531 473.5,313.5C 472.85,313.804 472.183,314.137 471.5,314.5C 470.17,312.653 470.503,311.153 472.5,310C 472.043,309.586 471.709,309.086 471.5,308.5C 474.318,304.283 473.651,303.616 469.5,306.5C 469.833,307.167 470.167,307.833 470.5,308.5C 469.273,309.59 468.44,310.924 468,312.5C 468.023,308.936 467.856,305.436 467.5,302C 467.667,301.5 467.833,301 468,300.5C 469.563,303.044 471.063,303.044 472.5,300.5C 473.167,292.677 473.833,285.01 474.5,277.5 Z"/></g>
<g><path style="opacity:1" fill="#19130f" d="M 343.5,298.5 C 346.21,296.892 349.21,295.725 352.5,295C 365.675,295.334 378.842,295.167 392,294.5C 400.36,294.972 408.526,296.472 416.5,299C 414.275,299.561 412.275,300.561 410.5,302C 398.962,303.241 387.462,304.741 376,306.5C 364.172,305.877 352.339,305.377 340.5,305C 338.82,304.653 337.82,303.653 337.5,302C 339.034,300.065 341.034,298.899 343.5,298.5 Z"/></g>
<g><path style="opacity:1" fill="#e5e4e3" d="M 343.5,298.5 C 365.168,298.458 386.834,298.458 408.5,298.5C 408.5,299.5 408.5,300.5 408.5,301.5C 405.011,301.137 401.511,300.804 398,300.5C 386.467,303.378 374.8,304.044 363,302.5C 357.119,302.745 351.286,303.411 345.5,304.5C 341.061,303.85 340.394,301.85 343.5,298.5 Z"/></g>
<g><path style="opacity:0.016" fill="#230200" d="M 482.5,293.5 C 481.698,301.422 481.198,309.422 481,317.5C 480.833,313.5 480.667,309.5 480.5,305.5C 480.509,301.107 481.176,297.107 482.5,293.5 Z"/></g>
<g><path style="opacity:0.016" fill="#260100" d="M 260.5,309.5 C 260.5,311.833 260.5,314.167 260.5,316.5C 259.167,314.167 259.167,311.833 260.5,309.5 Z"/></g>
<g><path style="opacity:1" fill="#130701" d="M 400.5,316.5 C 385.246,321.352 369.913,321.685 354.5,317.5C 354.082,316.778 353.416,316.278 352.5,316C 367.639,318.103 382.806,317.936 398,315.5C 399.07,315.528 399.903,315.861 400.5,316.5 Z"/></g>
<g><path style="opacity:0.006" fill="#1c0100" d="M 260.5,316.5 C 260.833,316.5 261.167,316.5 261.5,316.5C 261.167,323.167 260.833,323.167 260.5,316.5 Z"/></g>
<g><path style="opacity:1" fill="#5f361c" d="M 352.5,322.5 C 369.887,323.467 387.22,323.8 404.5,323.5C 404.023,324.478 403.357,325.311 402.5,326C 394.068,329.05 386.068,332.884 378.5,337.5C 370.791,333.2 362.791,329.367 354.5,326C 353.177,325.184 352.511,324.017 352.5,322.5 Z"/></g>
<g><path style="opacity:0.02" fill="#280400" d="M 478.5,323.5 C 479.833,324.833 479.833,326.167 478.5,327.5C 478.5,326.167 478.5,324.833 478.5,323.5 Z"/></g>
<g><path style="opacity:1" fill="#955936" d="M 266.5,299.5 C 267.158,300.398 267.824,301.398 268.5,302.5C 269.192,301.975 269.692,301.308 270,300.5C 270.446,303.343 270.946,306.176 271.5,309C 270.768,313.115 269.934,313.282 269,309.5C 268.186,311.902 268.353,314.235 269.5,316.5C 270.192,315.975 270.692,315.308 271,314.5C 271,317.833 271,321.167 271,324.5C 271.276,319.455 272.609,318.788 275,322.5C 275.368,321.09 276.201,320.09 277.5,319.5C 278.068,322.412 278.068,325.412 277.5,328.5C 278.5,328.5 279.5,328.5 280.5,328.5C 280.67,329.822 280.337,330.989 279.5,332C 277.924,332.44 276.59,333.273 275.5,334.5C 274.056,333.019 273.389,333.352 273.5,335.5C 268.718,324.103 266.384,312.103 266.5,299.5 Z"/></g>
<g><path style="opacity:0.016" fill="#250100" d="M 477.5,327.5 C 477.833,327.5 478.167,327.5 478.5,327.5C 478.768,329.099 478.434,330.432 477.5,331.5C 477.5,330.167 477.5,328.833 477.5,327.5 Z"/></g>
<g><path style="opacity:0.016" fill="#2a0200" d="M 476.5,331.5 C 476.833,331.5 477.167,331.5 477.5,331.5C 477.737,332.791 477.404,333.791 476.5,334.5C 476.5,333.5 476.5,332.5 476.5,331.5 Z"/></g>
<g><path style="opacity:0.016" fill="#330000" d="M 265.5,332.5 C 265.631,333.239 265.464,333.906 265,334.5C 264.308,333.563 264.475,332.897 265.5,332.5 Z"/></g>
<g><path style="opacity:0.016" fill="#330000" d="M 475.5,334.5 C 475.833,334.5 476.167,334.5 476.5,334.5C 476.672,335.492 476.338,336.158 475.5,336.5C 475.5,335.833 475.5,335.167 475.5,334.5 Z"/></g>
<g><path style="opacity:0.008" fill="#150200" d="M 265.5,335.5 C 266.525,335.897 266.692,336.563 266,337.5C 265.536,336.906 265.369,336.239 265.5,335.5 Z"/></g>
<g><path style="opacity:1" fill="#7b482a" d="M 280.5,347.5 C 279.599,346.71 278.932,345.71 278.5,344.5C 279.715,341.671 279.382,338.838 277.5,336C 277.833,335.5 278.167,335 278.5,334.5C 279.251,335.376 279.751,336.376 280,337.5C 280.308,336.692 280.808,336.025 281.5,335.5C 281.997,337.216 282.331,338.883 282.5,340.5C 283.149,338.376 283.983,336.376 285,334.5C 285.458,337.558 285.124,340.558 284,343.5C 283.163,341.993 281.996,341.493 280.5,342C 281.653,343.883 283.319,344.716 285.5,344.5C 285.561,346.592 286.561,348.092 288.5,349C 286.699,349.317 286.366,349.984 287.5,351C 285.286,351.46 284.619,350.793 285.5,349C 283.114,348.716 282.448,347.716 283.5,346C 281.843,345.275 280.843,345.775 280.5,347.5 Z"/></g>
<g><path style="opacity:0.016" fill="#210100" d="M 474.5,336.5 C 474.833,336.5 475.167,336.5 475.5,336.5C 475.737,337.791 475.404,338.791 474.5,339.5C 474.5,338.5 474.5,337.5 474.5,336.5 Z"/></g>
<g><path style="opacity:0.004" fill="#150200" d="M 473.5,339.5 C 473.833,339.5 474.167,339.5 474.5,339.5C 474.167,342.167 473.833,342.167 473.5,339.5 Z"/></g>
<g><path style="opacity:0.008" fill="#1a0100" d="M 270.5,343.5 C 270.631,344.239 270.464,344.906 270,345.5C 269.308,344.563 269.475,343.897 270.5,343.5 Z"/></g>
<g><path style="opacity:1" fill="#8a4d30" d="M 473.5,317.5 C 472.807,330.719 467.474,341.552 457.5,350C 452.639,352.593 447.972,355.427 443.5,358.5C 441.634,355.306 441.3,351.973 442.5,348.5C 443.258,349.811 444.258,350.311 445.5,350C 448.187,348.125 450.021,345.625 451,342.5C 451.936,348.769 452.769,348.435 453.5,341.5C 449.212,341.442 447.879,339.442 449.5,335.5C 450.167,336.5 450.833,337.5 451.5,338.5C 452.167,337.167 452.833,335.833 453.5,334.5C 454.123,336.966 454.957,339.299 456,341.5C 456.5,341 457,340.5 457.5,340C 456.159,336.738 456.492,336.238 458.5,338.5C 459.663,336.45 459.496,334.45 458,332.5C 457.107,333.711 456.274,333.711 455.5,332.5C 457.85,330.317 460.017,327.984 462,325.5C 462.154,328.525 463.654,330.191 466.5,330.5C 464.807,328.445 464.307,325.445 465,321.5C 465.667,320.167 466.333,320.167 467,321.5C 467.333,322.5 467.667,323.5 468,324.5C 468.543,321.83 468.043,319.33 466.5,317C 466.833,316.5 467.167,316 467.5,315.5C 468.167,316.167 468.833,316.833 469.5,317.5C 470.865,316.193 472.198,316.193 473.5,317.5 Z"/></g>
<g><path style="opacity:0.016" fill="#2c0200" d="M 469.5,346.5 C 470.641,349.64 470.808,352.973 470,356.5C 469.502,353.183 469.335,349.85 469.5,346.5 Z"/></g>
<g><path style="opacity:1" fill="#5d351b" d="M 422.5,352.5 C 423.675,352.281 424.675,352.614 425.5,353.5C 428.641,359.513 429.308,365.846 427.5,372.5C 418.538,390.238 404.038,398.905 384,398.5C 373.837,397.924 363.67,397.424 353.5,397C 346.942,396.037 340.942,393.704 335.5,390C 331.636,384.971 327.303,380.471 322.5,376.5C 322.559,370.702 322.725,364.702 323,358.5C 322.906,355.477 324.239,353.477 327,352.5C 330.561,356.728 334.728,360.228 339.5,363C 350.834,361.122 362.334,360.289 374,360.5C 380.167,360.667 386.333,360.833 392.5,361C 405.151,366.511 415.151,363.678 422.5,352.5 Z"/></g>
<g><path style="opacity:1" fill="#b16143" d="M 464.5,372.5 C 463.842,371.602 463.176,370.602 462.5,369.5C 455.32,373.174 449.153,378.174 444,384.5C 439.08,392.672 434.413,401.005 430,409.5C 421.267,419.118 410.434,424.952 397.5,427C 384.195,428.443 370.862,428.777 357.5,428C 341.748,426.542 328.914,419.708 319,407.5C 313.602,398.766 307.435,390.6 300.5,383C 294.51,377.518 287.51,374.018 279.5,372.5C 279.171,366.463 279.504,360.463 280.5,354.5C 291.5,361.333 302.5,368.167 313.5,375C 321.189,381.691 328.522,388.691 335.5,396C 341.581,398.771 347.914,400.771 354.5,402C 368.833,402.667 383.167,402.667 397.5,402C 407.217,400.227 415.384,395.727 422,388.5C 432.172,372.832 445.672,360.832 462.5,352.5C 463.333,359.161 463.999,365.827 464.5,372.5 Z"/></g>
<g><path style="opacity:1" fill="#905634" d="M 301.5,361.5 C 299.181,361.008 297.181,360.008 295.5,358.5C 296.043,358.44 296.376,358.107 296.5,357.5C 294.987,356.154 293.653,354.654 292.5,353C 292.645,352.228 292.978,351.561 293.5,351C 291.277,350.348 290.11,348.848 290,346.5C 289.333,347.833 288.667,347.833 288,346.5C 287.333,344.833 287.333,343.167 288,341.5C 289.008,341.982 290.175,342.148 291.5,342C 292.035,344.109 293.035,344.609 294.5,343.5C 295.443,345.47 294.776,346.97 292.5,348C 293.893,350.683 295.226,350.85 296.5,348.5C 297.706,350.484 297.706,352.484 296.5,354.5C 297.522,355.354 298.355,356.354 299,357.5C 299.333,356.167 299.667,354.833 300,353.5C 301.079,356.063 301.579,358.729 301.5,361.5 Z"/></g>
<g><path style="opacity:0.016" fill="#270200" d="M 471.5,369.5 C 471.167,369.5 470.833,369.5 470.5,369.5C 470.833,353.5 471.167,353.5 471.5,369.5 Z"/></g>
<g><path style="opacity:1" fill="#c97c50" d="M 464.5,372.5 C 466.298,387.247 468.798,401.913 472,416.5C 472.368,417.91 473.201,418.91 474.5,419.5C 475.167,417.5 475.833,415.5 476.5,413.5C 480.007,415.754 483.673,417.754 487.5,419.5C 491.646,444.814 488.313,469.147 477.5,492.5C 461.177,493.333 444.844,493.833 428.5,494C 425.471,494.539 422.471,495.206 419.5,496C 409.608,498.319 402.441,503.819 398,512.5C 404.78,504.692 413.28,499.859 423.5,498C 440.51,497.167 457.51,497.334 474.5,498.5C 466.646,513.531 456.313,526.698 443.5,538C 429.683,548.336 416.517,559.503 404,571.5C 398.547,577.415 394.38,584.082 391.5,591.5C 379.833,591.5 368.167,591.5 356.5,591.5C 355.908,588.309 354.741,585.309 353,582.5C 345.914,572.078 337.414,562.912 327.5,555C 305.454,540.791 288.12,522.291 275.5,499.5C 290.991,498.504 306.658,498.17 322.5,498.5C 333.17,499.086 342.337,503.086 350,510.5C 350.667,509.833 350.667,509.167 350,508.5C 344.062,502.23 336.895,498.063 328.5,496C 309.877,494.733 291.21,494.066 272.5,494C 260.432,469.522 256.765,443.855 261.5,417C 264.994,415.421 268.327,413.587 271.5,411.5C 272.167,413.5 272.833,415.5 273.5,417.5C 274.799,416.91 275.632,415.91 276,414.5C 277.638,400.53 278.805,386.53 279.5,372.5C 287.51,374.018 294.51,377.518 300.5,383C 307.435,390.6 313.602,398.766 319,407.5C 328.914,419.708 341.748,426.542 357.5,428C 370.862,428.777 384.195,428.443 397.5,427C 410.434,424.952 421.267,419.118 430,409.5C 434.413,401.005 439.08,392.672 444,384.5C 449.153,378.174 455.32,373.174 462.5,369.5C 463.176,370.602 463.842,371.602 464.5,372.5 Z"/></g>
<g><path style="opacity:0.016" fill="#290200" d="M 471.5,369.5 C 472.638,372.304 472.805,375.304 472,378.5C 471.502,375.518 471.335,372.518 471.5,369.5 Z"/></g>
<g><path style="opacity:0.016" fill="#270200" d="M 271.5,404.5 C 270.833,404.5 270.167,404.5 269.5,404.5C 270.82,385.985 271.487,385.985 271.5,404.5 Z"/></g>
<g><path style="opacity:0.016" fill="#2f0100" d="M 491.5,401.5 C 493.966,400.366 496.633,400.199 499.5,401C 496.854,401.497 494.187,401.664 491.5,401.5 Z"/></g>
<g><path style="opacity:0.008" fill="#1a0100" d="M 500.5,402.5 C 500.897,401.475 501.563,401.308 502.5,402C 501.906,402.464 501.239,402.631 500.5,402.5 Z"/></g>
<g><path style="opacity:0.016" fill="#330000" d="M 509.5,406.5 C 509.897,405.475 510.563,405.308 511.5,406C 510.906,406.464 510.239,406.631 509.5,406.5 Z"/></g>
<g><path style="opacity:0.008" fill="#1a0100" d="M 512.5,407.5 C 512.897,406.475 513.563,406.308 514.5,407C 513.906,407.464 513.239,407.631 512.5,407.5 Z"/></g>
<g><path style="opacity:0.016" fill="#270200" d="M 229.5,409.5 C 229.897,408.475 230.563,408.308 231.5,409C 230.906,409.464 230.239,409.631 229.5,409.5 Z"/></g>
<g><path style="opacity:1" fill="#1355a4" d="M 352.5,591.5 C 343.833,591.5 335.167,591.5 326.5,591.5C 323.279,585.441 319.446,579.775 315,574.5C 301.855,562.266 288.522,550.266 275,538.5C 254.197,513.213 241.863,484.213 238,451.5C 236.783,439.197 236.283,426.863 236.5,414.5C 241.968,411.94 247.635,409.607 253.5,407.5C 255.029,407.529 256.196,408.196 257,409.5C 249.932,452.194 259.599,490.527 286,524.5C 298.964,539.134 313.464,551.967 329.5,563C 338.974,571.159 346.641,580.659 352.5,591.5 Z"/></g>
<g><path style="opacity:1" fill="#1255a4" d="M 512.5,414.5 C 514.682,449.429 507.849,482.429 492,513.5C 487.494,521.18 482.494,528.513 477,535.5C 461.365,549.467 446.032,563.8 431,578.5C 427.801,582.508 425.301,586.841 423.5,591.5C 414.5,591.5 405.5,591.5 396.5,591.5C 398.711,586.456 401.544,581.789 405,577.5C 416.282,565.879 428.448,555.379 441.5,546C 483.402,509.979 500.235,464.479 492,409.5C 492.804,408.196 493.971,407.529 495.5,407.5C 501.302,409.569 506.968,411.903 512.5,414.5 Z"/></g>
<g><path style="opacity:1" fill="#e80231" d="M 512.5,414.5 C 515.05,415.358 517.55,416.358 520,417.5C 520.508,433.582 519.508,449.582 517,465.5C 511.145,501.052 494.978,530.885 468.5,555C 453.622,564.378 441.622,576.544 432.5,591.5C 429.5,591.5 426.5,591.5 423.5,591.5C 425.301,586.841 427.801,582.508 431,578.5C 446.032,563.8 461.365,549.467 477,535.5C 482.494,528.513 487.494,521.18 492,513.5C 507.849,482.429 514.682,449.429 512.5,414.5 Z"/></g>
<g><path style="opacity:1" fill="#e80331" d="M 236.5,414.5 C 236.283,426.863 236.783,439.197 238,451.5C 241.863,484.213 254.197,513.213 275,538.5C 288.522,550.266 301.855,562.266 315,574.5C 319.446,579.775 323.279,585.441 326.5,591.5C 323.167,591.5 319.833,591.5 316.5,591.5C 314.86,587.559 312.694,583.892 310,580.5C 304.833,575.333 299.667,570.167 294.5,565C 283.64,557.8 273.807,549.3 265,539.5C 237.831,503.088 226.331,462.088 230.5,416.5C 232.45,415.628 234.45,414.961 236.5,414.5 Z"/></g>
<g><path style="opacity:1" fill="#eae7e5" d="M 311.5,591.5 C 249.5,591.5 187.5,591.5 125.5,591.5C 124.893,552.088 126.393,512.754 130,473.5C 129.405,467.41 131.239,462.243 135.5,458C 145.779,453.527 155.779,448.527 165.5,443C 175.691,439.535 186.025,436.535 196.5,434C 205.603,429.737 214.603,425.237 223.5,420.5C 224.501,433.513 225.668,446.513 227,459.5C 231.541,497.414 247.374,529.58 274.5,556C 289.011,565.68 301.345,577.514 311.5,591.5 Z"/></g>
<g><path style="opacity:1" fill="#eae7e5" d="M 621.5,521.5 C 621.511,533.69 622.177,545.69 623.5,557.5C 623.5,568.833 623.5,580.167 623.5,591.5C 561.5,591.5 499.5,591.5 437.5,591.5C 443.216,583.276 449.883,575.776 457.5,569C 474.711,557.456 488.878,542.956 500,525.5C 517.328,492.706 525.828,457.706 525.5,420.5C 535.554,426.194 545.888,431.361 556.5,436C 565.713,437.553 574.713,439.887 583.5,443C 592.992,448.946 602.992,453.946 613.5,458C 615.617,459.731 617.117,461.898 618,464.5C 619.809,483.464 620.975,502.464 621.5,521.5 Z"/></g>
<g><path style="opacity:0.016" fill="#270200" d="M 191.5,428.5 C 191.897,427.475 192.563,427.308 193.5,428C 192.906,428.464 192.239,428.631 191.5,428.5 Z"/></g>
<g><path style="opacity:0.016" fill="#2a0200" d="M 168.5,434.5 C 169.251,433.427 170.251,433.26 171.5,434C 170.552,434.483 169.552,434.649 168.5,434.5 Z"/></g>
<g><path style="opacity:0.016" fill="#2a0200" d="M 576.5,434.5 C 577.251,433.427 578.251,433.26 579.5,434C 578.552,434.483 577.552,434.649 576.5,434.5 Z"/></g>
<g><path style="opacity:0.016" fill="#330000" d="M 168.5,434.5 C 168.5,434.833 168.5,435.167 168.5,435.5C 165.833,435.167 165.833,434.833 168.5,434.5 Z"/></g>
<g><path style="opacity:0.016" fill="#330000" d="M 580.5,435.5 C 580.897,434.475 581.563,434.308 582.5,435C 581.906,435.464 581.239,435.631 580.5,435.5 Z"/></g>
<g><path style="opacity:0.016" fill="#270200" d="M 163.5,436.5 C 163.897,435.475 164.563,435.308 165.5,436C 164.906,436.464 164.239,436.631 163.5,436.5 Z"/></g>
<g><path style="opacity:0.016" fill="#330000" d="M 604.5,447.5 C 604.897,446.475 605.563,446.308 606.5,447C 605.906,447.464 605.239,447.631 604.5,447.5 Z"/></g>
<g><path style="opacity:0.004" fill="#1a0100" d="M 609.5,448.5 C 608.761,448.631 608.094,448.464 607.5,448C 608.437,447.308 609.103,447.475 609.5,448.5 Z"/></g>
<g><path style="opacity:0.016" fill="#330000" d="M 609.5,449.5 C 609.5,449.167 609.5,448.833 609.5,448.5C 612.167,448.833 612.167,449.167 609.5,449.5 Z"/></g>
<g><path style="opacity:0.004" fill="#1a0100" d="M 612.5,450.5 C 612.897,449.475 613.563,449.308 614.5,450C 613.906,450.464 613.239,450.631 612.5,450.5 Z"/></g>
<g><path style="opacity:0.005" fill="#120000" d="M 621.5,458.5 C 620.833,458.5 620.5,458.167 620.5,457.5C 620.747,455.025 621.413,455.025 622.5,457.5C 622.376,458.107 622.043,458.44 621.5,458.5 Z"/></g>
<g><path style="opacity:0.006" fill="#150000" d="M 124.5,464.5 C 121.999,464.489 121.832,463.822 124,462.5C 124.464,463.094 124.631,463.761 124.5,464.5 Z"/></g>
<g><path style="opacity:0.005" fill="#1d0100" d="M 624.5,464.5 C 623.833,464.5 623.5,464.167 623.5,463.5C 623.351,462.448 623.517,461.448 624,460.5C 624.465,461.931 625.299,463.097 626.5,464C 625.906,464.464 625.239,464.631 624.5,464.5 Z"/></g>
<g><path style="opacity:0.016" fill="#330000" d="M 635.5,469.5 C 636.833,470.167 636.833,470.167 635.5,469.5 Z"/></g>
<g><path style="opacity:0.016" fill="#270200" d="M 109.5,471.5 C 109.897,470.475 110.563,470.308 111.5,471C 110.906,471.464 110.239,471.631 109.5,471.5 Z"/></g>
<g><path style="opacity:0.016" fill="#330000" d="M 641.5,473.5 C 641.897,472.475 642.563,472.308 643.5,473C 642.906,473.464 642.239,473.631 641.5,473.5 Z"/></g>
<g><path style="opacity:0.02" fill="#210500" d="M 102.5,474.5 C 102.897,473.475 103.563,473.308 104.5,474C 103.906,474.464 103.239,474.631 102.5,474.5 Z"/></g>
<g><path style="opacity:1" fill="#ba6a47" d="M 120.5,591.5 C 117.5,591.5 114.5,591.5 111.5,591.5C 111.725,586.752 111.225,582.085 110,577.5C 106.194,568.554 101.861,559.888 97,551.5C 95.1857,545.802 94.019,539.969 93.5,534C 95.9919,525.188 98.4919,516.354 101,507.5C 101.667,502.5 101.667,497.5 101,492.5C 99.8773,489.751 98.3773,487.251 96.5,485C 94.8659,484.506 93.1992,484.34 91.5,484.5C 103.159,482.183 114.159,477.849 124.5,471.5C 124.833,473.667 125.167,475.833 125.5,478C 122.136,515.752 120.469,553.586 120.5,591.5 Z"/></g>
<g><path style="opacity:1" fill="#ba6a47" d="M 657.5,484.5 C 651.623,483.862 648.123,486.528 647,492.5C 646.333,497.167 646.333,501.833 647,506.5C 649.329,514.823 651.662,523.156 654,531.5C 655.093,538.473 654.093,545.139 651,551.5C 647.255,559.324 643.255,566.991 639,574.5C 637.11,580.01 636.277,585.676 636.5,591.5C 633.833,591.5 631.167,591.5 628.5,591.5C 628.199,553.107 626.532,514.774 623.5,476.5C 623.833,474.833 624.167,473.167 624.5,471.5C 634.841,477.849 645.841,482.183 657.5,484.5 Z"/></g>
<g><path style="opacity:0.008" fill="#150200" d="M 644.5,474.5 C 644.897,473.475 645.563,473.308 646.5,474C 645.906,474.464 645.239,474.631 644.5,474.5 Z"/></g>
<g><path style="opacity:0.016" fill="#2a0200" d="M 85.5,478.5 C 86.2506,477.427 87.2506,477.26 88.5,478C 87.552,478.483 86.552,478.649 85.5,478.5 Z"/></g>
<g><path style="opacity:0.016" fill="#2a0200" d="M 81.5,479.5 C 82.2506,478.427 83.2506,478.26 84.5,479C 83.552,479.483 82.552,479.649 81.5,479.5 Z"/></g>
<g><path style="opacity:0.016" fill="#330000" d="M 81.5,479.5 C 81.5,479.833 81.5,480.167 81.5,480.5C 78.8333,480.167 78.8333,479.833 81.5,479.5 Z"/></g>
<g><path style="opacity:0.02" fill="#210500" d="M 76.5,481.5 C 76.8966,480.475 77.5632,480.308 78.5,481C 77.9056,481.464 77.2389,481.631 76.5,481.5 Z"/></g>
<g><path style="opacity:1" fill="#ca7c50" d="M 657.5,484.5 C 668.291,486.727 678.291,490.894 687.5,497C 701.98,509.49 714.48,523.656 725,539.5C 735.43,555.352 741.597,572.685 743.5,591.5C 707.833,591.5 672.167,591.5 636.5,591.5C 636.277,585.676 637.11,580.01 639,574.5C 643.255,566.991 647.255,559.324 651,551.5C 654.093,545.139 655.093,538.473 654,531.5C 651.662,523.156 649.329,514.823 647,506.5C 646.333,501.833 646.333,497.167 647,492.5C 648.123,486.528 651.623,483.862 657.5,484.5 Z"/></g>
<g><path style="opacity:1" fill="#ca7c50" d="M 91.5,484.5 C 93.1992,484.34 94.8659,484.506 96.5,485C 98.3773,487.251 99.8773,489.751 101,492.5C 101.667,497.5 101.667,502.5 101,507.5C 98.4919,516.354 95.9919,525.188 93.5,534C 94.019,539.969 95.1857,545.802 97,551.5C 101.861,559.888 106.194,568.554 110,577.5C 111.225,582.085 111.725,586.752 111.5,591.5C 76.1667,591.5 40.8333,591.5 5.5,591.5C 5.42456,587.103 5.92456,582.77 7,578.5C 16.8106,545.703 34.9773,518.536 61.5,497C 70.7251,490.885 80.7251,486.718 91.5,484.5 Z"/></g>
<g><path style="opacity:0.004" fill="#1a0200" d="M 689.5,491.5 C 690.497,490.287 691.497,490.454 692.5,492C 691.906,492.464 691.239,492.631 690.5,492.5C 689.833,492.5 689.5,492.167 689.5,491.5 Z"/></g>
<g><path style="opacity:1" fill="#62381e" d="M 322.5,498.5 C 306.658,498.17 290.991,498.504 275.5,499.5C 274.957,499.44 274.624,499.107 274.5,498.5C 290.662,497.173 306.662,497.173 322.5,498.5 Z"/></g>
<g><path style="opacity:0.005" fill="#120000" d="M 37.5,512.5 C 36.8333,512.5 36.5,512.833 36.5,513.5C 35.2875,512.503 35.4542,511.503 37,510.5C 37.4643,511.094 37.631,511.761 37.5,512.5 Z"/></g>
<g><path style="opacity:0.005" fill="#120000" d="M 712.5,513.5 C 711.833,513.5 711.5,513.167 711.5,512.5C 711.747,510.025 712.413,510.025 713.5,512.5C 713.376,513.107 713.043,513.44 712.5,513.5 Z"/></g>
<g><path style="opacity:0.004" fill="#1a0200" d="M 28.5,523.5 C 27.8333,523.5 27.5,523.833 27.5,524.5C 26.2875,523.503 26.4542,522.503 28,521.5C 28.4643,522.094 28.631,522.761 28.5,523.5 Z"/></g>
<g><path style="opacity:0.004" fill="#1a0200" d="M 721.5,524.5 C 720.833,524.5 720.5,524.167 720.5,523.5C 720.747,521.025 721.413,521.025 722.5,523.5C 722.376,524.107 722.043,524.44 721.5,524.5 Z"/></g>
<g><path style="opacity:1" fill="#aaa7a5" d="M 621.5,521.5 C 622.958,533.303 623.624,545.303 623.5,557.5C 622.177,545.69 621.511,533.69 621.5,521.5 Z"/></g>
<g><path style="opacity:0.016" fill="#2c0100" d="M -0.5,576.5 C 0.434475,577.568 0.767809,578.901 0.5,580.5C 0.166667,580.5 -0.166667,580.5 -0.5,580.5C -0.5,579.167 -0.5,577.833 -0.5,576.5 Z"/></g>
<g><path style="opacity:0.016" fill="#2a0300" d="M 749.5,576.5 C 749.5,577.833 749.5,579.167 749.5,580.5C 749.167,580.5 748.833,580.5 748.5,580.5C 748.232,578.901 748.566,577.568 749.5,576.5 Z"/></g>
</svg>
