<?xml version="1.0" encoding="UTF-8"?>
<!DOCTYPE svg PUBLIC "-//W3C//DTD SVG 1.1//EN" "http://www.w3.org/Graphics/SVG/1.1/DTD/svg11.dtd">
<svg xmlns="http://www.w3.org/2000/svg" version="1.1" width="750px" height="575px" style="shape-rendering:geometricPrecision; text-rendering:geometricPrecision; image-rendering:optimizeQuality; fill-rule:evenodd; clip-rule:evenodd" xmlns:xlink="http://www.w3.org/1999/xlink">
<g><path style="opacity:0.939" fill="#1d0d03" d="M 371.5,-0.5 C 373.5,-0.5 375.5,-0.5 377.5,-0.5C 379.142,0.802988 380.809,2.13632 382.5,3.5C 382.957,5.55672 383.957,5.55672 385.5,3.5C 389.588,2.07881 393.588,2.24547 397.5,4C 398.94,7.35229 401.44,9.51896 405,10.5C 406.128,12.3453 406.628,14.3453 406.5,16.5C 411.953,18.1533 417.286,19.9866 422.5,22C 426.314,23.222 429.314,25.3887 431.5,28.5C 435.961,29.5448 439.961,31.5448 443.5,34.5C 445.743,36.5318 448.243,37.1984 451,36.5C 452.585,37.0439 454.085,37.7106 455.5,38.5C 455.5,39.1667 455.833,39.5 456.5,39.5C 456.5,40.1667 456.833,40.5 457.5,40.5C 457.5,41.1667 457.833,41.5 458.5,41.5C 458.328,42.4916 458.662,43.1583 459.5,43.5C 459.328,44.4916 459.662,45.1583 460.5,45.5C 465.413,45.7242 469.079,48.0575 471.5,52.5C 471.5,53.1667 471.833,53.5 472.5,53.5C 472.5,54.5 472.5,55.5 472.5,56.5C 475.079,56.3939 477.412,57.0605 479.5,58.5C 479.5,59.1667 479.833,59.5 480.5,59.5C 482.151,60.9701 483.985,62.3034 486,63.5C 487.119,66.0571 487.285,68.5571 486.5,71C 491.011,71.6804 493.677,74.1804 494.5,78.5C 494.5,79.1667 494.5,79.8333 494.5,80.5C 493.167,81.8333 493.167,83.1667 494.5,84.5C 494.5,85.1667 494.833,85.5 495.5,85.5C 496.582,88.659 498.416,91.3257 501,93.5C 500.887,98.8287 502.553,103.495 506,107.5C 506.49,108.793 506.657,110.127 506.5,111.5C 505.751,112.531 505.085,113.698 504.5,115C 505.435,117.381 505.768,119.881 505.5,122.5C 504.596,123.209 504.263,124.209 504.5,125.5C 503.833,125.5 503.5,125.833 503.5,126.5C 502.662,126.842 502.328,127.508 502.5,128.5C 501.662,128.842 501.328,129.508 501.5,130.5C 500.596,131.209 500.263,132.209 500.5,133.5C 499.596,134.209 499.263,135.209 499.5,136.5C 498.833,136.5 498.5,136.833 498.5,137.5C 497.833,137.5 497.5,137.833 497.5,138.5C 496.446,149.991 495.779,161.657 495.5,173.5C 494.532,175.607 494.198,177.941 494.5,180.5C 493.539,182.265 493.205,184.265 493.5,186.5C 492.549,187.919 492.216,189.585 492.5,191.5C 491.751,192.531 491.085,193.698 490.5,195C 497.216,193.361 502.216,195.527 505.5,201.5C 505.328,202.492 505.662,203.158 506.5,203.5C 506.263,204.791 506.596,205.791 507.5,206.5C 507.232,208.099 507.566,209.432 508.5,210.5C 508.5,218.833 508.5,227.167 508.5,235.5C 507.539,237.265 507.205,239.265 507.5,241.5C 506.549,242.919 506.216,244.585 506.5,246.5C 505.596,247.209 505.263,248.209 505.5,249.5C 504.596,250.209 504.263,251.209 504.5,252.5C 503.662,252.842 503.328,253.508 503.5,254.5C 502.662,254.842 502.328,255.508 502.5,256.5C 501.662,256.842 501.328,257.508 501.5,258.5C 500.662,258.842 500.328,259.508 500.5,260.5C 499.662,260.842 499.328,261.508 499.5,262.5C 498.833,262.5 498.5,262.833 498.5,263.5C 497.662,263.842 497.328,264.508 497.5,265.5C 496.833,265.5 496.5,265.833 496.5,266.5C 495.833,266.5 495.5,266.833 495.5,267.5C 494.662,267.842 494.328,268.508 494.5,269.5C 493.833,269.5 493.5,269.833 493.5,270.5C 492.662,270.842 492.328,271.508 492.5,272.5C 491.596,273.209 491.263,274.209 491.5,275.5C 490.662,275.842 490.328,276.508 490.5,277.5C 489.833,277.5 489.5,277.833 489.5,278.5C 488.833,278.5 488.5,278.833 488.5,279.5C 487.833,279.5 487.5,279.833 487.5,280.5C 486.508,280.328 485.842,280.662 485.5,281.5C 484.209,281.263 483.209,281.596 482.5,282.5C 481.833,282.5 481.167,282.5 480.5,282.5C 480.44,281.957 480.107,281.624 479.5,281.5C 478.505,287.128 478.171,292.794 478.5,298.5C 477.518,301.962 477.185,305.629 477.5,309.5C 476.539,311.265 476.205,313.265 476.5,315.5C 475.549,316.919 475.216,318.585 475.5,320.5C 474.566,321.568 474.232,322.901 474.5,324.5C 473.596,325.209 473.263,326.209 473.5,327.5C 472.167,333.167 472.167,338.833 473.5,344.5C 473.178,350.358 473.511,356.025 474.5,361.5C 474.187,365.042 474.521,368.375 475.5,371.5C 475.4,377.82 476.4,383.82 478.5,389.5C 479.899,390.89 481.566,391.89 483.5,392.5C 485.394,395.187 486.061,395.187 485.5,392.5C 486.674,391.486 487.34,390.153 487.5,388.5C 489.843,386.251 492.677,385.251 496,385.5C 502.246,387.193 508.413,389.193 514.5,391.5C 519.372,394.017 524.372,396.351 529.5,398.5C 536.686,403.261 544.353,407.261 552.5,410.5C 558.997,413.878 565.997,415.878 573.5,416.5C 587.201,422.31 600.868,428.476 614.5,435C 617.976,437.157 620.643,439.99 622.5,443.5C 622.328,444.492 622.662,445.158 623.5,445.5C 623.833,448.167 624.167,448.167 624.5,445.5C 624.932,447.807 626.598,449.64 629.5,451C 634.299,453.735 639.299,455.902 644.5,457.5C 653.679,460.382 663.012,463.216 672.5,466C 688.639,472.56 701.972,482.727 712.5,496.5C 712.5,497.167 712.833,497.5 713.5,497.5C 714.864,499.191 716.197,500.858 717.5,502.5C 717.5,503.167 717.833,503.5 718.5,503.5C 719.811,506.135 721.478,508.469 723.5,510.5C 723.5,511.167 723.833,511.5 724.5,511.5C 726.597,515.372 728.931,519.039 731.5,522.5C 731.5,523.167 731.833,523.5 732.5,523.5C 732.992,525.819 733.992,527.819 735.5,529.5C 735.328,530.492 735.662,531.158 736.5,531.5C 736.66,533.153 737.326,534.486 738.5,535.5C 738.328,536.492 738.662,537.158 739.5,537.5C 739.328,538.492 739.662,539.158 740.5,539.5C 740.796,541.403 741.463,543.07 742.5,544.5C 742.328,545.492 742.662,546.158 743.5,546.5C 744.463,551.049 745.796,555.383 747.5,559.5C 747.232,561.099 747.566,562.432 748.5,563.5C 748.216,565.415 748.549,567.081 749.5,568.5C 749.5,570.5 749.5,572.5 749.5,574.5C 747.5,574.5 745.5,574.5 743.5,574.5C 742.554,561.156 739.054,548.49 733,536.5C 721.772,514.571 706.605,495.737 687.5,480C 678.285,473.891 668.285,469.724 657.5,467.5C 645.841,465.183 634.841,460.849 624.5,454.5C 623.734,466.19 624.234,477.857 626,489.5C 627.499,517.815 628.332,546.149 628.5,574.5C 626.833,574.5 625.167,574.5 623.5,574.5C 623.808,555.454 623.475,536.454 622.5,517.5C 622.53,506.971 621.863,496.638 620.5,486.5C 620.305,473.462 619.471,460.462 618,447.5C 617.117,444.898 615.617,442.731 613.5,441C 603.221,436.527 593.221,431.527 583.5,426C 573.253,422.75 562.92,419.75 552.5,417C 543.195,413.014 534.195,408.514 525.5,403.5C 524.605,413.667 523.939,424 523.5,434.5C 520.035,468.749 507.868,499.415 487,526.5C 478.339,535.732 468.839,543.898 458.5,551C 450.551,558.109 443.551,565.942 437.5,574.5C 435.833,574.5 434.167,574.5 432.5,574.5C 441.955,559.211 454.289,546.711 469.5,537C 497.464,510.906 513.631,478.739 518,440.5C 520.06,427.229 520.727,413.896 520,400.5C 512.014,396.758 503.847,393.425 495.5,390.5C 493.391,390.775 492.058,391.942 491.5,394C 499.9,448.484 483.233,493.484 441.5,529C 428.783,538.044 416.949,548.211 406,559.5C 402.214,564.117 399.048,569.117 396.5,574.5C 395.167,574.5 393.833,574.5 392.5,574.5C 393.428,570.638 394.928,566.971 397,563.5C 410.266,547.566 425.433,533.733 442.5,522C 455.643,510.368 466.309,496.868 474.5,481.5C 457.51,480.334 440.51,480.167 423.5,481C 416.223,482.474 409.557,485.307 403.5,489.5C 403.167,489.5 402.833,489.5 402.5,489.5C 409.417,482.011 418.083,477.844 428.5,477C 444.844,476.833 461.177,476.333 477.5,475.5C 488.464,451.853 491.798,427.186 487.5,401.5C 484.339,400.087 481.339,398.42 478.5,396.5C 477.813,398.274 476.98,399.941 476,401.5C 475.667,401.167 475.333,400.833 475,400.5C 472.379,391.643 470.545,382.643 469.5,373.5C 468.535,362.516 467.702,351.516 467,340.5C 463.882,345.286 460.382,349.786 456.5,354C 442.379,362.072 429.713,372.072 418.5,384C 414.153,387.673 409.153,390.006 403.5,391C 385.081,394.614 366.747,394.281 348.5,390C 338.392,385.223 329.392,378.889 321.5,371C 311.044,365.289 300.377,359.956 289.5,355C 284.446,352.611 279.946,349.445 276,345.5C 275.5,355.828 275.334,366.161 275.5,376.5C 276.029,385.32 275.196,393.987 273,402.5C 272.282,403.451 271.449,403.617 270.5,403C 269.91,401.491 269.244,399.991 268.5,398.5C 266.021,400.076 263.354,401.076 260.5,401.5C 257.135,427.258 260.802,451.925 271.5,475.5C 287.823,476.333 304.156,476.833 320.5,477C 332.68,478.339 342.846,483.506 351,492.5C 351.667,493.167 351.667,493.833 351,494.5C 343.546,486.622 334.379,482.289 323.5,481.5C 307.328,480.173 290.995,480.173 274.5,481.5C 274.624,482.107 274.957,482.44 275.5,482.5C 288.12,505.291 305.454,523.791 327.5,538C 336.704,545.537 344.871,554.037 352,563.5C 354.072,566.971 355.572,570.638 356.5,574.5C 355.167,574.5 353.833,574.5 352.5,574.5C 346.943,563.428 339.277,553.928 329.5,546C 313.129,534.633 298.296,521.466 285,506.5C 259.444,473.107 250.277,435.607 257.5,394C 256.942,391.942 255.609,390.775 253.5,390.5C 245.153,393.425 236.986,396.758 229,400.5C 227.218,435.709 234.218,469.043 250,500.5C 261.025,519.859 275.858,535.693 294.5,548C 303.554,555.54 310.887,564.374 316.5,574.5C 314.833,574.5 313.167,574.5 311.5,574.5C 301.624,560.791 289.624,549.291 275.5,540C 255.745,522.007 241.912,500.174 234,474.5C 229.984,461.397 227.15,448.064 225.5,434.5C 225.061,424 224.395,413.667 223.5,403.5C 214.62,408.207 205.62,412.707 196.5,417C 186.025,419.535 175.691,422.535 165.5,426C 155.748,431.543 145.748,436.543 135.5,441C 133.383,442.731 131.883,444.898 131,447.5C 129.598,460.466 128.764,473.466 128.5,486.5C 127.099,496.97 126.433,507.636 126.5,518.5C 125.566,537.143 125.233,555.81 125.5,574.5C 123.833,574.5 122.167,574.5 120.5,574.5C 120.436,535.411 122.102,496.411 125.5,457.5C 125.167,456.5 124.833,455.5 124.5,454.5C 114.18,460.836 103.18,465.17 91.5,467.5C 79.0692,470.215 67.7359,475.381 57.5,483C 33.3752,504.462 16.5419,530.628 7,561.5C 5.92456,565.77 5.42456,570.103 5.5,574.5C 3.5,574.5 1.5,574.5 -0.5,574.5C -0.5,572.833 -0.5,571.167 -0.5,569.5C 0.451145,568.081 0.784479,566.415 0.5,564.5C 1.86843,560.702 2.86843,556.702 3.5,552.5C 5.01977,550.11 6.01977,547.443 6.5,544.5C 10.1473,537.205 13.8139,529.872 17.5,522.5C 23.3325,513.517 29.6658,504.85 36.5,496.5C 37.1667,496.5 37.5,496.167 37.5,495.5C 49.3293,480.92 63.9959,470.253 81.5,463.5C 84.1522,463.59 86.4855,462.924 88.5,461.5C 101.632,460.104 113.632,455.604 124.5,448C 123.833,447.667 123.167,447.333 122.5,447C 123.701,446.097 124.535,444.931 125,443.5C 125.333,444.167 125.667,444.833 126,445.5C 127.439,442.397 129.273,439.564 131.5,437C 142.414,432.209 153.081,426.876 163.5,421C 173.691,417.535 184.025,414.535 194.5,412C 212.012,402.243 230.012,393.577 248.5,386C 251.5,385.333 254.5,385.333 257.5,386C 259.667,386.833 261.167,388.333 262,390.5C 262.333,389.833 262.667,389.167 263,388.5C 264,390.167 265.333,391.5 267,392.5C 267.414,392.043 267.914,391.709 268.5,391.5C 271.096,373.018 271.096,354.685 268.5,336.5C 268.672,335.508 268.338,334.842 267.5,334.5C 267.598,332.447 266.931,330.78 265.5,329.5C 265.279,326.933 264.612,324.599 263.5,322.5C 263.557,318.118 262.557,314.118 260.5,310.5C 261.354,301.334 261.354,292.001 260.5,282.5C 258.5,282.5 256.5,282.5 254.5,282.5C 253.205,281.512 251.872,280.512 250.5,279.5C 250.5,278.833 250.167,278.5 249.5,278.5C 248.488,277.128 247.488,275.795 246.5,274.5C 244.397,271.28 242.064,268.28 239.5,265.5C 239.573,263.973 238.906,262.973 237.5,262.5C 237.672,261.508 237.338,260.842 236.5,260.5C 236.598,258.447 235.931,256.78 234.5,255.5C 233.945,251.603 232.945,247.937 231.5,244.5C 230.198,232.498 230.198,220.498 231.5,208.5C 232.89,203.895 235.223,199.728 238.5,196C 241.312,194.451 244.312,193.618 247.5,193.5C 248.172,194.267 249.005,194.934 250,195.5C 249.787,191.983 248.954,188.649 247.5,185.5C 247.784,183.585 247.451,181.919 246.5,180.5C 246.784,178.585 246.451,176.919 245.5,175.5C 245.795,173.265 245.461,171.265 244.5,169.5C 243.371,156.694 242.371,144.027 241.5,131.5C 241.5,130.833 241.167,130.5 240.5,130.5C 239.03,128.61 238.03,126.443 237.5,124C 238.66,122.003 238.66,120.169 237.5,118.5C 233.715,114.371 233.548,110.037 237,105.5C 237.499,101.514 237.666,97.5138 237.5,93.5C 238.833,93.1667 238.833,92.8333 237.5,92.5C 237.5,91.8333 237.167,91.5 236.5,91.5C 235.259,88.4921 235.426,85.4921 237,82.5C 238.699,81.5939 240.533,81.2606 242.5,81.5C 242.737,80.209 242.404,79.209 241.5,78.5C 241.5,77.5 241.5,76.5 241.5,75.5C 243.224,72.4582 245.891,70.6249 249.5,70C 248.748,69.3292 248.414,68.4959 248.5,67.5C 249.267,66.828 249.934,65.9947 250.5,65C 252.708,64.8091 254.708,64.3091 256.5,63.5C 257.451,62.0813 257.784,60.4147 257.5,58.5C 258.823,56.2377 260.157,53.9044 261.5,51.5C 264.317,49.1833 266.984,46.6833 269.5,44C 267.646,40.2742 268.646,37.6076 272.5,36C 280.5,35.3333 280.5,34.6667 272.5,34C 274.676,33.8371 276.509,33.0037 278,31.5C 278.333,32.1667 278.667,32.8333 279,33.5C 280.593,29.1127 283.759,26.7793 288.5,26.5C 289.251,27.5735 290.251,27.7401 291.5,27C 290.065,24.7328 290.398,22.7328 292.5,21C 295.099,20.231 297.599,20.3977 300,21.5C 302.473,20.8803 304.973,20.2136 307.5,19.5C 309.926,16.0831 313.259,14.7498 317.5,15.5C 318.668,18.4689 320.001,18.8022 321.5,16.5C 324.09,15.8717 326.423,14.705 328.5,13C 330.473,12.5045 332.473,12.3379 334.5,12.5C 335.167,13.8333 335.833,13.8333 336.5,12.5C 337.167,12.5 337.5,12.1667 337.5,11.5C 338.267,10.828 338.934,9.9947 339.5,9C 346.097,8.24657 352.763,7.07991 359.5,5.5C 360.907,7.30826 362.074,9.30826 363,11.5C 363.791,10.255 364.291,8.92167 364.5,7.5C 366.117,4.21573 368.45,1.54906 371.5,-0.5 Z M 382.5,3.5 C 383.5,3.5 384.5,3.5 385.5,3.5C 383.957,5.55672 382.957,5.55672 382.5,3.5 Z M 359.5,5.5 C 360.609,5.55688 361.609,5.89022 362.5,6.5C 362.409,8.69772 363.075,9.03105 364.5,7.5C 364.291,8.92167 363.791,10.255 363,11.5C 362.074,9.30826 360.907,7.30826 359.5,5.5 Z M 317.5,15.5 C 318.833,15.8333 320.167,16.1667 321.5,16.5C 320.001,18.8022 318.668,18.4689 317.5,15.5 Z M 487.5,388.5 C 487.34,390.153 486.674,391.486 485.5,392.5C 485.5,391.5 485.5,390.5 485.5,389.5C 486.167,389.167 486.833,388.833 487.5,388.5 Z M 483.5,392.5 C 484.167,392.5 484.833,392.5 485.5,392.5C 486.061,395.187 485.394,395.187 483.5,392.5 Z"/></g>
<g><path style="opacity:0.004" fill="#000000" d="M 364.5,3.5 C 365.833,4.16667 365.833,4.16667 364.5,3.5 Z"/></g>
<g><path style="opacity:0.008" fill="#150200" d="M 364.5,7.5 C 363.075,9.03105 362.409,8.69772 362.5,6.5C 363.925,4.96895 364.591,5.30228 364.5,7.5 Z"/></g>
<g><path style="opacity:0.02" fill="#1b0600" d="M 337.5,11.5 C 336.833,11.5 336.5,11.8333 336.5,12.5C 335.833,12.5 335.167,12.5 334.5,12.5C 335.678,9.78348 336.678,9.45015 337.5,11.5 Z"/></g>
<g><path style="opacity:0.02" fill="#1c0700" d="M 407.5,12.5 C 408.309,13.4687 409.309,14.3021 410.5,15C 409.552,15.4828 408.552,15.6495 407.5,15.5C 407.5,14.5 407.5,13.5 407.5,12.5 Z"/></g>
<g><path style="opacity:0.02" fill="#160700" d="M 305.5,17.5 C 306.773,18.0768 306.773,18.7435 305.5,19.5C 304.537,19.0302 304.537,18.3635 305.5,17.5 Z"/></g>
<g><path style="opacity:0.008" fill="#140200" d="M 288.5,26.5 C 288.082,25.7784 287.416,25.2784 286.5,25C 287.667,24.5 288.5,23.6667 289,22.5C 289.765,24.0657 289.598,25.3991 288.5,26.5 Z"/></g>
<g><path style="opacity:0.004" fill="#0e0100" d="M 431.5,28.5 C 431.369,27.7611 431.536,27.0944 432,26.5C 436.705,27.8823 436.539,28.5489 431.5,28.5 Z"/></g>
<g><path style="opacity:0.008" fill="#1d0300" d="M 443.5,34.5 C 443.511,31.9991 444.178,31.8324 445.5,34C 444.906,34.4643 444.239,34.631 443.5,34.5 Z"/></g>
<g><path style="opacity:0.004" fill="#0f0100" d="M 455.5,38.5 C 457.725,37.6679 459.058,38.6679 459.5,41.5C 459.167,41.5 458.833,41.5 458.5,41.5C 457.833,41.5 457.5,41.1667 457.5,40.5C 456.833,40.5 456.5,40.1667 456.5,39.5C 455.833,39.5 455.5,39.1667 455.5,38.5 Z"/></g>
<g><path style="opacity:0.02" fill="#1c0a00" d="M 459.5,41.5 C 461.275,43.5842 463.608,44.7509 466.5,45C 464.527,45.4955 462.527,45.6621 460.5,45.5C 460.672,44.5084 460.338,43.8417 459.5,43.5C 459.5,42.8333 459.5,42.1667 459.5,41.5 Z"/></g>
<g><path style="opacity:0.008" fill="#1b0500" d="M 473.5,53.5 C 473.167,53.5 472.833,53.5 472.5,53.5C 471.833,53.5 471.5,53.1667 471.5,52.5C 472.301,50.2071 472.968,50.5404 473.5,53.5 Z"/></g>
<g><path style="opacity:0.008" fill="#1a0000" d="M 257.5,54.5 C 258.833,55.1667 258.833,55.1667 257.5,54.5 Z"/></g>
<g><path style="opacity:0.02" fill="#1c0a00" d="M 473.5,53.5 C 474.766,54.0899 476.099,54.5899 477.5,55C 475.537,55.8442 474.204,55.3442 473.5,53.5 Z"/></g>
<g><path style="opacity:0.008" fill="#1a0000" d="M 257.5,58.5 C 256.475,58.1034 256.308,57.4368 257,56.5C 257.464,57.0944 257.631,57.7611 257.5,58.5 Z"/></g>
<g><path style="opacity:0.004" fill="#170500" d="M 479.5,58.5 C 480.497,57.2875 481.497,57.4542 482.5,59C 481.906,59.4643 481.239,59.631 480.5,59.5C 479.833,59.5 479.5,59.1667 479.5,58.5 Z"/></g>
<g><path style="opacity:0.008" fill="#190200" d="M 256.5,63.5 C 255.624,63.6309 254.957,63.2975 254.5,62.5C 256.007,58.6452 256.674,58.9786 256.5,63.5 Z"/></g>
<g><path style="opacity:1" fill="#211103" d="M 498.5,122.5 C 498.5,121.5 498.5,120.5 498.5,119.5C 489.399,120.12 480.566,119.454 472,117.5C 471.517,118.448 471.351,119.448 471.5,120.5C 468.703,108.446 462.036,98.9461 451.5,92C 433.946,79.7258 414.613,71.5592 393.5,67.5C 359.971,62.4087 327.971,67.242 297.5,82C 276.245,93.0105 267.579,110.511 271.5,134.5C 270.622,129.56 270.122,123.227 270,115.5C 261.585,116.483 253.085,116.817 244.5,116.5C 242.648,115.48 241.315,113.98 240.5,112C 242.774,105.886 244.107,99.5522 244.5,93C 244.357,90.849 243.357,89.1824 241.5,88C 243.577,87.8078 245.577,87.3078 247.5,86.5C 248.417,83.2423 248.751,79.909 248.5,76.5C 252.806,76.6971 254.806,74.6971 254.5,70.5C 260.474,70.365 263.474,67.365 263.5,61.5C 332.834,61.3333 402.167,61.5 471.5,62C 474.621,62.7261 477.287,64.2261 479.5,66.5C 479.757,69.6028 480.257,72.6028 481,75.5C 483.213,76.8019 485.546,77.8019 488,78.5C 487.702,85.6186 490.368,91.6186 496,96.5C 495.657,101.578 497.157,105.912 500.5,109.5C 499.949,113.992 499.282,118.326 498.5,122.5 Z"/></g>
<g><path style="opacity:0.02" fill="#1b0700" d="M 250.5,63.5 C 251.251,62.4265 252.251,62.2599 253.5,63C 252.552,63.4828 251.552,63.6495 250.5,63.5 Z"/></g>
<g><path style="opacity:0.008" fill="#140000" d="M 248.5,67.5 C 247.475,67.1034 247.308,66.4368 248,65.5C 248.464,66.0944 248.631,66.7611 248.5,67.5 Z"/></g>
<g><path style="opacity:1" fill="#d67654" d="M 393.5,67.5 C 402.058,79.9558 407.892,93.6225 411,108.5C 413.914,126.508 410.08,142.841 399.5,157.5C 398.5,157.5 397.5,157.5 396.5,157.5C 390.463,157.171 384.463,157.504 378.5,158.5C 378.137,159.183 377.804,159.85 377.5,160.5C 376.217,165.157 376.383,169.824 378,174.5C 381.605,183.818 385.105,193.152 388.5,202.5C 388.181,204.75 388.681,206.75 390,208.5C 390.333,207.167 390.667,205.833 391,204.5C 392.622,206.906 394.789,208.739 397.5,210C 410.813,214.521 424.479,216.521 438.5,216C 443.664,215.501 448.497,214.001 453,211.5C 455.33,214.182 455.83,213.849 454.5,210.5C 457.342,207.717 459.842,208.05 462,211.5C 465.641,221.693 465.307,231.693 461,241.5C 457.245,246.295 452.412,249.462 446.5,251C 441.05,255.344 438.716,261.011 439.5,268C 440.945,280.485 441.778,292.985 442,305.5C 437.72,320.782 429.72,333.782 418,344.5C 411.269,356.129 403.435,366.962 394.5,377C 384.581,385.028 373.248,388.528 360.5,387.5C 354.822,387.247 349.489,385.747 344.5,383C 336.5,377 328.5,371 320.5,365C 308.888,359.861 297.554,354.194 286.5,348C 275.569,339.981 269.402,329.147 268,315.5C 266.812,300.531 266.145,285.531 266,270.5C 265.038,261.278 263.038,252.278 260,243.5C 259.14,232.764 259.64,222.097 261.5,211.5C 261.363,209.117 261.029,206.783 260.5,204.5C 261.228,202.488 262.062,200.488 263,198.5C 263.5,190.173 263.666,181.84 263.5,173.5C 263.401,170.763 263.735,168.096 264.5,165.5C 265.435,161.031 266.768,156.697 268.5,152.5C 269.833,149.833 271.167,147.167 272.5,144.5C 272.813,140.958 272.479,137.625 271.5,134.5C 267.579,110.511 276.245,93.0105 297.5,82C 327.971,67.242 359.971,62.4087 393.5,67.5 Z"/></g>
<g><path style="opacity:0.008" fill="#1a0000" d="M 246.5,68.5 C 247.833,69.1667 247.833,69.1667 246.5,68.5 Z"/></g>
<g><path style="opacity:0.02" fill="#1c0800" d="M 488.5,67.5 C 489.267,68.172 489.934,69.0053 490.5,70C 488.939,70.1881 488.272,69.3547 488.5,67.5 Z"/></g>
<g><path style="opacity:1" fill="#c76449" d="M 393.5,67.5 C 414.613,71.5592 433.946,79.7258 451.5,92C 462.036,98.9461 468.703,108.446 471.5,120.5C 471.674,127.535 471.341,134.535 470.5,141.5C 469.366,143.966 469.199,146.633 470,149.5C 471.122,151.407 471.955,153.407 472.5,155.5C 474.391,160.29 475.391,165.29 475.5,170.5C 475.5,173.5 475.5,176.5 475.5,179.5C 474.633,188.252 475.966,196.585 479.5,204.5C 478.322,207.541 477.655,210.708 477.5,214C 479.299,224.775 479.799,235.608 479,246.5C 476.592,251.938 474.926,257.604 474,263.5C 473,279.833 472,296.167 471,312.5C 469.224,327.519 463.058,340.352 452.5,351C 437.861,359.168 424.861,369.501 413.5,382C 408.317,385.394 402.65,387.394 396.5,388C 384.326,388.826 372.326,388.66 360.5,387.5C 373.248,388.528 384.581,385.028 394.5,377C 403.435,366.962 411.269,356.129 418,344.5C 429.72,333.782 437.72,320.782 442,305.5C 441.778,292.985 440.945,280.485 439.5,268C 438.716,261.011 441.05,255.344 446.5,251C 452.412,249.462 457.245,246.295 461,241.5C 465.307,231.693 465.641,221.693 462,211.5C 459.842,208.05 457.342,207.717 454.5,210.5C 455.83,213.849 455.33,214.182 453,211.5C 448.497,214.001 443.664,215.501 438.5,216C 424.479,216.521 410.813,214.521 397.5,210C 394.789,208.739 392.622,206.906 391,204.5C 390.667,205.833 390.333,207.167 390,208.5C 388.681,206.75 388.181,204.75 388.5,202.5C 389.629,200.372 389.796,198.039 389,195.5C 385.951,186.401 382.618,177.401 379,168.5C 378.817,165.635 378.317,162.969 377.5,160.5C 377.804,159.85 378.137,159.183 378.5,158.5C 384.463,157.504 390.463,157.171 396.5,157.5C 391.537,167.893 394.87,172.893 406.5,172.5C 419.053,169.923 431.719,168.756 444.5,169C 452.667,171.343 459.334,175.843 464.5,182.5C 465.086,182.291 465.586,181.957 466,181.5C 466.667,179.167 466.667,176.833 466,174.5C 461.718,164.923 454.551,158.423 444.5,155C 429.408,154.525 414.408,155.358 399.5,157.5C 410.08,142.841 413.914,126.508 411,108.5C 407.892,93.6225 402.058,79.9558 393.5,67.5 Z"/></g>
<g><path style="opacity:0.008" fill="#140000" d="M 241.5,75.5 C 240.475,75.1034 240.308,74.4368 241,73.5C 241.464,74.0944 241.631,74.7611 241.5,75.5 Z"/></g>
<g><path style="opacity:0.004" fill="#000000" d="M 239.5,76.5 C 240.833,77.1667 240.833,77.1667 239.5,76.5 Z"/></g>
<g><path style="opacity:0.004" fill="#130400" d="M 495.5,85.5 C 494.833,85.5 494.5,85.1667 494.5,84.5C 494.5,83.1667 494.5,81.8333 494.5,80.5C 495.833,79.8333 495.833,79.1667 494.5,78.5C 494.836,73.5894 495.502,73.9228 496.5,79.5C 495.738,81.6708 495.405,83.6708 495.5,85.5 Z"/></g>
<g><path style="opacity:0.02" fill="#1b0800" d="M 241.5,78.5 C 240.796,80.3442 239.463,80.8442 237.5,80C 238.901,79.5899 240.234,79.0899 241.5,78.5 Z"/></g>
<g><path style="opacity:0.008" fill="#140000" d="M 233.5,85.5 C 234.613,86.9464 234.78,88.6131 234,90.5C 233.506,88.8659 233.34,87.1992 233.5,85.5 Z"/></g>
<g><path style="opacity:0.004" fill="#0b0000" d="M 236.5,91.5 C 237.167,91.5 237.5,91.8333 237.5,92.5C 237.5,92.8333 237.5,93.1667 237.5,93.5C 236.778,93.9175 236.278,94.5842 236,95.5C 235.235,93.9343 235.402,92.6009 236.5,91.5 Z"/></g>
<g><path style="opacity:0.004" fill="#110400" d="M 502.5,93.5 C 504.076,96.2285 504.576,99.2285 504,102.5C 502.851,99.6074 502.351,96.6074 502.5,93.5 Z"/></g>
<g><path style="opacity:0.02" fill="#200800" d="M 507.5,111.5 C 507.343,110.127 507.51,108.793 508,107.5C 508.765,109.066 508.598,110.399 507.5,111.5 Z"/></g>
<g><path style="opacity:0.008" fill="#140000" d="M 232.5,109.5 C 233.613,110.946 233.78,112.613 233,114.5C 232.506,112.866 232.34,111.199 232.5,109.5 Z"/></g>
<g><path style="opacity:0.02" fill="#210a00" d="M 506.5,111.5 C 506.833,111.5 507.167,111.5 507.5,111.5C 507.167,115.5 506.833,115.5 506.5,111.5 Z"/></g>
<g><path style="opacity:0.02" fill="#210a00" d="M 506.5,122.5 C 506.337,120.143 506.503,117.81 507,115.5C 507.796,118.039 507.629,120.372 506.5,122.5 Z"/></g>
<g><path style="opacity:0.008" fill="#1d0300" d="M 237.5,118.5 C 237.649,119.552 237.483,120.552 237,121.5C 236.26,120.251 236.427,119.251 237.5,118.5 Z"/></g>
<g><path style="opacity:1" fill="#291809" d="M 498.5,122.5 C 496.142,125.723 494.642,129.39 494,133.5C 490.955,135.719 489.789,138.719 490.5,142.5C 484.666,141.187 478.833,141.187 473,142.5C 472.131,137.492 471.464,137.825 471,143.5C 470.536,142.906 470.369,142.239 470.5,141.5C 471.341,134.535 471.674,127.535 471.5,120.5C 471.351,119.448 471.517,118.448 472,117.5C 480.566,119.454 489.399,120.12 498.5,119.5C 498.5,120.5 498.5,121.5 498.5,122.5 Z"/></g>
<g><path style="opacity:1" fill="#2c190b" d="M 271.5,134.5 C 272.479,137.625 272.813,140.958 272.5,144.5C 271.732,143.737 271.232,142.737 271,141.5C 270.667,142.167 270.333,142.833 270,143.5C 262.824,142.342 255.658,142.342 248.5,143.5C 248.666,138.821 248.499,134.155 248,129.5C 243.234,126.207 242.068,121.874 244.5,116.5C 253.085,116.817 261.585,116.483 270,115.5C 270.122,123.227 270.622,129.56 271.5,134.5 Z"/></g>
<g><path style="opacity:0.02" fill="#210a00" d="M 505.5,122.5 C 505.833,122.5 506.167,122.5 506.5,122.5C 506.737,123.791 506.404,124.791 505.5,125.5C 505.5,124.5 505.5,123.5 505.5,122.5 Z"/></g>
<g><path style="opacity:0.008" fill="#100000" d="M 235.5,122.5 C 236.573,123.251 236.74,124.251 236,125.5C 235.517,124.552 235.351,123.552 235.5,122.5 Z"/></g>
<g><path style="opacity:0.004" fill="#130500" d="M 504.5,125.5 C 504.833,125.5 505.167,125.5 505.5,125.5C 505.573,127.027 504.906,128.027 503.5,128.5C 503.5,127.833 503.5,127.167 503.5,126.5C 504.167,126.5 504.5,126.167 504.5,125.5 Z"/></g>
<g><path style="opacity:0.004" fill="#0b0000" d="M 236.5,126.5 C 237.525,126.897 237.692,127.563 237,128.5C 236.536,127.906 236.369,127.239 236.5,126.5 Z"/></g>
<g><path style="opacity:0.02" fill="#220e00" d="M 502.5,128.5 C 502.833,128.5 503.167,128.5 503.5,128.5C 503.672,129.492 503.338,130.158 502.5,130.5C 502.5,129.833 502.5,129.167 502.5,128.5 Z"/></g>
<g><path style="opacity:0.008" fill="#170000" d="M 240.5,130.5 C 241.167,130.5 241.5,130.833 241.5,131.5C 241.495,158.079 240.828,158.079 239.5,131.5C 239.624,130.893 239.957,130.56 240.5,130.5 Z"/></g>
<g><path style="opacity:0.02" fill="#1d0800" d="M 501.5,130.5 C 501.833,130.5 502.167,130.5 502.5,130.5C 502.741,132.898 502.074,134.898 500.5,136.5C 500.5,135.5 500.5,134.5 500.5,133.5C 501.404,132.791 501.737,131.791 501.5,130.5 Z"/></g>
<g><path style="opacity:0.02" fill="#220e00" d="M 499.5,136.5 C 499.833,136.5 500.167,136.5 500.5,136.5C 500.315,137.17 499.981,137.17 499.5,136.5 Z"/></g>
<g><path style="opacity:1" fill="#412616" d="M 490.5,142.5 C 490.826,151.349 490.493,160.016 489.5,168.5C 489.5,164.167 489.5,159.833 489.5,155.5C 484.025,156.081 478.858,155.414 474,153.5C 473.722,154.416 473.222,155.082 472.5,155.5C 471.955,153.407 471.122,151.407 470,149.5C 469.199,146.633 469.366,143.966 470.5,141.5C 470.369,142.239 470.536,142.906 471,143.5C 471.464,137.825 472.131,137.492 473,142.5C 478.833,141.187 484.666,141.187 490.5,142.5 Z"/></g>
<g><path style="opacity:1" fill="#422616" d="M 272.5,144.5 C 271.167,147.167 269.833,149.833 268.5,152.5C 268.361,151.081 267.861,149.748 267,148.5C 264.667,149.167 262.333,149.833 260,150.5C 256.59,150.717 253.09,150.384 249.5,149.5C 249.5,151.833 249.5,154.167 249.5,156.5C 248.515,152.366 248.182,148.032 248.5,143.5C 255.658,142.342 262.824,142.342 270,143.5C 270.333,142.833 270.667,142.167 271,141.5C 271.232,142.737 271.732,143.737 272.5,144.5 Z"/></g>
<g><path style="opacity:1" fill="#1d0c01" d="M 349.5,157.5 C 349.665,160.518 349.498,163.518 349,166.5C 347.933,167.191 346.766,167.691 345.5,168C 330.251,166.464 314.917,165.797 299.5,166C 295.005,166.584 291.005,168.251 287.5,171C 285.021,174.313 282.355,177.48 279.5,180.5C 278.817,180.137 278.15,179.804 277.5,179.5C 279.044,166.128 286.044,156.961 298.5,152C 314.556,151.233 330.556,151.9 346.5,154C 347.71,155.039 348.71,156.206 349.5,157.5 Z"/></g>
<g><path style="opacity:0.008" fill="#150000" d="M 241.5,153.5 C 242.634,155.966 242.801,158.633 242,161.5C 241.503,158.854 241.336,156.187 241.5,153.5 Z"/></g>
<g><path style="opacity:1" fill="#5c3422" d="M 268.5,152.5 C 266.768,156.697 265.435,161.031 264.5,165.5C 260.357,164.541 256.023,164.541 251.5,165.5C 251.5,167.167 251.5,168.833 251.5,170.5C 250.356,166.036 249.69,161.37 249.5,156.5C 249.5,154.167 249.5,151.833 249.5,149.5C 253.09,150.384 256.59,150.717 260,150.5C 262.333,149.833 264.667,149.167 267,148.5C 267.861,149.748 268.361,151.081 268.5,152.5 Z"/></g>
<g><path style="opacity:1" fill="#1c0c01" d="M 396.5,157.5 C 397.5,157.5 398.5,157.5 399.5,157.5C 414.408,155.358 429.408,154.525 444.5,155C 454.551,158.423 461.718,164.923 466,174.5C 466.667,176.833 466.667,179.167 466,181.5C 465.586,181.957 465.086,182.291 464.5,182.5C 459.334,175.843 452.667,171.343 444.5,169C 431.719,168.756 419.053,169.923 406.5,172.5C 394.87,172.893 391.537,167.893 396.5,157.5 Z"/></g>
<g><path style="opacity:1" fill="#633724" d="M 489.5,168.5 C 489.81,171.713 489.477,174.713 488.5,177.5C 488.789,173.894 488.456,170.394 487.5,167C 483.911,166.793 480.411,166.293 477,165.5C 476.802,167.382 476.302,169.048 475.5,170.5C 475.391,165.29 474.391,160.29 472.5,155.5C 473.222,155.082 473.722,154.416 474,153.5C 478.858,155.414 484.025,156.081 489.5,155.5C 489.5,159.833 489.5,164.167 489.5,168.5 Z"/></g>
<g><path style="opacity:0.02" fill="#1f0900" d="M 498.5,137.5 C 498.833,137.5 499.167,137.5 499.5,137.5C 498.904,149.657 497.904,161.657 496.5,173.5C 497.152,161.845 497.485,150.178 497.5,138.5C 498.167,138.5 498.5,138.167 498.5,137.5 Z"/></g>
<g><path style="opacity:0.008" fill="#150000" d="M 242.5,162.5 C 243.622,164.288 243.789,166.288 243,168.5C 242.505,166.527 242.338,164.527 242.5,162.5 Z"/></g>
<g><path style="opacity:1" fill="#c56348" d="M 349.5,157.5 C 350.518,162.475 351.185,167.642 351.5,173C 348.855,183.845 348.855,194.679 351.5,205.5C 348.929,206.728 347.595,208.728 347.5,211.5C 339.081,213.209 330.581,214.542 322,215.5C 314.144,214.64 306.311,213.64 298.5,212.5C 292.644,212.961 286.81,213.628 281,214.5C 279.833,214.167 278.667,213.833 277.5,213.5C 281.012,211.243 284.346,208.743 287.5,206C 284.116,204.068 281.282,201.568 279,198.5C 277.812,192.222 277.312,185.888 277.5,179.5C 278.15,179.804 278.817,180.137 279.5,180.5C 282.355,177.48 285.021,174.313 287.5,171C 291.005,168.251 295.005,166.584 299.5,166C 314.917,165.797 330.251,166.464 345.5,168C 346.766,167.691 347.933,167.191 349,166.5C 349.498,163.518 349.665,160.518 349.5,157.5 Z"/></g>
<g><path style="opacity:1" fill="#7b4631" d="M 264.5,165.5 C 263.735,168.096 263.401,170.763 263.5,173.5C 262.778,173.918 262.278,174.584 262,175.5C 254.843,172.508 252.01,174.841 253.5,182.5C 252.011,178.764 251.344,174.764 251.5,170.5C 251.5,168.833 251.5,167.167 251.5,165.5C 256.023,164.541 260.357,164.541 264.5,165.5 Z"/></g>
<g><path style="opacity:0.008" fill="#170000" d="M 244.5,169.5 C 244.66,171.199 244.494,172.866 244,174.5C 243.22,172.613 243.387,170.946 244.5,169.5 Z"/></g>
<g><path style="opacity:1" fill="#7a422d" d="M 488.5,177.5 C 488.749,181.458 488.082,185.124 486.5,188.5C 486.39,184.888 486.39,181.222 486.5,177.5C 483.278,176.576 479.945,176.243 476.5,176.5C 476.737,177.791 476.404,178.791 475.5,179.5C 475.5,176.5 475.5,173.5 475.5,170.5C 476.302,169.048 476.802,167.382 477,165.5C 480.411,166.293 483.911,166.793 487.5,167C 488.456,170.394 488.789,173.894 488.5,177.5 Z"/></g>
<g><path style="opacity:0.02" fill="#1f0900" d="M 495.5,173.5 C 495.833,173.5 496.167,173.5 496.5,173.5C 496.72,178.1 496.054,182.433 494.5,186.5C 494.5,184.5 494.5,182.5 494.5,180.5C 495.468,178.393 495.802,176.059 495.5,173.5 Z"/></g>
<g><path style="opacity:1" fill="#1b0e05" d="M 312.5,176.5 C 321.224,175.476 329.224,177.31 336.5,182C 334.402,181.968 332.402,181.301 330.5,180C 323.833,179.333 317.167,179.333 310.5,180C 306.121,181.023 302.121,182.856 298.5,185.5C 298.167,185.333 297.833,185.167 297.5,185C 301.989,181.094 306.989,178.26 312.5,176.5 Z"/></g>
<g><path style="opacity:0.004" fill="#0d0000" d="M 245.5,175.5 C 245.5,177.167 245.5,178.833 245.5,180.5C 244.167,178.833 244.167,177.167 245.5,175.5 Z"/></g>
<g><path style="opacity:1" fill="#140903" d="M 416.5,178.5 C 428.304,177.196 438.637,180.363 447.5,188C 441.75,184.625 435.417,182.292 428.5,181C 421.559,179.879 414.892,180.712 408.5,183.5C 407.304,183.154 407.304,182.654 408.5,182C 411.158,180.522 413.825,179.355 416.5,178.5 Z"/></g>
<g><path style="opacity:1" fill="#965037" d="M 486.5,188.5 C 485.775,194.609 483.442,199.943 479.5,204.5C 475.966,196.585 474.633,188.252 475.5,179.5C 476.404,178.791 476.737,177.791 476.5,176.5C 479.945,176.243 483.278,176.576 486.5,177.5C 486.39,181.222 486.39,184.888 486.5,188.5 Z"/></g>
<g><path style="opacity:0.008" fill="#130000" d="M 245.5,180.5 C 245.833,180.5 246.167,180.5 246.5,180.5C 246.167,185.833 245.833,185.833 245.5,180.5 Z"/></g>
<g><path style="opacity:1" fill="#9e593f" d="M 263.5,173.5 C 263.666,181.84 263.5,190.173 263,198.5C 262.062,200.488 261.228,202.488 260.5,204.5C 256.947,197.643 254.614,190.309 253.5,182.5C 252.01,174.841 254.843,172.508 262,175.5C 262.278,174.584 262.778,173.918 263.5,173.5 Z"/></g>
<g><path style="opacity:1" fill="#1d110a" d="M 315.5,183.5 C 321.771,183.321 327.771,184.487 333.5,187C 336.062,189.413 339.062,191.08 342.5,192C 343.337,193.011 343.67,194.178 343.5,195.5C 334.99,196.435 326.49,197.435 318,198.5C 310.511,198.694 303.344,197.36 296.5,194.5C 301.824,189.008 308.157,185.341 315.5,183.5 Z"/></g>
<g><path style="opacity:0.008" fill="#170000" d="M 247.5,185.5 C 247.657,186.873 247.49,188.207 247,189.5C 246.235,187.934 246.402,186.601 247.5,185.5 Z"/></g>
<g><path style="opacity:0.02" fill="#1f0b00" d="M 493.5,186.5 C 493.833,186.5 494.167,186.5 494.5,186.5C 494.784,188.415 494.451,190.081 493.5,191.5C 493.5,189.833 493.5,188.167 493.5,186.5 Z"/></g>
<g><path style="opacity:1" fill="#1c110b" d="M 419.5,199.5 C 423.167,198.833 426.833,198.167 430.5,197.5C 429.624,197.631 428.957,197.298 428.5,196.5C 429.78,194.298 429.78,192.132 428.5,190C 425.768,189.095 425.101,189.762 426.5,192C 424.523,196.159 421.857,196.659 418.5,193.5C 421.632,192.947 421.966,191.947 419.5,190.5C 418.287,190.747 417.62,191.414 417.5,192.5C 416.978,194.219 415.978,195.552 414.5,196.5C 414.075,188.008 411.409,187.341 406.5,194.5C 408.608,195.944 410.941,196.61 413.5,196.5C 414.609,197.29 415.942,197.79 417.5,198C 416.207,198.49 414.873,198.657 413.5,198.5C 409.181,197.965 404.848,197.465 400.5,197C 399.273,195.413 399.606,194.079 401.5,193C 406.349,190.41 411.349,188.076 416.5,186C 428.249,183.862 438.249,187.028 446.5,195.5C 444.78,196.934 442.78,197.767 440.5,198C 433.533,198.997 426.533,199.497 419.5,199.5 Z"/></g>
<g><path style="opacity:1" fill="#360f05" d="M 317.5,193.5 C 321.186,194.491 322.853,192.824 322.5,188.5C 323.5,188.5 324.5,188.5 325.5,188.5C 325.984,193.801 323.651,196.134 318.5,195.5C 312.933,196.234 311.1,193.901 313,188.5C 312.734,191.901 314.234,193.567 317.5,193.5 Z"/></g>
<g><path style="opacity:1" fill="#eeeded" d="M 333.5,194.5 C 330.988,196.179 328.988,195.845 327.5,193.5C 329.13,188.956 331.796,188.789 335.5,193C 334.584,193.278 333.918,193.778 333.5,194.5 Z"/></g>
<g><path style="opacity:1" fill="#a9a6a4" d="M 333.5,194.5 C 333.918,193.778 334.584,193.278 335.5,193C 331.796,188.789 329.13,188.956 327.5,193.5C 327.5,191.5 327.5,189.5 327.5,187.5C 330.516,187.841 333.182,189.007 335.5,191C 336.337,192.011 336.67,193.178 336.5,194.5C 335.5,194.5 334.5,194.5 333.5,194.5 Z"/></g>
<g><path style="opacity:1" fill="#1b0c02" d="M 377.5,160.5 C 378.317,162.969 378.817,165.635 379,168.5C 382.618,177.401 385.951,186.401 389,195.5C 389.796,198.039 389.629,200.372 388.5,202.5C 385.105,193.152 381.605,183.818 378,174.5C 376.383,169.824 376.217,165.157 377.5,160.5 Z"/></g>
<g><path style="opacity:1" fill="#e2e0df" d="M 317.5,189.5 C 317.5,190.833 316.833,191.5 315.5,191.5C 314.475,191.103 314.308,190.437 315,189.5C 315.977,188.226 316.811,188.226 317.5,189.5 Z"/></g>
<g><path style="opacity:1" fill="#7a7572" d="M 317.5,189.5 C 318.391,190.261 319.058,191.261 319.5,192.5C 319.043,193.298 318.376,193.631 317.5,193.5C 316.833,192.833 316.167,192.167 315.5,191.5C 316.833,191.5 317.5,190.833 317.5,189.5 Z"/></g>
<g><path style="opacity:1" fill="#d9d8d7" d="M 418.5,193.5 C 418.5,192.833 418.167,192.5 417.5,192.5C 417.62,191.414 418.287,190.747 419.5,190.5C 421.966,191.947 421.632,192.947 418.5,193.5 Z"/></g>
<g><path style="opacity:1" fill="#adaaa8" d="M 438.5,195.5 C 438.586,194.504 438.252,193.671 437.5,193C 435.919,192.293 434.419,191.46 433,190.5C 432.79,192.058 432.29,193.391 431.5,194.5C 431.442,187.569 433.942,186.903 439,192.5C 439.74,193.749 439.573,194.749 438.5,195.5 Z"/></g>
<g><path style="opacity:0.008" fill="#160100" d="M 247.5,193.5 C 246.391,192.71 245.058,192.21 243.5,192C 245.101,191.727 246.601,191.227 248,190.5C 248.74,191.749 248.573,192.749 247.5,193.5 Z"/></g>
<g><path style="opacity:1" fill="#e0dedd" d="M 307.5,188.5 C 309.536,190.206 310.536,192.539 310.5,195.5C 302.59,195.757 301.59,193.423 307.5,188.5 Z"/></g>
<g><path style="opacity:1" fill="#eae9e8" d="M 438.5,195.5 C 436.095,196.768 433.428,197.435 430.5,197.5C 430.557,196.391 430.89,195.391 431.5,194.5C 432.29,193.391 432.79,192.058 433,190.5C 434.419,191.46 435.919,192.293 437.5,193C 438.252,193.671 438.586,194.504 438.5,195.5 Z"/></g>
<g><path style="opacity:1" fill="#d8d6d5" d="M 414.5,196.5 C 414.167,196.5 413.833,196.5 413.5,196.5C 410.941,196.61 408.608,195.944 406.5,194.5C 411.409,187.341 414.075,188.008 414.5,196.5 Z"/></g>
<g><path style="opacity:0.02" fill="#1e0900" d="M 492.5,191.5 C 492.833,191.5 493.167,191.5 493.5,191.5C 495.292,192.309 497.292,192.809 499.5,193C 498.333,193.167 497.167,193.333 496,193.5C 494.319,193.392 493.152,192.725 492.5,191.5 Z"/></g>
<g><path style="opacity:1" fill="#2e1206" d="M 430.5,197.5 C 426.833,198.167 423.167,198.833 419.5,199.5C 417.265,199.795 415.265,199.461 413.5,198.5C 414.873,198.657 416.207,198.49 417.5,198C 415.942,197.79 414.609,197.29 413.5,196.5C 413.833,196.5 414.167,196.5 414.5,196.5C 415.978,195.552 416.978,194.219 417.5,192.5C 418.167,192.5 418.5,192.833 418.5,193.5C 421.857,196.659 424.523,196.159 426.5,192C 425.101,189.762 425.768,189.095 428.5,190C 429.78,192.132 429.78,194.298 428.5,196.5C 428.957,197.298 429.624,197.631 430.5,197.5 Z"/></g>
<g><path style="opacity:0.02" fill="#1f0a00" d="M 507.5,203.5 C 507.167,203.5 506.833,203.5 506.5,203.5C 506.672,202.508 506.338,201.842 505.5,201.5C 505.369,200.761 505.536,200.094 506,199.5C 507.188,200.563 507.688,201.897 507.5,203.5 Z"/></g>
<g><path style="opacity:1" fill="#ca6e4e" d="M 240.5,203.5 C 240.956,200.714 242.623,199.381 245.5,199.5C 248.844,201.932 252.344,204.266 256,206.5C 256.828,211.202 256.662,215.869 255.5,220.5C 252.939,212.61 247.939,206.943 240.5,203.5 Z"/></g>
<g><path style="opacity:1" fill="#180c04" d="M 412.5,203.5 C 412.56,202.957 412.893,202.624 413.5,202.5C 417.019,203.932 420.686,204.766 424.5,205C 420.269,205.919 416.269,205.419 412.5,203.5 Z"/></g>
<g><path style="opacity:1" fill="#180901" d="M 329.5,202.5 C 332.598,202.413 332.932,202.913 330.5,204C 326.903,205.277 323.236,205.61 319.5,205C 323.09,204.689 326.423,203.856 329.5,202.5 Z"/></g>
<g><path style="opacity:0.008" fill="#160000" d="M 231.5,208.5 C 231.167,208.5 230.833,208.5 230.5,208.5C 230.833,204.5 231.167,204.5 231.5,208.5 Z"/></g>
<g><path style="opacity:1" fill="#c46348" d="M 240.5,203.5 C 247.065,210.624 251.565,218.958 254,228.5C 255.691,241.592 257.857,254.592 260.5,267.5C 255.391,266.57 251.891,263.57 250,258.5C 248.837,251.897 248.17,245.23 248,238.5C 245.425,233.585 242.425,228.919 239,224.5C 238.667,223.167 238.333,221.833 238,220.5C 237.5,227.492 237.334,234.492 237.5,241.5C 236.341,231.342 236.175,221.008 237,210.5C 237.522,207.719 238.689,205.385 240.5,203.5 Z"/></g>
<g><path style="opacity:1" fill="#c36348" d="M 501.5,239.5 C 503.014,230.249 501.18,228.915 496,235.5C 491.837,242.952 489.17,250.952 488,259.5C 485.971,262.596 483.138,264.262 479.5,264.5C 479.058,268.154 478.724,271.821 478.5,275.5C 477.848,274.551 477.514,273.385 477.5,272C 478.839,261.984 481.005,252.15 484,242.5C 483.812,227.894 488.646,215.227 498.5,204.5C 498.333,204.167 498.167,203.833 498,203.5C 490.751,208.003 485.917,214.336 483.5,222.5C 482.338,217.869 482.172,213.202 483,208.5C 486.167,206 489.333,203.5 492.5,201C 494.769,200.242 496.936,200.409 499,201.5C 503.261,211.056 504.595,221.056 503,231.5C 502.817,234.365 502.317,237.031 501.5,239.5 Z"/></g>
<g><path style="opacity:0.008" fill="#160000" d="M 230.5,208.5 C 230.662,210.527 230.495,212.527 230,214.5C 229.211,212.288 229.378,210.288 230.5,208.5 Z"/></g>
<g><path style="opacity:0.02" fill="#210c00" d="M 507.5,203.5 C 508.927,205.148 509.76,207.148 510,209.5C 510.824,218.343 510.657,227.01 509.5,235.5C 509.826,226.983 509.493,218.65 508.5,210.5C 508.768,208.901 508.434,207.568 507.5,206.5C 507.5,205.5 507.5,204.5 507.5,203.5 Z"/></g>
<g><path style="opacity:0.008" fill="#130000" d="M 228.5,216.5 C 229.653,222.653 229.82,228.986 229,235.5C 228.5,229.175 228.334,222.842 228.5,216.5 Z"/></g>
<g><path style="opacity:1" fill="#c46348" d="M 395.5,219.5 C 395.755,222.016 396.589,224.35 398,226.5C 401.147,229.468 403.814,232.802 406,236.5C 407.157,242.351 404.991,246.518 399.5,249C 400.094,249.464 400.761,249.631 401.5,249.5C 399.863,250.38 398.03,251.046 396,251.5C 393.213,250.483 390.38,250.316 387.5,251C 383.519,253.33 379.352,255.164 375,256.5C 369.439,255.467 364.272,253.467 359.5,250.5C 354.777,253.048 349.777,253.882 344.5,253C 343.027,252.29 342.36,251.124 342.5,249.5C 343.423,250.303 344.423,250.47 345.5,250C 340.782,246.657 339.282,242.157 341,236.5C 345.246,231.68 348.746,226.347 351.5,220.5C 351.376,219.893 351.043,219.56 350.5,219.5C 351.988,216.814 352.655,217.147 352.5,220.5C 353.5,220.5 354.5,220.5 355.5,220.5C 355.66,223.884 355.327,227.217 354.5,230.5C 354.556,231.737 355.056,232.737 356,233.5C 359.3,229.84 362.8,226.507 366.5,223.5C 367.274,237.725 374.274,241.892 387.5,236C 390.265,233.005 391.098,229.505 390,225.5C 388.7,222.705 387.2,220.039 385.5,217.5C 389.412,215.863 392.746,216.529 395.5,219.5 Z"/></g>
<g><path style="opacity:1" fill="#d27352" d="M 260.5,267.5 C 261.477,270.287 261.81,273.287 261.5,276.5C 259.473,276.662 257.473,276.495 255.5,276C 245.397,266.627 239.397,255.127 237.5,241.5C 237.334,234.492 237.5,227.492 238,220.5C 238.333,221.833 238.667,223.167 239,224.5C 242.425,228.919 245.425,233.585 248,238.5C 248.17,245.23 248.837,251.897 250,258.5C 251.891,263.57 255.391,266.57 260.5,267.5 Z"/></g>
<g><path style="opacity:1" fill="#1b0c02" d="M 350.5,219.5 C 351.043,219.56 351.376,219.893 351.5,220.5C 348.746,226.347 345.246,231.68 341,236.5C 339.282,242.157 340.782,246.657 345.5,250C 344.423,250.47 343.423,250.303 342.5,249.5C 340.496,248.327 338.996,246.66 338,244.5C 337.333,241.167 337.333,237.833 338,234.5C 342.378,229.627 346.545,224.627 350.5,219.5 Z"/></g>
<g><path style="opacity:1" fill="#1c0d03" d="M 395.5,219.5 C 398.805,223.637 402.638,227.303 407,230.5C 411.492,238.843 409.659,245.177 401.5,249.5C 400.761,249.631 400.094,249.464 399.5,249C 404.991,246.518 407.157,242.351 406,236.5C 403.814,232.802 401.147,229.468 398,226.5C 396.589,224.35 395.755,222.016 395.5,219.5 Z"/></g>
<g><path style="opacity:1" fill="#d27352" d="M 501.5,239.5 C 499.948,250.271 495.448,259.604 488,267.5C 487.308,270.806 485.808,273.64 483.5,276C 481.613,276.78 479.946,276.613 478.5,275.5C 478.724,271.821 479.058,268.154 479.5,264.5C 483.138,264.262 485.971,262.596 488,259.5C 489.17,250.952 491.837,242.952 496,235.5C 501.18,228.915 503.014,230.249 501.5,239.5 Z"/></g>
<g><path style="opacity:0.02" fill="#1e0900" d="M 508.5,235.5 C 508.833,235.5 509.167,235.5 509.5,235.5C 509.749,239.458 509.082,243.124 507.5,246.5C 507.5,244.833 507.5,243.167 507.5,241.5C 508.461,239.735 508.795,237.735 508.5,235.5 Z"/></g>
<g><path style="opacity:0.008" fill="#180000" d="M 229.5,237.5 C 230.622,239.288 230.789,241.288 230,243.5C 229.505,241.527 229.338,239.527 229.5,237.5 Z"/></g>
<g><path style="opacity:0.008" fill="#170000" d="M 231.5,244.5 C 231.657,245.873 231.49,247.207 231,248.5C 230.235,246.934 230.402,245.601 231.5,244.5 Z"/></g>
<g><path style="opacity:1" fill="#1a0c02" d="M 385.5,241.5 C 389.273,241.263 392.94,241.763 396.5,243C 389.43,242.702 383.763,245.368 379.5,251C 375.5,253 371.5,253 367.5,251C 363.907,246.537 359.24,244.203 353.5,244C 356.406,242.682 359.406,242.348 362.5,243C 366.06,245.403 369.727,247.57 373.5,249.5C 377.788,247.202 381.788,244.535 385.5,241.5 Z"/></g>
<g><path style="opacity:0.02" fill="#210a00" d="M 506.5,246.5 C 506.833,246.5 507.167,246.5 507.5,246.5C 507.737,247.791 507.404,248.791 506.5,249.5C 506.5,248.5 506.5,247.5 506.5,246.5 Z"/></g>
<g><path style="opacity:0.008" fill="#160000" d="M 231.5,249.5 C 232.573,250.251 232.74,251.251 232,252.5C 231.517,251.552 231.351,250.552 231.5,249.5 Z"/></g>
<g><path style="opacity:0.02" fill="#210a00" d="M 505.5,249.5 C 505.833,249.5 506.167,249.5 506.5,249.5C 506.737,250.791 506.404,251.791 505.5,252.5C 505.5,251.5 505.5,250.5 505.5,249.5 Z"/></g>
<g><path style="opacity:0.02" fill="#220e00" d="M 504.5,252.5 C 504.833,252.5 505.167,252.5 505.5,252.5C 505.672,253.492 505.338,254.158 504.5,254.5C 504.5,253.833 504.5,253.167 504.5,252.5 Z"/></g>
<g><path style="opacity:0.008" fill="#1a0000" d="M 234.5,255.5 C 234.631,256.239 234.464,256.906 234,257.5C 233.308,256.563 233.475,255.897 234.5,255.5 Z"/></g>
<g><path style="opacity:0.02" fill="#1d0900" d="M 503.5,254.5 C 503.833,254.5 504.167,254.5 504.5,254.5C 504.771,256.38 504.104,257.713 502.5,258.5C 502.5,257.833 502.5,257.167 502.5,256.5C 503.338,256.158 503.672,255.492 503.5,254.5 Z"/></g>
<g><path style="opacity:0.004" fill="#0b0000" d="M 235.5,260.5 C 234.475,260.103 234.308,259.437 235,258.5C 235.464,259.094 235.631,259.761 235.5,260.5 Z"/></g>
<g><path style="opacity:0.02" fill="#200900" d="M 501.5,258.5 C 501.833,258.5 502.167,258.5 502.5,258.5C 502.672,259.492 502.338,260.158 501.5,260.5C 501.5,259.833 501.5,259.167 501.5,258.5 Z"/></g>
<g><path style="opacity:0.004" fill="#0b0000" d="M 235.5,260.5 C 235.833,260.5 236.167,260.5 236.5,260.5C 236.5,261.167 236.5,261.833 236.5,262.5C 235.662,262.158 235.328,261.492 235.5,260.5 Z"/></g>
<g><path style="opacity:0.008" fill="#1d0400" d="M 500.5,260.5 C 500.833,260.5 501.167,260.5 501.5,260.5C 501.672,261.492 501.338,262.158 500.5,262.5C 500.5,261.833 500.5,261.167 500.5,260.5 Z"/></g>
<g><path style="opacity:0.008" fill="#1a0000" d="M 236.5,262.5 C 236.833,262.5 237.167,262.5 237.5,262.5C 237.315,263.17 236.981,263.17 236.5,262.5 Z"/></g>
<g><path style="opacity:0.02" fill="#220e00" d="M 499.5,262.5 C 499.833,262.5 500.167,262.5 500.5,262.5C 500.315,263.17 499.981,263.17 499.5,262.5 Z"/></g>
<g><path style="opacity:0.02" fill="#220e00" d="M 498.5,263.5 C 498.833,263.5 499.167,263.5 499.5,263.5C 499.672,264.492 499.338,265.158 498.5,265.5C 498.5,264.833 498.5,264.167 498.5,263.5 Z"/></g>
<g><path style="opacity:0.008" fill="#1a0000" d="M 238.5,265.5 C 237.833,264.167 237.833,264.167 238.5,265.5 Z"/></g>
<g><path style="opacity:0.02" fill="#220e00" d="M 497.5,265.5 C 497.833,265.5 498.167,265.5 498.5,265.5C 498.315,266.17 497.981,266.17 497.5,265.5 Z"/></g>
<g><path style="opacity:0.004" fill="#0b0000" d="M 238.5,265.5 C 238.833,265.5 239.167,265.5 239.5,265.5C 239.167,268.167 238.833,268.167 238.5,265.5 Z"/></g>
<g><path style="opacity:0.004" fill="#140300" d="M 496.5,266.5 C 496.833,266.5 497.167,266.5 497.5,266.5C 497.573,268.027 496.906,269.027 495.5,269.5C 495.5,268.833 495.5,268.167 495.5,267.5C 496.167,267.5 496.5,267.167 496.5,266.5 Z"/></g>
<g><path style="opacity:0.02" fill="#220e00" d="M 494.5,269.5 C 494.833,269.5 495.167,269.5 495.5,269.5C 495.315,270.17 494.981,270.17 494.5,269.5 Z"/></g>
<g><path style="opacity:1" fill="#b66045" d="M 415.5,278.5 C 419.466,280.778 423.466,283.112 427.5,285.5C 429.256,287.191 429.756,289.191 429,291.5C 421.381,297.127 416.048,304.46 413,313.5C 409.194,317.965 404.694,321.298 399.5,323.5C 383.117,328.671 366.784,328.671 350.5,323.5C 349.893,323.624 349.56,323.957 349.5,324.5C 340.403,318.236 333.237,310.236 328,300.5C 324.633,296.797 320.966,293.464 317,290.5C 316.37,288.097 317.203,286.263 319.5,285C 323.886,282.807 328.22,280.64 332.5,278.5C 339.602,275.634 346.935,273.467 354.5,272C 360.778,271.204 366.944,271.704 373,273.5C 380.591,270.726 388.425,269.893 396.5,271C 403.079,272.959 409.412,275.459 415.5,278.5 Z"/></g>
<g><path style="opacity:1" fill="#190b03" d="M 415.5,278.5 C 409.412,275.459 403.079,272.959 396.5,271C 388.425,269.893 380.591,270.726 373,273.5C 366.944,271.704 360.778,271.204 354.5,272C 346.935,273.467 339.602,275.634 332.5,278.5C 344.371,270.275 357.538,267.275 372,269.5C 388.176,264.391 402.676,267.391 415.5,278.5 Z"/></g>
<g><path style="opacity:0.008" fill="#1b0500" d="M 493.5,270.5 C 493.833,270.5 494.167,270.5 494.5,270.5C 494.672,271.492 494.338,272.158 493.5,272.5C 493.5,271.833 493.5,271.167 493.5,270.5 Z"/></g>
<g><path style="opacity:0.02" fill="#210a00" d="M 492.5,272.5 C 492.833,272.5 493.167,272.5 493.5,272.5C 493.737,273.791 493.404,274.791 492.5,275.5C 492.5,274.5 492.5,273.5 492.5,272.5 Z"/></g>
<g><path style="opacity:0.004" fill="#100400" d="M 246.5,274.5 C 246.631,275.239 246.464,275.906 246,276.5C 245.308,275.563 245.475,274.897 246.5,274.5 Z"/></g>
<g><path style="opacity:1" fill="#190b02" d="M 311.5,273.5 C 312.043,273.56 312.376,273.893 312.5,274.5C 310.978,277.64 310.145,280.973 310,284.5C 309.112,280.598 309.612,276.931 311.5,273.5 Z"/></g>
<g><path style="opacity:0.008" fill="#1d0400" d="M 491.5,275.5 C 491.833,275.5 492.167,275.5 492.5,275.5C 492.672,276.492 492.338,277.158 491.5,277.5C 491.5,276.833 491.5,276.167 491.5,275.5 Z"/></g>
<g><path style="opacity:0.02" fill="#220e00" d="M 490.5,277.5 C 490.833,277.5 491.167,277.5 491.5,277.5C 491.315,278.17 490.981,278.17 490.5,277.5 Z"/></g>
<g><path style="opacity:0.02" fill="#220e00" d="M 489.5,278.5 C 489.833,278.5 490.167,278.5 490.5,278.5C 490.315,279.17 489.981,279.17 489.5,278.5 Z"/></g>
<g><path style="opacity:0.004" fill="#090000" d="M 249.5,278.5 C 250.167,278.5 250.5,278.833 250.5,279.5C 250.44,280.043 250.107,280.376 249.5,280.5C 248.227,279.743 248.227,279.077 249.5,278.5 Z"/></g>
<g><path style="opacity:0.02" fill="#220e00" d="M 488.5,279.5 C 488.833,279.5 489.167,279.5 489.5,279.5C 489.315,280.17 488.981,280.17 488.5,279.5 Z"/></g>
<g><path style="opacity:1" fill="#130902" d="M 431.5,277.5 C 435.078,279.902 436.245,283.235 435,287.5C 434.652,283.82 433.485,280.486 431.5,277.5 Z"/></g>
<g><path style="opacity:0.02" fill="#220e00" d="M 487.5,280.5 C 487.833,280.5 488.167,280.5 488.5,280.5C 488.315,281.17 487.981,281.17 487.5,280.5 Z"/></g>
<g><path style="opacity:0.008" fill="#140000" d="M 485.5,282.5 C 485.5,282.167 485.5,281.833 485.5,281.5C 486.167,281.5 486.833,281.5 487.5,281.5C 487.158,282.338 486.492,282.672 485.5,282.5 Z"/></g>
<g><path style="opacity:0.02" fill="#1b0900" d="M 254.5,282.5 C 254.5,282.833 254.5,283.167 254.5,283.5C 251.833,283.167 251.833,282.833 254.5,282.5 Z"/></g>
<g><path style="opacity:0.02" fill="#1f0700" d="M 482.5,282.5 C 483.5,282.5 484.5,282.5 485.5,282.5C 484.5,283.833 483.5,283.833 482.5,282.5 Z"/></g>
<g><path style="opacity:0.004" fill="#0c0200" d="M 254.5,283.5 C 256.167,283.5 257.833,283.5 259.5,283.5C 259.665,286.518 259.498,289.518 259,292.5C 258.503,289.854 258.336,287.187 258.5,284.5C 256.901,284.768 255.568,284.434 254.5,283.5 Z"/></g>
<g><path style="opacity:1" fill="#1b1410" d="M 383.5,280.5 C 395.806,279.604 407.139,282.437 417.5,289C 416.23,292.203 414.23,294.87 411.5,297C 401.721,302.725 391.388,307.058 380.5,310C 375.5,310.667 370.5,310.667 365.5,310C 357.058,306.408 348.392,303.408 339.5,301C 335.123,299.795 332.79,296.961 332.5,292.5C 331.448,292.649 330.448,292.483 329.5,292C 336.153,288.51 343.153,285.844 350.5,284C 359.167,283.667 367.833,283.333 376.5,283C 379.191,282.844 381.524,282.011 383.5,280.5 Z"/></g>
<g><path style="opacity:1" fill="#f8f7f7" d="M 382.5,284.5 C 390.917,284.094 399.251,284.594 407.5,286C 412.403,289.272 412.737,292.939 408.5,297C 401.422,299.47 394.422,302.137 387.5,305C 379.564,306.53 371.564,306.863 363.5,306C 356.078,303.115 348.412,301.115 340.5,300C 337.424,297.388 336.757,294.221 338.5,290.5C 344.234,287.452 350.401,286.119 357,286.5C 365.851,288.494 374.351,287.827 382.5,284.5 Z"/></g>
<g><path style="opacity:0.008" fill="#140000" d="M 260.5,310.5 C 259.353,306.354 259.186,302.02 260,297.5C 260.499,301.821 260.666,306.154 260.5,310.5 Z"/></g>
<g><path style="opacity:0.02" fill="#1d0700" d="M 480.5,282.5 C 480.567,291.862 480.067,301.196 479,310.5C 478.689,314.09 477.856,317.423 476.5,320.5C 476.5,318.833 476.5,317.167 476.5,315.5C 477.461,313.735 477.795,311.735 477.5,309.5C 478.482,306.038 478.815,302.371 478.5,298.5C 479.167,293.167 479.833,287.833 480.5,282.5 Z"/></g>
<g><path style="opacity:0.008" fill="#170000" d="M 260.5,312.5 C 261.613,313.946 261.78,315.613 261,317.5C 260.506,315.866 260.34,314.199 260.5,312.5 Z"/></g>
<g><path style="opacity:0.008" fill="#170000" d="M 262.5,322.5 C 261.402,321.399 261.235,320.066 262,318.5C 262.49,319.793 262.657,321.127 262.5,322.5 Z"/></g>
<g><path style="opacity:0.02" fill="#210b00" d="M 475.5,320.5 C 475.833,320.5 476.167,320.5 476.5,320.5C 476.768,322.099 476.434,323.432 475.5,324.5C 475.5,323.167 475.5,321.833 475.5,320.5 Z"/></g>
<g><path style="opacity:0.008" fill="#130000" d="M 262.5,322.5 C 262.833,322.5 263.167,322.5 263.5,322.5C 263.167,327.833 262.833,327.833 262.5,322.5 Z"/></g>
<g><path style="opacity:1" fill="#1c0e06" d="M 349.5,324.5 C 349.56,323.957 349.893,323.624 350.5,323.5C 366.784,328.671 383.117,328.671 399.5,323.5C 397.365,325.071 395.032,326.404 392.5,327.5C 381.992,330.559 371.325,331.226 360.5,329.5C 356.71,328.105 353.043,326.438 349.5,324.5 Z"/></g>
<g><path style="opacity:0.008" fill="#1a0000" d="M 265.5,329.5 C 265.631,330.239 265.464,330.906 265,331.5C 264.308,330.563 264.475,329.897 265.5,329.5 Z"/></g>
<g><path style="opacity:1" fill="#c06046" d="M 392.5,327.5 C 384.06,337.212 374.06,339.045 362.5,333C 361.177,332.184 360.511,331.017 360.5,329.5C 371.325,331.226 381.992,330.559 392.5,327.5 Z"/></g>
<g><path style="opacity:0.004" fill="#0b0000" d="M 266.5,334.5 C 265.475,334.103 265.308,333.437 266,332.5C 266.464,333.094 266.631,333.761 266.5,334.5 Z"/></g>
<g><path style="opacity:0.004" fill="#0b0000" d="M 266.5,334.5 C 266.833,334.5 267.167,334.5 267.5,334.5C 267.5,335.167 267.5,335.833 267.5,336.5C 266.662,336.158 266.328,335.492 266.5,334.5 Z"/></g>
<g><path style="opacity:1" fill="#2b1810" d="M 366.5,340.5 C 373.925,339.688 380.925,340.855 387.5,344C 382.748,343.515 377.915,343.015 373,342.5C 368.912,342.651 364.912,343.318 361,344.5C 360.5,344.333 360,344.167 359.5,344C 362.187,343.272 364.52,342.105 366.5,340.5 Z"/></g>
<g><path style="opacity:0.004" fill="#0b0000" d="M 267.5,336.5 C 267.833,336.5 268.167,336.5 268.5,336.5C 268.167,355.167 267.833,355.167 267.5,336.5 Z"/></g>
<g><path style="opacity:1" fill="#be5d49" d="M 469.5,373.5 C 468.837,371.958 468.17,370.291 467.5,368.5C 456.136,373.686 446.302,381.02 438,390.5C 431.45,400.771 423.616,409.937 414.5,418C 395.824,427.04 376.157,430.04 355.5,427C 341.409,426.202 329.575,420.702 320,410.5C 315.519,401.539 310.519,392.872 305,384.5C 297.48,375.656 287.98,370.323 276.5,368.5C 276.806,371.385 276.473,374.052 275.5,376.5C 275.334,366.161 275.5,355.828 276,345.5C 279.946,349.445 284.446,352.611 289.5,355C 300.377,359.956 311.044,365.289 321.5,371C 329.392,378.889 338.392,385.223 348.5,390C 366.747,394.281 385.081,394.614 403.5,391C 409.153,390.006 414.153,387.673 418.5,384C 429.713,372.072 442.379,362.072 456.5,354C 460.382,349.786 463.882,345.286 467,340.5C 467.702,351.516 468.535,362.516 469.5,373.5 Z"/></g>
<g><path style="opacity:0.004" fill="#000000" d="M 268.5,359.5 C 269.645,363.311 269.812,367.311 269,371.5C 268.501,367.514 268.334,363.514 268.5,359.5 Z"/></g>
<g><path style="opacity:0.02" fill="#200a00" d="M 474.5,324.5 C 474.833,324.5 475.167,324.5 475.5,324.5C 475.258,340.319 475.258,355.986 475.5,371.5C 475.813,367.958 475.479,364.625 474.5,361.5C 474.822,355.642 474.489,349.975 473.5,344.5C 473.5,338.833 473.5,333.167 473.5,327.5C 474.404,326.791 474.737,325.791 474.5,324.5 Z"/></g>
<g><path style="opacity:1" fill="#d67654" d="M 469.5,373.5 C 470.545,382.643 472.379,391.643 475,400.5C 475.333,400.833 475.667,401.167 476,401.5C 476.98,399.941 477.813,398.274 478.5,396.5C 481.339,398.42 484.339,400.087 487.5,401.5C 491.798,427.186 488.464,451.853 477.5,475.5C 461.177,476.333 444.844,476.833 428.5,477C 418.083,477.844 409.417,482.011 402.5,489.5C 399.927,490.879 398.427,492.879 398,495.5C 400.04,493.63 401.873,491.63 403.5,489.5C 409.557,485.307 416.223,482.474 423.5,481C 440.51,480.167 457.51,480.334 474.5,481.5C 466.309,496.868 455.643,510.368 442.5,522C 425.433,533.733 410.266,547.566 397,563.5C 394.928,566.971 393.428,570.638 392.5,574.5C 380.5,574.5 368.5,574.5 356.5,574.5C 355.572,570.638 354.072,566.971 352,563.5C 344.871,554.037 336.704,545.537 327.5,538C 305.454,523.791 288.12,505.291 275.5,482.5C 291.325,481.504 307.325,481.17 323.5,481.5C 334.379,482.289 343.546,486.622 351,494.5C 351.667,493.833 351.667,493.167 351,492.5C 342.846,483.506 332.68,478.339 320.5,477C 304.156,476.833 287.823,476.333 271.5,475.5C 260.802,451.925 257.135,427.258 260.5,401.5C 263.354,401.076 266.021,400.076 268.5,398.5C 269.244,399.991 269.91,401.491 270.5,403C 271.449,403.617 272.282,403.451 273,402.5C 275.196,393.987 276.029,385.32 275.5,376.5C 276.473,374.052 276.806,371.385 276.5,368.5C 287.98,370.323 297.48,375.656 305,384.5C 310.519,392.872 315.519,401.539 320,410.5C 329.575,420.702 341.409,426.202 355.5,427C 376.157,430.04 395.824,427.04 414.5,418C 423.616,409.937 431.45,400.771 438,390.5C 446.302,381.02 456.136,373.686 467.5,368.5C 468.17,370.291 468.837,371.958 469.5,373.5 Z"/></g>
<g><path style="opacity:0.008" fill="#150100" d="M 267.5,379.5 C 268.643,382.976 268.81,386.642 268,390.5C 267.501,386.848 267.335,383.182 267.5,379.5 Z"/></g>
<g><path style="opacity:0.02" fill="#1c0800" d="M 478.5,389.5 C 478.459,385.757 479.126,385.59 480.5,389C 479.906,389.464 479.239,389.631 478.5,389.5 Z"/></g>
<g><path style="opacity:0.004" fill="#0b0200" d="M 485.5,389.5 C 485.5,390.5 485.5,391.5 485.5,392.5C 484.833,392.5 484.167,392.5 483.5,392.5C 483.932,391.29 484.599,390.29 485.5,389.5 Z"/></g>
<g><path style="opacity:0.008" fill="#1d0400" d="M 514.5,391.5 C 514.897,390.475 515.563,390.308 516.5,391C 515.906,391.464 515.239,391.631 514.5,391.5 Z"/></g>
<g><path style="opacity:0.02" fill="#200900" d="M 229.5,392.5 C 229.897,391.475 230.563,391.308 231.5,392C 230.906,392.464 230.239,392.631 229.5,392.5 Z"/></g>
<g><path style="opacity:1" fill="#011f5d" d="M 352.5,574.5 C 340.5,574.5 328.5,574.5 316.5,574.5C 310.887,564.374 303.554,555.54 294.5,548C 275.858,535.693 261.025,519.859 250,500.5C 234.218,469.043 227.218,435.709 229,400.5C 236.986,396.758 245.153,393.425 253.5,390.5C 255.609,390.775 256.942,391.942 257.5,394C 250.277,435.607 259.444,473.107 285,506.5C 298.296,521.466 313.129,534.633 329.5,546C 339.277,553.928 346.943,563.428 352.5,574.5 Z"/></g>
<g><path style="opacity:1" fill="#011f5d" d="M 432.5,574.5 C 420.5,574.5 408.5,574.5 396.5,574.5C 399.048,569.117 402.214,564.117 406,559.5C 416.949,548.211 428.783,538.044 441.5,529C 483.233,493.484 499.9,448.484 491.5,394C 492.058,391.942 493.391,390.775 495.5,390.5C 503.847,393.425 512.014,396.758 520,400.5C 520.727,413.896 520.06,427.229 518,440.5C 513.631,478.739 497.464,510.906 469.5,537C 454.289,546.711 441.955,559.211 432.5,574.5 Z"/></g>
<g><path style="opacity:0.004" fill="#100400" d="M 517.5,392.5 C 517.897,391.475 518.563,391.308 519.5,392C 518.906,392.464 518.239,392.631 517.5,392.5 Z"/></g>
<g><path style="opacity:0.02" fill="#220e00" d="M 529.5,397.5 C 530.833,398.167 530.833,398.167 529.5,397.5 Z"/></g>
<g><path style="opacity:1" fill="#eae7e5" d="M 223.5,403.5 C 223.334,411.84 223.5,420.173 224,428.5C 224.191,430.708 224.691,432.708 225.5,434.5C 227.15,448.064 229.984,461.397 234,474.5C 241.912,500.174 255.745,522.007 275.5,540C 289.624,549.291 301.624,560.791 311.5,574.5C 249.5,574.5 187.5,574.5 125.5,574.5C 125.233,555.81 125.566,537.143 126.5,518.5C 127.821,508.026 128.488,497.359 128.5,486.5C 128.764,473.466 129.598,460.466 131,447.5C 131.883,444.898 133.383,442.731 135.5,441C 145.748,436.543 155.748,431.543 165.5,426C 175.691,422.535 186.025,419.535 196.5,417C 205.62,412.707 214.62,408.207 223.5,403.5 Z"/></g>
<g><path style="opacity:1" fill="#eae7e5" d="M 525.5,403.5 C 534.195,408.514 543.195,413.014 552.5,417C 562.92,419.75 573.253,422.75 583.5,426C 593.221,431.527 603.221,436.527 613.5,441C 615.617,442.731 617.117,444.898 618,447.5C 619.471,460.462 620.305,473.462 620.5,486.5C 620.393,497.034 621.06,507.367 622.5,517.5C 623.475,536.454 623.808,555.454 623.5,574.5C 561.5,574.5 499.5,574.5 437.5,574.5C 443.551,565.942 450.551,558.109 458.5,551C 468.839,543.898 478.339,535.732 487,526.5C 507.868,499.415 520.035,468.749 523.5,434.5C 524.314,432.369 524.814,430.036 525,427.5C 525.5,419.507 525.666,411.507 525.5,403.5 Z"/></g>
<g><path style="opacity:0.02" fill="#200900" d="M 552.5,410.5 C 552.897,409.475 553.563,409.308 554.5,410C 553.906,410.464 553.239,410.631 552.5,410.5 Z"/></g>
<g><path style="opacity:0.02" fill="#200900" d="M 191.5,411.5 C 191.897,410.475 192.563,410.308 193.5,411C 192.906,411.464 192.239,411.631 191.5,411.5 Z"/></g>
<g><path style="opacity:0.008" fill="#1d0400" d="M 555.5,411.5 C 555.897,410.475 556.563,410.308 557.5,411C 556.906,411.464 556.239,411.631 555.5,411.5 Z"/></g>
<g><path style="opacity:0.02" fill="#1f0700" d="M 573.5,416.5 C 574.251,415.427 575.251,415.26 576.5,416C 575.552,416.483 574.552,416.649 573.5,416.5 Z"/></g>
<g><path style="opacity:0.008" fill="#180300" d="M 168.5,417.5 C 169.251,416.427 170.251,416.26 171.5,417C 170.552,417.483 169.552,417.649 168.5,417.5 Z"/></g>
<g><path style="opacity:0.008" fill="#180300" d="M 577.5,417.5 C 578.251,416.427 579.251,416.26 580.5,417C 579.552,417.483 578.552,417.649 577.5,417.5 Z"/></g>
<g><path style="opacity:1" fill="#aeaba9" d="M 223.5,403.5 C 224.395,413.667 225.061,424 225.5,434.5C 224.691,432.708 224.191,430.708 224,428.5C 223.5,420.173 223.334,411.84 223.5,403.5 Z"/></g>
<g><path style="opacity:1" fill="#a8a5a3" d="M 525.5,403.5 C 525.666,411.507 525.5,419.507 525,427.5C 524.814,430.036 524.314,432.369 523.5,434.5C 523.939,424 524.605,413.667 525.5,403.5 Z"/></g>
<g><path style="opacity:0.02" fill="#1f0a00" d="M 624.5,445.5 C 624.167,445.5 623.833,445.5 623.5,445.5C 623.672,444.508 623.338,443.842 622.5,443.5C 622.369,442.761 622.536,442.094 623,441.5C 624.188,442.563 624.688,443.897 624.5,445.5 Z"/></g>
<g><path style="opacity:0.02" fill="#200900" d="M 102.5,457.5 C 102.897,456.475 103.563,456.308 104.5,457C 103.906,457.464 103.239,457.631 102.5,457.5 Z"/></g>
<g><path style="opacity:1" fill="#c76449" d="M 120.5,574.5 C 117.5,574.5 114.5,574.5 111.5,574.5C 111.849,568.655 111.016,562.988 109,557.5C 102.357,546.882 97.3571,535.549 94,523.5C 93.3333,520.167 93.3333,516.833 94,513.5C 96.0471,506.405 98.3805,499.405 101,492.5C 101.667,486.833 101.667,481.167 101,475.5C 100.053,470.044 96.8864,467.377 91.5,467.5C 103.18,465.17 114.18,460.836 124.5,454.5C 124.833,455.5 125.167,456.5 125.5,457.5C 122.102,496.411 120.436,535.411 120.5,574.5 Z"/></g>
<g><path style="opacity:0.008" fill="#1d0400" d="M 644.5,457.5 C 644.897,456.475 645.563,456.308 646.5,457C 645.906,457.464 645.239,457.631 644.5,457.5 Z"/></g>
<g><path style="opacity:1" fill="#c76449" d="M 657.5,467.5 C 651.231,467.566 647.731,470.9 647,477.5C 646.333,481.833 646.333,486.167 647,490.5C 649.047,497.595 651.38,504.595 654,511.5C 655.083,519.76 654.083,527.76 651,535.5C 646.745,543.009 642.745,550.676 639,558.5C 637.197,563.682 636.364,569.016 636.5,574.5C 633.833,574.5 631.167,574.5 628.5,574.5C 628.332,546.149 627.499,517.815 626,489.5C 624.234,477.857 623.734,466.19 624.5,454.5C 634.841,460.849 645.841,465.183 657.5,467.5 Z"/></g>
<g><path style="opacity:0.008" fill="#180300" d="M 647.5,458.5 C 648.251,457.427 649.251,457.26 650.5,458C 649.552,458.483 648.552,458.649 647.5,458.5 Z"/></g>
<g><path style="opacity:0.02" fill="#210a00" d="M 88.5,461.5 C 87.448,461.649 86.448,461.483 85.5,461C 86.7494,460.26 87.7494,460.427 88.5,461.5 Z"/></g>
<g><path style="opacity:0.008" fill="#180300" d="M 81.5,462.5 C 82.2506,461.427 83.2506,461.26 84.5,462C 83.552,462.483 82.552,462.649 81.5,462.5 Z"/></g>
<g><path style="opacity:0.02" fill="#200900" d="M 81.5,462.5 C 81.5,462.833 81.5,463.167 81.5,463.5C 78.8333,463.167 78.8333,462.833 81.5,462.5 Z"/></g>
<g><path style="opacity:0.02" fill="#200900" d="M 76.5,464.5 C 76.8966,463.475 77.5632,463.308 78.5,464C 77.9056,464.464 77.2389,464.631 76.5,464.5 Z"/></g>
<g><path style="opacity:1" fill="#d77654" d="M 91.5,467.5 C 96.8864,467.377 100.053,470.044 101,475.5C 101.667,481.167 101.667,486.833 101,492.5C 98.3805,499.405 96.0471,506.405 94,513.5C 93.3333,516.833 93.3333,520.167 94,523.5C 97.3571,535.549 102.357,546.882 109,557.5C 111.016,562.988 111.849,568.655 111.5,574.5C 76.1667,574.5 40.8333,574.5 5.5,574.5C 5.42456,570.103 5.92456,565.77 7,561.5C 16.5419,530.628 33.3752,504.462 57.5,483C 67.7359,475.381 79.0692,470.215 91.5,467.5 Z"/></g>
<g><path style="opacity:1" fill="#d77654" d="M 657.5,467.5 C 668.285,469.724 678.285,473.891 687.5,480C 706.605,495.737 721.772,514.571 733,536.5C 739.054,548.49 742.554,561.156 743.5,574.5C 707.833,574.5 672.167,574.5 636.5,574.5C 636.364,569.016 637.197,563.682 639,558.5C 642.745,550.676 646.745,543.009 651,535.5C 654.083,527.76 655.083,519.76 654,511.5C 651.38,504.595 649.047,497.595 647,490.5C 646.333,486.167 646.333,481.833 647,477.5C 647.731,470.9 651.231,467.566 657.5,467.5 Z"/></g>
<g><path style="opacity:1" fill="#6f3622" d="M 323.5,481.5 C 307.325,481.17 291.325,481.504 275.5,482.5C 274.957,482.44 274.624,482.107 274.5,481.5C 290.995,480.173 307.328,480.173 323.5,481.5 Z"/></g>
<g><path style="opacity:0.004" fill="#100200" d="M 37.5,495.5 C 36.8333,495.5 36.5,495.833 36.5,496.5C 35.2875,495.503 35.4542,494.503 37,493.5C 37.4643,494.094 37.631,494.761 37.5,495.5 Z"/></g>
<g><path style="opacity:1" fill="#673422" d="M 402.5,489.5 C 402.833,489.5 403.167,489.5 403.5,489.5C 401.873,491.63 400.04,493.63 398,495.5C 398.427,492.879 399.927,490.879 402.5,489.5 Z"/></g>
<g><path style="opacity:0.008" fill="#1c0200" d="M 713.5,497.5 C 712.833,497.5 712.5,497.167 712.5,496.5C 712.747,494.025 713.413,494.025 714.5,496.5C 714.376,497.107 714.043,497.44 713.5,497.5 Z"/></g>
<g><path style="opacity:1" fill="#afacaa" d="M 620.5,486.5 C 621.863,496.638 622.53,506.971 622.5,517.5C 621.06,507.367 620.393,497.034 620.5,486.5 Z"/></g>
<g><path style="opacity:1" fill="#a9a5a3" d="M 128.5,486.5 C 128.488,497.359 127.821,508.026 126.5,518.5C 126.433,507.636 127.099,496.97 128.5,486.5 Z"/></g>
<g><path style="opacity:0.008" fill="#1b0500" d="M 718.5,503.5 C 717.833,503.5 717.5,503.167 717.5,502.5C 717.747,500.025 718.413,500.025 719.5,502.5C 719.376,503.107 719.043,503.44 718.5,503.5 Z"/></g>
<g><path style="opacity:0.004" fill="#170500" d="M 724.5,511.5 C 723.833,511.5 723.5,511.167 723.5,510.5C 723.747,508.025 724.413,508.025 725.5,510.5C 725.376,511.107 725.043,511.44 724.5,511.5 Z"/></g>
<g><path style="opacity:0.02" fill="#200900" d="M 17.5,522.5 C 17.1667,522.5 16.8333,522.5 16.5,522.5C 16.8333,519.833 17.1667,519.833 17.5,522.5 Z"/></g>
<g><path style="opacity:0.02" fill="#220e00" d="M 16.5,522.5 C 15.8333,523.167 15.8333,523.167 16.5,522.5 Z"/></g>
<g><path style="opacity:0.043" fill="#1a0b00" d="M 732.5,523.5 C 731.833,523.5 731.5,523.167 731.5,522.5C 731.747,520.025 732.413,520.025 733.5,522.5C 733.376,523.107 733.043,523.44 732.5,523.5 Z"/></g>
<g><path style="opacity:0.02" fill="#190900" d="M 738.5,532.5 C 737.833,532.167 737.167,531.833 736.5,531.5C 736.672,530.508 736.338,529.842 735.5,529.5C 735.369,528.761 735.536,528.094 736,527.5C 737.372,528.91 738.205,530.577 738.5,532.5 Z"/></g>
<g><path style="opacity:0.004" fill="#150500" d="M 738.5,532.5 C 740.736,534.574 741.403,536.908 740.5,539.5C 740.672,538.508 740.338,537.842 739.5,537.5C 739.672,536.508 739.338,535.842 738.5,535.5C 738.5,534.5 738.5,533.5 738.5,532.5 Z"/></g>
<g><path style="opacity:0.02" fill="#1b0700" d="M 6.5,544.5 C 6.16667,544.5 5.83333,544.5 5.5,544.5C 5.83333,540.5 6.16667,540.5 6.5,544.5 Z"/></g>
<g><path style="opacity:0.043" fill="#1c0a00" d="M 743.5,546.5 C 743.672,545.508 743.338,544.842 742.5,544.5C 742.234,542.653 742.568,541.986 743.5,542.5C 744.705,543.995 744.705,545.328 743.5,546.5 Z"/></g>
<g><path style="opacity:0.02" fill="#200900" d="M 5.5,544.5 C 5.63101,545.239 5.46434,545.906 5,546.5C 4.30831,545.563 4.47498,544.897 5.5,544.5 Z"/></g>
<g><path style="opacity:0.008" fill="#180300" d="M 3.5,552.5 C 3.16667,552.5 2.83333,552.5 2.5,552.5C 2.83333,548.5 3.16667,548.5 3.5,552.5 Z"/></g>
<g><path style="opacity:0.008" fill="#180300" d="M 2.5,552.5 C 2.64945,553.552 2.48278,554.552 2,555.5C 1.25988,554.251 1.42654,553.251 2.5,552.5 Z"/></g>
<g><path style="opacity:0.02" fill="#200d00" d="M 749.5,558.5 C 749.5,560.167 749.5,561.833 749.5,563.5C 749.167,563.5 748.833,563.5 748.5,563.5C 748.768,561.901 748.434,560.568 747.5,559.5C 747.343,558.127 747.51,556.793 748,555.5C 748.232,556.737 748.732,557.737 749.5,558.5 Z"/></g>
<g><path style="opacity:0.02" fill="#1b0700" d="M -0.5,559.5 C 0.451145,560.919 0.784479,562.585 0.5,564.5C 0.166667,564.5 -0.166667,564.5 -0.5,564.5C -0.5,562.833 -0.5,561.167 -0.5,559.5 Z"/></g>
</svg>
