<?xml version="1.0" encoding="UTF-8"?>
<!DOCTYPE svg PUBLIC "-//W3C//DTD SVG 1.1//EN" "http://www.w3.org/Graphics/SVG/1.1/DTD/svg11.dtd">
<svg xmlns="http://www.w3.org/2000/svg" version="1.1" width="750px" height="580px" style="shape-rendering:geometricPrecision; text-rendering:geometricPrecision; image-rendering:optimizeQuality; fill-rule:evenodd; clip-rule:evenodd" xmlns:xlink="http://www.w3.org/1999/xlink">
<g><path style="opacity:0.016" fill="#190000" d="M 371.5,2.5 C 372.251,1.42654 373.251,1.25988 374.5,2C 373.552,2.48278 372.552,2.64945 371.5,2.5 Z"/></g>
<g><path style="opacity:0.004" fill="#0b0000" d="M 420.5,5.5 C 422.268,4.4925 423.601,5.15917 424.5,7.5C 424.376,8.10667 424.043,8.44001 423.5,8.5C 423.5,7.83333 423.167,7.5 422.5,7.5C 422.5,6.83333 422.167,6.5 421.5,6.5C 421.5,5.83333 421.167,5.5 420.5,5.5 Z"/></g>
<g><path style="opacity:0.016" fill="#190000" d="M 317.5,9.5 C 316.833,9.5 316.5,9.83333 316.5,10.5C 315.957,10.44 315.624,10.1067 315.5,9.5C 316.257,8.22671 316.923,8.22671 317.5,9.5 Z"/></g>
<g><path style="opacity:0.004" fill="#0c0000" d="M 428.5,12.5 C 427.833,12.5 427.167,12.5 426.5,12.5C 426.5,11.8333 426.167,11.5 425.5,11.5C 426.322,9.45015 427.322,9.78348 428.5,12.5 Z"/></g>
<g><path style="opacity:0.004" fill="#090000" d="M 428.5,12.5 C 429.906,12.9731 430.573,13.9731 430.5,15.5C 430.167,15.5 429.833,15.5 429.5,15.5C 429.5,14.8333 429.167,14.5 428.5,14.5C 428.5,13.8333 428.5,13.1667 428.5,12.5 Z"/></g>
<g><path style="opacity:0.016" fill="#1e0100" d="M 430.5,15.5 C 431.167,15.5 431.5,15.8333 431.5,16.5C 431.167,16.1667 430.833,15.8333 430.5,15.5 Z"/></g>
<g><path style="opacity:0.016" fill="#1e0100" d="M 431.5,16.5 C 432.833,17.1667 432.833,17.1667 431.5,16.5 Z"/></g>
<g><path style="opacity:0.016" fill="#130000" d="M 433.5,21.5 C 433.511,18.9991 434.178,18.8324 435.5,21C 434.906,21.4643 434.239,21.631 433.5,21.5 Z"/></g>
<g><path style="opacity:0.016" fill="#1e0100" d="M 290.5,33.5 C 290.897,32.475 291.563,32.3083 292.5,33C 291.906,33.4643 291.239,33.631 290.5,33.5 Z"/></g>
<g><path style="opacity:0.016" fill="#1e0100" d="M 463.5,38.5 C 462.833,37.1667 462.833,37.1667 463.5,38.5 Z"/></g>
<g><path style="opacity:0.016" fill="#1e0100" d="M 463.5,38.5 C 464.833,39.1667 464.833,39.1667 463.5,38.5 Z"/></g>
<g><path style="opacity:0.016" fill="#1e0100" d="M 272.5,47.5 C 273.833,48.1667 273.833,48.1667 272.5,47.5 Z"/></g>
<g><path style="opacity:0.016" fill="#160000" d="M 271.5,54.5 C 270.833,54.5 270.5,54.8333 270.5,55.5C 268.343,54.9467 268.51,53.9467 271,52.5C 271.464,53.0944 271.631,53.7611 271.5,54.5 Z"/></g>
<g><path style="opacity:0.016" fill="#180000" d="M 256.5,72.5 C 257.525,72.8966 257.692,73.5632 257,74.5C 256.536,73.9056 256.369,73.2389 256.5,72.5 Z"/></g>
<g><path style="opacity:0.016" fill="#180000" d="M 492.5,91.5 C 492.167,91.5 491.833,91.5 491.5,91.5C 491.833,88.8333 492.167,88.8333 492.5,91.5 Z"/></g>
<g><path style="opacity:0.016" fill="#1e0100" d="M 492.5,91.5 C 493.833,92.1667 493.833,92.1667 492.5,91.5 Z"/></g>
<g><path style="opacity:0.016" fill="#180000" d="M 502.5,112.5 C 502.369,111.761 502.536,111.094 503,110.5C 503.692,111.437 503.525,112.103 502.5,112.5 Z"/></g>
<g><path style="opacity:0.016" fill="#1e0100" d="M 504.5,115.5 C 504.167,115.5 503.833,115.5 503.5,115.5C 503.833,112.833 504.167,112.833 504.5,115.5 Z"/></g>
<g><path style="opacity:0.016" fill="#130000" d="M 246.5,118.5 C 246.167,118.5 245.833,118.5 245.5,118.5C 245.833,114.5 246.167,114.5 246.5,118.5 Z"/></g>
<g><path style="opacity:0.016" fill="#180000" d="M 504.5,115.5 C 505.525,115.897 505.692,116.563 505,117.5C 504.536,116.906 504.369,116.239 504.5,115.5 Z"/></g>
<g><path style="opacity:0.016" fill="#1e0100" d="M 245.5,118.5 C 245.631,119.239 245.464,119.906 245,120.5C 244.308,119.563 244.475,118.897 245.5,118.5 Z"/></g>
<g><path style="opacity:0.016" fill="#190000" d="M 507.5,123.5 C 507.167,123.5 506.833,123.5 506.5,123.5C 506.833,119.5 507.167,119.5 507.5,123.5 Z"/></g>
<g><path style="opacity:0.016" fill="#190000" d="M 507.5,123.5 C 508.573,124.251 508.74,125.251 508,126.5C 507.517,125.552 507.351,124.552 507.5,123.5 Z"/></g>
<g><path style="opacity:0.016" fill="#190000" d="M 243.5,127.5 C 243.167,127.5 242.833,127.5 242.5,127.5C 242.833,123.5 243.167,123.5 243.5,127.5 Z"/></g>
<g><path style="opacity:0.016" fill="#190000" d="M 242.5,127.5 C 242.649,128.552 242.483,129.552 242,130.5C 241.26,129.251 241.427,128.251 242.5,127.5 Z"/></g>
<g><path style="opacity:0.016" fill="#1b0000" d="M 240.5,139.5 C 239.402,138.399 239.235,137.066 240,135.5C 240.49,136.793 240.657,138.127 240.5,139.5 Z"/></g>
<g><path style="opacity:0.016" fill="#190000" d="M 238.5,140.5 C 239.622,142.288 239.789,144.288 239,146.5C 238.505,144.527 238.338,142.527 238.5,140.5 Z"/></g>
<g><path style="opacity:0.016" fill="#160000" d="M 513.5,149.5 C 513.167,149.5 512.833,149.5 512.5,149.5C 512.833,141.5 513.167,141.5 513.5,149.5 Z"/></g>
<g><path style="opacity:0.004" fill="#000000" d="M 237.5,147.5 C 238.638,150.304 238.805,153.304 238,156.5C 237.502,153.518 237.335,150.518 237.5,147.5 Z"/></g>
<g><path style="opacity:0.004" fill="#000000" d="M 513.5,149.5 C 514.645,153.311 514.812,157.311 514,161.5C 513.501,157.514 513.334,153.514 513.5,149.5 Z"/></g>
<g><path style="opacity:0.016" fill="#180000" d="M 239.5,157.5 C 239.5,160.167 239.5,162.833 239.5,165.5C 238.167,162.833 238.167,160.167 239.5,157.5 Z"/></g>
<g><path style="opacity:0.016" fill="#190000" d="M 512.5,174.5 C 512.334,170.486 512.501,166.486 513,162.5C 513.812,166.689 513.645,170.689 512.5,174.5 Z"/></g>
<g><path style="opacity:0.016" fill="#1b0000" d="M 239.5,165.5 C 239.833,165.5 240.167,165.5 240.5,165.5C 240.167,170.833 239.833,170.833 239.5,165.5 Z"/></g>
<g><path style="opacity:0.016" fill="#190000" d="M 241.5,173.5 C 240.427,172.749 240.26,171.749 241,170.5C 241.483,171.448 241.649,172.448 241.5,173.5 Z"/></g>
<g><path style="opacity:0.016" fill="#190000" d="M 511.5,174.5 C 511.833,174.5 512.167,174.5 512.5,174.5C 512.81,177.713 512.477,180.713 511.5,183.5C 511.5,180.5 511.5,177.5 511.5,174.5 Z"/></g>
<g><path style="opacity:0.004" fill="#0c0000" d="M 241.5,173.5 C 241.833,173.5 242.167,173.5 242.5,173.5C 242.5,175.167 242.5,176.833 242.5,178.5C 241.549,177.081 241.216,175.415 241.5,173.5 Z"/></g>
<g><path style="opacity:0.016" fill="#1a0000" d="M 242.5,178.5 C 242.833,178.5 243.167,178.5 243.5,178.5C 243.167,187.833 242.833,187.833 242.5,178.5 Z"/></g>
<g><path style="opacity:0.016" fill="#1b0000" d="M 510.5,183.5 C 510.833,183.5 511.167,183.5 511.5,183.5C 511.167,188.833 510.833,188.833 510.5,183.5 Z"/></g>
<g><path style="opacity:0.016" fill="#1b0000" d="M 244.5,190.5 C 243.402,189.399 243.235,188.066 244,186.5C 244.49,187.793 244.657,189.127 244.5,190.5 Z"/></g>
<g><path style="opacity:0.016" fill="#190000" d="M 509.5,191.5 C 509.351,190.448 509.517,189.448 510,188.5C 510.74,189.749 510.573,190.749 509.5,191.5 Z"/></g>
<g><path style="opacity:0.004" fill="#0c0000" d="M 508.5,191.5 C 508.833,191.5 509.167,191.5 509.5,191.5C 510.263,192.268 511.263,192.768 512.5,193C 510.537,193.844 509.204,193.344 508.5,191.5 Z"/></g>
<g><path style="opacity:0.016" fill="#190000" d="M 244.5,190.5 C 244.833,190.5 245.167,190.5 245.5,190.5C 245.263,191.791 245.596,192.791 246.5,193.5C 246.5,193.833 246.5,194.167 246.5,194.5C 244.801,194.66 243.134,194.494 241.5,194C 242.448,193.517 243.448,193.351 244.5,193.5C 244.5,192.5 244.5,191.5 244.5,190.5 Z"/></g>
<g><path style="opacity:0.016" fill="#160000" d="M 235.5,204.5 C 234.402,203.399 234.235,202.066 235,200.5C 235.49,201.793 235.657,203.127 235.5,204.5 Z"/></g>
<g><path style="opacity:0.016" fill="#160000" d="M 520.5,201.5 C 521.634,203.966 521.801,206.633 521,209.5C 520.503,206.854 520.336,204.187 520.5,201.5 Z"/></g>
<g><path style="opacity:0.004" fill="#000000" d="M 233.5,205.5 C 234.613,206.946 234.78,208.613 234,210.5C 233.506,208.866 233.34,207.199 233.5,205.5 Z"/></g>
<g><path style="opacity:0.016" fill="#180000" d="M 235.5,211.5 C 235.665,215.182 235.499,218.848 235,222.5C 234.19,218.642 234.357,214.976 235.5,211.5 Z"/></g>
<g><path style="opacity:0.004" fill="#000000" d="M 236.5,227.5 C 236.167,227.5 235.833,227.5 235.5,227.5C 235.833,222.167 236.167,222.167 236.5,227.5 Z"/></g>
<g><path style="opacity:0.016" fill="#1a0000" d="M 521.5,242.5 C 521.334,237.489 521.501,232.489 522,227.5C 522.816,232.684 522.65,237.684 521.5,242.5 Z"/></g>
<g><path style="opacity:0.016" fill="#160000" d="M 235.5,227.5 C 235.665,230.85 235.498,234.183 235,237.5C 234.192,233.973 234.359,230.64 235.5,227.5 Z"/></g>
<g><path style="opacity:0.016" fill="#190000" d="M 234.5,239.5 C 235.622,241.288 235.789,243.288 235,245.5C 234.505,243.527 234.338,241.527 234.5,239.5 Z"/></g>
<g><path style="opacity:0.016" fill="#190000" d="M 520.5,242.5 C 520.833,242.5 521.167,242.5 521.5,242.5C 521.737,243.791 521.404,244.791 520.5,245.5C 520.5,244.5 520.5,243.5 520.5,242.5 Z"/></g>
<g><path style="opacity:0.016" fill="#190000" d="M 519.5,245.5 C 519.833,245.5 520.167,245.5 520.5,245.5C 520.167,249.5 519.833,249.5 519.5,245.5 Z"/></g>
<g><path style="opacity:0.016" fill="#1c0000" d="M 235.5,246.5 C 236.65,251.316 236.816,256.316 236,261.5C 235.501,256.511 235.334,251.511 235.5,246.5 Z"/></g>
<g><path style="opacity:0.004" fill="#0f0000" d="M 518.5,249.5 C 519.613,250.946 519.78,252.613 519,254.5C 518.506,252.866 518.34,251.199 518.5,249.5 Z"/></g>
<g><path style="opacity:0.016" fill="#190000" d="M 517.5,264.5 C 517.335,261.482 517.502,258.482 518,255.5C 518.805,258.696 518.638,261.696 517.5,264.5 Z"/></g>
<g><path style="opacity:0.016" fill="#190000" d="M 516.5,264.5 C 516.833,264.5 517.167,264.5 517.5,264.5C 517.737,265.791 517.404,266.791 516.5,267.5C 516.5,266.5 516.5,265.5 516.5,264.5 Z"/></g>
<g><path style="opacity:0.016" fill="#180000" d="M 239.5,266.5 C 239.631,267.239 239.464,267.906 239,268.5C 238.308,267.563 238.475,266.897 239.5,266.5 Z"/></g>
<g><path style="opacity:0.004" fill="#0e0000" d="M 515.5,267.5 C 515.833,267.5 516.167,267.5 516.5,267.5C 516.672,268.492 516.338,269.158 515.5,269.5C 515.5,268.833 515.5,268.167 515.5,267.5 Z"/></g>
<g><path style="opacity:0.016" fill="#1e0100" d="M 514.5,269.5 C 514.833,269.5 515.167,269.5 515.5,269.5C 515.315,270.17 514.981,270.17 514.5,269.5 Z"/></g>
<g><path style="opacity:0.004" fill="#0e0000" d="M 513.5,270.5 C 513.833,270.5 514.167,270.5 514.5,270.5C 514.672,271.492 514.338,272.158 513.5,272.5C 513.5,271.833 513.5,271.167 513.5,270.5 Z"/></g>
<g><path style="opacity:0.016" fill="#1e0100" d="M 512.5,272.5 C 512.833,272.5 513.167,272.5 513.5,272.5C 513.315,273.17 512.981,273.17 512.5,272.5 Z"/></g>
<g><path style="opacity:0.016" fill="#1e0100" d="M 511.5,273.5 C 511.833,273.5 512.167,273.5 512.5,273.5C 512.315,274.17 511.981,274.17 511.5,273.5 Z"/></g>
<g><path style="opacity:0.016" fill="#1e0100" d="M 510.5,274.5 C 510.833,274.5 511.167,274.5 511.5,274.5C 511.315,275.17 510.981,275.17 510.5,274.5 Z"/></g>
<g><path style="opacity:0.016" fill="#1e0100" d="M 509.5,275.5 C 509.833,275.5 510.167,275.5 510.5,275.5C 510.315,276.17 509.981,276.17 509.5,275.5 Z"/></g>
<g><path style="opacity:0.016" fill="#1e0100" d="M 508.5,276.5 C 508.833,276.5 509.167,276.5 509.5,276.5C 509.315,277.17 508.981,277.17 508.5,276.5 Z"/></g>
<g><path style="opacity:0.016" fill="#1e0100" d="M 507.5,277.5 C 507.833,277.5 508.167,277.5 508.5,277.5C 508.315,278.17 507.981,278.17 507.5,277.5 Z"/></g>
<g><path style="opacity:0.004" fill="#0f0000" d="M 261.5,277.5 C 262.598,278.601 262.765,279.934 262,281.5C 261.29,280.027 260.124,279.36 258.5,279.5C 258.5,279.167 258.5,278.833 258.5,278.5C 259.791,278.737 260.791,278.404 261.5,277.5 Z"/></g>
<g><path style="opacity:0.004" fill="#000000" d="M 258.5,279.5 C 257.054,280.613 255.387,280.78 253.5,280C 255.134,279.506 256.801,279.34 258.5,279.5 Z"/></g>
<g><path style="opacity:0.016" fill="#180000" d="M 490.5,292.5 C 490.336,289.813 490.503,287.146 491,284.5C 491.801,287.367 491.634,290.034 490.5,292.5 Z"/></g>
<g><path style="opacity:0.016" fill="#190000" d="M 264.5,291.5 C 264.5,293.5 264.5,295.5 264.5,297.5C 263.167,295.5 263.167,293.5 264.5,291.5 Z"/></g>
<g><path style="opacity:0.016" fill="#190000" d="M 489.5,292.5 C 489.833,292.5 490.167,292.5 490.5,292.5C 490.167,300.5 489.833,300.5 489.5,292.5 Z"/></g>
<g><path style="opacity:0.016" fill="#180000" d="M 264.5,297.5 C 264.833,297.5 265.167,297.5 265.5,297.5C 265.5,299.167 265.5,300.833 265.5,302.5C 264.549,301.081 264.216,299.415 264.5,297.5 Z"/></g>
<g><path style="opacity:0.016" fill="#1e0100" d="M 265.5,302.5 C 265.833,302.5 266.167,302.5 266.5,302.5C 266.167,306.5 265.833,306.5 265.5,302.5 Z"/></g>
<g><path style="opacity:0.004" fill="#0f0000" d="M 488.5,299.5 C 489.613,300.946 489.78,302.613 489,304.5C 488.506,302.866 488.34,301.199 488.5,299.5 Z"/></g>
<g><path style="opacity:0.016" fill="#1e0100" d="M 488.5,314.5 C 487.833,313.167 487.833,313.167 488.5,314.5 Z"/></g>
<g><path style="opacity:0.016" fill="#190000" d="M 488.5,314.5 C 489.573,315.251 489.74,316.251 489,317.5C 488.517,316.552 488.351,315.552 488.5,314.5 Z"/></g>
<g><path style="opacity:0.004" fill="#0e0000" d="M 264.5,319.5 C 264.167,319.5 263.833,319.5 263.5,319.5C 263.833,316.833 264.167,316.833 264.5,319.5 Z"/></g>
<g><path style="opacity:0.016" fill="#1e0100" d="M 263.5,319.5 C 263.631,320.239 263.464,320.906 263,321.5C 262.308,320.563 262.475,319.897 263.5,319.5 Z"/></g>
<g><path style="opacity:0.016" fill="#180000" d="M 261.5,322.5 C 262.622,324.288 262.789,326.288 262,328.5C 261.505,326.527 261.338,324.527 261.5,322.5 Z"/></g>
<g><path style="opacity:0.016" fill="#180000" d="M 491.5,325.5 C 491.167,325.5 490.833,325.5 490.5,325.5C 490.833,322.833 491.167,322.833 491.5,325.5 Z"/></g>
<g><path style="opacity:0.016" fill="#1b0000" d="M 491.5,325.5 C 492.634,327.966 492.801,330.633 492,333.5C 491.503,330.854 491.336,328.187 491.5,325.5 Z"/></g>
<g><path style="opacity:0.835" fill="#1c0e04" d="M 397.5,-0.5 C 401.167,-0.5 404.833,-0.5 408.5,-0.5C 412.713,0.939944 416.713,2.93994 420.5,5.5C 421.167,5.5 421.5,5.83333 421.5,6.5C 422.167,6.5 422.5,6.83333 422.5,7.5C 423.167,7.5 423.5,7.83333 423.5,8.5C 423.932,9.70951 424.599,10.7095 425.5,11.5C 426.167,11.5 426.5,11.8333 426.5,12.5C 426.833,13.5 427.5,14.1667 428.5,14.5C 429.167,14.5 429.5,14.8333 429.5,15.5C 429.5,16.1667 429.833,16.5 430.5,16.5C 431.11,18.4341 432.11,20.1007 433.5,21.5C 437.225,25.0588 441.558,27.5588 446.5,29C 452.357,31.4227 457.69,34.5894 462.5,38.5C 468.147,45.1195 473.314,52.1195 478,59.5C 480.231,64.7311 482.897,69.7311 486,74.5C 486.993,78.4423 487.66,82.4423 488,86.5C 489.03,88.3464 490.196,90.0131 491.5,91.5C 494.915,98.6654 498.582,105.665 502.5,112.5C 502.263,113.791 502.596,114.791 503.5,115.5C 503.98,118.443 504.98,121.11 506.5,123.5C 508.529,132.274 510.529,140.941 512.5,149.5C 512.116,157.831 511.782,166.164 511.5,174.5C 510.523,177.287 510.19,180.287 510.5,183.5C 509.232,185.905 508.565,188.572 508.5,191.5C 505.52,194.856 506.187,195.856 510.5,194.5C 514.833,195.075 517.667,197.408 519,201.5C 518.782,215.163 519.282,228.83 520.5,242.5C 519.596,243.209 519.263,244.209 519.5,245.5C 517.128,251.481 516.128,257.815 516.5,264.5C 515.596,265.209 515.263,266.209 515.5,267.5C 514.662,267.842 514.328,268.508 514.5,269.5C 513.833,269.5 513.5,269.833 513.5,270.5C 512.662,270.842 512.328,271.508 512.5,272.5C 511.833,272.5 511.5,272.833 511.5,273.5C 510.833,273.5 510.5,273.833 510.5,274.5C 509.833,274.5 509.5,274.833 509.5,275.5C 508.833,275.5 508.5,275.833 508.5,276.5C 507.833,276.5 507.5,276.833 507.5,277.5C 505.388,278.44 503.388,279.606 501.5,281C 504.167,281.667 504.167,282.333 501.5,283C 498.633,283.801 495.966,283.634 493.5,282.5C 501.5,282.167 501.5,281.833 493.5,281.5C 492.791,280.596 491.791,280.263 490.5,280.5C 489.728,284.452 489.395,288.452 489.5,292.5C 488.129,298.522 486.795,304.689 485.5,311C 485.387,312.699 486.053,313.866 487.5,314.5C 487.63,318.525 488.63,322.191 490.5,325.5C 490.335,328.518 490.502,331.518 491,334.5C 491.939,338.675 493.105,342.675 494.5,346.5C 494.251,356.428 494.251,366.428 494.5,376.5C 493.167,378.167 493.167,379.833 494.5,381.5C 494.5,382.5 494.5,383.5 494.5,384.5C 493.566,385.568 493.232,386.901 493.5,388.5C 492.566,389.568 492.232,390.901 492.5,392.5C 495.941,392.301 499.274,392.801 502.5,394C 515.578,399.04 528.245,404.874 540.5,411.5C 540.973,412.906 541.973,413.573 543.5,413.5C 549.906,417.529 556.906,420.196 564.5,421.5C 571.473,423.321 578.473,425.488 585.5,428C 596.619,433.976 607.786,439.809 619,445.5C 620.795,448.099 622.295,450.766 623.5,453.5C 623.5,454.167 623.833,454.5 624.5,454.5C 628.164,457.335 632.164,459.668 636.5,461.5C 639.551,463.352 642.884,464.686 646.5,465.5C 663.35,468.753 679.016,475.087 693.5,484.5C 693.5,485.167 693.833,485.5 694.5,485.5C 700.5,490.833 706.167,496.5 711.5,502.5C 711.5,503.167 711.833,503.5 712.5,503.5C 713.864,505.191 715.197,506.858 716.5,508.5C 716.5,509.167 716.833,509.5 717.5,509.5C 726.389,521.06 734.056,533.393 740.5,546.5C 740.402,548.553 741.069,550.22 742.5,551.5C 744.519,558.259 746.519,564.926 748.5,571.5C 748.216,573.415 748.549,575.081 749.5,576.5C 749.5,577.5 749.5,578.5 749.5,579.5C 747.5,579.5 745.5,579.5 743.5,579.5C 741.139,562.253 735.306,546.253 726,531.5C 714.983,514.148 701.483,498.982 685.5,486C 676.479,480.488 666.813,476.655 656.5,474.5C 645.137,472.15 634.47,467.817 624.5,461.5C 624.411,480.832 625.244,500.165 627,519.5C 628.023,539.488 628.523,559.488 628.5,579.5C 626.833,579.5 625.167,579.5 623.5,579.5C 623.61,538.084 621.776,496.751 618,455.5C 616.904,450.235 613.737,447.235 608.5,446.5C 600.607,442.885 592.941,438.718 585.5,434C 575.394,430.245 565.06,427.245 554.5,425C 544.992,420.745 535.659,416.245 526.5,411.5C 526.44,410.957 526.107,410.624 525.5,410.5C 524.505,416.128 524.171,421.794 524.5,427.5C 523.381,467.032 510.881,502.366 487,533.5C 478.679,543.163 469.179,551.33 458.5,558C 453,563.5 447.5,569 442,574.5C 440.906,576.078 440.072,577.745 439.5,579.5C 437.5,579.5 435.5,579.5 433.5,579.5C 443.001,565.166 455.001,553.332 469.5,544C 497.165,518.172 513.332,486.338 518,448.5C 520.033,434.644 520.533,420.811 519.5,407C 514.503,405.058 509.503,403.224 504.5,401.5C 501.725,399.792 498.725,398.458 495.5,397.5C 493.971,397.529 492.804,398.196 492,399.5C 500.236,454.475 483.403,499.975 441.5,536C 428.783,545.044 416.949,555.211 406,566.5C 402.659,570.52 399.825,574.853 397.5,579.5C 395.833,579.5 394.167,579.5 392.5,579.5C 398.096,568.189 405.762,558.355 415.5,550C 433.57,537.264 449.737,522.431 464,505.5C 467.698,499.966 471.198,494.299 474.5,488.5C 457.51,487.334 440.51,487.167 423.5,488C 416.209,489.482 409.542,492.315 403.5,496.5C 403.167,496.5 402.833,496.5 402.5,496.5C 408.656,489.752 416.323,485.585 425.5,484C 442.843,483.833 460.176,483.333 477.5,482.5C 487.964,459.119 491.297,434.786 487.5,409.5C 487.167,410.167 486.833,410.833 486.5,411.5C 483.721,420.015 481.554,428.681 480,437.5C 477.061,439.397 473.895,440.23 470.5,440C 468.299,437.261 466.632,434.261 465.5,431C 465.858,428.968 466.692,427.134 468,425.5C 475.414,419.834 478.581,412.334 477.5,403C 477.046,401.378 476.046,400.212 474.5,399.5C 473.081,401.336 471.914,403.336 471,405.5C 470.59,404.099 470.09,402.766 469.5,401.5C 469.833,380.156 469.5,358.823 468.5,337.5C 463.31,341.858 457.977,346.024 452.5,350C 444.167,359 435.833,368 427.5,377C 414.912,385.651 400.912,389.984 385.5,390C 362.326,393.598 341.326,388.598 322.5,375C 314.814,366.458 307.981,357.292 302,347.5C 295,341.167 288,334.833 281,328.5C 279.915,336.95 279.415,345.45 279.5,354C 279.5,361.008 279.834,367.842 280.5,374.5C 280.324,380.695 280.657,386.862 281.5,393C 281.341,402.078 279.674,402.578 276.5,394.5C 275.119,395 274.453,396 274.5,397.5C 275.229,402.47 275.729,407.47 276,412.5C 278.371,416.033 281.038,419.366 284,422.5C 285.401,427.748 283.901,431.915 279.5,435C 275.812,435.413 272.646,434.246 270,431.5C 269.434,422.495 267.434,413.828 264,405.5C 261.018,407.196 259.684,409.863 260,413.5C 257.432,438.261 261.598,461.761 272.5,484C 291.21,484.066 309.877,484.733 328.5,486C 336.895,488.063 344.062,492.23 350,498.5C 350.667,499.167 350.667,499.833 350,500.5C 342.077,492.789 332.577,488.789 321.5,488.5C 305.995,487.173 290.328,487.173 274.5,488.5C 274.624,489.107 274.957,489.44 275.5,489.5C 288.12,512.291 305.454,530.791 327.5,545C 339.951,554.274 349.618,565.774 356.5,579.5C 354.833,579.5 353.167,579.5 351.5,579.5C 340.332,562.165 325.998,547.999 308.5,537C 265.917,500.592 248.584,454.592 256.5,399C 252.598,398.112 248.931,398.612 245.5,400.5C 239.889,402.538 234.389,404.871 229,407.5C 227.112,443.515 234.446,477.515 251,509.5C 262.743,528.577 277.909,544.41 296.5,557C 304.171,563.494 310.505,570.994 315.5,579.5C 313.5,579.5 311.5,579.5 309.5,579.5C 300.643,566.81 289.643,556.31 276.5,548C 246.708,520.028 229.874,485.528 226,444.5C 225.074,433.176 224.24,421.843 223.5,410.5C 213.231,416.468 202.564,421.634 191.5,426C 182.664,427.709 173.997,430.042 165.5,433C 157.631,437.435 149.631,441.601 141.5,445.5C 136.323,446.508 132.823,449.508 131,454.5C 126.979,496.073 125.145,537.739 125.5,579.5C 123.833,579.5 122.167,579.5 120.5,579.5C 120.644,541.932 122.311,504.432 125.5,467C 125.167,465.167 124.833,463.333 124.5,461.5C 114.174,467.84 103.174,472.174 91.5,474.5C 80.2192,476.807 69.8858,481.307 60.5,488C 35.9169,508.593 18.4169,534.093 8,564.5C 6.58399,569.412 5.75065,574.412 5.5,579.5C 3.5,579.5 1.5,579.5 -0.5,579.5C -0.5,578.5 -0.5,577.5 -0.5,576.5C 0.461384,574.735 0.794717,572.735 0.5,570.5C 10.8668,533.263 31.5334,503.096 62.5,480C 75.909,472.396 90.2423,467.396 105.5,465C 108.448,463.763 111.115,462.263 113.5,460.5C 117.655,459.258 121.322,457.258 124.5,454.5C 126.008,452.819 127.008,450.819 127.5,448.5C 129.309,445.861 131.642,443.694 134.5,442C 144.564,438.135 154.23,433.468 163.5,428C 173.691,424.535 184.025,421.535 194.5,419C 212.228,408.968 230.562,400.302 249.5,393C 253.244,392.071 256.744,392.571 260,394.5C 258.586,379.905 258.253,365.239 259,350.5C 260.402,340.089 262.235,329.755 264.5,319.5C 265.99,315.845 267.324,312.012 268.5,308C 268.046,305.97 267.38,304.137 266.5,302.5C 266.784,300.585 266.451,298.919 265.5,297.5C 265.795,295.265 265.461,293.265 264.5,291.5C 264.819,286.354 264.153,281.354 262.5,276.5C 261.893,276.624 261.56,276.957 261.5,277.5C 260.209,277.263 259.209,277.596 258.5,278.5C 250.033,277.772 243.699,273.772 239.5,266.5C 237.3,253.643 236.3,240.643 236.5,227.5C 237.139,226.903 237.472,226.07 237.5,225C 236.978,220.335 236.311,215.835 235.5,211.5C 235.5,209.167 235.5,206.833 235.5,204.5C 236.953,198.713 240.619,195.38 246.5,194.5C 247.833,194.167 247.833,193.833 246.5,193.5C 246.737,192.209 246.404,191.209 245.5,190.5C 245.283,186.295 244.617,182.295 243.5,178.5C 243.784,176.585 243.451,174.919 242.5,173.5C 242.435,170.572 241.768,167.905 240.5,165.5C 240.806,162.615 240.473,159.948 239.5,157.5C 239.701,151.491 240.034,145.491 240.5,139.5C 242.102,135.761 243.102,131.761 243.5,127.5C 245.072,124.785 246.072,121.785 246.5,118.5C 248.281,114.256 250.115,109.923 252,105.5C 252.684,102.62 252.517,99.7866 251.5,97C 254.09,81.3733 260.423,67.54 270.5,55.5C 271.167,55.5 271.5,55.1667 271.5,54.5C 272.935,52.4024 274.102,50.0691 275,47.5C 278.213,44.6233 281.713,42.1233 285.5,40C 288.22,35.6347 292.22,33.3014 297.5,33C 300.787,28.8732 304.787,25.7066 309.5,23.5C 312.028,19.2264 314.362,14.893 316.5,10.5C 317.167,10.5 317.5,10.1667 317.5,9.5C 326.126,4.51098 335.459,2.34432 345.5,3C 347.519,3.44966 349.352,4.283 351,5.5C 356.631,2.84448 362.298,2.84448 368,5.5C 376.939,2.85365 386.105,1.35365 395.5,1C 396.416,0.721579 397.082,0.221579 397.5,-0.5 Z M 477.5,359.5 C 476.505,370.654 476.172,381.988 476.5,393.5C 475.711,393.217 475.044,392.717 474.5,392C 475.324,377.908 475.824,363.741 476,349.5C 477.316,352.688 477.816,356.022 477.5,359.5 Z M 273.5,364.5 C 274.199,371.37 274.866,378.37 275.5,385.5C 275.192,386.308 274.692,386.975 274,387.5C 273.5,379.841 273.334,372.174 273.5,364.5 Z M 478.5,374.5 C 478.83,381.2 478.497,387.866 477.5,394.5C 476.893,394.376 476.56,394.043 476.5,393.5C 477.167,387.167 477.833,380.833 478.5,374.5 Z"/></g>
<g><path style="opacity:1" fill="#5a3224" d="M 482.5,317.5 C 486.172,331.152 488.838,345.152 490.5,359.5C 490.273,374.316 488.773,388.983 486,403.5C 483.363,409.385 481.029,415.385 479,421.5C 478.667,425.167 478.333,428.833 478,432.5C 476.453,434.887 474.287,436.22 471.5,436.5C 471.523,434.4 470.856,432.567 469.5,431C 473.365,427.112 476.531,422.612 479,417.5C 479.177,410.378 480.177,403.378 482,396.5C 483.86,381.506 483.86,366.506 482,351.5C 479.334,345.496 477.168,339.329 475.5,333C 477.935,327.958 480.268,322.791 482.5,317.5 Z"/></g>
<g><path style="opacity:1" fill="#593124" d="M 271.5,314.5 C 276.322,320.945 277.822,328.279 276,336.5C 272.07,344.295 270.07,352.629 270,361.5C 269.099,378.564 269.765,395.564 272,412.5C 274.58,417.577 277.747,422.244 281.5,426.5C 280.162,428.337 278.662,430.003 277,431.5C 275.527,431.097 274.194,430.43 273,429.5C 272.667,425.167 272.333,420.833 272,416.5C 269.667,409.87 267.333,403.203 265,396.5C 261.746,375.357 262.079,354.357 266,333.5C 267.696,327.101 269.53,320.768 271.5,314.5 Z"/></g>
<g><path style="opacity:0.004" fill="#0b0000" d="M 493.5,281.5 C 493.5,281.833 493.5,282.167 493.5,282.5C 492.637,283.463 491.97,283.463 491.5,282.5C 491.957,281.702 492.624,281.369 493.5,281.5 Z"/></g>
<g><path style="opacity:1" fill="#d2946a" d="M 514.5,239.5 C 512.237,246.631 511.07,253.964 511,261.5C 508.363,271.17 502.196,275.67 492.5,275C 491.584,274.722 490.918,274.222 490.5,273.5C 490.334,266.492 490.5,259.492 491,252.5C 496.542,247.289 502.375,242.456 508.5,238C 510.709,236.127 512.542,233.96 514,231.5C 514.497,234.146 514.664,236.813 514.5,239.5 Z"/></g>
<g><path style="opacity:1" fill="#d2946a" d="M 242.5,231.5 C 250.407,237.572 257.574,244.572 264,252.5C 264.499,257.155 264.666,261.821 264.5,266.5C 257.285,274.888 250.785,274.222 245,264.5C 243.931,255.49 242.764,246.49 241.5,237.5C 241.505,235.304 241.838,233.304 242.5,231.5 Z"/></g>
<g><path style="opacity:1" fill="#bf815c" d="M 514.5,239.5 C 514.664,236.813 514.497,234.146 514,231.5C 512.542,233.96 510.709,236.127 508.5,238C 502.375,242.456 496.542,247.289 491,252.5C 490.5,259.492 490.334,266.492 490.5,273.5C 489.085,262.615 489.252,251.615 491,240.5C 496.039,227.571 503.205,216.071 512.5,206C 511.092,205.685 509.759,206.018 508.5,207C 503.226,211.435 498.893,216.602 495.5,222.5C 494.413,216.544 493.746,210.544 493.5,204.5C 499.232,204.223 504.732,202.889 510,200.5C 511.107,200.585 512.107,200.919 513,201.5C 513.631,205.857 513.465,210.191 512.5,214.5C 514.525,222.923 515.192,231.257 514.5,239.5 Z"/></g>
<g><path style="opacity:1" fill="#be805b" d="M 264.5,266.5 C 264.666,261.821 264.499,257.155 264,252.5C 257.574,244.572 250.407,237.572 242.5,231.5C 241.803,221.967 241.803,212.467 242.5,203C 243.212,201.558 244.379,200.725 246,200.5C 250.048,201.897 254.214,202.897 258.5,203.5C 259.779,208.147 259.779,212.814 258.5,217.5C 255.048,211.193 250.048,207.026 243.5,205C 261.546,221.887 268.546,242.387 264.5,266.5 Z"/></g>
<g><path style="opacity:1" fill="#563221" d="M 391.5,180.5 C 392.451,181.919 392.784,183.585 392.5,185.5C 392.662,187.527 392.495,189.527 392,191.5C 391.487,190.473 390.987,189.473 390.5,188.5C 391.473,186.052 391.806,183.385 391.5,180.5 Z"/></g>
<g><path style="opacity:1" fill="#86563d" d="M 488.5,161.5 C 493.237,171.908 495.404,182.908 495,194.5C 492.105,196.975 490.272,199.975 489.5,203.5C 487.747,199.077 486.747,194.41 486.5,189.5C 488.126,180.242 488.792,170.908 488.5,161.5 Z"/></g>
<g><path style="opacity:1" fill="#8c5c40" d="M 264.5,157.5 C 265.708,178.1 265.708,198.767 264.5,219.5C 263.672,213.681 263.172,207.681 263,201.5C 261.77,198.268 259.77,195.601 257,193.5C 256.673,180.82 259.173,168.82 264.5,157.5 Z"/></g>
<g><path style="opacity:1" fill="#170c04" d="M 381.5,148.5 C 383.425,156.044 386.258,163.377 390,170.5C 390.61,173.827 391.11,177.161 391.5,180.5C 391.806,183.385 391.473,186.052 390.5,188.5C 388.589,178.262 385.755,168.262 382,158.5C 381.502,155.183 381.335,151.85 381.5,148.5 Z"/></g>
<g><path style="opacity:1" fill="#c2825d" d="M 351.5,115.5 C 352.428,120.486 353.095,125.652 353.5,131C 350.389,143.366 350.889,155.533 355,167.5C 355.905,176.121 353.572,183.788 348,190.5C 344.088,195.083 339.588,198.917 334.5,202C 325.552,203.375 316.552,203.542 307.5,202.5C 299.121,202.589 290.787,203.256 282.5,204.5C 280.288,204.588 278.288,204.088 276.5,203C 280.674,200.412 285.007,198.079 289.5,196C 291.602,194.267 291.935,192.267 290.5,190C 282.266,185.092 277.099,177.925 275,168.5C 273.637,157.409 274.804,146.742 278.5,136.5C 278.187,139.247 278.52,141.914 279.5,144.5C 283.699,138.469 288.699,133.302 294.5,129C 302.344,123.539 311.011,121.539 320.5,123C 328.511,126.42 336.844,127.754 345.5,127C 351,125.199 353,121.366 351.5,115.5 Z"/></g>
<g><path style="opacity:1" fill="#c3825e" d="M 401.5,114.5 C 399.061,126.227 403.728,130.727 415.5,128C 419.719,127.827 423.719,126.827 427.5,125C 436.45,123.766 445.117,124.766 453.5,128C 455.418,130.928 458.085,132.594 461.5,133C 464.248,137.752 467.748,141.919 472,145.5C 473.724,141.178 473.224,137.012 470.5,133C 470.57,132.235 470.903,131.735 471.5,131.5C 479.221,140.268 484.888,150.268 488.5,161.5C 488.792,170.908 488.126,180.242 486.5,189.5C 486.747,194.41 487.747,199.077 489.5,203.5C 490.222,211.827 490.389,220.16 490,228.5C 488.13,234.442 486.464,240.442 485,246.5C 485.569,268.03 483.902,289.363 480,310.5C 478.136,316.56 475.47,322.226 472,327.5C 462.627,335.711 453.127,343.711 443.5,351.5C 443.062,351.565 442.728,351.399 442.5,351C 444.167,349.177 445.167,347.01 445.5,344.5C 444.19,341.152 443.023,337.818 442,334.5C 437.617,334.791 433.617,336.125 430,338.5C 429.667,338.167 429.333,337.833 429,337.5C 427.333,339.5 425.667,341.5 424,343.5C 423.667,343.167 423.333,342.833 423,342.5C 421.601,343.227 420.101,343.727 418.5,344C 416.946,345.892 415.112,347.392 413,348.5C 410.915,346.891 408.749,345.558 406.5,344.5C 407.552,344.649 408.552,344.483 409.5,344C 418.288,336.179 426.788,328.012 435,319.5C 440.521,311.926 443.354,303.426 443.5,294C 441.3,280.237 440.466,266.404 441,252.5C 444.348,243.392 450.848,237.892 460.5,236C 469.623,229.419 473.956,220.419 473.5,209C 473.239,203.163 472.239,197.496 470.5,192C 466.958,191.82 463.958,193.153 461.5,196C 458.052,197.927 454.385,199.261 450.5,200C 434.737,201.381 419.403,199.381 404.5,194C 399.944,191.894 395.944,189.061 392.5,185.5C 392.784,183.585 392.451,181.919 391.5,180.5C 391.11,177.161 390.61,173.827 390,170.5C 386.258,163.377 383.425,156.044 381.5,148.5C 382.886,138.74 385.72,129.407 390,120.5C 393.536,117.816 397.369,115.816 401.5,114.5 Z"/></g>
<g><path style="opacity:1" fill="#2f1e15" d="M 413.5,181.5 C 418.19,184.349 423.19,186.516 428.5,188C 423.427,188.312 418.76,186.978 414.5,184C 413.748,183.329 413.414,182.496 413.5,181.5 Z"/></g>
<g><path style="opacity:1" fill="#1a1008" d="M 423.5,160.5 C 437.009,159.426 448.009,164.092 456.5,174.5C 446.652,180.421 435.985,182.588 424.5,181C 416.43,177.955 408.43,174.955 400.5,172C 401.167,171 401.833,170 402.5,169C 409.559,166.131 416.559,163.298 423.5,160.5 Z"/></g>
<g><path style="opacity:1" fill="#e4e2e2" d="M 439.5,168.5 C 441.703,168.604 443.703,169.27 445.5,170.5C 447.074,173.43 446.408,175.93 443.5,178C 440.144,179.182 436.81,179.349 433.5,178.5C 437.03,176.11 439.03,172.776 439.5,168.5 Z"/></g>
<g><path style="opacity:1" fill="#ebeae9" d="M 417.5,168.5 C 417.97,171.745 419.303,174.579 421.5,177C 417.4,176.619 413.734,175.119 410.5,172.5C 411.665,169.41 413.998,168.076 417.5,168.5 Z"/></g>
<g><path style="opacity:1" fill="#969391" d="M 417.5,168.5 C 413.998,168.076 411.665,169.41 410.5,172.5C 409.427,171.749 409.26,170.749 410,169.5C 412.034,167.968 414.201,166.635 416.5,165.5C 417.386,166.325 417.719,167.325 417.5,168.5 Z"/></g>
<g><path style="opacity:1" fill="#979593" d="M 445.5,170.5 C 443.703,169.27 441.703,168.604 439.5,168.5C 437.895,164.606 438.895,163.773 442.5,166C 444.141,167.129 445.141,168.629 445.5,170.5 Z"/></g>
<g><path style="opacity:1" fill="#584437" d="M 422.5,166.5 C 422.557,167.609 422.89,168.609 423.5,169.5C 425.738,173.96 428.904,174.627 433,171.5C 433.743,169.559 433.576,167.726 432.5,166C 434.955,165.228 436.622,166.061 437.5,168.5C 434.942,177.597 429.775,179.597 422,174.5C 419.866,171.508 420.032,168.842 422.5,166.5 Z"/></g>
<g><path style="opacity:1" fill="#e1dfde" d="M 423.5,169.5 C 422.89,168.609 422.557,167.609 422.5,166.5C 423.255,164.534 424.421,164.2 426,165.5C 426.91,167.945 426.076,169.278 423.5,169.5 Z"/></g>
<g><path style="opacity:1" fill="#180e08" d="M 426.5,148.5 C 437.212,147.689 445.879,151.523 452.5,160C 448.015,157.412 443.349,154.745 438.5,152C 432.415,151.139 426.415,151.473 420.5,153C 416.101,154.906 412.101,157.406 408.5,160.5C 412.762,154.646 418.762,150.646 426.5,148.5 Z"/></g>
<g><path style="opacity:1" fill="#5f3527" d="M 448.5,110.5 C 453.316,113.748 457.982,117.248 462.5,121C 466.085,124.078 469.085,127.578 471.5,131.5C 470.903,131.735 470.57,132.235 470.5,133C 473.224,137.012 473.724,141.178 472,145.5C 467.748,141.919 464.248,137.752 461.5,133C 458.085,132.594 455.418,130.928 453.5,128C 445.117,124.766 436.45,123.766 427.5,125C 423.719,126.827 419.719,127.827 415.5,128C 403.728,130.727 399.061,126.227 401.5,114.5C 402.74,113.341 404.074,112.341 405.5,111.5C 419.145,109.169 432.811,109.169 446.5,111.5C 447.416,111.457 448.083,111.124 448.5,110.5 Z"/></g>
<g><path style="opacity:1" fill="#5e3427" d="M 351.5,115.5 C 353,121.366 351,125.199 345.5,127C 336.844,127.754 328.511,126.42 320.5,123C 311.011,121.539 302.344,123.539 294.5,129C 288.699,133.302 283.699,138.469 279.5,144.5C 278.52,141.914 278.187,139.247 278.5,136.5C 281.218,134.618 281.885,132.285 280.5,129.5C 287.046,122.231 294.38,115.898 302.5,110.5C 304.543,111.229 306.543,110.729 308.5,109C 322.261,107.946 335.928,108.612 349.5,111C 350.582,112.33 351.249,113.83 351.5,115.5 Z"/></g>
<g><path style="opacity:1" fill="#bd7e5b" d="M 404.5,94.5 C 420.419,96.4723 435.086,101.806 448.5,110.5C 448.083,111.124 447.416,111.457 446.5,111.5C 432.811,109.169 419.145,109.169 405.5,111.5C 407.084,105.687 406.751,100.02 404.5,94.5 Z"/></g>
<g><path style="opacity:1" fill="#d4956b" d="M 404.5,94.5 C 406.751,100.02 407.084,105.687 405.5,111.5C 404.074,112.341 402.74,113.341 401.5,114.5C 397.369,115.816 393.536,117.816 390,120.5C 385.72,129.407 382.886,138.74 381.5,148.5C 381.335,151.85 381.502,155.183 382,158.5C 385.755,168.262 388.589,178.262 390.5,188.5C 390.987,189.473 391.487,190.473 392,191.5C 392.495,189.527 392.662,187.527 392.5,185.5C 395.944,189.061 399.944,191.894 404.5,194C 419.403,199.381 434.737,201.381 450.5,200C 454.385,199.261 458.052,197.927 461.5,196C 463.958,193.153 466.958,191.82 470.5,192C 472.239,197.496 473.239,203.163 473.5,209C 473.956,220.419 469.623,229.419 460.5,236C 450.848,237.892 444.348,243.392 441,252.5C 440.466,266.404 441.3,280.237 443.5,294C 443.354,303.426 440.521,311.926 435,319.5C 426.788,328.012 418.288,336.179 409.5,344C 408.552,344.483 407.552,344.649 406.5,344.5C 404.535,342.512 402.202,341.012 399.5,340C 389.538,338.064 379.538,336.897 369.5,336.5C 367.833,336.667 366.167,336.833 364.5,337C 366.9,337.186 369.234,337.686 371.5,338.5C 370.5,338.833 369.5,339.167 368.5,339.5C 355.985,336.035 345.485,339.035 337,348.5C 334.804,347.91 332.638,347.243 330.5,346.5C 329.719,345.271 329.219,343.938 329,342.5C 327.455,343.821 326.289,343.488 325.5,341.5C 323.577,340.692 321.577,340.192 319.5,340C 315.899,333.449 311.732,332.949 307,338.5C 306.667,338.167 306.333,337.833 306,337.5C 306.412,339.995 306.245,342.329 305.5,344.5C 298.197,337.366 290.697,330.366 283,323.5C 275.775,312.955 271.442,301.288 270,288.5C 269.667,270.833 269.333,253.167 269,235.5C 267.764,230.047 266.264,224.713 264.5,219.5C 265.708,198.767 265.708,178.1 264.5,157.5C 267.78,146.934 273.113,137.601 280.5,129.5C 281.885,132.285 281.218,134.618 278.5,136.5C 274.804,146.742 273.637,157.409 275,168.5C 277.099,177.925 282.266,185.092 290.5,190C 291.935,192.267 291.602,194.267 289.5,196C 285.007,198.079 280.674,200.412 276.5,203C 278.288,204.088 280.288,204.588 282.5,204.5C 290.787,203.256 299.121,202.589 307.5,202.5C 316.552,203.542 325.552,203.375 334.5,202C 339.588,198.917 344.088,195.083 348,190.5C 353.572,183.788 355.905,176.121 355,167.5C 350.889,155.533 350.389,143.366 353.5,131C 353.095,125.652 352.428,120.486 351.5,115.5C 351.249,113.83 350.582,112.33 349.5,111C 335.928,108.612 322.261,107.946 308.5,109C 306.543,110.729 304.543,111.229 302.5,110.5C 324.691,97.2855 348.857,90.9522 375,91.5C 385.079,91.5455 394.913,92.5455 404.5,94.5 Z"/></g>
<g><path style="opacity:1" fill="#1b0f06" d="M 351.5,305.5 C 366.759,309.076 382.093,309.41 397.5,306.5C 381.985,314.739 366.652,314.405 351.5,305.5 Z"/></g>
<g><path style="opacity:1" fill="#ae7352" d="M 410.5,277.5 C 414.506,279.843 418.173,282.676 421.5,286C 423.515,287.555 423.848,289.389 422.5,291.5C 415.15,295.021 408.484,299.521 402.5,305C 400.975,306.009 399.308,306.509 397.5,306.5C 382.093,309.41 366.759,309.076 351.5,305.5C 350.448,305.649 349.448,305.483 348.5,305C 341.645,299.143 335.145,292.976 329,286.5C 328.333,285.5 328.333,284.5 329,283.5C 331.976,280.47 335.143,277.803 338.5,275.5C 342.994,273.088 347.661,270.921 352.5,269C 356.5,268.333 360.5,268.333 364.5,269C 367.564,270.244 370.731,271.077 374,271.5C 377.79,270.404 381.624,269.404 385.5,268.5C 394.148,270.659 402.481,273.659 410.5,277.5 Z"/></g>
<g><path style="opacity:1" fill="#19120d" d="M 355.5,279.5 C 367.505,279.333 379.505,279.5 391.5,280C 399.691,281.593 407.357,284.593 414.5,289C 402.881,290.428 391.547,293.095 380.5,297C 372.3,298.537 364.634,297.203 357.5,293C 350.381,291.736 343.381,290.07 336.5,288C 342.773,284.857 349.107,282.024 355.5,279.5 Z"/></g>
<g><path style="opacity:1" fill="#f0f0ef" d="M 352.5,282.5 C 365.516,283.34 378.516,283.506 391.5,283C 394.529,283.539 397.529,284.206 400.5,285C 402.555,285.687 404.221,286.854 405.5,288.5C 397.994,289.25 390.661,290.75 383.5,293C 377.5,293.667 371.5,293.667 365.5,293C 359.36,290.772 353.026,289.439 346.5,289C 345.289,287.887 345.289,286.72 346.5,285.5C 348.444,284.199 350.444,283.199 352.5,282.5 Z"/></g>
<g><path style="opacity:1" fill="#231812" d="M 314.5,262.5 C 315.043,262.56 315.376,262.893 315.5,263.5C 312.073,266.355 310.239,270.021 310,274.5C 308.976,269.548 310.476,265.548 314.5,262.5 Z"/></g>
<g><path style="opacity:1" fill="#86553e" d="M 364.5,247.5 C 365.568,248.434 366.901,248.768 368.5,248.5C 369.622,249.156 370.955,249.489 372.5,249.5C 384.58,245.645 395.913,247.145 406.5,254C 413.952,259.117 421.118,264.617 428,270.5C 431.85,276.63 432.35,282.964 429.5,289.5C 419.146,277.478 406.479,268.645 391.5,263C 385.117,262.641 378.784,263.141 372.5,264.5C 367.658,263.898 362.825,263.232 358,262.5C 356.5,262.833 355,263.167 353.5,263.5C 356.977,264.167 360.311,264.834 363.5,265.5C 359.434,265.307 355.434,265.64 351.5,266.5C 350.796,264.656 349.463,264.156 347.5,265C 334.891,270.209 324.724,278.376 317,289.5C 315.005,286.703 314.172,283.537 314.5,280C 314.443,277.04 314.943,274.207 316,271.5C 325.803,262.041 336.97,254.541 349.5,249C 354.401,247.675 359.401,247.175 364.5,247.5 Z"/></g>
<g><path style="opacity:1" fill="#1a0e04" d="M 363.5,265.5 C 366.541,266.678 369.708,267.345 373,267.5C 387.363,263.787 399.863,267.12 410.5,277.5C 402.481,273.659 394.148,270.659 385.5,268.5C 381.624,269.404 377.79,270.404 374,271.5C 370.731,271.077 367.564,270.244 364.5,269C 360.5,268.333 356.5,268.333 352.5,269C 347.661,270.921 342.994,273.088 338.5,275.5C 342.311,271.76 346.644,268.76 351.5,266.5C 355.434,265.64 359.434,265.307 363.5,265.5 Z"/></g>
<g><path style="opacity:1" fill="#1a0e04" d="M 392.5,205.5 C 392.987,206.473 393.487,207.473 394,208.5C 400.457,212.952 405.457,218.619 409,225.5C 411.213,233.744 408.713,239.744 401.5,243.5C 400.127,243.657 398.793,243.49 397.5,243C 405.23,240.041 408.063,234.541 406,226.5C 401.36,219.693 396.527,213.027 391.5,206.5C 391.624,205.893 391.957,205.56 392.5,205.5 Z"/></g>
<g><path style="opacity:1" fill="#1f1107" d="M 352.5,208.5 C 348.248,214.599 343.748,220.599 339,226.5C 338.175,233.015 340.675,237.849 346.5,241C 344.831,241.122 343.165,240.788 341.5,240C 340.295,238.624 338.962,237.458 337.5,236.5C 335.157,231.577 334.99,226.577 337,221.5C 342.086,216.483 347.086,211.483 352,206.5C 352.464,207.094 352.631,207.761 352.5,208.5 Z"/></g>
<g><path style="opacity:1" fill="#c0805c" d="M 392.5,205.5 C 391.957,205.56 391.624,205.893 391.5,206.5C 396.527,213.027 401.36,219.693 406,226.5C 408.063,234.541 405.23,240.041 397.5,243C 398.793,243.49 400.127,243.657 401.5,243.5C 400.508,245.026 399.008,245.693 397,245.5C 393.82,245.079 390.82,244.079 388,242.5C 381.985,246.452 375.485,248.452 368.5,248.5C 366.901,248.768 365.568,248.434 364.5,247.5C 365.552,247.649 366.552,247.483 367.5,247C 364.399,245.034 361.232,243.2 358,241.5C 350.964,247.085 344.298,246.752 338,240.5C 337.51,239.207 337.343,237.873 337.5,236.5C 338.962,237.458 340.295,238.624 341.5,240C 343.165,240.788 344.831,241.122 346.5,241C 340.675,237.849 338.175,233.015 339,226.5C 343.748,220.599 348.248,214.599 352.5,208.5C 352.81,209.738 353.31,209.738 354,208.5C 354.333,212.5 354.667,216.5 355,220.5C 357.711,217.958 360.211,215.291 362.5,212.5C 363.983,216.38 365.15,220.38 366,224.5C 374.524,229.283 382.191,228.283 389,221.5C 390.483,214.451 388.65,208.451 383.5,203.5C 386.725,202.903 389.725,203.569 392.5,205.5 Z"/></g>
<g><path style="opacity:1" fill="#1b0e05" d="M 349.5,229.5 C 351.288,228.378 353.288,228.211 355.5,229C 360.077,231.239 364.411,233.905 368.5,237C 371.833,237.667 375.167,237.667 378.5,237C 381.557,234.277 384.89,231.944 388.5,230C 391.167,229.333 393.833,229.333 396.5,230C 394.048,230.29 391.715,230.956 389.5,232C 377.819,244.959 366.485,244.626 355.5,231C 353.655,229.872 351.655,229.372 349.5,229.5 Z"/></g>
<g><path style="opacity:1" fill="#472b1d" d="M 334.5,183.5 C 336.379,183.393 336.712,183.893 335.5,185C 330.894,188.033 325.894,189.033 320.5,188C 325.422,187.143 330.089,185.643 334.5,183.5 Z"/></g>
<g><path style="opacity:1" fill="#1a1009" d="M 314.5,159.5 C 319.58,159.25 324.58,159.75 329.5,161C 335.167,163.333 340.833,165.667 346.5,168C 349.816,169.251 350.15,170.918 347.5,173C 340.272,175.52 332.939,177.853 325.5,180C 314.973,181.697 304.973,180.197 295.5,175.5C 294.417,174.635 294.251,173.635 295,172.5C 300.482,166.518 306.982,162.185 314.5,159.5 Z"/></g>
<g><path style="opacity:1" fill="#7e5039" d="M 341.5,169.5 C 342.978,169.238 344.311,169.571 345.5,170.5C 344.833,170.833 344.167,171.167 343.5,171.5C 342.287,171.253 341.62,170.586 341.5,169.5 Z"/></g>
<g><path style="opacity:1" fill="#efefee" d="M 310.5,170.5 C 310.642,173.617 311.976,176.117 314.5,178C 310.598,178.738 306.932,178.072 303.5,176C 301.963,174.89 301.297,173.39 301.5,171.5C 304.052,170.307 306.552,168.973 309,167.5C 309.232,168.737 309.732,169.737 310.5,170.5 Z"/></g>
<g><path style="opacity:1" fill="#edeceb" d="M 339.5,172.5 C 336.193,174.153 332.86,175.82 329.5,177.5C 329.167,177.167 328.833,176.833 328.5,176.5C 329.883,174.68 330.883,172.68 331.5,170.5C 332.29,169.391 332.79,168.058 333,166.5C 334.753,167.627 336.587,168.627 338.5,169.5C 339.386,170.325 339.719,171.325 339.5,172.5 Z"/></g>
<g><path style="opacity:1" fill="#928f8d" d="M 310.5,170.5 C 309.732,169.737 309.232,168.737 309,167.5C 306.552,168.973 304.052,170.307 301.5,171.5C 303.23,168.271 305.897,165.938 309.5,164.5C 310.466,166.396 310.799,168.396 310.5,170.5 Z"/></g>
<g><path style="opacity:1" fill="#999694" d="M 339.5,172.5 C 339.719,171.325 339.386,170.325 338.5,169.5C 336.587,168.627 334.753,167.627 333,166.5C 332.79,168.058 332.29,169.391 331.5,170.5C 331.201,168.396 331.534,166.396 332.5,164.5C 335.079,165.706 337.579,167.039 340,168.5C 340.765,170.066 340.598,171.399 339.5,172.5 Z"/></g>
<g><path style="opacity:1" fill="#594537" d="M 314.5,167.5 C 315.568,168.434 316.901,168.768 318.5,168.5C 314.725,169.923 314.725,171.756 318.5,174C 324.192,174.843 326.359,172.343 325,166.5C 324.5,166 324,165.5 323.5,165C 326.581,164.372 328.581,165.539 329.5,168.5C 326.105,178.678 320.605,180.012 313,172.5C 312.333,170.5 312.333,168.5 313,166.5C 313.383,167.056 313.883,167.389 314.5,167.5 Z"/></g>
<g><path style="opacity:1" fill="#b1afae" d="M 320.5,168.5 C 322.337,168.639 322.67,169.306 321.5,170.5C 320.702,170.043 320.369,169.376 320.5,168.5 Z"/></g>
<g><path style="opacity:1" fill="#dad8d7" d="M 318.5,168.5 C 316.901,168.768 315.568,168.434 314.5,167.5C 314.999,164.611 316.499,163.944 319,165.5C 319.74,166.749 319.573,167.749 318.5,168.5 Z"/></g>
<g><path style="opacity:1" fill="#0d0502" d="M 313.5,148.5 C 323.215,147.506 331.548,150.339 338.5,157C 323.234,146.971 309.4,148.805 297,162.5C 300.425,155.588 305.925,150.922 313.5,148.5 Z"/></g>
<g><path style="opacity:1" fill="#cacaca" d="M 420.5,40.5 C 456.455,53.2859 481.955,77.2859 497,112.5C 507.769,135.922 510.436,160.256 505,185.5C 504.098,189.122 502.598,192.455 500.5,195.5C 497.525,163.718 484.525,136.885 461.5,115C 447.559,104.529 432.226,97.029 415.5,92.5C 417.792,92.7564 419.959,92.4231 422,91.5C 424.808,87.5676 426.142,83.2342 426,78.5C 419.297,76.7184 412.464,75.2184 405.5,74C 402.888,73.3605 400.554,72.1938 398.5,70.5C 406.865,69.268 415.199,67.9347 423.5,66.5C 424.663,61.1977 424.829,55.8643 424,50.5C 422.533,47.2416 421.367,43.9083 420.5,40.5 Z"/></g>
<g><path style="opacity:1" fill="#e8e5e3" d="M 420.5,40.5 C 421.367,43.9083 422.533,47.2416 424,50.5C 424.829,55.8643 424.663,61.1977 423.5,66.5C 415.199,67.9347 406.865,69.268 398.5,70.5C 400.554,72.1938 402.888,73.3605 405.5,74C 412.464,75.2184 419.297,76.7184 426,78.5C 426.142,83.2342 424.808,87.5676 422,91.5C 419.959,92.4231 417.792,92.7564 415.5,92.5C 385.606,86.4864 355.939,87.3197 326.5,95C 280.804,111.831 255.971,144.664 252,193.5C 249.424,183.253 247.091,172.919 245,162.5C 245.205,122.256 260.039,88.4227 289.5,61C 319.695,36.9464 354.029,27.9464 392.5,34C 402.131,35.0914 411.464,37.258 420.5,40.5 Z"/></g>
<g><path style="opacity:1" fill="#5c3326" d="M 439.5,43.5 C 440.847,44.0283 442.181,44.195 443.5,44C 433.558,33.2332 421.225,27.2332 406.5,26C 409.309,24.8782 412.309,24.3782 415.5,24.5C 418.555,24.544 421.555,24.8773 424.5,25.5C 425.833,24.8333 425.833,24.1667 424.5,23.5C 416.027,17.8179 407.027,16.9846 397.5,21C 394.781,22.5967 392.614,24.7634 391,27.5C 390.761,28.788 391.261,29.788 392.5,30.5C 379.87,29.5582 367.204,29.2249 354.5,29.5C 352.007,23.9109 347.673,20.7443 341.5,20C 333.249,18.0989 325.916,19.7656 319.5,25C 323.001,25.336 326.501,25.1693 330,24.5C 333.005,24.4809 335.838,25.1475 338.5,26.5C 324.838,27.917 313.004,33.2503 303,42.5C 302.409,43.4835 302.743,44.1501 304,44.5C 305.138,44.0109 306.305,43.6775 307.5,43.5C 287.144,56.0242 270.977,72.6909 259,93.5C 258.537,88.5969 259.871,84.2636 263,80.5C 265.859,71.792 270.525,64.1253 277,57.5C 277.973,55.6079 278.64,53.6079 279,51.5C 282.198,48.6442 285.698,46.1442 289.5,44C 290.257,42.4878 291.257,41.1545 292.5,40C 298.883,39.3083 303.883,36.3083 307.5,31C 309.087,30.1376 310.754,29.4709 312.5,29C 315.38,24.7418 317.88,20.2418 320,15.5C 321.637,13.1898 323.804,11.6898 326.5,11C 334.646,7.9843 342.812,7.81764 351,10.5C 356.804,8.92395 362.471,9.25728 368,11.5C 370.149,10.7008 372.316,9.86749 374.5,9C 385.032,8.38317 395.365,7.04983 405.5,5C 408.95,6.0298 412.283,7.36313 415.5,9C 420.877,14.7079 425.877,20.7079 430.5,27C 433.732,28.2305 436.399,30.2305 438.5,33C 444.518,34.318 450.185,36.6513 455.5,40C 457.617,41.7309 459.117,43.8976 460,46.5C 462.292,47.7899 464.292,49.4565 466,51.5C 470.516,57.8677 474.516,64.5344 478,71.5C 479.301,73.4021 479.968,75.4021 480,77.5C 474.454,70.4628 468.288,63.9628 461.5,58C 454.273,52.8945 446.939,48.0612 439.5,43.5 Z"/></g>
<g><path style="opacity:1" fill="#583123" d="M 395.5,30.5 C 410.177,28.7483 423.177,32.415 434.5,41.5C 421.787,36.4084 408.787,32.7418 395.5,30.5 Z"/></g>
<g><path style="opacity:1" fill="#784a35" d="M 354.5,29.5 C 337.997,31.334 322.331,36.0006 307.5,43.5C 306.305,43.6775 305.138,44.0109 304,44.5C 302.743,44.1501 302.409,43.4835 303,42.5C 313.004,33.2503 324.838,27.917 338.5,26.5C 335.838,25.1475 333.005,24.4809 330,24.5C 326.501,25.1693 323.001,25.336 319.5,25C 325.916,19.7656 333.249,18.0989 341.5,20C 347.673,20.7443 352.007,23.9109 354.5,29.5 Z"/></g>
<g><path style="opacity:1" fill="#7d4e38" d="M 439.5,43.5 C 437.597,43.2041 435.93,42.5375 434.5,41.5C 423.177,32.415 410.177,28.7483 395.5,30.5C 394.5,30.5 393.5,30.5 392.5,30.5C 391.261,29.788 390.761,28.788 391,27.5C 392.614,24.7634 394.781,22.5967 397.5,21C 407.027,16.9846 416.027,17.8179 424.5,23.5C 425.833,24.1667 425.833,24.8333 424.5,25.5C 421.555,24.8773 418.555,24.544 415.5,24.5C 412.309,24.3782 409.309,24.8782 406.5,26C 421.225,27.2332 433.558,33.2332 443.5,44C 442.181,44.195 440.847,44.0283 439.5,43.5 Z"/></g>
<g><path style="opacity:1" fill="#7d4e38" d="M 367.5,13.5 C 368.496,13.4142 369.329,13.7476 370,14.5C 370.333,17.5 370.667,20.5 371,23.5C 373.685,19.8169 377.018,16.8169 381,14.5C 381.167,14.8333 381.333,15.1667 381.5,15.5C 378.306,19.5271 375.306,23.6938 372.5,28C 370.098,28.8141 367.765,28.6474 365.5,27.5C 363.218,22.8841 359.884,19.2174 355.5,16.5C 355.833,16.1667 356.167,15.8333 356.5,15.5C 360.688,17.1788 364.188,19.8455 367,23.5C 367.498,20.1832 367.665,16.8499 367.5,13.5 Z"/></g>
<g><path style="opacity:1" fill="#bb7b5a" d="M 469.5,401.5 C 468.669,389.34 468.169,377.007 468,364.5C 463.116,366.72 458.782,369.72 455,373.5C 447.363,386.476 438.196,398.31 427.5,409C 401.305,427.367 372.972,431.367 342.5,421C 334.821,417.656 328.654,412.489 324,405.5C 318.333,396.167 312.667,386.833 307,377.5C 300.416,368.622 291.916,362.289 281.5,358.5C 280.505,363.792 280.172,369.125 280.5,374.5C 279.834,367.842 279.5,361.008 279.5,354C 279.415,345.45 279.915,336.95 281,328.5C 288,334.833 295,341.167 302,347.5C 307.981,357.292 314.814,366.458 322.5,375C 341.326,388.598 362.326,393.598 385.5,390C 400.912,389.984 414.912,385.651 427.5,377C 435.833,368 444.167,359 452.5,350C 457.977,346.024 463.31,341.858 468.5,337.5C 469.5,358.823 469.833,380.156 469.5,401.5 Z"/></g>
<g><path style="opacity:1" fill="#5e3427" d="M 406.5,344.5 C 408.749,345.558 410.915,346.891 413,348.5C 415.112,347.392 416.946,345.892 418.5,344C 420.101,343.727 421.601,343.227 423,342.5C 423.333,342.833 423.667,343.167 424,343.5C 425.667,341.5 427.333,339.5 429,337.5C 429.333,337.833 429.667,338.167 430,338.5C 433.617,336.125 437.617,334.791 442,334.5C 443.023,337.818 444.19,341.152 445.5,344.5C 445.167,347.01 444.167,349.177 442.5,351C 442.728,351.399 443.062,351.565 443.5,351.5C 437.784,359.724 431.117,367.224 423.5,374C 413.011,381.172 401.345,384.839 388.5,385C 377.833,385.667 367.167,385.667 356.5,385C 342.994,382.997 331.494,377.164 322,367.5C 316.491,359.804 310.991,352.137 305.5,344.5C 306.245,342.329 306.412,339.995 306,337.5C 306.333,337.833 306.667,338.167 307,338.5C 311.732,332.949 315.899,333.449 319.5,340C 321.577,340.192 323.577,340.692 325.5,341.5C 326.289,343.488 327.455,343.821 329,342.5C 329.219,343.938 329.719,345.271 330.5,346.5C 332.638,347.243 334.804,347.91 337,348.5C 345.485,339.035 355.985,336.035 368.5,339.5C 369.5,339.167 370.5,338.833 371.5,338.5C 369.234,337.686 366.9,337.186 364.5,337C 366.167,336.833 367.833,336.667 369.5,336.5C 379.538,336.897 389.538,338.064 399.5,340C 402.202,341.012 404.535,342.512 406.5,344.5 Z"/></g>
<g><path style="opacity:0.016" fill="#130000" d="M 495.5,346.5 C 495.167,346.5 494.833,346.5 494.5,346.5C 494.833,342.5 495.167,342.5 495.5,346.5 Z"/></g>
<g><path style="opacity:0.004" fill="#000000" d="M 495.5,346.5 C 496.613,347.946 496.78,349.613 496,351.5C 495.506,349.866 495.34,348.199 495.5,346.5 Z"/></g>
<g><path style="opacity:0.004" fill="#140000" d="M 256.5,350.5 C 257.659,360.992 257.825,371.659 257,382.5C 256.5,371.839 256.333,361.172 256.5,350.5 Z"/></g>
<g><path style="opacity:1" fill="#d4966b" d="M 469.5,401.5 C 470.09,402.766 470.59,404.099 471,405.5C 471.914,403.336 473.081,401.336 474.5,399.5C 476.046,400.212 477.046,401.378 477.5,403C 478.581,412.334 475.414,419.834 468,425.5C 466.692,427.134 465.858,428.968 465.5,431C 466.632,434.261 468.299,437.261 470.5,440C 473.895,440.23 477.061,439.397 480,437.5C 481.554,428.681 483.721,420.015 486.5,411.5C 486.833,410.833 487.167,410.167 487.5,409.5C 491.297,434.786 487.964,459.119 477.5,482.5C 460.176,483.333 442.843,483.833 425.5,484C 416.323,485.585 408.656,489.752 402.5,496.5C 399.927,497.879 398.427,499.879 398,502.5C 400.04,500.63 401.873,498.63 403.5,496.5C 409.542,492.315 416.209,489.482 423.5,488C 440.51,487.167 457.51,487.334 474.5,488.5C 471.198,494.299 467.698,499.966 464,505.5C 449.737,522.431 433.57,537.264 415.5,550C 405.762,558.355 398.096,568.189 392.5,579.5C 380.5,579.5 368.5,579.5 356.5,579.5C 349.618,565.774 339.951,554.274 327.5,545C 305.454,530.791 288.12,512.291 275.5,489.5C 290.658,488.504 305.991,488.17 321.5,488.5C 332.577,488.789 342.077,492.789 350,500.5C 350.667,499.833 350.667,499.167 350,498.5C 344.062,492.23 336.895,488.063 328.5,486C 309.877,484.733 291.21,484.066 272.5,484C 261.598,461.761 257.432,438.261 260,413.5C 259.684,409.863 261.018,407.196 264,405.5C 267.434,413.828 269.434,422.495 270,431.5C 272.646,434.246 275.812,435.413 279.5,435C 283.901,431.915 285.401,427.748 284,422.5C 281.038,419.366 278.371,416.033 276,412.5C 275.729,407.47 275.229,402.47 274.5,397.5C 274.453,396 275.119,395 276.5,394.5C 279.674,402.578 281.341,402.078 281.5,393C 280.657,386.862 280.324,380.695 280.5,374.5C 280.172,369.125 280.505,363.792 281.5,358.5C 291.916,362.289 300.416,368.622 307,377.5C 312.667,386.833 318.333,396.167 324,405.5C 328.654,412.489 334.821,417.656 342.5,421C 372.972,431.367 401.305,427.367 427.5,409C 438.196,398.31 447.363,386.476 455,373.5C 458.782,369.72 463.116,366.72 468,364.5C 468.169,377.007 468.669,389.34 469.5,401.5 Z"/></g>
<g><path style="opacity:0.016" fill="#190000" d="M 495.5,376.5 C 495.334,369.159 495.5,361.826 496,354.5C 496.822,362.012 496.655,369.345 495.5,376.5 Z"/></g>
<g><path style="opacity:0.016" fill="#1b0000" d="M 477.5,359.5 C 477.185,363.371 477.518,367.038 478.5,370.5C 478.5,371.833 478.5,373.167 478.5,374.5C 477.833,380.833 477.167,387.167 476.5,393.5C 476.172,381.988 476.505,370.654 477.5,359.5 Z"/></g>
<g><path style="opacity:0.016" fill="#180000" d="M 494.5,376.5 C 494.833,376.5 495.167,376.5 495.5,376.5C 495.5,378.167 495.5,379.833 495.5,381.5C 495.167,381.5 494.833,381.5 494.5,381.5C 494.5,379.833 494.5,378.167 494.5,376.5 Z"/></g>
<g><path style="opacity:0.004" fill="#000000" d="M 495.5,381.5 C 496.525,381.897 496.692,382.563 496,383.5C 495.536,382.906 495.369,382.239 495.5,381.5 Z"/></g>
<g><path style="opacity:0.016" fill="#160000" d="M 494.5,384.5 C 495.833,385.833 495.833,387.167 494.5,388.5C 494.5,387.167 494.5,385.833 494.5,384.5 Z"/></g>
<g><path style="opacity:0.016" fill="#1a0000" d="M 493.5,388.5 C 493.833,388.5 494.167,388.5 494.5,388.5C 495.589,390.117 497.256,390.95 499.5,391C 497.527,391.495 495.527,391.662 493.5,391.5C 493.5,390.5 493.5,389.5 493.5,388.5 Z"/></g>
<g><path style="opacity:1" fill="#8c031a" d="M 351.5,579.5 C 347.833,579.5 344.167,579.5 340.5,579.5C 325.592,563.757 309.592,549.257 292.5,536C 263.611,507.708 248.111,473.208 246,432.5C 245.5,421.839 245.333,411.172 245.5,400.5C 248.931,398.612 252.598,398.112 256.5,399C 248.584,454.592 265.917,500.592 308.5,537C 325.998,547.999 340.332,562.165 351.5,579.5 Z"/></g>
<g><path style="opacity:1" fill="#8c031a" d="M 504.5,401.5 C 506.986,437.906 499.819,472.239 483,504.5C 478.245,511.676 473.245,518.676 468,525.5C 455.795,536.707 443.295,547.54 430.5,558C 423.239,564.756 416.572,571.922 410.5,579.5C 406.167,579.5 401.833,579.5 397.5,579.5C 399.825,574.853 402.659,570.52 406,566.5C 416.949,555.211 428.783,545.044 441.5,536C 483.403,499.975 500.236,454.475 492,399.5C 492.804,398.196 493.971,397.529 495.5,397.5C 498.725,398.458 501.725,399.792 504.5,401.5 Z"/></g>
<g><path style="opacity:1" fill="#e7e3e1" d="M 245.5,400.5 C 245.333,411.172 245.5,421.839 246,432.5C 248.111,473.208 263.611,507.708 292.5,536C 309.592,549.257 325.592,563.757 340.5,579.5C 332.167,579.5 323.833,579.5 315.5,579.5C 310.505,570.994 304.171,563.494 296.5,557C 277.909,544.41 262.743,528.577 251,509.5C 234.446,477.515 227.112,443.515 229,407.5C 234.389,404.871 239.889,402.538 245.5,400.5 Z"/></g>
<g><path style="opacity:0.016" fill="#1e0100" d="M 216.5,405.5 C 217.833,406.167 217.833,406.167 216.5,405.5 Z"/></g>
<g><path style="opacity:1" fill="#e6e2e0" d="M 504.5,401.5 C 509.503,403.224 514.503,405.058 519.5,407C 520.533,420.811 520.033,434.644 518,448.5C 513.332,486.338 497.165,518.172 469.5,544C 455.001,553.332 443.001,565.166 433.5,579.5C 425.833,579.5 418.167,579.5 410.5,579.5C 416.572,571.922 423.239,564.756 430.5,558C 443.295,547.54 455.795,536.707 468,525.5C 473.245,518.676 478.245,511.676 483,504.5C 499.819,472.239 506.986,437.906 504.5,401.5 Z"/></g>
<g><path style="opacity:0.016" fill="#1e0100" d="M 540.5,410.5 C 541.833,411.167 541.833,411.167 540.5,410.5 Z"/></g>
<g><path style="opacity:0.016" fill="#1e0100" d="M 543.5,412.5 C 542.833,411.167 542.833,411.167 543.5,412.5 Z"/></g>
<g><path style="opacity:1" fill="#9b9896" d="M 526.5,411.5 C 525.833,416.833 525.167,422.167 524.5,427.5C 524.171,421.794 524.505,416.128 525.5,410.5C 526.107,410.624 526.44,410.957 526.5,411.5 Z"/></g>
<g><path style="opacity:0.016" fill="#180000" d="M 543.5,413.5 C 543.5,413.167 543.5,412.833 543.5,412.5C 546.167,412.833 546.167,413.167 543.5,413.5 Z"/></g>
<g><path style="opacity:1" fill="#eae6e5" d="M 309.5,579.5 C 251.167,579.5 192.833,579.5 134.5,579.5C 132.726,534.591 135.059,489.924 141.5,445.5C 149.631,441.601 157.631,437.435 165.5,433C 173.997,430.042 182.664,427.709 191.5,426C 202.564,421.634 213.231,416.468 223.5,410.5C 224.24,421.843 225.074,433.176 226,444.5C 229.874,485.528 246.708,520.028 276.5,548C 289.643,556.31 300.643,566.81 309.5,579.5 Z"/></g>
<g><path style="opacity:0.016" fill="#1e0100" d="M 546.5,413.5 C 547.833,414.167 547.833,414.167 546.5,413.5 Z"/></g>
<g><path style="opacity:1" fill="#eae7e5" d="M 526.5,411.5 C 535.659,416.245 544.992,420.745 554.5,425C 565.06,427.245 575.394,430.245 585.5,434C 592.941,438.718 600.607,442.885 608.5,446.5C 611.234,461.374 612.901,476.374 613.5,491.5C 614.316,520.826 614.65,550.159 614.5,579.5C 556.167,579.5 497.833,579.5 439.5,579.5C 440.072,577.745 440.906,576.078 442,574.5C 447.5,569 453,563.5 458.5,558C 469.179,551.33 478.679,543.163 487,533.5C 510.881,502.366 523.381,467.032 524.5,427.5C 525.167,422.167 525.833,416.833 526.5,411.5 Z"/></g>
<g><path style="opacity:0.016" fill="#160000" d="M 564.5,421.5 C 565.601,420.402 566.934,420.235 568.5,421C 567.207,421.49 565.873,421.657 564.5,421.5 Z"/></g>
<g><path style="opacity:0.016" fill="#190000" d="M 569.5,422.5 C 570.251,421.427 571.251,421.26 572.5,422C 571.552,422.483 570.552,422.649 569.5,422.5 Z"/></g>
<g><path style="opacity:0.016" fill="#180000" d="M 163.5,426.5 C 163.897,425.475 164.563,425.308 165.5,426C 164.906,426.464 164.239,426.631 163.5,426.5 Z"/></g>
<g><path style="opacity:0.016" fill="#180000" d="M 127.5,448.5 C 127.167,448.5 126.833,448.5 126.5,448.5C 126.833,445.833 127.167,445.833 127.5,448.5 Z"/></g>
<g><path style="opacity:0.016" fill="#1e0100" d="M 126.5,448.5 C 125.833,449.167 125.833,449.167 126.5,448.5 Z"/></g>
<g><path style="opacity:1" fill="#840219" d="M 141.5,445.5 C 135.059,489.924 132.726,534.591 134.5,579.5C 131.5,579.5 128.5,579.5 125.5,579.5C 125.145,537.739 126.979,496.073 131,454.5C 132.823,449.508 136.323,446.508 141.5,445.5 Z"/></g>
<g><path style="opacity:1" fill="#830219" d="M 608.5,446.5 C 613.737,447.235 616.904,450.235 618,455.5C 621.776,496.751 623.61,538.084 623.5,579.5C 620.833,579.5 618.167,579.5 615.5,579.5C 615.667,555.498 615.5,531.498 615,507.5C 614.827,501.984 614.327,496.651 613.5,491.5C 612.901,476.374 611.234,461.374 608.5,446.5 Z"/></g>
<g><path style="opacity:0.004" fill="#0b0000" d="M 124.5,454.5 C 121.999,454.489 121.832,453.822 124,452.5C 124.464,453.094 124.631,453.761 124.5,454.5 Z"/></g>
<g><path style="opacity:0.004" fill="#110000" d="M 624.5,454.5 C 623.833,454.5 623.5,454.167 623.5,453.5C 623.351,452.448 623.517,451.448 624,450.5C 624.465,451.931 625.299,453.097 626.5,454C 625.906,454.464 625.239,454.631 624.5,454.5 Z"/></g>
<g><path style="opacity:0.016" fill="#1e0100" d="M 113.5,460.5 C 112.833,459.167 112.833,459.167 113.5,460.5 Z"/></g>
<g><path style="opacity:0.016" fill="#180000" d="M 109.5,461.5 C 109.897,460.475 110.563,460.308 111.5,461C 110.906,461.464 110.239,461.631 109.5,461.5 Z"/></g>
<g><path style="opacity:0.016" fill="#180000" d="M 636.5,461.5 C 636.897,460.475 637.563,460.308 638.5,461C 637.906,461.464 637.239,461.631 636.5,461.5 Z"/></g>
<g><path style="opacity:0.016" fill="#180000" d="M 102.5,464.5 C 102.897,463.475 103.563,463.308 104.5,464C 103.906,464.464 103.239,464.631 102.5,464.5 Z"/></g>
<g><path style="opacity:1" fill="#c2825d" d="M 656.5,474.5 C 653.956,474.104 651.789,474.771 650,476.5C 646.116,484.865 645.45,493.531 648,502.5C 650.399,508.363 652.399,514.363 654,520.5C 654.818,527.745 653.818,534.745 651,541.5C 647.588,548.658 643.922,555.658 640,562.5C 637.872,567.975 636.705,573.642 636.5,579.5C 633.833,579.5 631.167,579.5 628.5,579.5C 628.523,559.488 628.023,539.488 627,519.5C 625.244,500.165 624.411,480.832 624.5,461.5C 634.47,467.817 645.137,472.15 656.5,474.5 Z"/></g>
<g><path style="opacity:0.016" fill="#130000" d="M 646.5,465.5 C 647.251,464.427 648.251,464.26 649.5,465C 648.552,465.483 647.552,465.649 646.5,465.5 Z"/></g>
<g><path style="opacity:1" fill="#c2825d" d="M 120.5,579.5 C 117.5,579.5 114.5,579.5 111.5,579.5C 111.446,573.616 110.279,567.949 108,562.5C 102.865,553.897 98.5318,544.897 95,535.5C 93.8376,530.875 93.5042,526.208 94,521.5C 96.0383,513.753 98.3716,506.087 101,498.5C 102.397,490.769 101.397,483.436 98,476.5C 96.2111,474.771 94.0444,474.104 91.5,474.5C 103.174,472.174 114.174,467.84 124.5,461.5C 124.833,463.333 125.167,465.167 125.5,467C 122.311,504.432 120.644,541.932 120.5,579.5 Z"/></g>
<g><path style="opacity:0.004" fill="#0e0000" d="M 650.5,466.5 C 651.601,465.402 652.934,465.235 654.5,466C 653.207,466.49 651.873,466.657 650.5,466.5 Z"/></g>
<g><path style="opacity:0.016" fill="#190000" d="M 85.5,468.5 C 86.2506,467.427 87.2506,467.26 88.5,468C 87.552,468.483 86.552,468.649 85.5,468.5 Z"/></g>
<g><path style="opacity:0.016" fill="#180000" d="M 76.5,471.5 C 76.8966,470.475 77.5632,470.308 78.5,471C 77.9056,471.464 77.2389,471.631 76.5,471.5 Z"/></g>
<g><path style="opacity:1" fill="#d5966b" d="M 91.5,474.5 C 94.0444,474.104 96.2111,474.771 98,476.5C 101.397,483.436 102.397,490.769 101,498.5C 98.3716,506.087 96.0383,513.753 94,521.5C 93.5042,526.208 93.8376,530.875 95,535.5C 98.5318,544.897 102.865,553.897 108,562.5C 110.279,567.949 111.446,573.616 111.5,579.5C 76.1667,579.5 40.8333,579.5 5.5,579.5C 5.75065,574.412 6.58399,569.412 8,564.5C 18.4169,534.093 35.9169,508.593 60.5,488C 69.8858,481.307 80.2192,476.807 91.5,474.5 Z"/></g>
<g><path style="opacity:1" fill="#d5966b" d="M 656.5,474.5 C 666.813,476.655 676.479,480.488 685.5,486C 701.483,498.982 714.983,514.148 726,531.5C 735.306,546.253 741.139,562.253 743.5,579.5C 707.833,579.5 672.167,579.5 636.5,579.5C 636.705,573.642 637.872,567.975 640,562.5C 643.922,555.658 647.588,548.658 651,541.5C 653.818,534.745 654.818,527.745 654,520.5C 652.399,514.363 650.399,508.363 648,502.5C 645.45,493.531 646.116,484.865 650,476.5C 651.789,474.771 653.956,474.104 656.5,474.5 Z"/></g>
<g><path style="opacity:0.004" fill="#090000" d="M 693.5,484.5 C 694.497,483.287 695.497,483.454 696.5,485C 695.906,485.464 695.239,485.631 694.5,485.5C 693.833,485.5 693.5,485.167 693.5,484.5 Z"/></g>
<g><path style="opacity:1" fill="#5b3724" d="M 321.5,488.5 C 305.991,488.17 290.658,488.504 275.5,489.5C 274.957,489.44 274.624,489.107 274.5,488.5C 290.328,487.173 305.995,487.173 321.5,488.5 Z"/></g>
<g><path style="opacity:1" fill="#65412c" d="M 402.5,496.5 C 402.833,496.5 403.167,496.5 403.5,496.5C 401.873,498.63 400.04,500.63 398,502.5C 398.427,499.879 399.927,497.879 402.5,496.5 Z"/></g>
<g><path style="opacity:0.016" fill="#160000" d="M 712.5,503.5 C 711.833,503.5 711.5,503.167 711.5,502.5C 711.747,500.025 712.413,500.025 713.5,502.5C 713.376,503.107 713.043,503.44 712.5,503.5 Z"/></g>
<g><path style="opacity:0.004" fill="#090000" d="M 717.5,509.5 C 716.833,509.5 716.5,509.167 716.5,508.5C 716.747,506.025 717.413,506.025 718.5,508.5C 718.376,509.107 718.043,509.44 717.5,509.5 Z"/></g>
<g><path style="opacity:1" fill="#d0bdbc" d="M 613.5,491.5 C 614.327,496.651 614.827,501.984 615,507.5C 615.5,531.498 615.667,555.498 615.5,579.5C 615.167,579.5 614.833,579.5 614.5,579.5C 614.65,550.159 614.316,520.826 613.5,491.5 Z"/></g>
<g><path style="opacity:0.016" fill="#180000" d="M 741.5,546.5 C 741.167,546.5 740.833,546.5 740.5,546.5C 740.833,543.833 741.167,543.833 741.5,546.5 Z"/></g>
<g><path style="opacity:0.016" fill="#180000" d="M 741.5,546.5 C 742.525,546.897 742.692,547.563 742,548.5C 741.536,547.906 741.369,547.239 741.5,546.5 Z"/></g>
<g><path style="opacity:0.016" fill="#1e0100" d="M 743.5,551.5 C 743.167,551.5 742.833,551.5 742.5,551.5C 742.833,548.833 743.167,548.833 743.5,551.5 Z"/></g>
<g><path style="opacity:0.016" fill="#180000" d="M 743.5,551.5 C 744.525,551.897 744.692,552.563 744,553.5C 743.536,552.906 743.369,552.239 743.5,551.5 Z"/></g>
<g><path style="opacity:0.016" fill="#1b0000" d="M -0.5,566.5 C 0.434475,567.568 0.767809,568.901 0.5,570.5C 0.166667,570.5 -0.166667,570.5 -0.5,570.5C -0.5,569.167 -0.5,567.833 -0.5,566.5 Z"/></g>
<g><path style="opacity:0.016" fill="#140000" d="M 749.5,566.5 C 749.5,568.167 749.5,569.833 749.5,571.5C 749.167,571.5 748.833,571.5 748.5,571.5C 748.216,569.585 748.549,567.919 749.5,566.5 Z"/></g>
</svg>
