<?xml version="1.0" encoding="UTF-8"?>
<!DOCTYPE svg PUBLIC "-//W3C//DTD SVG 1.1//EN" "http://www.w3.org/Graphics/SVG/1.1/DTD/svg11.dtd">
<svg xmlns="http://www.w3.org/2000/svg" version="1.1" width="750px" height="561px" style="shape-rendering:geometricPrecision; text-rendering:geometricPrecision; image-rendering:optimizeQuality; fill-rule:evenodd; clip-rule:evenodd" xmlns:xlink="http://www.w3.org/1999/xlink">
<g><path style="opacity:0.004" fill="#000000" d="M 342.5,-0.5 C 344.5,-0.5 346.5,-0.5 348.5,-0.5C 346.5,0.833333 344.5,0.833333 342.5,-0.5 Z"/></g>
<g><path style="opacity:0.981" fill="#1c0c01" d="M 356.5,-0.5 C 358.5,-0.5 360.5,-0.5 362.5,-0.5C 362.611,0.117425 362.944,0.617425 363.5,1C 365.833,1.33333 368.167,1.66667 370.5,2C 371.126,2.75044 371.626,3.58377 372,4.5C 372.278,3.5842 372.778,2.91753 373.5,2.5C 373.56,3.04309 373.893,3.37642 374.5,3.5C 377.977,0.238008 381.643,-0.0953252 385.5,2.5C 386.5,3.83333 387.5,3.83333 388.5,2.5C 389.167,2.5 389.5,2.16667 389.5,1.5C 392.187,1.33591 394.854,1.50258 397.5,2C 401.693,5.70559 406.693,7.53892 412.5,7.5C 412.5,8.16667 412.833,8.5 413.5,8.5C 418.522,7.92032 423.522,8.58699 428.5,10.5C 428.833,11.5 429.5,12.1667 430.5,12.5C 430.5,13.5 430.5,14.5 430.5,15.5C 436.747,15.4599 441.747,17.7933 445.5,22.5C 447.684,23.2663 450.018,23.9329 452.5,24.5C 453.415,25.3279 454.081,26.3279 454.5,27.5C 459.609,27.5176 463.942,29.1842 467.5,32.5C 467.5,33.1667 467.833,33.5 468.5,33.5C 468.232,35.099 468.566,36.4324 469.5,37.5C 470.931,39.1887 471.764,41.1887 472,43.5C 473.749,42.701 475.082,43.3676 476,45.5C 476.684,48.38 476.517,51.2134 475.5,54C 478.772,56.444 481.106,59.6107 482.5,63.5C 484.784,64.4584 486.784,65.7917 488.5,67.5C 490.534,71.8724 490.867,76.3724 489.5,81C 489.859,83.5459 490.859,85.7126 492.5,87.5C 492.5,88.5 492.5,89.5 492.5,90.5C 489.549,91.5893 488.883,93.4226 490.5,96C 490.385,97.8951 489.718,99.5618 488.5,101C 492.669,105.576 493.002,110.242 489.5,115C 491.278,117.135 491.945,119.635 491.5,122.5C 490.373,123.122 489.373,123.955 488.5,125C 491.167,129 491.167,133 488.5,137C 489.423,139.041 489.756,141.208 489.5,143.5C 488.662,143.842 488.328,144.508 488.5,145.5C 486.871,147.858 485.705,150.524 485,153.5C 482.607,165.306 479.774,176.972 476.5,188.5C 478.886,188.676 481.552,188.676 484.5,188.5C 484.842,189.338 485.508,189.672 486.5,189.5C 489.676,192.511 491.843,196.178 493,200.5C 496.416,217.925 494.916,234.925 488.5,251.5C 487.094,251.973 486.427,252.973 486.5,254.5C 485.833,254.5 485.5,254.833 485.5,255.5C 483.674,257.147 482.34,259.147 481.5,261.5C 479.5,262.833 477.833,264.5 476.5,266.5C 474.847,266.66 473.514,267.326 472.5,268.5C 470.833,268.5 469.167,268.5 467.5,268.5C 467.5,270.5 467.5,272.5 467.5,274.5C 466.11,277.094 465.777,279.761 466.5,282.5C 465.502,310.414 466.669,338.414 470,366.5C 470.383,367.056 470.883,367.389 471.5,367.5C 471.5,368.167 471.833,368.5 472.5,368.5C 472.973,369.906 473.973,370.573 475.5,370.5C 475.5,371.167 475.833,371.5 476.5,371.5C 478.608,373.059 480.941,374.392 483.5,375.5C 484.478,375.023 485.311,374.357 486,373.5C 486.333,373.833 486.667,374.167 487,374.5C 488.397,372.93 489.897,371.596 491.5,370.5C 494.167,370.5 496.833,370.5 499.5,370.5C 502.551,372.352 505.884,373.686 509.5,374.5C 509.842,375.338 510.508,375.672 511.5,375.5C 512.209,376.404 513.209,376.737 514.5,376.5C 514.842,377.338 515.508,377.672 516.5,377.5C 517.78,378.931 519.447,379.598 521.5,379.5C 521.842,380.338 522.508,380.672 523.5,380.5C 525.663,382.083 527.996,383.416 530.5,384.5C 534.666,387.084 539,389.417 543.5,391.5C 543.842,392.338 544.508,392.672 545.5,392.5C 547.426,394.293 549.759,395.293 552.5,395.5C 552.842,396.338 553.508,396.672 554.5,396.5C 558.712,399.056 563.378,400.39 568.5,400.5C 570.905,401.768 573.572,402.435 576.5,402.5C 577.209,403.404 578.209,403.737 579.5,403.5C 580.209,404.404 581.209,404.737 582.5,404.5C 589.516,408.675 596.849,412.341 604.5,415.5C 604.842,416.338 605.508,416.672 606.5,416.5C 607.209,417.404 608.209,417.737 609.5,417.5C 609.842,418.338 610.508,418.672 611.5,418.5C 614.021,420.019 616.521,421.686 619,423.5C 620.859,426.564 622.692,429.564 624.5,432.5C 624.842,433.338 625.508,433.672 626.5,433.5C 626.5,434.167 626.833,434.5 627.5,434.5C 629.663,436.083 631.996,437.416 634.5,438.5C 634.842,439.338 635.508,439.672 636.5,439.5C 637.78,440.931 639.447,441.598 641.5,441.5C 641.842,442.338 642.508,442.672 643.5,442.5C 644.209,443.404 645.209,443.737 646.5,443.5C 647.209,444.404 648.209,444.737 649.5,444.5C 652.219,445.913 655.219,446.58 658.5,446.5C 659.568,447.434 660.901,447.768 662.5,447.5C 664.599,448.612 666.933,449.279 669.5,449.5C 669.842,450.338 670.508,450.672 671.5,450.5C 676.795,453.147 682.128,455.814 687.5,458.5C 687.842,459.338 688.508,459.672 689.5,459.5C 689.5,460.167 689.833,460.5 690.5,460.5C 691.29,461.401 692.29,462.068 693.5,462.5C 693.5,463.167 693.833,463.5 694.5,463.5C 700.833,469.167 706.833,475.167 712.5,481.5C 712.5,482.167 712.833,482.5 713.5,482.5C 713.5,483.167 713.833,483.5 714.5,483.5C 714.5,484.167 714.833,484.5 715.5,484.5C 715.738,486.404 716.738,487.738 718.5,488.5C 718.5,489.167 718.833,489.5 719.5,489.5C 719.427,491.027 720.094,492.027 721.5,492.5C 721.5,493.167 721.833,493.5 722.5,493.5C 722.427,495.027 723.094,496.027 724.5,496.5C 724.738,498.404 725.738,499.738 727.5,500.5C 728.383,503.704 730.05,506.371 732.5,508.5C 740.474,523.089 746.14,538.423 749.5,554.5C 749.5,556.5 749.5,558.5 749.5,560.5C 747.833,560.5 746.167,560.5 744.5,560.5C 740.149,533.803 729.316,510.136 712,489.5C 704.13,479.963 695.297,471.463 685.5,464C 676.439,458.463 666.773,454.63 656.5,452.5C 645.137,450.15 634.47,445.817 624.5,439.5C 624.167,442.333 623.833,445.167 623.5,448C 626.543,485.442 628.209,522.942 628.5,560.5C 626.833,560.5 625.167,560.5 623.5,560.5C 623.509,518.093 621.675,475.759 618,433.5C 617.269,431.101 616.102,428.935 614.5,427C 607.215,423.405 599.881,419.905 592.5,416.5C 591.833,416.5 591.167,416.5 590.5,416.5C 589.781,414.112 588.115,412.612 585.5,412C 575.399,408.224 565.066,405.224 554.5,403C 544.992,398.745 535.659,394.245 526.5,389.5C 526.44,388.957 526.107,388.624 525.5,388.5C 524.505,393.792 524.172,399.125 524.5,404.5C 523.193,444.264 510.693,479.93 487,511.5C 478.339,520.732 468.839,528.898 458.5,536C 453,541.5 447.5,547 442,552.5C 439.843,554.817 438.343,557.484 437.5,560.5C 435.833,560.5 434.167,560.5 432.5,560.5C 437.02,550.461 443.687,541.961 452.5,535C 480.333,516.836 499.5,492.003 510,460.5C 517.536,436.032 520.703,411.032 519.5,385.5C 511.908,381.804 504.074,378.804 496,376.5C 492.748,375.92 491.248,377.253 491.5,380.5C 499.505,434.964 482.505,479.797 440.5,515C 424.792,525.039 411.292,537.539 400,552.5C 398.546,555.071 397.38,557.738 396.5,560.5C 394.833,560.5 393.167,560.5 391.5,560.5C 394.81,551.882 399.643,544.216 406,537.5C 417.25,526.913 429.083,517.079 441.5,508C 454.973,496.039 465.973,482.205 474.5,466.5C 457.51,465.334 440.51,465.167 423.5,466C 415.055,468.068 407.389,471.401 400.5,476C 407.433,468.199 416.1,463.532 426.5,462C 443.51,461.833 460.51,461.333 477.5,460.5C 483.663,447.846 487.33,434.513 488.5,420.5C 489.166,415.678 489.499,410.678 489.5,405.5C 489.702,398.264 489.035,391.264 487.5,384.5C 487.53,383.503 487.03,382.836 486,382.5C 480.831,380.832 475.997,378.498 471.5,375.5C 469.906,382.854 467.906,383.188 465.5,376.5C 465.404,370.627 464.737,364.96 463.5,359.5C 463.5,358.5 463.5,357.5 463.5,356.5C 462.042,336.179 460.709,315.845 459.5,295.5C 456.126,299.991 453.626,304.991 452,310.5C 448.929,315.982 444.929,320.648 440,324.5C 437.788,327.193 436.288,330.193 435.5,333.5C 432.258,335.249 429.758,337.915 428,341.5C 427.333,340.167 426.667,340.167 426,341.5C 424.991,343.025 424.491,344.692 424.5,346.5C 423.5,346.5 422.5,346.5 421.5,346.5C 421.769,348.429 421.269,350.095 420,351.5C 419.667,350.833 419.333,350.167 419,349.5C 415.888,353.283 412.721,356.95 409.5,360.5C 406.353,361.709 404.519,364.042 404,367.5C 402.984,368.634 402.317,368.301 402,366.5C 400.237,369.02 398.237,371.353 396,373.5C 395.667,373.167 395.333,372.833 395,372.5C 386.349,380.163 376.349,383.163 365,381.5C 360.745,383.87 356.412,383.87 352,381.5C 351.228,381.645 350.561,381.978 350,382.5C 345.663,382.335 341.496,381.002 337.5,378.5C 335.902,379.485 334.235,379.651 332.5,379C 331.023,376.852 329.023,375.518 326.5,375C 321.948,371.443 317.782,367.609 314,363.5C 313.667,362.5 313.333,361.5 313,360.5C 306.798,354.874 301.465,348.541 297,341.5C 294.011,339.888 291.678,337.555 290,334.5C 289.667,334.833 289.333,335.167 289,335.5C 288,333.5 287,331.5 286,329.5C 284.855,329.381 283.688,329.048 282.5,328.5C 282.631,327.624 282.298,326.957 281.5,326.5C 280.502,336.144 280.168,345.81 280.5,355.5C 280.111,363.836 279.611,372.169 279,380.5C 278,382.167 277,383.833 276,385.5C 275.03,382.556 274.196,379.556 273.5,376.5C 269.109,378.355 265.109,380.689 261.5,383.5C 259.993,390.438 259.327,397.604 259.5,405C 259.501,410.012 259.834,414.845 260.5,419.5C 261.485,434.618 265.485,448.784 272.5,462C 291.204,462.08 309.871,462.747 328.5,464C 337.311,466.322 344.811,470.822 351,477.5C 351.667,478.167 351.667,478.833 351,479.5C 343.188,471.511 333.688,467.178 322.5,466.5C 306.675,465.504 290.675,465.17 274.5,465.5C 274.263,466.791 274.596,467.791 275.5,468.5C 288.528,490.696 305.861,508.863 327.5,523C 339.177,532.005 348.677,542.838 356,555.5C 356.494,557.134 356.66,558.801 356.5,560.5C 355.167,560.5 353.833,560.5 352.5,560.5C 350.384,554.549 347.217,549.215 343,544.5C 330.19,531.364 316.357,519.53 301.5,509C 263.979,472.771 248.979,428.771 256.5,377C 255.167,376.833 253.833,376.667 252.5,376.5C 244.537,378.644 236.87,381.644 229.5,385.5C 227.397,421.487 234.564,455.487 251,487.5C 255.086,494.007 259.42,500.34 264,506.5C 279.333,520.5 294.667,534.5 310,548.5C 312.827,552.155 314.993,556.155 316.5,560.5C 314.833,560.5 313.167,560.5 311.5,560.5C 310.657,557.484 309.157,554.817 307,552.5C 297.684,541.842 287.184,532.675 275.5,525C 249.561,500.295 233.728,470.129 228,434.5C 226.596,426.175 225.43,417.842 224.5,409.5C 224.83,402.468 224.497,395.468 223.5,388.5C 222.893,388.624 222.56,388.957 222.5,389.5C 215.553,392.973 208.553,396.473 201.5,400C 189.639,404.041 177.639,407.708 165.5,411C 162.761,412.026 160.428,413.526 158.5,415.5C 150.156,419.089 141.989,423.089 134,427.5C 132.561,429.275 131.561,431.275 131,433.5C 127.068,475.742 125.234,518.075 125.5,560.5C 123.833,560.5 122.167,560.5 120.5,560.5C 120.557,522.424 122.223,484.424 125.5,446.5C 125.167,444.167 124.833,441.833 124.5,439.5C 114.174,445.84 103.174,450.174 91.5,452.5C 80.2192,454.807 69.8858,459.307 60.5,466C 35.0473,487.73 17.2139,514.564 7,546.5C 5.8776,551.102 5.3776,555.768 5.5,560.5C 3.5,560.5 1.5,560.5 -0.5,560.5C -0.5,558.5 -0.5,556.5 -0.5,554.5C 0.451145,553.081 0.784479,551.415 0.5,549.5C 2.4814,542.926 4.4814,536.259 6.5,529.5C 7.93127,528.22 8.59794,526.553 8.5,524.5C 16.5615,508.772 26.2282,494.106 37.5,480.5C 38.1667,480.5 38.5,480.167 38.5,479.5C 43.5,473.833 48.8333,468.5 54.5,463.5C 55.1667,463.5 55.5,463.167 55.5,462.5C 56.7095,462.068 57.7095,461.401 58.5,460.5C 59.1667,460.5 59.5,460.167 59.5,459.5C 66.2054,456.147 72.8721,452.814 79.5,449.5C 80.791,449.737 81.791,449.404 82.5,448.5C 83.791,448.737 84.791,448.404 85.5,447.5C 87.099,447.768 88.4324,447.434 89.5,446.5C 93.1224,446.678 96.4557,446.011 99.5,444.5C 100.791,444.737 101.791,444.404 102.5,443.5C 103.791,443.737 104.791,443.404 105.5,442.5C 106.492,442.672 107.158,442.338 107.5,441.5C 108.791,441.737 109.791,441.404 110.5,440.5C 111.492,440.672 112.158,440.338 112.5,439.5C 113.492,439.672 114.158,439.338 114.5,438.5C 115.492,438.672 116.158,438.338 116.5,437.5C 117.167,437.5 117.5,437.167 117.5,436.5C 119.153,436.34 120.486,435.674 121.5,434.5C 122.167,434.5 122.5,434.167 122.5,433.5C 125.167,433.167 125.167,432.833 122.5,432.5C 122.987,431.527 123.487,430.527 124,429.5C 124.893,430.711 125.726,430.711 126.5,429.5C 128.674,424.264 132.341,420.597 137.5,418.5C 138.492,418.672 139.158,418.338 139.5,417.5C 140.791,417.737 141.791,417.404 142.5,416.5C 143.492,416.672 144.158,416.338 144.5,415.5C 149.984,413.593 154.984,410.927 159.5,407.5C 160.492,407.672 161.158,407.338 161.5,406.5C 162.492,406.672 163.158,406.338 163.5,405.5C 164.791,405.737 165.791,405.404 166.5,404.5C 167.791,404.737 168.791,404.404 169.5,403.5C 170.791,403.737 171.791,403.404 172.5,402.5C 176.761,402.102 180.761,401.102 184.5,399.5C 188.258,399.605 191.592,398.605 194.5,396.5C 195.492,396.672 196.158,396.338 196.5,395.5C 203.764,393.202 210.43,389.868 216.5,385.5C 217.492,385.672 218.158,385.338 218.5,384.5C 221.004,383.416 223.337,382.083 225.5,380.5C 226.492,380.672 227.158,380.338 227.5,379.5C 228.492,379.672 229.158,379.338 229.5,378.5C 230.791,378.737 231.791,378.404 232.5,377.5C 233.492,377.672 234.158,377.338 234.5,376.5C 235.791,376.737 236.791,376.404 237.5,375.5C 238.492,375.672 239.158,375.338 239.5,374.5C 241.553,374.598 243.22,373.931 244.5,372.5C 245.492,372.672 246.158,372.338 246.5,371.5C 247.791,371.737 248.791,371.404 249.5,370.5C 253.991,369.885 257.991,370.885 261.5,373.5C 262.053,375.552 263.053,375.885 264.5,374.5C 266.819,374.008 268.819,373.008 270.5,371.5C 271.167,371.5 271.5,371.167 271.5,370.5C 272.492,370.672 273.158,370.338 273.5,369.5C 275.971,352.343 276.138,335.01 274,317.5C 272.71,315.208 271.043,313.208 269,311.5C 268.262,308.499 267.096,305.832 265.5,303.5C 264.603,298.527 263.269,293.694 261.5,289C 262.059,288.275 262.392,287.442 262.5,286.5C 261.934,281.047 260.934,275.713 259.5,270.5C 257.435,270.483 255.435,270.15 253.5,269.5C 253.5,268.833 253.167,268.5 252.5,268.5C 252.5,267.833 252.167,267.5 251.5,267.5C 251.5,266.833 251.167,266.5 250.5,266.5C 249.674,263.515 248.341,260.849 246.5,258.5C 241.549,237.462 241.549,216.462 246.5,195.5C 247.167,195.5 247.5,195.167 247.5,194.5C 248.167,194.5 248.5,194.167 248.5,193.5C 250.764,192.781 253.097,192.448 255.5,192.5C 253.999,176.964 251.999,161.631 249.5,146.5C 247.941,143.13 248.274,139.964 250.5,137C 248.402,133.675 248.069,130.175 249.5,126.5C 247.303,116.45 247.636,106.45 250.5,96.5C 248.994,92.2996 247.994,87.9663 247.5,83.5C 249.608,80.853 250.275,78.0197 249.5,75C 249.932,71.5665 251.599,68.8998 254.5,67C 253.915,65.6976 253.249,64.531 252.5,63.5C 254.406,59.0778 256.572,54.7444 259,50.5C 261.612,46.92 264.445,43.5866 267.5,40.5C 271.456,37.6663 274.79,34.3329 277.5,30.5C 278.167,30.5 278.5,30.1667 278.5,29.5C 281.413,28.7589 284.413,28.2589 287.5,28C 290.726,25.4246 294.393,23.9246 298.5,23.5C 298.56,24.0431 298.893,24.3764 299.5,24.5C 300.952,21.8785 303.119,20.2118 306,19.5C 306.047,13.9543 308.881,11.2876 314.5,11.5C 317.547,13.1487 320.213,12.6487 322.5,10C 326.797,9.77599 330.963,8.94266 335,7.5C 336.7,5.39395 338.867,3.89395 341.5,3C 346.596,1.64036 351.596,0.473697 356.5,-0.5 Z M 261.5,373.5 C 262.391,374.11 263.391,374.443 264.5,374.5C 263.053,375.885 262.053,375.552 261.5,373.5 Z"/></g>
<g><path style="opacity:0.008" fill="#1c0000" d="M 364.5,-0.5 C 364.833,-0.5 365.167,-0.5 365.5,-0.5C 365.315,0.170143 364.981,0.170143 364.5,-0.5 Z"/></g>
<g><path style="opacity:0.004" fill="#000000" d="M 369.5,-0.5 C 369.833,-0.5 370.167,-0.5 370.5,-0.5C 370.315,0.170143 369.981,0.170143 369.5,-0.5 Z"/></g>
<g><path style="opacity:0.004" fill="#000000" d="M 375.5,0.5 C 375.5,0.166667 375.5,-0.166667 375.5,-0.5C 376.167,-0.5 376.833,-0.5 377.5,-0.5C 377.158,0.338246 376.492,0.67158 375.5,0.5 Z"/></g>
<g><path style="opacity:0.004" fill="#000000" d="M 382.5,-0.5 C 383.167,-0.5 383.833,-0.5 384.5,-0.5C 384.5,-0.166667 384.5,0.166667 384.5,0.5C 383.508,0.67158 382.842,0.338246 382.5,-0.5 Z"/></g>
<g><path style="opacity:0.004" fill="#000000" d="M 389.5,-0.5 C 389.833,-0.5 390.167,-0.5 390.5,-0.5C 390.315,0.170143 389.981,0.170143 389.5,-0.5 Z"/></g>
<g><path style="opacity:0.004" fill="#000000" d="M 396.5,-0.5 C 397.5,-0.5 398.5,-0.5 399.5,-0.5C 399.5,-0.166667 399.5,0.166667 399.5,0.5C 398.209,0.737305 397.209,0.403972 396.5,-0.5 Z"/></g>
<g><path style="opacity:0.004" fill="#000000" d="M 338.5,2.5 C 339.002,0.915303 340.002,0.415303 341.5,1C 340.756,2.03859 339.756,2.53859 338.5,2.5 Z"/></g>
<g><path style="opacity:0.004" fill="#000000" d="M 375.5,0.5 C 374.833,1.16667 374.833,1.16667 375.5,0.5 Z"/></g>
<g><path style="opacity:0.004" fill="#000000" d="M 384.5,0.5 C 385.167,0.5 385.5,0.833333 385.5,1.5C 385.167,1.16667 384.833,0.833333 384.5,0.5 Z"/></g>
<g><path style="opacity:0.004" fill="#060000" d="M 389.5,0.5 C 389.5,0.833333 389.5,1.16667 389.5,1.5C 388.833,1.5 388.5,1.83333 388.5,2.5C 387.5,2.5 386.5,2.5 385.5,2.5C 385.5,2.16667 385.5,1.83333 385.5,1.5C 386.833,1.16667 388.167,0.833333 389.5,0.5 Z"/></g>
<g><path style="opacity:0.004" fill="#000000" d="M 399.5,0.5 C 400.167,0.5 400.5,0.833333 400.5,1.5C 400.167,1.16667 399.833,0.833333 399.5,0.5 Z"/></g>
<g><path style="opacity:0.016" fill="#270500" d="M 374.5,1.5 C 373.833,2.16667 373.833,2.16667 374.5,1.5 Z"/></g>
<g><path style="opacity:0.004" fill="#000000" d="M 400.5,1.5 C 401.167,1.5 401.5,1.83333 401.5,2.5C 401.167,2.16667 400.833,1.83333 400.5,1.5 Z"/></g>
<g><path style="opacity:0.008" fill="#1c0000" d="M 338.5,2.5 C 337.833,3.16667 337.833,3.16667 338.5,2.5 Z"/></g>
<g><path style="opacity:0.016" fill="#270500" d="M 401.5,2.5 C 402.167,2.5 402.5,2.83333 402.5,3.5C 402.167,3.16667 401.833,2.83333 401.5,2.5 Z"/></g>
<g><path style="opacity:0.004" fill="#000000" d="M 408.5,4.5 C 407.127,4.65668 405.793,4.49001 404.5,4C 406.066,3.23502 407.399,3.40168 408.5,4.5 Z"/></g>
<g><path style="opacity:0.024" fill="#221100" d="M 402.5,3.5 C 403.525,3.89657 403.692,4.56323 403,5.5C 402.536,4.90558 402.369,4.23891 402.5,3.5 Z"/></g>
<g><path style="opacity:0.004" fill="#000000" d="M 408.5,4.5 C 409.791,4.26269 410.791,4.59603 411.5,5.5C 410.209,5.73731 409.209,5.40397 408.5,4.5 Z"/></g>
<g><path style="opacity:0.004" fill="#0d0100" d="M 331.5,6.5 C 332.601,5.40168 333.934,5.23502 335.5,6C 334.207,6.49001 332.873,6.65668 331.5,6.5 Z"/></g>
<g><path style="opacity:0.004" fill="#000000" d="M 411.5,5.5 C 413.062,5.73286 414.395,6.39952 415.5,7.5C 415.158,8.33825 414.492,8.67158 413.5,8.5C 412.833,8.5 412.5,8.16667 412.5,7.5C 412.167,6.83333 411.833,6.16667 411.5,5.5 Z"/></g>
<g><path style="opacity:0.004" fill="#000000" d="M 423.5,6.5 C 421.801,6.66018 420.134,6.49351 418.5,6C 420.387,5.22039 422.054,5.38705 423.5,6.5 Z"/></g>
<g><path style="opacity:0.004" fill="#000000" d="M 323.5,7.5 C 325.948,6.52693 328.615,6.1936 331.5,6.5C 329.052,7.47307 326.385,7.8064 323.5,7.5 Z"/></g>
<g><path style="opacity:0.004" fill="#000000" d="M 415.5,7.5 C 415.897,6.47498 416.563,6.30831 417.5,7C 416.906,7.46434 416.239,7.63101 415.5,7.5 Z"/></g>
<g><path style="opacity:0.004" fill="#000000" d="M 423.5,6.5 C 424.492,6.32842 425.158,6.66175 425.5,7.5C 424.508,7.67158 423.842,7.33825 423.5,6.5 Z"/></g>
<g><path style="opacity:0.004" fill="#000000" d="M 321.5,8.5 C 321.842,7.66175 322.508,7.32842 323.5,7.5C 323.158,8.33825 322.492,8.67158 321.5,8.5 Z"/></g>
<g><path style="opacity:0.004" fill="#050000" d="M 425.5,7.5 C 426.583,7.53944 427.583,7.87277 428.5,8.5C 429.773,9.2565 429.773,9.92317 428.5,10.5C 427.306,9.72813 426.306,8.72813 425.5,7.5 Z"/></g>
<g><path style="opacity:0.004" fill="#050000" d="M 321.5,8.5 C 321.389,9.11742 321.056,9.61742 320.5,10C 316.848,10.4986 313.182,10.6653 309.5,10.5C 313.358,9.70634 317.358,9.03968 321.5,8.5 Z"/></g>
<g><path style="opacity:0.004" fill="#000000" d="M 307.5,11.5 C 307.842,10.6618 308.508,10.3284 309.5,10.5C 309.158,11.3382 308.492,11.6716 307.5,11.5 Z"/></g>
<g><path style="opacity:0.004" fill="#000000" d="M 307.5,11.5 C 306.833,12.1667 306.833,12.1667 307.5,11.5 Z"/></g>
<g><path style="opacity:0.016" fill="#270500" d="M 431.5,12.5 C 430.833,11.1667 430.833,11.1667 431.5,12.5 Z"/></g>
<g><path style="opacity:0.008" fill="#1c0000" d="M 306.5,12.5 C 305.833,13.1667 305.833,13.1667 306.5,12.5 Z"/></g>
<g><path style="opacity:0.024" fill="#1f1600" d="M 431.5,12.5 C 432.525,12.8966 432.692,13.5632 432,14.5C 431.536,13.9056 431.369,13.2389 431.5,12.5 Z"/></g>
<g><path style="opacity:0.008" fill="#120000" d="M 433.5,14.5 C 434.251,13.4265 435.251,13.2599 436.5,14C 435.552,14.4828 434.552,14.6495 433.5,14.5 Z"/></g>
<g><path style="opacity:0.016" fill="#240300" d="M 305.5,13.5 C 305.672,14.4916 305.338,15.1583 304.5,15.5C 304.328,14.5084 304.662,13.8417 305.5,13.5 Z"/></g>
<g><path style="opacity:0.008" fill="#120000" d="M 440.5,15.5 C 439.448,15.6495 438.448,15.4828 437.5,15C 438.749,14.2599 439.749,14.4265 440.5,15.5 Z"/></g>
<g><path style="opacity:0.004" fill="#000000" d="M 440.5,15.5 C 441.167,15.5 441.5,15.8333 441.5,16.5C 441.167,16.1667 440.833,15.8333 440.5,15.5 Z"/></g>
<g><path style="opacity:0.016" fill="#250400" d="M 304.5,15.5 C 304.657,16.8734 304.49,18.2068 304,19.5C 303.235,17.9343 303.402,16.6009 304.5,15.5 Z"/></g>
<g><path style="opacity:0.008" fill="#1c0000" d="M 441.5,16.5 C 442.167,16.5 442.5,16.8333 442.5,17.5C 442.167,17.1667 441.833,16.8333 441.5,16.5 Z"/></g>
<g><path style="opacity:0.016" fill="#270500" d="M 442.5,17.5 C 443.833,18.1667 443.833,18.1667 442.5,17.5 Z"/></g>
<g><path style="opacity:0.004" fill="#000000" d="M 301.5,18.5 C 302.833,19.1667 302.833,19.1667 301.5,18.5 Z"/></g>
<g><path style="opacity:0.004" fill="#000000" d="M 301.5,19.5 C 300.833,20.1667 300.833,20.1667 301.5,19.5 Z"/></g>
<g><path style="opacity:0.008" fill="#1c0000" d="M 300.5,20.5 C 299.833,21.1667 299.833,21.1667 300.5,20.5 Z"/></g>
<g><path style="opacity:0.004" fill="#080000" d="M 262.5,21.5 C 264.337,21.6395 264.67,22.3061 263.5,23.5C 262.702,23.0431 262.369,22.3764 262.5,21.5 Z"/></g>
<g><path style="opacity:0.004" fill="#100000" d="M 299.5,21.5 C 299.672,22.4916 299.338,23.1583 298.5,23.5C 297.048,22.6981 295.382,22.1981 293.5,22C 295.473,21.5045 297.473,21.3379 299.5,21.5 Z"/></g>
<g><path style="opacity:0.016" fill="#230900" d="M 445.5,22.5 C 445.511,19.9991 446.178,19.8324 447.5,22C 446.906,22.4643 446.239,22.631 445.5,22.5 Z"/></g>
<g><path style="opacity:0.004" fill="#110300" d="M 455.5,25.5 C 458.722,25.1081 461.722,25.6081 464.5,27C 461.646,26.3358 458.812,26.5024 456,27.5C 455.536,26.9056 455.369,26.2389 455.5,25.5 Z"/></g>
<g><path style="opacity:0.008" fill="#1b0100" d="M 278.5,29.5 C 277.833,29.5 277.5,29.8333 277.5,30.5C 276.957,30.44 276.624,30.1067 276.5,29.5C 277.257,28.2267 277.923,28.2267 278.5,29.5 Z"/></g>
<g><path style="opacity:0.004" fill="#180600" d="M 469.5,33.5 C 469.167,33.5 468.833,33.5 468.5,33.5C 467.833,33.5 467.5,33.1667 467.5,32.5C 468.301,30.2071 468.968,30.5404 469.5,33.5 Z"/></g>
<g><path style="opacity:0.008" fill="#1d0100" d="M 273.5,32.5 C 274.043,32.56 274.376,32.8933 274.5,33.5C 273.635,34.5827 272.635,34.7494 271.5,34C 272.416,33.7216 273.082,33.2216 273.5,32.5 Z"/></g>
<g><path style="opacity:0.024" fill="#1e0d00" d="M 469.5,33.5 C 470.249,34.531 470.915,35.6976 471.5,37C 470.906,37.4643 470.239,37.631 469.5,37.5C 469.5,36.1667 469.5,34.8333 469.5,33.5 Z"/></g>
<g><path style="opacity:0.004" fill="#1a0200" d="M 267.5,40.5 C 264.999,40.4891 264.832,39.8224 267,38.5C 267.464,39.0944 267.631,39.7611 267.5,40.5 Z"/></g>
<g><path style="opacity:0.016" fill="#230300" d="M 260.5,44.5 C 261.776,45.3864 261.776,46.3864 260.5,47.5C 259.913,46.7666 259.913,45.7666 260.5,44.5 Z"/></g>
<g><path style="opacity:0.016" fill="#1f0a00" d="M 477.5,44.5 C 480.07,47.7237 480.07,51.0571 477.5,54.5C 477.363,51.4473 477.363,48.114 477.5,44.5 Z"/></g>
<g><path style="opacity:0.016" fill="#220600" d="M 256.5,49.5 C 257.043,49.56 257.376,49.8933 257.5,50.5C 256.902,51.7946 256.402,53.1279 256,54.5C 255.36,52.735 255.527,51.0683 256.5,49.5 Z"/></g>
<g><path style="opacity:0.016" fill="#220300" d="M 252.5,63.5 C 252.657,64.8734 252.49,66.2068 252,67.5C 250.75,64.9234 250.416,62.2567 251,59.5C 251.21,61.0581 251.71,62.3915 252.5,63.5 Z"/></g>
<g><path style="opacity:0.024" fill="#1d0b00" d="M 483.5,61.5 C 484.473,61.9867 485.473,62.4867 486.5,63C 484.843,63.7252 483.843,63.2252 483.5,61.5 Z"/></g>
<g><path style="opacity:0.024" fill="#1d0c00" d="M 488.5,67.5 C 488.747,65.0248 489.413,65.0248 490.5,67.5C 490.03,68.463 489.363,68.463 488.5,67.5 Z"/></g>
<g><path style="opacity:0.016" fill="#230300" d="M 248.5,70.5 C 249.043,70.56 249.376,70.8933 249.5,71.5C 248.811,73.444 248.311,75.444 248,77.5C 247.297,75.0709 247.463,72.7375 248.5,70.5 Z"/></g>
<g><path style="opacity:0.016" fill="#210300" d="M 246.5,79.5 C 246.569,82.6174 246.735,85.9507 247,89.5C 245.384,86.1763 245.217,82.843 246.5,79.5 Z"/></g>
<g><path style="opacity:1" fill="#060200" d="M 406.5,87.5 C 397.622,85.4222 388.622,84.0889 379.5,83.5C 354.281,81.3194 329.281,82.8194 304.5,88C 296.968,90.0104 289.635,92.5104 282.5,95.5C 285.32,92.9193 288.654,91.0859 292.5,90C 320.66,82.2641 349.326,79.5975 378.5,82C 389.023,82.5508 399.357,84.2174 409.5,87C 408.552,87.4828 407.552,87.6495 406.5,87.5 Z"/></g>
<g><path style="opacity:1" fill="#b66649" d="M 379.5,83.5 C 392.372,98.6133 397.205,115.947 394,135.5C 391.985,141.715 389.485,147.715 386.5,153.5C 386.167,153.5 385.833,153.5 385.5,153.5C 378.395,153.763 371.395,154.763 364.5,156.5C 363.287,156.747 362.62,157.414 362.5,158.5C 361.883,158.611 361.383,158.944 361,159.5C 360.333,162.167 360.333,164.833 361,167.5C 365.4,176.537 368.9,185.871 371.5,195.5C 371.397,200.644 372.563,201.31 375,197.5C 383.786,207.508 394.952,212.341 408.5,212C 421.275,214.27 432.608,211.27 442.5,203C 444.567,202.464 446.401,202.964 448,204.5C 452.42,212.798 453.42,221.465 451,230.5C 448.342,236.259 443.842,239.759 437.5,241C 433.118,244.299 430.118,248.466 428.5,253.5C 427.761,253.369 427.094,253.536 426.5,254C 428.464,255.451 429.797,257.284 430.5,259.5C 431.175,270.497 431.342,281.497 431,292.5C 426.293,311.544 414.793,324.711 396.5,332C 394.333,334.167 392.167,336.333 390,338.5C 383.391,348.739 376.558,358.739 369.5,368.5C 366.373,369.232 363.206,370.232 360,371.5C 350.016,369.967 340.516,367.133 331.5,363C 327.667,358.5 323.5,354.333 319,350.5C 318.74,348.382 317.74,346.716 316,345.5C 315.667,345.833 315.333,346.167 315,346.5C 308.088,340.286 301.254,333.953 294.5,327.5C 288.957,319.312 284.291,310.645 280.5,301.5C 275.908,297.698 272.242,293.031 269.5,287.5C 267.292,272.707 264.126,258.041 260,243.5C 259.333,235.5 259.333,227.5 260,219.5C 263.13,208.882 263.297,198.215 260.5,187.5C 259.69,179.845 259.523,172.178 260,164.5C 260.667,167.167 261.333,167.167 262,164.5C 262.056,155.002 264.556,146.336 269.5,138.5C 271.5,136.329 273.334,133.996 275,131.5C 275.499,127.179 275.666,122.846 275.5,118.5C 275.5,117.5 275.5,116.5 275.5,115.5C 275.477,107.898 277.81,101.231 282.5,95.5C 289.635,92.5104 296.968,90.0104 304.5,88C 329.281,82.8194 354.281,81.3194 379.5,83.5 Z"/></g>
<g><path style="opacity:0.024" fill="#1f0b00" d="M 492.5,90.5 C 493.833,89.5 493.833,88.5 492.5,87.5C 492.351,86.448 492.517,85.448 493,84.5C 494.893,87.2386 494.893,89.9053 493,92.5C 492.536,91.9056 492.369,91.2389 492.5,90.5 Z"/></g>
<g><path style="opacity:1" fill="#a3563e" d="M 379.5,83.5 C 388.622,84.0889 397.622,85.4222 406.5,87.5C 418.258,89.8087 429.592,93.642 440.5,99C 443.988,104.253 445.655,110.086 445.5,116.5C 445.5,118.167 445.5,119.833 445.5,121.5C 445.5,125.5 445.5,129.5 445.5,133.5C 447.4,137.732 450.067,141.399 453.5,144.5C 455.757,148.683 457.757,153.016 459.5,157.5C 460.876,161.038 462.043,164.704 463,168.5C 465.99,169.974 469.157,170.974 472.5,171.5C 473.48,174.086 473.813,176.753 473.5,179.5C 472.025,186.117 469.192,192.117 465,197.5C 466.217,207.419 466.55,217.419 466,227.5C 465,230.5 464,233.5 463,236.5C 465.749,268.35 456.249,295.683 434.5,318.5C 430.653,319.396 427.32,321.063 424.5,323.5C 424.736,326.226 423.903,328.559 422,330.5C 418.234,333.261 414.734,336.428 411.5,340C 408.597,340.569 406.597,342.235 405.5,345C 404.167,345.333 402.833,345.667 401.5,346C 397.492,351.029 393.492,356.029 389.5,361C 388.551,361.617 387.718,361.451 387,360.5C 382.324,365.671 376.491,368.338 369.5,368.5C 376.558,358.739 383.391,348.739 390,338.5C 392.167,336.333 394.333,334.167 396.5,332C 414.793,324.711 426.293,311.544 431,292.5C 431.342,281.497 431.175,270.497 430.5,259.5C 431.317,261.969 431.817,264.635 432,267.5C 433.422,264.97 433.755,262.303 433,259.5C 431.668,257.34 430.168,255.34 428.5,253.5C 430.118,248.466 433.118,244.299 437.5,241C 443.842,239.759 448.342,236.259 451,230.5C 453.42,221.465 452.42,212.798 448,204.5C 446.401,202.964 444.567,202.464 442.5,203C 432.608,211.27 421.275,214.27 408.5,212C 394.952,212.341 383.786,207.508 375,197.5C 372.563,201.31 371.397,200.644 371.5,195.5C 372.222,195.918 372.722,196.584 373,197.5C 372.645,186.764 369.645,176.764 364,167.5C 362.851,164.607 362.351,161.607 362.5,158.5C 362.62,157.414 363.287,156.747 364.5,156.5C 371.395,154.763 378.395,153.763 385.5,153.5C 384.152,154.601 382.652,155.601 381,156.5C 380.056,159.347 380.556,161.847 382.5,164C 393.876,164.638 405.21,164.138 416.5,162.5C 427.836,162.254 437.336,166.254 445,174.5C 445.87,173.892 446.37,173.059 446.5,172C 443.656,164.486 438.656,158.82 431.5,155C 423.944,152.089 416.11,150.922 408,151.5C 400.647,151.365 393.481,152.032 386.5,153.5C 389.485,147.715 391.985,141.715 394,135.5C 397.205,115.947 392.372,98.6133 379.5,83.5 Z"/></g>
<g><path style="opacity:0.016" fill="#210300" d="M 247.5,101.5 C 247.389,100.883 247.056,100.383 246.5,100C 247.249,98.2663 247.749,96.433 248,94.5C 248.796,97.0385 248.629,99.3718 247.5,101.5 Z"/></g>
<g><path style="opacity:0.024" fill="#1f0c00" d="M 492.5,103.5 C 494.088,105.527 494.588,107.861 494,110.5C 493.023,108.26 492.523,105.927 492.5,103.5 Z"/></g>
<g><path style="opacity:0.004" fill="#160100" d="M 247.5,101.5 C 246.657,104.798 246.491,108.131 247,111.5C 244.855,107.863 245.022,104.53 247.5,101.5 Z"/></g>
<g><path style="opacity:1" fill="#301606" d="M 275.5,115.5 C 275.5,116.5 275.5,117.5 275.5,118.5C 274.681,121.305 274.181,124.305 274,127.5C 273.517,126.552 273.351,125.552 273.5,124.5C 273.664,121.813 273.497,119.146 273,116.5C 267.703,116.573 262.37,116.573 257,116.5C 255.959,117.471 255.126,118.471 254.5,119.5C 253.114,116.607 253.448,113.774 255.5,111C 261.95,111.102 268.116,110.269 274,108.5C 274.186,111.036 274.686,113.369 275.5,115.5 Z"/></g>
<g><path style="opacity:1" fill="#321707" d="M 483.5,126.5 C 482.698,125.048 482.198,123.382 482,121.5C 470.968,122.462 459.802,122.796 448.5,122.5C 448.649,121.448 448.483,120.448 448,119.5C 447.667,121.833 447.333,124.167 447,126.5C 446.802,124.618 446.302,122.952 445.5,121.5C 445.5,119.833 445.5,118.167 445.5,116.5C 446.314,114.369 446.814,112.036 447,109.5C 447.333,110.167 447.667,110.833 448,111.5C 460.086,110.512 472.253,110.178 484.5,110.5C 484.26,113.579 484.593,116.579 485.5,119.5C 483.829,121.51 483.162,123.843 483.5,126.5 Z"/></g>
<g><path style="opacity:0.016" fill="#200300" d="M 247.5,134.5 C 246.402,128.999 245.902,123.333 246,117.5C 246.679,120.55 247.512,123.55 248.5,126.5C 247.607,129.084 247.274,131.751 247.5,134.5 Z"/></g>
<g><path style="opacity:1" fill="#401f0e" d="M 273.5,124.5 C 272.542,124.953 271.708,125.619 271,126.5C 266.695,126.197 262.028,125.864 257,125.5C 256.722,126.416 256.222,127.082 255.5,127.5C 254.908,124.873 254.575,122.206 254.5,119.5C 255.126,118.471 255.959,117.471 257,116.5C 262.37,116.573 267.703,116.573 273,116.5C 273.497,119.146 273.664,121.813 273.5,124.5 Z"/></g>
<g><path style="opacity:0.016" fill="#1e0800" d="M 491.5,124.5 C 491.5,123.833 491.5,123.167 491.5,122.5C 492.309,120.708 492.809,118.708 493,116.5C 494.704,119.562 494.204,122.229 491.5,124.5 Z"/></g>
<g><path style="opacity:1" fill="#542b18" d="M 275.5,118.5 C 275.666,122.846 275.499,127.179 275,131.5C 273.334,133.996 271.5,136.329 269.5,138.5C 268.685,137.571 267.852,136.571 267,135.5C 263.981,136.407 260.648,136.074 257,134.5C 256.802,136.382 256.302,138.048 255.5,139.5C 254.799,135.413 254.799,131.413 255.5,127.5C 256.222,127.082 256.722,126.416 257,125.5C 262.028,125.864 266.695,126.197 271,126.5C 271.708,125.619 272.542,124.953 273.5,124.5C 273.351,125.552 273.517,126.552 274,127.5C 274.181,124.305 274.681,121.305 275.5,118.5 Z"/></g>
<g><path style="opacity:0.024" fill="#1f1100" d="M 491.5,124.5 C 492.492,127.779 492.659,131.112 492,134.5C 491.685,131.628 491.185,128.795 490.5,126C 490.57,125.235 490.903,124.735 491.5,124.5 Z"/></g>
<g><path style="opacity:1" fill="#482412" d="M 483.5,126.5 C 484.756,128.941 484.756,131.274 483.5,133.5C 483.649,132.448 483.483,131.448 483,130.5C 478.898,132.133 474.565,133.133 470,133.5C 463.283,133.381 455.95,132.714 448,131.5C 447.292,132.381 446.458,133.047 445.5,133.5C 445.5,129.5 445.5,125.5 445.5,121.5C 446.302,122.952 446.802,124.618 447,126.5C 447.333,124.167 447.667,121.833 448,119.5C 448.483,120.448 448.649,121.448 448.5,122.5C 459.802,122.796 470.968,122.462 482,121.5C 482.198,123.382 482.698,125.048 483.5,126.5 Z"/></g>
<g><path style="opacity:0.008" fill="#200200" d="M 247.5,134.5 C 248.794,136.68 248.461,138.68 246.5,140.5C 246.833,138.5 247.167,136.5 247.5,134.5 Z"/></g>
<g><path style="opacity:1" fill="#5c2f1b" d="M 483.5,133.5 C 484.018,138.939 483.018,143.939 480.5,148.5C 480.714,146.856 480.38,145.356 479.5,144C 470.185,143.864 461.519,144.031 453.5,144.5C 450.067,141.399 447.4,137.732 445.5,133.5C 446.458,133.047 447.292,132.381 448,131.5C 455.95,132.714 463.283,133.381 470,133.5C 474.565,133.133 478.898,132.133 483,130.5C 483.483,131.448 483.649,132.448 483.5,133.5 Z"/></g>
<g><path style="opacity:0.004" fill="#140100" d="M 246.5,140.5 C 247.038,142.117 247.371,143.784 247.5,145.5C 245.655,144.005 245.322,142.338 246.5,140.5 Z"/></g>
<g><path style="opacity:1" fill="#713b26" d="M 269.5,138.5 C 264.556,146.336 262.056,155.002 262,164.5C 261.333,167.167 260.667,167.167 260,164.5C 259.523,172.178 259.69,179.845 260.5,187.5C 258.628,173.357 257.128,159.024 256,144.5C 254.212,142.977 254.045,141.31 255.5,139.5C 256.302,138.048 256.802,136.382 257,134.5C 260.648,136.074 263.981,136.407 267,135.5C 267.852,136.571 268.685,137.571 269.5,138.5 Z"/></g>
<g><path style="opacity:0.004" fill="#1b0900" d="M 489.5,143.5 C 490.621,145.089 490.454,146.756 489,148.5C 488.517,147.552 488.351,146.552 488.5,145.5C 489.338,145.158 489.672,144.492 489.5,143.5 Z"/></g>
<g><path style="opacity:1" fill="#6e3824" d="M 480.5,148.5 C 479.87,152.048 478.87,155.381 477.5,158.5C 477.66,156.801 477.494,155.134 477,153.5C 476.667,154.5 476.333,155.5 476,156.5C 471,155.833 466,155.167 461,154.5C 460.508,155.549 460.674,156.549 461.5,157.5C 461.03,158.463 460.363,158.463 459.5,157.5C 457.757,153.016 455.757,148.683 453.5,144.5C 461.519,144.031 470.185,143.864 479.5,144C 480.38,145.356 480.714,146.856 480.5,148.5 Z"/></g>
<g><path style="opacity:1" fill="#1b0b01" d="M 330.5,157.5 C 330.5,159.833 330.5,162.167 330.5,164.5C 319.583,165.292 308.75,164.625 298,162.5C 285.654,162.213 275.321,166.546 267,175.5C 266.51,174.207 266.343,172.873 266.5,171.5C 270.386,162.451 277.053,156.285 286.5,153C 301.042,151.015 315.375,152.015 329.5,156C 330.056,156.383 330.389,156.883 330.5,157.5 Z"/></g>
<g><path style="opacity:1" fill="#1b0b01" d="M 385.5,153.5 C 385.833,153.5 386.167,153.5 386.5,153.5C 393.481,152.032 400.647,151.365 408,151.5C 416.11,150.922 423.944,152.089 431.5,155C 438.656,158.82 443.656,164.486 446.5,172C 446.37,173.059 445.87,173.892 445,174.5C 437.336,166.254 427.836,162.254 416.5,162.5C 405.21,164.138 393.876,164.638 382.5,164C 380.556,161.847 380.056,159.347 381,156.5C 382.652,155.601 384.152,154.601 385.5,153.5 Z"/></g>
<g><path style="opacity:1" fill="#7d422c" d="M 477.5,158.5 C 476.398,165.67 475.065,172.67 473.5,179.5C 473.813,176.753 473.48,174.086 472.5,171.5C 469.157,170.974 465.99,169.974 463,168.5C 462.043,164.704 460.876,161.038 459.5,157.5C 460.363,158.463 461.03,158.463 461.5,157.5C 460.674,156.549 460.508,155.549 461,154.5C 466,155.167 471,155.833 476,156.5C 476.333,155.5 476.667,154.5 477,153.5C 477.494,155.134 477.66,156.801 477.5,158.5 Z"/></g>
<g><path style="opacity:0.016" fill="#200300" d="M 247.5,145.5 C 248.167,145.833 248.833,146.167 249.5,146.5C 250.632,159.822 251.632,173.156 252.5,186.5C 250.773,172.965 249.106,159.298 247.5,145.5 Z"/></g>
<g><path style="opacity:1" fill="#1c0d04" d="M 362.5,158.5 C 362.351,161.607 362.851,164.607 364,167.5C 369.645,176.764 372.645,186.764 373,197.5C 372.722,196.584 372.222,195.918 371.5,195.5C 368.9,185.871 365.4,176.537 361,167.5C 360.333,164.833 360.333,162.167 361,159.5C 361.383,158.944 361.883,158.611 362.5,158.5 Z"/></g>
<g><path style="opacity:0.024" fill="#1e0e00" d="M 482.5,173.5 C 482.751,168.412 483.584,163.412 485,158.5C 485.115,163.744 484.282,168.744 482.5,173.5 Z"/></g>
<g><path style="opacity:1" fill="#a1553d" d="M 330.5,157.5 C 331.328,163.319 331.828,169.319 332,175.5C 334.322,182.332 334.988,189.332 334,196.5C 330.984,200.092 327.151,202.258 322.5,203C 304.842,204.394 287.176,205.394 269.5,206C 279.412,201.903 279.912,197.07 271,191.5C 266.3,185.384 264.8,178.718 266.5,171.5C 266.343,172.873 266.51,174.207 267,175.5C 275.321,166.546 285.654,162.213 298,162.5C 308.75,164.625 319.583,165.292 330.5,164.5C 330.5,162.167 330.5,159.833 330.5,157.5 Z"/></g>
<g><path style="opacity:1" fill="#150903" d="M 318.5,178.5 C 312.349,177.336 306.349,177.336 300.5,178.5C 295.839,178.749 291.506,180.082 287.5,182.5C 286.304,182.154 286.304,181.654 287.5,181C 295.508,175.951 304.174,174.284 313.5,176C 315.315,176.757 316.981,177.59 318.5,178.5 Z"/></g>
<g><path style="opacity:1" fill="#070200" d="M 424.5,181.5 C 418.499,179.459 412.333,178.125 406,177.5C 401.758,177.77 397.591,178.437 393.5,179.5C 397.192,177.067 401.359,176.067 406,176.5C 412.8,176.239 418.967,177.906 424.5,181.5 Z"/></g>
<g><path style="opacity:1" fill="#562c1b" d="M 300.5,178.5 C 306.349,177.336 312.349,177.336 318.5,178.5C 320.103,178.312 321.437,178.812 322.5,180C 320.038,179.389 317.704,179.555 315.5,180.5C 313.784,180.371 312.117,180.038 310.5,179.5C 307.375,178.521 304.042,178.187 300.5,178.5 Z"/></g>
<g><path style="opacity:1" fill="#180e08" d="M 310.5,179.5 C 312.117,180.038 313.784,180.371 315.5,180.5C 320.09,182.128 324.423,184.295 328.5,187C 330.037,188.11 330.703,189.61 330.5,191.5C 318.511,192.41 306.511,192.576 294.5,192C 282.253,190.701 281.586,187.701 292.5,183C 298.256,180.651 304.256,179.485 310.5,179.5 Z"/></g>
<g><path style="opacity:1" fill="#683623" d="M 424.5,181.5 C 435.086,185.918 434.919,186.251 424,182.5C 423.235,182.57 422.735,182.903 422.5,183.5C 412.397,179.62 402.397,179.62 392.5,183.5C 392.631,182.624 392.298,181.957 391.5,181.5C 390.549,182.326 389.549,182.492 388.5,182C 389.91,180.628 391.577,179.795 393.5,179.5C 397.591,178.437 401.758,177.77 406,177.5C 412.333,178.125 418.499,179.459 424.5,181.5 Z"/></g>
<g><path style="opacity:1" fill="#807d79" d="M 299.5,190.5 C 297.585,190.784 295.919,190.451 294.5,189.5C 295.833,189.5 297.167,189.5 298.5,189.5C 298.5,187.833 298.5,186.167 298.5,184.5C 297.5,184.5 296.5,184.5 295.5,184.5C 296.261,183.609 297.261,182.942 298.5,182.5C 299.48,185.086 299.813,187.753 299.5,190.5 Z"/></g>
<g><path style="opacity:1" fill="#c7c5c3" d="M 306.5,185.5 C 304.402,186.914 303.402,186.248 303.5,183.5C 305.332,182.282 306.332,182.949 306.5,185.5 Z"/></g>
<g><path style="opacity:1" fill="#e3e3e1" d="M 295.5,184.5 C 296.5,184.5 297.5,184.5 298.5,184.5C 298.5,186.167 298.5,187.833 298.5,189.5C 297.167,189.5 295.833,189.5 294.5,189.5C 291.996,187.458 292.33,185.792 295.5,184.5 Z"/></g>
<g><path style="opacity:1" fill="#c6c4c2" d="M 315.5,182.5 C 319.928,183.018 322.595,185.351 323.5,189.5C 321.08,189.292 318.747,189.626 316.5,190.5C 315.52,187.914 315.187,185.247 315.5,182.5 Z"/></g>
<g><path style="opacity:0.024" fill="#1e0e00" d="M 482.5,173.5 C 482.313,177.913 481.646,182.246 480.5,186.5C 483.564,186.144 486.231,186.977 488.5,189C 487.906,189.464 487.239,189.631 486.5,189.5C 486.158,188.662 485.492,188.328 484.5,188.5C 482.708,187.691 480.708,187.191 478.5,187C 479.93,182.428 481.264,177.928 482.5,173.5 Z"/></g>
<g><path style="opacity:0.016" fill="#250700" d="M 252.5,186.5 C 253.451,187.919 253.784,189.585 253.5,191.5C 252.167,191.5 250.833,191.5 249.5,191.5C 250.209,190.596 251.209,190.263 252.5,190.5C 252.5,189.167 252.5,187.833 252.5,186.5 Z"/></g>
<g><path style="opacity:1" fill="#321a0f" d="M 303.5,183.5 C 303.402,186.248 304.402,186.914 306.5,185.5C 307.167,188.167 307.833,188.167 308.5,185.5C 309.779,184.032 311.446,183.365 313.5,183.5C 313.232,186.119 313.565,188.619 314.5,191C 309.316,191.816 304.316,191.65 299.5,190.5C 300.239,190.631 300.906,190.464 301.5,190C 300.409,187.936 300.242,185.769 301,183.5C 301.333,184.167 301.667,184.833 302,185.5C 302.278,184.584 302.778,183.918 303.5,183.5 Z"/></g>
<g><path style="opacity:1" fill="#b7b6b3" d="M 306.5,185.5 C 307.167,185.5 307.833,185.5 308.5,185.5C 307.833,188.167 307.167,188.167 306.5,185.5 Z"/></g>
<g><path style="opacity:1" fill="#1c1009" d="M 422.5,183.5 C 425.106,185.074 427.773,186.741 430.5,188.5C 429.619,189.971 428.286,190.804 426.5,191C 415.648,193.882 404.815,194.049 394,191.5C 390.857,192.107 387.69,192.441 384.5,192.5C 384.351,191.448 384.517,190.448 385,189.5C 387.478,187.361 389.978,185.361 392.5,183.5C 402.397,179.62 412.397,179.62 422.5,183.5 Z"/></g>
<g><path style="opacity:1" fill="#d2d1cf" d="M 415.5,183.5 C 418.788,183.637 421.122,185.137 422.5,188C 422.355,188.772 422.022,189.439 421.5,190C 419.187,190.662 416.854,191.162 414.5,191.5C 415.092,188.873 415.425,186.206 415.5,183.5 Z"/></g>
<g><path style="opacity:1" fill="#a8a6a4" d="M 406.5,186.5 C 408.337,186.639 408.67,187.306 407.5,188.5C 406.702,188.043 406.369,187.376 406.5,186.5 Z"/></g>
<g><path style="opacity:1" fill="#d0cfcd" d="M 396.5,183.5 C 398.229,184.953 399.229,186.953 399.5,189.5C 390.554,190.699 389.554,188.699 396.5,183.5 Z"/></g>
<g><path style="opacity:1" fill="#d6d5d3" d="M 402.5,183.5 C 403.5,183.5 404.5,183.5 405.5,183.5C 405.5,184.5 405.5,185.5 405.5,186.5C 404.5,186.5 403.5,186.5 402.5,186.5C 402.5,185.5 402.5,184.5 402.5,183.5 Z"/></g>
<g><path style="opacity:0.004" fill="#160300" d="M 249.5,191.5 C 249.167,192.167 248.833,192.833 248.5,193.5C 247.833,193.5 247.5,193.833 247.5,194.5C 246.833,194.5 246.5,194.833 246.5,195.5C 245.833,195.833 245.167,196.167 244.5,196.5C 245.167,193.833 246.833,192.167 249.5,191.5 Z"/></g>
<g><path style="opacity:1" fill="#ad6044" d="M 477.5,194.5 C 482.973,193.073 486.306,195.073 487.5,200.5C 480.563,201.3 475.23,204.634 471.5,210.5C 470.808,209.975 470.308,209.308 470,208.5C 469.333,205.167 469.333,201.833 470,198.5C 472.769,197.534 475.269,196.201 477.5,194.5 Z"/></g>
<g><path style="opacity:1" fill="#0f0601" d="M 396.5,197.5 C 396.56,196.957 396.893,196.624 397.5,196.5C 398.795,197.098 400.128,197.598 401.5,198C 399.735,198.64 398.068,198.473 396.5,197.5 Z"/></g>
<g><path style="opacity:1" fill="#4b2617" d="M 315.5,195.5 C 319.236,195.66 319.236,196.493 315.5,198C 311.854,199.453 308.188,199.62 304.5,198.5C 308.455,198.009 312.121,197.009 315.5,195.5 Z"/></g>
<g><path style="opacity:1" fill="#a95d42" d="M 256.5,210.5 C 255.415,208.413 253.749,207.08 251.5,206.5C 249.583,202.608 250.417,199.608 254,197.5C 257.393,198.718 258.893,201.218 258.5,205C 258.453,207.295 257.787,209.129 256.5,210.5 Z"/></g>
<g><path style="opacity:0.004" fill="#170100" d="M 244.5,196.5 C 243.493,202.622 242.493,208.622 241.5,214.5C 241.334,210.486 241.501,206.486 242,202.5C 242.037,200.026 242.87,198.026 244.5,196.5 Z"/></g>
<g><path style="opacity:1" fill="#9e543c" d="M 487.5,231.5 C 488.266,226.18 488.432,220.846 488,215.5C 483.582,219.247 479.916,223.58 477,228.5C 476.186,235.011 474.686,241.345 472.5,247.5C 470.955,248.452 469.288,248.785 467.5,248.5C 467.5,252.833 467.5,257.167 467.5,261.5C 469.167,261.5 470.833,261.5 472.5,261.5C 470.735,262.461 468.735,262.795 466.5,262.5C 466.334,254.16 466.5,245.827 467,237.5C 469.121,232.018 470.454,226.351 471,220.5C 473.233,213.861 477.066,208.361 482.5,204C 484.345,202.872 486.345,202.372 488.5,202.5C 488.99,207.314 489.324,212.147 489.5,217C 489.656,222.09 488.99,226.923 487.5,231.5 Z"/></g>
<g><path style="opacity:0.024" fill="#201100" d="M 496.5,225.5 C 496.414,218.137 496.247,210.804 496,203.5C 497.65,210.954 497.817,218.288 496.5,225.5 Z"/></g>
<g><path style="opacity:1" fill="#9f553c" d="M 251.5,206.5 C 253.465,208.768 254.632,211.435 255,214.5C 255.5,220.509 255.333,226.509 254.5,232.5C 254.755,238.101 255.755,243.435 257.5,248.5C 258.34,254.195 259.34,259.861 260.5,265.5C 258.61,265.703 257.11,265.037 256,263.5C 253.984,259.469 251.984,255.469 250,251.5C 248.908,237.657 248.741,223.823 249.5,210C 249.608,208.319 250.275,207.152 251.5,206.5 Z"/></g>
<g><path style="opacity:1" fill="#a1553d" d="M 380.5,210.5 C 379.535,211.721 379.702,213.054 381,214.5C 385.66,218.16 389.993,222.16 394,226.5C 395.124,233.406 392.291,237.906 385.5,240C 386.448,240.483 387.448,240.649 388.5,240.5C 387.571,241.315 386.571,242.148 385.5,243C 381.082,243.208 376.749,243.874 372.5,245C 370.416,245.697 368.749,246.864 367.5,248.5C 362.861,249.294 358.194,249.961 353.5,250.5C 346.521,249.71 339.521,249.376 332.5,249.5C 334.969,248.683 337.635,248.183 340.5,248C 334.574,244.999 328.24,243.665 321.5,244C 319.624,243.082 318.624,241.582 318.5,239.5C 319.423,240.303 320.423,240.47 321.5,240C 317.797,236.604 316.631,232.437 318,227.5C 322.847,223.823 326.347,219.156 328.5,213.5C 328.376,212.893 328.043,212.56 327.5,212.5C 328.625,211.986 329.791,211.653 331,211.5C 331.995,214.77 332.828,218.103 333.5,221.5C 335.924,220.577 337.924,219.077 339.5,217C 340.635,216.251 341.635,216.417 342.5,217.5C 339.565,226.465 342.565,232.298 351.5,235C 356.5,235.667 361.5,235.667 366.5,235C 371.659,233.347 374.326,229.847 374.5,224.5C 372.568,218.953 370.901,213.287 369.5,207.5C 373.722,208.041 377.389,209.041 380.5,210.5 Z"/></g>
<g><path style="opacity:1" fill="#b46447" d="M 487.5,231.5 C 487.515,235.56 487.015,239.56 486,243.5C 483.394,248.435 480.394,253.102 477,257.5C 475.951,259.384 474.451,260.718 472.5,261.5C 470.833,261.5 469.167,261.5 467.5,261.5C 467.5,257.167 467.5,252.833 467.5,248.5C 469.288,248.785 470.955,248.452 472.5,247.5C 474.686,241.345 476.186,235.011 477,228.5C 479.916,223.58 483.582,219.247 488,215.5C 488.432,220.846 488.266,226.18 487.5,231.5 Z"/></g>
<g><path style="opacity:1" fill="#180b03" d="M 380.5,210.5 C 381.028,211.721 381.695,212.887 382.5,214C 388.206,216.423 393.039,219.923 397,224.5C 399.104,232.631 396.271,237.965 388.5,240.5C 387.448,240.649 386.448,240.483 385.5,240C 392.291,237.906 395.124,233.406 394,226.5C 389.993,222.16 385.66,218.16 381,214.5C 379.702,213.054 379.535,211.721 380.5,210.5 Z"/></g>
<g><path style="opacity:0.024" fill="#1e0d00" d="M 496.5,225.5 C 495.885,231.189 495.052,236.856 494,242.5C 493.55,236.542 494.384,230.875 496.5,225.5 Z"/></g>
<g><path style="opacity:0.016" fill="#200300" d="M 241.5,214.5 C 240.473,220.236 240.64,225.903 242,231.5C 242.667,237.833 242.667,244.167 242,250.5C 241.866,241.757 241.033,233.09 239.5,224.5C 239.901,220.976 240.567,217.642 241.5,214.5 Z"/></g>
<g><path style="opacity:1" fill="#100601" d="M 251.5,206.5 C 253.749,207.08 255.415,208.413 256.5,210.5C 255.903,210.735 255.57,211.235 255.5,212C 256.27,224.15 256.936,236.316 257.5,248.5C 255.755,243.435 254.755,238.101 254.5,232.5C 255.333,226.509 255.5,220.509 255,214.5C 254.632,211.435 253.465,208.768 251.5,206.5 Z"/></g>
<g><path style="opacity:1" fill="#160901" d="M 327.5,212.5 C 328.043,212.56 328.376,212.893 328.5,213.5C 326.347,219.156 322.847,223.823 318,227.5C 316.631,232.437 317.797,236.604 321.5,240C 320.423,240.47 319.423,240.303 318.5,239.5C 314.835,235.961 313.668,231.628 315,226.5C 319.345,221.93 323.512,217.263 327.5,212.5 Z"/></g>
<g><path style="opacity:1" fill="#100600" d="M 370.5,238.5 C 371.873,238.343 373.207,238.51 374.5,239C 371.048,239.892 368.048,241.558 365.5,244C 357.215,248.571 348.882,248.571 340.5,244C 338.112,242.139 335.446,240.806 332.5,240C 339.454,241.365 346.454,242.865 353.5,244.5C 356.226,244.318 358.893,243.818 361.5,243C 364.324,240.921 367.324,239.421 370.5,238.5 Z"/></g>
<g><path style="opacity:1" fill="#7f442d" d="M 367.5,248.5 C 383.631,249.426 399.297,252.593 414.5,258C 419.657,260.651 422.657,264.818 423.5,270.5C 415.838,268.113 408.171,265.613 400.5,263C 395.487,262.164 390.487,261.331 385.5,260.5C 375.316,257.86 364.982,257.86 354.5,260.5C 343.488,257.924 332.488,257.924 321.5,260.5C 311.376,261.742 301.709,264.409 292.5,268.5C 292.345,262.979 294.679,258.812 299.5,256C 310.244,252.484 321.244,250.318 332.5,249.5C 339.521,249.376 346.521,249.71 353.5,250.5C 358.194,249.961 362.861,249.294 367.5,248.5 Z"/></g>
<g><path style="opacity:0.004" fill="#190700" d="M 488.5,251.5 C 490.892,250.632 491.059,251.299 489,253.5C 488.536,252.906 488.369,252.239 488.5,251.5 Z"/></g>
<g><path style="opacity:0.008" fill="#210700" d="M 486.5,254.5 C 487.713,255.497 487.546,256.497 486,257.5C 485.536,256.906 485.369,256.239 485.5,255.5C 486.167,255.5 486.5,255.167 486.5,254.5 Z"/></g>
<g><path style="opacity:0.004" fill="#140100" d="M 246.5,258.5 C 246.388,262.339 245.721,262.339 244.5,258.5C 244.97,257.537 245.637,257.537 246.5,258.5 Z"/></g>
<g><path style="opacity:1" fill="#321a10" d="M 288.5,254.5 C 289.043,254.56 289.376,254.893 289.5,255.5C 288.738,259.111 288.238,262.778 288,266.5C 285.946,262.387 286.113,258.387 288.5,254.5 Z"/></g>
<g><path style="opacity:1" fill="#9d563c" d="M 385.5,260.5 C 384.127,260.343 382.793,260.51 381.5,261C 384.718,261.9 387.718,263.067 390.5,264.5C 383.508,262.335 376.342,261.002 369,260.5C 364.266,260.746 359.6,261.413 355,262.5C 350.333,261.833 345.667,261.167 341,260.5C 333.648,261.049 326.482,262.382 319.5,264.5C 320.167,263.167 320.833,261.833 321.5,260.5C 332.488,257.924 343.488,257.924 354.5,260.5C 364.982,257.86 375.316,257.86 385.5,260.5 Z"/></g>
<g><path style="opacity:0.004" fill="#190700" d="M 481.5,261.5 C 483.892,260.632 484.059,261.299 482,263.5C 481.536,262.906 481.369,262.239 481.5,261.5 Z"/></g>
<g><path style="opacity:1" fill="#0e0500" d="M 390.5,264.5 C 394.888,266.434 399.555,267.767 404.5,268.5C 404.083,269.124 403.416,269.457 402.5,269.5C 394.202,267.509 385.868,265.675 377.5,264C 372.648,263.185 367.981,263.352 363.5,264.5C 357.5,265.833 351.5,265.833 345.5,264.5C 343.022,263.836 340.355,263.503 337.5,263.5C 331.448,263.778 325.448,264.445 319.5,265.5C 319.5,265.167 319.5,264.833 319.5,264.5C 326.482,262.382 333.648,261.049 341,260.5C 345.667,261.167 350.333,261.833 355,262.5C 359.6,261.413 364.266,260.746 369,260.5C 376.342,261.002 383.508,262.335 390.5,264.5 Z"/></g>
<g><path style="opacity:1" fill="#703b27" d="M 345.5,264.5 C 334.312,265.17 323.146,266.17 312,267.5C 310.93,267.472 310.097,267.139 309.5,266.5C 312.807,265.949 316.14,265.616 319.5,265.5C 325.448,264.445 331.448,263.778 337.5,263.5C 340.355,263.503 343.022,263.836 345.5,264.5 Z"/></g>
<g><path style="opacity:1" fill="#32190c" d="M 428.5,253.5 C 430.168,255.34 431.668,257.34 433,259.5C 433.755,262.303 433.422,264.97 432,267.5C 431.817,264.635 431.317,261.969 430.5,259.5C 429.797,257.284 428.464,255.451 426.5,254C 427.094,253.536 427.761,253.369 428.5,253.5 Z"/></g>
<g><path style="opacity:0.008" fill="#1e0100" d="M 250.5,266.5 C 251.167,266.5 251.5,266.833 251.5,267.5C 252.167,267.5 252.5,267.833 252.5,268.5C 253.167,268.5 253.5,268.833 253.5,269.5C 251.336,270.118 249.67,269.118 248.5,266.5C 248.97,265.537 249.637,265.537 250.5,266.5 Z"/></g>
<g><path style="opacity:0.004" fill="#190700" d="M 476.5,266.5 C 478.793,267.301 478.46,267.968 475.5,268.5C 475.833,267.833 476.167,267.167 476.5,266.5 Z"/></g>
<g><path style="opacity:0.024" fill="#1f1000" d="M 472.5,268.5 C 473.5,268.5 474.5,268.5 475.5,268.5C 473.898,270.074 471.898,270.741 469.5,270.5C 469.283,274.705 468.617,278.705 467.5,282.5C 467.5,279.833 467.5,277.167 467.5,274.5C 468.451,273.081 468.784,271.415 468.5,269.5C 470.099,269.768 471.432,269.434 472.5,268.5 Z"/></g>
<g><path style="opacity:0.008" fill="#210900" d="M 254.5,272.5 C 255.568,271.566 256.901,271.232 258.5,271.5C 258.378,275.838 258.045,276.172 257.5,272.5C 256.5,272.5 255.5,272.5 254.5,272.5 Z"/></g>
<g><path style="opacity:1" fill="#904e37" d="M 363.5,264.5 C 367.981,263.352 372.648,263.185 377.5,264C 385.868,265.675 394.202,267.509 402.5,269.5C 403.416,269.457 404.083,269.124 404.5,268.5C 405.833,268.833 407.167,269.167 408.5,269.5C 407.398,271.092 408.065,271.925 410.5,272C 409.643,272.689 408.977,273.522 408.5,274.5C 419.001,277.035 418.668,278.368 407.5,278.5C 405.779,276.306 403.445,275.139 400.5,275C 385.662,273.108 370.828,273.275 356,275.5C 342.892,273.609 329.726,273.109 316.5,274C 313.478,274.098 310.811,274.932 308.5,276.5C 306.073,276.477 303.74,275.977 301.5,275C 302.833,274.333 302.833,273.667 301.5,273C 305.555,272.768 309.555,272.268 313.5,271.5C 324.654,272.177 335.821,272.844 347,273.5C 353.782,273.396 360.616,272.729 367.5,271.5C 379.237,272.902 386.237,272.902 388.5,271.5C 388.5,270.5 388.5,269.5 388.5,268.5C 385.089,268.201 381.922,267.201 379,265.5C 377.333,265.833 375.667,266.167 374,266.5C 370.664,265.027 367.164,264.36 363.5,264.5 Z"/></g>
<g><path style="opacity:1" fill="#a05740" d="M 345.5,264.5 C 351.5,265.833 357.5,265.833 363.5,264.5C 367.164,264.36 370.664,265.027 374,266.5C 375.667,266.167 377.333,265.833 379,265.5C 381.922,267.201 385.089,268.201 388.5,268.5C 388.5,269.5 388.5,270.5 388.5,271.5C 386.237,272.902 379.237,272.902 367.5,271.5C 360.616,272.729 353.782,273.396 347,273.5C 335.821,272.844 324.654,272.177 313.5,271.5C 309.555,272.268 305.555,272.768 301.5,273C 302.833,273.667 302.833,274.333 301.5,275C 303.74,275.977 306.073,276.477 308.5,276.5C 310.988,282.487 315.322,286.653 321.5,289C 330.531,299.072 341.865,304.239 355.5,304.5C 362.952,304.091 370.285,302.925 377.5,301C 385.994,294.583 394.994,288.917 404.5,284C 406.16,282.512 407.16,280.679 407.5,278.5C 418.668,278.368 419.001,277.035 408.5,274.5C 408.977,273.522 409.643,272.689 410.5,272C 408.065,271.925 407.398,271.092 408.5,269.5C 412.156,270.659 415.822,271.826 419.5,273C 421.211,274.133 421.711,275.633 421,277.5C 413.186,282.978 407.186,289.978 403,298.5C 396.442,305.839 388.942,311.839 380.5,316.5C 372.354,318.03 364.187,319.363 356,320.5C 348.248,320.511 340.748,319.177 333.5,316.5C 332.893,316.624 332.56,316.957 332.5,317.5C 317.557,310.053 307.39,298.386 302,282.5C 299.153,278.989 296.32,275.489 293.5,272C 293.905,271.055 294.572,270.388 295.5,270C 300.331,269.146 304.997,267.979 309.5,266.5C 310.097,267.139 310.93,267.472 312,267.5C 323.146,266.17 334.312,265.17 345.5,264.5 Z"/></g>
<g><path style="opacity:0.004" fill="#0b0000" d="M 259.5,284.5 C 261.441,285.638 261.608,287.304 260,289.5C 259.506,287.866 259.34,286.199 259.5,284.5 Z"/></g>
<g><path style="opacity:1" fill="#181512" d="M 407.5,278.5 C 407.16,280.679 406.16,282.512 404.5,284C 394.994,288.917 385.994,294.583 377.5,301C 370.285,302.925 362.952,304.091 355.5,304.5C 341.865,304.239 330.531,299.072 321.5,289C 315.322,286.653 310.988,282.487 308.5,276.5C 310.811,274.932 313.478,274.098 316.5,274C 329.726,273.109 342.892,273.609 356,275.5C 370.828,273.275 385.662,273.108 400.5,275C 403.445,275.139 405.779,276.306 407.5,278.5 Z"/></g>
<g><path style="opacity:1" fill="#f6f6f6" d="M 314.5,275.5 C 328.286,274.977 341.953,275.977 355.5,278.5C 369.774,276.429 384.108,275.596 398.5,276C 403.276,281.748 401.942,285.414 394.5,287C 389.004,290.916 383.337,294.582 377.5,298C 366.966,300.4 356.3,301.067 345.5,300C 340.617,298.928 335.95,297.261 331.5,295C 326.862,290.346 321.529,286.679 315.5,284C 313.162,281.458 312.828,278.625 314.5,275.5 Z"/></g>
<g><path style="opacity:1" fill="#994e3a" d="M 463.5,356.5 C 461.461,346.082 460.295,335.415 460,324.5C 442.554,340.63 429.887,359.963 422,382.5C 409.662,399.591 392.829,408.758 371.5,410C 357.187,411.536 343.187,410.203 329.5,406C 318.221,401.616 309.721,394.116 304,383.5C 298.728,373.289 293.728,362.956 289,352.5C 287.143,349.8 284.643,348.134 281.5,347.5C 281.177,340.978 281.51,334.645 282.5,328.5C 283.688,329.048 284.855,329.381 286,329.5C 287,331.5 288,333.5 289,335.5C 289.333,335.167 289.667,334.833 290,334.5C 291.678,337.555 294.011,339.888 297,341.5C 301.465,348.541 306.798,354.874 313,360.5C 313.333,361.5 313.667,362.5 314,363.5C 317.782,367.609 321.948,371.443 326.5,375C 329.023,375.518 331.023,376.852 332.5,379C 334.235,379.651 335.902,379.485 337.5,378.5C 341.496,381.002 345.663,382.335 350,382.5C 350.561,381.978 351.228,381.645 352,381.5C 356.412,383.87 360.745,383.87 365,381.5C 376.349,383.163 386.349,380.163 395,372.5C 395.333,372.833 395.667,373.167 396,373.5C 398.237,371.353 400.237,369.02 402,366.5C 402.317,368.301 402.984,368.634 404,367.5C 404.519,364.042 406.353,361.709 409.5,360.5C 412.721,356.95 415.888,353.283 419,349.5C 419.333,350.167 419.667,350.833 420,351.5C 421.269,350.095 421.769,348.429 421.5,346.5C 422.5,346.5 423.5,346.5 424.5,346.5C 424.491,344.692 424.991,343.025 426,341.5C 426.667,340.167 427.333,340.167 428,341.5C 429.758,337.915 432.258,335.249 435.5,333.5C 436.288,330.193 437.788,327.193 440,324.5C 444.929,320.648 448.929,315.982 452,310.5C 453.626,304.991 456.126,299.991 459.5,295.5C 460.709,315.845 462.042,336.179 463.5,356.5 Z"/></g>
<g><path style="opacity:0.016" fill="#260400" d="M 265.5,303.5 C 266.39,305.782 266.556,308.115 266,310.5C 265.578,308.645 265.078,306.811 264.5,305C 264.57,304.235 264.903,303.735 265.5,303.5 Z"/></g>
<g><path style="opacity:0.024" fill="#1f0f00" d="M 466.5,282.5 C 466.833,282.5 467.167,282.5 467.5,282.5C 467.821,309.232 469.321,335.899 472,362.5C 472.163,364.676 472.996,366.509 474.5,368C 473.906,368.464 473.239,368.631 472.5,368.5C 471.833,368.5 471.5,368.167 471.5,367.5C 468.346,339.265 466.679,310.931 466.5,282.5 Z"/></g>
<g><path style="opacity:1" fill="#140802" d="M 332.5,317.5 C 332.56,316.957 332.893,316.624 333.5,316.5C 340.748,319.177 348.248,320.511 356,320.5C 364.187,319.363 372.354,318.03 380.5,316.5C 364.782,325.408 348.782,325.741 332.5,317.5 Z"/></g>
<g><path style="opacity:1" fill="#b76649" d="M 463.5,356.5 C 463.5,357.5 463.5,358.5 463.5,359.5C 463.321,365.404 463.988,371.071 465.5,376.5C 467.906,383.188 469.906,382.854 471.5,375.5C 475.997,378.498 480.831,380.832 486,382.5C 487.03,382.836 487.53,383.503 487.5,384.5C 488.309,396.482 488.642,408.482 488.5,420.5C 487.33,434.513 483.663,447.846 477.5,460.5C 460.51,461.333 443.51,461.833 426.5,462C 416.1,463.532 407.433,468.199 400.5,476C 407.389,471.401 415.055,468.068 423.5,466C 440.51,465.167 457.51,465.334 474.5,466.5C 465.973,482.205 454.973,496.039 441.5,508C 429.083,517.079 417.25,526.913 406,537.5C 399.643,544.216 394.81,551.882 391.5,560.5C 379.833,560.5 368.167,560.5 356.5,560.5C 356.66,558.801 356.494,557.134 356,555.5C 348.677,542.838 339.177,532.005 327.5,523C 305.861,508.863 288.528,490.696 275.5,468.5C 290.798,466.516 306.464,465.849 322.5,466.5C 333.688,467.178 343.188,471.511 351,479.5C 351.667,478.833 351.667,478.167 351,477.5C 344.811,470.822 337.311,466.322 328.5,464C 309.871,462.747 291.204,462.08 272.5,462C 265.485,448.784 261.485,434.618 260.5,419.5C 260.358,407.482 260.691,395.482 261.5,383.5C 265.109,380.689 269.109,378.355 273.5,376.5C 274.196,379.556 275.03,382.556 276,385.5C 277,383.833 278,382.167 279,380.5C 279.611,372.169 280.111,363.836 280.5,355.5C 281.473,353.052 281.806,350.385 281.5,347.5C 284.643,348.134 287.143,349.8 289,352.5C 293.728,362.956 298.728,373.289 304,383.5C 309.721,394.116 318.221,401.616 329.5,406C 343.187,410.203 357.187,411.536 371.5,410C 392.829,408.758 409.662,399.591 422,382.5C 429.887,359.963 442.554,340.63 460,324.5C 460.295,335.415 461.461,346.082 463.5,356.5 Z"/></g>
<g><path style="opacity:0.008" fill="#220200" d="M 273.5,369.5 C 272.833,369.5 272.167,369.5 271.5,369.5C 272.83,301.641 273.497,301.641 273.5,369.5 Z"/></g>
<g><path style="opacity:1" fill="#552a18" d="M 282.5,328.5 C 281.51,334.645 281.177,340.978 281.5,347.5C 281.806,350.385 281.473,353.052 280.5,355.5C 280.168,345.81 280.502,336.144 281.5,326.5C 282.298,326.957 282.631,327.624 282.5,328.5 Z"/></g>
<g><path style="opacity:0.039" fill="#191000" d="M 249.5,370.5 C 248.5,370.5 247.5,370.5 246.5,370.5C 248.29,369.003 250.456,368.336 253,368.5C 254.5,368.667 256,368.833 257.5,369C 254.635,369.183 251.969,369.683 249.5,370.5 Z"/></g>
<g><path style="opacity:1" fill="#743d28" d="M 463.5,359.5 C 464.737,364.96 465.404,370.627 465.5,376.5C 463.988,371.071 463.321,365.404 463.5,359.5 Z"/></g>
<g><path style="opacity:0.039" fill="#1a1100" d="M 499.5,370.5 C 496.833,369.167 494.167,369.167 491.5,370.5C 489.621,370.607 489.288,370.107 490.5,369C 494.625,368.146 498.625,368.48 502.5,370C 501.552,370.483 500.552,370.649 499.5,370.5 Z"/></g>
<g><path style="opacity:0.016" fill="#1f0900" d="M 475.5,370.5 C 476.497,369.287 477.497,369.454 478.5,371C 477.906,371.464 477.239,371.631 476.5,371.5C 475.833,371.5 475.5,371.167 475.5,370.5 Z"/></g>
<g><path style="opacity:0.008" fill="#1d0800" d="M 271.5,369.5 C 271.5,369.833 271.5,370.167 271.5,370.5C 270.833,370.5 270.5,370.833 270.5,371.5C 268.207,370.699 268.54,370.032 271.5,369.5 Z"/></g>
<g><path style="opacity:0.039" fill="#1b0f00" d="M 246.5,370.5 C 246.5,370.833 246.5,371.167 246.5,371.5C 245.508,371.328 244.842,371.662 244.5,372.5C 243.448,372.649 242.448,372.483 241.5,372C 243.025,370.991 244.692,370.491 246.5,370.5 Z"/></g>
<g><path style="opacity:0.004" fill="#150b00" d="M 239.5,374.5 C 238.508,374.328 237.842,374.662 237.5,375.5C 236.5,375.5 235.5,375.5 234.5,375.5C 235.995,373.655 237.662,373.322 239.5,374.5 Z"/></g>
<g><path style="opacity:0.016" fill="#200900" d="M 509.5,374.5 C 511.338,373.322 513.005,373.655 514.5,375.5C 513.5,375.5 512.5,375.5 511.5,375.5C 511.158,374.662 510.492,374.328 509.5,374.5 Z"/></g>
<g><path style="opacity:0.039" fill="#1c0c00" d="M 234.5,375.5 C 234.5,375.833 234.5,376.167 234.5,376.5C 233.508,376.328 232.842,376.662 232.5,377.5C 231.5,377.5 230.5,377.5 229.5,377.5C 230.78,376.069 232.447,375.402 234.5,375.5 Z"/></g>
<g><path style="opacity:1" fill="#004511" d="M 352.5,560.5 C 340.5,560.5 328.5,560.5 316.5,560.5C 314.993,556.155 312.827,552.155 310,548.5C 294.667,534.5 279.333,520.5 264,506.5C 259.42,500.34 255.086,494.007 251,487.5C 234.564,455.487 227.397,421.487 229.5,385.5C 236.87,381.644 244.537,378.644 252.5,376.5C 253.833,376.667 255.167,376.833 256.5,377C 248.979,428.771 263.979,472.771 301.5,509C 316.357,519.53 330.19,531.364 343,544.5C 347.217,549.215 350.384,554.549 352.5,560.5 Z"/></g>
<g><path style="opacity:1" fill="#014511" d="M 432.5,560.5 C 420.5,560.5 408.5,560.5 396.5,560.5C 397.38,557.738 398.546,555.071 400,552.5C 411.292,537.539 424.792,525.039 440.5,515C 482.505,479.797 499.505,434.964 491.5,380.5C 491.248,377.253 492.748,375.92 496,376.5C 504.074,378.804 511.908,381.804 519.5,385.5C 520.703,411.032 517.536,436.032 510,460.5C 499.5,492.003 480.333,516.836 452.5,535C 443.687,541.961 437.02,550.461 432.5,560.5 Z"/></g>
<g><path style="opacity:0.039" fill="#1c0c00" d="M 514.5,376.5 C 514.5,376.167 514.5,375.833 514.5,375.5C 516.308,375.491 517.975,375.991 519.5,377C 518.552,377.483 517.552,377.649 516.5,377.5C 516.158,376.662 515.492,376.328 514.5,376.5 Z"/></g>
<g><path style="opacity:0.024" fill="#1d1000" d="M 229.5,377.5 C 229.5,377.833 229.5,378.167 229.5,378.5C 228.508,378.328 227.842,378.662 227.5,379.5C 226.508,379.328 225.842,379.662 225.5,380.5C 223.621,380.607 223.288,380.107 224.5,379C 226.025,377.991 227.692,377.491 229.5,377.5 Z"/></g>
<g><path style="opacity:0.016" fill="#1f0b00" d="M 521.5,379.5 C 522.849,378.203 524.182,378.37 525.5,380C 524.906,380.464 524.239,380.631 523.5,380.5C 523.158,379.662 522.492,379.328 521.5,379.5 Z"/></g>
<g><path style="opacity:0.008" fill="#1d0800" d="M 530.5,384.5 C 529.632,382.108 530.299,381.941 532.5,384C 531.906,384.464 531.239,384.631 530.5,384.5 Z"/></g>
<g><path style="opacity:0.024" fill="#1d1000" d="M 218.5,384.5 C 217.508,384.328 216.842,384.662 216.5,385.5C 214.621,385.607 214.288,385.107 215.5,384C 216.5,383.5 217.5,383 218.5,382.5C 219.463,382.97 219.463,383.637 218.5,384.5 Z"/></g>
<g><path style="opacity:0.039" fill="#1a0900" d="M 545.5,392.5 C 545.158,391.662 544.492,391.328 543.5,391.5C 542.031,389.895 542.365,389.395 544.5,390C 545.833,390.667 547.167,391.333 548.5,392C 547.552,392.483 546.552,392.649 545.5,392.5 Z"/></g>
<g><path style="opacity:1" fill="#e9e7e4" d="M 222.5,389.5 C 223.167,396.167 223.833,402.833 224.5,409.5C 225.43,417.842 226.596,426.175 228,434.5C 233.728,470.129 249.561,500.295 275.5,525C 287.184,532.675 297.684,541.842 307,552.5C 309.157,554.817 310.657,557.484 311.5,560.5C 259.167,560.5 206.833,560.5 154.5,560.5C 153.159,554.26 152.326,547.926 152,541.5C 151.462,499.364 153.629,457.364 158.5,415.5C 160.428,413.526 162.761,412.026 165.5,411C 177.639,407.708 189.639,404.041 201.5,400C 208.553,396.473 215.553,392.973 222.5,389.5 Z"/></g>
<g><path style="opacity:1" fill="#979994" d="M 526.5,389.5 C 525.833,394.5 525.167,399.5 524.5,404.5C 524.172,399.125 524.505,393.792 525.5,388.5C 526.107,388.624 526.44,388.957 526.5,389.5 Z"/></g>
<g><path style="opacity:1" fill="#e9e6e4" d="M 526.5,389.5 C 535.659,394.245 544.992,398.745 554.5,403C 565.066,405.224 575.399,408.224 585.5,412C 588.115,412.612 589.781,414.112 590.5,416.5C 592.295,431.454 593.629,446.454 594.5,461.5C 597.242,489.767 598.076,518.1 597,546.5C 595.714,551.096 594.881,555.763 594.5,560.5C 542.167,560.5 489.833,560.5 437.5,560.5C 438.343,557.484 439.843,554.817 442,552.5C 447.5,547 453,541.5 458.5,536C 468.839,528.898 478.339,520.732 487,511.5C 510.693,479.93 523.193,444.264 524.5,404.5C 525.167,399.5 525.833,394.5 526.5,389.5 Z"/></g>
<g><path style="opacity:0.039" fill="#1c0c00" d="M 196.5,395.5 C 195.508,395.328 194.842,395.662 194.5,396.5C 192.653,396.766 191.986,396.432 192.5,395.5C 193.995,394.295 195.328,394.295 196.5,395.5 Z"/></g>
<g><path style="opacity:0.039" fill="#1c0c00" d="M 552.5,395.5 C 554.089,394.379 555.756,394.546 557.5,396C 556.552,396.483 555.552,396.649 554.5,396.5C 554.158,395.662 553.492,395.328 552.5,395.5 Z"/></g>
<g><path style="opacity:1" fill="#713b26" d="M 487.5,384.5 C 489.035,391.264 489.702,398.264 489.5,405.5C 489.499,410.678 489.166,415.678 488.5,420.5C 488.642,408.482 488.309,396.482 487.5,384.5 Z"/></g>
<g><path style="opacity:0.024" fill="#1b1000" d="M 184.5,399.5 C 182.801,399.66 181.134,399.494 179.5,399C 182.442,397.876 185.442,397.542 188.5,398C 186.942,398.21 185.609,398.71 184.5,399.5 Z"/></g>
<g><path style="opacity:0.039" fill="#191000" d="M 573.5,400.5 C 571.833,400.5 570.167,400.5 568.5,400.5C 566.046,399.379 563.379,398.546 560.5,398C 565.12,397.742 569.454,398.576 573.5,400.5 Z"/></g>
<g><path style="opacity:0.039" fill="#1b0e00" d="M 172.5,402.5 C 171.209,402.263 170.209,402.596 169.5,403.5C 168.209,403.263 167.209,403.596 166.5,404.5C 165.5,404.5 164.5,404.5 163.5,404.5C 167.079,402.031 171.079,400.864 175.5,401C 174.263,401.232 173.263,401.732 172.5,402.5 Z"/></g>
<g><path style="opacity:0.024" fill="#1d0d00" d="M 573.5,400.5 C 577.693,400.953 581.693,402.119 585.5,404C 584.552,404.483 583.552,404.649 582.5,404.5C 581.791,403.596 580.791,403.263 579.5,403.5C 578.791,402.596 577.791,402.263 576.5,402.5C 575.5,401.833 574.5,401.167 573.5,400.5 Z"/></g>
<g><path style="opacity:0.024" fill="#191100" d="M 163.5,404.5 C 163.5,404.833 163.5,405.167 163.5,405.5C 162.508,405.328 161.842,405.662 161.5,406.5C 160.508,406.328 159.842,406.662 159.5,407.5C 157.621,407.607 157.288,407.107 158.5,406C 160.025,404.991 161.692,404.491 163.5,404.5 Z"/></g>
<g><path style="opacity:1" fill="#763e29" d="M 261.5,383.5 C 260.691,395.482 260.358,407.482 260.5,419.5C 259.834,414.845 259.501,410.012 259.5,405C 259.327,397.604 259.993,390.438 261.5,383.5 Z"/></g>
<g><path style="opacity:1" fill="#a8a7a4" d="M 222.5,389.5 C 222.56,388.957 222.893,388.624 223.5,388.5C 224.497,395.468 224.83,402.468 224.5,409.5C 223.833,402.833 223.167,396.167 222.5,389.5 Z"/></g>
<g><path style="opacity:0.039" fill="#1b0c00" d="M 604.5,415.5 C 606.338,414.322 608.005,414.655 609.5,416.5C 608.5,416.5 607.5,416.5 606.5,416.5C 606.158,415.662 605.492,415.328 604.5,415.5 Z"/></g>
<g><path style="opacity:0.016" fill="#210b00" d="M 144.5,415.5 C 143.508,415.328 142.842,415.662 142.5,416.5C 141.5,416.5 140.5,416.5 139.5,416.5C 140.995,414.655 142.662,414.322 144.5,415.5 Z"/></g>
<g><path style="opacity:0.024" fill="#1d0d00" d="M 609.5,417.5 C 609.5,417.167 609.5,416.833 609.5,416.5C 611.308,416.491 612.975,416.991 614.5,418C 613.552,418.483 612.552,418.649 611.5,418.5C 611.158,417.662 610.492,417.328 609.5,417.5 Z"/></g>
<g><path style="opacity:0.016" fill="#1f0900" d="M 139.5,416.5 C 139.5,416.833 139.5,417.167 139.5,417.5C 138.508,417.328 137.842,417.662 137.5,418.5C 136.448,418.649 135.448,418.483 134.5,418C 136.025,416.991 137.692,416.491 139.5,416.5 Z"/></g>
<g><path style="opacity:1" fill="#014411" d="M 158.5,415.5 C 153.629,457.364 151.462,499.364 152,541.5C 152.326,547.926 153.159,554.26 154.5,560.5C 144.833,560.5 135.167,560.5 125.5,560.5C 125.234,518.075 127.068,475.742 131,433.5C 131.561,431.275 132.561,429.275 134,427.5C 141.989,423.089 150.156,419.089 158.5,415.5 Z"/></g>
<g><path style="opacity:1" fill="#014511" d="M 592.5,416.5 C 599.881,419.905 607.215,423.405 614.5,427C 616.102,428.935 617.269,431.101 618,433.5C 621.675,475.759 623.509,518.093 623.5,560.5C 613.833,560.5 604.167,560.5 594.5,560.5C 594.881,555.763 595.714,551.096 597,546.5C 598.076,518.1 597.242,489.767 594.5,461.5C 595.163,459.359 595.497,457.025 595.5,454.5C 594.334,441.838 593.334,429.172 592.5,416.5 Z"/></g>
<g><path style="opacity:1" fill="#003003" d="M 590.5,416.5 C 591.167,416.5 591.833,416.5 592.5,416.5C 593.334,429.172 594.334,441.838 595.5,454.5C 595.497,457.025 595.163,459.359 594.5,461.5C 593.629,446.454 592.295,431.454 590.5,416.5 Z"/></g>
<g><path style="opacity:0.024" fill="#1e0f00" d="M 626.5,432.5 C 625.833,432.5 625.167,432.5 624.5,432.5C 624.638,428.714 625.305,428.714 626.5,432.5 Z"/></g>
<g><path style="opacity:0.016" fill="#210a00" d="M 122.5,432.5 C 122.5,432.833 122.5,433.167 122.5,433.5C 121.833,433.5 121.5,433.833 121.5,434.5C 119.207,433.699 119.54,433.032 122.5,432.5 Z"/></g>
<g><path style="opacity:0.039" fill="#180b00" d="M 626.5,433.5 C 626.5,433.167 626.5,432.833 626.5,432.5C 629.46,433.032 629.793,433.699 627.5,434.5C 626.833,434.5 626.5,434.167 626.5,433.5 Z"/></g>
<g><path style="opacity:0.039" fill="#170900" d="M 117.5,436.5 C 116.833,436.5 116.5,436.833 116.5,437.5C 115.508,437.328 114.842,437.662 114.5,438.5C 113.508,438.328 112.842,438.662 112.5,439.5C 111.508,439.328 110.842,439.662 110.5,440.5C 109.5,440.5 108.5,440.5 107.5,440.5C 110.276,438.608 113.276,436.941 116.5,435.5C 117.107,435.624 117.44,435.957 117.5,436.5 Z"/></g>
<g><path style="opacity:0.008" fill="#1c0600" d="M 636.5,439.5 C 636.158,438.662 635.492,438.328 634.5,438.5C 633.031,436.895 633.365,436.395 635.5,437C 636.833,437.667 638.167,438.333 639.5,439C 638.552,439.483 637.552,439.649 636.5,439.5 Z"/></g>
<g><path style="opacity:0.024" fill="#1b1000" d="M 641.5,441.5 C 643.338,440.322 645.005,440.655 646.5,442.5C 645.5,442.5 644.5,442.5 643.5,442.5C 643.158,441.662 642.492,441.328 641.5,441.5 Z"/></g>
<g><path style="opacity:0.039" fill="#1d0d00" d="M 107.5,440.5 C 107.5,440.833 107.5,441.167 107.5,441.5C 106.508,441.328 105.842,441.662 105.5,442.5C 104.5,442.5 103.5,442.5 102.5,442.5C 103.78,441.069 105.447,440.402 107.5,440.5 Z"/></g>
<g><path style="opacity:1" fill="#a4573f" d="M 120.5,560.5 C 117.5,560.5 114.5,560.5 111.5,560.5C 111.984,554.3 111.151,548.3 109,542.5C 102.616,532.07 97.6162,521.07 94,509.5C 93.3333,505.5 93.3333,501.5 94,497.5C 96.3333,490.833 98.6667,484.167 101,477.5C 102.126,469.955 101.46,462.621 99,455.5C 97.1516,452.959 94.6516,451.959 91.5,452.5C 103.174,450.174 114.174,445.84 124.5,439.5C 124.833,441.833 125.167,444.167 125.5,446.5C 122.223,484.424 120.557,522.424 120.5,560.5 Z"/></g>
<g><path style="opacity:1" fill="#a3563e" d="M 656.5,452.5 C 653.956,452.104 651.789,452.771 650,454.5C 646.116,462.865 645.45,471.531 648,480.5C 650,485.833 652,491.167 654,496.5C 654.663,502.548 654.33,508.548 653,514.5C 649.194,523.446 644.861,532.112 640,540.5C 637.48,546.932 636.314,553.599 636.5,560.5C 633.833,560.5 631.167,560.5 628.5,560.5C 628.209,522.942 626.543,485.442 623.5,448C 623.833,445.167 624.167,442.333 624.5,439.5C 634.47,445.817 645.137,450.15 656.5,452.5 Z"/></g>
<g><path style="opacity:0.016" fill="#1f0c00" d="M 102.5,442.5 C 102.5,442.833 102.5,443.167 102.5,443.5C 101.209,443.263 100.209,443.596 99.5,444.5C 97.8333,444.5 96.1667,444.5 94.5,444.5C 96.9052,443.232 99.5718,442.565 102.5,442.5 Z"/></g>
<g><path style="opacity:0.039" fill="#1c0d00" d="M 646.5,443.5 C 646.5,443.167 646.5,442.833 646.5,442.5C 649.428,442.565 652.095,443.232 654.5,444.5C 652.833,444.5 651.167,444.5 649.5,444.5C 648.791,443.596 647.791,443.263 646.5,443.5 Z"/></g>
<g><path style="opacity:0.039" fill="#180e00" d="M 654.5,444.5 C 658.622,444.697 662.622,445.53 666.5,447C 665.207,447.49 663.873,447.657 662.5,447.5C 661.432,446.566 660.099,446.232 658.5,446.5C 657.167,445.833 655.833,445.167 654.5,444.5 Z"/></g>
<g><path style="opacity:0.039" fill="#1c0d00" d="M 94.5,444.5 C 92.8333,445.167 91.1667,445.833 89.5,446.5C 87.901,446.232 86.5676,446.566 85.5,447.5C 84.209,447.263 83.209,447.596 82.5,448.5C 81.209,448.263 80.209,448.596 79.5,449.5C 78.448,449.649 77.448,449.483 76.5,449C 82.1952,446.243 88.1952,444.743 94.5,444.5 Z"/></g>
<g><path style="opacity:0.024" fill="#1d0d00" d="M 669.5,449.5 C 671.089,448.379 672.756,448.546 674.5,450C 673.552,450.483 672.552,450.649 671.5,450.5C 671.158,449.662 670.492,449.328 669.5,449.5 Z"/></g>
<g><path style="opacity:1" fill="#b76649" d="M 656.5,452.5 C 666.773,454.63 676.439,458.463 685.5,464C 695.297,471.463 704.13,479.963 712,489.5C 729.316,510.136 740.149,533.803 744.5,560.5C 708.5,560.5 672.5,560.5 636.5,560.5C 636.314,553.599 637.48,546.932 640,540.5C 644.861,532.112 649.194,523.446 653,514.5C 654.33,508.548 654.663,502.548 654,496.5C 652,491.167 650,485.833 648,480.5C 645.45,471.531 646.116,462.865 650,454.5C 651.789,452.771 653.956,452.104 656.5,452.5 Z"/></g>
<g><path style="opacity:1" fill="#b76649" d="M 91.5,452.5 C 94.6516,451.959 97.1516,452.959 99,455.5C 101.46,462.621 102.126,469.955 101,477.5C 98.6667,484.167 96.3333,490.833 94,497.5C 93.3333,501.5 93.3333,505.5 94,509.5C 97.6162,521.07 102.616,532.07 109,542.5C 111.151,548.3 111.984,554.3 111.5,560.5C 76.1667,560.5 40.8333,560.5 5.5,560.5C 5.3776,555.768 5.8776,551.102 7,546.5C 17.2139,514.564 35.0473,487.73 60.5,466C 69.8858,459.307 80.2192,454.807 91.5,452.5 Z"/></g>
<g><path style="opacity:0.024" fill="#1a1100" d="M 689.5,458.5 C 688.833,458.5 688.167,458.5 687.5,458.5C 686.939,455.813 687.606,455.813 689.5,458.5 Z"/></g>
<g><path style="opacity:0.008" fill="#1e0a00" d="M 689.5,459.5 C 689.5,459.167 689.5,458.833 689.5,458.5C 692.46,459.032 692.793,459.699 690.5,460.5C 689.833,460.5 689.5,460.167 689.5,459.5 Z"/></g>
<g><path style="opacity:0.024" fill="#1d0f00" d="M 59.5,459.5 C 58.8333,459.5 58.5,459.833 58.5,460.5C 56.0248,460.253 56.0248,459.587 58.5,458.5C 59.1067,458.624 59.44,458.957 59.5,459.5 Z"/></g>
<g><path style="opacity:0.016" fill="#210800" d="M 693.5,462.5 C 694.497,461.287 695.497,461.454 696.5,463C 695.906,463.464 695.239,463.631 694.5,463.5C 693.833,463.5 693.5,463.167 693.5,462.5 Z"/></g>
<g><path style="opacity:0.016" fill="#210700" d="M 55.5,462.5 C 54.8333,462.5 54.5,462.833 54.5,463.5C 52.0248,463.253 52.0248,462.587 54.5,461.5C 55.1067,461.624 55.44,461.957 55.5,462.5 Z"/></g>
<g><path style="opacity:1" fill="#4b2513" d="M 322.5,466.5 C 306.464,465.849 290.798,466.516 275.5,468.5C 274.596,467.791 274.263,466.791 274.5,465.5C 290.675,465.17 306.675,465.504 322.5,466.5 Z"/></g>
<g><path style="opacity:0.008" fill="#1b0100" d="M 38.5,479.5 C 37.8333,479.5 37.5,479.833 37.5,480.5C 36.2875,479.503 36.4542,478.503 38,477.5C 38.4643,478.094 38.631,478.761 38.5,479.5 Z"/></g>
<g><path style="opacity:0.004" fill="#140100" d="M 715.5,484.5 C 714.833,484.5 714.5,484.167 714.5,483.5C 713.833,483.5 713.5,483.167 713.5,482.5C 712.833,482.5 712.5,482.167 712.5,481.5C 712.369,480.761 712.536,480.094 713,479.5C 714,480.5 715,481.5 716,482.5C 716.692,483.437 716.525,484.103 715.5,484.5 Z"/></g>
<g><path style="opacity:0.008" fill="#140000" d="M 719.5,489.5 C 718.833,489.5 718.5,489.167 718.5,488.5C 718.747,486.025 719.413,486.025 720.5,488.5C 720.376,489.107 720.043,489.44 719.5,489.5 Z"/></g>
<g><path style="opacity:0.004" fill="#100000" d="M 724.5,494.5 C 723.833,494.167 723.167,493.833 722.5,493.5C 721.833,493.5 721.5,493.167 721.5,492.5C 721.369,491.761 721.536,491.094 722,490.5C 723.481,491.471 724.315,492.804 724.5,494.5 Z"/></g>
<g><path style="opacity:0.004" fill="#000000" d="M 724.5,494.5 C 727.187,496.394 727.187,497.061 724.5,496.5C 724.5,495.833 724.5,495.167 724.5,494.5 Z"/></g>
<g><path style="opacity:0.004" fill="#000000" d="M 727.5,500.5 C 727.747,498.025 728.413,498.025 729.5,500.5C 729.03,501.463 728.363,501.463 727.5,500.5 Z"/></g>
<g><path style="opacity:0.004" fill="#000000" d="M 734.5,509.5 C 733.833,509.167 733.167,508.833 732.5,508.5C 733.301,506.207 733.968,506.54 734.5,509.5 Z"/></g>
<g><path style="opacity:0.004" fill="#000000" d="M 734.5,509.5 C 735.338,509.842 735.672,510.508 735.5,511.5C 734.662,511.158 734.328,510.492 734.5,509.5 Z"/></g>
<g><path style="opacity:0.004" fill="#000000" d="M 735.5,511.5 C 736.338,511.842 736.672,512.508 736.5,513.5C 735.662,513.158 735.328,512.492 735.5,511.5 Z"/></g>
<g><path style="opacity:0.004" fill="#000000" d="M 736.5,513.5 C 737.167,513.5 737.5,513.833 737.5,514.5C 737.167,514.167 736.833,513.833 736.5,513.5 Z"/></g>
<g><path style="opacity:0.004" fill="#000000" d="M 737.5,514.5 C 738.338,514.842 738.672,515.508 738.5,516.5C 737.662,516.158 737.328,515.492 737.5,514.5 Z"/></g>
<g><path style="opacity:0.004" fill="#000000" d="M 738.5,516.5 C 739.338,516.842 739.672,517.508 739.5,518.5C 738.662,518.158 738.328,517.492 738.5,516.5 Z"/></g>
<g><path style="opacity:0.004" fill="#000000" d="M 739.5,518.5 C 740.338,518.842 740.672,519.508 740.5,520.5C 739.662,520.158 739.328,519.492 739.5,518.5 Z"/></g>
<g><path style="opacity:0.004" fill="#000000" d="M 740.5,520.5 C 741.404,521.209 741.737,522.209 741.5,523.5C 740.596,522.791 740.263,521.791 740.5,520.5 Z"/></g>
<g><path style="opacity:0.016" fill="#240300" d="M 8.5,524.5 C 8.16667,524.5 7.83333,524.5 7.5,524.5C 7.83333,521.833 8.16667,521.833 8.5,524.5 Z"/></g>
<g><path style="opacity:0.004" fill="#000000" d="M 741.5,523.5 C 742.338,523.842 742.672,524.508 742.5,525.5C 741.662,525.158 741.328,524.492 741.5,523.5 Z"/></g>
<g><path style="opacity:0.016" fill="#1f0300" d="M 7.5,524.5 C 7.63101,525.239 7.46434,525.906 7,526.5C 6.30831,525.563 6.47498,524.897 7.5,524.5 Z"/></g>
<g><path style="opacity:0.004" fill="#000000" d="M 742.5,525.5 C 743.338,525.842 743.672,526.508 743.5,527.5C 742.662,527.158 742.328,526.492 742.5,525.5 Z"/></g>
<g><path style="opacity:0.016" fill="#270500" d="M 6.5,529.5 C 6.16667,529.5 5.83333,529.5 5.5,529.5C 5.83333,526.833 6.16667,526.833 6.5,529.5 Z"/></g>
<g><path style="opacity:0.004" fill="#000000" d="M 743.5,527.5 C 744.404,528.209 744.737,529.209 744.5,530.5C 743.596,529.791 743.263,528.791 743.5,527.5 Z"/></g>
<g><path style="opacity:0.016" fill="#240300" d="M 5.5,529.5 C 5.63101,530.239 5.46434,530.906 5,531.5C 4.30831,530.563 4.47498,529.897 5.5,529.5 Z"/></g>
<g><path style="opacity:0.004" fill="#000000" d="M 744.5,530.5 C 745.338,530.842 745.672,531.508 745.5,532.5C 744.662,532.158 744.328,531.492 744.5,530.5 Z"/></g>
<g><path style="opacity:0.004" fill="#000000" d="M 745.5,532.5 C 746.404,533.209 746.737,534.209 746.5,535.5C 745.596,534.791 745.263,533.791 745.5,532.5 Z"/></g>
<g><path style="opacity:0.004" fill="#000000" d="M 746.5,535.5 C 747.404,536.209 747.737,537.209 747.5,538.5C 746.596,537.791 746.263,536.791 746.5,535.5 Z"/></g>
<g><path style="opacity:0.004" fill="#000000" d="M 747.5,538.5 C 748.434,539.568 748.768,540.901 748.5,542.5C 747.566,541.432 747.232,540.099 747.5,538.5 Z"/></g>
<g><path style="opacity:0.004" fill="#000000" d="M 748.5,542.5 C 748.833,542.5 749.167,542.5 749.5,542.5C 749.5,543.5 749.5,544.5 749.5,545.5C 748.596,544.791 748.263,543.791 748.5,542.5 Z"/></g>
<g><path style="opacity:0.016" fill="#1e0200" d="M -0.5,544.5 C 0.451145,545.919 0.784479,547.585 0.5,549.5C 0.166667,549.5 -0.166667,549.5 -0.5,549.5C -0.5,547.833 -0.5,546.167 -0.5,544.5 Z"/></g>
</svg>
