<?xml version="1.0" encoding="UTF-8"?>
<!DOCTYPE svg PUBLIC "-//W3C//DTD SVG 1.1//EN" "http://www.w3.org/Graphics/SVG/1.1/DTD/svg11.dtd">
<svg xmlns="http://www.w3.org/2000/svg" version="1.1" width="750px" height="614px" style="shape-rendering:geometricPrecision; text-rendering:geometricPrecision; image-rendering:optimizeQuality; fill-rule:evenodd; clip-rule:evenodd" xmlns:xlink="http://www.w3.org/1999/xlink">
<g><path style="opacity:0.014" fill="#230200" d="M 366.5,-0.5 C 369.5,-0.5 372.5,-0.5 375.5,-0.5C 372.5,0.833333 369.5,0.833333 366.5,-0.5 Z"/></g>
<g><path style="opacity:0.014" fill="#230200" d="M 376.5,-0.5 C 377.167,-0.5 377.833,-0.5 378.5,-0.5C 377.833,0.833333 377.167,0.833333 376.5,-0.5 Z"/></g>
<g><path style="opacity:0.963" fill="#1d0d02" d="M 335.5,-0.5 C 337.833,-0.5 340.167,-0.5 342.5,-0.5C 342.5,0.166667 342.833,0.5 343.5,0.5C 343.5,0.166667 343.5,-0.166667 343.5,-0.5C 344.833,-0.5 346.167,-0.5 347.5,-0.5C 351.419,1.20555 355.752,2.87222 360.5,4.5C 366.155,1.69169 372.155,0.858359 378.5,2C 379.333,2.83333 380.167,3.66667 381,4.5C 382.396,2.47316 384.062,2.13983 386,3.5C 390.604,1.14703 395.271,1.14703 400,3.5C 400.414,3.04265 400.914,2.70931 401.5,2.5C 403.522,4.62505 405.855,6.29172 408.5,7.5C 408.389,9.64769 409.056,9.98103 410.5,8.5C 411.182,9.24269 411.849,9.90935 412.5,10.5C 415.937,12.3291 419.937,13.4957 424.5,14C 425.333,14.8333 426.167,15.6667 427,16.5C 428.019,15.3128 429.186,14.3128 430.5,13.5C 431.967,14.6953 433.467,14.6953 435,13.5C 438.89,14.6778 442.556,16.3444 446,18.5C 446.414,18.0426 446.914,17.7093 447.5,17.5C 449.247,19.9408 451.08,22.2741 453,24.5C 453.464,23.9056 453.631,23.2389 453.5,22.5C 455.141,23.147 456.474,24.147 457.5,25.5C 457.5,26.1667 457.833,26.5 458.5,26.5C 459.777,28.95 461.277,31.2833 463,33.5C 463.368,32.09 464.201,31.09 465.5,30.5C 466.325,34.1224 466.825,37.789 467,41.5C 467.333,38.1667 467.667,34.8333 468,31.5C 468.212,34.7577 468.712,37.9243 469.5,41C 469.043,41.414 468.709,41.914 468.5,42.5C 469.857,44.5654 471.19,46.5654 472.5,48.5C 472.231,50.4286 472.731,52.0953 474,53.5C 473.981,51.8925 473.815,50.2259 473.5,48.5C 473.833,48.5 474.167,48.5 474.5,48.5C 476.48,52.0706 478.314,55.7373 480,59.5C 480.92,62.1013 481.587,64.7679 482,67.5C 483.692,69.3586 485.192,71.3586 486.5,73.5C 485.248,75.7354 484.748,78.0687 485,80.5C 486.385,81.5505 487.385,82.8839 488,84.5C 488.691,82.1088 489.691,82.1088 491,84.5C 490.847,88.4475 492.014,91.7808 494.5,94.5C 495.699,98.8938 495.032,103.06 492.5,107C 493.756,107.417 494.423,108.25 494.5,109.5C 493.751,110.531 493.085,111.698 492.5,113C 493.697,115.015 495.03,116.849 496.5,118.5C 496.5,121.167 496.5,123.833 496.5,126.5C 495.596,127.209 495.263,128.209 495.5,129.5C 494.662,129.842 494.328,130.508 494.5,131.5C 493.662,131.842 493.328,132.508 493.5,133.5C 492.876,133.917 492.543,134.584 492.5,135.5C 493.422,141.321 494.422,146.987 495.5,152.5C 496.753,170.171 496.753,187.837 495.5,205.5C 494.224,206.386 494.224,207.386 495.5,208.5C 496.107,208.376 496.44,208.043 496.5,207.5C 497.791,207.737 498.791,207.404 499.5,206.5C 506.613,205.062 511.947,207.395 515.5,213.5C 516.342,218.787 516.676,224.12 516.5,229.5C 515.566,230.568 515.232,231.901 515.5,233.5C 514.566,234.568 514.232,235.901 514.5,237.5C 513.596,238.209 513.263,239.209 513.5,240.5C 512.069,241.78 511.402,243.447 511.5,245.5C 510.596,246.209 510.263,247.209 510.5,248.5C 508.926,250.102 508.259,252.102 508.5,254.5C 507.526,257.298 506.86,260.298 506.5,263.5C 507.818,268.757 508.485,274.09 508.5,279.5C 507.662,279.842 507.328,280.508 507.5,281.5C 506.662,281.842 506.328,282.508 506.5,283.5C 501.911,286.641 496.911,287.308 491.5,285.5C 491.027,284.094 490.027,283.427 488.5,283.5C 488.5,282.833 488.167,282.5 487.5,282.5C 487.217,281.711 486.717,281.044 486,280.5C 484.162,287.852 482.329,295.186 480.5,302.5C 479.596,303.209 479.263,304.209 479.5,305.5C 478.596,306.209 478.263,307.209 478.5,308.5C 477.596,309.209 477.263,310.209 477.5,311.5C 476.662,311.842 476.328,312.508 476.5,313.5C 475.069,314.78 474.402,316.447 474.5,318.5C 473.662,318.842 473.328,319.508 473.5,320.5C 472.662,320.842 472.328,321.508 472.5,322.5C 471.662,322.842 471.328,323.508 471.5,324.5C 470.662,324.842 470.328,325.508 470.5,326.5C 469.094,326.973 468.427,327.973 468.5,329.5C 467.662,329.842 467.328,330.508 467.5,331.5C 466.833,331.5 466.5,331.833 466.5,332.5C 465.778,332.918 465.278,333.584 465,334.5C 462.865,359.672 463.032,384.672 465.5,409.5C 465.194,412.385 465.527,415.052 466.5,417.5C 466.328,418.492 466.662,419.158 467.5,419.5C 468.5,421.167 469.833,422.5 471.5,423.5C 471.5,424.167 471.833,424.5 472.5,424.5C 473.29,425.401 474.29,426.068 475.5,426.5C 475.5,427.167 475.833,427.5 476.5,427.5C 478.336,429.588 480.669,430.921 483.5,431.5C 484.548,433.933 485.214,433.933 485.5,431.5C 488.165,425.337 492.832,423.17 499.5,425C 506.833,428 514.167,431 521.5,434C 530.063,438.781 538.73,443.281 547.5,447.5C 549.509,449.065 551.843,450.065 554.5,450.5C 555.209,451.404 556.209,451.737 557.5,451.5C 566.699,454.307 576.032,457.14 585.5,460C 596.619,465.976 607.786,471.809 619,477.5C 620.795,480.099 622.295,482.766 623.5,485.5C 623.5,486.167 623.833,486.5 624.5,486.5C 626.336,488.588 628.669,489.921 631.5,490.5C 634.99,493.415 638.99,495.582 643.5,497C 661.648,499.915 678.315,506.415 693.5,516.5C 693.5,517.167 693.833,517.5 694.5,517.5C 700.5,522.833 706.167,528.5 711.5,534.5C 711.5,535.167 711.833,535.5 712.5,535.5C 714.817,539.146 717.484,542.48 720.5,545.5C 720.5,546.167 720.833,546.5 721.5,546.5C 733.734,563.634 742.734,582.3 748.5,602.5C 748.205,604.735 748.539,606.735 749.5,608.5C 749.5,610.167 749.5,611.833 749.5,613.5C 747.5,613.5 745.5,613.5 743.5,613.5C 741.552,595.491 735.719,578.824 726,563.5C 714.983,546.148 701.483,530.982 685.5,518C 675.986,511.908 665.653,508.074 654.5,506.5C 643.989,503.759 633.989,499.426 624.5,493.5C 624.167,495 623.833,496.5 623.5,498C 626.757,536.429 628.423,574.929 628.5,613.5C 626.833,613.5 625.167,613.5 623.5,613.5C 623.974,570.338 621.807,527.338 617,484.5C 615.167,482.667 613.333,480.833 611.5,479C 605.019,476.843 598.852,474.009 593,470.5C 594.066,487.142 595.399,503.808 597,520.5C 599.387,551.558 598.887,582.558 595.5,613.5C 593.833,613.5 592.167,613.5 590.5,613.5C 591.657,607.572 592.324,601.572 592.5,595.5C 595.039,552.665 593.206,509.999 587,467.5C 576.289,462.695 565.123,459.195 553.5,457C 544.041,452.437 534.708,447.604 525.5,442.5C 526.078,479.795 517.578,514.795 500,547.5C 492.95,559.389 484.117,569.889 473.5,579C 466.729,583.707 460.396,588.874 454.5,594.5C 447.75,599.914 442.083,606.247 437.5,613.5C 435.833,613.5 434.167,613.5 432.5,613.5C 434.151,609.531 436.318,605.865 439,602.5C 454,588.833 469,575.167 484,561.5C 502.729,537.334 514.062,510 518,479.5C 519.975,466.2 520.475,452.867 519.5,439.5C 511.803,436.065 503.97,433.065 496,430.5C 493.055,429.944 491.555,431.11 491.5,434C 499.722,488.685 482.722,533.685 440.5,569C 428.452,577.375 417.285,586.875 407,597.5C 402.884,602.445 399.384,607.779 396.5,613.5C 394.833,613.5 393.167,613.5 391.5,613.5C 394.393,606.049 398.56,599.382 404,593.5C 416.517,581.503 429.683,570.336 443.5,560C 456.313,548.698 466.646,535.531 474.5,520.5C 457.843,519.334 441.177,519.167 424.5,520C 414.361,521.485 405.861,525.985 399,533.5C 398.333,532.833 398.333,532.167 399,531.5C 406.233,522.94 415.4,517.773 426.5,516C 443.51,515.833 460.51,515.333 477.5,514.5C 487.914,490.772 491.247,466.105 487.5,440.5C 480.633,437.29 474.299,433.29 468.5,428.5C 469.072,431.689 469.072,435.023 468.5,438.5C 466.282,437.076 464.782,435.076 464,432.5C 459.262,412.122 457.095,391.456 457.5,370.5C 457.832,361.475 457.498,352.475 456.5,343.5C 443.403,353.096 431.403,363.929 420.5,376C 410.02,383.401 398.354,387.735 385.5,389C 374.833,389.667 364.167,389.667 353.5,389C 345.063,387.947 337.396,384.947 330.5,380C 321.782,372.948 312.782,366.281 303.5,360C 297.385,355.186 291.551,350.019 286,344.5C 285.5,359.83 285.333,375.163 285.5,390.5C 285.228,405.3 283.728,419.966 281,434.5C 279.507,438.231 277.007,439.898 273.5,439.5C 275.992,436.055 276.992,432.389 276.5,428.5C 271.75,432.749 266.583,436.416 261,439.5C 257.063,466.233 260.896,491.733 272.5,516C 291.21,516.066 309.877,516.733 328.5,518C 337.265,520.213 344.598,524.713 350.5,531.5C 350.333,531.833 350.167,532.167 350,532.5C 343.431,526.132 335.597,522.299 326.5,521C 309.503,520.5 292.503,520.333 275.5,520.5C 280.199,530.718 286.365,540.052 294,548.5C 306.146,560.972 319.312,572.139 333.5,582C 343.663,590.978 351.663,601.478 357.5,613.5C 355.5,613.5 353.5,613.5 351.5,613.5C 349.427,607.576 346.26,602.243 342,597.5C 329.483,585.503 316.317,574.336 302.5,564C 263.869,527.775 248.536,483.442 256.5,431C 255.333,430.833 254.167,430.667 253,430.5C 245.03,433.065 237.197,436.065 229.5,439.5C 227.204,474.726 234.037,508.059 250,539.5C 254.609,547.107 259.609,554.441 265,561.5C 280,575.167 295,588.833 310,602.5C 312.682,605.865 314.849,609.531 316.5,613.5C 314.5,613.5 312.5,613.5 310.5,613.5C 306.664,605.99 301.331,599.656 294.5,594.5C 258.011,569.234 235.845,534.567 228,490.5C 225.264,474.944 223.764,459.277 223.5,443.5C 214.775,447.361 206.108,451.528 197.5,456C 187.126,458.844 176.793,461.844 166.5,465C 164.413,465.792 162.579,466.959 161,468.5C 155.288,510.345 153.454,552.345 155.5,594.5C 155.198,597.059 155.532,599.393 156.5,601.5C 157.021,605.481 157.354,609.481 157.5,613.5C 156.167,613.5 154.833,613.5 153.5,613.5C 148.905,578.924 148.405,544.258 152,509.5C 153.372,498.689 154.539,487.855 155.5,477C 155.167,475.167 154.833,473.333 154.5,471.5C 148.833,474 143.167,476.5 137.5,479C 135,480.167 133.167,482 132,484.5C 129.746,498.388 128.579,512.388 128.5,526.5C 127.139,537.306 126.472,548.306 126.5,559.5C 125.514,577.423 125.181,595.423 125.5,613.5C 123.833,613.5 122.167,613.5 120.5,613.5C 120.315,575.729 121.982,538.062 125.5,500.5C 125.167,498.167 124.833,495.833 124.5,493.5C 114.519,499.82 103.852,504.153 92.5,506.5C 78.6192,509.108 66.2858,514.941 55.5,524C 33.2508,544.326 17.4174,568.826 8,597.5C 6.45373,602.73 5.62039,608.063 5.5,613.5C 3.5,613.5 1.5,613.5 -0.5,613.5C -0.5,611.833 -0.5,610.167 -0.5,608.5C 0.784567,605.411 1.45123,602.078 1.5,598.5C 2.92381,596.485 3.59047,594.152 3.5,591.5C 5.01977,589.11 6.01977,586.443 6.5,583.5C 13.2945,568.577 21.6279,554.577 31.5,541.5C 32.1667,541.5 32.5,541.167 32.5,540.5C 49.0469,517.549 71.3802,503.715 99.5,499C 108.504,496.331 116.837,492.331 124.5,487C 123.833,486.667 123.167,486.333 122.5,486C 123.701,485.097 124.535,483.931 125,482.5C 125.333,483.167 125.667,483.833 126,484.5C 127.123,481.751 128.623,479.251 130.5,477C 141.625,471.604 152.625,465.937 163.5,460C 173.804,456.841 184.138,453.841 194.5,451C 205.625,445.604 216.625,439.937 227.5,434C 234.833,431 242.167,428 249.5,425C 254.937,423.345 259.103,424.845 262,429.5C 262.333,428.833 262.667,428.167 263,427.5C 263.671,428.252 264.504,428.586 265.5,428.5C 265.5,428.833 265.5,429.167 265.5,429.5C 267.027,429.573 268.027,428.906 268.5,427.5C 269.167,427.5 269.5,427.167 269.5,426.5C 271.027,426.573 272.027,425.906 272.5,424.5C 273.167,424.5 273.5,424.167 273.5,423.5C 275.129,422.375 276.629,421.041 278,419.5C 278.499,415.848 278.665,412.182 278.5,408.5C 279.833,384.833 279.833,361.167 278.5,337.5C 278.672,336.508 278.338,335.842 277.5,335.5C 275.735,332.291 273.735,329.291 271.5,326.5C 269.07,320.643 266.403,314.977 263.5,309.5C 263.405,307.214 262.738,305.214 261.5,303.5C 261.737,302.209 261.404,301.209 260.5,300.5C 260.405,298.214 259.738,296.214 258.5,294.5C 258.167,293.167 257.833,293.167 257.5,294.5C 256.833,294.5 256.5,294.833 256.5,295.5C 255.508,295.328 254.842,295.662 254.5,296.5C 253.508,296.328 252.842,296.662 252.5,297.5C 248.393,297.877 244.726,296.877 241.5,294.5C 241.5,293.833 241.167,293.5 240.5,293.5C 239.199,292.118 238.366,290.452 238,288.5C 237.862,282.419 237.196,276.419 236,270.5C 233.058,265.594 229.891,260.928 226.5,256.5C 224.613,252.158 222.946,247.825 221.5,243.5C 220.901,236.609 221.735,229.942 224,223.5C 227.231,218.634 231.731,216.634 237.5,217.5C 238.833,218.833 240.167,218.833 241.5,217.5C 242.833,216.167 242.833,214.833 241.5,213.5C 241.405,211.214 240.738,209.214 239.5,207.5C 237.818,199.38 236.152,191.38 234.5,183.5C 234.179,172.252 234.513,161.085 235.5,150C 234.934,149.005 234.267,148.172 233.5,147.5C 233.068,146.29 232.401,145.29 231.5,144.5C 230.708,140.789 229.708,137.122 228.5,133.5C 229.411,129.844 230.744,126.344 232.5,123C 230.65,116.271 230.15,109.437 231,102.5C 232.92,96.3338 235.587,90.6672 239,85.5C 239.333,86.1667 239.667,86.8333 240,87.5C 241.541,85.523 242.041,83.523 241.5,81.5C 241.977,80.5224 242.643,79.6891 243.5,79C 241.405,76.7095 240.738,74.2095 241.5,71.5C 242.086,71.7093 242.586,72.0426 243,72.5C 244.145,70.749 244.645,68.9157 244.5,67C 247.377,65.8732 250.377,65.2065 253.5,65C 251.167,64.6667 248.833,64.3333 246.5,64C 247.793,63.51 249.127,63.3433 250.5,63.5C 250.674,55.5272 251.174,55.5272 252,63.5C 252.192,61.4233 252.692,59.4233 253.5,57.5C 254.086,57.7093 254.586,58.0426 255,58.5C 258.888,56.2785 261.721,53.1118 263.5,49C 262.792,45.0512 264.125,41.7178 267.5,39C 274.647,37.2554 281.647,35.0887 288.5,32.5C 289.469,33.3094 290.302,34.3094 291,35.5C 291.024,31.1182 292.191,27.1182 294.5,23.5C 295.598,27.3605 296.431,27.3605 297,23.5C 298.067,22.8095 299.234,22.3095 300.5,22C 297.692,18.2383 298.025,14.7383 301.5,11.5C 302.655,22.1059 303.488,22.1059 304,11.5C 305.228,12.9972 305.728,14.3306 305.5,15.5C 305.709,16.9217 306.209,18.255 307,19.5C 307.483,18.552 307.649,17.552 307.5,16.5C 308.167,16.5 308.5,16.1667 308.5,15.5C 310.179,15.7148 311.179,15.0481 311.5,13.5C 312.837,12.6851 313.837,11.5185 314.5,10C 317.813,8.03183 321.146,6.03183 324.5,4C 326.769,3.2419 328.936,3.40857 331,4.5C 332.025,2.31305 333.525,0.646381 335.5,-0.5 Z M 343.5,0.5 C 344.473,0.986722 345.473,1.48672 346.5,2C 343.833,2.66667 341.167,2.66667 338.5,2C 340.382,1.80192 342.048,1.30192 343.5,0.5 Z M 311.5,13.5 C 311.179,15.0481 310.179,15.7148 308.5,15.5C 309.29,14.5987 310.29,13.9321 311.5,13.5 Z M 305.5,15.5 C 306.167,15.8333 306.833,16.1667 307.5,16.5C 307.649,17.552 307.483,18.552 307,19.5C 306.209,18.255 305.709,16.9217 305.5,15.5 Z M 472.5,48.5 C 472.833,48.5 473.167,48.5 473.5,48.5C 473.815,50.2259 473.981,51.8925 474,53.5C 472.731,52.0953 472.231,50.4286 472.5,48.5 Z M 488.5,284.5 C 488.5,284.167 488.5,283.833 488.5,283.5C 490.027,283.427 491.027,284.094 491.5,285.5C 490.391,285.443 489.391,285.11 488.5,284.5 Z M 270.5,424.5 C 271.167,424.5 271.833,424.5 272.5,424.5C 272.027,425.906 271.027,426.573 269.5,426.5C 269.833,425.833 270.167,425.167 270.5,424.5 Z M 268.5,427.5 C 268.027,428.906 267.027,429.573 265.5,429.5C 265.5,429.167 265.5,428.833 265.5,428.5C 266.391,427.89 267.391,427.557 268.5,427.5 Z M 483.5,431.5 C 484.167,431.5 484.833,431.5 485.5,431.5C 485.214,433.933 484.548,433.933 483.5,431.5 Z"/></g>
<g><path style="opacity:0.014" fill="#230200" d="M 363.5,1.5 C 363.897,0.474981 364.563,0.308314 365.5,1C 364.906,1.46434 364.239,1.63101 363.5,1.5 Z"/></g>
<g><path style="opacity:0.012" fill="#230000" d="M 382.5,1.5 C 382.897,0.474981 383.563,0.308314 384.5,1C 383.906,1.46434 383.239,1.63101 382.5,1.5 Z"/></g>
<g><path style="opacity:0.012" fill="#200000" d="M 408.5,7.5 C 408.696,5.35443 409.696,5.18776 411.5,7C 410.552,7.48278 409.552,7.64945 408.5,7.5 Z"/></g>
<g><path style="opacity:0.014" fill="#1e0300" d="M 415.5,9.5 C 414.791,10.404 413.791,10.7373 412.5,10.5C 412.369,9.76109 412.536,9.09442 413,8.5C 413.671,9.25244 414.504,9.58577 415.5,9.5 Z"/></g>
<g><path style="opacity:0.004" fill="#050201" d="M 415.5,9.5 C 415.897,8.47498 416.563,8.30831 417.5,9C 416.906,9.46434 416.239,9.63101 415.5,9.5 Z"/></g>
<g><path style="opacity:0.015" fill="#220400" d="M 419.5,12.5 C 420.946,11.3871 422.613,11.2204 424.5,12C 422.866,12.4935 421.199,12.6602 419.5,12.5 Z"/></g>
<g><path style="opacity:0.004" fill="#050201" d="M 296.5,16.5 C 297.525,16.8966 297.692,17.5632 297,18.5C 296.536,17.9056 296.369,17.2389 296.5,16.5 Z"/></g>
<g><path style="opacity:0.016" fill="#170300" d="M 453.5,22.5 C 451.972,22.4827 451.472,21.816 452,20.5C 452.717,21.0442 453.217,21.7109 453.5,22.5 Z"/></g>
<g><path style="opacity:0.004" fill="#150201" d="M 458.5,26.5 C 457.833,26.5 457.5,26.1667 457.5,25.5C 457.747,23.0248 458.413,23.0248 459.5,25.5C 459.376,26.1067 459.043,26.44 458.5,26.5 Z"/></g>
<g><path style="opacity:0.013" fill="#200200" d="M 288.5,32.5 C 289.148,30.9142 289.648,29.2475 290,27.5C 290.167,28.3333 290.333,29.1667 290.5,30C 290.316,31.3756 289.649,32.2089 288.5,32.5 Z"/></g>
<g><path style="opacity:0.012" fill="#230000" d="M 464.5,28.5 C 465.833,29.1667 465.833,29.1667 464.5,28.5 Z"/></g>
<g><path style="opacity:0.012" fill="#1d0000" d="M 260.5,45.5 C 261.525,45.8966 261.692,46.5632 261,47.5C 260.536,46.9056 260.369,46.2389 260.5,45.5 Z"/></g>
<g><path style="opacity:0.014" fill="#1e0200" d="M 474.5,47.5 C 473.833,47.5 473.5,47.8333 473.5,48.5C 473.167,48.5 472.833,48.5 472.5,48.5C 472.711,46.5759 473.377,46.2426 474.5,47.5 Z"/></g>
<g><path style="opacity:0.012" fill="#230000" d="M 474.5,47.5 C 475.833,48.1667 475.833,48.1667 474.5,47.5 Z"/></g>
<g><path style="opacity:0.012" fill="#230000" d="M 252.5,55.5 C 253.833,56.1667 253.833,56.1667 252.5,55.5 Z"/></g>
<g><path style="opacity:0.004" fill="#050201" d="M 254.5,55.5 C 255.833,56.1667 255.833,56.1667 254.5,55.5 Z"/></g>
<g><path style="opacity:1" fill="#b37954" d="M 380.5,65.5 C 410.288,96.5636 415.955,131.564 397.5,170.5C 396.833,170.5 396.167,170.5 395.5,170.5C 390.125,171.007 384.792,171.84 379.5,173C 377.671,173.273 376.171,174.107 375,175.5C 374.667,175.167 374.333,174.833 374,174.5C 372.905,175.693 372.072,177.027 371.5,178.5C 371.335,181.85 371.502,185.183 372,188.5C 377.15,200.45 380.984,212.783 383.5,225.5C 383.369,226.376 383.702,227.043 384.5,227.5C 385.318,224.893 385.818,222.226 386,219.5C 388.74,223.958 392.573,227.125 397.5,229C 413.932,232.637 430.266,232.304 446.5,228C 450.761,225.953 454.928,223.787 459,221.5C 460.261,221.759 461.261,222.426 462,223.5C 465.965,233.759 466.299,244.093 463,254.5C 461.623,256.754 460.123,258.92 458.5,261C 452.58,264.64 446.247,267.307 439.5,269C 435.279,272.605 432.446,277.105 431,282.5C 430.758,286.43 429.925,290.097 428.5,293.5C 417.566,288.575 406.566,283.742 395.5,279C 388.006,276.376 380.34,274.543 372.5,273.5C 375.203,271.932 378.203,270.932 381.5,270.5C 385.661,271.647 389.661,271.647 393.5,270.5C 400.421,268.329 402.921,263.663 401,256.5C 397.636,251.971 393.803,247.971 389.5,244.5C 387.672,242.39 385.339,241.556 382.5,242C 387.848,250.222 385.848,255.889 376.5,259C 366.511,262.106 361.011,258.606 360,248.5C 358.316,250.351 356.483,252.018 354.5,253.5C 353.847,249.765 353.014,246.099 352,242.5C 350.448,242.011 349.281,242.678 348.5,244.5C 345.921,247.135 342.921,249.301 339.5,251C 335.236,255.168 334.403,260.002 337,265.5C 338.432,267.439 340.265,268.772 342.5,269.5C 346.188,270.762 350.022,270.762 354,269.5C 359.002,272.113 364.168,273.78 369.5,274.5C 367.744,275.552 367.077,277.219 367.5,279.5C 370.841,278.995 374.174,278.828 377.5,279C 389.012,283.727 400.679,288.06 412.5,292C 417.858,294.354 422.358,297.854 426,302.5C 427.029,311.315 426.363,319.982 424,328.5C 419.027,335.802 413.694,342.802 408,349.5C 404.195,351.98 400.695,354.813 397.5,358C 389.9,360.045 382.234,361.879 374.5,363.5C 367.912,363.454 361.245,363.454 354.5,363.5C 352.432,363.033 350.432,362.366 348.5,361.5C 347.833,361.833 347.167,362.167 346.5,362.5C 337.18,358.759 329.68,352.759 324,344.5C 321.368,335.913 318.201,327.579 314.5,319.5C 313.703,315.202 313.37,310.868 313.5,306.5C 314.314,304.369 314.814,302.036 315,299.5C 320.167,304 325,308.833 329.5,314C 335.529,318.347 341.862,322.18 348.5,325.5C 362.902,332.294 377.235,331.961 391.5,324.5C 398.568,320.272 405.235,315.439 411.5,310C 415.449,307.529 419.449,305.362 423.5,303.5C 416.974,298.574 409.641,295.24 401.5,293.5C 392.947,288.254 383.78,284.254 374,281.5C 371.045,282.374 368.045,283.041 365,283.5C 360.52,282.568 356.02,282.401 351.5,283C 342.925,286.469 334.258,289.636 325.5,292.5C 322.497,293.418 319.663,294.751 317,296.5C 316.601,296.272 316.435,295.938 316.5,295.5C 322.319,290.417 328.986,286.583 336.5,284C 344.095,280.3 352.095,278.8 360.5,279.5C 360.5,277.833 360.5,276.167 360.5,274.5C 343.806,275.229 328.14,279.729 313.5,288C 310.819,290.194 309.319,293.027 309,296.5C 308.892,306.226 308.225,315.893 307,325.5C 302.698,327.895 298.531,327.561 294.5,324.5C 291.334,316.164 287.501,308.164 283,300.5C 278.333,296.5 273.667,292.5 269,288.5C 268.078,284.445 266.411,280.779 264,277.5C 263.667,275.167 263.333,272.833 263,270.5C 261.611,267.433 259.778,264.767 257.5,262.5C 255.132,250.931 253.132,239.264 251.5,227.5C 253.313,212.242 253.98,196.909 253.5,181.5C 253.935,175.627 255.269,169.96 257.5,164.5C 258.905,158.737 258.572,153.07 256.5,147.5C 254.232,130.339 257.399,114.339 266,99.5C 287.631,78.1099 313.798,66.6099 344.5,65C 356.576,64.1888 368.576,64.3554 380.5,65.5 Z"/></g>
<g><path style="opacity:1" fill="#a4694a" d="M 380.5,65.5 C 407.667,66.9253 432.334,75.4253 454.5,91C 464.156,103.466 469.156,117.633 469.5,133.5C 469.337,138.547 469.671,143.547 470.5,148.5C 473.358,152.883 475.692,157.55 477.5,162.5C 479.655,168.617 480.655,174.95 480.5,181.5C 479.839,190.428 481.005,199.095 484,207.5C 485.309,209.891 486.309,209.891 487,207.5C 487.495,209.473 487.662,211.473 487.5,213.5C 486.558,222.113 486.225,230.779 486.5,239.5C 481.579,254.323 476.413,268.99 471,283.5C 465.046,293.471 459.046,303.471 453,313.5C 452.667,313.167 452.333,312.833 452,312.5C 448.916,315.584 445.416,315.751 441.5,313C 437.245,309.093 434.579,304.26 433.5,298.5C 431.479,297.145 429.812,295.479 428.5,293.5C 429.925,290.097 430.758,286.43 431,282.5C 432.446,277.105 435.279,272.605 439.5,269C 446.247,267.307 452.58,264.64 458.5,261C 460.123,258.92 461.623,256.754 463,254.5C 466.299,244.093 465.965,233.759 462,223.5C 461.261,222.426 460.261,221.759 459,221.5C 454.928,223.787 450.761,225.953 446.5,228C 430.266,232.304 413.932,232.637 397.5,229C 392.573,227.125 388.74,223.958 386,219.5C 385.818,222.226 385.318,224.893 384.5,227.5C 383.702,227.043 383.369,226.376 383.5,225.5C 384.926,218.522 384.426,211.522 382,204.5C 378.155,195.833 374.655,187.167 371.5,178.5C 372.072,177.027 372.905,175.693 374,174.5C 374.333,174.833 374.667,175.167 375,175.5C 376.171,174.107 377.671,173.273 379.5,173C 384.792,171.84 390.125,171.007 395.5,170.5C 390.556,173.768 390.223,177.601 394.5,182C 405.875,181.124 417.208,179.624 428.5,177.5C 434.311,177.962 439.978,179.129 445.5,181C 449.604,183.386 453.938,185.219 458.5,186.5C 457.572,182.638 456.072,178.971 454,175.5C 449.315,172.486 444.482,169.653 439.5,167C 425.229,165.507 411.229,166.674 397.5,170.5C 415.955,131.564 410.288,96.5636 380.5,65.5 Z"/></g>
<g><path style="opacity:0.004" fill="#050201" d="M 241.5,67.5 C 242.833,68.1667 242.833,68.1667 241.5,67.5 Z"/></g>
<g><path style="opacity:0.012" fill="#190100" d="M 239.5,79.5 C 240.573,80.2506 240.74,81.2506 240,82.5C 239.517,81.552 239.351,80.552 239.5,79.5 Z"/></g>
<g><path style="opacity:0.004" fill="#140101" d="M 236.5,87.5 C 237.525,87.8966 237.692,88.5632 237,89.5C 236.536,88.9056 236.369,88.2389 236.5,87.5 Z"/></g>
<g><path style="opacity:0.016" fill="#1b0400" d="M 495.5,94.5 C 495.167,94.5 494.833,94.5 494.5,94.5C 494.833,91.8333 495.167,91.8333 495.5,94.5 Z"/></g>
<g><path style="opacity:0.014" fill="#1e0200" d="M 495.5,94.5 C 496.573,95.2506 496.74,96.2506 496,97.5C 495.517,96.552 495.351,95.552 495.5,94.5 Z"/></g>
<g><path style="opacity:0.004" fill="#050201" d="M 496.5,98.5 C 497.525,98.8966 497.692,99.5632 497,100.5C 496.536,99.9056 496.369,99.2389 496.5,98.5 Z"/></g>
<g><path style="opacity:0.014" fill="#220300" d="M 495.5,101.5 C 496.573,102.251 496.74,103.251 496,104.5C 495.517,103.552 495.351,102.552 495.5,101.5 Z"/></g>
<g><path style="opacity:0.004" fill="#050201" d="M 495.5,108.5 C 496.833,109.167 496.833,109.167 495.5,108.5 Z"/></g>
<g><path style="opacity:0.014" fill="#1e0200" d="M 494.5,109.5 C 494.833,109.5 495.167,109.5 495.5,109.5C 495.167,113.5 494.833,113.5 494.5,109.5 Z"/></g>
<g><path style="opacity:0.012" fill="#230000" d="M 497.5,118.5 C 497.167,118.5 496.833,118.5 496.5,118.5C 496.833,115.833 497.167,115.833 497.5,118.5 Z"/></g>
<g><path style="opacity:0.013" fill="#230200" d="M 497.5,118.5 C 498.629,120.628 498.796,122.961 498,125.5C 497.503,123.19 497.337,120.857 497.5,118.5 Z"/></g>
<g><path style="opacity:0.013" fill="#230100" d="M 496.5,126.5 C 497.833,127.5 497.833,128.5 496.5,129.5C 496.5,128.5 496.5,127.5 496.5,126.5 Z"/></g>
<g><path style="opacity:1" fill="#341c0a" d="M 487.5,143.5 C 482.165,144.168 476.999,144.168 472,143.5C 471.802,145.382 471.302,147.048 470.5,148.5C 469.671,143.547 469.337,138.547 469.5,133.5C 470.317,131.031 470.817,128.365 471,125.5C 473.667,126.167 476.333,126.833 479,127.5C 479.414,127.043 479.914,126.709 480.5,126.5C 482.512,129.205 484.512,131.872 486.5,134.5C 487.484,137.428 487.817,140.428 487.5,143.5 Z"/></g>
<g><path style="opacity:0.012" fill="#230000" d="M 495.5,129.5 C 495.833,129.5 496.167,129.5 496.5,129.5C 496.672,130.492 496.338,131.158 495.5,131.5C 495.5,130.833 495.5,130.167 495.5,129.5 Z"/></g>
<g><path style="opacity:0.012" fill="#230000" d="M 494.5,131.5 C 494.833,131.5 495.167,131.5 495.5,131.5C 495.672,132.492 495.338,133.158 494.5,133.5C 494.5,132.833 494.5,132.167 494.5,131.5 Z"/></g>
<g><path style="opacity:0.013" fill="#230100" d="M 493.5,133.5 C 493.833,133.5 494.167,133.5 494.5,133.5C 494.167,137.5 493.833,137.5 493.5,133.5 Z"/></g>
<g><path style="opacity:0.014" fill="#200200" d="M 494.5,137.5 C 495.622,139.288 495.789,141.288 495,143.5C 494.505,141.527 494.338,139.527 494.5,137.5 Z"/></g>
<g><path style="opacity:1" fill="#371e0c" d="M 256.5,147.5 C 258.572,153.07 258.905,158.737 257.5,164.5C 256.675,160.353 256.175,156.019 256,151.5C 255.505,153.473 255.338,155.473 255.5,157.5C 250.5,157.5 245.5,157.5 240.5,157.5C 240.5,164.167 240.5,170.833 240.5,177.5C 239.305,167.31 239.472,156.977 241,146.5C 242.659,145.183 243.826,143.517 244.5,141.5C 247.836,140.76 251.17,140.094 254.5,139.5C 255.168,142.306 255.834,144.972 256.5,147.5 Z"/></g>
<g><path style="opacity:0.004" fill="#130301" d="M 231.5,144.5 C 231.631,145.239 231.464,145.906 231,146.5C 230.308,145.563 230.475,144.897 231.5,144.5 Z"/></g>
<g><path style="opacity:0.014" fill="#1e0200" d="M 496.5,152.5 C 496.167,152.5 495.833,152.5 495.5,152.5C 495.833,141.833 496.167,141.833 496.5,152.5 Z"/></g>
<g><path style="opacity:0.012" fill="#1d0000" d="M 233.5,147.5 C 233.631,148.239 233.464,148.906 233,149.5C 232.308,148.563 232.475,147.897 233.5,147.5 Z"/></g>
<g><path style="opacity:1" fill="#422613" d="M 487.5,143.5 C 489.303,151.936 490.303,160.603 490.5,169.5C 489.681,166.695 489.181,163.695 489,160.5C 487.206,160.991 485.206,160.991 483,160.5C 480.879,160.698 479.046,161.364 477.5,162.5C 475.692,157.55 473.358,152.883 470.5,148.5C 471.302,147.048 471.802,145.382 472,143.5C 476.999,144.168 482.165,144.168 487.5,143.5 Z"/></g>
<g><path style="opacity:0.014" fill="#1f0200" d="M 233.5,183.5 C 232.341,172.674 232.174,161.674 233,150.5C 233.5,161.495 233.667,172.495 233.5,183.5 Z"/></g>
<g><path style="opacity:0.014" fill="#1f0200" d="M 496.5,152.5 C 497.643,155.976 497.81,159.642 497,163.5C 496.501,159.848 496.335,156.182 496.5,152.5 Z"/></g>
<g><path style="opacity:1" fill="#4d2e19" d="M 257.5,164.5 C 255.269,169.96 253.935,175.627 253.5,181.5C 252.698,182.952 252.198,184.618 252,186.5C 249.385,186.236 246.385,185.902 243,185.5C 242.506,187.134 242.34,188.801 242.5,190.5C 240.946,186.433 240.28,182.1 240.5,177.5C 240.5,170.833 240.5,164.167 240.5,157.5C 245.5,157.5 250.5,157.5 255.5,157.5C 255.338,155.473 255.505,153.473 256,151.5C 256.175,156.019 256.675,160.353 257.5,164.5 Z"/></g>
<g><path style="opacity:1" fill="#523629" d="M 395.5,170.5 C 396.167,170.5 396.833,170.5 397.5,170.5C 411.229,166.674 425.229,165.507 439.5,167C 444.482,169.653 449.315,172.486 454,175.5C 456.072,178.971 457.572,182.638 458.5,186.5C 453.938,185.219 449.604,183.386 445.5,181C 439.978,179.129 434.311,177.962 428.5,177.5C 417.208,179.624 405.875,181.124 394.5,182C 390.223,177.601 390.556,173.768 395.5,170.5 Z"/></g>
<g><path style="opacity:0.015" fill="#200300" d="M 497.5,164.5 C 498.659,175.326 498.826,186.326 498,197.5C 497.5,186.505 497.333,175.505 497.5,164.5 Z"/></g>
<g><path style="opacity:1" fill="#523629" d="M 345.5,183.5 C 345.822,185.722 345.155,187.556 343.5,189C 335.673,189.463 328.006,188.463 320.5,186C 310.709,185.081 301.043,185.747 291.5,188C 287.646,191.223 283.312,193.39 278.5,194.5C 278.5,193.5 278.5,192.5 278.5,191.5C 282.435,181.531 289.769,175.698 300.5,174C 311.882,173.645 323.215,174.311 334.5,176C 337.833,177.333 341.167,178.667 344.5,180C 345.337,181.011 345.67,182.178 345.5,183.5 Z"/></g>
<g><path style="opacity:1" fill="#5a3720" d="M 490.5,169.5 C 490.5,172.833 490.5,176.167 490.5,179.5C 487.552,179.777 484.719,179.444 482,178.5C 481.768,179.737 481.268,180.737 480.5,181.5C 480.655,174.95 479.655,168.617 477.5,162.5C 479.046,161.364 480.879,160.698 483,160.5C 485.206,160.991 487.206,160.991 489,160.5C 489.181,163.695 489.681,166.695 490.5,169.5 Z"/></g>
<g><path style="opacity:0.014" fill="#200200" d="M 233.5,183.5 C 233.833,183.5 234.167,183.5 234.5,183.5C 234.167,191.5 233.833,191.5 233.5,183.5 Z"/></g>
<g><path style="opacity:1" fill="#a26748" d="M 345.5,183.5 C 346.326,187.982 346.826,192.649 347,197.5C 350.928,204.511 351.928,211.845 350,219.5C 345.084,226.047 338.584,230.214 330.5,232C 320.114,232.682 309.781,232.182 299.5,230.5C 290.856,231.702 282.189,232.202 273.5,232C 278.892,228.276 283.226,223.609 286.5,218C 284.346,214.512 281.512,211.679 278,209.5C 277.181,203.319 277.347,197.319 278.5,191.5C 278.5,192.5 278.5,193.5 278.5,194.5C 283.312,193.39 287.646,191.223 291.5,188C 301.043,185.747 310.709,185.081 320.5,186C 328.006,188.463 335.673,189.463 343.5,189C 345.155,187.556 345.822,185.722 345.5,183.5 Z"/></g>
<g><path style="opacity:1" fill="#6f462d" d="M 253.5,181.5 C 253.98,196.909 253.313,212.242 251.5,227.5C 249.216,217.465 246.383,207.465 243,197.5C 242.503,195.19 242.337,192.857 242.5,190.5C 242.34,188.801 242.506,187.134 243,185.5C 246.385,185.902 249.385,186.236 252,186.5C 252.198,184.618 252.698,182.952 253.5,181.5 Z"/></g>
<g><path style="opacity:0.014" fill="#1f0200" d="M 234.5,190.5 C 235.613,191.946 235.78,193.613 235,195.5C 234.506,193.866 234.34,192.199 234.5,190.5 Z"/></g>
<g><path style="opacity:1" fill="#180b03" d="M 414.5,189.5 C 425.004,188.63 434.337,191.463 442.5,198C 438.408,196.137 434.074,194.47 429.5,193C 417.555,190.49 406.888,192.99 397.5,200.5C 397.167,200.333 396.833,200.167 396.5,200C 401.819,195.179 407.819,191.679 414.5,189.5 Z"/></g>
<g><path style="opacity:1" fill="#100601" d="M 309.5,193.5 C 315.176,193.334 320.843,193.501 326.5,194C 331.048,194.94 335.048,196.94 338.5,200C 324.498,193.332 310.831,194.166 297.5,202.5C 297.167,202.333 296.833,202.167 296.5,202C 300.557,198.645 304.89,195.812 309.5,193.5 Z"/></g>
<g><path style="opacity:1" fill="#1a0c02" d="M 371.5,178.5 C 374.655,187.167 378.155,195.833 382,204.5C 384.426,211.522 384.926,218.522 383.5,225.5C 380.984,212.783 377.15,200.45 372,188.5C 371.502,185.183 371.335,181.85 371.5,178.5 Z"/></g>
<g><path style="opacity:1" fill="#7a4c32" d="M 490.5,179.5 C 491.08,191.121 490.08,202.454 487.5,213.5C 487.662,211.473 487.495,209.473 487,207.5C 486.309,209.891 485.309,209.891 484,207.5C 481.005,199.095 479.839,190.428 480.5,181.5C 481.268,180.737 481.768,179.737 482,178.5C 484.719,179.444 487.552,179.777 490.5,179.5 Z"/></g>
<g><path style="opacity:1" fill="#1b1009" d="M 413.5,196.5 C 426.198,194.931 437.198,198.431 446.5,207C 441.059,210.591 435.059,212.591 428.5,213C 416.393,213.737 404.393,213.237 392.5,211.5C 392.744,208.737 394.077,206.571 396.5,205C 401.99,201.588 407.657,198.755 413.5,196.5 Z"/></g>
<g><path style="opacity:1" fill="#7e7b7a" d="M 436.5,205.5 C 433.95,204.642 431.45,203.642 429,202.5C 428.802,204.382 428.302,206.048 427.5,207.5C 424.817,199.501 427.15,197.668 434.5,202C 435.823,202.816 436.489,203.983 436.5,205.5 Z"/></g>
<g><path style="opacity:1" fill="#1d1109" d="M 316.5,199.5 C 326.735,199.412 336.068,202.245 344.5,208C 346.607,209.264 347.607,211.097 347.5,213.5C 335.698,214.994 323.865,216.327 312,217.5C 305.598,217.3 299.598,215.633 294,212.5C 293.383,211.551 293.549,210.718 294.5,210C 301.018,204.572 308.351,201.072 316.5,199.5 Z"/></g>
<g><path style="opacity:1" fill="#d2d1d1" d="M 414.5,204.5 C 414.5,203.833 414.5,203.167 414.5,202.5C 415.386,201.224 416.386,201.224 417.5,202.5C 416.995,203.919 415.995,204.585 414.5,204.5 Z"/></g>
<g><path style="opacity:1" fill="#6e6b69" d="M 410.5,206.5 C 409.842,205.602 409.176,204.602 408.5,203.5C 405.047,204.366 402.714,206.366 401.5,209.5C 400.402,208.399 400.235,207.066 401,205.5C 403.586,203.455 406.42,201.789 409.5,200.5C 410.466,202.396 410.799,204.396 410.5,206.5 Z"/></g>
<g><path style="opacity:1" fill="#5f3e2b" d="M 414.5,202.5 C 414.5,203.167 414.5,203.833 414.5,204.5C 416.021,208.839 418.521,209.505 422,206.5C 421.954,204.687 422.12,203.021 422.5,201.5C 426.243,204.432 426.243,207.598 422.5,211C 417.245,212.808 413.911,211.141 412.5,206C 412.387,204.301 413.053,203.134 414.5,202.5 Z"/></g>
<g><path style="opacity:1" fill="#f4f3f3" d="M 436.5,205.5 C 436.78,208.388 435.447,209.888 432.5,210C 430.421,210.808 428.421,210.641 426.5,209.5C 426.863,208.817 427.196,208.15 427.5,207.5C 428.302,206.048 428.802,204.382 429,202.5C 431.45,203.642 433.95,204.642 436.5,205.5 Z"/></g>
<g><path style="opacity:1" fill="#e9e8e7" d="M 410.5,206.5 C 410.33,207.822 410.663,208.989 411.5,210C 408.112,210.659 404.779,210.492 401.5,209.5C 402.714,206.366 405.047,204.366 408.5,203.5C 409.176,204.602 409.842,205.602 410.5,206.5 Z"/></g>
<g><path style="opacity:1" fill="#cccaca" d="M 314.5,207.5 C 314.5,206.833 314.5,206.167 314.5,205.5C 315.743,204.263 316.743,204.596 317.5,206.5C 316.675,207.386 315.675,207.719 314.5,207.5 Z"/></g>
<g><path style="opacity:1" fill="#757371" d="M 338.5,211.5 C 338.631,210.624 338.298,209.957 337.5,209.5C 334.222,207.964 330.889,206.631 327.5,205.5C 326.438,204.425 326.438,203.425 327.5,202.5C 331.286,203.893 334.952,205.559 338.5,207.5C 339.782,208.958 339.782,210.292 338.5,211.5 Z"/></g>
<g><path style="opacity:0.013" fill="#220200" d="M 499.5,206.5 C 498.209,206.263 497.209,206.596 496.5,207.5C 495.662,207.158 495.328,206.492 495.5,205.5C 496.314,203.369 496.814,201.036 497,198.5C 497.117,201.504 497.951,204.171 499.5,206.5 Z"/></g>
<g><path style="opacity:1" fill="#6f6c69" d="M 310.5,210.5 C 309.596,209.791 309.263,208.791 309.5,207.5C 307.079,207.878 304.746,208.545 302.5,209.5C 303.714,206.366 306.047,204.366 309.5,203.5C 310.474,205.743 310.808,208.076 310.5,210.5 Z"/></g>
<g><path style="opacity:1" fill="#ebeaea" d="M 327.5,205.5 C 330.889,206.631 334.222,207.964 337.5,209.5C 338.298,209.957 338.631,210.624 338.5,211.5C 334.666,213.166 330.666,213.666 326.5,213C 327.435,210.619 327.768,208.119 327.5,205.5 Z"/></g>
<g><path style="opacity:0.014" fill="#1e0200" d="M 239.5,207.5 C 239.649,208.552 239.483,209.552 239,210.5C 238.26,209.251 238.427,208.251 239.5,207.5 Z"/></g>
<g><path style="opacity:1" fill="#eeeded" d="M 310.5,210.5 C 310.539,211.583 310.873,212.583 311.5,213.5C 309.235,214.647 306.902,214.814 304.5,214C 302.963,212.89 302.297,211.39 302.5,209.5C 304.746,208.545 307.079,207.878 309.5,207.5C 309.263,208.791 309.596,209.791 310.5,210.5 Z"/></g>
<g><path style="opacity:1" fill="#603f2c" d="M 314.5,205.5 C 314.5,206.167 314.5,206.833 314.5,207.5C 315.78,211.396 318.28,212.396 322,210.5C 322.72,208.888 322.554,207.388 321.5,206C 324.23,205.058 325.563,206.058 325.5,209C 325.357,211.151 324.357,212.818 322.5,214C 319.833,214.667 317.167,214.667 314.5,214C 311.966,210.976 311.966,208.142 314.5,205.5 Z"/></g>
<g><path style="opacity:0.014" fill="#230200" d="M 240.5,213.5 C 239.475,213.103 239.308,212.437 240,211.5C 240.464,212.094 240.631,212.761 240.5,213.5 Z"/></g>
<g><path style="opacity:0.014" fill="#230200" d="M 516.5,213.5 C 516.167,213.5 515.833,213.5 515.5,213.5C 515.833,210.833 516.167,210.833 516.5,213.5 Z"/></g>
<g><path style="opacity:1" fill="#a26c4a" d="M 501.5,211.5 C 507.024,211.358 510.024,214.025 510.5,219.5C 502.88,217.986 496.88,220.32 492.5,226.5C 491.387,222.507 491.387,218.507 492.5,214.5C 495.785,214.072 498.785,213.072 501.5,211.5 Z"/></g>
<g><path style="opacity:0.014" fill="#230200" d="M 516.5,213.5 C 517.525,213.897 517.692,214.563 517,215.5C 516.536,214.906 516.369,214.239 516.5,213.5 Z"/></g>
<g><path style="opacity:0.013" fill="#1e0200" d="M 240.5,213.5 C 240.833,213.5 241.167,213.5 241.5,213.5C 241.5,214.833 241.5,216.167 241.5,217.5C 240.167,217.5 238.833,217.5 237.5,217.5C 238.209,216.596 239.209,216.263 240.5,216.5C 240.5,215.5 240.5,214.5 240.5,213.5 Z"/></g>
<g><path style="opacity:0.015" fill="#210400" d="M 517.5,229.5 C 517.334,225.154 517.501,220.821 518,216.5C 518.814,221.02 518.647,225.354 517.5,229.5 Z"/></g>
<g><path style="opacity:1" fill="#190d03" d="M 406.5,218.5 C 406.56,217.957 406.893,217.624 407.5,217.5C 410.442,218.819 413.442,219.985 416.5,221C 412.908,221.304 409.574,220.471 406.5,218.5 Z"/></g>
<g><path style="opacity:1" fill="#1c1006" d="M 336.5,218.5 C 338.379,218.393 338.712,218.893 337.5,220C 333.983,221.734 330.316,222.401 326.5,222C 330.028,221.054 333.361,219.887 336.5,218.5 Z"/></g>
<g><path style="opacity:1" fill="#a9724f" d="M 231.5,223.5 C 236.482,224.053 241.482,224.387 246.5,224.5C 246.84,228.876 247.507,233.209 248.5,237.5C 248.167,238.167 247.833,238.833 247.5,239.5C 242.82,232.654 236.486,229.987 228.5,231.5C 227.417,230.635 227.251,229.635 228,228.5C 228.997,226.677 230.164,225.01 231.5,223.5 Z"/></g>
<g><path style="opacity:0.014" fill="#200200" d="M 220.5,243.5 C 219.35,238.684 219.184,233.684 220,228.5C 220.499,233.489 220.666,238.489 220.5,243.5 Z"/></g>
<g><path style="opacity:0.014" fill="#230200" d="M 516.5,229.5 C 516.833,229.5 517.167,229.5 517.5,229.5C 517.768,231.099 517.434,232.432 516.5,233.5C 516.5,232.167 516.5,230.833 516.5,229.5 Z"/></g>
<g><path style="opacity:1" fill="#a06648" d="M 252.5,265.5 C 250.136,260.331 246.469,256.164 241.5,253C 237.385,250.552 233.552,247.719 230,244.5C 229.517,245.448 229.351,246.448 229.5,247.5C 227.124,242.894 226.124,237.894 226.5,232.5C 233.099,232.215 238.599,234.549 243,239.5C 249.413,246.91 252.58,255.577 252.5,265.5 Z"/></g>
<g><path style="opacity:0.014" fill="#1a0200" d="M 515.5,233.5 C 515.833,233.5 516.167,233.5 516.5,233.5C 516.768,235.099 516.434,236.432 515.5,237.5C 515.5,236.167 515.5,234.833 515.5,233.5 Z"/></g>
<g><path style="opacity:1" fill="#ab714f" d="M 504.5,220.5 C 506.5,220.5 508.5,220.5 510.5,220.5C 510.665,223.518 510.498,226.518 510,229.5C 507.332,238.171 504.665,246.838 502,255.5C 501.811,263.508 501.811,271.508 502,279.5C 498.507,280.954 495.174,280.621 492,278.5C 489.691,275.548 488.191,272.214 487.5,268.5C 489.474,257.903 490.974,247.236 492,236.5C 494.538,229.807 498.705,224.473 504.5,220.5 Z"/></g>
<g><path style="opacity:0.016" fill="#1d0400" d="M 514.5,237.5 C 514.833,237.5 515.167,237.5 515.5,237.5C 515.737,238.791 515.404,239.791 514.5,240.5C 514.5,239.5 514.5,238.5 514.5,237.5 Z"/></g>
<g><path style="opacity:0.014" fill="#230200" d="M 513.5,240.5 C 513.833,240.5 514.167,240.5 514.5,240.5C 514.167,243.167 513.833,243.167 513.5,240.5 Z"/></g>
<g><path style="opacity:0.014" fill="#230200" d="M 512.5,245.5 C 512.369,244.761 512.536,244.094 513,243.5C 513.692,244.437 513.525,245.103 512.5,245.5 Z"/></g>
<g><path style="opacity:0.014" fill="#1a0200" d="M 220.5,243.5 C 220.833,243.5 221.167,243.5 221.5,243.5C 221.167,248.833 220.833,248.833 220.5,243.5 Z"/></g>
<g><path style="opacity:1" fill="#b07752" d="M 252.5,265.5 C 255.108,272.263 256.274,279.263 256,286.5C 252.819,292.252 248.819,292.919 244,288.5C 245.43,276.529 242.097,266.196 234,257.5C 232.214,254.264 230.714,250.93 229.5,247.5C 229.351,246.448 229.517,245.448 230,244.5C 233.552,247.719 237.385,250.552 241.5,253C 246.469,256.164 250.136,260.331 252.5,265.5 Z"/></g>
<g><path style="opacity:1" fill="#a06647" d="M 389.5,244.5 C 388.957,244.56 388.624,244.893 388.5,245.5C 391.142,249.309 393.975,252.976 397,256.5C 399.132,264.736 395.966,269.236 387.5,270C 389.473,270.495 391.473,270.662 393.5,270.5C 389.661,271.647 385.661,271.647 381.5,270.5C 378.203,270.932 375.203,271.932 372.5,273.5C 371.791,274.404 370.791,274.737 369.5,274.5C 364.168,273.78 359.002,272.113 354,269.5C 350.022,270.762 346.188,270.762 342.5,269.5C 343.873,269.657 345.207,269.49 346.5,269C 340.513,266.86 338.346,262.693 340,256.5C 342.658,252.843 345.658,249.509 349,246.5C 349.692,245.563 349.525,244.897 348.5,244.5C 349.281,242.678 350.448,242.011 352,242.5C 353.014,246.099 353.847,249.765 354.5,253.5C 356.483,252.018 358.316,250.351 360,248.5C 361.011,258.606 366.511,262.106 376.5,259C 385.848,255.889 387.848,250.222 382.5,242C 385.339,241.556 387.672,242.39 389.5,244.5 Z"/></g>
<g><path style="opacity:0.014" fill="#1e0200" d="M 511.5,245.5 C 511.833,245.5 512.167,245.5 512.5,245.5C 512.737,246.791 512.404,247.791 511.5,248.5C 511.5,247.5 511.5,246.5 511.5,245.5 Z"/></g>
<g><path style="opacity:1" fill="#1b0e04" d="M 389.5,244.5 C 393.803,247.971 397.636,251.971 401,256.5C 402.921,263.663 400.421,268.329 393.5,270.5C 391.473,270.662 389.473,270.495 387.5,270C 395.966,269.236 399.132,264.736 397,256.5C 393.975,252.976 391.142,249.309 388.5,245.5C 388.624,244.893 388.957,244.56 389.5,244.5 Z"/></g>
<g><path style="opacity:0.014" fill="#230200" d="M 510.5,248.5 C 510.833,248.5 511.167,248.5 511.5,248.5C 511.167,251.167 510.833,251.167 510.5,248.5 Z"/></g>
<g><path style="opacity:1" fill="#513529" d="M 486.5,239.5 C 484.756,265.806 478.923,291.139 469,315.5C 461.046,332.788 448.879,346.288 432.5,356C 427.268,361.143 422.268,366.476 417.5,372C 398.89,384.03 378.556,388.03 356.5,384C 348.059,383.52 340.393,380.853 333.5,376C 320.833,366.333 308.167,356.667 295.5,347C 285.332,337.494 277.498,326.327 272,313.5C 265.235,297.039 260.402,280.039 257.5,262.5C 259.778,264.767 261.611,267.433 263,270.5C 263.333,272.833 263.667,275.167 264,277.5C 266.411,280.779 268.078,284.445 269,288.5C 273.667,292.5 278.333,296.5 283,300.5C 287.501,308.164 291.334,316.164 294.5,324.5C 298.531,327.561 302.698,327.895 307,325.5C 308.225,315.893 308.892,306.226 309,296.5C 309.319,293.027 310.819,290.194 313.5,288C 328.14,279.729 343.806,275.229 360.5,274.5C 360.5,276.167 360.5,277.833 360.5,279.5C 352.095,278.8 344.095,280.3 336.5,284C 328.986,286.583 322.319,290.417 316.5,295.5C 315.21,296.058 314.377,297.058 314,298.5C 313.503,301.146 313.336,303.813 313.5,306.5C 313.37,310.868 313.703,315.202 314.5,319.5C 318.201,327.579 321.368,335.913 324,344.5C 329.68,352.759 337.18,358.759 346.5,362.5C 347.167,362.167 347.833,361.833 348.5,361.5C 350.432,362.366 352.432,363.033 354.5,363.5C 361.245,363.454 367.912,363.454 374.5,363.5C 382.234,361.879 389.9,360.045 397.5,358C 400.695,354.813 404.195,351.98 408,349.5C 413.694,342.802 419.027,335.802 424,328.5C 426.363,319.982 427.029,311.315 426,302.5C 422.358,297.854 417.858,294.354 412.5,292C 400.679,288.06 389.012,283.727 377.5,279C 374.174,278.828 370.841,278.995 367.5,279.5C 367.077,277.219 367.744,275.552 369.5,274.5C 370.791,274.737 371.791,274.404 372.5,273.5C 380.34,274.543 388.006,276.376 395.5,279C 406.566,283.742 417.566,288.575 428.5,293.5C 429.812,295.479 431.479,297.145 433.5,298.5C 434.579,304.26 437.245,309.093 441.5,313C 445.416,315.751 448.916,315.584 452,312.5C 452.333,312.833 452.667,313.167 453,313.5C 459.046,303.471 465.046,293.471 471,283.5C 476.413,268.99 481.579,254.323 486.5,239.5 Z"/></g>
<g><path style="opacity:1" fill="#1c0e04" d="M 348.5,244.5 C 349.525,244.897 349.692,245.563 349,246.5C 345.658,249.509 342.658,252.843 340,256.5C 338.346,262.693 340.513,266.86 346.5,269C 345.207,269.49 343.873,269.657 342.5,269.5C 340.265,268.772 338.432,267.439 337,265.5C 334.403,260.002 335.236,255.168 339.5,251C 342.921,249.301 345.921,247.135 348.5,244.5 Z"/></g>
<g><path style="opacity:0.014" fill="#1e0200" d="M 509.5,254.5 C 509.351,253.448 509.517,252.448 510,251.5C 510.74,252.749 510.573,253.749 509.5,254.5 Z"/></g>
<g><path style="opacity:0.014" fill="#1e0200" d="M 508.5,254.5 C 508.833,254.5 509.167,254.5 509.5,254.5C 509.167,262.5 508.833,262.5 508.5,254.5 Z"/></g>
<g><path style="opacity:0.004" fill="#130301" d="M 226.5,256.5 C 226.631,257.239 226.464,257.906 226,258.5C 225.308,257.563 225.475,256.897 226.5,256.5 Z"/></g>
<g><path style="opacity:1" fill="#1a0d04" d="M 383.5,258.5 C 386.32,258.248 388.986,258.748 391.5,260C 385.772,259.724 381.439,262.058 378.5,267C 367.812,273.028 358.812,271.028 351.5,261C 350.167,260.667 348.833,260.333 347.5,260C 352.723,259.297 357.056,260.964 360.5,265C 364.639,267.856 368.972,268.19 373.5,266C 376.734,263.252 380.068,260.752 383.5,258.5 Z"/></g>
<g><path style="opacity:0.014" fill="#200200" d="M 509.5,279.5 C 509.336,276.813 509.503,274.146 510,271.5C 510.801,274.367 510.634,277.034 509.5,279.5 Z"/></g>
<g><path style="opacity:0.014" fill="#230200" d="M 508.5,279.5 C 508.833,279.5 509.167,279.5 509.5,279.5C 509.672,280.492 509.338,281.158 508.5,281.5C 508.5,280.833 508.5,280.167 508.5,279.5 Z"/></g>
<g><path style="opacity:0.012" fill="#1d0000" d="M 507.5,281.5 C 507.833,281.5 508.167,281.5 508.5,281.5C 508.672,282.492 508.338,283.158 507.5,283.5C 507.5,282.833 507.5,282.167 507.5,281.5 Z"/></g>
<g><path style="opacity:0.014" fill="#1d0400" d="M 487.5,282.5 C 488.167,282.5 488.5,282.833 488.5,283.5C 488.5,283.833 488.5,284.167 488.5,284.5C 487.883,284.611 487.383,284.944 487,285.5C 486.26,284.251 486.427,283.251 487.5,282.5 Z"/></g>
<g><path style="opacity:0.016" fill="#210500" d="M 506.5,283.5 C 506.833,283.5 507.167,283.5 507.5,283.5C 507.315,284.17 506.981,284.17 506.5,283.5 Z"/></g>
<g><path style="opacity:1" fill="#2d1d12" d="M 311.5,279.5 C 312.239,279.369 312.906,279.536 313.5,280C 307.613,283.941 305.113,289.441 306,296.5C 304.085,292.377 304.418,288.377 307,284.5C 308.707,282.963 310.207,281.296 311.5,279.5 Z"/></g>
<g><path style="opacity:1" fill="#180b02" d="M 401.5,293.5 C 392.503,290.835 383.503,288.168 374.5,285.5C 371.125,285.958 367.792,286.625 364.5,287.5C 361.703,286.686 358.87,286.019 356,285.5C 346.396,288.367 336.73,291.034 327,293.5C 326.235,293.43 325.735,293.097 325.5,292.5C 334.258,289.636 342.925,286.469 351.5,283C 356.02,282.401 360.52,282.568 365,283.5C 368.045,283.041 371.045,282.374 374,281.5C 383.78,284.254 392.947,288.254 401.5,293.5 Z"/></g>
<g><path style="opacity:0.015" fill="#200300" d="M 493.5,288.5 C 496.304,287.362 499.304,287.195 502.5,288C 499.518,288.498 496.518,288.665 493.5,288.5 Z"/></g>
<g><path style="opacity:0.004" fill="#190100" d="M 240.5,293.5 C 241.167,293.5 241.5,293.833 241.5,294.5C 241.44,295.043 241.107,295.376 240.5,295.5C 239.227,294.743 239.227,294.077 240.5,293.5 Z"/></g>
<g><path style="opacity:0.014" fill="#1d0400" d="M 257.5,294.5 C 257.833,294.5 258.167,294.5 258.5,294.5C 258.869,296.993 258.203,297.66 256.5,296.5C 256.5,296.167 256.5,295.833 256.5,295.5C 257.167,295.5 257.5,295.167 257.5,294.5 Z"/></g>
<g><path style="opacity:0.012" fill="#230000" d="M 254.5,297.5 C 254.5,297.167 254.5,296.833 254.5,296.5C 255.167,296.5 255.833,296.5 256.5,296.5C 256.158,297.338 255.492,297.672 254.5,297.5 Z"/></g>
<g><path style="opacity:0.016" fill="#210500" d="M 252.5,298.5 C 252.5,298.167 252.5,297.833 252.5,297.5C 253.167,297.5 253.833,297.5 254.5,297.5C 254.158,298.338 253.492,298.672 252.5,298.5 Z"/></g>
<g><path style="opacity:0.013" fill="#200200" d="M 252.5,298.5 C 250.712,299.622 248.712,299.789 246.5,299C 248.473,298.505 250.473,298.338 252.5,298.5 Z"/></g>
<g><path style="opacity:0.014" fill="#1e0200" d="M 260.5,300.5 C 260.5,301.5 260.5,302.5 260.5,303.5C 259.167,302.5 259.167,301.5 260.5,300.5 Z"/></g>
<g><path style="opacity:0.013" fill="#230100" d="M 480.5,302.5 C 481.833,303.5 481.833,304.5 480.5,305.5C 480.5,304.5 480.5,303.5 480.5,302.5 Z"/></g>
<g><path style="opacity:0.014" fill="#1e0200" d="M 260.5,303.5 C 260.833,303.5 261.167,303.5 261.5,303.5C 261.167,307.5 260.833,307.5 260.5,303.5 Z"/></g>
<g><path style="opacity:0.014" fill="#1e0200" d="M 479.5,305.5 C 479.833,305.5 480.167,305.5 480.5,305.5C 480.737,306.791 480.404,307.791 479.5,308.5C 479.5,307.5 479.5,306.5 479.5,305.5 Z"/></g>
<g><path style="opacity:1" fill="#955f42" d="M 401.5,293.5 C 409.641,295.24 416.974,298.574 423.5,303.5C 419.449,305.362 415.449,307.529 411.5,310C 405.235,315.439 398.568,320.272 391.5,324.5C 391.44,323.957 391.107,323.624 390.5,323.5C 376.919,326.996 363.252,327.329 349.5,324.5C 348.893,324.624 348.56,324.957 348.5,325.5C 341.862,322.18 335.529,318.347 329.5,314C 325,308.833 320.167,304 315,299.5C 314.814,302.036 314.314,304.369 313.5,306.5C 313.336,303.813 313.503,301.146 314,298.5C 314.377,297.058 315.21,296.058 316.5,295.5C 316.435,295.938 316.601,296.272 317,296.5C 319.663,294.751 322.497,293.418 325.5,292.5C 325.735,293.097 326.235,293.43 327,293.5C 336.73,291.034 346.396,288.367 356,285.5C 358.87,286.019 361.703,286.686 364.5,287.5C 367.792,286.625 371.125,285.958 374.5,285.5C 383.503,288.168 392.503,290.835 401.5,293.5 Z"/></g>
<g><path style="opacity:1" fill="#1c130e" d="M 351.5,294.5 C 362.216,294.156 372.882,294.656 383.5,296C 393.943,299.058 404.276,302.391 414.5,306C 398.223,308.373 381.89,310.539 365.5,312.5C 360.474,311.494 355.474,310.327 350.5,309C 345.5,308.667 340.5,308.333 335.5,308C 332.02,304.433 327.687,302.766 322.5,303C 324.833,302.667 327.167,302.333 329.5,302C 336.716,298.762 344.049,296.262 351.5,294.5 Z"/></g>
<g><path style="opacity:1" fill="#efeeee" d="M 346.5,298.5 C 358.838,298.333 371.171,298.5 383.5,299C 388.352,299.713 393.019,301.046 397.5,303C 399.118,305.8 398.285,307.3 395,307.5C 391.199,306.64 387.366,305.973 383.5,305.5C 377.921,306.978 372.255,307.978 366.5,308.5C 360.261,307.952 354.095,306.952 348,305.5C 344.516,306.333 341.016,306.499 337.5,306C 336.483,304.951 336.316,303.784 337,302.5C 339.968,300.489 343.134,299.156 346.5,298.5 Z"/></g>
<g><path style="opacity:0.014" fill="#1e0200" d="M 478.5,308.5 C 478.833,308.5 479.167,308.5 479.5,308.5C 479.737,309.791 479.404,310.791 478.5,311.5C 478.5,310.5 478.5,309.5 478.5,308.5 Z"/></g>
<g><path style="opacity:0.014" fill="#230200" d="M 263.5,309.5 C 263.631,310.239 263.464,310.906 263,311.5C 262.308,310.563 262.475,309.897 263.5,309.5 Z"/></g>
<g><path style="opacity:0.014" fill="#230200" d="M 477.5,311.5 C 477.833,311.5 478.167,311.5 478.5,311.5C 478.672,312.492 478.338,313.158 477.5,313.5C 477.5,312.833 477.5,312.167 477.5,311.5 Z"/></g>
<g><path style="opacity:0.004" fill="#130301" d="M 263.5,312.5 C 264.525,312.897 264.692,313.563 264,314.5C 263.536,313.906 263.369,313.239 263.5,312.5 Z"/></g>
<g><path style="opacity:0.012" fill="#230000" d="M 476.5,313.5 C 476.833,313.5 477.167,313.5 477.5,313.5C 477.167,316.167 476.833,316.167 476.5,313.5 Z"/></g>
<g><path style="opacity:0.004" fill="#130301" d="M 475.5,318.5 C 475.369,317.761 475.536,317.094 476,316.5C 476.692,317.437 476.525,318.103 475.5,318.5 Z"/></g>
<g><path style="opacity:0.004" fill="#130301" d="M 474.5,318.5 C 474.833,318.5 475.167,318.5 475.5,318.5C 475.672,319.492 475.338,320.158 474.5,320.5C 474.5,319.833 474.5,319.167 474.5,318.5 Z"/></g>
<g><path style="opacity:0.014" fill="#230200" d="M 473.5,320.5 C 473.833,320.5 474.167,320.5 474.5,320.5C 474.672,321.492 474.338,322.158 473.5,322.5C 473.5,321.833 473.5,321.167 473.5,320.5 Z"/></g>
<g><path style="opacity:0.014" fill="#230200" d="M 472.5,322.5 C 472.833,322.5 473.167,322.5 473.5,322.5C 473.672,323.492 473.338,324.158 472.5,324.5C 472.5,323.833 472.5,323.167 472.5,322.5 Z"/></g>
<g><path style="opacity:0.004" fill="#130301" d="M 471.5,324.5 C 471.833,324.5 472.167,324.5 472.5,324.5C 472.672,325.492 472.338,326.158 471.5,326.5C 471.5,325.833 471.5,325.167 471.5,324.5 Z"/></g>
<g><path style="opacity:1" fill="#160b04" d="M 391.5,324.5 C 377.235,331.961 362.902,332.294 348.5,325.5C 348.56,324.957 348.893,324.624 349.5,324.5C 363.252,327.329 376.919,326.996 390.5,323.5C 391.107,323.624 391.44,323.957 391.5,324.5 Z"/></g>
<g><path style="opacity:0.016" fill="#210500" d="M 470.5,326.5 C 470.833,326.5 471.167,326.5 471.5,326.5C 471.315,327.17 470.981,327.17 470.5,326.5 Z"/></g>
<g><path style="opacity:0.004" fill="#130301" d="M 271.5,326.5 C 271.631,327.239 271.464,327.906 271,328.5C 270.308,327.563 270.475,326.897 271.5,326.5 Z"/></g>
<g><path style="opacity:0.016" fill="#210500" d="M 469.5,328.5 C 470.833,329.167 470.833,329.167 469.5,328.5 Z"/></g>
<g><path style="opacity:0.014" fill="#230200" d="M 468.5,329.5 C 468.833,329.5 469.167,329.5 469.5,329.5C 469.672,330.492 469.338,331.158 468.5,331.5C 468.5,330.833 468.5,330.167 468.5,329.5 Z"/></g>
<g><path style="opacity:0.016" fill="#210500" d="M 467.5,331.5 C 467.833,331.5 468.167,331.5 468.5,331.5C 468.315,332.17 467.981,332.17 467.5,331.5 Z"/></g>
<g><path style="opacity:0.012" fill="#230000" d="M 466.5,332.5 C 466.833,332.5 467.167,332.5 467.5,332.5C 467.167,335.167 466.833,335.167 466.5,332.5 Z"/></g>
<g><path style="opacity:0.004" fill="#130301" d="M 277.5,335.5 C 277.5,336.167 277.5,336.833 277.5,337.5C 276.167,336.833 276.167,336.167 277.5,335.5 Z"/></g>
<g><path style="opacity:1" fill="#140a04" d="M 374.5,338.5 C 371.5,339.167 368.5,339.833 365.5,340.5C 362.786,340.75 360.119,340.917 357.5,341C 362.972,338.985 368.638,338.152 374.5,338.5 Z"/></g>
<g><path style="opacity:1" fill="#4b2e1c" d="M 374.5,338.5 C 376.957,339.023 379.291,339.856 381.5,341C 376.227,340.661 370.893,340.494 365.5,340.5C 368.5,339.833 371.5,339.167 374.5,338.5 Z"/></g>
<g><path style="opacity:1" fill="#9e6246" d="M 457.5,370.5 C 451.591,374.902 446.091,379.902 441,385.5C 431.662,397.986 421.495,409.819 410.5,421C 394.24,432.077 376.24,436.41 356.5,434C 350.325,432.494 345.158,429.327 341,424.5C 329.73,406.223 315.897,390.056 299.5,376C 295.66,373.579 291.66,371.412 287.5,369.5C 286.833,376.655 286.167,383.655 285.5,390.5C 285.333,375.163 285.5,359.83 286,344.5C 291.551,350.019 297.385,355.186 303.5,360C 312.782,366.281 321.782,372.948 330.5,380C 337.396,384.947 345.063,387.947 353.5,389C 364.167,389.667 374.833,389.667 385.5,389C 398.354,387.735 410.02,383.401 420.5,376C 431.403,363.929 443.403,353.096 456.5,343.5C 457.498,352.475 457.832,361.475 457.5,370.5 Z"/></g>
<g><path style="opacity:1" fill="#b37954" d="M 457.5,370.5 C 457.095,391.456 459.262,412.122 464,432.5C 464.782,435.076 466.282,437.076 468.5,438.5C 469.072,435.023 469.072,431.689 468.5,428.5C 474.299,433.29 480.633,437.29 487.5,440.5C 491.247,466.105 487.914,490.772 477.5,514.5C 460.51,515.333 443.51,515.833 426.5,516C 415.4,517.773 406.233,522.94 399,531.5C 398.333,532.167 398.333,532.833 399,533.5C 405.861,525.985 414.361,521.485 424.5,520C 441.177,519.167 457.843,519.334 474.5,520.5C 466.646,535.531 456.313,548.698 443.5,560C 429.683,570.336 416.517,581.503 404,593.5C 398.56,599.382 394.393,606.049 391.5,613.5C 380.167,613.5 368.833,613.5 357.5,613.5C 351.663,601.478 343.663,590.978 333.5,582C 319.312,572.139 306.146,560.972 294,548.5C 286.365,540.052 280.199,530.718 275.5,520.5C 292.503,520.333 309.503,520.5 326.5,521C 335.597,522.299 343.431,526.132 350,532.5C 350.167,532.167 350.333,531.833 350.5,531.5C 344.598,524.713 337.265,520.213 328.5,518C 309.877,516.733 291.21,516.066 272.5,516C 260.896,491.733 257.063,466.233 261,439.5C 266.583,436.416 271.75,432.749 276.5,428.5C 276.992,432.389 275.992,436.055 273.5,439.5C 277.007,439.898 279.507,438.231 281,434.5C 283.728,419.966 285.228,405.3 285.5,390.5C 286.167,383.655 286.833,376.655 287.5,369.5C 291.66,371.412 295.66,373.579 299.5,376C 315.897,390.056 329.73,406.223 341,424.5C 345.158,429.327 350.325,432.494 356.5,434C 376.24,436.41 394.24,432.077 410.5,421C 421.495,409.819 431.662,397.986 441,385.5C 446.091,379.902 451.591,374.902 457.5,370.5 Z"/></g>
<g><path style="opacity:0.013" fill="#1f0200" d="M 277.5,337.5 C 277.833,337.5 278.167,337.5 278.5,337.5C 278.5,361.167 278.5,384.833 278.5,408.5C 277.502,385.006 277.169,361.339 277.5,337.5 Z"/></g>
<g><path style="opacity:0.014" fill="#1b0200" d="M 467.5,419.5 C 467.672,418.508 467.338,417.842 466.5,417.5C 466.806,414.615 466.473,411.948 465.5,409.5C 465.334,404.821 465.501,400.155 466,395.5C 466.325,403.067 467.159,410.567 468.5,418C 468.43,418.765 468.097,419.265 467.5,419.5 Z"/></g>
<g><path style="opacity:0.004" fill="#150201" d="M 471.5,423.5 C 472.497,422.287 473.497,422.454 474.5,424C 473.906,424.464 473.239,424.631 472.5,424.5C 471.833,424.5 471.5,424.167 471.5,423.5 Z"/></g>
<g><path style="opacity:0.012" fill="#210100" d="M 273.5,423.5 C 272.833,423.5 272.5,423.833 272.5,424.5C 271.833,424.5 271.167,424.5 270.5,424.5C 271.221,422.618 272.221,422.285 273.5,423.5 Z"/></g>
<g><path style="opacity:0.004" fill="#150201" d="M 475.5,426.5 C 476.497,425.287 477.497,425.454 478.5,427C 477.906,427.464 477.239,427.631 476.5,427.5C 475.833,427.5 475.5,427.167 475.5,426.5 Z"/></g>
<g><path style="opacity:0.014" fill="#220300" d="M 485.5,431.5 C 484.833,431.5 484.167,431.5 483.5,431.5C 484.548,429.067 485.214,429.067 485.5,431.5 Z"/></g>
<g><path style="opacity:1" fill="#00225c" d="M 351.5,613.5 C 339.833,613.5 328.167,613.5 316.5,613.5C 314.849,609.531 312.682,605.865 310,602.5C 295,588.833 280,575.167 265,561.5C 259.609,554.441 254.609,547.107 250,539.5C 234.037,508.059 227.204,474.726 229.5,439.5C 237.197,436.065 245.03,433.065 253,430.5C 254.167,430.667 255.333,430.833 256.5,431C 248.536,483.442 263.869,527.775 302.5,564C 316.317,574.336 329.483,585.503 342,597.5C 346.26,602.243 349.427,607.576 351.5,613.5 Z"/></g>
<g><path style="opacity:1" fill="#01225c" d="M 432.5,613.5 C 420.5,613.5 408.5,613.5 396.5,613.5C 399.384,607.779 402.884,602.445 407,597.5C 417.285,586.875 428.452,577.375 440.5,569C 482.722,533.685 499.722,488.685 491.5,434C 491.555,431.11 493.055,429.944 496,430.5C 503.97,433.065 511.803,436.065 519.5,439.5C 520.475,452.867 519.975,466.2 518,479.5C 514.062,510 502.729,537.334 484,561.5C 469,575.167 454,588.833 439,602.5C 436.318,605.865 434.151,609.531 432.5,613.5 Z"/></g>
<g><path style="opacity:0.016" fill="#1b0400" d="M 227.5,432.5 C 227.897,431.475 228.563,431.308 229.5,432C 228.906,432.464 228.239,432.631 227.5,432.5 Z"/></g>
<g><path style="opacity:1" fill="#00225d" d="M 294.5,594.5 C 269.833,594.5 245.167,594.5 220.5,594.5C 198.833,594.5 177.167,594.5 155.5,594.5C 153.454,552.345 155.288,510.345 161,468.5C 162.579,466.959 164.413,465.792 166.5,465C 176.793,461.844 187.126,458.844 197.5,456C 206.108,451.528 214.775,447.361 223.5,443.5C 223.764,459.277 225.264,474.944 228,490.5C 235.845,534.567 258.011,569.234 294.5,594.5 Z"/></g>
<g><path style="opacity:1" fill="#02235d" d="M 592.5,595.5 C 546.498,595.418 500.498,595.084 454.5,594.5C 460.396,588.874 466.729,583.707 473.5,579C 484.117,569.889 492.95,559.389 500,547.5C 517.578,514.795 526.078,479.795 525.5,442.5C 534.708,447.604 544.041,452.437 553.5,457C 565.123,459.195 576.289,462.695 587,467.5C 593.206,509.999 595.039,552.665 592.5,595.5 Z"/></g>
<g><path style="opacity:0.016" fill="#1b0400" d="M 547.5,447.5 C 547.897,446.475 548.563,446.308 549.5,447C 548.906,447.464 548.239,447.631 547.5,447.5 Z"/></g>
<g><path style="opacity:0.004" fill="#130301" d="M 550.5,448.5 C 550.897,447.475 551.563,447.308 552.5,448C 551.906,448.464 551.239,448.631 550.5,448.5 Z"/></g>
<g><path style="opacity:0.014" fill="#230200" d="M 554.5,450.5 C 554.897,449.475 555.563,449.308 556.5,450C 555.906,450.464 555.239,450.631 554.5,450.5 Z"/></g>
<g><path style="opacity:0.014" fill="#230200" d="M 557.5,451.5 C 557.897,450.475 558.563,450.308 559.5,451C 558.906,451.464 558.239,451.631 557.5,451.5 Z"/></g>
<g><path style="opacity:0.014" fill="#220300" d="M 185.5,452.5 C 186.251,451.427 187.251,451.26 188.5,452C 187.552,452.483 186.552,452.649 185.5,452.5 Z"/></g>
<g><path style="opacity:0.014" fill="#220300" d="M 560.5,452.5 C 561.251,451.427 562.251,451.26 563.5,452C 562.552,452.483 561.552,452.649 560.5,452.5 Z"/></g>
<g><path style="opacity:0.014" fill="#1e0300" d="M 180.5,453.5 C 181.601,452.402 182.934,452.235 184.5,453C 183.207,453.49 181.873,453.657 180.5,453.5 Z"/></g>
<g><path style="opacity:0.014" fill="#1e0300" d="M 564.5,453.5 C 565.601,452.402 566.934,452.235 568.5,453C 567.207,453.49 565.873,453.657 564.5,453.5 Z"/></g>
<g><path style="opacity:0.016" fill="#210500" d="M 133.5,472.5 C 134.833,473.167 134.833,473.167 133.5,472.5 Z"/></g>
<g><path style="opacity:1" fill="#e7e4e2" d="M 153.5,613.5 C 144.167,613.5 134.833,613.5 125.5,613.5C 125.181,595.423 125.514,577.423 126.5,559.5C 127.861,548.694 128.528,537.694 128.5,526.5C 128.579,512.388 129.746,498.388 132,484.5C 133.167,482 135,480.167 137.5,479C 143.167,476.5 148.833,474 154.5,471.5C 154.833,473.333 155.167,475.167 155.5,477C 154.539,487.855 153.372,498.689 152,509.5C 148.405,544.258 148.905,578.924 153.5,613.5 Z"/></g>
<g><path style="opacity:1" fill="#e6e3e2" d="M 623.5,613.5 C 614.167,613.5 604.833,613.5 595.5,613.5C 598.887,582.558 599.387,551.558 597,520.5C 595.399,503.808 594.066,487.142 593,470.5C 598.852,474.009 605.019,476.843 611.5,479C 613.333,480.833 615.167,482.667 617,484.5C 621.807,527.338 623.974,570.338 623.5,613.5 Z"/></g>
<g><path style="opacity:0.014" fill="#1f0200" d="M 624.5,486.5 C 623.833,486.5 623.5,486.167 623.5,485.5C 623.351,484.448 623.517,483.448 624,482.5C 624.465,483.931 625.299,485.097 626.5,486C 625.906,486.464 625.239,486.631 624.5,486.5 Z"/></g>
<g><path style="opacity:0.016" fill="#210500" d="M 631.5,489.5 C 632.833,490.167 632.833,490.167 631.5,489.5 Z"/></g>
<g><path style="opacity:0.016" fill="#210500" d="M 633.5,490.5 C 634.833,491.167 634.833,491.167 633.5,490.5 Z"/></g>
<g><path style="opacity:1" fill="#a46849" d="M 120.5,613.5 C 117.5,613.5 114.5,613.5 111.5,613.5C 111.849,607.655 111.016,601.988 109,596.5C 103.532,587.23 98.8654,577.564 95,567.5C 93.1083,561.158 93.1083,554.825 95,548.5C 98.8165,540.39 100.983,531.89 101.5,523C 102.076,517.723 100.909,512.89 98,508.5C 96.5557,506.845 94.7224,506.178 92.5,506.5C 103.852,504.153 114.519,499.82 124.5,493.5C 124.833,495.833 125.167,498.167 125.5,500.5C 121.982,538.062 120.315,575.729 120.5,613.5 Z"/></g>
<g><path style="opacity:1" fill="#a4684a" d="M 654.5,506.5 C 650.957,506.872 648.79,508.872 648,512.5C 646.473,518.415 646.139,524.415 647,530.5C 649.333,537.5 651.667,544.5 654,551.5C 654.632,557.214 654.299,562.881 653,568.5C 648.606,578.289 643.939,587.955 639,597.5C 637.197,602.682 636.364,608.016 636.5,613.5C 633.833,613.5 631.167,613.5 628.5,613.5C 628.423,574.929 626.757,536.429 623.5,498C 623.833,496.5 624.167,495 624.5,493.5C 633.989,499.426 643.989,503.759 654.5,506.5 Z"/></g>
<g><path style="opacity:1" fill="#b37954" d="M 92.5,506.5 C 94.7224,506.178 96.5557,506.845 98,508.5C 100.909,512.89 102.076,517.723 101.5,523C 100.983,531.89 98.8165,540.39 95,548.5C 93.1083,554.825 93.1083,561.158 95,567.5C 98.8654,577.564 103.532,587.23 109,596.5C 111.016,601.988 111.849,607.655 111.5,613.5C 76.1667,613.5 40.8333,613.5 5.5,613.5C 5.62039,608.063 6.45373,602.73 8,597.5C 17.4174,568.826 33.2508,544.326 55.5,524C 66.2858,514.941 78.6192,509.108 92.5,506.5 Z"/></g>
<g><path style="opacity:1" fill="#b37954" d="M 654.5,506.5 C 665.653,508.074 675.986,511.908 685.5,518C 701.483,530.982 714.983,546.148 726,563.5C 735.719,578.824 741.552,595.491 743.5,613.5C 707.833,613.5 672.167,613.5 636.5,613.5C 636.364,608.016 637.197,602.682 639,597.5C 643.939,587.955 648.606,578.289 653,568.5C 654.299,562.881 654.632,557.214 654,551.5C 651.667,544.5 649.333,537.5 647,530.5C 646.139,524.415 646.473,518.415 648,512.5C 648.79,508.872 650.957,506.872 654.5,506.5 Z"/></g>
<g><path style="opacity:0.004" fill="#150201" d="M 693.5,516.5 C 694.497,515.287 695.497,515.454 696.5,517C 695.906,517.464 695.239,517.631 694.5,517.5C 693.833,517.5 693.5,517.167 693.5,516.5 Z"/></g>
<g><path style="opacity:0.016" fill="#1e0200" d="M 712.5,535.5 C 711.833,535.5 711.5,535.167 711.5,534.5C 711.747,532.025 712.413,532.025 713.5,534.5C 713.376,535.107 713.043,535.44 712.5,535.5 Z"/></g>
<g><path style="opacity:0.004" fill="#150201" d="M 32.5,540.5 C 31.8333,540.5 31.5,540.833 31.5,541.5C 30.2875,540.503 30.4542,539.503 32,538.5C 32.4643,539.094 32.631,539.761 32.5,540.5 Z"/></g>
<g><path style="opacity:1" fill="#aca9a8" d="M 128.5,526.5 C 128.528,537.694 127.861,548.694 126.5,559.5C 126.472,548.306 127.139,537.306 128.5,526.5 Z"/></g>
<g><path style="opacity:0.016" fill="#1e0200" d="M 721.5,546.5 C 720.833,546.5 720.5,546.167 720.5,545.5C 720.747,543.025 721.413,543.025 722.5,545.5C 722.376,546.107 722.043,546.44 721.5,546.5 Z"/></g>
<g><path style="opacity:0.014" fill="#1e0200" d="M 6.5,583.5 C 6.16667,583.5 5.83333,583.5 5.5,583.5C 5.83333,579.5 6.16667,579.5 6.5,583.5 Z"/></g>
<g><path style="opacity:0.014" fill="#230200" d="M 5.5,583.5 C 5.63101,584.239 5.46434,584.906 5,585.5C 4.30831,584.563 4.47498,583.897 5.5,583.5 Z"/></g>
<g><path style="opacity:0.016" fill="#1d0400" d="M 3.5,591.5 C 3.16667,591.5 2.83333,591.5 2.5,591.5C 2.83333,587.5 3.16667,587.5 3.5,591.5 Z"/></g>
<g><path style="opacity:0.014" fill="#1e0200" d="M 2.5,591.5 C 2.64945,592.552 2.48278,593.552 2,594.5C 1.25988,593.251 1.42654,592.251 2.5,591.5 Z"/></g>
<g><path style="opacity:1" fill="#636982" d="M 155.5,594.5 C 177.167,594.5 198.833,594.5 220.5,594.5C 199.34,595.497 178.007,595.831 156.5,595.5C 156.5,597.5 156.5,599.5 156.5,601.5C 155.532,599.393 155.198,597.059 155.5,594.5 Z"/></g>
<g><path style="opacity:0.014" fill="#220300" d="M 1.5,598.5 C 1.16667,598.5 0.833333,598.5 0.5,598.5C 0.833333,594.5 1.16667,594.5 1.5,598.5 Z"/></g>
<g><path style="opacity:1" fill="#e9e6e5" d="M 220.5,594.5 C 245.167,594.5 269.833,594.5 294.5,594.5C 301.331,599.656 306.664,605.99 310.5,613.5C 259.5,613.5 208.5,613.5 157.5,613.5C 157.354,609.481 157.021,605.481 156.5,601.5C 156.5,599.5 156.5,597.5 156.5,595.5C 178.007,595.831 199.34,595.497 220.5,594.5 Z"/></g>
<g><path style="opacity:1" fill="#eae7e5" d="M 454.5,594.5 C 500.498,595.084 546.498,595.418 592.5,595.5C 592.324,601.572 591.657,607.572 590.5,613.5C 539.5,613.5 488.5,613.5 437.5,613.5C 442.083,606.247 447.75,599.914 454.5,594.5 Z"/></g>
<g><path style="opacity:0.014" fill="#1e0300" d="M -0.5,598.5 C -0.166667,598.5 0.166667,598.5 0.5,598.5C 0.767809,600.099 0.434475,601.432 -0.5,602.5C -0.5,601.167 -0.5,599.833 -0.5,598.5 Z"/></g>
<g><path style="opacity:0.013" fill="#1f0100" d="M 749.5,598.5 C 749.5,599.833 749.5,601.167 749.5,602.5C 749.167,602.5 748.833,602.5 748.5,602.5C 748.232,600.901 748.566,599.568 749.5,598.5 Z"/></g>
</svg>
