<?xml version="1.0" encoding="UTF-8"?>
<!DOCTYPE svg PUBLIC "-//W3C//DTD SVG 1.1//EN" "http://www.w3.org/Graphics/SVG/1.1/DTD/svg11.dtd">
<svg xmlns="http://www.w3.org/2000/svg" version="1.1" width="750px" height="581px" style="shape-rendering:geometricPrecision; text-rendering:geometricPrecision; image-rendering:optimizeQuality; fill-rule:evenodd; clip-rule:evenodd" xmlns:xlink="http://www.w3.org/1999/xlink">
<g><path style="opacity:0.962" fill="#1c0c02" d="M 356.5,-0.5 C 359.167,-0.5 361.833,-0.5 364.5,-0.5C 365.833,0.833333 367.167,0.833333 368.5,-0.5C 372.833,-0.5 377.167,-0.5 381.5,-0.5C 382.514,0.673734 383.847,1.3404 385.5,1.5C 393.377,1.76183 401.377,2.9285 409.5,5C 411.692,5.92601 413.692,7.09267 415.5,8.5C 420.833,10.9823 426.5,12.649 432.5,13.5C 432.833,14.5 433.5,15.1667 434.5,15.5C 441.097,16.9673 446.097,20.634 449.5,26.5C 449.842,27.3382 450.508,27.6716 451.5,27.5C 454.113,31.6149 457.279,35.2815 461,38.5C 461.875,41.4011 463.042,44.0677 464.5,46.5C 466.869,54.3485 470.536,61.3485 475.5,67.5C 478.062,75.325 480.729,82.9917 483.5,90.5C 483.5,91.1667 483.833,91.5 484.5,91.5C 485.846,93.5368 487.18,95.5368 488.5,97.5C 488.796,99.403 489.463,101.07 490.5,102.5C 490.586,103.496 490.252,104.329 489.5,105C 490.669,107.007 491.335,109.173 491.5,111.5C 490.521,114.625 490.187,117.958 490.5,121.5C 487.833,123.5 487.833,125.5 490.5,127.5C 490.5,130.833 490.5,134.167 490.5,137.5C 489.053,138.134 488.387,139.301 488.5,141C 488.773,142.533 489.106,144.033 489.5,145.5C 488.097,148.909 487.43,152.575 487.5,156.5C 486.527,158.948 486.194,161.615 486.5,164.5C 485.596,165.209 485.263,166.209 485.5,167.5C 484.539,169.265 484.205,171.265 484.5,173.5C 483.566,174.568 483.232,175.901 483.5,177.5C 482.427,178.251 482.26,179.251 483,180.5C 483.717,179.956 484.217,179.289 484.5,178.5C 485.791,178.737 486.791,178.404 487.5,177.5C 490.609,177.264 493.609,177.597 496.5,178.5C 496.5,179.167 496.833,179.5 497.5,179.5C 497.5,180.167 497.833,180.5 498.5,180.5C 500.533,184.565 502.533,188.565 504.5,192.5C 505.164,197.473 505.497,202.473 505.5,207.5C 504.51,213.31 504.177,219.31 504.5,225.5C 503.539,227.265 503.205,229.265 503.5,231.5C 502.596,232.209 502.263,233.209 502.5,234.5C 501.596,235.209 501.263,236.209 501.5,237.5C 500.662,237.842 500.328,238.508 500.5,239.5C 499.662,239.842 499.328,240.508 499.5,241.5C 498.662,241.842 498.328,242.508 498.5,243.5C 497.662,243.842 497.328,244.508 497.5,245.5C 496.662,245.842 496.328,246.508 496.5,247.5C 495.833,247.5 495.5,247.833 495.5,248.5C 494.662,248.842 494.328,249.508 494.5,250.5C 492.457,251.579 491.124,253.246 490.5,255.5C 489.833,255.5 489.5,255.833 489.5,256.5C 488.508,256.328 487.842,256.662 487.5,257.5C 485.847,257.66 484.514,258.326 483.5,259.5C 482.508,259.328 481.842,259.662 481.5,260.5C 478.784,260.678 476.117,261.178 473.5,262C 474.833,262.333 476.167,262.667 477.5,263C 474.304,263.805 471.304,263.638 468.5,262.5C 473.833,262.167 473.833,261.833 468.5,261.5C 467.828,260.733 466.995,260.066 466,259.5C 465.172,263.466 464.672,267.466 464.5,271.5C 463.549,272.919 463.216,274.585 463.5,276.5C 462.566,277.568 462.232,278.901 462.5,280.5C 459.59,316.055 460.09,351.722 464,387.5C 468.836,393.673 475.003,398.006 482.5,400.5C 482.842,401.338 483.508,401.672 484.5,401.5C 484.56,402.043 484.893,402.376 485.5,402.5C 486.386,401.675 486.719,400.675 486.5,399.5C 487.646,397.525 489.313,396.025 491.5,395C 495.984,394.269 500.318,394.769 504.5,396.5C 517.37,401.934 530.037,407.934 542.5,414.5C 546.247,416.878 550.247,419.045 554.5,421C 564.909,423.748 575.242,426.748 585.5,430C 595.919,435.876 606.586,441.209 617.5,446C 619.727,448.564 621.561,451.397 623,454.5C 623.333,453.833 623.667,453.167 624,452.5C 624.465,453.931 625.299,455.097 626.5,456C 625.833,456.333 625.167,456.667 624.5,457C 635.082,464.29 646.749,468.79 659.5,470.5C 662.619,471.87 665.952,472.87 669.5,473.5C 676.128,476.814 682.795,480.147 689.5,483.5C 709.195,499.25 724.862,518.25 736.5,540.5C 741.511,550.877 745.511,561.543 748.5,572.5C 748.216,574.415 748.549,576.081 749.5,577.5C 749.5,578.5 749.5,579.5 749.5,580.5C 747.5,580.5 745.5,580.5 743.5,580.5C 740.695,561.588 733.862,544.254 723,528.5C 712.904,512.838 700.404,499.338 685.5,488C 676.593,482.193 666.926,478.359 656.5,476.5C 645.148,474.153 634.481,469.82 624.5,463.5C 624.167,465.5 623.833,467.5 623.5,469.5C 626.532,506.439 628.199,543.439 628.5,580.5C 626.833,580.5 625.167,580.5 623.5,580.5C 623.785,539.408 621.951,498.408 618,457.5C 617.019,452.687 614.186,449.687 609.5,448.5C 606.449,446.648 603.116,445.314 599.5,444.5C 595.535,442.182 591.535,439.848 587.5,437.5C 584.394,435.732 581.061,434.232 577.5,433C 570.63,430.866 563.63,429.199 556.5,428C 546.325,423.412 536.325,418.578 526.5,413.5C 526.44,412.957 526.107,412.624 525.5,412.5C 524.504,418.463 524.171,424.463 524.5,430.5C 523.173,469.657 510.673,504.657 487,535.5C 478.193,545.3 468.36,553.8 457.5,561C 450.926,567.07 444.926,573.57 439.5,580.5C 437.833,580.5 436.167,580.5 434.5,580.5C 443.314,566.853 454.647,555.687 468.5,547C 492.879,525.423 508.379,498.589 515,466.5C 519.36,447.705 520.86,428.705 519.5,409.5C 517.22,408.298 514.886,407.298 512.5,406.5C 509.618,404.892 506.618,403.559 503.5,402.5C 500.849,401.51 498.183,400.51 495.5,399.5C 493.391,399.775 492.058,400.942 491.5,403C 499.939,458.031 482.939,503.365 440.5,539C 425.983,548.527 413.149,560.027 402,573.5C 400.295,575.577 399.128,577.91 398.5,580.5C 396.833,580.5 395.167,580.5 393.5,580.5C 395.955,574.206 399.455,568.54 404,563.5C 415.999,551.598 428.832,540.764 442.5,531C 455.643,519.368 466.309,505.868 474.5,490.5C 457.843,489.334 441.177,489.167 424.5,490C 413.847,491.575 405.014,496.409 398,504.5C 403.622,494.939 412.122,489.106 423.5,487C 441.466,485.901 459.466,485.068 477.5,484.5C 487.944,460.501 491.444,435.501 488,409.5C 479.424,406.714 471.757,402.38 465,396.5C 465.32,399.46 465.32,402.46 465,405.5C 463.088,403.343 461.421,401.009 460,398.5C 457.575,382.248 456.075,365.915 455.5,349.5C 455.667,333.497 455.5,317.497 455,301.5C 454.283,302.044 453.783,302.711 453.5,303.5C 451.538,308.757 449.038,313.757 446,318.5C 435.825,331.014 426.825,344.347 419,358.5C 407.511,369.673 393.678,375.84 377.5,377C 364.988,378.15 352.655,377.15 340.5,374C 329.899,370.787 321.066,364.954 314,356.5C 305.051,343.883 295.717,331.55 286,319.5C 285.735,328.014 286.235,336.347 287.5,344.5C 287.667,356.505 287.5,368.505 287,380.5C 286.769,387.952 285.769,395.285 284,402.5C 283.385,404.116 282.385,405.449 281,406.5C 280.824,403.118 280.324,399.785 279.5,396.5C 273.771,401.449 267.604,405.782 261,409.5C 257.208,436.196 261.042,461.696 272.5,486C 291.21,486.066 309.877,486.733 328.5,488C 337.265,490.213 344.598,494.713 350.5,501.5C 350.333,501.833 350.167,502.167 350,502.5C 343.431,496.132 335.597,492.299 326.5,491C 309.503,490.5 292.503,490.333 275.5,490.5C 280.199,500.718 286.365,510.052 294,518.5C 304.285,529.125 315.452,538.625 327.5,547C 336.704,554.537 344.871,563.037 352,572.5C 353.454,575.071 354.62,577.738 355.5,580.5C 353.833,580.5 352.167,580.5 350.5,580.5C 349.872,577.91 348.705,575.577 347,573.5C 335.851,560.027 323.017,548.527 308.5,539C 266.055,503.346 249.055,458.013 257.5,403C 256.942,400.942 255.609,399.775 253.5,399.5C 250.655,400.114 247.988,401.114 245.5,402.5C 242.378,403.561 239.378,404.895 236.5,406.5C 233.95,407.358 231.45,408.358 229,409.5C 226.899,447.67 235.232,483.336 254,516.5C 265.167,533 279,546.833 295.5,558C 303.194,564.513 309.528,572.013 314.5,580.5C 312.833,580.5 311.167,580.5 309.5,580.5C 299.919,568.085 288.585,557.585 275.5,549C 249.847,524.536 234.014,494.702 228,459.5C 226.504,450.863 225.337,442.196 224.5,433.5C 224.83,426.468 224.497,419.468 223.5,412.5C 222.893,412.624 222.56,412.957 222.5,413.5C 213.341,418.245 204.008,422.745 194.5,427C 187.869,428.793 181.202,430.46 174.5,432C 169.027,433.316 164.027,435.482 159.5,438.5C 155.993,440.754 152.327,442.754 148.5,444.5C 145.314,445.597 142.314,446.93 139.5,448.5C 138.508,448.328 137.842,448.662 137.5,449.5C 134.888,450.277 133.055,451.944 132,454.5C 127.158,496.333 124.991,538.333 125.5,580.5C 123.833,580.5 122.167,580.5 120.5,580.5C 120.672,543.438 122.338,506.438 125.5,469.5C 125.167,467.5 124.833,465.5 124.5,463.5C 114.247,470.023 103.247,474.356 91.5,476.5C 80.2192,478.807 69.8858,483.307 60.5,490C 31.6083,513.73 13.275,543.897 5.5,580.5C 3.5,580.5 1.5,580.5 -0.5,580.5C -0.5,579.833 -0.5,579.167 -0.5,578.5C 0.833333,578.167 0.833333,577.833 -0.5,577.5C -0.5,577.167 -0.5,576.833 -0.5,576.5C 1.03954,574.162 1.70621,571.495 1.5,568.5C 2.92381,566.485 3.59047,564.152 3.5,561.5C 4.73838,559.786 5.40505,557.786 5.5,555.5C 9.48062,547.539 13.4806,539.539 17.5,531.5C 23.3325,522.517 29.6658,513.85 36.5,505.5C 37.1667,505.5 37.5,505.167 37.5,504.5C 42.8333,498.5 48.5,492.833 54.5,487.5C 55.1667,487.5 55.5,487.167 55.5,486.5C 68.6874,477.077 83.354,471.244 99.5,469C 108.504,466.331 116.837,462.331 124.5,457C 123.833,456.667 123.167,456.333 122.5,456C 123.701,455.097 124.535,453.931 125,452.5C 125.333,453.167 125.667,453.833 126,454.5C 127.439,451.397 129.273,448.564 131.5,446C 142.414,441.209 153.081,435.876 163.5,430C 173.758,426.748 184.091,423.748 194.5,421C 212.198,410.984 230.531,402.318 249.5,395C 255.077,393.379 259.411,394.879 262.5,399.5C 262.957,401.557 263.957,401.557 265.5,399.5C 270.09,397.238 274.09,394.238 277.5,390.5C 278.167,390.5 278.5,390.167 278.5,389.5C 279.478,389.189 280.145,388.522 280.5,387.5C 279.379,381.886 279.212,376.22 280,370.5C 280.667,373.167 281.333,373.167 282,370.5C 282.632,364.786 282.299,359.119 281,353.5C 280.667,355.167 280.333,356.833 280,358.5C 279.452,347.499 278.952,336.499 278.5,325.5C 279.63,319.452 279.297,313.452 277.5,307.5C 277.784,305.585 277.451,303.919 276.5,302.5C 276.737,301.209 276.404,300.209 275.5,299.5C 275.101,295.884 274.101,292.55 272.5,289.5C 272.784,287.585 272.451,285.919 271.5,284.5C 270.99,280.116 270.157,275.782 269,271.5C 265.35,272.708 261.85,272.208 258.5,270C 255.933,267.604 253.6,265.104 251.5,262.5C 250.974,260.77 249.974,259.436 248.5,258.5C 248.672,257.508 248.338,256.842 247.5,256.5C 247.068,255.29 246.401,254.29 245.5,253.5C 245.672,252.508 245.338,251.842 244.5,251.5C 244.167,248.833 243.833,248.833 243.5,251.5C 242.596,250.791 242.263,249.791 242.5,248.5C 243.484,246.402 243.151,244.402 241.5,242.5C 241.768,240.901 241.434,239.568 240.5,238.5C 240.405,236.214 239.738,234.214 238.5,232.5C 238.008,230.181 237.008,228.181 235.5,226.5C 234.623,217.867 234.289,209.2 234.5,200.5C 236.705,195.622 240.039,191.622 244.5,188.5C 246.557,188.043 246.557,187.043 244.5,185.5C 244.167,184.167 243.833,182.833 243.5,181.5C 244.833,180.5 244.833,179.5 243.5,178.5C 243.737,177.209 243.404,176.209 242.5,175.5C 242.737,174.209 242.404,173.209 241.5,172.5C 241.768,170.901 241.434,169.568 240.5,168.5C 239.817,163.613 238.817,158.78 237.5,154C 238.285,149.197 238.618,144.363 238.5,139.5C 237.5,139.5 236.5,139.5 235.5,139.5C 235.337,137.143 235.503,134.81 236,132.5C 236.667,135.167 237.333,135.167 238,132.5C 238.709,126.999 240.042,121.665 242,116.5C 242.333,111.5 242.667,106.5 243,101.5C 244.352,98.4233 244.186,95.4233 242.5,92.5C 242.167,88.5 241.833,88.5 241.5,92.5C 240.378,90.7116 240.211,88.7116 241,86.5C 241.667,89.1667 242.333,89.1667 243,86.5C 244.015,82.5598 244.515,78.5598 244.5,74.5C 245.675,74.719 246.675,74.3857 247.5,73.5C 249.435,70.062 251.935,67.062 255,64.5C 256.746,60.6733 258.746,57.0066 261,53.5C 262.378,51.7866 264.045,50.4533 266,49.5C 266.499,44.8392 268.332,40.8392 271.5,37.5C 272.167,37.5 272.5,37.1667 272.5,36.5C 273.167,36.5 273.5,36.1667 273.5,35.5C 274.882,34.1995 276.548,33.3661 278.5,33C 282.101,28.8893 286.101,25.3893 290.5,22.5C 295.708,16.5498 302.041,12.0498 309.5,9C 314.114,7.45409 318.781,6.12076 323.5,5C 322.5,4.66667 321.5,4.33333 320.5,4C 322.101,3.72662 323.601,3.22662 325,2.5C 325.333,3.16667 325.667,3.83333 326,4.5C 327.8,2.68297 329.966,1.5163 332.5,1C 340.677,0.82923 348.677,0.32923 356.5,-0.5 Z M 483.5,177.5 C 483.5,178.167 483.833,178.5 484.5,178.5C 484.217,179.289 483.717,179.956 483,180.5C 482.26,179.251 482.427,178.251 483.5,177.5 Z M 262.5,399.5 C 263.5,399.5 264.5,399.5 265.5,399.5C 263.957,401.557 262.957,401.557 262.5,399.5 Z M 485.5,399.5 C 485.833,399.5 486.167,399.5 486.5,399.5C 486.719,400.675 486.386,401.675 485.5,402.5C 484.893,402.376 484.56,402.043 484.5,401.5C 485.338,401.158 485.672,400.492 485.5,399.5 Z"/></g>
<g><path style="opacity:0.016" fill="#160100" d="M 385.5,1.5 C 387.288,0.377527 389.288,0.210861 391.5,1C 389.527,1.49546 387.527,1.66212 385.5,1.5 Z"/></g>
<g><path style="opacity:0.016" fill="#1b0100" d="M 415.5,8.5 C 416.601,7.40168 417.934,7.23502 419.5,8C 418.207,8.49001 416.873,8.65668 415.5,8.5 Z"/></g>
<g><path style="opacity:0.004" fill="#0f0000" d="M 420.5,9.5 C 420.897,8.47498 421.563,8.30831 422.5,9C 421.906,9.46434 421.239,9.63101 420.5,9.5 Z"/></g>
<g><path style="opacity:0.016" fill="#1f0200" d="M 432.5,12.5 C 433.833,13.1667 433.833,13.1667 432.5,12.5 Z"/></g>
<g><path style="opacity:0.016" fill="#150100" d="M 434.5,15.5 C 434.369,14.7611 434.536,14.0944 435,13.5C 439.705,14.8823 439.539,15.5489 434.5,15.5 Z"/></g>
<g><path style="opacity:0.016" fill="#1f0200" d="M 290.5,22.5 C 287.999,22.4891 287.832,21.8224 290,20.5C 290.464,21.0944 290.631,21.7611 290.5,22.5 Z"/></g>
<g><path style="opacity:0.004" fill="#0b0000" d="M 451.5,26.5 C 450.833,26.5 450.167,26.5 449.5,26.5C 449.786,24.0673 450.452,24.0673 451.5,26.5 Z"/></g>
<g><path style="opacity:0.016" fill="#1f0200" d="M 451.5,26.5 C 452.833,27.1667 452.833,27.1667 451.5,26.5 Z"/></g>
<g><path style="opacity:0.004" fill="#000000" d="M 453.5,27.5 C 454.833,28.1667 454.833,28.1667 453.5,27.5 Z"/></g>
<g><path style="opacity:0.004" fill="#000000" d="M 273.5,35.5 C 272.833,35.5 272.5,35.8333 272.5,36.5C 271.833,36.5 271.5,36.8333 271.5,37.5C 270.475,37.1034 270.308,36.4368 271,35.5C 271.977,34.2264 272.811,34.2264 273.5,35.5 Z"/></g>
<g><path style="opacity:0.016" fill="#180100" d="M 464.5,46.5 C 464.369,45.7611 464.536,45.0944 465,44.5C 465.692,45.4368 465.525,46.1034 464.5,46.5 Z"/></g>
<g><path style="opacity:1" fill="#8d3f32" d="M 379.5,60.5 C 392.623,78.3743 398.123,98.3743 396,120.5C 394.196,129.097 391.03,137.097 386.5,144.5C 385.167,145.167 383.833,145.833 382.5,146.5C 374.914,147.129 368.581,150.129 363.5,155.5C 362.164,159.51 362.33,163.51 364,167.5C 369.928,177.353 374.761,187.687 378.5,198.5C 379.462,200.986 380.295,200.986 381,198.5C 385.834,204.306 392,208.139 399.5,210C 411.862,214.568 424.196,214.568 436.5,210C 440.626,207.538 444.459,204.705 448,201.5C 449.653,201.82 450.653,202.82 451,204.5C 453.867,216.057 452.534,227.057 447,237.5C 442.936,241.786 438.103,244.952 432.5,247C 425.053,252.403 422.553,259.57 425,268.5C 430.272,287.539 426.939,304.872 415,320.5C 409.032,327.469 402.699,334.136 396,340.5C 391.55,347.739 386.383,354.406 380.5,360.5C 372.716,360.24 364.883,360.573 357,361.5C 351.127,361.443 345.293,360.943 339.5,360C 337.277,357.777 334.611,356.444 331.5,356C 329.256,353.826 326.923,351.826 324.5,350C 321.523,349.519 318.857,348.352 316.5,346.5C 317.891,344.064 317.391,343.398 315,344.5C 313.638,339.188 311.805,334.188 309.5,329.5C 308.692,331.423 308.192,333.423 308,335.5C 307.64,333.392 306.973,331.392 306,329.5C 305.111,330.888 304.611,330.722 304.5,329C 306.068,326.369 305.568,324.203 303,322.5C 302.493,323.996 302.993,325.163 304.5,326C 303.354,326.645 302.354,327.478 301.5,328.5C 300.85,325.035 299.35,322.035 297,319.5C 296.291,311.065 294.958,310.731 293,318.5C 291.324,315.961 291.491,313.461 293.5,311C 291.234,309.486 290.068,307.319 290,304.5C 289.311,303.643 288.478,302.977 287.5,302.5C 285.958,303.747 284.458,303.747 283,302.5C 282.265,300.129 281.432,297.795 280.5,295.5C 280.833,295.167 281.167,294.833 281.5,294.5C 282.333,295.5 283.167,296.5 284,297.5C 288.27,289.057 286.937,287.39 280,292.5C 279.023,290.26 278.523,287.927 278.5,285.5C 280.942,285.881 281.609,285.214 280.5,283.5C 281.5,282.833 282.5,282.167 283.5,281.5C 283.154,280.304 282.654,280.304 282,281.5C 280.956,279.285 280.29,276.952 280,274.5C 279.282,273.549 278.449,273.383 277.5,274C 278.731,275.183 278.731,276.349 277.5,277.5C 276.544,276.135 275.878,274.635 275.5,273C 276.906,269.284 276.239,265.951 273.5,263C 271.119,251.203 267.952,239.703 264,228.5C 263.165,218.447 261.998,208.447 260.5,198.5C 261.641,195.245 262.474,191.911 263,188.5C 263.135,178.451 263.802,168.451 265,158.5C 266.115,154.271 267.781,150.271 270,146.5C 273.247,142.341 276.247,138.008 279,133.5C 280.624,119.448 283.624,105.781 288,92.5C 294.26,79.9169 304.094,71.0835 317.5,66C 322.054,64.2595 326.721,62.9261 331.5,62C 342.868,61.5722 354.202,60.7389 365.5,59.5C 370.186,59.6861 374.853,60.0194 379.5,60.5 Z"/></g>
<g><path style="opacity:1" fill="#7b3129" d="M 379.5,60.5 C 395.907,59.6192 411.24,63.1192 425.5,71C 431.765,75.2633 436.598,80.7633 440,87.5C 444.309,100.458 447.642,113.458 450,126.5C 454.807,135.116 458.807,144.116 462,153.5C 463.882,161.722 464.882,170.055 465,178.5C 465.699,184.332 467.033,189.999 469,195.5C 469.747,202.882 469.414,210.215 468,217.5C 463.838,233.552 459.838,249.552 456,265.5C 455.272,268.23 455.438,270.897 456.5,273.5C 456.167,273.833 455.833,274.167 455.5,274.5C 454.757,273.092 453.923,271.759 453,270.5C 452.667,270.833 452.333,271.167 452,271.5C 452.227,273.574 452.061,275.574 451.5,277.5C 452.262,277.911 453.262,278.077 454.5,278C 452.333,279.5 450.5,281.333 449,283.5C 448.689,284.742 449.189,285.742 450.5,286.5C 449.726,287.711 448.893,287.711 448,286.5C 447.115,289 445.948,291.333 444.5,293.5C 446.007,295.969 445.673,298.135 443.5,300C 445.902,301.471 445.736,302.971 443,304.5C 442.751,303.376 442.251,302.376 441.5,301.5C 441.308,303.805 440.974,306.138 440.5,308.5C 439.702,306.922 439.202,305.256 439,303.5C 439.037,307.178 437.871,310.344 435.5,313C 435.95,314.285 436.617,315.452 437.5,316.5C 436.675,317.386 435.675,317.719 434.5,317.5C 434.966,319.201 434.966,320.701 434.5,322C 436.701,322.777 436.701,323.944 434.5,325.5C 433.646,324.052 432.646,322.719 431.5,321.5C 432.074,319.941 432.74,318.441 433.5,317C 433,316.5 432.5,316 432,315.5C 429.842,318.506 428.342,321.839 427.5,325.5C 428.698,325.94 429.865,326.273 431,326.5C 431.667,327.833 431.667,329.167 431,330.5C 430.009,329.061 428.676,328.061 427,327.5C 425.788,331.427 424.788,335.427 424,339.5C 423.333,338.167 422.667,336.833 422,335.5C 421.667,335.833 421.333,336.167 421,336.5C 421.701,340.169 421.368,343.836 420,347.5C 418.883,346.051 418.216,344.384 418,342.5C 415.512,345.323 412.678,346.823 409.5,347C 407.343,348.981 405.676,351.314 404.5,354C 401.588,355.24 398.921,356.906 396.5,359C 391.207,359.977 385.874,360.477 380.5,360.5C 386.383,354.406 391.55,347.739 396,340.5C 402.699,334.136 409.032,327.469 415,320.5C 426.939,304.872 430.272,287.539 425,268.5C 422.553,259.57 425.053,252.403 432.5,247C 438.103,244.952 442.936,241.786 447,237.5C 452.534,227.057 453.867,216.057 451,204.5C 450.653,202.82 449.653,201.82 448,201.5C 444.459,204.705 440.626,207.538 436.5,210C 424.196,214.568 411.862,214.568 399.5,210C 392,208.139 385.834,204.306 381,198.5C 380.295,200.986 379.462,200.986 378.5,198.5C 379.147,197.726 379.48,196.726 379.5,195.5C 376.843,183.521 372.01,172.521 365,162.5C 364.814,159.964 364.314,157.631 363.5,155.5C 368.581,150.129 374.914,147.129 382.5,146.5C 381.54,147.283 380.873,148.45 380.5,150C 380.615,151.895 381.282,153.562 382.5,155C 385.598,155.918 388.765,156.418 392,156.5C 402.564,155.809 413.064,154.976 423.5,154C 431.57,155.618 438.403,159.452 444,165.5C 444.187,160.968 443.187,156.634 441,152.5C 436.916,149.874 432.75,147.374 428.5,145C 420.898,143.795 413.231,142.961 405.5,142.5C 399.2,143.543 392.867,144.21 386.5,144.5C 391.03,137.097 394.196,129.097 396,120.5C 398.123,98.3743 392.623,78.3743 379.5,60.5 Z"/></g>
<g><path style="opacity:0.016" fill="#180100" d="M 253.5,61.5 C 254.525,61.8966 254.692,62.5632 254,63.5C 253.536,62.9056 253.369,62.2389 253.5,61.5 Z"/></g>
<g><path style="opacity:0.016" fill="#1f0200" d="M 476.5,67.5 C 475.833,66.1667 475.833,66.1667 476.5,67.5 Z"/></g>
<g><path style="opacity:0.016" fill="#1f0200" d="M 476.5,67.5 C 477.833,68.1667 477.833,68.1667 476.5,67.5 Z"/></g>
<g><path style="opacity:0.016" fill="#1d0100" d="M 242.5,74.5 C 243.622,76.2884 243.789,78.2884 243,80.5C 242.505,78.5273 242.338,76.5273 242.5,74.5 Z"/></g>
<g><path style="opacity:0.016" fill="#1b0100" d="M 241.5,81.5 C 242.598,82.6009 242.765,83.9343 242,85.5C 241.51,84.2068 241.343,82.8734 241.5,81.5 Z"/></g>
<g><path style="opacity:0.004" fill="#0a0000" d="M 484.5,91.5 C 483.833,91.5 483.5,91.1667 483.5,90.5C 483.543,83.9567 484.21,83.9567 485.5,90.5C 485.376,91.1067 485.043,91.44 484.5,91.5 Z"/></g>
<g><path style="opacity:0.016" fill="#180100" d="M 241.5,92.5 C 241.833,92.5 242.167,92.5 242.5,92.5C 242.167,99.1667 241.833,99.1667 241.5,92.5 Z"/></g>
<g><path style="opacity:0.016" fill="#180100" d="M 488.5,97.5 C 488.369,96.7611 488.536,96.0944 489,95.5C 489.692,96.4368 489.525,97.1034 488.5,97.5 Z"/></g>
<g><path style="opacity:0.016" fill="#140100" d="M 491.5,102.5 C 491.167,102.5 490.833,102.5 490.5,102.5C 490.833,98.5 491.167,98.5 491.5,102.5 Z"/></g>
<g><path style="opacity:0.016" fill="#1b0100" d="M 240.5,101.5 C 241.648,105.981 241.815,110.648 241,115.5C 240.501,110.845 240.334,106.179 240.5,101.5 Z"/></g>
<g><path style="opacity:0.004" fill="#000000" d="M 491.5,102.5 C 492.833,103.167 492.833,103.167 491.5,102.5 Z"/></g>
<g><path style="opacity:0.016" fill="#140100" d="M 492.5,111.5 C 492.351,110.448 492.517,109.448 493,108.5C 493.74,109.749 493.573,110.749 492.5,111.5 Z"/></g>
<g><path style="opacity:0.004" fill="#0b0000" d="M 239.5,116.5 C 240.573,117.251 240.74,118.251 240,119.5C 239.517,118.552 239.351,117.552 239.5,116.5 Z"/></g>
<g><path style="opacity:0.016" fill="#180100" d="M 491.5,111.5 C 491.833,111.5 492.167,111.5 492.5,111.5C 492.813,115.042 492.479,118.375 491.5,121.5C 491.5,118.167 491.5,114.833 491.5,111.5 Z"/></g>
<g><path style="opacity:0.016" fill="#1f0200" d="M 490.5,121.5 C 490.833,121.5 491.167,121.5 491.5,121.5C 491.167,124.167 490.833,124.167 490.5,121.5 Z"/></g>
<g><path style="opacity:0.016" fill="#180100" d="M 490.5,127.5 C 490.369,126.761 490.536,126.094 491,125.5C 491.692,126.437 491.525,127.103 490.5,127.5 Z"/></g>
<g><path style="opacity:0.016" fill="#1b0100" d="M 491.5,137.5 C 491.335,134.482 491.502,131.482 492,128.5C 492.805,131.696 492.638,134.696 491.5,137.5 Z"/></g>
<g><path style="opacity:0.004" fill="#000000" d="M 490.5,137.5 C 490.833,137.5 491.167,137.5 491.5,137.5C 491.315,138.17 490.981,138.17 490.5,137.5 Z"/></g>
<g><path style="opacity:1" fill="#1b0b01" d="M 382.5,146.5 C 383.833,145.833 385.167,145.167 386.5,144.5C 392.867,144.21 399.2,143.543 405.5,142.5C 413.231,142.961 420.898,143.795 428.5,145C 432.75,147.374 436.916,149.874 441,152.5C 443.187,156.634 444.187,160.968 444,165.5C 438.403,159.452 431.57,155.618 423.5,154C 413.064,154.976 402.564,155.809 392,156.5C 388.765,156.418 385.598,155.918 382.5,155C 381.282,153.562 380.615,151.895 380.5,150C 380.873,148.45 381.54,147.283 382.5,146.5 Z"/></g>
<g><path style="opacity:0.004" fill="#000000" d="M 490.5,145.5 C 490.369,144.761 490.536,144.094 491,143.5C 491.692,144.437 491.525,145.103 490.5,145.5 Z"/></g>
<g><path style="opacity:1" fill="#1b0b01" d="M 332.5,145.5 C 335.023,146.254 337.689,146.92 340.5,147.5C 342.38,151.892 341.38,155.392 337.5,158C 330.761,158.175 324.094,157.508 317.5,156C 303.248,152.665 290.915,155.831 280.5,165.5C 279.571,164.311 279.238,162.978 279.5,161.5C 283.059,151.789 290.059,146.289 300.5,145C 311.203,143.027 321.87,143.193 332.5,145.5 Z"/></g>
<g><path style="opacity:0.016" fill="#1c0100" d="M 489.5,145.5 C 489.833,145.5 490.167,145.5 490.5,145.5C 490.167,152.167 489.833,152.167 489.5,145.5 Z"/></g>
<g><path style="opacity:0.016" fill="#1c0100" d="M 488.5,156.5 C 488.34,154.801 488.506,153.134 489,151.5C 489.78,153.387 489.613,155.054 488.5,156.5 Z"/></g>
<g><path style="opacity:1" fill="#793028" d="M 332.5,145.5 C 335.833,145.5 339.167,145.5 342.5,145.5C 342.605,155.348 342.272,165.181 341.5,175C 348.45,195.116 341.45,206.449 320.5,209C 309.457,209.609 298.457,209.109 287.5,207.5C 282.902,207.4 278.568,208.4 274.5,210.5C 273.432,208.813 273.599,207.146 275,205.5C 285.38,199.215 286.046,192.215 277,184.5C 275.948,176.488 276.781,168.821 279.5,161.5C 279.238,162.978 279.571,164.311 280.5,165.5C 290.915,155.831 303.248,152.665 317.5,156C 324.094,157.508 330.761,158.175 337.5,158C 341.38,155.392 342.38,151.892 340.5,147.5C 337.689,146.92 335.023,146.254 332.5,145.5 Z"/></g>
<g><path style="opacity:0.016" fill="#170100" d="M 487.5,156.5 C 487.833,156.5 488.167,156.5 488.5,156.5C 488.806,159.385 488.473,162.052 487.5,164.5C 487.5,161.833 487.5,159.167 487.5,156.5 Z"/></g>
<g><path style="opacity:1" fill="#170a01" d="M 403.5,163.5 C 416.879,161.528 427.879,165.694 436.5,176C 431.536,172.785 426.203,169.785 420.5,167C 407.791,163.673 397.125,166.84 388.5,176.5C 388.167,176.333 387.833,176.167 387.5,176C 391.825,170.504 397.159,166.337 403.5,163.5 Z"/></g>
<g><path style="opacity:0.004" fill="#0f0000" d="M 486.5,164.5 C 486.833,164.5 487.167,164.5 487.5,164.5C 487.167,167.167 486.833,167.167 486.5,164.5 Z"/></g>
<g><path style="opacity:1" fill="#170a01" d="M 301.5,164.5 C 308.361,163.965 315.028,164.798 321.5,167C 324.311,168.644 326.644,170.81 328.5,173.5C 327.998,174.521 327.332,174.688 326.5,174C 318.355,166.18 309.021,164.513 298.5,169C 294.569,171.132 291.236,173.965 288.5,177.5C 288.167,177.333 287.833,177.167 287.5,177C 291.12,171.541 295.786,167.374 301.5,164.5 Z"/></g>
<g><path style="opacity:0.016" fill="#170100" d="M 485.5,167.5 C 486.833,169.5 486.833,171.5 485.5,173.5C 485.5,171.5 485.5,169.5 485.5,167.5 Z"/></g>
<g><path style="opacity:0.016" fill="#170100" d="M 240.5,168.5 C 240.5,169.833 240.5,171.167 240.5,172.5C 239.167,171.167 239.167,169.833 240.5,168.5 Z"/></g>
<g><path style="opacity:0.016" fill="#140100" d="M 240.5,172.5 C 240.833,172.5 241.167,172.5 241.5,172.5C 241.5,173.5 241.5,174.5 241.5,175.5C 240.596,174.791 240.263,173.791 240.5,172.5 Z"/></g>
<g><path style="opacity:1" fill="#1d0f06" d="M 408.5,172.5 C 419.384,171.96 428.384,175.793 435.5,184C 426.035,191.229 415.368,193.896 403.5,192C 397.612,190.372 391.612,189.372 385.5,189C 384.549,188.282 384.383,187.449 385,186.5C 391.963,180.37 399.796,175.704 408.5,172.5 Z"/></g>
<g><path style="opacity:0.016" fill="#190100" d="M 484.5,173.5 C 484.833,173.5 485.167,173.5 485.5,173.5C 485.527,175.199 486.194,176.533 487.5,177.5C 486.5,177.5 485.5,177.5 484.5,177.5C 484.5,176.167 484.5,174.833 484.5,173.5 Z"/></g>
<g><path style="opacity:1" fill="#1e1008" d="M 304.5,174.5 C 310.853,173.901 316.853,175.068 322.5,178C 325.934,180.435 329.6,182.435 333.5,184C 335.019,185.351 336.352,186.851 337.5,188.5C 337.291,189.086 336.957,189.586 336.5,190C 329.668,190.499 323.001,191.833 316.5,194C 305.231,195.986 295.231,193.486 286.5,186.5C 291.232,180.476 297.232,176.476 304.5,174.5 Z"/></g>
<g><path style="opacity:0.016" fill="#140100" d="M 241.5,175.5 C 241.833,175.5 242.167,175.5 242.5,175.5C 242.5,176.5 242.5,177.5 242.5,178.5C 241.596,177.791 241.263,176.791 241.5,175.5 Z"/></g>
<g><path style="opacity:1" fill="#190a01" d="M 363.5,155.5 C 364.314,157.631 364.814,159.964 365,162.5C 372.01,172.521 376.843,183.521 379.5,195.5C 379.48,196.726 379.147,197.726 378.5,198.5C 374.761,187.687 369.928,177.353 364,167.5C 362.33,163.51 362.164,159.51 363.5,155.5 Z"/></g>
<g><path style="opacity:0.004" fill="#070000" d="M 496.5,178.5 C 496.897,177.475 497.563,177.308 498.5,178C 499.774,178.977 499.774,179.811 498.5,180.5C 497.833,180.5 497.5,180.167 497.5,179.5C 496.833,179.5 496.5,179.167 496.5,178.5 Z"/></g>
<g><path style="opacity:1" fill="#807d7b" d="M 426.5,181.5 C 424.565,180.85 422.565,180.517 420.5,180.5C 420.795,182.735 420.461,184.735 419.5,186.5C 419.968,182.869 419.301,179.535 417.5,176.5C 417.833,176.167 418.167,175.833 418.5,175.5C 420.385,176.609 422.385,177.443 424.5,178C 425.823,178.816 426.489,179.983 426.5,181.5 Z"/></g>
<g><path style="opacity:0.016" fill="#140100" d="M 242.5,178.5 C 242.833,178.5 243.167,178.5 243.5,178.5C 243.5,179.5 243.5,180.5 243.5,181.5C 242.596,180.791 242.263,179.791 242.5,178.5 Z"/></g>
<g><path style="opacity:1" fill="#dedddc" d="M 408.5,182.5 C 407.167,182.5 405.833,182.5 404.5,182.5C 404.5,181.5 404.5,180.5 404.5,179.5C 405.833,179.5 407.167,179.5 408.5,179.5C 408.5,180.5 408.5,181.5 408.5,182.5 Z"/></g>
<g><path style="opacity:1" fill="#84817f" d="M 301.5,186.5 C 300.698,185.048 300.198,183.382 300,181.5C 298.67,182.582 297.17,183.249 295.5,183.5C 296.596,179.789 298.929,178.456 302.5,179.5C 301.626,181.747 301.292,184.08 301.5,186.5 Z"/></g>
<g><path style="opacity:1" fill="#edecec" d="M 426.5,181.5 C 426.722,187.724 423.722,190.224 417.5,189C 418.381,188.292 419.047,187.458 419.5,186.5C 420.461,184.735 420.795,182.735 420.5,180.5C 422.565,180.517 424.565,180.85 426.5,181.5 Z"/></g>
<g><path style="opacity:1" fill="#7e7b79" d="M 326.5,184.5 C 324.442,183.067 322.108,182.4 319.5,182.5C 318.913,181.233 318.913,180.233 319.5,179.5C 322.43,180.453 324.763,182.12 326.5,184.5 Z"/></g>
<g><path style="opacity:1" fill="#7a7775" d="M 401.5,181.5 C 399.167,182.167 396.833,182.833 394.5,183.5C 396.656,181.159 399.156,179.159 402,177.5C 402.195,178.819 402.028,180.153 401.5,181.5 Z"/></g>
<g><path style="opacity:1" fill="#eae9e9" d="M 301.5,186.5 C 301.751,188.17 302.418,189.67 303.5,191C 301.087,191.484 298.754,191.15 296.5,190C 294.392,187.984 294.058,185.817 295.5,183.5C 297.17,183.249 298.67,182.582 300,181.5C 300.198,183.382 300.698,185.048 301.5,186.5 Z"/></g>
<g><path style="opacity:1" fill="#dbd9d9" d="M 305.5,181.5 C 308.861,182.203 309.194,183.537 306.5,185.5C 304.358,184.563 304.024,183.23 305.5,181.5 Z"/></g>
<g><path style="opacity:1" fill="#e4e3e2" d="M 319.5,182.5 C 322.108,182.4 324.442,183.067 326.5,184.5C 327.278,185.156 327.944,185.989 328.5,187C 325.777,189.251 322.611,190.751 319,191.5C 318.5,191.167 318,190.833 317.5,190.5C 319.229,188.149 319.896,185.482 319.5,182.5 Z"/></g>
<g><path style="opacity:1" fill="#e2e2e1" d="M 401.5,181.5 C 401.387,184.049 402.054,186.382 403.5,188.5C 400.106,189.223 396.772,188.723 393.5,187C 392.015,185.244 392.348,184.077 394.5,183.5C 396.833,182.833 399.167,182.167 401.5,181.5 Z"/></g>
<g><path style="opacity:1" fill="#9a9795" d="M 408.5,182.5 C 410.337,182.639 410.67,183.306 409.5,184.5C 408.702,184.043 408.369,183.376 408.5,182.5 Z"/></g>
<g><path style="opacity:1" fill="#83392d" d="M 489.5,182.5 C 492.669,182.662 494.669,184.328 495.5,187.5C 485.455,190.044 478.288,196.044 474,205.5C 473.333,201.833 473.333,198.167 474,194.5C 478.781,189.871 483.948,185.871 489.5,182.5 Z"/></g>
<g><path style="opacity:0.016" fill="#180100" d="M 244.5,185.5 C 244.5,186.5 244.5,187.5 244.5,188.5C 242.443,188.043 242.443,187.043 244.5,185.5 Z"/></g>
<g><path style="opacity:1" fill="#7a3028" d="M 498.5,219.5 C 498.666,214.821 498.499,210.155 498,205.5C 495.925,209.579 493.092,213.079 489.5,216C 482.669,221.334 476.002,226.834 469.5,232.5C 470.546,221.657 474.046,211.657 480,202.5C 483.5,197.667 487.667,193.5 492.5,190C 497.041,188.868 499.208,190.701 499,195.5C 499.823,203.677 499.656,211.677 498.5,219.5 Z"/></g>
<g><path style="opacity:0.016" fill="#1a0100" d="M 505.5,192.5 C 505.167,192.5 504.833,192.5 504.5,192.5C 504.833,188.5 505.167,188.5 505.5,192.5 Z"/></g>
<g><path style="opacity:0.016" fill="#1b0100" d="M 505.5,192.5 C 506.598,193.601 506.765,194.934 506,196.5C 505.51,195.207 505.343,193.873 505.5,192.5 Z"/></g>
<g><path style="opacity:0.016" fill="#1f0200" d="M 235.5,194.5 C 236.833,195.167 236.833,195.167 235.5,194.5 Z"/></g>
<g><path style="opacity:1" fill="#883c2f" d="M 246.5,193.5 C 255.822,195.879 259.322,201.879 257,211.5C 253.329,205.497 248.162,201.331 241.5,199C 243.373,197.296 245.04,195.463 246.5,193.5 Z"/></g>
<g><path style="opacity:1" fill="#160901" d="M 397.5,195.5 C 397.56,194.957 397.893,194.624 398.5,194.5C 401.382,195.961 404.382,197.127 407.5,198C 403.673,198.976 400.34,198.143 397.5,195.5 Z"/></g>
<g><path style="opacity:1" fill="#1f0e03" d="M 326.5,195.5 C 328.379,195.393 328.712,195.893 327.5,197C 325.956,198.187 324.289,198.52 322.5,198C 324.066,197.392 325.4,196.558 326.5,195.5 Z"/></g>
<g><path style="opacity:0.016" fill="#1a0100" d="M 234.5,200.5 C 234.167,200.5 233.833,200.5 233.5,200.5C 233.833,196.5 234.167,196.5 234.5,200.5 Z"/></g>
<g><path style="opacity:1" fill="#793028" d="M 263.5,242.5 C 256.521,235.187 249.521,227.854 242.5,220.5C 241.614,221.325 241.281,222.325 241.5,223.5C 240.71,222.391 240.21,221.058 240,219.5C 239.333,214.167 239.333,208.833 240,203.5C 240.493,200.015 241.993,199.515 244.5,202C 250.615,207.719 255.115,214.553 258,222.5C 259.526,229.273 261.359,235.94 263.5,242.5 Z"/></g>
<g><path style="opacity:0.004" fill="#0b0000" d="M 506.5,207.5 C 506.335,204.15 506.502,200.817 507,197.5C 507.808,201.027 507.641,204.36 506.5,207.5 Z"/></g>
<g><path style="opacity:0.016" fill="#1d0100" d="M 233.5,200.5 C 233.666,207.841 233.5,215.174 233,222.5C 232.178,214.988 232.345,207.655 233.5,200.5 Z"/></g>
<g><path style="opacity:1" fill="#8c3e31" d="M 498.5,219.5 C 498.678,230.8 495.178,240.8 488,249.5C 483.726,253.324 478.726,255.657 473,256.5C 465.897,254.924 463.564,250.59 466,243.5C 466.416,239.471 467.583,235.804 469.5,232.5C 476.002,226.834 482.669,221.334 489.5,216C 493.092,213.079 495.925,209.579 498,205.5C 498.499,210.155 498.666,214.821 498.5,219.5 Z"/></g>
<g><path style="opacity:0.016" fill="#190100" d="M 505.5,207.5 C 505.833,207.5 506.167,207.5 506.5,207.5C 506.823,213.69 506.49,219.69 505.5,225.5C 505.5,219.5 505.5,213.5 505.5,207.5 Z"/></g>
<g><path style="opacity:1" fill="#793028" d="M 380.5,219.5 C 379.475,219.897 379.308,220.563 380,221.5C 384.333,225.5 388.667,229.5 393,233.5C 395.569,241.249 393.069,246.416 385.5,249C 386.793,249.49 388.127,249.657 389.5,249.5C 388.054,250.94 386.221,251.607 384,251.5C 379.913,250.133 375.746,249.633 371.5,250C 369.833,251 368.167,252 366.5,253C 367.448,253.483 368.448,253.649 369.5,253.5C 361.346,253.734 353.013,253.901 344.5,254C 341.045,254.898 337.711,256.065 334.5,257.5C 333.189,254.865 331.522,252.531 329.5,250.5C 331.601,252.109 333.935,252.609 336.5,252C 328.905,248.527 326.405,242.694 329,234.5C 330.907,230.59 333.573,227.256 337,224.5C 338.009,222.975 338.509,221.308 338.5,219.5C 338.38,216.795 339.38,216.128 341.5,217.5C 342.197,221.377 342.864,225.21 343.5,229C 344.5,229.667 345.5,229.667 346.5,229C 348.017,227.315 349.684,225.815 351.5,224.5C 354.096,235.964 360.763,239.13 371.5,234C 377.974,228.022 377.974,221.856 371.5,215.5C 375.53,214.346 378.53,215.679 380.5,219.5 Z"/></g>
<g><path style="opacity:1" fill="#8b3d31" d="M 263.5,242.5 C 266.385,250.253 268.385,258.253 269.5,266.5C 267.143,266.663 264.81,266.497 262.5,266C 258.578,262.749 255.412,258.916 253,254.5C 248.73,244.286 244.897,233.953 241.5,223.5C 241.281,222.325 241.614,221.325 242.5,220.5C 249.521,227.854 256.521,235.187 263.5,242.5 Z"/></g>
<g><path style="opacity:0.016" fill="#1a0100" d="M 234.5,226.5 C 233.427,225.749 233.26,224.749 234,223.5C 234.483,224.448 234.649,225.448 234.5,226.5 Z"/></g>
<g><path style="opacity:0.016" fill="#170100" d="M 504.5,225.5 C 504.833,225.5 505.167,225.5 505.5,225.5C 505.795,227.735 505.461,229.735 504.5,231.5C 504.5,229.5 504.5,227.5 504.5,225.5 Z"/></g>
<g><path style="opacity:0.004" fill="#0f0000" d="M 234.5,226.5 C 234.833,226.5 235.167,226.5 235.5,226.5C 235.167,229.167 234.833,229.167 234.5,226.5 Z"/></g>
<g><path style="opacity:1" fill="#1e0d02" d="M 380.5,219.5 C 384.426,222.807 388.76,225.64 393.5,228C 399.774,236.663 398.441,243.83 389.5,249.5C 388.127,249.657 386.793,249.49 385.5,249C 393.069,246.416 395.569,241.249 393,233.5C 388.667,229.5 384.333,225.5 380,221.5C 379.308,220.563 379.475,219.897 380.5,219.5 Z"/></g>
<g><path style="opacity:0.016" fill="#1a0100" d="M 503.5,231.5 C 503.833,231.5 504.167,231.5 504.5,231.5C 504.737,232.791 504.404,233.791 503.5,234.5C 503.5,233.5 503.5,232.5 503.5,231.5 Z"/></g>
<g><path style="opacity:0.016" fill="#140100" d="M 238.5,232.5 C 238.649,233.552 238.483,234.552 238,235.5C 237.26,234.251 237.427,233.251 238.5,232.5 Z"/></g>
<g><path style="opacity:0.016" fill="#140100" d="M 502.5,234.5 C 502.833,234.5 503.167,234.5 503.5,234.5C 503.737,235.791 503.404,236.791 502.5,237.5C 502.5,236.5 502.5,235.5 502.5,234.5 Z"/></g>
<g><path style="opacity:1" fill="#1d0d02" d="M 338.5,219.5 C 338.509,221.308 338.009,222.975 337,224.5C 333.573,227.256 330.907,230.59 329,234.5C 326.405,242.694 328.905,248.527 336.5,252C 333.935,252.609 331.601,252.109 329.5,250.5C 327.292,249.106 325.792,247.106 325,244.5C 324.333,240.833 324.333,237.167 325,233.5C 329.003,228.331 333.503,223.664 338.5,219.5 Z"/></g>
<g><path style="opacity:0.016" fill="#1f0200" d="M 501.5,237.5 C 501.833,237.5 502.167,237.5 502.5,237.5C 502.672,238.492 502.338,239.158 501.5,239.5C 501.5,238.833 501.5,238.167 501.5,237.5 Z"/></g>
<g><path style="opacity:0.016" fill="#170100" d="M 240.5,238.5 C 240.5,239.833 240.5,241.167 240.5,242.5C 239.167,241.167 239.167,239.833 240.5,238.5 Z"/></g>
<g><path style="opacity:0.016" fill="#180100" d="M 500.5,239.5 C 500.833,239.5 501.167,239.5 501.5,239.5C 501.672,240.492 501.338,241.158 500.5,241.5C 500.5,240.833 500.5,240.167 500.5,239.5 Z"/></g>
<g><path style="opacity:0.016" fill="#1f0200" d="M 240.5,242.5 C 240.833,242.5 241.167,242.5 241.5,242.5C 241.167,246.5 240.833,246.5 240.5,242.5 Z"/></g>
<g><path style="opacity:0.016" fill="#180100" d="M 499.5,241.5 C 499.833,241.5 500.167,241.5 500.5,241.5C 500.672,242.492 500.338,243.158 499.5,243.5C 499.5,242.833 499.5,242.167 499.5,241.5 Z"/></g>
<g><path style="opacity:0.004" fill="#0f0000" d="M 498.5,243.5 C 498.833,243.5 499.167,243.5 499.5,243.5C 499.672,244.492 499.338,245.158 498.5,245.5C 498.5,244.833 498.5,244.167 498.5,243.5 Z"/></g>
<g><path style="opacity:0.016" fill="#1f0200" d="M 242.5,248.5 C 241.475,248.103 241.308,247.437 242,246.5C 242.464,247.094 242.631,247.761 242.5,248.5 Z"/></g>
<g><path style="opacity:0.004" fill="#0f0000" d="M 497.5,245.5 C 497.833,245.5 498.167,245.5 498.5,245.5C 498.672,246.492 498.338,247.158 497.5,247.5C 497.5,246.833 497.5,246.167 497.5,245.5 Z"/></g>
<g><path style="opacity:1" fill="#1b0b01" d="M 376.5,236.5 C 380.375,236.085 384.042,236.585 387.5,238C 380.343,237.074 374.676,239.74 370.5,246C 364.974,249.983 359.307,250.317 353.5,247C 348.657,240.363 342.657,238.197 335.5,240.5C 338.372,237.854 341.705,237.021 345.5,238C 349.796,239.815 353.796,242.148 357.5,245C 361.452,245.912 365.119,245.245 368.5,243C 370.776,240.211 373.443,238.044 376.5,236.5 Z"/></g>
<g><path style="opacity:0.016" fill="#1f0200" d="M 496.5,247.5 C 496.833,247.5 497.167,247.5 497.5,247.5C 497.315,248.17 496.981,248.17 496.5,247.5 Z"/></g>
<g><path style="opacity:0.004" fill="#0f0000" d="M 495.5,248.5 C 495.833,248.5 496.167,248.5 496.5,248.5C 496.672,249.492 496.338,250.158 495.5,250.5C 495.5,249.833 495.5,249.167 495.5,248.5 Z"/></g>
<g><path style="opacity:0.016" fill="#1f0200" d="M 494.5,250.5 C 494.833,250.5 495.167,250.5 495.5,250.5C 495.315,251.17 494.981,251.17 494.5,250.5 Z"/></g>
<g><path style="opacity:0.004" fill="#0f0000" d="M 243.5,251.5 C 243.833,251.5 244.167,251.5 244.5,251.5C 244.5,252.167 244.5,252.833 244.5,253.5C 243.662,253.158 243.328,252.492 243.5,251.5 Z"/></g>
<g><path style="opacity:0.004" fill="#0f0000" d="M 244.5,253.5 C 244.833,253.5 245.167,253.5 245.5,253.5C 245.167,256.167 244.833,256.167 244.5,253.5 Z"/></g>
<g><path style="opacity:1" fill="#1b0b01" d="M 369.5,253.5 C 373.846,253.334 378.179,253.501 382.5,254C 392.809,256.99 402.476,261.323 411.5,267C 413.389,269.382 415.055,271.882 416.5,274.5C 416.5,277.833 416.5,281.167 416.5,284.5C 415.041,284.567 413.708,284.234 412.5,283.5C 410.027,281.857 408.027,279.69 406.5,277C 402.262,274.147 397.928,271.48 393.5,269C 387.858,267.064 382.192,265.23 376.5,263.5C 372.838,263.957 369.338,264.957 366,266.5C 361.501,265.445 357.001,264.445 352.5,263.5C 347.525,264.729 342.525,265.895 337.5,267C 332.605,269.48 327.605,271.814 322.5,274C 319.793,276.343 317.126,278.677 314.5,281C 312.783,282.559 310.783,283.392 308.5,283.5C 308.501,278.997 309.334,274.663 311,270.5C 318.258,264.958 326.091,260.625 334.5,257.5C 337.711,256.065 341.045,254.898 344.5,254C 353.013,253.901 361.346,253.734 369.5,253.5 Z"/></g>
<g><path style="opacity:0.016" fill="#1f0200" d="M 490.5,255.5 C 491.833,256.167 491.833,256.167 490.5,255.5 Z"/></g>
<g><path style="opacity:0.016" fill="#1f0200" d="M 489.5,256.5 C 489.833,256.5 490.167,256.5 490.5,256.5C 490.315,257.17 489.981,257.17 489.5,256.5 Z"/></g>
<g><path style="opacity:0.016" fill="#180100" d="M 247.5,256.5 C 247.5,257.167 247.5,257.833 247.5,258.5C 246.167,257.833 246.167,257.167 247.5,256.5 Z"/></g>
<g><path style="opacity:0.004" fill="#0f0000" d="M 487.5,258.5 C 487.5,258.167 487.5,257.833 487.5,257.5C 488.167,257.5 488.833,257.5 489.5,257.5C 489.158,258.338 488.492,258.672 487.5,258.5 Z"/></g>
<g><path style="opacity:0.016" fill="#1f0200" d="M 247.5,258.5 C 247.833,258.5 248.167,258.5 248.5,258.5C 248.315,259.17 247.981,259.17 247.5,258.5 Z"/></g>
<g><path style="opacity:0.016" fill="#1f0200" d="M 487.5,258.5 C 486.833,259.167 486.833,259.167 487.5,258.5 Z"/></g>
<g><path style="opacity:0.016" fill="#1f0200" d="M 483.5,260.5 C 483.5,260.167 483.5,259.833 483.5,259.5C 486.167,259.833 486.167,260.167 483.5,260.5 Z"/></g>
<g><path style="opacity:0.016" fill="#1f0200" d="M 248.5,260.5 C 249.833,261.167 249.833,261.167 248.5,260.5 Z"/></g>
<g><path style="opacity:0.004" fill="#0f0000" d="M 481.5,260.5 C 482.167,260.5 482.833,260.5 483.5,260.5C 482.833,261.833 482.167,261.833 481.5,260.5 Z"/></g>
<g><path style="opacity:0.016" fill="#1f0200" d="M 478.5,262.5 C 478.897,261.475 479.563,261.308 480.5,262C 479.906,262.464 479.239,262.631 478.5,262.5 Z"/></g>
<g><path style="opacity:0.004" fill="#0f0000" d="M 251.5,262.5 C 251.631,263.239 251.464,263.906 251,264.5C 250.308,263.563 250.475,262.897 251.5,262.5 Z"/></g>
<g><path style="opacity:0.004" fill="#0d0000" d="M 468.5,261.5 C 468.5,261.833 468.5,262.167 468.5,262.5C 467.732,263.263 467.232,264.263 467,265.5C 466.156,263.537 466.656,262.204 468.5,261.5 Z"/></g>
<g><path style="opacity:1" fill="#150801" d="M 420.5,268.5 C 418.243,267.438 417.077,265.772 417,263.5C 418.802,264.789 419.969,266.456 420.5,268.5 Z"/></g>
<g><path style="opacity:1" fill="#190b01" d="M 396.5,276.5 C 391.075,274.623 385.741,272.456 380.5,270C 374.902,269.4 369.402,269.9 364,271.5C 357.849,270.549 351.683,270.382 345.5,271C 337.85,274.271 330.183,277.437 322.5,280.5C 330.077,275.463 338.077,270.963 346.5,267C 352.616,266.176 358.616,266.676 364.5,268.5C 376.888,264.409 387.555,267.076 396.5,276.5 Z"/></g>
<g><path style="opacity:1" fill="#7a352d" d="M 396.5,276.5 C 401.315,278.406 405.649,281.073 409.5,284.5C 410.417,283.873 411.417,283.539 412.5,283.5C 413.708,284.234 415.041,284.567 416.5,284.5C 416.5,281.167 416.5,277.833 416.5,274.5C 417.482,277.962 417.815,281.629 417.5,285.5C 416.167,285.5 414.833,285.5 413.5,285.5C 413.657,286.873 413.49,288.207 413,289.5C 404.223,297.752 396.389,306.752 389.5,316.5C 388.423,317.705 387.09,318.372 385.5,318.5C 370.527,322.326 355.527,322.326 340.5,318.5C 339.448,318.649 338.448,318.483 337.5,318C 334,315.167 330.5,312.333 327,309.5C 322.321,302.144 317.155,295.144 311.5,288.5C 312.04,287.252 312.707,286.085 313.5,285C 316.553,283.473 319.553,281.973 322.5,280.5C 330.183,277.437 337.85,274.271 345.5,271C 351.683,270.382 357.849,270.549 364,271.5C 369.402,269.9 374.902,269.4 380.5,270C 385.741,272.456 391.075,274.623 396.5,276.5 Z"/></g>
<g><path style="opacity:1" fill="#100601" d="M 420.5,268.5 C 421.117,268.611 421.617,268.944 422,269.5C 422.273,277.094 421.773,276.761 420.5,268.5 Z"/></g>
<g><path style="opacity:0.004" fill="#060000" d="M 263.5,274.5 C 265.035,273.212 266.701,273.212 268.5,274.5C 267.113,274.807 265.446,274.807 263.5,274.5 Z"/></g>
<g><path style="opacity:0.004" fill="#0d0000" d="M 464.5,271.5 C 465.833,273.167 465.833,274.833 464.5,276.5C 464.5,274.833 464.5,273.167 464.5,271.5 Z"/></g>
<g><path style="opacity:0.016" fill="#1b0100" d="M 463.5,276.5 C 463.833,276.5 464.167,276.5 464.5,276.5C 464.768,278.099 464.434,279.432 463.5,280.5C 463.5,279.167 463.5,277.833 463.5,276.5 Z"/></g>
<g><path style="opacity:0.016" fill="#180100" d="M 462.5,280.5 C 462.833,280.5 463.167,280.5 463.5,280.5C 463.167,301.833 462.833,301.833 462.5,280.5 Z"/></g>
<g><path style="opacity:1" fill="#1a120d" d="M 367.5,281.5 C 380.314,279.967 392.314,282.301 403.5,288.5C 400.809,292.353 397.142,294.853 392.5,296C 378.975,308.214 363.641,311.214 346.5,305C 340.822,301.159 334.822,297.826 328.5,295C 326.963,293.89 326.297,292.39 326.5,290.5C 323.482,290.665 320.482,290.498 317.5,290C 324.509,289.164 331.175,287.164 337.5,284C 347.627,282.968 357.627,282.134 367.5,281.5 Z"/></g>
<g><path style="opacity:1" fill="#f6f6f6" d="M 370.5,284.5 C 378.571,284.137 386.571,284.637 394.5,286C 396.648,288.075 396.982,290.408 395.5,293C 391.385,294.223 387.718,296.223 384.5,299C 373.362,304.594 361.695,305.927 349.5,303C 343.766,299.801 337.766,297.135 331.5,295C 328.836,292.645 329.003,290.478 332,288.5C 333.811,287.922 335.645,287.422 337.5,287C 348.634,285.982 359.634,285.149 370.5,284.5 Z"/></g>
<g><path style="opacity:0.004" fill="#0d0000" d="M 271.5,284.5 C 271.5,286.167 271.5,287.833 271.5,289.5C 270.167,287.833 270.167,286.167 271.5,284.5 Z"/></g>
<g><path style="opacity:0.016" fill="#1a0100" d="M 271.5,289.5 C 271.833,289.5 272.167,289.5 272.5,289.5C 272.167,293.5 271.833,293.5 271.5,289.5 Z"/></g>
<g><path style="opacity:0.016" fill="#1a0100" d="M 272.5,293.5 C 273.573,294.251 273.74,295.251 273,296.5C 272.517,295.552 272.351,294.552 272.5,293.5 Z"/></g>
<g><path style="opacity:0.016" fill="#140100" d="M 275.5,299.5 C 275.5,300.5 275.5,301.5 275.5,302.5C 274.167,301.5 274.167,300.5 275.5,299.5 Z"/></g>
<g><path style="opacity:0.016" fill="#1e0100" d="M 461.5,297.5 C 462.662,314.662 462.829,331.995 462,349.5C 461.5,332.17 461.333,314.837 461.5,297.5 Z"/></g>
<g><path style="opacity:0.004" fill="#100000" d="M 275.5,302.5 C 275.833,302.5 276.167,302.5 276.5,302.5C 276.5,304.167 276.5,305.833 276.5,307.5C 275.549,306.081 275.216,304.415 275.5,302.5 Z"/></g>
<g><path style="opacity:1" fill="#752a27" d="M 453.5,303.5 C 454.492,311.316 454.826,319.316 454.5,327.5C 445.511,339.456 438.011,352.456 432,366.5C 426.44,378.392 418.94,388.892 409.5,398C 398.22,405.135 385.886,409.135 372.5,410C 353.707,413.962 338.541,408.462 327,393.5C 320.254,378.779 311.921,365.112 302,352.5C 297.946,347.943 293.446,343.943 288.5,340.5C 287.571,341.689 287.238,343.022 287.5,344.5C 286.235,336.347 285.735,328.014 286,319.5C 295.717,331.55 305.051,343.883 314,356.5C 321.066,364.954 329.899,370.787 340.5,374C 352.655,377.15 364.988,378.15 377.5,377C 393.678,375.84 407.511,369.673 419,358.5C 426.825,344.347 435.825,331.014 446,318.5C 449.038,313.757 451.538,308.757 453.5,303.5 Z"/></g>
<g><path style="opacity:0.016" fill="#190100" d="M 276.5,307.5 C 276.833,307.5 277.167,307.5 277.5,307.5C 277.167,318.167 276.833,318.167 276.5,307.5 Z"/></g>
<g><path style="opacity:1" fill="#3f180d" d="M 455.5,349.5 C 454.508,342.352 454.175,335.019 454.5,327.5C 454.826,319.316 454.492,311.316 453.5,303.5C 453.783,302.711 454.283,302.044 455,301.5C 455.5,317.497 455.667,333.497 455.5,349.5 Z"/></g>
<g><path style="opacity:0.016" fill="#1a0100" d="M 278.5,325.5 C 277.362,322.696 277.195,319.696 278,316.5C 278.498,319.482 278.665,322.482 278.5,325.5 Z"/></g>
<g><path style="opacity:1" fill="#180a01" d="M 340.5,318.5 C 355.527,322.326 370.527,322.326 385.5,318.5C 378.949,322.973 371.616,324.973 363.5,324.5C 355.055,325.018 347.388,323.018 340.5,318.5 Z"/></g>
<g><path style="opacity:1" fill="#8e3f32" d="M 454.5,327.5 C 454.175,335.019 454.508,342.352 455.5,349.5C 456.075,365.915 457.575,382.248 460,398.5C 461.421,401.009 463.088,403.343 465,405.5C 465.32,402.46 465.32,399.46 465,396.5C 471.757,402.38 479.424,406.714 488,409.5C 491.444,435.501 487.944,460.501 477.5,484.5C 459.466,485.068 441.466,485.901 423.5,487C 412.122,489.106 403.622,494.939 398,504.5C 405.014,496.409 413.847,491.575 424.5,490C 441.177,489.167 457.843,489.334 474.5,490.5C 466.309,505.868 455.643,519.368 442.5,531C 428.832,540.764 415.999,551.598 404,563.5C 399.455,568.54 395.955,574.206 393.5,580.5C 380.833,580.5 368.167,580.5 355.5,580.5C 354.62,577.738 353.454,575.071 352,572.5C 344.871,563.037 336.704,554.537 327.5,547C 315.452,538.625 304.285,529.125 294,518.5C 286.365,510.052 280.199,500.718 275.5,490.5C 292.503,490.333 309.503,490.5 326.5,491C 335.597,492.299 343.431,496.132 350,502.5C 350.167,502.167 350.333,501.833 350.5,501.5C 344.598,494.713 337.265,490.213 328.5,488C 309.877,486.733 291.21,486.066 272.5,486C 261.042,461.696 257.208,436.196 261,409.5C 267.604,405.782 273.771,401.449 279.5,396.5C 280.324,399.785 280.824,403.118 281,406.5C 282.385,405.449 283.385,404.116 284,402.5C 285.769,395.285 286.769,387.952 287,380.5C 287.5,368.505 287.667,356.505 287.5,344.5C 287.238,343.022 287.571,341.689 288.5,340.5C 293.446,343.943 297.946,347.943 302,352.5C 311.921,365.112 320.254,378.779 327,393.5C 338.541,408.462 353.707,413.962 372.5,410C 385.886,409.135 398.22,405.135 409.5,398C 418.94,388.892 426.44,378.392 432,366.5C 438.011,352.456 445.511,339.456 454.5,327.5 Z"/></g>
<g><path style="opacity:1" fill="#271108" d="M 361.5,333.5 C 367.049,333.087 372.382,333.92 377.5,336C 370.681,335.233 363.848,335.4 357,336.5C 356.5,336.333 356,336.167 355.5,336C 357.611,335.155 359.611,334.322 361.5,333.5 Z"/></g>
<g><path style="opacity:0.004" fill="#000000" d="M 280.5,361.5 C 281.622,363.288 281.789,365.288 281,367.5C 280.505,365.527 280.338,363.527 280.5,361.5 Z"/></g>
<g><path style="opacity:0.004" fill="#000000" d="M 278.5,389.5 C 277.833,389.5 277.5,389.833 277.5,390.5C 275.343,389.947 275.51,388.947 278,387.5C 278.464,388.094 278.631,388.761 278.5,389.5 Z"/></g>
<g><path style="opacity:0.016" fill="#1f0200" d="M 504.5,396.5 C 504.897,395.475 505.563,395.308 506.5,396C 505.906,396.464 505.239,396.631 504.5,396.5 Z"/></g>
<g><path style="opacity:0.004" fill="#110000" d="M 265.5,399.5 C 264.5,399.5 263.5,399.5 262.5,399.5C 262.957,397.443 263.957,397.443 265.5,399.5 Z"/></g>
<g><path style="opacity:0.016" fill="#1f0200" d="M 482.5,400.5 C 483.209,399.596 484.209,399.263 485.5,399.5C 485.672,400.492 485.338,401.158 484.5,401.5C 484.158,400.662 483.492,400.328 482.5,400.5 Z"/></g>
<g><path style="opacity:1" fill="#173a97" d="M 350.5,580.5 C 346.5,580.5 342.5,580.5 338.5,580.5C 326.36,561.863 310.694,546.696 291.5,535C 269.947,515.07 256.447,490.57 251,461.5C 247.15,442.018 245.317,422.351 245.5,402.5C 247.988,401.114 250.655,400.114 253.5,399.5C 255.609,399.775 256.942,400.942 257.5,403C 249.055,458.013 266.055,503.346 308.5,539C 323.017,548.527 335.851,560.027 347,573.5C 348.705,575.577 349.872,577.91 350.5,580.5 Z"/></g>
<g><path style="opacity:1" fill="#173a97" d="M 503.5,402.5 C 504.913,439.939 497.08,475.272 480,508.5C 469.073,525.428 454.906,538.928 437.5,549C 426.499,557.868 417.499,568.368 410.5,580.5C 406.5,580.5 402.5,580.5 398.5,580.5C 399.128,577.91 400.295,575.577 402,573.5C 413.149,560.027 425.983,548.527 440.5,539C 482.939,503.365 499.939,458.031 491.5,403C 492.058,400.942 493.391,399.775 495.5,399.5C 498.183,400.51 500.849,401.51 503.5,402.5 Z"/></g>
<g><path style="opacity:1" fill="#e6e1e0" d="M 245.5,402.5 C 245.317,422.351 247.15,442.018 251,461.5C 256.447,490.57 269.947,515.07 291.5,535C 310.694,546.696 326.36,561.863 338.5,580.5C 334.833,580.5 331.167,580.5 327.5,580.5C 322.864,572.349 316.864,565.182 309.5,559C 296.465,550.304 284.298,540.471 273,529.5C 257.5,510.037 247.167,488.037 242,463.5C 238.239,444.7 236.405,425.7 236.5,406.5C 239.378,404.895 242.378,403.561 245.5,402.5 Z"/></g>
<g><path style="opacity:1" fill="#e6e0e0" d="M 503.5,402.5 C 506.618,403.559 509.618,404.892 512.5,406.5C 513.404,441.146 506.571,474.146 492,505.5C 485.32,518.015 476.82,529.181 466.5,539C 451.953,548.041 438.786,558.875 427,571.5C 424.615,574.379 422.448,577.379 420.5,580.5C 417.167,580.5 413.833,580.5 410.5,580.5C 417.499,568.368 426.499,557.868 437.5,549C 454.906,538.928 469.073,525.428 480,508.5C 497.08,475.272 504.913,439.939 503.5,402.5 Z"/></g>
<g><path style="opacity:1" fill="#bc0918" d="M 236.5,406.5 C 236.405,425.7 238.239,444.7 242,463.5C 247.167,488.037 257.5,510.037 273,529.5C 284.298,540.471 296.465,550.304 309.5,559C 316.864,565.182 322.864,572.349 327.5,580.5C 323.167,580.5 318.833,580.5 314.5,580.5C 309.528,572.013 303.194,564.513 295.5,558C 279,546.833 265.167,533 254,516.5C 235.232,483.336 226.899,447.67 229,409.5C 231.45,408.358 233.95,407.358 236.5,406.5 Z"/></g>
<g><path style="opacity:1" fill="#bc0517" d="M 512.5,406.5 C 514.886,407.298 517.22,408.298 519.5,409.5C 520.86,428.705 519.36,447.705 515,466.5C 508.379,498.589 492.879,525.423 468.5,547C 454.647,555.687 443.314,566.853 434.5,580.5C 429.833,580.5 425.167,580.5 420.5,580.5C 422.448,577.379 424.615,574.379 427,571.5C 438.786,558.875 451.953,548.041 466.5,539C 476.82,529.181 485.32,518.015 492,505.5C 506.571,474.146 513.404,441.146 512.5,406.5 Z"/></g>
<g><path style="opacity:0.016" fill="#1f0200" d="M 542.5,413.5 C 543.833,414.167 543.833,414.167 542.5,413.5 Z"/></g>
<g><path style="opacity:1" fill="#898785" d="M 526.5,413.5 C 525.833,419.167 525.167,424.833 524.5,430.5C 524.171,424.463 524.504,418.463 525.5,412.5C 526.107,412.624 526.44,412.957 526.5,413.5 Z"/></g>
<g><path style="opacity:0.004" fill="#0f0000" d="M 544.5,415.5 C 544.897,414.475 545.563,414.308 546.5,415C 545.906,415.464 545.239,415.631 544.5,415.5 Z"/></g>
<g><path style="opacity:1" fill="#eae7e5" d="M 222.5,413.5 C 223.167,420.167 223.833,426.833 224.5,433.5C 225.337,442.196 226.504,450.863 228,459.5C 234.014,494.702 249.847,524.536 275.5,549C 288.585,557.585 299.919,568.085 309.5,580.5C 258.167,580.5 206.833,580.5 155.5,580.5C 155.002,575.848 154.669,571.181 154.5,566.5C 154.468,546.159 154.802,525.826 155.5,505.5C 155.602,496.074 156.269,486.74 157.5,477.5C 158.875,470.711 159.542,463.711 159.5,456.5C 160.07,450.318 160.07,444.318 159.5,438.5C 164.027,435.482 169.027,433.316 174.5,432C 181.202,430.46 187.869,428.793 194.5,427C 204.008,422.745 213.341,418.245 222.5,413.5 Z"/></g>
<g><path style="opacity:1" fill="#eae6e4" d="M 526.5,413.5 C 536.325,418.578 546.325,423.412 556.5,428C 563.63,429.199 570.63,430.866 577.5,433C 581.061,434.232 584.394,435.732 587.5,437.5C 590.117,464.79 592.284,492.124 594,519.5C 595.035,539.9 594.535,560.233 592.5,580.5C 541.5,580.5 490.5,580.5 439.5,580.5C 444.926,573.57 450.926,567.07 457.5,561C 468.36,553.8 478.193,545.3 487,535.5C 510.673,504.657 523.173,469.657 524.5,430.5C 525.167,424.833 525.833,419.167 526.5,413.5 Z"/></g>
<g><path style="opacity:1" fill="#999795" d="M 222.5,413.5 C 222.56,412.957 222.893,412.624 223.5,412.5C 224.497,419.468 224.83,426.468 224.5,433.5C 223.833,426.833 223.167,420.167 222.5,413.5 Z"/></g>
<g><path style="opacity:1" fill="#c00918" d="M 159.5,438.5 C 160.07,444.318 160.07,450.318 159.5,456.5C 158.125,463.289 157.458,470.289 157.5,477.5C 156.269,486.74 155.602,496.074 155.5,505.5C 154.113,518.474 153.446,531.641 153.5,545C 153.5,552.341 153.834,559.508 154.5,566.5C 154.669,571.181 155.002,575.848 155.5,580.5C 151.833,580.5 148.167,580.5 144.5,580.5C 142.892,535.085 144.226,489.752 148.5,444.5C 152.327,442.754 155.993,440.754 159.5,438.5 Z"/></g>
<g><path style="opacity:1" fill="#c00818" d="M 587.5,437.5 C 591.535,439.848 595.535,442.182 599.5,444.5C 601.585,467.785 603.085,491.118 604,514.5C 604.812,536.543 604.645,558.543 603.5,580.5C 599.833,580.5 596.167,580.5 592.5,580.5C 594.535,560.233 595.035,539.9 594,519.5C 592.284,492.124 590.117,464.79 587.5,437.5 Z"/></g>
<g><path style="opacity:1" fill="#e5dfdf" d="M 148.5,444.5 C 144.226,489.752 142.892,535.085 144.5,580.5C 141.167,580.5 137.833,580.5 134.5,580.5C 132.738,542.754 133.738,505.087 137.5,467.5C 138.879,461.383 139.546,455.05 139.5,448.5C 142.314,446.93 145.314,445.597 148.5,444.5 Z"/></g>
<g><path style="opacity:1" fill="#e7dfde" d="M 599.5,444.5 C 603.116,445.314 606.449,446.648 609.5,448.5C 610.956,464.803 611.956,481.136 612.5,497.5C 613.281,523.159 613.615,548.826 613.5,574.5C 613.5,576.5 613.5,578.5 613.5,580.5C 610.167,580.5 606.833,580.5 603.5,580.5C 604.645,558.543 604.812,536.543 604,514.5C 603.085,491.118 601.585,467.785 599.5,444.5 Z"/></g>
<g><path style="opacity:1" fill="#163996" d="M 609.5,448.5 C 614.186,449.687 617.019,452.687 618,457.5C 621.951,498.408 623.785,539.408 623.5,580.5C 620.167,580.5 616.833,580.5 613.5,580.5C 613.5,578.5 613.5,576.5 613.5,574.5C 614.166,564.839 614.5,555.006 614.5,545C 614.631,528.975 613.964,513.141 612.5,497.5C 611.956,481.136 610.956,464.803 609.5,448.5 Z"/></g>
<g><path style="opacity:1" fill="#173996" d="M 137.5,449.5 C 138.07,455.318 138.07,461.318 137.5,467.5C 133.738,505.087 132.738,542.754 134.5,580.5C 131.5,580.5 128.5,580.5 125.5,580.5C 124.991,538.333 127.158,496.333 132,454.5C 133.055,451.944 134.888,450.277 137.5,449.5 Z"/></g>
<g><path style="opacity:1" fill="#a3a6c2" d="M 137.5,449.5 C 137.842,448.662 138.508,448.328 139.5,448.5C 139.546,455.05 138.879,461.383 137.5,467.5C 138.07,461.318 138.07,455.318 137.5,449.5 Z"/></g>
<g><path style="opacity:1" fill="#7b3129" d="M 120.5,580.5 C 117.5,580.5 114.5,580.5 111.5,580.5C 111.625,575.667 110.792,571 109,566.5C 105.588,559.342 101.922,552.342 98,545.5C 94.8611,538.474 93.5277,531.14 94,523.5C 95.7665,515.972 98.0999,508.638 101,501.5C 102.126,493.955 101.46,486.621 99,479.5C 97.1516,476.959 94.6516,475.959 91.5,476.5C 103.247,474.356 114.247,470.023 124.5,463.5C 124.833,465.5 125.167,467.5 125.5,469.5C 122.338,506.438 120.672,543.438 120.5,580.5 Z"/></g>
<g><path style="opacity:1" fill="#daa6a6" d="M 159.5,456.5 C 159.542,463.711 158.875,470.711 157.5,477.5C 157.458,470.289 158.125,463.289 159.5,456.5 Z"/></g>
<g><path style="opacity:1" fill="#7b3129" d="M 656.5,476.5 C 653.956,476.104 651.789,476.771 650,478.5C 645.696,487.63 645.363,496.963 649,506.5C 650.47,511.243 652.136,515.909 654,520.5C 654.912,527.649 654.245,534.649 652,541.5C 647.651,550.198 643.318,558.864 639,567.5C 637.369,571.688 636.536,576.021 636.5,580.5C 633.833,580.5 631.167,580.5 628.5,580.5C 628.199,543.439 626.532,506.439 623.5,469.5C 623.833,467.5 624.167,465.5 624.5,463.5C 634.481,469.82 645.148,474.153 656.5,476.5 Z"/></g>
<g><path style="opacity:0.016" fill="#180100" d="M 94.5,468.5 C 95.6009,467.402 96.9343,467.235 98.5,468C 97.2068,468.49 95.8734,468.657 94.5,468.5 Z"/></g>
<g><path style="opacity:0.016" fill="#1a0100" d="M 659.5,470.5 C 660.251,469.427 661.251,469.26 662.5,470C 661.552,470.483 660.552,470.649 659.5,470.5 Z"/></g>
<g><path style="opacity:0.016" fill="#1f0200" d="M 669.5,473.5 C 669.897,472.475 670.563,472.308 671.5,473C 670.906,473.464 670.239,473.631 669.5,473.5 Z"/></g>
<g><path style="opacity:0.004" fill="#0f0000" d="M 672.5,474.5 C 672.897,473.475 673.563,473.308 674.5,474C 673.906,474.464 673.239,474.631 672.5,474.5 Z"/></g>
<g><path style="opacity:1" fill="#8e3f32" d="M 656.5,476.5 C 666.926,478.359 676.593,482.193 685.5,488C 700.404,499.338 712.904,512.838 723,528.5C 733.862,544.254 740.695,561.588 743.5,580.5C 707.833,580.5 672.167,580.5 636.5,580.5C 636.536,576.021 637.369,571.688 639,567.5C 643.318,558.864 647.651,550.198 652,541.5C 654.245,534.649 654.912,527.649 654,520.5C 652.136,515.909 650.47,511.243 649,506.5C 645.363,496.963 645.696,487.63 650,478.5C 651.789,476.771 653.956,476.104 656.5,476.5 Z"/></g>
<g><path style="opacity:1" fill="#8e3f32" d="M 91.5,476.5 C 94.6516,475.959 97.1516,476.959 99,479.5C 101.46,486.621 102.126,493.955 101,501.5C 98.0999,508.638 95.7665,515.972 94,523.5C 93.5277,531.14 94.8611,538.474 98,545.5C 101.922,552.342 105.588,559.342 109,566.5C 110.792,571 111.625,575.667 111.5,580.5C 76.1667,580.5 40.8333,580.5 5.5,580.5C 13.275,543.897 31.6083,513.73 60.5,490C 69.8858,483.307 80.2192,478.807 91.5,476.5 Z"/></g>
<g><path style="opacity:0.016" fill="#1f0200" d="M 689.5,482.5 C 690.833,483.167 690.833,483.167 689.5,482.5 Z"/></g>
<g><path style="opacity:0.016" fill="#1f0200" d="M 691.5,483.5 C 692.833,484.167 692.833,484.167 691.5,483.5 Z"/></g>
<g><path style="opacity:0.004" fill="#090000" d="M 55.5,486.5 C 54.8333,486.5 54.5,486.833 54.5,487.5C 52.0248,487.253 52.0248,486.587 54.5,485.5C 55.1067,485.624 55.44,485.957 55.5,486.5 Z"/></g>
<g><path style="opacity:0.004" fill="#090000" d="M 37.5,504.5 C 36.8333,504.5 36.5,504.833 36.5,505.5C 35.2875,504.503 35.4542,503.503 37,502.5C 37.4643,503.094 37.631,503.761 37.5,504.5 Z"/></g>
<g><path style="opacity:0.016" fill="#180100" d="M 17.5,531.5 C 17.1667,531.5 16.8333,531.5 16.5,531.5C 16.8333,528.833 17.1667,528.833 17.5,531.5 Z"/></g>
<g><path style="opacity:0.016" fill="#1f0200" d="M 16.5,531.5 C 15.8333,532.167 15.8333,532.167 16.5,531.5 Z"/></g>
<g><path style="opacity:0.004" fill="#0f0000" d="M 737.5,540.5 C 737.167,540.5 736.833,540.5 736.5,540.5C 736.833,537.833 737.167,537.833 737.5,540.5 Z"/></g>
<g><path style="opacity:1" fill="#d79e9e" d="M 155.5,505.5 C 154.802,525.826 154.468,546.159 154.5,566.5C 153.834,559.508 153.5,552.341 153.5,545C 153.446,531.641 154.113,518.474 155.5,505.5 Z"/></g>
<g><path style="opacity:0.016" fill="#1f0200" d="M 737.5,540.5 C 738.833,541.167 738.833,541.167 737.5,540.5 Z"/></g>
<g><path style="opacity:1" fill="#b5b6c9" d="M 612.5,497.5 C 613.964,513.141 614.631,528.975 614.5,545C 614.5,555.006 614.166,564.839 613.5,574.5C 613.615,548.826 613.281,523.159 612.5,497.5 Z"/></g>
<g><path style="opacity:0.016" fill="#180100" d="M 5.5,555.5 C 4.47498,555.103 4.30831,554.437 5,553.5C 5.46434,554.094 5.63101,554.761 5.5,555.5 Z"/></g>
<g><path style="opacity:0.016" fill="#1a0100" d="M 3.5,561.5 C 3.16667,561.5 2.83333,561.5 2.5,561.5C 2.83333,557.5 3.16667,557.5 3.5,561.5 Z"/></g>
<g><path style="opacity:0.016" fill="#1a0100" d="M 2.5,561.5 C 2.64945,562.552 2.48278,563.552 2,564.5C 1.25988,563.251 1.42654,562.251 2.5,561.5 Z"/></g>
<g><path style="opacity:0.016" fill="#1a0100" d="M 1.5,568.5 C 1.16667,568.5 0.833333,568.5 0.5,568.5C 0.833333,564.5 1.16667,564.5 1.5,568.5 Z"/></g>
<g><path style="opacity:0.016" fill="#1b0100" d="M -0.5,568.5 C -0.166667,568.5 0.166667,568.5 0.5,568.5C 0.767809,570.099 0.434475,571.432 -0.5,572.5C -0.5,571.167 -0.5,569.833 -0.5,568.5 Z"/></g>
<g><path style="opacity:0.016" fill="#1b0100" d="M 749.5,568.5 C 749.5,569.833 749.5,571.167 749.5,572.5C 749.167,572.5 748.833,572.5 748.5,572.5C 748.232,570.901 748.566,569.568 749.5,568.5 Z"/></g>
</svg>
