<?xml version="1.0" encoding="UTF-8"?>
<!DOCTYPE svg PUBLIC "-//W3C//DTD SVG 1.1//EN" "http://www.w3.org/Graphics/SVG/1.1/DTD/svg11.dtd">
<svg xmlns="http://www.w3.org/2000/svg" version="1.1" width="750px" height="540px" style="shape-rendering:geometricPrecision; text-rendering:geometricPrecision; image-rendering:optimizeQuality; fill-rule:evenodd; clip-rule:evenodd" xmlns:xlink="http://www.w3.org/1999/xlink">
<g><path style="opacity:0.98" fill="#211307" d="M 363.5,-0.5 C 365.5,-0.5 367.5,-0.5 369.5,-0.5C 372.121,3.67948 375.954,5.67948 381,5.5C 383.671,3.09757 386.505,1.09757 389.5,-0.5C 391.833,-0.5 394.167,-0.5 396.5,-0.5C 398.419,2.31938 400.585,4.98605 403,7.5C 408.936,5.28513 414.769,5.78513 420.5,9C 422.15,11.8131 424.15,14.3131 426.5,16.5C 428.14,20.3925 429.474,24.3925 430.5,28.5C 435.368,25.887 440.201,25.887 445,28.5C 451.669,26.8335 458.169,27.3335 464.5,30C 476.428,46.6894 485.595,64.8561 492,84.5C 493.829,86.1558 495.163,88.1558 496,90.5C 498.476,100.454 501.809,110.12 506,119.5C 507.093,131.913 508.76,144.246 511,156.5C 519.031,183.377 525.031,210.71 529,238.5C 529.884,243.373 531.384,248.04 533.5,252.5C 533.167,253.5 532.5,254.167 531.5,254.5C 526.682,251.893 523.516,247.893 522,242.5C 520.85,239.232 520.016,235.899 519.5,232.5C 518.167,232.5 516.833,232.5 515.5,232.5C 514.505,239.125 513.839,245.791 513.5,252.5C 514.952,265.208 516.618,277.875 518.5,290.5C 518.192,291.308 517.692,291.975 517,292.5C 515.111,290.517 513.778,288.184 513,285.5C 510.508,277.863 508.175,270.197 506,262.5C 505.8,265.734 504.967,268.734 503.5,271.5C 504.45,278.252 505.784,284.919 507.5,291.5C 506.204,295.039 504.371,295.373 502,292.5C 499.405,287.049 497.405,281.382 496,275.5C 495.581,265.457 494.748,255.457 493.5,245.5C 492.052,243.166 490.719,243.499 489.5,246.5C 491.818,250.091 491.985,253.758 490,257.5C 489.333,262.833 489.333,268.167 490,273.5C 492.589,284.603 495.589,295.603 499,306.5C 500.369,312.282 502.703,317.615 506,322.5C 506.495,324.473 506.662,326.473 506.5,328.5C 504.784,328.371 503.117,328.038 501.5,327.5C 507.613,332.074 513.613,336.908 519.5,342C 560.893,360.53 601.893,379.864 642.5,400C 690.373,435.214 721.706,481.714 736.5,539.5C 734.5,539.5 732.5,539.5 730.5,539.5C 728.261,529.68 725.427,520.013 722,510.5C 712.267,490.026 701.267,470.359 689,451.5C 673.355,433.182 655.855,417.016 636.5,403C 598.434,384.272 560.1,366.438 521.5,349.5C 516.744,382.674 503.577,412.007 482,437.5C 451.474,471.66 416.641,500.493 377.5,524C 375.5,524.667 373.5,524.667 371.5,524C 336.491,502.679 304.658,477.179 276,447.5C 256.445,426.585 241.778,402.585 232,375.5C 229.847,366.919 228.014,358.253 226.5,349.5C 188.805,366.18 151.472,383.68 114.5,402C 91.7858,417.712 71.9525,436.545 55,458.5C 44.2355,477.026 34.2355,496.026 25,515.5C 22.8893,523.573 20.7226,531.573 18.5,539.5C 16.5,539.5 14.5,539.5 12.5,539.5C 15.6911,528.426 19.1911,517.426 23,506.5C 31.8246,488.848 41.158,471.515 51,454.5C 63.4292,438.736 77.2625,424.236 92.5,411C 97.4755,406.513 102.809,402.513 108.5,399C 148.019,379.24 188.019,360.573 228.5,343C 232.983,338.928 237.649,335.094 242.5,331.5C 243.326,330.549 243.492,329.549 243,328.5C 241.951,329.517 240.784,329.684 239.5,329C 238.377,327.956 237.044,327.29 235.5,327C 234.941,326.275 234.608,325.442 234.5,324.5C 236.716,320.108 239.549,316.108 243,312.5C 245.46,302.617 246.793,292.617 247,282.5C 245.667,283.833 244.333,285.167 243,286.5C 241.536,292.558 239.87,298.558 238,304.5C 234.767,308.878 230.6,310.544 225.5,309.5C 224.389,308.389 223.722,307.055 223.5,305.5C 226.652,300.538 229.819,295.538 233,290.5C 234.598,283.606 236.432,276.773 238.5,270C 237.932,268.128 237.265,266.295 236.5,264.5C 235.998,263.479 235.332,263.312 234.5,264C 231.667,266.833 228.833,269.667 226,272.5C 225.685,284.14 220.518,292.807 210.5,298.5C 209.808,297.975 209.308,297.308 209,296.5C 207.275,289.344 208.608,283.011 213,277.5C 218.85,263.625 224.517,249.625 230,235.5C 230.584,232.743 230.25,230.077 229,227.5C 226.563,224.624 225.23,221.29 225,217.5C 219.922,223.583 214.422,229.416 208.5,235C 206.681,235.783 205.348,235.283 204.5,233.5C 207.299,226.603 209.799,219.603 212,212.5C 213.584,208.325 215.918,204.659 219,201.5C 221.974,191.885 226.307,182.885 232,174.5C 233.236,157.417 235.236,140.417 238,123.5C 239.233,113.567 241.567,103.9 245,94.5C 249.988,84.5324 253.988,74.199 257,63.5C 266.011,52.8163 276.511,43.983 288.5,37C 292.081,32.0174 296.414,27.6841 301.5,24C 313.553,18.9456 324.886,12.6123 335.5,5C 340.995,3.29339 346.495,3.12672 352,4.5C 356.143,3.35222 359.976,1.68555 363.5,-0.5 Z M 482.5,290.5 C 482.815,292.226 482.981,293.893 483,295.5C 481.323,293.852 481.156,292.185 482.5,290.5 Z M 498.5,325.5 C 493.973,322.982 489.473,320.316 485,317.5C 481.813,311.294 481.147,304.961 483,298.5C 482.516,303.196 484.183,306.863 488,309.5C 488.413,312.232 489.08,314.899 490,317.5C 492.729,320.399 495.562,323.066 498.5,325.5 Z M 498.5,325.5 C 500.027,325.427 501.027,326.094 501.5,327.5C 499.973,327.573 498.973,326.906 498.5,325.5 Z"/></g>
<g><path style="opacity:1" fill="#ac6639" d="M 414.5,59.5 C 422.245,72.0691 426.578,85.7358 427.5,100.5C 426.95,106.364 425.617,112.031 423.5,117.5C 419.324,117.981 415.324,119.147 411.5,121C 409.53,123.316 407.196,125.149 404.5,126.5C 403.571,127.689 403.238,129.022 403.5,130.5C 403.53,131.497 403.03,132.164 402,132.5C 396.77,134.2 391.937,136.533 387.5,139.5C 383.713,140.95 381.38,143.617 380.5,147.5C 381.829,154.491 384.995,160.491 390,165.5C 390.49,164.207 390.657,162.873 390.5,161.5C 391.945,164.25 394.279,166.084 397.5,167C 416.424,174.814 435.09,174.314 453.5,165.5C 456.747,168.375 458.58,172.041 459,176.5C 462.175,187.618 460.342,197.784 453.5,207C 448.615,210.297 443.282,212.631 437.5,214C 435.598,215.73 433.931,217.563 432.5,219.5C 430.787,217.805 428.787,216.972 426.5,217C 429.409,218.406 431.409,220.572 432.5,223.5C 430.889,235.433 431.555,247.267 434.5,259C 434.133,266.067 431.133,271.734 425.5,276C 413.542,281.29 404.042,289.457 397,300.5C 393.799,304.036 390.299,307.203 386.5,310C 381.649,310.174 376.982,310.674 372.5,311.5C 366.244,312.068 359.911,311.901 353.5,311C 350.412,309.125 347.079,307.792 343.5,307C 340.279,303.779 337.113,300.613 334,297.5C 331.922,300.103 330.589,303.103 330,306.5C 321.416,300.587 313.416,293.92 306,286.5C 297.584,275.671 291.251,263.671 287,250.5C 277.687,213.683 274.02,176.35 276,138.5C 278.4,127.69 281.4,117.024 285,106.5C 288.205,100.534 291.038,94.3674 293.5,88C 292.336,85.4587 292.503,82.9587 294,80.5C 295.826,77.3966 297.16,74.0633 298,70.5C 298.833,69.6667 299.667,68.8333 300.5,68C 314.686,62.4536 329.352,58.7869 344.5,57C 362.167,56.3333 379.833,56.3333 397.5,57C 403.201,57.7538 408.868,58.5872 414.5,59.5 Z"/></g>
<g><path style="opacity:1" fill="#925430" d="M 414.5,59.5 C 424.536,60.8039 434.202,63.3039 443.5,67C 445.221,68.5272 447.221,69.5272 449.5,70C 452.856,72.3469 453.856,75.3469 452.5,79C 454.8,80.1128 455.133,81.6128 453.5,83.5C 454.987,88.628 456.654,93.628 458.5,98.5C 457.658,101.836 458.824,104.503 462,106.5C 464.008,111.201 466.008,115.867 468,120.5C 472.94,163.09 469.94,205.09 459,246.5C 450.284,269.94 435.784,288.94 415.5,303.5C 414.833,302.167 414.167,300.833 413.5,299.5C 408.146,303.196 402.812,306.863 397.5,310.5C 396.808,309.975 396.308,309.308 396,308.5C 393.561,310.207 390.895,311.541 388,312.5C 382.884,311.575 377.717,311.242 372.5,311.5C 376.982,310.674 381.649,310.174 386.5,310C 390.299,307.203 393.799,304.036 397,300.5C 404.042,289.457 413.542,281.29 425.5,276C 431.133,271.734 434.133,266.067 434.5,259C 431.555,247.267 430.889,235.433 432.5,223.5C 433.793,224.842 434.626,226.509 435,228.5C 435.485,225.124 434.652,222.124 432.5,219.5C 433.931,217.563 435.598,215.73 437.5,214C 443.282,212.631 448.615,210.297 453.5,207C 460.342,197.784 462.175,187.618 459,176.5C 458.58,172.041 456.747,168.375 453.5,165.5C 435.09,174.314 416.424,174.814 397.5,167C 394.279,166.084 391.945,164.25 390.5,161.5C 385.896,156.433 384.062,150.433 385,143.5C 386.167,142.333 387.333,141.167 388.5,140C 388.272,139.601 387.938,139.435 387.5,139.5C 391.937,136.533 396.77,134.2 402,132.5C 403.03,132.164 403.53,131.497 403.5,130.5C 404.316,133.807 406.483,135.473 410,135.5C 417.437,134.293 424.604,132.293 431.5,129.5C 440.588,130.462 448.088,134.462 454,141.5C 455.819,138.832 455.985,135.999 454.5,133C 446.882,122.405 436.549,117.238 423.5,117.5C 425.617,112.031 426.95,106.364 427.5,100.5C 426.578,85.7358 422.245,72.0691 414.5,59.5 Z"/></g>
<g><path style="opacity:1" fill="#211407" d="M 348.5,130.5 C 346.03,132.594 343.03,133.594 339.5,133.5C 333.525,133.539 327.858,132.372 322.5,130C 319.833,129.333 317.167,129.333 314.5,130C 310.76,132.201 306.76,133.868 302.5,135C 300,137.5 297.5,140 295,142.5C 293.193,140.294 293.026,137.961 294.5,135.5C 303.485,119.472 317.152,113.638 335.5,118C 338.879,119.107 342.046,120.607 345,122.5C 347.995,121.639 349.495,122.972 349.5,126.5C 349.377,127.925 349.043,129.258 348.5,130.5 Z"/></g>
<g><path style="opacity:1" fill="#211307" d="M 423.5,117.5 C 436.549,117.238 446.882,122.405 454.5,133C 455.985,135.999 455.819,138.832 454,141.5C 448.088,134.462 440.588,130.462 431.5,129.5C 424.604,132.293 417.437,134.293 410,135.5C 406.483,135.473 404.316,133.807 403.5,130.5C 403.238,129.022 403.571,127.689 404.5,126.5C 407.196,125.149 409.53,123.316 411.5,121C 415.324,119.147 419.324,117.981 423.5,117.5 Z"/></g>
<g><path style="opacity:1" fill="#935431" d="M 348.5,130.5 C 351.227,137.592 354.894,144.259 359.5,150.5C 356.344,163.159 348.344,170.326 335.5,172C 320.451,172.168 305.451,173.001 290.5,174.5C 290.34,172.801 290.506,171.134 291,169.5C 293.614,166.21 296.781,163.71 300.5,162C 297.579,158.408 294.079,155.575 290,153.5C 288.669,146.715 289.669,140.382 293,134.5C 293.383,135.056 293.883,135.389 294.5,135.5C 293.026,137.961 293.193,140.294 295,142.5C 297.5,140 300,137.5 302.5,135C 306.76,133.868 310.76,132.201 314.5,130C 317.167,129.333 319.833,129.333 322.5,130C 327.858,132.372 333.525,133.539 339.5,133.5C 343.03,133.594 346.03,132.594 348.5,130.5 Z"/></g>
<g><path style="opacity:1" fill="#1b1006" d="M 417.5,139.5 C 427.536,139.13 436.203,142.297 443.5,149C 439.382,147.951 435.382,146.284 431.5,144C 420.483,140.699 410.483,142.533 401.5,149.5C 401.167,149.333 400.833,149.167 400.5,149C 404.741,143.214 410.408,140.048 417.5,139.5 Z"/></g>
<g><path style="opacity:1" fill="#1f1308" d="M 324.5,140.5 C 334.152,139.053 342.486,141.553 349.5,148C 346.494,147.004 343.494,145.671 340.5,144C 328.428,142.452 317.261,144.952 307,151.5C 305.278,151.389 305.112,150.889 306.5,150C 309.772,148.392 312.772,146.392 315.5,144C 318.79,143.275 321.79,142.108 324.5,140.5 Z"/></g>
<g><path style="opacity:1" fill="#1e1308" d="M 320.5,146.5 C 326.176,146.334 331.843,146.501 337.5,147C 342.871,150.337 348.204,153.671 353.5,157C 352.377,158.044 351.044,158.71 349.5,159C 344.771,159.273 340.104,159.939 335.5,161C 329.442,161.739 323.442,161.406 317.5,160C 313.681,158.926 310.348,157.093 307.5,154.5C 307.977,153.522 308.643,152.689 309.5,152C 313.259,150.121 316.925,148.287 320.5,146.5 Z"/></g>
<g><path style="opacity:1" fill="#d6d9d9" d="M 320.5,149.5 C 321.552,149.351 322.552,149.517 323.5,150C 322.715,152.908 322.381,155.742 322.5,158.5C 317.428,158.602 315.594,156.269 317,151.5C 318.302,150.915 319.469,150.249 320.5,149.5 Z"/></g>
<g><path style="opacity:1" fill="#ebeeef" d="M 326.5,149.5 C 328.625,150.368 328.791,151.368 327,152.5C 325.317,151.824 325.15,150.824 326.5,149.5 Z"/></g>
<g><path style="opacity:1" fill="#d3d6d6" d="M 335.5,149.5 C 338.09,150.128 340.423,151.295 342.5,153C 343.517,154.049 343.684,155.216 343,156.5C 340.876,157.227 338.709,157.894 336.5,158.5C 336.618,155.552 336.284,152.552 335.5,149.5 Z"/></g>
<g><path style="opacity:1" fill="#939594" d="M 329.5,153.5 C 331.337,153.639 331.67,154.306 330.5,155.5C 329.702,155.043 329.369,154.376 329.5,153.5 Z"/></g>
<g><path style="opacity:1" fill="#1d130a" d="M 412.5,145.5 C 418.509,145.334 424.509,145.501 430.5,146C 446.283,151.711 445.617,156.378 428.5,160C 419.464,160.717 410.464,160.384 401.5,159C 399.956,158.71 398.623,158.044 397.5,157C 401.997,152.365 406.997,148.531 412.5,145.5 Z"/></g>
<g><path style="opacity:1" fill="#e1e3e3" d="M 411.5,149.5 C 413.002,151.768 414.335,154.268 415.5,157C 412.469,157.495 409.469,157.329 406.5,156.5C 406.343,155.127 406.51,153.793 407,152.5C 408.652,151.601 410.152,150.601 411.5,149.5 Z"/></g>
<g><path style="opacity:1" fill="#818280" d="M 430.5,149.5 C 428.94,151.156 427.94,153.156 427.5,155.5C 427.5,153.167 427.5,150.833 427.5,148.5C 428.791,148.263 429.791,148.596 430.5,149.5 Z"/></g>
<g><path style="opacity:1" fill="#e4e6e6" d="M 430.5,149.5 C 433.128,150.625 433.961,152.625 433,155.5C 431.192,157.396 429.025,157.896 426.5,157C 427.056,156.617 427.389,156.117 427.5,155.5C 427.94,153.156 428.94,151.156 430.5,149.5 Z"/></g>
<g><path style="opacity:1" fill="#e1e3e3" d="M 416.5,149.5 C 417.5,149.5 418.5,149.5 419.5,149.5C 419.5,150.5 419.5,151.5 419.5,152.5C 418.5,152.5 417.5,152.5 416.5,152.5C 416.5,151.5 416.5,150.5 416.5,149.5 Z"/></g>
<g><path style="opacity:1" fill="#1f1308" d="M 387.5,139.5 C 387.938,139.435 388.272,139.601 388.5,140C 387.333,141.167 386.167,142.333 385,143.5C 384.062,150.433 385.896,156.433 390.5,161.5C 390.657,162.873 390.49,164.207 390,165.5C 384.995,160.491 381.829,154.491 380.5,147.5C 381.38,143.617 383.713,140.95 387.5,139.5 Z"/></g>
<g><path style="opacity:1" fill="#ab6539" d="M 480.5,159.5 C 483.325,159.081 485.491,160.081 487,162.5C 488.036,167.318 489.369,171.985 491,176.5C 492.008,185.973 489.841,194.64 484.5,202.5C 481.227,192.868 480.56,183.035 482.5,173C 482.209,168.425 481.543,163.925 480.5,159.5 Z"/></g>
<g><path style="opacity:1" fill="#1f1308" d="M 407.5,163.5 C 407.56,162.957 407.893,162.624 408.5,162.5C 413.396,164.632 418.396,166.465 423.5,168C 417.532,168.675 412.199,167.175 407.5,163.5 Z"/></g>
<g><path style="opacity:1" fill="#27180b" d="M 341.5,164.5 C 342.239,164.369 342.906,164.536 343.5,165C 337.693,168.928 331.359,170.095 324.5,168.5C 329.5,167.667 334.5,166.833 339.5,166C 340.416,165.722 341.082,165.222 341.5,164.5 Z"/></g>
<g><path style="opacity:1" fill="#935431" d="M 391.5,177.5 C 394.72,180.883 398.386,183.716 402.5,186C 408.728,192.047 409.062,198.38 403.5,205C 401.5,206 399.5,207 397.5,208C 398.094,208.464 398.761,208.631 399.5,208.5C 396.112,210.175 392.445,211.342 388.5,212C 385.728,213.86 383.395,216.194 381.5,219C 380.5,219.167 379.5,219.333 378.5,219.5C 370.17,217.335 362.004,214.668 354,211.5C 346.466,215.579 341.633,213.579 339.5,205.5C 342.007,208.036 345.007,208.869 348.5,208C 342.15,204.292 339.65,198.792 341,191.5C 341.2,189.68 342.034,188.347 343.5,187.5C 347.711,188.193 351.045,190.36 353.5,194C 359.25,195.705 364.916,197.705 370.5,200C 381.58,201.971 388.58,197.638 391.5,187C 390.246,182.992 388.579,179.158 386.5,175.5C 386.833,175.167 387.167,174.833 387.5,174.5C 389.16,175.172 390.493,176.172 391.5,177.5 Z"/></g>
<g><path style="opacity:1" fill="#a96438" d="M 260.5,164.5 C 261.659,175.659 261.826,186.992 261,198.5C 260.781,199.938 260.281,201.271 259.5,202.5C 257.348,199.863 256.015,196.863 255.5,193.5C 257.704,184.648 258.871,175.648 259,166.5C 259.717,165.956 260.217,165.289 260.5,164.5 Z"/></g>
<g><path style="opacity:1" fill="#201307" d="M 343.5,187.5 C 342.034,188.347 341.2,189.68 341,191.5C 339.65,198.792 342.15,204.292 348.5,208C 345.007,208.869 342.007,208.036 339.5,205.5C 335.385,198.681 335.552,192.014 340,185.5C 347.343,180.951 348.51,181.618 343.5,187.5 Z"/></g>
<g><path style="opacity:1" fill="#a66237" d="M 268.5,176.5 C 270.045,177.23 270.878,178.563 271,180.5C 271.851,195.292 273.685,209.959 276.5,224.5C 276.225,226.609 275.058,227.942 273,228.5C 271.148,224.844 269.148,221.178 267,217.5C 267.457,203.85 267.957,190.184 268.5,176.5 Z"/></g>
<g><path style="opacity:1" fill="#1e1207" d="M 399.5,208.5 C 398.761,208.631 398.094,208.464 397.5,208C 399.5,207 401.5,206 403.5,205C 409.062,198.38 408.728,192.047 402.5,186C 398.386,183.716 394.72,180.883 391.5,177.5C 391.369,176.761 391.536,176.094 392,175.5C 396.422,178.964 401.256,181.797 406.5,184C 411.753,189.265 412.919,195.432 410,202.5C 407.308,205.929 403.808,207.929 399.5,208.5 Z"/></g>
<g><path style="opacity:1" fill="#a76238" d="M 473.5,191.5 C 476.699,202.489 477.866,213.822 477,225.5C 473.529,227.28 471.029,226.447 469.5,223C 471.039,212.519 472.373,202.019 473.5,191.5 Z"/></g>
<g><path style="opacity:1" fill="#201308" d="M 388.5,200.5 C 392.869,199.923 396.869,200.757 400.5,203C 397.572,202.544 394.572,202.544 391.5,203C 387.553,205.28 383.887,207.947 380.5,211C 377.119,213.245 373.452,213.912 369.5,213C 365.783,209.615 361.783,206.615 357.5,204C 354.833,203.667 352.167,203.333 349.5,203C 357.223,200.351 363.89,202.017 369.5,208C 372.964,208.817 376.298,208.483 379.5,207C 382.249,204.31 385.249,202.144 388.5,200.5 Z"/></g>
<g><path style="opacity:1" fill="#150b03" d="M 432.5,219.5 C 434.652,222.124 435.485,225.124 435,228.5C 434.626,226.509 433.793,224.842 432.5,223.5C 431.409,220.572 429.409,218.406 426.5,217C 428.787,216.972 430.787,217.805 432.5,219.5 Z"/></g>
<g><path style="opacity:0.992" fill="#3d2514" d="M 424.5,222.5 C 428.161,222.35 429.161,223.85 427.5,227C 423.707,227.487 422.707,225.987 424.5,222.5 Z"/></g>
<g><path style="opacity:1" fill="#201408" d="M 413.5,234.5 C 413.265,235.097 412.765,235.43 412,235.5C 402.606,233.497 393.106,232.997 383.5,234C 380.55,235.65 377.383,236.483 374,236.5C 362.805,233.516 351.805,234.182 341,238.5C 340.235,238.43 339.735,238.097 339.5,237.5C 346.879,233.696 354.712,231.363 363,230.5C 366.651,230.481 370.151,231.148 373.5,232.5C 387.052,228.295 400.385,228.962 413.5,234.5 Z"/></g>
<g><path style="opacity:1" fill="#9a5a33" d="M 413.5,234.5 C 416.489,235.814 419.489,237.147 422.5,238.5C 421.675,239.386 420.675,239.719 419.5,239.5C 416.172,239.024 412.839,239.691 409.5,241.5C 409.5,240.833 409.167,240.5 408.5,240.5C 397.256,236.594 385.923,236.594 374.5,240.5C 365.652,238.107 356.652,237.94 347.5,240C 342.518,241.99 337.518,243.49 332.5,244.5C 331.624,244.631 330.957,244.298 330.5,243.5C 333.576,241.493 336.576,239.493 339.5,237.5C 339.735,238.097 340.235,238.43 341,238.5C 351.805,234.182 362.805,233.516 374,236.5C 377.383,236.483 380.55,235.65 383.5,234C 393.106,232.997 402.606,233.497 412,235.5C 412.765,235.43 413.265,235.097 413.5,234.5 Z"/></g>
<g><path style="opacity:1" fill="#9c5a34" d="M 419.5,239.5 C 413.913,249.115 406.247,257.448 396.5,264.5C 396.44,263.957 396.107,263.624 395.5,263.5C 382.505,267.5 369.505,267.5 356.5,263.5C 355.893,263.624 355.56,263.957 355.5,264.5C 347.47,260.309 340.803,254.475 335.5,247C 336.056,246.617 336.389,246.117 336.5,245.5C 350.05,247.843 363.55,250.51 377,253.5C 391.911,251.064 406.078,246.398 419.5,239.5 Z"/></g>
<g><path style="opacity:1" fill="#1f160e" d="M 408.5,240.5 C 400.826,240.334 393.159,240.5 385.5,241C 381.848,242.773 378.015,243.94 374,244.5C 364.634,242.664 355.134,241.997 345.5,242.5C 345.5,243.5 345.5,244.5 345.5,245.5C 356.013,245.526 366.347,246.859 376.5,249.5C 387.72,247.278 398.72,244.611 409.5,241.5C 412.839,239.691 416.172,239.024 419.5,239.5C 406.078,246.398 391.911,251.064 377,253.5C 363.55,250.51 350.05,247.843 336.5,245.5C 335.041,245.567 333.708,245.234 332.5,244.5C 337.518,243.49 342.518,241.99 347.5,240C 356.652,237.94 365.652,238.107 374.5,240.5C 385.923,236.594 397.256,236.594 408.5,240.5 Z"/></g>
<g><path style="opacity:1" fill="#eaebeb" d="M 408.5,240.5 C 409.167,240.5 409.5,240.833 409.5,241.5C 398.72,244.611 387.72,247.278 376.5,249.5C 366.347,246.859 356.013,245.526 345.5,245.5C 345.5,244.5 345.5,243.5 345.5,242.5C 355.134,241.997 364.634,242.664 374,244.5C 378.015,243.94 381.848,242.773 385.5,241C 393.159,240.5 400.826,240.334 408.5,240.5 Z"/></g>
<g><path style="opacity:1" fill="#1d1106" d="M 396.5,264.5 C 394.004,265.58 391.67,266.914 389.5,268.5C 379.605,271.484 369.939,271.151 360.5,267.5C 358.632,266.737 356.965,265.737 355.5,264.5C 355.56,263.957 355.893,263.624 356.5,263.5C 369.505,267.5 382.505,267.5 395.5,263.5C 396.107,263.624 396.44,263.957 396.5,264.5 Z"/></g>
<g><path style="opacity:1" fill="#925431" d="M 360.5,267.5 C 369.939,271.151 379.605,271.484 389.5,268.5C 384.97,276.749 377.97,279.582 368.5,277C 364.308,275.907 361.308,273.407 359.5,269.5C 359.863,268.817 360.196,268.15 360.5,267.5 Z"/></g>
<g><path style="opacity:1" fill="#894d2e" d="M 456.5,290.5 C 455.732,289.737 455.232,288.737 455,287.5C 447.56,301.602 438.56,314.602 428,326.5C 425.371,331.421 423.038,336.421 421,341.5C 414.492,348.009 408.325,354.842 402.5,362C 400.913,362.862 399.246,363.529 397.5,364C 383.833,364.667 370.167,364.667 356.5,364C 349.978,362.152 344.478,358.652 340,353.5C 333.172,340.506 325.838,327.839 318,315.5C 308.6,307.601 300.1,298.935 292.5,289.5C 292.334,285.486 292.501,281.486 293,277.5C 297.23,284.12 302.063,290.287 307.5,296C 316.372,301.605 324.706,307.939 332.5,315C 356.193,324.222 380.193,324.889 404.5,317C 425.261,305.073 441.928,288.906 454.5,268.5C 455.415,275.816 456.082,283.15 456.5,290.5 Z"/></g>
<g><path style="opacity:1" fill="#ac6639" d="M 456.5,290.5 C 457.045,302.511 457.878,314.511 459,326.5C 459.333,327.167 459.667,327.833 460,328.5C 462.013,323.388 463.013,318.055 463,312.5C 464.512,313.257 465.846,314.257 467,315.5C 476.567,346.192 467.734,370.026 440.5,387C 399.686,408.34 357.686,411.007 314.5,395C 281.565,378.625 270.398,352.792 281,317.5C 282.684,315.649 284.517,313.982 286.5,312.5C 286.893,318.799 288.393,324.799 291,330.5C 291.333,329.833 291.667,329.167 292,328.5C 292.5,315.504 292.667,302.504 292.5,289.5C 300.1,298.935 308.6,307.601 318,315.5C 325.838,327.839 333.172,340.506 340,353.5C 344.478,358.652 349.978,362.152 356.5,364C 370.167,364.667 383.833,364.667 397.5,364C 399.246,363.529 400.913,362.862 402.5,362C 408.325,354.842 414.492,348.009 421,341.5C 423.038,336.421 425.371,331.421 428,326.5C 438.56,314.602 447.56,301.602 455,287.5C 455.232,288.737 455.732,289.737 456.5,290.5 Z"/></g>
<g><path style="opacity:1" fill="#00548e" d="M 480.5,321.5 C 492.654,328.475 504.154,336.475 515,345.5C 515.553,352.2 515.22,358.867 514,365.5C 506.814,392.211 494.148,415.878 476,436.5C 446.379,469.528 412.546,497.195 374.5,519.5C 341.944,499.793 312.111,476.459 285,449.5C 274.853,437.866 265.187,425.866 256,413.5C 247.455,399.187 240.455,384.187 235,368.5C 233.539,361.211 232.873,353.878 233,346.5C 238.051,341.726 243.551,337.56 249.5,334C 254.949,333.702 259.782,331.535 264,327.5C 262.911,331.087 261.578,334.754 260,338.5C 259.178,345.642 259.845,352.642 262,359.5C 266.843,372.855 273.51,385.189 282,396.5C 308.534,429.575 339.534,457.575 375,480.5C 405.365,459.816 433.031,435.816 458,408.5C 468.161,396.19 476.827,382.857 484,368.5C 489.694,356.478 490.694,344.145 487,331.5C 484.978,327.997 482.811,324.663 480.5,321.5 Z"/></g>
<g><path style="opacity:1" fill="#a2aaad" d="M 474.5,323.5 C 482.926,330.943 486.093,340.277 484,351.5C 469.846,399.022 438.013,425.522 388.5,431C 361.445,434.397 335.445,430.73 310.5,420C 293.606,404.768 280.106,386.935 270,366.5C 266.563,357.768 264.897,348.768 265,339.5C 266.033,334.433 268.366,330.1 272,326.5C 268.328,360.998 282.161,385.498 313.5,400C 357.691,416.25 400.691,413.583 442.5,392C 468.71,376.414 479.376,353.581 474.5,323.5 Z"/></g>
<g><path style="opacity:1" fill="#00548e" d="M 730.5,539.5 C 493.167,539.5 255.833,539.5 18.5,539.5C 20.7226,531.573 22.8893,523.573 25,515.5C 34.2355,496.026 44.2355,477.026 55,458.5C 71.9525,436.545 91.7858,417.712 114.5,402C 151.472,383.68 188.805,366.18 226.5,349.5C 228.014,358.253 229.847,366.919 232,375.5C 241.778,402.585 256.445,426.585 276,447.5C 304.658,477.179 336.491,502.679 371.5,524C 373.5,524.667 375.5,524.667 377.5,524C 416.641,500.493 451.474,471.66 482,437.5C 503.577,412.007 516.744,382.674 521.5,349.5C 560.1,366.438 598.434,384.272 636.5,403C 655.855,417.016 673.355,433.182 689,451.5C 701.267,470.359 712.267,490.026 722,510.5C 725.427,520.013 728.261,529.68 730.5,539.5 Z"/></g>
<g><path style="opacity:1" fill="#a2aaac" d="M 437.5,420.5 C 438.239,420.369 438.906,420.536 439.5,421C 418.938,440.267 397.271,458.1 374.5,474.5C 354.916,460.531 336.25,445.364 318.5,429C 357.005,441.66 395.005,439.993 432.5,424C 434.584,423.303 436.251,422.136 437.5,420.5 Z"/></g>
</svg>
