<?xml version="1.0" encoding="UTF-8"?>
<!DOCTYPE svg PUBLIC "-//W3C//DTD SVG 1.1//EN" "http://www.w3.org/Graphics/SVG/1.1/DTD/svg11.dtd">
<svg xmlns="http://www.w3.org/2000/svg" version="1.1" width="750px" height="567px" style="shape-rendering:geometricPrecision; text-rendering:geometricPrecision; image-rendering:optimizeQuality; fill-rule:evenodd; clip-rule:evenodd" xmlns:xlink="http://www.w3.org/1999/xlink">
<g><path style="opacity:0.993" fill="#201408" d="M 363.5,-0.5 C 374.5,-0.5 385.5,-0.5 396.5,-0.5C 411.461,1.54788 425.127,7.04788 437.5,16C 452.257,25.0921 464.757,36.5921 475,50.5C 483.749,67.5739 487.916,85.7406 487.5,105C 486.967,115.228 485.967,125.394 484.5,135.5C 490.065,135.897 493.232,138.897 494,144.5C 494.64,154.87 495.64,165.203 497,175.5C 500.584,194.989 493.917,209.656 477,219.5C 474.864,236.18 471.197,252.514 466,268.5C 465.167,284.844 465.334,301.177 466.5,317.5C 486.87,328.012 505.87,340.512 523.5,355C 564.648,372.907 605.315,391.907 645.5,412C 668.257,428.756 688.424,448.256 706,470.5C 715.842,487.515 725.175,504.848 734,522.5C 738.815,537.098 743.315,551.764 747.5,566.5C 745.5,566.5 743.5,566.5 741.5,566.5C 737.818,551.598 733.318,536.931 728,522.5C 717.847,501.516 706.181,481.516 693,462.5C 682.5,452 672,441.5 661.5,431C 655.191,425.513 648.524,420.513 641.5,416C 602.968,396.77 563.968,378.603 524.5,361.5C 519.307,395.879 505.473,426.213 483,452.5C 451.389,487.966 415.222,517.633 374.5,541.5C 333.167,518.022 296.667,488.356 265,452.5C 246.81,431.462 233.81,407.462 226,380.5C 224.622,374.568 223.789,368.568 223.5,362.5C 183.872,378.667 144.872,396.501 106.5,416C 99.8854,420.281 93.5521,424.947 87.5,430C 76.6667,440.833 65.8333,451.667 55,462.5C 31.5611,493.714 15.3944,528.381 6.5,566.5C 4.5,566.5 2.5,566.5 0.5,566.5C 10.2436,526.017 27.7436,489.35 53,456.5C 64.8624,444.304 77.029,432.47 89.5,421C 93.6591,417.753 97.9924,414.753 102.5,412C 142.685,391.907 183.352,372.907 224.5,355C 230.961,348.939 237.961,343.606 245.5,339C 258.584,331.041 271.751,323.207 285,315.5C 286.238,290.807 287.738,266.14 289.5,241.5C 288.287,234.177 287.12,226.843 286,219.5C 270.666,212.518 263.166,200.518 263.5,183.5C 264.475,169.465 265.642,155.465 267,141.5C 268.096,136.235 271.263,133.235 276.5,132.5C 264.529,73.2744 285.862,31.1077 340.5,6C 348.163,3.33838 355.829,1.17171 363.5,-0.5 Z"/></g>
<g><path style="opacity:1" fill="#9c6338" d="M 412.5,51.5 C 426.592,73.3773 432.592,96.2106 430.5,120C 429.061,124.594 427.394,129.094 425.5,133.5C 419.473,135.083 413.807,137.416 408.5,140.5C 407.575,141.357 406.908,142.357 406.5,143.5C 402.18,148.154 397.847,152.821 393.5,157.5C 392.206,158.29 391.039,159.29 390,160.5C 389.333,163.5 389.333,166.5 390,169.5C 393.279,178.724 397.612,187.391 403,195.5C 403.64,193.735 403.473,192.068 402.5,190.5C 402.351,189.448 402.517,188.448 403,187.5C 408.616,191.806 414.949,194.473 422,195.5C 430,195.5 438,195.5 446,195.5C 451.463,194.339 456.629,192.339 461.5,189.5C 462.086,189.709 462.586,190.043 463,190.5C 465.732,200.601 464.732,210.268 460,219.5C 454.924,223.621 449.757,227.621 444.5,231.5C 441.704,234.796 439.537,238.463 438,242.5C 438.113,255.512 437.28,268.512 435.5,281.5C 430.625,286.208 426.292,291.375 422.5,297C 416.77,300.062 411.603,303.896 407,308.5C 404.888,312.278 402.388,315.778 399.5,319C 387.897,317.666 385.231,312.166 391.5,302.5C 397.188,301.488 402.188,299.154 406.5,295.5C 411.254,291.577 415.587,287.077 419.5,282C 421.833,280.5 424.167,279 426.5,277.5C 421.996,273.415 416.996,270.082 411.5,267.5C 406.847,263.09 401.347,260.423 395,259.5C 390.955,259.716 387.122,260.716 383.5,262.5C 373.251,257.417 364.251,259.083 356.5,267.5C 351.697,269.735 347.03,272.235 342.5,275C 346.846,278.867 350.346,283.367 353,288.5C 354.451,290.464 356.284,291.797 358.5,292.5C 362.345,296.252 366.678,299.252 371.5,301.5C 372.693,304.052 374.027,306.552 375.5,309C 374.692,311.088 373.692,313.088 372.5,315C 362.05,319.285 354.55,316.118 350,305.5C 341.916,297.42 334.582,288.753 328,279.5C 322.573,266.211 316.573,253.211 310,240.5C 305.254,231.666 299.088,224 291.5,217.5C 288.77,204.661 287.103,191.661 286.5,178.5C 287.591,166.19 288.591,153.857 289.5,141.5C 288.653,129.172 288.487,116.838 289,104.5C 292.21,93.9257 295.21,83.2591 298,72.5C 300.534,65.7662 303.867,59.4329 308,53.5C 310.08,51.8767 312.246,50.3767 314.5,49C 347.239,47.795 379.905,48.6283 412.5,51.5 Z"/></g>
<g><path style="opacity:1" fill="#8b5531" d="M 412.5,51.5 C 425.655,51.9363 438.655,53.4363 451.5,56C 465.559,74.5368 472.559,95.5368 472.5,119C 471.88,126.837 471.214,134.671 470.5,142.5C 472.567,158.1 473.9,173.767 474.5,189.5C 474.898,198.72 473.898,207.72 471.5,216.5C 462.876,225.721 455.71,236.054 450,247.5C 448.759,254.525 447.425,261.525 446,268.5C 443.773,273.89 440.273,278.224 435.5,281.5C 437.28,268.512 438.113,255.512 438,242.5C 439.537,238.463 441.704,234.796 444.5,231.5C 449.757,227.621 454.924,223.621 460,219.5C 464.732,210.268 465.732,200.601 463,190.5C 462.586,190.043 462.086,189.709 461.5,189.5C 456.629,192.339 451.463,194.339 446,195.5C 438,195.5 430,195.5 422,195.5C 414.949,194.473 408.616,191.806 403,187.5C 402.517,188.448 402.351,189.448 402.5,190.5C 399.349,182.513 395.849,174.513 392,166.5C 391.212,163.228 391.712,160.228 393.5,157.5C 397.847,152.821 402.18,148.154 406.5,143.5C 406.791,144.649 407.624,145.316 409,145.5C 419.695,143.607 430.362,141.607 441,139.5C 447.093,140.274 452.76,142.274 458,145.5C 457.374,142.534 456.374,139.534 455,136.5C 450.566,133.244 445.566,131.577 440,131.5C 435.148,132.089 430.314,132.756 425.5,133.5C 427.394,129.094 429.061,124.594 430.5,120C 432.592,96.2106 426.592,73.3773 412.5,51.5 Z"/></g>
<g><path style="opacity:1" fill="#1e1206" d="M 406.5,143.5 C 406.908,142.357 407.575,141.357 408.5,140.5C 413.807,137.416 419.473,135.083 425.5,133.5C 430.314,132.756 435.148,132.089 440,131.5C 445.566,131.577 450.566,133.244 455,136.5C 456.374,139.534 457.374,142.534 458,145.5C 452.76,142.274 447.093,140.274 441,139.5C 430.362,141.607 419.695,143.607 409,145.5C 407.624,145.316 406.791,144.649 406.5,143.5 Z"/></g>
<g><path style="opacity:1" fill="#201308" d="M 358.5,146.5 C 351.159,144.775 343.825,142.942 336.5,141C 327.5,140.333 318.5,140.333 309.5,141C 307.782,141.346 306.115,141.846 304.5,142.5C 303.893,142.376 303.56,142.043 303.5,141.5C 306.248,140.525 308.248,138.692 309.5,136C 311.623,135.185 313.623,134.185 315.5,133C 325.219,132.141 334.885,132.474 344.5,134C 347.383,136.609 350.717,138.442 354.5,139.5C 356.11,141.725 357.443,144.059 358.5,146.5 Z"/></g>
<g><path style="opacity:1" fill="#975f36" d="M 275.5,137.5 C 284.856,143.465 287.023,151.465 282,161.5C 279.918,154.927 276.418,149.26 271.5,144.5C 272.592,141.976 273.926,139.643 275.5,137.5 Z"/></g>
<g><path style="opacity:1" fill="#8a5430" d="M 358.5,146.5 C 360.204,153.577 362.204,160.577 364.5,167.5C 362.973,177.286 357.473,182.286 348,182.5C 345.333,183.167 342.667,183.833 340,184.5C 338.667,184.5 337.333,184.5 336,184.5C 329.905,182.786 323.905,180.786 318,178.5C 311.858,179.745 305.692,180.745 299.5,181.5C 301.322,177.487 303.822,173.82 307,170.5C 307.667,168.833 307.667,167.167 307,165.5C 298.356,158.524 297.189,150.524 303.5,141.5C 303.56,142.043 303.893,142.376 304.5,142.5C 306.115,141.846 307.782,141.346 309.5,141C 318.5,140.333 327.5,140.333 336.5,141C 343.825,142.942 351.159,144.775 358.5,146.5 Z"/></g>
<g><path style="opacity:1" fill="#955e35" d="M 483.5,141.5 C 487.968,141.748 489.468,144.082 488,148.5C 483.152,152.857 479.819,158.19 478,164.5C 476.607,159.905 476.274,155.239 477,150.5C 479.176,147.471 481.343,144.471 483.5,141.5 Z"/></g>
<g><path style="opacity:1" fill="#1f140a" d="M 331.5,145.5 C 339.255,145.018 346.589,146.518 353.5,150C 354.833,151.667 356.167,153.333 357.5,155C 354.058,152.307 350.058,150.307 345.5,149C 335.916,147.732 326.582,148.565 317.5,151.5C 316.304,151.154 316.304,150.654 317.5,150C 322.254,148.358 326.921,146.858 331.5,145.5 Z"/></g>
<g><path style="opacity:1" fill="#87522f" d="M 281.5,188.5 C 277.485,184.424 273.485,180.424 269.5,176.5C 269.885,167.116 270.718,157.782 272,148.5C 279.588,160.769 282.755,174.102 281.5,188.5 Z"/></g>
<g><path style="opacity:1" fill="#1b1208" d="M 418.5,146.5 C 427.705,145.801 436.372,147.635 444.5,152C 440.812,151.833 437.145,151.166 433.5,150C 424.264,148.358 415.597,149.858 407.5,154.5C 406.304,154.154 406.304,153.654 407.5,153C 411.262,150.794 414.929,148.627 418.5,146.5 Z"/></g>
<g><path style="opacity:1" fill="#1f150c" d="M 328.5,151.5 C 342.006,149.424 352.339,154.09 359.5,165.5C 358.975,166.192 358.308,166.692 357.5,167C 350.472,167.639 343.472,168.473 336.5,169.5C 328.156,169.491 321.156,166.491 315.5,160.5C 319.34,156.75 323.673,153.75 328.5,151.5 Z"/></g>
<g><path style="opacity:1" fill="#1f150c" d="M 419.5,151.5 C 428.289,150.863 436.289,153.03 443.5,158C 445.329,159.113 446.163,160.613 446,162.5C 442.238,166.13 437.738,168.297 432.5,169C 422.824,169.482 413.157,169.315 403.5,168.5C 403.264,165.774 404.097,163.441 406,161.5C 410.141,157.503 414.641,154.17 419.5,151.5 Z"/></g>
<g><path style="opacity:1" fill="#a4a2a1" d="M 330.5,161.5 C 329.732,160.737 329.232,159.737 329,158.5C 327.989,159.337 326.822,159.67 325.5,159.5C 325.5,160.833 325.5,162.167 325.5,163.5C 323.332,158.178 325.165,154.844 331,153.5C 330.745,156.082 330.578,158.748 330.5,161.5 Z"/></g>
<g><path style="opacity:1" fill="#959391" d="M 437.5,159.5 C 435.958,158.699 434.292,158.366 432.5,158.5C 432.737,159.791 432.404,160.791 431.5,161.5C 431.756,159.208 431.423,157.041 430.5,155C 431.5,154.333 432.5,154.333 433.5,155C 435.635,155.876 436.969,157.376 437.5,159.5 Z"/></g>
<g><path style="opacity:1" fill="#dedddd" d="M 333.5,155.5 C 335.346,155.222 336.68,155.889 337.5,157.5C 336.68,159.111 335.346,159.778 333.5,159.5C 333.5,158.167 333.5,156.833 333.5,155.5 Z"/></g>
<g><path style="opacity:1" fill="#e2e1e1" d="M 419.5,156.5 C 421.346,156.222 422.68,156.889 423.5,158.5C 422.68,160.111 421.346,160.778 419.5,160.5C 419.5,159.167 419.5,157.833 419.5,156.5 Z"/></g>
<g><path style="opacity:1" fill="#f5f5f5" d="M 330.5,161.5 C 330.833,162.167 331.167,162.833 331.5,163.5C 330.817,165.176 329.483,165.843 327.5,165.5C 326.167,165.5 325.5,164.833 325.5,163.5C 325.5,162.167 325.5,160.833 325.5,159.5C 326.822,159.67 327.989,159.337 329,158.5C 329.232,159.737 329.732,160.737 330.5,161.5 Z"/></g>
<g><path style="opacity:1" fill="#e6e5e5" d="M 437.5,159.5 C 437.437,165.957 434.104,168.457 427.5,167C 429.819,165.853 431.152,164.019 431.5,161.5C 432.404,160.791 432.737,159.791 432.5,158.5C 434.292,158.366 435.958,158.699 437.5,159.5 Z"/></g>
<g><path style="opacity:1" fill="#c0bfbe" d="M 337.5,159.5 C 339.337,159.639 339.67,160.306 338.5,161.5C 337.702,161.043 337.369,160.376 337.5,159.5 Z"/></g>
<g><path style="opacity:1" fill="#d3d2d1" d="M 345.5,156.5 C 349.643,157.569 351.643,160.235 351.5,164.5C 347.596,165.977 343.596,166.811 339.5,167C 343.825,164.882 345.825,161.382 345.5,156.5 Z"/></g>
<g><path style="opacity:1" fill="#cfcecd" d="M 415.5,156.5 C 417.197,158.305 418.03,160.639 418,163.5C 419.167,164.667 420.333,165.833 421.5,167C 417.852,167.062 414.185,166.895 410.5,166.5C 410.579,165.07 410.246,163.736 409.5,162.5C 411.215,160.118 413.215,158.118 415.5,156.5 Z"/></g>
<g><path style="opacity:1" fill="#c0bfbe" d="M 423.5,160.5 C 425.337,160.639 425.67,161.306 424.5,162.5C 423.702,162.043 423.369,161.376 423.5,160.5 Z"/></g>
<g><path style="opacity:1" fill="#a8a6a4" d="M 331.5,163.5 C 333.138,164.657 334.804,165.824 336.5,167C 333.28,167.32 330.28,166.82 327.5,165.5C 329.483,165.843 330.817,165.176 331.5,163.5 Z"/></g>
<g><path style="opacity:1" fill="#191106" d="M 393.5,157.5 C 391.712,160.228 391.212,163.228 392,166.5C 395.849,174.513 399.349,182.513 402.5,190.5C 403.473,192.068 403.64,193.735 403,195.5C 397.612,187.391 393.279,178.724 390,169.5C 389.333,166.5 389.333,163.5 390,160.5C 391.039,159.29 392.206,158.29 393.5,157.5 Z"/></g>
<g><path style="opacity:1" fill="#1a1108" d="M 346.5,172.5 C 348.379,172.393 348.712,172.893 347.5,174C 343.903,175.277 340.236,175.61 336.5,175C 339.991,174.262 343.325,173.429 346.5,172.5 Z"/></g>
<g><path style="opacity:1" fill="#1f130a" d="M 412.5,173.5 C 412.56,172.957 412.893,172.624 413.5,172.5C 416.656,174.163 419.989,175.33 423.5,176C 419.438,176.879 415.771,176.046 412.5,173.5 Z"/></g>
<g><path style="opacity:1" fill="#975f36" d="M 269.5,176.5 C 273.485,180.424 277.485,184.424 281.5,188.5C 283.062,195.317 284.395,202.317 285.5,209.5C 285.167,210.5 284.833,211.5 284.5,212.5C 271.378,203.9 266.378,191.9 269.5,176.5 Z"/></g>
<g><path style="opacity:1" fill="#925b34" d="M 487.5,150.5 C 489.465,159.469 490.965,168.802 492,178.5C 494.212,192.353 489.712,203.353 478.5,211.5C 478.167,211 477.833,210.5 477.5,210C 478.985,196.892 479.819,183.725 480,170.5C 482.422,163.726 484.922,157.059 487.5,150.5 Z"/></g>
<g><path style="opacity:1" fill="#895430" d="M 408.5,208.5 C 408.027,210.97 408.861,213.304 411,215.5C 414.159,221.226 414.159,226.893 411,232.5C 410.097,233.701 408.931,234.535 407.5,235C 408.448,235.483 409.448,235.649 410.5,235.5C 408.863,236.38 407.03,237.046 405,237.5C 401.621,236.655 398.287,235.655 395,234.5C 387.665,238.927 380.332,239.26 373,235.5C 368.201,238.84 363.368,239.173 358.5,236.5C 360.199,236.66 361.866,236.494 363.5,236C 361.04,234.542 358.873,232.709 357,230.5C 355.571,226.051 355.071,221.718 355.5,217.5C 355.56,216.957 355.893,216.624 356.5,216.5C 360.119,218.139 363.453,220.139 366.5,222.5C 369.965,221.015 373.465,219.682 377,218.5C 381.215,219.795 385.382,221.295 389.5,223C 394.669,224.295 399.169,223.128 403,219.5C 404.121,215.406 404.788,211.406 405,207.5C 406.313,206.713 407.48,207.046 408.5,208.5 Z"/></g>
<g><path style="opacity:1" fill="#603a1f" d="M 471.5,216.5 C 469.473,240.824 462.973,263.824 452,285.5C 439.407,306.43 423.574,324.597 404.5,340C 386.142,349.117 368.142,348.451 350.5,338C 343,329.167 334.833,321 326,313.5C 314.197,298.564 305.531,281.897 300,263.5C 295.98,248.378 293.146,233.044 291.5,217.5C 299.088,224 305.254,231.666 310,240.5C 316.573,253.211 322.573,266.211 328,279.5C 334.582,288.753 341.916,297.42 350,305.5C 354.55,316.118 362.05,319.285 372.5,315C 373.692,313.088 374.692,311.088 375.5,309C 374.027,306.552 372.693,304.052 371.5,301.5C 378.137,302.276 384.804,302.609 391.5,302.5C 385.231,312.166 387.897,317.666 399.5,319C 402.388,315.778 404.888,312.278 407,308.5C 411.603,303.896 416.77,300.062 422.5,297C 426.292,291.375 430.625,286.208 435.5,281.5C 440.273,278.224 443.773,273.89 446,268.5C 447.425,261.525 448.759,254.525 450,247.5C 455.71,236.054 462.876,225.721 471.5,216.5 Z"/></g>
<g><path style="opacity:1" fill="#1b1107" d="M 408.5,208.5 C 410.075,211.582 412.242,214.249 415,216.5C 418.19,224.194 416.69,230.528 410.5,235.5C 409.448,235.649 408.448,235.483 407.5,235C 408.931,234.535 410.097,233.701 411,232.5C 414.159,226.893 414.159,221.226 411,215.5C 408.861,213.304 408.027,210.97 408.5,208.5 Z"/></g>
<g><path style="opacity:1" fill="#1c1208" d="M 355.5,217.5 C 355.071,221.718 355.571,226.051 357,230.5C 358.873,232.709 361.04,234.542 363.5,236C 361.866,236.494 360.199,236.66 358.5,236.5C 351.776,231.156 350.776,224.823 355.5,217.5 Z"/></g>
<g><path style="opacity:1" fill="#1f1409" d="M 396.5,224.5 C 399.649,224.211 402.649,224.711 405.5,226C 403.167,226.333 400.833,226.667 398.5,227C 390.073,237.812 381.407,238.145 372.5,228C 370.212,227.178 367.878,226.511 365.5,226C 371.066,224.46 375.732,225.793 379.5,230C 386.635,232.768 392.302,230.935 396.5,224.5 Z"/></g>
<g><path style="opacity:1" fill="#1f1206" d="M 387.5,242.5 C 403.873,246.265 417.707,254.265 429,266.5C 429.667,269.5 429.667,272.5 429,275.5C 418.257,264.037 405.09,256.537 389.5,253C 389,252.5 388.5,252 388,251.5C 387.502,248.518 387.335,245.518 387.5,242.5 Z"/></g>
<g><path style="opacity:1" fill="#1e1206" d="M 377.5,242.5 C 378.822,242.33 379.989,242.663 381,243.5C 381.893,246.916 381.393,250.083 379.5,253C 368.493,255.778 358.16,260.112 348.5,266C 345.315,268.884 342.482,272.051 340,275.5C 338.574,269.184 340.407,264.017 345.5,260C 355.203,252.317 365.869,246.484 377.5,242.5 Z"/></g>
<g><path style="opacity:1" fill="#1b1207" d="M 411.5,267.5 C 406.434,265.533 401.267,263.867 396,262.5C 391.684,263.821 387.35,265.155 383,266.5C 379.521,264.697 375.854,263.363 372,262.5C 366.676,263.749 361.51,265.415 356.5,267.5C 364.251,259.083 373.251,257.417 383.5,262.5C 387.122,260.716 390.955,259.716 395,259.5C 401.347,260.423 406.847,263.09 411.5,267.5 Z"/></g>
<g><path style="opacity:1" fill="#824f2d" d="M 459.5,309.5 C 452.252,315.951 446.419,323.617 442,332.5C 436.333,337.5 430.667,342.5 425,347.5C 418.47,357.69 410.637,366.857 401.5,375C 388.161,386.336 374.161,387.336 359.5,378C 346.699,369.864 335.866,359.697 327,347.5C 319,332.833 311,318.167 303,303.5C 300.143,299.131 296.81,295.131 293,291.5C 292.827,297.016 292.327,302.349 291.5,307.5C 291.635,291.794 292.469,276.127 294,260.5C 299.638,281.109 308.971,299.776 322,316.5C 331.167,324.333 339.667,332.833 347.5,342C 368.542,354.583 389.542,354.583 410.5,342C 417.571,335.051 424.738,328.218 432,321.5C 441.245,309.344 450.245,297.011 459,284.5C 459.5,292.827 459.666,301.16 459.5,309.5 Z"/></g>
<g><path style="opacity:1" fill="#824f2d" d="M 411.5,267.5 C 416.996,270.082 421.996,273.415 426.5,277.5C 424.167,279 421.833,280.5 419.5,282C 415.587,287.077 411.254,291.577 406.5,295.5C 395.728,298.41 384.728,299.243 373.5,298C 368.046,297.226 363.046,295.393 358.5,292.5C 356.284,291.797 354.451,290.464 353,288.5C 350.346,283.367 346.846,278.867 342.5,275C 347.03,272.235 351.697,269.735 356.5,267.5C 361.51,265.415 366.676,263.749 372,262.5C 375.854,263.363 379.521,264.697 383,266.5C 387.35,265.155 391.684,263.821 396,262.5C 401.267,263.867 406.434,265.533 411.5,267.5 Z"/></g>
<g><path style="opacity:1" fill="#1e1409" d="M 350.5,275.5 C 353.314,274.835 356.314,274.502 359.5,274.5C 379.487,276.11 399.487,276.943 419.5,277C 408.421,277.464 397.421,278.631 386.5,280.5C 374.494,278.832 362.494,277.166 350.5,275.5 Z"/></g>
<g><path style="opacity:1" fill="#9d6338" d="M 459.5,309.5 C 459.334,319.839 459.5,330.172 460,340.5C 461,339.167 462,337.833 463,336.5C 463.172,332.129 463.672,327.796 464.5,323.5C 468.387,325.699 470.554,329.032 471,333.5C 477.005,360.832 468.505,382.332 445.5,398C 413.182,416.528 378.515,422.862 341.5,417C 324.376,414.142 308.709,407.809 294.5,398C 273.876,377.881 268.71,354.381 279,327.5C 285.23,320.093 287.896,321.426 287,331.5C 287.667,332.833 288.333,334.167 289,335.5C 289.333,335.167 289.667,334.833 290,334.5C 290.251,325.467 290.751,316.467 291.5,307.5C 292.327,302.349 292.827,297.016 293,291.5C 296.81,295.131 300.143,299.131 303,303.5C 311,318.167 319,332.833 327,347.5C 335.866,359.697 346.699,369.864 359.5,378C 374.161,387.336 388.161,386.336 401.5,375C 410.637,366.857 418.47,357.69 425,347.5C 430.667,342.5 436.333,337.5 442,332.5C 446.419,323.617 452.252,315.951 459.5,309.5 Z"/></g>
<g><path style="opacity:1" fill="#1f1409" d="M 358.5,292.5 C 363.046,295.393 368.046,297.226 373.5,298C 384.728,299.243 395.728,298.41 406.5,295.5C 402.188,299.154 397.188,301.488 391.5,302.5C 384.804,302.609 378.137,302.276 371.5,301.5C 366.678,299.252 362.345,296.252 358.5,292.5 Z"/></g>
<g><path style="opacity:1" fill="#9b2441" d="M 482.5,334.5 C 482.897,333.475 483.563,333.308 484.5,334C 494.844,340.17 504.844,346.837 514.5,354C 516.543,355.708 518.21,357.708 519.5,360C 515.637,391.265 503.804,419.098 484,443.5C 452.734,480.778 416.067,511.445 374,535.5C 334.267,512.123 298.934,483.123 268,448.5C 251.877,429.598 239.877,408.264 232,384.5C 229.856,376.78 228.356,368.947 227.5,361C 227.862,359.775 228.362,358.609 229,357.5C 240.092,349.245 251.592,341.578 263.5,334.5C 263.833,334.833 264.167,335.167 264.5,335.5C 258.109,343.395 255.609,352.395 257,362.5C 260.421,378.672 267.087,393.339 277,406.5C 304.387,441.67 336.72,471.337 374,495.5C 411.197,471.356 443.53,441.689 471,406.5C 481.203,393.093 487.869,378.093 491,361.5C 492.259,351.115 489.426,342.115 482.5,334.5 Z"/></g>
<g><path style="opacity:1" fill="#f8f7f7" d="M 441.5,428.5 C 405.941,446.645 368.607,451.312 329.5,442.5C 322.154,440.005 314.821,437.172 307.5,434C 290.191,417.695 276.358,398.862 266,377.5C 264.865,373.095 263.532,368.762 262,364.5C 261.333,359.5 261.333,354.5 262,349.5C 263.981,344.872 266.481,340.539 269.5,336.5C 265.297,377.263 282.63,404.096 321.5,417C 362.095,428.337 401.429,425.004 439.5,407C 468.44,391.876 481.107,368.042 477.5,335.5C 485.676,343.534 488.509,353.201 486,364.5C 478.322,390.979 463.488,412.312 441.5,428.5 Z"/></g>
<g><path style="opacity:1" fill="#9c2441" d="M 741.5,566.5 C 496.5,566.5 251.5,566.5 6.5,566.5C 15.3944,528.381 31.5611,493.714 55,462.5C 65.8333,451.667 76.6667,440.833 87.5,430C 93.5521,424.947 99.8854,420.281 106.5,416C 144.872,396.501 183.872,378.667 223.5,362.5C 223.789,368.568 224.622,374.568 226,380.5C 233.81,407.462 246.81,431.462 265,452.5C 296.667,488.356 333.167,518.022 374.5,541.5C 415.222,517.633 451.389,487.966 483,452.5C 505.473,426.213 519.307,395.879 524.5,361.5C 563.968,378.603 602.968,396.77 641.5,416C 648.524,420.513 655.191,425.513 661.5,431C 672,441.5 682.5,452 693,462.5C 706.181,481.516 717.847,501.516 728,522.5C 733.318,536.931 737.818,551.598 741.5,566.5 Z"/></g>
<g><path style="opacity:1" fill="#f9f9f9" d="M 321.5,443.5 C 322.842,444.793 324.509,445.626 326.5,446C 356.972,453.614 387.305,452.947 417.5,444C 422.377,442.058 427.044,439.892 431.5,437.5C 434.577,436.609 437.577,435.776 440.5,435C 420.066,455.449 397.899,473.615 374,489.5C 353.546,475.89 334.379,460.557 316.5,443.5C 318.003,442.948 319.669,442.948 321.5,443.5 Z"/></g>
<g><path style="opacity:1" fill="#231a15" d="M 441.5,428.5 C 437.557,431.478 433.223,433.978 428.5,436C 429.244,437.039 430.244,437.539 431.5,437.5C 427.044,439.892 422.377,442.058 417.5,444C 387.305,452.947 356.972,453.614 326.5,446C 324.509,445.626 322.842,444.793 321.5,443.5C 324.199,443.466 326.699,444.133 329,445.5C 329.483,444.552 329.649,443.552 329.5,442.5C 368.607,451.312 405.941,446.645 441.5,428.5 Z"/></g>
</svg>
