<?xml version="1.0" encoding="UTF-8"?>
<!DOCTYPE svg PUBLIC "-//W3C//DTD SVG 1.1//EN" "http://www.w3.org/Graphics/SVG/1.1/DTD/svg11.dtd">
<svg xmlns="http://www.w3.org/2000/svg" version="1.1" width="750px" height="574px" style="shape-rendering:geometricPrecision; text-rendering:geometricPrecision; image-rendering:optimizeQuality; fill-rule:evenodd; clip-rule:evenodd" xmlns:xlink="http://www.w3.org/1999/xlink">
<g><path style="opacity:0.02" fill="#1a0200" d="M 352.5,-0.5 C 353.833,-0.5 355.167,-0.5 356.5,-0.5C 356.5,-0.166667 356.5,0.166667 356.5,0.5C 354.901,0.767809 353.568,0.434475 352.5,-0.5 Z"/></g>
<g><path style="opacity:0.965" fill="#1c0d03" d="M 363.5,-0.5 C 372.5,-0.5 381.5,-0.5 390.5,-0.5C 397.021,0.937556 403.688,2.27089 410.5,3.5C 412.214,4.73838 414.214,5.40505 416.5,5.5C 417.209,6.40397 418.209,6.73731 419.5,6.5C 420.93,7.53747 422.597,8.20414 424.5,8.5C 427.979,10.4031 431.646,12.0698 435.5,13.5C 435.842,14.3382 436.508,14.6716 437.5,14.5C 438.659,16.2503 440.326,17.2503 442.5,17.5C 442.973,18.9063 443.973,19.573 445.5,19.5C 447.86,21.8532 450.527,23.8532 453.5,25.5C 458.474,30.1387 463.474,34.8053 468.5,39.5C 470.122,42.4549 472.122,45.1215 474.5,47.5C 475.34,49.8525 476.674,51.8525 478.5,53.5C 479.659,57.1513 481.326,60.4846 483.5,63.5C 483.75,65.674 484.75,67.3406 486.5,68.5C 487.992,72.8178 489.992,76.8178 492.5,80.5C 492.402,82.5529 493.069,84.2196 494.5,85.5C 494.41,88.1522 495.076,90.4855 496.5,92.5C 496.232,94.099 496.566,95.4324 497.5,96.5C 497.232,98.099 497.566,99.4324 498.5,100.5C 501.109,116.84 501.109,133.173 498.5,149.5C 502.414,149.111 506.08,149.778 509.5,151.5C 511.196,153.525 512.863,155.525 514.5,157.5C 515.917,162.89 516.583,168.39 516.5,174C 516.016,182.52 515.349,191.02 514.5,199.5C 513.566,200.568 513.232,201.901 513.5,203.5C 512.596,204.209 512.263,205.209 512.5,206.5C 511.662,206.842 511.328,207.508 511.5,208.5C 510.662,208.842 510.328,209.508 510.5,210.5C 509.662,210.842 509.328,211.508 509.5,212.5C 508.662,212.842 508.328,213.508 508.5,214.5C 507.662,214.842 507.328,215.508 507.5,216.5C 506.662,216.842 506.328,217.508 506.5,218.5C 505.662,218.842 505.328,219.508 505.5,220.5C 504.069,221.78 503.402,223.447 503.5,225.5C 502.662,225.842 502.328,226.508 502.5,227.5C 501.833,227.5 501.5,227.833 501.5,228.5C 500.662,228.842 500.328,229.508 500.5,230.5C 499.833,230.5 499.5,230.833 499.5,231.5C 497.457,232.579 496.124,234.246 495.5,236.5C 493.246,237.124 491.579,238.457 490.5,240.5C 489.069,240.881 488.236,241.881 488,243.5C 487.667,242.833 487.333,242.167 487,241.5C 486.581,245.852 485.914,246.185 485,242.5C 484.505,244.473 484.338,246.473 484.5,248.5C 483.291,252.618 482.624,256.951 482.5,261.5C 481.566,262.568 481.232,263.901 481.5,265.5C 480.596,266.209 480.263,267.209 480.5,268.5C 479.596,269.209 479.263,270.209 479.5,271.5C 478.596,272.209 478.263,273.209 478.5,274.5C 477.069,275.78 476.402,277.447 476.5,279.5C 475.662,279.842 475.328,280.508 475.5,281.5C 475.35,301.932 475.35,322.432 475.5,343C 477.577,344.705 479.91,345.872 482.5,346.5C 482.842,347.338 483.508,347.672 484.5,347.5C 486.336,349.588 488.669,350.921 491.5,351.5C 492.659,353.25 494.326,354.25 496.5,354.5C 497.899,355.89 499.566,356.89 501.5,357.5C 502.899,358.89 504.566,359.89 506.5,360.5C 506.973,361.906 507.973,362.573 509.5,362.5C 509.973,363.906 510.973,364.573 512.5,364.5C 512.973,365.906 513.973,366.573 515.5,366.5C 516.436,367.974 517.77,368.974 519.5,369.5C 522.19,372.185 525.19,374.518 528.5,376.5C 528.328,377.492 528.662,378.158 529.5,378.5C 530.514,379.674 531.847,380.34 533.5,380.5C 534.93,381.537 536.597,382.204 538.5,382.5C 539.78,383.931 541.447,384.598 543.5,384.5C 545.509,386.065 547.843,387.065 550.5,387.5C 551.93,388.537 553.597,389.204 555.5,389.5C 556.93,390.537 558.597,391.204 560.5,391.5C 561.78,392.931 563.447,393.598 565.5,393.5C 567.509,395.065 569.843,396.065 572.5,396.5C 573.93,397.537 575.597,398.204 577.5,398.5C 578.93,399.537 580.597,400.204 582.5,400.5C 583.78,401.931 585.447,402.598 587.5,402.5C 589.509,404.065 591.843,405.065 594.5,405.5C 595.93,406.537 597.597,407.204 599.5,407.5C 600.93,408.537 602.597,409.204 604.5,409.5C 606.509,411.065 608.843,412.065 611.5,412.5C 614.256,414.204 617.256,415.537 620.5,416.5C 621.78,417.931 623.447,418.598 625.5,418.5C 631.182,422.008 637.182,425.008 643.5,427.5C 643.842,428.338 644.508,428.672 645.5,428.5C 647.336,430.588 649.669,431.921 652.5,432.5C 654.822,434.664 657.489,436.331 660.5,437.5C 660.973,438.906 661.973,439.573 663.5,439.5C 664.29,440.401 665.29,441.068 666.5,441.5C 670.462,444.488 674.462,447.488 678.5,450.5C 681.141,452.804 683.808,455.138 686.5,457.5C 686.5,458.167 686.833,458.5 687.5,458.5C 691.167,462.833 695.167,466.833 699.5,470.5C 701.458,473.792 703.791,476.792 706.5,479.5C 706.427,481.027 707.094,482.027 708.5,482.5C 708.427,484.027 709.094,485.027 710.5,485.5C 710.328,486.492 710.662,487.158 711.5,487.5C 712.34,489.853 713.674,491.853 715.5,493.5C 715.66,495.153 716.326,496.486 717.5,497.5C 717.427,499.027 718.094,500.027 719.5,500.5C 719.992,502.819 720.992,504.819 722.5,506.5C 722.427,508.027 723.094,509.027 724.5,509.5C 724.328,510.492 724.662,511.158 725.5,511.5C 725.328,512.492 725.662,513.158 726.5,513.5C 726.328,514.492 726.662,515.158 727.5,515.5C 727.328,516.492 727.662,517.158 728.5,517.5C 728.328,518.492 728.662,519.158 729.5,519.5C 730.042,522.912 731.375,525.912 733.5,528.5C 733.328,529.492 733.662,530.158 734.5,530.5C 734.402,532.553 735.069,534.22 736.5,535.5C 736.402,537.553 737.069,539.22 738.5,540.5C 738.402,542.553 739.069,544.22 740.5,545.5C 740.263,546.791 740.596,547.791 741.5,548.5C 741.402,550.553 742.069,552.22 743.5,553.5C 743.263,554.791 743.596,555.791 744.5,556.5C 744.263,557.791 744.596,558.791 745.5,559.5C 745.263,560.791 745.596,561.791 746.5,562.5C 746.41,565.152 747.076,567.485 748.5,569.5C 748.5,570.833 748.5,572.167 748.5,573.5C 746.833,573.5 745.167,573.5 743.5,573.5C 733.261,538.024 717.427,505.357 696,475.5C 674.044,452.237 648.211,434.404 618.5,422C 589.207,409.736 559.874,397.569 530.5,385.5C 526.039,413.082 515.539,438.082 499,460.5C 478.756,486.745 455.256,509.579 428.5,529C 412.176,540.497 395.51,551.497 378.5,562C 376.305,563.373 373.971,563.706 371.5,563C 331.935,539.79 296.102,511.624 264,478.5C 244.256,456.689 229.923,431.689 221,403.5C 219.731,397.889 218.898,392.222 218.5,386.5C 185.841,398.777 153.508,411.944 121.5,426C 93.1509,438.742 68.9842,456.908 49,480.5C 29.6619,509.179 15.1619,540.179 5.5,573.5C 3.83333,573.5 2.16667,573.5 0.5,573.5C 0.5,572.167 0.5,570.833 0.5,569.5C 1.92381,567.485 2.59047,565.152 2.5,562.5C 3.40397,561.791 3.73731,560.791 3.5,559.5C 4.40397,558.791 4.73731,557.791 4.5,556.5C 5.40397,555.791 5.73731,554.791 5.5,553.5C 6.40397,552.791 6.73731,551.791 6.5,550.5C 7.93127,549.22 8.59794,547.553 8.5,545.5C 9.40397,544.791 9.73731,543.791 9.5,542.5C 10.9313,541.22 11.5979,539.553 11.5,537.5C 13.6951,534.765 14.5284,531.765 14,528.5C 14.3333,529.167 14.6667,529.833 15,530.5C 17.0719,527.029 18.5719,523.362 19.5,519.5C 20.3382,519.158 20.6716,518.492 20.5,517.5C 21.3382,517.158 21.6716,516.492 21.5,515.5C 22.3382,515.158 22.6716,514.492 22.5,513.5C 23.3382,513.158 23.6716,512.492 23.5,511.5C 24.3382,511.158 24.6716,510.492 24.5,509.5C 28.83,502.175 33.1634,494.841 37.5,487.5C 40.7667,482.988 44.6,477.655 49,471.5C 65.055,454.254 83.2217,439.921 103.5,428.5C 122.665,419.247 141.999,410.58 161.5,402.5C 169.118,400.019 176.451,397.019 183.5,393.5C 191.118,391.019 198.451,388.019 205.5,384.5C 209.578,383.298 213.578,381.798 217.5,380C 220.842,376.326 224.508,372.992 228.5,370C 237.565,364.143 246.565,358.309 255.5,352.5C 260.5,350.336 265.167,347.669 269.5,344.5C 270.492,344.672 271.158,344.338 271.5,343.5C 273.28,339.273 274.114,334.606 274,329.5C 274.698,310.304 275.864,291.138 277.5,272C 277.494,269.967 277.161,268.134 276.5,266.5C 276.737,265.209 276.404,264.209 275.5,263.5C 274.833,258.167 274.167,252.833 273.5,247.5C 272.5,247.5 271.5,247.5 270.5,247.5C 266.833,244.5 263.5,241.167 260.5,237.5C 259.974,235.77 258.974,234.436 257.5,233.5C 257.573,231.973 256.906,230.973 255.5,230.5C 255.573,228.973 254.906,227.973 253.5,227.5C 253.672,226.508 253.338,225.842 252.5,225.5C 252.167,222.833 251.833,222.833 251.5,225.5C 250.596,224.791 250.263,223.791 250.5,222.5C 251.833,221.833 251.833,221.167 250.5,220.5C 249.332,213.389 248.332,206.389 247.5,199.5C 247.052,188.915 246.385,178.582 245.5,168.5C 246.33,162.505 248.997,157.505 253.5,153.5C 254.5,153.5 255.5,153.5 256.5,153.5C 256.324,150.273 255.657,147.273 254.5,144.5C 254.68,132.642 254.68,120.975 254.5,109.5C 256.202,107.2 256.868,104.533 256.5,101.5C 257.735,97.6896 258.735,93.6896 259.5,89.5C 259.457,88.5836 259.124,87.9169 258.5,87.5C 258.457,83.1074 258.957,82.7741 260,86.5C 260.49,85.2068 260.657,83.8734 260.5,82.5C 261.434,81.4324 261.768,80.099 261.5,78.5C 263.405,74.7843 264.739,70.7843 265.5,66.5C 266.338,66.1583 266.672,65.4916 266.5,64.5C 268.008,62.8185 269.008,60.8185 269.5,58.5C 270.906,58.0269 271.573,57.0269 271.5,55.5C 281.874,41.459 294.207,29.459 308.5,19.5C 311.511,18.3307 314.178,16.664 316.5,14.5C 320.151,13.3411 323.485,11.6744 326.5,9.5C 329.443,9.01977 332.11,8.01977 334.5,6.5C 337.785,6.07191 340.785,5.07191 343.5,3.5C 346.428,3.43487 349.095,2.7682 351.5,1.5C 353.415,1.78448 355.081,1.45115 356.5,0.5C 359.059,0.801552 361.393,0.468218 363.5,-0.5 Z"/></g>
<g><path style="opacity:0.02" fill="#1a0200" d="M 351.5,1.5 C 350.127,1.65668 348.793,1.49001 347.5,1C 349.066,0.235015 350.399,0.401682 351.5,1.5 Z"/></g>
<g><path style="opacity:0.02" fill="#1c0200" d="M 344.5,2.5 C 344.897,1.47498 345.563,1.30831 346.5,2C 345.906,2.46434 345.239,2.63101 344.5,2.5 Z"/></g>
<g><path style="opacity:0.02" fill="#170200" d="M 343.5,3.5 C 342.448,3.64945 341.448,3.48278 340.5,3C 341.749,2.25988 342.749,2.42654 343.5,3.5 Z"/></g>
<g><path style="opacity:0.02" fill="#230400" d="M 410.5,3.5 C 410.897,2.47498 411.563,2.30831 412.5,3C 411.906,3.46434 411.239,3.63101 410.5,3.5 Z"/></g>
<g><path style="opacity:0.02" fill="#1c0200" d="M 337.5,4.5 C 337.897,3.47498 338.563,3.30831 339.5,4C 338.906,4.46434 338.239,4.63101 337.5,4.5 Z"/></g>
<g><path style="opacity:0.02" fill="#1c0200" d="M 334.5,5.5 C 334.897,4.47498 335.563,4.30831 336.5,5C 335.906,5.46434 335.239,5.63101 334.5,5.5 Z"/></g>
<g><path style="opacity:0.02" fill="#1c0200" d="M 416.5,5.5 C 416.897,4.47498 417.563,4.30831 418.5,5C 417.906,5.46434 417.239,5.63101 416.5,5.5 Z"/></g>
<g><path style="opacity:0.008" fill="#110100" d="M 334.5,5.5 C 334.5,5.83333 334.5,6.16667 334.5,6.5C 331.833,6.16667 331.833,5.83333 334.5,5.5 Z"/></g>
<g><path style="opacity:1" fill="#362212" d="M 483.5,176.5 C 481.268,165.994 479.101,155.327 477,144.5C 474.327,137.157 471.66,129.823 469,122.5C 467.955,115.875 467.289,109.208 467,102.5C 465.457,88.8923 458.624,79.059 446.5,73C 438.788,69.9052 430.788,68.0719 422.5,67.5C 415.297,65.984 407.964,65.1507 400.5,65C 365.655,61.3194 331.655,64.9861 298.5,76C 290.469,80.3894 285.969,87.2227 285,96.5C 284.071,101.287 283.571,106.12 283.5,111C 284.195,117.832 284.362,124.665 284,131.5C 277.302,146.954 273.469,162.954 272.5,179.5C 269.107,170.156 265.607,160.823 262,151.5C 258.589,123.527 261.589,96.1936 271,69.5C 287.529,38.6453 312.696,18.4786 346.5,9C 385.42,0.230491 420.753,7.89716 452.5,32C 471.513,51.0279 484.679,73.5279 492,99.5C 494.824,115.111 495.157,130.778 493,146.5C 489.39,156.939 486.723,167.606 485,178.5C 484.722,177.584 484.222,176.918 483.5,176.5 Z"/></g>
<g><path style="opacity:0.02" fill="#1c0200" d="M 419.5,6.5 C 419.897,5.47498 420.563,5.30831 421.5,6C 420.906,6.46434 420.239,6.63101 419.5,6.5 Z"/></g>
<g><path style="opacity:0.02" fill="#1c0200" d="M 424.5,8.5 C 424.897,7.47498 425.563,7.30831 426.5,8C 425.906,8.46434 425.239,8.63101 424.5,8.5 Z"/></g>
<g><path style="opacity:0.02" fill="#230400" d="M 326.5,9.5 C 325.833,8.16667 325.833,8.16667 326.5,9.5 Z"/></g>
<g><path style="opacity:0.02" fill="#230400" d="M 427.5,8.5 C 428.833,9.16667 428.833,9.16667 427.5,8.5 Z"/></g>
<g><path style="opacity:0.02" fill="#230400" d="M 435.5,12.5 C 436.833,13.1667 436.833,13.1667 435.5,12.5 Z"/></g>
<g><path style="opacity:0.02" fill="#230400" d="M 316.5,14.5 C 315.833,13.1667 315.833,13.1667 316.5,14.5 Z"/></g>
<g><path style="opacity:0.02" fill="#230400" d="M 437.5,13.5 C 438.833,14.1667 438.833,14.1667 437.5,13.5 Z"/></g>
<g><path style="opacity:0.02" fill="#230400" d="M 313.5,14.5 C 314.833,15.1667 314.833,15.1667 313.5,14.5 Z"/></g>
<g><path style="opacity:0.02" fill="#230400" d="M 439.5,14.5 C 440.833,15.1667 440.833,15.1667 439.5,14.5 Z"/></g>
<g><path style="opacity:0.02" fill="#230400" d="M 442.5,16.5 C 443.833,17.1667 443.833,17.1667 442.5,16.5 Z"/></g>
<g><path style="opacity:0.02" fill="#230400" d="M 308.5,17.5 C 309.833,18.1667 309.833,18.1667 308.5,17.5 Z"/></g>
<g><path style="opacity:0.02" fill="#230400" d="M 445.5,18.5 C 444.833,17.1667 444.833,17.1667 445.5,18.5 Z"/></g>
<g><path style="opacity:0.02" fill="#230400" d="M 308.5,18.5 C 308.5,18.8333 308.5,19.1667 308.5,19.5C 307.83,19.0187 307.83,18.6853 308.5,18.5 Z"/></g>
<g><path style="opacity:0.02" fill="#230400" d="M 445.5,18.5 C 446.833,19.1667 446.833,19.1667 445.5,18.5 Z"/></g>
<g><path style="opacity:0.008" fill="#000000" d="M 447.5,19.5 C 448.833,20.1667 448.833,20.1667 447.5,19.5 Z"/></g>
<g><path style="opacity:0.008" fill="#000000" d="M 302.5,21.5 C 303.833,22.1667 303.833,22.1667 302.5,21.5 Z"/></g>
<g><path style="opacity:0.008" fill="#000000" d="M 298.5,24.5 C 299.833,25.1667 299.833,25.1667 298.5,24.5 Z"/></g>
<g><path style="opacity:0.02" fill="#230400" d="M 453.5,24.5 C 454.833,25.1667 454.833,25.1667 453.5,24.5 Z"/></g>
<g><path style="opacity:0.008" fill="#000000" d="M 455.5,25.5 C 456.833,26.1667 456.833,26.1667 455.5,25.5 Z"/></g>
<g><path style="opacity:0.02" fill="#230400" d="M 469.5,39.5 C 468.833,38.1667 468.833,38.1667 469.5,39.5 Z"/></g>
<g><path style="opacity:0.008" fill="#000000" d="M 469.5,39.5 C 470.833,40.1667 470.833,40.1667 469.5,39.5 Z"/></g>
<g><path style="opacity:0.008" fill="#000000" d="M 276.5,45.5 C 277.833,46.1667 277.833,46.1667 276.5,45.5 Z"/></g>
<g><path style="opacity:0.02" fill="#230400" d="M 475.5,47.5 C 474.833,46.1667 474.833,46.1667 475.5,47.5 Z"/></g>
<g><path style="opacity:0.008" fill="#000000" d="M 475.5,47.5 C 476.833,48.1667 476.833,48.1667 475.5,47.5 Z"/></g>
<g><path style="opacity:0.02" fill="#230400" d="M 478.5,52.5 C 479.833,53.1667 479.833,53.1667 478.5,52.5 Z"/></g>
<g><path style="opacity:0.02" fill="#1c0200" d="M 271.5,55.5 C 271.167,55.5 270.833,55.5 270.5,55.5C 270.833,52.8333 271.167,52.8333 271.5,55.5 Z"/></g>
<g><path style="opacity:0.02" fill="#230400" d="M 270.5,55.5 C 269.833,56.1667 269.833,56.1667 270.5,55.5 Z"/></g>
<g><path style="opacity:0.02" fill="#230400" d="M 269.5,58.5 C 268.833,57.1667 268.833,57.1667 269.5,58.5 Z"/></g>
<g><path style="opacity:0.008" fill="#110100" d="M 484.5,63.5 C 484.167,63.5 483.833,63.5 483.5,63.5C 483.833,60.8333 484.167,60.8333 484.5,63.5 Z"/></g>
<g><path style="opacity:0.02" fill="#1c0200" d="M 266.5,64.5 C 265.475,64.1034 265.308,63.4368 266,62.5C 266.464,63.0944 266.631,63.7611 266.5,64.5 Z"/></g>
<g><path style="opacity:0.02" fill="#230400" d="M 484.5,63.5 C 485.833,64.1667 485.833,64.1667 484.5,63.5 Z"/></g>
<g><path style="opacity:1" fill="#e1ae9a" d="M 422.5,67.5 C 428.188,92.0472 424.188,114.714 410.5,135.5C 408.958,136.301 407.292,136.634 405.5,136.5C 398.41,136.638 391.577,137.971 385,140.5C 383.69,141.13 382.856,142.13 382.5,143.5C 381.445,146.073 381.278,148.739 382,151.5C 385.105,161.644 388.272,171.644 391.5,181.5C 392.302,180.048 392.802,178.382 393,176.5C 403.434,187.87 416.434,193.203 432,192.5C 442.393,192.528 451.893,189.695 460.5,184C 462.441,183.257 464.274,183.424 466,184.5C 469.26,193.169 469.26,201.836 466,210.5C 459.809,215.935 453.809,221.602 448,227.5C 447.138,229.087 446.471,230.754 446,232.5C 445.694,238.048 445.527,243.382 445.5,248.5C 441.801,242.955 436.801,238.788 430.5,236C 420.702,233.836 411.035,231.169 401.5,228C 397.848,227.501 394.182,227.335 390.5,227.5C 389.262,227.19 389.262,226.69 390.5,226C 394.167,225.667 397.833,225.333 401.5,225C 402.056,224.617 402.389,224.117 402.5,223.5C 404.679,223.16 406.512,222.16 408,220.5C 410.409,215.281 409.909,210.447 406.5,206C 402.268,203.725 398.268,201.225 394.5,198.5C 393.361,195.794 391.361,194.627 388.5,195C 394.947,209.551 390.28,215.885 374.5,214C 373.299,213.097 372.465,211.931 372,210.5C 371.667,207.167 371.333,203.833 371,200.5C 369.114,203.242 366.614,204.909 363.5,205.5C 364.509,202.473 364.509,199.473 363.5,196.5C 362.522,196.977 361.689,197.643 361,198.5C 360.399,196.641 359.566,196.308 358.5,197.5C 355.578,201.064 352.078,204.064 348,206.5C 343.856,213.357 345.023,219.023 351.5,223.5C 354.185,224.776 356.852,224.442 359.5,222.5C 362.875,223.706 365.875,225.54 368.5,228C 367.552,228.483 366.552,228.649 365.5,228.5C 361.888,227.489 358.221,227.322 354.5,228C 339.589,230.167 326.423,236.001 315,245.5C 311.697,251.425 308.03,257.092 304,262.5C 303.667,262.167 303.333,261.833 303,261.5C 302.131,264.394 300.298,265.561 297.5,265C 293.327,261.159 289.493,256.993 286,252.5C 283.366,247.853 280.699,243.187 278,238.5C 277.098,229.991 275.432,221.658 273,213.5C 272.5,202.172 272.333,190.838 272.5,179.5C 273.469,162.954 277.302,146.954 284,131.5C 284.362,124.665 284.195,117.832 283.5,111C 283.571,106.12 284.071,101.287 285,96.5C 285.969,87.2227 290.469,80.3894 298.5,76C 331.655,64.9861 365.655,61.3194 400.5,65C 407.964,65.1507 415.297,65.984 422.5,67.5 Z"/></g>
<g><path style="opacity:0.02" fill="#230400" d="M 265.5,66.5 C 264.833,65.1667 264.833,65.1667 265.5,66.5 Z"/></g>
<g><path style="opacity:0.02" fill="#230400" d="M 485.5,65.5 C 486.833,66.1667 486.833,66.1667 485.5,65.5 Z"/></g>
<g><path style="opacity:0.02" fill="#230400" d="M 486.5,67.5 C 487.833,68.1667 487.833,68.1667 486.5,67.5 Z"/></g>
<g><path style="opacity:1" fill="#d19b88" d="M 422.5,67.5 C 430.788,68.0719 438.788,69.9052 446.5,73C 458.624,79.059 465.457,88.8923 467,102.5C 467.289,109.208 467.955,115.875 469,122.5C 471.66,129.823 474.327,137.157 477,144.5C 479.101,155.327 481.268,165.994 483.5,176.5C 485.474,184.015 485.974,191.682 485,199.5C 480.714,209.368 478.714,219.702 479,230.5C 475.167,239.831 470.667,248.831 465.5,257.5C 461.381,259.29 457.048,260.124 452.5,260C 449.528,256.555 447.194,252.722 445.5,248.5C 445.527,243.382 445.694,238.048 446,232.5C 446.471,230.754 447.138,229.087 448,227.5C 453.809,221.602 459.809,215.935 466,210.5C 469.26,201.836 469.26,193.169 466,184.5C 464.274,183.424 462.441,183.257 460.5,184C 451.893,189.695 442.393,192.528 432,192.5C 416.434,193.203 403.434,187.87 393,176.5C 392.802,178.382 392.302,180.048 391.5,181.5C 391.775,174.687 390.942,168.021 389,161.5C 386.297,155.547 384.13,149.547 382.5,143.5C 382.856,142.13 383.69,141.13 385,140.5C 391.577,137.971 398.41,136.638 405.5,136.5C 403.189,138.956 401.522,141.789 400.5,145C 400.755,146.326 401.422,147.326 402.5,148C 417.202,148.127 431.868,148.794 446.5,150C 452.473,152.319 457.807,155.653 462.5,160C 463.448,160.483 464.448,160.649 465.5,160.5C 465.033,153.932 462.533,148.266 458,143.5C 453.245,140.872 448.412,138.372 443.5,136C 432.505,135.5 421.505,135.333 410.5,135.5C 424.188,114.714 428.188,92.0472 422.5,67.5 Z"/></g>
<g><path style="opacity:0.02" fill="#1e0300" d="M 261.5,78.5 C 260.427,77.7494 260.26,76.7494 261,75.5C 261.483,76.448 261.649,77.448 261.5,78.5 Z"/></g>
<g><path style="opacity:0.02" fill="#1c0200" d="M 493.5,80.5 C 493.167,80.5 492.833,80.5 492.5,80.5C 492.833,77.8333 493.167,77.8333 493.5,80.5 Z"/></g>
<g><path style="opacity:0.02" fill="#170200" d="M 260.5,82.5 C 259.427,81.7494 259.26,80.7494 260,79.5C 260.483,80.448 260.649,81.448 260.5,82.5 Z"/></g>
<g><path style="opacity:0.02" fill="#1c0200" d="M 493.5,80.5 C 494.525,80.8966 494.692,81.5632 494,82.5C 493.536,81.9056 493.369,81.2389 493.5,80.5 Z"/></g>
<g><path style="opacity:0.02" fill="#1c0200" d="M 494.5,85.5 C 494.369,84.7611 494.536,84.0944 495,83.5C 495.692,84.4368 495.525,85.1034 494.5,85.5 Z"/></g>
<g><path style="opacity:0.02" fill="#1c0200" d="M 495.5,86.5 C 496.525,86.8966 496.692,87.5632 496,88.5C 495.536,87.9056 495.369,87.2389 495.5,86.5 Z"/></g>
<g><path style="opacity:0.02" fill="#1e0300" d="M 258.5,87.5 C 258.649,88.552 258.483,89.552 258,90.5C 257.26,89.2506 257.427,88.2506 258.5,87.5 Z"/></g>
<g><path style="opacity:0.02" fill="#170200" d="M 496.5,92.5 C 496.351,91.448 496.517,90.448 497,89.5C 497.74,90.7494 497.573,91.7494 496.5,92.5 Z"/></g>
<g><path style="opacity:0.02" fill="#1c0200" d="M 256.5,91.5 C 257.598,92.6009 257.765,93.9343 257,95.5C 256.51,94.2068 256.343,92.8734 256.5,91.5 Z"/></g>
<g><path style="opacity:0.02" fill="#1e0300" d="M 497.5,96.5 C 497.351,95.448 497.517,94.448 498,93.5C 498.74,94.7494 498.573,95.7494 497.5,96.5 Z"/></g>
<g><path style="opacity:0.02" fill="#180200" d="M 256.5,101.5 C 255.387,100.054 255.22,98.3869 256,96.5C 256.494,98.1341 256.66,99.8008 256.5,101.5 Z"/></g>
<g><path style="opacity:0.02" fill="#170200" d="M 498.5,100.5 C 498.351,99.448 498.517,98.448 499,97.5C 499.74,98.7494 499.573,99.7494 498.5,100.5 Z"/></g>
<g><path style="opacity:0.02" fill="#1f0300" d="M 499.5,101.5 C 500.598,102.601 500.765,103.934 500,105.5C 499.51,104.207 499.343,102.873 499.5,101.5 Z"/></g>
<g><path style="opacity:0.02" fill="#180200" d="M 254.5,102.5 C 255.613,103.946 255.78,105.613 255,107.5C 254.506,105.866 254.34,104.199 254.5,102.5 Z"/></g>
<g><path style="opacity:0.02" fill="#1a0200" d="M 500.5,107.5 C 501.622,109.288 501.789,111.288 501,113.5C 500.505,111.527 500.338,109.527 500.5,107.5 Z"/></g>
<g><path style="opacity:0.02" fill="#1a0200" d="M 254.5,109.5 C 254.662,111.527 254.495,113.527 254,115.5C 253.211,113.288 253.378,111.288 254.5,109.5 Z"/></g>
<g><path style="opacity:0.02" fill="#1d0200" d="M 501.5,116.5 C 502.654,122.987 502.821,129.654 502,136.5C 501.5,129.842 501.334,123.175 501.5,116.5 Z"/></g>
<g><path style="opacity:0.02" fill="#1b0200" d="M 252.5,118.5 C 253.638,121.304 253.805,124.304 253,127.5C 252.502,124.518 252.335,121.518 252.5,118.5 Z"/></g>
<g><path style="opacity:1" fill="#1d0f05" d="M 410.5,135.5 C 421.505,135.333 432.505,135.5 443.5,136C 448.412,138.372 453.245,140.872 458,143.5C 462.533,148.266 465.033,153.932 465.5,160.5C 464.448,160.649 463.448,160.483 462.5,160C 457.807,155.653 452.473,152.319 446.5,150C 431.868,148.794 417.202,148.127 402.5,148C 401.422,147.326 400.755,146.326 400.5,145C 401.522,141.789 403.189,138.956 405.5,136.5C 407.292,136.634 408.958,136.301 410.5,135.5 Z"/></g>
<g><path style="opacity:0.02" fill="#1a0200" d="M 252.5,135.5 C 253.634,137.966 253.801,140.633 253,143.5C 252.503,140.854 252.336,138.187 252.5,135.5 Z"/></g>
<g><path style="opacity:1" fill="#1d1006" d="M 354.5,144.5 C 354.714,146.144 354.38,147.644 353.5,149C 338.779,149.067 324.112,149.734 309.5,151C 303.561,152.525 298.561,155.525 294.5,160C 292.975,161.009 291.308,161.509 289.5,161.5C 289.899,153.206 293.566,146.706 300.5,142C 303.864,140.318 307.198,138.651 310.5,137C 323.941,134.759 337.274,135.092 350.5,138C 352.734,139.638 354.067,141.805 354.5,144.5 Z"/></g>
<g><path style="opacity:0.02" fill="#1a0200" d="M 500.5,138.5 C 501.622,140.288 501.789,142.288 501,144.5C 500.505,142.527 500.338,140.527 500.5,138.5 Z"/></g>
<g><path style="opacity:1" fill="#1d140e" d="M 382.5,143.5 C 384.13,149.547 386.297,155.547 389,161.5C 390.942,168.021 391.775,174.687 391.5,181.5C 388.272,171.644 385.105,161.644 382,151.5C 381.278,148.739 381.445,146.073 382.5,143.5 Z"/></g>
<g><path style="opacity:0.02" fill="#1a0200" d="M 499.5,145.5 C 500.267,146.172 500.934,147.005 501.5,148C 499.939,148.188 499.272,147.355 499.5,145.5 Z"/></g>
<g><path style="opacity:0.008" fill="#0f0100" d="M 254.5,144.5 C 254.66,146.199 254.494,147.866 254,149.5C 253.22,147.613 253.387,145.946 254.5,144.5 Z"/></g>
<g><path style="opacity:0.02" fill="#170200" d="M 503.5,148.5 C 504.251,147.427 505.251,147.26 506.5,148C 505.552,148.483 504.552,148.649 503.5,148.5 Z"/></g>
<g><path style="opacity:0.008" fill="#000000" d="M 507.5,148.5 C 508.833,149.167 508.833,149.167 507.5,148.5 Z"/></g>
<g><path style="opacity:0.02" fill="#230400" d="M 254.5,150.5 C 255.525,150.897 255.692,151.563 255,152.5C 254.536,151.906 254.369,151.239 254.5,150.5 Z"/></g>
<g><path style="opacity:1" fill="#ce9886" d="M 354.5,144.5 C 355.785,153.517 357.785,162.517 360.5,171.5C 359.311,183.45 352.645,188.784 340.5,187.5C 323.447,184.795 306.447,185.128 289.5,188.5C 288.833,188.167 288.167,187.833 287.5,187.5C 287.833,187.167 288.167,186.833 288.5,186.5C 292.201,184.988 295.534,182.988 298.5,180.5C 295.479,177.314 292.646,173.98 290,170.5C 289.502,167.518 289.335,164.518 289.5,161.5C 291.308,161.509 292.975,161.009 294.5,160C 298.561,155.525 303.561,152.525 309.5,151C 324.112,149.734 338.779,149.067 353.5,149C 354.38,147.644 354.714,146.144 354.5,144.5 Z"/></g>
<g><path style="opacity:0.008" fill="#000000" d="M 509.5,151.5 C 509.897,150.475 510.563,150.308 511.5,151C 510.906,151.464 510.239,151.631 509.5,151.5 Z"/></g>
<g><path style="opacity:0.02" fill="#230400" d="M 253.5,153.5 C 252.833,152.167 252.833,152.167 253.5,153.5 Z"/></g>
<g><path style="opacity:1" fill="#150e0a" d="M 446.5,161.5 C 437.623,156.032 427.957,153.865 417.5,155C 415.277,155.566 413.277,156.4 411.5,157.5C 404.2,161.518 403.867,161.018 410.5,156C 421.844,150.834 432.844,151.501 443.5,158C 444.71,159.039 445.71,160.206 446.5,161.5 Z"/></g>
<g><path style="opacity:1" fill="#150e0a" d="M 341.5,157.5 C 334.646,155.961 327.98,156.627 321.5,159.5C 316.975,160.429 312.975,162.429 309.5,165.5C 309.167,165.333 308.833,165.167 308.5,165C 317.895,156.565 328.895,153.232 341.5,155C 344.938,155.92 347.938,157.587 350.5,160C 347.562,159.304 344.562,158.47 341.5,157.5 Z"/></g>
<g><path style="opacity:1" fill="#b38473" d="M 446.5,161.5 C 448.472,162.451 450.472,163.451 452.5,164.5C 451.051,165.172 449.718,165.839 448.5,166.5C 437.693,156.66 425.693,154.66 412.5,160.5C 412.737,159.209 412.404,158.209 411.5,157.5C 413.277,156.4 415.277,155.566 417.5,155C 427.957,153.865 437.623,156.032 446.5,161.5 Z"/></g>
<g><path style="opacity:1" fill="#d4a490" d="M 508.5,160.5 C 500.85,164.651 495.017,170.651 491,178.5C 490.42,171.482 491.753,164.815 495,158.5C 500.702,152.56 505.202,153.227 508.5,160.5 Z"/></g>
<g><path style="opacity:0.02" fill="#1c0200" d="M 515.5,157.5 C 515.167,157.5 514.833,157.5 514.5,157.5C 514.833,154.833 515.167,154.833 515.5,157.5 Z"/></g>
<g><path style="opacity:1" fill="#805e4f" d="M 341.5,157.5 C 338.941,157.198 336.607,157.532 334.5,158.5C 330.382,158.53 326.382,159.197 322.5,160.5C 322.5,159.833 322.167,159.5 321.5,159.5C 327.98,156.627 334.646,155.961 341.5,157.5 Z"/></g>
<g><path style="opacity:0.02" fill="#1c0200" d="M 515.5,157.5 C 516.525,157.897 516.692,158.563 516,159.5C 515.536,158.906 515.369,158.239 515.5,157.5 Z"/></g>
<g><path style="opacity:1" fill="#cf9f8b" d="M 253.5,166.5 C 251.98,160.548 254.147,158.548 260,160.5C 263.213,167.425 265.713,174.591 267.5,182C 267.167,182.5 266.833,183 266.5,183.5C 264.592,179.349 262.425,175.349 260,171.5C 258.242,169.235 256.075,167.568 253.5,166.5 Z"/></g>
<g><path style="opacity:0.02" fill="#1c0200" d="M 245.5,160.5 C 246.525,160.897 246.692,161.563 246,162.5C 245.536,161.906 245.369,161.239 245.5,160.5 Z"/></g>
<g><path style="opacity:0.02" fill="#1e0300" d="M 516.5,160.5 C 517.573,161.251 517.74,162.251 517,163.5C 516.517,162.552 516.351,161.552 516.5,160.5 Z"/></g>
<g><path style="opacity:1" fill="#1b1009" d="M 334.5,158.5 C 336.854,158.838 339.187,159.338 341.5,160C 345.263,162.548 349.263,164.548 353.5,166C 354.5,167 355.5,168 356.5,169C 349.183,170.327 341.849,171.994 334.5,174C 325.744,175.535 317.577,174.035 310,169.5C 312.945,165.234 317.112,162.234 322.5,160.5C 326.382,159.197 330.382,158.53 334.5,158.5 Z"/></g>
<g><path style="opacity:1" fill="#868382" d="M 345.5,165.5 C 343.883,164.962 342.216,164.629 340.5,164.5C 340.768,166.099 340.434,167.432 339.5,168.5C 339.756,166.208 339.423,164.041 338.5,162C 341.336,162.085 343.669,163.251 345.5,165.5 Z"/></g>
<g><path style="opacity:1" fill="#695035" d="M 327.5,164.5 C 327.5,165.833 328.167,166.5 329.5,166.5C 328.402,167.397 328.402,168.23 329.5,169C 334.656,170.512 336.323,168.846 334.5,164C 335.448,163.517 336.448,163.351 337.5,163.5C 337.618,171.618 334.118,173.618 327,169.5C 326.22,167.613 326.387,165.946 327.5,164.5 Z"/></g>
<g><path style="opacity:1" fill="#eaeae9" d="M 345.5,165.5 C 347.332,166.14 347.665,167.14 346.5,168.5C 344.705,169.265 342.872,169.932 341,170.5C 339.97,170.164 339.47,169.497 339.5,168.5C 340.434,167.432 340.768,166.099 340.5,164.5C 342.216,164.629 343.883,164.962 345.5,165.5 Z"/></g>
<g><path style="opacity:1" fill="#1d120c" d="M 448.5,166.5 C 448.423,167.75 447.756,168.583 446.5,169C 438.091,172.161 429.424,173.161 420.5,172C 414.904,170.427 409.238,169.26 403.5,168.5C 402.269,167.349 402.269,166.183 403.5,165C 406.941,164.237 409.941,162.737 412.5,160.5C 425.693,154.66 437.693,156.66 448.5,166.5 Z"/></g>
<g><path style="opacity:1" fill="#8a8886" d="M 440.5,165.5 C 438.614,164.639 436.78,163.639 435,162.5C 434.79,164.058 434.29,165.391 433.5,166.5C 433.201,164.396 433.534,162.396 434.5,160.5C 437.426,161.265 439.426,162.932 440.5,165.5 Z"/></g>
<g><path style="opacity:1" fill="#e5e4e4" d="M 440.5,165.5 C 441.645,166.793 441.311,167.959 439.5,169C 437.17,170.345 434.837,170.512 432.5,169.5C 433.127,168.583 433.461,167.583 433.5,166.5C 434.29,165.391 434.79,164.058 435,162.5C 436.78,163.639 438.614,164.639 440.5,165.5 Z"/></g>
<g><path style="opacity:1" fill="#e1e1e0" d="M 421.5,165.5 C 421.5,164.833 421.5,164.167 421.5,163.5C 422.302,162.115 422.969,162.282 423.5,164C 423.164,165.03 422.497,165.53 421.5,165.5 Z"/></g>
<g><path style="opacity:1" fill="#c9c8c7" d="M 416.5,160.5 C 417.497,160.47 418.164,160.97 418.5,162C 417.892,164.553 417.558,167.053 417.5,169.5C 414.912,168.806 412.579,167.64 410.5,166C 412.396,163.932 414.396,162.099 416.5,160.5 Z"/></g>
<g><path style="opacity:1" fill="#6a5033" d="M 421.5,163.5 C 421.5,164.167 421.5,164.833 421.5,165.5C 426.107,170.045 429.107,169.045 430.5,162.5C 432.526,167.117 431.026,169.451 426,169.5C 421.237,169.596 419.737,167.596 421.5,163.5 Z"/></g>
<g><path style="opacity:0.02" fill="#180200" d="M 245.5,168.5 C 244.387,167.054 244.22,165.387 245,163.5C 245.494,165.134 245.66,166.801 245.5,168.5 Z"/></g>
<g><path style="opacity:1" fill="#dad9d9" d="M 321.5,162.5 C 322.552,162.351 323.552,162.517 324.5,163C 323.477,165.774 323.477,168.607 324.5,171.5C 319.288,172.508 317.122,170.508 318,165.5C 319.145,164.364 320.312,163.364 321.5,162.5 Z"/></g>
<g><path style="opacity:1" fill="#dedddd" d="M 327.5,164.5 C 329.179,164.285 330.179,164.952 330.5,166.5C 330.167,166.5 329.833,166.5 329.5,166.5C 328.167,166.5 327.5,165.833 327.5,164.5 Z"/></g>
<g><path style="opacity:1" fill="#cd9785" d="M 508.5,160.5 C 509.927,162.148 510.76,164.148 511,166.5C 511.812,170.689 511.645,174.689 510.5,178.5C 508.052,180.421 505.385,182.921 502.5,186C 498.606,189.404 494.606,192.571 490.5,195.5C 492.524,181.785 498.524,170.118 508.5,160.5 Z"/></g>
<g><path style="opacity:0.02" fill="#200300" d="M 517.5,165.5 C 518.651,170.65 518.817,175.984 518,181.5C 517.501,176.177 517.334,170.844 517.5,165.5 Z"/></g>
<g><path style="opacity:1" fill="#92908e" d="M 330.5,166.5 C 332.337,166.639 332.67,167.306 331.5,168.5C 330.702,168.043 330.369,167.376 330.5,166.5 Z"/></g>
<g><path style="opacity:1" fill="#ca9583" d="M 253.5,166.5 C 259.579,175.331 264.079,184.998 267,195.5C 267.499,199.486 267.666,203.486 267.5,207.5C 262.479,201.967 257.979,195.967 254,189.5C 253.517,190.448 253.351,191.448 253.5,192.5C 252.133,187.059 251.467,181.392 251.5,175.5C 251.517,172.087 252.184,169.087 253.5,166.5 Z"/></g>
<g><path style="opacity:1" fill="#372821" d="M 411.5,174.5 C 411.56,173.957 411.893,173.624 412.5,173.5C 415.717,174.972 419.051,176.138 422.5,177C 418.345,178.054 414.678,177.22 411.5,174.5 Z"/></g>
<g><path style="opacity:1" fill="#130d08" d="M 344.5,176.5 C 346.379,176.393 346.712,176.893 345.5,178C 342.833,178.667 340.167,178.667 337.5,178C 340.036,177.814 342.369,177.314 344.5,176.5 Z"/></g>
<g><path style="opacity:0.02" fill="#1a0200" d="M 244.5,176.5 C 245.641,179.64 245.808,182.973 245,186.5C 244.502,183.183 244.335,179.85 244.5,176.5 Z"/></g>
<g><path style="opacity:1" fill="#dcaa95" d="M 510.5,178.5 C 510.269,200.125 502.935,218.958 488.5,235C 486.975,236.009 485.308,236.509 483.5,236.5C 483.253,229.112 483.753,221.779 485,214.5C 487.306,208.274 489.139,201.94 490.5,195.5C 494.606,192.571 498.606,189.404 502.5,186C 505.385,182.921 508.052,180.421 510.5,178.5 Z"/></g>
<g><path style="opacity:0.02" fill="#1b0200" d="M 516.5,184.5 C 517.629,186.628 517.796,188.961 517,191.5C 516.503,189.19 516.337,186.857 516.5,184.5 Z"/></g>
<g><path style="opacity:0.02" fill="#1b0200" d="M 245.5,189.5 C 246.629,191.628 246.796,193.961 246,196.5C 245.503,194.19 245.337,191.857 245.5,189.5 Z"/></g>
<g><path style="opacity:1" fill="#dcaa96" d="M 267.5,207.5 C 269.179,217.553 271.179,227.553 273.5,237.5C 273.167,238.833 272.833,240.167 272.5,241.5C 257.739,228.567 251.406,212.234 253.5,192.5C 253.351,191.448 253.517,190.448 254,189.5C 257.979,195.967 262.479,201.967 267.5,207.5 Z"/></g>
<g><path style="opacity:0.02" fill="#1c0200" d="M 515.5,193.5 C 516.613,194.946 516.78,196.613 516,198.5C 515.506,196.866 515.34,195.199 515.5,193.5 Z"/></g>
<g><path style="opacity:1" fill="#ce9986" d="M 394.5,198.5 C 393.475,198.897 393.308,199.563 394,200.5C 397.893,204.419 401.893,208.085 406,211.5C 407.407,216.357 406.24,220.357 402.5,223.5C 402.389,224.117 402.056,224.617 401.5,225C 397.833,225.333 394.167,225.667 390.5,226C 389.262,226.69 389.262,227.19 390.5,227.5C 386.908,229.553 383.408,231.886 380,234.5C 379.218,237.257 379.718,239.757 381.5,242C 390.17,241.132 398.837,241.466 407.5,243C 412.694,244.513 417.694,246.346 422.5,248.5C 421.29,248.932 420.29,249.599 419.5,250.5C 417.883,249.962 416.216,249.629 414.5,249.5C 402.997,244.144 390.997,242.811 378.5,245.5C 374.806,244.993 371.139,244.326 367.5,243.5C 362.837,244.261 358.17,244.928 353.5,245.5C 351.052,244.527 348.385,244.194 345.5,244.5C 355.235,241.65 365.235,240.983 375.5,242.5C 376.357,239.451 376.357,236.451 375.5,233.5C 372.343,231.255 369.009,229.588 365.5,228.5C 366.552,228.649 367.552,228.483 368.5,228C 365.875,225.54 362.875,223.706 359.5,222.5C 356.852,224.442 354.185,224.776 351.5,223.5C 352.239,223.631 352.906,223.464 353.5,223C 349.337,220.179 347.837,216.345 349,211.5C 353.448,207.89 356.948,203.557 359.5,198.5C 359.376,197.893 359.043,197.56 358.5,197.5C 359.566,196.308 360.399,196.641 361,198.5C 361.689,197.643 362.522,196.977 363.5,196.5C 364.509,199.473 364.509,202.473 363.5,205.5C 366.614,204.909 369.114,203.242 371,200.5C 371.333,203.833 371.667,207.167 372,210.5C 372.465,211.931 373.299,213.097 374.5,214C 390.28,215.885 394.947,209.551 388.5,195C 391.361,194.627 393.361,195.794 394.5,198.5 Z"/></g>
<g><path style="opacity:0.02" fill="#170200" d="M 514.5,199.5 C 515.573,200.251 515.74,201.251 515,202.5C 514.517,201.552 514.351,200.552 514.5,199.5 Z"/></g>
<g><path style="opacity:0.02" fill="#230400" d="M 513.5,203.5 C 514.525,203.897 514.692,204.563 514,205.5C 513.536,204.906 513.369,204.239 513.5,203.5 Z"/></g>
<g><path style="opacity:0.008" fill="#110100" d="M 247.5,199.5 C 247.665,203.182 247.499,206.848 247,210.5C 246.19,206.642 246.357,202.976 247.5,199.5 Z"/></g>
<g><path style="opacity:1" fill="#1e130b" d="M 394.5,198.5 C 398.268,201.225 402.268,203.725 406.5,206C 409.909,210.447 410.409,215.281 408,220.5C 406.512,222.16 404.679,223.16 402.5,223.5C 406.24,220.357 407.407,216.357 406,211.5C 401.893,208.085 397.893,204.419 394,200.5C 393.308,199.563 393.475,198.897 394.5,198.5 Z"/></g>
<g><path style="opacity:0.008" fill="#110100" d="M 512.5,206.5 C 513.833,207.167 513.833,207.833 512.5,208.5C 512.5,207.833 512.5,207.167 512.5,206.5 Z"/></g>
<g><path style="opacity:1" fill="#1f140d" d="M 358.5,197.5 C 359.043,197.56 359.376,197.893 359.5,198.5C 356.948,203.557 353.448,207.89 349,211.5C 347.837,216.345 349.337,220.179 353.5,223C 352.906,223.464 352.239,223.631 351.5,223.5C 345.023,219.023 343.856,213.357 348,206.5C 352.078,204.064 355.578,201.064 358.5,197.5 Z"/></g>
<g><path style="opacity:0.008" fill="#110100" d="M 511.5,208.5 C 511.833,208.5 512.167,208.5 512.5,208.5C 512.672,209.492 512.338,210.158 511.5,210.5C 511.5,209.833 511.5,209.167 511.5,208.5 Z"/></g>
<g><path style="opacity:0.008" fill="#110100" d="M 510.5,210.5 C 510.833,210.5 511.167,210.5 511.5,210.5C 511.672,211.492 511.338,212.158 510.5,212.5C 510.5,211.833 510.5,211.167 510.5,210.5 Z"/></g>
<g><path style="opacity:0.02" fill="#1a0200" d="M 247.5,212.5 C 248.598,213.601 248.765,214.934 248,216.5C 247.51,215.207 247.343,213.873 247.5,212.5 Z"/></g>
<g><path style="opacity:0.008" fill="#110100" d="M 509.5,212.5 C 509.833,212.5 510.167,212.5 510.5,212.5C 510.672,213.492 510.338,214.158 509.5,214.5C 509.5,213.833 509.5,213.167 509.5,212.5 Z"/></g>
<g><path style="opacity:0.008" fill="#110100" d="M 508.5,214.5 C 508.833,214.5 509.167,214.5 509.5,214.5C 509.672,215.492 509.338,216.158 508.5,216.5C 508.5,215.833 508.5,215.167 508.5,214.5 Z"/></g>
<g><path style="opacity:0.008" fill="#110100" d="M 507.5,216.5 C 507.833,216.5 508.167,216.5 508.5,216.5C 508.672,217.492 508.338,218.158 507.5,218.5C 507.5,217.833 507.5,217.167 507.5,216.5 Z"/></g>
<g><path style="opacity:1" fill="#1e130c" d="M 359.5,218.5 C 364.864,217.651 369.531,219.484 373.5,224C 376.833,226 380.167,226 383.5,224C 387.75,218.967 393.083,217.301 399.5,219C 393.705,219.568 389.038,222.234 385.5,227C 380.833,230.333 376.167,230.333 371.5,227C 368.405,222.715 364.405,219.882 359.5,218.5 Z"/></g>
<g><path style="opacity:0.008" fill="#110100" d="M 506.5,218.5 C 506.833,218.5 507.167,218.5 507.5,218.5C 507.672,219.492 507.338,220.158 506.5,220.5C 506.5,219.833 506.5,219.167 506.5,218.5 Z"/></g>
<g><path style="opacity:0.02" fill="#1c0200" d="M 250.5,220.5 C 250.5,221.167 250.5,221.833 250.5,222.5C 249.167,221.833 249.167,221.167 250.5,220.5 Z"/></g>
<g><path style="opacity:0.02" fill="#1c0200" d="M 505.5,220.5 C 505.833,220.5 506.167,220.5 506.5,220.5C 506.167,223.167 505.833,223.167 505.5,220.5 Z"/></g>
<g><path style="opacity:0.02" fill="#230400" d="M 504.5,223.5 C 505.833,224.167 505.833,224.167 504.5,223.5 Z"/></g>
<g><path style="opacity:0.02" fill="#230400" d="M 251.5,225.5 C 251.833,225.5 252.167,225.5 252.5,225.5C 252.315,226.17 251.981,226.17 251.5,225.5 Z"/></g>
<g><path style="opacity:0.02" fill="#230400" d="M 503.5,225.5 C 504.833,226.167 504.833,226.167 503.5,225.5 Z"/></g>
<g><path style="opacity:0.02" fill="#230400" d="M 253.5,227.5 C 252.833,228.167 252.833,228.167 253.5,227.5 Z"/></g>
<g><path style="opacity:0.02" fill="#230400" d="M 502.5,227.5 C 503.833,228.167 503.833,228.167 502.5,227.5 Z"/></g>
<g><path style="opacity:0.008" fill="#000000" d="M 501.5,228.5 C 501.833,228.5 502.167,228.5 502.5,228.5C 502.672,229.492 502.338,230.158 501.5,230.5C 501.5,229.833 501.5,229.167 501.5,228.5 Z"/></g>
<g><path style="opacity:0.008" fill="#000000" d="M 254.5,230.5 C 253.833,229.167 253.833,229.167 254.5,230.5 Z"/></g>
<g><path style="opacity:0.02" fill="#230400" d="M 254.5,230.5 C 254.833,230.5 255.167,230.5 255.5,230.5C 255.315,231.17 254.981,231.17 254.5,230.5 Z"/></g>
<g><path style="opacity:0.02" fill="#230400" d="M 500.5,230.5 C 500.833,230.5 501.167,230.5 501.5,230.5C 501.315,231.17 500.981,231.17 500.5,230.5 Z"/></g>
<g><path style="opacity:0.02" fill="#230400" d="M 499.5,231.5 C 499.833,231.5 500.167,231.5 500.5,231.5C 500.315,232.17 499.981,232.17 499.5,231.5 Z"/></g>
<g><path style="opacity:0.02" fill="#230400" d="M 256.5,233.5 C 255.833,232.167 255.833,232.167 256.5,233.5 Z"/></g>
<g><path style="opacity:0.02" fill="#230400" d="M 256.5,233.5 C 256.833,233.5 257.167,233.5 257.5,233.5C 257.315,234.17 256.981,234.17 256.5,233.5 Z"/></g>
<g><path style="opacity:0.008" fill="#000000" d="M 257.5,235.5 C 258.833,236.167 258.833,236.167 257.5,235.5 Z"/></g>
<g><path style="opacity:0.02" fill="#230400" d="M 495.5,236.5 C 496.833,237.167 496.833,237.167 495.5,236.5 Z"/></g>
<g><path style="opacity:0.008" fill="#000000" d="M 260.5,237.5 C 259.833,238.167 259.833,238.167 260.5,237.5 Z"/></g>
<g><path style="opacity:0.008" fill="#000000" d="M 260.5,239.5 C 261.833,240.167 261.833,240.167 260.5,239.5 Z"/></g>
<g><path style="opacity:0.02" fill="#230400" d="M 490.5,240.5 C 491.833,241.167 491.833,241.167 490.5,240.5 Z"/></g>
<g><path style="opacity:0.008" fill="#000000" d="M 490.5,241.5 C 489.833,242.167 489.833,242.167 490.5,241.5 Z"/></g>
<g><path style="opacity:1" fill="#1c110a" d="M 414.5,249.5 C 406.707,248.27 398.873,247.27 391,246.5C 386.524,247.577 382.024,248.577 377.5,249.5C 363.746,246.451 350.246,247.451 337,252.5C 336.235,252.43 335.735,252.097 335.5,251.5C 341.59,249.438 347.59,247.438 353.5,245.5C 358.17,244.928 362.837,244.261 367.5,243.5C 371.139,244.326 374.806,244.993 378.5,245.5C 390.997,242.811 402.997,244.144 414.5,249.5 Z"/></g>
<g><path style="opacity:0.02" fill="#230400" d="M 270.5,247.5 C 269.833,248.167 269.833,248.167 270.5,247.5 Z"/></g>
<g><path style="opacity:0.008" fill="#0e0100" d="M 271.5,248.5 C 272.573,249.251 272.74,250.251 272,251.5C 271.517,250.552 271.351,249.552 271.5,248.5 Z"/></g>
<g><path style="opacity:0.02" fill="#1a0200" d="M 484.5,248.5 C 485.622,250.288 485.789,252.288 485,254.5C 484.505,252.527 484.338,250.527 484.5,248.5 Z"/></g>
<g><path style="opacity:0.02" fill="#1a0200" d="M 272.5,253.5 C 273.598,254.601 273.765,255.934 273,257.5C 272.51,256.207 272.343,254.873 272.5,253.5 Z"/></g>
<g><path style="opacity:1" fill="#ddab96" d="M 422.5,248.5 C 427.386,251.206 431.886,254.539 436,258.5C 436.925,264.691 436.258,270.691 434,276.5C 431.14,282.383 427.64,287.883 423.5,293C 422.815,295.795 422.315,298.628 422,301.5C 418.868,303.299 416.368,305.799 414.5,309C 409.673,309.884 405.006,309.384 400.5,307.5C 399.304,306.441 398.637,305.107 398.5,303.5C 400.591,299.465 401.591,295.131 401.5,290.5C 399.213,290.276 397.047,289.609 395,288.5C 392.901,289.287 390.734,289.62 388.5,289.5C 388.833,288.833 389.167,288.167 389.5,287.5C 392.918,286.361 396.251,285.028 399.5,283.5C 407.657,279.084 414.657,273.25 420.5,266C 423.736,263.132 427.236,260.632 431,258.5C 431.749,257.365 431.583,256.365 430.5,255.5C 426.626,254.293 422.959,252.626 419.5,250.5C 420.29,249.599 421.29,248.932 422.5,248.5 Z"/></g>
<g><path style="opacity:0.02" fill="#1a0200" d="M 483.5,256.5 C 484.598,257.601 484.765,258.934 484,260.5C 483.51,259.207 483.343,257.873 483.5,256.5 Z"/></g>
<g><path style="opacity:1" fill="#deac97" d="M 345.5,244.5 C 348.385,244.194 351.052,244.527 353.5,245.5C 347.59,247.438 341.59,249.438 335.5,251.5C 332.527,252.987 329.527,254.487 326.5,256C 325.549,256.718 325.383,257.551 326,258.5C 328.748,260.458 331.582,262.291 334.5,264C 340.465,272.137 347.799,278.637 356.5,283.5C 358.751,284.695 361.085,285.695 363.5,286.5C 364.66,288.203 363.993,288.869 361.5,288.5C 357.555,287.573 354.888,288.906 353.5,292.5C 354.723,296.615 356.723,300.282 359.5,303.5C 358.184,304.807 357.184,306.307 356.5,308C 355.234,308.309 354.067,308.809 353,309.5C 350.531,307.348 347.698,305.848 344.5,305C 342.317,302.65 339.984,300.483 337.5,298.5C 335.152,291.957 331.319,286.291 326,281.5C 325.381,278.423 323.881,275.923 321.5,274C 320.77,271.184 320.103,268.35 319.5,265.5C 323.593,253.093 332.26,246.093 345.5,244.5 Z"/></g>
<g><path style="opacity:0.02" fill="#1e0300" d="M 273.5,259.5 C 274.573,260.251 274.74,261.251 274,262.5C 273.517,261.552 273.351,260.552 273.5,259.5 Z"/></g>
<g><path style="opacity:0.02" fill="#170200" d="M 482.5,261.5 C 483.573,262.251 483.74,263.251 483,264.5C 482.517,263.552 482.351,262.552 482.5,261.5 Z"/></g>
<g><path style="opacity:0.02" fill="#230400" d="M 275.5,263.5 C 275.631,264.239 275.464,264.906 275,265.5C 274.308,264.563 274.475,263.897 275.5,263.5 Z"/></g>
<g><path style="opacity:0.02" fill="#1e0300" d="M 481.5,265.5 C 482.833,266.5 482.833,267.5 481.5,268.5C 481.5,267.5 481.5,266.5 481.5,265.5 Z"/></g>
<g><path style="opacity:1" fill="#b98978" d="M 414.5,249.5 C 416.216,249.629 417.883,249.962 419.5,250.5C 422.959,252.626 426.626,254.293 430.5,255.5C 431.583,256.365 431.749,257.365 431,258.5C 427.236,260.632 423.736,263.132 420.5,266C 414.657,273.25 407.657,279.084 399.5,283.5C 399.44,282.957 399.107,282.624 398.5,282.5C 384.842,286.468 371.175,286.468 357.5,282.5C 356.893,282.624 356.56,282.957 356.5,283.5C 347.799,278.637 340.465,272.137 334.5,264C 331.582,262.291 328.748,260.458 326,258.5C 325.383,257.551 325.549,256.718 326.5,256C 329.527,254.487 332.527,252.987 335.5,251.5C 335.735,252.097 336.235,252.43 337,252.5C 350.246,247.451 363.746,246.451 377.5,249.5C 382.024,248.577 386.524,247.577 391,246.5C 398.873,247.27 406.707,248.27 414.5,249.5 Z"/></g>
<g><path style="opacity:1" fill="#1c1613" d="M 340.5,264.5 C 337.214,263.758 335.88,261.925 336.5,259C 343.019,256.704 349.686,255.037 356.5,254C 373.481,254.07 390.481,254.07 407.5,254C 412.899,255.08 418.232,256.413 423.5,258C 422.426,261.159 420.426,263.493 417.5,265C 406.847,268.657 396.181,272.324 385.5,276C 377.686,276.968 370.02,276.301 362.5,274C 355.183,270.501 347.85,267.334 340.5,264.5 Z"/></g>
<g><path style="opacity:1" fill="#f7f6f6" d="M 340.5,264.5 C 338.44,259.711 340.106,257.544 345.5,258C 368.165,257.14 390.832,256.807 413.5,257C 417.19,257.69 418.357,259.857 417,263.5C 413.022,265.057 408.855,265.89 404.5,266C 392.803,271.783 380.47,273.783 367.5,272C 358.741,268.58 349.741,266.08 340.5,264.5 Z"/></g>
<g><path style="opacity:0.02" fill="#170200" d="M 480.5,268.5 C 480.833,268.5 481.167,268.5 481.5,268.5C 481.737,269.791 481.404,270.791 480.5,271.5C 480.5,270.5 480.5,269.5 480.5,268.5 Z"/></g>
<g><path style="opacity:0.02" fill="#1a0200" d="M 276.5,266.5 C 276.665,269.85 276.498,273.183 276,276.5C 275.192,272.973 275.359,269.64 276.5,266.5 Z"/></g>
<g><path style="opacity:0.02" fill="#1c0200" d="M 479.5,271.5 C 479.833,271.5 480.167,271.5 480.5,271.5C 480.167,274.167 479.833,274.167 479.5,271.5 Z"/></g>
<g><path style="opacity:0.008" fill="#110100" d="M 478.5,274.5 C 479.525,274.897 479.692,275.563 479,276.5C 478.536,275.906 478.369,275.239 478.5,274.5 Z"/></g>
<g><path style="opacity:0.02" fill="#230400" d="M 477.5,277.5 C 478.833,278.167 478.833,278.167 477.5,277.5 Z"/></g>
<g><path style="opacity:0.02" fill="#230400" d="M 476.5,279.5 C 477.833,280.167 477.833,280.167 476.5,279.5 Z"/></g>
<g><path style="opacity:1" fill="#ca9384" d="M 470.5,362.5 C 469.669,346.672 469.169,330.672 469,314.5C 464.965,318.2 461.298,322.2 458,326.5C 452,336.5 446,346.5 440,356.5C 412.19,386.077 379.023,394.244 340.5,381C 332.73,376.562 326.23,370.729 321,363.5C 314.093,348.111 306.426,333.111 298,318.5C 293.333,312.5 288,307.167 282,302.5C 281.327,312.001 280.494,321.335 279.5,330.5C 279.594,313.4 280.761,296.4 283,279.5C 296.847,303.349 313.014,325.515 331.5,346C 352.774,359.692 375.774,363.358 400.5,357C 416.852,353.293 430.019,344.793 440,331.5C 448.915,317.419 458.415,303.753 468.5,290.5C 469.328,295.132 469.828,299.798 470,304.5C 470.5,323.83 470.667,343.164 470.5,362.5 Z"/></g>
<g><path style="opacity:0.02" fill="#1e0300" d="M 475.5,281.5 C 476.645,285.311 476.812,289.311 476,293.5C 475.501,289.514 475.334,285.514 475.5,281.5 Z"/></g>
<g><path style="opacity:0.02" fill="#1a0200" d="M 274.5,279.5 C 275.641,282.64 275.808,285.973 275,289.5C 274.502,286.183 274.335,282.85 274.5,279.5 Z"/></g>
<g><path style="opacity:1" fill="#150b06" d="M 356.5,283.5 C 356.56,282.957 356.893,282.624 357.5,282.5C 371.175,286.468 384.842,286.468 398.5,282.5C 399.107,282.624 399.44,282.957 399.5,283.5C 396.251,285.028 392.918,286.361 389.5,287.5C 380.759,289.014 372.092,288.681 363.5,286.5C 361.085,285.695 358.751,284.695 356.5,283.5 Z"/></g>
<g><path style="opacity:1" fill="#ab7e6d" d="M 363.5,286.5 C 372.092,288.681 380.759,289.014 389.5,287.5C 389.167,288.167 388.833,288.833 388.5,289.5C 384.103,290.821 379.603,291.821 375,292.5C 370.464,290.817 365.964,289.483 361.5,288.5C 363.993,288.869 364.66,288.203 363.5,286.5 Z"/></g>
<g><path style="opacity:0.02" fill="#1c0200" d="M 273.5,293.5 C 274.645,297.311 274.812,301.311 274,305.5C 273.501,301.514 273.334,297.514 273.5,293.5 Z"/></g>
<g><path style="opacity:1" fill="#e1af9a" d="M 470.5,362.5 C 471.29,363.609 471.79,364.942 472,366.5C 473.423,364.655 474.59,362.655 475.5,360.5C 476.851,364.55 477.517,368.717 477.5,373C 477.066,378.869 476.399,384.702 475.5,390.5C 468.223,408.281 455.89,421.447 438.5,430C 404.271,446.087 368.605,450.087 331.5,442C 315.883,438.523 301.883,431.856 289.5,422C 274.656,406.785 268.322,388.618 270.5,367.5C 270.852,363.224 272.019,359.224 274,355.5C 275,357.833 276,360.167 277,362.5C 277.667,361.167 278.333,359.833 279,358.5C 279.5,349.173 279.666,339.839 279.5,330.5C 280.494,321.335 281.327,312.001 282,302.5C 288,307.167 293.333,312.5 298,318.5C 306.426,333.111 314.093,348.111 321,363.5C 326.23,370.729 332.73,376.562 340.5,381C 379.023,394.244 412.19,386.077 440,356.5C 446,346.5 452,336.5 458,326.5C 461.298,322.2 464.965,318.2 469,314.5C 469.169,330.672 469.669,346.672 470.5,362.5 Z"/></g>
<g><path style="opacity:0.02" fill="#1b0200" d="M 476.5,300.5 C 477.659,310.658 477.825,320.992 477,331.5C 476.5,321.172 476.334,310.839 476.5,300.5 Z"/></g>
<g><path style="opacity:0.02" fill="#1a0200" d="M 272.5,310.5 C 273.652,315.985 273.818,321.651 273,327.5C 272.501,321.843 272.334,316.176 272.5,310.5 Z"/></g>
<g><path style="opacity:0.008" fill="#060000" d="M 271.5,342.5 C 271.336,339.813 271.503,337.146 272,334.5C 272.801,337.367 272.634,340.034 271.5,342.5 Z"/></g>
<g><path style="opacity:0.02" fill="#230400" d="M 271.5,342.5 C 271.5,342.833 271.5,343.167 271.5,343.5C 270.83,343.019 270.83,342.685 271.5,342.5 Z"/></g>
<g><path style="opacity:0.02" fill="#230400" d="M 477.5,342.5 C 478.833,343.167 478.833,343.167 477.5,342.5 Z"/></g>
<g><path style="opacity:0.02" fill="#230400" d="M 269.5,344.5 C 268.833,343.167 268.833,343.167 269.5,344.5 Z"/></g>
<g><path style="opacity:0.02" fill="#230400" d="M 482.5,345.5 C 483.833,346.167 483.833,346.167 482.5,345.5 Z"/></g>
<g><path style="opacity:0.02" fill="#230400" d="M 484.5,346.5 C 485.833,347.167 485.833,347.167 484.5,346.5 Z"/></g>
<g><path style="opacity:0.02" fill="#230400" d="M 486.5,347.5 C 487.833,348.167 487.833,348.167 486.5,347.5 Z"/></g>
<g><path style="opacity:0.02" fill="#230400" d="M 491.5,350.5 C 492.833,351.167 492.833,351.167 491.5,350.5 Z"/></g>
<g><path style="opacity:0.02" fill="#230400" d="M 255.5,352.5 C 254.833,351.167 254.833,351.167 255.5,352.5 Z"/></g>
<g><path style="opacity:0.02" fill="#230400" d="M 493.5,351.5 C 494.833,352.167 494.833,352.167 493.5,351.5 Z"/></g>
<g><path style="opacity:0.02" fill="#230400" d="M 252.5,352.5 C 253.833,353.167 253.833,353.167 252.5,352.5 Z"/></g>
<g><path style="opacity:0.02" fill="#230400" d="M 496.5,353.5 C 497.833,354.167 497.833,354.167 496.5,353.5 Z"/></g>
<g><path style="opacity:0.02" fill="#230400" d="M 247.5,355.5 C 248.833,356.167 248.833,356.167 247.5,355.5 Z"/></g>
<g><path style="opacity:0.02" fill="#230400" d="M 501.5,356.5 C 502.833,357.167 502.833,357.167 501.5,356.5 Z"/></g>
<g><path style="opacity:0.02" fill="#230400" d="M 506.5,359.5 C 507.833,360.167 507.833,360.167 506.5,359.5 Z"/></g>
<g><path style="opacity:1" fill="#1f0f72" d="M 486.5,355.5 C 499.662,362.827 512.162,371.16 524,380.5C 524.591,395.545 521.591,409.879 515,423.5C 501.05,452.531 481.884,477.698 457.5,499C 431.849,521.908 404.015,541.741 374,558.5C 328.021,532.537 288.021,499.203 254,458.5C 242.449,442.923 233.449,425.923 227,407.5C 224.796,400.315 223.296,392.981 222.5,385.5C 222.486,383.407 223.152,381.574 224.5,380C 235.988,371.42 247.988,363.587 260.5,356.5C 260.833,356.833 261.167,357.167 261.5,357.5C 253.341,366.804 250.841,377.47 254,389.5C 257.942,403.717 264.275,416.717 273,428.5C 302.022,464.028 335.856,494.028 374.5,518.5C 406.346,497.621 435.513,473.287 462,445.5C 473.631,432.188 483.298,417.521 491,401.5C 495.061,391.868 496.394,381.868 495,371.5C 492.92,365.668 490.087,360.335 486.5,355.5 Z"/></g>
<g><path style="opacity:1" fill="#f6f6f6" d="M 437.5,457.5 C 401.244,470.677 364.244,473.01 326.5,464.5C 318.486,461.671 310.486,458.504 302.5,455C 285.521,439.023 272.021,420.523 262,399.5C 254.5,384.543 256.167,370.876 267,358.5C 266.917,361.119 266.75,363.786 266.5,366.5C 263.095,399.184 276.095,423.018 305.5,438C 352.678,456.327 399.012,454.327 444.5,432C 459.524,424.479 470.19,412.979 476.5,397.5C 478.93,392.907 480.43,387.907 481,382.5C 481.919,374.196 481.419,366.03 479.5,358C 480.996,357.493 482.163,357.993 483,359.5C 486.46,364.087 489.127,369.087 491,374.5C 491.705,384.687 489.705,394.353 485,403.5C 475.48,421.031 463.646,436.864 449.5,451C 445.475,453.273 441.475,455.439 437.5,457.5 Z"/></g>
<g><path style="opacity:0.008" fill="#000000" d="M 509.5,361.5 C 508.833,360.167 508.833,360.167 509.5,361.5 Z"/></g>
<g><path style="opacity:0.02" fill="#230400" d="M 509.5,361.5 C 510.833,362.167 510.833,362.167 509.5,361.5 Z"/></g>
<g><path style="opacity:0.02" fill="#230400" d="M 512.5,363.5 C 511.833,362.167 511.833,362.167 512.5,363.5 Z"/></g>
<g><path style="opacity:0.02" fill="#230400" d="M 512.5,363.5 C 513.833,364.167 513.833,364.167 512.5,363.5 Z"/></g>
<g><path style="opacity:0.02" fill="#230400" d="M 515.5,365.5 C 514.833,364.167 514.833,364.167 515.5,365.5 Z"/></g>
<g><path style="opacity:0.02" fill="#230400" d="M 515.5,365.5 C 516.833,366.167 516.833,366.167 515.5,365.5 Z"/></g>
<g><path style="opacity:0.008" fill="#000000" d="M 517.5,366.5 C 518.833,367.167 518.833,367.167 517.5,366.5 Z"/></g>
<g><path style="opacity:0.02" fill="#230400" d="M 519.5,368.5 C 520.833,369.167 520.833,369.167 519.5,368.5 Z"/></g>
<g><path style="opacity:0.008" fill="#000000" d="M 521.5,369.5 C 522.833,370.167 522.833,370.167 521.5,369.5 Z"/></g>
<g><path style="opacity:0.008" fill="#000000" d="M 224.5,370.5 C 225.833,371.167 225.833,371.167 224.5,370.5 Z"/></g>
<g><path style="opacity:0.008" fill="#000000" d="M 528.5,375.5 C 529.833,376.167 529.833,376.167 528.5,375.5 Z"/></g>
<g><path style="opacity:0.02" fill="#230400" d="M 529.5,377.5 C 530.833,378.167 530.833,378.167 529.5,377.5 Z"/></g>
<g><path style="opacity:0.02" fill="#1c0200" d="M 533.5,380.5 C 533.897,379.475 534.563,379.308 535.5,380C 534.906,380.464 534.239,380.631 533.5,380.5 Z"/></g>
<g><path style="opacity:0.008" fill="#110100" d="M 538.5,382.5 C 538.897,381.475 539.563,381.308 540.5,382C 539.906,382.464 539.239,382.631 538.5,382.5 Z"/></g>
<g><path style="opacity:0.02" fill="#230400" d="M 206.5,382.5 C 207.833,383.167 207.833,383.167 206.5,382.5 Z"/></g>
<g><path style="opacity:0.02" fill="#230400" d="M 541.5,382.5 C 542.833,383.167 542.833,383.167 541.5,382.5 Z"/></g>
<g><path style="opacity:0.02" fill="#1c0200" d="M 205.5,384.5 C 204.761,384.631 204.094,384.464 203.5,384C 204.437,383.308 205.103,383.475 205.5,384.5 Z"/></g>
<g><path style="opacity:0.008" fill="#110100" d="M 543.5,384.5 C 543.897,383.475 544.563,383.308 545.5,384C 544.906,384.464 544.239,384.631 543.5,384.5 Z"/></g>
<g><path style="opacity:0.02" fill="#230400" d="M 201.5,384.5 C 202.833,385.167 202.833,385.167 201.5,384.5 Z"/></g>
<g><path style="opacity:0.02" fill="#230400" d="M 546.5,384.5 C 547.833,385.167 547.833,385.167 546.5,384.5 Z"/></g>
<g><path style="opacity:0.02" fill="#1c0200" d="M 550.5,387.5 C 550.897,386.475 551.563,386.308 552.5,387C 551.906,387.464 551.239,387.631 550.5,387.5 Z"/></g>
<g><path style="opacity:1" fill="#1f0f73" d="M 743.5,573.5 C 497.5,573.5 251.5,573.5 5.5,573.5C 15.1619,540.179 29.6619,509.179 49,480.5C 68.9842,456.908 93.1509,438.742 121.5,426C 153.508,411.944 185.841,398.777 218.5,386.5C 218.898,392.222 219.731,397.889 221,403.5C 229.923,431.689 244.256,456.689 264,478.5C 296.102,511.624 331.935,539.79 371.5,563C 373.971,563.706 376.305,563.373 378.5,562C 395.51,551.497 412.176,540.497 428.5,529C 455.256,509.579 478.756,486.745 499,460.5C 515.539,438.082 526.039,413.082 530.5,385.5C 559.874,397.569 589.207,409.736 618.5,422C 648.211,434.404 674.044,452.237 696,475.5C 717.427,505.357 733.261,538.024 743.5,573.5 Z"/></g>
<g><path style="opacity:0.02" fill="#1c0200" d="M 555.5,389.5 C 555.897,388.475 556.563,388.308 557.5,389C 556.906,389.464 556.239,389.631 555.5,389.5 Z"/></g>
<g><path style="opacity:0.008" fill="#110100" d="M 560.5,391.5 C 560.897,390.475 561.563,390.308 562.5,391C 561.906,391.464 561.239,391.631 560.5,391.5 Z"/></g>
<g><path style="opacity:0.02" fill="#1c0200" d="M 183.5,392.5 C 183.897,391.475 184.563,391.308 185.5,392C 184.906,392.464 184.239,392.631 183.5,392.5 Z"/></g>
<g><path style="opacity:0.008" fill="#110100" d="M 565.5,392.5 C 564.761,392.631 564.094,392.464 563.5,392C 564.437,391.308 565.103,391.475 565.5,392.5 Z"/></g>
<g><path style="opacity:0.02" fill="#1c0200" d="M 183.5,392.5 C 183.5,392.833 183.5,393.167 183.5,393.5C 180.833,393.167 180.833,392.833 183.5,392.5 Z"/></g>
<g><path style="opacity:0.008" fill="#110100" d="M 565.5,393.5 C 565.5,393.167 565.5,392.833 565.5,392.5C 568.167,392.833 568.167,393.167 565.5,393.5 Z"/></g>
<g><path style="opacity:0.02" fill="#230400" d="M 179.5,393.5 C 180.833,394.167 180.833,394.167 179.5,393.5 Z"/></g>
<g><path style="opacity:0.02" fill="#230400" d="M 568.5,393.5 C 569.833,394.167 569.833,394.167 568.5,393.5 Z"/></g>
<g><path style="opacity:0.02" fill="#1c0200" d="M 572.5,396.5 C 572.897,395.475 573.563,395.308 574.5,396C 573.906,396.464 573.239,396.631 572.5,396.5 Z"/></g>
<g><path style="opacity:0.02" fill="#1c0200" d="M 577.5,398.5 C 577.897,397.475 578.563,397.308 579.5,398C 578.906,398.464 578.239,398.631 577.5,398.5 Z"/></g>
<g><path style="opacity:0.02" fill="#1c0200" d="M 582.5,400.5 C 582.897,399.475 583.563,399.308 584.5,400C 583.906,400.464 583.239,400.631 582.5,400.5 Z"/></g>
<g><path style="opacity:0.02" fill="#1c0200" d="M 161.5,401.5 C 161.897,400.475 162.563,400.308 163.5,401C 162.906,401.464 162.239,401.631 161.5,401.5 Z"/></g>
<g><path style="opacity:0.008" fill="#110100" d="M 587.5,401.5 C 586.761,401.631 586.094,401.464 585.5,401C 586.437,400.308 587.103,400.475 587.5,401.5 Z"/></g>
<g><path style="opacity:0.02" fill="#1c0200" d="M 161.5,401.5 C 161.5,401.833 161.5,402.167 161.5,402.5C 158.833,402.167 158.833,401.833 161.5,401.5 Z"/></g>
<g><path style="opacity:0.008" fill="#110100" d="M 587.5,402.5 C 587.5,402.167 587.5,401.833 587.5,401.5C 590.167,401.833 590.167,402.167 587.5,402.5 Z"/></g>
<g><path style="opacity:0.02" fill="#230400" d="M 157.5,402.5 C 158.833,403.167 158.833,403.167 157.5,402.5 Z"/></g>
<g><path style="opacity:0.02" fill="#230400" d="M 590.5,402.5 C 591.833,403.167 591.833,403.167 590.5,402.5 Z"/></g>
<g><path style="opacity:0.02" fill="#1c0200" d="M 594.5,405.5 C 594.897,404.475 595.563,404.308 596.5,405C 595.906,405.464 595.239,405.631 594.5,405.5 Z"/></g>
<g><path style="opacity:0.02" fill="#1c0200" d="M 599.5,407.5 C 599.897,406.475 600.563,406.308 601.5,407C 600.906,407.464 600.239,407.631 599.5,407.5 Z"/></g>
<g><path style="opacity:0.008" fill="#000000" d="M 604.5,409.5 C 604.897,408.475 605.563,408.308 606.5,409C 605.906,409.464 605.239,409.631 604.5,409.5 Z"/></g>
<g><path style="opacity:0.02" fill="#230400" d="M 140.5,409.5 C 141.833,410.167 141.833,410.167 140.5,409.5 Z"/></g>
<g><path style="opacity:0.02" fill="#230400" d="M 607.5,409.5 C 608.833,410.167 608.833,410.167 607.5,409.5 Z"/></g>
<g><path style="opacity:0.02" fill="#1c0200" d="M 611.5,412.5 C 611.897,411.475 612.563,411.308 613.5,412C 612.906,412.464 612.239,412.631 611.5,412.5 Z"/></g>
<g><path style="opacity:0.02" fill="#230400" d="M 133.5,412.5 C 134.833,413.167 134.833,413.167 133.5,412.5 Z"/></g>
<g><path style="opacity:0.02" fill="#230400" d="M 614.5,412.5 C 615.833,413.167 615.833,413.167 614.5,412.5 Z"/></g>
<g><path style="opacity:0.02" fill="#1c0200" d="M 620.5,416.5 C 620.897,415.475 621.563,415.308 622.5,416C 621.906,416.464 621.239,416.631 620.5,416.5 Z"/></g>
<g><path style="opacity:0.02" fill="#230400" d="M 124.5,416.5 C 125.833,417.167 125.833,417.167 124.5,416.5 Z"/></g>
<g><path style="opacity:0.02" fill="#230400" d="M 623.5,416.5 C 624.833,417.167 624.833,417.167 623.5,416.5 Z"/></g>
<g><path style="opacity:0.02" fill="#230400" d="M 625.5,417.5 C 626.833,418.167 626.833,418.167 625.5,417.5 Z"/></g>
<g><path style="opacity:1" fill="#1d140e" d="M 270.5,367.5 C 268.322,388.618 274.656,406.785 289.5,422C 301.883,431.856 315.883,438.523 331.5,442C 368.605,450.087 404.271,446.087 438.5,430C 455.89,421.447 468.223,408.281 475.5,390.5C 476.268,389.737 476.768,388.737 477,387.5C 477.87,388.108 478.37,388.941 478.5,390C 477.521,392.433 476.855,394.933 476.5,397.5C 470.19,412.979 459.524,424.479 444.5,432C 399.012,454.327 352.678,456.327 305.5,438C 276.095,423.018 263.095,399.184 266.5,366.5C 267.29,365.391 267.79,364.058 268,362.5C 268.985,364.175 269.819,365.842 270.5,367.5 Z"/></g>
<g><path style="opacity:0.02" fill="#230400" d="M 643.5,426.5 C 644.833,427.167 644.833,427.167 643.5,426.5 Z"/></g>
<g><path style="opacity:0.02" fill="#230400" d="M 103.5,428.5 C 102.833,427.167 102.833,427.167 103.5,428.5 Z"/></g>
<g><path style="opacity:0.02" fill="#230400" d="M 645.5,427.5 C 646.833,428.167 646.833,428.167 645.5,427.5 Z"/></g>
<g><path style="opacity:0.02" fill="#230400" d="M 100.5,428.5 C 101.833,429.167 101.833,429.167 100.5,428.5 Z"/></g>
<g><path style="opacity:0.02" fill="#230400" d="M 647.5,428.5 C 648.833,429.167 648.833,429.167 647.5,428.5 Z"/></g>
<g><path style="opacity:0.02" fill="#230400" d="M 652.5,431.5 C 653.833,432.167 653.833,432.167 652.5,431.5 Z"/></g>
<g><path style="opacity:0.02" fill="#230400" d="M 93.5,432.5 C 94.8333,433.167 94.8333,433.167 93.5,432.5 Z"/></g>
<g><path style="opacity:0.02" fill="#230400" d="M 654.5,432.5 C 655.833,433.167 655.833,433.167 654.5,432.5 Z"/></g>
<g><path style="opacity:0.02" fill="#230400" d="M 660.5,436.5 C 661.833,437.167 661.833,437.167 660.5,436.5 Z"/></g>
<g><path style="opacity:0.02" fill="#230400" d="M 663.5,438.5 C 662.833,437.167 662.833,437.167 663.5,438.5 Z"/></g>
<g><path style="opacity:0.02" fill="#230400" d="M 663.5,438.5 C 664.833,439.167 664.833,439.167 663.5,438.5 Z"/></g>
<g><path style="opacity:0.02" fill="#230400" d="M 666.5,440.5 C 667.833,441.167 667.833,441.167 666.5,440.5 Z"/></g>
<g><path style="opacity:0.008" fill="#000000" d="M 79.5,441.5 C 80.8333,442.167 80.8333,442.167 79.5,441.5 Z"/></g>
<g><path style="opacity:0.008" fill="#000000" d="M 668.5,441.5 C 669.833,442.167 669.833,442.167 668.5,441.5 Z"/></g>
<g><path style="opacity:0.02" fill="#230400" d="M 678.5,449.5 C 679.833,450.167 679.833,450.167 678.5,449.5 Z"/></g>
<g><path style="opacity:0.008" fill="#000000" d="M 680.5,450.5 C 681.833,451.167 681.833,451.167 680.5,450.5 Z"/></g>
<g><path style="opacity:0.008" fill="#000000" d="M 686.5,457.5 C 687.779,456.285 688.779,456.618 689.5,458.5C 688.833,458.5 688.167,458.5 687.5,458.5C 686.833,458.5 686.5,458.167 686.5,457.5 Z"/></g>
<g><path style="opacity:0.008" fill="#000000" d="M 58.5,458.5 C 59.8333,459.167 59.8333,459.167 58.5,458.5 Z"/></g>
<g><path style="opacity:0.008" fill="#000000" d="M 689.5,458.5 C 690.167,458.5 690.5,458.833 690.5,459.5C 690.167,459.167 689.833,458.833 689.5,458.5 Z"/></g>
<g><path style="opacity:0.008" fill="#000000" d="M 58.5,459.5 C 57.8333,460.167 57.8333,460.167 58.5,459.5 Z"/></g>
<g><path style="opacity:0.008" fill="#000000" d="M 690.5,459.5 C 691.167,459.5 691.5,459.833 691.5,460.5C 691.167,460.167 690.833,459.833 690.5,459.5 Z"/></g>
<g><path style="opacity:0.008" fill="#000000" d="M 57.5,460.5 C 56.8333,461.167 56.8333,461.167 57.5,460.5 Z"/></g>
<g><path style="opacity:0.008" fill="#000000" d="M 691.5,460.5 C 692.167,460.5 692.5,460.833 692.5,461.5C 692.167,461.167 691.833,460.833 691.5,460.5 Z"/></g>
<g><path style="opacity:0.008" fill="#000000" d="M 56.5,461.5 C 55.8333,462.167 55.8333,462.167 56.5,461.5 Z"/></g>
<g><path style="opacity:0.008" fill="#000000" d="M 692.5,461.5 C 693.167,461.5 693.5,461.833 693.5,462.5C 693.167,462.167 692.833,461.833 692.5,461.5 Z"/></g>
<g><path style="opacity:0.008" fill="#000000" d="M 55.5,462.5 C 54.8333,463.167 54.8333,463.167 55.5,462.5 Z"/></g>
<g><path style="opacity:0.008" fill="#000000" d="M 693.5,462.5 C 694.167,462.5 694.5,462.833 694.5,463.5C 694.167,463.167 693.833,462.833 693.5,462.5 Z"/></g>
<g><path style="opacity:0.008" fill="#000000" d="M 54.5,463.5 C 53.8333,464.167 53.8333,464.167 54.5,463.5 Z"/></g>
<g><path style="opacity:0.008" fill="#000000" d="M 694.5,463.5 C 695.833,464.167 695.833,464.167 694.5,463.5 Z"/></g>
<g><path style="opacity:1" fill="#f8f8f8" d="M 437.5,463.5 C 417.797,481.516 396.797,497.85 374.5,512.5C 352.904,498.528 332.57,482.861 313.5,465.5C 313.833,465.167 314.167,464.833 314.5,464.5C 317.357,465.963 320.357,466.963 323.5,467.5C 332.79,470.607 342.457,472.44 352.5,473C 381.118,475.561 408.951,472.061 436,462.5C 436.765,462.57 437.265,462.903 437.5,463.5 Z"/></g>
<g><path style="opacity:1" fill="#1a140f" d="M 437.5,457.5 C 437.423,458.75 436.756,459.583 435.5,460C 436.5,460.833 437.5,461.667 438.5,462.5C 438.376,463.107 438.043,463.44 437.5,463.5C 437.265,462.903 436.765,462.57 436,462.5C 408.951,472.061 381.118,475.561 352.5,473C 342.457,472.44 332.79,470.607 323.5,467.5C 324.239,467.631 324.906,467.464 325.5,467C 321.82,465.775 322.153,464.942 326.5,464.5C 364.244,473.01 401.244,470.677 437.5,457.5 Z"/></g>
<g><path style="opacity:0.02" fill="#230400" d="M 700.5,470.5 C 699.833,469.167 699.833,469.167 700.5,470.5 Z"/></g>
<g><path style="opacity:0.008" fill="#000000" d="M 700.5,470.5 C 701.833,471.167 701.833,471.167 700.5,470.5 Z"/></g>
<g><path style="opacity:0.008" fill="#000000" d="M 43.5,475.5 C 44.8333,476.167 44.8333,476.167 43.5,475.5 Z"/></g>
<g><path style="opacity:0.02" fill="#230400" d="M 706.5,478.5 C 707.833,479.167 707.833,479.167 706.5,478.5 Z"/></g>
<g><path style="opacity:0.02" fill="#230400" d="M 708.5,481.5 C 709.833,482.167 709.833,482.167 708.5,481.5 Z"/></g>
<g><path style="opacity:0.02" fill="#230400" d="M 710.5,484.5 C 711.833,485.167 711.833,485.167 710.5,484.5 Z"/></g>
<g><path style="opacity:0.02" fill="#230400" d="M 37.5,487.5 C 36.8333,486.167 36.8333,486.167 37.5,487.5 Z"/></g>
<g><path style="opacity:0.02" fill="#230400" d="M 712.5,487.5 C 711.833,486.167 711.833,486.167 712.5,487.5 Z"/></g>
<g><path style="opacity:0.02" fill="#230400" d="M 36.5,487.5 C 35.8333,488.167 35.8333,488.167 36.5,487.5 Z"/></g>
<g><path style="opacity:0.008" fill="#000000" d="M 712.5,487.5 C 713.833,488.167 713.833,488.167 712.5,487.5 Z"/></g>
<g><path style="opacity:0.02" fill="#230400" d="M 715.5,492.5 C 716.833,493.167 716.833,493.167 715.5,492.5 Z"/></g>
<g><path style="opacity:0.008" fill="#000000" d="M 718.5,497.5 C 718.167,497.5 717.833,497.5 717.5,497.5C 717.833,494.833 718.167,494.833 718.5,497.5 Z"/></g>
<g><path style="opacity:0.02" fill="#230400" d="M 718.5,497.5 C 719.833,498.167 719.833,498.167 718.5,497.5 Z"/></g>
<g><path style="opacity:0.02" fill="#230400" d="M 719.5,499.5 C 720.833,500.167 720.833,500.167 719.5,499.5 Z"/></g>
<g><path style="opacity:0.008" fill="#000000" d="M 723.5,506.5 C 723.167,506.5 722.833,506.5 722.5,506.5C 722.833,503.833 723.167,503.833 723.5,506.5 Z"/></g>
<g><path style="opacity:0.02" fill="#230400" d="M 24.5,506.5 C 25.8333,507.167 25.8333,507.167 24.5,506.5 Z"/></g>
<g><path style="opacity:0.02" fill="#230400" d="M 723.5,506.5 C 724.833,507.167 724.833,507.167 723.5,506.5 Z"/></g>
<g><path style="opacity:0.02" fill="#230400" d="M 24.5,509.5 C 23.8333,508.167 23.8333,508.167 24.5,509.5 Z"/></g>
<g><path style="opacity:0.02" fill="#230400" d="M 724.5,508.5 C 725.833,509.167 725.833,509.167 724.5,508.5 Z"/></g>
<g><path style="opacity:0.02" fill="#230400" d="M 23.5,511.5 C 22.8333,510.167 22.8333,510.167 23.5,511.5 Z"/></g>
<g><path style="opacity:0.02" fill="#230400" d="M 725.5,510.5 C 726.833,511.167 726.833,511.167 725.5,510.5 Z"/></g>
<g><path style="opacity:0.02" fill="#230400" d="M 22.5,513.5 C 21.8333,512.167 21.8333,512.167 22.5,513.5 Z"/></g>
<g><path style="opacity:0.02" fill="#230400" d="M 726.5,512.5 C 727.833,513.167 727.833,513.167 726.5,512.5 Z"/></g>
<g><path style="opacity:0.02" fill="#230400" d="M 21.5,515.5 C 20.8333,514.167 20.8333,514.167 21.5,515.5 Z"/></g>
<g><path style="opacity:0.02" fill="#230400" d="M 727.5,514.5 C 728.833,515.167 728.833,515.167 727.5,514.5 Z"/></g>
<g><path style="opacity:0.02" fill="#230400" d="M 20.5,517.5 C 19.8333,516.167 19.8333,516.167 20.5,517.5 Z"/></g>
<g><path style="opacity:0.02" fill="#230400" d="M 728.5,516.5 C 729.833,517.167 729.833,517.167 728.5,516.5 Z"/></g>
<g><path style="opacity:0.02" fill="#230400" d="M 19.5,519.5 C 18.8333,518.167 18.8333,518.167 19.5,519.5 Z"/></g>
<g><path style="opacity:0.02" fill="#230400" d="M 729.5,518.5 C 730.833,519.167 730.833,519.167 729.5,518.5 Z"/></g>
<g><path style="opacity:0.02" fill="#230400" d="M 17.5,520.5 C 18.8333,521.167 18.8333,521.167 17.5,520.5 Z"/></g>
<g><path style="opacity:0.02" fill="#230400" d="M 730.5,520.5 C 731.833,521.167 731.833,521.167 730.5,520.5 Z"/></g>
<g><path style="opacity:0.02" fill="#230400" d="M 16.5,522.5 C 17.8333,523.167 17.8333,523.167 16.5,522.5 Z"/></g>
<g><path style="opacity:0.02" fill="#1c0200" d="M 733.5,528.5 C 733.369,527.761 733.536,527.094 734,526.5C 734.692,527.437 734.525,528.103 733.5,528.5 Z"/></g>
<g><path style="opacity:0.02" fill="#230400" d="M 734.5,529.5 C 735.833,530.167 735.833,530.167 734.5,529.5 Z"/></g>
<g><path style="opacity:0.02" fill="#1c0200" d="M 737.5,535.5 C 737.167,535.5 736.833,535.5 736.5,535.5C 736.833,532.833 737.167,532.833 737.5,535.5 Z"/></g>
<g><path style="opacity:0.02" fill="#1c0200" d="M 11.5,537.5 C 10.475,537.103 10.3083,536.437 11,535.5C 11.4643,536.094 11.631,536.761 11.5,537.5 Z"/></g>
<g><path style="opacity:0.02" fill="#1c0200" d="M 737.5,535.5 C 738.525,535.897 738.692,536.563 738,537.5C 737.536,536.906 737.369,536.239 737.5,535.5 Z"/></g>
<g><path style="opacity:0.008" fill="#000000" d="M 739.5,540.5 C 739.167,540.5 738.833,540.5 738.5,540.5C 738.833,537.833 739.167,537.833 739.5,540.5 Z"/></g>
<g><path style="opacity:0.02" fill="#1c0200" d="M 9.5,542.5 C 8.47498,542.103 8.30831,541.437 9,540.5C 9.46434,541.094 9.63101,541.761 9.5,542.5 Z"/></g>
<g><path style="opacity:0.02" fill="#1c0200" d="M 739.5,540.5 C 740.525,540.897 740.692,541.563 740,542.5C 739.536,541.906 739.369,541.239 739.5,540.5 Z"/></g>
<g><path style="opacity:0.02" fill="#230400" d="M 8.5,545.5 C 8.16667,545.5 7.83333,545.5 7.5,545.5C 7.83333,542.833 8.16667,542.833 8.5,545.5 Z"/></g>
<g><path style="opacity:0.02" fill="#1c0200" d="M 740.5,545.5 C 740.369,544.761 740.536,544.094 741,543.5C 741.692,544.437 741.525,545.103 740.5,545.5 Z"/></g>
<g><path style="opacity:0.02" fill="#1c0200" d="M 7.5,545.5 C 7.63101,546.239 7.46434,546.906 7,547.5C 6.30831,546.563 6.47498,545.897 7.5,545.5 Z"/></g>
<g><path style="opacity:0.008" fill="#110100" d="M 742.5,548.5 C 742.167,548.5 741.833,548.5 741.5,548.5C 741.833,545.833 742.167,545.833 742.5,548.5 Z"/></g>
<g><path style="opacity:0.02" fill="#1c0200" d="M 6.5,550.5 C 5.47498,550.103 5.30831,549.437 6,548.5C 6.46434,549.094 6.63101,549.761 6.5,550.5 Z"/></g>
<g><path style="opacity:0.02" fill="#1c0200" d="M 742.5,548.5 C 743.525,548.897 743.692,549.563 743,550.5C 742.536,549.906 742.369,549.239 742.5,548.5 Z"/></g>
<g><path style="opacity:0.02" fill="#1c0200" d="M 5.5,553.5 C 4.47498,553.103 4.30831,552.437 5,551.5C 5.46434,552.094 5.63101,552.761 5.5,553.5 Z"/></g>
<g><path style="opacity:0.02" fill="#1c0200" d="M 743.5,553.5 C 743.369,552.761 743.536,552.094 744,551.5C 744.692,552.437 744.525,553.103 743.5,553.5 Z"/></g>
<g><path style="opacity:0.02" fill="#230400" d="M 4.5,556.5 C 3.47498,556.103 3.30831,555.437 4,554.5C 4.46434,555.094 4.63101,555.761 4.5,556.5 Z"/></g>
<g><path style="opacity:0.02" fill="#1c0200" d="M 744.5,556.5 C 744.369,555.761 744.536,555.094 745,554.5C 745.692,555.437 745.525,556.103 744.5,556.5 Z"/></g>
<g><path style="opacity:0.02" fill="#230400" d="M 3.5,559.5 C 2.47498,559.103 2.30831,558.437 3,557.5C 3.46434,558.094 3.63101,558.761 3.5,559.5 Z"/></g>
<g><path style="opacity:0.02" fill="#1c0200" d="M 745.5,559.5 C 745.369,558.761 745.536,558.094 746,557.5C 746.692,558.437 746.525,559.103 745.5,559.5 Z"/></g>
<g><path style="opacity:0.02" fill="#230400" d="M 2.5,562.5 C 1.47498,562.103 1.30831,561.437 2,560.5C 2.46434,561.094 2.63101,561.761 2.5,562.5 Z"/></g>
<g><path style="opacity:0.02" fill="#1c0200" d="M 746.5,562.5 C 746.369,561.761 746.536,561.094 747,560.5C 747.692,561.437 747.525,562.103 746.5,562.5 Z"/></g>
<g><path style="opacity:0.02" fill="#1c0200" d="M 0.5,563.5 C 1.52502,563.897 1.69169,564.563 1,565.5C 0.535656,564.906 0.368989,564.239 0.5,563.5 Z"/></g>
<g><path style="opacity:0.02" fill="#1c0200" d="M 747.5,563.5 C 748.525,563.897 748.692,564.563 748,565.5C 747.536,564.906 747.369,564.239 747.5,563.5 Z"/></g>
<g><path style="opacity:0.02" fill="#170200" d="M -0.5,566.5 C 0.403972,567.209 0.737305,568.209 0.5,569.5C 0.166667,569.5 -0.166667,569.5 -0.5,569.5C -0.5,568.5 -0.5,567.5 -0.5,566.5 Z"/></g>
<g><path style="opacity:0.02" fill="#170200" d="M 749.5,566.5 C 749.5,567.5 749.5,568.5 749.5,569.5C 749.167,569.5 748.833,569.5 748.5,569.5C 748.263,568.209 748.596,567.209 749.5,566.5 Z"/></g>
</svg>
