<?xml version="1.0" encoding="UTF-8"?>
<!DOCTYPE svg PUBLIC "-//W3C//DTD SVG 1.1//EN" "http://www.w3.org/Graphics/SVG/1.1/DTD/svg11.dtd">
<svg xmlns="http://www.w3.org/2000/svg" version="1.1" width="750px" height="571px" style="shape-rendering:geometricPrecision; text-rendering:geometricPrecision; image-rendering:optimizeQuality; fill-rule:evenodd; clip-rule:evenodd" xmlns:xlink="http://www.w3.org/1999/xlink">
<g><path style="opacity:0.012" fill="#280804" d="M 341.5,-0.5 C 343.167,-0.5 344.833,-0.5 346.5,-0.5C 344.833,0.833333 343.167,0.833333 341.5,-0.5 Z"/></g>
<g><path style="opacity:0.012" fill="#280804" d="M 350.5,-0.5 C 352.5,-0.5 354.5,-0.5 356.5,-0.5C 356.5,-0.166667 356.5,0.166667 356.5,0.5C 354.265,0.794717 352.265,0.461384 350.5,-0.5 Z"/></g>
<g><path style="opacity:0.852" fill="#1d0d03" d="M 361.5,-0.5 C 366.167,-0.5 370.833,-0.5 375.5,-0.5C 376.209,0.403972 377.209,0.737305 378.5,0.5C 378.842,1.33825 379.508,1.67158 380.5,1.5C 380.842,2.33825 381.508,2.67158 382.5,2.5C 386.917,2.65274 391.584,2.65274 396.5,2.5C 399.979,4.40312 403.646,6.06979 407.5,7.5C 407.973,8.90632 408.973,9.57298 410.5,9.5C 411.29,10.4013 412.29,11.0679 413.5,11.5C 413.611,12.1174 413.944,12.6174 414.5,13C 419.276,13.3458 423.942,14.1792 428.5,15.5C 429.29,16.4013 430.29,17.0679 431.5,17.5C 437.14,22.8054 442.807,28.1388 448.5,33.5C 449.441,35.4664 450.441,37.4664 451.5,39.5C 453.937,40.8034 456.104,42.4701 458,44.5C 460.527,48.8961 463.027,53.2295 465.5,57.5C 465.402,59.5529 466.069,61.2196 467.5,62.5C 467.263,63.791 467.596,64.791 468.5,65.5C 470.138,71.274 470.805,76.9407 470.5,82.5C 470.66,84.153 471.326,85.4863 472.5,86.5C 472.402,88.5529 473.069,90.2196 474.5,91.5C 474.41,94.1522 475.076,96.4855 476.5,98.5C 477.089,104.699 478.089,110.699 479.5,116.5C 480.723,132.497 480.723,148.497 479.5,164.5C 478.378,166.288 478.211,168.288 479,170.5C 479.717,169.956 480.217,169.289 480.5,168.5C 481.492,168.672 482.158,168.338 482.5,167.5C 487.783,166.04 491.783,167.707 494.5,172.5C 494.318,174.591 494.652,176.591 495.5,178.5C 494.073,195.119 493.073,211.786 492.5,228.5C 491.566,229.568 491.232,230.901 491.5,232.5C 489.707,234.426 488.707,236.759 488.5,239.5C 487.662,239.842 487.328,240.508 487.5,241.5C 486.596,242.209 486.263,243.209 486.5,244.5C 485.596,245.209 485.263,246.209 485.5,247.5C 484.662,247.842 484.328,248.508 484.5,249.5C 483.833,249.5 483.5,249.833 483.5,250.5C 482.094,250.973 481.427,251.973 481.5,253.5C 479.973,253.427 478.973,254.094 478.5,255.5C 477.508,255.328 476.842,255.662 476.5,256.5C 475.209,256.263 474.209,256.596 473.5,257.5C 473.167,257.5 472.833,257.5 472.5,257.5C 471.659,255.621 471.325,253.621 471.5,251.5C 473.963,251.219 476.13,250.219 478,248.5C 480.667,242.5 483.333,236.5 486,230.5C 487.485,215.557 488.318,200.557 488.5,185.5C 489.742,183.611 489.742,181.611 488.5,179.5C 490.548,175.218 489.215,173.051 484.5,173C 481.853,175.657 478.853,177.823 475.5,179.5C 474.338,184.131 474.172,188.798 475,193.5C 477.27,187.733 481.104,183.399 486.5,180.5C 487.167,180.5 487.5,180.833 487.5,181.5C 483.753,184.764 480.92,188.764 479,193.5C 475.586,203.022 473.419,212.689 472.5,222.5C 472.774,217.737 472.441,213.07 471.5,208.5C 470.932,203.363 470.266,198.363 469.5,193.5C 469.201,186.711 469.868,180.044 471.5,173.5C 475.907,148.196 475.407,122.862 470,97.5C 469,94.5 468,91.5 467,88.5C 465.989,87.6634 464.822,87.33 463.5,87.5C 463.5,86.5 463.5,85.5 463.5,84.5C 464.833,79.8333 464.833,75.1667 463.5,70.5C 461.582,61.3809 457.582,53.3809 451.5,46.5C 445.95,39.384 438.95,31.884 430.5,24C 427.779,21.9728 424.779,20.4728 421.5,19.5C 421.502,21.741 421.168,24.0743 420.5,26.5C 414.068,18.5751 406.068,12.7418 396.5,9C 389.82,8.52648 383.154,8.69314 376.5,9.5C 376.67,8.17793 376.337,7.01127 375.5,6C 373.047,5.26177 370.547,4.76177 368,4.5C 359.935,6.08808 351.768,6.92141 343.5,7C 340.888,7.63949 338.554,8.80616 336.5,10.5C 341.065,15.1236 340.065,16.6236 333.5,15C 327.072,11.6727 320.739,12.0061 314.5,16C 306.001,22.3339 298.335,29.5005 291.5,37.5C 292.711,38.7202 292.711,39.8869 291.5,41C 286.588,42.7084 282.421,45.5417 279,49.5C 275.887,54.7287 273.053,60.062 270.5,65.5C 269.732,66.2625 269.232,67.2625 269,68.5C 268.501,74.1569 268.334,79.8236 268.5,85.5C 268.646,87.9424 267.813,88.6091 266,87.5C 262.488,93.365 260.155,99.6983 259,106.5C 255.69,125.497 255.69,144.497 259,163.5C 261.228,169.265 263.395,174.932 265.5,180.5C 266.194,189.469 266.861,198.469 267.5,207.5C 266.617,212.103 266.283,216.77 266.5,221.5C 263.771,205.726 256.104,192.726 243.5,182.5C 242.334,193.151 242.168,203.818 243,214.5C 246.943,224.996 251.277,235.329 256,245.5C 258.509,250.856 262.676,253.523 268.5,253.5C 268.675,255.621 268.341,257.621 267.5,259.5C 266.167,259.5 264.833,259.5 263.5,259.5C 262.791,258.596 261.791,258.263 260.5,258.5C 260.027,257.094 259.027,256.427 257.5,256.5C 254.822,253.127 252.156,249.794 249.5,246.5C 249.672,245.508 249.338,244.842 248.5,244.5C 248.672,243.508 248.338,242.842 247.5,242.5C 247.672,241.508 247.338,240.842 246.5,240.5C 246.737,239.209 246.404,238.209 245.5,237.5C 245.598,235.447 244.931,233.78 243.5,232.5C 243.737,231.209 243.404,230.209 242.5,229.5C 242.598,227.447 241.931,225.78 240.5,224.5C 240.204,222.597 239.537,220.93 238.5,219.5C 238.737,218.209 238.404,217.209 237.5,216.5C 237.02,209.768 236.354,203.101 235.5,196.5C 236.339,190.325 237.006,183.992 237.5,177.5C 241.613,171.476 246.946,170.142 253.5,173.5C 253.5,174.167 253.833,174.5 254.5,174.5C 255.172,175.267 256.005,175.934 257,176.5C 254.459,168.802 252.793,160.802 252,152.5C 249.989,131.441 251.823,110.774 257.5,90.5C 258.931,89.2196 259.598,87.5529 259.5,85.5C 260.338,85.1583 260.672,84.4916 260.5,83.5C 261.117,83.3893 261.617,83.056 262,82.5C 262.445,76.8202 262.945,71.1535 263.5,65.5C 265.488,63.0461 266.321,60.3794 266,57.5C 266.667,58.8333 267.333,58.8333 268,57.5C 269.123,54.7513 270.623,52.2513 272.5,50C 274.472,45.3432 278.472,41.3432 284.5,38C 293.489,25.1754 304.822,15.0088 318.5,7.5C 322.359,6.57088 326.192,6.57088 330,7.5C 332.183,7.47792 333.683,6.47792 334.5,4.5C 336.819,4.00751 338.819,3.00751 340.5,1.5C 346.026,1.82141 351.36,1.48808 356.5,0.5C 358.415,0.784479 360.081,0.451145 361.5,-0.5 Z"/></g>
<g><path style="opacity:0.012" fill="#280804" d="M 378.5,-0.5 C 378.833,-0.5 379.167,-0.5 379.5,-0.5C 379.315,0.170143 378.981,0.170143 378.5,-0.5 Z"/></g>
<g><path style="opacity:0.012" fill="#280804" d="M 340.5,1.5 C 339.761,1.63101 339.094,1.46434 338.5,1C 339.437,0.308314 340.103,0.474981 340.5,1.5 Z"/></g>
<g><path style="opacity:0.024" fill="#2f0d02" d="M 380.5,0.5 C 381.833,1.16667 381.833,1.16667 380.5,0.5 Z"/></g>
<g><path style="opacity:0.012" fill="#280804" d="M 384.5,1.5 C 387.976,0.356734 391.642,0.190067 395.5,1C 391.848,1.49863 388.182,1.6653 384.5,1.5 Z"/></g>
<g><path style="opacity:0.012" fill="#280804" d="M 336.5,1.5 C 337.833,2.16667 337.833,2.16667 336.5,1.5 Z"/></g>
<g><path style="opacity:0.024" fill="#2f0d02" d="M 382.5,1.5 C 383.833,2.16667 383.833,2.16667 382.5,1.5 Z"/></g>
<g><path style="opacity:0.012" fill="#280804" d="M 396.5,2.5 C 396.897,1.47498 397.563,1.30831 398.5,2C 397.906,2.46434 397.239,2.63101 396.5,2.5 Z"/></g>
<g><path style="opacity:0.012" fill="#280804" d="M 334.5,2.5 C 335.833,3.16667 335.833,3.16667 334.5,2.5 Z"/></g>
<g><path style="opacity:0.012" fill="#280804" d="M 334.5,3.5 C 334.5,3.83333 334.5,4.16667 334.5,4.5C 333.83,4.01865 333.83,3.68532 334.5,3.5 Z"/></g>
<g><path style="opacity:0.012" fill="#280804" d="M 331.5,4.5 C 332.833,5.16667 332.833,5.16667 331.5,4.5 Z"/></g>
<g><path style="opacity:0.012" fill="#280804" d="M 319.5,6.5 C 320.251,5.42654 321.251,5.25988 322.5,6C 321.552,6.48278 320.552,6.64945 319.5,6.5 Z"/></g>
<g><path style="opacity:0.012" fill="#2a0904" d="M 331.5,5.5 C 330.749,6.57346 329.749,6.74012 328.5,6C 329.448,5.51722 330.448,5.35055 331.5,5.5 Z"/></g>
<g><path style="opacity:1" fill="#a86347" d="M 463.5,70.5 C 463.631,71.2389 463.464,71.9056 463,72.5C 462,71.5 461,70.5 460,69.5C 458.178,64.5232 455.845,59.8566 453,55.5C 452.784,57.3839 452.117,59.0506 451,60.5C 446.5,54 442,47.5 437.5,41C 435.333,39.5 433.167,38 431,36.5C 431.359,39.1123 431.859,41.779 432.5,44.5C 429.351,44.7886 426.351,44.2886 423.5,43C 418.833,37.6667 414.167,32.3333 409.5,27C 405.759,24.2677 401.759,21.9343 397.5,20C 392.833,19.3333 388.167,19.3333 383.5,20C 384.406,21.6995 384.739,23.5328 384.5,25.5C 376.028,25.618 368.028,23.7847 360.5,20C 355.115,19.7861 349.781,19.2861 344.5,18.5C 344.431,20.2781 344.097,22.1114 343.5,24C 333.378,23.0389 323.378,23.7056 313.5,26C 308.882,28.9504 304.548,32.2838 300.5,36C 297.296,38.8688 294.463,42.0354 292,45.5C 293.313,47.5346 294.813,49.7012 296.5,52C 296.241,53.2613 295.574,54.2613 294.5,55C 284.428,55.1173 276.595,59.284 271,67.5C 270.536,66.9056 270.369,66.2389 270.5,65.5C 273.053,60.062 275.887,54.7287 279,49.5C 282.421,45.5417 286.588,42.7084 291.5,41C 292.711,39.8869 292.711,38.7202 291.5,37.5C 298.335,29.5005 306.001,22.3339 314.5,16C 320.739,12.0061 327.072,11.6727 333.5,15C 340.065,16.6236 341.065,15.1236 336.5,10.5C 338.554,8.80616 340.888,7.63949 343.5,7C 351.768,6.92141 359.935,6.08808 368,4.5C 370.547,4.76177 373.047,5.26177 375.5,6C 376.337,7.01127 376.67,8.17793 376.5,9.5C 383.154,8.69314 389.82,8.52648 396.5,9C 406.068,12.7418 414.068,18.5751 420.5,26.5C 421.168,24.0743 421.502,21.741 421.5,19.5C 424.779,20.4728 427.779,21.9728 430.5,24C 438.95,31.884 445.95,39.384 451.5,46.5C 457.582,53.3809 461.582,61.3809 463.5,70.5 Z"/></g>
<g><path style="opacity:0.012" fill="#280804" d="M 318.5,7.5 C 317.761,7.63101 317.094,7.46434 316.5,7C 317.437,6.30831 318.103,6.47498 318.5,7.5 Z"/></g>
<g><path style="opacity:0.024" fill="#2f0d02" d="M 407.5,6.5 C 408.833,7.16667 408.833,7.16667 407.5,6.5 Z"/></g>
<g><path style="opacity:0.012" fill="#280804" d="M 314.5,7.5 C 315.833,8.16667 315.833,8.16667 314.5,7.5 Z"/></g>
<g><path style="opacity:0.012" fill="#280804" d="M 410.5,8.5 C 409.833,7.16667 409.833,7.16667 410.5,8.5 Z"/></g>
<g><path style="opacity:0.012" fill="#280804" d="M 312.5,8.5 C 313.833,9.16667 313.833,9.16667 312.5,8.5 Z"/></g>
<g><path style="opacity:0.024" fill="#2f0d02" d="M 410.5,8.5 C 411.833,9.16667 411.833,9.16667 410.5,8.5 Z"/></g>
<g><path style="opacity:0.012" fill="#280804" d="M 413.5,10.5 C 414.833,11.1667 414.833,11.1667 413.5,10.5 Z"/></g>
<g><path style="opacity:0.012" fill="#290804" d="M 415.5,12.5 C 417.288,11.3775 419.288,11.2109 421.5,12C 419.527,12.4955 417.527,12.6621 415.5,12.5 Z"/></g>
<g><path style="opacity:0.012" fill="#2b0904" d="M 423.5,13.5 C 423.897,12.475 424.563,12.3083 425.5,13C 424.906,13.4643 424.239,13.631 423.5,13.5 Z"/></g>
<g><path style="opacity:0.012" fill="#280804" d="M 426.5,13.5 C 427.833,14.1667 427.833,14.1667 426.5,13.5 Z"/></g>
<g><path style="opacity:0.024" fill="#2f0d02" d="M 428.5,14.5 C 429.833,15.1667 429.833,15.1667 428.5,14.5 Z"/></g>
<g><path style="opacity:0.012" fill="#280804" d="M 302.5,15.5 C 303.833,16.1667 303.833,16.1667 302.5,15.5 Z"/></g>
<g><path style="opacity:0.012" fill="#280804" d="M 431.5,16.5 C 432.833,17.1667 432.833,17.1667 431.5,16.5 Z"/></g>
<g><path style="opacity:0.012" fill="#280804" d="M 433.5,17.5 C 434.833,18.1667 434.833,18.1667 433.5,17.5 Z"/></g>
<g><path style="opacity:1" fill="#8d4c33" d="M 463.5,70.5 C 464.833,75.1667 464.833,79.8333 463.5,84.5C 461.49,81.9725 458.823,80.1392 455.5,79C 451.638,75.7992 448.472,71.9659 446,67.5C 445.329,66.7476 444.496,66.4142 443.5,66.5C 429.714,57.2057 414.381,51.8724 397.5,50.5C 394.933,49.525 392.267,48.8583 389.5,48.5C 379.648,47.7865 369.648,47.1199 359.5,46.5C 358.584,46.5427 357.917,46.8761 357.5,47.5C 343.411,48.716 329.411,51.3827 315.5,55.5C 310.926,55.5154 306.76,57.182 303,60.5C 302.282,59.5494 301.449,59.3828 300.5,60C 297.963,62.5457 294.963,64.2124 291.5,65C 290.29,66.0391 289.29,67.2058 288.5,68.5C 286.821,68.8923 285.154,69.3923 283.5,70C 279.871,74.114 276.371,78.2807 273,82.5C 271.385,83.3862 269.885,84.3862 268.5,85.5C 268.334,79.8236 268.501,74.1569 269,68.5C 269.232,67.2625 269.732,66.2625 270.5,65.5C 270.369,66.2389 270.536,66.9056 271,67.5C 276.595,59.284 284.428,55.1173 294.5,55C 295.574,54.2613 296.241,53.2613 296.5,52C 294.813,49.7012 293.313,47.5346 292,45.5C 294.463,42.0354 297.296,38.8688 300.5,36C 304.548,32.2838 308.882,28.9504 313.5,26C 323.378,23.7056 333.378,23.0389 343.5,24C 344.097,22.1114 344.431,20.2781 344.5,18.5C 349.781,19.2861 355.115,19.7861 360.5,20C 368.028,23.7847 376.028,25.618 384.5,25.5C 384.739,23.5328 384.406,21.6995 383.5,20C 388.167,19.3333 392.833,19.3333 397.5,20C 401.759,21.9343 405.759,24.2677 409.5,27C 414.167,32.3333 418.833,37.6667 423.5,43C 426.351,44.2886 429.351,44.7886 432.5,44.5C 431.859,41.779 431.359,39.1123 431,36.5C 433.167,38 435.333,39.5 437.5,41C 442,47.5 446.5,54 451,60.5C 452.117,59.0506 452.784,57.3839 453,55.5C 455.845,59.8566 458.178,64.5232 460,69.5C 461,70.5 462,71.5 463,72.5C 463.464,71.9056 463.631,71.2389 463.5,70.5 Z"/></g>
<g><path style="opacity:0.012" fill="#280804" d="M 287.5,29.5 C 288.833,30.1667 288.833,30.1667 287.5,29.5 Z"/></g>
<g><path style="opacity:0.024" fill="#2f0d02" d="M 449.5,33.5 C 448.833,32.1667 448.833,32.1667 449.5,33.5 Z"/></g>
<g><path style="opacity:0.012" fill="#280804" d="M 449.5,33.5 C 450.833,34.1667 450.833,34.1667 449.5,33.5 Z"/></g>
<g><path style="opacity:0.012" fill="#280804" d="M 279.5,38.5 C 280.833,39.1667 280.833,39.1667 279.5,38.5 Z"/></g>
<g><path style="opacity:1" fill="#feb7a9" d="M 357.5,47.5 C 368.128,48.4296 378.795,48.763 389.5,48.5C 392.267,48.8583 394.933,49.525 397.5,50.5C 400.766,57.8014 403.933,65.1348 407,72.5C 414.843,93.1585 412.676,112.492 400.5,130.5C 399.18,131.942 397.514,132.608 395.5,132.5C 389.985,132.621 384.652,132.621 379.5,132.5C 378.702,132.957 378.369,133.624 378.5,134.5C 377.778,134.918 377.278,135.584 377,136.5C 376.333,140.5 376.333,144.5 377,148.5C 379.674,159.035 381.507,169.701 382.5,180.5C 382.338,182.527 382.505,184.527 383,186.5C 384.188,185.437 384.688,184.103 384.5,182.5C 385.222,182.082 385.722,181.416 386,180.5C 388.892,183.057 392.059,185.224 395.5,187C 408.892,191.101 422.558,192.767 436.5,192C 442.406,190.963 447.573,188.463 452,184.5C 453,185.167 454,185.833 455,186.5C 457.402,195.4 456.735,204.067 453,212.5C 451.5,214 450,215.5 448.5,217C 443.833,218.667 439.167,220.333 434.5,222C 432.641,223.558 431.141,225.391 430,227.5C 429.087,239.511 429.921,251.345 432.5,263C 432.272,263.399 431.938,263.565 431.5,263.5C 422.331,252.725 411.664,243.558 399.5,236C 395.17,234.836 390.837,233.67 386.5,232.5C 382.014,233.897 377.514,235.23 373,236.5C 368.064,234.68 362.898,233.68 357.5,233.5C 352.577,233.804 347.911,234.971 343.5,237C 338.955,239.766 334.622,242.766 330.5,246C 324.179,251.811 318.679,258.311 314,265.5C 312.247,266.627 310.413,267.627 308.5,268.5C 302.314,264.706 297.314,259.706 293.5,253.5C 292.675,252.614 291.675,252.281 290.5,252.5C 289.235,249.537 287.902,246.537 286.5,243.5C 283.913,240.261 281.413,236.928 279,233.5C 276.215,227.377 273.881,221.043 272,214.5C 270.359,212.16 268.859,209.827 267.5,207.5C 266.861,198.469 266.194,189.469 265.5,180.5C 267.797,172.977 268.13,165.31 266.5,157.5C 267.411,144.688 271.911,133.354 280,123.5C 278.672,110.071 279.339,96.7381 282,83.5C 283.631,78.2408 285.798,73.2408 288.5,68.5C 289.29,67.2058 290.29,66.0391 291.5,65C 294.963,64.2124 297.963,62.5457 300.5,60C 301.449,59.3828 302.282,59.5494 303,60.5C 306.76,57.182 310.926,55.5154 315.5,55.5C 329.411,51.3827 343.411,48.716 357.5,47.5 Z"/></g>
<g><path style="opacity:1" fill="#bc7a6c" d="M 357.5,47.5 C 357.917,46.8761 358.584,46.5427 359.5,46.5C 369.648,47.1199 379.648,47.7865 389.5,48.5C 378.795,48.763 368.128,48.4296 357.5,47.5 Z"/></g>
<g><path style="opacity:1" fill="#f0a99f" d="M 397.5,50.5 C 414.381,51.8724 429.714,57.2057 443.5,66.5C 451.149,82.6856 453.982,99.6856 452,117.5C 458.271,125.037 463.271,133.37 467,142.5C 468.76,152.814 470.26,163.147 471.5,173.5C 469.868,180.044 469.201,186.711 469.5,193.5C 469.5,198.167 469.5,202.833 469.5,207.5C 467.441,215.94 465.107,224.273 462.5,232.5C 458.059,243.893 452.059,254.226 444.5,263.5C 442.054,265.019 439.721,266.686 437.5,268.5C 434.595,267.795 432.595,266.128 431.5,263.5C 431.938,263.565 432.272,263.399 432.5,263C 429.921,251.345 429.087,239.511 430,227.5C 431.141,225.391 432.641,223.558 434.5,222C 439.167,220.333 443.833,218.667 448.5,217C 450,215.5 451.5,214 453,212.5C 456.735,204.067 457.402,195.4 455,186.5C 454,185.833 453,185.167 452,184.5C 447.573,188.463 442.406,190.963 436.5,192C 422.558,192.767 408.892,191.101 395.5,187C 392.059,185.224 388.892,183.057 386,180.5C 385.722,181.416 385.222,182.082 384.5,182.5C 384.5,182.167 384.5,181.833 384.5,181.5C 384.676,168.878 382.843,156.545 379,144.5C 378.502,141.183 378.335,137.85 378.5,134.5C 378.369,133.624 378.702,132.957 379.5,132.5C 384.652,132.621 389.985,132.621 395.5,132.5C 393.923,136.197 394.256,139.697 396.5,143C 397.5,143.333 398.5,143.667 399.5,144C 412.178,143.328 424.845,142.662 437.5,142C 443.622,143.698 448.955,146.698 453.5,151C 454.793,151.49 456.127,151.657 457.5,151.5C 457.741,148.206 456.908,145.206 455,142.5C 446.061,132.38 434.727,128.047 421,129.5C 414.168,129.924 407.334,130.258 400.5,130.5C 412.676,112.492 414.843,93.1585 407,72.5C 403.933,65.1348 400.766,57.8014 397.5,50.5 Z"/></g>
<g><path style="opacity:0.024" fill="#2d0b03" d="M 465.5,57.5 C 465.369,56.7611 465.536,56.0944 466,55.5C 466.692,56.4368 466.525,57.1034 465.5,57.5 Z"/></g>
<g><path style="opacity:0.024" fill="#2f0d02" d="M 263.5,61.5 C 264.833,62.1667 264.833,62.1667 263.5,61.5 Z"/></g>
<g><path style="opacity:0.024" fill="#2d0b03" d="M 467.5,62.5 C 467.369,61.7611 467.536,61.0944 468,60.5C 468.692,61.4368 468.525,62.1034 467.5,62.5 Z"/></g>
<g><path style="opacity:0.012" fill="#280804" d="M 263.5,65.5 C 262.475,65.1034 262.308,64.4368 263,63.5C 263.464,64.0944 263.631,64.7611 263.5,65.5 Z"/></g>
<g><path style="opacity:0.012" fill="#280804" d="M 469.5,65.5 C 469.167,65.5 468.833,65.5 468.5,65.5C 468.833,62.8333 469.167,62.8333 469.5,65.5 Z"/></g>
<g><path style="opacity:0.012" fill="#280804" d="M 469.5,65.5 C 470.525,65.8966 470.692,66.5632 470,67.5C 469.536,66.9056 469.369,66.2389 469.5,65.5 Z"/></g>
<g><path style="opacity:0.024" fill="#2c0a03" d="M 261.5,66.5 C 262.573,67.2506 262.74,68.2506 262,69.5C 261.517,68.552 261.351,67.552 261.5,66.5 Z"/></g>
<g><path style="opacity:0.012" fill="#280804" d="M 470.5,68.5 C 471.598,69.6009 471.765,70.9343 471,72.5C 470.51,71.2068 470.343,69.8734 470.5,68.5 Z"/></g>
<g><path style="opacity:1" fill="#d58f7d" d="M 288.5,68.5 C 285.798,73.2408 283.631,78.2408 282,83.5C 279.339,96.7381 278.672,110.071 280,123.5C 271.911,133.354 267.411,144.688 266.5,157.5C 268.13,165.31 267.797,172.977 265.5,180.5C 263.395,174.932 261.228,169.265 259,163.5C 255.69,144.497 255.69,125.497 259,106.5C 260.155,99.6983 262.488,93.365 266,87.5C 267.813,88.6091 268.646,87.9424 268.5,85.5C 269.885,84.3862 271.385,83.3862 273,82.5C 276.371,78.2807 279.871,74.114 283.5,70C 285.154,69.3923 286.821,68.8923 288.5,68.5 Z"/></g>
<g><path style="opacity:1" fill="#cd8678" d="M 443.5,66.5 C 444.496,66.4142 445.329,66.7476 446,67.5C 448.472,71.9659 451.638,75.7992 455.5,79C 458.823,80.1392 461.49,81.9725 463.5,84.5C 463.5,85.5 463.5,86.5 463.5,87.5C 464.822,87.33 465.989,87.6634 467,88.5C 468,91.5 469,94.5 470,97.5C 475.407,122.862 475.907,148.196 471.5,173.5C 470.26,163.147 468.76,152.814 467,142.5C 463.271,133.37 458.271,125.037 452,117.5C 453.982,99.6856 451.149,82.6856 443.5,66.5 Z"/></g>
<g><path style="opacity:0.012" fill="#290804" d="M 260.5,71.5 C 261.641,74.6399 261.808,77.9733 261,81.5C 260.502,78.1832 260.335,74.8499 260.5,71.5 Z"/></g>
<g><path style="opacity:0.012" fill="#280804" d="M 470.5,82.5 C 470.34,80.8008 470.506,79.1341 471,77.5C 471.78,79.3869 471.613,81.0536 470.5,82.5 Z"/></g>
<g><path style="opacity:0.012" fill="#280804" d="M 260.5,83.5 C 259.833,82.1667 259.833,82.1667 260.5,83.5 Z"/></g>
<g><path style="opacity:0.024" fill="#2f0d02" d="M 259.5,85.5 C 258.833,84.1667 258.833,84.1667 259.5,85.5 Z"/></g>
<g><path style="opacity:0.024" fill="#2d0b03" d="M 472.5,86.5 C 472.369,85.7611 472.536,85.0944 473,84.5C 473.692,85.4368 473.525,86.1034 472.5,86.5 Z"/></g>
<g><path style="opacity:0.012" fill="#280804" d="M 257.5,86.5 C 258.833,87.1667 258.833,87.1667 257.5,86.5 Z"/></g>
<g><path style="opacity:0.012" fill="#280804" d="M 473.5,87.5 C 474.833,88.1667 474.833,88.1667 473.5,87.5 Z"/></g>
<g><path style="opacity:0.012" fill="#280804" d="M 257.5,90.5 C 257.167,90.5 256.833,90.5 256.5,90.5C 256.833,87.8333 257.167,87.8333 257.5,90.5 Z"/></g>
<g><path style="opacity:0.012" fill="#280804" d="M 474.5,91.5 C 474.369,90.7611 474.536,90.0944 475,89.5C 475.692,90.4368 475.525,91.1034 474.5,91.5 Z"/></g>
<g><path style="opacity:0.024" fill="#2d0b03" d="M 256.5,90.5 C 256.631,91.2389 256.464,91.9056 256,92.5C 255.308,91.5632 255.475,90.8966 256.5,90.5 Z"/></g>
<g><path style="opacity:0.012" fill="#280804" d="M 475.5,92.5 C 476.525,92.8966 476.692,93.5632 476,94.5C 475.536,93.9056 475.369,93.2389 475.5,92.5 Z"/></g>
<g><path style="opacity:0.012" fill="#280804" d="M 476.5,98.5 C 476.351,97.448 476.517,96.448 477,95.5C 477.74,96.7494 477.573,97.7494 476.5,98.5 Z"/></g>
<g><path style="opacity:0.012" fill="#280804" d="M 477.5,99.5 C 478.573,100.251 478.74,101.251 478,102.5C 477.517,101.552 477.351,100.552 477.5,99.5 Z"/></g>
<g><path style="opacity:0.012" fill="#280804" d="M 252.5,100.5 C 253.573,101.251 253.74,102.251 253,103.5C 252.517,102.552 252.351,101.552 252.5,100.5 Z"/></g>
<g><path style="opacity:0.012" fill="#2a0904" d="M 251.5,104.5 C 252.598,105.601 252.765,106.934 252,108.5C 251.51,107.207 251.343,105.873 251.5,104.5 Z"/></g>
<g><path style="opacity:0.012" fill="#280804" d="M 478.5,104.5 C 479.598,105.601 479.765,106.934 479,108.5C 478.51,107.207 478.343,105.873 478.5,104.5 Z"/></g>
<g><path style="opacity:0.012" fill="#280804" d="M 479.5,116.5 C 479.338,114.473 479.505,112.473 480,110.5C 480.789,112.712 480.622,114.712 479.5,116.5 Z"/></g>
<g><path style="opacity:0.012" fill="#290804" d="M 250.5,110.5 C 251.613,111.946 251.78,113.613 251,115.5C 250.506,113.866 250.34,112.199 250.5,110.5 Z"/></g>
<g><path style="opacity:0.012" fill="#280804" d="M 480.5,118.5 C 481.645,122.311 481.812,126.311 481,130.5C 480.501,126.514 480.334,122.514 480.5,118.5 Z"/></g>
<g><path style="opacity:0.012" fill="#290804" d="M 249.5,117.5 C 250.647,121.646 250.814,125.98 250,130.5C 249.501,126.179 249.334,121.846 249.5,117.5 Z"/></g>
<g><path style="opacity:1" fill="#ed967f" d="M 347.5,135.5 C 347.926,139.499 346.259,141.999 342.5,143C 329.757,142.698 317.09,142.031 304.5,141C 302.212,141.822 299.878,142.489 297.5,143C 294.227,147.468 289.893,149.968 284.5,150.5C 285.224,145.158 287.557,140.658 291.5,137C 294.009,135.579 296.343,133.912 298.5,132C 301.595,131.286 304.595,130.286 307.5,129C 318.846,128.593 330.18,128.926 341.5,130C 344.788,130.566 346.788,132.4 347.5,135.5 Z"/></g>
<g><path style="opacity:1" fill="#ed967f" d="M 395.5,132.5 C 397.514,132.608 399.18,131.942 400.5,130.5C 407.334,130.258 414.168,129.924 421,129.5C 434.727,128.047 446.061,132.38 455,142.5C 456.908,145.206 457.741,148.206 457.5,151.5C 456.127,151.657 454.793,151.49 453.5,151C 448.955,146.698 443.622,143.698 437.5,142C 424.845,142.662 412.178,143.328 399.5,144C 398.5,143.667 397.5,143.333 396.5,143C 394.256,139.697 393.923,136.197 395.5,132.5 Z"/></g>
<g><path style="opacity:0.012" fill="#290804" d="M 249.5,137.5 C 250.648,141.981 250.815,146.648 250,151.5C 249.501,146.845 249.334,142.179 249.5,137.5 Z"/></g>
<g><path style="opacity:1" fill="#eda79d" d="M 347.5,135.5 C 349.015,144.933 351.515,154.267 355,163.5C 356.865,175.957 351.698,183.457 339.5,186C 329.942,186.366 320.442,185.866 311,184.5C 304.049,184.43 297.215,185.097 290.5,186.5C 288.167,186.167 285.833,185.833 283.5,185.5C 287.344,183.078 291.01,180.411 294.5,177.5C 291.174,175.006 288.34,172.006 286,168.5C 284.639,162.593 284.139,156.593 284.5,150.5C 289.893,149.968 294.227,147.468 297.5,143C 299.878,142.489 302.212,141.822 304.5,141C 317.09,142.031 329.757,142.698 342.5,143C 346.259,141.999 347.926,139.499 347.5,135.5 Z"/></g>
<g><path style="opacity:1" fill="#1b1310" d="M 321.5,148.5 C 329.621,148.195 336.955,150.361 343.5,155C 340.474,154.436 337.474,153.436 334.5,152C 321.871,149.32 311.537,152.987 303.5,163C 302.833,163.667 302.167,163.667 301.5,163C 306.648,155.94 313.314,151.106 321.5,148.5 Z"/></g>
<g><path style="opacity:0.012" fill="#280804" d="M 480.5,149.5 C 481.647,153.646 481.814,157.98 481,162.5C 480.501,158.179 480.334,153.846 480.5,149.5 Z"/></g>
<g><path style="opacity:1" fill="#150d0a" d="M 409.5,150.5 C 420.094,148.644 429.094,151.477 436.5,159C 432.461,156.82 428.127,154.82 423.5,153C 413.306,151.298 404.306,153.798 396.5,160.5C 396.167,160.333 395.833,160.167 395.5,160C 399.545,155.766 404.212,152.599 409.5,150.5 Z"/></g>
<g><path style="opacity:0.012" fill="#280804" d="M 250.5,153.5 C 251.622,155.288 251.789,157.288 251,159.5C 250.505,157.527 250.338,155.527 250.5,153.5 Z"/></g>
<g><path style="opacity:1" fill="#1c110c" d="M 410.5,156.5 C 422.292,156.232 431.958,160.565 439.5,169.5C 432.331,173.21 424.664,175.21 416.5,175.5C 408.779,174.152 401.113,172.652 393.5,171C 392.572,170.612 391.905,169.945 391.5,169C 392.439,167.056 393.773,165.389 395.5,164C 400.292,160.937 405.292,158.437 410.5,156.5 Z"/></g>
<g><path style="opacity:1" fill="#5c5d71" d="M 410.5,162.5 C 410.232,164.099 410.566,165.432 411.5,166.5C 414.825,170.83 417.491,170.497 419.5,165.5C 416.448,160.552 417.448,159.552 422.5,162.5C 423.695,170.136 420.362,173.302 412.5,172C 408.293,169.228 407.627,166.061 410.5,162.5 Z"/></g>
<g><path style="opacity:0.012" fill="#2a0904" d="M 251.5,161.5 C 252.598,162.601 252.765,163.934 252,165.5C 251.51,164.207 251.343,162.873 251.5,161.5 Z"/></g>
<g><path style="opacity:1" fill="#1c120c" d="M 321.5,157.5 C 332.662,156.389 342.495,159.389 351,166.5C 351.49,167.793 351.657,169.127 351.5,170.5C 348.482,170.335 345.482,170.502 342.5,171C 329.71,178.173 317.043,178.173 304.5,171C 309.084,165.053 314.75,160.553 321.5,157.5 Z"/></g>
<g><path style="opacity:1" fill="#5b5d73" d="M 323.5,163.5 C 320.116,164.244 319.782,165.577 322.5,167.5C 324.011,169.441 326.011,169.941 328.5,169C 331.167,166.667 331.167,164.333 328.5,162C 330.107,162.019 331.774,162.185 333.5,162.5C 334.284,170.885 330.617,174.051 322.5,172C 316.94,167.513 317.273,164.013 323.5,161.5C 324.463,161.97 324.463,162.637 323.5,163.5 Z"/></g>
<g><path style="opacity:1" fill="#e0e0df" d="M 410.5,162.5 C 412.252,162.418 413.252,163.251 413.5,165C 413.164,166.03 412.497,166.53 411.5,166.5C 410.566,165.432 410.232,164.099 410.5,162.5 Z"/></g>
<g><path style="opacity:1" fill="#dadad9" d="M 323.5,163.5 C 324.11,164.391 324.443,165.391 324.5,166.5C 323.833,166.833 323.167,167.167 322.5,167.5C 319.782,165.577 320.116,164.244 323.5,163.5 Z"/></g>
<g><path style="opacity:1" fill="#666361" d="M 337.5,161.5 C 336.833,163.5 336.167,165.5 335.5,167.5C 335.192,165.076 335.526,162.743 336.5,160.5C 337.107,160.624 337.44,160.957 337.5,161.5 Z"/></g>
<g><path style="opacity:1" fill="#dddcdc" d="M 337.5,161.5 C 343.853,162.784 344.853,165.617 340.5,170C 338.35,171.59 336.017,172.257 333.5,172C 335.037,170.89 335.703,169.39 335.5,167.5C 336.167,165.5 336.833,163.5 337.5,161.5 Z"/></g>
<g><path style="opacity:1" fill="#999796" d="M 406.5,166.5 C 403.388,163.872 401.055,164.539 399.5,168.5C 398.427,167.749 398.26,166.749 399,165.5C 401.185,163.46 403.685,162.126 406.5,161.5C 406.5,163.167 406.5,164.833 406.5,166.5 Z"/></g>
<g><path style="opacity:1" fill="#e7e6e6" d="M 406.5,166.5 C 406.905,168.65 407.405,170.65 408,172.5C 405.095,171.297 402.262,169.964 399.5,168.5C 401.055,164.539 403.388,163.872 406.5,166.5 Z"/></g>
<g><path style="opacity:1" fill="#dfdede" d="M 425.5,161.5 C 430.572,163.034 432.239,166.2 430.5,171C 427.923,172.25 425.257,172.584 422.5,172C 424.929,168.959 425.929,165.459 425.5,161.5 Z"/></g>
<g><path style="opacity:0.012" fill="#290804" d="M 479.5,164.5 C 480.5,165.5 481.5,166.5 482.5,167.5C 481.508,167.328 480.842,167.662 480.5,168.5C 479.566,167.432 479.232,166.099 479.5,164.5 Z"/></g>
<g><path style="opacity:0.012" fill="#280804" d="M 252.5,166.5 C 253.525,166.897 253.692,167.563 253,168.5C 252.536,167.906 252.369,167.239 252.5,166.5 Z"/></g>
<g><path style="opacity:1" fill="#dbdada" d="M 314.5,163.5 C 316.329,166.225 317.995,169.225 319.5,172.5C 315.417,174.125 312.417,172.958 310.5,169C 311.65,167.019 312.984,165.186 314.5,163.5 Z"/></g>
<g><path style="opacity:1" fill="#9b9998" d="M 324.5,166.5 C 326.337,166.639 326.67,167.306 325.5,168.5C 324.702,168.043 324.369,167.376 324.5,166.5 Z"/></g>
<g><path style="opacity:1" fill="#1f130d" d="M 378.5,134.5 C 378.335,137.85 378.502,141.183 379,144.5C 382.843,156.545 384.676,168.878 384.5,181.5C 383.833,181.167 383.167,180.833 382.5,180.5C 381.507,169.701 379.674,159.035 377,148.5C 376.333,144.5 376.333,140.5 377,136.5C 377.278,135.584 377.778,134.918 378.5,134.5 Z"/></g>
<g><path style="opacity:0.012" fill="#280804" d="M 245.5,170.5 C 246.251,169.427 247.251,169.26 248.5,170C 247.552,170.483 246.552,170.649 245.5,170.5 Z"/></g>
<g><path style="opacity:0.012" fill="#280804" d="M 494.5,172.5 C 494.369,171.761 494.536,171.094 495,170.5C 495.692,171.437 495.525,172.103 494.5,172.5 Z"/></g>
<g><path style="opacity:0.024" fill="#2e0c03" d="M 253.5,173.5 C 253.56,172.957 253.893,172.624 254.5,172.5C 255.773,173.257 255.773,173.923 254.5,174.5C 253.833,174.5 253.5,174.167 253.5,173.5 Z"/></g>
<g><path style="opacity:0.012" fill="#280804" d="M 495.5,173.5 C 496.573,174.251 496.74,175.251 496,176.5C 495.517,175.552 495.351,174.552 495.5,173.5 Z"/></g>
<g><path style="opacity:0.012" fill="#280804" d="M 237.5,174.5 C 238.833,175.167 238.833,175.167 237.5,174.5 Z"/></g>
<g><path style="opacity:1" fill="#eeab9e" d="M 488.5,179.5 C 487.508,179.328 486.842,179.662 486.5,180.5C 481.104,183.399 477.27,187.733 475,193.5C 474.172,188.798 474.338,184.131 475.5,179.5C 478.853,177.823 481.853,175.657 484.5,173C 489.215,173.051 490.548,175.218 488.5,179.5 Z"/></g>
<g><path style="opacity:0.012" fill="#280804" d="M 237.5,177.5 C 236.833,176.167 236.833,176.167 237.5,177.5 Z"/></g>
<g><path style="opacity:0.012" fill="#280804" d="M 235.5,178.5 C 236.525,178.897 236.692,179.563 236,180.5C 235.536,179.906 235.369,179.239 235.5,178.5 Z"/></g>
<g><path style="opacity:1" fill="#251a18" d="M 402.5,178.5 C 402.917,177.876 403.584,177.543 404.5,177.5C 407.367,178.774 410.367,179.607 413.5,180C 409.643,180.758 405.977,180.258 402.5,178.5 Z"/></g>
<g><path style="opacity:1" fill="#eeab9f" d="M 244.5,177.5 C 246.199,177.34 247.866,177.506 249.5,178C 253.003,180.832 256.836,182.999 261,184.5C 261.667,188.5 261.667,192.5 261,196.5C 257.249,189.583 251.749,184.583 244.5,181.5C 243.374,180.192 243.374,178.858 244.5,177.5 Z"/></g>
<g><path style="opacity:1" fill="#60413a" d="M 331.5,179.5 C 333.966,178.366 336.633,178.199 339.5,179C 336.954,180.812 334.288,180.978 331.5,179.5 Z"/></g>
<g><path style="opacity:0.012" fill="#280804" d="M 495.5,180.5 C 496.634,182.966 496.801,185.633 496,188.5C 495.503,185.854 495.336,183.187 495.5,180.5 Z"/></g>
<g><path style="opacity:1" fill="#81564d" d="M 486.5,180.5 C 486.842,179.662 487.508,179.328 488.5,179.5C 489.742,181.611 489.742,183.611 488.5,185.5C 488.768,183.901 488.434,182.568 487.5,181.5C 487.5,180.833 487.167,180.5 486.5,180.5 Z"/></g>
<g><path style="opacity:0.012" fill="#280804" d="M 235.5,196.5 C 234.352,192.019 234.185,187.352 235,182.5C 235.499,187.155 235.666,191.821 235.5,196.5 Z"/></g>
<g><path style="opacity:1" fill="#7d5248" d="M 382.5,180.5 C 383.167,180.833 383.833,181.167 384.5,181.5C 384.5,181.833 384.5,182.167 384.5,182.5C 384.688,184.103 384.188,185.437 383,186.5C 382.505,184.527 382.338,182.527 382.5,180.5 Z"/></g>
<g><path style="opacity:1" fill="#f0aa9f" d="M 266.5,221.5 C 266.507,232.262 267.173,242.929 268.5,253.5C 262.676,253.523 258.509,250.856 256,245.5C 251.277,235.329 246.943,224.996 243,214.5C 242.168,203.818 242.334,193.151 243.5,182.5C 256.104,192.726 263.771,205.726 266.5,221.5 Z"/></g>
<g><path style="opacity:1" fill="#eea89d" d="M 487.5,181.5 C 488.434,182.568 488.768,183.901 488.5,185.5C 488.318,200.557 487.485,215.557 486,230.5C 483.333,236.5 480.667,242.5 478,248.5C 476.13,250.219 473.963,251.219 471.5,251.5C 470.903,251.265 470.57,250.765 470.5,250C 471.316,240.854 471.983,231.687 472.5,222.5C 473.419,212.689 475.586,203.022 479,193.5C 480.92,188.764 483.753,184.764 487.5,181.5 Z"/></g>
<g><path style="opacity:0.012" fill="#280804" d="M 494.5,196.5 C 495.657,204.656 495.823,212.99 495,221.5C 494.5,213.173 494.334,204.84 494.5,196.5 Z"/></g>
<g><path style="opacity:0.012" fill="#280804" d="M 234.5,200.5 C 235.641,203.64 235.808,206.973 235,210.5C 234.502,207.183 234.335,203.85 234.5,200.5 Z"/></g>
<g><path style="opacity:1" fill="#9f6b5f" d="M 469.5,193.5 C 470.266,198.363 470.932,203.363 471.5,208.5C 470.833,208.167 470.167,207.833 469.5,207.5C 469.5,202.833 469.5,198.167 469.5,193.5 Z"/></g>
<g><path style="opacity:1" fill="#e9a49a" d="M 387.5,201.5 C 387.755,204.016 388.589,206.35 390,208.5C 398.133,215.329 398.633,221.996 391.5,228.5C 385.865,227.895 380.198,228.561 374.5,230.5C 373.167,230.333 371.833,230.167 370.5,230C 372.167,229.667 373.833,229.333 375.5,229C 373.618,228.802 371.952,228.302 370.5,227.5C 377.356,227.571 382.023,224.404 384.5,218C 390.291,217.679 390.624,216.846 385.5,215.5C 382.089,217.403 379.089,219.903 376.5,223C 373.833,223.667 371.167,223.667 368.5,223C 366.129,220.294 363.463,217.961 360.5,216C 358.711,215.48 357.044,215.813 355.5,217C 356.833,217.333 358.167,217.667 359.5,218C 362.086,222.062 365.42,225.228 369.5,227.5C 366.082,228.188 362.749,229.188 359.5,230.5C 357.283,230.122 355.283,229.455 353.5,228.5C 354.239,228.631 354.906,228.464 355.5,228C 350.508,224.843 348.675,220.343 350,214.5C 353.351,210.48 355.851,205.98 357.5,201C 357.43,200.235 357.097,199.735 356.5,199.5C 356.783,198.711 357.283,198.044 358,197.5C 358.774,201.147 359.441,204.814 360,208.5C 361.353,207.315 362.52,205.981 363.5,204.5C 364.548,214.733 369.881,218.233 379.5,215C 383.212,212.398 384.378,208.898 383,204.5C 381.833,202.167 380.667,199.833 379.5,197.5C 379.833,197.167 380.167,196.833 380.5,196.5C 382.729,197.577 385.063,198.244 387.5,198.5C 387.5,199.5 387.5,200.5 387.5,201.5 Z"/></g>
<g><path style="opacity:1" fill="#20130d" d="M 356.5,199.5 C 357.097,199.735 357.43,200.235 357.5,201C 355.851,205.98 353.351,210.48 350,214.5C 348.675,220.343 350.508,224.843 355.5,228C 354.906,228.464 354.239,228.631 353.5,228.5C 346.737,225.046 344.57,219.713 347,212.5C 350.796,208.551 353.963,204.217 356.5,199.5 Z"/></g>
<g><path style="opacity:0.012" fill="#280804" d="M 235.5,212.5 C 236.573,213.251 236.74,214.251 236,215.5C 235.517,214.552 235.351,213.552 235.5,212.5 Z"/></g>
<g><path style="opacity:0.998" fill="#c56536" d="M 267.5,207.5 C 268.859,209.827 270.359,212.16 272,214.5C 273.881,221.043 276.215,227.377 279,233.5C 281.413,236.928 283.913,240.261 286.5,243.5C 287.902,246.537 289.235,249.537 290.5,252.5C 291.675,252.281 292.675,252.614 293.5,253.5C 297.314,259.706 302.314,264.706 308.5,268.5C 310.413,267.627 312.247,266.627 314,265.5C 318.679,258.311 324.179,251.811 330.5,246C 334.622,242.766 338.955,239.766 343.5,237C 347.911,234.971 352.577,233.804 357.5,233.5C 362.898,233.68 368.064,234.68 373,236.5C 377.514,235.23 382.014,233.897 386.5,232.5C 390.837,233.67 395.17,234.836 399.5,236C 411.664,243.558 422.331,252.725 431.5,263.5C 432.595,266.128 434.595,267.795 437.5,268.5C 439.721,266.686 442.054,265.019 444.5,263.5C 452.059,254.226 458.059,243.893 462.5,232.5C 465.107,224.273 467.441,215.94 469.5,207.5C 470.167,207.833 470.833,208.167 471.5,208.5C 472.441,213.07 472.774,217.737 472.5,222.5C 471.983,231.687 471.316,240.854 470.5,250C 470.57,250.765 470.903,251.265 471.5,251.5C 471.325,253.621 471.659,255.621 472.5,257.5C 471.517,261.298 471.183,265.298 471.5,269.5C 470.711,269.783 470.044,270.283 469.5,271C 470.034,274.398 470.034,277.898 469.5,281.5C 468.662,281.842 468.328,282.508 468.5,283.5C 467.527,285.948 467.194,288.615 467.5,291.5C 465.99,295.858 464.323,300.191 462.5,304.5C 461.542,304.953 460.708,305.619 460,306.5C 459.536,311.096 458.203,315.429 456,319.5C 455,319.833 454,320.167 453,320.5C 452.308,323.936 451.308,327.27 450,330.5C 449.346,331.696 448.846,331.696 448.5,330.5C 449.326,329.549 449.492,328.549 449,327.5C 447.733,330.275 446.233,332.941 444.5,335.5C 440.408,339.089 436.408,342.922 432.5,347C 429.827,346.563 427.66,347.73 426,350.5C 425.667,350.167 425.333,349.833 425,349.5C 422.68,352.016 420.013,353.016 417,352.5C 415.01,356.49 411.843,358.99 407.5,360C 405.985,362.623 403.985,363.623 401.5,363C 399.191,365.487 396.524,367.487 393.5,369C 377.038,373.24 360.705,372.573 344.5,367C 337.151,361.646 329.818,356.313 322.5,351C 320.5,350.333 318.5,349.667 316.5,349C 310.912,344.678 305.579,340.012 300.5,335C 299.234,334.691 298.067,334.191 297,333.5C 294.769,328.934 291.769,324.934 288,321.5C 285.014,316.685 282.514,311.685 280.5,306.5C 279.062,302.882 277.729,299.215 276.5,295.5C 275.034,292.753 274.201,289.753 274,286.5C 273.333,285.167 272.667,285.167 272,286.5C 271.821,282.975 271.321,279.641 270.5,276.5C 269.55,273.932 269.55,271.432 270.5,269C 269.672,268.085 268.672,267.419 267.5,267C 268.649,264.541 268.649,262.041 267.5,259.5C 268.341,257.621 268.675,255.621 268.5,253.5C 267.173,242.929 266.507,232.262 266.5,221.5C 266.283,216.77 266.617,212.103 267.5,207.5 Z"/></g>
<g><path style="opacity:0.012" fill="#280804" d="M 237.5,216.5 C 237.631,217.239 237.464,217.906 237,218.5C 236.308,217.563 236.475,216.897 237.5,216.5 Z"/></g>
<g><path style="opacity:0.012" fill="#280804" d="M 238.5,219.5 C 238.631,220.239 238.464,220.906 238,221.5C 237.308,220.563 237.475,219.897 238.5,219.5 Z"/></g>
<g><path style="opacity:1" fill="#20140f" d="M 387.5,201.5 C 391.775,204.945 395.609,208.945 399,213.5C 401.205,221.092 398.705,226.092 391.5,228.5C 398.633,221.996 398.133,215.329 390,208.5C 388.589,206.35 387.755,204.016 387.5,201.5 Z"/></g>
<g><path style="opacity:0.012" fill="#280804" d="M 493.5,223.5 C 494.598,224.601 494.765,225.934 494,227.5C 493.51,226.207 493.343,224.873 493.5,223.5 Z"/></g>
<g><path style="opacity:0.012" fill="#280804" d="M 240.5,224.5 C 240.631,225.239 240.464,225.906 240,226.5C 239.308,225.563 239.475,224.897 240.5,224.5 Z"/></g>
<g><path style="opacity:1" fill="#1e120c" d="M 370.5,227.5 C 370.167,227.5 369.833,227.5 369.5,227.5C 365.42,225.228 362.086,222.062 359.5,218C 358.167,217.667 356.833,217.333 355.5,217C 357.044,215.813 358.711,215.48 360.5,216C 363.463,217.961 366.129,220.294 368.5,223C 371.167,223.667 373.833,223.667 376.5,223C 379.089,219.903 382.089,217.403 385.5,215.5C 390.624,216.846 390.291,217.679 384.5,218C 382.023,224.404 377.356,227.571 370.5,227.5 Z"/></g>
<g><path style="opacity:0.012" fill="#2b0904" d="M 241.5,229.5 C 240.475,229.103 240.308,228.437 241,227.5C 241.464,228.094 241.631,228.761 241.5,229.5 Z"/></g>
<g><path style="opacity:0.012" fill="#280804" d="M 492.5,228.5 C 493.573,229.251 493.74,230.251 493,231.5C 492.517,230.552 492.351,229.552 492.5,228.5 Z"/></g>
<g><path style="opacity:0.012" fill="#280804" d="M 241.5,229.5 C 241.833,229.5 242.167,229.5 242.5,229.5C 242.167,232.167 241.833,232.167 241.5,229.5 Z"/></g>
<g><path style="opacity:0.012" fill="#280804" d="M 491.5,232.5 C 492.525,232.897 492.692,233.563 492,234.5C 491.536,233.906 491.369,233.239 491.5,232.5 Z"/></g>
<g><path style="opacity:0.012" fill="#2b0904" d="M 243.5,232.5 C 243.631,233.239 243.464,233.906 243,234.5C 242.308,233.563 242.475,232.897 243.5,232.5 Z"/></g>
<g><path style="opacity:0.012" fill="#280804" d="M 244.5,237.5 C 243.475,237.103 243.308,236.437 244,235.5C 244.464,236.094 244.631,236.761 244.5,237.5 Z"/></g>
<g><path style="opacity:0.012" fill="#280804" d="M 490.5,235.5 C 491.833,236.167 491.833,236.167 490.5,235.5 Z"/></g>
<g><path style="opacity:0.012" fill="#280804" d="M 244.5,237.5 C 244.833,237.5 245.167,237.5 245.5,237.5C 245.167,240.167 244.833,240.167 244.5,237.5 Z"/></g>
<g><path style="opacity:0.012" fill="#280804" d="M 489.5,237.5 C 490.833,238.167 490.833,238.167 489.5,237.5 Z"/></g>
<g><path style="opacity:0.024" fill="#2f0d02" d="M 246.5,240.5 C 245.833,241.167 245.833,241.167 246.5,240.5 Z"/></g>
<g><path style="opacity:0.012" fill="#2b0904" d="M 488.5,239.5 C 489.833,240.167 489.833,240.833 488.5,241.5C 488.5,240.833 488.5,240.167 488.5,239.5 Z"/></g>
<g><path style="opacity:0.012" fill="#280804" d="M 487.5,241.5 C 487.833,241.5 488.167,241.5 488.5,241.5C 488.737,242.791 488.404,243.791 487.5,244.5C 487.5,243.5 487.5,242.5 487.5,241.5 Z"/></g>
<g><path style="opacity:0.012" fill="#2b0904" d="M 247.5,242.5 C 247.5,243.167 247.5,243.833 247.5,244.5C 246.167,243.833 246.167,243.167 247.5,242.5 Z"/></g>
<g><path style="opacity:0.024" fill="#2f0d02" d="M 247.5,244.5 C 247.833,244.5 248.167,244.5 248.5,244.5C 248.315,245.17 247.981,245.17 247.5,244.5 Z"/></g>
<g><path style="opacity:0.012" fill="#280804" d="M 486.5,244.5 C 486.833,244.5 487.167,244.5 487.5,244.5C 487.167,247.167 486.833,247.167 486.5,244.5 Z"/></g>
<g><path style="opacity:0.024" fill="#2f0d02" d="M 249.5,246.5 C 248.833,247.167 248.833,247.167 249.5,246.5 Z"/></g>
<g><path style="opacity:0.012" fill="#280804" d="M 485.5,247.5 C 486.833,248.167 486.833,248.167 485.5,247.5 Z"/></g>
<g><path style="opacity:0.012" fill="#280804" d="M 249.5,248.5 C 250.833,249.167 250.833,249.167 249.5,248.5 Z"/></g>
<g><path style="opacity:0.012" fill="#280804" d="M 484.5,249.5 C 485.833,250.167 485.833,250.167 484.5,249.5 Z"/></g>
<g><path style="opacity:0.012" fill="#280804" d="M 483.5,250.5 C 483.833,250.5 484.167,250.5 484.5,250.5C 484.315,251.17 483.981,251.17 483.5,250.5 Z"/></g>
<g><path style="opacity:0.012" fill="#280804" d="M 482.5,252.5 C 483.833,253.167 483.833,253.167 482.5,252.5 Z"/></g>
<g><path style="opacity:0.012" fill="#280804" d="M 481.5,253.5 C 481.833,253.5 482.167,253.5 482.5,253.5C 482.315,254.17 481.981,254.17 481.5,253.5 Z"/></g>
<g><path style="opacity:0.012" fill="#280804" d="M 481.5,254.5 C 480.833,255.167 480.833,255.167 481.5,254.5 Z"/></g>
<g><path style="opacity:0.012" fill="#280804" d="M 478.5,255.5 C 479.833,256.167 479.833,256.167 478.5,255.5 Z"/></g>
<g><path style="opacity:0.012" fill="#280804" d="M 257.5,256.5 C 257.5,256.833 257.5,257.167 257.5,257.5C 256.83,257.019 256.83,256.685 257.5,256.5 Z"/></g>
<g><path style="opacity:0.012" fill="#280804" d="M 476.5,256.5 C 477.167,256.5 477.833,256.5 478.5,256.5C 477.833,257.833 477.167,257.833 476.5,256.5 Z"/></g>
<g><path style="opacity:0.012" fill="#280804" d="M 257.5,257.5 C 258.833,258.167 258.833,258.167 257.5,257.5 Z"/></g>
<g><path style="opacity:0.012" fill="#280804" d="M 473.5,258.5 C 473.5,258.167 473.5,257.833 473.5,257.5C 476.167,257.833 476.167,258.167 473.5,258.5 Z"/></g>
<g><path style="opacity:0.012" fill="#280804" d="M 260.5,258.5 C 259.833,259.167 259.833,259.167 260.5,258.5 Z"/></g>
<g><path style="opacity:0.012" fill="#280804" d="M 473.5,258.5 C 472.833,259.167 472.833,259.167 473.5,258.5 Z"/></g>
<g><path style="opacity:0.012" fill="#280804" d="M 263.5,259.5 C 263.103,260.525 262.437,260.692 261.5,260C 262.094,259.536 262.761,259.369 263.5,259.5 Z"/></g>
<g><path style="opacity:0.024" fill="#2d0b03" d="M 264.5,261.5 C 264.897,260.475 265.563,260.308 266.5,261C 265.906,261.464 265.239,261.631 264.5,261.5 Z"/></g>
<g><path style="opacity:1" fill="#fbb4a6" d="M 389.5,277.5 C 390.167,277.167 390.833,276.833 391.5,276.5C 398.146,271.786 405.479,268.953 413.5,268C 410.794,265.324 407.794,263.158 404.5,261.5C 397.914,257.81 390.748,255.81 383,255.5C 376.326,256.713 369.66,256.713 363,255.5C 357.259,255.736 352.092,257.403 347.5,260.5C 345.692,260.491 344.025,260.991 342.5,262C 341.122,263.713 339.455,265.047 337.5,266C 335.963,267.11 335.297,268.61 335.5,270.5C 342.914,271.039 349.914,273.039 356.5,276.5C 356.833,276.5 357.167,276.5 357.5,276.5C 355.726,284.606 350.726,289.273 342.5,290.5C 338.774,289.009 334.941,287.676 331,286.5C 329.806,284.976 328.306,283.81 326.5,283C 325.306,273.052 328.973,265.386 337.5,260C 343.947,257.453 350.614,255.453 357.5,254C 366.172,254.53 374.839,254.363 383.5,253.5C 395.202,254.123 405.868,257.623 415.5,264C 422.267,270.499 423.433,277.666 419,285.5C 418.667,285.167 418.333,284.833 418,284.5C 412.706,286.108 407.873,288.108 403.5,290.5C 402.402,289.385 401.235,289.385 400,290.5C 398.5,289.5 397,288.5 395.5,287.5C 393.902,283.908 391.902,280.574 389.5,277.5 Z"/></g>
<g><path style="opacity:1" fill="#1c110c" d="M 404.5,261.5 C 393.943,257.996 383.276,257.663 372.5,260.5C 368.685,259.729 364.852,259.062 361,258.5C 356.481,259.104 351.981,259.771 347.5,260.5C 352.092,257.403 357.259,255.736 363,255.5C 369.66,256.713 376.326,256.713 383,255.5C 390.748,255.81 397.914,257.81 404.5,261.5 Z"/></g>
<g><path style="opacity:0.012" fill="#280804" d="M 472.5,261.5 C 473.629,263.628 473.796,265.961 473,268.5C 472.503,266.19 472.337,263.857 472.5,261.5 Z"/></g>
<g><path style="opacity:1" fill="#e58e87" d="M 404.5,261.5 C 407.794,263.158 410.794,265.324 413.5,268C 405.479,268.953 398.146,271.786 391.5,276.5C 379.871,276.457 368.205,276.457 356.5,276.5C 349.914,273.039 342.914,271.039 335.5,270.5C 335.297,268.61 335.963,267.11 337.5,266C 339.455,265.047 341.122,263.713 342.5,262C 344.025,260.991 345.692,260.491 347.5,260.5C 351.981,259.771 356.481,259.104 361,258.5C 364.852,259.062 368.685,259.729 372.5,260.5C 383.276,257.663 393.943,257.996 404.5,261.5 Z"/></g>
<g><path style="opacity:1" fill="#1f130d" d="M 353.5,263.5 C 365.336,264.618 377.169,264.618 389,263.5C 394.166,263.333 398.999,264.5 403.5,267C 388.548,267.346 373.548,267.179 358.5,266.5C 353.573,266.298 348.906,267.298 344.5,269.5C 343.833,269.333 343.167,269.167 342.5,269C 346.538,267.648 350.205,265.814 353.5,263.5 Z"/></g>
<g><path style="opacity:0.012" fill="#280804" d="M 471.5,269.5 C 472.833,270.167 472.833,270.167 471.5,269.5 Z"/></g>
<g><path style="opacity:0.012" fill="#280804" d="M 471.5,275.5 C 472.833,276.167 472.833,276.167 471.5,275.5 Z"/></g>
<g><path style="opacity:0.012" fill="#280804" d="M 270.5,276.5 C 270.662,278.527 270.495,280.527 270,282.5C 269.211,280.288 269.378,278.288 270.5,276.5 Z"/></g>
<g><path style="opacity:1" fill="#221510" d="M 356.5,276.5 C 368.205,276.457 379.871,276.457 391.5,276.5C 390.833,276.833 390.167,277.167 389.5,277.5C 378.632,281.722 367.965,281.388 357.5,276.5C 357.167,276.5 356.833,276.5 356.5,276.5 Z"/></g>
<g><path style="opacity:0.012" fill="#280804" d="M 470.5,277.5 C 471.573,278.251 471.74,279.251 471,280.5C 470.517,279.552 470.351,278.552 470.5,277.5 Z"/></g>
<g><path style="opacity:0.012" fill="#280804" d="M 469.5,281.5 C 470.833,282.167 470.833,282.833 469.5,283.5C 469.5,282.833 469.5,282.167 469.5,281.5 Z"/></g>
<g><path style="opacity:0.012" fill="#290804" d="M 468.5,283.5 C 468.833,283.5 469.167,283.5 469.5,283.5C 469.167,304.833 468.833,304.833 468.5,283.5 Z"/></g>
<g><path style="opacity:0.012" fill="#280804" d="M 272.5,287.5 C 273.598,288.601 273.765,289.934 273,291.5C 272.51,290.207 272.343,288.873 272.5,287.5 Z"/></g>
<g><path style="opacity:0.907" fill="#1c0e07" d="M 467.5,291.5 C 467.958,306.621 469.458,321.621 472,336.5C 472.333,335.833 472.667,335.167 473,334.5C 474.119,335.552 474.619,336.719 474.5,338C 477.071,339.454 479.738,340.62 482.5,341.5C 482.842,342.338 483.508,342.672 484.5,342.5C 486.336,344.588 488.669,345.921 491.5,346.5C 492.899,347.89 494.566,348.89 496.5,349.5C 496.842,350.338 497.508,350.672 498.5,350.5C 498.973,351.906 499.973,352.573 501.5,352.5C 502.899,353.89 504.566,354.89 506.5,355.5C 506.973,356.906 507.973,357.573 509.5,357.5C 510.29,358.401 511.29,359.068 512.5,359.5C 513.29,360.401 514.29,361.068 515.5,361.5C 516.436,362.974 517.77,363.974 519.5,364.5C 522.874,367.51 526.208,370.51 529.5,373.5C 530.514,374.674 531.847,375.34 533.5,375.5C 534.93,376.537 536.597,377.204 538.5,377.5C 539.78,378.931 541.447,379.598 543.5,379.5C 545.509,381.065 547.843,382.065 550.5,382.5C 551.93,383.537 553.597,384.204 555.5,384.5C 556.93,385.537 558.597,386.204 560.5,386.5C 561.93,387.537 563.597,388.204 565.5,388.5C 566.78,389.931 568.447,390.598 570.5,390.5C 572.509,392.065 574.843,393.065 577.5,393.5C 578.93,394.537 580.597,395.204 582.5,395.5C 583.93,396.537 585.597,397.204 587.5,397.5C 588.78,398.931 590.447,399.598 592.5,399.5C 594.509,401.065 596.843,402.065 599.5,402.5C 600.93,403.537 602.597,404.204 604.5,404.5C 606.649,405.736 608.982,406.736 611.5,407.5C 613.649,408.736 615.982,409.736 618.5,410.5C 619.78,411.931 621.447,412.598 623.5,412.5C 629.849,416.341 636.516,419.675 643.5,422.5C 643.842,423.338 644.508,423.672 645.5,423.5C 647.336,425.588 649.669,426.921 652.5,427.5C 653.899,428.89 655.566,429.89 657.5,430.5C 657.973,431.906 658.973,432.573 660.5,432.5C 661.29,433.401 662.29,434.068 663.5,434.5C 664.29,435.401 665.29,436.068 666.5,436.5C 668.531,438.522 670.865,440.189 673.5,441.5C 674.945,443.063 676.611,444.396 678.5,445.5C 680.808,447.471 683.142,449.471 685.5,451.5C 691.528,457.86 697.528,464.193 703.5,470.5C 706.117,475.114 709.117,479.447 712.5,483.5C 714,487.173 716,490.506 718.5,493.5C 718.992,495.819 719.992,497.819 721.5,499.5C 721.427,501.027 722.094,502.027 723.5,502.5C 723.328,503.492 723.662,504.158 724.5,504.5C 724.328,505.492 724.662,506.158 725.5,506.5C 725.328,507.492 725.662,508.158 726.5,508.5C 726.328,509.492 726.662,510.158 727.5,510.5C 727.328,511.492 727.662,512.158 728.5,512.5C 728.328,513.492 728.662,514.158 729.5,514.5C 729.328,515.492 729.662,516.158 730.5,516.5C 731.042,519.912 732.375,522.912 734.5,525.5C 734.707,528.241 735.707,530.574 737.5,532.5C 737.402,534.553 738.069,536.22 739.5,537.5C 739.263,538.791 739.596,539.791 740.5,540.5C 740.402,542.553 741.069,544.22 742.5,545.5C 742.263,546.791 742.596,547.791 743.5,548.5C 743.263,549.791 743.596,550.791 744.5,551.5C 744.263,552.791 744.596,553.791 745.5,554.5C 745.263,555.791 745.596,556.791 746.5,557.5C 746.263,558.791 746.596,559.791 747.5,560.5C 747.232,562.099 747.566,563.432 748.5,564.5C 748.263,565.791 748.596,566.791 749.5,567.5C 749.5,568.5 749.5,569.5 749.5,570.5C 747.5,570.5 745.5,570.5 743.5,570.5C 734.409,536.321 719.909,504.654 700,475.5C 683.369,454.933 663.203,438.766 639.5,427C 603.617,410.428 567.284,394.928 530.5,380.5C 526.039,408.082 515.539,433.082 499,455.5C 478.756,481.745 455.256,504.579 428.5,524C 411.707,536.12 394.374,547.453 376.5,558C 375.167,558.667 373.833,558.667 372.5,558C 329.939,533.944 292.106,503.777 259,467.5C 242.052,448.186 229.719,426.186 222,401.5C 220.136,394.949 218.969,388.282 218.5,381.5C 187.306,393.427 156.306,405.927 125.5,419C 103.301,429.255 82.9682,442.255 64.5,458C 52.4027,470.428 42.2361,484.262 34,499.5C 21.4524,521.983 11.9524,545.65 5.5,570.5C 3.5,570.5 1.5,570.5 -0.5,570.5C -0.5,569.833 -0.5,569.167 -0.5,568.5C 0.434475,567.432 0.767809,566.099 0.5,564.5C 1.92381,562.485 2.59047,560.152 2.5,557.5C 3.40397,556.791 3.73731,555.791 3.5,554.5C 4.33903,553.359 5.00569,552.026 5.5,550.5C 4.57211,549.232 4.40544,547.899 5,546.5C 6.08747,548.932 6.58747,548.598 6.5,545.5C 7.93127,544.22 8.59794,542.553 8.5,540.5C 9.40397,539.791 9.73731,538.791 9.5,537.5C 10.9313,536.22 11.5979,534.553 11.5,532.5C 13.2927,530.574 14.2927,528.241 14.5,525.5C 16.6246,522.912 17.9579,519.912 18.5,516.5C 19.3382,516.158 19.6716,515.492 19.5,514.5C 20.3382,514.158 20.6716,513.492 20.5,512.5C 21.3382,512.158 21.6716,511.492 21.5,510.5C 22.3382,510.158 22.6716,509.492 22.5,508.5C 23.3382,508.158 23.6716,507.492 23.5,506.5C 24.3382,506.158 24.6716,505.492 24.5,504.5C 27.6002,499.815 30.6002,494.981 33.5,490C 46.5724,467.064 64.9057,447.897 88.5,432.5C 93.7671,429.89 98.7671,426.89 103.5,423.5C 111.151,420.341 118.484,416.675 125.5,412.5C 136.142,408.736 146.475,404.402 156.5,399.5C 173.219,393.598 189.552,386.932 205.5,379.5C 213.4,378.218 219.733,374.385 224.5,368C 230.679,363.97 236.679,359.804 242.5,355.5C 253.005,349.749 263.338,343.749 273.5,337.5C 275.166,324.851 275.5,312.184 274.5,299.5C 275.234,298.292 275.567,296.959 275.5,295.5C 275.833,295.5 276.167,295.5 276.5,295.5C 277.729,299.215 279.062,302.882 280.5,306.5C 280.409,321.861 279.743,337.194 278.5,352.5C 278.205,354.423 277.372,356.09 276,357.5C 274.806,355.377 274.14,353.043 274,350.5C 265.449,378.291 272.283,401.791 294.5,421C 311.262,431.699 329.595,438.032 349.5,440C 386.275,444.099 420.275,436.433 451.5,417C 476.132,397.975 483.132,373.809 472.5,344.5C 471.55,346.598 471.55,348.765 472.5,351C 471.84,356.705 470.34,356.872 468,351.5C 467.141,343.643 465.974,335.977 464.5,328.5C 464.273,320.441 463.606,312.441 462.5,304.5C 464.323,300.191 465.99,295.858 467.5,291.5 Z"/></g>
<g><path style="opacity:0.012" fill="#280804" d="M 275.5,295.5 C 274.833,294.167 274.833,294.167 275.5,295.5 Z"/></g>
<g><path style="opacity:0.012" fill="#280804" d="M 274.5,299.5 C 274.666,305.176 274.499,310.843 274,316.5C 273.182,310.651 273.348,304.985 274.5,299.5 Z"/></g>
<g><path style="opacity:0.012" fill="#290804" d="M 469.5,303.5 C 470.641,306.64 470.808,309.973 470,313.5C 469.502,310.183 469.335,306.85 469.5,303.5 Z"/></g>
<g><path style="opacity:1" fill="#e9a29a" d="M 462.5,304.5 C 463.606,312.441 464.273,320.441 464.5,328.5C 461.269,330.22 458.436,332.553 456,335.5C 446.494,350.331 435.661,364.164 423.5,377C 404.202,392.328 382.202,398.328 357.5,395C 340.764,393.718 327.264,386.551 317,373.5C 309.378,359.877 300.212,347.377 289.5,336C 286.995,334.247 284.329,332.747 281.5,331.5C 280.897,338.703 279.897,345.703 278.5,352.5C 279.743,337.194 280.409,321.861 280.5,306.5C 282.514,311.685 285.014,316.685 288,321.5C 291.769,324.934 294.769,328.934 297,333.5C 298.067,334.191 299.234,334.691 300.5,335C 305.579,340.012 310.912,344.678 316.5,349C 318.5,349.667 320.5,350.333 322.5,351C 329.818,356.313 337.151,361.646 344.5,367C 360.705,372.573 377.038,373.24 393.5,369C 396.524,367.487 399.191,365.487 401.5,363C 403.985,363.623 405.985,362.623 407.5,360C 411.843,358.99 415.01,356.49 417,352.5C 420.013,353.016 422.68,352.016 425,349.5C 425.333,349.833 425.667,350.167 426,350.5C 427.66,347.73 429.827,346.563 432.5,347C 436.408,342.922 440.408,339.089 444.5,335.5C 446.233,332.941 447.733,330.275 449,327.5C 449.492,328.549 449.326,329.549 448.5,330.5C 448.846,331.696 449.346,331.696 450,330.5C 451.308,327.27 452.308,323.936 453,320.5C 454,320.167 455,319.833 456,319.5C 458.203,315.429 459.536,311.096 460,306.5C 460.708,305.619 461.542,304.953 462.5,304.5 Z"/></g>
<g><path style="opacity:0.012" fill="#290804" d="M 470.5,316.5 C 471.629,318.628 471.796,320.961 471,323.5C 470.503,321.19 470.337,318.857 470.5,316.5 Z"/></g>
<g><path style="opacity:0.012" fill="#280804" d="M 273.5,337.5 C 272.761,337.631 272.094,337.464 271.5,337C 272.307,331.917 272.807,326.75 273,321.5C 273.499,326.823 273.666,332.156 273.5,337.5 Z"/></g>
<g><path style="opacity:0.012" fill="#290804" d="M 471.5,326.5 C 472.622,328.288 472.789,330.288 472,332.5C 471.505,330.527 471.338,328.527 471.5,326.5 Z"/></g>
<g><path style="opacity:1" fill="#fdb6a8" d="M 464.5,328.5 C 465.974,335.977 467.141,343.643 468,351.5C 470.34,356.872 471.84,356.705 472.5,351C 471.55,348.765 471.55,346.598 472.5,344.5C 483.132,373.809 476.132,397.975 451.5,417C 420.275,436.433 386.275,444.099 349.5,440C 329.595,438.032 311.262,431.699 294.5,421C 272.283,401.791 265.449,378.291 274,350.5C 274.14,353.043 274.806,355.377 276,357.5C 277.372,356.09 278.205,354.423 278.5,352.5C 279.897,345.703 280.897,338.703 281.5,331.5C 284.329,332.747 286.995,334.247 289.5,336C 300.212,347.377 309.378,359.877 317,373.5C 327.264,386.551 340.764,393.718 357.5,395C 382.202,398.328 404.202,392.328 423.5,377C 435.661,364.164 446.494,350.331 456,335.5C 458.436,332.553 461.269,330.22 464.5,328.5 Z"/></g>
<g><path style="opacity:0.012" fill="#280804" d="M 475.5,336.5 C 476.833,337.167 476.833,337.167 475.5,336.5 Z"/></g>
<g><path style="opacity:0.012" fill="#280804" d="M 266.5,339.5 C 267.833,340.167 267.833,340.167 266.5,339.5 Z"/></g>
<g><path style="opacity:0.024" fill="#2f0d02" d="M 482.5,340.5 C 483.833,341.167 483.833,341.167 482.5,340.5 Z"/></g>
<g><path style="opacity:0.024" fill="#2f0d02" d="M 484.5,341.5 C 485.833,342.167 485.833,342.167 484.5,341.5 Z"/></g>
<g><path style="opacity:0.012" fill="#280804" d="M 486.5,342.5 C 487.833,343.167 487.833,343.167 486.5,342.5 Z"/></g>
<g><path style="opacity:0.024" fill="#2f0d02" d="M 491.5,345.5 C 492.833,346.167 492.833,346.167 491.5,345.5 Z"/></g>
<g><path style="opacity:0.012" fill="#280804" d="M 252.5,347.5 C 253.833,348.167 253.833,348.167 252.5,347.5 Z"/></g>
<g><path style="opacity:0.024" fill="#2f0d02" d="M 496.5,348.5 C 497.833,349.167 497.833,349.167 496.5,348.5 Z"/></g>
<g><path style="opacity:0.024" fill="#2f0d02" d="M 498.5,349.5 C 499.833,350.167 499.833,350.167 498.5,349.5 Z"/></g>
<g><path style="opacity:0.012" fill="#280804" d="M 247.5,350.5 C 248.833,351.167 248.833,351.167 247.5,350.5 Z"/></g>
<g><path style="opacity:0.012" fill="#280804" d="M 501.5,351.5 C 500.833,350.167 500.833,350.167 501.5,351.5 Z"/></g>
<g><path style="opacity:0.024" fill="#2f0d02" d="M 501.5,351.5 C 502.833,352.167 502.833,352.167 501.5,351.5 Z"/></g>
<g><path style="opacity:0.012" fill="#280804" d="M 242.5,353.5 C 243.833,354.167 243.833,354.167 242.5,353.5 Z"/></g>
<g><path style="opacity:1" fill="#fcfcfc" d="M 485.5,351.5 C 485.56,350.957 485.893,350.624 486.5,350.5C 499.774,357.717 512.274,366.05 524,375.5C 524.544,389.78 521.877,403.446 516,416.5C 501.631,446.705 481.798,472.871 456.5,495C 431.003,517.331 403.503,536.831 374,553.5C 328.021,527.537 288.021,494.203 254,453.5C 237.09,432.174 226.59,408.008 222.5,381C 222.542,379.033 223.042,377.199 224,375.5C 235.786,366.054 248.286,358.387 261.5,352.5C 254.944,359.946 252.111,368.613 253,378.5C 255.897,393.866 261.897,407.866 271,420.5C 300.322,457.325 334.822,488.325 374.5,513.5C 405.815,492.703 434.648,468.703 461,441.5C 472.895,428.721 482.562,414.388 490,398.5C 495.436,387.286 496.769,375.619 494,363.5C 492.08,358.764 489.247,354.764 485.5,351.5 Z"/></g>
<g><path style="opacity:0.024" fill="#2f0d02" d="M 242.5,354.5 C 242.5,354.833 242.5,355.167 242.5,355.5C 241.83,355.019 241.83,354.685 242.5,354.5 Z"/></g>
<g><path style="opacity:0.024" fill="#2f0d02" d="M 506.5,354.5 C 507.833,355.167 507.833,355.167 506.5,354.5 Z"/></g>
<g><path style="opacity:0.012" fill="#280804" d="M 509.5,356.5 C 508.833,355.167 508.833,355.167 509.5,356.5 Z"/></g>
<g><path style="opacity:0.024" fill="#2f0d02" d="M 509.5,356.5 C 510.833,357.167 510.833,357.167 509.5,356.5 Z"/></g>
<g><path style="opacity:1" fill="#022786" d="M 479.5,353.5 C 480.793,352.355 481.959,352.689 483,354.5C 491.68,364.585 493.68,375.918 489,388.5C 479.798,410.372 466.631,429.539 449.5,446C 409.053,465.678 367.053,469.678 323.5,458C 316.266,455.922 309.266,453.256 302.5,450C 285.521,434.023 272.021,415.523 262,394.5C 258.123,386.209 256.789,377.543 258,368.5C 259.729,362.703 262.729,357.703 267,353.5C 260.629,391.929 275.129,419.096 310.5,435C 353.022,450.029 395.022,448.696 436.5,431C 453.757,423.637 466.923,411.803 476,395.5C 481.801,381.754 482.968,367.754 479.5,353.5 Z"/></g>
<g><path style="opacity:0.024" fill="#2f0d02" d="M 512.5,358.5 C 513.833,359.167 513.833,359.167 512.5,358.5 Z"/></g>
<g><path style="opacity:0.024" fill="#2f0d02" d="M 515.5,360.5 C 516.833,361.167 516.833,361.167 515.5,360.5 Z"/></g>
<g><path style="opacity:0.012" fill="#280804" d="M 517.5,361.5 C 518.833,362.167 518.833,362.167 517.5,361.5 Z"/></g>
<g><path style="opacity:0.012" fill="#280804" d="M 519.5,363.5 C 520.833,364.167 520.833,364.167 519.5,363.5 Z"/></g>
<g><path style="opacity:0.012" fill="#280804" d="M 224.5,365.5 C 225.833,366.167 225.833,366.167 224.5,365.5 Z"/></g>
<g><path style="opacity:0.024" fill="#2d0b03" d="M 529.5,373.5 C 529.369,372.761 529.536,372.094 530,371.5C 530.692,372.437 530.525,373.103 529.5,373.5 Z"/></g>
<g><path style="opacity:0.012" fill="#280804" d="M 533.5,375.5 C 533.897,374.475 534.563,374.308 535.5,375C 534.906,375.464 534.239,375.631 533.5,375.5 Z"/></g>
<g><path style="opacity:0.012" fill="#280804" d="M 538.5,377.5 C 538.897,376.475 539.563,376.308 540.5,377C 539.906,377.464 539.239,377.631 538.5,377.5 Z"/></g>
<g><path style="opacity:0.024" fill="#2d0b03" d="M 205.5,378.5 C 205.897,377.475 206.563,377.308 207.5,378C 206.906,378.464 206.239,378.631 205.5,378.5 Z"/></g>
<g><path style="opacity:0.012" fill="#2b0904" d="M 543.5,378.5 C 542.761,378.631 542.094,378.464 541.5,378C 542.437,377.308 543.103,377.475 543.5,378.5 Z"/></g>
<g><path style="opacity:0.012" fill="#280804" d="M 205.5,378.5 C 205.5,378.833 205.5,379.167 205.5,379.5C 202.833,379.167 202.833,378.833 205.5,378.5 Z"/></g>
<g><path style="opacity:0.012" fill="#280804" d="M 543.5,379.5 C 543.5,379.167 543.5,378.833 543.5,378.5C 546.167,378.833 546.167,379.167 543.5,379.5 Z"/></g>
<g><path style="opacity:0.012" fill="#280804" d="M 201.5,379.5 C 202.833,380.167 202.833,380.167 201.5,379.5 Z"/></g>
<g><path style="opacity:0.012" fill="#280804" d="M 546.5,379.5 C 547.833,380.167 547.833,380.167 546.5,379.5 Z"/></g>
<g><path style="opacity:1" fill="#002889" d="M 743.5,570.5 C 497.5,570.5 251.5,570.5 5.5,570.5C 11.9524,545.65 21.4524,521.983 34,499.5C 42.2361,484.262 52.4027,470.428 64.5,458C 82.9682,442.255 103.301,429.255 125.5,419C 156.306,405.927 187.306,393.427 218.5,381.5C 218.969,388.282 220.136,394.949 222,401.5C 229.719,426.186 242.052,448.186 259,467.5C 292.106,503.777 329.939,533.944 372.5,558C 373.833,558.667 375.167,558.667 376.5,558C 394.374,547.453 411.707,536.12 428.5,524C 455.256,504.579 478.756,481.745 499,455.5C 515.539,433.082 526.039,408.082 530.5,380.5C 567.284,394.928 603.617,410.428 639.5,427C 663.203,438.766 683.369,454.933 700,475.5C 719.909,504.654 734.409,536.321 743.5,570.5 Z"/></g>
<g><path style="opacity:0.012" fill="#280804" d="M 550.5,382.5 C 550.897,381.475 551.563,381.308 552.5,382C 551.906,382.464 551.239,382.631 550.5,382.5 Z"/></g>
<g><path style="opacity:0.012" fill="#280804" d="M 555.5,384.5 C 555.897,383.475 556.563,383.308 557.5,384C 556.906,384.464 556.239,384.631 555.5,384.5 Z"/></g>
<g><path style="opacity:0.012" fill="#280804" d="M 560.5,386.5 C 560.897,385.475 561.563,385.308 562.5,386C 561.906,386.464 561.239,386.631 560.5,386.5 Z"/></g>
<g><path style="opacity:0.012" fill="#280804" d="M 565.5,388.5 C 565.897,387.475 566.563,387.308 567.5,388C 566.906,388.464 566.239,388.631 565.5,388.5 Z"/></g>
<g><path style="opacity:0.024" fill="#2f0d02" d="M 179.5,388.5 C 180.833,389.167 180.833,389.167 179.5,388.5 Z"/></g>
<g><path style="opacity:0.012" fill="#2b0904" d="M 570.5,389.5 C 569.761,389.631 569.094,389.464 568.5,389C 569.437,388.308 570.103,388.475 570.5,389.5 Z"/></g>
<g><path style="opacity:0.012" fill="#280804" d="M 570.5,390.5 C 570.5,390.167 570.5,389.833 570.5,389.5C 573.167,389.833 573.167,390.167 570.5,390.5 Z"/></g>
<g><path style="opacity:0.012" fill="#280804" d="M 573.5,390.5 C 574.833,391.167 574.833,391.167 573.5,390.5 Z"/></g>
<g><path style="opacity:0.012" fill="#280804" d="M 577.5,393.5 C 577.897,392.475 578.563,392.308 579.5,393C 578.906,393.464 578.239,393.631 577.5,393.5 Z"/></g>
<g><path style="opacity:0.012" fill="#280804" d="M 582.5,395.5 C 582.897,394.475 583.563,394.308 584.5,395C 583.906,395.464 583.239,395.631 582.5,395.5 Z"/></g>
<g><path style="opacity:0.012" fill="#280804" d="M 587.5,397.5 C 587.897,396.475 588.563,396.308 589.5,397C 588.906,397.464 588.239,397.631 587.5,397.5 Z"/></g>
<g><path style="opacity:0.024" fill="#2d0b03" d="M 156.5,398.5 C 156.897,397.475 157.563,397.308 158.5,398C 157.906,398.464 157.239,398.631 156.5,398.5 Z"/></g>
<g><path style="opacity:0.012" fill="#2b0904" d="M 592.5,398.5 C 591.761,398.631 591.094,398.464 590.5,398C 591.437,397.308 592.103,397.475 592.5,398.5 Z"/></g>
<g><path style="opacity:0.012" fill="#280804" d="M 156.5,398.5 C 156.5,398.833 156.5,399.167 156.5,399.5C 153.833,399.167 153.833,398.833 156.5,398.5 Z"/></g>
<g><path style="opacity:0.012" fill="#280804" d="M 592.5,399.5 C 592.5,399.167 592.5,398.833 592.5,398.5C 595.167,398.833 595.167,399.167 592.5,399.5 Z"/></g>
<g><path style="opacity:0.012" fill="#280804" d="M 152.5,399.5 C 153.833,400.167 153.833,400.167 152.5,399.5 Z"/></g>
<g><path style="opacity:0.012" fill="#280804" d="M 595.5,399.5 C 596.833,400.167 596.833,400.167 595.5,399.5 Z"/></g>
<g><path style="opacity:0.012" fill="#280804" d="M 599.5,402.5 C 599.897,401.475 600.563,401.308 601.5,402C 600.906,402.464 600.239,402.631 599.5,402.5 Z"/></g>
<g><path style="opacity:0.012" fill="#280804" d="M 604.5,404.5 C 604.897,403.475 605.563,403.308 606.5,404C 605.906,404.464 605.239,404.631 604.5,404.5 Z"/></g>
<g><path style="opacity:0.024" fill="#2d0b03" d="M 139.5,405.5 C 139.897,404.475 140.563,404.308 141.5,405C 140.906,405.464 140.239,405.631 139.5,405.5 Z"/></g>
<g><path style="opacity:0.012" fill="#280804" d="M 611.5,407.5 C 611.897,406.475 612.563,406.308 613.5,407C 612.906,407.464 612.239,407.631 611.5,407.5 Z"/></g>
<g><path style="opacity:0.012" fill="#280804" d="M 618.5,410.5 C 618.897,409.475 619.563,409.308 620.5,410C 619.906,410.464 619.239,410.631 618.5,410.5 Z"/></g>
<g><path style="opacity:0.012" fill="#280804" d="M 126.5,410.5 C 127.833,411.167 127.833,411.167 126.5,410.5 Z"/></g>
<g><path style="opacity:0.012" fill="#280804" d="M 621.5,410.5 C 622.833,411.167 622.833,411.167 621.5,410.5 Z"/></g>
<g><path style="opacity:0.024" fill="#2f0d02" d="M 125.5,412.5 C 124.833,411.167 124.833,411.167 125.5,412.5 Z"/></g>
<g><path style="opacity:0.024" fill="#2f0d02" d="M 623.5,411.5 C 624.833,412.167 624.833,412.167 623.5,411.5 Z"/></g>
<g><path style="opacity:0.024" fill="#2f0d02" d="M 643.5,421.5 C 644.833,422.167 644.833,422.167 643.5,421.5 Z"/></g>
<g><path style="opacity:0.024" fill="#2f0d02" d="M 103.5,423.5 C 102.833,422.167 102.833,422.167 103.5,423.5 Z"/></g>
<g><path style="opacity:0.024" fill="#2f0d02" d="M 645.5,422.5 C 646.833,423.167 646.833,423.167 645.5,422.5 Z"/></g>
<g><path style="opacity:0.012" fill="#280804" d="M 100.5,423.5 C 101.833,424.167 101.833,424.167 100.5,423.5 Z"/></g>
<g><path style="opacity:0.024" fill="#2f0d02" d="M 652.5,426.5 C 653.833,427.167 653.833,427.167 652.5,426.5 Z"/></g>
<g><path style="opacity:0.012" fill="#280804" d="M 93.5,427.5 C 94.8333,428.167 94.8333,428.167 93.5,427.5 Z"/></g>
<g><path style="opacity:0.024" fill="#2f0d02" d="M 657.5,429.5 C 658.833,430.167 658.833,430.167 657.5,429.5 Z"/></g>
<g><path style="opacity:0.012" fill="#280804" d="M 88.5,430.5 C 89.8333,431.167 89.8333,431.167 88.5,430.5 Z"/></g>
<g><path style="opacity:0.012" fill="#280804" d="M 660.5,431.5 C 659.833,430.167 659.833,430.167 660.5,431.5 Z"/></g>
<g><path style="opacity:0.024" fill="#2f0d02" d="M 88.5,431.5 C 88.5,431.833 88.5,432.167 88.5,432.5C 87.8299,432.019 87.8299,431.685 88.5,431.5 Z"/></g>
<g><path style="opacity:0.024" fill="#2f0d02" d="M 660.5,431.5 C 661.833,432.167 661.833,432.167 660.5,431.5 Z"/></g>
<g><path style="opacity:0.012" fill="#280804" d="M 663.5,433.5 C 664.833,434.167 664.833,434.167 663.5,433.5 Z"/></g>
<g><path style="opacity:0.024" fill="#2f0d02" d="M 666.5,435.5 C 667.833,436.167 667.833,436.167 666.5,435.5 Z"/></g>
<g><path style="opacity:0.012" fill="#280804" d="M 79.5,436.5 C 80.8333,437.167 80.8333,437.167 79.5,436.5 Z"/></g>
<g><path style="opacity:0.024" fill="#2f0d02" d="M 673.5,440.5 C 674.833,441.167 674.833,441.167 673.5,440.5 Z"/></g>
<g><path style="opacity:0.012" fill="#280804" d="M 72.5,441.5 C 73.8333,442.167 73.8333,442.167 72.5,441.5 Z"/></g>
<g><path style="opacity:0.012" fill="#280804" d="M 675.5,441.5 C 676.833,442.167 676.833,442.167 675.5,441.5 Z"/></g>
<g><path style="opacity:0.012" fill="#280804" d="M 678.5,444.5 C 679.833,445.167 679.833,445.167 678.5,444.5 Z"/></g>
<g><path style="opacity:0.012" fill="#280804" d="M 67.5,445.5 C 68.8333,446.167 68.8333,446.167 67.5,445.5 Z"/></g>
<g><path style="opacity:0.012" fill="#280804" d="M 680.5,445.5 C 681.833,446.167 681.833,446.167 680.5,445.5 Z"/></g>
<g><path style="opacity:0.012" fill="#280804" d="M 685.5,450.5 C 686.833,451.167 686.833,451.167 685.5,450.5 Z"/></g>
<g><path style="opacity:0.012" fill="#280804" d="M 688.5,452.5 C 687.833,451.167 687.833,451.167 688.5,452.5 Z"/></g>
<g><path style="opacity:0.012" fill="#280804" d="M 59.5,452.5 C 60.8333,453.167 60.8333,453.167 59.5,452.5 Z"/></g>
<g><path style="opacity:0.012" fill="#280804" d="M 688.5,452.5 C 689.167,452.5 689.5,452.833 689.5,453.5C 689.167,453.167 688.833,452.833 688.5,452.5 Z"/></g>
<g><path style="opacity:0.012" fill="#280804" d="M 59.5,453.5 C 58.8333,454.167 58.8333,454.167 59.5,453.5 Z"/></g>
<g><path style="opacity:0.012" fill="#280804" d="M 689.5,453.5 C 690.167,453.5 690.5,453.833 690.5,454.5C 690.167,454.167 689.833,453.833 689.5,453.5 Z"/></g>
<g><path style="opacity:0.012" fill="#280804" d="M 58.5,454.5 C 57.8333,455.167 57.8333,455.167 58.5,454.5 Z"/></g>
<g><path style="opacity:0.012" fill="#280804" d="M 690.5,454.5 C 691.167,454.5 691.5,454.833 691.5,455.5C 691.167,455.167 690.833,454.833 690.5,454.5 Z"/></g>
<g><path style="opacity:0.012" fill="#280804" d="M 57.5,455.5 C 56.8333,456.167 56.8333,456.167 57.5,455.5 Z"/></g>
<g><path style="opacity:0.012" fill="#280804" d="M 691.5,455.5 C 692.167,455.5 692.5,455.833 692.5,456.5C 692.167,456.167 691.833,455.833 691.5,455.5 Z"/></g>
<g><path style="opacity:0.012" fill="#280804" d="M 56.5,456.5 C 55.8333,457.167 55.8333,457.167 56.5,456.5 Z"/></g>
<g><path style="opacity:0.012" fill="#280804" d="M 692.5,456.5 C 693.167,456.5 693.5,456.833 693.5,457.5C 693.167,457.167 692.833,456.833 692.5,456.5 Z"/></g>
<g><path style="opacity:0.012" fill="#280804" d="M 55.5,457.5 C 54.8333,458.167 54.8333,458.167 55.5,457.5 Z"/></g>
<g><path style="opacity:0.012" fill="#280804" d="M 693.5,457.5 C 694.167,457.5 694.5,457.833 694.5,458.5C 694.167,458.167 693.833,457.833 693.5,457.5 Z"/></g>
<g><path style="opacity:0.012" fill="#280804" d="M 54.5,458.5 C 53.8333,459.167 53.8333,459.167 54.5,458.5 Z"/></g>
<g><path style="opacity:0.012" fill="#280804" d="M 694.5,458.5 C 695.167,458.5 695.5,458.833 695.5,459.5C 695.167,459.167 694.833,458.833 694.5,458.5 Z"/></g>
<g><path style="opacity:0.012" fill="#280804" d="M 695.5,459.5 C 696.833,460.167 696.833,460.167 695.5,459.5 Z"/></g>
<g><path style="opacity:1" fill="#022886" d="M 435.5,457.5 C 436.239,457.369 436.906,457.536 437.5,458C 417.589,475.947 396.589,492.447 374.5,507.5C 353.081,493.116 332.747,477.283 313.5,460C 349.518,470.564 385.852,471.231 422.5,462C 426.98,460.564 431.313,459.064 435.5,457.5 Z"/></g>
<g><path style="opacity:0.024" fill="#2f0d02" d="M 704.5,470.5 C 703.833,469.167 703.833,469.167 704.5,470.5 Z"/></g>
<g><path style="opacity:0.012" fill="#280804" d="M 43.5,470.5 C 44.8333,471.167 44.8333,471.167 43.5,470.5 Z"/></g>
<g><path style="opacity:0.012" fill="#280804" d="M 704.5,470.5 C 705.833,471.167 705.833,471.167 704.5,470.5 Z"/></g>
<g><path style="opacity:0.012" fill="#280804" d="M 712.5,482.5 C 713.833,483.167 713.833,483.167 712.5,482.5 Z"/></g>
<g><path style="opacity:0.024" fill="#2f0d02" d="M 718.5,492.5 C 719.833,493.167 719.833,493.167 718.5,492.5 Z"/></g>
<g><path style="opacity:0.012" fill="#280804" d="M 722.5,499.5 C 722.167,499.5 721.833,499.5 721.5,499.5C 721.833,496.833 722.167,496.833 722.5,499.5 Z"/></g>
<g><path style="opacity:0.012" fill="#280804" d="M 25.5,499.5 C 26.8333,500.167 26.8333,500.167 25.5,499.5 Z"/></g>
<g><path style="opacity:0.012" fill="#280804" d="M 722.5,499.5 C 723.833,500.167 723.833,500.167 722.5,499.5 Z"/></g>
<g><path style="opacity:0.012" fill="#280804" d="M 24.5,501.5 C 25.8333,502.167 25.8333,502.167 24.5,501.5 Z"/></g>
<g><path style="opacity:0.012" fill="#280804" d="M 723.5,501.5 C 724.833,502.167 724.833,502.167 723.5,501.5 Z"/></g>
<g><path style="opacity:0.024" fill="#2f0d02" d="M 24.5,504.5 C 23.8333,503.167 23.8333,503.167 24.5,504.5 Z"/></g>
<g><path style="opacity:0.024" fill="#2f0d02" d="M 724.5,503.5 C 725.833,504.167 725.833,504.167 724.5,503.5 Z"/></g>
<g><path style="opacity:0.024" fill="#2f0d02" d="M 23.5,506.5 C 22.8333,505.167 22.8333,505.167 23.5,506.5 Z"/></g>
<g><path style="opacity:0.024" fill="#2f0d02" d="M 725.5,505.5 C 726.833,506.167 726.833,506.167 725.5,505.5 Z"/></g>
<g><path style="opacity:0.024" fill="#2f0d02" d="M 22.5,508.5 C 21.8333,507.167 21.8333,507.167 22.5,508.5 Z"/></g>
<g><path style="opacity:0.024" fill="#2f0d02" d="M 726.5,507.5 C 727.833,508.167 727.833,508.167 726.5,507.5 Z"/></g>
<g><path style="opacity:0.024" fill="#2f0d02" d="M 21.5,510.5 C 20.8333,509.167 20.8333,509.167 21.5,510.5 Z"/></g>
<g><path style="opacity:0.024" fill="#2f0d02" d="M 727.5,509.5 C 728.833,510.167 728.833,510.167 727.5,509.5 Z"/></g>
<g><path style="opacity:0.024" fill="#2f0d02" d="M 20.5,512.5 C 19.8333,511.167 19.8333,511.167 20.5,512.5 Z"/></g>
<g><path style="opacity:0.024" fill="#2f0d02" d="M 728.5,511.5 C 729.833,512.167 729.833,512.167 728.5,511.5 Z"/></g>
<g><path style="opacity:0.024" fill="#2f0d02" d="M 19.5,514.5 C 18.8333,513.167 18.8333,513.167 19.5,514.5 Z"/></g>
<g><path style="opacity:0.024" fill="#2f0d02" d="M 729.5,513.5 C 730.833,514.167 730.833,514.167 729.5,513.5 Z"/></g>
<g><path style="opacity:0.012" fill="#280804" d="M 18.5,516.5 C 17.8333,515.167 17.8333,515.167 18.5,516.5 Z"/></g>
<g><path style="opacity:0.024" fill="#2f0d02" d="M 730.5,515.5 C 731.833,516.167 731.833,516.167 730.5,515.5 Z"/></g>
<g><path style="opacity:0.012" fill="#280804" d="M 16.5,517.5 C 17.8333,518.167 17.8333,518.167 16.5,517.5 Z"/></g>
<g><path style="opacity:0.012" fill="#280804" d="M 731.5,517.5 C 732.833,518.167 732.833,518.167 731.5,517.5 Z"/></g>
<g><path style="opacity:0.024" fill="#2d0b03" d="M 14.5,525.5 C 13.475,525.103 13.3083,524.437 14,523.5C 14.4643,524.094 14.631,524.761 14.5,525.5 Z"/></g>
<g><path style="opacity:0.024" fill="#2d0b03" d="M 734.5,525.5 C 734.369,524.761 734.536,524.094 735,523.5C 735.692,524.437 735.525,525.103 734.5,525.5 Z"/></g>
<g><path style="opacity:0.012" fill="#280804" d="M 12.5,526.5 C 13.8333,527.167 13.8333,527.167 12.5,526.5 Z"/></g>
<g><path style="opacity:0.024" fill="#2f0d02" d="M 735.5,526.5 C 736.833,527.167 736.833,527.167 735.5,526.5 Z"/></g>
<g><path style="opacity:0.024" fill="#2d0b03" d="M 11.5,532.5 C 10.475,532.103 10.3083,531.437 11,530.5C 11.4643,531.094 11.631,531.761 11.5,532.5 Z"/></g>
<g><path style="opacity:0.024" fill="#2d0b03" d="M 737.5,532.5 C 737.369,531.761 737.536,531.094 738,530.5C 738.692,531.437 738.525,532.103 737.5,532.5 Z"/></g>
<g><path style="opacity:0.024" fill="#2d0b03" d="M 9.5,537.5 C 8.47498,537.103 8.30831,536.437 9,535.5C 9.46434,536.094 9.63101,536.761 9.5,537.5 Z"/></g>
<g><path style="opacity:0.024" fill="#2d0b03" d="M 739.5,537.5 C 739.369,536.761 739.536,536.094 740,535.5C 740.692,536.437 740.525,537.103 739.5,537.5 Z"/></g>
<g><path style="opacity:0.012" fill="#280804" d="M 8.5,540.5 C 8.16667,540.5 7.83333,540.5 7.5,540.5C 7.83333,537.833 8.16667,537.833 8.5,540.5 Z"/></g>
<g><path style="opacity:0.012" fill="#280804" d="M 741.5,540.5 C 741.167,540.5 740.833,540.5 740.5,540.5C 740.833,537.833 741.167,537.833 741.5,540.5 Z"/></g>
<g><path style="opacity:0.012" fill="#280804" d="M 7.5,540.5 C 7.63101,541.239 7.46434,541.906 7,542.5C 6.30831,541.563 6.47498,540.897 7.5,540.5 Z"/></g>
<g><path style="opacity:0.024" fill="#2d0b03" d="M 741.5,540.5 C 742.525,540.897 742.692,541.563 742,542.5C 741.536,541.906 741.369,541.239 741.5,540.5 Z"/></g>
<g><path style="opacity:0.012" fill="#280804" d="M 6.5,545.5 C 5.47498,545.103 5.30831,544.437 6,543.5C 6.46434,544.094 6.63101,544.761 6.5,545.5 Z"/></g>
<g><path style="opacity:0.012" fill="#280804" d="M 742.5,545.5 C 742.369,544.761 742.536,544.094 743,543.5C 743.692,544.437 743.525,545.103 742.5,545.5 Z"/></g>
<g><path style="opacity:0.012" fill="#280804" d="M 743.5,548.5 C 743.369,547.761 743.536,547.094 744,546.5C 744.692,547.437 744.525,548.103 743.5,548.5 Z"/></g>
<g><path style="opacity:0.012" fill="#280804" d="M 744.5,551.5 C 744.369,550.761 744.536,550.094 745,549.5C 745.692,550.437 745.525,551.103 744.5,551.5 Z"/></g>
<g><path style="opacity:0.012" fill="#280804" d="M 3.5,554.5 C 2.47498,554.103 2.30831,553.437 3,552.5C 3.46434,553.094 3.63101,553.761 3.5,554.5 Z"/></g>
<g><path style="opacity:0.012" fill="#280804" d="M 745.5,554.5 C 745.369,553.761 745.536,553.094 746,552.5C 746.692,553.437 746.525,554.103 745.5,554.5 Z"/></g>
<g><path style="opacity:0.012" fill="#280804" d="M 2.5,557.5 C 1.47498,557.103 1.30831,556.437 2,555.5C 2.46434,556.094 2.63101,556.761 2.5,557.5 Z"/></g>
<g><path style="opacity:0.012" fill="#280804" d="M 746.5,557.5 C 746.369,556.761 746.536,556.094 747,555.5C 747.692,556.437 747.525,557.103 746.5,557.5 Z"/></g>
<g><path style="opacity:0.012" fill="#280804" d="M 0.5,558.5 C 1.52502,558.897 1.69169,559.563 1,560.5C 0.535656,559.906 0.368989,559.239 0.5,558.5 Z"/></g>
<g><path style="opacity:0.012" fill="#280804" d="M 747.5,560.5 C 747.369,559.761 747.536,559.094 748,558.5C 748.692,559.437 748.525,560.103 747.5,560.5 Z"/></g>
<g><path style="opacity:0.012" fill="#280804" d="M -0.5,561.5 C 0.403972,562.209 0.737305,563.209 0.5,564.5C 0.166667,564.5 -0.166667,564.5 -0.5,564.5C -0.5,563.5 -0.5,562.5 -0.5,561.5 Z"/></g>
<g><path style="opacity:0.024" fill="#2c0a03" d="M 749.5,561.5 C 749.5,562.5 749.5,563.5 749.5,564.5C 749.167,564.5 748.833,564.5 748.5,564.5C 748.263,563.209 748.596,562.209 749.5,561.5 Z"/></g>
</svg>
