<?xml version="1.0" encoding="UTF-8"?>
<!DOCTYPE svg PUBLIC "-//W3C//DTD SVG 1.1//EN" "http://www.w3.org/Graphics/SVG/1.1/DTD/svg11.dtd">
<svg xmlns="http://www.w3.org/2000/svg" version="1.1" width="750px" height="572px" style="shape-rendering:geometricPrecision; text-rendering:geometricPrecision; image-rendering:optimizeQuality; fill-rule:evenodd; clip-rule:evenodd" xmlns:xlink="http://www.w3.org/1999/xlink">
<g><path style="opacity:0.016" fill="#180000" d="M 342.5,-0.5 C 349.833,-0.5 357.167,-0.5 364.5,-0.5C 366.607,0.468218 368.941,0.801552 371.5,0.5C 371.5,0.833333 371.5,1.16667 371.5,1.5C 360.483,0.431411 349.483,0.264744 338.5,1C 340.058,0.78997 341.391,0.28997 342.5,-0.5 Z"/></g>
<g><path style="opacity:0.004" fill="#000000" d="M 371.5,-0.5 C 371.833,-0.5 372.167,-0.5 372.5,-0.5C 372.315,0.170143 371.981,0.170143 371.5,-0.5 Z"/></g>
<g><path style="opacity:0.879" fill="#1d0d02" d="M 378.5,-0.5 C 385.5,-0.5 392.5,-0.5 399.5,-0.5C 410.073,0.290241 420.406,2.62357 430.5,6.5C 430.842,7.33825 431.508,7.67158 432.5,7.5C 432.5,8.16667 432.833,8.5 433.5,8.5C 435.808,10.4707 438.142,12.4707 440.5,14.5C 441.919,15.4511 443.585,15.7845 445.5,15.5C 445.5,16.1667 445.833,16.5 446.5,16.5C 446.5,17.1667 446.833,17.5 447.5,17.5C 449.833,20.5 452.5,23.1667 455.5,25.5C 455.5,26.1667 455.833,26.5 456.5,26.5C 456.5,27.1667 456.833,27.5 457.5,27.5C 458.11,29.4341 459.11,31.1007 460.5,32.5C 460.328,33.4916 460.662,34.1583 461.5,34.5C 463.719,39.7091 466.719,44.3757 470.5,48.5C 470.427,50.0269 471.094,51.0269 472.5,51.5C 487.721,87.9834 492.388,125.817 486.5,165C 486.833,166.167 487.167,167.333 487.5,168.5C 490.3,170.288 492.3,172.622 493.5,175.5C 494.257,185.482 494.59,195.482 494.5,205.5C 493.549,206.919 493.216,208.585 493.5,210.5C 492.596,211.209 492.263,212.209 492.5,213.5C 487.802,221.187 483.135,228.854 478.5,236.5C 477.609,235.739 476.942,234.739 476.5,233.5C 480.868,225.624 485.035,217.624 489,209.5C 490.669,201.379 490.836,193.379 489.5,185.5C 488.532,183.393 488.198,181.059 488.5,178.5C 488.5,177.833 488.167,177.5 487.5,177.5C 487.036,173.862 485.036,172.362 481.5,173C 479.35,176.147 477.35,179.313 475.5,182.5C 472.615,187.963 471.948,193.797 473.5,200C 470.483,211.629 468.65,223.462 468,235.5C 467.333,230.833 467.333,226.167 468,221.5C 469.687,208.354 471.187,195.188 472.5,182C 471.607,171.838 470.773,161.672 470,151.5C 468.901,144.371 466.734,137.705 463.5,131.5C 462.687,129.739 461.687,128.072 460.5,126.5C 458.875,113.911 458.042,101.244 458,88.5C 457.768,87.2625 457.268,86.2625 456.5,85.5C 453.648,73.75 446.648,65.75 435.5,61.5C 439.449,61.3068 439.449,60.8068 435.5,60C 432.5,59.3333 429.5,59.3333 426.5,60C 412.983,63.062 399.65,66.7286 386.5,71C 374.749,72.9327 363.082,72.4327 351.5,69.5C 350.584,69.5427 349.917,69.8761 349.5,70.5C 344.654,68.3718 339.654,66.7051 334.5,65.5C 329.599,63.9481 324.432,63.2814 319,63.5C 315.167,63.6667 311.333,63.8333 307.5,64C 306.263,64.2321 305.263,64.7321 304.5,65.5C 298.379,67.7888 294.546,72.1221 293,78.5C 292.414,90.8444 292.581,103.178 293.5,115.5C 293.674,122.535 293.341,129.535 292.5,136.5C 288.313,147.091 285.647,158.091 284.5,169.5C 282.981,175.762 282.314,182.262 282.5,189C 282.501,193.68 282.834,198.18 283.5,202.5C 283.5,203.5 283.5,204.5 283.5,205.5C 284.393,211.193 285.393,216.86 286.5,222.5C 286.045,225.985 285.879,229.652 286,233.5C 283.926,223.35 281.759,213.35 279.5,203.5C 274.169,193.511 267.836,184.178 260.5,175.5C 258.52,176.848 257.353,178.848 257,181.5C 256.178,189.012 256.345,196.345 257.5,203.5C 257.737,206.647 258.57,209.647 260,212.5C 263.353,219.222 267.187,225.555 271.5,231.5C 271.631,232.239 271.464,232.906 271,233.5C 268.567,232.693 266.067,231.36 263.5,229.5C 249.678,211.24 247.178,191.574 256,170.5C 257.145,169.364 258.312,168.364 259.5,167.5C 260.695,167.134 261.361,166.301 261.5,165C 257.951,134.448 259.285,103.948 265.5,73.5C 267.588,71.6644 268.921,69.3311 269.5,66.5C 270.906,66.0269 271.573,65.0269 271.5,63.5C 272.906,63.0269 273.573,62.0269 273.5,60.5C 275.647,59.0679 275.98,57.2345 274.5,55C 276.785,52.7008 278.785,50.2008 280.5,47.5C 281.167,47.5 281.5,47.1667 281.5,46.5C 286.167,41.1667 291.167,36.1667 296.5,31.5C 297.167,31.5 297.5,31.1667 297.5,30.5C 298.167,30.5 298.5,30.1667 298.5,29.5C 300.191,28.1363 301.858,26.803 303.5,25.5C 304.167,25.5 304.5,25.1667 304.5,24.5C 308.915,20.959 313.915,18.459 319.5,17C 321.093,16.0513 322.426,14.8846 323.5,13.5C 324.167,13.5 324.5,13.1667 324.5,12.5C 325.167,12.5 325.5,12.1667 325.5,11.5C 326.167,11.5 326.5,11.1667 326.5,10.5C 327.167,10.5 327.5,10.1667 327.5,9.5C 328.167,9.5 328.5,9.16667 328.5,8.5C 329.167,8.5 329.5,8.16667 329.5,7.5C 331.027,7.57298 332.027,6.90632 332.5,5.5C 338.763,3.19824 345.263,1.86491 352,1.5C 358.662,2.65489 365.162,2.65489 371.5,1.5C 374.01,1.07332 376.343,0.406658 378.5,-0.5 Z"/></g>
<g><path style="opacity:0.016" fill="#180000" d="M 411.5,-0.5 C 413.833,-0.5 416.167,-0.5 418.5,-0.5C 418.5,-0.166667 418.5,0.166667 418.5,0.5C 415.941,0.801552 413.607,0.468218 411.5,-0.5 Z"/></g>
<g><path style="opacity:0.016" fill="#190000" d="M 418.5,0.5 C 420.099,0.232191 421.432,0.565525 422.5,1.5C 420.901,1.76781 419.568,1.43448 418.5,0.5 Z"/></g>
<g><path style="opacity:0.004" fill="#0f0000" d="M 422.5,1.5 C 424.553,1.40206 426.22,2.06873 427.5,3.5C 425.447,3.59794 423.78,2.93127 422.5,1.5 Z"/></g>
<g><path style="opacity:0.004" fill="#0f0000" d="M 332.5,5.5 C 330.025,5.2533 330.025,4.58664 332.5,3.5C 333.463,3.96983 333.463,4.6365 332.5,5.5 Z"/></g>
<g><path style="opacity:0.016" fill="#1c0000" d="M 427.5,3.5 C 428.492,3.32842 429.158,3.66175 429.5,4.5C 428.508,4.67158 427.842,4.33825 427.5,3.5 Z"/></g>
<g><path style="opacity:0.004" fill="#0f0000" d="M 429.5,4.5 C 431.027,4.42702 432.027,5.09368 432.5,6.5C 431.833,6.5 431.167,6.5 430.5,6.5C 430.167,5.83333 429.833,5.16667 429.5,4.5 Z"/></g>
<g><path style="opacity:1" fill="#331911" d="M 383.5,4.5 C 394.552,5.11684 405.552,6.28351 416.5,8C 424.602,9.63292 431.436,13.4663 437,19.5C 439.045,22.4233 441.212,25.2567 443.5,28C 445.995,28.1575 448.328,28.3241 450.5,28.5C 456.469,38.3006 462.636,47.9673 469,57.5C 482.872,93.4133 486.538,130.413 480,168.5C 477.667,169.5 476,171.167 475,173.5C 474.435,165.491 473.769,157.491 473,149.5C 470.25,139.744 467.25,130.077 464,120.5C 463.667,111.167 463.333,101.833 463,92.5C 460.945,76.476 452.779,64.976 438.5,58C 431.119,56.1874 423.785,56.5207 416.5,59C 406.56,62.2023 396.56,65.2023 386.5,68C 377.5,68.6667 368.5,68.6667 359.5,68C 350.315,65.9383 341.315,63.2717 332.5,60C 321.284,57.5028 310.284,58.1695 299.5,62C 289.664,69.4795 285.664,79.4795 287.5,92C 288.739,104.48 289.239,116.98 289,129.5C 284.473,144.958 280.64,160.625 277.5,176.5C 274.786,173.785 271.786,171.451 268.5,169.5C 267.702,167.922 267.202,166.256 267,164.5C 264.306,135.697 265.306,107.03 270,78.5C 273.165,72.1663 276.831,66.1663 281,60.5C 282,57.8333 283,55.1667 284,52.5C 295.249,38.2374 309.083,27.4041 325.5,20C 328.867,16.2974 332.534,12.964 336.5,10C 341.303,8.06508 346.303,7.23175 351.5,7.5C 361.839,8.3344 372.172,8.8344 382.5,9C 383.38,7.64387 383.714,6.14387 383.5,4.5 Z"/></g>
<g><path style="opacity:0.004" fill="#0f0000" d="M 432.5,7.5 C 432.5,7.16667 432.5,6.83333 432.5,6.5C 435.46,7.03204 435.793,7.69871 433.5,8.5C 432.833,8.5 432.5,8.16667 432.5,7.5 Z"/></g>
<g><path style="opacity:0.016" fill="#170000" d="M 329.5,7.5 C 328.833,7.5 328.5,7.83333 328.5,8.5C 327.833,8.5 327.5,8.83333 327.5,9.5C 326.833,9.5 326.5,9.83333 326.5,10.5C 325.833,10.5 325.5,10.8333 325.5,11.5C 324.833,11.5 324.5,11.8333 324.5,12.5C 323.833,12.5 323.5,12.8333 323.5,13.5C 322.761,13.631 322.094,13.4643 321.5,13C 323.5,11 325.5,9 327.5,7C 328.437,6.30831 329.103,6.47498 329.5,7.5 Z"/></g>
<g><path style="opacity:1" fill="#442519" d="M 363.5,12.5 C 390.95,11.0379 414.95,19.2046 435.5,37C 430.932,35.6708 426.598,33.5041 422.5,30.5C 422.167,30.6667 421.833,30.8333 421.5,31C 424.681,33.0917 427.681,35.425 430.5,38C 424.711,36.1126 419.044,33.6126 413.5,30.5C 413.511,31.4415 413.011,32.1081 412,32.5C 397.206,29.0629 382.373,25.8963 367.5,23C 371.5,22.3333 375.5,21.6667 379.5,21C 369.758,20.4125 360.092,20.7458 350.5,22C 353.948,20.0728 357.615,18.7394 361.5,18C 352.98,17.717 344.647,18.8837 336.5,21.5C 335.304,21.1543 335.304,20.6543 336.5,20C 345.328,16.3799 354.328,13.8799 363.5,12.5 Z"/></g>
<g><path style="opacity:0.016" fill="#180500" d="M 445.5,14.5 C 443.833,14.5 442.167,14.5 440.5,14.5C 442.167,11.8333 443.833,11.8333 445.5,14.5 Z"/></g>
<g><path style="opacity:0.016" fill="#160400" d="M 445.5,15.5 C 445.5,15.1667 445.5,14.8333 445.5,14.5C 447.196,14.6854 448.529,15.5187 449.5,17C 448.906,17.4643 448.239,17.631 447.5,17.5C 446.833,17.5 446.5,17.1667 446.5,16.5C 445.833,16.5 445.5,16.1667 445.5,15.5 Z"/></g>
<g><path style="opacity:0.004" fill="#000000" d="M 451.5,17.5 C 452.833,18.1667 452.833,18.1667 451.5,17.5 Z"/></g>
<g><path style="opacity:0.004" fill="#000000" d="M 456.5,22.5 C 457.833,23.1667 457.833,23.1667 456.5,22.5 Z"/></g>
<g><path style="opacity:0.016" fill="#1c0300" d="M 304.5,24.5 C 303.833,24.5 303.5,24.8333 303.5,25.5C 301.025,25.2533 301.025,24.5866 303.5,23.5C 304.107,23.6236 304.44,23.9569 304.5,24.5 Z"/></g>
<g><path style="opacity:0.004" fill="#110800" d="M 456.5,23.5 C 457.141,24.4822 457.807,25.4822 458.5,26.5C 458.376,27.1067 458.043,27.44 457.5,27.5C 456.833,27.5 456.5,27.1667 456.5,26.5C 455.833,26.5 455.5,26.1667 455.5,25.5C 455.328,24.5084 455.662,23.8417 456.5,23.5 Z"/></g>
<g><path style="opacity:1" fill="#432518" d="M 356.5,24.5 C 370.922,25.9283 385.255,28.095 399.5,31C 403.167,32.6667 406.833,34.3333 410.5,36C 415.484,38.8313 420.151,42.1647 424.5,46C 416.206,41.8642 407.539,38.1975 398.5,35C 390.882,33.626 383.215,32.626 375.5,32C 372.298,31.4532 369.298,30.4532 366.5,29C 356.709,28.4927 347.209,29.9927 338,33.5C 337.5,33.3333 337,33.1667 336.5,33C 343.12,29.851 349.787,27.0176 356.5,24.5 Z"/></g>
<g><path style="opacity:0.016" fill="#1a0400" d="M 298.5,29.5 C 297.833,29.5 297.5,29.8333 297.5,30.5C 296.833,30.5 296.5,30.8333 296.5,31.5C 294.408,30.7145 294.741,29.7145 297.5,28.5C 298.107,28.6236 298.44,28.9569 298.5,29.5 Z"/></g>
<g><path style="opacity:0.004" fill="#0a0700" d="M 461.5,34.5 C 461.672,33.5084 461.338,32.8417 460.5,32.5C 460.393,30.6214 460.893,30.2881 462,31.5C 462.5,32.5 463,33.5 463.5,34.5C 463.03,35.463 462.363,35.463 461.5,34.5 Z"/></g>
<g><path style="opacity:0.016" fill="#190000" d="M 281.5,46.5 C 280.833,46.5 280.5,46.8333 280.5,47.5C 279.287,46.5029 279.454,45.5029 281,44.5C 281.464,45.0944 281.631,45.7611 281.5,46.5 Z"/></g>
<g><path style="opacity:0.016" fill="#190000" d="M 472.5,49.5 C 471.833,49.1667 471.167,48.8333 470.5,48.5C 471.301,46.2071 471.968,46.5404 472.5,49.5 Z"/></g>
<g><path style="opacity:1" fill="#442519" d="M 357.5,40.5 C 376.773,37.9737 393.439,43.1403 407.5,56C 404.161,54.8364 400.827,53.3364 397.5,51.5C 397.167,51.6667 396.833,51.8333 396.5,52C 397.5,53 398.5,54 399.5,55C 399.167,55.1667 398.833,55.3333 398.5,55.5C 394.065,53.38 389.399,52.2134 384.5,52C 387.994,53.5795 391.327,55.4128 394.5,57.5C 395.833,58.1667 395.833,58.8333 394.5,59.5C 385.735,55.1441 376.401,52.8107 366.5,52.5C 353.854,54.2209 341.188,55.3876 328.5,56C 325.048,55.1083 322.048,53.4416 319.5,51C 330.208,53.1104 340.875,52.4437 351.5,49C 358.167,48.6667 364.833,48.3333 371.5,48C 367.656,46.5179 363.656,45.6845 359.5,45.5C 352.127,46.0721 344.793,46.5721 337.5,47C 343.992,43.8906 350.658,41.724 357.5,40.5 Z"/></g>
<g><path style="opacity:0.004" fill="#0f0000" d="M 472.5,49.5 C 475.187,51.3939 475.187,52.0606 472.5,51.5C 472.5,50.8333 472.5,50.1667 472.5,49.5 Z"/></g>
<g><path style="opacity:0.035" fill="#160800" d="M 273.5,60.5 C 272.833,60.8333 272.167,61.1667 271.5,61.5C 272.032,58.5404 272.699,58.2071 273.5,60.5 Z"/></g>
<g><path style="opacity:0.035" fill="#160800" d="M 271.5,61.5 C 271.5,62.1667 271.5,62.8333 271.5,63.5C 270.833,63.8333 270.167,64.1667 269.5,64.5C 269.427,62.9731 270.094,61.9731 271.5,61.5 Z"/></g>
<g><path style="opacity:1" fill="#ac7460" d="M 334.5,65.5 C 324.496,64.198 314.496,64.198 304.5,65.5C 305.263,64.7321 306.263,64.2321 307.5,64C 311.333,63.8333 315.167,63.6667 319,63.5C 324.432,63.2814 329.599,63.9481 334.5,65.5 Z"/></g>
<g><path style="opacity:0.016" fill="#190000" d="M 269.5,64.5 C 269.5,65.1667 269.5,65.8333 269.5,66.5C 266.813,67.0606 266.813,66.3939 269.5,64.5 Z"/></g>
<g><path style="opacity:1" fill="#d9947e" d="M 435.5,61.5 C 446.648,65.75 453.648,73.75 456.5,85.5C 457.768,97.1861 457.768,108.853 456.5,120.5C 457.213,122.776 457.713,125.109 458,127.5C 458.333,126.5 458.667,125.5 459,124.5C 459.278,125.416 459.778,126.082 460.5,126.5C 461.687,128.072 462.687,129.739 463.5,131.5C 464.167,134.5 464.833,137.5 465.5,140.5C 465.887,147.123 466.054,153.79 466,160.5C 466.333,157.167 466.667,153.833 467,150.5C 467.835,159.357 469.002,168.023 470.5,176.5C 470.811,186.255 470.145,195.922 468.5,205.5C 462.356,213.098 457.19,221.431 453,230.5C 451.042,237.958 448.709,245.291 446,252.5C 445.261,253.574 444.261,254.241 443,254.5C 441.357,253.685 439.857,252.685 438.5,251.5C 435.871,248.369 433.038,245.369 430,242.5C 429.209,241.255 428.709,239.922 428.5,238.5C 429.942,237.18 430.608,235.514 430.5,233.5C 432.837,235.965 434.337,238.965 435,242.5C 435.793,239.259 435.293,236.259 433.5,233.5C 437.602,225.548 443.436,218.882 451,213.5C 456.303,205.29 457.97,196.29 456,186.5C 455.439,185.978 454.772,185.645 454,185.5C 451.224,186.805 448.39,187.971 445.5,189C 428.794,191.388 412.961,188.888 398,181.5C 397.34,184.047 397.507,186.547 398.5,189C 398.167,189.5 397.833,190 397.5,190.5C 396.571,189.311 396.238,187.978 396.5,186.5C 396.109,178.369 393.942,170.703 390,163.5C 389.771,160.265 389.604,157.265 389.5,154.5C 391.86,152.135 393.86,149.468 395.5,146.5C 396.577,145.295 397.91,144.628 399.5,144.5C 399.261,146.467 399.594,148.301 400.5,150C 404.85,150.368 409.183,150.868 413.5,151.5C 429.667,147.473 444,150.806 456.5,161.5C 457.659,157.878 457.825,154.211 457,150.5C 449.211,142.122 439.544,138.456 428,139.5C 420.753,139.459 413.586,140.126 406.5,141.5C 408.148,140.073 410.148,139.24 412.5,139C 411.5,138.667 410.5,138.333 409.5,138C 414.112,128.357 415.612,118.191 414,107.5C 411.203,94.3121 406.869,81.6455 401,69.5C 399.644,70.3802 398.144,70.7135 396.5,70.5C 408.726,64.5284 421.726,61.5284 435.5,61.5 Z"/></g>
<g><path style="opacity:1" fill="#e8a289" d="M 334.5,65.5 C 339.654,66.7051 344.654,68.3718 349.5,70.5C 351.216,70.6287 352.883,70.962 354.5,71.5C 356.476,73.0109 358.809,73.8442 361.5,74C 371.203,74.7443 380.87,74.411 390.5,73C 391.416,72.7216 392.082,72.2216 392.5,71.5C 393.568,70.5655 394.901,70.2322 396.5,70.5C 398.144,70.7135 399.644,70.3802 401,69.5C 406.869,81.6455 411.203,94.3121 414,107.5C 415.612,118.191 414.112,128.357 409.5,138C 410.5,138.333 411.5,138.667 412.5,139C 410.148,139.24 408.148,140.073 406.5,141.5C 403.904,142.055 401.571,143.055 399.5,144.5C 397.91,144.628 396.577,145.295 395.5,146.5C 393.86,149.468 391.86,152.135 389.5,154.5C 387.581,158.269 387.081,162.269 388,166.5C 390.61,173.372 393.443,180.038 396.5,186.5C 396.238,187.978 396.571,189.311 397.5,190.5C 397.833,190 398.167,189.5 398.5,189C 397.507,186.547 397.34,184.047 398,181.5C 412.961,188.888 428.794,191.388 445.5,189C 448.39,187.971 451.224,186.805 454,185.5C 454.772,185.645 455.439,185.978 456,186.5C 457.97,196.29 456.303,205.29 451,213.5C 443.436,218.882 437.602,225.548 433.5,233.5C 432.542,233.047 431.708,232.381 431,231.5C 430.536,232.094 430.369,232.761 430.5,233.5C 430.608,235.514 429.942,237.18 428.5,238.5C 425.938,235.777 422.938,233.611 419.5,232C 409.885,227.76 399.885,225.76 389.5,226C 386.331,226.834 383.164,227.668 380,228.5C 368.164,224.09 356.664,224.924 345.5,231C 339.316,233.054 333.816,236.22 329,240.5C 327.333,244.5 325.667,248.5 324,252.5C 323.221,253.728 322.221,254.728 321,255.5C 318.566,253.993 316.566,251.993 315,249.5C 306.576,233.259 296.076,218.592 283.5,205.5C 283.5,204.5 283.5,203.5 283.5,202.5C 283.381,191.482 283.714,180.482 284.5,169.5C 285.647,158.091 288.313,147.091 292.5,136.5C 293.222,136.082 293.722,135.416 294,134.5C 294.82,127.986 294.653,121.653 293.5,115.5C 292.581,103.178 292.414,90.8444 293,78.5C 294.546,72.1221 298.379,67.7888 304.5,65.5C 314.496,64.198 324.496,64.198 334.5,65.5 Z"/></g>
<g><path style="opacity:1" fill="#050100" d="M 435.5,61.5 C 421.726,61.5284 408.726,64.5284 396.5,70.5C 394.901,70.2322 393.568,70.5655 392.5,71.5C 379.816,73.9786 367.15,73.9786 354.5,71.5C 352.883,70.962 351.216,70.6287 349.5,70.5C 349.917,69.8761 350.584,69.5427 351.5,69.5C 363.082,72.4327 374.749,72.9327 386.5,71C 399.65,66.7286 412.983,63.062 426.5,60C 429.5,59.3333 432.5,59.3333 435.5,60C 439.449,60.8068 439.449,61.3068 435.5,61.5 Z"/></g>
<g><path style="opacity:0.004" fill="#0d0000" d="M 265.5,73.5 C 263.868,76.2087 263.368,75.8753 264,72.5C 265.107,71.2881 265.607,71.6214 265.5,73.5 Z"/></g>
<g><path style="opacity:0.004" fill="#0c0000" d="M 481.5,69.5 C 483.088,71.5273 483.588,73.8606 483,76.5C 482.023,74.26 481.523,71.9267 481.5,69.5 Z"/></g>
<g><path style="opacity:1" fill="#ab7360" d="M 354.5,71.5 C 367.15,73.9786 379.816,73.9786 392.5,71.5C 392.082,72.2216 391.416,72.7216 390.5,73C 380.87,74.411 371.203,74.7443 361.5,74C 358.809,73.8442 356.476,73.0109 354.5,71.5 Z"/></g>
<g><path style="opacity:0.004" fill="#0d0000" d="M 260.5,83.5 C 261.533,88.0317 261.366,92.6984 260,97.5C 259.831,92.8391 259.997,88.1724 260.5,83.5 Z"/></g>
<g><path style="opacity:1" fill="#b07763" d="M 456.5,85.5 C 457.268,86.2625 457.768,87.2625 458,88.5C 458.042,101.244 458.875,113.911 460.5,126.5C 459.778,126.082 459.278,125.416 459,124.5C 458.667,125.5 458.333,126.5 458,127.5C 457.713,125.109 457.213,122.776 456.5,120.5C 457.768,108.853 457.768,97.1861 456.5,85.5 Z"/></g>
<g><path style="opacity:0.004" fill="#000000" d="M 488.5,99.5 C 492.323,121.319 492.489,143.319 489,165.5C 489.304,154.68 489.804,143.846 490.5,133C 489.961,121.821 489.294,110.655 488.5,99.5 Z"/></g>
<g><path style="opacity:1" fill="#9d6a57" d="M 293.5,115.5 C 294.653,121.653 294.82,127.986 294,134.5C 293.722,135.416 293.222,136.082 292.5,136.5C 293.341,129.535 293.674,122.535 293.5,115.5 Z"/></g>
<g><path style="opacity:1" fill="#301911" d="M 399.5,144.5 C 401.571,143.055 403.904,142.055 406.5,141.5C 413.586,140.126 420.753,139.459 428,139.5C 439.544,138.456 449.211,142.122 457,150.5C 457.825,154.211 457.659,157.878 456.5,161.5C 444,150.806 429.667,147.473 413.5,151.5C 409.183,150.868 404.85,150.368 400.5,150C 399.594,148.301 399.261,146.467 399.5,144.5 Z"/></g>
<g><path style="opacity:1" fill="#2f1911" d="M 362.5,146.5 C 363.157,149.841 361.824,151.841 358.5,152.5C 346.205,152.584 333.872,152.75 321.5,153C 315.084,155.632 309.084,158.799 303.5,162.5C 303.833,159.167 304.167,155.833 304.5,152.5C 312.507,142.258 323.174,138.258 336.5,140.5C 341.491,141.09 346.491,141.59 351.5,142C 354.533,143.844 357.866,144.844 361.5,145C 362.056,145.383 362.389,145.883 362.5,146.5 Z"/></g>
<g><path style="opacity:1" fill="#b07763" d="M 465.5,140.5 C 467.421,144.509 468.588,148.843 469,153.5C 469.679,161.159 470.179,168.826 470.5,176.5C 469.002,168.023 467.835,159.357 467,150.5C 466.667,153.833 466.333,157.167 466,160.5C 466.054,153.79 465.887,147.123 465.5,140.5 Z"/></g>
<g><path style="opacity:1" fill="#d5917b" d="M 362.5,146.5 C 363.533,147.912 364.199,149.578 364.5,151.5C 363.297,156.82 363.297,162.153 364.5,167.5C 363.205,177.333 357.538,181.667 347.5,180.5C 340.175,179.645 332.842,179.478 325.5,180C 317.529,182.268 309.529,184.435 301.5,186.5C 300.833,186.333 300.167,186.167 299.5,186C 303.016,182.651 306.349,179.151 309.5,175.5C 307.543,173.515 305.21,172.015 302.5,171C 299.806,168.347 298.973,165.18 300,161.5C 301.816,158.558 303.316,155.558 304.5,152.5C 304.167,155.833 303.833,159.167 303.5,162.5C 309.084,158.799 315.084,155.632 321.5,153C 333.872,152.75 346.205,152.584 358.5,152.5C 361.824,151.841 363.157,149.841 362.5,146.5 Z"/></g>
<g><path style="opacity:1" fill="#1c120c" d="M 332.5,154.5 C 340.354,153.968 348.02,154.802 355.5,157C 353.915,157.085 352.582,157.251 351.5,157.5C 354.756,159.711 357.922,162.045 361,164.5C 361.667,165.5 361.667,166.5 361,167.5C 348.224,171.046 335.391,171.213 322.5,168C 321.5,167.5 320.5,167 319.5,166.5C 318.479,165.998 318.312,165.332 319,164.5C 321.953,162.274 325.12,160.441 328.5,159C 326.5,159 324.5,159 322.5,159C 325.775,157.194 329.109,155.694 332.5,154.5 Z"/></g>
<g><path style="opacity:1" fill="#f6f5f4" d="M 336.5,159.5 C 337.167,159.5 337.833,159.5 338.5,159.5C 338.5,160.833 337.833,161.5 336.5,161.5C 336.5,160.833 336.5,160.167 336.5,159.5 Z"/></g>
<g><path style="opacity:1" fill="#7a7673" d="M 338.5,159.5 C 339.391,160.261 340.058,161.261 340.5,162.5C 340.043,163.298 339.376,163.631 338.5,163.5C 337.833,162.833 337.167,162.167 336.5,161.5C 337.833,161.5 338.5,160.833 338.5,159.5 Z"/></g>
<g><path style="opacity:1" fill="#9a9694" d="M 332.5,163.5 C 330.302,163.12 328.635,163.787 327.5,165.5C 326.427,164.749 326.26,163.749 327,162.5C 328.584,161.139 330.418,160.472 332.5,160.5C 332.5,161.5 332.5,162.5 332.5,163.5 Z"/></g>
<g><path style="opacity:1" fill="#d3d1d0" d="M 348.5,159.5 C 356.32,162.272 356.32,164.939 348.5,167.5C 348.051,164.956 348.051,162.29 348.5,159.5 Z"/></g>
<g><path style="opacity:1" fill="#1d130e" d="M 419.5,152.5 C 427.29,152.52 434.624,154.354 441.5,158C 440.5,158.333 439.5,158.667 438.5,159C 440.167,160.167 441.833,161.333 443.5,162.5C 444.731,163.651 444.731,164.817 443.5,166C 437.819,168.753 431.819,169.92 425.5,169.5C 417.172,168.723 408.839,168.056 400.5,167.5C 400.393,165.097 401.393,163.264 403.5,162C 406.833,160 410.167,158 413.5,156C 411.069,155.748 408.735,156.248 406.5,157.5C 405.304,157.154 405.304,156.654 406.5,156C 410.897,154.628 415.231,153.462 419.5,152.5 Z"/></g>
<g><path style="opacity:1" fill="#f2f2f1" d="M 435.5,165.5 C 435.389,166.117 435.056,166.617 434.5,167C 429.273,168.557 427.94,167.39 430.5,163.5C 433.441,160.593 435.107,161.26 435.5,165.5 Z"/></g>
<g><path style="opacity:1" fill="#a5a2a0" d="M 414.5,161.5 C 412.158,161.504 410.158,162.337 408.5,164C 409.416,164.278 410.082,164.778 410.5,165.5C 409.5,165.5 408.5,165.5 407.5,165.5C 408.005,161.988 410.005,159.655 413.5,158.5C 414.386,159.325 414.719,160.325 414.5,161.5 Z"/></g>
<g><path style="opacity:1" fill="#a19e9b" d="M 435.5,165.5 C 435.107,161.26 433.441,160.593 430.5,163.5C 430.205,157.571 432.038,156.904 436,161.5C 436.765,163.066 436.598,164.399 435.5,165.5 Z"/></g>
<g><path style="opacity:1" fill="#e1dfde" d="M 418.5,158.5 C 419.675,158.281 420.675,158.614 421.5,159.5C 419.948,160.798 418.948,160.465 418.5,158.5 Z"/></g>
<g><path style="opacity:1" fill="#eceaea" d="M 414.5,161.5 C 417.621,166.409 416.288,167.743 410.5,165.5C 410.082,164.778 409.416,164.278 408.5,164C 410.158,162.337 412.158,161.504 414.5,161.5 Z"/></g>
<g><path style="opacity:1" fill="#dbd9d8" d="M 332.5,163.5 C 332.932,164.71 333.599,165.71 334.5,166.5C 334.53,167.497 334.03,168.164 333,168.5C 330.552,168.301 328.719,167.301 327.5,165.5C 328.635,163.787 330.302,163.12 332.5,163.5 Z"/></g>
<g><path style="opacity:0.004" fill="#0a0000" d="M 259.5,167.5 C 258.761,167.631 258.094,167.464 257.5,167C 258.282,164.26 258.782,161.426 259,158.5C 259.498,161.482 259.665,164.482 259.5,167.5 Z"/></g>
<g><path style="opacity:1" fill="#42271b" d="M 336.5,159.5 C 336.5,160.167 336.5,160.833 336.5,161.5C 337.167,162.167 337.833,162.833 338.5,163.5C 342.135,166.51 343.802,165.51 343.5,160.5C 344.5,160.5 345.5,160.5 346.5,160.5C 346.5,162.5 346.5,164.5 346.5,166.5C 344.325,166.682 342.325,167.349 340.5,168.5C 338.675,167.349 336.675,166.682 334.5,166.5C 334.171,163.772 334.837,161.438 336.5,159.5 Z"/></g>
<g><path style="opacity:0.004" fill="#000000" d="M 491.5,169.5 C 490.833,168.167 490.833,168.167 491.5,169.5 Z"/></g>
<g><path style="opacity:0.004" fill="#000000" d="M 491.5,169.5 C 492.833,170.167 492.833,170.167 491.5,169.5 Z"/></g>
<g><path style="opacity:0.004" fill="#000000" d="M 253.5,170.5 C 254.833,171.167 254.833,171.167 253.5,170.5 Z"/></g>
<g><path style="opacity:0.004" fill="#000000" d="M 253.5,171.5 C 253.672,172.492 253.338,173.158 252.5,173.5C 252.328,172.508 252.662,171.842 253.5,171.5 Z"/></g>
<g><path style="opacity:0.004" fill="#000000" d="M 252.5,173.5 C 252.672,174.492 252.338,175.158 251.5,175.5C 251.328,174.508 251.662,173.842 252.5,173.5 Z"/></g>
<g><path style="opacity:1" fill="#4a3127" d="M 351.5,171.5 C 353.735,172.248 353.402,173.081 350.5,174C 348.167,174.667 345.833,174.667 343.5,174C 346.166,172.939 348.833,172.106 351.5,171.5 Z"/></g>
<g><path style="opacity:1" fill="#0f0502" d="M 412.5,173.5 C 412.735,172.903 413.235,172.57 414,172.5C 415.811,173.078 417.645,173.578 419.5,174C 417.115,174.556 414.782,174.39 412.5,173.5 Z"/></g>
<g><path style="opacity:1" fill="#cf8f78" d="M 487.5,177.5 C 481.877,179.79 477.877,183.79 475.5,189.5C 474.637,187.229 474.637,184.895 475.5,182.5C 477.35,179.313 479.35,176.147 481.5,173C 485.036,172.362 487.036,173.862 487.5,177.5 Z"/></g>
<g><path style="opacity:0.016" fill="#120000" d="M 493.5,175.5 C 493.351,174.448 493.517,173.448 494,172.5C 494.74,173.749 494.573,174.749 493.5,175.5 Z"/></g>
<g><path style="opacity:0.004" fill="#000000" d="M 251.5,175.5 C 251.11,178.839 250.61,182.173 250,185.5C 249.163,181.852 249.663,178.519 251.5,175.5 Z"/></g>
<g><path style="opacity:1" fill="#170c06" d="M 389.5,154.5 C 389.604,157.265 389.771,160.265 390,163.5C 393.942,170.703 396.109,178.369 396.5,186.5C 393.443,180.038 390.61,173.372 388,166.5C 387.081,162.269 387.581,158.269 389.5,154.5 Z"/></g>
<g><path style="opacity:0.016" fill="#1a0000" d="M 494.5,176.5 C 495.622,178.288 495.789,180.288 495,182.5C 494.505,180.527 494.338,178.527 494.5,176.5 Z"/></g>
<g><path style="opacity:1" fill="#d3907a" d="M 260.5,175.5 C 267.836,184.178 274.169,193.511 279.5,203.5C 280.073,208.847 280.74,214.18 281.5,219.5C 280.224,217.438 279.39,215.104 279,212.5C 271.291,205.458 264.291,197.792 258,189.5C 257.501,194.155 257.334,198.821 257.5,203.5C 256.345,196.345 256.178,189.012 257,181.5C 257.353,178.848 258.52,176.848 260.5,175.5 Z"/></g>
<g><path style="opacity:1" fill="#d3927b" d="M 260.5,175.5 C 261.072,172.756 262.738,171.923 265.5,173C 269.759,176.381 273.926,179.881 278,183.5C 278.937,192.741 277.603,193.408 274,185.5C 270.448,180.767 265.948,177.434 260.5,175.5 Z"/></g>
<g><path style="opacity:0.016" fill="#180000" d="M 495.5,183.5 C 496.655,190.321 496.821,197.321 496,204.5C 495.5,197.508 495.334,190.508 495.5,183.5 Z"/></g>
<g><path style="opacity:0.004" fill="#000000" d="M 248.5,187.5 C 249.643,190.976 249.81,194.642 249,198.5C 248.501,194.848 248.335,191.182 248.5,187.5 Z"/></g>
<g><path style="opacity:1" fill="#e5a087" d="M 281.5,219.5 C 282.978,224.042 283.478,228.709 283,233.5C 278.684,235.234 274.851,234.567 271.5,231.5C 267.187,225.555 263.353,219.222 260,212.5C 258.57,209.647 257.737,206.647 257.5,203.5C 257.334,198.821 257.501,194.155 258,189.5C 264.291,197.792 271.291,205.458 279,212.5C 279.39,215.104 280.224,217.438 281.5,219.5 Z"/></g>
<g><path style="opacity:1" fill="#9d6956" d="M 284.5,169.5 C 283.714,180.482 283.381,191.482 283.5,202.5C 282.834,198.18 282.501,193.68 282.5,189C 282.314,182.262 282.981,175.762 284.5,169.5 Z"/></g>
<g><path style="opacity:1" fill="#db9780" d="M 488.5,178.5 C 488.198,181.059 488.532,183.393 489.5,185.5C 491.804,201.517 487.637,215.517 477,227.5C 476.952,232.658 474.452,235.325 469.5,235.5C 468.997,216.499 473.497,198.832 483,182.5C 484.451,180.536 486.284,179.203 488.5,178.5 Z"/></g>
<g><path style="opacity:1" fill="#1e130d" d="M 405.5,220.5 C 404.127,220.657 402.793,220.49 401.5,220C 407.095,217.646 408.928,213.479 407,207.5C 405.301,204.079 403.135,201.079 400.5,198.5C 400.369,197.761 400.536,197.094 401,196.5C 404.342,199.509 407.342,202.843 410,206.5C 410.667,209.833 410.667,213.167 410,216.5C 409.208,218.644 407.708,219.977 405.5,220.5 Z"/></g>
<g><path style="opacity:0.004" fill="#000000" d="M 252.5,213.5 C 250.108,209.919 249.275,205.919 250,201.5C 250.837,205.514 251.671,209.514 252.5,213.5 Z"/></g>
<g><path style="opacity:1" fill="#d3907a" d="M 400.5,198.5 C 403.135,201.079 405.301,204.079 407,207.5C 408.928,213.479 407.095,217.646 401.5,220C 402.793,220.49 404.127,220.657 405.5,220.5C 399.204,222.659 392.871,222.992 386.5,221.5C 390.012,216.905 394.678,214.071 400.5,213C 394.277,211.776 388.944,213.443 384.5,218C 381.5,218.667 378.5,218.667 375.5,218C 372.244,214.369 368.244,213.036 363.5,214C 367.07,214.611 369.737,216.444 371.5,219.5C 365.864,221.689 360.198,222.023 354.5,220.5C 358.893,220.543 359.226,220.043 355.5,219C 353.643,217.818 352.643,216.151 352.5,214C 353.604,209.457 355.271,205.124 357.5,201C 357.43,200.235 357.097,199.735 356.5,199.5C 357.14,197.668 358.14,197.335 359.5,198.5C 359.966,202.071 361.466,205.071 364,207.5C 365.784,205.633 367.784,203.966 370,202.5C 372.198,205.087 374.031,207.921 375.5,211C 384.488,214.21 392.321,212.377 399,205.5C 399.44,203.134 399.94,200.801 400.5,198.5 Z"/></g>
<g><path style="opacity:0.016" fill="#160000" d="M 494.5,205.5 C 495.833,207.167 495.833,208.833 494.5,210.5C 494.5,208.833 494.5,207.167 494.5,205.5 Z"/></g>
<g><path style="opacity:1" fill="#160b06" d="M 356.5,199.5 C 357.097,199.735 357.43,200.235 357.5,201C 355.271,205.124 353.604,209.457 352.5,214C 352.643,216.151 353.643,217.818 355.5,219C 359.226,220.043 358.893,220.543 354.5,220.5C 349.504,217.407 348.337,213.074 351,207.5C 353.054,204.953 354.887,202.286 356.5,199.5 Z"/></g>
<g><path style="opacity:0.016" fill="#120000" d="M 493.5,210.5 C 493.833,210.5 494.167,210.5 494.5,210.5C 494.737,211.791 494.404,212.791 493.5,213.5C 493.5,212.5 493.5,211.5 493.5,210.5 Z"/></g>
<g><path style="opacity:0.004" fill="#000000" d="M 252.5,213.5 C 253.404,214.209 253.737,215.209 253.5,216.5C 252.596,215.791 252.263,214.791 252.5,213.5 Z"/></g>
<g><path style="opacity:0.004" fill="#000000" d="M 492.5,213.5 C 492.833,213.5 493.167,213.5 493.5,213.5C 493.167,216.167 492.833,216.167 492.5,213.5 Z"/></g>
<g><path style="opacity:0.004" fill="#000000" d="M 253.5,216.5 C 254.338,216.842 254.672,217.508 254.5,218.5C 253.662,218.158 253.328,217.492 253.5,216.5 Z"/></g>
<g><path style="opacity:0.004" fill="#000000" d="M 491.5,216.5 C 492.833,217.167 492.833,217.167 491.5,216.5 Z"/></g>
<g><path style="opacity:0.004" fill="#000000" d="M 254.5,218.5 C 255.167,218.5 255.5,218.833 255.5,219.5C 255.167,219.167 254.833,218.833 254.5,218.5 Z"/></g>
<g><path style="opacity:0.004" fill="#000000" d="M 490.5,220.5 C 490.369,219.761 490.536,219.094 491,218.5C 491.692,219.437 491.525,220.103 490.5,220.5 Z"/></g>
<g><path style="opacity:0.004" fill="#000000" d="M 255.5,219.5 C 256.338,219.842 256.672,220.508 256.5,221.5C 255.662,221.158 255.328,220.492 255.5,219.5 Z"/></g>
<g><path style="opacity:0.004" fill="#000000" d="M 490.5,220.5 C 489.833,221.167 489.833,221.167 490.5,220.5 Z"/></g>
<g><path style="opacity:0.004" fill="#000000" d="M 256.5,221.5 C 257.338,221.842 257.672,222.508 257.5,223.5C 256.662,223.158 256.328,222.492 256.5,221.5 Z"/></g>
<g><path style="opacity:0.004" fill="#000000" d="M 257.5,223.5 C 258.167,223.5 258.5,223.833 258.5,224.5C 258.167,224.167 257.833,223.833 257.5,223.5 Z"/></g>
<g><path style="opacity:0.004" fill="#000000" d="M 258.5,224.5 C 259.338,224.842 259.672,225.508 259.5,226.5C 258.662,226.158 258.328,225.492 258.5,224.5 Z"/></g>
<g><path style="opacity:0.016" fill="#1c0000" d="M 259.5,226.5 C 260.833,227.167 260.833,227.167 259.5,226.5 Z"/></g>
<g><path style="opacity:0.004" fill="#0d0000" d="M 263.5,230.5 C 263.5,231.167 263.833,231.5 264.5,231.5C 264.5,232.167 264.833,232.5 265.5,232.5C 264.714,234.592 263.714,234.259 262.5,231.5C 262.624,230.893 262.957,230.56 263.5,230.5 Z"/></g>
<g><path style="opacity:0.834" fill="#1b0d05" d="M 463.5,131.5 C 466.734,137.705 468.901,144.371 470,151.5C 470.773,161.672 471.607,171.838 472.5,182C 471.187,195.188 469.687,208.354 468,221.5C 467.333,226.167 467.333,230.833 468,235.5C 468.65,223.462 470.483,211.629 473.5,200C 471.948,193.797 472.615,187.963 475.5,182.5C 474.637,184.895 474.637,187.229 475.5,189.5C 477.877,183.79 481.877,179.79 487.5,177.5C 488.167,177.5 488.5,177.833 488.5,178.5C 486.284,179.203 484.451,180.536 483,182.5C 473.497,198.832 468.997,216.499 469.5,235.5C 474.452,235.325 476.952,232.658 477,227.5C 487.637,215.517 491.804,201.517 489.5,185.5C 490.836,193.379 490.669,201.379 489,209.5C 485.035,217.624 480.868,225.624 476.5,233.5C 476.942,234.739 477.609,235.739 478.5,236.5C 478.218,237.778 477.551,238.778 476.5,239.5C 475.833,239.5 475.5,239.833 475.5,240.5C 471.5,240.833 471.5,241.167 475.5,241.5C 474.791,242.404 473.791,242.737 472.5,242.5C 472.169,248.654 471.003,254.654 469,260.5C 470.182,253.91 470.849,247.243 471,240.5C 469.636,248.955 467.802,257.288 465.5,265.5C 464.069,266.78 463.402,268.447 463.5,270.5C 462.839,272.134 462.506,273.967 462.5,276C 463.304,290.834 464.138,305.667 465,320.5C 465.057,322.91 466.224,324.244 468.5,324.5C 468.842,325.338 469.508,325.672 470.5,325.5C 472.663,327.083 474.996,328.416 477.5,329.5C 485.66,334.748 493.993,339.748 502.5,344.5C 502.973,345.906 503.973,346.573 505.5,346.5C 508.475,349.323 511.808,351.656 515.5,353.5C 515.5,354.167 515.833,354.5 516.5,354.5C 516.5,355.167 516.833,355.5 517.5,355.5C 520.387,359.052 524.053,361.385 528.5,362.5C 531.751,364.957 535.418,366.624 539.5,367.5C 539.842,368.338 540.508,368.672 541.5,368.5C 544.088,370.625 547.088,371.958 550.5,372.5C 550.842,373.338 551.508,373.672 552.5,373.5C 552.842,374.338 553.508,374.672 554.5,374.5C 557.088,376.592 560.088,377.925 563.5,378.5C 563.842,379.338 564.508,379.672 565.5,379.5C 565.842,380.338 566.508,380.672 567.5,380.5C 570.256,382.204 573.256,383.537 576.5,384.5C 576.842,385.338 577.508,385.672 578.5,385.5C 578.842,386.338 579.508,386.672 580.5,386.5C 583.314,388.07 586.314,389.403 589.5,390.5C 589.842,391.338 590.508,391.672 591.5,391.5C 594.979,393.403 598.646,395.07 602.5,396.5C 602.842,397.338 603.508,397.672 604.5,397.5C 611.309,401.07 618.309,404.403 625.5,407.5C 631.849,411.341 638.516,414.675 645.5,417.5C 646.659,419.25 648.326,420.25 650.5,420.5C 650.973,421.906 651.973,422.573 653.5,422.5C 653.5,423.167 653.833,423.5 654.5,423.5C 655.262,425.262 656.596,426.262 658.5,426.5C 658.5,427.167 658.833,427.5 659.5,427.5C 659.5,428.167 659.833,428.5 660.5,428.5C 660.5,429.167 660.833,429.5 661.5,429.5C 664.936,433.057 668.603,436.391 672.5,439.5C 672.5,440.167 672.833,440.5 673.5,440.5C 673.5,441.167 673.833,441.5 674.5,441.5C 674.5,442.167 674.833,442.5 675.5,442.5C 675.5,443.167 675.833,443.5 676.5,443.5C 676.5,444.167 676.833,444.5 677.5,444.5C 677.5,445.167 677.833,445.5 678.5,445.5C 678.5,446.167 678.833,446.5 679.5,446.5C 679.5,447.167 679.833,447.5 680.5,447.5C 680.5,448.167 680.833,448.5 681.5,448.5C 681.5,449.167 681.833,449.5 682.5,449.5C 682.5,450.167 682.833,450.5 683.5,450.5C 688.195,455.526 692.861,460.526 697.5,465.5C 697.5,466.167 697.833,466.5 698.5,466.5C 698.5,467.167 698.833,467.5 699.5,467.5C 700.604,469.389 701.937,471.055 703.5,472.5C 703.5,473.167 703.833,473.5 704.5,473.5C 704.328,474.492 704.662,475.158 705.5,475.5C 705.5,476.167 705.833,476.5 706.5,476.5C 706.328,477.492 706.662,478.158 707.5,478.5C 708.11,480.434 709.11,482.101 710.5,483.5C 711.11,485.434 712.11,487.101 713.5,488.5C 714.079,491.331 715.412,493.664 717.5,495.5C 718.41,498.992 720.076,501.992 722.5,504.5C 726.988,514.145 731.488,523.812 736,533.5C 739.571,546.038 743.404,558.371 747.5,570.5C 747.5,570.833 747.5,571.167 747.5,571.5C 745.5,571.5 743.5,571.5 741.5,571.5C 732.304,533.78 716.138,499.447 693,468.5C 682.167,457.667 671.333,446.833 660.5,436C 654.448,430.947 648.115,426.281 641.5,422C 602.898,402.755 563.898,384.589 524.5,367.5C 519.303,401.886 505.47,432.219 483,458.5C 451.912,493.275 416.412,522.442 376.5,546C 374.833,546.667 373.167,546.667 371.5,546C 334.536,523.725 301.036,496.892 271,465.5C 251.58,444.68 237.247,420.68 228,393.5C 225.845,384.89 224.011,376.224 222.5,367.5C 182.804,385.181 143.471,403.681 104.5,423C 86.466,437.027 69.6326,452.527 54,469.5C 31.4238,500.321 15.5905,534.321 6.5,571.5C 4.5,571.5 2.5,571.5 0.5,571.5C 0.5,571.167 0.5,570.833 0.5,570.5C 1.92381,568.485 2.59047,566.152 2.5,563.5C 6.53994,549.361 11.2066,535.361 16.5,521.5C 17.3382,521.158 17.6716,520.492 17.5,519.5C 18.3382,519.158 18.6716,518.492 18.5,517.5C 21.5926,513.653 23.9259,509.32 25.5,504.5C 27.5595,501.76 29.2262,498.76 30.5,495.5C 32.588,493.664 33.9213,491.331 34.5,488.5C 35.8897,487.101 36.8897,485.434 37.5,483.5C 38.8897,482.101 39.8897,480.434 40.5,478.5C 41.3382,478.158 41.6716,477.492 41.5,476.5C 42.1667,476.5 42.5,476.167 42.5,475.5C 43.3382,475.158 43.6716,474.492 43.5,473.5C 44.1667,473.5 44.5,473.167 44.5,472.5C 46.0627,471.055 47.396,469.389 48.5,467.5C 49.1667,467.5 49.5,467.167 49.5,466.5C 50.1667,466.5 50.5,466.167 50.5,465.5C 54.1384,461.526 57.8051,457.526 61.5,453.5C 62.1667,453.5 62.5,453.167 62.5,452.5C 63.1667,452.5 63.5,452.167 63.5,451.5C 64.1667,451.5 64.5,451.167 64.5,450.5C 65.1667,450.5 65.5,450.167 65.5,449.5C 66.1667,449.5 66.5,449.167 66.5,448.5C 67.1667,448.5 67.5,448.167 67.5,447.5C 68.1667,447.5 68.5,447.167 68.5,446.5C 69.1667,446.5 69.5,446.167 69.5,445.5C 70.1667,445.5 70.5,445.167 70.5,444.5C 71.1667,444.5 71.5,444.167 71.5,443.5C 72.1667,443.5 72.5,443.167 72.5,442.5C 73.1667,442.5 73.5,442.167 73.5,441.5C 74.1667,441.5 74.5,441.167 74.5,440.5C 75.1667,440.5 75.5,440.167 75.5,439.5C 76.1667,439.5 76.5,439.167 76.5,438.5C 77.1667,438.5 77.5,438.167 77.5,437.5C 78.1667,437.5 78.5,437.167 78.5,436.5C 79.1667,436.5 79.5,436.167 79.5,435.5C 82.4323,434.2 84.7656,432.2 86.5,429.5C 87.1667,429.5 87.5,429.167 87.5,428.5C 88.1667,428.5 88.5,428.167 88.5,427.5C 89.1667,427.5 89.5,427.167 89.5,426.5C 91.4044,426.262 92.7377,425.262 93.5,423.5C 94.1667,423.5 94.5,423.167 94.5,422.5C 96.0269,422.573 97.0269,421.906 97.5,420.5C 112.872,412.814 128.205,405.147 143.5,397.5C 144.492,397.672 145.158,397.338 145.5,396.5C 146.492,396.672 147.158,396.338 147.5,395.5C 150.686,394.403 153.686,393.07 156.5,391.5C 157.492,391.672 158.158,391.338 158.5,390.5C 159.492,390.672 160.158,390.338 160.5,389.5C 163.744,388.537 166.744,387.204 169.5,385.5C 170.492,385.672 171.158,385.338 171.5,384.5C 172.492,384.672 173.158,384.338 173.5,383.5C 176.912,382.925 179.912,381.592 182.5,379.5C 183.492,379.672 184.158,379.338 184.5,378.5C 185.492,378.672 186.158,378.338 186.5,377.5C 189.912,376.958 192.912,375.625 195.5,373.5C 196.492,373.672 197.158,373.338 197.5,372.5C 200.912,371.958 203.912,370.625 206.5,368.5C 207.492,368.672 208.158,368.338 208.5,367.5C 212.582,366.624 216.249,364.957 219.5,362.5C 223.141,362.348 225.807,360.682 227.5,357.5C 228.167,357.5 228.5,357.167 228.5,356.5C 229.167,356.5 229.5,356.167 229.5,355.5C 231.027,355.573 232.027,354.906 232.5,353.5C 234.027,353.573 235.027,352.906 235.5,351.5C 236.167,351.5 236.5,351.167 236.5,350.5C 244.341,346.081 252.008,341.415 259.5,336.5C 260.167,336.5 260.5,336.167 260.5,335.5C 262.153,335.34 263.486,334.674 264.5,333.5C 265.167,333.5 265.5,333.167 265.5,332.5C 267.153,332.34 268.486,331.674 269.5,330.5C 270.167,330.5 270.5,330.167 270.5,329.5C 272.819,329.008 274.819,328.008 276.5,326.5C 277.167,326.5 277.5,326.167 277.5,325.5C 279.153,325.34 280.486,324.674 281.5,323.5C 282.583,323.461 283.583,323.127 284.5,322.5C 286.213,303.882 287.213,285.215 287.5,266.5C 287.499,261.322 287.166,256.322 286.5,251.5C 286.59,248.848 285.924,246.515 284.5,244.5C 284.5,245.833 284.5,247.167 284.5,248.5C 283.262,246.786 282.595,244.786 282.5,242.5C 279.813,242.664 277.146,242.497 274.5,242C 274.833,241.667 275.167,241.333 275.5,241C 271.362,239.022 268.029,236.189 265.5,232.5C 264.833,232.5 264.5,232.167 264.5,231.5C 263.833,231.5 263.5,231.167 263.5,230.5C 263.5,230.167 263.5,229.833 263.5,229.5C 266.067,231.36 268.567,232.693 271,233.5C 271.464,232.906 271.631,232.239 271.5,231.5C 274.851,234.567 278.684,235.234 283,233.5C 283.478,228.709 282.978,224.042 281.5,219.5C 280.74,214.18 280.073,208.847 279.5,203.5C 281.759,213.35 283.926,223.35 286,233.5C 285.879,229.652 286.045,225.985 286.5,222.5C 288.182,244.18 295.682,263.513 309,280.5C 318.762,292.432 329.929,302.765 342.5,311.5C 343.243,310.092 344.077,308.759 345,307.5C 344.424,312.514 346.257,316.347 350.5,319C 354.798,321.982 359.464,324.149 364.5,325.5C 365.263,326.268 366.263,326.768 367.5,327C 377.5,327.667 387.5,327.667 397.5,327C 407.217,325.227 415.384,320.727 422,313.5C 422.878,310.743 423.878,308.076 425,305.5C 425.837,307.007 427.004,307.507 428.5,307C 444.454,293.718 455.62,277.218 462,257.5C 464.663,240.263 466.829,222.929 468.5,205.5C 470.145,195.922 470.811,186.255 470.5,176.5C 470.179,168.826 469.679,161.159 469,153.5C 468.588,148.843 467.421,144.509 465.5,140.5C 464.833,137.5 464.167,134.5 463.5,131.5 Z M 284.5,244.5 C 283.766,243.122 283.099,241.622 282.5,240C 282.833,239.833 283.167,239.667 283.5,239.5C 284.452,241.045 284.785,242.712 284.5,244.5 Z"/></g>
<g><path style="opacity:1" fill="#1a100b" d="M 433.5,233.5 C 435.293,236.259 435.793,239.259 435,242.5C 434.337,238.965 432.837,235.965 430.5,233.5C 430.369,232.761 430.536,232.094 431,231.5C 431.708,232.381 432.542,233.047 433.5,233.5 Z"/></g>
<g><path style="opacity:1" fill="#1b0f08" d="M 386.5,221.5 C 381.115,223.254 376.115,222.587 371.5,219.5C 369.737,216.444 367.07,214.611 363.5,214C 368.244,213.036 372.244,214.369 375.5,218C 378.5,218.667 381.5,218.667 384.5,218C 388.944,213.443 394.277,211.776 400.5,213C 394.678,214.071 390.012,216.905 386.5,221.5 Z"/></g>
<g><path style="opacity:1" fill="#8b5d4a" d="M 468.5,205.5 C 466.829,222.929 464.663,240.263 462,257.5C 455.62,277.218 444.454,293.718 428.5,307C 427.004,307.507 425.837,307.007 425,305.5C 423.878,308.076 422.878,310.743 422,313.5C 415.384,320.727 407.217,325.227 397.5,327C 387.5,327.667 377.5,327.667 367.5,327C 366.263,326.768 365.263,326.268 364.5,325.5C 368.808,326.368 373.141,326.534 377.5,326C 376.5,325.667 375.5,325.333 374.5,325C 384.961,324.099 394.294,320.433 402.5,314C 411.333,303.167 420.167,292.333 429,281.5C 430.562,279.043 431.562,276.376 432,273.5C 432.333,265.167 432.667,256.833 433,248.5C 434.333,249.833 435.667,251.167 437,252.5C 437.383,251.944 437.883,251.611 438.5,251.5C 439.857,252.685 441.357,253.685 443,254.5C 444.261,254.241 445.261,253.574 446,252.5C 448.709,245.291 451.042,237.958 453,230.5C 457.19,221.431 462.356,213.098 468.5,205.5 Z"/></g>
<g><path style="opacity:1" fill="#956550" d="M 283.5,205.5 C 296.076,218.592 306.576,233.259 315,249.5C 316.566,251.993 318.566,253.993 321,255.5C 322.221,254.728 323.221,253.728 324,252.5C 325.667,248.5 327.333,244.5 329,240.5C 333.816,236.22 339.316,233.054 345.5,231C 356.664,224.924 368.164,224.09 380,228.5C 383.164,227.668 386.331,226.834 389.5,226C 399.885,225.76 409.885,227.76 419.5,232C 422.938,233.611 425.938,235.777 428.5,238.5C 428.709,239.922 429.209,241.255 430,242.5C 433.038,245.369 435.871,248.369 438.5,251.5C 437.883,251.611 437.383,251.944 437,252.5C 435.667,251.167 434.333,249.833 433,248.5C 432.667,256.833 432.333,265.167 432,273.5C 431.562,276.376 430.562,279.043 429,281.5C 420.167,292.333 411.333,303.167 402.5,314C 394.294,320.433 384.961,324.099 374.5,325C 375.5,325.333 376.5,325.667 377.5,326C 373.141,326.534 368.808,326.368 364.5,325.5C 359.464,324.149 354.798,321.982 350.5,319C 346.257,316.347 344.424,312.514 345,307.5C 344.077,308.759 343.243,310.092 342.5,311.5C 329.929,302.765 318.762,292.432 309,280.5C 295.682,263.513 288.182,244.18 286.5,222.5C 285.393,216.86 284.393,211.193 283.5,205.5 Z"/></g>
<g><path style="opacity:0.016" fill="#190400" d="M 476.5,239.5 C 478.793,240.301 478.46,240.968 475.5,241.5C 475.5,241.167 475.5,240.833 475.5,240.5C 476.167,240.5 476.5,240.167 476.5,239.5 Z"/></g>
<g><path style="opacity:1" fill="#d4927b" d="M 421.5,248.5 C 420.514,250.408 418.848,251.408 416.5,251.5C 412.833,250.833 409.167,250.167 405.5,249.5C 405.082,248.778 404.416,248.278 403.5,248C 407.213,247.595 410.879,247.595 414.5,248C 412.257,246.864 409.924,246.03 407.5,245.5C 402.428,244.31 397.428,242.81 392.5,241C 388.017,240.269 383.683,240.769 379.5,242.5C 377.201,242.401 375.201,241.734 373.5,240.5C 375.949,241.057 378.282,241.057 380.5,240.5C 378.709,239.83 377.042,239.163 375.5,238.5C 380.683,238.465 385.85,238.132 391,237.5C 397.537,238.407 404.037,239.574 410.5,241C 414.58,243.029 418.246,245.529 421.5,248.5 Z"/></g>
<g><path style="opacity:1" fill="#1a0e07" d="M 373.5,240.5 C 375.201,241.734 377.201,242.401 379.5,242.5C 383.683,240.769 388.017,240.269 392.5,241C 397.428,242.81 402.428,244.31 407.5,245.5C 407.265,246.097 406.765,246.43 406,246.5C 396.909,242.851 387.909,242.851 379,246.5C 376.473,245.241 373.806,244.241 371,243.5C 365.627,244.677 360.294,246.01 355,247.5C 354.235,247.43 353.735,247.097 353.5,246.5C 358.261,244.967 362.928,243.134 367.5,241C 369.473,240.505 371.473,240.338 373.5,240.5 Z"/></g>
<g><path style="opacity:1" fill="#e6a088" d="M 421.5,248.5 C 422.794,249.29 423.961,250.29 425,251.5C 425.667,254.5 425.667,257.5 425,260.5C 423.151,268.893 421.151,277.227 419,285.5C 414.964,291.199 409.464,293.699 402.5,293C 397.684,288.945 396.184,283.778 398,277.5C 398.449,274.868 399.283,272.368 400.5,270C 400.167,269.5 399.833,269 399.5,268.5C 391.844,274.495 383.511,275.829 374.5,272.5C 379.651,271.833 384.651,271.166 389.5,270.5C 392.76,269.211 396.094,267.878 399.5,266.5C 406.154,262.506 411.821,257.506 416.5,251.5C 418.848,251.408 420.514,250.408 421.5,248.5 Z"/></g>
<g><path style="opacity:1" fill="#e7a188" d="M 375.5,238.5 C 377.042,239.163 378.709,239.83 380.5,240.5C 378.282,241.057 375.949,241.057 373.5,240.5C 371.473,240.338 369.473,240.505 367.5,241C 362.928,243.134 358.261,244.967 353.5,246.5C 349.962,248.098 346.295,249.432 342.5,250.5C 341.068,250.733 340.568,251.4 341,252.5C 348.15,258.324 355.983,262.991 364.5,266.5C 366.713,267.773 369.046,268.773 371.5,269.5C 371.918,270.222 372.584,270.722 373.5,271C 370.774,271.182 368.107,271.682 365.5,272.5C 368.521,275.686 371.354,279.02 374,282.5C 375.3,290.033 372.133,293.699 364.5,293.5C 361.205,293.705 358.205,292.872 355.5,291C 350.31,284.812 344.81,278.979 339,273.5C 336.725,266.32 336.058,258.987 337,251.5C 347.866,241.267 360.699,236.934 375.5,238.5 Z"/></g>
<g><path style="opacity:1" fill="#1d1917" d="M 405.5,249.5 C 409.167,250.167 412.833,250.833 416.5,251.5C 415.127,251.343 413.793,251.51 412.5,252C 410.733,254.39 408.4,256.057 405.5,257C 399.962,257.574 394.628,258.907 389.5,261C 377.789,260.745 366.123,259.412 354.5,257C 352.004,255.92 349.67,254.586 347.5,253C 353.973,250.952 360.473,249.119 367,247.5C 375.168,248.813 383.335,248.813 391.5,247.5C 396.177,248.169 400.843,248.835 405.5,249.5 Z"/></g>
<g><path style="opacity:1" fill="#eae9e8" d="M 368.5,256.5 C 364.688,255.676 360.688,255.176 356.5,255C 355.244,254.583 354.577,253.75 354.5,252.5C 362.817,249.886 371.15,249.886 379.5,252.5C 388.144,250.257 396.81,250.091 405.5,252C 406.337,253.011 406.67,254.178 406.5,255.5C 398.517,256.296 390.517,256.963 382.5,257.5C 377.807,257.366 373.141,257.032 368.5,256.5 Z"/></g>
<g><path style="opacity:1" fill="#b87c68" d="M 407.5,245.5 C 409.924,246.03 412.257,246.864 414.5,248C 410.879,247.595 407.213,247.595 403.5,248C 404.416,248.278 405.082,248.778 405.5,249.5C 400.843,248.835 396.177,248.169 391.5,247.5C 383.335,248.813 375.168,248.813 367,247.5C 360.473,249.119 353.973,250.952 347.5,253C 349.67,254.586 352.004,255.92 354.5,257C 366.123,259.412 377.789,260.745 389.5,261C 394.628,258.907 399.962,257.574 405.5,257C 408.4,256.057 410.733,254.39 412.5,252C 413.793,251.51 415.127,251.343 416.5,251.5C 411.821,257.506 406.154,262.506 399.5,266.5C 387.823,267.764 376.156,267.764 364.5,266.5C 355.983,262.991 348.15,258.324 341,252.5C 340.568,251.4 341.068,250.733 342.5,250.5C 346.295,249.432 349.962,248.098 353.5,246.5C 353.735,247.097 354.235,247.43 355,247.5C 360.294,246.01 365.627,244.677 371,243.5C 373.806,244.241 376.473,245.241 379,246.5C 387.909,242.851 396.909,242.851 406,246.5C 406.765,246.43 407.265,246.097 407.5,245.5 Z"/></g>
<g><path style="opacity:1" fill="#938f8d" d="M 354.5,252.5 C 354.577,253.75 355.244,254.583 356.5,255C 360.688,255.176 364.688,255.676 368.5,256.5C 364.154,256.666 359.821,256.499 355.5,256C 353.505,255.076 353.172,253.91 354.5,252.5 Z"/></g>
<g><path style="opacity:0.004" fill="#100700" d="M 465.5,268.5 C 465.5,267.5 465.5,266.5 465.5,265.5C 466.222,265.082 466.722,264.416 467,263.5C 467.599,265.535 467.099,267.201 465.5,268.5 Z"/></g>
<g><path style="opacity:1" fill="#cc8977" d="M 458.5,313.5 C 457.834,308.651 457.167,303.651 456.5,298.5C 442.319,320.864 425.319,341.031 405.5,359C 396.716,366.334 386.716,368.501 375.5,365.5C 364.814,362.442 354.814,357.942 345.5,352C 329.234,332.403 313.734,312.237 299,291.5C 297.333,289.833 295.667,288.167 294,286.5C 293.722,287.416 293.222,288.082 292.5,288.5C 292.169,280.804 292.503,273.138 293.5,265.5C 309.844,293.011 332.177,314.178 360.5,329C 375.799,333.449 391.132,333.449 406.5,329C 411.446,327.194 416.112,324.861 420.5,322C 427.624,314.175 435.124,306.675 443,299.5C 447.743,293.679 452.243,287.679 456.5,281.5C 458.194,292.093 458.86,302.76 458.5,313.5 Z"/></g>
<g><path style="opacity:1" fill="#150a04" d="M 364.5,266.5 C 376.156,267.764 387.823,267.764 399.5,266.5C 396.094,267.878 392.76,269.211 389.5,270.5C 383.455,270.697 377.455,270.363 371.5,269.5C 369.046,268.773 366.713,267.773 364.5,266.5 Z"/></g>
<g><path style="opacity:1" fill="#150904" d="M 381.5,282.5 C 385.828,282.037 389.828,282.87 393.5,285C 388.855,284.236 384.188,284.403 379.5,285.5C 379.167,285.333 378.833,285.167 378.5,285C 379.571,284.148 380.571,283.315 381.5,282.5 Z"/></g>
<g><path style="opacity:1" fill="#e7a189" d="M 458.5,313.5 C 459.191,320.826 460.024,328.159 461,335.5C 462.263,337.797 464.097,338.63 466.5,338C 464.536,335.688 464.203,333.188 465.5,330.5C 469.444,333.467 471.61,337.467 472,342.5C 476.458,367.881 468.291,388.047 447.5,403C 437.632,409.267 427.299,414.434 416.5,418.5C 409.022,419.927 401.688,421.593 394.5,423.5C 373.049,426.543 351.716,425.877 330.5,421.5C 327.45,419.899 324.116,418.899 320.5,418.5C 318.208,416.733 315.542,415.733 312.5,415.5C 278.463,398.093 266.963,371.093 278,334.5C 279.739,332.259 281.906,330.592 284.5,329.5C 285.346,333.055 285.679,336.388 285.5,339.5C 287.485,337.543 288.985,335.21 290,332.5C 290.709,317.668 291.542,303.001 292.5,288.5C 293.222,288.082 293.722,287.416 294,286.5C 295.667,288.167 297.333,289.833 299,291.5C 313.734,312.237 329.234,332.403 345.5,352C 354.814,357.942 364.814,362.442 375.5,365.5C 386.716,368.501 396.716,366.334 405.5,359C 425.319,341.031 442.319,320.864 456.5,298.5C 457.167,303.651 457.834,308.651 458.5,313.5 Z"/></g>
<g><path style="opacity:0.004" fill="#150400" d="M 465.5,268.5 C 465.409,286.533 466.076,304.533 467.5,322.5C 466.698,321.048 466.198,319.382 466,317.5C 465.166,301.819 464.333,286.153 463.5,270.5C 464.167,269.833 464.833,269.167 465.5,268.5 Z"/></g>
<g><path style="opacity:0.035" fill="#160b00" d="M 284.5,248.5 C 285.167,249.5 285.833,250.5 286.5,251.5C 286.204,270.17 285.704,288.837 285,307.5C 285.114,312.606 284.28,317.273 282.5,321.5C 284.579,297.236 285.245,272.902 284.5,248.5 Z"/></g>
<g><path style="opacity:0.016" fill="#180800" d="M 282.5,321.5 C 282.167,322.167 281.833,322.833 281.5,323.5C 279.207,322.699 279.54,322.032 282.5,321.5 Z"/></g>
<g><path style="opacity:0.016" fill="#160700" d="M 467.5,322.5 C 469.423,322.795 471.09,323.628 472.5,325C 471.906,325.464 471.239,325.631 470.5,325.5C 470.158,324.662 469.492,324.328 468.5,324.5C 468.167,323.833 467.833,323.167 467.5,322.5 Z"/></g>
<g><path style="opacity:0.004" fill="#120700" d="M 277.5,325.5 C 276.833,325.5 276.5,325.833 276.5,326.5C 274.025,326.253 274.025,325.587 276.5,324.5C 277.107,324.624 277.44,324.957 277.5,325.5 Z"/></g>
<g><path style="opacity:0.004" fill="#120700" d="M 477.5,329.5 C 476.632,327.108 477.299,326.941 479.5,329C 478.906,329.464 478.239,329.631 477.5,329.5 Z"/></g>
<g><path style="opacity:0.016" fill="#180800" d="M 270.5,329.5 C 269.833,329.5 269.5,329.833 269.5,330.5C 267.025,330.253 267.025,329.587 269.5,328.5C 270.107,328.624 270.44,328.957 270.5,329.5 Z"/></g>
<g><path style="opacity:0.004" fill="#0b0700" d="M 265.5,332.5 C 264.833,332.5 264.5,332.833 264.5,333.5C 262.025,333.253 262.025,332.587 264.5,331.5C 265.107,331.624 265.44,331.957 265.5,332.5 Z"/></g>
<g><path style="opacity:0.004" fill="#0b0700" d="M 260.5,335.5 C 259.833,335.5 259.5,335.833 259.5,336.5C 257.025,336.253 257.025,335.587 259.5,334.5C 260.107,334.624 260.44,334.957 260.5,335.5 Z"/></g>
<g><path style="opacity:1" fill="#016577" d="M 302.5,441.5 C 324.072,464.202 347.905,484.202 374,501.5C 411.197,477.356 443.53,447.689 471,412.5C 473.112,409.273 474.945,405.94 476.5,402.5C 484.924,390.739 489.924,377.573 491.5,363C 491.22,359.048 490.387,355.215 489,351.5C 486.838,346.828 484.505,342.494 482,338.5C 494.827,345.664 506.827,353.997 518,363.5C 519.011,374.447 517.678,385.114 514,395.5C 503.459,422.929 488.126,447.262 468,468.5C 439.538,496.979 408.205,521.645 374,542.5C 340.131,521.981 309.131,497.647 281,469.5C 263.215,451.275 248.881,430.608 238,407.5C 231.305,393.851 228.139,379.518 228.5,364.5C 239.98,355.19 252.147,346.857 265,339.5C 262.755,343.99 260.422,348.657 258,353.5C 255.755,364.551 257.089,375.217 262,385.5C 271.849,406.886 285.349,425.553 302.5,441.5 Z"/></g>
<g><path style="opacity:0.016" fill="#1c0000" d="M 502.5,343.5 C 503.833,344.167 503.833,344.167 502.5,343.5 Z"/></g>
<g><path style="opacity:0.016" fill="#1c0000" d="M 505.5,345.5 C 504.833,344.167 504.833,344.167 505.5,345.5 Z"/></g>
<g><path style="opacity:0.004" fill="#000000" d="M 241.5,345.5 C 242.833,346.167 242.833,346.167 241.5,345.5 Z"/></g>
<g><path style="opacity:0.016" fill="#1c0000" d="M 505.5,345.5 C 506.833,346.167 506.833,346.167 505.5,345.5 Z"/></g>
<g><path style="opacity:0.004" fill="#000000" d="M 507.5,346.5 C 508.833,347.167 508.833,347.167 507.5,346.5 Z"/></g>
<g><path style="opacity:0.004" fill="#000000" d="M 236.5,350.5 C 235.833,350.5 235.5,350.833 235.5,351.5C 234.833,351.5 234.167,351.5 233.5,351.5C 234.221,349.618 235.221,349.285 236.5,350.5 Z"/></g>
<g><path style="opacity:0.004" fill="#000000" d="M 233.5,351.5 C 233.167,352.167 232.833,352.833 232.5,353.5C 230.207,352.699 230.54,352.032 233.5,351.5 Z"/></g>
<g><path style="opacity:1" fill="#e6e3e1" d="M 483.5,379.5 C 475.701,399.934 463.368,417.101 446.5,431C 428.203,442.71 408.203,449.544 386.5,451.5C 371.816,451.685 357.149,451.351 342.5,450.5C 328.992,448.831 316.326,444.664 304.5,438C 301.665,433.999 298.332,430.499 294.5,427.5C 280.706,412.259 270.206,394.926 263,375.5C 259.102,363.024 261.435,352.024 270,342.5C 267.148,356.497 268.482,370.164 274,383.5C 275.357,386.898 277.19,389.898 279.5,392.5C 279.328,393.492 279.662,394.158 280.5,394.5C 283.448,400.448 287.781,405.115 293.5,408.5C 300.208,414.192 307.875,418.358 316.5,421C 326.628,424.433 336.961,426.933 347.5,428.5C 349.292,429.309 351.292,429.809 353.5,430C 364.41,430.179 375.243,430.679 386,431.5C 386.985,430.186 388.152,429.186 389.5,428.5C 401.028,426.618 412.361,423.785 423.5,420C 430.452,417.857 436.786,414.691 442.5,410.5C 460.054,401.761 471.221,387.761 476,368.5C 477.666,359.525 477.999,350.525 477,341.5C 487.212,352.67 489.379,365.336 483.5,379.5 Z"/></g>
<g><path style="opacity:0.004" fill="#0d0000" d="M 515.5,353.5 C 517.07,352.441 518.403,352.941 519.5,355C 518.906,355.464 518.239,355.631 517.5,355.5C 516.833,355.5 516.5,355.167 516.5,354.5C 515.833,354.5 515.5,354.167 515.5,353.5 Z"/></g>
<g><path style="opacity:0.004" fill="#0f0000" d="M 229.5,355.5 C 228.833,355.5 228.5,355.833 228.5,356.5C 227.833,356.5 227.5,356.833 227.5,357.5C 225.408,356.714 225.741,355.714 228.5,354.5C 229.107,354.624 229.44,354.957 229.5,355.5 Z"/></g>
<g><path style="opacity:0.004" fill="#0c0000" d="M 219.5,362.5 C 215.779,362.207 215.945,361.541 220,360.5C 220.5,360.667 221,360.833 221.5,361C 220.584,361.278 219.918,361.778 219.5,362.5 Z"/></g>
<g><path style="opacity:0.004" fill="#0f0000" d="M 528.5,362.5 C 528.082,361.778 527.416,361.278 526.5,361C 528.289,360.48 529.956,360.813 531.5,362C 530.552,362.483 529.552,362.649 528.5,362.5 Z"/></g>
<g><path style="opacity:0.004" fill="#0f0200" d="M 541.5,368.5 C 541.158,367.662 540.492,367.328 539.5,367.5C 536.791,365.868 537.125,365.368 540.5,366C 541.833,366.667 543.167,367.333 544.5,368C 543.552,368.483 542.552,368.649 541.5,368.5 Z"/></g>
<g><path style="opacity:0.035" fill="#160500" d="M 208.5,367.5 C 207.508,367.328 206.842,367.662 206.5,368.5C 204.653,368.766 203.986,368.432 204.5,367.5C 206.331,366.071 208.331,365.571 210.5,366C 209.584,366.278 208.918,366.778 208.5,367.5 Z"/></g>
<g><path style="opacity:1" fill="#35251e" d="M 280.5,394.5 C 279.662,394.158 279.328,393.492 279.5,392.5C 271.741,378.457 268.907,363.457 271,347.5C 271.216,345.616 271.883,343.949 273,342.5C 269.109,360.318 272.276,376.818 282.5,392C 281.619,392.708 280.953,393.542 280.5,394.5 Z"/></g>
<g><path style="opacity:1" fill="#006678" d="M 741.5,571.5 C 496.5,571.5 251.5,571.5 6.5,571.5C 15.5905,534.321 31.4238,500.321 54,469.5C 69.6326,452.527 86.466,437.027 104.5,423C 143.471,403.681 182.804,385.181 222.5,367.5C 224.011,376.224 225.845,384.89 228,393.5C 237.247,420.68 251.58,444.68 271,465.5C 301.036,496.892 334.536,523.725 371.5,546C 373.167,546.667 374.833,546.667 376.5,546C 416.412,522.442 451.912,493.275 483,458.5C 505.47,432.219 519.303,401.886 524.5,367.5C 563.898,384.589 602.898,402.755 641.5,422C 648.115,426.281 654.448,430.947 660.5,436C 671.333,446.833 682.167,457.667 693,468.5C 716.138,499.447 732.304,533.78 741.5,571.5 Z"/></g>
<g><path style="opacity:0.035" fill="#150900" d="M 197.5,372.5 C 196.508,372.328 195.842,372.662 195.5,373.5C 193.653,373.766 192.986,373.432 193.5,372.5C 194.995,371.295 196.328,371.295 197.5,372.5 Z"/></g>
<g><path style="opacity:0.004" fill="#110600" d="M 550.5,372.5 C 551.251,371.427 552.251,371.26 553.5,372C 554.833,372.667 556.167,373.333 557.5,374C 556.552,374.483 555.552,374.649 554.5,374.5C 554.158,373.662 553.492,373.328 552.5,373.5C 552.158,372.662 551.492,372.328 550.5,372.5 Z"/></g>
<g><path style="opacity:0.035" fill="#160b00" d="M 186.5,377.5 C 185.508,377.328 184.842,377.662 184.5,378.5C 183.508,378.328 182.842,378.662 182.5,379.5C 180.653,379.766 179.986,379.432 180.5,378.5C 182.507,376.797 184.507,376.463 186.5,377.5 Z"/></g>
<g><path style="opacity:0.004" fill="#110700" d="M 563.5,378.5 C 564.251,377.427 565.251,377.26 566.5,378C 567.833,378.667 569.167,379.333 570.5,380C 569.552,380.483 568.552,380.649 567.5,380.5C 567.158,379.662 566.492,379.328 565.5,379.5C 565.158,378.662 564.492,378.328 563.5,378.5 Z"/></g>
<g><path style="opacity:0.035" fill="#160b00" d="M 173.5,383.5 C 172.508,383.328 171.842,383.662 171.5,384.5C 170.508,384.328 169.842,384.662 169.5,385.5C 167.653,385.766 166.986,385.432 167.5,384.5C 169.507,382.797 171.507,382.463 173.5,383.5 Z"/></g>
<g><path style="opacity:0.004" fill="#110700" d="M 576.5,384.5 C 577.251,383.427 578.251,383.26 579.5,384C 580.833,384.667 582.167,385.333 583.5,386C 582.552,386.483 581.552,386.649 580.5,386.5C 580.158,385.662 579.492,385.328 578.5,385.5C 578.158,384.662 577.492,384.328 576.5,384.5 Z"/></g>
<g><path style="opacity:0.004" fill="#110800" d="M 160.5,389.5 C 159.508,389.328 158.842,389.662 158.5,390.5C 157.508,390.328 156.842,390.662 156.5,391.5C 154.653,391.766 153.986,391.432 154.5,390.5C 156.507,388.797 158.507,388.463 160.5,389.5 Z"/></g>
<g><path style="opacity:0.035" fill="#180800" d="M 589.5,390.5 C 591.089,389.379 592.756,389.546 594.5,391C 593.552,391.483 592.552,391.649 591.5,391.5C 591.158,390.662 590.492,390.328 589.5,390.5 Z"/></g>
<g><path style="opacity:0.004" fill="#0c0600" d="M 602.5,396.5 C 604.089,395.379 605.756,395.546 607.5,397C 606.552,397.483 605.552,397.649 604.5,397.5C 604.158,396.662 603.492,396.328 602.5,396.5 Z"/></g>
<g><path style="opacity:0.035" fill="#110900" d="M 147.5,395.5 C 146.508,395.328 145.842,395.662 145.5,396.5C 144.508,396.328 143.842,396.662 143.5,397.5C 141.653,397.766 140.986,397.432 141.5,396.5C 143.507,394.797 145.507,394.463 147.5,395.5 Z"/></g>
<g><path style="opacity:0.004" fill="#000000" d="M 120.5,406.5 C 121.833,407.167 121.833,407.167 120.5,406.5 Z"/></g>
<g><path style="opacity:0.004" fill="#000000" d="M 625.5,407.5 C 625.897,406.475 626.563,406.308 627.5,407C 626.906,407.464 626.239,407.631 625.5,407.5 Z"/></g>
<g><path style="opacity:0.004" fill="#000000" d="M 117.5,408.5 C 117.897,407.475 118.563,407.308 119.5,408C 118.906,408.464 118.239,408.631 117.5,408.5 Z"/></g>
<g><path style="opacity:0.004" fill="#000000" d="M 630.5,408.5 C 629.761,408.631 629.094,408.464 628.5,408C 629.437,407.308 630.103,407.475 630.5,408.5 Z"/></g>
<g><path style="opacity:0.004" fill="#000000" d="M 115.5,409.5 C 115.842,408.662 116.508,408.328 117.5,408.5C 117.158,409.338 116.492,409.672 115.5,409.5 Z"/></g>
<g><path style="opacity:0.004" fill="#000000" d="M 630.5,408.5 C 631.492,408.328 632.158,408.662 632.5,409.5C 631.508,409.672 630.842,409.338 630.5,408.5 Z"/></g>
<g><path style="opacity:0.004" fill="#000000" d="M 113.5,410.5 C 113.842,409.662 114.508,409.328 115.5,409.5C 115.158,410.338 114.492,410.672 113.5,410.5 Z"/></g>
<g><path style="opacity:0.004" fill="#000000" d="M 632.5,409.5 C 633.492,409.328 634.158,409.662 634.5,410.5C 633.508,410.672 632.842,410.338 632.5,409.5 Z"/></g>
<g><path style="opacity:0.004" fill="#000000" d="M 111.5,411.5 C 111.842,410.662 112.508,410.328 113.5,410.5C 113.158,411.338 112.492,411.672 111.5,411.5 Z"/></g>
<g><path style="opacity:0.004" fill="#000000" d="M 634.5,410.5 C 635.492,410.328 636.158,410.662 636.5,411.5C 635.508,411.672 634.842,411.338 634.5,410.5 Z"/></g>
<g><path style="opacity:0.004" fill="#000000" d="M 109.5,412.5 C 109.842,411.662 110.508,411.328 111.5,411.5C 111.158,412.338 110.492,412.672 109.5,412.5 Z"/></g>
<g><path style="opacity:0.004" fill="#000000" d="M 636.5,411.5 C 637.492,411.328 638.158,411.662 638.5,412.5C 637.508,412.672 636.842,412.338 636.5,411.5 Z"/></g>
<g><path style="opacity:0.004" fill="#000000" d="M 107.5,413.5 C 107.842,412.662 108.508,412.328 109.5,412.5C 109.158,413.338 108.492,413.672 107.5,413.5 Z"/></g>
<g><path style="opacity:0.004" fill="#000000" d="M 638.5,412.5 C 639.492,412.328 640.158,412.662 640.5,413.5C 639.508,413.672 638.842,413.338 638.5,412.5 Z"/></g>
<g><path style="opacity:0.004" fill="#000000" d="M 105.5,414.5 C 105.842,413.662 106.508,413.328 107.5,413.5C 107.158,414.338 106.492,414.672 105.5,414.5 Z"/></g>
<g><path style="opacity:0.004" fill="#000000" d="M 640.5,413.5 C 641.492,413.328 642.158,413.662 642.5,414.5C 641.508,414.672 640.842,414.338 640.5,413.5 Z"/></g>
<g><path style="opacity:0.004" fill="#000000" d="M 103.5,415.5 C 103.842,414.662 104.508,414.328 105.5,414.5C 105.158,415.338 104.492,415.672 103.5,415.5 Z"/></g>
<g><path style="opacity:0.004" fill="#000000" d="M 642.5,414.5 C 643.492,414.328 644.158,414.662 644.5,415.5C 643.508,415.672 642.842,415.338 642.5,414.5 Z"/></g>
<g><path style="opacity:0.016" fill="#160000" d="M 101.5,416.5 C 101.842,415.662 102.508,415.328 103.5,415.5C 103.158,416.338 102.492,416.672 101.5,416.5 Z"/></g>
<g><path style="opacity:0.004" fill="#0f0000" d="M 644.5,415.5 C 647.46,416.032 647.793,416.699 645.5,417.5C 645.167,416.833 644.833,416.167 644.5,415.5 Z"/></g>
<g><path style="opacity:0.016" fill="#1c0000" d="M 101.5,416.5 C 100.833,417.167 100.833,417.167 101.5,416.5 Z"/></g>
<g><path style="opacity:0.004" fill="#0f0000" d="M 97.5,420.5 C 96.8333,420.5 96.1667,420.5 95.5,420.5C 97.3939,417.813 98.0606,417.813 97.5,420.5 Z"/></g>
<g><path style="opacity:0.004" fill="#0f0000" d="M 650.5,420.5 C 649.632,418.108 650.299,417.941 652.5,420C 651.906,420.464 651.239,420.631 650.5,420.5 Z"/></g>
<g><path style="opacity:0.004" fill="#0f0000" d="M 95.5,420.5 C 95.1667,421.167 94.8333,421.833 94.5,422.5C 93.8333,422.5 93.5,422.833 93.5,423.5C 92.7611,423.631 92.0944,423.464 91.5,423C 92.4709,421.519 93.8042,420.685 95.5,420.5 Z"/></g>
<g><path style="opacity:0.004" fill="#0f0000" d="M 653.5,422.5 C 654.497,421.287 655.497,421.454 656.5,423C 655.906,423.464 655.239,423.631 654.5,423.5C 653.833,423.5 653.5,423.167 653.5,422.5 Z"/></g>
<g><path style="opacity:1" fill="#0e0a08" d="M 293.5,408.5 C 298.835,411.834 304.501,414.667 310.5,417C 311.833,417.667 313.167,417.667 314.5,417C 313.584,416.722 312.918,416.222 312.5,415.5C 315.542,415.733 318.208,416.733 320.5,418.5C 319.07,418.579 317.736,418.246 316.5,417.5C 315.226,418.359 315.392,419.026 317,419.5C 355.924,432.361 394.091,430.694 431.5,414.5C 435.264,413.452 438.931,412.119 442.5,410.5C 436.786,414.691 430.452,417.857 423.5,420C 412.361,423.785 401.028,426.618 389.5,428.5C 375.497,429.782 361.497,429.782 347.5,428.5C 336.961,426.933 326.628,424.433 316.5,421C 307.875,418.358 300.208,414.192 293.5,408.5 Z"/></g>
<g><path style="opacity:1" fill="#312119" d="M 431.5,414.5 C 394.091,430.694 355.924,432.361 317,419.5C 315.392,419.026 315.226,418.359 316.5,417.5C 317.736,418.246 319.07,418.579 320.5,418.5C 324.116,418.899 327.45,419.899 330.5,421.5C 342.584,425.241 355.084,426.908 368,426.5C 377.923,426.696 387.756,425.863 397.5,424C 396.552,423.517 395.552,423.351 394.5,423.5C 401.688,421.593 409.022,419.927 416.5,418.5C 421.435,417.632 426.102,415.966 430.5,413.5C 431.107,413.624 431.44,413.957 431.5,414.5 Z"/></g>
<g><path style="opacity:1" fill="#020000" d="M 330.5,421.5 C 351.716,425.877 373.049,426.543 394.5,423.5C 395.552,423.351 396.552,423.517 397.5,424C 387.756,425.863 377.923,426.696 368,426.5C 355.084,426.908 342.584,425.241 330.5,421.5 Z"/></g>
<g><path style="opacity:0.016" fill="#160000" d="M 89.5,426.5 C 88.8333,426.5 88.5,426.833 88.5,427.5C 87.8333,427.5 87.5,427.833 87.5,428.5C 86.8333,428.5 86.5,428.833 86.5,429.5C 85.7611,429.631 85.0944,429.464 84.5,429C 85.5,428 86.5,427 87.5,426C 88.4368,425.308 89.1034,425.475 89.5,426.5 Z"/></g>
<g><path style="opacity:0.016" fill="#190000" d="M 658.5,426.5 C 658.897,425.475 659.563,425.308 660.5,426C 661.5,427 662.5,428 663.5,429C 662.906,429.464 662.239,429.631 661.5,429.5C 660.833,429.5 660.5,429.167 660.5,428.5C 659.833,428.5 659.5,428.167 659.5,427.5C 658.833,427.5 658.5,427.167 658.5,426.5 Z"/></g>
<g><path style="opacity:1" fill="#1b120d" d="M 483.5,379.5 C 482.107,387.959 478.773,395.626 473.5,402.5C 474.425,403.562 475.425,403.562 476.5,402.5C 474.945,405.94 473.112,409.273 471,412.5C 443.53,447.689 411.197,477.356 374,501.5C 347.905,484.202 324.072,464.202 302.5,441.5C 302.611,440.883 302.944,440.383 303.5,440C 299.869,436.215 296.869,432.049 294.5,427.5C 298.332,430.499 301.665,433.999 304.5,438C 316.326,444.664 328.992,448.831 342.5,450.5C 350.775,452.042 359.275,452.709 368,452.5C 374.343,452.5 380.509,452.166 386.5,451.5C 408.203,449.544 428.203,442.71 446.5,431C 463.368,417.101 475.701,399.934 483.5,379.5 Z"/></g>
<g><path style="opacity:1" fill="#afacaa" d="M 347.5,428.5 C 361.497,429.782 375.497,429.782 389.5,428.5C 388.152,429.186 386.985,430.186 386,431.5C 375.243,430.679 364.41,430.179 353.5,430C 351.292,429.809 349.292,429.309 347.5,428.5 Z"/></g>
<g><path style="opacity:0.004" fill="#0e0900" d="M 672.5,439.5 C 672.897,438.475 673.563,438.308 674.5,439C 677.667,442.167 680.833,445.333 684,448.5C 684.692,449.437 684.525,450.103 683.5,450.5C 682.833,450.5 682.5,450.167 682.5,449.5C 681.833,449.5 681.5,449.167 681.5,448.5C 680.833,448.5 680.5,448.167 680.5,447.5C 679.833,447.5 679.5,447.167 679.5,446.5C 678.833,446.5 678.5,446.167 678.5,445.5C 677.833,445.5 677.5,445.167 677.5,444.5C 676.833,444.5 676.5,444.167 676.5,443.5C 675.833,443.5 675.5,443.167 675.5,442.5C 674.833,442.5 674.5,442.167 674.5,441.5C 673.833,441.5 673.5,441.167 673.5,440.5C 672.833,440.5 672.5,440.167 672.5,439.5 Z"/></g>
<g><path style="opacity:0.016" fill="#160000" d="M 79.5,435.5 C 78.8333,435.5 78.5,435.833 78.5,436.5C 77.8333,436.5 77.5,436.833 77.5,437.5C 76.8333,437.5 76.5,437.833 76.5,438.5C 75.8333,438.5 75.5,438.833 75.5,439.5C 74.8333,439.5 74.5,439.833 74.5,440.5C 73.8333,440.5 73.5,440.833 73.5,441.5C 72.8333,441.5 72.5,441.833 72.5,442.5C 71.8333,442.5 71.5,442.833 71.5,443.5C 70.8333,443.5 70.5,443.833 70.5,444.5C 69.8333,444.5 69.5,444.833 69.5,445.5C 68.8333,445.5 68.5,445.833 68.5,446.5C 67.8333,446.5 67.5,446.833 67.5,447.5C 66.8333,447.5 66.5,447.833 66.5,448.5C 65.8333,448.5 65.5,448.833 65.5,449.5C 64.8333,449.5 64.5,449.833 64.5,450.5C 63.8333,450.5 63.5,450.833 63.5,451.5C 62.8333,451.5 62.5,451.833 62.5,452.5C 61.8333,452.5 61.5,452.833 61.5,453.5C 60.475,453.103 60.3083,452.437 61,451.5C 66.5,446 72,440.5 77.5,435C 78.4368,434.308 79.1034,434.475 79.5,435.5 Z"/></g>
<g><path style="opacity:1" fill="#e6e3e1" d="M 439.5,439.5 C 440.525,439.897 440.692,440.563 440,441.5C 419.46,461.717 397.46,480.05 374,496.5C 353.63,481.803 334.13,465.97 315.5,449C 353.026,460.945 390.36,459.945 427.5,446C 431.778,444.096 435.778,441.929 439.5,439.5 Z"/></g>
<g><path style="opacity:1" fill="#bab7b4" d="M 342.5,450.5 C 357.149,451.351 371.816,451.685 386.5,451.5C 380.509,452.166 374.343,452.5 368,452.5C 359.275,452.709 350.775,452.042 342.5,450.5 Z"/></g>
<g><path style="opacity:0.004" fill="#100300" d="M 50.5,465.5 C 49.8333,465.5 49.5,465.833 49.5,466.5C 48.8333,466.5 48.5,466.833 48.5,467.5C 47.4407,465.93 47.9407,464.597 50,463.5C 50.4643,464.094 50.631,464.761 50.5,465.5 Z"/></g>
<g><path style="opacity:0.016" fill="#170300" d="M 699.5,467.5 C 698.833,467.5 698.5,467.167 698.5,466.5C 697.833,466.5 697.5,466.167 697.5,465.5C 698.286,463.408 699.286,463.741 700.5,466.5C 700.376,467.107 700.043,467.44 699.5,467.5 Z"/></g>
<g><path style="opacity:0.035" fill="#160800" d="M 44.5,472.5 C 43.8333,472.5 43.5,472.833 43.5,473.5C 43.1667,473.5 42.8333,473.5 42.5,473.5C 43.032,470.54 43.6987,470.207 44.5,472.5 Z"/></g>
<g><path style="opacity:0.035" fill="#160800" d="M 705.5,473.5 C 705.167,473.5 704.833,473.5 704.5,473.5C 703.833,473.5 703.5,473.167 703.5,472.5C 704.301,470.207 704.968,470.54 705.5,473.5 Z"/></g>
<g><path style="opacity:0.004" fill="#120700" d="M 42.5,473.5 C 42.5,474.167 42.5,474.833 42.5,475.5C 41.8333,475.5 41.5,475.833 41.5,476.5C 41.1667,476.5 40.8333,476.5 40.5,476.5C 40.427,474.973 41.0937,473.973 42.5,473.5 Z"/></g>
<g><path style="opacity:0.004" fill="#120700" d="M 705.5,473.5 C 706.906,473.973 707.573,474.973 707.5,476.5C 707.167,476.5 706.833,476.5 706.5,476.5C 705.833,476.5 705.5,476.167 705.5,475.5C 705.5,474.833 705.5,474.167 705.5,473.5 Z"/></g>
<g><path style="opacity:0.016" fill="#170700" d="M 40.5,476.5 C 40.5,477.167 40.5,477.833 40.5,478.5C 37.8133,479.061 37.8133,478.394 40.5,476.5 Z"/></g>
<g><path style="opacity:0.016" fill="#170700" d="M 707.5,476.5 C 710.187,478.394 710.187,479.061 707.5,478.5C 707.5,477.833 707.5,477.167 707.5,476.5 Z"/></g>
<g><path style="opacity:0.016" fill="#170700" d="M 37.5,483.5 C 35.1081,484.368 34.9414,483.701 37,481.5C 37.4643,482.094 37.631,482.761 37.5,483.5 Z"/></g>
<g><path style="opacity:0.016" fill="#170700" d="M 710.5,483.5 C 710.747,481.025 711.413,481.025 712.5,483.5C 712.03,484.463 711.363,484.463 710.5,483.5 Z"/></g>
<g><path style="opacity:0.016" fill="#170700" d="M 34.5,488.5 C 32.1081,489.368 31.9414,488.701 34,486.5C 34.4643,487.094 34.631,487.761 34.5,488.5 Z"/></g>
<g><path style="opacity:0.016" fill="#170700" d="M 713.5,488.5 C 713.747,486.025 714.413,486.025 715.5,488.5C 715.03,489.463 714.363,489.463 713.5,488.5 Z"/></g>
<g><path style="opacity:0.016" fill="#170700" d="M 30.5,495.5 C 28.1081,496.368 27.9414,495.701 30,493.5C 30.4643,494.094 30.631,494.761 30.5,495.5 Z"/></g>
<g><path style="opacity:0.004" fill="#0d0300" d="M 717.5,495.5 C 717.747,493.025 718.413,493.025 719.5,495.5C 719.03,496.463 718.363,496.463 717.5,495.5 Z"/></g>
<g><path style="opacity:0.004" fill="#0b0700" d="M 25.5,504.5 C 23.1081,505.368 22.9414,504.701 25,502.5C 25.4643,503.094 25.631,503.761 25.5,504.5 Z"/></g>
<g><path style="opacity:0.004" fill="#0f0000" d="M 724.5,505.5 C 723.833,505.167 723.167,504.833 722.5,504.5C 723.301,502.207 723.968,502.54 724.5,505.5 Z"/></g>
<g><path style="opacity:0.016" fill="#160000" d="M 724.5,505.5 C 725.338,505.842 725.672,506.508 725.5,507.5C 724.662,507.158 724.328,506.492 724.5,505.5 Z"/></g>
<g><path style="opacity:0.016" fill="#160000" d="M 725.5,507.5 C 726.338,507.842 726.672,508.508 726.5,509.5C 725.662,509.158 725.328,508.492 725.5,507.5 Z"/></g>
<g><path style="opacity:0.016" fill="#1c0000" d="M 726.5,509.5 C 727.338,509.842 727.672,510.508 727.5,511.5C 726.662,511.158 726.328,510.492 726.5,509.5 Z"/></g>
<g><path style="opacity:0.004" fill="#0d0000" d="M 727.5,511.5 C 728.338,511.842 728.672,512.508 728.5,513.5C 727.662,513.158 727.328,512.492 727.5,511.5 Z"/></g>
<g><path style="opacity:0.004" fill="#0d0000" d="M 728.5,513.5 C 729.338,513.842 729.672,514.508 729.5,515.5C 728.662,515.158 728.328,514.492 728.5,513.5 Z"/></g>
<g><path style="opacity:0.004" fill="#0d0000" d="M 729.5,515.5 C 730.338,515.842 730.672,516.508 730.5,517.5C 729.662,517.158 729.328,516.492 729.5,515.5 Z"/></g>
<g><path style="opacity:0.004" fill="#000000" d="M 730.5,517.5 C 731.338,517.842 731.672,518.508 731.5,519.5C 730.662,519.158 730.328,518.492 730.5,517.5 Z"/></g>
<g><path style="opacity:0.004" fill="#000000" d="M 731.5,519.5 C 732.338,519.842 732.672,520.508 732.5,521.5C 731.662,521.158 731.328,520.492 731.5,519.5 Z"/></g>
<g><path style="opacity:0.004" fill="#0a0000" d="M 18.5,517.5 C 17.6618,517.842 17.3284,518.508 17.5,519.5C 16.6618,519.842 16.3284,520.508 16.5,521.5C 15.5,522.833 14.5,524.167 13.5,525.5C 14.176,521.813 15.676,518.48 18,515.5C 18.4643,516.094 18.631,516.761 18.5,517.5 Z"/></g>
<g><path style="opacity:0.004" fill="#000000" d="M 732.5,521.5 C 733.338,521.842 733.672,522.508 733.5,523.5C 732.662,523.158 732.328,522.492 732.5,521.5 Z"/></g>
<g><path style="opacity:0.004" fill="#000000" d="M 733.5,523.5 C 734.338,523.842 734.672,524.508 734.5,525.5C 733.662,525.158 733.328,524.492 733.5,523.5 Z"/></g>
<g><path style="opacity:0.004" fill="#000000" d="M 734.5,525.5 C 735.338,525.842 735.672,526.508 735.5,527.5C 734.662,527.158 734.328,526.492 734.5,525.5 Z"/></g>
<g><path style="opacity:0.004" fill="#0d0000" d="M 13.5,525.5 C 13.6716,526.492 13.3382,527.158 12.5,527.5C 12.3284,526.508 12.6618,525.842 13.5,525.5 Z"/></g>
<g><path style="opacity:0.004" fill="#000000" d="M 12.5,527.5 C 12.6716,528.492 12.3382,529.158 11.5,529.5C 11.3284,528.508 11.6618,527.842 12.5,527.5 Z"/></g>
<g><path style="opacity:0.004" fill="#000000" d="M 735.5,527.5 C 736.338,527.842 736.672,528.508 736.5,529.5C 735.662,529.158 735.328,528.492 735.5,527.5 Z"/></g>
<g><path style="opacity:0.004" fill="#000000" d="M 736.5,529.5 C 737.404,530.209 737.737,531.209 737.5,532.5C 736.596,531.791 736.263,530.791 736.5,529.5 Z"/></g>
<g><path style="opacity:0.016" fill="#160000" d="M 11.5,529.5 C 11.6716,530.492 11.3382,531.158 10.5,531.5C 10.3284,530.508 10.6618,529.842 11.5,529.5 Z"/></g>
<g><path style="opacity:0.004" fill="#000000" d="M 10.5,531.5 C 10.7373,532.791 10.404,533.791 9.5,534.5C 9.26269,533.209 9.59603,532.209 10.5,531.5 Z"/></g>
<g><path style="opacity:0.004" fill="#000000" d="M 737.5,532.5 C 738.404,533.209 738.737,534.209 738.5,535.5C 737.596,534.791 737.263,533.791 737.5,532.5 Z"/></g>
<g><path style="opacity:0.004" fill="#000000" d="M 9.5,534.5 C 9.67158,535.492 9.33825,536.158 8.5,536.5C 8.32842,535.508 8.66175,534.842 9.5,534.5 Z"/></g>
<g><path style="opacity:0.004" fill="#000000" d="M 738.5,535.5 C 739.573,536.251 739.74,537.251 739,538.5C 738.517,537.552 738.351,536.552 738.5,535.5 Z"/></g>
<g><path style="opacity:0.004" fill="#000000" d="M 8.5,536.5 C 8.76781,538.099 8.43448,539.432 7.5,540.5C 7.23219,538.901 7.56552,537.568 8.5,536.5 Z"/></g>
<g><path style="opacity:0.004" fill="#000000" d="M 739.5,539.5 C 740.573,540.251 740.74,541.251 740,542.5C 739.517,541.552 739.351,540.552 739.5,539.5 Z"/></g>
<g><path style="opacity:0.004" fill="#000000" d="M 7.5,540.5 C 7.76781,542.099 7.43448,543.432 6.5,544.5C 6.23219,542.901 6.56552,541.568 7.5,540.5 Z"/></g>
<g><path style="opacity:0.004" fill="#000000" d="M 6.5,544.5 C 6.73731,545.791 6.40397,546.791 5.5,547.5C 5.26269,546.209 5.59603,545.209 6.5,544.5 Z"/></g>
<g><path style="opacity:0.004" fill="#000000" d="M 5.5,547.5 C 5.76781,549.099 5.43448,550.432 4.5,551.5C 4.23219,549.901 4.56552,548.568 5.5,547.5 Z"/></g>
<g><path style="opacity:0.004" fill="#000000" d="M 4.5,551.5 C 4.76781,553.099 4.43448,554.432 3.5,555.5C 3.23219,553.901 3.56552,552.568 4.5,551.5 Z"/></g>
<g><path style="opacity:0.004" fill="#000000" d="M 3.5,555.5 C 3.65668,556.873 3.49001,558.207 3,559.5C 2.23502,557.934 2.40168,556.601 3.5,555.5 Z"/></g>
<g><path style="opacity:0.004" fill="#000000" d="M 2.5,563.5 C 1.42654,562.749 1.25988,561.749 2,560.5C 2.48278,561.448 2.64945,562.448 2.5,563.5 Z"/></g>
<g><path style="opacity:0.004" fill="#000000" d="M 0.5,564.5 C 1.52502,564.897 1.69169,565.563 1,566.5C 0.535656,565.906 0.368989,565.239 0.5,564.5 Z"/></g>
<g><path style="opacity:0.016" fill="#120000" d="M -0.5,567.5 C 0.403972,568.209 0.737305,569.209 0.5,570.5C 0.166667,570.5 -0.166667,570.5 -0.5,570.5C -0.5,569.5 -0.5,568.5 -0.5,567.5 Z"/></g>
<g><path style="opacity:0.016" fill="#160400" d="M 748.5,570.5 C 748.167,570.5 747.833,570.5 747.5,570.5C 747.833,566.5 748.167,566.5 748.5,570.5 Z"/></g>
<g><path style="opacity:0.004" fill="#000000" d="M 748.5,570.5 C 748.833,570.5 749.167,570.5 749.5,570.5C 749.5,570.833 749.5,571.167 749.5,571.5C 749.167,571.167 748.833,570.833 748.5,570.5 Z"/></g>
</svg>
