<?xml version="1.0" encoding="UTF-8"?>
<!DOCTYPE svg PUBLIC "-//W3C//DTD SVG 1.1//EN" "http://www.w3.org/Graphics/SVG/1.1/DTD/svg11.dtd">
<svg xmlns="http://www.w3.org/2000/svg" version="1.1" width="750px" height="628px" style="shape-rendering:geometricPrecision; text-rendering:geometricPrecision; image-rendering:optimizeQuality; fill-rule:evenodd; clip-rule:evenodd" xmlns:xlink="http://www.w3.org/1999/xlink">
<g><path style="opacity:0.881" fill="#1c0c03" d="M 346.5,-0.5 C 353.833,-0.5 361.167,-0.5 368.5,-0.5C 369.568,0.434475 370.901,0.767809 372.5,0.5C 374.779,2.2633 377.445,3.2633 380.5,3.5C 401.363,-0.654996 419.697,4.345 435.5,18.5C 435.5,19.1667 435.833,19.5 436.5,19.5C 441.474,24.1387 446.474,28.8053 451.5,33.5C 451.5,34.1667 451.833,34.5 452.5,34.5C 452.842,35.3382 453.508,35.6716 454.5,35.5C 454.833,36.8333 455.167,36.8333 455.5,35.5C 456.66,32.8672 458.66,32.0339 461.5,33C 463.237,36.9961 465.57,40.4961 468.5,43.5C 468.5,44.1667 468.833,44.5 469.5,44.5C 470.167,45.8333 470.833,45.8333 471.5,44.5C 473.308,44.4914 474.975,44.9914 476.5,46C 478.976,49.1454 481.31,52.312 483.5,55.5C 483.5,56.1667 483.833,56.5 484.5,56.5C 486.25,60.3346 488.25,64.0012 490.5,67.5C 493.047,74.2456 496.88,80.2456 502,85.5C 508.143,96.7161 510.643,108.716 509.5,121.5C 508.505,133.655 508.171,145.989 508.5,158.5C 507.521,161.625 507.187,164.958 507.5,168.5C 506.343,171.273 505.676,174.273 505.5,177.5C 504.662,177.842 504.328,178.508 504.5,179.5C 503.662,179.842 503.328,180.508 503.5,181.5C 502.833,181.5 502.5,181.833 502.5,182.5C 501.833,182.5 501.5,182.833 501.5,183.5C 500.833,183.5 500.5,183.833 500.5,184.5C 499.711,184.783 499.044,185.283 498.5,186C 504.457,193.038 507.123,201.204 506.5,210.5C 505.097,213.909 504.43,217.575 504.5,221.5C 503.087,224.219 502.42,227.219 502.5,230.5C 501.549,231.919 501.216,233.585 501.5,235.5C 500.549,236.919 500.216,238.585 500.5,240.5C 499.549,241.919 499.216,243.585 499.5,245.5C 498.566,246.568 498.232,247.901 498.5,249.5C 497.596,250.209 497.263,251.209 497.5,252.5C 496.596,253.209 496.263,254.209 496.5,255.5C 495.596,256.209 495.263,257.209 495.5,258.5C 494.662,258.842 494.328,259.508 494.5,260.5C 493.662,260.842 493.328,261.508 493.5,262.5C 491.457,263.579 490.124,265.246 489.5,267.5C 488.833,267.5 488.5,267.833 488.5,268.5C 487.508,268.328 486.842,268.662 486.5,269.5C 485.508,269.328 484.842,269.662 484.5,270.5C 480.5,270.833 480.5,271.167 484.5,271.5C 483.719,273.322 482.552,273.989 481,273.5C 479.803,286.504 478.636,299.504 477.5,312.5C 476.539,314.265 476.205,316.265 476.5,318.5C 475.566,319.568 475.232,320.901 475.5,322.5C 474.326,323.514 473.66,324.847 473.5,326.5C 472.167,326.833 472.167,327.167 473.5,327.5C 472.538,329.986 471.705,329.986 471,327.5C 470.98,331.981 471.48,336.315 472.5,340.5C 472.517,348.701 473.183,356.701 474.5,364.5C 474.621,375.685 475.287,386.685 476.5,397.5C 492.633,406.4 508.3,416.067 523.5,426.5C 523.5,427.167 523.833,427.5 524.5,427.5C 526.475,428.646 527.975,430.313 529,432.5C 529.333,431.833 529.667,431.167 530,430.5C 530.903,431.701 532.069,432.535 533.5,433C 532.833,433.333 532.167,433.667 531.5,434C 533.743,435.136 536.076,435.97 538.5,436.5C 560.205,446.012 582.205,455.012 604.5,463.5C 628.802,473.483 651.802,485.817 673.5,500.5C 673.5,501.167 673.833,501.5 674.5,501.5C 677.943,504.729 681.61,507.729 685.5,510.5C 685.5,511.167 685.833,511.5 686.5,511.5C 689.167,514.833 692.167,517.833 695.5,520.5C 695.5,521.167 695.833,521.5 696.5,521.5C 698.196,523.525 699.863,525.525 701.5,527.5C 701.5,528.167 701.833,528.5 702.5,528.5C 712.665,543.666 721.998,559.333 730.5,575.5C 733.315,583.787 736.648,591.787 740.5,599.5C 742.994,607.647 745.66,615.647 748.5,623.5C 748.263,624.791 748.596,625.791 749.5,626.5C 749.5,626.833 749.5,627.167 749.5,627.5C 747.5,627.5 745.5,627.5 743.5,627.5C 733.759,593.687 718.925,562.354 699,533.5C 677.347,508.531 651.18,489.698 620.5,477C 590.393,464.134 560.059,451.967 529.5,440.5C 526.02,467.448 516.187,491.781 500,513.5C 465.145,557.04 423.145,591.707 374,617.5C 333.093,594.959 296.426,566.626 264,532.5C 244.867,511.577 230.867,487.577 222,460.5C 220.076,453.958 218.91,447.291 218.5,440.5C 179.055,455.053 140.388,471.553 102.5,490C 71.5612,506.939 48.0612,531.105 32,562.5C 20.6929,583.107 12.1929,604.773 6.5,627.5C 4.5,627.5 2.5,627.5 0.5,627.5C 0.5,626.167 0.5,624.833 0.5,623.5C 8.49231,598.533 18.8256,574.533 31.5,551.5C 33.0828,549.337 34.4161,547.004 35.5,544.5C 36.1667,544.5 36.5,544.167 36.5,543.5C 41.4146,535.91 46.748,528.577 52.5,521.5C 53.1667,521.5 53.5,521.167 53.5,520.5C 54.1667,520.5 54.5,520.167 54.5,519.5C 56.8333,517.833 58.8333,515.833 60.5,513.5C 61.1667,513.5 61.5,513.167 61.5,512.5C 62.1667,512.5 62.5,512.167 62.5,511.5C 63.1667,511.5 63.5,511.167 63.5,510.5C 65.5248,508.804 67.5248,507.137 69.5,505.5C 70.1667,505.5 70.5,505.167 70.5,504.5C 93.8192,487.334 119.152,473.5 146.5,463C 168.833,454 191.167,445 213.5,436C 217.997,432.666 222.33,429.166 226.5,425.5C 227.167,425.5 227.5,425.167 227.5,424.5C 242.221,415.129 257.221,406.129 272.5,397.5C 273.583,375.504 274.083,353.504 274,331.5C 271.683,323.407 269.517,315.407 267.5,307.5C 267.795,305.265 267.461,303.265 266.5,301.5C 266.451,297.922 265.785,294.589 264.5,291.5C 264.57,287.575 263.903,283.909 262.5,280.5C 262.649,277.393 262.149,274.393 261,271.5C 260.576,275.19 259.742,275.357 258.5,272C 258.833,271.667 259.167,271.333 259.5,271C 254.927,267.93 251.261,264.096 248.5,259.5C 248.5,258.833 248.167,258.5 247.5,258.5C 247.068,257.29 246.401,256.29 245.5,255.5C 245.672,254.508 245.338,253.842 244.5,253.5C 243.489,250.06 242.489,246.726 241.5,243.5C 241.703,228.777 241.036,214.11 239.5,199.5C 240.309,193.484 243.143,188.484 248,184.5C 248.167,182.833 248.333,181.167 248.5,179.5C 246.499,165.497 244.499,151.497 242.5,137.5C 243.362,133.547 243.695,129.547 243.5,125.5C 244.82,120.577 246.32,115.577 248,110.5C 246.136,92.9202 251.303,77.9202 263.5,65.5C 264.167,65.5 264.5,65.1667 264.5,64.5C 269.133,57.5229 273.8,50.5229 278.5,43.5C 279.167,43.5 279.5,43.1667 279.5,42.5C 280.289,42.2172 280.956,41.7172 281.5,41C 279.189,40.7641 277.189,39.9307 275.5,38.5C 275.286,36.8561 275.62,35.3561 276.5,34C 287.121,32.4165 296.454,28.2498 304.5,21.5C 305.167,21.5 305.5,21.1667 305.5,20.5C 309.817,17.5136 313.817,14.1803 317.5,10.5C 318.167,10.5 318.5,10.1667 318.5,9.5C 327.428,4.74821 336.762,1.41488 346.5,-0.5 Z"/></g>
<g><path style="opacity:0.016" fill="#260300" d="M 372.5,0.5 C 372.5,0.166667 372.5,-0.166667 372.5,-0.5C 373.167,-0.5 373.833,-0.5 374.5,-0.5C 374.158,0.338246 373.492,0.67158 372.5,0.5 Z"/></g>
<g><path style="opacity:0.004" fill="#0f0000" d="M 389.5,-0.5 C 392.5,-0.5 395.5,-0.5 398.5,-0.5C 395.5,0.833333 392.5,0.833333 389.5,-0.5 Z"/></g>
<g><path style="opacity:0.004" fill="#130100" d="M 375.5,1.5 C 375.897,0.474981 376.563,0.308314 377.5,1C 376.906,1.46434 376.239,1.63101 375.5,1.5 Z"/></g>
<g><path style="opacity:0.016" fill="#200200" d="M 399.5,1.5 C 401.288,0.377527 403.288,0.210861 405.5,1C 403.527,1.49546 401.527,1.66212 399.5,1.5 Z"/></g>
<g><path style="opacity:1" fill="#86513c" d="M 492.5,185.5 C 491.778,185.082 491.278,184.416 491,183.5C 490.667,170.833 490.333,158.167 490,145.5C 488.833,146.667 487.667,147.833 486.5,149C 485.551,149.617 484.718,149.451 484,148.5C 481.975,137.475 482.141,126.475 484.5,115.5C 482.454,108.861 480.288,102.195 478,95.5C 478.412,84.1575 473.245,76.6575 462.5,73C 455.004,69.9386 447.337,67.9386 439.5,67C 442.176,69.339 445.176,71.1724 448.5,72.5C 437.289,74.276 426.289,73.4427 415.5,70C 411.833,69.3333 408.167,69.3333 404.5,70C 390.712,75.4763 377.212,81.643 364,88.5C 362.398,87.2413 362.564,85.908 364.5,84.5C 369.303,81.5289 373.97,78.3623 378.5,75C 364.693,76.8618 351.026,79.6951 337.5,83.5C 335.431,83.1758 335.098,82.3425 336.5,81C 343.489,78.0098 350.489,75.1764 357.5,72.5C 347.353,67.8743 336.687,66.3743 325.5,68C 311.12,69.3072 296.786,70.9738 282.5,73C 281.377,74.0437 280.044,74.7104 278.5,75C 277.167,76 277.167,77 278.5,78C 283.182,80.5443 288.182,82.0443 293.5,82.5C 288.208,90.6264 281.208,96.7931 272.5,101C 267.705,104.755 264.538,109.588 263,115.5C 261.097,125.441 260.097,135.441 260,145.5C 260.667,144.167 261.333,142.833 262,141.5C 262.806,154.383 261.473,167.049 258,179.5C 257.451,181.76 256.284,183.426 254.5,184.5C 253.277,168.724 251.277,153.057 248.5,137.5C 248.614,128.152 250.447,119.152 254,110.5C 251.651,93.2044 256.984,78.8711 270,67.5C 273.667,61.5 277.333,55.5 281,49.5C 283.592,46.2379 286.759,43.7379 290.5,42C 302.496,42.7043 314.496,43.7043 326.5,45C 330.852,46.6823 334.686,49.1823 338,52.5C 337.501,47.0234 334.668,43.19 329.5,41C 316.873,39.2035 304.207,37.7035 291.5,36.5C 303.093,30.7413 313.426,23.2413 322.5,14C 339.024,4.57717 356.357,2.57717 374.5,8C 379.94,11.1087 385.107,14.6087 390,18.5C 389.613,15.0594 388.113,12.0594 385.5,9.5C 386.025,8.80762 386.692,8.30762 387.5,8C 395.287,7.18881 402.953,7.85548 410.5,10C 417.324,12.9091 423.658,16.5757 429.5,21C 437.167,28 444.833,35 452.5,42C 455.089,43.6573 457.756,43.9906 460.5,43C 465.23,47.7967 469.23,53.13 472.5,59C 474.367,59.7112 475.867,59.2112 477,57.5C 481.759,64.0114 485.759,71.0114 489,78.5C 496.009,85.517 500.675,93.8503 503,103.5C 503.079,125.85 502.412,148.184 501,170.5C 499.579,176.392 496.746,181.392 492.5,185.5 Z"/></g>
<g><path style="opacity:0.004" fill="#160100" d="M 318.5,9.5 C 317.833,9.5 317.5,9.83333 317.5,10.5C 315.025,10.2533 315.025,9.58664 317.5,8.5C 318.107,8.62358 318.44,8.95691 318.5,9.5 Z"/></g>
<g><path style="opacity:0.004" fill="#0d0000" d="M 435.5,18.5 C 436.497,17.2875 437.497,17.4542 438.5,19C 437.906,19.4643 437.239,19.631 436.5,19.5C 435.833,19.5 435.5,19.1667 435.5,18.5 Z"/></g>
<g><path style="opacity:0.004" fill="#0d0000" d="M 305.5,20.5 C 304.833,20.5 304.5,20.8333 304.5,21.5C 302.025,21.2533 302.025,20.5866 304.5,19.5C 305.107,19.6236 305.44,19.9569 305.5,20.5 Z"/></g>
<g><path style="opacity:0.016" fill="#260300" d="M 293.5,26.5 C 294.833,27.1667 294.833,27.1667 293.5,26.5 Z"/></g>
<g><path style="opacity:0.004" fill="#160100" d="M 451.5,33.5 C 451.56,32.9569 451.893,32.6236 452.5,32.5C 454.213,32.8793 455.213,33.8793 455.5,35.5C 455.167,35.5 454.833,35.5 454.5,35.5C 454.158,34.6618 453.492,34.3284 452.5,34.5C 451.833,34.5 451.5,34.1667 451.5,33.5 Z"/></g>
<g><path style="opacity:0.016" fill="#220200" d="M 274.5,38.5 C 273.402,37.3991 273.235,36.0657 274,34.5C 274.49,35.7932 274.657,37.1266 274.5,38.5 Z"/></g>
<g><path style="opacity:0.004" fill="#000000" d="M 274.5,38.5 C 274.833,38.5 275.167,38.5 275.5,38.5C 275.315,39.1701 274.981,39.1701 274.5,38.5 Z"/></g>
<g><path style="opacity:0.016" fill="#210200" d="M 279.5,42.5 C 278.833,42.5 278.5,42.8333 278.5,43.5C 277.957,43.44 277.624,43.1067 277.5,42.5C 278.257,41.2267 278.923,41.2267 279.5,42.5 Z"/></g>
<g><path style="opacity:0.016" fill="#1d0100" d="M 471.5,44.5 C 470.833,44.5 470.167,44.5 469.5,44.5C 468.833,44.5 468.5,44.1667 468.5,43.5C 469.322,41.4501 470.322,41.7835 471.5,44.5 Z"/></g>
<g><path style="opacity:0.004" fill="#160100" d="M 484.5,56.5 C 483.833,56.5 483.5,56.1667 483.5,55.5C 483.747,53.0248 484.413,53.0248 485.5,55.5C 485.376,56.1067 485.043,56.44 484.5,56.5 Z"/></g>
<g><path style="opacity:0.004" fill="#160100" d="M 264.5,64.5 C 263.833,64.5 263.5,64.8333 263.5,65.5C 262.287,64.5029 262.454,63.5029 264,62.5C 264.464,63.0944 264.631,63.7611 264.5,64.5 Z"/></g>
<g><path style="opacity:0.016" fill="#1e0200" d="M 491.5,67.5 C 491.167,67.5 490.833,67.5 490.5,67.5C 490.833,64.8333 491.167,64.8333 491.5,67.5 Z"/></g>
<g><path style="opacity:1" fill="#693626" d="M 492.5,185.5 C 489.47,196.293 486.137,206.96 482.5,217.5C 480.756,202.035 478.256,186.702 475,171.5C 473.194,165.747 471.194,160.08 469,154.5C 471.739,133.419 469.072,113.086 461,93.5C 455.989,86.6511 449.156,83.3177 440.5,83.5C 433.34,84.2064 426.34,85.7064 419.5,88C 412.833,88.3333 406.167,88.6667 399.5,89C 390.758,92.5379 382.424,96.8712 374.5,102C 367.669,105.587 360.669,106.087 353.5,103.5C 354.767,101.629 354.767,99.7959 353.5,98C 346.218,96.8655 338.885,96.1988 331.5,96C 333.609,94.8589 335.442,93.3589 337,91.5C 337.684,90.2161 337.517,89.0495 336.5,88C 328.145,87.764 320.145,86.0974 312.5,83C 319.749,81.875 326.082,78.875 331.5,74C 326.986,73.9711 322.653,74.9711 318.5,77C 312.5,77.3333 306.5,77.6667 300.5,78C 298.398,79.7328 298.065,81.7328 299.5,84C 302.218,85.0718 304.885,86.2384 307.5,87.5C 299.087,91.1235 291.587,96.1235 285,102.5C 277.527,111.774 271.861,122.107 268,133.5C 266.985,137.765 266.485,142.098 266.5,146.5C 267.13,155.336 267.797,164.169 268.5,173C 268.754,178.032 267.921,182.865 266,187.5C 262.754,192.911 260.087,198.577 258,204.5C 256.244,197.942 255.077,191.275 254.5,184.5C 256.284,183.426 257.451,181.76 258,179.5C 261.473,167.049 262.806,154.383 262,141.5C 261.333,142.833 260.667,144.167 260,145.5C 260.097,135.441 261.097,125.441 263,115.5C 264.538,109.588 267.705,104.755 272.5,101C 281.208,96.7931 288.208,90.6264 293.5,82.5C 288.182,82.0443 283.182,80.5443 278.5,78C 277.167,77 277.167,76 278.5,75C 280.044,74.7104 281.377,74.0437 282.5,73C 296.786,70.9738 311.12,69.3072 325.5,68C 336.687,66.3743 347.353,67.8743 357.5,72.5C 350.489,75.1764 343.489,78.0098 336.5,81C 335.098,82.3425 335.431,83.1758 337.5,83.5C 351.026,79.6951 364.693,76.8618 378.5,75C 373.97,78.3623 369.303,81.5289 364.5,84.5C 362.564,85.908 362.398,87.2413 364,88.5C 377.212,81.643 390.712,75.4763 404.5,70C 408.167,69.3333 411.833,69.3333 415.5,70C 426.289,73.4427 437.289,74.276 448.5,72.5C 445.176,71.1724 442.176,69.339 439.5,67C 447.337,67.9386 455.004,69.9386 462.5,73C 473.245,76.6575 478.412,84.1575 478,95.5C 480.288,102.195 482.454,108.861 484.5,115.5C 482.141,126.475 481.975,137.475 484,148.5C 484.718,149.451 485.551,149.617 486.5,149C 487.667,147.833 488.833,146.667 490,145.5C 490.333,158.167 490.667,170.833 491,183.5C 491.278,184.416 491.778,185.082 492.5,185.5 Z"/></g>
<g><path style="opacity:0.016" fill="#1e0200" d="M 491.5,67.5 C 492.525,67.8966 492.692,68.5632 492,69.5C 491.536,68.9056 491.369,68.2389 491.5,67.5 Z"/></g>
<g><path style="opacity:1" fill="#d59986" d="M 478.5,230.5 C 476.549,231.282 475.049,232.616 474,234.5C 473.667,234.167 473.333,233.833 473,233.5C 469.403,239.031 466.069,244.697 463,250.5C 460.617,260.931 459.784,271.431 460.5,282C 456.36,290.081 453.193,298.581 451,307.5C 450.333,308.833 449.667,310.167 449,311.5C 448.333,310.167 447.667,310.167 447,311.5C 446.061,314.121 445.228,316.788 444.5,319.5C 442.481,317.202 439.981,315.536 437,314.5C 433.827,307.171 429.661,300.505 424.5,294.5C 425.156,284.702 428.323,275.702 434,267.5C 437.946,263.555 442.446,260.389 447.5,258C 455.113,251.838 458.446,243.838 457.5,234C 457.523,229.432 457.023,224.932 456,220.5C 454.951,219.483 453.784,219.316 452.5,220C 448.391,223.388 443.725,225.721 438.5,227C 423.492,230.306 408.492,230.306 393.5,227C 390,224.833 387.167,222 385,218.5C 383.977,226.316 382.81,226.316 381.5,218.5C 382.268,219.263 382.768,220.263 383,221.5C 383.138,211.425 381.138,201.758 377,192.5C 376.502,189.518 376.335,186.518 376.5,183.5C 376.414,182.504 376.748,181.671 377.5,181C 383.196,178.328 389.196,176.828 395.5,176.5C 393.88,180.182 394.547,183.349 397.5,186C 408.794,185.006 420.128,184.673 431.5,185C 439.8,186.403 447.3,189.57 454,194.5C 455.885,194.138 456.719,192.971 456.5,191C 455.573,184.811 452.239,180.477 446.5,178C 436.806,174.851 426.806,173.351 416.5,173.5C 412.149,173.709 407.815,174.043 403.5,174.5C 415.009,156.056 416.509,136.723 408,116.5C 405.139,108.847 401.305,101.847 396.5,95.5C 396.918,94.7784 397.584,94.2784 398.5,94C 405.167,93.6667 411.833,93.3333 418.5,93C 425.504,90.6639 432.671,89.1639 440,88.5C 447.268,87.969 452.934,90.6357 457,96.5C 461.99,107.613 464.49,119.28 464.5,131.5C 461.843,145.481 463.676,158.815 470,171.5C 474.474,190.933 477.307,210.6 478.5,230.5 Z"/></g>
<g><path style="opacity:1" fill="#e5ad98" d="M 396.5,95.5 C 401.305,101.847 405.139,108.847 408,116.5C 416.509,136.723 415.009,156.056 403.5,174.5C 400.659,174.56 397.993,175.226 395.5,176.5C 389.196,176.828 383.196,178.328 377.5,181C 376.748,181.671 376.414,182.504 376.5,183.5C 374.657,185.159 373.657,187.325 373.5,190C 375.224,199.803 377.891,209.303 381.5,218.5C 382.81,226.316 383.977,226.316 385,218.5C 387.167,222 390,224.833 393.5,227C 408.492,230.306 423.492,230.306 438.5,227C 443.725,225.721 448.391,223.388 452.5,220C 453.784,219.316 454.951,219.483 456,220.5C 457.023,224.932 457.523,229.432 457.5,234C 458.446,243.838 455.113,251.838 447.5,258C 442.446,260.389 437.946,263.555 434,267.5C 428.323,275.702 425.156,284.702 424.5,294.5C 416.399,284.403 406.733,276.069 395.5,269.5C 397.531,268.461 398.864,266.795 399.5,264.5C 401.173,263.657 402.34,262.324 403,260.5C 404.007,255.889 403.34,251.555 401,247.5C 397.642,244.969 394.476,242.302 391.5,239.5C 389.838,235.945 387.171,234.945 383.5,236.5C 385.975,239.784 387.641,243.451 388.5,247.5C 387.925,251.833 385.592,254.667 381.5,256C 377.167,256.667 372.833,256.667 368.5,256C 366.735,252.393 365.402,248.559 364.5,244.5C 362.203,247.471 359.203,249.138 355.5,249.5C 355.747,246.061 355.414,242.728 354.5,239.5C 354.631,238.761 354.464,238.094 354,237.5C 348.92,241.909 344.586,246.909 341,252.5C 339.743,257.82 340.91,262.487 344.5,266.5C 344.975,268.784 345.975,270.784 347.5,272.5C 341.426,276.386 335.426,280.553 329.5,285C 324.009,289.81 319.342,295.144 315.5,301C 314.815,303.795 314.315,306.628 314,309.5C 312.229,311.584 310.896,313.918 310,316.5C 309.667,318.5 309.333,320.5 309,322.5C 308.333,319.833 307.667,319.833 307,322.5C 306.503,325.146 306.336,327.813 306.5,330.5C 305.07,330.421 303.736,330.754 302.5,331.5C 300.126,329.622 298.292,327.288 297,324.5C 293.963,313.86 291.296,303.193 289,292.5C 288.581,291.328 287.915,290.328 287,289.5C 286.597,284.133 285.93,278.799 285,273.5C 284.257,275.645 283.424,275.811 282.5,274C 281.511,267.057 280.011,260.224 278,253.5C 274,247.5 270,241.5 266,235.5C 265.23,236.598 264.397,236.598 263.5,235.5C 263.333,224.828 263.5,214.161 264,203.5C 267.283,195.935 270.283,188.268 273,180.5C 273.846,169.216 273.013,158.049 270.5,147C 273.222,126.213 282.888,109.547 299.5,97C 305.384,94.2058 311.384,91.7058 317.5,89.5C 320.574,90.3024 323.574,91.3024 326.5,92.5C 324.368,93.5984 322.202,94.5984 320,95.5C 319.316,96.7839 319.483,97.9505 320.5,99C 328.038,100.869 335.705,102.036 343.5,102.5C 342.253,104.042 342.253,105.542 343.5,107C 354.995,110.587 366.329,110.254 377.5,106C 383.74,102.243 390.074,98.743 396.5,95.5 Z"/></g>
<g><path style="opacity:0.016" fill="#1e0200" d="M 243.5,125.5 C 243.167,125.5 242.833,125.5 242.5,125.5C 242.833,118.833 243.167,118.833 243.5,125.5 Z"/></g>
<g><path style="opacity:0.016" fill="#1f0200" d="M 509.5,158.5 C 509.5,146.167 509.5,133.833 509.5,121.5C 510.327,116.349 510.827,111.016 511,105.5C 511.144,123.335 510.644,141.002 509.5,158.5 Z"/></g>
<g><path style="opacity:0.016" fill="#1d0100" d="M 242.5,125.5 C 242.81,128.713 242.477,131.713 241.5,134.5C 241.19,131.287 241.523,128.287 242.5,125.5 Z"/></g>
<g><path style="opacity:0.004" fill="#000000" d="M 241.5,134.5 C 241.5,136.5 241.5,138.5 241.5,140.5C 240.167,138.5 240.167,136.5 241.5,134.5 Z"/></g>
<g><path style="opacity:0.016" fill="#1e0200" d="M 241.5,140.5 C 242.641,143.64 242.808,146.973 242,150.5C 241.502,147.183 241.335,143.85 241.5,140.5 Z"/></g>
<g><path style="opacity:0.004" fill="#150100" d="M 242.5,151.5 C 243.613,152.946 243.78,154.613 243,156.5C 242.506,154.866 242.34,153.199 242.5,151.5 Z"/></g>
<g><path style="opacity:0.016" fill="#200200" d="M 508.5,158.5 C 508.833,158.5 509.167,158.5 509.5,158.5C 509.813,162.042 509.479,165.375 508.5,168.5C 508.5,165.167 508.5,161.833 508.5,158.5 Z"/></g>
<g><path style="opacity:0.016" fill="#1e0200" d="M 507.5,168.5 C 507.833,168.5 508.167,168.5 508.5,168.5C 508.167,175.167 507.833,175.167 507.5,168.5 Z"/></g>
<g><path style="opacity:1" fill="#89523d" d="M 352.5,177.5 C 352.915,180.368 351.915,182.535 349.5,184C 336.844,183.642 324.178,183.642 311.5,184C 304.624,184.794 298.957,187.794 294.5,193C 293.072,193.579 291.738,193.412 290.5,192.5C 290.646,184.508 294.313,178.675 301.5,175C 312.581,173.083 323.748,171.917 335,171.5C 340.286,171.631 345.453,172.464 350.5,174C 351.305,175.113 351.972,176.279 352.5,177.5 Z"/></g>
<g><path style="opacity:1" fill="#88523d" d="M 395.5,176.5 C 397.993,175.226 400.659,174.56 403.5,174.5C 407.815,174.043 412.149,173.709 416.5,173.5C 426.806,173.351 436.806,174.851 446.5,178C 452.239,180.477 455.573,184.811 456.5,191C 456.719,192.971 455.885,194.138 454,194.5C 447.3,189.57 439.8,186.403 431.5,185C 420.128,184.673 408.794,185.006 397.5,186C 394.547,183.349 393.88,180.182 395.5,176.5 Z"/></g>
<g><path style="opacity:0.016" fill="#210200" d="M 506.5,177.5 C 506.351,176.448 506.517,175.448 507,174.5C 507.74,175.749 507.573,176.749 506.5,177.5 Z"/></g>
<g><path style="opacity:0.016" fill="#260300" d="M 505.5,177.5 C 505.833,177.5 506.167,177.5 506.5,177.5C 506.672,178.492 506.338,179.158 505.5,179.5C 505.5,178.833 505.5,178.167 505.5,177.5 Z"/></g>
<g><path style="opacity:0.004" fill="#130100" d="M 504.5,179.5 C 504.833,179.5 505.167,179.5 505.5,179.5C 505.672,180.492 505.338,181.158 504.5,181.5C 504.5,180.833 504.5,180.167 504.5,179.5 Z"/></g>
<g><path style="opacity:0.016" fill="#260300" d="M 503.5,181.5 C 503.833,181.5 504.167,181.5 504.5,181.5C 504.315,182.17 503.981,182.17 503.5,181.5 Z"/></g>
<g><path style="opacity:0.016" fill="#260300" d="M 502.5,182.5 C 502.833,182.5 503.167,182.5 503.5,182.5C 503.315,183.17 502.981,183.17 502.5,182.5 Z"/></g>
<g><path style="opacity:1" fill="#d29784" d="M 352.5,177.5 C 353.288,183.672 353.955,190.005 354.5,196.5C 360.874,212.32 355.541,221.487 338.5,224C 326.34,226.274 314.34,225.608 302.5,222C 295.482,221.669 288.482,221.669 281.5,222C 284.887,218.947 288.553,216.28 292.5,214C 294.227,212.611 295.561,210.944 296.5,209C 294.681,206.511 292.848,204.011 291,201.5C 290.727,199.899 290.227,198.399 289.5,197C 290.38,195.644 290.714,194.144 290.5,192.5C 291.738,193.412 293.072,193.579 294.5,193C 298.957,187.794 304.624,184.794 311.5,184C 324.178,183.642 336.844,183.642 349.5,184C 351.915,182.535 352.915,180.368 352.5,177.5 Z"/></g>
<g><path style="opacity:0.016" fill="#260300" d="M 501.5,183.5 C 501.833,183.5 502.167,183.5 502.5,183.5C 502.315,184.17 501.981,184.17 501.5,183.5 Z"/></g>
<g><path style="opacity:0.016" fill="#260300" d="M 500.5,184.5 C 500.833,184.5 501.167,184.5 501.5,184.5C 501.315,185.17 500.981,185.17 500.5,184.5 Z"/></g>
<g><path style="opacity:1" fill="#1b120c" d="M 322.5,186.5 C 331.11,185.307 338.443,187.807 344.5,194C 330.357,186.871 317.024,188.371 304.5,198.5C 304.167,198.333 303.833,198.167 303.5,198C 308.693,192.079 315.026,188.246 322.5,186.5 Z"/></g>
<g><path style="opacity:1" fill="#1e130d" d="M 376.5,183.5 C 376.335,186.518 376.502,189.518 377,192.5C 381.138,201.758 383.138,211.425 383,221.5C 382.768,220.263 382.268,219.263 381.5,218.5C 377.891,209.303 375.224,199.803 373.5,190C 373.657,187.325 374.657,185.159 376.5,183.5 Z"/></g>
<g><path style="opacity:1" fill="#1b120d" d="M 436.5,197.5 C 424.222,190.386 411.556,189.719 398.5,195.5C 405.524,188.925 413.857,186.758 423.5,189C 428.549,190.85 432.883,193.684 436.5,197.5 Z"/></g>
<g><path style="opacity:1" fill="#c68e7c" d="M 257.5,217.5 C 256.674,222.316 256.174,227.316 256,232.5C 252.837,228.844 250.171,224.844 248,220.5C 247.501,226.491 247.334,232.491 247.5,238.5C 246.373,224.668 245.873,210.668 246,196.5C 246.972,194.695 248.139,193.028 249.5,191.5C 251.287,200.434 253.954,209.101 257.5,217.5 Z"/></g>
<g><path style="opacity:1" fill="#b58271" d="M 436.5,197.5 C 437.756,197.461 438.756,197.961 439.5,199C 437.362,198.441 435.362,198.608 433.5,199.5C 422.771,193.785 411.771,193.118 400.5,197.5C 398.987,196.691 397.32,196.524 395.5,197C 396.244,195.961 397.244,195.461 398.5,195.5C 411.556,189.719 424.222,190.386 436.5,197.5 Z"/></g>
<g><path style="opacity:0.016" fill="#1e0200" d="M 239.5,199.5 C 238.387,198.054 238.22,196.387 239,194.5C 239.494,196.134 239.66,197.801 239.5,199.5 Z"/></g>
<g><path style="opacity:1" fill="#cc9381" d="M 499.5,212.5 C 499.663,210.143 499.497,207.81 499,205.5C 496.027,210.079 494.027,215.079 493,220.5C 490.313,226.552 487.146,232.219 483.5,237.5C 482.436,230.487 483.936,224.153 488,218.5C 490.192,209.732 492.692,201.065 495.5,192.5C 497.758,194.677 499.258,197.343 500,200.5C 500.812,204.689 500.645,208.689 499.5,212.5 Z"/></g>
<g><path style="opacity:1" fill="#190f08" d="M 433.5,199.5 C 436.9,200.9 439.233,203.233 440.5,206.5C 432.656,208.696 424.656,210.03 416.5,210.5C 407.865,210.062 399.532,208.562 391.5,206C 392.46,204.581 393.293,203.081 394,201.5C 396.438,200.432 398.605,199.098 400.5,197.5C 411.771,193.118 422.771,193.785 433.5,199.5 Z"/></g>
<g><path style="opacity:1" fill="#1a0f0a" d="M 320.5,193.5 C 331.782,191.985 341.615,194.985 350,202.5C 350.49,203.793 350.657,205.127 350.5,206.5C 342.303,207.175 334.136,208.175 326,209.5C 317.343,209.533 309.176,207.7 301.5,204C 307.327,199.423 313.66,195.923 320.5,193.5 Z"/></g>
<g><path style="opacity:1" fill="#a39f9e" d="M 342.5,202.5 C 340.703,201.27 338.703,200.604 336.5,200.5C 336.737,201.791 336.404,202.791 335.5,203.5C 335.756,201.208 335.423,199.041 334.5,197C 336.788,196.582 338.788,197.249 340.5,199C 341.823,199.816 342.489,200.983 342.5,202.5 Z"/></g>
<g><path style="opacity:1" fill="#e0dedc" d="M 324.5,200.5 C 323.508,200.672 322.842,200.338 322.5,199.5C 322.821,197.952 323.821,197.285 325.5,197.5C 325.737,198.791 325.404,199.791 324.5,200.5 Z"/></g>
<g><path style="opacity:1" fill="#4c747f" d="M 322.5,199.5 C 322.842,200.338 323.508,200.672 324.5,200.5C 322.986,202.806 323.652,204.139 326.5,204.5C 330.024,203.95 331.024,202.116 329.5,199C 330.5,198.333 331.5,198.333 332.5,199C 333.926,201.711 333.592,204.211 331.5,206.5C 324.072,209.61 320.072,207.276 319.5,199.5C 320.5,199.5 321.5,199.5 322.5,199.5 Z"/></g>
<g><path style="opacity:1" fill="#aca9a7" d="M 317.5,200.5 C 315.883,201.038 314.216,201.371 312.5,201.5C 312.5,202.5 312.5,203.5 312.5,204.5C 311.312,199.84 313.312,197.674 318.5,198C 317.748,198.671 317.414,199.504 317.5,200.5 Z"/></g>
<g><path style="opacity:1" fill="#cccbca" d="M 414.5,201.5 C 414.167,201.5 413.833,201.5 413.5,201.5C 412.209,201.737 411.209,201.404 410.5,200.5C 412.423,197.782 413.756,198.116 414.5,201.5 Z"/></g>
<g><path style="opacity:0.004" fill="#000000" d="M 237.5,200.5 C 238.525,200.897 238.692,201.563 238,202.5C 237.536,201.906 237.369,201.239 237.5,200.5 Z"/></g>
<g><path style="opacity:1" fill="#e9e8e7" d="M 342.5,202.5 C 341.536,204.405 339.869,205.405 337.5,205.5C 336.287,205.253 335.62,204.586 335.5,203.5C 336.404,202.791 336.737,201.791 336.5,200.5C 338.703,200.604 340.703,201.27 342.5,202.5 Z"/></g>
<g><path style="opacity:1" fill="#a09c9a" d="M 406.5,201.5 C 403.05,200.756 401.384,202.09 401.5,205.5C 400.751,204.469 400.085,203.302 399.5,202C 401.699,200.303 404.032,198.803 406.5,197.5C 407.292,198.7 407.292,200.033 406.5,201.5 Z"/></g>
<g><path style="opacity:1" fill="#4d757f" d="M 410.5,200.5 C 411.209,201.404 412.209,201.737 413.5,201.5C 410.875,202.441 410.875,203.607 413.5,205C 417.925,205.956 419.592,204.123 418.5,199.5C 421.243,199.077 422.576,200.244 422.5,203C 422.357,205.151 421.357,206.818 419.5,208C 414.015,209.894 410.349,208.227 408.5,203C 408.639,201.699 409.305,200.866 410.5,200.5 Z"/></g>
<g><path style="opacity:1" fill="#eae8e8" d="M 317.5,200.5 C 317.833,202.5 318.167,204.5 318.5,206.5C 315.99,206.946 313.99,206.28 312.5,204.5C 312.5,203.5 312.5,202.5 312.5,201.5C 314.216,201.371 315.883,201.038 317.5,200.5 Z"/></g>
<g><path style="opacity:1" fill="#e6e4e3" d="M 406.5,201.5 C 406.92,203.674 406.92,205.674 406.5,207.5C 404.925,206.544 403.258,205.877 401.5,205.5C 401.384,202.09 403.05,200.756 406.5,201.5 Z"/></g>
<g><path style="opacity:1" fill="#cecccb" d="M 424.5,198.5 C 429.861,198.667 431.861,201.167 430.5,206C 428.231,207.558 425.898,207.724 423.5,206.5C 424.393,203.916 424.726,201.249 424.5,198.5 Z"/></g>
<g><path style="opacity:1" fill="#908d8b" d="M 414.5,201.5 C 416.337,201.639 416.67,202.306 415.5,203.5C 414.702,203.043 414.369,202.376 414.5,201.5 Z"/></g>
<g><path style="opacity:0.004" fill="#000000" d="M 507.5,210.5 C 507.336,207.813 507.503,205.146 508,202.5C 508.801,205.367 508.634,208.034 507.5,210.5 Z"/></g>
<g><path style="opacity:1" fill="#825c4d" d="M 344.5,201.5 C 348.31,202.754 348.31,203.754 344.5,204.5C 344.5,203.5 344.5,202.5 344.5,201.5 Z"/></g>
<g><path style="opacity:1" fill="#996e5e" d="M 396.5,202.5 C 398.048,202.821 398.715,203.821 398.5,205.5C 395.752,205.598 395.086,204.598 396.5,202.5 Z"/></g>
<g><path style="opacity:0.016" fill="#1e0100" d="M 238.5,203.5 C 239.648,207.981 239.815,212.648 239,217.5C 238.501,212.845 238.334,208.179 238.5,203.5 Z"/></g>
<g><path style="opacity:1" fill="#dfa793" d="M 499.5,212.5 C 497.446,223.836 495.279,235.169 493,246.5C 491.729,250.979 490.062,255.312 488,259.5C 483.585,266.348 481.418,265.848 481.5,258C 481.89,251.085 482.556,244.252 483.5,237.5C 487.146,232.219 490.313,226.552 493,220.5C 494.027,215.079 496.027,210.079 499,205.5C 499.497,207.81 499.663,210.143 499.5,212.5 Z"/></g>
<g><path style="opacity:0.016" fill="#1e0200" d="M 506.5,210.5 C 506.833,210.5 507.167,210.5 507.5,210.5C 507.167,217.167 506.833,217.167 506.5,210.5 Z"/></g>
<g><path style="opacity:1" fill="#1a110b" d="M 403.5,214.5 C 403.56,213.957 403.893,213.624 404.5,213.5C 407.94,215.369 411.607,216.535 415.5,217C 411.104,217.968 407.104,217.135 403.5,214.5 Z"/></g>
<g><path style="opacity:1" fill="#573d33" d="M 340.5,212.5 C 341.239,212.369 341.906,212.536 342.5,213C 338.64,217.236 333.974,218.403 328.5,216.5C 331.107,215.682 333.774,215.182 336.5,215C 338.32,214.8 339.653,213.966 340.5,212.5 Z"/></g>
<g><path style="opacity:0.016" fill="#220200" d="M 505.5,216.5 C 506.598,217.601 506.765,218.934 506,220.5C 505.51,219.207 505.343,217.873 505.5,216.5 Z"/></g>
<g><path style="opacity:0.016" fill="#240200" d="M 240.5,243.5 C 239.343,235.344 239.177,227.01 240,218.5C 240.5,226.827 240.666,235.16 240.5,243.5 Z"/></g>
<g><path style="opacity:0.016" fill="#220200" d="M 504.5,221.5 C 505.598,222.601 505.765,223.934 505,225.5C 504.51,224.207 504.343,222.873 504.5,221.5 Z"/></g>
<g><path style="opacity:1" fill="#dfa893" d="M 257.5,217.5 C 257.088,226.4 257.754,235.067 259.5,243.5C 259.909,250.406 260.575,257.239 261.5,264C 261.167,264.167 260.833,264.333 260.5,264.5C 254.93,259.096 250.764,252.762 248,245.5C 247.503,243.19 247.337,240.857 247.5,238.5C 247.334,232.491 247.501,226.491 248,220.5C 250.171,224.844 252.837,228.844 256,232.5C 256.174,227.316 256.674,222.316 257.5,217.5 Z"/></g>
<g><path style="opacity:0.016" fill="#220200" d="M 503.5,230.5 C 503.343,229.127 503.51,227.793 504,226.5C 504.765,228.066 504.598,229.399 503.5,230.5 Z"/></g>
<g><path style="opacity:1" fill="#ad7b6b" d="M 257.5,217.5 C 258.574,225.986 259.241,234.653 259.5,243.5C 257.754,235.067 257.088,226.4 257.5,217.5 Z"/></g>
<g><path style="opacity:0.004" fill="#110000" d="M 502.5,230.5 C 502.833,230.5 503.167,230.5 503.5,230.5C 503.784,232.415 503.451,234.081 502.5,235.5C 502.5,233.833 502.5,232.167 502.5,230.5 Z"/></g>
<g><path style="opacity:1" fill="#84411e" d="M 478.5,230.5 C 476.374,259.887 473.707,289.22 470.5,318.5C 468.516,318.383 466.85,319.05 465.5,320.5C 463.726,323.715 462.226,327.048 461,330.5C 457.407,344.612 453.407,358.612 449,372.5C 448.259,373.641 447.425,373.641 446.5,372.5C 445.186,373.313 444.019,374.313 443,375.5C 432.431,402.2 412.931,417.533 384.5,421.5C 384.703,419.61 384.037,418.11 382.5,417C 372.398,416.117 362.398,416.783 352.5,419C 346.833,419.667 341.167,419.667 335.5,419C 332.452,418.394 329.952,416.894 328,414.5C 326.315,408.959 323.482,404.126 319.5,400C 314.957,398.385 312.124,399.885 311,404.5C 308.229,400.196 306.229,395.529 305,390.5C 303.429,380.405 301.429,370.405 299,360.5C 295.933,355.214 292.767,355.214 289.5,360.5C 275.304,320.041 266.637,278.374 263.5,235.5C 264.397,236.598 265.23,236.598 266,235.5C 270,241.5 274,247.5 278,253.5C 280.011,260.224 281.511,267.057 282.5,274C 283.424,275.811 284.257,275.645 285,273.5C 285.93,278.799 286.597,284.133 287,289.5C 287.915,290.328 288.581,291.328 289,292.5C 291.296,303.193 293.963,313.86 297,324.5C 298.292,327.288 300.126,329.622 302.5,331.5C 303.736,330.754 305.07,330.421 306.5,330.5C 306.336,327.813 306.503,325.146 307,322.5C 307.667,319.833 308.333,319.833 309,322.5C 309.333,320.5 309.667,318.5 310,316.5C 310.896,313.918 312.229,311.584 314,309.5C 314.315,306.628 314.815,303.795 315.5,301C 319.342,295.144 324.009,289.81 329.5,285C 335.426,280.553 341.426,276.386 347.5,272.5C 356.681,270.025 365.848,270.358 375,273.5C 381.589,270.487 388.422,269.154 395.5,269.5C 406.733,276.069 416.399,284.403 424.5,294.5C 429.661,300.505 433.827,307.171 437,314.5C 439.981,315.536 442.481,317.202 444.5,319.5C 445.228,316.788 446.061,314.121 447,311.5C 447.667,310.167 448.333,310.167 449,311.5C 449.667,310.167 450.333,308.833 451,307.5C 453.193,298.581 456.36,290.081 460.5,282C 459.784,271.431 460.617,260.931 463,250.5C 466.069,244.697 469.403,239.031 473,233.5C 473.333,233.833 473.667,234.167 474,234.5C 475.049,232.616 476.549,231.282 478.5,230.5 Z"/></g>
<g><path style="opacity:1" fill="#cf9583" d="M 391.5,239.5 C 390.535,240.721 390.702,242.054 392,243.5C 396.129,247.273 398.962,251.773 400.5,257C 400.078,260.767 398.078,263.433 394.5,265C 396.197,265.384 397.863,265.218 399.5,264.5C 398.864,266.795 397.531,268.461 395.5,269.5C 388.422,269.154 381.589,270.487 375,273.5C 365.848,270.358 356.681,270.025 347.5,272.5C 345.975,270.784 344.975,268.784 344.5,266.5C 346.305,267.909 348.305,268.409 350.5,268C 345.162,264.491 343.328,259.658 345,253.5C 347.942,248.594 351.109,243.928 354.5,239.5C 355.414,242.728 355.747,246.061 355.5,249.5C 359.203,249.138 362.203,247.471 364.5,244.5C 365.402,248.559 366.735,252.393 368.5,256C 372.833,256.667 377.167,256.667 381.5,256C 385.592,254.667 387.925,251.833 388.5,247.5C 387.641,243.451 385.975,239.784 383.5,236.5C 387.171,234.945 389.838,235.945 391.5,239.5 Z"/></g>
<g><path style="opacity:0.004" fill="#150100" d="M 501.5,235.5 C 501.833,235.5 502.167,235.5 502.5,235.5C 502.784,237.415 502.451,239.081 501.5,240.5C 501.5,238.833 501.5,237.167 501.5,235.5 Z"/></g>
<g><path style="opacity:0.004" fill="#150100" d="M 500.5,240.5 C 500.833,240.5 501.167,240.5 501.5,240.5C 501.784,242.415 501.451,244.081 500.5,245.5C 500.5,243.833 500.5,242.167 500.5,240.5 Z"/></g>
<g><path style="opacity:0.016" fill="#220200" d="M 499.5,245.5 C 499.833,245.5 500.167,245.5 500.5,245.5C 500.768,247.099 500.434,248.432 499.5,249.5C 499.5,248.167 499.5,246.833 499.5,245.5 Z"/></g>
<g><path style="opacity:0.004" fill="#150100" d="M 240.5,243.5 C 240.833,243.5 241.167,243.5 241.5,243.5C 241.167,250.167 240.833,250.167 240.5,243.5 Z"/></g>
<g><path style="opacity:1" fill="#1e130a" d="M 391.5,239.5 C 394.476,242.302 397.642,244.969 401,247.5C 403.34,251.555 404.007,255.889 403,260.5C 402.34,262.324 401.173,263.657 399.5,264.5C 397.863,265.218 396.197,265.384 394.5,265C 398.078,263.433 400.078,260.767 400.5,257C 398.962,251.773 396.129,247.273 392,243.5C 390.702,242.054 390.535,240.721 391.5,239.5 Z"/></g>
<g><path style="opacity:0.016" fill="#210200" d="M 498.5,249.5 C 498.833,249.5 499.167,249.5 499.5,249.5C 499.737,250.791 499.404,251.791 498.5,252.5C 498.5,251.5 498.5,250.5 498.5,249.5 Z"/></g>
<g><path style="opacity:0.016" fill="#190100" d="M 497.5,252.5 C 497.833,252.5 498.167,252.5 498.5,252.5C 498.737,253.791 498.404,254.791 497.5,255.5C 497.5,254.5 497.5,253.5 497.5,252.5 Z"/></g>
<g><path style="opacity:0.016" fill="#1e0200" d="M 244.5,253.5 C 244.5,254.167 244.5,254.833 244.5,255.5C 243.167,254.833 243.167,254.167 244.5,253.5 Z"/></g>
<g><path style="opacity:1" fill="#1f120a" d="M 354.5,239.5 C 351.109,243.928 347.942,248.594 345,253.5C 343.328,259.658 345.162,264.491 350.5,268C 348.305,268.409 346.305,267.909 344.5,266.5C 340.91,262.487 339.743,257.82 341,252.5C 344.586,246.909 348.92,241.909 354,237.5C 354.464,238.094 354.631,238.761 354.5,239.5 Z"/></g>
<g><path style="opacity:0.004" fill="#130100" d="M 244.5,255.5 C 244.833,255.5 245.167,255.5 245.5,255.5C 245.167,258.167 244.833,258.167 244.5,255.5 Z"/></g>
<g><path style="opacity:0.016" fill="#190100" d="M 496.5,255.5 C 496.833,255.5 497.167,255.5 497.5,255.5C 497.737,256.791 497.404,257.791 496.5,258.5C 496.5,257.5 496.5,256.5 496.5,255.5 Z"/></g>
<g><path style="opacity:0.004" fill="#160100" d="M 247.5,258.5 C 248.167,258.5 248.5,258.833 248.5,259.5C 248.253,261.975 247.587,261.975 246.5,259.5C 246.624,258.893 246.957,258.56 247.5,258.5 Z"/></g>
<g><path style="opacity:0.004" fill="#130100" d="M 495.5,258.5 C 495.833,258.5 496.167,258.5 496.5,258.5C 496.672,259.492 496.338,260.158 495.5,260.5C 495.5,259.833 495.5,259.167 495.5,258.5 Z"/></g>
<g><path style="opacity:1" fill="#1b1009" d="M 354.5,258.5 C 360.16,257.831 364.827,259.664 368.5,264C 372.167,266 375.833,266 379.5,264C 383.172,259.495 387.839,257.829 393.5,259C 391.833,259.333 390.167,259.667 388.5,260C 379.141,270.905 369.474,271.238 359.5,261C 356.653,260.056 354.153,260.556 352,262.5C 351.333,261.833 351.333,261.167 352,260.5C 352.995,259.934 353.828,259.267 354.5,258.5 Z"/></g>
<g><path style="opacity:0.004" fill="#130100" d="M 494.5,260.5 C 494.833,260.5 495.167,260.5 495.5,260.5C 495.672,261.492 495.338,262.158 494.5,262.5C 494.5,261.833 494.5,261.167 494.5,260.5 Z"/></g>
<g><path style="opacity:0.016" fill="#260300" d="M 493.5,262.5 C 493.833,262.5 494.167,262.5 494.5,262.5C 494.315,263.17 493.981,263.17 493.5,262.5 Z"/></g>
<g><path style="opacity:0.016" fill="#260300" d="M 489.5,267.5 C 490.833,268.167 490.833,268.167 489.5,267.5 Z"/></g>
<g><path style="opacity:0.016" fill="#260300" d="M 488.5,268.5 C 488.833,268.5 489.167,268.5 489.5,268.5C 489.315,269.17 488.981,269.17 488.5,268.5 Z"/></g>
<g><path style="opacity:0.004" fill="#130100" d="M 486.5,270.5 C 486.5,270.167 486.5,269.833 486.5,269.5C 487.167,269.5 487.833,269.5 488.5,269.5C 488.158,270.338 487.492,270.672 486.5,270.5 Z"/></g>
<g><path style="opacity:0.016" fill="#260300" d="M 484.5,271.5 C 484.5,271.167 484.5,270.833 484.5,270.5C 485.167,270.5 485.833,270.5 486.5,270.5C 486.158,271.338 485.492,271.672 484.5,271.5 Z"/></g>
<g><path style="opacity:0.004" fill="#150100" d="M 261.5,280.5 C 260.387,279.054 260.22,277.387 261,275.5C 261.494,277.134 261.66,278.801 261.5,280.5 Z"/></g>
<g><path style="opacity:0.016" fill="#1e0200" d="M 261.5,280.5 C 261.833,280.5 262.167,280.5 262.5,280.5C 262.167,287.167 261.833,287.167 261.5,280.5 Z"/></g>
<g><path style="opacity:1" fill="#ce9985" d="M 399.5,294.5 C 394.497,292.776 389.497,290.942 384.5,289C 380.174,288.228 376.007,288.728 372,290.5C 367.993,288.728 363.826,288.228 359.5,289C 354.265,291.232 349.265,293.732 344.5,296.5C 343.448,296.649 342.448,296.483 341.5,296C 349.907,287.331 359.907,284.498 371.5,287.5C 382.437,284.015 391.771,286.348 399.5,294.5 Z"/></g>
<g><path style="opacity:0.004" fill="#150100" d="M 263.5,291.5 C 262.387,290.054 262.22,288.387 263,286.5C 263.494,288.134 263.66,289.801 263.5,291.5 Z"/></g>
<g><path style="opacity:1" fill="#1a0f08" d="M 399.5,294.5 C 400.995,294.989 402.329,295.655 403.5,296.5C 395.875,295.385 388.375,293.719 381,291.5C 375,294.167 369,294.167 363,291.5C 357.565,293.479 352.065,295.146 346.5,296.5C 345.833,296.5 345.167,296.5 344.5,296.5C 349.265,293.732 354.265,291.232 359.5,289C 363.826,288.228 367.993,288.728 372,290.5C 376.007,288.728 380.174,288.228 384.5,289C 389.497,290.942 394.497,292.776 399.5,294.5 Z"/></g>
<g><path style="opacity:0.004" fill="#150100" d="M 263.5,291.5 C 263.833,291.5 264.167,291.5 264.5,291.5C 264.167,298.167 263.833,298.167 263.5,291.5 Z"/></g>
<g><path style="opacity:0.016" fill="#1c0100" d="M 266.5,301.5 C 266.5,303.5 266.5,305.5 266.5,307.5C 265.167,305.5 265.167,303.5 266.5,301.5 Z"/></g>
<g><path style="opacity:1" fill="#1b120c" d="M 404.5,303.5 C 403.833,304.167 403.167,304.833 402.5,305.5C 401.772,307.735 400.439,309.568 398.5,311C 392.716,312.789 387.383,315.455 382.5,319C 375.625,321.867 368.625,322.201 361.5,320C 356.156,316.885 350.489,314.552 344.5,313C 341.785,312.125 340.452,310.292 340.5,307.5C 339.448,307.649 338.448,307.483 337.5,307C 343.05,305.884 348.383,304.218 353.5,302C 363.894,301.797 374.227,300.964 384.5,299.5C 391.231,300.516 397.898,301.85 404.5,303.5 Z"/></g>
<g><path style="opacity:1" fill="#f4f3f3" d="M 376.5,303.5 C 382.842,303.334 389.175,303.5 395.5,304C 397.922,306.112 397.922,308.112 395.5,310C 389.485,311.508 383.819,313.841 378.5,317C 373.833,317.667 369.167,317.667 364.5,317C 358.679,314.727 352.679,313.06 346.5,312C 344.473,310.604 344.14,308.938 345.5,307C 353.499,304.323 361.665,303.823 370,305.5C 372.4,305.198 374.566,304.532 376.5,303.5 Z"/></g>
<g><path style="opacity:0.016" fill="#1e0100" d="M 478.5,312.5 C 478.337,310.143 478.503,307.81 479,305.5C 479.796,308.039 479.629,310.372 478.5,312.5 Z"/></g>
<g><path style="opacity:1" fill="#c28874" d="M 403.5,296.5 C 406.113,297.095 406.113,297.929 403.5,299C 404.833,300.333 406.167,301.667 407.5,303C 406.552,303.483 405.552,303.649 404.5,303.5C 397.898,301.85 391.231,300.516 384.5,299.5C 374.227,300.964 363.894,301.797 353.5,302C 348.383,304.218 343.05,305.884 337.5,307C 338.448,307.483 339.448,307.649 340.5,307.5C 340.452,310.292 341.785,312.125 344.5,313C 350.489,314.552 356.156,316.885 361.5,320C 368.625,322.201 375.625,321.867 382.5,319C 387.383,315.455 392.716,312.789 398.5,311C 400.439,309.568 401.772,307.735 402.5,305.5C 404.547,305.489 406.547,305.156 408.5,304.5C 410.038,304.453 411.038,305.12 411.5,306.5C 409.608,307.702 407.774,309.035 406,310.5C 402.085,318.234 396.919,324.901 390.5,330.5C 390.44,329.957 390.107,329.624 389.5,329.5C 376.178,336.444 363.178,336.11 350.5,328.5C 349.893,328.624 349.56,328.957 349.5,329.5C 348.066,327.51 346.232,325.843 344,324.5C 341.058,319.594 337.891,314.928 334.5,310.5C 335.774,306.619 337.607,302.952 340,299.5C 342.166,298.269 344.333,297.269 346.5,296.5C 352.065,295.146 357.565,293.479 363,291.5C 369,294.167 375,294.167 381,291.5C 388.375,293.719 395.875,295.385 403.5,296.5 Z"/></g>
<g><path style="opacity:0.016" fill="#1e0200" d="M 266.5,307.5 C 266.833,307.5 267.167,307.5 267.5,307.5C 267.167,314.167 266.833,314.167 266.5,307.5 Z"/></g>
<g><path style="opacity:1" fill="#e3ab96" d="M 411.5,306.5 C 413.287,310.075 415.121,313.741 417,317.5C 417.667,321.5 417.667,325.5 417,329.5C 416.667,329.167 416.333,328.833 416,328.5C 415.168,332.67 416.002,336.503 418.5,340C 417.07,342.192 415.403,344.192 413.5,346C 410.21,346.253 407.21,347.253 404.5,349C 402.19,349.497 399.857,349.663 397.5,349.5C 397.5,350.5 397.5,351.5 397.5,352.5C 394.735,352.202 392.235,351.202 390,349.5C 389.282,350.451 388.449,350.617 387.5,350C 384.5,345.833 382.167,341.333 380.5,336.5C 384.095,334.898 387.429,332.898 390.5,330.5C 396.919,324.901 402.085,318.234 406,310.5C 407.774,309.035 409.608,307.702 411.5,306.5 Z"/></g>
<g><path style="opacity:1" fill="#e4ab97" d="M 334.5,310.5 C 337.891,314.928 341.058,319.594 344,324.5C 346.232,325.843 348.066,327.51 349.5,329.5C 352.484,332.326 355.817,334.659 359.5,336.5C 357.599,340.935 356.432,345.602 356,350.5C 355.535,351.931 354.701,353.097 353.5,354C 350.45,355.198 347.45,356.365 344.5,357.5C 339.478,355.799 334.978,353.799 331,351.5C 331.028,347.277 329.695,343.611 327,340.5C 326.747,335.961 326.247,331.461 325.5,327C 328.009,323.147 329.842,318.981 331,314.5C 332.405,313.269 333.571,311.936 334.5,310.5 Z"/></g>
<g><path style="opacity:0.016" fill="#220200" d="M 267.5,313.5 C 268.598,314.601 268.765,315.934 268,317.5C 267.51,316.207 267.343,314.873 267.5,313.5 Z"/></g>
<g><path style="opacity:0.016" fill="#200200" d="M 477.5,312.5 C 477.833,312.5 478.167,312.5 478.5,312.5C 478.795,314.735 478.461,316.735 477.5,318.5C 477.5,316.5 477.5,314.5 477.5,312.5 Z"/></g>
<g><path style="opacity:0.016" fill="#1c0100" d="M 476.5,318.5 C 476.833,318.5 477.167,318.5 477.5,318.5C 477.768,320.099 477.434,321.432 476.5,322.5C 476.5,321.167 476.5,319.833 476.5,318.5 Z"/></g>
<g><path style="opacity:0.016" fill="#260300" d="M 475.5,322.5 C 475.833,322.5 476.167,322.5 476.5,322.5C 476.167,325.167 475.833,325.167 475.5,322.5 Z"/></g>
<g><path style="opacity:0.016" fill="#260300" d="M 474.5,325.5 C 475.833,326.167 475.833,326.167 474.5,325.5 Z"/></g>
<g><path style="opacity:0.016" fill="#260300" d="M 473.5,326.5 C 473.833,326.5 474.167,326.5 474.5,326.5C 474.315,327.17 473.981,327.17 473.5,326.5 Z"/></g>
<g><path style="opacity:0.016" fill="#1e0200" d="M 473.5,340.5 C 473.167,340.5 472.833,340.5 472.5,340.5C 472.833,327.167 473.167,327.167 473.5,340.5 Z"/></g>
<g><path style="opacity:1" fill="#1a0d05" d="M 349.5,329.5 C 349.56,328.957 349.893,328.624 350.5,328.5C 363.178,336.11 376.178,336.444 389.5,329.5C 390.107,329.624 390.44,329.957 390.5,330.5C 387.429,332.898 384.095,334.898 380.5,336.5C 373.476,339.05 366.476,339.05 359.5,336.5C 355.817,334.659 352.484,332.326 349.5,329.5 Z"/></g>
<g><path style="opacity:1" fill="#ca9080" d="M 467.5,362.5 C 461.101,370.276 455.934,378.943 452,388.5C 447.738,398.953 444.071,409.62 441,420.5C 433.489,436.341 421.323,446.841 404.5,452C 383.581,460.179 362.248,461.512 340.5,456C 327.587,451.089 317.754,442.589 311,430.5C 305.726,419.619 300.726,408.619 296,397.5C 292.556,391.724 288.723,386.224 284.5,381C 283.5,380.5 282.5,380 281.5,379.5C 280.503,387.138 280.169,394.804 280.5,402.5C 280.167,402.5 279.833,402.5 279.5,402.5C 279.333,384.83 279.5,367.164 280,349.5C 281.987,354.789 283.987,360.122 286,365.5C 289.542,368.408 292.375,367.741 294.5,363.5C 297.081,373.725 299.248,384.058 301,394.5C 302.654,400.643 305.488,406.143 309.5,411C 314.112,411.562 316.446,409.395 316.5,404.5C 320.387,407.95 322.887,412.283 324,417.5C 327.016,421.092 330.849,423.258 335.5,424C 349.539,423.876 363.539,423.042 377.5,421.5C 377.137,423.911 378.137,425.411 380.5,426C 404.241,425.046 423.407,415.213 438,396.5C 441.103,391.731 443.769,386.731 446,381.5C 447.667,380.833 449.333,380.167 451,379.5C 456.143,364.925 460.976,350.258 465.5,335.5C 467.037,344.432 467.704,353.432 467.5,362.5 Z"/></g>
<g><path style="opacity:0.016" fill="#1e0100" d="M 473.5,340.5 C 474.643,343.976 474.81,347.642 474,351.5C 473.501,347.848 473.335,344.182 473.5,340.5 Z"/></g>
<g><path style="opacity:0.016" fill="#200200" d="M 474.5,364.5 C 474.334,360.486 474.501,356.486 475,352.5C 475.812,356.689 475.645,360.689 474.5,364.5 Z"/></g>
<g><path style="opacity:1" fill="#e4ac97" d="M 467.5,362.5 C 469.511,381.98 471.011,401.647 472,421.5C 473.258,419.236 474.425,416.902 475.5,414.5C 476.466,416.396 476.799,418.396 476.5,420.5C 478.608,443.778 470.275,462.278 451.5,476C 411.868,500.185 369.535,506.185 324.5,494C 285.907,482.966 267.907,457.466 270.5,417.5C 271.888,414.192 273.388,410.859 275,407.5C 276.075,410.894 277.242,414.228 278.5,417.5C 278.56,418.043 278.893,418.376 279.5,418.5C 280.495,413.208 280.828,407.875 280.5,402.5C 280.169,394.804 280.503,387.138 281.5,379.5C 282.5,380 283.5,380.5 284.5,381C 288.723,386.224 292.556,391.724 296,397.5C 300.726,408.619 305.726,419.619 311,430.5C 317.754,442.589 327.587,451.089 340.5,456C 362.248,461.512 383.581,460.179 404.5,452C 421.323,446.841 433.489,436.341 441,420.5C 444.071,409.62 447.738,398.953 452,388.5C 455.934,378.943 461.101,370.276 467.5,362.5 Z"/></g>
<g><path style="opacity:0.016" fill="#200200" d="M 475.5,365.5 C 476.647,369.646 476.814,373.98 476,378.5C 475.501,374.179 475.334,369.846 475.5,365.5 Z"/></g>
<g><path style="opacity:0.016" fill="#220200" d="M 476.5,397.5 C 476.334,391.491 476.501,385.491 477,379.5C 477.19,385.416 477.69,391.249 478.5,397C 477.906,397.464 477.239,397.631 476.5,397.5 Z"/></g>
<g><path style="opacity:1" fill="#6b4a3d" d="M 279.5,402.5 C 279.833,402.5 280.167,402.5 280.5,402.5C 280.828,407.875 280.495,413.208 279.5,418.5C 278.893,418.376 278.56,418.043 278.5,417.5C 279.487,412.695 279.821,407.695 279.5,402.5 Z"/></g>
<g><path style="opacity:1" fill="#006577" d="M 292.5,504.5 C 295.898,509.406 299.898,513.906 304.5,518C 326.259,538.268 349.593,556.434 374.5,572.5C 412.758,548.421 446.258,518.754 475,483.5C 478.441,478.276 481.608,472.943 484.5,467.5C 494.197,453.903 497.363,438.903 494,422.5C 492.287,418.127 489.787,414.293 486.5,411C 499.948,417.073 512.448,424.907 524,434.5C 524.608,440.874 524.275,447.207 523,453.5C 516.477,477.547 505.477,499.213 490,518.5C 456.886,556.615 418.386,587.949 374.5,612.5C 330.461,587.373 291.628,555.707 258,517.5C 244.565,500.638 234.232,481.971 227,461.5C 224.252,453.019 223.252,444.353 224,435.5C 235.642,426.176 247.975,417.843 261,410.5C 257.874,415.419 255.207,420.752 253,426.5C 252.244,440.809 255.577,454.142 263,466.5C 270.786,480.782 280.619,493.449 292.5,504.5 Z"/></g>
<g><path style="opacity:1" fill="#e4e1df" d="M 488.5,450.5 C 478.845,470.943 465.845,489.11 449.5,505C 409.06,524.682 367.06,528.682 323.5,517C 317.013,515.06 310.679,512.727 304.5,510C 300.351,505.685 296.018,501.518 291.5,497.5C 277.127,482.102 266.293,464.436 259,444.5C 255.118,432.153 257.785,421.487 267,412.5C 267.483,413.448 267.649,414.448 267.5,415.5C 261.924,456.129 278.591,483.296 317.5,497C 362.141,510.124 405.141,506.124 446.5,485C 472.621,470.256 483.954,448.09 480.5,418.5C 480.756,416.208 480.423,414.041 479.5,412C 480.167,411.333 480.833,411.333 481.5,412C 489.086,419.666 492.253,428.833 491,439.5C 490.005,443.145 489.172,446.812 488.5,450.5 Z"/></g>
<g><path style="opacity:0.004" fill="#160100" d="M 227.5,424.5 C 226.833,424.5 226.5,424.833 226.5,425.5C 224.025,425.253 224.025,424.587 226.5,423.5C 227.107,423.624 227.44,423.957 227.5,424.5 Z"/></g>
<g><path style="opacity:0.004" fill="#0d0000" d="M 523.5,426.5 C 524.497,425.287 525.497,425.454 526.5,427C 525.906,427.464 525.239,427.631 524.5,427.5C 523.833,427.5 523.5,427.167 523.5,426.5 Z"/></g>
<g><path style="opacity:0.016" fill="#1e0200" d="M 210.5,435.5 C 210.897,434.475 211.563,434.308 212.5,435C 211.906,435.464 211.239,435.631 210.5,435.5 Z"/></g>
<g><path style="opacity:0.016" fill="#260300" d="M 538.5,436.5 C 538.897,435.475 539.563,435.308 540.5,436C 539.906,436.464 539.239,436.631 538.5,436.5 Z"/></g>
<g><path style="opacity:0.004" fill="#130100" d="M 541.5,437.5 C 541.897,436.475 542.563,436.308 543.5,437C 542.906,437.464 542.239,437.631 541.5,437.5 Z"/></g>
<g><path style="opacity:1" fill="#006678" d="M 743.5,627.5 C 497.833,627.5 252.167,627.5 6.5,627.5C 12.1929,604.773 20.6929,583.107 32,562.5C 48.0612,531.105 71.5612,506.939 102.5,490C 140.388,471.553 179.055,455.053 218.5,440.5C 218.91,447.291 220.076,453.958 222,460.5C 230.867,487.577 244.867,511.577 264,532.5C 296.426,566.626 333.093,594.959 374,617.5C 423.145,591.707 465.145,557.04 500,513.5C 516.187,491.781 526.02,467.448 529.5,440.5C 560.059,451.967 590.393,464.134 620.5,477C 651.18,489.698 677.347,508.531 699,533.5C 718.925,562.354 733.759,593.687 743.5,627.5 Z"/></g>
<g><path style="opacity:0.016" fill="#1e0200" d="M 183.5,446.5 C 183.897,445.475 184.563,445.308 185.5,446C 184.906,446.464 184.239,446.631 183.5,446.5 Z"/></g>
<g><path style="opacity:0.016" fill="#260300" d="M 604.5,463.5 C 604.897,462.475 605.563,462.308 606.5,463C 605.906,463.464 605.239,463.631 604.5,463.5 Z"/></g>
<g><path style="opacity:0.016" fill="#1e0200" d="M 139.5,464.5 C 139.897,463.475 140.563,463.308 141.5,464C 140.906,464.464 140.239,464.631 139.5,464.5 Z"/></g>
<g><path style="opacity:0.016" fill="#1e0200" d="M 132.5,467.5 C 132.897,466.475 133.563,466.308 134.5,467C 133.906,467.464 133.239,467.631 132.5,467.5 Z"/></g>
<g><path style="opacity:1" fill="#1d130b" d="M 480.5,418.5 C 483.954,448.09 472.621,470.256 446.5,485C 405.141,506.124 362.141,510.124 317.5,497C 278.591,483.296 261.924,456.129 267.5,415.5C 267.298,417.989 267.798,420.323 269,422.5C 269.198,420.618 269.698,418.952 270.5,417.5C 267.907,457.466 285.907,482.966 324.5,494C 369.535,506.185 411.868,500.185 451.5,476C 470.275,462.278 478.608,443.778 476.5,420.5C 477.469,418.337 478.302,416.004 479,413.5C 479.198,415.382 479.698,417.048 480.5,418.5 Z"/></g>
<g><path style="opacity:0.004" fill="#160100" d="M 673.5,500.5 C 674.497,499.287 675.497,499.454 676.5,501C 675.906,501.464 675.239,501.631 674.5,501.5C 673.833,501.5 673.5,501.167 673.5,500.5 Z"/></g>
<g><path style="opacity:0.004" fill="#0d0000" d="M 70.5,504.5 C 69.8333,504.5 69.5,504.833 69.5,505.5C 67.0248,505.253 67.0248,504.587 69.5,503.5C 70.1067,503.624 70.44,503.957 70.5,504.5 Z"/></g>
<g><path style="opacity:1" fill="#1d130d" d="M 488.5,450.5 C 487.975,455.555 486.308,460.221 483.5,464.5C 484.127,465.417 484.461,466.417 484.5,467.5C 481.608,472.943 478.441,478.276 475,483.5C 446.258,518.754 412.758,548.421 374.5,572.5C 349.593,556.434 326.259,538.268 304.5,518C 299.898,513.906 295.898,509.406 292.5,504.5C 292.414,503.504 292.748,502.671 293.5,502C 292.418,500.67 291.751,499.17 291.5,497.5C 296.018,501.518 300.351,505.685 304.5,510C 310.679,512.727 317.013,515.06 323.5,517C 367.06,528.682 409.06,524.682 449.5,505C 465.845,489.11 478.845,470.943 488.5,450.5 Z"/></g>
<g><path style="opacity:0.004" fill="#0d0000" d="M 685.5,510.5 C 686.497,509.287 687.497,509.454 688.5,511C 687.906,511.464 687.239,511.631 686.5,511.5C 685.833,511.5 685.5,511.167 685.5,510.5 Z"/></g>
<g><path style="opacity:0.004" fill="#0d0000" d="M 63.5,510.5 C 62.8333,510.5 62.5,510.833 62.5,511.5C 61.8333,511.5 61.5,511.833 61.5,512.5C 60.8333,512.5 60.5,512.833 60.5,513.5C 59.7611,513.631 59.0944,513.464 58.5,513C 59.5,512 60.5,511 61.5,510C 62.4368,509.308 63.1034,509.475 63.5,510.5 Z"/></g>
<g><path style="opacity:0.004" fill="#0d0000" d="M 696.5,521.5 C 695.833,521.5 695.5,521.167 695.5,520.5C 695.747,518.025 696.413,518.025 697.5,520.5C 697.376,521.107 697.043,521.44 696.5,521.5 Z"/></g>
<g><path style="opacity:0.016" fill="#190100" d="M 54.5,519.5 C 53.8333,519.5 53.5,519.833 53.5,520.5C 52.8333,520.5 52.5,520.833 52.5,521.5C 51.4407,519.93 51.9407,518.597 54,517.5C 54.4643,518.094 54.631,518.761 54.5,519.5 Z"/></g>
<g><path style="opacity:1" fill="#e7e4e2" d="M 435.5,516.5 C 436.239,516.369 436.906,516.536 437.5,517C 417.589,534.947 396.589,551.447 374.5,566.5C 353.5,552.338 333.5,536.838 314.5,520C 325.302,522.828 336.302,525.161 347.5,527C 366.93,529.316 386.263,528.65 405.5,525C 415.924,523.242 425.924,520.409 435.5,516.5 Z"/></g>
<g><path style="opacity:0.004" fill="#0d0000" d="M 702.5,528.5 C 701.833,528.5 701.5,528.167 701.5,527.5C 701.747,525.025 702.413,525.025 703.5,527.5C 703.376,528.107 703.043,528.44 702.5,528.5 Z"/></g>
<g><path style="opacity:0.004" fill="#160100" d="M 36.5,543.5 C 35.8333,543.5 35.5,543.833 35.5,544.5C 34.2875,543.503 34.4542,542.503 36,541.5C 36.4643,542.094 36.631,542.761 36.5,543.5 Z"/></g>
<g><path style="opacity:0.016" fill="#1e0200" d="M 31.5,551.5 C 31.1667,551.5 30.8333,551.5 30.5,551.5C 30.8333,548.833 31.1667,548.833 31.5,551.5 Z"/></g>
<g><path style="opacity:0.016" fill="#260300" d="M 30.5,551.5 C 29.8333,552.167 29.8333,552.167 30.5,551.5 Z"/></g>
<g><path style="opacity:0.016" fill="#1e0200" d="M 731.5,575.5 C 731.167,575.5 730.833,575.5 730.5,575.5C 730.833,572.833 731.167,572.833 731.5,575.5 Z"/></g>
<g><path style="opacity:0.016" fill="#1e0200" d="M 731.5,575.5 C 732.525,575.897 732.692,576.563 732,577.5C 731.536,576.906 731.369,576.239 731.5,575.5 Z"/></g>
<g><path style="opacity:0.016" fill="#1e0200" d="M 10.5,589.5 C 11.525,589.897 11.6917,590.563 11,591.5C 10.5357,590.906 10.369,590.239 10.5,589.5 Z"/></g>
<g><path style="opacity:0.016" fill="#210200" d="M 741.5,599.5 C 741.167,599.5 740.833,599.5 740.5,599.5C 740.833,595.5 741.167,595.5 741.5,599.5 Z"/></g>
<g><path style="opacity:0.016" fill="#1e0200" d="M 741.5,599.5 C 742.525,599.897 742.692,600.563 742,601.5C 741.536,600.906 741.369,600.239 741.5,599.5 Z"/></g>
<g><path style="opacity:0.016" fill="#1c0100" d="M 749.5,619.5 C 749.5,620.833 749.5,622.167 749.5,623.5C 749.167,623.5 748.833,623.5 748.5,623.5C 748.232,621.901 748.566,620.568 749.5,619.5 Z"/></g>
<g><path style="opacity:0.016" fill="#210200" d="M -0.5,620.5 C 0.403972,621.209 0.737305,622.209 0.5,623.5C 0.166667,623.5 -0.166667,623.5 -0.5,623.5C -0.5,622.5 -0.5,621.5 -0.5,620.5 Z"/></g>
</svg>
