<?xml version="1.0" encoding="UTF-8"?>
<!DOCTYPE svg PUBLIC "-//W3C//DTD SVG 1.1//EN" "http://www.w3.org/Graphics/SVG/1.1/DTD/svg11.dtd">
<svg xmlns="http://www.w3.org/2000/svg" version="1.1" width="750px" height="525px" style="shape-rendering:geometricPrecision; text-rendering:geometricPrecision; image-rendering:optimizeQuality; fill-rule:evenodd; clip-rule:evenodd" xmlns:xlink="http://www.w3.org/1999/xlink">
<g><path style="opacity:0.968" fill="#1c0c02" d="M 347.5,-0.5 C 358.5,-0.5 369.5,-0.5 380.5,-0.5C 387.723,1.14762 395.057,2.81428 402.5,4.5C 403.209,5.40397 404.209,5.73731 405.5,5.5C 406.78,6.93127 408.447,7.59794 410.5,7.5C 413.515,9.6744 416.849,11.3411 420.5,12.5C 420.842,13.3382 421.508,13.6716 422.5,13.5C 425.894,16.2205 429.561,18.5538 433.5,20.5C 433.5,21.1667 433.833,21.5 434.5,21.5C 435.262,23.2624 436.596,24.2624 438.5,24.5C 438.5,25.1667 438.833,25.5 439.5,25.5C 439.5,26.1667 439.833,26.5 440.5,26.5C 440.5,27.1667 440.833,27.5 441.5,27.5C 443.833,30.5 446.5,33.1667 449.5,35.5C 449.5,36.1667 449.833,36.5 450.5,36.5C 450.5,37.1667 450.833,37.5 451.5,37.5C 452.811,40.1354 454.478,42.4687 456.5,44.5C 456.427,46.0269 457.094,47.0269 458.5,47.5C 459.263,51.1368 460.597,54.4701 462.5,57.5C 462.263,58.791 462.596,59.791 463.5,60.5C 464.39,66.3859 465.723,72.0526 467.5,77.5C 467.205,79.7354 467.539,81.7354 468.5,83.5C 470.115,100.79 470.782,118.123 470.5,135.5C 474.234,135.323 477.901,135.656 481.5,136.5C 481.5,137.167 481.833,137.5 482.5,137.5C 483.263,139.368 484.263,141.035 485.5,142.5C 485.232,144.099 485.566,145.432 486.5,146.5C 486.5,149.167 486.5,151.833 486.5,154.5C 485.539,156.265 485.205,158.265 485.5,160.5C 484.566,161.568 484.232,162.901 484.5,164.5C 483.532,166.607 483.198,168.941 483.5,171.5C 482.523,174.287 482.19,177.287 482.5,180.5C 481.539,182.265 481.205,184.265 481.5,186.5C 480.596,187.209 480.263,188.209 480.5,189.5C 479.596,190.209 479.263,191.209 479.5,192.5C 478.662,192.842 478.328,193.508 478.5,194.5C 477.566,195.568 477.232,196.901 477.5,198.5C 476.566,199.568 476.232,200.901 476.5,202.5C 475.662,202.842 475.328,203.508 475.5,204.5C 474.833,204.5 474.5,204.833 474.5,205.5C 473.662,205.842 473.328,206.508 473.5,207.5C 472.833,207.5 472.5,207.833 472.5,208.5C 470.695,209.237 469.029,210.237 467.5,211.5C 468.609,213.214 467.942,213.881 465.5,213.5C 465.179,211.952 464.179,211.285 462.5,211.5C 462.369,218.051 461.702,224.551 460.5,231C 462.48,244.779 463.98,258.612 465,272.5C 475.165,276.163 484.999,280.496 494.5,285.5C 494.973,286.906 495.973,287.573 497.5,287.5C 500.32,289.745 503.32,291.745 506.5,293.5C 507.436,294.974 508.77,295.974 510.5,296.5C 510.5,297.167 510.833,297.5 511.5,297.5C 513.833,300.5 516.5,303.167 519.5,305.5C 519.5,306.167 519.833,306.5 520.5,306.5C 521.293,310.959 523.96,313.292 528.5,313.5C 528.842,314.338 529.508,314.672 530.5,314.5C 530.842,315.338 531.508,315.672 532.5,315.5C 534.426,317.293 536.759,318.293 539.5,318.5C 539.842,319.338 540.508,319.672 541.5,319.5C 541.842,320.338 542.508,320.672 543.5,320.5C 545.426,322.293 547.759,323.293 550.5,323.5C 550.842,324.338 551.508,324.672 552.5,324.5C 552.842,325.338 553.508,325.672 554.5,325.5C 557.088,327.592 560.088,328.925 563.5,329.5C 563.842,330.338 564.508,330.672 565.5,330.5C 568.088,332.592 571.088,333.925 574.5,334.5C 574.842,335.338 575.508,335.672 576.5,335.5C 579.088,337.592 582.088,338.925 585.5,339.5C 585.842,340.338 586.508,340.672 587.5,340.5C 587.842,341.338 588.508,341.672 589.5,341.5C 591.509,343.065 593.843,344.065 596.5,344.5C 596.842,345.338 597.508,345.672 598.5,345.5C 598.842,346.338 599.508,346.672 600.5,346.5C 605.311,349.07 610.311,351.403 615.5,353.5C 615.842,354.338 616.508,354.672 617.5,354.5C 617.842,355.338 618.508,355.672 619.5,355.5C 619.842,356.338 620.508,356.672 621.5,356.5C 621.842,357.338 622.508,357.672 623.5,357.5C 623.842,358.338 624.508,358.672 625.5,358.5C 625.842,359.338 626.508,359.672 627.5,359.5C 627.842,360.338 628.508,360.672 629.5,360.5C 629.842,361.338 630.508,361.672 631.5,361.5C 631.842,362.338 632.508,362.672 633.5,362.5C 633.842,363.338 634.508,363.672 635.5,363.5C 638.515,365.674 641.849,367.341 645.5,368.5C 645.5,369.167 645.833,369.5 646.5,369.5C 649.477,371.467 652.477,373.467 655.5,375.5C 655.5,376.167 655.833,376.5 656.5,376.5C 658.46,378.156 660.46,379.823 662.5,381.5C 662.5,382.167 662.833,382.5 663.5,382.5C 663.5,383.167 663.833,383.5 664.5,383.5C 668.474,387.138 672.474,390.805 676.5,394.5C 676.5,395.167 676.833,395.5 677.5,395.5C 677.5,396.167 677.833,396.5 678.5,396.5C 678.5,397.167 678.833,397.5 679.5,397.5C 679.5,398.167 679.833,398.5 680.5,398.5C 680.5,399.167 680.833,399.5 681.5,399.5C 681.5,400.167 681.833,400.5 682.5,400.5C 682.5,401.167 682.833,401.5 683.5,401.5C 683.5,402.167 683.833,402.5 684.5,402.5C 684.5,403.167 684.833,403.5 685.5,403.5C 685.5,404.167 685.833,404.5 686.5,404.5C 686.5,405.167 686.833,405.5 687.5,405.5C 687.5,406.167 687.833,406.5 688.5,406.5C 688.5,407.167 688.833,407.5 689.5,407.5C 689.5,408.167 689.833,408.5 690.5,408.5C 690.5,409.167 690.833,409.5 691.5,409.5C 691.5,410.167 691.833,410.5 692.5,410.5C 692.5,411.167 692.833,411.5 693.5,411.5C 695.273,414.06 697.273,416.393 699.5,418.5C 699.5,419.167 699.833,419.5 700.5,419.5C 700.5,420.167 700.833,420.5 701.5,420.5C 701.427,422.027 702.094,423.027 703.5,423.5C 703.5,424.167 703.833,424.5 704.5,424.5C 705.11,426.434 706.11,428.101 707.5,429.5C 709,433.173 711,436.506 713.5,439.5C 714.079,442.331 715.412,444.664 717.5,446.5C 718.774,449.76 720.44,452.76 722.5,455.5C 724.74,461.65 727.74,467.316 731.5,472.5C 737.828,489.487 743.161,506.821 747.5,524.5C 745.5,524.5 743.5,524.5 741.5,524.5C 738.034,512.932 734.867,501.265 732,489.5C 721.859,466.341 709.859,444.341 696,423.5C 680.022,404.85 662.189,388.35 642.5,374C 604.042,354.852 565.209,336.686 526,319.5C 524.107,341.179 517.44,361.179 506,379.5C 487.082,408.424 463.916,433.591 436.5,455C 416.505,470.994 395.505,485.494 373.5,498.5C 332.773,474.297 296.273,444.63 264,409.5C 245.801,389.107 232.801,365.773 225,339.5C 223.837,332.86 222.837,326.193 222,319.5C 184.596,336.082 147.43,353.249 110.5,371C 99.9817,377.182 90.315,384.515 81.5,393C 71.3031,402.863 61.4698,413.029 52,423.5C 38.4467,444.603 26.4467,466.603 16,489.5C 12.825,501.178 9.65834,512.844 6.5,524.5C 4.5,524.5 2.5,524.5 0.5,524.5C 0.5,523.5 0.5,522.5 0.5,521.5C 1.92381,519.485 2.59047,517.152 2.5,514.5C 4.2766,511.495 5.2766,508.162 5.5,504.5C 7.07431,501.093 8.07431,497.427 8.5,493.5C 9.92381,491.485 10.5905,489.152 10.5,486.5C 11.9313,485.22 12.5979,483.553 12.5,481.5C 13.3382,481.158 13.6716,480.492 13.5,479.5C 21.9232,462.984 30.5898,446.651 39.5,430.5C 41.3264,428.853 42.6597,426.853 43.5,424.5C 45.2624,423.738 46.2624,422.404 46.5,420.5C 47.1667,420.5 47.5,420.167 47.5,419.5C 49.8903,418.109 51.5569,416.109 52.5,413.5C 53.1667,413.5 53.5,413.167 53.5,412.5C 54.1667,412.5 54.5,412.167 54.5,411.5C 55.1667,411.5 55.5,411.167 55.5,410.5C 56.1667,410.5 56.5,410.167 56.5,409.5C 61.7194,404.736 66.7194,399.736 71.5,394.5C 72.1667,394.5 72.5,394.167 72.5,393.5C 73.1667,393.5 73.5,393.167 73.5,392.5C 74.1667,392.5 74.5,392.167 74.5,391.5C 75.1667,391.5 75.5,391.167 75.5,390.5C 78.5256,387.805 81.5256,385.138 84.5,382.5C 85.1667,382.5 85.5,382.167 85.5,381.5C 86.1667,381.5 86.5,381.167 86.5,380.5C 88.1911,379.136 89.8577,377.803 91.5,376.5C 92.1667,376.5 92.5,376.167 92.5,375.5C 95.5229,373.467 98.5229,371.467 101.5,369.5C 102.167,369.5 102.5,369.167 102.5,368.5C 106.818,367.008 110.818,365.008 114.5,362.5C 115.492,362.672 116.158,362.338 116.5,361.5C 117.492,361.672 118.158,361.338 118.5,360.5C 119.492,360.672 120.158,360.338 120.5,359.5C 121.492,359.672 122.158,359.338 122.5,358.5C 123.492,358.672 124.158,358.338 124.5,357.5C 125.492,357.672 126.158,357.338 126.5,356.5C 127.492,356.672 128.158,356.338 128.5,355.5C 129.492,355.672 130.158,355.338 130.5,354.5C 131.492,354.672 132.158,354.338 132.5,353.5C 137.689,351.403 142.689,349.07 147.5,346.5C 148.492,346.672 149.158,346.338 149.5,345.5C 150.492,345.672 151.158,345.338 151.5,344.5C 154.744,343.537 157.744,342.204 160.5,340.5C 161.492,340.672 162.158,340.338 162.5,339.5C 165.744,338.537 168.744,337.204 171.5,335.5C 172.492,335.672 173.158,335.338 173.5,334.5C 176.912,333.925 179.912,332.592 182.5,330.5C 183.492,330.672 184.158,330.338 184.5,329.5C 185.492,329.672 186.158,329.338 186.5,328.5C 189.241,328.293 191.574,327.293 193.5,325.5C 194.492,325.672 195.158,325.338 195.5,324.5C 196.492,324.672 197.158,324.338 197.5,323.5C 200.241,323.293 202.574,322.293 204.5,320.5C 205.492,320.672 206.158,320.338 206.5,319.5C 207.492,319.672 208.158,319.338 208.5,318.5C 211.241,318.293 213.574,317.293 215.5,315.5C 216.492,315.672 217.158,315.338 217.5,314.5C 218.492,314.672 219.158,314.338 219.5,313.5C 223.665,313.59 225.998,311.59 226.5,307.5C 227.167,307.5 227.5,307.167 227.5,306.5C 230.833,303.833 233.833,300.833 236.5,297.5C 237.167,297.5 237.5,297.167 237.5,296.5C 238.167,296.5 238.5,296.167 238.5,295.5C 240.027,295.573 241.027,294.906 241.5,293.5C 245.852,291.327 249.852,288.66 253.5,285.5C 255.674,285.25 257.341,284.25 258.5,282.5C 265.495,279.286 272.495,276.286 279.5,273.5C 280.833,266.167 280.833,258.833 279.5,251.5C 279.59,248.848 278.924,246.515 277.5,244.5C 277.768,242.901 277.434,241.568 276.5,240.5C 276.784,238.585 276.451,236.919 275.5,235.5C 275.5,237.167 275.5,238.833 275.5,240.5C 273.372,233.767 271.872,226.767 271,219.5C 269.312,218.675 269.145,217.675 270.5,216.5C 267.33,214.606 264.663,212.273 262.5,209.5C 262.34,207.847 261.674,206.514 260.5,205.5C 260.324,202.273 259.657,199.273 258.5,196.5C 258.672,195.508 258.338,194.842 257.5,194.5C 257.737,193.209 257.404,192.209 256.5,191.5C 256.435,188.572 255.768,185.905 254.5,183.5C 254.21,176.042 252.544,169.042 249.5,162.5C 249.405,160.214 248.738,158.214 247.5,156.5C 246.222,149.517 247.888,143.517 252.5,138.5C 255.01,138.073 257.343,137.407 259.5,136.5C 259.589,121.678 259.755,106.678 260,91.5C 260.6,83.1349 261.433,74.8016 262.5,66.5C 263.434,65.4324 263.768,64.099 263.5,62.5C 264.738,60.7857 265.405,58.7857 265.5,56.5C 267.008,54.8185 268.008,52.8185 268.5,50.5C 269.338,50.1583 269.672,49.4916 269.5,48.5C 272.154,44.5368 274.82,40.5368 277.5,36.5C 278.167,36.5 278.5,36.1667 278.5,35.5C 282.5,30.8333 286.833,26.5 291.5,22.5C 292.167,22.5 292.5,22.1667 292.5,21.5C 294.027,21.573 295.027,20.9063 295.5,19.5C 296.167,19.5 296.5,19.1667 296.5,18.5C 300.1,16.8899 303.434,14.8899 306.5,12.5C 309.485,11.6743 312.151,10.341 314.5,8.5C 325.385,4.69768 336.385,1.69768 347.5,-0.5 Z M 273.5,224.5 C 274.903,227.909 275.57,231.575 275.5,235.5C 274.097,232.091 273.43,228.425 273.5,224.5 Z"/></g>
<g><path style="opacity:0.016" fill="#180000" d="M 334.5,-0.5 C 336.167,-0.5 337.833,-0.5 339.5,-0.5C 335.761,1.10161 331.761,2.10161 327.5,2.5C 329.779,1.3485 332.112,0.348502 334.5,-0.5 Z"/></g>
<g><path style="opacity:0.016" fill="#190000" d="M 388.5,-0.5 C 390.167,-0.5 391.833,-0.5 393.5,-0.5C 394.5,0.166667 395.5,0.833333 396.5,1.5C 393.572,1.43487 390.905,0.768202 388.5,-0.5 Z"/></g>
<g><path style="opacity:0.035" fill="#1a0900" d="M 324.5,3.5 C 325.209,2.59603 326.209,2.26269 327.5,2.5C 326.791,3.40397 325.791,3.73731 324.5,3.5 Z"/></g>
<g><path style="opacity:0.004" fill="#120400" d="M 396.5,1.5 C 400.915,1.8606 404.915,3.19393 408.5,5.5C 407.5,5.5 406.5,5.5 405.5,5.5C 404.791,4.59603 403.791,4.26269 402.5,4.5C 400.5,3.5 398.5,2.5 396.5,1.5 Z"/></g>
<g><path style="opacity:0.035" fill="#1a0900" d="M 321.5,4.5 C 322.209,3.59603 323.209,3.26269 324.5,3.5C 323.791,4.40397 322.791,4.73731 321.5,4.5 Z"/></g>
<g><path style="opacity:0.016" fill="#180000" d="M 318.5,5.5 C 319.209,4.59603 320.209,4.26269 321.5,4.5C 320.791,5.40397 319.791,5.73731 318.5,5.5 Z"/></g>
<g><path style="opacity:0.035" fill="#190d00" d="M 316.5,6.5 C 316.842,5.66175 317.508,5.32842 318.5,5.5C 318.158,6.33825 317.492,6.67158 316.5,6.5 Z"/></g>
<g><path style="opacity:0.016" fill="#160100" d="M 408.5,5.5 C 410.308,5.49136 411.975,5.99136 413.5,7C 412.552,7.48278 411.552,7.64945 410.5,7.5C 409.833,6.83333 409.167,6.16667 408.5,5.5 Z"/></g>
<g><path style="opacity:0.035" fill="#120600" d="M 316.5,6.5 C 315.833,7.16667 315.167,7.83333 314.5,8.5C 313.448,8.64945 312.448,8.48278 311.5,8C 313.025,6.99136 314.692,6.49136 316.5,6.5 Z"/></g>
<g><path style="opacity:0.004" fill="#0b0700" d="M 306.5,12.5 C 304.025,12.2533 304.025,11.5866 306.5,10.5C 307.463,10.9698 307.463,11.6365 306.5,12.5 Z"/></g>
<g><path style="opacity:0.004" fill="#0f0500" d="M 422.5,13.5 C 422.158,12.6618 421.492,12.3284 420.5,12.5C 419.031,10.8947 419.365,10.3947 421.5,11C 424.402,11.9186 424.735,12.7519 422.5,13.5 Z"/></g>
<g><path style="opacity:0.004" fill="#0d0300" d="M 296.5,18.5 C 295.833,18.5 295.5,18.8333 295.5,19.5C 293.025,19.2533 293.025,18.5866 295.5,17.5C 296.107,17.6236 296.44,17.9569 296.5,18.5 Z"/></g>
<g><path style="opacity:0.016" fill="#180200" d="M 433.5,20.5 C 434.497,19.2875 435.497,19.4542 436.5,21C 435.906,21.4643 435.239,21.631 434.5,21.5C 433.833,21.5 433.5,21.1667 433.5,20.5 Z"/></g>
<g><path style="opacity:0.016" fill="#190400" d="M 292.5,21.5 C 291.833,21.5 291.5,21.8333 291.5,22.5C 289.025,22.2533 289.025,21.5866 291.5,20.5C 292.107,20.6236 292.44,20.9569 292.5,21.5 Z"/></g>
<g><path style="opacity:0.016" fill="#150100" d="M 438.5,24.5 C 438.897,23.475 439.563,23.3083 440.5,24C 441.5,25 442.5,26 443.5,27C 442.906,27.4643 442.239,27.631 441.5,27.5C 440.833,27.5 440.5,27.1667 440.5,26.5C 439.833,26.5 439.5,26.1667 439.5,25.5C 438.833,25.5 438.5,25.1667 438.5,24.5 Z"/></g>
<g><path style="opacity:0.016" fill="#1c0300" d="M 278.5,35.5 C 277.833,35.5 277.5,35.8333 277.5,36.5C 276.287,35.5029 276.454,34.5029 278,33.5C 278.464,34.0944 278.631,34.7611 278.5,35.5 Z"/></g>
<g><path style="opacity:0.004" fill="#0b0000" d="M 451.5,37.5 C 450.833,37.5 450.5,37.1667 450.5,36.5C 449.833,36.5 449.5,36.1667 449.5,35.5C 450.286,33.4076 451.286,33.7409 452.5,36.5C 452.376,37.1067 452.043,37.44 451.5,37.5 Z"/></g>
<g><path style="opacity:0.004" fill="#000000" d="M 458.5,45.5 C 457.833,45.1667 457.167,44.8333 456.5,44.5C 457.301,42.2071 457.968,42.5404 458.5,45.5 Z"/></g>
<g><path style="opacity:0.004" fill="#000000" d="M 458.5,45.5 C 460.539,46.911 461.539,48.911 461.5,51.5C 460.5,50.1667 459.5,48.8333 458.5,47.5C 458.5,46.8333 458.5,46.1667 458.5,45.5 Z"/></g>
<g><path style="opacity:0.016" fill="#150700" d="M 269.5,48.5 C 268.662,48.8417 268.328,49.5084 268.5,50.5C 266.895,51.9687 266.395,51.6354 267,49.5C 267.919,46.5984 268.752,46.2651 269.5,48.5 Z"/></g>
<g><path style="opacity:0.004" fill="#000000" d="M 461.5,51.5 C 462.267,52.172 462.934,53.0053 463.5,54C 461.939,54.1881 461.272,53.3547 461.5,51.5 Z"/></g>
<g><path style="opacity:0.004" fill="#000000" d="M 462.5,57.5 C 462.511,54.9991 463.178,54.8324 464.5,57C 463.906,57.4643 463.239,57.631 462.5,57.5 Z"/></g>
<g><path style="opacity:0.035" fill="#160d00" d="M 265.5,56.5 C 264.833,57.1667 264.167,57.8333 263.5,58.5C 263.491,56.6916 263.991,55.0249 265,53.5C 265.483,54.448 265.649,55.448 265.5,56.5 Z"/></g>
<g><path style="opacity:0.004" fill="#000000" d="M 463.5,60.5 C 463.369,59.7611 463.536,59.0944 464,58.5C 464.692,59.4368 464.525,60.1034 463.5,60.5 Z"/></g>
<g><path style="opacity:1" fill="#bc785c" d="M 400.5,59.5 C 405.076,70.7971 408.576,82.4638 411,94.5C 411.667,101.833 411.667,109.167 411,116.5C 410.217,121.331 408.383,125.665 405.5,129.5C 398.951,130.576 392.617,132.243 386.5,134.5C 385.078,133.223 384.078,133.557 383.5,135.5C 379.564,139.775 375.564,144.108 371.5,148.5C 369.81,151.64 369.31,154.974 370,158.5C 373.757,164.74 377.257,171.074 380.5,177.5C 380.783,178.289 381.283,178.956 382,179.5C 382.093,173.961 384.26,173.461 388.5,178C 402.555,181.368 416.555,181.035 430.5,177C 435.489,175.755 439.989,173.588 444,170.5C 444.772,170.645 445.439,170.978 446,171.5C 451.351,182.296 450.518,192.463 443.5,202C 435.705,204.797 430.205,209.964 427,217.5C 427.788,229.338 428.621,241.171 429.5,253C 428.906,253.464 428.239,253.631 427.5,253.5C 426.21,252.942 425.377,251.942 425,250.5C 424.725,244.68 423.725,239.013 422,233.5C 420.954,231.91 419.787,230.41 418.5,229C 404.102,223.045 389.102,220.545 373.5,221.5C 371.905,224.285 370.905,227.285 370.5,230.5C 380.87,230.274 391.203,230.774 401.5,232C 406.594,233.026 411.094,235.193 415,238.5C 417.043,245.006 417.876,251.673 417.5,258.5C 417.833,264.5 418.167,270.5 418.5,276.5C 410.752,289.391 399.418,297.391 384.5,300.5C 374.494,300.666 364.494,300.5 354.5,300C 348.879,298.534 343.213,297.368 337.5,296.5C 329.746,293.909 324.913,288.575 323,280.5C 321.424,269.225 321.091,257.892 322,246.5C 333.765,233.855 348.265,228.855 365.5,231.5C 365.663,229.143 365.497,226.81 365,224.5C 363.527,222.993 361.693,222.326 359.5,222.5C 347.754,223.103 336.421,225.603 325.5,230C 321.396,232.106 317.896,234.939 315,238.5C 314.937,246.603 314.27,254.603 313,262.5C 312.586,262.957 312.086,263.291 311.5,263.5C 304.152,258.648 298.319,252.315 294,244.5C 289.096,232.452 283.43,220.786 277,209.5C 275.171,196.22 274.004,182.887 273.5,169.5C 273.329,155.816 273.662,142.149 274.5,128.5C 274.523,126.073 275.023,123.74 276,121.5C 278.034,117.48 280.034,113.48 282,109.5C 282.176,99.7907 282.842,90.124 284,80.5C 284.866,75.5584 286.7,71.0584 289.5,67C 293.622,65.0404 297.955,63.7071 302.5,63C 335.029,57.2307 367.696,56.0641 400.5,59.5 Z"/></g>
<g><path style="opacity:1" fill="#a9654d" d="M 400.5,59.5 C 412.705,60.1685 424.538,62.5018 436,66.5C 442.318,80.1418 445.985,94.4751 447,109.5C 451.438,115.375 455.105,121.708 458,128.5C 458.949,156.868 458.616,185.202 457,213.5C 451.668,228.998 443.168,242.498 431.5,254C 429.934,254.765 428.601,254.598 427.5,253.5C 428.239,253.631 428.906,253.464 429.5,253C 428.621,241.171 427.788,229.338 427,217.5C 430.205,209.964 435.705,204.797 443.5,202C 450.518,192.463 451.351,182.296 446,171.5C 445.439,170.978 444.772,170.645 444,170.5C 439.989,173.588 435.489,175.755 430.5,177C 416.555,181.035 402.555,181.368 388.5,178C 384.26,173.461 382.093,173.961 382,179.5C 381.283,178.956 380.783,178.289 380.5,177.5C 381.518,174.623 381.351,171.623 380,168.5C 377.667,164.833 375.333,161.167 373,157.5C 372.819,154.305 372.319,151.305 371.5,148.5C 375.564,144.108 379.564,139.775 383.5,135.5C 383.959,141.399 387.292,143.732 393.5,142.5C 403.117,140.959 412.784,140.459 422.5,141C 428.385,142.282 434.051,144.115 439.5,146.5C 437.273,137.78 431.606,132.614 422.5,131C 416.851,130.243 411.184,129.743 405.5,129.5C 408.383,125.665 410.217,121.331 411,116.5C 411.667,109.167 411.667,101.833 411,94.5C 408.576,82.4638 405.076,70.7971 400.5,59.5 Z"/></g>
<g><path style="opacity:0.004" fill="#000000" d="M 464.5,61.5 C 465.525,61.8966 465.692,62.5632 465,63.5C 464.536,62.9056 464.369,62.2389 464.5,61.5 Z"/></g>
<g><path style="opacity:0.004" fill="#000000" d="M 465.5,64.5 C 466.573,65.2506 466.74,66.2506 466,67.5C 465.517,66.552 465.351,65.552 465.5,64.5 Z"/></g>
<g><path style="opacity:0.004" fill="#000000" d="M 467.5,77.5 C 467.34,75.8008 467.506,74.1341 468,72.5C 468.78,74.3869 468.613,76.0536 467.5,77.5 Z"/></g>
<g><path style="opacity:0.004" fill="#030000" d="M 468.5,83.5 C 468.34,81.8008 468.506,80.1341 469,78.5C 469.78,80.3869 469.613,82.0536 468.5,83.5 Z"/></g>
<g><path style="opacity:0.016" fill="#140000" d="M 469.5,84.5 C 470.622,86.2884 470.789,88.2884 470,90.5C 469.505,88.5273 469.338,86.5273 469.5,84.5 Z"/></g>
<g><path style="opacity:0.035" fill="#170d00" d="M 263.5,58.5 C 263.5,59.8333 263.5,61.1667 263.5,62.5C 262.566,63.5676 262.232,64.901 262.5,66.5C 260.466,73.8958 259.299,81.5625 259,89.5C 258.325,105.179 258.492,120.846 259.5,136.5C 257.5,136.5 255.5,136.5 253.5,136.5C 254.919,135.549 256.585,135.216 258.5,135.5C 256.842,113.783 257.342,92.1163 260,70.5C 260.569,66.2054 261.736,62.2054 263.5,58.5 Z"/></g>
<g><path style="opacity:0.016" fill="#140000" d="M 470.5,91.5 C 471.641,94.6399 471.808,97.9733 471,101.5C 470.502,98.1832 470.335,94.8499 470.5,91.5 Z"/></g>
<g><path style="opacity:0.016" fill="#190000" d="M 480.5,134.5 C 477.607,133.477 474.774,133.477 472,134.5C 471.333,123.833 471.333,113.167 472,102.5C 472.5,112.494 472.666,122.494 472.5,132.5C 475.553,132.111 478.22,132.777 480.5,134.5 Z"/></g>
<g><path style="opacity:1" fill="#1c0d02" d="M 405.5,129.5 C 411.184,129.743 416.851,130.243 422.5,131C 431.606,132.614 437.273,137.78 439.5,146.5C 434.051,144.115 428.385,142.282 422.5,141C 412.784,140.459 403.117,140.959 393.5,142.5C 387.292,143.732 383.959,141.399 383.5,135.5C 384.078,133.557 385.078,133.223 386.5,134.5C 392.617,132.243 398.951,130.576 405.5,129.5 Z"/></g>
<g><path style="opacity:1" fill="#1b0b01" d="M 342.5,134.5 C 342.886,139.558 340.552,142.391 335.5,143C 327.157,143.221 318.824,143.221 310.5,143C 304.235,145.099 298.568,148.266 293.5,152.5C 292.481,150.54 292.481,148.54 293.5,146.5C 297.017,138.887 303.017,134.387 311.5,133C 319.833,132.333 328.167,132.333 336.5,133C 338.708,133.191 340.708,133.691 342.5,134.5 Z"/></g>
<g><path style="opacity:0.016" fill="#1c0000" d="M 480.5,134.5 C 481.167,134.5 481.5,134.833 481.5,135.5C 481.167,135.167 480.833,134.833 480.5,134.5 Z"/></g>
<g><path style="opacity:0.004" fill="#120000" d="M 481.5,136.5 C 481.5,136.167 481.5,135.833 481.5,135.5C 483.424,135.711 483.757,136.377 482.5,137.5C 481.833,137.5 481.5,137.167 481.5,136.5 Z"/></g>
<g><path style="opacity:0.004" fill="#0f0000" d="M 253.5,136.5 C 253.167,137.167 252.833,137.833 252.5,138.5C 250.207,137.699 250.54,137.032 253.5,136.5 Z"/></g>
<g><path style="opacity:1" fill="#a5634b" d="M 342.5,134.5 C 345.642,142.97 348.975,151.47 352.5,160C 351.814,166.108 349.481,171.442 345.5,176C 342.592,176.993 339.592,177.493 336.5,177.5C 329.003,176.8 321.503,176.134 314,175.5C 304.739,176.719 295.573,178.386 286.5,180.5C 286.863,177.437 287.53,174.437 288.5,171.5C 286.699,166.618 285.866,161.618 286,156.5C 287.791,152.561 290.291,149.228 293.5,146.5C 292.481,148.54 292.481,150.54 293.5,152.5C 298.568,148.266 304.235,145.099 310.5,143C 318.824,143.221 327.157,143.221 335.5,143C 340.552,142.391 342.886,139.558 342.5,134.5 Z"/></g>
<g><path style="opacity:0.004" fill="#120500" d="M 487.5,146.5 C 487.167,146.5 486.833,146.5 486.5,146.5C 486.768,144.901 486.434,143.568 485.5,142.5C 485.234,140.653 485.568,139.986 486.5,140.5C 487.348,142.409 487.682,144.409 487.5,146.5 Z"/></g>
<g><path style="opacity:1" fill="#b27055" d="M 471.5,140.5 C 473.527,140.338 475.527,140.505 477.5,141C 479.211,142.133 479.711,143.633 479,145.5C 471.629,148.704 466.462,154.038 463.5,161.5C 462.59,154.702 464.09,148.369 468,142.5C 469.302,141.915 470.469,141.249 471.5,140.5 Z"/></g>
<g><path style="opacity:1" fill="#ae6e53" d="M 254.5,147.5 C 252.94,145.871 253.273,144.704 255.5,144C 258.347,143.056 260.847,143.556 263,145.5C 264.115,149.729 265.781,153.729 268,157.5C 268.781,158.944 268.614,160.277 267.5,161.5C 264.515,155.517 260.182,150.851 254.5,147.5 Z"/></g>
<g><path style="opacity:1" fill="#8c543e" d="M 274.5,128.5 C 273.662,142.149 273.329,155.816 273.5,169.5C 272.834,164.01 272.501,158.343 272.5,152.5C 272.302,144.274 272.969,136.274 274.5,128.5 Z"/></g>
<g><path style="opacity:0.016" fill="#160600" d="M 247.5,156.5 C 247.5,157.833 247.5,159.167 247.5,160.5C 244.932,155.408 244.432,150.074 246,144.5C 246.176,148.688 246.676,152.688 247.5,156.5 Z"/></g>
<g><path style="opacity:1" fill="#110803" d="M 420.5,152.5 C 412.726,149.825 404.726,148.991 396.5,150C 394.68,150.2 393.347,151.034 392.5,152.5C 387.487,153.582 387.487,152.749 392.5,150C 402.367,146.185 411.701,147.018 420.5,152.5 Z"/></g>
<g><path style="opacity:1" fill="#a5634b" d="M 476.5,175.5 C 476.662,173.473 476.495,171.473 476,169.5C 471.97,175.02 467.803,180.353 463.5,185.5C 461.891,169.395 467.391,156.395 480,146.5C 480.167,148.5 480.333,150.5 480.5,152.5C 479.104,160.292 477.771,167.958 476.5,175.5 Z"/></g>
<g><path style="opacity:0.016" fill="#140000" d="M 487.5,146.5 C 488.833,149.167 488.833,151.833 487.5,154.5C 487.5,151.833 487.5,149.167 487.5,146.5 Z"/></g>
<g><path style="opacity:1" fill="#9d5e47" d="M 254.5,147.5 C 259.568,154.42 264.068,161.753 268,169.5C 269.237,173.06 269.737,176.727 269.5,180.5C 266.203,177.704 263.036,174.704 260,171.5C 259.506,173.134 259.34,174.801 259.5,176.5C 258.361,172.699 257.528,168.699 257,164.5C 254.699,160.263 253.199,155.763 252.5,151C 252.608,149.319 253.275,148.152 254.5,147.5 Z"/></g>
<g><path style="opacity:1" fill="#0a0300" d="M 331.5,152.5 C 326.738,151.109 322.072,151.442 317.5,153.5C 313.936,153.688 310.603,154.688 307.5,156.5C 306.304,156.154 306.304,155.654 307.5,155C 317.578,149.95 327.911,149.284 338.5,153C 339.696,153.654 339.696,154.154 338.5,154.5C 336.382,153.054 334.049,152.387 331.5,152.5 Z"/></g>
<g><path style="opacity:1" fill="#4e2c1b" d="M 331.5,152.5 C 330.127,152.343 328.793,152.51 327.5,153C 329.058,153.21 330.391,153.71 331.5,154.5C 328.5,154.5 325.5,154.5 322.5,154.5C 321.081,153.549 319.415,153.216 317.5,153.5C 322.072,151.442 326.738,151.109 331.5,152.5 Z"/></g>
<g><path style="opacity:1" fill="#7f4b37" d="M 420.5,152.5 C 423.097,152.643 425.431,153.477 427.5,155C 425.005,154.588 422.671,154.755 420.5,155.5C 411.889,151.165 403.222,150.831 394.5,154.5C 394.5,153.167 393.833,152.5 392.5,152.5C 393.347,151.034 394.68,150.2 396.5,150C 404.726,148.991 412.726,149.825 420.5,152.5 Z"/></g>
<g><path style="opacity:0.035" fill="#150900" d="M 486.5,154.5 C 486.833,154.5 487.167,154.5 487.5,154.5C 487.795,156.735 487.461,158.735 486.5,160.5C 486.5,158.5 486.5,156.5 486.5,154.5 Z"/></g>
<g><path style="opacity:1" fill="#1a120d" d="M 322.5,154.5 C 325.5,154.5 328.5,154.5 331.5,154.5C 336.926,156.379 341.926,159.046 346.5,162.5C 345.643,163.425 344.643,164.092 343.5,164.5C 338.566,164.229 333.9,164.896 329.5,166.5C 321.294,167.158 313.46,165.824 306,162.5C 305.383,161.551 305.549,160.718 306.5,160C 311.475,157.064 316.808,155.231 322.5,154.5 Z"/></g>
<g><path style="opacity:1" fill="#d4d3d2" d="M 320.5,156.5 C 321.5,156.5 322.5,156.5 323.5,156.5C 323.778,158.346 323.111,159.68 321.5,160.5C 320.571,159.311 320.238,157.978 320.5,156.5 Z"/></g>
<g><path style="opacity:1" fill="#aeadac" d="M 324.5,159.5 C 326.337,159.639 326.67,160.306 325.5,161.5C 324.702,161.043 324.369,160.376 324.5,159.5 Z"/></g>
<g><path style="opacity:1" fill="#dcdcdc" d="M 333.5,157.5 C 336.335,158.069 338.001,159.736 338.5,162.5C 336.738,162.357 335.071,162.691 333.5,163.5C 333.08,161.674 333.08,159.674 333.5,157.5 Z"/></g>
<g><path style="opacity:1" fill="#1a120d" d="M 420.5,155.5 C 422.2,156.016 423.533,157.016 424.5,158.5C 416.409,163.487 407.575,165.487 398,164.5C 381.533,165.915 380.366,162.581 394.5,154.5C 403.222,150.831 411.889,151.165 420.5,155.5 Z"/></g>
<g><path style="opacity:1" fill="#c1bfbf" d="M 411.5,154.5 C 415.252,155.306 416.252,157.472 414.5,161C 413.552,161.483 412.552,161.649 411.5,161.5C 411.5,159.167 411.5,156.833 411.5,154.5 Z"/></g>
<g><path style="opacity:1" fill="#716c69" d="M 402.5,157.5 C 403.5,157.5 404.5,157.5 405.5,157.5C 405.5,158.5 405.5,159.5 405.5,160.5C 404.5,160.5 403.5,160.5 402.5,160.5C 402.5,159.5 402.5,158.5 402.5,157.5 Z"/></g>
<g><path style="opacity:1" fill="#cac9c9" d="M 394.5,156.5 C 396.614,157.784 397.614,159.784 397.5,162.5C 394.712,162.923 392.712,161.923 391.5,159.5C 392.34,158.265 393.34,157.265 394.5,156.5 Z"/></g>
<g><path style="opacity:1" fill="#cfcecd" d="M 402.5,157.5 C 400.77,158.976 399.437,158.642 398.5,156.5C 400.463,153.806 401.797,154.139 402.5,157.5 Z"/></g>
<g><path style="opacity:1" fill="#cac9c8" d="M 315.5,157.5 C 317.216,158.574 318.216,160.241 318.5,162.5C 316.955,163.452 315.288,163.785 313.5,163.5C 313.259,161.114 313.925,159.114 315.5,157.5 Z"/></g>
<g><path style="opacity:0.035" fill="#170700" d="M 485.5,160.5 C 485.833,160.5 486.167,160.5 486.5,160.5C 486.768,162.099 486.434,163.432 485.5,164.5C 485.5,163.167 485.5,161.833 485.5,160.5 Z"/></g>
<g><path style="opacity:0.004" fill="#100700" d="M 247.5,160.5 C 248.167,161.167 248.833,161.833 249.5,162.5C 249.5,163.5 249.5,164.5 249.5,165.5C 248.069,164.22 247.402,162.553 247.5,160.5 Z"/></g>
<g><path style="opacity:1" fill="#623c2b" d="M 343.5,164.5 C 339.036,165.644 334.37,166.31 329.5,166.5C 333.9,164.896 338.566,164.229 343.5,164.5 Z"/></g>
<g><path style="opacity:1" fill="#1b0f06" d="M 371.5,148.5 C 372.319,151.305 372.819,154.305 373,157.5C 375.333,161.167 377.667,164.833 380,168.5C 381.351,171.623 381.518,174.623 380.5,177.5C 377.257,171.074 373.757,164.74 370,158.5C 369.31,154.974 369.81,151.64 371.5,148.5 Z"/></g>
<g><path style="opacity:0.004" fill="#160800" d="M 249.5,165.5 C 251.502,169.833 252.502,174.5 252.5,179.5C 251.01,175.058 250.01,170.391 249.5,165.5 Z"/></g>
<g><path style="opacity:1" fill="#140904" d="M 396.5,169.5 C 396.56,168.957 396.893,168.624 397.5,168.5C 400.443,169.244 403.443,169.744 406.5,170C 403.076,170.747 399.743,170.58 396.5,169.5 Z"/></g>
<g><path style="opacity:1" fill="#1e0f05" d="M 331.5,169.5 C 335.893,169.457 336.226,169.957 332.5,171C 330.167,171.667 327.833,171.667 325.5,171C 327.708,170.809 329.708,170.309 331.5,169.5 Z"/></g>
<g><path style="opacity:1" fill="#b87659" d="M 476.5,175.5 C 476.075,185.361 473.575,194.695 469,203.5C 468.184,204.823 467.017,205.489 465.5,205.5C 463.558,200.944 462.892,195.944 463.5,190.5C 463.5,188.833 463.5,187.167 463.5,185.5C 467.803,180.353 471.97,175.02 476,169.5C 476.495,171.473 476.662,173.473 476.5,175.5 Z"/></g>
<g><path style="opacity:1" fill="#b17055" d="M 269.5,180.5 C 271.007,190.068 272.007,199.735 272.5,209.5C 268.957,209.128 266.79,207.128 266,203.5C 263.113,194.672 260.946,185.672 259.5,176.5C 259.34,174.801 259.506,173.134 260,171.5C 263.036,174.704 266.203,177.704 269.5,180.5 Z"/></g>
<g><path style="opacity:0.016" fill="#150100" d="M 484.5,164.5 C 484.833,164.5 485.167,164.5 485.5,164.5C 485.364,172.088 484.364,179.422 482.5,186.5C 482.5,184.5 482.5,182.5 482.5,180.5C 483.477,177.713 483.81,174.713 483.5,171.5C 484.468,169.393 484.802,167.059 484.5,164.5 Z"/></g>
<g><path style="opacity:0.035" fill="#150c00" d="M 252.5,179.5 C 253.167,180.833 253.833,182.167 254.5,183.5C 254.5,185.167 254.5,186.833 254.5,188.5C 253.087,185.781 252.42,182.781 252.5,179.5 Z"/></g>
<g><path style="opacity:0.016" fill="#1c0000" d="M 481.5,186.5 C 481.833,186.5 482.167,186.5 482.5,186.5C 482.737,187.791 482.404,188.791 481.5,189.5C 481.5,188.5 481.5,187.5 481.5,186.5 Z"/></g>
<g><path style="opacity:1" fill="#a5634b" d="M 389.5,190.5 C 389.062,190.435 388.728,190.601 388.5,191C 393.861,194.882 396.028,200.049 395,206.5C 394.167,208.667 392.667,210.167 390.5,211C 391.448,211.483 392.448,211.649 393.5,211.5C 393.047,212.458 392.381,213.292 391.5,214C 387.918,215.251 384.251,216.251 380.5,217C 377.761,218.026 375.428,219.526 373.5,221.5C 366.01,222.936 359.344,221.103 353.5,216C 350.833,215.667 348.167,215.333 345.5,215C 344.944,214.617 344.611,214.117 344.5,213.5C 339.754,209.658 338.254,204.658 340,198.5C 342.717,196.119 343.883,193.452 343.5,190.5C 343.783,189.711 344.283,189.044 345,188.5C 345.017,193.09 345.183,197.59 345.5,202C 347.167,202.667 348.833,202.667 350.5,202C 351.777,200.214 353.444,199.048 355.5,198.5C 357.958,200.455 360.291,202.622 362.5,205C 370.434,207.185 377.768,205.852 384.5,201C 386.663,197.69 386.996,194.19 385.5,190.5C 386.958,189.218 388.292,189.218 389.5,190.5 Z"/></g>
<g><path style="opacity:0.016" fill="#180000" d="M 480.5,189.5 C 480.833,189.5 481.167,189.5 481.5,189.5C 481.737,190.791 481.404,191.791 480.5,192.5C 480.5,191.5 480.5,190.5 480.5,189.5 Z"/></g>
<g><path style="opacity:0.004" fill="#140800" d="M 254.5,188.5 C 255.167,189.5 255.833,190.5 256.5,191.5C 256.5,192.5 256.5,193.5 256.5,194.5C 254.926,192.898 254.259,190.898 254.5,188.5 Z"/></g>
<g><path style="opacity:0.016" fill="#1c0000" d="M 479.5,192.5 C 479.833,192.5 480.167,192.5 480.5,192.5C 480.672,193.492 480.338,194.158 479.5,194.5C 479.5,193.833 479.5,193.167 479.5,192.5 Z"/></g>
<g><path style="opacity:0.016" fill="#190000" d="M 478.5,194.5 C 478.833,194.5 479.167,194.5 479.5,194.5C 479.768,196.099 479.434,197.432 478.5,198.5C 478.5,197.167 478.5,195.833 478.5,194.5 Z"/></g>
<g><path style="opacity:0.035" fill="#170e00" d="M 256.5,194.5 C 256.833,194.5 257.167,194.5 257.5,194.5C 257.328,195.492 257.662,196.158 258.5,196.5C 258.5,198.5 258.5,200.5 258.5,202.5C 257.469,200.039 256.802,197.373 256.5,194.5 Z"/></g>
<g><path style="opacity:0.016" fill="#140000" d="M 477.5,198.5 C 477.833,198.5 478.167,198.5 478.5,198.5C 478.768,200.099 478.434,201.432 477.5,202.5C 477.5,201.167 477.5,199.833 477.5,198.5 Z"/></g>
<g><path style="opacity:1" fill="#201107" d="M 343.5,190.5 C 343.883,193.452 342.717,196.119 340,198.5C 338.254,204.658 339.754,209.658 344.5,213.5C 335.835,211.167 333.335,205.833 337,197.5C 339.372,195.297 341.539,192.963 343.5,190.5 Z"/></g>
<g><path style="opacity:0.035" fill="#170c00" d="M 258.5,202.5 C 259.167,203.5 259.833,204.5 260.5,205.5C 260.5,206.5 260.5,207.5 260.5,208.5C 258.926,206.898 258.259,204.898 258.5,202.5 Z"/></g>
<g><path style="opacity:0.004" fill="#0d0000" d="M 476.5,202.5 C 476.833,202.5 477.167,202.5 477.5,202.5C 477.672,203.492 477.338,204.158 476.5,204.5C 476.5,203.833 476.5,203.167 476.5,202.5 Z"/></g>
<g><path style="opacity:1" fill="#6e412d" d="M 463.5,190.5 C 462.892,195.944 463.558,200.944 465.5,205.5C 464.791,206.404 463.791,206.737 462.5,206.5C 462.179,200.974 462.512,195.64 463.5,190.5 Z"/></g>
<g><path style="opacity:0.004" fill="#080000" d="M 475.5,204.5 C 475.833,204.5 476.167,204.5 476.5,204.5C 476.573,206.027 475.906,207.027 474.5,207.5C 474.5,206.833 474.5,206.167 474.5,205.5C 475.167,205.5 475.5,205.167 475.5,204.5 Z"/></g>
<g><path style="opacity:1" fill="#160902" d="M 389.5,190.5 C 396.765,193.452 399.598,198.785 398,206.5C 397.004,208.66 395.504,210.327 393.5,211.5C 392.448,211.649 391.448,211.483 390.5,211C 392.667,210.167 394.167,208.667 395,206.5C 396.028,200.049 393.861,194.882 388.5,191C 388.728,190.601 389.062,190.435 389.5,190.5 Z"/></g>
<g><path style="opacity:0.016" fill="#1c0000" d="M 473.5,207.5 C 473.833,207.5 474.167,207.5 474.5,207.5C 474.315,208.17 473.981,208.17 473.5,207.5 Z"/></g>
<g><path style="opacity:0.016" fill="#1c0000" d="M 472.5,208.5 C 472.833,208.5 473.167,208.5 473.5,208.5C 473.315,209.17 472.981,209.17 472.5,208.5 Z"/></g>
<g><path style="opacity:0.016" fill="#180200" d="M 260.5,208.5 C 261.167,208.833 261.833,209.167 262.5,209.5C 261.699,211.793 261.032,211.46 260.5,208.5 Z"/></g>
<g><path style="opacity:0.004" fill="#000000" d="M 465.5,213.5 C 464.79,215.746 464.29,218.08 464,220.5C 463.833,219.333 463.667,218.167 463.5,217C 463.608,215.319 464.275,214.152 465.5,213.5 Z"/></g>
<g><path style="opacity:1" fill="#1e1006" d="M 383.5,205.5 C 385.527,205.338 387.527,205.505 389.5,206C 387.048,206.29 384.715,206.956 382.5,208C 379.5,211 376.5,214 373.5,217C 364.971,221.41 358.305,219.41 353.5,211C 351.043,209.438 348.376,208.438 345.5,208C 351.688,206.924 356.688,208.924 360.5,214C 364.167,216 367.833,216 371.5,214C 375.075,210.396 379.075,207.562 383.5,205.5 Z"/></g>
<g><path style="opacity:0.004" fill="#000000" d="M 462.5,222.5 C 463.376,222.369 464.043,222.702 464.5,223.5C 463.011,228.646 462.344,228.313 462.5,222.5 Z"/></g>
<g><path style="opacity:0.004" fill="#000000" d="M 462.5,228.5 C 463.613,229.946 463.78,231.613 463,233.5C 461.212,231.977 461.045,230.31 462.5,228.5 Z"/></g>
<g><path style="opacity:0.004" fill="#000000" d="M 462.5,234.5 C 463.306,235.997 463.972,237.664 464.5,239.5C 464.167,239.833 463.833,240.167 463.5,240.5C 462.534,238.604 462.201,236.604 462.5,234.5 Z"/></g>
<g><path style="opacity:1" fill="#160903" d="M 401.5,236.5 C 393.704,236.492 385.704,236.658 377.5,237C 374.576,238.881 371.409,240.048 368,240.5C 357.603,236.337 347.437,237.003 337.5,242.5C 336.893,242.376 336.56,242.043 336.5,241.5C 346.253,234.854 356.753,233.187 368,236.5C 372.325,234.757 376.825,233.757 381.5,233.5C 388.242,234.068 394.909,235.068 401.5,236.5 Z"/></g>
<g><path style="opacity:0.035" fill="#180a00" d="M 275.5,240.5 C 275.833,240.5 276.167,240.5 276.5,240.5C 276.232,242.099 276.566,243.432 277.5,244.5C 277.657,245.873 277.49,247.207 277,248.5C 275.921,245.937 275.421,243.271 275.5,240.5 Z"/></g>
<g><path style="opacity:0.004" fill="#000000" d="M 463.5,242.5 C 464.629,244.628 464.796,246.961 464,249.5C 463.503,247.19 463.337,244.857 463.5,242.5 Z"/></g>
<g><path style="opacity:1" fill="#995b44" d="M 401.5,236.5 C 405.375,237.599 408.708,239.432 411.5,242C 407.647,247.341 403.314,252.341 398.5,257C 395.714,259.06 392.714,260.56 389.5,261.5C 375.983,262.486 362.65,262.819 349.5,262.5C 341.313,259.825 334.147,255.491 328,249.5C 327.251,248.365 327.417,247.365 328.5,246.5C 331.184,244.807 333.851,243.14 336.5,241.5C 336.56,242.043 336.893,242.376 337.5,242.5C 347.437,237.003 357.603,236.337 368,240.5C 371.409,240.048 374.576,238.881 377.5,237C 385.704,236.658 393.704,236.492 401.5,236.5 Z"/></g>
<g><path style="opacity:1" fill="#1a0c04" d="M 381.5,244.5 C 389.524,244.566 397.524,245.066 405.5,246C 403.091,246.935 400.591,247.435 398,247.5C 394.173,246.761 390.34,246.594 386.5,247C 377.924,251.106 368.924,252.439 359.5,251C 355.79,249.084 351.79,248.251 347.5,248.5C 341.835,249.201 336.169,249.367 330.5,249C 336.983,248.412 343.316,247.246 349.5,245.5C 358.74,247.346 368.074,247.846 377.5,247C 379.066,246.392 380.4,245.558 381.5,244.5 Z"/></g>
<g><path style="opacity:0.004" fill="#000000" d="M 464.5,251.5 C 465.638,254.304 465.805,257.304 465,260.5C 464.502,257.518 464.335,254.518 464.5,251.5 Z"/></g>
<g><path style="opacity:1" fill="#9c5a47" d="M 459.5,281.5 C 458.679,278.359 458.179,275.025 458,271.5C 440.709,304.467 417.209,332.3 387.5,355C 374.481,358.135 361.481,357.802 348.5,354C 344.835,352.503 341.502,350.503 338.5,348C 322.81,328.119 307.976,307.619 294,286.5C 291.667,284.167 289.333,281.833 287,279.5C 286.601,279.728 286.435,280.062 286.5,280.5C 285.185,275.32 285.185,269.986 286.5,264.5C 297.412,282.256 310.412,298.423 325.5,313C 349.544,329.295 375.21,331.962 402.5,321C 410.858,316.313 418.358,310.48 425,303.5C 438.691,286.298 449.191,267.298 456.5,246.5C 458.217,258.104 459.217,269.771 459.5,281.5 Z"/></g>
<g><path style="opacity:0.004" fill="#030000" d="M 467.5,271.5 C 466.235,270.486 465.569,268.986 465.5,267C 465.667,265.5 465.833,264 466,262.5C 466.259,265.587 466.759,268.587 467.5,271.5 Z"/></g>
<g><path style="opacity:0.016" fill="#190800" d="M 279.5,251.5 C 279.5,258.833 279.5,266.167 279.5,273.5C 278.711,273.217 278.044,272.717 277.5,272C 278.15,265.068 278.817,258.234 279.5,251.5 Z"/></g>
<g><path style="opacity:1" fill="#1b0c02" d="M 349.5,262.5 C 362.65,262.819 375.983,262.486 389.5,261.5C 389.5,262.167 389.167,262.5 388.5,262.5C 384.281,263.204 380.948,265.371 378.5,269C 370.807,272.071 364.14,270.738 358.5,265C 356.482,264.495 354.482,263.995 352.5,263.5C 351.609,262.89 350.609,262.557 349.5,262.5 Z"/></g>
<g><path style="opacity:1" fill="#a16149" d="M 388.5,262.5 C 387.378,263.947 385.878,264.947 384,265.5C 378.349,277.246 370.182,279.412 359.5,272C 356.577,269.584 354.243,266.75 352.5,263.5C 354.482,263.995 356.482,264.495 358.5,265C 364.14,270.738 370.807,272.071 378.5,269C 380.948,265.371 384.281,263.204 388.5,262.5 Z"/></g>
<g><path style="opacity:1" fill="#6e402d" d="M 417.5,258.5 C 419.405,264.443 419.738,270.443 418.5,276.5C 418.167,270.5 417.833,264.5 417.5,258.5 Z"/></g>
<g><path style="opacity:0.016" fill="#120000" d="M 467.5,271.5 C 468.791,271.263 469.791,271.596 470.5,272.5C 469.209,272.737 468.209,272.404 467.5,271.5 Z"/></g>
<g><path style="opacity:0.016" fill="#1c0000" d="M 470.5,272.5 C 471.492,272.328 472.158,272.662 472.5,273.5C 471.508,273.672 470.842,273.338 470.5,272.5 Z"/></g>
<g><path style="opacity:0.016" fill="#120000" d="M 472.5,273.5 C 473.791,273.263 474.791,273.596 475.5,274.5C 474.209,274.737 473.209,274.404 472.5,273.5 Z"/></g>
<g><path style="opacity:0.004" fill="#0c0000" d="M 269.5,274.5 C 273.221,274.793 273.055,275.459 269,276.5C 268.5,276.333 268,276.167 267.5,276C 268.416,275.722 269.082,275.222 269.5,274.5 Z"/></g>
<g><path style="opacity:0.016" fill="#1c0000" d="M 475.5,274.5 C 476.492,274.328 477.158,274.662 477.5,275.5C 476.508,275.672 475.842,275.338 475.5,274.5 Z"/></g>
<g><path style="opacity:0.016" fill="#120000" d="M 477.5,275.5 C 478.791,275.263 479.791,275.596 480.5,276.5C 479.209,276.737 478.209,276.404 477.5,275.5 Z"/></g>
<g><path style="opacity:0.004" fill="#0d0000" d="M 480.5,276.5 C 481.492,276.328 482.158,276.662 482.5,277.5C 481.508,277.672 480.842,277.338 480.5,276.5 Z"/></g>
<g><path style="opacity:0.004" fill="#0d0000" d="M 482.5,277.5 C 483.492,277.328 484.158,277.662 484.5,278.5C 483.508,278.672 482.842,278.338 482.5,277.5 Z"/></g>
<g><path style="opacity:1" fill="#bc785b" d="M 459.5,281.5 C 459.995,283.482 460.495,285.482 461,287.5C 462.452,284.986 463.618,282.32 464.5,279.5C 470.328,281.836 473.161,286.169 473,292.5C 474.988,306.43 473.154,319.764 467.5,332.5C 456.889,348.259 442.556,359.425 424.5,366C 386.44,380.333 348.44,379.999 310.5,365C 288.189,354.524 275.856,337.024 273.5,312.5C 272.082,301.174 274.582,290.84 281,281.5C 284.735,293.611 286.568,293.277 286.5,280.5C 286.435,280.062 286.601,279.728 287,279.5C 289.333,281.833 291.667,284.167 294,286.5C 307.976,307.619 322.81,328.119 338.5,348C 341.502,350.503 344.835,352.503 348.5,354C 361.481,357.802 374.481,358.135 387.5,355C 417.209,332.3 440.709,304.467 458,271.5C 458.179,275.025 458.679,278.359 459.5,281.5 Z"/></g>
<g><path style="opacity:0.004" fill="#0d0000" d="M 484.5,278.5 C 485.492,278.328 486.158,278.662 486.5,279.5C 485.508,279.672 484.842,279.338 484.5,278.5 Z"/></g>
<g><path style="opacity:0.004" fill="#0d0000" d="M 486.5,279.5 C 487.492,279.328 488.158,279.662 488.5,280.5C 487.508,280.672 486.842,280.338 486.5,279.5 Z"/></g>
<g><path style="opacity:0.004" fill="#0f0000" d="M 258.5,282.5 C 256.025,282.253 256.025,281.587 258.5,280.5C 259.463,280.97 259.463,281.637 258.5,282.5 Z"/></g>
<g><path style="opacity:0.016" fill="#1c0000" d="M 488.5,280.5 C 489.833,281.167 489.833,281.167 488.5,280.5 Z"/></g>
<g><path style="opacity:0.004" fill="#0f0000" d="M 253.5,285.5 C 251.025,285.253 251.025,284.587 253.5,283.5C 254.463,283.97 254.463,284.637 253.5,285.5 Z"/></g>
<g><path style="opacity:0.004" fill="#0f0000" d="M 496.5,285.5 C 495.833,285.5 495.167,285.5 494.5,285.5C 493.939,282.813 494.606,282.813 496.5,285.5 Z"/></g>
<g><path style="opacity:1" fill="#282320" d="M 267.5,284.5 C 268.239,284.369 268.906,284.536 269.5,285C 255.386,299.797 252.553,316.631 261,335.5C 268.323,351.488 277.657,366.154 289,379.5C 314.349,407.531 342.682,431.864 374,452.5C 405.318,431.864 433.651,407.531 459,379.5C 472.667,363.839 483,346.173 490,326.5C 494.208,310.422 490.375,296.589 478.5,285C 493.931,291.153 507.097,300.653 518,313.5C 520.554,327.296 518.887,340.629 513,353.5C 503.847,374.636 491.514,393.636 476,410.5C 445.457,442.402 411.457,469.736 374,492.5C 333.704,468.311 297.704,438.644 266,403.5C 250.486,385.485 238.82,365.152 231,342.5C 228.799,333.614 228.132,324.614 229,315.5C 232.083,310.412 235.917,305.912 240.5,302C 249.178,295.454 258.178,289.621 267.5,284.5 Z"/></g>
<g><path style="opacity:0.004" fill="#0f0000" d="M 496.5,285.5 C 499.46,286.032 499.793,286.699 497.5,287.5C 497.167,286.833 496.833,286.167 496.5,285.5 Z"/></g>
<g><path style="opacity:0.016" fill="#1a0000" d="M 241.5,293.5 C 239.025,293.253 239.025,292.587 241.5,291.5C 242.463,291.97 242.463,292.637 241.5,293.5 Z"/></g>
<g><path style="opacity:0.016" fill="#180000" d="M 506.5,293.5 C 505.632,291.108 506.299,290.941 508.5,293C 507.906,293.464 507.239,293.631 506.5,293.5 Z"/></g>
<g><path style="opacity:1" fill="#f7f7f7" d="M 271.5,291.5 C 265.069,319.372 272.735,342.539 294.5,361C 321.641,377.037 350.974,383.37 382.5,380C 410.898,377.984 436.231,368.318 458.5,351C 465.371,344.309 470.371,336.475 473.5,327.5C 475.132,324.442 476.299,321.109 477,317.5C 478.448,309.15 478.948,300.816 478.5,292.5C 486.006,301.196 488.506,311.196 486,322.5C 477.988,348.599 463.154,369.599 441.5,385.5C 408.778,402.594 374.111,407.927 337.5,401.5C 325.478,398.878 314.145,394.378 303.5,388C 286.719,370.938 273.553,351.438 264,329.5C 259.584,317.092 260.917,305.425 268,294.5C 268.759,292.937 269.926,291.937 271.5,291.5 Z"/></g>
<g><path style="opacity:0.016" fill="#180000" d="M 238.5,295.5 C 237.833,295.5 237.5,295.833 237.5,296.5C 236.833,296.5 236.5,296.833 236.5,297.5C 234.408,296.714 234.741,295.714 237.5,294.5C 238.107,294.624 238.44,294.957 238.5,295.5 Z"/></g>
<g><path style="opacity:0.016" fill="#180000" d="M 510.5,296.5 C 511.497,295.287 512.497,295.454 513.5,297C 512.906,297.464 512.239,297.631 511.5,297.5C 510.833,297.5 510.5,297.167 510.5,296.5 Z"/></g>
<g><path style="opacity:1" fill="#975d45" d="M 337.5,296.5 C 343.213,297.368 348.879,298.534 354.5,300C 364.494,300.5 374.494,300.666 384.5,300.5C 373.674,301.659 362.674,301.826 351.5,301C 346.508,300.168 341.841,298.668 337.5,296.5 Z"/></g>
<g><path style="opacity:0.035" fill="#160800" d="M 520.5,306.5 C 519.833,306.5 519.5,306.167 519.5,305.5C 519.747,303.025 520.413,303.025 521.5,305.5C 521.376,306.107 521.043,306.44 520.5,306.5 Z"/></g>
<g><path style="opacity:0.035" fill="#160800" d="M 227.5,306.5 C 226.833,306.5 226.5,306.833 226.5,307.5C 225.287,306.503 225.454,305.503 227,304.5C 227.464,305.094 227.631,305.761 227.5,306.5 Z"/></g>
<g><path style="opacity:0.035" fill="#140800" d="M 219.5,313.5 C 218.508,313.328 217.842,313.662 217.5,314.5C 216.508,314.328 215.842,314.662 215.5,315.5C 213.653,315.766 212.986,315.432 213.5,314.5C 215.507,312.797 217.507,312.463 219.5,313.5 Z"/></g>
<g><path style="opacity:0.004" fill="#110600" d="M 528.5,313.5 C 529.251,312.427 530.251,312.26 531.5,313C 532.833,313.667 534.167,314.333 535.5,315C 534.552,315.483 533.552,315.649 532.5,315.5C 532.158,314.662 531.492,314.328 530.5,314.5C 530.158,313.662 529.492,313.328 528.5,313.5 Z"/></g>
<g><path style="opacity:0.004" fill="#110800" d="M 208.5,318.5 C 207.508,318.328 206.842,318.662 206.5,319.5C 205.508,319.328 204.842,319.662 204.5,320.5C 202.653,320.766 201.986,320.432 202.5,319.5C 204.507,317.797 206.507,317.463 208.5,318.5 Z"/></g>
<g><path style="opacity:0.004" fill="#110700" d="M 539.5,318.5 C 540.251,317.427 541.251,317.26 542.5,318C 543.833,318.667 545.167,319.333 546.5,320C 545.552,320.483 544.552,320.649 543.5,320.5C 543.158,319.662 542.492,319.328 541.5,319.5C 541.158,318.662 540.492,318.328 539.5,318.5 Z"/></g>
<g><path style="opacity:1" fill="#282320" d="M 741.5,524.5 C 496.5,524.5 251.5,524.5 6.5,524.5C 9.65834,512.844 12.825,501.178 16,489.5C 26.4467,466.603 38.4467,444.603 52,423.5C 61.4698,413.029 71.3031,402.863 81.5,393C 90.315,384.515 99.9817,377.182 110.5,371C 147.43,353.249 184.596,336.082 222,319.5C 222.837,326.193 223.837,332.86 225,339.5C 232.801,365.773 245.801,389.107 264,409.5C 296.273,444.63 332.773,474.297 373.5,498.5C 395.505,485.494 416.505,470.994 436.5,455C 463.916,433.591 487.082,408.424 506,379.5C 517.44,361.179 524.107,341.179 526,319.5C 565.209,336.686 604.042,354.852 642.5,374C 662.189,388.35 680.022,404.85 696,423.5C 709.859,444.341 721.859,466.341 732,489.5C 734.867,501.265 738.034,512.932 741.5,524.5 Z"/></g>
<g><path style="opacity:0.035" fill="#160900" d="M 550.5,323.5 C 551.251,322.427 552.251,322.26 553.5,323C 554.833,323.667 556.167,324.333 557.5,325C 556.552,325.483 555.552,325.649 554.5,325.5C 554.158,324.662 553.492,324.328 552.5,324.5C 552.158,323.662 551.492,323.328 550.5,323.5 Z"/></g>
<g><path style="opacity:0.004" fill="#110800" d="M 197.5,323.5 C 196.508,323.328 195.842,323.662 195.5,324.5C 194.508,324.328 193.842,324.662 193.5,325.5C 191.653,325.766 190.986,325.432 191.5,324.5C 193.507,322.797 195.507,322.463 197.5,323.5 Z"/></g>
<g><path style="opacity:0.035" fill="#160b00" d="M 186.5,328.5 C 185.508,328.328 184.842,328.662 184.5,329.5C 183.508,329.328 182.842,329.662 182.5,330.5C 180.653,330.766 179.986,330.432 180.5,329.5C 182.507,327.797 184.507,327.463 186.5,328.5 Z"/></g>
<g><path style="opacity:0.035" fill="#170b00" d="M 563.5,329.5 C 565.089,328.379 566.756,328.546 568.5,330C 567.552,330.483 566.552,330.649 565.5,330.5C 565.158,329.662 564.492,329.328 563.5,329.5 Z"/></g>
<g><path style="opacity:0.035" fill="#170b00" d="M 574.5,334.5 C 576.089,333.379 577.756,333.546 579.5,335C 578.552,335.483 577.552,335.649 576.5,335.5C 576.158,334.662 575.492,334.328 574.5,334.5 Z"/></g>
<g><path style="opacity:0.035" fill="#180900" d="M 173.5,334.5 C 172.508,334.328 171.842,334.662 171.5,335.5C 169.653,335.766 168.986,335.432 169.5,334.5C 170.995,333.295 172.328,333.295 173.5,334.5 Z"/></g>
<g><path style="opacity:0.035" fill="#160900" d="M 585.5,339.5 C 586.251,338.427 587.251,338.26 588.5,339C 589.833,339.667 591.167,340.333 592.5,341C 591.552,341.483 590.552,341.649 589.5,341.5C 589.158,340.662 588.492,340.328 587.5,340.5C 587.158,339.662 586.492,339.328 585.5,339.5 Z"/></g>
<g><path style="opacity:0.035" fill="#180b00" d="M 162.5,339.5 C 161.508,339.328 160.842,339.662 160.5,340.5C 158.653,340.766 157.986,340.432 158.5,339.5C 159.995,338.295 161.328,338.295 162.5,339.5 Z"/></g>
<g><path style="opacity:0.004" fill="#110800" d="M 151.5,344.5 C 150.508,344.328 149.842,344.662 149.5,345.5C 148.508,345.328 147.842,345.662 147.5,346.5C 145.653,346.766 144.986,346.432 145.5,345.5C 147.507,343.797 149.507,343.463 151.5,344.5 Z"/></g>
<g><path style="opacity:0.004" fill="#110700" d="M 596.5,344.5 C 597.251,343.427 598.251,343.26 599.5,344C 600.833,344.667 602.167,345.333 603.5,346C 602.552,346.483 601.552,346.649 600.5,346.5C 600.158,345.662 599.492,345.328 598.5,345.5C 598.158,344.662 597.492,344.328 596.5,344.5 Z"/></g>
<g><path style="opacity:0.004" fill="#0e0600" d="M 615.5,353.5 C 616.251,352.427 617.251,352.26 618.5,353C 624.991,356.078 631.325,359.412 637.5,363C 636.906,363.464 636.239,363.631 635.5,363.5C 635.158,362.662 634.492,362.328 633.5,362.5C 633.158,361.662 632.492,361.328 631.5,361.5C 631.158,360.662 630.492,360.328 629.5,360.5C 629.158,359.662 628.492,359.328 627.5,359.5C 627.158,358.662 626.492,358.328 625.5,358.5C 625.158,357.662 624.492,357.328 623.5,357.5C 623.158,356.662 622.492,356.328 621.5,356.5C 621.158,355.662 620.492,355.328 619.5,355.5C 619.158,354.662 618.492,354.328 617.5,354.5C 617.158,353.662 616.492,353.328 615.5,353.5 Z"/></g>
<g><path style="opacity:0.004" fill="#0e0600" d="M 132.5,353.5 C 131.508,353.328 130.842,353.662 130.5,354.5C 129.508,354.328 128.842,354.662 128.5,355.5C 127.508,355.328 126.842,355.662 126.5,356.5C 125.508,356.328 124.842,356.662 124.5,357.5C 123.508,357.328 122.842,357.662 122.5,358.5C 121.508,358.328 120.842,358.662 120.5,359.5C 119.508,359.328 118.842,359.662 118.5,360.5C 117.508,360.328 116.842,360.662 116.5,361.5C 115.508,361.328 114.842,361.662 114.5,362.5C 112.621,362.607 112.288,362.107 113.5,361C 118.833,358.333 124.167,355.667 129.5,353C 130.749,352.26 131.749,352.427 132.5,353.5 Z"/></g>
<g><path style="opacity:1" fill="#1b120d" d="M 273.5,312.5 C 275.856,337.024 288.189,354.524 310.5,365C 348.44,379.999 386.44,380.333 424.5,366C 442.556,359.425 456.889,348.259 467.5,332.5C 468.708,331.766 470.041,331.433 471.5,331.5C 471.372,329.345 471.872,327.345 473,325.5C 473.464,326.094 473.631,326.761 473.5,327.5C 470.371,336.475 465.371,344.309 458.5,351C 436.231,368.318 410.898,377.984 382.5,380C 350.974,383.37 321.641,377.037 294.5,361C 272.735,342.539 265.069,319.372 271.5,291.5C 272.363,290.537 273.03,290.537 273.5,291.5C 268.788,307.217 269.955,322.551 277,337.5C 275.202,329.962 273.535,322.295 272,314.5C 271.333,311.167 271.333,307.833 272,304.5C 272.183,307.365 272.683,310.031 273.5,312.5 Z"/></g>
<g><path style="opacity:0.004" fill="#120700" d="M 645.5,368.5 C 646.497,367.287 647.497,367.454 648.5,369C 647.906,369.464 647.239,369.631 646.5,369.5C 645.833,369.5 645.5,369.167 645.5,368.5 Z"/></g>
<g><path style="opacity:0.016" fill="#180800" d="M 102.5,368.5 C 101.833,368.5 101.5,368.833 101.5,369.5C 99.0248,369.253 99.0248,368.587 101.5,367.5C 102.107,367.624 102.44,367.957 102.5,368.5 Z"/></g>
<g><path style="opacity:0.004" fill="#130300" d="M 92.5,375.5 C 91.8333,375.5 91.5,375.833 91.5,376.5C 89.0248,376.253 89.0248,375.587 91.5,374.5C 92.1067,374.624 92.44,374.957 92.5,375.5 Z"/></g>
<g><path style="opacity:0.016" fill="#180200" d="M 655.5,375.5 C 656.497,374.287 657.497,374.454 658.5,376C 657.906,376.464 657.239,376.631 656.5,376.5C 655.833,376.5 655.5,376.167 655.5,375.5 Z"/></g>
<g><path style="opacity:0.016" fill="#170300" d="M 86.5,380.5 C 85.8333,380.5 85.5,380.833 85.5,381.5C 84.8333,381.5 84.5,381.833 84.5,382.5C 82.4076,381.714 82.7409,380.714 85.5,379.5C 86.1067,379.624 86.44,379.957 86.5,380.5 Z"/></g>
<g><path style="opacity:0.004" fill="#120200" d="M 662.5,381.5 C 664.07,380.441 665.403,380.941 666.5,383C 665.906,383.464 665.239,383.631 664.5,383.5C 663.833,383.5 663.5,383.167 663.5,382.5C 662.833,382.5 662.5,382.167 662.5,381.5 Z"/></g>
<g><path style="opacity:0.004" fill="#0d0000" d="M 75.5,390.5 C 74.8333,390.5 74.5,390.833 74.5,391.5C 73.8333,391.5 73.5,391.833 73.5,392.5C 72.8333,392.5 72.5,392.833 72.5,393.5C 71.8333,393.5 71.5,393.833 71.5,394.5C 70.7611,394.631 70.0944,394.464 69.5,394C 70.8333,392.667 72.1667,391.333 73.5,390C 74.4368,389.308 75.1034,389.475 75.5,390.5 Z"/></g>
<g><path style="opacity:1" fill="#f9f9f9" d="M 332.5,404.5 C 365.911,411.912 398.244,408.912 429.5,395.5C 433.244,394.279 436.91,393.113 440.5,392C 419.794,412.383 397.628,430.883 374,447.5C 353.63,432.803 334.13,416.97 315.5,400C 321.229,401.016 326.896,402.516 332.5,404.5 Z"/></g>
<g><path style="opacity:0.016" fill="#140000" d="M 676.5,394.5 C 676.897,393.475 677.563,393.308 678.5,394C 683.667,399.167 688.833,404.333 694,409.5C 694.692,410.437 694.525,411.103 693.5,411.5C 692.833,411.5 692.5,411.167 692.5,410.5C 691.833,410.5 691.5,410.167 691.5,409.5C 690.833,409.5 690.5,409.167 690.5,408.5C 689.833,408.5 689.5,408.167 689.5,407.5C 688.833,407.5 688.5,407.167 688.5,406.5C 687.833,406.5 687.5,406.167 687.5,405.5C 686.833,405.5 686.5,405.167 686.5,404.5C 685.833,404.5 685.5,404.167 685.5,403.5C 684.833,403.5 684.5,403.167 684.5,402.5C 683.833,402.5 683.5,402.167 683.5,401.5C 682.833,401.5 682.5,401.167 682.5,400.5C 681.833,400.5 681.5,400.167 681.5,399.5C 680.833,399.5 680.5,399.167 680.5,398.5C 679.833,398.5 679.5,398.167 679.5,397.5C 678.833,397.5 678.5,397.167 678.5,396.5C 677.833,396.5 677.5,396.167 677.5,395.5C 676.833,395.5 676.5,395.167 676.5,394.5 Z"/></g>
<g><path style="opacity:1" fill="#1b1511" d="M 441.5,385.5 C 441.426,387.411 440.426,388.578 438.5,389C 438.833,389.333 439.167,389.667 439.5,390C 437.945,391.646 436.279,391.979 434.5,391C 434.833,391.333 435.167,391.667 435.5,392C 433.273,392.941 431.273,394.108 429.5,395.5C 398.244,408.912 365.911,411.912 332.5,404.5C 333.344,402.241 335.011,401.241 337.5,401.5C 374.111,407.927 408.778,402.594 441.5,385.5 Z"/></g>
<g><path style="opacity:0.016" fill="#130000" d="M 56.5,409.5 C 55.8333,409.5 55.5,409.833 55.5,410.5C 54.8333,410.5 54.5,410.833 54.5,411.5C 53.8333,411.5 53.5,411.833 53.5,412.5C 52.8333,412.5 52.5,412.833 52.5,413.5C 51.475,413.103 51.3083,412.437 52,411.5C 53.3333,410.167 54.6667,408.833 56,407.5C 56.4643,408.094 56.631,408.761 56.5,409.5 Z"/></g>
<g><path style="opacity:0.016" fill="#1a0300" d="M 701.5,420.5 C 700.833,420.5 700.5,420.167 700.5,419.5C 699.833,419.5 699.5,419.167 699.5,418.5C 700.286,416.408 701.286,416.741 702.5,419.5C 702.376,420.107 702.043,420.44 701.5,420.5 Z"/></g>
<g><path style="opacity:0.016" fill="#140000" d="M 47.5,419.5 C 46.8333,419.5 46.5,419.833 46.5,420.5C 44.8947,421.969 44.3947,421.635 45,419.5C 46.3919,417.158 47.2252,417.158 47.5,419.5 Z"/></g>
<g><path style="opacity:0.004" fill="#130300" d="M 704.5,424.5 C 703.833,424.5 703.5,424.167 703.5,423.5C 703.747,421.025 704.413,421.025 705.5,423.5C 705.376,424.107 705.043,424.44 704.5,424.5 Z"/></g>
<g><path style="opacity:0.004" fill="#0f0000" d="M 43.5,424.5 C 41.1081,425.368 40.9414,424.701 43,422.5C 43.4643,423.094 43.631,423.761 43.5,424.5 Z"/></g>
<g><path style="opacity:0.004" fill="#120700" d="M 707.5,429.5 C 707.747,427.025 708.413,427.025 709.5,429.5C 709.03,430.463 708.363,430.463 707.5,429.5 Z"/></g>
<g><path style="opacity:0.004" fill="#0f0000" d="M 39.5,430.5 C 37.1081,431.368 36.9414,430.701 39,428.5C 39.4643,429.094 39.631,429.761 39.5,430.5 Z"/></g>
<g><path style="opacity:0.016" fill="#170700" d="M 713.5,439.5 C 713.747,437.025 714.413,437.025 715.5,439.5C 715.03,440.463 714.363,440.463 713.5,439.5 Z"/></g>
<g><path style="opacity:0.004" fill="#080000" d="M 31.5,440.5 C 32.7125,441.497 32.5458,442.497 31,443.5C 30.5304,442.423 30.6971,441.423 31.5,440.5 Z"/></g>
<g><path style="opacity:0.004" fill="#0b0700" d="M 717.5,446.5 C 717.747,444.025 718.413,444.025 719.5,446.5C 719.03,447.463 718.363,447.463 717.5,446.5 Z"/></g>
<g><path style="opacity:0.004" fill="#000000" d="M 26.5,449.5 C 27.7125,450.497 27.5458,451.497 26,452.5C 25.5304,451.423 25.6971,450.423 26.5,449.5 Z"/></g>
<g><path style="opacity:0.004" fill="#0b0700" d="M 722.5,455.5 C 722.747,453.025 723.413,453.025 724.5,455.5C 724.03,456.463 723.363,456.463 722.5,455.5 Z"/></g>
<g><path style="opacity:0.004" fill="#000000" d="M 19.5,462.5 C 20.0431,462.56 20.3764,462.893 20.5,463.5C 18.6667,467.167 16.8333,470.833 15,474.5C 15.6123,470.256 17.1123,466.256 19.5,462.5 Z"/></g>
<g><path style="opacity:0.016" fill="#1c0000" d="M 732.5,472.5 C 732.167,472.5 731.833,472.5 731.5,472.5C 731.833,469.833 732.167,469.833 732.5,472.5 Z"/></g>
<g><path style="opacity:0.016" fill="#1c0000" d="M 732.5,472.5 C 733.338,472.842 733.672,473.508 733.5,474.5C 732.662,474.158 732.328,473.492 732.5,472.5 Z"/></g>
<g><path style="opacity:0.016" fill="#1c0000" d="M 733.5,474.5 C 734.338,474.842 734.672,475.508 734.5,476.5C 733.662,476.158 733.328,475.492 733.5,474.5 Z"/></g>
<g><path style="opacity:0.004" fill="#000000" d="M 13.5,479.5 C 12.6618,479.842 12.3284,480.508 12.5,481.5C 10.8684,484.209 10.3684,483.875 11,480.5C 11.6667,479.167 12.3333,477.833 13,476.5C 13.4828,477.448 13.6495,478.448 13.5,479.5 Z"/></g>
<g><path style="opacity:0.016" fill="#1c0000" d="M 734.5,476.5 C 735.338,476.842 735.672,477.508 735.5,478.5C 734.662,478.158 734.328,477.492 734.5,476.5 Z"/></g>
<g><path style="opacity:0.016" fill="#1c0000" d="M 735.5,478.5 C 736.338,478.842 736.672,479.508 736.5,480.5C 735.662,480.158 735.328,479.492 735.5,478.5 Z"/></g>
<g><path style="opacity:0.004" fill="#0f0000" d="M 736.5,480.5 C 737.931,481.78 738.598,483.447 738.5,485.5C 737.069,484.22 736.402,482.553 736.5,480.5 Z"/></g>
<g><path style="opacity:0.004" fill="#000000" d="M 10.5,486.5 C 7.99908,486.489 7.83242,485.822 10,484.5C 10.4643,485.094 10.631,485.761 10.5,486.5 Z"/></g>
<g><path style="opacity:0.016" fill="#180000" d="M 738.5,485.5 C 739.404,486.209 739.737,487.209 739.5,488.5C 738.596,487.791 738.263,486.791 738.5,485.5 Z"/></g>
<g><path style="opacity:0.004" fill="#000000" d="M 8.5,487.5 C 9.52502,487.897 9.69169,488.563 9,489.5C 8.53566,488.906 8.36899,488.239 8.5,487.5 Z"/></g>
<g><path style="opacity:0.016" fill="#1c0000" d="M 739.5,488.5 C 740.404,489.209 740.737,490.209 740.5,491.5C 739.596,490.791 739.263,489.791 739.5,488.5 Z"/></g>
<g><path style="opacity:0.004" fill="#000000" d="M 8.5,493.5 C 7.42654,492.749 7.25988,491.749 8,490.5C 8.48278,491.448 8.64945,492.448 8.5,493.5 Z"/></g>
<g><path style="opacity:0.016" fill="#190000" d="M 740.5,491.5 C 741.434,492.568 741.768,493.901 741.5,495.5C 740.566,494.432 740.232,493.099 740.5,491.5 Z"/></g>
<g><path style="opacity:0.004" fill="#110000" d="M 741.5,495.5 C 742.924,497.515 743.59,499.848 743.5,502.5C 742.076,500.485 741.41,498.152 741.5,495.5 Z"/></g>
<g><path style="opacity:0.004" fill="#000000" d="M 5.5,504.5 C 5.16667,504.5 4.83333,504.5 4.5,504.5C 4.83333,500.5 5.16667,500.5 5.5,504.5 Z"/></g>
<g><path style="opacity:0.004" fill="#0a0000" d="M 4.5,504.5 C 4.64945,505.552 4.48278,506.552 4,507.5C 3.25988,506.251 3.42654,505.251 4.5,504.5 Z"/></g>
<g><path style="opacity:0.004" fill="#110000" d="M 743.5,502.5 C 744.924,504.515 745.59,506.848 745.5,509.5C 744.076,507.485 743.41,505.152 743.5,502.5 Z"/></g>
<g><path style="opacity:0.016" fill="#180000" d="M 2.5,514.5 C 1.42654,513.749 1.25988,512.749 2,511.5C 2.48278,512.448 2.64945,513.448 2.5,514.5 Z"/></g>
<g><path style="opacity:0.004" fill="#0f0000" d="M 745.5,509.5 C 746.924,511.515 747.59,513.848 747.5,516.5C 746.076,514.485 745.41,512.152 745.5,509.5 Z"/></g>
<g><path style="opacity:0.016" fill="#180000" d="M 747.5,516.5 C 748.404,517.209 748.737,518.209 748.5,519.5C 747.596,518.791 747.263,517.791 747.5,516.5 Z"/></g>
<g><path style="opacity:0.016" fill="#180000" d="M -0.5,518.5 C 0.403972,519.209 0.737305,520.209 0.5,521.5C 0.166667,521.5 -0.166667,521.5 -0.5,521.5C -0.5,520.5 -0.5,519.5 -0.5,518.5 Z"/></g>
<g><path style="opacity:0.016" fill="#140000" d="M 748.5,519.5 C 748.833,519.5 749.167,519.5 749.5,519.5C 749.5,520.833 749.5,522.167 749.5,523.5C 748.566,522.432 748.232,521.099 748.5,519.5 Z"/></g>
</svg>
