<?xml version="1.0" encoding="UTF-8"?>
<!DOCTYPE svg PUBLIC "-//W3C//DTD SVG 1.1//EN" "http://www.w3.org/Graphics/SVG/1.1/DTD/svg11.dtd">
<svg xmlns="http://www.w3.org/2000/svg" version="1.1" width="750px" height="546px" style="shape-rendering:geometricPrecision; text-rendering:geometricPrecision; image-rendering:optimizeQuality; fill-rule:evenodd; clip-rule:evenodd" xmlns:xlink="http://www.w3.org/1999/xlink">
<g><path style="opacity:0.016" fill="#140000" d="M 353.5,-0.5 C 355.167,-0.5 356.833,-0.5 358.5,-0.5C 356.095,0.768202 353.428,1.43487 350.5,1.5C 351.5,0.833333 352.5,0.166667 353.5,-0.5 Z"/></g>
<g><path style="opacity:0.969" fill="#1b0c02" d="M 365.5,-0.5 C 375.167,-0.5 384.833,-0.5 394.5,-0.5C 405.93,2.03615 416.93,6.03615 427.5,11.5C 427.973,12.9063 428.973,13.573 430.5,13.5C 430.973,14.9063 431.973,15.573 433.5,15.5C 433.973,16.9063 434.973,17.573 436.5,17.5C 436.5,18.1667 436.833,18.5 437.5,18.5C 438.262,20.2624 439.596,21.2624 441.5,21.5C 441.5,22.1667 441.833,22.5 442.5,22.5C 442.5,23.1667 442.833,23.5 443.5,23.5C 443.5,24.1667 443.833,24.5 444.5,24.5C 446.5,27.1667 448.833,29.5 451.5,31.5C 451.5,32.1667 451.833,32.5 452.5,32.5C 452.5,33.1667 452.833,33.5 453.5,33.5C 453.5,34.1667 453.833,34.5 454.5,34.5C 455.026,36.2303 456.026,37.5637 457.5,38.5C 457.5,39.1667 457.833,39.5 458.5,39.5C 458.5,40.1667 458.833,40.5 459.5,40.5C 459.427,42.0269 460.094,43.0269 461.5,43.5C 461.427,45.0269 462.094,46.0269 463.5,46.5C 463.427,48.0269 464.094,49.0269 465.5,49.5C 465.427,51.0269 466.094,52.0269 467.5,52.5C 467.328,53.4916 467.662,54.1583 468.5,54.5C 469.93,58.3544 471.597,62.0211 473.5,65.5C 473.41,68.1522 474.076,70.4855 475.5,72.5C 475.232,74.099 475.566,75.4324 476.5,76.5C 476.882,81.7442 477.882,86.7442 479.5,91.5C 481.054,106.454 481.721,121.454 481.5,136.5C 487.871,136.032 491.371,139.032 492,145.5C 492.688,162.116 492.521,178.783 491.5,195.5C 490.539,197.265 490.205,199.265 490.5,201.5C 489.566,202.568 489.232,203.901 489.5,205.5C 488.596,206.209 488.263,207.209 488.5,208.5C 487.662,208.842 487.328,209.508 487.5,210.5C 486.038,211.458 484.705,212.624 483.5,214C 482.207,214.49 480.873,214.657 479.5,214.5C 479.5,217.833 479.5,221.167 479.5,224.5C 478.662,224.842 478.328,225.508 478.5,226.5C 477.383,230.295 476.717,234.295 476.5,238.5C 475.087,241.219 474.42,244.219 474.5,247.5C 473.662,247.842 473.328,248.508 473.5,249.5C 470.982,256.213 468.149,262.88 465,269.5C 464.333,278.833 464.333,288.167 465,297.5C 466.33,298.582 467.83,299.249 469.5,299.5C 473.833,302.669 478.5,305.336 483.5,307.5C 486.494,310 489.827,312 493.5,313.5C 498.892,317.553 504.559,321.22 510.5,324.5C 510.5,325.167 510.833,325.5 511.5,325.5C 512.436,326.974 513.77,327.974 515.5,328.5C 515.5,329.167 515.833,329.5 516.5,329.5C 519.7,333.366 523.7,336.033 528.5,337.5C 528.842,338.338 529.508,338.672 530.5,338.5C 533.088,340.592 536.088,341.925 539.5,342.5C 539.842,343.338 540.508,343.672 541.5,343.5C 541.842,344.338 542.508,344.672 543.5,344.5C 545.509,346.065 547.843,347.065 550.5,347.5C 550.842,348.338 551.508,348.672 552.5,348.5C 552.842,349.338 553.508,349.672 554.5,349.5C 556.509,351.065 558.843,352.065 561.5,352.5C 561.842,353.338 562.508,353.672 563.5,353.5C 563.842,354.338 564.508,354.672 565.5,354.5C 567.509,356.065 569.843,357.065 572.5,357.5C 572.842,358.338 573.508,358.672 574.5,358.5C 574.842,359.338 575.508,359.672 576.5,359.5C 579.256,361.204 582.256,362.537 585.5,363.5C 585.842,364.338 586.508,364.672 587.5,364.5C 590.256,366.204 593.256,367.537 596.5,368.5C 596.842,369.338 597.508,369.672 598.5,369.5C 603.311,372.07 608.311,374.403 613.5,376.5C 613.842,377.338 614.508,377.672 615.5,377.5C 615.842,378.338 616.508,378.672 617.5,378.5C 617.842,379.338 618.508,379.672 619.5,379.5C 619.842,380.338 620.508,380.672 621.5,380.5C 621.842,381.338 622.508,381.672 623.5,381.5C 625.849,383.341 628.515,384.674 631.5,385.5C 631.842,386.338 632.508,386.672 633.5,386.5C 633.842,387.338 634.508,387.672 635.5,387.5C 635.842,388.338 636.508,388.672 637.5,388.5C 639.849,390.341 642.515,391.674 645.5,392.5C 645.5,393.167 645.833,393.5 646.5,393.5C 649.477,395.467 652.477,397.467 655.5,399.5C 655.5,400.167 655.833,400.5 656.5,400.5C 658.808,402.471 661.142,404.471 663.5,406.5C 663.5,407.167 663.833,407.5 664.5,407.5C 668.474,411.138 672.474,414.805 676.5,418.5C 676.5,419.167 676.833,419.5 677.5,419.5C 677.5,420.167 677.833,420.5 678.5,420.5C 678.5,421.167 678.833,421.5 679.5,421.5C 679.5,422.167 679.833,422.5 680.5,422.5C 680.5,423.167 680.833,423.5 681.5,423.5C 681.5,424.167 681.833,424.5 682.5,424.5C 682.5,425.167 682.833,425.5 683.5,425.5C 683.5,426.167 683.833,426.5 684.5,426.5C 684.5,427.167 684.833,427.5 685.5,427.5C 685.5,428.167 685.833,428.5 686.5,428.5C 686.5,429.167 686.833,429.5 687.5,429.5C 687.5,430.167 687.833,430.5 688.5,430.5C 688.5,431.167 688.833,431.5 689.5,431.5C 689.5,432.167 689.833,432.5 690.5,432.5C 690.5,433.167 690.833,433.5 691.5,433.5C 691.5,434.167 691.833,434.5 692.5,434.5C 694.843,437.207 697.177,439.874 699.5,442.5C 699.5,443.167 699.833,443.5 700.5,443.5C 700.5,444.167 700.833,444.5 701.5,444.5C 701.427,446.027 702.094,447.027 703.5,447.5C 703.5,448.167 703.833,448.5 704.5,448.5C 705.11,450.434 706.11,452.101 707.5,453.5C 708.11,455.434 709.11,457.101 710.5,458.5C 711.11,460.434 712.11,462.101 713.5,463.5C 713.328,464.492 713.662,465.158 714.5,465.5C 715.11,467.434 716.11,469.101 717.5,470.5C 717.328,471.492 717.662,472.158 718.5,472.5C 719.917,475.669 721.583,478.669 723.5,481.5C 723.328,482.492 723.662,483.158 724.5,483.5C 728.175,490.877 731.842,498.211 735.5,505.5C 739.477,518.74 743.144,532.074 746.5,545.5C 744.5,545.5 742.5,545.5 740.5,545.5C 737.628,532.682 734.128,520.016 730,507.5C 721.936,491.706 713.603,476.04 705,460.5C 701.066,453.633 696.399,447.3 691,441.5C 677.772,427.603 663.939,414.436 649.5,402C 644.833,399.333 640.167,396.667 635.5,394C 598.74,376.286 561.74,359.12 524.5,342.5C 520.989,369.541 511.489,394.207 496,416.5C 476.207,443.96 452.707,467.793 425.5,488C 409.685,499.743 393.351,510.743 376.5,521C 374.5,521.667 372.5,521.667 370.5,521C 330.168,496.725 294.334,466.892 263,431.5C 247.458,412.759 235.792,391.759 228,368.5C 225.42,360.351 223.92,352.017 223.5,343.5C 183.82,359.679 144.82,377.512 106.5,397C 99.2157,401.95 92.2157,407.283 85.5,413C 75.6667,422.833 65.8333,432.667 56,442.5C 40.1378,464.205 26.8044,487.538 16,512.5C 12.8516,523.441 10.0182,534.441 7.5,545.5C 5.5,545.5 3.5,545.5 1.5,545.5C 1.5,544.167 1.5,542.833 1.5,541.5C 3.2766,538.495 4.2766,535.162 4.5,531.5C 5.92381,529.485 6.59047,527.152 6.5,524.5C 7.79084,522.051 8.79084,519.384 9.5,516.5C 8.83333,516.167 8.16667,515.833 7.5,515.5C 10.1554,513.556 11.4887,510.89 11.5,507.5C 12.3382,507.158 12.6716,506.492 12.5,505.5C 13.9313,504.22 14.5979,502.553 14.5,500.5C 16.1042,499.713 16.7709,498.38 16.5,496.5C 17.3382,496.158 17.6716,495.492 17.5,494.5C 18.3382,494.158 18.6716,493.492 18.5,492.5C 19.3382,492.158 19.6716,491.492 19.5,490.5C 23.2604,485.316 26.2604,479.65 28.5,473.5C 31.669,469.167 34.3357,464.5 36.5,459.5C 39.9957,455.181 42.9957,450.515 45.5,445.5C 46.1667,445.5 46.5,445.167 46.5,444.5C 48.5869,443.415 49.9202,441.749 50.5,439.5C 51.1667,439.5 51.5,439.167 51.5,438.5C 52.1667,438.5 52.5,438.167 52.5,437.5C 53.1667,437.5 53.5,437.167 53.5,436.5C 60.8333,429.833 67.8333,422.833 74.5,415.5C 75.1667,415.5 75.5,415.167 75.5,414.5C 76.1667,414.5 76.5,414.167 76.5,413.5C 77.1667,413.5 77.5,413.167 77.5,412.5C 78.1667,412.5 78.5,412.167 78.5,411.5C 81.2072,409.157 83.8739,406.823 86.5,404.5C 87.1667,404.5 87.5,404.167 87.5,403.5C 89.1911,402.136 90.8577,400.803 92.5,399.5C 93.1667,399.5 93.5,399.167 93.5,398.5C 94.7095,398.068 95.7095,397.401 96.5,396.5C 97.1667,396.5 97.5,396.167 97.5,395.5C 102,393.417 106.334,391.084 110.5,388.5C 111.492,388.672 112.158,388.338 112.5,387.5C 113.167,387.5 113.5,387.167 113.5,386.5C 119.357,384.07 125.023,381.403 130.5,378.5C 131.492,378.672 132.158,378.338 132.5,377.5C 133.492,377.672 134.158,377.338 134.5,376.5C 135.492,376.672 136.158,376.338 136.5,375.5C 137.492,375.672 138.158,375.338 138.5,374.5C 142.354,373.07 146.021,371.403 149.5,369.5C 150.492,369.672 151.158,369.338 151.5,368.5C 152.492,368.672 153.158,368.338 153.5,367.5C 156.744,366.537 159.744,365.204 162.5,363.5C 163.492,363.672 164.158,363.338 164.5,362.5C 167.744,361.537 170.744,360.204 173.5,358.5C 174.492,358.672 175.158,358.338 175.5,357.5C 178.912,356.925 181.912,355.592 184.5,353.5C 185.492,353.672 186.158,353.338 186.5,352.5C 187.492,352.672 188.158,352.338 188.5,351.5C 191.241,351.293 193.574,350.293 195.5,348.5C 196.492,348.672 197.158,348.338 197.5,347.5C 198.492,347.672 199.158,347.338 199.5,346.5C 202.241,346.293 204.574,345.293 206.5,343.5C 207.492,343.672 208.158,343.338 208.5,342.5C 209.492,342.672 210.158,342.338 210.5,341.5C 213.241,341.293 215.574,340.293 217.5,338.5C 218.492,338.672 219.158,338.338 219.5,337.5C 220.492,337.672 221.158,337.338 221.5,336.5C 224.643,336.031 226.977,334.364 228.5,331.5C 229.167,331.5 229.5,331.167 229.5,330.5C 231.027,330.573 232.027,329.906 232.5,328.5C 233.167,328.5 233.5,328.167 233.5,327.5C 235.027,327.573 236.027,326.906 236.5,325.5C 238.027,325.573 239.027,324.906 239.5,323.5C 241.027,323.573 242.027,322.906 242.5,321.5C 245.511,320.331 248.178,318.664 250.5,316.5C 252.027,316.573 253.027,315.906 253.5,314.5C 255.674,314.25 257.341,313.25 258.5,311.5C 260.674,311.25 262.341,310.25 263.5,308.5C 265.674,308.25 267.341,307.25 268.5,305.5C 271.331,304.921 273.664,303.588 275.5,301.5C 279.008,300.496 282.174,298.829 285,296.5C 285.667,283.833 285.667,271.167 285,258.5C 284.617,257.944 284.117,257.611 283.5,257.5C 283.768,255.901 283.434,254.568 282.5,253.5C 282.672,252.508 282.338,251.842 281.5,251.5C 281.672,250.508 281.338,249.842 280.5,249.5C 280.672,248.508 280.338,247.842 279.5,247.5C 278.734,242.661 277.734,237.994 276.5,233.5C 276.802,230.941 276.468,228.607 275.5,226.5C 275.826,222.116 275.492,217.783 274.5,213.5C 270.044,212.618 266.711,210.285 264.5,206.5C 264.672,205.508 264.338,204.842 263.5,204.5C 263.072,201.215 262.072,198.215 260.5,195.5C 260.737,194.209 260.404,193.209 259.5,192.5C 259.819,182.584 259.486,172.75 258.5,163C 259.492,158.251 260.158,153.418 260.5,148.5C 261.461,146.735 261.795,144.735 261.5,142.5C 262.674,141.486 263.34,140.153 263.5,138.5C 264.167,138.5 264.5,138.167 264.5,137.5C 268.093,134.624 272.093,133.791 276.5,135C 275.165,120.187 275.499,105.354 277.5,90.5C 278.451,89.0813 278.784,87.4147 278.5,85.5C 279.451,84.0813 279.784,82.4147 279.5,80.5C 280.434,79.4324 280.768,78.099 280.5,76.5C 281.434,75.4324 281.768,74.099 281.5,72.5C 282.404,71.791 282.737,70.791 282.5,69.5C 284.072,66.7846 285.072,63.7846 285.5,60.5C 287.736,56.3554 289.736,52.022 291.5,47.5C 292.167,47.5 292.5,47.1667 292.5,46.5C 293.338,46.1583 293.672,45.4916 293.5,44.5C 294.167,44.5 294.5,44.1667 294.5,43.5C 295.338,43.1583 295.672,42.4916 295.5,41.5C 296.167,41.5 296.5,41.1667 296.5,40.5C 297.401,39.7095 298.068,38.7095 298.5,37.5C 299.167,37.5 299.5,37.1667 299.5,36.5C 304.167,31.1667 309.167,26.1667 314.5,21.5C 315.167,21.5 315.5,21.1667 315.5,20.5C 317.027,20.573 318.027,19.9063 318.5,18.5C 319.167,18.5 319.5,18.1667 319.5,17.5C 323.173,15.9998 326.506,13.9998 329.5,11.5C 341.117,6.07193 353.117,2.07193 365.5,-0.5 Z"/></g>
<g><path style="opacity:0.016" fill="#150000" d="M 401.5,-0.5 C 402.833,-0.5 404.167,-0.5 405.5,-0.5C 405.5,-0.166667 405.5,0.166667 405.5,0.5C 403.901,0.767809 402.568,0.434475 401.5,-0.5 Z"/></g>
<g><path style="opacity:0.016" fill="#190000" d="M 405.5,0.5 C 406.791,0.262695 407.791,0.596028 408.5,1.5C 407.209,1.73731 406.209,1.40397 405.5,0.5 Z"/></g>
<g><path style="opacity:0.016" fill="#190000" d="M 347.5,2.5 C 348.209,1.59603 349.209,1.26269 350.5,1.5C 349.791,2.40397 348.791,2.73731 347.5,2.5 Z"/></g>
<g><path style="opacity:0.016" fill="#120000" d="M 408.5,1.5 C 409.791,1.26269 410.791,1.59603 411.5,2.5C 410.209,2.73731 409.209,2.40397 408.5,1.5 Z"/></g>
<g><path style="opacity:0.016" fill="#190000" d="M 344.5,3.5 C 345.209,2.59603 346.209,2.26269 347.5,2.5C 346.791,3.40397 345.791,3.73731 344.5,3.5 Z"/></g>
<g><path style="opacity:0.016" fill="#190000" d="M 411.5,2.5 C 412.791,2.26269 413.791,2.59603 414.5,3.5C 413.209,3.73731 412.209,3.40397 411.5,2.5 Z"/></g>
<g><path style="opacity:0.016" fill="#190000" d="M 341.5,4.5 C 342.209,3.59603 343.209,3.26269 344.5,3.5C 343.791,4.40397 342.791,4.73731 341.5,4.5 Z"/></g>
<g><path style="opacity:0.004" fill="#0d0000" d="M 414.5,3.5 C 415.492,3.32842 416.158,3.66175 416.5,4.5C 415.508,4.67158 414.842,4.33825 414.5,3.5 Z"/></g>
<g><path style="opacity:0.016" fill="#1d0000" d="M 339.5,5.5 C 339.842,4.66175 340.508,4.32842 341.5,4.5C 341.158,5.33825 340.492,5.67158 339.5,5.5 Z"/></g>
<g><path style="opacity:0.016" fill="#1d0000" d="M 416.5,4.5 C 417.492,4.32842 418.158,4.66175 418.5,5.5C 417.508,5.67158 416.842,5.33825 416.5,4.5 Z"/></g>
<g><path style="opacity:0.016" fill="#1d0000" d="M 418.5,5.5 C 419.492,5.32842 420.158,5.66175 420.5,6.5C 419.508,6.67158 418.842,6.33825 418.5,5.5 Z"/></g>
<g><path style="opacity:0.016" fill="#150000" d="M 339.5,5.5 C 338.22,6.93127 336.553,7.59794 334.5,7.5C 335.78,6.06873 337.447,5.40206 339.5,5.5 Z"/></g>
<g><path style="opacity:0.016" fill="#1d0000" d="M 420.5,6.5 C 421.492,6.32842 422.158,6.66175 422.5,7.5C 421.508,7.67158 420.842,7.33825 420.5,6.5 Z"/></g>
<g><path style="opacity:0.016" fill="#170000" d="M 332.5,8.5 C 332.842,7.66175 333.508,7.32842 334.5,7.5C 334.158,8.33825 333.492,8.67158 332.5,8.5 Z"/></g>
<g><path style="opacity:0.016" fill="#1d0000" d="M 422.5,7.5 C 423.492,7.32842 424.158,7.66175 424.5,8.5C 423.508,8.67158 422.842,8.33825 422.5,7.5 Z"/></g>
<g><path style="opacity:0.016" fill="#170000" d="M 330.5,9.5 C 330.842,8.66175 331.508,8.32842 332.5,8.5C 332.158,9.33825 331.492,9.67158 330.5,9.5 Z"/></g>
<g><path style="opacity:0.004" fill="#0d0000" d="M 424.5,8.5 C 425.492,8.32842 426.158,8.66175 426.5,9.5C 425.508,9.67158 424.842,9.33825 424.5,8.5 Z"/></g>
<g><path style="opacity:0.004" fill="#100000" d="M 330.5,9.5 C 330.167,10.1667 329.833,10.8333 329.5,11.5C 327.207,10.6987 327.54,10.032 330.5,9.5 Z"/></g>
<g><path style="opacity:0.016" fill="#190000" d="M 426.5,9.5 C 428.027,9.42702 429.027,10.0937 429.5,11.5C 428.833,11.5 428.167,11.5 427.5,11.5C 427.167,10.8333 426.833,10.1667 426.5,9.5 Z"/></g>
<g><path style="opacity:0.004" fill="#100000" d="M 429.5,11.5 C 431.027,11.427 432.027,12.0937 432.5,13.5C 431.833,13.5 431.167,13.5 430.5,13.5C 430.167,12.8333 429.833,12.1667 429.5,11.5 Z"/></g>
<g><path style="opacity:0.004" fill="#100000" d="M 432.5,13.5 C 435.46,14.032 435.793,14.6987 433.5,15.5C 433.167,14.8333 432.833,14.1667 432.5,13.5 Z"/></g>
<g><path style="opacity:0.004" fill="#100000" d="M 319.5,17.5 C 318.833,17.5 318.5,17.8333 318.5,18.5C 316.025,18.2533 316.025,17.5866 318.5,16.5C 319.107,16.6236 319.44,16.9569 319.5,17.5 Z"/></g>
<g><path style="opacity:0.004" fill="#100000" d="M 436.5,17.5 C 437.497,16.2875 438.497,16.4542 439.5,18C 438.906,18.4643 438.239,18.631 437.5,18.5C 436.833,18.5 436.5,18.1667 436.5,17.5 Z"/></g>
<g><path style="opacity:0.016" fill="#1b0000" d="M 315.5,20.5 C 314.833,20.5 314.5,20.8333 314.5,21.5C 312.025,21.2533 312.025,20.5866 314.5,19.5C 315.107,19.6236 315.44,19.9569 315.5,20.5 Z"/></g>
<g><path style="opacity:0.016" fill="#170000" d="M 441.5,21.5 C 441.897,20.475 442.563,20.3083 443.5,21C 444.5,22 445.5,23 446.5,24C 445.906,24.4643 445.239,24.631 444.5,24.5C 443.833,24.5 443.5,24.1667 443.5,23.5C 442.833,23.5 442.5,23.1667 442.5,22.5C 441.833,22.5 441.5,22.1667 441.5,21.5 Z"/></g>
<g><path style="opacity:0.004" fill="#110000" d="M 454.5,34.5 C 453.833,34.5 453.5,34.1667 453.5,33.5C 452.833,33.5 452.5,33.1667 452.5,32.5C 451.833,32.5 451.5,32.1667 451.5,31.5C 451.369,30.7611 451.536,30.0944 452,29.5C 453,30.5 454,31.5 455,32.5C 455.692,33.4368 455.525,34.1034 454.5,34.5 Z"/></g>
<g><path style="opacity:1" fill="#83462a" d="M 399.5,33.5 C 384.816,33.3153 370.149,33.6487 355.5,34.5C 370.106,31.0177 384.772,30.6844 399.5,33.5 Z"/></g>
<g><path style="opacity:1" fill="#a55d39" d="M 399.5,33.5 C 404.12,33.7402 408.453,34.7402 412.5,36.5C 414.89,38.7339 416.724,41.4006 418,44.5C 425.94,64.2414 428.107,84.5747 424.5,105.5C 420.454,107.523 416.454,109.523 412.5,111.5C 411.839,112.718 411.172,114.051 410.5,115.5C 403.351,119.977 398.018,125.977 394.5,133.5C 393.21,134.058 392.377,135.058 392,136.5C 391.333,139.167 391.333,141.833 392,144.5C 394.778,150.412 398.278,155.745 402.5,160.5C 403.484,165.658 404.317,165.658 405,160.5C 418.108,168.316 432.274,171.149 447.5,169C 453.283,167.095 458.616,164.762 463.5,162C 466.679,170.995 467.179,180.162 465,189.5C 462.841,195.651 458.675,199.651 452.5,201.5C 450.105,199.578 447.438,198.411 444.5,198C 446.763,199.617 448.763,201.45 450.5,203.5C 449.917,210.821 449.417,218.154 449,225.5C 448.64,227.608 447.973,229.608 447,231.5C 446.501,227.848 446.335,224.182 446.5,220.5C 446.786,215.468 445.452,210.968 442.5,207C 432.553,205.114 422.553,203.448 412.5,202C 409.97,201.621 407.637,200.787 405.5,199.5C 403.974,197.87 401.974,197.037 399.5,197C 405.511,195.906 411.178,194.406 416.5,192.5C 418.173,191.657 419.34,190.324 420,188.5C 422.247,179.315 418.747,173.982 409.5,172.5C 408.594,171.035 407.261,170.035 405.5,169.5C 405.738,181.257 400.071,187.59 388.5,188.5C 383.374,187.738 378.707,185.904 374.5,183C 365.687,184.594 359.353,181.427 355.5,173.5C 354.478,173.855 353.811,174.522 353.5,175.5C 346.911,177.333 344.411,181.667 346,188.5C 346.997,190.323 348.164,191.99 349.5,193.5C 349.804,194.15 350.137,194.817 350.5,195.5C 352.833,196.167 355.167,196.833 357.5,197.5C 356.757,198.182 356.091,198.849 355.5,199.5C 343.548,200.894 332.048,203.894 321,208.5C 318.999,213.441 318.165,218.607 318.5,224C 318.738,232.211 319.405,240.378 320.5,248.5C 318.217,248.392 316.217,247.559 314.5,246C 313.711,243.635 312.544,241.468 311,239.5C 310.667,240.167 310.333,240.833 310,241.5C 309.338,239.187 308.838,236.854 308.5,234.5C 307.167,234.5 305.833,234.5 304.5,234.5C 304.439,231.27 302.772,229.437 299.5,229C 298.468,226.126 296.468,224.626 293.5,224.5C 293.657,223.127 293.49,221.793 293,220.5C 291.488,219.743 290.154,218.743 289,217.5C 286.865,211.234 284.199,205.234 281,199.5C 280.333,191.833 280.333,184.167 281,176.5C 282.695,163.719 285.028,151.052 288,138.5C 287.058,122.793 290.392,108.126 298,94.5C 299.666,79.8259 304.666,66.4926 313,54.5C 325.163,43.6694 339.33,37.0027 355.5,34.5C 370.149,33.6487 384.816,33.3153 399.5,33.5 Z"/></g>
<g><path style="opacity:0.043" fill="#150600" d="M 299.5,36.5 C 298.833,36.5 298.5,36.8333 298.5,37.5C 297.287,36.5029 297.454,35.5029 299,34.5C 299.464,35.0944 299.631,35.7611 299.5,36.5 Z"/></g>
<g><path style="opacity:0.004" fill="#0c0000" d="M 459.5,40.5 C 458.833,40.5 458.5,40.1667 458.5,39.5C 457.833,39.5 457.5,39.1667 457.5,38.5C 458.286,36.4076 459.286,36.7409 460.5,39.5C 460.376,40.1067 460.043,40.44 459.5,40.5 Z"/></g>
<g><path style="opacity:1" fill="#8f4b2e" d="M 412.5,36.5 C 425.867,39.005 437.367,45.005 447,54.5C 454.473,65.787 459.473,78.1204 462,91.5C 470.854,108.379 474.187,126.379 472,145.5C 475.386,165.392 476.219,185.392 474.5,205.5C 470.802,213.475 466.802,221.141 462.5,228.5C 458.808,228.695 456.974,230.695 457,234.5C 452.585,236.321 450.418,239.654 450.5,244.5C 447.365,244.548 445.698,246.215 445.5,249.5C 444.054,248.829 443.388,247.662 443.5,246C 444.226,237.324 445.226,228.824 446.5,220.5C 446.335,224.182 446.501,227.848 447,231.5C 447.973,229.608 448.64,227.608 449,225.5C 449.417,218.154 449.917,210.821 450.5,203.5C 453.051,205.578 454.884,208.244 456,211.5C 456.667,210.167 456.667,208.833 456,207.5C 454.606,205.612 453.44,203.612 452.5,201.5C 458.675,199.651 462.841,195.651 465,189.5C 467.179,180.162 466.679,170.995 463.5,162C 458.616,164.762 453.283,167.095 447.5,169C 432.274,171.149 418.108,168.316 405,160.5C 404.317,165.658 403.484,165.658 402.5,160.5C 400.774,153.712 397.941,147.378 394,141.5C 393.398,138.779 393.565,136.113 394.5,133.5C 398.018,125.977 403.351,119.977 410.5,115.5C 411.172,114.051 411.839,112.718 412.5,111.5C 412.253,114.505 413.253,117.005 415.5,119C 422.725,119.073 429.725,117.739 436.5,115C 446.496,114.745 454.996,118.245 462,125.5C 462.841,121.88 462.174,118.546 460,115.5C 454.816,107.487 447.316,103.487 437.5,103.5C 433.097,103.845 428.764,104.512 424.5,105.5C 428.107,84.5747 425.94,64.2414 418,44.5C 416.724,41.4006 414.89,38.7339 412.5,36.5 Z"/></g>
<g><path style="opacity:0.043" fill="#150600" d="M 296.5,40.5 C 295.833,40.5 295.5,40.8333 295.5,41.5C 295.167,41.5 294.833,41.5 294.5,41.5C 295.032,38.5404 295.699,38.2071 296.5,40.5 Z"/></g>
<g><path style="opacity:0.004" fill="#000000" d="M 463.5,44.5 C 462.833,44.1667 462.167,43.8333 461.5,43.5C 462.301,41.2071 462.968,41.5404 463.5,44.5 Z"/></g>
<g><path style="opacity:0.043" fill="#140900" d="M 294.5,41.5 C 294.5,42.1667 294.5,42.8333 294.5,43.5C 293.833,43.5 293.5,43.8333 293.5,44.5C 293.167,44.5 292.833,44.5 292.5,44.5C 292.427,42.9731 293.094,41.9731 294.5,41.5 Z"/></g>
<g><path style="opacity:0.004" fill="#000000" d="M 463.5,44.5 C 464.906,44.9731 465.573,45.9731 465.5,47.5C 464.833,47.1667 464.167,46.8333 463.5,46.5C 463.5,45.8333 463.5,45.1667 463.5,44.5 Z"/></g>
<g><path style="opacity:0.043" fill="#140900" d="M 292.5,44.5 C 292.5,45.1667 292.5,45.8333 292.5,46.5C 291.833,46.5 291.5,46.8333 291.5,47.5C 290.285,46.221 290.618,45.221 292.5,44.5 Z"/></g>
<g><path style="opacity:0.004" fill="#000000" d="M 465.5,47.5 C 466.906,47.9731 467.573,48.9731 467.5,50.5C 466.833,50.1667 466.167,49.8333 465.5,49.5C 465.5,48.8333 465.5,48.1667 465.5,47.5 Z"/></g>
<g><path style="opacity:0.004" fill="#000000" d="M 467.5,50.5 C 468.965,51.4057 469.965,52.739 470.5,54.5C 470.03,55.463 469.363,55.463 468.5,54.5C 468.672,53.5084 468.338,52.8417 467.5,52.5C 467.5,51.8333 467.5,51.1667 467.5,50.5 Z"/></g>
<g><path style="opacity:0.031" fill="#150c00" d="M 285.5,60.5 C 284.778,60.9175 284.278,61.5842 284,62.5C 283.48,60.7111 283.813,59.0444 285,57.5C 285.483,58.448 285.649,59.448 285.5,60.5 Z"/></g>
<g><path style="opacity:0.004" fill="#000000" d="M 473.5,65.5 C 473.343,64.1266 473.51,62.7932 474,61.5C 474.642,63.7619 475.475,65.9285 476.5,68C 476.167,68.1667 475.833,68.3333 475.5,68.5C 474.824,67.3984 474.158,66.3984 473.5,65.5 Z"/></g>
<g><path style="opacity:0.004" fill="#0f0900" d="M 282.5,69.5 C 281.596,70.209 281.263,71.209 281.5,72.5C 281.167,72.5 280.833,72.5 280.5,72.5C 280.523,70.0733 281.023,67.74 282,65.5C 282.49,66.7932 282.657,68.1266 282.5,69.5 Z"/></g>
<g><path style="opacity:0.004" fill="#000000" d="M 475.5,72.5 C 475.351,71.448 475.517,70.448 476,69.5C 476.74,70.7494 476.573,71.7494 475.5,72.5 Z"/></g>
<g><path style="opacity:0.004" fill="#000000" d="M 476.5,76.5 C 476.351,75.448 476.517,74.448 477,73.5C 477.74,74.7494 477.573,75.7494 476.5,76.5 Z"/></g>
<g><path style="opacity:0.016" fill="#180700" d="M 280.5,72.5 C 280.5,73.8333 280.5,75.1667 280.5,76.5C 279.566,77.5676 279.232,78.901 279.5,80.5C 279.167,80.5 278.833,80.5 278.5,80.5C 278.294,77.5049 278.96,74.8383 280.5,72.5 Z"/></g>
<g><path style="opacity:0.004" fill="#000000" d="M 477.5,77.5 C 478.573,78.2506 478.74,79.2506 478,80.5C 477.517,79.552 477.351,78.552 477.5,77.5 Z"/></g>
<g><path style="opacity:0.031" fill="#180d00" d="M 278.5,80.5 C 278.5,82.1667 278.5,83.8333 278.5,85.5C 277.549,86.9187 277.216,88.5853 277.5,90.5C 276.187,94.944 275.354,99.6107 275,104.5C 274.667,114.167 274.333,123.833 274,133.5C 273.333,123.5 273.333,113.5 274,103.5C 274.657,95.5356 276.157,87.8689 278.5,80.5 Z"/></g>
<g><path style="opacity:0.004" fill="#000000" d="M 478.5,81.5 C 479.598,82.6009 479.765,83.9343 479,85.5C 478.51,84.2068 478.343,82.8734 478.5,81.5 Z"/></g>
<g><path style="opacity:0.004" fill="#000000" d="M 479.5,91.5 C 479.34,89.8008 479.506,88.1341 480,86.5C 480.78,88.3869 480.613,90.0536 479.5,91.5 Z"/></g>
<g><path style="opacity:0.004" fill="#060000" d="M 480.5,92.5 C 481.622,94.2884 481.789,96.2884 481,98.5C 480.505,96.5273 480.338,94.5273 480.5,92.5 Z"/></g>
<g><path style="opacity:0.004" fill="#0a0000" d="M 481.5,99.5 C 482.638,102.304 482.805,105.304 482,108.5C 481.502,105.518 481.335,102.518 481.5,99.5 Z"/></g>
<g><path style="opacity:1" fill="#1c0c01" d="M 412.5,111.5 C 416.454,109.523 420.454,107.523 424.5,105.5C 428.764,104.512 433.097,103.845 437.5,103.5C 447.316,103.487 454.816,107.487 460,115.5C 462.174,118.546 462.841,121.88 462,125.5C 454.996,118.245 446.496,114.745 436.5,115C 429.725,117.739 422.725,119.073 415.5,119C 413.253,117.005 412.253,114.505 412.5,111.5 Z"/></g>
<g><path style="opacity:1" fill="#1a0b01" d="M 357.5,118.5 C 352.798,120.523 347.798,121.023 342.5,120C 333.895,115.041 325.562,115.375 317.5,121C 314.352,124.071 311.019,126.904 307.5,129.5C 307.254,127.78 307.254,125.78 307.5,123.5C 309.608,118.821 312.608,114.655 316.5,111C 322.488,108.795 328.655,107.295 335,106.5C 342.051,107.517 348.885,109.35 355.5,112C 356.669,114.007 357.335,116.173 357.5,118.5 Z"/></g>
<g><path style="opacity:0.016" fill="#180000" d="M 485.5,134.5 C 484.5,134.5 483.5,134.5 482.5,134.5C 482.334,126.493 482.5,118.493 483,110.5C 482.911,118.764 483.745,126.764 485.5,134.5 Z"/></g>
<g><path style="opacity:1" fill="#8c492d" d="M 357.5,118.5 C 355.772,126.264 356.939,133.598 361,140.5C 362.549,147.234 360.049,151.734 353.5,154C 342.902,158.27 331.902,159.603 320.5,158C 312.858,157.019 305.191,156.186 297.5,155.5C 300.15,152.349 302.984,149.349 306,146.5C 305.403,142.404 304.569,138.237 303.5,134C 303.61,129.961 304.943,126.461 307.5,123.5C 307.254,125.78 307.254,127.78 307.5,129.5C 311.019,126.904 314.352,124.071 317.5,121C 325.562,115.375 333.895,115.041 342.5,120C 347.798,121.023 352.798,120.523 357.5,118.5 Z"/></g>
<g><path style="opacity:0.004" fill="#000000" d="M 267.5,133.5 C 268.946,132.387 270.613,132.22 272.5,133C 270.866,133.494 269.199,133.66 267.5,133.5 Z"/></g>
<g><path style="opacity:0.004" fill="#000000" d="M 265.5,134.5 C 265.842,133.662 266.508,133.328 267.5,133.5C 267.158,134.338 266.492,134.672 265.5,134.5 Z"/></g>
<g><path style="opacity:1" fill="#160901" d="M 326.5,132.5 C 331.566,132.34 336.566,132.84 341.5,134C 344.29,134.561 346.623,135.894 348.5,138C 343.461,136.097 338.127,135.263 332.5,135.5C 326.35,134.822 320.683,136.155 315.5,139.5C 314.304,139.154 314.304,138.654 315.5,138C 319.259,136.121 322.925,134.287 326.5,132.5 Z"/></g>
<g><path style="opacity:1" fill="#140700" d="M 428.5,132.5 C 434.732,131.939 440.732,132.772 446.5,135C 436.732,133.317 427.399,134.65 418.5,139C 415.249,142.171 414.915,141.837 417.5,138C 420.99,135.588 424.657,133.755 428.5,132.5 Z"/></g>
<g><path style="opacity:0.004" fill="#000000" d="M 265.5,134.5 C 264.833,135.167 264.833,135.167 265.5,134.5 Z"/></g>
<g><path style="opacity:0.004" fill="#000000" d="M 485.5,134.5 C 486.492,134.328 487.158,134.662 487.5,135.5C 486.508,135.672 485.842,135.338 485.5,134.5 Z"/></g>
<g><path style="opacity:0.004" fill="#000000" d="M 487.5,135.5 C 488.833,136.167 488.833,136.167 487.5,135.5 Z"/></g>
<g><path style="opacity:0.043" fill="#0e0500" d="M 264.5,135.5 C 264.5,136.167 264.5,136.833 264.5,137.5C 263.833,137.5 263.5,137.833 263.5,138.5C 262.833,138.833 262.167,139.167 261.5,139.5C 261.738,137.596 262.738,136.262 264.5,135.5 Z"/></g>
<g><path style="opacity:1" fill="#1c110b" d="M 442.5,151.5 C 435.465,151.674 428.465,151.341 421.5,150.5C 418.003,149.598 414.337,148.931 410.5,148.5C 410.5,147.5 410.5,146.5 410.5,145.5C 412.199,145.66 413.866,145.494 415.5,145C 426.284,137.04 437.617,136.374 449.5,143C 450.728,143.779 451.728,144.779 452.5,146C 449.618,148.609 446.284,150.442 442.5,151.5 Z"/></g>
<g><path style="opacity:1" fill="#9e5836" d="M 269.5,140.5 C 281.744,141.474 284.91,147.474 279,158.5C 276.888,152.217 273.055,147.217 267.5,143.5C 268.193,142.482 268.859,141.482 269.5,140.5 Z"/></g>
<g><path style="opacity:1" fill="#9b9997" d="M 430.5,146.5 C 430.096,145.244 429.429,144.077 428.5,143C 428.833,142.5 429.167,142 429.5,141.5C 430.974,142.436 431.974,143.77 432.5,145.5C 432.043,146.298 431.376,146.631 430.5,146.5 Z"/></g>
<g><path style="opacity:1" fill="#44200e" d="M 430.5,146.5 C 433.828,147.851 435.161,146.517 434.5,142.5C 435.5,142.5 436.5,142.5 437.5,142.5C 437.111,148.733 434.111,150.566 428.5,148C 427.433,145.573 428.1,145.073 430.5,146.5 Z"/></g>
<g><path style="opacity:1" fill="#d0cfcf" d="M 439.5,141.5 C 444.262,142.092 445.596,144.592 443.5,149C 441.741,149.798 440.074,149.631 438.5,148.5C 439.374,146.253 439.708,143.92 439.5,141.5 Z"/></g>
<g><path style="opacity:1" fill="#170901" d="M 394.5,133.5 C 393.565,136.113 393.398,138.779 394,141.5C 397.941,147.378 400.774,153.712 402.5,160.5C 398.278,155.745 394.778,150.412 392,144.5C 391.333,141.833 391.333,139.167 392,136.5C 392.377,135.058 393.21,134.058 394.5,133.5 Z"/></g>
<g><path style="opacity:1" fill="#bdbcbb" d="M 422.5,142.5 C 424.216,143.574 425.216,145.241 425.5,147.5C 422.825,148.996 420.825,148.329 419.5,145.5C 420.34,144.265 421.34,143.265 422.5,142.5 Z"/></g>
<g><path style="opacity:1" fill="#9b5635" d="M 481.5,141.5 C 483.948,141.085 485.281,142.085 485.5,144.5C 482.839,148.005 480.339,151.672 478,155.5C 477.333,152.833 477.333,150.167 478,147.5C 479.421,145.595 480.588,143.595 481.5,141.5 Z"/></g>
<g><path style="opacity:1" fill="#88482b" d="M 275.5,184.5 C 275.66,182.801 275.494,181.134 275,179.5C 272.022,172.874 269.022,166.207 266,159.5C 266.43,167.329 266.264,174.996 265.5,182.5C 265.473,175.82 265.14,169.154 264.5,162.5C 264.6,156.668 265.6,151.001 267.5,145.5C 277.314,157.08 279.98,170.08 275.5,184.5 Z"/></g>
<g><path style="opacity:1" fill="#1d120b" d="M 326.5,137.5 C 335.498,136.248 343.498,138.415 350.5,144C 353.043,144.14 355.377,144.806 357.5,146C 356.377,147.044 355.044,147.71 353.5,148C 346.602,149.612 339.602,150.779 332.5,151.5C 327.425,151.148 322.425,150.315 317.5,149C 315.003,148.588 313.003,147.422 311.5,145.5C 316.175,142.066 321.175,139.399 326.5,137.5 Z"/></g>
<g><path style="opacity:1" fill="#cac9c8" d="M 340.5,141.5 C 349.282,143.677 349.449,146.011 341,148.5C 340.5,148.167 340,147.833 339.5,147.5C 340.348,145.591 340.682,143.591 340.5,141.5 Z"/></g>
<g><path style="opacity:1" fill="#c5c4c3" d="M 321.5,141.5 C 322.833,141.5 324.167,141.5 325.5,141.5C 325.318,143.591 325.652,145.591 326.5,147.5C 321.327,148.652 319.66,146.652 321.5,141.5 Z"/></g>
<g><path style="opacity:1" fill="#e2e1e1" d="M 329.5,141.5 C 330.675,141.281 331.675,141.614 332.5,142.5C 330.948,143.798 329.948,143.465 329.5,141.5 Z"/></g>
<g><path style="opacity:0.016" fill="#160000" d="M 493.5,145.5 C 494.638,148.304 494.805,151.304 494,154.5C 493.502,151.518 493.335,148.518 493.5,145.5 Z"/></g>
<g><path style="opacity:1" fill="#5c2f1a" d="M 421.5,150.5 C 428.465,151.341 435.465,151.674 442.5,151.5C 437.684,152.326 432.684,152.826 427.5,153C 430.976,154.254 434.642,154.921 438.5,155C 433.498,156.772 428.498,156.438 423.5,154C 422.027,153.29 421.36,152.124 421.5,150.5 Z"/></g>
<g><path style="opacity:1" fill="#89482b" d="M 486.5,188.5 C 486.666,182.158 486.5,175.825 486,169.5C 484.628,173.814 482.795,177.814 480.5,181.5C 477.949,169.387 479.782,158.054 486,147.5C 487.533,161.315 487.7,174.982 486.5,188.5 Z"/></g>
<g><path style="opacity:1" fill="#0f0400" d="M 337.5,153.5 C 339.199,153.34 340.866,153.506 342.5,154C 339.232,155.213 335.899,155.546 332.5,155C 334.382,154.802 336.048,154.302 337.5,153.5 Z"/></g>
<g><path style="opacity:0.016" fill="#180800" d="M 261.5,139.5 C 261.5,140.5 261.5,141.5 261.5,142.5C 260.539,144.265 260.205,146.265 260.5,148.5C 258.909,153.077 257.909,157.91 257.5,163C 258.079,172.992 258.745,182.826 259.5,192.5C 259.263,193.791 259.596,194.791 260.5,195.5C 260.649,196.552 260.483,197.552 260,198.5C 259.138,196.913 258.471,195.246 258,193.5C 257.705,183.155 257.205,172.821 256.5,162.5C 257.099,154.453 258.766,146.787 261.5,139.5 Z"/></g>
<g><path style="opacity:1" fill="#a35b38" d="M 275.5,184.5 C 275.5,192.167 275.5,199.833 275.5,207.5C 271.618,206.789 269.118,204.456 268,200.5C 265.941,194.695 265.107,188.695 265.5,182.5C 266.264,174.996 266.43,167.329 266,159.5C 269.022,166.207 272.022,172.874 275,179.5C 275.494,181.134 275.66,182.801 275.5,184.5 Z"/></g>
<g><path style="opacity:1" fill="#8b492c" d="M 409.5,172.5 C 408.262,172.81 408.262,173.31 409.5,174C 416.358,176.549 418.858,181.383 417,188.5C 415.269,190.617 413.102,192.117 410.5,193C 412.545,193.49 414.545,193.323 416.5,192.5C 411.178,194.406 405.511,195.906 399.5,197C 401.974,197.037 403.974,197.87 405.5,199.5C 402.42,199.252 399.42,198.586 396.5,197.5C 392.862,198.182 389.195,198.682 385.5,199C 384.929,200.205 384.262,201.372 383.5,202.5C 378.219,197.646 372.219,196.646 365.5,199.5C 362.205,198.551 358.872,198.551 355.5,199.5C 356.091,198.849 356.757,198.182 357.5,197.5C 355.167,196.833 352.833,196.167 350.5,195.5C 350.137,194.817 349.804,194.15 349.5,193.5C 351.857,193.663 354.19,193.497 356.5,193C 349.833,191.381 347.667,187.214 350,180.5C 350.997,178.677 352.164,177.01 353.5,175.5C 353.811,174.522 354.478,173.855 355.5,173.5C 359.353,181.427 365.687,184.594 374.5,183C 378.707,185.904 383.374,187.738 388.5,188.5C 400.071,187.59 405.738,181.257 405.5,169.5C 407.261,170.035 408.594,171.035 409.5,172.5 Z"/></g>
<g><path style="opacity:1" fill="#a15a37" d="M 486.5,188.5 C 485.831,193.514 484.997,198.514 484,203.5C 483.803,205.861 482.636,207.528 480.5,208.5C 480.037,199.536 480.037,190.536 480.5,181.5C 482.795,177.814 484.628,173.814 486,169.5C 486.5,175.825 486.666,182.158 486.5,188.5 Z"/></g>
<g><path style="opacity:1" fill="#190b01" d="M 353.5,175.5 C 352.164,177.01 350.997,178.677 350,180.5C 347.667,187.214 349.833,191.381 356.5,193C 354.19,193.497 351.857,193.663 349.5,193.5C 348.164,191.99 346.997,190.323 346,188.5C 344.411,181.667 346.911,177.333 353.5,175.5 Z"/></g>
<g><path style="opacity:1" fill="#190a01" d="M 409.5,172.5 C 418.747,173.982 422.247,179.315 420,188.5C 419.34,190.324 418.173,191.657 416.5,192.5C 414.545,193.323 412.545,193.49 410.5,193C 413.102,192.117 415.269,190.617 417,188.5C 418.858,181.383 416.358,176.549 409.5,174C 408.262,173.31 408.262,172.81 409.5,172.5 Z"/></g>
<g><path style="opacity:1" fill="#170901" d="M 362.5,187.5 C 364.288,186.378 366.288,186.211 368.5,187C 378.895,193.979 389.562,194.312 400.5,188C 402.833,187.333 405.167,187.333 407.5,188C 404.768,188.413 402.101,189.08 399.5,190C 388.831,198.829 378.498,198.496 368.5,189C 366.655,187.872 364.655,187.372 362.5,187.5 Z"/></g>
<g><path style="opacity:0.004" fill="#0a0000" d="M 491.5,195.5 C 492.833,197.5 492.833,199.5 491.5,201.5C 491.5,199.5 491.5,197.5 491.5,195.5 Z"/></g>
<g><path style="opacity:1" fill="#180a02" d="M 452.5,201.5 C 453.44,203.612 454.606,205.612 456,207.5C 456.667,208.833 456.667,210.167 456,211.5C 454.884,208.244 453.051,205.578 450.5,203.5C 448.763,201.45 446.763,199.617 444.5,198C 447.438,198.411 450.105,199.578 452.5,201.5 Z"/></g>
<g><path style="opacity:0.016" fill="#1d0000" d="M 490.5,201.5 C 490.833,201.5 491.167,201.5 491.5,201.5C 491.768,203.099 491.434,204.432 490.5,205.5C 490.5,204.167 490.5,202.833 490.5,201.5 Z"/></g>
<g><path style="opacity:0.043" fill="#160b00" d="M 263.5,204.5 C 263.328,205.492 263.662,206.158 264.5,206.5C 264.607,208.379 264.107,208.712 263,207.5C 261.813,205.956 261.48,204.289 262,202.5C 262.278,203.416 262.778,204.082 263.5,204.5 Z"/></g>
<g><path style="opacity:1" fill="#170a02" d="M 319.5,203.5 C 320.239,203.369 320.906,203.536 321.5,204C 319.288,206.921 317.455,210.088 316,213.5C 315.182,209.469 316.349,206.136 319.5,203.5 Z"/></g>
<g><path style="opacity:0.016" fill="#120000" d="M 489.5,205.5 C 489.833,205.5 490.167,205.5 490.5,205.5C 490.737,206.791 490.404,207.791 489.5,208.5C 489.5,207.5 489.5,206.5 489.5,205.5 Z"/></g>
<g><path style="opacity:0.004" fill="#0d0000" d="M 488.5,208.5 C 488.833,208.5 489.167,208.5 489.5,208.5C 489.672,209.492 489.338,210.158 488.5,210.5C 488.5,209.833 488.5,209.167 488.5,208.5 Z"/></g>
<g><path style="opacity:0.016" fill="#1d0000" d="M 487.5,210.5 C 487.833,210.5 488.167,210.5 488.5,210.5C 488.315,211.17 487.981,211.17 487.5,210.5 Z"/></g>
<g><path style="opacity:0.043" fill="#170d00" d="M 275.5,226.5 C 275.672,227.492 275.338,228.158 274.5,228.5C 274.186,223.764 273.186,219.264 271.5,215C 272.448,214.517 273.448,214.351 274.5,214.5C 274.183,218.702 274.517,222.702 275.5,226.5 Z"/></g>
<g><path style="opacity:0.016" fill="#170000" d="M 480.5,215.5 C 481.552,215.351 482.552,215.517 483.5,216C 481.862,218.133 481.029,220.633 481,223.5C 480.503,220.854 480.336,218.187 480.5,215.5 Z"/></g>
<g><path style="opacity:1" fill="#8f4c2f" d="M 434.5,226.5 C 431.109,230.928 427.942,235.594 425,240.5C 421.571,244.439 417.737,247.772 413.5,250.5C 413.265,249.903 412.765,249.57 412,249.5C 398.731,253.096 385.231,254.263 371.5,253C 366.597,252.522 361.93,251.356 357.5,249.5C 356.584,249.543 355.917,249.876 355.5,250.5C 343.322,243.825 334.489,234.158 329,221.5C 328.501,225.486 328.334,229.486 328.5,233.5C 325.616,225.475 327.949,219.642 335.5,216C 350.186,210.191 365.519,207.858 381.5,209C 383.464,207.206 384.964,207.706 386,210.5C 391.416,209.361 396.916,209.194 402.5,210C 411.356,212.964 420.356,215.464 429.5,217.5C 433.302,219.305 434.969,222.305 434.5,226.5 Z"/></g>
<g><path style="opacity:1" fill="#140801" d="M 362.5,211.5 C 369.111,210.91 375.445,211.91 381.5,214.5C 385.064,212.468 388.897,211.468 393,211.5C 400.599,212.486 408.099,213.986 415.5,216C 408.335,215.925 401.168,215.425 394,214.5C 389.701,214.989 385.535,215.989 381.5,217.5C 371.688,213.907 361.688,213.574 351.5,216.5C 348.398,216.503 348.065,216.003 350.5,215C 354.647,213.891 358.647,212.724 362.5,211.5 Z"/></g>
<g><path style="opacity:0.004" fill="#0d0000" d="M 479.5,224.5 C 480.833,225.167 480.833,225.833 479.5,226.5C 479.5,225.833 479.5,225.167 479.5,224.5 Z"/></g>
<g><path style="opacity:0.004" fill="#000000" d="M 478.5,226.5 C 478.833,226.5 479.167,226.5 479.5,226.5C 479.167,235.833 478.833,235.833 478.5,226.5 Z"/></g>
<g><path style="opacity:1" fill="#a45c38" d="M 355.5,250.5 C 358.485,251.326 361.151,252.659 363.5,254.5C 364.973,256.395 366.64,258.061 368.5,259.5C 366.442,260.933 364.108,261.6 361.5,261.5C 362.545,264.385 364.545,266.552 367.5,268C 369.777,268.973 371.943,269.14 374,268.5C 376.726,270.762 379.559,270.762 382.5,268.5C 390.812,270.387 398.479,268.72 405.5,263.5C 403.855,262.304 402.189,261.304 400.5,260.5C 399.391,259.71 398.058,259.21 396.5,259C 398.66,258.004 400.327,256.504 401.5,254.5C 405.426,252.969 409.426,251.636 413.5,250.5C 417.737,247.772 421.571,244.439 425,240.5C 427.942,235.594 431.109,230.928 434.5,226.5C 434.665,229.518 434.498,232.518 434,235.5C 429.806,242.554 426.14,249.888 423,257.5C 423.555,265.109 421.888,272.109 418,278.5C 413.576,280.588 410.076,283.755 407.5,288C 406.451,288.492 405.451,288.326 404.5,287.5C 402.684,288.815 401.017,290.315 399.5,292C 394.508,292.996 389.841,294.829 385.5,297.5C 378.363,296.455 371.363,294.789 364.5,292.5C 363.707,292.931 362.873,293.265 362,293.5C 359.06,291.73 356.56,289.397 354.5,286.5C 353.833,287.167 353.167,287.833 352.5,288.5C 351.719,287.263 350.719,286.263 349.5,285.5C 346.614,280.217 344.78,274.551 344,268.5C 341.473,264.779 339.473,260.779 338,256.5C 336.167,254.167 334.333,251.833 332.5,249.5C 330.35,244.401 329.016,239.067 328.5,233.5C 328.334,229.486 328.501,225.486 329,221.5C 334.489,234.158 343.322,243.825 355.5,250.5 Z"/></g>
<g><path style="opacity:1" fill="#160f0a" d="M 345.5,219.5 C 357.53,220.092 369.53,221.092 381.5,222.5C 397.529,219.92 413.529,219.92 429.5,222.5C 428.531,228.308 425.198,232.141 419.5,234C 407.816,239.728 395.483,242.895 382.5,243.5C 375.643,243.429 368.976,242.262 362.5,240C 355.833,237.333 349.167,234.667 342.5,232C 338.577,229.909 335.911,226.742 334.5,222.5C 338.319,221.598 341.986,220.598 345.5,219.5 Z"/></g>
<g><path style="opacity:1" fill="#b6b4b3" d="M 343.5,222.5 C 349.873,221.436 356.206,221.769 362.5,223.5C 356.155,223.347 349.822,223.014 343.5,222.5 Z"/></g>
<g><path style="opacity:1" fill="#f4f3f3" d="M 343.5,222.5 C 349.822,223.014 356.155,223.347 362.5,223.5C 369.161,224.165 375.828,224.832 382.5,225.5C 392.809,224.253 403.143,223.253 413.5,222.5C 416.5,222.833 419.5,223.167 422.5,223.5C 424.969,228.916 423.303,232.083 417.5,233C 410.381,234.623 403.381,236.623 396.5,239C 387.833,239.667 379.167,239.667 370.5,239C 361.441,236.536 352.441,233.869 343.5,231C 340.855,228.05 340.855,225.217 343.5,222.5 Z"/></g>
<g><path style="opacity:0.004" fill="#130800" d="M 274.5,228.5 C 274.796,230.403 275.463,232.07 276.5,233.5C 276.663,235.857 276.497,238.19 276,240.5C 275.647,236.883 274.814,233.383 273.5,230C 273.57,229.235 273.903,228.735 274.5,228.5 Z"/></g>
<g><path style="opacity:0.004" fill="#000000" d="M 477.5,234.5 C 478.573,235.251 478.74,236.251 478,237.5C 477.517,236.552 477.351,235.552 477.5,234.5 Z"/></g>
<g><path style="opacity:0.004" fill="#000000" d="M 476.5,238.5 C 477.598,239.601 477.765,240.934 477,242.5C 476.51,241.207 476.343,239.873 476.5,238.5 Z"/></g>
<g><path style="opacity:0.004" fill="#000000" d="M 475.5,243.5 C 476.573,244.251 476.74,245.251 476,246.5C 475.517,245.552 475.351,244.552 475.5,243.5 Z"/></g>
<g><path style="opacity:0.004" fill="#000000" d="M 474.5,247.5 C 475.239,247.369 475.906,247.536 476.5,248C 475.578,250.294 474.578,252.461 473.5,254.5C 473.5,252.833 473.5,251.167 473.5,249.5C 474.338,249.158 474.672,248.492 474.5,247.5 Z"/></g>
<g><path style="opacity:0.004" fill="#110700" d="M 279.5,247.5 C 279.328,248.492 279.662,249.158 280.5,249.5C 280.328,250.492 280.662,251.158 281.5,251.5C 281.328,252.492 281.662,253.158 282.5,253.5C 282.5,254.833 282.5,256.167 282.5,257.5C 281.078,254.818 279.745,251.985 278.5,249C 278.57,248.235 278.903,247.735 279.5,247.5 Z"/></g>
<g><path style="opacity:1" fill="#160902" d="M 355.5,250.5 C 355.917,249.876 356.584,249.543 357.5,249.5C 361.93,251.356 366.597,252.522 371.5,253C 385.231,254.263 398.731,253.096 412,249.5C 412.765,249.57 413.265,249.903 413.5,250.5C 409.426,251.636 405.426,252.969 401.5,254.5C 388.857,257.089 376.191,257.089 363.5,254.5C 361.151,252.659 358.485,251.326 355.5,250.5 Z"/></g>
<g><path style="opacity:0.004" fill="#000000" d="M 473.5,254.5 C 473.737,255.791 473.404,256.791 472.5,257.5C 472.263,256.209 472.596,255.209 473.5,254.5 Z"/></g>
<g><path style="opacity:1" fill="#804328" d="M 363.5,254.5 C 376.191,257.089 388.857,257.089 401.5,254.5C 400.327,256.504 398.66,258.004 396.5,259C 398.058,259.21 399.391,259.71 400.5,260.5C 389.686,260.056 379.02,259.723 368.5,259.5C 366.64,258.061 364.973,256.395 363.5,254.5 Z"/></g>
<g><path style="opacity:0.004" fill="#000000" d="M 472.5,257.5 C 472.672,258.492 472.338,259.158 471.5,259.5C 471.328,258.508 471.662,257.842 472.5,257.5 Z"/></g>
<g><path style="opacity:1" fill="#1c0c01" d="M 368.5,259.5 C 379.02,259.723 389.686,260.056 400.5,260.5C 402.189,261.304 403.855,262.304 405.5,263.5C 398.479,268.72 390.812,270.387 382.5,268.5C 379.559,270.762 376.726,270.762 374,268.5C 371.943,269.14 369.777,268.973 367.5,268C 364.545,266.552 362.545,264.385 361.5,261.5C 364.108,261.6 366.442,260.933 368.5,259.5 Z"/></g>
<g><path style="opacity:0.004" fill="#000000" d="M 471.5,259.5 C 471.737,260.791 471.404,261.791 470.5,262.5C 470.263,261.209 470.596,260.209 471.5,259.5 Z"/></g>
<g><path style="opacity:0.004" fill="#000000" d="M 470.5,262.5 C 470.737,263.791 470.404,264.791 469.5,265.5C 469.263,264.209 469.596,263.209 470.5,262.5 Z"/></g>
<g><path style="opacity:0.004" fill="#000000" d="M 469.5,265.5 C 469.672,266.492 469.338,267.158 468.5,267.5C 468.328,266.508 468.662,265.842 469.5,265.5 Z"/></g>
<g><path style="opacity:0.004" fill="#000000" d="M 468.5,267.5 C 468.672,268.492 468.338,269.158 467.5,269.5C 467.328,268.508 467.662,267.842 468.5,267.5 Z"/></g>
<g><path style="opacity:0.004" fill="#000000" d="M 467.5,269.5 C 467.66,271.199 467.494,272.866 467,274.5C 466.22,272.613 466.387,270.946 467.5,269.5 Z"/></g>
<g><path style="opacity:0.043" fill="#150c00" d="M 282.5,257.5 C 282.833,257.5 283.167,257.5 283.5,257.5C 284.98,270.525 284.813,283.525 283,296.5C 283.832,283.507 283.665,270.507 282.5,257.5 Z"/></g>
<g><path style="opacity:1" fill="#834028" d="M 459.5,303.5 C 458.835,301.302 458.168,298.969 457.5,296.5C 449.408,305.113 443.575,315.113 440,326.5C 436.833,329.667 433.667,332.833 430.5,336C 416.658,345.421 402.991,355.088 389.5,365C 385.87,366.902 382.037,368.068 378,368.5C 362.778,364.472 348.944,357.639 336.5,348C 322.186,334.203 310.686,318.369 302,300.5C 298.909,295.986 295.575,291.653 292,287.5C 291.819,290.695 291.319,293.695 290.5,296.5C 290.334,289.492 290.5,282.492 291,275.5C 291.308,274.692 291.808,274.025 292.5,273.5C 297.839,287.167 306.339,298.501 318,307.5C 322.687,315.911 329.187,321.411 337.5,324C 343.543,328.022 349.877,331.522 356.5,334.5C 357.696,334.154 357.696,333.654 356.5,333C 357.167,332.833 357.833,332.667 358.5,332.5C 360.382,333.531 362.382,334.365 364.5,335C 370.357,335.279 376.191,335.779 382,336.5C 383.894,336.461 384.894,335.794 385,334.5C 387.696,335.022 390.362,335.355 393,335.5C 402.441,333.357 411.274,329.857 419.5,325C 424.207,320.99 428.874,316.99 433.5,313C 437.723,309.444 441.223,305.277 444,300.5C 444.333,300.833 444.667,301.167 445,301.5C 446.588,297.745 449.088,294.745 452.5,292.5C 454.171,289.158 455.838,285.824 457.5,282.5C 458.574,289.464 459.241,296.464 459.5,303.5 Z"/></g>
<g><path style="opacity:0.004" fill="#000000" d="M 465.5,276.5 C 466.651,281.65 466.817,286.984 466,292.5C 465.501,287.177 465.334,281.844 465.5,276.5 Z"/></g>
<g><path style="opacity:1" fill="#a55d39" d="M 459.5,303.5 C 459.77,309.779 462.27,315.112 467,319.5C 466.632,315.156 465.798,310.822 464.5,306.5C 466.329,305.718 467.829,306.384 469,308.5C 470.184,311.942 471.35,315.275 472.5,318.5C 475.695,349.274 463.362,371.441 435.5,385C 391.139,405.503 346.806,405.503 302.5,385C 290.711,377.387 282.045,367.22 276.5,354.5C 272.066,339.312 272.566,324.312 278,309.5C 280.016,307.316 282.183,305.316 284.5,303.5C 284.833,304.333 285.167,305.167 285.5,306C 283.965,310.408 283.465,314.908 284,319.5C 285,318.5 286,317.5 287,316.5C 288.887,309.974 290.054,303.308 290.5,296.5C 291.319,293.695 291.819,290.695 292,287.5C 295.575,291.653 298.909,295.986 302,300.5C 310.686,318.369 322.186,334.203 336.5,348C 348.944,357.639 362.778,364.472 378,368.5C 382.037,368.068 385.87,366.902 389.5,365C 402.991,355.088 416.658,345.421 430.5,336C 433.667,332.833 436.833,329.667 440,326.5C 443.575,315.113 449.408,305.113 457.5,296.5C 458.168,298.969 458.835,301.302 459.5,303.5 Z"/></g>
<g><path style="opacity:0.004" fill="#000000" d="M 466.5,294.5 C 467.833,295.167 467.833,295.167 466.5,294.5 Z"/></g>
<g><path style="opacity:0.004" fill="#000000" d="M 466.5,295.5 C 466.5,295.833 466.5,296.167 466.5,296.5C 465.83,296.019 465.83,295.685 466.5,295.5 Z"/></g>
<g><path style="opacity:0.016" fill="#1d0000" d="M 280.5,296.5 C 281.833,297.167 281.833,297.167 280.5,296.5 Z"/></g>
<g><path style="opacity:0.004" fill="#0d0000" d="M 466.5,296.5 C 467.492,296.328 468.158,296.662 468.5,297.5C 467.508,297.672 466.842,297.338 466.5,296.5 Z"/></g>
<g><path style="opacity:0.004" fill="#0d0000" d="M 278.5,298.5 C 278.842,297.662 279.508,297.328 280.5,297.5C 280.158,298.338 279.492,298.672 278.5,298.5 Z"/></g>
<g><path style="opacity:0.004" fill="#100000" d="M 468.5,297.5 C 471.46,298.032 471.793,298.699 469.5,299.5C 469.167,298.833 468.833,298.167 468.5,297.5 Z"/></g>
<g><path style="opacity:0.016" fill="#170000" d="M 276.5,299.5 C 276.842,298.662 277.508,298.328 278.5,298.5C 278.158,299.338 277.492,299.672 276.5,299.5 Z"/></g>
<g><path style="opacity:0.004" fill="#100000" d="M 276.5,299.5 C 276.167,300.167 275.833,300.833 275.5,301.5C 273.207,300.699 273.54,300.032 276.5,299.5 Z"/></g>
<g><path style="opacity:0.004" fill="#100000" d="M 268.5,305.5 C 266.025,305.253 266.025,304.587 268.5,303.5C 269.463,303.97 269.463,304.637 268.5,305.5 Z"/></g>
<g><path style="opacity:0.004" fill="#100000" d="M 483.5,307.5 C 482.632,305.108 483.299,304.941 485.5,307C 484.906,307.464 484.239,307.631 483.5,307.5 Z"/></g>
<g><path style="opacity:0.004" fill="#100000" d="M 263.5,308.5 C 261.025,308.253 261.025,307.587 263.5,306.5C 264.463,306.97 264.463,307.637 263.5,308.5 Z"/></g>
<g><path style="opacity:0.004" fill="#100000" d="M 258.5,311.5 C 256.025,311.253 256.025,310.587 258.5,309.5C 259.463,309.97 259.463,310.637 258.5,311.5 Z"/></g>
<g><path style="opacity:0.004" fill="#100000" d="M 493.5,313.5 C 492.632,311.108 493.299,310.941 495.5,313C 494.906,313.464 494.239,313.631 493.5,313.5 Z"/></g>
<g><path style="opacity:0.016" fill="#1b0000" d="M 253.5,314.5 C 252.833,314.5 252.167,314.5 251.5,314.5C 253.394,311.813 254.061,311.813 253.5,314.5 Z"/></g>
<g><path style="opacity:0.004" fill="#100000" d="M 251.5,314.5 C 251.167,315.167 250.833,315.833 250.5,316.5C 248.207,315.699 248.54,315.032 251.5,314.5 Z"/></g>
<g><path style="opacity:1" fill="#00173f" d="M 257.5,343.5 C 258.347,351.208 260.513,358.541 264,365.5C 276.68,389.529 293.18,410.696 313.5,429C 332.686,446.165 352.853,461.998 374,476.5C 385.622,468.703 396.788,460.369 407.5,451.5C 429.423,435.079 448.923,416.079 466,394.5C 475.134,382.571 482.467,369.571 488,355.5C 494.228,340.919 492.395,327.586 482.5,315.5C 495.062,321.407 506.896,329.073 518,338.5C 518.657,353.888 515.657,368.554 509,382.5C 499.824,402.204 488.157,420.204 474,436.5C 444.481,468.218 411.148,494.885 374,516.5C 329.245,490.425 290.578,457.092 258,416.5C 245.95,400.091 236.95,382.091 231,362.5C 229.005,354.557 228.505,346.557 229.5,338.5C 240.287,330.051 251.62,322.384 263.5,315.5C 263.833,315.833 264.167,316.167 264.5,316.5C 257.414,324.401 255.08,333.401 257.5,343.5 Z"/></g>
<g><path style="opacity:1" fill="#f8f7f7" d="M 403.5,424.5 C 378.721,428.936 354.054,428.436 329.5,423C 321.96,420.897 314.627,418.23 307.5,415C 286.341,396.17 271.175,373.336 262,346.5C 261.294,340.13 261.461,333.797 262.5,327.5C 264.776,324.208 267.109,320.875 269.5,317.5C 269.833,318 270.167,318.5 270.5,319C 267.287,332.512 268.454,345.678 274,358.5C 275.774,363.07 278.274,367.07 281.5,370.5C 285.983,378.482 292.317,384.649 300.5,389C 333.012,404.98 367.012,408.98 402.5,401C 424.542,396.726 443.876,387.226 460.5,372.5C 473.197,359.076 478.863,343.076 477.5,324.5C 476.992,321.824 476.825,319.157 477,316.5C 485.01,324.198 488.01,333.531 486,344.5C 474.379,387.623 446.879,414.289 403.5,424.5 Z"/></g>
<g><path style="opacity:0.016" fill="#1a0500" d="M 242.5,321.5 C 241.833,321.5 241.167,321.5 240.5,321.5C 242.394,318.813 243.061,318.813 242.5,321.5 Z"/></g>
<g><path style="opacity:0.016" fill="#1a0500" d="M 240.5,321.5 C 240.167,322.167 239.833,322.833 239.5,323.5C 238.833,323.5 238.167,323.5 237.5,323.5C 237.973,322.094 238.973,321.427 240.5,321.5 Z"/></g>
<g><path style="opacity:0.016" fill="#1a0500" d="M 237.5,323.5 C 237.167,324.167 236.833,324.833 236.5,325.5C 234.207,324.699 234.54,324.032 237.5,323.5 Z"/></g>
<g><path style="opacity:0.016" fill="#190200" d="M 510.5,324.5 C 511.497,323.287 512.497,323.454 513.5,325C 512.906,325.464 512.239,325.631 511.5,325.5C 510.833,325.5 510.5,325.167 510.5,324.5 Z"/></g>
<g><path style="opacity:0.004" fill="#140400" d="M 233.5,327.5 C 232.833,327.5 232.5,327.833 232.5,328.5C 231.833,328.5 231.167,328.5 230.5,328.5C 231.221,326.618 232.221,326.285 233.5,327.5 Z"/></g>
<g><path style="opacity:0.016" fill="#190400" d="M 515.5,328.5 C 516.497,327.287 517.497,327.454 518.5,329C 517.906,329.464 517.239,329.631 516.5,329.5C 515.833,329.5 515.5,329.167 515.5,328.5 Z"/></g>
<g><path style="opacity:0.004" fill="#130500" d="M 230.5,328.5 C 230.167,329.167 229.833,329.833 229.5,330.5C 228.833,330.5 228.5,330.833 228.5,331.5C 227.761,331.631 227.094,331.464 226.5,331C 227.471,329.519 228.804,328.685 230.5,328.5 Z"/></g>
<g><path style="opacity:0.031" fill="#150900" d="M 221.5,336.5 C 220.508,336.328 219.842,336.662 219.5,337.5C 218.508,337.328 217.842,337.662 217.5,338.5C 215.653,338.766 214.986,338.432 215.5,337.5C 217.507,335.797 219.507,335.463 221.5,336.5 Z"/></g>
<g><path style="opacity:0.031" fill="#150900" d="M 528.5,337.5 C 530.089,336.379 531.756,336.546 533.5,338C 532.552,338.483 531.552,338.649 530.5,338.5C 530.158,337.662 529.492,337.328 528.5,337.5 Z"/></g>
<g><path style="opacity:0.004" fill="#120800" d="M 210.5,341.5 C 209.508,341.328 208.842,341.662 208.5,342.5C 207.508,342.328 206.842,342.662 206.5,343.5C 204.653,343.766 203.986,343.432 204.5,342.5C 206.507,340.797 208.507,340.463 210.5,341.5 Z"/></g>
<g><path style="opacity:0.004" fill="#110700" d="M 539.5,342.5 C 540.251,341.427 541.251,341.26 542.5,342C 543.833,342.667 545.167,343.333 546.5,344C 545.552,344.483 544.552,344.649 543.5,344.5C 543.158,343.662 542.492,343.328 541.5,343.5C 541.158,342.662 540.492,342.328 539.5,342.5 Z"/></g>
<g><path style="opacity:1" fill="#00173f" d="M 740.5,545.5 C 496.167,545.5 251.833,545.5 7.5,545.5C 10.0182,534.441 12.8516,523.441 16,512.5C 26.8044,487.538 40.1378,464.205 56,442.5C 65.8333,432.667 75.6667,422.833 85.5,413C 92.2157,407.283 99.2157,401.95 106.5,397C 144.82,377.512 183.82,359.679 223.5,343.5C 223.92,352.017 225.42,360.351 228,368.5C 235.792,391.759 247.458,412.759 263,431.5C 294.334,466.892 330.168,496.725 370.5,521C 372.5,521.667 374.5,521.667 376.5,521C 393.351,510.743 409.685,499.743 425.5,488C 452.707,467.793 476.207,443.96 496,416.5C 511.489,394.207 520.989,369.541 524.5,342.5C 561.74,359.12 598.74,376.286 635.5,394C 640.167,396.667 644.833,399.333 649.5,402C 663.939,414.436 677.772,427.603 691,441.5C 696.399,447.3 701.066,453.633 705,460.5C 713.603,476.04 721.936,491.706 730,507.5C 734.128,520.016 737.628,532.682 740.5,545.5 Z"/></g>
<g><path style="opacity:0.004" fill="#110700" d="M 199.5,346.5 C 198.508,346.328 197.842,346.662 197.5,347.5C 196.508,347.328 195.842,347.662 195.5,348.5C 193.653,348.766 192.986,348.432 193.5,347.5C 195.507,345.797 197.507,345.463 199.5,346.5 Z"/></g>
<g><path style="opacity:0.004" fill="#110600" d="M 550.5,347.5 C 551.251,346.427 552.251,346.26 553.5,347C 554.833,347.667 556.167,348.333 557.5,349C 556.552,349.483 555.552,349.649 554.5,349.5C 554.158,348.662 553.492,348.328 552.5,348.5C 552.158,347.662 551.492,347.328 550.5,347.5 Z"/></g>
<g><path style="opacity:0.043" fill="#150a00" d="M 188.5,351.5 C 187.508,351.328 186.842,351.662 186.5,352.5C 185.508,352.328 184.842,352.662 184.5,353.5C 182.653,353.766 181.986,353.432 182.5,352.5C 184.507,350.797 186.507,350.463 188.5,351.5 Z"/></g>
<g><path style="opacity:0.004" fill="#110600" d="M 561.5,352.5 C 562.251,351.427 563.251,351.26 564.5,352C 565.833,352.667 567.167,353.333 568.5,354C 567.552,354.483 566.552,354.649 565.5,354.5C 565.158,353.662 564.492,353.328 563.5,353.5C 563.158,352.662 562.492,352.328 561.5,352.5 Z"/></g>
<g><path style="opacity:0.043" fill="#180700" d="M 175.5,357.5 C 174.508,357.328 173.842,357.662 173.5,358.5C 171.653,358.766 170.986,358.432 171.5,357.5C 172.995,356.295 174.328,356.295 175.5,357.5 Z"/></g>
<g><path style="opacity:0.043" fill="#160900" d="M 572.5,357.5 C 573.251,356.427 574.251,356.26 575.5,357C 576.833,357.667 578.167,358.333 579.5,359C 578.552,359.483 577.552,359.649 576.5,359.5C 576.158,358.662 575.492,358.328 574.5,358.5C 574.158,357.662 573.492,357.328 572.5,357.5 Z"/></g>
<g><path style="opacity:0.043" fill="#180a00" d="M 164.5,362.5 C 163.508,362.328 162.842,362.662 162.5,363.5C 160.653,363.766 159.986,363.432 160.5,362.5C 161.995,361.295 163.328,361.295 164.5,362.5 Z"/></g>
<g><path style="opacity:0.043" fill="#160a00" d="M 585.5,363.5 C 587.089,362.379 588.756,362.546 590.5,364C 589.552,364.483 588.552,364.649 587.5,364.5C 587.158,363.662 586.492,363.328 585.5,363.5 Z"/></g>
<g><path style="opacity:0.004" fill="#110700" d="M 153.5,367.5 C 152.508,367.328 151.842,367.662 151.5,368.5C 150.508,368.328 149.842,368.662 149.5,369.5C 147.653,369.766 146.986,369.432 147.5,368.5C 149.507,366.797 151.507,366.463 153.5,367.5 Z"/></g>
<g><path style="opacity:0.043" fill="#160a00" d="M 596.5,368.5 C 598.089,367.379 599.756,367.546 601.5,369C 600.552,369.483 599.552,369.649 598.5,369.5C 598.158,368.662 597.492,368.328 596.5,368.5 Z"/></g>
<g><path style="opacity:0.004" fill="#0e0700" d="M 138.5,374.5 C 137.508,374.328 136.842,374.662 136.5,375.5C 135.508,375.328 134.842,375.662 134.5,376.5C 133.508,376.328 132.842,376.662 132.5,377.5C 131.508,377.328 130.842,377.662 130.5,378.5C 128.653,378.766 127.986,378.432 128.5,377.5C 131.273,376.03 134.106,374.697 137,373.5C 137.765,373.57 138.265,373.903 138.5,374.5 Z"/></g>
<g><path style="opacity:1" fill="#1a110c" d="M 472.5,318.5 C 473.907,324.289 474.907,330.289 475.5,336.5C 476.167,332.353 476.834,328.353 477.5,324.5C 478.863,343.076 473.197,359.076 460.5,372.5C 443.876,387.226 424.542,396.726 402.5,401C 367.012,408.98 333.012,404.98 300.5,389C 292.317,384.649 285.983,378.482 281.5,370.5C 272.965,356.357 269.465,341.023 271,324.5C 271.336,331.533 272.002,338.533 273,345.5C 273.505,348.865 274.672,351.865 276.5,354.5C 282.045,367.22 290.711,377.387 302.5,385C 346.806,405.503 391.139,405.503 435.5,385C 463.362,371.441 475.695,349.274 472.5,318.5 Z"/></g>
<g><path style="opacity:0.004" fill="#0b0500" d="M 613.5,376.5 C 614.251,375.427 615.251,375.26 616.5,376C 619.833,377.667 623.167,379.333 626.5,381C 625.552,381.483 624.552,381.649 623.5,381.5C 623.158,380.662 622.492,380.328 621.5,380.5C 621.158,379.662 620.492,379.328 619.5,379.5C 619.158,378.662 618.492,378.328 617.5,378.5C 617.158,377.662 616.492,377.328 615.5,377.5C 615.158,376.662 614.492,376.328 613.5,376.5 Z"/></g>
<g><path style="opacity:1" fill="#1c1410" d="M 262.5,327.5 C 261.461,333.797 261.294,340.13 262,346.5C 271.175,373.336 286.341,396.17 307.5,415C 314.627,418.23 321.96,420.897 329.5,423C 354.054,428.436 378.721,428.936 403.5,424.5C 402.391,425.29 401.058,425.79 399.5,426C 406.88,425.381 414.213,424.215 421.5,422.5C 403.587,429.247 384.92,432.58 365.5,432.5C 358.793,432.486 352.126,431.986 345.5,431C 335.376,428.84 325.376,426.506 315.5,424C 334.13,440.97 353.63,456.803 374,471.5C 396.359,454.9 417.859,437.234 438.5,418.5C 439.239,418.369 439.906,418.536 440.5,419C 430.357,429.214 419.69,438.714 408.5,447.5C 407.571,448.689 407.238,450.022 407.5,451.5C 396.788,460.369 385.622,468.703 374,476.5C 352.853,461.998 332.686,446.165 313.5,429C 293.18,410.696 276.68,389.529 264,365.5C 260.513,358.541 258.347,351.208 257.5,343.5C 258.26,339.919 258.76,336.252 259,332.5C 259.669,330.41 260.836,328.743 262.5,327.5 Z"/></g>
<g><path style="opacity:0.004" fill="#0f0700" d="M 637.5,388.5 C 637.158,387.662 636.492,387.328 635.5,387.5C 635.158,386.662 634.492,386.328 633.5,386.5C 633.158,385.662 632.492,385.328 631.5,385.5C 630.031,383.895 630.365,383.395 632.5,384C 634.996,385.08 637.33,386.414 639.5,388C 638.906,388.464 638.239,388.631 637.5,388.5 Z"/></g>
<g><path style="opacity:0.004" fill="#0a0700" d="M 113.5,386.5 C 112.833,386.5 112.5,386.833 112.5,387.5C 111.508,387.328 110.842,387.662 110.5,388.5C 108.621,388.607 108.288,388.107 109.5,387C 110.946,385.702 112.279,385.535 113.5,386.5 Z"/></g>
<g><path style="opacity:0.004" fill="#0c0900" d="M 645.5,392.5 C 646.497,391.287 647.497,391.454 648.5,393C 647.906,393.464 647.239,393.631 646.5,393.5C 645.833,393.5 645.5,393.167 645.5,392.5 Z"/></g>
<g><path style="opacity:0.004" fill="#0e0400" d="M 97.5,395.5 C 96.8333,395.5 96.5,395.833 96.5,396.5C 94.0248,396.253 94.0248,395.587 96.5,394.5C 97.1067,394.624 97.44,394.957 97.5,395.5 Z"/></g>
<g><path style="opacity:0.004" fill="#0e0400" d="M 93.5,398.5 C 92.8333,398.5 92.5,398.833 92.5,399.5C 90.0248,399.253 90.0248,398.587 92.5,397.5C 93.1067,397.624 93.44,397.957 93.5,398.5 Z"/></g>
<g><path style="opacity:0.016" fill="#190200" d="M 655.5,399.5 C 656.497,398.287 657.497,398.454 658.5,400C 657.906,400.464 657.239,400.631 656.5,400.5C 655.833,400.5 655.5,400.167 655.5,399.5 Z"/></g>
<g><path style="opacity:0.016" fill="#1a0500" d="M 87.5,403.5 C 86.8333,403.5 86.5,403.833 86.5,404.5C 84.0248,404.253 84.0248,403.587 86.5,402.5C 87.1067,402.624 87.44,402.957 87.5,403.5 Z"/></g>
<g><path style="opacity:0.004" fill="#100000" d="M 663.5,406.5 C 664.497,405.287 665.497,405.454 666.5,407C 665.906,407.464 665.239,407.631 664.5,407.5C 663.833,407.5 663.5,407.167 663.5,406.5 Z"/></g>
<g><path style="opacity:0.016" fill="#140200" d="M 78.5,411.5 C 77.8333,411.5 77.5,411.833 77.5,412.5C 76.8333,412.5 76.5,412.833 76.5,413.5C 75.8333,413.5 75.5,413.833 75.5,414.5C 74.8333,414.5 74.5,414.833 74.5,415.5C 73.7611,415.631 73.0944,415.464 72.5,415C 73.8333,413.667 75.1667,412.333 76.5,411C 77.4368,410.308 78.1034,410.475 78.5,411.5 Z"/></g>
<g><path style="opacity:0.004" fill="#120000" d="M 676.5,418.5 C 676.897,417.475 677.563,417.308 678.5,418C 683.333,422.833 688.167,427.667 693,432.5C 693.692,433.437 693.525,434.103 692.5,434.5C 691.833,434.5 691.5,434.167 691.5,433.5C 690.833,433.5 690.5,433.167 690.5,432.5C 689.833,432.5 689.5,432.167 689.5,431.5C 688.833,431.5 688.5,431.167 688.5,430.5C 687.833,430.5 687.5,430.167 687.5,429.5C 686.833,429.5 686.5,429.167 686.5,428.5C 685.833,428.5 685.5,428.167 685.5,427.5C 684.833,427.5 684.5,427.167 684.5,426.5C 683.833,426.5 683.5,426.167 683.5,425.5C 682.833,425.5 682.5,425.167 682.5,424.5C 681.833,424.5 681.5,424.167 681.5,423.5C 680.833,423.5 680.5,423.167 680.5,422.5C 679.833,422.5 679.5,422.167 679.5,421.5C 678.833,421.5 678.5,421.167 678.5,420.5C 677.833,420.5 677.5,420.167 677.5,419.5C 676.833,419.5 676.5,419.167 676.5,418.5 Z"/></g>
<g><path style="opacity:1" fill="#f9f8f8" d="M 438.5,418.5 C 417.859,437.234 396.359,454.9 374,471.5C 353.63,456.803 334.13,440.97 315.5,424C 325.376,426.506 335.376,428.84 345.5,431C 352.126,431.986 358.793,432.486 365.5,432.5C 384.92,432.58 403.587,429.247 421.5,422.5C 427.691,420.741 433.691,418.408 439.5,415.5C 439.833,415.667 440.167,415.833 440.5,416C 439.619,416.708 438.953,417.542 438.5,418.5 Z"/></g>
<g><path style="opacity:0.016" fill="#130000" d="M 53.5,436.5 C 52.8333,436.5 52.5,436.833 52.5,437.5C 51.8333,437.5 51.5,437.833 51.5,438.5C 50.8333,438.5 50.5,438.833 50.5,439.5C 49.475,439.103 49.3083,438.437 50,437.5C 51,436.5 52,435.5 53,434.5C 53.4643,435.094 53.631,435.761 53.5,436.5 Z"/></g>
<g><path style="opacity:0.031" fill="#150a00" d="M 701.5,444.5 C 700.833,444.5 700.5,444.167 700.5,443.5C 699.833,443.5 699.5,443.167 699.5,442.5C 700.286,440.408 701.286,440.741 702.5,443.5C 702.376,444.107 702.043,444.44 701.5,444.5 Z"/></g>
<g><path style="opacity:0.016" fill="#150000" d="M 46.5,444.5 C 45.8333,444.5 45.5,444.833 45.5,445.5C 43.8947,446.969 43.3947,446.635 44,444.5C 45.3919,442.158 46.2252,442.158 46.5,444.5 Z"/></g>
<g><path style="opacity:0.031" fill="#170a00" d="M 704.5,448.5 C 703.833,448.5 703.5,448.167 703.5,447.5C 703.747,445.025 704.413,445.025 705.5,447.5C 705.376,448.107 705.043,448.44 704.5,448.5 Z"/></g>
<g><path style="opacity:0.043" fill="#140900" d="M 707.5,453.5 C 707.747,451.025 708.413,451.025 709.5,453.5C 709.03,454.463 708.363,454.463 707.5,453.5 Z"/></g>
<g><path style="opacity:0.004" fill="#100000" d="M 36.5,459.5 C 34.1081,460.368 33.9414,459.701 36,457.5C 36.4643,458.094 36.631,458.761 36.5,459.5 Z"/></g>
<g><path style="opacity:0.043" fill="#140900" d="M 710.5,458.5 C 710.747,456.025 711.413,456.025 712.5,458.5C 712.03,459.463 711.363,459.463 710.5,458.5 Z"/></g>
<g><path style="opacity:0.004" fill="#080000" d="M 32.5,462.5 C 33.7125,463.497 33.5458,464.497 32,465.5C 31.5304,464.423 31.6971,463.423 32.5,462.5 Z"/></g>
<g><path style="opacity:0.043" fill="#130b00" d="M 714.5,465.5 C 714.672,464.508 714.338,463.842 713.5,463.5C 713.393,461.621 713.893,461.288 715,462.5C 715.5,463.5 716,464.5 716.5,465.5C 716.03,466.463 715.363,466.463 714.5,465.5 Z"/></g>
<g><path style="opacity:0.016" fill="#130700" d="M 718.5,472.5 C 718.672,471.508 718.338,470.842 717.5,470.5C 717.393,468.621 717.893,468.288 719,469.5C 719.5,470.5 720,471.5 720.5,472.5C 720.03,473.463 719.363,473.463 718.5,472.5 Z"/></g>
<g><path style="opacity:0.004" fill="#000000" d="M 28.5,473.5 C 26.1081,474.368 25.9414,473.701 28,471.5C 28.4643,472.094 28.631,472.761 28.5,473.5 Z"/></g>
<g><path style="opacity:0.016" fill="#130700" d="M 724.5,483.5 C 724.672,482.508 724.338,481.842 723.5,481.5C 723.393,479.621 723.893,479.288 725,480.5C 725.5,481.5 726,482.5 726.5,483.5C 726.03,484.463 725.363,484.463 724.5,483.5 Z"/></g>
<g><path style="opacity:0.004" fill="#000000" d="M 19.5,487.5 C 19.795,485.577 20.6283,483.91 22,482.5C 22.2494,484.668 21.4161,486.335 19.5,487.5 Z"/></g>
<g><path style="opacity:0.004" fill="#000000" d="M 19.5,487.5 C 19.5,488.5 19.5,489.5 19.5,490.5C 18.6618,490.842 18.3284,491.508 18.5,492.5C 17.6618,492.842 17.3284,493.508 17.5,494.5C 16.6618,494.842 16.3284,495.508 16.5,496.5C 15.3263,497.514 14.6596,498.847 14.5,500.5C 13.8333,501.167 13.1667,501.833 12.5,502.5C 14.0444,497.081 16.3777,492.081 19.5,487.5 Z"/></g>
<g><path style="opacity:0.004" fill="#000000" d="M 12.5,502.5 C 12.5,503.5 12.5,504.5 12.5,505.5C 11.6618,505.842 11.3284,506.508 11.5,507.5C 10.7611,507.631 10.0944,507.464 9.5,507C 10.3994,505.348 11.3994,503.848 12.5,502.5 Z"/></g>
<g><path style="opacity:0.004" fill="#120700" d="M 737.5,507.5 C 736.833,506.833 736.167,506.167 735.5,505.5C 735.351,504.448 735.517,503.448 736,502.5C 737.009,504.025 737.509,505.692 737.5,507.5 Z"/></g>
<g><path style="opacity:0.031" fill="#1a0e00" d="M 737.5,507.5 C 738.338,507.842 738.672,508.508 738.5,509.5C 737.662,509.158 737.328,508.492 737.5,507.5 Z"/></g>
<g><path style="opacity:0.031" fill="#141000" d="M 738.5,509.5 C 739.404,510.209 739.737,511.209 739.5,512.5C 738.596,511.791 738.263,510.791 738.5,509.5 Z"/></g>
<g><path style="opacity:0.016" fill="#190400" d="M 739.5,512.5 C 740.434,513.568 740.768,514.901 740.5,516.5C 739.566,515.432 739.232,514.099 739.5,512.5 Z"/></g>
<g><path style="opacity:0.004" fill="#000000" d="M 6.5,517.5 C 7.57346,518.251 7.74012,519.251 7,520.5C 6.51722,519.552 6.35055,518.552 6.5,517.5 Z"/></g>
<g><path style="opacity:0.004" fill="#140700" d="M 740.5,516.5 C 741.924,518.515 742.59,520.848 742.5,523.5C 741.076,521.485 740.41,519.152 740.5,516.5 Z"/></g>
<g><path style="opacity:0.004" fill="#000000" d="M 6.5,524.5 C 6.16667,524.5 5.83333,524.5 5.5,524.5C 5.83333,520.5 6.16667,520.5 6.5,524.5 Z"/></g>
<g><path style="opacity:0.004" fill="#000000" d="M 5.5,524.5 C 5.64945,525.552 5.48278,526.552 5,527.5C 4.25988,526.251 4.42654,525.251 5.5,524.5 Z"/></g>
<g><path style="opacity:0.004" fill="#150500" d="M 742.5,523.5 C 743.924,525.515 744.59,527.848 744.5,530.5C 743.076,528.485 742.41,526.152 742.5,523.5 Z"/></g>
<g><path style="opacity:0.016" fill="#120000" d="M 4.5,531.5 C 4.16667,531.5 3.83333,531.5 3.5,531.5C 3.83333,527.5 4.16667,527.5 4.5,531.5 Z"/></g>
<g><path style="opacity:0.004" fill="#0a0000" d="M 3.5,531.5 C 3.64945,532.552 3.48278,533.552 3,534.5C 2.25988,533.251 2.42654,532.251 3.5,531.5 Z"/></g>
<g><path style="opacity:0.004" fill="#150200" d="M 744.5,530.5 C 745.924,532.515 746.59,534.848 746.5,537.5C 745.076,535.485 744.41,533.152 744.5,530.5 Z"/></g>
<g><path style="opacity:0.016" fill="#1d0000" d="M 746.5,537.5 C 747.404,538.209 747.737,539.209 747.5,540.5C 746.596,539.791 746.263,538.791 746.5,537.5 Z"/></g>
<g><path style="opacity:0.016" fill="#190000" d="M 1.5,541.5 C 0.426544,540.749 0.259877,539.749 1,538.5C 1.48278,539.448 1.64945,540.448 1.5,541.5 Z"/></g>
<g><path style="opacity:0.016" fill="#180000" d="M 747.5,540.5 C 748.167,541.5 748.833,542.5 749.5,543.5C 749.5,544.167 749.5,544.833 749.5,545.5C 749.167,545.5 748.833,545.5 748.5,545.5C 747.699,543.958 747.366,542.292 747.5,540.5 Z"/></g>
<g><path style="opacity:0.016" fill="#120000" d="M -0.5,542.5 C 0.403972,543.209 0.737305,544.209 0.5,545.5C 0.166667,545.5 -0.166667,545.5 -0.5,545.5C -0.5,544.5 -0.5,543.5 -0.5,542.5 Z"/></g>
</svg>
