<?xml version="1.0" encoding="UTF-8"?>
<!DOCTYPE svg PUBLIC "-//W3C//DTD SVG 1.1//EN" "http://www.w3.org/Graphics/SVG/1.1/DTD/svg11.dtd">
<svg xmlns="http://www.w3.org/2000/svg" version="1.1" width="750px" height="641px" style="shape-rendering:geometricPrecision; text-rendering:geometricPrecision; image-rendering:optimizeQuality; fill-rule:evenodd; clip-rule:evenodd" xmlns:xlink="http://www.w3.org/1999/xlink">
<g><path style="opacity:0.012" fill="#140000" d="M 376.5,-0.5 C 376.833,-0.5 377.167,-0.5 377.5,-0.5C 377.315,0.170143 376.981,0.170143 376.5,-0.5 Z"/></g>
<g><path style="opacity:0.012" fill="#110000" d="M 348.5,2.5 C 349.251,1.42654 350.251,1.25988 351.5,2C 350.552,2.48278 349.552,2.64945 348.5,2.5 Z"/></g>
<g><path style="opacity:0.012" fill="#110000" d="M 388.5,4.5 C 388.351,3.44802 388.517,2.44802 389,1.5C 389.74,2.74943 389.573,3.74943 388.5,4.5 Z"/></g>
<g><path style="opacity:0.012" fill="#110000" d="M 387.5,4.5 C 387.833,4.5 388.167,4.5 388.5,4.5C 388.768,6.09903 388.434,7.43236 387.5,8.5C 387.5,7.16667 387.5,5.83333 387.5,4.5 Z"/></g>
<g><path style="opacity:0.012" fill="#0f0000" d="M 340.5,9.5 C 339.475,9.10343 339.308,8.43677 340,7.5C 340.464,8.09442 340.631,8.76109 340.5,9.5 Z"/></g>
<g><path style="opacity:0.012" fill="#140000" d="M 386.5,8.5 C 386.833,8.5 387.167,8.5 387.5,8.5C 387.672,9.49162 387.338,10.1583 386.5,10.5C 386.5,9.83333 386.5,9.16667 386.5,8.5 Z"/></g>
<g><path style="opacity:0.012" fill="#100000" d="M 340.5,9.5 C 340.833,9.5 341.167,9.5 341.5,9.5C 341.209,10.6491 340.376,11.3158 339,11.5C 338.167,11.3333 337.333,11.1667 336.5,11C 338.058,10.79 339.391,10.29 340.5,9.5 Z"/></g>
<g><path style="opacity:0.012" fill="#110000" d="M 385.5,10.5 C 385.833,10.5 386.167,10.5 386.5,10.5C 386.768,12.099 386.434,13.4324 385.5,14.5C 385.5,13.1667 385.5,11.8333 385.5,10.5 Z"/></g>
<g><path style="opacity:0.004" fill="#080000" d="M 384.5,14.5 C 384.833,14.5 385.167,14.5 385.5,14.5C 385.672,15.4916 385.338,16.1583 384.5,16.5C 384.5,15.8333 384.5,15.1667 384.5,14.5 Z"/></g>
<g><path style="opacity:0.012" fill="#110000" d="M 383.5,16.5 C 383.833,16.5 384.167,16.5 384.5,16.5C 384.737,17.791 384.404,18.791 383.5,19.5C 383.5,18.5 383.5,17.5 383.5,16.5 Z"/></g>
<g><path style="opacity:0.012" fill="#110000" d="M 382.5,19.5 C 382.833,19.5 383.167,19.5 383.5,19.5C 383.737,20.791 383.404,21.791 382.5,22.5C 382.5,21.5 382.5,20.5 382.5,19.5 Z"/></g>
<g><path style="opacity:0.012" fill="#0f0000" d="M 243.5,23.5 C 243.897,22.475 244.563,22.3083 245.5,23C 244.906,23.4643 244.239,23.631 243.5,23.5 Z"/></g>
<g><path style="opacity:0.004" fill="#160200" d="M 250.5,25.5 C 250.672,26.4916 250.338,27.1583 249.5,27.5C 249.5,26.8333 249.167,26.5 248.5,26.5C 248.5,25.8333 248.167,25.5 247.5,25.5C 247.5,25.1667 247.5,24.8333 247.5,24.5C 248.222,24.0825 248.722,23.4158 249,22.5C 249.232,23.7375 249.732,24.7375 250.5,25.5 Z"/></g>
<g><path style="opacity:0.012" fill="#0e0000" d="M 420.5,36.5 C 421.601,35.4017 422.934,35.235 424.5,36C 423.207,36.49 421.873,36.6567 420.5,36.5 Z"/></g>
<g><path style="opacity:0.012" fill="#140000" d="M 238.5,36.5 C 239.167,36.5 239.833,36.5 240.5,36.5C 240.214,38.9327 239.548,38.9327 238.5,36.5 Z"/></g>
<g><path style="opacity:0.012" fill="#140000" d="M 425.5,37.5 C 426.601,36.4017 427.934,36.235 429.5,37C 428.207,37.49 426.873,37.6567 425.5,37.5 Z"/></g>
<g><path style="opacity:0.004" fill="#0d0000" d="M 472.5,63.5 C 474.07,62.4407 475.403,62.9407 476.5,65C 475.906,65.4643 475.239,65.631 474.5,65.5C 474.5,64.8333 474.167,64.5 473.5,64.5C 473.5,63.8333 473.167,63.5 472.5,63.5 Z"/></g>
<g><path style="opacity:0.012" fill="#120000" d="M 479.5,70.5 C 479.5,69.8333 479.167,69.5 478.5,69.5C 479.053,67.3431 480.053,67.5097 481.5,70C 480.906,70.4643 480.239,70.631 479.5,70.5 Z"/></g>
<g><path style="opacity:0.004" fill="#0b0100" d="M 483.5,74.5 C 485.268,73.4925 486.601,74.1592 487.5,76.5C 487.376,77.1067 487.043,77.44 486.5,77.5C 486.5,76.8333 486.167,76.5 485.5,76.5C 485.5,75.8333 485.167,75.5 484.5,75.5C 484.5,74.8333 484.167,74.5 483.5,74.5 Z"/></g>
<g><path style="opacity:0.98" fill="#1c0d03" d="M 379.5,-0.5 C 381.5,-0.5 383.5,-0.5 385.5,-0.5C 386.942,0.819534 387.608,2.4862 387.5,4.5C 386.566,5.56764 386.232,6.90097 386.5,8.5C 385.662,8.84171 385.328,9.50838 385.5,10.5C 384.566,11.5676 384.232,12.901 384.5,14.5C 383.662,14.8417 383.328,15.5084 383.5,16.5C 382.596,17.209 382.263,18.209 382.5,19.5C 381.167,20.5 381.167,21.5 382.5,22.5C 382.709,23.9217 383.209,25.255 384,26.5C 385.145,23.5228 387.312,21.8561 390.5,21.5C 394.054,22.0546 397.387,23.2212 400.5,25C 404.116,29.7579 407.45,34.5912 410.5,39.5C 411.5,40.8333 412.5,40.8333 413.5,39.5C 416.521,38.9951 419.521,38.3284 422.5,37.5C 435.755,39.2965 447.755,44.1298 458.5,52C 463.04,56.0455 467.707,59.8788 472.5,63.5C 473.167,63.5 473.5,63.8333 473.5,64.5C 474.167,64.5 474.5,64.8333 474.5,65.5C 475.833,66.8333 477.167,68.1667 478.5,69.5C 479.167,69.5 479.5,69.8333 479.5,70.5C 480.5,72.1667 481.833,73.5 483.5,74.5C 484.167,74.5 484.5,74.8333 484.5,75.5C 485.167,75.5 485.5,75.8333 485.5,76.5C 486.167,76.5 486.5,76.8333 486.5,77.5C 491.825,84.1569 497.491,90.4903 503.5,96.5C 503.5,97.1667 503.833,97.5 504.5,97.5C 505.965,98.7368 507.632,99.7368 509.5,100.5C 513.323,103.144 515.323,106.811 515.5,111.5C 514.833,111.5 514.5,111.833 514.5,112.5C 513.833,112.5 513.5,112.833 513.5,113.5C 512.833,113.5 512.5,113.833 512.5,114.5C 507.351,114.74 506.684,116.074 510.5,118.5C 510.5,119.167 510.833,119.5 511.5,119.5C 511.5,120.167 511.833,120.5 512.5,120.5C 516.32,123.253 519.986,126.253 523.5,129.5C 526.091,133.8 527.091,138.467 526.5,143.5C 525.833,143.5 525.5,143.833 525.5,144.5C 524.833,144.5 524.5,144.833 524.5,145.5C 521.308,145.595 518.308,144.929 515.5,143.5C 515.158,142.662 514.492,142.328 513.5,142.5C 512.828,141.733 511.995,141.066 511,140.5C 510.415,141.998 510.915,142.998 512.5,143.5C 512.5,144.167 512.833,144.5 513.5,144.5C 513.5,145.167 513.833,145.5 514.5,145.5C 514.5,146.167 514.833,146.5 515.5,146.5C 516.11,148.434 517.11,150.101 518.5,151.5C 518.5,152.167 518.833,152.5 519.5,152.5C 520.833,153.833 522.167,155.167 523.5,156.5C 523.5,157.167 523.833,157.5 524.5,157.5C 526.675,159.982 528.675,162.648 530.5,165.5C 530.5,167.833 530.5,170.167 530.5,172.5C 529.069,173.78 528.402,175.447 528.5,177.5C 527.833,177.5 527.5,177.833 527.5,178.5C 525.688,178.771 524.022,179.438 522.5,180.5C 522.624,181.107 522.957,181.44 523.5,181.5C 523.5,182.167 523.833,182.5 524.5,182.5C 526.931,187.893 528.265,193.56 528.5,199.5C 527.5,199.833 526.833,200.5 526.5,201.5C 522.5,201.833 522.5,202.167 526.5,202.5C 525.5,203.167 524.5,203.833 523.5,204.5C 522.539,206.265 522.205,208.265 522.5,210.5C 521.662,210.842 521.328,211.508 521.5,212.5C 517.072,214.808 513.406,213.808 510.5,209.5C 510.573,207.973 509.906,206.973 508.5,206.5C 508.5,205.833 508.167,205.5 507.5,205.5C 507.573,203.973 506.906,202.973 505.5,202.5C 505.672,201.508 505.338,200.842 504.5,200.5C 504.34,198.847 503.674,197.514 502.5,196.5C 502.672,195.508 502.338,194.842 501.5,194.5C 501.477,192.073 500.977,189.74 500,187.5C 499.502,190.482 499.335,193.482 499.5,196.5C 498.662,196.842 498.328,197.508 498.5,198.5C 497.833,198.5 497.5,198.833 497.5,199.5C 496.508,199.328 495.842,199.662 495.5,200.5C 491.5,200.833 491.5,201.167 495.5,201.5C 494.074,202.341 492.74,203.341 491.5,204.5C 491.66,202.801 491.494,201.134 491,199.5C 489.957,202.757 489.457,206.09 489.5,209.5C 488.566,210.568 488.232,211.901 488.5,213.5C 487.218,214.708 487.218,216.042 488.5,217.5C 489.107,217.376 489.44,217.043 489.5,216.5C 493.909,215.618 497.409,216.952 500,220.5C 501.42,227.05 501.92,233.716 501.5,240.5C 500.539,242.265 500.205,244.265 500.5,246.5C 499.596,247.209 499.263,248.209 499.5,249.5C 498.596,250.209 498.263,251.209 498.5,252.5C 497.033,262.31 496.033,272.31 495.5,282.5C 494.532,284.607 494.198,286.941 494.5,289.5C 493.549,290.919 493.216,292.585 493.5,294.5C 492.662,294.842 492.328,295.508 492.5,296.5C 491.662,296.842 491.328,297.508 491.5,298.5C 490.833,298.5 490.5,298.833 490.5,299.5C 489.833,299.5 489.5,299.833 489.5,300.5C 488.833,300.5 488.5,300.833 488.5,301.5C 487.833,301.5 487.5,301.833 487.5,302.5C 486.508,302.328 485.842,302.662 485.5,303.5C 484.448,303.351 483.448,303.517 482.5,304C 483.483,313.942 485.149,323.942 487.5,334C 486.004,337.464 486.337,340.631 488.5,343.5C 487.54,352.759 486.874,362.092 486.5,371.5C 485.842,372.398 485.176,373.398 484.5,374.5C 483.914,374.291 483.414,373.957 483,373.5C 482.187,375.436 481.687,377.436 481.5,379.5C 480.662,379.842 480.328,380.508 480.5,381.5C 479.167,381.833 479.167,382.167 480.5,382.5C 479.833,383.833 478.833,384.833 477.5,385.5C 477.167,382.833 476.833,382.833 476.5,385.5C 475.833,385.5 475.5,385.833 475.5,386.5C 474.84,387.964 474.507,389.631 474.5,391.5C 475.076,397.493 475.576,403.493 476,409.5C 476.333,405.167 476.667,400.833 477,396.5C 477.2,400.753 477.7,404.92 478.5,409C 478.167,409.333 477.833,409.667 477.5,410C 480.243,412.038 483.243,413.538 486.5,414.5C 496.769,420.975 507.102,427.475 517.5,434C 521.719,437.394 525.719,440.894 529.5,444.5C 529.842,445.338 530.508,445.672 531.5,445.5C 538.538,449.012 545.871,452.012 553.5,454.5C 560.538,458.012 567.871,461.012 575.5,463.5C 576.93,464.537 578.597,465.204 580.5,465.5C 587.538,469.012 594.871,472.012 602.5,474.5C 604.509,476.065 606.843,477.065 609.5,477.5C 636.537,488.846 661.537,503.513 684.5,521.5C 684.5,522.167 684.833,522.5 685.5,522.5C 689.5,525.833 693.167,529.5 696.5,533.5C 696.5,534.167 696.833,534.5 697.5,534.5C 698.864,536.191 700.197,537.858 701.5,539.5C 701.5,540.167 701.833,540.5 702.5,540.5C 721.417,567.668 736.084,597.001 746.5,628.5C 746.41,631.152 747.076,633.485 748.5,635.5C 748.232,637.099 748.566,638.432 749.5,639.5C 749.5,639.833 749.5,640.167 749.5,640.5C 747.5,640.5 745.5,640.5 743.5,640.5C 733.453,604.076 717.286,570.743 695,540.5C 673.347,517.533 647.847,500.033 618.5,488C 589.011,475.584 559.344,463.751 529.5,452.5C 526.165,478.163 516.998,501.497 502,522.5C 483.205,547.628 461.372,569.795 436.5,589C 416.705,604.134 395.871,617.634 374,629.5C 333.093,606.959 296.426,578.626 264,544.5C 245.146,523.805 231.146,500.138 222,473.5C 220.121,466.607 218.954,459.607 218.5,452.5C 176.334,467.581 135.334,485.415 95.5,506C 67.7439,522.755 46.5773,545.588 32,574.5C 20.7111,595.537 11.8778,617.537 5.5,640.5C 3.5,640.5 1.5,640.5 -0.5,640.5C -0.5,639.833 -0.5,639.167 -0.5,638.5C 0.403972,637.791 0.737305,636.791 0.5,635.5C 11.4126,598.674 28.4126,565.007 51.5,534.5C 52.1667,534.5 52.5,534.167 52.5,533.5C 56.1667,529.167 60.1667,525.167 64.5,521.5C 65.1667,521.5 65.5,521.167 65.5,520.5C 67.1911,519.136 68.8577,517.803 70.5,516.5C 71.1667,516.5 71.5,516.167 71.5,515.5C 88.9842,502.898 107.651,492.065 127.5,483C 157.641,470.572 187.641,458.072 217.5,445.5C 222.842,439.977 228.842,435.144 235.5,431C 247.506,423.328 259.839,416.162 272.5,409.5C 273.874,402.404 274.541,395.238 274.5,388C 274.49,383.771 273.823,379.938 272.5,376.5C 271.841,373.592 271.007,373.258 270,375.5C 269.316,374.216 269.483,373.049 270.5,372C 269.934,371.005 269.267,370.172 268.5,369.5C 267.489,366.06 266.489,362.726 265.5,359.5C 265.824,352.646 265.491,345.979 264.5,339.5C 264.23,335.15 264.897,330.983 266.5,327C 265.533,322.599 265.2,318.099 265.5,313.5C 266.539,310.917 267.872,308.417 269.5,306C 265.923,303.926 263.256,301.093 261.5,297.5C 260.371,289.662 259.038,281.995 257.5,274.5C 257.672,273.508 257.338,272.842 256.5,272.5C 256.672,271.508 256.338,270.842 255.5,270.5C 255.011,269.005 254.345,267.671 253.5,266.5C 252.41,253.526 252.244,240.526 253,227.5C 255.266,221.788 259.266,220.121 265,222.5C 265.203,220.609 264.703,218.943 263.5,217.5C 262.155,210.453 260.655,203.453 259,196.5C 258.517,197.448 258.351,198.448 258.5,199.5C 254.107,199.543 253.774,199.043 257.5,198C 252.765,196.932 249.598,194.099 248,189.5C 247.501,185.848 247.335,182.182 247.5,178.5C 248.598,177.399 248.765,176.066 248,174.5C 247.487,175.527 246.987,176.527 246.5,177.5C 244.847,177.66 243.514,178.326 242.5,179.5C 240.597,179.796 238.93,180.463 237.5,181.5C 234.077,181.244 232.077,179.411 231.5,176C 235.002,165.831 239.668,156.331 245.5,147.5C 246.167,147.5 246.5,147.167 246.5,146.5C 247.833,143.167 247.833,139.833 246.5,136.5C 245.947,134.448 244.947,134.115 243.5,135.5C 241.585,135.216 239.919,135.549 238.5,136.5C 229.167,136.833 229.167,137.167 238.5,137.5C 234.689,138.645 230.689,138.812 226.5,138C 227.833,137.333 227.833,136.667 226.5,136C 223.671,134.753 221.005,133.253 218.5,131.5C 217.105,132.815 216.105,132.481 215.5,130.5C 216.343,127.623 218.01,125.456 220.5,124C 227.529,122.914 234.529,121.747 241.5,120.5C 245.028,117.03 245.361,113.363 242.5,109.5C 241.883,107.771 240.883,106.271 239.5,105C 236.167,103.333 232.833,101.667 229.5,100C 225.286,95.7998 224.452,90.9664 227,85.5C 228.825,84.8971 230.659,84.2304 232.5,83.5C 231.091,83.3459 229.424,83.1792 227.5,83C 229.179,81.1742 230.346,79.0076 231,76.5C 231.333,77.1667 231.667,77.8333 232,78.5C 232.707,76.9194 233.54,75.4194 234.5,74C 233.366,72.984 233.699,72.3173 235.5,72C 231.094,70.7416 228.594,67.9083 228,63.5C 227.667,65.1667 227.333,66.8333 227,68.5C 226.149,65.947 226.482,63.6137 228,61.5C 228.333,61.8333 228.667,62.1667 229,62.5C 230.579,60.9588 232.413,59.7922 234.5,59C 239.568,58.6815 244.568,59.1815 249.5,60.5C 251.277,59.3995 253.277,58.5662 255.5,58C 250.585,57.1484 246.418,54.9818 243,51.5C 242.333,50.1667 242.333,48.8333 243,47.5C 245.071,46.4752 247.238,45.6419 249.5,45C 246.604,41.9343 243.604,39.1009 240.5,36.5C 239.833,35.1667 239.167,35.1667 238.5,36.5C 235.336,32.1153 236.003,27.9487 240.5,24C 241.448,23.5172 242.448,23.3505 243.5,23.5C 244.514,24.6737 245.847,25.3404 247.5,25.5C 248.167,25.5 248.5,25.8333 248.5,26.5C 249.167,26.5 249.5,26.8333 249.5,27.5C 250.29,28.4013 251.29,29.0679 252.5,29.5C 252.34,27.847 251.674,26.5137 250.5,25.5C 249.226,17.2878 252.559,13.4544 260.5,14C 263.692,16.0282 266.359,18.5282 268.5,21.5C 268.5,22.1667 268.833,22.5 269.5,22.5C 271.137,26.1178 273.137,29.4512 275.5,32.5C 275.5,33.1667 275.833,33.5 276.5,33.5C 278.833,34.8333 281.167,34.8333 283.5,33.5C 286.833,33.5 290.167,33.5 293.5,33.5C 293.973,34.9063 294.973,35.573 296.5,35.5C 296.5,36.1667 296.833,36.5 297.5,36.5C 297.5,37.1667 297.833,37.5 298.5,37.5C 299.942,40.1997 300.608,39.8664 300.5,36.5C 297.987,28.6871 299.653,22.0205 305.5,16.5C 307.027,16.573 308.027,15.9063 308.5,14.5C 310.857,14.3367 313.19,14.5034 315.5,15C 316.066,15.9947 316.733,16.828 317.5,17.5C 316.167,18.5 316.167,19.5 317.5,20.5C 314.898,26.8434 314.898,33.1767 317.5,39.5C 317.5,40.8333 317.5,42.1667 317.5,43.5C 318.791,43.7373 319.791,43.404 320.5,42.5C 323.918,41.8118 327.251,40.8118 330.5,39.5C 330.376,38.8933 330.043,38.56 329.5,38.5C 329.621,32.9854 329.621,27.6521 329.5,22.5C 330.788,20.2612 331.788,17.9279 332.5,15.5C 334.027,15.573 335.027,14.9063 335.5,13.5C 339.906,11.8724 342.906,13.2058 344.5,17.5C 344.497,22.5275 344.164,27.5275 343.5,32.5C 342.766,33.8775 342.099,35.3775 341.5,37C 343.387,37.7796 345.054,37.6129 346.5,36.5C 347.492,36.6716 348.158,36.3382 348.5,35.5C 350.027,35.573 351.027,34.9063 351.5,33.5C 352.167,33.5 352.5,33.1667 352.5,32.5C 353.338,32.1583 353.672,31.4916 353.5,30.5C 354.404,29.791 354.737,28.791 354.5,27.5C 353.5,27.5 352.5,27.5 351.5,27.5C 351.5,26.5 351.5,25.5 351.5,24.5C 352.097,24.2648 352.43,23.7648 352.5,23C 351.652,21.3336 350.652,19.8336 349.5,18.5C 349.5,16.5 348.5,15.5 346.5,15.5C 346.5,14.8333 346.167,14.5 345.5,14.5C 344.136,12.8089 342.803,11.1423 341.5,9.5C 342.587,5.60285 345.254,3.60285 349.5,3.5C 352.639,4.57044 355.639,5.90378 358.5,7.5C 358.427,9.02694 359.094,10.0269 360.5,10.5C 361.596,13.0316 362.929,15.3649 364.5,17.5C 364.312,19.1033 364.812,20.4366 366,21.5C 366.464,20.9056 366.631,20.2389 366.5,19.5C 367.856,15.4562 369.523,11.4562 371.5,7.5C 372.906,7.02694 373.573,6.02694 373.5,4.5C 375.54,2.82296 377.54,1.15629 379.5,-0.5 Z M 257.5,59.5 C 258.473,59.9867 259.473,60.4867 260.5,61C 256.642,61.8099 252.976,61.6433 249.5,60.5C 252.385,60.8064 255.052,60.4731 257.5,59.5 Z M 380.5,25.5 C 380.216,27.4147 380.549,29.0813 381.5,30.5C 381.631,31.3764 381.298,32.0431 380.5,32.5C 379.203,30.0268 379.203,27.6934 380.5,25.5 Z M 250.5,25.5 C 251.674,26.5137 252.34,27.847 252.5,29.5C 251.29,29.0679 250.29,28.4013 249.5,27.5C 250.338,27.1583 250.672,26.4916 250.5,25.5 Z M 258.5,81.5 C 260.666,80.3711 262.666,80.8711 264.5,83C 262.494,82.8497 260.494,82.3497 258.5,81.5 Z M 317.5,39.5 C 317.833,39.5 318.167,39.5 318.5,39.5C 318.285,41.1788 318.952,42.1788 320.5,42.5C 319.791,43.404 318.791,43.7373 317.5,43.5C 317.5,42.1667 317.5,40.8333 317.5,39.5 Z M 349.5,33.5 C 350.167,33.5 350.833,33.5 351.5,33.5C 351.027,34.9063 350.027,35.573 348.5,35.5C 348.5,35.1667 348.5,34.8333 348.5,34.5C 349.167,34.5 349.5,34.1667 349.5,33.5 Z M 293.5,33.5 C 295.027,33.427 296.027,34.0937 296.5,35.5C 294.973,35.573 293.973,34.9063 293.5,33.5 Z M 343.5,32.5 C 343.5,33.8333 343.5,35.1667 343.5,36.5C 344.5,36.5 345.5,36.5 346.5,36.5C 345.054,37.6129 343.387,37.7796 341.5,37C 342.099,35.3775 342.766,33.8775 343.5,32.5 Z M 364.5,17.5 C 365.167,18.1667 365.833,18.8333 366.5,19.5C 366.631,20.2389 366.464,20.9056 366,21.5C 364.812,20.4366 364.312,19.1033 364.5,17.5 Z M 347.5,17.5 C 347.5,18.1667 347.833,18.5 348.5,18.5C 349.508,20.5439 350.508,22.5439 351.5,24.5C 351.5,25.5 351.5,26.5 351.5,27.5C 352.5,27.5 353.5,27.5 354.5,27.5C 354.737,28.791 354.404,29.791 353.5,30.5C 353.167,27.8333 352.833,27.8333 352.5,30.5C 351.167,31.1667 350.167,32.1667 349.5,33.5C 348.833,33.5 348.5,33.8333 348.5,34.5C 347.508,34.3284 346.842,34.6618 346.5,35.5C 344.952,35.1788 344.285,34.1788 344.5,32.5C 345.827,27.5571 346.827,22.5571 347.5,17.5 Z M 346.5,16.5 C 346.5,16.1667 346.5,15.8333 346.5,15.5C 348.5,15.5 349.5,16.5 349.5,18.5C 349.167,18.5 348.833,18.5 348.5,18.5C 347.833,18.5 347.5,18.1667 347.5,17.5C 347.5,16.8333 347.167,16.5 346.5,16.5 Z M 308.5,14.5 C 308.027,15.9063 307.027,16.573 305.5,16.5C 305.973,15.0937 306.973,14.427 308.5,14.5 Z M 335.5,13.5 C 335.027,14.9063 334.027,15.573 332.5,15.5C 332.973,14.0937 333.973,13.427 335.5,13.5 Z M 358.5,7.5 C 359.906,7.97306 360.573,8.97306 360.5,10.5C 359.094,10.0269 358.427,9.02694 358.5,7.5 Z M 373.5,4.5 C 373.573,6.02694 372.906,7.02694 371.5,7.5C 371.427,5.97306 372.094,4.97306 373.5,4.5 Z M 243.5,135.5 C 244.947,134.115 245.947,134.448 246.5,136.5C 246.167,136.5 245.833,136.5 245.5,136.5C 245.158,135.662 244.492,135.328 243.5,135.5 Z M 513.5,142.5 C 512.833,142.5 512.5,142.833 512.5,143.5C 510.915,142.998 510.415,141.998 511,140.5C 511.995,141.066 512.828,141.733 513.5,142.5 Z M 247.5,178.5 C 247.5,177.833 247.167,177.5 246.5,177.5C 246.987,176.527 247.487,175.527 248,174.5C 248.765,176.066 248.598,177.399 247.5,178.5 Z M 246.5,177.5 C 246.5,177.833 246.5,178.167 246.5,178.5C 245.292,179.234 243.959,179.567 242.5,179.5C 243.514,178.326 244.847,177.66 246.5,177.5 Z M 242.5,179.5 C 242.5,179.833 242.5,180.167 242.5,180.5C 240.958,181.301 239.292,181.634 237.5,181.5C 238.93,180.463 240.597,179.796 242.5,179.5 Z M 501.5,194.5 C 500.833,195.167 500.167,195.833 499.5,196.5C 499.335,193.482 499.502,190.482 500,187.5C 500.977,189.74 501.477,192.073 501.5,194.5 Z M 502.5,196.5 C 503.674,197.514 504.34,198.847 504.5,200.5C 502.896,199.713 502.229,198.38 502.5,196.5 Z M 491.5,204.5 C 490.833,206.167 490.167,207.833 489.5,209.5C 489.457,206.09 489.957,202.757 491,199.5C 491.494,201.134 491.66,202.801 491.5,204.5 Z M 505.5,202.5 C 506.906,202.973 507.573,203.973 507.5,205.5C 506.094,205.027 505.427,204.027 505.5,202.5 Z M 508.5,206.5 C 509.906,206.973 510.573,207.973 510.5,209.5C 509.094,209.027 508.427,208.027 508.5,206.5 Z"/></g>
<g><path style="opacity:1" fill="#cf9d7b" d="M 500.5,136.5 C 508.515,146.344 516.682,156.011 525,165.5C 525.936,168.792 525.436,171.792 523.5,174.5C 516.091,165.926 509.258,156.926 503,147.5C 500.743,145.954 498.576,144.288 496.5,142.5C 495.28,142.887 494.613,143.72 494.5,145C 500.59,159.75 509.09,172.916 520,184.5C 521.17,187.505 522.336,190.505 523.5,193.5C 523.267,194.932 522.6,195.432 521.5,195C 514.147,189.307 508.647,182.14 505,173.5C 501.578,168.322 497.911,163.322 494,158.5C 490.371,149.906 486.371,141.572 482,133.5C 480.867,131.789 479.367,131.289 477.5,132C 476.409,134.064 476.242,136.231 477,138.5C 480.636,145.771 484.302,153.104 488,160.5C 489.314,163.089 489.981,165.756 490,168.5C 480.029,154.221 471.362,139.221 464,123.5C 461.39,119.382 458.557,115.382 455.5,111.5C 454.311,110.571 452.978,110.238 451.5,110.5C 451.523,112.927 452.023,115.26 453,117.5C 457.984,127.469 462.984,137.469 468,147.5C 474.164,155.825 479.831,164.492 485,173.5C 485.667,176.5 485.667,179.5 485,182.5C 482.909,183.5 481.243,182.833 480,180.5C 473.588,168.007 466.921,155.674 460,143.5C 456.136,134.904 452.469,126.237 449,117.5C 447.542,115.04 445.709,112.873 443.5,111C 442.551,110.383 441.718,110.549 441,111.5C 440.833,112.667 440.667,113.833 440.5,115C 443.939,122.822 446.273,130.989 447.5,139.5C 448.226,142.958 446.893,144.625 443.5,144.5C 439.711,131.724 436.878,118.724 435,105.5C 431.62,100.142 426.954,97.8092 421,98.5C 421.278,102.139 421.278,105.806 421,109.5C 416.49,105.316 413.157,100.316 411,94.5C 407.295,90.7333 402.962,89.7333 398,91.5C 397.333,94.8333 396.667,98.1667 396,101.5C 395.586,101.957 395.086,102.291 394.5,102.5C 392.791,96.6597 391.625,90.6597 391,84.5C 390.25,83.8742 389.416,83.3742 388.5,83C 375.899,83.8459 363.233,84.5126 350.5,85C 343.396,87.1425 336.063,88.4758 328.5,89C 326.208,90.2899 324.208,91.9565 322.5,94C 310.714,98.2245 299.381,103.558 288.5,110C 281.287,117.513 273.787,124.679 266,131.5C 264.798,134.774 263.798,138.107 263,141.5C 262.667,153.5 262.333,165.5 262,177.5C 261.624,183.136 259.791,188.136 256.5,192.5C 252.996,189.983 251.663,186.483 252.5,182C 253.373,176.394 254.373,170.727 255.5,165C 255.094,161.298 253.427,160.632 250.5,163C 248.012,166.807 245.345,170.473 242.5,174C 240.523,175.541 238.523,176.041 236.5,175.5C 241.327,164.513 246.66,153.846 252.5,143.5C 251.832,139.47 251.166,135.47 250.5,131.5C 252.958,131.773 254.625,130.773 255.5,128.5C 254.167,124.5 254.167,120.5 255.5,116.5C 257.635,115.355 259.801,115.355 262,116.5C 262.945,116.095 263.612,115.428 264,114.5C 263.944,109.55 263.11,104.717 261.5,100C 262.593,98.6346 263.926,98.3013 265.5,99C 268.02,100.763 270.353,102.763 272.5,105C 278.315,106.261 281.315,103.928 281.5,98C 277.004,86.4905 280.004,83.4905 290.5,89C 295.098,90.0906 297.931,88.2573 299,83.5C 300.231,78.1759 301.398,72.8426 302.5,67.5C 306.052,76.0904 312.385,78.9237 321.5,76C 323.246,75.5291 324.913,74.8624 326.5,74C 329.008,70.6619 331.675,67.4952 334.5,64.5C 337.013,68.8578 340.013,72.8578 343.5,76.5C 344.814,75.6872 345.981,74.6872 347,73.5C 349.217,67.6744 351.717,62.0077 354.5,56.5C 355.367,59.935 356.534,63.2683 358,66.5C 363.469,70.363 368.469,69.6963 373,64.5C 375.863,59.4328 378.696,54.4328 381.5,49.5C 382.478,49.9767 383.311,50.6433 384,51.5C 385.398,55.8598 386.898,60.1931 388.5,64.5C 389.167,64.8333 389.833,65.1667 390.5,65.5C 397.025,62.9781 402.025,58.6447 405.5,52.5C 407.406,60.078 408.906,67.7447 410,75.5C 410.792,77.5873 411.959,79.4207 413.5,81C 415.367,81.7112 416.867,81.2112 418,79.5C 420.246,74.6743 422.746,70.0077 425.5,65.5C 426.605,71.0918 427.938,76.5918 429.5,82C 431.289,82.5205 432.956,82.1871 434.5,81C 437.728,76.9021 441.728,74.0688 446.5,72.5C 447.805,80.5239 449.305,88.5239 451,96.5C 451.414,96.9574 451.914,97.2907 452.5,97.5C 456.731,95.3687 461.064,93.8687 465.5,93C 464.196,98.1139 464.196,103.281 465.5,108.5C 467.5,107.167 469.5,105.833 471.5,104.5C 471.998,108.425 471.998,112.425 471.5,116.5C 474.016,116.245 476.35,115.411 478.5,114C 480.993,111.92 483.659,110.086 486.5,108.5C 488.648,117.012 489.814,125.679 490,134.5C 493.528,137.452 497.028,138.119 500.5,136.5 Z"/></g>
<g><path style="opacity:0.024" fill="#1e0400" d="M 413.5,39.5 C 412.5,39.5 411.5,39.5 410.5,39.5C 410.957,37.4433 411.957,37.4433 413.5,39.5 Z"/></g>
<g><path style="opacity:0.012" fill="#140000" d="M 247.5,24.5 C 246.833,23.1667 246.833,23.1667 247.5,24.5 Z"/></g>
<g><path style="opacity:1" fill="#e6bb9d" d="M 500.5,136.5 C 497.028,138.119 493.528,137.452 490,134.5C 489.814,125.679 488.648,117.012 486.5,108.5C 483.659,110.086 480.993,111.92 478.5,114C 476.35,115.411 474.016,116.245 471.5,116.5C 471.998,112.425 471.998,108.425 471.5,104.5C 469.5,105.833 467.5,107.167 465.5,108.5C 464.196,103.281 464.196,98.1139 465.5,93C 461.064,93.8687 456.731,95.3687 452.5,97.5C 451.914,97.2907 451.414,96.9574 451,96.5C 449.305,88.5239 447.805,80.5239 446.5,72.5C 441.728,74.0688 437.728,76.9021 434.5,81C 432.956,82.1871 431.289,82.5205 429.5,82C 427.938,76.5918 426.605,71.0918 425.5,65.5C 422.746,70.0077 420.246,74.6743 418,79.5C 416.867,81.2112 415.367,81.7112 413.5,81C 411.959,79.4207 410.792,77.5873 410,75.5C 408.906,67.7447 407.406,60.078 405.5,52.5C 402.025,58.6447 397.025,62.9781 390.5,65.5C 389.833,65.1667 389.167,64.8333 388.5,64.5C 386.898,60.1931 385.398,55.8598 384,51.5C 383.311,50.6433 382.478,49.9767 381.5,49.5C 378.696,54.4328 375.863,59.4328 373,64.5C 368.469,69.6963 363.469,70.363 358,66.5C 356.534,63.2683 355.367,59.935 354.5,56.5C 351.717,62.0077 349.217,67.6744 347,73.5C 345.981,74.6872 344.814,75.6872 343.5,76.5C 340.013,72.8578 337.013,68.8578 334.5,64.5C 331.675,67.4952 329.008,70.6619 326.5,74C 324.913,74.8624 323.246,75.5291 321.5,76C 312.385,78.9237 306.052,76.0904 302.5,67.5C 301.398,72.8426 300.231,78.1759 299,83.5C 297.931,88.2573 295.098,90.0906 290.5,89C 280.004,83.4905 277.004,86.4905 281.5,98C 281.315,103.928 278.315,106.261 272.5,105C 270.353,102.763 268.02,100.763 265.5,99C 263.926,98.3013 262.593,98.6346 261.5,100C 263.11,104.717 263.944,109.55 264,114.5C 263.612,115.428 262.945,116.095 262,116.5C 259.801,115.355 257.635,115.355 255.5,116.5C 254.167,120.5 254.167,124.5 255.5,128.5C 254.625,130.773 252.958,131.773 250.5,131.5C 247.091,129.04 243.425,128.874 239.5,131C 235.167,131.667 230.833,131.667 226.5,131C 225.328,130.581 224.328,129.915 223.5,129C 229.323,127.105 235.323,126.105 241.5,126C 252.001,117.882 252.001,109.548 241.5,101C 237.581,99.4597 234.081,97.2931 231,94.5C 230.219,93.0563 230.386,91.723 231.5,90.5C 235.705,94.4463 239.872,94.4463 244,90.5C 244.667,89.5 244.667,88.5 244,87.5C 242.019,85.3425 239.686,83.6759 237,82.5C 236.28,80.8876 236.446,79.3876 237.5,78C 246.073,80.3118 254.407,83.6451 262.5,88C 268.667,89.8333 270.833,87.6667 269,81.5C 267.833,80.3333 266.667,79.1667 265.5,78C 254.693,74.1211 244.026,69.9545 233.5,65.5C 234.527,63.976 236.027,63.3094 238,63.5C 243.64,64.2442 249.14,65.2442 254.5,66.5C 257.592,66.4931 260.592,65.9931 263.5,65C 265.36,60.8493 264.36,57.516 260.5,55C 257.592,54.3112 254.925,53.1445 252.5,51.5C 254.045,50.5481 255.712,50.2148 257.5,50.5C 257.736,47.7743 256.903,45.441 255,43.5C 250.366,39.8679 246.033,35.8679 242,31.5C 241.437,30.2752 241.77,29.2752 243,28.5C 250.553,35.6871 258.386,42.5204 266.5,49C 271.531,52.1244 276.864,53.7911 282.5,54C 286.366,51.4212 286.366,48.7545 282.5,46C 269.509,42.1844 260.175,34.1844 254.5,22C 254.688,20.1182 255.688,18.9515 257.5,18.5C 260.743,20.2347 263.577,22.5681 266,25.5C 268.25,29.6682 270.75,33.6682 273.5,37.5C 275.295,38.2651 277.128,38.9318 279,39.5C 283.163,38.5419 287.329,38.0419 291.5,38C 295.066,41.5664 298.566,45.0664 302,48.5C 302.772,48.3552 303.439,48.0219 304,47.5C 305.561,40.9968 305.394,34.4968 303.5,28C 305.243,24.0876 307.91,20.9209 311.5,18.5C 311.833,19 312.167,19.5 312.5,20C 309.798,28.2187 309.964,36.3854 313,44.5C 313.734,46.7358 315.234,48.0692 317.5,48.5C 322.734,46.5246 328.067,44.858 333.5,43.5C 333.014,36.1637 333.514,28.8304 335,21.5C 337.929,15.9425 339.429,16.2759 339.5,22.5C 338.714,28.2431 337.881,33.9098 337,39.5C 339.653,42.1941 342.82,43.0274 346.5,42C 360.13,35.8622 362.297,26.6956 353,14.5C 351.316,12.6487 349.483,10.982 347.5,9.5C 350.829,8.57445 353.663,9.57445 356,12.5C 358.861,16.8878 361.194,21.5545 363,26.5C 365.034,29.859 367.368,30.1924 370,27.5C 370.139,17.889 373.972,10.2223 381.5,4.5C 382.288,6.32893 381.788,7.9956 380,9.5C 378.012,15.9702 376.179,22.4702 374.5,29C 374.487,32.6373 375.82,35.6373 378.5,38C 380.289,38.5205 381.956,38.1871 383.5,37C 385.279,33.9438 386.946,30.7771 388.5,27.5C 391.239,26.2327 393.906,26.3994 396.5,28C 400.697,32.2242 404.03,37.0575 406.5,42.5C 407.665,43.5836 408.998,44.4169 410.5,45C 414.776,44.3084 419.109,43.4751 423.5,42.5C 430.697,43.9541 437.697,46.1208 444.5,49C 464.182,60.6814 480.682,75.8481 494,94.5C 499.043,99.2121 504.377,103.545 510,107.5C 510.483,108.448 510.649,109.448 510.5,110.5C 505.806,109.88 501.306,108.547 497,106.5C 495.72,106.613 494.887,107.28 494.5,108.5C 498.686,112.851 502.686,117.351 506.5,122C 510.91,125.621 515.41,129.121 520,132.5C 521.601,135.094 521.767,137.761 520.5,140.5C 513.833,136.833 507.167,133.167 500.5,129.5C 499.5,129.833 498.833,130.5 498.5,131.5C 499.174,133.195 499.841,134.862 500.5,136.5 Z M 258.5,81.5 C 260.494,82.3497 262.494,82.8497 264.5,83C 262.666,80.8711 260.666,80.3711 258.5,81.5 Z M 317.5,39.5 C 317.833,39.5 318.167,39.5 318.5,39.5C 318.285,41.1788 318.952,42.1788 320.5,42.5C 319.791,43.404 318.791,43.7373 317.5,43.5C 317.5,42.1667 317.5,40.8333 317.5,39.5 Z M 349.5,33.5 C 350.167,33.5 350.833,33.5 351.5,33.5C 351.027,34.9063 350.027,35.573 348.5,35.5C 348.5,35.1667 348.5,34.8333 348.5,34.5C 349.167,34.5 349.5,34.1667 349.5,33.5 Z M 293.5,33.5 C 295.027,33.427 296.027,34.0937 296.5,35.5C 294.973,35.573 293.973,34.9063 293.5,33.5 Z M 343.5,32.5 C 343.5,33.8333 343.5,35.1667 343.5,36.5C 344.5,36.5 345.5,36.5 346.5,36.5C 345.054,37.6129 343.387,37.7796 341.5,37C 342.099,35.3775 342.766,33.8775 343.5,32.5 Z M 364.5,17.5 C 365.167,18.1667 365.833,18.8333 366.5,19.5C 366.631,20.2389 366.464,20.9056 366,21.5C 364.812,20.4366 364.312,19.1033 364.5,17.5 Z M 347.5,17.5 C 347.5,18.1667 347.833,18.5 348.5,18.5C 349.508,20.5439 350.508,22.5439 351.5,24.5C 351.5,25.5 351.5,26.5 351.5,27.5C 352.5,27.5 353.5,27.5 354.5,27.5C 354.737,28.791 354.404,29.791 353.5,30.5C 353.167,27.8333 352.833,27.8333 352.5,30.5C 351.167,31.1667 350.167,32.1667 349.5,33.5C 348.833,33.5 348.5,33.8333 348.5,34.5C 347.508,34.3284 346.842,34.6618 346.5,35.5C 344.952,35.1788 344.285,34.1788 344.5,32.5C 345.827,27.5571 346.827,22.5571 347.5,17.5 Z"/></g>
<g><path style="opacity:0.012" fill="#180100" d="M 318.5,39.5 C 319.401,40.2905 320.068,41.2905 320.5,42.5C 318.952,42.1788 318.285,41.1788 318.5,39.5 Z"/></g>
<g><path style="opacity:0.012" fill="#140000" d="M 322.5,40.5 C 323.251,39.4265 324.251,39.2599 325.5,40C 324.552,40.4828 323.552,40.6495 322.5,40.5 Z"/></g>
<g><path style="opacity:0.012" fill="#1a0300" d="M 298.5,37.5 C 297.833,37.5 297.5,37.1667 297.5,36.5C 297.783,35.7109 298.283,35.0442 299,34.5C 299.74,35.7494 299.573,36.7494 298.5,37.5 Z"/></g>
<g><path style="opacity:0.012" fill="#120100" d="M 352.5,30.5 C 352.5,31.1667 352.5,31.8333 352.5,32.5C 351.833,32.5 351.5,32.8333 351.5,33.5C 350.833,33.5 350.167,33.5 349.5,33.5C 350.167,32.1667 351.167,31.1667 352.5,30.5 Z"/></g>
<g><path style="opacity:0.012" fill="#180100" d="M 343.5,32.5 C 343.833,32.5 344.167,32.5 344.5,32.5C 344.285,34.1788 344.952,35.1788 346.5,35.5C 346.5,35.8333 346.5,36.1667 346.5,36.5C 345.5,36.5 344.5,36.5 343.5,36.5C 343.5,35.1667 343.5,33.8333 343.5,32.5 Z"/></g>
<g><path style="opacity:0.012" fill="#170100" d="M 283.5,33.5 C 281.167,33.5 278.833,33.5 276.5,33.5C 275.833,33.5 275.5,33.1667 275.5,32.5C 275.369,31.7611 275.536,31.0944 276,30.5C 278.378,31.9669 280.878,32.9669 283.5,33.5 Z"/></g>
<g><path style="opacity:0.012" fill="#150000" d="M 329.5,38.5 C 328.749,39.5735 327.749,39.7401 326.5,39C 327.305,34.2512 327.805,29.4179 328,24.5C 328.174,29.3514 328.674,34.0181 329.5,38.5 Z"/></g>
<g><path style="opacity:0.012" fill="#120000" d="M 297.5,24.5 C 298.638,27.3035 298.805,30.3035 298,33.5C 297.502,30.5184 297.335,27.5184 297.5,24.5 Z"/></g>
<g><path style="opacity:0.004" fill="#060000" d="M 317.5,20.5 C 317.833,20.5 318.167,20.5 318.5,20.5C 318.167,27.1667 317.833,27.1667 317.5,20.5 Z"/></g>
<g><path style="opacity:0.004" fill="#000000" d="M 327.5,21.5 C 328.525,21.8966 328.692,22.5632 328,23.5C 327.536,22.9056 327.369,22.2389 327.5,21.5 Z"/></g>
<g><path style="opacity:0.004" fill="#090000" d="M 269.5,22.5 C 268.833,22.5 268.5,22.1667 268.5,21.5C 268.747,19.0248 269.413,19.0248 270.5,21.5C 270.376,22.1067 270.043,22.44 269.5,22.5 Z"/></g>
<g><path style="opacity:0.004" fill="#000000" d="M 318.5,19.5 C 319.833,20.1667 319.833,20.1667 318.5,19.5 Z"/></g>
<g><path style="opacity:0.024" fill="#1e0500" d="M 366.5,19.5 C 365.833,18.8333 365.167,18.1667 364.5,17.5C 364.369,16.7611 364.536,16.0944 365,15.5C 366.188,16.5634 366.688,17.8967 366.5,19.5 Z"/></g>
<g><path style="opacity:0.004" fill="#000000" d="M 318.5,17.5 C 319.833,18.1667 319.833,18.1667 318.5,17.5 Z"/></g>
<g><path style="opacity:0.012" fill="#190100" d="M 345.5,14.5 C 346.167,14.5 346.5,14.8333 346.5,15.5C 346.5,15.8333 346.5,16.1667 346.5,16.5C 345.833,16.8333 345.167,17.1667 344.5,17.5C 344.263,16.209 344.596,15.209 345.5,14.5 Z"/></g>
<g><path style="opacity:0.012" fill="#140000" d="M 318.5,17.5 C 318.167,17.5 317.833,17.5 317.5,17.5C 317.833,14.8333 318.167,14.8333 318.5,17.5 Z"/></g>
<g><path style="opacity:0.012" fill="#110000" d="M 366.5,12.5 C 367.573,13.2506 367.74,14.2506 367,15.5C 366.517,14.552 366.351,13.552 366.5,12.5 Z"/></g>
<g><path style="opacity:0.012" fill="#140000" d="M 224.5,85.5 C 225.833,86.1667 225.833,86.1667 224.5,85.5 Z"/></g>
<g><path style="opacity:0.012" fill="#190100" d="M 223.5,87.5 C 224.634,89.9664 224.801,92.633 224,95.5C 223.503,92.854 223.336,90.1873 223.5,87.5 Z"/></g>
<g><path style="opacity:0.012" fill="#110000" d="M 503.5,96.5 C 504.497,95.2875 505.497,95.4542 506.5,97C 505.906,97.4643 505.239,97.631 504.5,97.5C 503.833,97.5 503.5,97.1667 503.5,96.5 Z"/></g>
<g><path style="opacity:1" fill="#ba7d5c" d="M 403.5,98.5 C 409.14,109.918 413.307,121.918 416,134.5C 417.696,147.283 416.196,159.616 411.5,171.5C 409.167,172.167 406.833,172.833 404.5,173.5C 395.673,174.685 389.007,179.018 384.5,186.5C 383.778,186.918 383.278,187.584 383,188.5C 382.333,192.5 382.333,196.5 383,200.5C 385.809,208.786 389.643,216.452 394.5,223.5C 394.272,225.355 394.939,226.188 396.5,226C 395.398,223.599 395.231,221.099 396,218.5C 399.613,228.426 406.78,234.259 417.5,236C 434.318,239.532 449.652,236.365 463.5,226.5C 465.146,227.779 466.313,229.445 467,231.5C 467.877,238.249 467.544,244.916 466,251.5C 463.192,258.661 458.026,263.161 450.5,265C 441.808,270.93 437.808,279.097 438.5,289.5C 437.188,287.359 435.355,285.692 433,284.5C 432.833,284.833 432.667,285.167 432.5,285.5C 435.337,287.992 437.337,290.992 438.5,294.5C 440.126,300.705 441.126,307.038 441.5,313.5C 441.333,315.5 441.167,317.5 441,319.5C 440.329,320.252 439.496,320.586 438.5,320.5C 437.705,313.913 437.205,307.246 437,300.5C 435.559,297.12 433.726,293.953 431.5,291C 419.079,283.304 405.579,278.804 391,277.5C 382.855,276.15 379.688,279.483 381.5,287.5C 381.833,288.167 382.167,288.833 382.5,289.5C 379.595,290.701 376.595,290.534 373.5,289C 362.162,287.677 351.496,289.51 341.5,294.5C 337.752,295.538 334.085,296.871 330.5,298.5C 329.584,298.457 328.917,298.124 328.5,297.5C 333.805,292.664 340.139,289.831 347.5,289C 357.422,286.505 367.422,286.005 377.5,287.5C 379.105,281.514 376.938,278.514 371,278.5C 358.455,280.396 345.955,282.563 333.5,285C 328.716,287.45 324.883,290.95 322,295.5C 321.667,304.833 321.333,314.167 321,323.5C 316.368,323.551 311.535,323.384 306.5,323C 304.412,321.97 302.245,321.137 300,320.5C 293.776,314.392 287.776,308.058 282,301.5C 281.381,298.968 280.381,296.635 279,294.5C 278.977,275.401 277.81,256.401 275.5,237.5C 276.721,227.849 277.721,218.183 278.5,208.5C 278.782,204.426 279.448,200.426 280.5,196.5C 281.5,192.501 282.5,188.501 283.5,184.5C 283.334,174.161 283.5,163.828 284,153.5C 284.551,146.178 286.885,139.511 291,133.5C 317.834,105.685 350.667,93.3512 389.5,96.5C 389.89,99.8394 390.39,103.173 391,106.5C 391.739,107.574 392.739,108.241 394,108.5C 397.754,106.241 399.587,102.907 399.5,98.5C 400.833,98.5 402.167,98.5 403.5,98.5 Z"/></g>
<g><path style="opacity:0.024" fill="#250800" d="M 509.5,99.5 C 510.833,100.167 510.833,100.167 509.5,99.5 Z"/></g>
<g><path style="opacity:1" fill="#ac6d50" d="M 403.5,98.5 C 405.199,98.3398 406.866,98.5065 408.5,99C 411.053,104.552 414.72,109.219 419.5,113C 421.235,113.651 422.902,113.485 424.5,112.5C 425.167,109.167 425.833,105.833 426.5,102.5C 430.932,105.585 432.765,109.919 432,115.5C 434.245,126.06 437.245,136.394 441,146.5C 444.534,149.201 447.867,148.867 451,145.5C 451.817,140.855 451.317,136.355 449.5,132C 449.611,130.278 450.111,130.112 451,131.5C 457.323,147.146 464.99,162.146 474,176.5C 474.977,178.74 475.477,181.073 475.5,183.5C 476.507,195.894 478.174,208.227 480.5,220.5C 477.847,243.737 475.68,267.07 474,290.5C 471.576,295.016 469.41,299.683 467.5,304.5C 462.68,309.296 457.68,314.129 452.5,319C 448.94,320.364 445.44,321.864 442,323.5C 439.725,323.722 438.559,322.722 438.5,320.5C 439.496,320.586 440.329,320.252 441,319.5C 441.167,317.5 441.333,315.5 441.5,313.5C 441.126,307.038 440.126,300.705 438.5,294.5C 439.268,295.263 439.768,296.263 440,297.5C 440.718,294.593 440.218,291.926 438.5,289.5C 437.808,279.097 441.808,270.93 450.5,265C 458.026,263.161 463.192,258.661 466,251.5C 467.544,244.916 467.877,238.249 467,231.5C 466.313,229.445 465.146,227.779 463.5,226.5C 449.652,236.365 434.318,239.532 417.5,236C 406.78,234.259 399.613,228.426 396,218.5C 395.231,221.099 395.398,223.599 396.5,226C 394.939,226.188 394.272,225.355 394.5,223.5C 392.498,214.148 389.331,205.148 385,196.5C 384.502,193.183 384.335,189.85 384.5,186.5C 389.007,179.018 395.673,174.685 404.5,173.5C 403.565,176.113 403.398,178.779 404,181.5C 404.75,182.126 405.584,182.626 406.5,183C 417.158,182.734 427.824,182.734 438.5,183C 450.776,184.106 460.109,189.939 466.5,200.5C 468.623,185.622 462.29,176.122 447.5,172C 435.505,171.5 423.505,171.333 411.5,171.5C 416.196,159.616 417.696,147.283 416,134.5C 413.307,121.918 409.14,109.918 403.5,98.5 Z"/></g>
<g><path style="opacity:0.012" fill="#140000" d="M 511.5,100.5 C 512.833,101.167 512.833,101.167 511.5,100.5 Z"/></g>
<g><path style="opacity:0.024" fill="#1e0400" d="M 516.5,111.5 C 516.34,109.801 516.506,108.134 517,106.5C 517.78,108.387 517.613,110.054 516.5,111.5 Z"/></g>
<g><path style="opacity:0.012" fill="#1b0200" d="M 242.5,109.5 C 242.631,110.239 242.464,110.906 242,111.5C 241.308,110.563 241.475,109.897 242.5,109.5 Z"/></g>
<g><path style="opacity:0.012" fill="#140000" d="M 515.5,111.5 C 515.833,111.5 516.167,111.5 516.5,111.5C 516.315,112.17 515.981,112.17 515.5,111.5 Z"/></g>
<g><path style="opacity:0.012" fill="#140000" d="M 514.5,112.5 C 514.833,112.5 515.167,112.5 515.5,112.5C 515.315,113.17 514.981,113.17 514.5,112.5 Z"/></g>
<g><path style="opacity:0.012" fill="#140000" d="M 513.5,113.5 C 513.833,113.5 514.167,113.5 514.5,113.5C 514.315,114.17 513.981,114.17 513.5,113.5 Z"/></g>
<g><path style="opacity:0.012" fill="#140000" d="M 512.5,114.5 C 512.833,114.5 513.167,114.5 513.5,114.5C 513.315,115.17 512.981,115.17 512.5,114.5 Z"/></g>
<g><path style="opacity:0.004" fill="#090000" d="M 510.5,118.5 C 512.07,117.441 513.403,117.941 514.5,120C 513.906,120.464 513.239,120.631 512.5,120.5C 511.833,120.5 511.5,120.167 511.5,119.5C 510.833,119.5 510.5,119.167 510.5,118.5 Z"/></g>
<g><path style="opacity:0.004" fill="#000000" d="M 214.5,127.5 C 215.833,128.167 215.833,128.167 214.5,127.5 Z"/></g>
<g><path style="opacity:0.012" fill="#120000" d="M 238.5,137.5 C 238.5,137.167 238.5,136.833 238.5,136.5C 245.167,136.833 245.167,137.167 238.5,137.5 Z"/></g>
<g><path style="opacity:0.012" fill="#190200" d="M 527.5,143.5 C 527.335,140.482 527.502,137.482 528,134.5C 528.805,137.696 528.638,140.696 527.5,143.5 Z"/></g>
<g><path style="opacity:0.012" fill="#170100" d="M 245.5,136.5 C 245.833,136.5 246.167,136.5 246.5,136.5C 246.5,139.833 246.5,143.167 246.5,146.5C 245.833,146.5 245.5,146.833 245.5,147.5C 245.296,144.082 245.296,140.416 245.5,136.5 Z"/></g>
<g><path style="opacity:0.012" fill="#140000" d="M 526.5,143.5 C 526.833,143.5 527.167,143.5 527.5,143.5C 527.315,144.17 526.981,144.17 526.5,143.5 Z"/></g>
<g><path style="opacity:0.012" fill="#1c0200" d="M 513.5,144.5 C 513.842,143.662 514.508,143.328 515.5,143.5C 516.625,144.652 516.625,145.652 515.5,146.5C 514.833,146.5 514.5,146.167 514.5,145.5C 513.833,145.5 513.5,145.167 513.5,144.5 Z"/></g>
<g><path style="opacity:0.012" fill="#140000" d="M 525.5,144.5 C 525.833,144.5 526.167,144.5 526.5,144.5C 526.315,145.17 525.981,145.17 525.5,144.5 Z"/></g>
<g><path style="opacity:0.012" fill="#140000" d="M 517.5,145.5 C 518.833,146.167 518.833,146.167 517.5,145.5 Z"/></g>
<g><path style="opacity:0.012" fill="#140000" d="M 524.5,145.5 C 524.833,145.5 525.167,145.5 525.5,145.5C 525.315,146.17 524.981,146.17 524.5,145.5 Z"/></g>
<g><path style="opacity:0.012" fill="#120000" d="M 524.5,146.5 C 523.054,147.613 521.387,147.78 519.5,147C 521.134,146.506 522.801,146.34 524.5,146.5 Z"/></g>
<g><path style="opacity:0.004" fill="#100100" d="M 519.5,152.5 C 518.833,152.5 518.5,152.167 518.5,151.5C 518.747,149.025 519.413,149.025 520.5,151.5C 520.376,152.107 520.043,152.44 519.5,152.5 Z"/></g>
<g><path style="opacity:0.012" fill="#130000" d="M 524.5,157.5 C 523.833,157.5 523.5,157.167 523.5,156.5C 524.053,154.343 525.053,154.51 526.5,157C 525.906,157.464 525.239,157.631 524.5,157.5 Z"/></g>
<g><path style="opacity:0.012" fill="#140000" d="M 530.5,165.5 C 530.369,164.761 530.536,164.094 531,163.5C 531.692,164.437 531.525,165.103 530.5,165.5 Z"/></g>
<g><path style="opacity:0.004" fill="#060000" d="M 531.5,172.5 C 531.338,170.473 531.505,168.473 532,166.5C 532.789,168.712 532.622,170.712 531.5,172.5 Z"/></g>
<g><path style="opacity:1" fill="#1c0d02" d="M 411.5,171.5 C 423.505,171.333 435.505,171.5 447.5,172C 462.29,176.122 468.623,185.622 466.5,200.5C 460.109,189.939 450.776,184.106 438.5,183C 427.824,182.734 417.158,182.734 406.5,183C 405.584,182.626 404.75,182.126 404,181.5C 403.398,178.779 403.565,176.113 404.5,173.5C 406.833,172.833 409.167,172.167 411.5,171.5 Z"/></g>
<g><path style="opacity:0.012" fill="#140000" d="M 530.5,172.5 C 530.833,172.5 531.167,172.5 531.5,172.5C 531.167,175.167 530.833,175.167 530.5,172.5 Z"/></g>
<g><path style="opacity:0.012" fill="#110000" d="M 229.5,174.5 C 230.573,175.251 230.74,176.251 230,177.5C 229.517,176.552 229.351,175.552 229.5,174.5 Z"/></g>
<g><path style="opacity:1" fill="#2d1808" d="M 283.5,184.5 C 282.5,188.501 281.5,192.501 280.5,196.5C 279.732,195.737 279.232,194.737 279,193.5C 277.853,194.458 276.853,194.125 276,192.5C 274.283,193.455 272.616,194.455 271,195.5C 270,192.833 269,192.833 268,195.5C 267.667,194.5 267.333,193.5 267,192.5C 266.503,195.146 266.336,197.813 266.5,200.5C 265.308,189.312 265.474,177.979 267,166.5C 271.467,165.674 276.3,165.34 281.5,165.5C 281.335,161.818 281.501,158.152 282,154.5C 282.17,164.675 282.67,174.675 283.5,184.5 Z"/></g>
<g><path style="opacity:1" fill="#1c0d02" d="M 357.5,178.5 C 357.988,181.711 357.321,184.544 355.5,187C 347.665,187.381 339.831,187.215 332,186.5C 315.961,183.772 304.127,189.439 296.5,203.5C 295.675,204.386 294.675,204.719 293.5,204.5C 293.5,201.5 293.5,198.5 293.5,195.5C 296.179,185.986 302.179,179.486 311.5,176C 324.167,175.333 336.833,175.333 349.5,176C 351.433,176.251 353.266,176.751 355,177.5C 356.159,176.434 356.992,176.767 357.5,178.5 Z"/></g>
<g><path style="opacity:0.004" fill="#080000" d="M 529.5,177.5 C 529.369,176.761 529.536,176.094 530,175.5C 530.692,176.437 530.525,177.103 529.5,177.5 Z"/></g>
<g><path style="opacity:0.012" fill="#140000" d="M 528.5,177.5 C 528.833,177.5 529.167,177.5 529.5,177.5C 529.315,178.17 528.981,178.17 528.5,177.5 Z"/></g>
<g><path style="opacity:0.012" fill="#120000" d="M 246.5,178.5 C 246.665,182.182 246.499,185.848 246,189.5C 245.502,186.518 245.335,183.518 245.5,180.5C 244.5,180.5 243.5,180.5 242.5,180.5C 242.5,180.167 242.5,179.833 242.5,179.5C 243.959,179.567 245.292,179.234 246.5,178.5 Z"/></g>
<g><path style="opacity:0.012" fill="#140000" d="M 527.5,178.5 C 527.833,178.5 528.167,178.5 528.5,178.5C 528.315,179.17 527.981,179.17 527.5,178.5 Z"/></g>
<g><path style="opacity:0.012" fill="#140000" d="M 523.5,181.5 C 523.56,180.957 523.893,180.624 524.5,180.5C 525.773,181.257 525.773,181.923 524.5,182.5C 523.833,182.5 523.5,182.167 523.5,181.5 Z"/></g>
<g><path style="opacity:0.004" fill="#000000" d="M 235.5,183.5 C 235.897,182.475 236.563,182.308 237.5,183C 236.906,183.464 236.239,183.631 235.5,183.5 Z"/></g>
<g><path style="opacity:1" fill="#aa6c4f" d="M 357.5,178.5 C 358.41,180.019 359.243,181.685 360,183.5C 360.333,188.833 360.667,194.167 361,199.5C 368.228,215.655 363.728,227.489 347.5,235C 338.84,235.168 330.173,235.001 321.5,234.5C 311.224,234.478 301.058,235.478 291,237.5C 289.833,237.167 288.667,236.833 287.5,236.5C 292.967,232.784 297.967,228.618 302.5,224C 298.478,221.407 294.978,218.24 292,214.5C 291.457,207.955 291.957,201.622 293.5,195.5C 293.5,198.5 293.5,201.5 293.5,204.5C 294.675,204.719 295.675,204.386 296.5,203.5C 304.127,189.439 315.961,183.772 332,186.5C 339.831,187.215 347.665,187.381 355.5,187C 357.321,184.544 357.988,181.711 357.5,178.5 Z"/></g>
<g><path style="opacity:1" fill="#c49474" d="M 494.5,166.5 C 499.973,172.755 504.473,179.755 508,187.5C 512.501,192.306 515.501,197.972 517,204.5C 517.781,205.944 517.614,207.277 516.5,208.5C 514.174,206.003 512.007,203.336 510,200.5C 506.731,192.294 503.231,184.127 499.5,176C 497.633,175.289 496.133,175.789 495,177.5C 494.667,183.5 494.333,189.5 494,195.5C 492.426,194.016 491.093,192.349 490,190.5C 489.501,185.177 489.334,179.844 489.5,174.5C 491.467,174.739 493.301,174.406 495,173.5C 495.334,171.153 495.167,168.819 494.5,166.5 Z"/></g>
<g><path style="opacity:0.012" fill="#100000" d="M 529.5,199.5 C 529.338,197.473 529.505,195.473 530,193.5C 530.789,195.712 530.622,197.712 529.5,199.5 Z"/></g>
<g><path style="opacity:1" fill="#170b04" d="M 422.5,194.5 C 432.018,193.286 440.351,195.786 447.5,202C 443.609,200.741 439.609,199.408 435.5,198C 427.136,196.304 419.47,197.804 412.5,202.5C 412.167,202.333 411.833,202.167 411.5,202C 412.5,201 413.5,200 414.5,199C 417.448,197.763 420.115,196.263 422.5,194.5 Z"/></g>
<g><path style="opacity:0.012" fill="#140000" d="M 498.5,198.5 C 499.833,199.167 499.833,199.167 498.5,198.5 Z"/></g>
<g><path style="opacity:1" fill="#432615" d="M 280.5,196.5 C 279.448,200.426 278.782,204.426 278.5,208.5C 277.549,207.081 277.216,205.415 277.5,203.5C 274.769,203.941 272.269,204.274 270,204.5C 268.092,201.668 267.259,202.001 267.5,205.5C 266.549,204.081 266.216,202.415 266.5,200.5C 266.336,197.813 266.503,195.146 267,192.5C 267.333,193.5 267.667,194.5 268,195.5C 269,192.833 270,192.833 271,195.5C 272.616,194.455 274.283,193.455 276,192.5C 276.853,194.125 277.853,194.458 279,193.5C 279.232,194.737 279.732,195.737 280.5,196.5 Z"/></g>
<g><path style="opacity:0.012" fill="#140000" d="M 497.5,199.5 C 497.833,199.5 498.167,199.5 498.5,199.5C 498.315,200.17 497.981,200.17 497.5,199.5 Z"/></g>
<g><path style="opacity:0.012" fill="#140000" d="M 528.5,199.5 C 528.833,199.5 529.167,199.5 529.5,199.5C 529.315,200.17 528.981,200.17 528.5,199.5 Z"/></g>
<g><path style="opacity:1" fill="#402413" d="M 480.5,220.5 C 478.174,208.227 476.507,195.894 475.5,183.5C 476.117,183.389 476.617,183.056 477,182.5C 478.33,186.007 480.83,187.673 484.5,187.5C 485.265,198.898 483.932,209.898 480.5,220.5 Z"/></g>
<g><path style="opacity:0.012" fill="#140000" d="M 495.5,201.5 C 495.5,201.167 495.5,200.833 495.5,200.5C 496.167,200.5 496.833,200.5 497.5,200.5C 497.158,201.338 496.492,201.672 495.5,201.5 Z"/></g>
<g><path style="opacity:1" fill="#1d1109" d="M 438.5,215.5 C 427.385,215.781 416.385,215.114 405.5,213.5C 404.535,212.279 404.702,210.946 406,209.5C 421.992,198.121 437.159,199.121 451.5,212.5C 447.364,214.246 443.031,215.246 438.5,215.5 Z"/></g>
<g><path style="opacity:0.012" fill="#140000" d="M 526.5,201.5 C 527.833,202.167 527.833,202.167 526.5,201.5 Z"/></g>
<g><path style="opacity:1" fill="#110702" d="M 327.5,197.5 C 336.289,196.19 344.289,198.023 351.5,203C 338.119,197.085 325.785,198.918 314.5,208.5C 314.167,208.333 313.833,208.167 313.5,208C 317.341,203.262 322.008,199.762 327.5,197.5 Z"/></g>
<g><path style="opacity:1" fill="#1d1109" d="M 331.5,204.5 C 341.253,204.252 350.086,206.919 358,212.5C 358.49,213.793 358.657,215.127 358.5,216.5C 348.509,217.497 338.509,218.497 328.5,219.5C 323.453,219.442 318.453,218.942 313.5,218C 313.043,217.586 312.709,217.086 312.5,216.5C 317.757,210.71 324.091,206.71 331.5,204.5 Z"/></g>
<g><path style="opacity:1" fill="#5b3824" d="M 278.5,208.5 C 277.721,218.183 276.721,227.849 275.5,237.5C 272.858,226.932 270.191,216.265 267.5,205.5C 267.259,202.001 268.092,201.668 270,204.5C 272.269,204.274 274.769,203.941 277.5,203.5C 277.216,205.415 277.549,207.081 278.5,208.5 Z"/></g>
<g><path style="opacity:1" fill="#827e7b" d="M 420.5,210.5 C 419.842,209.602 419.176,208.602 418.5,207.5C 417.205,208.098 415.872,208.598 414.5,209C 413.748,209.671 413.414,210.504 413.5,211.5C 412.209,210.458 412.209,209.292 413.5,208C 415.65,206.589 417.984,205.755 420.5,205.5C 420.5,207.167 420.5,208.833 420.5,210.5 Z"/></g>
<g><path style="opacity:1" fill="#bdbab8" d="M 423.5,205.5 C 424.5,205.5 425.5,205.5 426.5,205.5C 426.5,206.5 426.5,207.5 426.5,208.5C 425.5,208.5 424.5,208.5 423.5,208.5C 423.5,207.5 423.5,206.5 423.5,205.5 Z"/></g>
<g><path style="opacity:0.004" fill="#060000" d="M 523.5,204.5 C 524.833,206.5 524.833,208.5 523.5,210.5C 523.5,208.5 523.5,206.5 523.5,204.5 Z"/></g>
<g><path style="opacity:1" fill="#e8e6e5" d="M 420.5,210.5 C 420.209,211.649 419.376,212.316 418,212.5C 416.467,212.227 414.967,211.894 413.5,211.5C 413.414,210.504 413.748,209.671 414.5,209C 415.872,208.598 417.205,208.098 418.5,207.5C 419.176,208.602 419.842,209.602 420.5,210.5 Z"/></g>
<g><path style="opacity:1" fill="#ecebeb" d="M 436.5,207.5 C 439.335,208.069 441.001,209.736 441.5,212.5C 439.735,213.461 437.735,213.795 435.5,213.5C 435.833,211.5 436.167,209.5 436.5,207.5 Z"/></g>
<g><path style="opacity:1" fill="#a9a6a4" d="M 441.5,212.5 C 441.001,209.736 439.335,208.069 436.5,207.5C 435.15,206.35 435.316,205.683 437,205.5C 441.437,206.368 442.937,208.701 441.5,212.5 Z"/></g>
<g><path style="opacity:0.012" fill="#140000" d="M 260.5,210.5 C 261.573,211.251 261.74,212.251 261,213.5C 260.517,212.552 260.351,211.552 260.5,210.5 Z"/></g>
<g><path style="opacity:1" fill="#8f8b89" d="M 327.5,211.5 C 325.297,211.604 323.297,212.27 321.5,213.5C 321.979,211.156 323.479,209.822 326,209.5C 327.03,209.836 327.53,210.503 327.5,211.5 Z"/></g>
<g><path style="opacity:1" fill="#c9c6c5" d="M 334.5,211.5 C 333.5,211.5 332.5,211.5 331.5,211.5C 331.5,211.167 331.5,210.833 331.5,210.5C 332.947,209.115 333.947,209.448 334.5,211.5 Z"/></g>
<g><path style="opacity:1" fill="#3f2313" d="M 331.5,210.5 C 331.5,210.833 331.5,211.167 331.5,211.5C 333.036,214.092 335.369,215.092 338.5,214.5C 338.215,212.712 338.548,211.045 339.5,209.5C 341.729,211.099 342.062,213.099 340.5,215.5C 336.73,217.024 333.23,216.691 330,214.5C 329.156,212.537 329.656,211.204 331.5,210.5 Z"/></g>
<g><path style="opacity:1" fill="#a19e9b" d="M 349.5,211.5 C 348.07,211.579 346.736,211.246 345.5,210.5C 344.571,211.689 344.238,213.022 344.5,214.5C 345.5,214.5 346.5,214.5 347.5,214.5C 346.432,215.434 345.099,215.768 343.5,215.5C 343.5,213.167 343.5,210.833 343.5,208.5C 346.089,208.461 348.089,209.461 349.5,211.5 Z"/></g>
<g><path style="opacity:1" fill="#f3f2f1" d="M 349.5,211.5 C 350.404,212.209 350.737,213.209 350.5,214.5C 349.5,214.5 348.5,214.5 347.5,214.5C 346.5,214.5 345.5,214.5 344.5,214.5C 344.238,213.022 344.571,211.689 345.5,210.5C 346.736,211.246 348.07,211.579 349.5,211.5 Z"/></g>
<g><path style="opacity:0.012" fill="#140000" d="M 522.5,210.5 C 522.833,210.5 523.167,210.5 523.5,210.5C 523.672,211.492 523.338,212.158 522.5,212.5C 522.5,211.833 522.5,211.167 522.5,210.5 Z"/></g>
<g><path style="opacity:1" fill="#f5f4f4" d="M 327.5,211.5 C 327.5,212.5 327.5,213.5 327.5,214.5C 326.448,216.256 324.781,216.923 322.5,216.5C 321.596,215.791 321.263,214.791 321.5,213.5C 323.297,212.27 325.297,211.604 327.5,211.5 Z"/></g>
<g><path style="opacity:1" fill="#85817f" d="M 334.5,211.5 C 336.337,211.639 336.67,212.306 335.5,213.5C 334.702,213.043 334.369,212.376 334.5,211.5 Z"/></g>
<g><path style="opacity:1" fill="#190c03" d="M 384.5,186.5 C 384.335,189.85 384.502,193.183 385,196.5C 389.331,205.148 392.498,214.148 394.5,223.5C 389.643,216.452 385.809,208.786 383,200.5C 382.333,196.5 382.333,192.5 383,188.5C 383.278,187.584 383.778,186.918 384.5,186.5 Z"/></g>
<g><path style="opacity:0.012" fill="#140000" d="M 521.5,212.5 C 521.833,212.5 522.167,212.5 522.5,212.5C 522.315,213.17 521.981,213.17 521.5,212.5 Z"/></g>
<g><path style="opacity:0.012" fill="#170200" d="M 488.5,213.5 C 491.079,214.228 493.746,214.728 496.5,215C 493.964,215.186 491.631,215.686 489.5,216.5C 488.596,215.791 488.263,214.791 488.5,213.5 Z"/></g>
<g><path style="opacity:1" fill="#83533a" d="M 405.5,213.5 C 416.385,215.114 427.385,215.781 438.5,215.5C 432.347,216.328 426.013,216.828 419.5,217C 420.591,218.55 421.924,219.717 423.5,220.5C 421.259,220.046 419.259,220.046 417.5,220.5C 415.957,219.264 414.957,217.598 414.5,215.5C 411.358,214.833 408.358,214.166 405.5,213.5 Z"/></g>
<g><path style="opacity:1" fill="#9c9997" d="M 327.5,214.5 C 328.404,215.209 328.737,216.209 328.5,217.5C 326.265,217.795 324.265,217.461 322.5,216.5C 324.781,216.923 326.448,216.256 327.5,214.5 Z"/></g>
<g><path style="opacity:0.012" fill="#160000" d="M 263.5,217.5 C 263.5,218.5 263.5,219.5 263.5,220.5C 261.473,220.662 259.473,220.495 257.5,220C 259.845,219.764 261.845,218.93 263.5,217.5 Z"/></g>
<g><path style="opacity:1" fill="#160c05" d="M 417.5,220.5 C 419.259,220.046 421.259,220.046 423.5,220.5C 424.609,221.29 425.942,221.79 427.5,222C 423.928,222.847 420.594,222.347 417.5,220.5 Z"/></g>
<g><path style="opacity:1" fill="#20140b" d="M 345.5,221.5 C 346.239,221.369 346.906,221.536 347.5,222C 344.041,225.114 340.041,226.114 335.5,225C 339.11,224.262 342.443,223.095 345.5,221.5 Z"/></g>
<g><path style="opacity:0.012" fill="#140000" d="M 250.5,227.5 C 251.656,235.323 251.823,243.323 251,251.5C 250.5,243.507 250.334,235.507 250.5,227.5 Z"/></g>
<g><path style="opacity:1" fill="#b17656" d="M 258.5,227.5 C 268.224,228.902 272.057,234.569 270,244.5C 266.259,238.625 262.425,232.958 258.5,227.5 Z"/></g>
<g><path style="opacity:1" fill="#aa7052" d="M 490.5,222.5 C 492.948,222.01 494.615,222.843 495.5,225C 491.272,228.561 487.772,232.728 485,237.5C 484.333,235.167 484.333,232.833 485,230.5C 486.596,227.631 488.43,224.964 490.5,222.5 Z"/></g>
<g><path style="opacity:0.012" fill="#170100" d="M 502.5,240.5 C 502.334,234.491 502.501,228.491 503,222.5C 503.819,228.681 503.653,234.681 502.5,240.5 Z"/></g>
<g><path style="opacity:1" fill="#a4684c" d="M 490.5,270.5 C 490.666,266.154 490.499,261.821 490,257.5C 488.374,260.128 486.374,262.461 484,264.5C 482.384,266.713 481.217,269.047 480.5,271.5C 481.248,255.424 486.081,240.757 495,227.5C 496.204,236.119 495.204,244.452 492,252.5C 491.828,258.681 491.328,264.681 490.5,270.5 Z"/></g>
<g><path style="opacity:1" fill="#a2664b" d="M 272.5,293.5 C 272.666,287.158 272.5,280.825 272,274.5C 267.954,264.868 263.621,255.535 259,246.5C 258.502,249.482 258.335,252.482 258.5,255.5C 257.18,247.657 257.18,239.657 258.5,231.5C 264.922,241.015 269.756,251.348 273,262.5C 273.825,273.008 273.659,283.342 272.5,293.5 Z"/></g>
<g><path style="opacity:0.012" fill="#150100" d="M 501.5,240.5 C 501.833,240.5 502.167,240.5 502.5,240.5C 502.795,242.735 502.461,244.735 501.5,246.5C 501.5,244.5 501.5,242.5 501.5,240.5 Z"/></g>
<g><path style="opacity:1" fill="#aa6c4f" d="M 404.5,240.5 C 403.402,241.601 403.235,242.934 404,244.5C 406.667,247.833 409.333,251.167 412,254.5C 414.002,260.685 412.169,265.185 406.5,268C 408.831,267.843 411.164,267.343 413.5,266.5C 412.942,267.79 411.942,268.623 410.5,269C 405.018,269.85 399.684,269.35 394.5,267.5C 391.74,269.075 389.073,270.909 386.5,273C 383.5,273.667 380.5,273.667 377.5,273C 374.295,271.105 371.128,269.272 368,267.5C 363.111,269.439 358.277,269.773 353.5,268.5C 354.552,268.649 355.552,268.483 356.5,268C 350.842,266.171 349.008,262.337 351,256.5C 354.79,251.88 357.957,246.88 360.5,241.5C 360.376,240.893 360.043,240.56 359.5,240.5C 359.846,238.295 360.513,238.128 361.5,240C 362.836,242.678 363.67,245.511 364,248.5C 364.388,249.428 365.055,250.095 366,250.5C 368.212,248.452 370.212,246.119 372,243.5C 374.351,246.886 376.518,250.386 378.5,254C 386.378,256.833 393.545,255.666 400,250.5C 401.008,246.229 400.508,242.229 398.5,238.5C 398.833,238.167 399.167,237.833 399.5,237.5C 401.598,237.957 403.264,238.957 404.5,240.5 Z"/></g>
<g><path style="opacity:1" fill="#1c0e05" d="M 359.5,240.5 C 360.043,240.56 360.376,240.893 360.5,241.5C 357.957,246.88 354.79,251.88 351,256.5C 349.008,262.337 350.842,266.171 356.5,268C 355.552,268.483 354.552,268.649 353.5,268.5C 347.258,266.378 345.091,262.044 347,255.5C 350.684,249.993 354.851,244.993 359.5,240.5 Z"/></g>
<g><path style="opacity:0.012" fill="#110000" d="M 500.5,246.5 C 500.833,246.5 501.167,246.5 501.5,246.5C 501.737,247.791 501.404,248.791 500.5,249.5C 500.5,248.5 500.5,247.5 500.5,246.5 Z"/></g>
<g><path style="opacity:0.012" fill="#110000" d="M 499.5,249.5 C 499.833,249.5 500.167,249.5 500.5,249.5C 500.737,250.791 500.404,251.791 499.5,252.5C 499.5,251.5 499.5,250.5 499.5,249.5 Z"/></g>
<g><path style="opacity:0.012" fill="#110000" d="M 498.5,252.5 C 498.833,252.5 499.167,252.5 499.5,252.5C 499.167,264.5 498.833,264.5 498.5,252.5 Z"/></g>
<g><path style="opacity:1" fill="#1e1006" d="M 404.5,240.5 C 408.318,244.704 412.151,249.037 416,253.5C 417.034,258.263 416.201,262.597 413.5,266.5C 411.164,267.343 408.831,267.843 406.5,268C 412.169,265.185 414.002,260.685 412,254.5C 409.333,251.167 406.667,247.833 404,244.5C 403.235,242.934 403.402,241.601 404.5,240.5 Z"/></g>
<g><path style="opacity:0.012" fill="#130000" d="M 250.5,254.5 C 251.634,256.966 251.801,259.633 251,262.5C 250.503,259.854 250.336,257.187 250.5,254.5 Z"/></g>
<g><path style="opacity:1" fill="#b67959" d="M 272.5,293.5 C 270.401,301.055 268.234,300.722 266,292.5C 265.639,285.801 264.972,279.135 264,272.5C 259.67,267.676 257.837,262.009 258.5,255.5C 258.335,252.482 258.502,249.482 259,246.5C 263.621,255.535 267.954,264.868 272,274.5C 272.5,280.825 272.666,287.158 272.5,293.5 Z"/></g>
<g><path style="opacity:1" fill="#b67959" d="M 490.5,270.5 C 489.511,277.465 488.677,284.465 488,291.5C 486.965,296.254 484.298,297.921 480,296.5C 479.199,288.088 479.366,279.755 480.5,271.5C 481.217,269.047 482.384,266.713 484,264.5C 486.374,262.461 488.374,260.128 490,257.5C 490.499,261.821 490.666,266.154 490.5,270.5 Z"/></g>
<g><path style="opacity:0.012" fill="#130000" d="M 497.5,263.5 C 498.647,267.646 498.814,271.98 498,276.5C 497.501,272.179 497.334,267.846 497.5,263.5 Z"/></g>
<g><path style="opacity:1" fill="#1b0d04" d="M 361.5,257.5 C 368.833,256.718 374.5,259.385 378.5,265.5C 380.432,266.52 382.432,266.687 384.5,266C 389.527,258.659 396.193,256.326 404.5,259C 401.833,259.333 399.167,259.667 396.5,260C 392.868,262.63 389.535,265.63 386.5,269C 383.134,270.879 379.8,270.879 376.5,269C 374.402,266.146 372.069,263.479 369.5,261C 366.623,259.873 363.623,259.206 360.5,259C 361.056,258.617 361.389,258.117 361.5,257.5 Z"/></g>
<g><path style="opacity:0.012" fill="#140000" d="M 253.5,266.5 C 253.631,267.239 253.464,267.906 253,268.5C 252.308,267.563 252.475,266.897 253.5,266.5 Z"/></g>
<g><path style="opacity:0.012" fill="#0f0000" d="M 255.5,270.5 C 255.5,271.167 255.5,271.833 255.5,272.5C 254.167,271.833 254.167,271.167 255.5,270.5 Z"/></g>
<g><path style="opacity:0.004" fill="#120200" d="M 255.5,272.5 C 255.833,272.5 256.167,272.5 256.5,272.5C 256.5,273.167 256.5,273.833 256.5,274.5C 255.662,274.158 255.328,273.492 255.5,272.5 Z"/></g>
<g><path style="opacity:0.012" fill="#170200" d="M 256.5,274.5 C 256.833,274.5 257.167,274.5 257.5,274.5C 257.167,278.5 256.833,278.5 256.5,274.5 Z"/></g>
<g><path style="opacity:0.012" fill="#120000" d="M 496.5,282.5 C 496.34,280.801 496.506,279.134 497,277.5C 497.78,279.387 497.613,281.054 496.5,282.5 Z"/></g>
<g><path style="opacity:0.012" fill="#110000" d="M 495.5,282.5 C 495.833,282.5 496.167,282.5 496.5,282.5C 496.802,285.059 496.468,287.393 495.5,289.5C 495.5,287.167 495.5,284.833 495.5,282.5 Z"/></g>
<g><path style="opacity:1" fill="#170e07" d="M 322.5,283.5 C 323.239,283.369 323.906,283.536 324.5,284C 320.286,287.547 317.786,292.047 317,297.5C 316.333,294.833 316.333,292.167 317,289.5C 318.36,286.977 320.193,284.977 322.5,283.5 Z"/></g>
<g><path style="opacity:1" fill="#291a12" d="M 438.5,289.5 C 440.218,291.926 440.718,294.593 440,297.5C 439.768,296.263 439.268,295.263 438.5,294.5C 437.337,290.992 435.337,287.992 432.5,285.5C 432.667,285.167 432.833,284.833 433,284.5C 435.355,285.692 437.188,287.359 438.5,289.5 Z"/></g>
<g><path style="opacity:1" fill="#190c03" d="M 382.5,289.5 C 395.162,286.961 407.162,288.794 418.5,295C 419.696,295.654 419.696,296.154 418.5,296.5C 405.572,290.808 392.405,290.141 379,294.5C 374.523,292.594 369.856,291.594 365,291.5C 357.081,291.954 349.248,292.954 341.5,294.5C 351.496,289.51 362.162,287.677 373.5,289C 376.595,290.534 379.595,290.701 382.5,289.5 Z"/></g>
<g><path style="opacity:0.012" fill="#110000" d="M 494.5,289.5 C 494.833,289.5 495.167,289.5 495.5,289.5C 495.167,294.833 494.833,294.833 494.5,289.5 Z"/></g>
<g><path style="opacity:0.012" fill="#140000" d="M 493.5,294.5 C 494.833,295.167 494.833,295.833 493.5,296.5C 493.5,295.833 493.5,295.167 493.5,294.5 Z"/></g>
<g><path style="opacity:0.012" fill="#140000" d="M 492.5,296.5 C 492.833,296.5 493.167,296.5 493.5,296.5C 493.672,297.492 493.338,298.158 492.5,298.5C 492.5,297.833 492.5,297.167 492.5,296.5 Z"/></g>
<g><path style="opacity:0.012" fill="#0f0000" d="M 261.5,297.5 C 261.631,298.239 261.464,298.906 261,299.5C 260.308,298.563 260.475,297.897 261.5,297.5 Z"/></g>
<g><path style="opacity:0.012" fill="#140000" d="M 491.5,298.5 C 491.833,298.5 492.167,298.5 492.5,298.5C 492.315,299.17 491.981,299.17 491.5,298.5 Z"/></g>
<g><path style="opacity:0.004" fill="#080000" d="M 490.5,299.5 C 490.833,299.5 491.167,299.5 491.5,299.5C 491.5,301.5 490.5,302.5 488.5,302.5C 488.5,302.167 488.5,301.833 488.5,301.5C 489.167,301.5 489.5,301.167 489.5,300.5C 490.167,300.5 490.5,300.167 490.5,299.5 Z"/></g>
<g><path style="opacity:0.012" fill="#140000" d="M 487.5,302.5 C 487.833,302.5 488.167,302.5 488.5,302.5C 488.315,303.17 487.981,303.17 487.5,302.5 Z"/></g>
<g><path style="opacity:1" fill="#956046" d="M 430.5,305.5 C 425.294,308.551 421.46,312.885 419,318.5C 414.049,324.973 407.883,329.64 400.5,332.5C 392.876,333.578 385.21,334.244 377.5,334.5C 370.62,334.798 363.954,333.798 357.5,331.5C 356.893,331.624 356.56,331.957 356.5,332.5C 350.205,327.376 344.039,322.043 338,316.5C 336.105,311.782 333.272,307.782 329.5,304.5C 328.52,307.086 328.187,309.753 328.5,312.5C 326.865,308.074 326.365,303.407 327,298.5C 327.383,297.944 327.883,297.611 328.5,297.5C 328.917,298.124 329.584,298.457 330.5,298.5C 334.085,296.871 337.752,295.538 341.5,294.5C 349.248,292.954 357.081,291.954 365,291.5C 369.856,291.594 374.523,292.594 379,294.5C 392.405,290.141 405.572,290.808 418.5,296.5C 419.696,296.154 419.696,295.654 418.5,295C 407.162,288.794 395.162,286.961 382.5,289.5C 382.167,288.833 381.833,288.167 381.5,287.5C 394.455,284.867 407.122,286.034 419.5,291C 426.805,293.131 430.471,297.964 430.5,305.5 Z"/></g>
<g><path style="opacity:1" fill="#221a16" d="M 356.5,299.5 C 370.5,298.167 384.5,298.167 398.5,299.5C 384.628,300.806 370.628,300.806 356.5,299.5 Z"/></g>
<g><path style="opacity:0.012" fill="#140000" d="M 485.5,304.5 C 485.5,304.167 485.5,303.833 485.5,303.5C 486.167,303.5 486.833,303.5 487.5,303.5C 487.158,304.338 486.492,304.672 485.5,304.5 Z"/></g>
<g><path style="opacity:0.012" fill="#140000" d="M 485.5,304.5 C 485.657,305.873 485.49,307.207 485,308.5C 484.235,306.934 484.402,305.601 485.5,304.5 Z"/></g>
<g><path style="opacity:1" fill="#160d08" d="M 356.5,299.5 C 370.628,300.806 384.628,300.806 398.5,299.5C 400.527,299.338 402.527,299.505 404.5,300C 410.51,302.339 416.51,304.673 422.5,307C 397.999,324.466 372.333,326.133 345.5,312C 342.683,309.362 340.35,306.362 338.5,303C 344.25,300.563 350.25,299.396 356.5,299.5 Z"/></g>
<g><path style="opacity:1" fill="#f2f2f1" d="M 355.5,301.5 C 370.17,301.333 384.837,301.5 399.5,302C 403.939,302.317 408.105,303.484 412,305.5C 414.222,308.51 413.722,311.01 410.5,313C 405.375,313.865 400.375,315.198 395.5,317C 388.89,318.441 382.224,318.774 375.5,318C 365.792,315.823 356.125,313.49 346.5,311C 343.966,308.253 343.966,305.587 346.5,303C 349.695,302.819 352.695,302.319 355.5,301.5 Z"/></g>
<g><path style="opacity:0.012" fill="#0f0000" d="M 265.5,307.5 C 266.525,307.897 266.692,308.563 266,309.5C 265.536,308.906 265.369,308.239 265.5,307.5 Z"/></g>
<g><path style="opacity:1" fill="#b87b5a" d="M 356.5,332.5 C 357.833,333.167 359.167,333.833 360.5,334.5C 365.569,345.367 373.902,349.2 385.5,346C 390.621,343.045 394.955,339.211 398.5,334.5C 399.167,333.833 399.833,333.167 400.5,332.5C 407.883,329.64 414.049,324.973 419,318.5C 421.46,312.885 425.294,308.551 430.5,305.5C 430.698,313.853 429.198,321.853 426,329.5C 421.391,332.463 418.058,336.463 416,341.5C 411.576,343.588 408.076,346.755 405.5,351C 403.888,351.72 402.388,351.554 401,350.5C 400.163,352.844 398.829,354.844 397,356.5C 396.667,355.167 396.333,353.833 396,352.5C 394.51,357.877 391.01,359.877 385.5,358.5C 379.424,357.948 373.424,357.448 367.5,357C 364.667,354.833 361.833,352.667 359,350.5C 358.282,351.451 357.449,351.617 356.5,351C 355.458,349.082 354.292,347.249 353,345.5C 352.667,346.167 352.333,346.833 352,347.5C 346.133,341.792 341.633,335.125 338.5,327.5C 336.144,325.31 333.644,323.31 331,321.5C 330.261,318.454 329.428,315.454 328.5,312.5C 328.187,309.753 328.52,307.086 329.5,304.5C 333.272,307.782 336.105,311.782 338,316.5C 344.039,322.043 350.205,327.376 356.5,332.5 Z"/></g>
<g><path style="opacity:0.012" fill="#140000" d="M 265.5,313.5 C 265.167,313.5 264.833,313.5 264.5,313.5C 264.833,309.5 265.167,309.5 265.5,313.5 Z"/></g>
<g><path style="opacity:0.012" fill="#0e0000" d="M 485.5,309.5 C 486.598,310.601 486.765,311.934 486,313.5C 485.51,312.207 485.343,310.873 485.5,309.5 Z"/></g>
<g><path style="opacity:0.012" fill="#110000" d="M 264.5,313.5 C 264.663,315.857 264.497,318.19 264,320.5C 263.204,317.961 263.371,315.628 264.5,313.5 Z"/></g>
<g><path style="opacity:0.012" fill="#140000" d="M 263.5,323.5 C 264.573,324.251 264.74,325.251 264,326.5C 263.517,325.552 263.351,324.552 263.5,323.5 Z"/></g>
<g><path style="opacity:0.012" fill="#140000" d="M 263.5,328.5 C 264.525,328.897 264.692,329.563 264,330.5C 263.536,329.906 263.369,329.239 263.5,328.5 Z"/></g>
<g><path style="opacity:0.012" fill="#140000" d="M 263.5,339.5 C 262.366,337.034 262.199,334.367 263,331.5C 263.497,334.146 263.664,336.813 263.5,339.5 Z"/></g>
<g><path style="opacity:0.012" fill="#120000" d="M 488.5,331.5 C 489.613,332.946 489.78,334.613 489,336.5C 488.506,334.866 488.34,333.199 488.5,331.5 Z"/></g>
<g><path style="opacity:1" fill="#1a0c03" d="M 356.5,332.5 C 356.56,331.957 356.893,331.624 357.5,331.5C 363.954,333.798 370.62,334.798 377.5,334.5C 385.21,334.244 392.876,333.578 400.5,332.5C 399.833,333.167 399.167,333.833 398.5,334.5C 385.729,339.593 373.062,339.593 360.5,334.5C 359.167,333.833 357.833,333.167 356.5,332.5 Z"/></g>
<g><path style="opacity:1" fill="#aa6c4f" d="M 360.5,334.5 C 373.062,339.593 385.729,339.593 398.5,334.5C 394.955,339.211 390.621,343.045 385.5,346C 373.902,349.2 365.569,345.367 360.5,334.5 Z"/></g>
<g><path style="opacity:0.024" fill="#1e0400" d="M 489.5,343.5 C 489.167,343.5 488.833,343.5 488.5,343.5C 488.833,339.5 489.167,339.5 489.5,343.5 Z"/></g>
<g><path style="opacity:0.012" fill="#130000" d="M 263.5,339.5 C 263.833,339.5 264.167,339.5 264.5,339.5C 264.5,346.167 264.5,352.833 264.5,359.5C 263.509,353.021 263.176,346.354 263.5,339.5 Z"/></g>
<g><path style="opacity:0.004" fill="#000000" d="M 489.5,343.5 C 490.833,344.167 490.833,344.167 489.5,343.5 Z"/></g>
<g><path style="opacity:0.012" fill="#110000" d="M 488.5,363.5 C 488.334,357.491 488.501,351.491 489,345.5C 489.819,351.681 489.653,357.681 488.5,363.5 Z"/></g>
<g><path style="opacity:0.012" fill="#140000" d="M 264.5,359.5 C 264.833,359.5 265.167,359.5 265.5,359.5C 265.167,364.833 264.833,364.833 264.5,359.5 Z"/></g>
<g><path style="opacity:0.012" fill="#110000" d="M 488.5,363.5 C 488.806,366.385 488.473,369.052 487.5,371.5C 487.194,368.615 487.527,365.948 488.5,363.5 Z"/></g>
<g><path style="opacity:0.012" fill="#0f0000" d="M 268.5,369.5 C 268.631,370.239 268.464,370.906 268,371.5C 267.308,370.563 267.475,369.897 268.5,369.5 Z"/></g>
<g><path style="opacity:0.012" fill="#110000" d="M 486.5,371.5 C 486.833,371.5 487.167,371.5 487.5,371.5C 487.167,375.5 486.833,375.5 486.5,371.5 Z"/></g>
<g><path style="opacity:0.004" fill="#000000" d="M 272.5,376.5 C 272.5,376.833 272.5,377.167 272.5,377.5C 271.83,377.019 271.83,376.685 272.5,376.5 Z"/></g>
<g><path style="opacity:0.004" fill="#080000" d="M 481.5,379.5 C 482.833,380.167 482.833,380.833 481.5,381.5C 481.5,380.833 481.5,380.167 481.5,379.5 Z"/></g>
<g><path style="opacity:0.004" fill="#000000" d="M 480.5,381.5 C 480.833,381.5 481.167,381.5 481.5,381.5C 481.315,382.17 480.981,382.17 480.5,381.5 Z"/></g>
<g><path style="opacity:0.012" fill="#140000" d="M 476.5,385.5 C 476.833,385.5 477.167,385.5 477.5,385.5C 477.315,386.17 476.981,386.17 476.5,385.5 Z"/></g>
<g><path style="opacity:0.012" fill="#120000" d="M 475.5,386.5 C 475.833,386.5 476.167,386.5 476.5,386.5C 476.167,398.5 475.833,398.5 475.5,386.5 Z"/></g>
<g><path style="opacity:0.012" fill="#150000" d="M 272.5,377.5 C 273.655,384.321 273.821,391.321 273,398.5C 272.5,391.508 272.334,384.508 272.5,377.5 Z"/></g>
<g><path style="opacity:1" fill="#a2654c" d="M 469.5,406.5 C 452.749,416.42 439.916,430.086 431,447.5C 407.241,475.155 377.741,483.655 342.5,473C 334.727,470.362 328.227,465.862 323,459.5C 315.397,446.236 307.397,433.236 299,420.5C 293.667,413.833 287.667,407.833 281,402.5C 280.685,408.384 279.851,414.051 278.5,419.5C 278.818,409.111 279.651,398.778 281,388.5C 282.924,390.822 284.257,393.489 285,396.5C 291.769,402.266 298.269,408.433 304.5,415C 306.901,415.795 309.068,416.962 311,418.5C 315.293,425.214 319.626,431.881 324,438.5C 324.333,437.833 324.667,437.167 325,436.5C 328.292,440.81 329.626,440.477 329,435.5C 333.77,438.989 338.437,442.656 343,446.5C 342.923,445.262 343.089,444.262 343.5,443.5C 350.451,445.885 357.618,447.218 365,447.5C 374.072,445.92 383.239,445.087 392.5,445C 396.5,444.333 396.5,443.667 392.5,443C 394.339,441.868 396.339,441.035 398.5,440.5C 398.5,441.5 398.5,442.5 398.5,443.5C 401.236,442.138 403.569,440.304 405.5,438C 406.899,437.405 408.232,437.572 409.5,438.5C 412.179,436.313 415.179,434.813 418.5,434C 420.371,430.24 423.037,428.073 426.5,427.5C 427.248,425.668 428.248,424.001 429.5,422.5C 430.086,422.709 430.586,423.043 431,423.5C 438.612,418.551 445.612,412.884 452,406.5C 452.333,407.167 452.667,407.833 453,408.5C 453.802,405.319 455.469,402.653 458,400.5C 456.969,405.378 457.969,405.711 461,401.5C 461.414,401.957 461.914,402.291 462.5,402.5C 464.684,399.287 466.684,395.954 468.5,392.5C 469.493,397.12 469.827,401.786 469.5,406.5 Z"/></g>
<g><path style="opacity:0.012" fill="#130000" d="M 271.5,399.5 C 272.638,402.304 272.805,405.304 272,408.5C 271.502,405.518 271.335,402.518 271.5,399.5 Z"/></g>
<g><path style="opacity:1" fill="#ba7d5c" d="M 469.5,406.5 C 470.277,413.482 471.11,420.482 472,427.5C 477.563,438.552 477.897,449.885 473,461.5C 468.004,471.494 461.17,479.994 452.5,487C 421.504,507.203 387.504,515.203 350.5,511C 330.215,509.239 311.548,502.905 294.5,492C 274.058,474.585 267.058,454.418 273.5,431.5C 274.478,431.023 275.311,430.357 276,429.5C 277.153,426.245 277.987,422.912 278.5,419.5C 279.851,414.051 280.685,408.384 281,402.5C 287.667,407.833 293.667,413.833 299,420.5C 307.397,433.236 315.397,446.236 323,459.5C 328.227,465.862 334.727,470.362 342.5,473C 377.741,483.655 407.241,475.155 431,447.5C 439.916,430.086 452.749,416.42 469.5,406.5 Z"/></g>
<g><path style="opacity:0.024" fill="#250800" d="M 486.5,413.5 C 487.833,414.167 487.833,414.167 486.5,413.5 Z"/></g>
<g><path style="opacity:0.012" fill="#140000" d="M 488.5,414.5 C 489.833,415.167 489.833,415.167 488.5,414.5 Z"/></g>
<g><path style="opacity:0.012" fill="#140000" d="M 237.5,427.5 C 238.833,428.167 238.833,428.167 237.5,427.5 Z"/></g>
<g><path style="opacity:1" fill="#001363" d="M 486.5,421.5 C 499.97,428.809 512.47,437.476 524,447.5C 523.376,466.657 518.376,484.657 509,501.5C 495.872,523.977 479.705,544.143 460.5,562C 433.933,585.735 405.267,606.568 374.5,624.5C 335.809,602.662 300.975,575.662 270,543.5C 253.828,525.982 240.828,506.316 231,484.5C 225.469,472.385 223.136,459.719 224,446.5C 235.761,437.218 248.261,429.385 261.5,423C 253.26,433.197 250.76,444.697 254,457.5C 258.5,470.835 264.834,483.169 273,494.5C 302.022,530.028 335.856,560.028 374.5,584.5C 406.15,563.368 435.317,539.035 462,511.5C 473.655,498.204 483.321,483.538 491,467.5C 495.097,457.532 496.43,447.199 495,436.5C 492.649,431.12 489.816,426.12 486.5,421.5 Z"/></g>
<g><path style="opacity:1" fill="#e4e1df" d="M 479.5,424.5 C 480.189,423.226 481.023,423.226 482,424.5C 491.491,436.674 493.158,450.007 487,464.5C 477.568,484.201 465.068,501.701 449.5,517C 409.011,536.322 367.011,540.322 323.5,529C 316.273,526.72 309.273,523.887 302.5,520.5C 285.582,504.656 272.082,486.323 262,465.5C 258.098,457.227 256.765,448.56 258,439.5C 259.729,433.703 262.729,428.703 267,424.5C 260.554,467.054 277.72,495.221 318.5,509C 357.85,520.499 396.517,518.499 434.5,503C 451.729,495.763 465.229,484.263 475,468.5C 481.608,454.197 483.108,439.531 479.5,424.5 Z"/></g>
<g><path style="opacity:0.024" fill="#1e0400" d="M 531.5,444.5 C 530.833,444.5 530.167,444.5 529.5,444.5C 529.786,442.067 530.452,442.067 531.5,444.5 Z"/></g>
<g><path style="opacity:0.024" fill="#190300" d="M 217.5,445.5 C 213.757,445.541 213.59,444.874 217,443.5C 217.464,444.094 217.631,444.761 217.5,445.5 Z"/></g>
<g><path style="opacity:0.012" fill="#140000" d="M 531.5,445.5 C 531.5,445.167 531.5,444.833 531.5,444.5C 534.167,444.833 534.167,445.167 531.5,445.5 Z"/></g>
<g><path style="opacity:0.012" fill="#1b0200" d="M 534.5,446.5 C 534.897,445.475 535.563,445.308 536.5,446C 535.906,446.464 535.239,446.631 534.5,446.5 Z"/></g>
<g><path style="opacity:0.024" fill="#1d0500" d="M 207.5,448.5 C 207.897,447.475 208.563,447.308 209.5,448C 208.906,448.464 208.239,448.631 207.5,448.5 Z"/></g>
<g><path style="opacity:1" fill="#001363" d="M 743.5,640.5 C 497.5,640.5 251.5,640.5 5.5,640.5C 11.8778,617.537 20.7111,595.537 32,574.5C 46.5773,545.588 67.7439,522.755 95.5,506C 135.334,485.415 176.334,467.581 218.5,452.5C 218.954,459.607 220.121,466.607 222,473.5C 231.146,500.138 245.146,523.805 264,544.5C 296.426,578.626 333.093,606.959 374,629.5C 395.871,617.634 416.705,604.134 436.5,589C 461.372,569.795 483.205,547.628 502,522.5C 516.998,501.497 526.165,478.163 529.5,452.5C 559.344,463.751 589.011,475.584 618.5,488C 647.847,500.033 673.347,517.533 695,540.5C 717.286,570.743 733.453,604.076 743.5,640.5 Z"/></g>
<g><path style="opacity:0.012" fill="#140000" d="M 553.5,454.5 C 553.897,453.475 554.563,453.308 555.5,454C 554.906,454.464 554.239,454.631 553.5,454.5 Z"/></g>
<g><path style="opacity:0.012" fill="#1b0200" d="M 556.5,455.5 C 556.897,454.475 557.563,454.308 558.5,455C 557.906,455.464 557.239,455.631 556.5,455.5 Z"/></g>
<g><path style="opacity:0.012" fill="#140000" d="M 575.5,463.5 C 575.897,462.475 576.563,462.308 577.5,463C 576.906,463.464 576.239,463.631 575.5,463.5 Z"/></g>
<g><path style="opacity:0.012" fill="#140000" d="M 580.5,465.5 C 580.897,464.475 581.563,464.308 582.5,465C 581.906,465.464 581.239,465.631 580.5,465.5 Z"/></g>
<g><path style="opacity:0.004" fill="#080000" d="M 583.5,466.5 C 583.897,465.475 584.563,465.308 585.5,466C 584.906,466.464 584.239,466.631 583.5,466.5 Z"/></g>
<g><path style="opacity:0.012" fill="#140000" d="M 602.5,474.5 C 602.897,473.475 603.563,473.308 604.5,474C 603.906,474.464 603.239,474.631 602.5,474.5 Z"/></g>
<g><path style="opacity:0.012" fill="#140000" d="M 141.5,475.5 C 141.897,474.475 142.563,474.308 143.5,475C 142.906,475.464 142.239,475.631 141.5,475.5 Z"/></g>
<g><path style="opacity:0.004" fill="#080000" d="M 605.5,475.5 C 605.897,474.475 606.563,474.308 607.5,475C 606.906,475.464 606.239,475.631 605.5,475.5 Z"/></g>
<g><path style="opacity:0.012" fill="#140000" d="M 609.5,477.5 C 609.897,476.475 610.563,476.308 611.5,477C 610.906,477.464 610.239,477.631 609.5,477.5 Z"/></g>
<g><path style="opacity:0.012" fill="#140000" d="M 113.5,487.5 C 114.833,488.167 114.833,488.167 113.5,487.5 Z"/></g>
<g><path style="opacity:0.012" fill="#140000" d="M 111.5,488.5 C 112.833,489.167 112.833,489.167 111.5,488.5 Z"/></g>
<g><path style="opacity:0.012" fill="#140000" d="M 91.5,499.5 C 92.8333,500.167 92.8333,500.167 91.5,499.5 Z"/></g>
<g><path style="opacity:0.004" fill="#090000" d="M 71.5,515.5 C 70.8333,515.5 70.5,515.833 70.5,516.5C 68.0248,516.253 68.0248,515.587 70.5,514.5C 71.1067,514.624 71.44,514.957 71.5,515.5 Z"/></g>
<g><path style="opacity:0.012" fill="#130100" d="M 65.5,520.5 C 64.8333,520.5 64.5,520.833 64.5,521.5C 62.0248,521.253 62.0248,520.587 64.5,519.5C 65.1067,519.624 65.44,519.957 65.5,520.5 Z"/></g>
<g><path style="opacity:0.004" fill="#090000" d="M 684.5,521.5 C 685.497,520.287 686.497,520.454 687.5,522C 686.906,522.464 686.239,522.631 685.5,522.5C 684.833,522.5 684.5,522.167 684.5,521.5 Z"/></g>
<g><path style="opacity:0.004" fill="#090000" d="M 52.5,533.5 C 51.8333,533.5 51.5,533.833 51.5,534.5C 50.2875,533.503 50.4542,532.503 52,531.5C 52.4643,532.094 52.631,532.761 52.5,533.5 Z"/></g>
<g><path style="opacity:0.012" fill="#0e0000" d="M 697.5,534.5 C 696.833,534.5 696.5,534.167 696.5,533.5C 696.747,531.025 697.413,531.025 698.5,533.5C 698.376,534.107 698.043,534.44 697.5,534.5 Z"/></g>
<g><path style="opacity:1" fill="#e5e2e0" d="M 434.5,528.5 C 435.552,528.351 436.552,528.517 437.5,529C 417.589,546.947 396.589,563.447 374.5,578.5C 353.5,564.338 333.5,548.838 314.5,532C 347.501,540.743 380.834,541.743 414.5,535C 421.498,533.5 428.165,531.333 434.5,528.5 Z"/></g>
<g><path style="opacity:0.004" fill="#100100" d="M 702.5,540.5 C 701.833,540.5 701.5,540.167 701.5,539.5C 701.747,537.025 702.413,537.025 703.5,539.5C 703.376,540.107 703.043,540.44 702.5,540.5 Z"/></g>
<g><path style="opacity:0.012" fill="#110000" d="M 747.5,628.5 C 747.167,628.5 746.833,628.5 746.5,628.5C 746.833,624.5 747.167,624.5 747.5,628.5 Z"/></g>
<g><path style="opacity:0.012" fill="#110000" d="M 747.5,628.5 C 748.573,629.251 748.74,630.251 748,631.5C 747.517,630.552 747.351,629.552 747.5,628.5 Z"/></g>
<g><path style="opacity:0.012" fill="#0e0000" d="M -0.5,631.5 C 0.434475,632.568 0.767809,633.901 0.5,635.5C 0.166667,635.5 -0.166667,635.5 -0.5,635.5C -0.5,634.167 -0.5,632.833 -0.5,631.5 Z"/></g>
<g><path style="opacity:0.012" fill="#140000" d="M 749.5,632.5 C 749.5,633.5 749.5,634.5 749.5,635.5C 749.167,635.5 748.833,635.5 748.5,635.5C 748.263,634.209 748.596,633.209 749.5,632.5 Z"/></g>
</svg>
