<?xml version="1.0" encoding="UTF-8"?>
<!DOCTYPE svg PUBLIC "-//W3C//DTD SVG 1.1//EN" "http://www.w3.org/Graphics/SVG/1.1/DTD/svg11.dtd">
<svg xmlns="http://www.w3.org/2000/svg" version="1.1" width="750px" height="580px" style="shape-rendering:geometricPrecision; text-rendering:geometricPrecision; image-rendering:optimizeQuality; fill-rule:evenodd; clip-rule:evenodd" xmlns:xlink="http://www.w3.org/1999/xlink">
<g><path style="opacity:0.012" fill="#190200" d="M 345.5,-0.5 C 346.167,-0.5 346.833,-0.5 347.5,-0.5C 346.833,0.833333 346.167,0.833333 345.5,-0.5 Z"/></g>
<g><path style="opacity:0.012" fill="#190200" d="M 356.5,-0.5 C 357.167,-0.5 357.833,-0.5 358.5,-0.5C 358.5,-0.166667 358.5,0.166667 358.5,0.5C 357.508,0.67158 356.842,0.338246 356.5,-0.5 Z"/></g>
<g><path style="opacity:0.961" fill="#1c0c02" d="M 359.5,-0.5 C 363.833,-0.5 368.167,-0.5 372.5,-0.5C 379.59,1.47657 386.924,2.80991 394.5,3.5C 395.568,4.43448 396.901,4.76781 398.5,4.5C 399.919,5.45115 401.585,5.78448 403.5,5.5C 404.315,6.83663 405.482,7.83663 407,8.5C 410.394,7.54416 413.894,7.21083 417.5,7.5C 418.209,8.40397 419.209,8.73731 420.5,8.5C 421.609,9.28997 422.942,9.78997 424.5,10C 422.405,10.5556 422.238,11.0556 424,11.5C 425.887,9.30962 428.053,9.14295 430.5,11C 433.07,13.0673 435.07,15.5673 436.5,18.5C 438.79,19.4671 440.79,20.8004 442.5,22.5C 443.209,23.404 444.209,23.7373 445.5,23.5C 447.277,24.6005 449.277,25.4338 451.5,26C 453.189,28.2526 455.189,30.0859 457.5,31.5C 458.072,33.2554 458.906,34.9221 460,36.5C 461.147,35.5419 462.147,35.8753 463,37.5C 465.024,41.9223 467.858,45.589 471.5,48.5C 471.232,50.099 471.566,51.4324 472.5,52.5C 472.263,53.791 472.596,54.791 473.5,55.5C 473.595,57.7857 474.262,59.7857 475.5,61.5C 475.216,63.4147 475.549,65.0813 476.5,66.5C 476.595,68.7857 477.262,70.7857 478.5,72.5C 479.855,80.6298 481.188,88.6298 482.5,96.5C 482.216,98.4147 482.549,100.081 483.5,101.5C 484.814,115.136 485.814,128.803 486.5,142.5C 486.09,151.745 485.09,160.912 483.5,170C 484.031,171.718 484.698,171.885 485.5,170.5C 487.5,170.5 489.5,170.5 491.5,170.5C 493.633,172.091 495.299,174.091 496.5,176.5C 497.036,189.494 497.369,202.494 497.5,215.5C 496.566,216.568 496.232,217.901 496.5,219.5C 495.596,220.209 495.263,221.209 495.5,222.5C 494.566,223.568 494.232,224.901 494.5,226.5C 493.596,227.209 493.263,228.209 493.5,229.5C 492.566,230.568 492.232,231.901 492.5,233.5C 491.097,236.909 490.43,240.575 490.5,244.5C 489.662,244.842 489.328,245.508 489.5,246.5C 488.833,246.5 488.5,246.833 488.5,247.5C 487.833,247.5 487.5,247.833 487.5,248.5C 486.833,248.5 486.5,248.833 486.5,249.5C 482.733,251.327 478.899,251.66 475,250.5C 474.667,251.167 474.333,251.833 474,252.5C 474.692,284.652 475.525,316.652 476.5,348.5C 478.181,350.008 480.181,351.008 482.5,351.5C 482.842,352.338 483.508,352.672 484.5,352.5C 486.336,354.588 488.669,355.921 491.5,356.5C 492.899,357.89 494.566,358.89 496.5,359.5C 496.842,360.338 497.508,360.672 498.5,360.5C 498.973,361.906 499.973,362.573 501.5,362.5C 502.899,363.89 504.566,364.89 506.5,365.5C 506.973,366.906 507.973,367.573 509.5,367.5C 510.29,368.401 511.29,369.068 512.5,369.5C 513.29,370.401 514.29,371.068 515.5,371.5C 516.436,372.974 517.77,373.974 519.5,374.5C 522.874,377.51 526.208,380.51 529.5,383.5C 530.514,384.674 531.847,385.34 533.5,385.5C 534.93,386.537 536.597,387.204 538.5,387.5C 539.78,388.931 541.447,389.598 543.5,389.5C 545.509,391.065 547.843,392.065 550.5,392.5C 551.93,393.537 553.597,394.204 555.5,394.5C 556.93,395.537 558.597,396.204 560.5,396.5C 561.93,397.537 563.597,398.204 565.5,398.5C 566.78,399.931 568.447,400.598 570.5,400.5C 572.509,402.065 574.843,403.065 577.5,403.5C 578.93,404.537 580.597,405.204 582.5,405.5C 583.93,406.537 585.597,407.204 587.5,407.5C 588.78,408.931 590.447,409.598 592.5,409.5C 594.509,411.065 596.843,412.065 599.5,412.5C 600.93,413.537 602.597,414.204 604.5,414.5C 606.649,415.736 608.982,416.736 611.5,417.5C 612.209,418.404 613.209,418.737 614.5,418.5C 615.514,419.674 616.847,420.34 618.5,420.5C 619.78,421.931 621.447,422.598 623.5,422.5C 629.849,426.341 636.516,429.675 643.5,432.5C 643.842,433.338 644.508,433.672 645.5,433.5C 647.336,435.588 649.669,436.921 652.5,437.5C 653.659,439.25 655.326,440.25 657.5,440.5C 657.973,441.906 658.973,442.573 660.5,442.5C 661.29,443.401 662.29,444.068 663.5,444.5C 664.29,445.401 665.29,446.068 666.5,446.5C 668.531,448.522 670.865,450.189 673.5,451.5C 674.945,453.063 676.611,454.396 678.5,455.5C 681.141,457.804 683.808,460.138 686.5,462.5C 692.195,468.526 697.861,474.526 703.5,480.5C 703.738,482.404 704.738,483.738 706.5,484.5C 707.34,486.853 708.674,488.853 710.5,490.5C 710.427,492.027 711.094,493.027 712.5,493.5C 712.75,495.674 713.75,497.341 715.5,498.5C 715.75,500.674 716.75,502.341 718.5,503.5C 718.992,505.819 719.992,507.819 721.5,509.5C 721.75,511.674 722.75,513.341 724.5,514.5C 724.328,515.492 724.662,516.158 725.5,516.5C 725.328,517.492 725.662,518.158 726.5,518.5C 726.328,519.492 726.662,520.158 727.5,520.5C 727.328,521.492 727.662,522.158 728.5,522.5C 728.328,523.492 728.662,524.158 729.5,524.5C 729.328,525.492 729.662,526.158 730.5,526.5C 731.042,529.912 732.375,532.912 734.5,535.5C 734.707,538.241 735.707,540.574 737.5,542.5C 737.402,544.553 738.069,546.22 739.5,547.5C 739.263,548.791 739.596,549.791 740.5,550.5C 740.402,552.553 741.069,554.22 742.5,555.5C 742.263,556.791 742.596,557.791 743.5,558.5C 743.263,559.791 743.596,560.791 744.5,561.5C 744.263,562.791 744.596,563.791 745.5,564.5C 745.263,565.791 745.596,566.791 746.5,567.5C 746.41,570.152 747.076,572.485 748.5,574.5C 748.232,576.099 748.566,577.432 749.5,578.5C 749.5,578.833 749.5,579.167 749.5,579.5C 747.5,579.5 745.5,579.5 743.5,579.5C 733.536,543.575 717.703,510.575 696,480.5C 677.641,460.485 656.141,444.651 631.5,433C 597.91,418.529 564.243,404.363 530.5,390.5C 526.526,416.439 517.026,440.106 502,461.5C 480.087,490.747 454.253,515.914 424.5,537C 410.104,547.06 395.438,556.726 380.5,566C 378.086,567.885 375.419,568.552 372.5,568C 332.663,545.517 296.83,517.684 265,484.5C 247.287,465.087 233.62,443.087 224,418.5C 221.053,409.715 219.22,400.715 218.5,391.5C 188.923,402.639 159.589,414.472 130.5,427C 100.789,439.404 74.9558,457.237 53,480.5C 31.2921,510.586 15.4588,543.586 5.5,579.5C 3.5,579.5 1.5,579.5 -0.5,579.5C -0.5,579.167 -0.5,578.833 -0.5,578.5C 0.833333,577.167 0.833333,575.833 -0.5,574.5C -0.5,573.5 -0.5,572.5 -0.5,571.5C 0.396953,572.598 1.23029,572.598 2,571.5C 2.49001,570.207 2.65668,568.873 2.5,567.5C 3.40397,566.791 3.73731,565.791 3.5,564.5C 4.33903,563.359 5.00569,562.026 5.5,560.5C 4.57211,559.232 4.40544,557.899 5,556.5C 5.33333,557.167 5.66667,557.833 6,558.5C 7.97572,555.29 8.64238,551.957 8,548.5C 8.33333,549.167 8.66667,549.833 9,550.5C 10.0086,548.975 10.5086,547.308 10.5,545.5C 11.9313,544.22 12.5979,542.553 12.5,540.5C 16.4704,533.311 19.4704,526.644 21.5,520.5C 21.8744,517.812 22.8744,515.812 24.5,514.5C 27.6002,509.815 30.6002,504.981 33.5,500C 45.8767,477.722 64.21,458.556 88.5,442.5C 93.7671,439.89 98.7671,436.89 103.5,433.5C 111.151,430.341 118.484,426.675 125.5,422.5C 128.912,421.958 131.912,420.625 134.5,418.5C 142.118,416.019 149.451,413.019 156.5,409.5C 165.805,406.403 174.805,402.736 183.5,398.5C 191.118,396.019 198.451,393.019 205.5,389.5C 209.578,388.298 213.578,386.798 217.5,385C 220.842,381.326 224.508,377.992 228.5,375C 237.565,369.143 246.565,363.309 255.5,357.5C 260.5,355.336 265.167,352.669 269.5,349.5C 271.153,349.34 272.486,348.674 273.5,347.5C 274.717,339.6 274.384,331.933 272.5,324.5C 273.661,309.005 273.828,293.339 273,277.5C 272.79,275.942 272.29,274.609 271.5,273.5C 271.451,269.922 270.785,266.589 269.5,263.5C 270.737,257.618 268.403,254.618 262.5,254.5C 259.833,252.5 257.5,250.167 255.5,247.5C 255.737,246.209 255.404,245.209 254.5,244.5C 254.435,241.572 253.768,238.905 252.5,236.5C 252.672,235.508 252.338,234.842 251.5,234.5C 251.737,233.209 251.404,232.209 250.5,231.5C 249.843,221.16 249.009,210.827 248,200.5C 247.283,199.956 246.783,199.289 246.5,198.5C 246.377,192.6 246.877,186.6 248,180.5C 249.701,176.125 252.867,174.458 257.5,175.5C 257.917,172.921 257.25,170.754 255.5,169C 256.26,155.04 257.26,141.04 258.5,127C 258.486,125.615 258.152,124.449 257.5,123.5C 259.602,118.483 260.602,113.15 260.5,107.5C 261.461,105.735 261.795,103.735 261.5,101.5C 262.451,100.081 262.784,98.4147 262.5,96.5C 263.434,95.4324 263.768,94.099 263.5,92.5C 264.434,91.4324 264.768,90.099 264.5,88.5C 265.317,78.8567 266.65,69.1901 268.5,59.5C 269.674,58.4863 270.34,57.153 270.5,55.5C 271.971,53.6155 272.471,51.6155 272,49.5C 272.667,50.8333 273.333,50.8333 274,49.5C 274.333,47.5 274.667,45.5 275,43.5C 279.266,41.832 281.266,38.4987 281,33.5C 281.333,33.8333 281.667,34.1667 282,34.5C 283.667,33.2668 285.167,31.9335 286.5,30.5C 288.553,30.5979 290.22,29.9313 291.5,28.5C 293.5,25.8333 295.833,23.5 298.5,21.5C 302.102,21.5326 305.102,20.1993 307.5,17.5C 308.086,17.7093 308.586,18.0426 309,18.5C 311.479,16.6859 313.979,15.0192 316.5,13.5C 318.766,13.1412 320.599,13.8078 322,15.5C 327.736,13.6176 332.569,10.2843 336.5,5.5C 340.771,4.72988 344.771,3.22988 348.5,1C 352.043,0.855698 355.376,0.689031 358.5,0.5C 359.167,0.5 359.5,0.166667 359.5,-0.5 Z"/></g>
<g><path style="opacity:0.012" fill="#190200" d="M 376.5,-0.5 C 378.833,-0.5 381.167,-0.5 383.5,-0.5C 381.167,0.833333 378.833,0.833333 376.5,-0.5 Z"/></g>
<g><path style="opacity:0.012" fill="#190200" d="M 343.5,0.5 C 344.833,1.16667 344.833,1.16667 343.5,0.5 Z"/></g>
<g><path style="opacity:0.012" fill="#190200" d="M 384.5,1.5 C 386.966,0.365936 389.633,0.199269 392.5,1C 389.854,1.49742 387.187,1.66409 384.5,1.5 Z"/></g>
<g><path style="opacity:0.012" fill="#190200" d="M 394.5,3.5 C 395.251,2.42654 396.251,2.25988 397.5,3C 396.552,3.48278 395.552,3.64945 394.5,3.5 Z"/></g>
<g><path style="opacity:0.012" fill="#190200" d="M 336.5,3.5 C 337.833,4.16667 337.833,4.16667 336.5,3.5 Z"/></g>
<g><path style="opacity:0.012" fill="#190200" d="M 398.5,4.5 C 398.897,3.47498 399.563,3.30831 400.5,4C 399.906,4.46434 399.239,4.63101 398.5,4.5 Z"/></g>
<g><path style="opacity:0.012" fill="#190200" d="M 401.5,3.5 C 402.833,4.16667 402.833,4.16667 401.5,3.5 Z"/></g>
<g><path style="opacity:0.012" fill="#190200" d="M 336.5,4.5 C 336.5,4.83333 336.5,5.16667 336.5,5.5C 335.83,5.01865 335.83,4.68532 336.5,4.5 Z"/></g>
<g><path style="opacity:0.012" fill="#190200" d="M 403.5,4.5 C 404.833,5.16667 404.833,5.16667 403.5,4.5 Z"/></g>
<g><path style="opacity:0.012" fill="#190200" d="M 405.5,5.5 C 406.833,6.16667 406.833,6.16667 405.5,5.5 Z"/></g>
<g><path style="opacity:0.012" fill="#190200" d="M 408.5,6.5 C 410.966,5.36594 413.633,5.19927 416.5,6C 413.854,6.49742 411.187,6.66409 408.5,6.5 Z"/></g>
<g><path style="opacity:0.012" fill="#190200" d="M 417.5,7.5 C 417.897,6.47498 418.563,6.30831 419.5,7C 418.906,7.46434 418.239,7.63101 417.5,7.5 Z"/></g>
<g><path style="opacity:0.012" fill="#190200" d="M 420.5,7.5 C 421.833,8.16667 421.833,8.16667 420.5,7.5 Z"/></g>
<g><path style="opacity:0.012" fill="#190200" d="M 428.5,8.5 C 429.833,9.16667 429.833,9.16667 428.5,8.5 Z"/></g>
<g><path style="opacity:0.012" fill="#190200" d="M 317.5,12.5 C 318.251,11.4265 319.251,11.2599 320.5,12C 319.552,12.4828 318.552,12.6495 317.5,12.5 Z"/></g>
<g><path style="opacity:0.012" fill="#190200" d="M 316.5,13.5 C 315.761,13.631 315.094,13.4643 314.5,13C 315.437,12.3083 316.103,12.475 316.5,13.5 Z"/></g>
<g><path style="opacity:0.012" fill="#190200" d="M 322.5,13.5 C 323.946,12.3871 325.613,12.2204 327.5,13C 325.866,13.4935 324.199,13.6602 322.5,13.5 Z"/></g>
<g><path style="opacity:0.012" fill="#190200" d="M 312.5,13.5 C 313.833,14.1667 313.833,14.1667 312.5,13.5 Z"/></g>
<g><path style="opacity:0.012" fill="#190200" d="M 310.5,14.5 C 311.833,15.1667 311.833,15.1667 310.5,14.5 Z"/></g>
<g><path style="opacity:0.012" fill="#190200" d="M 307.5,15.5 C 308.833,16.1667 308.833,16.1667 307.5,15.5 Z"/></g>
<g><path style="opacity:0.012" fill="#190200" d="M 299.5,20.5 C 299.897,19.475 300.563,19.3083 301.5,20C 300.906,20.4643 300.239,20.631 299.5,20.5 Z"/></g>
<g><path style="opacity:0.012" fill="#190200" d="M 298.5,21.5 C 297.833,20.1667 297.833,20.1667 298.5,21.5 Z"/></g>
<g><path style="opacity:0.012" fill="#190200" d="M 442.5,22.5 C 442.897,21.475 443.563,21.3083 444.5,22C 443.906,22.4643 443.239,22.631 442.5,22.5 Z"/></g>
<g><path style="opacity:0.012" fill="#190200" d="M 445.5,23.5 C 446.251,22.4265 447.251,22.2599 448.5,23C 447.552,23.4828 446.552,23.6495 445.5,23.5 Z"/></g>
<g><path style="opacity:0.012" fill="#190200" d="M 449.5,23.5 C 450.833,24.1667 450.833,24.1667 449.5,23.5 Z"/></g>
<g><path style="opacity:0.012" fill="#190200" d="M 291.5,25.5 C 292.833,26.1667 292.833,26.1667 291.5,25.5 Z"/></g>
<g><path style="opacity:0.012" fill="#190200" d="M 291.5,28.5 C 290.761,28.631 290.094,28.4643 289.5,28C 290.437,27.3083 291.103,27.475 291.5,28.5 Z"/></g>
<g><path style="opacity:0.012" fill="#190200" d="M 287.5,28.5 C 288.833,29.1667 288.833,29.1667 287.5,28.5 Z"/></g>
<g><path style="opacity:0.012" fill="#190200" d="M 286.5,30.5 C 285.833,29.1667 285.833,29.1667 286.5,30.5 Z"/></g>
<g><path style="opacity:0.012" fill="#190200" d="M 283.5,30.5 C 284.833,31.1667 284.833,31.1667 283.5,30.5 Z"/></g>
<g><path style="opacity:0.012" fill="#190200" d="M 457.5,30.5 C 458.833,31.1667 458.833,31.1667 457.5,30.5 Z"/></g>
<g><path style="opacity:0.012" fill="#190200" d="M 272.5,43.5 C 273.598,44.6009 273.765,45.9343 273,47.5C 272.51,46.2068 272.343,44.8734 272.5,43.5 Z"/></g>
<g><path style="opacity:0.012" fill="#190200" d="M 470.5,44.5 C 471.833,45.1667 471.833,45.1667 470.5,44.5 Z"/></g>
<g><path style="opacity:0.012" fill="#190200" d="M 471.5,48.5 C 471.369,47.7611 471.536,47.0944 472,46.5C 472.692,47.4368 472.525,48.1034 471.5,48.5 Z"/></g>
<g><path style="opacity:0.012" fill="#190200" d="M 472.5,52.5 C 472.351,51.448 472.517,50.448 473,49.5C 473.74,50.7494 473.573,51.7494 472.5,52.5 Z"/></g>
<g><path style="opacity:0.012" fill="#190200" d="M 270.5,55.5 C 270.167,55.5 269.833,55.5 269.5,55.5C 269.833,52.8333 270.167,52.8333 270.5,55.5 Z"/></g>
<g><path style="opacity:0.012" fill="#190200" d="M 473.5,55.5 C 473.369,54.7611 473.536,54.0944 474,53.5C 474.692,54.4368 474.525,55.1034 473.5,55.5 Z"/></g>
<g><path style="opacity:0.012" fill="#190200" d="M 269.5,55.5 C 268.833,56.1667 268.833,56.1667 269.5,55.5 Z"/></g>
<g><path style="opacity:0.012" fill="#190200" d="M 268.5,59.5 C 267.475,59.1034 267.308,58.4368 268,57.5C 268.464,58.0944 268.631,58.7611 268.5,59.5 Z"/></g>
<g><path style="opacity:0.012" fill="#190200" d="M 475.5,61.5 C 475.351,60.448 475.517,59.448 476,58.5C 476.74,59.7494 476.573,60.7494 475.5,61.5 Z"/></g>
<g><path style="opacity:0.012" fill="#190200" d="M 477.5,66.5 C 477.167,66.5 476.833,66.5 476.5,66.5C 476.833,61.1667 477.167,61.1667 477.5,66.5 Z"/></g>
<g><path style="opacity:0.012" fill="#190200" d="M 477.5,66.5 C 478.525,66.8966 478.692,67.5632 478,68.5C 477.536,67.9056 477.369,67.2389 477.5,66.5 Z"/></g>
<g><path style="opacity:0.012" fill="#190200" d="M 479.5,72.5 C 479.167,72.5 478.833,72.5 478.5,72.5C 478.833,68.5 479.167,68.5 479.5,72.5 Z"/></g>
<g><path style="opacity:0.012" fill="#190200" d="M 264.5,71.5 C 265.525,71.8966 265.692,72.5632 265,73.5C 264.536,72.9056 264.369,72.2389 264.5,71.5 Z"/></g>
<g><path style="opacity:0.012" fill="#190200" d="M 479.5,72.5 C 480.573,73.2506 480.74,74.2506 480,75.5C 479.517,74.552 479.351,73.552 479.5,72.5 Z"/></g>
<g><path style="opacity:0.012" fill="#190200" d="M 264.5,88.5 C 263.353,84.3537 263.186,80.0204 264,75.5C 264.499,79.8206 264.666,84.1539 264.5,88.5 Z"/></g>
<g><path style="opacity:1" fill="#1f0d01" d="M 479.5,126.5 C 475.95,125.402 472.45,125.402 469,126.5C 468.667,125.833 468.333,125.167 468,124.5C 467.802,126.382 467.302,128.048 466.5,129.5C 466.726,117.689 464.559,106.356 460,95.5C 458.457,93.6217 456.624,92.1217 454.5,91C 420.137,80.0815 385.137,76.2482 349.5,79.5C 326.666,80.5667 304.666,85.4 283.5,94C 279.164,97.8204 277.164,102.654 277.5,108.5C 276.698,107.048 276.198,105.382 276,103.5C 274.807,105.605 273.14,107.272 271,108.5C 270.282,107.549 269.449,107.383 268.5,108C 267.934,108.995 267.267,109.828 266.5,110.5C 266.943,103.869 268.443,97.5355 271,91.5C 271.193,86.2497 271.693,81.083 272.5,76C 338.832,75.5 405.166,75.3333 471.5,75.5C 476.211,92.0767 478.878,109.077 479.5,126.5 Z"/></g>
<g><path style="opacity:0.012" fill="#190200" d="M 480.5,76.5 C 481.598,77.6009 481.765,78.9343 481,80.5C 480.51,79.2068 480.343,77.8734 480.5,76.5 Z"/></g>
<g><path style="opacity:1" fill="#965335" d="M 349.5,79.5 C 360.52,79.1679 371.52,79.5012 382.5,80.5C 396.408,97.7247 402.575,117.391 401,139.5C 399.681,146.464 397.515,153.13 394.5,159.5C 393.074,160.341 391.74,161.341 390.5,162.5C 385.163,162.263 380.33,163.596 376,166.5C 375.295,164.014 374.462,164.014 373.5,166.5C 371.653,169.594 371.153,172.928 372,176.5C 375.236,185.965 378.736,195.298 382.5,204.5C 382.783,205.289 383.283,205.956 384,206.5C 384.333,204.833 384.667,203.167 385,201.5C 390.969,208.069 398.469,211.902 407.5,213C 425.967,215.298 442.967,211.465 458.5,201.5C 459.478,201.977 460.311,202.643 461,203.5C 464.289,216.305 461.455,227.471 452.5,237C 441.622,240.694 435.955,248.194 435.5,259.5C 434.761,259.369 434.094,259.536 433.5,260C 434.823,260.816 435.489,261.983 435.5,263.5C 435.185,273.085 435.019,282.752 435,292.5C 433.557,297.389 431.557,302.055 429,306.5C 415.046,324.953 400.546,342.953 385.5,360.5C 376.913,361.728 368.247,362.228 359.5,362C 353.5,359.333 347.5,356.667 341.5,354C 333.589,346.416 326.755,337.916 321,328.5C 318.21,324.874 314.71,322.208 310.5,320.5C 309.833,324.647 309.166,328.647 308.5,332.5C 302.431,324.707 296.598,316.707 291,308.5C 286.021,299.226 282.021,289.56 279,279.5C 272.616,252.532 269.283,225.199 269,197.5C 266.829,188.853 264.996,180.187 263.5,171.5C 264.42,163.733 265.92,156.067 268,148.5C 271.817,144.532 274.317,139.865 275.5,134.5C 276.195,125.864 276.862,117.198 277.5,108.5C 277.164,102.654 279.164,97.8204 283.5,94C 304.666,85.4 326.666,80.5667 349.5,79.5 Z"/></g>
<g><path style="opacity:1" fill="#86452d" d="M 349.5,79.5 C 385.137,76.2482 420.137,80.0815 454.5,91C 456.624,92.1217 458.457,93.6217 460,95.5C 464.559,106.356 466.726,117.689 466.5,129.5C 469.912,136.665 473.079,143.998 476,151.5C 477.636,156.375 478.469,161.375 478.5,166.5C 477.237,171.795 476.07,177.128 475,182.5C 474.86,199.861 474.193,217.194 473,234.5C 468.546,254.451 463.213,274.118 457,293.5C 451.133,305.507 444.3,316.84 436.5,327.5C 435.681,324.695 435.181,321.695 435,318.5C 434.282,317.549 433.449,317.383 432.5,318C 426.804,322.545 422.971,328.378 421,335.5C 418.955,338.423 416.788,341.257 414.5,344C 404.779,349.524 395.112,355.024 385.5,360.5C 400.546,342.953 415.046,324.953 429,306.5C 431.557,302.055 433.557,297.389 435,292.5C 435.019,282.752 435.185,273.085 435.5,263.5C 436.319,266.305 436.819,269.305 437,272.5C 439.257,267.805 438.757,263.472 435.5,259.5C 435.955,248.194 441.622,240.694 452.5,237C 461.455,227.471 464.289,216.305 461,203.5C 460.311,202.643 459.478,201.977 458.5,201.5C 442.967,211.465 425.967,215.298 407.5,213C 398.469,211.902 390.969,208.069 385,201.5C 384.667,203.167 384.333,204.833 384,206.5C 383.283,205.956 382.783,205.289 382.5,204.5C 383.629,202.372 383.796,200.039 383,197.5C 380.197,189.422 377.197,181.422 374,173.5C 373.874,170.937 373.707,168.604 373.5,166.5C 374.462,164.014 375.295,164.014 376,166.5C 380.33,163.596 385.163,162.263 390.5,162.5C 389.186,165.41 389.853,167.91 392.5,170C 395.5,170.667 398.5,170.667 401.5,170C 419.231,163.052 436.231,164.385 452.5,174C 455.134,174.925 456.301,174.091 456,171.5C 449.94,161.87 441.107,156.37 429.5,155C 423.167,154.333 416.833,154.333 410.5,155C 405.395,157.39 400.062,158.89 394.5,159.5C 397.515,153.13 399.681,146.464 401,139.5C 402.575,117.391 396.408,97.7247 382.5,80.5C 371.52,79.5012 360.52,79.1679 349.5,79.5 Z"/></g>
<g><path style="opacity:0.012" fill="#190200" d="M 481.5,81.5 C 482.613,82.9464 482.78,84.6131 482,86.5C 481.506,84.8659 481.34,83.1992 481.5,81.5 Z"/></g>
<g><path style="opacity:0.012" fill="#190200" d="M 482.5,96.5 C 482.336,93.8127 482.503,91.146 483,88.5C 483.801,91.367 483.634,94.0336 482.5,96.5 Z"/></g>
<g><path style="opacity:0.012" fill="#190200" d="M 263.5,92.5 C 262.427,91.7494 262.26,90.7494 263,89.5C 263.483,90.448 263.649,91.448 263.5,92.5 Z"/></g>
<g><path style="opacity:0.012" fill="#190200" d="M 262.5,96.5 C 261.427,95.7494 261.26,94.7494 262,93.5C 262.483,94.448 262.649,95.448 262.5,96.5 Z"/></g>
<g><path style="opacity:0.012" fill="#190200" d="M 261.5,101.5 C 260.402,100.399 260.235,99.0657 261,97.5C 261.49,98.7932 261.657,100.127 261.5,101.5 Z"/></g>
<g><path style="opacity:0.012" fill="#190200" d="M 483.5,101.5 C 483.343,100.127 483.51,98.7932 484,97.5C 484.765,99.0657 484.598,100.399 483.5,101.5 Z"/></g>
<g><path style="opacity:0.012" fill="#190200" d="M 260.5,107.5 C 259.387,106.054 259.22,104.387 260,102.5C 260.494,104.134 260.66,105.801 260.5,107.5 Z"/></g>
<g><path style="opacity:0.012" fill="#190200" d="M 484.5,102.5 C 485.613,103.946 485.78,105.613 485,107.5C 484.506,105.866 484.34,104.199 484.5,102.5 Z"/></g>
<g><path style="opacity:1" fill="#2b1404" d="M 277.5,108.5 C 276.862,117.198 276.195,125.864 275.5,134.5C 274.691,132.708 274.191,130.708 274,128.5C 273.647,130.074 272.98,131.741 272,133.5C 271.692,132.692 271.192,132.025 270.5,131.5C 269.033,131.723 267.533,132.056 266,132.5C 265.667,131.833 265.333,131.167 265,130.5C 264.79,132.058 264.29,133.391 263.5,134.5C 264.336,126.478 265.336,118.478 266.5,110.5C 267.267,109.828 267.934,108.995 268.5,108C 269.449,107.383 270.282,107.549 271,108.5C 273.14,107.272 274.807,105.605 276,103.5C 276.198,105.382 276.698,107.048 277.5,108.5 Z"/></g>
<g><path style="opacity:0.012" fill="#190200" d="M 258.5,108.5 C 259.613,109.946 259.78,111.613 259,113.5C 258.506,111.866 258.34,110.199 258.5,108.5 Z"/></g>
<g><path style="opacity:0.012" fill="#190200" d="M 485.5,109.5 C 486.629,111.628 486.796,113.961 486,116.5C 485.503,114.19 485.337,111.857 485.5,109.5 Z"/></g>
<g><path style="opacity:0.012" fill="#190200" d="M 257.5,115.5 C 258.613,116.946 258.78,118.613 258,120.5C 257.506,118.866 257.34,117.199 257.5,115.5 Z"/></g>
<g><path style="opacity:0.012" fill="#190200" d="M 486.5,118.5 C 487.648,122.981 487.815,127.648 487,132.5C 486.501,127.845 486.334,123.179 486.5,118.5 Z"/></g>
<g><path style="opacity:0.012" fill="#190200" d="M 257.5,123.5 C 257.662,125.527 257.495,127.527 257,129.5C 256.211,127.288 256.378,125.288 257.5,123.5 Z"/></g>
<g><path style="opacity:1" fill="#321706" d="M 479.5,126.5 C 481.055,140.025 480.722,153.359 478.5,166.5C 478.469,161.375 477.636,156.375 476,151.5C 473.079,143.998 469.912,136.665 466.5,129.5C 467.302,128.048 467.802,126.382 468,124.5C 468.333,125.167 468.667,125.833 469,126.5C 472.45,125.402 475.95,125.402 479.5,126.5 Z"/></g>
<g><path style="opacity:0.012" fill="#190200" d="M 255.5,132.5 C 256.638,135.304 256.805,138.304 256,141.5C 255.502,138.518 255.335,135.518 255.5,132.5 Z"/></g>
<g><path style="opacity:1" fill="#3e1e0c" d="M 275.5,134.5 C 274.317,139.865 271.817,144.532 268,148.5C 265.92,156.067 264.42,163.733 263.5,171.5C 262.239,159.314 262.239,146.98 263.5,134.5C 264.29,133.391 264.79,132.058 265,130.5C 265.333,131.167 265.667,131.833 266,132.5C 267.533,132.056 269.033,131.723 270.5,131.5C 271.192,132.025 271.692,132.692 272,133.5C 272.98,131.741 273.647,130.074 274,128.5C 274.191,130.708 274.691,132.708 275.5,134.5 Z"/></g>
<g><path style="opacity:0.012" fill="#190200" d="M 254.5,146.5 C 255.655,153.321 255.821,160.321 255,167.5C 254.5,160.508 254.334,153.508 254.5,146.5 Z"/></g>
<g><path style="opacity:0.012" fill="#190200" d="M 486.5,152.5 C 487.638,155.304 487.805,158.304 487,161.5C 486.502,158.518 486.335,155.518 486.5,152.5 Z"/></g>
<g><path style="opacity:1" fill="#1b0c01" d="M 390.5,162.5 C 391.74,161.341 393.074,160.341 394.5,159.5C 400.062,158.89 405.395,157.39 410.5,155C 416.833,154.333 423.167,154.333 429.5,155C 441.107,156.37 449.94,161.87 456,171.5C 456.301,174.091 455.134,174.925 452.5,174C 436.231,164.385 419.231,163.052 401.5,170C 398.5,170.667 395.5,170.667 392.5,170C 389.853,167.91 389.186,165.41 390.5,162.5 Z"/></g>
<g><path style="opacity:1" fill="#1b0c01" d="M 351.5,169.5 C 349.841,170.97 347.841,171.637 345.5,171.5C 339.68,170.975 334.014,169.809 328.5,168C 313.805,165.388 300.138,167.888 287.5,175.5C 286.817,175.137 286.15,174.804 285.5,174.5C 286.837,169.994 289.504,166.494 293.5,164C 312.346,154.189 331.346,154.022 350.5,163.5C 351.466,165.396 351.799,167.396 351.5,169.5 Z"/></g>
<g><path style="opacity:0.012" fill="#190200" d="M 485.5,163.5 C 486.598,164.601 486.765,165.934 486,167.5C 485.51,166.207 485.343,164.873 485.5,163.5 Z"/></g>
<g><path style="opacity:1" fill="#84442c" d="M 351.5,169.5 C 351.774,173.635 351.107,177.802 349.5,182C 354.242,192.833 351.242,200.5 340.5,205C 336.317,206.796 331.984,208.129 327.5,209C 313.439,209.281 299.439,208.447 285.5,206.5C 289.341,205.082 292.675,202.915 295.5,200C 291.473,197.896 287.64,195.396 284,192.5C 283.512,186.423 284.012,180.423 285.5,174.5C 286.15,174.804 286.817,175.137 287.5,175.5C 300.138,167.888 313.805,165.388 328.5,168C 334.014,169.809 339.68,170.975 345.5,171.5C 347.841,171.637 349.841,170.97 351.5,169.5 Z"/></g>
<g><path style="opacity:0.012" fill="#190200" d="M 485.5,169.5 C 486.946,168.387 488.613,168.22 490.5,169C 488.866,169.494 487.199,169.66 485.5,169.5 Z"/></g>
<g><path style="opacity:0.012" fill="#190200" d="M 485.5,169.5 C 485.5,169.833 485.5,170.167 485.5,170.5C 484.83,170.019 484.83,169.685 485.5,169.5 Z"/></g>
<g><path style="opacity:0.012" fill="#190200" d="M 491.5,169.5 C 492.833,170.167 492.833,170.167 491.5,169.5 Z"/></g>
<g><path style="opacity:0.012" fill="#190200" d="M 255.5,170.5 C 256.434,171.568 256.768,172.901 256.5,174.5C 250.833,174.336 250.5,174.003 255.5,173.5C 255.5,172.5 255.5,171.5 255.5,170.5 Z"/></g>
<g><path style="opacity:0.012" fill="#190200" d="M 496.5,176.5 C 496.369,175.761 496.536,175.094 497,174.5C 497.692,175.437 497.525,176.103 496.5,176.5 Z"/></g>
<g><path style="opacity:1" fill="#120600" d="M 414.5,174.5 C 425.571,173.601 435.571,176.434 444.5,183C 439.296,182.246 434.296,180.58 429.5,178C 420.483,175.501 411.816,176.335 403.5,180.5C 402.304,180.154 402.304,179.654 403.5,179C 407.053,176.879 410.72,175.379 414.5,174.5 Z"/></g>
<g><path style="opacity:1" fill="#894b2f" d="M 489.5,182.5 C 484.746,185.606 481.412,189.939 479.5,195.5C 477.57,188.051 479.57,181.884 485.5,177C 487.134,176.506 488.801,176.34 490.5,176.5C 490.675,178.621 490.341,180.621 489.5,182.5 Z"/></g>
<g><path style="opacity:0.012" fill="#190200" d="M 497.5,177.5 C 498.647,181.646 498.814,185.98 498,190.5C 497.501,186.179 497.334,181.846 497.5,177.5 Z"/></g>
<g><path style="opacity:1" fill="#100701" d="M 335.5,179.5 C 321.356,175.729 307.856,177.396 295,184.5C 294.235,184.43 293.735,184.097 293.5,183.5C 297.423,182.205 301.09,180.372 304.5,178C 312.349,175.676 320.349,175.009 328.5,176C 331.445,176.139 333.779,177.306 335.5,179.5 Z"/></g>
<g><path style="opacity:1" fill="#6b3620" d="M 335.5,179.5 C 338.262,180.38 340.929,181.546 343.5,183C 341.321,182.716 339.321,182.883 337.5,183.5C 330.59,180.087 323.256,178.753 315.5,179.5C 314.209,179.263 313.209,179.596 312.5,180.5C 306.301,181.9 300.301,183.9 294.5,186.5C 293.048,185.698 291.382,185.198 289.5,185C 290.745,184.209 292.078,183.709 293.5,183.5C 293.735,184.097 294.235,184.43 295,184.5C 307.856,177.396 321.356,175.729 335.5,179.5 Z"/></g>
<g><path style="opacity:1" fill="#190b01" d="M 373.5,166.5 C 373.707,168.604 373.874,170.937 374,173.5C 377.197,181.422 380.197,189.422 383,197.5C 383.796,200.039 383.629,202.372 382.5,204.5C 378.736,195.298 375.236,185.965 372,176.5C 371.153,172.928 371.653,169.594 373.5,166.5 Z"/></g>
<g><path style="opacity:0.012" fill="#190200" d="M 245.5,180.5 C 246.525,180.897 246.692,181.563 246,182.5C 245.536,181.906 245.369,181.239 245.5,180.5 Z"/></g>
<g><path style="opacity:1" fill="#86492d" d="M 254.5,180.5 C 262.311,186.593 265.645,194.593 264.5,204.5C 261.781,196.723 257.781,189.723 252.5,183.5C 253.193,182.482 253.859,181.482 254.5,180.5 Z"/></g>
<g><path style="opacity:1" fill="#1a1009" d="M 409.5,179.5 C 421.929,178.486 433.595,180.986 444.5,187C 445.833,188 445.833,189 444.5,190C 439.9,191.317 435.234,192.317 430.5,193C 418.492,193.5 406.492,193.333 394.5,192.5C 394.472,190.418 395.139,188.584 396.5,187C 400.602,183.954 404.935,181.454 409.5,179.5 Z"/></g>
<g><path style="opacity:0.012" fill="#190200" d="M 244.5,183.5 C 245.629,185.628 245.796,187.961 245,190.5C 244.503,188.19 244.337,185.857 244.5,183.5 Z"/></g>
<g><path style="opacity:1" fill="#8a8785" d="M 409.5,188.5 C 408.842,187.602 408.176,186.602 407.5,185.5C 405.142,186.154 403.475,187.487 402.5,189.5C 401.427,188.749 401.26,187.749 402,186.5C 404.333,185.167 406.667,183.833 409,182.5C 409.495,184.473 409.662,186.473 409.5,188.5 Z"/></g>
<g><path style="opacity:1" fill="#d5d3d2" d="M 413.5,186.5 C 413.494,183.452 414.494,182.952 416.5,185C 415.756,186.039 414.756,186.539 413.5,186.5 Z"/></g>
<g><path style="opacity:1" fill="#d7d5d4" d="M 427.5,183.5 C 432.355,182.964 434.521,184.964 434,189.5C 431.688,191.464 429.188,191.797 426.5,190.5C 427.374,188.253 427.708,185.92 427.5,183.5 Z"/></g>
<g><path style="opacity:1" fill="#f2f1f1" d="M 409.5,188.5 C 408.848,189.725 407.681,190.392 406,190.5C 404.615,190.486 403.449,190.152 402.5,189.5C 403.475,187.487 405.142,186.154 407.5,185.5C 408.176,186.602 408.842,187.602 409.5,188.5 Z"/></g>
<g><path style="opacity:1" fill="#80422a" d="M 489.5,182.5 C 491.453,188.074 492.12,194.074 491.5,200.5C 488.44,206.944 484.607,212.944 480,218.5C 479.821,222.025 479.321,225.359 478.5,228.5C 477.788,212.02 481.454,196.686 489.5,182.5 Z"/></g>
<g><path style="opacity:1" fill="#251306" d="M 312.5,180.5 C 313.209,179.596 314.209,179.263 315.5,179.5C 318.977,180.323 322.644,180.823 326.5,181C 322.75,181.26 319.084,181.927 315.5,183C 314.209,184.292 314.209,185.458 315.5,186.5C 317.549,190.724 320.382,191.391 324,188.5C 324.195,186.793 324.195,185.126 324,183.5C 325.011,184.337 326.178,184.67 327.5,184.5C 327.232,187.119 327.565,189.619 328.5,192C 322.651,192.818 316.985,192.652 311.5,191.5C 311.5,190.833 311.5,190.167 311.5,189.5C 311.5,187.167 311.5,184.833 311.5,182.5C 311.918,181.778 312.584,181.278 313.5,181C 313.272,180.601 312.938,180.435 312.5,180.5 Z"/></g>
<g><path style="opacity:1" fill="#371a08" d="M 413.5,186.5 C 414.562,190.353 416.895,191.353 420.5,189.5C 421.76,187.647 421.76,185.814 420.5,184C 425.71,184.268 426.71,186.601 423.5,191C 419.789,191.825 416.122,191.659 412.5,190.5C 411.515,188.902 411.349,187.235 412,185.5C 412.383,186.056 412.883,186.389 413.5,186.5 Z"/></g>
<g><path style="opacity:0.012" fill="#190200" d="M 246.5,198.5 C 245.378,196.712 245.211,194.712 246,192.5C 246.495,194.473 246.662,196.473 246.5,198.5 Z"/></g>
<g><path style="opacity:1" fill="#160c05" d="M 315.5,179.5 C 323.256,178.753 330.59,180.087 337.5,183.5C 338.914,185.054 340.581,186.388 342.5,187.5C 343.95,188.85 344.617,190.516 344.5,192.5C 331.507,193.333 318.507,193.5 305.5,193C 301.79,192.105 298.123,191.105 294.5,190C 293.316,188.855 293.316,187.688 294.5,186.5C 300.301,183.9 306.301,181.9 312.5,180.5C 312.938,180.435 313.272,180.601 313.5,181C 312.584,181.278 311.918,181.778 311.5,182.5C 309.076,183.03 306.743,183.864 304.5,185C 303.748,185.671 303.414,186.504 303.5,187.5C 303.414,188.496 303.748,189.329 304.5,190C 306.74,190.977 309.073,191.477 311.5,191.5C 316.985,192.652 322.651,192.818 328.5,192C 327.565,189.619 327.232,187.119 327.5,184.5C 326.178,184.67 325.011,184.337 324,183.5C 324.195,185.126 324.195,186.793 324,188.5C 320.382,191.391 317.549,190.724 315.5,186.5C 314.209,185.458 314.209,184.292 315.5,183C 319.084,181.927 322.75,181.26 326.5,181C 322.644,180.823 318.977,180.323 315.5,179.5 Z"/></g>
<g><path style="opacity:1" fill="#f1f0ef" d="M 329.5,185.5 C 331.954,186.227 334.287,187.227 336.5,188.5C 334.721,190.344 332.388,191.01 329.5,190.5C 329.5,188.833 329.5,187.167 329.5,185.5 Z"/></g>
<g><path style="opacity:1" fill="#e7e6e5" d="M 311.5,189.5 C 311.5,190.167 311.5,190.833 311.5,191.5C 309.073,191.477 306.74,190.977 304.5,190C 303.748,189.329 303.414,188.496 303.5,187.5C 305.701,186.434 308.035,185.767 310.5,185.5C 310.232,187.099 310.566,188.432 311.5,189.5 Z"/></g>
<g><path style="opacity:1" fill="#928e8c" d="M 315.5,186.5 C 315.415,185.005 316.081,184.005 317.5,183.5C 321.503,187.174 320.836,188.174 315.5,186.5 Z"/></g>
<g><path style="opacity:1" fill="#94918f" d="M 336.5,188.5 C 334.287,187.227 331.954,186.227 329.5,185.5C 328.438,184.425 328.438,183.425 329.5,182.5C 332.953,183.366 335.286,185.366 336.5,188.5 Z"/></g>
<g><path style="opacity:1" fill="#878381" d="M 311.5,182.5 C 311.5,184.833 311.5,187.167 311.5,189.5C 310.566,188.432 310.232,187.099 310.5,185.5C 308.035,185.767 305.701,186.434 303.5,187.5C 303.414,186.504 303.748,185.671 304.5,185C 306.743,183.864 309.076,183.03 311.5,182.5 Z"/></g>
<g><path style="opacity:0.012" fill="#190200" d="M 498.5,195.5 C 499.653,201.653 499.82,207.986 499,214.5C 498.5,208.175 498.334,201.842 498.5,195.5 Z"/></g>
<g><path style="opacity:1" fill="#120600" d="M 329.5,198.5 C 333.893,198.457 334.226,198.957 330.5,200C 328.5,200.667 326.5,200.667 324.5,200C 326.382,199.802 328.048,199.302 329.5,198.5 Z"/></g>
<g><path style="opacity:1" fill="#1c0e03" d="M 406.5,198.5 C 406.56,197.957 406.893,197.624 407.5,197.5C 410.45,198.488 413.45,199.321 416.5,200C 412.928,200.847 409.594,200.347 406.5,198.5 Z"/></g>
<g><path style="opacity:0.012" fill="#190200" d="M 246.5,201.5 C 247.629,203.628 247.796,205.961 247,208.5C 246.503,206.19 246.337,203.857 246.5,201.5 Z"/></g>
<g><path style="opacity:1" fill="#925033" d="M 491.5,200.5 C 491.666,205.511 491.499,210.511 491,215.5C 488.235,223.989 486.235,232.656 485,241.5C 484.535,242.931 483.701,244.097 482.5,245C 480.19,245.497 477.857,245.663 475.5,245.5C 476.373,239.802 477.373,234.136 478.5,228.5C 479.321,225.359 479.821,222.025 480,218.5C 484.607,212.944 488.44,206.944 491.5,200.5 Z"/></g>
<g><path style="opacity:0.012" fill="#190200" d="M 247.5,210.5 C 248.65,215.316 248.816,220.316 248,225.5C 247.501,220.511 247.334,215.511 247.5,210.5 Z"/></g>
<g><path style="opacity:1" fill="#8b4b2f" d="M 252.5,186.5 C 257.051,194.283 260.551,202.617 263,211.5C 264.787,224.174 266.62,236.841 268.5,249.5C 265.675,249.919 263.509,248.919 262,246.5C 259.358,238.602 257.025,230.602 255,222.5C 254.568,210.465 253.735,198.465 252.5,186.5 Z"/></g>
<g><path style="opacity:0.012" fill="#190200" d="M 497.5,215.5 C 498.573,216.251 498.74,217.251 498,218.5C 497.517,217.552 497.351,216.552 497.5,215.5 Z"/></g>
<g><path style="opacity:1" fill="#83432c" d="M 394.5,224.5 C 393.475,224.897 393.308,225.563 394,226.5C 396.667,229.167 399.333,231.833 402,234.5C 405.192,242.675 402.359,247.508 393.5,249C 395.81,249.497 398.143,249.663 400.5,249.5C 399.504,250.665 398.171,251.332 396.5,251.5C 392.219,250.004 387.886,249.171 383.5,249C 382.167,249.667 380.833,250.333 379.5,251C 383.688,251.176 387.688,251.676 391.5,252.5C 385.441,252.254 379.441,252.587 373.5,253.5C 367.804,253.174 362.471,251.34 357.5,248C 353.386,247.555 349.386,248.055 345.5,249.5C 344.167,249.333 342.833,249.167 341.5,249C 340.944,248.617 340.611,248.117 340.5,247.5C 342.199,247.66 343.866,247.494 345.5,247C 339.545,244.427 338.045,240.261 341,234.5C 344.038,231.797 346.705,228.797 349,225.5C 349.692,224.563 349.525,223.897 348.5,223.5C 349.762,223.093 351.095,222.76 352.5,222.5C 353.673,224.979 353.673,227.479 352.5,230C 352.63,231.059 353.13,231.892 354,232.5C 356.916,230.959 359.749,229.293 362.5,227.5C 362.837,230.161 363.17,232.827 363.5,235.5C 371.933,239.836 380.1,239.503 388,234.5C 390.256,229.204 389.423,224.371 385.5,220C 389.282,219.891 392.282,221.391 394.5,224.5 Z"/></g>
<g><path style="opacity:0.012" fill="#190200" d="M 496.5,219.5 C 497.833,220.5 497.833,221.5 496.5,222.5C 496.5,221.5 496.5,220.5 496.5,219.5 Z"/></g>
<g><path style="opacity:0.012" fill="#190200" d="M 495.5,222.5 C 495.833,222.5 496.167,222.5 496.5,222.5C 496.167,226.5 495.833,226.5 495.5,222.5 Z"/></g>
<g><path style="opacity:0.012" fill="#190200" d="M 494.5,226.5 C 495.525,226.897 495.692,227.563 495,228.5C 494.536,227.906 494.369,227.239 494.5,226.5 Z"/></g>
<g><path style="opacity:0.012" fill="#190200" d="M 248.5,227.5 C 249.573,228.251 249.74,229.251 249,230.5C 248.517,229.552 248.351,228.552 248.5,227.5 Z"/></g>
<g><path style="opacity:0.012" fill="#190200" d="M 493.5,229.5 C 494.573,230.251 494.74,231.251 494,232.5C 493.517,231.552 493.351,230.552 493.5,229.5 Z"/></g>
<g><path style="opacity:0.012" fill="#190200" d="M 250.5,231.5 C 250.631,232.239 250.464,232.906 250,233.5C 249.308,232.563 249.475,231.897 250.5,231.5 Z"/></g>
<g><path style="opacity:0.012" fill="#190200" d="M 492.5,233.5 C 493.573,234.251 493.74,235.251 493,236.5C 492.517,235.552 492.351,234.552 492.5,233.5 Z"/></g>
<g><path style="opacity:0.012" fill="#190200" d="M 251.5,234.5 C 250.833,235.167 250.833,235.167 251.5,234.5 Z"/></g>
<g><path style="opacity:1" fill="#1b0c01" d="M 348.5,223.5 C 349.525,223.897 349.692,224.563 349,225.5C 346.705,228.797 344.038,231.797 341,234.5C 338.045,240.261 339.545,244.427 345.5,247C 343.866,247.494 342.199,247.66 340.5,247.5C 336.835,243.919 335.668,239.585 337,234.5C 340.345,230.259 344.178,226.592 348.5,223.5 Z"/></g>
<g><path style="opacity:0.012" fill="#190200" d="M 252.5,236.5 C 252.649,237.552 252.483,238.552 252,239.5C 251.26,238.251 251.427,237.251 252.5,236.5 Z"/></g>
<g><path style="opacity:1" fill="#1c0c02" d="M 394.5,224.5 C 399.332,227.345 403.499,231.012 407,235.5C 407.791,241.583 405.624,246.25 400.5,249.5C 398.143,249.663 395.81,249.497 393.5,249C 402.359,247.508 405.192,242.675 402,234.5C 399.333,231.833 396.667,229.167 394,226.5C 393.308,225.563 393.475,224.897 394.5,224.5 Z"/></g>
<g><path style="opacity:0.012" fill="#190200" d="M 491.5,239.5 C 492.598,240.601 492.765,241.934 492,243.5C 491.51,242.207 491.343,240.873 491.5,239.5 Z"/></g>
<g><path style="opacity:0.012" fill="#190200" d="M 252.5,241.5 C 253.525,241.897 253.692,242.563 253,243.5C 252.536,242.906 252.369,242.239 252.5,241.5 Z"/></g>
<g><path style="opacity:0.012" fill="#190200" d="M 254.5,244.5 C 254.631,245.239 254.464,245.906 254,246.5C 253.308,245.563 253.475,244.897 254.5,244.5 Z"/></g>
<g><path style="opacity:0.012" fill="#190200" d="M 490.5,244.5 C 491.833,245.167 491.833,245.167 490.5,244.5 Z"/></g>
<g><path style="opacity:1" fill="#1b0c01" d="M 349.5,241.5 C 351.966,240.366 354.633,240.199 357.5,241C 361.297,244.232 365.63,246.398 370.5,247.5C 375.373,246.472 379.706,244.305 383.5,241C 387.533,239.96 391.199,240.626 394.5,243C 391.572,242.544 388.572,242.544 385.5,243C 374.868,253.239 364.534,252.905 354.5,242C 352.866,241.506 351.199,241.34 349.5,241.5 Z"/></g>
<g><path style="opacity:0.012" fill="#190200" d="M 489.5,246.5 C 490.833,247.167 490.833,247.167 489.5,246.5 Z"/></g>
<g><path style="opacity:0.012" fill="#190200" d="M 255.5,247.5 C 254.833,248.167 254.833,248.167 255.5,247.5 Z"/></g>
<g><path style="opacity:0.012" fill="#190200" d="M 488.5,247.5 C 488.833,247.5 489.167,247.5 489.5,247.5C 489.315,248.17 488.981,248.17 488.5,247.5 Z"/></g>
<g><path style="opacity:0.012" fill="#190200" d="M 487.5,248.5 C 487.833,248.5 488.167,248.5 488.5,248.5C 488.315,249.17 487.981,249.17 487.5,248.5 Z"/></g>
<g><path style="opacity:0.012" fill="#190200" d="M 255.5,249.5 C 256.833,250.167 256.833,250.167 255.5,249.5 Z"/></g>
<g><path style="opacity:0.012" fill="#190200" d="M 486.5,249.5 C 486.833,249.5 487.167,249.5 487.5,249.5C 487.315,250.17 486.981,250.17 486.5,249.5 Z"/></g>
<g><path style="opacity:0.012" fill="#190200" d="M 486.5,250.5 C 485.833,251.167 485.833,251.167 486.5,250.5 Z"/></g>
<g><path style="opacity:0.012" fill="#190200" d="M 482.5,252.5 C 482.897,251.475 483.563,251.308 484.5,252C 483.906,252.464 483.239,252.631 482.5,252.5 Z"/></g>
<g><path style="opacity:1" fill="#492511" d="M 373.5,253.5 C 379.441,252.587 385.441,252.254 391.5,252.5C 402.234,253.749 412.568,256.582 422.5,261C 426.734,264.112 428.401,268.112 427.5,273C 426.167,273.667 424.833,273.667 423.5,273C 405.668,263.498 386.835,260.332 367,263.5C 349.116,259.477 332.616,262.643 317.5,273C 316.207,273.49 314.873,273.657 313.5,273.5C 313.032,269.869 313.699,266.535 315.5,263.5C 331.723,253.223 349.223,250.223 368,254.5C 369.878,254.304 371.712,253.971 373.5,253.5 Z"/></g>
<g><path style="opacity:0.012" fill="#190200" d="M 477.5,253.5 C 478.251,252.427 479.251,252.26 480.5,253C 479.552,253.483 478.552,253.649 477.5,253.5 Z"/></g>
<g><path style="opacity:0.012" fill="#190200" d="M 474.5,253.5 C 475.641,256.64 475.808,259.973 475,263.5C 474.502,260.183 474.335,256.85 474.5,253.5 Z"/></g>
<g><path style="opacity:0.012" fill="#190200" d="M 262.5,254.5 C 262.5,254.833 262.5,255.167 262.5,255.5C 259.833,255.167 259.833,254.833 262.5,254.5 Z"/></g>
<g><path style="opacity:0.012" fill="#190200" d="M 262.5,255.5 C 263.239,255.369 263.906,255.536 264.5,256C 263.563,256.692 262.897,256.525 262.5,255.5 Z"/></g>
<g><path style="opacity:0.012" fill="#190200" d="M 265.5,257.5 C 265.897,256.475 266.563,256.308 267.5,257C 266.906,257.464 266.239,257.631 265.5,257.5 Z"/></g>
<g><path style="opacity:0.012" fill="#190200" d="M 267.5,258.5 C 268.598,259.601 268.765,260.934 268,262.5C 267.51,261.207 267.343,259.873 267.5,258.5 Z"/></g>
<g><path style="opacity:1" fill="#170a01" d="M 435.5,259.5 C 438.757,263.472 439.257,267.805 437,272.5C 436.819,269.305 436.319,266.305 435.5,263.5C 435.489,261.983 434.823,260.816 433.5,260C 434.094,259.536 434.761,259.369 435.5,259.5 Z"/></g>
<g><path style="opacity:0.012" fill="#190200" d="M 269.5,263.5 C 269.657,264.873 269.49,266.207 269,267.5C 268.235,265.934 268.402,264.601 269.5,263.5 Z"/></g>
<g><path style="opacity:1" fill="#0c0500" d="M 305.5,263.5 C 306.239,263.369 306.906,263.536 307.5,264C 305.899,267.267 305.066,270.767 305,274.5C 302.879,270.654 303.045,266.988 305.5,263.5 Z"/></g>
<g><path style="opacity:1" fill="#160901" d="M 414.5,271.5 C 414.083,272.124 413.416,272.457 412.5,272.5C 402.349,269.712 392.016,268.046 381.5,267.5C 376.605,268.187 371.772,269.187 367,270.5C 362.675,268.757 358.175,267.757 353.5,267.5C 344.318,268.27 335.318,269.937 326.5,272.5C 339.287,264.892 352.954,262.892 367.5,266.5C 374.031,264.629 380.698,264.129 387.5,265C 396.631,266.699 405.631,268.866 414.5,271.5 Z"/></g>
<g><path style="opacity:0.012" fill="#190200" d="M 269.5,269.5 C 270.573,270.251 270.74,271.251 270,272.5C 269.517,271.552 269.351,270.552 269.5,269.5 Z"/></g>
<g><path style="opacity:0.012" fill="#190200" d="M 475.5,269.5 C 476.655,276.321 476.821,283.321 476,290.5C 475.5,283.508 475.334,276.508 475.5,269.5 Z"/></g>
<g><path style="opacity:0.012" fill="#190200" d="M 271.5,273.5 C 271.657,274.873 271.49,276.207 271,277.5C 270.235,275.934 270.402,274.601 271.5,273.5 Z"/></g>
<g><path style="opacity:1" fill="#813f24" d="M 414.5,271.5 C 418.721,273.543 423.054,275.376 427.5,277C 428.022,277.561 428.355,278.228 428.5,279C 425.4,282.1 422.233,285.267 419,288.5C 414.127,297.861 407.96,306.195 400.5,313.5C 400.44,312.957 400.107,312.624 399.5,312.5C 380.819,320.47 362.153,320.47 343.5,312.5C 342.893,312.624 342.56,312.957 342.5,313.5C 333.236,306.683 326.07,298.016 321,287.5C 319,285.5 317,283.5 315,281.5C 314.175,279.299 314.675,277.466 316.5,276C 319.758,274.533 323.092,273.367 326.5,272.5C 335.318,269.937 344.318,268.27 353.5,267.5C 358.175,267.757 362.675,268.757 367,270.5C 371.772,269.187 376.605,268.187 381.5,267.5C 392.016,268.046 402.349,269.712 412.5,272.5C 413.416,272.457 414.083,272.124 414.5,271.5 Z"/></g>
<g><path style="opacity:0.012" fill="#190200" d="M 272.5,324.5 C 271.339,309.339 271.172,294.006 272,278.5C 272.5,293.83 272.667,309.163 272.5,324.5 Z"/></g>
<g><path style="opacity:1" fill="#7b3c29" d="M 469.5,303.5 C 464.82,307.702 460.986,312.702 458,318.5C 453.24,328.54 449.24,338.873 446,349.5C 431.914,378.254 409.414,396.754 378.5,405C 365.916,405.404 353.583,403.737 341.5,400C 332.1,395.268 324.6,388.434 319,379.5C 310.868,363.906 302.201,348.573 293,333.5C 289.977,328.977 286.144,325.31 281.5,322.5C 280.501,332.812 280.168,343.145 280.5,353.5C 279.338,335.005 279.171,316.338 280,297.5C 284.066,305.297 288.399,312.964 293,320.5C 303.468,335.268 314.301,349.768 325.5,364C 338.416,374.444 353.25,379.611 370,379.5C 384.602,379.595 398.435,376.429 411.5,370C 415.61,367.191 419.443,364.025 423,360.5C 432.996,341.833 443.996,323.833 456,306.5C 461.252,295.912 465.418,284.912 468.5,273.5C 469.499,283.478 469.832,293.478 469.5,303.5 Z"/></g>
<g><path style="opacity:1" fill="#1a110b" d="M 344.5,275.5 C 360.837,275.333 377.17,275.5 393.5,276C 403.086,277.975 412.753,279.308 422.5,280C 419.883,280.822 417.216,281.322 414.5,281.5C 413.601,287.57 410.268,291.737 404.5,294C 395.054,296.259 385.721,298.926 376.5,302C 369.032,302.861 361.699,302.195 354.5,300C 347.269,295.7 339.602,292.366 331.5,290C 329.213,287.93 327.547,285.43 326.5,282.5C 325.624,281.749 324.624,281.249 323.5,281C 330.594,279.094 337.594,277.261 344.5,275.5 Z"/></g>
<g><path style="opacity:1" fill="#f6f6f6" d="M 342.5,278.5 C 360.51,279.335 378.51,279.502 396.5,279C 399.5,279.333 402.5,279.667 405.5,280C 410.701,283.912 410.701,287.912 405.5,292C 396,293.233 386.667,295.233 377.5,298C 371.5,298.667 365.5,298.667 359.5,298C 355.297,296.791 351.297,295.124 347.5,293C 343.104,292.254 338.77,291.254 334.5,290C 331.476,287.525 330.81,284.525 332.5,281C 335.952,280.115 339.286,279.282 342.5,278.5 Z"/></g>
<g><path style="opacity:0.012" fill="#190200" d="M 476.5,348.5 C 476.333,331.83 476.5,315.163 477,298.5C 477.174,315.074 477.674,331.574 478.5,348C 477.906,348.464 477.239,348.631 476.5,348.5 Z"/></g>
<g><path style="opacity:1" fill="#955335" d="M 469.5,303.5 C 470.3,324.47 470.8,345.47 471,366.5C 471.333,367.167 471.667,367.833 472,368.5C 472.739,366.779 473.573,365.113 474.5,363.5C 480.86,389.576 473.193,410.743 451.5,427C 420.332,446.426 386.332,454.093 349.5,450C 331.418,448.084 314.418,442.75 298.5,434C 272.458,413.979 264.624,388.479 275,357.5C 275.188,361.877 276.521,365.877 279,369.5C 280.339,364.264 280.839,358.93 280.5,353.5C 280.168,343.145 280.501,332.812 281.5,322.5C 286.144,325.31 289.977,328.977 293,333.5C 302.201,348.573 310.868,363.906 319,379.5C 324.6,388.434 332.1,395.268 341.5,400C 353.583,403.737 365.916,405.404 378.5,405C 409.414,396.754 431.914,378.254 446,349.5C 449.24,338.873 453.24,328.54 458,318.5C 460.986,312.702 464.82,307.702 469.5,303.5 Z"/></g>
<g><path style="opacity:1" fill="#190a01" d="M 342.5,313.5 C 342.56,312.957 342.893,312.624 343.5,312.5C 362.153,320.47 380.819,320.47 399.5,312.5C 400.107,312.624 400.44,312.957 400.5,313.5C 396.5,315.5 392.5,317.5 388.5,319.5C 376.047,323.524 363.714,323.19 351.5,318.5C 348.661,316.58 345.661,314.913 342.5,313.5 Z"/></g>
<g><path style="opacity:1" fill="#84442c" d="M 351.5,318.5 C 363.714,323.19 376.047,323.524 388.5,319.5C 388.649,320.552 388.483,321.552 388,322.5C 384.551,326.123 380.717,329.123 376.5,331.5C 373.833,331.5 371.167,331.5 368.5,331.5C 361.188,329.341 355.522,325.008 351.5,318.5 Z"/></g>
<g><path style="opacity:1" fill="#3e1e0b" d="M 436.5,327.5 C 431.932,336.301 427.099,344.967 422,353.5C 414.605,362.789 405.105,368.955 393.5,372C 377.734,375.624 362.068,375.29 346.5,371C 337.007,367.492 329.173,361.659 323,353.5C 318.157,346.471 313.323,339.471 308.5,332.5C 309.166,328.647 309.833,324.647 310.5,320.5C 314.71,322.208 318.21,324.874 321,328.5C 326.755,337.916 333.589,346.416 341.5,354C 347.5,356.667 353.5,359.333 359.5,362C 368.247,362.228 376.913,361.728 385.5,360.5C 395.112,355.024 404.779,349.524 414.5,344C 416.788,341.257 418.955,338.423 421,335.5C 422.971,328.378 426.804,322.545 432.5,318C 433.449,317.383 434.282,317.549 435,318.5C 435.181,321.695 435.681,324.695 436.5,327.5 Z"/></g>
<g><path style="opacity:1" fill="#190a01" d="M 368.5,331.5 C 371.167,331.5 373.833,331.5 376.5,331.5C 379.024,332.74 381.691,333.907 384.5,335C 384,335.167 383.5,335.333 383,335.5C 376,334.167 369,334.167 362,335.5C 361.5,335.333 361,335.167 360.5,335C 363.158,333.522 365.825,332.355 368.5,331.5 Z"/></g>
<g><path style="opacity:0.012" fill="#190200" d="M 273.5,347.5 C 272.761,347.631 272.094,347.464 271.5,347C 272.293,343.589 272.793,340.089 273,336.5C 273.499,340.152 273.665,343.818 273.5,347.5 Z"/></g>
<g><path style="opacity:0.012" fill="#190200" d="M 269.5,349.5 C 268.833,348.167 268.833,348.167 269.5,349.5 Z"/></g>
<g><path style="opacity:0.012" fill="#190200" d="M 266.5,349.5 C 267.833,350.167 267.833,350.167 266.5,349.5 Z"/></g>
<g><path style="opacity:0.012" fill="#190200" d="M 482.5,350.5 C 483.833,351.167 483.833,351.167 482.5,350.5 Z"/></g>
<g><path style="opacity:0.012" fill="#190200" d="M 484.5,351.5 C 485.833,352.167 485.833,352.167 484.5,351.5 Z"/></g>
<g><path style="opacity:0.012" fill="#190200" d="M 486.5,352.5 C 487.833,353.167 487.833,353.167 486.5,352.5 Z"/></g>
<g><path style="opacity:0.012" fill="#190200" d="M 491.5,355.5 C 492.833,356.167 492.833,356.167 491.5,355.5 Z"/></g>
<g><path style="opacity:0.012" fill="#190200" d="M 255.5,357.5 C 254.833,356.167 254.833,356.167 255.5,357.5 Z"/></g>
<g><path style="opacity:0.012" fill="#190200" d="M 252.5,357.5 C 253.833,358.167 253.833,358.167 252.5,357.5 Z"/></g>
<g><path style="opacity:0.012" fill="#190200" d="M 496.5,358.5 C 497.833,359.167 497.833,359.167 496.5,358.5 Z"/></g>
<g><path style="opacity:0.012" fill="#190200" d="M 498.5,359.5 C 499.833,360.167 499.833,360.167 498.5,359.5 Z"/></g>
<g><path style="opacity:0.012" fill="#190200" d="M 247.5,360.5 C 248.833,361.167 248.833,361.167 247.5,360.5 Z"/></g>
<g><path style="opacity:0.012" fill="#190200" d="M 501.5,361.5 C 500.833,360.167 500.833,360.167 501.5,361.5 Z"/></g>
<g><path style="opacity:0.012" fill="#190200" d="M 501.5,361.5 C 502.833,362.167 502.833,362.167 501.5,361.5 Z"/></g>
<g><path style="opacity:0.012" fill="#190200" d="M 506.5,364.5 C 507.833,365.167 507.833,365.167 506.5,364.5 Z"/></g>
<g><path style="opacity:0.012" fill="#190200" d="M 509.5,366.5 C 508.833,365.167 508.833,365.167 509.5,366.5 Z"/></g>
<g><path style="opacity:0.012" fill="#190200" d="M 509.5,366.5 C 510.833,367.167 510.833,367.167 509.5,366.5 Z"/></g>
<g><path style="opacity:1" fill="#001363" d="M 486.5,360.5 C 499.662,367.827 512.162,376.16 524,385.5C 523.48,406.571 517.813,426.238 507,444.5C 493.515,466.669 477.015,486.502 457.5,504C 431.924,526.742 404.257,546.575 374.5,563.5C 335.472,541.326 300.305,513.992 269,481.5C 251.27,462.043 237.603,440.043 228,415.5C 225.647,407.276 223.813,398.942 222.5,390.5C 222.486,388.407 223.152,386.574 224.5,385C 236.072,376.294 248.238,368.461 261,361.5C 258.856,365.721 256.523,370.054 254,374.5C 251.805,385.876 253.138,396.876 258,407.5C 267.952,427.118 280.619,444.785 296,460.5C 320.066,484.262 346.232,505.262 374.5,523.5C 406.15,502.368 435.317,478.035 462,450.5C 473.655,437.204 483.321,422.538 491,406.5C 498.374,390.086 496.874,374.753 486.5,360.5 Z"/></g>
<g><path style="opacity:0.012" fill="#190200" d="M 512.5,368.5 C 513.833,369.167 513.833,369.167 512.5,368.5 Z"/></g>
<g><path style="opacity:0.012" fill="#190200" d="M 515.5,370.5 C 516.833,371.167 516.833,371.167 515.5,370.5 Z"/></g>
<g><path style="opacity:0.012" fill="#190200" d="M 517.5,371.5 C 518.833,372.167 518.833,372.167 517.5,371.5 Z"/></g>
<g><path style="opacity:1" fill="#e4e1df" d="M 432.5,464.5 C 400.336,475.286 367.669,477.286 334.5,470.5C 323.414,468.305 312.747,464.805 302.5,460C 285.699,443.894 272.199,425.394 262,404.5C 254.528,389.564 256.194,375.897 267,363.5C 260.972,409.49 280.472,438.323 325.5,450C 366.753,460.068 406.419,455.735 444.5,437C 474.012,420.808 485.678,396.142 479.5,363C 480.167,362.333 480.833,362.333 481.5,363C 489.086,370.666 492.253,379.833 491,390.5C 483.122,416.084 469.289,437.918 449.5,456C 443.773,458.864 438.106,461.697 432.5,464.5 Z"/></g>
<g><path style="opacity:0.012" fill="#190200" d="M 519.5,373.5 C 520.833,374.167 520.833,374.167 519.5,373.5 Z"/></g>
<g><path style="opacity:0.012" fill="#190200" d="M 224.5,375.5 C 225.833,376.167 225.833,376.167 224.5,375.5 Z"/></g>
<g><path style="opacity:0.012" fill="#190200" d="M 529.5,383.5 C 529.369,382.761 529.536,382.094 530,381.5C 530.692,382.437 530.525,383.103 529.5,383.5 Z"/></g>
<g><path style="opacity:0.012" fill="#190200" d="M 533.5,385.5 C 533.897,384.475 534.563,384.308 535.5,385C 534.906,385.464 534.239,385.631 533.5,385.5 Z"/></g>
<g><path style="opacity:0.012" fill="#190200" d="M 538.5,387.5 C 538.897,386.475 539.563,386.308 540.5,387C 539.906,387.464 539.239,387.631 538.5,387.5 Z"/></g>
<g><path style="opacity:0.012" fill="#190200" d="M 205.5,388.5 C 205.897,387.475 206.563,387.308 207.5,388C 206.906,388.464 206.239,388.631 205.5,388.5 Z"/></g>
<g><path style="opacity:0.012" fill="#190200" d="M 543.5,388.5 C 542.761,388.631 542.094,388.464 541.5,388C 542.437,387.308 543.103,387.475 543.5,388.5 Z"/></g>
<g><path style="opacity:0.012" fill="#190200" d="M 205.5,388.5 C 205.5,388.833 205.5,389.167 205.5,389.5C 202.833,389.167 202.833,388.833 205.5,388.5 Z"/></g>
<g><path style="opacity:0.012" fill="#190200" d="M 543.5,389.5 C 543.5,389.167 543.5,388.833 543.5,388.5C 546.167,388.833 546.167,389.167 543.5,389.5 Z"/></g>
<g><path style="opacity:0.012" fill="#190200" d="M 201.5,389.5 C 202.833,390.167 202.833,390.167 201.5,389.5 Z"/></g>
<g><path style="opacity:0.012" fill="#190200" d="M 546.5,389.5 C 547.833,390.167 547.833,390.167 546.5,389.5 Z"/></g>
<g><path style="opacity:1" fill="#001363" d="M 743.5,579.5 C 497.5,579.5 251.5,579.5 5.5,579.5C 15.4588,543.586 31.2921,510.586 53,480.5C 74.9558,457.237 100.789,439.404 130.5,427C 159.589,414.472 188.923,402.639 218.5,391.5C 219.22,400.715 221.053,409.715 224,418.5C 233.62,443.087 247.287,465.087 265,484.5C 296.83,517.684 332.663,545.517 372.5,568C 375.419,568.552 378.086,567.885 380.5,566C 395.438,556.726 410.104,547.06 424.5,537C 454.253,515.914 480.087,490.747 502,461.5C 517.026,440.106 526.526,416.439 530.5,390.5C 564.243,404.363 597.91,418.529 631.5,433C 656.141,444.651 677.641,460.485 696,480.5C 717.703,510.575 733.536,543.575 743.5,579.5 Z"/></g>
<g><path style="opacity:0.012" fill="#190200" d="M 550.5,392.5 C 550.897,391.475 551.563,391.308 552.5,392C 551.906,392.464 551.239,392.631 550.5,392.5 Z"/></g>
<g><path style="opacity:0.012" fill="#190200" d="M 555.5,394.5 C 555.897,393.475 556.563,393.308 557.5,394C 556.906,394.464 556.239,394.631 555.5,394.5 Z"/></g>
<g><path style="opacity:0.012" fill="#190200" d="M 560.5,396.5 C 560.897,395.475 561.563,395.308 562.5,396C 561.906,396.464 561.239,396.631 560.5,396.5 Z"/></g>
<g><path style="opacity:0.012" fill="#190200" d="M 183.5,397.5 C 183.897,396.475 184.563,396.308 185.5,397C 184.906,397.464 184.239,397.631 183.5,397.5 Z"/></g>
<g><path style="opacity:0.012" fill="#190200" d="M 183.5,397.5 C 183.5,397.833 183.5,398.167 183.5,398.5C 180.833,398.167 180.833,397.833 183.5,397.5 Z"/></g>
<g><path style="opacity:0.012" fill="#190200" d="M 565.5,398.5 C 565.897,397.475 566.563,397.308 567.5,398C 566.906,398.464 566.239,398.631 565.5,398.5 Z"/></g>
<g><path style="opacity:0.012" fill="#190200" d="M 179.5,398.5 C 180.833,399.167 180.833,399.167 179.5,398.5 Z"/></g>
<g><path style="opacity:0.012" fill="#190200" d="M 568.5,398.5 C 569.833,399.167 569.833,399.167 568.5,398.5 Z"/></g>
<g><path style="opacity:0.012" fill="#190200" d="M 570.5,400.5 C 570.897,399.475 571.563,399.308 572.5,400C 571.906,400.464 571.239,400.631 570.5,400.5 Z"/></g>
<g><path style="opacity:0.012" fill="#190200" d="M 573.5,400.5 C 574.833,401.167 574.833,401.167 573.5,400.5 Z"/></g>
<g><path style="opacity:0.012" fill="#190200" d="M 577.5,403.5 C 577.897,402.475 578.563,402.308 579.5,403C 578.906,403.464 578.239,403.631 577.5,403.5 Z"/></g>
<g><path style="opacity:0.012" fill="#190200" d="M 582.5,405.5 C 582.897,404.475 583.563,404.308 584.5,405C 583.906,405.464 583.239,405.631 582.5,405.5 Z"/></g>
<g><path style="opacity:0.012" fill="#190200" d="M 587.5,407.5 C 587.897,406.475 588.563,406.308 589.5,407C 588.906,407.464 588.239,407.631 587.5,407.5 Z"/></g>
<g><path style="opacity:0.012" fill="#190200" d="M 157.5,407.5 C 158.833,408.167 158.833,408.167 157.5,407.5 Z"/></g>
<g><path style="opacity:0.012" fill="#190200" d="M 590.5,407.5 C 591.833,408.167 591.833,408.167 590.5,407.5 Z"/></g>
<g><path style="opacity:0.012" fill="#190200" d="M 156.5,409.5 C 155.761,409.631 155.094,409.464 154.5,409C 155.437,408.308 156.103,408.475 156.5,409.5 Z"/></g>
<g><path style="opacity:0.012" fill="#190200" d="M 592.5,409.5 C 592.897,408.475 593.563,408.308 594.5,409C 593.906,409.464 593.239,409.631 592.5,409.5 Z"/></g>
<g><path style="opacity:0.012" fill="#190200" d="M 152.5,409.5 C 153.833,410.167 153.833,410.167 152.5,409.5 Z"/></g>
<g><path style="opacity:0.012" fill="#190200" d="M 595.5,409.5 C 596.833,410.167 596.833,410.167 595.5,409.5 Z"/></g>
<g><path style="opacity:0.012" fill="#190200" d="M 599.5,412.5 C 599.897,411.475 600.563,411.308 601.5,412C 600.906,412.464 600.239,412.631 599.5,412.5 Z"/></g>
<g><path style="opacity:0.012" fill="#190200" d="M 604.5,414.5 C 604.897,413.475 605.563,413.308 606.5,414C 605.906,414.464 605.239,414.631 604.5,414.5 Z"/></g>
<g><path style="opacity:0.012" fill="#190200" d="M 140.5,414.5 C 141.833,415.167 141.833,415.167 140.5,414.5 Z"/></g>
<g><path style="opacity:0.012" fill="#190200" d="M 611.5,417.5 C 611.897,416.475 612.563,416.308 613.5,417C 612.906,417.464 612.239,417.631 611.5,417.5 Z"/></g>
<g><path style="opacity:0.012" fill="#190200" d="M 134.5,418.5 C 133.833,417.167 133.833,417.167 134.5,418.5 Z"/></g>
<g><path style="opacity:0.012" fill="#190200" d="M 614.5,417.5 C 615.833,418.167 615.833,418.167 614.5,417.5 Z"/></g>
<g><path style="opacity:0.012" fill="#190200" d="M 618.5,420.5 C 618.897,419.475 619.563,419.308 620.5,420C 619.906,420.464 619.239,420.631 618.5,420.5 Z"/></g>
<g><path style="opacity:0.012" fill="#190200" d="M 126.5,420.5 C 127.833,421.167 127.833,421.167 126.5,420.5 Z"/></g>
<g><path style="opacity:0.012" fill="#190200" d="M 621.5,420.5 C 622.833,421.167 622.833,421.167 621.5,420.5 Z"/></g>
<g><path style="opacity:0.012" fill="#190200" d="M 125.5,422.5 C 124.833,421.167 124.833,421.167 125.5,422.5 Z"/></g>
<g><path style="opacity:0.012" fill="#190200" d="M 623.5,421.5 C 624.833,422.167 624.833,422.167 623.5,421.5 Z"/></g>
<g><path style="opacity:0.012" fill="#190200" d="M 643.5,431.5 C 644.833,432.167 644.833,432.167 643.5,431.5 Z"/></g>
<g><path style="opacity:0.012" fill="#190200" d="M 103.5,433.5 C 102.833,432.167 102.833,432.167 103.5,433.5 Z"/></g>
<g><path style="opacity:0.012" fill="#190200" d="M 645.5,432.5 C 646.833,433.167 646.833,433.167 645.5,432.5 Z"/></g>
<g><path style="opacity:0.012" fill="#190200" d="M 100.5,433.5 C 101.833,434.167 101.833,434.167 100.5,433.5 Z"/></g>
<g><path style="opacity:0.012" fill="#190200" d="M 652.5,436.5 C 653.833,437.167 653.833,437.167 652.5,436.5 Z"/></g>
<g><path style="opacity:0.012" fill="#190200" d="M 93.5,437.5 C 94.8333,438.167 94.8333,438.167 93.5,437.5 Z"/></g>
<g><path style="opacity:0.012" fill="#190200" d="M 654.5,437.5 C 655.833,438.167 655.833,438.167 654.5,437.5 Z"/></g>
<g><path style="opacity:0.012" fill="#190200" d="M 657.5,439.5 C 658.833,440.167 658.833,440.167 657.5,439.5 Z"/></g>
<g><path style="opacity:0.012" fill="#190200" d="M 88.5,440.5 C 89.8333,441.167 89.8333,441.167 88.5,440.5 Z"/></g>
<g><path style="opacity:0.012" fill="#190200" d="M 660.5,441.5 C 659.833,440.167 659.833,440.167 660.5,441.5 Z"/></g>
<g><path style="opacity:0.012" fill="#190200" d="M 88.5,441.5 C 88.5,441.833 88.5,442.167 88.5,442.5C 87.8299,442.019 87.8299,441.685 88.5,441.5 Z"/></g>
<g><path style="opacity:0.012" fill="#190200" d="M 660.5,441.5 C 661.833,442.167 661.833,442.167 660.5,441.5 Z"/></g>
<g><path style="opacity:0.012" fill="#190200" d="M 663.5,443.5 C 664.833,444.167 664.833,444.167 663.5,443.5 Z"/></g>
<g><path style="opacity:0.012" fill="#190200" d="M 666.5,445.5 C 667.833,446.167 667.833,446.167 666.5,445.5 Z"/></g>
<g><path style="opacity:0.012" fill="#190200" d="M 79.5,446.5 C 80.8333,447.167 80.8333,447.167 79.5,446.5 Z"/></g>
<g><path style="opacity:0.012" fill="#190200" d="M 673.5,450.5 C 674.833,451.167 674.833,451.167 673.5,450.5 Z"/></g>
<g><path style="opacity:0.012" fill="#190200" d="M 675.5,451.5 C 676.833,452.167 676.833,452.167 675.5,451.5 Z"/></g>
<g><path style="opacity:0.012" fill="#190200" d="M 678.5,454.5 C 679.833,455.167 679.833,455.167 678.5,454.5 Z"/></g>
<g><path style="opacity:0.012" fill="#190200" d="M 67.5,455.5 C 68.8333,456.167 68.8333,456.167 67.5,455.5 Z"/></g>
<g><path style="opacity:0.012" fill="#190200" d="M 680.5,455.5 C 681.833,456.167 681.833,456.167 680.5,455.5 Z"/></g>
<g><path style="opacity:0.012" fill="#190200" d="M 686.5,461.5 C 687.833,462.167 687.833,462.167 686.5,461.5 Z"/></g>
<g><path style="opacity:0.012" fill="#190200" d="M 59.5,462.5 C 60.8333,463.167 60.8333,463.167 59.5,462.5 Z"/></g>
<g><path style="opacity:0.012" fill="#190200" d="M 689.5,463.5 C 688.833,462.167 688.833,462.167 689.5,463.5 Z"/></g>
<g><path style="opacity:0.012" fill="#190200" d="M 59.5,463.5 C 58.8333,464.167 58.8333,464.167 59.5,463.5 Z"/></g>
<g><path style="opacity:0.012" fill="#190200" d="M 689.5,463.5 C 690.167,463.5 690.5,463.833 690.5,464.5C 690.167,464.167 689.833,463.833 689.5,463.5 Z"/></g>
<g><path style="opacity:0.012" fill="#190200" d="M 58.5,464.5 C 57.8333,465.167 57.8333,465.167 58.5,464.5 Z"/></g>
<g><path style="opacity:0.012" fill="#190200" d="M 690.5,464.5 C 691.167,464.5 691.5,464.833 691.5,465.5C 691.167,465.167 690.833,464.833 690.5,464.5 Z"/></g>
<g><path style="opacity:0.012" fill="#190200" d="M 57.5,465.5 C 56.8333,466.167 56.8333,466.167 57.5,465.5 Z"/></g>
<g><path style="opacity:0.012" fill="#190200" d="M 691.5,465.5 C 692.167,465.5 692.5,465.833 692.5,466.5C 692.167,466.167 691.833,465.833 691.5,465.5 Z"/></g>
<g><path style="opacity:0.012" fill="#190200" d="M 56.5,466.5 C 55.8333,467.167 55.8333,467.167 56.5,466.5 Z"/></g>
<g><path style="opacity:0.012" fill="#190200" d="M 692.5,466.5 C 693.167,466.5 693.5,466.833 693.5,467.5C 693.167,467.167 692.833,466.833 692.5,466.5 Z"/></g>
<g><path style="opacity:0.012" fill="#190200" d="M 55.5,467.5 C 54.8333,468.167 54.8333,468.167 55.5,467.5 Z"/></g>
<g><path style="opacity:0.012" fill="#190200" d="M 693.5,467.5 C 694.167,467.5 694.5,467.833 694.5,468.5C 694.167,468.167 693.833,467.833 693.5,467.5 Z"/></g>
<g><path style="opacity:0.012" fill="#190200" d="M 54.5,468.5 C 53.8333,469.167 53.8333,469.167 54.5,468.5 Z"/></g>
<g><path style="opacity:0.012" fill="#190200" d="M 694.5,468.5 C 695.833,469.167 695.833,469.167 694.5,468.5 Z"/></g>
<g><path style="opacity:1" fill="#e5e2e0" d="M 437.5,468.5 C 417.797,486.516 396.797,502.85 374.5,517.5C 353.419,503.621 333.419,488.287 314.5,471.5C 313.167,470.833 313.167,470.167 314.5,469.5C 319.926,472.05 325.592,473.716 331.5,474.5C 366.849,481.657 401.683,479.324 436,467.5C 436.765,467.57 437.265,467.903 437.5,468.5 Z"/></g>
<g><path style="opacity:1" fill="#1d150f" d="M 432.5,464.5 C 434.175,464.132 435.842,464.798 437.5,466.5C 438.773,467.257 438.773,467.923 437.5,468.5C 437.265,467.903 436.765,467.57 436,467.5C 401.683,479.324 366.849,481.657 331.5,474.5C 332.239,474.631 332.906,474.464 333.5,474C 329.789,473.156 326.123,472.156 322.5,471C 323.108,470.13 323.941,469.63 325,469.5C 328.265,470.972 331.431,471.305 334.5,470.5C 367.669,477.286 400.336,475.286 432.5,464.5 Z"/></g>
<g><path style="opacity:0.012" fill="#190200" d="M 704.5,480.5 C 703.833,479.167 703.833,479.167 704.5,480.5 Z"/></g>
<g><path style="opacity:0.012" fill="#190200" d="M 704.5,480.5 C 705.833,481.167 705.833,481.167 704.5,480.5 Z"/></g>
<g><path style="opacity:0.012" fill="#190200" d="M 706.5,483.5 C 707.833,484.167 707.833,484.167 706.5,483.5 Z"/></g>
<g><path style="opacity:0.012" fill="#190200" d="M 710.5,489.5 C 711.833,490.167 711.833,490.167 710.5,489.5 Z"/></g>
<g><path style="opacity:0.012" fill="#190200" d="M 35.5,492.5 C 36.8333,493.167 36.8333,493.167 35.5,492.5 Z"/></g>
<g><path style="opacity:0.012" fill="#190200" d="M 712.5,492.5 C 713.833,493.167 713.833,493.167 712.5,492.5 Z"/></g>
<g><path style="opacity:0.012" fill="#190200" d="M 715.5,497.5 C 716.833,498.167 716.833,498.167 715.5,497.5 Z"/></g>
<g><path style="opacity:0.012" fill="#190200" d="M 29.5,502.5 C 30.8333,503.167 30.8333,503.167 29.5,502.5 Z"/></g>
<g><path style="opacity:0.012" fill="#190200" d="M 718.5,502.5 C 719.833,503.167 719.833,503.167 718.5,502.5 Z"/></g>
<g><path style="opacity:0.012" fill="#190200" d="M 722.5,509.5 C 722.167,509.5 721.833,509.5 721.5,509.5C 721.833,506.833 722.167,506.833 722.5,509.5 Z"/></g>
<g><path style="opacity:0.012" fill="#190200" d="M 722.5,509.5 C 723.833,510.167 723.833,510.167 722.5,509.5 Z"/></g>
<g><path style="opacity:0.012" fill="#190200" d="M 24.5,511.5 C 25.8333,512.167 25.8333,512.167 24.5,511.5 Z"/></g>
<g><path style="opacity:0.012" fill="#190200" d="M 723.5,511.5 C 724.833,512.167 724.833,512.167 723.5,511.5 Z"/></g>
<g><path style="opacity:0.012" fill="#190200" d="M 24.5,514.5 C 23.8333,513.167 23.8333,513.167 24.5,514.5 Z"/></g>
<g><path style="opacity:0.012" fill="#190200" d="M 724.5,513.5 C 725.833,514.167 725.833,514.167 724.5,513.5 Z"/></g>
<g><path style="opacity:0.012" fill="#190200" d="M 725.5,515.5 C 726.833,516.167 726.833,516.167 725.5,515.5 Z"/></g>
<g><path style="opacity:0.012" fill="#190200" d="M 726.5,517.5 C 727.833,518.167 727.833,518.167 726.5,517.5 Z"/></g>
<g><path style="opacity:0.012" fill="#190200" d="M 21.5,520.5 C 20.8333,519.167 20.8333,519.167 21.5,520.5 Z"/></g>
<g><path style="opacity:0.012" fill="#190200" d="M 727.5,519.5 C 728.833,520.167 728.833,520.167 727.5,519.5 Z"/></g>
<g><path style="opacity:0.012" fill="#190200" d="M 728.5,521.5 C 729.833,522.167 729.833,522.167 728.5,521.5 Z"/></g>
<g><path style="opacity:0.012" fill="#190200" d="M 729.5,523.5 C 730.833,524.167 730.833,524.167 729.5,523.5 Z"/></g>
<g><path style="opacity:0.012" fill="#190200" d="M 17.5,525.5 C 18.8333,526.167 18.8333,526.167 17.5,525.5 Z"/></g>
<g><path style="opacity:0.012" fill="#190200" d="M 730.5,525.5 C 731.833,526.167 731.833,526.167 730.5,525.5 Z"/></g>
<g><path style="opacity:0.012" fill="#190200" d="M 731.5,527.5 C 732.833,528.167 732.833,528.167 731.5,527.5 Z"/></g>
<g><path style="opacity:0.012" fill="#190200" d="M 734.5,535.5 C 734.369,534.761 734.536,534.094 735,533.5C 735.692,534.437 735.525,535.103 734.5,535.5 Z"/></g>
<g><path style="opacity:0.012" fill="#190200" d="M 12.5,536.5 C 13.8333,537.167 13.8333,537.167 12.5,536.5 Z"/></g>
<g><path style="opacity:0.012" fill="#190200" d="M 735.5,536.5 C 736.833,537.167 736.833,537.167 735.5,536.5 Z"/></g>
<g><path style="opacity:0.012" fill="#190200" d="M 12.5,540.5 C 12.1667,540.5 11.8333,540.5 11.5,540.5C 11.8333,537.833 12.1667,537.833 12.5,540.5 Z"/></g>
<g><path style="opacity:0.012" fill="#190200" d="M 11.5,540.5 C 11.631,541.239 11.4643,541.906 11,542.5C 10.3083,541.563 10.475,540.897 11.5,540.5 Z"/></g>
<g><path style="opacity:0.012" fill="#190200" d="M 737.5,542.5 C 737.369,541.761 737.536,541.094 738,540.5C 738.692,541.437 738.525,542.103 737.5,542.5 Z"/></g>
<g><path style="opacity:0.012" fill="#190200" d="M 10.5,545.5 C 10.1667,545.5 9.83333,545.5 9.5,545.5C 9.83333,542.833 10.1667,542.833 10.5,545.5 Z"/></g>
<g><path style="opacity:0.012" fill="#190200" d="M 9.5,545.5 C 9.63101,546.239 9.46434,546.906 9,547.5C 8.30831,546.563 8.47498,545.897 9.5,545.5 Z"/></g>
<g><path style="opacity:0.012" fill="#190200" d="M 739.5,547.5 C 739.369,546.761 739.536,546.094 740,545.5C 740.692,546.437 740.525,547.103 739.5,547.5 Z"/></g>
<g><path style="opacity:0.012" fill="#190200" d="M 741.5,550.5 C 741.167,550.5 740.833,550.5 740.5,550.5C 740.833,547.833 741.167,547.833 741.5,550.5 Z"/></g>
<g><path style="opacity:0.012" fill="#190200" d="M 741.5,550.5 C 742.525,550.897 742.692,551.563 742,552.5C 741.536,551.906 741.369,551.239 741.5,550.5 Z"/></g>
<g><path style="opacity:0.012" fill="#190200" d="M 5.5,553.5 C 6.52502,553.897 6.69169,554.563 6,555.5C 5.53566,554.906 5.36899,554.239 5.5,553.5 Z"/></g>
<g><path style="opacity:0.012" fill="#190200" d="M 742.5,555.5 C 742.369,554.761 742.536,554.094 743,553.5C 743.692,554.437 743.525,555.103 742.5,555.5 Z"/></g>
<g><path style="opacity:0.012" fill="#190200" d="M 743.5,558.5 C 743.369,557.761 743.536,557.094 744,556.5C 744.692,557.437 744.525,558.103 743.5,558.5 Z"/></g>
<g><path style="opacity:0.012" fill="#190200" d="M 744.5,561.5 C 744.369,560.761 744.536,560.094 745,559.5C 745.692,560.437 745.525,561.103 744.5,561.5 Z"/></g>
<g><path style="opacity:0.012" fill="#190200" d="M 3.5,564.5 C 2.47498,564.103 2.30831,563.437 3,562.5C 3.46434,563.094 3.63101,563.761 3.5,564.5 Z"/></g>
<g><path style="opacity:0.012" fill="#190200" d="M 745.5,564.5 C 745.369,563.761 745.536,563.094 746,562.5C 746.692,563.437 746.525,564.103 745.5,564.5 Z"/></g>
<g><path style="opacity:0.012" fill="#190200" d="M 2.5,567.5 C 1.47498,567.103 1.30831,566.437 2,565.5C 2.46434,566.094 2.63101,566.761 2.5,567.5 Z"/></g>
<g><path style="opacity:0.012" fill="#190200" d="M 746.5,567.5 C 746.369,566.761 746.536,566.094 747,565.5C 747.692,566.437 747.525,567.103 746.5,567.5 Z"/></g>
<g><path style="opacity:0.012" fill="#190200" d="M 0.5,568.5 C 1.52502,568.897 1.69169,569.563 1,570.5C 0.535656,569.906 0.368989,569.239 0.5,568.5 Z"/></g>
<g><path style="opacity:0.012" fill="#190200" d="M 747.5,568.5 C 748.525,568.897 748.692,569.563 748,570.5C 747.536,569.906 747.369,569.239 747.5,568.5 Z"/></g>
<g><path style="opacity:0.012" fill="#190200" d="M 749.5,571.5 C 749.5,572.5 749.5,573.5 749.5,574.5C 749.167,574.5 748.833,574.5 748.5,574.5C 748.263,573.209 748.596,572.209 749.5,571.5 Z"/></g>
</svg>
