<?xml version="1.0" encoding="UTF-8"?>
<!DOCTYPE svg PUBLIC "-//W3C//DTD SVG 1.1//EN" "http://www.w3.org/Graphics/SVG/1.1/DTD/svg11.dtd">
<svg xmlns="http://www.w3.org/2000/svg" version="1.1" width="750px" height="594px" style="shape-rendering:geometricPrecision; text-rendering:geometricPrecision; image-rendering:optimizeQuality; fill-rule:evenodd; clip-rule:evenodd" xmlns:xlink="http://www.w3.org/1999/xlink">
<g><path style="opacity:0.012" fill="#160000" d="M 354.5,-0.5 C 354.833,-0.5 355.167,-0.5 355.5,-0.5C 355.315,0.170143 354.981,0.170143 354.5,-0.5 Z"/></g>
<g><path style="opacity:0.954" fill="#1c0c01" d="M 365.5,-0.5 C 369.5,-0.5 373.5,-0.5 377.5,-0.5C 379.5,0.833333 381.5,0.833333 383.5,-0.5C 385.833,-0.5 388.167,-0.5 390.5,-0.5C 404.615,3.06618 418.615,6.89951 432.5,11C 438.74,13.2344 444.74,16.0677 450.5,19.5C 453.975,23.6253 458.308,26.6253 463.5,28.5C 466.413,33.9293 469.58,39.2627 473,44.5C 487.097,62.7633 495.763,83.4299 499,106.5C 500.033,123.858 498.866,141.025 495.5,158C 498.454,157.439 501.454,157.606 504.5,158.5C 504.5,159.167 504.833,159.5 505.5,159.5C 506.167,160.833 507.167,161.833 508.5,162.5C 509.574,165.393 510.24,168.393 510.5,171.5C 509.794,180.231 508.627,188.897 507,197.5C 506.667,207.833 506.333,218.167 506,228.5C 505.439,231.279 504.606,233.946 503.5,236.5C 502.833,236.5 502.5,236.833 502.5,237.5C 499.488,239.502 496.155,240.669 492.5,241C 494.5,241.333 496.5,241.667 498.5,242C 495.304,242.805 492.304,242.638 489.5,241.5C 490.239,241.631 490.906,241.464 491.5,241C 490.437,239.812 489.103,239.312 487.5,239.5C 486.876,259.125 482.376,277.792 474,295.5C 474.379,316.175 475.212,336.841 476.5,357.5C 476.43,358.772 476.097,359.938 475.5,361C 482.063,364.78 488.729,368.28 495.5,371.5C 495.5,372.167 495.833,372.5 496.5,372.5C 497.514,373.674 498.847,374.34 500.5,374.5C 500.5,375.167 500.833,375.5 501.5,375.5C 503.663,377.083 505.996,378.416 508.5,379.5C 508.5,380.167 508.833,380.5 509.5,380.5C 509.842,381.338 510.508,381.672 511.5,381.5C 511.5,382.167 511.833,382.5 512.5,382.5C 515.796,384.821 519.129,387.154 522.5,389.5C 522.5,390.167 522.833,390.5 523.5,390.5C 525.833,392.167 527.833,394.167 529.5,396.5C 533.111,398.931 537.111,400.597 541.5,401.5C 541.842,402.338 542.508,402.672 543.5,402.5C 549.884,405.686 556.551,408.352 563.5,410.5C 563.842,411.338 564.508,411.672 565.5,411.5C 571.884,414.686 578.551,417.352 585.5,419.5C 585.842,420.338 586.508,420.672 587.5,420.5C 596.929,424.871 606.595,428.871 616.5,432.5C 616.842,433.338 617.508,433.672 618.5,433.5C 639.242,443.036 658.909,454.369 677.5,467.5C 677.5,468.167 677.833,468.5 678.5,468.5C 680.46,470.156 682.46,471.823 684.5,473.5C 684.5,474.167 684.833,474.5 685.5,474.5C 689.5,477.833 693.167,481.5 696.5,485.5C 696.5,486.167 696.833,486.5 697.5,486.5C 697.5,487.167 697.833,487.5 698.5,487.5C 701.531,491.524 704.531,495.524 707.5,499.5C 707.5,500.167 707.833,500.5 708.5,500.5C 708.328,501.492 708.662,502.158 709.5,502.5C 709.5,503.167 709.833,503.5 710.5,503.5C 710.328,504.492 710.662,505.158 711.5,505.5C 711.5,506.167 711.833,506.5 712.5,506.5C 720.028,519.557 727.028,532.89 733.5,546.5C 733.328,547.492 733.662,548.158 734.5,548.5C 737.264,556.346 740.264,564.012 743.5,571.5C 745.13,578.051 747.13,584.384 749.5,590.5C 749.5,591.5 749.5,592.5 749.5,593.5C 747.5,593.5 745.5,593.5 743.5,593.5C 734.156,558.973 719.322,526.973 699,497.5C 684.174,479.665 666.674,465.165 646.5,454C 637.167,449.333 627.833,444.667 618.5,440C 589.011,428.117 559.678,415.951 530.5,403.5C 527.233,425.702 519.733,446.369 508,465.5C 484.875,498.958 456.709,527.458 423.5,551C 408.508,561.498 393.175,571.498 377.5,581C 375.5,581.667 373.5,581.667 371.5,581C 331.246,557.924 295.079,529.424 263,495.5C 243.976,474.465 229.976,450.465 221,423.5C 219.321,417.271 218.487,410.938 218.5,404.5C 185.807,416.786 153.474,429.953 121.5,444C 95.9125,455.876 73.4125,472.043 54,492.5C 31.4302,523.016 15.2636,556.682 5.5,593.5C 3.5,593.5 1.5,593.5 -0.5,593.5C -0.5,592.833 -0.5,592.167 -0.5,591.5C 0.434475,590.432 0.767809,589.099 0.5,587.5C 1.92381,585.485 2.59047,583.152 2.5,580.5C 3.40397,579.791 3.73731,578.791 3.5,577.5C 4.40397,576.791 4.73731,575.791 4.5,574.5C 5.40397,573.791 5.73731,572.791 5.5,571.5C 6.40397,570.791 6.73731,569.791 6.5,568.5C 7.93127,567.22 8.59794,565.553 8.5,563.5C 10.0198,561.11 11.0198,558.443 11.5,555.5C 12.3382,555.158 12.6716,554.492 12.5,553.5C 13.9313,552.22 14.5979,550.553 14.5,548.5C 16.6246,545.912 17.9579,542.912 18.5,539.5C 19.3382,539.158 19.6716,538.492 19.5,537.5C 20.3382,537.158 20.6716,536.492 20.5,535.5C 21.3382,535.158 21.6716,534.492 21.5,533.5C 22.3382,533.158 22.6716,532.492 22.5,531.5C 23.3382,531.158 23.6716,530.492 23.5,529.5C 24.3382,529.158 24.6716,528.492 24.5,527.5C 25.3382,527.158 25.6716,526.492 25.5,525.5C 27.2503,524.341 28.2503,522.674 28.5,520.5C 29.3382,520.158 29.6716,519.492 29.5,518.5C 30.3382,518.158 30.6716,517.492 30.5,516.5C 31.9063,516.027 32.573,515.027 32.5,513.5C 33.3382,513.158 33.6716,512.492 33.5,511.5C 34.9063,511.027 35.573,510.027 35.5,508.5C 43.3895,496.102 52.7228,484.769 63.5,474.5C 64.1667,474.5 64.5,474.167 64.5,473.5C 66.5398,471.823 68.5398,470.156 70.5,468.5C 71.1667,468.5 71.5,468.167 71.5,467.5C 90.0909,454.369 109.758,443.036 130.5,433.5C 131.492,433.672 132.158,433.338 132.5,432.5C 136.797,431.345 140.797,429.679 144.5,427.5C 145.492,427.672 146.158,427.338 146.5,426.5C 170.472,417.403 194.139,407.736 217.5,397.5C 219.167,395.167 221.167,393.167 223.5,391.5C 224.167,391.5 224.5,391.167 224.5,390.5C 225.71,390.068 226.71,389.401 227.5,388.5C 228.167,388.5 228.5,388.167 228.5,387.5C 233.515,384.996 238.181,381.996 242.5,378.5C 243.167,378.5 243.5,378.167 243.5,377.5C 248.5,375.336 253.167,372.669 257.5,369.5C 258.167,369.5 258.5,369.167 258.5,368.5C 263.938,365.947 269.271,363.113 274.5,360C 274.28,340.968 274.28,321.968 274.5,303C 275.167,297 275.833,291 276.5,285C 274.829,279.982 273.662,274.815 273,269.5C 271.876,257.178 270.876,244.845 270,232.5C 269.005,233.066 268.172,233.733 267.5,234.5C 258.954,236.153 253.12,232.82 250,224.5C 249.667,214.833 249.333,205.167 249,195.5C 245.894,185.37 244.894,175.037 246,164.5C 247.607,157.726 251.774,153.392 258.5,151.5C 253.908,128.911 255.075,106.578 262,84.5C 264.673,77.1568 267.34,69.8235 270,62.5C 274.238,55.4529 277.905,48.1196 281,40.5C 284.487,37.8547 286.987,34.5214 288.5,30.5C 289.167,30.5 289.5,30.1667 289.5,29.5C 290.167,29.5 290.5,29.1667 290.5,28.5C 294.6,26.2336 298.267,23.4003 301.5,20C 306.871,17.9812 311.871,15.4812 316.5,12.5C 325.589,9.48118 334.589,6.31451 343.5,3C 346.38,2.31593 349.213,2.48259 352,3.5C 355.32,0.669451 358.986,0.00278384 363,1.5C 363.995,0.934056 364.828,0.267389 365.5,-0.5 Z"/></g>
<g><path style="opacity:0.012" fill="#160000" d="M 400.5,-0.5 C 401.167,-0.5 401.833,-0.5 402.5,-0.5C 401.833,0.833333 401.167,0.833333 400.5,-0.5 Z"/></g>
<g><path style="opacity:0.012" fill="#160000" d="M 341.5,1.5 C 342.601,0.401682 343.934,0.235015 345.5,1C 344.207,1.49001 342.873,1.65668 341.5,1.5 Z"/></g>
<g><path style="opacity:0.012" fill="#160000" d="M 348.5,1.5 C 349.946,0.387053 351.613,0.220387 353.5,1C 351.866,1.49351 350.199,1.66018 348.5,1.5 Z"/></g>
<g><path style="opacity:0.012" fill="#160000" d="M 403.5,0.5 C 404.833,1.16667 404.833,1.16667 403.5,0.5 Z"/></g>
<g><path style="opacity:0.012" fill="#160000" d="M 341.5,1.5 C 340.749,2.57346 339.749,2.74012 338.5,2C 339.448,1.51722 340.448,1.35055 341.5,1.5 Z"/></g>
<g><path style="opacity:0.012" fill="#160000" d="M 406.5,2.5 C 405.833,1.16667 405.833,1.16667 406.5,2.5 Z"/></g>
<g><path style="opacity:0.012" fill="#160000" d="M 335.5,3.5 C 335.897,2.47498 336.563,2.30831 337.5,3C 336.906,3.46434 336.239,3.63101 335.5,3.5 Z"/></g>
<g><path style="opacity:0.012" fill="#160000" d="M 406.5,2.5 C 407.833,3.16667 407.833,3.16667 406.5,2.5 Z"/></g>
<g><path style="opacity:0.012" fill="#160000" d="M 410.5,3.5 C 410.897,2.47498 411.563,2.30831 412.5,3C 411.906,3.46434 411.239,3.63101 410.5,3.5 Z"/></g>
<g><path style="opacity:0.012" fill="#160000" d="M 335.5,3.5 C 334.833,4.16667 334.833,4.16667 335.5,3.5 Z"/></g>
<g><path style="opacity:0.012" fill="#160000" d="M 414.5,4.5 C 413.833,3.16667 413.833,3.16667 414.5,4.5 Z"/></g>
<g><path style="opacity:0.012" fill="#160000" d="M 332.5,4.5 C 333.833,5.16667 333.833,5.16667 332.5,4.5 Z"/></g>
<g><path style="opacity:0.012" fill="#160000" d="M 414.5,4.5 C 415.552,4.35055 416.552,4.51722 417.5,5C 416.251,5.74012 415.251,5.57346 414.5,4.5 Z"/></g>
<g><path style="opacity:0.012" fill="#160000" d="M 328.5,6.5 C 329.251,5.42654 330.251,5.25988 331.5,6C 330.552,6.48278 329.552,6.64945 328.5,6.5 Z"/></g>
<g><path style="opacity:0.012" fill="#160000" d="M 424.5,6.5 C 422.473,6.66212 420.473,6.49546 418.5,6C 420.712,5.21086 422.712,5.37753 424.5,6.5 Z"/></g>
<g><path style="opacity:0.012" fill="#160000" d="M 325.5,7.5 C 325.897,6.47498 326.563,6.30831 327.5,7C 326.906,7.46434 326.239,7.63101 325.5,7.5 Z"/></g>
<g><path style="opacity:0.012" fill="#160000" d="M 424.5,6.5 C 425.492,6.32842 426.158,6.66175 426.5,7.5C 425.508,7.67158 424.842,7.33825 424.5,6.5 Z"/></g>
<g><path style="opacity:0.012" fill="#160000" d="M 322.5,8.5 C 322.897,7.47498 323.563,7.30831 324.5,8C 323.906,8.46434 323.239,8.63101 322.5,8.5 Z"/></g>
<g><path style="opacity:0.012" fill="#160000" d="M 426.5,7.5 C 427.492,7.32842 428.158,7.66175 428.5,8.5C 427.508,8.67158 426.842,8.33825 426.5,7.5 Z"/></g>
<g><path style="opacity:0.012" fill="#160000" d="M 430.5,7.5 C 431.833,8.16667 431.833,8.16667 430.5,7.5 Z"/></g>
<g><path style="opacity:0.012" fill="#160000" d="M 319.5,9.5 C 319.897,8.47498 320.563,8.30831 321.5,9C 320.906,9.46434 320.239,9.63101 319.5,9.5 Z"/></g>
<g><path style="opacity:0.012" fill="#160000" d="M 428.5,8.5 C 429.833,9.16667 429.833,9.16667 428.5,8.5 Z"/></g>
<g><path style="opacity:0.012" fill="#160000" d="M 433.5,9.5 C 432.833,8.16667 432.833,8.16667 433.5,9.5 Z"/></g>
<g><path style="opacity:0.012" fill="#160000" d="M 317.5,9.5 C 318.833,10.1667 318.833,10.1667 317.5,9.5 Z"/></g>
<g><path style="opacity:0.012" fill="#160000" d="M 433.5,9.5 C 434.791,9.26269 435.791,9.59603 436.5,10.5C 435.209,10.7373 434.209,10.404 433.5,9.5 Z"/></g>
<g><path style="opacity:0.012" fill="#160000" d="M 317.5,10.5 C 316.833,11.1667 316.833,11.1667 317.5,10.5 Z"/></g>
<g><path style="opacity:0.012" fill="#160000" d="M 436.5,10.5 C 437.492,10.3284 438.158,10.6618 438.5,11.5C 437.508,11.6716 436.842,11.3382 436.5,10.5 Z"/></g>
<g><path style="opacity:0.012" fill="#160000" d="M 314.5,12.5 C 314.842,11.6618 315.508,11.3284 316.5,11.5C 316.5,11.8333 316.5,12.1667 316.5,12.5C 315.833,12.5 315.167,12.5 314.5,12.5 Z"/></g>
<g><path style="opacity:0.012" fill="#160000" d="M 438.5,11.5 C 439.492,11.3284 440.158,11.6618 440.5,12.5C 439.508,12.6716 438.842,12.3382 438.5,11.5 Z"/></g>
<g><path style="opacity:0.012" fill="#160000" d="M 314.5,12.5 C 314.103,13.525 313.437,13.6917 312.5,13C 313.094,12.5357 313.761,12.369 314.5,12.5 Z"/></g>
<g><path style="opacity:0.012" fill="#160000" d="M 440.5,12.5 C 441.791,12.2627 442.791,12.596 443.5,13.5C 442.209,13.7373 441.209,13.404 440.5,12.5 Z"/></g>
<g><path style="opacity:0.012" fill="#160000" d="M 309.5,14.5 C 309.897,13.475 310.563,13.3083 311.5,14C 310.906,14.4643 310.239,14.631 309.5,14.5 Z"/></g>
<g><path style="opacity:0.012" fill="#160000" d="M 443.5,13.5 C 444.492,13.3284 445.158,13.6618 445.5,14.5C 444.508,14.6716 443.842,14.3382 443.5,13.5 Z"/></g>
<g><path style="opacity:0.012" fill="#160000" d="M 307.5,15.5 C 307.842,14.6618 308.508,14.3284 309.5,14.5C 309.158,15.3382 308.492,15.6716 307.5,15.5 Z"/></g>
<g><path style="opacity:0.012" fill="#160000" d="M 445.5,14.5 C 446.492,14.3284 447.158,14.6618 447.5,15.5C 446.508,15.6716 445.842,15.3382 445.5,14.5 Z"/></g>
<g><path style="opacity:0.012" fill="#160000" d="M 307.5,15.5 C 306.749,16.5735 305.749,16.7401 304.5,16C 305.448,15.5172 306.448,15.3505 307.5,15.5 Z"/></g>
<g><path style="opacity:1" fill="#391e0b" d="M 375.5,11.5 C 377.199,11.3398 378.866,11.5065 380.5,12C 358.208,20.5672 335.541,27.5672 312.5,33C 333.295,25.0561 354.295,17.8894 375.5,11.5 Z"/></g>
<g><path style="opacity:0.012" fill="#160000" d="M 447.5,15.5 C 448.167,15.5 448.5,15.8333 448.5,16.5C 448.167,16.1667 447.833,15.8333 447.5,15.5 Z"/></g>
<g><path style="opacity:0.012" fill="#160000" d="M 302.5,16.5 C 303.833,17.1667 303.833,17.1667 302.5,16.5 Z"/></g>
<g><path style="opacity:0.012" fill="#160000" d="M 448.5,16.5 C 449.833,17.1667 449.833,17.1667 448.5,16.5 Z"/></g>
<g><path style="opacity:0.012" fill="#160000" d="M 300.5,18.5 C 300.842,17.6618 301.508,17.3284 302.5,17.5C 302.158,18.3382 301.492,18.6716 300.5,18.5 Z"/></g>
<g><path style="opacity:0.012" fill="#160000" d="M 300.5,18.5 C 299.833,19.1667 299.833,19.1667 300.5,18.5 Z"/></g>
<g><path style="opacity:0.012" fill="#160000" d="M 451.5,19.5 C 450.833,18.1667 450.833,18.1667 451.5,19.5 Z"/></g>
<g><path style="opacity:0.012" fill="#160000" d="M 299.5,19.5 C 298.833,20.1667 298.833,20.1667 299.5,19.5 Z"/></g>
<g><path style="opacity:0.012" fill="#160000" d="M 451.5,19.5 C 452.239,19.369 452.906,19.5357 453.5,20C 452.563,20.6917 451.897,20.525 451.5,19.5 Z"/></g>
<g><path style="opacity:0.012" fill="#160000" d="M 455.5,21.5 C 454.833,20.1667 454.833,20.1667 455.5,21.5 Z"/></g>
<g><path style="opacity:0.012" fill="#160000" d="M 455.5,21.5 C 456.167,21.5 456.5,21.8333 456.5,22.5C 456.167,22.1667 455.833,21.8333 455.5,21.5 Z"/></g>
<g><path style="opacity:0.012" fill="#160000" d="M 456.5,22.5 C 457.167,22.5 457.5,22.8333 457.5,23.5C 457.167,23.1667 456.833,22.8333 456.5,22.5 Z"/></g>
<g><path style="opacity:0.012" fill="#160000" d="M 457.5,23.5 C 458.167,23.5 458.5,23.8333 458.5,24.5C 458.167,24.1667 457.833,23.8333 457.5,23.5 Z"/></g>
<g><path style="opacity:1" fill="#3a1f0b" d="M 368.5,37.5 C 367.5,37.8333 366.833,38.5 366.5,39.5C 365.153,40.0283 363.819,40.195 362.5,40C 376.838,29.0165 391.838,19.3498 407.5,11C 395.164,20.8329 382.164,29.6662 368.5,37.5 Z"/></g>
<g><path style="opacity:0.012" fill="#160000" d="M 458.5,24.5 C 459.239,24.369 459.906,24.5357 460.5,25C 459.563,25.6917 458.897,25.525 458.5,24.5 Z"/></g>
<g><path style="opacity:0.012" fill="#160000" d="M 462.5,26.5 C 461.833,25.1667 461.833,25.1667 462.5,26.5 Z"/></g>
<g><path style="opacity:0.012" fill="#160000" d="M 462.5,26.5 C 463.167,26.5 463.5,26.8333 463.5,27.5C 463.167,27.1667 462.833,26.8333 462.5,26.5 Z"/></g>
<g><path style="opacity:0.012" fill="#160000" d="M 290.5,28.5 C 289.833,28.5 289.5,28.8333 289.5,29.5C 288.833,29.5 288.5,29.8333 288.5,30.5C 287.475,30.1034 287.308,29.4368 288,28.5C 288.977,27.2264 289.811,27.2264 290.5,28.5 Z"/></g>
<g><path style="opacity:0.012" fill="#160000" d="M 463.5,27.5 C 464.833,28.1667 464.833,28.1667 463.5,27.5 Z"/></g>
<g><path style="opacity:0.012" fill="#160000" d="M 466.5,31.5 C 467.833,32.1667 467.833,32.1667 466.5,31.5 Z"/></g>
<g><path style="opacity:1" fill="#391e0b" d="M 416.5,37.5 C 411.106,38.0729 405.773,39.0729 400.5,40.5C 399.584,40.4573 398.917,40.1239 398.5,39.5C 415.428,34.3095 432.595,29.9762 450,26.5C 450.591,27.4835 450.257,28.1501 449,28.5C 438.026,31.4425 427.192,34.4425 416.5,37.5 Z"/></g>
<g><path style="opacity:0.012" fill="#160000" d="M 469.5,35.5 C 468.833,34.1667 468.833,34.1667 469.5,35.5 Z"/></g>
<g><path style="opacity:0.012" fill="#160000" d="M 469.5,35.5 C 470.833,36.1667 470.833,36.1667 469.5,35.5 Z"/></g>
<g><path style="opacity:1" fill="#210f01" d="M 368.5,37.5 C 368.918,38.2216 369.584,38.7216 370.5,39C 369.833,39.3333 369.167,39.6667 368.5,40C 378.577,40.8066 388.577,40.64 398.5,39.5C 398.917,40.1239 399.584,40.4573 400.5,40.5C 405.773,39.0729 411.106,38.0729 416.5,37.5C 416.918,38.2216 417.584,38.7216 418.5,39C 417.167,39.3333 415.833,39.6667 414.5,40C 428.833,40.3333 443.167,40.6667 457.5,41C 453.047,42.7263 448.714,44.7263 444.5,47C 445,47.1667 445.5,47.3333 446,47.5C 452.46,43.901 459.293,41.7344 466.5,41C 460.015,43.7433 453.681,46.7433 447.5,50C 449.669,50.4294 451.669,49.9294 453.5,48.5C 454.696,48.8457 454.696,49.3457 453.5,50C 458.419,50.8015 463.252,50.6349 468,49.5C 475.028,57.5547 480.528,66.5547 484.5,76.5C 478.907,76.8066 473.407,76.4732 468,75.5C 467.536,76.0944 467.369,76.7611 467.5,77.5C 460.128,64.9671 449.462,56.4671 435.5,52C 400.448,41.8422 365.114,40.8422 329.5,49C 320.017,52.005 311.684,55.3384 304.5,59C 298.005,64.1835 293.672,70.6835 291.5,78.5C 291.649,77.448 291.483,76.448 291,75.5C 288.086,76.1447 285.086,76.478 282,76.5C 278.724,76.4423 275.724,75.7757 273,74.5C 272.722,75.4158 272.222,76.0825 271.5,76.5C 276.03,63.772 282.864,52.4387 292,42.5C 295.11,43.6734 295.277,43.1734 292.5,41C 297.532,42.4267 302.365,44.5934 307,47.5C 307.617,46.5509 307.451,45.7175 306.5,45C 303.833,43.6667 301.167,42.3333 298.5,41C 319.167,40.3333 339.833,40.3333 360.5,41C 362.889,42.6626 364.889,42.1626 366.5,39.5C 366.833,38.5 367.5,37.8333 368.5,37.5 Z"/></g>
<g><path style="opacity:0.012" fill="#160000" d="M 473.5,42.5 C 474.833,43.1667 474.833,43.1667 473.5,42.5 Z"/></g>
<g><path style="opacity:1" fill="#885233" d="M 405.5,50.5 C 419.06,67.386 424.893,86.7193 423,108.5C 421.523,115.431 419.356,122.097 416.5,128.5C 410.808,128.429 405.308,129.429 400,131.5C 396.544,133.204 393.044,134.704 389.5,136C 388.748,136.671 388.414,137.504 388.5,138.5C 387.883,138.611 387.383,138.944 387,139.5C 386.333,141.833 386.333,144.167 387,146.5C 391.858,155.554 396.692,164.554 401.5,173.5C 401.527,176.39 402.693,177.39 405,176.5C 407.167,180 410,182.833 413.5,185C 420.21,187.126 426.877,189.459 433.5,192C 447.022,195.279 459.855,193.779 472,187.5C 473.261,187.759 474.261,188.426 475,189.5C 476.467,196.777 476.801,204.111 476,211.5C 473.002,219.164 467.502,223.997 459.5,226C 453.259,231.659 449.592,238.493 448.5,246.5C 447.772,244.265 446.439,242.432 444.5,241C 428.78,232.704 412.113,227.537 394.5,225.5C 395.347,224.034 396.68,223.2 398.5,223C 404.754,222.373 410.754,221.206 416.5,219.5C 421.654,215.837 423.487,210.837 422,204.5C 417.323,198.927 412.157,193.927 406.5,189.5C 405.22,188.069 403.553,187.402 401.5,187.5C 401.259,190.794 402.092,193.794 404,196.5C 405.316,202.869 402.816,207.036 396.5,209C 391.713,209.879 387.047,209.545 382.5,208C 380.959,206.421 379.792,204.587 379,202.5C 378.802,199.298 377.969,196.298 376.5,193.5C 373.879,196.427 371.046,199.093 368,201.5C 367.228,201.355 366.561,201.022 366,200.5C 365.754,197.11 365.254,193.777 364.5,190.5C 361.943,189.466 360.609,190.466 360.5,193.5C 355.883,196.615 351.716,200.282 348,204.5C 346.02,211.295 347.853,216.628 353.5,220.5C 353.951,222.75 355.285,224.084 357.5,224.5C 364.321,222.282 370.988,222.449 377.5,225C 374.964,225.186 372.631,225.686 370.5,226.5C 355.024,228.533 340.357,233.033 326.5,240C 321.162,243.509 319.328,248.342 321,254.5C 329.414,246.043 339.58,240.876 351.5,239C 358.179,237.879 364.846,236.713 371.5,235.5C 375.51,236.17 379.51,236.837 383.5,237.5C 383.5,234.5 383.5,231.5 383.5,228.5C 384.209,227.596 385.209,227.263 386.5,227.5C 386.19,230.713 386.523,233.713 387.5,236.5C 406.441,235.656 424.441,239.489 441.5,248C 444.331,250.001 446.997,252.167 449.5,254.5C 451.844,267.162 449.677,279.162 443,290.5C 442.329,291.252 441.496,291.586 440.5,291.5C 436.972,289.635 434.638,290.635 433.5,294.5C 432.675,295.386 431.675,295.719 430.5,295.5C 430.663,297.857 430.497,300.19 430,302.5C 428.612,304.702 427.112,306.702 425.5,308.5C 421.183,309.962 417.183,312.128 413.5,315C 408.552,319.796 403.219,323.963 397.5,327.5C 393.049,328.978 388.382,329.645 383.5,329.5C 378.83,329.661 374.33,328.995 370,327.5C 367.204,328.211 364.37,328.878 361.5,329.5C 359.742,328.872 358.242,327.872 357,326.5C 356.323,328.689 355.156,329.022 353.5,327.5C 351.833,325.5 350.167,323.5 348.5,321.5C 346.974,323.658 345.474,323.325 344,320.5C 341.059,315.228 337.726,310.228 334,305.5C 333.333,303.5 332.667,301.5 332,299.5C 331.667,300.5 331.333,301.5 331,302.5C 328.82,297.782 327.487,292.782 327,287.5C 325.984,286.366 325.317,286.699 325,288.5C 323.809,285.466 321.642,283.799 318.5,283.5C 318.441,286.69 318.107,289.857 317.5,293C 318.867,297.004 319.867,301.171 320.5,305.5C 319.29,308.193 319.29,310.859 320.5,313.5C 318.523,314.188 316.523,313.855 314.5,312.5C 313.499,309.827 311.999,307.493 310,305.5C 309,306.833 308,306.833 307,305.5C 304.667,302.167 302.333,298.833 300,295.5C 297.393,289.799 295.893,283.799 295.5,277.5C 294.833,278.833 294.167,280.167 293.5,281.5C 291.203,277.179 290.036,272.512 290,267.5C 289.586,267.957 289.086,268.291 288.5,268.5C 284.71,259.813 281.876,250.813 280,241.5C 278.667,238.833 277.333,236.167 276,233.5C 275.344,202.831 275.011,172.164 275,141.5C 276.053,135.339 277.72,129.339 280,123.5C 284,115.5 288,107.5 292,99.5C 293.988,91.9081 295.654,84.2414 297,76.5C 301.289,67.5455 308.123,61.3788 317.5,58C 346.246,48.7136 375.579,46.2136 405.5,50.5 Z"/></g>
<g><path style="opacity:1" fill="#78452a" d="M 405.5,50.5 C 422.066,52.1883 437.399,57.355 451.5,66C 457.943,71.727 462.776,78.5603 466,86.5C 470.205,103.112 475.205,119.445 481,135.5C 481.302,156.071 482.469,176.571 484.5,197C 484.178,212.526 483.344,228.026 482,243.5C 480.758,246.977 478.758,249.977 476,252.5C 474.805,259.475 472.805,266.142 470,272.5C 468.899,274.394 467.566,275.061 466,274.5C 464.311,279.058 462.977,283.725 462,288.5C 461.667,287.5 461.333,286.5 461,285.5C 459.851,288.018 459.018,290.684 458.5,293.5C 457.066,294.23 455.9,295.23 455,296.5C 454.667,296.167 454.333,295.833 454,295.5C 453.326,298.922 452.16,302.089 450.5,305C 446.975,306.837 442.975,308.337 438.5,309.5C 438.268,303.378 438.935,297.378 440.5,291.5C 441.496,291.586 442.329,291.252 443,290.5C 449.677,279.162 451.844,267.162 449.5,254.5C 449.599,251.763 449.265,249.096 448.5,246.5C 449.592,238.493 453.259,231.659 459.5,226C 467.502,223.997 473.002,219.164 476,211.5C 476.801,204.111 476.467,196.777 475,189.5C 474.261,188.426 473.261,187.759 472,187.5C 459.855,193.779 447.022,195.279 433.5,192C 426.877,189.459 420.21,187.126 413.5,185C 410,182.833 407.167,180 405,176.5C 402.693,177.39 401.527,176.39 401.5,173.5C 402.097,173.265 402.43,172.765 402.5,172C 399.197,162.228 394.697,153.062 389,144.5C 388.505,142.527 388.338,140.527 388.5,138.5C 388.414,137.504 388.748,136.671 389.5,136C 393.044,134.704 396.544,133.204 400,131.5C 405.308,129.429 410.808,128.429 416.5,128.5C 419.356,122.097 421.523,115.431 423,108.5C 424.893,86.7193 419.06,67.386 405.5,50.5 Z"/></g>
<g><path style="opacity:1" fill="#2b1504" d="M 291.5,78.5 C 290.878,86.6145 288.878,94.2812 285.5,101.5C 285.631,100.761 285.464,100.094 285,99.5C 279.121,99.2339 273.121,99.5672 267,100.5C 266.667,99.5 266.333,98.5 266,97.5C 265.768,98.7375 265.268,99.7375 264.5,100.5C 266.056,92.1755 268.39,84.1755 271.5,76.5C 272.222,76.0825 272.722,75.4158 273,74.5C 275.724,75.7757 278.724,76.4423 282,76.5C 285.086,76.478 288.086,76.1447 291,75.5C 291.483,76.448 291.649,77.448 291.5,78.5 Z"/></g>
<g><path style="opacity:1" fill="#2b1404" d="M 484.5,76.5 C 488.005,83.3534 490.339,90.6867 491.5,98.5C 490.778,98.9175 490.278,99.5842 490,100.5C 487.589,99.8606 485.089,99.5272 482.5,99.5C 479.731,99.5286 477.397,100.195 475.5,101.5C 473.468,93.4092 470.802,85.4092 467.5,77.5C 467.369,76.7611 467.536,76.0944 468,75.5C 473.407,76.4732 478.907,76.8066 484.5,76.5 Z"/></g>
<g><path style="opacity:1" fill="#371d0a" d="M 285.5,101.5 C 281.057,110.894 276.723,120.227 272.5,129.5C 272.631,128.761 272.464,128.094 272,127.5C 269.487,128.283 266.82,128.617 264,128.5C 263.667,127.5 263.333,126.5 263,125.5C 262.501,130.823 262.334,136.156 262.5,141.5C 261.342,132.343 261.176,123.009 262,113.5C 262.429,108.953 263.262,104.619 264.5,100.5C 265.268,99.7375 265.768,98.7375 266,97.5C 266.333,98.5 266.667,99.5 267,100.5C 273.121,99.5672 279.121,99.2339 285,99.5C 285.464,100.094 285.631,100.761 285.5,101.5 Z"/></g>
<g><path style="opacity:1" fill="#3d200c" d="M 491.5,98.5 C 493.03,105.097 493.697,111.93 493.5,119C 493.627,127.051 492.96,134.885 491.5,142.5C 491.662,140.473 491.495,138.473 491,136.5C 490.667,137.167 490.333,137.833 490,138.5C 489,137.5 488,136.5 487,135.5C 486.5,144.827 486.334,154.161 486.5,163.5C 485.67,153.341 485.17,143.008 485,132.5C 482.125,122.045 478.959,111.712 475.5,101.5C 477.397,100.195 479.731,99.5286 482.5,99.5C 485.089,99.5272 487.589,99.8606 490,100.5C 490.278,99.5842 490.778,98.9175 491.5,98.5 Z"/></g>
<g><path style="opacity:1" fill="#1c0c01" d="M 358.5,132.5 C 358.5,134.167 358.5,135.833 358.5,137.5C 354.06,139.031 349.394,139.698 344.5,139.5C 335.171,138.704 325.838,138.537 316.5,139C 311.874,140.977 307.207,142.977 302.5,145C 300.593,148.319 297.926,150.819 294.5,152.5C 293.614,151.675 293.281,150.675 293.5,149.5C 293.751,145.308 295.251,141.642 298,138.5C 303.379,134.555 308.879,130.722 314.5,127C 325.833,126.333 337.167,126.333 348.5,127C 351.529,127.539 354.529,128.206 357.5,129C 358.337,130.011 358.67,131.178 358.5,132.5 Z"/></g>
<g><path style="opacity:1" fill="#1b0b01" d="M 416.5,128.5 C 431.839,126.5 446.839,128 461.5,133C 467.46,138.421 471.793,144.921 474.5,152.5C 474.267,153.932 473.6,154.432 472.5,154C 469.084,149.913 465.084,146.58 460.5,144C 453.753,142.818 447.087,141.318 440.5,139.5C 430.485,141.216 420.485,141.383 410.5,140C 409.39,137.263 409.223,134.429 410,131.5C 412.294,130.578 414.461,129.578 416.5,128.5 Z"/></g>
<g><path style="opacity:1" fill="#4d2a15" d="M 272.5,129.5 C 271.021,140.088 270.021,150.755 269.5,161.5C 264.448,155.855 262.115,149.188 262.5,141.5C 262.334,136.156 262.501,130.823 263,125.5C 263.333,126.5 263.667,127.5 264,128.5C 266.82,128.617 269.487,128.283 272,127.5C 272.464,128.094 272.631,128.761 272.5,129.5 Z"/></g>
<g><path style="opacity:1" fill="#77452a" d="M 358.5,132.5 C 359.73,141.798 361.564,151.132 364,160.5C 363.463,176.041 355.463,185.041 340,187.5C 327.27,186.242 314.603,184.575 302,182.5C 297.003,184.049 292.169,183.716 287.5,181.5C 287.977,180.522 288.643,179.689 289.5,179C 294.058,178.054 298.058,176.054 301.5,173C 299.776,168.401 296.942,164.567 293,161.5C 292.188,157.311 292.355,153.311 293.5,149.5C 293.281,150.675 293.614,151.675 294.5,152.5C 297.926,150.819 300.593,148.319 302.5,145C 307.207,142.977 311.874,140.977 316.5,139C 325.838,138.537 335.171,138.704 344.5,139.5C 349.394,139.698 354.06,139.031 358.5,137.5C 358.5,135.833 358.5,134.167 358.5,132.5 Z"/></g>
<g><path style="opacity:1" fill="#57311a" d="M 491.5,142.5 C 491.117,150.215 490.283,157.882 489,165.5C 488.692,166.308 488.192,166.975 487.5,167.5C 486.571,166.311 486.238,164.978 486.5,163.5C 486.334,154.161 486.5,144.827 487,135.5C 488,136.5 489,137.5 490,138.5C 490.333,137.833 490.667,137.167 491,136.5C 491.495,138.473 491.662,140.473 491.5,142.5 Z"/></g>
<g><path style="opacity:0.031" fill="#180d00" d="M 255.5,146.5 C 256.451,147.919 256.784,149.585 256.5,151.5C 255.448,151.649 254.448,151.483 253.5,151C 255.107,149.951 255.773,148.451 255.5,146.5 Z"/></g>
<g><path style="opacity:1" fill="#180a01" d="M 388.5,138.5 C 388.338,140.527 388.505,142.527 389,144.5C 394.697,153.062 399.197,162.228 402.5,172C 402.43,172.765 402.097,173.265 401.5,173.5C 396.692,164.554 391.858,155.554 387,146.5C 386.333,144.167 386.333,141.833 387,139.5C 387.383,138.944 387.883,138.611 388.5,138.5 Z"/></g>
<g><path style="opacity:1" fill="#100601" d="M 326.5,151.5 C 335.613,150.152 343.947,151.985 351.5,157C 348.725,156.626 346.058,155.626 343.5,154C 337.5,153.333 331.5,153.333 325.5,154C 322.716,154.892 320.05,156.058 317.5,157.5C 316.304,157.154 316.304,156.654 317.5,156C 320.462,154.15 323.462,152.65 326.5,151.5 Z"/></g>
<g><path style="opacity:1" fill="#160902" d="M 429.5,152.5 C 433.846,152.334 438.179,152.501 442.5,153C 448.147,155.966 453.814,158.966 459.5,162C 452.926,160.886 446.592,158.886 440.5,156C 433.539,154.805 426.872,155.638 420.5,158.5C 419.304,158.154 419.304,157.654 420.5,157C 423.648,155.576 426.648,154.076 429.5,152.5 Z"/></g>
<g><path style="opacity:0.012" fill="#170600" d="M 502.5,156.5 C 500.801,156.66 499.134,156.494 497.5,156C 499.387,155.22 501.054,155.387 502.5,156.5 Z"/></g>
<g><path style="opacity:0.031" fill="#181100" d="M 502.5,156.5 C 503.492,156.328 504.158,156.662 504.5,157.5C 503.508,157.672 502.842,157.338 502.5,156.5 Z"/></g>
<g><path style="opacity:0.012" fill="#170300" d="M 504.5,158.5 C 504.5,158.167 504.5,157.833 504.5,157.5C 506.027,157.427 507.027,158.094 507.5,159.5C 506.833,159.5 506.167,159.5 505.5,159.5C 504.833,159.5 504.5,159.167 504.5,158.5 Z"/></g>
<g><path style="opacity:1" fill="#1b110c" d="M 327.5,157.5 C 333.577,157.196 339.577,157.696 345.5,159C 349.731,161.403 354.064,163.57 358.5,165.5C 359.386,166.325 359.719,167.325 359.5,168.5C 342.519,172.12 325.519,172.286 308.5,169C 306.606,167.921 306.273,166.587 307.5,165C 314.16,162.173 320.827,159.673 327.5,157.5 Z"/></g>
<g><path style="opacity:0.012" fill="#160000" d="M 507.5,159.5 C 508.833,160.167 508.833,160.167 507.5,159.5 Z"/></g>
<g><path style="opacity:1" fill="#dad8d7" d="M 330.5,164.5 C 329.292,165.234 327.959,165.567 326.5,165.5C 326.5,164.167 326.5,162.833 326.5,161.5C 327.833,161.5 329.167,161.5 330.5,161.5C 330.5,162.5 330.5,163.5 330.5,164.5 Z"/></g>
<g><path style="opacity:1" fill="#8a8684" d="M 347.5,163.5 C 345.738,163.643 344.071,163.309 342.5,162.5C 341.828,163.949 341.161,165.282 340.5,166.5C 340.5,164.5 340.5,162.5 340.5,160.5C 343.491,160.166 345.824,161.166 347.5,163.5 Z"/></g>
<g><path style="opacity:0.012" fill="#160000" d="M 508.5,161.5 C 509.833,162.167 509.833,162.167 508.5,161.5 Z"/></g>
<g><path style="opacity:1" fill="#7c492c" d="M 256.5,163.5 C 253.888,159.249 255.221,157.415 260.5,158C 265.307,163.113 268.974,168.947 271.5,175.5C 271.167,176.167 270.833,176.833 270.5,177.5C 267.464,171.131 262.797,166.464 256.5,163.5 Z"/></g>
<g><path style="opacity:1" fill="#1a0f08" d="M 427.5,159.5 C 440.215,159.261 451.882,162.595 462.5,169.5C 460.303,171.518 457.636,172.685 454.5,173C 449.889,173.979 445.223,174.479 440.5,174.5C 430.77,173.485 421.104,171.985 411.5,170C 409.114,169.716 408.448,168.716 409.5,167C 415.489,164.1 421.489,161.6 427.5,159.5 Z"/></g>
<g><path style="opacity:1" fill="#76716e" d="M 318.5,168.5 C 320.167,168.5 321.833,168.5 323.5,168.5C 323.785,166.712 323.452,165.045 322.5,163.5C 320.199,164.325 317.865,164.992 315.5,165.5C 318.057,163.393 321.057,162.059 324.5,161.5C 324.5,164.167 324.5,166.833 324.5,169.5C 322.265,169.795 320.265,169.461 318.5,168.5 Z"/></g>
<g><path style="opacity:1" fill="#e7e6e5" d="M 347.5,163.5 C 349.532,164.048 350.532,165.381 350.5,167.5C 347.962,167.507 345.462,167.841 343,168.5C 341.624,168.316 340.791,167.649 340.5,166.5C 341.161,165.282 341.828,163.949 342.5,162.5C 344.071,163.309 345.738,163.643 347.5,163.5 Z"/></g>
<g><path style="opacity:1" fill="#86827f" d="M 426.5,165.5 C 424.097,165.448 421.764,165.781 419.5,166.5C 421.315,163.593 423.981,162.259 427.5,162.5C 427.737,163.791 427.404,164.791 426.5,165.5 Z"/></g>
<g><path style="opacity:1" fill="#cdcbca" d="M 433.5,166.5 C 430.099,167.773 428.766,166.44 429.5,162.5C 432.5,162.167 433.833,163.5 433.5,166.5 Z"/></g>
<g><path style="opacity:1" fill="#f3f2f1" d="M 318.5,168.5 C 317.5,168.5 316.5,168.5 315.5,168.5C 315.5,167.5 315.5,166.5 315.5,165.5C 317.865,164.992 320.199,164.325 322.5,163.5C 323.452,165.045 323.785,166.712 323.5,168.5C 321.833,168.5 320.167,168.5 318.5,168.5 Z"/></g>
<g><path style="opacity:1" fill="#ebe9e8" d="M 426.5,165.5 C 426.5,166.833 426.5,168.167 426.5,169.5C 423.518,169.896 420.851,169.229 418.5,167.5C 418.624,166.893 418.957,166.56 419.5,166.5C 421.764,165.781 424.097,165.448 426.5,165.5 Z"/></g>
<g><path style="opacity:0.012" fill="#160000" d="M 510.5,165.5 C 511.833,166.167 511.833,166.167 510.5,165.5 Z"/></g>
<g><path style="opacity:1" fill="#714127" d="M 256.5,163.5 C 263.65,170.792 268.483,179.459 271,189.5C 271.826,201.341 271.659,213.007 270.5,224.5C 272.247,212.02 270.08,200.353 264,189.5C 259.237,183.64 255.237,177.307 252,170.5C 251.502,173.482 251.335,176.482 251.5,179.5C 250.353,175.354 250.186,171.02 251,166.5C 251.417,162.709 253.25,161.709 256.5,163.5 Z"/></g>
<g><path style="opacity:1" fill="#84807d" d="M 330.5,164.5 C 331.5,164.5 332.5,164.5 333.5,164.5C 333.5,165.5 333.5,166.5 333.5,167.5C 332.5,167.5 331.5,167.5 330.5,167.5C 330.5,166.5 330.5,165.5 330.5,164.5 Z"/></g>
<g><path style="opacity:1" fill="#969391" d="M 452.5,168.5 C 449.933,167.525 447.267,166.858 444.5,166.5C 444.737,167.791 444.404,168.791 443.5,169.5C 443.5,167.833 443.5,166.167 443.5,164.5C 446.166,164.933 448.832,165.433 451.5,166C 452.252,166.671 452.586,167.504 452.5,168.5 Z"/></g>
<g><path style="opacity:1" fill="#e0dfde" d="M 452.5,168.5 C 452.5,169.5 452.5,170.5 452.5,171.5C 449.962,171.507 447.462,171.841 445,172.5C 442.422,172.318 441.922,171.318 443.5,169.5C 444.404,168.791 444.737,167.791 444.5,166.5C 447.267,166.858 449.933,167.525 452.5,168.5 Z"/></g>
<g><path style="opacity:1" fill="#85817e" d="M 433.5,166.5 C 434.5,166.5 435.5,166.5 436.5,166.5C 436.5,167.5 436.5,168.5 436.5,169.5C 435.5,169.5 434.5,169.5 433.5,169.5C 433.5,168.5 433.5,167.5 433.5,166.5 Z"/></g>
<g><path style="opacity:1" fill="#7f4b2e" d="M 497.5,163.5 C 499.665,163.116 501.332,163.783 502.5,165.5C 496.975,170.199 492.641,175.866 489.5,182.5C 488.348,179.894 488.182,177.227 489,174.5C 491.346,170.338 494.179,166.671 497.5,163.5 Z"/></g>
<g><path style="opacity:1" fill="#875132" d="M 270.5,224.5 C 268.003,228.746 264.336,230.246 259.5,229C 257.951,227.786 256.785,226.286 256,224.5C 256.383,209.275 254.883,194.275 251.5,179.5C 251.335,176.482 251.502,173.482 252,170.5C 255.237,177.307 259.237,183.64 264,189.5C 270.08,200.353 272.247,212.02 270.5,224.5 Z"/></g>
<g><path style="opacity:1" fill="#3b2113" d="M 342.5,176.5 C 343.873,176.343 345.207,176.51 346.5,177C 341.895,179.664 337.228,179.997 332.5,178C 336.025,177.821 339.359,177.321 342.5,176.5 Z"/></g>
<g><path style="opacity:1" fill="#1c0f04" d="M 418.5,176.5 C 418.56,175.957 418.893,175.624 419.5,175.5C 423.24,177.691 427.24,179.191 431.5,180C 426.778,180.372 422.444,179.205 418.5,176.5 Z"/></g>
<g><path style="opacity:0.012" fill="#160000" d="M 510.5,179.5 C 511.573,180.251 511.74,181.251 511,182.5C 510.517,181.552 510.351,180.552 510.5,179.5 Z"/></g>
<g><path style="opacity:0.012" fill="#160000" d="M 509.5,188.5 C 510.833,189.167 510.833,189.167 509.5,188.5 Z"/></g>
<g><path style="opacity:1" fill="#77442a" d="M 406.5,189.5 C 405.957,189.56 405.624,189.893 405.5,190.5C 406.531,191.7 407.365,193.034 408,194.5C 412,197.167 415.333,200.5 418,204.5C 418.667,207.833 418.667,211.167 418,214.5C 415.592,216.956 412.759,218.789 409.5,220C 411.797,220.018 414.131,219.851 416.5,219.5C 410.754,221.206 404.754,222.373 398.5,223C 396.68,223.2 395.347,224.034 394.5,225.5C 392.412,226.939 390.079,227.606 387.5,227.5C 387.5,230.5 387.5,233.5 387.5,236.5C 386.523,233.713 386.19,230.713 386.5,227.5C 385.209,227.263 384.209,227.596 383.5,228.5C 379.296,227.09 374.963,226.423 370.5,226.5C 372.631,225.686 374.964,225.186 377.5,225C 370.988,222.449 364.321,222.282 357.5,224.5C 355.285,224.084 353.951,222.75 353.5,220.5C 356.012,221.928 358.678,222.428 361.5,222C 348.437,216.011 347.27,208.178 358,198.5C 359.094,196.922 359.928,195.255 360.5,193.5C 360.609,190.466 361.943,189.466 364.5,190.5C 365.254,193.777 365.754,197.11 366,200.5C 366.561,201.022 367.228,201.355 368,201.5C 371.046,199.093 373.879,196.427 376.5,193.5C 377.969,196.298 378.802,199.298 379,202.5C 379.792,204.587 380.959,206.421 382.5,208C 387.047,209.545 391.713,209.879 396.5,209C 402.816,207.036 405.316,202.869 404,196.5C 402.092,193.794 401.259,190.794 401.5,187.5C 403.553,187.402 405.22,188.069 406.5,189.5 Z"/></g>
<g><path style="opacity:1" fill="#824d2f" d="M 502.5,167.5 C 503.787,168.871 504.453,170.705 504.5,173C 504.088,181.289 502.922,189.455 501,197.5C 500.667,208.5 500.333,219.5 500,230.5C 499.535,231.931 498.701,233.097 497.5,234C 494.833,234.667 492.167,234.667 489.5,234C 487.972,232.352 487.305,230.352 487.5,228C 488.588,216.853 489.422,205.686 490,194.5C 492.037,184.432 496.203,175.432 502.5,167.5 Z"/></g>
<g><path style="opacity:0.012" fill="#160000" d="M 508.5,194.5 C 509.833,195.167 509.833,195.167 508.5,194.5 Z"/></g>
<g><path style="opacity:1" fill="#1d0e03" d="M 406.5,189.5 C 412.157,193.927 417.323,198.927 422,204.5C 423.487,210.837 421.654,215.837 416.5,219.5C 414.131,219.851 411.797,220.018 409.5,220C 412.759,218.789 415.592,216.956 418,214.5C 418.667,211.167 418.667,207.833 418,204.5C 415.333,200.5 412,197.167 408,194.5C 407.365,193.034 406.531,191.7 405.5,190.5C 405.624,189.893 405.957,189.56 406.5,189.5 Z"/></g>
<g><path style="opacity:1" fill="#1b0c02" d="M 360.5,193.5 C 359.928,195.255 359.094,196.922 358,198.5C 347.27,208.178 348.437,216.011 361.5,222C 358.678,222.428 356.012,221.928 353.5,220.5C 347.853,216.628 346.02,211.295 348,204.5C 351.716,200.282 355.883,196.615 360.5,193.5 Z"/></g>
<g><path style="opacity:1" fill="#180901" d="M 362.5,209.5 C 362.917,208.876 363.584,208.543 364.5,208.5C 371.063,210.554 376.396,214.388 380.5,220C 383.5,222 386.5,222 389.5,220C 393.131,216.19 397.131,212.857 401.5,210C 404.768,208.787 408.101,208.454 411.5,209C 408.246,209.25 405.246,210.25 402.5,212C 399.167,215.333 395.833,218.667 392.5,222C 387.433,225.265 382.433,225.265 377.5,222C 374.167,218.333 370.833,214.667 367.5,211C 365.975,209.991 364.308,209.491 362.5,209.5 Z"/></g>
<g><path style="opacity:1" fill="#472712" d="M 394.5,225.5 C 412.113,227.537 428.78,232.704 444.5,241C 446.439,242.432 447.772,244.265 448.5,246.5C 449.265,249.096 449.599,251.763 449.5,254.5C 446.997,252.167 444.331,250.001 441.5,248C 424.441,239.489 406.441,235.656 387.5,236.5C 387.5,233.5 387.5,230.5 387.5,227.5C 390.079,227.606 392.412,226.939 394.5,225.5 Z"/></g>
<g><path style="opacity:1" fill="#472712" d="M 370.5,226.5 C 374.963,226.423 379.296,227.09 383.5,228.5C 383.5,231.5 383.5,234.5 383.5,237.5C 379.51,236.837 375.51,236.17 371.5,235.5C 364.846,236.713 358.179,237.879 351.5,239C 339.58,240.876 329.414,246.043 321,254.5C 319.328,248.342 321.162,243.509 326.5,240C 340.357,233.033 355.024,228.533 370.5,226.5 Z"/></g>
<g><path style="opacity:0.031" fill="#180c00" d="M 267.5,234.5 C 268.805,236.397 269.471,238.731 269.5,241.5C 269.333,243.833 269.167,246.167 269,248.5C 268.777,243.75 268.277,239.084 267.5,234.5 Z"/></g>
<g><path style="opacity:0.012" fill="#160000" d="M 503.5,236.5 C 504.833,237.167 504.833,237.167 503.5,236.5 Z"/></g>
<g><path style="opacity:0.012" fill="#160000" d="M 502.5,237.5 C 502.833,237.5 503.167,237.5 503.5,237.5C 503.315,238.17 502.981,238.17 502.5,237.5 Z"/></g>
<g><path style="opacity:0.012" fill="#160000" d="M 489.5,241.5 C 488.833,240.167 488.833,240.167 489.5,241.5 Z"/></g>
<g><path style="opacity:1" fill="#170a02" d="M 423.5,245.5 C 422.726,246.147 421.726,246.48 420.5,246.5C 413.75,245.789 407.083,244.789 400.5,243.5C 395.09,244.081 389.757,245.081 384.5,246.5C 379.833,245.5 375.167,244.5 370.5,243.5C 360.621,245.69 350.621,247.357 340.5,248.5C 339.274,248.48 338.274,248.147 337.5,247.5C 348.506,245.885 359.34,243.551 370,240.5C 375.067,241.184 380.067,242.184 385,243.5C 389.352,242.485 393.685,241.485 398,240.5C 406.562,241.933 415.062,243.6 423.5,245.5 Z"/></g>
<g><path style="opacity:1" fill="#734228" d="M 423.5,245.5 C 428.776,246.754 434.109,247.921 439.5,249C 440.022,249.561 440.355,250.228 440.5,251C 432.663,262.335 423.329,272.169 412.5,280.5C 412.44,279.957 412.107,279.624 411.5,279.5C 404.037,282.862 396.204,284.195 388,283.5C 379.988,283.867 372.154,282.867 364.5,280.5C 363.584,280.543 362.917,280.876 362.5,281.5C 355.665,277.917 348.999,274.084 342.5,270C 337.167,264 331.833,258 326.5,252C 327.167,251.333 327.833,250.667 328.5,250C 331.445,248.869 334.445,248.036 337.5,247.5C 338.274,248.147 339.274,248.48 340.5,248.5C 350.621,247.357 360.621,245.69 370.5,243.5C 375.167,244.5 379.833,245.5 384.5,246.5C 389.757,245.081 395.09,244.081 400.5,243.5C 407.083,244.789 413.75,245.789 420.5,246.5C 421.726,246.48 422.726,246.147 423.5,245.5 Z"/></g>
<g><path style="opacity:1" fill="#32261f" d="M 383.5,255.5 C 384.609,256.29 385.942,256.79 387.5,257C 375.237,255.823 362.904,255.323 350.5,255.5C 350.918,254.778 351.584,254.278 352.5,254C 362.954,253.111 373.287,253.611 383.5,255.5 Z"/></g>
<g><path style="opacity:1" fill="#1b1714" d="M 420.5,261.5 C 409.915,263.325 399.248,265.492 388.5,268C 384.5,268.667 380.5,268.667 376.5,268C 363.949,264.124 351.282,260.457 338.5,257C 342.466,256.172 346.466,255.672 350.5,255.5C 362.904,255.323 375.237,255.823 387.5,257C 385.942,256.79 384.609,256.29 383.5,255.5C 398.81,253.183 414.143,253.016 429.5,255C 427.578,258.63 424.578,260.797 420.5,261.5 Z"/></g>
<g><path style="opacity:1" fill="#e1e0df" d="M 420.5,261.5 C 408.209,261.559 396.042,262.559 384,264.5C 375.238,264.518 366.738,263.018 358.5,260C 355.854,259.503 353.187,259.336 350.5,259.5C 350.5,258.5 350.5,257.5 350.5,256.5C 362.226,256.184 373.892,256.85 385.5,258.5C 397.09,256.378 408.756,255.545 420.5,256C 421.752,257.828 421.752,259.661 420.5,261.5 Z"/></g>
<g><path style="opacity:1" fill="#1b0c02" d="M 412.5,280.5 C 410.426,281.514 408.426,282.514 406.5,283.5C 391.887,289.147 377.554,288.48 363.5,281.5C 363.167,281.5 362.833,281.5 362.5,281.5C 362.917,280.876 363.584,280.543 364.5,280.5C 372.154,282.867 379.988,283.867 388,283.5C 396.204,284.195 404.037,282.862 411.5,279.5C 412.107,279.624 412.44,279.957 412.5,280.5 Z"/></g>
<g><path style="opacity:1" fill="#78452a" d="M 363.5,281.5 C 377.554,288.48 391.887,289.147 406.5,283.5C 404.879,285.117 402.879,286.284 400.5,287C 401.061,288.566 400.394,289.899 398.5,291C 383.831,298.584 372.164,295.417 363.5,281.5 Z"/></g>
<g><path style="opacity:1" fill="#713f28" d="M 468.5,322.5 C 462.109,328.395 456.609,335.061 452,342.5C 446.149,353.041 440.482,363.708 435,374.5C 415.38,399.158 389.88,408.658 358.5,403C 344.766,400.273 333.932,393.107 326,381.5C 315.013,364.2 304.013,346.866 293,329.5C 289.603,324.601 285.436,320.601 280.5,317.5C 280.17,310.468 280.503,303.468 281.5,296.5C 284.667,301.5 287.833,306.5 291,311.5C 301.398,322.072 311.565,332.072 321.5,341.5C 322.271,343.862 323.105,346.196 324,348.5C 324.249,347.376 324.749,346.376 325.5,345.5C 326.868,347.637 327.868,349.97 328.5,352.5C 329.167,351.5 329.833,350.5 330.5,349.5C 334.154,353.475 337.321,357.808 340,362.5C 340.536,360.433 340.036,358.599 338.5,357C 340.568,357.017 342.234,358.017 343.5,360C 348.843,361.007 353.177,363.674 356.5,368C 359.875,368.06 362.708,369.227 365,371.5C 365.839,370.376 367.006,369.709 368.5,369.5C 372.62,369.529 376.787,369.862 381,370.5C 384.612,368.98 388.445,368.146 392.5,368C 395.173,366.999 397.507,365.499 399.5,363.5C 399.911,364.262 400.077,365.262 400,366.5C 402.762,365.019 405.429,363.353 408,361.5C 406.908,367.637 407.908,367.97 411,362.5C 411.414,362.957 411.914,363.291 412.5,363.5C 413.167,361.5 413.833,359.5 414.5,357.5C 415.584,358.665 416.417,359.998 417,361.5C 418.043,359.299 418.877,356.966 419.5,354.5C 420.251,355.376 420.751,356.376 421,357.5C 423.667,354.167 426.333,350.833 429,347.5C 429.333,347.833 429.667,348.167 430,348.5C 432.043,346.792 433.71,344.792 435,342.5C 435.333,342.833 435.667,343.167 436,343.5C 436.216,341.616 436.883,339.949 438,338.5C 438.333,339.167 438.667,339.833 439,340.5C 439.92,337.062 441.587,334.062 444,331.5C 452.393,322.944 460.226,313.944 467.5,304.5C 468.496,310.463 468.829,316.463 468.5,322.5 Z"/></g>
<g><path style="opacity:1" fill="#77452a" d="M 425.5,308.5 C 425.656,311.066 425.322,313.566 424.5,316C 421.129,318.553 418.463,321.72 416.5,325.5C 415.808,324.975 415.308,324.308 415,323.5C 410.077,328.586 404.244,329.919 397.5,327.5C 403.219,323.963 408.552,319.796 413.5,315C 417.183,312.128 421.183,309.962 425.5,308.5 Z"/></g>
<g><path style="opacity:1" fill="#895233" d="M 280.5,317.5 C 285.436,320.601 289.603,324.601 293,329.5C 304.013,346.866 315.013,364.2 326,381.5C 333.932,393.107 344.766,400.273 358.5,403C 389.88,408.658 415.38,399.158 435,374.5C 440.482,363.708 446.149,353.041 452,342.5C 456.609,335.061 462.109,328.395 468.5,322.5C 470.075,340.307 470.909,358.307 471,376.5C 471.413,379.232 472.08,381.899 473,384.5C 473.543,382.369 474.376,380.369 475.5,378.5C 476.107,378.624 476.44,378.957 476.5,379.5C 479.995,407.677 469.661,429.177 445.5,444C 407.091,464.313 366.758,468.979 324.5,458C 283.145,446.159 265.479,418.993 271.5,376.5C 272.675,375.026 273.675,373.36 274.5,371.5C 275.847,375.215 277.347,378.882 279,382.5C 279.168,360.663 279.668,338.996 280.5,317.5 Z"/></g>
<g><path style="opacity:0.012" fill="#170700" d="M 272.5,301.5 C 273.166,306.322 273.499,311.322 273.5,316.5C 273.011,331.167 272.511,345.834 272,360.5C 271.811,340.834 271.978,321.168 272.5,301.5 Z"/></g>
<g><path style="opacity:0.012" fill="#170700" d="M 258.5,368.5 C 257.833,368.5 257.5,368.833 257.5,369.5C 255.025,369.253 255.025,368.587 257.5,367.5C 258.107,367.624 258.44,367.957 258.5,368.5 Z"/></g>
<g><path style="opacity:0.012" fill="#170700" d="M 495.5,371.5 C 496.497,370.287 497.497,370.454 498.5,372C 497.906,372.464 497.239,372.631 496.5,372.5C 495.833,372.5 495.5,372.167 495.5,371.5 Z"/></g>
<g><path style="opacity:0.012" fill="#170700" d="M 500.5,374.5 C 501.497,373.287 502.497,373.454 503.5,375C 502.906,375.464 502.239,375.631 501.5,375.5C 500.833,375.5 500.5,375.167 500.5,374.5 Z"/></g>
<g><path style="opacity:0.012" fill="#170700" d="M 243.5,377.5 C 242.833,377.5 242.5,377.833 242.5,378.5C 240.025,378.253 240.025,377.587 242.5,376.5C 243.107,376.624 243.44,376.957 243.5,377.5 Z"/></g>
<g><path style="opacity:1" fill="#282320" d="M 486.5,373.5 C 499.97,380.809 512.47,389.476 524,399.5C 523.289,418.64 518.289,436.64 509,453.5C 495.872,475.977 479.705,496.143 460.5,514C 433.933,537.735 405.267,558.568 374.5,576.5C 330.826,551.672 292.326,520.339 259,482.5C 242.923,463.014 231.59,441.014 225,416.5C 223.928,410.859 223.595,405.193 224,399.5C 228.546,395.286 233.379,391.453 238.5,388C 246.186,383.334 253.853,379.001 261.5,375C 253.939,383.403 251.105,393.237 253,404.5C 256.998,419.827 263.665,433.827 273,446.5C 302.022,482.028 335.856,512.028 374.5,536.5C 412.758,512.421 446.258,482.754 475,447.5C 484.924,434.651 491.924,420.317 496,404.5C 497.232,397.161 496.232,390.161 493,383.5C 490.978,379.997 488.811,376.663 486.5,373.5 Z"/></g>
<g><path style="opacity:0.012" fill="#170700" d="M 508.5,379.5 C 509.779,378.285 510.779,378.618 511.5,380.5C 510.833,380.5 510.167,380.5 509.5,380.5C 508.833,380.5 508.5,380.167 508.5,379.5 Z"/></g>
<g><path style="opacity:0.012" fill="#170700" d="M 511.5,381.5 C 511.5,381.167 511.5,380.833 511.5,380.5C 514.46,381.032 514.793,381.699 512.5,382.5C 511.833,382.5 511.5,382.167 511.5,381.5 Z"/></g>
<g><path style="opacity:1" fill="#e4e1df" d="M 479.5,374.5 C 491.117,384.538 494.283,396.871 489,411.5C 480.999,431.517 469.499,449.184 454.5,464.5C 451.61,467.553 448.276,470.053 444.5,472C 397.326,492.029 349.993,492.529 302.5,473.5C 290.743,460.911 279.91,447.577 270,433.5C 264.696,424.751 260.863,415.418 258.5,405.5C 258.36,399.464 258.693,393.464 259.5,387.5C 261.063,383.382 263.396,379.716 266.5,376.5C 267.107,376.624 267.44,376.957 267.5,377.5C 261.686,420.858 279.686,449.025 321.5,462C 363.204,473.053 403.537,469.386 442.5,451C 473.456,434.587 485.789,409.087 479.5,374.5 Z"/></g>
<g><path style="opacity:0.012" fill="#170700" d="M 228.5,387.5 C 227.833,387.5 227.5,387.833 227.5,388.5C 225.025,388.253 225.025,387.587 227.5,386.5C 228.107,386.624 228.44,386.957 228.5,387.5 Z"/></g>
<g><path style="opacity:0.012" fill="#170300" d="M 522.5,389.5 C 523.497,388.287 524.497,388.454 525.5,390C 524.906,390.464 524.239,390.631 523.5,390.5C 522.833,390.5 522.5,390.167 522.5,389.5 Z"/></g>
<g><path style="opacity:0.012" fill="#170700" d="M 224.5,390.5 C 223.833,390.5 223.5,390.833 223.5,391.5C 221.025,391.253 221.025,390.587 223.5,389.5C 224.107,389.624 224.44,389.957 224.5,390.5 Z"/></g>
<g><path style="opacity:0.031" fill="#180d00" d="M 529.5,396.5 C 529.511,393.999 530.178,393.832 531.5,396C 530.906,396.464 530.239,396.631 529.5,396.5 Z"/></g>
<g><path style="opacity:0.012" fill="#190700" d="M 217.5,397.5 C 214.999,397.489 214.832,396.822 217,395.5C 217.464,396.094 217.631,396.761 217.5,397.5 Z"/></g>
<g><path style="opacity:1" fill="#aca9a7" d="M 259.5,387.5 C 258.693,393.464 258.36,399.464 258.5,405.5C 257.836,403.19 257.503,400.69 257.5,398C 257.304,394.195 257.97,390.695 259.5,387.5 Z"/></g>
<g><path style="opacity:0.031" fill="#181100" d="M 212.5,398.5 C 212.897,397.475 213.563,397.308 214.5,398C 213.906,398.464 213.239,398.631 212.5,398.5 Z"/></g>
<g><path style="opacity:0.012" fill="#170700" d="M 541.5,401.5 C 543.089,400.379 544.756,400.546 546.5,402C 545.552,402.483 544.552,402.649 543.5,402.5C 543.158,401.662 542.492,401.328 541.5,401.5 Z"/></g>
<g><path style="opacity:1" fill="#282320" d="M 743.5,593.5 C 497.5,593.5 251.5,593.5 5.5,593.5C 15.2636,556.682 31.4302,523.016 54,492.5C 73.4125,472.043 95.9125,455.876 121.5,444C 153.474,429.953 185.807,416.786 218.5,404.5C 218.487,410.938 219.321,417.271 221,423.5C 229.976,450.465 243.976,474.465 263,495.5C 295.079,529.424 331.246,557.924 371.5,581C 373.5,581.667 375.5,581.667 377.5,581C 393.175,571.498 408.508,561.498 423.5,551C 456.709,527.458 484.875,498.958 508,465.5C 519.733,446.369 527.233,425.702 530.5,403.5C 559.678,415.951 589.011,428.117 618.5,440C 627.833,444.667 637.167,449.333 646.5,454C 666.674,465.165 684.174,479.665 699,497.5C 719.322,526.973 734.156,558.973 743.5,593.5 Z"/></g>
<g><path style="opacity:0.012" fill="#170700" d="M 563.5,410.5 C 565.089,409.379 566.756,409.546 568.5,411C 567.552,411.483 566.552,411.649 565.5,411.5C 565.158,410.662 564.492,410.328 563.5,410.5 Z"/></g>
<g><path style="opacity:1" fill="#1b120d" d="M 479.5,374.5 C 485.789,409.087 473.456,434.587 442.5,451C 403.537,469.386 363.204,473.053 321.5,462C 279.686,449.025 261.686,420.858 267.5,377.5C 268.29,378.609 268.79,379.942 269,381.5C 269.374,379.509 270.207,377.842 271.5,376.5C 265.479,418.993 283.145,446.159 324.5,458C 366.758,468.979 407.091,464.313 445.5,444C 469.661,429.177 479.995,407.677 476.5,379.5C 477.75,379.577 478.583,380.244 479,381.5C 478.895,378.972 479.062,376.638 479.5,374.5 Z"/></g>
<g><path style="opacity:0.012" fill="#170700" d="M 585.5,419.5 C 587.089,418.379 588.756,418.546 590.5,420C 589.552,420.483 588.552,420.649 587.5,420.5C 587.158,419.662 586.492,419.328 585.5,419.5 Z"/></g>
<g><path style="opacity:0.031" fill="#180a00" d="M 146.5,426.5 C 145.508,426.328 144.842,426.662 144.5,427.5C 142.653,427.766 141.986,427.432 142.5,426.5C 143.995,425.295 145.328,425.295 146.5,426.5 Z"/></g>
<g><path style="opacity:0.012" fill="#170700" d="M 616.5,432.5 C 618.089,431.379 619.756,431.546 621.5,433C 620.552,433.483 619.552,433.649 618.5,433.5C 618.158,432.662 617.492,432.328 616.5,432.5 Z"/></g>
<g><path style="opacity:0.031" fill="#180a00" d="M 132.5,432.5 C 131.508,432.328 130.842,432.662 130.5,433.5C 128.653,433.766 127.986,433.432 128.5,432.5C 129.995,431.295 131.328,431.295 132.5,432.5 Z"/></g>
<g><path style="opacity:0.012" fill="#170300" d="M 71.5,467.5 C 70.8333,467.5 70.5,467.833 70.5,468.5C 68.0248,468.253 68.0248,467.587 70.5,466.5C 71.1067,466.624 71.44,466.957 71.5,467.5 Z"/></g>
<g><path style="opacity:0.012" fill="#170700" d="M 677.5,467.5 C 678.497,466.287 679.497,466.454 680.5,468C 679.906,468.464 679.239,468.631 678.5,468.5C 677.833,468.5 677.5,468.167 677.5,467.5 Z"/></g>
<g><path style="opacity:0.012" fill="#160000" d="M 64.5,473.5 C 63.8333,473.5 63.5,473.833 63.5,474.5C 61.0248,474.253 61.0248,473.587 63.5,472.5C 64.1067,472.624 64.44,472.957 64.5,473.5 Z"/></g>
<g><path style="opacity:0.012" fill="#170300" d="M 684.5,473.5 C 685.497,472.287 686.497,472.454 687.5,474C 686.906,474.464 686.239,474.631 685.5,474.5C 684.833,474.5 684.5,474.167 684.5,473.5 Z"/></g>
<g><path style="opacity:0.012" fill="#170700" d="M 698.5,487.5 C 697.833,487.5 697.5,487.167 697.5,486.5C 696.833,486.5 696.5,486.167 696.5,485.5C 697.286,483.408 698.286,483.741 699.5,486.5C 699.376,487.107 699.043,487.44 698.5,487.5 Z"/></g>
<g><path style="opacity:1" fill="#16110e" d="M 454.5,464.5 C 455.043,464.56 455.376,464.893 455.5,465.5C 450.469,470.685 444.469,474.352 437.5,476.5C 437.287,478.342 437.287,480.008 437.5,481.5C 437.265,480.903 436.765,480.57 436,480.5C 422.851,485.329 409.351,488.662 395.5,490.5C 384.185,491.294 372.852,491.627 361.5,491.5C 349.071,491.251 337.071,489.251 325.5,485.5C 324.737,484.732 323.737,484.232 322.5,484C 323.5,483.667 324.5,483.333 325.5,483C 317.062,481.44 309.395,478.273 302.5,473.5C 349.993,492.529 397.326,492.029 444.5,472C 448.276,470.053 451.61,467.553 454.5,464.5 Z"/></g>
<g><path style="opacity:1" fill="#e7e4e2" d="M 437.5,481.5 C 417.797,499.516 396.797,515.85 374.5,530.5C 353.419,516.621 333.419,501.287 314.5,484.5C 313.167,483.833 313.167,483.167 314.5,482.5C 318.014,484.117 321.681,485.117 325.5,485.5C 337.071,489.251 349.071,491.251 361.5,491.5C 366.155,492.166 370.988,492.499 376,492.5C 382.746,492.72 389.246,492.054 395.5,490.5C 409.351,488.662 422.851,485.329 436,480.5C 436.765,480.57 437.265,480.903 437.5,481.5 Z"/></g>
<g><path style="opacity:0.012" fill="#160000" d="M 46.5,489.5 C 47.8333,490.167 47.8333,490.167 46.5,489.5 Z"/></g>
<g><path style="opacity:1" fill="#b3afad" d="M 395.5,490.5 C 389.246,492.054 382.746,492.72 376,492.5C 370.988,492.499 366.155,492.166 361.5,491.5C 372.852,491.627 384.185,491.294 395.5,490.5 Z"/></g>
<g><path style="opacity:0.012" fill="#160000" d="M 43.5,493.5 C 44.8333,494.167 44.8333,494.167 43.5,493.5 Z"/></g>
<g><path style="opacity:0.012" fill="#170700" d="M 709.5,500.5 C 709.167,500.5 708.833,500.5 708.5,500.5C 707.833,500.5 707.5,500.167 707.5,499.5C 708.301,497.207 708.968,497.54 709.5,500.5 Z"/></g>
<g><path style="opacity:0.012" fill="#170700" d="M 709.5,500.5 C 710.906,500.973 711.573,501.973 711.5,503.5C 711.167,503.5 710.833,503.5 710.5,503.5C 709.833,503.5 709.5,503.167 709.5,502.5C 709.5,501.833 709.5,501.167 709.5,500.5 Z"/></g>
<g><path style="opacity:0.012" fill="#170700" d="M 711.5,503.5 C 713.382,504.221 713.715,505.221 712.5,506.5C 711.833,506.5 711.5,506.167 711.5,505.5C 711.5,504.833 711.5,504.167 711.5,503.5 Z"/></g>
<g><path style="opacity:0.012" fill="#160000" d="M 35.5,508.5 C 34.8333,507.167 34.8333,507.167 35.5,508.5 Z"/></g>
<g><path style="opacity:0.012" fill="#160000" d="M 33.5,511.5 C 32.8333,510.167 32.8333,510.167 33.5,511.5 Z"/></g>
<g><path style="opacity:0.012" fill="#160000" d="M 32.5,513.5 C 31.8333,512.167 31.8333,512.167 32.5,513.5 Z"/></g>
<g><path style="opacity:0.012" fill="#160000" d="M 30.5,516.5 C 29.8333,515.167 29.8333,515.167 30.5,516.5 Z"/></g>
<g><path style="opacity:0.012" fill="#160000" d="M 29.5,518.5 C 28.8333,517.167 28.8333,517.167 29.5,518.5 Z"/></g>
<g><path style="opacity:0.012" fill="#160000" d="M 28.5,520.5 C 27.8333,519.167 27.8333,519.167 28.5,520.5 Z"/></g>
<g><path style="opacity:0.012" fill="#160000" d="M 25.5,522.5 C 26.8333,523.167 26.8333,523.167 25.5,522.5 Z"/></g>
<g><path style="opacity:0.012" fill="#160000" d="M 25.5,525.5 C 24.8333,524.167 24.8333,524.167 25.5,525.5 Z"/></g>
<g><path style="opacity:0.012" fill="#160000" d="M 24.5,527.5 C 23.8333,526.167 23.8333,526.167 24.5,527.5 Z"/></g>
<g><path style="opacity:0.012" fill="#160000" d="M 23.5,529.5 C 22.8333,528.167 22.8333,528.167 23.5,529.5 Z"/></g>
<g><path style="opacity:0.012" fill="#160000" d="M 22.5,531.5 C 21.8333,530.167 21.8333,530.167 22.5,531.5 Z"/></g>
<g><path style="opacity:0.012" fill="#160000" d="M 21.5,533.5 C 20.8333,532.167 20.8333,532.167 21.5,533.5 Z"/></g>
<g><path style="opacity:0.012" fill="#160000" d="M 20.5,535.5 C 19.8333,534.167 19.8333,534.167 20.5,535.5 Z"/></g>
<g><path style="opacity:0.012" fill="#160000" d="M 19.5,537.5 C 18.8333,536.167 18.8333,536.167 19.5,537.5 Z"/></g>
<g><path style="opacity:0.012" fill="#160000" d="M 18.5,539.5 C 17.8333,538.167 17.8333,538.167 18.5,539.5 Z"/></g>
<g><path style="opacity:0.012" fill="#160000" d="M 16.5,540.5 C 17.8333,541.167 17.8333,541.167 16.5,540.5 Z"/></g>
<g><path style="opacity:0.012" fill="#170700" d="M 734.5,548.5 C 734.672,547.508 734.338,546.842 733.5,546.5C 733.234,544.653 733.568,543.986 734.5,544.5C 735.705,545.995 735.705,547.328 734.5,548.5 Z"/></g>
<g><path style="opacity:0.012" fill="#160000" d="M 14.5,548.5 C 13.8333,547.167 13.8333,547.167 14.5,548.5 Z"/></g>
<g><path style="opacity:0.012" fill="#160000" d="M 12.5,549.5 C 13.8333,550.167 13.8333,550.167 12.5,549.5 Z"/></g>
<g><path style="opacity:0.012" fill="#160000" d="M 12.5,553.5 C 11.475,553.103 11.3083,552.437 12,551.5C 12.4643,552.094 12.631,552.761 12.5,553.5 Z"/></g>
<g><path style="opacity:0.012" fill="#160000" d="M 11.5,555.5 C 10.8333,554.167 10.8333,554.167 11.5,555.5 Z"/></g>
<g><path style="opacity:0.012" fill="#160000" d="M 8.5,563.5 C 7.47498,563.103 7.30831,562.437 8,561.5C 8.46434,562.094 8.63101,562.761 8.5,563.5 Z"/></g>
<g><path style="opacity:0.012" fill="#160000" d="M 6.5,564.5 C 7.83333,565.167 7.83333,565.167 6.5,564.5 Z"/></g>
<g><path style="opacity:0.012" fill="#160000" d="M 6.5,568.5 C 5.47498,568.103 5.30831,567.437 6,566.5C 6.46434,567.094 6.63101,567.761 6.5,568.5 Z"/></g>
<g><path style="opacity:0.012" fill="#160000" d="M 5.5,571.5 C 4.47498,571.103 4.30831,570.437 5,569.5C 5.46434,570.094 5.63101,570.761 5.5,571.5 Z"/></g>
<g><path style="opacity:0.012" fill="#180900" d="M 743.5,571.5 C 743.793,567.779 744.459,567.945 745.5,572C 745.333,572.5 745.167,573 745,573.5C 744.722,572.584 744.222,571.918 743.5,571.5 Z"/></g>
<g><path style="opacity:0.012" fill="#160000" d="M 4.5,574.5 C 3.47498,574.103 3.30831,573.437 4,572.5C 4.46434,573.094 4.63101,573.761 4.5,574.5 Z"/></g>
<g><path style="opacity:0.012" fill="#160000" d="M 3.5,577.5 C 2.47498,577.103 2.30831,576.437 3,575.5C 3.46434,576.094 3.63101,576.761 3.5,577.5 Z"/></g>
<g><path style="opacity:0.012" fill="#160000" d="M 2.5,580.5 C 1.47498,580.103 1.30831,579.437 2,578.5C 2.46434,579.094 2.63101,579.761 2.5,580.5 Z"/></g>
<g><path style="opacity:0.012" fill="#160000" d="M 0.5,581.5 C 1.52502,581.897 1.69169,582.563 1,583.5C 0.535656,582.906 0.368989,582.239 0.5,581.5 Z"/></g>
<g><path style="opacity:0.031" fill="#181100" d="M 749.5,583.5 C 749.5,584.5 749.5,585.5 749.5,586.5C 748.167,585.5 748.167,584.5 749.5,583.5 Z"/></g>
<g><path style="opacity:0.012" fill="#160000" d="M -0.5,584.5 C 0.403972,585.209 0.737305,586.209 0.5,587.5C 0.166667,587.5 -0.166667,587.5 -0.5,587.5C -0.5,586.5 -0.5,585.5 -0.5,584.5 Z"/></g>
</svg>
