<?xml version="1.0" encoding="UTF-8"?>
<!DOCTYPE svg PUBLIC "-//W3C//DTD SVG 1.1//EN" "http://www.w3.org/Graphics/SVG/1.1/DTD/svg11.dtd">
<svg xmlns="http://www.w3.org/2000/svg" version="1.1" width="750px" height="528px" style="shape-rendering:geometricPrecision; text-rendering:geometricPrecision; image-rendering:optimizeQuality; fill-rule:evenodd; clip-rule:evenodd" xmlns:xlink="http://www.w3.org/1999/xlink">
<g><path style="opacity:0.004" fill="#090000" d="M 343.5,-0.5 C 344.5,-0.5 345.5,-0.5 346.5,-0.5C 345.5,0.833333 344.5,0.833333 343.5,-0.5 Z"/></g>
<g><path style="opacity:0.004" fill="#090000" d="M 387.5,-0.5 C 388.5,-0.5 389.5,-0.5 390.5,-0.5C 389.5,0.833333 388.5,0.833333 387.5,-0.5 Z"/></g>
<g><path style="opacity:0.004" fill="#090000" d="M 339.5,1.5 C 340.251,0.426544 341.251,0.259877 342.5,1C 341.552,1.48278 340.552,1.64945 339.5,1.5 Z"/></g>
<g><path style="opacity:0.004" fill="#090000" d="M 394.5,1.5 C 393.448,1.64945 392.448,1.48278 391.5,1C 392.749,0.259877 393.749,0.426544 394.5,1.5 Z"/></g>
<g><path style="opacity:0.004" fill="#090000" d="M 336.5,2.5 C 337.209,1.59603 338.209,1.26269 339.5,1.5C 338.791,2.40397 337.791,2.73731 336.5,2.5 Z"/></g>
<g><path style="opacity:0.004" fill="#090000" d="M 394.5,1.5 C 395.552,1.35055 396.552,1.51722 397.5,2C 396.251,2.74012 395.251,2.57346 394.5,1.5 Z"/></g>
<g><path style="opacity:0.004" fill="#090000" d="M 333.5,3.5 C 334.209,2.59603 335.209,2.26269 336.5,2.5C 335.791,3.40397 334.791,3.73731 333.5,3.5 Z"/></g>
<g><path style="opacity:0.004" fill="#090000" d="M 398.5,3.5 C 398.897,2.47498 399.563,2.30831 400.5,3C 399.906,3.46434 399.239,3.63101 398.5,3.5 Z"/></g>
<g><path style="opacity:0.004" fill="#090000" d="M 333.5,3.5 C 333.103,4.52502 332.437,4.69169 331.5,4C 332.094,3.53566 332.761,3.36899 333.5,3.5 Z"/></g>
<g><path style="opacity:0.004" fill="#090000" d="M 403.5,4.5 C 402.761,4.63101 402.094,4.46434 401.5,4C 402.437,3.30831 403.103,3.47498 403.5,4.5 Z"/></g>
<g><path style="opacity:0.004" fill="#090000" d="M 328.5,5.5 C 328.897,4.47498 329.563,4.30831 330.5,5C 329.906,5.46434 329.239,5.63101 328.5,5.5 Z"/></g>
<g><path style="opacity:0.004" fill="#090000" d="M 403.5,4.5 C 404.791,4.26269 405.791,4.59603 406.5,5.5C 405.209,5.73731 404.209,5.40397 403.5,4.5 Z"/></g>
<g><path style="opacity:0.004" fill="#090000" d="M 326.5,6.5 C 326.842,5.66175 327.508,5.32842 328.5,5.5C 328.158,6.33825 327.492,6.67158 326.5,6.5 Z"/></g>
<g><path style="opacity:0.004" fill="#090000" d="M 406.5,5.5 C 407.492,5.32842 408.158,5.66175 408.5,6.5C 407.508,6.67158 406.842,6.33825 406.5,5.5 Z"/></g>
<g><path style="opacity:0.004" fill="#090000" d="M 323.5,7.5 C 324.209,6.59603 325.209,6.26269 326.5,6.5C 325.791,7.40397 324.791,7.73731 323.5,7.5 Z"/></g>
<g><path style="opacity:0.004" fill="#090000" d="M 408.5,6.5 C 409.791,6.26269 410.791,6.59603 411.5,7.5C 410.209,7.73731 409.209,7.40397 408.5,6.5 Z"/></g>
<g><path style="opacity:0.004" fill="#090000" d="M 321.5,8.5 C 321.842,7.66175 322.508,7.32842 323.5,7.5C 323.158,8.33825 322.492,8.67158 321.5,8.5 Z"/></g>
<g><path style="opacity:0.004" fill="#090000" d="M 411.5,7.5 C 412.492,7.32842 413.158,7.66175 413.5,8.5C 412.508,8.67158 411.842,8.33825 411.5,7.5 Z"/></g>
<g><path style="opacity:0.004" fill="#090000" d="M 319.5,9.5 C 319.842,8.66175 320.508,8.32842 321.5,8.5C 321.158,9.33825 320.492,9.67158 319.5,9.5 Z"/></g>
<g><path style="opacity:0.004" fill="#090000" d="M 413.5,8.5 C 414.492,8.32842 415.158,8.66175 415.5,9.5C 414.508,9.67158 413.842,9.33825 413.5,8.5 Z"/></g>
<g><path style="opacity:0.004" fill="#090000" d="M 317.5,10.5 C 317.842,9.66175 318.508,9.32842 319.5,9.5C 319.158,10.3382 318.492,10.6716 317.5,10.5 Z"/></g>
<g><path style="opacity:0.004" fill="#090000" d="M 415.5,9.5 C 416.492,9.32842 417.158,9.66175 417.5,10.5C 416.508,10.6716 415.842,10.3382 415.5,9.5 Z"/></g>
<g><path style="opacity:0.004" fill="#090000" d="M 317.5,10.5 C 317.027,11.9063 316.027,12.573 314.5,12.5C 314.973,11.0937 315.973,10.427 317.5,10.5 Z"/></g>
<g><path style="opacity:0.004" fill="#090000" d="M 417.5,10.5 C 418.492,10.3284 419.158,10.6618 419.5,11.5C 418.508,11.6716 417.842,11.3382 417.5,10.5 Z"/></g>
<g><path style="opacity:0.004" fill="#090000" d="M 419.5,11.5 C 420.492,11.3284 421.158,11.6618 421.5,12.5C 420.508,12.6716 419.842,12.3382 419.5,11.5 Z"/></g>
<g><path style="opacity:0.004" fill="#090000" d="M 312.5,13.5 C 312.842,12.6618 313.508,12.3284 314.5,12.5C 314.158,13.3382 313.492,13.6716 312.5,13.5 Z"/></g>
<g><path style="opacity:0.004" fill="#090000" d="M 421.5,12.5 C 422.492,12.3284 423.158,12.6618 423.5,13.5C 422.508,13.6716 421.842,13.3382 421.5,12.5 Z"/></g>
<g><path style="opacity:0.004" fill="#090000" d="M 310.5,14.5 C 310.842,13.6618 311.508,13.3284 312.5,13.5C 312.158,14.3382 311.492,14.6716 310.5,14.5 Z"/></g>
<g><path style="opacity:0.004" fill="#090000" d="M 423.5,13.5 C 424.492,13.3284 425.158,13.6618 425.5,14.5C 424.508,14.6716 423.842,14.3382 423.5,13.5 Z"/></g>
<g><path style="opacity:0.004" fill="#090000" d="M 310.5,14.5 C 310.167,15.1667 309.833,15.8333 309.5,16.5C 308.833,16.5 308.167,16.5 307.5,16.5C 307.973,15.0937 308.973,14.427 310.5,14.5 Z"/></g>
<g><path style="opacity:0.004" fill="#090000" d="M 425.5,14.5 C 426.492,14.3284 427.158,14.6618 427.5,15.5C 426.508,15.6716 425.842,15.3382 425.5,14.5 Z"/></g>
<g><path style="opacity:0.004" fill="#090000" d="M 427.5,15.5 C 428.492,15.3284 429.158,15.6618 429.5,16.5C 428.508,16.6716 427.842,16.3382 427.5,15.5 Z"/></g>
<g><path style="opacity:0.004" fill="#090000" d="M 307.5,16.5 C 307.167,17.1667 306.833,17.8333 306.5,18.5C 305.833,18.5 305.167,18.5 304.5,18.5C 304.973,17.0937 305.973,16.427 307.5,16.5 Z"/></g>
<g><path style="opacity:0.004" fill="#090000" d="M 429.5,16.5 C 430.492,16.3284 431.158,16.6618 431.5,17.5C 430.508,17.6716 429.842,17.3382 429.5,16.5 Z"/></g>
<g><path style="opacity:0.004" fill="#090000" d="M 431.5,17.5 C 432.167,17.5 432.5,17.8333 432.5,18.5C 432.167,18.1667 431.833,17.8333 431.5,17.5 Z"/></g>
<g><path style="opacity:0.004" fill="#090000" d="M 304.5,18.5 C 304.167,19.1667 303.833,19.8333 303.5,20.5C 301.207,19.6987 301.54,19.032 304.5,18.5 Z"/></g>
<g><path style="opacity:0.004" fill="#090000" d="M 432.5,18.5 C 433.492,18.3284 434.158,18.6618 434.5,19.5C 433.508,19.6716 432.842,19.3382 432.5,18.5 Z"/></g>
<g><path style="opacity:0.004" fill="#090000" d="M 434.5,19.5 C 437.46,20.032 437.793,20.6987 435.5,21.5C 435.167,20.8333 434.833,20.1667 434.5,19.5 Z"/></g>
<g><path style="opacity:0.004" fill="#090000" d="M 299.5,23.5 C 297.025,23.2533 297.025,22.5866 299.5,21.5C 300.463,21.9698 300.463,22.6365 299.5,23.5 Z"/></g>
<g><path style="opacity:0.004" fill="#0e0100" d="M 295.5,26.5 C 294.833,26.5 294.5,26.8333 294.5,27.5C 293.833,27.5 293.5,27.8333 293.5,28.5C 291.408,27.7145 291.741,26.7145 294.5,25.5C 295.107,25.6236 295.44,25.9569 295.5,26.5 Z"/></g>
<g><path style="opacity:0.004" fill="#090000" d="M 446.5,28.5 C 445.632,26.1081 446.299,25.9414 448.5,28C 447.906,28.4643 447.239,28.631 446.5,28.5 Z"/></g>
<g><path style="opacity:1" fill="#a65d40" d="M 404.5,30.5 C 405.866,36.2898 407.699,41.9564 410,47.5C 411.997,58.0669 410.164,67.7335 404.5,76.5C 399.304,77.3053 394.304,78.6387 389.5,80.5C 388.038,79.5291 386.705,79.8624 385.5,81.5C 384.914,81.2907 384.414,80.9574 384,80.5C 383.51,81.7932 383.343,83.1266 383.5,84.5C 383.631,85.2389 383.464,85.9056 383,86.5C 380.648,88.0303 378.481,89.6969 376.5,91.5C 373.551,92.6141 371.385,94.6141 370,97.5C 369.177,103.629 369.677,109.629 371.5,115.5C 376.998,119.058 382.664,123.224 388.5,128C 407.546,137.114 426.213,136.447 444.5,126C 446.441,125.257 448.274,125.424 450,126.5C 454.982,137.362 454.649,148.029 449,158.5C 444.957,162.877 440.124,166.044 434.5,168C 422.909,178.275 417.909,191.109 419.5,206.5C 416.745,202.566 413.745,198.733 410.5,195C 404.412,192.192 398.412,189.192 392.5,186C 385.359,184.947 378.192,184.114 371,183.5C 368.065,183.334 365.398,184.001 363,185.5C 360.551,184.359 358.051,183.359 355.5,182.5C 341.286,185.729 328.452,191.729 317,200.5C 311.926,209.287 309.093,218.787 308.5,229C 309.549,236.814 309.716,244.647 309,252.5C 308.275,254.158 307.108,254.658 305.5,254C 303.136,252.158 300.803,250.325 298.5,248.5C 293.167,243.833 288.167,238.833 283.5,233.5C 279.917,227.403 276.917,221.07 274.5,214.5C 273.112,205.84 271.612,197.174 270,188.5C 268.15,165.509 268.15,142.509 270,119.5C 270.526,110.314 272.026,101.314 274.5,92.5C 275.793,91.158 276.626,89.4913 277,87.5C 278.352,74.4165 282.018,62.0832 288,50.5C 290.205,47.9598 292.705,45.7932 295.5,44C 313.363,35.7126 332.03,30.0459 351.5,27C 369.389,25.7242 387.056,26.8908 404.5,30.5 Z"/></g>
<g><path style="opacity:0.004" fill="#090000" d="M 286.5,33.5 C 285.833,33.5 285.5,33.8333 285.5,34.5C 283.408,33.7145 283.741,32.7145 286.5,31.5C 287.463,31.9698 287.463,32.6365 286.5,33.5 Z"/></g>
<g><path style="opacity:0.024" fill="#190800" d="M 280.5,38.5 C 279.833,38.5 279.5,38.8333 279.5,39.5C 278.833,39.5 278.5,39.8333 278.5,40.5C 277.833,40.5 277.5,40.8333 277.5,41.5C 276.833,41.5 276.5,41.8333 276.5,42.5C 275.833,42.5 275.5,42.8333 275.5,43.5C 274.833,43.5 274.5,43.8333 274.5,44.5C 273.475,44.1034 273.308,43.4368 274,42.5C 275.5,41 277,39.5 278.5,38C 279.437,37.3083 280.103,37.475 280.5,38.5 Z"/></g>
<g><path style="opacity:0.004" fill="#090000" d="M 458.5,40.5 C 458.747,38.0248 459.413,38.0248 460.5,40.5C 460.03,41.463 459.363,41.463 458.5,40.5 Z"/></g>
<g><path style="opacity:0.004" fill="#090000" d="M 463.5,45.5 C 462.833,45.1667 462.167,44.8333 461.5,44.5C 462.301,42.2071 462.968,42.5404 463.5,45.5 Z"/></g>
<g><path style="opacity:0.004" fill="#090000" d="M 463.5,45.5 C 464.338,45.8417 464.672,46.5084 464.5,47.5C 463.662,47.1583 463.328,46.4916 463.5,45.5 Z"/></g>
<g><path style="opacity:0.004" fill="#090000" d="M 464.5,47.5 C 465.167,47.5 465.5,47.8333 465.5,48.5C 465.167,48.1667 464.833,47.8333 464.5,47.5 Z"/></g>
<g><path style="opacity:0.004" fill="#090000" d="M 465.5,48.5 C 466.338,48.8417 466.672,49.5084 466.5,50.5C 465.662,50.1583 465.328,49.4916 465.5,48.5 Z"/></g>
<g><path style="opacity:0.024" fill="#170700" d="M 269.5,50.5 C 268.833,50.5 268.5,50.8333 268.5,51.5C 267.287,50.5029 267.454,49.5029 269,48.5C 269.464,49.0944 269.631,49.7611 269.5,50.5 Z"/></g>
<g><path style="opacity:0.004" fill="#090000" d="M 466.5,50.5 C 467.338,50.8417 467.672,51.5084 467.5,52.5C 466.662,52.1583 466.328,51.4916 466.5,50.5 Z"/></g>
<g><path style="opacity:0.004" fill="#090000" d="M 467.5,52.5 C 468.338,52.8417 468.672,53.5084 468.5,54.5C 467.662,54.1583 467.328,53.4916 467.5,52.5 Z"/></g>
<g><path style="opacity:0.004" fill="#090000" d="M 468.5,54.5 C 470.104,55.287 470.771,56.6203 470.5,58.5C 469.326,57.4863 468.66,56.153 468.5,54.5 Z"/></g>
<g><path style="opacity:0.004" fill="#090000" d="M 470.5,58.5 C 471.338,58.8417 471.672,59.5084 471.5,60.5C 470.662,60.1583 470.328,59.4916 470.5,58.5 Z"/></g>
<g><path style="opacity:0.004" fill="#090000" d="M 471.5,60.5 C 472.338,60.8417 472.672,61.5084 472.5,62.5C 471.662,62.1583 471.328,61.4916 471.5,60.5 Z"/></g>
<g><path style="opacity:0.004" fill="#090000" d="M 472.5,62.5 C 473.404,63.209 473.737,64.209 473.5,65.5C 472.596,64.791 472.263,63.791 472.5,62.5 Z"/></g>
<g><path style="opacity:0.004" fill="#090000" d="M 473.5,65.5 C 474.338,65.8417 474.672,66.5084 474.5,67.5C 473.662,67.1583 473.328,66.4916 473.5,65.5 Z"/></g>
<g><path style="opacity:0.004" fill="#090000" d="M 474.5,67.5 C 475.404,68.209 475.737,69.209 475.5,70.5C 474.596,69.791 474.263,68.791 474.5,67.5 Z"/></g>
<g><path style="opacity:0.004" fill="#150600" d="M 257.5,71.5 C 256.833,72.1667 256.167,72.8333 255.5,73.5C 255.491,71.6916 255.991,70.0249 257,68.5C 257.483,69.448 257.649,70.448 257.5,71.5 Z"/></g>
<g><path style="opacity:0.004" fill="#090000" d="M 475.5,70.5 C 476.404,71.209 476.737,72.209 476.5,73.5C 475.596,72.791 475.263,71.791 475.5,70.5 Z"/></g>
<g><path style="opacity:0.004" fill="#090000" d="M 476.5,73.5 C 477.404,74.209 477.737,75.209 477.5,76.5C 476.596,75.791 476.263,74.791 476.5,73.5 Z"/></g>
<g><path style="opacity:0.004" fill="#150500" d="M 255.5,73.5 C 255.5,74.8333 255.5,76.1667 255.5,77.5C 254.732,78.2625 254.232,79.2625 254,80.5C 253.412,77.8606 253.912,75.5273 255.5,73.5 Z"/></g>
<g><path style="opacity:0.004" fill="#090000" d="M 477.5,76.5 C 478.434,77.5676 478.768,78.901 478.5,80.5C 477.566,79.4324 477.232,78.099 477.5,76.5 Z"/></g>
<g><path style="opacity:0.004" fill="#090000" d="M 478.5,80.5 C 479.434,81.5676 479.768,82.901 479.5,84.5C 478.566,83.4324 478.232,82.099 478.5,80.5 Z"/></g>
<g><path style="opacity:0.004" fill="#090000" d="M 479.5,84.5 C 480.461,86.2646 480.795,88.2646 480.5,90.5C 479.539,88.7354 479.205,86.7354 479.5,84.5 Z"/></g>
<g><path style="opacity:0.004" fill="#090000" d="M 480.5,90.5 C 481.833,99.1667 481.833,107.833 480.5,116.5C 480.5,107.833 480.5,99.1667 480.5,90.5 Z"/></g>
<g><path style="opacity:0.024" fill="#1b0900" d="M 251.5,126.5 C 248.908,112.967 249.075,99.3003 252,85.5C 251.63,93.645 251.13,101.812 250.5,110C 250.746,115.511 251.079,121.011 251.5,126.5 Z"/></g>
<g><path style="opacity:0.024" fill="#140500" d="M 480.5,116.5 C 480.5,117.833 480.5,119.167 480.5,120.5C 479.761,120.631 479.094,120.464 478.5,120C 479.085,118.698 479.751,117.531 480.5,116.5 Z"/></g>
<g><path style="opacity:0.004" fill="#120400" d="M 480.5,120.5 C 481.492,120.328 482.158,120.662 482.5,121.5C 481.508,121.672 480.842,121.338 480.5,120.5 Z"/></g>
<g><path style="opacity:0.004" fill="#090000" d="M 482.5,121.5 C 483.167,121.5 483.5,121.833 483.5,122.5C 483.167,122.167 482.833,121.833 482.5,121.5 Z"/></g>
<g><path style="opacity:0.004" fill="#090000" d="M 483.5,122.5 C 484.167,122.5 484.5,122.833 484.5,123.5C 484.167,123.167 483.833,122.833 483.5,122.5 Z"/></g>
<g><path style="opacity:0.004" fill="#090000" d="M 484.5,123.5 C 485.167,123.5 485.5,123.833 485.5,124.5C 485.167,124.167 484.833,123.833 484.5,123.5 Z"/></g>
<g><path style="opacity:0.004" fill="#090000" d="M 485.5,124.5 C 486.167,124.5 486.5,124.833 486.5,125.5C 486.167,125.167 485.833,124.833 485.5,124.5 Z"/></g>
<g><path style="opacity:0.004" fill="#090000" d="M 486.5,125.5 C 487.338,125.842 487.672,126.508 487.5,127.5C 486.662,127.158 486.328,126.492 486.5,125.5 Z"/></g>
<g><path style="opacity:0.004" fill="#090000" d="M 487.5,127.5 C 488.434,128.568 488.768,129.901 488.5,131.5C 487.566,130.432 487.232,129.099 487.5,127.5 Z"/></g>
<g><path style="opacity:0.004" fill="#140500" d="M 251.5,126.5 C 252.234,127.878 252.901,129.378 253.5,131C 253,131.5 252.5,132 252,132.5C 251.505,130.527 251.338,128.527 251.5,126.5 Z"/></g>
<g><path style="opacity:0.004" fill="#090000" d="M 488.5,131.5 C 489.525,131.897 489.692,132.563 489,133.5C 488.536,132.906 488.369,132.239 488.5,131.5 Z"/></g>
<g><path style="opacity:0.004" fill="#090000" d="M 487.5,134.5 C 488.651,139.65 488.817,144.984 488,150.5C 487.501,145.177 487.334,139.844 487.5,134.5 Z"/></g>
<g><path style="opacity:0.004" fill="#090000" d="M 486.5,151.5 C 487.638,154.304 487.805,157.304 487,160.5C 486.502,157.518 486.335,154.518 486.5,151.5 Z"/></g>
<g><path style="opacity:0.004" fill="#090000" d="M 485.5,166.5 C 485.34,164.801 485.506,163.134 486,161.5C 486.78,163.387 486.613,165.054 485.5,166.5 Z"/></g>
<g><path style="opacity:0.004" fill="#090000" d="M 485.5,166.5 C 485.806,169.385 485.473,172.052 484.5,174.5C 484.194,171.615 484.527,168.948 485.5,166.5 Z"/></g>
<g><path style="opacity:0.004" fill="#090000" d="M 484.5,174.5 C 484.784,176.415 484.451,178.081 483.5,179.5C 483.216,177.585 483.549,175.919 484.5,174.5 Z"/></g>
<g><path style="opacity:0.004" fill="#090000" d="M 483.5,179.5 C 483.815,183.371 483.482,187.038 482.5,190.5C 482.185,186.629 482.518,182.962 483.5,179.5 Z"/></g>
<g><path style="opacity:1" fill="#1c0c01" d="M 354.5,-0.5 C 362.5,-0.5 370.5,-0.5 378.5,-0.5C 398.623,3.72023 417.623,11.0536 435.5,21.5C 438.65,24.5792 442.317,26.9125 446.5,28.5C 450.833,32.1667 454.833,36.1667 458.5,40.5C 458.738,42.4044 459.738,43.7377 461.5,44.5C 472.224,62.5066 478.224,82.0066 479.5,103C 479.325,108.732 478.658,114.399 477.5,120C 481.391,122.224 484.224,125.391 486,129.5C 485.96,151.818 483.46,173.818 478.5,195.5C 477.833,195.5 477.5,195.833 477.5,196.5C 476.508,196.328 475.842,196.662 475.5,197.5C 472.07,197.893 468.904,197.227 466,195.5C 464.871,204.979 463.038,214.312 460.5,223.5C 461.825,242.222 463.159,260.722 464.5,279C 465.244,280.039 466.244,280.539 467.5,280.5C 470.24,282.56 473.24,284.226 476.5,285.5C 478.336,287.588 480.669,288.921 483.5,289.5C 484.899,290.89 486.566,291.89 488.5,292.5C 489.899,293.89 491.566,294.89 493.5,295.5C 493.842,296.338 494.508,296.672 495.5,296.5C 495.5,297.167 495.833,297.5 496.5,297.5C 499.894,300.221 503.561,302.554 507.5,304.5C 507.5,305.167 507.833,305.5 508.5,305.5C 508.842,306.338 509.508,306.672 510.5,306.5C 510.5,307.167 510.833,307.5 511.5,307.5C 511.973,308.906 512.973,309.573 514.5,309.5C 514.5,310.167 514.833,310.5 515.5,310.5C 515.5,311.167 515.833,311.5 516.5,311.5C 519.7,315.366 523.7,318.033 528.5,319.5C 528.842,320.338 529.508,320.672 530.5,320.5C 532.426,322.293 534.759,323.293 537.5,323.5C 537.842,324.338 538.508,324.672 539.5,324.5C 539.842,325.338 540.508,325.672 541.5,325.5C 543.509,327.065 545.843,328.065 548.5,328.5C 548.842,329.338 549.508,329.672 550.5,329.5C 550.842,330.338 551.508,330.672 552.5,330.5C 554.509,332.065 556.843,333.065 559.5,333.5C 559.842,334.338 560.508,334.672 561.5,334.5C 561.842,335.338 562.508,335.672 563.5,335.5C 565.509,337.065 567.843,338.065 570.5,338.5C 570.842,339.338 571.508,339.672 572.5,339.5C 572.842,340.338 573.508,340.672 574.5,340.5C 576.509,342.065 578.843,343.065 581.5,343.5C 581.842,344.338 582.508,344.672 583.5,344.5C 583.842,345.338 584.508,345.672 585.5,345.5C 587.509,347.065 589.843,348.065 592.5,348.5C 592.842,349.338 593.508,349.672 594.5,349.5C 594.842,350.338 595.508,350.672 596.5,350.5C 599.256,352.204 602.256,353.537 605.5,354.5C 605.842,355.338 606.508,355.672 607.5,355.5C 607.842,356.338 608.508,356.672 609.5,356.5C 609.842,357.338 610.508,357.672 611.5,357.5C 621.461,362.481 631.461,367.481 641.5,372.5C 643.181,374.008 645.181,375.008 647.5,375.5C 647.5,376.167 647.833,376.5 648.5,376.5C 650.205,378.192 652.205,379.525 654.5,380.5C 654.5,381.167 654.833,381.5 655.5,381.5C 657.46,383.156 659.46,384.823 661.5,386.5C 661.5,387.167 661.833,387.5 662.5,387.5C 662.5,388.167 662.833,388.5 663.5,388.5C 666.808,391.471 670.141,394.471 673.5,397.5C 673.5,398.167 673.833,398.5 674.5,398.5C 674.5,399.167 674.833,399.5 675.5,399.5C 675.5,400.167 675.833,400.5 676.5,400.5C 676.5,401.167 676.833,401.5 677.5,401.5C 677.5,402.167 677.833,402.5 678.5,402.5C 678.5,403.167 678.833,403.5 679.5,403.5C 679.5,404.167 679.833,404.5 680.5,404.5C 680.5,405.167 680.833,405.5 681.5,405.5C 681.5,406.167 681.833,406.5 682.5,406.5C 682.5,407.167 682.833,407.5 683.5,407.5C 683.5,408.167 683.833,408.5 684.5,408.5C 684.5,409.167 684.833,409.5 685.5,409.5C 685.5,410.167 685.833,410.5 686.5,410.5C 686.5,411.167 686.833,411.5 687.5,411.5C 687.5,412.167 687.833,412.5 688.5,412.5C 688.5,413.167 688.833,413.5 689.5,413.5C 689.5,414.167 689.833,414.5 690.5,414.5C 693.195,417.526 695.862,420.526 698.5,423.5C 698.5,424.167 698.833,424.5 699.5,424.5C 701.147,427.473 703.147,430.14 705.5,432.5C 705.5,433.167 705.833,433.5 706.5,433.5C 706.66,435.153 707.326,436.486 708.5,437.5C 708.5,438.167 708.833,438.5 709.5,438.5C 709.66,440.153 710.326,441.486 711.5,442.5C 711.5,443.167 711.833,443.5 712.5,443.5C 712.992,445.819 713.992,447.819 715.5,449.5C 715.5,450.167 715.833,450.5 716.5,450.5C 717.326,453.485 718.659,456.151 720.5,458.5C 720.5,459.167 720.833,459.5 721.5,459.5C 722.992,463.818 724.992,467.818 727.5,471.5C 727.328,472.492 727.662,473.158 728.5,473.5C 728.328,474.492 728.662,475.158 729.5,475.5C 729.328,476.492 729.662,477.158 730.5,477.5C 730.328,478.492 730.662,479.158 731.5,479.5C 731.328,480.492 731.662,481.158 732.5,481.5C 732.328,482.492 732.662,483.158 733.5,483.5C 734.264,486.018 735.264,488.351 736.5,490.5C 736.328,491.492 736.662,492.158 737.5,492.5C 737.926,496.427 738.926,500.093 740.5,503.5C 740.41,506.152 741.076,508.485 742.5,510.5C 742.41,513.152 743.076,515.485 744.5,517.5C 744.263,518.791 744.596,519.791 745.5,520.5C 745.232,522.099 745.566,523.432 746.5,524.5C 746.5,525.5 746.5,526.5 746.5,527.5C 744.833,527.5 743.167,527.5 741.5,527.5C 732.116,490.736 716.283,457.069 694,426.5C 679.439,411.271 664.273,396.771 648.5,383C 639.833,378.333 631.167,373.667 622.5,369C 589.704,353.6 556.704,338.767 523.5,324.5C 520.987,349.522 512.821,372.522 499,393.5C 473.04,429.794 441.54,460.294 404.5,485C 395.167,491 385.833,497 376.5,503C 374.833,503.667 373.167,503.667 371.5,503C 326.566,476.744 287.732,443.244 255,402.5C 237.845,379.221 227.012,353.221 222.5,324.5C 184.593,341.453 146.926,358.953 109.5,377C 104.565,379.606 99.8981,382.606 95.5,386C 77.6583,400.842 61.4916,417.342 47,435.5C 35.3773,454.409 25.044,474.075 16,494.5C 12.9814,505.58 9.81469,516.58 6.5,527.5C 4.83333,527.5 3.16667,527.5 1.5,527.5C 1.99255,525.194 2.32588,522.861 2.5,520.5C 6.53994,506.361 11.2066,492.361 16.5,478.5C 17.3382,478.158 17.6716,477.492 17.5,476.5C 18.3382,476.158 18.6716,475.492 18.5,474.5C 19.3382,474.158 19.6716,473.492 19.5,472.5C 22.9266,467.984 25.5932,462.984 27.5,457.5C 31.6368,451.172 35.6368,444.672 39.5,438C 38.5494,437.282 38.3828,436.449 39,435.5C 39.6667,436.833 40.3333,436.833 41,435.5C 42.996,432.014 45.1627,428.681 47.5,425.5C 48.1667,425.5 48.5,425.167 48.5,424.5C 50.8044,421.859 53.1377,419.192 55.5,416.5C 56.1667,416.5 56.5,416.167 56.5,415.5C 57.1667,415.5 57.5,415.167 57.5,414.5C 58.1667,414.5 58.5,414.167 58.5,413.5C 59.1667,413.5 59.5,413.167 59.5,412.5C 64.1667,408.5 68.5,404.167 72.5,399.5C 73.1667,399.5 73.5,399.167 73.5,398.5C 74.1667,398.5 74.5,398.167 74.5,397.5C 75.1667,397.5 75.5,397.167 75.5,396.5C 76.1667,396.5 76.5,396.167 76.5,395.5C 77.1667,395.5 77.5,395.167 77.5,394.5C 78.1667,394.5 78.5,394.167 78.5,393.5C 81.2072,391.157 83.8739,388.823 86.5,386.5C 87.1667,386.5 87.5,386.167 87.5,385.5C 88.1667,385.5 88.5,385.167 88.5,384.5C 90.3885,383.396 92.0552,382.063 93.5,380.5C 94.1667,380.5 94.5,380.167 94.5,379.5C 95.7095,379.068 96.7095,378.401 97.5,377.5C 100.004,376.416 102.337,375.083 104.5,373.5C 115.872,367.814 127.205,362.147 138.5,356.5C 139.492,356.672 140.158,356.338 140.5,355.5C 141.492,355.672 142.158,355.338 142.5,354.5C 143.492,354.672 144.158,354.338 144.5,353.5C 147.744,352.537 150.744,351.204 153.5,349.5C 154.492,349.672 155.158,349.338 155.5,348.5C 156.492,348.672 157.158,348.338 157.5,347.5C 160.157,347.065 162.491,346.065 164.5,344.5C 165.492,344.672 166.158,344.338 166.5,343.5C 169.744,342.537 172.744,341.204 175.5,339.5C 176.492,339.672 177.158,339.338 177.5,338.5C 180.744,337.537 183.744,336.204 186.5,334.5C 187.492,334.672 188.158,334.338 188.5,333.5C 191.912,332.925 194.912,331.592 197.5,329.5C 198.492,329.672 199.158,329.338 199.5,328.5C 202.912,327.925 205.912,326.592 208.5,324.5C 209.492,324.672 210.158,324.338 210.5,323.5C 213.912,322.925 216.912,321.592 219.5,319.5C 220.492,319.672 221.158,319.338 221.5,318.5C 224.117,317.214 226.45,315.547 228.5,313.5C 229.167,313.5 229.5,313.167 229.5,312.5C 230.167,312.5 230.5,312.167 230.5,311.5C 232.853,310.66 234.853,309.326 236.5,307.5C 237.167,307.5 237.5,307.167 237.5,306.5C 238.492,306.672 239.158,306.338 239.5,305.5C 240.167,305.5 240.5,305.167 240.5,304.5C 241.492,304.672 242.158,304.338 242.5,303.5C 243.167,303.5 243.5,303.167 243.5,302.5C 244.492,302.672 245.158,302.338 245.5,301.5C 247.434,300.89 249.101,299.89 250.5,298.5C 251.167,298.5 251.5,298.167 251.5,297.5C 252.492,297.672 253.158,297.338 253.5,296.5C 255.062,296.267 256.395,295.6 257.5,294.5C 259.844,294.94 261.844,295.94 263.5,297.5C 250.918,304.376 239.084,312.376 228,321.5C 228.026,336.604 231.359,350.937 238,364.5C 246.943,383.434 258.276,400.767 272,416.5C 301.867,449.04 335.867,476.373 374,498.5C 414.071,475.439 449.405,446.439 480,411.5C 499.018,389.464 511.685,364.131 518,335.5C 518.667,330.5 518.667,325.5 518,320.5C 506.814,310.384 494.648,302.384 481.5,296.5C 488.977,304.764 492.144,314.431 491,325.5C 488.144,338.403 483.144,350.403 476,361.5C 450.853,396.816 420.353,426.483 384.5,450.5C 382.354,450.304 382.188,449.304 384,447.5C 388.59,444.121 393.09,440.621 397.5,437C 397.272,436.601 396.938,436.435 396.5,436.5C 411.399,424.444 425.899,411.777 440,398.5C 440.692,397.563 440.525,396.897 439.5,396.5C 439.971,395.099 440.638,393.766 441.5,392.5C 445.268,390.294 448.602,387.628 451.5,384.5C 468.084,368.681 479.584,349.681 486,327.5C 488.447,316.079 485.447,306.412 477,298.5C 477.455,305.47 477.455,312.47 477,319.5C 476.689,323.09 475.856,326.423 474.5,329.5C 474.543,325.107 474.043,324.774 473,328.5C 472.768,327.263 472.268,326.263 471.5,325.5C 473.212,314.383 472.712,303.383 470,292.5C 469.047,290.545 467.713,288.878 466,287.5C 466.186,291.484 466.186,295.484 466,299.5C 464.171,297.844 462.837,295.844 462,293.5C 458.899,274.288 456.899,254.955 456,235.5C 455.751,234.376 455.251,233.376 454.5,232.5C 446.44,243.062 436.94,252.062 426,259.5C 425.667,262.167 425.333,264.833 425,267.5C 423.989,268.337 422.822,268.67 421.5,268.5C 420.172,273.463 418.672,278.463 417,283.5C 414.745,286.115 412.579,288.781 410.5,291.5C 411.025,292.192 411.692,292.692 412.5,293C 409.119,295.38 406.453,298.38 404.5,302C 398.506,304.207 392.172,306.374 385.5,308.5C 384.833,308.333 384.167,308.167 383.5,308C 384.711,307.107 384.711,306.274 383.5,305.5C 378.811,307.914 373.978,308.914 369,308.5C 368.612,307.572 367.945,306.905 367,306.5C 365.441,307.029 363.941,307.696 362.5,308.5C 361.694,305.638 360.361,305.138 358.5,307C 359.706,308.018 359.373,308.518 357.5,308.5C 355.617,307.976 353.784,307.309 352,306.5C 343.684,307.589 335.517,306.756 327.5,304C 325.604,301.061 323.27,298.561 320.5,296.5C 319.795,294.328 318.795,292.328 317.5,290.5C 316.749,291.376 316.249,292.376 316,293.5C 314.554,288.881 312.554,284.548 310,280.5C 309.747,277.8 309.747,275.133 310,272.5C 309.282,273.451 308.449,273.617 307.5,273C 309.459,270.684 309.459,268.684 307.5,267C 308.26,265.559 308.926,264.059 309.5,262.5C 305.189,259.52 301.189,256.187 297.5,252.5C 300.07,251.516 300.07,250.349 297.5,249C 297.728,248.601 298.062,248.435 298.5,248.5C 300.803,250.325 303.136,252.158 305.5,254C 307.108,254.658 308.275,254.158 309,252.5C 309.716,244.647 309.549,236.814 308.5,229C 309.093,218.787 311.926,209.287 317,200.5C 328.452,191.729 341.286,185.729 355.5,182.5C 358.051,183.359 360.551,184.359 363,185.5C 365.398,184.001 368.065,183.334 371,183.5C 378.192,184.114 385.359,184.947 392.5,186C 398.412,189.192 404.412,192.192 410.5,195C 413.745,198.733 416.745,202.566 419.5,206.5C 420.317,209.479 421.151,212.479 422,215.5C 423.475,228.179 424.975,240.845 426.5,253.5C 435.482,246.351 443.649,238.351 451,229.5C 456.001,219.846 459.001,209.512 460,198.5C 461.624,181.514 462.624,164.514 463,147.5C 462.633,141.796 461.966,136.13 461,130.5C 456.363,112.982 452.363,95.3156 449,77.5C 446.096,62.4331 439.93,48.9331 430.5,37C 422.004,34.1343 413.337,31.9676 404.5,30.5C 387.056,26.8908 369.389,25.7242 351.5,27C 332.03,30.0459 313.363,35.7126 295.5,44C 292.705,45.7932 290.205,47.9598 288,50.5C 282.018,62.0832 278.352,74.4165 277,87.5C 276.626,89.4913 275.793,91.158 274.5,92.5C 272.672,95.135 271.505,98.135 271,101.5C 267.411,131.101 266.744,160.767 269,190.5C 270.153,198.785 271.987,206.785 274.5,214.5C 276.917,221.07 279.917,227.403 283.5,233.5C 282.874,234.529 282.041,235.529 281,236.5C 280.578,234.574 279.411,233.574 277.5,233.5C 276.488,232.128 275.488,230.795 274.5,229.5C 274.672,228.508 274.338,227.842 273.5,227.5C 273.672,226.508 273.338,225.842 272.5,225.5C 270.904,219.875 269.404,214.208 268,208.5C 267.956,211.475 268.123,214.475 268.5,217.5C 267.961,214.915 266.628,212.748 264.5,211C 265.167,210.667 265.833,210.333 266.5,210C 265.437,208.812 264.103,208.312 262.5,208.5C 262.5,207.833 262.167,207.5 261.5,207.5C 260.136,205.809 258.803,204.142 257.5,202.5C 256.785,185.994 254.618,169.66 251,153.5C 251.775,164.554 253.275,175.554 255.5,186.5C 254.603,191.142 254.603,195.808 255.5,200.5C 253.049,180.803 250.382,160.803 247.5,140.5C 247.667,139.167 247.833,137.833 248,136.5C 248.517,142.009 249.517,147.343 251,152.5C 251.162,148.294 250.662,144.127 249.5,140C 250.318,136.518 251.985,133.518 254.5,131C 252.887,124.263 251.887,117.43 251.5,110.5C 252.274,99.4202 253.607,88.4202 255.5,77.5C 256.738,75.7857 257.405,73.7857 257.5,71.5C 261.125,64.8582 264.792,58.1915 268.5,51.5C 269.167,51.5 269.5,51.1667 269.5,50.5C 271.89,49.1092 273.557,47.1092 274.5,44.5C 275.167,44.5 275.5,44.1667 275.5,43.5C 276.167,43.5 276.5,43.1667 276.5,42.5C 277.167,42.5 277.5,42.1667 277.5,41.5C 278.167,41.5 278.5,41.1667 278.5,40.5C 279.167,40.5 279.5,40.1667 279.5,39.5C 280.167,39.5 280.5,39.1667 280.5,38.5C 282.754,37.8763 284.421,36.543 285.5,34.5C 286.167,34.5 286.5,34.1667 286.5,33.5C 289.117,32.2141 291.45,30.5475 293.5,28.5C 294.167,28.5 294.5,28.1667 294.5,27.5C 295.167,27.5 295.5,27.1667 295.5,26.5C 297.404,26.2624 298.738,25.2624 299.5,23.5C 301.404,23.2624 302.738,22.2624 303.5,20.5C 305.027,20.573 306.027,19.9063 306.5,18.5C 308.027,18.573 309.027,17.9063 309.5,16.5C 323.821,8.83099 338.821,3.16432 354.5,-0.5 Z"/></g>
<g><path style="opacity:1" fill="#a0593d" d="M 476.5,174.5 C 476.114,180.261 475.281,185.927 474,191.5C 471.279,192.661 468.946,191.994 467,189.5C 466.199,181.088 466.366,172.755 467.5,164.5C 468.117,164.389 468.617,164.056 469,163.5C 470.07,168.358 472.57,172.025 476.5,174.5 Z"/></g>
<g><path style="opacity:1" fill="#8d4c33" d="M 379.5,143.5 C 378.475,143.897 378.308,144.563 379,145.5C 383.701,149.866 388.034,154.533 392,159.5C 393.805,167.698 390.638,172.865 382.5,175C 384.797,175.018 387.131,174.851 389.5,174.5C 388.223,175.898 386.557,176.564 384.5,176.5C 379.072,173.191 374.405,174.025 370.5,179C 365.582,180.124 361.082,179.291 357,176.5C 351.201,179.917 345.367,180.25 339.5,177.5C 341.857,177.663 344.19,177.497 346.5,177C 338.807,175.651 335.307,171.151 336,163.5C 338.179,159.816 339.345,156.15 339.5,152.5C 339.811,151.522 340.478,150.855 341.5,150.5C 342.551,151.885 343.884,152.885 345.5,153.5C 346.041,156.734 347.374,159.567 349.5,162C 356.15,162.999 362.817,163.333 369.5,163C 372.034,162.484 374.2,161.317 376,159.5C 374.485,154.05 373.818,148.383 374,142.5C 376.265,139.868 378.099,140.201 379.5,143.5 Z"/></g>
<g><path style="opacity:1" fill="#1a0b02" d="M 378.5,162.5 C 380.989,162.298 383.323,162.798 385.5,164C 378.298,164.66 372.298,167.827 367.5,173.5C 365.235,174.647 362.902,174.814 360.5,174C 357.5,171.667 354.5,169.333 351.5,167C 348.833,166.667 346.167,166.333 343.5,166C 349.899,163.882 355.565,165.215 360.5,170C 365.612,171.114 369.612,169.447 372.5,165C 374.611,164.155 376.611,163.322 378.5,162.5 Z"/></g>
<g><path style="opacity:1" fill="#160901" d="M 339.5,152.5 C 339.345,156.15 338.179,159.816 336,163.5C 335.307,171.151 338.807,175.651 346.5,177C 344.19,177.497 341.857,177.663 339.5,177.5C 332.585,172.566 331.085,166.233 335,158.5C 337.102,156.905 338.602,154.905 339.5,152.5 Z"/></g>
<g><path style="opacity:1" fill="#180a01" d="M 379.5,143.5 C 382.695,146.852 386.362,149.685 390.5,152C 395.15,156.574 396.65,162.074 395,168.5C 393.64,171.023 391.807,173.023 389.5,174.5C 387.131,174.851 384.797,175.018 382.5,175C 390.638,172.865 393.805,167.698 392,159.5C 388.034,154.533 383.701,149.866 379,145.5C 378.308,144.563 378.475,143.897 379.5,143.5 Z"/></g>
<g><path style="opacity:1" fill="#894a31" d="M 476.5,174.5 C 472.57,172.025 470.07,168.358 469,163.5C 468.617,164.056 468.117,164.389 467.5,164.5C 465.685,152.459 469.685,142.793 479.5,135.5C 480.663,140.802 480.829,146.136 480,151.5C 478.958,159.326 477.791,166.993 476.5,174.5 Z"/></g>
<g><path style="opacity:1" fill="#9c573b" d="M 256.5,136.5 C 262.844,138.81 265.178,143.143 263.5,149.5C 261.313,147.15 258.813,145.15 256,143.5C 255.297,141.071 255.463,138.738 256.5,136.5 Z"/></g>
<g><path style="opacity:1" fill="#030100" d="M 274.5,92.5 C 272.026,101.314 270.526,110.314 270,119.5C 268.15,142.509 268.15,165.509 270,188.5C 271.612,197.174 273.112,205.84 274.5,214.5C 271.987,206.785 270.153,198.785 269,190.5C 266.744,160.767 267.411,131.101 271,101.5C 271.505,98.135 272.672,95.135 274.5,92.5 Z"/></g>
<g><path style="opacity:1" fill="#9d583b" d="M 473.5,127.5 C 478.495,126.582 480.828,128.582 480.5,133.5C 477.484,133.841 474.818,135.007 472.5,137C 467.26,145.559 465.426,144.393 467,133.5C 469.063,131.266 471.229,129.266 473.5,127.5 Z"/></g>
<g><path style="opacity:1" fill="#0f0500" d="M 376.5,91.5 C 376.938,91.4346 377.272,91.6012 377.5,92C 375.383,93.7309 373.883,95.8976 373,98.5C 372.827,104.348 372.327,110.015 371.5,115.5C 369.677,109.629 369.177,103.629 370,97.5C 371.385,94.6141 373.551,92.6141 376.5,91.5 Z"/></g>
<g><path style="opacity:1" fill="#8d4c33" d="M 339.5,90.5 C 339.082,91.2216 338.416,91.7216 337.5,92C 338.517,93.0495 338.684,94.2161 338,95.5C 335.666,96.67 333.832,98.3367 332.5,100.5C 334.651,104.129 336.818,107.796 339,111.5C 344.555,125.102 340.388,133.935 326.5,138C 317.173,138.168 307.839,138.001 298.5,137.5C 293.833,137.667 289.167,137.833 284.5,138C 282.711,139.787 282.211,139.287 283,136.5C 285.387,133.06 287.22,129.393 288.5,125.5C 288.065,121.963 286.565,118.963 284,116.5C 283.591,111.534 283.757,106.868 284.5,102.5C 284.369,103.376 284.702,104.043 285.5,104.5C 286.965,101.202 289.298,98.7016 292.5,97C 296.929,94.1186 301.596,91.7853 306.5,90C 310.833,89.3333 315.167,89.3333 319.5,90C 326.038,93.1456 332.704,93.3123 339.5,90.5 Z"/></g>
<g><path style="opacity:1" fill="#0e0500" d="M 321.5,131.5 C 326.411,131.836 326.077,132.502 320.5,133.5C 319.833,133.333 319.167,133.167 318.5,133C 319.737,132.768 320.737,132.268 321.5,131.5 Z"/></g>
<g><path style="opacity:1" fill="#17100b" d="M 335.5,121.5 C 338.96,122.26 339.293,123.76 336.5,126C 331.045,126.375 325.712,127.375 320.5,129C 312.636,129.972 304.97,129.139 297.5,126.5C 302.26,121.582 307.927,118.082 314.5,116C 322.299,115.198 329.299,117.032 335.5,121.5 Z"/></g>
<g><path style="opacity:1" fill="#562918" d="M 335.5,121.5 C 335.5,122.5 335.5,123.5 335.5,124.5C 334.5,124.5 333.5,124.5 332.5,124.5C 332.5,123.5 332.5,122.5 332.5,121.5C 333.5,121.5 334.5,121.5 335.5,121.5 Z"/></g>
<g><path style="opacity:1" fill="#aeaaa8" d="M 319.5,122.5 C 321.337,122.639 321.67,123.306 320.5,124.5C 319.702,124.043 319.369,123.376 319.5,122.5 Z"/></g>
<g><path style="opacity:1" fill="#e4e2e0" d="M 326.5,119.5 C 328.117,120.038 329.784,120.371 331.5,120.5C 331.5,121.833 331.5,123.167 331.5,124.5C 329.833,124.5 328.167,124.5 326.5,124.5C 326.5,122.833 326.5,121.167 326.5,119.5 Z"/></g>
<g><path style="opacity:1" fill="#d6d4d3" d="M 309.5,119.5 C 310.5,119.5 311.5,119.5 312.5,119.5C 312.387,122.049 313.054,124.382 314.5,126.5C 306.146,128.689 304.479,126.356 309.5,119.5 Z"/></g>
<g><path style="opacity:1" fill="#cac7c5" d="M 315.5,118.5 C 316.5,118.5 317.5,118.5 318.5,118.5C 318.5,119.833 318.5,121.167 318.5,122.5C 317.5,122.5 316.5,122.5 315.5,122.5C 315.5,121.167 315.5,119.833 315.5,118.5 Z"/></g>
<g><path style="opacity:1" fill="#140802" d="M 314.5,107.5 C 329.073,108.634 329.073,109.467 314.5,110C 308.949,111.651 303.949,113.984 299.5,117C 302.128,115.374 304.461,113.374 306.5,111C 309.158,109.522 311.825,108.355 314.5,107.5 Z"/></g>
<g><path style="opacity:1" fill="#1c0c02" d="M 339.5,90.5 C 332.704,93.3123 326.038,93.1456 319.5,90C 315.167,89.3333 310.833,89.3333 306.5,90C 301.596,91.7853 296.929,94.1186 292.5,97C 289.298,98.7016 286.965,101.202 285.5,104.5C 284.702,104.043 284.369,103.376 284.5,102.5C 286.542,98.2484 288.875,94.0817 291.5,90C 297.071,87.8813 302.404,85.2147 307.5,82C 316.821,82.0657 326.154,82.3991 335.5,83C 338.941,84.3184 340.275,86.8184 339.5,90.5 Z"/></g>
<g><path style="opacity:1" fill="#1b0c01" d="M 404.5,76.5 C 412.44,77.2351 420.106,79.0684 427.5,82C 432.948,85.4481 437.782,89.6147 442,94.5C 442.667,96.1667 442.667,97.8333 442,99.5C 434.556,93.7299 426.389,89.2299 417.5,86C 408.015,87.0706 398.515,87.5706 389,87.5C 386.808,87.1373 384.974,86.1373 383.5,84.5C 383.343,83.1266 383.51,81.7932 384,80.5C 384.414,80.9574 384.914,81.2907 385.5,81.5C 386.705,79.8624 388.038,79.5291 389.5,80.5C 394.304,78.6387 399.304,77.3053 404.5,76.5 Z"/></g>
<g><path style="opacity:1" fill="#8f4d34" d="M 404.5,30.5 C 413.337,31.9676 422.004,34.1343 430.5,37C 439.93,48.9331 446.096,62.4331 449,77.5C 452.363,95.3156 456.363,112.982 461,130.5C 461.966,136.13 462.633,141.796 463,147.5C 462.624,164.514 461.624,181.514 460,198.5C 459.001,209.512 456.001,219.846 451,229.5C 443.649,238.351 435.482,246.351 426.5,253.5C 424.975,240.845 423.475,228.179 422,215.5C 421.151,212.479 420.317,209.479 419.5,206.5C 417.909,191.109 422.909,178.275 434.5,168C 440.124,166.044 444.957,162.877 449,158.5C 454.649,148.029 454.982,137.362 450,126.5C 448.274,125.424 446.441,125.257 444.5,126C 426.213,136.447 407.546,137.114 388.5,128C 382.664,123.224 376.998,119.058 371.5,115.5C 372.327,110.015 372.827,104.348 373,98.5C 373.883,95.8976 375.383,93.7309 377.5,92C 377.272,91.6012 376.938,91.4346 376.5,91.5C 378.481,89.6969 380.648,88.0303 383,86.5C 383.464,85.9056 383.631,85.2389 383.5,84.5C 384.974,86.1373 386.808,87.1373 389,87.5C 398.515,87.5706 408.015,87.0706 417.5,86C 426.389,89.2299 434.556,93.7299 442,99.5C 442.667,97.8333 442.667,96.1667 442,94.5C 437.782,89.6147 432.948,85.4481 427.5,82C 420.106,79.0684 412.44,77.2351 404.5,76.5C 410.164,67.7335 411.997,58.0669 410,47.5C 407.699,41.9564 405.866,36.2898 404.5,30.5 Z"/></g>
<g><path style="opacity:1" fill="#19100a" d="M 404.5,110.5 C 414.387,110.439 423.387,113.273 431.5,119C 417.557,125.214 403.224,126.214 388.5,122C 389.104,119.532 390.438,117.532 392.5,116C 396.284,113.471 400.284,111.638 404.5,110.5 Z"/></g>
<g><path style="opacity:1" fill="#9f9c99" d="M 413.5,120.5 C 414.568,121.434 415.901,121.768 417.5,121.5C 415.782,122.224 413.948,122.891 412,123.5C 411.415,122.002 411.915,121.002 413.5,120.5 Z"/></g>
<g><path style="opacity:1" fill="#bdbab8" d="M 406.5,117.5 C 408.337,117.639 408.67,118.306 407.5,119.5C 406.702,119.043 406.369,118.376 406.5,117.5 Z"/></g>
<g><path style="opacity:1" fill="#dedcda" d="M 398.5,114.5 C 399.891,117.014 401.557,119.514 403.5,122C 400.466,122.66 397.633,122.16 395,120.5C 394.651,117.669 395.817,115.669 398.5,114.5 Z"/></g>
<g><path style="opacity:1" fill="#e1dfde" d="M 417.5,121.5 C 415.901,121.768 414.568,121.434 413.5,120.5C 414.219,118.236 414.552,115.903 414.5,113.5C 419.547,113.376 421.38,115.709 420,120.5C 419.329,121.252 418.496,121.586 417.5,121.5 Z"/></g>
<g><path style="opacity:1" fill="#cfcccb" d="M 406.5,117.5 C 405.167,117.5 403.833,117.5 402.5,117.5C 402.5,116.5 402.5,115.5 402.5,114.5C 403.833,114.5 405.167,114.5 406.5,114.5C 406.5,115.5 406.5,116.5 406.5,117.5 Z"/></g>
<g><path style="opacity:1" fill="#1b0d04" d="M 406.5,102.5 C 414.125,102.48 420.791,104.98 426.5,110C 422.77,108.387 418.77,107.054 414.5,106C 409.446,105.219 404.446,105.386 399.5,106.5C 398.304,106.154 398.304,105.654 399.5,105C 401.927,104.098 404.26,103.264 406.5,102.5 Z"/></g>
<g><path style="opacity:0.004" fill="#090000" d="M 482.5,190.5 C 482.737,191.791 482.404,192.791 481.5,193.5C 481.263,192.209 481.596,191.209 482.5,190.5 Z"/></g>
<g><path style="opacity:0.004" fill="#090000" d="M 481.5,193.5 C 480.833,194.167 480.833,194.167 481.5,193.5 Z"/></g>
<g><path style="opacity:0.004" fill="#090000" d="M 480.5,194.5 C 479.833,195.167 479.833,195.167 480.5,194.5 Z"/></g>
<g><path style="opacity:0.004" fill="#090000" d="M 478.5,195.5 C 478.833,195.5 479.167,195.5 479.5,195.5C 479.315,196.17 478.981,196.17 478.5,195.5 Z"/></g>
<g><path style="opacity:0.024" fill="#1d0c00" d="M 477.5,196.5 C 477.833,196.5 478.167,196.5 478.5,196.5C 478.315,197.17 477.981,197.17 477.5,196.5 Z"/></g>
<g><path style="opacity:1" fill="#8c4c33" d="M 256.5,148.5 C 258.017,148.511 259.184,149.177 260,150.5C 261.333,152.5 262.667,154.5 264,156.5C 264.03,172.327 265.53,187.993 268.5,203.5C 264.93,203.099 262.764,201.099 262,197.5C 261.628,188.145 260.962,178.811 260,169.5C 257.774,162.698 256.607,155.698 256.5,148.5 Z"/></g>
<g><path style="opacity:0.024" fill="#190800" d="M 475.5,197.5 C 476.167,197.5 476.833,197.5 477.5,197.5C 476.686,199.273 475.352,199.773 473.5,199C 474.416,198.722 475.082,198.222 475.5,197.5 Z"/></g>
<g><path style="opacity:0.004" fill="#150500" d="M 255.5,200.5 C 256.167,201.167 256.833,201.833 257.5,202.5C 257.631,203.239 257.464,203.906 257,204.5C 255.812,203.437 255.312,202.103 255.5,200.5 Z"/></g>
<g><path style="opacity:1" fill="#8c4b32" d="M 403.5,205.5 C 399.107,205.457 398.774,205.957 402.5,207C 400.627,207.953 400.294,209.12 401.5,210.5C 399.139,210.326 396.806,209.993 394.5,209.5C 386.28,207.599 377.947,207.099 369.5,208C 361.603,209.27 353.603,209.937 345.5,210C 341.734,211.559 338.068,213.059 334.5,214.5C 332.5,214.5 330.5,214.5 328.5,214.5C 328.912,212.027 327.912,210.694 325.5,210.5C 332.449,204.352 340.116,199.185 348.5,195C 358.835,194.245 369.168,193.912 379.5,194C 384.548,195.512 389.548,197.179 394.5,199C 396.515,202.662 399.515,204.828 403.5,205.5 Z"/></g>
<g><path style="opacity:1" fill="#120701" d="M 371.5,196.5 C 377.394,195.943 382.727,197.443 387.5,201C 383.788,200.715 380.121,199.882 376.5,198.5C 372.417,200.711 368.084,202.045 363.5,202.5C 360.018,202.312 356.685,201.645 353.5,200.5C 347.859,201.735 342.526,203.568 337.5,206C 341.666,203.083 345.999,200.416 350.5,198C 355.101,197.466 359.601,197.966 364,199.5C 366.956,199.432 369.456,198.432 371.5,196.5 Z"/></g>
<g><path style="opacity:0.004" fill="#140400" d="M 261.5,207.5 C 262.167,207.5 262.5,207.833 262.5,208.5C 261.503,209.713 260.503,209.546 259.5,208C 260.094,207.536 260.761,207.369 261.5,207.5 Z"/></g>
<g><path style="opacity:1" fill="#1a0c04" d="M 394.5,209.5 C 385.462,210.116 376.462,211.116 367.5,212.5C 362.317,212.465 357.15,212.132 352,211.5C 346.186,212.659 340.353,213.659 334.5,214.5C 338.068,213.059 341.734,211.559 345.5,210C 353.603,209.937 361.603,209.27 369.5,208C 377.947,207.099 386.28,207.599 394.5,209.5 Z"/></g>
<g><path style="opacity:1" fill="#61321e" d="M 394.5,209.5 C 396.806,209.993 399.139,210.326 401.5,210.5C 390.334,211.403 379,212.07 367.5,212.5C 376.462,211.116 385.462,210.116 394.5,209.5 Z"/></g>
<g><path style="opacity:1" fill="#a55d3f" d="M 403.5,205.5 C 405.155,208.786 407.322,211.786 410,214.5C 410.895,218.763 412.395,222.763 414.5,226.5C 415.135,229.493 415.301,232.493 415,235.5C 407.652,243.76 398.819,249.927 388.5,254C 383.265,258.084 377.931,261.917 372.5,265.5C 370.669,266.995 368.502,267.662 366,267.5C 361.383,266.188 357.049,266.188 353,267.5C 351.16,265.16 348.993,263.16 346.5,261.5C 345.808,262.025 345.308,262.692 345,263.5C 341.89,262.327 341.723,262.827 344.5,265C 344.167,265.167 343.833,265.333 343.5,265.5C 340.44,263.304 337.107,261.637 333.5,260.5C 332.817,257.539 331.984,257.205 331,259.5C 329.767,256.703 328.267,254.037 326.5,251.5C 325.808,252.025 325.308,252.692 325,253.5C 323.176,248.534 321.676,243.534 320.5,238.5C 320.726,233.438 320.392,228.438 319.5,223.5C 320.75,218.72 322.75,214.387 325.5,210.5C 327.912,210.694 328.912,212.027 328.5,214.5C 330.5,214.5 332.5,214.5 334.5,214.5C 338.432,217.092 342.099,220.092 345.5,223.5C 347.565,223.953 349.232,224.953 350.5,226.5C 356.337,235.401 364.337,237.901 374.5,234C 378.048,231.953 380.715,229.12 382.5,225.5C 382.5,224.833 382.833,224.5 383.5,224.5C 388.418,222.535 392.418,219.369 395.5,215C 397.5,214.333 399.5,213.667 401.5,213C 402.774,212.023 402.774,211.189 401.5,210.5C 400.294,209.12 400.627,207.953 402.5,207C 398.774,205.957 399.107,205.457 403.5,205.5 Z"/></g>
<g><path style="opacity:1" fill="#8d4a32" d="M 401.5,210.5 C 402.774,211.189 402.774,212.023 401.5,213C 399.5,213.667 397.5,214.333 395.5,215C 392.418,219.369 388.418,222.535 383.5,224.5C 382.279,223.535 380.946,223.702 379.5,225C 370.5,225.667 361.5,225.667 352.5,225C 350.256,223.062 347.923,222.562 345.5,223.5C 342.099,220.092 338.432,217.092 334.5,214.5C 340.353,213.659 346.186,212.659 352,211.5C 357.15,212.132 362.317,212.465 367.5,212.5C 379,212.07 390.334,211.403 401.5,210.5 Z"/></g>
<g><path style="opacity:0.024" fill="#1b0a00" d="M 268.5,217.5 C 269.738,219.214 270.405,221.214 270.5,223.5C 268.926,221.898 268.259,219.898 268.5,217.5 Z"/></g>
<g><path style="opacity:0.004" fill="#140500" d="M 270.5,223.5 C 271.167,224.167 271.833,224.833 272.5,225.5C 272.328,226.492 272.662,227.158 273.5,227.5C 273.328,228.492 273.662,229.158 274.5,229.5C 274.607,231.379 274.107,231.712 273,230.5C 271.589,228.35 270.755,226.016 270.5,223.5 Z"/></g>
<g><path style="opacity:1" fill="#0f0501" d="M 345.5,223.5 C 347.923,222.562 350.256,223.062 352.5,225C 361.5,225.667 370.5,225.667 379.5,225C 380.946,223.702 382.279,223.535 383.5,224.5C 382.833,224.5 382.5,224.833 382.5,225.5C 371.962,229.085 361.295,229.418 350.5,226.5C 349.232,224.953 347.565,223.953 345.5,223.5 Z"/></g>
<g><path style="opacity:1" fill="#8b4b32" d="M 382.5,225.5 C 380.715,229.12 378.048,231.953 374.5,234C 364.337,237.901 356.337,235.401 350.5,226.5C 361.295,229.418 371.962,229.085 382.5,225.5 Z"/></g>
<g><path style="opacity:1" fill="#5a2e1a" d="M 319.5,223.5 C 320.392,228.438 320.726,233.438 320.5,238.5C 319.754,234.148 319.087,229.648 318.5,225C 318.57,224.235 318.903,223.735 319.5,223.5 Z"/></g>
<g><path style="opacity:1" fill="#8b4b32" d="M 414.5,226.5 C 417.038,231.802 417.871,237.468 417,243.5C 414.38,249.914 410.88,255.747 406.5,261C 405.123,262.241 403.79,262.408 402.5,261.5C 403.025,260.808 403.692,260.308 404.5,260C 402.536,259.376 400.869,259.876 399.5,261.5C 397.234,260.443 395.234,260.943 393.5,263C 387.405,265.107 381.405,266.607 375.5,267.5C 374.304,267.154 374.304,266.654 375.5,266C 374.552,265.517 373.552,265.351 372.5,265.5C 377.931,261.917 383.265,258.084 388.5,254C 398.819,249.927 407.652,243.76 415,235.5C 415.301,232.493 415.135,229.493 414.5,226.5 Z"/></g>
<g><path style="opacity:1" fill="#201209" d="M 357.5,238.5 C 363.593,238.139 369.593,238.639 375.5,240C 368.5,240.667 361.5,240.667 354.5,240C 355.737,239.768 356.737,239.268 357.5,238.5 Z"/></g>
<g><path style="opacity:1" fill="#a65e40" d="M 471.5,325.5 C 467.943,339.436 460.276,350.602 448.5,359C 415.291,379.493 379.291,386.493 340.5,380C 323.687,377.236 308.354,371.069 294.5,361.5C 276.258,344.604 269.758,323.937 275,299.5C 275.867,294.764 278.033,290.764 281.5,287.5C 282.33,293.472 282.83,299.472 283,305.5C 284.333,303.5 285.667,301.5 287,299.5C 287.851,281.791 287.351,264.124 285.5,246.5C 285.833,245.5 286.167,244.5 286.5,243.5C 289.915,246.925 293.581,249.925 297.5,252.5C 301.189,256.187 305.189,259.52 309.5,262.5C 308.926,264.059 308.26,265.559 307.5,267C 309.459,268.684 309.459,270.684 307.5,273C 308.449,273.617 309.282,273.451 310,272.5C 309.747,275.133 309.747,277.8 310,280.5C 312.554,284.548 314.554,288.881 316,293.5C 316.249,292.376 316.749,291.376 317.5,290.5C 318.795,292.328 319.795,294.328 320.5,296.5C 323.27,298.561 325.604,301.061 327.5,304C 335.517,306.756 343.684,307.589 352,306.5C 353.784,307.309 355.617,307.976 357.5,308.5C 359.373,308.518 359.706,308.018 358.5,307C 360.361,305.138 361.694,305.638 362.5,308.5C 363.941,307.696 365.441,307.029 367,306.5C 367.945,306.905 368.612,307.572 369,308.5C 373.978,308.914 378.811,307.914 383.5,305.5C 384.711,306.274 384.711,307.107 383.5,308C 384.167,308.167 384.833,308.333 385.5,308.5C 392.172,306.374 398.506,304.207 404.5,302C 406.453,298.38 409.119,295.38 412.5,293C 411.692,292.692 411.025,292.192 410.5,291.5C 412.579,288.781 414.745,286.115 417,283.5C 418.672,278.463 420.172,273.463 421.5,268.5C 422.822,268.67 423.989,268.337 425,267.5C 425.333,264.833 425.667,262.167 426,259.5C 436.94,252.062 446.44,243.062 454.5,232.5C 455.251,233.376 455.751,234.376 456,235.5C 456.899,254.955 458.899,274.288 462,293.5C 462.837,295.844 464.171,297.844 466,299.5C 466.186,295.484 466.186,291.484 466,287.5C 467.713,288.878 469.047,290.545 470,292.5C 472.712,303.383 473.212,314.383 471.5,325.5 Z"/></g>
<g><path style="opacity:0.024" fill="#190800" d="M 280.5,280.5 C 279.833,280.5 279.167,280.5 278.5,280.5C 278.611,279.883 278.944,279.383 279.5,279C 278.184,264.913 277.684,250.746 278,236.5C 278.834,251.18 279.667,265.847 280.5,280.5 Z"/></g>
<g><path style="opacity:0.004" fill="#110400" d="M 467.5,280.5 C 466.489,278.598 466.322,276.598 467,274.5C 467.163,276.676 467.996,278.509 469.5,280C 468.906,280.464 468.239,280.631 467.5,280.5 Z"/></g>
<g><path style="opacity:0.004" fill="#100500" d="M 278.5,280.5 C 278.167,281.167 277.833,281.833 277.5,282.5C 275.207,281.699 275.54,281.032 278.5,280.5 Z"/></g>
<g><path style="opacity:0.004" fill="#100500" d="M 270.5,286.5 C 268.025,286.253 268.025,285.587 270.5,284.5C 271.463,284.97 271.463,285.637 270.5,286.5 Z"/></g>
<g><path style="opacity:0.024" fill="#190900" d="M 476.5,285.5 C 475.632,283.108 476.299,282.941 478.5,285C 477.906,285.464 477.239,285.631 476.5,285.5 Z"/></g>
<g><path style="opacity:0.024" fill="#190900" d="M 483.5,289.5 C 482.632,287.108 483.299,286.941 485.5,289C 484.906,289.464 484.239,289.631 483.5,289.5 Z"/></g>
<g><path style="opacity:0.024" fill="#1a0b00" d="M 263.5,290.5 C 261.025,290.253 261.025,289.587 263.5,288.5C 264.463,288.97 264.463,289.637 263.5,290.5 Z"/></g>
<g><path style="opacity:0.024" fill="#190900" d="M 488.5,292.5 C 487.632,290.108 488.299,289.941 490.5,292C 489.906,292.464 489.239,292.631 488.5,292.5 Z"/></g>
<g><path style="opacity:0.024" fill="#1a0b00" d="M 258.5,293.5 C 256.025,293.253 256.025,292.587 258.5,291.5C 259.463,291.97 259.463,292.637 258.5,293.5 Z"/></g>
<g><path style="opacity:0.024" fill="#190900" d="M 495.5,295.5 C 494.833,295.5 494.167,295.5 493.5,295.5C 492.939,292.813 493.606,292.813 495.5,295.5 Z"/></g>
<g><path style="opacity:0.024" fill="#1a0b00" d="M 253.5,296.5 C 252.833,296.5 252.167,296.5 251.5,296.5C 253.394,293.813 254.061,293.813 253.5,296.5 Z"/></g>
<g><path style="opacity:0.004" fill="#120500" d="M 495.5,296.5 C 495.5,296.167 495.5,295.833 495.5,295.5C 498.46,296.032 498.793,296.699 496.5,297.5C 495.833,297.5 495.5,297.167 495.5,296.5 Z"/></g>
<g><path style="opacity:0.004" fill="#100500" d="M 251.5,296.5 C 251.5,296.833 251.5,297.167 251.5,297.5C 250.833,297.5 250.5,297.833 250.5,298.5C 248.207,297.699 248.54,297.032 251.5,296.5 Z"/></g>
<g><path style="opacity:1" fill="#a70e26" d="M 263.5,297.5 C 264.043,297.56 264.376,297.893 264.5,298.5C 256.921,307.671 254.754,318.005 258,329.5C 263.193,347.221 271.526,363.221 283,377.5C 309.638,408.648 339.804,435.648 373.5,458.5C 377.766,456.546 381.433,453.879 384.5,450.5C 420.353,426.483 450.853,396.816 476,361.5C 483.144,350.403 488.144,338.403 491,325.5C 492.144,314.431 488.977,304.764 481.5,296.5C 494.648,302.384 506.814,310.384 518,320.5C 518.667,325.5 518.667,330.5 518,335.5C 511.685,364.131 499.018,389.464 480,411.5C 449.405,446.439 414.071,475.439 374,498.5C 335.867,476.373 301.867,449.04 272,416.5C 258.276,400.767 246.943,383.434 238,364.5C 231.359,350.937 228.026,336.604 228,321.5C 239.084,312.376 250.918,304.376 263.5,297.5 Z"/></g>
<g><path style="opacity:0.024" fill="#1a0b00" d="M 245.5,301.5 C 244.833,301.5 244.167,301.5 243.5,301.5C 245.394,298.813 246.061,298.813 245.5,301.5 Z"/></g>
<g><path style="opacity:0.024" fill="#1a0b00" d="M 243.5,301.5 C 243.5,301.833 243.5,302.167 243.5,302.5C 242.833,302.5 242.5,302.833 242.5,303.5C 241.833,303.5 241.167,303.5 240.5,303.5C 240.973,302.094 241.973,301.427 243.5,301.5 Z"/></g>
<g><path style="opacity:0.004" fill="#140400" d="M 507.5,304.5 C 508.779,303.285 509.779,303.618 510.5,305.5C 509.833,305.5 509.167,305.5 508.5,305.5C 507.833,305.5 507.5,305.167 507.5,304.5 Z"/></g>
<g><path style="opacity:0.024" fill="#1a0b00" d="M 240.5,303.5 C 240.5,303.833 240.5,304.167 240.5,304.5C 239.833,304.5 239.5,304.833 239.5,305.5C 238.833,305.5 238.167,305.5 237.5,305.5C 237.973,304.094 238.973,303.427 240.5,303.5 Z"/></g>
<g><path style="opacity:0.024" fill="#1a0b00" d="M 237.5,305.5 C 237.5,305.833 237.5,306.167 237.5,306.5C 236.833,306.5 236.5,306.833 236.5,307.5C 234.207,306.699 234.54,306.032 237.5,305.5 Z"/></g>
<g><path style="opacity:1" fill="#e6e3e1" d="M 451.5,384.5 C 418.608,405.731 382.608,413.564 343.5,408C 330.594,405.859 318.261,402.026 306.5,396.5C 289.071,379.879 275.238,360.546 265,338.5C 260.056,326.587 260.39,314.92 266,303.5C 267.353,302.315 268.52,300.981 269.5,299.5C 266.972,316.605 269.805,332.939 278,348.5C 279.946,351.42 282.113,354.087 284.5,356.5C 290.156,364.31 297.489,370.143 306.5,374C 323.145,380.994 340.478,385.161 358.5,386.5C 379.841,388.877 400.841,386.71 421.5,380C 420.207,379.51 418.873,379.343 417.5,379.5C 430.128,374.685 442.128,368.519 453.5,361C 463.958,352.726 470.958,342.226 474.5,329.5C 475.856,326.423 476.689,323.09 477,319.5C 477.455,312.47 477.455,305.47 477,298.5C 485.447,306.412 488.447,316.079 486,327.5C 479.584,349.681 468.084,368.681 451.5,384.5 Z"/></g>
<g><path style="opacity:0.024" fill="#190900" d="M 510.5,306.5 C 510.5,306.167 510.5,305.833 510.5,305.5C 513.46,306.032 513.793,306.699 511.5,307.5C 510.833,307.5 510.5,307.167 510.5,306.5 Z"/></g>
<g><path style="opacity:0.004" fill="#120400" d="M 514.5,309.5 C 516.07,308.441 517.403,308.941 518.5,311C 517.906,311.464 517.239,311.631 516.5,311.5C 515.833,311.5 515.5,311.167 515.5,310.5C 514.833,310.5 514.5,310.167 514.5,309.5 Z"/></g>
<g><path style="opacity:0.024" fill="#190900" d="M 230.5,311.5 C 229.833,311.5 229.5,311.833 229.5,312.5C 228.833,312.5 228.5,312.833 228.5,313.5C 226.408,312.714 226.741,311.714 229.5,310.5C 230.107,310.624 230.44,310.957 230.5,311.5 Z"/></g>
<g><path style="opacity:0.024" fill="#190900" d="M 221.5,318.5 C 220.508,318.328 219.842,318.662 219.5,319.5C 217.653,319.766 216.986,319.432 217.5,318.5C 218.995,317.295 220.328,317.295 221.5,318.5 Z"/></g>
<g><path style="opacity:0.004" fill="#110500" d="M 528.5,319.5 C 530.089,318.379 531.756,318.546 533.5,320C 532.552,320.483 531.552,320.649 530.5,320.5C 530.158,319.662 529.492,319.328 528.5,319.5 Z"/></g>
<g><path style="opacity:0.047" fill="#170a00" d="M 210.5,323.5 C 209.508,323.328 208.842,323.662 208.5,324.5C 206.653,324.766 205.986,324.432 206.5,323.5C 207.995,322.295 209.328,322.295 210.5,323.5 Z"/></g>
<g><path style="opacity:0.004" fill="#120500" d="M 537.5,323.5 C 538.251,322.427 539.251,322.26 540.5,323C 541.833,323.667 543.167,324.333 544.5,325C 543.552,325.483 542.552,325.649 541.5,325.5C 541.158,324.662 540.492,324.328 539.5,324.5C 539.158,323.662 538.492,323.328 537.5,323.5 Z"/></g>
<g><path style="opacity:1" fill="#a90e26" d="M 741.5,527.5 C 496.5,527.5 251.5,527.5 6.5,527.5C 9.81469,516.58 12.9814,505.58 16,494.5C 25.044,474.075 35.3773,454.409 47,435.5C 61.4916,417.342 77.6583,400.842 95.5,386C 99.8981,382.606 104.565,379.606 109.5,377C 146.926,358.953 184.593,341.453 222.5,324.5C 227.012,353.221 237.845,379.221 255,402.5C 287.732,443.244 326.566,476.744 371.5,503C 373.167,503.667 374.833,503.667 376.5,503C 385.833,497 395.167,491 404.5,485C 441.54,460.294 473.04,429.794 499,393.5C 512.821,372.522 520.987,349.522 523.5,324.5C 556.704,338.767 589.704,353.6 622.5,369C 631.167,373.667 639.833,378.333 648.5,383C 664.273,396.771 679.439,411.271 694,426.5C 716.283,457.069 732.116,490.736 741.5,527.5 Z"/></g>
<g><path style="opacity:0.047" fill="#170a00" d="M 199.5,328.5 C 198.508,328.328 197.842,328.662 197.5,329.5C 195.653,329.766 194.986,329.432 195.5,328.5C 196.995,327.295 198.328,327.295 199.5,328.5 Z"/></g>
<g><path style="opacity:0.004" fill="#120500" d="M 548.5,328.5 C 549.251,327.427 550.251,327.26 551.5,328C 552.833,328.667 554.167,329.333 555.5,330C 554.552,330.483 553.552,330.649 552.5,330.5C 552.158,329.662 551.492,329.328 550.5,329.5C 550.158,328.662 549.492,328.328 548.5,328.5 Z"/></g>
<g><path style="opacity:0.047" fill="#170a00" d="M 188.5,333.5 C 187.508,333.328 186.842,333.662 186.5,334.5C 184.653,334.766 183.986,334.432 184.5,333.5C 185.995,332.295 187.328,332.295 188.5,333.5 Z"/></g>
<g><path style="opacity:0.024" fill="#180900" d="M 559.5,333.5 C 560.251,332.427 561.251,332.26 562.5,333C 563.833,333.667 565.167,334.333 566.5,335C 565.552,335.483 564.552,335.649 563.5,335.5C 563.158,334.662 562.492,334.328 561.5,334.5C 561.158,333.662 560.492,333.328 559.5,333.5 Z"/></g>
<g><path style="opacity:0.024" fill="#180900" d="M 570.5,338.5 C 571.251,337.427 572.251,337.26 573.5,338C 574.833,338.667 576.167,339.333 577.5,340C 576.552,340.483 575.552,340.649 574.5,340.5C 574.158,339.662 573.492,339.328 572.5,339.5C 572.158,338.662 571.492,338.328 570.5,338.5 Z"/></g>
<g><path style="opacity:0.047" fill="#140800" d="M 177.5,338.5 C 176.508,338.328 175.842,338.662 175.5,339.5C 173.653,339.766 172.986,339.432 173.5,338.5C 174.995,337.295 176.328,337.295 177.5,338.5 Z"/></g>
<g><path style="opacity:0.024" fill="#180900" d="M 581.5,343.5 C 582.251,342.427 583.251,342.26 584.5,343C 585.833,343.667 587.167,344.333 588.5,345C 587.552,345.483 586.552,345.649 585.5,345.5C 585.158,344.662 584.492,344.328 583.5,344.5C 583.158,343.662 582.492,343.328 581.5,343.5 Z"/></g>
<g><path style="opacity:0.047" fill="#140800" d="M 166.5,343.5 C 165.508,343.328 164.842,343.662 164.5,344.5C 162.653,344.766 161.986,344.432 162.5,343.5C 163.995,342.295 165.328,342.295 166.5,343.5 Z"/></g>
<g><path style="opacity:0.024" fill="#180900" d="M 592.5,348.5 C 593.251,347.427 594.251,347.26 595.5,348C 596.833,348.667 598.167,349.333 599.5,350C 598.552,350.483 597.552,350.649 596.5,350.5C 596.158,349.662 595.492,349.328 594.5,349.5C 594.158,348.662 593.492,348.328 592.5,348.5 Z"/></g>
<g><path style="opacity:0.047" fill="#150800" d="M 157.5,347.5 C 156.508,347.328 155.842,347.662 155.5,348.5C 154.508,348.328 153.842,348.662 153.5,349.5C 151.653,349.766 150.986,349.432 151.5,348.5C 153.507,346.797 155.507,346.463 157.5,347.5 Z"/></g>
<g><path style="opacity:0.024" fill="#160800" d="M 605.5,354.5 C 606.251,353.427 607.251,353.26 608.5,354C 610.5,355 612.5,356 614.5,357C 613.552,357.483 612.552,357.649 611.5,357.5C 611.158,356.662 610.492,356.328 609.5,356.5C 609.158,355.662 608.492,355.328 607.5,355.5C 607.158,354.662 606.492,354.328 605.5,354.5 Z"/></g>
<g><path style="opacity:0.004" fill="#130600" d="M 144.5,353.5 C 143.508,353.328 142.842,353.662 142.5,354.5C 141.508,354.328 140.842,354.662 140.5,355.5C 139.508,355.328 138.842,355.662 138.5,356.5C 136.653,356.766 135.986,356.432 136.5,355.5C 138.607,354.363 140.773,353.363 143,352.5C 143.765,352.57 144.265,352.903 144.5,353.5 Z"/></g>
<g><path style="opacity:0.004" fill="#100500" d="M 641.5,372.5 C 640.632,370.108 641.299,369.941 643.5,372C 642.906,372.464 642.239,372.631 641.5,372.5 Z"/></g>
<g><path style="opacity:0.004" fill="#100500" d="M 104.5,373.5 C 102.025,373.253 102.025,372.587 104.5,371.5C 105.463,371.97 105.463,372.637 104.5,373.5 Z"/></g>
<g><path style="opacity:0.004" fill="#100500" d="M 647.5,375.5 C 648.497,374.287 649.497,374.454 650.5,376C 649.906,376.464 649.239,376.631 648.5,376.5C 647.833,376.5 647.5,376.167 647.5,375.5 Z"/></g>
<g><path style="opacity:0.024" fill="#1a0b00" d="M 97.5,377.5 C 95.0248,377.253 95.0248,376.587 97.5,375.5C 98.463,375.97 98.463,376.637 97.5,377.5 Z"/></g>
<g><path style="opacity:0.024" fill="#1c0a00" d="M 94.5,379.5 C 93.8333,379.5 93.5,379.833 93.5,380.5C 91.0248,380.253 91.0248,379.587 93.5,378.5C 94.1067,378.624 94.44,378.957 94.5,379.5 Z"/></g>
<g><path style="opacity:1" fill="#1b130f" d="M 471.5,325.5 C 472.268,326.263 472.768,327.263 473,328.5C 474.043,324.774 474.543,325.107 474.5,329.5C 470.958,342.226 463.958,352.726 453.5,361C 442.128,368.519 430.128,374.685 417.5,379.5C 398.204,384.77 378.537,387.103 358.5,386.5C 340.478,385.161 323.145,380.994 306.5,374C 297.489,370.143 290.156,364.31 284.5,356.5C 284.369,355.761 284.536,355.094 285,354.5C 288.063,357.076 291.229,359.409 294.5,361.5C 308.354,371.069 323.687,377.236 340.5,380C 379.291,386.493 415.291,379.493 448.5,359C 460.276,350.602 467.943,339.436 471.5,325.5 Z"/></g>
<g><path style="opacity:0.024" fill="#190900" d="M 654.5,380.5 C 655.497,379.287 656.497,379.454 657.5,381C 656.906,381.464 656.239,381.631 655.5,381.5C 654.833,381.5 654.5,381.167 654.5,380.5 Z"/></g>
<g><path style="opacity:1" fill="#cecbc9" d="M 417.5,379.5 C 418.873,379.343 420.207,379.51 421.5,380C 400.841,386.71 379.841,388.877 358.5,386.5C 378.537,387.103 398.204,384.77 417.5,379.5 Z"/></g>
<g><path style="opacity:0.004" fill="#140500" d="M 88.5,384.5 C 87.8333,384.5 87.5,384.833 87.5,385.5C 86.8333,385.5 86.5,385.833 86.5,386.5C 84.4076,385.714 84.7409,384.714 87.5,383.5C 88.1067,383.624 88.44,383.957 88.5,384.5 Z"/></g>
<g><path style="opacity:0.024" fill="#190800" d="M 661.5,386.5 C 663.07,385.441 664.403,385.941 665.5,388C 664.906,388.464 664.239,388.631 663.5,388.5C 662.833,388.5 662.5,388.167 662.5,387.5C 661.833,387.5 661.5,387.167 661.5,386.5 Z"/></g>
<g><path style="opacity:0.004" fill="#100200" d="M 78.5,393.5 C 77.8333,393.5 77.5,393.833 77.5,394.5C 76.8333,394.5 76.5,394.833 76.5,395.5C 75.8333,395.5 75.5,395.833 75.5,396.5C 74.8333,396.5 74.5,396.833 74.5,397.5C 73.8333,397.5 73.5,397.833 73.5,398.5C 72.8333,398.5 72.5,398.833 72.5,399.5C 71.7611,399.631 71.0944,399.464 70.5,399C 72.5,397 74.5,395 76.5,393C 77.4368,392.308 78.1034,392.475 78.5,393.5 Z"/></g>
<g><path style="opacity:1" fill="#1c1815" d="M 451.5,384.5 C 448.602,387.628 445.268,390.294 441.5,392.5C 440.638,393.766 439.971,395.099 439.5,396.5C 428.291,402.908 416.291,407.575 403.5,410.5C 395.007,411.663 386.673,412.997 378.5,414.5C 357.186,415.789 336.519,412.789 316.5,405.5C 317.263,404.732 318.263,404.232 319.5,404C 315.251,401.806 310.918,399.806 306.5,398C 305.262,397.31 305.262,396.81 306.5,396.5C 318.261,402.026 330.594,405.859 343.5,408C 382.608,413.564 418.608,405.731 451.5,384.5 Z"/></g>
<g><path style="opacity:0.024" fill="#180800" d="M 673.5,397.5 C 673.897,396.475 674.563,396.308 675.5,397C 680.667,402.167 685.833,407.333 691,412.5C 691.692,413.437 691.525,414.103 690.5,414.5C 689.833,414.5 689.5,414.167 689.5,413.5C 688.833,413.5 688.5,413.167 688.5,412.5C 687.833,412.5 687.5,412.167 687.5,411.5C 686.833,411.5 686.5,411.167 686.5,410.5C 685.833,410.5 685.5,410.167 685.5,409.5C 684.833,409.5 684.5,409.167 684.5,408.5C 683.833,408.5 683.5,408.167 683.5,407.5C 682.833,407.5 682.5,407.167 682.5,406.5C 681.833,406.5 681.5,406.167 681.5,405.5C 680.833,405.5 680.5,405.167 680.5,404.5C 679.833,404.5 679.5,404.167 679.5,403.5C 678.833,403.5 678.5,403.167 678.5,402.5C 677.833,402.5 677.5,402.167 677.5,401.5C 676.833,401.5 676.5,401.167 676.5,400.5C 675.833,400.5 675.5,400.167 675.5,399.5C 674.833,399.5 674.5,399.167 674.5,398.5C 673.833,398.5 673.5,398.167 673.5,397.5 Z"/></g>
<g><path style="opacity:1" fill="#e7e4e2" d="M 439.5,396.5 C 440.525,396.897 440.692,397.563 440,398.5C 425.899,411.777 411.399,424.444 396.5,436.5C 389.53,441.657 382.53,446.824 375.5,452C 374.5,452.667 373.5,452.667 372.5,452C 352.632,437.804 333.632,422.471 315.5,406C 315.728,405.601 316.062,405.435 316.5,405.5C 336.519,412.789 357.186,415.789 378.5,414.5C 386.216,414.184 393.882,413.35 401.5,412C 402.416,411.722 403.082,411.222 403.5,410.5C 416.291,407.575 428.291,402.908 439.5,396.5 Z"/></g>
<g><path style="opacity:0.004" fill="#0e0200" d="M 59.5,412.5 C 58.8333,412.5 58.5,412.833 58.5,413.5C 57.8333,413.5 57.5,413.833 57.5,414.5C 56.8333,414.5 56.5,414.833 56.5,415.5C 55.8333,415.5 55.5,415.833 55.5,416.5C 54.475,416.103 54.3083,415.437 55,414.5C 56.3333,413.167 57.6667,411.833 59,410.5C 59.4643,411.094 59.631,411.761 59.5,412.5 Z"/></g>
<g><path style="opacity:1" fill="#bdbab8" d="M 403.5,410.5 C 403.082,411.222 402.416,411.722 401.5,412C 393.882,413.35 386.216,414.184 378.5,414.5C 386.673,412.997 395.007,411.663 403.5,410.5 Z"/></g>
<g><path style="opacity:0.004" fill="#090000" d="M 697.5,418.5 C 698.833,419.167 698.833,419.167 697.5,418.5 Z"/></g>
<g><path style="opacity:0.004" fill="#0f0200" d="M 48.5,424.5 C 47.8333,424.5 47.5,424.833 47.5,425.5C 46.2875,424.503 46.4542,423.503 48,422.5C 48.4643,423.094 48.631,423.761 48.5,424.5 Z"/></g>
<g><path style="opacity:1" fill="#1d1109" d="M 277.5,233.5 C 279.411,233.574 280.578,234.574 281,236.5C 282.041,235.529 282.874,234.529 283.5,233.5C 288.167,238.833 293.167,243.833 298.5,248.5C 298.062,248.435 297.728,248.601 297.5,249C 300.07,250.349 300.07,251.516 297.5,252.5C 293.581,249.925 289.915,246.925 286.5,243.5C 286.167,244.5 285.833,245.5 285.5,246.5C 287.351,264.124 287.851,281.791 287,299.5C 285.667,301.5 284.333,303.5 283,305.5C 282.83,299.472 282.33,293.472 281.5,287.5C 278.033,290.764 275.867,294.764 275,299.5C 269.758,323.937 276.258,344.604 294.5,361.5C 291.229,359.409 288.063,357.076 285,354.5C 284.536,355.094 284.369,355.761 284.5,356.5C 282.113,354.087 279.946,351.42 278,348.5C 269.805,332.939 266.972,316.605 269.5,299.5C 268.52,300.981 267.353,302.315 266,303.5C 260.39,314.92 260.056,326.587 265,338.5C 275.238,360.546 289.071,379.879 306.5,396.5C 305.262,396.81 305.262,397.31 306.5,398C 310.918,399.806 315.251,401.806 319.5,404C 318.263,404.232 317.263,404.732 316.5,405.5C 316.062,405.435 315.728,405.601 315.5,406C 333.632,422.471 352.632,437.804 372.5,452C 373.5,452.667 374.5,452.667 375.5,452C 382.53,446.824 389.53,441.657 396.5,436.5C 396.938,436.435 397.272,436.601 397.5,437C 393.09,440.621 388.59,444.121 384,447.5C 382.188,449.304 382.354,450.304 384.5,450.5C 381.433,453.879 377.766,456.546 373.5,458.5C 339.804,435.648 309.638,408.648 283,377.5C 271.526,363.221 263.193,347.221 258,329.5C 254.754,318.005 256.921,307.671 264.5,298.5C 264.376,297.893 264.043,297.56 263.5,297.5C 261.844,295.94 259.844,294.94 257.5,294.5C 258.167,294.5 258.5,294.167 258.5,293.5C 260.434,292.89 262.101,291.89 263.5,290.5C 266.004,289.416 268.337,288.083 270.5,286.5C 273.004,285.416 275.337,284.083 277.5,282.5C 279.027,282.573 280.027,281.906 280.5,280.5C 280.979,265.652 280.479,250.652 279,235.5C 278.283,234.956 277.783,234.289 277.5,233.5 Z"/></g>
<g><path style="opacity:0.047" fill="#170a00" d="M 699.5,424.5 C 698.833,424.5 698.5,424.167 698.5,423.5C 698.747,421.025 699.413,421.025 700.5,423.5C 700.376,424.107 700.043,424.44 699.5,424.5 Z"/></g>
<g><path style="opacity:0.047" fill="#170a00" d="M 706.5,433.5 C 705.833,433.5 705.5,433.167 705.5,432.5C 705.747,430.025 706.413,430.025 707.5,432.5C 707.376,433.107 707.043,433.44 706.5,433.5 Z"/></g>
<g><path style="opacity:0.004" fill="#120500" d="M 709.5,438.5 C 708.833,438.5 708.5,438.167 708.5,437.5C 708.747,435.025 709.413,435.025 710.5,437.5C 710.376,438.107 710.043,438.44 709.5,438.5 Z"/></g>
<g><path style="opacity:0.047" fill="#170a00" d="M 712.5,443.5 C 711.833,443.5 711.5,443.167 711.5,442.5C 711.747,440.025 712.413,440.025 713.5,442.5C 713.376,443.107 713.043,443.44 712.5,443.5 Z"/></g>
<g><path style="opacity:0.004" fill="#120500" d="M 716.5,450.5 C 715.833,450.5 715.5,450.167 715.5,449.5C 715.747,447.025 716.413,447.025 717.5,449.5C 717.376,450.107 717.043,450.44 716.5,450.5 Z"/></g>
<g><path style="opacity:0.004" fill="#090000" d="M 27.5,454.5 C 28.8333,455.167 28.8333,455.167 27.5,454.5 Z"/></g>
<g><path style="opacity:0.004" fill="#090000" d="M 27.5,457.5 C 26.8333,456.167 26.8333,456.167 27.5,457.5 Z"/></g>
<g><path style="opacity:0.004" fill="#100500" d="M 721.5,459.5 C 720.833,459.5 720.5,459.167 720.5,458.5C 720.747,456.025 721.413,456.025 722.5,458.5C 722.376,459.107 722.043,459.44 721.5,459.5 Z"/></g>
<g><path style="opacity:0.004" fill="#090000" d="M 20.5,467.5 C 21.8333,468.167 21.8333,468.167 20.5,467.5 Z"/></g>
<g><path style="opacity:0.004" fill="#090000" d="M 19.5,469.5 C 20.8333,470.167 20.8333,470.167 19.5,469.5 Z"/></g>
<g><path style="opacity:0.004" fill="#090000" d="M 19.5,472.5 C 18.8333,471.167 18.8333,471.167 19.5,472.5 Z"/></g>
<g><path style="opacity:0.004" fill="#090000" d="M 18.5,474.5 C 17.8333,473.167 17.8333,473.167 18.5,474.5 Z"/></g>
<g><path style="opacity:0.004" fill="#120500" d="M 733.5,483.5 C 733.672,482.508 733.338,481.842 732.5,481.5C 732.672,480.508 732.338,479.842 731.5,479.5C 731.672,478.508 731.338,477.842 730.5,477.5C 730.672,476.508 730.338,475.842 729.5,475.5C 729.672,474.508 729.338,473.842 728.5,473.5C 728.672,472.508 728.338,471.842 727.5,471.5C 727.393,469.621 727.893,469.288 729,470.5C 730.667,473.833 732.333,477.167 734,480.5C 734.74,481.749 734.573,482.749 733.5,483.5 Z"/></g>
<g><path style="opacity:0.004" fill="#090000" d="M 17.5,476.5 C 16.8333,475.167 16.8333,475.167 17.5,476.5 Z"/></g>
<g><path style="opacity:0.004" fill="#090000" d="M 16.5,478.5 C 15.8333,477.167 15.8333,477.167 16.5,478.5 Z"/></g>
<g><path style="opacity:0.004" fill="#090000" d="M 14.5,479.5 C 15.8333,480.167 15.8333,480.167 14.5,479.5 Z"/></g>
<g><path style="opacity:0.024" fill="#180800" d="M 10.5,487.5 C 11.525,487.897 11.6917,488.563 11,489.5C 10.5357,488.906 10.369,488.239 10.5,487.5 Z"/></g>
<g><path style="opacity:0.047" fill="#180b00" d="M 737.5,492.5 C 737.672,491.508 737.338,490.842 736.5,490.5C 736.234,488.653 736.568,487.986 737.5,488.5C 738.705,489.995 738.705,491.328 737.5,492.5 Z"/></g>
<g><path style="opacity:0.004" fill="#100300" d="M 6.5,499.5 C 7.57346,500.251 7.74012,501.251 7,502.5C 6.51722,501.552 6.35055,500.552 6.5,499.5 Z"/></g>
<g><path style="opacity:0.024" fill="#1a0b00" d="M 742.5,506.5 C 741.833,505.5 741.167,504.5 740.5,503.5C 740.343,502.127 740.51,500.793 741,499.5C 741.977,501.74 742.477,504.073 742.5,506.5 Z"/></g>
<g><path style="opacity:0.024" fill="#190900" d="M 742.5,506.5 C 743.924,508.515 744.59,510.848 744.5,513.5C 743.833,512.5 743.167,511.5 742.5,510.5C 742.5,509.167 742.5,507.833 742.5,506.5 Z"/></g>
<g><path style="opacity:0.024" fill="#190900" d="M 744.5,513.5 C 745.924,515.515 746.59,517.848 746.5,520.5C 746.167,520.5 745.833,520.5 745.5,520.5C 745.737,519.209 745.404,518.209 744.5,517.5C 744.5,516.167 744.5,514.833 744.5,513.5 Z"/></g>
<g><path style="opacity:0.024" fill="#150600" d="M 2.5,520.5 C 2.16667,520.5 1.83333,520.5 1.5,520.5C 1.83333,516.5 2.16667,516.5 2.5,520.5 Z"/></g>
<g><path style="opacity:0.004" fill="#100300" d="M 1.5,520.5 C 1.64945,521.552 1.48278,522.552 1,523.5C 0.259877,522.251 0.426544,521.251 1.5,520.5 Z"/></g>
<g><path style="opacity:0.004" fill="#150700" d="M 746.5,520.5 C 747.924,522.515 748.59,524.848 748.5,527.5C 748.167,527.5 747.833,527.5 747.5,527.5C 747.737,526.209 747.404,525.209 746.5,524.5C 746.5,523.167 746.5,521.833 746.5,520.5 Z"/></g>
<g><path style="opacity:0.024" fill="#150600" d="M -0.5,524.5 C 0.403972,525.209 0.737305,526.209 0.5,527.5C 0.166667,527.5 -0.166667,527.5 -0.5,527.5C -0.5,526.5 -0.5,525.5 -0.5,524.5 Z"/></g>
</svg>
