<?xml version="1.0" encoding="UTF-8"?>
<!DOCTYPE svg PUBLIC "-//W3C//DTD SVG 1.1//EN" "http://www.w3.org/Graphics/SVG/1.1/DTD/svg11.dtd">
<svg xmlns="http://www.w3.org/2000/svg" version="1.1" width="750px" height="569px" style="shape-rendering:geometricPrecision; text-rendering:geometricPrecision; image-rendering:optimizeQuality; fill-rule:evenodd; clip-rule:evenodd" xmlns:xlink="http://www.w3.org/1999/xlink">
<g><path style="opacity:0.004" fill="#000000" d="M 355.5,-0.5 C 356.833,-0.5 358.167,-0.5 359.5,-0.5C 358.167,0.833333 356.833,0.833333 355.5,-0.5 Z"/></g>
<g><path style="opacity:0.004" fill="#090000" d="M 372.5,-0.5 C 373.167,-0.5 373.833,-0.5 374.5,-0.5C 374.5,-0.166667 374.5,0.166667 374.5,0.5C 373.833,0.5 373.5,0.833333 373.5,1.5C 372.833,1.5 372.5,1.83333 372.5,2.5C 371.833,2.5 371.5,2.83333 371.5,3.5C 370.833,3.5 370.5,3.83333 370.5,4.5C 369.833,4.5 369.5,4.83333 369.5,5.5C 368.5,5.5 367.5,5.5 366.5,5.5C 368.806,3.86058 370.806,1.86058 372.5,-0.5 Z"/></g>
<g><path style="opacity:0.893" fill="#1c0d02" d="M 375.5,-0.5 C 379.833,-0.5 384.167,-0.5 388.5,-0.5C 392.006,1.46834 395.672,3.30167 399.5,5C 405.236,5.74515 410.736,7.24515 416,9.5C 420.226,8.58464 424.393,9.08464 428.5,11C 435.595,14.8814 442.929,18.2148 450.5,21C 452.037,22.7073 453.704,24.2073 455.5,25.5C 455.5,26.1667 455.833,26.5 456.5,26.5C 458.181,29.2028 459.847,31.8695 461.5,34.5C 463.988,40.1451 466.488,45.8118 469,51.5C 469.182,57.8969 469.848,64.2303 471,70.5C 479.757,83.2785 485.257,97.2785 487.5,112.5C 488.734,124.838 488.734,137.171 487.5,149.5C 486.566,150.568 486.232,151.901 486.5,153.5C 485.566,154.568 485.232,155.901 485.5,157.5C 484.167,158.167 484.167,158.833 485.5,159.5C 493.409,158.956 499.075,162.29 502.5,169.5C 504.697,180.771 505.03,192.104 503.5,203.5C 502.596,204.209 502.263,205.209 502.5,206.5C 501.662,206.842 501.328,207.508 501.5,208.5C 500.662,208.842 500.328,209.508 500.5,210.5C 498.735,213.123 498.068,216.123 498.5,219.5C 497.539,221.265 497.205,223.265 497.5,225.5C 496.326,226.514 495.66,227.847 495.5,229.5C 494.662,229.842 494.328,230.508 494.5,231.5C 493.662,231.842 493.328,232.508 493.5,233.5C 492.662,233.842 492.328,234.508 492.5,235.5C 491.833,235.5 491.5,235.833 491.5,236.5C 489.167,238.167 487.167,240.167 485.5,242.5C 484.508,242.328 483.842,242.662 483.5,243.5C 480.833,243.833 480.833,244.167 483.5,244.5C 481.22,246.223 478.553,246.889 475.5,246.5C 475.823,252.69 475.49,258.69 474.5,264.5C 474.167,237.833 473.833,237.833 473.5,264.5C 472.77,270.239 471.77,276.073 470.5,282C 472.19,300.487 473.856,318.987 475.5,337.5C 477.739,338.788 480.072,339.788 482.5,340.5C 494.965,347.902 507.298,355.569 519.5,363.5C 519.5,364.167 519.833,364.5 520.5,364.5C 524.034,367.438 527.367,370.604 530.5,374C 537.078,376.791 543.745,379.291 550.5,381.5C 566.597,388.538 582.93,395.204 599.5,401.5C 625.227,411.697 649.56,424.53 672.5,440C 677.04,444.046 681.707,447.879 686.5,451.5C 686.5,452.167 686.833,452.5 687.5,452.5C 687.5,453.167 687.833,453.5 688.5,453.5C 689.833,455.5 691.5,457.167 693.5,458.5C 693.5,459.167 693.833,459.5 694.5,459.5C 694.5,460.167 694.833,460.5 695.5,460.5C 708.593,477.015 719.926,494.682 729.5,513.5C 736.64,529.929 742.974,546.596 748.5,563.5C 748.232,565.099 748.566,566.432 749.5,567.5C 749.5,567.833 749.5,568.167 749.5,568.5C 747.5,568.5 745.5,568.5 743.5,568.5C 733.542,532.586 717.708,499.586 696,469.5C 683.484,455.663 669.318,443.83 653.5,434C 641.99,427.745 630.323,421.745 618.5,416C 589.207,403.736 559.874,391.569 530.5,379.5C 526.385,405.35 516.885,429.017 502,450.5C 480.087,479.747 454.253,504.914 424.5,526C 408.84,536.832 392.84,547.165 376.5,557C 374.833,557.667 373.167,557.667 371.5,557C 332.272,534.126 296.772,506.293 265,473.5C 249.349,456.219 236.682,436.886 227,415.5C 222.434,404.237 219.601,392.57 218.5,380.5C 186.589,392.639 154.922,405.473 123.5,419C 96.6085,431.244 73.1085,448.077 53,469.5C 31.3079,499.555 15.4746,532.555 5.5,568.5C 3.5,568.5 1.5,568.5 -0.5,568.5C -0.5,568.167 -0.5,567.833 -0.5,567.5C 0.434475,566.432 0.767809,565.099 0.5,563.5C 2.67794,559.949 3.34461,556.116 2.5,552C 3,550.5 3.5,549 4,547.5C 4.33333,548.5 4.66667,549.5 5,550.5C 6.13564,547.904 6.96897,545.237 7.5,542.5C 9.01977,540.11 10.0198,537.443 10.5,534.5C 12.1015,531.898 13.4348,529.064 14.5,526C 13.1981,524.077 13.3648,522.243 15,520.5C 15.3333,521.167 15.6667,521.833 16,522.5C 17.7411,519.691 18.9078,516.691 19.5,513.5C 21.7505,510.001 23.7505,506.335 25.5,502.5C 27.7505,499.001 29.7505,495.335 31.5,491.5C 37.2859,481.253 44.6192,470.92 53.5,460.5C 54.1667,460.5 54.5,460.167 54.5,459.5C 55.1667,459.5 55.5,459.167 55.5,458.5C 56.8333,457.167 58.1667,455.833 59.5,454.5C 60.1667,454.5 60.5,454.167 60.5,453.5C 61.1667,453.5 61.5,453.167 61.5,452.5C 62.1667,452.5 62.5,452.167 62.5,451.5C 69.5109,445.338 76.8442,439.671 84.5,434.5C 85.1667,434.5 85.5,434.167 85.5,433.5C 100.515,424.324 116.181,416.157 132.5,409C 160.724,397.638 188.89,386.138 217,374.5C 218.684,372.983 220.184,371.317 221.5,369.5C 222.167,369.5 222.5,369.167 222.5,368.5C 238.802,357.008 255.802,346.508 273.5,337C 272.833,336.667 272.167,336.333 271.5,336C 272.317,327.912 272.817,319.745 273,311.5C 273.667,315.5 274.333,315.5 275,311.5C 275.18,301.59 275.68,291.756 276.5,282C 274.897,278.017 274.23,273.85 274.5,269.5C 273.5,269.5 272.5,269.5 271.5,269.5C 271.334,265.154 271.501,260.821 272,256.5C 272.333,260.5 272.667,264.5 273,268.5C 273.499,264.179 273.666,259.846 273.5,255.5C 272.5,255.5 271.5,255.5 270.5,255.5C 270.756,253.208 270.423,251.041 269.5,249C 269.833,248.833 270.167,248.667 270.5,248.5C 271.308,250.423 271.808,252.423 272,254.5C 272.667,251.833 272.667,249.167 272,246.5C 266.848,247.024 262.348,245.357 258.5,241.5C 258.5,240.833 258.167,240.5 257.5,240.5C 256.458,238.209 254.958,237.209 253,237.5C 252.383,236.551 252.549,235.718 253.5,235C 252.934,234.005 252.267,233.172 251.5,232.5C 250.148,225.086 249.148,217.753 248.5,210.5C 248.784,208.585 248.451,206.919 247.5,205.5C 247.279,202.933 246.612,200.599 245.5,198.5C 245.768,196.901 245.434,195.568 244.5,194.5C 244.789,191.351 244.289,188.351 243,185.5C 242.237,188.063 241.737,188.063 241.5,185.5C 241.667,184.833 241.833,184.167 242,183.5C 242.667,184.833 243.333,184.833 244,183.5C 243.538,180.171 243.204,176.171 243,171.5C 243.667,172.833 244.333,172.833 245,171.5C 246.81,163.193 251.976,159.193 260.5,159.5C 260.376,158.893 260.043,158.56 259.5,158.5C 259.672,157.508 259.338,156.842 258.5,156.5C 258.279,153.933 257.612,151.599 256.5,149.5C 256.167,144.167 255.833,144.167 255.5,149.5C 254.067,147.086 253.567,144.419 254,141.5C 254.333,142.5 254.667,143.5 255,144.5C 253.298,132.23 253.131,119.897 254.5,107.5C 255.833,106.167 255.833,104.833 254.5,103.5C 254.413,100.402 254.913,100.068 256,102.5C 256.309,101.234 256.809,100.067 257.5,99C 256.906,98.5357 256.239,98.369 255.5,98.5C 255.167,97.1667 254.833,97.1667 254.5,98.5C 250.667,97.4368 250.667,96.6035 254.5,96C 252.481,95.5503 250.648,94.717 249,93.5C 247.869,94.6039 247.035,94.2705 246.5,92.5C 248.102,88.9046 250.102,85.5712 252.5,82.5C 251.435,80.1472 251.602,77.8139 253,75.5C 253.333,76.5 253.667,77.5 254,78.5C 256.199,72.4875 259.699,67.4875 264.5,63.5C 265.167,63.5 265.5,63.1667 265.5,62.5C 267.833,60.8333 269.833,58.8333 271.5,56.5C 272.167,56.5 272.5,56.1667 272.5,55.5C 273.803,53.8577 275.136,52.1911 276.5,50.5C 277.167,50.5 277.5,50.1667 277.5,49.5C 278.163,47.9581 278.83,46.2914 279.5,44.5C 281.541,43.7643 283.541,42.9309 285.5,42C 293.201,33.4816 302.534,27.4816 313.5,24C 313.059,21.5467 313.559,19.0467 315,16.5C 315.333,17.1667 315.667,17.8333 316,18.5C 316.5,17.3333 317.333,16.5 318.5,16C 326.409,16.5351 333.076,14.0351 338.5,8.5C 339.167,8.5 339.5,8.16667 339.5,7.5C 344.985,4.23857 350.985,2.23857 357.5,1.5C 360.892,2.07035 363.892,3.40368 366.5,5.5C 367.5,6.83333 368.5,6.83333 369.5,5.5C 370.167,5.5 370.5,5.16667 370.5,4.5C 371.167,4.5 371.5,4.16667 371.5,3.5C 372.167,3.5 372.5,3.16667 372.5,2.5C 373.167,2.5 373.5,2.16667 373.5,1.5C 374.167,1.5 374.5,1.16667 374.5,0.5C 375.167,0.5 375.5,0.166667 375.5,-0.5 Z"/></g>
<g><path style="opacity:0.004" fill="#0e0100" d="M 391.5,-0.5 C 392.167,-0.5 392.833,-0.5 393.5,-0.5C 392.833,0.833333 392.167,0.833333 391.5,-0.5 Z"/></g>
<g><path style="opacity:0.016" fill="#190200" d="M 351.5,1.5 C 352.251,0.426544 353.251,0.259877 354.5,1C 353.552,1.48278 352.552,1.64945 351.5,1.5 Z"/></g>
<g><path style="opacity:1" fill="#402b1d" d="M 479.5,104.5 C 478.732,105.263 478.232,106.263 478,107.5C 471.196,105.849 464.196,104.849 457,104.5C 456.313,106.568 456.48,108.568 457.5,110.5C 457.03,111.463 456.363,111.463 455.5,110.5C 455.401,102.241 453.901,94.2408 451,86.5C 446.512,76.9959 439.012,71.4959 428.5,70C 418.293,67.6608 407.96,66.4941 397.5,66.5C 390.118,65.1022 382.618,64.4355 375,64.5C 357.837,65.1196 340.67,65.6196 323.5,66C 311.009,68.3272 300.509,74.1606 292,83.5C 286.868,91.0277 284.701,99.361 285.5,108.5C 284.518,105.038 284.185,101.371 284.5,97.5C 278.741,97.7857 273.075,97.4524 267.5,96.5C 272.534,92.0857 273.7,86.7524 271,80.5C 269.667,83.8333 268.333,87.1667 267,90.5C 265.333,91.5 263.667,92.5 262,93.5C 262.564,89.2095 260.731,87.0429 256.5,87C 258.387,83.3414 259.887,79.5081 261,75.5C 268.143,68.689 274.976,61.5224 281.5,54C 284.571,53.8534 287.404,53.0201 290,51.5C 290.167,51.1667 290.333,50.8333 290.5,50.5C 289.335,49.4164 288.002,48.5831 286.5,48C 295.336,39.078 305.669,32.4113 317.5,28C 319.451,26.2658 320.451,24.0991 320.5,21.5C 330.575,21.4624 338.909,17.629 345.5,10C 350.414,8.01238 355.414,7.51238 360.5,8.5C 358.35,10.1491 356.35,11.9824 354.5,14C 364.127,15.0875 372.127,12.0875 378.5,5C 385.806,4.64141 392.473,6.64141 398.5,11C 404.078,11.4827 409.411,12.8161 414.5,15C 416.816,17.3051 418.15,20.1384 418.5,23.5C 421.172,21.5745 422.172,18.9079 421.5,15.5C 422.873,15.3433 424.207,15.51 425.5,16C 432.595,19.8814 439.929,23.2148 447.5,26C 461.771,40.716 467.271,58.216 464,78.5C 466.181,74.7098 468.181,74.7098 470,78.5C 474.662,86.6556 477.829,95.3222 479.5,104.5 Z"/></g>
<g><path style="opacity:0.004" fill="#090000" d="M 339.5,7.5 C 338.833,7.5 338.5,7.83333 338.5,8.5C 336.025,8.2533 336.025,7.58664 338.5,6.5C 339.107,6.62358 339.44,6.95691 339.5,7.5 Z"/></g>
<g><path style="opacity:0.004" fill="#090000" d="M 456.5,26.5 C 455.833,26.5 455.5,26.1667 455.5,25.5C 455.747,23.0248 456.413,23.0248 457.5,25.5C 457.376,26.1067 457.043,26.44 456.5,26.5 Z"/></g>
<g><path style="opacity:0.004" fill="#0e0100" d="M 462.5,34.5 C 462.167,34.5 461.833,34.5 461.5,34.5C 461.833,31.8333 462.167,31.8333 462.5,34.5 Z"/></g>
<g><path style="opacity:0.016" fill="#1e0300" d="M 462.5,34.5 C 463.833,35.1667 463.833,35.1667 462.5,34.5 Z"/></g>
<g><path style="opacity:0.016" fill="#1e0300" d="M 463.5,36.5 C 464.833,37.1667 464.833,37.1667 463.5,36.5 Z"/></g>
<g><path style="opacity:0.016" fill="#1c0200" d="M 277.5,49.5 C 276.833,49.5 276.5,49.8333 276.5,50.5C 275.957,50.44 275.624,50.1067 275.5,49.5C 276.768,44.304 277.435,44.304 277.5,49.5 Z"/></g>
<g><path style="opacity:0.004" fill="#090000" d="M 272.5,55.5 C 271.833,55.5 271.5,55.8333 271.5,56.5C 270.287,55.5029 270.454,54.5029 272,53.5C 272.464,54.0944 272.631,54.7611 272.5,55.5 Z"/></g>
<g><path style="opacity:0.004" fill="#090000" d="M 265.5,62.5 C 264.833,62.5 264.5,62.8333 264.5,63.5C 262.025,63.2533 262.025,62.5866 264.5,61.5C 265.107,61.6236 265.44,61.9569 265.5,62.5 Z"/></g>
<g><path style="opacity:1" fill="#f2ac99" d="M 397.5,66.5 C 407.114,77.3961 413.28,90.0628 416,104.5C 417.782,117.426 415.282,129.426 408.5,140.5C 407.791,141.404 406.791,141.737 405.5,141.5C 400.156,141.334 394.823,141.501 389.5,142C 386.766,142.21 384.266,143.044 382,144.5C 380.375,143.588 379.541,144.255 379.5,146.5C 378.362,149.304 378.195,152.304 379,155.5C 381.335,164.838 383.668,174.172 386,183.5C 386.49,182.207 386.657,180.873 386.5,179.5C 387.117,179.389 387.617,179.056 388,178.5C 397.269,187.036 408.269,191.036 421,190.5C 431.114,191.408 439.948,188.575 447.5,182C 448.944,181.219 450.277,181.386 451.5,182.5C 454.34,189.577 455.173,196.91 454,204.5C 452.6,207.902 450.433,210.736 447.5,213C 443.757,213.951 440.59,215.785 438,218.5C 437.333,222.5 437.333,226.5 438,230.5C 440.644,240.742 442.811,251.076 444.5,261.5C 439.919,269.298 435.252,277.298 430.5,285.5C 427.059,286.607 425.059,288.94 424.5,292.5C 422.844,294.022 421.677,293.689 421,291.5C 420.423,295.042 418.756,297.042 416,297.5C 414.309,300.033 412.809,302.7 411.5,305.5C 407.728,308.232 404.061,311.065 400.5,314C 399.127,314.875 397.627,315.375 396,315.5C 390.173,314.418 384.34,313.418 378.5,312.5C 375.728,312.352 373.228,313.019 371,314.5C 369.278,314.389 369.112,313.889 370.5,313C 368.833,312.833 367.167,312.667 365.5,312.5C 359.797,313.343 354.13,314.343 348.5,315.5C 346.833,315.333 345.167,315.167 343.5,315C 339.756,313.259 336.59,310.759 334,307.5C 333.077,305.076 331.577,303.076 329.5,301.5C 326.094,293.991 322.427,286.658 318.5,279.5C 311.762,272.902 304.762,266.735 297.5,261C 296.175,261.148 295.008,260.982 294,260.5C 293.178,257.883 292.678,255.216 292.5,252.5C 291.5,252.5 290.5,252.5 289.5,252.5C 287.498,246.726 285.998,240.726 285,234.5C 284.062,231.402 282.228,229.069 279.5,227.5C 274.741,214.192 273.408,200.525 275.5,186.5C 277.939,176.47 278.939,166.137 278.5,155.5C 278.401,152.763 278.735,150.096 279.5,147.5C 280.549,141.403 282.716,135.736 286,130.5C 286.814,125.98 286.647,121.646 285.5,117.5C 285.5,114.5 285.5,111.5 285.5,108.5C 284.701,99.361 286.868,91.0277 292,83.5C 300.509,74.1606 311.009,68.3272 323.5,66C 340.67,65.6196 357.837,65.1196 375,64.5C 382.618,64.4355 390.118,65.1022 397.5,66.5 Z"/></g>
<g><path style="opacity:1" fill="#e39888" d="M 397.5,66.5 C 407.96,66.4941 418.293,67.6608 428.5,70C 439.012,71.4959 446.512,76.9959 451,86.5C 453.901,94.2408 455.401,102.241 455.5,110.5C 455.334,117.175 455.5,123.842 456,130.5C 456.608,132.066 457.442,133.4 458.5,134.5C 461.302,138.439 463.302,142.772 464.5,147.5C 465.09,148.766 465.59,150.099 466,151.5C 466.333,159.5 466.667,167.5 467,175.5C 468.777,180.138 469.944,184.805 470.5,189.5C 471.628,196.42 471.795,203.42 471,210.5C 469.319,218.128 467.819,225.795 466.5,233.5C 462.973,238.708 459.473,244.041 456,249.5C 455,249.5 454,249.5 453,249.5C 452.667,250.833 452.333,252.167 452,253.5C 451.333,254.833 450.667,254.833 450,253.5C 449.138,255.087 448.471,256.754 448,258.5C 447.667,258.167 447.333,257.833 447,257.5C 446.066,258.858 445.232,260.192 444.5,261.5C 442.811,251.076 440.644,240.742 438,230.5C 437.333,226.5 437.333,222.5 438,218.5C 440.59,215.785 443.757,213.951 447.5,213C 450.433,210.736 452.6,207.902 454,204.5C 455.173,196.91 454.34,189.577 451.5,182.5C 450.277,181.386 448.944,181.219 447.5,182C 439.948,188.575 431.114,191.408 421,190.5C 408.269,191.036 397.269,187.036 388,178.5C 387.617,179.056 387.117,179.389 386.5,179.5C 386.665,176.15 386.498,172.817 386,169.5C 383.816,161.809 381.649,154.143 379.5,146.5C 379.541,144.255 380.375,143.588 382,144.5C 384.266,143.044 386.766,142.21 389.5,142C 394.823,141.501 400.156,141.334 405.5,141.5C 401.99,143.321 400.657,146.321 401.5,150.5C 415.627,149.851 429.627,150.685 443.5,153C 446.853,154.677 449.853,156.843 452.5,159.5C 453.614,158.277 453.781,156.944 453,155.5C 448.578,146.854 441.412,142.021 431.5,141C 423.841,140.5 416.174,140.334 408.5,140.5C 415.282,129.426 417.782,117.426 416,104.5C 413.28,90.0628 407.114,77.3961 397.5,66.5 Z"/></g>
<g><path style="opacity:0.004" fill="#000000" d="M 254.5,98.5 C 254.833,98.5 255.167,98.5 255.5,98.5C 255.315,99.1701 254.981,99.1701 254.5,98.5 Z"/></g>
<g><path style="opacity:0.016" fill="#160100" d="M 254.5,103.5 C 254.5,104.833 254.5,106.167 254.5,107.5C 254.167,107.5 253.833,107.5 253.5,107.5C 253.232,105.901 253.566,104.568 254.5,103.5 Z"/></g>
<g><path style="opacity:0.016" fill="#1b0200" d="M 253.5,107.5 C 253.66,109.199 253.494,110.866 253,112.5C 252.22,110.613 252.387,108.946 253.5,107.5 Z"/></g>
<g><path style="opacity:0.016" fill="#160100" d="M 488.5,112.5 C 488.167,112.5 487.833,112.5 487.5,112.5C 487.833,104.5 488.167,104.5 488.5,112.5 Z"/></g>
<g><path style="opacity:1" fill="#4a3224" d="M 267.5,96.5 C 273.075,97.4524 278.741,97.7857 284.5,97.5C 284.185,101.371 284.518,105.038 285.5,108.5C 285.5,111.5 285.5,114.5 285.5,117.5C 285.631,118.239 285.464,118.906 285,119.5C 284.667,117.5 284.333,115.5 284,113.5C 283.551,116.577 283.051,119.244 282.5,121.5C 275.5,121.5 268.5,121.5 261.5,121.5C 260.749,120.624 260.249,119.624 260,118.5C 259.501,122.152 259.335,125.818 259.5,129.5C 258.187,119.004 259.52,108.671 263.5,98.5C 264.577,97.2949 265.91,96.6282 267.5,96.5 Z"/></g>
<g><path style="opacity:0.016" fill="#1b0200" d="M 251.5,113.5 C 252.655,120.321 252.821,127.321 252,134.5C 251.5,127.508 251.334,120.508 251.5,113.5 Z"/></g>
<g><path style="opacity:0.016" fill="#170100" d="M 488.5,112.5 C 489.638,115.304 489.805,118.304 489,121.5C 488.502,118.518 488.335,115.518 488.5,112.5 Z"/></g>
<g><path style="opacity:1" fill="#503628" d="M 479.5,104.5 C 480.832,108.264 481.665,112.264 482,116.5C 482.825,126.675 482.658,136.675 481.5,146.5C 481.666,141.821 481.499,137.155 481,132.5C 473.501,133.182 466.001,133.849 458.5,134.5C 457.442,133.4 456.608,132.066 456,130.5C 455.5,123.842 455.334,117.175 455.5,110.5C 456.363,111.463 457.03,111.463 457.5,110.5C 456.48,108.568 456.313,106.568 457,104.5C 464.196,104.849 471.196,105.849 478,107.5C 478.232,106.263 478.732,105.263 479.5,104.5 Z"/></g>
<g><path style="opacity:0.016" fill="#150100" d="M 489.5,122.5 C 490.654,128.987 490.821,135.654 490,142.5C 489.5,135.842 489.334,129.175 489.5,122.5 Z"/></g>
<g><path style="opacity:1" fill="#5b3e2f" d="M 285.5,117.5 C 286.647,121.646 286.814,125.98 286,130.5C 282.716,135.736 280.549,141.403 279.5,147.5C 278.91,145.01 278.743,142.343 279,139.5C 278.641,142.544 277.974,142.878 277,140.5C 276.667,141.167 276.333,141.833 276,142.5C 275.633,138.719 274.3,138.052 272,140.5C 270.57,140.306 269.07,140.306 267.5,140.5C 265.434,137.702 263.934,138.035 263,141.5C 262.506,143.134 262.34,144.801 262.5,146.5C 260.548,141.127 259.548,135.46 259.5,129.5C 259.335,125.818 259.501,122.152 260,118.5C 260.249,119.624 260.749,120.624 261.5,121.5C 268.5,121.5 275.5,121.5 282.5,121.5C 283.051,119.244 283.551,116.577 284,113.5C 284.333,115.5 284.667,117.5 285,119.5C 285.464,118.906 285.631,118.239 285.5,117.5 Z"/></g>
<g><path style="opacity:0.016" fill="#1b0200" d="M 252.5,135.5 C 253.613,136.946 253.78,138.613 253,140.5C 252.506,138.866 252.34,137.199 252.5,135.5 Z"/></g>
<g><path style="opacity:1" fill="#5f4032" d="M 481.5,146.5 C 481.784,148.415 481.451,150.081 480.5,151.5C 481.055,146.675 478.721,145.342 473.5,147.5C 471.5,147.333 469.5,147.167 467.5,147C 466.281,145.205 465.281,145.372 464.5,147.5C 463.302,142.772 461.302,138.439 458.5,134.5C 466.001,133.849 473.501,133.182 481,132.5C 481.499,137.155 481.666,141.821 481.5,146.5 Z"/></g>
<g><path style="opacity:1" fill="#3c2a1d" d="M 408.5,140.5 C 416.174,140.334 423.841,140.5 431.5,141C 441.412,142.021 448.578,146.854 453,155.5C 453.781,156.944 453.614,158.277 452.5,159.5C 449.853,156.843 446.853,154.677 443.5,153C 429.627,150.685 415.627,149.851 401.5,150.5C 400.657,146.321 401.99,143.321 405.5,141.5C 406.791,141.737 407.791,141.404 408.5,140.5 Z"/></g>
<g><path style="opacity:1" fill="#3b291c" d="M 343.5,142.5 C 345.288,145.745 344.622,148.245 341.5,150C 330.5,150.333 319.5,150.667 308.5,151C 303.225,151.614 298.892,153.947 295.5,158C 294.552,158.483 293.552,158.649 292.5,158.5C 295.324,149.511 301.324,143.677 310.5,141C 321.624,140.051 332.624,140.551 343.5,142.5 Z"/></g>
<g><path style="opacity:1" fill="#6f4b3d" d="M 279.5,147.5 C 278.735,150.096 278.401,152.763 278.5,155.5C 277.686,157.631 277.186,159.964 277,162.5C 276.667,160.167 276.333,157.833 276,155.5C 274.235,156.239 272.235,156.239 270,155.5C 268.271,155.974 267.105,156.974 266.5,158.5C 264.26,154.902 262.926,150.902 262.5,146.5C 262.34,144.801 262.506,143.134 263,141.5C 263.934,138.035 265.434,137.702 267.5,140.5C 269.07,140.306 270.57,140.306 272,140.5C 274.3,138.052 275.633,138.719 276,142.5C 276.333,141.833 276.667,141.167 277,140.5C 277.974,142.878 278.641,142.544 279,139.5C 278.743,142.343 278.91,145.01 279.5,147.5 Z"/></g>
<g><path style="opacity:0.016" fill="#160100" d="M 488.5,149.5 C 488.338,147.473 488.505,145.473 489,143.5C 489.789,145.712 489.622,147.712 488.5,149.5 Z"/></g>
<g><path style="opacity:0.016" fill="#160100" d="M 255.5,149.5 C 255.833,149.5 256.167,149.5 256.5,149.5C 256.167,154.833 255.833,154.833 255.5,149.5 Z"/></g>
<g><path style="opacity:1" fill="#e09686" d="M 343.5,142.5 C 346.822,143.658 348.988,145.992 350,149.5C 351.449,154.399 353.449,159.065 356,163.5C 359.216,174.565 355.716,182.732 345.5,188C 328.14,187.268 310.807,187.602 293.5,189C 297.04,187.069 300.374,184.902 303.5,182.5C 300.11,180.08 296.61,177.747 293,175.5C 291.268,169.839 291.101,164.172 292.5,158.5C 293.552,158.649 294.552,158.483 295.5,158C 298.892,153.947 303.225,151.614 308.5,151C 319.5,150.667 330.5,150.333 341.5,150C 344.622,148.245 345.288,145.745 343.5,142.5 Z"/></g>
<g><path style="opacity:0.016" fill="#160100" d="M 487.5,149.5 C 487.833,149.5 488.167,149.5 488.5,149.5C 488.768,151.099 488.434,152.432 487.5,153.5C 487.5,152.167 487.5,150.833 487.5,149.5 Z"/></g>
<g><path style="opacity:0.016" fill="#160100" d="M 486.5,153.5 C 486.833,153.5 487.167,153.5 487.5,153.5C 487.768,155.099 487.434,156.432 486.5,157.5C 486.5,156.167 486.5,154.833 486.5,153.5 Z"/></g>
<g><path style="opacity:1" fill="#110a06" d="M 324.5,155.5 C 333.728,154.303 341.728,156.803 348.5,163C 333.656,154.423 319.989,156.256 307.5,168.5C 307.167,168.333 306.833,168.167 306.5,168C 311.415,162.061 317.415,157.894 324.5,155.5 Z"/></g>
<g><path style="opacity:1" fill="#0f0905" d="M 434.5,163.5 C 423.143,156.593 411.476,155.76 399.5,161C 404.015,156.884 409.348,155.05 415.5,155.5C 423.268,155.08 429.601,157.747 434.5,163.5 Z"/></g>
<g><path style="opacity:1" fill="#7a5345" d="M 480.5,151.5 C 478.693,159.445 475.526,166.778 471,173.5C 470.501,178.823 470.334,184.156 470.5,189.5C 469.944,184.805 468.777,180.138 467,175.5C 466.667,167.5 466.333,159.5 466,151.5C 465.59,150.099 465.09,148.766 464.5,147.5C 465.281,145.372 466.281,145.205 467.5,147C 469.5,147.167 471.5,147.333 473.5,147.5C 478.721,145.342 481.055,146.675 480.5,151.5 Z"/></g>
<g><path style="opacity:0.016" fill="#1b0200" d="M 258.5,156.5 C 258.328,157.492 258.662,158.158 259.5,158.5C 255.959,159.856 255.626,159.189 258.5,156.5 Z"/></g>
<g><path style="opacity:1" fill="#180f09" d="M 379.5,146.5 C 381.649,154.143 383.816,161.809 386,169.5C 386.498,172.817 386.665,176.15 386.5,179.5C 386.657,180.873 386.49,182.207 386,183.5C 383.668,174.172 381.335,164.838 379,155.5C 378.195,152.304 378.362,149.304 379.5,146.5 Z"/></g>
<g><path style="opacity:0.016" fill="#1b0200" d="M 485.5,157.5 C 485.833,157.5 486.167,157.5 486.5,157.5C 488.969,158.317 491.635,158.817 494.5,159C 491.518,159.498 488.518,159.665 485.5,159.5C 485.5,158.833 485.5,158.167 485.5,157.5 Z"/></g>
<g><path style="opacity:0.016" fill="#190200" d="M 252.5,159.5 C 253.251,158.427 254.251,158.26 255.5,159C 254.552,159.483 253.552,159.649 252.5,159.5 Z"/></g>
<g><path style="opacity:1" fill="#906254" d="M 278.5,155.5 C 278.939,166.137 277.939,176.47 275.5,186.5C 275.725,181.752 275.225,177.085 274,172.5C 271.729,167.62 269.229,162.954 266.5,158.5C 267.105,156.974 268.271,155.974 270,155.5C 272.235,156.239 274.235,156.239 276,155.5C 276.333,157.833 276.667,160.167 277,162.5C 277.186,159.964 277.686,157.631 278.5,155.5 Z"/></g>
<g><path style="opacity:1" fill="#302019" d="M 434.5,163.5 C 435.756,163.461 436.756,163.961 437.5,165C 436.002,165.585 435.002,165.085 434.5,163.5 Z"/></g>
<g><path style="opacity:1" fill="#1a110a" d="M 409.5,164.5 C 420.253,163.809 429.92,166.642 438.5,173C 429.086,177.881 419.086,179.548 408.5,178C 404.227,176.97 399.894,176.303 395.5,176C 394.397,174.32 394.73,172.82 396.5,171.5C 401.054,169.392 405.388,167.059 409.5,164.5 Z"/></g>
<g><path style="opacity:0.016" fill="#180200" d="M 503.5,169.5 C 503.167,169.5 502.833,169.5 502.5,169.5C 502.833,166.833 503.167,166.833 503.5,169.5 Z"/></g>
<g><path style="opacity:1" fill="#d7d5d4" d="M 414.5,171.5 C 413.833,171.5 413.167,171.5 412.5,171.5C 411.662,171.158 411.328,170.492 411.5,169.5C 413.332,168.282 414.332,168.949 414.5,171.5 Z"/></g>
<g><path style="opacity:1" fill="#491e12" d="M 411.5,169.5 C 411.328,170.492 411.662,171.158 412.5,171.5C 412.484,173.484 413.484,174.484 415.5,174.5C 417.569,174.215 418.902,173.048 419.5,171C 418.327,167.89 418.827,167.723 421,170.5C 420.686,175.711 417.853,177.545 412.5,176C 409.194,174.005 408.861,171.838 411.5,169.5 Z"/></g>
<g><path style="opacity:1" fill="#7b7775" d="M 423.5,169.5 C 424.601,168.402 425.934,168.235 427.5,169C 428.756,169.417 429.423,170.25 429.5,171.5C 427.579,170.637 425.579,169.971 423.5,169.5 Z"/></g>
<g><path style="opacity:1" fill="#e9e8e7" d="M 423.5,169.5 C 425.579,169.971 427.579,170.637 429.5,171.5C 430.645,172.793 430.311,173.959 428.5,175C 426.866,175.494 425.199,175.66 423.5,175.5C 423.5,173.5 423.5,171.5 423.5,169.5 Z"/></g>
<g><path style="opacity:0.016" fill="#190200" d="M 503.5,169.5 C 504.573,170.251 504.74,171.251 504,172.5C 503.517,171.552 503.351,170.552 503.5,169.5 Z"/></g>
<g><path style="opacity:1" fill="#e8a492" d="M 270.5,178.5 C 270.81,181.713 270.477,184.713 269.5,187.5C 267.024,178.696 261.691,172.363 253.5,168.5C 253.484,166.516 254.484,165.516 256.5,165.5C 260.13,167.315 263.797,169.149 267.5,171C 269.747,172.995 270.747,175.495 270.5,178.5 Z"/></g>
<g><path style="opacity:1" fill="#d4d2d1" d="M 406.5,168.5 C 410.002,175.727 408.335,177.06 401.5,172.5C 403.015,170.918 404.681,169.584 406.5,168.5 Z"/></g>
<g><path style="opacity:1" fill="#a29f9d" d="M 414.5,171.5 C 416.337,171.639 416.67,172.306 415.5,173.5C 414.702,173.043 414.369,172.376 414.5,171.5 Z"/></g>
<g><path style="opacity:1" fill="#e09686" d="M 498.5,181.5 C 497.883,181.389 497.383,181.056 497,180.5C 488.974,187.601 482.14,195.601 476.5,204.5C 475.495,189.014 481.662,177.347 495,169.5C 497.699,172.945 498.865,176.945 498.5,181.5 Z"/></g>
<g><path style="opacity:1" fill="#1b110b" d="M 339.5,177.5 C 337.265,177.205 335.265,177.539 333.5,178.5C 324.279,178.657 315.612,176.657 307.5,172.5C 320.566,162.885 334.232,162.051 348.5,170C 350.607,171.264 351.607,173.097 351.5,175.5C 347.183,175.083 343.183,175.75 339.5,177.5 Z"/></g>
<g><path style="opacity:1" fill="#dedcdb" d="M 342.5,170.5 C 343.091,171.151 343.757,171.818 344.5,172.5C 341.697,174.271 338.697,175.104 335.5,175C 336.252,174.329 336.586,173.496 336.5,172.5C 337.404,171.791 337.737,170.791 337.5,169.5C 339.216,169.629 340.883,169.962 342.5,170.5 Z"/></g>
<g><path style="opacity:1" fill="#cbc9c7" d="M 317.5,168.5 C 318.833,168.5 320.167,168.5 321.5,168.5C 321.318,170.591 321.652,172.591 322.5,174.5C 319.965,175.253 317.465,174.92 315,173.5C 314.751,171.332 315.584,169.665 317.5,168.5 Z"/></g>
<g><path style="opacity:1" fill="#6b6664" d="M 342.5,170.5 C 340.883,169.962 339.216,169.629 337.5,169.5C 337.737,170.791 337.404,171.791 336.5,172.5C 336.5,170.833 336.5,169.167 336.5,167.5C 339.089,167.461 341.089,168.461 342.5,170.5 Z"/></g>
<g><path style="opacity:1" fill="#4a1f13" d="M 325.5,168.5 C 325.5,169.5 325.5,170.5 325.5,171.5C 326.892,174.393 329.059,175.06 332,173.5C 332.72,171.888 332.554,170.388 331.5,169C 333.473,168.462 334.473,169.296 334.5,171.5C 333.53,174.665 331.697,176.332 329,176.5C 323.599,175.343 322.432,172.676 325.5,168.5 Z"/></g>
<g><path style="opacity:1" fill="#d6d4d3" d="M 325.5,168.5 C 329.31,169.246 329.31,170.246 325.5,171.5C 325.5,170.5 325.5,169.5 325.5,168.5 Z"/></g>
<g><path style="opacity:1" fill="#e3a08e" d="M 487.5,165.5 C 490.346,165.03 492.679,165.863 494.5,168C 485.457,170.876 479.123,176.709 475.5,185.5C 474.073,181.342 474.407,177.342 476.5,173.5C 480.766,171.546 484.433,168.879 487.5,165.5 Z"/></g>
<g><path style="opacity:1" fill="#e09686" d="M 253.5,168.5 C 260.362,176.559 265.862,185.559 270,195.5C 270.499,200.155 270.666,204.821 270.5,209.5C 265.177,203.179 259.177,197.512 252.5,192.5C 251.571,193.689 251.238,195.022 251.5,196.5C 250.71,195.391 250.21,194.058 250,192.5C 249.383,185.131 249.717,177.798 251,170.5C 251.417,169.244 252.25,168.577 253.5,168.5 Z"/></g>
<g><path style="opacity:0.016" fill="#1b0200" d="M 504.5,173.5 C 505.598,174.601 505.765,175.934 505,177.5C 504.51,176.207 504.343,174.873 504.5,173.5 Z"/></g>
<g><path style="opacity:1" fill="#926256" d="M 333.5,178.5 C 335.265,177.539 337.265,177.205 339.5,177.5C 340.23,178.712 341.23,179.712 342.5,180.5C 339.495,183.063 336.162,183.73 332.5,182.5C 334.966,181.877 337.299,181.043 339.5,180C 337.655,178.872 335.655,178.372 333.5,178.5 Z"/></g>
<g><path style="opacity:0.016" fill="#1b0200" d="M 505.5,178.5 C 506.654,184.987 506.821,191.654 506,198.5C 505.5,191.842 505.334,185.175 505.5,178.5 Z"/></g>
<g><path style="opacity:1" fill="#1b120d" d="M 405.5,182.5 C 405.56,181.957 405.893,181.624 406.5,181.5C 409.07,182.634 411.736,183.468 414.5,184C 411.259,184.793 408.259,184.293 405.5,182.5 Z"/></g>
<g><path style="opacity:1" fill="#eda996" d="M 498.5,181.5 C 500.699,192.409 498.865,202.743 493,212.5C 493.353,223.964 488.853,232.798 479.5,239C 477.432,239.687 475.432,239.52 473.5,238.5C 472.432,226.977 473.432,215.644 476.5,204.5C 482.14,195.601 488.974,187.601 497,180.5C 497.383,181.056 497.883,181.389 498.5,181.5 Z"/></g>
<g><path style="opacity:1" fill="#704c3e" d="M 270.5,178.5 C 271.806,181.687 271.806,185.02 270.5,188.5C 269.893,188.376 269.56,188.043 269.5,187.5C 270.477,184.713 270.81,181.713 270.5,178.5 Z"/></g>
<g><path style="opacity:0.016" fill="#190200" d="M 243.5,194.5 C 242.378,192.712 242.211,190.712 243,188.5C 243.495,190.473 243.662,192.473 243.5,194.5 Z"/></g>
<g><path style="opacity:1" fill="#f0aa97" d="M 270.5,209.5 C 273.143,219.861 274.143,230.528 273.5,241.5C 270.68,241.752 268.014,241.252 265.5,240C 256.251,232.368 252.751,222.534 255,210.5C 253.515,205.895 252.349,201.228 251.5,196.5C 251.238,195.022 251.571,193.689 252.5,192.5C 259.177,197.512 265.177,203.179 270.5,209.5 Z"/></g>
<g><path style="opacity:0.016" fill="#160100" d="M 243.5,194.5 C 243.833,194.5 244.167,194.5 244.5,194.5C 244.5,195.833 244.5,197.167 244.5,198.5C 243.566,197.432 243.232,196.099 243.5,194.5 Z"/></g>
<g><path style="opacity:0.016" fill="#160100" d="M 244.5,198.5 C 244.833,198.5 245.167,198.5 245.5,198.5C 245.167,203.833 244.833,203.833 244.5,198.5 Z"/></g>
<g><path style="opacity:0.016" fill="#1b0200" d="M 504.5,203.5 C 504.343,202.127 504.51,200.793 505,199.5C 505.765,201.066 505.598,202.399 504.5,203.5 Z"/></g>
<g><path style="opacity:0.016" fill="#190200" d="M 503.5,203.5 C 503.833,203.5 504.167,203.5 504.5,203.5C 504.737,204.791 504.404,205.791 503.5,206.5C 503.5,205.5 503.5,204.5 503.5,203.5 Z"/></g>
<g><path style="opacity:1" fill="#de9585" d="M 396.5,199.5 C 395.957,199.56 395.624,199.893 395.5,200.5C 396.607,205.381 398.774,209.714 402,213.5C 402.837,217.295 402.504,220.961 401,224.5C 399.482,225.163 398.315,226.163 397.5,227.5C 397.083,228.124 396.416,228.457 395.5,228.5C 391.015,225.702 386.682,225.869 382.5,229C 383.094,229.464 383.761,229.631 384.5,229.5C 381.709,230.719 378.876,232.052 376,233.5C 375.502,236.482 375.335,239.482 375.5,242.5C 385.921,240.555 395.921,241.555 405.5,245.5C 404.508,245.328 403.842,245.662 403.5,246.5C 393.909,243.202 384.242,242.869 374.5,245.5C 372.022,245.228 369.689,244.562 367.5,243.5C 367.842,242.662 368.508,242.328 369.5,242.5C 370.833,242.5 372.167,242.5 373.5,242.5C 373.665,239.482 373.498,236.482 373,233.5C 369.568,231.689 366.068,230.355 362.5,229.5C 364.099,229.768 365.432,229.434 366.5,228.5C 364.002,227.373 361.336,226.706 358.5,226.5C 355.183,227.053 351.85,227.386 348.5,227.5C 348.5,226.5 348.5,225.5 348.5,224.5C 349.423,225.303 350.423,225.47 351.5,225C 346.052,218.691 346.219,212.525 352,206.5C 353.167,204.167 354.333,201.833 355.5,199.5C 355.376,198.893 355.043,198.56 354.5,198.5C 355.462,196.014 356.295,196.014 357,198.5C 358,197.5 359,196.5 360,195.5C 360.719,199.145 361.219,202.812 361.5,206.5C 362.675,206.719 363.675,206.386 364.5,205.5C 365.757,203.321 367.257,201.321 369,199.5C 370.244,202.638 370.911,205.972 371,209.5C 371.883,212.102 373.383,214.269 375.5,216C 389.867,219.088 395.034,213.588 391,199.5C 385.932,195.978 386.432,194.812 392.5,196C 394.544,196.498 395.878,197.665 396.5,199.5 Z"/></g>
<g><path style="opacity:0.004" fill="#0e0100" d="M 502.5,206.5 C 502.833,206.5 503.167,206.5 503.5,206.5C 503.672,207.492 503.338,208.158 502.5,208.5C 502.5,207.833 502.5,207.167 502.5,206.5 Z"/></g>
<g><path style="opacity:0.004" fill="#0c0000" d="M 247.5,205.5 C 247.5,207.167 247.5,208.833 247.5,210.5C 246.167,208.833 246.167,207.167 247.5,205.5 Z"/></g>
<g><path style="opacity:1" fill="#1d120b" d="M 354.5,198.5 C 355.043,198.56 355.376,198.893 355.5,199.5C 354.333,201.833 353.167,204.167 352,206.5C 346.219,212.525 346.052,218.691 351.5,225C 350.423,225.47 349.423,225.303 348.5,224.5C 344.724,220.95 343.224,216.616 344,211.5C 346.955,206.713 350.455,202.38 354.5,198.5 Z"/></g>
<g><path style="opacity:0.004" fill="#0e0100" d="M 501.5,208.5 C 501.833,208.5 502.167,208.5 502.5,208.5C 502.672,209.492 502.338,210.158 501.5,210.5C 501.5,209.833 501.5,209.167 501.5,208.5 Z"/></g>
<g><path style="opacity:0.016" fill="#1c0200" d="M 247.5,210.5 C 247.833,210.5 248.167,210.5 248.5,210.5C 248.167,230.5 247.833,230.5 247.5,210.5 Z"/></g>
<g><path style="opacity:0.004" fill="#0e0100" d="M 500.5,210.5 C 500.833,210.5 501.167,210.5 501.5,210.5C 501.167,213.167 500.833,213.167 500.5,210.5 Z"/></g>
<g><path style="opacity:0.004" fill="#0e0100" d="M 499.5,219.5 C 499.338,217.473 499.505,215.473 500,213.5C 500.789,215.712 500.622,217.712 499.5,219.5 Z"/></g>
<g><path style="opacity:1" fill="#1f140d" d="M 396.5,199.5 C 398.725,203.898 401.559,207.898 405,211.5C 406.983,215.959 406.65,220.292 404,224.5C 402.157,226.171 399.991,227.171 397.5,227.5C 398.315,226.163 399.482,225.163 401,224.5C 402.504,220.961 402.837,217.295 402,213.5C 398.774,209.714 396.607,205.381 395.5,200.5C 395.624,199.893 395.957,199.56 396.5,199.5 Z"/></g>
<g><path style="opacity:0.016" fill="#190200" d="M 498.5,219.5 C 498.833,219.5 499.167,219.5 499.5,219.5C 499.795,221.735 499.461,223.735 498.5,225.5C 498.5,223.5 498.5,221.5 498.5,219.5 Z"/></g>
<g><path style="opacity:1" fill="#1d120a" d="M 366.5,228.5 C 363.95,223.457 359.95,219.957 354.5,218C 356.167,217.333 357.833,217.333 359.5,218C 363.447,220.28 367.113,222.947 370.5,226C 372.833,226.667 375.167,226.667 377.5,226C 382.532,220.959 388.532,219.292 395.5,221C 392.768,221.413 390.101,222.08 387.5,223C 381.565,229.487 374.565,231.32 366.5,228.5 Z"/></g>
<g><path style="opacity:0.016" fill="#1e0300" d="M 497.5,225.5 C 497.833,225.5 498.167,225.5 498.5,225.5C 498.167,228.167 497.833,228.167 497.5,225.5 Z"/></g>
<g><path style="opacity:0.016" fill="#1e0300" d="M 248.5,226.5 C 249.573,227.251 249.74,228.251 249,229.5C 248.517,228.552 248.351,227.552 248.5,226.5 Z"/></g>
<g><path style="opacity:0.016" fill="#1e0300" d="M 496.5,228.5 C 497.833,229.167 497.833,229.167 496.5,228.5 Z"/></g>
<g><path style="opacity:1" fill="#3f2b1d" d="M 279.5,227.5 C 282.228,229.069 284.062,231.402 285,234.5C 285.998,240.726 287.498,246.726 289.5,252.5C 290.5,252.5 291.5,252.5 292.5,252.5C 292.678,255.216 293.178,257.883 294,260.5C 295.008,260.982 296.175,261.148 297.5,261C 304.762,266.735 311.762,272.902 318.5,279.5C 322.427,286.658 326.094,293.991 329.5,301.5C 331.577,303.076 333.077,305.076 334,307.5C 336.59,310.759 339.756,313.259 343.5,315C 345.167,315.167 346.833,315.333 348.5,315.5C 354.13,314.343 359.797,313.343 365.5,312.5C 367.167,312.667 368.833,312.833 370.5,313C 369.112,313.889 369.278,314.389 371,314.5C 373.228,313.019 375.728,312.352 378.5,312.5C 384.34,313.418 390.173,314.418 396,315.5C 397.627,315.375 399.127,314.875 400.5,314C 404.061,311.065 407.728,308.232 411.5,305.5C 412.809,302.7 414.309,300.033 416,297.5C 418.756,297.042 420.423,295.042 421,291.5C 421.677,293.689 422.844,294.022 424.5,292.5C 425.059,288.94 427.059,286.607 430.5,285.5C 435.252,277.298 439.919,269.298 444.5,261.5C 445.232,260.192 446.066,258.858 447,257.5C 447.333,257.833 447.667,258.167 448,258.5C 448.471,256.754 449.138,255.087 450,253.5C 450.667,254.833 451.333,254.833 452,253.5C 452.333,252.167 452.667,250.833 453,249.5C 454,249.5 455,249.5 456,249.5C 459.473,244.041 462.973,238.708 466.5,233.5C 468.069,249.744 467.569,266.077 465,282.5C 461.159,297.337 452.992,309.171 440.5,318C 428.862,327.817 416.862,337.15 404.5,346C 394.791,351.042 384.457,353.209 373.5,352.5C 355.041,353.848 339.041,348.348 325.5,336C 311.188,323.029 298.355,308.862 287,293.5C 284.163,288.828 282.163,283.828 281,278.5C 278.709,261.385 278.209,244.385 279.5,227.5 Z"/></g>
<g><path style="opacity:1" fill="#3b291c" d="M 362.5,229.5 C 366.068,230.355 369.568,231.689 373,233.5C 373.498,236.482 373.665,239.482 373.5,242.5C 372.167,242.5 370.833,242.5 369.5,242.5C 363.743,240.687 357.743,240.187 351.5,241C 346.167,242.333 340.833,243.667 335.5,245C 332.244,246.116 329.578,247.949 327.5,250.5C 326.206,251.29 325.039,252.29 324,253.5C 323.273,256.864 322.44,260.197 321.5,263.5C 319.675,264.571 318.508,263.904 318,261.5C 315.297,251.804 317.797,243.971 325.5,238C 337.426,233.369 349.759,230.536 362.5,229.5 Z"/></g>
<g><path style="opacity:0.016" fill="#180200" d="M 495.5,229.5 C 495.833,229.5 496.167,229.5 496.5,229.5C 496.672,230.492 496.338,231.158 495.5,231.5C 495.5,230.833 495.5,230.167 495.5,229.5 Z"/></g>
<g><path style="opacity:0.004" fill="#0e0100" d="M 250.5,232.5 C 249.475,232.103 249.308,231.437 250,230.5C 250.464,231.094 250.631,231.761 250.5,232.5 Z"/></g>
<g><path style="opacity:1" fill="#3c291c" d="M 384.5,229.5 C 399.056,230.149 412.723,233.982 425.5,241C 430.981,246.749 432.814,253.582 431,261.5C 430,262.5 429,263.5 428,264.5C 425.303,252.646 417.803,246.312 405.5,245.5C 395.921,241.555 385.921,240.555 375.5,242.5C 375.335,239.482 375.502,236.482 376,233.5C 378.876,232.052 381.709,230.719 384.5,229.5 Z"/></g>
<g><path style="opacity:0.016" fill="#1e0300" d="M 494.5,231.5 C 494.833,231.5 495.167,231.5 495.5,231.5C 495.672,232.492 495.338,233.158 494.5,233.5C 494.5,232.833 494.5,232.167 494.5,231.5 Z"/></g>
<g><path style="opacity:0.004" fill="#0e0100" d="M 250.5,232.5 C 250.833,232.5 251.167,232.5 251.5,232.5C 251.167,235.167 250.833,235.167 250.5,232.5 Z"/></g>
<g><path style="opacity:0.004" fill="#0e0100" d="M 493.5,233.5 C 493.833,233.5 494.167,233.5 494.5,233.5C 494.672,234.492 494.338,235.158 493.5,235.5C 493.5,234.833 493.5,234.167 493.5,233.5 Z"/></g>
<g><path style="opacity:0.016" fill="#1e0300" d="M 492.5,235.5 C 492.833,235.5 493.167,235.5 493.5,235.5C 493.315,236.17 492.981,236.17 492.5,235.5 Z"/></g>
<g><path style="opacity:1" fill="#1e1511" d="M 315.5,233.5 C 317.657,234.053 317.49,235.053 315,236.5C 314.178,238.788 313.511,241.122 313,243.5C 312.024,239.673 312.857,236.34 315.5,233.5 Z"/></g>
<g><path style="opacity:0.016" fill="#1e0300" d="M 491.5,236.5 C 491.833,236.5 492.167,236.5 492.5,236.5C 492.315,237.17 491.981,237.17 491.5,236.5 Z"/></g>
<g><path style="opacity:1" fill="#201815" d="M 433.5,237.5 C 437.006,239.144 438.506,241.811 438,245.5C 436.644,242.671 435.144,240.004 433.5,237.5 Z"/></g>
<g><path style="opacity:0.004" fill="#130100" d="M 257.5,240.5 C 258.167,240.5 258.5,240.833 258.5,241.5C 258.44,242.043 258.107,242.376 257.5,242.5C 256.227,241.743 256.227,241.077 257.5,240.5 Z"/></g>
<g><path style="opacity:0.016" fill="#1e0300" d="M 485.5,242.5 C 486.833,243.167 486.833,243.167 485.5,242.5 Z"/></g>
<g><path style="opacity:1" fill="#180e08" d="M 367.5,243.5 C 369.689,244.562 372.022,245.228 374.5,245.5C 384.242,242.869 393.909,243.202 403.5,246.5C 405.679,247.677 408.013,248.677 410.5,249.5C 410.44,250.043 410.107,250.376 409.5,250.5C 397.996,246.448 386.33,245.782 374.5,248.5C 362.464,244.929 350.297,244.596 338,247.5C 336.238,247.056 336.405,246.556 338.5,246C 348.007,242.95 357.674,242.116 367.5,243.5 Z"/></g>
<g><path style="opacity:0.016" fill="#180200" d="M 483.5,244.5 C 483.5,244.167 483.5,243.833 483.5,243.5C 484.167,243.5 484.833,243.5 485.5,243.5C 485.158,244.338 484.492,244.672 483.5,244.5 Z"/></g>
<g><path style="opacity:1" fill="#c78677" d="M 369.5,242.5 C 368.508,242.328 367.842,242.662 367.5,243.5C 357.674,242.116 348.007,242.95 338.5,246C 336.405,246.556 336.238,247.056 338,247.5C 350.297,244.596 362.464,244.929 374.5,248.5C 386.33,245.782 397.996,246.448 409.5,250.5C 410.107,250.376 410.44,250.043 410.5,249.5C 413.022,251.172 415.688,252.672 418.5,254C 420.211,255.133 420.711,256.633 420,258.5C 414.833,262.333 410.333,266.833 406.5,272C 401.727,275.383 396.727,278.216 391.5,280.5C 378.276,283.713 365.276,283.046 352.5,278.5C 347.951,276.131 343.785,273.131 340,269.5C 336.721,263.953 332.721,258.953 328,254.5C 327.51,253.207 327.343,251.873 327.5,250.5C 329.578,247.949 332.244,246.116 335.5,245C 340.833,243.667 346.167,242.333 351.5,241C 357.743,240.187 363.743,240.687 369.5,242.5 Z"/></g>
<g><path style="opacity:0.016" fill="#170100" d="M 473.5,264.5 C 473.833,264.5 474.167,264.5 474.5,264.5C 474.167,279.167 473.833,279.167 473.5,264.5 Z"/></g>
<g><path style="opacity:1" fill="#1c1612" d="M 345.5,252.5 C 362.837,252.333 380.17,252.5 397.5,253C 402.101,254.484 406.768,255.65 411.5,256.5C 411.78,259.272 411.113,261.772 409.5,264C 395.151,270.694 380.151,273.361 364.5,272C 353.916,269.739 344.416,265.239 336,258.5C 335.535,257.069 334.701,255.903 333.5,255C 337.767,254.811 341.767,253.977 345.5,252.5 Z"/></g>
<g><path style="opacity:1" fill="#f4f4f3" d="M 339.5,255.5 C 360.849,256.137 382.183,256.303 403.5,256C 408.828,256.936 409.828,259.603 406.5,264C 388.979,269.061 371.313,269.728 353.5,266C 348.997,263.61 344.331,261.61 339.5,260C 338.272,258.51 338.272,257.01 339.5,255.5 Z"/></g>
<g><path style="opacity:0.016" fill="#1c0200" d="M 272.5,270.5 C 273.622,272.288 273.789,274.288 273,276.5C 272.505,274.527 272.338,272.527 272.5,270.5 Z"/></g>
<g><path style="opacity:1" fill="#120a05" d="M 352.5,278.5 C 365.276,283.046 378.276,283.713 391.5,280.5C 390.035,281.737 388.368,282.737 386.5,283.5C 377.928,285.774 369.262,286.107 360.5,284.5C 357.476,282.987 354.809,280.987 352.5,278.5 Z"/></g>
<g><path style="opacity:1" fill="#e09686" d="M 386.5,283.5 C 383.73,288.399 379.397,291.066 373.5,291.5C 368.097,290.968 363.764,288.635 360.5,284.5C 369.262,286.107 377.928,285.774 386.5,283.5 Z"/></g>
<g><path style="opacity:0.016" fill="#180200" d="M 273.5,282.5 C 274.658,291.657 274.824,300.991 274,310.5C 273.5,301.173 273.334,291.839 273.5,282.5 Z"/></g>
<g><path style="opacity:0.016" fill="#180200" d="M 474.5,308.5 C 473.353,304.354 473.186,300.02 474,295.5C 474.499,299.821 474.666,304.154 474.5,308.5 Z"/></g>
<g><path style="opacity:1" fill="#da8f82" d="M 467.5,317.5 C 460.95,321.541 455.117,326.541 450,332.5C 442.949,345.443 434.782,357.609 425.5,369C 416.153,377.57 405.153,382.903 392.5,385C 372.259,388.339 352.592,386.339 333.5,379C 323.404,372.224 316.237,363.058 312,351.5C 304.133,338.466 294.299,327.132 282.5,317.5C 281.833,327.659 281.167,337.659 280.5,347.5C 280.167,329.488 280.5,311.488 281.5,293.5C 285.082,299.914 289.249,305.914 294,311.5C 305.196,323.03 316.696,334.197 328.5,345C 345.523,356.139 364.19,360.139 384.5,357C 393.759,355.703 402.426,352.703 410.5,348C 427.575,335.261 443.741,321.428 459,306.5C 461.333,302.833 463.667,299.167 466,295.5C 467.348,302.761 467.848,310.094 467.5,317.5 Z"/></g>
<g><path style="opacity:0.016" fill="#170100" d="M 474.5,308.5 C 475.648,312.981 475.815,317.648 475,322.5C 474.501,317.845 474.334,313.179 474.5,308.5 Z"/></g>
<g><path style="opacity:1" fill="#f2ac99" d="M 467.5,317.5 C 468.995,328.297 469.829,339.297 470,350.5C 470.511,352.878 471.178,355.212 472,357.5C 472.833,355.5 473.667,353.5 474.5,351.5C 481.179,375.965 474.846,396.465 455.5,413C 429.526,431.437 400.526,440.271 368.5,439.5C 342.23,440.683 317.897,434.516 295.5,421C 270.953,400.532 264.287,375.366 275.5,345.5C 276.575,347.902 277.742,350.236 279,352.5C 279.352,350.753 279.852,349.086 280.5,347.5C 281.167,337.659 281.833,327.659 282.5,317.5C 294.299,327.132 304.133,338.466 312,351.5C 316.237,363.058 323.404,372.224 333.5,379C 352.592,386.339 372.259,388.339 392.5,385C 405.153,382.903 416.153,377.57 425.5,369C 434.782,357.609 442.949,345.443 450,332.5C 455.117,326.541 460.95,321.541 467.5,317.5 Z"/></g>
<g><path style="opacity:0.016" fill="#190200" d="M 475.5,323.5 C 476.647,327.646 476.814,331.98 476,336.5C 475.501,332.179 475.334,327.846 475.5,323.5 Z"/></g>
<g><path style="opacity:0.016" fill="#1e0300" d="M 482.5,339.5 C 483.833,340.167 483.833,340.167 482.5,339.5 Z"/></g>
<g><path style="opacity:0.016" fill="#1e0300" d="M 484.5,340.5 C 485.833,341.167 485.833,341.167 484.5,340.5 Z"/></g>
<g><path style="opacity:1" fill="#aa0000" d="M 261.5,352.5 C 254.437,359.66 251.604,368.326 253,378.5C 256.008,393.513 262.008,407.18 271,419.5C 290.167,445.333 312.667,467.833 338.5,487C 350.324,495.746 362.324,504.246 374.5,512.5C 413.792,487.717 447.959,457.05 477,420.5C 484.248,410.003 489.915,398.67 494,386.5C 495.441,379.89 495.774,373.224 495,366.5C 494.337,362.965 492.837,359.965 490.5,357.5C 489.474,354.628 487.808,352.128 485.5,350C 499.245,356.472 512.079,364.639 524,374.5C 524.289,388.722 521.622,402.388 516,415.5C 508.002,432.846 498.002,448.846 486,463.5C 453.614,499.411 416.447,529.077 374.5,552.5C 331.879,528.405 294.046,498.072 261,461.5C 241.692,439.216 229.025,413.549 223,384.5C 222.333,381.833 222.333,379.167 223,376.5C 230.957,368.925 239.79,362.425 249.5,357C 253.75,354.626 257.916,352.126 262,349.5C 262.47,350.577 262.303,351.577 261.5,352.5 Z"/></g>
<g><path style="opacity:1" fill="#e4e1df" d="M 485.5,356.5 C 488.898,361.639 490.898,367.305 491.5,373.5C 490.745,381.11 488.912,388.443 486,395.5C 476.547,414.562 464.047,431.396 448.5,446C 407.915,465.043 365.915,468.71 322.5,457C 312.11,454.891 303.277,450.057 296,442.5C 281.179,427.677 269.513,410.677 261,391.5C 255.363,378.382 256.529,366.049 264.5,354.5C 265.458,354.047 266.292,353.381 267,352.5C 260.989,397.96 280.156,426.793 324.5,439C 362.048,448.352 398.714,445.685 434.5,431C 470.04,415.483 485.706,389.149 481.5,352C 482.328,353.992 483.661,355.492 485.5,356.5 Z"/></g>
<g><path style="opacity:0.004" fill="#090000" d="M 519.5,363.5 C 520.497,362.287 521.497,362.454 522.5,364C 521.906,364.464 521.239,364.631 520.5,364.5C 519.833,364.5 519.5,364.167 519.5,363.5 Z"/></g>
<g><path style="opacity:0.004" fill="#090000" d="M 222.5,368.5 C 221.833,368.5 221.5,368.833 221.5,369.5C 219.025,369.253 219.025,368.587 221.5,367.5C 222.107,367.624 222.44,367.957 222.5,368.5 Z"/></g>
<g><path style="opacity:0.016" fill="#1e0300" d="M 550.5,381.5 C 550.897,380.475 551.563,380.308 552.5,381C 551.906,381.464 551.239,381.631 550.5,381.5 Z"/></g>
<g><path style="opacity:0.016" fill="#180200" d="M 193.5,382.5 C 193.897,381.475 194.563,381.308 195.5,382C 194.906,382.464 194.239,382.631 193.5,382.5 Z"/></g>
<g><path style="opacity:1" fill="#ab0000" d="M 743.5,568.5 C 497.5,568.5 251.5,568.5 5.5,568.5C 15.4746,532.555 31.3079,499.555 53,469.5C 73.1085,448.077 96.6085,431.244 123.5,419C 154.922,405.473 186.589,392.639 218.5,380.5C 219.601,392.57 222.434,404.237 227,415.5C 236.682,436.886 249.349,456.219 265,473.5C 296.772,506.293 332.272,534.126 371.5,557C 373.167,557.667 374.833,557.667 376.5,557C 392.84,547.165 408.84,536.832 424.5,526C 454.253,504.914 480.087,479.747 502,450.5C 516.885,429.017 526.385,405.35 530.5,379.5C 559.874,391.569 589.207,403.736 618.5,416C 630.323,421.745 641.99,427.745 653.5,434C 669.318,443.83 683.484,455.663 696,469.5C 717.708,499.586 733.542,532.586 743.5,568.5 Z"/></g>
<g><path style="opacity:0.004" fill="#0e0100" d="M 553.5,382.5 C 553.897,381.475 554.563,381.308 555.5,382C 554.906,382.464 554.239,382.631 553.5,382.5 Z"/></g>
<g><path style="opacity:0.016" fill="#180200" d="M 171.5,391.5 C 171.897,390.475 172.563,390.308 173.5,391C 172.906,391.464 172.239,391.631 171.5,391.5 Z"/></g>
<g><path style="opacity:0.016" fill="#1e0300" d="M 599.5,401.5 C 599.897,400.475 600.563,400.308 601.5,401C 600.906,401.464 600.239,401.631 599.5,401.5 Z"/></g>
<g><path style="opacity:0.016" fill="#180200" d="M 144.5,402.5 C 144.897,401.475 145.563,401.308 146.5,402C 145.906,402.464 145.239,402.631 144.5,402.5 Z"/></g>
<g><path style="opacity:0.004" fill="#0e0100" d="M 602.5,402.5 C 602.897,401.475 603.563,401.308 604.5,402C 603.906,402.464 603.239,402.631 602.5,402.5 Z"/></g>
<g><path style="opacity:0.004" fill="#100100" d="M 85.5,433.5 C 84.8333,433.5 84.5,433.833 84.5,434.5C 82.0248,434.253 82.0248,433.587 84.5,432.5C 85.1067,432.624 85.44,432.957 85.5,433.5 Z"/></g>
<g><path style="opacity:1" fill="#1c1109" d="M 261.5,352.5 C 261.905,353.55 262.571,353.55 263.5,352.5C 264.298,352.957 264.631,353.624 264.5,354.5C 256.529,366.049 255.363,378.382 261,391.5C 269.513,410.677 281.179,427.677 296,442.5C 303.277,450.057 312.11,454.891 322.5,457C 365.915,468.71 407.915,465.043 448.5,446C 464.047,431.396 476.547,414.562 486,395.5C 488.912,388.443 490.745,381.11 491.5,373.5C 490.898,367.305 488.898,361.639 485.5,356.5C 485.369,355.761 485.536,355.094 486,354.5C 486.419,355.672 487.085,356.672 488,357.5C 488.77,356.402 489.603,356.402 490.5,357.5C 492.837,359.965 494.337,362.965 495,366.5C 495.774,373.224 495.441,379.89 494,386.5C 489.915,398.67 484.248,410.003 477,420.5C 447.959,457.05 413.792,487.717 374.5,512.5C 362.324,504.246 350.324,495.746 338.5,487C 312.667,467.833 290.167,445.333 271,419.5C 262.008,407.18 256.008,393.513 253,378.5C 251.604,368.326 254.437,359.66 261.5,352.5 Z"/></g>
<g><path style="opacity:0.004" fill="#090000" d="M 62.5,451.5 C 61.8333,451.5 61.5,451.833 61.5,452.5C 60.8333,452.5 60.5,452.833 60.5,453.5C 59.8333,453.5 59.5,453.833 59.5,454.5C 58.7611,454.631 58.0944,454.464 57.5,454C 58.5,453 59.5,452 60.5,451C 61.4368,450.308 62.1034,450.475 62.5,451.5 Z"/></g>
<g><path style="opacity:0.004" fill="#070000" d="M 686.5,451.5 C 688.07,450.441 689.403,450.941 690.5,453C 689.906,453.464 689.239,453.631 688.5,453.5C 687.833,453.5 687.5,453.167 687.5,452.5C 686.833,452.5 686.5,452.167 686.5,451.5 Z"/></g>
<g><path style="opacity:0.004" fill="#060000" d="M 695.5,460.5 C 694.833,460.5 694.5,460.167 694.5,459.5C 693.833,459.5 693.5,459.167 693.5,458.5C 694.286,456.408 695.286,456.741 696.5,459.5C 696.376,460.107 696.043,460.44 695.5,460.5 Z"/></g>
<g><path style="opacity:0.016" fill="#130100" d="M 55.5,458.5 C 54.8333,458.5 54.5,458.833 54.5,459.5C 53.8333,459.5 53.5,459.833 53.5,460.5C 52.4407,458.93 52.9407,457.597 55,456.5C 55.4643,457.094 55.631,457.761 55.5,458.5 Z"/></g>
<g><path style="opacity:1" fill="#e6e3e1" d="M 435.5,456.5 C 436.239,456.369 436.906,456.536 437.5,457C 417.952,475.429 396.952,491.929 374.5,506.5C 353.235,492.693 333.235,477.193 314.5,460C 347.486,468.804 380.819,469.804 414.5,463C 421.851,461.585 428.851,459.419 435.5,456.5 Z"/></g>
<g><path style="opacity:0.016" fill="#180200" d="M 31.5,491.5 C 31.1667,491.5 30.8333,491.5 30.5,491.5C 30.8333,488.833 31.1667,488.833 31.5,491.5 Z"/></g>
<g><path style="opacity:0.016" fill="#1e0300" d="M 30.5,491.5 C 29.8333,492.167 29.8333,492.167 30.5,491.5 Z"/></g>
<g><path style="opacity:0.004" fill="#0e0100" d="M 25.5,502.5 C 25.1667,502.5 24.8333,502.5 24.5,502.5C 24.8333,499.833 25.1667,499.833 25.5,502.5 Z"/></g>
<g><path style="opacity:0.016" fill="#1e0300" d="M 24.5,502.5 C 23.8333,503.167 23.8333,503.167 24.5,502.5 Z"/></g>
<g><path style="opacity:0.016" fill="#180200" d="M 19.5,513.5 C 18.475,513.103 18.3083,512.437 19,511.5C 19.4643,512.094 19.631,512.761 19.5,513.5 Z"/></g>
<g><path style="opacity:0.016" fill="#180200" d="M 730.5,513.5 C 730.167,513.5 729.833,513.5 729.5,513.5C 729.833,510.833 730.167,510.833 730.5,513.5 Z"/></g>
<g><path style="opacity:0.016" fill="#180200" d="M 730.5,513.5 C 731.525,513.897 731.692,514.563 731,515.5C 730.536,514.906 730.369,514.239 730.5,513.5 Z"/></g>
<g><path style="opacity:0.016" fill="#180200" d="M 10.5,529.5 C 11.525,529.897 11.6917,530.563 11,531.5C 10.5357,530.906 10.369,530.239 10.5,529.5 Z"/></g>
<g><path style="opacity:0.016" fill="#1e0300" d="M 10.5,534.5 C 10.1667,534.5 9.83333,534.5 9.5,534.5C 9.83333,531.833 10.1667,531.833 10.5,534.5 Z"/></g>
<g><path style="opacity:0.016" fill="#180200" d="M 9.5,534.5 C 9.63101,535.239 9.46434,535.906 9,536.5C 8.30831,535.563 8.47498,534.897 9.5,534.5 Z"/></g>
<g><path style="opacity:0.016" fill="#130100" d="M 7.5,542.5 C 7.16667,542.5 6.83333,542.5 6.5,542.5C 6.83333,538.5 7.16667,538.5 7.5,542.5 Z"/></g>
<g><path style="opacity:0.016" fill="#180200" d="M 6.5,542.5 C 6.63101,543.239 6.46434,543.906 6,544.5C 5.30831,543.563 5.47498,542.897 6.5,542.5 Z"/></g>
<g><path style="opacity:0.016" fill="#190200" d="M -0.5,560.5 C 0.403972,561.209 0.737305,562.209 0.5,563.5C 0.166667,563.5 -0.166667,563.5 -0.5,563.5C -0.5,562.5 -0.5,561.5 -0.5,560.5 Z"/></g>
<g><path style="opacity:0.016" fill="#190200" d="M 749.5,560.5 C 749.5,561.5 749.5,562.5 749.5,563.5C 749.167,563.5 748.833,563.5 748.5,563.5C 748.263,562.209 748.596,561.209 749.5,560.5 Z"/></g>
</svg>
