<?xml version="1.0" encoding="UTF-8"?>
<!DOCTYPE svg PUBLIC "-//W3C//DTD SVG 1.1//EN" "http://www.w3.org/Graphics/SVG/1.1/DTD/svg11.dtd">
<svg xmlns="http://www.w3.org/2000/svg" version="1.1" width="750px" height="571px" style="shape-rendering:geometricPrecision; text-rendering:geometricPrecision; image-rendering:optimizeQuality; fill-rule:evenodd; clip-rule:evenodd" xmlns:xlink="http://www.w3.org/1999/xlink">
<g><path style="opacity:0.012" fill="#1a0100" d="M 346.5,-0.5 C 347.5,-0.5 348.5,-0.5 349.5,-0.5C 348.5,0.833333 347.5,0.833333 346.5,-0.5 Z"/></g>
<g><path style="opacity:0.94" fill="#1c0c02" d="M 355.5,-0.5 C 364.833,-0.5 374.167,-0.5 383.5,-0.5C 384.919,0.451145 386.585,0.784479 388.5,0.5C 389.568,1.43448 390.901,1.76781 392.5,1.5C 394.214,2.73838 396.214,3.40505 398.5,3.5C 399.93,4.53747 401.597,5.20414 403.5,5.5C 406.515,7.6744 409.849,9.34107 413.5,10.5C 416.291,12.7349 419.291,14.7349 422.5,16.5C 423.436,17.9744 424.77,18.9744 426.5,19.5C 429.474,22.1379 432.474,24.8046 435.5,27.5C 437.091,29.6326 439.091,31.2993 441.5,32.5C 447.833,38.1667 453.833,44.1667 459.5,50.5C 459.427,52.0269 460.094,53.0269 461.5,53.5C 462.34,55.8525 463.674,57.8525 465.5,59.5C 467.326,64.4844 469.659,69.1511 472.5,73.5C 472.263,74.791 472.596,75.791 473.5,76.5C 473.928,79.7846 474.928,82.7846 476.5,85.5C 476.232,87.099 476.566,88.4324 477.5,89.5C 477.565,92.4282 478.232,95.0948 479.5,97.5C 480.862,107.287 481.862,117.12 482.5,127C 482.235,133.215 481.569,139.381 480.5,145.5C 480.861,147.418 481.528,147.751 482.5,146.5C 483.492,146.672 484.158,146.338 484.5,145.5C 489.073,144.769 493.073,145.769 496.5,148.5C 498.799,156.713 499.132,165.046 497.5,173.5C 496.232,175.905 495.565,178.572 495.5,181.5C 494.596,182.209 494.263,183.209 494.5,184.5C 493.566,185.568 493.232,186.901 493.5,188.5C 492.076,190.515 491.41,192.848 491.5,195.5C 490.596,196.209 490.263,197.209 490.5,198.5C 489.596,199.209 489.263,200.209 489.5,201.5C 488.662,201.842 488.328,202.508 488.5,203.5C 487.662,203.842 487.328,204.508 487.5,205.5C 486.662,205.842 486.328,206.508 486.5,207.5C 485.662,207.842 485.328,208.508 485.5,209.5C 484.833,209.5 484.5,209.833 484.5,210.5C 483.094,210.973 482.427,211.973 482.5,213.5C 479.573,214.757 477.239,216.757 475.5,219.5C 474.833,219.5 474.5,219.833 474.5,220.5C 473.209,220.263 472.209,220.596 471.5,221.5C 469.833,221.5 468.167,221.5 466.5,221.5C 466.167,224.833 465.833,228.167 465.5,231.5C 464.232,233.905 463.565,236.572 463.5,239.5C 462.566,240.568 462.232,241.901 462.5,243.5C 461.844,244.622 461.511,245.955 461.5,247.5C 462.35,270.494 463.183,293.494 464,316.5C 465.267,320.572 468.1,322.905 472.5,323.5C 472.842,324.338 473.508,324.672 474.5,324.5C 475.659,326.25 477.326,327.25 479.5,327.5C 479.842,328.338 480.508,328.672 481.5,328.5C 482.659,330.25 484.326,331.25 486.5,331.5C 487.659,333.25 489.326,334.25 491.5,334.5C 493.822,336.664 496.489,338.331 499.5,339.5C 499.973,340.906 500.973,341.573 502.5,341.5C 502.973,342.906 503.973,343.573 505.5,343.5C 511.613,348.074 517.613,352.908 523.5,358C 524.745,358.791 526.078,359.291 527.5,359.5C 528.78,360.931 530.447,361.598 532.5,361.5C 534.181,363.008 536.181,364.008 538.5,364.5C 541.979,366.403 545.646,368.07 549.5,369.5C 552.256,371.204 555.256,372.537 558.5,373.5C 559.78,374.931 561.447,375.598 563.5,375.5C 565.181,377.008 567.181,378.008 569.5,378.5C 570.78,379.931 572.447,380.598 574.5,380.5C 576.181,382.008 578.181,383.008 580.5,383.5C 581.78,384.931 583.447,385.598 585.5,385.5C 587.181,387.008 589.181,388.008 591.5,388.5C 594.979,390.403 598.646,392.07 602.5,393.5C 604.426,395.293 606.759,396.293 609.5,396.5C 619.849,402.341 630.516,407.675 641.5,412.5C 641.842,413.338 642.508,413.672 643.5,413.5C 644.659,415.25 646.326,416.25 648.5,416.5C 649.29,417.401 650.29,418.068 651.5,418.5C 652.945,420.063 654.611,421.396 656.5,422.5C 659.141,424.804 661.808,427.138 664.5,429.5C 674.473,439.139 684.473,448.806 694.5,458.5C 698.507,463.505 702.507,468.505 706.5,473.5C 706.75,475.674 707.75,477.341 709.5,478.5C 709.66,480.153 710.326,481.486 711.5,482.5C 712.584,485.004 713.917,487.337 715.5,489.5C 715.427,491.027 716.094,492.027 717.5,492.5C 717.992,494.819 718.992,496.819 720.5,498.5C 720.427,500.027 721.094,501.027 722.5,501.5C 722.328,502.492 722.662,503.158 723.5,503.5C 726.659,511.151 730.325,518.484 734.5,525.5C 734.402,527.553 735.069,529.22 736.5,530.5C 736.595,532.786 737.262,534.786 738.5,536.5C 738.41,539.152 739.076,541.485 740.5,543.5C 740.41,546.152 741.076,548.485 742.5,550.5C 742.41,553.152 743.076,555.485 744.5,557.5C 744.41,560.152 745.076,562.485 746.5,564.5C 746.263,565.791 746.596,566.791 747.5,567.5C 747.5,568.5 747.5,569.5 747.5,570.5C 745.5,570.5 743.5,570.5 741.5,570.5C 732.707,530.919 715.874,495.253 691,463.5C 676.698,447.858 661.198,433.691 644.5,421C 604.893,401.364 564.893,382.53 524.5,364.5C 524.513,386.444 519.513,407.111 509.5,426.5C 500.279,444.382 487.279,458.715 470.5,469.5C 452.844,479.662 435.844,490.828 419.5,503C 403.723,516.108 388.556,529.942 374,544.5C 343.378,516.287 310.212,491.62 274.5,470.5C 266.595,464.1 259.095,457.1 252,449.5C 246.656,442.143 241.822,434.476 237.5,426.5C 227.743,407.39 223.077,387.057 223.5,365.5C 186.056,381.22 149.056,398.053 112.5,416C 107.833,418.667 103.167,421.333 98.5,424C 83.7277,436.77 69.5611,450.27 56,464.5C 49.5913,472.314 43.9246,480.647 39,489.5C 30.8852,503.396 23.5518,517.729 17,532.5C 13.183,545.104 9.68298,557.771 6.5,570.5C 4.5,570.5 2.5,570.5 0.5,570.5C 0.737305,569.209 0.403972,568.209 -0.5,567.5C -0.5,566.5 -0.5,565.5 -0.5,564.5C 0.5,564.5 1.5,564.5 2.5,564.5C 2.5,563.167 2.5,561.833 2.5,560.5C 3.40397,559.791 3.73731,558.791 3.5,557.5C 4.30577,556.003 4.97244,554.336 5.5,552.5C 4.51529,550.902 4.34862,549.235 5,547.5C 5.33333,548.5 5.66667,549.5 6,550.5C 6.97696,548.26 7.47696,545.927 7.5,543.5C 8.43448,542.432 8.76781,541.099 8.5,539.5C 13.5742,526.676 19.2408,514.009 25.5,501.5C 26.3382,501.158 26.6716,500.492 26.5,499.5C 30.6368,493.172 34.6368,486.672 38.5,480C 37.1669,478.16 37.3335,477.66 39,478.5C 40.0386,477.756 40.5386,476.756 40.5,475.5C 56.5642,455.267 74.5642,436.767 94.5,420C 109.069,411.883 123.736,404.05 138.5,396.5C 139.492,396.672 140.158,396.338 140.5,395.5C 145.251,394.29 149.584,392.29 153.5,389.5C 164.247,385.624 174.581,380.957 184.5,375.5C 188.582,374.624 192.249,372.957 195.5,370.5C 199.582,369.624 203.249,367.957 206.5,365.5C 212.586,363.302 218.586,360.802 224.5,358C 229.065,353.925 233.732,350.091 238.5,346.5C 242.439,344.554 246.106,342.221 249.5,339.5C 258.1,334.89 266.434,329.89 274.5,324.5C 277.331,323.921 279.664,322.588 281.5,320.5C 282.492,320.672 283.158,320.338 283.5,319.5C 285.017,310.525 284.684,301.525 282.5,292.5C 283.561,282.166 283.561,271.666 282.5,261C 282.45,257.397 281.783,254.064 280.5,251C 281.341,249.004 281.008,247.171 279.5,245.5C 279.737,244.209 279.404,243.209 278.5,242.5C 278.768,240.901 278.434,239.568 277.5,238.5C 277.279,235.933 276.612,233.599 275.5,231.5C 274.809,226.402 273.642,221.402 272,216.5C 269.959,217.423 267.792,217.756 265.5,217.5C 265.158,216.662 264.492,216.328 263.5,216.5C 259.774,212.374 257.107,207.707 255.5,202.5C 255.784,200.585 255.451,198.919 254.5,197.5C 254.815,194.789 254.148,192.456 252.5,190.5C 253.377,183.172 254.043,175.672 254.5,168C 254.494,165.967 254.161,164.134 253.5,162.5C 252.969,160.456 251.802,158.789 250,157.5C 249.495,155.482 248.995,153.482 248.5,151.5C 250.141,147.859 252.808,145.192 256.5,143.5C 257.5,143.5 258.5,143.5 259.5,143.5C 259.737,142.209 259.404,141.209 258.5,140.5C 257.933,123.393 258.933,106.393 261.5,89.5C 262.451,88.0813 262.784,86.4147 262.5,84.5C 264.969,78.1196 268.469,70.453 273,61.5C 285.206,44.2768 299.706,29.1102 316.5,16C 323.941,11.2822 331.607,7.11548 339.5,3.5C 340.791,3.73731 341.791,3.40397 342.5,2.5C 347.052,1.94341 351.385,0.943405 355.5,-0.5 Z"/></g>
<g><path style="opacity:0.012" fill="#1a0100" d="M 388.5,0.5 C 388.5,0.166667 388.5,-0.166667 388.5,-0.5C 389.5,-0.5 390.5,-0.5 391.5,-0.5C 390.791,0.403972 389.791,0.737305 388.5,0.5 Z"/></g>
<g><path style="opacity:0.012" fill="#1a0100" d="M 343.5,1.5 C 343.897,0.474981 344.563,0.308314 345.5,1C 344.906,1.46434 344.239,1.63101 343.5,1.5 Z"/></g>
<g><path style="opacity:0.012" fill="#1a0100" d="M 392.5,1.5 C 393.251,0.426544 394.251,0.259877 395.5,1C 394.552,1.48278 393.552,1.64945 392.5,1.5 Z"/></g>
<g><path style="opacity:0.012" fill="#1a0100" d="M 342.5,2.5 C 341.761,2.63101 341.094,2.46434 340.5,2C 341.437,1.30831 342.103,1.47498 342.5,2.5 Z"/></g>
<g><path style="opacity:0.012" fill="#1a0100" d="M 398.5,2.5 C 397.761,2.63101 397.094,2.46434 396.5,2C 397.437,1.30831 398.103,1.47498 398.5,2.5 Z"/></g>
<g><path style="opacity:0.012" fill="#1a0100" d="M 339.5,3.5 C 338.761,3.63101 338.094,3.46434 337.5,3C 338.437,2.30831 339.103,2.47498 339.5,3.5 Z"/></g>
<g><path style="opacity:0.012" fill="#1a0100" d="M 398.5,3.5 C 398.5,3.16667 398.5,2.83333 398.5,2.5C 401.167,2.83333 401.167,3.16667 398.5,3.5 Z"/></g>
<g><path style="opacity:0.012" fill="#1a0100" d="M 334.5,4.5 C 334.897,3.47498 335.563,3.30831 336.5,4C 335.906,4.46434 335.239,4.63101 334.5,4.5 Z"/></g>
<g><path style="opacity:0.012" fill="#1a0100" d="M 403.5,5.5 C 403.897,4.47498 404.563,4.30831 405.5,5C 404.906,5.46434 404.239,5.63101 403.5,5.5 Z"/></g>
<g><path style="opacity:0.012" fill="#1a0100" d="M 406.5,5.5 C 407.833,6.16667 407.833,6.16667 406.5,5.5 Z"/></g>
<g><path style="opacity:0.012" fill="#1a0100" d="M 408.5,6.5 C 409.833,7.16667 409.833,7.16667 408.5,6.5 Z"/></g>
<g><path style="opacity:0.012" fill="#1a0100" d="M 410.5,7.5 C 411.833,8.16667 411.833,8.16667 410.5,7.5 Z"/></g>
<g><path style="opacity:0.012" fill="#1a0100" d="M 413.5,9.5 C 414.833,10.1667 414.833,10.1667 413.5,9.5 Z"/></g>
<g><path style="opacity:0.012" fill="#1a0100" d="M 316.5,13.5 C 317.833,14.1667 317.833,14.1667 316.5,13.5 Z"/></g>
<g><path style="opacity:0.012" fill="#1a0100" d="M 422.5,15.5 C 423.833,16.1667 423.833,16.1667 422.5,15.5 Z"/></g>
<g><path style="opacity:0.012" fill="#1a0100" d="M 312.5,16.5 C 313.833,17.1667 313.833,17.1667 312.5,16.5 Z"/></g>
<g><path style="opacity:0.012" fill="#1a0100" d="M 424.5,16.5 C 425.833,17.1667 425.833,17.1667 424.5,16.5 Z"/></g>
<g><path style="opacity:0.012" fill="#1a0100" d="M 426.5,18.5 C 427.833,19.1667 427.833,19.1667 426.5,18.5 Z"/></g>
<g><path style="opacity:0.012" fill="#1a0100" d="M 428.5,19.5 C 429.833,20.1667 429.833,20.1667 428.5,19.5 Z"/></g>
<g><path style="opacity:0.012" fill="#1a0100" d="M 307.5,20.5 C 308.833,21.1667 308.833,21.1667 307.5,20.5 Z"/></g>
<g><path style="opacity:0.012" fill="#1a0100" d="M 307.5,21.5 C 306.833,22.1667 306.833,22.1667 307.5,21.5 Z"/></g>
<g><path style="opacity:0.012" fill="#1a0100" d="M 435.5,26.5 C 436.833,27.1667 436.833,27.1667 435.5,26.5 Z"/></g>
<g><path style="opacity:0.012" fill="#1a0100" d="M 438.5,28.5 C 437.833,27.1667 437.833,27.1667 438.5,28.5 Z"/></g>
<g><path style="opacity:0.012" fill="#1a0100" d="M 438.5,28.5 C 439.833,29.1667 439.833,29.1667 438.5,28.5 Z"/></g>
<g><path style="opacity:0.012" fill="#1a0100" d="M 441.5,31.5 C 442.833,32.1667 442.833,32.1667 441.5,31.5 Z"/></g>
<g><path style="opacity:0.012" fill="#1a0100" d="M 443.5,32.5 C 444.833,33.1667 444.833,33.1667 443.5,32.5 Z"/></g>
<g><path style="opacity:0.012" fill="#1a0100" d="M 293.5,33.5 C 294.833,34.1667 294.833,34.1667 293.5,33.5 Z"/></g>
<g><path style="opacity:0.012" fill="#1a0100" d="M 293.5,34.5 C 292.833,35.1667 292.833,35.1667 293.5,34.5 Z"/></g>
<g><path style="opacity:0.012" fill="#1a0100" d="M 292.5,35.5 C 291.833,36.1667 291.833,36.1667 292.5,35.5 Z"/></g>
<g><path style="opacity:1" fill="#ba785f" d="M 403.5,36.5 C 404.919,37.4511 406.585,37.7845 408.5,37.5C 414.109,51.105 417.443,65.2717 418.5,80C 418.723,89.4937 416.056,97.9937 410.5,105.5C 405.248,106.285 399.915,106.785 394.5,107C 390.581,108.764 387.914,111.598 386.5,115.5C 382.779,120.21 379.112,124.876 375.5,129.5C 372.974,131.929 372.141,134.929 373,138.5C 376.293,146.893 379.46,155.227 382.5,163.5C 382.351,164.552 382.517,165.552 383,166.5C 383.192,164.423 383.692,162.423 384.5,160.5C 397.284,167.192 410.951,170.192 425.5,169.5C 435.663,170.368 445.163,168.368 454,163.5C 455.653,163.82 456.653,164.82 457,166.5C 460.005,177.158 458.672,187.158 453,196.5C 447.876,200.312 442.376,203.479 436.5,206C 434.273,208.564 432.439,211.397 431,214.5C 431.464,227.158 431.797,239.825 432,252.5C 426.809,263.858 418.309,271.692 406.5,276C 397.81,281.679 389.477,287.846 381.5,294.5C 379.369,295.169 377.369,295.835 375.5,296.5C 374.504,296.414 373.671,296.748 373,297.5C 370,296.167 367,294.833 364,293.5C 363.167,294.333 362.333,295.167 361.5,296C 356.876,296.135 352.543,295.635 348.5,294.5C 348.167,295.167 347.833,295.833 347.5,296.5C 345.417,295.041 343.25,293.708 341,292.5C 340.667,290.833 340.333,289.167 340,287.5C 335.66,283.464 331.327,279.464 327,275.5C 323.665,276.539 322.165,278.872 322.5,282.5C 322.86,286.517 323.36,290.517 324,294.5C 324.465,295.931 325.299,297.097 326.5,298C 326.167,298.167 325.833,298.333 325.5,298.5C 303.058,282.321 288.558,260.654 282,233.5C 275.85,213.101 272.683,192.267 272.5,171C 273.093,153.844 273.259,136.678 273,119.5C 273.947,104.921 276.28,90.5872 280,76.5C 285.501,62.6926 293.668,50.8593 304.5,41C 317.341,38.2155 330.341,36.5488 343.5,36C 363.543,35.1907 383.543,35.3574 403.5,36.5 Z"/></g>
<g><path style="opacity:1" fill="#a96752" d="M 403.5,36.5 C 420.164,35.8723 433.331,42.2056 443,55.5C 453.686,74.5532 461.019,94.8865 465,116.5C 465.146,128.58 466.146,140.58 468,152.5C 468.622,187.765 463.289,222.098 452,255.5C 443.903,270.765 433.07,283.765 419.5,294.5C 418.195,289.536 417.029,284.536 416,279.5C 410.709,274.796 406.709,275.796 404,282.5C 403.333,281.167 402.667,281.167 402,282.5C 401.592,285.42 400.259,287.754 398,289.5C 398,288.167 398,286.833 398,285.5C 395.167,289.667 391.667,293.167 387.5,296C 383.623,295.993 379.623,296.16 375.5,296.5C 377.369,295.835 379.369,295.169 381.5,294.5C 389.477,287.846 397.81,281.679 406.5,276C 418.309,271.692 426.809,263.858 432,252.5C 431.797,239.825 431.464,227.158 431,214.5C 432.439,211.397 434.273,208.564 436.5,206C 442.376,203.479 447.876,200.312 453,196.5C 458.672,187.158 460.005,177.158 457,166.5C 456.653,164.82 455.653,163.82 454,163.5C 445.163,168.368 435.663,170.368 425.5,169.5C 410.951,170.192 397.284,167.192 384.5,160.5C 383.692,162.423 383.192,164.423 383,166.5C 382.517,165.552 382.351,164.552 382.5,163.5C 382.498,154.32 380.331,145.653 376,137.5C 375.503,134.854 375.336,132.187 375.5,129.5C 379.112,124.876 382.779,120.21 386.5,115.5C 387.117,117.229 388.117,118.729 389.5,120C 404.499,119.971 419.499,119.971 434.5,120C 440.207,121.507 445.54,123.673 450.5,126.5C 447.966,114.807 440.633,107.974 428.5,106C 422.509,105.501 416.509,105.334 410.5,105.5C 416.056,97.9937 418.723,89.4937 418.5,80C 417.443,65.2717 414.109,51.105 408.5,37.5C 406.585,37.7845 404.919,37.4511 403.5,36.5 Z"/></g>
<g><path style="opacity:0.012" fill="#1a0100" d="M 288.5,38.5 C 289.833,39.1667 289.833,39.1667 288.5,38.5 Z"/></g>
<g><path style="opacity:0.012" fill="#1a0100" d="M 288.5,39.5 C 287.833,40.1667 287.833,40.1667 288.5,39.5 Z"/></g>
<g><path style="opacity:0.012" fill="#1a0100" d="M 287.5,40.5 C 286.833,41.1667 286.833,41.1667 287.5,40.5 Z"/></g>
<g><path style="opacity:0.012" fill="#1a0100" d="M 286.5,41.5 C 285.833,42.1667 285.833,42.1667 286.5,41.5 Z"/></g>
<g><path style="opacity:0.012" fill="#1a0100" d="M 280.5,47.5 C 281.833,48.1667 281.833,48.1667 280.5,47.5 Z"/></g>
<g><path style="opacity:0.012" fill="#1a0100" d="M 460.5,50.5 C 459.833,49.1667 459.833,49.1667 460.5,50.5 Z"/></g>
<g><path style="opacity:0.012" fill="#1a0100" d="M 460.5,50.5 C 461.833,51.1667 461.833,51.1667 460.5,50.5 Z"/></g>
<g><path style="opacity:0.012" fill="#1a0100" d="M 462.5,53.5 C 461.833,52.1667 461.833,52.1667 462.5,53.5 Z"/></g>
<g><path style="opacity:0.012" fill="#1a0100" d="M 462.5,53.5 C 463.833,54.1667 463.833,54.1667 462.5,53.5 Z"/></g>
<g><path style="opacity:0.012" fill="#1a0100" d="M 465.5,58.5 C 466.833,59.1667 466.833,59.1667 465.5,58.5 Z"/></g>
<g><path style="opacity:0.012" fill="#1a0100" d="M 472.5,73.5 C 472.369,72.7611 472.536,72.0944 473,71.5C 473.692,72.4368 473.525,73.1034 472.5,73.5 Z"/></g>
<g><path style="opacity:0.012" fill="#1a0100" d="M 264.5,74.5 C 265.833,75.1667 265.833,75.1667 264.5,74.5 Z"/></g>
<g><path style="opacity:0.012" fill="#1a0100" d="M 474.5,76.5 C 474.167,76.5 473.833,76.5 473.5,76.5C 473.833,73.8333 474.167,73.8333 474.5,76.5 Z"/></g>
<g><path style="opacity:0.012" fill="#1a0100" d="M 474.5,76.5 C 475.525,76.8966 475.692,77.5632 475,78.5C 474.536,77.9056 474.369,77.2389 474.5,76.5 Z"/></g>
<g><path style="opacity:0.012" fill="#1a0100" d="M 475.5,79.5 C 476.525,79.8966 476.692,80.5632 476,81.5C 475.536,80.9056 475.369,80.2389 475.5,79.5 Z"/></g>
<g><path style="opacity:0.012" fill="#1a0100" d="M 262.5,84.5 C 261.475,84.1034 261.308,83.4368 262,82.5C 262.464,83.0944 262.631,83.7611 262.5,84.5 Z"/></g>
<g><path style="opacity:0.012" fill="#1a0100" d="M 476.5,85.5 C 476.351,84.448 476.517,83.448 477,82.5C 477.74,83.7494 477.573,84.7494 476.5,85.5 Z"/></g>
<g><path style="opacity:0.012" fill="#1a0100" d="M 261.5,89.5 C 260.402,88.3991 260.235,87.0657 261,85.5C 261.49,86.7932 261.657,88.1266 261.5,89.5 Z"/></g>
<g><path style="opacity:0.012" fill="#1a0100" d="M 478.5,89.5 C 478.167,89.5 477.833,89.5 477.5,89.5C 477.833,85.5 478.167,85.5 478.5,89.5 Z"/></g>
<g><path style="opacity:0.012" fill="#1a0100" d="M 478.5,89.5 C 479.573,90.2506 479.74,91.2506 479,92.5C 478.517,91.552 478.351,90.552 478.5,89.5 Z"/></g>
<g><path style="opacity:0.012" fill="#1a0100" d="M 259.5,90.5 C 260.598,91.6009 260.765,92.9343 260,94.5C 259.51,93.2068 259.343,91.8734 259.5,90.5 Z"/></g>
<g><path style="opacity:0.012" fill="#1a0100" d="M 479.5,97.5 C 479.351,96.448 479.517,95.448 480,94.5C 480.74,95.7494 480.573,96.7494 479.5,97.5 Z"/></g>
<g><path style="opacity:0.012" fill="#1a0100" d="M 258.5,96.5 C 259.598,97.6009 259.765,98.9343 259,100.5C 258.51,99.2068 258.343,97.8734 258.5,96.5 Z"/></g>
<g><path style="opacity:0.012" fill="#1a0100" d="M 480.5,98.5 C 481.598,99.6009 481.765,100.934 481,102.5C 480.51,101.207 480.343,99.8734 480.5,98.5 Z"/></g>
<g><path style="opacity:0.012" fill="#1a0100" d="M 257.5,102.5 C 258.622,104.288 258.789,106.288 258,108.5C 257.505,106.527 257.338,104.527 257.5,102.5 Z"/></g>
<g><path style="opacity:0.012" fill="#1a0100" d="M 481.5,103.5 C 482.613,104.946 482.78,106.613 482,108.5C 481.506,106.866 481.34,105.199 481.5,103.5 Z"/></g>
<g><path style="opacity:1" fill="#1c0c02" d="M 344.5,114.5 C 343.596,115.209 343.263,116.209 343.5,117.5C 331.495,117.333 319.495,117.5 307.5,118C 299.308,118.93 292.308,122.263 286.5,128C 285.563,128.692 284.897,128.525 284.5,127.5C 287.153,116.678 293.82,109.511 304.5,106C 315.176,104.132 325.843,104.132 336.5,106C 338.351,106.837 340.184,107.671 342,108.5C 342.308,107.692 342.808,107.025 343.5,106.5C 344.48,109.086 344.813,111.753 344.5,114.5 Z"/></g>
<g><path style="opacity:1" fill="#1c0c02" d="M 410.5,105.5 C 416.509,105.334 422.509,105.501 428.5,106C 440.633,107.974 447.966,114.807 450.5,126.5C 445.54,123.673 440.207,121.507 434.5,120C 419.499,119.971 404.499,119.971 389.5,120C 388.117,118.729 387.117,117.229 386.5,115.5C 387.914,111.598 390.581,108.764 394.5,107C 399.915,106.785 405.248,106.285 410.5,105.5 Z"/></g>
<g><path style="opacity:0.012" fill="#1a0100" d="M 256.5,110.5 C 257.643,113.976 257.81,117.642 257,121.5C 256.501,117.848 256.335,114.182 256.5,110.5 Z"/></g>
<g><path style="opacity:0.012" fill="#1a0100" d="M 482.5,110.5 C 483.634,112.966 483.801,115.633 483,118.5C 482.503,115.854 482.336,113.187 482.5,110.5 Z"/></g>
<g><path style="opacity:1" fill="#a66550" d="M 344.5,114.5 C 344.773,116.451 344.107,117.951 342.5,119C 344.215,125.925 346.882,132.425 350.5,138.5C 349.097,142.717 348.264,147.051 348,151.5C 340.419,154.282 332.919,157.449 325.5,161C 310.138,160.085 294.804,159.585 279.5,159.5C 282.054,157.292 284.554,154.959 287,152.5C 289.263,147.01 287.596,143.01 282,140.5C 281.333,137.5 281.333,134.5 282,131.5C 282.2,129.68 283.034,128.347 284.5,127.5C 284.897,128.525 285.563,128.692 286.5,128C 292.308,122.263 299.308,118.93 307.5,118C 319.495,117.5 331.495,117.333 343.5,117.5C 343.263,116.209 343.596,115.209 344.5,114.5 Z"/></g>
<g><path style="opacity:0.012" fill="#1a0100" d="M 483.5,122.5 C 484.638,125.304 484.805,128.304 484,131.5C 483.502,128.518 483.335,125.518 483.5,122.5 Z"/></g>
<g><path style="opacity:1" fill="#0e0502" d="M 405.5,128.5 C 411.509,128.334 417.509,128.501 423.5,129C 427.928,129.697 431.928,131.363 435.5,134C 432.216,133.243 428.883,132.243 425.5,131C 415.943,129.776 406.61,130.61 397.5,133.5C 396.304,133.154 396.304,132.654 397.5,132C 400.158,130.522 402.825,129.355 405.5,128.5 Z"/></g>
<g><path style="opacity:1" fill="#140a05" d="M 311.5,127.5 C 317.176,127.334 322.843,127.501 328.5,128C 332.112,129.139 335.446,130.806 338.5,133C 325.488,127.845 312.654,128.678 300,135.5C 299.5,135.333 299,135.167 298.5,135C 302.673,132.019 307.006,129.519 311.5,127.5 Z"/></g>
<g><path style="opacity:0.012" fill="#1a0100" d="M 256.5,130.5 C 257.638,133.304 257.805,136.304 257,139.5C 256.502,136.518 256.335,133.518 256.5,130.5 Z"/></g>
<g><path style="opacity:1" fill="#190e07" d="M 312.5,133.5 C 318.577,133.196 324.577,133.696 330.5,135C 334.731,137.403 339.064,139.57 343.5,141.5C 344.415,142.328 345.081,143.328 345.5,144.5C 330.343,148.452 315.01,149.285 299.5,147C 298.241,146.077 296.908,145.243 295.5,144.5C 300.377,139.565 306.044,135.898 312.5,133.5 Z"/></g>
<g><path style="opacity:0.012" fill="#1a0100" d="M 482.5,136.5 C 483.622,138.288 483.789,140.288 483,142.5C 482.505,140.527 482.338,138.527 482.5,136.5 Z"/></g>
<g><path style="opacity:1" fill="#d6d7d8" d="M 314.5,137.5 C 315.978,137.238 317.311,137.571 318.5,138.5C 317.68,140.111 316.346,140.778 314.5,140.5C 314.5,139.5 314.5,138.5 314.5,137.5 Z"/></g>
<g><path style="opacity:1" fill="#1a0d06" d="M 408.5,134.5 C 419.191,133.506 429.191,135.673 438.5,141C 439.357,141.689 440.023,142.522 440.5,143.5C 431.222,150.073 420.889,152.24 409.5,150C 408.051,148.883 406.384,148.216 404.5,148C 399.833,147.667 395.167,147.333 390.5,147C 389.5,144.909 390.167,143.243 392.5,142C 397.783,139.189 403.116,136.689 408.5,134.5 Z"/></g>
<g><path style="opacity:1" fill="#949798" d="M 312.5,142.5 C 311.778,142.082 311.278,141.416 311,140.5C 309.53,141.267 308.03,141.933 306.5,142.5C 306.651,138.686 308.651,137.019 312.5,137.5C 312.5,139.167 312.5,140.833 312.5,142.5 Z"/></g>
<g><path style="opacity:1" fill="#e8e8e8" d="M 412.5,141.5 C 411.5,141.5 410.5,141.5 409.5,141.5C 409.5,140.5 409.5,139.5 409.5,138.5C 410.5,138.5 411.5,138.5 412.5,138.5C 412.5,139.5 412.5,140.5 412.5,141.5 Z"/></g>
<g><path style="opacity:1" fill="#85898b" d="M 429.5,141.5 C 427.738,141.643 426.071,141.309 424.5,140.5C 423.818,141.243 423.151,141.909 422.5,142.5C 422.5,140.833 422.5,139.167 422.5,137.5C 426.002,137.076 428.335,138.41 429.5,141.5 Z"/></g>
<g><path style="opacity:0.012" fill="#1a0100" d="M 258.5,140.5 C 258.631,141.239 258.464,141.906 258,142.5C 257.308,141.563 257.475,140.897 258.5,140.5 Z"/></g>
<g><path style="opacity:1" fill="#9da0a1" d="M 335.5,142.5 C 333.167,141.833 330.833,141.167 328.5,140.5C 328.343,139.127 328.51,137.793 329,136.5C 332.214,137.498 334.381,139.498 335.5,142.5 Z"/></g>
<g><path style="opacity:1" fill="#9b9fa0" d="M 406.5,141.5 C 404.287,141.848 402.287,142.681 400.5,144C 401.416,144.278 402.082,144.778 402.5,145.5C 401.5,145.5 400.5,145.5 399.5,145.5C 399.455,140.878 401.788,138.545 406.5,138.5C 406.5,139.5 406.5,140.5 406.5,141.5 Z"/></g>
<g><path style="opacity:1" fill="#e8e8e8" d="M 312.5,142.5 C 313.028,143.721 313.695,144.887 314.5,146C 312.098,146.814 309.765,146.647 307.5,145.5C 306.873,144.583 306.539,143.583 306.5,142.5C 308.03,141.933 309.53,141.267 311,140.5C 311.278,141.416 311.778,142.082 312.5,142.5 Z"/></g>
<g><path style="opacity:1" fill="#8b8e90" d="M 318.5,140.5 C 320.337,140.639 320.67,141.306 319.5,142.5C 318.702,142.043 318.369,141.376 318.5,140.5 Z"/></g>
<g><path style="opacity:1" fill="#e9e9e9" d="M 328.5,140.5 C 330.833,141.167 333.167,141.833 335.5,142.5C 333.897,144.294 331.73,145.294 329,145.5C 328.5,145.167 328,144.833 327.5,144.5C 328.246,143.264 328.579,141.93 328.5,140.5 Z"/></g>
<g><path style="opacity:1" fill="#8b8e90" d="M 412.5,141.5 C 414.337,141.639 414.67,142.306 413.5,143.5C 412.702,143.043 412.369,142.376 412.5,141.5 Z"/></g>
<g><path style="opacity:1" fill="#e3e3e3" d="M 429.5,141.5 C 429.498,146.332 426.998,148.666 422,148.5C 421.167,148.333 420.333,148.167 419.5,148C 421.607,146.736 422.607,144.903 422.5,142.5C 423.151,141.909 423.818,141.243 424.5,140.5C 426.071,141.309 427.738,141.643 429.5,141.5 Z"/></g>
<g><path style="opacity:0.012" fill="#1a0100" d="M 256.5,143.5 C 255.761,143.631 255.094,143.464 254.5,143C 255.437,142.308 256.103,142.475 256.5,143.5 Z"/></g>
<g><path style="opacity:1" fill="#834f3d" d="M 337.5,141.5 C 342.639,142.941 342.639,143.941 337.5,144.5C 337.5,143.5 337.5,142.5 337.5,141.5 Z"/></g>
<g><path style="opacity:1" fill="#e8e8e8" d="M 406.5,141.5 C 406.751,143.17 407.418,144.67 408.5,146C 406.455,146.49 404.455,146.323 402.5,145.5C 402.082,144.778 401.416,144.278 400.5,144C 402.287,142.681 404.287,141.848 406.5,141.5 Z"/></g>
<g><path style="opacity:0.012" fill="#1a0100" d="M 252.5,143.5 C 253.833,144.167 253.833,144.167 252.5,143.5 Z"/></g>
<g><path style="opacity:0.012" fill="#1a0100" d="M 485.5,144.5 C 487.628,143.371 489.961,143.204 492.5,144C 490.19,144.497 487.857,144.663 485.5,144.5 Z"/></g>
<g><path style="opacity:1" fill="#754635" d="M 395.5,142.5 C 396.995,142.415 397.995,143.081 398.5,144.5C 396.833,145.833 395.167,145.833 393.5,144.5C 394.243,143.818 394.909,143.151 395.5,142.5 Z"/></g>
<g><path style="opacity:0.012" fill="#1a0100" d="M 484.5,145.5 C 483.508,145.328 482.842,145.662 482.5,146.5C 481.115,145.698 481.282,145.031 483,144.5C 483.765,144.57 484.265,144.903 484.5,145.5 Z"/></g>
<g><path style="opacity:0.012" fill="#1a0100" d="M 497.5,148.5 C 496.833,147.167 496.833,147.167 497.5,148.5 Z"/></g>
<g><path style="opacity:0.012" fill="#1a0100" d="M 497.5,148.5 C 498.833,149.167 498.833,149.167 497.5,148.5 Z"/></g>
<g><path style="opacity:0.012" fill="#1a0100" d="M 248.5,151.5 C 247.475,151.103 247.308,150.437 248,149.5C 248.464,150.094 248.631,150.761 248.5,151.5 Z"/></g>
<g><path style="opacity:1" fill="#180b03" d="M 375.5,129.5 C 375.336,132.187 375.503,134.854 376,137.5C 380.331,145.653 382.498,154.32 382.5,163.5C 379.46,155.227 376.293,146.893 373,138.5C 372.141,134.929 372.974,131.929 375.5,129.5 Z"/></g>
<g><path style="opacity:0.012" fill="#1a0100" d="M 498.5,150.5 C 499.525,150.897 499.692,151.563 499,152.5C 498.536,151.906 498.369,151.239 498.5,150.5 Z"/></g>
<g><path style="opacity:1" fill="#b3725a" d="M 256.5,149.5 C 265.453,149.964 268.953,154.63 267,163.5C 263.786,158.618 259.619,154.785 254.5,152C 255.381,151.292 256.047,150.458 256.5,149.5 Z"/></g>
<g><path style="opacity:1" fill="#b17159" d="M 491.5,154.5 C 483.956,157.873 478.123,163.207 474,170.5C 473.501,165.511 473.334,160.511 473.5,155.5C 478.948,154.24 484.281,152.573 489.5,150.5C 491.886,151.262 492.552,152.595 491.5,154.5 Z"/></g>
<g><path style="opacity:0.012" fill="#1a0100" d="M 499.5,153.5 C 500.647,157.646 500.814,161.98 500,166.5C 499.501,162.179 499.334,157.846 499.5,153.5 Z"/></g>
<g><path style="opacity:0.012" fill="#1a0100" d="M 247.5,154.5 C 248.525,154.897 248.692,155.563 248,156.5C 247.536,155.906 247.369,155.239 247.5,154.5 Z"/></g>
<g><path style="opacity:1" fill="#472a1e" d="M 323.5,153.5 C 329.442,153.212 329.775,154.045 324.5,156C 319.319,156.939 314.319,156.606 309.5,155C 314.351,154.826 319.018,154.326 323.5,153.5 Z"/></g>
<g><path style="opacity:1" fill="#331e15" d="M 406.5,155.5 C 406.917,154.876 407.584,154.543 408.5,154.5C 413.679,156.101 419.012,156.934 424.5,157C 418.334,158.981 412.334,158.481 406.5,155.5 Z"/></g>
<g><path style="opacity:1" fill="#a76651" d="M 491.5,154.5 C 492.896,161.564 492.563,168.564 490.5,175.5C 490.631,174.761 490.464,174.094 490,173.5C 485.897,182.475 479.397,189.142 470.5,193.5C 470.703,187.946 471.87,182.613 474,177.5C 478.898,169.104 484.732,161.438 491.5,154.5 Z"/></g>
<g><path style="opacity:0.012" fill="#1a0100" d="M 253.5,162.5 C 253.665,165.518 253.498,168.518 253,171.5C 252.195,168.304 252.362,165.304 253.5,162.5 Z"/></g>
<g><path style="opacity:1" fill="#ab6a54" d="M 260.5,161.5 C 263.389,164.256 265.556,167.589 267,171.5C 268.318,184.865 269.818,198.198 271.5,211.5C 268.348,212.041 265.848,211.041 264,208.5C 260.411,199.546 258.911,190.212 259.5,180.5C 259.654,174.15 259.988,167.816 260.5,161.5 Z"/></g>
<g><path style="opacity:0.012" fill="#1a0100" d="M 498.5,168.5 C 499.598,169.601 499.765,170.934 499,172.5C 498.51,171.207 498.343,169.873 498.5,168.5 Z"/></g>
<g><path style="opacity:0.012" fill="#1a0100" d="M 497.5,173.5 C 498.598,174.601 498.765,175.934 498,177.5C 497.51,176.207 497.343,174.873 497.5,173.5 Z"/></g>
<g><path style="opacity:0.012" fill="#1a0100" d="M 252.5,190.5 C 251.35,185.684 251.184,180.684 252,175.5C 252.499,180.489 252.666,185.489 252.5,190.5 Z"/></g>
<g><path style="opacity:1" fill="#a66551" d="M 341.5,176.5 C 343.017,175.265 344.684,175.265 346.5,176.5C 346.116,186.942 351.116,191.108 361.5,189C 364.606,190.636 367.773,192.136 371,193.5C 374.815,192.261 378.148,190.261 381,187.5C 382.31,183.826 382.477,180.159 381.5,176.5C 383.5,176.167 385.5,175.833 387.5,175.5C 389.952,175.539 391.952,176.206 393.5,177.5C 391.774,177.185 390.107,177.019 388.5,177C 398.433,185.514 397.766,192.848 386.5,199C 388.797,199.018 391.131,198.851 393.5,198.5C 384.998,203.32 375.831,206.653 366,208.5C 361.422,207.628 357.255,205.795 353.5,203C 349.5,202.667 345.5,202.333 341.5,202C 338.785,201.125 337.452,199.292 337.5,196.5C 340.34,199.143 343.673,199.976 347.5,199C 339.292,196.421 336.459,190.921 339,182.5C 339.792,180.413 340.959,178.579 342.5,177C 342.272,176.601 341.938,176.435 341.5,176.5 Z"/></g>
<g><path style="opacity:0.012" fill="#1a0100" d="M 496.5,178.5 C 497.525,178.897 497.692,179.563 497,180.5C 496.536,179.906 496.369,179.239 496.5,178.5 Z"/></g>
<g><path style="opacity:0.012" fill="#1a0100" d="M 495.5,181.5 C 496.525,181.897 496.692,182.563 496,183.5C 495.536,182.906 495.369,182.239 495.5,181.5 Z"/></g>
<g><path style="opacity:1" fill="#b4735b" d="M 490.5,175.5 C 488.569,185.892 485.402,195.892 481,205.5C 477.994,211.026 473.494,214.359 467.5,215.5C 468.132,208.076 469.132,200.743 470.5,193.5C 479.397,189.142 485.897,182.475 490,173.5C 490.464,174.094 490.631,174.761 490.5,175.5 Z"/></g>
<g><path style="opacity:0.012" fill="#1a0100" d="M 494.5,184.5 C 495.573,185.251 495.74,186.251 495,187.5C 494.517,186.552 494.351,185.552 494.5,184.5 Z"/></g>
<g><path style="opacity:0.012" fill="#1a0100" d="M 493.5,188.5 C 494.573,189.251 494.74,190.251 494,191.5C 493.517,190.552 493.351,189.552 493.5,188.5 Z"/></g>
<g><path style="opacity:0.012" fill="#1a0100" d="M 252.5,192.5 C 253.573,193.251 253.74,194.251 253,195.5C 252.517,194.552 252.351,193.552 252.5,192.5 Z"/></g>
<g><path style="opacity:0.012" fill="#1a0100" d="M 492.5,192.5 C 493.525,192.897 493.692,193.563 493,194.5C 492.536,193.906 492.369,193.239 492.5,192.5 Z"/></g>
<g><path style="opacity:1" fill="#1e1007" d="M 393.5,177.5 C 394.793,179.296 396.293,180.963 398,182.5C 401.006,189.229 399.506,194.562 393.5,198.5C 391.131,198.851 388.797,199.018 386.5,199C 397.766,192.848 398.433,185.514 388.5,177C 390.107,177.019 391.774,177.185 393.5,177.5 Z"/></g>
<g><path style="opacity:0.012" fill="#1a0100" d="M 491.5,195.5 C 492.525,195.897 492.692,196.563 492,197.5C 491.536,196.906 491.369,196.239 491.5,195.5 Z"/></g>
<g><path style="opacity:0.012" fill="#1a0100" d="M 254.5,197.5 C 254.657,198.873 254.49,200.207 254,201.5C 253.235,199.934 253.402,198.601 254.5,197.5 Z"/></g>
<g><path style="opacity:1" fill="#1e1007" d="M 341.5,176.5 C 341.938,176.435 342.272,176.601 342.5,177C 340.959,178.579 339.792,180.413 339,182.5C 336.459,190.921 339.292,196.421 347.5,199C 343.673,199.976 340.34,199.143 337.5,196.5C 333.403,190.481 333.569,184.481 338,178.5C 339.113,177.695 340.279,177.028 341.5,176.5 Z"/></g>
<g><path style="opacity:1" fill="#1b0d04" d="M 343.5,191.5 C 349.774,189.807 355.107,191.64 359.5,197C 363.333,199.753 367.333,200.086 371.5,198C 376.016,192.567 381.683,190.233 388.5,191C 382.222,192.255 377.222,195.588 373.5,201C 368.8,204.212 364.133,204.212 359.5,201C 355.449,195.482 350.116,192.315 343.5,191.5 Z"/></g>
<g><path style="opacity:0.012" fill="#1a0100" d="M 490.5,198.5 C 491.525,198.897 491.692,199.563 491,200.5C 490.536,199.906 490.369,199.239 490.5,198.5 Z"/></g>
<g><path style="opacity:0.012" fill="#1a0100" d="M 489.5,201.5 C 490.833,202.167 490.833,202.833 489.5,203.5C 489.5,202.833 489.5,202.167 489.5,201.5 Z"/></g>
<g><path style="opacity:0.012" fill="#1a0100" d="M 255.5,202.5 C 255.649,203.552 255.483,204.552 255,205.5C 254.26,204.251 254.427,203.251 255.5,202.5 Z"/></g>
<g><path style="opacity:0.012" fill="#1a0100" d="M 488.5,203.5 C 488.833,203.5 489.167,203.5 489.5,203.5C 489.672,204.492 489.338,205.158 488.5,205.5C 488.5,204.833 488.5,204.167 488.5,203.5 Z"/></g>
<g><path style="opacity:0.012" fill="#1a0100" d="M 487.5,205.5 C 487.833,205.5 488.167,205.5 488.5,205.5C 488.672,206.492 488.338,207.158 487.5,207.5C 487.5,206.833 487.5,206.167 487.5,205.5 Z"/></g>
<g><path style="opacity:0.012" fill="#1a0100" d="M 486.5,207.5 C 486.833,207.5 487.167,207.5 487.5,207.5C 487.672,208.492 487.338,209.158 486.5,209.5C 486.5,208.833 486.5,208.167 486.5,207.5 Z"/></g>
<g><path style="opacity:1" fill="#281912" d="M 317.5,204.5 C 318.239,204.369 318.906,204.536 319.5,205C 311.721,211.654 308.221,220.154 309,230.5C 307.079,225.516 307.079,220.516 309,215.5C 311.284,211.386 314.117,207.72 317.5,204.5 Z"/></g>
<g><path style="opacity:0.012" fill="#1a0100" d="M 485.5,209.5 C 485.833,209.5 486.167,209.5 486.5,209.5C 486.315,210.17 485.981,210.17 485.5,209.5 Z"/></g>
<g><path style="opacity:0.012" fill="#1a0100" d="M 484.5,210.5 C 484.833,210.5 485.167,210.5 485.5,210.5C 485.315,211.17 484.981,211.17 484.5,210.5 Z"/></g>
<g><path style="opacity:1" fill="#22150e" d="M 420.5,209.5 C 428.359,214.692 430.526,221.692 427,230.5C 426.667,226.833 426.333,223.167 426,219.5C 424.745,215.771 422.912,212.438 420.5,209.5 Z"/></g>
<g><path style="opacity:0.012" fill="#1a0100" d="M 483.5,212.5 C 484.833,213.167 484.833,213.167 483.5,212.5 Z"/></g>
<g><path style="opacity:0.012" fill="#1a0100" d="M 482.5,213.5 C 482.833,213.5 483.167,213.5 483.5,213.5C 483.315,214.17 482.981,214.17 482.5,213.5 Z"/></g>
<g><path style="opacity:0.012" fill="#1a0100" d="M 482.5,214.5 C 481.833,215.167 481.833,215.167 482.5,214.5 Z"/></g>
<g><path style="opacity:0.012" fill="#1a0100" d="M 481.5,215.5 C 480.833,216.167 480.833,216.167 481.5,215.5 Z"/></g>
<g><path style="opacity:0.012" fill="#1a0100" d="M 263.5,216.5 C 262.833,217.167 262.833,217.167 263.5,216.5 Z"/></g>
<g><path style="opacity:0.012" fill="#1a0100" d="M 480.5,216.5 C 479.833,217.167 479.833,217.167 480.5,216.5 Z"/></g>
<g><path style="opacity:0.012" fill="#1a0100" d="M 265.5,217.5 C 264.833,218.167 264.833,218.167 265.5,217.5 Z"/></g>
<g><path style="opacity:0.012" fill="#1a0100" d="M 479.5,217.5 C 478.833,218.167 478.833,218.167 479.5,217.5 Z"/></g>
<g><path style="opacity:0.012" fill="#1a0100" d="M 266.5,219.5 C 267.946,218.387 269.613,218.22 271.5,219C 269.866,219.494 268.199,219.66 266.5,219.5 Z"/></g>
<g><path style="opacity:0.012" fill="#1a0100" d="M 478.5,218.5 C 477.833,219.167 477.833,219.167 478.5,218.5 Z"/></g>
<g><path style="opacity:1" fill="#160a03" d="M 399.5,222.5 C 399.265,223.097 398.765,223.43 398,223.5C 387.111,219.843 376.111,219.176 365,221.5C 353.991,218.575 343.157,219.242 332.5,223.5C 331.893,223.376 331.56,223.043 331.5,222.5C 342.27,216.43 353.603,215.097 365.5,218.5C 368.701,217.982 371.868,217.315 375,216.5C 383.445,217.486 391.612,219.486 399.5,222.5 Z"/></g>
<g><path style="opacity:0.012" fill="#1a0100" d="M 475.5,219.5 C 476.833,220.167 476.833,220.167 475.5,219.5 Z"/></g>
<g><path style="opacity:0.012" fill="#1a0100" d="M 271.5,220.5 C 272.573,221.251 272.74,222.251 272,223.5C 271.517,222.552 271.351,221.552 271.5,220.5 Z"/></g>
<g><path style="opacity:0.012" fill="#1a0100" d="M 474.5,220.5 C 474.833,220.5 475.167,220.5 475.5,220.5C 475.315,221.17 474.981,221.17 474.5,220.5 Z"/></g>
<g><path style="opacity:0.012" fill="#1a0100" d="M 471.5,221.5 C 472.239,221.369 472.906,221.536 473.5,222C 472.563,222.692 471.897,222.525 471.5,221.5 Z"/></g>
<g><path style="opacity:0.012" fill="#1a0100" d="M 467.5,222.5 C 468.552,222.351 469.552,222.517 470.5,223C 469.151,223.772 468.318,224.939 468,226.5C 467.51,225.207 467.343,223.873 467.5,222.5 Z"/></g>
<g><path style="opacity:0.012" fill="#1a0100" d="M 272.5,224.5 C 273.573,225.251 273.74,226.251 273,227.5C 272.517,226.552 272.351,225.552 272.5,224.5 Z"/></g>
<g><path style="opacity:0.012" fill="#1a0100" d="M 466.5,227.5 C 467.573,228.251 467.74,229.251 467,230.5C 466.517,229.552 466.351,228.552 466.5,227.5 Z"/></g>
<g><path style="opacity:0.012" fill="#1a0100" d="M 273.5,228.5 C 274.525,228.897 274.692,229.563 274,230.5C 273.536,229.906 273.369,229.239 273.5,228.5 Z"/></g>
<g><path style="opacity:0.012" fill="#1a0100" d="M 275.5,231.5 C 275.649,232.552 275.483,233.552 275,234.5C 274.26,233.251 274.427,232.251 275.5,231.5 Z"/></g>
<g><path style="opacity:0.012" fill="#1a0100" d="M 465.5,231.5 C 466.598,232.601 466.765,233.934 466,235.5C 465.51,234.207 465.343,232.873 465.5,231.5 Z"/></g>
<g><path style="opacity:0.012" fill="#1a0100" d="M 464.5,236.5 C 465.525,236.897 465.692,237.563 465,238.5C 464.536,237.906 464.369,237.239 464.5,236.5 Z"/></g>
<g><path style="opacity:0.012" fill="#1a0100" d="M 277.5,238.5 C 277.649,239.552 277.483,240.552 277,241.5C 276.26,240.251 276.427,239.251 277.5,238.5 Z"/></g>
<g><path style="opacity:1" fill="#9b604b" d="M 399.5,222.5 C 405.54,225.851 411.54,229.184 417.5,232.5C 409.446,238.55 401.112,244.217 392.5,249.5C 392.44,248.957 392.107,248.624 391.5,248.5C 380.479,252.242 369.146,253.408 357.5,252C 353.307,251.452 349.307,250.286 345.5,248.5C 344.893,248.624 344.56,248.957 344.5,249.5C 334.44,245.131 325.774,238.797 318.5,230.5C 322.323,227.084 326.657,224.418 331.5,222.5C 331.56,223.043 331.893,223.376 332.5,223.5C 343.157,219.242 353.991,218.575 365,221.5C 376.111,219.176 387.111,219.843 398,223.5C 398.765,223.43 399.265,223.097 399.5,222.5 Z"/></g>
<g><path style="opacity:1" fill="#1b120d" d="M 348.5,224.5 C 360.543,224.162 372.543,224.662 384.5,226C 393.309,228.27 401.976,230.937 410.5,234C 400.417,238.637 389.751,240.97 378.5,241C 364.768,241.755 351.101,241.088 337.5,239C 332.876,237.69 328.876,235.356 325.5,232C 333.338,229.633 341.005,227.133 348.5,224.5 Z"/></g>
<g><path style="opacity:1" fill="#c7c8c8" d="M 349.5,228.5 C 351.473,227.837 353.639,227.504 356,227.5C 366.002,227.982 375.835,228.648 385.5,229.5C 373.488,229.499 361.488,229.166 349.5,228.5 Z"/></g>
<g><path style="opacity:1" fill="#f3f3f3" d="M 349.5,228.5 C 361.488,229.166 373.488,229.499 385.5,229.5C 388.568,229.547 391.568,230.047 394.5,231C 396.276,232.671 396.61,234.504 395.5,236.5C 376.509,237.666 357.509,237.833 338.5,237C 335.833,234.667 335.833,232.333 338.5,230C 342.086,228.892 345.753,228.392 349.5,228.5 Z"/></g>
<g><path style="opacity:0.012" fill="#1a0100" d="M 463.5,239.5 C 464.573,240.251 464.74,241.251 464,242.5C 463.517,241.552 463.351,240.552 463.5,239.5 Z"/></g>
<g><path style="opacity:0.012" fill="#1a0100" d="M 278.5,242.5 C 278.631,243.239 278.464,243.906 278,244.5C 277.308,243.563 277.475,242.897 278.5,242.5 Z"/></g>
<g><path style="opacity:0.012" fill="#1a0100" d="M 462.5,243.5 C 463.598,244.601 463.765,245.934 463,247.5C 462.51,246.207 462.343,244.873 462.5,243.5 Z"/></g>
<g><path style="opacity:0.012" fill="#1a0100" d="M 279.5,245.5 C 279.631,246.239 279.464,246.906 279,247.5C 278.308,246.563 278.475,245.897 279.5,245.5 Z"/></g>
<g><path style="opacity:0.012" fill="#1a0100" d="M 280.5,253.5 C 281.648,257.981 281.815,262.648 281,267.5C 280.501,262.845 280.334,258.179 280.5,253.5 Z"/></g>
<g><path style="opacity:1" fill="#1d0f06" d="M 344.5,249.5 C 344.56,248.957 344.893,248.624 345.5,248.5C 349.307,250.286 353.307,251.452 357.5,252C 369.146,253.408 380.479,252.242 391.5,248.5C 392.107,248.624 392.44,248.957 392.5,249.5C 389.272,250.943 386.272,252.61 383.5,254.5C 371.427,257.873 359.761,256.873 348.5,251.5C 347.167,250.833 345.833,250.167 344.5,249.5 Z"/></g>
<g><path style="opacity:1" fill="#a96752" d="M 348.5,251.5 C 359.761,256.873 371.427,257.873 383.5,254.5C 370.64,269.383 358.973,268.383 348.5,251.5 Z"/></g>
<g><path style="opacity:0.012" fill="#1a0100" d="M 463.5,259.5 C 464.658,268.991 464.825,278.658 464,288.5C 463.5,278.839 463.334,269.172 463.5,259.5 Z"/></g>
<g><path style="opacity:1" fill="#b9785f" d="M 455.5,258.5 C 457.084,283.005 458.584,307.672 460,332.5C 460.953,334.455 462.287,336.122 464,337.5C 464.333,334.167 464.667,330.833 465,327.5C 469.531,330.528 471.865,334.861 472,340.5C 475.765,370.395 464.265,392.229 437.5,406C 397.879,425.173 357.212,427.506 315.5,413C 284.73,400.538 270.896,377.705 274,344.5C 275.072,339.617 276.739,334.95 279,330.5C 280.586,329.624 282.086,328.624 283.5,327.5C 284.328,331.796 284.828,336.129 285,340.5C 286.829,338.844 288.163,336.844 289,334.5C 289.452,311.158 289.452,287.825 289,264.5C 301.347,285.849 318.514,302.016 340.5,313C 381.112,322.018 414.946,310.851 442,279.5C 447.118,272.885 451.618,265.885 455.5,258.5 Z"/></g>
<g><path style="opacity:0.012" fill="#1a0100" d="M 282.5,292.5 C 281.346,286.013 281.179,279.346 282,272.5C 282.5,279.158 282.666,285.825 282.5,292.5 Z"/></g>
<g><path style="opacity:0.012" fill="#1a0100" d="M 464.5,296.5 C 465.653,302.319 465.819,308.319 465,314.5C 464.501,308.509 464.334,302.509 464.5,296.5 Z"/></g>
<g><path style="opacity:0.012" fill="#1a0100" d="M 283.5,319.5 C 282.347,313.347 282.18,307.014 283,300.5C 283.5,306.825 283.666,313.158 283.5,319.5 Z"/></g>
<g><path style="opacity:0.012" fill="#1a0100" d="M 465.5,318.5 C 466.833,319.167 466.833,319.167 465.5,318.5 Z"/></g>
<g><path style="opacity:0.012" fill="#1a0100" d="M 281.5,320.5 C 280.833,319.167 280.833,319.167 281.5,320.5 Z"/></g>
<g><path style="opacity:0.012" fill="#1a0100" d="M 278.5,320.5 C 279.833,321.167 279.833,321.167 278.5,320.5 Z"/></g>
<g><path style="opacity:0.012" fill="#1a0100" d="M 472.5,322.5 C 473.833,323.167 473.833,323.167 472.5,322.5 Z"/></g>
<g><path style="opacity:0.012" fill="#1a0100" d="M 274.5,324.5 C 273.833,323.167 273.833,323.167 274.5,324.5 Z"/></g>
<g><path style="opacity:0.012" fill="#1a0100" d="M 474.5,323.5 C 475.833,324.167 475.833,324.167 474.5,323.5 Z"/></g>
<g><path style="opacity:0.012" fill="#1a0100" d="M 271.5,324.5 C 272.833,325.167 272.833,325.167 271.5,324.5 Z"/></g>
<g><path style="opacity:0.012" fill="#1a0100" d="M 476.5,324.5 C 477.833,325.167 477.833,325.167 476.5,324.5 Z"/></g>
<g><path style="opacity:0.012" fill="#1a0100" d="M 479.5,326.5 C 480.833,327.167 480.833,327.167 479.5,326.5 Z"/></g>
<g><path style="opacity:0.012" fill="#1a0100" d="M 481.5,327.5 C 482.833,328.167 482.833,328.167 481.5,327.5 Z"/></g>
<g><path style="opacity:0.012" fill="#1a0100" d="M 483.5,328.5 C 484.833,329.167 484.833,329.167 483.5,328.5 Z"/></g>
<g><path style="opacity:0.012" fill="#1a0100" d="M 486.5,330.5 C 487.833,331.167 487.833,331.167 486.5,330.5 Z"/></g>
<g><path style="opacity:0.012" fill="#1a0100" d="M 259.5,331.5 C 260.833,332.167 260.833,332.167 259.5,331.5 Z"/></g>
<g><path style="opacity:0.012" fill="#1a0100" d="M 488.5,331.5 C 489.833,332.167 489.833,332.167 488.5,331.5 Z"/></g>
<g><path style="opacity:0.012" fill="#1a0100" d="M 491.5,333.5 C 492.833,334.167 492.833,334.167 491.5,333.5 Z"/></g>
<g><path style="opacity:0.012" fill="#1a0100" d="M 254.5,334.5 C 255.833,335.167 255.833,335.167 254.5,334.5 Z"/></g>
<g><path style="opacity:0.012" fill="#1a0100" d="M 493.5,334.5 C 494.833,335.167 494.833,335.167 493.5,334.5 Z"/></g>
<g><path style="opacity:0.012" fill="#1a0100" d="M 249.5,337.5 C 250.833,338.167 250.833,338.167 249.5,337.5 Z"/></g>
<g><path style="opacity:0.012" fill="#1a0100" d="M 249.5,338.5 C 249.5,338.833 249.5,339.167 249.5,339.5C 248.83,339.019 248.83,338.685 249.5,338.5 Z"/></g>
<g><path style="opacity:0.012" fill="#1a0100" d="M 499.5,338.5 C 500.833,339.167 500.833,339.167 499.5,338.5 Z"/></g>
<g><path style="opacity:1" fill="#001b41" d="M 283.5,418.5 C 269.666,419.381 255.999,421.381 242.5,424.5C 231.578,405 227.078,384 229,361.5C 240.251,351.975 252.417,344.142 265.5,338C 257.108,347.405 254.608,358.239 258,370.5C 263.124,388.42 271.624,404.42 283.5,418.5 Z"/></g>
<g><path style="opacity:1" fill="#001b41" d="M 504.5,424.5 C 491.322,421.519 477.989,419.519 464.5,418.5C 464.5,418.167 464.5,417.833 464.5,417.5C 476.528,403.915 485.028,388.248 490,370.5C 492.202,362.719 491.868,355.052 489,347.5C 486.664,343.813 484.664,340.147 483,336.5C 495.361,343.512 507.028,351.512 518,360.5C 520.246,383.387 515.746,404.721 504.5,424.5 Z"/></g>
<g><path style="opacity:0.012" fill="#1a0100" d="M 502.5,340.5 C 501.833,339.167 501.833,339.167 502.5,340.5 Z"/></g>
<g><path style="opacity:0.012" fill="#1a0100" d="M 502.5,340.5 C 503.833,341.167 503.833,341.167 502.5,340.5 Z"/></g>
<g><path style="opacity:0.012" fill="#1a0100" d="M 505.5,342.5 C 504.833,341.167 504.833,341.167 505.5,342.5 Z"/></g>
<g><path style="opacity:0.012" fill="#1a0100" d="M 505.5,342.5 C 506.833,343.167 506.833,343.167 505.5,342.5 Z"/></g>
<g><path style="opacity:0.012" fill="#1a0100" d="M 507.5,343.5 C 508.833,344.167 508.833,344.167 507.5,343.5 Z"/></g>
<g><path style="opacity:0.012" fill="#1a0100" d="M 238.5,344.5 C 239.833,345.167 239.833,345.167 238.5,344.5 Z"/></g>
<g><path style="opacity:0.012" fill="#1a0100" d="M 238.5,345.5 C 238.5,345.833 238.5,346.167 238.5,346.5C 237.83,346.019 237.83,345.685 238.5,345.5 Z"/></g>
<g><path style="opacity:0.012" fill="#1a0100" d="M 235.5,346.5 C 236.833,347.167 236.833,347.167 235.5,346.5 Z"/></g>
<g><path style="opacity:1" fill="#9fa7aa" d="M 460.5,415.5 C 441.444,433.525 418.777,444.359 392.5,448C 367.683,451.536 343.35,449.536 319.5,442C 313.746,440.088 308.412,437.421 303.5,434C 298.968,428.638 294.301,423.472 289.5,418.5C 284.097,411.371 278.93,404.038 274,396.5C 269.503,388.509 265.836,380.175 263,371.5C 259.228,359.419 261.561,348.753 270,339.5C 265.289,381.901 283.456,409.068 324.5,421C 365.845,431.706 405.512,427.373 443.5,408C 470.047,392.402 481.214,369.236 477,338.5C 485.224,346.507 488.224,356.173 486,367.5C 480.876,385.42 472.376,401.42 460.5,415.5 Z"/></g>
<g><path style="opacity:0.012" fill="#1a0100" d="M 228.5,351.5 C 229.833,352.167 229.833,352.167 228.5,351.5 Z"/></g>
<g><path style="opacity:0.012" fill="#1a0100" d="M 527.5,359.5 C 527.897,358.475 528.563,358.308 529.5,359C 528.906,359.464 528.239,359.631 527.5,359.5 Z"/></g>
<g><path style="opacity:0.012" fill="#1a0100" d="M 216.5,359.5 C 217.833,360.167 217.833,360.167 216.5,359.5 Z"/></g>
<g><path style="opacity:0.012" fill="#1a0100" d="M 530.5,359.5 C 531.833,360.167 531.833,360.167 530.5,359.5 Z"/></g>
<g><path style="opacity:0.012" fill="#1a0100" d="M 532.5,360.5 C 533.833,361.167 533.833,361.167 532.5,360.5 Z"/></g>
<g><path style="opacity:0.012" fill="#1a0100" d="M 207.5,363.5 C 208.833,364.167 208.833,364.167 207.5,363.5 Z"/></g>
<g><path style="opacity:0.012" fill="#1a0100" d="M 538.5,364.5 C 538.897,363.475 539.563,363.308 540.5,364C 539.906,364.464 539.239,364.631 538.5,364.5 Z"/></g>
<g><path style="opacity:0.012" fill="#1a0100" d="M 206.5,365.5 C 205.833,364.167 205.833,364.167 206.5,365.5 Z"/></g>
<g><path style="opacity:0.012" fill="#1a0100" d="M 541.5,364.5 C 542.833,365.167 542.833,365.167 541.5,364.5 Z"/></g>
<g><path style="opacity:1" fill="#001b41" d="M 237.5,426.5 C 163.123,442.429 105.29,482.095 64,545.5C 58.8224,553.861 53.6557,562.195 48.5,570.5C 34.5,570.5 20.5,570.5 6.5,570.5C 9.68298,557.771 13.183,545.104 17,532.5C 23.5518,517.729 30.8852,503.396 39,489.5C 43.9246,480.647 49.5913,472.314 56,464.5C 69.5611,450.27 83.7277,436.77 98.5,424C 103.167,421.333 107.833,418.667 112.5,416C 149.056,398.053 186.056,381.22 223.5,365.5C 223.077,387.057 227.743,407.39 237.5,426.5 Z"/></g>
<g><path style="opacity:1" fill="#001b41" d="M 741.5,570.5 C 727.167,570.5 712.833,570.5 698.5,570.5C 677.951,533.101 650.951,500.934 617.5,474C 584.811,450.826 548.811,434.993 509.5,426.5C 519.513,407.111 524.513,386.444 524.5,364.5C 564.893,382.53 604.893,401.364 644.5,421C 661.198,433.691 676.698,447.858 691,463.5C 715.874,495.253 732.707,530.919 741.5,570.5 Z"/></g>
<g><path style="opacity:0.012" fill="#1a0100" d="M 196.5,368.5 C 197.833,369.167 197.833,369.167 196.5,368.5 Z"/></g>
<g><path style="opacity:0.012" fill="#1a0100" d="M 549.5,369.5 C 549.897,368.475 550.563,368.308 551.5,369C 550.906,369.464 550.239,369.631 549.5,369.5 Z"/></g>
<g><path style="opacity:0.012" fill="#1a0100" d="M 195.5,370.5 C 194.833,369.167 194.833,369.167 195.5,370.5 Z"/></g>
<g><path style="opacity:0.012" fill="#1a0100" d="M 552.5,369.5 C 553.833,370.167 553.833,370.167 552.5,369.5 Z"/></g>
<g><path style="opacity:0.012" fill="#1a0100" d="M 558.5,373.5 C 558.897,372.475 559.563,372.308 560.5,373C 559.906,373.464 559.239,373.631 558.5,373.5 Z"/></g>
<g><path style="opacity:0.012" fill="#1a0100" d="M 185.5,373.5 C 186.833,374.167 186.833,374.167 185.5,373.5 Z"/></g>
<g><path style="opacity:0.012" fill="#1a0100" d="M 561.5,373.5 C 562.833,374.167 562.833,374.167 561.5,373.5 Z"/></g>
<g><path style="opacity:0.012" fill="#1a0100" d="M 184.5,375.5 C 183.833,374.167 183.833,374.167 184.5,375.5 Z"/></g>
<g><path style="opacity:0.012" fill="#1a0100" d="M 563.5,374.5 C 564.833,375.167 564.833,375.167 563.5,374.5 Z"/></g>
<g><path style="opacity:0.012" fill="#1a0100" d="M 569.5,378.5 C 569.897,377.475 570.563,377.308 571.5,378C 570.906,378.464 570.239,378.631 569.5,378.5 Z"/></g>
<g><path style="opacity:0.012" fill="#1a0100" d="M 174.5,378.5 C 175.833,379.167 175.833,379.167 174.5,378.5 Z"/></g>
<g><path style="opacity:0.012" fill="#1a0100" d="M 572.5,378.5 C 573.833,379.167 573.833,379.167 572.5,378.5 Z"/></g>
<g><path style="opacity:0.012" fill="#1a0100" d="M 574.5,379.5 C 575.833,380.167 575.833,380.167 574.5,379.5 Z"/></g>
<g><path style="opacity:0.012" fill="#1a0100" d="M 580.5,383.5 C 580.897,382.475 581.563,382.308 582.5,383C 581.906,383.464 581.239,383.631 580.5,383.5 Z"/></g>
<g><path style="opacity:0.012" fill="#1a0100" d="M 163.5,383.5 C 164.833,384.167 164.833,384.167 163.5,383.5 Z"/></g>
<g><path style="opacity:0.012" fill="#1a0100" d="M 583.5,383.5 C 584.833,384.167 584.833,384.167 583.5,383.5 Z"/></g>
<g><path style="opacity:0.012" fill="#1a0100" d="M 585.5,384.5 C 586.833,385.167 586.833,385.167 585.5,384.5 Z"/></g>
<g><path style="opacity:0.012" fill="#1a0100" d="M 591.5,388.5 C 591.897,387.475 592.563,387.308 593.5,388C 592.906,388.464 592.239,388.631 591.5,388.5 Z"/></g>
<g><path style="opacity:0.012" fill="#1a0100" d="M 153.5,389.5 C 152.833,388.167 152.833,388.167 153.5,389.5 Z"/></g>
<g><path style="opacity:0.012" fill="#1a0100" d="M 594.5,388.5 C 595.833,389.167 595.833,389.167 594.5,388.5 Z"/></g>
<g><path style="opacity:0.012" fill="#1a0100" d="M 602.5,393.5 C 602.897,392.475 603.563,392.308 604.5,393C 603.906,393.464 603.239,393.631 602.5,393.5 Z"/></g>
<g><path style="opacity:0.012" fill="#1a0100" d="M 141.5,393.5 C 142.833,394.167 142.833,394.167 141.5,393.5 Z"/></g>
<g><path style="opacity:0.012" fill="#1a0100" d="M 605.5,393.5 C 606.833,394.167 606.833,394.167 605.5,393.5 Z"/></g>
<g><path style="opacity:0.012" fill="#1a0100" d="M 140.5,395.5 C 139.833,394.167 139.833,394.167 140.5,395.5 Z"/></g>
<g><path style="opacity:0.012" fill="#1a0100" d="M 607.5,394.5 C 608.833,395.167 608.833,395.167 607.5,394.5 Z"/></g>
<g><path style="opacity:0.012" fill="#1a0100" d="M 138.5,396.5 C 137.833,395.167 137.833,395.167 138.5,396.5 Z"/></g>
<g><path style="opacity:0.012" fill="#1a0100" d="M 609.5,395.5 C 610.833,396.167 610.833,396.167 609.5,395.5 Z"/></g>
<g><path style="opacity:0.012" fill="#1a0100" d="M 641.5,411.5 C 642.833,412.167 642.833,412.167 641.5,411.5 Z"/></g>
<g><path style="opacity:0.012" fill="#1a0100" d="M 643.5,412.5 C 644.833,413.167 644.833,413.167 643.5,412.5 Z"/></g>
<g><path style="opacity:0.012" fill="#1a0100" d="M 645.5,413.5 C 646.833,414.167 646.833,414.167 645.5,413.5 Z"/></g>
<g><path style="opacity:0.012" fill="#1a0100" d="M 648.5,415.5 C 649.833,416.167 649.833,416.167 648.5,415.5 Z"/></g>
<g><path style="opacity:0.012" fill="#1a0100" d="M 651.5,417.5 C 652.833,418.167 652.833,418.167 651.5,417.5 Z"/></g>
<g><path style="opacity:0.012" fill="#1a0100" d="M 653.5,418.5 C 654.833,419.167 654.833,419.167 653.5,418.5 Z"/></g>
<g><path style="opacity:1" fill="#a0a8ab" d="M 283.5,418.5 C 284.939,420.36 286.605,422.027 288.5,423.5C 294.167,430.167 299.833,436.833 305.5,443.5C 297.443,451.553 289.777,459.887 282.5,468.5C 264.651,457.982 251.317,443.315 242.5,424.5C 255.999,421.381 269.666,419.381 283.5,418.5 Z"/></g>
<g><path style="opacity:1" fill="#a0a8ab" d="M 464.5,418.5 C 477.989,419.519 491.322,421.519 504.5,424.5C 496.191,443.808 482.524,457.808 463.5,466.5C 456.5,458.833 449.167,451.5 441.5,444.5C 449.144,435.853 456.811,427.186 464.5,418.5 Z"/></g>
<g><path style="opacity:0.012" fill="#1a0100" d="M 656.5,421.5 C 657.833,422.167 657.833,422.167 656.5,421.5 Z"/></g>
<g><path style="opacity:0.012" fill="#1a0100" d="M 658.5,422.5 C 659.833,423.167 659.833,423.167 658.5,422.5 Z"/></g>
<g><path style="opacity:0.012" fill="#1a0100" d="M 81.5,428.5 C 82.8333,429.167 82.8333,429.167 81.5,428.5 Z"/></g>
<g><path style="opacity:1" fill="#a1a9ac" d="M 237.5,426.5 C 241.822,434.476 246.656,442.143 252,449.5C 259.095,457.1 266.595,464.1 274.5,470.5C 229.082,478.695 185.749,493.195 144.5,514C 136.753,519.076 129.587,524.909 123,531.5C 111.798,543.526 101.965,556.526 93.5,570.5C 78.5,570.5 63.5,570.5 48.5,570.5C 53.6557,562.195 58.8224,553.861 64,545.5C 105.29,482.095 163.123,442.429 237.5,426.5 Z"/></g>
<g><path style="opacity:1" fill="#a1a9ac" d="M 509.5,426.5 C 548.811,434.993 584.811,450.826 617.5,474C 650.951,500.934 677.951,533.101 698.5,570.5C 683.5,570.5 668.5,570.5 653.5,570.5C 642.606,551.62 628.939,534.787 612.5,520C 583.246,503.211 552.246,490.545 519.5,482C 503.05,477.75 486.717,473.584 470.5,469.5C 487.279,458.715 500.279,444.382 509.5,426.5 Z"/></g>
<g><path style="opacity:0.012" fill="#1a0100" d="M 664.5,428.5 C 665.833,429.167 665.833,429.167 664.5,428.5 Z"/></g>
<g><path style="opacity:0.012" fill="#1a0100" d="M 81.5,429.5 C 80.8333,430.167 80.8333,430.167 81.5,429.5 Z"/></g>
<g><path style="opacity:0.012" fill="#1a0100" d="M 667.5,430.5 C 666.833,429.167 666.833,429.167 667.5,430.5 Z"/></g>
<g><path style="opacity:1" fill="#1b0f08" d="M 460.5,415.5 C 461.605,416.6 462.938,417.267 464.5,417.5C 464.5,417.833 464.5,418.167 464.5,418.5C 456.811,427.186 449.144,435.853 441.5,444.5C 420.307,464.2 397.807,482.2 374,498.5C 349.859,481.865 327.025,463.532 305.5,443.5C 299.833,436.833 294.167,430.167 288.5,423.5C 288.721,420.903 289.221,420.903 290,423.5C 290.384,421.803 290.218,420.137 289.5,418.5C 294.301,423.472 298.968,428.638 303.5,434C 308.412,437.421 313.746,440.088 319.5,442C 343.35,449.536 367.683,451.536 392.5,448C 418.777,444.359 441.444,433.525 460.5,415.5 Z"/></g>
<g><path style="opacity:0.012" fill="#1a0100" d="M 667.5,430.5 C 668.833,431.167 668.833,431.167 667.5,430.5 Z"/></g>
<g><path style="opacity:1" fill="#001b41" d="M 305.5,443.5 C 327.025,463.532 349.859,481.865 374,498.5C 397.807,482.2 420.307,464.2 441.5,444.5C 449.167,451.5 456.5,458.833 463.5,466.5C 454.31,473.449 444.643,479.949 434.5,486C 412.561,501.26 392.394,518.76 374,538.5C 360.965,526.407 347.465,514.907 333.5,504C 316.783,491.651 299.783,479.818 282.5,468.5C 289.777,459.887 297.443,451.553 305.5,443.5 Z"/></g>
<g><path style="opacity:1" fill="#a0a7aa" d="M 438.5,437.5 C 439.239,437.369 439.906,437.536 440.5,438C 420.062,458.443 397.895,476.61 374,492.5C 353.521,478.86 334.355,463.527 316.5,446.5C 352.837,457.672 389.17,456.839 425.5,444C 430.156,442.294 434.49,440.127 438.5,437.5 Z"/></g>
<g><path style="opacity:0.012" fill="#1a0100" d="M 695.5,458.5 C 694.833,457.167 694.833,457.167 695.5,458.5 Z"/></g>
<g><path style="opacity:0.012" fill="#1a0100" d="M 695.5,458.5 C 696.167,458.5 696.5,458.833 696.5,459.5C 696.167,459.167 695.833,458.833 695.5,458.5 Z"/></g>
<g><path style="opacity:0.012" fill="#1a0100" d="M 50.5,459.5 C 51.8333,460.167 51.8333,460.167 50.5,459.5 Z"/></g>
<g><path style="opacity:0.012" fill="#1a0100" d="M 696.5,459.5 C 697.833,460.167 697.833,460.167 696.5,459.5 Z"/></g>
<g><path style="opacity:0.012" fill="#1a0100" d="M 50.5,460.5 C 49.8333,461.167 49.8333,461.167 50.5,460.5 Z"/></g>
<g><path style="opacity:0.012" fill="#1a0100" d="M 44.5,466.5 C 45.8333,467.167 45.8333,467.167 44.5,466.5 Z"/></g>
<g><path style="opacity:1" fill="#001b41" d="M 470.5,469.5 C 486.717,473.584 503.05,477.75 519.5,482C 552.246,490.545 583.246,503.211 612.5,520C 628.939,534.787 642.606,551.62 653.5,570.5C 466.833,570.5 280.167,570.5 93.5,570.5C 101.965,556.526 111.798,543.526 123,531.5C 129.587,524.909 136.753,519.076 144.5,514C 185.749,493.195 229.082,478.695 274.5,470.5C 310.212,491.62 343.378,516.287 374,544.5C 388.556,529.942 403.723,516.108 419.5,503C 435.844,490.828 452.844,479.662 470.5,469.5 Z"/></g>
<g><path style="opacity:0.012" fill="#1a0100" d="M 706.5,472.5 C 707.833,473.167 707.833,473.167 706.5,472.5 Z"/></g>
<g><path style="opacity:0.012" fill="#1a0100" d="M 40.5,475.5 C 39.8333,474.167 39.8333,474.167 40.5,475.5 Z"/></g>
<g><path style="opacity:0.012" fill="#1a0100" d="M 39.5,475.5 C 38.8333,476.167 38.8333,476.167 39.5,475.5 Z"/></g>
<g><path style="opacity:0.012" fill="#1a0100" d="M 709.5,477.5 C 710.833,478.167 710.833,478.167 709.5,477.5 Z"/></g>
<g><path style="opacity:0.012" fill="#1a0100" d="M 712.5,482.5 C 712.167,482.5 711.833,482.5 711.5,482.5C 711.833,479.833 712.167,479.833 712.5,482.5 Z"/></g>
<g><path style="opacity:0.012" fill="#1a0100" d="M 712.5,482.5 C 713.833,483.167 713.833,483.167 712.5,482.5 Z"/></g>
<g><path style="opacity:0.012" fill="#1a0100" d="M 716.5,489.5 C 716.167,489.5 715.833,489.5 715.5,489.5C 715.833,486.833 716.167,486.833 716.5,489.5 Z"/></g>
<g><path style="opacity:0.012" fill="#1a0100" d="M 716.5,489.5 C 717.833,490.167 717.833,490.167 716.5,489.5 Z"/></g>
<g><path style="opacity:0.012" fill="#1a0100" d="M 717.5,491.5 C 718.833,492.167 718.833,492.167 717.5,491.5 Z"/></g>
<g><path style="opacity:0.012" fill="#1a0100" d="M 26.5,496.5 C 27.8333,497.167 27.8333,497.167 26.5,496.5 Z"/></g>
<g><path style="opacity:0.012" fill="#1a0100" d="M 721.5,498.5 C 721.167,498.5 720.833,498.5 720.5,498.5C 720.833,495.833 721.167,495.833 721.5,498.5 Z"/></g>
<g><path style="opacity:0.012" fill="#1a0100" d="M 26.5,499.5 C 25.8333,498.167 25.8333,498.167 26.5,499.5 Z"/></g>
<g><path style="opacity:0.012" fill="#1a0100" d="M 721.5,498.5 C 722.833,499.167 722.833,499.167 721.5,498.5 Z"/></g>
<g><path style="opacity:0.012" fill="#1a0100" d="M 25.5,501.5 C 24.8333,500.167 24.8333,500.167 25.5,501.5 Z"/></g>
<g><path style="opacity:0.012" fill="#1a0100" d="M 722.5,500.5 C 723.833,501.167 723.833,501.167 722.5,500.5 Z"/></g>
<g><path style="opacity:0.012" fill="#1a0100" d="M 723.5,502.5 C 724.833,503.167 724.833,503.167 723.5,502.5 Z"/></g>
<g><path style="opacity:0.012" fill="#1a0100" d="M 734.5,525.5 C 734.369,524.761 734.536,524.094 735,523.5C 735.692,524.437 735.525,525.103 734.5,525.5 Z"/></g>
<g><path style="opacity:0.012" fill="#1a0100" d="M 735.5,526.5 C 736.833,527.167 736.833,527.167 735.5,526.5 Z"/></g>
<g><path style="opacity:0.012" fill="#1a0100" d="M 737.5,530.5 C 737.167,530.5 736.833,530.5 736.5,530.5C 736.833,527.833 737.167,527.833 737.5,530.5 Z"/></g>
<g><path style="opacity:0.012" fill="#1a0100" d="M 737.5,530.5 C 738.525,530.897 738.692,531.563 738,532.5C 737.536,531.906 737.369,531.239 737.5,530.5 Z"/></g>
<g><path style="opacity:0.012" fill="#1a0100" d="M 8.5,533.5 C 9.52502,533.897 9.69169,534.563 9,535.5C 8.53566,534.906 8.36899,534.239 8.5,533.5 Z"/></g>
<g><path style="opacity:0.012" fill="#1a0100" d="M 739.5,536.5 C 739.167,536.5 738.833,536.5 738.5,536.5C 738.833,532.5 739.167,532.5 739.5,536.5 Z"/></g>
<g><path style="opacity:0.012" fill="#1a0100" d="M 8.5,539.5 C 7.42654,538.749 7.25988,537.749 8,536.5C 8.48278,537.448 8.64945,538.448 8.5,539.5 Z"/></g>
<g><path style="opacity:0.012" fill="#1a0100" d="M 739.5,536.5 C 740.573,537.251 740.74,538.251 740,539.5C 739.517,538.552 739.351,537.552 739.5,536.5 Z"/></g>
<g><path style="opacity:0.012" fill="#1a0100" d="M 7.5,543.5 C 6.42654,542.749 6.25988,541.749 7,540.5C 7.48278,541.448 7.64945,542.448 7.5,543.5 Z"/></g>
<g><path style="opacity:0.012" fill="#1a0100" d="M 740.5,543.5 C 740.351,542.448 740.517,541.448 741,540.5C 741.74,541.749 741.573,542.749 740.5,543.5 Z"/></g>
<g><path style="opacity:0.012" fill="#1a0100" d="M 5.5,544.5 C 6.52502,544.897 6.69169,545.563 6,546.5C 5.53566,545.906 5.36899,545.239 5.5,544.5 Z"/></g>
<g><path style="opacity:0.012" fill="#1a0100" d="M 741.5,544.5 C 742.525,544.897 742.692,545.563 742,546.5C 741.536,545.906 741.369,545.239 741.5,544.5 Z"/></g>
<g><path style="opacity:0.012" fill="#1a0100" d="M 742.5,550.5 C 742.351,549.448 742.517,548.448 743,547.5C 743.74,548.749 743.573,549.749 742.5,550.5 Z"/></g>
<g><path style="opacity:0.012" fill="#1a0100" d="M 743.5,551.5 C 744.525,551.897 744.692,552.563 744,553.5C 743.536,552.906 743.369,552.239 743.5,551.5 Z"/></g>
<g><path style="opacity:0.012" fill="#1a0100" d="M 3.5,557.5 C 2.42654,556.749 2.25988,555.749 3,554.5C 3.48278,555.448 3.64945,556.448 3.5,557.5 Z"/></g>
<g><path style="opacity:0.012" fill="#1a0100" d="M 744.5,557.5 C 744.351,556.448 744.517,555.448 745,554.5C 745.74,555.749 745.573,556.749 744.5,557.5 Z"/></g>
<g><path style="opacity:0.012" fill="#1a0100" d="M 2.5,560.5 C 1.47498,560.103 1.30831,559.437 2,558.5C 2.46434,559.094 2.63101,559.761 2.5,560.5 Z"/></g>
<g><path style="opacity:0.012" fill="#1a0100" d="M 745.5,558.5 C 746.525,558.897 746.692,559.563 746,560.5C 745.536,559.906 745.369,559.239 745.5,558.5 Z"/></g>
<g><path style="opacity:0.012" fill="#1a0100" d="M 0.5,561.5 C 1.52502,561.897 1.69169,562.563 1,563.5C 0.535656,562.906 0.368989,562.239 0.5,561.5 Z"/></g>
<g><path style="opacity:0.012" fill="#1a0100" d="M 746.5,564.5 C 746.351,563.448 746.517,562.448 747,561.5C 747.74,562.749 747.573,563.749 746.5,564.5 Z"/></g>
<g><path style="opacity:0.012" fill="#1a0100" d="M 747.5,567.5 C 747.369,566.761 747.536,566.094 748,565.5C 748.692,566.437 748.525,567.103 747.5,567.5 Z"/></g>
<g><path style="opacity:0.012" fill="#1a0100" d="M 749.5,568.5 C 749.5,569.167 749.5,569.833 749.5,570.5C 749.167,570.5 748.833,570.5 748.5,570.5C 748.328,569.508 748.662,568.842 749.5,568.5 Z"/></g>
</svg>
