<svg height="512" viewBox="0 0 64 64" width="512" xmlns="http://www.w3.org/2000/svg"><g id="_06-boxing" data-name="06-boxing"><path d="m23.5 36-2.41 3.07-.09-.07-1-9h5l1 4 .06.22a5 5 0 0 0 -2.56 1.78z" fill="#e1eaf2"/><path d="m38.92 40.99a3.224 3.224 0 0 0 1.13.21 3.124 3.124 0 0 0 2.21-.9l4.82 5.63-.08.07v8l-3.23 4.85-2.77 4.15h-23l-.97-7.74 2.97-3.26 3-2 8-5 .16-.06a3 3 0 0 0 5.84-.94v-4.74a3.435 3.435 0 0 0 -.04-.56l.07-.01a3 3 0 0 0 1.89 2.3z" fill="#e1eaf2"/><path d="m32.63 9a3.179 3.179 0 0 0 -.62.06l-.01-.06a4 4 0 0 1 -4-4c0-2.07 1.18-3.77 2.69-3.98.1-.01.21-.02.31-.02h12c.1 0 .21.01.31.02 1.51.21 2.69 1.91 2.69 3.98a4 4 0 0 1 -4 4l-.01.06a3.179 3.179 0 0 0 -.62-.06h-1.65a3.055 3.055 0 0 0 -1.36.32 3.05 3.05 0 0 1 -2.72 0 3.055 3.055 0 0 0 -1.36-.32z" fill="#e1eaf2"/><path d="m33.86 27a8.007 8.007 0 0 1 -6.9-3.97l.04-.03a3 3 0 0 1 3-3 8.363 8.363 0 0 0 2.69 3.6 7.083 7.083 0 0 0 4.31 1.4 7.45 7.45 0 0 0 7-5 3 3 0 0 1 3 3l.04.03a7.962 7.962 0 0 1 -6.9 3.97z" fill="#9863fc"/><path d="m43.31 1.02a5.988 5.988 0 0 1 5.69 5.98v7l-.96 6.22a7.86 7.86 0 0 1 -1 2.81l-.04-.03a3 3 0 0 0 -3-3 2.959 2.959 0 0 1 -1.44-1.16 3.4 3.4 0 0 1 -.56-1.84 2.991 2.991 0 0 1 2.14-2.87 1.261 1.261 0 0 0 .86-1.21 3.077 3.077 0 0 0 -.51-1.69l-.59-.88a3.029 3.029 0 0 0 -1.91-1.29l.01-.06a4 4 0 0 0 4-4c0-2.07-1.18-3.77-2.69-3.98z" fill="#2b8ffc"/><path d="m28 5a4 4 0 0 0 4 4l.01.06a3.029 3.029 0 0 0 -1.91 1.29l-.59.88a3.077 3.077 0 0 0 -.51 1.69 1.261 1.261 0 0 0 .86 1.21 3.05 3.05 0 0 1 1.54 1.06 3 3 0 0 1 .6 1.81 3.217 3.217 0 0 1 -2 3 3 3 0 0 0 -3 3l-.04.03a7.86 7.86 0 0 1 -1-2.81l-.96-6.22v-7a5.988 5.988 0 0 1 5.69-5.98c-1.51.21-2.69 1.91-2.69 3.98z" fill="#2b8ffc"/><path d="m18 43 5 7-3 2-5-7z" fill="#fdfeff"/><path d="m51.82 45.91 3.18-.91 1 3-7 2-1-3z" fill="#fdfeff"/><path d="m45 37 6.82 8.91-3.82 1.09-.92-1.07-4.82-5.63a3.006 3.006 0 0 0 .54-.73z" fill="#2864f0"/><path d="m31 44a2.653 2.653 0 0 0 .16.94l-.16.06-8 5-2-3 10-6z" fill="#2864f0"/><path d="m42.26 40.3a3.124 3.124 0 0 1 -2.21.9 3.224 3.224 0 0 1 -1.13-.21 3 3 0 0 1 -1.89-2.3 2.961 2.961 0 0 1 .09-1.25l.93-3.15a4 4 0 0 1 1.5-2.1l1.52-1.1.4-.29a4.24 4.24 0 0 1 2.48-.8h3.12a4.223 4.223 0 0 1 2.93 1.17l3.79 3.66a3.961 3.961 0 0 1 1.21 2.83v7.34l-3.18.91-6.82-8.91-2.2 2.57a3.006 3.006 0 0 1 -.54.73z" fill="#2b8ffc"/><path d="m21 47 2 3-5-7 3.09-3.93 2.41-3.07a5 5 0 0 1 2.56-1.78 4.657 4.657 0 0 1 1.44-.22h3.39a4.018 4.018 0 0 1 2.06.57l2.11 1.26a4.03 4.03 0 0 1 1.9 2.87 3.435 3.435 0 0 1 .04.56v4.74a2.995 2.995 0 0 1 -5.84.94 2.653 2.653 0 0 1 -.16-.94v-3z" fill="#2b8ffc"/><path d="m26 34-1-4h2l3-4a7.923 7.923 0 0 0 3.86 1h6.14l-1 3 2 1 .07.09-1.52 1.1a4 4 0 0 0 -1.5 2.1l-.93 3.15a2.961 2.961 0 0 0 -.09 1.25l-.07.01a4.03 4.03 0 0 0 -1.9-2.87l-2.11-1.26a4.018 4.018 0 0 0 -2.06-.57h-3.39a4.657 4.657 0 0 0 -1.44.22z" fill="#9e6861"/><path d="m8 43v-3.29a8.019 8.019 0 0 1 4.11-7l3.08-1.7a6.033 6.033 0 0 1 .81-.39v7.22a2.991 2.991 0 0 1 -2.05 2.84l-.95.32a29.569 29.569 0 0 0 -4.87 2.22z" fill="#8c5956"/><path d="m49 50 4 13h-3.88a5.283 5.283 0 0 1 -5.12-4l-.23-.15 3.23-4.85v-8l.08-.07.92 1.07z" fill="#9e6861"/><path d="m62.31 57.02a3.8 3.8 0 0 1 -3.11 5.98h-6.2l-4-13 7-2z" fill="#ba7b72"/><path d="m17.03 55.26-5.53 6.09a5.052 5.052 0 0 1 -3.73 1.65 5 5 0 0 1 -3.15-1.11l-1.73-1.38a5.037 5.037 0 0 1 -1.89-3.93v-2.58l14-9 5 7z" fill="#ba7b72"/><path d="m21.09 39.07-3.09 3.93-3 2-14 9v-2.57a7.4 7.4 0 0 1 3.93-6.54c1.02-.54 2.13-1.13 3.2-1.67a29.569 29.569 0 0 1 4.87-2.22l.95-.32a2.991 2.991 0 0 0 2.05-2.84v-7.22a7.869 7.869 0 0 1 3.07-.62h.93l1 9z" fill="#9e6861"/><path d="m41.37 9a3.179 3.179 0 0 1 .62.06 3.029 3.029 0 0 1 1.91 1.29l.59.88a3.077 3.077 0 0 1 .51 1.69 1.261 1.261 0 0 1 -.86 1.21 2.991 2.991 0 0 0 -2.14 2.87 3.4 3.4 0 0 0 .56 1.84 2.959 2.959 0 0 0 1.44 1.16 7.45 7.45 0 0 1 -7 5 7.083 7.083 0 0 1 -4.31-1.4 8.363 8.363 0 0 1 -2.69-3.6 3.217 3.217 0 0 0 2-3 3 3 0 0 0 -.6-1.81 3.05 3.05 0 0 0 -1.54-1.06 1.261 1.261 0 0 1 -.86-1.21 3.077 3.077 0 0 1 .51-1.69l.59-.88a3.029 3.029 0 0 1 1.91-1.29 3.179 3.179 0 0 1 .62-.06h1.65a3.055 3.055 0 0 1 1.36.32 3.05 3.05 0 0 0 2.72 0 3.055 3.055 0 0 1 1.36-.32z" fill="#ba7b72"/><path d="m42 7-.01.06a3.179 3.179 0 0 0 -.62-.06h-1.65a3.055 3.055 0 0 0 -1.36.32 3.05 3.05 0 0 1 -2.72 0 3.055 3.055 0 0 0 -1.36-.32h-1.65a3.179 3.179 0 0 0 -.62.06l-.01-.06a3.992 3.992 0 0 1 -3.879-3.066 5.2 5.2 0 0 0 -.121 1.066 4 4 0 0 0 4 4l.01.06a3.179 3.179 0 0 1 .62-.06h1.65a3.055 3.055 0 0 1 1.36.32 3.05 3.05 0 0 0 2.72 0 3.055 3.055 0 0 1 1.36-.32h1.65a3.179 3.179 0 0 1 .62.06l.01-.06a4 4 0 0 0 4-4 5.2 5.2 0 0 0 -.121-1.066 3.992 3.992 0 0 1 -3.879 3.066z" fill="#b9c3cc"/><path d="m30.69 3.02c.1-.01.21-.02.31-.02h12c.1 0 .21.01.31.02a3.419 3.419 0 0 1 2.569 2.914 4 4 0 0 0 .121-.934c0-2.07-1.18-3.77-2.69-3.98-.1-.01-.21-.02-.31-.02h-12c-.1 0-.21.01-.31.02-1.51.21-2.69 1.91-2.69 3.98a4 4 0 0 0 .121.934 3.419 3.419 0 0 1 2.569-2.914z" fill="#ebf5f7"/><path d="m36.96 38.7a4.03 4.03 0 0 0 -1.9-2.87l-2.11-1.26a4.018 4.018 0 0 0 -2.06-.57h-3.39a4.657 4.657 0 0 0 -1.44.22 5 5 0 0 0 -2.56 1.78l-.581.741a4.944 4.944 0 0 1 1.141-.521 4.657 4.657 0 0 1 1.44-.22h3.39a4.018 4.018 0 0 1 2.06.57l2.11 1.26a4.03 4.03 0 0 1 1.9 2.87 3.435 3.435 0 0 1 .04.56v4.74a2.938 2.938 0 0 1 -.141.859 2.962 2.962 0 0 0 2.141-2.859v-4.74a3.435 3.435 0 0 0 -.04-.56z" fill="#2cb5ff"/><path d="m15.19 31.01-3.08 1.7a8.019 8.019 0 0 0 -4.11 7v3a8.019 8.019 0 0 1 4.11-7l3.08-1.7a6.033 6.033 0 0 1 .81-.39v-3a6.033 6.033 0 0 0 -.81.39z" fill="#9e6861"/><path d="m20.745 33h5.005l-.75-3h-5l.333 3z" fill="#fdfeff"/><path d="m20.333 33-.333-3h-.93a7.869 7.869 0 0 0 -3.07.62v2.987a11.056 11.056 0 0 1 3.632-.607z" fill="#ba7b72"/><path d="m30.1 12.35a3.029 3.029 0 0 1 1.91-1.29 3.179 3.179 0 0 1 .62-.06h1.65a3.055 3.055 0 0 1 1.36.32 3.05 3.05 0 0 0 2.72 0 3.055 3.055 0 0 1 1.36-.32h1.65a3.179 3.179 0 0 1 .62.06 3.029 3.029 0 0 1 1.91 1.29l.59.88a3.2 3.2 0 0 1 .248.466 1.307 1.307 0 0 0 .262-.776 3.077 3.077 0 0 0 -.51-1.69l-.59-.88a3.029 3.029 0 0 0 -1.91-1.29 3.179 3.179 0 0 0 -.62-.06h-1.65a3.055 3.055 0 0 0 -1.36.32 3.05 3.05 0 0 1 -2.72 0 3.055 3.055 0 0 0 -1.36-.32h-1.65a3.179 3.179 0 0 0 -.62.06 3.029 3.029 0 0 0 -1.91 1.29l-.59.88a3.077 3.077 0 0 0 -.51 1.69 1.307 1.307 0 0 0 .262.776 3.2 3.2 0 0 1 .248-.466z" fill="#9e6861"/><path d="m43.188 19.534a3.3 3.3 0 0 1 -.628-.694 3.4 3.4 0 0 1 -.56-1.84c0-.082.013-.161.02-.241a2.969 2.969 0 0 0 -1.02 2.241 3.173 3.173 0 0 0 .806 2.153 6.984 6.984 0 0 1 -4.806 1.847 7.083 7.083 0 0 1 -4.31-1.4c-.178-.132-.348-.274-.513-.424a3.363 3.363 0 0 0 .823-2.176 2.856 2.856 0 0 0 -1.02-2.246c.007.082.02.162.02.246a3.35 3.35 0 0 1 -1.186 2.535 2.683 2.683 0 0 1 -.814.465 8.363 8.363 0 0 0 2.69 3.6 7.083 7.083 0 0 0 4.31 1.4 7.45 7.45 0 0 0 7-5 2.61 2.61 0 0 1 -.812-.466z" fill="#9e6861"/><path d="m47 23a3 3 0 0 0 -3-3 7.45 7.45 0 0 1 -7 5 7.083 7.083 0 0 1 -4.31-1.4 8.363 8.363 0 0 1 -2.69-3.6 3 3 0 0 0 -3 3l-.04.03a7.91 7.91 0 0 0 1.055 1.4c-.012-.2-.018-.41-.011-.615a1 1 0 0 1 1.839-.5c.772 1.176 2.485 2.721 6.157 2.685h2c3.672.036 5.385-1.509 6.157-2.689a1 1 0 0 1 1.843.506c.007.207 0 .417-.012.62a7.96 7.96 0 0 0 1.052-1.407z" fill="#6f3ff3"/><path d="m45.682 8.891a4.664 4.664 0 0 0 1.318-3.261 4.781 4.781 0 0 0 -2.212-4.344 5.919 5.919 0 0 0 -1.478-.266c1.51.21 2.69 1.91 2.69 3.98a4 4 0 0 1 -4 4l-.01.06a3.032 3.032 0 0 1 1.7 1.029 2.807 2.807 0 0 1 .212.261l.59.88a3.077 3.077 0 0 1 .508 1.69 1.274 1.274 0 0 1 -.6 1.08h.4a1.993 1.993 0 0 0 1.974-2.336 6.559 6.559 0 0 0 -1.092-2.773z" fill="#2864f0"/><path d="m32 9a4 4 0 0 1 -4-4c0-2.07 1.18-3.77 2.69-3.98a5.919 5.919 0 0 0 -1.478.266 4.781 4.781 0 0 0 -2.212 4.344 4.665 4.665 0 0 0 1.21 3.14 6.308 6.308 0 0 0 -1.177 2.895 1.993 1.993 0 0 0 1.974 2.335h.6a1.274 1.274 0 0 1 -.607-1.08 3.077 3.077 0 0 1 .51-1.69l.59-.88a2.807 2.807 0 0 1 .212-.261 3.032 3.032 0 0 1 1.7-1.029z" fill="#2864f0"/><path d="m43 17c0-2 3-2 3-2a2 2 0 0 0 2-2v-.764a3.618 3.618 0 0 0 -2-3.236h-.248a6.758 6.758 0 0 1 1.017 2.664 1.993 1.993 0 0 1 -1.969 2.336h-.4a1.114 1.114 0 0 1 -.255.13 2.991 2.991 0 0 0 -2.145 2.87 3.4 3.4 0 0 0 .56 1.84 2.959 2.959 0 0 0 1.44 1.16 3 3 0 0 1 3 3l.04.03a7.685 7.685 0 0 0 .793-1.883c-.847-2.163-4.833-2.359-4.833-4.147z" fill="#2357d1"/><path d="m26 12.236v.764a2 2 0 0 0 2 2s3 0 3 2c0 1.788-3.986 1.984-4.833 4.147a7.685 7.685 0 0 0 .793 1.883l.04-.03a3 3 0 0 1 3-3 3.217 3.217 0 0 0 2-3 3 3 0 0 0 -.6-1.81 3.05 3.05 0 0 0 -1.54-1.06 1.114 1.114 0 0 1 -.255-.13h-.6a1.993 1.993 0 0 1 -1.974-2.336 6.766 6.766 0 0 1 1.02-2.664h-.051a3.618 3.618 0 0 0 -2 3.236z" fill="#2357d1"/><path d="m30.406 29.891a2 2 0 0 1 1.664-.891h7.263l.667-2h-6.14a7.923 7.923 0 0 1 -3.86-1l-3 4h-2l1 4 .06.22a4.657 4.657 0 0 1 1.44-.22h1.515a7.282 7.282 0 0 1 1.208-3.835z" fill="#8c5956"/><path d="m53 63-4-13-1-3-.92-1.07-.08.07v8l2.321 4.642a1.982 1.982 0 0 1 -.856 2.665 7.056 7.056 0 0 1 -2.485.644 5.254 5.254 0 0 0 3.14 1.049z" fill="#8c5956"/><path d="m15 45-2.741 1.762 1.771 2.481a4 4 0 0 1 -.43 5.157l-4.563 4.562a3 3 0 0 1 -2.493.856l-4.794-.6a5.024 5.024 0 0 0 1.14 1.292l1.73 1.38a5 5 0 0 0 3.15 1.11 5.052 5.052 0 0 0 3.73-1.65l5.53-6.09 2.97-3.26z" fill="#9e6861"/><path d="m21 39-.667-6h-.889l.471 4.239a2 2 0 0 1 -.361 1.384l-1.571 2.2a9.032 9.032 0 0 1 -2.3 1.966l-9.775 5.833a2 2 0 0 1 -2.96-.727l-.455-.909a7.4 7.4 0 0 0 -1.493 4.444v2.57l14-9 3-2 3.09-3.93z" fill="#8c5956"/><path d="m60 61h-2.768a3 3 0 0 1 -2.873-2.138l-1.381-4.6a3 3 0 0 1 2.381-3.821l2.1-.35-1.459-2.091-7 2 4 13h6.2a3.779 3.779 0 0 0 3.743-4.433 3 3 0 0 1 -2.943 2.433z" fill="#9e6861"/><path d="m46.141 41.467 3.859 4.962 1.82-.519-6.82-8.91-2.2 2.57a3.006 3.006 0 0 1 -.54.73l.832.972.361-.241a2 2 0 0 1 2.688.436z" fill="#2357d1"/><path d="m31.16 44.94a2.653 2.653 0 0 1 -.16-.94v-3l-10 6 .7 1.054 5.811-3.229a1 1 0 0 1 1.489.875v.55l2-1.25z" fill="#2357d1"/><path d="m53.79 34.83-3.79-3.66a4.223 4.223 0 0 0 -2.93-1.17h-3.12a4.24 4.24 0 0 0 -2.48.8l-.4.29-1.52 1.1a4 4 0 0 0 -1.5 2.1l-.93 3.15a2.859 2.859 0 0 0 1.661 3.474 4.792 4.792 0 0 1 0-2.634l.981-3.434a2 2 0 0 1 1.029-1.239l2.791-1.4a2 2 0 0 1 .89-.207h1.7a2 2 0 0 1 1.414.586l3.508 3.508a4 4 0 0 1 1.117 2.17l.371 2.229a3 3 0 0 0 2.418 2.458v-5.291a3.961 3.961 0 0 0 -1.21-2.83z" fill="#2cb5ff"/><path d="m47.08 45.93-4.82-5.63a3.124 3.124 0 0 1 -2.21.9 3.224 3.224 0 0 1 -1.13-.21 3 3 0 0 1 -1.89-2.3l-.07.01a3.435 3.435 0 0 1 .04.56v4.74a2.995 2.995 0 0 1 -5.84.94l-.16.06-8 5-3 2-2.97 3.26.43 3.433 6.5-4.334a20.005 20.005 0 0 1 11.096-3.359h2.622a1.322 1.322 0 0 0 1.322-1.322 2.677 2.677 0 0 1 5.328-.379l.259 1.811a3.359 3.359 0 0 0 2.413 2.749v-7.859z" fill="#cdd6de"/><path d="m17.46 58.693.54 4.307h2.769l-.476-6.195z" fill="#ebf5f7"/><path d="m50.9 47.775a1 1 0 0 1 -1.191-.654l-.185-.555-1.524.434 1 3 7-2-.462-1.385z" fill="#e1eaf2"/><path d="m23 50-5-7-.692.462 2.583 3.874a2 2 0 0 1 -.555 2.773l-.465.31 1.129 1.581z" fill="#e1eaf2"/><ellipse cx="41" cy="13" fill="#333940" rx="1" ry="2"/><ellipse cx="33" cy="13" fill="#333940" rx="1" ry="2"/><path d="m38 16.857c0 1.657-.448 2.143-1 2.143s-1-.486-1-2.143.448-3.857 1-3.857 1 2.2 1 3.857z" fill="#8c5956"/><rect fill="#fdfeff" height="2" rx="1" width="9" x="30" y="1"/><rect fill="#fdfeff" height="2" rx="1" width="3" x="40" y="1"/><g fill="#f6fafd"><ellipse cx="48.684" cy="33.695" rx="1.642" ry="2.286" transform="matrix(.707 -.707 .707 .707 -9.563 44.314)"/><ellipse cx="50.682" cy="37.708" rx=".825" ry="1.148" transform="matrix(.707 -.707 .707 .707 -11.816 46.903)"/><ellipse cx="33.682" cy="36.708" rx=".825" ry="1.148" transform="matrix(.707 -.707 .707 .707 -16.092 34.585)"/><ellipse cx="31.427" cy="35.208" rx=".413" ry=".574" transform="matrix(.707 -.707 .707 .707 -15.692 32.551)"/></g><path d="m34 20h6a3 3 0 0 1 -6 0z" fill="#8c5956"/></g></svg>