<?xml version="1.0" encoding="utf-8"?>
<!-- Generator: Adobe Illustrator 27.0.0, SVG Export Plug-In . SVG Version: 6.00 Build 0)  -->
<svg version="1.1" id="Capa_1" xmlns="http://www.w3.org/2000/svg" xmlns:xlink="http://www.w3.org/1999/xlink" x="0px" y="0px"
	 viewBox="0 0 432.1 512" style="enable-background:new 0 0 432.1 512;" xml:space="preserve">
<style type="text/css">
	.st0{fill:#ECEFF4;}
	.st1{fill:#DB977E;}
	.st2{fill:#D9937C;}
	.st3{fill:#B46449;}
	.st4{fill:#D3D7E1;}
	.st5{fill:#EBAE99;}
	.st6{fill:#44464E;}
	.st7{fill:#200F0F;}
	.st8{fill:#D38268;}
	.st9{fill:#11100F;}
	.st10{fill:#3E2018;}
	.st11{fill:#BB6B50;}
	.st12{fill:#8C909A;}
	.st13{fill:#C87F67;}
	.st14{fill:#70747C;}
	.st15{fill:#752F1B;}
	.st16{fill:#4D5159;}
	.st17{fill:#E9A993;}
	.st18{fill:#8D642C;}
	.st19{fill:#2B1310;}
	.st20{fill:#D58970;}
	.st21{fill:#673D2D;}
	.st22{fill:#532F23;}
	.st23{fill:#D83C36;}
	.st24{fill:#2B2B49;}
	.st25{fill:#A42526;}
	.st26{fill:#F3B6A2;}
	.st27{fill:#1D1B18;}
	.st28{fill:#C58A39;}
</style>
<path class="st0" d="M192.4,511.8l-4.3,0V499l-10.5,6.9l-1-1.4l3.2-13.2l-1.4-0.6l-1.9,2.5l-1.1,2.7l0-0.1l-1.1,1.1l0,0l-8.8,5.9
	l-3-20.7c1.1-11.1,2.9-22.2,3-33.3c0-10.5-1.7-21-2.9-31.4c-0.7-5.9-1.7-11.7-2.6-17.5c-1.9,5.4-2.3,10.9-3.9,16
	c-2.4,7.7-3.7,16.2-10.6,21.8c-2.1,1.7-3.7,3.9-5.5,5.9l-3.9-10.4c0.7-0.8,1.7-1.6,2.1-2.5c3.1-7.6,5.7-15.5,9.2-22.9
	c5.9-12.4,9.1-25.7,9.5-39.1c0.6-17.1-1.1-34.4-1.9-51.6c0-1-1.1-2-1.7-2.9l1.9-9.4l14.8,4.8l10.2,3.3c-4.2-11.7-14-18.1-16.8-29.6
	l18.4,8l0.9-1.4c-4.6-8.6-10.8-16-18.4-22.3l2.1-4c1.2,0.9,2.3,2.1,3.6,2.8c5.5,2.6,11.3,4.7,16.7,7.6l58.3,31.6
	c1.9,1,4.3,0.9,6.5,1.3l1.1,0.3l-0.1,1.3L220,322.2c-5.8,2.2-9.3-0.2-9.8-6.2c-0.1-0.7-0.2-1.4-0.4-2.7c-3.6,5.6-3.8,13.1-0.5,16.1
	c4.5,4.1,8.7,1.7,13-0.8l30.7-17.7c6.4,4.4,12.9,8.5,19.1,13.1l45.7,34.7c2.7,2,5.6,3.7,8.4,5.5c-5.2-4.5-9-10.4-14-14.8
	c-16.3-14.2-32.8-28.2-49.8-41.5c-13.9-10.7-28.6-20.3-43.1-30.3c-6.7-4.6-13.5-8.9-20.4-13.1c-2.6-1.6-1.8-2.8-0.2-4.3l13.7,1.4
	c0.7,0.6,1.3,1.6,2.1,1.9c17.8,6.5,34.4,15.1,48.7,27.8c3.6,3.2,7.9,5.6,11.8,8.4l3.2,3.2l0.5,0.4l-0.4-0.4l-3.2-3.2l-3.9-8.9
	l26.2,13.3l0.8-1.3c-1-1.2-1.9-2.4-3-3.5c-8.7-9-8.1-17.3-2.8-26.9c2.6-4.8,4.9-9.7,7.2-14.7c0.3-0.6-0.3-1.7-0.5-2.6l4.6-9.4
	l11.6-1.3l45.8,51.4v7.2c-5.1-3.5-9.1-5.7-12.6-8.7c-2.7-2.3-3.2-1.1-4.1,1.3c-1.9,5.2,0.2,10.1,5.8,12.5c2.4,1,5.1,1.5,7.5,2.5
	c5.9,2.5,7.1,8.3,2.9,13.1c-4,4.5-2.9,9.3,1.3,14c4.1,4.6,7.5,2.8,11.4,0.8c0.8,1.5,2.4,3.1,2.4,4.6c-0.5,9.6-0.9,19.3-2.3,28.8
	c-1.8,11.4-5.1,12.9-15.7,8.6c-1.7-0.7-3.4-1.6-5.1-2.4l-1-1l-1.3-0.9l-3.1-0.6c-3.3-3.3-5.3-0.5-7.5,1.6l-2.2,4.2
	c-0.2,0.1-0.5,0.2-0.8,0.3c-1.5-0.6-3-1-4.3-1.9l-31.1-21.3l-13.4-9.1l-1.4,1.7c3.6,3.3,7.4,6.4,10.9,9.8l34,34.3l-1.1,4.5
	c-2.3-1.5-4.8-2.9-6.9-4.6c-4.2-3.5-8.1-7.3-12.1-11l-1.5,1.7l18.8,17.8l-0.6,4.2l-1.9,4.4l-15.1-17.5c-1.7,6-0.1,9.3,3.2,12.6
	c3.7,3.6,6.6,8,9.8,12.1l-6.1,34l10.3-0.9c1-5.9,1.7-11.5,3-17c0.3-1.3,2.3-2.1,3.5-3.2l6.4,2.3c6.3,9.3,10.1,19.3,11.9,30.6
	c1.7,10.9,5.2,21.5,7.9,32.2l-1.8,1.2c-2.1-0.6-4.5-0.7-6.1-1.8l-54.5-39.7c-1.3-1-1.9-3.1-2.8-4.6l13.3,0v-42.1l-0.6-17.1l-0.4-1.3
	l-0.2-6.2l0.4-2.2h3.1l-2.9-1.2c-1.2-2.1,1.1-6.1-3.5-6.4l-10.6-8.2l-0.4-1.4c-0.1,0.1-0.4,0.3-0.4,0.3c0.2,0.4,0.5,0.8,0.8,1.1
	l5.3,8.3l-4.4,1.2c-1.3-0.5-2.8-0.6-3.8-1.4c-3-2.2-5.8-4.7-8.7-7.1l-3.9-5.3l-1.6,1.6l5.4,3.7c1.7,2.6,3,5.6,5.2,7.7
	c4.7,4.4,7.5,9.2,6.6,15.8c-0.2,1.6,0.5,3.4,0.8,5.1l0.5,55.1l-6.2-1.1l-1.4-3c0.2-0.4,0.7-0.9,0.6-1.2l-21-62.1
	c-2.8-7.9-16.5-12.3-21.9-1.8c-4.5,8.9-7.4,18.5-11.1,27.9l-2.5,8.6l-3.8,10.7l-10.9-7.1l-2.2,2.4c2.3,1.4,4.9,2.4,6.7,4.2
	c1.9,2,3.1,4.7,4.5,7.2l-3.3,12.4l-1.3,3.2c-1.4-2.6-2.4-5.6-4.3-7.6c-7.8-7.9-15.9-15.5-24-23.2c-1.4-1.4-2.9-2.7-4.4-4l-1.4,1.2
	c3.9,7.4,7.3,15.1,11.9,22c14.4,21.8,33,40.2,50.5,59.4c3.1,3.4,5.4,7.7,8.1,11.6l-10.7,0c-0.5-0.9-0.7-2-1.4-2.7l-26-27.3
	c-4.9-5.2-9.5-10.9-14.5-16c-2.7-2.8-5.8-5.1-9-7.3c-2.6-1.7-4.5-1-4.3,2.5c0.1,3.3,0.5,6.6,0.7,10c0.4,7.7,1.1,15.4,1.1,23.1
	C194,500,193,505.9,192.4,511.8L192.4,511.8z M339.7,286.9c1.5,0.6,3.1,0.8,3.6,1.7c2.2,3.4,4.4,2.9,6.9,0.6
	C347.3,284.1,342.4,283.4,339.7,286.9z M282.8,306.4l-0.5-0.2c0,0.1-0.2,0.3-0.1,0.4c0.1,0.1,0.3,0.2,0.4,0.2
	C282.7,306.8,282.8,306.6,282.8,306.4L282.8,306.4z"/>
<path class="st1" d="M96.8,245.4l9.5-15.9c-1.3,4.3-2.3,8.6-3.8,12.9c-2.3,6.6-5,13.1-7.5,19.7l1.4,0.5
	c13.5-19.5,19.4-43.7,36.9-60.8l1.7,0.7l-10.5,27.2l-7.5,14.8c-2.1,2.7-4.4,5.2-6.3,8l-21.2,31.3l-3.2,5.3
	c-11.5,11.1-17.5,25.5-24.3,40.2l11.6-5.2l0.1,0.1l-10.3,17.1l-10,15.8l-19.1,39.1c-3.6,7.4-2.4,13.7,3.8,19.4
	c3.9,3.6,3.3,6.2-1.3,9.3c-1,0.7-2.1,1.2-2.3,1.4l3.2,19c0.6,3.5,2.1,6.9,6.4,6.1c3.3-0.6,6.3-2.6,9.4-3.9l-1.1,6.2l-0.8,4.3
	c-11.2,0-20.3-5-28.8-11.7c-6.1-8.6-8.2-18-5-28.2l8.1-24.7c0.9-0.3,2.4-0.4,2.8-1c2.1-4,4.2-8,5.8-12.2c0.6-1.7,0-3.9-0.1-5.9
	l0-3.2l0.2-0.5l-0.2,0.4l-2-0.1l-0.1-1.9c3.5-5.3,7.7-10.3,10.5-16c5.4-10.9,9.7-22.2,15.1-33.1c3.9-8,8.9-15.4,13-23.2
	c2.7-5.1,4.7-10.5,7-15.8l0,0l2.1-3.2l0,0l1-2.1c2.5-3.8,5.4-7.4,7.4-11.5C91.5,257.8,94,251.6,96.8,245.4L96.8,245.4z"/>
<path class="st2" d="M135,138.3c-0.1-6.2,1.9-11.1,7.6-14.4c4-2.3,7.7-5.3,11.5-8l5,5l7.9-9.2c4.8,1.8,5.6-4.9,10-7.4l-4.5-3.4
	c5.3-6,14-7.5,20.1-3.7c0.9,0.6,2.7,0.3,3.8-0.2c8.2-3.9,9-3.7,12.3,4.5c0.2,0.5,1.1,0.6,1.7,1l-1.3,15.5l-1.4,1.8l-3,2.3l-1.1,1.1
	l-7.5,6.4l-19,13.8l-1.1,1.1l-2.3,2l-4.9-0.4l-0.9-2.3c5-1.9,10.4-2.9,12.5-9c1.1-3.1,3.6-5,7.4-4.8c4.7,0.2,7.4-2.4,8.7-6.9
	c0.5-1.6,1.2-3.9,2.3-4.3c4.9-1.7,3-4.4,1.8-7.6l-12.8,9.4c-1.5,1-3.4,1.4-5.7,2.3c-1.2,5-5.9,9.6-12.3,11.4l-4.9,0.5l-2.1-5.9
	c7.5,1.5,10.6-1.2,12.7-11.5c7.9-0.5,15.2-2.3,18.3-11l-3.5-0.8l-2.3,1.1l0.1-0.1c-4,2.3-10.6,0.7-11.7,7.5l0.1,0l-7.5,0.9l-3.9,8.4
	l-2.3,3.5l-4.3-3.9c-3.2,2.8,4.8,6.4-1.9,8.4l17.7,36.8l1.5,6.3c3.9-1.7,6.7-1.2,7.8,2.9c0.8,2.9,1.3,5.8,2.1,9.4l2.3-8.2
	c6.4,8.4,4.1,19-4.6,23.1l-1.2-5.6l-0.9,0.1l-0.6,2.8c-0.3,0-0.7,0-1,0.1l-3.9-4.5c-2.3,4.7-4.6,9.1-6.5,13.7
	c-2.1,5.3-3.8,10.7-5.7,16.1l-8.3,11.8l-1.1-4.4l-1.3-0.1l-6.1,12l-11,16.6l3.6-13.4l0.1-1.1l2.1-8.5c1.8-8,2.5-16.5,5.7-23.9
	c4-9,9.7-17.5,19.2-22.3c0.3-5,4.7-9.4,4-13.8c-1.1-7.3-4.1-14.4-6.9-21.3c-4.2-10.3-9-20.4-13.7-30.8c-2.6,1.1-5.8,2.3-4.3,7.4
	c0.6,2.1-0.5,4.8-1.1,7.2c-0.9,3.7-1.9,7.4-3.1,11c-1.2,3.8-2.7,7.5-4.1,11.2L135,138.3L135,138.3z"/>
<path class="st0" d="M339.9,511.9l-7.5,0c-0.7-1.2-1.1-2.7-2.1-3.5c-4.9-3.9-10-7.7-15.1-11.5l-44.6-33.6L242.1,442
	c-2.5,3.9-1.4,6.4,1.5,9.3l44.1,44.7c4.7,4.9,8.6,10.5,12.9,15.8l-8.5,0c-0.4-0.7-0.7-1.6-1.3-2.1L238.3,464
	c-3.8-3.3-7.6-6.1-13.1-5.2c-1.2,0.2-2.6-0.7-4-1.1l3.1-0.4l0.4,0.2l0.4-0.2l4.1-0.2c5.2,1.5,7.9-0.6,8.4-5.9
	c0.2-1.7,0.8-3.4,1.2-5.1l1.7-7.4c1.9-0.7,3.7-1.8,5.6-1.9c4.8-0.2,9.7,0,14.5,0.1l9.1-1.4l2,1l5.2,17.1l10.8-1.1l-1.3,3.1l39,38.5
	C330.8,499.5,335.1,505.9,339.9,511.9L339.9,511.9z"/>
<path class="st3" d="M408.7,390.2c2.5,14.6,5.5,29.2,7.3,43.9c1.9,14.7,6.2,28.6,11,42.4c3.8,11.1,7.4,22.4,5.8,35.2h-14.4
	l-4.3-19.2l-6.4-26.3c2.5-4.4-1.7-4.6-3.8-6.2c-1.6-1.2-4-2.1-4.4-3.6c-0.9-3.9-1.2-8-1.2-12c-0.2-8.9,0.2-17.8-0.1-26.7
	c-0.2-6.1-1.3-12.3-2.1-18.4c0-0.1-1.3-0.1-2-0.1l-2.2,0l-0.2-1.3l15.8-8L408.7,390.2L408.7,390.2z"/>
<path class="st4" d="M221.2,457.7c1.3,0.4,2.7,1.3,4,1.1c5.5-0.9,9.3,1.9,13.1,5.2l52.4,45.8c0.6,0.5,0.9,1.4,1.3,2.1l-33.9,0
	c-2.7-3.9-4.9-8.1-8.1-11.6c-17.5-19.2-36.1-37.6-50.5-59.4c-4.6-6.9-8-14.7-11.9-22l1.4-1.2l4.4,4l24,23.2c2,2,2.9,5,4.3,7.6
	L221.2,457.7L221.2,457.7z M339.9,511.9c-4.8-6-9.1-12.4-14.4-17.8c-12.7-13-25.9-25.6-39-38.5l1.3-3.1l1.6-1.2l6.2,1.1l0,0
	c0.9,1.6,1.5,3.6,2.8,4.6l54.5,39.7c1.6,1.2,4.1,1.2,6.1,1.8l1.8-1.2c-2.7-10.7-6.2-21.3-7.9-32.2c-1.8-11.2-5.6-21.3-11.9-30.6
	l11.5-1.1l3.1,16.6l7.5,0.4l4.1,11.5l0.5,12.7l-7.2-9.8l-1.4-2.9l-0.3-0.2l0.4,0.2l0.8,3.4l0.9,4.6c1.6,8.8,3.5,17.5,4.5,26.4
	c0.3,2.9-1.6,6-2.5,9l-1.5-0.3l2.4,6.4l-6.8,0.4l-10.2-8.8l-1.1-1l-1.1-1.1l-2.2-2l-2-2.2l-1.1-1l-1.1-1l-1-0.3l0.7,0.6l1,1.1l1.1,1
	l2.1,2.1l2.1,2.2l1.1,1l1,1.1l5.8,8L339.9,511.9L339.9,511.9z M192.4,511.8c0.6-5.9,1.7-11.8,1.7-17.7c0.1-7.7-0.7-15.4-1.1-23.1
	c-0.2-3.3-0.6-6.6-0.7-10c-0.1-3.4,1.8-4.2,4.3-2.5c3.2,2.2,6.3,4.5,9,7.3c5,5.2,9.6,10.8,14.5,16l26,27.3c0.7,0.7,0.9,1.8,1.4,2.7
	L192.4,511.8L192.4,511.8z M336.4,219.2c6.5,0.6,12.4,2.1,18,6.1c5.2,3.7,11.4,6.4,17.5,8.6c10.9,3.8,15.7,12.6,19.6,22.2
	c1.2,3,1,6.5,2,9.6c1.1,3.2,3,6.2,4.5,9.3c0.5,1.1,0.9,2.3,1.4,3.4c-0.4,2-0.9,3.9-1.1,5.9c-0.5,4.7-0.8,9.5-1.2,14.2l-0.7-0.1
	l-1.3-11.3l-3.1-16.4l0,8c-0.1,2.1-0.3,4.1-0.5,6.2l-1.9-5.5l-6.6-24.1l-1.8,0.5c0.4,1.7,1.2,3.4,1.3,5.1c0.3,4.1,0.3,8.2,0.3,12.3
	l-12.4-31.1l-1.2,0.4l4.9,14.4l9.8,30.1c0.3,1.1-0.9,2.7-1.4,4.1l-8.9-14.2c-0.4-0.6-1.2-1.6-1.1-1.7c3.4-3.3-0.7-3.9-1.9-5.4
	c-5.6-6.5-11.8-12.6-16.6-19.5c-3.1-4.5-4.4-10.4-6.5-15.7l2.5,0.8l1.1,1l1.2,1.3l-0.5-1.9l-1-1.1l-13-10.4l0,0l-1.1-1.1l0,0.1
	L336.4,219.2L336.4,219.2z M360.9,246.8l1.2,1l0.3,1.5l0.7-0.3l-0.9-1.3l-1-1.1l-1-1.2l-2-2.3l-1.1-1.1l-1.1-1l-0.7-0.6l0.3,1
	l1.1,1.1l1,1.1l2.1,2.2L360.9,246.8L360.9,246.8z M381,252.9l-0.2-0.3l-0.3,0.3l0.4,0.4L381,252.9L381,252.9z M354.4,238.7
	c-0.1-0.1-0.2-0.3-0.3-0.3c-0.1,0-0.2,0.2-0.3,0.3c0.1,0.1,0.2,0.3,0.3,0.3C354.2,239,354.3,238.8,354.4,238.7L354.4,238.7z
	 M140.1,443.7c1.8-2,3.4-4.2,5.5-5.9c6.9-5.7,8.2-14.1,10.6-21.8c1.6-5.1,2-10.6,3.9-16c0.9,5.8,1.9,11.7,2.6,17.5
	c1.2,10.5,3,21,2.9,31.4c0,11.1-1.9,22.2-3,33.3c-0.6,1.7-1.7,3.3-1.9,5.1c-0.8,8.1-1.4,16.3-2,24.4c-3.8,1.1-6.1-0.4-6.6-4.3
	l-3.2-30.6l2.9-35l-0.5-0.2l-5,12l-2,0L140.1,443.7L140.1,443.7z M300.6,511.9c-4.3-5.3-8.2-10.9-12.9-15.8l-44.1-44.7
	c-2.9-2.9-4-5.4-1.5-9.3l28.5,21.4l44.6,33.6l15.1,11.5c1,0.8,1.4,2.3,2.1,3.5L300.6,511.9L300.6,511.9z"/>
<path class="st5" d="M139.3,245.5l-0.1,1.1c-6.7-0.1-7.4-5.2-8.4-10.1c-0.7-3.6-1.7-6.9-6.4-6.9l10.5-27.2l-1.7-0.7
	c-17.5,17-23.4,41.2-36.9,60.8L95,262l7.5-19.7c1.5-4.2,2.6-8.6,3.8-12.9c7.1-12.9,10.9-27.6,20.4-39.2l9.3-7.4
	c4.8-0.1,4.8-4.2,5.2-7.2c1.6-11.1,2.9-22.3,4.4-33.5l6.4-1.7c1.5,2.8,3.2,5.3,4.2,8c0.6,1.7,0.1,3.8,0,5.7
	c-0.4-0.7-0.7-1.6-1.3-2.2c-1.5-1.4-3-2.7-4.6-4c-1,1.6-2.7,3.2-2.9,4.9c-1.5,10.2-2.7,20.5-3.9,30.7c-0.1,0.7,0,1.4,0,2.1
	c0.2,2.6,1.5,4.3,4.1,2.9c3-1.6,5.7-3.8,8.6-5.8c-0.8,4.6-2.6,8.5-6.6,11.2c-7.5,5.1-9.3,13.3-11.5,21.2c-1.2,4.2-2,8.6-2.8,12.9
	C134.1,234.6,133.5,240.8,139.3,245.5L139.3,245.5z"/>
<path class="st6" d="M118.9,420.7l-6.2-14.8l4.4-18.1c0,0-0.1,0-0.1,0l1.1-1.1l1-2.1l1.2-5.4c2.4-7.7,5.4-15.2,7.2-23l12.8-59
	c1.4-6.1,3.9-11.9,5.9-17.8l1.5,0.1l2,4.1c2.1,4.1,0.5,7.3-4.2,8.7l-0.4-0.3l0.4,0.2l0.1,4.2c-1.1,2.8-2.9,5.6-3.2,8.5
	c-1,9.5-1.5,19.1-2.3,28.7c-0.1,1-0.8,1.9-1.1,2.9c-2.5,8.4-2.2,16.6,1.3,24.7l0,7.4c-1.1,1.3-2.7,2.4-3.2,4
	c-1.7,5.8-2.8,11.8-4.6,17.6c-2.9,9-6.2,17.9-9.6,26.8C122.3,418.5,120.3,419.5,118.9,420.7L118.9,420.7z"/>
<path class="st7" d="M117.1,387.8l-4.4,18.1c-2.6,6-4.8,12.2-8,17.9c-4.9,8.8-10.5,17.2-16,25.6c-2.6,3.9-5.8,7.3-8.8,11
	c-4.4,5.5-10.4,6.9-17,6.8l3.2-8.5l6.6-1.4l-1.6,4.2l1.4,0.2l0.3-4.4l0.3-0.2c0.6,0,1.7,0.3,1.9,0l10.6-17.6l-7.9,1.4
	c-0.3-0.1-0.6,0-0.9,0.1l-6.5-2.3l1.6-2.7l10-9.1l1.2-4.2c4.9,0.5,8.1-0.7,7.7-6.6c-0.1-1.1,1.8-2.4,3-3.3c2.9-2.1,3-4.1-0.1-6
	l0.1-2.1c0.2-0.2,0.5-0.4,0.9-0.4l3.4,1.5c0.8,0.5,1.7,1.5,2.3,1.4c6.3-1.9,9.8-6.9,12.6-12.4l-1.1-3.9l1.1-2.9l2.8-0.6L117.1,387.8
	L117.1,387.8z M108.3,410.8c-5.5-0.7-9.1,2.3-11,8.5L108.3,410.8z"/>
<path class="st2" d="M212.5,102.2l3.4-7.2c3.3-3.1,6.7-5.6,11.5-3.2l2.1,1.2l2.2,2.9l-6,13l-0.8-3.9l-1.4,1l-0.3,2.5
	c-5.4,4.5-4.2,10.7-3.8,16.8l4.9-12.4l2,0l1.3-1.1l5.8-1.6l3.6,5.8l-3,21.3l-4.5,11.8l-2,0l-11.7-8.6l-3.2-5.3l-1.1-12.7l2,1.1
	l2.4,12.4l1.5-0.2c0.1-0.6,0.4-1.3,0.2-1.8c-2.5-7.1-3.7-14.2-1.9-21.8c1-4.6,1.5-9.3,2.3-14l1-2.2c0.1,0,0.3-0.1,0.4-0.2
	c0.1,0,0.1-0.2,0.1-0.3l-0.4,0.4l-1.2,2l-3.1,6.4l-1.9,0L212.5,102.2L212.5,102.2z M230.8,117.4h0.4v-1.6h-0.4V117.4z"/>
<path class="st8" d="M400.3,511.7l-18.1,0l-2.4-28.8c-3-12.2-2.2-24.5-1.6-36.9c0.7,1.1,1.6,2,1.9,3.2c1.5,4.9,2.9,9.8,4.4,15.3
	c3.2-2.9,8.2-32.9,8.4-44c0.7,0.9,2,1.8,2,2.6l-2.1,36.8c-0.5,7.5-1.8,14.9-1.8,22.4c0,2.8,2.6,5.5,4,8.3v16.5l4.9-0.3L400.3,511.7
	L400.3,511.7z"/>
<path class="st9" d="M388.3,71.2c-3.5,7.6-3.1,16.7-8.6,23.6c-3.2,4.1-6.1,8.5-9.2,12.8c-0.3,0-0.7,0-1,0c1.4-9.9,0.1-11.7-9.5-13.1
	l-0.2-24.9c-0.1-2.2-1.3-4.4-2-6.6l0-1.1l3.1-2.1l7.4,4.3l7.7,1.8l1.9,0l4.6,6.2l4.1-1.9L388.3,71.2L388.3,71.2z M213.7,76.8l3-31.9
	c1.5-0.4,3.4-1.5,4.5-0.9c5.2,2.5,5.9,2.1,6.2-4.2l3.1-1.3l3.3-2l6.3-1.1l0,4.2c-0.4,1.9-1.4,3.8-1.1,5.6c0.9,6.3,2.1,12.5,3.3,18.8
	c-0.3,3.3-2.6,3.4-5.2,4.5c-6.2,2.5-14.1,2-18.2,9.1L213.7,76.8L213.7,76.8z"/>
<path class="st10" d="M227.3,91.8c-4.8-2.5-8.2,0-11.5,3.2l0.1-5.4c0.1-0.1,0.3-0.3,0.3-0.4c-0.2-0.2-0.4-0.4-0.6-0.6l0,0
	c0.4-4.1,7.4-11.4,12.3-11.5c12.4-0.3,24.7-5.4,37.4-1.5c1.2,0.4,3-1.2,4.6-1.9l4.7,0.4l-10,11.3c-2.5,0.9-5,1.9-7.6,2.6
	c-5.3,1.3-10.7,2.2-15.9,3.6c-3.8,1-5.9,3.6-5,7.8l-1.5,1.2l-3.1-4.7l-2.2-2.9L227.3,91.8L227.3,91.8z"/>
<path class="st0" d="M407.4,390.1l-15.8,8l-10.9,1.2l-0.5-2c1.3-4.5,2.3-9.2,4-13.6c2.8-7.3,0.6-16,6.1-22.5
	c1.6-2.1,3.2-4.1,4.7-6.2c2.2-3.2,4.3-6.4,6.4-9.7l-3.1,20.8h4.7l0.6,1.1l-12.8,8.9l-0.4,0.5l0.5-0.4l16.9-3.2l1.2,2.1l-13.9,7.7
	l0.7,1.3l7-0.5l1.3,1.8l-6.8,4.3l0.7,1.3L407.4,390.1L407.4,390.1z"/>
<path class="st4" d="M45.7,323c-0.1-4.1-1.2-8.4-0.2-12.2c1.4-5.8,3.3-11.8,6.5-16.8c4.2-6.6,9.8-12.4,14.9-18.4
	c2.8-3.2,5.8-6.2,8.9-9.2c2.7-2.5,5.6-4.8,8.4-7.2l1.1,1.6l-6.7,11.9c-2.3,4.3-4.4,8.6-6.5,12.9l-11.4,17L45.7,323L45.7,323z"/>
<path class="st11" d="M32.2,368.7l0.1,1.9l-0.1,4.4l-6.3,18.1l-8.1,24.7c-3.2,10.2-1.1,19.6,5,28.2l-4.5,2.3c-1.6-2-3.9-3.7-4.7-6
	c-2.7-8-3.5-16.1-0.8-24.4l8.3-26.2l9.6-30.7c-0.4-2.5,2.5-5.3-0.7-7.5c0-0.3,0-0.5,0.1-0.8c6.2-0.7,7-7,10.5-10.5
	c1.5-1.5,2.2-3.7,3.3-5.6l-7.1,20.4C35.3,361.1,33.7,364.9,32.2,368.7L32.2,368.7z"/>
<path class="st1" d="M400.3,511.7l-0.3-4.8l-4.9,0.3v-16.5l3.2-14.9c5.3-3.5,7.5-3.4,9.2,0.8c1.5,3.7,3,7.5,3.4,11.4
	c0.8,7.8,0.9,15.7,1.2,23.6L400.3,511.7L400.3,511.7z"/>
<path class="st12" d="M336.4,219.2l0.3,4.1c-4.7-2.4-8,0.3-11.1,3.3c-5.1,5.1,0.9,8.1,3.3,13.4l-8-5.3l-2.4-1.9
	c-0.1-0.1-0.1-0.3-0.2-0.4c0-0.1-0.2,0-0.3,0l0.5,0.4l1.7,2.6l7.1,11.9c-0.2,0.2-0.4,0.4-0.7,0.6l-11.4-3.6l-11.6,1.3l-0.2-1.1
	l2.1-9.1l9.8-16.2l0,0l0.9-1l1-1.3l9.7-6.5l-0.3,5.8L336.4,219.2L336.4,219.2z M140.1,443.7l4.1,9.9l2,0l5-12l0.5,0.2l-2.9,35
	l-20.1-31.5c-0.8-1.2-0.7-3-1-4.4c0.4-1.3,0.6-2.7,1.1-4c1.9-4.4,3.9-8.7,5.9-13l1.5,9.6L140.1,443.7L140.1,443.7z"/>
<path class="st13" d="M32.2,368.7l4.5-11.5l7.1-20.4l1.1-1.2l2.1-9.2c1.4-1.7,3.2-3.2,4.2-5.1c3.3-6.1,6.4-12.3,9.6-18.5l11.4-17
	l5.7-5.2c-2.3,5.3-4.3,10.7-7,15.8c-4.1,7.8-9.1,15.3-13,23.2c-5.3,10.9-9.7,22.2-15.1,33.1C39.9,358.4,35.7,363.4,32.2,368.7
	L32.2,368.7z"/>
<path class="st14" d="M134.6,423.7l-5.9,13c-0.5,1.3-0.7,2.7-1.1,4l-4-8.9c1.3-2,3-3.8,3.7-6c2.1-6.1,3.6-12.4,5.6-18.5
	c1.9-5.6,5-10.9,6-16.6c1.3-7.2,1-14.7,1.4-22.1l0-7.4l2.1-8.5l3.3,1.1c-1.4,14-2.4,28-4.5,41.8
	C139.8,405.1,136.9,414.4,134.6,423.7L134.6,423.7z"/>
<path class="st7" d="M269.8,73.7c-1.5,0.7-3.4,2.3-4.6,1.9c-12.7-3.9-24.9,1.1-37.4,1.5c-4.9,0.1-11.9,7.4-12.3,11.5
	c-3.9-3.4-1.4-7.8-1.9-11.7l5.1,0.9c4-7.2,12-6.6,18.2-9.1c2.6-1.1,4.9-1.2,5.2-4.5l3.6-1.8c4.8,3.9,4.8,3.7,11,4.4
	c2.1,0.2,4.1,1.6,6,2.6C265.2,70.7,267.5,72.2,269.8,73.7L269.8,73.7z"/>
<path class="st15" d="M30.6,361.1L21,391.7L12.7,418c-2.7,8.2-1.9,16.4,0.8,24.4c0.8,2.3,3.1,4,4.7,6c0.7,0.8,1.3,1.9,2.2,2.2
	l37.3,12.7l-8.8,3.1l-0.4,0l-0.3-0.1l-1.4-0.9l-19.9-8c-3.1-1.3-6.1-3-9-4.7c-7.7-4.6-8-12.5-9.1-20.1c-0.6-4.3-2-8.5-3-12.8
	l6.1-9.6l17.3-48.8L30.6,361.1L30.6,361.1z"/>
<path class="st16" d="M140.3,368.6c-0.4,7.4-0.1,14.9-1.4,22.1c-1,5.7-4.1,11-6,16.6c-2,6.1-3.5,12.4-5.6,18.5c-0.7,2.2-2.5,4-3.7,6
	l-4.7-11.1c1.4-1.3,3.4-2.3,4-3.8c3.4-8.8,6.7-17.7,9.6-26.8c1.9-5.7,2.9-11.8,4.6-17.6C137.6,371.1,139.2,369.9,140.3,368.6
	L140.3,368.6z"/>
<path class="st15" d="M378.2,446.1c-0.6,12.3-1.4,24.7,1.6,36.9c-0.6,1.5-1.7,2.9-1.8,4.4c-0.5,8.1-0.8,16.3-1.1,24.4l-3.3,0l1-57.5
	c0-2.3-1.6-4.5-2.5-6.8c-0.1-0.2-0.1-0.4,0-0.7l0.6-10.3c0.4-2.4,0.9-4.8,1.1-7.1c0.8-8.5,1.2-17,2.3-25.4c0.2-1.3,2.6-2.3,4-3.5
	c-1,4.8-2.4,9.6-2.9,14.4c-0.6,5.7-0.6,11.6-0.8,17.4l1.4,11.8L378.2,446.1L378.2,446.1z"/>
<path class="st12" d="M389.7,279.4l1.9,5.5l0,14.4l2.1,0l1.4-12.2l1.3,11.3l0.7,0.1l1.2-14.2c0.2-2,0.7-4,1.1-5.9l-0.1,2.1l1.1,11.6
	l-9,30.9l-1.2-3.4l-0.9-12.5l-4.8-10.5l-2.2-5.5c0.5-1.4,1.8-3,1.4-4.1c-3.1-10.1-6.4-20.1-9.8-30.1l-4.9-14.4l1.2-0.4l12.5,31.1
	l0.5,2l5.4,22.1l1.4-0.3l-1.4-15.6L389.7,279.4L389.7,279.4z"/>
<path class="st15" d="M360.1,94.5c9.6,1.4,10.9,3.2,9.5,13.1l0,1.2c0,0.3,0,0.6-0.2,0.8l-3,9.8c0,0.3-0.1,0.6-0.2,0.9l-3,10.6
	l-5.6,1.8l0.3-2.9c3.6-5.2,1.7-8.8-5.1-9.7l1-1.8c4.6-1.2,7.4-5,6.9-9.5c-0.4-3.5-1.7-6.2-6.1-5l-9.3-3.5h13.7l0.4-1.3l-9-5.9
	l5.5-1.2l0.3,0l0.2-0.1l0.3,1.1L360.1,94.5L360.1,94.5z"/>
<path class="st17" d="M307.7,2.4c2.8-0.1,5.9,0.5,8.3-0.4c4.7-1.8,7.8,0,10.7,3.4c0.4,0.5,0.4,1.6,0.9,1.8l15.9,7.1
	c2.6,1.2,5.4,2.5,7.4,4.5c6.7,6.5,16.8,8.6,21.8,17.1l-1.7,2.6c-2.5-2.9-4.6-6.5-7.7-8.4c-2-1.2-5.6,0-8.3,0.6
	c-0.5,0.1-0.4,2.7-0.7,4.9l-10.6-8.2l9.8-1l0.4-1.6l-22.5-11.2l3.1-2.1c-9.8-1.8-17.5-9.2-27.6-6.5l-2.9-1.6L307.7,2.4L307.7,2.4z"
	/>
<path class="st4" d="M401.4,345.3l-6.4,9.7l-4.7,6.2c-0.5-1.3-1.6-2.7-1.5-4c0.5-5.7,1.3-11.5,2-17.2l7.4-17l0,0l1.1-1.1l5.5-17
	l0,2.1l1,2.2l-0.1,6.5l-1.4-1.5l-8.7,30.4c2.6-3.2,4.3-6.7,5.9-10.3c0.7-1.6,1.4-2.9,3-0.7l-1,8.5L401.4,345.3L401.4,345.3
	L401.4,345.3z M394.7,347.7l0.1-0.4l-0.6,0.1c0,0.1,0.1,0.3,0.2,0.4C394.4,347.8,394.6,347.7,394.7,347.7L394.7,347.7z"/>
<path class="st11" d="M351.3,169.1c0.9,12.5-4.7,21.7-14.6,28.8l-1.2-3.4l4.4-10.6c6.4-4.6,6.7-7.2,1.7-13c-0.6-0.7-0.6-1.9-0.8-2.9
	l4.2-0.2L345,167h-4.1l-5.2-5.3l-0.3-4.4c1.2,2.5,3.4,2.8,5.8,2.2c2.1-0.6,4.1-1.4,6.2-2.1l0.5,0l0.5,0c0.3,2.7,0.6,5.4,1.1,8.1
	C349.7,166.8,350.7,167.9,351.3,169.1L351.3,169.1z M347.9,161c-0.6-0.5-0.9-1-1.2-1c-0.3-0.1-0.7,0.4-1,0.6
	c0.3,0.3,0.6,0.8,0.9,0.9C346.8,161.6,347.3,161.3,347.9,161L347.9,161z"/>
<path class="st6" d="M372.1,447.5c0.9,2.3,2.5,4.5,2.5,6.8l-1,57.5l-2.9,0l-2.9-23.4c-0.1-0.8-0.2-2.2,0.2-2.4
	c4.4-2.7,2.2-5.9,0.8-9.1l-1.3-2.2l0.1,0l-0.5-12.7l4.6,0C375.7,457.3,372.4,452.3,372.1,447.5L372.1,447.5z"/>
<path class="st18" d="M303.8,3.5l2.9,1.6l2.4,7.4l-9.8-1.3c-3-0.6-6-2-9.1-2.1C283.1,8.8,275.9,9,268.7,9l-0.1-1.1l9.6-2.4L277.8,4
	l-4-0.5l3.2-1.4l2.5-1.2l2.1-0.1c4.2,0.7,8.8,2.8,12.5,1.7C298,1.5,300.7,2.3,303.8,3.5L303.8,3.5z"/>
<path class="st19" d="M357.5,132.7l5.6-1.8l0.4,0l0.4,0l-2,12.8c-1.9-1-4.2-3.2-5.7-2.8c-3.4,0.9-7.8,1.1-8.7,5.9
	c0.8,4.5-1,6.8-5.6,6.8c-2.2,0.2-3.9-3.4-6.3-0.7l0-2.5l4.2-8.9l13.8-6.4L357.5,132.7L357.5,132.7z"/>
<path class="st4" d="M176.4,493.3l1.9-2.5l1.4,0.6l-3.2,13.2l1,1.4L188,499v12.8l-27.8-0.2l6.6-6.3c2.5-2.7,4.9-5.6,7.4-8.4l0,0
	l1.1-1.1l0,0.1L176.4,493.3L176.4,493.3z"/>
<path class="st11" d="M11.8,409.9l-6.1,9.6c-0.2-0.2-0.2-0.5-0.1-0.7c-3.2-12.5-3.3-24.9,1.1-37.2c0.6-1.8,0.7-3.7,1-5.6l0,0
	l2.2-1.6l3.2-6l-1,11.9l-3.1,22.2L11.8,409.9L11.8,409.9z"/>
<path class="st12" d="M368.8,476.9c1.4,3.1,3.6,6.3-0.8,9.1c-0.4,0.2-0.3,1.6-0.2,2.4l2.9,23.4l-7.1-0.3l-2.4-6.4l1.5,0.3
	c0.9-3,2.8-6.2,2.5-9c-1-8.8-2.9-17.6-4.5-26.4c-0.3-1.5-0.6-3.1-0.9-4.6c0.2-0.2,0.4-0.3,0.6-0.5l7.2,9.8l-0.1,0L368.8,476.9
	L368.8,476.9z"/>
<path class="st20" d="M412,511.7c-0.4-7.9-0.4-15.8-1.2-23.6c-0.4-3.9-1.9-7.8-3.4-11.4c-1.7-4.3-4-4.3-9.2-0.8
	c2.4-8.8,3.1-9.5,9.5-9.5l6.4,26.3l4.3,19.2L412,511.7L412,511.7z"/>
<path class="st5" d="M277,2.1l-3.2,1.4c-6,1.8-12.1,3.4-18,5.5c-1.3,0.4-2.1,2.3-3.1,3.6l-1.1,0.3c-2.4,1.2-5.3,1.9-7.2,3.7
	c-4.7,4.4-13.7,4.4-14.1,13.3l-2.1,1.1l-2,2.2c-0.1,0.3-0.1,0.6-0.2,1l-0.8-0.8l-1.8-5.3c1.8-1.8,3.3-4,5.3-5.4
	c4.2-3,8.8-5.4,13-8.4C251.9,7,263.2,2.6,275.8,1.4L277,2.1L277,2.1z"/>
<path class="st2" d="M8.8,402.5l3.1-22.2l7.3-19.3l3.2-3.2l1.4,3.4l-0.3,2c-1,1.6-2.3,3.2-2.9,5c-0.4,1.2,0.8,2.8,0.4,4
	c-2.3,7.7-4.6,15.4-7.3,22.9C12.8,397.8,10.5,400.1,8.8,402.5L8.8,402.5z"/>
<path class="st5" d="M172.5,101l4.5,3.4c-4.5,2.5-5.2,9.2-10,7.4l-7.9,9.2l-5-5C157.2,107.2,164.8,104.1,172.5,101L172.5,101z"/>
<path class="st2" d="M371,38.6l1.7-2.6c1,0.7,2.8,1.3,2.8,2c-0.3,7.4,7.1,10.5,9.1,16.4c1.9,5.4,2.5,11.2,3.7,16.9l-1.6-0.9
	l-1.1-4.2c-0.7-4.7,0-10.1-5.3-12.9c-1.3-1.2-2.7-2.3-3.9-3.5c-2.4-2.5-3.1-0.7-3.8,1.4l-5.1-6.1c0.4-1,0.7-2.1,1.2-3
	C369.4,40.8,370.2,39.7,371,38.6L371,38.6z"/>
<path class="st4" d="M407.7,372.9l-16.9,3.2l0,0l12.8-8.9l-0.6-1.1h-4.7l3.1-20.8l2.1,0c-1.7,6.7-0.3,12.5,3.9,18.1
	c1.3,1.7,0.5,4.9,0.7,7.4l-0.2,1.1C407.8,372.2,407.7,372.5,407.7,372.9L407.7,372.9z"/>
<path class="st3" d="M77.8,280.6l-5.7,5.2l6.5-12.9c2.1-4,4.5-8,6.7-11.9l8.4-12.6c0.8-1.1,2.1-1.9,3.2-2.9
	c-2.8,6.2-5.3,12.4-8.4,18.4c-2.1,4-4.9,7.7-7.4,11.5l-1,2.1c0,0,0,0,0,0L77.8,280.6L77.8,280.6L77.8,280.6z"/>
<path class="st12" d="M174.3,497c-2.4,2.8-4.8,5.7-7.4,8.4c-2.1,2.2-4.4,4.2-6.6,6.3l-1.7,0l2-24.4c0.2-1.7,1.2-3.4,1.9-5.1l3,20.7
	L174.3,497L174.3,497z"/>
<path class="st4" d="M407.4,390.1l-9.6,0.7l-0.7-1.3l6.8-4.3l-1.3-1.8l-7,0.5l-0.7-1.3l13.9-7.7c0,0.5-0.1,1.1,0,1.6
	c1.4,4.6,2.9,9.2-0.2,13.7L407.4,390.1L407.4,390.1z"/>
<path class="st0" d="M404.7,304.9l-5.5,17l-1.1,1.1l0,0l-2.1,1.3l1.3-7.1c1.6-6.9,3.4-13.8,4.8-20.8c0.2-1.2-1.1-2.8-1.8-4.2
	l-1.1-11.6c0.9,0.3,2.6,0.5,2.7,1C404.3,289.2,407.7,296.7,404.7,304.9L404.7,304.9z"/>
<path class="st3" d="M376.9,511.7l1.1-24.4c0.1-1.5,1.2-2.9,1.8-4.4l2.4,28.8L376.9,511.7L376.9,511.7z"/>
<path class="st21" d="M226,34.1l0.2-1l2-2.2l2.1-1.1l5.5,0.2l-1.1,3.2l-1,1.1l-3.2,4.2l-3.1,1.3l-0.5-1.3c-2.5,3.9-6,0.3-8.9,1.1
	l5.5-11.5l1.8,5.3l-0.4,1.6L226,34.1L226,34.1z"/>
<path class="st18" d="M135,138.3l2.2,23.4l-0.2,2l-2.1,4.6c-0.6-3.1-2-6.3-1.7-9.3C133.7,152.1,128.7,144.7,135,138.3L135,138.3z"/>
<path class="st15" d="M7.6,376c-0.3,1.9-0.3,3.9-1,5.6c-4.4,12.3-4.4,24.7-1.1,37.2c-1.8-4.2-4.4-8.2-5.1-12.6
	c-1.1-7.5-0.4-15.2,3.1-22.2L7.6,376L7.6,376z"/>
<path class="st0" d="M404.5,333.6c-1.6-2.2-2.3-0.9-3,0.7c-1.6,3.6-3.3,7.1-5.9,10.3l8.7-30.4l1.4,1.5L404.5,333.6z"/>
<path class="st21" d="M60.7,302.7l-9.6,18.5c-1,1.9-2.8,3.4-4.2,5.1l-1.2-3.3L60.7,302.7L60.7,302.7z"/>
<path class="st2" d="M134.9,168.3l2.1-4.6c0.5,1.5,1.6,3,1.4,4.4c-0.6,4.9-1.5,9.8-2.3,14.7l-9.3,7.4l7.7-16.8
	C135,171.9,134.8,170,134.9,168.3L134.9,168.3z"/>
<path class="st3" d="M347.6,146.8c1-4.8,5.4-5,8.7-5.9c1.6-0.4,3.8,1.8,5.7,2.8l-4,5.3l-6.7-2.3L347.6,146.8L347.6,146.8z"/>
<path class="st10" d="M48.8,466.3l8.8-3.1l4.3-3.8l5-7.1l2.6,1.2l-3.4,5.1l-3.2,8.5L48.8,466.3L48.8,466.3z"/>
<path class="st1" d="M303.8,3.5c-3.1-1.2-5.9-2-9.7-0.9c-3.7,1-8.3-1-12.5-1.7c0.2-0.3,0.4-0.9,0.5-0.9l24.4,0.6
	c0.4,0,0.8,1.2,1.2,1.9C307.7,2.4,303.8,3.5,303.8,3.5z"/>
<path class="st13" d="M335.6,194.6l1.2,3.4l-8.3,9.5l-1.5-0.2c0.6-2,1.6-3.9,1.8-5.9C329.3,197.2,331.3,194.8,335.6,194.6
	L335.6,194.6z"/>
<path class="st3" d="M326.9,207.3l1.5,0.2l-1.2,2.8l-9.7,6.5c0.3-1,1-2.1,0.8-2.9c-1.2-4.3,0.7-5.6,4.6-5.7
	C324.3,208.2,325.6,207.6,326.9,207.3L326.9,207.3z"/>
<path class="st10" d="M217.9,39.6c2.9-0.8,6.4,2.7,8.9-1.1l0.5,1.3c-0.3,6.3-1,6.7-6.2,4.2c-1.1-0.5-3,0.6-4.5,0.9l0.2-3.2l0.8-1.9
	L217.9,39.6L217.9,39.6z"/>
<path class="st8" d="M19.3,361.1L12,380.3l1-11.9L19.3,361.1L19.3,361.1z"/>
<path class="st14" d="M351.4,146.8l6.7,2.3l-5.6,6.3l-4.1,2.1l-0.5,0l-0.5,0l-0.2-1.9L351.4,146.8L351.4,146.8z"/>
<path class="st3" d="M348.3,157.4l4.1-2.1l-1.1,13.8c-0.6-1.2-1.6-2.3-1.9-3.6C348.9,162.9,348.7,160.1,348.3,157.4L348.3,157.4z"/>
<path class="st12" d="M346.6,503.1l10.2,8.8l-4.9-0.3l-5.8-8L346.6,503.1z"/>
<path class="st3" d="M212.5,102.2l0.1,2.2l-2.3,13.9l-1.2-0.2l1.3-15.5C210.4,102.5,212.5,102.2,212.5,102.2z"/>
<path class="st22" d="M364,130.9l-0.4,0l-0.4,0l3-10.6L364,130.9L364,130.9z M366.4,119.4l3-9.8L366.4,119.4z"/>
<path class="st8" d="M23.9,361.3l-1.4-3.4l2.1-1l0.8,0.6L23.9,361.3L23.9,361.3z"/>
<path class="st0" d="M403.5,345.3l-2.1,0l2.2-3.2L403.5,345.3z"/>
<path class="st8" d="M30,352.8l-0.1,0.8l-3.9,2.5l-0.6-0.5L30,352.8z"/>
<path class="st1" d="M277,2.1l-1.2-0.8l3.7-0.5L277,2.1L277,2.1z"/>
<path class="st0" d="M405.8,309.2l-1-2.2L405.8,309.2z"/>
<path class="st15" d="M9.8,374.4L7.6,376L9.8,374.4z"/>
<path class="st21" d="M217.7,39.7l-0.8,1.9L217.7,39.7z"/>
<path class="st8" d="M24.6,356.9l0.8-1.3l0.6,0.5l-0.6,1.4L24.6,356.9L24.6,356.9z"/>
<path class="st0" d="M407.9,371.9l0.2-1.1c0.1,0.3,0.1,0.5,0.1,0.8C408.3,371.7,408.1,371.8,407.9,371.9L407.9,371.9z"/>
<path class="st11" d="M44.8,335.5l-1.1,1.2L44.8,335.5z"/>
<path class="st7" d="M215.6,88.5c0.2,0.2,0.4,0.4,0.6,0.6c0,0-0.2,0.2-0.3,0.4L215.6,88.5L215.6,88.5z"/>
<path class="st10" d="M46.8,465.2l1.4,0.9L46.8,465.2z"/>
<path class="st22" d="M369.6,108.8l0-1.2c0.3,0,0.7,0,1,0L369.6,108.8z"/>
<path class="st4" d="M275.1,299.7c-4-2.8-8.2-5.2-11.8-8.4c-14.3-12.7-30.9-21.3-48.7-27.8c-0.8-0.3-1.4-1.2-2.1-1.9l22.9,6
	c-12.1-7.4-23.8-10.1-36.6-7.3c-1.7,1.5-2.4,2.7,0.2,4.3c6.9,4.2,13.7,8.6,20.4,13.1c14.5,9.9,29.2,19.5,43.1,30.3
	c17.1,13.2,33.5,27.3,49.8,41.5c5,4.4,8.8,10.2,14,14.8c-2.8-1.8-5.7-3.5-8.4-5.5l-45.7-34.7c-6.2-4.6-12.7-8.8-19.1-13.1l-0.3-2
	l0.1-1.3l-1-1.5l-1.6-1.7l-0.6,0.7l2,1.1l0,1.1c-2.2-0.4-4.7-0.3-6.5-1.3l-58.3-31.6c-5.4-2.9-11.2-5-16.7-7.6
	c-1.3-0.6-2.4-1.8-3.6-2.8l0.5-5.1l3.9-0.1l3.7,0.2l0-1.2l-3.5-0.5l6.8-4.5l-2-1.6l2.5-10l1.2-4.1l2.1,0.2c7,3.5,13.8,7.5,21,10.5
	c13.3,5.5,26.9,10.4,40.4,15.4c0.4,0.2,1-0.2,1.6-0.4l6.9,4.3l7.6,4.2c7.5,6.1,14.9,1.4,22.3-0.1c4.8,0.2,8.2-1.7,9.8-6.4l8-9.6
	c0.2,0.9,0.8,1.9,0.5,2.6c-2.3,5-4.6,9.9-7.2,14.7c-5.3,9.7-5.9,17.9,2.8,26.9c1.1,1.1,2,2.3,3,3.5l-0.8,1.3l-26.2-13.3L275.1,299.7
	L275.1,299.7L275.1,299.7z M184.9,269.2c22.8,8.3,42.8,21.7,63.3,34.1C230.4,285.8,210,273.2,184.9,269.2L184.9,269.2z M384.6,296.6
	l4.8,10.5l-0.8,12.7l-2.6,6.6l-2.6-3.4l-1.1,0.9l2.2,3.7l1.6,4.8l1.2,2.7c-1,7.6-1.3,15.5-3.3,22.9c-3.4,13-8.5,25.6-8.8,39.4
	l-2.2,6.3l-1.2,0l-2.6-17.1l-1.4,0.1l1.3,16.8l1.1,8.3l-11.9-8.2l-1.8-10.4l-3.9-14.9l0.2-0.2c1.7,0.8,3.3,1.7,5.1,2.4
	c10.6,4.2,13.9,2.7,15.7-8.6c1.5-9.5,1.8-19.2,2.3-28.8c0.1-1.5-1.5-3.1-2.4-4.6l1.1-0.2l0.4-1.5l-2.2-3.5l3.5-4l-1.4-3.1l0,0.1
	c-1-3.9-1.9-7.8-3.1-11.6c-1.4-4.5-3-8.8-4.5-13.3l-0.1,0.2l1.3-1.1l-0.1,0.1l1.2-0.8l-3.4-9.5l-4.9,5.3l-45.8-51.4l11.4,3.6l1,1.4
	l-0.3-2l-7.1-11.9l0.7-0.7l8,5.3c-2.4-5.2-8.5-8.3-3.3-13.4c3.1-3,6.4-5.7,11.1-3.3l0-0.1l1.1,1.1l0,0l6.5,7.3
	c-1.9-0.2-3.9-0.2-5.8-0.6c-3.5-0.7-6.9-1.6-10.4-2.5c8.3,11.2,17.4,21.4,26.1,31.9c7.2,8.5,14,17.4,21.1,26
	C378.2,290,381.5,293.2,384.6,296.6L384.6,296.6z M339.8,254.1l1,1.1l1.1,2.1c0.2,0.7,0.2,1.5,0.6,2l30,35.4c2.1,2.4,5,4.1,7.6,6.2
	l0.5,0.4l-0.4-0.5c-0.2-0.7-0.2-1.5-0.6-2c-7.8-9.6-15.3-19.5-23.4-28.8c-4.2-4.8-9.4-8.6-14.1-12.8l-1.1-2.1L339.8,254.1l-1-1.1
	l1.1-1.1l-1.1-3.2l0,0l-1.1-1.1l0,0l-1.1-1.1l0.1,0l-1.6,0c-1.3,3.6,0.2,5.6,3.7,6.3L339.8,254.1L339.8,254.1z M333.1,243.8l1.1,0.2
	l-0.6-0.7l-1.1-1l-0.7-0.6l0.3,1.1L333.1,243.8z M330.2,240.7c-0.1-0.1-0.2-0.3-0.3-0.3c-0.1,0-0.2,0.2-0.4,0.2
	c0.1,0.1,0.2,0.3,0.3,0.3S330.1,240.8,330.2,240.7L330.2,240.7z"/>
<path class="st23" d="M271.8,436.4l-2-1l-14.5-9.3l3.4-2.8l7-2.5l-5.7-21.5c-0.4-1.4-0.6-2.8-1.3-4c-0.7-1.1-1.9-2.5-2.9-2.6
	c-1,0-2.4,1.4-2.9,2.5c-1.1,2.4-1.6,5-2.4,7.5l-4.2,12.4l-5.2,2l0,0l-3.2-3.2l0,0l-3.3-3.3c3.6-9.3,6.5-19,11.1-27.9
	c5.4-10.6,19.2-6.1,21.9,1.8l21,62.1c0.1,0.3-0.4,0.8-0.6,1.2L271.8,436.4L271.8,436.4z"/>
<path class="st4" d="M134.6,423.7c2.3-9.4,5.2-18.6,6.6-28.1c2.1-13.9,3.1-27.9,4.5-41.8l6.2-36.1l1.5-3.2c0.6,1,1.6,1.9,1.7,2.9
	c0.8,17.2,2.5,34.4,1.9,51.6c-0.5,13.4-3.7,26.6-9.5,39.1c-3.5,7.4-6.1,15.3-9.2,22.9c-0.4,1-1.4,1.7-2.1,2.5L134.6,423.7
	L134.6,423.7z"/>
<path class="st24" d="M374.5,338.3l-1.1,0.2c-4,1.9-7.3,3.8-11.4-0.8c-4.1-4.7-5.3-9.4-1.3-14c4.2-4.8,3-10.6-2.9-13.1
	c-2.4-1-5.1-1.5-7.5-2.5c-5.6-2.4-7.7-7.3-5.8-12.5c0.9-2.3,1.4-3.6,4.1-1.3c3.4,2.9,7.4,5.2,12.6,8.7v-7.2l4.9-5.3l3.4,9.5
	l-1.2,0.8l0.1-0.1l-1.3,1.1l0.1-0.2c-4.7,3.3-4.5,13.6,0.3,16.3l-0.1-0.1l-2.6,3.4l10,5.2l0-0.1l1.4,3.1l-3.5,4l2.2,3.5L374.5,338.3
	L374.5,338.3z"/>
<path class="st25" d="M363,450.4l-7.5-0.4l-3.1-16.6l-11.5,1.1l-6.4-2.3c0.3-1,1.1-2.4,0.7-2.8c-3.4-3.4-6.9-6.6-10.5-9.9l1.2-7.4
	l1.9-4.4c4.7-1.7,7.9,0.4,8.6,5.3c-1.6,3-1.8,5.6,2.2,6.8l6.3,6.1l1.1,1.1l0.5,0.4l-0.4-0.5l-1.1-1.1l-1.2-3.1
	c7.8-0.6,13.2,3.1,17,9.5l2.9,16.5L363,450.4L363,450.4z M349.7,430.8c-0.1-0.1-0.1-0.3-0.2-0.3c-0.1,0-0.3,0-0.4,0l0.3,0.5
	L349.7,430.8L349.7,430.8z"/>
<path class="st4" d="M164.4,267.8c7.6,6.2,13.8,13.7,18.4,22.3l-0.9,1.4l-18.4-8c2.8,11.5,12.6,17.9,16.8,29.6l-10.2-3.3l-14.8-4.8
	l1.7-10.7c0.8-1.9,1.8-3.7,2.2-5.7c0.8-3.7,1.2-7.6,4.6-8L164.4,267.8L164.4,267.8z"/>
<path class="st23" d="M260.7,436.9c-4.8-0.1-9.7-0.3-14.5-0.1c-1.9,0.1-3.7,1.2-5.6,1.9l-11.9-7.4l-0.3-1.1l3.8-10.7l5.8-5.3l0,0
	l3.2,3.2l0,0l4.9,3.2l0.7,1.3c3.6,3.2,7.3,6.2,10.7,9.6C258.9,433,259.6,435.1,260.7,436.9L260.7,436.9z"/>
<path class="st4" d="M331.4,395.2l-34-34.3c-3.5-3.4-7.2-6.6-10.9-9.8l1.4-1.7l13.4,9.1l31.1,21.3c1.3,0.9,2.9,1.3,4.3,1.9
	l-4.7,13.4C331.9,395,331.7,395.1,331.4,395.2L331.4,395.2z"/>
<path class="st14" d="M156.9,294.3l-1.7,10.7l-1.9,9.4l-1.5,3.2l-4.9,5.5c0.4-4.6,0.3-9.2,1.3-13.7c1.1-4.9,2-9.4-2.6-13l-0.1-4.2
	l0,0c4.7-1.4,6.3-4.6,4.2-8.7l-2-4.1l5.7-1.7c2.1-4.7,4.5-9.4-0.6-15.1h6.6c-1.3,4.1-1.7,8,1.3,11.9c0.8,1-0.1,5.1-1.4,5.8
	C153.9,283.5,152.7,288.9,156.9,294.3L156.9,294.3z"/>
<path class="st23" d="M324.8,419.5c3.5,3.3,7.1,6.5,10.5,9.9c0.3,0.3-0.5,1.8-0.7,2.8c-1.2,1-3.3,1.9-3.5,3.2c-1.2,5.5-2,11.1-3,17
	l-10.3,0.9l6.1-34C324.2,419.5,324.5,419.5,324.8,419.5L324.8,419.5z"/>
<path class="st24" d="M252.8,308.8l0.3,2l-30.7,17.7c-4.3,2.5-8.5,5-13,0.8c-3.3-3-3.1-10.6,0.5-16.1c0.2,1.2,0.3,2,0.4,2.7
	c0.5,6,4,8.5,9.8,6.2C231,317.9,241.9,313.3,252.8,308.8L252.8,308.8z"/>
<path class="st3" d="M295.6,452.3l-0.5-55.1l0.4-11.6l1.9,3.1c-0.3,2.1-1,4.1-1,6.2c0.1,4.4,0.8,8.7,0.9,13.1l0,37
	c0,3.4,0.1,5.7,4.6,5.6c4.3-0.1,6.4-1.4,6.1-5.7c-0.3-4.5-0.9-9.1-1-13.6l-0.1-31.7c0.3,0,0.7,0,1-0.1l0.9,10.8v42.1
	C304.6,452.3,300.1,452.3,295.6,452.3C295.6,452.3,295.6,452.3,295.6,452.3L295.6,452.3z"/>
<path class="st23" d="M238.8,446.1c-0.4,1.7-1,3.3-1.2,5.1c-0.5,5.3-3.2,7.3-8.4,5.9l-6-7.8l3.3-12.4c0.3-0.1,0.6-0.2,0.9-0.3
	L238.8,446.1L238.8,446.1z"/>
<path class="st12" d="M156.9,294.3c-4.3-5.3-3.1-10.8,2.5-14c1.3-0.7,2.2-4.8,1.4-5.8c-3-3.9-2.6-7.7-1.3-11.9l2.1,0.1l1.6,0
	l-1.7-1.2l-3.4-1.6l0.1-1l8.6-1c0.1,0.2,0.1,0.5,0.2,0.7l-0.5,5.1l-2.1,4l-0.7,12.8c-3.4,0.4-3.8,4.3-4.6,8
	C158.7,290.6,157.7,292.4,156.9,294.3L156.9,294.3z"/>
<path class="st23" d="M347.3,375.5l3.1,0.6c0.1,0.3,0.1,0.6,0.1,0.9c0,1.9-0.7,4.2,0,5.8c1.2,2.8,3.3,5.3,1,8.6l-5.4-1.5l1.2,3.2
	l-3-0.2l-0.1-3l-6.2-5.4l-0.2-3.2l2.2-4.2L347.3,375.5L347.3,375.5z"/>
<path class="st4" d="M324.8,419.5c-0.3,0-0.6-0.1-0.9-0.2c-3.2-4.1-6.1-8.4-9.8-12.1c-3.3-3.3-4.9-6.6-3.2-12.6l15.1,17.5
	L324.8,419.5L324.8,419.5z"/>
<path class="st25" d="M271.8,436.4l16.2,11.8l1.4,3l-1.6,1.2l-10.8,1.1L271.8,436.4L271.8,436.4z"/>
<path class="st24" d="M299.2,255l-8,9.6l-0.1-3.8l0.4-1.4l0.2-3l1.6-5.6l0.1-2l-0.1-3.2l10.2-1.2l0.2,1.1L299.2,255L299.2,255z"/>
<path class="st25" d="M331.4,395.2c0.3-0.1,0.5-0.2,0.8-0.2l4.1-3.6c3.8,2.9,5,6.8,4.8,11.3l-1,3.5l-1.1,1.9l0.1,0.1l-9.1-6.8
	l0.3-1.8L331.4,395.2z"/>
<path class="st23" d="M295.1,377.1l4.4-1.2l1.1,0.4l7.1,9.2l0.2,6.2l-12.4-10.5L295.1,377.1L295.1,377.1z"/>
<path class="st15" d="M341.1,402.7c0.2-4.5-1-8.4-4.8-11.3l-4.1,3.6l4.7-13.4c0.3-0.1,0.5-0.2,0.8-0.3l0.2,3.2
	c-1.2,4,1.4,6.2,6.2,5.4l0.1,3l-1.2,6.3L341.1,402.7L341.1,402.7z"/>
<path class="st25" d="M295.4,381.3l12.4,10.5l0.4,1.3l-0.3,6.3c-0.3,0-0.7,0.1-1,0.1l-9.6-10.8l-1.9-3.1L295.4,381.3L295.4,381.3z"
	/>
<path class="st12" d="M330.3,399.7l-0.3,1.8l-1.5,2.1l-18.8-17.8l1.5-1.7c4,3.7,8,7.4,12.1,11C325.5,396.8,328,398.1,330.3,399.7
	L330.3,399.7z M198.8,260.2c12.8-2.8,24.5-0.1,36.6,7.3l-22.9-6L198.8,260.2L198.8,260.2z"/>
<path class="st4" d="M295.4,381.3l0,4.3l-0.4,11.6c-0.3-1.7-1-3.4-0.8-5.1c0.9-6.6-1.9-11.4-6.6-15.8c-2.2-2.1-3.5-5.1-5.2-7.7l0,0
	c2.9,2.4,5.7,4.9,8.7,7.1c1.1,0.8,2.5,1,3.8,1.4L295.4,381.3L295.4,381.3z"/>
<path class="st15" d="M328.5,403.5l1.5-2.1l9.1,6.8l0.1,1.7l-1.5,1.9l-1.2,1.2c-0.7-5-4-7-8.6-5.3L328.5,403.5z"/>
<path class="st4" d="M339.7,286.9c2.6-3.6,7.6-2.9,10.5,2.2c-2.5,2.3-4.7,2.8-6.9-0.6C342.8,287.8,341.2,287.6,339.7,286.9z
	 M227.4,436.6c-0.3,0.1-0.6,0.2-0.9,0.3c-1.5-2.4-2.6-5.2-4.5-7.2c-1.8-1.8-4.4-2.8-6.7-4.2l2.2-2.4l10.9,7.1l0.3,1.1L227.4,436.6
	L227.4,436.6z"/>
<path class="st25" d="M223.2,449.3l6,7.8l-4,0.2c0,0-0.4-0.3-0.4-0.3l-0.4,0.3l-3.1,0.4l0.6-5.2L223.2,449.3L223.2,449.3z
	 M307.6,385.6l-7.1-9.2l4.3-0.6c4.5,0.3,2.3,4.3,3.5,6.4l-0.2,1.2L307.6,385.6L307.6,385.6z"/>
<path class="st4" d="M304.8,375.8l-4.3,0.6l-1.1-0.4l-5.3-8.3l0.1,0L304.8,375.8L304.8,375.8z"/>
<path class="st25" d="M238,414.3l-5.8,5.3l2.5-8.6L238,414.3L238,414.3z"/>
<path class="st4" d="M307.9,399.4l0.3-6.3l0.6,17.1L307.9,399.4L307.9,399.4z M282.5,368.7l-5.4-3.7l1.6-1.6L282.5,368.7
	L282.5,368.7L282.5,368.7z M347.3,375.5l-7.5,1.6C342,375,344,372.2,347.3,375.5z M278.3,302.9l-3.2-3.2c0,0,0.1-0.1,0.1-0.1
	L278.3,302.9L278.3,302.9L278.3,302.9z M294.2,367.6l-0.8-1.1c0,0,0.2-0.2,0.4-0.3L294.2,367.6L294.2,367.6L294.2,367.6z"/>
<path class="st12" d="M308.1,383.4l0.2-1.2l2.9,1.2H308.1z"/>
<path class="st4" d="M282.8,306.4c0,0.1-0.1,0.4-0.1,0.4c-0.2,0-0.3-0.1-0.4-0.2c0,0,0.1-0.2,0.1-0.4L282.8,306.4L282.8,306.4z"/>
<path class="st12" d="M176.4,493.3l-1.1,2.7L176.4,493.3z M251.8,305.9l1,1.6l-1.1-0.3l0-1.1L251.8,305.9z"/>
<g>
	<path class="st4" d="M278.3,302.8l0.4,0.4L278.3,302.8L278.3,302.8L278.3,302.8z M350.5,377c0-0.3,0-0.6-0.1-0.9l1.3,0.9l-0.2,0.2
		C351.1,377.1,350.8,377.1,350.5,377L350.5,377z"/>
	<path class="st4" d="M351.7,377l1,1c0,0-0.2,0.2-0.2,0.2l-1.1-1.1L351.7,377z"/>
</g>
<path class="st12" d="M175.4,495.9l-1.1,1.1L175.4,495.9z"/>
<path class="st26" d="M53.3,447.3c-3.1,1.4-6.2,3.3-9.4,3.9c-4.3,0.8-5.8-2.6-6.4-6.1c-1.1-6.1-2.1-12.3-3.2-19
	c0.2-0.1,1.3-0.7,2.3-1.4c4.6-3.1,5.2-5.6,1.3-9.3c-6.2-5.7-7.4-12-3.8-19.4l19.1-39.1c1.8,2.2,3.7,4.4,5.4,6.6
	c2.4,3.2,4.4,7,9.3,6.6c-1.9,2.6-0.5,3.7,1.9,4.5c3.3,1.1,6.6,2.3,10,3.5l-3.9,5.8c-1.2,1.7-2.4,3.3-3.5,4.9c-3.9,2.6-8,5-11.8,7.8
	c-1.1,0.8-1.4,2.6-2,4c1.3,0.5,2.6,1.1,4,1.5c0.8,0.2,1.7-0.1,2.6-0.2c0,0,0,0,0,0l-1.6,5.8l2.8,1.2l-2.3,2.8l-3.1,2.2l-1.6,1.5
	c-2.1,2.2-4.4,4.3-6.2,6.7c-0.4,0.5,1.3,2.5,2,3.8l-2,20.5L53.3,447.3L53.3,447.3z"/>
<path class="st5" d="M68,370.1c-4.9,0.4-6.9-3.4-9.3-6.6c-1.7-2.3-3.6-4.4-5.4-6.6l10-15.8l10.3-17.1l0.4-0.5l-0.5,0.4l-11.6,5.2
	c6.8-14.7,12.8-29.1,24.3-40.2c1.4,1.6,3.3,2.9,4.1,4.7c1.2,2.7,1.5,5.7,2.3,8.5l6.4,19.9l3.1,4c0.6,2.4,5.8,2.7,3.1,6.7
	c-5-0.3-10.5-3.8-14.7,1.3l10.4,11.1l-4.3,3.2c-5.2-4.2-14.4-4.8-18.8-0.8l3.2,2.5l11.7,9.8l0.7,5l-4.3,1
	C81.9,365.5,74.7,366.3,68,370.1L68,370.1z"/>
<path class="st26" d="M99,322.2l-6.4-19.9c-0.9-2.8-1.2-5.8-2.3-8.5c-0.8-1.8-2.7-3.2-4.1-4.7l3.2-5.3c3.2-1.4,6.3-3.9,9.5-4
	c7.9-0.2,9.4-7,12.6-11.5c4.1-5.9,4.1-13.7,5.9-20.6c0.3-1-0.3-2.2-0.6-3.2l7.5-14.8c4.6,0,5.6,3.3,6.4,6.9c1,4.9,1.7,10,8.4,10.1
	l-3.6,13.4l-0.7,1.5c-0.7,0.1-1.8,0.1-2,0.5c-1.4,2.3-2.6,4.6-3.8,7c-1.3,2.7-2.4,5.4-3.7,8.1l-3.4,8.7l-2.9,10.7l-1.1,5.2
	l-4.4,14.6l-4.1-3.9l-0.9,0.7l5.2,8.5l-8-0.3l-2.7,2.4l0.1,0.1C103,320,101.1,321,99,322.2L99,322.2z"/>
<path class="st5" d="M116.9,244.4c0.2,1.1,0.8,2.3,0.6,3.2c-1.8,6.9-1.8,14.7-5.9,20.6c-3.1,4.5-4.7,11.3-12.6,11.5
	c-3.2,0.1-6.4,2.6-9.5,4l21.2-31.3C112.5,249.7,114.8,247.1,116.9,244.4L116.9,244.4z"/>
<path class="st3" d="M61.9,459.4l-4.3,3.8l-37.3-12.7c-0.9-0.3-1.5-1.4-2.2-2.2l4.5-2.3c8.4,6.7,17.6,11.7,28.8,11.7l1.8,1.1
	L61.9,459.4L61.9,459.4z"/>
<path class="st2" d="M53.3,447.3l0.1-1.2l2,0c1.4-1.1,3.1-1.9,4.2-3.2c2.2-2.5,4.2-5.1,6.1-7.8c1.1-1.5,1.8-3.2,2.7-4.8l5.1-1.2
	l-0.1,1.1l0.1-0.1l-2.2,3.3l0,0l-3.2,2.5l0.6,0.9l2.4-1.3l0.5,0.6l-1.6,2.6c-4.4,1.6-6.4,5.1-7.5,9.4l-4.2,5.5l0,0l-6.3,0
	L53.3,447.3L53.3,447.3z"/>
<path class="st20" d="M25.8,393.1l6.3-18.1l2.1-1.1c0.1,2,0.7,4.2,0.1,5.9c-1.6,4.2-3.7,8.2-5.8,12.2
	C28.2,392.7,26.7,392.7,25.8,393.1L25.8,393.1z"/>
<path class="st10" d="M52.2,453.5l6.3,0l-5.4,5.4l-1.8-1.1L52.2,453.5L52.2,453.5z"/>
<g>
	<path class="st13" d="M34.2,373.9l-2.1,1.1l0.1-4.4l2,0.1l0,0C34.2,370.8,34.2,373.9,34.2,373.9z M77.8,280.6l2.1-3.2L77.8,280.6z
		 M79.9,277.4l1-2.1L79.9,277.4z"/>
	<path class="st13" d="M34.2,370.8l0.2-0.4L34.2,370.8L34.2,370.8z"/>
</g>
<path class="st19" d="M135,261.5l0.7-1.5l11-16.6l3.2,2.2l1.3,1.6l0.3-0.3l-1.6-1.3l5.4-9.7l8.3-11.8l2.2,1.3l-3.1,7.6
	c-1.9,4.3-4,8.6-5.5,13l-10.8,33.3c-2,5.9-4.6,11.7-5.9,17.8l-12.8,59c-1.8,7.8-4.8,15.3-7.2,23c-0.5,1.8-0.8,3.6-1.2,5.4l-2.1-1.1
	l-11.8-4.1c-4.3-2.4-8.6-2.5-12.5,0.8l-4.2-1.8l4.5-2.3l-13.3-3.7l0.1-0.7l8.7,0.8l7.1,0.4l2.8,1.7c0.4-1.9,0.6-3.6,1.1-5
	c0.8-2.5,1.9-4.9,2.8-7.4c0,0,0.2-0.2,0.2-0.2l7.4-0.7l2.1,9.3l2-0.3v-15.4c0.8-1.5,2.4-4.1,2.2-4.4c-2.1-1.7-3.5-5.8-7.5-3.1
	l-0.9-0.1l-0.1-1.1c0-0.3,0-0.6,0-0.8l1.1-2.3l7.4,1l5.2,5.4l-0.7,5.5l1.9-0.3l-1.2-5.2l2.4-2.8l1.6-10.4l2.3-9.7l-1.5-0.5l-2.5,4.3
	l-1.2-0.1l0-4.2l0,0l1.2-2.1c1.1-3.1,3.7-6.6,3.1-9.4c-0.9-4-4.2-7.6-6.4-11.3l5.3-8l1.8,0l1.4-2.2l0,0.1l1.1-2.2l0,0.1
	c3.1-4.8,6.3-9.4,9.1-14.4c1.6-2.8-0.7-2.7-2.7-2.3l-1.8-1.5c1.4-4,7.5-5.7,5.8-11L135,261.5L135,261.5z M132.1,298.8
	c-6.3,3.8-6.8,5.6-3.6,10.9L132.1,298.8z M107.6,366.5l0.9,0.1l-0.4-2.1l-0.5,0.1L107.6,366.5L107.6,366.5z M156,241.3l-0.2-0.4
	c-0.1,0.1-0.3,0.2-0.3,0.4s0.1,0.3,0.2,0.4L156,241.3L156,241.3z"/>
<path class="st17" d="M136.1,182.9c0.8-4.9,1.8-9.8,2.3-14.7c0.2-1.4-0.9-3-1.4-4.4l0.2-2c1.4-3.7,2.9-7.4,4.1-11.2
	c1.2-3.6,2.2-7.3,3.1-11c0.6-2.4,1.7-5.1,1.1-7.2c-1.4-5.2,1.7-6.4,4.3-7.4l13.7,30.8c2.8,6.9,5.9,14,6.9,21.3
	c0.6,4.4-3.7,8.8-4,13.8c-9.5,4.8-15.2,13.3-19.2,22.3c-3.3,7.4-3.9,15.9-5.7,23.9c-0.7,2.9-1.4,5.7-2.1,8.5
	c-5.7-4.7-5.2-10.9-3.9-17.3c0.8-4.3,1.6-8.7,2.8-12.9c2.2-7.9,4-16.2,11.5-21.2c4-2.7,5.8-6.7,6.6-11.2l0-3.2
	c4.4-5.6,3.8-11.8,2.1-18l0-2.1l-2.1-2.1l0-3.2c0-1.9,0.6-4,0-5.7c-1-2.7-2.7-5.2-4.2-8l-6.4,1.7l-4.4,33.5
	C140.8,178.7,140.9,182.8,136.1,182.9L136.1,182.9z M169.9,134.2c6.4-1.8,11.1-6.4,12.3-11.4c2.3-0.9,4.2-1.3,5.7-2.3
	c4.2-2.9,8.3-6.1,12.8-9.4c1.3,3.2,3.1,5.9-1.8,7.6c-1.2,0.4-1.9,2.7-2.3,4.3c-1.3,4.5-4,7.1-8.7,6.9c-3.8-0.2-6.3,1.7-7.4,4.8
	c-2.1,6.1-7.5,7.2-12.5,9C165.3,139.8,167.1,136.9,169.9,134.2L169.9,134.2z"/>
<path class="st3" d="M180.6,198.8l0.6-2.8l0.9-0.1l1.2,5.6c8.6-4.1,10.9-14.7,4.6-23.1l-2.3,8.2c-0.8-3.6-1.3-6.6-2.1-9.4
	c-1.1-4-3.9-4.6-7.8-2.9l-1.5-6.3l2.2,0c2.7,1.8,5.6,3.3,7.9,5.5c2.3,2.2,4.4,2.3,6.8,0.7l4,5.5l1.3,0.9l0,2.1l0,1.1l0,0
	c0,0.2-0.1,0.3-0.1,0.5c0.8,9.5,0.1,18.4-9.8,23.4l-2.8,0.7l-1.3,0.4l-2.8,0.1L180.6,198.8L180.6,198.8z"/>
<path class="st15" d="M176.5,168.1l-2.2,0l-17.7-36.8c6.7-2-1.2-5.6,1.9-8.4l4.3,3.9l0,2l2.1,5.9l4.9-0.5c-2.8,2.7-4.6,5.7-1.9,9.5
	l0.9,2.3c0.1,2-0.4,4.4,2.9,4l5.7,13.8l0.1,2.3L176.5,168.1L176.5,168.1z"/>
<path class="st5" d="M162.8,128.8l0-2l2.3-3.5l11.3-9.3l-0.1,0l11.7-7.5l-0.1,0.1l2.3-1.1l3.5,0.8c-3.1,8.7-10.4,10.5-18.3,11
	C173.4,127.5,170.4,130.3,162.8,128.8L162.8,128.8z"/>
<path class="st3" d="M165.8,225.5l-2.2-1.3c1.9-5.4,3.5-10.8,5.7-16.1c1.8-4.6,4.2-8.9,6.5-13.7l3.9,4.5l-1.2,2.8
	c-1.8,3.8-7,5.6-6.3,10.9L165.8,225.5L165.8,225.5z"/>
<path class="st10" d="M149.9,245.5l-3.2-2.2l6.1-12l1.3,0.1l1.1,4.4L149.9,245.5L149.9,245.5L149.9,245.5z"/>
<path class="st18" d="M177.2,143.4l19-13.8c0.2,0.1,0.3,0.3,0.5,0.4l-18.6,14.4L177.2,143.4L177.2,143.4z"/>
<g>
	<path class="st15" d="M172.1,212.6c-0.7-5.2,4.5-7.1,6.3-10.9c0.4-0.9,0.8-1.9,1.2-2.8c0.3-0.1,0.7-0.1,1-0.1l-0.9,10.2
		L172.1,212.6L172.1,212.6z M176.5,114l-11.3,9.3l3.9-8.4L176.5,114L176.5,114z"/>
	<path class="st15" d="M188.1,106.5l-11.7,7.5C177.6,107.2,184.1,108.8,188.1,106.5z"/>
</g>
<g>
	<path class="st18" d="M196.3,129.6l7.5-6.4l0.8,0.7l-0.6,1.4l-7.2,4.7C196.6,129.9,196.4,129.7,196.3,129.6z M171.8,150
		c-3.3,0.3-2.8-2.1-2.9-4l4.9,0.4l0.7,0.8L171.8,150L171.8,150z M204.8,122.2l3-2.3l0.6,0.5l-0.1,2l-2.6,0.7L204.8,122.2
		L204.8,122.2z"/>
	<path class="st18" d="M209.1,118.1l1.2,0.2l0,2l-1.9,0.2l-0.6-0.5L209.1,118.1L209.1,118.1z"/>
</g>
<path class="st15" d="M190.4,105.5l-2.3,1.1C188.1,106.6,190.4,105.5,190.4,105.5z"/>
<g>
	<path class="st18" d="M173.8,146.4l2.3-2l0.9,0.8l-2.4,1.9L173.8,146.4L173.8,146.4z"/>
	<path class="st18" d="M176.1,144.5l1.1-1.1l0.9,1.1l-1.1,0.8L176.1,144.5L176.1,144.5z M203.7,123.2l1.1-1.1l0.8,0.9l-1.1,0.9
		L203.7,123.2L203.7,123.2z"/>
</g>
<path class="st25" d="M260.7,436.9c-1.1-1.8-1.8-3.9-3.2-5.4c-3.4-3.4-7.1-6.4-10.7-9.6l7.3,1.4l1.2,0.2l3.5-0.1l-3.4,2.8l14.5,9.3
	L260.7,436.9L260.7,436.9z M227.4,436.6l1.3-5.3l11.9,7.4l-1.7,7.4L227.4,436.6L227.4,436.6z"/>
<path class="st23" d="M224.3,457.2l0.4-0.3l0.4,0.3l-0.4,0.2L224.3,457.2z"/>
<path class="st2" d="M378.2,446.1l-0.4-2c2.4-5.1,1.8-9.9-1.4-11.8c0.2-5.8,0.2-11.6,0.8-17.4c0.5-4.9,1.9-9.6,2.9-14.4l0.6-1.2
	l10.9-1.2l0.2,1.3c-3.5,2.5-3,7,1,10.6l0.1,10.5c-0.2,11.1-5.1,41.1-8.4,44l-4.4-15.3C379.8,448.1,378.9,447.1,378.2,446.1
	L378.2,446.1z"/>
<path class="st11" d="M392.9,420.6l-0.1-10.5c1.4-3.5-3.3-7.5,1.1-10.7c0.7,0,2,0,2,0.1c0.8,6.1,1.9,12.2,2.1,18.4
	c0.3,8.9,0,17.8,0.1,26.7c0.1,4,0.3,8.1,1.2,12c0.4,1.5,2.8,2.5,4.4,3.6c2.1,1.6,6.3,1.8,3.8,6.2c-6.4,0-7,0.7-9.5,9.5l-3.2,14.9
	c-1.4-2.8-4-5.5-4-8.3c0-7.5,1.3-14.9,1.8-22.4l2.1-36.8C394.9,422.3,393.6,421.4,392.9,420.6L392.9,420.6z"/>
<path class="st8" d="M394,399.4c-4.4,3.1,0.2,7.2-1.1,10.7c-4.1-3.7-4.5-8.1-1-10.6L394,399.4L394,399.4z"/>
<g>
	<path class="st12" d="M363,450.4l1-1.7l7.7,13.2l-4.6,0L363,450.4z M341.8,499.3l-2.1-2.1l0.4-0.4l2,2.2L341.8,499.3L341.8,499.3z"
		/>
	<path class="st12" d="M343.9,501.4l-2.1-2.2c0.1-0.1,0.2-0.2,0.3-0.3l2.2,2L343.9,501.4L343.9,501.4z M359.8,465.4L359,462l0,0
		l1.4,2.9L359.8,465.4L359.8,465.4z"/>
	<path class="st12" d="M359,462l-0.4-0.2L359,462L359,462L359,462z M337.6,495l-0.7-0.6l1,0.3L337.6,495z"/>
	<path class="st12" d="M337.9,494.7l1.1,1l-0.4,0.4l-1-1.1C337.6,495,337.9,494.7,337.9,494.7L337.9,494.7z"/>
	<path class="st12" d="M339.7,497.2l-1.1-1c0,0,0.4-0.4,0.4-0.4l1.1,1L339.7,497.2z M345,502.5l-1.1-1l0.4-0.5l1.1,1L345,502.5
		L345,502.5z"/>
	<path class="st12" d="M345.4,502l1.1,1l-0.5,0.5l-1-1.1L345.4,502L345.4,502z"/>
</g>
<path class="st0" d="M384.6,296.6c-3.1-3.4-6.4-6.6-9.3-10.1l-21.1-26c-8.8-10.4-17.8-20.6-26.1-31.9c3.5,0.8,6.9,1.8,10.4,2.5
	c1.9,0.4,3.9,0.4,5.8,0.6l3.3,2.9c2.1,5.3,3.3,11.1,6.5,15.7c4.8,7,11,13.1,16.6,19.5c1.3,1.5,5.4,2,1.9,5.4
	c-0.1,0.1,0.7,1.1,1.1,1.7l8.9,14.2L384.6,296.6L384.6,296.6z M389.7,279.4l-1,2.1l-0.2,1.3l-5.1-7.6l-0.5-2
	c-0.1-4.1-0.1-8.2-0.4-12.3c-0.1-1.7-0.8-3.4-1.3-5.1l1.8-0.5L389.7,279.4L389.7,279.4z M395.2,287.1l-1.4,12.2l-2.1,0l0-14.4
	l0.5-6.2l0-8L395.2,287.1L395.2,287.1z"/>
<path class="st12" d="M347.5,234.6l-3.3-2.9l-6.5-7.3l13,10.4c-0.2,0.2-0.5,0.4-0.7,0.7L347.5,234.6L347.5,234.6z M358.2,243.1
	l2,2.3l-0.4,0.4l-2.1-2.2L358.2,243.1L358.2,243.1z"/>
<path class="st0" d="M381,252.9l-0.1,0.4l-0.4-0.4l0.3-0.3L381,252.9L381,252.9z"/>
<g>
	<path class="st12" d="M351.7,235.7l0.5,1.9l-1.2-1.3L351.7,235.7L351.7,235.7z M362.1,247.6l0.9,1.3l-0.7,0.3l-0.3-1.5L362.1,247.6
		L362.1,247.6z M356,241l1.1,1l-0.4,0.4l-1.1-1.1L356,241z"/>
	<path class="st12" d="M357.6,243.6l-1-1.1l0.4-0.4l1.1,1L357.6,243.6L357.6,243.6z M360.9,246.8l-1.1-1l0.4-0.4l1,1.2
		C361.1,246.5,360.9,246.8,360.9,246.8L360.9,246.8z M337.7,224.3l-1.1-1.1L337.7,224.3z"/>
	<path class="st12" d="M362,247.7l-1.2-1c0,0,0.3-0.3,0.3-0.3l1,1.1L362,247.7L362,247.7z M351.1,236.4l-1.1-1l0.7-0.7l1,1.1
		L351.1,236.4L351.1,236.4z M354.4,238.7c-0.1,0.1-0.2,0.3-0.3,0.3c-0.1,0-0.2-0.2-0.3-0.3c0.1-0.1,0.2-0.3,0.3-0.3
		C354.2,238.4,354.3,238.6,354.4,238.7L354.4,238.7z M355.6,241.4l-0.3-1l0.7,0.6L355.6,241.4L355.6,241.4z"/>
</g>
<path class="st26" d="M156.3,154.3l0,3.2l2.1,2.1l0,2.1c-0.7,0.9-1.8,1.8-1.9,2.8c-0.2,5.1-0.2,10.2-0.2,15.3l0,3.2
	c-2.9,2-5.6,4.2-8.6,5.8c-2.6,1.4-3.9-0.3-4.1-2.9c0-0.7-0.1-1.4,0-2.1l3.9-30.7c0.3-1.7,1.9-3.3,2.9-4.9c1.5,1.3,3.1,2.6,4.6,4
	C155.6,152.6,155.8,153.5,156.3,154.3L156.3,154.3z"/>
<path class="st16" d="M146.3,279.4l10.8-33.3c1.5-4.4,3.7-8.7,5.5-13l6-0.6c-0.2,2.5-0.3,5-0.7,7.5c-0.3,1.8-0.9,3.6-1.3,5.4l-2,0.2
	l-4.5,10.1l6.5,2.4l-8.6,1l-0.1,1l3.4,1.6l0.1,1.2l-2.1-0.1l-6.6,0c5.1,5.7,2.6,10.4,0.6,15.1l-5.7,1.7L146.3,279.4L146.3,279.4z
	 M145.8,296.5c4.6,3.6,3.6,8.1,2.6,13c-1,4.4-0.9,9.1-1.3,13.7c-2.4,9.7-6.1,19.2-4.6,29.5l-2.1,8.5c-3.4-8.1-3.8-16.3-1.3-24.7
	c0.3-1,1.1-1.9,1.1-2.9l2.3-28.7C142.9,302.1,144.7,299.3,145.8,296.5z"/>
<path class="st10" d="M117.1,383.5l2.1,1.1l-1,2.1l-1.1,1.1l0.1,0l-1.5-0.3l-2.1-3L117.1,383.5L117.1,383.5z"/>
<path class="st7" d="M117,387.8l1.1-1.1L117,387.8z"/>
<path class="st14" d="M145.7,292.2l-0.4-0.2L145.7,292.2L145.7,292.2L145.7,292.2z"/>
<path class="st19" d="M65.3,401.8c-0.9,0.1-1.8,0.4-2.6,0.2c-1.4-0.3-2.7-1-4-1.5c0.7-1.4,0.9-3.2,2-4c3.8-2.8,7.8-5.2,11.8-7.8
	l8.3-2.8c2.8,1.4,5.6,3,8.6,4.3c2.4,1.1,5,1.8,7.5,2.7l2.1-0.9l5.3-0.2l7.4-1l1.1,3.9l-7.5,3.8l-1.5-2.2c-3.8,1.3-7.8,2.3-11.3,4.1
	c-1.7,0.9-2.6,3.4-3.9,5.2l-5.6,3.2l-1-3.1l1.2-2l-1.1-0.4l-0.1,2.3l-5.3-2.1l-1.1-4.1l6.4,0.1l1-0.1l3.5-2.8l-3.6-3.8l0.7-0.2
	c-0.1,0-0.2-0.1-0.3,0c-0.1,0.1-0.2,0.2-0.4,0.3c-8.1-3.2-14.4,1.3-20.7,4.6L65.3,401.8L65.3,401.8z"/>
<path class="st22" d="M83,408.9l5.6-3.2l5-1l-0.1,2.1c-1.2,0.5-3.4,1-3.4,1.7c-0.5,5.6-5,8.4-8.1,12.1l-0.6-1.3l-0.4,1.2l0,1.2
	l0.1-0.1l-1.1,1.1l0.1-0.1l-1.1,1.1l0.1-0.1c-4.4-0.8-5.8,1.4-5.4,5.4l0.1-0.1l-5.1,1.2l-1.4-0.2c0.8-4.7,3.8-7.6,9.9-9.6l-6.7-2
	c-0.1-0.2-0.2-0.4-0.3-0.6l5.6-3.1l-0.9-1.3l-9.2,2.9l-0.4-0.9l8.6-4.3c-4.1-4-5.8,1.1-8.5,1.4l-1-1l2.3-2.8l-2.8-1.2l1.6-5.8
	l1.4-0.5l6.8-1.8l2.2,0.1l1.1,4.1c0.1,4.1,1.2,7.5,6,9.1L83,408.9L83,408.9z M62.8,448c1.1-4.2,3.1-7.7,7.5-9.4l6.5,2.3l-7.3,12.7
	l-2.6-1.2l1.5-4l1.4-1.7l-1-1l-1.1,2l-3.7,2.6L62.8,448L62.8,448z"/>
<path class="st10" d="M82,420.6c3.1-3.8,7.7-6.5,8.1-12.1c0.1-0.6,2.2-1.1,3.4-1.7c3.1,1.9,3,3.9,0.1,6c-1.2,0.9-3,2.2-3,3.3
	c0.3,5.9-2.8,7.2-7.7,6.6l-1-1.1C82,421.3,82,421,82,420.6L82,420.6L82,420.6z"/>
<path class="st11" d="M69.5,453.6l7.3-12.7c0.3-0.1,0.6-0.1,0.9-0.1l-4.5,16.3l-0.3,0.2c0,0-0.1,0-0.1,0l-6.6,1.4L69.5,453.6
	L69.5,453.6z"/>
<path class="st10" d="M73.2,457.1l4.5-16.3l7.9-1.4L75,457.1C74.9,457.4,73.8,457.1,73.2,457.1z"/>
<path class="st3" d="M117.1,383.5l-3.6,1l2.1,3l-2.8,0.6l-2.1-0.2l-2.2,0l-2.1-0.2l1-2.5l-6.4-3.5l4.2-2.3L117.1,383.5L117.1,383.5z
	 M105.4,398.5l7.5-3.8c-2.9,5.5-6.3,10.4-12.6,12.4c-0.6,0.2-1.5-0.9-2.3-1.4C97.9,405.8,105.4,398.5,105.4,398.5z M93.6,404.7l-5,1
	c1.3-1.8,2.2-4.3,3.9-5.2c3.5-1.8,7.5-2.8,11.3-4.1l-4.3,3.8c-1.6,1.4-3.3,2.7-5,4.1C94.2,404.3,93.9,404.5,93.6,404.7L93.6,404.7z"
	/>
<path class="st10" d="M94.5,404.3l5-4.1l4.3-3.8l1.5,2.2l-7.5,7.2L94.5,404.3L94.5,404.3z"/>
<path class="st18" d="M108.3,410.8l-11,8.5C99.3,413.1,102.9,410.2,108.3,410.8z"/>
<path class="st2" d="M81.8,426.9l-10,9.1l-0.5-0.6l0.1-2.1l0,0l2.2-3.3l-0.1,0.1l1.1-1.1l-0.1,0.1l2.2-1.1l-0.1,0.1
	c1.1-0.9,2.1-1.9,3.3-2.5C80.2,425.4,81.2,426.4,81.8,426.9L81.8,426.9z"/>
<path class="st10" d="M110.6,387.8l2.1,0.2l-1.1,2.9l-7.4,1l2.1-4.3l2.1,0.2L110.6,387.8L110.6,387.8z"/>
<path class="st22" d="M81.8,426.9c-0.6-0.5-1.6-1.5-1.9-1.3c-1.2,0.6-2.2,1.6-3.3,2.5l2.2-4.3l-0.1,0.1l1.1-1.1l-0.1,0.1l1.1-1.1
	l-0.1,0.1l0.5,0l0.5-0.1l1,1.1L81.8,426.9L81.8,426.9z"/>
<path class="st10" d="M72.8,457.3L72.8,457.3l-0.2,4.4l-1.4-0.2L72.8,457.3z"/>
<path class="st8" d="M231.6,95.9l3.1,4.7l0.6,3.4l4.8-0.7l3.9,13.8l1.8,0.6c4.5-7.7,9.6-15.1,12.4-23.8l6.4-8.5l10-11.3
	c0.1,0,0.2,0,0.3,0l0.3-0.2l0.5,0.1l0.5-0.1l4.4,2.6l-0.1,4.7l-1.1,0c-2.3,0.6-6.3,0.6-6.6,1.8c-2.1,6.8-5.9,13.2-4.5,20.9
	c1.2,6.7,5.2,11.6,8.8,16.9c1,1.6,0.9,4,1.3,6l-3.2,0c-1.6,0.4-3.9,0.3-4.8,1.3c-4.7,4.9-8.6,10.6-13.5,15.2
	c-5.6,5.2-6.5,11.2-4.9,18.1c1.2,5.3,2.3,10.3-2.6,14.6c-0.5,0.5,0.9,3.2,1.4,4.9c0.6,5.7,0.1,12,2.2,17c3,7.2,8.1,13.4,12.1,20.2
	c0.9,1.5,0.9,3.5,1.4,5.3c-4.3-4.2-8.7-8.2-12.7-12.6c-3.4-3.7-6.4-7.8-9.6-11.7c-0.2-1-0.3-2.1-0.7-3c-2.6-6.6-4-13.2-2.5-20.5
	c1.9-9.1,2.1-18.3-0.5-27.6c-1.4-5.1-1.2-10.6-1.8-16l-1.8-16l-3.6-5.8l-5.8,1.6l-1.3,1.1l-2,0l-1.2-4.4l0.3-2.5l1.4-1l0.8,3.9
	L231.6,95.9L231.6,95.9z"/>
<path class="st3" d="M213.6,153.1l2.1-12.6l11.7,8.6l-1.1,14.1l-1,9.2l-10.8,1l-1.1-1.1L213.6,153.1L213.6,153.1z"/>
<path class="st11" d="M236.9,116l1.8,16c0.6,5.3,0.3,10.9,1.8,16c2.6,9.3,2.4,18.5,0.5,27.6c-1.5,7.3-0.1,13.9,2.5,20.5
	c0.4,1,0.5,2,0.7,3l-8.5-12.7c0.4-5.8,1.2-11.6,1.2-17.4c-0.1-9.5-0.6-19.1-1.1-28.6c-0.1-1.1-1.2-2.1-1.9-3.1L236.9,116L236.9,116z
	"/>
<path class="st3" d="M233.9,137.3c0.7,1,1.8,2,1.9,3.1c0.5,9.5,1,19.1,1.1,28.6c0,5.8-0.8,11.6-1.2,17.4l-4.1-7.7
	c-2.2-9.7-4.4-19.5-2.2-29.5L233.9,137.3z"/>
<path class="st18" d="M229.4,149.1c-2.3,10.1,0,19.8,2.2,29.5l-3.8,0l-2.5-4.2l0-2l1-9.2l1.1-14.1L229.4,149.1L229.4,149.1z"/>
<path class="st11" d="M217.9,98.1c-0.7,4.7-1.2,9.4-2.3,14c-1.7,7.5-0.6,14.7,1.9,21.8c0.2,0.5-0.1,1.2-0.2,1.8l-1.5,0.2l-2.4-12.4
	l1.1-19.2l3.1-6.4C217.7,98,217.9,98.1,217.9,98.1L217.9,98.1z"/>
<path class="st3" d="M223.1,108.6l1.2,4.4l-4.9,12.4C218.9,119.2,217.7,113.1,223.1,108.6L223.1,108.6z"/>
<path class="st8" d="M214.6,104.4l-1.1,19.2l-2-1.1l-1.1-2.2l0-2l2.3-13.9L214.6,104.4z"/>
<path class="st3" d="M210.3,120.2l1.1,2.2l1.1,12.7l-2.1-0.1l-2.1-12.6l0.1-2L210.3,120.2L210.3,120.2z"/>
<path class="st8" d="M227.3,91.8l2.1,1.2L227.3,91.8z M230.8,117.4v-1.6h0.4v1.6H230.8z"/>
<path class="st11" d="M218.9,95.9l-1,2.2c0,0-0.2-0.1-0.2-0.1L218.9,95.9L218.9,95.9z"/>
<path class="st3" d="M226.2,112.9l1.3-1.1L226.2,112.9z"/>
<path class="st11" d="M218.9,95.9l0.4-0.4c0,0.1,0,0.2-0.1,0.3C219.1,95.8,219,95.9,218.9,95.9L218.9,95.9z"/>
<path class="st27" d="M360.1,94.5l-3.4-1.6l-0.3-1.1l-0.2,0.1l-0.3,0c0.1-2,1-4.5,0.2-6c-2.3-4-5.2-7.6-8.1-11.3
	c-1.1-1.4-2.9-2.3-3.9-3.8c-3.5-5.3-6.7-10.7-10-16.1c-2.3,0-5.2,0-8,0c1.6-0.8,3.1-1.8,4.8-2.5c1.2-0.5,2.5-0.6,3.7-0.8l8.5,2.2
	l0.1,4.3c0.3,0.9,0.4,2,1,2.8c2.5,3.9,5.2,7.8,7.8,11.7c1.8-2.7,3.7-5.8-1.1-8.7c-0.7-0.4-0.9-1.7-1.3-2.7l8.4,2.1
	c0.7,2.2,1.9,4.4,2,6.6C360.2,77.9,360,86.2,360.1,94.5L360.1,94.5z"/>
<path class="st18" d="M367.4,45l5.1,6.1l6.2,6.1l1.5-4c5.4,2.8,4.6,8.1,5.3,12.9l-2.3-0.9l-3.4-5.3l-0.7,4.3L378,66l-1.9,0
	c0-0.3-0.1-0.6-0.2-0.8c-2.2-4.5-4.8-8.4-10.6-8.5l-7.5-9.5l3.2-3.2L367.4,45L367.4,45z"/>
<path class="st10" d="M357.9,63l-8.4-2.1l-2.4-5.3l0.2-2.1c4.7-1.2,10.8,0.8,12.8,4.2l-0.1,0.1c-3.5,0-4.2,1.5-2.1,4.3L357.9,63
	L357.9,63z"/>
<path class="st22" d="M378,66l1.1-1.9l4.2,1l2.3,0.9l1.1,4.2l-4.1,1.9L378,66L378,66z"/>
<path class="st10" d="M368.4,64.1l-7.4-4.3l-1.1-2.1l0.1-0.1l5.2,0.1l2.2,4.2L368.4,64.1L368.4,64.1z"/>
<path class="st22" d="M368.4,64.1l-0.9-2.2l8.4,3.2l0.2,0.8L368.4,64.1L368.4,64.1z"/>
<path class="st27" d="M360,57.7l1.1,2.1l-3.1,2.1C355.8,59.2,356.5,57.7,360,57.7z M275.1,73.9l-0.3,0.2l-0.3,0l-4.7-0.4l-7-4.3
	c-1.9-1-3.9-2.4-6-2.6c-6.2-0.7-6.3-0.6-11-4.4l-3.6,1.8c-1.1-6.3-2.4-12.5-3.3-18.8c-0.2-1.8,0.7-3.8,1.1-5.6l11.7,1.1l1.1,2.1
	c-0.1,2.1-0.5,4.3-0.4,6.4c0.2,2.1,0.3,4.8,1.6,6c4.4,3.9,9.6,7,14,11c3,2.6,5.4,2.9,7.5-0.2c2.7-4.1,4.9-8.6,7.5-13.2l5.8-1.3
	l-1.2-7.6l8.3,6.4l2.3-1.1c-0.6,3.7-5.2,6.9-1.2,11.2c0.2,0.2-0.6,1.2-0.7,1.9c-0.7,3.3-2,6.3,1.6,9.3c2.9,2.4,4.5,6.3,6.7,9.5
	l-20.1-3.3l-4.1-1.4l-4.4-2.6L275.1,73.9L275.1,73.9z"/>
<path class="st10" d="M251.8,40.7l-11.7-1.1l0-4.2c-0.3-0.7-0.5-1.8-1-1.9c-1.4-0.3-2.9-0.2-4.4-0.3l1.1-3.2
	c0.3-0.1,0.5-0.2,0.8-0.1l12.9,5.6l3.4,0.1l3.1,1L251.8,40.7L251.8,40.7z"/>
<path class="st27" d="M234.7,33.2c1.5,0.1,3,0,4.4,0.3c0.4,0.1,0.6,1.2,1,1.9l-6.3,1.1l-0.1-2.2L234.7,33.2L234.7,33.2z"/>
<path class="st10" d="M233.7,34.3l0.1,2.2l-3.3,2L233.7,34.3L233.7,34.3z"/>
<path class="st15" d="M264.6,85.3l-6.4,8.5c-1.2-0.5-3-1.9-3.6-1.5c-2.2,1.6-4,3.7-6,5.6c-4.4-1.7-8.7-2.2-12.4,1.5
	c-1-4.3,1.1-6.8,5-7.8c5.3-1.4,10.6-2.3,15.9-3.6C259.6,87.3,262.1,86.2,264.6,85.3L264.6,85.3z"/>
<path class="st3" d="M236.1,99.4c3.8-3.7,8-3.2,12.4-1.5c-1.2,1.1-2.3,2.4-3.7,3.2c-1.5,0.9-3.2,1.4-4.8,2.1l-4.8,0.7l-0.6-3.4
	L236.1,99.4L236.1,99.4z"/>
<path class="st16" d="M385.9,326.3l2.6-6.6l1.7-0.2l1.2,3.4l-1.1,10.7l0.4,6.3c-0.7,5.7-1.5,11.4-2,17.2c-0.1,1.3,1,2.7,1.5,4
	c-5.6,6.5-3.3,15.2-6.1,22.5c-1.7,4.4-2.7,9.1-4,13.6l-5.1,0.1c0.3-13.7,5.4-26.3,8.8-39.4c1.9-7.4,2.2-15.2,3.3-22.9l-1.2-2.7
	l-1.6-4.8L385.9,326.3L385.9,326.3z"/>
<path class="st21" d="M375.1,397.4l5.1-0.1l0.5,2l-0.6,1.2c-1.4,1.2-3.9,2.2-4,3.5c-1,8.4-1.5,16.9-2.3,25.4
	c-0.2,2.4-0.7,4.8-1.1,7.1l-2.2-3.4l0-1.8l1.1-14.1l1.1-13.7L375.1,397.4L375.1,397.4z"/>
<path class="st4" d="M390.8,376.1l-0.5,0.4L390.8,376.1C390.8,376.1,390.8,376.1,390.8,376.1L390.8,376.1z"/>
<path class="st22" d="M25.4,357.6l0.6-1.4l3.9-2.5c3.2,2.2,0.3,5,0.7,7.5l-1.5,0.1l-5.5,2.1l0.3-2L25.4,357.6L25.4,357.6z"/>
<path class="st15" d="M326.9,207.3c-1.3,0.3-2.7,0.9-4,0.9c-3.9,0-5.9,1.4-4.6,5.7c0.2,0.8-0.5,1.9-0.8,2.9l-1,1.3l-0.9,1
	c0,0,0,0,0,0l-5.4,4.3l-7-3l6-0.9l-5.6-2.2l7.4-2.1v-6.9l1.1-1.8l0.1-1.1l2.9,0.2c2.2,0.3,4.3,0.8,6.5,0.8c5.1,0,5.1-4.7,6.4-7.8
	c1.4-3.4-1.8-3.1-3.9-3.5c-0.2,0-0.1-1.1-0.2-1.7l3.2-0.8l5.4-3.1c4.8-0.3,5.7-3.4,5-7.4l0.7-0.6l1.7,2.5l-4.4,10.6
	c-4.3,0.3-6.3,2.7-6.8,6.9C328.5,203.4,327.6,205.3,326.9,207.3L326.9,207.3z"/>
<path class="st11" d="M310.1,223.4l5.4-4.3l-9.8,16.2l-12.3,4.5l-16.2-5l2.3-1l7.2,0.2c7.9,4.8,20,1.4,20.1-6.5l0,0l2.1-1.1l0,0
	l1.1-2.1L310.1,223.4L310.1,223.4z"/>
<path class="st27" d="M293.4,239.8l12.3-4.5l-2.1,9.1l-10.2,1.2l-0.4-1L293.4,239.8L293.4,239.8z"/>
<g>
	<path class="st4" d="M320.3,235.4l-1.7-2.6l0,0.1l2.4,1.9L320.3,235.4L320.3,235.4z"/>
	<path class="st4" d="M318.6,232.8l-0.5-0.4c0.1,0,0.2,0,0.3,0C318.5,232.6,318.5,232.7,318.6,232.8L318.6,232.8L318.6,232.8z"/>
</g>
<path class="st11" d="M315.6,219.1l0.9-1L315.6,219.1z"/>
<path class="st12" d="M142.5,352.7c-1.5-10.3,2.1-19.8,4.6-29.5l4.9-5.5l-6.2,36.1L142.5,352.7L142.5,352.7z"/>
<path class="st8" d="M23.5,363.3l5.5-2.1l-17.3,48.8l-2.9-7.4c1.7-2.5,4-4.7,5-7.4c2.7-7.5,5-15.2,7.3-22.9c0.4-1.2-0.8-2.8-0.4-4
	C21.2,366.5,22.5,364.9,23.5,363.3z"/>
<path class="st4" d="M371.7,462l-7.7-13.2l-2.9-16.5l0.3,0l2.8,1.2l8,13.4c-0.1,0.2-0.1,0.4,0,0.7
	C372.4,452.3,375.7,457.3,371.7,462L371.7,462z"/>
<path class="st6" d="M372.1,446.8l-8-13.4l6.4-0.2l2.2,3.4L372.1,446.8z"/>
<path class="st8" d="M376.4,432.3c3.2,1.9,3.8,6.7,1.4,11.8L376.4,432.3z"/>
<path class="st4" d="M390.3,333.7l1.1-10.7l9-30.9c0.6,1.4,2,3,1.8,4.2c-1.4,7-3.2,13.8-4.8,20.8c-0.5,2.3-0.9,4.7-1.3,7.1
	L390.3,333.7L390.3,333.7z M383.4,275.2l5.1,7.6c0.1-0.4,0.1-0.9,0.2-1.3l1.4,15.6l-1.4,0.3L383.4,275.2L383.4,275.2z"/>
<path class="st14" d="M390.2,319.6l-1.7,0.2l0.8-12.7L390.2,319.6L390.2,319.6z"/>
<path class="st9" d="M304.8,81c-2.2-3.2-3.8-7.1-6.7-9.5c-3.6-3-2.3-6-1.6-9.3c0.1-0.7,0.9-1.6,0.7-1.9c-4-4.3,0.6-7.5,1.2-11.2
	l4.2-2.1c3.1,4.8,8.2,3.8,12.8,4.3l5.3,3.2l1.9,1.8l1.4-1.8l2.1,0h8l10,16.1c1,1.5,2.8,2.4,3.9,3.8c2.8,3.7,5.8,7.3,8.1,11.3
	c0.8,1.5-0.1,4-0.2,6l-5.5,1.2l-17-3.2L320.8,86c-1.8-0.5-3.6-0.7-5.4-1l-2.9,0l0,0L304.8,81L304.8,81z"/>
<path class="st8" d="M345.2,100.3l9.3,3.5c0.9,3.6-1.3,4-4,3.8l-22.3-4.3l-1.1-8.5l16.2,3.3C344.1,98.4,344.6,99.5,345.2,100.3
	L345.2,100.3z"/>
<path class="st3" d="M345.2,100.3c-0.6-0.7-1.1-1.9-1.9-2.1c-5.4-1.2-10.8-2.2-16.2-3.3l-4-2.3l10.3-2.8l17,3.2l9,5.9l-0.4,1.3
	L345.2,100.3L345.2,100.3z"/>
<path class="st11" d="M353.7,118.3l-1,1.8l2.1,8.5l-2.1,0.2l-2.2-2.1c-1.4-1.9-2.5-5.1-4.3-5.6c-8.3-2.5-16.9-4.2-25.3-6.1
	l-15.2-6.3l0.4-1.1l14.8,4.3l32.9,5.3L353.7,118.3L353.7,118.3z"/>
<path class="st3" d="M353.7,118.3l-0.1-1.2l-3.2-5.3l0-4.2c2.7,0.2,4.9-0.2,4-3.8c4.3-1.1,5.6,1.5,6.1,5
	C361.1,113.3,358.3,117.1,353.7,118.3L353.7,118.3z M354.7,128.6l-2.1-8.5c6.9,0.9,8.8,4.6,5.1,9.7L354.7,128.6L354.7,128.6z"/>
<path class="st8" d="M354.7,128.6l3.1,1.2l-0.3,2.9l-3.9,2.4l-3.2-2.1l2.2-4.2L354.7,128.6L354.7,128.6z"/>
<path class="st9" d="M356.4,91.8l0.3,1.1L356.4,91.8z"/>
<path class="st28" d="M367.4,45l-6.4-1.1c-1-0.5-2.3-0.8-3.1-1.6c-2.7-2.4-4.9-5.5-9.4-3.8c-0.9,0.3-2.3-0.6-3.4-0.9l0,0l-2.2-1.9
	c-0.3-0.1-0.7-0.2-1-0.2l-1.1-3.1c-2.3-3.7-3.5-8.5-8.6-9.5l1.6,9.7l-7.8-5.5l-2.4,1.1c-0.2,0-0.4,0-0.6,0.1l1.9-2.7
	c-3.1-1.3-9.3,5.1-8-4.3l-7,2.1l-1.9-2.7l5.7-3.7c-7.3-1.7-13.6-3.4-20-4.5c-3.3-0.6-6.9-0.5-10.3-0.1c-1.9,0.3-3.7,1.8-6,3
	c4.8,0,8.8-0.7,12.4,0.2c4.8,1.1,9.4,3.4,14,5.1l-2.1,2.5c-9.1-8-20-2.6-29.2-4.3l-1.7,3.8l-16.4,1.8c5-2.3,3.8-5.1,1-8.1
	c-1.1-1.1-1.9-2.5-2.8-3.8c1-1.2,1.8-3.1,3.1-3.6c5.9-2,12-3.7,18-5.5l4,0.5l0.3,1.5l-9.6,2.4l0.1,1.1c7.2,0,14.4-0.2,21.6,0.1
	c3,0.1,6,1.5,9.1,2.1c3,0.6,6,0.8,9.8,1.3l-2.4-7.4c10.1-2.7,17.9,4.7,27.6,6.5l-3.1,2.1l22.5,11.2l-0.4,1.6l-9.8,1l10.6,8.2
	c0.3-2.2,0.2-4.8,0.7-4.9c2.7-0.6,6.3-1.8,8.3-0.6c3.1,1.9,5.2,5.5,7.7,8.4c-0.8,1.1-1.6,2.2-2.3,3.4C368.2,42.9,367.9,44,367.4,45
	L367.4,45z M313.9,6.9l-0.8,1.9l12,6.4l1.1-2.2L313.9,6.9z"/>
<path class="st12" d="M390.3,333.7l5.8-9.4l2.1-1.3l-7.4,17L390.3,333.7L390.3,333.7z"/>
<path class="st0" d="M394.7,347.7c-0.1,0-0.3,0.1-0.3,0.1c-0.1-0.1-0.1-0.2-0.2-0.4l0.6-0.1L394.7,347.7L394.7,347.7z"/>
<path class="st12" d="M398.2,323l1.1-1.1L398.2,323z"/>
<path class="st8" d="M340,183.9l-1.7-2.5c-3.7-6.2-2.6-13-2.6-19.7l5.2,5.3v0l-1.9,0.6l1.9,0.5l0,0c0.3,1,0.2,2.2,0.8,2.9
	C346.7,176.7,346.4,179.4,340,183.9L340,183.9z"/>
<path class="st15" d="M335.7,161.8c0,6.7-1.1,13.5,2.6,19.7l-0.7,0.6c-1-1.3-2.8-2.5-2.9-3.8c-0.9-8.5-1.5-17-1.9-25.5
	c0-0.7,1.9-1.5,2.9-2.3l0,2.5l-0.3,4.5L335.7,161.8L335.7,161.8z"/>
<path class="st3" d="M335.4,157.4l0.3-4.5c2.4-2.7,4.2,0.9,6.3,0.7l5.1,1.9l0.2,1.9l-6.2,2.1C338.8,160.2,336.6,159.9,335.4,157.4
	L335.4,157.4z"/>
<path class="st8" d="M340.9,167h4.1l0.1,0.9l-4.2,0.2l0,0L340.9,167L340.9,167L340.9,167z"/>
<path class="st3" d="M347.9,161c-0.6,0.2-1,0.6-1.4,0.5c-0.4-0.1-0.6-0.6-0.9-0.9c0.3-0.2,0.7-0.7,1-0.6
	C347,160.1,347.3,160.6,347.9,161L347.9,161z"/>
<path class="st4" d="M368.8,476.9l-1.3-2.2L368.8,476.9z"/>
<path class="st2" d="M352.6,128.8l-2.2,4.2l3.2,2.1l-13.8,6.4l-2.1,0c-0.2-0.8-0.1-2-0.6-2.5c-4.7-4.1-9.4-8.2-14.2-12.1
	c-0.7-0.6-2.2-0.1-3.4-0.1l-14.7-7.6c-5.6-3.6-11-3-16.3,0.5c-1.6-0.8-3.1-1.8-4.7-2.3c-10-3.2-15.3-18-9.7-26.9
	c1.9-3.1,3.5-6.3,5.3-9.4l1.1,0l4.3-3.3l20.1,3.3l7.7,4l-7.1-1.3c2.3,0.7,3.9,7,7.2,1.3l2.9,0c-1.3,4.7-0.6,8.7,3.4,12
	c1.1,0.9,1.3,2.8,1.9,4.3l-6.4-1.2l-4.8-8c0.4-3.2-7.2-6.7-14.2-4.4l6.9,4.4l-4.7,1.4l10.6,5.7l0.1,1.9l-17.4-2.9
	c3.7,4.3,18.8,9.5,22.6,8.2c0.9-0.3,1.3-1.9,2-3l6.4,2.1l-1.1,6.4l-14.8-4.3l-0.4,1.1l15.2,6.3c2.2,3.1,4.8,5.9,6.5,9.2
	c2.2,4.3,4.9,4,8.7,2.4c2.2-0.9,4.8-1.1,7.2-1c2.4,0,4.8,0.7,7.2,1.1L352.6,128.8L352.6,128.8z M299.5,82.1l-0.1,1.8l2.7-0.7
	l-0.2-0.9L299.5,82.1l-5.7-1l-0.1,1.7L299.5,82.1L299.5,82.1z"/>
<path class="st3" d="M337.7,141.5l2.1,0l-4.2,8.9c-1,0.8-2.9,1.6-2.9,2.3c0.4,8.5,1,17,1.9,25.5c0.1,1.4,1.9,2.6,2.9,3.8
	c0.6,4-0.2,7.1-5,7.4c-1.8-15.2-3.4-30.4-1.3-45.7L337.7,141.5L337.7,141.5z"/>
<path class="st5" d="M347.1,155.5l-5.1-1.9c4.6,0,6.4-2.3,5.6-6.8l3.8,0L347.1,155.5z"/>
<path class="st18" d="M301.7,23l2.1-2.5l4.1,0l1.9,2.7l7-2.1c-1.3,9.4,5,3,8,4.3l-1.9,2.7l-3.9,1.1l7.6,7.2l1.3-0.8l-4.4-7.5
	l2.4-1.1l7.8,5.5l-1.6-9.7c5.2,1,6.3,5.8,8.6,9.5l-2.1,0c-3.6,0.5-1.8,2.5-1.2,4.2c-0.5,1.7-1.2,3.4-1.6,5.1c-0.6,2.5-1,5-1.5,7.5
	l-6.1-4.1c-2.9,2.1-5.7,6.7-9.8,1.5l-3,2.6l-2.1-3l0.1-2.5l-2.3,0.4l-3.3-1.2c0.9-5.2-2.6-9.2-8.5-9.7c1-4.1-1.8-5.7-4.8-5.8
	c-6.4-0.2-12.7,0.5-18.5,3.8l-8.4,0.2c-3.2,0.4-6.6,0.4-9.7,1.2c-1.8,0.4-3.4,2-5,3l-3.4-0.1c0-4.2,0-8.5-0.2-12.7
	c0-0.4-2.3-0.6-3.6-0.9l5.9-9l1.1-0.3c0.9,1.3,1.7,2.6,2.8,3.8c2.8,3,4,5.7-1,8.1l16.4-1.8c0.9,0.5,1.9,1.5,2.8,1.4
	c2.1-0.2,4.3-1.4,6.4-1.2c8.6,0.7,17.7,0.1,25.1,6.3l0.7-1.1L301.7,23L301.7,23z"/>
<path class="st28" d="M251.6,12.8l-5.9,9l-9.1,8c-0.3,0-0.6,0-0.8,0.1l-5.5-0.2c0.4-8.9,9.4-8.9,14.1-13.3
	C246.3,14.8,249.1,14,251.6,12.8L251.6,12.8z M228.2,31l-2,2.2L228.2,31z M226,34.1l-1.2,0.9l0.4-1.6L226,34.1L226,34.1z"/>
<path class="st3" d="M380.3,53.2l-1.5,4l-6.2-6.1c0.6-2.1,1.4-3.9,3.8-1.4C377.6,50.9,379,52,380.3,53.2L380.3,53.2z"/>
<path class="st13" d="M63.9,450.3l3.7-2.6l0.7,0.7l-1.5,4l-5,7.1l-8.7-0.6l5.4-5.4c0,0,0,0,0,0L63.9,450.3L63.9,450.3z"/>
<path class="st1" d="M251.5,266.9l-6.9-4.3L230,251.7l-1.5-1l0,0l-1.2-1l-3.1-2.2l-3.1-2.2l-1.2-0.9l-17.9-16c0,0,0,0,0,0l-1-2.9
	l1.9-0.1l4.2,0l8.2,1.2c3.1,0.6,6.1,1.8,9.1,1.9c8.3,0.2,9.2-0.8,7-8.7c-1.1-4.1-2-7.5,4.3-7.5c-1.9-4.3-5.1-7.7-3-13.6l13.2,18.3
	c-5.8,12.2-5.5,24.2,2.8,35.9c2.6,3.6,4.1,7.9,6.2,11.9L251.5,266.9L251.5,266.9z"/>
<path class="st3" d="M293,244.6l0.4,1l0.1,3.2l-0.1,2l-1.6,5.6l-3.9-1.2c-4.3-5.3-10.1-6.5-16.4-5.1c-1.5,0.3-3.4,2.7-3.5,4.3
	c-0.5,4.1,7.3,14.1,11.5,15.6l2.1,1.1c-7.4,1.5-14.9,6.2-22.3,0.1l0-1.2c1.4-1.4,3.9-2.8,3.9-4.1c-0.2-4.4-0.6-9.1-2.1-13.2
	c-2.9-8-8.2-15.6-3.2-24.6c0.4-0.8-0.4-2.3-0.6-3.5l3.3,2c0.8,1.7,1.7,3.4,2.5,5.1c1.8,4.2,4.5,5.7,8.6,2.9l-0.8-5.7l1.3-0.2
	l7.6,5.3l-2.3,1l-2.5,0.2l-0.2,0.8l7.6,3l-3.1,8.7l1.3,0.7c1.5-1.1,3.1-2.2,4.4-3.4C287.5,242.4,290.2,241.6,293,244.6L293,244.6z"
	/>
<path class="st24" d="M224.3,247.6l3.1,2.2l1.2,1l0,0l1.5,1l14.7,10.9c-0.5,0.1-1.1,0.5-1.6,0.4l-40.4-15.4c-7.2-3-14-7-21-10.5
	l3.1-8.5c1.8-4.5,5-7.9,9.6-9.7l7.7,9.5c0,0,0,0,0,0c0.3,1.1,0.3,2.5,1,3.2c3.4,3.5,6.8,7,10.5,10c1.7,1.4,4.3,1.9,6.4,2.8l1.2,0.9
	L224.3,247.6L224.3,247.6z"/>
<path class="st12" d="M184.9,269.2c25.1,4,45.5,16.6,63.3,34.1C227.7,290.9,207.7,277.5,184.9,269.2L184.9,269.2z"/>
<path class="st13" d="M287.8,255.1l3.9,1.2l-0.2,3l-0.4,1.4l0.1,3.8c-1.5,4.8-5,6.6-9.8,6.4l-2.1-1.1l-7.3-16.7c0.3,0,1-0.2,1.2,0
	c3.5,4,7.4,4.7,12,2C285.9,254.8,286.9,255.1,287.8,255.1L287.8,255.1z"/>
<path class="st14" d="M166.8,258l-6.5-2.4l4.5-10.1l11.2,5.5l2,1.6l-6.8,4.5l-0.2,1.4l-3.9,0.1L166.8,258L166.8,258z M166.7,245.4
	l1.3-5.4c0.4-2.5,0.5-5,0.7-7.5l7.4-0.5l0.1-0.2l1.1,1.4l2.4,2.5l0,1.4l-0.1-0.2l-1.2,4.1l-5.2-5.1l-1.3,0.9l2.1,9.7L166.7,245.4
	L166.7,245.4z"/>
<path class="st12" d="M166.7,245.4l7.3,1.1l-2.1-9.7l1.3-0.9l5.2,5.1l-2.5,10l-11.2-5.5L166.7,245.4L166.7,245.4z"/>
<path class="st27" d="M179.8,235.6l-2.4-2.5l-1.1-1.4l-0.1,0.2l-1.4-11.5l1.4-0.8c1.2,1.6,2.2,3.3,3.6,4.7c1.5,1.6,3.4,2.8,5.1,4.2
	l-3.1,8.5l-2.1-0.2c0,0.1,0.1,0.1,0.1,0.2L179.8,235.6L179.8,235.6z"/>
<path class="st13" d="M259.2,269.9l0,1.2l-7.6-4.2l3.5-2.3l5.2-0.1L259.2,269.9L259.2,269.9z"/>
<path class="st12" d="M170.9,258.5l0.2-1.4l3.5,0.5l0,1.2L170.9,258.5L170.9,258.5z M251.7,306.1l-2-1.1l0.6-0.7l1.6,1.7
	C251.8,305.9,251.7,306.1,251.7,306.1L251.7,306.1z"/>
<path class="st15" d="M361.1,432.2c-3.9-6.4-9.2-10.1-17-9.5l-3-2.4l7.5-0.8l2.6-2.2l-2.3-13.5l-0.6-9.6l6.8,7.3l1.3-8.4l1.8,10.4
	l2,11.8l1.1,10.5l0.1,6.4L361.1,432.2L361.1,432.2z M358.5,423c0.1-7.5-2.2-12.3-6.8-14.1C352.8,414.2,351.8,420.4,358.5,423z"/>
<path class="st0" d="M342,257.2c4.7,4.2,10,8.1,14.1,12.8c8.1,9.3,15.7,19.1,23.4,28.8c0.4,0.5,0.4,1.3,0.6,2l-0.1,0.1
	c-2.6-2-5.5-3.7-7.6-6.2l-30-35.4C342.1,258.7,342.1,257.9,342,257.2L342,257.2L342,257.2z"/>
<path class="st14" d="M360.1,415.4l-2-11.8l11.9,8.2l-1.1-8.2l2.7,0.1l1.2,0l-1.1,13.7c-1.1,1.2-2.3,2.2-3.2,3.5
	c-0.9,1.2-1.4,2.7-2.1,4L360.1,415.4L360.1,415.4z"/>
<path class="st0" d="M367.5,317.8c-4.8-2.7-5-13-0.3-16.3l4.5,13.3c1.2,3.8,2.1,7.7,3.1,11.6l-10-5.2l2.6-3.4l0.7-0.5l-0.7-0.2
	L367.5,317.8L367.5,317.8z"/>
<path class="st25" d="M356.4,393.2l-1.3,8.4l-6.8-7.3l-1.1-1.2l-1.2-3.2l5.4,1.5c2.3-3.3,0.3-5.8-1-8.6c-0.7-1.6,0-3.8,0-5.8
	c0.3,0,0.7,0.1,1,0.1l1.1,1.1L356.4,393.2L356.4,393.2z"/>
<path class="st12" d="M371.6,403.7l-2.7-0.1l-1.3-16.8l1.4-0.1L371.6,403.7L371.6,403.7z"/>
<path class="st0" d="M338.8,253c-3.5-0.8-5-2.7-3.7-6.3l1.6,0l-0.1,0l1.1,1.1l0,0l1.1,1.1l0,0l1.1,3.2L338.8,253L338.8,253
	L338.8,253z"/>
<path class="st14" d="M384.4,327.6l-2.2-3.7l1.1-0.9l2.6,3.4L384.4,327.6L384.4,327.6z"/>
<path class="st0" d="M376.1,329.3l-1.4-3.1L376.1,329.3z"/>
<path class="st14" d="M385.9,332.4l1.2,2.7L385.9,332.4z"/>
<path class="st12" d="M339.9,251.9l-1.1-3.2L339.9,251.9z"/>
<path class="st0" d="M340.9,255l1.1,2.1c0,0-0.1,0.1-0.1,0.1L340.9,255L340.9,255z"/>
<g>
	<path class="st12" d="M327.4,247.3l0.3,2l-1-1.4L327.4,247.3L327.4,247.3z M332.5,242.2l1.1,1l-0.5,0.5l-1.1-1.1L332.5,242.2
		L332.5,242.2z"/>
	<path class="st12" d="M333.6,243.3l0.6,0.7l-1.1-0.2L333.6,243.3L333.6,243.3z"/>
</g>
<path class="st0" d="M380.2,300.7l0.4,0.5L380.2,300.7L380.2,300.7L380.2,300.7z M367.1,301.7l1.3-1.1L367.1,301.7z M368.3,300.7
	l1.2-0.8L368.3,300.7z"/>
<g>
	<path class="st12" d="M336.7,246.6l-1.6,0L336.7,246.6z"/>
	<path class="st12" d="M337.7,247.7l-1.1-1.1L337.7,247.7z"/>
	<path class="st12" d="M338.8,248.8l-1.1-1.1L338.8,248.8z"/>
</g>
<g>
	<path class="st0" d="M374.5,338.3l0.4-1.5L374.5,338.3z M339.8,254.1l-1-1.1l0,0L339.8,254.1C339.9,254,339.8,254.1,339.8,254.1
		L339.8,254.1z"/>
	<path class="st0" d="M340.8,255.1l-1-1.1c0,0,0.1-0.1,0.1-0.1L340.8,255.1C340.9,255,340.8,255.1,340.8,255.1L340.8,255.1z"/>
</g>
<path class="st12" d="M330.2,240.7c-0.1,0.1-0.3,0.3-0.4,0.2c-0.1,0-0.2-0.2-0.3-0.3c0.1-0.1,0.3-0.3,0.4-0.2
	C330,240.4,330.1,240.6,330.2,240.7L330.2,240.7z M332.1,242.7l-0.3-1.1l0.7,0.6L332.1,242.7L332.1,242.7z"/>
<path class="st0" d="M254,423.3l-7.3-1.4l-0.7-1.3l0.3-5.2l4.2-12.4c0.8-2.5,1.4-5.1,2.4-7.5c0.5-1.1,1.9-2.6,2.9-2.5
	c1,0,2.2,1.5,2.9,2.6c0.7,1.2,0.9,2.6,1.3,4l5.7,21.5l-7,2.5l-3.5,0.1L254,423.3L254,423.3z"/>
<g>
	<path class="st25" d="M246.4,415.4l-0.3,5.2l-4.9-3.2L246.4,415.4L246.4,415.4z"/>
	<path class="st25" d="M241.2,417.5l-3.2-3.2L241.2,417.5z"/>
</g>
<path class="st4" d="M348.5,419.6l-7.5,0.8l-2.2-0.4c-4-1.2-3.8-3.7-2.2-6.8l1.2-1.2L348.5,419.6L348.5,419.6z"/>
<g>
	<path class="st23" d="M338.8,419.9l2.2,0.4l3,2.4l1.2,3.1l-0.1,0.1L338.8,419.9L338.8,419.9z M349.7,430.8l-0.3,0.2l-0.3-0.5
		c0.1,0,0.3-0.1,0.4,0C349.6,430.5,349.7,430.6,349.7,430.8L349.7,430.8z"/>
	<path class="st23" d="M345.2,425.9l1.1,1.1l-0.1,0.1L345.2,425.9C345.1,426,345.2,425.9,345.2,425.9L345.2,425.9z"/>
	<path class="st23" d="M346.2,427l0.4,0.5L346.2,427C346.2,427.1,346.2,427,346.2,427L346.2,427z M297.4,388.7l9.6,10.8l0.1,31.7
		c0.1,4.5,0.7,9.1,1,13.6c0.3,4.3-1.8,5.7-6.1,5.7c-4.5,0.1-4.7-2.2-4.6-5.6l0-37c0-4.4-0.8-8.7-0.9-13.1
		C296.3,392.8,297,390.7,297.4,388.7L297.4,388.7z"/>
</g>
<path class="st14" d="M161.6,262.7l-0.1-1.2l1.7,1.2L161.6,262.7L161.6,262.7z"/>
<path class="st12" d="M347.2,393.1l1.1,1.2l0.6,9.6l-5.9-4.7l1.2-6.3L347.2,393.1L347.2,393.1z"/>
<path class="st25" d="M344,389.9c-4.8,0.8-7.4-1.4-6.2-5.4L344,389.9z"/>
<path class="st27" d="M293.4,250.8l0.1-2L293.4,250.8z"/>
<path class="st3" d="M291.1,260.7l0.4-1.4L291.1,260.7z"/>
<path class="st4" d="M343,399.2l5.9,4.7l2.3,13.5l-12-7.4l-0.1-1.7c0,0-0.1-0.1-0.1-0.1l1.1-1.9l1-3.5L343,399.2L343,399.2z"/>
<path class="st15" d="M340.1,406.2l-1.1,1.9L340.1,406.2z"/>
<path class="st12" d="M339.2,410l12,7.4l-2.6,2.2l-10.8-7.6L339.2,410L339.2,410z"/>
<path class="st2" d="M75.6,399.5l-2.2-0.1l-6.8,1.8l-1.4,0.5c0,0,0,0,0,0l-3-4.1c6.4-3.4,12.6-7.8,20.7-4.6l-0.1-0.1l3.6,3.8
	l-3.5,2.8l-1,0.1L75.6,399.5L75.6,399.5z"/>
<path class="st1" d="M55.4,446.1l-2,0l2-20.5l7.9-2.1c1,2.4-4.1,5.8,1.2,7.5L55.4,446.1L55.4,446.1z"/>
<path class="st10" d="M68,370.1c6.6-3.8,13.8-4.6,21.3-4.1l0,3.4l-5.4,0l-13.1,0.7l-0.2,1.8l16.6,6.3l-1.2,2.4l-6.2-2.4l-10-3.5
	C67.5,373.8,66.1,372.7,68,370.1L68,370.1z"/>
<path class="st2" d="M79.9,378.1l6.2,2.4l0,1.9l-5.4,3.6l-8.3,2.8l3.5-4.9L79.9,378.1L79.9,378.1z"/>
<path class="st10" d="M63.3,423.5l-7.9,2.1c-0.7-1.3-2.3-3.3-2-3.8c1.7-2.5,4.1-4.5,6.2-6.7l0,1.3l-3.2,4.4l0.5,1l13-3.8
	c0.1,0.2,0.1,0.4,0.3,0.6L63.3,423.5L63.3,423.5z"/>
<g>
	<path class="st22" d="M61.2,413.6l3.1-2.2l1,1l-3.2,2.1L61.2,413.6L61.2,413.6z"/>
	<path class="st22" d="M59.7,416.3l0-1.3l1.6-1.5l0.9,1C62.1,414.6,59.7,416.3,59.7,416.3z M122.3,330.4l1.2,0.1l-1.3,6.2l-0.8,1.3
		l0.5,0.3l0.4-1.4l2.8-0.5l-1.6,10.4l-2.4,2.8l0,0l-5.2-5.4l-10.7-11.2c2.7-4-2.5-4.3-3.1-6.7l1.1-1.1c0.2,0,0.3,0.1,0.5,0.1
		l0.5-0.1l0,0c3.3,4.5,5.5,5.9,8.7,5.3l5.2,2.2v6.3l0.8,0.1L122.3,330.4L122.3,330.4z"/>
</g>
<path class="st10" d="M105.3,332.9l10.7,11.2l-7.4-1l-6.5-5.3l4.9,0.8l0.4-2l-12.9-2.8l-0.5,1.7l4.2,2.9l6.8,5.5l-3.9,1.3
	l-10.4-11.1C94.8,329.1,100.3,332.6,105.3,332.9L105.3,332.9z"/>
<path class="st21" d="M101,345.3l3.9-1.3l1.4,0.8l1.1,1.5l0.1,1.1l0.9,1.1l4.5,6.2l-3.5,2.3l-7.5-1.9l-5.3-0.4
	c3.5-1.5,1.8-3.3,0.2-5.1c0-0.3-0.1-0.7-0.1-1L101,345.3L101,345.3z"/>
<path class="st22" d="M89.4,369.4l0-3.4l4.3-1l-0.7-5l9.3,2.1l-2.8,7.4c-0.5,1.5-0.7,3.1-1.1,5l-2.8-1.7L89.4,369.4L89.4,369.4z"/>
<g>
	<path class="st19" d="M102.2,362.2l-9.3-2.1l-11.7-9.8l1.2-1.2c3.1,1.9,6,4,9.3,5.6c1.4,0.6,3.3,0.1,5,0l5.3,0.4l0.4,6.9
		L102.2,362.2L102.2,362.2z"/>
	<path class="st19" d="M96.8,348.6c0,0.3,0,0.7,0.1,1c-1.4,0-2.8,0.3-4.2,0l-9.5-2.3c-0.1,0-0.5,1.2-0.8,1.8l-1.2,1.2l-3.2-2.5
		C82.3,343.8,91.6,344.3,96.8,348.6L96.8,348.6z M103.3,325.1l-1.1,1.1l-3.1-4c2-1.2,4-2.2,4.1,1.6
		C103.2,323.8,103.3,325.1,103.3,325.1z"/>
</g>
<path class="st1" d="M73.5,324l0.5-0.4L73.5,324L73.5,324L73.5,324z"/>
<path class="st21" d="M120.2,303.4c2.3,3.7,5.5,7.3,6.4,11.3c0.6,2.7-2,6.2-3.1,9.4l-1.2,2.1l0,0c-0.4-0.9-1.2-1.8-1.1-2.6
	c0.1-1.7,0.7-3.4,1.1-5.1l-0.9-0.3l-2.3,2.6l-5.5-4.6l4.4-14.6l1.3-1.4L120.2,303.4L120.2,303.4z"/>
<path class="st20" d="M135,261.5l5.3,0.6c1.7,5.3-4.4,7-5.8,11l-8.9,10.7l0-6.7l3.7-8.1c1.2-2.4,2.4-4.8,3.8-7
	C133.2,261.5,134.3,261.6,135,261.5L135,261.5z"/>
<path class="st19" d="M113.7,316.3l5.5,4.6l-1,11.7l-5.2-2.2l-3.4-3.7l2.4-0.9l-0.2-1.3l-7.5,0.5l0,0l-1.2-1.5l2.7-2.4l8,0.3
	l-5.2-8.5l0.9-0.7L113.7,316.3L113.7,316.3z"/>
<path class="st10" d="M127.3,295.4l-1.8,0l0.6-5.1L125,290l-5.8,6.4l2.9-10.7l3.4,0l3.3,1.1l0.9,4.3l0-0.1l-1.1,2.2l0-0.1
	L127.3,295.4L127.3,295.4z"/>
<path class="st20" d="M119.2,296.4l5.8-6.4l1.1,0.3l-0.6,5.1l-5.3,8l-0.8-3.2l-1.3,1.4L119.2,296.4L119.2,296.4z"/>
<path class="st21" d="M125.5,285.8l-3.4,0l3.4-8.7l0,6.7l0.1-0.1l-0.5,0.2l0.3,0.6L125.5,285.8L125.5,285.8z"/>
<path class="st22" d="M113.8,321.5l-8-0.3L113.8,321.5z"/>
<path class="st1" d="M103.1,323.6l1.2,1.5l-0.5,0.1l-0.5-0.1l-0.1-1.3C103.2,323.7,103.1,323.6,103.1,323.6L103.1,323.6z"/>
<path class="st10" d="M55.4,446.1l9.1-15.1l2.5-1l1.4,0.2c-0.9,1.6-1.6,3.3-2.7,4.8l-6.1,7.8C58.5,444.2,56.8,445,55.4,446.1z
	 M63.9,450.3l-5.3,3.2l4.2-5.5L63.9,450.3L63.9,450.3z"/>
<g>
	<path class="st22" d="M71.4,433.3l-0.1,2.1l-2.4,1.3l-0.6-0.9L71.4,433.3L71.4,433.3z"/>
	<path class="st22" d="M73.5,430.1l-2.2,3.3L73.5,430.1z"/>
	<path class="st22" d="M74.6,429.1l-1.1,1.1l0.1-1.1l-0.1,0.1C73.4,429.2,74.6,429.1,74.6,429.1z"/>
</g>
<path class="st9" d="M184.8,228.6c-1.7-1.4-3.5-2.7-5.1-4.2c-1.4-1.4-2.4-3.1-3.6-4.7l-1.4,0.8l1.4,11.5l-7.5,0.5l-6,0.6l3.1-7.6
	l6.3-12.9l7.7-3.5l2.8-0.1l1.3-0.4l2.8-0.7l4.6,0.4l3.3,8.7l-0.1,1.9C189.8,220.7,186.7,224,184.8,228.6L184.8,228.6z"/>
<path class="st1" d="M87.3,378.2l-16.6-6.3l0.2-1.8l13.1-0.7l4.5,3l-8.7-0.8l-0.1,0.7l13.3,3.7l-4.5,2.3L87.3,378.2L87.3,378.2z"/>
<path class="st11" d="M129.7,291.2l-0.9-4.3l7.3-12.3c1.9-0.4,4.2-0.6,2.7,2.3C136.1,281.8,132.8,286.4,129.7,291.2L129.7,291.2z"/>
<path class="st3" d="M118.1,332.6l1-11.7l2.3-2.6l0.9,0.3c-0.4,1.7-1,3.4-1.1,5.1c-0.1,0.8,0.7,1.7,1.1,2.6l0,4.2l-3.4,8.6l-0.8-0.1
	L118.1,332.6L118.1,332.6z"/>
<path class="st22" d="M109.5,357l3.5-2.3c0.3,0,0.6,0.1,0.8,0.2v15.4l-2,0.3l-2.1-9.3L109.5,357L109.5,357z"/>
<path class="st15" d="M136.1,274.5l-7.3,12.3l-3.3-1.1l-0.1-1.3c0-0.3,0.1-0.5,0.1-0.8l-0.1,0.1l8.9-10.7L136.1,274.5z"/>
<path class="st21" d="M87.3,378.2l1.2,0.2l4.2,1.8c0,0,0,0,0,0l-0.3,7c-4.7,1.1-5.2-2.1-6.2-4.8l0-1.9L87.3,378.2L87.3,378.2z"/>
<path class="st3" d="M109.5,357l0.3,4.3l-7.4,0.7l-0.4-6.9L109.5,357z M113.8,354.9c-0.3-0.1-0.6-0.2-0.8-0.2l-4.5-6.2l0-1.1
	c4-2.7,5.4,1.4,7.5,3.1C116.3,350.7,114.6,353.4,113.8,354.9L113.8,354.9z M132.1,298.8l-3.6,10.9
	C125.3,304.4,125.7,302.6,132.1,298.8z"/>
<path class="st13" d="M105.3,379.4l-4.2,2.2l-4.2-0.3l-4.2-1.2l0,0C96.7,376.9,100.9,377.1,105.3,379.4L105.3,379.4z"/>
<path class="st3" d="M122.2,336.7l1.3-6.2l2.5-4.3l1.5,0.5l-2.3,9.7l-2.8,0.5L122.2,336.7L122.2,336.7z"/>
<path class="st11" d="M88.5,372.5l-4.5-3l5.4,0l6.2,3.5L88.5,372.5L88.5,372.5z"/>
<path class="st1" d="M106.4,344.8L105,344l-6.8-5.5l1-0.8l3.1,0.2l-0.1-0.1l6.5,5.3l-1.1,2.3L106.4,344.8L106.4,344.8z"/>
<path class="st22" d="M121.2,349.5l1.2,5.2l-1.9,0.3L121.2,349.5L121.2,349.5L121.2,349.5z M107.6,366.5v-2l0.5-0.1l0.4,2.1
	L107.6,366.5L107.6,366.5z"/>
<path class="st10" d="M149.9,245.5l1.6,1.3l-0.3,0.3L149.9,245.5L149.9,245.5z"/>
<path class="st3" d="M122.3,326.2l1.2-2.1L122.3,326.2z"/>
<path class="st11" d="M127.3,295.4l1.4-2.2L127.3,295.4z"/>
<path class="st10" d="M156,241.3l-0.3,0.4c-0.1-0.1-0.2-0.3-0.2-0.4c0-0.1,0.2-0.2,0.3-0.4L156,241.3L156,241.3z"/>
<path class="st11" d="M128.7,293.3l1.1-2.2L128.7,293.3z"/>
<path class="st10" d="M108.5,347.4l0,1.1l-0.9-1.1L108.5,347.4L108.5,347.4z M106.4,344.8l1,0.7l0,0.8L106.4,344.8L106.4,344.8z"/>
<path class="st5" d="M156.3,179.7l0.2-15.3c0-1,1.2-1.9,1.9-2.8C160,168,160.6,174.2,156.3,179.7z M158.4,159.6l-2.1-2.1
	L158.4,159.6z"/>
<path class="st1" d="M191.3,174.3c3.7-7.2,10.4-6.2,16.7-6.3l0.5,4.3l-4.9,17.9c-1-0.1-2.4,0.1-2.9-0.4c-1.6-1.8-2.8-3.9-4.2-5.9
	l0,0l0-1.1l0-2.1l5.2,2.2l0.5,0.4l-0.4-0.5l2-4.4l-8.2-2.3l-0.4,3.7L191.3,174.3L191.3,174.3z"/>
<path class="st15" d="M196.6,183.9c1.4,2,2.6,4.1,4.2,5.9c0.5,0.6,1.9,0.3,2.9,0.4c-0.3,1.5-0.4,3.2-1.1,4.5c-1.1,1.9-2.6,3.6-4,5.3
	c-2.4,2.8-4.8,5.5-7.2,8.2l-4.6-0.4c9.9-5,10.7-13.9,9.8-23.4C196.5,184.3,196.6,184.1,196.6,183.9L196.6,183.9z"/>
<path class="st26" d="M201.8,183l-5.2-2.2l-1.3-0.9l0.4-3.7l8.2,2.3l-2,4.4L201.8,183L201.8,183z"/>
<path class="st15" d="M183.9,208.5l-1.3,0.4L183.9,208.5z M196.6,182.9l0,1.1L196.6,182.9z"/>
<path class="st17" d="M177,145.2l1.1-0.8l18.6-14.4l7.2-4.7c-0.1,2.1,0.6,5.4-0.4,6.2c-3.4,2.5-2.5,5.8-2.7,8.9l-13,4.7l-4.9,12.4
	l-5.3,6.2l-5.7-13.8l2.8-2.8L177,145.2L177,145.2z"/>
<path class="st13" d="M177.6,163.8l5.3-6.2l4.1-0.1l-9.3,8.6L177.6,163.8L177.6,163.8z"/>
<path class="st1" d="M200.8,140.4c0.2-3.1-0.7-6.4,2.7-8.9c1.1-0.8,0.3-4.1,0.4-6.2l0.6-1.4l1.1-0.9l2.6-0.7l2.1,12.6l-8.7,5.5
	L200.8,140.4L200.8,140.4L200.8,140.4z"/>
<path class="st23" d="M254,423.3l1.2,0.2L254,423.3z"/>
<path class="st22" d="M92.7,380.2l4.2,1.2l2,9.7l-2,2l-7.5-2.7l-8.6-4.3l5.4-3.6c1,2.6,1.4,5.8,6.2,4.8L92.7,380.2L92.7,380.2z"/>
<path class="st21" d="M98.8,391l-2-9.7l4.2,0.3l6.4,3.5l-1,2.5l-2.1,4.3l-5.3,0.1L98.8,391z"/>
<g>
	<path class="st10" d="M83,408.9l-0.3,3.8c-4.8-1.5-5.9-5-6-9.1l5.3,2.1l0,0L83,408.9L83,408.9z"/>
	<path class="st10" d="M82,405.8l0.1-2.3l1.1,0.4L82,405.8L82,405.8L82,405.8z M98.8,391l0.1,1.1l-2.1,0.9L98.8,391z"/>
</g>
<path class="st2" d="M83,393c0.1-0.1,0.2-0.2,0.4-0.3c0.1,0,0.2,0,0.3,0L83,393C82.9,392.9,83,393,83,393L83,393z"/>
<path class="st10" d="M82,399.6l1-0.1L82,399.6z"/>
<path class="st2" d="M59.7,416.3l2.4-1.7l3.2-2.1c2.7-0.3,4.4-5.5,8.5-1.4l-8.6,4.3l0.4,0.9l9.2-2.9l0.9,1.3l-5.6,3.1l-13,3.8
	l-0.5-1L59.7,416.3L59.7,416.3z"/>
<path class="st21" d="M67.1,430.1l-2.5,1c-5.3-1.7-0.2-5.1-1.2-7.5l7-5l6.7,2C70.9,422.5,67.9,425.4,67.1,430.1L67.1,430.1z"/>
<path class="st2" d="M74.6,429.1l-1.1,0.1c-0.4-4,1-6.2,5.4-5.4l-2.2,4.3c0,0,0,0,0.1-0.1L74.6,429.1L74.6,429.1z"/>
<path class="st10" d="M66.7,401.2l6.8-1.8L66.7,401.2z M80.9,420.5l0.4-1.2l0.6,1.3l-0.1,0.1L80.9,420.5z"/>
<g>
	<path class="st2" d="M80.9,420.5l1,0.2c0.1,0.3,0.1,0.6,0,0.9l-0.5,0.1l-0.5,0L80.9,420.5z M79.9,422.7l-1.1,1.1L79.9,422.7z"/>
	<path class="st2" d="M80.9,421.7l-1.1,1.1L80.9,421.7z"/>
</g>
<path class="st13" d="M67.7,447.7l1.1-2l1,1l-1.4,1.7L67.7,447.7L67.7,447.7z"/>
<path class="st21" d="M110.6,387.8l-2.2,0L110.6,387.8z"/>
<path class="st22" d="M74.5,429.1l2.2-1.1L74.5,429.1z"/>
<path class="st1" d="M279.5,233.8l-7.6-5.3l-0.1-4.2c4.4,2.2,8.9,4,13.8,1l-7.4-12.8l-1.3-4.7c-3,0.2-5.4,0.2-7.8,0.5
	c-2.5,0.3-4.9,0.8-2.6,4.2l5.2,11.7l-5.4-1l0,0c-0.4-1.8-0.5-3.8-1.4-5.3c-4-6.8-9.1-13-12.1-20.2c-2.1-5.1-1.6-11.3-2.2-17
	c0.3-3.2,0.4-6.1,5.3-4.6c3.7,1.2,3.9-2.3,3.7-4.6c-0.1-1.7-1.4-3.5-2.5-5.1c-3.9-5.5-3-16,1.5-21c5.6-6.2,10.9-12.6,16.4-19l3.2,0
	c0.9-0.4,1.9-0.6,2.6-1.1c0.7-0.5,1.2-1.3,1.8-2c1.5,0,3.1,0.4,4.6,0.1c9.7-2.1,17.7,1.2,25,7.3l-1.2,3c-0.3,0-0.7,0.1-1,0.2
	c-7.5-4.1-15.3-5.7-23.5-2.1l-2.8,1.6l2.8,1.7l0.1,0.1c0.6,3.7,2.5,6.1,6.6,6.1l2.3,1.6l5.2,1.8c-0.5,1-0.7,2.4-1.5,2.8
	c-1.1,0.6-2.6,0.4-4,0.5c0.2,0.2,0.3,0.5,0.5,0.7c0.1,0.1,0.3,0.1,0.5,0.1l-0.1,3.1l-2,0.2c-3.1-2.1-6-1.7-7.2,1.7
	c-1.3,3.9,2.3,3.5,4.5,3.8c2.6,0.4,5.3,1,7.8,0.5c3-0.6,7.1-0.3,7.7-5l4.3-6.4l7.3-1.1c3.6,2.1,4.5,5.2,4.5,9.3
	c0,3.9-0.1,8.3,3.4,11.4c0.7-4,0.4-7.8,0.8-11.7c0.4-4.1-0.7-7.1-4.4-9.1l8.4-2c-2.1,15.3-0.5,30.5,1.3,45.7l-5.4,3.1
	c-6.8-7.5-11.6,0.7-17.3,1.8l1.1,1.1l-4.2,6.7l-16.8-4.4l0.1,0l-11.6-4.4c-0.3-0.8-1-2.2-0.8-2.3c2.7-1.8,5.5-3.4,8.3-5.1l0.4,0.2
	l-0.4-0.2c-1.1-0.5-2.7-1.8-3.2-1.4c-2.8,2-5.5,4.2-7.8,6.7c-0.8,0.8-0.4,2.7-0.5,4.1l4.5-0.3l1.8,0.4l2.9,4.5l9.1,16.2l-2.5,2.7
	c-0.4,5.2,1.4,10.8-3.2,15.1L279.5,233.8L279.5,233.8z M314.9,180.9c-1.6-0.2-3.9-1.1-4.8-0.4c-3.7,3.1-5.8,1.2-8.3-2.2
	c0,4.1,2.3,5.4,5.2,5.6c2.7,0.1,5.4-0.2,8.2-0.4l-0.1-2.3l12.2,5.2c-0.5-2.3-0.7-5-1.2-5.1C322.3,180.9,318.6,181,314.9,180.9
	L314.9,180.9z M282.5,160.6c-0.4-6.6-4.6-10.6-9.7-13.9c-1.3-0.9-3.7-1.5-4.8-0.8c-1.2,0.7-2.1,3-2.1,4.5c0,3.5,0.5,6.9,0.9,10.4
	c1.1,10.2,3.5,12.4,12.3,11.5c3.9-0.4,6.3-2,5.4-6.4L282.5,160.6L282.5,160.6z M304.8,165.9l-1.4-1.1c-4.6,3.8-8.5,8-8.7,14.9
	L304.8,165.9L304.8,165.9z M303.2,176.1h13.7C312.7,174,308.5,169.3,303.2,176.1z"/>
<path class="st15" d="M270.7,228.7l0.8,5.7c-4.2,2.9-6.8,1.4-8.6-2.9l-2.5-5.1c-3.9-5.1-7.6-10.4-11.7-15.3
	c-8.3-10-16.9-19.7-20.9-32.5l3.8,0l4.1,7.7l8.5,12.7c3.2,3.9,6.2,8,9.6,11.7c4,4.4,8.5,8.4,12.7,12.6c0,0,0,0,0,0L270.7,228.7
	L270.7,228.7z"/>
<path class="st20" d="M275.1,126.7l-16.4,19c-4.5,5-5.4,15.4-1.5,21c1.1,1.5,2.4,3.3,2.5,5.1c0.2,2.2,0,5.7-3.7,4.6
	c-4.8-1.5-4.9,1.4-5.3,4.6c-0.5-1.7-2-4.4-1.4-4.9c4.9-4.3,3.8-9.4,2.6-14.6c-1.6-6.9-0.7-12.8,4.9-18.1c4.9-4.6,8.9-10.3,13.5-15.2
	C271.2,127,273.5,127.1,275.1,126.7L275.1,126.7z M282.7,123.5c-0.6,0.7-1.1,1.5-1.8,2c-0.8,0.5-1.7,0.8-2.6,1.1
	c-0.4-2-0.3-4.4-1.3-6c-3.5-5.4-7.5-10.2-8.8-16.9c-1.4-7.8,2.4-14.2,4.5-20.9c0.4-1.2,4.3-1.2,6.6-1.8c-1.8,3.2-3.4,6.4-5.3,9.4
	c-5.6,8.9-0.3,23.6,9.7,26.9c1.7,0.5,3.2,1.5,4.7,2.3L282.7,123.5L282.7,123.5z"/>
<path class="st11" d="M240.1,103.3c1.6-0.7,3.3-1.2,4.8-2.1c1.4-0.9,2.5-2.1,3.7-3.2c2-1.9,3.8-4,6-5.6c0.6-0.4,2.4,0.9,3.6,1.5
	c-2.8,8.7-7.9,16.1-12.4,23.8l-1.8-0.6L240.1,103.3L240.1,103.3z"/>
<path class="st20" d="M284.7,77.8l-4.3,3.3l0.1-4.7C280.5,76.3,284.7,77.8,284.7,77.8z"/>
<path class="st10" d="M275.1,73.9l1-0.1l-0.5,0.1L275.1,73.9z"/>
<path class="st1" d="M187,157.5l-4.1,0.1l4.9-12.4l13-4.7c0,0,0.1,0,0.1,0.1l1.1,1l0,0l0,1.2l-1.2,2l-0.9,1.1l-1.1,1.1l-1.1,1.1
	c-6.1,0.4-9.2,2.8-9.5,7.5l0,0L187,157.5L187,157.5L187,157.5z"/>
<path class="st21" d="M208.5,172.4L208,168l4.5-12.7c0.3-0.8,0.7-1.5,1.1-2.2l-0.1,19.1l-3.2-1L208.5,172.4L208.5,172.4z"/>
<g>
	<path class="st13" d="M188.2,155.4c0.4-4.7,3.4-7.1,9.5-7.4L188.2,155.4z"/>
	<path class="st13" d="M187,157.4l1.1-2L187,157.4z M197.7,148l1.1-1.1L197.7,148z M198.7,146.9l1.1-1.1L198.7,146.9z M199.8,145.8
		l0.9-1.1L199.8,145.8z M201.9,142.7l0-1.2L201.9,142.7z"/>
	<path class="st13" d="M201.9,141.5l-1.1-1l0.8,0L201.9,141.5z"/>
</g>
<path class="st11" d="M203,225.4l-1.9,0.1c-2.2-2.1-5.2-3.8-3.7-7.6l8.8-8.4c8.6-1,12.9-9.1,9.1-17.1l-2.8,1.1l2.1-20.2l10.8-1l0,2
	c-0.7,1.2-2.1,2.4-2,3.4c1.8,10.3,1.3,20.4-1.3,30.5c-3.6,1.9-7.1,4.2-10.9,5.5C202.9,216.7,202.9,216.5,203,225.4L203,225.4z"/>
<path class="st15" d="M214.6,173.4l-2.1,20.2l-1.1,0l-1.1-22.3l3.2,1L214.6,173.4L214.6,173.4z"/>
<path class="st20" d="M222,208.3c2.7-10.1,3.1-20.2,1.3-30.5c-0.2-1,1.3-2.3,2-3.4l2.5,4.2c4,12.8,12.6,22.5,20.9,32.5
	c4.1,4.9,7.8,10.2,11.7,15.3l-3.3-2l-3.2-1.2l-5.8-3.1l1.5,15.8l7.3,18.4c1.3,3.3,2.2,6.8,3.3,10.2l-5.2,0.1c-2-4-3.6-8.3-6.2-11.9
	c-8.3-11.6-8.6-23.6-2.8-35.9l-13.2-18.3c-2.2,6,1.1,9.3,3,13.6c-6.3,0-5.4,3.4-4.3,7.5c2.1,7.8,1.3,8.9-7,8.7
	c-3.1-0.1-6.1-1.3-9.1-1.9c-2.7-0.5-5.4-0.8-8.2-1.2c-0.8-5.2,1.7-6.6,6.6-6.4C222.2,219.2,223.9,216.8,222,208.3L222,208.3z"/>
<path class="st21" d="M334.5,49.1l1.5-7.5c0.4-1.7,1-3.4,1.6-5.1l6.3,3.1l-0.9,2.3l2.2-4.4c1.1,0.3,2.5,1.3,3.4,0.9
	c4.5-1.7,6.7,1.4,9.4,3.8c0.8,0.8,2.1,1.1,3.1,1.6l-3.2,3.2c-2.4-1.5-4.6-3.3-7.1-4.3c-1.1-0.4-2.8,0.7-4.3,1.2c-0.1,0,0,0.6,0,1
	l3.6,0.7l0,0.8l-4.4,1.2l1.7,5.8l-0.2,2.1l-1.6,0l-2.4-2l-8.5-2.2L334.5,49.1L334.5,49.1z"/>
<path class="st22" d="M334.5,49.1l0,2.2c-1.2,0.3-2.6,0.3-3.7,0.8c-1.7,0.7-3.2,1.6-4.8,2.5l-2.1,0l-3.3,0l-5.3-3.2l0.1-2.3l3-2.6
	c4.1,5.3,7,0.6,9.8-1.5L334.5,49.1L334.5,49.1z"/>
<path class="st6" d="M345.4,55.6l1.6,0l2.4,5.3c0.4,0.9,0.6,2.2,1.3,2.7c4.8,3,2.9,6.1,1.1,8.7l-7.8-11.7c-0.5-0.8-0.6-1.9-1-2.8
	C343.1,57.8,345.4,55.6,345.4,55.6z"/>
<path class="st10" d="M345.4,55.6l-2.3,2.2l-0.1-4.3L345.4,55.6z"/>
<path class="st22" d="M347.3,53.4l-1.7-5.8l4.4-1.2l0-0.8l-3.6-0.7c0-0.3-0.1-0.9,0-1c1.4-0.5,3.2-1.6,4.3-1.2
	c2.5,1,4.8,2.8,7.1,4.3l7.5,9.5l-0.1,1.1l-5.2-0.1C358.1,54.2,352,52.3,347.3,53.4L347.3,53.4z"/>
<path class="st21" d="M365.3,57.7l0.1-1.1c5.8,0.1,8.4,4,10.6,8.5l-8.4-3.2L365.3,57.7L365.3,57.7z M383.3,65.1l-4.2-1l0.7-4.3
	L383.3,65.1L383.3,65.1z"/>
<path class="st9" d="M287.8,43.9l1.2,7.6l-5.8,1.3c-2.6,4.7-4.8,9.1-7.5,13.2c-2.1,3.1-4.6,2.8-7.5,0.2c-4.4-3.9-9.6-7-14-11
	c-1.3-1.2-1.4-3.9-1.6-6c-0.2-2.1,0.2-4.2,0.4-6.4c4-0.5,8.1-0.8,12.1-1.5c5.5-0.9,10.9,4,16.5,0.4l6.4,1L287.8,43.9z"/>
<path class="st19" d="M281.5,41.8c-5.6,3.6-11-1.3-16.5-0.4c-4,0.6-8.1,1-12.1,1.5l-1.1-2.1l4.2-4.2l12.7-0.1l8.4,2.3L281.5,41.8
	L281.5,41.8z M287.8,43.9l0-1.1c0.9,0,1.8-0.2,2.6,0c4.1,1.3,8.1,2.8,12.2,4.2l-4.2,2.1l-2.3,1.1L287.8,43.9L287.8,43.9z"/>
<path class="st22" d="M236.6,29.9l9.1-8c1.3,0.3,3.6,0.5,3.6,0.9c0.3,4.2,0.2,8.5,0.2,12.7L236.6,29.9L236.6,29.9z M268.8,36.4
	L256,36.5l-3.1-1c1.7-1,3.2-2.6,5-3c3.1-0.8,6.5-0.8,9.7-1.2L268.8,36.4L268.8,36.4z"/>
<path class="st12" d="M361.3,432.2l-0.1-6.4l5.7,1.1l3.6,4.4l0,1.8l-6.4,0.2L361.3,432.2L361.3,432.2z"/>
<path class="st6" d="M370.5,431.4l-3.6-4.4l-0.5-2.1c0.7-1.3,1.2-2.8,2.1-4c0.9-1.3,2.1-2.3,3.2-3.5L370.5,431.4z"/>
<path class="st3" d="M290,218.9l2.5-2.7l-9.1-16.2l0.3-0.3l2.1,0l0,0c0.9,4.4,2.1,8.6,7.4,9.6c1.2,1.7,2.2,3.7,3.7,4.9
	c0.4,0.3,2.6-1.4,4.7-2.6l-8.4-2.3l-2-4.4l3.6,0.2l16.2,3v6.9l-7.4,2.1l5.6,2.2l-6,0.9l7,3l0,0.9l-1.1,2.1l0,0l-2.1,1.1
	c-4.8,1.4-8.2,0.1-10.9-4.5C295,221.1,292.1,220.3,290,218.9L290,218.9z"/>
<path class="st8" d="M306.7,202.2l4.2-6.7l-1.1-1.1c5.7-1.2,10.5-9.3,17.3-1.8l-3.2,0.8c-0.7,1-1.8,1.9-2,3
	c-0.8,4.2-1.2,8.5-6.7,9.2l-2.9-0.2l-2.2-0.1l0,0L306.7,202.2L306.7,202.2z"/>
<path class="st0" d="M311,208.2l-16.2-3l-5.9-4.3l0.1,0.1l-2.3-3.1h3.2l-0.1,0c0.7,0.7,1.3,1.7,2.1,2c6,1.9,12.1,3.7,18.1,5.5l0,0
	l2.1,1.2L311,208.2L311,208.2z"/>
<path class="st3" d="M315.1,205.5c5.5-0.7,6-5,6.7-9.2c0.2-1.1,1.3-2,2-3c0.1,0.6,0,1.6,0.2,1.7c2.1,0.4,5.2,0.2,3.9,3.5
	c-1.2,3.1-1.3,7.8-6.4,7.8C319.5,206.3,317.3,205.8,315.1,205.5L315.1,205.5z"/>
<path class="st21" d="M312.1,206.5l-2.1-1.2l2.2,0.1L312.1,206.5z"/>
<path class="st8" d="M290,218.9c2.1,1.3,4.9,2.2,6,4.1c2.7,4.5,6.1,5.9,10.9,4.5c-0.2,8-12.3,11.3-20.1,6.5
	C291.4,229.7,289.7,224.1,290,218.9L290,218.9z"/>
<path class="st15" d="M293,244.6c-2.8-3-5.5-2.2-8.2,0.3c-1.4,1.3-2.9,2.3-4.4,3.4l-1.3-0.7l3.1-8.7l-7.6-3l0.2-0.8l2.5-0.2l16.2,5
	L293,244.6L293,244.6z"/>
<g>
	<path class="st8" d="M309,226.4l1.1-2.1L309,226.4z"/>
	<path class="st8" d="M306.9,227.5l2.1-1.1L306.9,227.5z"/>
</g>
<path class="st10" d="M302.6,47.1l-12.2-4.2c-0.8-0.3-1.7,0-2.6,0l-6.4-1l-4.3-3.2l15.9,0l14.8,4.2l3.3,1.2l2.2,2.1l2.1,3l-0.1,2.3
	C310.8,50.9,305.8,51.9,302.6,47.1L302.6,47.1z"/>
<path class="st20" d="M320.7,101.3c-0.6-1.4-0.8-3.4-1.9-4.3c-4-3.3-4.8-7.3-3.4-12c1.8,0.3,3.6,0.5,5.4,1c4.2,1.2,8.4,2.5,12.5,3.8
	l-10.3,2.8l4,2.3l1.1,8.5L320.7,101.3L320.7,101.3z"/>
<path class="st27" d="M320.7,54.6l3.3,0l-1.4,1.8L320.7,54.6z"/>
<path class="st11" d="M320.7,101.3l7.4,2l22.3,4.3l0,4.2l-28.7-6.3l-6.4-2.1l-7.3-2.3l-0.1-1.9l6.3,0.9L320.7,101.3L320.7,101.3z"/>
<path class="st8" d="M321.8,105.5l28.7,6.3l3.2,5.3l-32.9-5.3L321.8,105.5L321.8,105.5z"/>
<path class="st20" d="M350.4,126.7c-2.4-0.4-4.8-1.1-7.2-1.1c-2.4,0-5,0.1-7.2,1c-3.8,1.5-6.5,1.9-8.7-2.4c-1.7-3.3-4.3-6.2-6.5-9.2
	c8.5,2,17,3.7,25.3,6.1C347.9,121.6,349,124.8,350.4,126.7L350.4,126.7z"/>
<path class="st21" d="M301.7,23l4.1,5l-0.7,1.1c-7.5-6.2-16.5-5.6-25.1-6.3c-2.1-0.2-4.2,1-6.4,1.2c-0.9,0.1-1.9-0.9-2.8-1.4
	l1.7-3.8C281.7,20.4,292.6,15,301.7,23z"/>
<path class="st2" d="M307.9,20.5l-4.1,0c-4.7-1.8-9.2-4-14-5.1c-3.6-0.8-7.6-0.2-12.4-0.2c2.2-1.2,4-2.7,6-3
	c3.4-0.4,6.9-0.5,10.3,0.1c6.4,1.1,12.8,2.8,20,4.5C313.6,16.8,307.9,20.5,307.9,20.5z"/>
<path class="st18" d="M313.9,6.9l12.3,6.2l-1.1,2.2l-12-6.4C313.1,8.9,313.9,6.9,313.9,6.9z"/>
<path class="st13" d="M323.6,28l4.4,7.5l-1.3,0.8l-7.6-7.2l3.9-1.1L323.6,28L323.6,28z"/>
<path class="st22" d="M345.2,37.5l-2.2,4.4l0.9-2.3l-6.3-3.1c-0.6-1.7-2.4-3.7,1.2-4.2l3.2,3.1c0.3,0.1,0.7,0.1,1,0.2L345.2,37.5
	L345.2,37.5L345.2,37.5z"/>
<path class="st21" d="M342,35.4l-3.2-3.1l2.1,0L342,35.4L342,35.4z M345.2,37.5l-2.2-1.9L345.2,37.5z"/>
<path class="st11" d="M340.9,167l0,1.1l-1.9-0.5L340.9,167z"/>
<path class="st13" d="M331.3,143.7l-8.4,2l-4.3,0.1l-7.3,1.1l-2.2-2.3l0.9-1l7.5-1.9l-4.6-6.5c-0.4-0.5-1.1-0.8-1.7-1.2l1.2-3
	c3.4,2.8,6.8,5.8,10.4,8.4c1,0.7,2.8,0.4,4.2,0.6c-0.6-0.9-1.7-1.9-1.6-2.6c0.7-3.7-3.1-3.5-4.4-5.4l-1.3-5.2c1.1,0,2.7-0.5,3.4,0.1
	c4.9,3.9,9.6,8,14.2,12.1c0.5,0.5,0.4,1.6,0.6,2.5L331.3,143.7L331.3,143.7z"/>
<path class="st10" d="M320.8,131.9c1.3,1.9,5.1,1.7,4.4,5.4c-0.1,0.8,1,1.8,1.6,2.6c-1.4-0.2-3.2,0.1-4.2-0.6
	c-3.6-2.6-6.9-5.6-10.4-8.4c-7.2-6.2-15.3-9.4-25-7.3c-1.5,0.3-3,0-4.6-0.1l5.8-3.8c5.3-3.5,10.8-4.1,16.3-0.5l-5.7,0.7
	c4.7,2.3,9.6,4.5,14.4,7.1C316.1,128.4,318.4,130.3,320.8,131.9L320.8,131.9z"/>
<path class="st17" d="M314.3,100.1l-6.3-0.9l-10.6-5.7l4.7-1.4l-6.9-4.4c7-2.3,14.6,1.2,14.2,4.4L314.3,100.1L314.3,100.1z"/>
<path class="st5" d="M308.1,101.1l7.3,2.3c-0.7,1-1.1,2.7-2,3c-3.9,1.3-19-4-22.6-8.2L308.1,101.1L308.1,101.1z"/>
<path class="st22" d="M320.8,131.9c-2.4-1.7-4.7-3.5-7.3-4.9c-4.8-2.6-9.8-4.8-14.4-7.1l5.7-0.7l14.7,7.6L320.8,131.9L320.8,131.9z"
	/>
<g>
	<path class="st20" d="M312.5,85.1c-3.2,5.7-4.8-0.6-7.2-1.3L312.5,85.1L312.5,85.1L312.5,85.1z M299.5,82.1l-5.7,0.7l0.1-1.7
		L299.5,82.1C299.5,82.1,299.5,82.1,299.5,82.1z"/>
	<path class="st20" d="M299.5,82.1l2.4,0.2l0.2,0.9l-2.7,0.7L299.5,82.1L299.5,82.1L299.5,82.1z"/>
</g>
<path class="st21" d="M293.1,38.7l-15.9,0l-8.4-2.3l-1.1-5.1l8.4-0.2c0,0.3,0,0.6,0,0.9c0,0.1,0.3,0.2,0.4,0.2l22,1.3L293.1,38.7
	L293.1,38.7z"/>
<path class="st11" d="M298.5,33.5l-22-1.3c-0.2,0-0.4-0.1-0.4-0.2c-0.1-0.3,0-0.6,0-0.9c5.8-3.2,12.1-3.9,18.5-3.8
	c3,0.1,5.8,1.7,4.8,5.8C299.1,33.2,298.8,33.4,298.5,33.5z"/>
<path class="st22" d="M298.5,33.5c0.3-0.1,0.6-0.3,0.9-0.3c5.9,0.5,9.5,4.5,8.5,9.7l-14.8-4.2L298.5,33.5L298.5,33.5z M313.4,46.1
	l-2.2-2.1l2.3-0.4L313.4,46.1L313.4,46.1z"/>
<path class="st8" d="M222,208.3c1.9,8.4,0.2,10.9-8.2,10.6c-4.9-0.2-7.4,1.2-6.6,6.4l-4.2,0c-0.1-8.9,0-8.7,8.1-11.5
	C214.9,212.5,218.3,210.2,222,208.3L222,208.3z"/>
<g>
	<path class="st22" d="M220,244.4c-2.2-0.9-4.7-1.3-6.4-2.8c-3.7-3.1-7.1-6.6-10.5-10c-0.7-0.7-0.7-2.1-1-3.2L220,244.4L220,244.4z"
		/>
	<path class="st22" d="M197.4,217.8c-1.5,3.9,1.6,5.5,3.7,7.6l1,2.9l-7.7-9.5l0.1-1.9L197.4,217.8L197.4,217.8z M224.3,247.6
		l-3.1-2.2L224.3,247.6z M228.5,250.8l-1.2-1L228.5,250.8z"/>
	<path class="st22" d="M230,251.7l-1.5-1L230,251.7z"/>
</g>
<path class="st11" d="M260.1,264.6c-1.1-3.4-2-6.9-3.3-10.2c-2.3-6.2-4.8-12.3-7.3-18.4c1.1-2.4,2.3-4.7,3.2-7.2
	c0.6-1.8,0.8-3.7,1.1-5.5l3.2,1.2c0.2,1.2,1,2.7,0.6,3.5c-4.9,9.1,0.3,16.6,3.2,24.6c1.5,4.1,2,8.8,2.1,13.2c0,1.3-2.5,2.8-3.9,4.1
	L260.1,264.6L260.1,264.6z M287.8,255.1c-0.9,0-1.9-0.3-2.6,0.1c-4.6,2.7-8.5,2-12-2c-0.2-0.2-0.9,0-1.2,0l7.3,16.7
	c-4.1-1.5-11.9-11.5-11.5-15.6c0.2-1.6,2.1-4,3.5-4.3C277.7,248.6,283.5,249.8,287.8,255.1L287.8,255.1z"/>
<path class="st8" d="M270.7,228.7l-4.2-5.3l5.4,1l0.1,4.2L270.7,228.7z"/>
<path class="st9" d="M176.3,231.8l1.1,1.4L176.3,231.8z"/>
<path class="st4" d="M179.8,235.6l0,1.4L179.8,235.6z"/>
<path class="st25" d="M358.5,423c-6.7-2.5-5.7-8.7-6.8-14.1C356.3,410.6,358.6,415.4,358.5,423z"/>
<path class="st4" d="M366.4,424.9l0.5,2.1l-5.7-1.1l-1.1-10.5L366.4,424.9z"/>
<path class="st24" d="M367.5,317.8l-0.1-0.8l0.7,0.2l-0.7,0.5L367.5,317.8L367.5,317.8z"/>
<path class="st1" d="M104.3,325.1l7.5-0.5l0.2,1.3l-2.4,0.9l3.4,3.7C109.8,331,107.6,329.6,104.3,325.1z"/>
<path class="st3" d="M122.4,336.9l-0.4,1.4l-0.5-0.3l0.8-1.3C122.2,336.7,122.4,336.9,122.4,336.9L122.4,336.9z"/>
<path class="st1" d="M98.2,338.5l-4.2-2.9l0.5-1.7l12.9,2.8l-0.4,2l-4.9-0.8c0,0,0,0,0.1,0.1l-3.1-0.2L98.2,338.5L98.2,338.5z"/>
<path class="st2" d="M82.4,349c0.3-0.6,0.6-1.8,0.8-1.8l9.5,2.3c1.3,0.3,2.8,0,4.2,0c1.6,1.8,3.3,3.5-0.2,5.1c-1.7,0-3.6,0.6-5,0
	C88.4,353.1,85.5,350.9,82.4,349L82.4,349z"/>
<path class="st20" d="M125.5,283.7c-0.1,0.3-0.1,0.5-0.1,0.8l-0.3-0.6L125.5,283.7L125.5,283.7z"/>
<path class="st10" d="M197.4,217.8l-2.9-0.9l-3.3-8.7l7.2-8.2c1.4-1.7,3-3.4,4-5.3c0.7-1.3,0.8-3,1.1-4.5l4.9-17.9l1.8-1.1l1.1,22.3
	l-5.2,15.9L197.4,217.8L197.4,217.8z M99.1,337.7l3.1,0.2L99.1,337.7z"/>
<path class="st26" d="M201.9,182.9l0.4,0.5l-0.5-0.4C201.8,183,201.9,182.9,201.9,182.9L201.9,182.9z"/>
<path class="st17" d="M284.6,165.9c0.8,4.4-1.5,6-5.4,6.4c-8.8,0.9-11.2-1.3-12.3-11.5c-0.4-3.5-1-7-0.9-10.4c0-1.6,0.9-3.8,2.1-4.5
	c1.1-0.6,3.5,0,4.8,0.8c5,3.3,9.3,7.3,9.7,13.9l-10.6-9c-0.6,1.3-1.2,2-1.1,2.5c0.6,4,0.5,8.4,2.2,11.9c1.9,3.9,5.6,0.5,8.5,0.3
	C282.6,166.4,283.6,166.1,284.6,165.9L284.6,165.9z"/>
<path class="st5" d="M271.9,224.4l-5.2-11.7l11.7,0l7.4,12.8C280.7,228.4,276.3,226.5,271.9,224.4L271.9,224.4z M284.6,165.9
	l-3.1,0.5c-2.9,0.2-6.6,3.6-8.5-0.3c-1.7-3.5-1.6-7.9-2.2-11.9c-0.1-0.6,0.5-1.2,1.1-2.5l10.6,9L284.6,165.9L284.6,165.9z"/>
<path class="st3" d="M309,144.6l2.2,2.3l-4.3,6.4c-3.7,0.3-7.5,0.8-11.2,0.9c-0.5,0-1-1.3-1.5-2l2-0.2l4.8-1.2l0-1.2l-4.7-0.6
	c-0.2,0-0.4,0-0.5-0.1c-0.2-0.2-0.4-0.4-0.5-0.7c1.3-0.1,2.8,0.1,4-0.5c0.8-0.4,1-1.8,1.5-2.8L309,144.6L309,144.6z"/>
<path class="st4" d="M309,144.6l-8.3,0.3l-5.2-1.8l7.3-7.8l6.1,2.4l1,5.9L309,144.6L309,144.6z"/>
<path class="st8" d="M294.2,152.2c0.5,0.7,1,2,1.5,2c3.7-0.2,7.5-0.6,11.2-0.9c-0.6,4.7-4.7,4.3-7.7,5c-2.4,0.5-5.2-0.1-7.8-0.5
	c-2.2-0.3-5.9,0.1-4.5-3.8C288.2,150.5,291.2,150.1,294.2,152.2L294.2,152.2z"/>
<path class="st10" d="M302.8,135.3l-7.3,7.8l-2.3-1.6l-3.6-6.9C295.4,131.2,299.1,131.4,302.8,135.3L302.8,135.3z"/>
<path class="st5" d="M318.5,145.8l4.3-0.1c3.7,2,4.8,5,4.4,9.1c-0.4,3.8-0.1,7.7-0.8,11.7c-3.5-3.1-3.4-7.4-3.4-11.4
	C323.1,151,322.1,147.9,318.5,145.8z"/>
<path class="st15" d="M302.8,135.3c-3.7-3.9-7.4-4.1-13.2-0.7l-2.9,0.9c0,0-0.1-0.1-0.1-0.1c-1.6-1.1,3.9-2.2,0-3.3
	c8.2-3.6,16-2,23.5,2.1l-1.3,3.5L302.8,135.3L302.8,135.3z"/>
<path class="st3" d="M308.8,137.6l1.3-3.5c0.3-0.1,0.7-0.1,1-0.2c0.6,0.4,1.3,0.7,1.7,1.2l4.6,6.5l-7.5,1.9L308.8,137.6L308.8,137.6
	z"/>
<path class="st17" d="M278.3,212.6l-11.7,0c-2.4-3.4,0.1-3.9,2.6-4.2l7.8-0.5L278.3,212.6z"/>
<path class="st3" d="M278.6,195.2l-4.5,0.3c0.1-1.4-0.2-3.3,0.5-4.1c2.3-2.5,5-4.7,7.8-6.7c0.5-0.4,2.1,0.9,3.2,1.4l0,0l-8.3,5.1
	c-0.2,0.1,0.5,1.5,0.8,2.3L278.6,195.2L278.6,195.2z"/>
<path class="st17" d="M304.8,165.9l-10.1,13.8c0.1-6.9,4.1-11.1,8.7-14.9L304.8,165.9L304.8,165.9z"/>
<path class="st8" d="M303.2,176.1c5.3-6.8,9.4-2,13.7,0H303.2z"/>
<path class="st21" d="M310.1,205.3l-18.1-5.5c-0.8-0.3-1.4-1.3-2.1-2l16.8,4.4L310.1,205.3L310.1,205.3z"/>
<path class="st15" d="M315.1,181.2l0.1,2.3l-8.2,0.4c-3-0.2-5.2-1.5-5.2-5.6c2.5,3.5,4.6,5.4,8.3,2.2c0.9-0.7,3.2,0.2,4.8,0.4
	L315.1,181.2L315.1,181.2z"/>
<path class="st5" d="M314.9,180.9c3.7,0.1,7.5,0,11.1,0.4c0.5,0.1,0.7,2.8,1.2,5.1l-12.2-5.2C315.1,181.2,314.9,180.9,314.9,180.9z"
	/>
<path class="st21" d="M278.6,195.2l-0.3-1.7l11.6,4.4h-3.2l2.3,3.1l-3.3-1.1l-0.9-1.2l-4.4-3.1L278.6,195.2L278.6,195.2z"/>
<path class="st3" d="M286.6,135.4l2.9-0.9l3.6,6.9C289.1,141.5,287.3,139.1,286.6,135.4L286.6,135.4z"/>
<path class="st8" d="M296.3,149l4.7,0.6l0,1.2l-4.8,1.2L296.3,149L296.3,149z"/>
<path class="st3" d="M286.6,132c3.9,1.1-1.6,2.2,0,3.3l-2.8-1.7L286.6,132L286.6,132z M280.5,195.6l4.4,3.1l-1.1,1.2l-0.3,0.3
	L280.5,195.6z M285.7,186.1l0.4,0.2L285.7,186.1L285.7,186.1L285.7,186.1z M206.2,209.5l5.2-15.9l1.1,0l2.8-1.1
	C219.1,200.4,214.8,208.4,206.2,209.5z"/>
<g>
	<path class="st13" d="M253.9,223.3c-0.4,1.9-0.5,3.8-1.1,5.5c-0.9,2.5-2.1,4.8-3.2,7.2l-1.5-15.8L253.9,223.3L253.9,223.3z
		 M293.2,209.4l8.4,2.3c-2.2,1.3-4.3,3-4.7,2.6C295.3,213.2,294.3,211.2,293.2,209.4L293.2,209.4L293.2,209.4z"/>
	<path class="st13" d="M285.7,199.9l3.3,1.1l-0.1-0.1l2.3,4.1l2,4.4c0,0-0.1,0.1-0.1,0.1C287.8,208.5,286.7,204.2,285.7,199.9
		L285.7,199.9z"/>
</g>
<path class="st21" d="M291.2,205l-2.3-4.1l5.9,4.3L291.2,205z"/>
<path class="st13" d="M283.7,199.8l1.1-1.2l0.9,1.2L283.7,199.8z"/>
</svg>
