<svg id="Flat" enable-background="new 0 0 78 124" height="512" viewBox="0 0 78 124" width="512" xmlns="http://www.w3.org/2000/svg"><g><path d="m63.55 38.08c.29-2.94.45-6.01.45-9.08 0-11-5-29-25-29-7.45 0-12.82 2.5-16.62 6.2-6.41 6.24-8.38 15.9-8.38 22.8 0 3.08.16 6.16.45 9.1 0 .02 0 .04.01.05h.01z" fill="#47394f"/><path d="m70.63 98.28c-2.7-5.33-5.84-9.49-9.08-12.74-2.05-2.07-4.13-3.76-6.17-5.15-3.73-2.56-7.3-4.09-10.14-5.02l-.03-.07-6.183 11.666-1.41-2.604-4.637-9.062c-2.85.91-6.45 2.44-10.23 5.01-2 1.35-4.05 3-6.06 4.99-3.19 3.16-6.29 7.19-8.99 12.33v.01c-3.51 6.71-6.32 15.32-7.7 26.36h7.7 9.07 9.53 3.74 11.75 10.12 9.54 9.06 7.49c-1.34-10.69-4.02-19.11-7.37-25.72z" fill="#604533"/><path d="m17.2 51.96c-2.7.32-5.51-1.6-6.68-4.78-1.35-3.67.01-7.63 3.04-8.83.29-.12.59-.2.89-.25 0 .02 0 .04.01.05z" fill="#f7b6ad"/><path d="m63.55 38.1c.3.05.6.13.89.25 3.03 1.2 4.39 5.16 3.04 8.83-1.17 3.18-3.98 5.1-6.68 4.78z" fill="#f7b6ad"/><path d="m45.18 66.94.03 8.36-6.09 19.53-.06-.02-6.08-19.51c.02-.01.03-.01.05-.02l-.01-.03-.02-8.25z" fill="#fec4b9"/><path d="m63.55 38.08v.02c-.52 5.3-1.48 10.18-2.75 13.86h-.01c-.54 1.59-1.14 2.96-1.79 4.04-2.29 3.81-7.49 8.79-13.82 10.94-1.97.67-4.05 1.06-6.18 1.06-2.07 0-4.09-.37-6-1-6.42-2.11-11.69-7.15-14-11-.65-1.08-1.25-2.45-1.79-4.04h-.01c-1.26-3.67-2.22-8.53-2.74-13.81h.01s8.51-13.56 11.25-24.81c0 0 3.59 4.99 21.47 5.05 3.87.02 7.61 1.66 10.05 4.67 2.32 2.89 4.72 7.53 6.31 15.02z" fill="#fec4b9"/><circle cx="49" cy="39" fill="#543927" r="2"/><circle cx="29" cy="39" fill="#543927" r="2"/><path d="m78 124h-7.49v-.06-25.6l.12-.06c3.35 6.61 6.03 15.03 7.37 25.72z" fill="#472d1c"/><path d="m61.55 85.54-.1.1v38.3.06h-9.54v-32.23l-.08-.03 3.52-11.3.03-.05c2.04 1.39 4.12 3.08 6.17 5.15z" fill="#472d1c"/><path d="m33.22 113.74v-.01l5.9-18.9 6.09-19.53.03.07c2.84.93 6.41 2.46 10.14 5.02l-.03.05-3.52 11.3-10.04 32.2v.06h-11.75v-.06z" fill="#543927"/><path d="m26.3 91.55-3.48-11.15-.07-.09c3.78-2.57 7.38-4.1 10.23-5.01l6.08 19.51.06.02-5.9 18.9z" fill="#472d1c"/><path d="m33.22 113.73v.01l-3.18 10.2v.06h-3.74v-32.45z" fill="#3f2313"/><path d="m16.77 85.38v38.62h-9.07v-26.36-.01c2.7-5.14 5.8-9.17 8.99-12.33z" fill="#3f2313"/><path d="m52.279 32.54c-.199 0-.399-.059-.574-.182-1.801-1.267-4.414-.849-4.441-.844-.544.102-1.063-.267-1.159-.811s.267-1.063.811-1.158c.137-.025 3.438-.584 5.939 1.176.452.318.561.941.243 1.394-.195.278-.505.425-.819.425z" fill="#504256"/><path d="m25.721 32.54c-.314 0-.624-.147-.819-.425-.318-.452-.209-1.075.243-1.394 2.501-1.759 5.801-1.2 5.939-1.176.544.096.907.614.811 1.158-.096.543-.61.903-1.157.812-.048-.009-2.639-.426-4.443.843-.174.123-.375.182-.574.182z" fill="#504256"/><path d="m39 43.71c-1.078 0-2.179-.157-3.273-.468-.531-.15-.84-.703-.689-1.234.15-.532.703-.844 1.235-.689 1.833.52 3.621.52 5.454 0 .532-.154 1.085.157 1.235.689.151.531-.158 1.084-.689 1.234-1.094.311-2.195.468-3.273.468z" fill="#ea8d81"/><path d="m45.187 69.543-.007-2.603c-1.97.67-4.05 1.06-6.18 1.06-2.07 0-4.09-.37-6-1v.991s3.647 2.199 12.187 1.552z" fill="#f7b6ad"/><g fill="#543927"><path d="m42.896 120.394-1.106 3.546v.05l10.12-.002v-3.594z"/><path d="m19.149 120.394c-.825 0-1.614-.112-2.379-.282v3.884l9.53-.002v-3.6z"/><path d="m61.45 123.986 7.139-.002c.991-.001 1.794-.804 1.794-1.795 0-.992-.804-1.795-1.795-1.795h-7.138v3.546z"/><path d="m7.7 102.315c-.126-.039-.252-.067-.378-.083-.942-.122-1.855.389-2.277 1.269-.507 1.275-.995 2.583-1.435 3.97-.239.703-.466 1.424-.684 2.16-.018.06-.035.121-.052.181-.189.646-.371 1.305-.547 1.975-.649 2.463-1.218 5.083-1.689 7.877-.058.351-.113.692-.164 1.016-.015.096-.03.192-.045.289-.087.561-.16 1.063-.222 1.495-.071.506-.142 1.016-.207 1.536l7.7-.002z"/></g><path d="m51.91 123.988 9.54-.002v-.046-3.546h-9.54z" fill="#3f2313"/><path d="m42.896 120.394h-11.75l-1.106 3.546v.053l11.75-.003v-.05z" fill="#472d1c"/><path d="m31.146 120.394h-4.846v3.6l3.74-.001v-.053z" fill="#381b0d"/><path d="m9.735 115.028c-1.052-1.758-1.611-3.801-1.525-5.92.046-1.153.265-2.324.72-3.483.048-.122.097-.244.146-.366.434-1.075-.028-2.273-1.02-2.789-.107-.056-.216-.111-.335-.149-.007-.002-.014-.002-.021-.005v21.684l9.07-.002v-3.884c-3.03-.674-5.531-2.574-7.035-5.086z" fill="#381b0d"/></g></svg>