<svg height="512" viewBox="0 0 64 64" width="512" xmlns="http://www.w3.org/2000/svg"><g id="_03-basketball" data-name="03-basketball"><path d="m28.72 41.28-3.68 3.69-.04.03a11.69 11.69 0 0 0 -3.93-6.07l4.77-4.77c.67 1.73 1.7 4.32 2.88 7.12z" fill="#9e6861"/><path d="m47.99 5.33-.99 6.67h-1v-2l-2-3h-12l-2 3v2h-1l-.99-6.67a3.912 3.912 0 0 1 3.75-4.33h12.48a3.912 3.912 0 0 1 3.75 4.33z" fill="#414952"/><path d="m45.13 47.97-3.13 7.03-3.89-.56 1.77-8.85a2.045 2.045 0 0 1 .55-1.02l2.14-2.14 1.43 3.57 1 2z" fill="#9e6861"/><path d="m52 46.55v4.92a3.972 3.972 0 0 1 -1.02 2.67l-6.75 7.54a3.949 3.949 0 0 1 -2.95 1.32h-3.59a3.863 3.863 0 0 1 -1.17-.18l-10.37-2.82-6.95 1-5.2-1.05-2.39-.48a2 2 0 0 1 -1.47-2.7l.79-1.99 1.64-4.12a2 2 0 0 1 2.38-1.18l6.75 1.9c1.25.31 2.3-1.08 2.3-2.38v-1.99a1.984 1.984 0 0 1 .64-1.46 1.786 1.786 0 0 1 .59-.39 2.013 2.013 0 0 1 .78-.16 1.98 1.98 0 0 1 1.99 1.99v6.01l7 1 3.11.44 3.89.56 3.13-7.03 3.87-.97a9.581 9.581 0 0 0 3-.45z" fill="#ba7b72"/><path d="m47 12a2.006 2.006 0 0 1 2 2v1a3 3 0 0 1 -3 3l-.06-.01a8.1 8.1 0 0 0 .06-.99v-5z" fill="#ba7b72"/><path d="m30 17a8.1 8.1 0 0 0 .06.99l-.06.01a3 3 0 0 1 -3-3v-1a2.006 2.006 0 0 1 2-2h1z" fill="#ba7b72"/><path d="m46 12v5a8.1 8.1 0 0 1 -.06.99 8.054 8.054 0 0 1 -2.78 5.12 8 8 0 0 1 -10.82-.45 8.3 8.3 0 0 1 -2.06-3.54 8.36 8.36 0 0 1 -.22-1.13 8.1 8.1 0 0 1 -.06-.99v-7l2-3h12l2 3z" fill="#ba7b72"/><path d="m25 30.15a10.325 10.325 0 0 0 .17 1.84l-.17.01-.93-.62a4.4 4.4 0 0 1 -1.51-1.84 6.288 6.288 0 0 1 -.56-2.63c0-2.3 1.17-4.3 2.84-4.86l.16-.05z" fill="#ba7b72"/><path d="m32.34 22.66a8 8 0 0 0 10.82.45l2.84 1.89-10 8-5-9v-3l.06-.03a7.838 7.838 0 0 0 1.28 1.69z" fill="#9e6861"/><path d="m52 46.55a9.581 9.581 0 0 1 -3 .45l-3.87.97-.13.03-1-2-1.43-3.57-.57-1.43c0-6.08 3.13-9 7-9 3.75 0 5.81 1.9 6.61 5.64a20.813 20.813 0 0 1 .39 4.36c0 2.17-1.63 3.81-4 4.55z" fill="#ba7b72"/><path d="m58.18 37.02-2.18-9.02-11-7-.06-.03a7.821 7.821 0 0 1 -1.78 2.14l2.84 1.89-10 8-5-9v-3l.06-.03a7.79 7.79 0 0 1 -.78-1.85l-5.28.88v10.15a10.325 10.325 0 0 0 .17 1.84 10.046 10.046 0 0 0 .51 1.78c.05.13.1.26.16.39.67 1.73 1.7 4.32 2.88 7.12a90.294 90.294 0 0 0 6.28 12.72l3.11.44 1.77-8.85a2.045 2.045 0 0 1 .55-1.02l2.14-2.14-.57-1.43c0-6.08 3.13-9 7-9 3.75 0 5.81 1.9 6.61 5.64a20.813 20.813 0 0 1 .39 4.36c0 2.17-1.63 3.81-4 4.55v4.92a3.972 3.972 0 0 1 -1.02 2.67l-6.75 7.54a3.949 3.949 0 0 1 -2.95 1.32h17.72l4-6z" fill="#2b8ffc"/><path d="m11.61 59.47 2.39.48v.01c-.33.03-.66.04-1 .04a11.981 11.981 0 0 1 -11.99-11.81c.26 1.98 4.42 5.66 9.92 6.59l-.79 1.99a2 2 0 0 0 1.47 2.7z" fill="#ef680c"/><path d="m1 48h23v1c0 1.3-1.05 2.69-2.3 2.38l-6.75-1.9a2 2 0 0 0 -2.38 1.18l-1.64 4.12c-5.5-.93-9.66-4.61-9.92-6.59a1.275 1.275 0 0 1 -.01-.19z" fill="#ef680c"/><path d="m24 47.01v.99h-23c0-2.21 5.6-7 12.5-7a16.152 16.152 0 0 1 11.14 4.55 1.984 1.984 0 0 0 -.64 1.46z" fill="#ef680c"/><path d="m25.04 44.97.19.19a1.786 1.786 0 0 0 -.59.39 16.152 16.152 0 0 0 -11.14-4.55c-6.9 0-12.5 4.79-12.5 7a12 12 0 0 1 12-12 12.679 12.679 0 0 1 8.07 2.93 11.69 11.69 0 0 1 3.93 6.07z" fill="#ef680c"/><path d="m48 15.5v-.833a1.862 1.862 0 0 0 -2-1.667v4c0 .124-.017.247-.023.373a2.088 2.088 0 0 0 2.023-1.873z" fill="#8c5956"/><path d="m30 13a1.862 1.862 0 0 0 -2 1.667v.833a2.088 2.088 0 0 0 2.023 1.873c-.006-.126-.023-.249-.023-.373z" fill="#8c5956"/><path d="m44 7h-2l.891 1.336a6.608 6.608 0 0 1 1.109 3.664v5a8.1 8.1 0 0 1 -.06.99 8.054 8.054 0 0 1 -2.78 5.12 7.929 7.929 0 0 1 -4.16 1.821 8.034 8.034 0 0 0 1 .069 7.941 7.941 0 0 0 5.16-1.89 8.054 8.054 0 0 0 2.78-5.12 8.1 8.1 0 0 0 .06-.99v-7z" fill="#c9867b"/><path d="m55.61 37.64c-.8-3.74-2.86-5.64-6.61-5.64a6.5 6.5 0 0 0 -3.588 1.028c3.479.141 5.429 2.017 6.2 5.612a20.813 20.813 0 0 1 .388 4.36 4.527 4.527 0 0 1 -2.652 3.975 9.445 9.445 0 0 0 2.652-.425c2.37-.74 4-2.38 4-4.55a20.813 20.813 0 0 0 -.39-4.36z" fill="#c9867b"/><path d="m46 25-2.84-1.89a7.952 7.952 0 0 1 -1.786 1.143 2 2 0 0 1 -.564 2.447l-5.8 4.512.99 1.788z" fill="#8c5956"/><path d="m25 30.15v-8.15l-.16.05a3.3 3.3 0 0 0 -.84.45v4.5a2 2 0 0 1 -1.666 1.966 5.656 5.656 0 0 0 .226.574 4.4 4.4 0 0 0 1.51 1.84l.93.62.17-.01a10.325 10.325 0 0 1 -.17-1.84z" fill="#8c5956"/><path d="m38 25a7.981 7.981 0 0 1 -4.754-1.575 7.985 7.985 0 0 1 -.906-.765 7.838 7.838 0 0 1 -1.28-1.69l-.06.03v3l.565 1.017c.127-.079.5-.337.837-.578a1.02 1.02 0 0 1 1.143-.011 5.669 5.669 0 0 0 4.455.572z" fill="#8c5956"/><path d="m33.06 20.97a7.79 7.79 0 0 1 -.78-1.85 8.36 8.36 0 0 1 -.22-1.13 8.1 8.1 0 0 1 -.06-.99v-5.031a3.074 3.074 0 0 1 3.12-2.969h10.213l-1.333-2h-12l-1.333 2-.667 1v7a8.1 8.1 0 0 0 .06.99 8.36 8.36 0 0 0 .22 1.13 8.3 8.3 0 0 0 2.06 3.54 7.91 7.91 0 0 0 6.66 2.271 8.025 8.025 0 0 1 -4.66-2.271 7.838 7.838 0 0 1 -1.28-1.69z" fill="#9e6861"/><path d="m30 12v-2l2-3h12l2 3v2h1l.646-4.354-2.646-2.646h-14l-2.646 2.646.646 4.354z" fill="#333940"/><path d="m47.486 51.286.1-.241a2 2 0 0 1 1.528-1.23l2.886-.482v-2.783a9.581 9.581 0 0 1 -3 .45l-3.87.97-3.13 7.03a5.91 5.91 0 0 0 5.486-3.714z" fill="#9e6861"/><path d="m45 48-1-2-1.43-3.57-2.14 2.14a2.006 2.006 0 0 0 -.36.5l2.056 2.056a2 2 0 0 1 .483 2.047l-1.023 3.07a2 2 0 0 1 -2.386 1.308l-.872-.218-.218 1.107 3.89.56 3.13-7.03z" fill="#8c5956"/><path d="m26 50.145v-5.145a2.022 2.022 0 0 0 -.77.159 1.786 1.786 0 0 0 -.59.39 1.984 1.984 0 0 0 -.64 1.461v1.99c0 1.3-1.05 2.69-2.3 2.38l-.686-.193 2.3.837a2 2 0 0 0 2.686-1.879z" fill="#9e6861"/><path d="m40 61h-2.31a3.863 3.863 0 0 1 -1.17-.18l-8.271-2.249a10.484 10.484 0 0 0 -4.249-.261l-4.8.69-5.2-1.05-2.39-.48a1.975 1.975 0 0 1 -1.356-.987l-.114.287a2 2 0 0 0 1.47 2.7l2.39.48 5.2 1.05 6.95-1 5.85 1.591 4.52 1.229a3.863 3.863 0 0 0 1.17.18h2.31a1 1 0 0 0 0-2z" fill="#9e6861"/><path d="m25.84 34.16-1.465 1.465 1.7 2.828a2 2 0 0 1 -.515 2.629l-1.644 1.233a11.032 11.032 0 0 1 1.084 2.685l.04-.03 3.68-3.69c-1.18-2.8-2.21-5.39-2.88-7.12z" fill="#8c5956"/><path d="m39.053 37.191-.819 2.184a1.53 1.53 0 0 0 .066 1.225l.016.033a1.531 1.531 0 0 1 -.685 2.055 1.534 1.534 0 0 0 -.8 1l-1.331 5.306a2 2 0 0 1 -2.49 1.438l-.074-.021a39.473 39.473 0 0 0 2.064 3.589l3.11.44 1.77-8.85a2.045 2.045 0 0 1 .55-1.02l2.14-2.14-.57-1.43c0-6.08 3.13-9 7-9h-2.456a8 8 0 0 0 -7.491 5.191z" fill="#2864f0"/><path d="m27.445 27.279.555-4.639a2 2 0 0 1 1.608-1.962l1.187-.237a7.606 7.606 0 0 1 -.515-1.321l-5.28.88v10.15a10.325 10.325 0 0 0 .17 1.84 10.046 10.046 0 0 0 .51 1.78c.05.13.1.26.16.39.67 1.73 1.7 4.32 2.88 7.12 1.221 2.879 2.61 5.987 3.95 8.62l-4.593-15.311a18 18 0 0 1 -.632-7.31z" fill="#2cb5ff"/><path d="m55.574 56.6-.051-.409a11.513 11.513 0 0 1 1.1-6.087 2.943 2.943 0 0 0 .238-1.484l-.861-8.62h-.073c.046.632.073 1.294.073 2 0 2.17-1.63 3.81-4 4.55v4.92a3.972 3.972 0 0 1 -1.02 2.67l-6.75 7.54a3.949 3.949 0 0 1 -2.95 1.32h17.72l-.574-.574a10 10 0 0 1 -2.852-5.826z" fill="#2864f0"/><path d="m56.089 28.367-.089-.367-11-7-.06-.03a7.821 7.821 0 0 1 -1.78 2.14l2.84 1.89 6.213 4.142a2.8 2.8 0 0 0 3.876-.775z" fill="#2cb5ff"/><path d="m47.5 24.935a1.5 1.5 0 0 0 -.667-1.183l-2.611-1.741a8.05 8.05 0 0 1 -1.061 1.1l2.839 1.889 1.241.827a1.492 1.492 0 0 0 .259-.892z" fill="#fdfeff"/><path d="m30.28 19.12-.78.13v1.5l1.16-.58a7.45 7.45 0 0 1 -.38-1.05z" fill="#fdfeff"/><path d="m46 25-10 8-5-9v-3l.06-.03a8.174 8.174 0 0 1 -.4-.8l-1.16.58v3.25a1.51 1.51 0 0 0 .188.729l5 9a1.5 1.5 0 0 0 2.249.442l10-8a1.485 1.485 0 0 0 .3-.344z" fill="#e1eaf2"/><ellipse cx="11" cy="42" fill="#ff810c" rx="6.151" ry="4.811" transform="matrix(.935 -.354 .354 .935 -14.172 6.625)"/><path d="m25.04 44.97-.04.03a10.875 10.875 0 0 0 -.673-1.875 3.049 3.049 0 0 0 -2.011 1.926l-.746 2.238a2.019 2.019 0 0 1 -2.331 1.32l-2.739-.609h-4.089a3.986 3.986 0 0 0 -1.811 1.793l-2.171 4.349-.429.858s-2.033 1.012-5.734-1.661a11.977 11.977 0 0 0 10.734 6.661c.34 0 .67-.01 1-.04v-.01l-2.39-.48a2 2 0 0 1 -1.47-2.7l.79-1.99 1.64-4.12a2 2 0 0 1 2.38-1.18l6.75 1.9c1.25.31 2.3-1.08 2.3-2.38v-1.99a1.984 1.984 0 0 1 .64-1.46 1.786 1.786 0 0 1 .59-.39z" fill="#8d3205"/><path d="m45.815 45.63-1.915-3.824a8.551 8.551 0 0 1 -.9-3.825v-2.091a11.983 11.983 0 0 0 -1 5.11l.57 1.43 1.43 3.57 1 2 .13-.03 3.87-.97-2.607-.869a1 1 0 0 1 -.578-.501z" fill="#ad726a"/><ellipse cx="42" cy="13" fill="#333940" rx="1" ry="2"/><ellipse cx="34" cy="13" fill="#333940" rx="1" ry="2"/><path d="m39 16.857c0 1.657-.448 2.143-1 2.143s-1-.486-1-2.143.448-3.857 1-3.857 1 2.2 1 3.857z" fill="#8c5956"/><path d="m20.132 52.518-5.355-1.461-2.114-.576a1.779 1.779 0 0 0 -.093.179l-.3.751 2.132.581 5.465 1.49a.466.466 0 0 0 .133.018.5.5 0 0 0 .132-.982z" fill="#8c5956"/><path d="m19.137 55.246-5.437-1.484-2.129-.58-.372.935 2.127.58 5.552 1.514a.505.505 0 0 0 .132.018.5.5 0 0 0 .132-.983z" fill="#8c5956"/><path d="m18.132 57.518-5.3-1.447-2.175-.593-.371.935 2.685.733 4.9 1.336a.466.466 0 0 0 .129.018.5.5 0 0 0 .132-.982z" fill="#8c5956"/><path d="m10.45 55.683a17.351 17.351 0 0 1 -2.456-.683 17.017 17.017 0 0 0 2.456.683z" fill="#333940"/><path d="m9.562 54.463c.058.015.115.031.173.045-.058-.014-.115-.03-.173-.045z" fill="#333940"/><path d="m13.5 41c-5.737 0-10.67 3.229-12.367 5.808a11.945 11.945 0 0 0 -.133 1.692 1.275 1.275 0 0 0 .01.19 11.934 11.934 0 0 0 .127 1.51 14.264 14.264 0 0 0 6.856 4.8h.007l.44-.88c-3.692-1.289-6.274-3.694-6.828-5.12h22.388v-1h-22.386c.765-2.06 5.746-6 11.886-6a15.733 15.733 0 0 1 10.649 4.274 1.984 1.984 0 0 1 .491-.724c.035-.035.076-.061.113-.092a16.6 16.6 0 0 0 -11.253-4.458z" fill="#333940"/><g fill="#23272b"><path d="m8.44 54.12c.363.127.739.24 1.122.343-.383-.103-.762-.216-1.122-.343z"/><path d="m10.934 54.77c-.41-.072-.808-.161-1.2-.262.391.1.789.191 1.2.263z"/><path d="m10.561 55.709c-.038-.007-.074-.018-.112-.025.039.006.074.016.112.025z"/><path d="m7.993 55.003.001.001z"/><path d="m7.993 55a17.351 17.351 0 0 0 2.456.679c.038.007.074.018.112.025l.368-.928v-.009c-.41-.072-.808-.162-1.2-.263-.058-.014-.115-.03-.173-.045-.383-.1-.759-.216-1.122-.343l-.434.884z"/><path d="m19.239 48.609-2.739-.609h-4.089a4 4 0 0 0 -1.268 1h12.857v-1h-2.853a2 2 0 0 1 -1.908.609z"/><path d="m24.149 46.274a1.984 1.984 0 0 1 .491-.724c.035-.035.076-.061.113-.092a13.838 13.838 0 0 0 -1.8-1.47 2.975 2.975 0 0 0 -.542.851 12.4 12.4 0 0 1 1.738 1.435z"/></g><ellipse cx="14.18" cy="39.056" fill="#f6fafd" rx=".742" ry="1.032" transform="matrix(.707 -.707 .707 .707 -23.469 21.479)"/><ellipse cx="10.114" cy="40.417" fill="#f6fafd" rx=".373" ry=".519" transform="matrix(.707 -.707 .707 .707 -25.624 19.002)"/><ellipse cx="9.096" cy="39.288" fill="#f6fafd" rx=".186" ry=".259" transform="matrix(.707 -.707 .707 .707 -25.124 17.951)"/><ellipse cx="30.684" cy="33.695" fill="#f6fafd" rx="1.642" ry="2.286" transform="matrix(.707 -.707 .707 .707 -14.839 31.581)"/><ellipse cx="53.682" cy="36.708" fill="#f6fafd" rx=".825" ry="1.148" transform="matrix(.707 -.707 .707 .707 -10.229 48.732)"/><ellipse cx="31.682" cy="37.708" fill="#f6fafd" rx=".825" ry="1.148" transform="matrix(.707 -.707 .707 .707 -17.386 33.464)"/><path d="m35 20h6a3 3 0 0 1 -6 0z" fill="#8c5956"/></g></svg>