<svg height="512" viewBox="0 0 64 64" width="512" xmlns="http://www.w3.org/2000/svg"><g id="_30-tennis" data-name="30-tennis"><path d="m22.651 30.91-1.64.21a8 8 0 0 0 -7.011 7.94v2.94l-.08.32a15.285 15.285 0 0 1 -6.9-3.94c-4.32-4.32-4.229-9.77-.82-13.18s8.86-3.5 13.18.82a15.433 15.433 0 0 1 3.271 4.89z" fill="#fdfeff"/><path d="m25.331 30.58a15.316 15.316 0 0 1 1.03 6.26 9.069 9.069 0 0 1 -2.51 6.01 9.049 9.049 0 0 1 -6.01 2.51 13.671 13.671 0 0 1 -3.841-.32 18.173 18.173 0 0 1 -8.86-4.86c-5.41-5.42-5.32-12.5-.89-16.93s11.51-4.52 16.93.89a18.444 18.444 0 0 1 4.151 6.44zm-3.48 10.27c2.3-2.3 2.34-6.27.8-9.94a15.433 15.433 0 0 0 -3.27-4.89c-4.32-4.32-9.77-4.23-13.18-.82s-3.5 8.86.82 13.18a15.285 15.285 0 0 0 6.9 3.94c3.04.78 6.05.41 7.93-1.47z" fill="#2b8ffc"/><path d="m38.69 56.53-1.47 1.47-2.68-2.68 1.51-2.05 2.95 2.95z" fill="#2b8ffc"/><path d="m28.367 47.388h2.517v2.475h-2.517z" fill="#2b8ffc" transform="matrix(.707 -.707 .707 .707 -25.706 35.191)"/><path d="m25 46.73a8.646 8.646 0 0 0 -1.88-.55c-1.56-.28-3.48-.57-5.28-.82a9.049 9.049 0 0 0 6.01-2.51 9.069 9.069 0 0 0 2.51-6.01c.25 1.8.54 3.72.82 5.28a8.793 8.793 0 0 0 2.44 4.72l.02.02-1.78 1.78-.02-.02a8.562 8.562 0 0 0 -2.84-1.89z" fill="#2b8ffc"/><path d="m54.75 10c0 1.86-1.23 2.49-1.25 4.33a5 5 0 0 1 -.41-8.4 8.813 8.813 0 0 1 1.66 4.07z" fill="#6fd995"/><path d="m57.25 10c0 1.86 1.23 2.49 1.25 4.33a5 5 0 0 1 -5 0c.02-1.84 1.25-2.47 1.25-4.33a8.813 8.813 0 0 0 -1.66-4.07 5.018 5.018 0 0 1 5.82 0 8.813 8.813 0 0 0 -1.66 4.07z" fill="#6fd995"/><path d="m61 10a5 5 0 0 1 -2.5 4.33c-.02-1.84-1.25-2.47-1.25-4.33a8.813 8.813 0 0 1 1.66-4.07 5.027 5.027 0 0 1 2.09 4.07z" fill="#6fd995"/><path d="m43 9h-18a8 8 0 0 1 8-8h2a8 8 0 0 1 8 8z" fill="#563d3e"/><path d="m25.001 9h17.999 1v4h-2-15.999-2v-4z" fill="#6f3ff3"/><path d="m23 16a2.006 2.006 0 0 1 2-2h1v5a8.1 8.1 0 0 0 .06.99l-.06.01a3 3 0 0 1 -3-3z" fill="#ffcdbe"/><path d="m22.001 50v13h-7v-7-6z" fill="#ffbeaa"/><path d="m25.001 47v3h-3-7-1v-3z" fill="#2cb5ff"/><path d="m54 47v3h-1-10v-3z" fill="#2cb5ff"/><path d="m29.061 30.12a9.279 9.279 0 0 0 2.93 3.28c-.11 2.02-1.08 3.6-2.24 3.6 0 0-3.75-2-3.75-6a2.629 2.629 0 0 1 .04-.49c.35-1.17.84-1.71 1.44-1.84l2.519-.56v1.89z" fill="#9863fc"/><path d="m38 28.11 2.52.56c.6.13 1.09.67 1.44 1.84a2.629 2.629 0 0 1 .04.49c0 4-3.75 6-3.75 6-1.16 0-2.13-1.58-2.24-3.6a9.279 9.279 0 0 0 2.93-3.28l-.94-.12z" fill="#9863fc"/><path d="m54 39.06v7.94h-11v-7c0-4.42 4.68-7 8-7l.09-.1a7.93 7.93 0 0 1 2.91 6.16z" fill="#9863fc"/><path d="m23.121 46.18a8.646 8.646 0 0 1 1.88.55v.27h-11.001v-1.96a13.671 13.671 0 0 0 3.84.32c1.801.25 3.721.54 5.281.82z" fill="#9863fc"/><path d="m27.861 48.64 1.75 1.75-1.611 1.61v.87a2 2 0 0 0 .97 1.71l2.69 1.62a2.007 2.007 0 0 0 2.439-.3l.44-.58 2.681 2.68 1.47-1.47 7.25 5.64c.02.01.04.03.06.04v.79h-24v-13h3v-3.27a8.562 8.562 0 0 1 2.84 1.89z" fill="#ebf5f7"/><path d="m26.361 36.84a15.316 15.316 0 0 0 -1.03-6.26l.669-.08.04.01a2.629 2.629 0 0 0 -.04.49c0 4 3.75 6 3.75 6 1.16 0 2.13-1.58 2.24-3.6a3.665 3.665 0 0 0 4.019 0c.11 2.02 1.08 3.6 2.24 3.6 0 0 3.75-2 3.75-6a2.629 2.629 0 0 0 -.04-.49l.041-.01 4.99.62a7.83 7.83 0 0 1 4.1 1.78l-.09.1c-3.32 0-8 2.58-8 7v10l-.66 1.4-8.07-3.8a2 2 0 0 0 -2.259.39l-.62.62-1.75-1.75-.02-.02a8.793 8.793 0 0 1 -2.44-4.72c-.281-1.56-.57-3.48-.82-5.28z" fill="#ebf5f7"/><path d="m22.651 30.91c1.54 3.67 1.5 7.64-.8 9.94-1.88 1.88-4.89 2.25-7.93 1.47l.079-.32v-2.94a8 8 0 0 1 7.01-7.94z" fill="#9863fc"/><path d="m43 9h-18a8 8 0 0 1 8-8h2a8 8 0 0 1 8 8z" fill="#c9867b"/><path d="m42 14v5a8.1 8.1 0 0 1 -.06.99 8.005 8.005 0 0 1 -13.6 4.67 7.984 7.984 0 0 1 -2.34-5.66v-6h16z" fill="#ffdecf"/><path d="m37.06 26.388a7.766 7.766 0 0 1 -.957.329c-.017.005-.035.008-.052.012a7.906 7.906 0 0 1 -.861.175c-.075.011-.149.022-.224.031a7.887 7.887 0 0 1 -.966.065 7.969 7.969 0 0 1 -3.967-1.059l-.033.059v4l-.94.12a9.279 9.279 0 0 0 2.93 3.28 3.665 3.665 0 0 0 4.019 0 9.279 9.279 0 0 0 2.93-3.28l-.939-.12v-4l-.03-.06a7.822 7.822 0 0 1 -.909.448z" fill="#ffbeaa"/><path d="m25.001 13h1v1h-1z" fill="#ad726a"/><path d="m42 13h1v1h-1z" fill="#ad726a"/><path d="m44 17.5v-.833a1.862 1.862 0 0 0 -2-1.667v4c0 .124-.017.247-.023.373a2.088 2.088 0 0 0 2.023-1.873z" fill="#ffbeaa"/><path d="m50 54.167a2.167 2.167 0 0 1 2.167-2.167h.833v-2h-10l-.658 1.4 7.658 3.6z" fill="#d8e0e8"/><path d="m51.09 32.9a7.83 7.83 0 0 0 -4.1-1.78l-4.99-.62v1.542a28.542 28.542 0 0 1 6.441 1.4 8.248 8.248 0 0 1 2.559-.442z" fill="#fdfeff"/><path d="m58.5 12.33a5 5 0 0 1 -5 0 5 5 0 0 1 -2.389-3.336 4.938 4.938 0 0 0 2.389 5.336 5 5 0 0 0 5 0 5 5 0 0 0 2.5-4.33 4.913 4.913 0 0 0 -.111-1.006 5 5 0 0 1 -2.389 3.336z" fill="#53c495"/><path d="m42 19v-5h1a2.006 2.006 0 0 1 2 2v1a3 3 0 0 1 -3 3l-.06-.01a8.1 8.1 0 0 0 .06-.99z" fill="#ffcdbe"/><path d="m43 9h-1v1a1 1 0 0 1 -1 1h-14a1 1 0 0 1 -1-1v-1h-2v4h20v-4z" fill="#6136d4"/><path d="m26 15a1.862 1.862 0 0 0 -2 1.667v.833a2.088 2.088 0 0 0 2.023 1.873c-.006-.126-.023-.249-.023-.373z" fill="#ffbeaa"/><path d="m42 15v-2h-16v6a7.984 7.984 0 0 0 2.34 5.66 7.838 7.838 0 0 0 1.69 1.28 7.868 7.868 0 0 0 4.97.993 7.968 7.968 0 0 1 -2.969-.993 7.838 7.838 0 0 1 -1.69-1.28 7.984 7.984 0 0 1 -2.341-5.66v-2a2 2 0 0 1 2-2z" fill="#ffcdbe"/><path d="m40 15v4a8.1 8.1 0 0 1 -.06.99 8.009 8.009 0 0 1 -6.94 6.943 7.985 7.985 0 0 0 9-7.933v-4z" fill="#ffe8de"/><path d="m31.21 29.892a1 1 0 0 1 1.2-1.166 13.022 13.022 0 0 0 5.59-.437v-2.289l-.03-.06a7.822 7.822 0 0 1 -.909.448 7.766 7.766 0 0 1 -.957.329c-.017.005-.035.008-.052.012a7.906 7.906 0 0 1 -.861.175c-.075.011-.149.022-.224.031a7.887 7.887 0 0 1 -.967.065 7.969 7.969 0 0 1 -3.967-1.059l-.033.059v4l-.94.12a9.279 9.279 0 0 0 2.93 3.28 3.909 3.909 0 0 0 2.01.6 3.5 3.5 0 0 0 .573-.051c-2.173-.262-3.034-2.407-3.363-4.057z" fill="#faa68e"/><path d="m33.5 33.96a3.508 3.508 0 0 0 .5.04 3.91 3.91 0 0 0 2.01-.6 9.279 9.279 0 0 0 2.93-3.28l-.94-.12s-1.782 3.558-4.5 3.96z" fill="#faa68e"/><path d="m35 4h-2a8 8 0 0 0 -7.414 5h16.828a8 8 0 0 0 -7.414-5z" fill="#ba7b72"/><path d="m50 48a3.965 3.965 0 0 1 -2.62-1h-4.38v3h11v-2z" fill="#2b8ffc"/><path d="m46 44v-5c0-3.22 4.53-4.494 6.3-4.869a7.869 7.869 0 0 0 -1.21-1.231l-.09.1c-3.32 0-8 2.58-8 7v7h4.38a3.972 3.972 0 0 1 -1.38-3z" fill="#6f3ff3"/><path d="m29.061 30.12.939-.12v-1.89l-.975.216v.674a1.768 1.768 0 0 0 -1.7 2.224 3.666 3.666 0 0 0 1.787 2.6 1 1 0 0 1 .45 1.52 1.766 1.766 0 0 1 -1.207.628 7.925 7.925 0 0 0 1.396 1.028c1.16 0 2.13-1.58 2.24-3.6a9.279 9.279 0 0 1 -2.93-3.28z" fill="#6f3ff3"/><path d="m38.466 35.339a1 1 0 0 1 .45-1.52 3.662 3.662 0 0 0 1.786-2.6 1.767 1.767 0 0 0 -1.702-2.219v-.668l-1-.222v1.89l.94.12a9.279 9.279 0 0 1 -2.93 3.28c.11 2.02 1.08 3.6 2.24 3.6a7.911 7.911 0 0 0 1.4-1.035 1.759 1.759 0 0 1 -1.184-.626z" fill="#6f3ff3"/><path d="m26.1 32.034-.1.008v2.958a2 2 0 0 0 2 2h1.75a7.658 7.658 0 0 1 -3.65-4.966z" fill="#c5ced6"/><path d="m36.01 33.4a3.665 3.665 0 0 1 -4.019 0c-.11 2.02-1.08 3.6-2.24 3.6h1.013a2 2 0 0 0 1.789-1.106 1.619 1.619 0 0 1 2.9 0 2 2 0 0 0 1.784 1.106h1.013c-1.16 0-2.13-1.58-2.24-3.6z" fill="#c5ced6"/><path d="m38.25 37h1.75a2 2 0 0 0 2-2v-2.958l-.1-.008a7.658 7.658 0 0 1 -3.65 4.966z" fill="#c5ced6"/><path d="m22 50h-7v2h1a3 3 0 0 1 3 3v8h3z" fill="#faa68e"/><path d="m19.001 50h3 3v-3h-6z" fill="#2b8ffc"/><path d="m23.121 46.18c-1.229-.221-2.68-.446-4.12-.655v1.475h6v-.27a8.646 8.646 0 0 0 -1.88-.55z" fill="#6f3ff3"/><path d="m32.172 45.812h2.517v13.237h-2.517z" fill="#6f3ff3" transform="matrix(.707 -.707 .707 .707 -27.282 38.996)"/><path d="m27.181 42.12a8.793 8.793 0 0 0 2.44 4.72l.02.02-1.78 1.78-.02-.02a8.793 8.793 0 0 0 -4.72-2.44c-1.56-.28-3.48-.57-5.28-.82a9.049 9.049 0 0 0 6.01-2.51 9.069 9.069 0 0 0 2.51-6.01c.25 1.8.539 3.72.82 5.28z" fill="#ebf5f7"/><path d="m17.841 45.36a17.323 17.323 0 0 1 -12.7-5.18c-5.41-5.42-5.32-12.5-.89-16.93s11.51-4.52 16.93.89a17.323 17.323 0 0 1 5.18 12.7 9.069 9.069 0 0 1 -2.51 6.01 9.049 9.049 0 0 1 -6.01 2.51zm-10.82-6.98c4.33 4.32 11.42 5.88 14.83 2.47s1.85-10.5-2.47-14.83-9.77-4.23-13.181-.82-3.5 8.86.821 13.18z" fill="#2b8ffc"/><path d="m22.259 35.475.885-1.082.39-.478a13.412 13.412 0 0 0 -.434-1.755l-1.329-1.087.61-.746q-.222-.473-.478-.934a.49.49 0 0 0 -.148.122l-.755.925-.811-.663-.811-.664 1.3-1.594c-.2-.266-.411-.526-.63-.778a.423.423 0 0 0 -.074.06l-1.374 1.678-.756-.619-.757-.619 1.555-1.9c-.258-.222-.519-.427-.783-.62l-1.547 1.89-.892-.73-.892-.73 1.221-1.494a.508.508 0 0 0 .069-.13 9.984 9.984 0 0 0 -.955-.365l-1.109 1.356-.646-.528-1.261-1.032c0-.008 0-.017 0-.025a.49.49 0 0 0 .023-.211 8.215 8.215 0 0 0 -1.465.177.478.478 0 0 0 .05.173c.005.007 0 .015.007.022l-1.338 1.633-1.113-.909a8.632 8.632 0 0 0 -.851.563.5.5 0 0 0 .078.1l1.252 1.019-.782.957-.455.556-1.541-1.26-.012-.004a8.7 8.7 0 0 0 -.6.794l1.52 1.245-.73.893-.731.892-.9-.739a.5.5 0 0 0 -.19-.095 8.038 8.038 0 0 0 -.246 1.03l.707.578-.811.992a8.842 8.842 0 0 0 .375 2.287l1.322 1.082-.586.716q.236.447.522.887a.454.454 0 0 0 .121-.094l.718-.876.892.73.892.73-1.134 1.384c.062.064.116.131.18.2.173.172.357.332.538.5.007-.008.016-.01.023-.019l1.162-1.42.958.782.555.455-1.131 1.375c-.01.012-.013.027-.022.04.275.19.553.371.837.542l1.09-1.332.151.123 1.472 1.2-.7.858a.461.461 0 0 0 -.071.135q.473.2.952.367l.6-.726 1.164.952.393.321a11.186 11.186 0 0 0 1.427.145.634.634 0 0 0 .007-.075l.591-.723.65-.794 1.553 1.27a6.111 6.111 0 0 0 2.638-1.515 6.2 6.2 0 0 0 1.6-2.934.5.5 0 0 0 -.524.163l-.862 1.054-1.676-1.371 1.238-1.513 1.639 1.355a.491.491 0 0 0 .166.087.53.53 0 0 0 .055.01h.018a8.253 8.253 0 0 0 .154-1.07zm-3.52-5.588.811.663.811.664-.663.811-.664.811-.811-.664-.811-.664zm-10.139 2.502.73-.892.73-.892.892.73.893.73-1.461 1.786-.893-.731-.891-.73zm4.653-.465.619-.756.619-.756.756.619.756.619-1.237 1.513-1.512-1.237zm-.153-1.389-.619.757-1.781-1.461 1.237-1.513 1.785 1.461zm-1.918 3.922 1.439-1.757 1.513 1.238-.023.027-1.438 1.758-.757-.618-.756-.62zm3.726.113.811.664.81.663-1.461 1.784-.811-.663-.811-.664zm1.444-.111-.81-.663 1.238-1.512.811.664.81.663-1.1 1.348-.134.164zm.1-6.443.757.619.756.619-1.326 1.621-.756-.619-.757-.619.663-.811zm-2.558-2.094 1.784 1.46-.663.811-.664.807-1.785-1.46.664-.811zm-2.67-2.182 1.144.935.75.614-1.326 1.621-.947-.775-.945-.775zm-2.094 2.56.135-.164.947.775.946.774-1.1 1.348-.134.164-.947-.775-.947-.774zm-2.467 3.014.731-.892.947.775.946.775-.73.892-.73.892-.947-.774-.947-.775zm-.618 4.621-1.845-1.505a.355.355 0 0 0 -.057-.041l.007-.01 1.144-1.4.947.774.947.775-.7.863zm2.555 2.093-.892-.73-.892-.73 1.149-1.4.892.731.892.73zm2.291 1.872-1.349-1.1-.164-.135 1.148-1.4.756.618.756.619-.574.7zm2.4 1.96-1.622-1.327.574-.7.575-.7.81.663.811.664zm3.6.6-.574.7-.575.7-1.676-1.371 1.149-1.4 1.151.941zm.634-.774-1.232-1.008-.443-.364 1.45-1.783.838.685.838.686-.73.893zm3.911.22-1.336 1.635a.5.5 0 0 0 -.094.177l-1.707-1.4.73-.892.731-.892zm-1.765-2.842-.052.064-.838-.686-.839-.686.783-.958.454-.555.838.685.838.686zm1.819-2.224-.838-.685-.839-.686.123-.151 1.2-1.472 1.676 1.372-1 1.223z" fill="#d8e0e8"/><path d="m20.089 25.313c-4.465-4.465-10.6-4.808-14.594-.819s-3.645 10.128.82 14.6a15.791 15.791 0 0 0 10.535 4.635 7.851 7.851 0 0 0 5.708-2.166c4.052-4.058 1.951-11.819-2.469-16.25zm1.762 15.537c-3.41 3.41-10.5 1.85-14.83-2.47s-4.23-9.77-.821-13.18 8.86-3.5 13.18.82 5.881 11.42 2.471 14.83z" fill="#2864f0"/><path d="m23.851 42.85a9.049 9.049 0 0 1 -6.01 2.51c1.8.25 3.72.54 5.28.82a8.844 8.844 0 0 1 1.88.572v-5.37a7.836 7.836 0 0 1 -1.15 1.468z" fill="#6f3ff3"/><path d="m23.209 45.688c-1.156-.207-2.439-.408-3.591-.578a11.2 11.2 0 0 1 -1.777.25c1.8.25 3.72.54 5.28.82a8.793 8.793 0 0 1 4.72 2.44l.02.02.349-.349c-.007-.008-.009-.017-.016-.024a9.243 9.243 0 0 0 -4.985-2.579z" fill="#2864f0"/><path d="m27.181 42.12c-.28-1.56-.57-3.48-.82-5.28a11.225 11.225 0 0 1 -.251 1.775c.171 1.152.371 2.435.578 3.591a9.267 9.267 0 0 0 2.59 5l.348-.359-.005-.006a8.793 8.793 0 0 1 -2.44-4.721z" fill="#2864f0"/><path d="m32.356 46.257h1.259v13.237h-1.259z" fill="#6136d4" transform="matrix(.707 -.707 .707 .707 -27.727 38.81)"/><path d="m31.391 48.61.62-.62a2 2 0 0 1 2.259-.39l8.07 3.8.66-1.4h10v7.24a4.031 4.031 0 0 1 -.28 1.46l-.73 1.84a3.937 3.937 0 0 1 -3.64 2.46 3.827 3.827 0 0 1 -2.35-.79c-.02-.01-.04-.03-.06-.04l-7.25-5.64.31-.31-2.95-2.95-1.51 2.05-.44.58a2.007 2.007 0 0 1 -2.439.3l-2.69-1.62a2 2 0 0 1 -.971-1.71v-.87l1.61-1.61z" fill="#ffbeaa"/><path d="m47.477 59a4.316 4.316 0 0 1 -2.529-.821l-6.695-5.207a1.553 1.553 0 0 0 -2.2.3l2.947 2.948-.31.31 7.25 5.64c.02.01.04.03.06.04a3.827 3.827 0 0 0 2.35.79 3.891 3.891 0 0 0 1.65-.37v-1a2.627 2.627 0 0 0 -2.523-2.63z" fill="#faa68e"/><path d="m32.981 50.019a2 2 0 0 1 2.309-.374l13.263 6.631a1 1 0 0 0 1.447-.894v-.382l-7.658-3.6-8.069-3.8a1.981 1.981 0 0 0 -1.6-.026 1.951 1.951 0 0 0 -.666.42l-.616.616-1.78 1.78-1.611 1.61.536.322a2 2 0 0 0 2.443-.3z" fill="#ffcdbe"/><path d="m43 50v1.706l7 3.294v-.833a2.167 2.167 0 0 1 2.167-2.167h.833v-2z" fill="#faa68e"/><path d="m44.392 60.966a59.473 59.473 0 0 1 -14.039-2.143 7.294 7.294 0 0 1 -5.353-7.023v-1.8h-3v13h24v-.79c-.02-.01-.04-.03-.06-.04z" fill="#d8e0e8"/><g fill="#2cb5ff"><rect height="6" rx="1" width="2" x="52" y="17"/><rect height="3" rx="1" width="2" x="52" y="24"/><rect height="6" rx="1" width="2" x="55" y="17"/><rect height="3" rx="1" width="2" x="55" y="24"/><rect height="6" rx="1" width="2" x="58" y="17"/><rect height="3" rx="1" width="2" x="58" y="24"/></g><path d="m35 18.857c0 1.657-.448 2.143-1 2.143s-1-.486-1-2.143.448-3.857 1-3.857 1 2.2 1 3.857z" fill="#fbb39f"/><path d="m31 22h6s0 2-3 2-3-2-3-2z" fill="#f2987e"/><ellipse cx="38" cy="15" fill="#8a6364" rx="1" ry="2"/><ellipse cx="30" cy="15" fill="#8a6364" rx="1" ry="2"/><rect fill="#7f52ff" height="2" rx="1" width="8" x="27.001" y="9"/><rect fill="#7f52ff" height="2" rx="1" width="4" x="36" y="9"/><path d="m53.09 5.93a4.933 4.933 0 0 0 -.389.317 7.8 7.8 0 0 1 1.549 3.753 4.011 4.011 0 0 1 -.572 1.963 5.38 5.38 0 0 0 -.649 2.053 5.139 5.139 0 0 0 .471.314 4.949 4.949 0 0 0 .443.222.479.479 0 0 0 .057-.216 4.05 4.05 0 0 1 .572-1.926 5 5 0 0 0 .678-2.41 9.089 9.089 0 0 0 -1.731-4.331 4.808 4.808 0 0 0 -.429.261z" fill="#ebf5f7"/><path d="m57.75 10a7.8 7.8 0 0 1 1.55-3.753 4.933 4.933 0 0 0 -.389-.317 4.808 4.808 0 0 0 -.429-.261 9.089 9.089 0 0 0 -1.732 4.331 5 5 0 0 0 .678 2.41 4.038 4.038 0 0 1 .572 1.926.492.492 0 0 0 .057.216 4.949 4.949 0 0 0 .443-.222 5.006 5.006 0 0 0 .471-.314 5.38 5.38 0 0 0 -.649-2.053 4.022 4.022 0 0 1 -.572-1.963z" fill="#ebf5f7"/><path d="m53.5 12.33a5 5 0 0 1 -2.389-3.336 4.922 4.922 0 0 0 1.918 5.022 4.88 4.88 0 0 1 .472-1.685z" fill="#53c495"/><path d="m57.586 12.734a4.858 4.858 0 0 1 -3.171 0 3.561 3.561 0 0 0 -.415 1.6.479.479 0 0 1 -.057.216 4.946 4.946 0 0 0 4.114 0 .492.492 0 0 1 -.057-.214 3.561 3.561 0 0 0 -.414-1.602z" fill="#53c495"/><path d="m61 10a4.913 4.913 0 0 0 -.111-1.006 5 5 0 0 1 -2.389 3.336 4.88 4.88 0 0 1 .472 1.685 4.994 4.994 0 0 0 2.028-4.015z" fill="#53c495"/><path d="m53.029 14.016a5.139 5.139 0 0 0 .471.314 5.139 5.139 0 0 1 -.471-.314z" fill="#ebf5f7"/><path d="m53.943 14.552a4.949 4.949 0 0 1 -.443-.222 4.949 4.949 0 0 0 .443.222z" fill="#ebf5f7"/><path d="m54.415 12.734a4.832 4.832 0 0 1 -.914-.4 4.88 4.88 0 0 0 -.472 1.685 5.139 5.139 0 0 0 .471.314 4.949 4.949 0 0 0 .443.222.479.479 0 0 0 .057-.219 3.561 3.561 0 0 1 .415-1.602z" fill="#cdd6de"/><path d="m58.057 14.552a4.949 4.949 0 0 0 .443-.222 4.949 4.949 0 0 1 -.443.222z" fill="#ebf5f7"/><path d="m58.971 14.016a5.006 5.006 0 0 1 -.471.314 5.006 5.006 0 0 0 .471-.314z" fill="#ebf5f7"/><path d="m57.586 12.734a3.561 3.561 0 0 1 .414 1.6.492.492 0 0 0 .057.216 4.949 4.949 0 0 0 .443-.222 5.006 5.006 0 0 0 .471-.314 4.88 4.88 0 0 0 -.472-1.685 4.851 4.851 0 0 1 -.913.405z" fill="#cdd6de"/><circle cx="34" cy="37" fill="#9863fc" r="1"/><circle cx="34" cy="41" fill="#9863fc" r="1"/><ellipse cx="50.684" cy="38.695" fill="#f6fafd" rx="1.642" ry="2.285" transform="matrix(.707 -.707 .707 .707 -12.513 47.192)"/><ellipse cx="51.682" cy="42.708" fill="#f6fafd" rx=".825" ry="1.148" transform="matrix(.707 -.707 .707 .707 -15.06 49.074)"/><ellipse cx="56.428" cy="7.208" fill="#f6fafd" rx=".413" ry=".574" transform="matrix(.707 -.707 .707 .707 11.441 42.026)"/></g></svg>