<svg height="512" viewBox="0 0 64 64" width="512" xmlns="http://www.w3.org/2000/svg"><g id="_29-weightlifting" data-name="29-weightlifting"><path d="m25 25v1h-1a1.862 1.862 0 0 0 -2 1.67v-3.67a10 10 0 0 1 20 0v3.67a1.862 1.862 0 0 0 -2-1.67h-1v-1c-1.66 0-3-1-4-3-2 2-3.92 3-10 3z" fill="#333940"/><path d="m6 1v16h-3v-8-8z" fill="#2b8ffc"/><path d="m61 9v8h-3v-16h3z" fill="#2b8ffc"/><path d="m9 9v8h-3v-16h3z" fill="#7f52ff"/><path d="m58 1v16h-3v-8-8z" fill="#7f52ff"/><path d="m20 7 .09.03a1.267 1.267 0 0 0 -.09.47v1.5h-7v-4a2.006 2.006 0 0 1 2-2h3a2.006 2.006 0 0 1 2 2z" fill="#faa592"/><path d="m51 5v4h-7v-1.5a1.267 1.267 0 0 0 -.09-.47l.09-.03v-2a2.006 2.006 0 0 1 2-2h3a2.006 2.006 0 0 1 2 2z" fill="#faa592"/><path d="m44.39 57.09-1.39 5.91h-22l-1.39-5.91.39-.09c4 0 4-6 4-6v-5l2-8 3 2v1a3 3 0 0 0 6 0v-1l3-2 2 8v5s0 6 4 6z" fill="#2b8ffc"/><path d="m25 30.7a1.514 1.514 0 0 0 .02.3h-.02a2.783 2.783 0 0 1 -3-2.5v-.83a1.862 1.862 0 0 1 2-1.67h1z" fill="#faa592"/><path d="m42 28v.5a2.783 2.783 0 0 1 -3 2.5h-.02a1.514 1.514 0 0 0 .02-.3v-4.7h1a1.862 1.862 0 0 1 2 1.67z" fill="#faa592"/><path d="m35 40v1a3 3 0 0 1 -6 0v-3.71a6.693 6.693 0 0 0 6 0z" fill="#e68d79"/><path d="m35 37.29a6.693 6.693 0 0 1 -6 0 7.255 7.255 0 0 1 -3.98-6.29 1.514 1.514 0 0 1 -.02-.3v-5.7c6.08 0 8-1 10-3 1 2 2.34 3 4 3v5.7a1.514 1.514 0 0 1 -.02.3 7.292 7.292 0 0 1 -2.03 4.86 6.683 6.683 0 0 1 -1.95 1.43z" fill="#faa592"/><path d="m38 38 6-4c-1 1-4 5.37-4 12z" fill="#ba7b72"/><path d="m26 38-2 8c0-6.63-3-11-4-12z" fill="#ba7b72"/><path d="m52 25v1.97a74.085 74.085 0 0 1 -.44 8.03 20.7 20.7 0 0 1 -3.35 9.18l-1.21 1.82-2.61 11.09-.39-.09c-4 0-4-6-4-6v-5c0-6.63 3-11 4-12l2-9-1-11-4-3v-3.5a1.5 1.5 0 0 1 1.5-1.5 1.459 1.459 0 0 1 1.41 1.03 1.267 1.267 0 0 1 .09.47v1.5h7z" fill="#faa592"/><path d="m24 46v5s0 6-4 6l-.39.09-2.61-11.09-1.21-1.82a20.7 20.7 0 0 1 -3.35-9.18 74.085 74.085 0 0 1 -.44-8.03v-1.97l1-16h7v-1.5a1.267 1.267 0 0 1 .09-.47 1.459 1.459 0 0 1 1.41-1.03 1.5 1.5 0 0 1 1.5 1.5v3.5l-4 3-1 11 2 9c1 1 4 5.37 4 12z" fill="#faa592"/><path d="m51.328 14.254-.328-5.254h-7v-1.5a1.267 1.267 0 0 0 -.09-.47 1.459 1.459 0 0 0 -1.41-1.03 1.5 1.5 0 0 0 -1.5 1.5v3.5l4 3 4 2z" fill="#f29b87"/><path d="m19 14 4-3v-3.5a1.5 1.5 0 0 0 -1.5-1.5 1.459 1.459 0 0 0 -1.41 1.03 1.267 1.267 0 0 0 -.09.47v1.5h-7l-.328 5.254 2.328 1.746z" fill="#f29b87"/><path d="m40 24h-1v-1c-1.66 0-3-2-4-4-2 2-3.92 4-10 4v1h-1a1.862 1.862 0 0 0 -2 1.67v2a1.862 1.862 0 0 1 2-1.67h1v-1c6.08 0 8-1 10-3 1 2 2.34 3 4 3v1h1a1.862 1.862 0 0 1 2 1.67v-2a1.862 1.862 0 0 0 -2-1.67z" fill="#2a2e33"/><path d="m32 14a10 10 0 0 0 -10 10v2a10 10 0 0 1 20 0v-2a10 10 0 0 0 -10-10z" fill="#414952"/><path d="m41 29v-.664c0-.736-.9-1.336-2-1.336v3.7c0 .06-.008.12-.012.18 1.17-.273 2.012-1.008 2.012-1.88z" fill="#e68d79"/><path d="m23 29v-.664c0-.736.9-1.336 2-1.336v3.7c0 .06.008.12.012.18-1.17-.273-2.012-1.008-2.012-1.88z" fill="#e68d79"/><path d="m20 34-2-9 1-11-4 2v3c0 .7.005 1.382.013 2.062a126.583 126.583 0 0 0 .858 14.143 2 2 0 0 0 3.912.256l.357-1.309c-.048-.052-.098-.11-.14-.152z" fill="#f29b87"/><path d="m18.74 16 .084-.059.176-1.941-4 2-2.328-1.746-.148 2.368 1.006.709a2 2 0 0 0 2 .175z" fill="#e68d79"/><path d="m45 14 1 11-2 9c-.042.042-.092.1-.14.152l.383 1.405a2 2 0 0 0 3.913-.255 120.539 120.539 0 0 0 .844-14.392q0-.453 0-.91a6.472 6.472 0 0 0 -3.578-5.789z" fill="#f29b87"/><path d="m48 42c-.379 0 .3-.1 0 0a2.617 2.617 0 0 1 -2.526-1.93l-1.614-5.918a18.69 18.69 0 0 0 -3.86 11.848v5s.009 5.033 3.094 5.87a3.386 3.386 0 0 0 .906.13l.39.09 2.61-11.09 1.21-1.82a20.716 20.716 0 0 0 1.268-2.18z" fill="#e68d79"/><path d="m48 42h-1c-2.211 0-3 1.789-3 4l1 5.011-.6-2.985a6.859 6.859 0 0 1 -1.921 2.667c-.993-2.909-1.309-7.156-1.453-11.215a20.822 20.822 0 0 0 -1.026 6.522v5s.009 5.033 3.094 5.87a3.386 3.386 0 0 0 .906.13l.39.09.823-3.5.165-.7 1.622-6.89 1.21-1.82a20.716 20.716 0 0 0 1.268-2.18z" fill="#d47c69"/><path d="m51 9h-7v-1.5a1.267 1.267 0 0 0 -.09-.47 1.444 1.444 0 0 0 -.91-.942v2.912a2 2 0 0 0 2 2h3a2 2 0 0 1 2 2v2.25l1.328-1z" fill="#e68d79"/><path d="m49 3h-3a2 2 0 0 0 -1.721 1h4.721a1 1 0 0 1 1 1v2a1 1 0 0 0 1 1v-3a2.006 2.006 0 0 0 -2-2z" fill="#ffbeaa"/><path d="m50.945 17 .531-.375-.148-2.368-2.328 1.743-4-2 .176 1.941.084.059 2.683 1.259a3 3 0 0 0 3.002-.259z" fill="#e68d79"/><path d="m32 38a6.6 6.6 0 0 1 -3-.71v3.71a2.982 2.982 0 0 0 1 2.224v-2.5a1 1 0 0 1 1.288-.951 5.149 5.149 0 0 0 3.712-.773v-1.71a6.6 6.6 0 0 1 -3 .71z" fill="#d47c69"/><path d="m16 42c.379 0-.3-.1 0 0a2.617 2.617 0 0 0 2.526-1.93l1.614-5.918a18.69 18.69 0 0 1 3.86 11.848v5s-.009 5.033-3.094 5.87a3.386 3.386 0 0 1 -.906.13l-.39.09-2.61-11.09-1.21-1.82a20.716 20.716 0 0 1 -1.268-2.18z" fill="#e68d79"/><path d="m23.03 39.66c.071 1.934.148 7.7-1.217 11.317-1.08-.139-1.849-1.43-2.306-2.51l.493-2.467c0-2.211-.789-4-3-4h-2.478a20.716 20.716 0 0 0 1.268 2.18l1.21 1.82 1.622 6.891.264 1.121.724 3.078.39-.09a3.386 3.386 0 0 0 .906-.13c3.085-.837 3.094-5.87 3.094-5.87v-5a20.878 20.878 0 0 0 -.97-6.34z" fill="#d47c69"/><path d="m13 9h7v-1.5a1.267 1.267 0 0 1 .09-.47 1.444 1.444 0 0 1 .91-.942v2.912a2 2 0 0 1 -2 2h-3a2 2 0 0 0 -2 2v2.25l-1.328-1z" fill="#e68d79"/><path d="m15 3h3a2 2 0 0 1 1.721 1h-4.721a1 1 0 0 0 -1 1v2a1 1 0 0 1 -1 1v-3a2.006 2.006 0 0 1 2-2z" fill="#ffbeaa"/><path d="m35 22c-1.764 1.764-3.469 2.749-8.016 2.957-.3.014-.615.025-.942.032s-.68.011-1.042.011v5.7a1.514 1.514 0 0 0 .02.3 7.255 7.255 0 0 0 3.98 6.29 6.6 6.6 0 0 0 3 .71 6.848 6.848 0 0 0 1-.082 6.592 6.592 0 0 1 -2-.628 7.255 7.255 0 0 1 -3.98-6.29 1.514 1.514 0 0 1 -.02-.3v-1.9a2 2 0 0 1 1.764-1.983 9.08 9.08 0 0 0 6.236-2.817c1 2 2.34 3 4 3v-2c-1.66 0-3-1-4-3z" fill="#e68d79"/><path d="m37 30.7a1.514 1.514 0 0 1 -.02.3 7.292 7.292 0 0 1 -2.03 4.86 6.683 6.683 0 0 1 -1.95 1.43 6.592 6.592 0 0 1 -2 .628 6.848 6.848 0 0 0 1 .082 6.6 6.6 0 0 0 3-.71 6.683 6.683 0 0 0 1.95-1.43 7.292 7.292 0 0 0 2.03-4.86 1.514 1.514 0 0 0 .02-.3v-3.7a3.636 3.636 0 0 1 -2-.593z" fill="#ffb8a8"/><path d="m58.438 13h-.438v4h3v-8l-.621 2.485a2 2 0 0 1 -1.941 1.515z" fill="#2357d1"/><path d="m57.562 13a2 2 0 0 1 -1.941-1.515l-.621-2.485v8h3v-4z" fill="#5931c2"/><path d="m6.438 13h-.438v4h3v-8l-.621 2.485a2 2 0 0 1 -1.941 1.515z" fill="#5931c2"/><path d="m5.562 13a2 2 0 0 1 -1.941-1.515l-.621-2.485v8h3v-4z" fill="#2357d1"/><path d="m38 38-3 2v1a2.968 2.968 0 0 1 -.627 1.813l4.294-2.146z" fill="#2cb5ff"/><path d="m20 57-.39.09 1.39 5.91h2.818l-1.3-7.173a3.155 3.155 0 0 1 -2.518 1.173z" fill="#2864f0"/><path d="m29 41v-1l-3-2-.667 2.667 4.287 2.143a2.972 2.972 0 0 1 -.62-1.81z" fill="#2cb5ff"/><path d="m44.39 57.09-.39-.09a3.155 3.155 0 0 1 -2.514-1.173l-1.304 7.173h2.818z" fill="#2864f0"/><path d="m23 8h18v2h-18z" fill="#333940"/><path d="m61 8h2v2h-2z" fill="#2a2e33"/><path d="m1 8h2v2h-2z" fill="#333940"/><path d="m33 29.857c0 1.657-.448 2.143-1 2.143s-1-.486-1-2.143.448-3.857 1-3.857 1 2.2 1 3.857z" fill="#e68d79"/><ellipse cx="36" cy="26" fill="#2a2e33" rx="1" ry="2"/><path d="m27 26c0 1.105.447 2 1 2s1-.895 1-2a3.442 3.442 0 0 0 -.2-1.183c-.5.058-1.053.1-1.65.132a3.571 3.571 0 0 0 -.15 1.051z" fill="#2a2e33"/><ellipse cx="32" cy="35" fill="#fde8e6" rx="1" ry="2"/><path d="m51 8v1h-7v1h7 4v-2z" fill="#333940"/><path d="m13 8v1h7v1h-7-4v-2z" fill="#333940"/><path d="m32 45a4 4 0 0 0 4-4v-1.667l-1 .667v1a3 3 0 0 1 -6 0v-1l-1-.667v1.667a4 4 0 0 0 4 4z" fill="#e1eaf2"/><path d="m44 57c-4 0-4-6-4-6v-5l-2-8-.883.589 1.883 7.534v4.877c0 2.421 1.045 7 5 7a.948.948 0 0 0 .185-.037l.2-.873z" fill="#e1eaf2"/><path d="m25 51v-4.877l1.883-7.534-.883-.589-2 8v5s0 6-4 6l-.39.09.205.873a.948.948 0 0 0 .185.037c3.955 0 5-4.579 5-7z" fill="#e1eaf2"/><g fill="#f6fafd"><ellipse cx="36.684" cy="54.695" rx="1.642" ry="2.286" transform="matrix(.707 -.707 .707 .707 -27.935 41.981)"/><ellipse cx="36.682" cy="50.708" rx=".825" ry="1.148" transform="matrix(.707 -.707 .707 .707 -25.116 40.811)"/><ellipse cx="59.427" cy="3.208" rx=".413" ry=".574" transform="matrix(.707 -.707 .707 .707 15.151 42.976)"/><ellipse cx="4.427" cy="3.208" rx=".413" ry=".574" transform="matrix(.707 -.707 .707 .707 -.972 4.072)"/></g></g></svg>