<svg id="Flat" enable-background="new 0 0 78 123.89" height="512" viewBox="0 0 78 123.89" width="512" xmlns="http://www.w3.org/2000/svg"><g><path d="m59.89 83.84c-5.29-4.79-10.67-7.28-14.65-8.58l-6.15 10.97-6.06-11.06c-4.19 1.33-10.04 4.01-15.69 9.4-7.58 7.19-14.83 19.23-17.34 39.32h14s.7-6.92 3.52-11.56l.48 11.56h42l.48-11.56c2.82 4.64 3.52 11.56 3.52 11.56h14c-2.6-20.79-10.26-32.94-18.11-40.05z" fill="#d6eae8"/><path d="m45.18 66.83.03 8.36.03.07-6.213 15.489-5.997-15.579-.01-.03-.02-8.25z" fill="#fec4b9"/><path d="m17.2 51.85c-2.7.32-5.51-1.6-6.68-4.78-1.35-3.67.01-7.63 3.04-8.83.29-.12.59-.2.89-.25 0 .01.01.01.01.01z" fill="#f7b6ad"/><path d="m63.546 37.99c.3.05.6.13.89.25 3.03 1.2 4.39 5.16 3.04 8.83-1.17 3.18-3.98 5.1-6.68 4.78z" fill="#f7b6ad"/><path d="m63.546 37.99c.3-2.93.454-6.04.457-9.046l-.01-.2.018-1.239-49.979.225-.032 1.16c0 3.08.16 6.16.45 9.1 0 .01.01.01.01.01z" fill="#472d1c"/><path d="m63.548 37.988c-.52 5.3-1.48 10.18-2.75 13.86h-.01c-.54 1.59-1.14 2.96-1.79 4.04-2.29 3.81-7.49 8.79-13.82 10.94-1.97.67-4.05 1.06-6.18 1.06-2.07 0-4.09-.37-6-1-6.42-2.11-11.69-7.15-14-11-.65-1.08-1.25-2.45-1.79-4.04h-.01c-1.27-3.68-2.23-8.55-2.74-13.85.24-.24 8.18-8.09 13.77-9.28v-.04h21.9v.04c5.68 1.21 13.297 9.105 13.297 9.105l.123.115z" fill="#fec4b9"/><circle cx="49" cy="37.89" fill="#543927" r="2"/><circle cx="29" cy="37.89" fill="#543927" r="2"/><path d="m59.89 83.84-.06.07-20.85 34.89-21.62-34.21-.02-.02c5.65-5.39 11.5-8.07 15.69-9.4l6.06 11.06 6.15-10.97c3.98 1.3 9.36 3.79 14.65 8.58z" fill="#ffc05a"/><path d="m23.22 0h15.78 15.78c1.74 0 3.38.85 4.38 2.28 4.32 6.2 5.61 19.02 5.74 20.44l.004.957h-51.877l.073-.957c.13-1.41 1.42-14.24 5.74-20.44 1-1.43 2.64-2.28 4.38-2.28z" fill="#ffc05a"/><path d="m64.9 22.72h1.65v5.96h-2.56-13.86-21.9-14.23-2.77v-5.96h1.87z" fill="#d6eae8"/><path d="m24.908 0c-.391 1.389-.769 3.085-.855 4.937-1.496.421-2.603 1.784-2.603 3.413 0 .111.019.214.028.321-1.053.851-2.129 3.175-1.998 9.191.012.544.457.978 1 .978h.021c.553-.012.99-.47.979-1.022-.097-4.435.5-6.325.903-7.1.22.245.465.462.743.636-.183 1.162-.306 3.475-.197 8.289.013.544.458.977 1 .977h.022c.553-.012.99-.47.978-1.022-.108-4.711.021-6.794.13-7.693.758-.011 1.484-.278 2.088-.734.421.643 1.142 2.458 1.032 7.288-.013.552.425 1.01.978 1.022h.022c.542 0 .987-.433 1-.978.128-5.671-.813-8.052-1.8-9.018.124-.365.19-.746.19-1.135 0-1.597-1.064-2.936-2.516-3.385.084-1.642.589-3.697.947-4.965z" fill="#e58e1a"/><path d="m24.3 10.8c-.79-.22-1.42-.81-1.69-1.58-.11-.27-.16-.57-.16-.87 0-1.42 1.15-2.56 2.56-2.56s2.56 1.14 2.56 2.56c0 .56-.19 1.09-.5 1.52-.47.63-1.22 1.04-2.06 1.04-.25 0-.49-.04-.71-.11z" fill="#d14b62"/><path d="m52.279 34.43c-.198 0-.399-.059-.574-.182-1.813-1.275-4.419-.848-4.444-.843-.543.095-1.061-.271-1.154-.814-.095-.543.267-1.06.81-1.156.138-.024 3.439-.582 5.939 1.177.452.317.561.941.243 1.393-.196.277-.505.425-.82.425z" fill="#472d1c"/><path d="m25.721 34.43c-.314 0-.624-.148-.819-.425-.317-.452-.209-1.076.243-1.393 2.501-1.759 5.801-1.202 5.939-1.177.544.096.907.615.811 1.159-.095.543-.607.9-1.156.812-.047-.008-2.638-.427-4.443.843-.176.122-.377.181-.575.181z" fill="#472d1c"/><path d="m39 42.6c-1.079 0-2.18-.158-3.273-.468-.531-.151-.84-.704-.688-1.235.151-.532.7-.84 1.235-.688 1.83.521 3.623.521 5.453 0 .531-.15 1.084.157 1.235.688s-.157 1.084-.688 1.235c-1.094.31-2.195.468-3.274.468z" fill="#ea8d81"/><path d="m45.2 72.741-.02-5.911c-1.97.67-4.05 1.06-6.18 1.06-2.07 0-4.09-.37-6-1l.01 4.298s3.65 2.2 12.19 1.553z" fill="#f7b6ad"/><g fill="#c3ddda"><path d="m62.298 104.06-.299-4.128c.023-.552-.405-1.018-.957-1.041-.569-.022-1.018.406-1.041.957l.479 12.482c2.83 4.64 3.52 11.56 3.52 11.56h7.782c-.02-.194-6.91-4.915-9.484-19.83z"/><path d="m14.809 104.06.299-4.128c-.023-.552.405-1.018.957-1.041.569-.022 1.018.406 1.041.957l.414 12.482c-2.83 4.64-3.52 11.56-3.52 11.56h-7.782c.019-.194 6.016-4.915 8.591-19.83z"/></g></g></svg>