<svg height="512" viewBox="0 0 64 64" width="512" xmlns="http://www.w3.org/2000/svg"><g id="_28-surf_board" data-name="28-surf board"><path d="m9.467 37.228c6.188-7.417 20.95-22.784 27-28.829 11.164-11.165 25.519-6.38 25.519-6.38s4.785 14.355-6.38 25.519c-8.227 8.222-27.59 26.453-36.406 32.992a11.492 11.492 0 0 1 -9.849 2.1 6.124 6.124 0 0 0 -.8-7.177 6.124 6.124 0 0 0 -7.177-.8 11.492 11.492 0 0 1 2.096-9.853c1.722-2.325 3.772-4.9 5.997-7.572z" fill="#6f3ff3"/><path d="m5.97 42.3a11.492 11.492 0 0 0 -2.1 9.849 6.124 6.124 0 0 1 7.177.8l50.934-50.93s-14.022-4.664-25.127 6.008c-6.861 6.973-19.326 20.036-24.887 26.701-2.225 2.672-4.274 5.247-5.997 7.572z" fill="#9863fc"/><path d="m21.7 58.03a11.492 11.492 0 0 1 -9.849 2.1 6.124 6.124 0 0 0 -.8-7.177l-2.5 2.5a6.124 6.124 0 0 1 .8 7.177 11.492 11.492 0 0 0 9.849-2.1c1.6-1.189 3.561-2.769 5.732-4.6l-.236-.236c-1.096.881-2.104 1.672-2.996 2.336z" fill="#5931c2"/><path d="m3.873 52.153a11.492 11.492 0 0 1 2.097-9.853c.714-.966 1.5-1.982 2.312-3.022l-.282-.278c-1.656 2.038-3.193 4-4.53 5.8a11.492 11.492 0 0 0 -2.1 9.849 6.124 6.124 0 0 1 7.177.8l2.5-2.5a6.124 6.124 0 0 0 -7.174-.796z" fill="#6f3ff3"/><path d="m52 39.64v23.36h-7v-20c0-4.78 2.08-8.7 4.69-8.98a7.964 7.964 0 0 1 2.31 5.62z" fill="#2cb5ff"/><path d="m12 39.64v23.36h7v-20c0-4.78-2.08-8.7-4.69-8.98a7.964 7.964 0 0 0 -2.31 5.62z" fill="#2cb5ff"/><path d="m49.32 33.67a8.074 8.074 0 0 0 -3.85-1.89l-6.51-1.22c-.32 3.06-3.31 5.44-6.96 5.44s-6.64-2.38-6.96-5.44l-6.51 1.22a8.038 8.038 0 0 0 -4.213 2.241c2.607.287 4.683 4.203 4.683 8.979v20h26v-20c0-4.78 2.08-8.7 4.69-8.98-.12-.12-.24-.24-.37-.35zm-9.32 14.33a2.006 2.006 0 0 1 -2 2h-15c2.76 0 5-3 6-6a3.7 3.7 0 0 1 2 3 6.889 6.889 0 0 0 4-5v5s3-1 5-6z" fill="#2864f0"/><path d="m43 16v1a3 3 0 0 1 -3 3l-.06-.01a8.1 8.1 0 0 0 .06-.99v-5h1a2.006 2.006 0 0 1 2 2z" fill="#e68d79"/><path d="m41.8 4.23a5.608 5.608 0 0 1 .19 1.89l-.99 7.88h-1v-2l-2-3h-12l-2 3v2h-1l-.99-7.88c-.18-2.76 1.55-5.12 3.74-5.12h12.49a3.935 3.935 0 0 1 3.56 3.23z" fill="#e9aa70"/><path d="m40 41v7a2.006 2.006 0 0 1 -2 2h-15c2.76 0 5-3 6-6a3.7 3.7 0 0 1 2 3 6.889 6.889 0 0 0 4-5v5s3-1 5-6z" fill="#ebf5f7"/><path d="m40 14v5a8.1 8.1 0 0 1 -.06.99 7.993 7.993 0 0 1 -11.91 5.95 7.838 7.838 0 0 1 -1.69-1.28 8.122 8.122 0 0 1 -2.09-3.66 8.561 8.561 0 0 1 -.19-1.01 8.1 8.1 0 0 1 -.06-.99v-7l2-3h12l2 3z" fill="#e68d79"/><path d="m36 30 2.96.56c-.32 3.06-3.31 5.44-6.96 5.44s-6.64-2.38-6.96-5.44l2.96-.56c0 1.66 1.79 3 4 3s4-1.34 4-3z" fill="#c5ced6"/><path d="m36 26v4c0 1.66-1.79 3-4 3s-4-1.34-4-3v-4l.03-.06a7.964 7.964 0 0 0 7.94 0z" fill="#e68d79"/><path d="m24.06 19.99-.06.01a3 3 0 0 1 -3-3v-1a2.006 2.006 0 0 1 2-2h1v5a8.1 8.1 0 0 0 .06.99z" fill="#e68d79"/><path d="m42 17.5v-.833a1.862 1.862 0 0 0 -2-1.667v4c0 .124-.017.247-.023.373a2.088 2.088 0 0 0 2.023-1.873z" fill="#d47c69"/><path d="m24 15a1.862 1.862 0 0 0 -2 1.667v.833a2.088 2.088 0 0 0 2.023 1.873c-.007-.126-.023-.249-.023-.373z" fill="#bd6555"/><path d="m24.929 3.1a3.177 3.177 0 0 1 .82-.1h12.491a3.814 3.814 0 0 1 3.66 3.147l.094-.817a3.912 3.912 0 0 0 -3.754-4.33h-12.491a3.177 3.177 0 0 0 -.82.1 3.975 3.975 0 0 0 -2.92 4.23l.091.8a3.884 3.884 0 0 1 2.829-3.03z" fill="#e9b789"/><path d="m39 7h-14.001l-2.578 1.934.578 5.066h1v-2l2-3h12.001l2 3v2h1l.578-5.066z" fill="#c7874e"/><path d="m27.059 22.97a7.79 7.79 0 0 1 -.78-1.85 8.36 8.36 0 0 1 -.22-1.13 8.1 8.1 0 0 1 -.059-.99v-5.031a3.075 3.075 0 0 1 3.12-2.969h10.213l-1.333-2h-12l-1.333 2-.667 1v7a8.1 8.1 0 0 0 .06.99 8.36 8.36 0 0 0 .22 1.13 8.3 8.3 0 0 0 2.06 3.54 7.91 7.91 0 0 0 6.66 2.271 8.028 8.028 0 0 1 -4.66-2.271 7.838 7.838 0 0 1 -1.281-1.69z" fill="#d47c69"/><path d="m39.333 11h-2.068a6.593 6.593 0 0 1 .735 3v5a8.1 8.1 0 0 1 -.06.99 8.054 8.054 0 0 1 -2.78 5.12 7.935 7.935 0 0 1 -4.16 1.821 8.063 8.063 0 0 0 1 .069 7.941 7.941 0 0 0 5.16-1.89 8.054 8.054 0 0 0 2.78-5.12 8.1 8.1 0 0 0 .06-.99v-7z" fill="#faa592"/><path d="m32.235 28.828a8.536 8.536 0 0 0 3.765-.435v-2.393l-.03-.06a7.964 7.964 0 0 1 -7.94 0l-.03.06v4a2.968 2.968 0 0 0 2 2.585v-1.776a1.985 1.985 0 0 1 2.235-1.981z" fill="#bd6555"/><path d="m51 60a4 4 0 0 1 -4-4v-14c0-4.846 2.608-6.429 3.611-6.859a7.924 7.924 0 0 0 -.921-1.121c-2.61.28-4.69 4.2-4.69 8.98v20h7v-3z" fill="#2b8ffc"/><path d="m14.31 34.02a7.924 7.924 0 0 0 -.921 1.121c1.003.43 3.611 2.013 3.611 6.859v14a4 4 0 0 1 -4 4h-1v3h7v-20c0-4.78-2.08-8.7-4.69-8.98z" fill="#2b8ffc"/><path d="m30 59h-11v4h26v-19a15 15 0 0 1 -15 15z" fill="#2357d1"/><path d="m46.078 33.216a4.855 4.855 0 0 1 2.374 1.235 3.1 3.1 0 0 1 1.238-.431c-.12-.12-.24-.24-.37-.35a8.074 8.074 0 0 0 -3.85-1.89l-6.51-1.22a5.256 5.256 0 0 1 -.267 1.179z" fill="#2cb5ff"/><path d="m17.922 33.216 7.385-1.477a5.256 5.256 0 0 1 -.267-1.179l-6.51 1.22a8.038 8.038 0 0 0 -4.213 2.241 3.105 3.105 0 0 1 1.231.431 4.844 4.844 0 0 1 2.374-1.236z" fill="#2cb5ff"/><path d="m38.96 30.56-2.96-.56a2.368 2.368 0 0 1 -.3 1.14l2.995.6a5.256 5.256 0 0 0 .265-1.18z" fill="#ebf5f7"/><path d="m28.3 31.14a2.368 2.368 0 0 1 -.3-1.14l-2.96.56a5.256 5.256 0 0 0 .267 1.179z" fill="#ebf5f7"/><ellipse cx="36" cy="15" fill="#694240" rx="1" ry="2"/><ellipse cx="27.999" cy="15" fill="#694240" rx="1" ry="2"/><path d="m33 18.857c0 1.657-.448 2.143-1 2.143s-1-.486-1-2.143.447-3.857 1-3.857 1 2.2 1 3.857z" fill="#bd6555"/><path d="m29 22h6s0 2-3 2-3-2-3-2z" fill="#fde8e6"/><g fill="#f6fafd"><ellipse cx="51.684" cy="4.695" rx="1.642" ry="2.286" transform="matrix(.707 -.707 .707 .707 11.83 37.935)"/><ellipse cx="51.682" cy="8.708" rx=".825" ry="1.148" transform="matrix(.707 -.707 .707 .707 8.99 39.11)"/><ellipse cx="43.682" cy="34.708" rx=".825" ry="1.148" transform="matrix(.707 -.707 .707 .707 -11.746 41.072)"/><ellipse cx="47.427" cy="9.208" rx=".413" ry=".574" transform="matrix(.707 -.707 .707 .707 7.389 36.247)"/><ellipse cx="41.427" cy="34.208" rx=".413" ry=".574" transform="matrix(.707 -.707 .707 .707 -12.053 39.331)"/></g></g></svg>