<svg id="Flat" enable-background="new 0 0 78 124" height="512" viewBox="0 0 78 124" width="512" xmlns="http://www.w3.org/2000/svg"><g><path d="m66.21 6.28c-2.37-1.66-10.42-6.25-27.25-6.28-16.83.03-24.89 4.62-27.26 6.28-.48.34-.75.91-.72 1.5l.53 11.66.18 4.14.072 1.282c5.71-5.09 14.953-7.256 26.323-7.266 11.37.01 21.917 2.176 27.617 7.266l.518-1.282.19-4.14.53-11.66c.02-.59-.24-1.16-.73-1.5zm-27.36 3.02h.21c-.03 0-.07 0-.1.01-.03-.01-.07-.01-.11-.01z" fill="#504256"/><path d="m50.16 77.35c-1.78-.86-3.45-1.5-4.92-1.98l-.03-.07-6.19 9.4-5.99-9.42c-1.53.49-3.27 1.15-5.15 2.06-10.17 4.92-24.17 17.02-27.88 46.66h14s.7-6.92 3.52-11.56l.48 11.56h10.94 31.06l.48-11.56c2.82 4.64 3.52 11.56 3.52 11.56h14c-3.7-29.61-17.68-41.72-27.84-46.65z" fill="#e7f2f1"/><path d="m63.55 38.06c.29-2.93.45-6 .45-9.06v-2.76c1.02.28 2.12-.43 2.17-1.59l.05-1.07-.2-.01c-5.7-5.09-15.69-8.47-27.06-8.48-11.37.01-21.36 3.39-27.07 8.48l-.2.01.05 1.07c.05 1.19 1.21 1.91 2.26 1.57v2.78c0 3.08.16 6.16.45 9.1 0 .02 0 .04.01.06l.209-.161z" fill="#3f2313"/><path d="m17.2 51.96c-2.7.32-5.51-1.6-6.68-4.78-1.35-3.67.01-7.63 3.04-8.83.29-.12.59-.2.89-.25 0 .02 0 .04.01.06z" fill="#f7b6ad"/><path d="m63.55 38.1c.3.05.6.13.89.25 3.03 1.2 4.39 5.16 3.04 8.83-1.17 3.18-3.98 5.1-6.68 4.78z" fill="#f7b6ad"/><path d="m66.392 19.837-.166 3.628-.016.329-.19-.224c-5.7-5.09-15.69-8.47-27.06-8.48-11.37.01-21.36 3.39-27.07 8.48l-.188.285-.013-.309-.163-3.75.135-.365s1.11-5.96 6.89-3.83c0 0 1.28-5.62 7.58-2.47 0 0 2.47-4.94 7.83-1.53 0 0 1.67-2.25 5-2.29 3.34.04 5 2.29 5 2.29 5.36-3.41 7.83 1.53 7.83 1.53 6.3-3.15 7.57 2.47 7.57 2.47 5.79-2.13 6.9 3.83 6.9 3.83z" fill="#ffc05a"/><path d="m14 26.22c-1.05.34-2.21-.38-2.26-1.57l-.037-.798.187-.282c5.71-5.09 15.7-8.47 27.07-8.48 11.37.01 21.36 3.39 27.06 8.48l.19.223-.04.857c-.05 1.16-1.15 1.87-2.17 1.59-.19-.04-.38-.12-.55-.24-5.89-3.96-14.67-6.48-24.49-6.49-.48 0-.96.01-1.43.02-3.19.08-6.24.43-9.12 1-5.47 1.09-10.27 3-13.95 5.47-.15.1-.3.18-.46.22z" fill="#5d5560"/><path d="m63.55 38.06v.04c-.52 5.3-1.48 10.18-2.75 13.86h-.01c-.54 1.59-1.14 2.96-1.79 4.04-2.29 3.81-7.49 8.79-13.82 10.94-1.97.67-4.05 1.06-6.18 1.06-2.07 0-4.09-.37-6-1-6.42-2.11-11.69-7.15-14-11-.65-1.08-1.25-2.45-1.79-4.04h-.01c-1.26-3.67-2.22-8.52-2.74-13.8l.171-.131s12.519-10.089 13.799-17.409c0 0 2.42 3.36 2.93 7 0 0 5.07-3.77 6.17-8.02 0 0 4.85 5.53 8.43 6.29l.22-2.83s1.66 5.06 12.03 7.34c0 0 5.17.91 5.34 7.66z" fill="#fec4b9"/><circle cx="49" cy="38" fill="#543927" r="2"/><path d="m45.18 66.94.03 8.36-6.183 13.261-5.997-13.281-.01-.03-.02-8.25z" fill="#fec4b9"/><path d="m50.16 77.35-11.133 15.083-11.147-15.093c-10.17 4.92-24.17 17.02-27.88 46.66h14s.7-6.92 3.52-11.56l.48 11.56h6.511 4.429 31.06l.48-11.56c2.82 4.64 3.52 11.56 3.52 11.56h14c-3.7-29.61-17.68-41.72-27.84-46.65z" fill="#e7f2f1"/><circle cx="29" cy="38" fill="#543927" r="2"/><path d="m62.298 104.17-.299-4.128c.023-.552-.405-1.018-.957-1.041-.569-.022-1.018.406-1.041.957l.479 12.482c2.83 4.64 3.52 11.56 3.52 11.56h7.782c-.02-.194-6.91-4.915-9.484-19.83z" fill="#d6eae8"/><path d="m14.809 104.17.299-4.128c-.023-.552.405-1.018.957-1.041.569-.022 1.018.406 1.041.957l.414 12.482c-2.83 4.64-3.52 11.56-3.52 11.56h-7.782c.019-.194 6.016-4.915 8.591-19.83z" fill="#d6eae8"/><path d="m50.16 77.35-11.13 17.27-11.15-17.28c1.88-.91 3.62-1.57 5.15-2.06l5.99 9.42 6.19-9.4.03.07c1.47.48 3.14 1.12 4.92 1.98z" fill="#ffc05a"/><path d="m52.279 33.82c-.199 0-.399-.059-.574-.182-1.801-1.266-4.414-.848-4.441-.843-.544.097-1.063-.267-1.159-.811-.096-.543.267-1.063.811-1.159.137-.025 3.438-.583 5.939 1.177.452.317.561.941.243 1.393-.195.277-.505.425-.819.425z" fill="#472d1c"/><path d="m25.721 33.82c-.314 0-.624-.148-.819-.425-.318-.452-.209-1.076.243-1.393 2.501-1.759 5.801-1.201 5.939-1.177.544.096.907.615.811 1.159-.096.543-.61.904-1.157.812-.048-.008-2.639-.426-4.443.842-.174.123-.375.182-.574.182z" fill="#472d1c"/><path d="m39 42.71c-1.079 0-2.18-.158-3.273-.468-.531-.151-.839-.704-.688-1.235.15-.531.703-.839 1.235-.688 1.831.521 3.622.521 5.453 0 .53-.15 1.084.157 1.235.688s-.157 1.084-.688 1.235c-1.094.31-2.195.468-3.274.468z" fill="#ea8d81"/><path d="m27.939 124c-.409-13.146 7.486-25.824 9.684-29.096.301-.449.898-.577 1.36-.297.489.296.636.939.324 1.418 0 0-8.489 16.741-5.623 27.975z" fill="#d6eae8"/><path d="m45.2 71.225-.02-4.285c-1.97.67-4.05 1.06-6.18 1.06-2.07 0-4.09-.37-6-1l.01 2.672s3.65 2.2 12.19 1.553z" fill="#f7b6ad"/></g></svg>