<?xml version="1.0"?>
<svg xmlns="http://www.w3.org/2000/svg" viewBox="0 0 64 64" width="512" height="512"><g id="_25-sumo" data-name="25-sumo"><path d="M36,5l-.01.1A18.674,18.674,0,0,0,34,5H30a18.674,18.674,0,0,0-1.99.1L28,5l-.55-1.11A1.994,1.994,0,0,1,29.24,1h5.52a1.994,1.994,0,0,1,1.79,2.89Z" style="fill:#2a2e33"/><path d="M21,20a1.987,1.987,0,0,0-1.42.6,8.86,8.86,0,0,1-1.86-2.71A8.492,8.492,0,0,1,17,14.47a9.006,9.006,0,0,1,6.76-8.56,23.723,23.723,0,0,1,4.25-.81A18.674,18.674,0,0,1,30,5h4a18.674,18.674,0,0,1,1.99.1,23.723,23.723,0,0,1,4.25.81,9.412,9.412,0,0,1,4.89,3.22,8.567,8.567,0,0,1-.71,11.47A1.987,1.987,0,0,0,43,20H42V17a2.013,2.013,0,0,0-.8-1.6L38,13c0,1.66-2.68,3-6,3s-6-1.34-6-3l-3.2,2.4A2.013,2.013,0,0,0,22,17v3Z" style="fill:#414952"/><path d="M22,25a6.5,6.5,0,0,0,.08.99L22,26a3,3,0,0,1-3-3V22a1.964,1.964,0,0,1,.58-1.4A1.987,1.987,0,0,1,21,20h1Z" style="fill:#ffbeaa"/><path d="M44.42,20.6A1.964,1.964,0,0,1,45,22v1a3,3,0,0,1-3,3l-.08-.01A6.5,6.5,0,0,0,42,25V20h1A1.987,1.987,0,0,1,44.42,20.6Z" style="fill:#ffbeaa"/><path d="M41.26,28.01a8,8,0,0,1-2.19,2.65A11.39,11.39,0,0,1,32,33c-4.19,0-7.78-2.06-9.26-4.99a6.389,6.389,0,0,1-.66-2.02A6.5,6.5,0,0,1,22,25V17a2.013,2.013,0,0,1,.8-1.6L26,13c0,1.66,2.68,3,6,3s6-1.34,6-3l3.2,2.4A2.013,2.013,0,0,1,42,17v8a6.5,6.5,0,0,1-.08.99A6.389,6.389,0,0,1,41.26,28.01Z" style="fill:#ffcdbe"/><path d="M50.82,56.62,49,63H15l-1.82-6.38A10.158,10.158,0,0,0,19,58a9.288,9.288,0,0,0,5.47-1.58A12.422,12.422,0,0,1,31.94,54h.12a12.422,12.422,0,0,1,7.47,2.42A9.288,9.288,0,0,0,45,58,10.158,10.158,0,0,0,50.82,56.62Z" style="fill:#ffbeaa"/><path d="M50.82,56.62A10.158,10.158,0,0,1,45,58a9.288,9.288,0,0,1-5.47-1.58A12.422,12.422,0,0,0,32.06,54h-.12a12.422,12.422,0,0,0-7.47,2.42A9.288,9.288,0,0,1,19,58a10.158,10.158,0,0,1-5.82-1.38L15,63H3V49C3,38.63,15.34,28.24,22.74,28.01,24.22,30.94,27.81,33,32,33a11.39,11.39,0,0,0,7.07-2.34,8,8,0,0,0,2.19-2.65C48.66,28.24,61,38.63,61,49V63H49Z" style="fill:#ffcdbe"/><path d="M24.47,58.42A12.422,12.422,0,0,1,31.94,56h.12a12.422,12.422,0,0,1,7.47,2.42A9.288,9.288,0,0,0,45,60a11.346,11.346,0,0,0,5.135-.98l.685-2.4A10.158,10.158,0,0,1,45,58a9.288,9.288,0,0,1-5.47-1.58A12.422,12.422,0,0,0,32.06,54h-.12a12.422,12.422,0,0,0-7.47,2.42A9.288,9.288,0,0,1,19,58a10.158,10.158,0,0,1-5.82-1.38l.685,2.4A11.346,11.346,0,0,0,19,60,9.288,9.288,0,0,0,24.47,58.42Z" style="fill:#faa592"/><path d="M56,52V63H49l1.82-6.38A5.2,5.2,0,0,0,53,52c0-6-2-9-6-13,2.48,0,4.74,2.01,6.36,4.64A17.179,17.179,0,0,1,56,52Z" style="fill:#faa592"/><path d="M13.18,56.62,15,63H8V52a17.179,17.179,0,0,1,2.64-8.36C12.26,41.01,14.52,39,17,39c-4,4-6,7-6,13A5.2,5.2,0,0,0,13.18,56.62Z" style="fill:#faa592"/><path d="M44,23.5v-.833A1.862,1.862,0,0,0,42,21v4c0,.124-.017.247-.023.373A2.088,2.088,0,0,0,44,23.5Z" style="fill:#faa592"/><path d="M22,21a1.862,1.862,0,0,0-2,1.667V23.5a2.088,2.088,0,0,0,2.023,1.873C22.016,25.247,22,25.124,22,25Z" style="fill:#faa592"/><path d="M41.26,28.01a7.375,7.375,0,0,1-.813,1.261A8.526,8.526,0,0,1,39.07,30.66,11.39,11.39,0,0,1,32,33a10.718,10.718,0,0,1-8.434-3.732,7.511,7.511,0,0,1-.826-1.258,10.9,10.9,0,0,0-2.588.434,7.465,7.465,0,0,0,.46,1.5C22.113,33.469,26.307,36,32,36c5.262,0,9.717-2.538,11.338-6.069a7.188,7.188,0,0,0,.495-1.491A10.866,10.866,0,0,0,41.26,28.01Z" style="fill:#ffb7a1"/><path d="M43.833,28.44a7.188,7.188,0,0,1-.495,1.491A22.007,22.007,0,0,1,59,51V63h2V49C61,39.759,51.2,30.509,43.833,28.44Z" style="fill:#ffdecf"/><path d="M20.612,29.945a7.465,7.465,0,0,1-.46-1.5C12.784,30.521,3,39.765,3,49V63H5V51A22.008,22.008,0,0,1,20.612,29.945Z" style="fill:#ffdecf"/><path d="M53,52c0-.321-.009-.629-.02-.934C52.775,54.25,50.289,56,45,56a10.022,10.022,0,0,1-5.468-1.415,13.48,13.48,0,0,0-7.469-2.164h-.126a13.48,13.48,0,0,0-7.469,2.164A10.022,10.022,0,0,1,19,56c-5.289,0-7.775-1.75-7.98-4.934-.011.3-.02.613-.02.934a5.2,5.2,0,0,0,2.18,4.62A10.158,10.158,0,0,0,19,58a9.288,9.288,0,0,0,5.47-1.58A12.422,12.422,0,0,1,31.94,54h.12a12.422,12.422,0,0,1,7.47,2.42A9.288,9.288,0,0,0,45,58a10.158,10.158,0,0,0,5.82-1.38A5.2,5.2,0,0,0,53,52Z" style="fill:#ffdecf"/><path d="M41.2,15.4,38,13c0,1.66-2.68,3-6,3-2.5,0-4.638-.761-5.54-1.846a2.1,2.1,0,0,1-.341-.556.2.2,0,0,0-.008-.026,1.614,1.614,0,0,1-.08-.268A1.545,1.545,0,0,1,26,13l-3.2,2.4A2.013,2.013,0,0,0,22,17v8a6.5,6.5,0,0,0,.08.99,6.389,6.389,0,0,0,.66,2.02C24.22,30.94,27.81,33,32,33c.38,0,.753-.021,1.122-.054-3.8-.267-7.007-2.215-8.382-4.936a6.389,6.389,0,0,1-.66-2.02A6.5,6.5,0,0,1,24,25V17a1.99,1.99,0,0,1,.094-.571L26,15c0,1.66,2.68,3,6,3s6-1.34,6-3l3.2,2.4A2.013,2.013,0,0,1,42,19V17A2.013,2.013,0,0,0,41.2,15.4Z" style="fill:#ffbeaa"/><path d="M41.2,17.4l-1.294-.971A1.99,1.99,0,0,1,40,17v8a6.5,6.5,0,0,1-.08.99,6.389,6.389,0,0,1-.66,2.02,8,8,0,0,1-2.19,2.65,11.174,11.174,0,0,1-5.948,2.286c.292.021.579.054.878.054a11.39,11.39,0,0,0,7.07-2.34,8,8,0,0,0,2.19-2.65,6.389,6.389,0,0,0,.66-2.02A6.5,6.5,0,0,0,42,25V19A2.013,2.013,0,0,0,41.2,17.4Z" style="fill:#ffdecf"/><path d="M44,15.93V14.535a1,1,0,0,0-.445-.832l-3.924-2.615a1.983,1.983,0,0,0-2.616.35A6.605,6.605,0,0,1,32,14a6.605,6.605,0,0,1-5.015-2.562,1.983,1.983,0,0,0-2.616-.35L20.445,13.7a1,1,0,0,0-.445.832V15.93a2,2,0,0,1-.891,1.664l-1.154.769A8.879,8.879,0,0,0,19.58,20.6,1.987,1.987,0,0,1,21,20h1V17a2.013,2.013,0,0,1,.8-1.6L26,13c0,1.66,2.68,3,6,3s6-1.34,6-3l3.2,2.4A2.013,2.013,0,0,1,42,17v3h1a1.987,1.987,0,0,1,1.42.6,8.9,8.9,0,0,0,1.626-2.236l-1.155-.77A2,2,0,0,1,44,15.93Z" style="fill:#333940"/><ellipse cx="36" cy="21" rx="1" ry="2" style="fill:#414952"/><ellipse cx="28" cy="21" rx="1" ry="2" style="fill:#414952"/><path d="M33,24.857C33,26.514,32.552,27,32,27s-1-.486-1-2.143S31.448,21,32,21,33,23.2,33,24.857Z" style="fill:#faa592"/><path d="M29,28h6s0,2-3,2S29,28,29,28Z" style="fill:#f38d9e"/><ellipse cx="45.684" cy="42.695" rx="1.642" ry="2.286" transform="translate(-16.808 44.83) rotate(-45.02)" style="fill:#f6fafd"/><ellipse cx="48.682" cy="45.708" rx="0.825" ry="1.148" transform="translate(-18.061 47.834) rotate(-45.02)" style="fill:#f6fafd"/><ellipse cx="38.682" cy="7.708" rx="0.825" ry="1.148" transform="translate(5.887 29.621) rotate(-45.02)" style="fill:#f6fafd"/></g></svg>
