<svg id="Flat" enable-background="new 0 0 78 124" height="512" viewBox="0 0 78 124" width="512" xmlns="http://www.w3.org/2000/svg"><g><path d="m14.17 25.47c.99-10.93 6.85-25.47 24.83-25.47s23.84 14.54 24.83 25.47z" fill="#82387d"/><path d="m27.16 77.73-.01-.02c-1.13.57-2.29 1.23-3.48 1.99-3 1.92-6.14 4.48-9.15 7.9-1.03 1.17-2.04 2.44-3.02 3.82-2.22 3.12-4.3 6.8-6.09 11.13-.51 1.22-.99 2.5-1.45 3.83-1.22 3.53-2.26 7.44-3.06 11.79-.34 1.86-.65 3.8-.9 5.83h15.41 4.01 12.91 13.18 12.91 4.01 15.57c-.25-2.02-.55-3.95-.9-5.81-.8-4.37-1.85-8.3-3.08-11.85-.45-1.33-.94-2.6-1.45-3.82-1.82-4.4-3.93-8.12-6.19-11.26-.97-1.36-1.98-2.62-3-3.77 0-.01 0-.01 0-.01-3.01-3.41-6.16-5.95-9.16-7.86-1.19-.75-2.36-1.41-3.49-1.98z" fill="#82387d"/><path d="m17.2 51.96c-2.7.32-5.51-1.6-6.68-4.78-1.35-3.67.01-7.63 3.04-8.83.29-.12.59-.2.89-.25z" fill="#fec4b9"/><path d="m63.55 38.1c.3.05.6.13.89.25 3.03 1.2 4.39 5.16 3.04 8.83-1.17 3.18-3.98 5.1-6.68 4.78z" fill="#fec4b9"/><path d="m63.97 31.46c-.06 2.25-.2 4.48-.42 6.64-.52 5.3-1.48 10.18-2.75 13.86h-.01c-.54 1.59-1.14 2.96-1.79 4.04-2.29 3.81-7.49 8.79-13.82 10.94-1.97.67-4.05 1.06-6.18 1.06-2.07 0-4.09-.37-6-1-6.42-2.11-11.69-7.15-14-11-.65-1.08-1.25-2.45-1.79-4.04h-.01c-1.27-3.68-2.23-8.56-2.75-13.86-.22-2.16-.36-4.39-.42-6.64 4.438-6.895 15.11-11.056 25.31-11.056s20.49 4.161 24.63 11.056z" fill="#ffd7d2"/><circle cx="29" cy="38" fill="#543927" r="2"/><circle cx="49" cy="38" fill="#543927" r="2"/><path d="m32.81 56.3v.21c0 1.05-.85 1.89-1.9 1.89h-4.76c-1.05 0-1.89-.84-1.89-1.89v-.21c0-1.05.84-1.9 1.89-1.9h4.76c1.05 0 1.9.85 1.9 1.9z" fill="#d14b62"/><path d="m32.81 48.66v.21c0 1.05-.85 1.9-1.9 1.9h-4.76c-1.05 0-1.89-.85-1.89-1.9v-.21c0-1.05.84-1.89 1.89-1.89h4.76c1.05 0 1.9.84 1.9 1.89z" fill="#d14b62"/><path d="m53.74 56.3v.21c0 1.05-.84 1.89-1.89 1.89h-4.76c-1.05 0-1.9-.84-1.9-1.89v-.21c0-1.05.85-1.9 1.9-1.9h4.76c1.05 0 1.89.85 1.89 1.9z" fill="#d14b62"/><path d="m53.74 48.66v.21c0 1.05-.84 1.9-1.89 1.9h-4.76c-1.05 0-1.9-.85-1.9-1.9v-.21c0-1.05.85-1.89 1.9-1.89h4.76c1.05 0 1.89.84 1.89 1.89z" fill="#d14b62"/><path d="m64 29c0 .82-.01 1.64-.03 2.46-5.26-5.87-14.77-9.5-24.97-9.5s-19.72 3.63-24.97 9.5c-.02-.82-.03-1.64-.03-2.46 0-1.11.05-2.3.17-3.53 6.25-4.95 15.16-7.8 24.83-7.8s18.58 2.85 24.83 7.8c.12 1.23.17 2.42.17 3.53z" fill="#f9b132"/><path d="m45.18 66.94.03 8.36.03.07c1.63.53 3.49 1.26 5.49 2.27-1.198 4.786-4.258 19.36-8.147 46.36h-6.723c-2.479-25.468-5.803-37.34-8.699-46.27l-.01-.02c2.15-1.1 4.16-1.88 5.88-2.43l-.01-.03-.021-8.25z" fill="#ffd7d2"/><g fill="#ffc05a"><path d="m56.22 88.72c1.09 0 1.96.88 1.96 1.96s-.87 1.96-1.96 1.96c-1.08 0-1.95-.88-1.95-1.96s.87-1.96 1.95-1.96z"/><path d="m53.76 98.17c1.08 0 1.95.88 1.95 1.96s-.87 1.96-1.95 1.96-1.96-.88-1.96-1.96.88-1.96 1.96-1.96z"/><path d="m52.42 108.19c1.08 0 1.95.88 1.95 1.96s-.87 1.96-1.95 1.96c-1.09 0-1.96-.88-1.96-1.96s.87-1.96 1.96-1.96z"/><circle cx="52.16" cy="119.02" r="1.96"/><path d="m21.62 88.72c1.08 0 1.95.88 1.95 1.96s-.87 1.96-1.95 1.96-1.96-.88-1.96-1.96.88-1.96 1.96-1.96z"/><path d="m24.09 98.17c1.08 0 1.95.88 1.95 1.96s-.87 1.96-1.95 1.96c-1.09 0-1.96-.88-1.96-1.96s.87-1.96 1.96-1.96z"/><path d="m25.43 108.19c1.08 0 1.95.88 1.95 1.96s-.87 1.96-1.95 1.96c-1.09 0-1.96-.88-1.96-1.96s.87-1.96 1.96-1.96z"/><circle cx="25.68" cy="119.02" r="1.96"/><path d="m27.16 77.73c2.11 3.77 10.33 20.27 9.17 46.27h-4c1.14-24.8-6.78-40.88-8.65-44.29l-.01-.01c1.19-.76 2.35-1.42 3.48-1.99z"/><path d="m62.55 112.47c-.06.91-.11 1.84-.15 2.79-.11 2.78-.11 5.7.03 8.74h-4.01c-.71-15.94 2.19-28.45 4.96-36.51 1.02 1.15 2.03 2.41 3 3.77-1.34 4.37-2.63 9.88-3.38 16.34-.19 1.57-.34 3.19-.45 4.87z"/><path d="m50.73 77.64c1.13.57 2.3 1.23 3.49 1.98-1.86 3.41-9.85 19.58-8.71 44.38h-4c-1.16-26 7.11-42.59 9.22-46.36z"/><path d="m14.54 87.62c2.77 8.05 5.59 20.43 4.88 36.38h-4.01c.14-3.05.15-5.96.04-8.74-.03-.95-.08-1.89-.14-2.81-.11-1.68-.26-3.31-.45-4.88-.73-6.37-2.01-11.79-3.34-16.14l-.02-.01c.98-1.38 1.99-2.65 3.02-3.82z"/></g><path d="m14.86 107.57h-.01l-9.44-5.02c1.79-4.33 3.87-8.01 6.09-11.13l.02.01c1.33 4.35 2.61 9.77 3.34 16.14z" fill="#c43b58"/><path d="m15.45 115.26-14.55 2.91c.8-4.35 1.84-8.26 3.06-11.79l11.35 6.07c.06.92.11 1.86.14 2.81z" fill="#c43b58"/><path d="m77.1 118.19-14.67-2.93h-.03c.04-.95.09-1.88.15-2.79l11.47-6.13c1.23 3.55 2.28 7.48 3.08 11.85z" fill="#c43b58"/><path d="m72.57 102.52-9.55 5.08h-.02c.75-6.46 2.04-11.97 3.38-16.34 2.26 3.14 4.37 6.86 6.19 11.26z" fill="#c43b58"/><path d="m52.279 29.54c-.198 0-.399-.059-.574-.182-1.813-1.274-4.417-.847-4.444-.843-.543.095-1.061-.271-1.154-.814-.095-.543.267-1.06.81-1.155.138-.024 3.438-.584 5.939 1.176.452.318.561.941.243 1.394-.196.276-.505.424-.82.424z" fill="#472d1c"/><path d="m25.721 29.54c-.314 0-.624-.147-.819-.425-.317-.452-.209-1.075.243-1.394 2.502-1.76 5.802-1.2 5.939-1.176.544.096.907.614.811 1.158-.095.543-.606.902-1.156.812-.049-.01-2.639-.426-4.443.843-.176.123-.377.182-.575.182z" fill="#472d1c"/><path d="m39 42.71c-1.078 0-2.179-.157-3.272-.468-.532-.15-.84-.703-.689-1.234.151-.533.707-.845 1.234-.689 1.834.52 3.621.52 5.455 0 .527-.153 1.083.157 1.234.689.15.531-.157 1.084-.689 1.234-1.094.311-2.195.468-3.273.468z" fill="#ea8d81"/><path d="m45.149 71.24-.02-4.285c-1.97.67-4.05 1.06-6.18 1.06-2.07 0-4.039-.385-5.949-1.015l.005 2.713s3.604 2.174 12.144 1.527z" fill="#fec4b9"/></g></svg>