<svg id="Flat" enable-background="new 0 0 78 124" height="512" viewBox="0 0 78 124" width="512" xmlns="http://www.w3.org/2000/svg"><g><path d="m17.2 51.96c-2.7.32-5.51-1.6-6.68-4.78-1.35-3.67.01-7.63 3.04-8.83.29-.12.59-.2.89-.25 1.988 4.468 2.629 9.47 2.75 13.86z" fill="#f7b6ad"/><path d="m45.18 66.94.02 5.432c-2.14.45-4.3.58-6.19.55-3.45-.03-6-.55-6-.55l-.01-5.372z" fill="#fec4b9"/><path d="m39 0 3.38 4.79.141.242-7.457.053.166-.295z" fill="#d14b62"/><path d="m47.83 4.79 2.861 4.005h-23.382l2.861-4.005h5.06 3.62.3 3.23z" fill="#ef9d26"/><path d="m17.51 112.36.01.08c-2.82 4.64-3.52 11.56-3.52 11.56h-14c.72-5.74 1.82-10.82 3.21-15.32l.927-2.805z" fill="#f7b6ad"/><path d="m78 124h-14s-.7-6.92-3.52-11.56l.967-4.121 13.343.361c1.39 4.5 2.49 9.58 3.21 15.32z" fill="#f7b6ad"/><path d="m74.79 108.68c-1.97-6.39-4.51-11.61-7.33-15.86 1.87-1.52 3.07-3.84 3.07-6.44 0-4.57-3.7-8.27-8.28-8.27-2.46 0-4.66 1.07-6.17 2.77-3.99-2.85-7.82-4.53-10.84-5.51l-.03-.07-.01-3.53c-2.14.45-4.3.58-6.19.55-3.45-.03-6-.55-6-.55l.01 3.48.01.03c-3.01.95-6.86 2.6-10.89 5.44-1.51-1.61-3.65-2.61-6.03-2.61-4.57 0-8.28 3.7-8.28 8.27 0 2.49 1.1 4.72 2.85 6.23l-.01.01c-2.87 4.29-5.46 9.57-7.46 16.06l14.3 3.68.05.01c-.01.02-.03.05-.04.07l.48 11.56h11.22 20.04 10.74l.48-11.56c-.01-.02-.03-.05-.04-.07l.05-.01z" fill="#c43b58"/><path d="m14.06 27.99-8.08-9.93 13.47-9.7h8.17 11.18.21 11.37 7.98l13.47 9.7-8.08 9.93z" fill="#e15c63"/><path d="m62.25 78.11c4.58 0 8.28 3.7 8.28 8.27 0 2.6-1.2 4.92-3.07 6.44-1.42 1.15-3.23 1.84-5.21 1.84-4.57 0-8.27-3.71-8.27-8.28 0-2.11.79-4.04 2.1-5.5 1.51-1.7 3.71-2.77 6.17-2.77zm4.28 8.27c0-2.36-1.92-4.27-4.28-4.27-2.35 0-4.27 1.91-4.27 4.27s1.92 4.28 4.27 4.28c2.36 0 4.28-1.92 4.28-4.28z" fill="#b72e4f"/><path d="m64.44 38.35c3.03 1.2 4.39 5.16 3.04 8.83-1.17 3.18-3.98 5.1-6.68 4.78.231-4.122.788-9.173 2.75-13.86.3.05.6.13.89.25z" fill="#f7b6ad"/><path d="m62.25 82.11c2.36 0 4.28 1.91 4.28 4.27s-1.92 4.28-4.28 4.28c-2.35 0-4.27-1.92-4.27-4.28s1.92-4.27 4.27-4.27z" fill="#ffc05a"/><path d="m63.75 27.99.25 1.01c0 3.08-.16 6.16-.45 9.1-.52 5.3-1.48 10.18-2.75 13.86h-.01c-.54 1.59-1.14 2.96-1.79 4.04-2.29 3.81-7.49 8.79-13.82 10.94-1.97.67-4.05 1.06-6.18 1.06-2.07 0-4.09-.37-6-1-6.42-2.11-11.69-7.15-14-11-.65-1.08-1.25-2.45-1.79-4.04h-.01c-1.27-3.68-2.23-8.56-2.75-13.86-.29-2.94-.45-6.02-.45-9.1l.06-1.01 8.37-5.16h16.58 16.37z" fill="#fec4b9"/><circle cx="49" cy="38" fill="#472d1c" r="2"/><path d="m49.26 123.98v.02h-20.04l2.32-8.59c1.98.59 4.6.95 7.46.95 3.03 0 5.78-.4 7.79-1.05h.01z" fill="#e58e1a"/><path d="m39 87.85 7.8 27.46h-.01c-2.01.65-4.76 1.05-7.79 1.05-2.86 0-5.48-.36-7.46-.95z" fill="#ffc05a"/><circle cx="29" cy="38" fill="#472d1c" r="2"/><path d="m22.14 80.72c1.39 1.48 2.24 3.47 2.24 5.66 0 4.57-3.7 8.28-8.27 8.28-2.08 0-3.98-.77-5.43-2.05-1.75-1.51-2.85-3.74-2.85-6.23 0-4.57 3.71-8.27 8.28-8.27 2.38 0 4.52 1 6.03 2.61zm-1.76 5.66c0-2.36-1.92-4.27-4.27-4.27-2.36 0-4.28 1.91-4.28 4.27s1.92 4.28 4.28 4.28c2.35 0 4.27-1.92 4.27-4.28z" fill="#b72e4f"/><path d="m16.11 82.11c2.35 0 4.27 1.91 4.27 4.27s-1.92 4.28-4.27 4.28c-2.36 0-4.28-1.92-4.28-4.28s1.92-4.27 4.28-4.27z" fill="#ffc05a"/><path d="m52.279 29.54c-.199 0-.399-.059-.574-.182-1.813-1.275-4.418-.848-4.443-.843-.543.092-1.061-.271-1.155-.814s.267-1.06.81-1.156c.14-.025 3.437-.582 5.939 1.177.452.317.561.941.243 1.393-.196.277-.506.425-.82.425z" fill="#472d1c"/><path d="m25.721 29.54c-.314 0-.624-.148-.819-.425-.318-.452-.209-1.076.243-1.393 2.501-1.76 5.799-1.203 5.939-1.177.544.096.907.615.811 1.159-.096.543-.61.905-1.157.812-.046-.008-2.638-.426-4.443.843-.174.122-.375.181-.574.181z" fill="#472d1c"/><path d="m39 42.71c-1.079 0-2.18-.158-3.273-.468-.531-.151-.839-.704-.688-1.235s.704-.839 1.235-.688c1.831.521 3.622.521 5.453 0 .53-.15 1.084.157 1.235.688s-.157 1.084-.688 1.235c-1.094.31-2.195.468-3.274.468z" fill="#ea8d81"/><g fill="#b72e4f"><path d="m17.944 124-.922-23.959c-.023-.552.406-1.018.958-1.04.537-.036 1.017.406 1.04.958l2.507 12.885c.832 4.278 2.996 8.182 6.182 11.156z"/><path d="m60.02 99.001c-.553-.032-1.018.406-1.04.958l-2.179 8.027c-1.44 5.306-3.662 10.368-6.592 15.02l-.626.994 10.398-.011.469-11.421c.004-.028.017-.137.018-.166l.51-12.36c.023-.553-.406-1.019-.958-1.041z"/><path d="m40 72.324v10.967c0 .552-.448 1-1 1-.552 0-1-.448-1-1l.002-10.994.929.022z"/></g><path d="m45.2 71.225-.02-4.285c-1.97.67-4.05 1.06-6.18 1.06-2.07 0-4.09-.37-6-1l.01 2.672s3.65 2.2 12.19 1.553z" fill="#f7b6ad"/></g></svg>