<svg height="512" viewBox="0 0 64 64" width="512" xmlns="http://www.w3.org/2000/svg"><g id="_23-ping_pong" data-name="23-ping pong"><circle cx="8" cy="24" fill="#ebf5f7" r="4"/><path d="m52 47v3h-1-8-2v-3z" fill="#8949f5"/><path d="m52 39.06v7.94h-11v-7c0-4.42 4.68-7 8-7l.09-.1a7.93 7.93 0 0 1 2.91 6.16z" fill="#fdfeff"/><path d="m13.36 38.36a8.1 8.1 0 0 0 -1.3 1.67l-.06-.03v-.94a7.93 7.93 0 0 1 2.91-6.16l.09.1a8.931 8.931 0 0 1 6.92 3.57 7.809 7.809 0 0 0 -8.56 1.79z" fill="#e1eaf2"/><path d="m27.06 30.12a9.279 9.279 0 0 0 2.93 3.28c-.11 2.02-1.08 3.6-2.24 3.6 0 0-3.75-2-3.75-6a2.629 2.629 0 0 1 .04-.49c.35-1.17.84-1.71 1.44-1.84l2.52-.56v1.89z" fill="#fdfeff"/><path d="m38.52 28.67c.6.13 1.09.67 1.44 1.84a2.629 2.629 0 0 1 .04.49c0 4-3.75 6-3.75 6-1.16 0-2.13-1.58-2.24-3.6a9.279 9.279 0 0 0 2.93-3.28l-.94-.12v-1.89z" fill="#fdfeff"/><path d="m21.26 53.75 3.76-.82 1.45-1.46 1.46-1.45.03.03-3.96 3.95v.87a2 2 0 0 0 .97 1.71l2.69 1.62a2.009 2.009 0 0 0 2.44-.3l1.59-2.13.31.23 9.73 6.31a5.68 5.68 0 0 0 2.27.67v.02h-26l1.84-9.18a6.929 6.929 0 0 0 1.42-.07z" fill="#2357d1"/><path d="m19.01 31.12 4.99-.62.04.01a2.629 2.629 0 0 0 -.04.49c0 4 3.75 6 3.75 6 1.16 0 2.13-1.58 2.24-3.6a3.667 3.667 0 0 0 4.02 0c.11 2.02 1.08 3.6 2.24 3.6 0 0 3.75-2 3.75-6a2.629 2.629 0 0 0 -.04-.49l.04-.01 4.99.62a7.83 7.83 0 0 1 4.1 1.78l-.09.1c-3.32 0-8 2.58-8 7v10h2v5.59l-12.73-5.99a2 2 0 0 0 -2.26.39l-.05.06-.03-.03.82-3.76a7.763 7.763 0 0 0 .08-1.34c-.07-2.28-1.25-4-3.08-5.83a11.122 11.122 0 0 0 -3.83-2.52 8.931 8.931 0 0 0 -6.92-3.57l-.09-.1a7.865 7.865 0 0 1 4.1-1.78z" fill="#2b8ffc"/><path d="m24 13h-2v-4h1 18 1v4h-2z" fill="#8949f5"/><path d="m43 16v1a3 3 0 0 1 -3 3l-.06-.01a8.1 8.1 0 0 0 .06-.99v-5h1a2.006 2.006 0 0 1 2 2z" fill="#ffcdbe"/><path d="m24 20a3 3 0 0 1 -3-3v-1a2.006 2.006 0 0 1 2-2h1v5a8.1 8.1 0 0 0 .06.99z" fill="#ffcdbe"/><path d="m41 9h-18a8 8 0 0 1 8-8h2a8 8 0 0 1 8 8z" fill="#333940"/><path d="m13.41 50a9.587 9.587 0 0 0 .68.75c1.81 1.81 3.51 2.98 5.75 3.07l-1.84 9.18-5-5v-8z" fill="#ffcdbe"/><path d="m40 14v5a8.1 8.1 0 0 1 -.06.99 8.006 8.006 0 0 1 -13.6 4.67 7.984 7.984 0 0 1 -2.34-5.66v-6h16z" fill="#ffdecf"/><path d="m35.06 26.388a7.823 7.823 0 0 1 -.957.329c-.017.005-.035.008-.053.012a7.858 7.858 0 0 1 -.861.175c-.074.011-.148.022-.224.031a7.871 7.871 0 0 1 -.965.065 7.967 7.967 0 0 1 -3.967-1.059l-.033.059v4l-.94.12a9.279 9.279 0 0 0 2.93 3.28 3.667 3.667 0 0 0 4.02 0 9.279 9.279 0 0 0 2.93-3.28l-.94-.12v-4l-.03-.06a7.916 7.916 0 0 1 -.91.448z" fill="#ffbeaa"/><path d="m13.41 50h-1.41v-2.12a10.561 10.561 0 0 0 1.41 2.12z" fill="#6f3ff3"/><path d="m23 13h1v1h-1z" fill="#333940"/><path d="m40 13h1v1h-1z" fill="#333940"/><path d="m26.48 51.47.72-.72c1.94 1.94 3.971 2.5 5.261 3.8s-.161 2.75-.161 2.75-1.46 1.46-2.751.16-1.86-3.321-3.8-5.261z" fill="#e9b789"/><path d="m28.83 44.92a7.763 7.763 0 0 1 -.08 1.34l-.82 3.76-.73.73-.72.72h-.01l-.72.73-.73.73-3.76.82a7.763 7.763 0 0 1 -1.34.08v-.17l8.74-8.74z" fill="#e9b789"/><path d="m28.83 44.92h-.17l-8.74 8.74v.17c-2.28-.07-4-1.25-5.83-3.08-3.641-3.65-4.291-8.83-.731-12.391s8.741-2.91 12.391.731c1.83 1.83 3.01 3.55 3.08 5.83z" fill="#555a66"/><path d="m30.27 49.6 12.73 5.99v-5.59h8v6.46a7.925 7.925 0 0 1 -.57 2.97 5.669 5.669 0 0 1 -5.27 3.57h-.71c-.15 0-.3-.01-.45-.02a5.68 5.68 0 0 1 -2.27-.67l-9.73-6.31-.31-.23-1.59 2.13a2.009 2.009 0 0 1 -2.44.3l-2.69-1.62a2 2 0 0 1 -.97-1.71v-.87l3.96-3.95.05-.06a2 2 0 0 1 2.26-.39z" fill="#ffcdbe"/><path d="m8 26a3.989 3.989 0 0 1 -3.859-3 4 4 0 1 0 7.718 0 3.989 3.989 0 0 1 -3.859 3z" fill="#d8e0e8"/><path d="m41 9h-1v1a1 1 0 0 1 -1 1h-14a1 1 0 0 1 -1-1v-1h-2v4h20v-4z" fill="#6f3ff3"/><path d="m42 17.5v-.833a1.862 1.862 0 0 0 -2-1.667v4c0 .124-.017.247-.023.373a2.088 2.088 0 0 0 2.023-1.873z" fill="#ffbeaa"/><path d="m24 15a1.862 1.862 0 0 0 -2 1.667v.833a2.088 2.088 0 0 0 2.023 1.873c-.007-.126-.023-.249-.023-.373z" fill="#ffbeaa"/><path d="m40 15v-2h-16v6a7.984 7.984 0 0 0 2.34 5.66 7.838 7.838 0 0 0 1.69 1.28 7.954 7.954 0 0 0 3.97 1.06 8.035 8.035 0 0 0 1-.067 7.973 7.973 0 0 1 -2.97-.993 7.838 7.838 0 0 1 -1.69-1.28 7.984 7.984 0 0 1 -2.34-5.66v-2a2 2 0 0 1 2-2z" fill="#ffcdbe"/><path d="m38 15v4a8.1 8.1 0 0 1 -.06.99 8.008 8.008 0 0 1 -6.94 6.943 8.035 8.035 0 0 0 1 .067 8.018 8.018 0 0 0 7.94-7.01 8.1 8.1 0 0 0 .06-.99v-4z" fill="#ffe8de"/><path d="m44 62.98a5.68 5.68 0 0 1 -2.27-.67l-9.73-6.31-.31-.23-1.59 2.13a2.009 2.009 0 0 1 -2.44.3l-2.69-1.62a2 2 0 0 1 -.743-.807l-.227.227v.87a2 2 0 0 0 .97 1.71l2.69 1.62a2.009 2.009 0 0 0 2.44-.3l.027-.036a2.172 2.172 0 0 0 2.173-.564 2.918 2.918 0 0 0 .515-.772l6.895 4.472h4.29z" fill="#1d47a8"/><path d="m21.26 55.75 2.776-.6a1.952 1.952 0 0 1 -.036-.28v-.87l3.96-3.95-.03-.03-1.46 1.45-1.45 1.46-3.76.82a6.929 6.929 0 0 1 -1.42.07l-.394 1.966c.157.016.311.039.474.044a7.763 7.763 0 0 0 1.34-.08z" fill="#1d47a8"/><path d="m29.21 29.892a.994.994 0 0 1 1.2-1.166 13.027 13.027 0 0 0 5.59-.437v-2.289l-.03-.06a7.916 7.916 0 0 1 -.91.448 7.823 7.823 0 0 1 -.957.329c-.017.005-.035.008-.053.012a7.858 7.858 0 0 1 -.861.175c-.074.011-.148.022-.224.031a7.871 7.871 0 0 1 -.965.065 7.967 7.967 0 0 1 -3.967-1.059l-.033.059v4l-.94.12a9.279 9.279 0 0 0 2.93 3.28 3.91 3.91 0 0 0 2.01.6 3.508 3.508 0 0 0 .573-.051c-2.173-.262-3.034-2.407-3.363-4.057z" fill="#fbb39f"/><path d="m45 57a1 1 0 0 0 1-1v-1a2 2 0 0 1 2-2h3v-3h-8v5a2 2 0 0 0 2 2z" fill="#fbb39f"/><path d="m42.985 60.656-8.459-5.639a2 2 0 0 0 -2.671.415l-.133.362.278.206 9.73 6.31a5.68 5.68 0 0 0 2.27.67c.15.01.3.02.45.02h.71a5.668 5.668 0 0 0 3.214-1h-.952a8 8 0 0 1 -4.437-1.344z" fill="#fbb39f"/><path d="m30.49 55.223.6-.312a2 2 0 0 1 2.117-.459l.794.3a2.735 2.735 0 0 0 -1.148-3.935l-2.583-1.217a2 2 0 0 0 -2.26.39l-.05.06-3.334 3.326 2.933 1.76a3 3 0 0 0 2.931.087z" fill="#ffdecf"/><path d="m48 48a3.963 3.963 0 0 1 -2.62-1h-4.38v3h11v-2z" fill="#6f3ff3"/><path d="m44 44v-5c0-3.22 4.53-4.494 6.3-4.869a7.914 7.914 0 0 0 -1.21-1.231l-.09.1c-3.32 0-8 2.58-8 7v7h4.38a3.972 3.972 0 0 1 -1.38-3z" fill="#e1eaf2"/><path d="m19.84 53.82c-2.24-.09-3.94-1.26-5.75-3.07a9.587 9.587 0 0 1 -.68-.75h-.41v3.153a11.126 11.126 0 0 0 3.142 2.394 2.014 2.014 0 0 1 1.078 2.533l-1.129 3.011 1.909 1.909z" fill="#fbb39f"/><path d="m27.06 30.12.94-.12v-1.89l-.974.216v.674a1.768 1.768 0 0 0 -1.7 2.224 3.665 3.665 0 0 0 1.786 2.6 1 1 0 0 1 .45 1.52 1.764 1.764 0 0 1 -1.206.628 7.9 7.9 0 0 0 1.394 1.028c1.16 0 2.13-1.58 2.24-3.6a9.279 9.279 0 0 1 -2.93-3.28z" fill="#e1eaf2"/><path d="m36.465 35.339a1 1 0 0 1 .451-1.52 3.667 3.667 0 0 0 1.786-2.6 1.768 1.768 0 0 0 -1.702-2.219v-.668l-1-.222v1.89l.94.12a9.279 9.279 0 0 1 -2.93 3.28c.11 2.02 1.08 3.6 2.24 3.6a7.953 7.953 0 0 0 1.4-1.035 1.762 1.762 0 0 1 -1.185-.626z" fill="#e1eaf2"/><path d="m31.5 33.96a3.5 3.5 0 0 0 .5.04 3.91 3.91 0 0 0 2.01-.6 9.279 9.279 0 0 0 2.93-3.28l-.94-.12s-1.782 3.558-4.5 3.96z" fill="#fbb39f"/><path d="m40.426 36.976a5.9 5.9 0 0 0 -1.426 3.887v11.137h2v2.649l2 .941v-5.59h-2v-10c0-3.352 2.692-5.643 5.441-6.555l-.273-.088a11.463 11.463 0 0 0 -5.742 3.619z" fill="#2864f0"/><path d="m24 31v-.5l-4.99.62a7.865 7.865 0 0 0 -4.1 1.78l.09.1a8.267 8.267 0 0 1 2.545.449 28.618 28.618 0 0 1 6.455-1.407z" fill="#2cb5ff"/><path d="m49.09 32.9a7.83 7.83 0 0 0 -4.1-1.78l-4.99-.62v1.542a28.542 28.542 0 0 1 6.441 1.4 8.248 8.248 0 0 1 2.559-.442z" fill="#2cb5ff"/><path d="m24.1 32.034-.1.008v2.958a2 2 0 0 0 2 2h1.75a7.658 7.658 0 0 1 -3.65-4.966z" fill="#2864f0"/><path d="m34.01 33.4a3.667 3.667 0 0 1 -4.02 0c-.11 2.02-1.08 3.6-2.24 3.6h1.014a2 2 0 0 0 1.789-1.106 1.618 1.618 0 0 1 2.894 0 2 2 0 0 0 1.789 1.106h1.014c-1.16 0-2.13-1.58-2.24-3.6z" fill="#2864f0"/><path d="m36.25 37h1.75a2 2 0 0 0 2-2v-2.958l-.1-.008a7.658 7.658 0 0 1 -3.65 4.966z" fill="#2864f0"/><path d="m26.48 51.47.72-.72.73-.73.017-.075c-.068-.072-.125-.144-.2-.215l-.73.73-3.76.82a7.344 7.344 0 0 1 -1.035.075l-2.3 2.3v.17a7.763 7.763 0 0 0 1.34-.08l3.76-.82.73-.73.72-.73z" fill="#c7874e"/><path d="m22.225 51.355c-.1 0-.205.007-.3.005-2.28-.07-4-1.25-5.83-3.08-3-3.012-3.964-7.063-2.211-10.389-.176.15-.351.3-.52.468-3.564 3.561-2.915 8.741.726 12.391 1.83 1.83 3.55 3.01 5.83 3.08v-.17z" fill="#333940"/><path d="m33 4h-2a8 8 0 0 0 -7.414 5h16.828a8 8 0 0 0 -7.414-5z" fill="#2a2e33"/><path d="m33 18.857c0 1.657-.448 2.143-1 2.143s-1-.486-1-2.143.447-3.857 1-3.857 1 2.2 1 3.857z" fill="#fbb39f"/><path d="m29 22h6s0 2-3 2-3-2-3-2z" fill="#f2987e"/><ellipse cx="36" cy="15" fill="#333940" rx="1" ry="2"/><ellipse cx="27.999" cy="15" fill="#333940" rx="1" ry="2"/><rect fill="#9863fc" height="2" rx="1" width="8" x="25" y="9"/><rect fill="#9863fc" height="2" rx="1" width="4" x="34" y="9"/><ellipse cx="24" cy="42" fill="#f6fafd" rx="1.65" ry="2.297" transform="matrix(.707 -.707 .707 .707 -22.673 29.288)"/><ellipse cx="24.682" cy="45.708" fill="#f6fafd" rx=".825" ry="1.148" transform="matrix(.707 -.707 .707 .707 -25.096 30.857)"/><ellipse cx="9.682" cy="22.708" fill="#f6fafd" rx=".825" ry="1.148" transform="matrix(.707 -.707 .707 .707 -13.224 13.505)"/><ellipse cx="39.427" cy="10.208" fill="#f6fafd" rx=".413" ry=".574" transform="matrix(.707 -.707 .707 .707 4.337 30.881)"/><g fill="#2cb5ff"><rect height="6" rx="1" width="2" x="4" y="12"/><rect height="3" rx="1" width="2" x="4" y="8"/><rect height="6" rx="1" width="2" x="7" y="12"/><rect height="3" rx="1" width="2" x="7" y="8"/><rect height="6" rx="1" width="2" x="10" y="12"/><rect height="3" rx="1" width="2" x="10" y="8"/></g><circle cx="32" cy="37" fill="#f6fafd" r="1"/><circle cx="32" cy="41" fill="#f6fafd" r="1"/></g></svg>