<svg id="Flat" enable-background="new 0 0 78 124" height="512" viewBox="0 0 78 124" width="512" xmlns="http://www.w3.org/2000/svg"><g><path d="m33.03 71.47h-.02l.01 3.78.01.03c-1.41.45-3.01 1.05-4.73 1.86-1.68.79-3.48 1.78-5.32 3.01-1.09.73-2.19 1.54-3.3 2.45-8.38 6.88-16.91 19.24-19.68 41.4h14s.7-6.92 3.52-11.56l.22 5.25.26 6.31h10.3 10.7 21l.48-11.56c2.82 4.64 3.52 11.56 3.52 11.56h14c-2.9-23.21-12.11-35.66-20.85-42.33-1.27-.97-2.53-1.82-3.75-2.55-1.78-1.08-3.49-1.92-5.07-2.6-1.1-.46-2.13-.84-3.09-1.15l-.03-.07v-.02l-.01-3.81z" fill="#ffc05a"/><path d="m45.18 66.94.02 4.53h-.02c-6.99 2.17-12.15 0-12.15 0h-.02l-.01-4.47z" fill="#fec4b9"/><g fill="#f7b6ad"><path d="m45.2 71.225-.02-4.285c-1.97.67-4.05 1.06-6.18 1.06-2.07 0-4.09-.37-6-1l.01 2.672s3.65 2.2 12.19 1.553z"/><path d="m17.2 51.96c-2.7.32-5.51-1.6-6.68-4.78-1.35-3.67.01-7.63 3.04-8.83.29-.12.59-.2.89-.25z"/><path d="m63.55 38.1c.3.05.6.13.89.25 3.03 1.2 4.39 5.16 3.04 8.83-1.17 3.18-3.98 5.1-6.68 4.78z"/></g><path d="m64.4 18.17v-.02s2.16-5.19-3.61-6.72c0 0 .36-4.26-4.24-4.43 0 0 .11-4.34-5.12-3.64 0 0-1.54-2.93-6.32-1.59 0 0-2.24-1.77-6.11-1.77s-6.11 1.77-6.11 1.77c-4.78-1.34-6.32 1.59-6.32 1.59-5.23-.7-5.12 3.64-5.12 3.64-4.6.17-4.24 4.43-4.24 4.43-5.62 1.49-3.72 6.44-3.62 6.71l.41 9.2v1.66c0 11 2 22 5 27s11 12 20 12 17-7 20-12 5-16 5-27v-1.66l.02-.04z" fill="#5d5560"/><path d="m62.89 43.15c.01.01 0 .02 0 .03-.59-.04-5.34-.15-5.26 4.49 0 0-3.12.13-3.31 4.32 0 0-4.18-1.59-5.97 3.35l-1.97-9.36c-.72-3.41-3.68-5.94-7.16-5.98-.05 0-.11 0-.17 0h-.05c-.06 0-.11 0-.17 0-3.48.04-6.43 2.57-7.15 5.98l-1.98 9.36c-1.79-4.94-5.97-3.35-5.97-3.35-.18-4.19-3.3-4.32-3.3-4.32.08-4.81-5.03-4.51-5.32-4.49v-.01c3.52-1.95 3.53-7.17 3.53-7.17 2.21-1.81 1.62-5.09 1.62-5.09 3.14-.68 3.47-6.78 3.47-6.78 4.16-.98 9.244-2.219 15.214-2.279h.11c5.95.06 11.116 1.289 15.266 2.259v.02s.33 6.1 3.48 6.78c0 0-.6 3.28 1.61 5.09 0 0 .01 5.17 3.48 7.15z" fill="#fec4b9"/><circle cx="29" cy="38" fill="#543927" r="2"/><circle cx="49" cy="38" fill="#543927" r="2"/><path d="m10.97 25.04-.97-5.61s1.32-1.58 3.59-1.29c.01.01.01.01.01.01.54.07 1.14.25 1.78.58 0 0 2.32-4.41 7.26-2.71 0 0 3.44-3.67 8.27-.39 0 0 3.69-3.86 8.09-.63h.11c4.41-3.23 8.09.63 8.09.63 4.83-3.28 8.28.39 8.28.39 4.93-1.7 7.26 2.71 7.26 2.71.6-.31 1.16-.48 1.66-.56 2.34-.37 3.71 1.26 3.71 1.26l-.97 5.61-28.113-5.096z" fill="#53b79a"/><path d="m67.14 25.04-.6 3.5s-.87-.51-2.52-1.24c-2.06-.91-5.35-2.16-9.7-3.19-4.15-.97-9.26-1.73-15.21-1.79h-.11c-5.97.06-11.11.83-15.27 1.81-4.39 1.03-7.69 2.3-9.73 3.21-1.59.71-2.43 1.2-2.43 1.2l-.6-3.5s10.86-6.18 28.03-6.35h.11c17.17.17 28.03 6.35 28.03 6.35z" fill="#ffc05a"/><path d="m57.15 81.67c.14 20.68-18.15 42.31-18.15 42.31v.02h-10.7s23.01-24.72 25.1-44.88c1.22.73 2.48 1.58 3.75 2.55z" fill="#e7f2f1"/><path d="m48.33 76.52c1.58.68 3.29 1.52 5.07 2.6-2.09 20.16-25.1 44.88-25.1 44.88h-10.3l-.26-6.31s2.48-1.27 6.24-4.48c1.79-1.53 3.87-3.5 6.11-5.98v-.01c1.85-2.04 3.8-4.44 5.79-7.22v-.01c4.23-5.92 8.62-13.62 12.45-23.47z" fill="#c3ddda"/><path d="m45.2 71.461.01 3.819c-7.09 2.8-12.18 0-12.18 0l-.01-.03-.01-3.789.02.009s5.16 2.17 12.15 0z" fill="#f9b132"/><path d="m35.88 99.99v.01c-1.99 2.78-3.94 5.18-5.79 7.22.43-15.26-7.11-27.07-7.11-27.07 1.84-1.23 3.64-2.22 5.32-3.01 0 0 6.09 7.09 7.58 22.85z" fill="#c3ddda"/><path d="m22.98 80.15s7.54 11.81 7.11 27.07v.01c-2.24 2.48-4.32 4.45-6.11 5.98.53-13.53-4.3-30.61-4.3-30.61 1.11-.91 2.21-1.72 3.3-2.45z" fill="#e7f2f1"/><path d="m52.279 29.54c-.198 0-.399-.059-.574-.182-1.813-1.275-4.419-.848-4.444-.843-.543.095-1.061-.271-1.154-.814-.095-.543.267-1.06.81-1.156.138-.025 3.439-.582 5.939 1.177.452.317.561.941.243 1.393-.196.277-.505.425-.82.425z" fill="#504256"/><path d="m25.721 29.54c-.314 0-.624-.148-.819-.425-.317-.452-.209-1.076.243-1.393 2.501-1.76 5.801-1.203 5.939-1.177.544.096.907.615.811 1.159-.095.543-.607.905-1.156.812-.047-.008-2.638-.427-4.443.843-.176.122-.377.181-.575.181z" fill="#504256"/><path d="m39 48.71c-1.079 0-2.18-.158-3.273-.468-.531-.151-.84-.704-.688-1.235.151-.532.7-.84 1.235-.688 1.83.521 3.623.521 5.453 0 .531-.15 1.084.157 1.235.688s-.157 1.084-.688 1.235c-1.094.31-2.195.468-3.274.468z" fill="#ea8d81"/><path d="m14.012 124h-7.841c.011-.101 3.202-1.962 5.372-4.489 1.714-1.996 1.864-3.662 3.817-7.304.265-.494.9-.652 1.379-.361.462.281.599.871.34 1.346-2.484 4.559-3.061 10.745-3.067 10.808z" fill="#f9b132"/><path d="m64.014 124h7.841c-.011-.101-4.042-2.592-5.372-4.489-1.51-2.155-1.902-3.662-3.855-7.304-.265-.494-.9-.652-1.379-.361-.462.281-.599.871-.34 1.346 2.483 4.559 3.098 10.745 3.105 10.808z" fill="#f9b132"/></g></svg>