<svg id="Flat" enable-background="new 0 0 78 124" height="512" viewBox="0 0 78 124" width="512" xmlns="http://www.w3.org/2000/svg"><g><path d="m63.53 38.1h.01c.16-1.52.27-3.07.35-4.64l.04-.08c-1.725-2.603-17.783-6.013-23.59-6.521-15.61.644-24.001 4.743-26.24 6.501.07 1.6.19 3.19.35 4.74z" fill="#472d1c"/><path d="m51.78 7.51s-11.87-6.17-12.78-7.51c-.46.67-3.65 2.55-6.74 4.26-3.08 1.71-6.05 3.25-6.05 3.25-16.47 8.67-14.91 24.58-14.59 26.87.02.18.04.28.04.28s.86-.53 2.44-1.3c2.63-1.27 7.27-3.18 13.33-4.4 3.43-.69 7.33-1.16 11.57-1.15 4.24-.01 8.13.46 11.56 1.15 6.09 1.22 10.75 3.15 13.37 4.42 1.57.76 2.41 1.28 2.41 1.28s.01-.08.04-.23c0-.01 0-.02 0-.03.31-2.22 1.93-18.19-14.6-26.89z" fill="#3fa07f"/><path d="m17.2 51.96c-2.7.32-5.51-1.6-6.68-4.78-1.35-3.67.01-7.63 3.04-8.83.29-.12.59-.2.89-.25z" fill="#dfa3a5"/><path d="m63.54 38.1c.31.05.6.13.89.25 3.03 1.2 4.39 5.16 3.04 8.83-1.17 3.17-3.98 5.09-6.67 4.78z" fill="#dfa3a5"/><path d="m51.78 7.51c16.53 8.7 14.91 24.67 14.6 26.89-.69-5.46-3.7-13.53-14.59-18.72 0 0-11.88-5.59-12.79-6.81-.46.61-3.65 2.31-6.74 3.86-3.08 1.55-6.05 2.95-6.05 2.95-10.88 5.18-13.89 13.23-14.59 18.7-.32-2.29-1.88-18.2 14.59-26.87 0 0 2.97-1.54 6.05-3.25 3.09-1.71 6.28-3.59 6.74-4.26.91 1.34 12.78 7.51 12.78 7.51z" fill="#6fceae"/><path d="m17.2 51.96c-1.27-3.68-2.23-8.56-2.75-13.86 0 0 7.3-1.65 12.98-9.14 3.43-.69 7.33-1.16 11.57-1.15 4.24-.01 8.13.46 11.56 1.15 5.68 7.49 12.97 9.14 12.97 9.14h.01c-.51 5.3-1.47 10.18-2.74 13.86-.55 1.59-1.15 2.96-1.8 4.04-2.29 3.81-7.49 8.79-13.82 10.94-1.97.67-4.05 1.06-6.18 1.06-2.07 0-4.09-.37-6-1-6.42-2.11-11.69-7.15-14-11-.65-1.08-1.25-2.45-1.8-4.04z" fill="#f7b6ad"/><circle cx="49" cy="42.42" fill="#543927" r="2"/><path d="m45.18 66.94-12.18.06.02 13.21 12.19-.1z" fill="#f7b6ad"/><path d="m39 14.28c2.69 0 4.88 2.19 4.88 4.88 0 2.7-2.19 4.88-4.88 4.88s-4.88-2.18-4.88-4.88c0-2.69 2.19-4.88 4.88-4.88zm1.88 4.88c0-1.03-.84-1.88-1.88-1.88s-1.88.85-1.88 1.88c0 1.04.84 1.88 1.88 1.88s1.88-.84 1.88-1.88z" fill="#d14b62"/><circle cx="39" cy="19.16" fill="#f48ca7" r="1.88"/><path d="m42.94 123.915h17.06l.48-11.56c2.82 4.64 3.52 11.56 3.52 11.56h14c-3.81-30.45-18.502-42.401-28.722-47.061l-2.427.87-1.841 4.221h-12.01l-1.407-5.08-2.851-.024c-10.22 4.66-24.932 16.614-28.742 47.074h14s.7-6.92 3.52-11.56l.48 11.56h17.06z" fill="#6fceae"/><circle cx="29" cy="42.42" fill="#543927" r="2"/><path d="m52.279 36.92c-.199 0-.401-.06-.576-.183-1.801-1.273-4.416-.846-4.442-.841-.547.095-1.06-.271-1.155-.815-.094-.543.268-1.06.811-1.155.141-.023 3.449-.583 5.94 1.178.451.319.558.943.24 1.394-.195.275-.504.422-.818.422z" fill="#472d1c"/><path d="m25.731 36.92c-.314 0-.623-.147-.818-.423-.318-.451-.211-1.075.24-1.394 2.492-1.76 5.801-1.202 5.94-1.178.544.096.907.614.812 1.158-.096.543-.609.902-1.157.812-.06-.011-2.652-.422-4.441.841-.175.124-.377.184-.576.184z" fill="#472d1c"/><path d="m39 47.13c-1.103 0-2.204-.154-3.273-.458-.531-.151-.839-.704-.688-1.235s.704-.84 1.235-.688c1.783.507 3.67.507 5.453 0 .53-.151 1.084.157 1.235.688s-.157 1.084-.688 1.235c-1.07.304-2.171.458-3.274.458z" fill="#ea8d81"/><path d="m42.94 123.915 6.36-14.915-5.34-7.4 5.34-6.64-4.29-12.93-.563-2.073-2.967-1.977h-4.96l-2.988 1.786-.532 2.264-4.3 12.93 5.34 6.64-5.34 7.4 6.36 14.915z" fill="#f48ca7"/><path d="m62.298 104.17-.299-4.128c.023-.552-.405-1.018-.957-1.041-.569-.022-1.018.406-1.041.957l.479 12.482c2.83 4.64 3.52 11.56 3.52 11.56h7.782c-.02-.194-6.91-4.915-9.484-19.83z" fill="#53b79a"/><path d="m14.809 104.17.299-4.128c-.023-.552.405-1.018.957-1.041.569-.022 1.018.406 1.041.957l.414 12.482c-2.83 4.64-3.52 11.56-3.52 11.56h-7.782c.019-.194 6.016-4.915 8.591-19.83z" fill="#53b79a"/><path d="m41.48 77.98-.48-1.96 4.21-1.91 3.11-1.41.98 4.25.55 2.39-4.84 2.69-2.23 1.23z" fill="#3fa07f"/><path d="m37 76.02-.48 1.96-1.3 5.28-2.22-1.23-4.85-2.69.55-2.39.98-4.25 3.34 1.51z" fill="#3fa07f"/><path d="m40.114 123.915v-7.405h2.496c.552 0 1-.448 1-1s-.448-1-1-1h-2.496v-7.06h2.496c.552 0 1-.448 1-1s-.448-1-1-1h-2.496v-9.11h2.496c.552 0 1-.448 1-1s-.448-1-1-1h-2.496v-5.72h2.496c.552 0 1-.448 1-1s-.448-1-1-1h-2.496v-8.64h-2v8.64h-2.724c-.552 0-1 .448-1 1s.448 1 1 1h2.724v5.72h-2.724c-.552 0-1 .448-1 1s.448 1 1 1h2.724v9.11h-2.724c-.552 0-1 .448-1 1s.448 1 1 1h2.724v7.06h-2.724c-.552 0-1 .448-1 1s.448 1 1 1h2.724v7.405z" fill="#d14b62"/><path d="m45.2 71.225-.02-4.285c-1.97.67-4.05 1.06-6.18 1.06-2.07 0-4.09-.37-6-1l.01 2.672s3.65 2.2 12.19 1.553z" fill="#dfa3a5"/></g></svg>