<svg height="512" viewBox="0 0 64 64" width="512" xmlns="http://www.w3.org/2000/svg"><g id="_21-bowling_player" data-name="21-bowling player"><path d="m53.85 41-.03.15a11.045 11.045 0 0 0 -8.8 2.34l-.02-.49 2-11a7.906 7.906 0 0 1 6.15 5.97z" fill="#cdd6de"/><path d="m17 32 2 11-.1 1.98-9.24-1.85 1.19-5.16a7.906 7.906 0 0 1 6.15-5.97z" fill="#e1eaf2"/><path d="m9.66 43.13 9.24 1.85-.15 2.97-6.75-1.35-3-.6z" fill="#6f3ff3"/><path d="m41.02 30.91-.02.09-4 7-5-2 4.87-5.84z" fill="#6f3ff3"/><path d="m27.13 30.16 4.87 5.84-5 2-4-7-.02-.09z" fill="#6f3ff3"/><path d="m18.9 44.98.1-1.98-2-11 5.98-1.09.02.09 4 7 5-2 5 2 4-7 .02-.09 5.98 1.09-2 11 .02.49a11.009 11.009 0 0 0 .98 17.73v1.78h-28l.75-15.05z" fill="#2b8ffc"/><path d="m23 14a2.006 2.006 0 0 0 -2 2v-5a10 10 0 0 1 10-10h2a10 10 0 0 1 10 10v5a2.006 2.006 0 0 0 -2-2h-1v-2c-11 0-13-5-13-5s-1 4-3 5v2z" fill="#ad8c96"/><path d="m45.02 43.49a11 11 0 1 1 6.98 19.51 11.006 11.006 0 0 1 -6.98-19.51zm10.98 14.51a1 1 0 1 0 -1 1 1 1 0 0 0 1-1zm-3-4a1 1 0 1 0 -1 1 1 1 0 0 0 1-1zm-3 4a1 1 0 1 0 -1 1 1 1 0 0 0 1-1z" fill="#6f3ff3"/><g fill="#fec9d3"><path d="m18.75 47.95-.75 15.05h-6v-16.4z"/><path d="m36.87 30.16-4.87 5.84-4.87-5.84.87-.16v-4l.03-.06a7.964 7.964 0 0 0 7.94 0l.03.06v4z"/><path d="m43 17a3 3 0 0 1 -3 3l-.06-.01a8.1 8.1 0 0 0 .06-.99v-5h1a2.006 2.006 0 0 1 2 2z"/><path d="m24 20a3 3 0 0 1 -3-3v-1a2.006 2.006 0 0 1 2-2h1v5a8.1 8.1 0 0 0 .06.99z"/><path d="m40 14v5a7.984 7.984 0 0 1 -2.34 5.66 7.838 7.838 0 0 1 -1.69 1.28 8 8 0 0 1 -11.91-5.95 8.1 8.1 0 0 1 -.06-.99v-7c2-1 3-5 3-5s2 5 13 5z"/></g><circle cx="55" cy="58" fill="#707789" r="1"/><circle cx="49" cy="58" fill="#707789" r="1"/><circle cx="52" cy="54" fill="#707789" r="1"/><path d="m55 58a.989.989 0 0 1 .846.5.969.969 0 0 0 .154-.5 1 1 0 0 0 -2 0 .969.969 0 0 0 .154.5.989.989 0 0 1 .846-.5z" fill="#555a66"/><path d="m49 57a1 1 0 0 0 -1 1 .969.969 0 0 0 .154.5.966.966 0 0 1 1.692 0 .969.969 0 0 0 .154-.5 1 1 0 0 0 -1-1z" fill="#555a66"/><path d="m52 53a1 1 0 0 0 -1 1 .969.969 0 0 0 .154.5.966.966 0 0 1 1.692 0 .969.969 0 0 0 .154-.5 1 1 0 0 0 -1-1z" fill="#555a66"/><path d="m52 56a10.88 10.88 0 0 1 -6-1.78 11.013 11.013 0 0 1 -4.418-5.747 11 11 0 0 0 4.418 12.747 10.88 10.88 0 0 0 6 1.78 10.982 10.982 0 0 0 10.422-14.5 10.99 10.99 0 0 1 -10.422 7.5zm-3 3a1 1 0 1 1 1-1 1 1 0 0 1 -1 1zm6 0a1 1 0 1 1 1-1 1 1 0 0 1 -1 1z" fill="#5931c2"/><path d="m42 17.5v-.833a1.862 1.862 0 0 0 -2-1.667v4c0 .124-.017.247-.023.373a2.088 2.088 0 0 0 2.023-1.873z" fill="#f3afba"/><path d="m24 15a1.862 1.862 0 0 0 -2 1.667v.833a2.088 2.088 0 0 0 2.023 1.873c-.007-.126-.023-.249-.023-.373z" fill="#f3afba"/><path d="m42 12v-.567a1.438 1.438 0 0 0 -1.4-1.457c-9.6.024-10.75-2.484-12.347-4.145a1 1 0 0 0 -1.668.355 20.492 20.492 0 0 1 -3.964 6.15 2 2 0 0 1 -1.489.664h-.132v3a2.006 2.006 0 0 1 2-2h1v-2c2-1 3-5 3-5s2 5 13 5v2h1a2.006 2.006 0 0 1 2 2v-3a1 1 0 0 1 -1-1z" fill="#8f747b"/><path d="m40 14v-2c-11 0-13-5-13-5s-1 4-3 5v7a8.1 8.1 0 0 0 .06.99 7.966 7.966 0 0 0 8.94 6.943 8.008 8.008 0 0 1 -6.94-6.943 8.1 8.1 0 0 1 -.06-.99v-7a9.626 9.626 0 0 0 1-3s2 5 13 5z" fill="#f3afba"/><path d="m38 14v5a7.984 7.984 0 0 1 -2.34 5.66 7.838 7.838 0 0 1 -1.69 1.28 7.973 7.973 0 0 1 -2.97.993 8.035 8.035 0 0 0 1 .067 7.954 7.954 0 0 0 3.97-1.06 7.838 7.838 0 0 0 1.69-1.28 7.984 7.984 0 0 0 2.34-5.66v-5c-.7 0-1.368-.022-2-.06z" fill="#ffd9dd"/><path d="m30 30.586v-1.02a1 1 0 0 1 1.3-.946 7.886 7.886 0 0 0 4.7-.22v-2.4l-.03-.06a7.964 7.964 0 0 1 -7.94 0l-.03.06v4l-.87.16 4.87 5.84 1.364-1.636-3.071-3.071a1 1 0 0 1 -.293-.707z" fill="#f3afba"/><path d="m18.75 47.95-6.75-1.35v2.733l2.2.368a2 2 0 0 1 1.666 2.115l-.795 11.184h2.929z" fill="#f3afba"/><path d="m45.153 42.159-.153.841.02.49a11.151 11.151 0 0 1 2.358-1.475c-.126 0-.251-.015-.378-.015a11.022 11.022 0 0 0 -1.847.159z" fill="#6136d4"/><path d="m41 52a10.973 10.973 0 0 1 4.02-8.51l-.02-.49.153-.841a10.943 10.943 0 0 0 -9.1 9.865c-3.167 3.919-9.91 6.685-17.854 6.941l-.199 4.035h28v-1.78a10.988 10.988 0 0 1 -5-9.22z" fill="#2864f0"/><path d="m35.944 31.27 4.214 1.204.842-1.474.02-.09-4.15-.75z" fill="#9863fc"/><path d="m28.085 31.305-.955-1.145-4.15.75.02.09.96 1.68z" fill="#9863fc"/><path d="m47.171 34.478a4 4 0 0 1 2.578 2.27l1.83 4.271c.141-.006.279-.019.421-.019a10.9 10.9 0 0 1 1.82.15l.03-.15-.7-3.03a7.906 7.906 0 0 0 -6.15-5.97l-.42 2.309z" fill="#ebf5f7"/><path d="m41.955 31.08-.935-.17-.02.09-.842 1.474.883.252 5.539 1.583.42-2.309z" fill="#2cb5ff"/><path d="m22.98 30.91-.935.17-5.045.92.514 2.829 5.58-1.86.866-.289-.96-1.68z" fill="#2cb5ff"/><path d="m37 38-5-2-5 2-3.04-5.32-.866.289 3.906 7.031 3.514-1.406a4.007 4.007 0 0 1 2.972 0l3.514 1.406 4.041-7.274-.883-.252z" fill="#2864f0"/><path d="m13.587 38.274a4 4 0 0 1 2.59-3.051l1.323-.473-.5-2.75a7.906 7.906 0 0 0 -6.15 5.97l-1.19 5.16 2.937.588z" fill="#ebf5f7"/><path d="m9.66 43.13-.66 2.87 3 .6.07.014.527-2.896z" fill="#9863fc"/><path d="m55 56a2 2 0 1 0 2 2 2 2 0 0 0 -2-2zm0 3a1 1 0 1 1 1-1 1 1 0 0 1 -1 1z" fill="#4f2cad"/><path d="m49 56a2 2 0 1 0 2 2 2 2 0 0 0 -2-2zm0 3a1 1 0 1 1 1-1 1 1 0 0 1 -1 1z" fill="#4f2cad"/><path d="m52 52a2 2 0 1 0 2 2 2 2 0 0 0 -2-2zm0 3a1 1 0 1 1 1-1 1 1 0 0 1 -1 1z" fill="#4f2cad"/><ellipse cx="56.684" cy="45.695" fill="#f6fafd" rx="1.642" ry="2.286" transform="matrix(.707 -.707 .707 .707 -15.706 53.49)"/><ellipse cx="59.682" cy="48.708" fill="#f6fafd" rx=".825" ry="1.148" transform="matrix(.707 -.707 .707 .707 -16.959 56.494)"/><ellipse cx="38.427" cy="33.208" fill="#f6fafd" rx=".413" ry=".574" transform="matrix(.707 -.707 .707 .707 -12.225 36.916)"/><ellipse cx="36" cy="15" fill="#2cb5ff" rx="1" ry="2"/><ellipse cx="27.999" cy="15" fill="#2cb5ff" rx="1" ry="2"/><path d="m33 18.857c0 1.657-.448 2.143-1 2.143s-1-.486-1-2.143.447-3.857 1-3.857 1 2.2 1 3.857z" fill="#f38d9e"/><path d="m29 22h6s0 2-3 2-3-2-3-2z" fill="#f38d9e"/><ellipse cx="25" cy="43.5" fill="#e1eaf2" rx="4" ry="2.5"/></g></svg>