<svg height="512" viewBox="0 0 64 64" width="512" xmlns="http://www.w3.org/2000/svg"><g id="_02-baseball" data-name="02-baseball"><path d="m63 5.56a4.442 4.442 0 0 1 -1.17 3l-4.83 5.2v-.76a7.979 7.979 0 0 0 -4.72-7.29l2.2-2.88a4.855 4.855 0 0 1 6.63-.92 4.506 4.506 0 0 1 1.89 3.65z" fill="#f2cfa9"/><path d="m62 39.01v1.77a34.753 34.753 0 0 1 -3.68 15.57 3.139 3.139 0 0 0 -.32 1.38v1.27l1 2v2h-22v-5.47l3.28 2.02a2.9 2.9 0 0 0 1.57.45h1.01a3 3 0 0 0 1.99-.76l6.95-7.04 1.2.8 7.78-10.4a5.92 5.92 0 0 0 1.22-3.59z" fill="#ebf5f7"/><path d="m51.8 52.2-5.97-3.98-1.83-1.22 6.67-11.04a6.074 6.074 0 0 1 3.71-2.77 6.165 6.165 0 0 1 4.8.75 5.971 5.971 0 0 1 2.82 5.06v.01a5.92 5.92 0 0 1 -1.22 3.59l-7.78 10.4z" fill="#2b8ffc"/><path d="m52.28 5.71a7.979 7.979 0 0 1 4.72 7.29v8a4 4 0 0 1 -3.08 3.89 3.929 3.929 0 0 1 -.92.11 4 4 0 0 1 -4-4v-4h-16a2 2 0 0 1 0-4h2a8 8 0 0 1 8-8h6a7.821 7.821 0 0 1 3.28.71zm1.72 15.29a1 1 0 1 0 -1 1 1 1 0 0 0 1-1z" fill="#2b8ffc"/><path d="m54.37 33.16.01.03a6.074 6.074 0 0 0 -3.71 2.77l-6.67 11.04 1.83 1.22-3.83 4.78-5-2.5v-12.5l7-2c0 1.11 1 2 3 2a4.4 4.4 0 0 0 4-4z" fill="#fafcff"/><path d="m53.92 24.89.03.11a9.013 9.013 0 0 1 -8.95 8 8.22 8.22 0 0 1 -.99-.06 8.851 8.851 0 0 1 -3.68-1.25 9 9 0 0 1 -1.69-1.33 8.749 8.749 0 0 1 -2.18-3.55h-.01a9.036 9.036 0 0 1 -.45-2.81v-7h13v4a4 4 0 0 0 4 4 3.929 3.929 0 0 0 .92-.11z" fill="#ffbeaa"/><circle cx="53" cy="21" fill="#6f3ff3" r="1"/><path d="m37 50.5 5 2.5 3.83-4.78 5.97 3.98-6.95 7.04a3 3 0 0 1 -1.99.76h-1.01a2.9 2.9 0 0 1 -1.57-.45l-3.28-2.02-9-5.53 2-5 2 1z" fill="#ffbeaa"/><path d="m51 31v3a4.4 4.4 0 0 1 -4 4c-2 0-3-.89-3-2v-3l.01-.06a8.22 8.22 0 0 0 .99.06 8.963 8.963 0 0 0 5.86-2.17z" fill="#ffbeaa"/><path d="m40.33 31.69-.26.31-11.68 12.58-1.54-2.31a1.992 1.992 0 0 0 -1.85-.88v-.06l11-14.36.45-.16h.01a8.749 8.749 0 0 0 2.18 3.55 9 9 0 0 0 1.69 1.33z" fill="#f2cfa9"/><path d="m37 57.53v.47l-.35 1.4a3.437 3.437 0 0 1 -5.63 1.72l-8.73-7.86 2.64-3.18 3.07 1.92z" fill="#faa68e"/><path d="m37 38v12.5l-5-2.5z" fill="#2b8ffc"/><path d="m28.39 44.58 1.61 2.42-2 5-3.07-1.92-4.93-3.08.01-.02 2.99-4.98 1.55-.52a1.8 1.8 0 0 1 .45-.09 1.992 1.992 0 0 1 1.85.88z" fill="#ebf5f7"/><path d="m22.29 53.26-1.07 1.28a1.99 1.99 0 0 1 -2.51.46 1.089 1.089 0 0 1 -.23-.14l-1.52-1.14a2.4 2.4 0 0 1 -.48-3.36l1.87-3.23a1 1 0 0 1 1.57-.21l.09.06-.01.02 4.93 3.08z" fill="#dce1eb"/><path d="m23.09 15.86a5.987 5.987 0 0 1 .89 9.62c-.19-2.97-1.98-3.39-1.98-4.48a15.988 15.988 0 0 1 1-5z" fill="#fafcff"/><path d="m22 21c0 1.09 1.79 1.51 1.98 4.48a5.971 5.971 0 0 1 -7.96 0c.19-2.97 1.98-3.39 1.98-4.48a15.988 15.988 0 0 0 -1-5l-.09-.14a5.981 5.981 0 0 1 6.18 0l-.09.14a15.988 15.988 0 0 0 -1 5z" fill="#fafcff"/><path d="m17 16a15.988 15.988 0 0 1 1 5c0 1.09-1.79 1.51-1.98 4.48a5.987 5.987 0 0 1 .89-9.62z" fill="#fafcff"/><path d="m16.2 57.71.29.29a1.761 1.761 0 0 1 -2.49 2.49l-2.49-2.49a1.761 1.761 0 0 1 2.49-2.49l.08.08z" fill="#f2cfa9"/><path d="m16.96 53.72 1.52 1.14a1.089 1.089 0 0 0 .23.14l-2.51 2.71-2.12-2.12 2.18-2.71a2.355 2.355 0 0 0 .7.84z" fill="#f2cfa9"/><path d="m17.777 22.47a2.3 2.3 0 0 0 .723-1.47 13.672 13.672 0 0 0 -.789-4.365l-.231-.775a.489.489 0 0 0 -.152-.226 5.908 5.908 0 0 0 -.81.486v.02l.234.785a12.9 12.9 0 0 1 .748 4.075c0 .229-.177.454-.491.83a5.654 5.654 0 0 0 -1.442 3.2 6.012 6.012 0 0 0 .938.836c0-.123.007-.248.014-.358a4.66 4.66 0 0 1 1.258-3.038z" fill="#ff5a59"/><path d="m24.433 25.034a5.654 5.654 0 0 0 -1.442-3.2c-.314-.376-.491-.6-.491-.83a12.9 12.9 0 0 1 .746-4.075l.234-.785c0-.007 0-.014 0-.02a5.969 5.969 0 0 0 -.81-.486.481.481 0 0 0 -.152.226l-.231.775a13.672 13.672 0 0 0 -.787 4.361 2.3 2.3 0 0 0 .723 1.47 4.66 4.66 0 0 1 1.258 3.042c.007.11.011.235.014.358a6.012 6.012 0 0 0 .938-.836z" fill="#ff5a59"/><path d="m47 13h-14a2 2 0 0 0 0 4h16v-2a2 2 0 0 0 -2-2z" fill="#2b8ffc"/><path d="m15 59.49-2.49-2.49a1.771 1.771 0 0 1 -.39-1.88 1.747 1.747 0 0 0 -.61 2.88l2.49 2.49a1.747 1.747 0 0 0 2.88-.61 1.764 1.764 0 0 1 -1.88-.39z" fill="#e9aa70"/><path d="m61.438 2.179c-.106-.092-.212-.185-.328-.269a4.861 4.861 0 0 0 -4.6-.566l.279.248a4 4 0 0 1 .386 5.584l-1.381 1.624a7.95 7.95 0 0 1 1.206 4.2v.76l4.83-5.2a4.461 4.461 0 0 0 .943-1.651 4.413 4.413 0 0 0 .227-1.349 4.485 4.485 0 0 0 -1.562-3.381z" fill="#e9aa70"/><path d="m38.64 30.36a9.07 9.07 0 0 1 -2.18-3.55h-.01l-.45.16-1.644 2.146a8.935 8.935 0 0 0 .848 1.62 1.991 1.991 0 0 1 -.148 2.39l-8.025 9.415 1.359 2.039 10.219-11.007 1.461-1.573.26-.31a9 9 0 0 1 -1.69-1.33z" fill="#e9aa70"/><path d="m53.92 24.89a3.929 3.929 0 0 1 -.92.11 4 4 0 0 1 -4-4v-4h-13v3h10a1 1 0 0 1 1 1 6 6 0 0 0 6 6c.165 0 .327-.012.489-.025a8.961 8.961 0 0 0 .461-1.975z" fill="#faa68e"/><path d="m50.86 30.83a8.963 8.963 0 0 1 -5.86 2.17 8.22 8.22 0 0 1 -.99-.06l-.01.06v3c0 .9.674 1.653 2 1.9v-2.114a2 2 0 0 1 1.6-1.953 7.476 7.476 0 0 0 3.4-1.747v-1.086z" fill="#faa68e"/><path d="m45.83 48.22-1.341 1.673 1.511.907a2 2 0 0 1 .507 2.995l-2.459 2.951a2 2 0 0 1 -2.485.48l-9.989-5.379a2 2 0 0 1 -.909-2.5l.67-1.676-1.335-.671-2 5 9 5.53 3.28 2.02a2.9 2.9 0 0 0 1.57.45h1.01a3 3 0 0 0 1.99-.76l6.95-7.04z" fill="#faa68e"/><path d="m28 52-3.07-1.92-2.64 3.18 1.289 1.161 1.262-1.262a2 2 0 0 1 2.523-.25l6.463 4.309a2 2 0 0 1 .831 2.149 3.47 3.47 0 0 1 -2.345 2.47 3.391 3.391 0 0 0 4.337-2.437l.35-1.4v-.47z" fill="#e68d79"/><path d="m54.37 33.16-3.37.84a4.418 4.418 0 0 1 -3.557 3.944l-5.888 9.085a1.057 1.057 0 0 0 .445 1.471 1.118 1.118 0 0 1 -1 2l-4-2v2l5 2.5 3.83-4.78-1.83-1.22 6.67-11.04a6.074 6.074 0 0 1 3.71-2.77z" fill="#ebf5f7"/><path d="m36 40v4.764a2 2 0 0 1 -2.894 1.789l-.306-.153-.8 1.6 4 2 1 .5v-12.5z" fill="#2864f0"/><path d="m48.757 58.243 2.657-2.657a2 2 0 0 1 1.414-.586h1.172l7.782-10.376a34.673 34.673 0 0 0 .218-3.844v-1.77a5.92 5.92 0 0 1 -1.22 3.59l-7.78 10.4-1.2-.8-6.95 7.04a3 3 0 0 1 -1.99.76h-1.01a2.9 2.9 0 0 1 -1.57-.45l-3.28-2.02v5.47h10v-.515a6 6 0 0 1 1.757-4.242z" fill="#d8e0e8"/><path d="m59.18 33.94a6.208 6.208 0 0 0 -.817-.423 5.993 5.993 0 0 1 -.395 6.724l-3.738 5.487a4 4 0 0 1 -5.525 1.072l-3.269-2.18-1.436 2.38 1.83 1.22 5.97 3.98 1.2.8 7.78-10.4a5.92 5.92 0 0 0 1.22-3.59v-.01a5.971 5.971 0 0 0 -2.82-5.06z" fill="#2864f0"/><path d="m18.71 55a1.089 1.089 0 0 1 -.23-.14l-1.19-.893-.33-.247a2.355 2.355 0 0 1 -.7-.84l-1.06 1.32.369.369a1 1 0 0 1 .054 1.356l-.556.652 1.133 1.133 1.207-1.3z" fill="#e9aa70"/><path d="m20 24a6 6 0 0 1 -5.8-4.5 6 6 0 1 0 11.606 0 6 6 0 0 1 -5.806 4.5z" fill="#ebf5f7"/><path d="m17.168 23.289a6.03 6.03 0 0 1 -.831-.544 5.565 5.565 0 0 0 -.77 2.289 6.012 6.012 0 0 0 .938.836c0-.123.007-.248.014-.358a4.671 4.671 0 0 1 .649-2.223z" fill="#ae2a25"/><path d="m23.663 22.745a6.03 6.03 0 0 1 -.831.544 4.671 4.671 0 0 1 .649 2.223c.007.11.011.235.014.358a6.012 6.012 0 0 0 .938-.836 5.565 5.565 0 0 0 -.77-2.289z" fill="#ae2a25"/><path d="m28.287 44.426-1.274 2.548a2 2 0 0 1 -2.9.769l-3.259-2.172-.844 1.409-.01.02 4.93 3.08 3.07 1.92 2-5-1.61-2.42z" fill="#d8e0e8"/><path d="m20 47 .01-.02-.09-.06a1 1 0 0 0 -1.57.21l-.722 1.247 2.175 1.3a2 2 0 0 1 .386 3.129l-1.9 1.9.194.146a1.089 1.089 0 0 0 .23.14 1.99 1.99 0 0 0 2.51-.46l1.07-1.28 2.64-3.18z" fill="#c5ced6"/><path d="m36 17h13v2h-13z" fill="#e68d79"/><path d="m47 13h-14a2.006 2.006 0 0 0 -2 2 1.975 1.975 0 0 0 .279 1 2 2 0 0 1 1.721-1h14a2 2 0 0 1 2 2v-2a2 2 0 0 0 -2-2z" fill="#45cdff"/><path d="m50 15a1 1 0 0 1 1 1 3 3 0 0 0 -3-3h-1a2 2 0 0 1 2 2v1a1 1 0 0 1 1-1z" fill="#2357d1"/><path d="m52.28 5.71a7.821 7.821 0 0 0 -3.28-.71 1 1 0 0 1 0 2 6 6 0 0 1 6 6v1a1 1 0 0 1 2 0v-1a7.979 7.979 0 0 0 -4.72-7.29z" fill="#54dff2"/><path d="m36.358 10.267a1.485 1.485 0 0 1 -.58-.691 7.853 7.853 0 0 0 -.437 1.116 1.515 1.515 0 0 1 .927-.179 1.491 1.491 0 0 1 1.027.634 5.87 5.87 0 0 1 .289-.715 1.447 1.447 0 0 1 -1.226-.165z" fill="#2864f0"/><path d="m56 21a1 1 0 0 1 -1-1v1a2 2 0 0 1 -4 0v-1a1 1 0 0 1 -2 0v1a4 4 0 0 0 4 4 3.929 3.929 0 0 0 .92-.11 4 4 0 0 0 3.08-3.89v-1a1 1 0 0 1 -1 1z" fill="#2864f0"/><path d="m56 13a1 1 0 0 0 -1 1v6a1 1 0 0 0 2 0v-6a1 1 0 0 0 -1-1z" fill="#2cb5ff"/><path d="m50 21a1 1 0 0 0 1-1v-4a1 1 0 0 0 -2 0v4a1 1 0 0 0 1 1z" fill="#2864f0"/><path d="m43 7a1 1 0 0 1 0-2 7.988 7.988 0 0 0 -7.222 4.576 1.469 1.469 0 0 0 1.806.856 6 6 0 0 1 5.416-3.432z" fill="#54dff2"/><path d="m49 5h-6a1 1 0 0 0 0 2h6a1 1 0 0 0 0-2z" fill="#41f3f3"/><path d="m36.268 10.513a1.515 1.515 0 0 0 -.927.179 7.994 7.994 0 0 0 -.341 2.308h2a5.977 5.977 0 0 1 .3-1.853 1.491 1.491 0 0 0 -1.032-.634z" fill="#2357d1"/><ellipse cx="45" cy="21" fill="#2864f0" rx="1" ry="2"/><ellipse cx="38" cy="21" fill="#2864f0" rx="1" ry="2"/><path d="m42 23.857c0 1.657-.448 2.143-1 2.143s-1-.486-1-2.143.448-3.857 1-3.857 1 2.2 1 3.857z" fill="#faa68e"/><g fill="#2cb5ff"><rect height="2" rx="1" width="6" x="5" y="16"/><rect height="2" rx="1" width="6" x="5" y="20"/><rect height="2" rx="1" width="6" x="5" y="24"/><rect height="2" rx="1" width="3" x="1" y="24"/><rect height="2" rx="1" width="3" x="1" y="20"/><rect height="2" rx="1" width="3" x="1" y="16"/></g><path d="m53 19a2 2 0 1 0 2 2 2 2 0 0 0 -2-2zm0 3a1 1 0 1 1 1-1 1 1 0 0 1 -1 1z" fill="#fafcff"/><ellipse cx="51.684" cy="10.695" fill="#f6fafd" rx="1.642" ry="2.286" transform="matrix(.707 -.707 .707 .707 7.586 39.694)"/><ellipse cx="52.682" cy="14.708" fill="#f6fafd" rx=".825" ry="1.148" transform="matrix(.707 -.707 .707 .707 5.039 41.576)"/><ellipse cx="59.682" cy="4.708" fill="#f6fafd" rx=".825" ry="1.148" transform="matrix(.707 -.707 .707 .707 14.165 43.596)"/><ellipse cx="55.682" cy="36.708" fill="#f6fafd" rx=".825" ry="1.148" transform="matrix(.707 -.707 .707 .707 -9.643 50.147)"/><ellipse cx="56.427" cy="39.208" fill="#f6fafd" rx=".413" ry=".574" transform="matrix(.707 -.707 .707 .707 -11.193 51.407)"/><path d="m43.84 28h-4a1.959 1.959 0 0 0 2 2c3 0 2-2 2-2z" fill="#f2987e"/></g></svg>