<svg id="Flat" enable-background="new 0 0 78 124" height="512" viewBox="0 0 78 124" width="512" xmlns="http://www.w3.org/2000/svg"><g><path d="m17.2 51.96c-2.7.32-5.51-1.6-6.68-4.78-1.35-3.67.01-7.63 3.04-8.83.29-.12.59-.2.89-.25z" fill="#fec4b9"/><path d="m63.55 38.1c.3.05.6.13.89.25 3.03 1.2 4.39 5.16 3.04 8.83-1.17 3.18-3.98 5.1-6.68 4.78z" fill="#fec4b9"/><path d="m14.32 36.62c-.21-2.49-.32-5.05-.32-7.62 0-11 5-29 25-29s25 18 25 29c0 2.56-.11 5.11-.32 7.59z" fill="#543927"/><path d="m63.68 36.6c-.03.5-.08 1.01-.13 1.5-.52 5.3-1.48 10.18-2.75 13.86h-.01c-.54 1.59-1.14 2.96-1.79 4.04-2.29 3.81-7.49 8.79-13.82 10.94-1.97.67-4.05 1.06-6.18 1.06-2.07 0-4.09-.37-6-1-6.42-2.11-11.69-7.15-14-11-.65-1.08-1.25-2.45-1.79-4.04h-.01c-1.27-3.68-2.23-8.56-2.75-13.86-.05-.49-.1-.98-.13-1.48 0 0 3.04-11.66 8.4-15.58l.77 3.75s6.94-4 7.43-8.85c2.83 7.23 11.08 8.34 11.08 8.34l-.81-3.92c5.96 5.19 13.33 4.43 13.33 4.43l.76-3.75c5.19 3.8 8.22 14.86 8.4 15.55z" fill="#ffd7d2"/><path d="m29.01 76.82c-.64.28-1.29.59-1.96.94-1.65.84-3.38 1.87-5.15 3.14-1.8 1.29-3.64 2.82-5.45 4.65-7.25 7.28-14.04 19.14-16.45 38.45h16.51 5.43 8.15 6.62 19.49 5.43 16.37c-2.41-19.24-9.15-31.09-16.37-38.38v-.01c-1.8-1.82-3.63-3.35-5.43-4.65-1.78-1.28-3.53-2.33-5.2-3.18-.68-.36-1.36-.68-2.01-.96z" fill="#504256"/><path d="m61.63 85.62v38.38h-5.43v-43.04c1.8 1.3 3.63 2.83 5.43 4.65z" fill="#5d5560"/><path d="m21.94 80.96v43.04h-5.43v-38.39l-.06-.06c1.81-1.83 3.65-3.36 5.45-4.65z" fill="#655f68"/><path d="m39.05 104.18-8.96 19.8v.02h-8.15v-43.04l-.04-.06c1.77-1.27 3.5-2.3 5.15-3.14l.01.02 11.94 26.38z" fill="#d6eae8"/><path d="m56.2 80.96-19.49 43.04h-6.62v-.02l8.96-19.8 11.95-26.4c1.67.85 3.42 1.9 5.2 3.18z" fill="#acccc6"/><path d="m45.18 66.94.03 8.36.03.07c1.15.37 2.41.85 3.75 1.45l-9.99 7.54-6.55-4.94-3.44-2.6c1.45-.65 2.8-1.15 4.02-1.54l-.01-.03-.02-8.25z" fill="#ffd7d2"/><path d="m45.2 72.043-.02-5.103c-1.97.67-4.05 1.06-6.18 1.06-2.07 0-4.09-.37-6-1l.01 3.489s3.65 2.2 12.19 1.554z" fill="#fec4b9"/><path d="m3.57 124c2.008-1.76 3.331-4.172 3.735-6.811l1.023-6.678c0-.552.447-1 1-1s1 .448 1 1v13.489z" fill="#47394f"/><path d="m67.94 124v-13.49c0-.552.447-1 1-1s1 .448 1 1l.109.579c.878 4.668 2.79 9.079 5.597 12.911z" fill="#47394f"/><circle cx="49" cy="38" fill="#543927" r="2"/><circle cx="29" cy="38" fill="#543927" r="2"/><path d="m52.279 29.54c-.199 0-.4-.06-.576-.183-1.802-1.273-4.415-.846-4.442-.842-.536.093-1.061-.271-1.155-.815-.094-.543.269-1.06.811-1.155.141-.025 3.447-.583 5.941 1.178.451.319.559.943.239 1.394-.195.276-.504.423-.818.423z" fill="#472d1c"/><path d="m25.731 29.54c-.313 0-.623-.147-.817-.423-.319-.451-.212-1.075.239-1.394 2.492-1.76 5.801-1.203 5.94-1.178.543.096.907.614.812 1.158-.097.543-.613.901-1.156.812-.027-.005-2.639-.433-4.441.842-.176.123-.377.183-.577.183z" fill="#472d1c"/><path d="m39 42.71c-1.079 0-2.18-.158-3.273-.468-.531-.151-.84-.704-.688-1.235.151-.532.7-.838 1.235-.688 1.83.521 3.623.521 5.453 0 .531-.149 1.084.157 1.235.688s-.157 1.084-.688 1.235c-1.094.31-2.195.468-3.274.468z" fill="#ea8d81"/></g></svg>