<svg height="512" viewBox="0 0 64 64" width="512" xmlns="http://www.w3.org/2000/svg"><g id="_18-archer_athlete" data-name="18-archer athlete"><path d="m56.96 24.45a14.718 14.718 0 0 1 -1.39 6.26l-2.57-1.71-2.6 4.33a5.017 5.017 0 0 0 -3.4-1.33l-6.85-1.25 13.7-22.84.15.09v3.93a12.994 12.994 0 0 0 1.37 5.81 14.942 14.942 0 0 1 1.59 6.71z" fill="#fdfeff"/><path d="m53 29 2.57 1.71a11.338 11.338 0 0 1 -.66 1.3l-2.91 4.99a5.02 5.02 0 0 0 -1.6-3.67z" fill="#7f52ff"/><path d="m50.4 33.33a5.02 5.02 0 0 1 1.6 3.67v26h-6l-1-20 2-11a5.017 5.017 0 0 1 3.4 1.33z" fill="#2864f0"/><path d="m35.67 36.75 4.33-5.75.15-.25 6.85 1.25-2 11 1 20h-10l-7.2-4.55a8.176 8.176 0 0 1 -2.62-4.48 7.975 7.975 0 0 1 -.18-1.7 7.44 7.44 0 0 1 .1-1.25 8.16 8.16 0 0 1 1.07-2.97z" fill="#e1eaf2"/><path d="m43 16v1a3 3 0 0 1 -3 3l-.06-.01a8.1 8.1 0 0 0 .06-.99v-5h1a2.006 2.006 0 0 1 2 2z" fill="#ffdecf"/><path d="m43 8v8a2.006 2.006 0 0 0 -2-2h-1v-2c0-1.11-1.34-2-3-2l1-5a2.23 2.23 0 0 0 -.19-.92l.19-.08h1a4 4 0 0 1 4 4z" fill="#414952"/><path d="m40.15 30.75-.15.25-4.33 5.75-3.67-2.75 4-4z" fill="#2864f0"/><path d="m40 14v5a8.1 8.1 0 0 1 -.06.99 7.993 7.993 0 0 1 -11.91 5.95 7.838 7.838 0 0 1 -1.69-1.28 7.984 7.984 0 0 1 -2.34-5.66v-7c0-2.21 2.24-4 5-4 1.66 0 3 .89 3 2s1.34 2 3 2a1.993 1.993 0 0 0 2-2c1.66 0 3 .89 3 2z" fill="#ffdecf"/><path d="m38 5-1 5a1.993 1.993 0 0 1 -2 2c-1.66 0-3-.89-3-2s-1.34-2-3-2c-2.76 0-5 1.79-5 4v2h-1a2.006 2.006 0 0 0 -2 2v-6a9 9 0 0 1 9-9h1c3.31 0 6.08 1.31 6.81 3.08a2.23 2.23 0 0 1 .19.92z" fill="#333940"/><path d="m36 26v4l-4 4-4-4v-4l.03-.06a7.964 7.964 0 0 0 7.94 0z" fill="#ffdecf"/><path d="m36 63h-18l.4-8.05 7.6-.95.18-.03a8.176 8.176 0 0 0 2.62 4.48z" fill="#2cb5ff"/><path d="m35.67 36.75-8.5 11.3a8.16 8.16 0 0 0 -1.07 2.97l-.1-.02-7.45.93.45-8.93-2-11 8.22-1.49 2.78 6.49 4-3z" fill="#2cb5ff"/><path d="m32 34-4 3-2.78-6.49 2.78-.51z" fill="#2864f0"/><path d="m26.18 53.97-.18.03-7.6.95.15-3.02 7.45-.93.1.02a7.44 7.44 0 0 0 -.1 1.25 7.975 7.975 0 0 0 .18 1.7z" fill="#e1eaf2"/><path d="m24.06 19.99-.06.01a3 3 0 0 1 -3-3v-1a2.006 2.006 0 0 1 2-2h1v5a8.1 8.1 0 0 0 .06.99z" fill="#ffdecf"/><path d="m18.55 51.93-.15 3.02-.4 8.05h-6v-26a5 5 0 0 1 5-5l2 11z" fill="#2864f0"/><path d="m54.5 30-.994 1.988a1 1 0 0 1 -1.45.385l-.772-.515-.884 1.472a5.02 5.02 0 0 1 1.6 3.67l2.91-4.99a11.338 11.338 0 0 0 .66-1.3z" fill="#7814e4"/><path d="m35 12c-1.66 0-3-.89-3-2s-1.34-2-3-2c-2.76 0-5 1.79-5 4v2c0-2.21 2.24-4 5-4 1.66 0 3 .89 3 2s1.34 2 3 2a1.993 1.993 0 0 0 2-2l.4-1.974c-.131-.011-.26-.026-.4-.026a1.993 1.993 0 0 1 -2 2z" fill="#ffbeaa"/><path d="m24 14v5a7.984 7.984 0 0 0 2.34 5.66 7.838 7.838 0 0 0 1.69 1.28 7.954 7.954 0 0 0 3.97 1.06 8.035 8.035 0 0 0 1-.067 7.973 7.973 0 0 1 -2.97-.993 7.838 7.838 0 0 1 -1.69-1.28 7.984 7.984 0 0 1 -2.34-5.66v-7a3.286 3.286 0 0 1 .3-1.357 3.883 3.883 0 0 0 -2.3 3.357z" fill="#ffcdbe"/><path d="m42 17.5v-.833a1.862 1.862 0 0 0 -2-1.667v4c0 .124-.017.247-.023.373a2.088 2.088 0 0 0 2.023-1.873z" fill="#ffbeaa"/><path d="m24 15a1.862 1.862 0 0 0 -2 1.667v.833a2.088 2.088 0 0 0 2.023 1.873c-.007-.126-.023-.249-.023-.373z" fill="#ffbeaa"/><path d="m42 13a1 1 0 0 1 -1-1v-1a2 2 0 0 0 -2-2l.973-4.867a3.952 3.952 0 0 0 -.973-.133h-1l-.19.08a2.4 2.4 0 0 1 .19.92l-1 5c1.66 0 3 .89 3 2v2h1a2.006 2.006 0 0 1 2 2v-3z" fill="#2a2e33"/><path d="m30 3h1a8.663 8.663 0 0 1 6.119 2.085l.421-1.476c-.992-1.524-3.534-2.609-6.54-2.609h-1a9 9 0 0 0 -9 9v2a9 9 0 0 1 9-9z" fill="#414952"/><path d="m37.54 3.609-1.173 4.106a14.355 14.355 0 0 1 -.967 2.485 1.277 1.277 0 0 1 -1.534.656c-.866-.283-.866-.856-.866-.856 0-3-4-3-4-3-4.55 0-5.72 2.535-5.982 4.31a1.934 1.934 0 0 1 -1.9 1.69h-.118v3a2.006 2.006 0 0 1 2-2h1v-2c0-2.21 2.24-4 5-4 1.66 0 3 .89 3 2s1.34 2 3 2a1.993 1.993 0 0 0 2-2l1-5a2.4 2.4 0 0 0 -.19-.92 2.9 2.9 0 0 0 -.27-.471z" fill="#191b1f"/><path d="m37 10a2 2 0 0 1 -.064.481 1.828 1.828 0 0 1 1.064 1.519v7a8.1 8.1 0 0 1 -.06.99 8.008 8.008 0 0 1 -6.94 6.943 8.035 8.035 0 0 0 1 .067 8.018 8.018 0 0 0 7.94-7.01 8.1 8.1 0 0 0 .06-.99v-7c0-1.11-1.34-2-3-2z" fill="#fce9e2"/><path d="m32.165 28.867a11.1 11.1 0 0 0 3.835-.529v-2.338l-.03-.06a7.964 7.964 0 0 1 -7.94 0l-.03.06v4l2 2v-1.144a2 2 0 0 1 2.165-1.989z" fill="#ffbeaa"/><path d="m51.772 60a4 4 0 0 1 -3.993-3.765l-.779-13.235 1.929-10.612a4.976 4.976 0 0 0 -1.929-.388l-2 11 1 20h6v-3z" fill="#2357d1"/><path d="m12.228 60a4 4 0 0 0 3.993-3.765l.779-13.235-1.929-10.612a4.976 4.976 0 0 1 1.929-.388l2 11-1 20h-6v-3z" fill="#2357d1"/><path d="m28.8 58.45a8.159 8.159 0 0 1 -2.3-3.394 8.3 8.3 0 0 1 -.32-1.086l-.18.03-2.045.256-5.555.694-.05 1.011 3.476-.386a1 1 0 0 1 .9 1.615 5.127 5.127 0 0 1 -3.917 1.81h-.609l-.2 4h18z" fill="#2b8ffc"/><path d="m24.267 51.216a13.2 13.2 0 0 0 -.267 2.593c0 .153-.032.3-.045.447l2.045-.256.18-.03a7.975 7.975 0 0 1 -.18-1.7 7.44 7.44 0 0 1 .1-1.25l-.1-.02z" fill="#b9c3cc"/><path d="m38.829 32.555 7.697 2.052.474-2.607-6.85-1.25-.15.25z" fill="#ebf5f7"/><path d="m25.22 30.51-8.22 1.49.474 2.607 8.527-2.274z" fill="#45cdff"/><path d="m40 31 .15-.25-4.15-.75-1.421 1.421 4.25 1.134z" fill="#2cb5ff"/><path d="m29.421 31.421-1.421-1.421-2.78.51.781 1.823z" fill="#2cb5ff"/><path d="m34.84 36.128-2.84-2.128-4 3-2.78-6.49-1.507.273 3.287 8.217 4.044-3.235a1.581 1.581 0 0 1 1.935-.031h.006a1.581 1.581 0 0 1 .261 2.282l-6.148 7.3a13.173 13.173 0 0 0 -2.831 5.9l1.733-.216.1.02a8.16 8.16 0 0 1 1.07-2.97l8.018-10.659.482-.641z" fill="#2b8ffc"/><path d="m47 32-1.238-.226-3.762 12.226s-1.838 10.966-15.115 11.926a8.131 8.131 0 0 0 1.915 2.524l7.2 4.55h10l-1-20z" fill="#cdd6de"/><path d="m47 32a4.977 4.977 0 0 1 4.92 4.145l2.559-4.387a10.921 10.921 0 0 0 .632-1.247 14.328 14.328 0 0 0 1.349-6.061 14.51 14.51 0 0 0 -1.537-6.485 13.563 13.563 0 0 1 -1.423-6.035v-1.486l-12.3 20.5z" fill="none"/><path d="m53.5 10.444v1.486a13.563 13.563 0 0 0 1.423 6.035 14.51 14.51 0 0 1 1.537 6.485 14.328 14.328 0 0 1 -1.349 6.061 10.921 10.921 0 0 1 -.632 1.247l-2.559 4.387a5.016 5.016 0 0 1 .08.855v.5a.5.5 0 0 0 .432-.248l2.908-4.986a11.737 11.737 0 0 0 .682-1.344 15.31 15.31 0 0 0 1.438-6.472 15.517 15.517 0 0 0 -1.643-6.933 12.552 12.552 0 0 1 -1.317-5.587v-3.153z" fill="#c5ced6"/><path d="m41.2 30.942 12.3-20.5 1-1.667 4.357-7.262a1 1 0 0 0 -1.714-1.028l-17.85 29.751a1 1 0 0 0 -.12.337l.977.177z" fill="#555a66"/><ellipse cx="36" cy="15" fill="#333940" rx="1" ry="2"/><ellipse cx="27.999" cy="15" fill="#333940" rx="1" ry="2"/><path d="m33 18.857c0 1.657-.448 2.143-1 2.143s-1-.486-1-2.143.447-3.857 1-3.857 1 2.2 1 3.857z" fill="#ffbeaa"/><path d="m29 22h6s0 2-3 2-3-2-3-2z" fill="#eba8a9"/><g fill="#f6fafd"><ellipse cx="40.684" cy="37.695" rx="1.642" ry="2.286" transform="matrix(.707 -.707 .707 .707 -14.737 39.828)"/><ellipse cx="39.682" cy="41.708" rx=".825" ry="1.148" transform="matrix(.707 -.707 .707 .707 -17.87 40.295)"/></g></g></svg>