<svg id="Flat" enable-background="new 0 0 78 124" height="512" viewBox="0 0 78 124" width="512" xmlns="http://www.w3.org/2000/svg"><g><path d="m50.8 77.68v-.01c-1.28-.65-2.51-1.18-3.66-1.63l-8.113 7.967-8.167-7.967c-1.15.45-2.38.99-3.66 1.64-10.11 5.13-23.58 17.34-27.2 46.32h14s.7-6.92 3.52-11.56l.48 11.56h18.32 23.68l.48-11.56c2.82 4.64 3.52 11.56 3.52 11.56h14c-3.62-28.99-17.1-41.2-27.2-46.32z" fill="#ffc05a"/><path d="m63.92 26.48.01-.03c-2.632-1.482-22.081-5.513-25.36-5.327 0 0-20.825 1.835-24.46 5.027v.01c-.08.98-.11 1.94-.11 2.84 0 3.07.16 6.15.45 9.09h49.1c.29-2.94.45-6.02.45-9.09 0-.81-.03-1.65-.08-2.52z" fill="#472d1c"/><path d="m17.2 51.96c-2.7.32-5.51-1.6-6.68-4.78-1.35-3.67.01-7.63 3.04-8.83.29-.12.59-.2.89-.25z" fill="#dfa3a5"/><path d="m63.55 38.1c.3.05.6.13.89.25 3.03 1.2 4.39 5.16 3.04 8.83-1.17 3.18-3.98 5.1-6.68 4.78z" fill="#dfa3a5"/><path d="m45.18 66.94.03 8.36.03.07c.6.2 1.24.42 1.9.67l-8.14 15.19-8.14-15.19c.76-.29 1.49-.54 2.17-.76l-.01-.03-.02-8.25z" fill="#f7b6ad"/><path d="m63.55 38.09v.01c-.52 5.3-1.48 10.18-2.75 13.86h-.01c-.54 1.59-1.14 2.96-1.79 4.04-2.29 3.81-7.49 8.79-13.82 10.94-1.97.67-4.05 1.06-6.18 1.06-2.07 0-4.09-.37-6-1-6.42-2.11-11.69-7.15-14-11-.65-1.08-1.25-2.45-1.79-4.04h-.01c-1.27-3.68-2.23-8.56-2.75-13.86 0 0 0 0 0-.01.19-.43 4.93-11.13 7.32-13.81 8.187-3.067 17.257-5.209 33.76-.02v.02c2.39 2.68 7.8 13.38 8.02 13.81z" fill="#f7b6ad"/><circle cx="29" cy="38" fill="#543927" r="2"/><circle cx="49" cy="38" fill="#543927" r="2"/><path d="m47 0s17.68 7.17 18.57 27c-13.4-9.787-22.549-17.149-29.06-22.62z" fill="#b72e4f"/><path d="m50.8 77.67v.01l-9.12 17.01.02.01v29.24h-5.38v-29.24l-9.12-17.02c1.28-.65 2.51-1.19 3.66-1.64l8.14 15.19 8.14-15.19c1.15.45 2.38.98 3.66 1.63z" fill="#b72e4f"/><path d="m46.97 98.21c1.25 0 2.26 1.02 2.26 2.27s-1.01 2.26-2.26 2.26-2.27-1.01-2.27-2.26 1.02-2.27 2.27-2.27z" fill="#b72e4f"/><path d="m65.57 27c-.55-.19-1.09-.37-1.64-.55-2.84-.92-5.65-1.64-8.4-2.19-13.49-2.75-25.66-1.56-33.76.02-3.29.64-5.9 1.35-7.66 1.87-1.64.5-2.54.85-2.54.85s2-18.94 14.15-27c0 0 4.21 1.02 10.78 4.38h.01c7.53 3.84 18.15 10.73 29.06 22.62z" fill="#ffc05a"/><path d="m46.97 106.19c1.25 0 2.26 1.01 2.26 2.26s-1.01 2.27-2.26 2.27-2.27-1.02-2.27-2.27 1.02-2.26 2.27-2.26z" fill="#b72e4f"/><path d="m46.97 114.16c1.25 0 2.26 1.01 2.26 2.26 0 1.26-1.01 2.27-2.26 2.27s-2.27-1.01-2.27-2.27c0-1.25 1.02-2.26 2.27-2.26z" fill="#b72e4f"/><path d="m33.3 100.48c0-1.25-1.02-2.27-2.27-2.27s-2.26 1.02-2.26 2.27 1.01 2.26 2.26 2.26 2.27-1.01 2.27-2.26zm0 7.97c0-1.25-1.02-2.26-2.27-2.26s-2.26 1.01-2.26 2.26 1.01 2.27 2.26 2.27 2.27-1.02 2.27-2.27zm0 7.97c0-1.25-1.02-2.26-2.27-2.26s-2.26 1.01-2.26 2.26c0 1.26 1.01 2.27 2.26 2.27s2.27-1.01 2.27-2.27z" fill="#ffc05a"/><path d="m31.03 98.21c1.25 0 2.27 1.02 2.27 2.27s-1.02 2.26-2.27 2.26-2.26-1.01-2.26-2.26 1.01-2.27 2.26-2.27z" fill="#b72e4f"/><path d="m31.03 106.19c1.25 0 2.27 1.01 2.27 2.26s-1.02 2.27-2.27 2.27-2.26-1.02-2.26-2.27 1.01-2.26 2.26-2.26z" fill="#b72e4f"/><path d="m31.03 114.16c1.25 0 2.27 1.01 2.27 2.26 0 1.26-1.02 2.27-2.27 2.27s-2.26-1.01-2.26-2.27c0-1.25 1.01-2.26 2.26-2.26z" fill="#b72e4f"/><path d="m52.279 29.54c-.199 0-.4-.06-.576-.183-1.802-1.273-4.416-.846-4.442-.842-.532.093-1.061-.271-1.155-.815-.094-.543.269-1.06.811-1.155.141-.025 3.448-.583 5.941 1.178.451.319.559.943.239 1.394-.195.276-.504.423-.818.423z" fill="#3f2313"/><path d="m25.731 29.54c-.313 0-.623-.147-.817-.423-.319-.451-.212-1.075.239-1.394 2.493-1.76 5.801-1.203 5.94-1.178.543.096.907.614.812 1.158-.096.543-.613.901-1.156.812-.026-.005-2.639-.433-4.441.842-.176.123-.377.183-.577.183z" fill="#3f2313"/><path d="m39 42.71c-1.079 0-2.18-.158-3.273-.468-.531-.151-.84-.704-.688-1.235.151-.532.701-.838 1.235-.688 1.83.521 3.623.521 5.453 0 .531-.149 1.084.157 1.235.688s-.157 1.084-.688 1.235c-1.094.31-2.195.468-3.274.468z" fill="#ea8d81"/><g fill="#543927"><path d="m30.22 51.45c-.261 0-.521-.102-.718-.304-.385-.396-.375-1.029.021-1.414l2.721-2.64c.396-.384 1.028-.375 1.414.021.385.396.375 1.029-.021 1.414l-2.721 2.64c-.194.189-.445.283-.696.283z"/><path d="m35.751 54c-.085 0-.17-.011-.256-.034-.534-.141-.853-.688-.712-1.222l1.02-3.87c.142-.535.689-.852 1.222-.712.534.141.853.688.712 1.222l-1.02 3.87c-.118.45-.524.746-.966.746z"/><path d="m47.78 51.45c-.251 0-.502-.094-.696-.282l-2.721-2.64c-.396-.385-.406-1.018-.021-1.414.386-.396 1.018-.406 1.414-.021l2.721 2.64c.396.385.406 1.018.021 1.414-.196.202-.457.303-.718.303z"/><path d="m42.249 54c-.442 0-.848-.297-.966-.746l-1.02-3.87c-.141-.534.178-1.081.712-1.222.534-.138 1.081.177 1.222.712l1.02 3.87c.141.534-.178 1.081-.712 1.222-.086.023-.171.034-.256.034z"/></g><path d="m45.2 72.043-.02-5.103c-1.97.67-4.05 1.06-6.18 1.06-2.07 0-4.09-.37-6-1l.01 3.489s3.65 2.2 12.19 1.554z" fill="#dfa3a5"/><path d="m62.298 104.17-.299-4.128c.023-.552-.405-1.018-.957-1.041-.569-.022-1.018.406-1.041.957l.479 12.482c2.83 4.64 3.52 11.56 3.52 11.56h7.782c-.02-.194-6.91-4.915-9.484-19.83z" fill="#f9b132"/><path d="m14.809 104.17.299-4.128c-.023-.552.405-1.018.957-1.041.569-.022 1.018.406 1.041.957l.414 12.482c-2.83 4.64-3.52 11.56-3.52 11.56h-7.782c.019-.194 6.016-4.915 8.591-19.83z" fill="#f9b132"/></g></svg>