<svg id="Flat" enable-background="new 0 0 78 124" height="512" viewBox="0 0 78 124" width="512" xmlns="http://www.w3.org/2000/svg"><g><path d="m51.22 77.89c10.05 5.25 23.21 17.52 26.78 46.11h-14s-.7-6.92-3.52-11.56l-.48 11.56h-42l-.48-11.56c-2.82 4.64-3.52 11.56-3.52 11.56h-14c3.02-24.14 12.87-36.64 21.91-43.11h.01c1.66-1.2 3.3-2.18 4.86-2.99z" fill="#ef9d26"/><path d="m45.18 66.94.03 8.36.03.07-6.24 8.26-5.97-8.35-.01-.03-.02-8.25z" fill="#f7b6ad"/><circle cx="39" cy="115" fill="#894687" r="3.19"/><circle cx="39" cy="103.19" fill="#894687" r="3.19"/><circle cx="39" cy="91.38" fill="#894687" r="3.19"/><path d="m63.55 38.1h.01c.3.05.59.13.88.25 3.03 1.2 4.39 5.16 3.04 8.83-1.17 3.18-3.98 5.1-6.68 4.78z" fill="#dfa3a5"/><path d="m17.2 51.96c-2.7.32-5.51-1.6-6.68-4.78-1.35-3.67.01-7.63 3.04-8.83.29-.12.59-.2.89-.25h.01z" fill="#dfa3a5"/><g fill="#e58e1a"><path d="m24.763 79.023c-2.961 20.587-.888 21.885.56 39.887.042.523.479.92.996.92.027 0 .054-.001.081-.003.551-.044.961-.526.917-1.077-1.444-17.948-1.444-17.948 1.513-38.507l1.245-3.886s-1.873.773-2.897 1.336c0 0-1.563.826-2.11 1.151z"/><path d="m52.373 78.518-.349-.196c-.885-.503-2.919-1.459-3.239-1.601s-1.7-.698-1.7-.698c2.938 20.46 4.964 24.79 3.519 42.728-.044.55.366 1.033.916 1.077.028.002.055.003.082.003.516 0 .954-.396.996-.92 1.448-17.992 2.718-19.905-.225-40.393z"/><path d="m23.478 79.822c-.962 4.329-2.215 13.726-2.221 13.807-.042.524-.479.921-.996.921-.026 0-.053-.001-.08-.003-.551-.044-.962-.525-.918-1.076.027-.339.27-7.106 1.273-11.555l1.337-1z"/><path d="m58.66 82.879c.887 4.554-.028 10.277-.003 10.591.044.55-.366 1.032-.917 1.076-.027.002-.054.003-.081.003-.516 0-.954-.397-.996-.92-.007-.082-1.078-9.451-2.06-13.758l1.341.912 1.515 1.126z"/></g><path d="m33.03 75.28 5.97 8.35s-6.59 4.58-11.16-3.53c-.37-.65-.72-1.38-1.06-2.2 2.29-1.21 4.43-2.04 6.25-2.62z" fill="#894687"/><path d="m45.24 75.37c1.76.57 3.8 1.38 5.98 2.52-4.53 11.09-12.22 5.74-12.22 5.74z" fill="#894687"/><path d="m38.553 22.489c-3.553 1.089-21.808 8.096-24.503 9.391v.01c.06 2.1.2 4.19.41 6.21.17 1.81.4 3.56.68 5.24.52 3.25 1.22 6.19 2.06 8.62.55 1.59 1.15 2.96 1.8 4.04 2.31 3.85 7.58 8.89 14 11 1.91.63 3.93 1 6 1 2.13 0 4.21-.39 6.18-1.06 6.33-2.15 11.53-7.13 13.82-10.94.65-1.08 1.25-2.45 1.8-4.04.84-2.44 1.54-5.39 2.07-8.64.28-1.67.51-3.42.68-5.22h.01c.24-2.45.39-4.99.43-7.55z" fill="#5d5560"/><path d="m59.43 43.34.02.1c-2.45.55-5.69 2.3-7.98 7.35-1.79 3.94-3.78 5.85-5.45 6.75-1.7.9-1.84.09-3.5-1.46-.78-.72-1.9-1.36-3.45-1.36h-.07c-1.54 0-2.67.64-3.44 1.36-1.66 1.55-1.8 2.36-3.5 1.46-1.68-.9-3.66-2.81-5.45-6.75-2.29-5.04-5.52-6.79-7.97-7.34l.02-.11s.3-5.42 4.01-13.05c6.33-3.152 10.899-5.74 15.107-6.712 0 0 .501.05.511.05 1.088-.464 10.436 2.394 16.833 5.992v.01c3.709 7.63 4.309 13.71 4.309 13.71z" fill="#f7b6ad"/><circle cx="49" cy="43" fill="#543927" r="2"/><circle cx="29" cy="43" fill="#543927" r="2"/><path d="m52.279 37.4c-.199 0-.401-.06-.576-.183-1.801-1.273-4.417-.847-4.442-.841-.547.097-1.06-.272-1.155-.815-.094-.543.268-1.06.811-1.155.14-.024 3.449-.582 5.94 1.178.451.319.558.943.24 1.394-.195.275-.504.422-.818.422z" fill="#524956"/><path d="m25.731 37.4c-.314 0-.623-.147-.818-.423-.318-.451-.211-1.075.24-1.394 2.492-1.76 5.8-1.202 5.94-1.178.544.096.907.614.812 1.158-.096.543-.611.901-1.157.812-.061-.011-2.651-.423-4.441.841-.175.124-.377.184-.576.184z" fill="#524956"/><path d="m39 47.71c-1.103 0-2.204-.154-3.273-.458-.531-.151-.839-.704-.688-1.235.15-.531.703-.84 1.235-.688 1.783.507 3.67.507 5.453 0 .53-.151 1.084.157 1.235.688s-.157 1.084-.688 1.235c-1.07.304-2.171.458-3.274.458z" fill="#ea8d81"/><path d="m66.33 27c-.25-1.31-.61-2.9-1.12-4.65-1.68-5.8-4.96-13.29-11.15-17.52-2.81-2.28-6.66-3.49-9.77-4.13-2.99-.61-5.29-.7-5.29-.7-1.13 0-2.22.05-3.26.14-15.23 1.38-20.8 12.46-22.81 21.2-.01.01-.01.01-.01.01-.69 3.02-.96 5.76-1.06 7.72-.1 1.9-.03 3.08-.03 3.08.75-.08 1.5-.17 2.22-.27 3.11-.4 5.97-.94 8.62-1.59 6.38-1.56 11.49-3.77 15.58-6.23h.01c.33.2 6.63 3.8 16.86 5.56 2.7.47 5.67.81 8.87.93h2.9s-.13-1.39-.56-3.55z" fill="#82387d"/><path d="m65.21 22.35c.51 1.75.87 3.34 1.12 4.65-10.63-2.75-19.98-9.29-19.98-9.29 2.5-2.56 4.22-5.07 5.39-7.19 0 0 4.92 8.11 13.47 11.83z" fill="#682168"/><path d="m39 0s2.3.09 5.29.7c-7.18 20.09-32.43 28.37-32.43 28.37.1-1.96.37-4.7 1.06-7.72 0 0 0 0 .01-.01.55-.28 18.14-9.42 22.81-21.19v-.01c1.04-.09 2.13-.14 3.26-.14z" fill="#682168"/><path d="m45.2 69.553-.02-2.613c-1.97.67-4.05 1.06-6.18 1.06-2.07 0-4.09-.37-6-1l.01 1s3.65 2.2 12.19 1.553z" fill="#dfa3a5"/><path d="m62.298 104.17-.299-4.128c.023-.552-.405-1.018-.957-1.041-.569-.022-1.018.406-1.041.957l.479 12.482c2.83 4.64 3.52 11.56 3.52 11.56h7.782c-.02-.194-6.91-4.915-9.484-19.83z" fill="#e58e1a"/><path d="m14.809 104.17.299-4.128c-.023-.552.405-1.018.957-1.041.569-.022 1.018.406 1.041.957l.414 12.482c-2.83 4.64-3.52 11.56-3.52 11.56h-7.782c.019-.194 6.016-4.915 8.591-19.83z" fill="#e58e1a"/></g></svg>