<svg height="512" viewBox="0 0 64 64" width="512" xmlns="http://www.w3.org/2000/svg"><g id="_11-football" data-name="11-football"><path d="m45.1 44.98 9.24-1.85.66 2.87-3 .6-6.75 1.35z" fill="#e1eaf2"/><path d="m12.25 39.03a11.911 11.911 0 0 0 -1.59.2l-.04-.23.23-1.03a7.906 7.906 0 0 1 6.15-5.97l1.45 8-.12.24a12.042 12.042 0 0 0 -5.33-1.24q-.375 0-.75.03z" fill="#9863fc"/><path d="m53.15 37.97 1.19 5.16-9.24 1.85-.1-1.98 2-11a7.906 7.906 0 0 1 6.15 5.97z" fill="#9863fc"/><path d="m24.98 51.53a4.7 4.7 0 0 0 .02-.53 11.924 11.924 0 0 0 -2.58-7.44 12.366 12.366 0 0 0 -1.71-1.76 11.771 11.771 0 0 0 -2.38-1.56l.12-.24-1.45-8 7.04-1.28c.41 3.53 3.82 6.28 7.96 6.28s7.55-2.75 7.96-6.28l7.04 1.28-2 11 .1 1.98.15 2.97.75 15.05h-28v-1l-.03-.07a12.413 12.413 0 0 0 2.11-1.24 12 12 0 0 0 3.61-4.23 11.859 11.859 0 0 0 1.29-4.93z" fill="#45cdff"/><g fill="#cdd6de"><path d="m2.6 45 .4 2-1.68 1.26a11.54 11.54 0 0 1 1.28-3.26z"/><path d="m11 39.97v.03l-1.84-.37a10.32 10.32 0 0 1 1.5-.4 11.911 11.911 0 0 1 1.59-.2z"/><path d="m23.02 53 1.96-1.47a11.859 11.859 0 0 1 -1.29 4.93l-.69-3.46v-.01z"/><path d="m5 56 .94 4.71a11.984 11.984 0 0 1 -4.12-5.35z"/><path d="m15 59 5.08 1.69a12.413 12.413 0 0 1 -2.11 1.24 11.947 11.947 0 0 1 -4.97 1.07 12.727 12.727 0 0 1 -1.86-.14z"/></g><path d="m23 53 .69 3.46a12 12 0 0 1 -3.61 4.23l-5.08-1.69-1-4 4-4z" fill="#fdfeff"/><path d="m21 42.97-4 4-5-2-1-4.97v-.03l1.25-.94q.375-.03.75-.03a12.042 12.042 0 0 1 5.33 1.24 11.771 11.771 0 0 1 2.38 1.56z" fill="#fdfeff"/><path d="m8 48 1 5-4 3-3.18-.64a11.959 11.959 0 0 1 -.5-7.1l1.68-1.26z" fill="#ebf5f7"/><path d="m17 46.97 4-4-.29-1.17a12.366 12.366 0 0 1 1.71 1.76l-1.4-.56-4 4 1 4 4.98 1.99v.01l-5-2-4 4-5-2-1-5 4-3-1-5 1 4.97z" fill="#ebf5f7"/><path d="m25 51a4.7 4.7 0 0 1 -.02.53l-1.96 1.47-.02-.01-4.98-1.99-1-4 4-4 1.4.56a11.924 11.924 0 0 1 2.58 7.44z" fill="#414952"/><path d="m14 55 1 4-3.86 3.86a11.947 11.947 0 0 1 -5.2-2.15l-.94-4.71 4-3z" fill="#414952"/><path d="m11 40 1 5-4 3-5-1-.4-2a12.038 12.038 0 0 1 6.56-5.37z" fill="#414952"/><path d="m52 46.6v16.4h-6l-.75-15.05z" fill="#fecfd5"/><path d="m36 30 .99.18c-.11 2.13-2.31 3.82-4.99 3.82s-4.88-1.69-4.99-3.82l.99-.18v-4l.03-.06a7.964 7.964 0 0 0 7.94 0l.03.06z" fill="#f9bbc6"/><path d="m24 19a8.1 8.1 0 0 0 .06.99l-.06.01a3 3 0 0 1 -3-3v-1a2.006 2.006 0 0 1 2-2h1z" fill="#fecfd5"/><path d="m43 16v1a3 3 0 0 1 -3 3l-.06-.01a8.1 8.1 0 0 0 .06-.99v-5h1a2.006 2.006 0 0 1 2 2z" fill="#fecfd5"/><path d="m40 14v5a8.1 8.1 0 0 1 -.06.99 7.993 7.993 0 0 1 -11.91 5.95 7.838 7.838 0 0 1 -1.69-1.28 7.984 7.984 0 0 1 -2.34-5.66v-7l2-3h12l2 3z" fill="#fecfd5"/><path d="m24 12v2h-1l-.99-7.88c-.18-2.76 1.55-5.12 3.74-5.12h12.49c2.2 0 3.93 2.36 3.75 5.12l-.99 7.88h-1v-2l-2-3h-12z" fill="#ad726a"/><path d="m30 31v-1.434a1 1 0 0 1 1.3-.946 7.886 7.886 0 0 0 4.7-.22v-2.4l-.03-.06a7.964 7.964 0 0 1 -7.94 0l-.03.06v4l-.99.18c.11 2.13 2.31 3.82 4.99 3.82a6.231 6.231 0 0 0 .994-.08 3.146 3.146 0 0 1 -2.994-2.92z" fill="#f3afba"/><path d="m18.45 40-1.45-8a7.884 7.884 0 0 0 -2.789 1.166l1.1 6.075a12.092 12.092 0 0 1 3.018 1z" fill="#6f3ff3"/><path d="m32 37c-4.14 0-7.55-2.75-7.96-6.28l2.97-.54c.11 2.13 2.31 3.82 4.99 3.82s4.88-1.69 4.99-3.82l2.97.54c-.41 3.53-3.82 6.28-7.96 6.28z" fill="#e1eaf2"/><path d="m42 17.5v-.833a1.862 1.862 0 0 0 -2-1.667v4c0 .124-.017.247-.023.373a2.088 2.088 0 0 0 2.023-1.873z" fill="#eba8a9"/><path d="m24 15a1.862 1.862 0 0 0 -2 1.667v.833a2.088 2.088 0 0 0 2.023 1.873c-.007-.126-.023-.249-.023-.373z" fill="#eba8a9"/><path d="m24.929 3.1a3.177 3.177 0 0 1 .82-.1h12.491a3.814 3.814 0 0 1 3.66 3.147l.094-.817a3.912 3.912 0 0 0 -3.754-4.33h-12.491a3.177 3.177 0 0 0 -.82.1 3.975 3.975 0 0 0 -2.92 4.23l.091.8a3.884 3.884 0 0 1 2.829-3.03z" fill="#d68f83"/><path d="m39 7h-14.001l-2.578 1.934.578 5.066h1v-2l2-3h12.001l2 3v2h1l.578-5.066z" fill="#8c5956"/><path d="m27.059 22.97a7.79 7.79 0 0 1 -.78-1.85 8.36 8.36 0 0 1 -.22-1.13 8.1 8.1 0 0 1 -.059-.99v-5.031a3.075 3.075 0 0 1 3.12-2.969h10.213l-1.333-2h-12l-1.333 2-.667 1v7a8.1 8.1 0 0 0 .06.99 8.36 8.36 0 0 0 .22 1.13 8.3 8.3 0 0 0 2.06 3.54 7.91 7.91 0 0 0 6.66 2.271 8.028 8.028 0 0 1 -4.66-2.271 7.838 7.838 0 0 1 -1.281-1.69z" fill="#f3afba"/><path d="m39.333 11h-2.068a6.593 6.593 0 0 1 .735 3v5a8.1 8.1 0 0 1 -.06.99 8.054 8.054 0 0 1 -2.78 5.12 7.935 7.935 0 0 1 -4.16 1.821 8.063 8.063 0 0 0 1 .069 7.941 7.941 0 0 0 5.16-1.89 8.054 8.054 0 0 0 2.78-5.12 8.1 8.1 0 0 0 .06-.99v-7z" fill="#f7d9db"/><path d="m49.886 50.246 2.114-.846v-2.8l-6.75 1.35.75 15.05h2v-9.969a3 3 0 0 1 1.886-2.785z" fill="#f3afba"/><path d="m50.434 45.459a2 2 0 0 1 -2.24-1.1l-3.094.621.15 2.97 6.75-1.35 3-.6-.34-1.48z" fill="#c5ced6"/><path d="m48 43.507v-.848a6 6 0 0 1 .143-1.3l1.8-8.1a7.892 7.892 0 0 0 -2.943-1.259l-2 11 .1 1.98 3.094-.619a1.99 1.99 0 0 1 -.194-.854z" fill="#6f3ff3"/><path d="m30 52a11.991 11.991 0 0 0 -11.561-11.978l-.109.218a11.771 11.771 0 0 1 2.38 1.56 12.366 12.366 0 0 1 1.71 1.76 11.924 11.924 0 0 1 2.58 7.44 4.7 4.7 0 0 1 -.02.53 11.859 11.859 0 0 1 -1.29 4.93 12 12 0 0 1 -3.61 4.23 12.413 12.413 0 0 1 -2.11 1.24l.03.07v1h4.789a12 12 0 0 0 7.211-11z" fill="#2cb5ff"/><path d="m24.04 30.72-7.04 1.28.463 2.552 7.42-1.349a6.3 6.3 0 0 1 -.843-2.483z" fill="#41f3f3"/><path d="m47 32-7.04-1.28a6.3 6.3 0 0 1 -.843 2.483l7.419 1.349z" fill="#41f3f3"/><path d="m42.059 63h3.941l-.75-15.05-.15-2.97-.068-1.339a17.908 17.908 0 0 0 -2.29 7.753z" fill="#2cb5ff"/><path d="m1.391 47.992c-.022.09-.051.177-.071.268l.117-.088c-.016-.06-.03-.12-.046-.18z" fill="#cdd6de"/><path d="m23 52.99v.01l.69 3.46a11.859 11.859 0 0 0 1.29-4.93l-1.96 1.47z" fill="#a4adb5"/><path d="m1.82 55.36a11.984 11.984 0 0 0 4.12 5.35l-.94-4.71z" fill="#a4adb5"/><path d="m11.14 62.86a12.727 12.727 0 0 0 1.86.14 11.947 11.947 0 0 0 4.97-1.07 12.413 12.413 0 0 0 2.11-1.24l-5.08-1.69z" fill="#a4adb5"/><path d="m22.213 52.685a11.976 11.976 0 0 1 -7.738 4.215l.525 2.1 5.08 1.69a12 12 0 0 0 3.61-4.23l-.69-3.46z" fill="#c5ced6"/><path d="m6.351 54.987a12.009 12.009 0 0 1 -4.914-6.815l-.117.088a11.959 11.959 0 0 0 .5 7.1l3.18.64z" fill="#c5ced6"/><path d="m22.219 52.678.781.312.02.01 1.96-1.47a4.7 4.7 0 0 0 .02-.53 12.077 12.077 0 0 0 -.385-3.032 11.961 11.961 0 0 1 -2.396 4.71z" fill="#333940"/><path d="m14.475 56.9a11.794 11.794 0 0 1 -8.124-1.913l-1.351 1.013.94 4.71a11.947 11.947 0 0 0 5.2 2.15l3.86-3.86z" fill="#333940"/><rect fill="#fed9d8" height="7" rx="1" width="2" x="50" y="55"/><rect fill="#fed9d8" height="3" rx="1" width="2" x="50" y="51"/><ellipse cx="36" cy="15" fill="#ad726a" rx="1" ry="2"/><ellipse cx="27.999" cy="15" fill="#ad726a" rx="1" ry="2"/><path d="m33 18.857c0 1.657-.448 2.143-1 2.143s-1-.486-1-2.143.447-3.857 1-3.857 1 2.2 1 3.857z" fill="#f3afba"/><path d="m32 35c3.171 0 5.757-2.046 5.978-4.64l-.988-.18c-.11 2.13-2.31 3.82-4.99 3.82s-4.88-1.69-4.99-3.82l-.987.179a5.82 5.82 0 0 0 5.977 4.641z" fill="#c5ced6"/><ellipse cx="39.5" cy="40" fill="#ebf5f7" rx="3.5" ry="2"/><ellipse cx="48.682" cy="35.708" fill="#f6fafd" rx=".825" ry="1.148" transform="matrix(.707 -.707 .707 .707 -10.988 44.902)"/><ellipse cx="50.457" cy="37.577" fill="#f6fafd" rx=".413" ry=".574" transform="matrix(.707 -.707 .707 .707 -11.789 46.706)"/><path d="m29 22h6s0 2-3 2-3-2-3-2z" fill="#f38d9e"/></g></svg>