<svg id="Flat" enable-background="new 0 0 80 123.98" height="512" viewBox="0 0 80 123.98" width="512" xmlns="http://www.w3.org/2000/svg"><g><path d="m19.402 106.103-.908 6.247c-2.85 4.64-3.56 11.63-3.56 11.63h-14c.95-7.55 2.56-13.97 4.61-19.41l.799-.266c6.448-.981 13.059 1.799 13.059 1.799z" fill="#d6eae8"/><path d="m78.17 123.98h-14s-.71-6.99-3.56-11.63h-.02l-2.441-5.413.894-1.851c3.48.07 9.766-.191 14.408-.486l.11-.04c2.049 5.44 3.659 11.86 4.609 19.42z" fill="#d6eae8"/><path d="m39.138 97.733-21.744 4.958v3.439.17l.34 6.05.66 11.63h20.9 20.62l.66-11.63.34-6.05v-2.746z" fill="#ffc05a"/><path d="m35.368 76.767s-3.971-.052-4.328-.747l-.029.016c-4.581 1.767-10.445 5.036-15.898 11.073-3.868 4.282-6.818 10.144-9.644 17.663 4.86 1.23 8.435 1.444 11.925 1.374 7.61-.14 11.78-2.38 11.78-2.38l.303-.147c-.035.072-.073.137-.107.211-.721 1.564-1.2 3.42-1.2 5.62 0 0 8.38-1.87 11-8.68h.13c2.69 6.67 10.93 8.51 10.93 8.51 0-2.146-.449-3.972-1.146-5.511l.01-.003s4.18 2.25 11.82 2.38c3.48.07 7.68-.31 12.52-1.53l.11-.04c-6.756-17.968-18.235-25.4-26.055-28.464-.584.271-2.039.738-2.039.738z" fill="#0d87a3"/><path d="m63.57 37.94.16.02c.04-.41.08-.83.11-1.25.22-2.52.33-5.13.33-7.73-2.191-2-20.383-4.786-26.447-6.362l-23.553 5.426c0 2.48.1 5.896.3 8.306.04.58.09 1.16.15 1.73 0 .02 0 .04.01.06l.11-.01z" fill="#543927"/><path d="m33.091 78.158-.02-11.25 12.279.012.097 11.36z" fill="#f7b6ad"/><path d="m40.06 95.22c.79.25 1.42.84 1.73 1.59.15.34.23.71.23 1.11 0 1.53-1.21 2.78-2.72 2.85-.04 0-.09 0-.13 0-1.57 0-2.85-1.28-2.85-2.85 0-.34.06-.66.17-.96.31-.88 1.04-1.55 1.95-1.79.23-.07.48-.1.73-.1.31 0 .61.05.89.15z" fill="#087d99"/><path d="m63.72 38.08c.3.05.6.13.89.25 3.03 1.2 4.39 5.16 3.04 8.83-1.17 3.18-3.98 5.1-6.68 4.78z" fill="#dfa3a5"/><path d="m17.37 51.94c-2.7.32-5.51-1.6-6.68-4.78-1.35-3.67.01-7.63 3.04-8.83.29-.12.59-.2.89-.25 0 .02 0 .04.01.06z" fill="#dfa3a5"/><path d="m63.73 37.96c0 .04 0 .08-.01.12-.52 5.3-1.48 10.18-2.75 13.86h-.01c-.54 1.59-1.14 2.96-1.79 4.04-2.29 3.81-7.49 8.79-13.82 10.94-1.97.67-4.05 1.06-6.18 1.06-2.07 0-4.09-.37-6-1-6.42-2.11-11.69-7.15-14-11-.65-1.08-1.25-2.45-1.79-4.04h-.01c-1.26-3.67-2.22-8.52-2.74-13.8l.11-.01s8.66-3.83 8.15-11.41l-.01-.05c8.29-2.903 19.567-3.669 31.99-.02l-.01.07c-.52 7.58 8.71 11.22 8.71 11.22z" fill="#f7b6ad"/><path d="m13.23 14.38 1.27-6.38c.48-2.39 2.22-4.33 4.54-5.08 3.82-1.24 10.5-2.82 20-2.92h.26c9.5.1 16.18 1.68 20 2.92 2.32.75 4.06 2.69 4.54 5.08l1.27 6.38z" fill="#f9b132"/><path d="m12 20.7-.02-.1 1.24-6.22h.01c1.47-.55 10.08-3.48 25.94-3.49 15.86.01 24.47 2.94 25.94 3.49h.01l1.18 5.91z" fill="#1ea6bc"/><circle cx="29.17" cy="37.98" fill="#543927" r="2"/><circle cx="49.17" cy="37.98" fill="#543927" r="2"/><path d="m47.489 76.112s-.319 14.198-7.429 19.108c-.28-.1-.58-.15-.89-.15-.25 0-.5.03-.73.1-7.05-4.93-7.38-19.08-7.38-19.08l-.02-.07c.72-.28 1.4-.51 2.04-.72l.03.1c1.74.92 3.85 1.45 6.15 1.45 2.25 0 4.37-.52 6.16-1.41l.03-.08c.64.21 1.329.482 2.039.752z" fill="#d6eae8"/><path d="m66.3 20.29c8.4 1.93 13.7 4.78 13.7 7.95 0 3.47-6.35 6.54-16.14 8.47h-.02c.22-2.52.33-5.13.33-7.73-3.18-1-6.29-1.76-9.3-2.33-13.24-2.54-24.65-1.41-31.99.02-5.49 1.07-8.71 2.31-8.71 2.31 0 2.48.1 4.96.3 7.37h-.05c-8.81-1.94-14.42-4.85-14.42-8.11 0-2.95 4.59-5.62 12-7.54 7.21-1.87 17.09-3.02 28-3.02 10.07 0 19.27.98 26.3 2.61z" fill="#ef9d26"/><path d="m52.449 34.52c-.198 0-.399-.059-.574-.182-1.813-1.274-4.418-.847-4.444-.843-.543.095-1.061-.271-1.154-.814-.095-.543.267-1.06.81-1.155.138-.025 3.438-.584 5.939 1.176.452.318.561.941.243 1.394-.196.276-.505.424-.82.424z" fill="#472d1c"/><path d="m25.891 34.52c-.314 0-.624-.147-.819-.425-.317-.452-.209-1.075.243-1.394 2.502-1.76 5.802-1.201 5.939-1.176.544.096.907.614.811 1.158-.095.543-.607.903-1.156.812-.048-.01-2.638-.426-4.443.843-.176.123-.377.182-.575.182z" fill="#472d1c"/><path d="m39.17 42.69c-1.078 0-2.179-.157-3.272-.468-.532-.15-.84-.703-.689-1.234.151-.533.706-.845 1.234-.689 1.834.52 3.621.52 5.455 0 .527-.153 1.083.157 1.234.689.15.531-.157 1.084-.689 1.234-1.094.311-2.195.468-3.273.468z" fill="#ea8d81"/><g fill="#087d99"><path d="m44.891 98.543c2.837-1.842 8.483-5.702 10.904-8.672.349-.428.284-1.058-.144-1.407-.429-.35-1.058-.283-1.407.144-2.45 3.005-8.685 7.143-11.161 8.72.278.159.592.349.937.582.275.184.57.401.871.633z"/><path d="m62.494 94.064c-.269-.48-.876-.658-1.36-.388-5.041 2.804-13.481 4.639-15.909 5.128.572.468 1.012 2.459 1.584 3.111 3.471-.752 10.681-3.924 15.298-6.492.482-.267.656-.877.387-1.359z"/><path d="m24.056 88.608c-.35-.429-.979-.494-1.407-.144s-.492.979-.144 1.407c2.464 3.02 8.231 6.97 11.046 8.809.687-.529 1.319-.928 1.817-1.208-2.295-1.475-8.813-5.8-11.312-8.864z"/><path d="m32.094 100.058c-8.207-2.652-9.786-3.52-14.928-6.381-.485-.271-1.093-.093-1.36.388-.269.482-.095 1.092.388 1.36 5.72 3.182 12.234 6.979 13.771 7.267.978-1.527 1.539-2.166 2.129-2.634z"/></g><path d="m44.02 97.91c1.6 1.07 3.76 2.94 5.06 5.85.7 1.54 1.15 3.37 1.15 5.52 0 0-8.24-1.84-10.93-8.51 1.51-.07 2.72-1.32 2.72-2.85 0-.4-.08-.77-.23-1.11l.19-.04s.87.35 2.04 1.14z" fill="#0d87a3"/><path d="m36.32 97.92c0 1.57 1.28 2.85 2.85 2.85-2.62 6.81-11 8.68-11 8.68 0-2.2.479-4.056 1.2-5.62 2.438-5.287 7.06-6.89 7.06-6.89l.06.02c-.11.3-.17.62-.17.96z" fill="#0d87a3"/><path d="m45.319 71.22-.02-4.285c-1.97.67-4.05 1.06-6.18 1.06-2.07 0-4.039-.385-5.949-1.015l.005 2.713s3.604 2.174 12.144 1.527z" fill="#dfa3a5"/><path d="m14.599 106.107c-.021.105-.033.213-.055.318-2.756 13.126-8.138 17.372-8.156 17.556h8.546s.555-5.617 2.874-10.316l-.292-7.523c-.042.001-.08.004-.122.004-.885.018-1.818.006-2.795-.039z" fill="#c3ddda"/><path d="m60.914 106.146c-.173-.003-.336-.012-.505-.018l.241 6.292c2.83 4.64 3.52 11.56 3.52 11.56h7.782c-.016-.158-4.567-3.304-7.654-12.478-.591-1.756-1.046-3.553-1.388-5.371-.687.019-1.358.028-1.996.015z" fill="#c3ddda"/></g></svg>