<svg height="512" viewBox="0 0 64 64" width="512" xmlns="http://www.w3.org/2000/svg"><g id="_09-darts_players" data-name="09-darts players"><path d="m27 14-1 3 1 3h-5l-2-3 2-3z" fill="#2cb5ff"/><path d="m40.06 33 3.94-3 4.05.74-.05.26-5 6-3-4 .02-.03z" fill="#e1eaf2"/><path d="m40.02 32.97-.02.03-3 4-5-6-.05-.26 4.05-.74z" fill="#e1eaf2"/><path d="m17.54 45.04-1.54-10.04 3-1 2.9 13.51-3.9.49z" fill="#ebf5f7"/><path d="m53.1 44.98 9.24-1.85.66 2.87-3 .6-6.75 1.35z" fill="#d8e0e8"/><path d="m61.15 37.97 1.19 5.16-9.24 1.85-.1-1.98 2-11a7.906 7.906 0 0 1 6.15 5.97z" fill="#6f3ff3"/><path d="m25 32 2 11-.2 4h-.8l-4.1.51-2.9-13.51z" fill="#9863fc"/><path d="m40 33 3 4 5-6 .05-.26 6.95 1.26-2 11 .1 1.98.15 2.97.75 15.05h-28l.8-16 .2-4-2-11 6.95-1.26.05.26 5 6z" fill="#2cb5ff"/><path d="m52.72 12.45a19.9 19.9 0 0 1 -.83 2.34l-.89 1.21a2.006 2.006 0 0 0 -2-2h-1v-2l-1.84-3.68c1.7-1.23 2.84-2.75 2.84-4.32 3 0 4 5 4 6a9.66 9.66 0 0 1 -.28 2.45z" fill="#785657"/><path d="m46.16 8.32a14.774 14.774 0 0 1 -8.16 2.68c-1.66 0-3-.89-3-2l-3 3h-1v-3a7.771 7.771 0 0 1 8-8h3c7 0 7 3 7 3 0 1.57-1.14 3.09-2.84 4.32z" fill="#8a6364"/><g fill="#faa592"><path d="m60 46.6v16.4h-6l-.75-15.05z"/><path d="m47.94 19.99a8.1 8.1 0 0 0 .06-.99v-5h1a2.006 2.006 0 0 1 2 2v1a3 3 0 0 1 -3 3z"/><path d="m48 14v5a7.984 7.984 0 0 1 -2.34 5.66 7.838 7.838 0 0 1 -1.69 1.28 8 8 0 0 1 -11.97-6.94v-7l3-3c0 1.11 1.34 2 3 2a14.774 14.774 0 0 0 8.16-2.68l1.84 3.68z"/><path d="m34 19v-7l1.715-1.715a1.667 1.667 0 0 1 -.715-1.285l-3 3v7a7.968 7.968 0 0 0 9 7.933 8 8 0 0 1 -7-7.933z"/><path d="m44 26v4l-3.94 3-.04-.03-4.02-2.97v-4l.03-.06a7.964 7.964 0 0 0 7.94 0z"/><path d="m16 35-6 2 3-10-2.1-.7-3.9-1.3-5.53 12.9a5.811 5.811 0 0 0 5.34 8.1l10.73-.96z"/><path d="m19 15.34v1.66h-2.5l.5-1 1.78-1.78a3.02 3.02 0 0 1 .22 1.12z"/><path d="m14 17h5v4.063a2 2 0 0 1 -.72 1.537l-5.28 4.4-2.1-.7-3.9-1.3v-2.85a3.1 3.1 0 0 1 1.95-2.88l.05-.02 3.37-1.26a.57.57 0 0 0 .13.01 9.57 9.57 0 0 0 1.08-.46l.42-.16z"/></g><path d="m12.37 17.99a.57.57 0 0 0 .13.01c-.052 0-.1-.01-.153-.015a1.489 1.489 0 0 1 -.751-.295l-.043-.035a1.478 1.478 0 0 1 -.262-.274l-.006-.008a1.487 1.487 0 0 1 -.191-.364l-.006-.023a1.374 1.374 0 0 1 -.088-.486 1.386 1.386 0 0 1 -.09.5 1.5 1.5 0 0 1 -1.41 1 1.386 1.386 0 0 1 -.5-.09v1.34h.013z" fill="#f29b87"/><path d="m18.78 14.22-1.78 1.78v.5a1.5 1.5 0 0 1 -2.908.5 1.445 1.445 0 0 1 -.081-.4c0-.035-.011-.068-.011-.1a1.5 1.5 0 0 1 -1.49 1.5h-.01a.57.57 0 0 1 -.13-.01l-.37.138-1.879.7-1.108.414-.013.008-.113.045a3 3 0 0 0 -1.887 2.785v2.92l3.9 1.3 2.1.7 5.28-4.4a2 2 0 0 0 .72-1.537v-5.723a3.02 3.02 0 0 0 -.22-1.12z" fill="#faa592"/><path d="m43 37-3-4-3 4-3.932-4.718-1.715.659 5.647 7.059 2.2-2.933a1 1 0 0 1 1.6 0l2.2 2.933 5.647-7.059-1.715-.659z" fill="#2b8ffc"/><path d="m46.16 5.32a14.774 14.774 0 0 1 -8.16 2.68c-1.66 0-3-.89-3-2l-4 3v3h1l3-3c0 1.11 1.34 2 3 2a14.774 14.774 0 0 0 8.16-2.68c1.7-1.23 2.84-2.75 2.84-4.32a1.994 1.994 0 0 0 -.525-1.143 7.875 7.875 0 0 1 -2.315 2.463z" fill="#785657"/><path d="m46.16 8.32c-.051.037-.108.069-.16.105a14.774 14.774 0 0 1 -8 2.575c-1.66 0-3-.89-3-2l-3 3v2l3-3c0 1.11 1.34 2 3 2a14.236 14.236 0 0 0 5.224-1.085 2 2 0 0 1 2.776 1.838v5.247a7.984 7.984 0 0 1 -2.34 5.66 7.838 7.838 0 0 1 -1.69 1.28 7.973 7.973 0 0 1 -2.97.993 8.035 8.035 0 0 0 1 .067 7.954 7.954 0 0 0 3.97-1.06 7.838 7.838 0 0 0 1.69-1.28 7.984 7.984 0 0 0 2.34-5.66v-7z" fill="#e68d79"/><path d="m32 19a7.968 7.968 0 0 0 9 7.933 8 8 0 0 1 -7-7.933v-7l-2 2z" fill="#ffb4a3"/><path d="m50 17.5v-.833a1.862 1.862 0 0 0 -2-1.667v4c0 .124-.017.247-.023.373a2.088 2.088 0 0 0 2.023-1.873z" fill="#e68d79"/><path d="m44 26-.03-.06a7.964 7.964 0 0 1 -7.94 0l-.03.06v1.425a12.243 12.243 0 0 0 4.045.855 1.986 1.986 0 0 1 1.955 1.994v1.249l2-1.523z" fill="#e68d79"/><path d="m49 13v-2l-.21-.421a2 2 0 0 1 .679-2.558 3.44 3.44 0 0 0 1.531-2.861v-.246a2.759 2.759 0 0 0 -2-.914c0 1.57-1.14 3.09-2.84 4.32l1.84 3.68v2h1a2.006 2.006 0 0 1 2 2l.792-1.077a2.993 2.993 0 0 0 -2.792-1.923z" fill="#694b4c"/><path d="m18.78 14.22-1.78 1.78v.5a1.483 1.483 0 0 1 -.092.5 1.468 1.468 0 0 1 -.192.358 1.419 1.419 0 0 1 -.119.138 1.7 1.7 0 0 1 -.142.14 1.514 1.514 0 0 1 -.2.143c-.033.019-.066.035-.1.052a1.43 1.43 0 0 1 -.279.109 1.675 1.675 0 0 1 .133.169 1.63 1.63 0 0 1 -.521 2.028l-2.488 1.863-.493 2.466a2.027 2.027 0 0 1 -2.594 1.5l.987.329.981.327 1.119.378.95-.791a.973.973 0 0 1 0-1.169 4.917 4.917 0 0 0 1.05-3.04l1.219-.813a4 4 0 0 0 1.781-3.328v-.445a1 1 0 0 1 .293-.707l.707-.707v-.66a3.02 3.02 0 0 0 -.22-1.12z" fill="#e68d79"/><path d="m10.9 26.3-3.9-1.3-.552 1.289a5.842 5.842 0 0 1 2.97 2.563 1.943 1.943 0 0 1 .115 1.548l-2.533 7.6 3-1 3-10z" fill="#e68d79"/><path d="m16 35-2.864.955.584 4.086a2 2 0 0 1 -1.676 2.26l-6.436.99a3.986 3.986 0 0 1 -4.578-3.685 5.7 5.7 0 0 0 -.03.584 5.808 5.808 0 0 0 5.81 5.81l10.73-.96z" fill="#e68d79"/><path d="m57.364 50.454 2.636-1.054v-2.8l-6.75 1.35.75 15.05h2.923l-.81-10.535a2 2 0 0 1 1.251-2.011z" fill="#e68d79"/><path d="m63 46-.66-2.87-2.937.588.527 2.896.07-.014z" fill="#ebf5f7"/><path d="m58.445 38.447.958 5.271 2.937-.588-1.19-5.16a7.906 7.906 0 0 0 -6.15-5.97l-.543 2.988 1.151.329a4 4 0 0 1 2.837 3.13z" fill="#9863fc"/><path d="m20.065 43.716-2.654.482.129.842.46 2.96 3.9-.49-.882-4.11a4 4 0 0 1 -.953.316z" fill="#d8e0e8"/><path d="m25 32-2.829.943 1.113 6.122a3.989 3.989 0 0 1 -2.266 4.335l.882 4.11 4.1-.51h.8l.2-4z" fill="#6f3ff3"/><path d="m48 31 .05-.26-4.05-.74-1.007.767 3.939 1.515z" fill="#fdfeff"/><path d="m33.068 32.282 3.959-1.523-1.027-.759-4.05.74.05.26z" fill="#fdfeff"/><path d="m33.068 32.282-1.068-1.282-.05-.26-2.059.373 1.462 1.828z" fill="#2cb5ff"/><path d="m52.96 34.6a5.983 5.983 0 0 0 1.505.34l.535-2.94-4.891-.887-1.462 1.828z" fill="#45cdff"/><path d="m46.932 32.282 1.715.659 1.462-1.828-2.059-.373-.05.26z" fill="#2cb5ff"/><path d="m31.353 32.941-1.462-1.828-4.891.887.535 2.94a5.983 5.983 0 0 0 1.5-.34z" fill="#45cdff"/><path d="m26.792 47.154-.792 15.846h4v-10.147a6.863 6.863 0 0 0 -1.4-4.271 4.233 4.233 0 0 0 -1.808-1.428z" fill="#45cdff"/><path d="m53.1 44.98-.1-1.98 1.2-6.6-2.469 7.406a8.823 8.823 0 0 0 -.731 3.507c0-.105.01.791.013.687h-.013c-4 10-14 13-21 13v2h24l-.75-15.05z" fill="#2b8ffc"/><path d="m24 14h-2l-2 3h2z" fill="#7442ff"/><path d="m26 14h-2l-2 3h2 2l1-3z" fill="#9863fc"/><path d="m20 17 2 3h2l-2-3z" fill="#4f2cad"/><path d="m26 17h-2-2l2 3h2 1z" fill="#6f3ff3"/><path d="m20.654 16.019-17.654.981 17.654.981-.654-.981z" fill="#e1eaf2"/><path d="m13 12 .07-.34-.41-.09a4 4 0 0 0 -4.17 1.69l-.49.74v2.5a1.386 1.386 0 0 0 .09.5 1.833 1.833 0 0 0 .91.91 1.386 1.386 0 0 0 .5.09 1.5 1.5 0 0 0 1.41-1 1.386 1.386 0 0 0 .09-.5v-1.5z" fill="#faa592"/><path d="m16.73 12.43-.05-.01-1.929 2.58-.351.47a1.954 1.954 0 0 0 -.389 1.134 1.445 1.445 0 0 0 .081.4 1.5 1.5 0 0 0 2.908-.504v-.5l1.78-1.78a3 3 0 0 0 -2.05-1.79z" fill="#faa592"/><path d="m13.07 11.66-.07.34-2 3v1.5a1.374 1.374 0 0 0 .088.486l.006.023a1.487 1.487 0 0 0 .191.364l.006.008a1.478 1.478 0 0 0 .262.274l.043.035a1.489 1.489 0 0 0 .751.295c.051 0 .1.015.153.015h.01a1.5 1.5 0 0 0 1.49-1.5c0 .036.008.069.011.1a1.954 1.954 0 0 1 .389-1.13l.351-.47 1.929-2.58z" fill="#faa592"/><path d="m12.66 11.57a3.936 3.936 0 0 0 -.988-.078l-1.336 2a2 2 0 0 0 -.336 1.114v.394a2 2 0 0 1 -1.912 1.991v.009a1.833 1.833 0 0 0 .91.91 1.386 1.386 0 0 0 .5.09 1.5 1.5 0 0 0 1.41-1 1.386 1.386 0 0 0 .09-.5v-1.5l2-3 .07-.34z" fill="#e68d79"/><path d="m14.961 12.058-1.961 2.942v1a1 1 0 0 1 -1 1h-.908v.009a1.487 1.487 0 0 0 .191.364l.006.008a1.478 1.478 0 0 0 .262.274l.043.035a1.489 1.489 0 0 0 .751.295c.051 0 .1.015.153.015h.01a1.5 1.5 0 0 0 1.492-1.5c0 .036.008.069.011.1a1.954 1.954 0 0 1 .389-1.13l.351-.47 1.929-2.58z" fill="#e68d79"/><path d="m17.953 13.07-1.953 2.93a1 1 0 0 1 -1 1h-.908a1.5 1.5 0 0 0 2.908-.5v-.5l1.78-1.78a3 3 0 0 0 -.827-1.15z" fill="#e68d79"/><path d="m15.484 20.137a1.629 1.629 0 0 0 .521-2.028 1.577 1.577 0 0 0 -1.954-.753l-.051.019-.42.16a9.57 9.57 0 0 1 -1.08.465.57.57 0 0 1 -.13-.01l-3.357 1.255-.013.005-.049.02a3.1 3.1 0 0 0 -1.951 2.878v2.852l2.913.971a2 2 0 0 0 2.594-1.5l.493-2.471z" fill="#ffb4a3"/><path d="m16.005 18.109a1.558 1.558 0 0 0 -1.2-.817 2 2 0 0 1 -1.1 2.623l-.842.534a2.571 2.571 0 0 0 -1.112 1.551l-.473 1.891a1 1 0 0 1 -1.342.686l-2.936-1.177v1.6l2.913.971a2 2 0 0 0 2.594-1.5l.493-2.471 2.484-1.863a1.63 1.63 0 0 0 .521-2.028z" fill="#faa592"/><circle cx="40" cy="38" fill="#e1eaf2" r="1"/><circle cx="40" cy="42" fill="#e1eaf2" r="1"/><ellipse cx="42" cy="15" fill="#694b4c" rx="1" ry="2"/><ellipse cx="34" cy="15" fill="#694b4c" rx="1" ry="2"/><path d="m38 18.857c0 1.657-.448 2.143-1 2.143s-1-.486-1-2.143.448-3.857 1-3.857 1 2.2 1 3.857z" fill="#e68d79"/><ellipse cx="44.682" cy="2.708" fill="#f6fafd" rx=".825" ry="1.148" transform="matrix(.707 -.707 .707 .707 11.182 32.399)"/><ellipse cx="43.427" cy="4.208" fill="#f6fafd" rx=".413" ry=".574" transform="matrix(.707 -.707 .707 .707 9.753 31.952)"/><path d="m35 22h6s0 2-3 2-3-2-3-2z" fill="#e68d79"/></g></svg>