<svg height="512" viewBox="0 0 64 64" width="512" xmlns="http://www.w3.org/2000/svg"><g id="_08-cycling" data-name="08-cycling"><path d="m38.81 2.51c-.48 1.22-1.76 4.26-3.08 5.31a.958.958 0 0 1 -.59.18 1.219 1.219 0 0 1 -1.14-1.28 1.393 1.393 0 0 1 .04-.35 25.806 25.806 0 0 1 1.81-5.06 9.836 9.836 0 0 1 2.96 1.2z" fill="#636978"/><path d="m29.96 6.37a1.393 1.393 0 0 1 .04.35 1.219 1.219 0 0 1 -1.14 1.28.958.958 0 0 1 -.59-.18c-1.32-1.05-2.6-4.09-3.08-5.31a9.836 9.836 0 0 1 2.96-1.2 25.806 25.806 0 0 1 1.81 5.06z" fill="#636978"/><path d="m24.01 14a2.175 2.175 0 0 0 -.01.26v1.74a3.685 3.685 0 0 1 -2.99-2.15 5.415 5.415 0 0 1 2.72-3.7 7.2 7.2 0 0 0 3.23.85v.01a3.039 3.039 0 0 0 -1.85.88l-.22.22a3.035 3.035 0 0 0 -.88 1.89z" fill="#a4adb5"/><path d="m39.99 14a3.035 3.035 0 0 0 -.88-1.89l-.22-.22a3.035 3.035 0 0 0 -1.89-.88v-.01a7.233 7.233 0 0 0 3.27-.85 5.415 5.415 0 0 1 2.72 3.7 3.685 3.685 0 0 1 -2.99 2.15v-1.74a2.175 2.175 0 0 0 -.01-.26z" fill="#a4adb5"/><path d="m43.41 8.59a1.955 1.955 0 0 1 .59 1.41 7.828 7.828 0 0 1 -1.01 3.85 5.415 5.415 0 0 0 -2.72-3.7l.06-.03a2.731 2.731 0 0 0 1.67-2.12 1.955 1.955 0 0 1 1.41.59z" fill="#d8e0e8"/><path d="m23.67 10.12.06.03a5.415 5.415 0 0 0 -2.72 3.7 7.828 7.828 0 0 1 -1.01-3.85 2.015 2.015 0 0 1 2-2 2.731 2.731 0 0 0 1.67 2.12z" fill="#d8e0e8"/><path d="m26.96 11a7.2 7.2 0 0 1 -3.23-.85l-.06-.03a2.731 2.731 0 0 1 -1.67-2.12v-2a7.1 7.1 0 0 1 1.1-1.71c.46 1.2 2.43 5.84 5.9 6.71h-1.74c-.1 0-.2 0-.3.01z" fill="#6f3ff3"/><path d="m40.27 10.15a7.233 7.233 0 0 1 -3.27.85v.01a2.175 2.175 0 0 0 -.26-.01h-1.74c3.47-.87 5.44-5.51 5.9-6.71a7.1 7.1 0 0 1 1.1 1.71v2a2.731 2.731 0 0 1 -1.67 2.12z" fill="#6f3ff3"/><path d="m38.81 2.51a9.175 9.175 0 0 1 2.09 1.78c-.46 1.2-2.43 5.84-5.9 6.71h-.28a3.055 3.055 0 0 0 -1.36.32 3.05 3.05 0 0 1 -2.72 0 3.055 3.055 0 0 0 -1.36-.32h-.28c-3.47-.87-5.44-5.51-5.9-6.71a9.175 9.175 0 0 1 2.09-1.78c.48 1.22 1.76 4.26 3.08 5.31a.958.958 0 0 0 .59.18 1.219 1.219 0 0 0 1.14-1.28 1.393 1.393 0 0 0 -.04-.35 25.806 25.806 0 0 0 -1.81-5.06 12.315 12.315 0 0 1 2.85-.31h2a12.315 12.315 0 0 1 2.85.31 25.806 25.806 0 0 0 -1.81 5.06 1.393 1.393 0 0 0 -.04.35 1.219 1.219 0 0 0 1.14 1.28.958.958 0 0 0 .59-.18c1.32-1.05 2.6-4.09 3.08-5.31z" fill="#2cb5ff"/><path d="m40 16v3l-5 2-1.29-1.29a2.414 2.414 0 0 0 -3.42 0l-1.29 1.29-5-2v-4.74a2.175 2.175 0 0 1 .01-.26h15.98a2.175 2.175 0 0 1 .01.26z" fill="#6ff"/><path d="m60 44.89v9.11l-1 4v-4a1 1 0 0 0 -1-1h-2v-6a2.006 2.006 0 0 0 -2-2 1.955 1.955 0 0 0 -1.41.59 1.752 1.752 0 0 0 -.35.46l-.24-.05-4.81-6.15-1.33-1.71a4.076 4.076 0 0 1 -.33-4.51l5.29-8.34a6.783 6.783 0 0 1 1.15 1.65l7.19 14.37a8.081 8.081 0 0 1 .84 3.58z" fill="#ffb4a3"/><path d="m59 58v4a1 1 0 0 1 -1 1h-7a2.006 2.006 0 0 1 -2-2v-6a2.006 2.006 0 0 1 2-2h7a1 1 0 0 1 1 1z" fill="#ffb4a3"/><path d="m56 47v6h-19l-1 2h-8l-1-2h-19v-6a2.006 2.006 0 0 1 2-2 1.955 1.955 0 0 1 1.41.59 1.752 1.752 0 0 1 .35.46 2.028 2.028 0 0 1 .24.95v2h40v-2a2.028 2.028 0 0 1 .24-.95 1.752 1.752 0 0 1 .35-.46 1.955 1.955 0 0 1 1.41-.59 2.006 2.006 0 0 1 2 2z" fill="#707789"/><path d="m32 33 4-5-.03-.06a7.994 7.994 0 0 0 3.97-5.95l.06.01a2.979 2.979 0 0 0 2.84-2.06l.16.06 6.11 3.95a6.761 6.761 0 0 1 1.71 1.34l-5.29 8.34a4.076 4.076 0 0 0 .33 4.51l1.33 1.71-.19.15-2 6-6 3h-9.34a6.124 6.124 0 0 0 -2.16-2.87 5.992 5.992 0 0 0 -3.5-1.13 5.923 5.923 0 0 0 -4.17 1.7l-3.54-6.19 1.85-2.37a4.076 4.076 0 0 0 .33-4.51l-5.29-8.34a6.761 6.761 0 0 1 1.71-1.34l6.11-3.95.16-.06a2.979 2.979 0 0 0 2.84 2.06l.06-.01a8.082 8.082 0 0 0 2.28 4.67 7.838 7.838 0 0 0 1.69 1.28l-.03.06z" fill="#2b8ffc"/><path d="m45 46 2 3h-8z" fill="#6e0dd6"/><path d="m47 53-2 10h-10v-8h1l1-2z" fill="#2864f0"/><path d="m43 18v1a2.653 2.653 0 0 1 -.16.94 2.979 2.979 0 0 1 -2.84 2.06l-.06-.01a8.1 8.1 0 0 0 .06-.99v-5h1a2.006 2.006 0 0 1 2 2z" fill="#faa68e"/><path d="m40 19v2a8.1 8.1 0 0 1 -.06.99 7.993 7.993 0 0 1 -11.91 5.95 7.838 7.838 0 0 1 -1.69-1.28 7.984 7.984 0 0 1 -2.34-5.66v-2l5 2 1.29-1.29a2.414 2.414 0 0 1 3.42 0l1.29 1.29z" fill="#faa68e"/><path d="m39.99 14h-15.98a3.035 3.035 0 0 1 .88-1.89l.22-.22a3.039 3.039 0 0 1 1.85-.88c.1-.01.2-.01.3-.01h2.02a3.055 3.055 0 0 1 1.36.32 3.05 3.05 0 0 0 2.72 0 3.055 3.055 0 0 1 1.36-.32h2.02a2.175 2.175 0 0 1 .26.01 3.035 3.035 0 0 1 1.89.88l.22.22a3.035 3.035 0 0 1 .88 1.89z" fill="#faa68e"/><path d="m35.97 27.94.03.06-4 5-4-5 .03-.06a7.964 7.964 0 0 0 7.94 0z" fill="#bd6555"/><path d="m35 55v8h-2-3-1v-8z" fill="#cdd6de"/><path d="m19.83 46.7a5.923 5.923 0 0 1 4.17-1.7 5.992 5.992 0 0 1 3.5 1.13 6.124 6.124 0 0 1 2.16 2.87h-11.32a6.021 6.021 0 0 1 1.49-2.3z" fill="#e68d79"/><path d="m29 55v8h-11v-10h9l1 2z" fill="#e68d79"/><path d="m24 47a5.992 5.992 0 0 1 3.5 1.13 6.066 6.066 0 0 1 .942.87h1.218a6.124 6.124 0 0 0 -2.16-2.87 5.992 5.992 0 0 0 -3.5-1.13 5.923 5.923 0 0 0 -4.17 1.7 6.021 6.021 0 0 0 -1.49 2.3h1.211c.092-.1.18-.206.279-.3a5.923 5.923 0 0 1 4.17-1.7z" fill="#f2987e"/><path d="m24.06 21.99-.06.01a2.979 2.979 0 0 1 -2.84-2.06 2.653 2.653 0 0 1 -.16-.94v-1a2.006 2.006 0 0 1 2-2h1v5a8.1 8.1 0 0 0 .06.99z" fill="#faa68e"/><path d="m16.29 40.51-4.29 5.49-.24.05a1.752 1.752 0 0 0 -.35-.46 1.955 1.955 0 0 0 -1.41-.59 2.006 2.006 0 0 0 -2 2v6h-2a1 1 0 0 0 -1 1v4l-1-4v-9.11a8.081 8.081 0 0 1 .84-3.58l7.19-14.37a6.783 6.783 0 0 1 1.15-1.65l5.29 8.34a4.076 4.076 0 0 1 -.33 4.51z" fill="#ffb4a3"/><path d="m15 55v6a2.006 2.006 0 0 1 -2 2h-7a1 1 0 0 1 -1-1v-8a1 1 0 0 1 1-1h7a2.006 2.006 0 0 1 2 2z" fill="#ffb4a3"/><path d="m35 63h10l1.4-6.987c-4.85.089-9.049 1.228-11.4 2.906z" fill="#e68d79"/><path d="m37 53-1 2h-1v3.919c2.348-1.678 6.547-2.817 11.4-2.906l.6-3.013z" fill="#802cfe"/><path d="m55 51a1 1 0 0 1 -1-1v-5a2 2 0 0 0 -2 2v6h4v-2z" fill="#555a66"/><path d="m28.34 26.66a7.984 7.984 0 0 1 -2.34-5.66v-1.2l-2-.8v2a7.984 7.984 0 0 0 2.34 5.66 7.838 7.838 0 0 0 1.69 1.28 7.954 7.954 0 0 0 3.97 1.06 8.035 8.035 0 0 0 1-.067 7.973 7.973 0 0 1 -2.97-.993 7.838 7.838 0 0 1 -1.69-1.28z" fill="#de8269"/><path d="m38 19.8v1.2a8.1 8.1 0 0 1 -.06.99 8.008 8.008 0 0 1 -6.94 6.943 8.035 8.035 0 0 0 1 .067 8.018 8.018 0 0 0 7.94-7.01 8.1 8.1 0 0 0 .06-.99v-2z" fill="#ffbeaa"/><path d="m35.9 5a2.392 2.392 0 0 1 -1.351-.383c-.188.6-.358 1.185-.505 1.753a1.393 1.393 0 0 0 -.04.35 1.219 1.219 0 0 0 1.136 1.28.958.958 0 0 0 .59-.18 11.656 11.656 0 0 0 2.47-3.876 7 7 0 0 1 -1.327.876 2.393 2.393 0 0 1 -.973.18z" fill="#333940"/><path d="m27.123 4.82a7 7 0 0 1 -1.323-.876 11.656 11.656 0 0 0 2.47 3.876.958.958 0 0 0 .59.18 1.219 1.219 0 0 0 1.14-1.28 1.393 1.393 0 0 0 -.04-.35c-.147-.568-.317-1.154-.505-1.753a2.649 2.649 0 0 1 -2.332.2z" fill="#333940"/><path d="m25.964 12.89a2.541 2.541 0 0 1 1.62-.88 2.321 2.321 0 0 1 .263-.01h1.77a2.41 2.41 0 0 1 1.192.32 2.376 2.376 0 0 0 2.382 0 2.41 2.41 0 0 1 1.192-.32h1.77a1.658 1.658 0 0 1 .227.01 2.531 2.531 0 0 1 1.656.88l.193.22a3.092 3.092 0 0 1 .54.89h1.221a3.035 3.035 0 0 0 -.88-1.89l-.22-.22a3.035 3.035 0 0 0 -1.89-.88 2.175 2.175 0 0 0 -.26-.01h-2.02a3.055 3.055 0 0 0 -1.36.32 3.05 3.05 0 0 1 -2.72 0 3.055 3.055 0 0 0 -1.36-.32h-2.02c-.1 0-.2 0-.3.01a3.039 3.039 0 0 0 -1.85.88l-.22.22a3.035 3.035 0 0 0 -.88 1.89h1.221a3.092 3.092 0 0 1 .54-.89z" fill="#de8269"/><path d="m29 21 1.29-1.29z" fill="none"/><path d="m24.01 14a2.175 2.175 0 0 0 -.01.26v4.74l5-5z" fill="#45cdff"/><path d="m29 14-5 5 3.571 1.429 6.429-6.429z" fill="#54dff2"/><path d="m34 20 1 1 5-2v-4.74a2.222 2.222 0 0 0 -.01-.25z" fill="#fdfeff"/><path d="m39.99 14h-3.99l-5.71 5.71a2.414 2.414 0 0 1 3.42 0l.29.29 5.99-5.99z" fill="#6ff"/><path d="m34 14-6.429 6.429 1.429.571 1.29-1.29 5.71-5.71z" fill="#fdfeff"/><path d="m42 19.5v-.833a1.862 1.862 0 0 0 -2-1.667v4c0 .124-.017.247-.023.373a2.088 2.088 0 0 0 2.023-1.873z" fill="#e68d79"/><path d="m24 17a1.862 1.862 0 0 0 -2 1.667v.833a2.088 2.088 0 0 0 2.023 1.873c-.006-.126-.023-.249-.023-.373z" fill="#e68d79"/><path d="m22.191 11.428c.1.056.187.117.287.166a1 1 0 0 1 .375 1.411 5.374 5.374 0 0 0 -.585 2.346 2.82 2.82 0 0 0 1.732.649v-1.74a2.175 2.175 0 0 1 .01-.26 3.035 3.035 0 0 1 .88-1.89l.22-.22a3.039 3.039 0 0 1 1.85-.88v-.01a7.2 7.2 0 0 1 -3.23-.85 5.794 5.794 0 0 0 -1.539 1.278z" fill="#636978"/><path d="m41.76 11.594c.045-.022.085-.052.129-.075a5.815 5.815 0 0 0 -1.619-1.369 7.233 7.233 0 0 1 -3.27.85v.01a3.035 3.035 0 0 1 1.89.88l.22.22a3.035 3.035 0 0 1 .88 1.89 2.175 2.175 0 0 1 .01.26v1.74a2.932 2.932 0 0 0 1.96-.842 5.118 5.118 0 0 0 -.576-2.153 1 1 0 0 1 .376-1.411z" fill="#636978"/><path d="m41.889 11.519a4 4 0 0 0 1.931-2.338 1.929 1.929 0 0 0 -.41-.591 1.955 1.955 0 0 0 -1.41-.59 2.731 2.731 0 0 1 -1.67 2.12l-.06.03a5.815 5.815 0 0 1 1.619 1.369z" fill="#8a90a0"/><path d="m22.191 11.428a5.794 5.794 0 0 1 1.539-1.278l-.06-.03a2.731 2.731 0 0 1 -1.67-2.12 2.051 2.051 0 0 0 -1.655.881 3.988 3.988 0 0 0 1.846 2.547z" fill="#8a90a0"/><path d="m23.7 5.668c-.288-.592-.491-1.087-.6-1.378a7.1 7.1 0 0 0 -1.1 1.71v2a7.1 7.1 0 0 1 1.1-1.71c.175-.2.381-.41.6-.622z" fill="#9863fc"/><path d="m40.9 4.29c-.111.291-.314.786-.6 1.378.221.212.427.422.6.622a7.1 7.1 0 0 1 1.1 1.71v-2a7.1 7.1 0 0 0 -1.1-1.71z" fill="#9863fc"/><path d="m29.443 3.089a13.439 13.439 0 0 1 1.557-.089h2a13.439 13.439 0 0 1 1.557.089c.227-.592.478-1.207.791-1.865.165.031.345.049.5.086a12.315 12.315 0 0 0 -2.848-.31h-2a12.315 12.315 0 0 0 -2.85.31c.157-.037.337-.055.5-.086.315.658.566 1.276.793 1.865z" fill="#54dff2"/><path d="m38.81 4.51a8.884 8.884 0 0 1 1.49 1.158c.288-.592.491-1.087.6-1.378a9.373 9.373 0 0 0 -1.667-1.49c-.156.4-.39.963-.671 1.574.082.044.17.088.248.136z" fill="#54dff2"/><path d="m25.19 4.51c.078-.048.166-.092.248-.139-.281-.611-.515-1.174-.671-1.574a9.373 9.373 0 0 0 -1.667 1.493c.111.291.314.786.6 1.378a8.884 8.884 0 0 1 1.49-1.158z" fill="#54dff2"/><path d="m25.88 4.128c-.293-.641-.536-1.227-.69-1.618-.151.093-.285.191-.423.287.156.4.39.963.671 1.574.144-.083.288-.165.442-.243z" fill="#2cb5ff"/><path d="m29.443 3.089c-.227-.592-.478-1.207-.791-1.865-.165.031-.345.049-.5.086.316.649.569 1.263.8 1.863.164-.027.317-.064.491-.084z" fill="#2cb5ff"/><path d="m38.562 4.371c.281-.611.515-1.174.671-1.574-.138-.1-.272-.194-.423-.287-.154.391-.4.977-.69 1.618.154.078.298.16.442.243z" fill="#2cb5ff"/><path d="m34.557 3.089c.174.02.327.057.493.084.231-.6.484-1.214.8-1.863-.157-.037-.337-.055-.5-.086-.315.658-.566 1.276-.793 1.865z" fill="#2cb5ff"/><path d="m25.779 8.863a7.172 7.172 0 0 1 -2.049-.713l-.06-.03a2.731 2.731 0 0 1 -1.67-2.12v2a2.731 2.731 0 0 0 1.67 2.12l.06.03a7.2 7.2 0 0 0 3.23.85v.01c.1-.01.2-.01.3-.01h1.74a6.547 6.547 0 0 1 -3.221-2.137z" fill="#4f2cad"/><path d="m40.33 8.12-.06.03a7.333 7.333 0 0 1 -2.047.712 6.561 6.561 0 0 1 -3.223 2.138h1.74a2.175 2.175 0 0 1 .26.01v-.01a7.233 7.233 0 0 0 3.27-.85l.06-.03a2.731 2.731 0 0 0 1.67-2.12v-2a2.731 2.731 0 0 1 -1.67 2.12z" fill="#4f2cad"/><path d="m38.223 8.862a6.457 6.457 0 0 1 -1.223.138v.01a2.175 2.175 0 0 0 -.26-.01h-2.02a3.055 3.055 0 0 0 -1.36.32 3.05 3.05 0 0 1 -2.72 0 3.055 3.055 0 0 0 -1.36-.32h-2.02c-.1 0-.2 0-.3.01v-.01a6.6 6.6 0 0 1 -1.181-.137 6.547 6.547 0 0 0 3.221 2.137h.28a3.055 3.055 0 0 1 1.36.32 3.05 3.05 0 0 0 2.72 0 3.055 3.055 0 0 1 1.36-.32h.28a6.561 6.561 0 0 0 3.223-2.138z" fill="#2b8ffc"/><path d="m32 19a2.406 2.406 0 0 0 -1.71.71l-.168.168a6.065 6.065 0 0 0 -.122 1.122 2.151 2.151 0 0 0 2 2 2.07 2.07 0 0 0 2-2 6.065 6.065 0 0 0 -.122-1.122l-.168-.168a2.406 2.406 0 0 0 -1.71-.71z" fill="#de8269"/><path d="m52 50v-1h-40v1a1 1 0 0 0 1 1h38a1 1 0 0 0 1-1z" fill="#8a90a0"/><path d="m28 55h1 6 1l1-2h-10z" fill="#555a66"/><path d="m9 51a1 1 0 0 0 1-1v-5a2 2 0 0 1 2 2v6h-4v-2z" fill="#555a66"/><path d="m35 57h-2a2 2 0 0 0 -2 2v4h-2v-8h6z" fill="#7e8596"/><rect fill="#e9edf5" height="5" rx="1" width="2" x="33" y="58"/><path d="m38.407 57.271a13.028 13.028 0 0 0 -3.407 1.648v4.081h3v-4a3.966 3.966 0 0 1 .407-1.729z" fill="#c76f5f"/><path d="m42 55h4.6l.4-2h-10l-1 2h-1v3.919a13.028 13.028 0 0 1 3.407-1.648 3.991 3.991 0 0 1 3.593-2.271z" fill="#4f2cad"/><path d="m29 55h-1l-1-2h-9v2h5.764a2 2 0 0 1 1.789 1.106l.025.049a4.012 4.012 0 0 1 .422 1.789v5.056h3z" fill="#c76f5f"/><path d="m58 53h-6v2h4a1 1 0 0 1 1 1v7h1a1 1 0 0 0 1-1v-8a1 1 0 0 0 -1-1z" fill="#ffcdbe"/><path d="m54 61a2 2 0 0 1 -2-2v-6h-1a2.006 2.006 0 0 0 -2 2v6a2.006 2.006 0 0 0 2 2h6v-2z" fill="#faa68e"/><path d="m6 53h6v2h-4a1 1 0 0 0 -1 1v7h-1a1 1 0 0 1 -1-1v-8a1 1 0 0 1 1-1z" fill="#ffcdbe"/><path d="m10 61a2 2 0 0 0 2-2v-6h1a2.006 2.006 0 0 1 2 2v6a2.006 2.006 0 0 1 -2 2h-6v-2z" fill="#faa68e"/><path d="m24 43a6 6 0 0 0 -1 .09v-2.09l-4.3-6.875a4.07 4.07 0 0 1 -.563 4.015l-1.85 2.37 2.849 4.982.694 1.208a5.909 5.909 0 0 1 3.17-1.611 5.916 5.916 0 0 1 4.5 1.041 6.124 6.124 0 0 1 2.16 2.87h.34a6 6 0 0 0 -6-6z" fill="#2864f0"/><path d="m41 41v7l4-2 2-6 .19-.15-1.33-1.71a4.07 4.07 0 0 1 -.563-4.015z" fill="#2864f0"/><path d="m24.06 21.99-.06.01a2.979 2.979 0 0 1 -2.84-2.06l-.16.06-6.11 3.95a6.775 6.775 0 0 0 -1.709 1.339l.084.135 1.7 2.673 9.148-5.881c-.013-.077-.043-.148-.053-.226z" fill="#2cb5ff"/><path d="m50.735 25.424.084-.135a6.775 6.775 0 0 0 -1.709-1.339l-6.11-3.95-.16-.06a2.979 2.979 0 0 1 -2.84 2.06l-.06-.01c-.007.053-.021.1-.029.156l9.346 5.608z" fill="#2cb5ff"/><path d="m58 49v-3.479a6 6 0 0 0 -.724-2.858l-8.05-14.863-3.7 5.828a4.076 4.076 0 0 0 .33 4.51l1.33 1.71 4.814 6.152.24.05a1.752 1.752 0 0 1 .35-.46 1.955 1.955 0 0 1 1.41-.59 2.006 2.006 0 0 1 2 2v6h2a1 1 0 0 1 1 1v4l1-4v-3a2 2 0 0 1 -2-2z" fill="#faa68e"/><path d="m6 45.521v3.479a2 2 0 0 1 -2 2v3l1 4v-4a1 1 0 0 1 1-1h2v-6a2.006 2.006 0 0 1 2-2 1.955 1.955 0 0 1 1.41.59 1.752 1.752 0 0 1 .35.46l.24-.05 4.29-5.49 1.85-2.37a4.076 4.076 0 0 0 .33-4.51l-3.7-5.828-8.046 14.861a6 6 0 0 0 -.724 2.858z" fill="#faa68e"/><g fill="#2cb5ff"><rect height="2" rx="1" width="6" x="48" y="12"/><rect height="2" rx="1" width="3" x="55" y="12"/><rect height="2" rx="1" width="6" x="48" y="8"/><rect height="2" rx="1" width="3" x="55" y="8"/><rect height="2" rx="1" width="6" x="48" y="4"/><rect height="2" rx="1" width="3" x="55" y="4"/></g><path d="m28.27 7.82a.958.958 0 0 0 .59.18 1.219 1.219 0 0 0 1.14-1.28 1.393 1.393 0 0 0 -.04-.35 25.806 25.806 0 0 0 -1.81-5.06c-.172.039-.331.089-.495.136a24.93 24.93 0 0 1 1.816 5.044.9.9 0 0 1 -.149.768.593.593 0 0 1 -.46.242.464.464 0 0 1 -.281-.077c-1.155-.906-2.4-3.724-2.949-5.161-.151.082-.3.163-.442.248.48 1.22 1.76 4.26 3.08 5.31z" fill="#333940"/><path d="m27.964 8.21a1.436 1.436 0 0 0 .9.29 1.585 1.585 0 0 0 1.248-.627 1.905 1.905 0 0 0 .331-1.626 26.482 26.482 0 0 0 -1.789-5.023c-.165.031-.345.049-.5.086a25.806 25.806 0 0 1 1.81 5.06 1.393 1.393 0 0 1 .04.35 1.219 1.219 0 0 1 -1.144 1.28.958.958 0 0 1 -.59-.18c-1.32-1.05-2.6-4.09-3.08-5.31-.15.093-.285.191-.423.287.514 1.315 1.8 4.318 3.197 5.413z" fill="#6f3ff3"/><path d="m34.04 6.37a1.393 1.393 0 0 0 -.04.35 1.219 1.219 0 0 0 1.14 1.28.958.958 0 0 0 .59-.18c1.32-1.05 2.6-4.09 3.08-5.31-.139-.085-.291-.166-.442-.248-.55 1.437-1.794 4.255-2.948 5.161a.468.468 0 0 1 -.282.077.593.593 0 0 1 -.46-.242.9.9 0 0 1 -.149-.768 24.93 24.93 0 0 1 1.816-5.044c-.164-.047-.323-.1-.495-.136a25.806 25.806 0 0 0 -1.81 5.06z" fill="#333940"/><path d="m33.89 7.873a1.585 1.585 0 0 0 1.248.627 1.441 1.441 0 0 0 .9-.29c1.4-1.1 2.682-4.1 3.2-5.413-.138-.1-.273-.194-.423-.287-.48 1.22-1.76 4.26-3.08 5.31a.958.958 0 0 1 -.59.18 1.219 1.219 0 0 1 -1.145-1.28 1.393 1.393 0 0 1 .04-.35 25.806 25.806 0 0 1 1.81-5.06c-.157-.037-.337-.055-.5-.086a26.5 26.5 0 0 0 -1.789 5.022 1.907 1.907 0 0 0 .329 1.627z" fill="#6f3ff3"/><path d="m40 13.5h-16a.5.5 0 0 0 -.5.5v5a.5.5 0 0 0 .314.464l5 2a.5.5 0 0 0 .54-.11l1.292-1.293a1.982 1.982 0 0 1 2.708 0l1.292 1.293a.5.5 0 0 0 .54.11l5-2a.5.5 0 0 0 .314-.464v-5a.5.5 0 0 0 -.5-.5zm0 5.5-5 2-1.293-1.293a2.414 2.414 0 0 0 -3.414 0l-1.293 1.293-5-2v-5h16z" fill="#2b8ffc"/><path d="m24 19 5 2 1.293-1.293a2.414 2.414 0 0 1 3.414 0l1.293 1.293 5-2v-5h-16zm.5-4.5h15v4.162l-4.379 1.751-1.06-1.059a2.914 2.914 0 0 0 -4.122 0l-1.06 1.059-4.379-1.751z" fill="#1d47a8"/><path d="m31 33.571v4.429a1 1 0 0 0 1 1 1 1 0 0 0 1-1v-4.429l-1 1.429z" fill="#d8e0e8"/><path d="m38.913 25a7.989 7.989 0 0 1 -2.943 2.94l.03.06-3.2 4-.8 1-.8-1-3.2-4 .03-.06a7.838 7.838 0 0 1 -1.69-1.28 8.087 8.087 0 0 1 -1.24-1.66h-.1l6 8.571 1 1.429 1-1.429 6-8.571z" fill="#d8e0e8"/><ellipse cx="42.684" cy="26.695" fill="#f6fafd" rx="1.642" ry="2.286" transform="matrix(.707 -.707 .707 .707 -6.37 38.018)"/><ellipse cx="43.682" cy="30.708" fill="#f6fafd" rx=".825" ry="1.148" transform="matrix(.707 -.707 .707 .707 -8.917 39.9)"/><ellipse cx="54.427" cy="46.208" fill="#f6fafd" rx=".413" ry=".574" transform="matrix(.707 -.707 .707 .707 -16.731 52.045)"/><ellipse cx="9.427" cy="46.208" fill="#f6fafd" rx=".413" ry=".574" transform="matrix(.707 -.707 .707 .707 -29.922 20.214)"/><ellipse cx="33.427" cy="2.208" fill="#f6fafd" rx=".413" ry=".574" transform="matrix(.707 -.707 .707 .707 8.237 24.292)"/><path d="m29 24h6s0 2-3 2-3-2-3-2z" fill="#de8269"/></g></svg>