<svg height="512" viewBox="0 0 64 64" width="512" xmlns="http://www.w3.org/2000/svg"><g id="_07-cricket" data-name="07-cricket"><circle cx="5.002" cy="48.001" fill="#c76f5f" r="4"/><path d="m32 26h-22v-1a4.11 4.11 0 0 1 2.03-1.68c1.91-.88 4.95-1.32 8.97-1.32s7.059.44 8.969 1.31a6.716 6.716 0 0 1 .89.5 2.635 2.635 0 0 1 1.141 2.19z" fill="#6f3ff3"/><path d="m27.7 18a8.891 8.891 0 0 1 2.27 5.309c-1.909-.868-4.938-1.309-8.97-1.309s-7.06.44-8.97 1.32a9.021 9.021 0 0 1 6.98-8.1 9.334 9.334 0 0 1 1.99-.22 8.956 8.956 0 0 1 6.7 3z" fill="#2864f0"/><path d="m61.59 20.351a1.871 1.871 0 0 1 1.41 1.79 1.934 1.934 0 0 1 -2.45 1.8l-2.2-.56 1.91-3.4.03.02z" fill="#e9b789"/><path d="m41.861 14.712-2.86 4.289.16.97-.16.03-2 1 1.54-5.139 1.46-4.86z" fill="#e9b789"/><path d="m38.541 15.862-1.541 5.138-9.3-3a8.956 8.956 0 0 0 -6.7-3 9.334 9.334 0 0 0 -1.99.22l-.01-.03-16.547-5.338a1.934 1.934 0 0 1 -1.353-2.48l.82-2.4.08.028z" fill="#f2cfa9"/><path d="m2.823 2.332a1.978 1.978 0 0 1 2.4-1.26l34.777 9.928-1.46 4.86-36.54-10.86-.08-.03z" fill="#ffe2c2"/><path d="m48.001 30.001v-2-1h7.999v3h-1-5.999z" fill="#b9c3cc"/><path d="m58.99 16.012-3.99 6.989-3-1 3-6.999 4 1z" fill="#2cb5ff"/><path d="m59.64 16.232a2.006 2.006 0 0 1 1.1 2.889l-.48.86-1.91 3.4-.35.619-1.15-.38-1.85-.62 3.99-6.989z" fill="#2cb5ff"/><path d="m55 15.002-3 6.999-2.999-1 2-6.999z" fill="#2cb5ff"/><path d="m56.85 23.621-.85 3.38h-7.999v-2-6l3-4.999-2 6.999 2.999 1 3 1z" fill="#2864f0"/><path d="m41.861 14.712 1.14-1.71 8 1-3 4.999v6h-8l-.84-5.03-.16-.97z" fill="#2b8ffc"/><path d="m41.221 45.001.78 1-1.82 1.36-2.18 1.639-1-.999-5-7-1-1 4-3z" fill="#fdfeff"/><path d="m17 51h4l16-3 1 1 2.18-1.639 6.82 13.639v2h-25v-4l-6-8 .01-.1a4.619 4.619 0 0 0 .99.1z" fill="#2b8ffc"/><path d="m48 37 2.2 2.94a2.027 2.027 0 0 0 2.089.74l2.711-.68v-.87a2.075 2.075 0 0 1 2 2.13v.53a2.124 2.124 0 0 1 -1.45 2.05l-3.29 1a3.4 3.4 0 0 1 -1.259.15 3.8 3.8 0 0 1 -2.66-1.24l-2.72-2.89a2.375 2.375 0 0 1 0-3.2 2.049 2.049 0 0 1 1.5-.66z" fill="#ebf5f7"/><path d="m42.281 45 2.22-8h2.62a2.049 2.049 0 0 0 -1.5.66 2.375 2.375 0 0 0 0 3.2l2.72 2.89a3.8 3.8 0 0 0 2.659 1.241v.009z" fill="#6f3ff3"/><path d="m32 41 5 7-16 3h-4a4.619 4.619 0 0 1 -.99-.1 5.006 5.006 0 0 1 -2.55-8.439 4.691 4.691 0 0 1 .54-.461 4.941 4.941 0 0 1 3-1z" fill="#9863fc"/><path d="m55 39.131v.869l-2.71.68a2.027 2.027 0 0 1 -2.089-.74l-2.201-2.94 1-7h6z" fill="#f2c5c6"/><path d="m18 34.7v3.72a7.952 7.952 0 0 1 -.97-.48 7.838 7.838 0 0 1 -1.69-1.28 7.991 7.991 0 0 1 -2.33-5.45c.162 1.59 2.182 2.931 4.99 3.49z" fill="#f2c5c6"/><path d="m24 34.7v3.72a8.049 8.049 0 0 1 -6 0v-3.72a15.15 15.15 0 0 0 6 0z" fill="#f2c5c6"/><path d="m24 34.7c2.81-.56 4.829-1.9 4.989-3.49a7.937 7.937 0 0 1 -2.7 5.79 8.069 8.069 0 0 1 -2.289 1.421z" fill="#f2c5c6"/><path d="m21 31h8a1.477 1.477 0 0 1 -.01.21c-.16 1.59-2.179 2.93-4.989 3.49v-.7a3 3 0 0 0 -3-3z" fill="#fed9d8"/><path d="m24 34v.7a15.15 15.15 0 0 1 -6 0v-.7a3 3 0 0 1 6 0z" fill="#fed9d8"/><path d="m13 31h8a3 3 0 0 0 -3 3v.7c-2.81-.56-4.83-1.9-4.99-3.49a1.477 1.477 0 0 1 -.01-.21z" fill="#fed9d8"/><path d="m29.001 26.001v5h-7.999-8v-5z" fill="#fed9d8"/><path d="m42.001 28.001h-1l-4.091 11.455 4.311 5.545h1.06l2.22-8 2.5-9z" fill="#fed9d8"/><path d="m37.731 37.001h-2.73l1.909 2.455.877-2.455z" fill="#6f3ff3"/><path d="m30 26a2.006 2.006 0 0 1 2 2v1a3 3 0 0 1 -3 3l-.06-.01a8.1 8.1 0 0 0 .06-.99v-5z" fill="#eba8a9"/><path d="m13 31a8.1 8.1 0 0 0 .06.99l-.06.01a3 3 0 0 1 -3-3v-1a2.006 2.006 0 0 1 2-2h1z" fill="#eba8a9"/><path d="m40 25h8v3h-8z" fill="#e1eaf2"/><path d="m31.002 40 3.999-2.999h-6.25l2.249 2.999z" fill="#6f3ff3"/><path d="m31 40-2.249-3h-2.459a8.014 8.014 0 0 1 -8.292 1.421 7.952 7.952 0 0 1 -.97-.48l-.03.059-3 4a4.941 4.941 0 0 1 3-1h15z" fill="#2b8ffc"/><path d="m52.818 14.456-.834 2.085 2.11.576.906-2.115z" fill="#45cdff"/><path d="m59 16.002-2.262-.566-1.238 2.064 2.285.623 1.205-2.111z" fill="#45cdff"/><path d="m60.422 16.723-1.392 1.74 1.788.488a2.006 2.006 0 0 0 -.396-2.228z" fill="#45cdff"/><path d="m5 50a3.989 3.989 0 0 1 -3.858-3 4 4 0 1 0 7.717 0 3.989 3.989 0 0 1 -3.859 3z" fill="#b35747"/><path d="m21 24c4.029 0 7.059.44 8.969 1.31a6.716 6.716 0 0 1 .89.5 2.3 2.3 0 0 1 .215.19h.926a2.635 2.635 0 0 0 -1.14-2.19 6.716 6.716 0 0 0 -.89-.5c-1.911-.87-4.941-1.31-8.97-1.31s-7.06.44-8.97 1.32a4.11 4.11 0 0 0 -2.03 1.68v1h.886a5.551 5.551 0 0 1 1.144-.68c1.91-.88 4.95-1.32 8.97-1.32z" fill="#9863fc"/><path d="m19.012 17.222a9.334 9.334 0 0 1 1.988-.222 9.028 9.028 0 0 1 8.531 6.135c.148.058.3.112.438.174a9.008 9.008 0 0 0 -8.969-8.309 9.334 9.334 0 0 0 -1.99.22 9.018 9.018 0 0 0 -6.98 8.1c.138-.063.294-.119.443-.178a9.016 9.016 0 0 1 6.537-5.921z" fill="#2b8ffc"/><path d="m61.377 23.344a1 1 0 0 1 -.59-1.525l.938-1.407c-.047-.016-.086-.047-.135-.061l-1.3-.351-.03-.02-1.91 3.4 2.2.56a2.009 2.009 0 0 0 1.737-.369z" fill="#d99c64"/><path d="m41.2 13.4-2.626 4.6a1.979 1.979 0 0 1 -.917.815l-.657 2.185 2-1 .16-.03-.16-.97 2.86-4.289z" fill="#d99c64"/><path d="m13 26h16v3h-16z" fill="#f0b9ba"/><path d="m31 29.5v-.833a1.862 1.862 0 0 0 -2-1.667v4c0 .124-.017.247-.023.373a2.088 2.088 0 0 0 2.023-1.873z" fill="#d19697"/><path d="m13 27a1.862 1.862 0 0 0 -2 1.667v.833a2.088 2.088 0 0 0 2.023 1.873c-.006-.126-.023-.249-.023-.373z" fill="#d19697"/><path d="m51.788 17.031 1.03-2.575-1.818-.456-2 7 3 1 1-2.335a2 2 0 0 1 -1.212-2.634z" fill="#2b8ffc"/><path d="m55.283 17.862 1.455-2.426-1.738-.436-3 7 3 1 1.285-2.25a2 2 0 0 1 -1.002-2.888z" fill="#2b8ffc"/><path d="m57.9 19.88 2.526-3.157a1.961 1.961 0 0 0 -.782-.491l-.65-.22-3.994 6.988 1.85.62 1.15.38.35-.62.914-1.626-.9-.3a1 1 0 0 1 -.464-1.574z" fill="#2b8ffc"/><path d="m52.549 23.728 3.987 1.139.314-1.247-1.85-.62-3-1-3-1 2-7-3 5v8h2v-1.349a2 2 0 0 1 2.549-1.923z" fill="#1d47a8"/><path d="m46 20a3.314 3.314 0 0 1 .158-1h-7.158l.16.97.506 3.03h3.334a3 3 0 0 0 3-3z" fill="#2864f0"/><path d="m49.461 13.808-2.906 4.36a3.262 3.262 0 0 0 -.4.832h1.845l3-5z" fill="#2864f0"/><path d="m46 20a3 3 0 0 1 -3 3h-3.334l.334 2h8v-6h-1.842a3.314 3.314 0 0 0 -.158 1z" fill="#2357d1"/><path d="m50 27a2 2 0 0 0 2 2h4v1h-8v-3z" fill="#a4adb5"/><path d="m46 25a2 2 0 0 1 -2 2h-4v1h8v-3z" fill="#cdd6de"/><path d="m49.461 13.809-6.46-.807-1.099 1.648 6.298 1.05z" fill="#2cb5ff"/><path d="m53.05 38.79a2 2 0 0 1 -1.807-.547l-.95-.95a1 1 0 0 1 -.293-.707v-2.586a2 2 0 0 1 2-2h3v-2h-6l-1 7 2.2 2.94a2.029 2.029 0 0 0 2.09.74l2.71-.68v-1.6z" fill="#f0b9ba"/><path d="m42 28h-1l-.714 2h1.938a2 2 0 0 1 1.9 2.632l-2.541 7.624a1 1 0 0 1 -1.729.309l-2.31-2.885-.634 1.775 4.311 5.545h1.06l2.22-8 2.499-9z" fill="#f2c5c6"/><path d="m51.97 42.606 2.226-.445a1 1 0 0 0 .8-.981v-1.18l-2.71.68a2.029 2.029 0 0 1 -2.09-.74l-2.196-2.94h-.88a2.014 2.014 0 0 0 -.953.25l2.719 4.078a3 3 0 0 0 3.084 1.278z" fill="#e1eaf2"/><path d="m48.34 43.75-2.72-2.89a2.3 2.3 0 0 1 -.43-.676.925.925 0 0 0 -.226 1.261 1 1 0 0 1 -.833 1.555h-1.3l-.555 2h8.724v-.01a3.8 3.8 0 0 1 -2.66-1.24z" fill="#4f2cad"/><path d="m41.221 45-6.221-8-1.739 1.3 4.349 5.074a2 2 0 0 1 -.319 2.9l-.989.742.698.984 1 1 2.18-1.639 1.82-1.361z" fill="#ebf5f7"/><path d="m32 41h-2.333l2.475 3.713a1 1 0 0 1 -.668 1.541l-9.425 1.571a12.889 12.889 0 0 1 -2.112.175h-1.937a6 6 0 0 1 -5.617-3.908 4.993 4.993 0 0 0 3.629 6.808 4.619 4.619 0 0 0 .988.1h4l16-3z" fill="#6f3ff3"/><path d="m18 38.42a7.952 7.952 0 0 1 -.97-.48l-.03.06-3 4a4.926 4.926 0 0 1 2.732-.978l1.81-2.414c-.18-.059-.363-.118-.542-.188z" fill="#2cb5ff"/><path d="m28.751 37h-2.459a8.164 8.164 0 0 1 -1.467 1h4.675z" fill="#2cb5ff"/><path d="m40.156 47.3-2.175 1.647-1-1-15.993 3.053-4 .013a4.634 4.634 0 0 1 -.991-.1l-.009.1 1.722 2.287 4.29.7 13.991-3.044 1 1 1.844-1.556 2.027-1.7z" fill="#2357d1"/><g fill="#2cb5ff"><path d="m21.996 54.03-4.286-.7 4.304 5.7.013 4 1.998-.006-.013-4z"/><path d="m47.019 60.95-6.157-12.216-2.027 1.7 6.184 10.523.006 2 2.001-.007z"/><rect height="6" rx="1" width="2" x="1" y="54"/><rect height="3" rx="1" width="2" x="1" y="61"/><rect height="6" rx="1" width="2" x="4" y="54"/><rect height="3" rx="1" width="2" x="4" y="61"/><rect height="6" rx="1" width="2" x="7" y="54"/><rect height="3" rx="1" width="2" x="7" y="61"/></g><path d="m10 5.889a1.039 1.039 0 0 1 -.285-.041l-2-.593a1 1 0 0 1 .568-1.918l2 .593a1 1 0 0 1 -.283 1.959z" fill="#ffefde"/><path d="m30.628 12a1.007 1.007 0 0 1 -.285-.041l-16.878-5a1 1 0 1 1 .568-1.918l16.879 5a1 1 0 0 1 -.284 1.959z" fill="#ffefde"/><path d="m22 30.857c0 1.657-.448 2.143-1 2.143s-1-.486-1-2.143.448-3.857 1-3.857 1 2.2 1 3.857z" fill="#eba8a9"/><path d="m24.139 26a3.589 3.589 0 0 0 -.139 1c0 1.105.448 2 1 2s1-.895 1-2a3.589 3.589 0 0 0 -.139-1z" fill="#333940"/><path d="m16 27c0 1.105.448 2 1 2s1-.895 1-2a3.589 3.589 0 0 0 -.139-1h-1.722a3.589 3.589 0 0 0 -.139 1z" fill="#333940"/><ellipse cx="33.684" cy="11.695" fill="#f6fafd" rx="1.642" ry="2.286" transform="matrix(.707 -.707 .707 .707 1.602 27.255)"/><ellipse cx="24.682" cy="18.708" fill="#f6fafd" rx=".825" ry="1.148" transform="matrix(.707 -.707 .707 .707 -5.998 22.943)"/><ellipse cx="6.682" cy="45.708" fill="#f6fafd" rx=".825" ry="1.148" transform="matrix(.707 -.707 .707 .707 -30.373 18.125)"/><ellipse cx="22.427" cy="18.208" fill="#f6fafd" rx=".413" ry=".574" transform="matrix(.707 -.707 .707 .707 -6.305 21.202)"/><ellipse cx="26.427" cy="23.208" fill="#f6fafd" rx=".413" ry=".574" transform="matrix(.707 -.707 .707 .707 -8.67 25.497)"/><ellipse cx="6.427" cy="47.208" fill="#f6fafd" rx=".413" ry=".574" transform="matrix(.707 -.707 .707 .707 -31.509 18.385)"/><path d="m18.5 38.065v-4.065a2.5 2.5 0 0 1 5 0v4.064c.105-.037.211-.067.315-.109a7.361 7.361 0 0 0 .685-.349v-3.606a3.5 3.5 0 0 0 -7 0v3.615a7.368 7.368 0 0 0 .69.342c.104.043.21.072.31.108z" fill="#c5ced6"/><path d="m21 35.5a14.869 14.869 0 0 1 -3.1-.31 9.4 9.4 0 0 1 -3.942-1.646 7.525 7.525 0 0 0 1.742 2.765 8.022 8.022 0 0 0 2.5 1.649 7.477 7.477 0 0 0 7.769-1.333 7.478 7.478 0 0 0 2.089-3.081 9.437 9.437 0 0 1 -3.958 1.647 14.8 14.8 0 0 1 -3.1.309z" fill="none"/><path d="m29.5 31a.5.5 0 0 0 -1 0 1.041 1.041 0 0 1 -.007.16c-.131 1.3-1.976 2.529-4.6 3.051a14.711 14.711 0 0 1 -5.8 0c-2.615-.521-4.459-1.747-4.593-3.069a1.108 1.108 0 0 1 0-.141.5.5 0 0 0 -1 0c0 .078 0 .152.01.219v.026.014a8.479 8.479 0 0 0 2.473 5.752 8.367 8.367 0 0 0 1.793 1.358 8.236 8.236 0 0 0 1.036.512 8.481 8.481 0 0 0 8.805-1.509 8.482 8.482 0 0 0 2.87-6.154v-.008c.013-.068.013-.139.013-.211zm-3.54 5.624a7.477 7.477 0 0 1 -7.769 1.333 8.022 8.022 0 0 1 -2.5-1.649 7.525 7.525 0 0 1 -1.742-2.765 9.4 9.4 0 0 0 3.951 1.647 15.64 15.64 0 0 0 6.2 0 9.437 9.437 0 0 0 3.951-1.647 7.478 7.478 0 0 1 -2.09 3.082z" fill="#c5ced6"/><path d="m31.5 29a1.5 1.5 0 0 1 -1.5 1.5h-18a1.5 1.5 0 0 1 -1.5-1.5v-3h-1v3a2.5 2.5 0 0 0 2.5 2.5h18a2.5 2.5 0 0 0 2.5-2.5v-3h-1z" fill="#b9c3cc"/><ellipse cx="32.001" cy="25.501" fill="#636978" rx="1" ry="1.5"/><ellipse cx="10.002" cy="25.501" fill="#636978" rx="1" ry="1.5"/><path d="m10 26c-.435 0-.8-.419-.939-1a2.173 2.173 0 0 0 -.061.5c0 .829.448 1.5 1 1.5s1-.671 1-1.5a2.173 2.173 0 0 0 -.061-.5c-.139.582-.502 1-.939 1z" fill="#555a66"/><path d="m32 26c-.434 0-.8-.419-.938-1a2.119 2.119 0 0 0 -.062.5c0 .829.448 1.5 1 1.5s1-.671 1-1.5a2.173 2.173 0 0 0 -.061-.5c-.139.582-.503 1-.939 1z" fill="#555a66"/></g></svg>