<svg height="512" viewBox="0 0 64 64" width="512" xmlns="http://www.w3.org/2000/svg"><g id="_05-badminton" data-name="05-badminton"><path d="m59 51 4 12h-7l-3.76-10.34 6.71-1.83z" fill="#ffbeaa"/><path d="m62.34 32.14a2.263 2.263 0 0 1 -3.2 3.2l-1.14-1.34 3-3z" fill="#2b8ffc"/><path d="m52.24 52.66-.8.22-.44-2.88 2.86-11.44 1.14.44 7 11-3.05.83z" fill="#6f3ff3"/><path d="m59.21 24 1.79 7-3 3-7-1.79z" fill="#e9edf5"/><path d="m51.44 52.88 1.56 10.12h-25l-2-12v-18.76a8.357 8.357 0 0 1 2-.24l3 .5v3.5l4 4 3-2v6a2 2 0 0 0 2-2v-2.67l1 .67 4-4v-.85l8.86 3.41-2.86 11.44z" fill="#2b8ffc"/><path d="m49 21v1a3 3 0 0 1 -3 3l-.06-.01a8.1 8.1 0 0 0 .06-.99v-5h1a2.006 2.006 0 0 1 2 2z" fill="#ffbeaa"/><path d="m44.24 6a3.912 3.912 0 0 1 3.75 4.33l-.99 8.67h-1v-2l-2-3h-12l-2 3v2h-1l-.99-8.67a3.975 3.975 0 0 1 2.92-4.23 3.177 3.177 0 0 1 .82-.1z" fill="#2a2e33"/><path d="m46 19v5a8.1 8.1 0 0 1 -.06.99 8.007 8.007 0 0 1 -13.6 4.67 7.984 7.984 0 0 1 -2.34-5.66v-7l2-3h12l2 3z" fill="#ffbeaa"/><path d="m40 39.33-2-1.33 4-3v-1l3 1.15v.85l-4 4z" fill="#d8e0e8"/><path d="m38 38-3.001 2-4-4v-3.5l3 .5v2z" fill="#d8e0e8"/><path d="m30.9 6 .03.1a3.975 3.975 0 0 0 -2.92 4.23l.99 8.67a2.006 2.006 0 0 0 -2 2v.47c-3.1 2.54-7.09 3.38-10.48 1.82-5.02-2.31-6.81-8.99-4-14.93s9.14-8.88 14.16-6.57a8.764 8.764 0 0 1 4.22 4.21z" fill="#fdfeff"/><path d="m30.059 24.99-.059.01a3 3 0 0 1 -3-3v-1a2.006 2.006 0 0 1 2-2h1v5a8.1 8.1 0 0 0 .059.99z" fill="#ffbeaa"/><path d="m16.8 44.31-1.8-1.31 6.47-7.9a8.424 8.424 0 0 1 4.53-2.86v18.76l-2.91-2.12z" fill="#6f3ff3"/><path d="m13.139 49.78 3.66-5.47 6.29 4.57-.089.12-4.16 6.37a6.158 6.158 0 0 1 -2.2 1.93 6.069 6.069 0 0 1 -2.85.7 6.178 6.178 0 0 1 -4.63-2.1l-3.16-4.9-.3-.14.879-1.86.11-.2a2.05 2.05 0 0 0 2.7-.89l.36-.7.25.13z" fill="#fbb39f"/><path d="m9.679 42.44.72.49a1.921 1.921 0 0 1 .39 2.27l-1.04 2.01-.36.7a2.05 2.05 0 0 1 -2.7.89 1.14 1.14 0 0 1 -.19-.1l-4.54-2.76a1.932 1.932 0 0 1 -.67-2.68l2.39-2.35a2.189 2.189 0 0 1 1.78-.91 2.105 2.105 0 0 1 .86.18 2 2 0 0 1 .67.44z" fill="#ffcdbe"/><path d="m9.739 37.62.97 2.63-1.03 2.19-2.69-1.82a2 2 0 0 0 -.67-.44l.76-1.6z" fill="#dce1eb"/><path d="m41.518 31.162a7.853 7.853 0 0 1 -3.518.838 7.969 7.969 0 0 1 -4-1.079v4.079l4 3 4-3v-4.08c-.011.006-.02.014-.03.02-.146.083-.301.148-.452.222z" fill="#fbb39f"/><path d="m9.739 37.62.97 2.63-1.03 2.19-2.69-1.82a2 2 0 0 0 -.67-.44l.76-1.6z" fill="#2b8ffc"/><path d="m6.5 48.7a.757.757 0 0 0 .18.09l-.98 2.07-.07.14-3.63-1.67 1.21-2.63z" fill="#2b8ffc"/><path d="m15.57 22.775-7.326 15.385 1.5-.54.427 1.157 7.223-15.169a8.483 8.483 0 0 1 -.87-.318 8.479 8.479 0 0 1 -.954-.515z" fill="#d8e0e8"/><path d="m27.376 52.1-1.376-1.1 2 12h2.584l-1.79-8.591a4 4 0 0 0 -1.418-2.309z" fill="#2cb5ff"/><path d="m51.44 52.88-.44-2.88-1.419 2.837a4 4 0 0 0 -.367 2.446l1.286 7.717h2.5z" fill="#2864f0"/><path d="m10.389 45.91a2.05 2.05 0 0 1 -2.7.89 1.14 1.14 0 0 1 -.19-.1l-4.54-2.76a1.96 1.96 0 0 1 -.931-1.407l-.739.727a1.932 1.932 0 0 0 .67 2.68l4.541 2.76a1.14 1.14 0 0 0 .19.1 2.05 2.05 0 0 0 2.7-.89l.36-.7 1.04-2.01c.029-.058.034-.12.058-.179l-.1.189z" fill="#ffbeaa"/><path d="m38 38-2 1.33v4.67a2 2 0 0 0 2 2 2 2 0 0 0 2-2v-4.67z" fill="#2864f0"/><path d="m48 22.5v-.833a1.862 1.862 0 0 0 -2-1.667v4c0 .124-.017.247-.023.373a2.088 2.088 0 0 0 2.023-1.873z" fill="#f29b87"/><path d="m30 20a1.862 1.862 0 0 0 -2 1.667v.833a2.088 2.088 0 0 0 2.023 1.873c-.007-.126-.023-.249-.023-.373z" fill="#f29b87"/><path d="m30.929 8.1a3.177 3.177 0 0 1 .82-.1h12.491a3.814 3.814 0 0 1 3.66 3.147l.094-.817a3.912 3.912 0 0 0 -3.754-4.33h-12.491a3.177 3.177 0 0 0 -.82.1 3.975 3.975 0 0 0 -2.92 4.23l.091.8a3.884 3.884 0 0 1 2.829-3.03z" fill="#333940"/><path d="m45 12h-14.001l-2.578 1.934.578 5.066h1v-2l2-3h12.001l2 3v2h1l.578-5.066z" fill="#23272b"/><path d="m30.9 6 .03.1a3.975 3.975 0 0 0 -2.92 4.23l.99 8.67a2.006 2.006 0 0 0 -2 2v.47c-3.1 2.54-7.09 3.38-10.48 1.82-5.02-2.31-6.81-8.99-4-14.93s9.14-8.88 14.16-6.57a8.764 8.764 0 0 1 4.22 4.21z" fill="#fdfeff"/><path d="m25.838 3.6c-4.014-1.847-9.18.669-11.514 5.611a10.759 10.759 0 0 0 -.578 8.188 6.937 6.937 0 0 0 3.6 4.07c3.915 1.8 8.92-.556 11.33-5.26l-.672-5.881a4.122 4.122 0 0 1 1.196-3.253 6.8 6.8 0 0 0 -3.362-3.475z" fill="none"/><path d="m29 19-.318-2.789c-2.41 4.7-7.415 7.06-11.33 5.26a6.937 6.937 0 0 1 -3.6-4.07 10.759 10.759 0 0 1 .578-8.188c2.334-4.942 7.5-7.458 11.514-5.611a6.8 6.8 0 0 1 3.356 3.473 3.661 3.661 0 0 1 1.729-.975h.014a8.812 8.812 0 0 0 -4.269-4.311c-5.013-2.307-11.352.636-14.158 6.573s-1.015 12.621 4 14.929c3.389 1.557 7.384.709 10.484-1.835v-.456a2.006 2.006 0 0 1 2-2z" fill="#2b8ffc"/><path d="m27.1 15.048.725-1.56.576.267-.133-1.164-.022-.011.017-.036-.218-1.906-.706 1.521-1.56-.724.721-1.561 1.537.714-.03-.258a4.269 4.269 0 0 1 .025-.848l-1.111-.515.725-1.561.955.444a4 4 0 0 1 .593-.775c-.01-.021-.018-.044-.028-.066l-1.1-.51.354-.764a6.709 6.709 0 0 0 -.69-.8.5.5 0 0 0 -.112.153l-.459.988-1.559-.723.7-1.507c-.152-.085-.3-.17-.463-.243s-.3-.119-.455-.176a.459.459 0 0 0 -.022.069l-.667 1.436-1.561-.725.458-.988a.489.489 0 0 0 .045-.189 7.1 7.1 0 0 0 -1.052-.015l-.358.771-1.142-.53a9 9 0 0 0 -1.982.8l-.49 1.055-.688-.319c-.281.205-.552.432-.817.669a.493.493 0 0 0 .169.133l.915.425-.725 1.56-1.641-.762q-.309.387-.592.808a.438.438 0 0 0 .074.054l1.738.807-.725 1.561-1.944-.9h-.012c-.013.026-.027.05-.04.076-.131.278-.244.561-.352.844l1.928.895-.725 1.56-1.6-.743a.5.5 0 0 0 -.108-.026q-.11.5-.176 1l1.462.679-.725 1.561-.566-.263a.484.484 0 0 0 -.25-.038 9.88 9.88 0 0 0 .119 1.08l.277.129-.181.389a8.869 8.869 0 0 0 .319 1.124c.012.032.026.061.038.092a.491.491 0 0 0 .3-.261l.43-.923 1.56.724-.7 1.5-.88-.408a.481.481 0 0 0 -.437.019 7.437 7.437 0 0 0 .724 1.216l.172.08-.04.086a6.662 6.662 0 0 0 .7.776.522.522 0 0 0 .106-.142l.138-.3.073.034 1.489.691-.344.741c.09.047.177.1.27.142a6.6 6.6 0 0 0 .65.251l.331-.712 1.561.724-.056.121a.5.5 0 0 0 -.044.207 7.518 7.518 0 0 0 2.213-.224.493.493 0 0 0 -.27-.351l-.515-.239.7-1.5 1.562.725-.258.556a.492.492 0 0 0 0 .406 9.792 9.792 0 0 0 2.045-1.148.483.483 0 0 0 -.2-.18l-.26-.121.724-1.56 1.2.558c.23-.243.45-.5.663-.767a.474.474 0 0 0 -.1-.077l-1.339-.621.725-1.561 1.719.8c.1-.175.191-.361.284-.543l-.052-.452zm-1.92-8.787 1.56.724-.724 1.561-1.561-.725zm-6.631 7.818.725-1.561 1.561.725-.724 1.557zm1.141 1.632-.726 1.561-1.564-.725.725-1.56zm0-4.1.725-1.56 1.561.724-.725 1.561zm1.146-2.468.725-1.561 1.561.725-.722 1.561zm.9 4.521 1.561.725-.725 1.56-1.56-.724zm.421-.907.725-1.561 1.561.725-.725 1.561zm1.146-2.468.725-1.561 1.561.725-.725 1.56zm-.6-5.174 1.561.724-.716 1.561-1.561-.725zm-2.46-1.147 1.562.726-.724 1.56-1.563-.725zm-1.143 2.469 1.561.724-.725 1.561-1.563-.722zm-1.148 2.463 1.561.724-.725 1.561-1.56-.725zm-1.145 2.468 1.56.724-.725 1.561-1.561-.725zm-1.871 4.032.724-1.56 1.561.724-.721 1.562zm2.91 4.28-1.561-.725.7-1.5 1.561.725zm2.468 1.146-1.561-.726.7-1.5 1.561.725zm1.118-2.409-1.561-.725.726-1.561 1.56.725zm2.468 1.146-1.562-.724.725-1.561 1.562.722zm1.146-2.463-1.56-.724.724-1.561 1.561.725zm1.146-2.468-1.561-.732.725-1.561 1.561.725z" fill="#d8e0e8"/><path d="m9.739 37.62-2.66.96-.76 1.6a2 2 0 0 1 .67.44l1.061.718 1.72-3.633z" fill="#2cb5ff"/><path d="m1.999 49.33 1.859.855 1.137-2.399-1.786-1.086z" fill="#2cb5ff"/><g fill="#faa592"><path d="m16.8 44.31-1.364 2.039 2.818 2.251a2 2 0 0 1 .165 2.976l-3.006 3.006a2 2 0 0 1 -2.828 0l-3.006-3.002a1 1 0 0 1 -.125-1.262l1.494-2.241-.948-.737-.25-.13-.36.7a2.05 2.05 0 0 1 -2.7.89l-.11.2-.88 1.86.3.14 3.16 4.9a6.178 6.178 0 0 0 4.63 2.1 6.069 6.069 0 0 0 2.85-.7 6.158 6.158 0 0 0 2.2-1.93l4.16-6.37.09-.12z"/><path d="m37.3 33.62a7.89 7.89 0 0 0 4.7-.22v-2.48c-.011.006-.02.014-.03.02-.146.083-.3.148-.452.222a7.853 7.853 0 0 1 -3.518.838 7.969 7.969 0 0 1 -4-1.079v4.079l2 1.5v-1.934a1 1 0 0 1 1.3-.946z"/><path d="m57.309 53.615 2.428-.4-.737-2.215-.05-.17-6.71 1.83 3.76 10.34h2l-2.26-6.78a2 2 0 0 1 1.569-2.605z"/></g><path d="m33.059 27.97a7.79 7.79 0 0 1 -.78-1.85 8.36 8.36 0 0 1 -.22-1.13 8.1 8.1 0 0 1 -.059-.99v-5.031a3.075 3.075 0 0 1 3.12-2.969h10.213l-1.333-2h-12l-1.333 2-.667 1v7a8.1 8.1 0 0 0 .06.99 8.36 8.36 0 0 0 .22 1.13 8.3 8.3 0 0 0 2.06 3.54 7.91 7.91 0 0 0 6.66 2.271 8.028 8.028 0 0 1 -4.66-2.271 7.838 7.838 0 0 1 -1.281-1.69z" fill="#fbb39f"/><path d="m45.333 16h-2.068a6.593 6.593 0 0 1 .735 3v5a8.1 8.1 0 0 1 -.06.99 8.054 8.054 0 0 1 -2.78 5.12 7.935 7.935 0 0 1 -4.16 1.821 8.063 8.063 0 0 0 1 .069 7.941 7.941 0 0 0 5.16-1.89 8.054 8.054 0 0 0 2.78-5.12 8.1 8.1 0 0 0 .06-.99v-7z" fill="#ffcdbe"/><path d="m45.421 37.579 7.972 2.847.467-1.866-7.86-3.025v1.465z" fill="#2cb5ff"/><path d="m30 32.333-2-.333a8.357 8.357 0 0 0 -2 .24v1.871l4 .445z" fill="#2cb5ff"/><path d="m43.947 37.053 1.053-1.053v-.85l-3-1.15v1l-1.28.96.28.04z" fill="#ebf5f7"/><path d="m33.999 35v-2l-3-.5v2.167z" fill="#ebf5f7"/><path d="m43.947 37.053 1.474.526.579-.579v-1.465l-1-.385v.85z" fill="#2cb5ff"/><path d="m34.999 40-4-4v-1.333l-1-.111v2.444l5 5 1-.667v-2z" fill="#2864f0"/><path d="m41 40-1-.67v2.003l1 .667 4.421-4.421-1.474-.526z" fill="#2864f0"/><path d="m30.999 34.667v-2.167l-1-.167v2.223z" fill="#2cb5ff"/><path d="m38 38v2l2 1.333v-2.003z" fill="#2357d1"/><path d="m38 38-2.001 1.333v2l2.001-1.333z" fill="#2357d1"/><path d="m53.456 46.481 1.277-4.259-.733-1.222-.6-.6-2.4 9.6.44 2.88.8-.22 2.719-.742-1.25-2.5a4 4 0 0 1 -.253-2.937z" fill="#4f2cad"/><path d="m55.476 39.748-.476-.748-1.14-.44-.46 1.84.6.6.733 1.222 5.032 8.386 2.235-.608z" fill="#9863fc"/><path d="m24 39.552a4 4 0 0 1 -.927 2.561l-3.507 4.207 3.523 2.56 2.911 2.12v-17l-2 2.2z" fill="#4f2cad"/><path d="m24 33.039a8.442 8.442 0 0 0 -2.53 2.061l-6.47 7.9 1.7 1.234 7.3-8.034 2-2.2v-1.76a8.328 8.328 0 0 0 -2 .799z" fill="#9863fc"/><path d="m60.369 34.369-1.369-1.369-1 1 1.14 1.34a2.269 2.269 0 0 0 3.2 0 2.222 2.222 0 0 0 .452-.665 2 2 0 0 1 -2.423-.306z" fill="#2864f0"/><path d="m53.726 29.484-2.726 2.726 7 1.79 1-1z" fill="#cdd6de"/><ellipse cx="42" cy="20" fill="#333940" rx="1" ry="2"/><ellipse cx="33.999" cy="20" fill="#333940" rx="1" ry="2"/><path d="m39 23.857c0 1.657-.448 2.143-1 2.143s-1-.486-1-2.143.447-3.857 1-3.857 1 2.2 1 3.857z" fill="#f29b87"/><circle cx="38" cy="41" fill="#d8e0e8" r="1"/><circle cx="38" cy="44" fill="#d8e0e8" r="1"/><ellipse cx="46.681" cy="40.708" fill="#f6fafd" rx=".825" ry="1.148" transform="matrix(.707 -.707 .707 .707 -15.111 44.955)"/><ellipse cx="57.681" cy="28.708" fill="#f6fafd" rx=".825" ry="1.148" transform="matrix(.707 -.707 .707 .707 -3.397 49.218)"/><ellipse cx="61.427" cy="33.208" fill="#f6fafd" rx=".413" ry=".574" transform="matrix(.707 -.707 .707 .707 -5.483 53.187)"/><path d="m35 27h6s0 2-3 2-3-2-3-2z" fill="#f29b87"/></g></svg>