<svg height="512" viewBox="0 0 64 64" width="512" xmlns="http://www.w3.org/2000/svg"><g id="_14-gymnastics" data-name="14-gymnastics"><path d="m35 1a3.985 3.985 0 0 1 3.99 3.84 9.9 9.9 0 0 0 -7.98 0 3.985 3.985 0 0 1 3.99-3.84z" fill="#a67778"/><path d="m38.99 4.84a9.712 9.712 0 0 1 3.08 2.09 9.969 9.969 0 0 1 2.93 7.07v2.27a2 2 0 0 0 -1-.27h-1c-5 0-11 0-13-5 0 2.21-3 3-3 5h-1a2 2 0 0 0 -1 .27v-2.27a9.974 9.974 0 0 1 6.01-9.16 9.9 9.9 0 0 1 7.98 0z" fill="#ba8687"/><g fill="#fdfeff"><path d="m53.24 51.2-6 7.51-1.55-1.1a8.74 8.74 0 0 1 -2.39-11.72l2.44-4.41.26.52 7 9z"/><path d="m22.8 46.48a5 5 0 0 0 2.15 1.84 2.991 2.991 0 0 1 2.05 2.84v8.84l-7.35-6.13a55.459 55.459 0 0 0 1.62-7.85l.73-1.02.15-.04a4.788 4.788 0 0 0 .65 1.52z"/><path d="m21.27 46.02a55.459 55.459 0 0 1 -1.62 7.85l-2.5-2.08z"/><path d="m21.97 32.72-.27.07a2.057 2.057 0 0 0 -1.1.82l-9.6 14.65a7.476 7.476 0 0 0 2.32 9.96l3.71 1.83c-1.21 1.89-2.58 2.95-4.03 2.95-4.97 0-9-12.54-9-28s4.03-28 9-28c4.72 0 8.6 11.32 8.97 25.72z"/></g><path d="m46 18v1a3 3 0 0 1 -3 3h-.25a8.239 8.239 0 0 0 .25-2v-4h1a2 2 0 0 1 2 2z" fill="#fed9d8"/><path d="m27 20a7.832 7.832 0 0 0 .24 1.95l-.24.05a3 3 0 0 1 -3-3v-1a2 2 0 0 1 2-2h1z" fill="#fed9d8"/><path d="m27 60-7.35-6.13-2.5-2.08 4.12-5.77.73-1.02.15-.04a4.676 4.676 0 0 1 -.15-1.19v-.34a4.991 4.991 0 0 1 1.91-3.92l3.09-3.51v-4.65l-5.03 1.37-.27.07a2.057 2.057 0 0 0 -1.1.82l-9.6 14.65a7.476 7.476 0 0 0 2.32 9.96l3.71 1.83 5.97 2.95h6z" fill="#fed9d8"/><path d="m47.72 59.05c1.45 1.24 2.28 2.05 2.28 3.95h-21l-2-3v-8.84a2.991 2.991 0 0 0 -2.05-2.84 5 5 0 0 1 -2.15-1.84 4.788 4.788 0 0 1 -.65-1.52 4.676 4.676 0 0 1 -.15-1.19v-.34a4.991 4.991 0 0 1 1.91-3.92l3.09-3.51v-4.65l5-1.35v2s0 1 3 1 3-1 3-1v-2l5 1.67v4.33l2.74 5.48-2.44 4.41a8.752 8.752 0 0 0 2.39 11.72l1.55 1.1z" fill="#45cdff"/><path d="m53.24 51.2-.24-.2-7-9-.26-.52-2.74-5.48v-4.33l6.34 2.11a1.969 1.969 0 0 1 1.04.8l8.4 12.72a6.526 6.526 0 0 1 -.94 8.65l-7.84 7.05c0-1.9-.83-2.71-2.28-3.95l-.48-.34z" fill="#fed9d8"/><path d="m27 16c0-2 3-2.789 3-5 2 5 8 5 13 5v4a8 8 0 0 1 -8 8 8 8 0 0 1 -8-8z" fill="#fed9d8"/><path d="m37.011 27.735c-.147.038-.294.079-.445.109-.111.023-.225.034-.337.052-.144.022-.286.049-.433.064-.262.026-.527.04-.8.04a7.976 7.976 0 0 1 -2.96-.572l-.036-.008v4.58s0 1 3 1 3-1 3-1v-4.58c-.117.047-.239.083-.358.124s-.212.078-.32.111-.207.053-.311.08z" fill="#fecfd5"/><path d="m38.781 4.76a3.97 3.97 0 0 0 -7.562 0 9.785 9.785 0 0 1 7.562 0z" fill="#966c6d"/><path d="m30.983 14.705c2.572 3.288 7.67 3.295 12.017 3.295v-2c-4.255 0-9.225-.012-11.847-3.093.009-.01.02-.02.029-.031a5.96 5.96 0 0 1 -.86-1.2c-.113-.217-.226-.435-.322-.674 0 2.211-3 3-3 5v4a7.954 7.954 0 0 0 9 7.931 8 8 0 0 1 -7-7.933v-4a2.167 2.167 0 0 1 .419-1.244.982.982 0 0 1 1.564-.051z" fill="#fec9d3"/><path d="m45 19.5v-.833a1.862 1.862 0 0 0 -2-1.667v4c0 .124-.017.247-.023.373a2.088 2.088 0 0 0 2.023-1.873z" fill="#ebadb9"/><path d="m27 17a1.862 1.862 0 0 0 -2 1.667v.833a2.088 2.088 0 0 0 2.023 1.873c-.007-.126-.023-.249-.023-.373z" fill="#ebadb9"/><path d="m29.291 9.464a18.256 18.256 0 0 1 -1.174 2.215 2.988 2.988 0 0 1 -2.492 1.321h-.569c-.033.33-.056.662-.056 1v2.27a2 2 0 0 1 1-.27h1c0-2 3-2.79 3-5 2 5 8 5 13 5h1a2 2 0 0 1 1 .27v-2.27c0-.28-.019-.556-.042-.83-1.536-.17-3.745-.17-5.958-.17a10.77 10.77 0 0 1 -8.065-3.776 1 1 0 0 0 -1.644.24z" fill="#a67778"/><path d="m41 20a8 8 0 0 1 -7 7.931 7.954 7.954 0 0 0 9-7.931v-2c-.653 0-1.324 0-2-.013z" fill="#ffe4e3"/><path d="m35.14 29.433a12.987 12.987 0 0 0 2.86-.217v-1.8c-.117.047-.239.083-.358.124s-.212.078-.32.111-.207.053-.311.08c-.147.038-.294.079-.445.109-.111.023-.225.034-.337.052-.144.022-.286.049-.433.064-.262.026-.527.04-.8.04a7.976 7.976 0 0 1 -2.96-.572l-.036-.004v4.58s0 .48 1 .775v-1.35a2.012 2.012 0 0 1 2.14-1.992z" fill="#f9bbc6"/><path d="m51.041 57.612 3.759-5.012a1 1 0 0 0 -.8-1.6h-1l.24.2-6 7.51.48.34c1.45 1.24 2.28 2.05 2.28 3.95l2.106-1.894-.879-.879a2 2 0 0 1 -.186-2.615z" fill="#f9bbc6"/><path d="m47.72 59.05-.48-.34-1.55-1.1a8.73 8.73 0 0 1 -2.71-3.12 9.3 9.3 0 0 1 -.98-4.02 8.746 8.746 0 0 1 1.3-4.58l2.44-4.41-2.74-5.48-.779 6.229a5.362 5.362 0 0 1 -5.155 4.771h-.066a9.193 9.193 0 0 1 -4.889-1.126 2.433 2.433 0 0 0 -2.485-.086l-.015.008a7.091 7.091 0 0 1 -1.249.313c-4.329.606-6.188-1.863-6.346-2.087a4.6 4.6 0 0 0 .134.938 4.788 4.788 0 0 0 .65 1.52 5 5 0 0 0 2.15 1.84 2.984 2.984 0 0 1 2.033 2.628 3.525 3.525 0 0 1 3.017-1.948c2.083 0 3.689 1.924 7.152 2.766a6.206 6.206 0 0 1 4.091 3.2c1 1.966 2.6 4.316 4.757 5.034a4.225 4.225 0 0 1 2.842 3h1.158c0-1.9-.83-2.71-2.28-3.95z" fill="#2b8ffc"/><path d="m32 30-5 1.35v3.983l5-3.333z" fill="#54dff2"/><path d="m43 36v-4.33l-5-1.67v2l5.143 4.286z" fill="#54dff2"/><path d="m54.964 49.445-8.073-12.109a3 3 0 0 0 -2.497-1.336h-1.394l2.74 5.48.26.52 7 9h1.131a1 1 0 0 0 .833-1.555z" fill="#fec9d3"/><path d="m24.121 36.879-2.161 2.161a6.692 6.692 0 0 0 -1.96 4.732v.228l-3.6 4.8a1.99 1.99 0 0 0 .759 3l-.009-.008 4.12-5.77.73-1.022.15-.04a4.676 4.676 0 0 1 -.15-1.19v-.34a4.991 4.991 0 0 1 1.91-3.92l3.09-3.51v-4.65l-2 .55v2.862a3 3 0 0 1 -.879 2.117z" fill="#f9bbc6"/><path d="m29 63-2-3-7.35-6.13-2.491-2.07a1.99 1.99 0 0 1 -.759-3l-1.25 1.666a2 2 0 0 0 .334 2.748l7.348 6.012a1 1 0 0 1 -.632 1.774h-3.247l4.047 2z" fill="#fec9d3"/><path d="m38 17c0 1.105.447 2 1 2s1-.895 1-2a3.569 3.569 0 0 0 -.151-1.045c-.557-.023-1.114-.055-1.665-.107a3.5 3.5 0 0 0 -.184 1.152z" fill="#ad726a"/><ellipse cx="30.999" cy="17" fill="#ad726a" rx="1" ry="2"/><path d="m36 20.857c0 1.657-.448 2.143-1 2.143s-1-.486-1-2.143.447-3.857 1-3.857 1 2.2 1 3.857z" fill="#f3afba"/><path d="m16.125 59.6c-.725 1.119-1.842 2.4-3.125 2.4-3.784 0-8-11.089-8-27s4.216-27 8-27c3.542 0 7.59 9.943 7.971 24.747q.029 1.11.029 2.253a79.233 79.233 0 0 1 -.721 10.883 55.271 55.271 0 0 1 -1.479 7.283l.846.7.8.665a.943.943 0 0 0 .121-.249c.007-.018.036-.117.042-.137a56.287 56.287 0 0 0 1.65-7.992 81.3 81.3 0 0 0 .741-11.153c0-.778-.01-1.548-.03-2.306-.341-13.265-3.87-26.694-9.97-26.694-6.495 0-10 14.941-10 29s3.505 29 10 29c1.784 0 3.423-1.147 4.879-3.424.014-.02.033-.053.049-.082l-.9-.444z" fill="#9c4af4"/><ellipse cx="38.684" cy="36.695" fill="#f6fafd" rx="1.642" ry="2.286" transform="matrix(.707 -.707 .707 .707 -14.616 38.12)"/><ellipse cx="39.682" cy="8.708" fill="#f6fafd" rx=".825" ry="1.148" transform="matrix(.707 -.707 .707 .707 5.472 30.621)"/><ellipse cx="41.427" cy="10.208" fill="#f6fafd" rx=".413" ry=".574" transform="matrix(.707 -.707 .707 .707 4.923 32.296)"/><path d="m33 24h4a2 2 0 0 1 -4 0z" fill="#f38d9e"/></g></svg>