<svg id="Flat" enable-background="new 0 0 78 124" height="512" viewBox="0 0 78 124" width="512" xmlns="http://www.w3.org/2000/svg"><g><path d="m64.203 26.75h.023l-.501-2.345-.325-2.195c-1.81-10.35-8.17-22.21-24.4-22.21-16.24 0-22.59 11.87-24.41 22.22l-.359 2.57h-.001c-.071.337-.197.94-.359 1.74l-.009.045c-1.832 9.041-8.754 45.441-7.902 74.705l66.13.11c.873-29.133-6.009-65.369-7.887-74.64z" fill="#524956"/><path d="m14.19 31.7h49.77c-.1 3.4-.38 6.76-.83 9.88-1.02.33-6.44 1.88-11.59 2.19-2.38.13-4.78-.43-6.77-1.75-1.16-.77-2.99-1.53-5.74-1.53h-.06c-2.75 0-4.58.76-5.74 1.53-1.99 1.32-4.39 1.88-6.77 1.75-5.15-.31-10.57-1.86-11.59-2.19-.45-3.12-.73-6.47-.83-9.87z" fill="#fec4b9"/><path d="m77.34 119.51c-1.2-7.08-3.03-13.07-5.25-18.12-1.26-2.89-2.64-5.48-4.12-7.79l-1.59-2.26c-6.36-9.81-13.87-15.55-17.07-17.72-.95-.64-2.1-.89-3.24-.71-.3.05-.59.09-.87.13-5.7.83-9.08.43-10.78.03-.46-.11-.94-.19-1.41-.22-.89-.09-1.78-.06-2.64.13-4.65 1.02-7.09 3.82-8.37 6.5-.28.59-.49 1.2-.64 1.81-5.46 4.03-11.15 10.29-15.4 19.99-2.7 6.11-4.82 13.58-5.96 22.72h33.66 10.38 17.49 16.43.04c-.19-1.54-.41-3.04-.66-4.49z" fill="#5d5560"/><circle cx="49" cy="38" fill="#543927" r="2"/><circle cx="29" cy="38" fill="#543927" r="2"/><path d="m45.18 66.94.02 6.1c-5.7.83-9.08.43-10.78.03-.46-.11-.94-.19-1.41-.22l-.01-5.85z" fill="#fec4b9"/><path d="m78 124h-.04-16.43v-.19l-.17-6.85.02-.06c4.85 1.4 10.17 2.33 15.96 2.61.25 1.45.47 2.95.66 4.49z" fill="#524956"/><path d="m14.23 24.79c.09-.84.21-1.7.36-2.57l.05.01h48.67l.09-.02c.13.76.24 1.5.33 2.24.19 1.6.27 3.13.27 4.55 0 .9-.01 1.8-.04 2.7h-49.77l-.15.01c-.03-.9-.04-1.8-.04-2.71 0-1.32.07-2.74.23-4.21z" fill="#655f68"/><path d="m72.09 101.39c2.22 5.05 4.05 11.04 5.25 18.12-5.79-.28-11.11-1.21-15.96-2.61-6.55-1.88-12.26-4.59-17.17-7.66-4-2.49-7.46-5.22-10.41-7.92-5.31-4.83-8.96-9.55-11.05-12.6-1.5-2.19-1.99-4.9-1.39-7.43.15-.61.36-1.22.64-1.81 1.28-2.68 3.72-5.48 8.37-6.5.86-.19 1.75-.22 2.64-.13.47.03.95.11 1.41.22 1.7.4 5.08.8 10.78-.03.28-.04.57-.08.87-.13 1.14-.18 2.29.07 3.24.71 3.2 2.17 10.71 7.91 17.07 17.72l1.59 2.26c1.48 2.31 2.86 4.9 4.12 7.79z" fill="#655f68"/><g fill="#524956"><path d="m36.869 83.25c.464.31 1.098.167 1.395-.305.286-.455.162-1.06-.284-1.359-4.434-2.965-5.183-5.049-5.221-6.057-.044-1.177.803-1.817.9-1.893l.687-.581c-.438-.101-.891-.177-1.336-.205-.443-.045-.887-.06-1.327-.04-.462.583-.957 1.492-.926 2.737.062 2.442 2.116 5.03 6.112 7.703z"/><path d="m47.56 97.529c-.48-.259-1.061-.211-1.382.23-.33.453-.204 1.06.235 1.408 4.64 3.682 17.352 11.625 30.265 16.843-.71-3.255-.838-3.789-1.572-6.292-5.693-1.042-13.745-4.728-27.546-12.189z"/><path d="m60.558 97.155c-.341.444-.256 1.078.195 1.411 1.791 1.319 7.162 5.177 12.535 8.261l1.092.561c-.592-1.796-1.233-3.487-1.911-5.094-3.574-.289-9.014-4.221-10.531-5.338-.438-.324-1.049-.233-1.38.199z"/><path d="m33.796 89.214c.456.321 1.094.196 1.403-.268.303-.455.161-1.04-.268-1.378-2.896-2.279-4.593-4.546-5.578-6.476-1.281-2.51-1.163-5.503.273-7.928-1.807.672-3.17 1.348-4.244 2.454-.113 2.034-.334 7.441 8.414 13.596z"/><path d="m44.21 109.24-.17.27v14.3.19h-10.38v-.19-22.34l.14-.15c2.95 2.7 6.41 5.43 10.41 7.92z"/></g><path d="m63.13 41.566c-.85 6.13-2.31 11.38-4.13 14.42-2.29 3.81-7.49 8.79-13.82 10.94-1.97.67-4.05 1.06-6.18 1.06-2.07 0-4.09-.37-6-1-6.42-2.11-11.69-7.15-14-11-1.82-3.04-3.28-8.29-4.13-14.42 1.02.33 6.44 1.88 11.59 2.19 2.38.13 4.78-.43 6.77-1.75 1.16-.77 2.99-1.53 5.74-1.53h.06c2.75 0 4.58.76 5.74 1.53 1.99 1.32 4.39 1.88 6.77 1.75 5.15-.31 10.57-1.86 11.59-2.19z" fill="#655f68"/><path d="m45.2 71.225-.02-4.285c-1.97.67-4.05 1.06-6.18 1.06-2.07 0-4.09-.37-6-1l.01 2.672s3.65 2.2 12.19 1.553z" fill="#f7b6ad"/><path d="m16.846 105.831c-.554-.036-1.016.41-1.037.962l-.651 17.207h8.403c-4.462-1.976-5.403-9.12-5.753-17.133.021-.552-.41-1.015-.962-1.036z" fill="#524956"/></g></svg>