<svg id="Flat" enable-background="new 0 0 81.86 123.155" height="512" viewBox="0 0 81.86 123.155" width="512" xmlns="http://www.w3.org/2000/svg"><g><path d="m55.351 78.286c-1.22-.74-2.411-1.371-3.551-1.911h-.02c.06-1.24-.7-1.73-.7-1.73l-3.94-2.99-.01.01-5.825 6.666-.693-.001-5.712-6.475-.18-.2-3.94 2.99s-.691.436-.703 1.551l-3.106 1.816c-.326.191-.644.404-.949.627l-1.376.862c-.259.162-.508.338-.748.527l-2.82 2.224c-.312.228-.612.466-.899.724-2.096 1.884-4.184 4.131-6.159 6.798-5.49 7.38-10.17 18.03-12.09 33.38h13.79 50.38 13.83c-1.92-15.38-6.62-26.04-12.13-33.42v-.01c-2.1-2.82-4.311-5.171-6.541-7.111z" fill="#c3ddda"/><path d="m69.81 42.125.11-.02c7.33-2.28 11.88-5.43 11.94-8.89 0-.02 0-.05 0-.07v-5.88c0-3.76-6.01-7.12-15.39-9.29-7-1.64-15.88-2.61-25.54-2.61s-18.54.97-25.54 2.6c-9.38 2.18-15.39 5.53-15.39 9.3v5.88c0 3.51 4.61 6.69 12.04 8.99z" fill="#6fceae"/><path d="m19.13 51.115c-2.7.32-5.51-1.6-6.68-4.78-.52-1.42-.64-2.88-.41-4.2.36-2.12 1.59-3.89 3.45-4.63.29-.12.59-.2.89-.25h.01z" fill="#f7b6ad"/><path d="m65.47 37.315c.01-.02.01-.04.01-.06.3.05.6.13.89.25 1.86.74 3.09 2.51 3.44 4.62.24 1.33.12 2.79-.4 4.21-1.17 3.18-3.98 5.1-6.68 4.78z" fill="#f7b6ad"/><path d="m67.8 89.725v.01l-1.7 33.36v.06h-50.38v-.06l-1.7-33.32c2.11-2.85 4.35-5.22 6.59-7.18l.82 33.24h38.96l.81-33.15.06-.07c2.23 1.94 4.44 4.29 6.54 7.11z" fill="#4aaf8f"/><path d="m66.47 17.965v.01c-7-1.64-15.88-2.61-25.54-2.61s-18.54.97-25.54 2.6l4.02-12.23c.84-2.57 3.05-4.44 5.71-4.82 3.28-.48 8.43-.97 15.58-.91h.46c7.15-.06 12.3.43 15.58.91 2.66.38 4.87 2.25 5.71 4.82z" fill="#53b79a"/><path d="m61.26 82.615-.06.07-.81 33.15h-38.96l-.82-33.24c1.98-1.73 3.96-3.14 5.87-4.29l.03.05.77 31.48h27.25l.78-31.48.04-.07c1.92 1.16 3.92 2.58 5.91 4.33z" fill="#d6eae8"/><path d="m51.63 77.255c.09-.33.14-.62.15-.88h.02c1.14.54 2.33 1.17 3.55 1.91l-.04.07-.78 31.48h-27.25l-.77-31.48-.03-.05c1.24-.75 2.45-1.39 3.6-1.94 0 .26.05.56.15.89z" fill="#6fceae"/><path d="m47.13 71.665.01-.01 3.94 2.99s.76.49.7 1.73c-.01.26-.06.55-.15.88-.55 1.9-2.35 7.8-2.35 7.8l-2.08-1.58-6.24-4.75z" fill="#c3ddda"/><path d="m40.96 78.725 6.24 4.75-.05.07c0 3.44-2.78 6.23-6.22 6.23s-6.22-2.79-6.22-6.23l-.05-.06z" fill="#acccc6"/><path d="m47.11 66.095.02 5.57-6.17 7.06-6.06-6.87.04-.04-.01-5.66z" fill="#fec4b9"/><path d="m34.9 71.855 6.06 6.87-6.3 4.76-2.08 1.57s-1.8-5.9-2.35-7.8c-.1-.33-.15-.63-.15-.89-.06-1.24.7-1.72.7-1.72l3.94-2.99z" fill="#c3ddda"/><path d="m65.4 37.305.07.01c.01-.02.01-.04.01-.06.29-2.94.45-6.02.45-9.1.156-.894.312-1.414.106-1.468-21.638-5.723-50.936.404-50.936.404 0 3.08.054 5.884 1.28 10.164h.01l.05-.01z" fill="#472d1c"/><path d="m15.71 123.146-1.427-26.991c-.028-.552.396-1.021.948-1.05.542-.026 1.021.396 1.051 1.028l1.874 12.414c.166 1.099.41 2.186.74 3.248 1.895 6.105 4.368 7.709 7.585 11.36z" fill="#3fa07f"/><path d="m58.611 123.155c2.123-2.751 3.527-5.987 4.085-9.417l2.803-17.2c.027-.552.507-.979 1.049-.948.552.028.976.498.948 1.05l-1.356 26.515z" fill="#3fa07f"/><path d="m65.93 28.155c-12.31-3.04-23.71-3.33-32.51-2.73-2.22.14-4.28.35-6.14.58-7.07.89-11.35 2.15-11.35 2.15 0 3.08.16 6.16.45 9.1-.3.05-.6.13-.89.25-1.86.74-3.09 2.51-3.45 4.63-7.43-2.3-12.04-5.48-12.04-8.99 0-7.01 18.33-12.69 40.93-12.69s40.93 5.68 40.93 12.69v.07c-.06 3.46-4.61 6.61-11.94 8.89l-.11.02c-.35-2.11-1.58-3.88-3.44-4.62-.29-.12-.59-.2-.89-.25.29-2.94.45-6.02.45-9.1z" fill="#4aaf8f"/><path d="m65.4 37.305.07.01c-.52 5.28-1.48 10.13-2.74 13.8h-.01c-.54 1.59-1.14 2.96-1.79 4.04-2.29 3.81-7.49 8.79-13.82 10.94-1.97.67-4.05 1.06-6.18 1.06-2.07 0-4.09-.37-6-1-6.42-2.11-11.69-7.15-14-11-.65-1.08-1.25-2.45-1.79-4.04h-.01c-1.27-3.68-2.23-8.56-2.74-13.86l.05-.01c5.62-2.69 10.85-11.18 10.85-11.18l-.01-.06c1.86-.23 3.92-.44 6.14-.58v.01s4.6 7.15 11.49 7.78l-.38-3.57s10.27 1.28 20.87 7.66z" fill="#fec4b9"/><circle cx="50.93" cy="37.155" fill="#543927" r="2"/><circle cx="30.93" cy="37.155" fill="#543927" r="2"/><path d="m27.651 32.975c-.314 0-.624-.147-.819-.425-.318-.452-.209-1.075.243-1.394 2.501-1.757 5.801-1.2 5.939-1.177.544.096.907.614.811 1.158-.096.543-.61.902-1.156.812-.045-.008-2.639-.427-4.443.844-.175.124-.376.182-.575.182z" fill="#472d1c"/><path d="m40.93 41.865c-1.078 0-2.179-.157-3.273-.468-.531-.15-.84-.703-.689-1.234.15-.531.705-.841 1.235-.689 1.833.52 3.621.52 5.454 0 .531-.151 1.085.158 1.235.689.151.531-.158 1.084-.689 1.234-1.094.311-2.195.468-3.273.468z" fill="#ea8d81"/><path d="m47.13 70.38-.02-4.285c-1.97.67-4.05 1.06-6.18 1.06-2.07 0-4.09-.37-6-1l.01 2.672s3.65 2.2 12.19 1.553z" fill="#f7b6ad"/></g></svg>