<svg id="Flat" enable-background="new 0 0 85.7 123.998" height="512" viewBox="0 0 85.7 123.998" width="512" xmlns="http://www.w3.org/2000/svg"><g><path d="m22.15 83.748c-7.93 7.08-15.7 19.27-18.33 40.25h14.8 48.4 14.8c-2.57-20.6-10.12-32.73-17.9-39.86-2.64-2.42-5.31-4.27-7.82-5.67l-26.55-.01z" fill="#d6eae8"/><path d="m39.25 101.478c.5 4.67.08 10.72-.95 16.29-.59-7.01-7.67-13.45-8.78-18.34v-.01c-.26-1.03-.22-2 .21-2.9.06-.13.14-.27.22-.4.56.08 1.14-.01 1.68-.28l.88-.44c.82-.4 1.37-1.12 1.58-1.95.83-.12 1.54.04 2.16.45.11.07.23.16.33.25.13.13.26.26.4.39.02.02.04.04.06.06 1.15 1.34 1.86 3.7 2.18 6.64.02.08.03.16.03.24z" fill="#472d1c"/><path d="m36.45 83.038c-1.8.26-2.76 4.88-3.07 6.63-.07.41-.1.66-.1.66-.62-.77-1.58-1.18-2.54-1.1-.78.89-1.88 1.51-3.12 1.69-.41.55-.6 1.23-.56 1.91 0 0-7.94-2.16-8.22.47-.29 2.63 5.17 10.99 8.03 11.09 1.63.06 2.34-2.62 2.65-4.96v-.01c-.26-1.03-.22-2 .21-2.9.06-.13.14-.27.22-.4.56.08 1.14-.01 1.68-.28l.88-.44c.82-.4 1.37-1.12 1.58-1.95.83-.12 1.54.04 2.16.45.03 0 .06 0 .09.01 2.54.21 6.35.3 6.62-1.1.39-2.14-4.08-10.13-6.51-9.77z" fill="#5d5560"/><path d="m33.88 91.368c.33.67.39 1.41.21 2.08-.21.83-.76 1.55-1.58 1.95l-.88.44c-.54.27-1.12.36-1.68.28-.97-.11-1.88-.7-2.35-1.63l-.07-.14v-.01l-.17-.34c-.19-.37-.29-.77-.3-1.17-.04-.68.15-1.36.56-1.91 1.24-.18 2.34-.8 3.12-1.69.96-.08 1.92.33 2.54 1.1.14.17.26.36.36.55z" fill="#655f68"/><path d="m62.57 2.988c-6.99-2.25-12.35.6-18.46.04-6.12-.56-8.7-4.95-19-2.04s-9.5 16.64-9.5 16.64l54.51.01s-.55-12.4-7.55-14.65z" fill="#5d5560"/><path d="m18.25 38.048c-11.04-2.32-18.25-6.15-18.25-10.5 0-3.99 6.08-7.56 15.61-9.92 7.4-1.82 16.9-2.92 27.24-2.92 10.36 0 19.85 1.1 27.27 2.93 9.51 2.36 15.58 5.92 15.58 9.91 0 4.35-7.24 8.2-18.31 10.52z" fill="#655f68"/><path d="m68.27 38.348c3.02 1.2 4.38 5.16 3.03 8.83-1.17 3.18-3.99 5.1-6.68 4.78.321-3.654 1.076-8.528 2.76-13.86.3.05.59.13.89.25z" fill="#dfa3a5"/><path d="m68.66 25.468c.52 4.83 0 9.38-1.27 12.6-.01 0-.01 0-.02 0-1.23 2.09-2.99 3.43-5 4.38 1.46-7.76.04-14.2-4.14-19.36 3.56.58 7.06 1.37 10.43 2.38z" fill="#472d1c"/><path d="m48.82 66.998v8.29c2.09.67 4.6 1.67 7.28 3.18-.03.17-.45 2.47-1.41 5.39 0 0 0 0-.01 0-1.78 5.48-5.43 13.14-11.86 13.14-2.26 0-4.17-.94-5.78-2.4-.02-.02-.04-.04-.06-.06-.12-.15-.26-.28-.4-.39-.08-.08-.16-.16-.24-.24 2.54.21 6.35.3 6.62-1.1.39-2.14-4.08-10.13-6.51-9.77-1.8.26-2.76 4.88-3.07 6.63-.53-1-1-2.03-1.41-3.05.05-.27.07-.54.07-.82 0-1.49-.63-2.83-1.64-3.76v-.01c-.81-.74-1.85-1.24-3-1.36.22-.37.39-.78.48-1.22.56-.35 1.12-.68 1.67-.99 2.68-1.5 5.18-2.5 7.27-3.17v-8.29z" fill="#f7b6ad"/><path d="m30.4 82.038v-.01c-.81-.74-1.85-1.24-3-1.36.22-.37.39-.78.48-1.22.07-.31.11-.64.11-.97 0-1.59-.84-2.99-2.11-3.75.96-.8 1.58-2.01 1.58-3.37 0-.9-.16-1.57-.64-2.27 2.4-.33 4.27-2.31 4.43-4.76-2.5-1.6-4.65-3.53-6.28-5.42-2.32.5-4.06 2.58-4.06 5.06 0 1.21.41 2.32 1.11 3.2-1.77 0-3.4 2.23-3.4 4.19 0 1.59.84 2.99 2.1 3.75-.95.8-1.57 2.01-1.57 3.37 0 2.12 1.52 3.91 3.54 4.33-.21.29-.4.61-.54.94-.28.63-.43 1.32-.43 2.05 0 1.71.82 3.22 2.09 4.15v.01c.85.63 1.91 1.01 3.06 1.01.26 0 .51-.02.75-.05 1.24-.18 2.34-.8 3.12-1.69.63-.72 1.08-1.61 1.23-2.61.05-.27.07-.54.07-.82 0-1.49-.63-2.83-1.64-3.76z" fill="#472d1c"/><path d="m27.46 23.178c-4.13 4.8-4.55 11.81-4.19 19.27-2.12-.28-3.78-1.74-4.99-4.39-.01 0-.02 0-.03-.01-1.26-3.19-1.76-7.66-1.27-12.43 3.39-1.03 6.9-1.84 10.48-2.44z" fill="#472d1c"/><path d="m21.02 51.958c-2.7.32-5.51-1.6-6.68-4.78-1.35-3.67.01-7.63 3.04-8.83.29-.12.58-.2.89-.25 1.723 5.321 2.295 10.194 2.75 13.86z" fill="#dfa3a5"/><path d="m59.75 85.488c.32.18 3.32 1.94 2.11 4.52-1.23 2.64-4.31 2-4.52 1.96.16.2 2.07 2.61-.01 4.77-2.17 2.26-5.01.83-5.01.83s1.12 3.32-1.31 4.79c-2.42 1.47-4.53-1.12-4.53-1.12s-.38 3.61-3.63 3.61c-2.74 0-3.44-2.56-3.6-3.37 0-.08-.01-.16-.03-.24-.32-2.94-1.03-5.3-2.18-6.64 1.61 1.46 3.52 2.4 5.78 2.4 6.43 0 10.056-7.585 11.836-13.065.01 0 .034-.075.034-.075.96-2.92 1.38-5.22 1.41-5.39 2.51 1.4 5.18 3.25 7.82 5.67-.98 1.37-2.41 1.74-4.17 1.35z" fill="#ffc05a"/><path d="m36.811 66.724s6.005.281 12.004.02l.006 5.025s-7.762.804-12.007-1.862z" fill="#dfa3a5"/><path d="m67.38 38.098c-.52 5.3-1.49 10.18-2.76 13.86-.55 1.59-1.15 2.96-1.8 4.04-2.31 3.85-7.58 8.89-14 11-1.91.63-3.93 1-6 1s-4.09-.37-6-1c-1.98-.65-3.86-1.58-5.57-2.67-2.5-1.6-4.65-3.53-6.28-5.42-.87-1-1.6-1.99-2.15-2.91-.65-1.08-1.25-2.45-1.8-4.04-1.27-3.68-2.23-8.56-2.75-13.86-.01-.02-.01-.03-.02-.05.01.01.02.01.03.01 1.21 2.65 2.87 4.11 4.99 4.39-.36-7.46.06-14.47 4.19-19.27 10.08-1.71 20.71-1.74 30.77-.09 4.18 5.16 5.6 11.6 4.14 19.36 2.01-.95 3.77-2.29 5-4.38h.02c0 .01-.01.02-.01.03z" fill="#f7b6ad"/><path d="m51.081 28.514c.025-.005 2.641-.432 4.442.841.175.124.377.184.576.184.314 0 .623-.147.818-.423.318-.451.211-1.075-.24-1.394-2.492-1.76-5.8-1.202-5.94-1.178-.543.095-.905.611-.811 1.155.095.543.607.909 1.155.815z" fill="#3f2313"/><path d="m29.551 29.538c.199 0 .401-.06.576-.184 1.802-1.272 4.415-.846 4.442-.841.54.09 1.06-.269 1.156-.812.096-.544-.268-1.063-.812-1.158-.14-.024-3.449-.582-5.94 1.178-.451.318-.558.942-.24 1.394.195.276.504.423.818.423z" fill="#3f2313"/><path d="m46.722 41.755c-.151-.53-.703-.84-1.235-.688-1.777.503-3.638.51-5.457-.001-.535-.149-1.084.16-1.233.692s.161 1.084.692 1.233c1.081.303 2.181.457 3.271.457 1.101 0 2.202-.154 3.273-.458.531-.15.84-.704.689-1.235z" fill="#ea8d81"/><path d="m18.62 106.148c-.552 0-1 .447-1 1-.756 8.037-2.578 14.685-7.842 16.85h9.842v-16.85c0-.552-.448-1-1-1z" fill="#c3ddda"/><path d="m67.02 106.148c-.552 0-1 .447-1 1v16.85h9.544c-6.157-2.313-7.028-9.421-7.544-16.85 0-.552-.448-1-1-1z" fill="#c3ddda"/><path d="m54.991 82.908c-.065-.021-.133-.036-.204-.043-1.169-.143-4.06-.382-5.642.489-1.726.957-3.021 2.733-3.076 2.809-.323.447-.223 1.071.224 1.396.177.128.382.189.585.189.31 0 .615-.143.811-.412.011-.015 1.096-1.495 2.423-2.23.784-.432 2.65-.453 4.24-.277l.304-.852z" fill="#dfa3a5"/><g fill="#543927"><path d="m55.108 37.298c-.368.156-.783.222-1.186.241-.003-.01-.006-.021-.01-.032.245-.171.473-.367.665-.616.336-.438.254-1.066-.184-1.402-.438-.337-1.065-.255-1.402.184-.19.247-.439.344-.705.381-.157-.035-.319-.056-.486-.056-1.24 0-2.246 1.006-2.246 2.246s1.006 2.246 2.246 2.246c.752 0 1.414-.373 1.821-.941.021 0 .041.003.063.003.736 0 1.515-.117 2.211-.416.508-.217.743-.805.526-1.313s-.808-.746-1.313-.525z"/><path d="m33.845 35.997c-.167 0-.329.021-.486.056-.267-.036-.516-.133-.705-.381-.336-.438-.966-.52-1.402-.184-.438.336-.521.964-.184 1.402.191.249.419.445.665.615-.003.008-.005.016-.007.024-.424-.015-.846-.08-1.174-.226-.504-.227-1.096.001-1.321.505-.225.505.001 1.096.505 1.321.648.29 1.431.406 2.186.406.03 0 .058-.004.089-.005.406.578 1.075.957 1.835.957 1.24 0 2.246-1.006 2.246-2.246-.001-1.239-1.007-2.244-2.247-2.244z"/></g></g></svg>