<svg id="Flat" enable-background="new 0 0 88.591 124" height="512" viewBox="0 0 88.591 124" width="512" xmlns="http://www.w3.org/2000/svg"><g><path d="m78.271 51.4c.27-14.9-2.71-34.75-15.02-44.86-4.92-4.05-11.32-6.54-19.6-6.54s-14.69 2.56-19.61 6.68v.01c-12.33 10.31-15.39 30.42-15.39 44.71 0 23.59-8.75 46.16-8.65 72.6h6.19 31.46 6.03 5.97 17.2 1 6.109 7.141 7.49c-.16-23.13-10.55-46.19-10.32-72.6z" fill="#f9b132"/><path d="m49.651 76v8.29c1.21.39 2.56.88 4 1.53-6.63 6.74-13.3 6.74-20 0 1.44-.65 2.79-1.14 4-1.53v-.09-8.2z" fill="#fec4b9"/><path d="m37.627 75.421s6.005.281 12.004.02l.006 5.025s-7.762.804-12.007-1.862z" fill="#f7b6ad"/><path d="m18.561 26.95c.7-3.95 1.58-7.82 2.65-11.61.83-2.94 1.77-5.82 2.83-8.65v-.01c4.92-4.12 11.33-6.68 19.61-6.68s14.68 2.49 19.6 6.54c1.18 3.22 2.24 6.49 3.17 9.82.98 3.48 1.82 7.01 2.51 10.59z" fill="#e58e1a"/><path d="m19.461 96.27c1-1.12 2.02-2.15 3.04-3.08 5.05 6.12 10.09 10.05 15.15 11.78v.01 19.02h-31.46c2.85-12.84 7.84-21.67 13.27-27.73z" fill="#504256"/><path d="m67.851 124h-18.2v-19.03c5.05-1.74 10.1-5.66 15.15-11.78 1.02.94 2.03 1.96 3.04 3.08 5.42 6.06 10.41 14.89 13.26 27.73z" fill="#504256"/><g fill="#ffc05a"><path d="m64.801 100.57c1.15 0 2.08.93 2.08 2.07 0 1.15-.93 2.08-2.08 2.08-1.14 0-2.07-.93-2.07-2.08 0-1.14.93-2.07 2.07-2.07z"/><path d="m55.701 107.23c1.15 0 2.08.93 2.08 2.07 0 1.15-.93 2.08-2.08 2.08-1.14 0-2.07-.93-2.07-2.08 0-1.14.93-2.07 2.07-2.07z"/><path d="m31.531 107.23c1.15 0 2.08.93 2.08 2.07 0 1.15-.93 2.08-2.08 2.08-1.14 0-2.07-.93-2.07-2.08 0-1.14.93-2.07 2.07-2.07z"/><path d="m22.431 100.57c1.15 0 2.08.93 2.08 2.07 0 1.15-.93 2.08-2.08 2.08-1.14 0-2.07-.93-2.07-2.08 0-1.14.93-2.07 2.07-2.07z"/><path d="m43.681 113.09-2.52-13.76c-4.7-.82-9.34-4.2-13.53-10.18 2.1-1.41 4.14-2.5 6.02-3.33 6.7 6.74 13.37 6.74 20 0 1.82.81 3.79 1.85 5.82 3.2-3.98 5.62-8.34 9-12.77 10.1z"/></g><path d="m59.471 89.02c-2.03-1.35-4-2.39-5.82-3.2-1.44-.65-2.79-1.14-4-1.53v-8.29c6.42-2.11 11.69-7.15 14-11 .65-1.08 1.25-2.45 1.8-4.04 2.5.29 5.1-1.33 6.39-4.1.07 12.91-1.31 26.14-4 39.41-1.01-1.12-2.02-2.14-3.04-3.08-1.79-1.64-3.58-3.02-5.33-4.17z" fill="#ef9d26"/><path d="m16.271 48.72c.28-7.45 1.01-14.73 2.29-21.77 15.98-14.06 34.1-14.1 50.37 0 1.47 7.35 2.36 14.91 2.72 22.61z" fill="#ffc05a"/><path d="m71.841 56.85s.01 0 0 .01c-1.29 2.77-3.89 4.39-6.39 4.1.225-3.993.449-9.094 2.75-13.86.31.05.6.13.89.25 1.09.43 1.96 1.21 2.56 2.21.12 2.42.19 4.85.19 7.29z" fill="#f7b6ad"/><path d="m21.851 60.96c-2.11.25-4.31-.88-5.71-2.92-.03-3.13.01-6.24.13-9.32.53-.6 1.18-1.07 1.93-1.37.3-.12.59-.2.89-.25 2.036 5.293 2.58 10.175 2.76 13.86z" fill="#f7b6ad"/><path d="m65.451 60.96c-.55 1.59-1.15 2.96-1.8 4.04-2.31 3.85-7.58 8.89-14 11-1.91.63-3.93 1-6 1s-4.09-.37-6-1c-1.39-.46-2.73-1.05-4-1.75-4.12-2.25-7.48-5.52-9.42-8.35-.21-.31-.4-.61-.58-.9-.65-1.08-1.25-2.45-1.8-4.04-1.27-3.68-2.24-8.56-2.76-13.86h.01s4.94 0 6.32-7.01c1.01-5.17 2.88-15.58 8.23-15.58 5.34 0 5.14 6.13 10.11 6.38 4.98.26 9.6-3.1 13.69.99 4.08 4.09 3.64 8.97 5.8 11.69 2.17 2.73 4.94 3.53 4.94 3.53h.01c-.52 5.3-1.48 10.18-2.75 13.86z" fill="#fec4b9"/><path d="m37.651 84.2v.09c-1.21.39-2.56.88-4 1.53-1.88.83-3.92 1.92-6.02 3.33-1.68 1.12-3.41 2.45-5.13 4.04-1.02.93-2.04 1.96-3.04 3.08-1.96-12.9-3.2-25.75-3.32-38.23 1.4 2.04 3.6 3.17 5.71 2.92.55 1.59 1.15 2.96 1.8 4.04.18.29.37.59.58.9-1.26 1.83-1.98 3.98-1.98 6.27 0 6.69 6.14 12.12 13.7 12.12.58 0 1.14-.03 1.7-.09z" fill="#ef9d26"/><path d="m33.651 74.25c1.27.7 2.61 1.29 4 1.75v8.2c-.56.06-1.12.09-1.7.09-7.56 0-13.7-5.43-13.7-12.12 0-2.29.72-4.44 1.98-6.27 1.94 2.83 5.3 6.1 9.42 8.35z" fill="#543927"/><path d="m46.319 50.068c-1.778.504-3.64.509-5.457-.001-.532-.146-1.084.16-1.233.692s.161 1.084.692 1.233c1.081.303 2.181.457 3.271.457 1.101 0 2.202-.154 3.272-.458.532-.15.84-.703.689-1.234s-.707-.84-1.234-.689z" fill="#ea8d81"/><path d="m51.905 37.515c.024-.003 2.648-.422 4.438.842.176.124.377.184.576.184.313 0 .623-.147.817-.423.319-.451.212-1.075-.239-1.394-2.492-1.761-5.8-1.202-5.94-1.178-.544.096-.907.614-.811 1.158.095.544.613.909 1.159.811z" fill="#472d1c"/><path d="m30.372 38.54c.199 0 .4-.06.576-.184 1.802-1.271 4.416-.846 4.442-.841.543.091 1.061-.269 1.155-.812.097-.544-.267-1.063-.811-1.158-.141-.023-3.449-.582-5.941 1.178-.451.318-.559.942-.239 1.394.195.276.503.423.818.423z" fill="#472d1c"/><path d="m73.959 124c-3.293-1.386-4.183-8.233-5.108-15 0-.553-.447-1-1-1s-1 .447-1 1v15z" fill="#47394f"/><path d="m19.451 108c-.553 0-1 .447-1 1-.946 6.172-.843 13.463-6.151 14.98h8.151v-14.98c0-.553-.448-1-1-1z" fill="#47394f"/><path d="m32.782 73.754c-.02.034-.037.071-.053.108-.75 1.782-1.633 2.545-3.633 3.139-.529.157-.831.714-.674 1.244.13.434.527.715.959.715.094 0 .189-.013.285-.041 2.554-.759 3.895-1.881 4.873-4.203z" fill="#472d1c"/><path d="m20.945 16.304c.087.024.176.036.266.036.263 0 .525-.104.722-.309 3.431-3.579 8.729-5.512 15.752-5.742.552-.018.984-.479.966-1.032-.019-.552-.505-1.013-1.032-.966-6.772.222-12.101 1.96-15.873 5.173z" fill="#d87c0e"/><path d="m65.732 13.984c-2.464-2.606-5.378-4.136-8.686-4.556-.547-.062-1.048.319-1.118.866-.069.548.318 1.049.866 1.118 3.477.441 6.353 2.242 8.794 5.505.048.075.105.144.17.203.191.174.432.26.672.26.089 0 .178-.012.264-.035z" fill="#d87c0e"/><path d="m55.939 46.3c-.367.157-.783.224-1.185.242-.004-.011-.007-.023-.01-.034.245-.171.473-.367.665-.616.337-.438.254-1.065-.184-1.402s-1.065-.254-1.402.184c-.19.247-.441.344-.708.38-.156-.034-.317-.055-.484-.055-1.24 0-2.246 1.006-2.246 2.246s1.006 2.246 2.246 2.246c.752 0 1.413-.373 1.821-.94.022 0 .042.004.064.004.735 0 1.515-.118 2.211-.417.508-.217.743-.805.525-1.313-.218-.509-.809-.746-1.313-.525z" fill="#543927"/><path d="m34.676 44.999c-.166 0-.327.021-.483.055-.266-.037-.517-.133-.708-.38-.337-.437-.963-.521-1.402-.184-.438.337-.521.965-.184 1.402.191.249.419.445.665.615-.003.008-.005.017-.008.025-.423-.016-.846-.08-1.174-.228-.508-.229-1.096.002-1.321.505-.226.504.001 1.096.505 1.321.649.29 1.432.406 2.187.406.03 0 .058-.004.088-.005.406.578 1.075.957 1.835.957 1.24 0 2.246-1.006 2.246-2.246 0-1.238-1.006-2.243-2.246-2.243z" fill="#543927"/></g></svg>