<svg id="Flat" enable-background="new 0 0 80.06 124.045" height="512" viewBox="0 0 80.06 124.045" width="512" xmlns="http://www.w3.org/2000/svg"><g><path d="m76.99 110.155h-.01c-1.94-10.07-11.26-23.46-22.87-27.24-2.54-2.93-6.89-3.17-10.23-.58-.21 1.12-.44 2.21-.71 3.26-1.52 6.1-4.03 11.2-7.57 15.77-5.9-4.68-7.75-10.47-7.72-17.5-1.05.47-2.15 1.01-3.28 1.64 0 0 0 .01-.01.01-9.02 5.06-20.08 15.8-24.59 38.53h.01 13.67 59.51 6.87c0-2.87-1.9-9.51-3.07-13.89z" fill="#f9b132"/><path d="m16.08 59.005c-2.7.32-5.51-1.6-6.68-4.78-1.35-3.67.01-7.63 3.04-8.83.01 0 .01-.01.02-.01.28-.11.58-.19.87-.24 2.254 5.248 3.223 10.128 2.75 13.86z" fill="#dfa3a5"/><path d="m63.56 45.495c2.86 1.31 4.11 5.16 2.8 8.73-1.17 3.18-3.98 5.1-6.68 4.78.09-4.121.665-9.145 2.75-13.86.3.05.6.13.89.25.08.03.16.07.24.1z" fill="#dfa3a5"/><path d="m12.46 45.385c-2.82-4.49-4.6-9.95-4.73-15.63-.4-16.75 13.48-29.46 30.18-29.75 16.68-.3 29.86 11.94 30.25 28.68.15 6.16-1.58 11.97-4.6 16.81z" fill="#3f2313"/><path d="m13.33 45.145c-4.42-11.1.35-38.1 24.55-38.1s28.99 27 24.55 38.1z" fill="#472d1c"/><path d="m61.53 58.935c1.8 0 3.27 2.36 3.27 5.28 0 2.91-1.47 5.27-3.27 5.27-1.81 0-3.28-2.36-3.28-5.27 0-2.92 1.47-5.28 3.28-5.28z" fill="#f9b132"/><path d="m17.53 64.215c0 2.91-1.47 5.27-3.28 5.27s-3.27-2.36-3.27-5.27c0-2.92 1.46-5.28 3.27-5.28 1.02 0 1.93.75 2.53 1.92.07.13.13.27.19.41.35.84.56 1.86.56 2.95z" fill="#f9b132"/><path d="m76.99 110.155c1.17 4.38 3.07 11.02 3.07 13.89h-6.87c1.66-1.84 2.83-4.07 3.69-6.8.62-1.97.63-4.41.1-7.09z" fill="#e7f2f1"/><g fill="#b72e4f"><path d="m40.61 111.745c1.06 0 1.92.86 1.92 1.92 0 1.05-.86 1.91-1.92 1.91s-1.91-.86-1.91-1.91c0-1.06.85-1.92 1.91-1.92z"/><path d="m62.08 92.415c1.06 0 1.92.86 1.92 1.92 0 1.05-.86 1.91-1.92 1.91s-1.91-.86-1.91-1.91c0-1.06.85-1.92 1.91-1.92z"/><path d="m67.73 107.645c1.56.3 2.54 1.99 2.2 3.77-.35 1.78-1.89 2.99-3.45 2.68-.7-.13-2.42-.77-4.08-1.59 1.05 1.53 1.92 3.15 2.15 3.82.52 1.5-.45 3.19-2.17 3.79-1.71.59-3.53-.14-4.04-1.64-.24-.68-.55-2.49-.67-4.34-.79 1.67-1.76 3.24-2.23 3.78-1.03 1.2-2.99 1.2-4.36.01s-1.64-3.12-.6-4.32c.46-.54 1.88-1.72 3.42-2.74-1.84.14-3.69.09-4.39-.04-1.55-.31-2.54-2-2.19-3.78.34-1.78 1.88-2.98 3.44-2.68.7.13 2.43.77 4.09 1.59-1.05-1.53-1.93-3.14-2.16-3.82-.52-1.5.46-3.19 2.17-3.79 1.72-.59 3.53.14 4.05 1.64.23.68.54 2.49.66 4.34.8-1.67 1.76-3.24 2.23-3.78 1.04-1.2 2.99-1.2 4.37-.01 1.37 1.19 1.64 3.12.6 4.32-.47.54-1.89 1.72-3.43 2.74 1.85-.14 3.69-.09 4.39.05z"/></g><path d="m35.6 101.365c-4.35-1.42-9.85-1.75-13.4 0-1.15-5.27-.11-11.05 2.39-15.85.01 0 .01-.01.01-.01 1.13-.63 2.23-1.17 3.28-1.64-.03 7.03 1.82 12.82 7.72 17.5z" fill="#c43b58"/><path d="m13.68 119.145v4.9h-13.67-.01c4.51-22.73 15.57-33.47 24.59-38.53-2.5 4.8-3.54 10.58-2.39 15.85 3.55-1.75 9.05-1.42 13.4 0-5.1 6.58-12.35 12.05-21.92 17.78z" fill="#e7f2f1"/><path d="m31.88 74.045v8.29c-.79.25-1.63.55-2.52.9-.48.19-.98.4-1.48.63-.03 7.03 1.82 12.82 7.72 17.5 3.54-4.57 6.05-9.67 7.57-15.77.27-1.05.5-2.14.71-3.26v-8.29z" fill="#f7b6ad"/><path d="m31.856 73.741s6.005.281 12.004.02l.006 5.025s-7.762.804-12.007-1.862z" fill="#dfa3a5"/><path d="m16.08 59.005c-1.27-3.68-2.23-8.56-2.75-13.86 0 0 3.31-.63 4.94-5.1 1.63-4.46 0-6.34 0-6.34s3.52-2.04 4.78-5.87-1.86-3.58-1.19-5.53c.67-1.96 4.69-5.96 15.96-5.96s15.47 3.74 15.47 5.44c0 1.71-1.97 1.86-.88 5.5 1.1 3.65 5.07 5.82 5.07 5.82s-1.48 2.59 0 6.94c1.49 4.35 4.95 5.1 4.95 5.1-.52 5.3-1.48 10.18-2.75 13.86-.55 1.59-1.15 2.96-1.8 4.04-2.31 3.85-7.58 8.89-14 11-1.91.63-3.93 1-6 1s-4.09-.37-6-1c-6.42-2.11-11.69-7.15-14-11-.32-.53-.62-1.12-.91-1.78-.06-.14-.12-.28-.19-.41-.24-.57-.47-1.19-.7-1.85z" fill="#f7b6ad"/><path d="m46.141 35.561c.027-.005 2.632-.433 4.444.843.175.123.376.182.574.182.314 0 .624-.148.819-.425.317-.452.209-1.075-.243-1.394-2.502-1.76-5.802-1.2-5.939-1.176-.543.096-.904.612-.81 1.155.094.544.612.912 1.155.815z" fill="#472d1c"/><path d="m24.601 36.585c.198 0 .399-.059.574-.182 1.805-1.268 4.395-.852 4.443-.843.55.091 1.062-.269 1.156-.812.097-.544-.267-1.063-.811-1.158-.138-.024-3.438-.584-5.939 1.176-.452.318-.561.941-.243 1.394.196.278.505.425.82.425z" fill="#472d1c"/><path d="m40.548 48.114c-1.778.503-3.64.51-5.457-.001-.53-.146-1.083.16-1.233.692-.149.532.161 1.084.692 1.233 1.081.303 2.181.457 3.271.457 1.101 0 2.202-.154 3.272-.458.532-.15.84-.703.689-1.234-.151-.532-.709-.842-1.234-.689z" fill="#ea8d81"/><path d="m40.729 87.506c-.436 0-.837-.286-.961-.725-.15-.529.158-1.08.689-1.23.68-.192 2.227-.881 2.993-1.281.489-.257 1.093-.068 1.35.418.258.486.069 1.089-.42 1.345-.89.467-2.563 1.206-3.378 1.435-.091.027-.183.038-.273.038z" fill="#ef9d26"/><path d="m35.091 87.526c-.091 0-.182-.012-.273-.038-2.032-.572-4.089-1.751-6.113-3.504-.417-.361-.461-.99-.099-1.406.364-.416.995-.457 1.411-.098 1.8 1.559 3.599 2.599 5.346 3.091.531.149.84.7.689 1.23-.124.439-.526.725-.961.725z" fill="#ef9d26"/><path d="m40.73 86.525c.03.16.04.32.04.49 0 1.58-1.28 2.86-2.86 2.86s-2.86-1.28-2.86-2.86c0-.16.01-.32.04-.47.22-1.36 1.4-2.39 2.82-2.39 1.41 0 2.59 1.02 2.82 2.37z" fill="#f9b132"/><path d="m43.88 82.335c3.34-2.59 7.69-2.35 10.23.58-4.07 22.1-19.66 30.75-40.43 36.23 9.57-5.73 16.82-11.2 21.92-17.78 3.54-4.57 6.05-9.67 7.57-15.77.27-1.05.5-2.14.71-3.26z" fill="#d14b62"/><path d="m12.68 110.085c-.553 0-1 .447-1 1-.795 6.309-2.145 11.61-5.672 12.96h7.672v-12.96c0-.552-.447-1-1-1z" fill="#d6eae8"/><path d="m50.168 44.345c-.367.157-.783.224-1.185.242-.004-.011-.007-.023-.01-.034.245-.171.473-.367.665-.616.337-.438.254-1.065-.184-1.402s-1.065-.254-1.402.184c-.19.248-.442.344-.708.38-.156-.034-.317-.055-.483-.055-1.24 0-2.246 1.006-2.246 2.246s1.006 2.246 2.246 2.246c.752 0 1.413-.373 1.821-.94.022 0 .042.004.064.004.735 0 1.515-.118 2.211-.417.508-.217.743-.805.525-1.313-.219-.509-.81-.745-1.314-.525z" fill="#543927"/><path d="m28.905 43.044c-.166 0-.327.021-.482.055-.267-.036-.518-.132-.709-.38-.336-.437-.964-.52-1.402-.184-.438.337-.521.965-.184 1.402.191.249.419.445.665.615-.003.008-.005.017-.008.025-.423-.015-.846-.08-1.174-.227-.507-.228-1.096.002-1.321.505-.226.504.001 1.096.505 1.321.649.29 1.432.406 2.187.406.03 0 .058-.004.088-.005.406.578 1.075.957 1.835.957 1.24 0 2.246-1.006 2.246-2.246s-1.006-2.244-2.246-2.244z" fill="#543927"/></g></svg>