<svg id="Flat" enable-background="new 0 0 87.94 124" height="512" viewBox="0 0 87.94 124" width="512" xmlns="http://www.w3.org/2000/svg"><g><path d="m22.18 51.96h-.01c-.56.07-1.13.04-1.68-.09-.07-.02-.15-.04-.23-.05-2.02-.52-3.87-2.21-4.77-4.64-1.35-3.67.01-7.63 3.03-8.83.3-.12.6-.2.9-.25 1.101 5.295 2.19 10.161 2.76 13.86z" fill="#dfa3a5"/><path d="m82.97 110.79c5.69-3.09 2.89-6.9 2.89-6.9l-2.21-2.07-15.48-14.53c-16.08 8.43-32.22 8.38-48.4 0l-.05.05-15.3 14.4-2.25 2.12s-1.7 3.05 2.98 6.71l-.18.22-4.97 4.72s1.57 4.26 5.58 4.26h.01c4.01 0 5.08-1.71 5.08-1.71s1 1.98 4.33 1.98 4.77-1.78 4.77-1.78v5.74h48.4v-5.74s1.43 1.78 4.76 1.78 4.33-1.98 4.33-1.98 1.08 1.71 5.09 1.71 5.59-4.26 5.59-4.26z" fill="#c43b58"/><path d="m55.03 77.32c3.76-2.26 6.14-5.65 6.14-9.43 0-2.21-.81-4.29-2.25-6.09h-29.9c-1.44 1.8-2.25 3.88-2.25 6.09 0 3.78 2.38 7.16 6.13 9.42z" fill="#3f2313"/><path d="m49.97 67v8.29c1.5.48 3.22 1.14 5.06 2.03 2.19 1.05 4.56 2.44 6.97 4.27 2.06 1.55 4.14 3.43 6.17 5.7-16.08 8.43-32.22 8.38-48.4 0 1.97-2.21 4-4.06 6.01-5.59 2.46-1.88 4.88-3.31 7.12-4.39 1.85-.89 3.57-1.54 5.07-2.02v-8.29z" fill="#f7b6ad"/><path d="m37.967 66.561s6.005.281 12.004.02l.002 5.053s-7.757.776-12.003-1.89z" fill="#d8959a"/><path d="m22.94 53.95c.18.43.28.91.28 1.4 0 1.98-1.61 3.59-3.59 3.59-1.99 0-3.59-1.61-3.59-3.59s1.6-3.59 3.59-3.59c.22 0 .43.02.63.06.08.02.15.04.23.05 1.11.27 2.01 1.05 2.45 2.08z" fill="#c43b58"/><path d="m68.31 51.77c1.98 0 3.59 1.6 3.59 3.59 0 1.98-1.61 3.59-3.59 3.59-1.99 0-3.59-1.61-3.59-3.59 0-.5.1-.97.28-1.4.45-1.08 1.41-1.88 2.58-2.12.24-.04.48-.07.73-.07z" fill="#c43b58"/><path d="m19.77 118.26v5.74h-14.8c.18-1.45.39-2.86.62-4.23l.529-3.038 13.651.183z" fill="#f7b6ad"/><path d="m68.17 118.26v5.74h14.8c-.18-1.45-.39-2.86-.62-4.23l-.401-2.642z" fill="#f7b6ad"/><path d="m85.86 103.89s2.8 3.81-2.89 6.9c-1.03.55-2.34 1.09-4 1.57-4.76 1.39-8.31 1.11-10.8.36-3.16-.96-4.6-2.66-4.6-2.66s-2.82 5.62-9.6 6.56c-6.79.93-9.97-4.26-9.97-4.26s-2.14 4.26-10.03 4.26-9.61-6.81-9.61-6.81-1.56 2.42-4.59 3.81c-2.47 1.14-5.94 1.6-10.35-.5-1.81-.86-3.2-1.72-4.27-2.55-4.68-3.66-2.98-6.71-2.98-6.71l2.25-2.12c1.11.96 2.64 1.96 4.75 2.96.1.05.21.1.31.14 9.61 4.37 14.88-3.45 14.88-3.45s1.47 6.81 9.37 6.81c7.89 0 10.24-4.14 10.24-4.14s2.97 5.08 9.76 4.14c6.78-.94 9.84-6.81 9.84-6.81s4.36 5.7 15.16 2.56c2.2-.64 3.79-1.37 4.92-2.13z" fill="#524956"/><path d="m19.77 113.62v4.64s-1.44 1.78-4.77 1.78-4.33-1.98-4.33-1.98-1.07 1.71-5.08 1.71h-.01c-4.01 0-5.58-4.26-5.58-4.26l4.97-4.72.18-.22c1.07.83 2.46 1.69 4.27 2.55 4.41 2.1 7.88 1.64 10.35.5z" fill="#ea728c"/><path d="m82.97 110.79 4.97 4.72s-1.58 4.26-5.59 4.26-5.09-1.71-5.09-1.71-1 1.98-4.33 1.98-4.76-1.78-4.76-1.78v-5.54c2.49.75 6.04 1.03 10.8-.36 1.66-.48 2.97-1.02 4-1.57z" fill="#ea728c"/><path d="m69.41 38.35c3.03 1.2 4.39 5.16 3.04 8.83-.91 2.47-2.81 4.17-4.87 4.66-.6.15-1.21.19-1.82.12.188-3.713 1.047-8.597 2.76-13.86.31.05.6.13.89.25z" fill="#dfa3a5"/><path d="m19.33 37.16c-4.36-10.88.44-37.16 24.64-37.16 17.82 0 25.11 14.21 25.97 26.06l-1.33 11.08z" fill="#3f2313"/><path d="m65.15 24.98c-4.38-11.35-11.05-16.46-21.24-11.34-13.17-6.83-20.8 3.67-24.58 23.52.03.32.06.63.09.94.52 5.31 1.48 10.18 2.76 13.86.23.71.49 1.37.76 1.99.33.76.67 1.45 1.03 2.05 1.09 1.81 2.84 3.89 5.05 5.8 2.49 2.15 5.56 4.08 8.95 5.2 1.91.63 3.93 1 6 1s4.09-.37 6-1c3.39-1.12 6.46-3.05 8.95-5.2 2.21-1.91 3.96-3.99 5.05-5.8.36-.6.7-1.28 1.02-2.04.28-.62.53-1.29.77-2 1.28-3.68 2.24-8.56 2.76-13.86.03-.32.06-.64.09-.96-.16-.75-.32-1.48-.49-2.2l-1.94-7.08s-1.03-2.87-1.03-2.88z" fill="#f7b6ad"/><path d="m52.224 28.515c.024-.004 2.65-.42 4.438.842.176.124.377.183.576.183.313 0 .623-.147.817-.423.319-.451.212-1.075-.239-1.394-2.491-1.76-5.8-1.203-5.94-1.178-.543.096-.907.614-.812 1.158s.604.904 1.16.812z" fill="#472d1c"/><path d="m30.691 29.54c.199 0 .4-.06.576-.183 1.802-1.272 4.416-.847 4.442-.842.543.092 1.061-.269 1.155-.812.097-.544-.268-1.063-.811-1.158-.141-.024-3.447-.581-5.941 1.178-.451.319-.559.943-.239 1.394.195.276.503.423.818.423z" fill="#472d1c"/><path d="m47.872 41.756c-.151-.532-.704-.838-1.235-.688-1.775.505-3.638.51-5.456 0-.526-.15-1.084.16-1.233.691-.149.532.16 1.084.692 1.233 1.08.304 2.18.458 3.271.458 1.102 0 2.203-.154 3.273-.458.531-.151.84-.704.688-1.236z" fill="#ea8d81"/><path d="m17.072 119.778c-.544 2.121-1.479 3.667-3.091 4.222h5.789v-5.74s-.838 1.024-2.698 1.518z" fill="#dfa3a5"/><path d="m17.744 114.315c-.084 2.027-.272 3.901-.672 5.463 1.861-.494 2.698-1.518 2.698-1.518v-4.64c-.614.283-1.29.524-2.026.695z" fill="#ba6a7e"/><path d="m71.145 119.836c-2.049-.46-2.975-1.576-2.975-1.576v5.74h5.576c-1.273-.531-2.069-2.069-2.601-4.164z" fill="#dfa3a5"/><path d="m71.145 119.836c-.477-1.878-.74-4.205-.939-6.666-.744-.11-1.423-.265-2.037-.45v5.54c.001 0 .927 1.116 2.976 1.576z" fill="#ba6a7e"/><path d="m38.462 82.41c-1.983-1.121-6.971-.291-7.951-.114-.543.099-.903.619-.805 1.163.098.543.619.904 1.162.806 2.144-.388 5.609-.68 6.608-.114 1.498.85 2.436 2.541 2.443 2.556.182.335.525.524.881.524.16 0 .323-.039.475-.12.486-.263.667-.87.404-1.355-.048-.091-1.209-2.207-3.217-3.346z" fill="#dfa3a5"/><path d="m57.429 82.296c-.981-.178-5.967-1.008-7.952.114-2.007 1.139-3.168 3.255-3.217 3.345-.262.484-.082 1.09.402 1.353.151.083.315.122.477.122.354 0 .697-.188.879-.521.01-.017.947-1.708 2.444-2.558 1.003-.564 4.469-.274 6.609.114.542.1 1.064-.263 1.162-.806.099-.544-.261-1.064-.804-1.163z" fill="#dfa3a5"/><path d="m75.68 29.3c1.08.21 1.77 1.39 1.53 2.62-.24 1.24-1.31 2.07-2.39 1.86-.49-.09-1.69-.53-2.84-1.1.73 1.06 1.34 2.18 1.5 2.65.36 1.04-.32 2.21-1.51 2.63-1.19.41-2.45-.1-2.8-1.14-.06-.16-.12-.41-.18-.74-.12-.6-.23-1.43-.28-2.27-.19.39-.39.78-.59 1.13-.38.69-.75 1.25-.96 1.49-.72.83-2.08.84-3.03.01s-1.14-2.17-.42-3c.33-.37 1.31-1.19 2.38-1.9-1.28.1-2.56.06-3.05-.03-1.08-.21-1.76-1.38-1.52-2.62s1.31-2.07 2.39-1.86c.41.08 1.31.4 2.27.83.18.09.37.18.56.27-.144-.068-.336-.477-.434-.619-.153-.221-.304-.443-.443-.673-.275-.453-.507-.936-.629-1.454-.115-.493-.09-.928.149-1.382.223-.423.584-.765 1.007-.986.119-.062.243-.114.37-.157 1.19-.41 2.44.1 2.8 1.14.12.34.27 1.14.38 2.06.02.23.05.48.06.73.01.07.02.14.02.21.56-1.16 1.22-2.24 1.55-2.62.72-.83 2.08-.83 3.03-.01.95.83 1.14 2.17.42 3-.33.38-1.31 1.19-2.38 1.91 1.28-.109 2.56-.069 3.04.021z" fill="#c43b58"/><g fill="#543927"><path d="m56.258 37.3c-.368.157-.783.224-1.185.242-.004-.011-.007-.022-.01-.033.245-.171.473-.367.664-.616.337-.438.254-1.066-.184-1.402-.438-.337-1.065-.255-1.402.184-.191.247-.441.344-.707.38-.156-.034-.317-.055-.484-.055-1.24 0-2.246 1.006-2.246 2.246s1.006 2.246 2.246 2.246c.752 0 1.413-.373 1.821-.94.021 0 .041.003.063.003.736 0 1.516-.118 2.212-.416.508-.217.743-.805.525-1.313-.218-.51-.809-.742-1.313-.526z"/><path d="m34.995 35.999c-.167 0-.328.021-.484.055-.266-.036-.517-.132-.707-.38-.337-.437-.963-.52-1.402-.184-.438.336-.521.964-.184 1.402.191.249.419.445.665.615-.003.008-.005.016-.008.024-.423-.015-.846-.08-1.174-.227-.508-.227-1.096.001-1.321.505-.226.504.001 1.096.505 1.321.649.29 1.432.406 2.187.406.03 0 .058-.004.088-.005.406.578 1.075.957 1.835.957 1.24 0 2.246-1.006 2.246-2.246 0-1.238-1.006-2.243-2.246-2.243z"/></g></g></svg>