<svg id="Flat" enable-background="new 0 0 77.44 124" height="512" viewBox="0 0 77.44 124" width="512" xmlns="http://www.w3.org/2000/svg"><g><path d="m12.96 52.83-.01.01c.38 3.31 1.45 5.72 3.54 8.01 1.349 0 2.583.182 3.68-.77l1.339-4.857-2.043-3.957z" fill="#d14b62"/><path d="m71.09 102h-.01c-4.77-10.1-11.12-16.42-16.83-20.24 1.82-1.08 4.08-1.91 4.08-1.91l-9.56-1.02-.01-.01h-.04v-.02-4.82c-1.34.33-2.67.6-4 .79-1.33.2-2.65.33-3.97.39-1.35.08-2.7.08-4.06 0-1.32-.06-2.64-.19-3.96-.39-1.34-.18-2.67-.45-4.01-.77v4.81.01h-.04l-.01.01-4.64.49-4.92.53s2.5.5 4.26 1.64l-.01.01c-2.15 1.44-4.41 3.26-6.64 5.51-3.7 3.71-7.33 8.61-10.34 14.99h-.01c-2.82 5.97-5.09 13.22-6.37 22h15.88 45.49 16.07c-1.27-8.81-3.54-16.06-6.35-22z" fill="#c3ddda"/><path d="m77.44 124h-16.07v-6.35l-.01-.01c1.04-.91 1.37-2.51 1.37-2.51.52-2.94-1.51-5.66-4.4-7.67 2.65-3.67 6.9-5.49 12.75-5.46h.01c2.81 5.94 5.08 13.19 6.35 22z" fill="#087d99"/><path d="m71.08 102c-5.85-.03-10.1 1.79-12.75 5.46-6.33-5.43-6.33-11.87-6.33-18.53 1.29-1.42-.5-3.14 0-5.04.19-.72 1.14-1.47 2.25-2.13 5.71 3.82 12.06 10.14 16.83 20.24z" fill="#1498b7"/><path d="m10.06 44.02c-4.45-11.11-6.22-44.02 28.77-44.02 35 0 32.92 32.71 28.48 43.81z" fill="#d14b62"/><path d="m67.31 43.81c.56 1.6.57 3.52-.11 5.37-1.17 3.18-3.98 5.1-6.68 4.78 1.27-3.68 2.23-8.56 2.75-13.86h.01c.3.05.59.13.88.25 1.51.6 2.6 1.87 3.15 3.46z" fill="#f7b6ad"/><path d="m64.72 29.53c.2 4.07-.34 7.81-1.44 10.57h-.01c-5.45-1.48-7.1-8.48-8.26-15.29 3.24 1.21 6.47 2.78 9.71 4.72z" fill="#604533"/><path d="m61.37 117.65v6.35h-45.49v-6.48c.44.44 1.03.76 1.83.76 2.51 0 3-3.15 3-3.15s.67 3.15 3.01 3.15 3-3.15 3-3.15.44 3.15 3 3.15c2.55 0 3-3.15 3-3.15s.44 3.15 3 3.15c1.28 0 2.03-.79 2.46-1.58.43-.78.54-1.57.54-1.57s.53 3.15 3 3.15 3-3.15 3-3.15.53 3.15 3 3.15 3-3.15 3-3.15.32 3.15 3 3.15c2.69 0 3-3.15 3-3.15s.64 3.15 3.01 3.15c.68 0 1.21-.26 1.63-.64z" fill="#53b79a"/><path d="m48.77 78.83 9.56 1.02s-2.26.83-4.08 1.91c-1.11.66-2.06 1.41-2.25 2.13-.5 1.9 1.29 3.62 0 5.04s-3.36-.68-4.87.68c-1.51 1.35.19 3.12-1.75 4.19-1.95 1.06-4.62-.71-4.62-.71h-.01v-12.13c2.67-.24 5.32-.96 7.97-2.16v.02h.04z" fill="#e7f2f1"/><path d="m44.72 69v5.77c-1.33.2-2.65.33-3.97.39-1.35.08-2.7.08-4.06 0-1.32-.06-2.64-.19-3.96-.39l-.01-5.77c1.91.63 3.93 1 6 1s4.09-.37 6-1z" fill="#fec4b9"/><path d="m32.715 68.392s6.005.281 12.004.02l.006 5.025s-7.762.804-12.007-1.862z" fill="#f7b6ad"/><path d="m36.69 80.96v12.13s-3.15 2.11-5.1.51c-1.95-1.61-.15-3.43-1.53-4.65-1.39-1.23-3.96 1.4-5.07-.46-1.1-1.86 1.04-3.32-.23-5.61-.3-.54-.8-1-1.39-1.39-1.76-1.14-4.26-1.64-4.26-1.64l4.92-.53 4.64-.49.01-.01h.04c2.66 1.19 5.32 1.91 7.97 2.14z" fill="#e7f2f1"/><path d="m26.69 69.42c-1.89 4.22-1.13 7.87-2.66 9.9l-4.92.53s2.5.5 4.26 1.64l-.01.01c-2.15 1.44-4.41 3.26-6.64 5.51-2.92 1.23-6.33 2.71-10.01 5.53-.57-10.93.76-27.89 9.78-31.69 1.11-.47 2.33-.74 3.68-.77z" fill="#c43b58"/><path d="m24.99 88.49c.45 6.81.45 13.54-5.88 18.97-3.33-3.97-7.69-5.52-12.73-5.46 3.01-6.38 6.64-11.28 10.34-14.99 2.23-2.25 4.49-4.07 6.64-5.51l.01-.01c.59.39 1.09.85 1.39 1.39 1.27 2.29-.87 3.75.23 5.61z" fill="#1498b7"/><path d="m21.94 25.01c-.28 6.65-2.64 13.61-7.77 15.09-1.11-2.76-1.64-6.5-1.45-10.57 3.07-1.83 6.14-3.34 9.22-4.52z" fill="#604533"/><path d="m16.92 53.96c-1.37.16-2.77-.26-3.96-1.13-1.17-.83-2.14-2.09-2.72-3.65-.65-1.76-.67-3.59-.18-5.15 0-.01 0-.01 0-.01.53-1.68 1.64-3.04 3.21-3.67.3-.12.6-.2.9-.25.52 5.3 1.48 10.18 2.75 13.86z" fill="#f7b6ad"/><path d="m15.88 117.52v6.48h-15.88c1.28-8.78 3.55-16.03 6.37-22h.01c5.04-.06 9.4 1.49 12.73 5.46-2.49 2.09-5.07 4.45-4.4 7.67 0 0 .23 1.46 1.17 2.39z" fill="#087d99"/><path d="m28.96 67.38c-.54.88-1.33 1.6-2.27 2.04-.39.19-.81.32-1.24.41-.33.07-.67.1-1.02.1-1.44 0-2.75-.58-3.73-1.53-.11 0-.399-.439-.467-.527-.153-.197-.292-.404-.417-.62-.259-.45-.452-.937-.569-1.443-.238-1.024-.192-2.093-.096-3.132.043-.468.149-.918.321-1.357.087-.222.19-.439.307-.647.046-.082.3-.594.401-.594z" fill="#d14b62"/><path d="m16.92 53.96c-1.27-3.68-2.23-8.56-2.75-13.86 5.13-1.48 7.49-8.44 7.77-15.09 11.03-4.25 22.05-4.32 33.07-.2 1.16 6.81 2.81 13.81 8.26 15.29-.52 5.3-1.48 10.18-2.75 13.86-.55 1.59-1.15 2.96-1.8 4.04-2.31 3.85-7.58 8.89-14 11-1.91.63-3.93 1-6 1s-4.09-.37-6-1c-1.31-.43-2.57-.98-3.76-1.62-3.67-1.95-6.74-4.72-8.78-7.3h-.01c-.56-.71-1.05-1.42-1.45-2.08-.65-1.08-1.25-2.45-1.8-4.04z" fill="#fec4b9"/><path d="m46.982 30.515c.024-.006 2.63-.432 4.443.843.175.123.375.182.574.182.314 0 .625-.148.819-.425.318-.452.209-1.076-.243-1.393-2.501-1.759-5.8-1.202-5.939-1.177-.543.096-.904.613-.81 1.156.094.544.613.907 1.156.814z" fill="#543927"/><path d="m25.441 31.54c.199 0 .399-.059.574-.182 1.805-1.269 4.396-.851 4.443-.843.545.091 1.061-.269 1.157-.812.096-.544-.267-1.063-.811-1.159-.14-.025-3.438-.582-5.939 1.177-.452.317-.561.941-.243 1.393.195.278.505.426.819.426z" fill="#543927"/><path d="m41.39 43.067c-1.819.511-3.682.506-5.456.001-.531-.151-1.084.157-1.235.688s.157 1.084.688 1.235c1.07.304 2.171.458 3.273.458 1.09 0 2.19-.154 3.271-.458.532-.15.842-.702.692-1.233s-.702-.841-1.233-.691z" fill="#ea8d81"/><path d="m19.99 67.533c-3.783 1.03-5.48 5.873-6.436 9.502-.141.534.178 1.081.712 1.222.085.022.171.033.255.033.443 0 .848-.297.966-.745 1.357-5.15 3.053-7.743 5.333-8.15.268-.029.504-.165.664-.364l-.253-.202c-.399-.319-.76-.683-1.076-1.084z" fill="#b72e4f"/><path d="m13.88 116.766c-.257 3.61-1.379 6.242-3.956 7.234h5.956v-6.48c-.543-.538-.845-1.246-1.006-1.753-.55.003-.994.449-.994.999z" fill="#007989"/><path d="m14.88 115.766c-.002 0-.004.001-.006.001.162.507.463 1.215 1.006 1.753v-.754c0-.553-.448-1-1-1z" fill="#b8d3cf"/><path d="m67.326 124c-2.577-.992-3.699-3.625-3.956-7.234 0-.496-.368-.889-.842-.967-.197.543-.555 1.299-1.158 1.831v6.37z" fill="#007989"/><path d="m62.376 115.767c-.002 0-.004-.001-.006-.001-.552 0-1 .448-1 1v.754.11c.602-.532.96-1.289 1.158-1.831-.052-.009-.098-.032-.152-.032z" fill="#b8d3cf"/><g fill="#543927"><path d="m50.978 39.3c-.367.157-.783.223-1.186.242-.004-.011-.006-.022-.01-.033.245-.171.473-.367.664-.616.336-.438.254-1.065-.184-1.402-.438-.336-1.065-.256-1.402.184-.19.247-.44.343-.707.379-.156-.034-.317-.055-.484-.055-1.24 0-2.246 1.006-2.246 2.246s1.006 2.246 2.246 2.246c.752 0 1.413-.373 1.821-.94.021 0 .041.003.063.003.736 0 1.515-.118 2.211-.416.508-.217.743-.805.526-1.313s-.805-.741-1.312-.525z"/><path d="m29.715 37.999c-.166 0-.327.021-.483.055-.267-.036-.517-.132-.708-.379-.336-.439-.966-.52-1.402-.184-.438.336-.521.964-.184 1.402.191.249.419.445.665.616-.003.008-.005.016-.008.024-.423-.015-.846-.08-1.174-.226-.504-.226-1.096.001-1.321.505s.001 1.096.505 1.321c.649.29 1.431.406 2.186.406.03 0 .058-.004.089-.005.406.578 1.075.957 1.835.957 1.24 0 2.246-1.006 2.246-2.246 0-1.241-1.006-2.246-2.246-2.246z"/></g></g></svg>