<svg id="Flat" enable-background="new 0 0 78 124" height="512" viewBox="0 0 78 124" width="512" xmlns="http://www.w3.org/2000/svg"><g><path d="m33 73.048v-6.048h12v6.058z" fill="#ffd7d2"/><path d="m33 72.48c-1.33-.12-2.66-.28-4-.48v4.82c-10.23 4.56-25.15 16.43-29 47.18h7.234 7.566 1 13.2 20 6.87 6.33 1 5.97 8.83c-1.37-10.99-4.16-19.56-7.64-26.26-1.35-2.59-2.8-4.9-4.32-6.96-4.4-5.98-9.33-9.84-13.76-12.32-1.13-.64-2.23-1.18-3.28-1.65v-4.81c-1.33.21-2.66.37-4 .49l-5.628.51z" fill="#524956"/><path d="m64.45 38.35c3.02 1.2 4.38 5.16 3.03 8.83-1.16 3.16-3.96 5.08-6.64 4.78h-.01c-.01 0-.02-.01-.03 0v-.01c.108-3.879.929-8.784 2.76-13.85.3.05.59.13.89.25z" fill="#fec4b9"/><path d="m60.8 51.96c.01-.01.02 0 .03 0h.01c4.49 1.08 7.82 5.11 7.82 9.93 0 5.64-4.57 10.21-10.21 10.21-4.43 0-8.2-2.82-9.61-6.76z" fill="#472d1c"/><path d="m52.28 78.46c4.43 2.48 9.36 6.34 13.76 12.32-.73 6.13-2.47 11.77-5.09 16.99-2.95 5.91-7.01 11.28-11.95 16.23h-20c5.16-3.2 9.75-7.02 13.47-11.83 1.63.93 3 2.07 6.53 1.46 5.52-.96 5.91-4.95 5.91-4.95-.97-5.22-2.23-10.28-3.65-15.09 1.14-4.8 1.07-9 1.02-15.13z" fill="#d14b62"/><path d="m39 0c-24.2 0-29 27-24.55 38.1h.01 49.09.01c4.44-10.66-.36-38.1-24.56-38.1z" fill="#472d1c"/><path d="m32.976 67s6.005.281 12.004.02l.006 5.025s-7.762.804-12.007-1.862z" fill="#fec4b9"/><path d="m17.2 51.96c-2.7.32-5.51-1.6-6.68-4.78-1.35-3.67.01-7.63 3.04-8.83.29-.12.58-.2.89-.25 2.441 5.053 3.007 9.983 2.75 13.86z" fill="#fec4b9"/><path d="m17.2 51.96c-1.27-3.68-2.23-8.56-2.75-13.86h.01c7.7-6.79 6.68-25.4 24.65-25.4 17.98 0 19.5 22 24.44 25.4h.01c-.52 5.29-1.49 10.17-2.76 13.85v.01c-.55 1.59-1.15 2.96-1.8 4.04-1.83 3.05-5.52 6.84-10.16 9.34-1.22.65-2.5 1.22-3.84 1.66-1.91.63-3.93 1-6 1s-4.09-.37-6-1c-6.42-2.11-11.69-7.15-14-11-.65-1.08-1.25-2.45-1.8-4.04z" fill="#ffd7d2"/><path d="m54.91 108.68s-.39 3.99-5.91 4.95c-3.53.61-4.9-.53-6.53-1.46-.92-.51-1.92-.97-3.44-1-4.22-.08-4.43 3.39-8.77 2.54s-4.53-4.52-4.53-4.52c.73-3.62 1.71-7.11 3.27-10.27.25.06.51.14.77.25 3.83 1.6 1.72 5.94 5.1 6.89 3.39.96 4.34-2.68 8.11-2.8 3.76-.13 4.53 1.27 4.53 1.27-1.93-11.16-4.5-21.82-7.98-31.77 1.389-.016 2.783-.052 4.173-.152 2.58 6.16 5.277 13.252 7.557 20.982 1.42 4.81 2.68 9.87 3.65 15.09z" fill="#c3ddda"/><path d="m37.36 72.73c.72.03 1.438.025 2.17.03 3.48 9.95 6.05 20.61 7.98 31.77 0 0-.77-1.4-4.53-1.27-3.77.12-4.72 3.76-8.11 2.8-3.38-.95-1.27-5.29-5.1-6.89-.26-.11-.52-.19-.77-.25-3.43-.83-5.81 2.55-5.81 2.55 2.94-11.21 6.83-21.15 12.43-28.81.58.04 1.16.06 1.74.07z" fill="#e7f2f1"/><path d="m47.261 28.515c.025-.005 2.641-.432 4.442.842.175.124.377.183.576.183.314 0 .623-.147.818-.423.318-.451.211-1.075-.24-1.394-2.491-1.76-5.801-1.203-5.94-1.178-.543.096-.905.612-.811 1.155.094.544.608.91 1.155.815z" fill="#3f2313"/><path d="m25.731 29.54c.199 0 .401-.06.576-.183 1.802-1.272 4.417-.846 4.442-.842.546.092 1.06-.269 1.156-.812.096-.544-.268-1.063-.812-1.158-.139-.024-3.448-.581-5.94 1.178-.451.319-.558.943-.24 1.394.195.276.504.423.818.423z" fill="#3f2313"/><path d="m69.17 124c-2.868-1.041-4.121-5.146-4.97-10.02 0-.553-.448-1-1-1s-1 .447-1 1v10.02z" fill="#47394f"/><path d="m14.8 107.36c-.552 0-1 .447-1 1-.676 7.605-2.11 14.011-6.566 15.64h8.566v-15.64c0-.552-.448-1-1-1z" fill="#47394f"/><path d="m36.324 72.699c-1.877 6.06-2.086 12.967-.782 21.05.08.491.504.841.986.841.053 0 .107-.004.161-.013.545-.088.916-.602.828-1.146-1.255-7.776-.987-14.642.798-20.404l.1-.272z" fill="#d6eae8"/><path d="m41.667 41.068c-1.774.505-3.639.51-5.456 0-.53-.15-1.083.16-1.233.691-.15.532.16 1.084.691 1.233 1.08.304 2.181.458 3.271.458 1.102 0 2.203-.154 3.273-.458.531-.151.839-.704.688-1.235s-.704-.842-1.234-.689z" fill="#ea8d81"/><path d="m70.36 97.74h-.01c-1.75 5.82-4.14 11.23-7.16 16.24-2.12 3.54-4.56 6.88-7.32 10.02h-6.87c4.94-4.95 9-10.32 11.95-16.23 2.62-5.22 4.36-10.86 5.09-16.99 1.52 2.06 2.97 4.37 4.32 6.96z" fill="#ad1f48"/><g fill="#543927"><path d="m51.288 37.3c-.367.157-.783.224-1.185.242-.004-.011-.007-.022-.01-.033.245-.171.473-.367.664-.616.336-.438.254-1.065-.184-1.402s-1.066-.255-1.402.184c-.19.247-.439.343-.706.38-.156-.034-.318-.056-.485-.056-1.24 0-2.246 1.006-2.246 2.246s1.006 2.246 2.246 2.246c.752 0 1.413-.373 1.821-.94.021 0 .041.003.063.003.736 0 1.515-.118 2.211-.416.508-.217.743-.805.526-1.313-.218-.508-.805-.742-1.313-.525z"/><path d="m30.025 35.999c-.167 0-.328.021-.484.055-.267-.036-.517-.133-.707-.379-.336-.439-.965-.521-1.402-.184-.438.336-.521.964-.184 1.402.191.249.419.445.665.616-.003.008-.005.016-.008.024-.423-.015-.846-.079-1.174-.226-.504-.226-1.096.001-1.321.505s.001 1.096.505 1.321c.649.29 1.431.406 2.186.406.03 0 .058-.004.089-.005.406.578 1.075.957 1.835.957 1.24 0 2.246-1.006 2.246-2.246 0-1.241-1.006-2.246-2.246-2.246z"/></g></g></svg>