<svg id="Flat" enable-background="new 0 0 81.521 124.124" height="512" viewBox="0 0 81.521 124.124" width="512" xmlns="http://www.w3.org/2000/svg"><g><path d="m61.66 89.064c-1.44 3.03-3.63 5.64-6.25 7.76v.01c-3.58 2.91-7.96 4.89-12.29 5.72-1.53.3-3.04.45-4.52.45-1.72 0-3.36-.15-4.91-.45-4.74-.89-8.73-3.07-12.03-6.21v-.01c-2.25-2.14-4.18-4.72-5.79-7.65-.31.32-1.15 1.24-1.47 1.59v.01c-4.77 5.33-9.2 12.8-12.14 23.27-.91 3.23-1.67 6.74-2.26 10.57h.01 9.67 4.72 1 46.4 1 5.242 9.158c-.39-2.53-.85-4.92-1.39-7.18v-.01c-.26-.79-3.36-14.632-3.81-15.172z" fill="#524956"/><path d="m68.79 10.664c-5.19-6.09-17.57-10.47-30.15-10.66-10.43-.16-23.89 4.28-28.39 11.41-4.51 7.12-.62 53.6-.62 53.6.56 8.76 2.6 17.07 6.24 23.67 1.61 2.93 3.54 5.51 5.79 7.65v.01c3.3 3.14 7.29 5.32 12.03 6.21 1.55.3 3.19.45 4.91.45 1.48 0 2.99-.15 4.52-.45 4.33-.83 8.71-2.81 12.29-5.72v-.01c2.62-2.12 4.81-4.73 6.25-7.76.11 1.31.27 2.71.49 4.14 1.16 7.76 3.72 16.6 5.44 17.84 1.67 1.2 5.14 1.5 7.13 3.92.45.54.83 1.18 1.09 1.97 4.1-2.23 5.6-8.44 5.71-16.93.11-8.5-7.54-83.26-12.73-89.34z" fill="#5d5560"/><path d="m68.2 29.884c2.03 14.01-1.35 26.33-7.27 35.04-1.46 2.15-3.07 4.08-4.8 5.76-2.13 2.07-4.43 3.77-6.82 5.03-7.33-.31-12.87-2.03-16.71-5.71 1.91.63 3.93 1 6 1s4.09-.37 6-1c6.42-2.11 11.69-7.15 14-11 3-5 5-16 5-27 0-3.3-1.35-7.75-5.4-9.75-11.93-4.66-13.06-8.65-25.06-8.65-7.16 0-9.06 7.31-14.74 7.72.07-.52.18-1.03.31-1.53 1.05-3.99 3.86-7.51 10.02-11.13 10.03-4.93 36.74 5.81 39.47 21.22z" fill="#524956"/><path d="m58.2 22.254c4.05 2 5.4 6.45 5.4 9.75 0 11-2 22-5 27-2.31 3.85-7.58 8.89-14 11-1.91.63-3.93 1-6 1s-4.09-.37-6-1c-2.1-.69-4.08-1.7-5.87-2.87l-.13.06c-.77-1.75-1.47-3.67-2.11-5.71l.05-.02c4.6 2.8 9.26 4.75 14.09 4.75 14.76 0 20.68-12.7 19.57-35.77 0-3.43-2.91-5.14-6.29-6.59h-.01c-.01 0-.02-.01-.03-.01-10.5-2.07-22.72-.97-33.58 2.03h-.05c-.09-1.6-.07-3.11.16-4.55 5.68-.41 7.58-7.72 14.74-7.72 12 0 13.13 3.99 25.06 8.65z" fill="#5d5560"/><path d="m60.93 64.924c-.79 11.2 2.96 16.26 1.44 22.44-.21.58-.45 1.15-.71 1.7-1.44 3.03-3.63 5.64-6.25 7.76v.01c-3.58 2.91-7.96 4.89-12.29 5.72-1.53.3-3.04.45-4.52.45-1.72 0-3.36-.15-4.91-.45-4.74-.89-8.73-3.07-12.03-6.21v-.01c-2.25-2.14-4.18-4.72-5.79-7.65-3.64-6.6-5.68-14.91-6.24-23.67 6.4 19.07 15.75 31.6 29.09 31.58 9.28 0 15.23-1.22 18.74-10.86 1.14-4.62-.69-8.62-1.33-15.05 1.73-1.68 3.34-3.61 4.8-5.76z" fill="#5d5560"/><path d="m58.2 30.444c1.11 23.07-4.81 35.77-19.57 35.77-4.83 0-9.49-1.95-14.09-4.75l-.05.02c-1.85-5.94-3.17-12.99-4.12-20.39-.72-6.02-1.87-10.95-2.13-15.22h.05c10.86-3 23.08-4.1 33.58-2.03.01 0 .02.01.03.01h.01c3.38 1.45 6.29 3.16 6.29 6.59z" fill="#5d5560"/><path d="m49.31 75.714c2.39-1.26 4.69-2.96 6.82-5.03.64 6.43 2.47 10.43 1.33 15.05-3.51 9.64-9.46 10.86-18.74 10.86-13.34.02-22.69-12.51-29.09-31.58 0 0-3.89-46.48.62-53.6 4.5-7.13 17.96-11.57 28.39-11.41 0 0-15.63 5.21-18.43 9.17-4.49 6.32-1.5 10.62-1.5 10.62-.13.5-.24 1.01-.31 1.53-.23 1.44-.25 2.95-.16 4.55.26 4.27 1.41 9.2 2.13 15.22.95 7.4 2.27 14.45 4.12 20.39.64 2.04 1.34 3.96 2.11 5.71 2.91 6.57 6.8 10.83 12.03 11.1 3.58.16 7.23-.76 10.68-2.58z" fill="#655f68"/><path d="m32.6 70.004c3.84 3.68 9.38 5.4 16.71 5.71-3.45 1.82-7.1 2.74-10.68 2.58-5.23-.27-9.12-4.53-12.03-11.1l.13-.06c1.79 1.17 3.77 2.18 5.87 2.87z" fill="#5d5560"/><path d="m77.2 124.124h-14.4v-5.78c2.21-3.38 7.32-4.16 11.92-3.38.45.54.83 1.18 1.09 1.97v.01c.54 2.26 1 4.65 1.39 7.18z" fill="#504256"/><path d="m58.2 22.254c4.05 2 5.4 6.45 5.4 9.75 0 11-2 22-5 27-2.31 3.85-7.58 8.89-14 11-1.91.63-3.93 1-6 1s-4.09-.37-6-1c-2.1-.69-4.08-1.7-5.87-2.87l-.13.06c-.77-1.75-1.47-3.67-2.11-5.71l.05-.02c4.6 2.8 9.26 4.75 14.09 4.75 14.76 0 20.68-12.7 19.57-35.77 0-3.43-2.91-5.14-6.29-6.59h-.01c-.01 0-.02-.01-.03-.01-10.5-2.07-22.72-.97-33.58 2.03h-.05c-.09-1.6-.07-3.11.16-4.55 5.68-.41 7.58-7.72 14.74-7.72 12 0 13.13 3.99 25.06 8.65z" fill="#504256"/><path d="m60.93 64.924c-.79 11.2 2.96 16.26 1.44 22.44-.21.58-.45 1.15-.71 1.7-1.44 3.03-3.63 5.64-6.25 7.76v.01c-3.58 2.91-7.96 4.89-12.29 5.72-1.53.3-3.04.45-4.52.45-1.72 0-3.36-.15-4.91-.45-4.74-.89-8.73-3.07-12.03-6.21v-.01c-2.25-2.14-4.18-4.72-5.79-7.65-3.64-6.6-5.68-14.91-6.24-23.67 6.4 19.07 15.75 31.6 29.09 31.58 9.28 0 15.23-1.22 18.74-10.86 1.14-4.62-.69-8.62-1.33-15.05 1.73-1.68 3.34-3.61 4.8-5.76z" fill="#655f68"/><path d="m62.15 93.204h-.03l-5.82 25.14h-35.42l-6.48-28.06v-.01c.32-.35 1.16-1.27 1.47-1.59 1.61 2.93 3.54 5.51 5.79 7.65v.01l3.66 14.45h13.31 13.24l3.54-13.96v-.01c2.62-2.12 4.81-4.73 6.25-7.76.11 1.31.27 2.71.49 4.14z" fill="#ffc05a"/><path d="m58.2 30.444c1.11 23.07-4.81 35.77-19.57 35.77-4.83 0-9.49-1.95-14.09-4.75l-.05.02c-1.85-5.94-3.17-12.99-4.12-20.39-.72-6.02-1.87-10.95-2.13-15.22h.05c10.86-3 23.08-4.1 33.58-2.03.01 0 .02.01.03.01h.01c3.38 1.45 6.29 3.16 6.29 6.59z" fill="#ffd7d2"/><path d="m55.41 96.834-3.54 13.96h-13.24l4.49-8.24c4.33-.83 8.71-2.81 12.29-5.72z" fill="#504256"/><path d="m43.12 102.554-4.49 8.24-4.94-8.24c1.55.3 3.19.45 4.91.45 1.48 0 2.99-.15 4.52-.45z" fill="#ffc05a"/><path d="m32.6 70.004c3.84 3.68 9.38 5.4 16.71 5.71-3.45 1.82-7.1 2.74-10.68 2.58-5.23-.27-9.12-4.53-12.03-11.1l.13-.06c1.79 1.17 3.77 2.18 5.87 2.87z" fill="#47394f"/><path d="m33.69 102.554 4.94 8.24h-13.31l-3.66-14.45c3.3 3.14 7.29 5.32 12.03 6.21z" fill="#504256"/><path d="m14.4 118.284v5.84h-14.39-.01c.59-3.83 1.35-7.34 2.26-10.57 5.54-.58 10.39 1.13 12.14 4.73z" fill="#504256"/><path d="m46.827 31.447c.026-.005 2.641-.423 4.441.843.175.123.375.182.574.182.314 0 .625-.148.819-.425.318-.452.209-1.076-.243-1.393-2.501-1.76-5.802-1.202-5.939-1.177-.544.096-.907.615-.811 1.159.097.544.616.904 1.159.811z" fill="#381b0d"/><path d="m25.294 32.472c.199 0 .401-.06.576-.183 1.79-1.266 4.382-.851 4.441-.841.548.089 1.061-.269 1.157-.812.096-.544-.268-1.063-.812-1.158-.14-.024-3.449-.583-5.94 1.178-.451.319-.558.943-.24 1.394.195.275.504.422.818.422z" fill="#381b0d"/><path d="m41.303 43.894c-1.775.504-3.642.509-5.456 0-.532-.149-1.083.16-1.233.691-.15.532.16 1.084.691 1.233 1.079.304 2.179.458 3.271.458 1.103 0 2.204-.154 3.273-.458.531-.151.839-.704.688-1.235s-.702-.84-1.234-.689z" fill="#ea8d81"/><path d="m14.4 109.794c-.553 0-1 .448-1 1-.211 1.866-.447 3.645-.724 5.272.724.633 1.312 1.371 1.724 2.218v5.84h1v-13.33c0-.552-.448-1-1-1z" fill="#504256"/><path d="m12.676 116.066c-.664 3.907-1.572 6.925-2.996 8.058h4.72v-5.84c-.412-.847-1-1.585-1.724-2.218z" fill="#47394f"/><path d="m64.584 116.532c-.32-1.744-.57-3.689-.784-5.738 0-.552-.447-1-1-1s-1 .448-1 1v13.33h1v-5.78c.472-.721 1.082-1.317 1.784-1.812z" fill="#504256"/><path d="m64.584 116.532c-.703.495-1.313 1.091-1.784 1.812v5.78h5.242c-1.719-.892-2.755-3.759-3.458-7.592z" fill="#47394f"/><path d="m68.2 29.884c2.03 14.01-1.35 26.33-7.27 35.04-1.46 2.15-3.07 4.08-4.8 5.76-2.13 2.07-4.43 3.77-6.82 5.03-7.33-.31-12.87-2.03-16.71-5.71 1.91.63 3.93 1 6 1s4.09-.37 6-1c6.42-2.11 11.69-7.15 14-11 3-5 5-16 5-27 0-3.3-1.35-7.75-5.4-9.75-11.93-4.66-13.06-8.65-25.06-8.65-7.16 0-9.06 7.31-14.74 7.72.07-.52.18-1.03.31-1.53 1.05-3.99 3.86-7.51 10.02-11.13 10.03-4.93 36.74 5.81 39.47 21.22z" fill="#524956"/><g fill="#5d5560"><path d="m58.2 22.254c4.05 2 5.4 6.45 5.4 9.75 0 11-2 22-5 27-2.31 3.85-7.58 8.89-14 11-1.91.63-3.93 1-6 1s-4.09-.37-6-1c-2.1-.69-4.08-1.7-5.87-2.87l-.13.06c-.77-1.75-1.47-3.67-2.11-5.71l.05-.02c4.6 2.8 9.26 4.75 14.09 4.75 14.76 0 20.68-12.7 19.57-35.77 0-3.43-2.91-5.14-6.29-6.59h-.01c-.01 0-.02-.01-.03-.01-10.5-2.07-22.72-.97-33.58 2.03h-.05c-.09-1.6-.07-3.11.16-4.55 5.68-.41 7.58-7.72 14.74-7.72 12 0 13.13 3.99 25.06 8.65z"/><path d="m60.93 64.924c-.79 11.2 2.96 16.26 1.44 22.44-.21.58-.45 1.15-.71 1.7-1.44 3.03-3.63 5.64-6.25 7.76v.01c-3.58 2.91-7.96 4.89-12.29 5.72-1.53.3-3.04.45-4.52.45-1.72 0-3.36-.15-4.91-.45-4.74-.89-8.73-3.07-12.03-6.21v-.01c-2.25-2.14-4.18-4.72-5.79-7.65-3.64-6.6-5.68-14.91-6.24-23.67 6.4 19.07 15.75 31.6 29.09 31.58 9.28 0 15.23-1.22 18.74-10.86 1.14-4.62-.69-8.62-1.33-15.05 1.73-1.68 3.34-3.61 4.8-5.76z"/><path d="m58.2 30.444c1.11 23.07-4.81 35.77-19.57 35.77-4.83 0-9.49-1.95-14.09-4.75l-.05.02c-1.85-5.94-3.17-12.99-4.12-20.39-.72-6.02-1.87-10.95-2.13-15.22h.05c10.86-3 23.08-4.1 33.58-2.03.01 0 .02.01.03.01h.01c3.38 1.45 6.29 3.16 6.29 6.59z"/><path d="m32.6 70.004c3.84 3.68 9.38 5.4 16.71 5.71-3.45 1.82-7.1 2.74-10.68 2.58-5.23-.27-9.12-4.53-12.03-11.1l.13-.06c1.79 1.17 3.77 2.18 5.87 2.87z"/></g><path d="m58.2 22.254c4.05 2 5.4 6.45 5.4 9.75 0 11-2 22-5 27-2.31 3.85-7.58 8.89-14 11-1.91.63-3.93 1-6 1s-4.09-.37-6-1c-2.1-.69-4.08-1.7-5.87-2.87l-.13.06c-.77-1.75-1.47-3.67-2.11-5.71l.05-.02c4.6 2.8 9.26 4.75 14.09 4.75 14.76 0 20.68-12.7 19.57-35.77 0-3.43-2.91-5.14-6.29-6.59h-.01c-.01 0-.02-.01-.03-.01-10.5-2.07-22.72-.97-33.58 2.03h-.05c-.09-1.6-.07-3.11.16-4.55 5.68-.41 7.58-7.72 14.74-7.72 12 0 13.13 3.99 25.06 8.65z" fill="#504256"/><path d="m60.93 64.924c-.79 11.2 2.96 16.26 1.44 22.44-.21.58-.45 1.15-.71 1.7-1.44 3.03-3.63 5.64-6.25 7.76v.01c-3.58 2.91-7.96 4.89-12.29 5.72-1.53.3-3.04.45-4.52.45-1.72 0-3.36-.15-4.91-.45-4.74-.89-8.73-3.07-12.03-6.21v-.01c-2.25-2.14-4.18-4.72-5.79-7.65-3.64-6.6-5.68-14.91-6.24-23.67 6.4 19.07 15.75 31.6 29.09 31.58 9.28 0 15.23-1.22 18.74-10.86 1.14-4.62-.69-8.62-1.33-15.05 1.73-1.68 3.34-3.61 4.8-5.76z" fill="#524956"/><path d="m58.2 30.444c1.11 23.07-4.81 35.77-19.57 35.77-4.83 0-9.49-1.95-14.09-4.75l-.05.02c-1.85-5.94-3.17-12.99-4.12-20.39-.72-6.02-1.87-10.95-2.13-15.22h.05c10.86-3 23.08-4.1 33.58-2.03.01 0 .02.01.03.01h.01c3.38 1.45 6.29 3.16 6.29 6.59z" fill="#ffd7d2"/><path d="m32.6 70.004c3.84 3.68 9.38 5.4 16.71 5.71-3.45 1.82-7.1 2.74-10.68 2.58-5.23-.27-9.12-4.53-12.03-11.1l.13-.06c1.79 1.17 3.77 2.18 5.87 2.87z" fill="#47394f"/><path d="m46.827 31.447c.026-.005 2.641-.423 4.441.843.175.123.375.182.574.182.314 0 .625-.148.819-.425.318-.452.209-1.076-.243-1.393-2.501-1.76-5.802-1.202-5.939-1.177-.544.096-.907.615-.811 1.159.097.544.616.904 1.159.811z" fill="#543927"/><path d="m25.294 32.472c.199 0 .401-.06.576-.183 1.79-1.266 4.382-.851 4.441-.841.548.089 1.061-.269 1.157-.812.096-.544-.268-1.063-.812-1.158-.14-.024-3.449-.583-5.94 1.178-.451.319-.558.943-.24 1.394.195.275.504.422.818.422z" fill="#543927"/><path d="m41.303 43.894c-1.775.504-3.642.509-5.456 0-.532-.149-1.083.16-1.233.691-.15.532.16 1.084.691 1.233 1.079.304 2.179.458 3.271.458 1.103 0 2.204-.154 3.273-.458.531-.151.839-.704.688-1.235s-.702-.84-1.234-.689z" fill="#ea8d81"/><path d="m38.63 88.484c-13.878 0-21.695-23.674-22.021-24.682-.17-.525.118-1.089.644-1.259.525-.172 1.089.119 1.259.643.076.233 7.691 23.298 20.119 23.298 9.177 0 12.229-5.874 12.354-6.124.248-.492.847-.692 1.339-.45.493.245.697.841.454 1.335-.145.296-3.675 7.239-14.148 7.239z" fill="#524956"/><path d="m51.628 39.424c-.368.157-.783.224-1.186.242-.004-.011-.006-.022-.01-.033.245-.171.473-.367.665-.616.337-.438.254-1.066-.184-1.402-.438-.337-1.065-.255-1.402.184-.19.247-.439.344-.706.38-.156-.035-.318-.056-.485-.056-1.24 0-2.246 1.006-2.246 2.246s1.005 2.246 2.246 2.246c.752 0 1.413-.373 1.821-.94.021 0 .041.003.063.003.736 0 1.516-.118 2.212-.416.508-.217.743-.805.525-1.313-.217-.507-.81-.741-1.313-.525z" fill="#543927"/><path d="m30.365 38.123c-.167 0-.328.021-.485.056-.266-.036-.516-.133-.706-.38-.336-.438-.963-.52-1.402-.184-.438.336-.521.964-.184 1.402.191.249.419.445.665.615-.003.008-.005.016-.008.024-.423-.015-.846-.08-1.174-.226-.508-.227-1.097.001-1.321.505-.226.504.001 1.096.505 1.321.649.29 1.432.406 2.187.406.03 0 .058-.004.088-.005.406.578 1.075.957 1.835.957 1.24 0 2.246-1.006 2.246-2.246 0-1.239-1.006-2.245-2.246-2.245z" fill="#543927"/></g></svg>