<svg id="Flat" enable-background="new 0 0 76.17 124.12" height="512" viewBox="0 0 76.17 124.12" width="512" xmlns="http://www.w3.org/2000/svg"><g><path d="m61.69 92.63c-2.67-2.86-5.42-5.08-8.07-6.8-.98-.64-1.94-1.2-2.88-1.71-1.43-.76-2.8-1.39-4.08-1.9h-17.15c-1.27.5-2.64 1.13-4.08 1.9-.94.5-1.91 1.07-2.89 1.71v.01c-1.34.86-2.7 1.86-4.07 3-1.34 1.12-2.68 2.38-4 3.8v.01c-6.08 6.54-11.69 16.44-14.47 31.45h14.47 20.65 5.97 20.6 14.48c-2.79-15.01-8.4-24.93-14.48-31.47z" fill="#d6eae8"/><path d="m44.08 73v2.81 5.48c.8.26 1.67.56 2.58.93-5.68 4.1-11.4 4.11-17.15 0 .91-.37 1.77-.67 2.57-.93v-5.48-2.81z" fill="#ffd7d2"/><path d="m32.077 72.521s6.005.281 12.004.02l.002 5.053s-7.757.776-12.003-1.89z" fill="#fec4b9"/><g fill="#ad1f48"><path d="m67.08 50.29v17.19c0 1.28-1.05 2.33-2.33 2.33s-2.33-1.05-2.33-2.33v-9.87z"/><path d="m58.08 62c-.571.951-3.638 4.534-4.46 5.28v5.62c0 1.29 1.05 2.33 2.33 2.33s2.33-1.04 2.33-2.33v-11.25c-.06.12-.13.24-.2.35z"/><path d="m48.74 70.88v4.93c0 1.28-1.05 2.33-2.33 2.33s-2.33-1.05-2.33-2.33v-2.81c.885-.291 3.987-1.728 4.66-2.12z"/><path d="m27.42 70.88v4.93c0 1.28 1.05 2.33 2.33 2.33s2.33-1.05 2.33-2.33v-2.81z"/><path d="m22.54 67.28v5.62c0 1.29-1.05 2.33-2.33 2.33s-2.33-1.04-2.33-2.33v-11.25c.06.12.13.24.2.35z"/><path d="m13.74 57.61v9.87c0 1.28-1.05 2.33-2.33 2.33s-2.33-1.05-2.33-2.33v-17.19z"/></g><path d="m66.85 48.4c4.05-11.25 6.23-28.44 4.66-32.63-1.58-4.18-9.23-15.77-33.43-15.77s-32.28 11.4-34.15 16.24.58 21.34 5.38 32.16z" fill="#d14b62"/><path d="m71.51 15.77c1.57 4.19-.61 21.38-4.66 32.63-.12-.49-.3-.96-.51-1.39l-.01-.01c-.61-1.2-1.56-2.16-2.8-2.65-.3-.12-.6-.2-.9-.25 4.45-11.1-.35-38.1-24.55-38.1s-29 27-24.55 38.1c-.3.05-.6.13-.89.25-1.24.49-2.2 1.45-2.81 2.65l-.01.01c-.21.43-.38.9-.51 1.39-4.8-10.82-7.25-27.32-5.38-32.16s9.95-16.24 34.15-16.24 31.85 11.59 33.43 15.77z" fill="#b72e4f"/><path d="m66.85 48.4c.15.6.23 1.24.23 1.89 0 .94-.17 1.93-.52 2.89-.8 2.17-2.37 3.75-4.14 4.43-.82.33-1.69.45-2.54.35.462-3.681 1.275-8.561 2.75-13.86.3.05.6.13.9.25 1.24.49 2.19 1.45 2.8 2.65l.01.01c.21.43.39.9.51 1.39z" fill="#fec4b9"/><path d="m38.5 17.248c-19.575-.444-24.97 26.852-24.97 26.852 3.99-9.47 11.59-14.78 21.55-17.38.62 1.44.32 3.12-1.89 5.3 6.564-.294 12.264-1.746 16.16-5.629 1.621 7.73 7.623 15.29 13.28 17.709 0 0-1.598-26.342-24.13-26.852z" fill="#3f2313"/><path d="m53.62 85.83c2.65 1.72 5.4 3.94 8.07 6.8v24.9h-20.6v-9.45c10.62-3.08 12.53-22.25 12.53-22.25z" fill="#d14b62"/><path d="m61.69 117.53v6.57h-20.6v-.08-6.49z" fill="#504256"/><path d="m16.28 57.96c-.85.1-1.72-.02-2.54-.35-1.77-.68-3.34-2.26-4.14-4.43-.35-.96-.52-1.95-.52-2.89 0-.65.08-1.29.23-1.89.13-.49.3-.96.51-1.39l.01-.01c.61-1.2 1.57-2.16 2.81-2.65.29-.12.59-.2.89-.25 1.551 4.913 2.352 9.852 2.75 13.86z" fill="#fec4b9"/><path d="m16.28 57.96c-1.27-3.68-2.23-8.56-2.75-13.86 3.99-9.47 11.59-14.78 21.55-17.38.62 1.44.32 3.12-1.89 5.3 7.8-.35 14.39-2.32 18.17-8.08.71.59 1.38 1.22 2.01 1.88-.17 9.02 2.57 15.42 9.26 18.28-.52 5.3-1.48 10.18-2.75 13.86-.49 1.42-1.02 2.67-1.6 3.69-.06.12-.13.24-.2.35-.99 1.65-2.52 3.52-4.46 5.28-1.43 1.3-3.07 2.54-4.88 3.6-1.46.85-3.02 1.58-4.66 2.12-1.91.63-3.93 1-6 1s-4.09-.37-6-1c-1.64-.54-3.2-1.27-4.66-2.12-1.81-1.06-3.45-2.3-4.88-3.6-1.94-1.76-3.47-3.63-4.46-5.28-.07-.11-.14-.23-.2-.35-.58-1.02-1.11-2.27-1.6-3.69z" fill="#ffd7d2"/><path d="m46.66 82.22c1.28.51 2.65 1.14 4.08 1.9-8.43 7.82-16.87 7.8-25.31 0 1.44-.77 2.81-1.4 4.08-1.9 5.75 4.11 11.47 4.1 17.15 0z" fill="#c3ddda"/><path d="m35.12 124.02v.08h-20.65v-6.57h20.65z" fill="#504256"/><path d="m35.12 108.07v9.46h-20.65v-24.88-.01c1.32-1.42 2.66-2.68 4-3.8 1.37-1.14 2.73-2.14 4.07-3 .06.54 2.11 19.2 12.58 22.23z" fill="#d14b62"/><path d="m50.944 83.141c-.543-.112-1.07.234-1.183.775-.025.12-2.593 11.914-11.651 11.914-.005 0-.009.003-.014.003s-.009-.003-.013-.003c-9.053-.027-11.649-11.797-11.674-11.916-.114-.541-.647-.886-1.185-.772-.54.114-.886.643-.772 1.183.028.135 2.949 13.473 13.625 13.505h.003c.005 0 .01-.003.015-.003s.01.003.015.003c10.69 0 13.582-13.372 13.61-13.507.112-.541-.236-1.069-.776-1.182z" fill="#ef9d26"/><path d="m38.11 96.83c1.74.02 3.14 1.43 3.14 3.17 0 1.75-1.42 3.16-3.17 3.16s-3.17-1.41-3.17-3.16 1.42-3.17 3.17-3.17z" fill="#ffc05a"/><path d="m46.416 34.464c.026-.005 2.641-.423 4.441.843.175.123.375.182.574.182.314 0 .625-.148.819-.425.318-.452.209-1.076-.243-1.393-2.501-1.76-5.802-1.202-5.939-1.177-.544.096-.907.615-.811 1.159s.616.904 1.159.811z" fill="#381b0d"/><path d="m24.883 35.489c.199 0 .401-.06.576-.183 1.79-1.266 4.382-.851 4.441-.841.548.089 1.061-.269 1.157-.812.096-.544-.268-1.063-.812-1.158-.14-.024-3.449-.583-5.94 1.178-.451.319-.558.943-.24 1.394.195.275.504.422.818.422z" fill="#381b0d"/><path d="m40.892 46.911c-1.775.504-3.642.509-5.456 0-.532-.149-1.083.16-1.233.691-.15.532.16 1.084.691 1.233 1.079.304 2.179.458 3.271.458 1.103 0 2.204-.154 3.273-.458.531-.151.839-.704.688-1.235s-.702-.84-1.234-.689z" fill="#ea8d81"/><path d="m62.69 102.07c-.552 0-1 .448-1 1v21.05h7.594c-3.751-1.911-5.268-9.869-5.594-21.05 0-.552-.448-1-1-1z" fill="#c3ddda"/><path d="m13.47 102.07c-.552 0-1 .448-1 1-1.177 9.879-2.173 20.329-6.253 21.05h8.253v-21.05c0-.552-.448-1-1-1z" fill="#c3ddda"/><path d="m50.788 43.42c-.367.157-.783.224-1.186.242-.004-.011-.006-.022-.01-.033.245-.171.473-.367.664-.616.336-.438.254-1.065-.184-1.402s-1.065-.255-1.402.184c-.19.247-.439.344-.706.38-.157-.035-.318-.056-.485-.056-1.24 0-2.246 1.006-2.246 2.246s1.006 2.246 2.246 2.246c.752 0 1.413-.373 1.821-.94.021 0 .041.003.063.003.736 0 1.515-.118 2.211-.416.508-.217.743-.805.526-1.313-.216-.507-.805-.742-1.312-.525z" fill="#543927"/><path d="m29.525 42.119c-.167 0-.328.021-.485.056-.267-.036-.516-.133-.706-.38-.336-.439-.966-.521-1.402-.184-.438.336-.521.964-.184 1.402.191.249.419.445.665.616-.003.008-.005.016-.007.024-.423-.015-.846-.079-1.174-.226-.504-.225-1.096.001-1.321.505s.001 1.096.505 1.321c.649.29 1.431.406 2.186.406.03 0 .058-.004.089-.005.406.578 1.075.957 1.835.957 1.24 0 2.246-1.006 2.246-2.246s-1.007-2.246-2.247-2.246z" fill="#543927"/></g></svg>