<svg id="Flat" enable-background="new 0 0 75.88 124" height="512" viewBox="0 0 75.88 124" width="512" xmlns="http://www.w3.org/2000/svg"><g><path d="m13.74 124h-13.74c5.78-29.77 22.79-39.12 31.94-42.03v-8.29h12l-.01 8.29c9.16 2.91 26.16 12.26 31.95 42.03h-13.74v-.02z" fill="#dfa3a5"/><path d="m44.865 104.771c-.21-.512-.795-.753-1.305-.545-2.8 1.151-4.708 2.88-5.727 5.15-1.065-1.967-2.877-3.602-5.451-4.872-.496-.245-1.095-.041-1.339.454-.245.495-.041 1.095.454 1.339 3.604 1.779 5.391 4.218 5.462 7.456v.077c0 .553.447.95 1 .95.422 0 .779-.292.926-.675.019-.047.018-.102.03-.153.016-.074.044-.145.044-.222 0-3.669 1.754-6.173 5.36-7.655.512-.21.756-.794.546-1.304z" fill="#d8959a"/><path d="m55.45 109.95c-1.4.05-2.81.17-4.24.37-4.27.58-8.7 1.79-13.25 3.51-4.52-1.97-8.96-3.33-13.3-3.9-1.32-.18-2.64-.28-3.94-.3-2.36-.05-4.69.17-6.98.69v13.68h6.98 3.94 26.55 4.24 6.69v-.02-13.66c-2.18-.34-4.41-.45-6.69-.37z" fill="#1498b7"/><path d="m55.45 123.98v.02h-4.24v-13.68c1.43-.2 2.84-.32 4.24-.37z" fill="#d14b62"/><path d="m24.66 109.93v14.07h-3.94v-.27-14.1c1.3.02 2.62.12 3.94.3z" fill="#d14b62"/><path d="m37.88 0c-22.43 0-28.91 18.38-28.91 25.02s2.99 9.72 2.99 9.72h51.97s3-2.91 3-9.38-6.62-25.36-29.05-25.36z" fill="#087d99"/><path d="m13.38 44.78c-1.11-2.79-1.64-6.32-1.42-10.04.64-11.11 7.88-23.93 26-23.93 18.13 0 25.36 12.83 25.97 23.93.21 3.72-.33 7.25-1.44 10.04z" fill="#1498b7"/><path d="m63.38 45.03c3.03 1.21 4.39 5.16 3.04 8.83-1.17 3.18-3.98 5.1-6.68 4.78-.14-4.154.564-9.12 2.75-13.86.31.06.6.13.89.25z" fill="#d8959a"/><path d="m16.14 58.64c-2.69.32-5.51-1.6-6.68-4.78-1.35-3.67.01-7.62 3.03-8.83.3-.12.59-.19.89-.25 2.063 4.661 2.689 9.683 2.76 13.86z" fill="#d8959a"/><path d="m31.907 72.976s6.005.281 12.004.02l.002 5.053s-7.757.776-12.003-1.89z" fill="#d8959a"/><path d="m59.74 58.64c-.55 1.59-1.15 2.96-1.8 4.04-2.31 3.85-7.58 8.89-14 11-1.91.63-3.93 1-6 1s-4.09-.37-6-1c-6.42-2.11-11.69-7.15-14-11-.65-1.08-1.25-2.45-1.8-4.04-1.27-3.68-2.24-8.56-2.76-13.86 0 0 5.01-21.84 24.58-21.84 19.58 0 24.53 21.84 24.53 21.84-.52 5.3-1.48 10.18-2.75 13.86z" fill="#dfa3a5"/><path d="m46.194 35.195c.025-.004 2.65-.421 4.438.842.176.124.377.183.576.183.313 0 .623-.147.817-.423.319-.451.212-1.075-.239-1.394-2.491-1.76-5.8-1.203-5.94-1.178-.543.096-.907.614-.812 1.158s.605.907 1.16.812z" fill="#472d1c"/><path d="m24.661 36.22c.199 0 .4-.06.576-.183 1.801-1.272 4.415-.847 4.442-.842.541.091 1.06-.27 1.156-.812.096-.544-.269-1.063-.813-1.158-.139-.024-3.45-.581-5.94 1.178-.451.319-.559.943-.239 1.394.195.276.504.423.818.423z" fill="#472d1c"/><path d="m40.609 47.748c-1.878.527-3.623.522-5.456 0-.532-.153-1.085.157-1.235.688-.151.531.157 1.084.688 1.235 1.094.311 2.194.468 3.273.468 1.067 0 2.168-.157 3.271-.468.532-.149.842-.702.692-1.233s-.705-.841-1.233-.69z" fill="#b72e4f"/><g fill="#d8959a"><path d="m34.771 97.91c-.354 0-.697-.188-.879-.521-.008-.015-.955-1.708-2.444-2.55-1.004-.571-4.469-.276-6.608.113-.54.106-1.064-.261-1.163-.804-.1-.543.26-1.063.803-1.163.98-.181 5.971-1.018 7.956.114 1.992 1.126 3.163 3.24 3.213 3.33.265.484.086 1.092-.398 1.357-.154.085-.318.124-.48.124z"/><path d="m41.109 97.909c-.161 0-.325-.039-.477-.122-.484-.263-.664-.868-.402-1.353.049-.09 1.21-2.207 3.207-3.335 1.995-1.132 6.976-.292 7.953-.113.543.1.902.62.803 1.164-.099.542-.613.908-1.164.803-2.135-.389-5.597-.687-6.606-.113-1.488.841-2.425 2.531-2.435 2.548-.182.333-.524.521-.879.521z"/><path d="m13.735 104.149c-.553 0-1 .447-1 1-.944 9.029-2.556 16.593-6.591 18.851h8.591v-18.851c0-.552-.447-1-1-1z"/><path d="m62.139 104.149c-.553 0-1 .447-1 1v18.834h8.452c-4.209-1.569-5.6-9.598-6.452-18.834 0-.552-.448-1-1-1z"/></g><path d="m50.198 43.3c-.368.157-.783.224-1.186.242-.004-.011-.006-.022-.01-.033.245-.171.473-.367.664-.616.337-.438.254-1.066-.184-1.402-.438-.337-1.065-.255-1.402.184-.19.247-.44.344-.706.38-.157-.035-.318-.056-.485-.056-1.24 0-2.246 1.006-2.246 2.246s1.006 2.246 2.246 2.246c.752 0 1.413-.373 1.821-.94.021 0 .041.003.063.003.736 0 1.516-.118 2.212-.416.508-.217.743-.805.525-1.313-.217-.508-.808-.742-1.312-.525z" fill="#543927"/><path d="m28.935 41.999c-.167 0-.328.021-.485.056-.266-.036-.516-.133-.706-.38-.336-.438-.964-.52-1.402-.184s-.521.964-.184 1.402c.191.249.419.445.665.615-.003.008-.005.016-.008.024-.423-.015-.846-.08-1.174-.226-.507-.226-1.096.001-1.321.505-.226.504.001 1.096.505 1.321.649.29 1.432.406 2.187.406.03 0 .058-.004.088-.005.406.578 1.075.957 1.835.957 1.24 0 2.246-1.006 2.246-2.246s-1.006-2.245-2.246-2.245z" fill="#543927"/></g></svg>