<?xml version="1.0" encoding="iso-8859-1"?>
<!-- Generator: Adobe Illustrator 19.0.0, SVG Export Plug-In . SVG Version: 6.00 Build 0)  -->
<svg version="1.1" id="Capa_1" xmlns="http://www.w3.org/2000/svg" xmlns:xlink="http://www.w3.org/1999/xlink" x="0px" y="0px"
	 viewBox="0 0 512 512" style="enable-background:new 0 0 512 512;" xml:space="preserve">
<g>
	<path style="fill:#7F8C8D;" d="M512,443.092c0-5.647-0.093-11.273-0.279-16.878C505.769,246.604,405.153,89.832,255.999,0
		C106.848,89.832,6.232,246.604,0.28,426.214c-0.186,5.604-0.279,11.23-0.279,16.878l241.915,66.994
		c9.217,2.553,18.954,2.553,28.17,0L512,443.092z"/>
	<g>
		<path style="fill:#95A5A5;" d="M166.312,450.648L36.105,414.72c2.244-39.406,9.542-78.361,21.716-115.906
			c6.176,20.715,18.338,39.142,34.957,52.966C125.367,377.88,150.69,411.928,166.312,450.648L166.312,450.648z"/>
		<path style="fill:#95A5A5;" d="M475.895,414.72l-130.207,35.928c15.622-38.72,40.945-72.768,73.534-98.869
			c16.619-13.823,28.781-32.25,34.957-52.966C466.311,336.37,473.609,375.319,475.895,414.72z"/>
	</g>
	<path style="fill:#ECF0F1;" d="M454.18,298.726v0.088c-6.176,20.715-18.338,39.142-34.957,52.966l-1.589,1.324
		c-6.179,5.208-12.712,11.034-19.244,17.655c-22.927,22.679-40.875,49.888-52.701,79.89l-80.331,22.157
		c-6.125,1.677-12.589,1.677-18.714,0l-80.331-22.157c-11.826-30.002-29.774-57.21-52.701-79.89
		c-6.532-6.621-13.065-12.447-19.244-17.655l-1.589-1.324c-16.619-13.823-28.781-32.25-34.957-52.966v-0.088
		c8.972-27.767,20.528-54.633,34.516-80.243c2.825-5.297,5.826-10.593,8.915-15.713C139.96,138.035,192.875,82.946,256,41.666
		c63.121,41.248,116.037,96.307,154.748,161.015c3.09,5.208,6.091,10.417,8.915,15.801
		C433.651,244.093,445.207,270.958,454.18,298.726z"/>
	<path style="fill:#BDC3C7;" d="M417.633,353.103c-6.179,5.208-12.712,11.034-19.244,17.655h-36.458
		c-4.869,0.015-8.813,3.958-8.828,8.828c0,4.875-3.952,8.828-8.828,8.828s-8.828-3.952-8.828-8.828
		c-0.015-4.869-3.958-8.813-8.828-8.828h-8.828c-4.869,0.015-8.813,3.958-8.828,8.828v17.655c0,4.875-3.952,8.828-8.828,8.828
		s-8.828-3.952-8.828-8.828v-17.655c-0.015-4.869-3.958-8.813-8.828-8.828h-8.828c-4.869,0.015-8.813,3.958-8.828,8.828v17.655
		c0,4.875-3.952,8.828-8.828,8.828c-4.875,0-8.828-3.952-8.828-8.828v-17.655c-0.015-4.869-3.958-8.813-8.828-8.828h-8.828
		c-4.869,0.015-8.813,3.958-8.828,8.828v17.655c0,4.875-3.952,8.828-8.828,8.828s-8.828-3.952-8.828-8.828v-17.655
		c-0.015-4.869-3.958-8.813-8.828-8.828h-8.828c-4.869,0.015-8.813,3.958-8.828,8.828c0,4.875-3.952,8.828-8.828,8.828
		s-8.828-3.952-8.828-8.828c-0.015-4.869-3.958-8.813-8.828-8.828h-36.458c-6.532-6.621-13.065-12.447-19.244-17.655h11.564
		c4.857-0.045,8.782-3.971,8.828-8.828v-17.655c0-4.875,3.952-8.828,8.828-8.828c4.875,0,8.828,3.952,8.828,8.828v17.655
		c0.015,4.869,3.958,8.813,8.828,8.828h8.828c4.869-0.015,8.813-3.958,8.828-8.828v-17.655c0-4.875,3.952-8.828,8.828-8.828
		s8.828,3.952,8.828,8.828v17.655c0.015,4.869,3.958,8.813,8.828,8.828h8.828c4.869-0.015,8.813-3.958,8.828-8.828
		c0-4.875,3.952-8.828,8.828-8.828s8.828,3.952,8.828,8.828c0.015,4.869,3.958,8.813,8.828,8.828h8.828
		c4.869-0.015,8.813-3.958,8.828-8.828c0-4.875,3.952-8.828,8.828-8.828c4.875,0,8.828,3.952,8.828,8.828
		c0.015,4.869,3.958,8.813,8.828,8.828h8.828c4.869-0.015,8.813-3.958,8.828-8.828c0-4.875,3.952-8.828,8.828-8.828
		s8.828,3.952,8.828,8.828c0.015,4.869,3.958,8.813,8.828,8.828h8.828c4.869-0.015,8.813-3.958,8.828-8.828v-17.655
		c0-4.875,3.952-8.828,8.828-8.828s8.828,3.952,8.828,8.828v17.655c0.015,4.869,3.958,8.813,8.828,8.828h8.828
		c4.869-0.015,8.813-3.958,8.828-8.828v-17.655c0-4.875,3.952-8.828,8.828-8.828s8.828,3.952,8.828,8.828v17.655
		c0.015,4.869,3.958,8.813,8.828,8.828H417.633z"/>
	<g>
		
			<ellipse transform="matrix(-0.6787 -0.7344 0.7344 -0.6787 122.2421 479.0461)" style="fill:#95A5A5;" cx="165.915" cy="212.782" rx="57.009" ry="68.732"/>
		
			<ellipse transform="matrix(-0.7344 -0.6787 0.6787 -0.7344 455.9447 603.8421)" style="fill:#95A5A5;" cx="346.113" cy="212.717" rx="68.732" ry="57.009"/>
		<path style="fill:#95A5A5;" d="M229.093,274.873l-13.891,14.124c-7.914,8.047-0.871,19.968,11.798,19.968h13.891
			c7.541,0.695,14.255-4.766,15.109-12.29v-14.124C256,270.933,238.015,265.801,229.093,274.873z"/>
		<path style="fill:#95A5A5;" d="M282.908,274.873l13.891,14.124c7.914,8.047,0.871,19.968-11.798,19.968H271.11
			c-7.541,0.695-14.255-4.766-15.109-12.29v-14.124C256,270.933,273.986,265.801,282.908,274.873z"/>
	</g>
</g>
<g>
</g>
<g>
</g>
<g>
</g>
<g>
</g>
<g>
</g>
<g>
</g>
<g>
</g>
<g>
</g>
<g>
</g>
<g>
</g>
<g>
</g>
<g>
</g>
<g>
</g>
<g>
</g>
<g>
</g>
</svg>
