<?xml version="1.0" encoding="iso-8859-1"?>
<!-- Generator: Adobe Illustrator 19.0.0, SVG Export Plug-In . SVG Version: 6.00 Build 0)  -->
<svg version="1.1" id="Capa_1" xmlns="http://www.w3.org/2000/svg" xmlns:xlink="http://www.w3.org/1999/xlink" x="0px" y="0px"
	 viewBox="0 0 511.719 511.719" style="enable-background:new 0 0 511.719 511.719;" xml:space="preserve">
<g>
	<path style="fill:#41767F;" d="M489.658,457.664c0,0-35.31,80.508-175.934,45.021H207.087
		C66.376,538.172,31.154,457.664,31.154,457.664c35.31-7.503,44.138-53.937,44.138-53.937l-2.472-8.563l-15.448-53.319
		c-23.082-36.014-35.338-77.898-35.31-120.673C23.122,120.157,89.587,31.502,186.254,2.161c13.631-4.104,28.358-2.311,40.607,4.943
		l22.422,12.888l2.383-2.207h48.64c14.112,0.057,27.617,5.745,37.517,15.801l3.178,3.266c4.928,5.029,11.674,7.861,18.714,7.857
		h5.561c16.353,0.127,30.516,11.378,34.339,27.277l0.706,3.001c0.788,3.311,3.747,5.649,7.15,5.65h0.088
		c12.216,0.13,22.79,8.524,25.688,20.392l2.913,12.006c0.499,2.238,1.995,4.124,4.061,5.12v0.088
		c8.94,4.554,14.593,13.714,14.654,23.746l-0.265,37.341c0.228,0.073,0.467,0.103,0.706,0.088h8.121l-17.479,218.394l-0.441,5.914
		C445.52,403.728,454.348,450.161,489.658,457.664z"/>
	<path style="fill:#D75E72;" d="M454.878,141.99l-0.265,37.341c-5.698-0.187-10.943-3.155-14.036-7.945l-7.15-10.946
		c-2.859-4.364-7.524-7.215-12.712-7.768c-0.636-0.146-1.29-0.205-1.942-0.177h-52.348c-9.846-0.102-17.748-8.162-17.655-18.008
		v-8.916c0.061-9.834-7.822-17.875-17.655-18.008h-11.741c-8.183-0.067-14.773-6.735-14.742-14.919V80.638
		c0.055-9.816-7.839-17.828-17.655-17.92h-13.241c-5.465-0.048-10.592-2.654-13.851-7.04s-4.275-10.047-2.745-15.293l0.177-0.618
		c1.889-7.636-1.355-15.619-8.033-19.774l2.383-2.207h48.64c14.112,0.057,27.617,5.745,37.517,15.801l3.178,3.266
		c4.928,5.029,11.674,7.861,18.714,7.857h5.561c16.353,0.127,30.516,11.378,34.339,27.277l0.706,3.001
		c0.788,3.311,3.747,5.649,7.15,5.65h0.088c12.216,0.13,22.79,8.524,25.688,20.392l2.913,12.006c0.499,2.238,1.995,4.124,4.061,5.12
		v0.088C449.164,122.797,454.816,131.957,454.878,141.99L454.878,141.99z"/>
	<path style="fill:#7ED09E;" d="M463.44,179.419v167.018c0.016,4.761-0.367,9.515-1.148,14.212
		c-2.209,13.571-7.828,26.359-16.331,37.164c-3.575,4.783-7.595,9.216-12.006,13.241l-66.737,59.939
		c-15.547,14.016-33.733,24.79-53.495,31.691h-0.088c-16.496,5.854-33.873,8.839-51.377,8.828h-3.708
		c-17.533,0.012-34.938-2.974-51.465-8.828c-19.762-6.901-37.949-17.675-53.495-31.691l-66.737-59.939
		c-5.249-4.764-9.957-10.092-14.036-15.89c-7.384-10.238-12.28-22.056-14.301-34.516c-0.78-4.697-1.164-9.451-1.148-14.212v-133.12
		c-0.039-19.678,6.277-38.844,18.008-54.643c3.541,26.606,9.782,52.782,18.626,78.124c2.648,8.033,5.473,15.89,8.21,23.305
		c4.767,12.623,9.446,24.011,13.506,33.457c7.062,16.684,12.27,27.189,12.27,27.189c-1.501-6.268-2.737-12.535-3.796-18.891
		c-2.103-13.903-3.019-27.961-2.737-42.019c0.088-6.268,0.53-12.447,1.148-18.626c0.962-9.582,2.465-19.101,4.502-28.513
		c0.441-2.03,0.971-4.149,1.412-6.179c1.847-7.624,4.117-15.139,6.797-22.51c4.535-13.252,10.925-25.794,18.979-37.252
		c6.512-8.861,14.205-16.791,22.863-23.57c12.27-9.799,25.865-17.92,39.106-26.924c0.117,9.03,0.973,18.034,2.56,26.924
		c0.177,0.883,0.265,1.589,0.441,2.383c3.411,17.569,8.313,34.816,14.654,51.553c2.384-17.607,6.706-34.896,12.888-51.553h49.523
		c5.263-0.025,10.243-2.386,13.595-6.444l3.531-4.326l5.914-7.239h11.741c9.833,0.133,17.717,8.175,17.655,18.008v8.916
		c-0.093,9.846,7.809,17.906,17.655,18.008h52.348c0.652-0.029,1.306,0.031,1.942,0.177c5.187,0.553,9.853,3.405,12.712,7.768
		l7.15,10.946c3.093,4.79,8.338,7.758,14.036,7.945c0.228,0.073,0.467,0.103,0.706,0.088H463.44z"/>
	<path style="fill:#527F72;" d="M280.022,358.825c-3.75-0.139-7.442-0.972-10.888-2.457l-1.31-0.483
		c-3.467-1.233-7.2-1.52-10.815-0.832c-1.546,0.335-3.066,0.783-4.547,1.341c-3.724,1.47-7.671,2.292-11.672,2.431
		c-8.722-0.947-16.733-5.249-22.34-11.996c-2.082-2.374-2.738-5.679-1.72-8.667s3.555-5.206,6.653-5.816
		c3.098-0.609,6.286,0.482,8.36,2.863c2.345,2.854,5.499,4.932,9.047,5.961c2.055-0.2,4.069-0.701,5.978-1.487
		c2.286-0.832,4.63-1.496,7.013-1.987c6.693-1.251,13.598-0.708,20.013,1.573l1.517,0.56c1.497,0.672,3.084,1.124,4.711,1.341
		c3.544-1.039,6.695-3.115,9.047-5.961c2.074-2.38,5.262-3.472,8.36-2.863c3.098,0.609,5.635,2.827,6.653,5.816
		c1.018,2.989,0.362,6.294-1.72,8.667C296.756,353.576,288.744,357.878,280.022,358.825z"/>
	<g>
		<path style="fill:#FB7B76;" d="M335.509,98.17c-4.875,0-8.828-3.952-8.828-8.828c0-4.875,3.952-8.828,8.828-8.828
			c4.956-0.091,8.904-4.174,8.828-9.129v-8.978c0-4.875,3.952-8.828,8.828-8.828s8.828,3.952,8.828,8.828v8.978
			C362.058,86.088,350.211,98.069,335.509,98.17z"/>
		<path style="fill:#FB7B76;" d="M388.475,143.058c-4.875,0-8.828-3.952-8.828-8.828c0-4.875,3.952-8.828,8.828-8.828
			c4.956-0.09,8.904-4.174,8.828-9.129V98.316c0-4.875,3.952-8.828,8.828-8.828s8.828,3.952,8.828,8.828v17.957
			C415.024,130.976,403.177,142.957,388.475,143.058z"/>
	</g>
	<g>
		<path style="fill:#D75E72;" d="M313.46,114.801v64.618c0,4.875-3.952,8.828-8.828,8.828c-4.875,0-8.828-3.952-8.828-8.828v-53.848
			h0.53c5.263-0.025,10.243-2.386,13.595-6.444L313.46,114.801z"/>
		<path style="fill:#D75E72;" d="M278.149,125.571v26.924c0,4.875-3.952,8.828-8.828,8.828s-8.828-3.952-8.828-8.828v-26.924
			H278.149z"/>
		<path style="fill:#D75E72;" d="M207.44,313.937c-4.875,0-8.828-3.952-8.828-8.828v-53.866c0-4.875,3.952-8.828,8.828-8.828
			s8.828,3.952,8.828,8.828v53.866C216.268,309.985,212.316,313.937,207.44,313.937z"/>
		<path style="fill:#D75E72;" d="M317.785,318.351c-4.875,0-8.828-3.952-8.828-8.828v-53.866c0-4.875,3.952-8.828,8.828-8.828
			s8.828,3.952,8.828,8.828v53.866C326.613,314.399,322.661,318.351,317.785,318.351z"/>
		<path style="fill:#D75E72;" d="M180.958,340.868c-4.875,0-8.828-3.952-8.828-8.828V305.11c0-4.875,3.952-8.828,8.828-8.828
			s8.828,3.952,8.828,8.828v26.931C189.785,336.916,185.833,340.868,180.958,340.868L180.958,340.868z"/>
		<path style="fill:#D75E72;" d="M353.096,345.282c-4.875,0-8.828-3.952-8.828-8.828v-26.78c0-4.875,3.952-8.828,8.828-8.828
			s8.828,3.952,8.828,8.828v26.78C361.923,341.33,357.971,345.282,353.096,345.282z"/>
		<path style="fill:#D75E72;" d="M388.406,363.239c-4.875,0-8.828-3.952-8.828-8.828v-71.22c0-4.875,3.952-8.828,8.828-8.828
			s8.828,3.952,8.828,8.828v71.22C397.234,359.287,393.281,363.239,388.406,363.239z"/>
	</g>
	<path style="fill:#527F72;" d="M322.199,435.288c0,22.312-27.666,22.445-61.793,22.445s-61.793-0.132-61.793-22.445
		s27.666-40.4,61.793-40.4S322.199,412.975,322.199,435.288z"/>
	<g>
		<path style="fill:#F5EFCA;" d="M216.798,255.689c0.145,15.36-5.82,30.148-16.581,41.108c-10.762,10.96-25.438,17.195-40.798,17.33
			c-12.791,0.016-25.209-4.31-35.222-12.27c-2.103-13.903-3.019-27.961-2.737-42.019c0.088-6.268,0.53-12.447,1.148-18.626
			c0.962-9.582,2.465-19.101,4.502-28.513c0.441-2.03,0.971-4.149,1.412-6.179c9.182-6.01,19.922-9.201,30.897-9.181
			C191.375,197.611,217.062,223.733,216.798,255.689L216.798,255.689z"/>
		<ellipse style="fill:#F5EFCA;" cx="361.923" cy="255.689" rx="57.379" ry="58.359"/>
	</g>
</g>
<g>
</g>
<g>
</g>
<g>
</g>
<g>
</g>
<g>
</g>
<g>
</g>
<g>
</g>
<g>
</g>
<g>
</g>
<g>
</g>
<g>
</g>
<g>
</g>
<g>
</g>
<g>
</g>
<g>
</g>
</svg>
