<?xml version="1.0" encoding="iso-8859-1"?>
<!-- Generator: Adobe Illustrator 19.0.0, SVG Export Plug-In . SVG Version: 6.00 Build 0)  -->
<svg version="1.1" id="Capa_1" xmlns="http://www.w3.org/2000/svg" xmlns:xlink="http://www.w3.org/1999/xlink" x="0px" y="0px"
	 viewBox="0 0 512.02 512.02" style="enable-background:new 0 0 512.02 512.02;" xml:space="preserve">
<g transform="translate(-1)">
	<path style="fill:#527F72;" d="M239.822,105.941c0,0-27.533-56.276,0-105.931l61.326,17.655
		c-36.046,31.971-14.776,88.688-14.776,88.688l14.776,26.07l-44.142,17.655L239.822,105.941z"/>
	<path style="fill:#E57E25;" d="M513.01,308.975c1.011,101.448-74.858,187.229-175.669,198.621
		c-10.127,2.935-20.618,4.421-31.161,4.414c-9.108,0.005-18.182-1.121-27.012-3.354c-0.782,0.276-1.578,0.511-2.383,0.706
		c-12.946,3.531-26.602,3.531-39.548,0c-0.806-0.195-1.601-0.431-2.383-0.706c-8.83,2.233-17.904,3.36-27.012,3.354
		c-10.543,0.007-21.035-1.479-31.161-4.414C75.868,496.204-0.001,410.423,1.01,308.975
		c-1.011-101.448,74.858-187.229,175.669-198.621c10.127-2.935,20.618-4.421,31.161-4.414c9.934-0.024,19.824,1.313,29.396,3.972
		c12.65-5.297,26.897-5.297,39.548,0c9.571-2.66,19.462-3.996,29.396-3.972c10.543-0.007,21.035,1.479,31.161,4.414
		C438.152,121.746,514.021,207.528,513.01,308.975z"/>
	<g>
		<path style="fill:#F3D55B;" d="M110.292,256.689c-4.419,6.571-6.432,14.466-5.701,22.351
			c2.674,18.599,31.217,28.172,46.405,31.973c11.19,3.754,23.166,4.524,34.744,2.235c10.214-3.306,17.741-12.02,19.528-22.606"/>
		<path style="fill:#F3D55B;" d="M403.728,256.689c4.419,6.571,6.432,14.466,5.701,22.351
			c-2.674,18.599-31.217,28.172-46.405,31.973c-11.19,3.754-23.166,4.524-34.745,2.235c-10.214-3.306-17.741-12.02-19.528-22.606"/>
		<polyline style="fill:#F3D55B;" points="230.527,397.251 204.044,441.389 168.469,384.451 165.556,379.773 		"/>
		<polyline style="fill:#F3D55B;" points="117.976,352.142 135.013,412.347 168.469,384.451 170.764,382.598 		"/>
		<polyline style="fill:#F3D55B;" points="230.527,397.251 257.01,450.217 283.493,397.251 		"/>
		<polyline style="fill:#F3D55B;" points="283.493,397.251 309.975,441.389 345.551,384.451 348.464,379.773 		"/>
		<polyline style="fill:#F3D55B;" points="396.044,352.142 379.007,412.347 345.551,384.451 343.256,382.598 		"/>
	</g>
	<g>
		<path style="fill:#FAC176;" d="M65.532,247.182c-2.867-0.003-5.555-1.398-7.209-3.74c-1.654-2.343-2.068-5.342-1.11-8.045
			c20.897-58.871,61.672-102.185,109.069-115.875c4.685-1.352,9.579,1.35,10.931,6.034c1.352,4.685-1.35,9.579-6.034,10.931
			c-41.94,12.112-78.327,51.297-97.328,104.815C72.601,244.825,69.27,247.18,65.532,247.182L65.532,247.182z"/>
		<path style="fill:#FAC176;" d="M159.902,489.949c-0.829-0.002-1.653-0.12-2.448-0.353
			c-42.267-12.216-79.345-47.772-101.741-97.548c-1.294-2.877-0.954-6.225,0.89-8.783c1.844-2.559,4.914-3.939,8.052-3.621
			c3.138,0.318,5.868,2.286,7.162,5.163c20.259,45.039,53.259,77.052,90.534,87.832c4.226,1.219,6.91,5.363,6.294,9.718
			C168.028,486.712,164.301,489.949,159.902,489.949L159.902,489.949z"/>
		<path style="fill:#FAC176;" d="M451.215,251.594c-3.738-0.002-7.069-2.357-8.319-5.879c-19-53.517-55.388-92.703-97.327-104.815
			c-3.036-0.87-5.376-3.296-6.137-6.361c-0.761-3.065,0.174-6.304,2.451-8.492c2.277-2.189,5.55-2.994,8.583-2.112
			c47.397,13.69,88.172,57.004,109.069,115.875c0.957,2.703,0.543,5.702-1.11,8.045C456.77,250.197,454.082,251.591,451.215,251.594
			L451.215,251.594z"/>
		<path style="fill:#FAC176;" d="M354.118,494.355c-4.398,0-8.126-3.237-8.742-7.592c-0.616-4.355,2.068-8.499,6.294-9.718
			c37.276-10.78,70.276-42.793,90.534-87.832c1.288-2.886,4.02-4.863,7.163-5.185c3.144-0.322,6.22,1.061,8.065,3.627
			c1.845,2.565,2.179,5.921,0.875,8.8c-22.397,49.776-59.474,85.332-101.741,97.547
			C355.771,494.234,354.947,494.353,354.118,494.355z"/>
		<path style="fill:#FAC176;" d="M234.855,503.182c-0.883-0.001-1.76-0.135-2.603-0.397c-1.259-0.388-2.517-0.776-3.879-1.263
			c-17.843-6.787-33.52-18.271-45.371-33.237c-3.202-3.568-2.97-9.039,0.521-12.323c3.492-3.284,8.967-3.181,12.332,0.233
			c0.226,0.222,0.439,0.456,0.638,0.703c9.844,12.576,22.91,22.252,37.81,28c1.086,0.38,2.121,0.698,3.155,1.017
			c4.174,1.288,6.78,5.434,6.128,9.754C242.935,499.989,239.223,503.183,234.855,503.182z"/>
		<path style="fill:#FAC176;" d="M279.165,503.182c-4.368,0-8.08-3.194-8.732-7.513c-0.651-4.32,1.954-8.466,6.128-9.754
			c1.034-0.319,2.069-0.638,3.19-1.03c14.887-5.748,27.941-15.419,37.776-27.987c1.991-2.452,5.141-3.652,8.259-3.148
			c3.118,0.504,5.729,2.636,6.846,5.59c1.117,2.954,0.571,6.28-1.433,8.722c-11.865,15.064-27.597,26.625-45.518,33.448
			c-1.397,0.5-2.655,0.888-3.914,1.276C280.925,503.047,280.048,503.181,279.165,503.182L279.165,503.182z"/>
		<path style="fill:#FAC176;" d="M233.889,121.424c-2.306,0.928-4.552,1.999-6.724,3.207c-19.517,11.85-35.225,29.05-45.259,49.56
			c-1.69,3.095-3.293,6.284-4.785,9.569c-1.317,2.872-0.997,6.229,0.837,8.802c1.834,2.573,4.903,3.969,8.048,3.661
			c3.144-0.308,5.885-2.273,7.185-5.152c1.319-2.896,2.733-5.707,4.216-8.435c1.635-2.998,3.327-5.832,5.045-8.578
			c7.976-13.975,19.41-25.665,33.205-33.948c1.589-0.886,3.233-1.667,4.922-2.341c4.506-1.852,6.66-7.003,4.815-11.512
			S238.4,119.586,233.889,121.424L233.889,121.424z"/>
		<path style="fill:#FAC176;" d="M340.036,190.648c-0.905-2.052-1.819-4.103-2.776-6.095c-0.157-0.415-0.342-0.82-0.552-1.211
			c-1.44-3.138-2.971-6.19-4.595-9.155c-9.999-20.449-25.64-37.61-45.078-49.457l-0.078-0.037l-0.103-0.062l-0.069-0.021
			c-2.153-1.194-4.375-2.257-6.655-3.186c-4.511-1.838-9.659,0.324-11.504,4.833c-1.845,4.508,0.309,9.66,4.815,11.512
			c1.753,0.701,3.457,1.516,5.103,2.44c16.454,10.247,29.656,24.96,38.069,42.422c1.431,2.634,2.787,5.341,4.069,8.121
			c0.107,0.29,0.231,0.573,0.371,0.849c0.991,2.004,1.905,4.091,2.828,6.177c1.274,2.886,3.99,4.873,7.126,5.213
			c3.136,0.34,6.215-1.019,8.078-3.565C340.947,196.88,341.31,193.534,340.036,190.648L340.036,190.648z"/>
	</g>
	<g>
		<path style="fill:#D25627;" d="M200.07,296.954c-5.768-0.011-11.5-0.915-16.991-2.681c-31.506-8.862-61.598-22.141-89.379-39.444
			c-4.22-2.439-5.666-7.837-3.229-12.058c2.437-4.222,7.834-5.67,12.056-3.235c26.682,16.675,55.613,29.444,85.914,37.918
			c10.741,3.785,22.665,1.923,31.741-4.957c16.043-12.922,9.586-29.625,4.31-38.431c-1.634-2.705-1.697-6.077-0.166-8.84
			c1.531-2.764,4.424-4.498,7.583-4.547c3.16-0.049,6.104,1.595,7.72,4.31c13.594,22.677,10.388,46.151-8.379,61.259
			C222.388,293.276,211.382,297.055,200.07,296.954z"/>
		<path style="fill:#D25627;" d="M313.95,296.954c-11.312,0.103-22.318-3.676-31.181-10.707
			c-18.767-15.108-21.974-38.582-8.379-61.259c1.616-2.715,4.561-4.359,7.72-4.31c3.159,0.049,6.052,1.783,7.583,4.547
			c1.531,2.764,1.468,6.136-0.166,8.84c-5.276,8.806-11.733,25.509,4.31,38.431c9.079,6.872,20.999,8.733,31.741,4.957
			c30.301-8.475,59.232-21.243,85.914-37.918c4.223-2.435,9.62-0.987,12.056,3.235c2.437,4.222,0.991,9.619-3.229,12.058
			c-27.781,17.302-57.873,30.582-89.379,39.444C325.45,296.039,319.718,296.943,313.95,296.954z"/>
		<path style="fill:#D25627;" d="M280.622,406.079h-47.224c-26.569-0.007-52.66-7.061-75.612-20.444l-46.397-27.065
			c-2.73-1.593-6.104-1.604-8.845-0.03c-2.741,1.574-4.431,4.494-4.431,7.655c0,4.875-3.952,8.828-8.828,8.828
			s-8.828-3.952-8.828-8.828c-0.001-9.483,5.07-18.242,13.293-22.965c8.223-4.723,18.344-4.689,26.535,0.09l46.397,27.065
			c20.252,11.808,43.273,18.032,66.716,18.039h47.224c23.443-0.006,46.464-6.231,66.716-18.039l46.397-27.065
			c8.191-4.779,18.312-4.813,26.535-0.09c8.223,4.723,13.293,13.482,13.293,22.965c0,4.875-3.952,8.828-8.828,8.828
			s-8.828-3.952-8.828-8.828c0-3.161-1.69-6.081-4.431-7.655c-2.741-1.574-6.115-1.563-8.845,0.03l-46.397,27.065
			C333.282,399.018,307.191,406.072,280.622,406.079z"/>
	</g>
</g>
<g>
</g>
<g>
</g>
<g>
</g>
<g>
</g>
<g>
</g>
<g>
</g>
<g>
</g>
<g>
</g>
<g>
</g>
<g>
</g>
<g>
</g>
<g>
</g>
<g>
</g>
<g>
</g>
<g>
</g>
</svg>
