<?xml version="1.0" encoding="iso-8859-1"?>
<!-- Generator: Adobe Illustrator 19.0.0, SVG Export Plug-In . SVG Version: 6.00 Build 0)  -->
<svg version="1.1" id="Capa_1" xmlns="http://www.w3.org/2000/svg" xmlns:xlink="http://www.w3.org/1999/xlink" x="0px" y="0px"
	 viewBox="0 0 512 512" style="enable-background:new 0 0 512 512;" xml:space="preserve">
<g>
	<path style="fill:#CC4B4C;" d="M345.865,459.034h72.033c3.22,0.028,6.195-1.714,7.744-4.537c1.55-2.822,1.423-6.268-0.329-8.969
		c-15.183-22.687-10.417-65.942-10.417-65.942h52.436c3.362-0.026,6.419-1.954,7.891-4.977s1.104-6.619-0.95-9.281
		c-8.713-14.143-13.769-30.232-14.711-46.817c-0.21-2.461,0.623-4.896,2.297-6.712c1.674-1.816,4.034-2.844,6.504-2.834h21.127
		c3.208,0.002,6.163-1.745,7.707-4.557c1.544-2.813,1.432-6.243-0.292-8.949c-14.83-23.04-20.215-65.942-20.215-65.942h-0.177
		c0.088-2.913,0.177-5.914,0.177-8.828C476.69,98.806,377.884,0,256,0S35.31,98.806,35.31,220.69c0,2.913,0.088,5.914,0.177,8.828
		H35.31c0,0-5.385,42.902-20.215,65.942c-1.724,2.706-1.836,6.136-0.292,8.949c1.544,2.812,4.499,4.56,7.707,4.557h21.127
		c2.47-0.01,4.83,1.018,6.504,2.834c1.674,1.816,2.508,4.252,2.297,6.712c-0.942,16.585-5.998,32.674-14.711,46.817
		c-2.053,2.662-2.421,6.258-0.95,9.281s4.529,4.951,7.891,4.977h52.436c0,0,4.767,43.255-10.417,65.942
		c-1.752,2.701-1.879,6.147-0.329,8.969c1.55,2.822,4.525,4.565,7.744,4.537H345.865z"/>
	<path style="fill:#E6E7E8;" d="M406.511,247.172c-3.593,16.949-5.072,34.278-4.405,51.591c1.548,17.529,9.965,33.684,12.424,51.165
		c2.976,21.158-0.955,43.521-18.386,57.437c-13.173,10.025-25.463,21.159-36.734,33.282c-10.697,14.075-20.148,29.055-28.248,44.769
		C315.29,511.072,283.764,512,256.442,512s-58.848-0.928-74.719-26.584c-8.1-15.714-17.552-30.693-28.248-44.769
		c-11.272-12.123-23.562-23.258-36.735-33.282c-17.432-13.916-21.362-36.279-18.386-57.437
		c2.459-17.481,10.876-33.636,12.424-51.165c0.667-17.313-0.812-34.642-4.405-51.591l0,0
		c-17.512-35.871-17.662-77.779-0.408-113.774c8.448-17.666,20.348-33.462,34.999-46.455c15.232-13.542,32.829-24.159,51.91-31.321
		c40.995-15.313,86.14-15.313,127.135,0c19.081,7.161,36.678,17.779,51.91,31.32c14.651,12.993,26.551,28.788,34.999,46.455
		C424.173,169.393,424.023,211.302,406.511,247.172"/>
	<path id="SVGCleanerId_0" style="fill:#5E5F62;" d="M194.295,396.535l-0.088-0.088"/>
	<path id="SVGCleanerId_1" style="fill:#5E5F62;" d="M317.793,396.447l-0.088,0.088"/>
	<g>
		<path id="SVGCleanerId_0_1_" style="fill:#5E5F62;" d="M194.295,396.535l-0.088-0.088"/>
	</g>
	<g>
		<path id="SVGCleanerId_1_1_" style="fill:#5E5F62;" d="M317.793,396.447l-0.088,0.088"/>
	</g>
	<path style="fill:#464F5D;" d="M324.414,366.874c-7.6,16.184-11.52,33.85-11.476,51.73c0,18.891-10.417,26.306-39.989,22.069
		c-10.948-1.589-22.067-1.589-33.015,0c-29.572,4.237-39.989-3.178-39.989-22.069c0.044-17.879-3.876-35.546-11.476-51.73"/>
	<path style="fill:#A5A5A4;" d="M256.442,485.517c-2.341,0.001-4.587-0.929-6.243-2.585c-1.656-1.656-2.585-3.901-2.585-6.243
		v-8.828c0-4.875,3.952-8.828,8.828-8.828s8.828,3.952,8.828,8.828v8.828c0.001,2.341-0.929,4.587-2.585,6.243
		C261.029,484.588,258.783,485.518,256.442,485.517L256.442,485.517z"/>
	<g>
		<path style="fill:#CC4B4C;" d="M185.821,44.138v61.793c-4.875,0-8.828,3.952-8.828,8.828s3.952,8.828,8.828,8.828v70.621
			c0,4.875,3.952,8.828,8.828,8.828s8.828-3.952,8.828-8.828v-70.621c4.875,0,8.828-3.952,8.828-8.828s-3.952-8.828-8.828-8.828
			V44.138H185.821z"/>
		<path style="fill:#CC4B4C;" d="M309.408,44.138v61.793c-4.875,0-8.828,3.952-8.828,8.828s3.952,8.828,8.828,8.828v70.621
			c0,4.875,3.952,8.828,8.828,8.828s8.828-3.952,8.828-8.828v-70.621c4.875,0,8.828-3.952,8.828-8.828s-3.952-8.828-8.828-8.828
			V44.138H309.408z"/>
	</g>
	<g>
		<path style="fill:#464F5D;" d="M246.908,243.73c-1.148-2.7-3.563-4.653-6.444-5.208c-23.643-5.868-46.064-15.865-66.23-29.531
			l-0.033-0.033c-11.009-7.147-18.129-12.776-18.198-12.832c-2.468-1.971-5.801-2.474-8.74-1.317
			c-2.939,1.156-5.036,3.795-5.499,6.919c-0.463,3.124,0.779,6.258,3.256,8.217c0.245,0.197,4.987,3.942,12.727,9.248
			c-12.488,15.376-18.784,34.862-17.653,54.639l0.024,0.14c-4.165,0.7-7.227,4.288-7.263,8.511
			c-0.001,2.341,0.929,4.587,2.585,6.243c1.656,1.656,3.901,2.585,6.243,2.585h70.621c0.289,0.069,0.586,0.099,0.883,0.088
			c4.229,0.01,7.864-2.995,8.651-7.15c2.056-10.241,8.557-19.039,17.743-24.011c1.236-0.618,2.472-1.148,3.708-1.677
			c2.212-0.875,3.989-2.588,4.943-4.767c0.971-2.193,0.971-4.693,0-6.886L246.908,243.73z"/>
		<path style="fill:#464F5D;" d="M372.686,273.955l0.015-0.123c1.222-19.773-5.048-39.282-17.564-54.639
			c7.724-5.279,12.471-9.039,12.753-9.266c3.772-3.055,4.37-8.582,1.339-12.373c-3.031-3.791-8.555-4.423-12.364-1.416
			c-7.548,5.824-15.413,11.225-23.559,16.178c-0.057,0.031-0.114,0.038-0.152,0.076c-18.1,11.705-37.988,20.382-58.88,25.688
			c-2.288,0.522-4.283,1.915-5.561,3.884c-1.289,1.983-1.704,4.41-1.148,6.709l1.324,5.738c0.539,2.473,2.115,4.595,4.326,5.826
			c9.232,4.938,15.773,13.746,17.832,24.011c0.787,4.155,4.422,7.16,8.651,7.15c0.297,0.01,0.593-0.02,0.882-0.089h70.621
			c2.341,0.001,4.587-0.929,6.243-2.585c1.656-1.656,2.585-3.901,2.585-6.243C379.994,278.228,376.889,274.621,372.686,273.955z"/>
	</g>
	<path style="fill:#BDC3C7;" d="M362.373,334.654v0.794c0,0-26.483,44.138-97.103,44.138h-17.655
		c-70.621,0-97.103-44.138-97.103-44.138v-0.794c7.42-6.138,16.864-9.286,26.483-8.828c15.36,0,30.632-13.33,34.428-16.861
		c0.265-0.177,1.677-1.501,3.354-3.001c6.229,17.698,22.966,29.525,41.729,29.485c18.763-0.04,35.449-11.937,41.604-29.661
		c1.854,1.766,3.178,3.001,3.354,3.178c3.708,3.443,19.068,16.861,34.428,16.861C345.509,325.368,354.953,328.516,362.373,334.654z"
		/>
	<path style="fill:#CC4B4C;" d="M300.58,291.31c-0.058,24.353-19.785,44.08-44.138,44.138
		c-18.725-0.032-35.407-11.836-41.666-29.484c-1.634-4.713-2.47-9.666-2.472-14.654c0-24.377,19.761-44.138,44.138-44.138
		S300.58,266.934,300.58,291.31z"/>
</g>
<g>
</g>
<g>
</g>
<g>
</g>
<g>
</g>
<g>
</g>
<g>
</g>
<g>
</g>
<g>
</g>
<g>
</g>
<g>
</g>
<g>
</g>
<g>
</g>
<g>
</g>
<g>
</g>
<g>
</g>
</svg>
