<?xml version="1.0" encoding="iso-8859-1"?>
<!-- Generator: Adobe Illustrator 19.0.0, SVG Export Plug-In . SVG Version: 6.00 Build 0)  -->
<svg version="1.1" id="Capa_1" xmlns="http://www.w3.org/2000/svg" xmlns:xlink="http://www.w3.org/1999/xlink" x="0px" y="0px"
	 viewBox="0 0 512 512" style="enable-background:new 0 0 512 512;" xml:space="preserve">
<g>
	<g>
		<path style="fill:#F18D46;" d="M109.993,476.69l-12.888,26.483c-10.098-5.168-18.313-13.383-23.481-23.481l-1.678-3.001
			c-37.782-93.661-8.74-146.008-1.501-156.778l9.004-0.794c0.795,8.916,35.575,57.379,39.194,60.91
			C124.647,398.301,128.443,430.521,109.993,476.69z"/>
		<path style="fill:#F18D46;" d="M440.056,476.69l-7.506,17.655c0,0-27.628-16.861-30.188-15.537l-0.354-2.119
			c-18.45-46.168-14.654-78.389-8.651-96.662c3.618-3.531,38.399-51.994,39.194-60.91l9.004,0.794
			C448.797,330.681,477.839,383.029,440.056,476.69z"/>
		<path style="fill:#F18D46;" d="M425.225,346.395c11.83-23.923-350.278-23.923-338.448,0
			c-32.134-46.786-51.466-102.577-51.466-152.188C35.312,82.097,134.092,0,256.001,0s220.69,82.097,220.69,194.207
			C476.691,243.818,457.359,299.608,425.225,346.395z"/>
	</g>
	<path style="fill:#FDD7AD;" d="M441.381,211.862c-4.267,23.371-7.36,46.94-9.269,70.621c0.954,12.188,1.102,24.427,0.441,36.634
		c-0.744,9.466-3.228,18.713-7.328,27.277c-3.27,6.69-7.727,12.732-13.153,17.832c-0.088,0.088-0.088,0.088-0.088,0.177
		c-2.406,2.298-4.972,4.422-7.679,6.356c-3.862,2.828-7.52,5.926-10.946,9.269c-33.81,32.044-70.532,96.662-137.357,96.662
		s-103.548-64.618-137.358-96.662c-3.426-3.343-7.084-6.441-10.946-9.269c-2.707-1.934-5.273-4.058-7.679-6.356
		c0-0.088,0-0.088-0.088-0.177c-5.426-5.1-9.883-11.142-13.153-17.832c-4.1-8.564-6.584-17.812-7.328-27.277
		c-0.66-12.208-0.513-24.446,0.441-36.634c-1.909-23.68-5.002-47.25-9.269-70.621v-26.483c0-21.098,24.276-40.077,62.852-52.966
		c14.184-4.727,28.702-8.386,43.432-10.946c26.116-4.561,52.584-6.806,79.095-6.709c26.543-0.073,53.041,2.202,79.183,6.797
		c14.79,2.55,29.367,6.209,43.607,10.946h0.088c38.313,12.977,62.5,31.868,62.5,52.877V211.862z"/>
	<g>
		<path style="fill:#F18D46;" d="M476.696,512c-3.347,0.005-6.409-1.885-7.905-4.879c-5.181-10.392-24.465-4.457-24.647-4.392
			c-4.621,1.514-9.597-0.994-11.128-5.61c-1.531-4.616,0.958-9.6,5.568-11.149c12.526-4.172,36.328-6.091,46,13.254
			c1.368,2.735,1.223,5.984-0.383,8.586C482.594,510.413,479.755,511.998,476.696,512z"/>
		<path style="fill:#F18D46;" d="M361.924,512c-3.058-0.002-5.898-1.587-7.504-4.19c-1.607-2.602-1.752-5.851-0.383-8.586
			c9.681-19.345,33.474-17.427,46-13.254c4.628,1.535,7.135,6.532,5.599,11.159c-1.535,4.628-6.532,7.135-11.159,5.599l0,0
			c-0.172-0.065-19.457-6-24.647,4.392C368.333,510.114,365.271,512.003,361.924,512z"/>
		<path style="fill:#F18D46;" d="M35.304,512c-3.058-0.002-5.898-1.587-7.504-4.19c-1.607-2.602-1.752-5.851-0.383-8.586
			c9.672-19.345,33.474-17.427,46-13.254c4.628,1.535,7.135,6.532,5.599,11.159c-1.535,4.628-6.532,7.135-11.159,5.599l0,0
			c-0.172-0.065-19.457-6-24.647,4.392C41.712,510.114,38.651,512.003,35.304,512z"/>
		<path style="fill:#F18D46;" d="M150.076,512c-3.347,0.005-6.409-1.885-7.905-4.879c-5.181-10.392-24.465-4.457-24.647-4.392
			c-4.621,1.514-9.597-0.994-11.128-5.61c-1.531-4.616,0.958-9.6,5.568-11.149c12.526-4.172,36.328-6.091,46,13.254
			c1.368,2.735,1.223,5.984-0.383,8.586S153.134,511.998,150.076,512z"/>
	</g>
	<path style="fill:#CC4B4C;" d="M318.236,367.934l-0.441,1.059c-3.801,31.241-30.321,54.731-61.793,54.731
		s-57.992-23.49-61.793-54.731l-0.441-1.059c4.555-1.725,8.448-4.845,11.123-8.916c3.637-5.181,8.486-9.394,14.125-12.27
		c6.743-3.342,14.675-3.277,21.362,0.177c4.855,2.462,10.185,3.847,15.625,4.061c5.44-0.213,10.77-1.598,15.625-4.061
		c6.687-3.453,14.619-3.519,21.362-0.177c5.639,2.876,10.488,7.089,14.125,12.27C309.787,363.089,313.681,366.209,318.236,367.934z"
		/>
	<path style="fill:#FAC176;" d="M270.717,308.966c-3.411-0.136-6.741-1.08-9.716-2.754l-0.948-0.457
		c-1.779-0.854-3.797-1.068-5.716-0.608c-0.977,0.29-1.926,0.667-2.836,1.125c-3.167,1.636-6.654,2.556-10.216,2.694
		c-7.983-1.115-15.021-5.813-19.112-12.759c-1.786-2.624-2.027-6.005-0.629-8.855c1.398-2.85,4.218-4.73,7.386-4.924
		c3.168-0.194,6.197,1.328,7.932,3.986c1.3,1.998,3.014,3.693,5.026,4.97c0.753-0.511,1.567-0.925,2.422-1.233
		c1.879-0.894,3.835-1.615,5.845-2.155c5.833-1.44,11.985-0.811,17.405,1.78l1.19,0.573c0.722,0.382,1.471,0.71,2.241,0.983
		c1.478-1.556,2.863-3.198,4.147-4.918c1.738-2.651,4.764-4.167,7.928-3.971c3.164,0.196,5.98,2.073,7.378,4.918
		c1.398,2.845,1.163,6.221-0.616,8.845C285.737,303.152,278.7,307.85,270.717,308.966L270.717,308.966z"/>
	<path style="fill:#FFFFFF;" d="M115.315,226.829c0.106-0.895,0.392-1.759,0.839-2.541c8.231-21.15,29.512-34.257,52.104-32.089
		c11.365,1.691,22.333,5.414,32.379,10.991c7.229,3.995,19.497,10.562,22.628,18.732c6.365,16.61-15.718,26.811-27.988,30.818
		c-20.217,6.313-42.211,3.036-59.708-8.898c-4.356-2.763-8.505-5.84-12.412-9.207c-1.975-1.695-3.998-3.41-5.813-5.278
		C115.98,227.954,115.383,227.455,115.315,226.829z"/>
	<path style="fill:#CC6F56;" d="M218.131,156.337c-3.481,3.414-9.054,3.414-12.534,0c-21.716-21.716-65.942-23.658-72.121-23.923
		c14.184-4.727,28.702-8.386,43.432-10.946c15.393,3.929,29.562,11.635,41.224,22.422c1.653,1.649,2.582,3.888,2.582,6.223
		C220.713,152.448,219.784,154.687,218.131,156.337L218.131,156.337z"/>
	<path style="fill:#FFFFFF;" d="M397.236,226.829c-0.106-0.895-0.392-1.759-0.839-2.541c-8.231-21.15-29.512-34.257-52.104-32.089
		c-11.365,1.691-22.333,5.414-32.379,10.991c-7.229,3.995-19.497,10.562-22.628,18.732c-6.365,16.61,15.718,26.811,27.988,30.818
		c20.217,6.313,42.211,3.036,59.708-8.898c4.356-2.763,8.505-5.84,12.412-9.207c1.975-1.695,3.998-3.41,5.813-5.278
		C396.571,227.954,397.168,227.455,397.236,226.829z"/>
	<path style="fill:#CC6F56;" d="M378.792,132.502c-5.295,0.088-49.787,1.766-71.856,23.834c-3.481,3.414-9.054,3.414-12.535,0
		c-3.443-3.469-3.443-9.066,0-12.535c11.534-10.689,25.551-18.335,40.783-22.246C349.975,124.106,364.551,127.765,378.792,132.502
		L378.792,132.502z"/>
	<g>
		<ellipse style="fill:#CC4B4C;" cx="145.656" cy="308.966" rx="30.897" ry="26.483"/>
		<ellipse style="fill:#CC4B4C;" cx="366.346" cy="308.966" rx="30.897" ry="26.483"/>
		<path style="fill:#CC4B4C;" d="M446.147,494.345c-0.071,9.721-7.934,17.584-17.655,17.655h-17.655
			c-7.129-0.005-13.556-4.293-16.297-10.875c-2.741-6.581-1.257-14.164,3.762-19.228c1.191-1.228,2.56-2.27,4.061-3.09
			c2.612-1.382,5.52-2.109,8.475-2.119h18.272C438.608,477.048,446.128,484.841,446.147,494.345z"/>
		<path style="fill:#CC4B4C;" d="M118.821,494.345c0.001,4.683-1.858,9.174-5.17,12.486c-3.311,3.311-7.803,5.171-12.486,5.17H83.51
			c-9.721-0.071-17.584-7.934-17.655-17.655c0-5.871,2.91-11.359,7.769-14.654c2.934-1.939,6.369-2.981,9.886-3.001h18.185
			c4.516,0.157,8.805,2.018,12.006,5.208C116.994,485.201,118.836,489.68,118.821,494.345L118.821,494.345z"/>
	</g>
	<g>
		<path style="fill:#802F34;" d="M186.372,378.017c-4.692,0.021-9.335-0.967-13.612-2.897c-4.404-2.095-6.276-7.363-4.181-11.767
			c2.095-4.404,7.363-6.276,11.767-4.181c6.265,2.867,13.684,0.647,17.345-5.19c4.426-6.389,10.372-11.576,17.302-15.095
			c9.191-4.605,20.019-4.591,29.198,0.039c7.314,4.187,16.297,4.188,23.612,0.004c9.181-4.634,20.014-4.648,29.207-0.039
			c6.929,3.513,12.872,8.698,17.293,15.086c3.691,5.863,11.165,8.07,17.448,5.151c4.423-1.977,9.615-0.042,11.664,4.349
			c2.043,4.368,0.18,9.566-4.172,11.642c-14.048,6.576-30.792,1.897-39.397-11.009c-2.757-4.005-6.47-7.258-10.802-9.466
			c-4.316-2.145-9.405-2.06-13.647,0.228c-12.115,6.512-26.688,6.51-38.802-0.004c-4.24-2.282-9.324-2.367-13.638-0.228
			c-4.333,2.213-8.048,5.469-10.81,9.474C206.482,372.835,196.77,378.073,186.372,378.017z"/>
		<path style="fill:#802F34;" d="M256.001,432.552c-35.955,0.003-66.247-26.848-70.56-62.543c-0.566-4.835,2.888-9.217,7.722-9.794
			c4.834-0.578,9.223,2.867,9.812,7.699c3.253,26.816,26.013,46.983,53.026,46.983s49.773-20.167,53.026-46.983
			c0.589-4.833,4.978-8.277,9.812-7.699c4.834,0.577,8.288,4.959,7.722,9.794C322.249,405.703,291.956,432.554,256.001,432.552z"/>
	</g>
</g>
<g>
</g>
<g>
</g>
<g>
</g>
<g>
</g>
<g>
</g>
<g>
</g>
<g>
</g>
<g>
</g>
<g>
</g>
<g>
</g>
<g>
</g>
<g>
</g>
<g>
</g>
<g>
</g>
<g>
</g>
</svg>
