<?xml version="1.0" encoding="iso-8859-1"?>
<!-- Generator: Adobe Illustrator 19.0.0, SVG Export Plug-In . SVG Version: 6.00 Build 0)  -->
<svg version="1.1" id="Capa_1" xmlns="http://www.w3.org/2000/svg" xmlns:xlink="http://www.w3.org/1999/xlink" x="0px" y="0px"
	 viewBox="0 0 512 512" style="enable-background:new 0 0 512 512;" xml:space="preserve">
<g>
	<path style="fill:#E6E7E8;" d="M52.966,282.659v-97.015C52.966,83.156,131.972,0,229.517,0h52.966
		c97.545,0,176.552,83.156,176.552,185.644v97.015c21.025,17.835,30.569,45.768,24.853,72.739
		c-5.715,26.972-25.768,48.633-52.219,56.408c-0.706,0.706-1.412,1.412-2.119,2.03l-66.737,58.615
		c-29.017,25.502-66.329,39.561-104.96,39.548h-3.708c-38.631,0.013-75.943-14.046-104.96-39.548L82.45,413.837
		c-0.706-0.618-1.412-1.324-2.119-2.03c-26.451-7.775-46.504-29.437-52.219-56.408C22.397,328.427,31.941,300.495,52.966,282.659z"
		/>
	<g>
		<ellipse style="fill:#D75E72;" cx="92.69" cy="339.862" rx="30.897" ry="39.724"/>
		<ellipse style="fill:#D75E72;" cx="419.31" cy="339.862" rx="30.897" ry="39.724"/>
	</g>
	<path style="fill:#7F8C8D;" d="M361.931,370.759c0,58.504-47.427,105.931-105.931,105.931s-105.931-47.427-105.931-105.931H361.931
		z"/>
	<g>
		<path style="fill:#D75E72;" d="M203.034,370.759c0-19.509,23.746-35.31,52.966-35.31s52.966,15.801,52.966,35.31H203.034z"/>
		<path style="fill:#D75E72;" d="M176.561,282.483c-3.347,0.005-6.409-1.885-7.905-4.879L151,242.293
			c-1.423-2.823-1.228-6.19,0.511-8.83c1.739-2.64,4.756-4.148,7.911-3.956c3.155,0.193,5.966,2.057,7.371,4.889l17.655,35.31
			c1.368,2.735,1.223,5.984-0.384,8.586C182.458,280.895,179.619,282.481,176.561,282.483L176.561,282.483z"/>
		<path style="fill:#D75E72;" d="M335.439,282.483c-3.058-0.002-5.898-1.587-7.504-4.19s-1.752-5.851-0.383-8.586l17.655-35.31
			c1.405-2.832,4.216-4.696,7.371-4.889c3.155-0.193,6.172,1.316,7.911,3.956c1.739,2.64,1.934,6.007,0.511,8.83l-17.655,35.31
			C341.848,280.598,338.787,282.487,335.439,282.483z"/>
	</g>
	<g>
		<path style="fill:#BDC3C7;" d="M149.106,158.897c-3.64,0-6.907-2.233-8.228-5.625c-12.957-33.198-35.151-30.56-41.664-28.974
			c-4.735,1.164-9.517-1.731-10.681-6.465c-1.164-4.735,1.731-9.517,6.465-10.681c19.716-4.823,47.871,2.642,62.328,39.706
			c1.056,2.716,0.704,5.778-0.939,8.185C154.744,157.449,152.02,158.891,149.106,158.897z"/>
		<path style="fill:#BDC3C7;" d="M361.929,158.991c-2.914-0.006-5.638-1.448-7.281-3.854s-1.994-5.468-0.939-8.184
			c14.461-37.06,42.612-44.543,62.328-39.706c3.063,0.753,5.491,3.083,6.371,6.112c0.879,3.029,0.076,6.297-2.108,8.573
			c-2.184,2.276-5.416,3.214-8.479,2.461c-6.487-1.591-28.707-4.233-41.664,28.974C368.835,156.757,365.568,158.99,361.929,158.991
			L361.929,158.991z"/>
	</g>
	<g>
		<path style="fill:#7F8C8D;" d="M89.844,223.875c-1.005-0.585-1.607-1.676-1.567-2.838s0.717-2.209,1.76-2.723
			c14.456-6.193,28.353-13.619,41.536-22.195c15.173-11.609,35.486-13.975,52.922-6.165c18.217,8.186,22.613,13.956,33.578,15.174
			c1.038,0.159,1.924,0.832,2.356,1.789c0.432,0.957,0.349,2.067-0.218,2.95C210.766,225.1,173.522,271.214,89.844,223.875z"/>
		<path style="fill:#7F8C8D;" d="M422.156,223.875c1.005-0.585,1.607-1.676,1.567-2.838c-0.04-1.162-0.717-2.209-1.76-2.723
			c-14.456-6.193-28.353-13.619-41.536-22.195c-15.173-11.609-35.486-13.975-52.922-6.165
			c-18.217,8.186-22.613,13.956-33.578,15.174c-1.038,0.159-1.924,0.832-2.356,1.789c-0.432,0.957-0.349,2.067,0.218,2.95
			C301.234,225.1,338.478,271.214,422.156,223.875z"/>
	</g>
</g>
<g>
</g>
<g>
</g>
<g>
</g>
<g>
</g>
<g>
</g>
<g>
</g>
<g>
</g>
<g>
</g>
<g>
</g>
<g>
</g>
<g>
</g>
<g>
</g>
<g>
</g>
<g>
</g>
<g>
</g>
</svg>
