<?xml version="1.0" encoding="iso-8859-1"?>
<!-- Generator: Adobe Illustrator 19.0.0, SVG Export Plug-In . SVG Version: 6.00 Build 0)  -->
<svg version="1.1" id="Capa_1" xmlns="http://www.w3.org/2000/svg" xmlns:xlink="http://www.w3.org/1999/xlink" x="0px" y="0px"
	 viewBox="0 0 504.769 504.769" style="enable-background:new 0 0 504.769 504.769;" xml:space="preserve">
<g>
	<path style="fill:#35495E;" d="M504.769,286.706c0.085,82.274-34.282,160.826-94.763,216.602l-154.294,0.521h-4.165l-153.774,0.434
		C36.896,448.901,2.019,370.553,1.62,288.268l0.087-10.761C3.877,124.428,115.041,0.941,252.327,0.507
		s249.144,122.359,252.355,275.439L504.769,286.706z"/>
	<path style="fill:#2C2F38;" d="M101.619,423.934C39.919,391.478,0,339.584,0,281.094c0-53.803,33.757-102.053,87.214-134.595
		c-22.755,26.626-35.223,60.52-35.146,95.544v101.793c-0.016,4.594,0.361,9.181,1.128,13.711
		c3.441,18.84,13.281,35.914,27.857,48.336L101.619,423.934z"/>
	<path style="fill:#E6E7E8;" d="M249.839,502.383c-37.976,0.013-74.656-13.807-103.181-38.877l-45.039-39.572l-19.352-17.009
		l-1.214-1.041c-5.485-4.845-10.379-10.321-14.581-16.315c-6.774-9.542-11.312-20.486-13.277-32.022
		c-0.767-4.53-1.144-9.117-1.128-13.711V242.044c-0.077-35.025,12.39-68.919,35.146-95.544c0.087,0,0.087-0.087,0.174-0.087v-0.087
		c49.828-29.021,106.616-43.93,164.273-43.129c57.657-0.801,114.445,14.109,164.273,43.129v0.087c0.087,0,0.087,0.087,0.174,0.087
		c22.755,26.626,35.223,60.52,35.146,95.544v101.793c0.016,4.594-0.362,9.181-1.128,13.711c-1.965,11.535-6.503,22.48-13.277,32.022
		c-4.201,5.993-9.095,11.469-14.581,16.315l-1.214,1.041l-19.352,17.009l-45.039,39.572c-28.525,25.07-65.205,38.891-103.181,38.877
		"/>
	<path style="fill:#7F8C8D;" d="M436.85,389.569c-4.201,5.993-9.095,11.469-14.581,16.315l-1.214,1.041h-65.258
		c-4.787,0.014-8.664,3.891-8.678,8.678v17.356c0,4.793-3.885,8.678-8.678,8.678c-4.793,0-8.678-3.885-8.678-8.678v-17.356
		c-0.014-4.787-3.891-8.664-8.678-8.678h-8.678c-4.787,0.014-8.664,3.891-8.678,8.678v17.356c0,4.793-3.885,8.678-8.678,8.678
		c-4.793,0-8.678-3.885-8.678-8.678v-17.356c-0.014-4.787-3.891-8.664-8.678-8.678h-8.678c-4.787,0.014-8.664,3.891-8.678,8.678
		v17.356c0,4.793-3.885,8.678-8.678,8.678c-4.793,0-8.678-3.885-8.678-8.678v-17.356c-0.014-4.787-3.891-8.664-8.678-8.678h-8.678
		c-4.787,0.014-8.664,3.891-8.678,8.678v17.356c0,4.793-3.885,8.678-8.678,8.678c-4.793,0-8.678-3.885-8.678-8.678v-17.356
		c-0.014-4.787-3.891-8.664-8.678-8.678h-8.678c-4.787,0.014-8.664,3.891-8.678,8.678v17.356c0,4.793-3.885,8.678-8.678,8.678
		c-4.793,0-8.678-3.885-8.678-8.678v-17.356c-0.014-4.787-3.891-8.664-8.678-8.678H82.268l-1.214-1.041
		c-5.485-4.845-10.379-10.321-14.581-16.315h37.663c4.787-0.014,8.664-3.891,8.678-8.678v-17.356c0-4.793,3.885-8.678,8.678-8.678
		c4.793,0,8.678,3.885,8.678,8.678v17.356c0.014,4.787,3.891,8.664,8.678,8.678h8.678c4.787-0.014,8.664-3.891,8.678-8.678v-17.356
		c0-4.793,3.885-8.678,8.678-8.678c4.793,0,8.678,3.885,8.678,8.678v17.356c0.014,4.787,3.891,8.664,8.678,8.678h8.678
		c4.787-0.014,8.664-3.891,8.678-8.678v-17.356c0-4.793,3.885-8.678,8.678-8.678s8.678,3.885,8.678,8.678v17.356
		c0.014,4.787,3.891,8.664,8.678,8.678h8.678c4.787-0.014,8.664-3.891,8.678-8.678v-17.356c0-4.793,3.885-8.678,8.678-8.678
		c4.793,0,8.678,3.885,8.678,8.678v17.356c0.014,4.787,3.891,8.664,8.678,8.678h8.678c4.787-0.014,8.664-3.891,8.678-8.678v-17.356
		c0-4.793,3.885-8.678,8.678-8.678s8.678,3.885,8.678,8.678v17.356c0.014,4.787,3.891,8.664,8.678,8.678h8.678
		c4.787-0.014,8.664-3.891,8.678-8.678v-17.356c0-4.793,3.885-8.678,8.678-8.678s8.678,3.885,8.678,8.678v17.356
		c0.014,4.787,3.891,8.664,8.678,8.678h8.678c4.787-0.014,8.664-3.891,8.678-8.678v-17.356c0-4.793,3.885-8.678,8.678-8.678
		s8.678,3.885,8.678,8.678v17.356c0.014,4.787,3.891,8.664,8.678,8.678H436.85z"/>
	<path style="fill:#2C2F38;" d="M503.322,281.095c0,58.49-39.919,110.384-101.619,142.839l20.566-18.05
		c14.576-12.422,24.416-29.496,27.857-48.336c0.767-4.53,1.144-9.117,1.128-13.711V242.044c0.077-35.025-12.39-68.919-35.146-95.544
		C469.565,179.042,503.322,227.291,503.322,281.095z"/>
	<g>
		
			<ellipse transform="matrix(-0.6787 -0.7344 0.7344 -0.6787 107.0326 507.5723)" style="fill:#7F8C8D;" cx="164.55" cy="230.372" rx="56.043" ry="67.567"/>
		
			<ellipse transform="matrix(-0.7344 -0.6787 0.6787 -0.7344 436.3237 631.4182)" style="fill:#7F8C8D;" cx="341.697" cy="230.343" rx="67.567" ry="56.043"/>
		<path style="fill:#7F8C8D;" d="M226.656,292.075l-13.656,15.824c-3.476,4.239-4.094,10.14-1.571,15.006s7.702,7.763,13.169,7.365
			h13.656c7.9,0.288,14.543-5.871,14.853-13.769v-15.824c-0.478-6.069-4.564-11.253-10.353-13.135
			C236.965,285.659,230.612,287.448,226.656,292.075L226.656,292.075z"/>
		<path style="fill:#7F8C8D;" d="M279.559,292.075l13.656,15.824c3.476,4.239,4.094,10.14,1.571,15.006s-7.702,7.763-13.169,7.365
			h-13.656c-7.9,0.288-14.543-5.871-14.853-13.769v-15.824c0.478-6.069,4.564-11.253,10.353-13.135S275.603,287.448,279.559,292.075
			L279.559,292.075z"/>
	</g>
</g>
<g>
</g>
<g>
</g>
<g>
</g>
<g>
</g>
<g>
</g>
<g>
</g>
<g>
</g>
<g>
</g>
<g>
</g>
<g>
</g>
<g>
</g>
<g>
</g>
<g>
</g>
<g>
</g>
<g>
</g>
</svg>
