<?xml version="1.0" encoding="iso-8859-1"?>
<!-- Generator: Adobe Illustrator 19.0.0, SVG Export Plug-In . SVG Version: 6.00 Build 0)  -->
<svg version="1.1" id="Capa_1" xmlns="http://www.w3.org/2000/svg" xmlns:xlink="http://www.w3.org/1999/xlink" x="0px" y="0px"
	 viewBox="0 0 503.322 503.322" style="enable-background:new 0 0 503.322 503.322;" xml:space="preserve">
<g>
	<path style="fill:#804169;" d="M451.255,337.139l-37.836,77.494c1.251,16.005,6.245,31.492,14.579,45.212
		c3.167,5.369,3.204,12.026,0.098,17.431c-3.106,5.405-8.877,8.723-15.111,8.69H90.338c-6.234,0.034-12.005-3.285-15.111-8.69
		c-3.106-5.405-3.069-12.062,0.098-17.431c8.334-13.72,13.328-29.207,14.579-45.212l-37.836-77.494
		c-22.653-34.39-34.722-74.67-34.712-115.851C17.356,99.102,122.273,0,251.661,0s234.305,99.102,234.305,221.288
		C485.977,262.469,473.908,302.749,451.255,337.139z"/>
	<path style="fill:#84B5CB;" d="M451.255,216.949v127.826c0.016,4.594-0.361,9.181-1.128,13.711
		c-3.405,18.853-13.251,35.938-27.856,48.336l-8.852,7.723v0.087l-56.754,49.812c-28.547,25.033-65.213,38.848-103.181,38.877
		h-3.645c-37.968-0.029-74.634-13.844-103.181-38.877l-56.754-49.812v-0.087l-8.852-7.723
		c-14.605-12.398-24.451-29.484-27.856-48.336c-0.767-4.53-1.144-9.117-1.128-13.711V216.949c0.017-47.92,38.86-86.762,86.78-86.78
		h130.69c5.166,0.027,10.072-2.267,13.364-6.248l38.183-45.82v34.712c0.028,9.574,7.782,17.328,17.356,17.356h26.034
		C412.395,130.187,451.237,169.029,451.255,216.949z"/>
	<g>
		<path style="fill:#804169;" d="M217.084,240.022c-4.053-0.007-7.562-2.815-8.458-6.767c-0.246-0.911-10.754-37.144-92.432-37.144
			c-0.847,0-1.746-0.03-2.551,0.013c-4.793,0.021-8.695-3.847-8.716-8.64c-0.021-4.793,3.847-8.695,8.64-8.716
			c99.924-1.11,111.576,48.686,112.017,50.801c0.982,4.69-2.023,9.287-6.712,10.271
			C218.284,239.961,217.685,240.022,217.084,240.022L217.084,240.022z"/>
		<path style="fill:#804169;" d="M288.593,239.942c-2.594-0.008-5.048-1.176-6.69-3.184c-1.642-2.008-2.3-4.645-1.793-7.189
			c0.432-2.093,11.763-50.814,109.39-50.814c0.873,0,1.746,0.004,2.627,0.013c4.793,0.021,8.661,3.923,8.64,8.716
			c-0.021,4.793-3.923,8.661-8.716,8.64c-0.85,0.046-1.702,0.042-2.551-0.013c-82.305,0-92.347,36.78-92.441,37.157
			C296.096,237.168,292.609,239.917,288.593,239.942z"/>
	</g>
	<g>
		<path style="fill:#65DDB9;" d="M108.046,242.51l0.014,0.056c36.183,94.169,93.886,52.204,106.364,41.514l-17.965-24.363
			c-8.253-11.192-21.369-17.75-35.274-17.638L108.046,242.51z"/>
		<path style="fill:#65DDB9;" d="M291.269,284.08c12.478,10.69,70.181,52.655,106.364-41.514l0.014-0.056l-53.257-0.431
			c-13.952-0.113-27.108,6.491-35.353,17.746L291.269,284.08z"/>
	</g>
	<g>
		<path style="fill:#547580;" d="M221.059,307.48c-3.743-0.002-7.063-2.403-8.237-5.958c-0.729-2.182-18.322-53.356-61.831-50.534
			c-50.051,3.364-64.508-3.39-67.737-5.542c-3.951-2.673-5.004-8.033-2.358-12.002c2.646-3.969,7.999-5.058,11.986-2.439
			l-0.009-0.004c0.119,0.004,12.551,5.678,56.949,2.674c57.153-3.928,78.593,59.72,79.483,62.428
			c0.858,2.643,0.402,5.536-1.229,7.786C226.445,306.139,223.837,307.473,221.059,307.48L221.059,307.48z"/>
		<path style="fill:#547580;" d="M284.627,307.488c-0.919,0-1.831-0.147-2.703-0.436c-4.553-1.494-7.034-6.395-5.542-10.949
			c0.89-2.708,22.102-66.352,79.492-62.428c45.102,3.017,57.271-2.881,57.39-2.941c1.896-1.252,4.216-1.688,6.437-1.21
			c2.221,0.478,4.156,1.831,5.368,3.752c2.586,4.095,1.418,9.506-2.627,12.169c-3.229,2.152-17.661,8.932-67.737,5.542
			c-43.975-2.729-61.652,49.987-61.831,50.521C291.705,305.076,288.379,307.488,284.627,307.488z"/>
		<path style="fill:#547580;" d="M272.033,372.069c-3.668-0.134-7.281-0.935-10.661-2.364l-1.288-0.466
			c-3.434-1.195-7.119-1.477-10.695-0.818c-1.528,0.33-3.032,0.766-4.5,1.305c-3.652,1.418-7.517,2.21-11.432,2.343
			c-8.522-0.901-16.369-5.053-21.907-11.593c-2.071-2.314-2.747-5.56-1.771-8.508c0.975-2.949,3.453-5.151,6.495-5.774
			c3.043-0.623,6.186,0.428,8.242,2.757c2.335,2.774,5.45,4.782,8.941,5.763c2.034-0.192,4.03-0.678,5.924-1.445
			c2.245-0.803,4.545-1.445,6.882-1.919c6.555-1.204,13.312-0.679,19.602,1.525l1.483,0.538c1.492,0.655,3.07,1.093,4.686,1.301
			c3.487-0.99,6.599-2.996,8.941-5.763c2.057-2.324,5.198-3.371,8.238-2.748c3.04,0.624,5.515,2.824,6.491,5.77
			s0.303,6.189-1.763,8.504C288.402,367.016,280.555,371.168,272.033,372.069z"/>
	</g>
	<g>
		<path style="fill:#E6E7E8;" d="M209.355,407.649v33.844c-14.191,0.008-27.489-6.929-35.603-18.572
			c-8.114-11.643-10.018-26.52-5.097-39.831L209.355,407.649z"/>
		<path style="fill:#E6E7E8;" d="M296.135,407.649v33.844c14.191,0.008,27.489-6.929,35.603-18.572
			c8.114-11.643,10.018-26.52,5.097-39.831L296.135,407.649z"/>
	</g>
	<path style="fill:#547580;" d="M252.745,424.137c-35.659,0.099-69.874-14.074-95.017-39.36l-41.288-41.284
		c-3.336-3.397-3.312-8.848,0.055-12.215c3.367-3.367,8.818-3.392,12.215-0.055l41.288,41.284
		c21.945,21.946,51.71,34.275,82.746,34.275s60.801-12.329,82.746-34.275l41.289-41.284c3.397-3.336,8.848-3.312,12.215,0.055
		c3.367,3.367,3.392,8.818,0.055,12.215l-41.288,41.284C322.619,410.062,288.404,424.236,252.745,424.137L252.745,424.137z"/>
</g>
<g>
</g>
<g>
</g>
<g>
</g>
<g>
</g>
<g>
</g>
<g>
</g>
<g>
</g>
<g>
</g>
<g>
</g>
<g>
</g>
<g>
</g>
<g>
</g>
<g>
</g>
<g>
</g>
<g>
</g>
</svg>
