<?xml version="1.0" encoding="iso-8859-1"?>
<!-- Generator: Adobe Illustrator 19.0.0, SVG Export Plug-In . SVG Version: 6.00 Build 0)  -->
<svg version="1.1" id="Capa_1" xmlns="http://www.w3.org/2000/svg" xmlns:xlink="http://www.w3.org/1999/xlink" x="0px" y="0px"
	 viewBox="0 0 503.28 503.28" style="enable-background:new 0 0 503.28 503.28;" xml:space="preserve">
<g>
	<g>
		<path style="fill:#804169;" d="M451.233,337.139l-37.836,77.494c1.251,16.005,6.245,31.492,14.579,45.212
			c3.167,5.369,3.204,12.026,0.098,17.431s-8.877,8.723-15.111,8.69H90.316c-6.234,0.034-12.005-3.285-15.111-8.69
			c-3.106-5.405-3.069-12.062,0.098-17.431c8.334-13.72,13.328-29.207,14.579-45.212l-37.836-77.494
			c-22.653-34.39-34.722-74.67-34.712-115.851C17.335,99.102,122.251,0,251.64,0s234.305,99.102,234.305,221.288
			C485.955,262.469,473.887,302.749,451.233,337.139z"/>
		<path style="fill:#84B5CB;" d="M451.276,216.907v127.826c0.016,4.594-0.361,9.181-1.128,13.711
			c-1.796,11.146-6.099,21.739-12.583,30.98c-4.306,6.431-9.442,12.267-15.273,17.356l-8.852,7.723v0.087l-56.754,49.811
			c-28.547,25.032-65.212,38.848-103.18,38.877h-3.646c-37.968-0.03-74.633-13.845-103.181-38.877l-56.754-49.811v-0.087
			l-8.852-7.723c-5.832-5.089-10.967-10.925-15.273-17.356c-6.485-9.242-10.787-19.835-12.583-30.98
			c-0.767-4.53-1.145-9.117-1.128-13.711V216.907c0.017-47.92,38.86-86.762,86.78-86.78h130.69
			c5.166,0.027,10.072-2.267,13.364-6.248l38.183-45.82v34.712c0.028,9.574,7.782,17.328,17.356,17.356h26.034
			C412.416,130.144,451.258,168.987,451.276,216.907z"/>
		<g>
			<path style="fill:#804169;" d="M217.063,240.022c-4.053-0.007-7.562-2.815-8.458-6.767c-0.246-0.911-10.754-37.144-92.432-37.144
				c-0.847,0-1.746-0.03-2.551,0.013c-4.793,0.021-8.695-3.847-8.716-8.64c-0.021-4.793,3.847-8.695,8.64-8.716
				c99.924-1.11,111.576,48.686,112.017,50.801c0.982,4.69-2.023,9.287-6.712,10.271
				C218.263,239.961,217.664,240.022,217.063,240.022L217.063,240.022z"/>
			<path style="fill:#804169;" d="M288.571,239.942c-2.594-0.008-5.048-1.176-6.69-3.184s-2.3-4.645-1.793-7.189
				c0.432-2.093,11.763-50.814,109.39-50.814c0.873,0,1.746,0.004,2.627,0.013c4.793,0.021,8.661,3.923,8.64,8.716
				c-0.021,4.793-3.923,8.661-8.716,8.64c-0.85,0.046-1.702,0.042-2.551-0.013c-82.305,0-92.347,36.78-92.441,37.157
				C296.075,237.168,292.588,239.917,288.571,239.942z"/>
		</g>
		<g>
			<path style="fill:#65DDB9;" d="M108.025,229.493l0.014,0.056c36.183,94.169,93.886,52.204,106.364,41.514L196.438,246.7
				c-8.253-11.192-21.369-17.75-35.274-17.638L108.025,229.493z"/>
			<path style="fill:#65DDB9;" d="M291.247,271.063c12.478,10.69,70.181,52.655,106.364-41.514l0.014-0.056l-53.257-0.431
				c-13.952-0.113-27.108,6.491-35.353,17.746L291.247,271.063z"/>
		</g>
		<g>
			<path style="fill:#547580;" d="M214.461,277.827c-3.199,0.003-6.139-1.754-7.653-4.572c-9.686-18.034-27-39.047-55.814-37.191
				c-14.524,1.129-29.112,1.184-43.644,0.165c-8.383-0.05-16.642-2.021-24.144-5.763c-3.921-2.604-5.051-7.859-2.547-11.844
				c2.504-3.986,7.728-5.248,11.776-2.846c5.268,1.901,10.801,2.967,16.398,3.161c13.65,0.937,27.35,0.874,40.992-0.186
				c39.737-2.809,62.356,27.843,72.271,46.292c1.445,2.688,1.372,5.937-0.193,8.557C220.339,276.22,217.513,277.825,214.461,277.827
				L214.461,277.827z"/>
			<path style="fill:#547580;" d="M291.156,277.827c-3.057-0.004-5.885-1.616-7.448-4.244c-1.562-2.627-1.627-5.883-0.171-8.57
				c9.992-18.436,32.864-48.958,72.347-46.263c13.661,1.055,27.381,1.116,41.051,0.182c5.553-0.162,11.043-1.227,16.254-3.153
				c1.884-1.27,4.2-1.727,6.425-1.268c2.225,0.459,4.171,1.796,5.397,3.709c2.614,4.077,1.492,9.495-2.525,12.199
				c-7.462,3.781-15.703,5.769-24.068,5.805c-14.552,1.01-29.159,0.956-43.703-0.161c-28.636-1.822-46.136,19.178-55.924,37.22
				C297.275,276.088,294.343,277.832,291.156,277.827L291.156,277.827z"/>
			<path style="fill:#547580;" d="M437.565,389.425c-4.306,6.431-9.442,12.267-15.273,17.356H356.86
				c-4.787,0.014-8.664,3.891-8.678,8.678v17.356c0,4.793-3.885,8.678-8.678,8.678c-4.793,0-8.678-3.885-8.678-8.678v-17.356
				c-0.014-4.787-3.891-8.664-8.678-8.678h-8.678c-4.787,0.014-8.664,3.891-8.678,8.678v17.356c0,4.793-3.885,8.678-8.678,8.678
				c-4.793,0-8.678-3.885-8.678-8.678v-17.356c-0.014-4.787-3.891-8.664-8.678-8.678h-8.678c-4.787,0.014-8.664,3.891-8.678,8.678
				v17.356c0,4.793-3.885,8.678-8.678,8.678c-4.793,0-8.678-3.885-8.678-8.678v-17.356c-0.014-4.787-3.891-8.664-8.678-8.678h-8.678
				c-4.787,0.014-8.664,3.891-8.678,8.678v17.356c0,4.793-3.885,8.678-8.678,8.678c-4.793,0-8.678-3.885-8.678-8.678v-17.356
				c-0.014-4.787-3.891-8.664-8.678-8.678H183.3c-4.787,0.014-8.664,3.891-8.678,8.678v17.356c0,4.793-3.885,8.678-8.678,8.678
				c-4.793,0-8.678-3.885-8.678-8.678v-17.356c-0.014-4.787-3.891-8.664-8.678-8.678H81.074
				c-5.832-5.089-10.967-10.925-15.273-17.356h39.398c4.787-0.014,8.664-3.891,8.678-8.678v-17.356c0-4.793,3.885-8.678,8.678-8.678
				c4.793,0,8.678,3.885,8.678,8.678v17.356c0.014,4.787,3.891,8.664,8.678,8.678h8.678c4.787-0.014,8.664-3.891,8.678-8.678
				v-17.356c0-4.793,3.885-8.678,8.678-8.678c4.793,0,8.678,3.885,8.678,8.678v17.356c0.014,4.787,3.891,8.664,8.678,8.678h8.678
				c4.787-0.014,8.664-3.891,8.678-8.678c0-4.793,3.885-8.678,8.678-8.678c4.793,0,8.678,3.885,8.678,8.678
				c0.014,4.787,3.891,8.664,8.678,8.678h8.678c4.787-0.014,8.664-3.891,8.678-8.678c0-4.793,3.885-8.678,8.678-8.678
				c4.793,0,8.678,3.885,8.678,8.678c0.014,4.787,3.891,8.664,8.678,8.678h8.678c4.787-0.014,8.664-3.891,8.678-8.678
				c0-4.793,3.885-8.678,8.678-8.678c4.793,0,8.678,3.885,8.678,8.678c0.014,4.787,3.891,8.664,8.678,8.678h8.678
				c4.787-0.014,8.664-3.891,8.678-8.678v-17.356c0-4.793,3.885-8.678,8.678-8.678c4.793,0,8.678,3.885,8.678,8.678v17.356
				c0.014,4.787,3.891,8.664,8.678,8.678h8.678c4.787-0.014,8.664-3.891,8.678-8.678v-17.356c0-4.793,3.885-8.678,8.678-8.678
				c4.793,0,8.678,3.885,8.678,8.678v17.356c0.014,4.787,3.891,8.664,8.678,8.678H437.565z"/>
		</g>
	</g>
	<path style="fill:#547580;" d="M244.767,344.203c5.366-2.248,11.411-2.248,16.777,0c6.903,2.927,14.791,2.361,21.206-1.522
		c7.399-5.106,7.399-15.318,0-25.53c-4.877-6.841-10.524-13.098-16.829-18.65c-7.437-6.045-18.094-6.045-25.531,0
		c-6.306,5.551-11.952,11.809-16.829,18.65c-7.399,10.212-7.399,20.424,0,25.53C229.975,346.564,237.864,347.13,244.767,344.203
		L244.767,344.203z"/>
</g>
<g>
</g>
<g>
</g>
<g>
</g>
<g>
</g>
<g>
</g>
<g>
</g>
<g>
</g>
<g>
</g>
<g>
</g>
<g>
</g>
<g>
</g>
<g>
</g>
<g>
</g>
<g>
</g>
<g>
</g>
</svg>
