<?xml version="1.0" encoding="iso-8859-1"?>
<!-- Generator: Adobe Illustrator 19.0.0, SVG Export Plug-In . SVG Version: 6.00 Build 0)  -->
<svg version="1.1" id="Capa_1" xmlns="http://www.w3.org/2000/svg" xmlns:xlink="http://www.w3.org/1999/xlink" x="0px" y="0px"
	 viewBox="0 0 512 512" style="enable-background:new 0 0 512 512;" xml:space="preserve">
<g transform="translate(-1)">
	<path style="fill:#2C2F38;" d="M53.966,348.69v110.345c-22.99-19.921-35.93-49.034-35.31-79.448V141.241
		c-0.01-37.463,14.867-73.394,41.357-99.884S122.434-0.01,159.897,0h194.207c37.463-0.01,73.394,14.867,99.884,41.357
		c26.49,26.49,41.368,62.422,41.357,99.884v238.345c0.619,30.414-12.32,59.528-35.31,79.448V348.69H53.966z"/>
	<path style="fill:#ECF0F1;" d="M460.034,150.069V350.72c0.016,4.673-0.368,9.34-1.148,13.948
		c-3.5,19.165-13.51,36.533-28.337,49.17l-66.736,58.615c-29.017,25.502-66.329,39.561-104.96,39.548h-3.708
		c-38.631,0.013-75.943-14.046-104.96-39.548L83.45,413.837c-14.827-12.637-24.837-30.005-28.337-49.17
		c-0.78-4.608-1.164-9.274-1.148-13.948V150.069c0,0,8.828-70.621,97.103-79.448S257,105.931,257,105.931
		s17.655-44.138,105.931-35.31S460.034,150.069,460.034,150.069z"/>
	<g>
		<path style="fill:#2C2F38;" d="M100.509,173.375c-3.57-0.001-6.788-2.152-8.154-5.45c-1.366-3.298-0.611-7.094,1.913-9.619
			c16.52-16.598,38.995-25.896,62.414-25.819c4.875,0,8.828,3.952,8.828,8.828c0,4.875-3.952,8.828-8.828,8.828
			c-18.733-0.064-36.714,7.371-49.931,20.647C105.097,172.447,102.85,173.378,100.509,173.375z"/>
		<path style="fill:#2C2F38;" d="M156.681,308.966c-4.875,0-8.828-3.952-8.828-8.828s3.952-8.828,8.828-8.828
			c18.736,0.063,36.718-7.372,49.94-20.647c2.226-2.251,5.486-3.138,8.545-2.324c3.059,0.814,5.448,3.203,6.262,6.262
			c0.813,3.059-0.074,6.32-2.325,8.545C202.58,299.745,180.102,309.042,156.681,308.966z"/>
	</g>
	<circle style="fill:#FFFFFF;" cx="156.683" cy="220.69" r="44.138"/>
	<g>
		<path style="fill:#2C2F38;" d="M156.716,229.517c-0.595,0.033-1.191-0.026-1.767-0.177c-0.567-0.108-1.126-0.256-1.672-0.444
			c-0.535-0.263-1.06-0.53-1.5-0.793c-0.481-0.335-0.926-0.719-1.328-1.147c-3.414-3.447-3.414-9.001,0-12.448
			c0.402-0.427,0.847-0.811,1.328-1.147c0.44-0.267,0.966-0.53,1.5-0.797c0.526-0.172,1.147-0.349,1.672-0.526
			c1.724-0.27,3.488-0.089,5.121,0.526c1.058,0.461,2.018,1.121,2.828,1.944c1.691,1.629,2.647,3.876,2.647,6.224
			c0,2.348-0.955,4.595-2.647,6.224c-0.809,0.823-1.769,1.482-2.828,1.94C159.003,229.324,157.863,229.535,156.716,229.517
			L156.716,229.517z"/>
		<path style="fill:#2C2F38;" d="M413.491,173.375c-2.342,0.003-4.588-0.928-6.241-2.587
			c-13.217-13.276-31.198-20.711-49.931-20.647c-4.875,0-8.828-3.952-8.828-8.828c0-4.875,3.952-8.828,8.828-8.828
			c23.418-0.077,45.894,9.221,62.414,25.819c2.524,2.525,3.279,6.321,1.913,9.619C420.28,171.223,417.062,173.374,413.491,173.375
			L413.491,173.375z"/>
		<path style="fill:#2C2F38;" d="M357.319,308.966c-23.421,0.077-45.899-9.22-62.422-25.819c-2.251-2.225-3.138-5.486-2.325-8.545
			c0.813-3.059,3.203-5.448,6.262-6.262c3.059-0.814,6.32,0.073,8.545,2.324c13.222,13.275,31.204,20.709,49.94,20.647
			c4.875,0,8.828,3.952,8.828,8.828S362.194,308.966,357.319,308.966z"/>
	</g>
	<circle style="fill:#FFFFFF;" cx="357.281" cy="220.69" r="44.138"/>
	<path style="fill:#2C2F38;" d="M357.276,229.517c-2.32,0.023-4.549-0.902-6.172-2.56c-1.696-1.626-2.655-3.874-2.655-6.224
		c0-2.35,0.959-4.598,2.655-6.224c3.469-3.353,8.971-3.353,12.44,0c3.414,3.447,3.414,9.001,0,12.448
		c-0.418,0.406-0.858,0.789-1.319,1.147c-0.535,0.263-0.974,0.53-1.5,0.793c-0.535,0.177-1.147,0.353-1.681,0.53
		C358.458,229.505,357.866,229.535,357.276,229.517L357.276,229.517z"/>
	<path style="fill:#FFFFFF;" d="M422.959,320.618c-20.834,23.305-77.771,86.157-82.627,104.607
		c-7.591,28.425-22.775,42.637-83.332,42.637s-75.741-14.212-83.332-42.637c-4.855-18.45-61.793-81.302-82.627-104.607
		c-2.091-2.598-2.131-6.289-0.097-8.932c2.034-2.642,5.613-3.548,8.659-2.191l79.66,43.149c8.165,4.496,17.565,6.232,26.797,4.947
		c16.879-2.318,33.902-3.434,50.939-3.34c17.038-0.095,34.061,1.021,50.94,3.34c9.232,1.285,18.632-0.451,26.797-4.947l79.66-43.149
		c3.046-1.356,6.624-0.45,8.658,2.192C425.089,314.329,425.049,318.02,422.959,320.618L422.959,320.618z"/>
	<path style="fill:#ECF0F1;" d="M309.966,397.241v-8.828c0-4.875-3.952-8.828-8.828-8.828s-8.828,3.952-8.828,8.828v8.828h-17.655
		c0-4.875-3.952-8.828-8.828-8.828S257,392.366,257,397.241h-44.138c-4.875,0-8.828,3.952-8.828,8.828s3.952,8.828,8.828,8.828H257
		c0,4.875,3.952,8.828,8.828,8.828s8.828-3.952,8.828-8.828h17.655v8.828c0,4.875,3.952,8.828,8.828,8.828s8.828-3.952,8.828-8.828
		v-8.828c4.875,0,8.828-3.952,8.828-8.828S314.841,397.241,309.966,397.241z"/>
</g>
<g>
</g>
<g>
</g>
<g>
</g>
<g>
</g>
<g>
</g>
<g>
</g>
<g>
</g>
<g>
</g>
<g>
</g>
<g>
</g>
<g>
</g>
<g>
</g>
<g>
</g>
<g>
</g>
<g>
</g>
</svg>
