<?xml version="1.0" encoding="iso-8859-1"?>
<!-- Generator: Adobe Illustrator 19.0.0, SVG Export Plug-In . SVG Version: 6.00 Build 0)  -->
<svg version="1.1" id="Capa_1" xmlns="http://www.w3.org/2000/svg" xmlns:xlink="http://www.w3.org/1999/xlink" x="0px" y="0px"
	 viewBox="0 0 503.757 503.757" style="enable-background:new 0 0 503.757 503.757;" xml:space="preserve">
<g>
	<g>
		<path style="fill:#35495E;" d="M503.446,286.2c0.085,82.274-34.282,160.826-94.763,216.602l-154.294,0.521h-4.165l-153.774,0.434
			C35.573,448.395,0.696,370.047,0.297,287.763l0.087-10.761C2.554,123.923,113.718,0.435,251.004,0.001
			S500.148,122.36,503.359,275.44L503.446,286.2z"/>
		<path style="fill:#ECF0F1;" d="M451.35,242.373l0.096,31.501c0.094,31.67-14.215,61.664-38.888,81.519
			c-30.905,24.827-70.606,67.384-81.443,127.469c-23.377,13.347-49.819,20.395-76.738,20.455l-3.645,0.011
			c-26.945,0.094-53.454-6.791-76.948-19.984c-11.118-60.018-51.079-102.331-82.135-126.968
			c-24.795-19.703-39.287-49.61-39.387-81.279l-0.096-31.501c-0.011-3.627,0.109-7.251,0.361-10.872
			c0.248-3.565,0.625-7.118,1.131-10.659c0.5-3.494,1.124-6.966,1.874-10.418c0.742-3.413,1.606-6.796,2.592-10.149
			c0.977-3.322,2.071-6.606,3.282-9.853c1.202-3.222,2.518-6.398,3.946-9.53c1.419-3.112,2.947-6.172,4.582-9.179
			c1.628-2.993,3.359-5.926,5.192-8.801c1.827-2.864,3.753-5.662,5.776-8.395c0.959-1.295,1.9-2.652,2.972-3.853
			c1.024-1.148,1.856-2.457,2.929-3.564c1.422-1.264,3.012-2.325,4.725-3.152c1.493-0.878,2.995-1.741,4.506-2.589
			c2.87-1.608,5.769-3.161,8.698-4.66c2.968-1.52,5.964-2.985,8.987-4.396c3.063-1.43,6.15-2.804,9.263-4.123
			c3.153-1.337,6.329-2.618,9.528-3.842c3.24-1.241,6.5-2.426,9.781-3.554c3.322-1.143,6.663-2.228,10.023-3.257
			c3.4-1.041,6.818-2.025,10.252-2.952c3.475-0.938,6.965-1.817,10.47-2.639c3.546-0.831,7.105-1.604,10.677-2.317
			c3.613-0.722,7.236-1.385,10.871-1.988c3.675-0.61,7.36-1.16,11.054-1.651c3.734-0.496,7.476-0.931,11.225-1.305
			c3.789-0.379,7.584-0.696,11.385-0.951c3.841-0.259,7.685-0.455,11.533-0.59c3.849-0.135,7.7-0.208,11.552-0.219
			c2.071-0.006,4.141,0.005,6.212,0.034c2.059,0.029,4.117,0.075,6.176,0.14c2.047,0.064,4.092,0.145,6.138,0.244
			c2.034,0.098,4.066,0.214,6.098,0.347c2.02,0.133,4.039,0.282,6.057,0.45c2.006,0.166,4.011,0.35,6.014,0.551
			c1.992,0.2,3.981,0.417,5.969,0.651c1.976,0.233,3.95,0.482,5.922,0.749c1.96,0.265,3.919,0.548,5.874,0.847
			c1.944,0.298,3.885,0.612,5.824,0.943c1.927,0.329,3.851,0.676,5.773,1.039c1.91,0.361,3.816,0.738,5.719,1.133
			c1.892,0.392,3.78,0.801,5.664,1.226c1.873,0.423,3.742,0.862,5.607,1.318c1.854,0.453,3.703,0.922,5.549,1.408
			c1.834,0.483,3.663,0.982,5.488,1.498c1.814,0.512,3.622,1.041,5.426,1.586c1.793,0.542,3.58,1.099,5.363,1.674
			c1.771,0.57,3.537,1.157,5.297,1.76c1.749,0.599,3.492,1.214,5.23,1.845c1.726,0.627,3.447,1.27,5.161,1.929
			c1.703,0.654,3.4,1.325,5.091,2.011c1.679,0.682,3.352,1.379,5.018,2.093c1.655,0.709,3.303,1.433,4.944,2.173
			c1.63,0.735,3.253,1.486,4.868,2.252c1.604,0.761,3.201,1.538,4.791,2.33c1.578,0.787,3.149,1.589,4.712,2.407
			c1.552,0.812,3.095,1.64,4.631,2.483c1.525,0.837,3.041,1.69,4.548,2.558c1.497,0.862,2.985,1.739,4.464,2.631
			c0.493,0.255,0.94,0.591,1.321,0.994c1.186,1.395,2.348,2.813,3.484,4.254c1.117,1.413,2.209,2.846,3.274,4.299
			c1.066,1.454,2.105,2.928,3.116,4.421c1.013,1.495,1.998,3.007,2.955,4.539c0.958,1.533,1.888,3.084,2.79,4.652
			c0.903,1.571,1.776,3.158,2.621,4.762c0.846,1.607,1.662,3.229,2.447,4.867c0.787,1.642,1.544,3.298,2.27,4.969
			c0.728,1.675,1.424,3.364,2.088,5.066c0.667,1.708,1.301,3.427,1.903,5.159c0.604,1.738,1.175,3.488,1.713,5.248
			c0.54,1.768,1.047,3.546,1.52,5.333c0.475,1.796,0.916,3.601,1.322,5.414c0.409,1.823,0.782,3.654,1.121,5.491
			c0.341,1.849,0.646,3.703,0.915,5.564c0.271,1.873,0.506,3.751,0.705,5.633c0.201,1.896,0.364,3.795,0.492,5.698
			c0.128,1.917,0.22,3.837,0.274,5.758C451.327,239.838,451.347,241.105,451.35,242.373z"/>
		<g>
			<path style="fill:#2C2F38;" d="M173.784,483.343c-9.392-5.282-18.221-11.506-26.351-18.577l-26.713-23.348
				c-10.815-9.323-22.362-17.761-34.53-25.234C35.241,384.751,2.472,339.032,0.319,287.751c-0.092-1.649-0.097-3.298-0.102-4.946
				c-0.006-1.909,0.075-3.905,0.156-5.815c2.099-51.467,35.194-97.475,86.645-128.96c-22.672,26.662-35.038,60.567-34.854,95.565
				l0.096,31.501c0.1,31.67,14.592,61.576,39.387,81.279C122.705,381.012,162.666,423.326,173.784,483.343z"/>
			<path style="fill:#2C2F38;" d="M503.538,281.265c0.005,1.649,0.01,3.298-0.072,4.946c-1.839,51.292-34.328,97.212-85.083,128.955
				c-12.121,7.547-23.616,16.057-34.374,25.445l-26.569,23.512c-8.087,7.121-16.878,13.399-26.237,18.738
				c10.75-60.085,50.452-102.642,81.357-127.468c24.673-19.854,38.982-49.849,38.888-81.519l-0.096-31.501
				c-0.03-34.998-12.603-68.827-35.438-95.35c51.643,31.169,85.019,76.974,87.433,128.427
				C503.439,277.36,503.532,279.355,503.538,281.265z"/>
			<path style="fill:#2C2F38;" d="M95.581,253.812L95.581,253.812c0.005,9.243,3.699,18.102,10.261,24.612l6.463,6.422
				c6.596,6.543,15.512,10.212,24.803,10.207l0,0c7.973,0.004,15.625-3.145,21.286-8.76l0,0
				c12.032-11.95,22.054-25.765,29.68-40.911l22.058-43.83c4.562-9.061,6.939-19.064,6.94-29.209v-0.005
				c-0.045-13.748-11.226-24.856-24.973-24.811h-0.09c-9.438-0.013-18.079,5.292-22.337,13.715l-0.001,0.003
				c-13.242,26.29-32.43,49.132-56.04,66.712l-8.061,6.006C99.292,238.63,95.588,245.989,95.581,253.812L95.581,253.812z"/>
			<path style="fill:#2C2F38;" d="M407.988,253.812L407.988,253.812c-0.005,9.243-3.699,18.102-10.261,24.612l-6.463,6.422
				c-6.596,6.543-15.512,10.212-24.803,10.207l0,0c-7.973,0.004-15.625-3.145-21.286-8.76l0,0
				c-12.032-11.95-22.054-25.765-29.68-40.911l-22.058-43.83c-4.562-9.061-6.939-19.064-6.94-29.209v-0.005
				c0.045-13.748,11.226-24.856,24.973-24.811h0.09c9.438-0.013,18.079,5.292,22.337,13.715l0.001,0.003
				c13.242,26.29,32.43,49.132,56.04,66.712l8.061,6.006C404.278,238.63,407.981,245.989,407.988,253.812L407.988,253.812z"/>
			<path style="fill:#2C2F38;" d="M295.175,363.808c0,23.595-19.426,96.125-43.39,96.125s-43.39-72.53-43.39-96.125
				c0.367-23.701,19.686-42.723,43.39-42.723S294.807,340.107,295.175,363.808L295.175,363.808z"/>
		</g>
	</g>
	<path style="fill:#2C2F38;" d="M243.828,284.542c5.366-2.248,11.411-2.248,16.777,0c6.903,2.927,14.791,2.361,21.206-1.522
		c7.399-5.106,7.399-15.318,0-25.53c-4.877-6.841-10.524-13.098-16.829-18.65c-7.437-6.045-18.094-6.045-25.531,0
		c-6.306,5.551-11.952,11.809-16.829,18.65c-7.399,10.212-7.399,20.424,0,25.53C229.036,286.903,236.925,287.469,243.828,284.542
		L243.828,284.542z"/>
</g>
<g>
</g>
<g>
</g>
<g>
</g>
<g>
</g>
<g>
</g>
<g>
</g>
<g>
</g>
<g>
</g>
<g>
</g>
<g>
</g>
<g>
</g>
<g>
</g>
<g>
</g>
<g>
</g>
<g>
</g>
</svg>
