<?xml version="1.0" encoding="iso-8859-1"?>
<!-- Generator: Adobe Illustrator 19.0.0, SVG Export Plug-In . SVG Version: 6.00 Build 0)  -->
<svg version="1.1" id="Capa_1" xmlns="http://www.w3.org/2000/svg" xmlns:xlink="http://www.w3.org/1999/xlink" x="0px" y="0px"
	 viewBox="0 0 512 512" style="enable-background:new 0 0 512 512;" xml:space="preserve">
<g>
	<path style="fill:#804169;" d="M459.034,342.952l-38.488,78.83c1.272,16.281,6.352,32.035,14.83,45.992
		c3.222,5.462,3.26,12.234,0.1,17.732c-3.16,5.498-9.03,8.874-15.371,8.839H91.895c-6.341,0.034-12.212-3.342-15.371-8.839
		c-3.16-5.498-3.122-12.27,0.1-17.732c8.478-13.957,13.558-29.711,14.83-45.992l-38.488-78.83
		c-23.044-34.983-35.321-75.957-35.31-117.848C17.655,100.811,124.381,0,256,0s238.345,100.811,238.345,225.103
		C494.355,266.994,482.078,307.968,459.034,342.952z"/>
	<path style="fill:#84B5CB;" d="M459.034,220.69v130.03c0.016,4.673-0.367,9.34-1.148,13.948
		c-3.464,19.178-13.48,36.558-28.337,49.17l-9.004,7.857v0.088l-57.732,50.67c-29.039,25.465-66.337,39.518-104.96,39.548h-3.708
		c-38.623-0.03-75.921-14.083-104.96-39.548l-57.732-50.67v-0.088l-9.004-7.857c-14.857-12.612-24.873-29.992-28.337-49.17
		c-0.78-4.608-1.164-9.274-1.148-13.948V220.69c0.018-48.746,39.53-88.258,88.276-88.276h132.943
		c5.255,0.027,10.245-2.306,13.595-6.356l38.841-46.61v35.31c0.029,9.739,7.916,17.627,17.655,17.655h26.483
		C419.505,132.431,459.017,171.944,459.034,220.69z"/>
	<g>
		<path style="fill:#65DDB9;" d="M108.806,234.039l0.014,0.057c36.807,95.793,95.505,53.104,108.198,42.23l-18.275-24.784
			c-8.395-11.385-21.738-18.056-35.882-17.942L108.806,234.039z"/>
		<path style="fill:#65DDB9;" d="M295.188,276.326c12.693,10.874,71.391,53.563,108.198-42.23l0.014-0.057l-54.175-0.438
			c-14.193-0.115-27.575,6.603-35.963,18.052L295.188,276.326z"/>
	</g>
	<g>
		<path style="fill:#547580;" d="M223.767,300.129c-3.808-0.002-7.185-2.445-8.379-6.06c-0.742-2.22-18.638-54.276-62.897-51.405
			c-50.914,3.422-65.621-3.448-68.905-5.638c-4.019-2.719-5.091-8.171-2.399-12.209c2.692-4.037,8.137-5.145,12.192-2.481
			l-0.009-0.004c0.121,0.004,12.767,5.776,57.931,2.72c58.138-3.996,79.948,60.75,80.853,63.504c0.873,2.688,0.409,5.632-1.25,7.92
			C229.246,298.765,226.593,300.122,223.767,300.129L223.767,300.129z"/>
		<path style="fill:#547580;" d="M288.431,300.138c-0.935,0-1.863-0.15-2.75-0.444c-4.631-1.52-7.155-6.506-5.638-11.138
			c0.905-2.754,22.483-67.496,80.862-63.504c45.879,3.069,58.259-2.931,58.379-2.991c1.929-1.273,4.289-1.717,6.548-1.23
			s4.227,1.862,5.461,3.817c2.631,4.165,1.442,9.67-2.672,12.379c-3.284,2.189-17.966,9.086-68.905,5.638
			c-44.733-2.776-62.715,50.849-62.897,51.392C295.632,297.684,292.248,300.137,288.431,300.138z"/>
		<path style="fill:#547580;" d="M423.724,322.03v27.277c0.004,13.539-6.212,26.33-16.861,34.692l-73.092,57.468
			c-19.803,15.481-43.851,24.565-68.943,26.041v0.353h-17.655v-0.353c-25.093-1.477-49.141-10.56-68.943-26.041L105.137,384
			c-10.649-8.362-16.865-21.153-16.861-34.692V322.03c0.016-6.32,3.401-12.151,8.88-15.3c5.479-3.149,12.222-3.138,17.691,0.029
			l2.119,1.236l44.226,25.865c20.764,12.118,44.288,18.713,68.326,19.156c0.971,0.088,1.942,0.088,2.913,0.088h47.139
			c0.971,0,1.942,0,2.913-0.088c24.038-0.443,47.561-7.038,68.326-19.156l44.226-25.865l2.119-1.236
			c5.469-3.167,12.212-3.178,17.691-0.029C420.323,309.879,423.708,315.711,423.724,322.03z"/>
	</g>
	<path style="fill:#B0D3F0;" d="M395.034,307.994l-17.037,60.204l-33.457-27.895l-35.575,56.938l-26.483-44.138L256,406.069
		l-26.483-52.966l-26.483,44.138l-35.575-56.938l-33.457,27.895l-17.037-60.204l44.226,25.865
		c20.764,12.118,44.288,18.713,68.326,19.156c0.971,0.088,1.942,0.088,2.913,0.088h47.139c0.971,0,1.942,0,2.913-0.088
		c24.038-0.443,47.561-7.038,68.326-19.156L395.034,307.994z"/>
	<g>
		<path style="fill:#804169;" d="M219.621,230.047c-4.123-0.005-7.694-2.862-8.603-6.884c-0.25-0.94-11.466-38.72-96.547-37.772
			h-0.078c-4.875,0.021-8.845-3.913-8.866-8.789c-0.021-4.875,3.913-8.845,8.789-8.866c101.711-1.086,113.504,49.53,113.957,51.677
			c0.995,4.772-2.065,9.449-6.836,10.448C220.838,229.985,220.23,230.047,219.621,230.047z"/>
		<path style="fill:#804169;" d="M292.362,229.965c-2.639-0.007-5.137-1.194-6.809-3.237c-1.671-2.043-2.341-4.726-1.825-7.315
			c0.448-2.129,11.97-51.69,111.284-51.69c0.884,0,1.772,0.004,2.672,0.013c4.875,0.021,8.81,3.991,8.789,8.866
			c-0.021,4.875-3.991,8.81-8.866,8.789c-0.785,0.082-1.741-0.009-2.599-0.013c-83.72,0-93.935,37.414-94.03,37.797
			C299.995,227.143,296.448,229.938,292.362,229.965L292.362,229.965z"/>
	</g>
</g>
<g>
</g>
<g>
</g>
<g>
</g>
<g>
</g>
<g>
</g>
<g>
</g>
<g>
</g>
<g>
</g>
<g>
</g>
<g>
</g>
<g>
</g>
<g>
</g>
<g>
</g>
<g>
</g>
<g>
</g>
</svg>
