<?xml version="1.0" encoding="iso-8859-1"?>
<!-- Generator: Adobe Illustrator 19.0.0, SVG Export Plug-In . SVG Version: 6.00 Build 0)  -->
<svg version="1.1" id="Capa_1" xmlns="http://www.w3.org/2000/svg" xmlns:xlink="http://www.w3.org/1999/xlink" x="0px" y="0px"
	 viewBox="0 0 512.004 512.004" style="enable-background:new 0 0 512.004 512.004;" xml:space="preserve">
<g>
	<path style="fill:#FB7B76;" d="M220.072,17.969h76.441c14.322-0.018,28.06,5.671,38.175,15.809l3.234,3.234
		c5.057,5.043,11.901,7.884,19.043,7.905h5.749c16.475,0.032,30.828,11.24,34.852,27.217l0.719,2.964
		c0.818,3.397,3.872,5.78,7.366,5.749c5.996,0.023,11.812,2.046,16.528,5.749c4.767,3.653,8.155,8.815,9.611,14.641l2.964,12.036
		c0.538,2.241,2.055,4.121,4.132,5.12c9.053,4.497,14.815,13.696,14.911,23.804l0.449,37.457H220.072V17.969z"/>
	<path style="fill:#804169;" d="M440.951,494.039H106.983c-6.452,0.035-12.426-3.4-15.641-8.995
		c-3.215-5.594-3.177-12.485,0.101-18.043c8.627-14.202,13.796-30.232,15.091-46.799L67.37,339.99
		c-23.448-35.597-35.94-77.29-35.93-119.916c0-102.939,55.242-189.081,153.331-217.825c5.522-1.557,11.24-2.313,16.977-2.246
		c6.112,0.013,12.105,1.689,17.336,4.851l25.51,15.27c1.362,0.808,2.602,1.806,3.683,2.964c4.314,4.438,6.014,10.798,4.491,16.797
		l-0.18,0.629c-1.342,5.371-0.138,11.061,3.264,15.428c3.403,4.367,8.625,6.926,14.162,6.938h12.935
		c9.91,0.029,17.936,8.055,17.965,17.965v11.947c0.015,8.279,6.722,14.986,15.001,15.001L441.4,420.203
		c1.295,16.566,6.464,32.597,15.091,46.799c3.278,5.558,3.317,12.448,0.102,18.043C453.376,490.639,447.403,494.074,440.951,494.039
		z"/>
	<path style="fill:#84B5CB;" d="M480.563,215.583v132.312c0.017,4.755-0.374,9.504-1.168,14.192
		c-3.525,19.514-13.716,37.199-28.834,50.032l-9.162,7.994v0.09l-58.745,51.559c-29.549,25.911-67.501,40.211-106.801,40.241h-3.773
		c-39.3-0.03-77.253-14.33-106.801-40.241l-58.745-51.559v-0.09l-9.162-7.994c-15.117-12.833-25.309-30.518-28.834-50.032
		c-0.794-4.689-1.184-9.437-1.168-14.192V215.583c0.018-49.601,40.223-89.807,89.825-89.825h135.276
		c5.343,0.009,10.413-2.361,13.833-6.467l3.593-4.312l6.018-7.186h11.947c9.91,0.029,17.936,8.055,17.965,17.965v8.982
		c0.029,9.91,8.055,17.936,17.965,17.965h53.266c6-0.02,11.607,2.986,14.911,7.994l7.366,10.959
		c3.304,5.009,8.91,8.014,14.911,7.994h6.018c7.966-0.119,15.027,5.104,17.246,12.755
		C479.535,199.967,480.562,207.758,480.563,215.583L480.563,215.583z"/>
	<path style="fill:#547580;" d="M293.932,377.267c-3.797-0.138-7.536-0.968-11.035-2.447l-1.333-0.482
		c-3.554-1.237-7.369-1.528-11.07-0.846c-1.582,0.342-3.138,0.793-4.658,1.351c-3.78,1.467-7.781,2.287-11.833,2.425
		c-8.821-0.933-16.943-5.231-22.675-12c-2.144-2.396-2.843-5.755-1.833-8.807c1.01-3.052,3.574-5.332,6.723-5.976
		c3.149-0.645,6.403,0.444,8.531,2.853c2.417,2.871,5.641,4.95,9.254,5.965c2.106-0.198,4.171-0.702,6.132-1.496
		c2.324-0.831,4.704-1.495,7.123-1.987c6.785-1.247,13.779-0.702,20.289,1.579l1.535,0.557c1.544,0.678,3.178,1.132,4.851,1.346
		c3.609-1.025,6.831-3.101,9.254-5.965c2.129-2.405,5.381-3.49,8.527-2.844c3.147,0.646,5.709,2.923,6.719,5.972
		c1.01,3.049,0.314,6.406-1.825,8.802C310.875,372.037,302.753,376.335,293.932,377.267z"/>
	<g>
		<path style="fill:#D75E72;" d="M220.072,305.408c-2.382,0.001-4.668-0.946-6.352-2.63c-1.685-1.685-2.631-3.97-2.63-6.352V242.53
			c0-4.961,4.022-8.982,8.982-8.982c4.961,0,8.982,4.022,8.982,8.982v53.895c0.001,2.382-0.946,4.668-2.63,6.352
			C224.74,304.462,222.454,305.408,220.072,305.408L220.072,305.408z"/>
		<path style="fill:#D75E72;" d="M327.861,305.408c-2.382,0.001-4.668-0.946-6.352-2.63c-1.685-1.685-2.631-3.97-2.63-6.352V242.53
			c0-4.961,4.022-8.982,8.982-8.982c4.961,0,8.982,4.022,8.982,8.982v53.895c0.001,2.382-0.946,4.668-2.63,6.352
			C332.529,304.462,330.244,305.408,327.861,305.408L327.861,305.408z"/>
		<path style="fill:#D75E72;" d="M193.125,332.355c-2.382,0.001-4.668-0.946-6.352-2.63c-1.685-1.685-2.631-3.97-2.63-6.352v-26.947
			c0-4.961,4.022-8.982,8.982-8.982c4.961,0,8.982,4.022,8.982,8.982v26.947c0.001,2.382-0.946,4.668-2.63,6.352
			C197.792,331.409,195.507,332.356,193.125,332.355L193.125,332.355z"/>
		<path style="fill:#D75E72;" d="M363.791,332.355c-2.382,0.001-4.668-0.946-6.352-2.63c-1.685-1.685-2.631-3.97-2.63-6.352v-17.965
			c0-4.961,4.022-8.982,8.982-8.982s8.982,4.022,8.982,8.982v17.965c0.001,2.382-0.946,4.668-2.63,6.352
			C368.459,331.409,366.174,332.356,363.791,332.355L363.791,332.355z"/>
	</g>
	<path style="fill:#547580;" d="M336.844,444.636c0,22.324-28.151,22.456-62.877,22.456s-62.877-0.132-62.877-22.456
		s28.151-40.421,62.877-40.421S336.844,422.312,336.844,444.636z"/>
	<g>
		<path style="fill:#D75E72;" d="M336.844,98.811c-4.961,0-8.982-4.022-8.982-8.982c0-4.961,4.022-8.982,8.982-8.982
			c4.959-0.005,8.978-4.024,8.982-8.982v-8.982c0-4.961,4.022-8.982,8.982-8.982c4.961,0,8.982,4.022,8.982,8.982v8.982
			C363.775,86.74,351.72,98.795,336.844,98.811z"/>
		<path style="fill:#D75E72;" d="M390.739,143.723c-4.961,0-8.982-4.022-8.982-8.982c0-4.961,4.022-8.982,8.982-8.982
			c4.959-0.005,8.978-4.024,8.982-8.982V98.811c0-4.961,4.022-8.982,8.982-8.982c4.961,0,8.982,4.022,8.982,8.982v17.965
			C417.67,131.652,405.615,143.707,390.739,143.723z"/>
		<path style="fill:#D75E72;" d="M309.897,114.98v64.674c0,4.961-4.022,8.982-8.982,8.982s-8.982-4.022-8.982-8.982v-53.895h0.539
			c5.343,0.009,10.413-2.361,13.833-6.467L309.897,114.98z"/>
		<path style="fill:#D75E72;" d="M273.967,125.759v26.947c0,4.961-4.022,8.982-8.982,8.982c-4.961,0-8.982-4.022-8.982-8.982
			v-26.947H273.967z"/>
		<path style="fill:#D75E72;" d="M399.721,341.337c-2.382,0.001-4.668-0.946-6.352-2.63c-1.685-1.685-2.631-3.97-2.63-6.352v-35.93
			c0-4.961,4.022-8.982,8.982-8.982c4.961,0,8.982,4.022,8.982,8.982v35.93c0.001,2.382-0.946,4.668-2.63,6.352
			C404.389,340.392,402.104,341.338,399.721,341.337z"/>
		<path style="fill:#D75E72;" d="M139.23,350.32c-2.382,0.001-4.668-0.946-6.352-2.63c-1.685-1.685-2.631-3.97-2.63-6.352v-52.189
			c0-4.961,4.022-8.982,8.982-8.982c4.961,0,8.982,4.022,8.982,8.982v52.189c0.001,2.382-0.946,4.668-2.63,6.352
			C143.897,349.374,141.612,350.321,139.23,350.32L139.23,350.32z"/>
		<path style="fill:#D75E72;" d="M139.23,404.215c-2.382,0.001-4.668-0.946-6.352-2.63c-1.685-1.685-2.631-3.97-2.63-6.352v-8.982
			c0-4.961,4.022-8.982,8.982-8.982c4.961,0,8.982,4.022,8.982,8.982v8.982c0.001,2.382-0.946,4.668-2.63,6.352
			C143.897,403.269,141.612,404.215,139.23,404.215z"/>
	</g>
	<g>
		<circle style="fill:#65DDB9;" cx="170.668" cy="247.022" r="58.386"/>
		<circle style="fill:#65DDB9;" cx="377.265" cy="247.022" r="58.386"/>
	</g>
</g>
<g>
</g>
<g>
</g>
<g>
</g>
<g>
</g>
<g>
</g>
<g>
</g>
<g>
</g>
<g>
</g>
<g>
</g>
<g>
</g>
<g>
</g>
<g>
</g>
<g>
</g>
<g>
</g>
<g>
</g>
</svg>
