<?xml version="1.0" encoding="iso-8859-1"?>
<!-- Generator: Adobe Illustrator 19.0.0, SVG Export Plug-In . SVG Version: 6.00 Build 0)  -->
<svg version="1.1" id="Capa_1" xmlns="http://www.w3.org/2000/svg" xmlns:xlink="http://www.w3.org/1999/xlink" x="0px" y="0px"
	 viewBox="0 0 512.004 512.004" style="enable-background:new 0 0 512.004 512.004;" xml:space="preserve">
<g>
	<path style="fill:#FB7B76;" d="M220.072,17.969h76.441c14.322-0.018,28.06,5.671,38.175,15.809l3.234,3.234
		c5.057,5.043,11.901,7.884,19.043,7.905h5.749c16.475,0.032,30.828,11.24,34.852,27.217l0.719,2.964
		c0.818,3.397,3.872,5.78,7.366,5.749c5.996,0.023,11.812,2.046,16.528,5.749c4.767,3.653,8.155,8.815,9.611,14.641l2.964,12.036
		c0.538,2.241,2.055,4.121,4.132,5.12c9.053,4.497,14.815,13.696,14.911,23.804l0.449,37.457H220.072V17.969z"/>
	<path style="fill:#804169;" d="M440.951,494.039H106.983c-6.452,0.035-12.426-3.4-15.641-8.995
		c-3.215-5.594-3.177-12.485,0.101-18.043c8.627-14.202,13.796-30.232,15.091-46.799L67.37,339.99
		c-23.448-35.597-35.94-77.29-35.93-119.916c0-102.939,55.242-189.081,153.331-217.825c5.522-1.557,11.24-2.313,16.977-2.246
		c6.112,0.013,12.105,1.689,17.336,4.851l25.51,15.27c1.362,0.808,2.602,1.806,3.683,2.964c4.314,4.438,6.014,10.798,4.491,16.797
		l-0.18,0.629c-1.342,5.371-0.138,11.061,3.264,15.428c3.403,4.367,8.625,6.926,14.162,6.938h12.935
		c9.91,0.029,17.936,8.055,17.965,17.965v11.947c0.015,8.279,6.722,14.986,15.001,15.001L441.4,420.203
		c1.295,16.566,6.464,32.597,15.091,46.799c3.278,5.558,3.317,12.448,0.102,18.043C453.376,490.639,447.403,494.074,440.951,494.039
		z"/>
	<path style="fill:#84B5CB;" d="M480.563,215.583v132.312c0.017,4.755-0.374,9.504-1.168,14.192
		c-1.954,11.963-6.658,23.31-13.743,33.145c-4.348,6.203-9.413,11.871-15.091,16.887l-1.258,1.078l-7.905,6.917v0.09l-58.745,51.559
		c-29.549,25.911-67.501,40.211-106.801,40.241h-3.773c-39.3-0.03-77.253-14.33-106.801-40.241l-58.745-51.559v-0.09l-7.905-6.917
		l-1.258-1.078c-5.677-5.016-10.742-10.684-15.091-16.887c-7.085-9.836-11.789-21.182-13.743-33.145
		c-0.794-4.689-1.184-9.437-1.168-14.192V215.583c0.018-49.601,40.223-89.807,89.825-89.825h135.276
		c5.343,0.009,10.413-2.361,13.833-6.467l3.593-4.312l6.018-7.186h11.947c9.91,0.029,17.936,8.055,17.965,17.965v8.982
		c0.029,9.91,8.055,17.936,17.965,17.965h53.266c6-0.02,11.607,2.986,14.911,7.994l7.366,10.959
		c3.304,5.009,8.91,8.014,14.911,7.994h6.018c7.966-0.119,15.027,5.104,17.246,12.755
		C479.535,199.967,480.562,207.758,480.563,215.583L480.563,215.583z"/>
	<g>
		<path style="fill:#D75E72;" d="M336.844,98.811c-4.961,0-8.982-4.022-8.982-8.982c0-4.961,4.022-8.982,8.982-8.982
			c4.959-0.005,8.978-4.024,8.982-8.982v-8.982c0-4.961,4.022-8.982,8.982-8.982c4.961,0,8.982,4.022,8.982,8.982v8.982
			C363.775,86.74,351.72,98.795,336.844,98.811z"/>
		<path style="fill:#D75E72;" d="M390.739,143.723c-4.961,0-8.982-4.022-8.982-8.982c0-4.961,4.022-8.982,8.982-8.982
			c4.959-0.005,8.978-4.024,8.982-8.982V98.811c0-4.961,4.022-8.982,8.982-8.982c4.961,0,8.982,4.022,8.982,8.982v17.965
			C417.67,131.652,405.615,143.707,390.739,143.723z"/>
		<path style="fill:#D75E72;" d="M309.897,114.98v64.674c0,4.961-4.022,8.982-8.982,8.982s-8.982-4.022-8.982-8.982v-53.895h0.539
			c5.343,0.009,10.413-2.361,13.833-6.467L309.897,114.98z"/>
		<path style="fill:#D75E72;" d="M273.967,125.759v26.947c0,4.961-4.022,8.982-8.982,8.982c-4.961,0-8.982-4.022-8.982-8.982
			v-26.947H273.967z"/>
	</g>
	<g>
		<path style="fill:#804169;" d="M237.054,240.587c-4.195-0.007-7.827-2.913-8.754-7.004c-0.254-0.943-11.132-38.447-95.675-38.447
			c-0.877,0-1.807-0.031-2.64,0.013c-4.961,0.022-9-3.982-9.022-8.943c-0.022-4.961,3.982-9,8.943-9.022
			c103.43-1.149,115.491,50.395,115.947,52.583c1.016,4.854-2.094,9.613-6.947,10.632
			C238.296,240.524,237.676,240.587,237.054,240.587L237.054,240.587z"/>
		<path style="fill:#804169;" d="M311.072,240.504c-2.685-0.008-5.225-1.217-6.925-3.295c-1.7-2.078-2.38-4.808-1.856-7.441
			c0.447-2.167,12.175-52.596,113.228-52.596c0.904,0,1.807,0.004,2.719,0.013c4.961,0.022,8.965,4.061,8.943,9.022
			c-0.022,4.961-4.061,8.965-9.022,8.943c-0.88,0.048-1.761,0.044-2.64-0.013c-85.193,0-95.588,38.07-95.684,38.461
			C318.839,237.633,315.23,240.478,311.072,240.504z"/>
	</g>
	<path style="fill:#547580;" d="M465.652,395.232c-4.348,6.203-9.413,11.871-15.091,16.887l-1.258,1.078h-67.548
		c-4.955,0.015-8.968,4.028-8.982,8.982v17.965c0,4.961-4.022,8.982-8.982,8.982s-8.982-4.022-8.982-8.982V422.18
		c-0.015-4.955-4.028-8.968-8.982-8.982h-8.982c-4.955,0.015-8.968,4.028-8.982,8.982v17.965c0,4.961-4.022,8.982-8.982,8.982
		s-8.982-4.022-8.982-8.982V422.18c-0.015-4.955-4.028-8.968-8.982-8.982h-8.982c-4.955,0.015-8.968,4.028-8.982,8.982v17.965
		c0,4.961-4.022,8.982-8.982,8.982c-4.961,0-8.982-4.022-8.982-8.982V422.18c-0.015-4.955-4.028-8.968-8.982-8.982h-8.982
		c-4.955,0.015-8.968,4.028-8.982,8.982v17.965c0,4.961-4.022,8.982-8.982,8.982c-4.961,0-8.982-4.022-8.982-8.982V422.18
		c-0.015-4.955-4.028-8.968-8.982-8.982h-8.982c-4.955,0.015-8.968,4.028-8.982,8.982v17.965c0,4.961-4.022,8.982-8.982,8.982
		c-4.961,0-8.982-4.022-8.982-8.982V422.18c-0.015-4.955-4.028-8.968-8.982-8.982H98.629l-1.258-1.078
		c-5.677-5.016-10.742-10.684-15.091-16.887h38.984c4.955-0.015,8.968-4.028,8.982-8.982v-17.965c0-4.961,4.022-8.982,8.982-8.982
		c4.961,0,8.982,4.022,8.982,8.982v17.965c0.015,4.955,4.028,8.968,8.982,8.982h8.982c4.955-0.015,8.968-4.028,8.982-8.982v-17.965
		c0-4.961,4.022-8.982,8.982-8.982c4.961,0,8.982,4.022,8.982,8.982v17.965c0.015,4.955,4.028,8.968,8.982,8.982h8.982
		c4.955-0.015,8.968-4.028,8.982-8.982c0-4.961,4.022-8.982,8.982-8.982c4.961,0,8.982,4.022,8.982,8.982
		c0.015,4.955,4.028,8.968,8.982,8.982h8.982c4.955-0.015,8.968-4.028,8.982-8.982c0-4.961,4.022-8.982,8.982-8.982
		c4.961,0,8.982,4.022,8.982,8.982c0.015,4.955,4.028,8.968,8.982,8.982h8.982c4.955-0.015,8.968-4.028,8.982-8.982
		c0-4.961,4.022-8.982,8.982-8.982s8.982,4.022,8.982,8.982c0.015,4.955,4.028,8.968,8.982,8.982h8.982
		c4.955-0.015,8.968-4.028,8.982-8.982v-17.965c0-4.961,4.022-8.982,8.982-8.982s8.982,4.022,8.982,8.982v17.965
		c0.015,4.955,4.028,8.968,8.982,8.982h8.982c4.955-0.015,8.968-4.028,8.982-8.982v-17.965c0-4.961,4.022-8.982,8.982-8.982
		c4.961,0,8.982,4.022,8.982,8.982v17.965c0.015,4.955,4.028,8.968,8.982,8.982H465.652z"/>
	<g>
		<path style="fill:#D75E72;" d="M345.826,332.355c-2.382,0.001-4.668-0.946-6.352-2.63c-1.685-1.685-2.631-3.97-2.63-6.352v-26.947
			c0-4.961,4.022-8.982,8.982-8.982c4.961,0,8.982,4.022,8.982,8.982v26.947c0.001,2.382-0.946,4.668-2.63,6.352
			C350.494,331.409,348.209,332.356,345.826,332.355L345.826,332.355z"/>
		<path style="fill:#D75E72;" d="M381.756,323.373c-2.382,0.001-4.668-0.946-6.352-2.63c-1.685-1.685-2.631-3.97-2.63-6.352v-17.965
			c0-4.961,4.022-8.982,8.982-8.982s8.982,4.022,8.982,8.982v17.965c0.001,2.382-0.946,4.668-2.63,6.352
			C386.424,322.427,384.139,323.373,381.756,323.373L381.756,323.373z"/>
		<path style="fill:#D75E72;" d="M202.107,332.355c-2.382,0.001-4.668-0.946-6.352-2.63c-1.685-1.685-2.631-3.97-2.63-6.352v-26.947
			c0-4.961,4.022-8.982,8.982-8.982c4.961,0,8.982,4.022,8.982,8.982v26.947c0.001,2.382-0.946,4.668-2.63,6.352
			C206.775,331.409,204.49,332.356,202.107,332.355L202.107,332.355z"/>
		<path style="fill:#D75E72;" d="M166.177,323.373c-2.382,0.001-4.668-0.946-6.352-2.63c-1.685-1.685-2.631-3.97-2.63-6.352v-17.965
			c0-4.961,4.022-8.982,8.982-8.982c4.961,0,8.982,4.022,8.982,8.982v17.965c0.001,2.382-0.946,4.668-2.63,6.352
			C170.845,322.427,168.56,323.373,166.177,323.373L166.177,323.373z"/>
	</g>
	<g>
		<path style="fill:#65DDB9;" d="M124.191,243.162l0.014,0.058c37.453,97.474,97.18,54.036,110.096,42.971l-18.595-25.218
			c-8.542-11.585-22.119-18.373-36.512-18.256L124.191,243.162z"/>
		<path style="fill:#65DDB9;" d="M313.842,286.191c12.916,11.065,72.643,54.503,110.096-42.971l0.014-0.058l-55.125-0.446
			c-14.442-0.117-28.059,6.719-36.594,18.369L313.842,286.191z"/>
	</g>
	<g>
		<path style="fill:#547580;" d="M241.168,310.412c-3.874-0.002-7.311-2.488-8.526-6.167c-0.755-2.259-18.965-55.228-64-52.307
			c-51.807,3.482-66.772-3.509-70.114-5.737c-4.09-2.766-5.18-8.315-2.441-12.423c2.739-4.108,8.28-5.236,12.406-2.525l-0.009-0.004
			c0.123,0.004,12.991,5.877,58.947,2.768c59.158-4.066,81.351,61.816,82.272,64.618c0.888,2.735,0.416,5.731-1.272,8.059
			S244.044,310.405,241.168,310.412L241.168,310.412z"/>
		<path style="fill:#547580;" d="M306.967,310.421c-0.951,0-1.896-0.152-2.798-0.452c-4.713-1.547-7.281-6.62-5.737-11.333
			c0.921-2.803,22.877-68.68,82.281-64.618c46.684,3.123,59.281-2.982,59.404-3.044c1.962-1.296,4.364-1.747,6.663-1.252
			c2.299,0.495,4.302,1.895,5.557,3.884c2.677,4.238,1.468,9.84-2.719,12.596c-3.342,2.228-18.281,9.246-70.114,5.737
			c-45.518-2.825-63.816,51.741-64,52.294C314.294,307.923,310.85,310.42,306.967,310.421z"/>
	</g>
</g>
<g>
</g>
<g>
</g>
<g>
</g>
<g>
</g>
<g>
</g>
<g>
</g>
<g>
</g>
<g>
</g>
<g>
</g>
<g>
</g>
<g>
</g>
<g>
</g>
<g>
</g>
<g>
</g>
<g>
</g>
</svg>
