<?xml version="1.0" encoding="iso-8859-1"?>
<!-- Generator: Adobe Illustrator 19.0.0, SVG Export Plug-In . SVG Version: 6.00 Build 0)  -->
<svg version="1.1" id="Capa_1" xmlns="http://www.w3.org/2000/svg" xmlns:xlink="http://www.w3.org/1999/xlink" x="0px" y="0px"
	 viewBox="0 0 503.757 503.757" style="enable-background:new 0 0 503.757 503.757;" xml:space="preserve">
<g>
	<path style="fill:#35495E;" d="M503.446,286.2c0.085,82.274-34.282,160.826-94.763,216.602l-154.294,0.521h-4.165l-153.774,0.434
		C35.573,448.395,0.696,370.047,0.297,287.763l0.087-10.761C2.554,123.923,113.718,0.435,251.004,0.001
		S500.148,122.36,503.359,275.44L503.446,286.2z"/>
	<g>
		<path style="fill:#2C2F38;" d="M173.784,483.343c-9.392-5.282-18.221-11.506-26.351-18.577l-26.713-23.348
			c-10.815-9.323-22.362-17.761-34.53-25.234C35.241,384.751,2.472,339.032,0.319,287.751c-0.092-1.649-0.097-3.298-0.102-4.946
			c-0.006-1.909,0.075-3.905,0.156-5.815c2.099-51.467,35.194-97.475,86.645-128.96c-22.672,26.662-35.038,60.567-34.854,95.565
			l0.096,31.501c0.1,31.67,14.592,61.576,39.387,81.279C122.705,381.012,162.666,423.326,173.784,483.343z"/>
		<path style="fill:#2C2F38;" d="M503.538,281.265c0.005,1.649,0.01,3.298-0.072,4.946c-1.839,51.292-34.328,97.212-85.083,128.955
			c-12.121,7.547-23.616,16.057-34.374,25.445l-26.569,23.512c-8.087,7.121-16.878,13.399-26.237,18.738
			c10.75-60.085,50.452-102.642,81.357-127.468c24.673-19.854,38.982-49.849,38.888-81.519l-0.096-31.501
			c-0.03-34.998-12.603-68.827-35.438-95.35c51.643,31.169,85.019,76.974,87.433,128.427
			C503.439,277.36,503.532,279.355,503.538,281.265z"/>
	</g>
	<path style="fill:#E6E7E8;" d="M451.378,242.984v31.501c-0.003,31.67-14.403,61.621-39.138,81.399
		c-24.359,19.086-44.882,42.613-60.485,69.337c-3.231,5.624-6.157,11.417-8.765,17.356c-5.713,12.982-9.906,26.581-12.496,40.526
		h-0.087c-23.418,13.275-49.882,20.242-76.801,20.22h-3.645c-26.919,0.023-53.383-6.945-76.801-20.22h-0.087
		c-2.589-13.945-6.782-27.544-12.495-40.526c-2.607-5.939-5.533-11.732-8.765-17.356c-15.603-26.724-36.127-50.251-60.485-69.337
		c-24.734-19.779-39.135-49.73-39.138-81.399v-31.501c-0.077-34.998,12.392-68.865,35.146-95.458v-0.087
		c0.087,0,0.087-0.087,0.174-0.087v-0.087c47.27-27.638,100.929-42.473,155.683-43.043c2.864-0.087,5.727-0.087,8.591-0.087
		c29.184-0.081,58.259,3.565,86.519,10.847c27.37,6.863,53.572,17.741,77.755,32.282v0.087c0.087,0,0.087,0.087,0.174,0.174
		C438.986,174.119,451.455,207.986,451.378,242.984z"/>
	<path style="fill:#95A5A5;" d="M271.073,390.51c-3.668-0.134-7.281-0.935-10.661-2.364l-1.288-0.466
		c-3.435-1.189-7.119-1.471-10.695-0.818c-1.528,0.33-3.032,0.766-4.5,1.305c-3.652,1.418-7.517,2.21-11.432,2.343
		c-8.522-0.901-16.369-5.053-21.907-11.593c-2.071-2.314-2.747-5.56-1.771-8.508c0.975-2.949,3.453-5.151,6.495-5.774
		c3.043-0.623,6.186,0.428,8.242,2.757c2.335,2.774,5.45,4.782,8.941,5.763c2.034-0.192,4.03-0.678,5.924-1.445
		c2.245-0.803,4.545-1.445,6.882-1.919c6.556-1.202,13.311-0.676,19.602,1.525l1.483,0.538c1.492,0.655,3.07,1.093,4.686,1.301
		c3.487-0.99,6.599-2.996,8.941-5.763c2.057-2.324,5.198-3.371,8.238-2.748c3.04,0.624,5.515,2.824,6.491,5.77
		c0.976,2.946,0.303,6.189-1.763,8.504C287.442,385.456,279.595,389.609,271.073,390.51L271.073,390.51z"/>
	<path style="fill:#804169;" d="M338.304,114.984c-5.372,49.934-34.306,94.285-77.841,119.322
		c17.182-34.278-16.488-127.826-17.269-130.083c2.864-0.087,5.727-0.087,8.591-0.087
		C280.969,104.056,310.043,107.701,338.304,114.984z"/>
	<g>
		<path style="fill:#D75E72;" d="M199.717,468.611c-2.302,0.001-4.509-0.914-6.137-2.541c-1.628-1.628-2.542-3.835-2.541-6.137
			v-17.356c0-4.793,3.885-8.678,8.678-8.678c4.793,0,8.678,3.885,8.678,8.678v17.356c0.001,2.302-0.913,4.509-2.541,6.137
			C204.226,467.698,202.019,468.612,199.717,468.611L199.717,468.611z"/>
		<path style="fill:#D75E72;" d="M234.429,485.967c-2.302,0.001-4.509-0.914-6.137-2.541c-1.628-1.628-2.542-3.835-2.541-6.137
			v-34.712c0-4.793,3.885-8.678,8.678-8.678s8.678,3.885,8.678,8.678v34.712c0.001,2.302-0.913,4.509-2.541,6.137
			C238.938,485.054,236.73,485.968,234.429,485.967L234.429,485.967z"/>
		<path style="fill:#D75E72;" d="M173.683,338.442c-2.302,0.001-4.509-0.914-6.137-2.541c-1.628-1.628-2.542-3.835-2.541-6.137
			V303.73c0-4.793,3.885-8.678,8.678-8.678c4.793,0,8.678,3.885,8.678,8.678v26.034c0.001,2.302-0.913,4.509-2.541,6.137
			C178.192,337.528,175.985,338.442,173.683,338.442L173.683,338.442z"/>
		<path style="fill:#D75E72;" d="M173.683,381.832c-2.302,0.001-4.509-0.914-6.137-2.541c-1.628-1.628-2.542-3.835-2.541-6.137
			v-8.678c0-4.793,3.885-8.678,8.678-8.678c4.793,0,8.678,3.885,8.678,8.678v8.678c0.001,2.302-0.913,4.509-2.541,6.137
			C178.192,380.918,175.985,381.832,173.683,381.832L173.683,381.832z"/>
		<path style="fill:#D75E72;" d="M138.971,329.764c-2.302,0.001-4.509-0.913-6.137-2.541c-1.628-1.628-2.542-3.835-2.541-6.137
			v-43.39c0-4.793,3.885-8.678,8.678-8.678s8.678,3.885,8.678,8.678v43.39c0.001,2.302-0.913,4.509-2.541,6.137
			C143.48,328.85,141.273,329.764,138.971,329.764L138.971,329.764z"/>
	</g>
	<path style="fill:#BDC3C7;" d="M351.755,425.221c-3.231,5.624-6.157,11.417-8.765,17.356H160.579
		c-2.607-5.939-5.533-11.732-8.765-17.356H351.755z"/>
	<g>
		<path style="fill:#FFFFFF;" d="M107.086,243.594l0.014,0.056c36.183,94.169,93.886,52.204,106.364,41.514l-17.965-24.363
			c-8.253-11.192-21.369-17.75-35.274-17.638L107.086,243.594z"/>
		<path style="fill:#FFFFFF;" d="M290.308,285.165c12.478,10.69,70.181,52.655,106.364-41.514l0.014-0.056l-53.257-0.431
			c-13.952-0.113-27.108,6.491-35.353,17.746L290.308,285.165z"/>
	</g>
	<g>
		<path style="fill:#95A5A5;" d="M220.098,308.565c-3.743-0.002-7.063-2.403-8.237-5.958c-0.729-2.182-18.322-53.356-61.831-50.534
			c-50.051,3.364-64.508-3.39-67.737-5.542c-3.951-2.673-5.004-8.033-2.358-12.002c2.646-3.969,7.999-5.058,11.986-2.439
			l-0.009-0.004c0.119,0.004,12.551,5.678,56.949,2.674c57.153-3.928,78.593,59.72,79.483,62.428
			c0.858,2.643,0.402,5.536-1.229,7.786C225.484,307.223,222.877,308.558,220.098,308.565L220.098,308.565z"/>
		<path style="fill:#95A5A5;" d="M283.666,308.573c-0.919,0-1.831-0.147-2.703-0.436c-4.553-1.494-7.034-6.395-5.542-10.949
			c0.89-2.708,22.102-66.352,79.492-62.428c45.102,3.017,57.271-2.881,57.39-2.941c1.896-1.252,4.216-1.688,6.437-1.21
			c2.221,0.478,4.156,1.831,5.368,3.752c2.586,4.095,1.418,9.506-2.627,12.169c-3.229,2.152-17.661,8.932-67.737,5.542
			c-43.975-2.729-61.652,49.987-61.831,50.521C290.745,306.161,287.418,308.573,283.666,308.573z"/>
	</g>
</g>
<g>
</g>
<g>
</g>
<g>
</g>
<g>
</g>
<g>
</g>
<g>
</g>
<g>
</g>
<g>
</g>
<g>
</g>
<g>
</g>
<g>
</g>
<g>
</g>
<g>
</g>
<g>
</g>
<g>
</g>
</svg>
