<?xml version="1.0" encoding="iso-8859-1"?>
<!-- Generator: Adobe Illustrator 19.0.0, SVG Export Plug-In . SVG Version: 6.00 Build 0)  -->
<svg version="1.1" id="Capa_1" xmlns="http://www.w3.org/2000/svg" xmlns:xlink="http://www.w3.org/1999/xlink" x="0px" y="0px"
	 viewBox="0 0 503.757 503.757" style="enable-background:new 0 0 503.757 503.757;" xml:space="preserve">
<g>
	<path style="fill:#35495E;" d="M503.539,286.2c0.085,82.274-34.282,160.826-94.763,216.602l-154.294,0.521h-4.165l-153.774,0.434
		C35.667,448.395,0.79,370.047,0.391,287.763l0.087-10.761C2.647,123.923,113.812,0.435,251.097,0.001
		S500.242,122.36,503.453,275.44L503.539,286.2z"/>
	<path style="fill:#2C2F38;" d="M101.836,424.874c-61.7-32.456-101.619-84.35-101.619-142.839
		c0-53.803,33.757-102.053,87.214-134.595c-22.755,26.626-35.223,60.52-35.146,95.544v101.793
		c-0.016,4.594,0.362,9.181,1.128,13.711c3.441,18.84,13.281,35.914,27.857,48.336L101.836,424.874z"/>
	<path style="fill:#E6E7E8;" d="M451.472,242.984v101.793c0.016,4.594-0.361,9.181-1.128,13.711
		c-1.965,11.535-6.503,22.48-13.276,32.022c-4.201,5.993-9.095,11.469-14.581,16.315l-1.214,1.041l-19.352,17.009l-45.039,39.572
		c-28.525,25.07-65.205,38.891-103.181,38.877h-3.645c-37.976,0.013-74.656-13.807-103.181-38.877l-45.039-39.572l-19.352-17.009
		l-1.214-1.041c-5.485-4.845-10.38-10.321-14.581-16.315c-6.774-9.542-11.312-20.486-13.277-32.022
		c-0.767-4.53-1.144-9.117-1.128-13.711V242.984c-0.077-35.025,12.39-68.919,35.146-95.544c0.087,0,0.087-0.087,0.174-0.087v-0.087
		c49.828-29.021,106.616-43.93,164.274-43.129c57.657-0.801,114.445,14.109,164.273,43.129v0.087c0.087,0,0.087,0.087,0.174,0.087
		C439.081,174.065,451.549,207.96,451.472,242.984L451.472,242.984z"/>
	<path style="fill:#7F8C8D;" d="M437.067,390.51c-4.201,5.993-9.095,11.469-14.581,16.315l-1.214,1.041h-65.258
		c-4.787,0.014-8.664,3.891-8.678,8.678v17.356c0,4.793-3.885,8.678-8.678,8.678c-4.793,0-8.678-3.885-8.678-8.678v-17.356
		c-0.014-4.787-3.891-8.664-8.678-8.678h-8.678c-4.787,0.014-8.664,3.891-8.678,8.678v17.356c0,4.793-3.885,8.678-8.678,8.678
		c-4.793,0-8.678-3.885-8.678-8.678v-17.356c-0.014-4.787-3.891-8.664-8.678-8.678h-8.678c-4.787,0.014-8.664,3.891-8.678,8.678
		v17.356c0,4.793-3.885,8.678-8.678,8.678s-8.678-3.885-8.678-8.678v-17.356c-0.014-4.787-3.891-8.664-8.678-8.678h-8.678
		c-4.787,0.014-8.664,3.891-8.678,8.678v17.356c0,4.793-3.885,8.678-8.678,8.678c-4.793,0-8.678-3.885-8.678-8.678v-17.356
		c-0.014-4.787-3.891-8.664-8.678-8.678h-8.678c-4.787,0.014-8.664,3.891-8.678,8.678v17.356c0,4.793-3.885,8.678-8.678,8.678
		c-4.793,0-8.678-3.885-8.678-8.678v-17.356c-0.014-4.787-3.891-8.664-8.678-8.678H82.485l-1.214-1.041
		c-5.485-4.845-10.38-10.321-14.581-16.315h37.663c4.787-0.014,8.664-3.891,8.678-8.678v-17.356c0-4.793,3.885-8.678,8.678-8.678
		c4.793,0,8.678,3.885,8.678,8.678v17.356c0.014,4.787,3.891,8.664,8.678,8.678h8.678c4.787-0.014,8.664-3.891,8.678-8.678v-17.356
		c0-4.793,3.885-8.678,8.678-8.678c4.793,0,8.678,3.885,8.678,8.678v17.356c0.014,4.787,3.891,8.664,8.678,8.678h8.678
		c4.787-0.014,8.664-3.891,8.678-8.678v-17.356c0-4.793,3.885-8.678,8.678-8.678c4.793,0,8.678,3.885,8.678,8.678v17.356
		c0.014,4.787,3.891,8.664,8.678,8.678h8.678c4.787-0.014,8.664-3.891,8.678-8.678v-17.356c0-4.793,3.885-8.678,8.678-8.678
		s8.678,3.885,8.678,8.678v17.356c0.014,4.787,3.891,8.664,8.678,8.678h8.678c4.787-0.014,8.664-3.891,8.678-8.678v-17.356
		c0-4.793,3.885-8.678,8.678-8.678c4.793,0,8.678,3.885,8.678,8.678v17.356c0.014,4.787,3.891,8.664,8.678,8.678h8.678
		c4.787-0.014,8.664-3.891,8.678-8.678v-17.356c0-4.793,3.885-8.678,8.678-8.678c4.793,0,8.678,3.885,8.678,8.678v17.356
		c0.014,4.787,3.891,8.664,8.678,8.678h8.678c4.787-0.014,8.664-3.891,8.678-8.678v-17.356c0-4.793,3.885-8.678,8.678-8.678
		c4.793,0,8.678,3.885,8.678,8.678v17.356c0.014,4.787,3.891,8.664,8.678,8.678H437.067z"/>
	<path style="fill:#2C2F38;" d="M503.539,282.035c0,58.49-39.919,110.384-101.619,142.839l20.566-18.05
		c14.576-12.422,24.416-29.496,27.857-48.336c0.767-4.53,1.144-9.117,1.128-13.711V242.984c0.077-35.025-12.39-68.919-35.146-95.544
		C469.782,179.982,503.539,228.232,503.539,282.035z"/>
	<g>
		<path style="fill:#D75E72;" d="M199.811,299.391c-2.302,0.001-4.509-0.914-6.137-2.541s-2.542-3.835-2.541-6.137v-52.068
			c0-4.793,3.885-8.678,8.678-8.678c4.793,0,8.678,3.885,8.678,8.678v52.068c0.001,2.302-0.913,4.509-2.541,6.137
			C204.32,298.477,202.112,299.392,199.811,299.391L199.811,299.391z"/>
		<path style="fill:#D75E72;" d="M303.946,299.391c-2.302,0.001-4.509-0.914-6.137-2.541c-1.628-1.628-2.542-3.835-2.541-6.137
			v-52.068c0-4.793,3.885-8.678,8.678-8.678s8.678,3.885,8.678,8.678v52.068c0.001,2.302-0.913,4.509-2.541,6.137
			S306.248,299.392,303.946,299.391L303.946,299.391z"/>
		<path style="fill:#D75E72;" d="M173.777,325.425c-2.302,0.001-4.509-0.913-6.137-2.541c-1.628-1.628-2.542-3.835-2.541-6.137
			v-26.034c0-4.793,3.885-8.678,8.678-8.678s8.678,3.885,8.678,8.678v26.034c0.001,2.302-0.913,4.509-2.541,6.137
			C178.286,324.511,176.078,325.425,173.777,325.425L173.777,325.425z"/>
		<path style="fill:#D75E72;" d="M338.658,325.425c-2.302,0.001-4.509-0.913-6.137-2.541s-2.542-3.835-2.541-6.137v-17.356
			c0-4.793,3.885-8.678,8.678-8.678c4.793,0,8.678,3.885,8.678,8.678v17.356c0.001,2.302-0.914,4.509-2.541,6.137
			C343.167,324.511,340.96,325.425,338.658,325.425L338.658,325.425z"/>
	</g>
	<g>
		<circle style="fill:#FFFFFF;" cx="152.082" cy="242.984" r="56.407"/>
		<circle style="fill:#FFFFFF;" cx="351.675" cy="242.984" r="56.407"/>
	</g>
</g>
<g>
</g>
<g>
</g>
<g>
</g>
<g>
</g>
<g>
</g>
<g>
</g>
<g>
</g>
<g>
</g>
<g>
</g>
<g>
</g>
<g>
</g>
<g>
</g>
<g>
</g>
<g>
</g>
<g>
</g>
</svg>
