<?xml version="1.0" encoding="iso-8859-1"?>
<!-- Generator: Adobe Illustrator 19.0.0, SVG Export Plug-In . SVG Version: 6.00 Build 0)  -->
<svg version="1.1" id="Capa_1" xmlns="http://www.w3.org/2000/svg" xmlns:xlink="http://www.w3.org/1999/xlink" x="0px" y="0px"
	 viewBox="0 0 512 512" style="enable-background:new 0 0 512 512;" xml:space="preserve">
<g>
	<path style="fill:#46B29D;" d="M459.034,326.621h22.334c9.1,0.334,17.148-5.86,19.156-14.742l11.034-60.381
		c1.058-8.074-1.543-16.199-7.092-22.158c-5.549-5.959-13.469-9.131-21.597-8.65H29.131c-8.129-0.481-16.048,2.691-21.597,8.65
		c-5.549,5.959-8.15,14.084-7.092,22.158l11.034,60.381c2.008,8.882,10.056,15.076,19.156,14.742H459.034z"/>
	<path style="fill:#81CCB8;" d="M459.034,105.931V350.72c0.016,4.673-0.367,9.34-1.148,13.948
		c-3.464,19.178-13.48,36.558-28.337,49.17l-66.737,58.615c-29.017,25.502-66.329,39.561-104.96,39.548h-3.708
		c-38.631,0.013-75.943-14.046-104.96-39.548L82.45,413.837c-14.857-12.612-24.873-29.992-28.337-49.17
		c-0.78-4.608-1.164-9.274-1.148-13.948V247.084c0,0-1.766-141.153,8.828-141.153H459.034z"/>
	<path style="fill:#804537;" d="M476.69,132.366v97.069c-0.072,9.72-7.936,17.58-17.655,17.649l-39.901-99.716
		c-6.049-15.15-18.869-26.574-34.614-30.842c-15.744-4.269-32.579-0.886-45.452,9.134l-51.465,39.974
		c-18.583,14.472-44.622,14.472-63.206,0l-51.465-39.974c-12.867-10.039-29.709-13.434-45.46-9.164
		c-15.751,4.271-28.572,15.708-34.606,30.871l-39.901,99.716c-9.72-0.069-17.583-7.929-17.655-17.649v-97.069
		C35.35,59.26,94.618,0.013,167.724,0h176.552C417.382,0.013,476.65,59.26,476.69,132.366z"/>
	<g>
		<path style="fill:#46B29D;" d="M275.616,370.759c-3.721-0.135-7.385-0.947-10.815-2.397l-1.328-0.478
			c-3.496-1.221-7.251-1.509-10.892-0.836c-1.553,0.336-3.082,0.779-4.573,1.328c-3.714,1.442-7.644,2.248-11.625,2.383
			c-8.672-0.916-16.657-5.14-22.293-11.793c-2.094-2.358-2.772-5.653-1.777-8.646s3.51-5.227,6.599-5.862
			c3.089-0.635,6.282,0.426,8.376,2.784c2.375,2.822,5.544,4.864,9.095,5.862c2.066-0.195,4.093-0.69,6.017-1.47
			c2.286-0.815,4.626-1.467,7.004-1.953c6.667-1.228,13.539-0.693,19.935,1.552l1.535,0.552c1.509,0.664,3.106,1.108,4.741,1.319
			c3.547-1.006,6.714-3.047,9.095-5.862c3.238-3.645,8.817-3.975,12.461-0.737c3.645,3.238,3.975,8.817,0.737,12.461
			C292.273,365.619,284.288,369.843,275.616,370.759z"/>
		<path style="fill:#46B29D;" d="M279.944,326.638c-2.661,0.002-5.181-1.197-6.858-3.263c-4.726-4.06-10.875-6.069-17.086-5.582
			c-6.21-0.483-12.357,1.524-17.086,5.578c-1.988,2.455-5.137,3.661-8.256,3.161c-3.12-0.5-5.734-2.629-6.856-5.582
			c-1.122-2.954-0.579-6.281,1.422-8.726c8.045-8.265,19.257-12.668,30.776-12.086c11.529-0.585,22.75,3.827,30.793,12.108
			c2.146,2.643,2.581,6.284,1.119,9.358C286.449,324.678,283.348,326.637,279.944,326.638L279.944,326.638z"/>
	</g>
	<g>
		<path style="fill:#D75E72;" d="M207.448,291.31c-4.875,0-8.828-3.952-8.828-8.828v-52.966c0-4.875,3.952-8.828,8.828-8.828
			s8.828,3.952,8.828,8.828v52.966C216.276,287.358,212.324,291.31,207.448,291.31z"/>
		<path style="fill:#D75E72;" d="M304.552,291.31c-4.875,0-8.828-3.952-8.828-8.828v-52.966c0-4.875,3.952-8.828,8.828-8.828
			s8.828,3.952,8.828,8.828v52.966C313.379,287.358,309.427,291.31,304.552,291.31z"/>
		<path style="fill:#D75E72;" d="M141.241,317.793c-4.875,0-8.828-3.952-8.828-8.828v-26.483c0-4.875,3.952-8.828,8.828-8.828
			s8.828,3.952,8.828,8.828v26.483C150.069,313.841,146.117,317.793,141.241,317.793z"/>
		<path style="fill:#D75E72;" d="M114.759,289.224c-4.875,0-8.828-3.952-8.828-8.828v-44.138c0-4.875,3.952-8.828,8.828-8.828
			c4.875,0,8.828,3.952,8.828,8.828v44.138C123.586,285.272,119.634,289.224,114.759,289.224z"/>
		<path style="fill:#D75E72;" d="M370.759,317.793c-4.875,0-8.828-3.952-8.828-8.828v-26.483c0-4.875,3.952-8.828,8.828-8.828
			s8.828,3.952,8.828,8.828v26.483C379.586,313.841,375.634,317.793,370.759,317.793z"/>
		<path style="fill:#D75E72;" d="M397.241,289.224c-4.875,0-8.828-3.952-8.828-8.828v-44.138c0-4.875,3.952-8.828,8.828-8.828
			s8.828,3.952,8.828,8.828v44.138C406.069,285.272,402.117,289.224,397.241,289.224z"/>
		<path style="fill:#D75E72;" d="M194.207,450.207c-4.875,0-8.828-3.952-8.828-8.828v-17.655c0-4.875,3.952-8.828,8.828-8.828
			s8.828,3.952,8.828,8.828v17.655C203.034,446.255,199.082,450.207,194.207,450.207z"/>
		<path style="fill:#D75E72;" d="M229.517,476.69c-4.875,0-8.828-3.952-8.828-8.828v-35.31c0-4.875,3.952-8.828,8.828-8.828
			s8.828,3.952,8.828,8.828v35.31C238.345,472.737,234.393,476.69,229.517,476.69z"/>
	</g>
	<g>
		<path style="fill:#E6E7E8;" d="M220.69,233.931c0,31.69-25.69,57.379-57.379,57.379s-57.379-25.69-57.379-57.379
			s25.69-4.414,57.379-4.414S220.69,202.241,220.69,233.931z"/>
		<path style="fill:#E6E7E8;" d="M291.31,233.931c0,31.69,25.69,57.379,57.379,57.379s57.379-25.69,57.379-57.379
			s-25.69-4.414-57.379-4.414S291.31,202.241,291.31,233.931z"/>
	</g>
	<path style="fill:#464F5D;" d="M301.977,451.596l-113.95-25.322c-6.705-1.49-11.475-7.437-11.475-14.305v-0.074
		c0-8.093,6.561-14.654,14.654-14.654h116.738c15.191,0,27.505,12.314,27.505,27.505l0,0c0,8.343-3.787,16.235-10.294,21.455
		C318.646,451.422,310.121,453.406,301.977,451.596L301.977,451.596z"/>
</g>
<g>
</g>
<g>
</g>
<g>
</g>
<g>
</g>
<g>
</g>
<g>
</g>
<g>
</g>
<g>
</g>
<g>
</g>
<g>
</g>
<g>
</g>
<g>
</g>
<g>
</g>
<g>
</g>
<g>
</g>
</svg>
