<?xml version="1.0" encoding="iso-8859-1"?>
<!-- Generator: Adobe Illustrator 19.0.0, SVG Export Plug-In . SVG Version: 6.00 Build 0)  -->
<svg version="1.1" id="Capa_1" xmlns="http://www.w3.org/2000/svg" xmlns:xlink="http://www.w3.org/1999/xlink" x="0px" y="0px"
	 viewBox="0 0 512 512" style="enable-background:new 0 0 512 512;" xml:space="preserve">
<g>
	<path style="fill:#46B29D;" d="M511.559,251.498c1.058-8.074-1.543-16.199-7.092-22.158c-5.549-5.959-13.469-9.131-21.597-8.65
		H29.131c-8.129-0.481-16.048,2.691-21.597,8.65c-5.549,5.959-8.15,14.084-7.092,22.158l11.034,60.381
		c2.008,8.882,10.056,15.076,19.156,14.742h450.737c9.1,0.334,17.148-5.86,19.156-14.742"/>
	<path style="fill:#81CCB8;" d="M418.251,423.724l10.063-8.828l1.236-1.059c5.579-4.929,10.557-10.499,14.83-16.596
		c6.963-9.666,11.586-20.817,13.506-32.574c0.78-4.608,1.164-9.274,1.148-13.948V105.931H61.793
		c-10.593,0-8.828,141.153-8.828,141.153V350.72c-0.016,4.673,0.368,9.34,1.148,13.948c0.353,2.03,0.706,4.061,1.236,6.091
		l68.237,52.966l256.001,26.483L418.251,423.724z"/>
	<path style="fill:#D75E72;" d="M418.251,423.724l-55.437,48.728c-29.017,25.502-66.329,39.561-104.96,39.548h-3.708
		c-38.631,0.013-75.943-14.046-104.96-39.548l-65.501-57.556l-1.236-1.059c-5.579-4.929-10.557-10.5-14.83-16.596
		c-5.72-7.977-9.883-16.962-12.27-26.483h288.927v17.655c-0.003,9.366,3.717,18.348,10.339,24.971
		c6.623,6.623,15.605,10.342,24.971,10.339H418.251z"/>
	<path style="fill:#804537;" d="M344.276,0C417.382,0.013,476.65,59.26,476.69,132.366v97.069
		c-0.072,9.72-7.936,17.58-17.655,17.649l-39.901-99.716c-6.049-15.15-18.869-26.574-34.614-30.842
		c-15.744-4.269-32.579-0.886-45.452,9.134l-51.465,39.974c-18.583,14.472-44.622,14.472-63.206,0l-51.465-39.974
		c-12.867-10.039-29.709-13.434-45.46-9.164c-15.751,4.271-28.572,15.708-34.606,30.871l-39.901,99.716
		c-9.72-0.069-17.583-7.929-17.655-17.649v-97.069C35.35,59.26,94.618,0.013,167.724,0"/>
	<path style="fill:#46B29D;" d="M275.616,344.279c-3.721-0.135-7.385-0.947-10.815-2.397l-1.328-0.478
		c-3.496-1.221-7.251-1.509-10.892-0.836c-1.553,0.336-3.082,0.779-4.573,1.328c-3.714,1.442-7.644,2.248-11.625,2.383
		c-8.672-0.916-16.657-5.14-22.293-11.793c-2.094-2.358-2.772-5.654-1.777-8.646c0.995-2.993,3.51-5.227,6.599-5.862
		c3.089-0.635,6.282,0.426,8.376,2.784c2.375,2.822,5.544,4.864,9.095,5.862c2.066-0.195,4.093-0.69,6.017-1.47
		c2.286-0.815,4.626-1.467,7.004-1.953c6.667-1.228,13.539-0.694,19.935,1.552l1.535,0.552c1.509,0.664,3.106,1.108,4.741,1.319
		c3.547-1.006,6.714-3.047,9.095-5.862c3.238-3.645,8.817-3.975,12.461-0.737c3.645,3.238,3.975,8.817,0.737,12.461
		C292.273,339.14,284.288,343.363,275.616,344.279z"/>
	<g>
		<path style="fill:#D75E72;" d="M207.448,291.31c-4.875,0-8.828-3.952-8.828-8.828v-52.966c0-4.875,3.952-8.828,8.828-8.828
			s8.828,3.952,8.828,8.828v52.966C216.276,287.358,212.324,291.31,207.448,291.31z"/>
		<path style="fill:#D75E72;" d="M141.241,317.793c-4.875,0-8.828-3.952-8.828-8.828v-26.483c0-4.875,3.952-8.828,8.828-8.828
			s8.828,3.952,8.828,8.828v26.483C150.069,313.841,146.117,317.793,141.241,317.793z"/>
		<path style="fill:#D75E72;" d="M114.759,289.224c-4.875,0-8.828-3.952-8.828-8.828v-44.138c0-4.875,3.952-8.828,8.828-8.828
			c4.875,0,8.828,3.952,8.828,8.828v44.138C123.586,285.272,119.634,289.224,114.759,289.224z"/>
	</g>
	<path style="fill:#E6E7E8;" d="M220.69,233.931c0,31.69-25.69,57.379-57.379,57.379s-57.379-25.69-57.379-57.379
		s25.69-4.414,57.379-4.414S220.69,202.241,220.69,233.931z"/>
	<g>
		<path style="fill:#FDD7AD;" d="M238.345,406.069h-8.828c-9.751,0-17.655,7.904-17.655,17.655v17.655
			c0,9.751,7.904,17.655,17.655,17.655h8.828c9.751,0,17.655-7.905,17.655-17.655v-17.655
			C256,413.973,248.096,406.069,238.345,406.069h-8.828"/>
		<path style="fill:#FDD7AD;" d="M282.483,406.069h-8.828c-9.751,0-17.655,7.904-17.655,17.655v17.655
			c0,9.751,7.904,17.655,17.655,17.655h8.828c9.751,0,17.655-7.905,17.655-17.655v-17.655
			C300.138,413.973,292.233,406.069,282.483,406.069h-8.828"/>
		<path style="fill:#FDD7AD;" d="M194.207,406.069h-8.828c-9.751,0-17.655,7.904-17.655,17.655v8.828
			c0,9.751,7.904,17.655,17.655,17.655h8.828c9.751,0,17.655-7.905,17.655-17.655v-8.828
			C211.862,413.973,203.958,406.069,194.207,406.069h-8.828"/>
		<path style="fill:#FDD7AD;" d="M326.621,406.069h-8.828c-9.751,0-17.655,7.904-17.655,17.655v8.828
			c0,9.751,7.904,17.655,17.655,17.655h8.828c9.751,0,17.655-7.905,17.655-17.655v-8.828
			C344.276,413.973,336.371,406.069,326.621,406.069h-8.828"/>
		<path style="fill:#FDD7AD;" d="M344.276,370.759v17.655c0,9.751-7.905,17.655-17.655,17.655h-8.828
			c-9.751,0-17.655-7.905-17.655-17.655l0,0c0,9.751-7.905,17.655-17.655,17.655h-8.828c-9.751,0-17.655-7.905-17.655-17.655l0,0
			c0,9.751-7.904,17.655-17.655,17.655h-8.828c-9.751,0-17.655-7.905-17.655-17.655l0,0c0,9.751-7.904,17.655-17.655,17.655h-8.828
			c-9.751,0-17.655-7.905-17.655-17.655l0,0c0,9.751-7.904,17.655-17.655,17.655h-8.828c-9.751,0-17.655-7.905-17.655-17.655
			v-17.655H344.276z"/>
	</g>
	<g>
		<path style="fill:#D75E72;" d="M313.379,300.138c-4.875,0-8.828-3.952-8.828-8.828v-52.965c0-4.875,3.952-8.828,8.828-8.828
			s8.828,3.952,8.828,8.828v52.965C322.207,296.186,318.255,300.138,313.379,300.138z"/>
		<path style="fill:#D75E72;" d="M344.276,326.621c-4.875,0-8.828-3.952-8.828-8.828V291.31c0-4.875,3.952-8.828,8.828-8.828
			c4.875,0,8.828,3.952,8.828,8.828v26.483C353.103,322.668,349.151,326.621,344.276,326.621z"/>
	</g>
	<circle style="fill:#E6E7E8;" cx="357.517" cy="242.759" r="57.379"/>
</g>
<g>
</g>
<g>
</g>
<g>
</g>
<g>
</g>
<g>
</g>
<g>
</g>
<g>
</g>
<g>
</g>
<g>
</g>
<g>
</g>
<g>
</g>
<g>
</g>
<g>
</g>
<g>
</g>
<g>
</g>
</svg>
