<?xml version="1.0" encoding="iso-8859-1"?>
<!-- Generator: Adobe Illustrator 19.0.0, SVG Export Plug-In . SVG Version: 6.00 Build 0)  -->
<svg version="1.1" id="Capa_1" xmlns="http://www.w3.org/2000/svg" xmlns:xlink="http://www.w3.org/1999/xlink" x="0px" y="0px"
	 viewBox="0 0 512 512" style="enable-background:new 0 0 512 512;" xml:space="preserve">
<g>
	<path style="fill:#D75E72;" d="M244.877,10.946l2.383-2.119h48.64c14.071-0.001,27.567,5.587,37.517,15.537l3.178,3.178
		c4.96,4.97,11.693,7.765,18.714,7.768h5.561c16.221,0,30.369,11.02,34.339,26.748l0.706,2.913c0.788,3.311,3.746,5.649,7.15,5.65
		h0.088c12.129,0.045,22.693,8.285,25.688,20.039l2.913,11.829c0.528,2.202,2.02,4.05,4.061,5.032
		c8.897,4.42,14.559,13.459,14.654,23.393l-0.265,36.723l-205.112-0.883L244.877,10.946z"/>
	<path style="fill:#804537;" d="M314.968,97.103l2.825,150.069c-3.367,4.028-264.828-0.088-264.828-0.088
		c-9.721-0.07-17.585-7.934-17.655-17.655v-97.103C35.375,59.237,94.635,0.016,167.724,0h51.555c4.793,0,9.497,1.301,13.609,3.764
		l11.989,7.182c6.645,4.013,9.902,11.886,8.033,19.421l-0.026,0.09c-1.523,5.327-0.457,11.06,2.879,15.484s8.555,7.025,14.096,7.025
		h12.712c9.739,0.029,17.627,7.916,17.655,17.655v11.741C300.241,90.497,306.833,97.089,314.968,97.103z"/>
	<path style="fill:#46B29D;" d="M459.034,326.621h22.334c9.1,0.334,17.148-5.86,19.156-14.742l11.034-60.381
		c1.058-8.074-1.543-16.199-7.092-22.158c-5.549-5.959-13.469-9.131-21.597-8.65H29.131c-8.129-0.481-16.048,2.691-21.597,8.65
		c-5.549,5.959-8.15,14.084-7.092,22.158l11.034,60.381c2.008,8.882,10.056,15.076,19.156,14.742H459.034z"/>
	<path style="fill:#81CCB8;" d="M459.034,167.724V350.72c0.016,4.673-0.367,9.34-1.148,13.948
		c-3.464,19.178-13.48,36.558-28.337,49.17l-66.737,58.615c-29.017,25.502-66.329,39.561-104.96,39.548h-3.708
		c-38.631,0.013-75.943-14.046-104.96-39.548L82.45,413.837c-14.857-12.612-24.873-29.992-28.337-49.17
		c-0.78-4.608-1.164-9.274-1.148-13.948V247.084l39.901-99.752c3.808-9.638,10.459-17.889,19.068-23.658
		c8.597-5.825,18.747-8.931,29.131-8.916h150.863c5.251,0.009,10.234-2.321,13.594-6.356l3.531-4.237l5.915-7.062h11.741
		c9.739,0.028,17.627,7.916,17.655,17.655v8.828c-0.001,4.683,1.858,9.174,5.17,12.485c3.311,3.311,7.803,5.171,12.485,5.17h52.348
		c0.652-0.029,1.306,0.031,1.942,0.177c5.176,0.519,9.845,3.339,12.712,7.68l7.15,10.77c3.139,4.716,8.373,7.613,14.036,7.768
		c0.228,0.073,0.467,0.103,0.706,0.088H459.034z"/>
	<g>
		<path style="fill:#FB7B76;" d="M335.448,88.276c-4.875,0-8.828-3.952-8.828-8.828c0-4.875,3.952-8.828,8.828-8.828
			c4.873-0.006,8.821-3.955,8.828-8.828v-8.828c0-4.875,3.952-8.828,8.828-8.828s8.828,3.952,8.828,8.828v8.828
			C361.915,76.413,350.068,88.26,335.448,88.276z"/>
		<path style="fill:#FB7B76;" d="M388.414,132.414c-4.875,0-8.828-3.952-8.828-8.828c0-4.875,3.952-8.828,8.828-8.828
			c4.873-0.006,8.821-3.955,8.828-8.828V88.276c0-4.875,3.952-8.828,8.828-8.828s8.828,3.952,8.828,8.828v17.655
			C414.881,120.55,403.033,132.398,388.414,132.414L388.414,132.414z"/>
	</g>
	<path style="fill:#D75E72;" d="M418.251,423.724l-55.437,48.728c-29.017,25.502-66.329,39.561-104.96,39.548h-3.708
		c-38.631,0.013-75.943-14.046-104.96-39.548l-65.501-57.556l-1.236-1.059c-5.579-4.929-10.557-10.5-14.83-16.596
		c-5.72-7.977-9.883-16.962-12.27-26.483h288.927v17.655c-0.003,9.366,3.717,18.348,10.339,24.971
		c6.623,6.623,15.605,10.342,24.971,10.339H418.251z"/>
	<g>
		<path style="fill:#FDD7AD;" d="M238.345,406.069h-8.828c-9.751,0-17.655,7.904-17.655,17.655v17.655
			c0,9.751,7.904,17.655,17.655,17.655h8.828c9.751,0,17.655-7.905,17.655-17.655v-17.655
			C256,413.973,248.096,406.069,238.345,406.069h-8.828"/>
		<path style="fill:#FDD7AD;" d="M282.483,406.069h-8.828c-9.751,0-17.655,7.904-17.655,17.655v17.655
			c0,9.751,7.904,17.655,17.655,17.655h8.828c9.751,0,17.655-7.905,17.655-17.655v-17.655
			C300.138,413.973,292.233,406.069,282.483,406.069h-8.828"/>
		<path style="fill:#FDD7AD;" d="M194.207,406.069h-8.828c-9.751,0-17.655,7.904-17.655,17.655v8.828
			c0,9.751,7.904,17.655,17.655,17.655h8.828c9.751,0,17.655-7.905,17.655-17.655v-8.828
			C211.862,413.973,203.958,406.069,194.207,406.069h-8.828"/>
		<path style="fill:#FDD7AD;" d="M326.621,406.069h-8.828c-9.751,0-17.655,7.904-17.655,17.655v8.828
			c0,9.751,7.904,17.655,17.655,17.655h8.828c9.751,0,17.655-7.905,17.655-17.655v-8.828
			C344.276,413.973,336.371,406.069,326.621,406.069h-8.828"/>
		<path style="fill:#FDD7AD;" d="M344.276,370.759v17.655c0,9.751-7.905,17.655-17.655,17.655h-8.828
			c-9.751,0-17.655-7.905-17.655-17.655l0,0c0,9.751-7.905,17.655-17.655,17.655h-8.828c-9.751,0-17.655-7.905-17.655-17.655l0,0
			c0,9.751-7.904,17.655-17.655,17.655h-8.828c-9.751,0-17.655-7.905-17.655-17.655l0,0c0,9.751-7.904,17.655-17.655,17.655h-8.828
			c-9.751,0-17.655-7.905-17.655-17.655l0,0c0,9.751-7.904,17.655-17.655,17.655h-8.828c-9.751,0-17.655-7.905-17.655-17.655
			v-17.655H344.276z"/>
	</g>
	<path style="fill:#46B29D;" d="M275.621,344.276c-3.731-0.136-7.406-0.951-10.845-2.405l-1.31-0.474
		c-3.493-1.215-7.242-1.502-10.879-0.832c-1.555,0.336-3.084,0.779-4.578,1.328c-3.715,1.442-7.646,2.248-11.629,2.383
		c-8.669-0.916-16.651-5.141-22.284-11.793c-2.107-2.354-2.794-5.655-1.802-8.655c0.992-3,3.512-5.24,6.607-5.873
		c3.095-0.634,6.293,0.436,8.384,2.804c2.375,2.822,5.544,4.864,9.095,5.862c2.069-0.195,4.099-0.69,6.026-1.47
		c2.284-0.817,4.623-1.469,7-1.953c6.669-1.223,13.541-0.688,19.94,1.552l1.509,0.547c1.518,0.667,3.123,1.112,4.767,1.323
		c3.547-1.007,6.713-3.048,9.095-5.862c2.092-2.364,5.288-3.43,8.38-2.795c3.092,0.634,5.61,2.872,6.603,5.869
		c0.993,2.997,0.309,6.295-1.793,8.65C292.272,339.135,284.29,343.359,275.621,344.276L275.621,344.276z"/>
	<g>
		<path style="fill:#D75E72;" d="M309.054,104.166v63.559c0,4.875-3.952,8.828-8.828,8.828c-4.875,0-8.828-3.952-8.828-8.828
			v-52.966h0.53c5.251,0.009,10.234-2.321,13.594-6.356L309.054,104.166z"/>
		<path style="fill:#D75E72;" d="M273.743,114.759v26.483c0,4.875-3.952,8.828-8.828,8.828s-8.828-3.952-8.828-8.828v-26.483
			H273.743z"/>
		<path style="fill:#D75E72;" d="M207.448,291.31c-4.875,0-8.828-3.952-8.828-8.828v-52.966c0-4.875,3.952-8.828,8.828-8.828
			s8.828,3.952,8.828,8.828v52.966C216.276,287.358,212.324,291.31,207.448,291.31z"/>
		<path style="fill:#D75E72;" d="M141.241,317.793c-4.875,0-8.828-3.952-8.828-8.828v-26.483c0-4.875,3.952-8.828,8.828-8.828
			s8.828,3.952,8.828,8.828v26.483C150.069,313.841,146.117,317.793,141.241,317.793z"/>
		<path style="fill:#D75E72;" d="M114.759,289.224c-4.875,0-8.828-3.952-8.828-8.828v-44.138c0-4.875,3.952-8.828,8.828-8.828
			c4.875,0,8.828,3.952,8.828,8.828v44.138C123.586,285.272,119.634,289.224,114.759,289.224z"/>
	</g>
	<path style="fill:#E6E7E8;" d="M220.69,233.931c0,31.69-25.69,57.379-57.379,57.379s-57.379-25.69-57.379-57.379
		s25.69-4.414,57.379-4.414S220.69,202.241,220.69,233.931z"/>
	<g>
		<path style="fill:#D75E72;" d="M313.379,300.138c-4.875,0-8.828-3.952-8.828-8.828v-52.965c0-4.875,3.952-8.828,8.828-8.828
			s8.828,3.952,8.828,8.828v52.965C322.207,296.186,318.255,300.138,313.379,300.138z"/>
		<path style="fill:#D75E72;" d="M344.276,326.621c-4.875,0-8.828-3.952-8.828-8.828V291.31c0-4.875,3.952-8.828,8.828-8.828
			c4.875,0,8.828,3.952,8.828,8.828v26.483C353.103,322.668,349.151,326.621,344.276,326.621z"/>
	</g>
	<circle style="fill:#E6E7E8;" cx="357.517" cy="242.759" r="57.379"/>
</g>
<g>
</g>
<g>
</g>
<g>
</g>
<g>
</g>
<g>
</g>
<g>
</g>
<g>
</g>
<g>
</g>
<g>
</g>
<g>
</g>
<g>
</g>
<g>
</g>
<g>
</g>
<g>
</g>
<g>
</g>
</svg>
