<?xml version="1.0" encoding="iso-8859-1"?>
<!-- Generator: Adobe Illustrator 19.0.0, SVG Export Plug-In . SVG Version: 6.00 Build 0)  -->
<svg version="1.1" id="Capa_1" xmlns="http://www.w3.org/2000/svg" xmlns:xlink="http://www.w3.org/1999/xlink" x="0px" y="0px"
	 viewBox="0 0 512 512" style="enable-background:new 0 0 512 512;" xml:space="preserve">
<g>
	<path style="fill:#41767F;" d="M13.017,277.695V138.847c-0.01-36.828,14.615-72.15,40.656-98.191S115.037-0.01,151.864,0h208.271
		c36.828-0.01,72.15,14.615,98.191,40.656c26.041,26.041,40.666,61.363,40.656,98.191v138.847H13.017z"/>
	<path style="fill:#46B29D;" d="M475.606,401.273c1.786,11.217,0.843,22.699-2.749,33.474c-6.604,17.203-22.811,28.767-39.22,37.153
		c-49.194,25.138-105.973,30.473-161.204,31.704c-62.165,1.385-125.964-2.2-183.21-26.476
		c-22.579-9.576-45.704-24.628-51.981-48.337c-2.547-12.941-2.151-26.288,1.157-39.056c3.093-15.946,6.895-31.732,11.405-47.359
		c-18.912-11.34-31.863-30.441-35.396-52.208c-5.557-35.812,15.292-69.904,22.305-105.459c3.192-16.183,4.234-34.413,16.13-45.84
		c2.975-2.37,5.714-5.023,8.178-7.921c1.959-3.205,3.309-6.745,3.982-10.442c0.359-2.678,1.005-5.309,1.929-7.848l2.009-8.175
		l4.019-16.349c0.64-3.994,1.986-7.842,3.976-11.363c2.114-3.138,3.825-6.466,5.865-9.644c9.83-14.012,25.259-23.066,42.286-24.814
		c20.7-1.394,41.433,2.16,60.487,10.369c27.902,10.261,56.532,25.083,70.337,51.412c16.548-29.784,50.177-45.568,82.787-55.444
		c21.548-6.525,45.505-11.164,66.013-1.872c26.022,11.79,38.109,42.325,41.142,70.732c0.062,4.341,1.19,8.6,3.285,12.402
		c2.498,2.902,5.381,5.448,8.569,7.569c13.431,11.227,14.36,31.007,17.709,48.189c7.228,37.077,30.339,73.2,21.29,109.875
		c-5.957,20.161-18.812,37.587-36.317,49.23c7.255,16.835,12.212,34.57,14.735,52.728
		C475.299,398.755,475.459,400.011,475.606,401.273z"/>
	<path style="fill:#14A085;" d="M64.738,302.394c-3.825,0.003-7.202-2.499-8.312-6.159c-1.11-3.661,0.307-7.617,3.49-9.739
		c15.526-9.498,33.334-14.616,51.534-14.809c25.076,0,48.763,0,59.534-16.161c1.71-2.603,4.684-4.09,7.792-3.896
		s5.874,2.038,7.248,4.832c1.374,2.795,1.145,6.111-0.6,8.691c-15.924,23.89-46.763,23.89-73.975,23.89
		c-14.776,0.181-29.239,4.286-41.907,11.894C68.121,301.888,66.448,302.395,64.738,302.394z"/>
	<path style="fill:#464F5D;" d="M111.453,200.261c-4.347,6.458-6.329,14.22-5.61,21.972c2.631,18.284,30.716,27.695,45.662,31.431
		c11.012,3.69,22.795,4.447,34.188,2.197c10.047-3.246,17.454-11.812,19.215-22.223"/>
	<path style="fill:#14A085;" d="M446.907,302.394c-1.704,0.001-3.37-0.502-4.788-1.445c-12.694-7.57-27.153-11.676-41.932-11.907
		c-27.203,0-58.042,0-73.974-23.89c-1.746-2.579-1.976-5.897-0.602-8.693c1.374-2.796,4.141-4.64,7.25-4.833
		c3.109-0.193,6.083,1.295,7.793,3.899c10.78,16.161,34.458,16.161,59.534,16.161c18.203,0.193,36.014,5.31,51.542,14.809
		c3.183,2.122,4.6,6.078,3.49,9.739C454.109,299.895,450.732,302.397,446.907,302.394L446.907,302.394z"/>
	<path style="fill:#464F5D;" d="M400.188,200.261c4.347,6.458,6.329,14.22,5.61,21.972c-2.631,18.284-30.716,27.695-45.662,31.431
		c-11.012,3.69-22.795,4.447-34.188,2.197c-10.047-3.246-17.454-11.812-19.215-22.223"/>
	<g>
		<path style="fill:#14A085;" d="M202.263,337.436c-2.156,0.006-4.299-0.333-6.347-1.004c-6.659-2.427-11.862-7.738-14.153-14.445
			c-9.246-22.39,20.169-40.992,23.551-43.038c2.651-1.608,5.958-1.679,8.676-0.187s4.433,4.32,4.5,7.42
			c0.067,3.1-1.525,5.999-4.176,7.607c-7.085,4.322-19.195,15.08-16.517,21.568c0.551,1.908,1.797,3.54,3.491,4.576
			c1.422,0.259,2.891,0.015,4.153-0.691c4.148-2.314,9.384-0.896,11.797,3.195c2.401,4.055,1.089,9.286-2.941,11.729
			C210.628,336.26,206.487,337.386,202.263,337.436z"/>
		<path style="fill:#14A085;" d="M309.737,337.436c-4.224-0.051-8.365-1.177-12.034-3.272c-4.092-2.484-5.4-7.813-2.922-11.909
			c2.478-4.096,7.805-5.411,11.905-2.939c1.233,0.657,2.653,0.873,4.025,0.614c1.696-1.037,2.941-2.671,3.491-4.581
			c2.678-6.483-9.432-17.242-16.517-21.564c-4.098-2.485-5.405-7.822-2.92-11.92c2.485-4.098,7.822-5.405,11.92-2.92
			c3.381,2.047,32.797,20.648,23.551,43.034c-2.289,6.709-7.493,12.021-14.153,14.449
			C314.036,337.102,311.893,337.442,309.737,337.436z"/>
		<path style="fill:#14A085;" d="M273.644,325.259c-4.744-0.17-8.74,3.512-8.958,8.254c-0.152,2.25-1.788,4.928-8.686,4.928
			c-6.864,0-8.517-2.648-8.678-4.89c-0.12-4.748-4.035-8.518-8.785-8.459c-4.75,0.059-8.569,3.925-8.571,8.675
			c0.321,6.455,3.303,12.489,8.237,16.664c4.934,4.175,11.378,6.118,17.797,5.366c6.419,0.752,12.863-1.191,17.797-5.366
			c4.934-4.175,7.916-10.208,8.237-16.664C282.015,329.122,278.288,325.343,273.644,325.259L273.644,325.259z"/>
		<path style="fill:#14A085;" d="M55.458,234.309c-3.437,0.001-6.551-2.026-7.94-5.169c-4.165-9.061-6.994-18.678-8.398-28.551
			c-0.557-4.734,2.808-9.031,7.538-9.625c4.73-0.593,9.053,2.739,9.682,7.464c1.193,8.194,3.565,16.172,7.042,23.686
			c1.185,2.683,0.936,5.782-0.662,8.242C61.122,232.816,58.391,234.303,55.458,234.309L55.458,234.309z"/>
		<path style="fill:#14A085;" d="M456.542,234.309c-2.933-0.007-5.664-1.494-7.262-3.953c-1.598-2.459-1.847-5.559-0.662-8.242
			c3.477-7.515,5.849-15.493,7.042-23.686c0.63-4.725,4.953-8.058,9.682-7.464c4.73,0.593,8.095,4.891,7.538,9.625
			c-1.404,9.873-4.233,19.49-8.398,28.551C463.094,232.283,459.98,234.311,456.542,234.309z"/>
		<path style="fill:#14A085;" d="M97.881,381.831c-1.515,0.001-3.003-0.398-4.314-1.157c-11.815-6.608-23.133-14.069-33.864-22.322
			c-3.761-2.972-4.4-8.43-1.428-12.191c2.972-3.761,8.43-4.4,12.191-1.428c10.065,7.721,20.675,14.705,31.746,20.898
			c3.411,1.957,5.079,5.965,4.063,9.765C105.259,379.196,101.814,381.836,97.881,381.831L97.881,381.831z"/>
		<path style="fill:#14A085;" d="M412.212,381.831c-3.936,0.006-7.382-2.638-8.397-6.441c-1.014-3.803,0.659-7.812,4.075-9.767
			c9.723-5.475,19.115-11.518,28.127-18.097c3.85-2.855,9.285-2.049,12.14,1.801c2.855,3.85,2.049,9.285-1.801,12.14
			c-9.559,6.988-19.523,13.404-29.839,19.216C415.207,381.434,413.723,381.83,412.212,381.831L412.212,381.831z"/>
		<path style="fill:#14A085;" d="M143.186,407.864c-2.302,0.001-4.509-0.913-6.137-2.541c-1.628-1.628-2.542-3.835-2.541-6.137
			c0-60.055,33.297-60.746,34.712-60.746c4.735,0.014,8.585,3.82,8.652,8.555c0.067,4.735-3.674,8.649-8.407,8.797
			c-6.11,0.487-17.602,10.165-17.602,43.394c0.001,2.302-0.913,4.509-2.541,6.137C147.696,406.951,145.488,407.865,143.186,407.864
			L143.186,407.864z"/>
		<path style="fill:#14A085;" d="M368.814,407.864c-2.302,0.001-4.509-0.913-6.137-2.541c-1.628-1.628-2.542-3.835-2.541-6.137
			c0-33.305-11.542-42.949-17.644-43.398c-4.692-0.328-8.303-4.277-8.212-8.979c0.089-4.635,3.864-8.352,8.5-8.368
			c1.415,0,34.712,0.691,34.712,60.746c0.001,2.302-0.913,4.509-2.541,6.137C373.323,406.951,371.115,407.865,368.814,407.864
			L368.814,407.864z"/>
	</g>
	<path style="fill:#F9EAB0;" d="M334.102,407.864h-8.678c-4.791-0.005-8.673-3.887-8.678-8.678v-8.678
		c0-4.793-3.885-8.678-8.678-8.678c-4.793,0-8.678,3.885-8.678,8.678v8.678c0,4.793-3.885,8.678-8.678,8.678
		c-4.793,0-8.678-3.885-8.678-8.678v-8.678c0-4.793-3.885-8.678-8.678-8.678c-4.793,0-8.678,3.885-8.678,8.678v8.678
		c0,4.793-3.885,8.678-8.678,8.678s-8.678-3.885-8.678-8.678v-8.678c0-4.793-3.885-8.678-8.678-8.678
		c-4.793,0-8.678,3.885-8.678,8.678v8.678c0,4.793-3.885,8.678-8.678,8.678c-4.793,0-8.678-3.885-8.678-8.678v-8.678
		c0-4.793-3.885-8.678-8.678-8.678s-8.678,3.885-8.678,8.678v8.678c-0.005,4.791-3.887,8.673-8.678,8.678h-8.678
		c-4.793,0-8.678,3.885-8.678,8.678c0,4.793,3.885,8.678,8.678,8.678h156.203c4.793,0,8.678-3.885,8.678-8.678
		C342.78,411.75,338.894,407.864,334.102,407.864L334.102,407.864z"/>
	<path style="fill:#14A085;" d="M256,512c-34.5,0-69.424-11.924-69.424-34.712c0-4.793,3.885-8.678,8.678-8.678
		s8.678,3.885,8.678,8.678c0,6.119,19.771,17.356,52.068,17.356s52.068-11.237,52.068-17.356c0-4.793,3.885-8.678,8.678-8.678
		c4.793,0,8.678,3.885,8.678,8.678C325.424,500.076,290.5,512,256,512z"/>
	<g>
		<path style="fill:#41767F;" d="M199.797,239.843c-5.676-0.01-11.316-0.899-16.72-2.636
			c-41.567-13.254-81.119-36.034-116.008-56.127c-4.125-2.405-5.532-7.69-3.15-11.828c2.382-4.138,7.66-5.574,11.81-3.215
			c34.136,19.661,72.831,41.945,112.619,54.636c10.571,3.713,22.299,1.884,31.237-4.873c15.788-12.703,9.441-29.123,4.246-37.775
			c-1.596-2.658-1.652-5.966-0.147-8.677c1.504-2.711,4.341-4.413,7.441-4.466c3.1-0.053,5.993,1.552,7.588,4.211
			c13.381,22.297,10.22,45.377-8.246,60.229C221.746,236.233,210.922,239.946,199.797,239.843L199.797,239.843z"/>
		<path style="fill:#41767F;" d="M311.848,239.843c-11.128,0.101-21.955-3.612-30.678-10.521
			c-18.458-14.852-21.619-37.928-8.237-60.229c2.467-4.109,7.797-5.441,11.907-2.975c4.109,2.467,5.441,7.797,2.975,11.907
			c-5.195,8.657-11.551,25.076,4.237,37.771c8.938,6.757,20.665,8.588,31.237,4.877c39.822-12.695,78.492-34.975,112.619-54.636
			c4.151-2.36,9.428-0.923,11.81,3.215c2.382,4.138,0.975,9.423-3.15,11.828c-34.881,20.093-74.415,42.869-116.008,56.127
			C323.158,238.944,317.521,239.833,311.848,239.843L311.848,239.843z"/>
	</g>
</g>
<g>
</g>
<g>
</g>
<g>
</g>
<g>
</g>
<g>
</g>
<g>
</g>
<g>
</g>
<g>
</g>
<g>
</g>
<g>
</g>
<g>
</g>
<g>
</g>
<g>
</g>
<g>
</g>
<g>
</g>
</svg>
