<?xml version="1.0" encoding="iso-8859-1"?>
<!-- Generator: Adobe Illustrator 19.0.0, SVG Export Plug-In . SVG Version: 6.00 Build 0)  -->
<svg version="1.1" id="Capa_1" xmlns="http://www.w3.org/2000/svg" xmlns:xlink="http://www.w3.org/1999/xlink" x="0px" y="0px"
	 viewBox="0 0 503.538 503.538" style="enable-background:new 0 0 503.538 503.538;" xml:space="preserve">
<g>
	<path style="fill:#41767F;" d="M304.14,494.818c138.327,34.278,172.952-43.563,172.952-43.563
		c-34.712-7.203-43.39-52.068-43.39-52.068l17.66-59.878c22.668-34.66,34.732-75.181,34.712-116.596
		C486.074,99.74,381.157,0,251.769,0S17.464,99.74,17.464,222.712c-0.02,41.415,12.044,81.936,34.712,116.596l17.66,59.878
		c0,0-8.678,44.865-43.39,52.068c0,0,34.625,77.841,172.952,43.563H304.14z"/>
	<path style="fill:#7ED09E;" d="M451.362,215.127v128.607c0.019,4.623-0.358,9.239-1.128,13.798
		c-3.377,18.961-13.221,36.165-27.857,48.683l-65.605,57.969c-28.457,25.214-65.161,39.137-103.181,39.138h-3.645
		c-38.02-0.001-74.724-13.923-103.181-39.138l-65.605-57.969c-14.636-12.518-24.48-29.723-27.857-48.683
		c-0.77-4.559-1.148-9.175-1.128-13.798V215.127c-0.038-19.078,6.181-37.643,17.703-52.849c3.105,23.32,8.482,46.282,16.054,68.556
		c0.694,2.343,1.475,4.686,2.256,6.942c1.476,4.253,2.951,8.418,4.425,12.496c8.442,23.377,18.117,46.29,28.985,68.643
		c-4.608-18.704-6.767-37.928-6.422-57.188v-1.649c0-2.43,0.087-4.86,0.26-7.203c0.174-3.124,0.434-6.248,0.694-9.372
		c0.087-0.521,0.087-0.955,0.174-1.475c0.26-2.169,0.52-4.426,0.781-6.595c0.863-7.028,2.079-14.008,3.645-20.914
		c1.302-5.727,2.777-11.455,4.512-17.182c1.042-3.558,2.256-7.116,3.559-10.587c0.78-2.169,1.561-4.339,2.516-6.422
		c4.131-10.496,9.553-20.436,16.141-29.592c6.41-8.578,13.973-16.229,22.477-22.736c12.062-9.459,25.426-17.356,38.443-26.034
		c0.119,8.733,0.961,17.44,2.517,26.034c3.379,17.765,8.345,35.191,14.839,52.068c2.432-17.831,6.977-35.31,13.538-52.068
		c9.718-23.951,12.496-24.472,12.496-24.472c4.931,7.743,9.115,15.937,12.496,24.472c6.561,16.758,11.106,34.236,13.538,52.068
		c6.494-16.877,11.46-34.303,14.839-52.068c1.556-8.594,2.398-17.301,2.517-26.034c13.017,8.678,26.381,16.575,38.443,26.034
		c8.503,6.508,16.067,14.159,22.477,22.736c6.588,9.156,12.01,19.096,16.141,29.592c0.955,2.083,1.736,4.252,2.516,6.422
		c1.303,3.558,2.517,7.116,3.559,10.674c1.736,5.727,3.21,11.368,4.512,17.096c1.565,6.906,2.782,13.886,3.645,20.914
		c0.26,2.169,0.521,4.426,0.781,6.595c0.072,0.488,0.101,0.982,0.087,1.475c0.346,3.124,0.607,6.248,0.781,9.372
		c0.174,2.343,0.26,4.773,0.26,7.203v2.083c0.302,19.115-1.857,38.189-6.422,56.754c10.816-22.347,20.49-45.228,28.985-68.556
		c1.475-4.079,2.949-8.331,4.425-12.583c0.781-2.43,1.649-4.86,2.43-7.29c7.475-22.173,12.793-45.015,15.881-68.209
		C445.181,177.484,451.4,196.048,451.362,215.127z"/>
	<g>
		<path style="fill:#527F72;" d="M217.925,240.9c-0.596,0.143-1.21,0.202-1.822,0.174c-4.059,0.032-7.578-2.798-8.418-6.769
			c-0.26-0.868-9.892-34.104-82.441-36.968c1.042-3.558,2.256-7.116,3.559-10.587c0.78-2.169,1.561-4.339,2.516-6.422
			c82.701,4.86,92.855,48.423,93.288,50.332c0.474,2.244,0.036,4.585-1.217,6.506C222.136,239.087,220.17,240.431,217.925,240.9z"/>
		<path style="fill:#527F72;" d="M378.294,197.424c-72.983,2.864-82.094,36.534-82.181,36.968c-1.029,3.861-4.509,6.56-8.504,6.595
			c-0.641,0.024-1.283-0.034-1.91-0.174c-4.596-1.023-7.528-5.537-6.594-10.153c0.433-1.996,10.5-45.299,93.115-50.332
			c0.955,2.083,1.736,4.252,2.516,6.422C376.038,190.308,377.252,193.866,378.294,197.424z"/>
	</g>
	<g>
		<path style="fill:#F5EFCA;" d="M213.413,285.158c-11.542,9.893-62.136,46.861-98.235-23.431v-1.649c0-2.43,0.087-4.86,0.26-7.203
			c0.174-3.124,0.434-6.248,0.694-9.372l44.084-0.347c13.887-0.107,26.986,6.442,35.233,17.616L213.413,285.158z"/>
		<path style="fill:#F5EFCA;" d="M388.36,260.079v2.083c-30.981,60.052-72.721,41.047-91.119,28.377
			c-2.951-2.083-5.294-3.992-6.942-5.38l17.79-24.212c8.224-11.269,21.37-17.89,35.32-17.79l43.91,0.347
			c0.346,3.124,0.607,6.248,0.781,9.372C388.273,255.219,388.36,257.649,388.36,260.079z"/>
	</g>
	<g>
		<path style="fill:#46B29D;" d="M222.784,308.155c-0.872,0.271-1.777,0.417-2.69,0.434c-3.749-0.018-7.068-2.428-8.244-5.988
			c-0.694-2.169-18.31-53.369-61.874-50.506c-11.491,0.859-23.02,1.12-34.538,0.781c0.174-3.645,0.52-7.289,0.868-10.847
			c0.26-2.169,0.52-4.426,0.781-6.595c2.43,0.087,5.034,0.174,7.897,0.174c6.681,0,14.579-0.26,23.864-0.868
			c57.188-3.905,78.622,59.704,79.49,62.481C229.812,301.773,227.329,306.66,222.784,308.155z"/>
		<path style="fill:#46B29D;" d="M387.319,243.504c0.346,3.124,0.607,6.248,0.781,9.372c-11.461,0.339-22.931,0.078-34.365-0.781
			c-30.546-1.909-48.424,22.91-56.494,38.443c-2.086,3.884-3.884,7.916-5.38,12.062c-1.155,3.576-4.487,5.996-8.245,5.988
			c-0.912-0.024-1.816-0.17-2.69-0.434c-4.532-1.511-7.007-6.384-5.554-10.934c0.956-2.777,22.129-66.386,79.49-62.481
			c10.51,0.79,21.054,1.022,31.588,0.694c0.26,2.169,0.521,4.426,0.781,6.595C387.304,242.517,387.333,243.01,387.319,243.504
			L387.319,243.504z"/>
		<path style="fill:#46B29D;" d="M271.057,370.983c-3.668-0.134-7.281-0.935-10.661-2.364l-1.288-0.466
			c-3.435-1.191-7.119-1.473-10.695-0.818c-1.528,0.33-3.032,0.766-4.5,1.305c-3.652,1.418-7.517,2.21-11.432,2.343
			c-8.522-0.901-16.369-5.053-21.907-11.593c-2.071-2.314-2.747-5.56-1.771-8.508c0.975-2.949,3.453-5.151,6.495-5.774
			c3.043-0.623,6.186,0.428,8.242,2.757c2.335,2.774,5.45,4.782,8.941,5.763c2.034-0.192,4.03-0.678,5.924-1.445
			c2.245-0.803,4.545-1.445,6.882-1.919c6.556-1.202,13.311-0.676,19.602,1.525l1.483,0.538c1.492,0.655,3.07,1.093,4.686,1.301
			c3.487-0.99,6.599-2.996,8.941-5.763c2.057-2.324,5.198-3.371,8.238-2.748c3.04,0.624,5.515,2.824,6.491,5.77
			c0.976,2.946,0.303,6.189-1.763,8.504C287.426,365.93,279.579,370.082,271.057,370.983L271.057,370.983z"/>
	</g>
	<path style="fill:#527F72;" d="M311.993,428.952c-8.852,16.748-32.976,28.811-60.225,28.811c-27.162,0-51.286-12.062-60.138-28.724
		c6.983-1.993,13.019-6.428,17.008-12.496c2.727-3.959,6.395-7.18,10.674-9.372c4.234-2.084,9.215-1.987,13.364,0.26
		c11.917,6.422,26.265,6.422,38.182,0c4.149-2.247,9.13-2.345,13.364-0.26c4.279,2.192,7.947,5.413,10.675,9.372
		C298.923,422.596,304.99,427.001,311.993,428.952L311.993,428.952z"/>
	<path style="fill:#67B9CC;" d="M269.125,26.034c-6.426,0.02-12.614,2.434-17.356,6.771c-4.742-4.337-10.93-6.751-17.356-6.771
		c-4.793,0-8.678,3.885-8.678,8.678s3.885,8.678,8.678,8.678c4.791,0.005,8.673,3.887,8.678,8.678c0,4.793,3.885,8.678,8.678,8.678
		c4.793,0,8.678-3.885,8.678-8.678c0.005-4.791,3.887-8.673,8.678-8.678c4.793,0,8.678-3.885,8.678-8.678
		S273.917,26.034,269.125,26.034z"/>
</g>
<g>
</g>
<g>
</g>
<g>
</g>
<g>
</g>
<g>
</g>
<g>
</g>
<g>
</g>
<g>
</g>
<g>
</g>
<g>
</g>
<g>
</g>
<g>
</g>
<g>
</g>
<g>
</g>
<g>
</g>
</svg>
