<?xml version="1.0" encoding="UTF-8"?>
<svg xmlns="http://www.w3.org/2000/svg" xmlns:xlink="http://www.w3.org/1999/xlink" width="32px" height="32px" viewBox="0 0 32 46" version="1.1">
<g id="surface1">
<path style=" stroke:none;fill-rule:nonzero;fill:rgb(7.843137%,14.509804%,18.823529%);fill-opacity:1;" d="M 7.382812 32.558594 C 5.648438 30.9375 3.746094 29.5 1.703125 28.269531 C 1.703125 28.269531 2.234375 26.980469 2.414062 26.335938 C 3.839844 21.148438 2.574219 16.984375 0.234375 12.234375 C 0.234375 12.234375 3.957031 12.636719 6.363281 12.410156 C 9.8125 12.082031 12.894531 11.148438 16.011719 9.625 C 21.433594 12.269531 25.878906 12.875 31.789062 12.234375 C 29.019531 17.851562 27.9375 22.503906 30.316406 28.265625 C 30.316406 28.265625 28.921875 29.109375 28.0625 29.730469 C 21.878906 34.21875 18.78125 38.945312 16.011719 46 C 13.886719 40.585938 11.742188 36.621094 7.382812 32.558594 "/>
<path style=" stroke:none;fill-rule:nonzero;fill:rgb(100%,100%,100%);fill-opacity:1;" d="M 8.066406 31.851562 C 6.507812 30.398438 4.78125 28.976562 2.941406 27.871094 C 3.109375 27.453125 3.253906 27.027344 3.375 26.589844 C 4.597656 22.125 3.96875 17.574219 1.910156 13.394531 C 3.421875 13.53125 4.945312 13.523438 6.457031 13.378906 C 9.78125 13.070312 13.019531 12.167969 16.011719 10.714844 C 20.09375 12.707031 25.511719 13.90625 30.113281 13.394531 C 28.050781 17.574219 27.421875 22.125 28.648438 26.589844 C 28.765625 27.027344 28.910156 27.453125 29.082031 27.871094 C 29.082031 27.871094 28.375 28.296875 27.472656 28.949219 C 22.398438 32.632812 18.304688 37.445312 16.011719 43.289062 C 14.238281 38.769531 11.609375 35.152344 8.066406 31.851562 "/>
<path style=" stroke:none;fill-rule:nonzero;fill:rgb(0%,33.333333%,58.431373%);fill-opacity:1;" d="M 8.339844 31.570312 C 11.003906 34.054688 14.113281 37.660156 16.011719 42.222656 C 18.242188 36.859375 22.507812 32.070312 27.234375 28.640625 C 27.890625 28.164062 28.367188 27.851562 28.59375 27.710938 C 28.113281 26.371094 27.816406 24.976562 27.710938 23.558594 C 27.414062 20.230469 28.015625 16.882812 29.453125 13.851562 C 25.007812 14.148438 19.960938 13.058594 16.011719 11.148438 C 12.058594 13.058594 7.015625 14.148438 2.570312 13.851562 C 4.449219 17.832031 4.917969 22.460938 3.757812 26.691406 C 3.621094 27.179688 3.5 27.527344 3.429688 27.710938 C 5.1875 28.847656 6.828125 30.136719 8.339844 31.570312 "/>
<path style=" stroke:none;fill-rule:nonzero;fill:rgb(7.843137%,14.509804%,18.823529%);fill-opacity:1;" d="M 5.359375 17.382812 C 4.121094 10.75 4.273438 4.054688 4.273438 4.054688 L 16.011719 0 L 27.75 4.054688 C 27.75 4.054688 27.902344 10.75 26.660156 17.382812 C 25.226562 25.0625 22.601562 32.058594 16.011719 37.027344 C 9.421875 32.058594 6.796875 25.0625 5.359375 17.382812 "/>
<path style=" stroke:none;fill-rule:nonzero;fill:rgb(100%,100%,100%);fill-opacity:1;" d="M 6.644531 17.167969 C 5.910156 13.15625 5.550781 9.082031 5.566406 5.007812 L 16.011719 1.394531 L 26.457031 5.007812 C 26.472656 9.082031 26.109375 13.15625 25.375 17.167969 C 24.160156 23.652344 21.675781 31.109375 16.011719 35.382812 C 10.34375 31.109375 7.859375 23.652344 6.644531 17.167969 "/>
<path style=" stroke:none;fill-rule:nonzero;fill:rgb(36.470588%,59.215686%,25.490196%);fill-opacity:1;" d="M 7.320312 17.046875 C 8.503906 23.378906 10.960938 30.582031 16.011719 34.53125 C 23.59375 28.601562 25.839844 14.519531 25.78125 5.484375 L 16.011719 2.109375 L 6.242188 5.484375 C 6.253906 9.363281 6.617188 13.230469 7.320312 17.046875 "/>
<path style=" stroke:none;fill-rule:nonzero;fill:rgb(100%,100%,100%);fill-opacity:1;" d="M 13.570312 16.949219 L 12.824219 11.65625 C 12.148438 11.472656 10.882812 11.050781 10.882812 10.1875 C 10.238281 9.875 9.546875 9.40625 9.546875 8.730469 C 9.546875 7.957031 10.429688 7.453125 11.195312 7.144531 C 11.6875 6.582031 12.65625 6.195312 13.75 5.980469 C 13.808594 5.675781 13.96875 5.394531 14.199219 5.183594 C 14.480469 4.949219 14.796875 4.761719 15.140625 4.632812 L 15.242188 4.5 L 15.421875 2.207031 C 15.527344 1.5625 16.214844 1.636719 16.421875 1.867188 C 16.511719 1.960938 16.570312 2.082031 16.585938 2.214844 L 16.777344 4.496094 L 16.882812 4.636719 C 18.019531 5.078125 18.242188 5.636719 18.296875 5.972656 C 19.371094 6.109375 20.332031 6.578125 20.824219 7.144531 C 21.59375 7.457031 22.472656 7.957031 22.472656 8.730469 C 22.472656 9.40625 21.78125 9.871094 21.136719 10.179688 C 21.136719 11.082031 19.890625 11.492188 19.183594 11.671875 L 18.441406 16.949219 L 13.570312 16.949219 "/>
<path style=" stroke:none;fill-rule:nonzero;fill:rgb(100%,100%,100%);fill-opacity:1;" d="M 12.570312 31.597656 C 13.148438 27.8125 13.558594 26.214844 13.773438 22.332031 L 18.246094 22.332031 C 18.484375 26.339844 18.90625 27.8125 19.546875 31.625 L 16.011719 35.140625 L 12.570312 31.597656 "/>
<path style=" stroke:none;fill-rule:nonzero;fill:rgb(7.843137%,14.509804%,18.823529%);fill-opacity:1;" d="M 14.085938 16.949219 L 13.273438 11.257812 C 12.25 11.023438 11.386719 10.628906 11.386719 10.1875 C 11.390625 10.082031 11.425781 9.984375 11.492188 9.902344 C 10.65625 9.585938 10.152344 9.175781 10.152344 8.730469 C 10.152344 8.285156 10.664062 7.875 11.511719 7.554688 C 11.890625 7.019531 12.949219 6.585938 14.320312 6.386719 C 14.0625 5.996094 14.539062 5.550781 14.539062 5.550781 C 14.804688 5.324219 15.117188 5.152344 15.457031 5.054688 L 15.738281 4.671875 L 15.914062 2.261719 C 16.007812 1.925781 16.109375 2.261719 16.109375 2.261719 L 16.285156 4.671875 L 16.5 4.960938 C 17.292969 5.191406 17.609375 5.570312 17.609375 5.570312 L 17.445312 5.558594 C 16.71875 5.648438 16.519531 6.027344 16.550781 6.28125 C 18.46875 6.363281 20.03125 6.878906 20.511719 7.554688 C 21.359375 7.875 21.867188 8.285156 21.867188 8.730469 C 21.867188 9.175781 21.367188 9.582031 20.53125 9.902344 C 20.597656 9.984375 20.632812 10.082031 20.632812 10.1875 C 20.632812 10.628906 19.886719 11.023438 18.730469 11.265625 L 17.933594 16.949219 L 17.523438 16.949219 L 17.960938 11.605469 C 17.972656 11.542969 17.980469 11.367188 17.75 11.410156 C 17.578125 11.4375 17.160156 11.5 17.160156 11.5 C 17.101562 11.5 17.042969 11.527344 17.003906 11.574219 C 16.964844 11.617188 16.945312 11.675781 16.953125 11.734375 C 16.953125 11.734375 16.960938 14.527344 16.957031 16.945312 L 15.066406 16.945312 L 15.066406 11.761719 C 15.078125 11.703125 15.066406 11.636719 15.027344 11.589844 C 14.988281 11.539062 14.929688 11.507812 14.867188 11.503906 L 14.296875 11.414062 C 14 11.355469 14.058594 11.597656 14.058594 11.597656 L 14.503906 16.945312 L 14.085938 16.945312 "/>
<path style=" stroke:none;fill-rule:nonzero;fill:rgb(7.843137%,14.509804%,18.823529%);fill-opacity:1;" d="M 12.996094 31.871094 C 13.296875 30.246094 14.117188 26.585938 14.316406 22.335938 L 17.703125 22.335938 C 17.902344 26.585938 18.714844 30.230469 19.019531 31.859375 L 18.226562 32.832031 C 17.855469 31.042969 17.640625 29.980469 17.304688 28.210938 C 17.253906 27.929688 17.179688 27.769531 17.054688 27.785156 C 16.953125 27.796875 16.90625 27.929688 16.894531 28.246094 L 16.496094 34.25 L 16.011719 34.964844 L 15.523438 34.25 L 15.125 28.246094 C 15.113281 27.929688 15.066406 27.796875 14.964844 27.785156 C 14.839844 27.769531 14.765625 27.929688 14.710938 28.210938 C 14.378906 29.980469 14.171875 31.019531 13.800781 32.808594 L 12.996094 31.871094 "/>
<path style=" stroke:none;fill-rule:nonzero;fill:rgb(100%,100%,100%);fill-opacity:1;" d="M 17.832031 7.660156 C 17.425781 7.558594 17.007812 7.511719 16.589844 7.523438 L 16.730469 7.445312 C 17.195312 7.195312 17.921875 7.125 18.480469 7.265625 C 18.980469 7.390625 20.253906 8.082031 19.941406 8.902344 C 19.78125 8.726562 19.605469 8.566406 19.417969 8.421875 C 19.308594 8.464844 19.253906 8.585938 19.292969 8.695312 C 19.648438 9.027344 19.84375 9.460938 19.691406 9.855469 C 19.21875 9.210938 18.171875 8.65625 17.371094 8.40625 L 17.300781 8.382812 C 17.734375 8.058594 18.324219 8.113281 18.816406 8.359375 C 18.914062 8.3125 18.964844 8.207031 18.941406 8.101562 C 18.59375 7.90625 18.222656 7.757812 17.832031 7.660156 "/>
<path style=" stroke:none;fill-rule:nonzero;fill:rgb(7.843137%,14.509804%,18.823529%);fill-opacity:1;" d="M 0 17.085938 C 5.25 14.886719 10.292969 13.765625 16.011719 13.765625 C 21.726562 13.765625 26.773438 14.886719 32.023438 17.085938 L 32.023438 26.96875 C 26.578125 24.6875 21.957031 23.492188 16.011719 23.492188 C 10.066406 23.492188 5.445312 24.6875 0 26.96875 L 0 17.085938 "/>
<path style=" stroke:none;fill-rule:nonzero;fill:rgb(100%,100%,100%);fill-opacity:1;" d="M 1.015625 17.726562 L 1.015625 25.660156 C 10.664062 21.644531 21.5625 21.644531 31.210938 25.660156 L 31.210938 17.726562 C 21.5625 13.710938 10.664062 13.710938 1.015625 17.726562 "/>
<path style=" stroke:none;fill-rule:nonzero;fill:rgb(7.843137%,14.509804%,18.823529%);fill-opacity:1;" d="M 7.960938 17.902344 C 7.960938 18.199219 8.101562 18.246094 8.457031 18.175781 L 8.925781 18.089844 C 9.445312 17.988281 9.558594 17.90625 9.558594 17.535156 C 9.558594 17.132812 9.417969 17.121094 8.816406 17.238281 C 8.398438 17.316406 8.351562 17.324219 8.351562 17.203125 C 8.351562 17.128906 8.410156 17.085938 8.5 17.066406 L 8.929688 16.984375 C 9.109375 16.949219 9.117188 16.992188 9.117188 17.09375 L 9.507812 17.019531 L 9.507812 16.976562 C 9.507812 16.730469 9.464844 16.574219 9.015625 16.660156 L 8.476562 16.761719 C 7.984375 16.855469 7.964844 17.054688 7.964844 17.304688 C 7.964844 17.644531 8.03125 17.707031 8.613281 17.59375 C 9.117188 17.5 9.160156 17.496094 9.160156 17.617188 C 9.160156 17.722656 9.074219 17.75 8.992188 17.765625 L 8.519531 17.855469 C 8.40625 17.878906 8.351562 17.878906 8.347656 17.730469 L 7.960938 17.804688 L 7.960938 17.902344 "/>
<path style=" stroke:none;fill-rule:nonzero;fill:rgb(7.843137%,14.509804%,18.823529%);fill-opacity:1;" d="M 10.714844 17.765625 L 12.125 17.59375 L 12.125 17.261719 L 11.105469 17.386719 L 11.105469 17.164062 L 11.914062 17.066406 L 12.050781 16.765625 L 11.105469 16.878906 L 11.105469 16.65625 L 12.101562 16.539062 L 12.101562 16.214844 L 10.714844 16.382812 L 10.714844 17.765625 "/>
<path style=" stroke:none;fill-rule:nonzero;fill:rgb(7.843137%,14.509804%,18.823529%);fill-opacity:1;" d="M 14.085938 16.390625 L 14.339844 16.890625 L 13.84375 16.925781 Z M 13.148438 17.515625 L 13.582031 17.484375 L 13.695312 17.234375 L 14.484375 17.179688 L 14.605469 17.417969 L 15.039062 17.382812 L 14.339844 16.054688 L 13.835938 16.085938 L 13.148438 17.515625 "/>
<path style=" stroke:none;fill-rule:nonzero;fill:rgb(7.843137%,14.509804%,18.823529%);fill-opacity:1;" d="M 15.773438 16.367188 L 16.320312 16.375 L 16.320312 17.414062 L 16.707031 17.421875 L 16.707031 16.382812 L 17.253906 16.390625 L 17.253906 16.046875 L 15.773438 16.023438 L 15.773438 16.367188 "/>
<path style=" stroke:none;fill-rule:nonzero;fill:rgb(7.843137%,14.509804%,18.823529%);fill-opacity:1;" d="M 18.011719 16.421875 L 18.558594 16.460938 L 18.558594 17.496094 L 18.945312 17.523438 L 18.945312 16.484375 L 19.492188 16.523438 L 19.492188 16.179688 L 18.011719 16.078125 L 18.011719 16.421875 "/>
<path style=" stroke:none;fill-rule:nonzero;fill:rgb(7.843137%,14.509804%,18.823529%);fill-opacity:1;" d="M 20.511719 17.664062 L 21.773438 17.839844 L 21.773438 17.484375 L 20.902344 17.363281 L 20.902344 16.339844 L 20.511719 16.285156 L 20.511719 17.664062 "/>
<path style=" stroke:none;fill-rule:nonzero;fill:rgb(7.843137%,14.509804%,18.823529%);fill-opacity:1;" d="M 22.648438 17.984375 L 24.058594 18.253906 L 24.058594 17.921875 L 23.039062 17.726562 L 23.039062 17.503906 L 23.820312 17.652344 L 23.984375 17.398438 L 23.039062 17.21875 L 23.039062 17 L 24.039062 17.1875 L 24.039062 16.867188 L 22.648438 16.601562 L 22.648438 17.984375 "/>
<path style=" stroke:none;fill-rule:nonzero;fill:rgb(7.843137%,14.509804%,18.823529%);fill-opacity:1;" d="M 2.890625 23.84375 C 2.535156 23.96875 2.148438 23.984375 1.785156 23.890625 L 1.996094 23.089844 C 2.289062 23.199219 2.617188 23.199219 2.910156 23.089844 C 3.183594 22.992188 3.285156 22.824219 3.285156 22.65625 C 3.285156 22.476562 3.199219 22.382812 2.699219 22.351562 C 2.121094 22.320312 1.917969 22.039062 1.917969 21.625 C 1.917969 21.121094 2.308594 20.492188 3.074219 20.214844 C 3.367188 20.101562 3.6875 20.078125 3.992188 20.148438 L 3.800781 20.933594 C 3.566406 20.851562 3.3125 20.84375 3.074219 20.914062 C 2.796875 21.015625 2.683594 21.191406 2.683594 21.332031 C 2.683594 21.558594 2.847656 21.574219 3.261719 21.609375 C 3.875 21.660156 4.0625 21.90625 4.0625 22.347656 C 4.058594 22.898438 3.679688 23.558594 2.890625 23.84375 "/>
<path style=" stroke:none;fill-rule:nonzero;fill:rgb(7.843137%,14.509804%,18.823529%);fill-opacity:1;" d="M 5.8125 20.015625 C 5.328125 20.136719 5 20.65625 5 21.261719 C 5 21.863281 5.328125 22.222656 5.8125 22.097656 C 6.300781 21.972656 6.625 21.449219 6.625 20.847656 C 6.625 20.242188 6.300781 19.890625 5.8125 20.015625 M 5.800781 22.792969 C 4.847656 23.035156 4.242188 22.441406 4.242188 21.453125 C 4.242188 20.464844 4.878906 19.554688 5.832031 19.3125 C 6.777344 19.070312 7.386719 19.664062 7.386719 20.652344 C 7.386719 21.640625 6.746094 22.550781 5.800781 22.792969 "/>
<path style=" stroke:none;fill-rule:nonzero;fill:rgb(7.843137%,14.509804%,18.823529%);fill-opacity:1;" d="M 8.914062 22.027344 C 8.128906 22.164062 7.695312 21.757812 7.695312 20.835938 L 7.695312 18.914062 L 8.371094 18.773438 L 8.371094 20.65625 C 8.371094 21.132812 8.542969 21.386719 8.929688 21.320312 C 9.3125 21.25 9.484375 20.929688 9.484375 20.453125 L 9.484375 18.566406 L 10.421875 18.425781 L 10.160156 18.730469 L 10.160156 20.386719 C 10.160156 21.324219 9.695312 21.890625 8.914062 22.027344 "/>
<path style=" stroke:none;fill-rule:nonzero;fill:rgb(7.843137%,14.509804%,18.823529%);fill-opacity:1;" d="M 13.339844 18.097656 L 13.355469 21.351562 L 11.246094 19.71875 L 11.566406 20.179688 L 11.550781 21.453125 L 10.773438 21.542969 L 10.769531 18.273438 L 12.570312 19.738281 L 12.582031 18.160156 L 13.339844 18.097656 "/>
<path style=" stroke:none;fill-rule:nonzero;fill:rgb(7.843137%,14.509804%,18.823529%);fill-opacity:1;" d="M 15.058594 20.535156 C 15.480469 20.550781 15.582031 20.296875 15.582031 20.058594 L 15.582031 19.1875 C 15.582031 18.535156 15.148438 18.6875 14.746094 18.660156 L 14.746094 20.550781 Z M 16.234375 19.023438 L 16.234375 20.070312 C 16.234375 20.921875 15.558594 21.21875 15.203125 21.210938 C 14.554688 21.230469 14.046875 21.234375 14.046875 21.234375 L 14.050781 18.386719 L 13.765625 18.070312 C 13.765625 18.070312 14.582031 18.019531 15.304688 18.011719 C 15.753906 18.03125 16.234375 18.199219 16.234375 19.023438 "/>
<path style=" stroke:none;fill-rule:nonzero;fill:rgb(7.843137%,14.509804%,18.823529%);fill-opacity:1;" d="M 18.890625 18.125 L 18.894531 18.785156 L 17.632812 18.710938 L 17.625 19.328125 L 18.699219 19.417969 L 18.339844 19.957031 L 17.628906 19.894531 L 17.628906 20.566406 L 18.902344 20.667969 L 18.90625 21.3125 L 16.894531 21.195312 L 16.878906 19.566406 L 16.503906 19.230469 L 16.878906 19.265625 L 16.886719 18.019531 L 18.890625 18.125 "/>
<path style=" stroke:none;fill-rule:nonzero;fill:rgb(7.843137%,14.509804%,18.823529%);fill-opacity:1;" d="M 21.171875 21.550781 L 20.601562 20.289062 L 20.261719 20.238281 L 20.261719 21.441406 L 19.550781 21.359375 L 19.550781 18.523438 L 19.199219 18.148438 L 20.878906 18.328125 C 21.464844 18.40625 21.890625 18.910156 21.867188 19.488281 C 21.890625 19.839844 21.667969 20.160156 21.328125 20.265625 L 22.003906 21.691406 L 21.171875 21.550781 M 20.761719 18.980469 L 20.261719 18.910156 L 20.261719 19.621094 L 20.785156 19.699219 L 20.878906 19.703125 C 20.957031 19.703125 21.03125 19.671875 21.085938 19.617188 C 21.136719 19.558594 21.164062 19.484375 21.15625 19.40625 C 21.15625 19.1875 20.984375 19.003906 20.761719 18.980469 L 20.773438 18.929688 "/>
<path style=" stroke:none;fill-rule:nonzero;fill:rgb(7.843137%,14.509804%,18.823529%);fill-opacity:1;" d="M 23.265625 21.984375 C 22.871094 21.890625 22.503906 21.707031 22.195312 21.453125 L 22.382812 20.816406 C 22.632812 21.050781 22.941406 21.21875 23.277344 21.296875 C 23.535156 21.347656 23.628906 21.246094 23.628906 21.085938 C 23.625 20.917969 23.542969 20.789062 23.054688 20.5 C 22.492188 20.164062 22.292969 19.800781 22.285156 19.414062 C 22.277344 18.941406 22.644531 18.5625 23.382812 18.703125 C 23.710938 18.773438 24.015625 18.917969 24.273438 19.125 L 24.097656 19.753906 C 23.898438 19.570312 23.65625 19.433594 23.394531 19.355469 C 23.125 19.304688 23.019531 19.414062 23.023438 19.542969 C 23.027344 19.753906 23.191406 19.855469 23.589844 20.101562 C 24.183594 20.472656 24.367188 20.792969 24.375 21.207031 C 24.386719 21.714844 24.027344 22.132812 23.265625 21.984375 "/>
<path style=" stroke:none;fill-rule:nonzero;fill:rgb(7.843137%,14.509804%,18.823529%);fill-opacity:1;" d="M 25.851562 20.671875 L 25.851562 19.265625 L 27.851562 19.789062 L 27.851562 20.5 L 26.582031 20.167969 L 26.582031 20.863281 L 27.679688 21.152344 L 27.316406 21.636719 L 26.582031 21.445312 L 26.582031 22.792969 L 25.851562 22.601562 L 25.851562 20.980469 L 25.484375 20.574219 L 25.851562 20.671875 M 25.851562 20.96875 L 25.511719 20.59375 "/>
<path style=" stroke:none;fill-rule:nonzero;fill:rgb(7.843137%,14.509804%,18.823529%);fill-opacity:1;" d="M 29.527344 23.9375 C 28.511719 23.574219 27.828125 22.601562 27.828125 21.621094 C 27.828125 20.636719 28.511719 20.152344 29.527344 20.515625 C 29.894531 20.65625 30.222656 20.875 30.496094 21.152344 L 30.277344 21.722656 C 30.066406 21.511719 29.8125 21.347656 29.535156 21.238281 C 28.953125 21.03125 28.59375 21.28125 28.59375 21.894531 C 28.582031 22.492188 28.960938 23.027344 29.535156 23.222656 C 29.78125 23.316406 30.054688 23.328125 30.3125 23.257812 L 30.527344 23.988281 C 30.195312 24.078125 29.84375 24.058594 29.527344 23.9375 "/>
</g>
</svg>
