<?xml version="1.0" encoding="UTF-8"?>
<svg xmlns="http://www.w3.org/2000/svg" xmlns:xlink="http://www.w3.org/1999/xlink" width="32px" height="32px" viewBox="0 0 32 41" version="1.1">
<g id="surface1">
<path style=" stroke:none;fill-rule:nonzero;fill:rgb(100%,100%,100%);fill-opacity:1;" d="M 29.757812 5.480469 C 29.597656 5.464844 29.429688 5.449219 29.25 5.421875 C 26.476562 5.046875 24.972656 3.929688 23.382812 2.746094 C 21.648438 1.460938 19.6875 0 16.023438 0 C 12.359375 0 10.398438 1.460938 8.664062 2.746094 C 7.074219 3.929688 5.570312 5.046875 2.796875 5.421875 C 2.613281 5.449219 2.449219 5.464844 2.289062 5.480469 C 1.664062 5.546875 0 5.722656 0 7.445312 L 0 24.316406 C 0 28.609375 1.371094 32.21875 4.078125 35.046875 C 6.738281 37.828125 10.660156 39.824219 15.734375 40.972656 L 16.023438 41.039062 L 16.3125 40.972656 C 21.386719 39.824219 25.308594 37.828125 27.96875 35.046875 C 30.675781 32.21875 32.046875 28.609375 32.046875 24.316406 L 32.046875 7.445312 C 32.046875 5.722656 30.382812 5.546875 29.757812 5.480469 Z M 29.757812 5.480469 "/>
<path style=" stroke:none;fill-rule:nonzero;fill:rgb(86.666667%,0%,29.019608%);fill-opacity:1;" d="M 16.019531 1.65625 C 12.921875 1.65625 11.34375 2.832031 9.675781 4.070312 C 7.980469 5.328125 6.230469 6.632812 3.023438 7.066406 C 2.820312 7.09375 2.636719 7.113281 2.460938 7.132812 C 1.675781 7.214844 1.675781 7.269531 1.675781 7.449219 L 1.675781 24.324219 C 1.675781 28.183594 2.894531 31.410156 5.296875 33.925781 C 7.710938 36.449219 11.316406 38.273438 16.019531 39.351562 C 20.722656 38.273438 24.328125 36.449219 26.746094 33.925781 C 29.148438 31.410156 30.363281 28.183594 30.363281 24.324219 L 30.363281 7.449219 C 30.363281 7.269531 30.363281 7.214844 29.578125 7.132812 C 29.40625 7.113281 29.21875 7.09375 29.019531 7.066406 C 25.8125 6.632812 24.058594 5.328125 22.367188 4.070312 C 20.695312 2.832031 19.121094 1.65625 16.019531 1.65625 Z M 16.019531 1.65625 "/>
<path style=" stroke:none;fill-rule:nonzero;fill:rgb(0%,9.411765%,21.568627%);fill-opacity:1;" d="M 20.925781 3.054688 L 20.925781 37.792969 C 19.339844 38.457031 17.699219 38.976562 16.019531 39.351562 C 11.316406 38.277344 7.710938 36.449219 5.296875 33.925781 C 2.894531 31.410156 1.675781 28.183594 1.675781 24.324219 L 1.675781 7.449219 C 1.675781 7.269531 1.675781 7.214844 2.460938 7.132812 C 2.636719 7.113281 2.820312 7.09375 3.023438 7.066406 C 6.230469 6.632812 7.980469 5.328125 9.671875 4.070312 C 11.34375 2.828125 12.921875 1.65625 16.019531 1.65625 C 18.238281 1.65625 19.675781 2.257812 20.925781 3.054688 Z M 20.925781 3.054688 "/>
<path style=" stroke:none;fill-rule:nonzero;fill:rgb(86.666667%,0%,29.019608%);fill-opacity:1;" d="M 19.820312 7.804688 C 18.722656 7.015625 17.546875 6.601562 16.347656 6.601562 L 16.273438 6.601562 C 13.867188 6.601562 11.570312 8.257812 9.792969 11.261719 C 8.632812 13.230469 5.335938 19.46875 2.152344 25.507812 C 2.027344 25.742188 1.902344 25.976562 1.777344 26.214844 C 1.910156 27.449219 2.207031 28.664062 2.660156 29.828125 C 6.414062 22.832031 11.042969 14.242188 12.246094 12.125 C 13.578125 9.785156 14.90625 8.660156 16.3125 8.683594 C 17.714844 8.660156 19.039062 9.785156 20.371094 12.125 C 20.539062 12.425781 20.777344 12.851562 21.070312 13.382812 L 21.070312 8.90625 C 20.6875 8.5 20.269531 8.132812 19.820312 7.804688 Z M 19.820312 7.804688 "/>
<path style=" stroke:none;fill-rule:nonzero;fill:rgb(86.666667%,0%,29.019608%);fill-opacity:1;" d="M 4.367188 17.675781 L 5.476562 15.703125 C 4.191406 15.96875 2.921875 16.308594 1.675781 16.71875 L 1.675781 18.523438 C 2.550781 18.214844 3.441406 17.945312 4.347656 17.714844 Z M 4.367188 17.675781 "/>
<path style=" stroke:none;fill-rule:nonzero;fill:rgb(86.666667%,0%,29.019608%);fill-opacity:1;" d="M 3.414062 19.546875 C 2.828125 19.734375 2.246094 19.933594 1.675781 20.152344 L 1.675781 21.988281 C 1.832031 21.925781 1.988281 21.863281 2.148438 21.800781 Z M 3.414062 19.546875 "/>
<path style=" stroke:none;fill-rule:nonzero;fill:rgb(86.666667%,0%,29.019608%);fill-opacity:1;" d="M 11.746094 17.058594 C 12.027344 17.050781 12.3125 17.046875 12.597656 17.046875 C 15.457031 17.039062 18.308594 17.40625 21.070312 18.132812 L 21.070312 16.371094 C 18.320312 15.683594 15.496094 15.339844 12.660156 15.339844 Z M 11.746094 17.058594 "/>
<path style=" stroke:none;fill-rule:nonzero;fill:rgb(86.666667%,0%,29.019608%);fill-opacity:1;" d="M 16.476562 19.382812 C 15.246094 19.230469 14.003906 19.148438 12.761719 19.140625 C 12.648438 19.140625 12.539062 19.140625 12.425781 19.140625 C 11.816406 19.140625 11.207031 19.15625 10.601562 19.191406 L 9.664062 20.957031 L 9.628906 21.019531 L 3.773438 31.996094 C 4.144531 32.570312 4.5625 33.117188 5.023438 33.628906 L 11.824219 20.894531 C 12.023438 20.890625 12.230469 20.886719 12.429688 20.886719 C 12.964844 20.886719 13.496094 20.898438 14.023438 20.925781 C 14.042969 20.925781 14.058594 20.925781 14.078125 20.929688 L 14.027344 21.023438 L 6.425781 34.984375 C 6.910156 35.386719 7.417969 35.765625 7.945312 36.109375 L 16.0625 21.214844 L 16.121094 21.105469 C 17.796875 21.304688 19.453125 21.644531 21.070312 22.125 L 21.070312 20.300781 C 19.730469 19.929688 18.367188 19.648438 16.992188 19.453125 C 16.820312 19.429688 16.648438 19.40625 16.476562 19.382812 Z M 16.476562 19.382812 "/>
<path style=" stroke:none;fill-rule:nonzero;fill:rgb(0%,9.411765%,21.568627%);fill-opacity:1;" d="M 29.664062 6.375 C 29.511719 6.359375 29.324219 6.339844 29.125 6.3125 C 26.121094 5.902344 24.453125 4.664062 22.839844 3.464844 C 21.140625 2.203125 19.382812 0.898438 16.023438 0.898438 C 12.660156 0.898438 10.90625 2.203125 9.207031 3.464844 C 7.59375 4.664062 5.925781 5.902344 2.921875 6.3125 C 2.722656 6.339844 2.535156 6.359375 2.382812 6.375 C 1.722656 6.441406 0.898438 6.53125 0.898438 7.457031 L 0.898438 24.328125 C 0.898438 28.386719 2.1875 31.792969 4.730469 34.453125 C 7.269531 37.105469 11.039062 39.011719 15.933594 40.121094 L 16.023438 40.140625 L 16.113281 40.121094 C 21.007812 39.011719 24.777344 37.105469 27.3125 34.453125 C 29.855469 31.792969 31.144531 28.386719 31.144531 24.328125 L 31.144531 7.457031 C 31.144531 6.53125 30.324219 6.441406 29.664062 6.375 Z M 30.359375 7.457031 L 30.359375 24.328125 C 30.359375 28.183594 29.140625 31.410156 26.738281 33.921875 C 24.328125 36.445312 20.722656 38.269531 16.023438 39.34375 C 11.324219 38.269531 7.71875 36.445312 5.304688 33.921875 C 2.90625 31.410156 1.6875 28.183594 1.6875 24.328125 L 1.6875 7.457031 C 1.6875 7.28125 1.6875 7.226562 2.464844 7.144531 C 2.660156 7.125 2.832031 7.105469 3.027344 7.078125 C 6.238281 6.644531 7.988281 5.34375 9.683594 4.082031 C 11.351562 2.84375 12.925781 1.671875 16.023438 1.671875 C 19.121094 1.671875 20.695312 2.84375 22.363281 4.082031 C 24.058594 5.34375 25.808594 6.644531 29.015625 7.078125 C 29.210938 7.105469 29.386719 7.125 29.578125 7.144531 C 30.359375 7.226562 30.359375 7.28125 30.359375 7.457031 Z M 30.359375 7.457031 "/>
<path style=" stroke:none;fill-rule:nonzero;fill:rgb(100%,100%,100%);fill-opacity:1;" d="M 22.058594 12.523438 C 22.058594 10.414062 22.539062 9.605469 24.183594 9.605469 L 24.433594 9.605469 C 26.082031 9.605469 26.5625 10.414062 26.5625 12.523438 L 26.5625 13.140625 C 26.5625 15.089844 26.144531 15.910156 24.828125 16.046875 L 24.828125 14.164062 C 25.242188 14.046875 25.324219 13.804688 25.324219 12.855469 L 25.324219 12.808594 C 25.324219 11.648438 25.074219 11.492188 24.378906 11.492188 L 24.234375 11.492188 C 23.546875 11.492188 23.296875 11.648438 23.296875 12.808594 L 23.296875 12.855469 C 23.296875 13.804688 23.378906 14.046875 23.789062 14.164062 L 23.789062 16.046875 C 22.476562 15.910156 22.058594 15.089844 22.058594 13.140625 Z M 22.058594 12.523438 "/>
<path style=" stroke:none;fill-rule:nonzero;fill:rgb(100%,100%,100%);fill-opacity:1;" d="M 22.121094 16.570312 L 26.5 16.570312 L 26.5 18.417969 L 22.121094 18.417969 Z M 22.121094 16.570312 "/>
<path style=" stroke:none;fill-rule:nonzero;fill:rgb(100%,100%,100%);fill-opacity:1;" d="M 22.121094 20.695312 L 25.167969 20.695312 L 25.167969 18.84375 L 26.5 18.84375 L 26.5 24.394531 L 25.167969 24.394531 L 25.167969 22.542969 L 22.121094 22.542969 Z M 22.121094 20.695312 "/>
<path style=" stroke:none;fill-rule:nonzero;fill:rgb(100%,100%,100%);fill-opacity:1;" d="M 22.121094 27.050781 L 24.011719 27.050781 L 26.5 24.613281 L 26.5 26.871094 L 25.210938 28.066406 L 25.210938 28.128906 L 26.5 29.316406 L 26.5 31.335938 L 24.011719 28.898438 L 22.121094 28.898438 Z M 22.121094 27.050781 "/>
<path style=" stroke:none;fill-rule:nonzero;fill:rgb(100%,100%,100%);fill-opacity:1;" d="M 28.136719 13.578125 C 27.957031 13.578125 27.878906 13.71875 27.878906 14.253906 C 27.878906 14.695312 27.929688 14.828125 28.058594 14.828125 C 28.199219 14.828125 28.222656 14.734375 28.246094 14.203125 C 28.28125 13.488281 28.394531 13.203125 28.769531 13.203125 C 29.136719 13.203125 29.253906 13.570312 29.253906 14.1875 C 29.253906 14.804688 29.097656 15.179688 28.683594 15.179688 L 28.683594 14.757812 C 28.867188 14.757812 28.914062 14.578125 28.914062 14.140625 C 28.914062 13.726562 28.871094 13.625 28.75 13.625 C 28.621094 13.625 28.59375 13.726562 28.566406 14.203125 C 28.53125 14.851562 28.496094 15.25 28.074219 15.25 C 27.628906 15.25 27.535156 14.835938 27.535156 14.230469 C 27.535156 13.554688 27.652344 13.15625 28.136719 13.15625 Z M 28.136719 13.578125 "/>
<path style=" stroke:none;fill-rule:nonzero;fill:rgb(100%,100%,100%);fill-opacity:1;" d="M 28.871094 17.375 L 28.871094 16.578125 L 27.5625 16.578125 L 27.5625 16.15625 L 28.871094 16.15625 L 28.871094 15.359375 L 29.230469 15.359375 L 29.230469 17.375 Z M 28.871094 17.375 "/>
<path style=" stroke:none;fill-rule:nonzero;fill:rgb(100%,100%,100%);fill-opacity:1;" d="M 27.921875 20.378906 L 27.5625 20.378906 L 27.5625 18.691406 L 29.230469 18.691406 L 29.230469 19.113281 L 27.921875 19.113281 Z M 27.921875 20.378906 "/>
<path style=" stroke:none;fill-rule:nonzero;fill:rgb(100%,100%,100%);fill-opacity:1;" d="M 28.398438 20.550781 C 28.949219 20.550781 29.253906 20.859375 29.253906 21.582031 C 29.253906 22.300781 28.949219 22.613281 28.398438 22.613281 C 27.84375 22.613281 27.535156 22.300781 27.535156 21.582031 C 27.535156 20.859375 27.84375 20.550781 28.398438 20.550781 Z M 28.398438 22.191406 C 28.738281 22.191406 28.894531 22.023438 28.894531 21.582031 C 28.894531 21.140625 28.738281 20.972656 28.398438 20.972656 C 28.054688 20.972656 27.898438 21.144531 27.898438 21.582031 C 27.898438 22.019531 28.058594 22.191406 28.398438 22.191406 Z M 28.398438 22.191406 "/>
<path style=" stroke:none;fill-rule:nonzero;fill:rgb(100%,100%,100%);fill-opacity:1;" d="M 27.535156 23.867188 C 27.535156 23.144531 27.816406 22.835938 28.398438 22.835938 L 29.230469 22.835938 L 29.230469 23.257812 L 28.398438 23.257812 C 28.164062 23.257812 27.898438 23.320312 27.898438 23.867188 C 27.898438 24.414062 28.167969 24.476562 28.398438 24.476562 L 29.230469 24.476562 L 29.230469 24.898438 L 28.398438 24.898438 C 27.816406 24.898438 27.535156 24.589844 27.535156 23.867188 Z M 27.535156 23.867188 "/>
<path style=" stroke:none;fill-rule:nonzero;fill:rgb(100%,100%,100%);fill-opacity:1;" d="M 27.5625 25.554688 L 27.5625 25.132812 L 29.230469 25.132812 L 29.230469 25.554688 Z M 27.5625 25.554688 "/>
<path style=" stroke:none;fill-rule:nonzero;fill:rgb(100%,100%,100%);fill-opacity:1;" d="M 28.136719 26.191406 C 27.957031 26.191406 27.878906 26.332031 27.878906 26.867188 C 27.878906 27.308594 27.929688 27.445312 28.058594 27.445312 C 28.199219 27.445312 28.222656 27.347656 28.246094 26.816406 C 28.28125 26.101562 28.394531 25.816406 28.769531 25.816406 C 29.136719 25.816406 29.253906 26.1875 29.253906 26.800781 C 29.253906 27.417969 29.097656 27.796875 28.683594 27.796875 L 28.683594 27.371094 C 28.867188 27.371094 28.914062 27.191406 28.914062 26.753906 C 28.914062 26.339844 28.871094 26.238281 28.75 26.238281 C 28.621094 26.238281 28.59375 26.339844 28.566406 26.816406 C 28.53125 27.464844 28.496094 27.867188 28.074219 27.867188 C 27.628906 27.867188 27.535156 27.449219 27.535156 26.84375 C 27.535156 26.167969 27.652344 25.769531 28.136719 25.769531 Z M 28.136719 26.191406 "/>
<path style=" stroke:none;fill-rule:nonzero;fill:rgb(100%,100%,100%);fill-opacity:1;" d="M 13.921875 35 C 13.921875 35.195312 14.082031 35.285156 14.695312 35.285156 C 15.203125 35.285156 15.355469 35.230469 15.355469 35.085938 C 15.355469 34.929688 15.25 34.902344 14.640625 34.875 C 13.820312 34.839844 13.496094 34.710938 13.496094 34.296875 C 13.496094 33.890625 13.917969 33.761719 14.621094 33.761719 C 15.328125 33.761719 15.761719 33.933594 15.761719 34.390625 L 15.277344 34.390625 C 15.277344 34.1875 15.070312 34.136719 14.566406 34.136719 C 14.089844 34.136719 13.976562 34.183594 13.976562 34.320312 C 13.976562 34.460938 14.089844 34.488281 14.640625 34.519531 C 15.382812 34.5625 15.839844 34.601562 15.839844 35.066406 C 15.839844 35.5625 15.363281 35.664062 14.667969 35.664062 C 13.898438 35.664062 13.4375 35.535156 13.4375 35 Z M 13.921875 35 "/>
<path style=" stroke:none;fill-rule:nonzero;fill:rgb(100%,100%,100%);fill-opacity:1;" d="M 17.347656 33.761719 C 18.097656 33.761719 18.472656 34.039062 18.519531 34.574219 L 18.03125 34.574219 C 17.984375 34.273438 17.75 34.160156 17.347656 34.160156 C 16.855469 34.160156 16.648438 34.332031 16.648438 34.707031 C 16.648438 35.089844 16.859375 35.265625 17.347656 35.265625 C 17.746094 35.265625 17.984375 35.144531 18.03125 34.84375 L 18.519531 34.84375 C 18.472656 35.378906 18.097656 35.664062 17.347656 35.664062 C 16.519531 35.664062 16.164062 35.324219 16.164062 34.707031 C 16.164062 34.09375 16.519531 33.761719 17.347656 33.761719 Z M 17.347656 33.761719 "/>
</g>
</svg>
