<?xml version="1.0" encoding="UTF-8"?>
<svg xmlns="http://www.w3.org/2000/svg" xmlns:xlink="http://www.w3.org/1999/xlink" width="32px" height="32px" viewBox="0 0 32 41" version="1.1">
<g id="surface1">
<path style=" stroke:none;fill-rule:nonzero;fill:rgb(68.235294%,67.45098%,67.843137%);fill-opacity:1;" d="M 15.980469 0.308594 L 15.566406 0.996094 L 12.484375 6.097656 L 11.1875 3.953125 L 10.773438 3.265625 L 10.359375 3.953125 L 0.460938 20.339844 L 0.3125 20.585938 L 0.460938 20.828125 L 10.21875 36.980469 L 10.632812 37.667969 L 11.046875 36.980469 L 12.386719 34.761719 L 15.566406 40.023438 L 15.980469 40.707031 L 16.394531 40.023438 L 19.570312 34.761719 L 20.914062 36.984375 L 21.328125 37.667969 L 21.742188 36.984375 L 31.5 20.828125 L 31.648438 20.585938 L 31.5 20.339844 L 21.601562 3.953125 L 21.1875 3.269531 L 20.773438 3.953125 L 19.476562 6.097656 L 16.394531 0.996094 Z M 15.980469 1.238281 L 19.476562 7.027344 L 21.1875 4.199219 L 31.085938 20.585938 L 21.328125 36.738281 L 19.570312 33.832031 L 15.980469 39.777344 L 12.386719 33.832031 L 10.632812 36.738281 L 0.875 20.585938 L 10.773438 4.199219 L 12.484375 7.027344 Z M 15.980469 1.238281 "/>
<path style=" stroke:none;fill-rule:nonzero;fill:rgb(0%,14.117647%,36.862745%);fill-opacity:1;" d="M 12.386719 33.832031 L 15.980469 39.777344 L 19.570312 33.832031 L 21.328125 36.738281 L 31.085938 20.585938 L 21.1875 4.199219 L 19.476562 7.027344 L 15.980469 1.238281 L 12.484375 7.027344 L 10.773438 4.199219 L 0.875 20.585938 L 10.632812 36.738281 Z M 12.386719 33.832031 "/>
<path style=" stroke:none;fill-rule:nonzero;fill:rgb(61.568627%,76.078431%,91.764706%);fill-opacity:1;" d="M 22.476562 23.363281 L 15.980469 34.113281 L 9.484375 23.363281 L 7.289062 23.363281 L 15.980469 37.746094 L 24.667969 23.363281 Z M 10.632812 31.074219 L 5.972656 23.363281 L 3.78125 23.363281 L 10.632812 34.707031 L 12.160156 32.183594 L 11.0625 30.367188 Z M 25.988281 23.363281 L 21.328125 31.074219 L 20.902344 30.367188 L 19.804688 32.183594 L 21.328125 34.710938 L 28.183594 23.363281 Z M 25.988281 23.363281 "/>
<path style=" stroke:none;fill-rule:nonzero;fill:rgb(100%,100%,100%);fill-opacity:1;" d="M 21.1875 6.226562 L 19.703125 8.6875 L 20.769531 10.457031 L 21.1875 9.765625 L 26.042969 17.804688 L 28.179688 17.804688 Z M 3.78125 17.804688 L 5.917969 17.804688 L 10.773438 9.765625 L 11.191406 10.453125 L 12.261719 8.6875 L 10.773438 6.226562 Z M 3.78125 17.804688 "/>
<path style=" stroke:none;fill-rule:nonzero;fill:rgb(100%,100%,100%);fill-opacity:1;" d="M 10.90625 15.207031 L 15.980469 6.808594 L 21.054688 15.207031 L 23.191406 15.207031 L 15.980469 3.269531 L 8.769531 15.207031 Z M 10.90625 15.207031 "/>
<path style=" stroke:none;fill-rule:nonzero;fill:rgb(100%,100%,100%);fill-opacity:1;" d="M 2.738281 19.042969 L 3.484375 19.042969 L 3.980469 21.015625 L 3.988281 21.015625 L 4.636719 19.042969 L 5.273438 19.042969 L 5.917969 21.066406 L 5.929688 21.066406 L 6.449219 19.042969 L 7.144531 19.042969 L 6.234375 22.117188 L 5.625 22.117188 L 4.941406 19.988281 L 4.933594 19.988281 L 4.246094 22.117188 L 3.660156 22.117188 Z M 2.738281 19.042969 "/>
<path style=" stroke:none;fill-rule:nonzero;fill:rgb(100%,100%,100%);fill-opacity:1;" d="M 7.472656 19.042969 L 8.15625 19.042969 L 8.15625 20.191406 L 9.488281 20.191406 L 9.488281 19.042969 L 10.171875 19.042969 L 10.171875 22.117188 L 9.488281 22.117188 L 9.488281 20.789062 L 8.15625 20.789062 L 8.15625 22.117188 L 7.472656 22.117188 Z M 7.472656 19.042969 "/>
<path style=" stroke:none;fill-rule:nonzero;fill:rgb(100%,100%,100%);fill-opacity:1;" d="M 10.917969 19.042969 L 11.601562 19.042969 L 11.601562 22.117188 L 10.917969 22.117188 Z M 10.917969 19.042969 "/>
<path style=" stroke:none;fill-rule:nonzero;fill:rgb(100%,100%,100%);fill-opacity:1;" d="M 13 19.640625 L 12.113281 19.640625 L 12.113281 19.042969 L 14.570312 19.042969 L 14.570312 19.640625 L 13.683594 19.640625 L 13.683594 22.117188 L 13 22.117188 Z M 13 19.640625 "/>
<path style=" stroke:none;fill-rule:nonzero;fill:rgb(100%,100%,100%);fill-opacity:1;" d="M 15.105469 19.042969 L 17.214844 19.042969 L 17.214844 19.667969 L 15.789062 19.667969 L 15.789062 20.242188 L 16.84375 20.242188 L 16.84375 20.867188 L 15.789062 20.867188 L 15.789062 21.492188 L 17.296875 21.492188 L 17.296875 22.117188 L 15.105469 22.117188 Z M 15.105469 19.042969 "/>
<path style=" stroke:none;fill-rule:nonzero;fill:rgb(100%,100%,100%);fill-opacity:1;" d="M 19.785156 19.839844 C 19.648438 19.679688 19.449219 19.589844 19.195312 19.589844 C 18.679688 19.589844 18.296875 20.007812 18.296875 20.582031 C 18.296875 21.152344 18.679688 21.570312 19.171875 21.570312 C 19.449219 21.570312 19.675781 21.449219 19.816406 21.242188 L 20.386719 21.660156 C 20.125 22.027344 19.6875 22.195312 19.261719 22.195312 C 18.289062 22.195312 17.585938 21.566406 17.585938 20.582031 C 17.585938 19.59375 18.289062 18.964844 19.261719 18.964844 C 19.609375 18.964844 20.046875 19.082031 20.308594 19.417969 Z M 19.785156 19.839844 "/>
<path style=" stroke:none;fill-rule:nonzero;fill:rgb(100%,100%,100%);fill-opacity:1;" d="M 22.058594 19.9375 L 21.679688 20.890625 L 22.4375 20.890625 Z M 21.792969 19.042969 L 22.359375 19.042969 L 23.710938 22.117188 L 22.9375 22.117188 L 22.671875 21.464844 L 21.464844 21.464844 L 21.207031 22.117188 L 20.449219 22.117188 Z M 21.792969 19.042969 "/>
<path style=" stroke:none;fill-rule:nonzero;fill:rgb(100%,100%,100%);fill-opacity:1;" d="M 24.703125 20.347656 L 25.160156 20.347656 C 25.402344 20.347656 25.644531 20.261719 25.644531 19.976562 C 25.644531 19.660156 25.320312 19.617188 25.054688 19.617188 L 24.703125 19.617188 Z M 24.019531 19.042969 L 25.171875 19.042969 C 25.820312 19.042969 26.355469 19.246094 26.355469 19.976562 C 26.355469 20.699219 25.859375 20.917969 25.203125 20.917969 L 24.703125 20.917969 L 24.703125 22.117188 L 24.019531 22.117188 Z M 24.019531 19.042969 "/>
<path style=" stroke:none;fill-rule:nonzero;fill:rgb(100%,100%,100%);fill-opacity:1;" d="M 28.40625 19.792969 C 28.296875 19.65625 28.078125 19.589844 27.910156 19.589844 C 27.71875 19.589844 27.449219 19.675781 27.449219 19.90625 C 27.449219 20.46875 28.882812 20.105469 28.882812 21.183594 C 28.882812 21.871094 28.324219 22.195312 27.683594 22.195312 C 27.285156 22.195312 26.933594 22.078125 26.640625 21.808594 L 27.125 21.28125 C 27.265625 21.460938 27.496094 21.570312 27.722656 21.570312 C 27.945312 21.570312 28.195312 21.464844 28.195312 21.25 C 28.195312 20.683594 26.738281 20.988281 26.738281 19.964844 C 26.738281 19.308594 27.316406 18.964844 27.925781 18.964844 C 28.277344 18.964844 28.613281 19.054688 28.878906 19.285156 Z M 28.40625 19.792969 "/>
<path style=" stroke:none;fill-rule:nonzero;fill:rgb(100%,100%,100%);fill-opacity:1;" d="M 13.464844 23.347656 L 15.550781 23.347656 L 15.550781 23.972656 L 14.152344 23.972656 L 14.152344 24.597656 L 15.152344 24.597656 L 15.152344 25.222656 L 14.152344 25.222656 L 14.152344 26.421875 L 13.464844 26.421875 Z M 13.464844 23.347656 "/>
<path style=" stroke:none;fill-rule:nonzero;fill:rgb(100%,100%,100%);fill-opacity:1;" d="M 17.855469 24.144531 C 17.71875 23.984375 17.523438 23.894531 17.265625 23.894531 C 16.75 23.894531 16.367188 24.3125 16.367188 24.882812 C 16.367188 25.457031 16.75 25.875 17.246094 25.875 C 17.523438 25.875 17.746094 25.75 17.886719 25.542969 L 18.457031 25.964844 C 18.195312 26.328125 17.757812 26.5 17.332031 26.5 C 16.363281 26.5 15.65625 25.871094 15.65625 24.882812 C 15.65625 23.898438 16.363281 23.269531 17.332031 23.269531 C 17.679688 23.269531 18.117188 23.386719 18.382812 23.71875 Z M 17.855469 24.144531 "/>
<path style=" stroke:none;fill-rule:nonzero;fill:rgb(100%,100%,100%);fill-opacity:1;" d="M 8.015625 16.058594 L 8.464844 16.058594 L 8.902344 17.210938 L 8.90625 17.210938 L 9.355469 16.058594 L 9.773438 16.058594 L 9.039062 17.816406 L 8.726562 17.816406 Z M 8.015625 16.058594 "/>
<path style=" stroke:none;fill-rule:nonzero;fill:rgb(100%,100%,100%);fill-opacity:1;" d="M 10.421875 16.570312 L 10.203125 17.117188 L 10.636719 17.117188 Z M 10.269531 16.058594 L 10.59375 16.058594 L 11.363281 17.816406 L 10.925781 17.816406 L 10.769531 17.441406 L 10.082031 17.441406 L 9.933594 17.816406 L 9.503906 17.816406 Z M 10.269531 16.058594 "/>
<path style=" stroke:none;fill-rule:nonzero;fill:rgb(100%,100%,100%);fill-opacity:1;" d="M 11.578125 16.058594 L 12.109375 16.058594 L 12.867188 17.277344 L 12.871094 17.277344 L 12.871094 16.058594 L 13.261719 16.058594 L 13.261719 17.816406 L 12.75 17.816406 L 11.976562 16.566406 L 11.96875 16.566406 L 11.96875 17.816406 L 11.578125 17.816406 Z M 11.578125 16.058594 "/>
<path style=" stroke:none;fill-rule:nonzero;fill:rgb(100%,100%,100%);fill-opacity:1;" d="M 14.804688 16.515625 C 14.726562 16.421875 14.613281 16.371094 14.46875 16.371094 C 14.171875 16.371094 13.953125 16.609375 13.953125 16.9375 C 13.953125 17.265625 14.171875 17.503906 14.457031 17.503906 C 14.613281 17.503906 14.742188 17.433594 14.820312 17.3125 L 15.148438 17.554688 C 15 17.761719 14.75 17.859375 14.507812 17.859375 C 13.953125 17.859375 13.546875 17.5 13.546875 16.9375 C 13.546875 16.375 13.953125 16.015625 14.507812 16.015625 C 14.703125 16.015625 14.953125 16.082031 15.105469 16.273438 Z M 14.804688 16.515625 "/>
<path style=" stroke:none;fill-rule:nonzero;fill:rgb(100%,100%,100%);fill-opacity:1;" d="M 16.230469 17.503906 C 16.5625 17.503906 16.78125 17.265625 16.78125 16.9375 C 16.78125 16.609375 16.5625 16.371094 16.230469 16.371094 C 15.898438 16.371094 15.679688 16.609375 15.679688 16.9375 C 15.679688 17.265625 15.898438 17.503906 16.230469 17.503906 M 16.230469 16.011719 C 16.785156 16.011719 17.1875 16.375 17.1875 16.9375 C 17.1875 17.5 16.785156 17.859375 16.230469 17.859375 C 15.675781 17.859375 15.273438 17.5 15.273438 16.9375 C 15.273438 16.375 15.675781 16.011719 16.230469 16.011719 "/>
<path style=" stroke:none;fill-rule:nonzero;fill:rgb(100%,100%,100%);fill-opacity:1;" d="M 19.015625 17.136719 C 19.015625 17.550781 18.761719 17.859375 18.269531 17.859375 C 17.773438 17.859375 17.519531 17.550781 17.519531 17.136719 L 17.519531 16.058594 L 17.910156 16.058594 L 17.910156 17.121094 C 17.910156 17.339844 18.0625 17.503906 18.269531 17.503906 C 18.476562 17.503906 18.625 17.339844 18.625 17.121094 L 18.625 16.058594 L 19.015625 16.058594 Z M 19.015625 17.136719 "/>
<path style=" stroke:none;fill-rule:nonzero;fill:rgb(100%,100%,100%);fill-opacity:1;" d="M 19.234375 16.058594 L 19.679688 16.058594 L 20.117188 17.210938 L 20.125 17.210938 L 20.570312 16.058594 L 20.988281 16.058594 L 20.257812 17.816406 L 19.941406 17.816406 Z M 19.234375 16.058594 "/>
<path style=" stroke:none;fill-rule:nonzero;fill:rgb(100%,100%,100%);fill-opacity:1;" d="M 21.226562 16.058594 L 22.429688 16.058594 L 22.429688 16.414062 L 21.617188 16.414062 L 21.617188 16.742188 L 22.386719 16.742188 L 22.386719 17.101562 L 21.617188 17.101562 L 21.617188 17.457031 L 22.476562 17.457031 L 22.476562 17.816406 L 21.226562 17.816406 Z M 21.226562 16.058594 "/>
<path style=" stroke:none;fill-rule:nonzero;fill:rgb(100%,100%,100%);fill-opacity:1;" d="M 23.214844 16.785156 L 23.445312 16.785156 C 23.589844 16.785156 23.773438 16.78125 23.773438 16.589844 C 23.773438 16.414062 23.613281 16.386719 23.472656 16.386719 L 23.214844 16.386719 Z M 22.824219 16.058594 L 23.511719 16.058594 C 23.875 16.058594 24.179688 16.183594 24.179688 16.59375 C 24.179688 16.835938 24.046875 17.027344 23.796875 17.074219 L 24.246094 17.816406 L 23.78125 17.816406 L 23.410156 17.113281 L 23.214844 17.113281 L 23.214844 17.816406 L 22.824219 17.816406 Z M 22.824219 16.058594 "/>
<path style=" stroke:none;fill-rule:nonzero;fill:rgb(1.960784%,10.980392%,21.176471%);fill-opacity:1;" d="M 22.898438 36.046875 L 23.164062 36.046875 L 23.164062 36.738281 L 23.300781 36.738281 L 23.300781 36.046875 L 23.566406 36.046875 L 23.566406 35.925781 L 22.898438 35.925781 Z M 22.898438 36.046875 "/>
<path style=" stroke:none;fill-rule:nonzero;fill:rgb(1.960784%,10.980392%,21.176471%);fill-opacity:1;" d="M 24.066406 36.574219 L 23.859375 35.925781 L 23.660156 35.925781 L 23.660156 36.738281 L 23.785156 36.738281 L 23.785156 36.046875 L 24.003906 36.738281 L 24.128906 36.738281 L 24.339844 36.058594 L 24.339844 36.738281 L 24.464844 36.738281 L 24.464844 35.925781 L 24.269531 35.925781 Z M 24.066406 36.574219 "/>
</g>
</svg>
