<?xml version="1.0" encoding="UTF-8"?>
<svg xmlns="http://www.w3.org/2000/svg" xmlns:xlink="http://www.w3.org/1999/xlink" width="32px" height="32px" viewBox="0 0 32 32" version="1.1">
<g id="surface1">
<path style=" stroke:none;fill-rule:nonzero;fill:rgb(90.980392%,12.156863%,24.313725%);fill-opacity:1;" d="M 31.859375 2.277344 C 31.859375 2.277344 26.304688 0 16 0 C 5.699219 0 0.140625 2.277344 0.140625 2.277344 C -1.171875 18.675781 6.867188 27.820312 16 31.949219 C 25.132812 27.820312 33.171875 18.675781 31.859375 2.277344 Z M 31.859375 2.277344 "/>
<path style=" stroke:none;fill-rule:nonzero;fill:rgb(100%,100%,100%);fill-opacity:1;" d="M 16 0.375 C 25 0.375 30.398438 2.144531 31.503906 2.542969 C 31.582031 3.628906 31.625 4.695312 31.625 5.734375 C 31.625 11.796875 30.253906 17.09375 27.527344 21.519531 C 24.871094 25.832031 20.886719 29.292969 16 31.539062 C 11.113281 29.292969 7.128906 25.832031 4.472656 21.519531 C 1.746094 17.09375 0.375 11.796875 0.375 5.742188 C 0.375 4.699219 0.417969 3.632812 0.5 2.542969 C 1.601562 2.144531 7 0.375 16 0.375 Z M 16 0.375 "/>
<path style=" stroke:none;fill-rule:nonzero;fill:rgb(16.470588%,25.098039%,46.27451%);fill-opacity:1;" d="M 22.632812 18.933594 C 22.632812 18.933594 22.304688 18.984375 22.128906 19.457031 L 21.179688 19.441406 C 21.179688 19.441406 20.839844 18.972656 20.1875 18.964844 C 20.1875 18.964844 19.578125 19.300781 19.628906 19.777344 C 19.628906 19.777344 19.785156 19.515625 20.152344 19.511719 C 20.390625 19.601562 20.5 19.867188 20.5 19.867188 C 20.5 19.867188 20.367188 20.449219 19.652344 20.679688 C 19.652344 20.679688 18.785156 20.179688 18.121094 20.152344 C 17.460938 20.121094 16.53125 20.945312 15.664062 20.214844 C 14.792969 19.480469 14.875 18.351562 15.242188 17.585938 C 15.242188 17.585938 13.179688 19.023438 14.878906 20.984375 C 14.878906 20.984375 12.035156 22.871094 10.804688 27.171875 C 12.367188 28.324219 14.101562 29.359375 16 30.324219 C 17.589844 29.515625 19.066406 28.660156 20.421875 27.722656 C 18.707031 26.519531 17.671875 24.382812 19.105469 21.589844 L 19.488281 21.765625 L 21.296875 21.625 L 21.582031 21.171875 L 22.242188 21.132812 C 22.242188 21.132812 22.863281 20.484375 22.945312 20.011719 C 22.945312 20.011719 22.320312 19.601562 22.632812 18.933594 Z M 22.632812 18.933594 "/>
<path style=" stroke:none;fill-rule:nonzero;fill:rgb(16.470588%,25.098039%,46.27451%);fill-opacity:1;" d="M 30.964844 3.050781 C 30.964844 3.050781 25.359375 0.90625 16 0.90625 C 6.640625 0.90625 1.035156 3.050781 1.035156 3.050781 C 0.945312 6.410156 1.140625 9.371094 1.609375 12 C 5.765625 10.613281 6.753906 13.933594 10.128906 14.058594 L 13.890625 14.09375 C 14.515625 13.460938 15.417969 13.132812 15.417969 13.132812 L 18.632812 13.15625 C 19.304688 13.488281 19.980469 14.003906 19.980469 14.003906 C 19.980469 14.003906 21 14.015625 22.199219 13.917969 C 24.527344 13.730469 25.445312 11.28125 30.382812 12.050781 C 30.855469 9.410156 31.054688 6.433594 30.964844 3.050781 Z M 30.964844 3.050781 "/>
<path style=" stroke:none;fill-rule:nonzero;fill:rgb(100%,100%,100%);fill-opacity:1;" d="M 3.242188 9.992188 L 4.28125 9.789062 L 4.28125 6.972656 L 5.195312 6.796875 L 5.195312 5.800781 L 4.28125 5.976562 L 4.28125 4.699219 L 5.195312 4.507812 C 5.195312 4.160156 5.195312 3.828125 5.195312 3.484375 L 3.242188 3.929688 Z M 3.242188 9.992188 "/>
<path style=" stroke:none;fill-rule:nonzero;fill:rgb(100%,100%,100%);fill-opacity:1;" d="M 7.121094 3.125 C 6.019531 3.304688 5.945312 3.484375 5.9375 4.542969 L 5.9375 8.40625 C 5.945312 9.402344 6.019531 9.511719 7.121094 9.402344 C 8.238281 9.269531 8.398438 9.152344 8.40625 8.160156 L 8.40625 6.945312 L 7.367188 7.042969 L 7.367188 8.222656 C 7.367188 8.382812 7.265625 8.4375 7.175781 8.453125 C 7.089844 8.457031 6.976562 8.441406 6.976562 8.25 L 6.976562 4.425781 C 6.976562 4.273438 7.0625 4.199219 7.160156 4.1875 C 7.269531 4.171875 7.367188 4.234375 7.367188 4.386719 L 7.367188 5.140625 L 8.40625 5.03125 L 8.40625 4.25 C 8.398438 3.140625 8.242188 2.984375 7.121094 3.125 Z M 7.121094 3.125 "/>
<path style=" stroke:none;fill-rule:nonzero;fill:rgb(100%,100%,100%);fill-opacity:1;" d="M 12.726562 2.605469 L 11.304688 2.707031 L 11.304688 9.023438 L 12.761719 8.941406 C 13.667969 8.890625 13.8125 8.761719 13.828125 7.878906 L 13.828125 3.917969 C 13.808594 2.707031 13.632812 2.570312 12.726562 2.605469 M 12.789062 7.824219 C 12.785156 7.96875 12.769531 8.019531 12.628906 8.027344 L 12.34375 8.054688 L 12.34375 3.785156 L 12.628906 3.761719 C 12.726562 3.761719 12.78125 3.808594 12.789062 4.03125 Z M 12.789062 7.824219 "/>
<path style=" stroke:none;fill-rule:nonzero;fill:rgb(100%,100%,100%);fill-opacity:1;" d="M 15.160156 2.535156 L 14.535156 8.902344 L 15.496094 8.890625 L 15.578125 7.78125 L 16.144531 7.773438 L 16.234375 8.871094 L 17.195312 8.878906 L 16.566406 2.515625 L 15.160156 2.535156 M 15.628906 6.8125 L 15.863281 4.3125 L 16.09375 6.808594 Z M 15.628906 6.8125 "/>
<path style=" stroke:none;fill-rule:nonzero;fill:rgb(100%,100%,100%);fill-opacity:1;" d="M 19.007812 2.59375 L 17.964844 2.550781 L 17.964844 8.898438 L 19.726562 8.957031 L 19.726562 8.039062 L 19.007812 8.015625 Z M 19.007812 2.59375 "/>
<path style=" stroke:none;fill-rule:nonzero;fill:rgb(100%,100%,100%);fill-opacity:1;" d="M 21.53125 8.144531 L 21.53125 2.777344 L 20.492188 2.6875 L 20.492188 9.003906 L 22.230469 9.140625 L 22.226562 8.210938 Z M 21.53125 8.144531 "/>
<path style=" stroke:none;fill-rule:nonzero;fill:rgb(100%,100%,100%);fill-opacity:1;" d="M 23.542969 3.011719 L 22.917969 9.191406 L 23.878906 9.28125 L 23.957031 8.148438 L 24.519531 8.199219 L 24.597656 9.355469 L 25.558594 9.460938 L 24.929688 3.191406 L 23.542969 3.011719 M 24.011719 7.179688 L 24.242188 4.773438 L 24.46875 7.222656 Z M 24.011719 7.179688 "/>
<path style=" stroke:none;fill-rule:nonzero;fill:rgb(100%,100%,100%);fill-opacity:1;" d="M 28.757812 5.632812 L 28.757812 5.023438 C 28.746094 4.011719 28.574219 3.773438 27.464844 3.554688 C 26.351562 3.371094 26.289062 3.515625 26.277344 4.578125 L 26.277344 5.433594 C 26.289062 5.964844 26.386719 6.261719 26.726562 6.5625 L 27.480469 7.164062 C 27.625 7.289062 27.714844 7.433594 27.71875 7.625 L 27.71875 8.613281 C 27.71875 8.761719 27.597656 8.785156 27.507812 8.777344 C 27.421875 8.761719 27.316406 8.6875 27.316406 8.546875 L 27.320312 7.664062 L 26.277344 7.539062 L 26.277344 8.4375 C 26.289062 9.429688 26.40625 9.582031 27.507812 9.75 C 28.625 9.894531 28.746094 9.839844 28.757812 8.824219 L 28.757812 7.558594 C 28.746094 7.148438 28.621094 6.8125 28.300781 6.535156 L 27.511719 5.898438 C 27.378906 5.78125 27.324219 5.675781 27.320312 5.464844 L 27.320312 4.75 C 27.320312 4.601562 27.421875 4.5625 27.507812 4.574219 C 27.597656 4.59375 27.71875 4.714844 27.71875 4.871094 L 27.71875 5.480469 Z M 28.757812 5.632812 "/>
<path style=" stroke:none;fill-rule:nonzero;fill:rgb(100%,100%,100%);fill-opacity:1;" d="M 17.855469 25.152344 L 16.214844 25.152344 L 16.132812 23.746094 L 15.148438 25.152344 L 13.519531 25.152344 L 14.59375 26.085938 L 13.753906 27.542969 L 15.320312 26.640625 L 16.382812 27.53125 L 16.277344 26.074219 Z M 17.855469 25.152344 "/>
<path style=" stroke:none;fill-rule:nonzero;fill:rgb(90.980392%,12.156863%,24.313725%);fill-opacity:1;" d="M 23.191406 15.835938 L 21.5 16.214844 C 21.207031 16.414062 20.703125 16.847656 20.984375 17.203125 L 22.632812 18.933594 C 22.320312 19.601562 22.945312 20.011719 22.945312 20.011719 C 22.863281 20.484375 22.242188 21.132812 22.242188 21.132812 L 21.582031 21.171875 L 21.296875 21.625 L 19.488281 21.765625 L 19.105469 21.589844 C 17.671875 24.382812 18.707031 26.519531 20.421875 27.722656 C 25.640625 24.125 29.066406 19.386719 30.382812 12.050781 C 25.566406 12.320312 25.527344 15.28125 23.191406 15.835938 Z M 23.191406 15.835938 "/>
<path style=" stroke:none;fill-rule:nonzero;fill:rgb(90.980392%,12.156863%,24.313725%);fill-opacity:1;" d="M 9.476562 16.28125 C 5.5625 15.785156 5.386719 12.0625 1.609375 12 C 2.289062 15.839844 3.546875 18.964844 5.335938 21.59375 C 7.441406 19.039062 9.699219 17.351562 11.066406 16.457031 C 10.492188 16.398438 9.9375 16.339844 9.476562 16.28125 Z M 9.476562 16.28125 "/>
<path style=" stroke:none;fill-rule:nonzero;fill:rgb(90.980392%,12.156863%,24.313725%);fill-opacity:1;" d="M 19.621094 14.519531 C 19.273438 13.992188 18.425781 13.917969 18.570312 13.511719 C 18.179688 13.703125 18.234375 14.046875 18.476562 14.265625 C 18.777344 14.535156 18.25 14.757812 18.140625 14.441406 C 18.007812 14.59375 18.007812 14.847656 18.300781 15.09375 C 18.589844 15.347656 19.226562 15.351562 19.46875 16.050781 C 19.433594 15.566406 20.058594 15.195312 19.621094 14.519531 Z M 19.621094 14.519531 "/>
<path style=" stroke:none;fill-rule:nonzero;fill:rgb(16.470588%,25.098039%,46.27451%);fill-opacity:1;" d="M 22.882812 14.773438 C 21.988281 14.859375 20.773438 14.921875 20.773438 14.921875 C 20.984375 15.171875 21.066406 15.460938 21.066406 15.460938 C 21.066406 15.460938 20.097656 16.21875 20.984375 17.203125 C 20.703125 16.847656 21.207031 16.414062 21.5 16.214844 L 23.191406 15.835938 C 25.527344 15.28125 25.566406 12.320312 30.382812 12.050781 C 25.25 11.8125 25.058594 14.558594 22.882812 14.773438 Z M 22.882812 14.773438 "/>
<path style=" stroke:none;fill-rule:nonzero;fill:rgb(16.470588%,25.098039%,46.27451%);fill-opacity:1;" d="M 14.890625 14.476562 C 15.105469 15.105469 14.71875 15.308594 14.71875 15.308594 L 10.058594 15.0625 C 5.804688 14.671875 5.9375 11.34375 1.609375 12 C 5.386719 12.0625 5.5625 15.785156 9.476562 16.28125 C 9.9375 16.339844 10.492188 16.398438 11.066406 16.457031 C 11.417969 16.492188 11.773438 16.527344 12.117188 16.5625 C 11.246094 17.214844 10.9375 18.140625 10.9375 18.140625 C 13.65625 17.617188 14.65625 16.820312 14.964844 16.492188 C 15.882812 15.601562 15.121094 14.546875 14.890625 14.476562 Z M 14.890625 14.476562 "/>
<path style=" stroke:none;fill-rule:nonzero;fill:rgb(16.470588%,25.098039%,46.27451%);fill-opacity:1;" d="M 17.144531 15.695312 C 17.144531 15.695312 16.570312 16.011719 16.21875 16.6875 C 16.21875 16.6875 17.914062 16.546875 19.183594 17.230469 C 18.613281 16.160156 18.0625 15.9375 17.144531 15.695312 Z M 17.144531 15.695312 "/>
<path style=" stroke:none;fill-rule:nonzero;fill:rgb(16.470588%,25.098039%,46.27451%);fill-opacity:1;" d="M 25.292969 26.144531 L 25.589844 26.144531 L 25.589844 27.046875 L 25.699219 27.046875 L 25.699219 26.144531 L 26.019531 26.144531 L 26.019531 26.035156 L 25.292969 26.035156 Z M 25.292969 26.144531 "/>
<path style=" stroke:none;fill-rule:nonzero;fill:rgb(16.470588%,25.098039%,46.27451%);fill-opacity:1;" d="M 26.859375 26.035156 L 26.597656 26.859375 L 26.335938 26.035156 L 26.160156 26.035156 L 26.160156 27.046875 L 26.269531 27.046875 L 26.269531 26.1875 L 26.542969 27.046875 L 26.652344 27.046875 L 26.921875 26.1875 L 26.921875 27.046875 L 27.03125 27.046875 L 27.03125 26.035156 Z M 26.859375 26.035156 "/>
<path style=" stroke:none;fill-rule:nonzero;fill:rgb(80%,79.607843%,80%);fill-opacity:1;" d="M 15.050781 10.707031 L 14.175781 10.707031 C 13.703125 10.707031 13.460938 10.746094 13.460938 11.070312 L 13.460938 11.183594 C 13.460938 11.421875 13.566406 11.550781 14.160156 11.550781 L 14.730469 11.550781 C 14.972656 11.550781 15.089844 11.515625 15.1875 11.449219 L 15.1875 11.605469 C 15.1875 11.710938 15.101562 11.765625 14.886719 11.765625 L 13.445312 11.765625 L 13.445312 12.046875 L 14.890625 12.046875 C 15.546875 12.046875 15.769531 11.929688 15.769531 11.53125 L 15.769531 11.164062 C 15.769531 10.824219 15.53125 10.707031 15.050781 10.707031 M 14.875 11.277344 L 14.335938 11.277344 C 14.089844 11.277344 14.027344 11.246094 14.027344 11.132812 C 14.027344 11.023438 14.09375 10.988281 14.328125 10.988281 L 14.886719 10.988281 C 15.121094 10.988281 15.1875 11.023438 15.1875 11.132812 C 15.1875 11.246094 15.125 11.277344 14.875 11.277344 Z M 14.875 11.277344 "/>
<path style=" stroke:none;fill-rule:nonzero;fill:rgb(80%,79.607843%,80%);fill-opacity:1;" d="M 17.855469 11.203125 L 17.285156 11.203125 C 17.042969 11.203125 16.925781 11.238281 16.828125 11.300781 L 16.828125 11.144531 C 16.828125 11.042969 16.914062 10.988281 17.125 10.988281 L 18.5 10.988281 L 18.5 10.707031 L 17.121094 10.707031 C 16.464844 10.707031 16.246094 10.820312 16.246094 11.21875 L 16.246094 11.585938 C 16.246094 11.929688 16.484375 12.046875 16.960938 12.046875 L 17.835938 12.046875 C 18.3125 12.046875 18.554688 12.003906 18.554688 11.683594 L 18.554688 11.566406 C 18.554688 11.332031 18.449219 11.203125 17.855469 11.203125 M 17.6875 11.765625 L 17.128906 11.765625 C 16.894531 11.765625 16.828125 11.730469 16.828125 11.617188 C 16.828125 11.507812 16.890625 11.472656 17.136719 11.472656 L 17.675781 11.472656 C 17.925781 11.472656 17.988281 11.507812 17.988281 11.617188 C 17.988281 11.730469 17.921875 11.765625 17.6875 11.765625 Z M 17.6875 11.765625 "/>
</g>
</svg>
