<?xml version="1.0" encoding="UTF-8"?>
<svg xmlns="http://www.w3.org/2000/svg" xmlns:xlink="http://www.w3.org/1999/xlink" width="32px" height="32px" viewBox="0 0 32 43" version="1.1">
<g id="surface1">
<path style=" stroke:none;fill-rule:nonzero;fill:rgb(77.647059%,64.705882%,40%);fill-opacity:1;" d="M 15.984375 42.867188 L 14.53125 41.582031 C 13.074219 40.292969 11.367188 40.027344 9.390625 39.714844 C 9.097656 39.671875 8.792969 39.621094 8.472656 39.570312 C 4.765625 38.953125 3.515625 38.304688 2.113281 37.09375 C 0.800781 35.957031 0.160156 33.832031 0.15625 30.601562 L 0.160156 0.1875 L 31.804688 0.1875 L 31.816406 30.605469 C 31.800781 32.839844 31.566406 35.59375 29.84375 37.097656 C 28.597656 38.1875 27.542969 38.894531 23.496094 39.570312 C 23.234375 39.613281 22.972656 39.65625 22.71875 39.695312 L 22.585938 39.714844 C 20.605469 40.027344 18.898438 40.292969 17.4375 41.582031 Z M 15.984375 42.867188 "/>
<path style=" stroke:none;fill-rule:nonzero;fill:rgb(9.019608%,9.803922%,11.372549%);fill-opacity:1;" d="M 14.675781 41.421875 L 15.984375 42.578125 L 17.292969 41.421875 C 18.800781 40.09375 20.539062 39.820312 22.550781 39.503906 L 22.671875 39.484375 C 22.941406 39.445312 23.199219 39.402344 23.460938 39.359375 C 27.453125 38.695312 28.480469 38 29.703125 36.9375 C 31.378906 35.472656 31.585938 32.621094 31.597656 30.605469 L 31.589844 0.398438 L 0.378906 0.398438 L 0.375 30.601562 C 0.378906 33.769531 0.992188 35.839844 2.253906 36.933594 C 3.453125 37.96875 4.535156 38.699219 8.507812 39.359375 C 8.828125 39.414062 9.132812 39.460938 9.421875 39.503906 C 11.433594 39.820312 13.171875 40.09375 14.675781 41.421875 "/>
<path style=" stroke:none;fill-rule:nonzero;fill:rgb(77.647059%,64.705882%,40%);fill-opacity:1;" d="M 15.15625 40.894531 C 13.492188 39.425781 11.570312 39.121094 9.535156 38.804688 C 9.246094 38.757812 8.945312 38.710938 8.628906 38.660156 C 1.835938 37.527344 1.097656 35.355469 1.09375 30.601562 L 1.097656 1.109375 L 30.867188 1.109375 L 30.878906 30.605469 C 30.867188 32.40625 30.734375 35.089844 29.226562 36.402344 C 28.050781 37.429688 27.058594 38.039062 23.339844 38.660156 C 23.074219 38.703125 22.816406 38.746094 22.558594 38.785156 L 22.4375 38.804688 C 20.398438 39.121094 18.476562 39.421875 16.8125 40.894531 L 15.984375 41.625 L 15.15625 40.894531 "/>
<path style=" stroke:none;fill-rule:nonzero;fill:rgb(9.019608%,9.803922%,11.372549%);fill-opacity:1;" d="M 29.628906 2.335938 L 2.339844 2.335938 L 2.335938 30.601562 C 2.339844 34.488281 2.335938 36.367188 8.835938 37.449219 C 9.144531 37.503906 9.445312 37.550781 9.730469 37.59375 C 11.855469 37.925781 14.050781 38.273438 15.984375 39.980469 C 17.921875 38.269531 20.117188 37.925781 22.242188 37.59375 C 22.53125 37.546875 22.828125 37.503906 23.132812 37.449219 C 29.636719 36.367188 29.613281 34.488281 29.636719 30.605469 L 29.628906 2.335938 "/>
<path style=" stroke:none;fill-rule:nonzero;fill:rgb(77.647059%,64.705882%,40%);fill-opacity:1;" d="M 13.316406 5.914062 C 13.3125 5.914062 13.304688 5.917969 13.300781 5.929688 L 12.300781 7.988281 L 12.839844 7.988281 L 12.914062 7.816406 L 13.6875 7.816406 L 13.765625 7.988281 L 14.332031 7.988281 L 13.335938 5.929688 C 13.332031 5.917969 13.324219 5.914062 13.316406 5.914062 Z M 14.53125 5.921875 C 14.523438 5.921875 14.519531 5.929688 14.519531 5.9375 L 14.519531 7.988281 L 15.035156 7.988281 L 15.035156 6.980469 L 16.324219 8.023438 C 16.355469 8.050781 16.367188 8.042969 16.367188 8.019531 L 16.367188 5.964844 L 15.851562 5.964844 L 15.851562 6.980469 L 14.5625 5.933594 C 14.546875 5.921875 14.535156 5.917969 14.53125 5.921875 Z M 9.082031 5.941406 C 8.492188 5.941406 7.980469 6.367188 7.980469 6.976562 C 7.980469 7.585938 8.492188 8.015625 9.082031 8.015625 C 9.671875 8.015625 10.183594 7.585938 10.183594 6.976562 C 10.183594 6.367188 9.671875 5.941406 9.082031 5.941406 Z M 11.054688 5.941406 C 10.691406 5.941406 10.355469 6.148438 10.355469 6.546875 C 10.355469 6.878906 10.566406 7.058594 10.863281 7.15625 L 11.105469 7.234375 C 11.242188 7.28125 11.308594 7.320312 11.308594 7.40625 C 11.308594 7.519531 11.210938 7.570312 11.046875 7.570312 C 10.84375 7.570312 10.71875 7.472656 10.621094 7.347656 L 10.222656 7.644531 C 10.347656 7.808594 10.609375 8.019531 11.074219 8.019531 C 11.613281 8.019531 11.851562 7.75 11.851562 7.378906 C 11.851562 7.09375 11.710938 6.898438 11.300781 6.765625 L 11.03125 6.675781 C 10.929688 6.644531 10.886719 6.605469 10.886719 6.527344 C 10.886719 6.449219 10.953125 6.386719 11.085938 6.386719 C 11.246094 6.386719 11.335938 6.449219 11.421875 6.535156 L 11.734375 6.210938 C 11.613281 6.070312 11.417969 5.941406 11.054688 5.941406 Z M 17.714844 5.941406 C 17.121094 5.941406 16.621094 6.367188 16.621094 6.976562 C 16.621094 7.585938 17.121094 8.015625 17.726562 8.015625 C 18.179688 8.015625 18.429688 7.890625 18.617188 7.734375 L 18.617188 6.890625 L 17.722656 6.890625 L 17.722656 7.308594 L 18.128906 7.308594 L 18.128906 7.480469 C 18.042969 7.519531 17.929688 7.558594 17.730469 7.558594 C 17.371094 7.558594 17.183594 7.296875 17.183594 6.976562 C 17.183594 6.660156 17.367188 6.414062 17.703125 6.414062 C 17.90625 6.414062 18.050781 6.5 18.152344 6.628906 L 18.535156 6.300781 C 18.359375 6.078125 18.074219 5.941406 17.714844 5.941406 Z M 24.722656 5.941406 C 24.359375 5.941406 24.023438 6.148438 24.023438 6.546875 C 24.023438 6.878906 24.234375 7.058594 24.53125 7.15625 L 24.773438 7.234375 C 24.910156 7.28125 24.976562 7.320312 24.976562 7.40625 C 24.976562 7.519531 24.878906 7.570312 24.714844 7.570312 C 24.511719 7.570312 24.386719 7.472656 24.289062 7.347656 L 23.890625 7.644531 C 24.015625 7.808594 24.277344 8.019531 24.738281 8.019531 C 25.28125 8.019531 25.519531 7.75 25.519531 7.378906 C 25.519531 7.09375 25.378906 6.898438 24.96875 6.765625 L 24.699219 6.675781 C 24.597656 6.644531 24.554688 6.605469 24.554688 6.527344 C 24.554688 6.449219 24.621094 6.386719 24.753906 6.386719 C 24.914062 6.386719 25.003906 6.449219 25.089844 6.535156 L 25.402344 6.210938 C 25.28125 6.070312 25.082031 5.941406 24.722656 5.941406 Z M 6.453125 5.964844 L 6.453125 7.988281 L 7.875 7.988281 L 7.875 7.53125 L 7.003906 7.53125 L 7.003906 5.964844 Z M 18.890625 5.964844 L 18.890625 7.988281 L 20.371094 7.988281 L 20.371094 7.53125 L 19.441406 7.53125 L 19.441406 7.324219 L 20.183594 7.324219 L 20.183594 6.890625 L 19.441406 6.890625 L 19.441406 6.421875 L 20.328125 6.421875 L 20.328125 5.964844 Z M 20.636719 5.964844 L 20.636719 7.988281 L 22.058594 7.988281 L 22.058594 7.53125 L 21.1875 7.53125 L 21.1875 5.964844 Z M 22.308594 5.964844 L 22.308594 7.988281 L 23.792969 7.988281 L 23.792969 7.53125 L 22.859375 7.53125 L 22.859375 7.324219 L 23.601562 7.324219 L 23.601562 6.890625 L 22.859375 6.890625 L 22.859375 6.421875 L 23.75 6.421875 L 23.75 5.964844 Z M 9.082031 6.414062 C 9.425781 6.414062 9.621094 6.660156 9.621094 6.976562 C 9.621094 7.296875 9.425781 7.546875 9.082031 7.546875 C 8.738281 7.546875 8.542969 7.296875 8.542969 6.976562 C 8.542969 6.660156 8.738281 6.414062 9.082031 6.414062 Z M 13.292969 6.941406 L 13.503906 7.410156 L 13.089844 7.410156 Z M 11.65625 10.316406 L 11.65625 13.132812 C 14.1875 15.367188 18.402344 19.394531 20.984375 21.679688 L 20.984375 21.832031 L 12.503906 14.457031 L 12.503906 16.25 L 12.507812 16.25 C 15.085938 18.175781 18.371094 20.777344 20.984375 22.730469 L 20.984375 22.875 L 13.375 17.253906 L 13.375 18.9375 C 15.90625 20.441406 18.542969 22.183594 20.984375 23.625 L 20.984375 23.789062 L 14.238281 19.800781 L 14.238281 21.15625 C 17.214844 22.636719 19.703125 23.976562 22.648438 25.4375 L 22.648438 28.996094 L 25.539062 28.996094 L 25.539062 10.417969 C 22.316406 10.746094 19.878906 12.335938 18.226562 14.519531 C 17.960938 14.855469 17.714844 15.210938 17.488281 15.582031 L 19.574219 17.863281 C 20.265625 16.496094 21.292969 15.417969 22.648438 14.640625 L 22.648438 22.332031 Z M 6.433594 10.324219 L 6.433594 28.984375 L 15.605469 28.984375 C 15.210938 28.050781 14.921875 26.683594 14.800781 26.050781 L 9.324219 26.050781 L 9.324219 12.425781 Z M 15.613281 22.929688 C 15.613281 24.125 15.726562 25.203125 15.855469 26.046875 C 15.976562 26.679688 16.265625 28.046875 16.660156 28.984375 L 19.5625 28.984375 C 19.5625 28.984375 18.785156 26.855469 18.550781 24.316406 C 18.511719 24.296875 18.472656 24.277344 18.433594 24.261719 C 17.539062 23.84375 16.617188 23.414062 15.613281 22.929688 Z M 15.320312 31.660156 C 15.316406 31.660156 15.308594 31.664062 15.304688 31.671875 L 14.484375 33.371094 L 14.925781 33.371094 L 14.988281 33.226562 L 15.625 33.226562 L 15.6875 33.371094 L 16.15625 33.371094 L 15.335938 31.671875 C 15.332031 31.664062 15.328125 31.660156 15.320312 31.660156 Z M 8.625 31.683594 C 8.136719 31.683594 7.714844 32.035156 7.714844 32.535156 C 7.714844 33.039062 8.136719 33.390625 8.625 33.390625 C 9.109375 33.390625 9.53125 33.039062 9.53125 32.535156 C 9.53125 32.035156 9.109375 31.683594 8.625 31.683594 Z M 10.566406 31.683594 C 10.078125 31.683594 9.660156 32.035156 9.660156 32.535156 C 9.660156 33.039062 10.078125 33.390625 10.566406 33.390625 C 11.054688 33.390625 11.472656 33.039062 11.472656 32.535156 C 11.472656 32.035156 11.054688 31.683594 10.566406 31.683594 Z M 20.148438 31.683594 C 19.695312 31.683594 19.292969 32.035156 19.292969 32.535156 C 19.292969 33.039062 19.695312 33.390625 20.171875 33.390625 C 20.515625 33.390625 20.75 33.269531 20.914062 32.996094 L 20.566406 32.773438 C 20.496094 32.90625 20.386719 33.003906 20.167969 33.003906 C 19.910156 33.003906 19.753906 32.796875 19.753906 32.535156 C 19.753906 32.273438 19.90625 32.070312 20.152344 32.070312 C 20.367188 32.070312 20.472656 32.171875 20.539062 32.269531 L 20.878906 32.039062 C 20.734375 31.835938 20.511719 31.683594 20.148438 31.683594 Z M 6.449219 31.703125 L 6.449219 33.371094 L 6.902344 33.371094 L 6.902344 32.839844 L 7.515625 32.839844 L 7.515625 32.464844 L 6.902344 32.464844 L 6.902344 32.078125 L 7.597656 32.078125 L 7.597656 31.703125 Z M 11.507812 31.703125 L 11.507812 32.078125 L 11.957031 32.078125 L 11.957031 33.371094 L 12.40625 33.371094 L 12.40625 32.078125 L 12.855469 32.078125 L 12.855469 31.703125 Z M 13.058594 31.703125 L 13.058594 33.371094 L 13.777344 33.371094 C 14.199219 33.371094 14.449219 33.1875 14.449219 32.871094 C 14.449219 32.613281 14.292969 32.484375 14.109375 32.433594 C 14.21875 32.382812 14.304688 32.296875 14.304688 32.109375 C 14.304688 31.855469 14.085938 31.703125 13.75 31.703125 Z M 16.3125 31.703125 L 16.3125 33.371094 L 17.480469 33.371094 L 17.480469 32.996094 L 16.765625 32.996094 L 16.765625 31.703125 Z M 17.691406 31.703125 L 17.691406 33.371094 L 18.859375 33.371094 L 18.859375 32.996094 L 18.144531 32.996094 L 18.144531 31.703125 Z M 21.089844 31.703125 L 21.089844 33.371094 L 22.257812 33.371094 L 22.257812 32.996094 L 21.539062 32.996094 L 21.539062 31.703125 Z M 22.386719 31.703125 L 22.386719 32.722656 C 22.386719 33.171875 22.699219 33.394531 23.121094 33.394531 C 23.542969 33.394531 23.855469 33.171875 23.855469 32.722656 L 23.855469 31.703125 L 23.402344 31.703125 L 23.402344 32.71875 C 23.402344 32.90625 23.3125 33.015625 23.121094 33.015625 C 22.929688 33.015625 22.839844 32.90625 22.839844 32.71875 L 22.839844 31.703125 Z M 24.128906 31.703125 L 24.128906 33.371094 L 24.851562 33.371094 C 25.269531 33.371094 25.523438 33.1875 25.523438 32.871094 C 25.523438 32.613281 25.363281 32.484375 25.179688 32.433594 C 25.289062 32.382812 25.375 32.296875 25.375 32.109375 C 25.375 31.855469 25.15625 31.703125 24.820312 31.703125 Z M 13.496094 32.054688 L 13.71875 32.054688 C 13.820312 32.054688 13.859375 32.113281 13.859375 32.191406 C 13.859375 32.269531 13.8125 32.316406 13.714844 32.316406 L 13.496094 32.316406 Z M 24.566406 32.054688 L 24.792969 32.054688 C 24.890625 32.054688 24.929688 32.113281 24.929688 32.191406 C 24.929688 32.269531 24.886719 32.316406 24.785156 32.316406 L 24.566406 32.316406 Z M 8.625 32.070312 C 8.90625 32.070312 9.066406 32.273438 9.066406 32.535156 C 9.066406 32.796875 8.90625 33.003906 8.625 33.003906 C 8.339844 33.003906 8.179688 32.796875 8.179688 32.535156 C 8.179688 32.273438 8.339844 32.070312 8.625 32.070312 Z M 10.566406 32.070312 C 10.851562 32.070312 11.011719 32.273438 11.011719 32.535156 C 11.011719 32.796875 10.851562 33.003906 10.566406 33.003906 C 10.28125 33.003906 10.121094 32.796875 10.121094 32.535156 C 10.121094 32.273438 10.28125 32.070312 10.566406 32.070312 Z M 15.300781 32.507812 L 15.472656 32.894531 L 15.132812 32.894531 Z M 13.496094 32.640625 L 13.769531 32.640625 C 13.941406 32.640625 13.996094 32.710938 13.996094 32.828125 C 13.996094 32.941406 13.941406 33.015625 13.769531 33.015625 L 13.496094 33.015625 Z M 24.566406 32.640625 L 24.839844 32.640625 C 25.011719 32.640625 25.070312 32.710938 25.070312 32.828125 C 25.070312 32.941406 25.015625 33.015625 24.839844 33.015625 L 24.566406 33.015625 Z M 24.566406 32.640625 "/>
</g>
</svg>
