<?xml version="1.0" encoding="UTF-8"?>
<svg xmlns="http://www.w3.org/2000/svg" xmlns:xlink="http://www.w3.org/1999/xlink" width="32px" height="32px" viewBox="0 0 32 50" version="1.1">
<g id="surface1">
<path style=" stroke:none;fill-rule:nonzero;fill:rgb(89.411765%,89.803922%,90.196078%);fill-opacity:1;" d="M 21.15625 4.367188 L 20.574219 7.148438 C 20.402344 7.964844 20.191406 8.972656 19.953125 10.089844 L 19.8125 10.15625 C 20.082031 7.160156 20.074219 4.773438 19.542969 3.628906 C 19.101562 2.679688 18.410156 1.804688 17.539062 1.101562 C 16.316406 0.121094 15.53125 0 15.53125 0 L 15.546875 12.140625 L 1.867188 18.496094 C 0.00390625 19.367188 0 21.558594 0 21.558594 L 0 42.457031 L 15.980469 49.917969 L 31.960938 42.457031 L 31.960938 4.511719 L 23.882812 8.265625 C 23.574219 7.496094 23.183594 6.773438 22.726562 6.125 C 22.539062 5.851562 22.347656 5.597656 22.164062 5.363281 C 21.832031 4.949219 21.15625 4.367188 21.15625 4.367188 "/>
<path style=" stroke:none;fill-rule:nonzero;fill:rgb(89.411765%,89.803922%,90.196078%);fill-opacity:1;" d="M 6.542969 9.34375 L 7.277344 11.46875 L 8.011719 9.34375 L 10.21875 9.769531 L 8.746094 8.074219 L 10.21875 6.378906 L 8.011719 6.804688 L 7.277344 4.683594 L 6.542969 6.804688 L 4.335938 6.378906 L 5.808594 8.074219 L 4.335938 9.769531 Z M 6.542969 9.34375 "/>
<path style=" stroke:none;fill-rule:nonzero;fill:rgb(54.901961%,82.352941%,95.686275%);fill-opacity:1;" d="M 1.867188 28.652344 C 0.00390625 29.523438 0 31.714844 0 31.714844 L 0 41.863281 C 0 41.863281 0.00390625 39.671875 1.867188 38.800781 L 31.960938 24.816406 L 31.960938 14.667969 Z M 1.867188 28.652344 "/>
<path style=" stroke:none;fill-rule:nonzero;fill:rgb(13.72549%,12.156863%,12.54902%);fill-opacity:1;" d="M 28.6875 29.824219 C 29.621094 28.71875 29.8125 27.6875 29.8125 27.6875 C 29.8125 27.6875 21.863281 30.277344 19.246094 31.136719 C 19.902344 30.847656 20.375 30.683594 20.664062 30.558594 C 21.730469 30.101562 28.648438 27.777344 29.421875 26.328125 C 30.179688 24.914062 30.152344 23.75 30.152344 23.75 C 30.152344 23.75 22.394531 28.230469 19.613281 29.847656 C 20.261719 29.378906 20.746094 29.089844 21.03125 28.890625 C 22.082031 28.144531 29.066406 24.023438 29.570312 22.269531 C 30.066406 20.558594 29.765625 19.296875 29.765625 19.296875 C 29.765625 19.296875 22.398438 25.9375 19.734375 28.34375 C 20.285156 27.742188 20.710938 27.347656 20.957031 27.078125 C 21.929688 26.027344 28.566406 19.9375 28.710938 17.914062 C 28.851562 15.941406 28.234375 14.640625 28.234375 14.640625 C 28.234375 14.640625 21.578125 23.808594 19.328125 26.917969 C 19.800781 26.117188 20.175781 25.578125 20.390625 25.222656 C 21.203125 23.855469 27.003906 15.707031 26.695312 13.472656 C 26.390625 11.296875 25.421875 10.023438 25.421875 10.023438 C 25.421875 10.023438 20.378906 21.363281 18.617188 25.34375 C 18.957031 24.320312 19.253906 23.621094 19.40625 23.175781 C 19.972656 21.503906 24.394531 11.304688 23.539062 8.949219 C 23.175781 7.949219 22.789062 7.316406 22.308594 6.597656 C 21.828125 5.878906 21.402344 5.457031 21.402344 5.457031 C 21.167969 6.566406 19.417969 14.828125 18.269531 20.257812 L 17.601562 24.089844 C 17.359375 25.472656 17.585938 26.398438 17.695312 26.730469 L 17.78125 26.972656 C 19.054688 30.75 18.074219 32.578125 17.585938 33.195312 L 17.566406 33.21875 C 17.46875 33.339844 17.238281 33.625 16.863281 33.835938 C 16.566406 33.992188 16.257812 34.070312 15.949219 34.070312 C 15.761719 34.070312 15.578125 34.042969 15.398438 33.988281 C 13.714844 33.433594 14.324219 31.542969 14.332031 31.523438 C 14.191406 32.308594 14.390625 32.824219 14.582031 33.113281 C 14.871094 33.550781 15.351562 33.8125 15.867188 33.8125 C 16.71875 33.8125 17.1875 33.230469 17.34375 33.039062 L 17.363281 33.015625 C 17.824219 32.429688 18.761719 30.664062 17.460938 26.929688 C 17.425781 26.824219 17.042969 25.613281 17.277344 24.265625 L 18.179688 19.082031 C 18.832031 14.953125 20.183594 6.355469 19.113281 4.054688 C 18.617188 2.992188 17.914062 2.25 17.246094 1.703125 C 16.578125 1.152344 15.976562 0.886719 15.976562 0.886719 L 16.003906 21.367188 C 16.003906 22.460938 16.039062 23.363281 16.089844 24.101562 C 16.089844 24.101562 16.128906 24.621094 16.1875 25.160156 C 16.246094 25.699219 16.496094 26.808594 16.644531 27.3125 L 16.820312 27.902344 C 17.488281 30.234375 17.179688 31.707031 16.640625 32.386719 C 16.511719 32.542969 16.300781 32.824219 15.878906 32.824219 C 15.402344 32.824219 14.898438 32.261719 15.503906 30.851562 C 16.109375 29.441406 16.410156 27.953125 15.125 26.679688 C 15.003906 26.554688 14.875 26.433594 14.730469 26.324219 C 13.816406 25.640625 13.292969 25.339844 12.734375 25.035156 C 12.441406 24.875 10.839844 25.203125 10.839844 25.203125 L 7.007812 23.488281 L 7 23.558594 C 7 23.558594 12.503906 27.519531 13.503906 28.355469 C 14.425781 29.125 13.941406 30.34375 13.054688 31.039062 C 12.042969 31.832031 9.050781 33.515625 9.050781 33.515625 L 9.050781 33.691406 C 9.050781 35.691406 9.347656 36.511719 10.710938 38.179688 C 13.335938 41.398438 14.523438 42.691406 14.523438 46.046875 C 14.671875 46.148438 15.203125 46.378906 15.203125 46.378906 L 15.203125 40.707031 C 15.203125 38.132812 15.871094 36.40625 19 36.40625 L 16.8125 34.363281 C 17.132812 34.597656 17.335938 34.78125 17.476562 34.886719 C 18.023438 35.296875 21.253906 38.144531 22.222656 38.113281 C 23.171875 38.082031 23.753906 37.722656 23.753906 37.722656 C 23.753906 37.722656 18.707031 34.816406 17.296875 34.015625 C 17.765625 34.21875 18.074219 34.390625 18.269531 34.480469 C 18.960938 34.800781 23.132812 37.148438 24.183594 36.890625 C 25.203125 36.636719 25.757812 36.113281 25.757812 36.113281 C 25.757812 36.113281 19.535156 34.097656 17.859375 33.5625 C 18.433594 33.679688 18.820312 33.800781 19.058594 33.855469 C 19.886719 34.039062 24.964844 35.632812 26.042969 35.109375 C 27.09375 34.597656 27.578125 33.898438 27.578125 33.898438 C 27.578125 33.898438 20.480469 33.171875 18.382812 32.960938 C 18.890625 32.964844 19.378906 32.996094 19.613281 33 C 20.554688 33.011719 26.441406 33.570312 27.492188 32.75 C 28.515625 31.953125 28.878906 31.082031 28.878906 31.082031 C 28.878906 31.082031 21.179688 31.898438 18.828125 32.152344 C 19.460938 32.019531 19.910156 31.964844 20.183594 31.910156 C 21.210938 31.707031 27.734375 30.953125 28.6875 29.824219 "/>
<path style=" stroke:none;fill-rule:nonzero;fill:rgb(89.019608%,10.588235%,13.72549%);fill-opacity:1;" d="M 13.222656 26.523438 C 13.222656 26.523438 12.898438 26.609375 12.65625 26.460938 C 12.410156 26.316406 12.335938 25.992188 12.335938 25.992188 C 12.335938 25.992188 12.65625 25.90625 12.902344 26.050781 C 13.144531 26.199219 13.222656 26.523438 13.222656 26.523438 "/>
<path style=" stroke:none;fill-rule:nonzero;fill:rgb(13.72549%,12.156863%,12.54902%);fill-opacity:1;" d="M 27.535156 40.195312 C 27.535156 40.195312 27.710938 40.117188 27.710938 39.855469 L 27.710938 39.472656 L 25.757812 40.386719 L 25.757812 43.683594 L 26.351562 43.402344 L 26.351562 42.199219 L 27.03125 41.878906 C 27.078125 41.84375 27.1875 41.75 27.1875 41.546875 L 27.1875 41.207031 L 26.351562 41.601562 L 26.351562 40.75 Z M 27.535156 40.195312 "/>
<path style=" stroke:none;fill-rule:nonzero;fill:rgb(13.72549%,12.156863%,12.54902%);fill-opacity:1;" d="M 29.53125 39.238281 C 29.605469 39.203125 29.664062 39.230469 29.664062 39.304688 L 29.664062 39.5625 C 29.664062 39.636719 29.726562 39.699219 29.804688 39.699219 C 29.820312 39.699219 29.835938 39.695312 29.851562 39.6875 L 30.238281 39.507812 L 30.238281 39.089844 C 30.230469 38.808594 30 38.582031 29.71875 38.585938 C 29.652344 38.589844 29.589844 38.601562 29.535156 38.625 L 28.429688 39.136719 C 28.199219 39.253906 28.039062 39.492188 28.039062 39.769531 L 28.039062 41.894531 C 28.039062 42.148438 28.246094 42.355469 28.5 42.351562 C 28.570312 42.347656 28.632812 42.332031 28.691406 42.304688 L 29.847656 41.765625 C 30.078125 41.648438 30.238281 41.40625 30.238281 41.132812 L 30.238281 40.53125 L 29.789062 40.734375 C 29.773438 40.742188 29.671875 40.800781 29.667969 40.949219 L 29.667969 41.101562 C 29.667969 41.175781 29.609375 41.257812 29.535156 41.292969 L 28.765625 41.664062 C 28.691406 41.699219 28.632812 41.671875 28.632812 41.597656 L 28.632812 39.816406 C 28.632812 39.742188 28.691406 39.660156 28.765625 39.625 Z M 29.53125 39.238281 "/>
<path style=" stroke:none;fill-rule:nonzero;fill:rgb(13.72549%,12.156863%,12.54902%);fill-opacity:1;" d="M 21.847656 44.441406 L 20.71875 42.738281 L 20.117188 43.019531 L 20.117188 46.316406 C 20.117188 46.316406 20.367188 46.195312 20.542969 46.117188 C 20.578125 46.09375 20.714844 46.003906 20.714844 45.773438 L 20.714844 43.800781 L 21.871094 45.496094 L 22.449219 45.226562 L 22.449219 41.929688 L 22.035156 42.121094 C 21.992188 42.148438 21.851562 42.207031 21.851562 42.460938 Z M 21.847656 44.441406 "/>
<path style=" stroke:none;fill-rule:nonzero;fill:rgb(13.72549%,12.156863%,12.54902%);fill-opacity:1;" d="M 19.039062 46.535156 L 19.039062 44.882812 L 18.457031 46.488281 L 17.949219 46.722656 L 17.273438 45.625 L 17.273438 47.378906 C 17.273438 47.574219 17.175781 47.6875 17.074219 47.734375 L 16.699219 47.910156 L 16.699219 44.613281 L 17.238281 44.363281 L 18.113281 45.90625 L 18.941406 43.566406 L 19.613281 43.253906 L 19.613281 46.550781 L 19.292969 46.699219 C 19.179688 46.75 19.039062 46.660156 19.039062 46.535156 "/>
<path style=" stroke:none;fill-rule:nonzero;fill:rgb(13.72549%,12.156863%,12.54902%);fill-opacity:1;" d="M 22.953125 41.695312 L 22.953125 44.285156 C 22.953125 44.53125 23.15625 44.734375 23.402344 44.730469 C 23.46875 44.730469 23.535156 44.714844 23.59375 44.6875 L 24.835938 44.109375 L 24.832031 44.109375 C 25.078125 44 25.246094 43.753906 25.246094 43.472656 L 25.25 43.472656 L 25.253906 40.621094 C 25.253906 40.621094 24.964844 40.753906 24.835938 40.816406 C 24.679688 40.886719 24.65625 41.0625 24.65625 41.160156 L 24.65625 43.445312 C 24.65625 43.519531 24.597656 43.605469 24.519531 43.636719 L 23.679688 44.027344 C 23.605469 44.0625 23.546875 44.035156 23.546875 43.960938 L 23.546875 41.714844 C 23.546875 41.5625 23.398438 41.488281 23.285156 41.539062 Z M 22.953125 41.695312 "/>
</g>
</svg>
