<?xml version="1.0" encoding="UTF-8"?>
<svg xmlns="http://www.w3.org/2000/svg" xmlns:xlink="http://www.w3.org/1999/xlink" width="32px" height="32px" viewBox="0 0 32 33" version="1.1">
<g id="surface1">
<path style=" stroke:none;fill-rule:nonzero;fill:rgb(79.607843%,59.215686%,0%);fill-opacity:1;" d="M 27.570312 28.300781 L 27.316406 28.300781 L 27.316406 28.121094 L 28.039062 28.121094 L 28.039062 28.300781 L 27.785156 28.300781 L 27.785156 28.914062 L 27.570312 28.914062 Z M 27.570312 28.300781 "/>
<path style=" stroke:none;fill-rule:nonzero;fill:rgb(79.607843%,59.215686%,0%);fill-opacity:1;" d="M 28.460938 28.914062 L 28.3125 28.441406 L 28.3125 28.914062 L 28.125 28.914062 L 28.125 28.121094 L 28.390625 28.121094 L 28.554688 28.628906 L 28.714844 28.121094 L 28.980469 28.121094 L 28.980469 28.914062 L 28.777344 28.914062 L 28.777344 28.441406 L 28.628906 28.914062 Z M 28.460938 28.914062 "/>
<path style=" stroke:none;fill-rule:nonzero;fill:rgb(5.098039%,25.882353%,11.372549%);fill-opacity:1;" d="M 32 15.835938 C 32.003906 11.449219 30.164062 7.257812 26.921875 4.265625 C 26.769531 3.636719 26.542969 3.023438 26.253906 2.441406 L 25.859375 1.710938 L 25.0625 1.972656 C 24.78125 2.066406 24.492188 2.15625 24.203125 2.238281 C 19.140625 -0.75 12.828125 -0.746094 7.769531 2.253906 C 7.25 2.097656 6.960938 1.992188 6.949219 1.988281 L 6.089844 1.660156 L 5.699219 2.484375 C 5.421875 3.066406 5.199219 3.671875 5.042969 4.296875 C 0.679688 8.359375 -1.03125 14.488281 0.617188 20.1875 C 2.261719 25.886719 6.984375 30.199219 12.855469 31.363281 C 12.820312 31.722656 12.796875 31.972656 12.792969 32.09375 C 12.984375 32.242188 13.191406 32.375 13.40625 32.492188 C 14.203125 32.871094 15.085938 33.054688 15.96875 33.027344 C 15.976562 33.027344 16.046875 33.027344 16.054688 33.027344 C 17.191406 33.109375 18.320312 32.777344 19.230469 32.09375 C 19.226562 31.976562 19.199219 31.726562 19.152344 31.359375 C 26.625 29.875 32 23.378906 32 15.835938 "/>
<path style=" stroke:none;fill-rule:nonzero;fill:rgb(79.607843%,59.215686%,0%);fill-opacity:1;" d="M 21.882812 2.816406 L 21.886719 2.816406 C 22.132812 2.765625 22.378906 2.710938 22.621094 2.65625 C 22.648438 2.648438 22.675781 2.644531 22.699219 2.636719 C 22.75 2.625 22.796875 2.617188 22.847656 2.605469 L 22.84375 2.601562 C 23.566406 2.425781 24.28125 2.226562 24.988281 1.996094 C 24.332031 2.0625 23.226562 2.171875 22.164062 2.277344 C 18.238281 0.535156 13.75 0.535156 9.828125 2.28125 C 8.757812 2.175781 7.636719 2.0625 6.976562 1.996094 C 7.683594 2.242188 8.40625 2.445312 9.136719 2.613281 C 9.152344 2.617188 9.167969 2.617188 9.183594 2.621094 C 9.257812 2.640625 9.335938 2.65625 9.414062 2.675781 C 9.4375 2.679688 9.464844 2.6875 9.488281 2.691406 C 9.5625 2.707031 9.640625 2.722656 9.714844 2.742188 L 9.78125 2.753906 C 9.878906 2.777344 9.980469 2.796875 10.082031 2.816406 L 10.085938 2.816406 L 10.113281 2.824219 C 13.855469 1.167969 18.132812 1.167969 21.875 2.816406 L 21.882812 2.816406 M 13.527344 12.613281 L 3.351562 22.660156 C 2.867188 21.785156 2.480469 20.863281 2.191406 19.90625 L 12.113281 10.171875 C 11.746094 10.234375 11.398438 10.300781 11.074219 10.375 L 2.015625 19.261719 C 1.015625 15.25 1.824219 11.003906 4.226562 7.625 C 4.386719 7.402344 4.550781 7.183594 4.726562 6.96875 L 4.726562 6.953125 C 4.722656 6.640625 4.730469 6.3125 4.761719 5.980469 C 4.855469 4.78125 5.167969 3.609375 5.683594 2.519531 C 4.859375 3.800781 4.328125 5.242188 4.121094 6.742188 C 1.027344 10.703125 0.152344 15.933594 1.796875 20.667969 C 3.441406 25.398438 7.378906 28.996094 12.277344 30.238281 C 12.421875 30.761719 12.601562 31.277344 12.816406 31.777344 C 12.851562 31.378906 12.929688 30.683594 13.039062 29.789062 C 12.898438 29.757812 12.757812 29.726562 12.617188 29.695312 C 12.585938 29.6875 12.550781 29.679688 12.519531 29.671875 C 12.382812 29.636719 12.25 29.601562 12.113281 29.566406 C 9.839844 28.933594 7.757812 27.757812 6.054688 26.144531 L 13.558594 18.652344 C 13.5625 18.367188 13.566406 18.085938 13.570312 17.816406 L 5.636719 25.734375 C 4.984375 25.066406 4.402344 24.339844 3.894531 23.558594 L 13.585938 13.988281 C 13.574219 13.496094 13.554688 13.03125 13.527344 12.613281 M 27.871094 6.734375 C 27.652344 5.179688 27.089844 3.699219 26.222656 2.386719 L 26.253906 2.441406 C 26.789062 3.546875 27.117188 4.742188 27.21875 5.964844 C 27.230469 6.113281 27.242188 6.265625 27.25 6.421875 C 27.25 6.433594 27.25 6.441406 27.25 6.449219 C 27.257812 6.613281 27.265625 6.777344 27.265625 6.949219 L 27.265625 6.957031 C 27.4375 7.171875 27.605469 7.390625 27.765625 7.617188 C 30.179688 11.003906 30.988281 15.261719 29.980469 19.285156 L 20.792969 10.339844 C 20.46875 10.269531 20.125 10.207031 19.757812 10.148438 L 29.800781 19.929688 C 29.519531 20.859375 29.140625 21.757812 28.675781 22.613281 L 18.554688 12.597656 C 18.523438 13.015625 18.503906 13.476562 18.492188 13.972656 L 28.136719 23.515625 C 27.644531 24.273438 27.082031 24.984375 26.457031 25.636719 L 18.507812 17.773438 C 18.511719 18.042969 18.515625 18.320312 18.519531 18.605469 L 26.042969 26.050781 C 24.320312 27.714844 22.199219 28.921875 19.882812 29.566406 C 19.746094 29.601562 19.613281 29.636719 19.476562 29.671875 C 19.445312 29.679688 19.410156 29.6875 19.378906 29.695312 C 19.238281 29.726562 19.101562 29.757812 18.960938 29.789062 L 18.964844 29.816406 C 18.980469 30 18.996094 30.183594 19.011719 30.355469 L 19.019531 30.398438 C 19.101562 30.96875 19.160156 31.425781 19.195312 31.726562 C 19.398438 31.242188 19.570312 30.746094 19.714844 30.238281 C 24.617188 29 28.5625 25.402344 30.207031 20.664062 C 31.847656 15.929688 30.972656 10.691406 27.871094 6.734375 "/>
<path style=" stroke:none;fill-rule:nonzero;fill:rgb(100%,100%,100%);fill-opacity:1;" d="M 18.105469 31.4375 C 17.574219 27.0625 17.46875 17.417969 17.46875 14.6875 C 17.472656 13.078125 17.597656 11.46875 17.839844 9.878906 C 17.261719 9.832031 16.648438 9.804688 16 9.804688 C 15.367188 9.804688 14.761719 9.832031 14.1875 9.875 C 14.429688 11.46875 14.554688 13.078125 14.558594 14.6875 C 14.558594 17.417969 14.453125 27.0625 13.921875 31.4375 L 13.921875 31.441406 C 13.921875 31.441406 14.429688 31.960938 16.007812 31.960938 L 16.019531 31.960938 C 17.597656 31.960938 18.105469 31.441406 18.105469 31.441406 Z M 25.367188 2.878906 C 19.257812 4.859375 12.667969 4.859375 6.554688 2.878906 C 5.40625 5.464844 5.402344 8.40625 6.550781 10.992188 C 6.550781 10.992188 9.6875 8.863281 15.988281 8.863281 C 22.292969 8.863281 25.367188 10.992188 25.367188 10.992188 C 26.5625 8.417969 26.5625 5.453125 25.367188 2.878906 "/>
</g>
</svg>
