<?xml version="1.0" encoding="UTF-8"?>
<svg xmlns="http://www.w3.org/2000/svg" xmlns:xlink="http://www.w3.org/1999/xlink" width="32px" height="32px" viewBox="0 0 32 43" version="1.1">
<defs>
<linearGradient id="linear0" gradientUnits="userSpaceOnUse" x1="295.76901" y1="872.81097" x2="295.76901" y2="352.56699" gradientTransform="matrix(0.0540106,0,0,0.0536437,0.0100152,0)">
<stop offset="0.139" style="stop-color:rgb(9.803922%,42.352941%,30.196078%);stop-opacity:1;"/>
<stop offset="0.287" style="stop-color:rgb(10.588235%,45.098039%,32.156863%);stop-opacity:1;"/>
<stop offset="0.499" style="stop-color:rgb(12.156863%,52.156863%,37.254902%);stop-opacity:1;"/>
<stop offset="0.648" style="stop-color:rgb(13.72549%,59.215686%,41.960784%);stop-opacity:1;"/>
</linearGradient>
<linearGradient id="linear1" gradientUnits="userSpaceOnUse" x1="295.77499" y1="21.224001" x2="295.77499" y2="504.91901" gradientTransform="matrix(0.0540106,0,0,0.0536437,0.0100152,0)">
<stop offset="0.139" style="stop-color:rgb(9.803922%,42.352941%,30.196078%);stop-opacity:1;"/>
<stop offset="0.31" style="stop-color:rgb(10.196078%,43.529412%,30.980392%);stop-opacity:1;"/>
<stop offset="0.451" style="stop-color:rgb(10.980392%,47.45098%,33.72549%);stop-opacity:1;"/>
<stop offset="0.579" style="stop-color:rgb(12.54902%,54.117647%,38.431373%);stop-opacity:1;"/>
<stop offset="0.648" style="stop-color:rgb(13.72549%,59.215686%,41.960784%);stop-opacity:1;"/>
</linearGradient>
<linearGradient id="linear2" gradientUnits="userSpaceOnUse" x1="295.772" y1="850.052" x2="295.772" y2="400.41299" gradientTransform="matrix(0.0540106,0,0,0.0536437,0.0100152,0)">
<stop offset="0.139" style="stop-color:rgb(9.803922%,42.352941%,30.196078%);stop-opacity:1;"/>
<stop offset="0.287" style="stop-color:rgb(10.588235%,45.098039%,32.156863%);stop-opacity:1;"/>
<stop offset="0.499" style="stop-color:rgb(12.156863%,52.156863%,37.254902%);stop-opacity:1;"/>
<stop offset="0.648" style="stop-color:rgb(13.72549%,59.215686%,41.960784%);stop-opacity:1;"/>
</linearGradient>
<linearGradient id="linear3" gradientUnits="userSpaceOnUse" x1="295.772" y1="704.64301" x2="295.772" y2="435.974" gradientTransform="matrix(0.0540106,0,0,0.0536437,0.0100152,0)">
<stop offset="0.139" style="stop-color:rgb(9.803922%,42.352941%,30.196078%);stop-opacity:1;"/>
<stop offset="0.287" style="stop-color:rgb(10.588235%,45.098039%,32.156863%);stop-opacity:1;"/>
<stop offset="0.499" style="stop-color:rgb(12.156863%,52.156863%,37.254902%);stop-opacity:1;"/>
<stop offset="0.648" style="stop-color:rgb(13.72549%,59.215686%,41.960784%);stop-opacity:1;"/>
</linearGradient>
<linearGradient id="linear4" gradientUnits="userSpaceOnUse" x1="273.44901" y1="685.28003" x2="273.44901" y2="626.95203" gradientTransform="matrix(0.0540106,0,0,0.0536437,0.0100152,0)">
<stop offset="0" style="stop-color:rgb(9.803922%,42.352941%,30.196078%);stop-opacity:1;"/>
<stop offset="1" style="stop-color:rgb(13.72549%,59.215686%,41.960784%);stop-opacity:1;"/>
</linearGradient>
<linearGradient id="linear5" gradientUnits="userSpaceOnUse" x1="295.77499" y1="685.28003" x2="295.77499" y2="626.95203" gradientTransform="matrix(0.0540106,0,0,0.0536437,0.0100152,0)">
<stop offset="0" style="stop-color:rgb(9.803922%,42.352941%,30.196078%);stop-opacity:1;"/>
<stop offset="1" style="stop-color:rgb(13.72549%,59.215686%,41.960784%);stop-opacity:1;"/>
</linearGradient>
<linearGradient id="linear6" gradientUnits="userSpaceOnUse" x1="295.772" y1="645.65198" x2="295.772" y2="488.116" gradientTransform="matrix(0.0540106,0,0,0.0536437,0.0100152,0)">
<stop offset="0" style="stop-color:rgb(9.803922%,42.352941%,30.196078%);stop-opacity:1;"/>
<stop offset="1" style="stop-color:rgb(13.72549%,59.215686%,41.960784%);stop-opacity:1;"/>
</linearGradient>
<linearGradient id="linear7" gradientUnits="userSpaceOnUse" x1="295.772" y1="624.948" x2="295.772" y2="596.81299" gradientTransform="matrix(0.0540106,0,0,0.0536437,0.0100152,0)">
<stop offset="0" style="stop-color:rgb(9.803922%,42.352941%,30.196078%);stop-opacity:1;"/>
<stop offset="1" style="stop-color:rgb(13.72549%,59.215686%,41.960784%);stop-opacity:1;"/>
</linearGradient>
<linearGradient id="linear8" gradientUnits="userSpaceOnUse" x1="318.09799" y1="685.28003" x2="318.09799" y2="626.95203" gradientTransform="matrix(0.0540106,0,0,0.0536437,0.0100152,0)">
<stop offset="0" style="stop-color:rgb(9.803922%,42.352941%,30.196078%);stop-opacity:1;"/>
<stop offset="1" style="stop-color:rgb(13.72549%,59.215686%,41.960784%);stop-opacity:1;"/>
</linearGradient>
</defs>
<g id="surface1">
<path style=" stroke:none;fill-rule:nonzero;fill:rgb(15.686275%,22.745098%,41.568627%);fill-opacity:1;" d="M 26.695312 30.59375 C 26.695312 36.46875 21.902344 41.234375 15.980469 41.234375 C 10.0625 41.234375 5.265625 36.472656 5.265625 30.59375 C 5.265625 24.714844 10.0625 19.949219 15.980469 19.949219 C 21.902344 19.949219 26.695312 24.71875 26.695312 30.59375 Z M 26.695312 30.59375 "/>
<path style=" stroke:none;fill-rule:nonzero;fill:rgb(15.686275%,22.745098%,41.568627%);fill-opacity:1;" d="M 31.535156 4.484375 C 31.082031 4.527344 30.632812 4.550781 30.203125 4.550781 C 28.0625 4.550781 26.210938 4.039062 24.769531 3.277344 C 23.320312 2.519531 22.292969 1.503906 21.796875 0.515625 L 21.539062 0 L 21.160156 0.441406 C 21.101562 0.503906 19.53125 2.238281 15.988281 2.238281 C 14.15625 2.238281 12.859375 1.769531 12.011719 1.320312 C 11.589844 1.09375 11.28125 0.863281 11.085938 0.699219 C 10.992188 0.613281 10.914062 0.546875 10.871094 0.5 C 10.851562 0.476562 10.832031 0.460938 10.824219 0.449219 C 10.816406 0.445312 10.8125 0.441406 10.8125 0.441406 L 10.433594 0 L 10.175781 0.515625 C 9.679688 1.503906 8.644531 2.519531 7.203125 3.277344 C 5.761719 4.039062 3.902344 4.550781 1.769531 4.550781 C 1.339844 4.550781 0.890625 4.527344 0.4375 4.484375 L 0.0117188 4.441406 L 0.0117188 4.867188 C 0.0117188 9.660156 0.523438 14.488281 1.257812 17.863281 C 1.515625 19.058594 1.804688 20.128906 2.132812 21.109375 C 2.09375 21.757812 2.074219 22.394531 2.074219 23.027344 C 2.074219 28.746094 3.6875 33.714844 6.226562 37.277344 C 8.765625 40.832031 12.253906 42.996094 15.988281 42.996094 C 19.71875 42.996094 23.207031 40.832031 25.746094 37.277344 C 28.289062 33.714844 29.898438 28.746094 29.898438 23.027344 C 29.898438 22.394531 29.878906 21.757812 29.839844 21.109375 C 30.167969 20.128906 30.457031 19.058594 30.714844 17.863281 C 31.449219 14.488281 31.960938 9.660156 31.960938 4.871094 L 31.960938 4.445312 Z M 31.535156 4.484375 "/>
<path style=" stroke:none;fill-rule:nonzero;fill:url(#linear0);" d="M 29.121094 23.027344 C 29.121094 28.601562 27.542969 33.425781 25.109375 36.832031 C 22.667969 40.242188 19.394531 42.226562 15.980469 42.226562 C 12.566406 42.226562 9.292969 40.242188 6.851562 36.832031 C 4.417969 33.421875 2.839844 28.601562 2.839844 23.027344 C 2.839844 23.011719 2.839844 22.996094 2.839844 22.980469 C 3.582031 24.691406 4.492188 26.1875 5.648438 27.765625 C 5.398438 28.667969 5.265625 29.609375 5.265625 30.59375 C 5.265625 36.46875 10.0625 41.234375 15.980469 41.234375 C 21.902344 41.234375 26.695312 36.472656 26.695312 30.59375 C 26.695312 29.617188 26.5625 28.667969 26.3125 27.765625 C 27.46875 26.1875 28.375 24.691406 29.121094 22.980469 Z M 29.121094 23.027344 "/>
<path style=" stroke:none;fill-rule:nonzero;fill:url(#linear1);" d="M 29.953125 17.695312 C 29.078125 21.714844 27.921875 24.15625 26.015625 26.855469 C 24.492188 22.820312 20.578125 19.949219 15.980469 19.949219 C 11.390625 19.949219 7.46875 22.820312 5.945312 26.855469 C 4.039062 24.15625 2.882812 21.710938 2.007812 17.695312 C 1.316406 14.496094 0.816406 9.886719 0.78125 5.285156 C 1.117188 5.304688 1.441406 5.316406 1.765625 5.316406 C 4.027344 5.316406 6.003906 4.78125 7.5625 3.953125 C 8.921875 3.234375 9.964844 2.300781 10.601562 1.296875 C 11.324219 1.898438 13.0625 3.003906 15.988281 3.003906 C 18.910156 3.003906 20.640625 1.894531 21.359375 1.304688 C 21.996094 2.308594 23.046875 3.238281 24.402344 3.957031 C 25.960938 4.78125 27.9375 5.320312 30.195312 5.320312 C 30.519531 5.320312 30.84375 5.3125 31.179688 5.289062 C 31.15625 9.886719 30.65625 14.496094 29.953125 17.695312 Z M 29.953125 17.695312 "/>
<path style=" stroke:none;fill-rule:nonzero;fill:url(#linear2);" d="M 26.335938 30.59375 C 26.335938 36.269531 21.703125 40.871094 15.988281 40.871094 C 10.269531 40.871094 5.636719 36.269531 5.636719 30.59375 C 5.636719 24.917969 10.269531 20.316406 15.988281 20.316406 C 21.703125 20.316406 26.335938 24.917969 26.335938 30.59375 Z M 26.335938 30.59375 "/>
<path style=" stroke:none;fill-rule:nonzero;fill:rgb(15.686275%,22.745098%,41.568627%);fill-opacity:1;" d="M 25.902344 28.996094 C 26.792969 34.433594 23.070312 39.558594 17.59375 40.441406 C 12.117188 41.324219 6.957031 37.628906 6.070312 32.191406 C 5.183594 26.75 8.902344 21.625 14.378906 20.742188 C 19.855469 19.863281 25.015625 23.554688 25.902344 28.996094 Z M 25.902344 28.996094 "/>
<path style=" stroke:none;fill-rule:nonzero;fill:url(#linear3);" d="M 15.988281 23.386719 C 11.980469 23.386719 8.734375 26.613281 8.734375 30.59375 C 8.734375 34.574219 11.980469 37.796875 15.988281 37.796875 C 19.992188 37.796875 23.238281 34.574219 23.238281 30.59375 C 23.238281 26.613281 19.992188 23.386719 15.988281 23.386719 Z M 15.988281 23.386719 "/>
<path style=" stroke:none;fill-rule:nonzero;fill:rgb(100%,100%,100%);fill-opacity:1;" d="M 14.480469 32.304688 C 14.316406 32.019531 13.804688 31.050781 13.800781 29.980469 C 13.800781 29.921875 13.800781 29.863281 13.804688 29.800781 L 11.929688 29.144531 L 10.28125 30.648438 C 10.289062 31.546875 10.507812 32.402344 10.898438 33.15625 L 13.03125 33.789062 Z M 14.480469 32.304688 "/>
<path style=" stroke:none;fill-rule:nonzero;fill:rgb(100%,100%,100%);fill-opacity:1;" d="M 20.039062 29.144531 L 18.164062 29.800781 C 18.167969 29.859375 18.167969 29.921875 18.167969 29.980469 C 18.167969 31.050781 17.648438 32.019531 17.488281 32.304688 L 18.929688 33.785156 L 21.0625 33.152344 C 21.453125 32.394531 21.671875 31.542969 21.679688 30.640625 Z M 20.039062 29.144531 "/>
<path style=" stroke:none;fill-rule:nonzero;fill:rgb(100%,100%,100%);fill-opacity:1;" d="M 13.582031 25.195312 L 13.640625 25.433594 C 13.011719 25.714844 12.441406 26.109375 11.957031 26.585938 C 11.953125 26.589844 11.953125 26.589844 11.945312 26.597656 L 12.050781 28.867188 L 13.9375 29.527344 L 14.410156 29.117188 L 15.132812 32.117188 L 14.894531 32.433594 L 14.683594 32.433594 L 13.226562 33.933594 L 14.03125 35.414062 L 14.03125 35.902344 C 14.640625 36.125 15.300781 36.246094 15.992188 36.246094 C 16.675781 36.246094 17.34375 36.125 17.945312 35.902344 L 17.945312 35.414062 L 18.75 33.933594 L 17.292969 32.433594 L 17.078125 32.433594 L 16.839844 32.117188 L 16.84375 32.09375 L 17.5625 29.117188 L 18.035156 29.527344 L 19.921875 28.867188 L 20.027344 26.597656 C 20.019531 26.589844 20.019531 26.589844 20.015625 26.585938 C 19.53125 26.101562 18.960938 25.710938 18.332031 25.433594 L 18.390625 25.195312 C 19.066406 25.492188 19.675781 25.910156 20.1875 26.417969 L 21.480469 26.359375 C 20.238281 24.773438 18.308594 23.730469 16.136719 23.6875 L 16.136719 24.320312 L 15.835938 24.320312 L 15.835938 23.6875 C 13.664062 23.738281 11.742188 24.773438 10.492188 26.359375 L 11.785156 26.417969 C 12.296875 25.910156 12.90625 25.492188 13.582031 25.195312 Z M 13.582031 25.195312 "/>
<path style=" stroke:none;fill-rule:nonzero;fill:rgb(100%,100%,100%);fill-opacity:1;" d="M 9.089844 29.695312 C 9.050781 29.992188 9.03125 30.292969 9.03125 30.59375 C 9.03125 32.03125 9.476562 33.371094 10.238281 34.480469 L 10.683594 33.265625 C 10.277344 32.476562 10.050781 31.589844 10.039062 30.648438 Z M 9.089844 29.695312 "/>
<path style=" stroke:none;fill-rule:nonzero;fill:rgb(100%,100%,100%);fill-opacity:1;" d="M 15.988281 36.492188 C 15.261719 36.492188 14.570312 36.363281 13.929688 36.128906 L 13 36.828125 C 13.90625 37.253906 14.917969 37.496094 15.988281 37.496094 C 17.054688 37.496094 18.070312 37.253906 18.972656 36.828125 L 18.042969 36.128906 C 17.402344 36.363281 16.710938 36.492188 15.988281 36.492188 Z M 15.988281 36.492188 "/>
<path style=" stroke:none;fill-rule:nonzero;fill:rgb(100%,100%,100%);fill-opacity:1;" d="M 22.878906 29.695312 L 21.921875 30.648438 C 21.910156 31.589844 21.683594 32.476562 21.28125 33.265625 L 21.722656 34.480469 C 22.484375 33.371094 22.933594 32.035156 22.933594 30.59375 C 22.9375 30.289062 22.921875 29.992188 22.878906 29.695312 Z M 22.878906 29.695312 "/>
<path style=" stroke:none;fill-rule:nonzero;fill:rgb(15.686275%,22.745098%,41.568627%);fill-opacity:1;" d="M 14.242188 36.945312 L 14.242188 33.453125 L 15.316406 33.453125 L 15.316406 36.945312 Z M 14.242188 36.945312 "/>
<path style=" stroke:none;fill-rule:nonzero;fill:url(#linear4);" d="M 14.425781 36.761719 L 15.132812 36.761719 L 15.132812 33.632812 L 14.425781 33.632812 Z M 14.425781 36.761719 "/>
<path style=" stroke:none;fill-rule:nonzero;fill:rgb(15.686275%,22.745098%,41.568627%);fill-opacity:1;" d="M 15.445312 36.945312 L 15.445312 33.453125 L 16.527344 33.453125 L 16.527344 36.945312 Z M 15.445312 36.945312 "/>
<path style=" stroke:none;fill-rule:nonzero;fill:url(#linear5);" d="M 15.628906 36.761719 L 16.34375 36.761719 L 16.34375 33.632812 L 15.628906 33.632812 Z M 15.628906 36.761719 "/>
<path style=" stroke:none;fill-rule:nonzero;fill:rgb(15.686275%,22.745098%,41.568627%);fill-opacity:1;" d="M 18.480469 24.320312 L 13.367188 24.320312 L 15.242188 32.074219 L 16.730469 32.074219 L 18.601562 24.320312 Z M 18.480469 24.320312 "/>
<path style=" stroke:none;fill-rule:nonzero;fill:url(#linear6);" d="M 15.386719 31.890625 L 16.585938 31.890625 L 18.367188 24.503906 L 13.605469 24.503906 Z M 15.386719 31.890625 "/>
<path style=" stroke:none;fill-rule:nonzero;fill:rgb(15.686275%,22.745098%,41.568627%);fill-opacity:1;" d="M 17.515625 33.238281 L 16.703125 32.144531 L 15.269531 32.144531 L 14.34375 33.382812 L 17.621094 33.382812 Z M 17.515625 33.238281 "/>
<path style=" stroke:none;fill-rule:nonzero;fill:url(#linear7);" d="M 14.710938 33.199219 L 17.261719 33.199219 L 16.613281 32.324219 L 15.359375 32.324219 Z M 14.710938 33.199219 "/>
<path style=" stroke:none;fill-rule:nonzero;fill:rgb(15.686275%,22.745098%,41.568627%);fill-opacity:1;" d="M 16.742188 36.945312 L 16.652344 36.945312 L 16.652344 33.453125 L 17.730469 33.453125 L 17.730469 36.945312 Z M 16.742188 36.945312 "/>
<path style=" stroke:none;fill-rule:nonzero;fill:url(#linear8);" d="M 17.546875 36.761719 L 17.546875 33.632812 L 16.835938 33.632812 L 16.835938 36.761719 Z M 17.546875 36.761719 "/>
<path style=" stroke:none;fill-rule:nonzero;fill:rgb(100%,100%,100%);fill-opacity:1;" d="M 19.847656 9.726562 C 19.566406 7.628906 17.535156 6.335938 17.535156 6.335938 C 18.839844 6.378906 19.972656 7.074219 19.972656 7.074219 C 19.972656 7.074219 19.03125 5.691406 17.21875 5.269531 L 17.886719 4.59375 C 17.175781 4.675781 16.445312 5.144531 16.445312 5.144531 L 15.980469 4.207031 L 15.515625 5.144531 C 15.515625 5.144531 14.792969 4.675781 14.074219 4.59375 L 14.742188 5.269531 C 12.933594 5.691406 11.988281 7.074219 11.988281 7.074219 C 11.988281 7.074219 13.125 6.378906 14.425781 6.335938 C 14.425781 6.335938 12.394531 7.632812 12.113281 9.726562 C 12.113281 9.726562 13.410156 7.742188 14.261719 7.441406 C 14.261719 7.441406 12.914062 9.210938 13.1875 11.839844 C 13.921875 9.050781 14.738281 8.464844 14.738281 8.464844 C 14.113281 10.824219 14.738281 12.230469 14.738281 12.230469 C 14.859375 9.65625 15.542969 8.53125 15.542969 8.53125 L 15.542969 9.816406 L 15.402344 9.816406 C 15.402344 9.816406 15.503906 10.054688 15.550781 10.230469 L 15.550781 11.277344 L 15.402344 11.277344 C 15.402344 11.277344 15.503906 11.511719 15.550781 11.6875 L 15.550781 12.734375 L 15.402344 12.734375 C 15.402344 12.734375 15.503906 12.972656 15.550781 13.148438 L 15.550781 14.351562 L 15.300781 14.496094 L 15.300781 14.648438 L 16.660156 14.648438 L 16.660156 14.496094 L 16.414062 14.351562 L 16.414062 13.148438 C 16.457031 12.972656 16.558594 12.734375 16.558594 12.734375 L 16.414062 12.734375 L 16.414062 11.6875 C 16.457031 11.511719 16.558594 11.277344 16.558594 11.277344 L 16.414062 11.277344 L 16.414062 10.230469 C 16.457031 10.054688 16.558594 9.816406 16.558594 9.816406 L 16.414062 9.816406 L 16.414062 8.53125 C 16.414062 8.53125 17.097656 9.65625 17.21875 12.230469 C 17.21875 12.230469 17.84375 10.824219 17.21875 8.464844 C 17.21875 8.464844 18.035156 9.050781 18.769531 11.839844 C 19.042969 9.210938 17.691406 7.441406 17.691406 7.441406 C 18.550781 7.742188 19.847656 9.726562 19.847656 9.726562 Z M 19.847656 9.726562 "/>
<path style=" stroke:none;fill-rule:nonzero;fill:rgb(100%,100%,100%);fill-opacity:1;" d="M 19.773438 18.105469 C 19.535156 18.105469 19.390625 18.234375 19.242188 18.367188 C 19.101562 18.5 18.933594 18.671875 18.757812 18.671875 C 18.648438 18.671875 18.433594 18.492188 18.121094 18.191406 L 18.59375 17.71875 C 18.671875 17.644531 18.664062 17.527344 18.59375 17.457031 C 18.519531 17.386719 18.40625 17.386719 18.332031 17.457031 L 17.855469 17.933594 C 17.484375 17.566406 17.019531 17.097656 16.484375 16.601562 C 17.238281 15.925781 17.804688 15.410156 18.359375 15.003906 C 19.410156 14.226562 20.859375 13.695312 22.453125 13.59375 C 22.453125 13.59375 21.863281 13.382812 21.132812 13.382812 C 20.226562 13.382812 19.503906 13.636719 18.871094 13.929688 C 17.761719 14.445312 16.953125 15.265625 15.996094 16.152344 C 15.042969 15.265625 14.226562 14.445312 13.125 13.929688 C 12.492188 13.636719 11.761719 13.382812 10.859375 13.382812 C 10.132812 13.382812 9.542969 13.59375 9.542969 13.59375 C 11.128906 13.695312 12.578125 14.222656 13.636719 15.003906 C 14.183594 15.410156 14.753906 15.925781 15.511719 16.601562 C 14.976562 17.101562 14.507812 17.566406 14.140625 17.933594 L 13.664062 17.457031 C 13.59375 17.378906 13.476562 17.378906 13.398438 17.457031 C 13.324219 17.53125 13.324219 17.644531 13.398438 17.71875 L 13.875 18.191406 C 13.5625 18.484375 13.34375 18.671875 13.238281 18.671875 C 13.058594 18.671875 12.890625 18.5 12.75 18.367188 C 12.605469 18.234375 12.453125 18.105469 12.222656 18.105469 C 11.925781 18.105469 11.6875 18.292969 11.6875 18.527344 C 11.6875 18.722656 11.925781 18.914062 12.207031 19.089844 C 12.449219 19.242188 12.648438 19.367188 12.949219 19.367188 C 13.441406 19.367188 13.835938 19.082031 14.3125 18.636719 L 14.75 19.074219 C 14.789062 19.113281 14.835938 19.128906 14.882812 19.128906 C 14.933594 19.128906 14.980469 19.113281 15.015625 19.074219 C 15.089844 19 15.089844 18.886719 15.015625 18.8125 L 14.578125 18.378906 C 14.964844 17.996094 15.414062 17.535156 16.003906 17.046875 C 16.589844 17.535156 17.046875 17.996094 17.429688 18.378906 L 16.992188 18.8125 C 16.921875 18.886719 16.921875 19.007812 16.992188 19.074219 C 17.027344 19.113281 17.078125 19.128906 17.121094 19.128906 C 17.167969 19.128906 17.21875 19.113281 17.253906 19.074219 L 17.691406 18.636719 C 18.167969 19.082031 18.566406 19.367188 19.054688 19.367188 C 19.363281 19.367188 19.5625 19.246094 19.800781 19.089844 C 20.082031 18.914062 20.316406 18.722656 20.316406 18.527344 C 20.308594 18.296875 20.070312 18.105469 19.773438 18.105469 Z M 19.773438 18.105469 "/>
<path style=" stroke:none;fill-rule:nonzero;fill:rgb(100%,100%,100%);fill-opacity:1;" d="M 9.21875 26.804688 L 8.980469 26.800781 L 8.710938 27.472656 L 8.894531 27.632812 C 8.964844 27.695312 9.007812 27.746094 9.03125 27.777344 C 9.050781 27.808594 9.050781 27.851562 9.03125 27.898438 C 9.011719 27.941406 8.980469 27.976562 8.9375 27.992188 C 8.894531 28.011719 8.851562 28.011719 8.8125 27.996094 C 8.792969 27.984375 8.769531 27.976562 8.75 27.960938 C 8.726562 27.941406 8.699219 27.917969 8.664062 27.882812 L 7.75 27.035156 C 7.722656 27.007812 7.691406 26.984375 7.65625 26.949219 C 7.621094 26.917969 7.59375 26.886719 7.570312 26.855469 C 7.550781 26.820312 7.539062 26.789062 7.535156 26.753906 C 7.527344 26.714844 7.535156 26.671875 7.554688 26.628906 C 7.570312 26.582031 7.597656 26.546875 7.632812 26.519531 C 7.664062 26.5 7.695312 26.484375 7.726562 26.472656 C 7.765625 26.46875 7.796875 26.460938 7.835938 26.460938 L 7.988281 26.460938 L 9.234375 26.457031 C 9.332031 26.457031 9.398438 26.460938 9.433594 26.480469 C 9.472656 26.496094 9.5 26.519531 9.519531 26.570312 C 9.542969 26.613281 9.542969 26.660156 9.519531 26.703125 C 9.511719 26.730469 9.496094 26.753906 9.476562 26.769531 C 9.460938 26.785156 9.441406 26.796875 9.417969 26.800781 C 9.398438 26.804688 9.363281 26.8125 9.328125 26.8125 C 9.285156 26.804688 9.246094 26.804688 9.21875 26.804688 Z M 8.488281 27.28125 L 8.691406 26.789062 L 7.90625 26.761719 Z M 8.488281 27.28125 "/>
<path style=" stroke:none;fill-rule:nonzero;fill:rgb(100%,100%,100%);fill-opacity:1;" d="M 11.320312 24.300781 L 11.109375 24.191406 L 10.570312 24.675781 L 10.660156 24.902344 C 10.691406 24.988281 10.714844 25.050781 10.71875 25.09375 C 10.726562 25.132812 10.703125 25.167969 10.667969 25.207031 C 10.632812 25.238281 10.589844 25.25 10.542969 25.25 C 10.492188 25.25 10.457031 25.234375 10.429688 25.203125 C 10.414062 25.1875 10.394531 25.164062 10.386719 25.136719 C 10.375 25.109375 10.359375 25.078125 10.34375 25.03125 L 9.910156 23.867188 C 9.898438 23.832031 9.882812 23.789062 9.867188 23.75 C 9.851562 23.699219 9.839844 23.664062 9.835938 23.625 C 9.828125 23.585938 9.835938 23.550781 9.84375 23.515625 C 9.855469 23.480469 9.882812 23.449219 9.921875 23.414062 C 9.957031 23.382812 9.996094 23.363281 10.035156 23.351562 C 10.070312 23.339844 10.109375 23.347656 10.140625 23.351562 C 10.179688 23.363281 10.210938 23.371094 10.246094 23.386719 C 10.277344 23.40625 10.320312 23.425781 10.378906 23.453125 L 11.5 24 C 11.585938 24.042969 11.636719 24.074219 11.664062 24.109375 C 11.691406 24.140625 11.703125 24.175781 11.703125 24.226562 C 11.699219 24.273438 11.683594 24.316406 11.644531 24.347656 C 11.621094 24.371094 11.601562 24.382812 11.578125 24.386719 C 11.558594 24.390625 11.535156 24.390625 11.515625 24.390625 C 11.492188 24.386719 11.464844 24.375 11.429688 24.359375 C 11.378906 24.332031 11.347656 24.316406 11.320312 24.300781 Z M 10.457031 24.414062 L 10.855469 24.058594 L 10.164062 23.6875 Z M 10.457031 24.414062 "/>
<path style=" stroke:none;fill-rule:nonzero;fill:rgb(100%,100%,100%);fill-opacity:1;" d="M 9.589844 26.316406 L 8.390625 25.519531 C 8.339844 25.480469 8.304688 25.441406 8.289062 25.398438 C 8.277344 25.355469 8.285156 25.316406 8.316406 25.273438 C 8.34375 25.230469 8.382812 25.207031 8.425781 25.195312 C 8.46875 25.191406 8.523438 25.207031 8.574219 25.246094 L 9.773438 26.042969 C 9.828125 26.082031 9.867188 26.125 9.878906 26.167969 C 9.886719 26.210938 9.878906 26.253906 9.851562 26.296875 C 9.824219 26.339844 9.785156 26.359375 9.742188 26.367188 C 9.695312 26.367188 9.644531 26.355469 9.589844 26.316406 Z M 9.589844 26.316406 "/>
<path style=" stroke:none;fill-rule:nonzero;fill:rgb(100%,100%,100%);fill-opacity:1;" d="M 13.167969 23.304688 L 12.6875 21.949219 C 12.664062 21.886719 12.660156 21.839844 12.675781 21.796875 C 12.691406 21.753906 12.722656 21.726562 12.773438 21.710938 C 12.820312 21.695312 12.863281 21.695312 12.902344 21.714844 C 12.941406 21.738281 12.972656 21.78125 12.996094 21.84375 L 13.476562 23.195312 C 13.496094 23.261719 13.5 23.3125 13.480469 23.351562 C 13.464844 23.394531 13.433594 23.421875 13.382812 23.4375 C 13.335938 23.453125 13.292969 23.449219 13.253906 23.425781 C 13.214844 23.40625 13.1875 23.363281 13.167969 23.304688 Z M 13.167969 23.304688 "/>
<path style=" stroke:none;fill-rule:nonzero;fill:rgb(100%,100%,100%);fill-opacity:1;" d="M 10.011719 25.21875 L 9.742188 25.492188 C 9.699219 25.535156 9.660156 25.554688 9.617188 25.554688 C 9.574219 25.554688 9.542969 25.546875 9.511719 25.511719 C 9.476562 25.480469 9.460938 25.449219 9.46875 25.40625 C 9.46875 25.367188 9.488281 25.324219 9.53125 25.28125 L 9.800781 25.007812 C 9.84375 24.964844 9.882812 24.945312 9.925781 24.9375 C 9.964844 24.9375 10.003906 24.949219 10.035156 24.980469 C 10.066406 25.015625 10.078125 25.046875 10.078125 25.082031 C 10.078125 25.136719 10.054688 25.175781 10.011719 25.21875 Z M 10.011719 25.21875 "/>
<path style=" stroke:none;fill-rule:nonzero;fill:rgb(100%,100%,100%);fill-opacity:1;" d="M 11.429688 22.585938 L 11.683594 23.007812 C 11.691406 22.945312 11.707031 22.890625 11.730469 22.847656 C 11.75 22.804688 11.777344 22.761719 11.8125 22.722656 C 11.84375 22.6875 11.886719 22.652344 11.9375 22.625 C 12.003906 22.585938 12.082031 22.5625 12.15625 22.558594 C 12.234375 22.558594 12.304688 22.574219 12.367188 22.609375 C 12.410156 22.632812 12.441406 22.664062 12.476562 22.703125 C 12.507812 22.738281 12.539062 22.789062 12.574219 22.839844 L 12.898438 23.386719 C 12.929688 23.449219 12.945312 23.496094 12.933594 23.539062 C 12.925781 23.582031 12.902344 23.621094 12.855469 23.644531 C 12.757812 23.699219 12.675781 23.671875 12.609375 23.554688 L 12.324219 23.070312 C 12.269531 22.980469 12.214844 22.917969 12.15625 22.882812 C 12.101562 22.851562 12.03125 22.859375 11.957031 22.902344 C 11.910156 22.933594 11.871094 22.96875 11.84375 23.023438 C 11.816406 23.078125 11.8125 23.136719 11.820312 23.195312 C 11.832031 23.25 11.871094 23.328125 11.9375 23.4375 L 12.15625 23.8125 C 12.1875 23.871094 12.207031 23.917969 12.195312 23.960938 C 12.1875 24.003906 12.164062 24.042969 12.113281 24.070312 C 12.015625 24.125 11.9375 24.097656 11.871094 23.980469 L 11.136719 22.746094 C 11.105469 22.6875 11.085938 22.636719 11.097656 22.59375 C 11.105469 22.550781 11.128906 22.515625 11.179688 22.488281 C 11.222656 22.460938 11.269531 22.457031 11.3125 22.472656 C 11.351562 22.492188 11.390625 22.53125 11.429688 22.585938 Z M 11.429688 22.585938 "/>
<path style=" stroke:none;fill-rule:nonzero;fill:rgb(100%,100%,100%);fill-opacity:1;" d="M 13.640625 21.738281 C 13.597656 21.746094 13.554688 21.746094 13.519531 21.730469 C 13.480469 21.714844 13.453125 21.675781 13.4375 21.628906 C 13.425781 21.585938 13.433594 21.542969 13.453125 21.503906 C 13.476562 21.46875 13.511719 21.441406 13.554688 21.429688 C 13.597656 21.421875 13.636719 21.421875 13.679688 21.4375 C 13.722656 21.453125 13.746094 21.484375 13.761719 21.539062 C 13.777344 21.585938 13.773438 21.628906 13.75 21.667969 C 13.71875 21.699219 13.683594 21.71875 13.640625 21.738281 Z M 13.894531 22.015625 L 14.167969 22.933594 C 14.183594 22.996094 14.183594 23.050781 14.160156 23.089844 C 14.140625 23.132812 14.105469 23.15625 14.058594 23.167969 C 14.007812 23.183594 13.964844 23.175781 13.929688 23.152344 C 13.890625 23.125 13.859375 23.082031 13.84375 23.023438 L 13.578125 22.117188 C 13.5625 22.054688 13.5625 22.003906 13.578125 21.960938 C 13.597656 21.917969 13.632812 21.890625 13.679688 21.882812 C 13.730469 21.863281 13.773438 21.871094 13.808594 21.898438 C 13.851562 21.917969 13.878906 21.960938 13.894531 22.015625 Z M 13.894531 22.015625 "/>
<path style=" stroke:none;fill-rule:nonzero;fill:rgb(100%,100%,100%);fill-opacity:1;" d="M 21.882812 23.929688 L 21.253906 24.65625 C 21.210938 24.703125 21.164062 24.730469 21.117188 24.734375 C 21.070312 24.742188 21.03125 24.722656 20.992188 24.691406 C 20.957031 24.660156 20.9375 24.621094 20.9375 24.574219 C 20.9375 24.527344 20.960938 24.484375 21.003906 24.429688 L 21.628906 23.714844 C 21.671875 23.667969 21.71875 23.640625 21.761719 23.636719 C 21.804688 23.628906 21.847656 23.644531 21.882812 23.671875 C 21.921875 23.707031 21.9375 23.742188 21.945312 23.789062 C 21.945312 23.839844 21.925781 23.882812 21.882812 23.929688 Z M 21.988281 23.566406 C 21.953125 23.535156 21.933594 23.5 21.925781 23.457031 C 21.921875 23.414062 21.933594 23.371094 21.972656 23.335938 C 22.003906 23.296875 22.039062 23.28125 22.085938 23.28125 C 22.128906 23.28125 22.171875 23.292969 22.203125 23.324219 C 22.234375 23.351562 22.257812 23.386719 22.261719 23.429688 C 22.269531 23.472656 22.257812 23.515625 22.21875 23.554688 C 22.1875 23.59375 22.148438 23.613281 22.105469 23.613281 C 22.0625 23.609375 22.023438 23.59375 21.988281 23.566406 Z M 21.988281 23.566406 "/>
<path style=" stroke:none;fill-rule:nonzero;fill:rgb(100%,100%,100%);fill-opacity:1;" d="M 16.5 22.4375 C 16.5 22.546875 16.472656 22.644531 16.417969 22.730469 C 16.363281 22.816406 16.285156 22.878906 16.175781 22.933594 C 16.066406 22.980469 15.941406 23.007812 15.792969 23.007812 C 15.613281 23.007812 15.46875 22.976562 15.355469 22.90625 C 15.273438 22.859375 15.207031 22.792969 15.15625 22.710938 C 15.105469 22.632812 15.078125 22.558594 15.078125 22.480469 C 15.078125 22.4375 15.09375 22.402344 15.121094 22.371094 C 15.15625 22.335938 15.191406 22.320312 15.242188 22.320312 C 15.277344 22.320312 15.3125 22.332031 15.339844 22.359375 C 15.363281 22.386719 15.386719 22.417969 15.410156 22.464844 C 15.429688 22.523438 15.457031 22.566406 15.484375 22.605469 C 15.511719 22.644531 15.550781 22.675781 15.597656 22.703125 C 15.644531 22.730469 15.710938 22.738281 15.785156 22.738281 C 15.894531 22.738281 15.980469 22.710938 16.046875 22.664062 C 16.109375 22.617188 16.148438 22.550781 16.148438 22.476562 C 16.148438 22.417969 16.132812 22.371094 16.09375 22.332031 C 16.054688 22.292969 16.011719 22.265625 15.953125 22.246094 C 15.894531 22.222656 15.820312 22.207031 15.722656 22.183594 C 15.59375 22.148438 15.484375 22.117188 15.398438 22.074219 C 15.3125 22.035156 15.242188 21.976562 15.191406 21.914062 C 15.144531 21.84375 15.117188 21.757812 15.117188 21.65625 C 15.117188 21.558594 15.144531 21.472656 15.199219 21.394531 C 15.25 21.316406 15.328125 21.257812 15.429688 21.214844 C 15.53125 21.171875 15.652344 21.15625 15.785156 21.15625 C 15.894531 21.15625 15.992188 21.171875 16.074219 21.199219 C 16.152344 21.226562 16.21875 21.265625 16.273438 21.308594 C 16.328125 21.351562 16.363281 21.398438 16.386719 21.445312 C 16.414062 21.496094 16.425781 21.542969 16.425781 21.589844 C 16.425781 21.632812 16.40625 21.671875 16.378906 21.710938 C 16.347656 21.742188 16.308594 21.761719 16.265625 21.761719 C 16.222656 21.761719 16.191406 21.753906 16.171875 21.730469 C 16.148438 21.710938 16.125 21.675781 16.101562 21.628906 C 16.066406 21.566406 16.03125 21.511719 15.980469 21.472656 C 15.9375 21.4375 15.863281 21.414062 15.757812 21.414062 C 15.667969 21.414062 15.59375 21.4375 15.53125 21.472656 C 15.472656 21.515625 15.445312 21.566406 15.445312 21.617188 C 15.445312 21.65625 15.457031 21.683594 15.472656 21.710938 C 15.496094 21.738281 15.523438 21.757812 15.554688 21.773438 C 15.585938 21.789062 15.625 21.804688 15.65625 21.816406 C 15.6875 21.828125 15.75 21.84375 15.828125 21.863281 C 15.933594 21.886719 16.023438 21.914062 16.105469 21.941406 C 16.1875 21.96875 16.257812 22.003906 16.316406 22.042969 C 16.375 22.085938 16.417969 22.132812 16.449219 22.199219 C 16.484375 22.273438 16.5 22.347656 16.5 22.4375 Z M 16.5 22.4375 "/>
<path style=" stroke:none;fill-rule:nonzero;fill:rgb(100%,100%,100%);fill-opacity:1;" d="M 17.617188 22.867188 C 17.527344 22.910156 17.4375 22.9375 17.359375 22.949219 C 17.277344 22.960938 17.191406 22.960938 17.097656 22.9375 C 17.019531 22.917969 16.949219 22.882812 16.894531 22.835938 C 16.839844 22.789062 16.800781 22.734375 16.78125 22.667969 C 16.757812 22.605469 16.757812 22.542969 16.773438 22.476562 C 16.796875 22.390625 16.839844 22.320312 16.914062 22.273438 C 16.984375 22.222656 17.070312 22.199219 17.175781 22.203125 C 17.195312 22.203125 17.25 22.203125 17.335938 22.207031 C 17.421875 22.207031 17.492188 22.214844 17.558594 22.214844 C 17.617188 22.214844 17.6875 22.214844 17.757812 22.207031 C 17.773438 22.121094 17.773438 22.058594 17.753906 22.011719 C 17.730469 21.960938 17.671875 21.929688 17.578125 21.90625 C 17.5 21.886719 17.433594 21.886719 17.386719 21.898438 C 17.335938 21.90625 17.292969 21.933594 17.253906 21.972656 C 17.210938 22.011719 17.183594 22.035156 17.167969 22.046875 C 17.152344 22.058594 17.125 22.058594 17.082031 22.054688 C 17.046875 22.042969 17.019531 22.027344 16.996094 21.992188 C 16.976562 21.96875 16.96875 21.929688 16.980469 21.898438 C 16.992188 21.839844 17.027344 21.789062 17.078125 21.746094 C 17.132812 21.703125 17.203125 21.671875 17.296875 21.660156 C 17.390625 21.644531 17.503906 21.65625 17.628906 21.683594 C 17.769531 21.714844 17.875 21.757812 17.953125 21.8125 C 18.027344 21.863281 18.070312 21.929688 18.085938 22.011719 C 18.105469 22.089844 18.097656 22.191406 18.070312 22.308594 C 18.054688 22.386719 18.039062 22.449219 18.023438 22.503906 C 18.011719 22.558594 17.996094 22.617188 17.980469 22.679688 C 17.964844 22.738281 17.957031 22.804688 17.964844 22.878906 C 17.96875 22.949219 17.96875 22.992188 17.964844 23.011719 C 17.957031 23.046875 17.929688 23.070312 17.894531 23.09375 C 17.855469 23.113281 17.816406 23.121094 17.78125 23.109375 C 17.746094 23.105469 17.714844 23.078125 17.691406 23.039062 C 17.660156 22.992188 17.640625 22.9375 17.617188 22.867188 Z M 17.703125 22.394531 C 17.648438 22.402344 17.578125 22.40625 17.484375 22.402344 C 17.386719 22.402344 17.320312 22.402344 17.28125 22.402344 C 17.246094 22.402344 17.207031 22.414062 17.167969 22.433594 C 17.132812 22.457031 17.105469 22.488281 17.09375 22.53125 C 17.082031 22.578125 17.089844 22.625 17.121094 22.667969 C 17.148438 22.710938 17.195312 22.738281 17.253906 22.753906 C 17.320312 22.773438 17.378906 22.773438 17.445312 22.753906 C 17.503906 22.738281 17.550781 22.710938 17.589844 22.675781 C 17.632812 22.632812 17.667969 22.558594 17.691406 22.445312 Z M 17.703125 22.394531 "/>
<path style=" stroke:none;fill-rule:nonzero;fill:rgb(100%,100%,100%);fill-opacity:1;" d="M 19.128906 23.355469 L 19.140625 23.3125 C 19.085938 23.351562 19.03125 23.378906 18.984375 23.394531 C 18.929688 23.414062 18.875 23.421875 18.820312 23.421875 C 18.769531 23.421875 18.707031 23.410156 18.644531 23.386719 C 18.566406 23.363281 18.503906 23.324219 18.453125 23.277344 C 18.40625 23.226562 18.375 23.167969 18.359375 23.097656 C 18.339844 23.019531 18.351562 22.917969 18.390625 22.792969 L 18.589844 22.171875 C 18.609375 22.105469 18.636719 22.0625 18.675781 22.042969 C 18.714844 22.019531 18.757812 22.015625 18.804688 22.03125 C 18.855469 22.046875 18.886719 22.074219 18.910156 22.117188 C 18.929688 22.160156 18.925781 22.207031 18.910156 22.273438 L 18.746094 22.777344 C 18.726562 22.851562 18.707031 22.910156 18.703125 22.964844 C 18.699219 23.019531 18.707031 23.066406 18.730469 23.105469 C 18.75 23.140625 18.789062 23.167969 18.847656 23.191406 C 18.902344 23.207031 18.957031 23.207031 19.015625 23.191406 C 19.074219 23.175781 19.117188 23.140625 19.164062 23.097656 C 19.195312 23.0625 19.230469 22.964844 19.285156 22.816406 L 19.410156 22.433594 C 19.433594 22.371094 19.460938 22.332031 19.503906 22.304688 C 19.539062 22.285156 19.582031 22.277344 19.632812 22.292969 C 19.679688 22.308594 19.714844 22.335938 19.730469 22.375 C 19.746094 22.417969 19.746094 22.464844 19.722656 22.53125 L 19.425781 23.441406 C 19.40625 23.5 19.378906 23.542969 19.339844 23.566406 C 19.300781 23.585938 19.265625 23.59375 19.222656 23.578125 C 19.179688 23.558594 19.144531 23.535156 19.128906 23.496094 C 19.109375 23.464844 19.109375 23.414062 19.128906 23.355469 Z M 19.128906 23.355469 "/>
<path style=" stroke:none;fill-rule:nonzero;fill:rgb(100%,100%,100%);fill-opacity:1;" d="M 20.453125 24.109375 L 20.46875 24.082031 C 20.40625 24.101562 20.34375 24.113281 20.289062 24.113281 C 20.238281 24.113281 20.183594 24.113281 20.132812 24.097656 C 20.082031 24.085938 20.03125 24.058594 19.984375 24.027344 C 19.917969 23.984375 19.863281 23.929688 19.828125 23.867188 C 19.789062 23.800781 19.761719 23.730469 19.757812 23.652344 C 19.75 23.570312 19.757812 23.492188 19.785156 23.40625 C 19.804688 23.320312 19.847656 23.238281 19.898438 23.152344 C 20.011719 22.980469 20.140625 22.867188 20.285156 22.824219 C 20.429688 22.78125 20.578125 22.804688 20.71875 22.894531 C 20.796875 22.949219 20.859375 23.003906 20.894531 23.066406 C 20.933594 23.132812 20.960938 23.207031 20.976562 23.296875 L 21.242188 22.882812 C 21.28125 22.824219 21.316406 22.792969 21.359375 22.777344 C 21.402344 22.761719 21.445312 22.765625 21.484375 22.792969 C 21.523438 22.820312 21.550781 22.851562 21.554688 22.894531 C 21.558594 22.9375 21.542969 22.980469 21.511719 23.035156 L 20.71875 24.261719 C 20.683594 24.316406 20.648438 24.347656 20.605469 24.359375 C 20.5625 24.371094 20.523438 24.363281 20.484375 24.339844 C 20.449219 24.3125 20.425781 24.277344 20.414062 24.234375 C 20.410156 24.203125 20.421875 24.15625 20.453125 24.109375 Z M 20.167969 23.347656 C 20.117188 23.421875 20.085938 23.492188 20.074219 23.558594 C 20.0625 23.628906 20.070312 23.6875 20.097656 23.742188 C 20.125 23.796875 20.15625 23.839844 20.203125 23.871094 C 20.253906 23.902344 20.308594 23.917969 20.367188 23.917969 C 20.425781 23.917969 20.480469 23.902344 20.539062 23.867188 C 20.597656 23.828125 20.652344 23.769531 20.703125 23.695312 C 20.75 23.621094 20.777344 23.550781 20.789062 23.480469 C 20.796875 23.410156 20.792969 23.351562 20.765625 23.292969 C 20.746094 23.238281 20.707031 23.195312 20.660156 23.164062 C 20.605469 23.132812 20.550781 23.113281 20.492188 23.121094 C 20.429688 23.125 20.371094 23.148438 20.316406 23.183594 C 20.265625 23.21875 20.214844 23.277344 20.167969 23.347656 Z M 20.167969 23.347656 "/>
<path style=" stroke:none;fill-rule:nonzero;fill:rgb(100%,100%,100%);fill-opacity:1;" d="M 23.675781 25.464844 L 23.277344 24.878906 L 22.898438 25.136719 L 23.234375 25.625 C 23.265625 25.667969 23.277344 25.710938 23.273438 25.75 C 23.265625 25.785156 23.246094 25.8125 23.214844 25.839844 C 23.179688 25.863281 23.144531 25.871094 23.109375 25.863281 C 23.074219 25.851562 23.039062 25.824219 23.011719 25.78125 L 22.679688 25.292969 L 22.191406 25.621094 C 22.132812 25.664062 22.074219 25.679688 22.023438 25.675781 C 21.976562 25.667969 21.9375 25.640625 21.90625 25.597656 C 21.875 25.554688 21.867188 25.507812 21.878906 25.460938 C 21.890625 25.410156 21.925781 25.367188 21.988281 25.324219 L 23.121094 24.550781 C 23.164062 24.527344 23.203125 24.503906 23.238281 24.5 C 23.277344 24.492188 23.308594 24.5 23.34375 24.519531 C 23.375 24.535156 23.402344 24.570312 23.433594 24.613281 L 23.914062 25.316406 C 23.949219 25.363281 23.964844 25.40625 23.957031 25.441406 C 23.953125 25.480469 23.929688 25.511719 23.898438 25.535156 C 23.867188 25.554688 23.828125 25.566406 23.789062 25.554688 C 23.742188 25.539062 23.710938 25.511719 23.675781 25.464844 Z M 23.675781 25.464844 "/>
<path style=" stroke:none;fill-rule:nonzero;fill:rgb(100%,100%,100%);fill-opacity:1;" d="M 23.84375 27.777344 C 23.796875 27.804688 23.730469 27.820312 23.660156 27.824219 C 23.589844 27.832031 23.511719 27.820312 23.429688 27.796875 C 23.34375 27.769531 23.261719 27.726562 23.1875 27.664062 C 23.109375 27.601562 23.039062 27.515625 22.984375 27.402344 C 22.941406 27.316406 22.910156 27.242188 22.894531 27.160156 C 22.871094 27.085938 22.867188 27.007812 22.871094 26.933594 C 22.878906 26.859375 22.894531 26.789062 22.925781 26.714844 C 22.953125 26.648438 22.992188 26.585938 23.039062 26.519531 C 23.089844 26.460938 23.144531 26.402344 23.203125 26.355469 C 23.265625 26.308594 23.335938 26.257812 23.414062 26.222656 C 23.542969 26.15625 23.667969 26.113281 23.785156 26.101562 C 23.90625 26.085938 24.019531 26.097656 24.125 26.128906 C 24.234375 26.160156 24.332031 26.214844 24.417969 26.289062 C 24.503906 26.367188 24.574219 26.453125 24.628906 26.558594 C 24.691406 26.6875 24.726562 26.816406 24.726562 26.941406 C 24.726562 27.0625 24.703125 27.175781 24.65625 27.265625 C 24.605469 27.359375 24.546875 27.421875 24.480469 27.453125 C 24.445312 27.476562 24.40625 27.476562 24.363281 27.464844 C 24.320312 27.453125 24.292969 27.429688 24.273438 27.394531 C 24.25 27.351562 24.246094 27.320312 24.253906 27.289062 C 24.265625 27.257812 24.289062 27.21875 24.320312 27.171875 C 24.378906 27.089844 24.410156 27.007812 24.421875 26.933594 C 24.433594 26.859375 24.417969 26.777344 24.375 26.699219 C 24.304688 26.5625 24.203125 26.488281 24.0625 26.460938 C 23.921875 26.4375 23.757812 26.46875 23.570312 26.5625 C 23.445312 26.628906 23.351562 26.699219 23.289062 26.773438 C 23.222656 26.847656 23.1875 26.929688 23.179688 27.015625 C 23.175781 27.101562 23.191406 27.179688 23.234375 27.265625 C 23.28125 27.359375 23.34375 27.421875 23.421875 27.464844 C 23.503906 27.507812 23.597656 27.519531 23.699219 27.507812 C 23.746094 27.503906 23.789062 27.496094 23.828125 27.507812 C 23.867188 27.519531 23.894531 27.539062 23.921875 27.582031 C 23.941406 27.621094 23.941406 27.660156 23.929688 27.703125 C 23.910156 27.722656 23.882812 27.753906 23.84375 27.777344 Z M 23.84375 27.777344 "/>
<path style=" stroke:none;fill-rule:nonzero;fill:rgb(100%,100%,100%);fill-opacity:1;" d="M 14.324219 39.601562 L 14.609375 38.457031 C 14.355469 38.570312 14.1875 38.613281 14.117188 38.597656 C 14.078125 38.585938 14.054688 38.566406 14.035156 38.53125 C 14.015625 38.5 14.007812 38.460938 14.019531 38.425781 C 14.03125 38.382812 14.054688 38.355469 14.085938 38.339844 C 14.117188 38.328125 14.171875 38.3125 14.246094 38.296875 C 14.359375 38.273438 14.457031 38.242188 14.527344 38.203125 C 14.605469 38.167969 14.675781 38.125 14.734375 38.070312 C 14.796875 38.015625 14.835938 37.984375 14.859375 37.972656 C 14.875 37.964844 14.90625 37.964844 14.945312 37.972656 C 14.988281 37.984375 15.019531 38.011719 15.042969 38.054688 C 15.058594 38.097656 15.0625 38.144531 15.046875 38.203125 L 14.683594 39.644531 C 14.640625 39.808594 14.566406 39.878906 14.445312 39.851562 C 14.394531 39.839844 14.359375 39.808594 14.332031 39.769531 C 14.304688 39.722656 14.304688 39.664062 14.324219 39.601562 Z M 14.324219 39.601562 "/>
<path style=" stroke:none;fill-rule:nonzero;fill:rgb(100%,100%,100%);fill-opacity:1;" d="M 16.144531 39.179688 C 16.082031 39.246094 16.011719 39.292969 15.941406 39.320312 C 15.871094 39.351562 15.792969 39.363281 15.707031 39.359375 C 15.625 39.351562 15.550781 39.332031 15.480469 39.300781 C 15.410156 39.261719 15.347656 39.214844 15.304688 39.15625 C 15.257812 39.09375 15.226562 39.027344 15.199219 38.949219 C 15.175781 38.875 15.164062 38.796875 15.171875 38.710938 C 15.175781 38.617188 15.199219 38.539062 15.234375 38.457031 C 15.273438 38.382812 15.320312 38.3125 15.382812 38.257812 C 15.441406 38.203125 15.515625 38.164062 15.597656 38.136719 C 15.679688 38.109375 15.769531 38.097656 15.867188 38.101562 C 15.980469 38.109375 16.078125 38.136719 16.164062 38.183594 C 16.25 38.230469 16.320312 38.289062 16.375 38.371094 C 16.429688 38.453125 16.472656 38.554688 16.492188 38.671875 C 16.519531 38.789062 16.527344 38.925781 16.515625 39.074219 C 16.503906 39.242188 16.476562 39.386719 16.433594 39.507812 C 16.390625 39.632812 16.335938 39.734375 16.265625 39.820312 C 16.195312 39.898438 16.117188 39.960938 16.023438 39.996094 C 15.933594 40.035156 15.828125 40.046875 15.710938 40.039062 C 15.597656 40.035156 15.5 40.007812 15.417969 39.960938 C 15.339844 39.910156 15.277344 39.851562 15.242188 39.789062 C 15.203125 39.722656 15.179688 39.660156 15.1875 39.601562 C 15.1875 39.5625 15.203125 39.53125 15.234375 39.503906 C 15.261719 39.476562 15.300781 39.464844 15.34375 39.464844 C 15.382812 39.464844 15.414062 39.480469 15.445312 39.503906 C 15.472656 39.523438 15.496094 39.558594 15.511719 39.605469 C 15.527344 39.660156 15.554688 39.703125 15.597656 39.734375 C 15.640625 39.765625 15.6875 39.789062 15.742188 39.792969 C 15.792969 39.796875 15.839844 39.789062 15.882812 39.765625 C 15.925781 39.746094 15.96875 39.710938 16.003906 39.667969 C 16.066406 39.578125 16.117188 39.417969 16.144531 39.179688 Z M 16.136719 38.785156 C 16.144531 38.726562 16.136719 38.671875 16.121094 38.617188 C 16.109375 38.570312 16.089844 38.523438 16.0625 38.484375 C 16.035156 38.445312 16.003906 38.414062 15.964844 38.394531 C 15.925781 38.371094 15.882812 38.355469 15.835938 38.355469 C 15.753906 38.351562 15.679688 38.382812 15.617188 38.445312 C 15.558594 38.511719 15.523438 38.601562 15.515625 38.71875 C 15.511719 38.832031 15.53125 38.929688 15.585938 39 C 15.640625 39.070312 15.710938 39.113281 15.796875 39.117188 C 15.851562 39.121094 15.90625 39.113281 15.953125 39.085938 C 16.003906 39.058594 16.046875 39.019531 16.082031 38.972656 C 16.117188 38.917969 16.132812 38.859375 16.136719 38.785156 Z M 16.136719 38.785156 "/>
<path style=" stroke:none;fill-rule:nonzero;fill:rgb(100%,100%,100%);fill-opacity:1;" d="M 17.097656 38.816406 C 17.179688 38.8125 17.246094 38.789062 17.304688 38.734375 C 17.359375 38.6875 17.386719 38.617188 17.386719 38.53125 C 17.386719 38.46875 17.359375 38.410156 17.308594 38.367188 C 17.261719 38.316406 17.195312 38.296875 17.121094 38.300781 C 17.066406 38.300781 17.023438 38.3125 16.992188 38.328125 C 16.957031 38.34375 16.929688 38.367188 16.910156 38.386719 C 16.886719 38.414062 16.871094 38.445312 16.855469 38.484375 C 16.839844 38.523438 16.824219 38.558594 16.8125 38.589844 C 16.808594 38.605469 16.792969 38.625 16.769531 38.632812 C 16.746094 38.644531 16.722656 38.648438 16.695312 38.648438 C 16.660156 38.648438 16.628906 38.640625 16.597656 38.613281 C 16.5625 38.585938 16.546875 38.546875 16.546875 38.5 C 16.546875 38.457031 16.558594 38.410156 16.585938 38.355469 C 16.613281 38.308594 16.652344 38.253906 16.699219 38.210938 C 16.746094 38.164062 16.8125 38.125 16.886719 38.09375 C 16.964844 38.058594 17.050781 38.042969 17.148438 38.039062 C 17.234375 38.035156 17.308594 38.042969 17.378906 38.066406 C 17.449219 38.085938 17.507812 38.113281 17.5625 38.15625 C 17.617188 38.199219 17.65625 38.246094 17.6875 38.300781 C 17.714844 38.355469 17.730469 38.417969 17.734375 38.484375 C 17.742188 38.570312 17.726562 38.644531 17.6875 38.710938 C 17.648438 38.773438 17.601562 38.832031 17.53125 38.898438 C 17.601562 38.929688 17.660156 38.972656 17.710938 39.015625 C 17.757812 39.058594 17.796875 39.113281 17.824219 39.164062 C 17.851562 39.21875 17.859375 39.285156 17.867188 39.347656 C 17.871094 39.429688 17.855469 39.503906 17.828125 39.578125 C 17.800781 39.652344 17.757812 39.71875 17.699219 39.78125 C 17.640625 39.839844 17.570312 39.890625 17.484375 39.925781 C 17.394531 39.964844 17.304688 39.980469 17.203125 39.984375 C 17.097656 39.992188 17 39.976562 16.921875 39.941406 C 16.839844 39.910156 16.769531 39.867188 16.710938 39.8125 C 16.652344 39.761719 16.613281 39.707031 16.582031 39.648438 C 16.546875 39.589844 16.539062 39.539062 16.53125 39.503906 C 16.53125 39.453125 16.542969 39.410156 16.574219 39.378906 C 16.609375 39.347656 16.644531 39.332031 16.695312 39.332031 C 16.722656 39.332031 16.742188 39.335938 16.765625 39.347656 C 16.785156 39.359375 16.800781 39.378906 16.8125 39.394531 C 16.859375 39.515625 16.914062 39.601562 16.96875 39.660156 C 17.023438 39.71875 17.097656 39.738281 17.191406 39.738281 C 17.246094 39.738281 17.292969 39.722656 17.347656 39.695312 C 17.394531 39.667969 17.433594 39.625 17.464844 39.574219 C 17.5 39.519531 17.507812 39.460938 17.507812 39.390625 C 17.503906 39.289062 17.476562 39.214844 17.417969 39.15625 C 17.359375 39.101562 17.28125 39.074219 17.179688 39.078125 C 17.164062 39.078125 17.136719 39.085938 17.097656 39.089844 C 17.0625 39.09375 17.039062 39.09375 17.027344 39.09375 C 16.980469 39.09375 16.941406 39.085938 16.914062 39.0625 C 16.886719 39.042969 16.871094 39.007812 16.871094 38.964844 C 16.871094 38.925781 16.882812 38.890625 16.914062 38.863281 C 16.949219 38.839844 16.992188 38.820312 17.054688 38.820312 Z M 17.097656 38.816406 "/>
<path style=" stroke:none;fill-rule:nonzero;fill:rgb(100%,100%,100%);fill-opacity:1;" d="M 17.851562 37.992188 L 18.679688 37.753906 C 18.761719 37.734375 18.820312 37.726562 18.863281 37.742188 C 18.910156 37.761719 18.941406 37.792969 18.957031 37.851562 C 18.96875 37.882812 18.957031 37.9375 18.933594 38.007812 C 18.910156 38.078125 18.882812 38.152344 18.847656 38.238281 C 18.816406 38.324219 18.785156 38.425781 18.757812 38.542969 C 18.730469 38.660156 18.714844 38.800781 18.707031 38.964844 C 18.707031 39.035156 18.707031 39.09375 18.714844 39.144531 C 18.71875 39.1875 18.726562 39.246094 18.734375 39.320312 C 18.746094 39.390625 18.75 39.449219 18.757812 39.488281 C 18.761719 39.578125 18.757812 39.644531 18.734375 39.6875 C 18.714844 39.730469 18.675781 39.753906 18.621094 39.769531 C 18.574219 39.789062 18.523438 39.78125 18.480469 39.753906 C 18.4375 39.730469 18.410156 39.679688 18.390625 39.609375 C 18.375 39.558594 18.363281 39.480469 18.363281 39.386719 C 18.363281 39.289062 18.363281 39.164062 18.378906 39.027344 C 18.394531 38.886719 18.417969 38.734375 18.453125 38.582031 C 18.492188 38.425781 18.546875 38.265625 18.609375 38.101562 L 17.941406 38.296875 C 17.871094 38.316406 17.816406 38.316406 17.773438 38.300781 C 17.730469 38.285156 17.703125 38.253906 17.6875 38.199219 C 17.671875 38.140625 17.675781 38.097656 17.710938 38.070312 C 17.734375 38.035156 17.785156 38.007812 17.851562 37.992188 Z M 17.851562 37.992188 "/>
</g>
</svg>
