<?xml version="1.0" encoding="UTF-8"?>
<svg xmlns="http://www.w3.org/2000/svg" xmlns:xlink="http://www.w3.org/1999/xlink" width="32px" height="32px" viewBox="0 0 32 32" version="1.1">
<defs>
<clipPath id="clip1">
  <path d="M 5 7 L 27.203125 7 L 27.203125 31.554688 L 5 31.554688 Z M 5 7 "/>
</clipPath>
<clipPath id="clip2">
  <path d="M 0.664062 14.484375 L 31.351562 14.484375 L 31.351562 22.738281 L 0.664062 22.738281 Z M 0.664062 14.484375 "/>
</clipPath>
</defs>
<g id="surface1">
<g clip-path="url(#clip1)" clip-rule="nonzero">
<path style=" stroke:none;fill-rule:evenodd;fill:rgb(100%,100%,100%);fill-opacity:1;" d="M 5.09375 7.078125 L 5.09375 23.480469 C 5.09375 24.777344 5.261719 25.277344 5.664062 25.96875 L 5.710938 26.046875 C 8.050781 29.496094 11.9375 31.554688 16.105469 31.554688 C 20.273438 31.554688 24.15625 29.496094 26.496094 26.046875 L 26.523438 26.007812 L 26.542969 25.96875 C 26.949219 25.277344 27.117188 24.777344 27.117188 23.480469 L 27.117188 7.078125 L 5.09375 7.078125 "/>
</g>
<path style=" stroke:none;fill-rule:nonzero;fill:rgb(2.745098%,10.980392%,22.745098%);fill-opacity:1;" d="M 25.789062 20.671875 L 25.789062 23.480469 C 25.789062 24.601562 25.660156 24.863281 25.394531 25.316406 C 23.378906 28.292969 19.96875 30.246094 16.105469 30.246094 C 12.238281 30.246094 8.828125 28.292969 6.8125 25.316406 C 6.546875 24.863281 6.417969 24.601562 6.417969 23.480469 L 6.417969 8.390625 L 25.789062 8.390625 Z M 26.386719 16.957031 L 26.386719 7.800781 L 5.820312 7.800781 L 5.820312 23.480469 C 5.820312 24.671875 5.964844 25.042969 6.296875 25.609375 L 6.304688 25.628906 L 6.316406 25.644531 C 8.519531 28.894531 12.179688 30.835938 16.101562 30.835938 C 20.027344 30.835938 23.6875 28.894531 25.890625 25.644531 L 25.902344 25.628906 L 25.910156 25.609375 C 26.242188 25.042969 26.386719 24.671875 26.386719 23.480469 L 26.386719 16.957031 "/>
<path style=" stroke:none;fill-rule:evenodd;fill:rgb(2.745098%,10.980392%,22.745098%);fill-opacity:1;" d="M 26.527344 21.6875 L 26.527344 23.480469 C 26.527344 24.703125 26.378906 25.089844 26.035156 25.679688 L 26.023438 25.699219 L 26.007812 25.722656 C 23.777344 29.011719 20.078125 30.972656 16.105469 30.972656 C 12.132812 30.972656 8.429688 29.011719 6.203125 25.722656 L 6.1875 25.699219 L 6.175781 25.679688 C 5.832031 25.089844 5.683594 24.703125 5.683594 23.480469 L 5.683594 7.660156 L 26.527344 7.660156 Z M 26.859375 17.054688 L 26.859375 7.332031 L 5.351562 7.332031 L 5.351562 23.480469 C 5.351562 24.777344 5.523438 25.214844 5.886719 25.839844 L 5.90625 25.871094 L 5.929688 25.902344 C 8.21875 29.28125 12.023438 31.300781 16.105469 31.300781 C 20.1875 31.300781 23.992188 29.28125 26.285156 25.902344 L 26.304688 25.871094 L 26.320312 25.839844 C 26.6875 25.214844 26.859375 24.777344 26.859375 23.480469 L 26.859375 17.054688 "/>
<path style=" stroke:none;fill-rule:nonzero;fill:rgb(89.019608%,6.666667%,27.843137%);fill-opacity:1;" d="M 14.230469 12.625 C 13.894531 12.625 13.621094 12.332031 13.621094 11.972656 C 13.621094 11.609375 13.894531 11.320312 14.230469 11.320312 C 14.566406 11.320312 14.839844 11.609375 14.839844 11.972656 C 14.839844 12.332031 14.566406 12.625 14.230469 12.625 Z M 14.828125 8.945312 L 14.832031 10.960938 C 14.609375 10.746094 14.316406 10.617188 13.996094 10.617188 C 13.308594 10.617188 12.75 11.214844 12.75 11.945312 C 12.75 12.679688 13.308594 13.273438 13.996094 13.273438 C 14.320312 13.273438 14.613281 13.140625 14.835938 12.921875 L 14.835938 13.25 L 15.660156 13.25 L 15.660156 8.945312 Z M 18.273438 12.519531 L 17.503906 12.519531 L 17.503906 9.804688 L 18.042969 9.804688 C 18.277344 9.804688 18.46875 10.003906 18.46875 10.25 C 18.46875 10.492188 18.277344 10.691406 18.042969 10.691406 L 17.761719 10.691406 L 17.761719 11.445312 L 18.273438 11.445312 C 18.558594 11.445312 18.773438 11.683594 18.773438 11.980469 C 18.765625 12.289062 18.582031 12.5 18.273438 12.519531 Z M 18.945312 10.96875 C 19.164062 10.753906 19.300781 10.46875 19.300781 10.15625 C 19.300781 9.871094 19.195312 9.609375 19.011719 9.402344 C 18.820312 9.183594 18.480469 9.085938 18.023438 9.085938 L 16.648438 9.085938 L 16.648438 13.25 L 18.421875 13.25 C 19.101562 13.238281 19.648438 12.699219 19.648438 12.046875 C 19.648438 11.570312 19.488281 11.230469 18.945312 10.96875 Z M 23.035156 13.253906 L 23.835938 13.253906 L 23.835938 8.976562 L 23.035156 8.976562 Z M 21.6875 12.195312 C 21.6875 12.445312 21.476562 12.648438 21.214844 12.648438 C 20.957031 12.648438 20.746094 12.445312 20.746094 12.195312 L 20.746094 10.691406 L 19.925781 10.691406 L 19.925781 12.355469 C 19.925781 12.917969 20.503906 13.375 21.210938 13.375 C 21.921875 13.375 22.5 12.917969 22.5 12.355469 L 22.5 10.691406 L 21.6875 10.691406 Z M 9.761719 10.308594 C 9.761719 9.628906 9.222656 9.078125 8.554688 9.078125 C 8.53125 9.078125 8.441406 9.078125 8.417969 9.082031 L 7.011719 9.082031 L 7.011719 13.246094 L 7.867188 13.246094 L 7.867188 9.796875 L 8.375 9.792969 C 8.691406 9.792969 8.929688 10.039062 8.929688 10.339844 C 8.929688 10.640625 8.675781 10.882812 8.359375 10.882812 L 8.160156 10.890625 L 8.160156 11.882812 L 9.015625 13.246094 L 10.019531 13.246094 L 8.839844 11.503906 C 9.371094 11.375 9.761719 10.886719 9.761719 10.308594 Z M 10.699219 11.644531 C 10.699219 11.363281 10.925781 11.132812 11.203125 11.132812 C 11.480469 11.132812 11.707031 11.363281 11.707031 11.644531 Z M 11.195312 10.550781 C 10.445312 10.550781 9.835938 11.175781 9.835938 11.945312 C 9.835938 12.714844 10.445312 13.335938 11.195312 13.335938 C 11.769531 13.335938 12.21875 13.074219 12.449219 12.664062 L 11.78125 12.351562 C 11.695312 12.539062 11.496094 12.667969 11.261719 12.667969 C 10.953125 12.667969 10.703125 12.4375 10.703125 12.148438 C 10.703125 12.132812 10.695312 12.140625 10.699219 12.121094 L 12.519531 12.121094 C 12.523438 12.066406 12.527344 12.007812 12.527344 11.945312 C 12.539062 11.046875 11.949219 10.550781 11.195312 10.550781 Z M 24.390625 8.976562 L 24.390625 13.253906 L 25.195312 13.253906 L 25.195312 8.976562 L 24.390625 8.976562 "/>
<path style=" stroke:none;fill-rule:evenodd;fill:rgb(98.039216%,81.960784%,1.960784%);fill-opacity:1;" d="M 21.828125 18.6875 C 21.828125 21.828125 19.25 24.371094 16.074219 24.371094 C 12.894531 24.371094 10.320312 21.828125 10.320312 18.6875 C 10.320312 15.546875 12.894531 13 16.074219 13 C 19.25 13 21.828125 15.546875 21.828125 18.6875 "/>
<g clip-path="url(#clip2)" clip-rule="nonzero">
<path style=" stroke:none;fill-rule:nonzero;fill:rgb(100%,100%,100%);fill-opacity:1;" d="M 21.078125 20.53125 C 21.019531 20.421875 20.820312 20.179688 20.84375 20.023438 C 20.992188 20.042969 21.21875 20.042969 21.300781 20.046875 C 21.273438 20.09375 21.105469 20.476562 21.078125 20.53125 Z M 31.335938 22.222656 C 31.328125 22.175781 31.308594 22.128906 31.292969 22.09375 L 31.28125 22.058594 C 31.269531 22.027344 31.261719 22 31.25 21.972656 C 31.246094 21.957031 31.242188 21.945312 31.238281 21.933594 C 31.238281 21.925781 31.238281 21.917969 31.238281 21.910156 C 31.25 21.746094 31.210938 21.664062 31.144531 21.554688 C 31.097656 21.46875 31.027344 21.433594 30.980469 21.433594 C 30.96875 21.464844 30.9375 21.488281 30.902344 21.488281 C 30.894531 21.488281 30.890625 21.488281 30.886719 21.484375 C 30.839844 21.480469 30.808594 21.433594 30.8125 21.386719 C 30.8125 21.378906 30.816406 21.367188 30.816406 21.351562 C 30.816406 21.308594 30.808594 21.269531 30.785156 21.230469 C 30.730469 21.128906 30.335938 20.808594 30.1875 20.808594 C 30.066406 20.808594 29.9375 20.875 29.84375 20.984375 C 29.828125 21.003906 29.804688 21.015625 29.777344 21.015625 L 29.769531 21.015625 C 29.738281 21.011719 29.714844 20.996094 29.699219 20.972656 C 29.6875 20.945312 29.675781 20.921875 29.664062 20.894531 C 29.640625 20.824219 29.625 20.75 29.609375 20.679688 L 29.597656 20.628906 C 29.554688 20.449219 29.492188 20.265625 29.25 20.195312 C 29.226562 20.1875 29.203125 20.183594 29.171875 20.183594 C 29.144531 20.179688 29.117188 20.179688 29.085938 20.175781 L 29.0625 20.175781 C 29.015625 20.175781 28.964844 20.175781 28.914062 20.167969 C 28.8125 20.152344 28.746094 20.121094 28.746094 20.007812 C 28.746094 20 28.75 19.992188 28.75 19.980469 L 28.777344 19.90625 C 28.796875 19.847656 28.828125 19.761719 28.847656 19.660156 C 28.890625 19.472656 28.894531 19.296875 28.859375 19.144531 C 28.851562 19.117188 28.859375 19.085938 28.878906 19.066406 C 28.894531 19.046875 28.917969 19.039062 28.941406 19.039062 C 28.949219 19.039062 28.953125 19.039062 28.957031 19.039062 C 29.058594 19.054688 29.136719 19.058594 29.160156 19.058594 C 29.683594 19.058594 30.511719 18.71875 30.511719 17.816406 C 30.511719 17.296875 30.085938 16.804688 29.726562 16.480469 C 29.703125 16.460938 29.695312 16.429688 29.703125 16.398438 C 29.710938 16.367188 29.734375 16.34375 29.765625 16.335938 C 30.273438 16.203125 30.550781 15.871094 30.550781 15.398438 L 30.550781 15.363281 C 30.550781 15.289062 30.550781 15.207031 30.539062 15.117188 C 30.515625 14.992188 30.46875 14.875 30.394531 14.761719 C 30.386719 14.746094 30.371094 14.734375 30.34375 14.734375 C 30.335938 14.734375 30.328125 14.738281 30.324219 14.738281 C 30.304688 14.742188 30.28125 14.757812 30.265625 14.765625 C 30.21875 14.796875 30.152344 14.855469 30.097656 14.898438 C 30.035156 14.953125 29.960938 14.992188 29.855469 15.027344 C 29.792969 15.046875 29.726562 15.0625 29.65625 15.082031 C 29.621094 15.09375 29.582031 15.101562 29.542969 15.113281 C 29.300781 15.179688 29.035156 15.277344 28.742188 15.53125 C 28.609375 15.648438 28.515625 15.84375 28.507812 16.027344 C 28.5 16.183594 28.558594 16.34375 28.683594 16.515625 C 28.796875 16.667969 28.941406 16.8125 29.097656 16.957031 L 29.152344 17.007812 C 29.210938 17.0625 29.265625 17.113281 29.316406 17.167969 C 29.398438 17.246094 29.457031 17.308594 29.507812 17.371094 C 29.628906 17.519531 29.6875 17.640625 29.6875 17.753906 C 29.6875 17.996094 29.511719 18.160156 29.246094 18.160156 C 28.949219 18.15625 28.726562 18.046875 28.410156 17.839844 C 28.363281 17.808594 28.3125 17.777344 28.261719 17.742188 C 28.15625 17.671875 28.050781 17.601562 27.929688 17.527344 C 27.710938 17.390625 27.511719 17.285156 27.296875 17.191406 C 27.183594 17.140625 27.070312 17.101562 26.945312 17.066406 C 26.851562 17.042969 26.765625 17.027344 26.683594 17.007812 L 26.640625 17 C 26.449219 16.960938 26.289062 16.921875 26.117188 16.808594 C 26.070312 16.777344 26.019531 16.746094 25.964844 16.710938 C 25.878906 16.648438 25.785156 16.585938 25.691406 16.527344 C 25.507812 16.417969 25.363281 16.347656 25.226562 16.304688 C 25.1875 16.292969 25.144531 16.285156 25.089844 16.277344 C 25.066406 16.273438 25.042969 16.269531 25.019531 16.265625 L 24.960938 16.261719 C 24.878906 16.25 24.804688 16.230469 24.726562 16.1875 C 24.679688 16.160156 24.632812 16.128906 24.578125 16.089844 C 24.542969 16.0625 24.507812 16.035156 24.472656 16.007812 L 24.445312 15.988281 C 24.355469 15.917969 24.253906 15.84375 24.097656 15.757812 C 23.863281 15.632812 23.625 15.570312 23.421875 15.523438 L 23.382812 15.511719 C 23.304688 15.492188 23.238281 15.476562 23.179688 15.460938 C 23.144531 15.449219 23.117188 15.4375 23.101562 15.429688 C 23.085938 15.421875 23.078125 15.414062 23.070312 15.410156 C 23.066406 15.40625 23.0625 15.402344 23.054688 15.394531 C 22.550781 14.769531 21.949219 14.71875 21.773438 14.71875 C 21.734375 14.71875 21.699219 14.722656 21.664062 14.726562 C 21.460938 14.746094 21.21875 14.925781 21.011719 15.09375 C 20.933594 15.15625 20.855469 15.21875 20.777344 15.285156 C 20.621094 15.417969 20.457031 15.558594 20.292969 15.671875 C 19.460938 16.257812 19.15625 16.492188 18.761719 16.917969 C 18.226562 17.496094 18.058594 18.230469 17.910156 18.875 L 17.902344 18.921875 C 17.828125 19.234375 17.753906 19.558594 17.644531 19.859375 C 17.515625 20.207031 17.359375 20.46875 17.152344 20.6875 C 17.050781 20.789062 16.964844 20.871094 16.890625 20.929688 C 16.84375 20.972656 16.804688 20.996094 16.773438 21.019531 L 16.75 21.035156 C 16.664062 21.09375 16.628906 21.175781 16.652344 21.253906 C 16.6875 21.359375 16.820312 21.464844 17.046875 21.46875 C 17.074219 21.46875 17.097656 21.480469 17.113281 21.503906 C 17.128906 21.523438 17.136719 21.550781 17.128906 21.574219 C 17.121094 21.613281 17.128906 21.644531 17.152344 21.675781 C 17.214844 21.757812 17.359375 21.800781 17.445312 21.800781 L 17.480469 21.800781 C 17.878906 21.800781 18.222656 21.65625 18.5 21.371094 C 18.519531 21.355469 18.539062 21.347656 18.5625 21.347656 C 18.585938 21.347656 18.605469 21.355469 18.621094 21.367188 C 18.730469 21.46875 18.875 21.519531 19.058594 21.523438 L 19.078125 21.523438 C 19.160156 21.523438 19.246094 21.515625 19.324219 21.507812 C 19.363281 21.5 19.402344 21.5 19.4375 21.496094 C 19.457031 21.496094 19.476562 21.492188 19.492188 21.492188 C 19.503906 21.492188 19.519531 21.492188 19.53125 21.496094 C 19.578125 21.5 19.636719 21.511719 19.71875 21.542969 C 19.777344 21.558594 19.839844 21.582031 19.902344 21.605469 L 19.957031 21.628906 C 20.078125 21.675781 20.261719 21.742188 20.402344 21.742188 C 20.410156 21.742188 20.417969 21.742188 20.425781 21.742188 C 20.742188 21.722656 20.859375 21.492188 20.902344 21.355469 C 20.914062 21.320312 20.945312 21.296875 20.984375 21.296875 L 20.988281 21.296875 C 21.027344 21.296875 21.058594 21.324219 21.066406 21.363281 C 21.074219 21.394531 21.085938 21.425781 21.09375 21.457031 C 21.144531 21.621094 21.207031 21.730469 21.304688 21.8125 C 21.335938 21.839844 21.371094 21.855469 21.425781 21.863281 C 21.472656 21.871094 21.539062 21.875 21.636719 21.875 C 21.65625 21.875 21.675781 21.882812 21.691406 21.894531 C 21.699219 21.902344 21.714844 21.914062 21.738281 21.9375 C 21.757812 21.957031 21.777344 21.976562 21.800781 21.996094 C 21.816406 22.011719 21.84375 22.03125 21.875 22.042969 C 22.316406 22.191406 22.890625 22.351562 23.179688 22.355469 L 23.1875 22.355469 C 23.582031 22.355469 23.714844 21.984375 23.753906 21.824219 C 23.761719 21.789062 23.789062 21.765625 23.824219 21.757812 C 24.1875 21.6875 24.390625 21.144531 24.386719 21.050781 C 24.386719 20.875 24.316406 20.804688 24.144531 20.792969 L 23.503906 20.792969 C 23.492188 20.792969 23.476562 20.796875 23.460938 20.800781 C 23.453125 20.800781 23.445312 20.800781 23.4375 20.800781 C 23.410156 20.800781 23.382812 20.789062 23.367188 20.761719 C 23.34375 20.726562 23.316406 20.710938 23.273438 20.699219 C 23.242188 20.691406 23.21875 20.667969 23.210938 20.636719 C 23.203125 20.605469 23.214844 20.570312 23.238281 20.550781 C 23.25 20.539062 23.265625 20.527344 23.277344 20.519531 C 23.292969 20.503906 23.3125 20.496094 23.335938 20.496094 L 23.339844 20.496094 C 23.425781 20.5 23.59375 20.503906 23.757812 20.503906 C 23.828125 20.503906 23.898438 20.503906 23.957031 20.5 C 24.085938 20.492188 24.191406 20.480469 24.304688 20.46875 C 24.484375 20.449219 24.667969 20.425781 24.941406 20.425781 L 25.539062 20.460938 C 25.667969 20.460938 25.785156 20.441406 25.886719 20.410156 C 25.894531 20.40625 25.902344 20.40625 25.914062 20.40625 C 25.929688 20.40625 25.945312 20.410156 25.960938 20.421875 C 25.980469 20.433594 25.996094 20.457031 26 20.480469 C 26.039062 20.78125 26.136719 21.042969 26.285156 21.242188 C 26.324219 21.296875 26.371094 21.339844 26.4375 21.382812 C 26.472656 21.40625 26.507812 21.429688 26.542969 21.449219 C 26.566406 21.460938 26.585938 21.476562 26.605469 21.488281 C 26.765625 21.585938 26.960938 21.707031 27.207031 21.707031 C 27.269531 21.707031 27.339844 21.699219 27.40625 21.679688 C 27.480469 21.664062 27.554688 21.652344 27.632812 21.652344 C 27.667969 21.652344 27.707031 21.65625 27.742188 21.660156 C 27.839844 21.671875 27.925781 21.691406 27.996094 21.707031 L 28.015625 21.714844 C 28.128906 21.742188 28.234375 21.785156 28.34375 21.847656 C 28.433594 21.902344 28.507812 21.957031 28.578125 22.011719 L 28.597656 22.023438 C 28.742188 22.132812 28.890625 22.242188 29.097656 22.242188 C 29.105469 22.242188 29.113281 22.242188 29.121094 22.242188 C 29.132812 22.242188 29.152344 22.238281 29.15625 22.238281 C 29.167969 22.234375 29.183594 22.230469 29.199219 22.222656 C 29.226562 22.214844 29.257812 22.199219 29.292969 22.1875 C 29.324219 22.175781 29.363281 22.160156 29.402344 22.152344 C 29.410156 22.152344 29.414062 22.152344 29.421875 22.152344 C 29.449219 22.152344 29.476562 22.164062 29.492188 22.1875 C 29.503906 22.203125 29.511719 22.222656 29.523438 22.238281 C 29.546875 22.273438 29.566406 22.308594 29.59375 22.339844 C 29.675781 22.441406 29.820312 22.578125 30.160156 22.585938 C 30.191406 22.589844 30.21875 22.589844 30.246094 22.589844 C 30.425781 22.589844 30.53125 22.574219 30.582031 22.566406 C 30.585938 22.566406 30.589844 22.566406 30.597656 22.566406 C 30.613281 22.566406 30.632812 22.570312 30.644531 22.582031 C 30.683594 22.605469 30.71875 22.617188 30.761719 22.617188 C 30.855469 22.617188 30.988281 22.589844 31.097656 22.550781 C 31.164062 22.527344 31.21875 22.5 31.257812 22.46875 C 31.308594 22.433594 31.339844 22.390625 31.347656 22.34375 C 31.351562 22.3125 31.347656 22.269531 31.335938 22.222656 M 11.375 20.183594 C 11.316406 20.253906 11.226562 20.277344 11.148438 20.417969 C 10.984375 20.355469 10.957031 20.144531 10.925781 20.054688 C 11.054688 20.03125 11.363281 19.972656 11.523438 19.949219 C 11.457031 20.03125 11.410156 20.085938 11.375 20.183594 Z M 15.222656 20.847656 C 15.0625 20.753906 14.960938 20.613281 14.898438 20.503906 C 14.867188 20.453125 14.839844 20.402344 14.816406 20.355469 L 14.785156 20.300781 C 14.753906 20.238281 14.714844 20.171875 14.667969 20.109375 C 14.648438 20.089844 14.628906 20.066406 14.605469 20.042969 L 14.539062 19.972656 C 14.519531 19.953125 14.5 19.929688 14.484375 19.910156 C 14.46875 19.890625 14.457031 19.875 14.449219 19.859375 C 14.164062 19.132812 14.09375 18.722656 13.992188 17.996094 C 13.9375 17.625 13.707031 17.324219 13.335938 16.871094 C 13.289062 16.8125 13.234375 16.746094 13.179688 16.675781 C 13.140625 16.628906 13.101562 16.578125 13.0625 16.527344 C 12.9375 16.375 12.839844 16.261719 12.761719 16.183594 C 12.625 16.074219 12.507812 15.972656 12.402344 15.882812 C 12.25 15.757812 12.121094 15.648438 12 15.550781 C 11.777344 15.371094 11.601562 15.242188 11.402344 15.109375 C 11.125 14.921875 10.828125 14.828125 10.519531 14.828125 C 10.207031 14.828125 9.976562 14.929688 9.894531 14.980469 C 9.632812 15.160156 9.429688 15.269531 9.207031 15.363281 C 9.042969 15.429688 8.875 15.484375 8.660156 15.554688 C 8.589844 15.574219 8.519531 15.597656 8.4375 15.625 C 8.195312 15.707031 8.023438 15.847656 7.898438 15.957031 C 7.871094 15.984375 7.839844 16.011719 7.816406 16.039062 C 7.785156 16.066406 7.757812 16.09375 7.730469 16.121094 C 7.675781 16.167969 7.636719 16.195312 7.601562 16.207031 C 7.5625 16.222656 7.503906 16.230469 7.417969 16.234375 C 7.375 16.238281 7.328125 16.242188 7.28125 16.242188 C 7.25 16.246094 7.214844 16.246094 7.183594 16.246094 C 6.90625 16.265625 6.679688 16.417969 6.539062 16.535156 C 6.460938 16.59375 6.390625 16.660156 6.324219 16.71875 L 6.292969 16.75 C 6.207031 16.824219 6.148438 16.875 6.089844 16.914062 C 5.890625 17.039062 5.703125 17.058594 5.496094 17.078125 C 5.390625 17.089844 5.28125 17.097656 5.164062 17.121094 C 5.027344 17.152344 4.894531 17.195312 4.761719 17.253906 C 4.613281 17.324219 4.464844 17.414062 4.277344 17.539062 C 4.195312 17.597656 4.117188 17.652344 4.039062 17.710938 C 3.96875 17.761719 3.902344 17.808594 3.832031 17.859375 C 3.523438 18.070312 3.257812 18.214844 2.972656 18.214844 C 2.6875 18.214844 2.484375 18.050781 2.457031 17.796875 C 2.433594 17.570312 2.550781 17.347656 2.785156 17.160156 L 2.914062 17.054688 C 3.011719 16.980469 3.101562 16.910156 3.183594 16.839844 C 3.316406 16.722656 3.410156 16.632812 3.480469 16.539062 C 3.660156 16.308594 3.703125 16.074219 3.628906 15.773438 C 3.558594 15.503906 3.347656 15.320312 2.988281 15.214844 C 2.855469 15.175781 2.726562 15.152344 2.601562 15.132812 L 2.558594 15.125 C 2.519531 15.121094 2.488281 15.113281 2.457031 15.109375 C 2.417969 15.101562 2.390625 15.09375 2.375 15.089844 C 2.175781 15 1.75 14.71875 1.664062 14.660156 L 1.628906 14.636719 L 1.605469 14.671875 C 1.527344 14.785156 1.464844 14.871094 1.417969 15.257812 C 1.367188 15.683594 1.722656 16.203125 2.332031 16.296875 C 2.367188 16.300781 2.394531 16.328125 2.402344 16.359375 C 2.410156 16.390625 2.398438 16.425781 2.371094 16.449219 C 1.726562 16.949219 1.585938 17.167969 1.554688 17.730469 C 1.535156 18.082031 1.65625 18.421875 1.894531 18.671875 C 2.152344 18.945312 2.527344 19.085938 2.980469 19.085938 C 3.101562 19.085938 3.226562 19.078125 3.359375 19.058594 C 3.363281 19.054688 3.367188 19.054688 3.371094 19.054688 C 3.390625 19.054688 3.410156 19.0625 3.425781 19.074219 C 3.445312 19.089844 3.457031 19.109375 3.457031 19.136719 C 3.488281 19.527344 3.558594 19.847656 3.648438 19.988281 C 3.671875 20.023438 3.667969 20.070312 3.636719 20.097656 C 3.609375 20.121094 3.5625 20.148438 3.507812 20.167969 C 3.371094 20.222656 3.160156 20.253906 2.953125 20.253906 C 2.824219 20.253906 2.726562 20.34375 2.648438 20.53125 C 2.621094 20.59375 2.601562 20.660156 2.582031 20.722656 L 2.578125 20.742188 C 2.566406 20.773438 2.554688 20.804688 2.546875 20.828125 C 2.539062 20.855469 2.527344 20.878906 2.519531 20.894531 C 2.492188 20.941406 2.453125 20.984375 2.398438 21.035156 C 2.382812 21.046875 2.363281 21.054688 2.34375 21.054688 C 2.339844 21.054688 2.332031 21.054688 2.328125 21.054688 C 2.300781 21.046875 2.28125 21.035156 2.265625 21.011719 C 2.203125 20.894531 2.101562 20.824219 1.96875 20.796875 L 1.964844 20.796875 L 1.953125 20.792969 C 1.753906 20.792969 1.410156 20.960938 1.285156 21.273438 C 1.273438 21.300781 1.246094 21.320312 1.214844 21.324219 L 1.199219 21.328125 C 1.039062 21.34375 0.941406 21.414062 0.882812 21.554688 C 0.859375 21.613281 0.847656 21.679688 0.835938 21.738281 L 0.828125 21.78125 C 0.816406 21.828125 0.808594 21.875 0.796875 21.921875 C 0.785156 21.960938 0.773438 21.996094 0.75 22.03125 C 0.742188 22.050781 0.730469 22.066406 0.722656 22.082031 C 0.714844 22.09375 0.707031 22.105469 0.699219 22.117188 C 0.664062 22.179688 0.648438 22.246094 0.675781 22.359375 C 0.6875 22.410156 0.730469 22.453125 0.796875 22.488281 C 0.847656 22.515625 0.910156 22.539062 0.988281 22.558594 C 1.125 22.589844 1.261719 22.601562 1.289062 22.601562 C 1.308594 22.601562 1.328125 22.59375 1.34375 22.585938 C 1.359375 22.578125 1.371094 22.570312 1.386719 22.558594 C 1.402344 22.546875 1.421875 22.539062 1.441406 22.539062 C 1.449219 22.539062 1.453125 22.539062 1.457031 22.539062 L 1.519531 22.550781 C 1.574219 22.5625 1.640625 22.574219 1.707031 22.585938 L 1.714844 22.589844 C 1.777344 22.601562 1.839844 22.613281 1.890625 22.625 C 1.917969 22.628906 1.941406 22.632812 1.957031 22.636719 C 1.980469 22.636719 1.996094 22.640625 2.003906 22.640625 C 2.277344 22.628906 2.394531 22.523438 2.46875 22.421875 C 2.492188 22.394531 2.511719 22.363281 2.53125 22.332031 L 2.5625 22.28125 L 2.582031 22.242188 C 2.605469 22.203125 2.628906 22.167969 2.652344 22.136719 C 2.667969 22.113281 2.695312 22.101562 2.722656 22.101562 C 2.730469 22.101562 2.738281 22.101562 2.746094 22.101562 C 2.777344 22.113281 2.808594 22.117188 2.835938 22.121094 C 2.898438 22.132812 2.957031 22.136719 2.980469 22.140625 C 3 22.140625 3.015625 22.140625 3.035156 22.140625 C 3.292969 22.140625 3.484375 22 3.644531 21.867188 L 3.695312 21.820312 C 3.71875 21.800781 3.742188 21.78125 3.769531 21.761719 C 3.800781 21.734375 3.84375 21.699219 3.886719 21.671875 C 3.960938 21.621094 4.027344 21.597656 4.09375 21.597656 L 4.109375 21.597656 C 4.171875 21.601562 4.402344 21.617188 4.800781 21.679688 C 4.816406 21.683594 4.832031 21.683594 4.851562 21.683594 C 4.941406 21.683594 5.054688 21.65625 5.191406 21.59375 C 5.285156 21.550781 5.398438 21.492188 5.511719 21.421875 C 5.535156 21.40625 5.566406 21.394531 5.601562 21.378906 L 5.609375 21.371094 C 5.644531 21.359375 5.675781 21.34375 5.710938 21.324219 C 5.777344 21.292969 5.871094 21.238281 5.949219 21.144531 C 5.996094 21.085938 6.054688 20.96875 6.113281 20.851562 L 6.179688 20.71875 C 6.214844 20.648438 6.253906 20.570312 6.289062 20.496094 C 6.304688 20.464844 6.335938 20.445312 6.371094 20.445312 L 6.394531 20.445312 C 6.515625 20.445312 6.664062 20.429688 6.792969 20.410156 C 6.847656 20.402344 6.902344 20.394531 6.957031 20.386719 C 7.074219 20.367188 7.175781 20.351562 7.25 20.347656 C 7.269531 20.347656 7.320312 20.351562 7.386719 20.355469 L 7.546875 20.367188 C 7.742188 20.378906 7.902344 20.382812 8.039062 20.382812 C 8.117188 20.382812 8.1875 20.382812 8.246094 20.378906 C 8.351562 20.371094 8.449219 20.355469 8.527344 20.332031 C 8.546875 20.324219 8.574219 20.316406 8.597656 20.304688 C 8.605469 20.300781 8.621094 20.300781 8.632812 20.300781 C 8.652344 20.300781 8.675781 20.308594 8.691406 20.324219 C 8.734375 20.367188 8.78125 20.40625 8.828125 20.449219 C 8.855469 20.46875 8.863281 20.507812 8.851562 20.539062 C 8.839844 20.570312 8.8125 20.59375 8.777344 20.597656 C 8.757812 20.597656 8.742188 20.601562 8.726562 20.601562 C 8.671875 20.609375 8.570312 20.632812 8.519531 20.695312 C 8.503906 20.71875 8.476562 20.730469 8.453125 20.730469 C 8.4375 20.730469 8.425781 20.726562 8.417969 20.722656 C 8.402344 20.71875 8.394531 20.714844 8.378906 20.710938 C 8.351562 20.703125 8.328125 20.703125 8.304688 20.699219 L 8.265625 20.699219 L 8.222656 20.703125 L 8.195312 20.703125 C 8.117188 20.703125 7.933594 20.703125 7.773438 20.726562 C 7.675781 20.742188 7.597656 20.765625 7.542969 20.796875 C 7.492188 20.828125 7.429688 20.878906 7.4375 20.964844 C 7.445312 21.128906 7.675781 21.5625 7.832031 21.71875 C 7.863281 21.75 7.964844 21.78125 8.078125 21.78125 C 8.089844 21.78125 8.101562 21.78125 8.117188 21.78125 L 8.121094 21.78125 C 8.152344 21.78125 8.183594 21.796875 8.199219 21.828125 C 8.359375 22.136719 8.636719 22.347656 8.890625 22.347656 L 8.90625 22.347656 C 9.148438 22.339844 9.800781 22.105469 10.257812 21.894531 C 10.261719 21.890625 10.265625 21.890625 10.273438 21.886719 C 10.289062 21.886719 10.304688 21.882812 10.324219 21.878906 C 10.351562 21.875 10.378906 21.871094 10.414062 21.871094 L 10.460938 21.863281 C 10.558594 21.851562 10.675781 21.835938 10.757812 21.792969 C 10.835938 21.757812 10.945312 21.617188 11.042969 21.433594 C 11.058594 21.40625 11.089844 21.386719 11.121094 21.386719 C 11.125 21.386719 11.125 21.386719 11.128906 21.386719 C 11.164062 21.390625 11.195312 21.414062 11.203125 21.449219 C 11.214844 21.484375 11.226562 21.515625 11.242188 21.546875 C 11.320312 21.691406 11.460938 21.765625 11.65625 21.765625 C 11.667969 21.765625 11.679688 21.765625 11.6875 21.765625 C 11.824219 21.757812 11.972656 21.714844 12.101562 21.671875 L 12.175781 21.648438 C 12.285156 21.613281 12.390625 21.578125 12.488281 21.5625 C 12.523438 21.554688 12.5625 21.550781 12.609375 21.550781 C 12.628906 21.550781 12.652344 21.550781 12.671875 21.554688 C 12.714844 21.554688 12.753906 21.558594 12.796875 21.5625 C 12.824219 21.566406 12.855469 21.566406 12.882812 21.570312 C 12.921875 21.570312 12.964844 21.574219 13.007812 21.574219 C 13.125 21.574219 13.21875 21.554688 13.304688 21.515625 C 13.425781 21.464844 13.519531 21.398438 13.582031 21.355469 L 13.605469 21.339844 C 13.621094 21.328125 13.636719 21.320312 13.65625 21.320312 C 13.675781 21.320312 13.695312 21.328125 13.714844 21.34375 C 13.882812 21.492188 14.253906 21.746094 14.792969 21.746094 C 14.8125 21.746094 14.832031 21.746094 14.847656 21.746094 C 14.976562 21.742188 15.078125 21.699219 15.132812 21.625 C 15.171875 21.578125 15.183594 21.519531 15.167969 21.460938 C 15.160156 21.441406 15.164062 21.414062 15.175781 21.394531 C 15.191406 21.375 15.210938 21.359375 15.234375 21.355469 C 15.324219 21.339844 15.394531 21.308594 15.449219 21.261719 C 15.496094 21.222656 15.527344 21.160156 15.527344 21.105469 C 15.527344 21.070312 15.515625 21.042969 15.488281 21.015625 C 15.429688 20.960938 15.394531 20.941406 15.222656 20.847656 "/>
</g>
<path style=" stroke:none;fill-rule:nonzero;fill:rgb(100%,100%,100%);fill-opacity:1;" d="M 13.175781 15.277344 C 13.175781 13.703125 14.464844 12.429688 16.058594 12.429688 C 17.648438 12.429688 18.941406 13.703125 18.941406 15.277344 C 18.941406 16.851562 17.648438 18.125 16.058594 18.125 C 14.464844 18.125 13.175781 16.851562 13.175781 15.277344 "/>
<path style=" stroke:none;fill-rule:nonzero;fill:rgb(81.960784%,81.960784%,81.960784%);fill-opacity:1;" d="M 13.890625 16.8125 C 14.730469 17.414062 15.917969 17.507812 16.84375 17.019531 C 17.847656 16.503906 18.457031 15.445312 18.363281 14.300781 C 18.347656 14.136719 18.320312 13.972656 18.277344 13.816406 C 18.558594 14.238281 18.722656 14.738281 18.722656 15.277344 C 18.722656 16.734375 17.53125 17.914062 16.058594 17.914062 C 15.164062 17.914062 14.375 17.480469 13.890625 16.8125 "/>
<path style=" stroke:none;fill-rule:evenodd;fill:rgb(2.745098%,10.980392%,22.745098%);fill-opacity:1;" d="M 15.273438 15.9375 C 14.648438 15.789062 14.222656 15.636719 14.222656 15.636719 C 14.15625 15.003906 14.210938 14.449219 14.210938 14.449219 C 14.480469 14.308594 15.214844 13.988281 15.214844 13.988281 C 15.5625 14.378906 15.894531 14.898438 15.894531 14.898438 C 15.734375 15.207031 15.273438 15.9375 15.273438 15.9375 Z M 14.242188 13.347656 C 14.179688 13.449219 14 13.753906 13.832031 14.113281 C 13.675781 14.308594 13.542969 14.503906 13.484375 14.589844 C 13.617188 14.105469 13.882812 13.679688 14.242188 13.347656 Z M 17.042969 14.878906 C 17.042969 14.878906 17.273438 14.398438 17.554688 14.007812 C 17.554688 14.007812 18.097656 14.257812 18.347656 14.464844 C 18.347656 14.464844 18.441406 14.75 18.382812 15.59375 C 18.382812 15.59375 18.058594 15.777344 17.59375 15.890625 C 17.59375 15.890625 17.273438 15.363281 17.042969 14.878906 Z M 15.832031 16.855469 L 16.984375 16.824219 L 17.207031 17.445312 C 16.773438 17.699219 16.246094 17.835938 16.246094 17.835938 C 15.695312 17.714844 15.378906 17.480469 15.378906 17.480469 Z M 16.058594 12.644531 C 16.410156 12.644531 16.746094 12.710938 17.050781 12.832031 C 17.042969 12.882812 17.003906 13.019531 16.898438 13.195312 C 16.339844 13.125 15.722656 13.179688 15.722656 13.179688 L 15.210938 12.78125 C 15.476562 12.691406 15.761719 12.644531 16.058594 12.644531 Z M 14.347656 17.300781 C 13.90625 16.9375 13.585938 16.433594 13.457031 15.859375 C 13.597656 16.003906 13.875 16.285156 13.875 16.285156 C 14.042969 16.625 14.457031 17.214844 14.457031 17.214844 C 14.425781 17.246094 14.378906 17.28125 14.347656 17.300781 "/>
<path style=" stroke:none;fill-rule:evenodd;fill:rgb(2.745098%,10.980392%,22.745098%);fill-opacity:1;" d="M 11.402344 28.34375 L 12.496094 28.863281 L 13.023438 27.785156 L 12.660156 27.609375 L 12.308594 28.328125 L 11.941406 28.15625 L 13.464844 25.042969 L 13.097656 24.871094 Z M 14.167969 26.609375 L 14.566406 26.675781 L 14.710938 25.890625 L 15.097656 25.960938 L 13.765625 28.828125 L 13.695312 29.222656 L 14.886719 29.433594 L 15.101562 28.253906 L 14.703125 28.183594 L 14.5625 28.972656 L 14.171875 28.902344 L 15.507812 26.03125 L 15.578125 25.640625 L 14.382812 25.425781 Z M 11.664062 24.441406 L 11.980469 24.691406 L 11.148438 25.734375 L 10.832031 25.488281 Z M 9.179688 26.914062 L 9.5 27.160156 L 10.582031 25.800781 L 10.898438 26.046875 L 9.816406 27.40625 L 10.136719 27.652344 L 12.195312 25.070312 C 12.398438 24.808594 12.355469 24.429688 12.09375 24.226562 C 11.832031 24.023438 11.445312 24.070312 11.238281 24.328125 Z M 16.792969 29.484375 L 17.597656 29.390625 C 17.820312 29.363281 17.976562 29.167969 17.949219 28.945312 L 17.8125 27.78125 C 17.78125 27.546875 17.691406 27.476562 17.589844 27.449219 C 17.679688 27.382812 17.753906 27.304688 17.730469 27.121094 L 17.585938 25.910156 C 17.558594 25.691406 17.359375 25.535156 17.136719 25.5625 L 16.332031 25.65625 Z M 16.78125 26.003906 L 17.183594 25.957031 L 17.34375 27.277344 L 16.941406 27.324219 Z M 16.988281 27.722656 L 17.390625 27.671875 L 17.550781 28.992188 L 17.148438 29.039062 Z M 19.199219 24.886719 L 18.824219 25.035156 L 20.121094 28.246094 L 19.746094 28.394531 L 18.449219 25.183594 L 18.074219 25.332031 L 19.308594 28.386719 C 19.433594 28.695312 19.789062 28.84375 20.097656 28.722656 C 20.40625 28.597656 20.558594 28.25 20.433594 27.941406 Z M 21.988281 27.6875 L 22.316406 27.457031 L 21.292969 26.054688 L 21.621094 25.820312 L 22.476562 26.988281 C 22.535156 27.066406 22.632812 27.128906 22.714844 27.171875 L 23.054688 26.929688 C 22.953125 26.882812 22.867188 26.84375 22.804688 26.753906 L 22.042969 25.710938 C 21.902344 25.519531 21.789062 25.5 21.6875 25.527344 C 21.734375 25.425781 21.757812 25.324219 21.648438 25.171875 L 20.925781 24.183594 C 20.796875 24.003906 20.542969 23.964844 20.363281 24.09375 L 19.707031 24.5625 Z M 20.269531 24.652344 L 20.597656 24.417969 L 21.386719 25.496094 L 21.058594 25.730469 Z M 23.617188 25.414062 C 23.878906 25.621094 24.261719 25.574219 24.46875 25.316406 C 24.671875 25.058594 24.628906 24.675781 24.367188 24.472656 L 23.125 23.507812 L 22.765625 23.957031 L 23.082031 24.207031 L 23.191406 24.070312 L 24.25 24.890625 L 24 25.207031 L 21.566406 23.316406 L 21.816406 23 L 22.296875 23.375 L 22.546875 23.058594 L 22.203125 22.789062 C 21.9375 22.585938 21.554688 22.632812 21.347656 22.890625 C 21.144531 23.148438 21.1875 23.527344 21.449219 23.734375 Z M 10.980469 23.03125 C 11.085938 23.25 11.027344 23.546875 10.863281 23.71875 L 10.4375 24.058594 L 10.1875 23.738281 C 10.339844 23.601562 10.515625 23.484375 10.675781 23.351562 L 10.433594 23.035156 L 9.359375 23.847656 C 9.488281 24.078125 9.769531 24.265625 9.660156 24.558594 L 9.640625 24.660156 L 8.492188 25.535156 C 8.34375 25.617188 8.140625 25.621094 7.976562 25.558594 C 7.785156 25.484375 7.636719 25.289062 7.605469 25.097656 C 7.570312 24.871094 7.652344 24.65625 7.828125 24.5 C 7.945312 24.410156 8.070312 24.320312 8.191406 24.222656 C 8.28125 24.324219 8.359375 24.4375 8.4375 24.550781 C 8.28125 24.679688 8.117188 24.796875 7.957031 24.921875 L 8.195312 25.246094 C 8.550781 24.984375 8.910156 24.699219 9.273438 24.425781 C 9.125 24.1875 8.800781 23.949219 9.003906 23.640625 L 9.089844 23.535156 L 10.132812 22.75 C 10.300781 22.648438 10.554688 22.660156 10.71875 22.753906 C 10.824219 22.816406 10.929688 22.925781 10.980469 23.03125 "/>
<path style=" stroke:none;fill-rule:nonzero;fill:rgb(89.019608%,6.666667%,27.843137%);fill-opacity:1;" d="M 13.683594 19.414062 C 13.683594 19.417969 13.667969 19.457031 13.667969 19.457031 C 13.667969 19.457031 13.65625 19.5 13.65625 19.5 C 13.640625 19.539062 13.617188 19.558594 13.582031 19.566406 C 13.5625 19.574219 13.542969 19.570312 13.527344 19.558594 C 13.511719 19.546875 13.503906 19.53125 13.503906 19.507812 C 13.503906 19.507812 13.5 19.464844 13.5 19.464844 L 13.484375 19.3125 C 13.472656 19.242188 13.453125 19.1875 13.417969 19.140625 C 13.417969 19.136719 13.351562 19.0625 13.351562 19.0625 C 13.347656 19.058594 13.273438 18.976562 13.273438 18.976562 C 13.214844 18.917969 13.160156 18.890625 13.105469 18.886719 C 13.0625 18.902344 13.023438 18.929688 12.980469 18.972656 L 12.929688 19.039062 L 12.882812 19.101562 C 12.863281 19.128906 12.828125 19.113281 12.828125 19.113281 C 12.828125 19.113281 12.824219 19.113281 12.820312 19.109375 C 12.820312 19.105469 12.816406 19.105469 12.816406 19.105469 C 12.804688 19.074219 12.800781 19.042969 12.800781 19.019531 C 12.800781 18.96875 12.816406 18.929688 12.828125 18.894531 L 12.871094 18.8125 L 12.917969 18.710938 L 12.921875 18.703125 C 12.9375 18.691406 12.949219 18.664062 12.964844 18.625 L 12.980469 18.59375 L 13.007812 18.523438 C 13.046875 18.433594 13.109375 18.410156 13.199219 18.449219 C 13.269531 18.484375 13.3125 18.546875 13.347656 18.597656 L 13.371094 18.632812 L 13.398438 18.679688 L 13.457031 18.757812 C 13.621094 18.9375 13.699219 19.105469 13.699219 19.28125 C 13.699219 19.324219 13.695312 19.367188 13.683594 19.414062 Z M 13.066406 20.765625 C 13.066406 20.765625 13.066406 20.769531 13.066406 20.769531 C 13.066406 20.769531 13.0625 20.769531 13.0625 20.769531 C 12.96875 20.796875 12.863281 20.8125 12.75 20.804688 L 12.742188 20.804688 L 12.722656 20.792969 C 12.71875 20.792969 12.699219 20.78125 12.699219 20.78125 C 12.6875 20.773438 12.671875 20.753906 12.679688 20.726562 C 12.722656 20.597656 12.851562 20.449219 13.015625 20.414062 L 13.054688 20.414062 L 13.089844 20.417969 C 13.109375 20.421875 13.136719 20.4375 13.144531 20.480469 C 13.148438 20.503906 13.152344 20.53125 13.152344 20.558594 C 13.152344 20.632812 13.132812 20.71875 13.066406 20.765625 Z M 11.152344 17.492188 C 11.144531 17.488281 11.140625 17.488281 11.140625 17.488281 C 11.140625 17.488281 11.140625 17.492188 11.136719 17.492188 C 11.136719 17.496094 11.136719 17.496094 11.136719 17.496094 C 11.121094 17.511719 11.09375 17.519531 11.070312 17.503906 C 11.070312 17.503906 11.066406 17.5 11.0625 17.5 C 11.0625 17.496094 11.0625 17.492188 11.0625 17.492188 C 11.023438 17.292969 10.976562 17.082031 10.894531 16.890625 L 10.851562 16.808594 L 10.832031 16.785156 L 10.792969 16.726562 C 10.761719 16.679688 10.730469 16.609375 10.773438 16.53125 L 10.777344 16.523438 C 10.8125 16.488281 10.878906 16.484375 10.921875 16.5 L 10.925781 16.503906 C 11.011719 16.5625 11.070312 16.660156 11.109375 16.730469 C 11.160156 16.847656 11.1875 16.992188 11.1875 17.144531 C 11.1875 17.257812 11.171875 17.378906 11.140625 17.488281 C 11.140625 17.488281 11.144531 17.488281 11.152344 17.492188 Z M 15.097656 20.988281 C 14.796875 20.816406 14.675781 20.488281 14.488281 20.230469 C 14.425781 20.136719 14.308594 20.074219 14.25 19.980469 C 14.03125 19.398438 13.847656 18.820312 13.789062 18.152344 C 13.746094 17.988281 13.710938 17.820312 13.621094 17.667969 C 13.347656 17.230469 12.996094 16.832031 12.65625 16.429688 C 12.625 16.398438 12.625 16.398438 12.558594 16.335938 L 11.367188 15.359375 C 11.222656 15.246094 11.054688 15.179688 10.890625 15.105469 C 10.640625 15.007812 10.296875 15.03125 10.050781 15.132812 C 9.796875 15.269531 9.5625 15.460938 9.292969 15.550781 C 8.902344 15.726562 8.457031 15.757812 8.121094 16.058594 C 7.925781 16.226562 7.757812 16.488281 7.46875 16.445312 C 7.140625 16.429688 6.847656 16.550781 6.605469 16.75 C 6.382812 16.945312 6.171875 17.179688 5.882812 17.234375 C 5.632812 17.339844 5.328125 17.289062 5.070312 17.382812 C 4.664062 17.484375 4.339844 17.800781 3.996094 18.042969 C 3.648438 18.242188 3.316406 18.457031 2.882812 18.445312 C 2.601562 18.425781 2.332031 18.234375 2.242188 17.964844 C 2.15625 17.65625 2.25 17.339844 2.496094 17.128906 C 2.753906 16.828125 3.160156 16.648438 3.363281 16.300781 C 3.46875 16.117188 3.453125 15.820312 3.3125 15.644531 C 3.046875 15.371094 2.664062 15.363281 2.316406 15.277344 C 2.09375 15.21875 1.925781 15.050781 1.726562 14.945312 C 1.652344 15.058594 1.628906 15.183594 1.636719 15.324219 C 1.679688 15.636719 1.917969 15.917969 2.222656 16.027344 C 2.394531 16.101562 2.597656 16.046875 2.777344 16.085938 C 2.828125 16.105469 2.878906 16.15625 2.882812 16.210938 C 2.875 16.261719 2.867188 16.3125 2.824219 16.34375 C 2.542969 16.578125 2.246094 16.800781 2.011719 17.089844 C 1.757812 17.359375 1.726562 17.832031 1.859375 18.167969 C 2.003906 18.554688 2.410156 18.808594 2.804688 18.859375 C 3.089844 18.902344 3.347656 18.828125 3.609375 18.773438 C 3.644531 18.773438 3.65625 18.808594 3.671875 18.828125 C 3.699219 19.058594 3.664062 19.261719 3.714844 19.46875 C 3.757812 19.664062 3.824219 19.796875 3.894531 19.984375 C 3.90625 20.050781 3.894531 20.121094 3.847656 20.167969 C 3.703125 20.277344 3.550781 20.355469 3.390625 20.421875 L 3 20.449219 L 2.925781 20.484375 C 2.777344 20.652344 2.773438 20.824219 2.683594 21.015625 C 2.5625 21.214844 2.339844 21.308594 2.15625 21.421875 C 2.09375 21.515625 2.03125 21.617188 1.945312 21.691406 C 1.878906 21.75 1.796875 21.765625 1.714844 21.773438 C 1.578125 21.929688 1.546875 22.140625 1.511719 22.351562 C 1.734375 22.371094 1.964844 22.488281 2.179688 22.371094 C 2.367188 22.285156 2.40625 22.0625 2.546875 21.929688 C 2.65625 21.808594 2.824219 21.898438 2.953125 21.921875 C 3.148438 21.933594 3.289062 21.792969 3.457031 21.730469 C 3.574219 21.65625 3.667969 21.527344 3.789062 21.453125 C 4.019531 21.34375 4.339844 21.402344 4.582031 21.445312 C 4.773438 21.496094 4.976562 21.464844 5.140625 21.390625 C 5.296875 21.296875 5.441406 21.179688 5.617188 21.140625 C 5.773438 21.058594 5.847656 20.886719 5.914062 20.742188 C 5.964844 20.605469 6.097656 20.503906 6.085938 20.347656 C 6.046875 20.3125 6 20.238281 5.941406 20.242188 C 5.863281 20.347656 5.808594 20.457031 5.722656 20.558594 C 5.359375 21.046875 5.074219 21.09375 4.335938 21.09375 C 3.789062 21.074219 3.296875 21.238281 2.917969 21.660156 C 2.894531 21.675781 2.859375 21.664062 2.839844 21.644531 C 2.824219 21.585938 2.875 21.488281 2.898438 21.441406 C 3.234375 20.96875 3.757812 20.863281 4.3125 20.851562 C 4.613281 20.832031 4.898438 20.78125 5.15625 20.652344 C 5.441406 20.507812 5.636719 20.285156 5.757812 20.007812 C 5.824219 19.691406 5.847656 19.355469 5.929688 19.058594 C 5.941406 19.027344 6.015625 19.003906 6.039062 19.015625 C 6.070312 19.019531 6.128906 19.046875 6.128906 19.082031 C 6.074219 19.390625 5.976562 19.753906 6.097656 20.050781 C 6.335938 20.363281 6.785156 20.195312 7.109375 20.179688 C 7.453125 20.148438 7.726562 20.175781 8.054688 20.195312 C 8.214844 20.191406 8.335938 20.230469 8.460938 20.132812 C 8.496094 20.074219 8.507812 20.003906 8.5 19.941406 C 8.488281 19.851562 8.414062 19.800781 8.5 19.726562 C 8.523438 19.703125 8.597656 19.71875 8.617188 19.742188 C 8.664062 19.867188 8.683594 20 8.765625 20.109375 C 8.925781 20.3125 9.160156 20.472656 9.382812 20.585938 C 9.59375 20.730469 9.769531 20.933594 9.785156 21.1875 C 9.785156 21.316406 9.664062 21.40625 9.5625 21.464844 C 9.394531 21.550781 9.207031 21.621094 9.003906 21.601562 C 8.738281 21.472656 8.667969 21.191406 8.492188 20.988281 C 8.402344 20.890625 8.265625 20.871094 8.132812 20.878906 C 7.984375 20.894531 7.839844 20.898438 7.710938 20.945312 C 7.671875 20.976562 7.664062 21.019531 7.667969 21.0625 C 7.757812 21.226562 7.859375 21.386719 7.960938 21.550781 C 8.074219 21.621094 8.238281 21.511719 8.335938 21.636719 C 8.421875 21.765625 8.476562 21.917969 8.609375 22.019531 C 8.734375 22.125 8.925781 22.175781 9.089844 22.105469 C 9.464844 21.992188 9.835938 21.875 10.179688 21.691406 L 10.296875 21.691406 C 10.4375 21.675781 10.59375 21.683594 10.695312 21.582031 C 10.804688 21.421875 10.894531 21.273438 10.980469 21.105469 C 11.066406 20.988281 11.027344 20.816406 10.992188 20.691406 C 10.820312 20.484375 10.726562 20.25 10.632812 20.011719 C 10.550781 19.984375 10.472656 19.9375 10.378906 19.941406 C 10.332031 19.960938 10.265625 19.949219 10.242188 20 L 10.640625 20.777344 C 10.664062 20.835938 10.695312 20.917969 10.679688 21 C 10.625 21.164062 10.539062 21.320312 10.402344 21.441406 C 10.378906 21.457031 10.347656 21.472656 10.328125 21.4375 C 10.371094 21.269531 10.453125 21.082031 10.441406 20.890625 L 10.054688 20.199219 C 10.011719 20.105469 9.929688 20.019531 9.9375 19.910156 C 9.9375 19.863281 9.980469 19.828125 10.019531 19.808594 C 10.191406 19.753906 10.398438 19.761719 10.527344 19.628906 C 10.699219 19.363281 10.734375 19.105469 10.78125 18.792969 C 10.789062 18.773438 10.832031 18.734375 10.859375 18.734375 C 10.890625 18.726562 10.925781 18.769531 10.941406 18.785156 C 10.992188 19.125 10.921875 19.472656 10.71875 19.742188 C 10.710938 19.777344 10.695312 19.820312 10.734375 19.847656 C 10.925781 19.90625 11.128906 19.847656 11.289062 19.761719 C 11.492188 19.769531 11.683594 19.71875 11.871094 19.6875 C 11.890625 19.699219 11.910156 19.71875 11.910156 19.738281 C 11.785156 19.875 11.714844 20.03125 11.679688 20.210938 C 11.527344 20.363281 11.3125 20.496094 11.296875 20.722656 C 11.324219 20.832031 11.417969 20.726562 11.484375 20.734375 C 11.515625 20.742188 11.535156 20.765625 11.535156 20.796875 L 11.382812 21.015625 C 11.300781 21.144531 11.398438 21.292969 11.398438 21.417969 C 11.433594 21.515625 11.554688 21.566406 11.660156 21.566406 C 11.886719 21.554688 12.085938 21.472656 12.289062 21.402344 C 12.507812 21.308594 12.785156 21.3125 13.027344 21.351562 C 13.261719 21.335938 13.4375 21.183594 13.613281 21.027344 C 13.710938 21.027344 13.796875 21.09375 13.859375 21.164062 C 14.132812 21.453125 14.484375 21.574219 14.882812 21.566406 L 14.917969 21.546875 C 14.941406 21.519531 14.929688 21.476562 14.902344 21.457031 L 14.664062 21.335938 C 14.5 21.234375 14.292969 21.09375 14.238281 20.910156 C 14.1875 20.746094 14.097656 20.566406 13.996094 20.410156 C 13.960938 20.328125 13.882812 20.265625 13.847656 20.183594 C 13.855469 20.175781 13.867188 20.160156 13.882812 20.164062 C 14.140625 20.253906 14.296875 20.507812 14.417969 20.734375 C 14.609375 21 14.886719 21.222656 15.246094 21.164062 L 15.277344 21.140625 C 15.292969 21.117188 15.289062 21.09375 15.277344 21.078125 L 15.097656 20.988281 "/>
<path style=" stroke:none;fill-rule:nonzero;fill:rgb(89.019608%,6.666667%,27.843137%);fill-opacity:1;" d="M 1.753906 21.539062 C 1.910156 21.449219 2.011719 21.28125 2.089844 21.136719 C 2.074219 21.082031 2.019531 21.042969 1.972656 21.003906 C 1.945312 20.980469 1.898438 21 1.863281 21.007812 C 1.753906 21.101562 1.636719 21.179688 1.515625 21.253906 C 1.46875 21.289062 1.488281 21.363281 1.476562 21.417969 C 1.476562 21.464844 1.539062 21.5 1.566406 21.53125 C 1.621094 21.554688 1.691406 21.558594 1.753906 21.539062 "/>
<path style=" stroke:none;fill-rule:nonzero;fill:rgb(89.019608%,6.666667%,27.843137%);fill-opacity:1;" d="M 1.226562 21.554688 C 1.144531 21.59375 1.058594 21.667969 1.039062 21.757812 C 1.015625 21.917969 1.050781 22.066406 0.925781 22.179688 C 0.917969 22.210938 0.890625 22.246094 0.917969 22.273438 C 1.03125 22.308594 1.136719 22.355469 1.269531 22.371094 C 1.332031 22.175781 1.375 21.960938 1.445312 21.792969 L 1.445312 21.742188 C 1.386719 21.667969 1.328125 21.574219 1.226562 21.554688 "/>
<path style=" stroke:none;fill-rule:nonzero;fill:rgb(89.019608%,6.666667%,27.843137%);fill-opacity:1;" d="M 8.851562 21.027344 C 8.949219 21.136719 8.945312 21.308594 9.0625 21.390625 C 9.210938 21.417969 9.347656 21.355469 9.464844 21.265625 C 9.527344 21.210938 9.433594 21.144531 9.421875 21.078125 C 9.359375 20.984375 9.402344 20.796875 9.242188 20.789062 C 9.082031 20.816406 8.921875 20.820312 8.757812 20.820312 L 8.714844 20.851562 C 8.683594 20.945312 8.824219 20.945312 8.851562 21.027344 "/>
<path style=" stroke:none;fill-rule:nonzero;fill:rgb(89.019608%,6.666667%,27.843137%);fill-opacity:1;" d="M 31.042969 22.066406 C 31.019531 21.953125 31.050781 21.792969 30.972656 21.6875 C 30.910156 21.640625 30.847656 21.566406 30.761719 21.585938 C 30.691406 21.644531 30.585938 21.714844 30.601562 21.816406 C 30.664062 21.996094 30.703125 22.125 30.738281 22.308594 C 30.757812 22.34375 30.738281 22.414062 30.792969 22.414062 L 31.113281 22.308594 C 31.171875 22.222656 31.066406 22.152344 31.042969 22.066406 "/>
<path style=" stroke:none;fill-rule:nonzero;fill:rgb(89.019608%,6.666667%,27.843137%);fill-opacity:1;" d="M 21.816406 16.316406 L 21.796875 16.359375 L 21.773438 16.394531 C 21.773438 16.394531 21.613281 16.539062 21.613281 16.539062 L 21.445312 16.699219 C 21.316406 16.820312 21.226562 16.921875 21.164062 17.023438 C 21.109375 17.09375 21.070312 17.179688 21.027344 17.261719 C 21.019531 17.289062 20.988281 17.289062 20.96875 17.28125 C 20.96875 17.28125 20.964844 17.28125 20.960938 17.28125 C 20.960938 17.277344 20.957031 17.269531 20.957031 17.269531 C 20.949219 17.238281 20.941406 17.207031 20.941406 17.167969 C 20.941406 17.140625 20.945312 17.113281 20.953125 17.078125 L 20.984375 16.957031 L 20.996094 16.898438 C 21.09375 16.648438 21.308594 16.382812 21.589844 16.175781 C 21.625 16.152344 21.691406 16.136719 21.742188 16.152344 C 21.773438 16.164062 21.796875 16.183594 21.808594 16.210938 C 21.820312 16.230469 21.828125 16.253906 21.828125 16.273438 C 21.828125 16.285156 21.824219 16.300781 21.816406 16.316406 C 21.816406 16.316406 21.824219 16.320312 21.832031 16.320312 C 21.824219 16.320312 21.816406 16.316406 21.816406 16.316406 Z M 19.769531 19.140625 L 19.753906 19.1875 C 19.742188 19.203125 19.726562 19.222656 19.707031 19.234375 C 19.691406 19.242188 19.667969 19.25 19.640625 19.234375 C 19.617188 19.222656 19.59375 19.207031 19.578125 19.183594 C 19.578125 19.183594 19.554688 19.152344 19.554688 19.152344 L 19.535156 19.121094 C 19.515625 19.082031 19.492188 19.054688 19.441406 19.058594 C 19.394531 19.054688 19.359375 19.074219 19.328125 19.09375 L 19.296875 19.117188 L 19.277344 19.132812 L 19.226562 19.167969 C 19.222656 19.167969 19.152344 19.226562 19.152344 19.226562 L 19.121094 19.253906 L 19.019531 19.347656 C 18.949219 19.421875 18.90625 19.492188 18.894531 19.5625 L 18.882812 19.613281 L 18.878906 19.636719 L 18.871094 19.667969 C 18.863281 19.703125 18.851562 19.742188 18.816406 19.765625 C 18.792969 19.769531 18.761719 19.765625 18.738281 19.75 C 18.722656 19.734375 18.710938 19.71875 18.710938 19.699219 C 18.691406 19.457031 18.773438 19.234375 18.945312 19.082031 C 19.03125 19.011719 19.101562 18.929688 19.160156 18.855469 C 19.160156 18.855469 19.226562 18.773438 19.226562 18.773438 L 19.359375 18.613281 L 19.375 18.605469 C 19.46875 18.585938 19.527344 18.671875 19.550781 18.707031 C 19.632812 18.8125 19.699219 18.933594 19.765625 19.085938 C 19.769531 19.097656 19.769531 19.105469 19.769531 19.121094 C 19.769531 19.125 19.769531 19.132812 19.769531 19.140625 Z M 19.652344 20.859375 L 19.648438 20.867188 C 19.617188 20.886719 19.574219 20.898438 19.519531 20.894531 L 19.421875 20.882812 L 19.390625 20.878906 L 19.382812 20.878906 C 19.289062 20.824219 19.265625 20.714844 19.253906 20.605469 C 19.253906 20.570312 19.265625 20.542969 19.289062 20.523438 C 19.289062 20.523438 19.292969 20.519531 19.296875 20.519531 L 19.304688 20.519531 C 19.4375 20.519531 19.535156 20.558594 19.597656 20.632812 L 19.621094 20.679688 L 19.652344 20.738281 C 19.652344 20.738281 19.660156 20.738281 19.664062 20.734375 C 19.660156 20.738281 19.652344 20.738281 19.652344 20.738281 C 19.660156 20.761719 19.667969 20.785156 19.667969 20.804688 C 19.667969 20.824219 19.660156 20.839844 19.652344 20.859375 Z M 30.359375 21.808594 C 30.105469 21.824219 29.976562 21.550781 29.828125 21.390625 C 29.703125 21.246094 29.457031 21.164062 29.460938 20.949219 C 29.414062 20.863281 29.40625 20.730469 29.367188 20.621094 C 29.328125 20.53125 29.296875 20.402344 29.175781 20.382812 C 28.957031 20.347656 28.695312 20.410156 28.5625 20.210938 C 28.421875 20.0625 28.574219 19.886719 28.601562 19.742188 C 28.660156 19.558594 28.667969 19.316406 28.636719 19.125 C 28.632812 19.019531 28.554688 18.929688 28.574219 18.820312 C 28.625 18.726562 28.746094 18.792969 28.824219 18.804688 C 29.105469 18.882812 29.4375 18.84375 29.691406 18.734375 C 30.042969 18.566406 30.324219 18.214844 30.308594 17.808594 C 30.261719 17.289062 29.882812 16.863281 29.476562 16.523438 C 29.402344 16.460938 29.304688 16.390625 29.28125 16.296875 C 29.269531 16.09375 29.5 16.191406 29.617188 16.140625 C 29.757812 16.105469 29.898438 16.074219 30.011719 15.992188 C 30.320312 15.789062 30.386719 15.433594 30.324219 15.085938 C 30.316406 15.054688 30.316406 15.007812 30.269531 15.007812 C 30.214844 15.054688 30.160156 15.117188 30.089844 15.160156 C 29.894531 15.273438 29.632812 15.253906 29.425781 15.351562 C 29.167969 15.460938 28.851562 15.617188 28.742188 15.902344 C 28.710938 16.046875 28.746094 16.195312 28.8125 16.316406 C 29.125 16.800781 29.78125 17.121094 29.886719 17.707031 C 29.929688 17.945312 29.808594 18.117188 29.621094 18.253906 C 29.339844 18.421875 28.917969 18.363281 28.636719 18.214844 C 28.09375 17.945312 27.621094 17.496094 27.039062 17.3125 C 26.671875 17.148438 26.21875 17.191406 25.890625 16.9375 C 25.644531 16.777344 25.417969 16.570312 25.144531 16.5 C 24.953125 16.433594 24.734375 16.445312 24.5625 16.351562 C 24.378906 16.191406 24.1875 16.042969 23.976562 15.9375 C 23.6875 15.792969 23.363281 15.71875 23.042969 15.652344 C 22.851562 15.605469 22.78125 15.398438 22.625 15.292969 C 22.359375 15.085938 22.0625 14.933594 21.699219 14.964844 C 21.550781 14.976562 21.433594 15.074219 21.320312 15.171875 C 20.550781 15.839844 19.667969 16.296875 18.964844 17.054688 C 18.492188 17.539062 18.367188 18.148438 18.191406 18.738281 C 17.941406 19.632812 17.835938 20.617188 16.925781 21.167969 C 16.910156 21.191406 16.910156 21.238281 16.941406 21.257812 C 17.183594 21.316406 17.417969 21.222656 17.578125 21.058594 C 17.734375 20.816406 17.902344 20.582031 18.113281 20.359375 L 18.164062 20.335938 C 18.1875 20.339844 18.21875 20.355469 18.207031 20.390625 C 18.148438 20.585938 17.964844 20.730469 17.90625 20.929688 C 17.824219 21.167969 17.59375 21.351562 17.398438 21.519531 L 17.394531 21.550781 C 17.394531 21.574219 17.417969 21.601562 17.441406 21.605469 C 17.886719 21.625 18.203125 21.3125 18.5 21.019531 C 18.527344 20.988281 18.570312 20.996094 18.609375 21.003906 C 18.738281 21.105469 18.859375 21.253906 19.03125 21.289062 C 19.210938 21.261719 19.402344 21.238281 19.59375 21.253906 C 19.859375 21.332031 20.117188 21.441406 20.382812 21.53125 C 20.519531 21.527344 20.621094 21.398438 20.691406 21.289062 C 20.746094 21.160156 20.664062 21.027344 20.675781 20.90625 C 20.742188 20.867188 20.816406 20.914062 20.886719 20.894531 C 20.914062 20.875 20.941406 20.839844 20.941406 20.804688 C 20.890625 20.578125 20.683594 20.410156 20.621094 20.195312 C 20.519531 19.921875 20.191406 19.757812 20.132812 19.464844 C 20.148438 19.445312 20.171875 19.414062 20.199219 19.433594 C 20.414062 19.589844 20.605469 19.792969 20.871094 19.832031 C 21.074219 19.851562 21.277344 19.871094 21.480469 19.855469 C 21.507812 19.847656 21.535156 19.8125 21.523438 19.777344 C 21.4375 19.597656 21.359375 19.417969 21.308594 19.226562 C 21.238281 18.984375 21.1875 18.644531 21.269531 18.378906 C 21.285156 18.355469 21.347656 18.320312 21.378906 18.328125 C 21.417969 18.339844 21.46875 18.386719 21.472656 18.421875 C 21.503906 18.84375 21.460938 19.230469 21.714844 19.5625 C 21.824219 19.738281 22.015625 19.773438 22.152344 19.90625 C 22.203125 19.976562 22.214844 20.089844 22.179688 20.167969 L 21.871094 20.617188 C 21.800781 20.71875 21.730469 20.824219 21.707031 20.933594 C 21.679688 21.058594 21.695312 21.179688 21.707031 21.296875 C 21.683594 21.308594 21.675781 21.277344 21.65625 21.269531 C 21.574219 21.105469 21.484375 20.894531 21.570312 20.703125 L 21.957031 20.109375 L 21.972656 20.066406 C 21.886719 20.019531 21.789062 19.976562 21.699219 19.957031 C 21.65625 19.976562 21.625 20.019531 21.59375 20.0625 L 21.21875 20.734375 C 21.191406 20.816406 21.167969 20.875 21.1875 20.960938 C 21.207031 21.058594 21.234375 21.160156 21.277344 21.242188 C 21.308594 21.382812 21.332031 21.476562 21.398438 21.601562 C 21.496094 21.703125 21.625 21.609375 21.746094 21.640625 C 21.867188 21.671875 21.910156 21.8125 22.03125 21.847656 C 22.304688 21.9375 22.59375 21.988281 22.867188 22.09375 C 23.007812 22.136719 23.207031 22.191406 23.332031 22.078125 C 23.511719 21.984375 23.554688 21.800781 23.585938 21.625 C 23.640625 21.550781 23.75 21.582031 23.832031 21.554688 C 23.984375 21.457031 24.03125 21.277344 24.144531 21.144531 L 24.164062 21.074219 C 24.148438 21.03125 24.109375 21.003906 24.066406 20.988281 L 23.554688 20.988281 C 23.320312 21.019531 23.300781 21.277344 23.199219 21.4375 C 23.140625 21.535156 23.03125 21.574219 22.917969 21.566406 C 22.675781 21.5 22.378906 21.464844 22.269531 21.207031 C 22.253906 21.144531 22.253906 21.0625 22.304688 21.019531 C 22.429688 20.875 22.578125 20.710938 22.734375 20.59375 C 22.957031 20.546875 23.171875 20.382812 23.289062 20.191406 C 23.347656 20.105469 23.339844 19.980469 23.441406 19.917969 C 23.46875 19.910156 23.535156 19.910156 23.558594 19.9375 C 23.601562 20.082031 23.519531 20.1875 23.476562 20.3125 C 24.023438 20.367188 24.449219 20.210938 24.980469 20.226562 C 25.207031 20.226562 25.410156 20.253906 25.628906 20.238281 C 25.851562 20.230469 26.09375 20.140625 26.164062 19.910156 C 26.265625 19.617188 26.125 19.285156 26.074219 19.007812 L 26.132812 18.960938 C 26.171875 18.941406 26.230469 18.96875 26.253906 18.988281 C 26.347656 19.25 26.414062 19.570312 26.453125 19.855469 C 26.496094 20.109375 26.605469 20.273438 26.746094 20.488281 C 27.003906 20.867188 27.457031 21.015625 27.902344 20.921875 C 28.445312 20.882812 28.914062 21.164062 29.246094 21.582031 L 29.246094 21.605469 C 29.234375 21.625 29.214844 21.652344 29.1875 21.644531 C 28.902344 21.425781 28.617188 21.195312 28.25 21.148438 C 27.878906 21.082031 27.546875 21.273438 27.160156 21.117188 C 26.691406 20.96875 26.496094 20.683594 26.300781 20.230469 L 26.257812 20.230469 C 26.230469 20.234375 26.210938 20.265625 26.203125 20.292969 L 26.253906 20.601562 C 26.3125 20.851562 26.394531 21.144531 26.667969 21.257812 C 26.878906 21.382812 27.082031 21.5625 27.34375 21.492188 C 27.800781 21.390625 28.265625 21.519531 28.617188 21.773438 C 28.730469 21.839844 28.824219 21.957031 28.949219 22.003906 C 29.085938 22.058594 29.25 22.027344 29.359375 21.9375 C 29.617188 21.855469 29.675781 22.171875 29.851562 22.285156 C 30.007812 22.433594 30.320312 22.375 30.527344 22.375 L 30.519531 22.351562 C 30.496094 22.148438 30.441406 21.988281 30.359375 21.808594 "/>
<path style=" stroke:none;fill-rule:nonzero;fill:rgb(89.019608%,6.666667%,27.843137%);fill-opacity:1;" d="M 23.085938 20.878906 C 22.953125 20.90625 22.796875 20.875 22.660156 20.894531 C 22.601562 20.984375 22.546875 21.09375 22.558594 21.214844 C 22.574219 21.335938 22.714844 21.347656 22.804688 21.382812 C 22.890625 21.390625 23.015625 21.421875 23.0625 21.332031 C 23.113281 21.203125 23.15625 21.0625 23.179688 20.925781 C 23.167969 20.886719 23.128906 20.871094 23.085938 20.878906 "/>
<path style=" stroke:none;fill-rule:nonzero;fill:rgb(89.019608%,6.666667%,27.843137%);fill-opacity:1;" d="M 30.230469 21.035156 C 30.128906 20.949219 30.023438 21.074219 29.972656 21.148438 C 30.007812 21.269531 30.109375 21.367188 30.183594 21.476562 C 30.222656 21.535156 30.289062 21.574219 30.359375 21.582031 C 30.429688 21.582031 30.484375 21.546875 30.535156 21.503906 C 30.570312 21.460938 30.613281 21.40625 30.597656 21.34375 C 30.5 21.214844 30.351562 21.132812 30.230469 21.035156 "/>
<path style=" stroke:none;fill-rule:nonzero;fill:rgb(100%,100%,100%);fill-opacity:1;" d="M 19.289062 2.597656 L 16.953125 2.597656 L 16.199219 0.363281 L 15.449219 2.597656 L 13.113281 2.597656 L 15.027344 3.925781 L 14.316406 6.136719 L 16.203125 4.777344 L 18.085938 6.136719 L 17.375 3.925781 L 19.289062 2.597656 "/>
<path style=" stroke:none;fill-rule:nonzero;fill:rgb(98.039216%,81.960784%,1.960784%);fill-opacity:1;" d="M 16.199219 4.464844 L 17.605469 5.476562 L 17.074219 3.824219 L 18.480469 2.851562 L 16.769531 2.851562 L 16.199219 1.160156 L 15.632812 2.851562 L 13.921875 2.851562 L 15.328125 3.824219 L 14.792969 5.476562 L 16.199219 4.464844 "/>
<path style=" stroke:none;fill-rule:nonzero;fill:rgb(98.039216%,81.960784%,1.960784%);fill-opacity:1;" d="M 16.199219 4.464844 L 17.605469 5.476562 L 17.074219 3.824219 L 18.480469 2.851562 L 16.769531 2.851562 L 16.199219 1.160156 L 15.632812 2.851562 L 13.921875 2.851562 L 15.328125 3.824219 L 14.792969 5.476562 L 16.199219 4.464844 "/>
</g>
</svg>
