<?xml version="1.0" encoding="UTF-8"?>
<svg xmlns="http://www.w3.org/2000/svg" xmlns:xlink="http://www.w3.org/1999/xlink" width="32px" height="32px" viewBox="0 0 32 50" version="1.1">
<g id="surface1">
<path style=" stroke:none;fill-rule:nonzero;fill:rgb(100%,100%,100%);fill-opacity:1;" d="M 29.488281 13.261719 C 28.171875 10.421875 26.339844 7.828125 24.039062 5.558594 C 20.125 1.695312 16.269531 0.132812 16.105469 0.0664062 L 15.984375 0.0195312 L 15.980469 0.0195312 L 15.855469 0.0664062 C 15.695312 0.132812 11.835938 1.695312 7.921875 5.558594 C 5.621094 7.828125 3.789062 10.421875 2.476562 13.261719 C 0.832031 16.816406 0 20.769531 0 25.015625 C 0 29.265625 0.832031 33.21875 2.476562 36.769531 C 3.789062 39.613281 5.621094 42.207031 7.921875 44.476562 C 11.835938 48.339844 15.695312 49.902344 15.855469 49.96875 L 15.980469 50.015625 L 16.105469 49.96875 C 16.269531 49.902344 20.125 48.339844 24.039062 44.476562 C 26.339844 42.207031 28.171875 39.613281 29.488281 36.769531 C 31.128906 33.21875 31.964844 29.265625 31.964844 25.015625 C 31.964844 20.769531 31.128906 16.816406 29.488281 13.261719 Z M 29.488281 13.261719 "/>
<path style=" stroke:none;fill-rule:nonzero;fill:rgb(0%,0%,0%);fill-opacity:1;" d="M 15.980469 0.375 C 15.957031 0.386719 0.332031 6.625 0.332031 25.019531 C 0.332031 43.410156 15.957031 49.652344 15.980469 49.660156 C 16.007812 49.652344 31.628906 43.410156 31.628906 25.019531 C 31.628906 6.625 16.007812 0.386719 15.980469 0.375 Z M 15.980469 0.375 "/>
<path style=" stroke:none;fill-rule:nonzero;fill:rgb(100%,100%,100%);fill-opacity:1;" d="M 15.980469 3.097656 C 15.957031 3.109375 0.824219 8.402344 0.824219 25.019531 C 0.824219 41.632812 15.957031 46.929688 15.980469 46.9375 C 16.007812 46.929688 31.140625 41.632812 31.140625 25.019531 C 31.140625 8.402344 16.007812 3.109375 15.980469 3.097656 Z M 15.980469 3.097656 "/>
<path style=" stroke:none;fill-rule:nonzero;fill:rgb(92.156863%,41.568627%,3.921569%);fill-opacity:1;" d="M 14.839844 24.558594 C 11.882812 22.972656 9.832031 19.820312 9.453125 16.242188 C 9.078125 12.695312 10.230469 9.558594 12.972656 6.675781 C 4.277344 11.539062 6.582031 17.921875 7.703125 19.945312 C 9.238281 22.707031 11.949219 24.445312 14.839844 24.558594 Z M 14.839844 24.558594 "/>
<path style=" stroke:none;fill-rule:nonzero;fill:rgb(0%,0%,0%);fill-opacity:1;" d="M 15.980469 34.238281 C 11.390625 34.238281 7.128906 33.578125 3.597656 32.449219 C 6.964844 41.777344 15.976562 44.199219 15.980469 44.203125 C 15.984375 44.203125 25 41.777344 28.363281 32.449219 C 24.832031 33.578125 20.570312 34.238281 15.980469 34.238281 Z M 15.980469 34.238281 "/>
<path style=" stroke:none;fill-rule:nonzero;fill:rgb(92.156863%,41.568627%,3.921569%);fill-opacity:1;" d="M 27.058594 14.886719 C 26.929688 20.84375 22.019531 25.632812 15.980469 25.636719 C 9.945312 25.632812 5.035156 20.84375 4.90625 14.886719 C 3.546875 17.492188 2.351562 20.777344 2.351562 24.886719 C 2.351562 25.125 2.355469 25.363281 2.363281 25.597656 C 6.113281 26.984375 10.839844 27.8125 15.980469 27.8125 C 21.121094 27.8125 25.851562 26.984375 29.601562 25.597656 C 29.605469 25.363281 29.609375 25.125 29.609375 24.886719 C 29.609375 20.777344 28.417969 17.492188 27.058594 14.886719 Z M 27.058594 14.886719 "/>
<path style=" stroke:none;fill-rule:nonzero;fill:rgb(92.156863%,41.568627%,3.921569%);fill-opacity:1;" d="M 17.554688 13.480469 C 17.160156 12.519531 16.628906 11.644531 15.980469 10.878906 C 15.335938 11.644531 14.804688 12.519531 14.40625 13.480469 C 13.664062 15.28125 13.425781 17.265625 13.714844 19.226562 C 14 21.15625 14.78125 22.917969 15.972656 24.328125 C 15.976562 24.328125 15.980469 24.324219 15.980469 24.320312 C 15.984375 24.324219 15.988281 24.328125 15.988281 24.328125 C 17.179688 22.917969 17.960938 21.152344 18.246094 19.226562 C 18.539062 17.265625 18.300781 15.28125 17.554688 13.480469 Z M 17.554688 13.480469 "/>
<path style=" stroke:none;fill-rule:nonzero;fill:rgb(92.156863%,41.568627%,3.921569%);fill-opacity:1;" d="M 17.121094 24.558594 C 20.078125 22.972656 22.132812 19.820312 22.511719 16.242188 C 22.886719 12.695312 21.734375 9.558594 18.992188 6.675781 C 27.683594 11.539062 25.382812 17.921875 24.257812 19.945312 C 22.726562 22.707031 20.015625 24.445312 17.121094 24.558594 Z M 17.121094 24.558594 "/>
<path style=" stroke:none;fill-rule:nonzero;fill:rgb(0%,0%,0%);fill-opacity:1;" d="M 15.980469 6.035156 C 11.957031 8.175781 10.273438 12.25 10.273438 15.304688 C 10.273438 18.796875 11.902344 22 14.554688 23.742188 C 12.605469 20.632812 12.277344 16.589844 13.714844 13.113281 C 14.148438 12.066406 14.726562 11.109375 15.4375 10.273438 L 15.980469 9.675781 L 16.523438 10.273438 C 17.234375 11.109375 17.8125 12.066406 18.246094 13.113281 C 19.683594 16.589844 19.359375 20.632812 17.40625 23.742188 C 20.058594 22 21.6875 18.796875 21.6875 15.304688 C 21.6875 12.25 20.003906 8.175781 15.980469 6.035156 Z M 15.980469 6.035156 "/>
<path style=" stroke:none;fill-rule:nonzero;fill:rgb(0%,0%,0%);fill-opacity:1;" d="M 13.554688 33.042969 C 13.554688 33.042969 13.382812 32.722656 13.304688 32.535156 C 13.304688 32.542969 11.628906 28.546875 11.628906 28.542969 C 11.582031 28.421875 11.316406 28.398438 11.234375 28.390625 C 11.054688 28.378906 10.953125 28.410156 10.9375 28.480469 C 10.9375 28.484375 9.53125 32.640625 9.53125 32.632812 C 9.511719 32.6875 9.519531 32.738281 9.546875 32.78125 C 9.5625 32.800781 9.59375 32.839844 9.660156 32.847656 C 9.828125 32.871094 9.996094 32.894531 10.164062 32.917969 C 10.253906 32.929688 10.304688 32.898438 10.332031 32.8125 C 10.332031 32.8125 10.625 31.699219 10.625 31.699219 C 10.628906 31.6875 10.632812 31.683594 10.652344 31.6875 C 11.101562 31.738281 11.554688 31.785156 12.007812 31.824219 C 12.019531 31.824219 12.03125 31.832031 12.035156 31.835938 C 12.035156 31.839844 12.035156 31.839844 12.035156 31.839844 C 12.035156 31.84375 12.035156 31.84375 12.035156 31.84375 C 12.121094 32.066406 12.207031 32.285156 12.292969 32.503906 C 12.292969 32.5 12.484375 33.023438 12.484375 33.023438 C 12.519531 33.113281 12.585938 33.167969 12.675781 33.171875 C 12.933594 33.191406 13.191406 33.210938 13.445312 33.222656 C 13.503906 33.226562 13.542969 33.210938 13.5625 33.175781 C 13.578125 33.152344 13.585938 33.109375 13.554688 33.042969 Z M 10.75 31.257812 C 10.902344 30.746094 11.058594 30.238281 11.214844 29.726562 C 11.332031 30.023438 11.816406 31.230469 11.875 31.371094 C 11.5 31.335938 11.125 31.296875 10.75 31.257812 Z M 10.75 31.257812 "/>
<path style=" stroke:none;fill-rule:nonzero;fill:rgb(0%,0%,0%);fill-opacity:1;" d="M 25.246094 32.210938 C 25.246094 32.207031 25.109375 31.929688 25.054688 31.761719 C 25.054688 31.765625 23.808594 28.152344 23.808594 28.144531 C 23.769531 28.035156 23.503906 28.078125 23.425781 28.089844 C 23.242188 28.125 23.136719 28.179688 23.109375 28.253906 C 23.113281 28.257812 21.207031 32.824219 21.207031 32.816406 C 21.183594 32.875 21.183594 32.929688 21.207031 32.964844 C 21.21875 32.984375 21.25 33.011719 21.3125 33.003906 C 21.480469 32.984375 21.648438 32.964844 21.816406 32.945312 C 21.90625 32.933594 21.960938 32.890625 21.996094 32.796875 C 22 32.796875 22.421875 31.59375 22.421875 31.59375 C 22.429688 31.582031 22.4375 31.578125 22.453125 31.574219 C 22.90625 31.511719 23.359375 31.445312 23.8125 31.371094 C 23.824219 31.371094 23.835938 31.375 23.839844 31.378906 C 23.839844 31.382812 23.839844 31.382812 23.839844 31.382812 C 23.902344 31.585938 23.964844 31.785156 24.027344 31.984375 C 24.027344 31.984375 24.160156 32.464844 24.160156 32.464844 C 24.1875 32.542969 24.25 32.578125 24.339844 32.5625 C 24.597656 32.515625 24.859375 32.46875 25.117188 32.417969 C 25.175781 32.40625 25.214844 32.382812 25.242188 32.339844 C 25.257812 32.3125 25.273438 32.269531 25.246094 32.210938 Z M 22.601562 31.113281 C 22.816406 30.558594 23.03125 30.003906 23.25 29.445312 C 23.335938 29.714844 23.691406 30.816406 23.730469 30.945312 C 23.355469 31.003906 22.976562 31.0625 22.601562 31.113281 Z M 22.601562 31.113281 "/>
<path style=" stroke:none;fill-rule:nonzero;fill:rgb(0%,0%,0%);fill-opacity:1;" d="M 16.1875 30.90625 C 16.667969 30.230469 17.152344 29.546875 17.644531 28.855469 C 17.683594 28.804688 17.691406 28.75 17.671875 28.707031 C 17.652344 28.671875 17.609375 28.648438 17.558594 28.652344 C 17.382812 28.65625 17.207031 28.660156 17.035156 28.664062 C 16.953125 28.664062 16.90625 28.679688 16.851562 28.753906 C 16.851562 28.757812 15.972656 30.082031 15.816406 30.3125 C 15.496094 29.804688 15.171875 29.292969 14.84375 28.777344 C 14.847656 28.777344 14.847656 28.78125 14.847656 28.78125 C 14.808594 28.699219 14.734375 28.652344 14.640625 28.652344 C 14.375 28.644531 14.109375 28.632812 13.84375 28.621094 C 13.785156 28.617188 13.746094 28.636719 13.726562 28.671875 C 13.707031 28.707031 13.714844 28.753906 13.746094 28.804688 C 13.75 28.8125 15.109375 30.894531 15.226562 31.066406 C 14.765625 31.730469 14.3125 32.390625 13.863281 33.039062 C 13.832031 33.089844 13.824219 33.140625 13.847656 33.183594 C 13.867188 33.222656 13.90625 33.25 13.957031 33.25 C 14.121094 33.257812 14.28125 33.265625 14.445312 33.269531 C 14.523438 33.273438 14.574219 33.261719 14.625 33.191406 C 14.625 33.191406 15.457031 31.898438 15.605469 31.664062 C 15.933594 32.171875 16.257812 32.675781 16.574219 33.179688 C 16.574219 33.175781 16.574219 33.175781 16.570312 33.171875 C 16.609375 33.253906 16.679688 33.296875 16.769531 33.296875 C 17.011719 33.292969 17.25 33.289062 17.488281 33.28125 C 17.542969 33.277344 17.582031 33.257812 17.601562 33.222656 C 17.621094 33.183594 17.617188 33.140625 17.585938 33.085938 C 17.125 32.367188 16.660156 31.640625 16.1875 30.90625 Z M 16.1875 30.90625 "/>
<path style=" stroke:none;fill-rule:nonzero;fill:rgb(0%,0%,0%);fill-opacity:1;" d="M 21.863281 28.484375 C 21.867188 28.449219 21.859375 28.417969 21.839844 28.394531 C 21.808594 28.363281 21.757812 28.351562 21.683594 28.359375 C 20.566406 28.484375 19.445312 28.570312 18.328125 28.621094 C 18.257812 28.625 18.203125 28.644531 18.171875 28.683594 C 18.148438 28.710938 18.136719 28.742188 18.140625 28.777344 C 18.140625 28.773438 18.15625 29.105469 18.15625 29.105469 C 18.164062 29.152344 18.179688 29.183594 18.207031 29.207031 C 18.246094 29.234375 18.292969 29.230469 18.324219 29.222656 C 18.332031 29.222656 19.089844 29.097656 19.457031 29.070312 C 19.46875 29.070312 19.496094 29.09375 19.492188 29.136719 C 19.492188 29.136719 19.445312 30.871094 19.445312 30.871094 C 19.445312 30.871094 19.367188 33.03125 19.367188 33.03125 C 19.367188 33.128906 19.421875 33.179688 19.519531 33.171875 C 19.730469 33.15625 19.941406 33.140625 20.152344 33.121094 C 20.25 33.113281 20.3125 33.050781 20.316406 32.953125 C 20.316406 32.953125 20.398438 30.792969 20.398438 30.792969 C 20.398438 30.792969 20.476562 29.058594 20.476562 29.058594 C 20.476562 29.015625 20.507812 28.988281 20.519531 28.988281 C 20.886719 28.957031 21.636719 28.960938 21.644531 28.960938 C 21.675781 28.960938 21.726562 28.957031 21.765625 28.921875 C 21.796875 28.898438 21.8125 28.863281 21.820312 28.816406 C 21.820312 28.816406 21.863281 28.480469 21.863281 28.484375 Z M 21.863281 28.484375 "/>
<path style=" stroke:none;fill-rule:nonzero;fill:rgb(0%,0%,0%);fill-opacity:1;" d="M 27.839844 27.292969 C 27.289062 27.421875 26.742188 27.542969 26.195312 27.652344 C 26.089844 27.671875 26.023438 27.742188 26.015625 27.839844 C 26.015625 27.839844 25.824219 30.003906 25.824219 30.003906 C 25.824219 30 25.613281 32.167969 25.613281 32.167969 C 25.605469 32.265625 25.660156 32.308594 25.757812 32.289062 C 25.972656 32.246094 26.1875 32.199219 26.398438 32.152344 C 26.5 32.128906 26.5625 32.058594 26.574219 31.960938 C 26.574219 31.960938 26.738281 30.257812 26.738281 30.257812 C 26.742188 30.230469 26.789062 30.183594 26.824219 30.175781 C 26.957031 30.148438 27.089844 30.117188 27.222656 30.085938 C 28.390625 29.816406 29.183594 29.078125 29.289062 28.21875 C 29.410156 27.242188 28.617188 27.117188 27.839844 27.292969 Z M 26.945312 29.742188 C 26.917969 29.75 26.890625 29.757812 26.863281 29.761719 C 26.832031 29.769531 26.792969 29.738281 26.792969 29.707031 C 26.851562 29.144531 26.910156 28.582031 26.964844 28.015625 C 26.972656 27.960938 27.035156 27.898438 27.101562 27.882812 C 27.140625 27.875 27.175781 27.867188 27.214844 27.855469 C 28.027344 27.675781 28.328125 27.839844 28.257812 28.457031 C 28.179688 29.152344 27.777344 29.558594 26.945312 29.742188 Z M 26.945312 29.742188 "/>
<path style=" stroke:none;fill-rule:nonzero;fill:rgb(0%,0%,0%);fill-opacity:1;" d="M 8.734375 28.28125 C 8.726562 28.183594 8.664062 28.117188 8.5625 28.101562 C 8.339844 28.066406 8.117188 28.03125 7.894531 27.996094 C 7.792969 27.980469 7.734375 28.027344 7.742188 28.125 C 7.742188 28.125 8.042969 31.976562 8.042969 31.976562 C 8.050781 32.035156 8 32.082031 7.941406 32.070312 C 7.773438 32.042969 7.601562 32.011719 7.433594 31.980469 C 7.222656 31.941406 6.875 31.824219 6.625 31.734375 C 6.507812 30.441406 6.390625 29.148438 6.269531 27.855469 C 6.265625 27.804688 6.246094 27.765625 6.214844 27.730469 C 6.183594 27.699219 6.140625 27.679688 6.089844 27.667969 C 5.867188 27.625 5.644531 27.578125 5.421875 27.53125 C 5.371094 27.519531 5.332031 27.523438 5.304688 27.542969 C 5.277344 27.566406 5.265625 27.601562 5.273438 27.648438 C 5.402344 28.945312 5.535156 30.238281 5.664062 31.53125 C 5.421875 31.519531 5.085938 31.488281 4.875 31.4375 C 4.703125 31.398438 4.53125 31.355469 4.359375 31.3125 C 4.296875 31.296875 4.238281 31.230469 4.230469 31.167969 C 4.230469 31.167969 3.792969 27.308594 3.792969 27.308594 C 3.78125 27.210938 3.710938 27.140625 3.609375 27.113281 C 3.382812 27.058594 3.15625 27 2.933594 26.941406 C 2.828125 26.914062 2.773438 26.957031 2.785156 27.054688 C 2.785156 27.054688 3.320312 31.390625 3.320312 31.390625 C 3.332031 31.488281 3.398438 31.5625 3.5 31.589844 C 5.304688 32.074219 7.101562 32.457031 8.886719 32.734375 C 8.984375 32.75 9.039062 32.699219 9.035156 32.605469 C 9.035156 32.605469 8.734375 28.28125 8.734375 28.28125 Z M 8.734375 28.28125 "/>
<path style=" stroke:none;fill-rule:nonzero;fill:rgb(100%,100%,100%);fill-opacity:1;" d="M 13.886719 37.433594 L 13.882812 36.695312 C 13.882812 36.695312 13.886719 35.953125 13.886719 35.953125 C 13.886719 35.914062 13.859375 35.886719 13.816406 35.886719 L 13.554688 35.886719 C 13.496094 35.886719 13.480469 35.921875 13.480469 35.953125 L 13.484375 36.695312 C 13.484375 36.695312 13.480469 37.433594 13.480469 37.433594 C 13.480469 37.476562 13.507812 37.503906 13.554688 37.503906 L 13.816406 37.503906 C 13.859375 37.503906 13.886719 37.476562 13.886719 37.433594 Z M 13.886719 37.433594 "/>
<path style=" stroke:none;fill-rule:nonzero;fill:rgb(100%,100%,100%);fill-opacity:1;" d="M 14.832031 35.859375 C 14.449219 35.859375 14.1875 36.0625 14.1875 36.367188 C 14.1875 36.628906 14.367188 36.890625 14.765625 36.890625 C 14.953125 36.890625 15.019531 36.855469 15.097656 36.816406 C 15.101562 36.8125 15.109375 36.808594 15.117188 36.804688 C 15.109375 37.089844 14.855469 37.335938 14.519531 37.375 C 14.519531 37.375 14.519531 37.375 14.523438 37.375 C 14.492188 37.375 14.464844 37.398438 14.464844 37.425781 C 14.464844 37.429688 14.464844 37.429688 14.464844 37.429688 L 14.46875 37.492188 C 14.46875 37.492188 14.46875 37.496094 14.472656 37.496094 C 14.476562 37.523438 14.5 37.539062 14.523438 37.539062 L 14.566406 37.539062 C 15.140625 37.535156 15.523438 37.164062 15.523438 36.625 C 15.523438 36.394531 15.457031 35.859375 14.832031 35.859375 Z M 14.855469 36.6875 C 14.644531 36.6875 14.566406 36.507812 14.566406 36.339844 C 14.566406 36.082031 14.683594 36.050781 14.785156 36.050781 C 15.082031 36.050781 15.117188 36.371094 15.117188 36.507812 C 15.117188 36.613281 15.011719 36.6875 14.855469 36.6875 Z M 14.855469 36.6875 "/>
<path style=" stroke:none;fill-rule:nonzero;fill:rgb(100%,100%,100%);fill-opacity:1;" d="M 16.585938 36.550781 C 16.703125 36.449219 16.765625 36.324219 16.765625 36.191406 C 16.765625 35.957031 16.578125 35.832031 16.226562 35.832031 C 16.035156 35.832031 15.886719 35.859375 15.753906 35.925781 C 15.75 35.925781 15.75 35.929688 15.746094 35.929688 C 15.746094 35.929688 15.746094 35.933594 15.746094 35.933594 C 15.738281 35.941406 15.714844 35.960938 15.726562 35.992188 C 15.726562 35.996094 15.757812 36.0625 15.757812 36.0625 C 15.761719 36.074219 15.773438 36.085938 15.789062 36.09375 C 15.804688 36.097656 15.824219 36.097656 15.835938 36.089844 C 15.910156 36.058594 15.984375 36.03125 16.113281 36.03125 C 16.199219 36.03125 16.335938 36.054688 16.335938 36.210938 C 16.335938 36.394531 16.203125 36.527344 15.996094 36.550781 C 15.996094 36.550781 15.992188 36.550781 15.992188 36.550781 C 15.964844 36.558594 15.949219 36.582031 15.949219 36.609375 L 15.949219 36.621094 C 15.949219 36.640625 15.949219 36.683594 15.996094 36.691406 C 16.011719 36.695312 16.105469 36.691406 16.144531 36.691406 C 16.238281 36.6875 16.328125 36.722656 16.390625 36.785156 C 16.449219 36.84375 16.480469 36.914062 16.480469 36.996094 C 16.480469 37.25 16.335938 37.367188 16.027344 37.367188 L 15.996094 37.367188 C 15.945312 37.367188 15.898438 37.367188 15.851562 37.355469 C 15.835938 37.355469 15.824219 37.355469 15.8125 37.363281 C 15.800781 37.371094 15.792969 37.378906 15.789062 37.394531 C 15.789062 37.394531 15.773438 37.453125 15.773438 37.453125 C 15.773438 37.457031 15.773438 37.457031 15.773438 37.460938 C 15.773438 37.5 15.800781 37.511719 15.8125 37.515625 C 15.894531 37.546875 16.214844 37.546875 16.25 37.546875 C 16.550781 37.546875 16.898438 37.402344 16.898438 37 C 16.898438 36.792969 16.78125 36.625 16.585938 36.550781 Z M 16.585938 36.550781 "/>
<path style=" stroke:none;fill-rule:nonzero;fill:rgb(100%,100%,100%);fill-opacity:1;" d="M 17.90625 36.503906 C 17.71875 36.503906 17.644531 36.539062 17.570312 36.578125 L 17.546875 36.589844 C 17.550781 36.316406 17.746094 36.03125 18.035156 36.03125 C 18.042969 36.03125 18.054688 36.03125 18.066406 36.03125 C 18.113281 36.03125 18.148438 36.035156 18.164062 36.03125 C 18.167969 36.03125 18.167969 36.03125 18.167969 36.03125 C 18.207031 36.015625 18.210938 35.992188 18.210938 35.980469 L 18.210938 35.984375 L 18.21875 35.925781 C 18.21875 35.921875 18.21875 35.921875 18.21875 35.921875 C 18.21875 35.878906 18.1875 35.867188 18.171875 35.863281 C 18.113281 35.851562 18.050781 35.851562 17.988281 35.851562 L 17.960938 35.851562 C 17.421875 35.851562 17.140625 36.308594 17.140625 36.765625 C 17.140625 36.992188 17.210938 37.527344 17.832031 37.527344 C 18.21875 37.527344 18.480469 37.320312 18.480469 37.015625 C 18.480469 36.707031 18.253906 36.503906 17.90625 36.503906 Z M 17.882812 37.34375 C 17.585938 37.34375 17.554688 37.019531 17.554688 36.882812 C 17.554688 36.773438 17.65625 36.703125 17.8125 36.703125 C 18.054688 36.703125 18.089844 36.917969 18.089844 37.042969 C 18.089844 37.308594 17.984375 37.34375 17.882812 37.34375 Z M 17.882812 37.34375 "/>
<path style=" stroke:none;fill-rule:nonzero;fill:rgb(100%,100%,100%);fill-opacity:1;" d="M 17.601562 39.539062 C 17.683594 39.453125 17.738281 39.398438 17.738281 39.398438 C 17.78125 39.359375 17.777344 39.3125 17.738281 39.269531 L 17.464844 39 C 17.421875 38.957031 17.375 38.957031 17.332031 38.996094 C 17.332031 38.996094 17.277344 39.054688 17.195312 39.136719 L 16.707031 38.652344 C 16.679688 38.621094 16.648438 38.609375 16.621094 38.609375 C 16.601562 38.613281 16.585938 38.621094 16.570312 38.636719 C 16.574219 38.636719 16.203125 39.019531 16.203125 39.019531 C 16.1875 39.042969 16.179688 39.0625 16.183594 39.082031 C 16.1875 39.109375 16.207031 39.128906 16.222656 39.140625 C 16.226562 39.144531 16.574219 39.417969 16.726562 39.566406 C 16.730469 39.574219 16.730469 39.59375 16.714844 39.613281 C 16.714844 39.613281 16.136719 40.191406 15.976562 40.347656 C 15.816406 40.191406 15.242188 39.613281 15.242188 39.613281 C 15.222656 39.59375 15.222656 39.574219 15.226562 39.566406 C 15.378906 39.417969 15.726562 39.144531 15.730469 39.140625 C 15.746094 39.128906 15.769531 39.109375 15.769531 39.082031 C 15.773438 39.0625 15.765625 39.042969 15.75 39.023438 C 15.75 39.019531 15.382812 38.636719 15.382812 38.636719 C 15.371094 38.621094 15.351562 38.613281 15.332031 38.609375 C 15.304688 38.609375 15.277344 38.621094 15.246094 38.652344 L 14.757812 39.136719 C 14.675781 39.054688 14.621094 38.996094 14.621094 38.996094 C 14.578125 38.957031 14.53125 38.957031 14.488281 39 L 14.21875 39.269531 C 14.175781 39.3125 14.175781 39.359375 14.214844 39.398438 C 14.214844 39.398438 14.269531 39.453125 14.355469 39.539062 L 13.867188 40.019531 C 13.835938 40.050781 13.820312 40.078125 13.824219 40.105469 C 13.824219 40.125 13.835938 40.144531 13.851562 40.15625 C 13.847656 40.15625 14.238281 40.519531 14.238281 40.519531 C 14.257812 40.539062 14.277344 40.542969 14.300781 40.542969 C 14.328125 40.539062 14.347656 40.519531 14.359375 40.503906 C 14.363281 40.5 14.636719 40.152344 14.789062 40.003906 C 14.792969 40 14.816406 40 14.835938 40.015625 C 14.835938 40.015625 15.414062 40.585938 15.574219 40.746094 C 15.03125 41.28125 14.355469 41.949219 14.355469 41.949219 C 14.316406 41.992188 14.316406 42.039062 14.359375 42.082031 L 14.632812 42.351562 C 14.671875 42.390625 14.722656 42.394531 14.761719 42.351562 C 14.761719 42.351562 15.4375 41.683594 15.976562 41.144531 C 16.519531 41.683594 17.191406 42.351562 17.191406 42.351562 C 17.230469 42.394531 17.28125 42.390625 17.324219 42.351562 L 17.59375 42.082031 C 17.636719 42.039062 17.636719 41.992188 17.597656 41.949219 C 17.597656 41.949219 16.921875 41.28125 16.378906 40.746094 C 16.539062 40.585938 17.121094 40.015625 17.121094 40.015625 C 17.136719 40 17.160156 40 17.164062 40.003906 C 17.316406 40.152344 18.03125 40.613281 18.128906 40.519531 C 18.222656 40.433594 17.601562 39.539062 17.601562 39.539062 Z M 17.601562 39.539062 "/>
</g>
</svg>
