<?xml version="1.0" encoding="UTF-8"?>
<svg xmlns="http://www.w3.org/2000/svg" xmlns:xlink="http://www.w3.org/1999/xlink" width="32px" height="32px" viewBox="0 0 32 22" version="1.1">
<g id="surface1">
<path style=" stroke:none;fill-rule:nonzero;fill:rgb(81.176471%,68.627451%,16.862745%);fill-opacity:1;" d="M 13.472656 7.386719 C 14.273438 6.8125 15.078125 6.242188 15.886719 5.675781 C 16.691406 6.234375 17.484375 6.804688 18.285156 7.367188 C 17.996094 6.453125 17.6875 5.535156 17.378906 4.625 C 18.179688 4.046875 18.984375 3.484375 19.789062 2.914062 C 18.796875 2.90625 17.800781 2.914062 16.796875 2.90625 C 16.496094 1.984375 16.195312 1.066406 15.886719 0.144531 C 15.578125 1.066406 15.289062 1.992188 14.964844 2.90625 C 13.976562 2.902344 12.988281 2.902344 12 2.90625 C 12.789062 3.492188 13.601562 4.042969 14.394531 4.613281 C 14.097656 5.535156 13.78125 6.457031 13.472656 7.386719 Z M 13.472656 7.386719 "/>
<path style=" stroke:none;fill-rule:nonzero;fill:rgb(0%,59.215686%,85.882353%);fill-opacity:1;" d="M 7.402344 17.929688 C 7.265625 18.402344 7.132812 18.875 6.980469 19.335938 C 15.261719 15.878906 23.554688 12.4375 31.832031 8.96875 C 28.398438 8.972656 24.964844 8.96875 21.527344 8.972656 C 21.042969 9.617188 20.550781 10.269531 20.054688 10.90625 C 20.238281 10.261719 20.425781 9.617188 20.621094 8.980469 C 20.230469 8.980469 19.835938 8.980469 19.445312 8.980469 C 19.121094 9.796875 18.695312 10.570312 18.246094 11.328125 C 18.128906 11.539062 17.976562 11.738281 17.792969 11.902344 C 17.792969 11.699219 17.8125 11.496094 17.875 11.304688 C 18.101562 10.527344 18.347656 9.761719 18.5625 8.980469 C 18.183594 8.980469 17.804688 8.980469 17.429688 8.980469 C 17.238281 9.476562 17.207031 10.046875 16.84375 10.453125 C 16.382812 11.035156 15.941406 11.632812 15.484375 12.214844 C 15.796875 11.136719 16.125 10.058594 16.445312 8.980469 C 16.042969 8.980469 15.644531 8.980469 15.242188 8.980469 C 15.046875 9.617188 14.867188 10.261719 14.664062 10.894531 C 14.335938 10.972656 14.007812 11.0625 13.675781 11.136719 C 13.882812 10.417969 14.101562 9.699219 14.316406 8.972656 C 13.890625 8.972656 13.460938 8.972656 13.03125 8.964844 C 12.832031 9.609375 12.648438 10.253906 12.460938 10.898438 C 12.390625 11.121094 12.351562 11.375 12.175781 11.550781 C 11.558594 12.261719 10.9375 12.976562 10.324219 13.6875 C 10.078125 13.941406 9.851562 14.320312 9.441406 14.289062 C 9.183594 13.855469 9.230469 13.328125 9.285156 12.84375 C 9.996094 12.484375 10.691406 12.0625 11.269531 11.511719 C 11.773438 11.023438 12.164062 10.335938 12.058594 9.617188 C 12.023438 9.234375 11.660156 8.921875 11.269531 8.921875 C 10.609375 8.855469 9.984375 9.175781 9.507812 9.59375 C 8.636719 10.359375 8.09375 11.433594 7.84375 12.542969 C 7.472656 12.722656 7.09375 12.902344 6.730469 13.085938 C 6.585938 12.621094 6.351562 12.183594 6.03125 11.8125 C 6.929688 11.253906 7.804688 10.566406 8.273438 9.605469 C 8.488281 9.140625 8.59375 8.601562 8.417969 8.113281 C 8.253906 7.679688 7.789062 7.425781 7.332031 7.394531 C 6.25 7.292969 5.167969 7.734375 4.355469 8.421875 C 4.117188 8.640625 3.839844 8.867188 3.761719 9.195312 C 3.65625 9.566406 3.542969 9.933594 3.441406 10.304688 C 3.523438 10.300781 3.613281 10.292969 3.695312 10.285156 C 4.109375 9.742188 4.59375 9.222656 5.222656 8.921875 C 5.558594 8.769531 6.023438 8.726562 6.292969 9.011719 C 6.515625 9.320312 6.390625 9.730469 6.269531 10.050781 C 5.859375 10.980469 5.035156 11.636719 4.261719 12.261719 C 4.738281 12.691406 4.960938 13.304688 5.066406 13.910156 C 3.113281 15.007812 1.242188 16.542969 0.4375 18.675781 C 0.160156 19.460938 0.00390625 20.359375 0.332031 21.152344 C 0.496094 21.570312 0.917969 21.878906 1.375 21.855469 C 2.101562 21.828125 2.75 21.433594 3.296875 20.992188 C 4.605469 19.910156 5.589844 18.472656 6.246094 16.921875 C 6.648438 15.960938 6.894531 14.921875 6.847656 13.875 C 7.132812 13.730469 7.421875 13.59375 7.710938 13.457031 C 7.6875 14.054688 7.710938 14.691406 8.027344 15.222656 C 8.195312 15.523438 8.550781 15.714844 8.894531 15.640625 C 9.445312 15.527344 9.878906 15.136719 10.242188 14.742188 C 10.816406 14.070312 11.34375 13.367188 11.910156 12.683594 C 11.714844 13.394531 11.484375 14.101562 11.289062 14.816406 C 11.765625 14.671875 12.246094 14.519531 12.71875 14.355469 C 12.945312 13.578125 13.164062 12.796875 13.40625 12.023438 C 13.738281 11.933594 14.066406 11.855469 14.398438 11.773438 C 14.183594 12.523438 13.957031 13.273438 13.746094 14.023438 C 14.128906 13.886719 14.527344 13.773438 14.914062 13.644531 C 15.0625 13.605469 15.15625 13.484375 15.242188 13.371094 C 15.703125 12.757812 16.175781 12.15625 16.636719 11.550781 C 16.597656 11.855469 16.566406 12.167969 16.625 12.472656 C 16.671875 12.722656 16.84375 12.980469 17.121094 13 C 17.503906 13.054688 17.839844 12.800781 18.046875 12.511719 C 18.410156 12.003906 18.667969 11.433594 18.976562 10.898438 C 18.863281 11.394531 18.78125 11.898438 18.71875 12.398438 C 19.15625 12.207031 19.734375 12.21875 20.003906 11.78125 C 20.488281 11.152344 20.980469 10.539062 21.472656 9.921875 C 21.671875 9.921875 21.867188 9.921875 22.070312 9.921875 C 21.90625 10.453125 21.75 10.980469 21.578125 11.511719 C 21.980469 11.390625 22.378906 11.253906 22.78125 11.148438 C 22.933594 10.746094 23.039062 10.328125 23.171875 9.921875 C 24.429688 9.925781 25.683594 9.921875 26.945312 9.921875 C 20.496094 12.503906 14.035156 15.074219 7.578125 17.660156 C 7.460938 17.675781 7.441406 17.824219 7.402344 17.929688 Z M 10.09375 10.195312 C 10.203125 10.015625 10.332031 9.789062 10.5625 9.753906 C 10.746094 9.816406 10.765625 10.050781 10.742188 10.210938 C 10.632812 10.957031 10.085938 11.554688 9.460938 11.945312 C 9.601562 11.339844 9.789062 10.734375 10.09375 10.195312 Z M 4.304688 18.09375 C 3.996094 18.78125 3.636719 19.46875 3.09375 20.007812 C 2.851562 20.242188 2.542969 20.464844 2.1875 20.464844 C 1.890625 20.386719 1.839844 20.03125 1.816406 19.777344 C 1.847656 18.8125 2.234375 17.894531 2.761719 17.089844 C 3.367188 16.179688 4.171875 15.390625 5.085938 14.785156 C 5.039062 15.925781 4.746094 17.039062 4.304688 18.09375 Z M 4.304688 18.09375 "/>
<path style=" stroke:none;fill-rule:nonzero;fill:rgb(0%,59.215686%,85.882353%);fill-opacity:1;" d="M 21.792969 16.03125 C 21.433594 16.03125 21.082031 16.03125 20.722656 16.03125 C 20.722656 16.226562 20.722656 16.425781 20.722656 16.625 C 20.855469 16.625 20.988281 16.625 21.125 16.625 C 21.125 17.292969 21.125 17.96875 21.125 18.636719 C 21.351562 18.636719 21.578125 18.636719 21.804688 18.636719 C 21.800781 17.769531 21.824219 16.902344 21.792969 16.03125 Z M 21.792969 16.03125 "/>
<path style=" stroke:none;fill-rule:nonzero;fill:rgb(0%,59.215686%,85.882353%);fill-opacity:1;" d="M 26.328125 16.582031 C 26.183594 15.941406 25.289062 15.78125 24.796875 16.136719 C 24.527344 16.316406 24.449219 16.644531 24.386719 16.933594 C 24.609375 16.941406 24.820312 16.941406 25.042969 16.941406 C 25.066406 16.671875 25.238281 16.464844 25.527344 16.480469 C 25.691406 16.507812 25.753906 16.742188 25.710938 16.914062 C 25.648438 17.101562 25.519531 17.25 25.394531 17.398438 C 25.03125 17.8125 24.675781 18.234375 24.320312 18.648438 C 24.984375 18.644531 25.660156 18.648438 26.332031 18.648438 C 26.332031 18.457031 26.332031 18.265625 26.332031 18.074219 C 26.082031 18.074219 25.824219 18.074219 25.570312 18.074219 C 25.9375 17.660156 26.511719 17.207031 26.328125 16.582031 Z M 26.328125 16.582031 "/>
<path style=" stroke:none;fill-rule:nonzero;fill:rgb(0%,59.215686%,85.882353%);fill-opacity:1;" d="M 28.199219 17.078125 C 27.957031 16.882812 27.636719 16.933594 27.355469 16.933594 C 27.371094 16.824219 27.386719 16.71875 27.402344 16.605469 C 27.730469 16.59375 28.058594 16.59375 28.386719 16.59375 C 28.386719 16.40625 28.386719 16.214844 28.386719 16.03125 C 27.914062 16.03125 27.441406 16.03125 26.96875 16.03125 C 26.882812 16.492188 26.769531 16.964844 26.6875 17.429688 C 26.988281 17.335938 27.328125 17.226562 27.628906 17.375 C 27.957031 17.523438 27.882812 18.0625 27.535156 18.136719 C 27.191406 18.261719 26.867188 18.050781 26.605469 17.84375 C 26.585938 18.054688 26.566406 18.273438 26.542969 18.488281 C 27.039062 18.78125 27.730469 18.816406 28.179688 18.425781 C 28.582031 18.105469 28.605469 17.410156 28.199219 17.078125 Z M 28.199219 17.078125 "/>
<path style=" stroke:none;fill-rule:nonzero;fill:rgb(0%,59.215686%,85.882353%);fill-opacity:1;" d="M 24.117188 16.363281 C 23.816406 15.917969 23.132812 15.851562 22.679688 16.105469 C 22.171875 16.394531 22.089844 17.183594 22.511719 17.578125 C 22.707031 17.757812 22.984375 17.769531 23.234375 17.765625 C 23.015625 18.050781 22.8125 18.347656 22.617188 18.644531 C 22.871094 18.644531 23.128906 18.644531 23.378906 18.644531 C 23.601562 18.308594 23.847656 17.988281 24.058594 17.648438 C 24.292969 17.261719 24.355469 16.753906 24.117188 16.363281 Z M 23.46875 16.523438 C 23.613281 16.585938 23.714844 16.730469 23.714844 16.898438 C 23.714844 17.058594 23.613281 17.199219 23.472656 17.261719 C 23.472656 17.261719 23.386719 17.292969 23.355469 17.292969 C 23.335938 17.292969 23.316406 17.300781 23.296875 17.300781 C 23.210938 17.300781 23.128906 17.273438 23.066406 17.226562 L 23.058594 17.226562 C 23.035156 17.207031 23.015625 17.1875 22.996094 17.167969 C 22.925781 17.09375 22.886719 17.003906 22.886719 16.898438 C 22.886719 16.671875 23.070312 16.488281 23.304688 16.488281 C 23.328125 16.488281 23.355469 16.488281 23.378906 16.492188 C 23.410156 16.5 23.46875 16.523438 23.46875 16.523438 Z M 23.46875 16.523438 "/>
</g>
</svg>
