<?xml version="1.0" encoding="UTF-8"?>
<svg xmlns="http://www.w3.org/2000/svg" xmlns:xlink="http://www.w3.org/1999/xlink" width="32px" height="32px" viewBox="0 0 32 32" version="1.1">
<g id="surface1">
<path style=" stroke:none;fill-rule:nonzero;fill:rgb(24.313725%,27.058824%,28.627451%);fill-opacity:1;" d="M 16.050781 32.03125 C 24.875 32.03125 32.066406 24.839844 32.066406 16.015625 C 32.066406 7.199219 24.875 0 16.050781 0 C 7.234375 0 0.0390625 7.199219 0.0390625 16.015625 C 0.0390625 24.839844 7.234375 32.03125 16.050781 32.03125 Z M 16.050781 32.03125 "/>
<path style=" stroke:none;fill-rule:nonzero;fill:rgb(100%,100%,100%);fill-opacity:1;" d="M 16.050781 31.546875 C 24.605469 31.546875 31.578125 24.566406 31.578125 16.015625 C 31.578125 7.464844 24.605469 0.492188 16.050781 0.492188 C 7.5 0.492188 0.527344 7.464844 0.527344 16.015625 C 0.527344 24.566406 7.5 31.546875 16.050781 31.546875 Z M 16.050781 31.546875 "/>
<path style=" stroke:none;fill-rule:nonzero;fill:rgb(27.058824%,27.058824%,27.058824%);fill-opacity:1;" d="M 16.050781 26.566406 C 21.863281 26.566406 26.601562 21.824219 26.601562 16.015625 C 26.601562 10.207031 21.863281 5.46875 16.050781 5.46875 C 10.242188 5.46875 5.503906 10.207031 5.503906 16.015625 C 5.503906 21.824219 10.242188 26.566406 16.050781 26.566406 Z M 16.050781 26.566406 "/>
<path style=" stroke:none;fill-rule:nonzero;fill:rgb(88.627451%,0%,14.509804%);fill-opacity:1;" d="M 7.160156 11.335938 C 8.8125 8.207031 12.070312 6.046875 15.828125 5.960938 C 14.714844 7.457031 13.332031 8.796875 11.75 9.773438 C 10.796875 10.351562 9.773438 10.804688 8.6875 11.078125 C 8.183594 11.207031 7.675781 11.285156 7.160156 11.335938 Z M 7.160156 11.335938 "/>
<path style=" stroke:none;fill-rule:nonzero;fill:rgb(88.627451%,0%,14.509804%);fill-opacity:1;" d="M 14.601562 25.972656 C 9.746094 25.261719 5.996094 21.0625 5.996094 16.015625 C 5.996094 14.636719 6.28125 13.3125 6.785156 12.113281 C 6.800781 12.351562 6.816406 12.589844 6.839844 12.820312 C 7.089844 15.296875 7.992188 17.828125 9.371094 20.140625 C 10.714844 22.382812 12.515625 24.417969 14.601562 25.972656 Z M 14.601562 25.972656 "/>
<path style=" stroke:none;fill-rule:nonzero;fill:rgb(88.627451%,0%,14.509804%);fill-opacity:1;" d="M 25.320312 12.113281 C 25.828125 13.3125 26.109375 14.636719 26.109375 16.015625 C 26.109375 21.0625 22.359375 25.261719 17.507812 25.972656 C 19.59375 24.417969 21.390625 22.382812 22.738281 20.140625 C 24.132812 17.800781 25.042969 15.226562 25.277344 12.722656 C 25.296875 12.519531 25.3125 12.316406 25.320312 12.113281 Z M 25.320312 12.113281 "/>
<path style=" stroke:none;fill-rule:nonzero;fill:rgb(88.627451%,0%,14.509804%);fill-opacity:1;" d="M 16.273438 5.960938 C 20.035156 6.046875 23.292969 8.207031 24.949219 11.335938 C 24.519531 11.296875 24.09375 11.230469 23.667969 11.136719 C 22.492188 10.875 21.382812 10.398438 20.359375 9.773438 C 18.773438 8.796875 17.390625 7.457031 16.273438 5.960938 Z M 16.273438 5.960938 "/>
<path style=" stroke:none;fill-rule:nonzero;fill:rgb(8.627451%,22.352941%,38.431373%);fill-opacity:1;" d="M 8.496094 11.367188 L 23.613281 11.367188 C 22.414062 11.097656 21.28125 10.609375 20.238281 9.96875 C 18.609375 8.972656 17.1875 7.589844 16.050781 6.050781 C 14.917969 7.589844 13.503906 8.972656 11.867188 9.96875 C 10.824219 10.609375 9.691406 11.097656 8.496094 11.367188 Z M 8.496094 11.367188 "/>
<path style=" stroke:none;fill-rule:nonzero;fill:rgb(8.627451%,22.352941%,38.431373%);fill-opacity:1;" d="M 10.894531 17.003906 L 8.101562 17.003906 C 8.5 18.03125 8.992188 19.046875 9.574219 20.015625 C 10.972656 22.359375 12.871094 24.464844 15.082031 26.027344 C 15.226562 26.039062 15.363281 26.050781 15.507812 26.0625 C 15.589844 25.578125 15.550781 23.351562 15.535156 23.25 C 15.433594 23.132812 15.335938 23.066406 15.222656 23.019531 C 15.097656 22.976562 14.949219 22.957031 14.765625 22.949219 C 14.589844 22.949219 14.445312 22.964844 14.308594 22.996094 C 14.167969 23.019531 14.023438 23.066406 13.851562 23.125 C 13.691406 23.175781 13.5625 23.222656 13.421875 23.222656 C 13.273438 23.222656 13.136719 23.167969 12.976562 23.015625 C 12.945312 22.992188 12.921875 22.964844 12.890625 22.9375 C 12.773438 22.816406 12.652344 22.699219 12.519531 22.699219 C 12.355469 22.703125 12.207031 22.683594 12.070312 22.644531 C 11.9375 22.601562 11.8125 22.535156 11.710938 22.4375 C 11.476562 22.214844 11.476562 21.902344 11.480469 21.648438 C 11.480469 21.539062 11.480469 21.449219 11.460938 21.410156 C 11.429688 21.347656 11.328125 21.265625 11.199219 21.191406 C 11.058594 21.109375 10.898438 21.027344 10.773438 20.972656 C 10.550781 20.875 10.414062 20.707031 10.328125 20.507812 C 10.253906 20.316406 10.230469 20.09375 10.234375 19.878906 C 10.238281 19.785156 10.238281 19.695312 10.222656 19.617188 C 10.214844 19.550781 10.199219 19.5 10.167969 19.46875 L 10.164062 19.464844 C 10.09375 19.382812 10.019531 19.300781 9.964844 19.195312 C 9.90625 19.085938 9.867188 18.957031 9.867188 18.800781 C 9.867188 18.667969 9.90625 18.554688 9.96875 18.46875 C 10.050781 18.367188 10.164062 18.304688 10.269531 18.304688 C 10.515625 18.296875 10.761719 18.535156 10.914062 18.695312 C 10.929688 18.703125 10.9375 18.71875 10.953125 18.726562 C 11.023438 18.800781 11.109375 18.882812 11.191406 18.945312 C 11.277344 19.007812 11.363281 19.054688 11.445312 19.074219 C 11.613281 19.117188 11.75 19.109375 11.863281 19.105469 C 11.867188 19.105469 11.875 19.105469 11.882812 19.105469 C 12.085938 19.101562 12.234375 19.125 12.359375 19.203125 C 12.484375 19.28125 12.574219 19.398438 12.664062 19.585938 C 12.761719 19.785156 12.84375 19.785156 12.984375 19.785156 C 13.035156 19.78125 13.085938 19.78125 13.144531 19.785156 C 13.46875 19.800781 13.546875 19.949219 13.675781 20.195312 C 13.695312 20.234375 13.714844 20.273438 13.742188 20.308594 C 13.789062 20.398438 13.835938 20.464844 13.886719 20.527344 C 13.929688 20.578125 13.96875 20.609375 14.003906 20.636719 C 14.058594 20.664062 14.109375 20.675781 14.167969 20.691406 C 14.269531 20.710938 14.382812 20.734375 14.5625 20.847656 C 14.671875 20.917969 14.746094 21.019531 14.800781 21.132812 C 14.847656 21.242188 14.878906 21.359375 14.902344 21.480469 C 14.957031 21.71875 14.996094 21.933594 15.082031 22.089844 C 15.160156 22.246094 15.285156 22.363281 15.515625 22.449219 C 15.515625 22.425781 15.519531 22.398438 15.519531 22.363281 C 15.558594 21.621094 15.574219 21.148438 15.535156 20.835938 C 15.503906 20.550781 15.425781 20.40625 15.277344 20.308594 C 14.820312 19.988281 14.34375 19.671875 13.90625 19.382812 C 13.472656 19.109375 13.074219 18.867188 12.761719 18.714844 C 12.707031 18.703125 12.648438 18.695312 12.589844 18.6875 C 12.519531 18.683594 12.460938 18.683594 12.398438 18.679688 C 12.375 18.679688 12.359375 18.679688 12.339844 18.679688 C 12.046875 18.671875 11.773438 18.664062 11.472656 18.453125 C 11.292969 18.332031 11.164062 18.1875 11.09375 18.027344 C 11.027344 17.875 11.023438 17.703125 11.101562 17.546875 C 11.117188 17.515625 11.132812 17.496094 11.144531 17.476562 C 11.171875 17.417969 11.1875 17.390625 11.136719 17.34375 C 11.058594 17.265625 10.972656 17.167969 10.917969 17.058594 C 10.910156 17.042969 10.898438 17.023438 10.894531 17.003906 Z M 10.894531 17.003906 "/>
<path style=" stroke:none;fill-rule:nonzero;fill:rgb(8.627451%,22.352941%,38.431373%);fill-opacity:1;" d="M 14.917969 17.003906 L 12.296875 17.003906 C 12.359375 17.089844 12.453125 17.109375 12.554688 17.132812 C 12.652344 17.152344 12.757812 17.179688 12.867188 17.242188 C 12.949219 17.292969 13.03125 17.363281 13.09375 17.453125 C 13.160156 17.542969 13.210938 17.65625 13.238281 17.789062 C 13.25 17.839844 13.253906 17.867188 13.257812 17.898438 C 13.277344 18.007812 13.292969 18.082031 13.429688 18.1875 C 13.925781 18.554688 14.40625 18.867188 14.84375 19.15625 C 15.15625 19.355469 15.445312 19.542969 15.699219 19.726562 L 15.691406 19.722656 C 15.699219 19.722656 15.703125 19.726562 15.707031 19.726562 C 15.714844 19.671875 15.707031 19.601562 15.699219 19.527344 C 15.683594 19.4375 15.664062 19.339844 15.644531 19.261719 C 15.269531 18.8125 15.039062 18.503906 14.898438 18.242188 C 14.75 17.953125 14.710938 17.71875 14.734375 17.425781 C 14.746094 17.308594 14.777344 17.195312 14.855469 17.089844 C 14.867188 17.058594 14.894531 17.027344 14.917969 17.003906 Z M 14.917969 17.003906 "/>
<path style=" stroke:none;fill-rule:nonzero;fill:rgb(8.627451%,22.352941%,38.431373%);fill-opacity:1;" d="M 20.175781 17.003906 L 17.125 17.003906 C 17.078125 17.058594 17.035156 17.113281 16.988281 17.160156 C 17.089844 17.273438 17.160156 17.382812 17.207031 17.492188 C 17.277344 17.636719 17.300781 17.769531 17.300781 17.902344 C 17.296875 18.183594 17.171875 18.425781 17 18.644531 C 16.847656 18.847656 16.652344 19.023438 16.46875 19.175781 C 16.453125 19.25 16.445312 19.34375 16.445312 19.433594 C 16.445312 19.535156 16.453125 19.628906 16.46875 19.695312 C 16.472656 19.695312 16.476562 19.703125 16.484375 19.707031 C 16.488281 19.707031 16.492188 19.707031 16.496094 19.707031 C 16.503906 19.707031 16.503906 19.707031 16.507812 19.703125 L 16.511719 19.703125 C 16.574219 19.667969 16.695312 19.597656 16.820312 19.527344 C 17.433594 19.183594 18.164062 18.777344 18.871094 18.261719 C 18.9375 18.210938 18.976562 18.164062 19.007812 18.101562 C 19.03125 18.039062 19.042969 17.964844 19.042969 17.875 C 19.046875 17.734375 19.085938 17.609375 19.144531 17.511719 C 19.21875 17.386719 19.324219 17.292969 19.425781 17.234375 C 19.554688 17.160156 19.695312 17.160156 19.835938 17.164062 C 19.957031 17.164062 20.070312 17.167969 20.121094 17.09375 C 20.140625 17.070312 20.152344 17.035156 20.175781 17.003906 Z M 20.175781 17.003906 "/>
<path style=" stroke:none;fill-rule:nonzero;fill:rgb(8.627451%,22.352941%,38.431373%);fill-opacity:1;" d="M 16.53125 26.066406 C 16.695312 26.054688 16.859375 26.046875 17.023438 26.027344 C 19.234375 24.464844 21.132812 22.359375 22.535156 20.015625 C 23.113281 19.046875 23.605469 18.03125 24.003906 17.003906 L 21.523438 17.003906 C 21.5 17.058594 21.472656 17.109375 21.441406 17.152344 C 21.386719 17.238281 21.328125 17.308594 21.265625 17.378906 C 21.167969 17.496094 21.164062 17.660156 21.164062 17.820312 C 21.164062 18.128906 21.164062 18.429688 20.671875 18.625 C 20.496094 18.6875 20.367188 18.722656 20.242188 18.742188 C 20.121094 18.769531 20.003906 18.769531 19.851562 18.773438 C 19.742188 18.777344 19.636719 18.78125 19.542969 18.796875 C 19.449219 18.8125 19.363281 18.835938 19.28125 18.890625 C 19.097656 19 18.882812 19.125 18.652344 19.253906 C 18.011719 19.621094 17.242188 20.070312 16.886719 20.382812 C 16.746094 20.503906 16.65625 20.640625 16.601562 20.914062 C 16.546875 21.207031 16.539062 21.65625 16.558594 22.382812 C 16.5625 22.472656 16.5625 22.503906 16.5625 22.503906 C 16.574219 22.507812 16.628906 22.480469 16.691406 22.449219 C 16.8125 22.390625 16.949219 22.289062 17.058594 22.191406 C 17.160156 22.101562 17.226562 22.023438 17.238281 21.980469 C 17.242188 21.957031 17.253906 21.902344 17.261719 21.84375 C 17.328125 21.53125 17.421875 21.058594 17.675781 20.894531 C 17.800781 20.808594 17.933594 20.789062 18.074219 20.769531 C 18.164062 20.761719 18.25 20.746094 18.328125 20.714844 C 18.359375 20.707031 18.394531 20.617188 18.433594 20.511719 C 18.53125 20.261719 18.644531 19.960938 19.050781 19.945312 C 19.101562 19.941406 19.152344 19.941406 19.199219 19.941406 C 19.390625 19.941406 19.542969 19.941406 19.648438 19.730469 C 19.742188 19.542969 19.820312 19.429688 19.9375 19.355469 C 20.050781 19.273438 20.1875 19.253906 20.394531 19.261719 C 20.414062 19.261719 20.433594 19.261719 20.449219 19.261719 C 20.597656 19.265625 20.890625 19.273438 21.042969 19.238281 C 21.15625 19.214844 21.191406 19.175781 21.246094 19.109375 C 21.277344 19.078125 21.308594 19.042969 21.351562 18.996094 C 21.371094 18.976562 21.390625 18.957031 21.410156 18.9375 C 21.539062 18.804688 21.648438 18.6875 21.882812 18.695312 C 21.960938 18.699219 22.058594 18.707031 22.140625 18.753906 C 22.242188 18.808594 22.308594 18.902344 22.308594 19.070312 C 22.308594 19.164062 22.269531 19.285156 22.214844 19.398438 C 22.160156 19.519531 22.078125 19.640625 22.003906 19.726562 L 21.996094 19.730469 C 21.96875 19.761719 21.9375 19.839844 21.914062 19.941406 C 21.882812 20.066406 21.863281 20.203125 21.867188 20.296875 C 21.875 20.511719 21.863281 20.707031 21.804688 20.875 C 21.738281 21.058594 21.613281 21.203125 21.386719 21.300781 C 21.300781 21.339844 21.207031 21.371094 21.125 21.402344 C 20.945312 21.460938 20.769531 21.519531 20.707031 21.613281 C 20.679688 21.648438 20.671875 21.769531 20.65625 21.902344 C 20.632812 22.160156 20.605469 22.46875 20.402344 22.609375 C 20.296875 22.683594 20.175781 22.71875 20.035156 22.738281 C 19.902344 22.757812 19.757812 22.757812 19.597656 22.757812 C 19.527344 22.757812 19.457031 22.792969 19.382812 22.835938 C 19.28125 22.90625 19.179688 23.015625 19.105469 23.105469 C 18.808594 23.46875 18.566406 23.359375 18.261719 23.222656 C 18.191406 23.195312 18.121094 23.164062 18.046875 23.132812 C 17.933594 23.101562 17.8125 23.058594 17.683594 23.035156 C 17.566406 23.011719 17.441406 22.992188 17.328125 22.996094 C 17.140625 22.996094 16.976562 23.011719 16.835938 23.054688 C 16.710938 23.09375 16.605469 23.164062 16.507812 23.269531 C 16.476562 23.457031 16.484375 25.03125 16.488281 25.359375 C 16.492188 25.59375 16.503906 25.828125 16.53125 26.066406 Z M 16.53125 26.066406 "/>
<path style=" stroke:none;fill-rule:nonzero;fill:rgb(100%,92.941176%,0%);fill-opacity:1;" d="M 25.101562 11.605469 L 7.003906 11.605469 C 7.023438 13.308594 7.382812 15.058594 8.011719 16.769531 L 10.835938 16.769531 C 10.835938 16.761719 10.835938 16.757812 10.835938 16.75 C 10.835938 16.703125 10.835938 16.652344 10.84375 16.605469 C 10.871094 16.46875 10.933594 16.363281 11.023438 16.292969 C 11.113281 16.222656 11.222656 16.195312 11.339844 16.195312 C 11.390625 16.191406 11.441406 16.195312 11.492188 16.203125 C 11.601562 16.226562 11.710938 16.253906 11.8125 16.3125 C 11.917969 16.375 12.011719 16.457031 12.085938 16.578125 C 12.132812 16.652344 12.160156 16.710938 12.1875 16.769531 L 14.941406 16.769531 C 14.855469 16.648438 14.773438 16.507812 14.714844 16.359375 C 14.625 16.140625 14.574219 15.90625 14.59375 15.664062 C 14.605469 15.527344 14.648438 15.40625 14.730469 15.289062 C 14.789062 15.203125 14.875 15.113281 14.976562 15.027344 C 14.972656 15.003906 14.96875 14.976562 14.960938 14.953125 C 14.859375 14.515625 14.722656 13.945312 15.535156 13.414062 C 15.550781 13.113281 15.589844 12.886719 15.683594 12.707031 C 15.789062 12.503906 15.941406 12.363281 16.183594 12.277344 L 16.265625 12.277344 C 16.507812 12.363281 16.679688 12.519531 16.785156 12.742188 C 16.886719 12.941406 16.921875 13.195312 16.898438 13.496094 C 17.597656 14.167969 17.347656 14.695312 17.207031 14.976562 C 17.296875 15.074219 17.378906 15.179688 17.4375 15.300781 C 17.527344 15.476562 17.574219 15.660156 17.585938 15.796875 C 17.601562 16.035156 17.527344 16.300781 17.410156 16.539062 C 17.378906 16.617188 17.332031 16.695312 17.289062 16.769531 L 20.308594 16.769531 C 20.328125 16.742188 20.347656 16.707031 20.367188 16.671875 C 20.441406 16.550781 20.515625 16.46875 20.609375 16.410156 C 20.707031 16.347656 20.808594 16.320312 20.925781 16.308594 C 21.007812 16.304688 21.097656 16.3125 21.175781 16.335938 C 21.277344 16.359375 21.371094 16.402344 21.445312 16.46875 C 21.519531 16.542969 21.574219 16.632812 21.578125 16.746094 C 21.578125 16.757812 21.578125 16.761719 21.578125 16.769531 L 24.09375 16.769531 C 24.722656 15.058594 25.082031 13.308594 25.101562 11.605469 Z M 25.101562 11.605469 "/>
<path style=" stroke:none;fill-rule:nonzero;fill:rgb(22.352941%,65.098039%,25.882353%);fill-opacity:1;" d="M 16.285156 26.070312 C 16.203125 26.074219 16.128906 26.074219 16.050781 26.074219 C 15.957031 26.074219 15.863281 26.074219 15.773438 26.070312 C 15.78125 25.957031 15.789062 25.726562 15.792969 25.613281 C 15.800781 25.335938 15.800781 25.015625 15.800781 24.734375 C 15.800781 24.683594 15.808594 24.640625 15.808594 24.59375 C 15.808594 24.335938 15.808594 24.039062 15.800781 23.777344 C 15.796875 23.511719 15.78125 23.285156 15.757812 23.167969 L 15.734375 23.121094 C 15.605469 22.960938 15.464844 22.863281 15.304688 22.800781 C 15.152344 22.742188 14.976562 22.722656 14.765625 22.71875 C 14.582031 22.710938 14.421875 22.730469 14.261719 22.761719 C 14.105469 22.796875 13.953125 22.84375 13.777344 22.902344 C 13.636719 22.945312 13.523438 22.992188 13.421875 22.984375 C 13.332031 22.984375 13.242188 22.949219 13.136719 22.847656 C 13.109375 22.820312 13.085938 22.796875 13.058594 22.773438 C 12.90625 22.617188 12.746094 22.464844 12.515625 22.464844 C 12.375 22.464844 12.25 22.453125 12.140625 22.417969 C 12.035156 22.390625 11.949219 22.339844 11.867188 22.265625 C 11.710938 22.117188 11.714844 21.859375 11.714844 21.65625 C 11.714844 21.515625 11.714844 21.394531 11.675781 21.308594 C 11.621094 21.199219 11.480469 21.089844 11.320312 20.988281 C 11.171875 20.898438 11.003906 20.820312 10.871094 20.761719 C 10.710938 20.691406 10.605469 20.566406 10.546875 20.417969 C 10.480469 20.261719 10.46875 20.074219 10.472656 19.886719 C 10.472656 19.785156 10.472656 19.675781 10.457031 19.582031 C 10.441406 19.46875 10.40625 19.375 10.332031 19.300781 L 10.339844 19.304688 C 10.277344 19.234375 10.214844 19.164062 10.167969 19.082031 C 10.128906 19.007812 10.097656 18.914062 10.097656 18.804688 C 10.097656 18.722656 10.125 18.660156 10.160156 18.613281 C 10.195312 18.570312 10.238281 18.539062 10.277344 18.539062 C 10.421875 18.535156 10.621094 18.726562 10.75 18.859375 C 10.765625 18.871094 10.773438 18.882812 10.785156 18.898438 C 10.863281 18.976562 10.953125 19.0625 11.054688 19.136719 C 11.15625 19.214844 11.277344 19.28125 11.394531 19.304688 C 11.59375 19.347656 11.742188 19.34375 11.867188 19.34375 C 11.871094 19.34375 11.882812 19.34375 11.886719 19.34375 C 12.046875 19.339844 12.15625 19.355469 12.234375 19.402344 C 12.316406 19.453125 12.378906 19.542969 12.453125 19.691406 C 12.617188 20.023438 12.746094 20.023438 12.992188 20.019531 C 13.03125 20.019531 13.082031 20.019531 13.136719 20.019531 C 13.324219 20.03125 13.378906 20.132812 13.46875 20.308594 C 13.488281 20.34375 13.507812 20.378906 13.539062 20.425781 C 13.59375 20.527344 13.652344 20.609375 13.707031 20.675781 C 13.765625 20.75 13.824219 20.804688 13.886719 20.839844 C 13.972656 20.890625 14.042969 20.902344 14.117188 20.917969 C 14.199219 20.9375 14.292969 20.957031 14.4375 21.046875 C 14.5 21.09375 14.550781 21.15625 14.585938 21.230469 C 14.625 21.320312 14.65625 21.425781 14.675781 21.523438 C 14.730469 21.789062 14.769531 22.007812 14.875 22.199219 C 14.976562 22.402344 15.140625 22.5625 15.433594 22.667969 C 15.578125 22.722656 15.652344 22.699219 15.707031 22.609375 C 15.746094 22.546875 15.746094 22.480469 15.753906 22.375 C 15.792969 21.621094 15.8125 21.136719 15.773438 20.804688 C 15.726562 20.441406 15.617188 20.253906 15.410156 20.113281 C 14.949219 19.796875 14.472656 19.472656 14.027344 19.191406 C 13.585938 18.902344 13.175781 18.652344 12.851562 18.496094 L 12.820312 18.484375 C 12.742188 18.46875 12.671875 18.460938 12.609375 18.453125 C 12.542969 18.449219 12.472656 18.445312 12.410156 18.445312 C 12.394531 18.445312 12.371094 18.445312 12.34375 18.445312 C 12.089844 18.433594 11.847656 18.429688 11.605469 18.261719 C 11.464844 18.160156 11.363281 18.050781 11.3125 17.9375 C 11.273438 17.84375 11.265625 17.746094 11.316406 17.648438 C 11.328125 17.628906 11.335938 17.605469 11.347656 17.585938 C 11.441406 17.417969 11.484375 17.34375 11.296875 17.167969 C 11.230469 17.113281 11.171875 17.035156 11.128906 16.949219 C 11.09375 16.886719 11.070312 16.816406 11.070312 16.746094 C 11.070312 16.710938 11.074219 16.675781 11.078125 16.648438 C 11.089844 16.566406 11.121094 16.511719 11.167969 16.484375 C 11.210938 16.449219 11.277344 16.429688 11.347656 16.429688 C 11.382812 16.429688 11.417969 16.433594 11.449219 16.4375 C 11.535156 16.453125 11.621094 16.476562 11.699219 16.519531 C 11.769531 16.558594 11.839844 16.617188 11.886719 16.703125 C 11.941406 16.789062 11.96875 16.859375 11.992188 16.925781 C 12.023438 16.988281 12.042969 17.050781 12.085938 17.113281 C 12.199219 17.292969 12.34375 17.328125 12.503906 17.363281 C 12.582031 17.382812 12.667969 17.398438 12.746094 17.445312 C 12.808594 17.480469 12.863281 17.527344 12.902344 17.589844 C 12.953125 17.65625 12.984375 17.734375 13.011719 17.84375 C 13.015625 17.875 13.019531 17.910156 13.03125 17.9375 C 13.054688 18.101562 13.074219 18.214844 13.289062 18.375 C 13.78125 18.742188 14.273438 19.0625 14.71875 19.347656 C 15.027344 19.554688 15.316406 19.738281 15.5625 19.914062 C 15.605469 19.941406 15.636719 19.960938 15.671875 19.96875 C 15.714844 19.980469 15.753906 19.980469 15.792969 19.96875 C 15.832031 19.960938 15.867188 19.933594 15.890625 19.894531 C 15.90625 19.875 15.910156 19.855469 15.921875 19.835938 C 15.945312 19.742188 15.941406 19.621094 15.921875 19.5 C 15.90625 19.378906 15.890625 19.234375 15.835938 19.125 C 15.46875 18.683594 15.234375 18.386719 15.105469 18.132812 C 14.984375 17.894531 14.949219 17.695312 14.96875 17.445312 C 14.976562 17.367188 14.996094 17.289062 15.046875 17.21875 C 15.136719 17.089844 15.277344 17.019531 15.410156 16.941406 C 15.210938 16.734375 15.042969 16.539062 14.933594 16.269531 C 14.859375 16.085938 14.8125 15.882812 14.828125 15.683594 C 14.839844 15.589844 14.867188 15.503906 14.921875 15.425781 C 15.007812 15.300781 15.121094 15.210938 15.242188 15.121094 C 15.191406 14.894531 15.117188 14.667969 15.125 14.4375 C 15.136719 14.015625 15.429688 13.753906 15.769531 13.542969 C 15.773438 13.304688 15.78125 13.03125 15.886719 12.8125 C 15.957031 12.671875 16.066406 12.578125 16.226562 12.507812 C 16.382812 12.582031 16.503906 12.691406 16.578125 12.839844 C 16.6875 13.074219 16.675781 13.339844 16.65625 13.589844 C 16.890625 13.804688 17.113281 14.0625 17.125 14.402344 C 17.128906 14.640625 17.007812 14.832031 16.921875 15.046875 C 17.054688 15.152344 17.148438 15.25 17.226562 15.40625 C 17.296875 15.546875 17.34375 15.703125 17.351562 15.816406 C 17.363281 16.011719 17.296875 16.230469 17.199219 16.4375 C 17.0625 16.722656 16.890625 16.941406 16.652344 17.144531 C 16.785156 17.277344 16.914062 17.410156 16.996094 17.589844 C 17.042969 17.695312 17.0625 17.800781 17.0625 17.898438 C 17.058594 18.117188 16.960938 18.320312 16.816406 18.5 C 16.667969 18.695312 16.46875 18.867188 16.285156 19.019531 C 16.210938 19.140625 16.210938 19.292969 16.210938 19.433594 C 16.210938 19.550781 16.21875 19.671875 16.246094 19.761719 C 16.25 19.78125 16.257812 19.804688 16.273438 19.820312 C 16.300781 19.867188 16.339844 19.902344 16.390625 19.921875 C 16.445312 19.941406 16.503906 19.949219 16.5625 19.933594 C 16.582031 19.929688 16.605469 19.921875 16.628906 19.90625 C 16.765625 19.824219 16.851562 19.78125 16.933594 19.730469 C 17.550781 19.386719 18.296875 18.972656 19.011719 18.449219 C 19.117188 18.375 19.179688 18.289062 19.21875 18.191406 C 19.261719 18.097656 19.273438 17.992188 19.28125 17.878906 C 19.28125 17.785156 19.308594 17.699219 19.347656 17.628906 C 19.402344 17.539062 19.472656 17.476562 19.539062 17.4375 C 19.613281 17.390625 19.726562 17.398438 19.832031 17.398438 C 20.019531 17.402344 20.199219 17.40625 20.316406 17.222656 C 20.363281 17.152344 20.398438 17.09375 20.4375 17.019531 C 20.472656 16.953125 20.515625 16.878906 20.566406 16.796875 C 20.621094 16.707031 20.675781 16.648438 20.734375 16.605469 C 20.796875 16.566406 20.859375 16.550781 20.9375 16.546875 C 21.003906 16.542969 21.0625 16.546875 21.121094 16.5625 C 21.1875 16.578125 21.242188 16.605469 21.285156 16.640625 C 21.320312 16.671875 21.339844 16.710938 21.339844 16.761719 C 21.347656 16.78125 21.339844 16.804688 21.335938 16.832031 C 21.320312 16.898438 21.285156 16.964844 21.242188 17.023438 C 21.203125 17.089844 21.144531 17.160156 21.089844 17.222656 C 20.929688 17.410156 20.929688 17.617188 20.929688 17.820312 C 20.929688 18.046875 20.929688 18.269531 20.585938 18.398438 C 20.425781 18.464844 20.3125 18.496094 20.203125 18.515625 C 20.097656 18.53125 19.988281 18.535156 19.847656 18.539062 C 19.726562 18.542969 19.617188 18.542969 19.503906 18.5625 C 19.382812 18.585938 19.269531 18.617188 19.15625 18.6875 C 18.992188 18.789062 18.773438 18.910156 18.539062 19.050781 C 17.890625 19.421875 17.105469 19.875 16.726562 20.203125 C 16.550781 20.363281 16.433594 20.53125 16.375 20.871094 C 16.3125 21.183594 16.300781 21.644531 16.324219 22.394531 C 16.328125 22.609375 16.394531 22.703125 16.503906 22.730469 C 16.597656 22.757812 16.6875 22.710938 16.796875 22.65625 C 16.933594 22.589844 17.09375 22.480469 17.21875 22.363281 C 17.347656 22.25 17.445312 22.125 17.464844 22.035156 C 17.476562 21.976562 17.484375 21.9375 17.496094 21.886719 C 17.550781 21.613281 17.628906 21.203125 17.804688 21.085938 C 17.882812 21.039062 17.992188 21.023438 18.105469 21.003906 C 18.207031 20.988281 18.304688 20.972656 18.410156 20.933594 C 18.539062 20.890625 18.59375 20.75 18.652344 20.597656 C 18.722656 20.414062 18.808594 20.1875 19.0625 20.179688 C 19.109375 20.171875 19.160156 20.171875 19.199219 20.171875 C 19.472656 20.171875 19.691406 20.171875 19.859375 19.835938 C 19.933594 19.6875 19.988281 19.597656 20.058594 19.546875 L 20.066406 19.546875 C 20.132812 19.503906 20.226562 19.492188 20.386719 19.492188 C 20.402344 19.492188 20.417969 19.5 20.441406 19.5 C 20.601562 19.503906 20.910156 19.511719 21.097656 19.46875 C 21.285156 19.429688 21.339844 19.363281 21.429688 19.257812 C 21.449219 19.230469 21.480469 19.199219 21.515625 19.164062 C 21.539062 19.140625 21.558594 19.121094 21.578125 19.101562 C 21.667969 19.007812 21.742188 18.925781 21.878906 18.933594 C 21.925781 18.933594 21.988281 18.9375 22.027344 18.957031 C 22.050781 18.972656 22.070312 19.007812 22.070312 19.070312 C 22.070312 19.128906 22.046875 19.210938 22 19.300781 C 21.957031 19.398438 21.890625 19.5 21.828125 19.566406 L 21.832031 19.5625 C 21.769531 19.628906 21.71875 19.746094 21.683594 19.878906 C 21.648438 20.023438 21.628906 20.1875 21.628906 20.304688 C 21.632812 20.492188 21.628906 20.660156 21.585938 20.792969 C 21.539062 20.917969 21.449219 21.019531 21.292969 21.085938 C 21.222656 21.121094 21.132812 21.152344 21.046875 21.175781 C 20.835938 21.25 20.625 21.320312 20.515625 21.480469 C 20.453125 21.570312 20.4375 21.714844 20.421875 21.882812 C 20.402344 22.089844 20.382812 22.335938 20.269531 22.414062 C 20.199219 22.464844 20.105469 22.488281 20 22.503906 C 19.886719 22.523438 19.75 22.523438 19.597656 22.523438 C 19.476562 22.523438 19.363281 22.566406 19.253906 22.644531 C 19.125 22.726562 19.007812 22.851562 18.921875 22.957031 C 18.738281 23.179688 18.570312 23.105469 18.355469 23.011719 C 18.28125 22.976562 18.207031 22.941406 18.121094 22.914062 C 18.003906 22.871094 17.867188 22.835938 17.734375 22.804688 C 17.59375 22.777344 17.457031 22.757812 17.320312 22.757812 C 17.113281 22.761719 16.929688 22.777344 16.765625 22.832031 C 16.589844 22.890625 16.441406 22.984375 16.308594 23.140625 L 16.285156 23.1875 C 16.238281 23.382812 16.246094 23.910156 16.25 24.382812 C 16.25 24.464844 16.25 24.550781 16.25 24.625 C 16.25 24.859375 16.25 25.121094 16.253906 25.363281 C 16.253906 25.445312 16.257812 25.523438 16.257812 25.597656 C 16.265625 25.71875 16.273438 25.953125 16.285156 26.070312 Z M 16.285156 26.070312 "/>
<path style=" stroke:none;fill-rule:nonzero;fill:rgb(27.058824%,27.058824%,27.058824%);fill-opacity:1;" d="M 16.308594 14.078125 C 16.214844 14.210938 16.144531 14.351562 16.089844 14.5 C 16.074219 14.550781 16.054688 14.605469 16.046875 14.65625 C 16.046875 14.664062 16.039062 14.675781 16.035156 14.691406 C 16.019531 14.765625 16.011719 14.839844 16.007812 14.917969 C 15.984375 15.277344 16.074219 15.578125 16.164062 15.875 C 16.234375 16.09375 16.300781 16.320312 16.328125 16.566406 C 16.328125 16.582031 16.328125 16.597656 16.332031 16.613281 C 16.410156 16.574219 16.488281 16.507812 16.566406 16.410156 C 16.601562 16.359375 16.640625 16.320312 16.695312 16.359375 C 16.75 16.398438 16.726562 16.453125 16.6875 16.503906 C 16.578125 16.648438 16.457031 16.734375 16.34375 16.777344 C 16.347656 16.949219 16.339844 17.136719 16.3125 17.3125 C 16.285156 17.492188 16.230469 17.65625 16.148438 17.78125 C 16.109375 17.835938 16.050781 17.878906 16 17.839844 C 15.941406 17.792969 15.984375 17.738281 16.019531 17.683594 C 16.085938 17.585938 16.128906 17.441406 16.160156 17.289062 C 16.183594 17.128906 16.191406 16.964844 16.191406 16.8125 C 16.117188 16.816406 16.039062 16.800781 15.976562 16.777344 C 15.890625 16.742188 15.824219 16.6875 15.773438 16.617188 C 15.699219 16.527344 15.660156 16.410156 15.667969 16.289062 C 15.671875 16.234375 15.691406 16.183594 15.757812 16.199219 C 15.828125 16.210938 15.820312 16.253906 15.816406 16.3125 C 15.816406 16.386719 15.84375 16.464844 15.886719 16.523438 C 15.925781 16.566406 15.976562 16.605469 16.035156 16.632812 C 16.082031 16.648438 16.125 16.65625 16.179688 16.652344 C 16.175781 16.632812 16.175781 16.605469 16.171875 16.585938 C 16.144531 16.347656 16.082031 16.136719 16.015625 15.921875 C 15.921875 15.609375 15.828125 15.296875 15.847656 14.914062 C 15.851562 14.839844 15.863281 14.773438 15.871094 14.703125 C 15.835938 14.675781 15.808594 14.644531 15.777344 14.605469 C 15.742188 14.554688 15.71875 14.511719 15.699219 14.421875 C 15.6875 14.382812 15.683594 14.328125 15.753906 14.3125 C 15.816406 14.296875 15.835938 14.347656 15.847656 14.386719 C 15.863281 14.449219 15.875 14.480469 15.902344 14.511719 C 15.90625 14.519531 15.910156 14.527344 15.917969 14.53125 C 15.925781 14.503906 15.9375 14.476562 15.945312 14.445312 C 16 14.289062 16.082031 14.144531 16.179688 13.992188 C 16.199219 13.960938 16.246094 13.929688 16.292969 13.964844 C 16.339844 13.992188 16.332031 14.042969 16.308594 14.078125 Z M 16.308594 14.078125 "/>
<path style=" stroke:none;fill-rule:nonzero;fill:rgb(27.058824%,27.058824%,27.058824%);fill-opacity:1;" d="M 20.835938 20.242188 C 20.273438 20.917969 19.773438 21.171875 19.328125 21.402344 C 18.972656 21.585938 18.652344 21.75 18.367188 22.113281 C 18.335938 22.152344 18.265625 22.160156 18.226562 22.125 C 18.1875 22.089844 18.183594 22.027344 18.210938 21.992188 C 18.523438 21.59375 18.863281 21.421875 19.238281 21.226562 C 19.667969 21.007812 20.144531 20.761719 20.6875 20.113281 C 20.714844 20.078125 20.78125 20.070312 20.824219 20.105469 C 20.863281 20.140625 20.871094 20.203125 20.835938 20.242188 Z M 20.835938 20.242188 "/>
<path style=" stroke:none;fill-rule:nonzero;fill:rgb(27.058824%,27.058824%,27.058824%);fill-opacity:1;" d="M 11.476562 19.925781 C 12.015625 20.597656 12.492188 20.84375 12.921875 21.066406 C 13.292969 21.265625 13.625 21.441406 13.933594 21.839844 C 13.964844 21.878906 13.972656 21.9375 13.917969 21.976562 C 13.871094 22.007812 13.808594 21.996094 13.78125 21.957031 C 13.503906 21.59375 13.183594 21.425781 12.832031 21.242188 C 12.390625 21.007812 11.886719 20.75 11.320312 20.050781 C 11.292969 20.011719 11.296875 19.945312 11.335938 19.910156 C 11.375 19.875 11.445312 19.886719 11.476562 19.925781 Z M 11.476562 19.925781 "/>
<path style=" stroke:none;fill-rule:nonzero;fill:rgb(24.313725%,27.058824%,28.627451%);fill-opacity:1;" d="M 28.011719 24.582031 L 28.339844 24.808594 L 28.132812 25.105469 L 27.804688 24.878906 Z M 28.011719 24.582031 "/>
<path style=" stroke:none;fill-rule:nonzero;fill:rgb(24.313725%,27.058824%,28.627451%);fill-opacity:1;" d="M 28.429688 23.984375 L 28.757812 24.210938 L 28.550781 24.511719 L 28.222656 24.28125 Z M 28.429688 23.984375 "/>
<path style=" stroke:none;fill-rule:nonzero;fill:rgb(24.313725%,27.058824%,28.627451%);fill-opacity:1;" d="M 27.542969 24.949219 L 27.324219 25.257812 L 25.964844 24.308594 C 25.734375 24.144531 25.5625 23.984375 25.464844 23.835938 C 25.359375 23.6875 25.316406 23.507812 25.324219 23.308594 C 25.335938 23.109375 25.421875 22.894531 25.578125 22.667969 C 25.734375 22.449219 25.898438 22.296875 26.070312 22.210938 C 26.246094 22.121094 26.421875 22.101562 26.605469 22.140625 C 26.796875 22.179688 27.007812 22.289062 27.257812 22.464844 L 28.613281 23.414062 L 28.402344 23.722656 L 27.042969 22.773438 C 26.839844 22.632812 26.675781 22.542969 26.550781 22.511719 C 26.433594 22.484375 26.308594 22.5 26.195312 22.554688 C 26.074219 22.609375 25.972656 22.703125 25.875 22.835938 C 25.71875 23.066406 25.660156 23.265625 25.691406 23.4375 C 25.726562 23.605469 25.890625 23.789062 26.183594 24 Z M 27.542969 24.949219 "/>
<path style=" stroke:none;fill-rule:nonzero;fill:rgb(24.313725%,27.058824%,28.627451%);fill-opacity:1;" d="M 30.578125 18.539062 L 30.972656 18.605469 L 30.914062 18.96875 L 30.523438 18.902344 Z M 30.578125 18.539062 "/>
<path style=" stroke:none;fill-rule:nonzero;fill:rgb(24.313725%,27.058824%,28.627451%);fill-opacity:1;" d="M 30.691406 17.820312 L 31.089844 17.882812 L 31.027344 18.246094 L 30.636719 18.183594 Z M 30.691406 17.820312 "/>
<path style=" stroke:none;fill-rule:nonzero;fill:rgb(24.313725%,27.058824%,28.627451%);fill-opacity:1;" d="M 30.3125 19.074219 L 30.253906 19.453125 L 28.621094 19.195312 C 28.335938 19.152344 28.117188 19.082031 27.957031 18.992188 C 27.800781 18.898438 27.683594 18.761719 27.605469 18.578125 C 27.527344 18.390625 27.511719 18.160156 27.550781 17.894531 C 27.597656 17.625 27.675781 17.417969 27.792969 17.261719 C 27.910156 17.109375 28.0625 17.007812 28.246094 16.964844 C 28.429688 16.921875 28.675781 16.921875 28.972656 16.96875 L 30.605469 17.226562 L 30.546875 17.601562 L 28.917969 17.34375 C 28.667969 17.300781 28.484375 17.296875 28.359375 17.328125 C 28.238281 17.351562 28.136719 17.417969 28.054688 17.515625 C 27.972656 17.621094 27.917969 17.75 27.894531 17.914062 C 27.847656 18.1875 27.882812 18.394531 27.988281 18.53125 C 28.097656 18.667969 28.328125 18.761719 28.679688 18.816406 Z M 30.3125 19.074219 "/>
<path style=" stroke:none;fill-rule:nonzero;fill:rgb(24.313725%,27.058824%,28.627451%);fill-opacity:1;" d="M 27.699219 14.722656 L 30.5625 14.625 L 30.578125 14.996094 L 28.054688 15.085938 L 28.097656 16.496094 L 27.761719 16.507812 Z M 27.699219 14.722656 "/>
<path style=" stroke:none;fill-rule:nonzero;fill:rgb(24.313725%,27.058824%,28.627451%);fill-opacity:1;" d="M 30.359375 13.222656 L 30.449219 13.589844 L 28.84375 13.988281 C 28.566406 14.058594 28.332031 14.082031 28.152344 14.0625 C 27.972656 14.039062 27.808594 13.960938 27.664062 13.820312 C 27.519531 13.679688 27.417969 13.476562 27.351562 13.210938 C 27.28125 12.949219 27.277344 12.722656 27.328125 12.539062 C 27.371094 12.351562 27.472656 12.195312 27.625 12.085938 C 27.78125 11.972656 28.003906 11.878906 28.296875 11.804688 L 29.902344 11.40625 L 29.996094 11.773438 L 28.390625 12.171875 C 28.148438 12.230469 27.976562 12.300781 27.875 12.371094 C 27.769531 12.445312 27.699219 12.542969 27.664062 12.667969 C 27.628906 12.792969 27.636719 12.9375 27.675781 13.09375 C 27.738281 13.363281 27.847656 13.542969 28.003906 13.625 C 28.152344 13.710938 28.402344 13.710938 28.753906 13.621094 Z M 30.359375 13.222656 "/>
<path style=" stroke:none;fill-rule:nonzero;fill:rgb(24.313725%,27.058824%,28.627451%);fill-opacity:1;" d="M 26 9.8125 L 28.53125 8.464844 L 28.707031 8.796875 L 27.457031 9.46875 L 29.378906 10.054688 L 29.617188 10.507812 L 28.027344 9.996094 L 27.113281 11.902344 L 26.878906 11.460938 L 27.679688 9.875 L 27.058594 9.675781 L 26.179688 10.144531 Z M 26 9.8125 "/>
<path style=" stroke:none;fill-rule:nonzero;fill:rgb(24.313725%,27.058824%,28.627451%);fill-opacity:1;" d="M 16.117188 3.363281 L 16.476562 3.359375 C 16.484375 3.503906 16.511719 3.621094 16.566406 3.714844 C 16.628906 3.816406 16.714844 3.894531 16.839844 3.960938 C 16.964844 4.023438 17.109375 4.0625 17.273438 4.074219 C 17.417969 4.082031 17.546875 4.074219 17.660156 4.039062 C 17.773438 4.003906 17.859375 3.949219 17.917969 3.878906 C 17.976562 3.804688 18.011719 3.726562 18.019531 3.636719 C 18.023438 3.546875 18.003906 3.46875 17.953125 3.398438 C 17.910156 3.328125 17.824219 3.265625 17.710938 3.214844 C 17.636719 3.175781 17.472656 3.121094 17.214844 3.035156 C 16.953125 2.957031 16.769531 2.882812 16.671875 2.820312 C 16.542969 2.738281 16.445312 2.644531 16.382812 2.535156 C 16.324219 2.425781 16.300781 2.300781 16.308594 2.171875 C 16.320312 2.027344 16.367188 1.894531 16.464844 1.773438 C 16.554688 1.652344 16.675781 1.570312 16.839844 1.515625 C 17 1.460938 17.179688 1.441406 17.371094 1.449219 C 17.582031 1.464844 17.765625 1.515625 17.921875 1.59375 C 18.082031 1.675781 18.195312 1.785156 18.277344 1.921875 C 18.355469 2.0625 18.390625 2.214844 18.386719 2.378906 L 18.023438 2.382812 C 18.011719 2.199219 17.957031 2.0625 17.847656 1.960938 C 17.746094 1.859375 17.582031 1.804688 17.363281 1.789062 C 17.132812 1.773438 16.964844 1.804688 16.855469 1.878906 C 16.746094 1.953125 16.6875 2.050781 16.675781 2.171875 C 16.667969 2.273438 16.703125 2.359375 16.769531 2.429688 C 16.835938 2.503906 17.023438 2.582031 17.328125 2.671875 C 17.625 2.765625 17.835938 2.839844 17.945312 2.902344 C 18.109375 2.992188 18.222656 3.09375 18.292969 3.21875 C 18.367188 3.34375 18.394531 3.480469 18.386719 3.632812 C 18.371094 3.785156 18.320312 3.925781 18.222656 4.054688 C 18.128906 4.183594 17.992188 4.277344 17.824219 4.339844 C 17.65625 4.40625 17.472656 4.429688 17.269531 4.417969 C 17.007812 4.394531 16.796875 4.347656 16.628906 4.257812 C 16.457031 4.167969 16.328125 4.042969 16.238281 3.890625 C 16.148438 3.730469 16.109375 3.550781 16.117188 3.363281 Z M 16.117188 3.363281 "/>
<path style=" stroke:none;fill-rule:nonzero;fill:rgb(24.313725%,27.058824%,28.627451%);fill-opacity:1;" d="M 12.648438 4.796875 L 12.003906 2.007812 L 14.019531 1.539062 L 14.09375 1.867188 L 12.449219 2.25 L 12.644531 3.105469 L 14.1875 2.746094 L 14.261719 3.074219 L 12.722656 3.433594 L 12.941406 4.382812 L 14.65625 3.988281 L 14.730469 4.316406 Z M 12.648438 4.796875 "/>
<path style=" stroke:none;fill-rule:nonzero;fill:rgb(24.313725%,27.058824%,28.627451%);fill-opacity:1;" d="M 11.878906 4.875 C 12.003906 4.640625 12.035156 4.367188 11.980469 4.046875 L 11.59375 4.113281 C 11.644531 4.355469 11.628906 4.558594 11.546875 4.734375 C 11.460938 4.90625 11.320312 5.039062 11.128906 5.121094 C 10.96875 5.191406 10.800781 5.214844 10.625 5.195312 C 10.453125 5.175781 10.296875 5.097656 10.160156 4.957031 C 10.019531 4.824219 9.902344 4.640625 9.800781 4.421875 C 9.726562 4.246094 9.675781 4.070312 9.664062 3.878906 C 9.640625 3.695312 9.675781 3.523438 9.773438 3.363281 C 9.867188 3.210938 10.011719 3.085938 10.214844 2.996094 C 10.386719 2.914062 10.550781 2.894531 10.707031 2.929688 C 10.859375 2.972656 11.007812 3.066406 11.152344 3.230469 L 11.460938 3 C 11.28125 2.785156 11.074219 2.65625 10.835938 2.601562 C 10.597656 2.546875 10.347656 2.578125 10.085938 2.699219 C 9.855469 2.800781 9.667969 2.945312 9.523438 3.136719 C 9.378906 3.328125 9.300781 3.546875 9.285156 3.796875 C 9.269531 4.046875 9.324219 4.308594 9.445312 4.582031 C 9.558594 4.828125 9.707031 5.042969 9.894531 5.222656 C 10.085938 5.394531 10.292969 5.503906 10.523438 5.539062 C 10.6875 5.566406 10.871094 5.546875 11.066406 5.488281 L 11.097656 5.832031 C 11.183594 5.796875 11.246094 5.773438 11.292969 5.769531 C 11.332031 5.761719 11.367188 5.769531 11.386719 5.777344 C 11.40625 5.789062 11.421875 5.808594 11.429688 5.828125 C 11.5 5.972656 11.285156 6.105469 11.203125 6.140625 C 11.167969 6.15625 11.113281 6.179688 11.035156 6.210938 L 11.027344 6.398438 C 11.113281 6.378906 11.277344 6.324219 11.371094 6.28125 C 11.542969 6.203125 11.660156 6.109375 11.714844 6.007812 C 11.769531 5.902344 11.777344 5.800781 11.738281 5.714844 C 11.707031 5.648438 11.660156 5.605469 11.585938 5.578125 C 11.511719 5.550781 11.421875 5.554688 11.277344 5.597656 L 11.261719 5.414062 C 11.269531 5.410156 11.277344 5.410156 11.285156 5.40625 C 11.558594 5.285156 11.757812 5.105469 11.878906 4.875 Z M 11.878906 4.875 "/>
<path style=" stroke:none;fill-rule:nonzero;fill:rgb(24.313725%,27.058824%,28.627451%);fill-opacity:1;" d="M 7.945312 7.511719 L 6.179688 5.253906 L 6.476562 5.023438 L 7.203125 5.953125 L 8.375 5.03125 L 7.652344 4.101562 L 7.953125 3.871094 L 9.71875 6.128906 L 9.414062 6.363281 L 8.585938 5.300781 L 7.410156 6.214844 L 8.242188 7.277344 Z M 7.945312 7.511719 "/>
<path style=" stroke:none;fill-rule:nonzero;fill:rgb(24.313725%,27.058824%,28.627451%);fill-opacity:1;" d="M 8.5625 25.976562 L 9.472656 25.296875 L 9.109375 26.382812 L 9.992188 27.042969 L 8.890625 27.042969 L 8.5625 28.046875 L 8.238281 27.042969 L 7.144531 27.042969 L 8.019531 26.382812 L 7.660156 25.296875 Z M 8.5625 25.976562 "/>
<path style=" stroke:none;fill-rule:nonzero;fill:rgb(24.313725%,27.058824%,28.627451%);fill-opacity:1;" d="M 18.257812 27.890625 L 18.175781 27.585938 L 19.851562 27.167969 L 19.914062 27.417969 C 19.796875 27.628906 19.6875 27.902344 19.597656 28.238281 C 19.507812 28.566406 19.457031 28.898438 19.449219 29.226562 C 19.4375 29.457031 19.457031 29.707031 19.503906 29.964844 L 19.175781 30.050781 C 19.128906 29.847656 19.109375 29.589844 19.109375 29.28125 C 19.117188 28.972656 19.160156 28.667969 19.234375 28.367188 C 19.308594 28.0625 19.402344 27.800781 19.523438 27.574219 Z M 18.257812 27.890625 "/>
<path style=" stroke:none;fill-rule:nonzero;fill:rgb(24.313725%,27.058824%,28.627451%);fill-opacity:1;" d="M 12.324219 29.894531 L 12.011719 29.800781 L 12.574219 27.847656 L 12.007812 27.679688 L 12.085938 27.417969 C 12.429688 27.507812 12.613281 27.515625 12.832031 27.253906 L 13.066406 27.316406 Z M 12.324219 29.894531 "/>
<path style=" stroke:none;fill-rule:nonzero;fill:rgb(24.313725%,27.058824%,28.627451%);fill-opacity:1;" d="M 23.546875 25.976562 L 22.632812 25.296875 L 22.996094 26.382812 L 22.117188 27.042969 L 23.214844 27.042969 L 23.546875 28.046875 L 23.875 27.042969 L 24.96875 27.042969 L 24.09375 26.382812 L 24.445312 25.296875 Z M 23.546875 25.976562 "/>
<path style=" stroke:none;fill-rule:nonzero;fill:rgb(24.313725%,27.058824%,28.627451%);fill-opacity:1;" d="M 7.097656 23.640625 L 4.75 25.285156 L 3.640625 23.699219 L 3.917969 23.507812 L 4.808594 24.785156 L 5.539062 24.273438 L 4.765625 23.175781 L 5.042969 22.976562 L 5.8125 24.078125 L 6.878906 23.332031 Z M 7.097656 23.640625 "/>
<path style=" stroke:none;fill-rule:nonzero;fill:rgb(24.313725%,27.058824%,28.627451%);fill-opacity:1;" d="M 4.316406 16.789062 L 1.449219 16.691406 L 1.523438 14.628906 L 1.863281 14.640625 L 1.804688 16.324219 L 2.675781 16.359375 L 2.738281 14.777344 L 3.070312 14.785156 L 3.015625 16.367188 L 3.988281 16.402344 L 4.054688 14.648438 L 4.390625 14.660156 Z M 4.316406 16.789062 "/>
<path style=" stroke:none;fill-rule:nonzero;fill:rgb(24.313725%,27.058824%,28.627451%);fill-opacity:1;" d="M 4.773438 19.488281 L 1.949219 19.933594 L 1.882812 19.554688 L 3.871094 17.714844 L 1.648438 18.066406 L 1.59375 17.710938 L 4.421875 17.257812 L 4.480469 17.644531 L 2.492188 19.484375 L 4.71875 19.128906 Z M 4.773438 19.488281 "/>
<path style=" stroke:none;fill-rule:nonzero;fill:rgb(24.313725%,27.058824%,28.627451%);fill-opacity:1;" d="M 5.792969 21.785156 L 3.175781 22.945312 L 2.335938 21.054688 L 2.644531 20.917969 L 3.328125 22.464844 L 4.132812 22.105469 L 3.488281 20.660156 L 3.796875 20.523438 L 4.441406 21.972656 L 5.332031 21.574219 L 4.613281 19.964844 L 4.921875 19.832031 Z M 5.792969 21.785156 "/>
<path style=" stroke:none;fill-rule:nonzero;fill:rgb(24.313725%,27.058824%,28.627451%);fill-opacity:1;" d="M 16.144531 29.121094 C 16.121094 28.804688 16.128906 28.550781 16.179688 28.351562 C 16.226562 28.15625 16.308594 27.996094 16.429688 27.882812 C 16.546875 27.769531 16.703125 27.699219 16.894531 27.683594 C 17.039062 27.675781 17.164062 27.691406 17.277344 27.738281 C 17.390625 27.785156 17.488281 27.863281 17.566406 27.964844 C 17.644531 28.066406 17.710938 28.191406 17.765625 28.347656 C 17.820312 28.496094 17.859375 28.703125 17.878906 28.96875 C 17.910156 29.28125 17.898438 29.53125 17.847656 29.730469 C 17.804688 29.925781 17.71875 30.085938 17.601562 30.199219 C 17.480469 30.3125 17.328125 30.382812 17.132812 30.398438 C 16.875 30.421875 16.667969 30.347656 16.503906 30.175781 C 16.308594 29.96875 16.191406 29.617188 16.144531 29.121094 Z M 16.484375 29.089844 C 16.523438 29.527344 16.597656 29.8125 16.710938 29.945312 C 16.824219 30.085938 16.960938 30.144531 17.109375 30.128906 C 17.257812 30.121094 17.378906 30.035156 17.464844 29.882812 C 17.554688 29.726562 17.582031 29.433594 17.546875 28.996094 C 17.507812 28.558594 17.433594 28.269531 17.316406 28.136719 C 17.199219 28.003906 17.070312 27.945312 16.914062 27.957031 C 16.765625 27.96875 16.652344 28.042969 16.574219 28.175781 C 16.472656 28.351562 16.445312 28.652344 16.484375 29.089844 Z M 16.484375 29.089844 "/>
<path style=" stroke:none;fill-rule:nonzero;fill:rgb(24.313725%,27.058824%,28.627451%);fill-opacity:1;" d="M 13.734375 29.582031 L 14.046875 29.59375 C 14.058594 29.742188 14.09375 29.851562 14.164062 29.929688 C 14.226562 30.003906 14.320312 30.050781 14.4375 30.066406 C 14.535156 30.074219 14.625 30.066406 14.710938 30.023438 C 14.789062 29.992188 14.859375 29.9375 14.914062 29.867188 C 14.972656 29.796875 15.027344 29.699219 15.078125 29.574219 C 15.121094 29.445312 15.15625 29.316406 15.171875 29.179688 C 15.171875 29.164062 15.175781 29.144531 15.175781 29.117188 C 15.101562 29.210938 15.003906 29.285156 14.882812 29.335938 C 14.757812 29.382812 14.636719 29.40625 14.507812 29.382812 C 14.28125 29.359375 14.109375 29.253906 13.972656 29.082031 C 13.84375 28.902344 13.796875 28.683594 13.824219 28.425781 C 13.859375 28.152344 13.964844 27.949219 14.144531 27.804688 C 14.320312 27.660156 14.53125 27.601562 14.769531 27.628906 C 14.941406 27.652344 15.09375 27.71875 15.226562 27.828125 C 15.355469 27.9375 15.445312 28.082031 15.5 28.265625 C 15.554688 28.445312 15.558594 28.699219 15.519531 29.023438 C 15.480469 29.359375 15.410156 29.628906 15.3125 29.816406 C 15.210938 30.011719 15.082031 30.148438 14.929688 30.234375 C 14.769531 30.324219 14.589844 30.351562 14.398438 30.328125 C 14.1875 30.304688 14.027344 30.222656 13.910156 30.09375 C 13.796875 29.964844 13.734375 29.792969 13.734375 29.582031 Z M 15.207031 28.574219 C 15.230469 28.390625 15.203125 28.238281 15.113281 28.113281 C 15.027344 27.992188 14.914062 27.921875 14.773438 27.902344 C 14.628906 27.890625 14.496094 27.933594 14.375 28.039062 C 14.253906 28.140625 14.183594 28.285156 14.160156 28.476562 C 14.136719 28.644531 14.171875 28.789062 14.261719 28.902344 C 14.351562 29.023438 14.472656 29.089844 14.621094 29.109375 C 14.769531 29.125 14.898438 29.089844 15.007812 28.996094 C 15.117188 28.902344 15.1875 28.761719 15.207031 28.574219 Z M 15.207031 28.574219 "/>
<path style=" stroke:none;fill-rule:nonzero;fill:rgb(24.313725%,27.058824%,28.627451%);fill-opacity:1;" d="M 6.144531 9.675781 L 4.609375 7.019531 L 4.867188 6.703125 L 7.835938 7.589844 L 7.5625 7.929688 L 6.675781 7.640625 L 5.921875 8.574219 L 6.398438 9.363281 Z M 5.753906 8.292969 L 6.363281 7.535156 C 6.363281 7.535156 5.117188 7.117188 4.96875 7.054688 C 5.085938 7.199219 5.753906 8.292969 5.753906 8.292969 Z M 5.753906 8.292969 "/>
<path style=" stroke:none;fill-rule:nonzero;fill:rgb(24.313725%,27.058824%,28.627451%);fill-opacity:1;" d="M 5.148438 11.652344 L 2.617188 10.308594 L 3.121094 9.359375 C 3.222656 9.164062 3.332031 9.027344 3.441406 8.9375 C 3.558594 8.847656 3.6875 8.796875 3.824219 8.789062 C 3.96875 8.777344 4.097656 8.804688 4.210938 8.863281 C 4.320312 8.921875 4.40625 9.007812 4.472656 9.117188 C 4.535156 9.226562 4.566406 9.355469 4.558594 9.503906 C 4.691406 9.375 4.828125 9.300781 4.976562 9.273438 C 5.132812 9.25 5.28125 9.273438 5.429688 9.355469 C 5.542969 9.414062 5.644531 9.5 5.71875 9.601562 C 5.792969 9.707031 5.835938 9.8125 5.855469 9.914062 C 5.871094 10.019531 5.863281 10.132812 5.832031 10.257812 C 5.800781 10.382812 5.742188 10.527344 5.660156 10.691406 Z M 5.023438 11.15625 L 5.359375 10.53125 C 5.414062 10.421875 5.453125 10.34375 5.46875 10.296875 C 5.496094 10.214844 5.507812 10.132812 5.503906 10.066406 C 5.5 9.996094 5.472656 9.929688 5.429688 9.859375 C 5.386719 9.796875 5.324219 9.742188 5.242188 9.703125 C 5.152344 9.652344 5.050781 9.632812 4.957031 9.640625 C 4.863281 9.652344 4.777344 9.691406 4.703125 9.765625 C 4.628906 9.835938 4.550781 9.949219 4.464844 10.113281 L 4.15625 10.695312 Z M 3.855469 10.535156 L 4.148438 9.988281 C 4.226562 9.847656 4.273438 9.730469 4.289062 9.65625 C 4.308594 9.558594 4.300781 9.472656 4.261719 9.398438 C 4.226562 9.324219 4.167969 9.265625 4.078125 9.214844 C 3.996094 9.171875 3.910156 9.152344 3.824219 9.15625 C 3.742188 9.164062 3.667969 9.199219 3.601562 9.261719 C 3.539062 9.324219 3.457031 9.445312 3.363281 9.628906 L 3.09375 10.132812 Z M 3.855469 10.535156 "/>
<path style=" stroke:none;fill-rule:nonzero;fill:rgb(24.313725%,27.058824%,28.627451%);fill-opacity:1;" d="M 4.4375 14.289062 L 1.644531 13.640625 L 1.933594 12.40625 C 1.988281 12.15625 2.058594 11.972656 2.136719 11.851562 C 2.214844 11.738281 2.328125 11.652344 2.472656 11.605469 C 2.617188 11.554688 2.765625 11.550781 2.921875 11.585938 C 3.121094 11.632812 3.273438 11.734375 3.378906 11.894531 C 3.484375 12.050781 3.527344 12.269531 3.503906 12.546875 C 3.570312 12.460938 3.632812 12.398438 3.691406 12.359375 C 3.816406 12.269531 3.964844 12.199219 4.132812 12.136719 L 5.003906 11.828125 L 4.898438 12.289062 L 4.234375 12.527344 C 4.039062 12.59375 3.890625 12.652344 3.785156 12.703125 C 3.679688 12.753906 3.601562 12.800781 3.558594 12.847656 C 3.507812 12.894531 3.46875 12.945312 3.441406 13 C 3.421875 13.039062 3.402344 13.105469 3.382812 13.203125 L 3.285156 13.632812 L 4.519531 13.917969 Z M 2.960938 13.558594 L 3.144531 12.761719 C 3.183594 12.59375 3.199219 12.460938 3.183594 12.355469 C 3.167969 12.25 3.132812 12.164062 3.066406 12.101562 C 3 12.03125 2.925781 11.988281 2.832031 11.96875 C 2.703125 11.9375 2.582031 11.957031 2.472656 12.035156 C 2.371094 12.113281 2.289062 12.253906 2.242188 12.460938 L 2.035156 13.34375 Z M 2.960938 13.558594 "/>
<path style=" stroke:none;fill-rule:nonzero;fill:rgb(24.313725%,27.058824%,28.627451%);fill-opacity:1;" d="M 23.523438 6.933594 L 25.585938 4.949219 L 26.464844 5.863281 C 26.640625 6.046875 26.761719 6.199219 26.816406 6.332031 C 26.871094 6.464844 26.875 6.601562 26.839844 6.75 C 26.800781 6.898438 26.726562 7.023438 26.613281 7.136719 C 26.464844 7.277344 26.300781 7.347656 26.105469 7.351562 C 25.910156 7.351562 25.707031 7.269531 25.488281 7.097656 C 25.523438 7.203125 25.542969 7.292969 25.542969 7.363281 C 25.550781 7.511719 25.53125 7.675781 25.488281 7.855469 L 25.277344 8.753906 L 24.941406 8.410156 L 25.113281 7.71875 C 25.15625 7.519531 25.1875 7.367188 25.207031 7.253906 C 25.222656 7.136719 25.222656 7.042969 25.207031 6.980469 C 25.195312 6.914062 25.171875 6.855469 25.140625 6.800781 C 25.121094 6.765625 25.070312 6.710938 25.007812 6.640625 L 24.699219 6.324219 L 23.785156 7.207031 Z M 24.9375 6.09375 L 25.503906 6.679688 C 25.625 6.804688 25.734375 6.894531 25.824219 6.941406 C 25.917969 6.984375 26.011719 6.996094 26.101562 6.980469 C 26.195312 6.960938 26.273438 6.921875 26.339844 6.855469 C 26.4375 6.761719 26.484375 6.648438 26.476562 6.519531 C 26.472656 6.382812 26.394531 6.246094 26.25 6.089844 L 25.617188 5.441406 Z M 24.9375 6.09375 "/>
<path style=" stroke:none;fill-rule:nonzero;fill:rgb(24.313725%,27.058824%,28.627451%);fill-opacity:1;" d="M 21.605469 4.144531 C 21.832031 3.726562 22.125 3.460938 22.480469 3.351562 C 22.832031 3.238281 23.1875 3.285156 23.542969 3.476562 C 23.769531 3.605469 23.949219 3.777344 24.074219 3.988281 C 24.199219 4.203125 24.253906 4.4375 24.242188 4.691406 C 24.234375 4.9375 24.152344 5.191406 24.015625 5.441406 C 23.875 5.699219 23.695312 5.898438 23.484375 6.035156 C 23.269531 6.179688 23.039062 6.253906 22.796875 6.253906 C 22.546875 6.25 22.320312 6.191406 22.101562 6.070312 C 21.867188 5.9375 21.683594 5.765625 21.566406 5.550781 C 21.441406 5.332031 21.386719 5.097656 21.402344 4.847656 C 21.417969 4.59375 21.480469 4.363281 21.605469 4.144531 Z M 21.941406 4.335938 C 21.773438 4.640625 21.722656 4.921875 21.789062 5.1875 C 21.859375 5.449219 22.011719 5.648438 22.253906 5.789062 C 22.507812 5.921875 22.761719 5.953125 23.019531 5.863281 C 23.277344 5.777344 23.496094 5.574219 23.675781 5.25 C 23.789062 5.046875 23.851562 4.847656 23.871094 4.660156 C 23.886719 4.472656 23.84375 4.296875 23.761719 4.136719 C 23.675781 3.980469 23.546875 3.855469 23.382812 3.765625 C 23.148438 3.636719 22.902344 3.601562 22.644531 3.671875 C 22.382812 3.734375 22.152344 3.960938 21.941406 4.335938 Z M 21.941406 4.335938 "/>
<path style=" stroke:none;fill-rule:nonzero;fill:rgb(24.313725%,27.058824%,28.627451%);fill-opacity:1;" d="M 18.667969 4.566406 L 19.554688 1.839844 L 20.582031 2.175781 C 20.765625 2.230469 20.898438 2.285156 20.988281 2.335938 C 21.113281 2.398438 21.210938 2.480469 21.28125 2.574219 C 21.351562 2.664062 21.394531 2.773438 21.417969 2.90625 C 21.4375 3.035156 21.421875 3.167969 21.375 3.304688 C 21.300781 3.53125 21.167969 3.707031 20.964844 3.820312 C 20.765625 3.929688 20.472656 3.925781 20.089844 3.800781 L 19.390625 3.570312 L 19.03125 4.679688 Z M 19.492188 3.253906 L 20.199219 3.480469 C 20.433594 3.558594 20.609375 3.566406 20.734375 3.511719 C 20.863281 3.457031 20.953125 3.351562 21.003906 3.195312 C 21.039062 3.082031 21.042969 2.972656 21.015625 2.871094 C 20.980469 2.773438 20.925781 2.691406 20.835938 2.636719 C 20.78125 2.601562 20.671875 2.558594 20.507812 2.503906 L 19.8125 2.28125 Z M 19.492188 3.253906 "/>
<path style=" stroke:none;fill-rule:nonzero;fill:rgb(24.313725%,27.058824%,28.627451%);fill-opacity:1;" d="M 27.242188 19.464844 L 29.921875 20.492188 L 29.535156 21.496094 C 29.453125 21.699219 29.363281 21.851562 29.265625 21.953125 C 29.160156 22.058594 29.042969 22.121094 28.902344 22.144531 C 28.761719 22.175781 28.632812 22.167969 28.511719 22.117188 C 28.394531 22.070312 28.296875 22.003906 28.222656 21.902344 C 28.140625 21.796875 28.097656 21.675781 28.082031 21.523438 C 27.972656 21.667969 27.847656 21.765625 27.699219 21.804688 C 27.550781 21.847656 27.398438 21.84375 27.242188 21.777344 C 27.117188 21.734375 27.015625 21.660156 26.925781 21.566406 C 26.835938 21.46875 26.78125 21.375 26.75 21.277344 C 26.722656 21.175781 26.714844 21.058594 26.730469 20.933594 C 26.746094 20.804688 26.785156 20.65625 26.851562 20.480469 Z M 27.421875 19.941406 L 27.167969 20.605469 C 27.125 20.71875 27.097656 20.800781 27.089844 20.851562 C 27.074219 20.9375 27.070312 21.011719 27.085938 21.082031 C 27.09375 21.152344 27.128906 21.210938 27.179688 21.277344 C 27.234375 21.335938 27.296875 21.382812 27.386719 21.414062 C 27.488281 21.449219 27.582031 21.460938 27.675781 21.4375 C 27.769531 21.414062 27.84375 21.359375 27.910156 21.28125 C 27.972656 21.207031 28.039062 21.078125 28.109375 20.910156 L 28.339844 20.292969 Z M 28.660156 20.414062 L 28.433594 20.992188 C 28.375 21.148438 28.347656 21.265625 28.335938 21.339844 C 28.332031 21.441406 28.351562 21.523438 28.394531 21.59375 C 28.441406 21.664062 28.503906 21.71875 28.597656 21.753906 C 28.6875 21.789062 28.773438 21.796875 28.859375 21.777344 C 28.941406 21.765625 29.011719 21.71875 29.066406 21.648438 C 29.121094 21.578125 29.183594 21.449219 29.261719 21.257812 L 29.46875 20.726562 Z M 28.660156 20.414062 "/>
</g>
</svg>
