<?xml version="1.0" encoding="UTF-8"?>
<svg xmlns="http://www.w3.org/2000/svg" xmlns:xlink="http://www.w3.org/1999/xlink" width="32px" height="32px" viewBox="0 0 32 32" version="1.1">
<g id="surface1">
<path style=" stroke:none;fill-rule:nonzero;fill:rgb(68.235294%,60%,38.431373%);fill-opacity:1;" d="M 0 16.019531 C -0.0117188 7.179688 7.144531 0.0078125 15.980469 0 C 24.816406 -0.0117188 31.988281 7.140625 32 15.980469 C 32.011719 24.816406 24.855469 31.988281 16.019531 31.996094 C 7.183594 32.007812 0.0117188 24.855469 0 16.019531 Z M 0 16.019531 "/>
<path style=" stroke:none;fill-rule:nonzero;fill:rgb(0%,0%,0%);fill-opacity:1;" d="M 0.6875 16.015625 C 0.679688 7.5625 7.523438 0.699219 15.980469 0.6875 C 24.4375 0.675781 31.300781 7.523438 31.308594 15.980469 C 31.320312 24.433594 24.472656 31.296875 16.019531 31.308594 C 7.5625 31.316406 0.699219 24.472656 0.6875 16.015625 Z M 0.6875 16.015625 "/>
<path style=" stroke:none;fill-rule:nonzero;fill:rgb(68.235294%,60%,38.431373%);fill-opacity:1;" d="M 4.980469 16.011719 C 4.972656 9.914062 9.910156 4.964844 16.007812 4.957031 C 22.105469 4.949219 27.054688 9.886719 27.0625 15.984375 C 27.070312 22.082031 22.132812 27.03125 16.035156 27.039062 C 9.933594 27.046875 4.988281 22.109375 4.980469 16.011719 Z M 4.980469 16.011719 "/>
<path style=" stroke:none;fill-rule:nonzero;fill:rgb(68.235294%,60%,38.431373%);fill-opacity:1;" d="M 29.078125 9.671875 C 29.113281 9.886719 29.078125 10.089844 28.976562 10.285156 C 28.890625 10.441406 28.785156 10.578125 28.648438 10.6875 C 28.515625 10.796875 28.378906 10.886719 28.242188 10.960938 C 27.894531 11.136719 27.5625 11.21875 27.253906 11.199219 C 26.832031 11.179688 26.523438 10.96875 26.316406 10.574219 L 25.742188 9.449219 L 28.355469 8.113281 L 28.929688 9.238281 C 29.011719 9.402344 29.0625 9.542969 29.078125 9.671875 Z M 28.171875 8.875 L 26.464844 9.746094 L 26.722656 10.25 C 26.855469 10.507812 27.070312 10.621094 27.378906 10.59375 C 27.546875 10.578125 27.726562 10.519531 27.917969 10.421875 C 28.1875 10.285156 28.367188 10.140625 28.46875 9.984375 C 28.566406 9.832031 28.554688 9.628906 28.429688 9.378906 Z M 26.984375 6.5 C 27.023438 6.613281 27.039062 6.726562 27.027344 6.847656 C 27.015625 6.945312 26.988281 7.035156 26.949219 7.125 C 26.90625 7.214844 26.847656 7.296875 26.761719 7.378906 C 26.660156 7.472656 26.535156 7.542969 26.386719 7.582031 C 26.242188 7.621094 26.097656 7.601562 25.941406 7.523438 C 25.996094 7.65625 26.003906 7.78125 25.96875 7.890625 C 25.933594 8 25.84375 8.125 25.691406 8.265625 L 25.546875 8.402344 C 25.449219 8.492188 25.386719 8.554688 25.359375 8.597656 C 25.316406 8.664062 25.296875 8.726562 25.3125 8.792969 L 25.261719 8.84375 L 24.800781 8.351562 C 24.832031 8.296875 24.863281 8.25 24.886719 8.214844 C 24.9375 8.148438 24.992188 8.085938 25.054688 8.023438 L 25.25 7.835938 C 25.386719 7.707031 25.453125 7.597656 25.453125 7.503906 C 25.453125 7.414062 25.394531 7.304688 25.269531 7.171875 L 24.835938 6.707031 L 23.996094 7.496094 L 23.589844 7.058594 L 25.730469 5.054688 L 26.714844 6.105469 C 26.851562 6.257812 26.941406 6.386719 26.984375 6.5 Z M 25.769531 5.835938 L 25.191406 6.375 L 25.667969 6.882812 C 25.761719 6.984375 25.84375 7.046875 25.914062 7.078125 C 26.039062 7.128906 26.15625 7.097656 26.28125 6.984375 C 26.410156 6.863281 26.457031 6.742188 26.421875 6.613281 C 26.402344 6.539062 26.34375 6.457031 26.253906 6.359375 L 25.765625 5.835938 Z M 22.683594 6.097656 C 22.378906 6.183594 22.046875 6.121094 21.679688 5.914062 C 21.316406 5.707031 21.097656 5.449219 21.019531 5.136719 C 20.898438 4.75 20.972656 4.328125 21.234375 3.867188 C 21.503906 3.402344 21.832031 3.125 22.226562 3.042969 C 22.53125 2.953125 22.867188 3.015625 23.230469 3.222656 C 23.59375 3.433594 23.8125 3.691406 23.890625 4 C 24.015625 4.378906 23.941406 4.804688 23.671875 5.273438 C 23.410156 5.726562 23.082031 6 22.683594 6.097656 Z M 22.574219 5.519531 C 22.789062 5.4375 22.976562 5.25 23.140625 4.964844 C 23.304688 4.679688 23.371094 4.425781 23.335938 4.195312 C 23.300781 3.96875 23.183594 3.796875 22.96875 3.675781 C 22.761719 3.550781 22.546875 3.535156 22.332031 3.617188 C 22.121094 3.699219 21.929688 3.886719 21.761719 4.171875 C 21.597656 4.457031 21.535156 4.714844 21.570312 4.941406 C 21.605469 5.167969 21.726562 5.34375 21.9375 5.464844 C 22.148438 5.585938 22.359375 5.601562 22.574219 5.519531 Z M 19.457031 4.566406 C 19.191406 4.738281 18.851562 4.777344 18.445312 4.683594 C 18.035156 4.589844 17.75 4.410156 17.582031 4.136719 C 17.355469 3.796875 17.304688 3.371094 17.417969 2.855469 C 17.539062 2.332031 17.773438 1.972656 18.125 1.777344 C 18.390625 1.605469 18.726562 1.566406 19.140625 1.65625 C 19.546875 1.75 19.832031 1.933594 20 2.207031 C 20.226562 2.535156 20.277344 2.960938 20.160156 3.484375 C 20.042969 3.996094 19.808594 4.355469 19.457031 4.566406 Z M 19.183594 4.042969 C 19.363281 3.902344 19.488281 3.671875 19.5625 3.347656 C 19.636719 3.027344 19.625 2.765625 19.523438 2.558594 C 19.425781 2.351562 19.261719 2.21875 19.023438 2.164062 C 18.785156 2.109375 18.578125 2.152344 18.394531 2.296875 C 18.214844 2.4375 18.089844 2.671875 18.011719 2.992188 C 17.9375 3.316406 17.953125 3.578125 18.054688 3.785156 C 18.152344 3.992188 18.320312 4.125 18.558594 4.179688 C 18.796875 4.234375 19.003906 4.1875 19.183594 4.042969 Z M 13.734375 1.535156 L 14.375 1.492188 L 15.6875 3.453125 L 15.542969 1.40625 L 16.113281 1.367188 L 16.320312 4.292969 L 15.707031 4.335938 L 14.367188 2.34375 L 14.511719 4.421875 L 13.945312 4.464844 L 13.734375 1.539062 Z M 12.28125 2.394531 L 10.816406 2.902344 L 11.019531 3.492188 L 12.367188 3.023438 L 12.53125 3.507812 L 11.183594 3.972656 L 11.429688 4.683594 L 12.96875 4.152344 L 13.140625 4.652344 L 11.039062 5.378906 L 10.078125 2.605469 L 12.113281 1.902344 Z M 8.160156 3.664062 L 8.722656 3.253906 L 9.007812 5.3125 L 9.65625 6.203125 L 9.164062 6.566406 L 8.511719 5.671875 L 6.613281 4.789062 L 7.199219 4.367188 L 8.441406 5.039062 L 8.164062 3.664062 Z M 6.121094 5.917969 L 5.105469 7.09375 L 5.574219 7.5 L 6.507812 6.421875 L 6.894531 6.757812 L 5.960938 7.832031 L 6.53125 8.328125 L 7.59375 7.101562 L 7.992188 7.445312 L 6.535156 9.125 L 4.320312 7.203125 L 5.730469 5.578125 Z M 2.578125 10.214844 L 3.519531 8.363281 L 3.980469 8.597656 L 3.3125 9.90625 L 3.914062 10.210938 L 4.496094 9.066406 L 4.953125 9.296875 L 4.367188 10.441406 L 5.464844 11 L 5.191406 11.542969 L 2.578125 10.21875 Z M 2.578125 10.214844 "/>
<path style=" stroke:none;fill-rule:nonzero;fill:rgb(68.235294%,60%,38.431373%);fill-opacity:1;" d="M 5.910156 21.984375 C 5.917969 22.105469 5.898438 22.21875 5.847656 22.328125 C 5.8125 22.417969 5.761719 22.5 5.695312 22.574219 C 5.628906 22.644531 5.546875 22.703125 5.441406 22.757812 C 5.316406 22.820312 5.179688 22.851562 5.023438 22.84375 C 4.875 22.839844 4.738281 22.777344 4.617188 22.65625 C 4.628906 22.800781 4.597656 22.921875 4.53125 23.015625 C 4.46875 23.109375 4.34375 23.203125 4.160156 23.296875 L 3.980469 23.378906 C 3.863281 23.441406 3.78125 23.484375 3.742188 23.515625 C 3.683594 23.5625 3.648438 23.621094 3.640625 23.6875 L 3.574219 23.722656 L 3.28125 23.113281 C 3.328125 23.070312 3.371094 23.035156 3.402344 23.011719 C 3.46875 22.960938 3.539062 22.914062 3.617188 22.875 L 3.863281 22.753906 C 4.027344 22.667969 4.125 22.582031 4.152344 22.492188 C 4.179688 22.410156 4.152344 22.289062 4.074219 22.121094 L 3.796875 21.554688 L 2.761719 22.058594 L 2.5 21.523438 L 5.136719 20.230469 L 5.769531 21.523438 C 5.855469 21.710938 5.902344 21.863281 5.90625 21.984375 Z M 4.941406 20.996094 L 4.234375 21.339844 L 4.539062 21.964844 C 4.601562 22.089844 4.660156 22.175781 4.71875 22.222656 C 4.824219 22.308594 4.945312 22.3125 5.097656 22.242188 C 5.253906 22.164062 5.335938 22.0625 5.339844 21.925781 C 5.339844 21.851562 5.3125 21.757812 5.253906 21.636719 Z M 4.941406 20.996094 "/>
<path style=" stroke:none;fill-rule:nonzero;fill:rgb(68.235294%,60%,38.431373%);fill-opacity:1;" d="M 6.191406 26.433594 C 5.875 26.425781 5.574219 26.269531 5.285156 25.964844 C 5 25.660156 4.863281 25.347656 4.878906 25.027344 C 4.878906 24.621094 5.074219 24.238281 5.457031 23.878906 C 5.851562 23.507812 6.246094 23.34375 6.648438 23.375 C 6.964844 23.382812 7.265625 23.539062 7.554688 23.84375 C 7.839844 24.152344 7.972656 24.460938 7.960938 24.78125 C 7.964844 25.179688 7.773438 25.5625 7.378906 25.933594 C 6.996094 26.289062 6.601562 26.457031 6.191406 26.433594 Z M 6.253906 25.847656 C 6.484375 25.828125 6.71875 25.707031 6.960938 25.484375 C 7.199219 25.257812 7.335938 25.035156 7.371094 24.804688 C 7.40625 24.578125 7.339844 24.378906 7.175781 24.199219 C 7.007812 24.019531 6.808594 23.941406 6.582031 23.957031 C 6.351562 23.976562 6.117188 24.097656 5.875 24.320312 C 5.632812 24.546875 5.496094 24.773438 5.464844 25 C 5.429688 25.226562 5.496094 25.429688 5.664062 25.609375 C 5.828125 25.785156 6.027344 25.867188 6.253906 25.847656 Z M 6.253906 25.847656 "/>
<path style=" stroke:none;fill-rule:nonzero;fill:rgb(68.235294%,60%,38.431373%);fill-opacity:1;" d="M 8.8125 25.183594 L 10.808594 26.472656 L 10.523438 26.910156 L 9.789062 26.433594 L 8.476562 28.460938 L 7.957031 28.125 L 9.269531 26.097656 L 8.53125 25.617188 Z M 8.8125 25.183594 "/>
<path style=" stroke:none;fill-rule:nonzero;fill:rgb(68.235294%,60%,38.431373%);fill-opacity:1;" d="M 11.425781 26.730469 L 13.6875 27.460938 L 13.527344 27.957031 L 12.691406 27.6875 L 11.949219 29.984375 L 11.359375 29.792969 L 12.105469 27.496094 L 11.265625 27.222656 Z M 11.425781 26.730469 "/>
<path style=" stroke:none;fill-rule:nonzero;fill:rgb(68.235294%,60%,38.431373%);fill-opacity:1;" d="M 16.558594 30.046875 L 16.542969 30.574219 L 14.320312 30.5 L 14.417969 27.566406 L 16.570312 27.640625 L 16.550781 28.15625 L 15 28.105469 L 14.980469 28.730469 L 16.402344 28.777344 L 16.386719 29.285156 L 14.960938 29.238281 L 14.9375 29.992188 Z M 16.558594 30.046875 "/>
<path style=" stroke:none;fill-rule:nonzero;fill:rgb(68.235294%,60%,38.431373%);fill-opacity:1;" d="M 19.398438 27.210938 C 19.519531 27.230469 19.625 27.277344 19.71875 27.347656 C 19.800781 27.402344 19.867188 27.472656 19.921875 27.554688 C 19.976562 27.632812 20.019531 27.726562 20.046875 27.839844 C 20.078125 27.976562 20.078125 28.117188 20.039062 28.265625 C 20 28.410156 19.910156 28.53125 19.761719 28.625 C 19.90625 28.644531 20.015625 28.699219 20.09375 28.785156 C 20.171875 28.871094 20.234375 29.011719 20.28125 29.210938 L 20.324219 29.402344 C 20.355469 29.53125 20.378906 29.621094 20.402344 29.664062 C 20.4375 29.734375 20.484375 29.78125 20.550781 29.800781 L 20.566406 29.875 L 19.910156 30.027344 C 19.878906 29.96875 19.855469 29.921875 19.835938 29.882812 C 19.800781 29.808594 19.773438 29.726562 19.753906 29.640625 L 19.6875 29.378906 C 19.640625 29.195312 19.582031 29.082031 19.5 29.035156 C 19.425781 28.992188 19.300781 28.988281 19.121094 29.027344 L 18.503906 29.171875 L 18.765625 30.292969 L 18.179688 30.429688 L 17.519531 27.570312 L 18.917969 27.246094 C 19.121094 27.203125 19.28125 27.191406 19.398438 27.210938 Z M 18.21875 27.929688 L 18.394531 28.699219 L 19.070312 28.542969 C 19.207031 28.511719 19.304688 28.472656 19.363281 28.425781 C 19.46875 28.34375 19.503906 28.222656 19.46875 28.0625 C 19.425781 27.890625 19.34375 27.785156 19.214844 27.753906 C 19.140625 27.734375 19.042969 27.742188 18.910156 27.769531 L 18.21875 27.933594 Z M 18.21875 27.929688 "/>
<path style=" stroke:none;fill-rule:nonzero;fill:rgb(68.235294%,60%,38.431373%);fill-opacity:1;" d="M 22.214844 25.894531 C 22.425781 25.851562 22.632812 25.875 22.835938 25.964844 C 22.996094 26.039062 23.132812 26.140625 23.253906 26.269531 C 23.367188 26.398438 23.464844 26.53125 23.542969 26.664062 C 23.742188 27 23.839844 27.324219 23.839844 27.636719 C 23.835938 28.058594 23.648438 28.378906 23.261719 28.605469 L 22.167969 29.238281 L 20.699219 26.699219 L 21.792969 26.066406 C 21.949219 25.976562 22.089844 25.917969 22.214844 25.894531 Z M 21.46875 26.84375 L 22.425781 28.5 L 22.917969 28.21875 C 23.167969 28.070312 23.269531 27.847656 23.226562 27.542969 C 23.203125 27.378906 23.132812 27.203125 23.027344 27.011719 C 22.878906 26.753906 22.722656 26.578125 22.5625 26.488281 C 22.402344 26.398438 22.203125 26.421875 21.957031 26.558594 Z M 21.46875 26.84375 "/>
<path style=" stroke:none;fill-rule:nonzero;fill:rgb(68.235294%,60%,38.431373%);fill-opacity:1;" d="M 24.035156 24.40625 L 24.507812 23.902344 L 27.363281 25.136719 L 26.910156 25.625 L 26.339844 25.351562 L 25.601562 26.144531 L 25.90625 26.703125 L 25.46875 27.171875 Z M 25.34375 25.679688 L 25.851562 25.132812 L 24.757812 24.617188 Z M 25.34375 25.679688 "/>
<path style=" stroke:none;fill-rule:nonzero;fill:rgb(68.235294%,60%,38.431373%);fill-opacity:1;" d="M 26.53125 20.960938 L 26.945312 20.179688 L 29.535156 21.554688 L 29.269531 22.058594 L 27.441406 21.085938 C 27.390625 21.0625 28.984375 22.566406 28.984375 22.566406 L 28.707031 23.109375 C 28.707031 23.109375 26.535156 22.652344 26.585938 22.675781 L 28.429688 23.65625 L 28.164062 24.160156 L 25.570312 22.785156 L 25.988281 21.996094 L 28.230469 22.511719 Z M 26.53125 20.960938 "/>
<path style=" stroke:none;fill-rule:nonzero;fill:rgb(88.627451%,0%,10.196078%);fill-opacity:1;" d="M 13.53125 15.234375 L 13.527344 9.660156 L 15.976562 9.660156 L 15.976562 15.210938 Z M 13.53125 15.234375 "/>
<path style=" stroke:none;fill-rule:nonzero;fill:rgb(68.235294%,60%,38.431373%);fill-opacity:1;" d="M 28.367188 16.101562 C 28.367188 15.703125 28.691406 15.378906 29.089844 15.378906 C 29.492188 15.375 29.816406 15.699219 29.816406 16.101562 C 29.816406 16.5 29.492188 16.828125 29.09375 16.828125 C 28.691406 16.828125 28.367188 16.503906 28.367188 16.101562 Z M 28.367188 16.101562 "/>
<path style=" stroke:none;fill-rule:nonzero;fill:rgb(88.627451%,0%,10.196078%);fill-opacity:1;" d="M 15.980469 8.839844 L 9.800781 8.921875 L 9.804688 9.664062 L 10.535156 9.664062 C 10.535156 9.664062 11.347656 9.664062 11.351562 10.8125 C 11.351562 11.953125 11.363281 21.535156 11.363281 21.535156 C 11.363281 22.351562 10.675781 22.402344 10.410156 22.402344 C 9.859375 22.402344 9.859375 22.402344 9.859375 22.402344 L 9.859375 23.195312 L 15.160156 23.1875 L 15.160156 22.398438 C 15.160156 22.398438 14.667969 22.398438 14.484375 22.398438 C 14.484375 22.398438 13.527344 22.328125 13.527344 21.515625 C 13.527344 20.519531 13.519531 16.046875 13.519531 16.046875 L 15.976562 16.050781 L 15.976562 26.589844 C 10.195312 26.597656 5.527344 21.792969 5.519531 16.011719 C 5.511719 10.230469 10.195312 5.539062 15.976562 5.53125 Z M 15.980469 8.839844 "/>
<path style=" stroke:none;fill-rule:nonzero;fill:rgb(100%,100%,100%);fill-opacity:1;" d="M 15.976562 26.589844 C 21.757812 26.582031 26.472656 21.765625 26.464844 15.984375 C 26.457031 10.203125 21.757812 5.523438 15.976562 5.53125 L 15.980469 8.839844 L 21.027344 8.78125 L 21.480469 12.367188 L 20.664062 12.371094 C 20.664062 12.371094 20.488281 11.136719 19.664062 10.496094 C 19.113281 10.066406 18.417969 9.636719 17.214844 9.636719 C 16.570312 9.636719 15.976562 9.652344 15.976562 9.652344 L 15.976562 15.207031 C 16.183594 15.207031 17.007812 14.976562 17.007812 14.003906 C 17.007812 13.621094 16.996094 13.617188 16.996094 13.617188 L 17.679688 13.617188 L 18.5625 18.40625 L 17.746094 18.429688 C 17.597656 17.855469 17.226562 15.921875 15.976562 16.050781 Z M 15.976562 26.589844 "/>
<path style=" stroke:none;fill-rule:nonzero;fill:rgb(68.235294%,60%,38.431373%);fill-opacity:1;" d="M 2.15625 16.101562 C 2.15625 15.703125 2.480469 15.378906 2.882812 15.378906 C 3.28125 15.375 3.605469 15.699219 3.605469 16.101562 C 3.609375 16.5 3.285156 16.828125 2.882812 16.828125 C 2.484375 16.828125 2.15625 16.503906 2.15625 16.101562 Z M 2.15625 16.101562 "/>
<path style="fill:none;stroke-width:462.489014;stroke-linecap:butt;stroke-linejoin:miter;stroke:rgb(68.235294%,60%,38.431373%);stroke-opacity:1;stroke-miterlimit:4;" d="M 46922.856463 17610.007939 L 46922.856463 54085.770776 " transform="matrix(0.00058804,0,0,0.00058804,-11.623781,-5.046801)"/>
</g>
</svg>
