<?xml version="1.0" encoding="UTF-8"?>
<svg xmlns="http://www.w3.org/2000/svg" xmlns:xlink="http://www.w3.org/1999/xlink" width="32px" height="32px" viewBox="0 0 32 31" version="1.1">
<g id="surface1">
<path style=" stroke:none;fill-rule:nonzero;fill:rgb(0%,27.843137%,58.039216%);fill-opacity:1;" d="M 20.214844 13.339844 L 20.375 12.773438 L 20.917969 13.015625 L 20.960938 13.003906 L 20.960938 12.960938 L 20.613281 12.480469 L 21.144531 12.210938 L 21.160156 12.171875 L 21.128906 12.144531 L 20.535156 12.113281 L 20.652344 11.535156 L 20.632812 11.496094 L 20.585938 11.503906 L 20.195312 11.949219 L 19.808594 11.496094 L 19.765625 11.488281 L 19.746094 11.523438 L 19.851562 12.109375 L 19.253906 12.121094 L 19.21875 12.148438 L 19.238281 12.191406 L 19.761719 12.472656 L 19.402344 12.945312 L 19.402344 12.988281 L 19.445312 12.996094 L 19.996094 12.769531 L 20.144531 13.339844 L 20.179688 13.367188 Z M 20.214844 13.339844 "/>
<path style=" stroke:none;fill-rule:nonzero;fill:rgb(0%,27.843137%,58.039216%);fill-opacity:1;" d="M 21.300781 11.101562 C 21.203125 11.015625 21.101562 10.9375 20.988281 10.875 L 20.851562 11.152344 C 21.179688 11.339844 21.421875 11.65625 21.507812 12.03125 L 21.808594 11.96875 L 21.757812 11.789062 C 21.664062 11.523438 21.503906 11.289062 21.300781 11.101562 Z M 21.300781 11.101562 "/>
<path style=" stroke:none;fill-rule:nonzero;fill:rgb(0%,27.843137%,58.039216%);fill-opacity:1;" d="M 19.550781 10.890625 L 19.640625 11.070312 C 19.785156 11.011719 19.945312 10.976562 20.105469 10.96875 L 20.207031 10.96875 C 20.386719 10.976562 20.550781 11.011719 20.703125 11.078125 L 20.839844 10.804688 C 20.648438 10.722656 20.4375 10.671875 20.21875 10.664062 L 20.09375 10.664062 L 19.816406 10.699219 C 19.710938 10.722656 19.605469 10.753906 19.507812 10.796875 L 19.53125 10.847656 Z M 19.550781 10.890625 "/>
<path style=" stroke:none;fill-rule:nonzero;fill:rgb(0%,27.843137%,58.039216%);fill-opacity:1;" d="M 21.539062 12.273438 C 21.554688 12.613281 21.441406 12.929688 21.25 13.175781 L 21.476562 13.382812 C 21.726562 13.078125 21.867188 12.683594 21.847656 12.261719 L 21.835938 12.125 L 21.535156 12.191406 Z M 21.539062 12.273438 "/>
<path style=" stroke:none;fill-rule:nonzero;fill:rgb(0%,27.843137%,58.039216%);fill-opacity:1;" d="M 20.957031 13.449219 L 20.832031 13.527344 L 20.769531 13.558594 L 20.683594 13.597656 L 20.597656 13.628906 L 20.539062 13.648438 L 20.398438 13.675781 L 20.226562 13.699219 L 20.195312 13.699219 L 20.1875 13.886719 L 20.179688 13.949219 L 20.179688 14.007812 L 20.238281 14.007812 L 20.296875 14 L 20.304688 14 L 20.324219 13.996094 L 20.363281 13.992188 L 20.441406 13.980469 L 20.691406 13.921875 L 20.859375 13.855469 L 21.09375 13.726562 L 21.195312 13.65625 L 21.207031 13.648438 L 21.367188 13.503906 L 21.140625 13.300781 Z M 19.261719 13.359375 L 19.230469 13.332031 L 19.121094 13.21875 L 18.988281 13.308594 L 18.949219 13.332031 L 18.867188 13.390625 L 18.917969 13.453125 L 19.019531 13.554688 L 19.179688 13.683594 L 19.257812 13.738281 L 19.347656 13.792969 L 19.457031 13.847656 L 19.492188 13.863281 L 19.519531 13.875 L 19.566406 13.890625 C 19.664062 13.929688 19.769531 13.960938 19.875 13.976562 L 20.019531 13.996094 L 20.019531 13.976562 L 20.023438 13.90625 L 20.023438 13.898438 L 20.035156 13.710938 L 20.035156 13.691406 C 19.8125 13.671875 19.605469 13.597656 19.429688 13.484375 Z M 19.261719 13.359375 "/>
<path style=" stroke:none;fill-rule:nonzero;fill:rgb(0%,27.843137%,58.039216%);fill-opacity:1;" d="M 18.945312 13.140625 L 18.976562 13.117188 L 19.011719 13.09375 L 19.015625 13.078125 L 19.007812 13.066406 L 18.941406 12.953125 L 18.917969 12.90625 L 18.851562 12.734375 C 18.816406 12.628906 18.796875 12.523438 18.792969 12.410156 L 18.789062 12.394531 L 18.789062 12.347656 L 18.804688 12.125 L 18.808594 12.101562 L 18.511719 12.023438 L 18.480469 12.304688 L 18.480469 12.40625 L 18.492188 12.503906 L 18.5 12.566406 L 18.503906 12.617188 C 18.535156 12.78125 18.589844 12.9375 18.664062 13.082031 L 18.671875 13.097656 L 18.714844 13.179688 L 18.769531 13.261719 L 18.914062 13.160156 Z M 18.945312 13.140625 "/>
<path style=" stroke:none;fill-rule:nonzero;fill:rgb(0%,27.843137%,58.039216%);fill-opacity:1;" d="M 25.847656 8.6875 L 25.90625 8.882812 C 25.925781 8.953125 25.9375 9.019531 25.925781 9.078125 C 25.910156 9.199219 25.804688 9.292969 25.507812 9.292969 L 25.179688 9.269531 L 24.933594 9.226562 C 24.777344 9.195312 24.636719 9.171875 24.433594 9.203125 L 24.089844 9.292969 L 23.78125 9.378906 C 23.566406 9.425781 23.316406 9.429688 22.925781 9.304688 C 23.027344 9.066406 23.152344 8.816406 23.3125 8.554688 C 23.984375 7.957031 24.578125 7.554688 24.988281 7.308594 C 25.199219 7.542969 25.667969 8.101562 25.847656 8.6875 Z M 25.21875 9.683594 C 25.269531 9.644531 25.292969 9.648438 25.316406 9.667969 C 25.367188 9.703125 25.390625 9.742188 25.371094 9.765625 L 25.324219 9.804688 L 25.304688 9.800781 L 25.265625 9.78125 L 25.179688 9.765625 C 25.089844 9.765625 25.011719 9.828125 24.941406 9.894531 L 24.847656 9.984375 L 24.777344 10.023438 L 24.652344 10.03125 L 24.605469 10.042969 L 24.550781 10.03125 L 24.578125 9.988281 L 24.820312 9.753906 C 24.953125 9.613281 25.070312 9.566406 25.152344 9.550781 C 25.238281 9.53125 25.253906 9.566406 25.253906 9.597656 L 25.226562 9.660156 Z M 20.316406 10.25 L 20.164062 10.246094 L 19.863281 10.265625 L 19.816406 10.175781 L 19.960938 10.035156 L 20.355469 10.160156 Z M 20.546875 9.757812 L 20.082031 9.613281 L 20.070312 9.5625 L 20.011719 9.378906 L 20 9.347656 L 20.070312 9.300781 L 20.246094 9.171875 L 20.445312 9.253906 L 20.746094 9.378906 Z M 20.976562 8.996094 L 20.300781 8.714844 L 20.296875 8.675781 L 20.28125 8.484375 L 20.273438 8.421875 L 20.316406 8.398438 L 20.574219 8.261719 L 20.777344 8.367188 L 21.230469 8.605469 Z M 21.488281 8.242188 L 20.8125 7.882812 L 20.835938 7.597656 L 20.988281 7.507812 L 21.105469 7.4375 L 21.113281 7.421875 L 21.222656 7.496094 L 21.789062 7.855469 Z M 22.074219 7.515625 L 21.902344 7.40625 L 21.25 6.984375 L 21.257812 6.957031 L 21.300781 6.804688 L 21.34375 6.660156 L 21.464844 6.597656 L 21.597656 6.53125 L 22.199219 6.988281 L 22.402344 7.144531 Z M 22.710938 6.824219 L 21.832031 6.152344 L 21.839844 6.121094 L 21.875 5.925781 L 21.890625 5.839844 L 21.890625 5.828125 L 22.078125 5.773438 L 22.222656 5.734375 L 22.445312 5.929688 L 23.066406 6.476562 Z M 25.023438 7.03125 L 24.988281 7.050781 L 24.96875 7.066406 C 24.199219 7.511719 22.675781 8.566406 21.21875 10.527344 L 21.089844 10.457031 L 20.882812 10.222656 L 20.699219 10.019531 L 21.011719 10.042969 L 21.433594 10.066406 L 21.234375 9.722656 L 21.019531 9.355469 L 21.417969 9.457031 L 21.839844 9.570312 L 21.652344 9.121094 L 21.460938 8.660156 L 21.464844 8.65625 L 21.890625 8.78125 L 22.386719 8.925781 L 22.15625 8.402344 L 21.96875 7.984375 L 21.976562 7.976562 L 22.351562 8.117188 L 22.933594 8.335938 L 22.671875 7.65625 L 22.550781 7.339844 L 22.820312 7.445312 L 23.632812 7.769531 L 23.246094 6.839844 L 23.179688 6.679688 L 23.195312 6.660156 L 23.324219 6.726562 L 24.269531 7.230469 L 23.84375 6.085938 L 23.851562 6.078125 L 25.113281 6.671875 L 25.328125 6.867188 Z M 23.394531 6.175781 L 22.691406 5.558594 L 22.621094 5.496094 L 22.570312 5.453125 L 22.597656 5.203125 L 22.601562 5.175781 L 22.605469 5.140625 L 22.605469 5.125 L 22.640625 5.117188 L 22.703125 5.109375 L 22.875 5.089844 L 22.960938 5.078125 L 22.96875 5.070312 L 23.761719 5.863281 Z M 20.007812 17.167969 L 19.9375 17.214844 L 19.90625 17.234375 L 19.699219 17.386719 L 19.621094 17.445312 L 19.574219 17.484375 C 19.386719 17.632812 19.175781 17.816406 19.019531 17.992188 L 18.957031 18.042969 C 18.96875 17.914062 18.992188 17.730469 19.027344 17.570312 L 19.035156 17.542969 L 19.070312 17.328125 L 19.140625 16.722656 L 19.152344 16.621094 L 19.21875 15.949219 L 19.226562 15.832031 L 19.230469 15.824219 C 19.246094 15.601562 19.328125 15.351562 19.371094 15.21875 L 19.40625 15.125 L 19.425781 15.066406 L 19.472656 14.933594 L 19.296875 15.003906 L 19.375 14.808594 L 19.484375 14.542969 L 19.53125 14.460938 L 19.605469 14.34375 L 19.773438 14.382812 L 20.015625 14.414062 L 20.015625 16.257812 L 20.007812 16.828125 Z M 20.113281 17.175781 L 20.132812 16.292969 L 20.140625 16.09375 L 20.144531 15.964844 L 20.164062 15.222656 L 20.199219 15.136719 L 20.242188 15.042969 L 20.242188 15.070312 C 20.25 15.230469 20.269531 15.433594 20.308594 15.609375 L 20.355469 15.800781 C 20.464844 16.261719 20.660156 17.125 20.691406 17.378906 L 20.699219 17.46875 L 20.375 17.3125 Z M 21.195312 16.832031 L 20.972656 17.273438 L 20.921875 17.394531 L 20.882812 17.453125 L 20.800781 16.980469 C 20.777344 16.753906 20.617188 16.046875 20.511719 15.589844 L 20.457031 15.355469 C 20.304688 14.765625 20.324219 14.550781 20.324219 14.550781 L 20.347656 14.414062 L 20.5 14.394531 L 20.671875 14.359375 L 20.820312 14.320312 L 20.976562 14.8125 L 21.480469 16.390625 C 21.429688 16.445312 21.316406 16.621094 21.195312 16.832031 Z M 22.175781 16.488281 L 21.847656 16.421875 C 21.742188 16.398438 21.652344 16.378906 21.601562 16.355469 L 21.078125 14.59375 L 20.976562 14.257812 L 21.238281 14.128906 L 21.371094 14.042969 L 21.476562 14.195312 L 21.90625 15.027344 C 22.003906 15.261719 22.101562 15.53125 22.199219 15.847656 L 22.382812 16.519531 L 22.167969 16.472656 Z M 23.382812 17.832031 C 23.257812 18.066406 23.160156 18.214844 23.0625 18.328125 L 23.050781 18.289062 C 22.835938 17.589844 22.726562 17.320312 22.671875 17.222656 L 22.558594 16.996094 L 22.714844 17.03125 L 22.683594 16.902344 L 22.449219 16.035156 C 22.800781 16.453125 23.484375 16.574219 24.28125 16.648438 L 24.113281 16.777344 L 23.894531 16.972656 C 23.734375 17.140625 23.550781 17.402344 23.382812 17.832031 Z M 27.035156 12.335938 C 26.964844 12.414062 26.710938 12.457031 26.570312 12.410156 L 26.398438 12.355469 C 26.339844 12.339844 26.273438 12.328125 26.179688 12.332031 C 26.054688 12.335938 25.921875 12.417969 25.757812 12.558594 C 25.582031 12.707031 25.421875 12.71875 25.335938 12.636719 C 25.25 12.554688 25.238281 12.378906 25.367188 12.160156 L 25.484375 11.9375 L 25.472656 11.890625 L 25.34375 11.976562 L 25.109375 12.148438 L 25.003906 12.242188 L 24.164062 12.949219 C 23.957031 13.101562 23.882812 13.210938 23.855469 13.328125 C 23.839844 13.382812 23.839844 13.441406 23.84375 13.511719 L 23.851562 13.734375 L 23.859375 14.324219 C 23.859375 14.390625 23.871094 14.429688 23.886719 14.433594 L 23.90625 14.417969 L 23.921875 14.339844 L 23.957031 13.625 C 23.980469 13.464844 24.078125 13.261719 24.292969 13.0625 C 24.550781 12.824219 24.9375 12.53125 25.089844 12.417969 C 25.003906 12.605469 25.101562 12.769531 25.128906 12.785156 C 25.207031 12.835938 25.332031 12.855469 25.511719 12.855469 C 25.574219 12.855469 25.632812 12.839844 25.683594 12.820312 L 25.835938 12.734375 L 25.992188 12.648438 C 26.046875 12.625 26.109375 12.609375 26.175781 12.609375 C 26.175781 12.609375 26.304688 12.753906 26.34375 12.921875 L 26.382812 13.117188 C 26.390625 13.199219 26.394531 13.289062 26.378906 13.382812 C 26.347656 13.5625 26.234375 13.738281 25.933594 13.796875 C 25.65625 13.851562 25.417969 13.832031 25.226562 13.804688 L 24.980469 13.769531 C 24.910156 13.761719 24.855469 13.761719 24.808594 13.78125 C 24.761719 13.800781 24.75 13.824219 24.761719 13.851562 L 24.839844 13.9375 C 24.910156 14 24.984375 14.074219 24.910156 14.160156 L 24.914062 14.207031 C 24.9375 14.207031 24.988281 14.1875 25.035156 14.148438 C 25.125 14.070312 26.007812 13.78125 26.320312 14.0625 C 26.542969 14.183594 26.417969 14.359375 26.226562 14.542969 L 25.929688 14.808594 C 25.84375 14.894531 25.773438 14.976562 25.757812 15.042969 L 25.773438 15.054688 L 25.828125 15.042969 C 25.875 15.035156 25.933594 15.019531 25.996094 15.03125 C 26.125 15.054688 26.253906 15.179688 26.261719 15.628906 C 26.269531 16.261719 25.722656 16.402344 25.382812 16.402344 L 24.386719 16.394531 C 24.101562 16.390625 23.859375 16.386719 23.652344 16.367188 C 23.238281 16.335938 22.953125 16.257812 22.71875 16.054688 C 22.625 15.972656 22.496094 15.847656 22.402344 15.722656 L 22.304688 15.589844 C 22.027344 14.804688 21.738281 14.296875 21.484375 13.960938 C 21.859375 13.664062 22.125 13.238281 22.226562 12.757812 C 22.273438 12.660156 22.34375 12.613281 22.511719 12.640625 C 22.878906 12.699219 23.296875 13.015625 23.296875 13.015625 L 23.3125 13.023438 L 23.347656 13.007812 C 23.359375 12.988281 23.359375 12.964844 23.339844 12.953125 L 23.109375 12.789062 L 22.761719 12.515625 C 22.511719 12.308594 22.269531 12.054688 22.199219 11.800781 L 22.183594 11.742188 L 22.066406 11.441406 C 22.242188 11.203125 22.355469 10.949219 22.457031 10.675781 L 22.738281 9.8125 C 22.972656 9.808594 23.1875 9.761719 23.378906 9.695312 L 23.65625 9.585938 L 23.910156 9.476562 C 24.234375 9.335938 24.5 9.257812 24.753906 9.480469 C 24.785156 9.507812 24.765625 9.546875 24.726562 9.59375 L 24.570312 9.746094 C 24.511719 9.804688 24.445312 9.847656 24.367188 9.886719 L 24.121094 9.984375 C 23.832031 10.089844 23.742188 10.167969 23.75 10.21875 C 23.761719 10.269531 23.871094 10.289062 23.984375 10.269531 C 24.195312 10.234375 24.445312 10.273438 24.601562 10.3125 C 24.914062 10.390625 24.902344 10.511719 24.847656 10.609375 L 24.769531 10.738281 C 24.757812 10.769531 24.765625 10.789062 24.835938 10.789062 C 25.160156 10.757812 25.296875 10.566406 25.378906 10.378906 L 25.476562 10.117188 C 25.503906 10.042969 25.53125 9.988281 25.578125 9.976562 C 25.75 9.933594 25.96875 9.898438 26.28125 10.375 C 26.59375 10.855469 27.253906 12.117188 27.035156 12.335938 Z M 17.007812 19.589844 L 17.648438 19.761719 L 18.332031 19.894531 L 18.34375 19.878906 L 18.101562 19.203125 L 17.839844 18.621094 L 18.308594 18.714844 L 18.824219 18.820312 L 18.863281 19.097656 L 18.863281 19.113281 C 18.570312 19.585938 18.222656 20.066406 17.828125 20.554688 L 17.4375 21.023438 L 17.40625 20.835938 C 17.359375 20.628906 17.300781 20.445312 17.238281 20.269531 L 17.109375 19.921875 Z M 17.410156 21.058594 L 16.800781 21.734375 L 16.058594 20.527344 L 16.71875 20.8125 Z M 15.644531 17.472656 L 15.664062 17.355469 C 15.707031 17.136719 15.800781 16.660156 15.863281 16.46875 L 15.882812 16.382812 L 15.695312 16.3125 L 15.296875 16.21875 L 14.949219 16.164062 C 14.765625 16.140625 14.574219 16.125 14.390625 16.125 L 14.351562 16.113281 L 14.304688 16.105469 L 14.363281 16.070312 C 14.542969 15.976562 14.785156 15.855469 14.992188 15.765625 C 15.1875 15.683594 15.625 15.464844 16.066406 15.226562 L 16.695312 14.867188 L 17.167969 14.554688 L 17.6875 14.203125 L 17.941406 14.027344 L 18.042969 13.949219 L 18.132812 13.867188 L 18.457031 13.589844 L 18.472656 13.578125 L 18.5 13.609375 L 18.71875 13.847656 L 18.976562 14.054688 L 19.183594 14.179688 L 19.175781 14.214844 L 19.113281 14.402344 L 19.027344 14.605469 L 18.800781 15.011719 C 18.660156 15.226562 18.488281 15.445312 18.277344 15.660156 C 18.066406 15.878906 17.820312 16.09375 17.542969 16.304688 C 17.265625 16.515625 16.953125 16.722656 16.613281 16.929688 L 15.996094 17.28125 Z M 11.523438 13.96875 L 11.507812 13.960938 L 10.648438 14.5 L 10.636719 14.480469 L 10.640625 14.464844 L 11.367188 13.917969 L 11.070312 13.847656 L 11.382812 13.71875 L 11.671875 13.601562 L 11.675781 13.601562 L 12.109375 13.441406 C 12.394531 13.34375 12.699219 13.253906 12.945312 13.195312 L 13.375 13.082031 L 13.472656 13.054688 L 13.621094 12.835938 L 13.910156 12.410156 L 13.78125 12.375 L 12.886719 12.210938 L 12.042969 12.0625 L 11.945312 12.023438 C 12.203125 11.957031 12.585938 11.878906 12.910156 11.835938 L 14.449219 11.597656 L 16.171875 11.367188 L 16.605469 11.300781 C 16.75 11.277344 16.886719 11.257812 17.015625 11.253906 C 17.265625 11.253906 17.46875 11.21875 17.46875 11.21875 L 17.941406 11.246094 L 18.324219 11.324219 L 18.25 11.46875 C 18.179688 11.621094 18.128906 11.78125 18.09375 11.953125 L 18.070312 12.105469 L 18.058594 12.335938 L 18.0625 12.402344 L 17.902344 12.394531 C 17.675781 12.382812 16.636719 12.480469 16.636719 12.480469 L 16.445312 12.5 C 16.25 12.527344 16.03125 12.558594 15.824219 12.609375 L 14.464844 12.929688 L 13.671875 13.121094 L 13.535156 13.152344 L 13.382812 13.195312 L 12.96875 13.300781 C 12.699219 13.367188 12.390625 13.460938 12.148438 13.546875 L 11.863281 13.648438 L 11.710938 13.707031 L 11.429688 13.820312 L 11.667969 13.875 Z M 18.261719 7.117188 C 17.972656 7.046875 17.566406 6.96875 17.195312 6.9375 L 16.144531 6.867188 L 15.765625 6.851562 L 15.738281 6.851562 L 15.390625 6.839844 L 14.667969 6.828125 L 13.648438 6.828125 C 13.351562 6.816406 13.011719 6.832031 12.742188 6.847656 L 12.257812 6.886719 L 11.941406 6.921875 L 12.164062 7.042969 L 10.734375 7.335938 L 11.855469 7 L 11.570312 6.851562 L 11.925781 6.8125 L 12.242188 6.777344 L 12.730469 6.738281 C 13.050781 6.71875 13.386719 6.710938 13.648438 6.714844 L 14.101562 6.71875 L 14.800781 6.722656 L 15.082031 6.480469 L 15.332031 6.285156 L 15.441406 6.195312 L 15.40625 6.160156 L 15.398438 6.15625 L 15.300781 6.0625 L 14.859375 5.71875 L 14.5 5.476562 C 14.304688 5.355469 14.097656 5.238281 13.886719 5.140625 L 13.800781 5.074219 C 14.082031 5.085938 14.496094 5.109375 14.839844 5.152344 L 15.257812 5.199219 L 16.507812 5.332031 C 17.214844 5.414062 17.949219 5.527344 18.382812 5.605469 C 18.65625 5.648438 18.953125 5.726562 19.199219 5.804688 L 19.320312 5.839844 L 19.785156 6.003906 L 19.847656 6.027344 L 19.863281 6.035156 L 19.996094 6.488281 L 19.511719 6.617188 L 19.664062 7.1875 L 19.308594 7.398438 L 19.183594 7.367188 C 18.769531 7.195312 18.261719 7.117188 18.261719 7.117188 Z M 13.921875 3.417969 L 13.910156 3.40625 L 13.171875 3.449219 L 14.136719 3.316406 L 14.148438 3.304688 L 14.375 3.277344 L 14.136719 3.085938 L 14.769531 3.117188 L 15.226562 3.152344 C 15.40625 3.167969 15.753906 3.207031 16.082031 3.269531 L 16.539062 3.339844 L 17.496094 3.496094 L 17.230469 3.164062 C 17.035156 2.941406 16.78125 2.683594 16.523438 2.484375 L 16.457031 2.410156 C 16.683594 2.453125 17.019531 2.53125 17.292969 2.613281 L 18.625 2.988281 L 18.679688 3.003906 C 19.222656 3.164062 19.785156 3.355469 20.113281 3.480469 C 20.367188 3.574219 20.636719 3.710938 20.839844 3.828125 L 21.1875 4.039062 L 21.324219 4.132812 L 21.335938 4.179688 L 21.339844 4.191406 L 21.429688 4.523438 L 20.824219 4.535156 C 20.355469 4.3125 19.617188 4.050781 19.34375 3.984375 L 18.480469 3.792969 L 18.382812 3.769531 L 18.304688 3.757812 L 18.164062 3.726562 L 18.074219 3.710938 L 17.96875 3.691406 L 17.929688 3.683594 L 17.855469 3.667969 L 17.679688 3.636719 L 17.578125 3.617188 L 16.066406 3.375 C 15.789062 3.324219 15.476562 3.285156 15.222656 3.261719 L 14.765625 3.226562 L 14.46875 3.210938 L 14.664062 3.363281 L 14.652344 3.363281 L 14.617188 3.367188 Z M 13.539062 5.058594 L 11.960938 5.214844 L 13.257812 5.003906 L 13.269531 4.988281 L 13.253906 4.976562 L 13.230469 4.980469 L 12.984375 4.816406 L 13.671875 4.816406 L 14.085938 4.828125 L 14.152344 4.832031 C 14.476562 4.847656 14.8125 4.875 15.070312 4.910156 L 15.582031 4.964844 L 15.703125 4.976562 L 16.386719 4.644531 L 16.472656 4.582031 L 16.460938 4.5625 L 16.359375 4.464844 L 16.28125 4.398438 L 15.890625 4.105469 C 15.644531 3.894531 15.328125 3.664062 15.011719 3.488281 L 14.929688 3.421875 L 15.1875 3.445312 L 15.78125 3.523438 L 15.894531 3.542969 L 16.519531 3.644531 L 17.441406 3.792969 L 17.449219 3.792969 L 17.492188 3.804688 C 17.964844 3.886719 18.449219 3.984375 18.824219 4.070312 L 19.175781 4.152344 C 19.449219 4.214844 19.742188 4.316406 19.980469 4.410156 L 20.039062 4.433594 L 20.457031 4.617188 L 20.585938 4.683594 L 20.628906 4.886719 L 20.679688 5.109375 L 20.691406 5.171875 L 20.363281 5.1875 L 20.296875 5.191406 L 20.113281 5.199219 L 20.148438 5.28125 L 20.167969 5.328125 L 20.230469 5.46875 L 20.339844 5.71875 L 19.882812 5.832031 L 19.652344 5.742188 C 19.363281 5.648438 18.964844 5.53125 18.59375 5.46875 C 18.257812 5.410156 17.523438 5.289062 16.800781 5.203125 L 15.90625 5.105469 L 15.515625 5.066406 L 15.121094 5.023438 L 15.0625 5.015625 C 14.765625 4.980469 14.425781 4.953125 14.152344 4.941406 L 14.085938 4.9375 L 13.664062 4.925781 L 13.34375 4.925781 Z M 18.820312 17.890625 L 18.765625 18.140625 L 18.582031 17.816406 L 18.457031 17.636719 L 18.46875 17.613281 L 18.8125 17.589844 L 18.84375 17.589844 Z M 14.480469 2.246094 L 15.4375 2.246094 L 15.867188 2.25 L 15.671875 2.042969 L 15.972656 2.089844 L 16.234375 2.132812 L 16.636719 2.203125 C 16.789062 2.238281 17.089844 2.304688 17.375 2.390625 L 17.789062 2.503906 L 18.515625 2.699219 L 18.40625 2.523438 C 18.246094 2.289062 18.039062 2.019531 17.8125 1.804688 L 17.761719 1.726562 C 17.96875 1.785156 18.269531 1.878906 18.515625 1.984375 L 19 2.175781 L 19.710938 2.464844 L 20.445312 2.8125 L 21.023438 3.125 C 21.242188 3.25 21.472656 3.429688 21.636719 3.574219 L 21.914062 3.839844 L 22 3.933594 L 21.984375 3.988281 L 21.367188 4.019531 C 21.03125 3.800781 20.660156 3.574219 20.410156 3.4375 L 20.167969 3.339844 C 19.902344 3.242188 19.320312 3.042969 18.738281 2.875 L 18.589844 2.832031 L 17.347656 2.488281 C 17.113281 2.417969 16.835938 2.355469 16.617188 2.308594 L 16.222656 2.238281 L 16.011719 2.203125 L 15.960938 2.195312 L 16.078125 2.316406 L 16.117188 2.359375 L 15.355469 2.308594 L 14.714844 2.269531 L 14.519531 2.253906 Z M 11.9375 8.9375 L 10.265625 9.414062 L 11.652344 8.933594 L 11.660156 8.917969 L 11.644531 8.910156 L 11.632812 8.914062 L 11.367188 8.789062 L 11.703125 8.730469 L 12.007812 8.675781 C 12.070312 8.664062 12.792969 8.542969 13.359375 8.507812 L 13.851562 8.464844 L 14.210938 8.097656 L 14.328125 7.992188 L 14.289062 7.953125 L 14.261719 7.929688 L 14.1875 7.875 L 14.152344 7.847656 L 14.148438 7.84375 L 13.707031 7.5625 C 13.511719 7.453125 13.28125 7.335938 13.046875 7.230469 L 12.6875 7.089844 L 12.59375 7.035156 C 12.871094 7.011719 13.285156 6.996094 13.628906 7 L 14.492188 7 L 15.296875 7.011719 C 16.003906 7.023438 16.742188 7.070312 17.175781 7.109375 C 17.449219 7.128906 17.742188 7.183594 17.992188 7.234375 L 18.128906 7.261719 L 18.863281 7.421875 L 19.027344 7.484375 L 19.265625 7.570312 L 19.347656 7.847656 L 19.238281 7.886719 L 19.050781 7.960938 L 19.085938 8.050781 L 19.140625 8.183594 L 19.1875 8.304688 L 19.207031 8.347656 L 18.890625 8.507812 L 18.855469 8.5 C 18.425781 8.382812 17.847656 8.351562 17.847656 8.351562 C 17.554688 8.324219 17.15625 8.308594 16.792969 8.328125 C 16.464844 8.34375 15.75 8.394531 15.046875 8.457031 L 14.804688 8.480469 L 14.03125 8.558594 L 13.738281 8.585938 L 13.371094 8.617188 C 12.792969 8.652344 12.0625 8.777344 12.03125 8.785156 L 11.726562 8.839844 Z M 12.34375 15.257812 L 10.933594 16.085938 L 12.007812 15.34375 L 12.011719 15.328125 L 11.992188 15.324219 L 11.980469 15.332031 L 11.628906 15.269531 L 12.007812 15.089844 L 12.339844 14.925781 C 12.40625 14.894531 13.113281 14.5625 13.734375 14.335938 L 13.816406 13.996094 L 13.441406 13.886719 L 13.054688 13.796875 L 13.019531 13.789062 L 12.441406 13.667969 L 12.351562 13.628906 C 12.566406 13.5625 12.886719 13.472656 13.15625 13.421875 L 13.253906 13.398438 L 14.4375 13.117188 L 15.863281 12.78125 C 16.105469 12.722656 16.378906 12.6875 16.59375 12.660156 L 16.960938 12.628906 L 17.292969 12.601562 C 17.292969 12.601562 17.503906 12.546875 17.746094 12.5625 L 17.882812 12.570312 L 18.074219 12.578125 L 18.085938 12.675781 L 18.089844 12.679688 L 18.121094 12.835938 L 18.207031 13.101562 L 16.554688 13.613281 L 16.390625 13.65625 L 15.066406 14.0625 L 14.285156 14.308594 L 14.089844 14.371094 L 13.695312 14.492188 L 13.625 14.519531 C 13.113281 14.714844 12.582031 14.960938 12.441406 15.027344 L 12.402344 15.046875 L 12.066406 15.210938 Z M 13.433594 16.605469 L 12.441406 17.414062 L 12.429688 17.398438 L 13.109375 16.726562 L 13.109375 16.707031 L 13.089844 16.707031 L 13.082031 16.714844 L 12.839844 16.679688 C 12.839844 16.679688 13.8125 16.015625 14.492188 15.632812 C 14.527344 15.519531 14.5625 15.421875 14.597656 15.363281 L 14.589844 15.367188 L 14.339844 15.265625 L 13.984375 15.15625 C 13.703125 15.085938 13.359375 15.027344 13.035156 15.023438 L 12.941406 15 C 13.148438 14.898438 13.460938 14.761719 13.726562 14.675781 L 14.238281 14.492188 L 14.980469 14.226562 L 16.355469 13.753906 C 16.585938 13.675781 16.84375 13.609375 17.042969 13.558594 L 17.386719 13.476562 L 17.695312 13.378906 L 18.097656 13.269531 L 18.265625 13.234375 L 18.367188 13.417969 L 18.414062 13.488281 L 17.417969 14.230469 L 17.347656 14.273438 L 17.074219 14.445312 L 16.65625 14.695312 L 16.039062 15.054688 C 15.59375 15.296875 15.128906 15.53125 14.933594 15.613281 L 14.429688 15.855469 L 14.414062 15.859375 L 14 16.085938 L 13.472656 16.390625 L 13.15625 16.585938 Z M 16.1875 17.371094 L 16.699219 17.070312 C 17.113281 16.816406 17.484375 16.5625 17.8125 16.300781 C 18.136719 16.039062 18.417969 15.769531 18.648438 15.496094 C 18.777344 15.339844 18.890625 15.1875 18.988281 15.03125 L 18.957031 15.371094 C 18.921875 16.683594 17.476562 18.566406 17.476562 18.566406 L 17.546875 18.082031 C 17.570312 17.867188 17.589844 17.585938 17.585938 17.195312 Z M 14.007812 18.867188 L 14.023438 18.867188 L 14.144531 18.765625 L 14.128906 18.785156 L 14.070312 18.886719 L 14.074219 18.902344 L 14.078125 18.902344 L 13.925781 19.203125 C 13.847656 19.382812 13.285156 20.28125 13.089844 20.46875 C 13.367188 20.441406 14.632812 20.222656 14.6875 20.195312 C 14.765625 20.175781 14.992188 20.070312 15.183594 19.972656 L 14.988281 20.320312 L 15.257812 20.210938 C 15.285156 20.199219 15.625 20.058594 15.980469 19.867188 C 16.34375 19.679688 16.714844 19.445312 16.871094 19.316406 L 17.28125 18.96875 C 16.894531 19.410156 16.441406 19.859375 15.929688 20.324219 C 15.839844 20.402344 15.8125 20.554688 15.871094 20.660156 L 16.613281 21.953125 C 16.679688 22.066406 16.820312 22.074219 16.921875 21.960938 C 17.710938 21.09375 18.386719 20.25 18.90625 19.417969 L 18.988281 20.375 L 19.03125 20.898438 C 19.046875 21.046875 19.195312 21.195312 19.371094 21.363281 C 19.605469 21.589844 19.859375 21.933594 19.957031 22.25 C 20.078125 21.90625 20.328125 21.464844 20.472656 21.3125 L 20.546875 21.230469 L 20.585938 21.167969 L 20.628906 20.792969 L 20.832031 21.019531 L 20.871094 20.824219 L 20.964844 20.28125 C 21.011719 20.003906 21.058594 19.695312 21.0625 19.550781 C 21.070312 18.789062 21.046875 18.492188 21.023438 18.375 L 20.976562 18.128906 L 21.125 18.441406 L 21.59375 19.578125 L 21.785156 20.042969 C 21.8125 20.109375 21.867188 20.167969 21.9375 20.222656 L 22.199219 20.382812 L 22.410156 20.503906 L 22.632812 20.65625 C 22.773438 20.761719 22.894531 20.890625 22.941406 21.039062 C 22.945312 20.863281 22.996094 20.585938 23.042969 20.347656 L 23.136719 19.886719 L 23.0625 19.535156 L 23.246094 19.679688 C 23.246094 19.679688 23.171875 18.949219 23.101562 18.523438 L 23.4375 17.992188 L 23.742188 17.503906 C 23.945312 17.207031 24.21875 17.035156 24.523438 16.917969 C 24.671875 16.859375 24.828125 16.8125 24.980469 16.773438 L 25.445312 16.664062 C 26.039062 16.515625 26.519531 16.328125 26.476562 15.574219 C 26.464844 15.414062 26.449219 15.335938 26.417969 15.253906 L 26.292969 14.902344 C 26.285156 14.878906 26.304688 14.84375 26.339844 14.800781 L 26.472656 14.652344 C 26.574219 14.542969 26.679688 14.421875 26.679688 14.300781 C 26.679688 14.070312 26.441406 13.890625 26.441406 13.890625 C 26.441406 13.890625 26.640625 13.796875 26.683594 13.605469 L 26.65625 13.480469 C 26.519531 13.121094 26.523438 12.636719 26.523438 12.636719 L 26.789062 12.636719 C 26.960938 12.636719 27.308594 12.632812 27.261719 12.230469 C 27.164062 11.429688 26.742188 10.664062 26.347656 10.105469 C 26.167969 9.84375 25.996094 9.726562 25.785156 9.621094 C 25.785156 9.621094 26.167969 9.457031 26.167969 9.199219 C 26.167969 8.761719 25.707031 8.019531 25.351562 7.515625 L 25.359375 7.507812 C 25.625 7.210938 25.628906 6.910156 25.628906 6.898438 L 25.625 6.875 L 25.625 6.863281 L 25.59375 6.816406 L 24.265625 5.585938 C 24.226562 5.550781 24.171875 5.546875 24.128906 5.574219 L 24.125 5.578125 L 24.113281 5.585938 L 23.5 4.976562 L 23.484375 4.890625 L 23.441406 4.621094 L 23.472656 4.5625 L 23.566406 4.414062 L 23.253906 4.316406 L 23.339844 3.863281 L 22.945312 3.949219 L 22.851562 3.554688 L 22.558594 3.785156 L 22.097656 3.5 L 22.0625 3.671875 C 21.742188 3.390625 21.289062 3.082031 21.105469 2.976562 L 20.582031 2.691406 L 19.835938 2.335938 L 19.09375 2.027344 L 18.582031 1.824219 C 18.367188 1.734375 18.121094 1.652344 17.921875 1.59375 L 17.558594 1.496094 L 17.320312 1.441406 L 17.453125 1.613281 L 16.828125 1.570312 L 15.953125 1.527344 C 15.621094 1.515625 15.269531 1.515625 14.941406 1.519531 L 14.175781 1.550781 C 14.0625 1.5625 13.484375 1.726562 12.90625 1.894531 L 12.09375 2.128906 L 11.640625 2.242188 C 11.765625 2.230469 12.125 2.359375 12.496094 2.507812 L 12.308594 2.539062 C 12.046875 2.550781 11.496094 2.757812 10.980469 2.972656 L 9.84375 3.453125 L 11.3125 3.738281 L 10.613281 3.871094 C 10.230469 3.925781 9.796875 4.195312 9.425781 4.472656 L 8.925781 4.875 L 8.597656 5.148438 C 8.96875 5.175781 10.347656 5.28125 10.597656 5.25 L 10.4375 5.3125 L 10.210938 5.371094 C 10.046875 5.410156 9.886719 5.445312 9.828125 5.488281 L 10.378906 5.527344 L 10.234375 5.554688 L 9.214844 5.78125 C 8.886719 5.867188 8.621094 6.101562 8.375 6.378906 L 8.015625 6.808594 L 7.65625 7.230469 L 8.621094 7.265625 C 8.972656 7.273438 9.292969 7.28125 9.429688 7.296875 L 9.230469 7.507812 L 9.011719 7.714844 L 9.40625 7.660156 L 10.066406 7.570312 C 9.605469 7.710938 8.875 7.957031 8.503906 8.082031 C 8.148438 8.203125 7.210938 9.242188 6.992188 9.535156 C 7.167969 9.609375 7.449219 9.660156 7.71875 9.695312 L 8.386719 9.777344 L 8.035156 10.121094 L 8.371094 10.027344 L 9.136719 9.84375 L 8.859375 9.941406 L 7.914062 10.308594 C 7.777344 10.363281 7.566406 10.613281 7.359375 10.886719 L 6.828125 11.601562 C 6.980469 11.691406 7.285156 11.726562 7.589844 11.746094 L 8.023438 11.773438 L 8.339844 11.800781 L 8.09375 11.976562 C 8.003906 12.039062 7.910156 12.101562 7.847656 12.171875 L 8.4375 12.023438 C 8.125 12.183594 7.816406 12.503906 7.558594 12.808594 L 7.214844 13.21875 C 7.117188 13.335938 7.042969 13.421875 6.988281 13.460938 L 7.304688 13.507812 L 7.738281 13.585938 C 8.039062 13.636719 8.339844 13.6875 8.484375 13.679688 L 8.394531 13.808594 L 7.867188 14.242188 C 7.757812 14.339844 7.648438 14.605469 7.554688 14.878906 L 7.417969 15.273438 L 7.304688 15.554688 L 8.054688 15.535156 L 8.761719 15.515625 L 8.601562 15.921875 L 8.84375 15.746094 L 9.046875 15.617188 L 9.496094 15.347656 C 9.164062 15.679688 8.671875 16.261719 8.609375 16.53125 C 8.558594 16.765625 8.515625 17.054688 8.480469 17.335938 C 8.460938 17.480469 8.460938 17.578125 8.46875 17.667969 L 8.511719 17.964844 C 8.5625 17.914062 8.808594 17.738281 9.050781 17.574219 L 9.550781 17.238281 L 9.917969 16.929688 L 9.824219 17.292969 L 10.019531 17.148438 L 10.199219 17.027344 L 10.601562 16.789062 L 10.769531 16.699219 L 10.554688 16.960938 L 10.335938 17.238281 L 10.171875 17.5 C 10.105469 17.617188 10.003906 17.921875 9.902344 18.234375 L 9.746094 18.691406 L 9.605469 19.03125 C 9.753906 18.917969 10.175781 18.785156 10.570312 18.667969 L 11.113281 18.496094 C 11.265625 18.441406 11.371094 18.394531 11.398438 18.355469 L 11.410156 18.71875 C 11.457031 18.65625 11.644531 18.472656 11.882812 18.242188 L 11.976562 18.152344 L 11.871094 18.367188 L 11.757812 18.566406 C 11.621094 18.769531 11.394531 19.863281 11.394531 20.226562 L 12.0625 19.894531 L 12.675781 19.570312 L 12.660156 19.921875 L 12.917969 19.722656 L 13.328125 19.40625 L 13.714844 19.09375 Z M 10.582031 10.945312 L 10.566406 10.9375 L 9.933594 11.144531 L 11.472656 10.539062 L 11.480469 10.527344 L 11.464844 10.519531 L 11.453125 10.523438 L 11.179688 10.410156 L 11.515625 10.335938 L 11.816406 10.265625 L 12.28125 10.171875 C 12.585938 10.117188 12.90625 10.070312 13.15625 10.046875 L 13.449219 10.011719 L 13.816406 9.5625 C 13.773438 9.527344 13.105469 9.28125 12.632812 9.105469 L 12.175781 8.9375 C 12.441406 8.898438 13.03125 8.816406 13.363281 8.796875 L 13.578125 8.78125 L 14.976562 8.640625 C 15.660156 8.578125 16.378906 8.527344 16.800781 8.503906 C 17.113281 8.484375 17.464844 8.496094 17.734375 8.519531 L 18.207031 8.566406 L 18.632812 8.628906 L 18.800781 8.644531 L 18.816406 8.675781 L 18.890625 8.851562 L 18.988281 9.082031 L 18.703125 9.246094 L 18.898438 9.601562 L 18.652344 9.808594 L 18.40625 9.867188 C 17.910156 9.785156 16.878906 9.769531 16.554688 9.792969 C 16.230469 9.816406 15.527344 9.875 14.832031 9.957031 L 14.804688 9.957031 L 14.304688 10.015625 L 14.230469 10.027344 L 14.191406 10.03125 L 13.351562 10.136719 L 13.171875 10.15625 C 12.886719 10.183594 12.5625 10.234375 12.304688 10.28125 L 11.84375 10.375 L 11.542969 10.441406 L 11.773438 10.539062 L 11.625 10.589844 L 11.613281 10.59375 L 11.554688 10.617188 Z M 21.972656 11.605469 C 22.0625 11.828125 22.113281 12.074219 22.113281 12.335938 C 22.113281 12.492188 22.09375 12.644531 22.058594 12.792969 C 21.957031 13.210938 21.714844 13.578125 21.386719 13.839844 L 21.277344 13.921875 C 21.167969 13.996094 21.054688 14.058594 20.933594 14.109375 L 20.773438 14.167969 L 20.578125 14.222656 L 20.398438 14.253906 L 20.375 14.253906 L 20.324219 14.257812 L 20.28125 14.269531 L 20.113281 14.269531 L 20.015625 14.261719 L 19.71875 14.214844 L 19.625 14.191406 L 19.417969 14.117188 L 19.382812 14.105469 L 19.363281 14.09375 L 19.289062 14.0625 L 19.265625 14.050781 L 19.21875 14.023438 L 19.210938 14.019531 L 19.058594 13.925781 L 18.800781 13.714844 L 18.617188 13.503906 L 18.597656 13.476562 L 18.53125 13.386719 L 18.476562 13.300781 L 18.417969 13.191406 L 18.414062 13.175781 L 18.355469 13.054688 L 18.265625 12.761719 L 18.242188 12.652344 L 18.238281 12.621094 L 18.234375 12.582031 L 18.214844 12.429688 L 18.214844 12.335938 L 18.234375 12.0625 L 18.261719 11.917969 C 18.300781 11.738281 18.367188 11.566406 18.453125 11.414062 L 18.488281 11.351562 L 18.597656 11.179688 C 18.757812 10.972656 18.953125 10.796875 19.183594 10.664062 L 19.402344 10.554688 L 19.492188 10.519531 L 19.757812 10.441406 L 19.835938 10.429688 L 20.109375 10.398438 L 20.167969 10.398438 C 20.351562 10.398438 20.535156 10.425781 20.707031 10.476562 C 20.871094 10.523438 21.03125 10.59375 21.171875 10.679688 C 21.523438 10.886719 21.800781 11.203125 21.960938 11.578125 Z M 9.898438 12.867188 L 9.890625 12.867188 L 10.558594 12.492188 L 10.566406 12.476562 L 11.246094 12.101562 L 10.953125 12.003906 L 11.28125 11.902344 L 11.578125 11.820312 L 11.582031 11.816406 L 12.03125 11.703125 C 12.324219 11.636719 12.636719 11.578125 12.886719 11.546875 L 13.328125 11.480469 L 13.539062 11.449219 L 13.824219 11.402344 L 13.902344 11.3125 L 13.964844 11.25 L 13.792969 11.128906 L 13.410156 10.933594 L 13.308594 10.886719 C 13.011719 10.753906 12.636719 10.613281 12.28125 10.53125 L 12.183594 10.488281 C 12.449219 10.433594 12.84375 10.367188 13.171875 10.335938 L 13.199219 10.332031 L 14.765625 10.140625 C 15.441406 10.0625 16.148438 10 16.5625 9.96875 C 16.875 9.945312 17.21875 9.953125 17.484375 9.96875 L 17.835938 9.996094 L 17.945312 10.007812 L 18.367188 10.054688 L 18.386719 10.054688 L 18.5 10.0625 L 18.734375 10.402344 L 18.835938 10.554688 L 18.855469 10.582031 L 18.792969 10.683594 L 18.730469 10.789062 L 18.703125 10.835938 C 18.597656 10.933594 18.507812 11.039062 18.425781 11.15625 L 17.9375 11.085938 C 17.75 11.058594 17.402344 11.074219 17.058594 11.101562 L 16.152344 11.195312 L 15.003906 11.34375 L 14.507812 11.414062 L 14.351562 11.433594 L 14.269531 11.445312 L 14.152344 11.464844 L 14.054688 11.476562 L 13.949219 11.492188 L 13.898438 11.5 L 13.734375 11.527344 L 13.558594 11.554688 L 12.902344 11.65625 C 12.625 11.695312 12.308594 11.757812 12.058594 11.816406 L 11.605469 11.925781 L 11.3125 12.011719 L 11.546875 12.09375 Z M 18.847656 11.945312 L 18.914062 11.765625 L 19.007812 11.597656 L 19.125 11.441406 L 19.152344 11.410156 L 19.296875 11.277344 L 19.496094 11.140625 L 19.464844 11.078125 L 19.390625 10.925781 L 19.382812 10.910156 L 19.359375 10.867188 L 19.15625 11 L 19.140625 11.007812 L 18.921875 11.203125 L 18.90625 11.226562 L 18.847656 11.296875 L 18.773438 11.394531 C 18.707031 11.492188 18.648438 11.597656 18.605469 11.707031 L 18.5625 11.824219 L 18.546875 11.855469 L 18.546875 11.863281 Z M 18.847656 11.945312 "/>
<path style=" stroke:none;fill-rule:nonzero;fill:rgb(0%,27.843137%,58.039216%);fill-opacity:1;" d="M 26.144531 23.671875 L 26.144531 24.410156 L 26.964844 24.410156 L 26.964844 26.851562 L 27.820312 26.851562 L 27.820312 24.410156 L 28.683594 24.410156 L 28.683594 23.671875 Z M 24.90625 26.113281 L 24.871094 26.113281 L 23.953125 23.671875 L 22.507812 23.671875 L 22.507812 26.851562 L 23.363281 26.851562 L 23.3125 24.410156 L 23.347656 24.410156 L 24.253906 26.851562 L 25.710938 26.851562 L 25.710938 23.671875 L 24.851562 23.671875 Z M 20.453125 25.535156 L 21.820312 25.535156 L 21.820312 24.949219 L 20.453125 24.949219 L 20.453125 24.367188 L 21.90625 24.367188 L 21.90625 23.671875 L 19.597656 23.671875 L 19.597656 26.851562 L 21.941406 26.851562 L 21.941406 26.15625 L 20.453125 26.15625 Z M 17.640625 24.34375 L 17.828125 24.347656 L 18.003906 24.382812 C 18.109375 24.421875 18.183594 24.5 18.191406 24.660156 L 19.058594 24.660156 C 19.058594 23.652344 18.46875 23.648438 17.640625 23.648438 C 16.699219 23.648438 16.117188 23.804688 16.117188 24.855469 L 16.117188 25.675781 C 16.117188 26.707031 16.632812 26.875 17.640625 26.875 C 18.785156 26.875 19.058594 26.679688 19.058594 25.609375 L 19.058594 25.054688 L 17.601562 25.054688 L 17.601562 25.640625 L 18.191406 25.640625 C 18.191406 26.085938 18.074219 26.179688 17.640625 26.179688 C 17.195312 26.179688 17 26.121094 17 25.558594 L 17 25.042969 C 17.007812 24.527344 17.023438 24.34375 17.640625 24.34375 Z M 12.84375 23.671875 L 11.882812 26.851562 L 12.773438 26.851562 L 12.929688 26.304688 L 14.078125 26.304688 L 14.246094 26.851562 L 15.117188 26.851562 L 14.144531 23.671875 Z M 13.113281 25.6875 L 13.503906 24.308594 L 13.511719 24.308594 L 13.910156 25.6875 Z M 9.449219 23.671875 L 8.488281 26.851562 L 9.375 26.851562 L 9.535156 26.304688 L 10.683594 26.304688 L 10.847656 26.851562 L 11.71875 26.851562 L 10.746094 23.671875 Z M 9.71875 25.6875 L 10.105469 24.308594 L 10.113281 24.308594 L 10.511719 25.6875 Z M 8.265625 23.671875 L 7.230469 23.671875 L 6.40625 24.867188 L 6.152344 24.867188 L 6.152344 23.671875 L 5.296875 23.671875 L 5.296875 26.851562 L 6.152344 26.851562 L 6.152344 25.605469 L 6.40625 25.605469 L 7.300781 26.851562 L 8.355469 26.851562 L 7.136719 25.234375 Z M 8.265625 23.671875 "/>
<path style=" stroke:none;fill-rule:nonzero;fill:rgb(0%,27.843137%,58.039216%);fill-opacity:1;" d="M 7.433594 28.539062 L 10.347656 28.539062 L 10.347656 28.675781 L 7.433594 28.675781 Z M 7.433594 28.539062 "/>
<path style=" stroke:none;fill-rule:nonzero;fill:rgb(0%,27.843137%,58.039216%);fill-opacity:1;" d="M 23.628906 28.539062 L 26.546875 28.539062 L 26.546875 28.675781 L 23.628906 28.675781 Z M 23.628906 28.539062 "/>
<path style=" stroke:none;fill-rule:nonzero;fill:rgb(0%,27.843137%,58.039216%);fill-opacity:1;" d="M 21.816406 28.414062 C 21.816406 28.195312 21.734375 28.128906 21.523438 28.121094 L 21.023438 28.121094 L 21.023438 29.09375 L 21.214844 29.09375 L 21.214844 28.769531 L 21.5 28.769531 C 21.589844 28.773438 21.625 28.828125 21.625 28.910156 L 21.625 29.09375 L 21.808594 29.09375 L 21.808594 28.910156 C 21.808594 28.773438 21.777344 28.703125 21.644531 28.691406 C 21.808594 28.660156 21.816406 28.554688 21.816406 28.414062 Z M 21.460938 28.613281 L 21.210938 28.613281 L 21.210938 28.28125 L 21.472656 28.28125 C 21.605469 28.28125 21.628906 28.308594 21.628906 28.445312 C 21.628906 28.585938 21.597656 28.613281 21.460938 28.613281 Z M 20.300781 28.675781 L 20.757812 28.675781 L 20.757812 28.523438 L 20.300781 28.523438 L 20.300781 28.285156 L 20.789062 28.285156 L 20.789062 28.121094 L 20.113281 28.121094 L 20.113281 29.089844 L 20.789062 29.089844 L 20.789062 28.929688 L 20.300781 28.929688 Z M 19.289062 28.839844 L 19.019531 28.121094 L 18.71875 28.121094 L 18.71875 29.089844 L 18.90625 29.089844 L 18.890625 28.28125 L 19.203125 29.089844 L 19.371094 29.089844 L 19.675781 28.277344 L 19.683594 28.277344 L 19.667969 29.089844 L 19.855469 29.089844 L 19.855469 28.121094 L 19.546875 28.121094 Z M 17.886719 28.839844 L 17.617188 28.121094 L 17.316406 28.121094 L 17.316406 29.089844 L 17.503906 29.089844 L 17.488281 28.28125 L 17.800781 29.089844 L 17.96875 29.089844 L 18.273438 28.277344 L 18.28125 28.277344 L 18.265625 29.089844 L 18.453125 29.089844 L 18.453125 28.121094 L 18.148438 28.121094 Z M 16.863281 28.8125 C 16.863281 28.914062 16.820312 28.9375 16.644531 28.9375 C 16.464844 28.9375 16.429688 28.910156 16.429688 28.8125 L 16.429688 28.121094 L 16.242188 28.121094 L 16.242188 28.8125 C 16.242188 29.078125 16.417969 29.097656 16.644531 29.097656 C 16.882812 29.097656 17.050781 29.078125 17.050781 28.8125 L 17.050781 28.121094 L 16.863281 28.121094 Z M 15.804688 28.929688 L 15.800781 28.929688 L 15.382812 28.125 L 15.074219 28.125 L 15.074219 29.089844 L 15.261719 29.089844 L 15.246094 28.28125 L 15.253906 28.28125 L 15.664062 29.089844 L 15.976562 29.089844 L 15.976562 28.125 L 15.789062 28.125 Z M 14.242188 28.839844 L 13.972656 28.121094 L 13.671875 28.121094 L 13.671875 29.089844 L 13.859375 29.089844 L 13.84375 28.28125 L 14.15625 29.089844 L 14.324219 29.089844 L 14.628906 28.277344 L 14.636719 28.277344 L 14.621094 29.089844 L 14.808594 29.089844 L 14.808594 28.121094 L 14.503906 28.121094 Z M 12.890625 28.121094 L 12.570312 29.089844 L 12.761719 29.089844 L 12.820312 28.90625 L 13.242188 28.90625 L 13.304688 29.089844 L 13.496094 29.089844 L 13.164062 28.121094 Z M 12.863281 28.765625 L 13.03125 28.265625 L 13.203125 28.765625 Z M 11.800781 28.285156 L 12.089844 28.285156 L 12.089844 29.089844 L 12.273438 29.089844 L 12.273438 28.285156 L 12.558594 28.285156 L 12.558594 28.121094 L 11.800781 28.121094 Z M 11.242188 28.523438 C 11.050781 28.511719 11.027344 28.507812 11.027344 28.390625 C 11.027344 28.285156 11.058594 28.269531 11.242188 28.269531 C 11.375 28.269531 11.414062 28.273438 11.414062 28.375 L 11.414062 28.40625 L 11.605469 28.40625 L 11.605469 28.375 C 11.605469 28.125 11.441406 28.117188 11.242188 28.117188 C 11.011719 28.117188 10.839844 28.125 10.839844 28.390625 C 10.839844 28.53125 10.882812 28.597656 10.949219 28.632812 L 11.070312 28.664062 L 11.21875 28.675781 L 11.3125 28.679688 L 11.378906 28.691406 C 11.417969 28.703125 11.4375 28.734375 11.4375 28.804688 C 11.4375 28.914062 11.414062 28.945312 11.242188 28.945312 C 11.070312 28.945312 11.023438 28.9375 11.023438 28.828125 L 11.023438 28.785156 L 10.835938 28.785156 L 10.835938 28.828125 C 10.835938 28.964844 10.882812 29.03125 10.957031 29.066406 L 11.085938 29.097656 L 11.242188 29.097656 C 11.492188 29.097656 11.625 29.074219 11.625 28.804688 C 11.625 28.554688 11.539062 28.539062 11.242188 28.523438 Z M 11.242188 28.523438 "/>
<path style=" stroke:none;fill-rule:nonzero;fill:rgb(0%,27.843137%,58.039216%);fill-opacity:1;" d="M 22.421875 28.285156 L 22.964844 28.285156 L 22.546875 29.089844 L 22.746094 29.089844 L 23.144531 28.300781 L 23.144531 28.121094 L 22.421875 28.121094 Z M 22.421875 28.285156 "/>
</g>
</svg>
