<?xml version="1.0" encoding="UTF-8"?>
<svg xmlns="http://www.w3.org/2000/svg" xmlns:xlink="http://www.w3.org/1999/xlink" width="32px" height="32px" viewBox="0 0 32 32" version="1.1">
<g id="surface1">
<path style=" stroke:none;fill-rule:evenodd;fill:rgb(0%,0%,0%);fill-opacity:1;" d="M 15.996094 0 C 24.808594 0 32 7.183594 32 15.996094 C 32 24.808594 24.808594 32 15.996094 32 C 7.1875 32 0 24.808594 0 15.996094 C 0 7.183594 7.1875 0 15.996094 0 Z M 15.996094 0 "/>
<path style=" stroke:none;fill-rule:evenodd;fill:rgb(97.647059%,64.705882%,10.196078%);fill-opacity:1;" d="M 15.996094 0.386719 C 24.597656 0.386719 31.605469 7.402344 31.605469 15.996094 C 31.605469 24.59375 24.597656 31.605469 15.996094 31.605469 C 7.402344 31.605469 0.390625 24.589844 0.390625 15.996094 C 0.390625 7.402344 7.402344 0.386719 15.996094 0.386719 Z M 15.996094 0.386719 "/>
<path style=" stroke:none;fill-rule:evenodd;fill:rgb(0%,0%,0%);fill-opacity:1;" d="M 20.070312 1.929688 L 19.84375 3.128906 L 17.457031 5.445312 C 18.035156 5.570312 18.585938 5.699219 19.0625 5.863281 L 18.773438 6.902344 C 17.894531 6.632812 16.964844 6.488281 15.996094 6.488281 C 15.886719 6.488281 15.78125 6.488281 15.671875 6.492188 L 15.804688 5.390625 L 18.304688 2.804688 C 17.707031 2.675781 17.023438 2.59375 16.261719 2.582031 L 16.382812 1.351562 C 17.660156 1.386719 18.894531 1.585938 20.070312 1.929688 Z M 20.070312 1.929688 "/>
<path style=" stroke:none;fill-rule:evenodd;fill:rgb(0%,0%,0%);fill-opacity:1;" d="M 23.996094 3.738281 L 23.417969 4.816406 C 22.765625 4.378906 22.273438 4.117188 21.621094 3.8125 C 21.523438 3.765625 21.503906 3.789062 21.480469 3.847656 L 21.15625 4.617188 C 21.753906 4.902344 22.355469 5.226562 22.957031 5.628906 C 22.980469 5.644531 22.96875 5.660156 22.964844 5.667969 L 22.429688 6.53125 C 22.414062 6.558594 22.402344 6.5625 22.359375 6.53125 C 21.835938 6.195312 21.316406 5.890625 20.789062 5.664062 C 20.738281 5.644531 20.71875 5.644531 20.695312 5.691406 C 20.589844 5.90625 20.496094 6.136719 20.40625 6.375 C 21.011719 6.65625 21.597656 7 22.089844 7.367188 L 21.578125 8.304688 C 20.808594 7.75 19.933594 7.289062 19.023438 6.980469 L 20.789062 2.15625 C 21.925781 2.554688 23.003906 3.085938 23.996094 3.738281 Z M 23.996094 3.738281 "/>
<path style=" stroke:none;fill-rule:evenodd;fill:rgb(0%,0%,0%);fill-opacity:1;" d="M 15.402344 6.507812 C 14.953125 6.535156 14.515625 6.59375 14.085938 6.683594 C 13.695312 6.765625 13.316406 6.863281 12.941406 6.992188 L 12.378906 5.984375 C 12.011719 6.105469 11.644531 6.257812 11.261719 6.453125 L 11.359375 7.703125 C 10.90625 7.957031 10.476562 8.25 10.070312 8.570312 L 10.074219 8.570312 C 9.738281 8.835938 9.425781 9.117188 9.140625 9.425781 L 7.453125 8.6875 L 8.25 10.496094 C 7.941406 10.933594 7.660156 11.402344 7.429688 11.886719 L 4.941406 6.402344 C 5.253906 6.046875 5.582031 5.703125 5.925781 5.378906 L 6.757812 6.8125 L 6.957031 4.488281 C 7.417969 4.121094 7.902344 3.789062 8.40625 3.480469 L 7.949219 6.726562 L 9.890625 8.414062 L 9.769531 2.746094 C 10.351562 2.472656 10.957031 2.230469 11.578125 2.035156 L 13.980469 6.257812 L 13.886719 1.5 C 14.429688 1.421875 14.980469 1.371094 15.542969 1.355469 Z M 11.789062 4.933594 L 11.171875 3.832031 C 11.0625 3.628906 11.03125 3.632812 11.054688 3.863281 L 11.15625 5.195312 C 11.359375 5.097656 11.574219 5.007812 11.789062 4.933594 Z M 11.789062 4.933594 "/>
<path style=" stroke:none;fill-rule:evenodd;fill:rgb(0%,0%,0%);fill-opacity:1;" d="M 25.695312 5.035156 C 26.023438 5.324219 26.265625 5.578125 26.457031 5.835938 C 26.738281 6.238281 26.886719 6.75 26.917969 7.242188 C 26.960938 7.929688 26.722656 8.527344 26.0625 8.890625 C 25.808594 9.023438 25.4375 9.019531 24.988281 8.988281 L 24.441406 11.628906 C 24.1875 11.140625 23.894531 10.683594 23.566406 10.253906 L 23.742188 8.550781 L 23.507812 8.328125 L 22.8125 9.371094 C 22.523438 9.078125 22.21875 8.800781 21.898438 8.546875 L 24.617188 4.234375 C 25.238281 4.589844 25.574219 4.925781 25.695312 5.035156 Z M 25.257812 6.324219 L 25.003906 6.082031 L 24.289062 7.15625 L 24.542969 7.382812 C 24.722656 7.539062 24.894531 7.695312 25.128906 7.648438 C 25.390625 7.585938 25.644531 7.324219 25.628906 6.992188 C 25.621094 6.785156 25.511719 6.582031 25.257812 6.324219 Z M 25.257812 6.324219 "/>
<path style=" stroke:none;fill-rule:evenodd;fill:rgb(0%,0%,0%);fill-opacity:1;" d="M 15.03125 25.460938 L 14.648438 30.582031 C 14.019531 30.527344 13.410156 30.429688 12.808594 30.292969 L 13.628906 25.207031 C 14.082031 25.328125 14.554688 25.410156 15.03125 25.460938 Z M 15.03125 25.460938 "/>
<path style=" stroke:none;fill-rule:evenodd;fill:rgb(0%,0%,0%);fill-opacity:1;" d="M 7.085938 27.605469 C 6.140625 26.878906 5.292969 26.035156 4.542969 25.113281 C 4.253906 24.753906 4.449219 24.441406 4.582031 24.261719 C 4.917969 23.800781 6.902344 20.59375 7.421875 20.523438 C 7.628906 20.5 7.691406 20.632812 7.785156 20.777344 C 8.199219 21.378906 8.644531 22.066406 9.234375 22.667969 L 8.777344 23.726562 C 8.402344 23.378906 8.019531 22.957031 7.703125 22.558594 C 7.5625 22.425781 7.429688 22.511719 7.347656 22.597656 C 6.882812 23.246094 6.472656 23.871094 6.039062 24.585938 C 5.964844 24.707031 5.953125 24.796875 6.03125 24.878906 C 6.546875 25.453125 6.996094 25.933594 7.585938 26.445312 Z M 7.085938 27.605469 "/>
<path style=" stroke:none;fill-rule:evenodd;fill:rgb(0%,0%,0%);fill-opacity:1;" d="M 10.792969 23.949219 L 10.21875 25.597656 L 11.332031 26.136719 L 11.839844 24.546875 C 12.246094 24.746094 12.667969 24.914062 13.105469 25.054688 L 12.019531 30.09375 C 11.480469 29.941406 10.957031 29.761719 10.449219 29.546875 L 10.882812 27.789062 L 9.691406 27.203125 L 9.054688 28.886719 C 8.546875 28.613281 8.054688 28.304688 7.585938 27.976562 C 8.226562 26.320312 8.910156 24.679688 9.636719 23.054688 C 10 23.382812 10.386719 23.679688 10.792969 23.949219 Z M 10.792969 23.949219 "/>
<path style=" stroke:none;fill-rule:evenodd;fill:rgb(0%,0%,0%);fill-opacity:1;" d="M 19.152344 24.96875 L 20.363281 29.980469 C 20.871094 29.820312 21.363281 29.632812 21.847656 29.425781 L 21.207031 27.355469 C 21.707031 27.121094 22.226562 26.84375 22.777344 26.484375 C 22.832031 26.453125 22.816406 26.429688 22.804688 26.40625 L 22.464844 25.605469 C 22.421875 25.5 22.359375 25.476562 22.273438 25.53125 C 21.78125 25.847656 21.304688 26.128906 20.878906 26.3125 L 20.632812 25.511719 C 21.089844 25.292969 21.613281 25 22.320312 24.480469 L 21.871094 23.46875 C 21.0625 24.109375 20.140625 24.617188 19.152344 24.96875 Z M 19.152344 24.96875 "/>
<path style=" stroke:none;fill-rule:evenodd;fill:rgb(0%,0%,0%);fill-opacity:1;" d="M 22.265625 23.144531 L 23.527344 25.964844 C 24.214844 25.425781 24.777344 24.914062 25.203125 24.433594 L 25.714844 25.25 C 25.070312 25.925781 24.351562 26.535156 23.566406 27.078125 L 24.015625 28.246094 C 25.28125 27.410156 26.417969 26.386719 27.375 25.207031 L 25.5 22.503906 C 25.480469 22.472656 25.425781 22.429688 25.382812 22.5 C 24.945312 23.113281 24.5 23.632812 24.0625 24.058594 L 23.652344 23.308594 C 24.199219 22.71875 24.605469 22.179688 24.925781 21.683594 L 24.308594 20.804688 C 24.277344 20.761719 24.242188 20.726562 24.1875 20.824219 C 23.671875 21.691406 23.019531 22.480469 22.265625 23.144531 Z M 22.265625 23.144531 "/>
<path style=" stroke:none;fill-rule:evenodd;fill:rgb(0%,0%,0%);fill-opacity:1;" d="M 18.664062 25.316406 L 18.730469 26.222656 L 16.90625 26.5625 L 16.898438 27.382812 C 17.601562 27.3125 18.167969 27.226562 18.640625 27.105469 C 18.722656 27.085938 18.765625 27.136719 18.773438 27.246094 L 18.84375 28.167969 C 18.15625 28.3125 17.5 28.421875 16.914062 28.464844 L 16.910156 29.390625 C 17.660156 29.355469 18.449219 29.21875 19.277344 29.015625 C 19.46875 28.96875 19.460938 29.078125 19.46875 29.125 L 19.585938 30.199219 C 18.4375 30.492188 17.234375 30.648438 15.996094 30.648438 C 15.851562 30.648438 15.714844 30.644531 15.570312 30.644531 L 15.550781 25.496094 C 15.703125 25.507812 15.84375 25.507812 15.996094 25.507812 C 16.855469 25.507812 17.683594 25.390625 18.476562 25.179688 C 18.570312 25.152344 18.65625 25.160156 18.664062 25.316406 Z M 18.664062 25.316406 "/>
<path style=" stroke:none;fill-rule:evenodd;fill:rgb(0%,0%,0%);fill-opacity:1;" d="M 18.113281 24.109375 C 17.84375 24.183594 17.570312 24.238281 17.292969 24.28125 L 17.964844 13.207031 L 21.316406 9.945312 C 21.464844 10.078125 21.613281 10.21875 21.753906 10.363281 L 19.914062 12.046875 L 19.988281 12.132812 L 21.957031 10.582031 C 22.691406 11.386719 23.265625 12.335938 23.628906 13.390625 L 20.855469 14.664062 L 20.890625 14.761719 L 23.824219 14.019531 C 23.984375 14.652344 24.074219 15.320312 24.074219 15.996094 C 24.074219 16.46875 24.039062 16.945312 23.960938 17.390625 L 23.160156 17.59375 L 23.109375 19.613281 C 23.109375 19.648438 23.09375 19.660156 23.066406 19.675781 C 22.976562 19.722656 22.773438 19.769531 22.652344 19.777344 L 20.160156 20.035156 C 19.996094 20.058594 19.953125 19.914062 19.941406 19.773438 L 19.539062 14.882812 L 19.265625 14.683594 L 19.96875 23.15625 C 19.53125 23.398438 19.066406 23.605469 18.582031 23.765625 L 18.585938 14.945312 L 18.40625 14.945312 Z M 18.113281 24.109375 "/>
<path style=" stroke:none;fill-rule:evenodd;fill:rgb(0%,0%,0%);fill-opacity:1;" d="M 19.863281 8.984375 L 20.445312 9.863281 L 20.300781 9.992188 L 19.011719 8.476562 L 18.292969 8.105469 L 17.96875 8.507812 L 19.898438 10.347656 L 19.722656 10.5 L 17.128906 8.074219 L 15.960938 7.769531 L 15.476562 8.1875 L 19.074219 11.074219 L 18.933594 11.191406 L 14.636719 8.066406 L 13.648438 7.949219 L 12.902344 8.613281 L 18.445312 11.625 L 18.308594 11.75 L 12.414062 8.84375 L 11.074219 9.125 L 11.148438 10.199219 L 17.878906 12.121094 L 17.664062 12.3125 L 10.335938 10.335938 L 9.171875 10.972656 L 9.183594 12.425781 L 17.148438 12.816406 L 17.144531 13.109375 L 8.734375 12.976562 L 7.878906 13.910156 L 8.546875 15.523438 L 17.132812 13.492188 L 17.128906 13.867188 L 8.105469 16.601562 L 7.851562 18.035156 L 9.402344 19.003906 L 17.125 14.292969 L 17.113281 14.722656 L 9.3125 20.125 L 9.726562 21.703125 L 11.097656 22.164062 L 17.109375 15.058594 L 17.105469 15.476562 L 11.8125 22.480469 L 12.609375 23.761719 L 13.976562 23.75 L 17.09375 15.933594 L 17.082031 16.597656 L 14.523438 23.769531 L 15.597656 24.382812 L 16.839844 23.265625 L 17.660156 12.972656 L 20.996094 9.679688 L 20.507812 9.054688 L 20.195312 9 Z M 19.863281 8.984375 "/>
<path style=" stroke:none;fill-rule:evenodd;fill:rgb(0%,0%,0%);fill-opacity:1;" d="M 4.039062 13.425781 C 3.378906 13.425781 2.761719 13.679688 2.296875 14.148438 C 1.828125 14.613281 1.570312 15.234375 1.570312 15.890625 C 1.570312 16.550781 1.828125 17.171875 2.296875 17.636719 C 2.761719 18.105469 3.378906 18.359375 4.039062 18.359375 C 4.691406 18.359375 5.3125 18.105469 5.785156 17.636719 C 6.25 17.171875 6.507812 16.550781 6.507812 15.890625 C 6.507812 15.234375 6.25 14.613281 5.785156 14.148438 C 5.3125 13.679688 4.691406 13.425781 4.039062 13.425781 Z M 4.039062 13.425781 "/>
<path style=" stroke:none;fill-rule:evenodd;fill:rgb(0%,0%,0%);fill-opacity:1;" d="M 29.703125 14.148438 C 29.234375 13.679688 28.613281 13.425781 27.957031 13.425781 C 27.300781 13.425781 26.683594 13.679688 26.210938 14.148438 C 25.742188 14.621094 25.488281 15.238281 25.488281 15.890625 C 25.488281 16.546875 25.742188 17.164062 26.210938 17.636719 C 26.683594 18.105469 27.304688 18.359375 27.957031 18.359375 C 28.613281 18.359375 29.234375 18.105469 29.703125 17.636719 C 30.171875 17.164062 30.429688 16.546875 30.429688 15.890625 C 30.429688 15.238281 30.171875 14.621094 29.703125 14.148438 Z M 29.703125 14.148438 "/>
<path style=" stroke:none;fill-rule:evenodd;fill:rgb(100%,100%,100%);fill-opacity:1;" d="M 5.59375 14.394531 C 5.570312 14.394531 5.542969 14.394531 5.519531 14.394531 C 5.492188 14.394531 5.46875 14.394531 5.445312 14.394531 C 5.414062 14.394531 5.386719 14.394531 5.355469 14.394531 C 5.175781 14.394531 4.996094 14.398438 4.820312 14.402344 C 4.753906 14.59375 4.6875 14.78125 4.640625 14.972656 C 4.84375 15.199219 5.015625 15.472656 5.171875 15.730469 C 5.398438 15.777344 5.636719 15.785156 5.871094 15.800781 C 5.980469 15.640625 6.074219 15.46875 6.15625 15.285156 C 5.984375 14.980469 5.777344 14.691406 5.59375 14.394531 Z M 5.59375 14.394531 "/>
<path style=" stroke:none;fill-rule:evenodd;fill:rgb(100%,100%,100%);fill-opacity:1;" d="M 4.613281 18.082031 C 4.808594 17.875 4.96875 17.617188 5.066406 17.351562 C 4.90625 17.179688 4.742188 17.007812 4.605469 16.816406 C 4.300781 16.859375 3.988281 16.871094 3.675781 16.855469 C 3.578125 17.003906 3.480469 17.152344 3.371094 17.292969 C 3.332031 17.335938 3.296875 17.382812 3.257812 17.425781 C 3.394531 17.664062 3.550781 17.894531 3.742188 18.09375 C 4.03125 18.101562 4.324219 18.097656 4.613281 18.082031 Z M 4.613281 18.082031 "/>
<path style=" stroke:none;fill-rule:evenodd;fill:rgb(100%,100%,100%);fill-opacity:1;" d="M 3.226562 14.421875 C 2.964844 14.457031 2.699219 14.5 2.441406 14.554688 C 2.277344 14.800781 2.148438 15.082031 2.046875 15.363281 C 2.121094 15.597656 2.222656 15.824219 2.351562 16.035156 C 2.574219 15.984375 2.800781 15.925781 3.019531 15.859375 C 3.15625 15.566406 3.316406 15.273438 3.5 15.003906 C 3.414062 14.808594 3.324219 14.613281 3.226562 14.421875 Z M 3.226562 14.421875 "/>
<path style=" stroke:none;fill-rule:evenodd;fill:rgb(100%,100%,100%);fill-opacity:1;" d="M 5.597656 14.183594 C 5.5 14.09375 5.390625 14.011719 5.273438 13.9375 C 5.160156 13.867188 5.035156 13.800781 4.90625 13.746094 C 4.78125 13.699219 4.652344 13.65625 4.519531 13.628906 C 4.390625 13.601562 4.257812 13.589844 4.121094 13.582031 L 4.132812 13.816406 C 4.351562 13.945312 4.558594 14.089844 4.761719 14.246094 C 5.015625 14.230469 5.269531 14.226562 5.519531 14.230469 C 5.542969 14.230469 5.570312 14.230469 5.589844 14.230469 C 5.59375 14.21875 5.59375 14.214844 5.59375 14.210938 C 5.59375 14.203125 5.597656 14.195312 5.597656 14.195312 C 5.597656 14.195312 5.597656 14.191406 5.597656 14.183594 Z M 5.597656 14.183594 "/>
<path style=" stroke:none;fill-rule:evenodd;fill:rgb(100%,100%,100%);fill-opacity:1;" d="M 6.109375 16.925781 C 6.152344 16.851562 6.183594 16.769531 6.214844 16.691406 C 6.273438 16.515625 6.320312 16.34375 6.339844 16.164062 C 6.355469 16.03125 6.359375 15.890625 6.347656 15.757812 C 6.347656 15.710938 6.34375 15.667969 6.339844 15.621094 C 6.328125 15.542969 6.3125 15.457031 6.292969 15.375 C 6.210938 15.5625 6.117188 15.742188 5.996094 15.910156 C 6.027344 16.207031 6.03125 16.535156 5.957031 16.828125 Z M 6.109375 16.925781 "/>
<path style=" stroke:none;fill-rule:evenodd;fill:rgb(100%,100%,100%);fill-opacity:1;" d="M 4.847656 18.058594 C 4.992188 18.003906 5.132812 17.9375 5.261719 17.855469 C 5.335938 17.808594 5.410156 17.761719 5.480469 17.707031 C 5.546875 17.652344 5.613281 17.589844 5.679688 17.527344 C 5.78125 17.421875 5.878906 17.308594 5.957031 17.183594 C 5.984375 17.148438 6.007812 17.109375 6.03125 17.070312 L 5.871094 16.96875 C 5.679688 17.144531 5.480469 17.292969 5.230469 17.378906 C 5.140625 17.621094 5.011719 17.855469 4.847656 18.058594 Z M 4.847656 18.058594 "/>
<path style=" stroke:none;fill-rule:evenodd;fill:rgb(100%,100%,100%);fill-opacity:1;" d="M 2.191406 17.28125 C 2.328125 17.460938 2.484375 17.621094 2.664062 17.753906 C 2.757812 17.820312 2.859375 17.882812 2.957031 17.9375 C 3.152344 18.042969 3.367188 18.117188 3.578125 18.164062 C 3.386719 17.949219 3.230469 17.710938 3.085938 17.460938 C 2.832031 17.382812 2.621094 17.269531 2.417969 17.09375 Z M 3.609375 18.171875 Z M 3.609375 18.171875 "/>
<path style=" stroke:none;fill-rule:evenodd;fill:rgb(100%,100%,100%);fill-opacity:1;" d="M 1.75 15.558594 C 1.734375 15.640625 1.730469 15.722656 1.726562 15.800781 C 1.726562 15.832031 1.726562 15.859375 1.726562 15.890625 C 1.726562 16.113281 1.753906 16.339844 1.820312 16.558594 C 1.882812 16.765625 1.980469 16.964844 2.09375 17.148438 L 2.328125 16.953125 C 2.253906 16.695312 2.210938 16.421875 2.234375 16.152344 C 2.097656 15.949219 2 15.722656 1.917969 15.492188 C 1.863281 15.511719 1.804688 15.53125 1.75 15.558594 Z M 1.75 15.558594 "/>
<path style=" stroke:none;fill-rule:evenodd;fill:rgb(100%,100%,100%);fill-opacity:1;" d="M 3.957031 13.582031 C 3.816406 13.589844 3.679688 13.605469 3.550781 13.632812 C 3.410156 13.664062 3.277344 13.707031 3.148438 13.757812 C 3.019531 13.8125 2.890625 13.882812 2.773438 13.960938 C 2.65625 14.035156 2.546875 14.125 2.441406 14.21875 C 2.453125 14.273438 2.460938 14.324219 2.476562 14.378906 C 2.738281 14.328125 3.007812 14.285156 3.277344 14.253906 C 3.496094 14.089844 3.722656 13.941406 3.96875 13.808594 Z M 3.957031 13.582031 "/>
<path style=" stroke:none;fill-rule:evenodd;fill:rgb(100%,100%,100%);fill-opacity:1;" d="M 3.644531 15.085938 C 3.628906 15.105469 3.613281 15.128906 3.601562 15.15625 C 3.578125 15.179688 3.566406 15.203125 3.550781 15.230469 C 3.53125 15.253906 3.515625 15.285156 3.5 15.308594 C 3.480469 15.339844 3.464844 15.367188 3.445312 15.398438 C 3.421875 15.4375 3.394531 15.484375 3.375 15.527344 C 3.351562 15.574219 3.324219 15.617188 3.300781 15.65625 C 3.277344 15.707031 3.257812 15.746094 3.230469 15.792969 C 3.210938 15.835938 3.1875 15.878906 3.167969 15.921875 C 3.207031 15.996094 3.246094 16.066406 3.285156 16.132812 C 3.324219 16.203125 3.367188 16.273438 3.40625 16.339844 C 3.445312 16.402344 3.488281 16.460938 3.53125 16.523438 C 3.574219 16.582031 3.617188 16.636719 3.660156 16.6875 C 3.703125 16.691406 3.742188 16.691406 3.785156 16.695312 C 3.828125 16.695312 3.871094 16.695312 3.914062 16.695312 C 3.957031 16.695312 4.003906 16.695312 4.046875 16.695312 C 4.089844 16.695312 4.136719 16.691406 4.179688 16.691406 C 4.222656 16.691406 4.261719 16.6875 4.300781 16.6875 C 4.339844 16.679688 4.378906 16.675781 4.414062 16.675781 C 4.449219 16.671875 4.484375 16.667969 4.519531 16.660156 C 4.554688 16.65625 4.582031 16.65625 4.617188 16.652344 C 4.648438 16.601562 4.683594 16.546875 4.71875 16.492188 C 4.84375 16.277344 4.941406 16.046875 5.027344 15.8125 C 4.878906 15.558594 4.703125 15.285156 4.503906 15.066406 C 4.285156 15.066406 4.070312 15.066406 3.859375 15.074219 C 3.789062 15.074219 3.714844 15.082031 3.644531 15.085938 Z M 3.644531 15.085938 "/>
<path style=" stroke:none;fill-rule:evenodd;fill:rgb(100%,100%,100%);fill-opacity:1;" d="M 29.515625 14.394531 C 29.488281 14.394531 29.464844 14.394531 29.4375 14.394531 C 29.414062 14.394531 29.390625 14.394531 29.359375 14.394531 C 29.335938 14.394531 29.304688 14.394531 29.277344 14.394531 C 29.097656 14.394531 28.917969 14.398438 28.738281 14.402344 C 28.671875 14.59375 28.609375 14.78125 28.558594 14.972656 C 28.761719 15.199219 28.9375 15.472656 29.089844 15.730469 C 29.320312 15.777344 29.554688 15.785156 29.789062 15.800781 C 29.902344 15.640625 29.996094 15.46875 30.074219 15.285156 C 29.902344 14.980469 29.699219 14.691406 29.515625 14.394531 Z M 29.515625 14.394531 "/>
<path style=" stroke:none;fill-rule:evenodd;fill:rgb(100%,100%,100%);fill-opacity:1;" d="M 28.535156 18.082031 C 28.726562 17.875 28.886719 17.617188 28.988281 17.351562 C 28.828125 17.179688 28.660156 17.007812 28.523438 16.816406 C 28.214844 16.859375 27.902344 16.871094 27.59375 16.855469 C 27.5 17.003906 27.394531 17.152344 27.285156 17.292969 C 27.25 17.335938 27.214844 17.382812 27.175781 17.425781 C 27.316406 17.664062 27.46875 17.894531 27.664062 18.09375 C 27.953125 18.101562 28.242188 18.097656 28.535156 18.082031 Z M 28.535156 18.082031 "/>
<path style=" stroke:none;fill-rule:evenodd;fill:rgb(100%,100%,100%);fill-opacity:1;" d="M 27.148438 14.421875 C 26.882812 14.457031 26.621094 14.5 26.355469 14.554688 C 26.191406 14.800781 26.0625 15.082031 25.96875 15.363281 C 26.042969 15.597656 26.136719 15.824219 26.273438 16.035156 C 26.496094 15.984375 26.714844 15.925781 26.9375 15.859375 C 27.078125 15.566406 27.230469 15.273438 27.421875 15.003906 C 27.335938 14.808594 27.246094 14.613281 27.148438 14.421875 Z M 27.148438 14.421875 "/>
<path style=" stroke:none;fill-rule:evenodd;fill:rgb(100%,100%,100%);fill-opacity:1;" d="M 29.519531 14.183594 C 29.417969 14.09375 29.308594 14.011719 29.195312 13.9375 C 29.078125 13.867188 28.957031 13.800781 28.828125 13.746094 C 28.703125 13.699219 28.574219 13.65625 28.433594 13.628906 C 28.3125 13.601562 28.175781 13.589844 28.042969 13.582031 L 28.050781 13.816406 C 28.269531 13.945312 28.480469 14.089844 28.683594 14.246094 C 28.933594 14.230469 29.1875 14.226562 29.4375 14.230469 C 29.464844 14.230469 29.484375 14.230469 29.507812 14.230469 C 29.507812 14.21875 29.515625 14.214844 29.515625 14.210938 C 29.515625 14.203125 29.515625 14.195312 29.515625 14.195312 C 29.519531 14.195312 29.519531 14.191406 29.519531 14.183594 Z M 29.519531 14.183594 "/>
<path style=" stroke:none;fill-rule:evenodd;fill:rgb(100%,100%,100%);fill-opacity:1;" d="M 30.03125 16.925781 C 30.066406 16.851562 30.101562 16.769531 30.128906 16.691406 C 30.195312 16.515625 30.234375 16.34375 30.261719 16.164062 C 30.273438 16.03125 30.28125 15.890625 30.269531 15.757812 C 30.269531 15.710938 30.265625 15.667969 30.261719 15.621094 C 30.25 15.542969 30.234375 15.457031 30.214844 15.375 C 30.128906 15.5625 30.03125 15.742188 29.910156 15.910156 C 29.945312 16.207031 29.945312 16.535156 29.875 16.828125 Z M 30.03125 16.925781 "/>
<path style=" stroke:none;fill-rule:evenodd;fill:rgb(100%,100%,100%);fill-opacity:1;" d="M 28.769531 18.058594 C 28.914062 18.003906 29.050781 17.9375 29.179688 17.855469 C 29.253906 17.808594 29.324219 17.761719 29.394531 17.707031 C 29.464844 17.652344 29.535156 17.589844 29.59375 17.527344 C 29.699219 17.421875 29.792969 17.308594 29.875 17.183594 C 29.902344 17.148438 29.925781 17.109375 29.953125 17.070312 L 29.792969 16.96875 C 29.597656 17.144531 29.398438 17.292969 29.152344 17.378906 C 29.0625 17.621094 28.925781 17.855469 28.769531 18.058594 Z M 28.769531 18.058594 "/>
<path style=" stroke:none;fill-rule:evenodd;fill:rgb(100%,100%,100%);fill-opacity:1;" d="M 26.109375 17.28125 C 26.242188 17.460938 26.40625 17.621094 26.585938 17.753906 C 26.679688 17.820312 26.773438 17.882812 26.878906 17.9375 C 27.074219 18.042969 27.28125 18.117188 27.5 18.164062 C 27.304688 17.949219 27.148438 17.710938 27.007812 17.460938 C 26.753906 17.382812 26.539062 17.269531 26.335938 17.09375 Z M 27.53125 18.171875 Z M 27.53125 18.171875 "/>
<path style=" stroke:none;fill-rule:evenodd;fill:rgb(100%,100%,100%);fill-opacity:1;" d="M 25.664062 15.558594 C 25.65625 15.640625 25.644531 15.722656 25.644531 15.800781 C 25.644531 15.832031 25.640625 15.859375 25.640625 15.890625 C 25.640625 16.113281 25.675781 16.339844 25.738281 16.558594 C 25.804688 16.765625 25.894531 16.964844 26.015625 17.148438 L 26.246094 16.953125 C 26.167969 16.695312 26.128906 16.421875 26.152344 16.152344 C 26.019531 15.949219 25.917969 15.722656 25.839844 15.492188 C 25.78125 15.511719 25.726562 15.53125 25.664062 15.558594 Z M 25.664062 15.558594 "/>
<path style=" stroke:none;fill-rule:evenodd;fill:rgb(100%,100%,100%);fill-opacity:1;" d="M 27.878906 13.582031 C 27.738281 13.589844 27.601562 13.605469 27.46875 13.632812 C 27.332031 13.664062 27.199219 13.707031 27.066406 13.757812 C 26.933594 13.8125 26.808594 13.882812 26.691406 13.960938 C 26.574219 14.035156 26.460938 14.125 26.359375 14.21875 C 26.371094 14.273438 26.382812 14.324219 26.394531 14.378906 C 26.660156 14.328125 26.929688 14.285156 27.191406 14.253906 C 27.414062 14.089844 27.644531 13.941406 27.882812 13.808594 Z M 27.878906 13.582031 "/>
<path style=" stroke:none;fill-rule:evenodd;fill:rgb(100%,100%,100%);fill-opacity:1;" d="M 27.566406 15.085938 C 27.550781 15.105469 27.53125 15.128906 27.515625 15.15625 C 27.5 15.179688 27.484375 15.203125 27.464844 15.230469 C 27.449219 15.253906 27.433594 15.285156 27.414062 15.308594 C 27.402344 15.339844 27.378906 15.367188 27.367188 15.398438 C 27.339844 15.4375 27.316406 15.484375 27.292969 15.527344 C 27.265625 15.574219 27.246094 15.617188 27.222656 15.65625 C 27.199219 15.707031 27.171875 15.746094 27.152344 15.792969 C 27.128906 15.835938 27.109375 15.878906 27.085938 15.921875 C 27.128906 15.996094 27.160156 16.066406 27.203125 16.132812 C 27.242188 16.203125 27.28125 16.273438 27.328125 16.339844 C 27.367188 16.402344 27.40625 16.460938 27.449219 16.523438 C 27.496094 16.582031 27.535156 16.636719 27.578125 16.6875 C 27.621094 16.691406 27.664062 16.691406 27.703125 16.695312 C 27.75 16.695312 27.789062 16.695312 27.832031 16.695312 C 27.878906 16.695312 27.921875 16.695312 27.96875 16.695312 C 28.011719 16.695312 28.058594 16.691406 28.101562 16.691406 C 28.140625 16.691406 28.179688 16.6875 28.222656 16.6875 C 28.261719 16.679688 28.296875 16.675781 28.332031 16.675781 C 28.371094 16.671875 28.40625 16.667969 28.441406 16.660156 C 28.46875 16.65625 28.503906 16.65625 28.535156 16.652344 C 28.570312 16.601562 28.605469 16.546875 28.632812 16.492188 C 28.761719 16.277344 28.863281 16.046875 28.945312 15.8125 C 28.796875 15.558594 28.625 15.285156 28.421875 15.066406 C 28.207031 15.066406 27.992188 15.066406 27.777344 15.074219 C 27.703125 15.074219 27.632812 15.082031 27.566406 15.085938 Z M 27.566406 15.085938 "/>
</g>
</svg>
