<?xml version="1.0" encoding="UTF-8"?>
<svg xmlns="http://www.w3.org/2000/svg" xmlns:xlink="http://www.w3.org/1999/xlink" width="32px" height="32px" viewBox="0 0 32 40" version="1.1">
<defs>
<filter id="alpha" filterUnits="objectBoundingBox" x="0%" y="0%" width="100%" height="100%">
  <feColorMatrix type="matrix" in="SourceGraphic" values="0 0 0 0 1 0 0 0 0 1 0 0 0 0 1 0 0 0 1 0"/>
</filter>
<mask id="mask0">
  <g filter="url(#alpha)">
<rect x="0" y="0" width="32" height="40" style="fill:rgb(0%,0%,0%);fill-opacity:0.14902;stroke:none;"/>
  </g>
</mask>
<clipPath id="clip1">
  <rect x="0" y="0" width="32" height="40"/>
</clipPath>
<g id="surface5" clip-path="url(#clip1)">
<path style=" stroke:none;fill-rule:nonzero;fill:rgb(11.372549%,11.372549%,10.588235%);fill-opacity:1;" d="M 31.03125 7.324219 L 30.578125 7.03125 C 28.277344 5.546875 19.65625 3.34375 16.925781 3.34375 C 14.195312 3.34375 5.574219 5.546875 3.273438 7.03125 L 2.886719 7.28125 C 2.617188 7.460938 2.390625 7.753906 2.390625 8.066406 L 2.390625 26.535156 C 2.390625 28.109375 4.421875 31.664062 8.167969 35.148438 C 10.066406 36.902344 12.164062 38.320312 13.878906 39.242188 C 14.734375 39.601562 15.480469 39.804688 16 39.804688 C 17.894531 39.804688 22.386719 37.195312 25.613281 34.226562 C 28.59375 31.484375 30.644531 28.738281 31.4375 26.535156 L 31.4375 19.472656 L 20.015625 19.472656 L 21.933594 23.296875 L 27.597656 23.296875 L 27.597656 26.46875 C 27.488281 26.960938 26.472656 29.164062 23.039062 32.335938 C 20.492188 34.699219 17.917969 36.027344 16.902344 36.453125 C 15.886719 36.027344 13.335938 34.699219 10.765625 32.335938 C 7.582031 29.390625 6.386719 26.984375 6.207031 26.378906 L 6.207031 9.800781 C 8.777344 8.742188 15.007812 7.144531 16.902344 7.144531 C 18.777344 7.144531 25.027344 8.742188 27.597656 9.800781 L 27.597656 14.5 L 31.4375 15.625 L 31.4375 8.203125 C 31.4375 7.910156 31.324219 7.527344 31.03125 7.324219 Z M 31.03125 7.324219 "/>
</g>
<mask id="mask1">
  <g filter="url(#alpha)">
<rect x="0" y="0" width="32" height="40" style="fill:rgb(0%,0%,0%);fill-opacity:0.14902;stroke:none;"/>
  </g>
</mask>
<clipPath id="clip2">
  <rect x="0" y="0" width="32" height="40"/>
</clipPath>
<g id="surface8" clip-path="url(#clip2)">
<path style=" stroke:none;fill-rule:nonzero;fill:rgb(11.372549%,11.372549%,10.588235%);fill-opacity:1;" d="M 14.488281 23.023438 L 14.847656 23.023438 L 14.847656 23.632812 L 14.9375 23.632812 L 15.4375 23.023438 L 15.863281 23.023438 L 15.863281 23.046875 L 15.253906 23.789062 L 15.910156 24.621094 L 15.910156 24.644531 L 15.480469 24.644531 L 14.960938 23.96875 L 14.894531 23.96875 L 14.894531 24.644531 L 14.488281 24.644531 Z M 14.488281 23.023438 "/>
<path style=" stroke:none;fill-rule:nonzero;fill:rgb(11.372549%,11.372549%,10.588235%);fill-opacity:1;" d="M 16.089844 23.023438 L 16.675781 23.023438 C 17.039062 23.023438 17.285156 23.136719 17.285156 23.566406 C 17.285156 23.8125 17.152344 23.949219 17.039062 24.039062 C 17.195312 24.171875 17.375 24.511719 17.398438 24.621094 L 17.398438 24.644531 L 16.992188 24.644531 C 16.96875 24.554688 16.835938 24.261719 16.699219 24.171875 L 16.472656 24.171875 L 16.472656 24.644531 L 16.113281 24.644531 L 16.113281 23.023438 Z M 16.609375 23.859375 C 16.8125 23.859375 16.902344 23.789062 16.902344 23.585938 C 16.902344 23.386719 16.8125 23.363281 16.609375 23.363281 L 16.449219 23.363281 L 16.449219 23.859375 Z M 16.609375 23.859375 "/>
<path style=" stroke:none;fill-rule:nonzero;fill:rgb(11.372549%,11.372549%,10.588235%);fill-opacity:1;" d="M 17.488281 23.902344 L 17.488281 23.746094 C 17.488281 23.273438 17.828125 23.003906 18.300781 23.003906 C 18.460938 23.003906 18.640625 23.023438 18.753906 23.070312 L 18.753906 23.542969 L 18.414062 23.542969 L 18.414062 23.339844 C 18.390625 23.339844 18.300781 23.316406 18.257812 23.316406 C 18.007812 23.316406 17.875 23.476562 17.875 23.722656 L 17.875 23.902344 C 17.875 24.148438 18.007812 24.332031 18.257812 24.332031 L 18.347656 24.332031 C 18.460938 24.332031 18.640625 24.285156 18.707031 24.261719 L 18.730469 24.261719 L 18.730469 24.578125 C 18.6875 24.601562 18.484375 24.644531 18.347656 24.644531 L 18.257812 24.644531 C 17.78125 24.644531 17.488281 24.398438 17.488281 23.902344 Z M 17.488281 23.902344 "/>
<path style=" stroke:none;fill-rule:nonzero;fill:rgb(11.372549%,11.372549%,10.588235%);fill-opacity:1;" d="M 10.359375 27.074219 L 10.359375 26.738281 C 10.359375 25.679688 11.171875 25.230469 12.117188 25.230469 C 12.457031 25.230469 12.816406 25.273438 13.15625 25.410156 L 13.15625 26.0625 L 13.132812 26.0625 C 12.796875 25.949219 12.390625 25.882812 12.097656 25.882812 C 11.554688 25.882812 11.171875 26.195312 11.171875 26.738281 L 11.171875 27.074219 C 11.171875 27.570312 11.507812 27.929688 12.003906 27.929688 L 12.1875 27.929688 C 12.253906 27.929688 12.433594 27.90625 12.503906 27.882812 L 12.503906 27.367188 L 12.027344 27.367188 L 12.027344 26.714844 L 13.203125 26.714844 L 13.203125 28.378906 C 13.019531 28.445312 12.613281 28.558594 12.207031 28.558594 L 12.027344 28.558594 C 11.011719 28.582031 10.359375 28.042969 10.359375 27.074219 Z M 10.359375 27.074219 "/>
<path style=" stroke:none;fill-rule:nonzero;fill:rgb(11.372549%,11.372549%,10.588235%);fill-opacity:1;" d="M 13.8125 27.660156 L 13.8125 25.253906 L 15.953125 25.253906 L 15.953125 25.90625 L 14.578125 25.90625 L 14.578125 26.558594 L 15.820312 26.558594 L 15.820312 27.210938 L 14.578125 27.210938 L 14.578125 27.523438 C 14.578125 27.792969 14.644531 27.90625 14.917969 27.90625 L 16.023438 27.90625 L 16.023438 28.558594 L 14.644531 28.558594 C 14.082031 28.535156 13.8125 28.199219 13.8125 27.660156 Z M 13.8125 27.660156 "/>
<path style=" stroke:none;fill-rule:nonzero;fill:rgb(11.372549%,11.372549%,10.588235%);fill-opacity:1;" d="M 16.632812 25.253906 L 17.332031 25.253906 L 18.574219 27.210938 L 18.574219 25.253906 L 19.339844 25.253906 L 19.339844 28.558594 L 18.640625 28.558594 L 17.398438 26.601562 L 17.398438 28.558594 L 16.632812 28.558594 Z M 16.632812 25.253906 "/>
<path style=" stroke:none;fill-rule:nonzero;fill:rgb(11.372549%,11.372549%,10.588235%);fill-opacity:1;" d="M 20.015625 25.253906 L 20.785156 25.253906 L 20.785156 26.511719 L 20.964844 26.511719 L 21.957031 25.253906 L 22.816406 25.253906 L 22.816406 25.296875 L 21.550781 26.804688 L 22.90625 28.515625 L 22.90625 28.558594 L 22.003906 28.558594 L 20.917969 27.164062 L 20.761719 27.164062 L 20.761719 28.558594 L 19.996094 28.558594 L 19.996094 25.253906 Z M 20.015625 25.253906 "/>
</g>
</defs>
<g id="surface1">
<path style=" stroke:none;fill-rule:nonzero;fill:rgb(0%,30.196078%,61.568627%);fill-opacity:1;" d="M 30.804688 4.402344 L 30.351562 4.109375 C 27.800781 2.464844 19.023438 0.195312 16 0.195312 C 13 0.195312 4.195312 2.445312 1.648438 4.109375 L 1.265625 4.355469 C 0.585938 4.785156 0.179688 5.480469 0.179688 6.222656 L 0.179688 24.691406 C 0.179688 26.9375 2.730469 30.851562 6.363281 34.226562 C 9.589844 37.195312 14.082031 39.804688 15.976562 39.804688 C 17.875 39.804688 22.363281 37.195312 25.589844 34.226562 C 29.472656 30.652344 31.773438 27.074219 31.773438 24.691406 L 31.773438 6.359375 C 31.796875 5.726562 31.546875 4.875 30.804688 4.402344 Z M 30.804688 4.402344 "/>
<path style=" stroke:none;fill-rule:nonzero;fill:rgb(0%,49.411765%,76.470588%);fill-opacity:1;" d="M 16 0.195312 C 19 0.195312 27.804688 2.445312 30.351562 4.109375 L 30.804688 4.402344 C 31.550781 4.875 31.796875 5.726562 31.796875 6.378906 L 31.796875 24.691406 C 31.796875 27.074219 29.472656 30.652344 25.613281 34.226562 C 22.386719 37.195312 17.894531 39.804688 16 39.804688 C 14.105469 39.804688 9.613281 37.195312 6.386719 34.226562 C 2.730469 30.851562 0.203125 26.9375 0.203125 24.691406 L 0.203125 6.199219 C 0.203125 5.480469 0.609375 4.785156 1.285156 4.332031 L 1.667969 4.085938 C 4.199219 2.445312 13 0.195312 16 0.195312 M 16 0.015625 C 12.976562 0.015625 4.105469 2.285156 1.558594 3.949219 L 1.171875 4.175781 C 0.453125 4.648438 0 5.414062 0 6.199219 L 0 24.667969 C 0 26.960938 2.574219 30.941406 6.25 34.339844 C 9.5 37.351562 14.058594 39.984375 16 39.984375 C 17.941406 39.984375 22.5 37.351562 25.75 34.339844 C 29.675781 30.71875 32 27.097656 32 24.667969 L 32 6.359375 C 32 5.660156 31.707031 4.738281 30.917969 4.222656 L 30.464844 3.929688 C 27.894531 2.285156 19.046875 0.015625 16 0.015625 Z M 16 0.015625 "/>
<path style=" stroke:none;fill-rule:nonzero;fill:rgb(0%,27.45098%,56.078431%);fill-opacity:1;" d="M 30.804688 4.402344 L 30.351562 4.109375 C 27.800781 2.464844 19.023438 0.195312 16 0.195312 L 16 39.78125 C 17.894531 39.78125 22.386719 37.175781 25.613281 34.203125 C 29.496094 30.628906 31.796875 27.050781 31.796875 24.667969 L 31.796875 6.359375 C 31.796875 5.726562 31.546875 4.875 30.804688 4.402344 Z M 30.804688 4.402344 "/>
<path style=" stroke:none;fill-rule:nonzero;fill:rgb(0%,49.411765%,76.470588%);fill-opacity:1;" d="M 7.875 31.773438 L 7.875 32.628906 L 10.269531 32.628906 L 10.269531 10.382812 C 9.457031 10.609375 8.644531 10.835938 7.875 11.058594 Z M 7.875 31.773438 "/>
<path style=" stroke:none;fill-rule:nonzero;fill:rgb(0%,49.411765%,76.470588%);fill-opacity:1;" d="M 12.546875 35.125 L 14.9375 35.125 L 14.9375 9.371094 C 14.261719 9.460938 13.449219 9.621094 12.546875 9.820312 Z M 12.546875 35.125 "/>
<path style=" stroke:none;fill-rule:nonzero;fill:rgb(0%,49.411765%,76.470588%);fill-opacity:1;" d="M 17.332031 35.125 L 19.722656 35.125 L 19.722656 9.890625 C 18.84375 9.6875 18.007812 9.53125 17.332031 9.417969 Z M 17.332031 35.125 "/>
<path style=" stroke:none;fill-rule:nonzero;fill:rgb(0%,49.411765%,76.470588%);fill-opacity:1;" d="M 22.136719 10.496094 L 22.136719 32.628906 L 24.53125 32.628906 L 24.53125 11.195312 C 23.785156 10.945312 22.972656 10.699219 22.136719 10.496094 Z M 22.136719 10.496094 "/>
<use xlink:href="#surface5" mask="url(#mask0)"/>
<path style=" stroke:none;fill-rule:nonzero;fill:rgb(100%,100%,100%);fill-opacity:1;" d="M 30.691406 14.433594 L 30.691406 6.359375 C 30.691406 6.019531 30.554688 5.546875 30.195312 5.324219 L 29.742188 5.03125 C 27.417969 3.523438 18.753906 1.296875 16 1.296875 C 13.246094 1.296875 4.582031 3.523438 2.257812 5.03125 L 1.875 5.277344 C 1.601562 5.457031 1.308594 5.796875 1.308594 6.199219 L 1.308594 24.667969 C 1.308594 26.285156 3.363281 29.886719 7.152344 33.394531 C 10.585938 36.566406 14.757812 38.679688 16 38.679688 C 17.242188 38.679688 21.417969 36.566406 24.847656 33.394531 C 28.390625 30.109375 30.667969 26.691406 30.667969 24.667969 L 30.667969 17.445312 L 18.007812 17.445312 L 20.085938 21.585938 L 26.515625 21.585938 L 26.515625 24.578125 C 26.378906 25.140625 25.296875 27.320312 22.003906 30.359375 C 19.273438 32.878906 16.632812 34.136719 15.976562 34.429688 C 15.324219 34.136719 12.683594 32.875 9.953125 30.359375 C 6.90625 27.546875 5.6875 25.207031 5.4375 24.507812 L 5.4375 8.042969 C 7.988281 7.03125 14.082031 5.4375 15.953125 5.4375 C 17.828125 5.4375 23.941406 7.011719 26.472656 8.042969 L 26.472656 13.195312 Z M 30.691406 14.433594 "/>
<use xlink:href="#surface8" mask="url(#mask1)"/>
<path style=" stroke:none;fill-rule:nonzero;fill:rgb(91.372549%,91.372549%,91.372549%);fill-opacity:1;" d="M 30.691406 24.667969 L 30.691406 17.445312 L 18.03125 17.445312 L 20.105469 21.585938 L 26.539062 21.585938 L 26.539062 24.578125 C 26.402344 25.140625 25.320312 27.320312 22.027344 30.359375 C 19.296875 32.878906 16.65625 34.136719 16 34.429688 L 16 38.679688 C 17.242188 38.679688 21.414062 36.566406 24.847656 33.394531 C 28.390625 30.109375 30.691406 26.691406 30.691406 24.667969 Z M 30.691406 24.667969 "/>
<path style=" stroke:none;fill-rule:nonzero;fill:rgb(91.372549%,91.372549%,91.372549%);fill-opacity:1;" d="M 26.539062 8.042969 L 26.539062 13.195312 L 30.691406 14.410156 L 30.691406 6.359375 C 30.691406 6.019531 30.554688 5.546875 30.195312 5.324219 L 29.742188 5.03125 C 27.417969 3.523438 18.753906 1.296875 16 1.296875 L 16 5.4375 C 17.894531 5.457031 23.988281 7.03125 26.539062 8.042969 Z M 26.539062 8.042969 "/>
<path style=" stroke:none;fill-rule:nonzero;fill:rgb(100%,100%,100%);fill-opacity:1;" d="M 13.921875 22.375 L 14.285156 22.375 L 14.285156 22.980469 L 14.375 22.980469 L 14.871094 22.375 L 15.300781 22.375 L 15.300781 22.394531 L 14.691406 23.136719 L 15.34375 23.96875 L 15.34375 23.992188 L 14.917969 23.992188 L 14.398438 23.316406 L 14.328125 23.316406 L 14.328125 23.992188 L 13.96875 23.992188 L 13.96875 22.375 Z M 13.921875 22.375 "/>
<path style=" stroke:none;fill-rule:nonzero;fill:rgb(100%,100%,100%);fill-opacity:1;" d="M 15.527344 22.375 L 16.113281 22.375 C 16.472656 22.375 16.722656 22.484375 16.722656 22.914062 C 16.722656 23.160156 16.585938 23.296875 16.472656 23.386719 C 16.632812 23.519531 16.8125 23.859375 16.835938 23.96875 L 16.835938 23.992188 L 16.429688 23.992188 C 16.40625 23.902344 16.269531 23.609375 16.136719 23.519531 L 15.910156 23.519531 L 15.910156 23.992188 L 15.550781 23.992188 L 15.550781 22.375 Z M 16.046875 23.183594 C 16.25 23.183594 16.339844 23.117188 16.339844 22.914062 C 16.339844 22.710938 16.25 22.6875 16.046875 22.6875 L 15.886719 22.6875 L 15.886719 23.183594 Z M 16.046875 23.183594 "/>
<path style=" stroke:none;fill-rule:nonzero;fill:rgb(100%,100%,100%);fill-opacity:1;" d="M 16.902344 23.25 L 16.902344 23.09375 C 16.902344 22.621094 17.242188 22.351562 17.714844 22.351562 C 17.875 22.351562 18.054688 22.375 18.167969 22.417969 L 18.167969 22.890625 L 17.828125 22.890625 L 17.828125 22.6875 C 17.804688 22.6875 17.714844 22.664062 17.671875 22.664062 C 17.421875 22.664062 17.285156 22.824219 17.285156 23.070312 L 17.285156 23.25 C 17.285156 23.496094 17.421875 23.679688 17.671875 23.679688 L 17.761719 23.679688 C 17.875 23.679688 18.054688 23.632812 18.121094 23.609375 L 18.144531 23.609375 L 18.144531 23.925781 C 18.097656 23.949219 17.894531 23.992188 17.761719 23.992188 L 17.671875 23.992188 C 17.195312 23.992188 16.902344 23.722656 16.902344 23.25 Z M 16.902344 23.25 "/>
<path style=" stroke:none;fill-rule:nonzero;fill:rgb(100%,100%,100%);fill-opacity:1;" d="M 9.792969 26.398438 L 9.792969 26.0625 C 9.792969 25.003906 10.605469 24.554688 11.554688 24.554688 C 11.894531 24.554688 12.253906 24.601562 12.59375 24.734375 L 12.59375 25.386719 L 12.546875 25.386719 C 12.207031 25.273438 11.804688 25.207031 11.507812 25.207031 C 10.96875 25.207031 10.582031 25.523438 10.582031 26.0625 L 10.582031 26.398438 C 10.582031 26.894531 10.921875 27.253906 11.417969 27.253906 L 11.597656 27.253906 C 11.667969 27.253906 11.847656 27.230469 11.914062 27.210938 L 11.914062 26.691406 L 11.441406 26.691406 L 11.441406 26.039062 L 12.613281 26.039062 L 12.613281 27.703125 C 12.433594 27.773438 12.027344 27.882812 11.621094 27.882812 L 11.441406 27.882812 C 10.425781 27.90625 9.792969 27.390625 9.792969 26.398438 Z M 9.792969 26.398438 "/>
<path style=" stroke:none;fill-rule:nonzero;fill:rgb(100%,100%,100%);fill-opacity:1;" d="M 13.222656 26.984375 L 13.222656 24.578125 L 15.367188 24.578125 L 15.367188 25.230469 L 13.992188 25.230469 L 13.992188 25.882812 L 15.234375 25.882812 L 15.234375 26.535156 L 13.992188 26.535156 L 13.992188 26.847656 C 13.992188 27.117188 14.058594 27.230469 14.328125 27.230469 L 15.4375 27.230469 L 15.4375 27.882812 L 14.058594 27.882812 C 13.519531 27.882812 13.222656 27.546875 13.222656 26.984375 Z M 13.222656 26.984375 "/>
<path style=" stroke:none;fill-rule:nonzero;fill:rgb(100%,100%,100%);fill-opacity:1;" d="M 16.066406 24.578125 L 16.765625 24.578125 L 18.007812 26.535156 L 18.007812 24.578125 L 18.777344 24.578125 L 18.777344 27.882812 L 18.074219 27.882812 L 16.835938 25.925781 L 16.835938 27.882812 L 16.066406 27.882812 Z M 16.066406 24.578125 "/>
<path style=" stroke:none;fill-rule:nonzero;fill:rgb(100%,100%,100%);fill-opacity:1;" d="M 19.429688 24.578125 L 20.199219 24.578125 L 20.199219 25.835938 L 20.378906 25.835938 L 21.371094 24.578125 L 22.230469 24.578125 L 22.230469 24.621094 L 20.964844 26.128906 L 22.320312 27.839844 L 22.320312 27.882812 L 21.417969 27.882812 L 20.332031 26.488281 L 20.175781 26.488281 L 20.175781 27.882812 L 19.40625 27.882812 L 19.40625 24.578125 Z M 19.429688 24.578125 "/>
<path style=" stroke:none;fill-rule:nonzero;fill:rgb(91.372549%,91.372549%,91.372549%);fill-opacity:1;" d="M 16.40625 23.96875 L 16.8125 23.96875 L 16.8125 23.949219 C 16.789062 23.835938 16.609375 23.496094 16.453125 23.363281 C 16.585938 23.273438 16.699219 23.160156 16.699219 22.890625 C 16.699219 22.464844 16.472656 22.351562 16.089844 22.351562 L 16 22.351562 L 16 22.664062 L 16.023438 22.664062 C 16.226562 22.664062 16.316406 22.6875 16.316406 22.890625 C 16.316406 23.09375 16.226562 23.160156 16.023438 23.160156 L 16 23.160156 L 16 23.476562 L 16.113281 23.476562 C 16.25 23.566406 16.382812 23.878906 16.40625 23.96875 Z M 16.40625 23.96875 "/>
<path style=" stroke:none;fill-rule:nonzero;fill:rgb(91.372549%,91.372549%,91.372549%);fill-opacity:1;" d="M 17.691406 23.992188 L 17.78125 23.992188 C 17.917969 23.992188 18.121094 23.949219 18.167969 23.925781 L 18.167969 23.609375 L 18.144531 23.609375 C 18.078125 23.632812 17.894531 23.675781 17.78125 23.675781 L 17.691406 23.675781 C 17.445312 23.675781 17.308594 23.496094 17.308594 23.25 L 17.308594 23.070312 C 17.308594 22.824219 17.445312 22.664062 17.691406 22.664062 C 17.714844 22.664062 17.828125 22.664062 17.851562 22.6875 L 17.851562 22.890625 L 18.1875 22.890625 L 18.1875 22.417969 C 18.078125 22.371094 17.894531 22.351562 17.738281 22.351562 C 17.265625 22.351562 16.925781 22.621094 16.925781 23.09375 L 16.925781 23.25 C 16.902344 23.722656 17.195312 23.992188 17.691406 23.992188 Z M 17.691406 23.992188 "/>
<path style=" stroke:none;fill-rule:nonzero;fill:rgb(91.372549%,91.372549%,91.372549%);fill-opacity:1;" d="M 17.984375 26.535156 L 16.746094 24.578125 L 16.066406 24.578125 L 16.066406 27.882812 L 16.8125 27.882812 L 16.8125 25.925781 L 18.054688 27.882812 L 18.753906 27.882812 L 18.753906 24.578125 L 17.984375 24.578125 Z M 17.984375 26.535156 "/>
<path style=" stroke:none;fill-rule:nonzero;fill:rgb(91.372549%,91.372549%,91.372549%);fill-opacity:1;" d="M 22.25 24.621094 L 22.25 24.578125 L 21.394531 24.578125 L 20.378906 25.835938 L 20.199219 25.835938 L 20.199219 24.578125 L 19.429688 24.578125 L 19.429688 27.882812 L 20.199219 27.882812 L 20.199219 26.488281 L 20.355469 26.488281 L 21.4375 27.882812 L 22.339844 27.882812 L 22.339844 27.839844 L 20.988281 26.128906 Z M 22.25 24.621094 "/>
</g>
</svg>
