<?xml version="1.0" encoding="UTF-8"?>
<svg xmlns="http://www.w3.org/2000/svg" xmlns:xlink="http://www.w3.org/1999/xlink" width="32px" height="32px" viewBox="0 0 32 38" version="1.1">
<g id="surface1">
<path style=" stroke:none;fill-rule:evenodd;fill:rgb(100%,100%,100%);fill-opacity:1;" d="M 31.949219 22.316406 C 31.949219 30.976562 24.796875 38 15.976562 38 C 7.152344 38 0 30.976562 0 22.316406 C 0 13.65625 7.152344 6.636719 15.976562 6.636719 C 24.796875 6.636719 31.949219 13.65625 31.949219 22.316406 "/>
<path style=" stroke:none;fill-rule:evenodd;fill:rgb(88.627451%,11.764706%,14.901961%);fill-opacity:1;" d="M 5.476562 12.011719 C 2.671875 14.765625 1.125 18.421875 1.125 22.316406 C 1.125 26.210938 2.671875 29.871094 5.476562 32.625 C 8.277344 35.378906 12.007812 36.894531 15.976562 36.894531 C 19.941406 36.894531 23.667969 35.378906 26.472656 32.625 C 29.277344 29.871094 30.820312 26.210938 30.820312 22.316406 C 30.820312 18.421875 29.277344 14.765625 26.472656 12.011719 C 23.667969 9.257812 19.941406 7.742188 15.976562 7.742188 C 12.007812 7.742188 8.277344 9.257812 5.476562 12.011719 M 5.597656 32.503906 C 2.824219 29.785156 1.300781 26.164062 1.300781 22.316406 C 1.300781 18.46875 2.824219 14.851562 5.597656 12.128906 C 8.367188 9.410156 12.054688 7.910156 15.976562 7.910156 C 19.894531 7.910156 23.582031 9.410156 26.351562 12.128906 C 29.125 14.851562 30.648438 18.46875 30.648438 22.316406 C 30.648438 26.164062 29.125 29.785156 26.351562 32.503906 C 23.582031 35.226562 19.894531 36.722656 15.976562 36.722656 C 12.054688 36.722656 8.367188 35.226562 5.597656 32.503906 "/>
<path style=" stroke:none;fill-rule:evenodd;fill:rgb(88.627451%,11.764706%,14.901961%);fill-opacity:1;" d="M 15.976562 8.203125 C 8.03125 8.203125 1.597656 14.523438 1.597656 22.316406 C 1.597656 30.113281 8.03125 36.433594 15.976562 36.433594 C 23.914062 36.433594 30.351562 30.113281 30.351562 22.316406 C 30.351562 14.523438 23.914062 8.203125 15.976562 8.203125 M 15.976562 33.410156 C 9.734375 33.410156 4.675781 28.441406 4.675781 22.316406 C 4.675781 16.191406 9.734375 11.226562 15.976562 11.226562 C 22.214844 11.226562 27.273438 16.191406 27.273438 22.316406 C 27.273438 28.441406 22.214844 33.410156 15.976562 33.410156 "/>
<path style=" stroke:none;fill-rule:evenodd;fill:rgb(88.627451%,11.764706%,14.901961%);fill-opacity:1;" d="M 4.96875 22.316406 C 4.96875 28.273438 9.90625 33.121094 15.976562 33.121094 C 22.042969 33.121094 26.980469 28.273438 26.980469 22.316406 C 26.980469 16.359375 22.042969 11.511719 15.976562 11.511719 C 9.90625 11.511719 4.96875 16.359375 4.96875 22.316406 M 5.140625 22.316406 C 5.140625 16.453125 10 11.683594 15.976562 11.683594 C 21.949219 11.683594 26.808594 16.453125 26.808594 22.316406 C 26.808594 28.179688 21.949219 32.953125 15.976562 32.953125 C 10 32.953125 5.140625 28.179688 5.140625 22.316406 "/>
<path style=" stroke:none;fill-rule:evenodd;fill:rgb(88.627451%,11.764706%,14.901961%);fill-opacity:1;" d="M 19.785156 27.472656 C 19.617188 27.457031 19.609375 27.421875 19.609375 27.210938 L 19.609375 26.589844 C 19.609375 26.382812 19.617188 26.363281 19.800781 26.332031 L 19.851562 26.320312 C 19.875 26.308594 19.871094 26.253906 19.84375 26.25 C 19.769531 26.253906 19.632812 26.257812 19.496094 26.257812 C 19.359375 26.257812 19.207031 26.257812 19.144531 26.25 C 19.117188 26.253906 19.117188 26.308594 19.136719 26.320312 L 19.191406 26.332031 C 19.371094 26.363281 19.378906 26.382812 19.378906 26.589844 L 19.378906 27.210938 C 19.378906 27.421875 19.375 27.449219 19.191406 27.472656 L 19.105469 27.480469 C 19.085938 27.496094 19.085938 27.546875 19.117188 27.554688 C 19.175781 27.546875 19.359375 27.546875 19.496094 27.546875 C 19.632812 27.546875 19.800781 27.546875 19.875 27.554688 C 19.902344 27.546875 19.90625 27.496094 19.882812 27.480469 L 19.785156 27.472656 "/>
<path style=" stroke:none;fill-rule:evenodd;fill:rgb(88.627451%,11.764706%,14.901961%);fill-opacity:1;" d="M 20.707031 26.21875 C 20.386719 26.21875 20.101562 26.457031 20.101562 26.808594 C 20.101562 27.054688 20.269531 27.257812 20.511719 27.257812 C 20.632812 27.257812 20.730469 27.214844 20.8125 27.152344 C 20.816406 27.128906 20.816406 27.105469 20.792969 27.097656 C 20.746094 27.117188 20.707031 27.125 20.644531 27.125 C 20.433594 27.125 20.320312 26.871094 20.320312 26.683594 C 20.320312 26.472656 20.445312 26.316406 20.636719 26.316406 C 20.9375 26.316406 21.007812 26.632812 21.007812 26.835938 C 21.007812 27.390625 20.675781 27.730469 20.511719 27.847656 C 20.390625 27.941406 20.246094 28.019531 20.070312 28.082031 C 20.046875 28.097656 20.066406 28.136719 20.085938 28.148438 C 20.308594 28.109375 20.589844 27.996094 20.804688 27.800781 C 21.128906 27.507812 21.261719 27.164062 21.261719 26.851562 C 21.261719 26.480469 21.082031 26.21875 20.707031 26.21875 "/>
<path style=" stroke:none;fill-rule:evenodd;fill:rgb(88.627451%,11.764706%,14.901961%);fill-opacity:1;" d="M 22.703125 27.21875 C 22.632812 27.367188 22.5625 27.367188 22.394531 27.367188 L 22.023438 27.367188 C 21.972656 27.367188 21.964844 27.351562 21.964844 27.328125 L 22.207031 27.066406 C 22.394531 26.867188 22.488281 26.753906 22.488281 26.570312 C 22.488281 26.363281 22.332031 26.21875 22.085938 26.21875 C 21.839844 26.21875 21.660156 26.40625 21.589844 26.558594 C 21.589844 26.589844 21.621094 26.613281 21.652344 26.601562 C 21.734375 26.476562 21.835938 26.394531 21.96875 26.394531 C 22.136719 26.394531 22.242188 26.5 22.242188 26.6875 C 22.242188 26.882812 22.085938 27.054688 21.921875 27.226562 C 21.800781 27.355469 21.699219 27.433594 21.609375 27.503906 C 21.601562 27.523438 21.613281 27.546875 21.628906 27.554688 C 21.695312 27.546875 21.800781 27.546875 21.90625 27.546875 L 22.210938 27.546875 C 22.386719 27.546875 22.519531 27.546875 22.632812 27.554688 C 22.671875 27.46875 22.722656 27.359375 22.777344 27.242188 C 22.765625 27.214844 22.730469 27.203125 22.703125 27.21875 "/>
<path style=" stroke:none;fill-rule:evenodd;fill:rgb(88.627451%,11.764706%,14.901961%);fill-opacity:1;" d="M 23.75 26.210938 C 23.714844 26.230469 23.695312 26.238281 23.582031 26.253906 L 23.363281 26.285156 C 23.261719 26.304688 23.203125 26.3125 23.160156 26.320312 C 23.121094 26.335938 23.066406 26.425781 23.023438 26.523438 C 22.984375 26.613281 22.957031 26.714844 22.957031 26.765625 C 22.957031 26.871094 23.066406 26.933594 23.203125 27.027344 C 23.332031 27.121094 23.457031 27.257812 23.457031 27.449219 C 23.457031 27.785156 23.128906 28.011719 22.960938 28.0625 C 22.933594 28.085938 22.949219 28.132812 22.984375 28.144531 C 23.210938 28.082031 23.671875 27.800781 23.671875 27.378906 C 23.671875 27.140625 23.527344 26.964844 23.324219 26.828125 C 23.285156 26.800781 23.230469 26.765625 23.179688 26.730469 C 23.09375 26.675781 23.074219 26.640625 23.09375 26.585938 C 23.105469 26.535156 23.121094 26.511719 23.214844 26.5 L 23.609375 26.445312 C 23.707031 26.433594 23.765625 26.316406 23.785156 26.25 C 23.789062 26.230469 23.777344 26.214844 23.75 26.210938 "/>
<path style=" stroke:none;fill-rule:evenodd;fill:rgb(88.627451%,11.764706%,14.901961%);fill-opacity:1;" d="M 10.265625 26.511719 C 10.265625 25.855469 10.261719 25.023438 10.339844 24.417969 C 10.367188 24.226562 10.378906 24.023438 10.40625 23.851562 C 10.421875 23.726562 10.425781 23.667969 10.476562 23.585938 C 11.066406 23.59375 11.5625 23.761719 12.121094 23.820312 C 12.359375 23.574219 12.691406 23.417969 12.976562 23.214844 C 13.175781 23.074219 13.425781 22.90625 13.59375 22.777344 C 13.617188 22.753906 13.625 22.734375 13.628906 22.707031 C 13.628906 22.683594 13.609375 22.496094 13.558594 22.40625 C 13.367188 22.414062 12.9375 22.585938 12.667969 22.675781 C 12.207031 22.832031 11.730469 22.925781 11.296875 23.046875 C 10.972656 23.136719 10.585938 23.269531 10.304688 23.316406 C 10.050781 23.300781 9.765625 23.054688 9.6875 22.878906 C 9.554688 22.585938 10.015625 21.46875 9.925781 20.992188 C 10.367188 20.554688 10.582031 20.269531 10.78125 20.1875 C 10.464844 20.691406 10.308594 21.175781 10.292969 21.785156 C 10.828125 21.71875 11.472656 21.6875 12.007812 21.488281 C 12.875 21.167969 13.21875 20.78125 13.523438 20.386719 C 13.734375 21.535156 14.152344 21.90625 14.457031 22.820312 C 15.101562 22.847656 15.578125 21.0625 15.589844 21.0625 C 15.859375 22.105469 16.226562 22.3125 16.367188 22.976562 C 16.625 22.941406 16.859375 22.398438 17.011719 22.371094 C 17.039062 22.488281 17.050781 22.539062 17.089844 22.640625 C 18.1875 22.550781 19.007812 21.703125 19.019531 21.703125 C 18.535156 22.863281 19.613281 24.386719 19.730469 24.492188 C 20.148438 24.320312 20.664062 23.578125 20.757812 23.484375 C 20.960938 23.925781 21.226562 24.335938 21.613281 24.589844 C 21.800781 24.71875 21.957031 24.796875 22.148438 24.917969 C 22.34375 24.746094 22.484375 24.152344 22.582031 24.039062 C 23.0625 24.558594 24.074219 25.117188 24.796875 24.855469 C 24.796875 24.855469 24.675781 23.125 23.53125 22.460938 C 23.691406 22.480469 23.925781 22.542969 24.082031 22.574219 C 24.339844 22.621094 25.542969 22.421875 25.96875 21.933594 C 25.628906 21.425781 24.949219 20.71875 23.457031 20.632812 C 23.828125 20.515625 24.679688 19.480469 24.746094 18.917969 C 24.40625 18.613281 23.84375 18.570312 23.433594 18.484375 C 23.566406 17.597656 22.835938 17.046875 22.742188 16.96875 C 22.710938 16.878906 22.652344 15.605469 20.988281 15.195312 C 20.941406 15.183594 20.546875 14.261719 19.546875 13.8125 C 18.007812 13.121094 16.828125 13.644531 16.570312 13.714844 C 14.203125 13.355469 13.632812 14.433594 13.476562 14.589844 C 13.402344 14.660156 12.527344 14.5 11.691406 15.410156 C 11.46875 15.386719 10.515625 14.882812 10.1875 14.960938 C 10.054688 15.324219 10.230469 16.726562 10.304688 16.988281 C 9.507812 17.164062 8.183594 16.652344 7.890625 16.914062 C 7.789062 17.484375 8.316406 18.15625 8.316406 18.164062 C 7.707031 18.105469 6.542969 18.171875 6.179688 18.445312 C 6.101562 18.519531 6.3125 18.984375 6.621094 19.28125 C 6.949219 19.601562 7.488281 19.871094 8.191406 19.925781 C 8.191406 19.9375 6.925781 20.6875 6.5 21.234375 C 6.625 21.3125 7.523438 21.566406 7.613281 21.597656 C 8.105469 21.75 9.492188 21.296875 9.515625 21.296875 C 9.4375 21.667969 9.179688 22.65625 9.171875 22.84375 C 9.183594 23.132812 9.753906 23.523438 9.957031 23.652344 C 9.960938 24.289062 9.894531 26.140625 9.894531 26.140625 C 9.894531 26.421875 9.851562 26.824219 9.929688 27.046875 C 10.207031 27.101562 11.265625 26.828125 11.304688 26.855469 C 11.40625 27 11.414062 27.476562 11.472656 27.660156 C 11.65625 27.699219 11.789062 27.792969 11.992188 27.8125 C 12.046875 27.976562 11.90625 28.25 11.996094 28.398438 C 12.070312 28.605469 12.410156 28.660156 12.605469 28.738281 C 12.605469 29.109375 12.621094 29.480469 12.621094 29.851562 C 12.722656 30.050781 13.46875 30.316406 13.675781 30.433594 C 13.675781 30.421875 15.308594 28.878906 15.3125 28.878906 C 15.617188 29.179688 15.832031 29.414062 16.046875 29.757812 C 15.800781 30.453125 14.882812 31.699219 14.824219 31.777344 C 14.785156 31.847656 15.035156 32.019531 15.0625 32.066406 C 15.390625 31.6875 15.511719 31.511719 15.804688 31.019531 C 16.097656 30.527344 16.257812 30.273438 16.507812 29.664062 C 16.234375 29.316406 15.914062 28.988281 15.652344 28.671875 C 15.792969 28.277344 15.972656 28.164062 16.1875 27.785156 C 16.09375 27.726562 16.03125 27.679688 15.910156 27.695312 C 15.128906 28.597656 14.507812 29.171875 13.648438 29.957031 C 13.535156 29.875 13.175781 29.753906 13.054688 29.691406 C 13.011719 29.457031 13.101562 28.703125 13.019531 28.574219 C 12.925781 28.335938 12.601562 28.363281 12.410156 28.230469 C 12.398438 28.226562 12.359375 28.199219 12.351562 28.195312 C 12.378906 27.367188 12.34375 27.582031 11.816406 27.324219 C 11.789062 27.3125 11.765625 27.226562 11.769531 27.160156 C 11.773438 26.90625 11.75 26.449219 11.679688 26.25 C 11.441406 26.261719 10.472656 26.546875 10.316406 26.628906 C 10.292969 26.636719 10.28125 26.632812 10.273438 26.625 L 10.265625 26.589844 L 10.265625 26.511719 M 24.253906 19.109375 C 24.183594 19.316406 24.027344 19.414062 23.875 19.542969 C 22.707031 20.570312 22.339844 20.308594 21.066406 20.152344 C 21.835938 18.886719 23.621094 18.734375 24.253906 19.109375 M 19.800781 16.644531 C 20.210938 17.820312 19.589844 19.296875 17.390625 19.636719 C 17.390625 19.628906 19.308594 18.777344 19.390625 17.558594 C 19.183594 17.484375 18.789062 17.414062 18.800781 17.421875 C 19.023438 17.082031 19.53125 16.710938 19.800781 16.644531 M 10.496094 15.351562 C 10.867188 15.421875 11.898438 15.941406 12.125 16.167969 C 12.339844 16.386719 12.421875 16.761719 12.503906 17.09375 C 12.617188 17.542969 12.621094 18.082031 12.460938 18.335938 C 11.894531 18.277344 10.820312 17.246094 10.636719 16.589844 C 10.457031 15.9375 10.476562 15.675781 10.496094 15.351562 M 6.6875 18.699219 C 6.933594 18.394531 8.507812 18.414062 8.78125 18.582031 C 8.992188 18.710938 9.457031 19.039062 9.726562 19.125 C 9.609375 19.328125 8.933594 19.546875 8.464844 19.539062 C 7.8125 19.527344 6.984375 19.167969 6.6875 18.699219 M 9.085938 21.015625 C 8.894531 21.105469 8.628906 21.109375 8.429688 21.136719 C 8.054688 21.1875 7.664062 21.023438 7.371094 20.957031 C 7.371094 20.921875 8.703125 19.960938 9.492188 19.679688 C 9.65625 19.617188 10.398438 19.582031 10.554688 19.664062 C 10.441406 20.023438 9.433594 20.851562 9.085938 21.015625 M 10.320312 19.09375 C 9.65625 18.878906 8.433594 17.820312 8.28125 17.191406 C 8.769531 17.210938 9.097656 17.28125 9.484375 17.386719 C 10.070312 17.464844 10.402344 17.484375 10.96875 17.917969 C 11.25 18.132812 11.558594 18.6875 11.585938 18.910156 C 11.390625 19.0625 10.71875 19.226562 10.320312 19.09375 M 12.121094 21.03125 C 11.761719 21.210938 11.261719 21.1875 10.714844 21.328125 C 11.214844 19.074219 12.953125 18.949219 13.363281 18.945312 C 13.367188 19.511719 13.144531 20.527344 12.121094 21.03125 M 13.25 17.976562 C 12.667969 17.042969 12.65625 16.269531 13.148438 15.203125 C 13.746094 15.285156 14.980469 17.128906 13.832031 18.535156 C 13.601562 18.421875 13.398438 18.214844 13.25 17.976562 M 14.625 22.269531 C 14.484375 21.695312 14.105469 21.285156 13.957031 20.679688 C 13.914062 20.5 13.84375 20.183594 13.933594 19.917969 C 14.054688 19.578125 14.261719 19.230469 14.460938 18.984375 C 15.230469 19.3125 15.511719 21.53125 14.625 22.269531 M 14.578125 18.355469 C 14.65625 17.351562 15.800781 16.414062 17.371094 16.242188 C 17.335938 17.1875 16.4375 18.136719 15.644531 18.355469 C 15.308594 18.394531 14.636719 18.390625 14.578125 18.355469 M 16.46875 22.507812 C 16.351562 21.96875 15.539062 20.667969 15.773438 19.925781 C 15.835938 19.726562 15.90625 19.515625 15.996094 19.300781 C 16.34375 19.453125 16.78125 20.167969 16.871094 20.445312 C 17.132812 21.285156 16.644531 22.4375 16.46875 22.507812 M 16.8125 19.109375 C 16.503906 19.039062 16.207031 18.902344 16.023438 18.773438 C 16.835938 17.929688 18.121094 17.398438 18.871094 17.695312 C 18.699219 18.1875 18.160156 18.679688 17.652344 18.886719 C 17.519531 18.941406 17.042969 19.160156 16.8125 19.109375 M 17.269531 22.265625 C 17.351562 21.660156 17.511719 20.726562 17.941406 20.445312 C 18.222656 20.257812 18.804688 20.09375 19.109375 20.054688 C 19.328125 20.660156 18.410156 22.195312 17.269531 22.265625 M 19.804688 23.945312 C 19.699219 23.730469 19.511719 23.476562 19.414062 23.257812 C 19.191406 22.761719 19.3125 21.769531 19.53125 21.3125 C 19.6875 20.976562 20.039062 20.835938 20.25 20.5625 C 20.976562 21.246094 20.070312 23.832031 19.804688 23.945312 M 18.871094 19.648438 C 19.472656 19.347656 19.785156 18.753906 20.3125 18.402344 C 21.195312 17.808594 21.960938 17.9375 22.128906 18.097656 C 21.9375 18.453125 21.378906 19.105469 20.996094 19.410156 C 20.3125 19.804688 19.066406 19.839844 18.871094 19.648438 M 22.027344 24.390625 C 21.695312 24.289062 21.363281 23.902344 21.203125 23.683594 C 20.679688 22.917969 20.894531 21.964844 21.304688 21.261719 C 21.433594 21.363281 21.585938 21.554688 21.71875 21.730469 C 22.378906 22.636719 22.222656 23.1875 22.027344 24.390625 M 24.496094 24.640625 C 23.375 24.597656 22.679688 23.5625 22.679688 22.4375 C 23.003906 22.476562 23.375 22.699219 23.5625 22.894531 C 23.957031 23.304688 24.367188 23.976562 24.496094 24.640625 M 22.15625 21.234375 C 22.855469 20.378906 25.503906 21.496094 25.503906 21.875 C 25.039062 22.070312 24.703125 22.078125 24.328125 22.109375 C 23.46875 22.1875 22.277344 21.390625 22.15625 21.234375 "/>
<path style=" stroke:none;fill-rule:evenodd;fill:rgb(100%,100%,100%);fill-opacity:1;" d="M 7.515625 12.75 C 7.800781 13.035156 7.765625 13.460938 7.480469 13.730469 C 7.175781 14.023438 6.765625 14.027344 6.480469 13.742188 C 6.195312 13.453125 6.230469 13.03125 6.515625 12.757812 C 6.820312 12.46875 7.234375 12.464844 7.515625 12.75 M 7.789062 12.492188 C 7.363281 12.058594 6.722656 12.066406 6.265625 12.503906 C 5.828125 12.921875 5.78125 13.566406 6.207031 14 C 6.636719 14.433594 7.273438 14.425781 7.734375 13.988281 C 8.167969 13.570312 8.214844 12.921875 7.789062 12.492188 "/>
<path style=" stroke:none;fill-rule:evenodd;fill:rgb(100%,100%,100%);fill-opacity:1;" d="M 9.957031 12.328125 L 8.769531 11.542969 L 9.027344 12.921875 L 8.667969 12.988281 L 8.28125 10.910156 L 8.371094 10.851562 L 10.15625 12.027344 Z M 9.957031 12.328125 "/>
<path style=" stroke:none;fill-rule:evenodd;fill:rgb(100%,100%,100%);fill-opacity:1;" d="M 10.855469 10.925781 L 11.191406 11.644531 L 10.859375 11.792969 L 10.527344 11.070312 L 9.453125 10.34375 L 9.675781 10.070312 L 10.527344 10.644531 L 10.644531 9.636719 L 11.003906 9.648438 Z M 10.855469 10.925781 "/>
<path style=" stroke:none;fill-rule:evenodd;fill:rgb(100%,100%,100%);fill-opacity:1;" d="M 14.027344 10.859375 L 13.589844 9.546875 L 13.117188 10.460938 L 13.054688 10.472656 L 12.21875 9.863281 L 12.421875 11.230469 L 12.0625 11.277344 L 11.765625 9.261719 L 11.898438 9.199219 L 12.972656 9.988281 L 13.574219 8.808594 L 13.71875 8.808594 L 14.371094 10.746094 Z M 14.027344 10.859375 "/>
<path style=" stroke:none;fill-rule:evenodd;fill:rgb(100%,100%,100%);fill-opacity:1;" d="M 16.226562 10.667969 L 16.207031 9.039062 L 15.320312 9.050781 L 15.34375 10.679688 L 14.980469 10.683594 L 14.957031 8.710938 L 16.5625 8.691406 L 16.589844 10.664062 Z M 16.226562 10.667969 "/>
<path style=" stroke:none;fill-rule:evenodd;fill:rgb(100%,100%,100%);fill-opacity:1;" d="M 17.324219 10.75 L 17.585938 8.792969 L 17.945312 8.84375 L 17.679688 10.796875 Z M 17.324219 10.75 "/>
<path style=" stroke:none;fill-rule:evenodd;fill:rgb(100%,100%,100%);fill-opacity:1;" d="M 19.519531 10.554688 L 18.972656 10.410156 L 19.414062 9.878906 Z M 19.996094 11.253906 L 19.675781 9.15625 L 19.570312 9.128906 L 18.199219 10.769531 L 18.484375 10.996094 L 18.730469 10.699219 L 19.574219 10.925781 L 19.632812 11.308594 Z M 19.996094 11.253906 "/>
<path style=" stroke:none;fill-rule:evenodd;fill:rgb(100%,100%,100%);fill-opacity:1;" d="M 21.5 12.023438 L 21.105469 10.75 L 20.671875 11.640625 L 20.347656 11.488281 L 21.207031 9.703125 L 21.535156 9.859375 L 21.242188 10.460938 L 22.148438 10.144531 L 22.558594 10.332031 L 21.472656 10.714844 L 21.945312 12.234375 Z M 21.5 12.023438 "/>
<path style=" stroke:none;fill-rule:evenodd;fill:rgb(100%,100%,100%);fill-opacity:1;" d="M 23.957031 12.433594 C 23.722656 12.757812 23.292969 12.800781 22.96875 12.570312 C 22.621094 12.332031 22.542969 11.933594 22.78125 11.609375 C 23.015625 11.285156 23.445312 11.242188 23.769531 11.46875 C 24.113281 11.710938 24.191406 12.109375 23.957031 12.433594 M 24.265625 12.648438 C 24.621094 12.160156 24.5 11.542969 23.980469 11.179688 C 23.488281 10.832031 22.828125 10.902344 22.472656 11.390625 C 22.117188 11.882812 22.238281 12.496094 22.757812 12.859375 C 23.25 13.207031 23.910156 13.140625 24.265625 12.648438 "/>
<path style=" stroke:none;fill-rule:evenodd;fill:rgb(100%,100%,100%);fill-opacity:1;" d="M 23.867188 13.648438 L 24.007812 13.511719 L 24.996094 13.296875 L 25.121094 12.480469 L 25.320312 12.289062 L 26.21875 13.183594 L 25.96875 13.429688 L 25.433594 12.894531 L 25.324219 13.597656 L 24.484375 13.777344 L 25.050781 14.339844 L 24.800781 14.582031 Z M 23.867188 13.648438 "/>
<path style=" stroke:none;fill-rule:evenodd;fill:rgb(100%,100%,100%);fill-opacity:1;" d="M 4.164062 15.089844 L 4.261719 15.144531 L 4.824219 16.097656 L 5.753906 16.003906 L 5.898438 16.085938 L 5.292969 17.148438 L 5.125 17.058594 L 5.582031 16.246094 L 4.703125 16.335938 L 4.179688 15.449219 L 3.699219 16.296875 L 3.527344 16.207031 Z M 4.164062 15.089844 "/>
<path style=" stroke:none;fill-rule:evenodd;fill:rgb(100%,100%,100%);fill-opacity:1;" d="M 3.675781 17.820312 L 2.953125 17.554688 L 3.027344 17.34375 L 3.757812 17.613281 L 5.121094 17.320312 L 5.175781 17.535156 L 3.941406 17.800781 L 4.6875 18.800781 L 4.5 18.929688 Z M 3.675781 17.820312 "/>
<path style=" stroke:none;fill-rule:evenodd;fill:rgb(100%,100%,100%);fill-opacity:1;" d="M 2.28125 22.765625 L 2.292969 21.558594 L 3.683594 22.171875 Z M 2.144531 23.066406 L 4.128906 22.21875 L 4.132812 22.136719 L 2.167969 21.257812 L 2.101562 21.328125 L 2.085938 22.996094 Z M 2.144531 23.066406 "/>
<path style=" stroke:none;fill-rule:evenodd;fill:rgb(100%,100%,100%);fill-opacity:1;" d="M 2.171875 23.804688 L 4.160156 23.523438 L 4.304688 24.496094 L 4.113281 24.527344 L 4 23.769531 L 3.433594 23.851562 L 3.539062 24.550781 L 3.34375 24.574219 L 3.242188 23.878906 L 2.398438 24 L 2.527344 24.867188 L 2.335938 24.894531 Z M 2.171875 23.804688 "/>
<path style=" stroke:none;fill-rule:evenodd;fill:rgb(100%,100%,100%);fill-opacity:1;" d="M 2.5 25.613281 L 2.609375 25.582031 L 3.699219 25.847656 L 4.277344 25.121094 L 4.433594 25.074219 L 4.796875 26.242188 L 4.613281 26.296875 L 4.335938 25.410156 L 3.789062 26.09375 L 2.773438 25.847656 L 3.066406 26.78125 L 2.882812 26.835938 Z M 2.5 25.613281 "/>
<path style=" stroke:none;fill-rule:evenodd;fill:rgb(100%,100%,100%);fill-opacity:1;" d="M 4.035156 29.335938 L 5.445312 28.453125 L 4.128906 28.351562 L 4.082031 28.257812 L 4.75 27.144531 L 3.207031 27.773438 L 3.117188 27.570312 L 5.046875 26.78125 L 5.109375 26.921875 L 4.351562 28.175781 L 5.835938 28.292969 L 5.917969 28.421875 L 4.15625 29.523438 Z M 4.035156 29.335938 "/>
<path style=" stroke:none;fill-rule:evenodd;fill:rgb(100%,100%,100%);fill-opacity:1;" d="M 6.679688 31.039062 C 6.296875 31.351562 5.785156 31.273438 5.472656 30.910156 C 5.140625 30.527344 5.171875 30.035156 5.550781 29.722656 C 5.929688 29.410156 6.445312 29.492188 6.753906 29.855469 C 7.085938 30.238281 7.058594 30.726562 6.679688 31.039062 M 6.820312 31.207031 C 7.292969 30.820312 7.332031 30.199219 6.917969 29.71875 C 6.527344 29.261719 5.871094 29.167969 5.40625 29.554688 C 4.9375 29.941406 4.898438 30.566406 5.308594 31.046875 C 5.699219 31.503906 6.351562 31.597656 6.820312 31.207031 "/>
<path style=" stroke:none;fill-rule:evenodd;fill:rgb(100%,100%,100%);fill-opacity:1;" d="M 6.5625 32.289062 L 6.632812 32.203125 L 7.695312 31.839844 L 7.777344 30.925781 L 7.878906 30.800781 L 8.835938 31.582031 L 8.710938 31.730469 L 7.984375 31.132812 L 7.910156 32 L 6.925781 32.335938 L 7.683594 32.960938 L 7.558594 33.105469 Z M 6.5625 32.289062 "/>
<path style=" stroke:none;fill-rule:evenodd;fill:rgb(100%,100%,100%);fill-opacity:1;" d="M 11.730469 34.179688 C 11.578125 34.527344 11.140625 34.613281 10.699219 34.46875 L 11.238281 33.246094 C 11.671875 33.46875 11.882812 33.835938 11.730469 34.179688 M 11.9375 34.265625 C 12.128906 33.828125 11.871094 33.339844 11.316406 33.066406 L 11.355469 32.980469 L 11.140625 32.890625 L 11.101562 32.980469 C 10.546875 32.785156 9.984375 32.921875 9.792969 33.363281 C 9.601562 33.796875 9.859375 34.285156 10.410156 34.5625 L 10.351562 34.703125 L 10.558594 34.792969 L 10.621094 34.648438 C 11.183594 34.839844 11.75 34.703125 11.9375 34.265625 M 10.492188 34.378906 C 10.0625 34.160156 9.847656 33.792969 10 33.449219 C 10.152344 33.101562 10.589844 33.011719 11.023438 33.160156 Z M 10.492188 34.378906 "/>
<path style=" stroke:none;fill-rule:evenodd;fill:rgb(100%,100%,100%);fill-opacity:1;" d="M 12.3125 35.382812 L 12.820312 33.472656 L 13.039062 33.53125 L 12.53125 35.4375 Z M 12.3125 35.382812 "/>
<path style=" stroke:none;fill-rule:evenodd;fill:rgb(100%,100%,100%);fill-opacity:1;" d="M 14.761719 35.886719 L 14.324219 34.226562 L 13.460938 35.726562 L 13.273438 35.609375 L 14.347656 33.75 L 14.429688 33.757812 L 14.976562 35.835938 Z M 14.761719 35.886719 "/>
<path style=" stroke:none;fill-rule:evenodd;fill:rgb(100%,100%,100%);fill-opacity:1;" d="M 16.78125 35.253906 L 15.960938 35.277344 L 16.339844 34.308594 Z M 17.289062 35.808594 L 16.367188 33.847656 L 16.285156 33.851562 L 15.492188 35.859375 L 15.695312 35.941406 L 15.886719 35.472656 L 16.871094 35.441406 L 17.085938 35.894531 Z M 17.289062 35.808594 "/>
<path style=" stroke:none;fill-rule:evenodd;fill:rgb(100%,100%,100%);fill-opacity:1;" d="M 21.992188 34.574219 L 20.75 33.367188 L 20.792969 35.085938 L 20.566406 35.082031 L 20.523438 32.945312 L 20.597656 32.910156 L 22.148438 34.421875 Z M 21.992188 34.574219 "/>
<path style=" stroke:none;fill-rule:evenodd;fill:rgb(100%,100%,100%);fill-opacity:1;" d="M 23.929688 33.136719 L 24.324219 32.875 L 24.429688 33.035156 L 23.792969 33.453125 L 23.644531 33.230469 C 23.808594 32.972656 23.945312 32.515625 23.746094 32.222656 C 23.484375 31.839844 22.957031 31.824219 22.585938 32.066406 C 22.21875 32.308594 22.027344 32.792969 22.289062 33.175781 C 22.488281 33.46875 22.972656 33.523438 23.277344 33.46875 L 23.425781 33.691406 L 22.789062 34.105469 L 22.683594 33.949219 L 23.078125 33.691406 C 22.710938 33.714844 22.3125 33.609375 22.101562 33.300781 C 21.761719 32.796875 22.023438 32.183594 22.46875 31.890625 C 22.914062 31.597656 23.59375 31.597656 23.933594 32.097656 C 24.144531 32.410156 24.09375 32.8125 23.929688 33.136719 "/>
<path style=" stroke:none;fill-rule:evenodd;fill:rgb(100%,100%,100%);fill-opacity:1;" d="M 28.429688 28.140625 L 26.820312 27.308594 L 26.328125 28.226562 L 27.933594 29.058594 L 27.828125 29.253906 L 26.050781 28.335938 L 26.757812 27.023438 L 28.53125 27.945312 Z M 28.429688 28.140625 "/>
<path style=" stroke:none;fill-rule:evenodd;fill:rgb(100%,100%,100%);fill-opacity:1;" d="M 28.925781 26.96875 L 27.019531 26.347656 L 27.335938 25.414062 L 27.515625 25.472656 L 27.273438 26.199219 L 27.820312 26.375 L 28.042969 25.703125 L 28.230469 25.765625 L 28.003906 26.433594 L 28.8125 26.699219 L 29.097656 25.867188 L 29.277344 25.925781 Z M 28.925781 26.96875 "/>
<path style=" stroke:none;fill-rule:evenodd;fill:rgb(100%,100%,100%);fill-opacity:1;" d="M 29.457031 25.15625 L 27.488281 24.753906 L 27.535156 24.535156 L 29.5 24.9375 Z M 29.457031 25.15625 "/>
<path style=" stroke:none;fill-rule:evenodd;fill:rgb(100%,100%,100%);fill-opacity:1;" d="M 28.335938 22.84375 C 28.542969 22.859375 28.691406 23.089844 28.671875 23.3125 L 28.640625 23.632812 L 27.882812 23.566406 L 27.917969 23.21875 C 27.941406 22.960938 28.089844 22.820312 28.335938 22.84375 M 28.351562 22.621094 C 28.007812 22.589844 27.757812 22.820312 27.722656 23.195312 L 27.671875 23.769531 L 29.671875 23.945312 L 29.691406 23.722656 L 28.832031 23.648438 L 28.863281 23.332031 C 28.894531 22.988281 28.671875 22.648438 28.351562 22.621094 "/>
<path style=" stroke:none;fill-rule:evenodd;fill:rgb(100%,100%,100%);fill-opacity:1;" d="M 29.136719 21.15625 L 29.179688 21.960938 L 28.183594 21.613281 Z M 29.691406 20.644531 L 27.714844 21.597656 L 27.71875 21.675781 L 29.78125 22.410156 L 29.863281 22.207031 L 29.378906 22.035156 L 29.324219 21.066406 L 29.785156 20.84375 Z M 29.691406 20.644531 "/>
<path style=" stroke:none;fill-rule:evenodd;fill:rgb(100%,100%,100%);fill-opacity:1;" d="M 29.574219 19.972656 L 27.597656 20.324219 L 27.558594 20.105469 L 29.535156 19.753906 Z M 29.574219 19.972656 "/>
<path style=" stroke:none;fill-rule:evenodd;fill:rgb(100%,100%,100%);fill-opacity:1;" d="M 28.65625 17.40625 L 28.5 16.964844 L 28.683594 16.902344 L 28.933594 17.609375 L 28.679688 17.699219 C 28.46875 17.476562 28.050781 17.230469 27.710938 17.347656 C 27.269531 17.5 27.121094 17.996094 27.269531 18.40625 C 27.414062 18.824219 27.84375 19.125 28.285156 18.972656 C 28.628906 18.851562 28.800781 18.410156 28.824219 18.105469 L 29.082031 18.015625 L 29.332031 18.726562 L 29.148438 18.792969 L 28.992188 18.347656 C 28.921875 18.703125 28.71875 19.058594 28.359375 19.179688 C 27.777344 19.378906 27.242188 18.976562 27.066406 18.476562 C 26.886719 17.980469 27.054688 17.335938 27.632812 17.136719 C 27.996094 17.015625 28.378906 17.167969 28.65625 17.40625 "/>
<path style=" stroke:none;fill-rule:evenodd;fill:rgb(100%,100%,100%);fill-opacity:1;" d="M 28.308594 16.152344 L 28.207031 16.210938 L 27.082031 16.179688 L 26.683594 17.011719 L 26.539062 17.089844 L 25.925781 16.027344 L 26.09375 15.933594 L 26.5625 16.742188 L 26.945312 15.957031 L 27.984375 15.984375 L 27.496094 15.136719 L 27.664062 15.042969 Z M 28.308594 16.152344 "/>
<path style=" stroke:none;fill-rule:evenodd;fill:rgb(100%,100%,100%);fill-opacity:1;" d="M 2.226562 20.242188 L 2.230469 20.242188 L 3.839844 19.480469 L 2.429688 19.089844 L 2.503906 18.878906 L 4.472656 19.429688 L 2.621094 20.320312 L 4.195312 20.617188 L 4.152344 20.835938 L 2.183594 20.457031 Z M 2.226562 20.242188 "/>
<path style=" stroke:none;fill-rule:evenodd;fill:rgb(100%,100%,100%);fill-opacity:1;" d="M 19.582031 34.382812 C 19.683594 34.855469 19.371094 35.265625 18.898438 35.363281 C 18.398438 35.46875 17.972656 35.214844 17.871094 34.738281 C 17.769531 34.265625 18.082031 33.859375 18.550781 33.761719 C 19.054688 33.65625 19.476562 33.910156 19.582031 34.382812 M 19.804688 34.339844 C 19.675781 33.75 19.132812 33.421875 18.507812 33.554688 C 17.914062 33.675781 17.523438 34.199219 17.652344 34.785156 C 17.777344 35.375 18.320312 35.703125 18.945312 35.574219 C 19.539062 35.449219 19.929688 34.925781 19.804688 34.339844 "/>
<path style=" stroke:none;fill-rule:evenodd;fill:rgb(100%,100%,100%);fill-opacity:1;" d="M 19.339844 34.535156 L 18.15625 34.78125 L 18.113281 34.589844 L 19.300781 34.34375 Z M 19.339844 34.535156 "/>
<path style=" stroke:none;fill-rule:evenodd;fill:rgb(100%,100%,100%);fill-opacity:1;" d="M 26.167969 31.433594 L 26.164062 31.429688 L 24.394531 31.183594 L 25.34375 32.277344 L 25.167969 32.414062 L 23.84375 30.878906 L 25.882812 31.152344 L 24.742188 30.046875 L 24.902344 29.890625 L 26.324219 31.277344 Z M 26.167969 31.433594 "/>
<path style=" stroke:none;fill-rule:evenodd;fill:rgb(90.588235%,77.254902%,41.176471%);fill-opacity:1;" d="M 3.507812 3.570312 L 4.621094 4.921875 L 6.277344 4.296875 L 5.3125 5.753906 L 6.425781 7.105469 L 4.714844 6.65625 L 3.75 8.117188 L 3.65625 6.378906 L 1.945312 5.929688 L 3.601562 5.304688 Z M 3.507812 3.570312 "/>
<path style=" stroke:none;fill-rule:evenodd;fill:rgb(90.588235%,77.254902%,41.176471%);fill-opacity:1;" d="M 11.839844 0 L 12.589844 1.574219 L 14.347656 1.363281 L 13.050781 2.550781 L 13.800781 4.125 L 12.25 3.28125 L 10.957031 4.46875 L 11.292969 2.761719 L 9.742188 1.917969 L 11.503906 1.707031 Z M 11.839844 0 "/>
<path style=" stroke:none;fill-rule:evenodd;fill:rgb(90.588235%,77.254902%,41.176471%);fill-opacity:1;" d="M 20.109375 0 L 20.449219 1.707031 L 22.207031 1.917969 L 20.65625 2.761719 L 20.996094 4.46875 L 19.699219 3.28125 L 18.148438 4.125 L 18.898438 2.550781 L 17.601562 1.363281 L 19.359375 1.574219 Z M 20.109375 0 "/>
<path style=" stroke:none;fill-rule:evenodd;fill:rgb(90.588235%,77.254902%,41.176471%);fill-opacity:1;" d="M 28.441406 3.570312 L 28.351562 5.304688 L 30.003906 5.929688 L 28.292969 6.378906 L 28.199219 8.117188 L 27.234375 6.65625 L 25.523438 7.105469 L 26.640625 5.753906 L 25.675781 4.296875 L 27.328125 4.921875 Z M 28.441406 3.570312 "/>
</g>
</svg>
