<?xml version="1.0" encoding="UTF-8"?>
<svg xmlns="http://www.w3.org/2000/svg" xmlns:xlink="http://www.w3.org/1999/xlink" width="32px" height="32px" viewBox="0 0 32 32" version="1.1">
<g id="surface1">
<path style=" stroke:none;fill-rule:evenodd;fill:rgb(100%,100%,100%);fill-opacity:1;" d="M 31.871094 16 C 31.871094 24.765625 24.765625 31.871094 16 31.871094 C 7.234375 31.871094 0.128906 24.765625 0.128906 16 C 0.128906 7.234375 7.234375 0.128906 16 0.128906 C 24.765625 0.128906 31.871094 7.234375 31.871094 16 Z M 31.871094 16 "/>
<path style=" stroke:none;fill-rule:evenodd;fill:rgb(0%,47.45098%,24.705882%);fill-opacity:1;" d="M 15.886719 5.992188 C 21.367188 5.992188 25.835938 10.523438 25.835938 16.09375 C 25.835938 21.636719 21.367188 26.160156 15.886719 26.160156 C 10.375 26.160156 5.90625 21.636719 5.90625 16.09375 C 5.90625 10.523438 10.375 5.992188 15.886719 5.992188 Z M 15.886719 6.589844 C 10.703125 6.589844 6.503906 10.851562 6.503906 16.09375 C 6.503906 21.308594 10.703125 25.566406 15.886719 25.566406 C 21.039062 25.566406 25.238281 21.308594 25.238281 16.09375 C 25.238281 10.851562 21.039062 6.589844 15.886719 6.589844 Z M 15.886719 6.589844 "/>
<path style=" stroke:none;fill-rule:evenodd;fill:rgb(0%,47.45098%,24.705882%);fill-opacity:1;" d="M 15.914062 0.929688 C 24.195312 0.929688 30.960938 7.753906 30.960938 16.125 C 30.960938 24.496094 24.195312 31.347656 15.914062 31.347656 C 7.632812 31.347656 0.902344 24.496094 0.902344 16.121094 C 0.902344 7.753906 7.632812 0.929688 15.914062 0.929688 Z M 15.914062 1.378906 C 7.902344 1.378906 1.347656 8.019531 1.347656 16.125 C 1.347656 24.257812 7.902344 30.871094 15.914062 30.871094 C 23.957031 30.871094 30.511719 24.257812 30.511719 16.125 C 30.511719 8.019531 23.957031 1.378906 15.914062 1.378906 Z M 15.914062 1.378906 "/>
<path style=" stroke:none;fill-rule:evenodd;fill:rgb(0%,47.45098%,24.705882%);fill-opacity:1;" d="M 5.042969 20.980469 L 5.667969 21.753906 L 6.621094 21.425781 L 6.085938 22.289062 L 6.683594 23.09375 L 5.699219 22.855469 L 5.132812 23.691406 L 5.070312 22.675781 L 4.089844 22.351562 L 5.042969 21.992188 M 26.699219 20.980469 L 26.699219 21.992188 L 27.625 22.351562 L 26.671875 22.675781 L 26.609375 23.691406 L 26.015625 22.855469 L 25.0625 23.09375 L 25.65625 22.289062 L 25.121094 21.425781 L 26.074219 21.753906 M 29.859375 14.8125 L 29.230469 14.84375 L 28.367188 15.230469 L 26.910156 14.902344 L 26.253906 14.929688 L 26.285156 16.480469 L 26.96875 16.453125 L 26.9375 15.765625 L 28.398438 16.0625 L 29.230469 15.707031 L 29.261719 16.359375 L 29.917969 16.332031 M 25.480469 9.152344 L 24.585938 10.523438 L 25.121094 11.328125 L 26.222656 9.511719 L 28.011719 9.152344 L 27.535156 8.40625 L 25.984375 8.792969 L 27.238281 7.929688 L 26.789062 7.246094 L 23.808594 9.300781 L 24.257812 10.015625 M 24.734375 5.25 L 22.410156 8.140625 L 22.976562 8.675781 L 25.300781 5.816406 M 18.058594 4.207031 L 18.269531 6.023438 L 18.984375 6.144531 L 19.640625 2.539062 L 18.867188 2.390625 L 18.566406 4.085938 L 18.359375 2.269531 L 17.644531 2.152344 L 16.957031 5.753906 L 17.734375 5.90625 M 15.023438 3.609375 L 14.636719 3.640625 L 14.515625 2.152344 L 13.679688 2.210938 L 13.980469 5.90625 L 14.84375 5.847656 L 14.695312 4.328125 L 15.082031 4.296875 L 15.199219 5.816406 L 16.035156 5.757812 L 15.738281 2.0625 L 14.902344 2.121094 M 6.113281 9.152344 L 7.84375 9.808594 L 8.320312 9.242188 L 5.398438 6.949219 L 4.894531 7.574219 L 6.265625 8.644531 L 4.566406 7.988281 L 4.058594 8.585938 L 6.976562 10.878906 L 7.484375 10.253906 M 1.972656 16.273438 L 5.550781 16.453125 L 5.578125 15.585938 L 2.660156 15.46875 L 2.6875 15.082031 L 5.609375 15.230469 L 5.636719 14.394531 L 2.0625 14.214844 M 24.136719 4.742188 L 23.808594 5.128906 L 24.195312 5.460938 L 24.527344 5.070312 M 25.539062 6.054688 L 25.210938 6.410156 L 25.597656 6.738281 L 25.925781 6.382812 M 4.773438 12.371094 L 3.464844 11.683594 L 3.492188 11.625 L 4.894531 11.980469 Z M 3.046875 10.820312 L 2.660156 11.980469 L 5.699219 13.769531 L 5.96875 12.964844 L 5.371094 12.636719 L 5.519531 12.160156 L 6.203125 12.339844 L 6.472656 11.535156 Z M 8.496094 7.007812 L 7.664062 5.726562 L 7.722656 5.667969 L 8.824219 6.769531 Z M 7.695312 4.742188 L 6.769531 5.519531 L 8.675781 8.707031 L 9.332031 8.199219 L 8.914062 7.574219 L 9.300781 7.277344 L 9.808594 7.78125 L 10.464844 7.246094 Z M 11.6875 6.710938 L 12.609375 6.351562 L 12.90625 5.609375 L 11.921875 3.195312 L 11.179688 2.867188 L 10.285156 3.222656 L 9.988281 3.9375 L 10.972656 6.351562 Z M 10.851562 3.789062 L 11.148438 3.671875 L 12.042969 5.816406 L 11.746094 5.933594 Z M 10.851562 3.789062 "/>
<path style=" stroke:none;fill-rule:evenodd;fill:rgb(0%,47.45098%,24.705882%);fill-opacity:1;" d="M 11.773438 5.042969 L 11.507812 4.386719 L 11.121094 4.503906 L 11.386719 5.160156 M 21.097656 5.546875 L 21.90625 4.207031 L 21.964844 4.238281 L 21.429688 5.726562 Z M 22.738281 3.847656 L 21.726562 3.3125 L 19.671875 6.441406 L 20.382812 6.796875 L 20.773438 6.171875 L 21.1875 6.382812 L 20.953125 7.097656 L 21.664062 7.453125 Z M 28.996094 11.417969 L 28.308594 11.058594 L 25.957031 11.863281 L 25.597656 12.546875 L 25.894531 13.503906 L 26.582031 13.859375 L 28.933594 13.085938 L 29.292969 12.339844 Z M 28.429688 11.953125 L 28.546875 12.28125 L 26.433594 12.964844 L 26.34375 12.667969 Z M 12.429688 26.699219 L 11.535156 29.589844 L 12.371094 29.828125 L 13.472656 26.253906 L 12.9375 26.101562 L 12.222656 26.132812 L 12.074219 26.578125 M 14.605469 28.84375 L 14.484375 29.648438 L 14.128906 29.589844 L 14.1875 29.054688 L 13.382812 28.933594 L 13.292969 29.589844 L 13.769531 30.242188 L 14.695312 30.363281 L 15.292969 29.917969 L 15.648438 27.234375 L 15.171875 26.640625 L 14.277344 26.492188 L 13.652344 26.9375 L 13.503906 28.160156 L 13.921875 28.753906 Z M 14.8125 27.296875 L 14.695312 28.160156 L 14.335938 28.097656 L 14.457031 27.234375 Z M 16.421875 26.578125 L 15.886719 27.175781 L 16.09375 29.738281 L 16.660156 30.273438 L 17.703125 30.214844 L 18.238281 29.617188 L 18.03125 27.054688 L 17.40625 26.519531 Z M 16.808594 27.296875 L 17.136719 27.265625 L 17.316406 29.558594 L 16.988281 29.558594 Z M 20.175781 27.710938 L 20.445312 27.296875 L 20.207031 26.339844 L 19.519531 26.015625 L 18.714844 26.160156 L 18.328125 26.789062 L 18.566406 27.714844 L 19.042969 27.949219 L 18.65625 28.457031 L 18.894531 29.351562 L 19.578125 29.796875 L 20.5625 29.589844 L 20.953125 28.964844 L 20.710938 28.007812 Z M 19.878906 28.1875 L 20.085938 28.992188 L 19.757812 29.054688 L 19.550781 28.25 L 19.875 28.1875 Z M 19.492188 26.730469 L 19.699219 27.503906 L 19.371094 27.59375 L 19.164062 26.789062 Z M 19.492188 26.730469 "/>
<path style=" stroke:none;fill-rule:evenodd;fill:rgb(0%,47.45098%,24.705882%);fill-opacity:1;" d="M 23.480469 15.945312 C 23.300781 15.46875 23.390625 15.738281 23.449219 14.398438 C 23.507812 13.054688 23.0625 12.492188 22.585938 12.164062 C 22.140625 11.835938 21.394531 11.6875 20.589844 11.867188 C 19.785156 12.042969 18.984375 13.117188 18.773438 13.414062 C 18.59375 13.710938 18.296875 14.1875 18.058594 14.542969 C 17.851562 14.84375 17.582031 15.023438 17.433594 14.960938 C 17.109375 14.84375 17.523438 14.21875 17.761719 13.921875 C 17.878906 13.773438 18.265625 13.292969 18.625 12.816406 C 18.863281 12.519531 19.042969 12.191406 19.191406 11.953125 C 19.550781 11.296875 19.460938 10.585938 19.371094 9.957031 C 19.25 9.304688 18.476562 8.351562 17.613281 8.230469 C 16.777344 8.082031 16.449219 8.261719 15.855469 8.527344 C 15.261719 8.769531 15.082031 8.707031 14.84375 8.648438 C 14.605469 8.585938 13.769531 8.410156 13.355469 8.5 C 12.90625 8.585938 11.6875 9.15625 11.417969 10.375 C 11.148438 11.597656 12.015625 12.609375 12.460938 12.996094 C 12.878906 13.414062 13.980469 14.15625 14.21875 14.484375 C 14.425781 14.8125 14.542969 15.140625 14.308594 15.230469 C 14.070312 15.351562 13.53125 14.933594 13.175781 14.664062 C 12.816406 14.367188 12.222656 13.414062 11.628906 12.96875 C 11.0625 12.550781 9.871094 12.25 8.945312 13.085938 C 8.023438 13.921875 8.140625 14.664062 8.320312 15.199219 C 8.527344 15.738281 8.589844 16.242188 8.558594 16.71875 C 8.46875 17.554688 8.171875 18.328125 8.292969 19.222656 C 8.378906 20.175781 9.957031 21.605469 11.597656 20.769531 C 13.234375 19.9375 13.503906 18.984375 14.128906 18.390625 C 14.59375 17.921875 14.796875 17.703125 14.992188 17.683594 C 15.03125 17.683594 15.070312 17.6875 15.109375 17.695312 C 15.121094 17.699219 15.132812 17.703125 15.148438 17.707031 C 15.160156 17.714844 15.175781 17.71875 15.191406 17.726562 C 15.421875 17.84375 15.605469 18.222656 15.613281 18.96875 C 15.632812 20.132812 15.542969 21.082031 15.386719 21.667969 C 15.234375 22.257812 14.941406 23.582031 14.902344 23.726562 C 14.832031 23.871094 14.792969 24.078125 15.121094 24.039062 C 15.453125 24 16.433594 23.585938 16.628906 23.328125 C 16.792969 23.097656 16.882812 23.105469 16.84375 22.714844 C 16.792969 22.144531 16.738281 21.515625 16.75 20.886719 C 16.757812 20.292969 16.671875 19.71875 16.761719 19.25 C 16.859375 18.597656 16.917969 18.019531 17.203125 17.828125 L 17.207031 17.824219 C 17.351562 17.738281 17.519531 17.757812 17.671875 17.851562 C 18.089844 18.089844 18.328125 18.328125 18.894531 18.773438 C 19.132812 18.953125 19.578125 19.222656 19.875 19.460938 C 21.128906 20.355469 21.902344 19.964844 22.648438 19.667969 C 23.359375 19.402344 24.015625 18.625 24.015625 17.851562 C 24.015625 17.046875 23.660156 16.421875 23.480469 15.945312 Z M 23.480469 15.945312 "/>
</g>
</svg>
