<?xml version="1.0" encoding="UTF-8"?>
<svg xmlns="http://www.w3.org/2000/svg" xmlns:xlink="http://www.w3.org/1999/xlink" width="32px" height="32px" viewBox="0 0 32 26" version="1.1">
<g id="surface1">
<path style=" stroke:none;fill-rule:nonzero;fill:rgb(100%,100%,100%);fill-opacity:1;" d="M 16.023438 25.578125 C 7.414062 25.578125 0.417969 20.769531 0.417969 14.855469 C 0.417969 8.941406 7.417969 4.128906 16.027344 4.128906 C 24.636719 4.128906 31.640625 8.9375 31.640625 14.855469 C 31.640625 20.769531 24.636719 25.578125 16.027344 25.578125 Z M 16.023438 25.578125 "/>
<path style=" stroke:none;fill-rule:nonzero;fill:rgb(92.941176%,10.980392%,14.117647%);fill-opacity:1;" d="M 16.027344 6.945312 C 13.351562 6.945312 10.867188 7.453125 8.8125 8.320312 L 23.246094 8.320312 C 21.191406 7.453125 18.707031 6.945312 16.027344 6.945312 Z M 16.027344 22.765625 C 18.753906 22.765625 21.273438 22.238281 23.351562 21.339844 L 8.707031 21.339844 C 10.78125 22.238281 13.304688 22.765625 16.027344 22.765625 Z M 5.648438 19.480469 L 5.867188 19.480469 L 5.902344 19.550781 L 6.003906 19.480469 L 26.40625 19.480469 C 27.070312 18.914062 27.613281 18.289062 28.015625 17.621094 L 4.035156 17.621094 C 4.4375 18.289062 4.984375 18.914062 5.648438 19.480469 Z M 28.730469 13.902344 L 3.324219 13.902344 C 3.261719 14.214844 3.230469 14.535156 3.230469 14.855469 C 3.230469 15.164062 3.257812 15.464844 3.3125 15.761719 L 28.738281 15.761719 C 28.792969 15.464844 28.820312 15.164062 28.820312 14.855469 C 28.824219 14.535156 28.789062 14.214844 28.730469 13.902344 Z M 26.351562 10.183594 L 5.699219 10.183594 C 5.027344 10.75 4.472656 11.375 4.0625 12.042969 L 27.984375 12.042969 C 27.574219 11.375 27.019531 10.75 26.347656 10.183594 Z M 26.351562 10.183594 "/>
<path style=" stroke:none;fill-rule:nonzero;fill:rgb(73.333333%,59.215686%,32.54902%);fill-opacity:1;" d="M 0.882812 14.855469 C 0.882812 9.183594 7.664062 4.585938 16.027344 4.585938 C 24.386719 4.585938 31.175781 9.183594 31.175781 14.855469 C 31.175781 20.519531 24.390625 25.121094 16.027344 25.121094 C 7.664062 25.121094 0.882812 20.523438 0.882812 14.855469 M 16.027344 22.757812 C 23.074219 22.757812 28.78125 19.21875 28.78125 14.851562 C 28.78125 10.480469 23.074219 6.941406 16.027344 6.941406 C 8.984375 6.941406 3.273438 10.480469 3.273438 14.855469 C 3.273438 19.21875 8.984375 22.757812 16.027344 22.757812 Z M 16.027344 22.757812 "/>
<path style=" stroke:none;fill-rule:nonzero;fill:rgb(100%,100%,100%);fill-opacity:1;" d="M 5.925781 19.597656 C 7.773438 18.300781 9.039062 16.402344 9.605469 13.652344 C 10.183594 10.832031 9.878906 8.113281 9.710938 7.027344 L 30.796875 14.332031 L 6.023438 19.574219 "/>
<path style=" stroke:none;fill-rule:nonzero;fill:rgb(100%,100%,100%);fill-opacity:1;" d="M 29.570312 12.660156 C 29.4375 12.707031 29.324219 12.804688 29.257812 12.933594 C 29.195312 13.050781 29.179688 13.183594 29.214844 13.316406 L 29.257812 13.480469 C 29.28125 13.554688 29.300781 13.652344 29.320312 13.753906 C 29.328125 13.78125 29.332031 13.808594 29.335938 13.839844 C 29.339844 13.863281 29.347656 13.886719 29.351562 13.910156 C 29.359375 13.953125 29.367188 13.992188 29.375 14.03125 L 29.414062 14.367188 C 29.425781 14.449219 29.496094 14.507812 29.582031 14.507812 C 29.585938 14.507812 29.589844 14.507812 29.59375 14.507812 C 29.644531 14.507812 29.691406 14.484375 29.71875 14.445312 C 29.746094 14.414062 29.757812 14.375 29.753906 14.335938 L 29.734375 14.160156 C 29.726562 14.113281 29.722656 14.0625 29.714844 14.007812 L 29.710938 13.980469 C 29.707031 13.9375 29.695312 13.894531 29.6875 13.851562 C 29.683594 13.828125 29.679688 13.800781 29.671875 13.777344 L 29.65625 13.691406 C 29.636719 13.582031 29.617188 13.476562 29.589844 13.398438 L 29.542969 13.226562 C 29.53125 13.175781 29.535156 13.125 29.5625 13.074219 C 29.589844 13.027344 29.632812 12.992188 29.683594 12.976562 C 29.734375 12.960938 29.792969 12.964844 29.84375 12.988281 C 29.890625 13.015625 29.925781 13.058594 29.9375 13.117188 L 29.988281 13.300781 C 30.015625 13.386719 30.039062 13.5 30.0625 13.621094 L 30.078125 13.703125 C 30.082031 13.730469 30.089844 13.757812 30.09375 13.78125 C 30.105469 13.832031 30.113281 13.875 30.117188 13.921875 L 30.164062 14.300781 C 30.179688 14.398438 30.253906 14.46875 30.347656 14.460938 C 30.390625 14.460938 30.433594 14.4375 30.464844 14.402344 C 30.496094 14.363281 30.511719 14.316406 30.503906 14.269531 L 30.457031 13.871094 C 30.449219 13.824219 30.4375 13.773438 30.429688 13.722656 C 30.425781 13.695312 30.417969 13.667969 30.414062 13.640625 L 30.398438 13.5625 C 30.375 13.433594 30.347656 13.308594 30.320312 13.214844 L 30.269531 13.023438 C 30.230469 12.878906 30.128906 12.753906 29.988281 12.683594 C 29.859375 12.617188 29.707031 12.609375 29.570312 12.660156 Z M 12.039062 6.34375 L 12.015625 6.347656 C 12.015625 6.347656 11.941406 6.359375 11.835938 6.382812 L 11.441406 6.472656 C 11.320312 6.496094 11.199219 6.527344 11.101562 6.554688 L 10.871094 6.613281 C 10.855469 6.617188 10.839844 6.617188 10.820312 6.617188 C 10.726562 6.617188 10.644531 6.554688 10.621094 6.46875 C 10.605469 6.414062 10.613281 6.363281 10.636719 6.316406 C 10.667969 6.269531 10.710938 6.234375 10.765625 6.21875 L 11.003906 6.160156 C 11.101562 6.132812 11.226562 6.101562 11.347656 6.074219 C 11.492188 6.042969 11.640625 6.011719 11.75 5.988281 C 11.859375 5.960938 11.933594 5.949219 11.933594 5.949219 C 12.027344 5.933594 12.085938 5.84375 12.070312 5.753906 C 12.054688 5.675781 11.984375 5.617188 11.898438 5.617188 C 11.890625 5.617188 11.878906 5.617188 11.867188 5.621094 C 11.867188 5.621094 11.789062 5.632812 11.679688 5.660156 L 11.269531 5.75 C 11.144531 5.773438 11.015625 5.808594 10.914062 5.835938 L 10.679688 5.894531 C 10.535156 5.929688 10.414062 6.019531 10.339844 6.148438 C 10.269531 6.273438 10.25 6.425781 10.292969 6.5625 C 10.363281 6.796875 10.578125 6.953125 10.824219 6.953125 C 10.871094 6.953125 10.917969 6.949219 10.960938 6.9375 L 11.191406 6.878906 C 11.285156 6.851562 11.402344 6.824219 11.519531 6.800781 L 11.90625 6.714844 C 12.011719 6.6875 12.082031 6.679688 12.082031 6.679688 C 12.171875 6.660156 12.230469 6.574219 12.214844 6.484375 C 12.199219 6.402344 12.121094 6.34375 12.039062 6.34375 Z M 3.699219 18.195312 L 3.605469 18.050781 C 3.542969 17.960938 3.46875 17.832031 3.414062 17.730469 C 3.355469 17.636719 3.304688 17.539062 3.265625 17.457031 L 3.183594 17.289062 C 3.167969 17.265625 3.164062 17.25 3.164062 17.25 C 3.140625 17.191406 3.082031 17.15625 3.015625 17.15625 C 2.992188 17.15625 2.96875 17.164062 2.945312 17.171875 C 2.859375 17.207031 2.816406 17.304688 2.851562 17.386719 C 2.851562 17.386719 2.859375 17.40625 2.875 17.433594 L 2.960938 17.605469 C 3 17.6875 3.054688 17.792969 3.113281 17.894531 C 3.175781 18 3.25 18.136719 3.316406 18.230469 L 3.414062 18.378906 C 3.472656 18.476562 3.449219 18.59375 3.359375 18.660156 C 3.324219 18.683594 3.285156 18.695312 3.242188 18.695312 C 3.171875 18.695312 3.105469 18.664062 3.070312 18.605469 L 2.96875 18.445312 C 2.898438 18.34375 2.8125 18.195312 2.753906 18.089844 C 2.691406 17.984375 2.632812 17.871094 2.589844 17.78125 L 2.558594 17.726562 C 2.535156 17.675781 2.449219 17.511719 2.449219 17.511719 C 2.398438 17.433594 2.316406 17.4375 2.253906 17.464844 C 2.210938 17.480469 2.179688 17.515625 2.164062 17.558594 C 2.144531 17.601562 2.148438 17.648438 2.167969 17.691406 C 2.167969 17.691406 2.171875 17.710938 2.191406 17.746094 L 2.285156 17.933594 C 2.332031 18.027344 2.390625 18.144531 2.457031 18.253906 C 2.550781 18.421875 2.621094 18.539062 2.679688 18.625 L 2.785156 18.789062 C 2.890625 18.945312 3.066406 19.035156 3.246094 19.035156 C 3.359375 19.035156 3.46875 19 3.558594 18.929688 C 3.792969 18.753906 3.855469 18.421875 3.699219 18.195312 Z M 2.40625 16.828125 C 2.539062 16.785156 2.652344 16.691406 2.730469 16.566406 C 2.796875 16.453125 2.816406 16.320312 2.789062 16.183594 L 2.75 16.019531 C 2.730469 15.949219 2.71875 15.863281 2.703125 15.769531 C 2.695312 15.734375 2.691406 15.695312 2.683594 15.65625 C 2.667969 15.574219 2.660156 15.488281 2.65625 15.410156 C 2.652344 15.371094 2.648438 15.328125 2.644531 15.292969 C 2.632812 15.195312 2.632812 15.128906 2.632812 15.128906 L 2.628906 15.109375 C 2.617188 15.035156 2.546875 14.976562 2.457031 14.976562 C 2.410156 14.976562 2.367188 14.996094 2.335938 15.03125 C 2.304688 15.0625 2.289062 15.101562 2.292969 15.144531 C 2.292969 15.144531 2.289062 15.214844 2.304688 15.320312 C 2.308594 15.359375 2.3125 15.398438 2.316406 15.445312 C 2.320312 15.523438 2.328125 15.617188 2.347656 15.707031 C 2.355469 15.746094 2.359375 15.785156 2.367188 15.820312 C 2.382812 15.921875 2.398438 16.015625 2.417969 16.089844 L 2.457031 16.261719 C 2.480469 16.371094 2.417969 16.476562 2.308594 16.507812 C 2.289062 16.511719 2.273438 16.511719 2.253906 16.511719 C 2.15625 16.511719 2.074219 16.449219 2.054688 16.359375 L 2.011719 16.171875 C 1.992188 16.089844 1.976562 15.988281 1.957031 15.875 C 1.953125 15.839844 1.945312 15.800781 1.9375 15.765625 C 1.921875 15.667969 1.910156 15.566406 1.902344 15.480469 C 1.898438 15.433594 1.894531 15.390625 1.890625 15.351562 C 1.878906 15.242188 1.878906 15.167969 1.878906 15.164062 C 1.875 15.070312 1.800781 14.996094 1.703125 14.996094 C 1.660156 14.996094 1.621094 15.015625 1.589844 15.046875 C 1.554688 15.082031 1.535156 15.128906 1.539062 15.179688 C 1.539062 15.183594 1.539062 15.261719 1.550781 15.378906 C 1.554688 15.417969 1.558594 15.464844 1.5625 15.511719 C 1.574219 15.605469 1.582031 15.710938 1.601562 15.8125 C 1.605469 15.851562 1.613281 15.890625 1.621094 15.925781 C 1.636719 16.042969 1.65625 16.15625 1.679688 16.242188 L 1.722656 16.4375 C 1.753906 16.578125 1.851562 16.707031 1.988281 16.789062 C 2.0625 16.832031 2.148438 16.855469 2.238281 16.855469 C 2.296875 16.855469 2.351562 16.847656 2.40625 16.828125 Z M 9.222656 22.214844 C 9.21875 22.214844 8.949219 22.113281 8.691406 22.003906 C 8.554688 21.949219 8.417969 21.886719 8.332031 21.84375 L 8.167969 21.769531 C 8.144531 21.761719 8.125 21.757812 8.097656 21.757812 C 8.035156 21.757812 7.972656 21.792969 7.945312 21.851562 C 7.925781 21.894531 7.921875 21.941406 7.9375 21.984375 C 7.949219 22.015625 7.96875 22.042969 7.996094 22.0625 L 8.1875 22.152344 C 8.277344 22.191406 8.414062 22.253906 8.554688 22.3125 C 8.820312 22.425781 9.097656 22.527344 9.097656 22.527344 C 9.203125 22.570312 9.257812 22.6875 9.214844 22.792969 C 9.1875 22.871094 9.109375 22.921875 9.027344 22.921875 C 9 22.921875 8.976562 22.917969 8.949219 22.90625 C 8.945312 22.90625 8.664062 22.800781 8.394531 22.683594 C 8.25 22.625 8.109375 22.5625 8.015625 22.519531 L 7.84375 22.441406 C 7.820312 22.429688 7.796875 22.425781 7.769531 22.425781 C 7.703125 22.425781 7.644531 22.460938 7.617188 22.519531 C 7.59375 22.558594 7.59375 22.605469 7.609375 22.648438 C 7.625 22.691406 7.65625 22.726562 7.699219 22.746094 L 7.871094 22.824219 C 8.019531 22.894531 8.148438 22.949219 8.257812 22.992188 C 8.535156 23.113281 8.824219 23.21875 8.828125 23.222656 C 8.890625 23.246094 8.960938 23.257812 9.027344 23.257812 C 9.257812 23.257812 9.464844 23.117188 9.539062 22.902344 C 9.636719 22.625 9.496094 22.324219 9.222656 22.214844 Z M 11.476562 22.902344 L 10.917969 22.761719 L 10.539062 22.65625 C 10.433594 22.628906 10.367188 22.605469 10.363281 22.605469 C 10.347656 22.601562 10.332031 22.597656 10.316406 22.597656 C 10.242188 22.597656 10.179688 22.644531 10.15625 22.714844 C 10.136719 22.777344 10.132812 22.878906 10.199219 22.902344 L 10.265625 22.925781 C 10.265625 22.925781 10.335938 22.949219 10.441406 22.976562 L 10.828125 23.085938 C 11.113281 23.15625 11.398438 23.230469 11.398438 23.230469 C 11.507812 23.253906 11.578125 23.359375 11.550781 23.46875 C 11.53125 23.5625 11.445312 23.628906 11.347656 23.628906 C 11.335938 23.628906 11.320312 23.628906 11.304688 23.625 L 10.722656 23.480469 L 10.324219 23.367188 C 10.21875 23.339844 10.144531 23.316406 10.144531 23.316406 L 10.117188 23.304688 L 10.117188 23.308594 C 10.109375 23.308594 10.101562 23.308594 10.09375 23.308594 C 10.019531 23.308594 9.953125 23.355469 9.929688 23.425781 C 9.902344 23.511719 9.953125 23.605469 10.046875 23.636719 C 10.046875 23.636719 10.121094 23.660156 10.230469 23.691406 C 10.339844 23.722656 10.484375 23.761719 10.632812 23.804688 L 11.226562 23.949219 C 11.265625 23.960938 11.308594 23.964844 11.351562 23.964844 C 11.609375 23.964844 11.835938 23.785156 11.886719 23.542969 C 11.945312 23.25 11.761719 22.964844 11.476562 22.902344 Z M 7.101562 21.21875 L 6.949219 21.128906 C 6.855469 21.078125 6.738281 21.003906 6.617188 20.925781 C 6.496094 20.855469 6.378906 20.777344 6.292969 20.714844 L 6.144531 20.613281 C 6.117188 20.59375 6.085938 20.585938 6.050781 20.585938 C 5.996094 20.585938 5.945312 20.613281 5.910156 20.65625 C 5.882812 20.691406 5.875 20.738281 5.878906 20.785156 C 5.886719 20.808594 5.894531 20.832031 5.910156 20.851562 L 5.949219 20.886719 C 5.949219 20.886719 6.007812 20.929688 6.097656 20.988281 C 6.1875 21.054688 6.308594 21.132812 6.433594 21.210938 C 6.550781 21.285156 6.679688 21.363281 6.773438 21.417969 L 6.929688 21.507812 C 7.027344 21.566406 7.058594 21.691406 7.003906 21.785156 C 6.96875 21.851562 6.902344 21.890625 6.828125 21.890625 C 6.792969 21.890625 6.753906 21.878906 6.722656 21.859375 L 6.5625 21.765625 C 6.460938 21.710938 6.328125 21.625 6.210938 21.550781 C 6.082031 21.472656 5.957031 21.390625 5.863281 21.324219 L 5.703125 21.214844 C 5.675781 21.195312 5.640625 21.1875 5.605469 21.1875 C 5.550781 21.1875 5.5 21.210938 5.46875 21.253906 C 5.441406 21.292969 5.429688 21.335938 5.441406 21.382812 C 5.449219 21.425781 5.472656 21.464844 5.511719 21.492188 L 5.671875 21.601562 C 5.769531 21.667969 5.898438 21.753906 6.027344 21.832031 C 6.152344 21.914062 6.285156 21.996094 6.386719 22.054688 C 6.484375 22.113281 6.550781 22.148438 6.550781 22.148438 C 6.636719 22.199219 6.734375 22.226562 6.832031 22.226562 C 7.03125 22.226562 7.214844 22.117188 7.304688 21.945312 C 7.445312 21.6875 7.355469 21.367188 7.101562 21.21875 Z M 28.148438 10.949219 C 28.125 11.078125 28.15625 11.210938 28.234375 11.332031 L 28.433594 11.617188 L 28.535156 11.789062 C 28.601562 11.894531 28.675781 12.019531 28.722656 12.113281 L 28.800781 12.265625 C 28.828125 12.316406 28.886719 12.347656 28.949219 12.347656 C 28.976562 12.347656 29.003906 12.34375 29.027344 12.332031 C 29.070312 12.3125 29.101562 12.277344 29.113281 12.238281 C 29.128906 12.195312 29.125 12.152344 29.105469 12.113281 L 29.023438 11.957031 C 28.976562 11.859375 28.90625 11.742188 28.828125 11.617188 L 28.71875 11.4375 L 28.515625 11.140625 C 28.453125 11.046875 28.472656 10.921875 28.5625 10.859375 C 28.597656 10.832031 28.640625 10.816406 28.683594 10.816406 C 28.75 10.816406 28.8125 10.851562 28.851562 10.90625 L 29.066406 11.21875 L 29.183594 11.410156 C 29.257812 11.535156 29.339844 11.664062 29.386719 11.769531 L 29.515625 11.984375 C 29.550781 12.042969 29.644531 12.046875 29.707031 12.015625 C 29.746094 12 29.777344 11.964844 29.792969 11.925781 C 29.808594 11.882812 29.800781 11.832031 29.78125 11.785156 L 29.691406 11.613281 C 29.636719 11.503906 29.554688 11.367188 29.472656 11.234375 C 29.433594 11.167969 29.394531 11.101562 29.355469 11.039062 L 29.128906 10.714844 C 29.046875 10.59375 28.914062 10.507812 28.757812 10.484375 C 28.613281 10.464844 28.46875 10.503906 28.351562 10.59375 C 28.242188 10.679688 28.167969 10.808594 28.148438 10.949219 Z M 6.363281 8.839844 C 6.464844 8.839844 6.566406 8.8125 6.65625 8.757812 L 6.804688 8.664062 C 6.898438 8.605469 7.035156 8.527344 7.140625 8.46875 C 7.382812 8.328125 7.640625 8.199219 7.640625 8.199219 L 7.652344 8.191406 C 7.726562 8.144531 7.75 8.050781 7.710938 7.972656 C 7.679688 7.917969 7.625 7.882812 7.558594 7.882812 C 7.53125 7.882812 7.507812 7.886719 7.484375 7.898438 C 7.480469 7.902344 7.21875 8.03125 6.972656 8.175781 C 6.863281 8.238281 6.722656 8.316406 6.625 8.378906 L 6.472656 8.476562 C 6.4375 8.496094 6.402344 8.507812 6.363281 8.507812 C 6.292969 8.507812 6.226562 8.472656 6.1875 8.414062 C 6.15625 8.367188 6.144531 8.316406 6.15625 8.261719 C 6.167969 8.210938 6.203125 8.164062 6.25 8.132812 L 6.410156 8.035156 C 6.511719 7.96875 6.664062 7.882812 6.765625 7.824219 C 7.019531 7.675781 7.289062 7.542969 7.292969 7.539062 L 7.304688 7.535156 C 7.378906 7.488281 7.410156 7.390625 7.367188 7.3125 C 7.339844 7.257812 7.28125 7.222656 7.21875 7.222656 C 7.1875 7.222656 7.160156 7.230469 7.132812 7.242188 C 7.132812 7.242188 6.855469 7.382812 6.59375 7.535156 C 6.480469 7.597656 6.335938 7.683594 6.230469 7.75 L 6.066406 7.851562 C 5.9375 7.929688 5.851562 8.050781 5.820312 8.195312 C 5.792969 8.339844 5.820312 8.488281 5.90625 8.605469 C 6.011719 8.753906 6.179688 8.839844 6.363281 8.839844 Z M 2.089844 14.464844 C 2.101562 14.464844 2.109375 14.464844 2.121094 14.464844 C 2.410156 14.464844 2.660156 14.261719 2.6875 14.011719 L 2.71875 13.847656 C 2.726562 13.8125 2.734375 13.777344 2.742188 13.738281 C 2.753906 13.660156 2.769531 13.574219 2.796875 13.488281 C 2.8125 13.4375 2.824219 13.390625 2.839844 13.34375 C 2.859375 13.265625 2.878906 13.191406 2.898438 13.132812 L 2.960938 12.949219 C 2.984375 12.875 2.925781 12.796875 2.847656 12.769531 C 2.828125 12.761719 2.808594 12.757812 2.789062 12.757812 C 2.71875 12.757812 2.65625 12.800781 2.632812 12.863281 L 2.574219 13.03125 C 2.550781 13.09375 2.53125 13.171875 2.507812 13.257812 C 2.496094 13.304688 2.480469 13.355469 2.46875 13.402344 C 2.4375 13.496094 2.421875 13.589844 2.40625 13.675781 C 2.398438 13.714844 2.390625 13.75 2.386719 13.785156 L 2.351562 13.960938 C 2.339844 14.0625 2.238281 14.140625 2.125 14.128906 C 2.070312 14.125 2.023438 14.097656 1.988281 14.054688 C 1.953125 14.011719 1.9375 13.953125 1.945312 13.898438 L 1.980469 13.710938 C 1.988281 13.675781 1.996094 13.636719 2.003906 13.59375 C 2.019531 13.503906 2.039062 13.40625 2.070312 13.308594 C 2.082031 13.257812 2.097656 13.207031 2.109375 13.15625 C 2.132812 13.0625 2.15625 12.976562 2.183594 12.90625 L 2.246094 12.730469 C 2.277344 12.640625 2.230469 12.539062 2.144531 12.507812 C 2.125 12.5 2.109375 12.496094 2.089844 12.496094 C 2.015625 12.496094 1.949219 12.546875 1.925781 12.617188 L 1.859375 12.804688 C 1.832031 12.878906 1.808594 12.972656 1.78125 13.070312 C 1.765625 13.121094 1.753906 13.171875 1.738281 13.222656 C 1.707031 13.328125 1.6875 13.4375 1.667969 13.53125 C 1.660156 13.574219 1.652344 13.613281 1.644531 13.652344 L 1.605469 13.847656 C 1.585938 14.011719 1.632812 14.171875 1.734375 14.289062 C 1.824219 14.394531 1.949219 14.457031 2.089844 14.464844 Z M 4.066406 10.171875 C 4.175781 10.269531 4.3125 10.320312 4.457031 10.320312 C 4.601562 10.320312 4.734375 10.265625 4.828125 10.167969 C 4.832031 10.167969 5.035156 9.976562 5.242188 9.792969 L 5.539062 9.546875 C 5.617188 9.480469 5.675781 9.4375 5.675781 9.4375 C 5.75 9.382812 5.761719 9.28125 5.703125 9.207031 C 5.671875 9.164062 5.621094 9.140625 5.566406 9.140625 C 5.53125 9.140625 5.496094 9.152344 5.46875 9.175781 C 5.464844 9.175781 5.40625 9.214844 5.324219 9.285156 L 5.019531 9.542969 C 4.804688 9.730469 4.59375 9.929688 4.589844 9.929688 C 4.515625 10.007812 4.382812 10.007812 4.304688 9.929688 C 4.265625 9.894531 4.242188 9.84375 4.242188 9.792969 C 4.242188 9.734375 4.261719 9.683594 4.304688 9.640625 C 4.304688 9.640625 4.527344 9.433594 4.746094 9.234375 L 5.066406 8.972656 C 5.148438 8.898438 5.210938 8.855469 5.210938 8.855469 L 5.21875 8.851562 C 5.289062 8.792969 5.300781 8.691406 5.246094 8.621094 C 5.214844 8.578125 5.164062 8.554688 5.109375 8.554688 C 5.070312 8.554688 5.03125 8.566406 5 8.589844 C 5 8.59375 4.9375 8.636719 4.847656 8.710938 L 4.519531 8.984375 C 4.292969 9.1875 4.066406 9.398438 4.0625 9.402344 C 3.949219 9.515625 3.890625 9.664062 3.898438 9.8125 C 3.902344 9.953125 3.960938 10.082031 4.066406 10.171875 Z M 2.703125 12.152344 C 2.78125 12.1875 2.867188 12.207031 2.953125 12.207031 C 3.15625 12.207031 3.339844 12.105469 3.433594 11.941406 L 3.542969 11.757812 C 3.589844 11.675781 3.652344 11.574219 3.722656 11.476562 C 3.871094 11.253906 4.066406 11.003906 4.066406 11.003906 C 4.109375 10.933594 4.078125 10.855469 4.015625 10.804688 C 3.984375 10.78125 3.945312 10.765625 3.90625 10.765625 C 3.855469 10.765625 3.808594 10.789062 3.78125 10.828125 C 3.777344 10.832031 3.59375 11.054688 3.441406 11.289062 C 3.363281 11.394531 3.300781 11.503906 3.246094 11.589844 L 3.136719 11.773438 C 3.078125 11.867188 2.957031 11.902344 2.859375 11.851562 C 2.808594 11.828125 2.773438 11.78125 2.757812 11.730469 C 2.742188 11.675781 2.746094 11.621094 2.777344 11.574219 L 2.890625 11.382812 C 2.949219 11.289062 3.015625 11.175781 3.097656 11.066406 C 3.261719 10.816406 3.453125 10.582031 3.453125 10.582031 L 3.464844 10.566406 C 3.507812 10.492188 3.496094 10.394531 3.425781 10.339844 C 3.398438 10.316406 3.363281 10.304688 3.324219 10.304688 C 3.269531 10.304688 3.21875 10.328125 3.183594 10.375 C 3.183594 10.375 2.984375 10.621094 2.8125 10.878906 C 2.730469 10.992188 2.65625 11.117188 2.597656 11.214844 L 2.480469 11.410156 C 2.402344 11.546875 2.386719 11.710938 2.433594 11.855469 C 2.480469 11.988281 2.574219 12.09375 2.703125 12.152344 Z M 5.078125 19.769531 C 5.03125 19.722656 4.972656 19.667969 4.910156 19.609375 C 4.875 19.574219 4.835938 19.539062 4.800781 19.503906 C 4.734375 19.441406 4.671875 19.375 4.613281 19.316406 C 4.585938 19.285156 4.554688 19.257812 4.53125 19.230469 C 4.457031 19.160156 4.414062 19.105469 4.414062 19.105469 C 4.359375 19.042969 4.246094 19.035156 4.179688 19.09375 C 4.109375 19.15625 4.097656 19.257812 4.160156 19.328125 C 4.160156 19.328125 4.207031 19.382812 4.28125 19.460938 C 4.308594 19.488281 4.335938 19.515625 4.367188 19.550781 C 4.425781 19.609375 4.492188 19.679688 4.558594 19.742188 C 4.597656 19.78125 4.636719 19.816406 4.671875 19.851562 C 4.738281 19.914062 4.796875 19.96875 4.847656 20.015625 L 4.984375 20.132812 C 5.066406 20.207031 5.074219 20.335938 5 20.421875 C 4.964844 20.464844 4.910156 20.492188 4.847656 20.492188 C 4.796875 20.492188 4.75 20.472656 4.710938 20.4375 L 4.570312 20.316406 C 4.515625 20.265625 4.449219 20.203125 4.382812 20.140625 C 4.34375 20.105469 4.304688 20.066406 4.269531 20.03125 C 4.195312 19.964844 4.128906 19.890625 4.066406 19.828125 C 4.035156 19.796875 4.007812 19.765625 3.980469 19.738281 C 3.902344 19.65625 3.851562 19.601562 3.851562 19.597656 C 3.820312 19.5625 3.769531 19.539062 3.71875 19.539062 C 3.679688 19.539062 3.640625 19.554688 3.609375 19.578125 C 3.574219 19.609375 3.554688 19.648438 3.550781 19.691406 C 3.546875 19.734375 3.5625 19.78125 3.589844 19.816406 L 3.597656 19.820312 C 3.597656 19.824219 3.648438 19.882812 3.730469 19.964844 C 3.757812 19.992188 3.785156 20.027344 3.820312 20.058594 C 3.882812 20.125 3.953125 20.199219 4.027344 20.269531 C 4.066406 20.308594 4.105469 20.34375 4.140625 20.378906 C 4.214844 20.449219 4.28125 20.511719 4.339844 20.5625 L 4.484375 20.691406 C 4.585938 20.78125 4.714844 20.832031 4.847656 20.832031 C 5.011719 20.832031 5.164062 20.757812 5.265625 20.632812 C 5.449219 20.40625 5.425781 20.078125 5.210938 19.882812 Z M 26.675781 9.675781 L 26.8125 9.789062 C 26.859375 9.828125 26.917969 9.882812 26.980469 9.941406 C 27.019531 9.976562 27.058594 10.011719 27.097656 10.046875 C 27.1875 10.128906 27.277344 10.214844 27.34375 10.285156 L 27.492188 10.4375 C 27.523438 10.46875 27.566406 10.484375 27.609375 10.484375 C 27.652344 10.484375 27.695312 10.46875 27.726562 10.4375 C 27.761719 10.40625 27.785156 10.363281 27.785156 10.316406 C 27.785156 10.273438 27.769531 10.234375 27.738281 10.207031 L 27.59375 10.054688 C 27.519531 9.980469 27.429688 9.886719 27.328125 9.800781 C 27.289062 9.765625 27.25 9.726562 27.210938 9.691406 C 27.148438 9.632812 27.085938 9.578125 27.035156 9.53125 L 26.894531 9.417969 C 26.808594 9.347656 26.800781 9.21875 26.871094 9.132812 C 26.910156 9.085938 26.964844 9.058594 27.027344 9.058594 C 27.074219 9.058594 27.125 9.078125 27.160156 9.109375 L 27.304688 9.226562 C 27.359375 9.273438 27.425781 9.332031 27.492188 9.398438 C 27.53125 9.433594 27.570312 9.46875 27.613281 9.503906 C 27.714844 9.59375 27.808594 9.691406 27.886719 9.769531 L 28.074219 9.953125 C 28.140625 9.992188 28.230469 9.988281 28.285156 9.9375 C 28.316406 9.910156 28.335938 9.867188 28.339844 9.820312 C 28.339844 9.773438 28.320312 9.730469 28.289062 9.695312 L 28.132812 9.539062 C 28.050781 9.457031 27.953125 9.355469 27.847656 9.261719 C 27.808594 9.222656 27.765625 9.1875 27.730469 9.152344 C 27.65625 9.085938 27.589844 9.023438 27.53125 8.976562 L 27.382812 8.851562 C 27.28125 8.765625 27.15625 8.71875 27.023438 8.71875 C 26.855469 8.71875 26.703125 8.792969 26.601562 8.925781 C 26.425781 9.15625 26.457031 9.488281 26.675781 9.675781 Z M 25.890625 20.734375 C 25.785156 20.734375 25.683594 20.765625 25.601562 20.824219 L 25.449219 20.917969 C 25.421875 20.9375 25.390625 20.953125 25.359375 20.976562 C 25.285156 21.023438 25.203125 21.074219 25.117188 21.121094 C 25.070312 21.148438 25.023438 21.175781 24.976562 21.203125 C 24.90625 21.246094 24.835938 21.285156 24.78125 21.316406 L 24.621094 21.402344 C 24.542969 21.445312 24.515625 21.546875 24.558594 21.625 C 24.585938 21.679688 24.644531 21.714844 24.707031 21.714844 C 24.734375 21.714844 24.761719 21.710938 24.785156 21.695312 L 24.945312 21.609375 C 25.007812 21.578125 25.082031 21.535156 25.15625 21.488281 C 25.203125 21.464844 25.246094 21.4375 25.292969 21.410156 C 25.382812 21.359375 25.46875 21.304688 25.542969 21.257812 C 25.574219 21.238281 25.605469 21.21875 25.632812 21.203125 L 25.789062 21.105469 C 25.820312 21.082031 25.859375 21.070312 25.902344 21.070312 C 25.96875 21.070312 26.03125 21.101562 26.070312 21.160156 C 26.101562 21.203125 26.113281 21.257812 26.105469 21.308594 C 26.09375 21.363281 26.0625 21.410156 26.015625 21.441406 C 26.015625 21.441406 25.953125 21.484375 25.855469 21.542969 C 25.828125 21.5625 25.796875 21.582031 25.761719 21.601562 C 25.683594 21.652344 25.597656 21.707031 25.503906 21.757812 C 25.460938 21.785156 25.414062 21.8125 25.371094 21.835938 C 25.289062 21.882812 25.210938 21.929688 25.148438 21.964844 L 24.972656 22.058594 C 24.894531 22.105469 24.867188 22.203125 24.910156 22.28125 C 24.941406 22.335938 24.996094 22.371094 25.058594 22.371094 C 25.089844 22.371094 25.121094 22.363281 25.144531 22.347656 L 25.316406 22.257812 C 25.378906 22.222656 25.460938 22.175781 25.542969 22.125 C 25.589844 22.097656 25.632812 22.074219 25.679688 22.046875 C 25.777344 21.992188 25.867188 21.933594 25.949219 21.882812 C 25.980469 21.863281 26.011719 21.84375 26.042969 21.824219 L 26.203125 21.722656 C 26.335938 21.632812 26.417969 21.503906 26.445312 21.355469 C 26.46875 21.21875 26.433594 21.078125 26.351562 20.964844 C 26.242188 20.820312 26.070312 20.734375 25.890625 20.734375 Z M 24.757812 8.375 L 24.914062 8.460938 C 24.933594 8.472656 24.957031 8.484375 24.980469 8.5 C 25.0625 8.546875 25.15625 8.597656 25.25 8.660156 C 25.371094 8.734375 25.488281 8.808594 25.578125 8.863281 L 25.726562 8.964844 C 25.753906 8.980469 25.785156 8.992188 25.816406 8.992188 C 25.871094 8.992188 25.925781 8.964844 25.957031 8.917969 C 25.984375 8.878906 25.996094 8.835938 25.988281 8.792969 C 25.980469 8.75 25.953125 8.710938 25.917969 8.6875 L 25.769531 8.582031 L 25.429688 8.371094 C 25.332031 8.3125 25.234375 8.253906 25.148438 8.207031 L 24.925781 8.082031 C 24.828125 8.023438 24.792969 7.902344 24.84375 7.804688 C 24.878906 7.738281 24.949219 7.699219 25.023438 7.699219 C 25.058594 7.699219 25.09375 7.707031 25.125 7.726562 L 25.359375 7.859375 C 25.445312 7.90625 25.546875 7.964844 25.644531 8.027344 L 25.996094 8.246094 L 26.15625 8.355469 C 26.183594 8.371094 26.214844 8.382812 26.25 8.382812 C 26.304688 8.382812 26.359375 8.355469 26.390625 8.308594 C 26.414062 8.273438 26.425781 8.230469 26.417969 8.1875 C 26.410156 8.140625 26.382812 8.101562 26.34375 8.074219 L 26.183594 7.964844 L 25.824219 7.742188 C 25.722656 7.675781 25.613281 7.613281 25.523438 7.566406 L 25.292969 7.433594 C 25.210938 7.386719 25.117188 7.363281 25.023438 7.363281 C 24.820312 7.363281 24.632812 7.476562 24.542969 7.652344 C 24.410156 7.914062 24.503906 8.230469 24.757812 8.375 Z M 23.757812 21.878906 C 23.683594 21.878906 23.609375 21.894531 23.542969 21.925781 C 23.542969 21.925781 23.277344 22.035156 23.011719 22.144531 L 22.644531 22.285156 C 22.546875 22.320312 22.476562 22.34375 22.476562 22.34375 C 22.390625 22.375 22.34375 22.46875 22.375 22.554688 C 22.402344 22.632812 22.484375 22.679688 22.5625 22.667969 L 22.589844 22.660156 C 22.59375 22.660156 22.664062 22.636719 22.765625 22.597656 L 23.105469 22.46875 L 23.679688 22.234375 C 23.707031 22.222656 23.734375 22.214844 23.765625 22.214844 C 23.84375 22.214844 23.917969 22.261719 23.953125 22.332031 C 23.972656 22.382812 23.976562 22.4375 23.957031 22.488281 C 23.9375 22.539062 23.898438 22.582031 23.847656 22.605469 C 23.84375 22.605469 23.566406 22.722656 23.292969 22.832031 L 22.90625 22.980469 C 22.804688 23.019531 22.730469 23.042969 22.730469 23.042969 C 22.640625 23.074219 22.59375 23.167969 22.625 23.257812 C 22.648438 23.324219 22.714844 23.367188 22.789062 23.367188 C 22.808594 23.367188 22.828125 23.363281 22.84375 23.359375 C 22.847656 23.359375 22.921875 23.335938 23.027344 23.292969 L 23.417969 23.144531 C 23.699219 23.03125 23.980469 22.914062 23.984375 22.910156 C 24.125 22.847656 24.234375 22.734375 24.285156 22.59375 C 24.332031 22.460938 24.324219 22.316406 24.261719 22.191406 C 24.164062 22 23.96875 21.878906 23.757812 21.878906 Z M 29.980469 15.003906 L 29.964844 15.003906 C 29.828125 15.003906 29.695312 15.054688 29.589844 15.140625 C 29.507812 15.210938 29.410156 15.328125 29.398438 15.480469 C 29.398438 15.484375 29.394531 15.546875 29.378906 15.644531 C 29.371094 15.679688 29.363281 15.71875 29.359375 15.761719 C 29.347656 15.835938 29.335938 15.921875 29.3125 16.007812 C 29.304688 16.039062 29.296875 16.074219 29.289062 16.109375 C 29.265625 16.203125 29.246094 16.292969 29.222656 16.363281 L 29.167969 16.550781 L 29.171875 16.550781 C 29.164062 16.625 29.210938 16.699219 29.289062 16.726562 C 29.308594 16.730469 29.324219 16.734375 29.34375 16.734375 C 29.421875 16.734375 29.484375 16.691406 29.5 16.625 L 29.550781 16.453125 C 29.578125 16.378906 29.597656 16.28125 29.621094 16.179688 C 29.628906 16.144531 29.636719 16.109375 29.644531 16.078125 C 29.667969 15.988281 29.683594 15.894531 29.695312 15.816406 C 29.703125 15.773438 29.707031 15.730469 29.714844 15.695312 C 29.734375 15.589844 29.738281 15.519531 29.738281 15.519531 C 29.75 15.414062 29.851562 15.332031 29.964844 15.339844 C 30.015625 15.34375 30.066406 15.367188 30.097656 15.410156 C 30.136719 15.453125 30.152344 15.507812 30.148438 15.566406 C 30.148438 15.566406 30.144531 15.640625 30.125 15.75 C 30.117188 15.789062 30.109375 15.832031 30.101562 15.878906 C 30.089844 15.964844 30.074219 16.0625 30.050781 16.160156 C 30.042969 16.191406 30.035156 16.226562 30.027344 16.257812 C 30 16.371094 29.976562 16.480469 29.949219 16.5625 L 29.894531 16.746094 C 29.867188 16.839844 29.914062 16.933594 30.003906 16.960938 C 30.019531 16.96875 30.039062 16.96875 30.054688 16.96875 C 30.132812 16.96875 30.199219 16.917969 30.21875 16.84375 L 30.277344 16.65625 C 30.304688 16.566406 30.332031 16.449219 30.359375 16.328125 C 30.367188 16.296875 30.375 16.261719 30.382812 16.230469 C 30.410156 16.128906 30.425781 16.023438 30.4375 15.929688 C 30.445312 15.882812 30.453125 15.839844 30.460938 15.800781 C 30.480469 15.683594 30.488281 15.605469 30.488281 15.601562 C 30.5 15.4375 30.457031 15.289062 30.363281 15.183594 C 30.265625 15.070312 30.128906 15.007812 29.980469 15.003906 Z M 28.148438 19.351562 C 28.046875 19.265625 27.914062 19.214844 27.777344 19.214844 C 27.628906 19.214844 27.488281 19.273438 27.386719 19.375 C 27.386719 19.375 27.339844 19.425781 27.265625 19.496094 L 27 19.746094 L 26.695312 20.011719 L 26.558594 20.125 C 26.492188 20.179688 26.480469 20.285156 26.539062 20.355469 C 26.570312 20.398438 26.621094 20.417969 26.671875 20.417969 C 26.710938 20.417969 26.746094 20.40625 26.777344 20.382812 L 26.917969 20.269531 L 27.21875 20.007812 L 27.503906 19.738281 C 27.585938 19.664062 27.632812 19.609375 27.632812 19.609375 C 27.671875 19.570312 27.722656 19.546875 27.78125 19.546875 C 27.832031 19.546875 27.882812 19.566406 27.921875 19.601562 C 27.964844 19.640625 27.984375 19.6875 27.988281 19.742188 C 27.988281 19.796875 27.96875 19.851562 27.929688 19.890625 C 27.929688 19.890625 27.878906 19.949219 27.796875 20.023438 L 27.496094 20.308594 L 27.183594 20.578125 L 27.039062 20.695312 C 26.964844 20.757812 26.953125 20.863281 27.011719 20.933594 C 27.042969 20.972656 27.089844 20.996094 27.140625 20.996094 C 27.183594 20.996094 27.222656 20.980469 27.253906 20.957031 L 27.40625 20.835938 L 27.726562 20.554688 L 28.035156 20.261719 C 28.121094 20.183594 28.175781 20.125 28.175781 20.125 C 28.285156 20.015625 28.339844 19.871094 28.332031 19.722656 C 28.324219 19.574219 28.261719 19.445312 28.148438 19.351562 Z M 29.453125 17.335938 C 29.320312 17.28125 29.171875 17.273438 29.039062 17.320312 C 28.902344 17.367188 28.792969 17.453125 28.734375 17.574219 C 28.734375 17.574219 28.726562 17.589844 28.714844 17.613281 L 28.652344 17.71875 C 28.636719 17.742188 28.625 17.765625 28.609375 17.792969 C 28.566406 17.867188 28.515625 17.957031 28.457031 18.042969 L 28.445312 18.0625 C 28.375 18.171875 28.304688 18.277344 28.246094 18.351562 L 28.128906 18.523438 C 28.085938 18.597656 28.125 18.671875 28.1875 18.71875 C 28.21875 18.742188 28.253906 18.757812 28.292969 18.757812 C 28.34375 18.757812 28.394531 18.730469 28.421875 18.691406 L 28.527344 18.546875 C 28.585938 18.464844 28.65625 18.359375 28.730469 18.246094 L 28.746094 18.21875 C 28.808594 18.128906 28.859375 18.039062 28.90625 17.957031 C 28.921875 17.929688 28.933594 17.90625 28.949219 17.882812 L 29.011719 17.769531 C 29.027344 17.742188 29.035156 17.726562 29.035156 17.726562 C 29.070312 17.660156 29.136719 17.621094 29.21875 17.621094 C 29.25 17.621094 29.28125 17.625 29.308594 17.640625 C 29.359375 17.664062 29.394531 17.703125 29.410156 17.753906 C 29.429688 17.808594 29.425781 17.863281 29.398438 17.917969 C 29.398438 17.917969 29.394531 17.933594 29.378906 17.960938 L 29.308594 18.082031 C 29.296875 18.105469 29.28125 18.128906 29.265625 18.15625 C 29.214844 18.242188 29.160156 18.34375 29.09375 18.4375 C 29.015625 18.5625 28.933594 18.691406 28.863281 18.78125 L 28.753906 18.933594 C 28.699219 19.011719 28.710938 19.117188 28.785156 19.171875 C 28.816406 19.191406 28.847656 19.203125 28.886719 19.203125 C 28.941406 19.203125 28.996094 19.175781 29.027344 19.128906 L 29.144531 18.972656 C 29.214844 18.878906 29.296875 18.746094 29.378906 18.621094 L 29.382812 18.613281 C 29.453125 18.511719 29.511719 18.410156 29.566406 18.316406 C 29.578125 18.289062 29.59375 18.265625 29.605469 18.246094 L 29.675781 18.121094 C 29.695312 18.089844 29.703125 18.070312 29.703125 18.070312 C 29.773438 17.933594 29.785156 17.777344 29.738281 17.640625 C 29.691406 17.5 29.589844 17.394531 29.453125 17.335938 Z M 14.402344 6.019531 L 14.21875 6.035156 C 14.183594 6.039062 14.140625 6.042969 14.09375 6.046875 C 14.011719 6.054688 13.914062 6.058594 13.816406 6.074219 L 13.234375 6.140625 C 13.125 6.160156 13.019531 6.078125 13.003906 5.972656 C 12.988281 5.859375 13.066406 5.757812 13.179688 5.738281 L 13.773438 5.667969 C 13.871094 5.65625 13.96875 5.648438 14.054688 5.640625 C 14.101562 5.640625 14.144531 5.636719 14.183594 5.632812 L 14.371094 5.617188 C 14.464844 5.609375 14.535156 5.527344 14.53125 5.433594 C 14.523438 5.34375 14.441406 5.273438 14.34375 5.28125 L 14.15625 5.296875 C 14.117188 5.300781 14.074219 5.304688 14.027344 5.308594 C 13.9375 5.316406 13.835938 5.324219 13.738281 5.335938 L 13.132812 5.40625 C 12.980469 5.429688 12.847656 5.507812 12.761719 5.628906 C 12.675781 5.742188 12.640625 5.882812 12.664062 6.023438 C 12.710938 6.285156 12.941406 6.480469 13.203125 6.480469 C 13.226562 6.480469 13.253906 6.480469 13.28125 6.476562 L 13.855469 6.40625 C 13.945312 6.394531 14.042969 6.386719 14.125 6.382812 C 14.167969 6.378906 14.210938 6.375 14.25 6.371094 L 14.449219 6.355469 C 14.53125 6.335938 14.589844 6.261719 14.582031 6.175781 C 14.578125 6.082031 14.496094 6.011719 14.402344 6.019531 Z M 15.632812 5.558594 L 15.820312 5.554688 C 15.933594 5.550781 16.082031 5.550781 16.230469 5.554688 L 16.644531 5.5625 C 16.753906 5.5625 16.828125 5.566406 16.832031 5.566406 L 16.839844 5.566406 C 16.929688 5.566406 17.007812 5.496094 17.007812 5.40625 C 17.015625 5.316406 16.941406 5.234375 16.84375 5.230469 C 16.84375 5.230469 16.765625 5.226562 16.652344 5.226562 L 16.234375 5.21875 C 16.082031 5.214844 15.929688 5.214844 15.816406 5.21875 L 15.628906 5.222656 C 15.476562 5.222656 15.339844 5.28125 15.238281 5.386719 C 15.136719 5.492188 15.082031 5.632812 15.089844 5.777344 C 15.105469 6.070312 15.347656 6.300781 15.648438 6.300781 L 15.828125 6.296875 C 15.9375 6.292969 16.082031 6.292969 16.226562 6.296875 L 16.625 6.304688 C 16.730469 6.304688 16.800781 6.308594 16.804688 6.308594 L 16.8125 6.308594 C 16.898438 6.308594 16.972656 6.238281 16.976562 6.148438 C 16.980469 6.058594 16.910156 5.976562 16.816406 5.972656 C 16.816406 5.972656 16.742188 5.96875 16.632812 5.964844 L 16.230469 5.960938 C 16.082031 5.957031 15.933594 5.957031 15.824219 5.960938 L 15.636719 5.964844 C 15.527344 5.964844 15.433594 5.875 15.429688 5.761719 C 15.429688 5.710938 15.449219 5.660156 15.488281 5.621094 C 15.523438 5.582031 15.578125 5.558594 15.632812 5.558594 Z M 22.625 7.410156 L 22.792969 7.472656 C 22.824219 7.484375 22.863281 7.5 22.902344 7.515625 C 22.984375 7.542969 23.070312 7.578125 23.15625 7.613281 L 23.523438 7.765625 C 23.621094 7.804688 23.683594 7.839844 23.683594 7.839844 C 23.707031 7.847656 23.730469 7.855469 23.753906 7.855469 C 23.816406 7.855469 23.878906 7.816406 23.90625 7.753906 C 23.9375 7.691406 23.921875 7.621094 23.878906 7.570312 L 23.828125 7.535156 C 23.824219 7.53125 23.757812 7.5 23.660156 7.457031 L 23.289062 7.304688 C 23.199219 7.265625 23.109375 7.230469 23.027344 7.203125 C 22.988281 7.1875 22.949219 7.171875 22.914062 7.160156 L 22.742188 7.09375 C 22.636719 7.054688 22.582031 6.9375 22.621094 6.835938 C 22.648438 6.753906 22.726562 6.699219 22.8125 6.699219 C 22.835938 6.699219 22.859375 6.703125 22.882812 6.714844 L 23.058594 6.777344 C 23.09375 6.792969 23.132812 6.808594 23.175781 6.824219 C 23.257812 6.855469 23.351562 6.886719 23.445312 6.929688 L 23.824219 7.085938 C 23.925781 7.128906 23.996094 7.164062 23.996094 7.164062 C 24.019531 7.171875 24.042969 7.179688 24.070312 7.179688 C 24.136719 7.179688 24.195312 7.140625 24.222656 7.082031 C 24.261719 7 24.222656 6.898438 24.136719 6.859375 C 24.136719 6.859375 24.066406 6.824219 23.960938 6.78125 L 23.574219 6.617188 C 23.480469 6.578125 23.382812 6.542969 23.300781 6.511719 C 23.257812 6.496094 23.214844 6.480469 23.179688 6.464844 L 23.003906 6.398438 C 22.941406 6.375 22.875 6.363281 22.808594 6.363281 C 22.574219 6.363281 22.367188 6.507812 22.296875 6.726562 C 22.203125 7.003906 22.347656 7.304688 22.625 7.410156 Z M 19.332031 5.46875 L 19.140625 5.4375 C 19.027344 5.421875 18.878906 5.398438 18.730469 5.382812 L 18.316406 5.335938 C 18.203125 5.320312 18.125 5.316406 18.125 5.316406 C 17.816406 5.289062 17.546875 5.515625 17.527344 5.808594 C 17.507812 6.101562 17.726562 6.363281 18.019531 6.386719 C 18.019531 6.386719 18.09375 6.394531 18.199219 6.40625 L 18.59375 6.453125 C 18.730469 6.464844 18.867188 6.488281 18.972656 6.503906 L 19.164062 6.53125 C 19.171875 6.535156 19.179688 6.535156 19.1875 6.535156 C 19.269531 6.535156 19.34375 6.472656 19.355469 6.390625 C 19.363281 6.347656 19.351562 6.304688 19.328125 6.265625 C 19.304688 6.234375 19.273438 6.214844 19.234375 6.203125 L 19.035156 6.171875 C 18.929688 6.15625 18.78125 6.132812 18.636719 6.117188 L 18.234375 6.070312 C 18.125 6.058594 18.050781 6.054688 18.050781 6.054688 C 17.996094 6.046875 17.949219 6.023438 17.914062 5.980469 C 17.878906 5.941406 17.863281 5.886719 17.867188 5.835938 C 17.875 5.730469 17.964844 5.648438 18.074219 5.648438 C 18.078125 5.648438 18.085938 5.648438 18.09375 5.648438 C 18.09375 5.648438 18.167969 5.652344 18.277344 5.667969 L 18.6875 5.714844 C 18.832031 5.730469 18.980469 5.753906 19.085938 5.769531 L 19.28125 5.800781 C 19.375 5.8125 19.464844 5.75 19.476562 5.660156 C 19.484375 5.617188 19.476562 5.570312 19.449219 5.535156 C 19.421875 5.5 19.378906 5.476562 19.332031 5.46875 Z M 21.464844 22.6875 C 21.417969 22.6875 21.371094 22.695312 21.324219 22.707031 L 21.148438 22.753906 C 21.085938 22.773438 21.007812 22.792969 20.921875 22.8125 C 20.871094 22.824219 20.820312 22.839844 20.765625 22.851562 C 20.652344 22.882812 20.523438 22.910156 20.382812 22.941406 L 20.203125 22.980469 C 20.117188 23 20.058594 23.089844 20.078125 23.179688 C 20.09375 23.269531 20.1875 23.328125 20.277344 23.308594 L 20.457031 23.269531 C 20.605469 23.238281 20.734375 23.207031 20.847656 23.179688 C 20.898438 23.164062 20.949219 23.152344 20.996094 23.140625 C 21.085938 23.121094 21.171875 23.097656 21.238281 23.078125 L 21.417969 23.03125 C 21.433594 23.023438 21.453125 23.023438 21.472656 23.023438 C 21.5625 23.023438 21.644531 23.082031 21.671875 23.171875 C 21.6875 23.222656 21.679688 23.277344 21.652344 23.324219 C 21.625 23.371094 21.582031 23.40625 21.527344 23.421875 L 21.347656 23.472656 C 21.277344 23.492188 21.191406 23.511719 21.097656 23.535156 L 20.949219 23.570312 C 20.828125 23.601562 20.695312 23.632812 20.546875 23.664062 L 20.363281 23.703125 C 20.269531 23.726562 20.210938 23.816406 20.230469 23.90625 C 20.246094 23.980469 20.316406 24.039062 20.398438 24.039062 C 20.410156 24.039062 20.421875 24.035156 20.433594 24.03125 L 20.621094 23.992188 C 20.777344 23.960938 20.910156 23.929688 21.03125 23.898438 C 21.082031 23.882812 21.136719 23.871094 21.1875 23.859375 C 21.28125 23.835938 21.367188 23.816406 21.4375 23.796875 C 21.546875 23.765625 21.621094 23.742188 21.621094 23.742188 C 21.765625 23.703125 21.886719 23.613281 21.957031 23.484375 C 22.027344 23.355469 22.039062 23.207031 21.996094 23.070312 C 21.921875 22.84375 21.707031 22.6875 21.464844 22.6875 Z M 20.359375 6.757812 L 20.535156 6.796875 C 20.628906 6.816406 20.761719 6.847656 20.917969 6.886719 L 21.300781 6.988281 C 21.300781 6.988281 21.511719 7.042969 21.519531 7.042969 C 21.59375 7.0625 21.660156 6.996094 21.679688 6.925781 C 21.707031 6.839844 21.664062 6.753906 21.582031 6.71875 L 21.394531 6.664062 L 21.003906 6.5625 C 20.839844 6.519531 20.707031 6.488281 20.609375 6.46875 L 20.433594 6.429688 C 20.324219 6.40625 20.253906 6.296875 20.277344 6.1875 C 20.296875 6.09375 20.378906 6.027344 20.476562 6.027344 C 20.492188 6.027344 20.507812 6.027344 20.519531 6.03125 L 20.703125 6.074219 C 20.800781 6.09375 20.9375 6.125 21.105469 6.171875 C 21.25 6.207031 21.394531 6.246094 21.503906 6.273438 L 21.683594 6.324219 C 21.773438 6.351562 21.871094 6.296875 21.898438 6.214844 C 21.925781 6.125 21.871094 6.03125 21.78125 6.003906 L 21.597656 5.949219 L 21.191406 5.84375 C 21.074219 5.8125 20.910156 5.773438 20.78125 5.746094 L 20.597656 5.703125 C 20.554688 5.695312 20.511719 5.691406 20.472656 5.691406 C 20.210938 5.691406 19.988281 5.871094 19.941406 6.121094 C 19.886719 6.410156 20.070312 6.6875 20.359375 6.757812 Z M 9.507812 6.253906 C 9.488281 6.253906 9.46875 6.257812 9.449219 6.261719 C 9.445312 6.261719 9.15625 6.359375 8.875 6.46875 C 8.589844 6.570312 8.308594 6.691406 8.304688 6.695312 C 8.167969 6.75 8.058594 6.859375 8.003906 6.996094 C 7.953125 7.128906 7.957031 7.28125 8.019531 7.410156 C 8.113281 7.601562 8.308594 7.726562 8.523438 7.726562 C 8.597656 7.726562 8.667969 7.714844 8.734375 7.6875 C 8.734375 7.683594 8.996094 7.570312 9.265625 7.476562 C 9.324219 7.453125 9.382812 7.429688 9.4375 7.410156 L 9.4375 7.050781 C 9.347656 7.082031 9.246094 7.121094 9.144531 7.160156 C 8.871094 7.257812 8.601562 7.375 8.597656 7.378906 C 8.574219 7.386719 8.546875 7.394531 8.519531 7.394531 C 8.4375 7.394531 8.363281 7.34375 8.328125 7.269531 C 8.308594 7.222656 8.304688 7.167969 8.324219 7.117188 C 8.347656 7.066406 8.386719 7.023438 8.4375 7.003906 C 8.441406 7.003906 8.714844 6.882812 8.996094 6.78125 C 9.269531 6.675781 9.554688 6.582031 9.558594 6.582031 L 9.574219 6.574219 C 9.652344 6.539062 9.695312 6.449219 9.667969 6.367188 C 9.644531 6.296875 9.582031 6.253906 9.507812 6.253906 Z M 9.507812 6.253906 "/>
<path style=" stroke:none;fill-rule:nonzero;fill:rgb(100%,100%,100%);fill-opacity:1;" d="M 9.101562 6.21875 L 10.066406 6.535156 C 10.101562 6.46875 10.121094 6.394531 10.121094 6.320312 C 10.121094 6.042969 9.890625 5.816406 9.609375 5.816406 C 9.359375 5.816406 9.152344 5.984375 9.101562 6.21875 "/>
<path style=" stroke:none;fill-rule:nonzero;fill:rgb(100%,100%,100%);fill-opacity:1;" d="M 4.863281 21.382812 L 5.289062 21.511719 L 9.800781 6.5 L 9.359375 6.367188 Z M 4.863281 21.382812 "/>
<path style=" stroke:none;fill-rule:nonzero;fill:rgb(100%,100%,100%);fill-opacity:1;" d="M 12.746094 23.066406 L 13.535156 23.179688 L 13.5 23.421875 L 12.96875 23.34375 L 12.929688 23.609375 L 13.429688 23.679688 L 13.398438 23.902344 L 12.898438 23.832031 L 12.855469 24.101562 L 13.386719 24.179688 L 13.347656 24.417969 L 12.558594 24.304688 Z M 12.746094 23.066406 "/>
<path style=" stroke:none;fill-rule:nonzero;fill:rgb(100%,100%,100%);fill-opacity:1;" d="M 13.621094 24.429688 L 13.644531 24.179688 C 13.714844 24.21875 13.851562 24.253906 13.960938 24.261719 C 14.117188 24.277344 14.199219 24.242188 14.210938 24.148438 C 14.214844 24.078125 14.171875 24.035156 14.078125 23.996094 L 13.9375 23.941406 C 13.726562 23.855469 13.6875 23.71875 13.699219 23.582031 C 13.730469 23.28125 13.976562 23.207031 14.234375 23.230469 C 14.320312 23.238281 14.445312 23.257812 14.523438 23.296875 L 14.5 23.546875 C 14.429688 23.503906 14.3125 23.476562 14.21875 23.46875 C 14.066406 23.453125 13.984375 23.492188 13.972656 23.582031 C 13.96875 23.652344 14.011719 23.695312 14.105469 23.734375 L 14.246094 23.789062 C 14.457031 23.875 14.496094 24.011719 14.484375 24.148438 C 14.453125 24.453125 14.210938 24.527344 13.949219 24.503906 C 13.859375 24.492188 13.714844 24.46875 13.621094 24.429688 Z M 13.621094 24.429688 "/>
<path style=" stroke:none;fill-rule:nonzero;fill:rgb(100%,100%,100%);fill-opacity:1;" d="M 14.660156 23.289062 L 15.558594 23.328125 L 15.546875 23.570312 L 15.230469 23.554688 L 15.183594 24.5625 L 14.917969 24.550781 L 14.964844 23.542969 L 14.648438 23.53125 Z M 14.660156 23.289062 "/>
<path style=" stroke:none;fill-rule:nonzero;fill:rgb(100%,100%,100%);fill-opacity:1;" d="M 16.308594 23.570312 L 16.074219 23.574219 L 16.070312 23.332031 L 16.570312 23.324219 L 16.589844 24.574219 L 16.328125 24.578125 Z M 16.308594 23.570312 "/>
<path style=" stroke:none;fill-rule:nonzero;fill:rgb(100%,100%,100%);fill-opacity:1;" d="M 16.976562 24.539062 L 16.960938 24.285156 C 17.035156 24.320312 17.117188 24.339844 17.210938 24.332031 C 17.367188 24.324219 17.488281 24.257812 17.480469 24.003906 C 17.425781 24.0625 17.351562 24.097656 17.257812 24.105469 C 17.039062 24.117188 16.886719 23.960938 16.871094 23.710938 C 16.851562 23.433594 17.023438 23.285156 17.253906 23.269531 C 17.609375 23.25 17.726562 23.570312 17.75 23.894531 C 17.777344 24.363281 17.585938 24.546875 17.25 24.566406 C 17.15625 24.574219 17.046875 24.566406 16.976562 24.539062 Z M 17.464844 23.796875 C 17.441406 23.605469 17.378906 23.503906 17.269531 23.511719 C 17.214844 23.515625 17.132812 23.550781 17.140625 23.699219 C 17.148438 23.800781 17.1875 23.875 17.304688 23.867188 C 17.363281 23.863281 17.421875 23.839844 17.464844 23.796875 Z M 17.464844 23.796875 "/>
<path style=" stroke:none;fill-rule:nonzero;fill:rgb(100%,100%,100%);fill-opacity:1;" d="M 18.101562 23.464844 L 17.871094 23.492188 L 17.84375 23.25 L 18.339844 23.195312 L 18.472656 24.441406 L 18.210938 24.46875 Z M 18.101562 23.464844 "/>
<path style=" stroke:none;fill-rule:nonzero;fill:rgb(100%,100%,100%);fill-opacity:1;" d="M 18.792969 24.386719 L 18.757812 24.140625 C 18.828125 24.160156 18.945312 24.164062 19.050781 24.148438 C 19.128906 24.136719 19.253906 24.109375 19.238281 23.988281 C 19.222656 23.894531 19.136719 23.832031 18.867188 23.871094 L 18.832031 23.660156 L 19.054688 23.347656 L 18.644531 23.40625 L 18.609375 23.167969 L 19.335938 23.058594 L 19.375 23.308594 L 19.128906 23.640625 C 19.335938 23.652344 19.476562 23.742188 19.507812 23.941406 C 19.542969 24.175781 19.398438 24.335938 19.097656 24.382812 C 19.011719 24.394531 18.882812 24.402344 18.792969 24.386719 Z M 18.792969 24.386719 "/>
<path style=" stroke:none;fill-rule:nonzero;fill:rgb(11.372549%,11.372549%,10.588235%);fill-opacity:1;" d="M 9.710938 6.972656 L 9.847656 6.515625 L 10.09375 6.597656 L 10.105469 6.578125 C 10.152344 6.5 10.175781 6.40625 10.175781 6.316406 C 10.175781 6.300781 10.171875 6.257812 10.171875 6.253906 C 10.167969 6.238281 10.164062 6.207031 10.164062 6.207031 C 10.128906 6.027344 10 5.875 9.828125 5.804688 C 9.761719 5.777344 9.6875 5.761719 9.609375 5.761719 C 9.328125 5.761719 9.09375 5.960938 9.050781 6.230469 L 9.046875 6.253906 L 9.3125 6.34375 L 4.800781 21.417969 L 5.328125 21.578125 L 5.902344 19.65625 L 30.988281 14.339844 L 9.714844 6.972656 M 9.105469 6.21875 C 9.15625 5.980469 9.363281 5.8125 9.613281 5.8125 C 9.628906 5.8125 9.648438 5.8125 9.664062 5.816406 L 9.6875 5.84375 C 9.8125 6 9.777344 6.183594 9.683594 6.40625 Z M 9.363281 6.363281 L 9.554688 6.421875 L 5.03125 21.429688 L 4.867188 21.382812 Z M 9.671875 7.113281 C 9.929688 8.832031 10.832031 16.15625 5.945312 19.511719 Z M 5.925781 19.59375 C 7.773438 18.296875 9.039062 16.398438 9.605469 13.648438 C 10.1875 10.828125 9.878906 8.109375 9.710938 7.023438 L 30.796875 14.324219 Z M 5.925781 19.59375 "/>
<path style=" stroke:none;fill-rule:nonzero;fill:rgb(0%,0%,0%);fill-opacity:1;" d="M 17.683594 11.898438 L 17.917969 15.761719 L 19.269531 15.761719 L 21.460938 11.898438 L 19.582031 11.898438 L 19.320312 12.804688 L 19.839844 12.804688 L 18.878906 14.625 L 18.824219 14.625 L 18.761719 11.898438 Z M 17.683594 11.898438 "/>
<path style=" stroke:none;fill-rule:nonzero;fill:rgb(0%,0%,0%);fill-opacity:1;" d="M 14.664062 13.167969 C 14.664062 13.628906 14.855469 13.933594 15.402344 14.136719 L 15.699219 14.246094 C 15.90625 14.324219 16.054688 14.402344 16.054688 14.613281 C 16.054688 14.914062 15.738281 14.980469 15.410156 14.980469 C 14.9375 14.980469 14.558594 14.847656 14.273438 14.703125 L 14.015625 15.578125 C 14.324219 15.753906 14.832031 15.847656 15.324219 15.847656 C 16.34375 15.847656 17.105469 15.4375 17.105469 14.496094 C 17.105469 14.042969 16.933594 13.730469 16.367188 13.519531 L 16.070312 13.410156 C 15.878906 13.335938 15.714844 13.261719 15.714844 13.042969 C 15.714844 12.746094 16.023438 12.675781 16.332031 12.675781 C 16.714844 12.675781 17.019531 12.785156 17.246094 12.90625 L 17.503906 12.035156 C 17.222656 11.925781 16.882812 11.808594 16.386719 11.808594 C 15.464844 11.808594 14.664062 12.207031 14.664062 13.167969 Z M 14.664062 13.167969 "/>
<path style=" stroke:none;fill-rule:nonzero;fill:rgb(0%,0%,0%);fill-opacity:1;" d="M 12.878906 11.898438 L 11.261719 11.898438 L 11 12.804688 L 11.5 12.804688 L 10.644531 15.757812 L 11.675781 15.757812 L 11.988281 14.679688 L 12.296875 14.679688 C 13.410156 14.679688 14.398438 14.09375 14.398438 13.050781 C 14.398438 12.164062 13.675781 11.898438 12.878906 11.898438 Z M 12.421875 13.808594 L 12.242188 13.808594 L 12.542969 12.769531 L 12.722656 12.769531 C 13.152344 12.769531 13.34375 12.878906 13.34375 13.167969 C 13.34375 13.601562 12.914062 13.808594 12.421875 13.808594 Z M 12.421875 13.808594 "/>
<path style=" stroke:none;fill-rule:nonzero;fill:rgb(73.333333%,59.215686%,32.54902%);fill-opacity:1;" d="M 14.230469 1.632812 L 13.851562 0.480469 L 13.46875 1.632812 L 12.238281 1.632812 L 13.234375 2.34375 L 12.855469 3.496094 L 13.847656 2.785156 L 14.84375 3.496094 L 14.464844 2.34375 L 15.457031 1.632812 Z M 19.816406 1.632812 L 18.585938 1.632812 L 18.207031 0.480469 L 17.828125 1.632812 L 16.597656 1.632812 L 17.589844 2.34375 L 17.210938 3.496094 L 18.207031 2.785156 L 19.199219 3.496094 L 18.820312 2.34375 Z M 19.816406 1.632812 "/>
</g>
</svg>
