<?xml version="1.0" encoding="UTF-8"?>
<svg xmlns="http://www.w3.org/2000/svg" xmlns:xlink="http://www.w3.org/1999/xlink" width="32px" height="32px" viewBox="0 0 32 32" version="1.1">
<g id="surface1">
<path style=" stroke:none;fill-rule:nonzero;fill:rgb(100%,100%,100%);fill-opacity:1;" d="M 16.039062 31.625 C 24.703125 31.625 31.726562 24.644531 31.726562 16.039062 C 31.726562 7.433594 24.703125 0.453125 16.039062 0.453125 C 7.375 0.453125 0.351562 7.433594 0.351562 16.039062 C 0.351562 24.644531 7.375 31.625 16.039062 31.625 Z M 16.039062 31.625 "/>
<path style=" stroke:none;fill-rule:nonzero;fill:rgb(82.352941%,7.058824%,18.039216%);fill-opacity:1;" d="M 29.027344 18.648438 C 29.113281 18.21875 29.179688 17.785156 29.222656 17.351562 C 29.265625 16.925781 29.285156 16.488281 29.285156 16.039062 C 29.285156 12.40625 27.804688 9.113281 25.40625 6.734375 C 23.007812 4.351562 19.699219 2.878906 16.039062 2.878906 C 15.988281 2.878906 15.933594 2.878906 15.878906 2.878906 L 15.871094 2.367188 C 15.925781 2.367188 15.984375 2.363281 16.039062 2.363281 C 19.839844 2.363281 23.28125 3.894531 25.773438 6.371094 C 28.261719 8.84375 29.804688 12.261719 29.804688 16.039062 C 29.804688 16.496094 29.78125 16.949219 29.734375 17.402344 C 29.6875 17.863281 29.621094 18.3125 29.53125 18.75 Z M 29.027344 18.648438 "/>
<path style=" stroke:none;fill-rule:nonzero;fill:rgb(82.352941%,7.058824%,18.039216%);fill-opacity:1;" d="M 28.554688 18.554688 C 28.636719 18.144531 28.699219 17.726562 28.742188 17.304688 C 28.785156 16.890625 28.804688 16.46875 28.804688 16.039062 C 28.804688 12.539062 27.375 9.367188 25.066406 7.070312 C 22.757812 4.777344 19.566406 3.355469 16.039062 3.355469 C 16.011719 3.355469 15.984375 3.355469 15.953125 3.355469 C 15.925781 3.355469 15.898438 3.355469 15.867188 3.359375 L 15.867188 3.230469 C 15.894531 3.230469 15.925781 3.230469 15.953125 3.230469 C 15.980469 3.230469 16.011719 3.230469 16.039062 3.230469 C 19.601562 3.230469 22.824219 4.664062 25.15625 6.980469 C 27.492188 9.300781 28.933594 12.503906 28.933594 16.039062 C 28.933594 16.46875 28.914062 16.898438 28.871094 17.320312 C 28.828125 17.746094 28.765625 18.167969 28.679688 18.582031 Z M 28.554688 18.554688 "/>
<path style=" stroke:none;fill-rule:nonzero;fill:rgb(82.352941%,7.058824%,18.039216%);fill-opacity:1;" d="M 29.875 18.828125 C 29.96875 18.375 30.039062 17.910156 30.085938 17.445312 C 30.132812 16.984375 30.15625 16.515625 30.15625 16.039062 C 30.15625 12.167969 28.574219 8.660156 26.019531 6.121094 C 23.464844 3.585938 19.9375 2.015625 16.039062 2.015625 C 16.011719 2.015625 15.984375 2.015625 15.953125 2.015625 C 15.925781 2.015625 15.898438 2.015625 15.867188 2.015625 L 15.867188 1.886719 C 15.894531 1.886719 15.925781 1.886719 15.953125 1.886719 C 15.980469 1.886719 16.011719 1.886719 16.039062 1.886719 C 19.972656 1.886719 23.535156 3.472656 26.113281 6.03125 C 28.691406 8.59375 30.285156 12.132812 30.285156 16.039062 C 30.285156 16.515625 30.261719 16.988281 30.214844 17.457031 C 30.167969 17.929688 30.09375 18.398438 30.003906 18.855469 Z M 29.875 18.828125 "/>
<path style=" stroke:none;fill-rule:nonzero;fill:rgb(82.352941%,7.058824%,18.039216%);fill-opacity:1;" d="M 2.8125 15.296875 C 2.804688 15.425781 2.800781 15.550781 2.796875 15.667969 C 2.792969 15.792969 2.792969 15.917969 2.792969 16.039062 C 2.792969 19.671875 4.273438 22.964844 6.671875 25.34375 C 9.070312 27.726562 12.382812 29.199219 16.039062 29.199219 C 16.359375 29.199219 16.6875 29.1875 17.011719 29.164062 C 17.347656 29.140625 17.667969 29.105469 17.976562 29.0625 L 18.050781 29.566406 C 17.710938 29.617188 17.378906 29.652344 17.050781 29.675781 C 16.722656 29.703125 16.386719 29.714844 16.039062 29.714844 C 12.238281 29.714844 8.796875 28.183594 6.308594 25.707031 C 3.816406 23.234375 2.277344 19.816406 2.277344 16.039062 C 2.277344 15.90625 2.277344 15.78125 2.28125 15.652344 C 2.285156 15.519531 2.289062 15.390625 2.296875 15.269531 Z M 2.8125 15.296875 "/>
<path style=" stroke:none;fill-rule:nonzero;fill:rgb(82.352941%,7.058824%,18.039216%);fill-opacity:1;" d="M 3.292969 15.351562 C 3.285156 15.46875 3.28125 15.582031 3.277344 15.695312 C 3.277344 15.808594 3.273438 15.925781 3.273438 16.039062 C 3.273438 19.542969 4.703125 22.710938 7.011719 25.007812 C 9.324219 27.300781 12.515625 28.722656 16.039062 28.722656 C 16.355469 28.722656 16.671875 28.710938 16.984375 28.6875 C 17.304688 28.664062 17.617188 28.628906 17.925781 28.585938 L 17.941406 28.710938 C 17.628906 28.757812 17.3125 28.792969 16.996094 28.816406 C 16.679688 28.839844 16.363281 28.851562 16.039062 28.851562 C 12.480469 28.851562 9.253906 27.414062 6.921875 25.097656 C 4.589844 22.78125 3.144531 19.578125 3.144531 16.039062 C 3.144531 15.921875 3.144531 15.804688 3.148438 15.691406 C 3.152344 15.574219 3.15625 15.457031 3.164062 15.34375 Z M 3.292969 15.351562 "/>
<path style=" stroke:none;fill-rule:nonzero;fill:rgb(82.352941%,7.058824%,18.039216%);fill-opacity:1;" d="M 1.945312 15.222656 C 1.9375 15.359375 1.933594 15.496094 1.929688 15.632812 C 1.925781 15.765625 1.921875 15.902344 1.921875 16.039062 C 1.921875 19.910156 3.503906 23.417969 6.058594 25.957031 C 8.613281 28.492188 12.140625 30.0625 16.039062 30.0625 C 16.382812 30.0625 16.726562 30.050781 17.066406 30.027344 C 17.414062 30.003906 17.75 29.964844 18.085938 29.917969 L 18.101562 30.042969 C 17.761719 30.09375 17.417969 30.128906 17.074219 30.15625 C 16.734375 30.179688 16.390625 30.191406 16.039062 30.191406 C 12.105469 30.191406 8.542969 28.609375 5.964844 26.046875 C 3.390625 23.484375 1.792969 19.949219 1.792969 16.039062 C 1.792969 15.902344 1.796875 15.765625 1.800781 15.628906 C 1.804688 15.488281 1.808594 15.351562 1.816406 15.214844 Z M 1.945312 15.222656 "/>
<path style=" stroke:none;fill-rule:evenodd;fill:rgb(0%,0%,0%);fill-opacity:1;" d="M 19.6875 29.117188 L 19.351562 29.203125 L 19.375 28.636719 Z M 19.441406 28.273438 L 19.125 28.355469 L 19.046875 29.824219 L 19.332031 29.746094 L 19.34375 29.457031 L 19.832031 29.332031 L 19.992188 29.574219 L 20.285156 29.5 Z M 19.441406 28.273438 "/>
<path style=" stroke:none;fill-rule:evenodd;fill:rgb(0%,0%,0%);fill-opacity:1;" d="M 21.300781 27.613281 L 21.527344 27.519531 L 22.070312 28.808594 L 21.808594 28.917969 L 21.472656 28.109375 L 21.359375 28.632812 L 21.320312 28.648438 L 20.871094 28.359375 L 21.210938 29.164062 L 20.949219 29.273438 L 20.410156 27.980469 L 20.632812 27.886719 L 21.167969 28.230469 Z M 21.300781 27.613281 "/>
<path style=" stroke:none;fill-rule:evenodd;fill:rgb(0%,0%,0%);fill-opacity:1;" d="M 22.929688 27.167969 C 22.742188 27.167969 22.640625 27.1875 22.554688 27.234375 C 22.46875 27.285156 22.433594 27.355469 22.46875 27.414062 C 22.578125 27.597656 23.042969 27.261719 23.289062 27.6875 C 23.421875 27.917969 23.34375 28.144531 23.125 28.269531 C 22.957031 28.367188 22.839844 28.359375 22.707031 28.351562 L 22.554688 28.089844 C 22.761719 28.125 22.871094 28.117188 22.980469 28.058594 C 23.070312 28.003906 23.097656 27.933594 23.058594 27.863281 C 22.941406 27.664062 22.488281 28.019531 22.234375 27.585938 C 22.113281 27.375 22.179688 27.152344 22.40625 27.023438 C 22.515625 26.960938 22.628906 26.933594 22.789062 26.929688 Z M 22.929688 27.167969 "/>
<path style=" stroke:none;fill-rule:evenodd;fill:rgb(0%,0%,0%);fill-opacity:1;" d="M 24.246094 26.113281 L 23.921875 26.355469 L 24.605469 27.273438 L 24.382812 27.4375 L 23.695312 26.523438 L 23.367188 26.765625 L 23.214844 26.558594 L 24.09375 25.910156 Z M 24.246094 26.113281 "/>
<path style=" stroke:none;fill-rule:evenodd;fill:rgb(0%,0%,0%);fill-opacity:1;" d="M 26.089844 25.992188 L 25.488281 26.558594 L 24.519531 25.542969 L 25.113281 24.980469 L 25.292969 25.167969 L 24.902344 25.535156 L 25.105469 25.75 L 25.476562 25.398438 L 25.65625 25.585938 L 25.28125 25.933594 L 25.515625 26.179688 L 25.914062 25.804688 Z M 26.089844 25.992188 "/>
<path style=" stroke:none;fill-rule:evenodd;fill:rgb(0%,0%,0%);fill-opacity:1;" d="M 25.917969 24.488281 L 26.007812 24.378906 C 26.078125 24.296875 26.152344 24.289062 26.234375 24.359375 C 26.324219 24.433594 26.308594 24.519531 26.257812 24.578125 L 26.164062 24.691406 Z M 25.539062 24.535156 L 26.617188 25.433594 L 26.800781 25.21875 L 26.359375 24.855469 L 26.414062 24.792969 C 26.511719 24.679688 26.746094 24.816406 27.054688 24.917969 L 27.253906 24.683594 C 26.835938 24.539062 26.679688 24.453125 26.550781 24.496094 C 26.578125 24.351562 26.527344 24.226562 26.410156 24.128906 C 26.25 23.996094 26.011719 23.976562 25.863281 24.152344 Z M 25.539062 24.535156 "/>
<path style=" stroke:none;fill-rule:evenodd;fill:rgb(0%,0%,0%);fill-opacity:1;" d="M 26.851562 23.273438 L 26.949219 23.125 C 27.09375 22.902344 27.320312 22.925781 27.523438 23.054688 C 27.695312 23.167969 27.851562 23.367188 27.699219 23.601562 L 27.601562 23.753906 Z M 26.480469 23.371094 L 27.664062 24.128906 L 27.917969 23.738281 C 28.160156 23.363281 28.023438 23.03125 27.679688 22.816406 C 27.355469 22.605469 26.972656 22.609375 26.75 22.953125 Z M 26.480469 23.371094 "/>
<path style=" stroke:none;fill-rule:evenodd;fill:rgb(0%,0%,0%);fill-opacity:1;" d="M 28.421875 21.765625 L 28.273438 22.074219 L 27.851562 21.691406 Z M 27.617188 21.40625 L 27.476562 21.695312 L 28.546875 22.710938 L 28.675781 22.445312 L 28.460938 22.25 L 28.679688 21.796875 L 28.972656 21.835938 L 29.101562 21.5625 Z M 27.617188 21.40625 "/>
<path style=" stroke:none;fill-rule:evenodd;fill:rgb(0%,0%,0%);fill-opacity:1;" d="M 28.316406 19.566406 L 28.394531 19.335938 L 29.734375 19.765625 L 29.648438 20.03125 L 28.808594 19.761719 L 29.136719 20.183594 L 29.125 20.226562 L 28.609375 20.378906 L 29.449219 20.644531 L 29.363281 20.910156 L 28.023438 20.484375 L 28.097656 20.25 L 28.703125 20.070312 Z M 28.316406 19.566406 "/>
<path style=" stroke:none;fill-rule:evenodd;fill:rgb(0%,0%,0%);fill-opacity:1;" d="M 2.25 12.222656 L 3.75 12.09375 L 3.460938 13.140625 Z M 4.621094 14.035156 L 4.003906 13.566406 L 4.425781 12.035156 L 5.1875 11.96875 L 5.445312 11.027344 L 1.492188 11.441406 L 1.210938 12.46875 L 4.359375 14.984375 Z M 4.621094 14.035156 "/>
<path style=" stroke:none;fill-rule:evenodd;fill:rgb(0%,0%,0%);fill-opacity:1;" d="M 6.296875 10.445312 C 6.421875 10.257812 6.472656 10.105469 6.445312 9.992188 C 6.417969 9.878906 6.28125 9.738281 6.035156 9.566406 L 3.320312 7.660156 L 3.859375 6.90625 L 6.597656 8.832031 C 7.023438 9.128906 7.269531 9.410156 7.339844 9.671875 C 7.410156 9.933594 7.324219 10.242188 7.082031 10.601562 Z M 6.296875 10.445312 "/>
<path style=" stroke:none;fill-rule:evenodd;fill:rgb(0%,0%,0%);fill-opacity:1;" d="M 7.585938 4.554688 L 8.839844 5.378906 L 7.964844 6.023438 Z M 8.316406 7.4375 L 8.125 6.6875 L 9.40625 5.746094 L 10.046875 6.167969 L 10.835938 5.589844 L 7.476562 3.480469 L 6.621094 4.113281 L 7.519531 8.023438 Z M 8.316406 7.4375 "/>
<path style=" stroke:none;fill-rule:evenodd;fill:rgb(0%,0%,0%);fill-opacity:1;" d="M 11.398438 5.308594 L 12.5 3.109375 L 10.675781 1.699219 L 11.8125 1.449219 L 12.914062 2.308594 L 13.542969 1.0625 L 14.671875 0.808594 L 13.617188 2.851562 L 15.617188 4.371094 L 14.453125 4.628906 L 13.222656 3.671875 L 12.523438 5.058594 Z M 11.398438 5.308594 "/>
<path style=" stroke:none;fill-rule:nonzero;fill:rgb(0%,0%,0%);fill-opacity:1;" d="M 6.542969 21.792969 C 6.546875 21.792969 8.144531 21.414062 11.703125 22.957031 C 11.761719 22.980469 12.398438 23.203125 12.867188 23.269531 C 12.855469 23.238281 12.820312 23.183594 12.71875 23.078125 C 12.625 22.988281 12.535156 22.898438 12.71875 22.71875 C 12.898438 22.535156 12.992188 22.625 13.082031 22.71875 C 13.824219 23.457031 13.070312 23.773438 13.066406 23.773438 L 12.941406 23.796875 C 12.398438 23.75 11.523438 23.4375 11.519531 23.4375 L 11.507812 23.433594 C 8.097656 21.949219 6.65625 22.292969 6.652344 22.292969 C 6.527344 22.320312 6.398438 22.347656 6.34375 22.097656 C 6.289062 21.847656 6.417969 21.820312 6.542969 21.792969 Z M 14.15625 16.210938 C 14.042969 16.308594 13.753906 16.585938 13.714844 16.886719 L 13.695312 17.015625 L 13.582031 17.078125 C 13.578125 17.078125 13.027344 17.375 12.339844 17.488281 C 12.210938 17.507812 12.085938 17.53125 12.042969 17.277344 C 12 17.027344 12.128906 17.003906 12.253906 16.984375 C 12.691406 16.910156 13.0625 16.757812 13.234375 16.675781 C 13.332031 16.324219 13.605469 16.027344 13.761719 15.878906 L 13.527344 14.390625 L 13.933594 14.144531 L 15.335938 15.160156 C 15.441406 15.214844 15.476562 15.269531 15.484375 15.324219 C 15.492188 15.371094 15.476562 15.429688 15.421875 15.511719 C 15.074219 16.179688 15.265625 16.289062 15.265625 16.289062 L 15.300781 16.3125 C 15.648438 16.605469 15.753906 17.09375 15.753906 17.097656 L 15.753906 17.105469 C 15.988281 18.425781 15.574219 18.917969 15.46875 19.019531 C 15.261719 19.277344 14.933594 20.042969 14.867188 20.191406 C 14.703125 21.023438 13.902344 21.046875 13.730469 21.039062 C 13.023438 21.179688 12.769531 21.324219 12.769531 21.324219 L 12.746094 21.339844 C 12.03125 21.652344 11.488281 21.460938 11.335938 21.390625 C 10.71875 21.261719 10.515625 20.972656 10.515625 20.972656 L 10.484375 20.914062 C 10.269531 20.324219 9.9375 20.214844 9.9375 20.214844 L 9.851562 20.167969 C 8.910156 19.394531 9.570312 18.519531 9.574219 18.515625 L 9.597656 18.488281 C 9.652344 18.433594 9.785156 18.242188 9.910156 18.058594 C 9.835938 18.039062 9.78125 17.980469 9.78125 17.8125 C 9.78125 17.558594 9.910156 17.558594 10.039062 17.558594 L 10.265625 17.558594 C 10.308594 17.527344 10.367188 17.519531 10.449219 17.558594 L 10.792969 17.558594 C 10.921875 17.558594 11.050781 17.558594 11.050781 17.8125 C 11.050781 18.070312 10.921875 18.070312 10.792969 18.070312 L 10.519531 18.070312 C 10.382812 18.277344 10.097656 18.703125 9.976562 18.832031 C 9.925781 18.914062 9.679688 19.339844 10.15625 19.753906 C 10.304688 19.824219 10.707031 20.0625 10.953125 20.695312 C 10.992188 20.730469 11.121094 20.828125 11.464844 20.894531 L 11.542969 20.921875 C 11.542969 20.925781 11.921875 21.136719 12.535156 20.871094 C 12.621094 20.828125 12.96875 20.667969 13.667969 20.53125 L 13.734375 20.527344 C 13.734375 20.527344 14.277344 20.570312 14.367188 20.078125 L 14.382812 20.023438 C 14.382812 20.019531 14.808594 19 15.089844 18.671875 L 15.125 18.636719 C 15.125 18.636719 15.457031 18.390625 15.25 17.199219 C 15.238281 17.148438 15.164062 16.867188 14.96875 16.703125 L 14.972656 16.707031 C 14.859375 16.617188 14.523438 16.269531 14.875 15.457031 L 14.132812 14.921875 L 14.285156 15.878906 C 14.339844 15.96875 14.332031 16.027344 14.300781 16.078125 C 14.289062 16.132812 14.253906 16.183594 14.15625 16.210938 Z M 20.75 25.667969 C 20.75 25.6875 20.757812 25.863281 20.769531 25.847656 L 20.777344 25.84375 C 20.777344 25.84375 21.191406 25.503906 21.355469 23.960938 L 21.359375 23.929688 C 21.359375 23.925781 21.710938 22.375 22.921875 23.863281 C 23 23.941406 23.699219 24.636719 23.738281 24.042969 C 23.65625 23.796875 23.265625 22.640625 23.1875 22.414062 C 23.105469 22.277344 22.625 21.34375 24.121094 21.316406 L 24.140625 21.316406 C 24.144531 21.316406 25.078125 21.363281 26.0625 21.71875 C 26.183594 21.761719 26.308594 21.804688 26.21875 22.046875 C 26.132812 22.285156 26.011719 22.242188 25.890625 22.199219 C 25.027344 21.886719 24.199219 21.835938 24.117188 21.832031 C 23.429688 21.847656 23.636719 22.167969 23.636719 22.167969 L 23.65625 22.210938 C 23.730469 22.402344 24.238281 23.925781 24.242188 23.929688 L 24.257812 24.011719 C 24.222656 25.964844 22.546875 24.214844 22.542969 24.207031 L 22.527344 24.191406 C 22.027344 23.574219 21.886719 23.960938 21.863281 24.035156 C 21.679688 25.765625 21.113281 26.234375 21.109375 26.234375 L 21.117188 26.230469 C 20.421875 26.847656 20.273438 26.089844 20.242188 25.792969 C 20.234375 25.761719 20.234375 25.722656 20.234375 25.683594 C 20.234375 25.65625 20.230469 25.628906 20.234375 25.601562 L 20.234375 24.265625 C 20.234375 23.195312 19.820312 23.527344 19.753906 23.585938 C 18.289062 25.191406 17.46875 27.753906 17.46875 27.761719 C 17.429688 27.886719 17.390625 28.007812 17.144531 27.929688 C 16.898438 27.851562 16.9375 27.730469 16.976562 27.605469 C 16.980469 27.597656 17.832031 24.925781 19.375 23.238281 L 19.386719 23.226562 C 19.390625 23.222656 20.730469 21.894531 20.75 24.222656 C 20.75 24.238281 20.75 24.25 20.75 24.265625 Z M 20.75 25.667969 Z M 19.75 23.589844 C 19.746094 23.59375 19.746094 23.59375 19.746094 23.59375 Z M 21.863281 24.042969 C 21.863281 24.046875 21.863281 24.046875 21.863281 24.046875 Z M 11.457031 13.046875 C 11.457031 13.046875 11.140625 13.398438 11.296875 13.410156 C 11.453125 13.394531 12.382812 13.335938 12.382812 14.09375 L 12.382812 14.074219 C 12.382812 14.078125 12.484375 15.03125 11.4375 14.769531 L 11.351562 14.730469 C 11.351562 14.730469 11.277344 14.679688 11.304688 15.238281 C 11.308594 15.265625 11.308594 15.292969 11.308594 15.320312 C 11.308594 15.355469 11.3125 15.394531 11.308594 15.425781 L 11.308594 16.3125 C 11.503906 16.570312 12.011719 17.351562 10.851562 17.34375 C 10.8125 17.351562 10.773438 17.347656 10.734375 17.34375 C 10.6875 17.339844 10.644531 17.339844 10.601562 17.324219 L 10.089844 17.253906 C 9.960938 17.238281 9.835938 17.21875 9.871094 16.964844 C 9.902344 16.710938 10.03125 16.730469 10.160156 16.746094 L 10.761719 16.828125 C 10.988281 16.839844 10.953125 16.71875 10.90625 16.640625 C 10.828125 16.609375 10.804688 16.558594 10.796875 16.496094 C 10.761719 16.441406 10.746094 16.382812 10.792969 16.308594 L 10.792969 15.347656 C 10.710938 13.875 11.40625 14.171875 11.601562 14.28125 C 11.890625 14.335938 11.867188 14.117188 11.867188 14.117188 L 11.867188 14.09375 C 11.867188 13.855469 11.339844 13.921875 11.339844 13.921875 L 11.308594 13.921875 C 9.980469 13.921875 11.070312 12.710938 11.070312 12.707031 C 11.15625 12.613281 11.242188 12.515625 11.4375 12.683594 C 11.628906 12.855469 11.542969 12.949219 11.457031 13.046875 Z M 9.957031 12.816406 C 9.957031 12.816406 9.523438 12.363281 9.464844 12.242188 C 9.445312 12.203125 9.429688 12.167969 9.417969 12.140625 C 9.292969 11.957031 8.824219 11.152344 10.34375 11.296875 L 10.390625 11.304688 C 10.402344 11.308594 14.367188 12.433594 20.542969 18.507812 L 20.542969 18.503906 C 20.542969 18.507812 21.441406 19.363281 20.21875 19.726562 L 20.199219 19.730469 C 20.199219 19.730469 19.683594 19.828125 19.730469 20.363281 C 19.863281 20.554688 20.109375 21.074219 19.09375 21.332031 L 19.070312 21.335938 C 19.070312 21.335938 18.414062 21.4375 18.128906 21.570312 L 18.0625 21.589844 C 18.0625 21.589844 17.308594 21.738281 17.394531 20.445312 L 17.40625 20.382812 C 17.410156 20.382812 17.582031 19.867188 17.320312 19.527344 C 17.242188 19.429688 17.125 19.402344 17.019531 19.382812 C 16.667969 19.308594 16.382812 19.246094 16.449219 18.496094 C 16.449219 18.472656 16.453125 18.183594 16.554688 17.929688 C 16.601562 17.8125 16.648438 17.695312 16.886719 17.789062 C 17.128906 17.882812 17.078125 18.003906 17.03125 18.121094 C 16.964844 18.289062 16.964844 18.496094 16.964844 18.496094 L 16.960938 18.519531 C 16.933594 18.839844 17.019531 18.859375 17.125 18.882812 C 17.320312 18.921875 17.535156 18.96875 17.726562 19.21875 C 18.097656 19.699219 17.953125 20.339844 17.910156 20.503906 C 17.878906 20.988281 17.9375 21.070312 17.964844 21.082031 C 18.304688 20.945312 18.875 20.847656 18.972656 20.832031 C 19.378906 20.726562 19.292969 20.636719 19.292969 20.636719 L 19.226562 20.5 C 19.070312 19.492188 19.96875 19.257812 20.082031 19.230469 C 20.441406 19.121094 20.183594 18.875 20.183594 18.871094 L 20.179688 18.871094 C 14.351562 13.136719 10.578125 11.898438 10.265625 11.804688 C 9.769531 11.761719 9.855469 11.867188 9.855469 11.867188 L 9.910156 12.023438 C 9.910156 12.023438 9.910156 11.984375 9.925781 12.015625 C 9.949219 12.0625 10.332031 12.464844 10.332031 12.464844 C 10.421875 12.558594 10.511719 12.652344 10.324219 12.828125 C 10.136719 13.003906 10.046875 12.910156 9.957031 12.816406 Z M 9.394531 12.023438 Z M 16.136719 20.441406 C 16.136719 20.445312 15.828125 21.609375 15.53125 22.109375 L 15.515625 22.132812 C 15.515625 22.132812 15 22.824219 15.59375 22.503906 L 15.625 22.488281 C 15.628906 22.488281 16.46875 22.15625 17.019531 22.089844 C 17.148438 22.074219 17.273438 22.058594 17.308594 22.3125 C 17.335938 22.566406 17.210938 22.582031 17.082031 22.597656 C 16.632812 22.652344 15.917969 22.925781 15.820312 22.960938 C 13.316406 24.3125 14.953125 22.027344 15.089844 21.839844 C 15.351562 21.394531 15.640625 20.316406 15.640625 20.3125 C 15.671875 20.1875 15.707031 20.0625 15.957031 20.128906 C 16.203125 20.195312 16.171875 20.316406 16.136719 20.441406 Z M 22.886719 6.945312 C 23.484375 7.109375 25.949219 8 25.949219 11.574219 L 25.949219 11.570312 C 25.949219 11.585938 26.085938 16.972656 21.011719 16.972656 L 21.03125 16.972656 C 21.027344 16.976562 18.703125 17.183594 17.550781 14.511719 L 17.542969 14.488281 C 17.539062 14.484375 16.953125 12.632812 15.96875 12.648438 L 15.910156 12.640625 C 15.910156 12.640625 15.625 12.570312 15.207031 12.910156 C 15.105469 12.988281 15.007812 13.070312 14.84375 12.871094 C 14.683594 12.675781 14.78125 12.59375 14.882812 12.511719 C 15.40625 12.089844 15.859375 12.117188 15.984375 12.132812 C 17.265625 12.140625 17.953125 14.097656 18.027344 14.3125 C 19.03125 16.636719 20.988281 16.460938 20.996094 16.460938 L 21.015625 16.460938 C 25.554688 16.460938 25.433594 11.589844 25.433594 11.574219 C 25.433594 8.6875 23.691406 7.765625 22.964844 7.507812 L 22.964844 9.054688 C 24.300781 10.023438 24.335938 11.125 24.335938 11.128906 C 24.34375 11.257812 24.347656 11.382812 24.089844 11.398438 C 23.832031 11.410156 23.828125 11.28125 23.820312 11.152344 C 23.820312 11.148438 23.792969 10.265625 22.617188 9.433594 C 22.515625 9.417969 22.476562 9.371094 22.460938 9.3125 C 22.421875 9.265625 22.40625 9.207031 22.449219 9.117188 L 22.449219 7.277344 C 22.441406 7.242188 22.441406 7.199219 22.449219 7.144531 C 22.449219 7.066406 22.457031 6.988281 22.527344 6.945312 C 22.582031 6.886719 22.65625 6.894531 22.730469 6.910156 C 22.804688 6.914062 22.851562 6.925781 22.886719 6.945312 Z M 18.03125 14.328125 C 18.03125 14.332031 18.03125 14.332031 18.03125 14.332031 Z M 10.386719 14.097656 C 10.386719 14.101562 9.644531 15.324219 9.566406 15.515625 L 9.53125 15.578125 C 9.53125 15.578125 9.320312 15.84375 9.589844 15.894531 L 9.660156 15.917969 C 9.660156 15.917969 9.777344 15.976562 9.972656 15.976562 C 10.101562 15.976562 10.230469 15.976562 10.230469 16.230469 C 10.230469 16.488281 10.101562 16.488281 9.972656 16.488281 C 9.730469 16.488281 9.539062 16.421875 9.464844 16.390625 C 8.515625 16.195312 8.996094 15.445312 9.105469 15.289062 C 9.246094 14.984375 9.945312 13.835938 9.945312 13.835938 C 10.011719 13.726562 10.078125 13.613281 10.300781 13.746094 C 10.523438 13.878906 10.457031 13.988281 10.386719 14.097656 Z M 9.429688 16.375 Z M 15.25 17.199219 L 15.25 17.203125 C 15.25 17.203125 15.25 17.203125 15.25 17.199219 Z M 15.003906 16.730469 Z M 11.429688 10.613281 C 11.429688 10.613281 12.339844 10.613281 14.484375 9.226562 L 14.476562 9.230469 C 14.484375 9.226562 17.011719 7.453125 19.027344 7.4375 L 19.035156 7.4375 C 19.039062 7.4375 20.464844 7.472656 21.417969 8.125 C 21.523438 8.199219 21.628906 8.269531 21.484375 8.480469 C 21.335938 8.691406 21.230469 8.617188 21.125 8.546875 C 20.320312 7.996094 19.085938 7.953125 19.023438 7.953125 C 17.167969 7.96875 14.78125 9.644531 14.773438 9.652344 L 14.765625 9.65625 C 12.492188 11.125 11.4375 11.125 11.433594 11.125 C 11.304688 11.125 11.175781 11.128906 11.171875 10.871094 C 11.171875 10.613281 11.300781 10.613281 11.429688 10.613281 Z M 21.523438 21.082031 C 21.523438 21.082031 20.90625 21.128906 20.902344 21.675781 C 20.902344 21.714844 20.941406 22.128906 21.503906 22.128906 L 21.574219 22.140625 C 21.574219 22.140625 21.949219 22.261719 22.207031 21.570312 C 22.253906 21.449219 22.296875 21.328125 22.539062 21.417969 C 22.78125 21.507812 22.734375 21.628906 22.691406 21.75 C 22.320312 22.734375 21.652344 22.675781 21.476562 22.640625 C 20.414062 22.625 20.382812 21.691406 20.382812 21.691406 L 20.382812 21.679688 C 20.382812 20.652344 21.476562 20.570312 21.480469 20.570312 C 21.609375 20.558594 21.738281 20.546875 21.761719 20.804688 C 21.78125 21.058594 21.652344 21.070312 21.523438 21.082031 Z M 11.867188 24.867188 C 11.871094 24.871094 13.417969 25.113281 13.605469 27.171875 C 13.617188 27.296875 13.628906 27.425781 13.375 27.449219 C 13.117188 27.472656 13.105469 27.34375 13.09375 27.214844 C 12.941406 25.554688 11.785156 25.375 11.78125 25.375 C 11.65625 25.351562 11.527344 25.332031 11.570312 25.078125 C 11.613281 24.824219 11.738281 24.847656 11.867188 24.867188 Z M 11.867188 24.867188 "/>
</g>
</svg>
