<?xml version="1.0" encoding="UTF-8"?>
<svg xmlns="http://www.w3.org/2000/svg" xmlns:xlink="http://www.w3.org/1999/xlink" width="32px" height="32px" viewBox="0 0 32 32" version="1.1">
<g id="surface1">
<path style=" stroke:none;fill-rule:nonzero;fill:rgb(100%,100%,100%);fill-opacity:1;" d="M 31.402344 16 C 31.402344 24.507812 24.507812 31.402344 16 31.402344 C 7.492188 31.402344 0.597656 24.507812 0.597656 16 C 0.597656 7.496094 7.492188 0.597656 16 0.597656 C 24.507812 0.597656 31.402344 7.496094 31.402344 16 "/>
<path style=" stroke:none;fill-rule:nonzero;fill:rgb(10.588235%,30.196078%,22.745098%);fill-opacity:1;" d="M 31.949219 14.882812 C 31.800781 12.808594 31.265625 10.820312 30.359375 8.960938 C 29.417969 7.039062 28.113281 5.347656 26.484375 3.933594 C 25.003906 2.644531 23.332031 1.65625 21.503906 0.988281 C 19.742188 0.339844 17.894531 0.0117188 16.007812 0.0117188 L 16.003906 0.0117188 C 11.371094 0.0117188 6.96875 2.019531 3.933594 5.515625 C 2.515625 7.144531 1.464844 9 0.800781 11.035156 C 0.160156 13.003906 -0.09375 15.046875 0.0507812 17.117188 C 0.199219 19.191406 0.730469 21.179688 1.640625 23.039062 C 2.582031 24.960938 3.886719 26.652344 5.515625 28.066406 C 6.996094 29.355469 8.667969 30.34375 10.496094 31.011719 C 12.257812 31.660156 14.109375 31.988281 15.992188 31.988281 C 20.628906 31.988281 25.03125 29.980469 28.066406 26.484375 C 29.484375 24.855469 30.535156 23 31.199219 20.964844 C 31.839844 18.996094 32.09375 16.953125 31.949219 14.882812 M 6.386719 27.066406 C 0.273438 21.753906 -0.375 12.496094 4.933594 6.386719 C 7.832031 3.050781 11.910156 1.339844 16.007812 1.339844 C 19.414062 1.339844 22.839844 2.523438 25.613281 4.933594 C 31.726562 10.246094 32.375 19.503906 27.066406 25.613281 C 24.167969 28.949219 20.089844 30.660156 15.992188 30.660156 C 12.585938 30.660156 9.160156 29.476562 6.386719 27.066406 "/>
<path style=" stroke:none;fill-rule:nonzero;fill:rgb(10.588235%,30.196078%,22.745098%);fill-opacity:1;" d="M 9.808594 9.804688 C 8.164062 11.445312 7.261719 13.628906 7.261719 15.953125 C 7.261719 18.222656 8.121094 20.355469 9.691406 21.984375 L 10.460938 21.210938 C 9.175781 19.851562 8.386719 18.019531 8.386719 16 C 8.386719 11.808594 11.785156 8.410156 15.976562 8.410156 C 17.976562 8.410156 19.796875 9.183594 21.152344 10.445312 L 21.949219 9.644531 C 20.324219 8.101562 18.207031 7.253906 15.960938 7.253906 C 13.636719 7.253906 11.449219 8.160156 9.808594 9.804688 "/>
<path style=" stroke:none;fill-rule:nonzero;fill:rgb(56.078431%,17.647059%,11.764706%);fill-opacity:1;" d="M 23.570312 16 C 23.570312 20.191406 20.171875 23.589844 15.976562 23.589844 C 13.992188 23.589844 12.183594 22.828125 10.832031 21.578125 L 10.0625 22.351562 C 11.675781 23.839844 13.753906 24.652344 15.960938 24.652344 C 18.28125 24.652344 20.464844 23.75 22.109375 22.105469 C 23.753906 20.460938 24.65625 18.277344 24.65625 15.953125 C 24.65625 13.730469 23.828125 11.632812 22.316406 10.015625 L 21.523438 10.816406 C 22.792969 12.171875 23.570312 13.996094 23.570312 16 "/>
<path style=" stroke:none;fill-rule:nonzero;fill:rgb(10.588235%,30.196078%,22.745098%);fill-opacity:1;" d="M 2.714844 15.726562 C 2.714844 15.726562 3.449219 15.59375 3.632812 17.121094 C 3.632812 17.121094 3.773438 18.9375 4.609375 20.828125 C 4.609375 20.828125 3.511719 20.636719 3.246094 19.632812 C 3.246094 19.632812 2.632812 18.0625 2.714844 15.726562 "/>
<path style=" stroke:none;fill-rule:nonzero;fill:rgb(10.588235%,30.196078%,22.745098%);fill-opacity:1;" d="M 4.402344 11.984375 C 4.402344 11.984375 3.675781 11.238281 5.144531 10.445312 C 5.144531 10.445312 5.570312 12.054688 4.402344 11.984375 "/>
<path style=" stroke:none;fill-rule:nonzero;fill:rgb(10.588235%,30.196078%,22.745098%);fill-opacity:1;" d="M 5.804688 20.578125 C 5.804688 20.578125 6.625 22.332031 7.601562 23.304688 C 7.601562 23.304688 8.5 24.050781 7.933594 24.9375 C 7.933594 24.9375 6.332031 23.621094 5.492188 22.003906 C 4.996094 21.046875 5.804688 20.578125 5.804688 20.578125 "/>
<path style=" stroke:none;fill-rule:nonzero;fill:rgb(10.588235%,30.196078%,22.745098%);fill-opacity:1;" d="M 5.214844 22.167969 C 5.214844 22.167969 6.105469 23.757812 7.65625 25.125 C 7.65625 25.125 6.578125 25.410156 5.914062 24.609375 C 5.914062 24.609375 4.703125 23.4375 3.800781 21.285156 C 3.800781 21.285156 4.410156 20.855469 5.214844 22.167969 "/>
<path style=" stroke:none;fill-rule:nonzero;fill:rgb(10.588235%,30.196078%,22.745098%);fill-opacity:1;" d="M 4.941406 20.773438 C 4.941406 20.773438 4.035156 18.910156 3.953125 17.089844 C 3.902344 16.015625 4.832031 15.921875 4.832031 15.921875 C 4.832031 15.921875 4.84375 17.863281 5.320312 19.15625 C 5.320312 19.15625 5.824219 20.207031 4.941406 20.773438 "/>
<path style=" stroke:none;fill-rule:nonzero;fill:rgb(10.588235%,30.196078%,22.745098%);fill-opacity:1;" d="M 3.625 11.183594 C 3.625 11.183594 4.472656 11.402344 3.980469 12.859375 C 3.980469 12.859375 3.695312 13.667969 3.542969 15.710938 C 3.542969 15.710938 2.632812 15.0625 2.824219 14.042969 C 2.824219 14.042969 2.871094 13.277344 3.625 11.183594 "/>
<path style=" stroke:none;fill-rule:nonzero;fill:rgb(10.588235%,30.196078%,22.745098%);fill-opacity:1;" d="M 3.863281 15.804688 C 3.863281 15.804688 3.722656 14.679688 4.152344 12.949219 C 4.414062 11.902344 5.449219 12.273438 5.449219 12.273438 C 5.449219 12.273438 5.03125 13.136719 4.90625 14.507812 C 4.90625 14.507812 4.90625 15.671875 3.863281 15.804688 "/>
<path style=" stroke:none;fill-rule:nonzero;fill:rgb(10.588235%,30.196078%,22.745098%);fill-opacity:1;" d="M 29.25 15.726562 C 29.25 15.726562 28.511719 15.59375 28.328125 17.121094 C 28.328125 17.121094 28.1875 18.9375 27.351562 20.828125 C 27.351562 20.828125 28.453125 20.636719 28.71875 19.632812 C 28.71875 19.632812 29.328125 18.0625 29.25 15.726562 "/>
<path style=" stroke:none;fill-rule:nonzero;fill:rgb(10.588235%,30.196078%,22.745098%);fill-opacity:1;" d="M 27.558594 11.984375 C 27.558594 11.984375 28.289062 11.238281 26.820312 10.445312 C 26.820312 10.445312 26.390625 12.054688 27.558594 11.984375 "/>
<path style=" stroke:none;fill-rule:nonzero;fill:rgb(10.588235%,30.196078%,22.745098%);fill-opacity:1;" d="M 26.160156 20.578125 C 26.160156 20.578125 25.335938 22.332031 24.359375 23.304688 C 24.359375 23.304688 23.464844 24.050781 24.027344 24.9375 C 24.027344 24.9375 25.628906 23.621094 26.46875 22.003906 C 26.964844 21.046875 26.160156 20.578125 26.160156 20.578125 "/>
<path style=" stroke:none;fill-rule:nonzero;fill:rgb(10.588235%,30.196078%,22.745098%);fill-opacity:1;" d="M 26.746094 22.167969 C 26.746094 22.167969 25.855469 23.757812 24.304688 25.125 C 24.304688 25.125 25.382812 25.410156 26.046875 24.609375 C 26.046875 24.609375 27.257812 23.4375 28.164062 21.285156 C 28.164062 21.285156 27.550781 20.855469 26.746094 22.167969 "/>
<path style=" stroke:none;fill-rule:nonzero;fill:rgb(10.588235%,30.196078%,22.745098%);fill-opacity:1;" d="M 27.023438 20.773438 C 27.023438 20.773438 27.925781 18.910156 28.011719 17.089844 C 28.0625 16.015625 27.132812 15.921875 27.132812 15.921875 C 27.132812 15.921875 27.121094 17.863281 26.640625 19.15625 C 26.640625 19.15625 26.136719 20.207031 27.023438 20.773438 "/>
<path style=" stroke:none;fill-rule:nonzero;fill:rgb(10.588235%,30.196078%,22.745098%);fill-opacity:1;" d="M 28.339844 11.183594 C 28.339844 11.183594 27.488281 11.402344 27.984375 12.859375 C 27.984375 12.859375 28.265625 13.667969 28.417969 15.710938 C 28.417969 15.710938 29.328125 15.0625 29.136719 14.042969 C 29.136719 14.042969 29.089844 13.277344 28.339844 11.183594 "/>
<path style=" stroke:none;fill-rule:nonzero;fill:rgb(10.588235%,30.196078%,22.745098%);fill-opacity:1;" d="M 28.097656 15.804688 C 28.097656 15.804688 28.242188 14.679688 27.808594 12.949219 C 27.546875 11.902344 26.511719 12.273438 26.511719 12.273438 C 26.511719 12.273438 26.929688 13.136719 27.054688 14.507812 C 27.054688 14.507812 27.054688 15.671875 28.097656 15.804688 "/>
<path style=" stroke:none;fill-rule:nonzero;fill:rgb(10.588235%,30.196078%,22.745098%);fill-opacity:1;" d="M 6.652344 15.945312 C 6.652344 10.808594 10.832031 6.628906 15.96875 6.628906 C 18.449219 6.628906 20.703125 7.601562 22.375 9.1875 L 22.585938 8.976562 C 21.742188 8.175781 20.777344 7.542969 19.710938 7.089844 C 18.523438 6.589844 17.265625 6.335938 15.96875 6.335938 C 14.671875 6.335938 13.414062 6.589844 12.226562 7.089844 C 11.085938 7.574219 10.058594 8.265625 9.175781 9.148438 C 8.292969 10.03125 7.597656 11.058594 7.113281 12.203125 C 6.613281 13.386719 6.359375 14.648438 6.359375 15.945312 C 6.359375 17.242188 6.613281 18.5 7.113281 19.683594 C 7.578125 20.78125 8.234375 21.769531 9.0625 22.625 L 9.273438 22.414062 C 7.652344 20.738281 6.652344 18.453125 6.652344 15.945312 "/>
<path style=" stroke:none;fill-rule:nonzero;fill:rgb(56.078431%,17.647059%,11.764706%);fill-opacity:1;" d="M 24.824219 12.203125 C 24.378906 11.15625 23.761719 10.207031 22.984375 9.375 L 22.773438 9.585938 C 24.332031 11.253906 25.285156 13.488281 25.285156 15.945312 C 25.285156 21.082031 21.105469 25.261719 15.96875 25.261719 C 13.546875 25.261719 11.335938 24.328125 9.675781 22.808594 L 9.464844 23.019531 C 10.28125 23.769531 11.207031 24.367188 12.226562 24.796875 C 13.414062 25.300781 14.671875 25.554688 15.96875 25.554688 C 17.265625 25.554688 18.523438 25.300781 19.710938 24.796875 C 20.855469 24.316406 21.882812 23.621094 22.765625 22.738281 C 23.648438 21.855469 24.339844 20.828125 24.824219 19.683594 C 25.324219 18.5 25.578125 17.242188 25.578125 15.945312 C 25.578125 14.648438 25.324219 13.386719 24.824219 12.203125 "/>
<path style=" stroke:none;fill-rule:nonzero;fill:rgb(10.588235%,30.196078%,22.745098%);fill-opacity:1;" d="M 20.078125 17.433594 C 20.496094 16.121094 19.96875 15.480469 18.320312 15.730469 C 18.097656 15.390625 17.742188 15.136719 17.308594 15.054688 C 17.023438 15 16.742188 15.03125 16.492188 15.121094 C 16.597656 15.050781 16.746094 14.980469 16.953125 14.933594 C 16.496094 14.726562 16.011719 14.296875 15.59375 13.371094 C 15.804688 13.167969 16.261719 13.933594 16.261719 13.933594 C 16.953125 11.566406 15.019531 10.546875 14.882812 10.511719 L 14.824219 10.496094 L 14.824219 10.492188 C 14.824219 10.492188 14.59375 10.222656 14.476562 9.976562 C 14.289062 10.257812 14.382812 10.414062 14.382812 10.414062 L 13.039062 11.371094 L 13.019531 11.875 L 13.378906 12 L 13.710938 11.605469 C 14.191406 11.914062 14.632812 11.714844 14.632812 11.714844 C 14.066406 12.246094 13.777344 12.929688 13.777344 12.929688 C 13.257812 13.152344 13.09375 13.714844 13.066406 13.957031 L 13.070312 13.957031 C 13.070312 13.957031 13.0625 14.035156 13.0625 14.148438 L 13.0625 14.15625 C 13.066406 14.355469 13.109375 14.660156 13.320312 14.890625 C 13.320312 14.890625 12.964844 14.636719 12.902344 14.125 L 11.992188 13.957031 C 11.992188 13.957031 11.972656 14.054688 11.824219 14.871094 C 11.667969 15.699219 12.324219 15.933594 12.324219 15.933594 L 12.441406 15.289062 C 12.441406 15.289062 12.164062 15.203125 12.191406 15.046875 C 12.222656 14.886719 12.285156 14.519531 12.285156 14.519531 C 12.285156 14.519531 12.398438 14.523438 12.566406 14.605469 C 12.757812 14.699219 13.019531 14.894531 13.277344 15.300781 L 12.792969 15.535156 L 12.679688 16.140625 L 13.464844 16.601562 C 14.355469 17.136719 14.667969 16.597656 14.667969 16.597656 L 14.125 16.289062 C 14.03125 16.414062 13.851562 16.398438 13.851562 16.398438 L 13.144531 15.980469 L 13.183594 15.777344 C 13.183594 15.777344 13.609375 15.65625 13.859375 15.59375 L 14.472656 15.414062 L 14.085938 15.683594 C 14.710938 16.453125 16.417969 16.90625 16.84375 16.859375 C 16.84375 16.859375 16.53125 16.960938 16.246094 16.988281 C 16.246094 16.988281 16.105469 17.53125 16.632812 17.878906 C 16.875 18.039062 17.308594 18.277344 17.308594 18.277344 C 17.117188 18.414062 16.886719 18.578125 16.722656 18.699219 L 16.695312 18.84375 C 16.5625 19.679688 17.253906 19.8125 17.253906 19.8125 L 17.347656 19.222656 C 17.347656 19.222656 17.058594 19.199219 17.085938 19.039062 L 17.109375 18.90625 C 17.222656 18.824219 17.472656 18.648438 17.683594 18.5 L 17.957031 18.695312 C 18.203125 19.027344 17.828125 19.921875 17.828125 19.921875 C 17.25 19.921875 17.191406 20.503906 17.191406 20.503906 L 17.953125 20.507812 C 18.007812 20.125 18.304688 20.148438 18.304688 20.148438 L 18.601562 18.59375 L 18.132812 18.222656 L 18.28125 18.066406 L 18.042969 17.742188 C 18.296875 17.523438 18.480469 17.214844 18.546875 16.859375 C 18.597656 16.585938 18.570312 16.3125 18.484375 16.066406 C 19.359375 16.113281 19.210938 16.527344 18.992188 17.300781 C 18.453125 19.214844 20.558594 19.519531 20.558594 19.519531 C 19.671875 18.957031 20.078125 17.433594 20.078125 17.433594 "/>
<path style=" stroke:none;fill-rule:nonzero;fill:rgb(56.078431%,17.647059%,11.764706%);fill-opacity:1;" d="M 7.726562 8.789062 C 7.566406 9.078125 7.3125 9.433594 7.089844 9.742188 C 6.90625 9.996094 6.621094 10.054688 6.378906 9.878906 L 5.292969 9.097656 C 5.050781 8.921875 5.015625 8.632812 5.195312 8.378906 C 5.417969 8.070312 5.675781 7.71875 5.894531 7.472656 L 6.246094 7.761719 L 5.738281 8.464844 C 5.683594 8.542969 5.695312 8.613281 5.769531 8.667969 L 6 8.832031 L 6.519531 8.109375 L 6.867188 8.363281 L 6.351562 9.082031 L 6.636719 9.289062 C 6.710938 9.34375 6.78125 9.332031 6.835938 9.253906 L 7.34375 8.550781 Z M 7.726562 8.789062 "/>
<path style=" stroke:none;fill-rule:nonzero;fill:rgb(56.078431%,17.647059%,11.764706%);fill-opacity:1;" d="M 7.511719 6.480469 L 8.769531 7.804688 L 8.3125 8.238281 L 7.054688 6.914062 L 6.574219 7.371094 L 6.242188 7.019531 L 7.660156 5.671875 L 7.992188 6.023438 Z M 7.511719 6.480469 "/>
<path style=" stroke:none;fill-rule:nonzero;fill:rgb(56.078431%,17.647059%,11.764706%);fill-opacity:1;" d="M 9.410156 5.0625 L 10.398438 6.597656 L 9.867188 6.9375 L 8.878906 5.40625 L 8.324219 5.761719 L 8.058594 5.355469 L 9.707031 4.292969 L 9.96875 4.703125 Z M 9.410156 5.0625 "/>
<path style=" stroke:none;fill-rule:nonzero;fill:rgb(56.078431%,17.647059%,11.764706%);fill-opacity:1;" d="M 11.203125 6.152344 L 10.238281 4.054688 L 10.804688 3.792969 L 11.769531 5.894531 Z M 11.203125 6.152344 "/>
<path style=" stroke:none;fill-rule:nonzero;fill:rgb(56.078431%,17.647059%,11.764706%);fill-opacity:1;" d="M 12.363281 3.738281 C 12.261719 3.769531 12.226562 3.832031 12.253906 3.921875 L 12.347656 4.234375 L 13.164062 3.988281 L 13.289062 4.402344 L 12.472656 4.652344 L 12.742188 5.539062 L 12.140625 5.722656 L 11.613281 3.980469 C 11.523438 3.6875 11.675781 3.4375 11.976562 3.34375 C 12.328125 3.238281 12.734375 3.117188 13.046875 3.0625 L 13.144531 3.5 Z M 12.363281 3.738281 "/>
<path style=" stroke:none;fill-rule:nonzero;fill:rgb(56.078431%,17.647059%,11.764706%);fill-opacity:1;" d="M 14.304688 4.609375 L 14.234375 5.171875 L 13.59375 5.246094 L 13.976562 3.042969 C 13.988281 2.9375 14.066406 2.867188 14.167969 2.855469 L 14.746094 2.785156 C 14.84375 2.777344 14.9375 2.828125 14.976562 2.925781 L 15.851562 4.984375 L 15.210938 5.058594 L 15.011719 4.527344 Z M 14.628906 3.519531 C 14.601562 3.445312 14.570312 3.359375 14.554688 3.285156 L 14.464844 3.292969 C 14.460938 3.371094 14.457031 3.460938 14.449219 3.539062 L 14.371094 4.144531 L 14.84375 4.089844 Z M 14.628906 3.519531 "/>
<path style=" stroke:none;fill-rule:nonzero;fill:rgb(56.078431%,17.647059%,11.764706%);fill-opacity:1;" d="M 18.082031 4.03125 C 17.996094 4.96875 17.699219 5.203125 16.9375 5.132812 C 16.179688 5.066406 15.929688 4.78125 16.015625 3.84375 C 16.101562 2.90625 16.398438 2.671875 17.15625 2.742188 C 17.917969 2.808594 18.167969 3.09375 18.082031 4.03125 Z M 16.75 5.171875 C 17.058594 5.316406 17.386719 5.410156 17.78125 5.503906 L 17.574219 6.015625 C 17.152344 5.859375 16.828125 5.667969 16.582031 5.46875 Z M 16.671875 3.902344 C 16.621094 4.46875 16.691406 4.628906 16.980469 4.65625 C 17.273438 4.679688 17.367188 4.539062 17.421875 3.972656 C 17.472656 3.40625 17.40625 3.246094 17.113281 3.21875 C 16.820312 3.195312 16.726562 3.335938 16.671875 3.902344 "/>
<path style=" stroke:none;fill-rule:nonzero;fill:rgb(56.078431%,17.647059%,11.764706%);fill-opacity:1;" d="M 20.640625 5.996094 C 20.402344 5.988281 20.199219 5.941406 19.875 5.820312 C 19.183594 5.558594 19.039062 5.167969 19.347656 4.34375 C 19.65625 3.519531 20.019531 3.320312 20.710938 3.582031 C 21.035156 3.703125 21.179688 3.78125 21.367188 3.914062 L 21.160156 4.332031 C 20.949219 4.246094 20.8125 4.191406 20.523438 4.082031 C 20.269531 3.984375 20.144531 4.089844 19.964844 4.578125 C 19.78125 5.0625 19.804688 5.222656 20.0625 5.316406 C 20.367188 5.429688 20.546875 5.496094 20.753906 5.546875 Z M 20.640625 5.996094 "/>
<path style=" stroke:none;fill-rule:nonzero;fill:rgb(56.078431%,17.647059%,11.764706%);fill-opacity:1;" d="M 21.710938 5.945312 C 21.664062 6.027344 21.683594 6.09375 21.773438 6.148438 L 22.449219 6.550781 L 22.234375 6.96875 C 21.929688 6.835938 21.609375 6.648438 21.300781 6.464844 C 20.996094 6.285156 20.941406 6.011719 21.09375 5.753906 L 22.015625 4.195312 L 22.558594 4.511719 Z M 21.710938 5.945312 "/>
<path style=" stroke:none;fill-rule:nonzero;fill:rgb(56.078431%,17.647059%,11.764706%);fill-opacity:1;" d="M 24.445312 7.675781 C 23.96875 8.214844 23.605469 8.25 23.085938 7.789062 C 22.527344 7.300781 22.503906 6.921875 22.980469 6.382812 L 23.886719 5.355469 L 24.359375 5.769531 L 23.449219 6.800781 C 23.191406 7.097656 23.179688 7.230469 23.378906 7.40625 C 23.582031 7.582031 23.710938 7.558594 23.972656 7.261719 L 24.882812 6.230469 L 25.351562 6.648438 Z M 24.445312 7.675781 "/>
<path style=" stroke:none;fill-rule:nonzero;fill:rgb(56.078431%,17.647059%,11.764706%);fill-opacity:1;" d="M 25.832031 9.039062 C 26.023438 9.347656 25.929688 9.574219 25.632812 9.796875 C 25.253906 10.082031 25.003906 9.957031 24.664062 9.503906 C 24.382812 9.125 24.226562 8.914062 24.058594 8.648438 L 25.910156 7.265625 C 26.097656 7.480469 26.246094 7.667969 26.496094 8.003906 C 26.867188 8.503906 26.898438 8.757812 26.515625 9.042969 C 26.25 9.242188 26.046875 9.246094 25.847656 9.027344 Z M 24.953125 9.152344 C 25.09375 9.339844 25.171875 9.355469 25.355469 9.21875 C 25.550781 9.070312 25.566406 8.988281 25.421875 8.792969 L 25.230469 8.542969 L 24.761719 8.890625 Z M 25.726562 8.558594 C 25.847656 8.722656 25.921875 8.738281 26.089844 8.613281 C 26.25 8.492188 26.25 8.417969 26.121094 8.242188 L 25.945312 8.007812 L 25.539062 8.3125 Z M 25.726562 8.558594 "/>
<path style=" stroke:none;fill-rule:nonzero;fill:rgb(10.588235%,30.196078%,22.745098%);fill-opacity:1;" d="M 10.371094 25.703125 C 10.386719 25.679688 10.40625 25.660156 10.425781 25.644531 C 10.449219 25.628906 10.472656 25.617188 10.5 25.613281 C 10.527344 25.605469 10.550781 25.605469 10.578125 25.609375 C 10.605469 25.613281 10.628906 25.625 10.652344 25.640625 C 10.675781 25.65625 10.695312 25.675781 10.710938 25.695312 C 10.726562 25.71875 10.738281 25.742188 10.742188 25.769531 C 10.75 25.796875 10.75 25.820312 10.746094 25.847656 C 10.738281 25.875 10.730469 25.902344 10.714844 25.925781 C 10.699219 25.949219 10.679688 25.96875 10.660156 25.980469 C 10.636719 25.996094 10.613281 26.007812 10.585938 26.011719 C 10.5625 26.019531 10.535156 26.019531 10.507812 26.015625 C 10.480469 26.011719 10.457031 26 10.433594 25.984375 C 10.40625 25.96875 10.386719 25.949219 10.375 25.929688 C 10.359375 25.90625 10.347656 25.882812 10.34375 25.855469 C 10.335938 25.832031 10.335938 25.804688 10.339844 25.777344 C 10.347656 25.75 10.355469 25.726562 10.371094 25.703125 Z M 9.941406 25.429688 C 9.957031 25.40625 9.976562 25.386719 10 25.371094 C 10.023438 25.355469 10.046875 25.34375 10.070312 25.339844 C 10.097656 25.332031 10.125 25.332031 10.152344 25.335938 C 10.175781 25.339844 10.203125 25.351562 10.226562 25.367188 C 10.25 25.382812 10.269531 25.398438 10.285156 25.421875 C 10.300781 25.445312 10.308594 25.46875 10.316406 25.492188 C 10.320312 25.519531 10.320312 25.546875 10.316406 25.574219 C 10.3125 25.601562 10.300781 25.625 10.285156 25.648438 C 10.273438 25.671875 10.253906 25.691406 10.230469 25.707031 C 10.207031 25.722656 10.183594 25.730469 10.15625 25.738281 C 10.132812 25.742188 10.105469 25.742188 10.078125 25.738281 C 10.054688 25.734375 10.027344 25.726562 10.003906 25.710938 C 9.980469 25.695312 9.960938 25.675781 9.945312 25.65625 C 9.929688 25.632812 9.921875 25.609375 9.914062 25.582031 C 9.910156 25.554688 9.910156 25.53125 9.914062 25.503906 C 9.917969 25.476562 9.929688 25.453125 9.941406 25.429688 Z M 9.542969 26.542969 C 9.496094 26.613281 9.472656 26.683594 9.480469 26.75 C 9.484375 26.8125 9.519531 26.867188 9.585938 26.90625 C 9.660156 26.953125 9.726562 26.980469 9.789062 26.984375 L 9.902344 26.808594 C 9.929688 26.761719 9.953125 26.71875 9.96875 26.679688 C 9.988281 26.636719 9.996094 26.601562 10 26.566406 C 10 26.53125 9.996094 26.5 9.980469 26.46875 C 9.964844 26.441406 9.941406 26.414062 9.90625 26.394531 C 9.871094 26.371094 9.839844 26.359375 9.808594 26.355469 C 9.773438 26.355469 9.742188 26.359375 9.714844 26.375 C 9.683594 26.386719 9.652344 26.410156 9.625 26.4375 C 9.597656 26.464844 9.570312 26.5 9.542969 26.542969 Z M 10.050781 27.339844 C 9.976562 27.453125 9.886719 27.542969 9.785156 27.609375 C 9.683594 27.675781 9.574219 27.71875 9.449219 27.734375 C 9.328125 27.746094 9.195312 27.734375 9.050781 27.695312 C 8.910156 27.65625 8.761719 27.585938 8.609375 27.488281 C 8.46875 27.398438 8.351562 27.304688 8.261719 27.207031 C 8.171875 27.109375 8.109375 27.007812 8.070312 26.902344 C 8.03125 26.800781 8.019531 26.691406 8.035156 26.585938 C 8.050781 26.476562 8.09375 26.363281 8.167969 26.253906 L 8.347656 25.972656 L 8.695312 26.195312 L 8.5625 26.402344 C 8.515625 26.472656 8.484375 26.542969 8.472656 26.613281 C 8.457031 26.679688 8.457031 26.746094 8.476562 26.8125 C 8.5 26.878906 8.535156 26.941406 8.59375 27.007812 C 8.648438 27.070312 8.726562 27.132812 8.828125 27.199219 C 8.929688 27.261719 9.019531 27.308594 9.101562 27.332031 C 9.183594 27.359375 9.253906 27.371094 9.316406 27.371094 C 9.378906 27.371094 9.429688 27.363281 9.472656 27.34375 C 9.515625 27.328125 9.546875 27.308594 9.574219 27.285156 C 9.507812 27.265625 9.4375 27.234375 9.363281 27.183594 C 9.292969 27.136719 9.230469 27.085938 9.183594 27.023438 C 9.136719 26.964844 9.101562 26.898438 9.085938 26.824219 C 9.066406 26.75 9.066406 26.671875 9.082031 26.589844 C 9.097656 26.507812 9.136719 26.421875 9.195312 26.332031 C 9.242188 26.257812 9.304688 26.1875 9.371094 26.132812 C 9.441406 26.078125 9.515625 26.035156 9.597656 26.011719 C 9.679688 25.984375 9.761719 25.976562 9.851562 25.988281 C 9.941406 26 10.027344 26.03125 10.117188 26.089844 C 10.214844 26.152344 10.285156 26.222656 10.332031 26.296875 C 10.375 26.375 10.402344 26.453125 10.40625 26.535156 C 10.410156 26.617188 10.394531 26.703125 10.367188 26.789062 C 10.335938 26.878906 10.292969 26.964844 10.234375 27.050781 Z M 10.050781 27.339844 "/>
<path style=" stroke:none;fill-rule:nonzero;fill:rgb(10.588235%,30.196078%,22.745098%);fill-opacity:1;" d="M 11.171875 27.894531 C 11.144531 27.960938 11.113281 28 11.082031 28.015625 C 11.054688 28.03125 11.019531 28.03125 10.980469 28.015625 L 10.859375 27.957031 C 10.792969 27.925781 10.738281 27.894531 10.691406 27.855469 C 10.644531 27.816406 10.609375 27.769531 10.585938 27.71875 C 10.558594 27.667969 10.550781 27.609375 10.554688 27.542969 C 10.558594 27.476562 10.578125 27.402344 10.617188 27.320312 L 11.320312 25.808594 L 11.695312 25.984375 L 11.015625 27.441406 C 11 27.476562 10.992188 27.503906 10.988281 27.527344 C 10.984375 27.550781 10.984375 27.570312 10.992188 27.585938 C 11 27.601562 11.007812 27.617188 11.023438 27.628906 C 11.039062 27.640625 11.058594 27.652344 11.082031 27.660156 L 11.136719 27.6875 C 11.148438 27.691406 11.164062 27.699219 11.175781 27.710938 C 11.1875 27.71875 11.195312 27.730469 11.203125 27.746094 C 11.207031 27.761719 11.207031 27.78125 11.203125 27.804688 C 11.199219 27.828125 11.191406 27.859375 11.171875 27.894531 "/>
<path style=" stroke:none;fill-rule:nonzero;fill:rgb(10.588235%,30.196078%,22.745098%);fill-opacity:1;" d="M 12.304688 26.605469 C 12.3125 26.578125 12.324219 26.554688 12.34375 26.535156 C 12.363281 26.515625 12.382812 26.5 12.40625 26.488281 C 12.429688 26.476562 12.457031 26.46875 12.484375 26.464844 C 12.507812 26.464844 12.535156 26.46875 12.5625 26.476562 C 12.589844 26.488281 12.613281 26.5 12.632812 26.519531 C 12.652344 26.535156 12.667969 26.554688 12.679688 26.582031 C 12.691406 26.605469 12.699219 26.628906 12.699219 26.65625 C 12.703125 26.683594 12.699219 26.710938 12.691406 26.738281 C 12.679688 26.765625 12.667969 26.789062 12.648438 26.808594 C 12.628906 26.828125 12.609375 26.84375 12.585938 26.855469 C 12.5625 26.867188 12.539062 26.875 12.511719 26.875 C 12.484375 26.878906 12.457031 26.875 12.429688 26.867188 C 12.402344 26.855469 12.378906 26.84375 12.359375 26.824219 C 12.339844 26.804688 12.324219 26.785156 12.3125 26.761719 C 12.300781 26.738281 12.292969 26.710938 12.292969 26.6875 C 12.289062 26.660156 12.292969 26.632812 12.304688 26.605469 Z M 11.917969 27.644531 C 11.898438 27.695312 11.890625 27.742188 11.890625 27.785156 C 11.890625 27.824219 11.898438 27.863281 11.910156 27.898438 C 11.921875 27.929688 11.941406 27.957031 11.96875 27.980469 C 11.992188 28.003906 12.023438 28.019531 12.058594 28.03125 L 12.230469 28.089844 L 12.316406 27.832031 C 12.328125 27.792969 12.339844 27.753906 12.347656 27.71875 C 12.355469 27.679688 12.355469 27.644531 12.351562 27.609375 C 12.347656 27.574219 12.335938 27.546875 12.3125 27.519531 C 12.292969 27.492188 12.261719 27.472656 12.21875 27.457031 C 12.179688 27.445312 12.140625 27.441406 12.109375 27.445312 C 12.078125 27.449219 12.050781 27.460938 12.023438 27.480469 C 12 27.5 11.976562 27.523438 11.960938 27.550781 C 11.941406 27.582031 11.929688 27.609375 11.917969 27.644531 Z M 11.484375 27.835938 C 11.480469 27.816406 11.480469 27.792969 11.484375 27.765625 C 11.488281 27.742188 11.492188 27.714844 11.496094 27.6875 C 11.5 27.660156 11.507812 27.632812 11.515625 27.605469 C 11.523438 27.578125 11.53125 27.554688 11.539062 27.53125 C 11.5625 27.453125 11.605469 27.382812 11.65625 27.316406 C 11.707031 27.25 11.769531 27.195312 11.84375 27.15625 C 11.914062 27.113281 11.992188 27.089844 12.078125 27.078125 C 12.167969 27.066406 12.257812 27.078125 12.355469 27.113281 C 12.429688 27.136719 12.492188 27.171875 12.546875 27.207031 C 12.597656 27.246094 12.640625 27.289062 12.671875 27.335938 C 12.703125 27.382812 12.726562 27.429688 12.738281 27.484375 C 12.753906 27.535156 12.761719 27.589844 12.761719 27.644531 C 12.765625 27.699219 12.757812 27.75 12.75 27.804688 C 12.738281 27.859375 12.726562 27.90625 12.710938 27.953125 L 12.621094 28.222656 L 12.8125 28.289062 C 12.828125 28.292969 12.839844 28.300781 12.855469 28.308594 C 12.867188 28.316406 12.878906 28.328125 12.886719 28.339844 C 12.890625 28.355469 12.894531 28.375 12.894531 28.398438 C 12.890625 28.421875 12.882812 28.453125 12.871094 28.492188 C 12.847656 28.558594 12.824219 28.601562 12.796875 28.621094 C 12.769531 28.640625 12.734375 28.644531 12.695312 28.632812 L 11.105469 28.089844 C 11.089844 28.082031 11.074219 28.078125 11.058594 28.070312 C 11.046875 28.0625 11.035156 28.050781 11.03125 28.035156 C 11.023438 28.019531 11.019531 28.003906 11.023438 27.976562 C 11.023438 27.953125 11.03125 27.921875 11.042969 27.882812 C 11.066406 27.816406 11.09375 27.773438 11.121094 27.753906 C 11.148438 27.734375 11.179688 27.730469 11.222656 27.746094 Z M 11.484375 27.835938 "/>
<path style=" stroke:none;fill-rule:nonzero;fill:rgb(10.588235%,30.196078%,22.745098%);fill-opacity:1;" d="M 13.800781 27.027344 C 13.804688 27 13.816406 26.976562 13.832031 26.953125 C 13.847656 26.933594 13.867188 26.914062 13.886719 26.898438 C 13.910156 26.882812 13.933594 26.875 13.960938 26.871094 C 13.988281 26.863281 14.015625 26.867188 14.042969 26.871094 C 14.070312 26.878906 14.09375 26.886719 14.117188 26.902344 C 14.136719 26.917969 14.15625 26.9375 14.171875 26.960938 C 14.183594 26.984375 14.195312 27.007812 14.199219 27.035156 C 14.207031 27.0625 14.203125 27.089844 14.199219 27.117188 C 14.191406 27.144531 14.183594 27.167969 14.164062 27.191406 C 14.148438 27.210938 14.128906 27.230469 14.109375 27.242188 C 14.085938 27.257812 14.0625 27.269531 14.035156 27.273438 C 14.007812 27.277344 13.980469 27.277344 13.953125 27.273438 C 13.925781 27.265625 13.902344 27.253906 13.878906 27.238281 C 13.859375 27.222656 13.839844 27.203125 13.828125 27.183594 C 13.8125 27.160156 13.804688 27.136719 13.796875 27.109375 C 13.792969 27.082031 13.792969 27.054688 13.800781 27.027344 Z M 13.300781 26.917969 C 13.308594 26.890625 13.320312 26.867188 13.335938 26.84375 C 13.351562 26.824219 13.371094 26.804688 13.390625 26.789062 C 13.414062 26.777344 13.4375 26.765625 13.464844 26.761719 C 13.492188 26.757812 13.519531 26.757812 13.546875 26.761719 C 13.574219 26.769531 13.597656 26.78125 13.621094 26.796875 C 13.640625 26.808594 13.660156 26.828125 13.671875 26.851562 C 13.6875 26.875 13.695312 26.898438 13.703125 26.925781 C 13.707031 26.953125 13.707031 26.980469 13.703125 27.007812 C 13.695312 27.035156 13.683594 27.058594 13.667969 27.082031 C 13.652344 27.101562 13.632812 27.121094 13.613281 27.136719 C 13.589844 27.148438 13.566406 27.160156 13.539062 27.164062 C 13.511719 27.167969 13.484375 27.167969 13.457031 27.164062 C 13.429688 27.15625 13.40625 27.144531 13.382812 27.128906 C 13.363281 27.113281 13.34375 27.09375 13.328125 27.074219 C 13.316406 27.050781 13.304688 27.027344 13.300781 27 C 13.296875 26.972656 13.296875 26.945312 13.300781 26.917969 Z M 13.277344 28.375 L 13.46875 27.5 L 13.875 27.589844 L 13.605469 28.820312 L 12.847656 28.652344 C 12.832031 28.648438 12.816406 28.644531 12.800781 28.636719 C 12.789062 28.632812 12.777344 28.621094 12.769531 28.609375 C 12.757812 28.59375 12.753906 28.574219 12.753906 28.550781 C 12.753906 28.527344 12.753906 28.496094 12.765625 28.457031 C 12.78125 28.386719 12.800781 28.339844 12.824219 28.316406 C 12.847656 28.296875 12.882812 28.289062 12.925781 28.296875 Z M 13.277344 28.375 "/>
<path style=" stroke:none;fill-rule:nonzero;fill:rgb(10.588235%,30.196078%,22.745098%);fill-opacity:1;" d="M 15.875 26.941406 L 15.675781 29.074219 L 14.050781 28.921875 L 14.085938 28.5625 L 14.59375 28.609375 L 14.496094 27.171875 L 14.90625 27.210938 L 15.015625 28.648438 L 15.296875 28.675781 L 15.460938 26.90625 Z M 15.875 26.941406 "/>
<path style=" stroke:none;fill-rule:nonzero;fill:rgb(10.588235%,30.196078%,22.745098%);fill-opacity:1;" d="M 16.566406 26.914062 L 16.609375 29.054688 L 16.195312 29.0625 L 16.15625 26.921875 Z M 16.566406 26.914062 "/>
<path style=" stroke:none;fill-rule:nonzero;fill:rgb(10.588235%,30.196078%,22.745098%);fill-opacity:1;" d="M 19.359375 29.40625 C 19.355469 29.378906 19.355469 29.351562 19.359375 29.324219 C 19.363281 29.300781 19.371094 29.273438 19.386719 29.253906 C 19.398438 29.230469 19.417969 29.210938 19.4375 29.195312 C 19.460938 29.179688 19.484375 29.167969 19.511719 29.160156 C 19.539062 29.15625 19.566406 29.152344 19.59375 29.160156 C 19.621094 29.164062 19.644531 29.171875 19.667969 29.1875 C 19.691406 29.203125 19.710938 29.21875 19.726562 29.242188 C 19.742188 29.261719 19.753906 29.289062 19.757812 29.316406 C 19.765625 29.34375 19.765625 29.367188 19.761719 29.394531 C 19.757812 29.421875 19.746094 29.445312 19.734375 29.46875 C 19.71875 29.492188 19.703125 29.511719 19.679688 29.527344 C 19.65625 29.542969 19.632812 29.554688 19.605469 29.5625 C 19.578125 29.566406 19.550781 29.566406 19.523438 29.5625 C 19.496094 29.558594 19.472656 29.546875 19.453125 29.535156 C 19.429688 29.519531 19.410156 29.503906 19.394531 29.480469 C 19.378906 29.457031 19.367188 29.433594 19.359375 29.40625 Z M 18.867188 29.523438 C 18.859375 29.496094 18.859375 29.46875 18.863281 29.441406 C 18.867188 29.414062 18.875 29.390625 18.890625 29.367188 C 18.90625 29.34375 18.921875 29.324219 18.945312 29.308594 C 18.964844 29.292969 18.992188 29.28125 19.019531 29.277344 C 19.046875 29.269531 19.074219 29.269531 19.097656 29.273438 C 19.125 29.277344 19.148438 29.289062 19.171875 29.300781 C 19.195312 29.316406 19.214844 29.335938 19.230469 29.355469 C 19.246094 29.378906 19.257812 29.402344 19.261719 29.429688 C 19.269531 29.457031 19.269531 29.484375 19.265625 29.511719 C 19.261719 29.539062 19.25 29.5625 19.238281 29.585938 C 19.222656 29.605469 19.207031 29.625 19.183594 29.640625 C 19.164062 29.65625 19.136719 29.667969 19.113281 29.675781 C 19.082031 29.683594 19.054688 29.683594 19.03125 29.675781 C 19.003906 29.671875 18.980469 29.664062 18.957031 29.648438 C 18.933594 29.636719 18.914062 29.617188 18.898438 29.597656 C 18.882812 29.574219 18.871094 29.550781 18.867188 29.523438 Z M 18.289062 28.433594 C 18.300781 28.492188 18.324219 28.542969 18.359375 28.59375 C 18.390625 28.640625 18.4375 28.675781 18.5 28.703125 C 18.558594 28.730469 18.632812 28.746094 18.722656 28.75 C 18.8125 28.753906 18.921875 28.738281 19.046875 28.710938 C 19.195312 28.675781 19.316406 28.640625 19.40625 28.605469 C 19.496094 28.570312 19.5625 28.539062 19.605469 28.503906 C 19.648438 28.472656 19.675781 28.4375 19.6875 28.40625 C 19.695312 28.375 19.699219 28.34375 19.691406 28.316406 C 19.683594 28.285156 19.671875 28.265625 19.648438 28.25 C 19.628906 28.230469 19.601562 28.21875 19.570312 28.207031 C 19.539062 28.199219 19.507812 28.191406 19.46875 28.183594 C 19.429688 28.175781 19.390625 28.167969 19.351562 28.160156 C 19.308594 28.152344 19.269531 28.140625 19.230469 28.125 C 19.191406 28.113281 19.15625 28.09375 19.121094 28.066406 C 19.085938 28.042969 19.054688 28.011719 19.03125 27.972656 C 19.003906 27.933594 18.984375 27.886719 18.96875 27.828125 C 18.953125 27.75 18.949219 27.671875 18.960938 27.589844 C 18.96875 27.507812 18.996094 27.425781 19.039062 27.351562 C 19.082031 27.277344 19.140625 27.210938 19.21875 27.152344 C 19.296875 27.09375 19.394531 27.050781 19.507812 27.027344 C 19.546875 27.015625 19.582031 27.011719 19.617188 27.007812 C 19.652344 27.003906 19.683594 27.003906 19.714844 27.003906 C 19.742188 27.003906 19.769531 27.003906 19.792969 27.007812 C 19.820312 27.007812 19.839844 27.011719 19.855469 27.015625 L 19.9375 27.375 C 19.859375 27.375 19.796875 27.378906 19.742188 27.386719 C 19.691406 27.390625 19.648438 27.398438 19.621094 27.40625 C 19.566406 27.417969 19.523438 27.433594 19.488281 27.457031 C 19.449219 27.476562 19.421875 27.503906 19.402344 27.527344 C 19.378906 27.554688 19.367188 27.582031 19.359375 27.609375 C 19.355469 27.636719 19.355469 27.664062 19.359375 27.6875 C 19.367188 27.71875 19.378906 27.742188 19.402344 27.757812 C 19.425781 27.777344 19.453125 27.789062 19.484375 27.800781 C 19.515625 27.8125 19.546875 27.824219 19.585938 27.832031 C 19.625 27.839844 19.667969 27.847656 19.707031 27.855469 C 19.746094 27.863281 19.789062 27.875 19.828125 27.886719 C 19.867188 27.898438 19.90625 27.914062 19.9375 27.9375 C 19.972656 27.957031 20 27.984375 20.027344 28.019531 C 20.050781 28.050781 20.070312 28.09375 20.082031 28.140625 C 20.101562 28.226562 20.105469 28.316406 20.085938 28.40625 C 20.070312 28.492188 20.023438 28.578125 19.953125 28.660156 C 19.882812 28.742188 19.78125 28.816406 19.648438 28.886719 C 19.515625 28.953125 19.339844 29.011719 19.128906 29.0625 C 18.941406 29.105469 18.777344 29.125 18.632812 29.117188 C 18.492188 29.109375 18.367188 29.078125 18.265625 29.03125 C 18.164062 28.984375 18.082031 28.917969 18.019531 28.832031 C 17.960938 28.75 17.914062 28.65625 17.890625 28.546875 L 17.816406 28.21875 L 18.21875 28.128906 Z M 18.289062 28.433594 "/>
<path style=" stroke:none;fill-rule:nonzero;fill:rgb(10.588235%,30.196078%,22.745098%);fill-opacity:1;" d="M 21.550781 27.476562 C 21.570312 27.527344 21.582031 27.578125 21.585938 27.628906 C 21.585938 27.679688 21.578125 27.730469 21.558594 27.777344 C 21.539062 27.824219 21.507812 27.867188 21.464844 27.910156 C 21.417969 27.949219 21.359375 27.984375 21.289062 28.015625 L 20.582031 28.308594 L 20.445312 27.972656 L 21.015625 27.738281 C 21.058594 27.71875 21.09375 27.699219 21.113281 27.679688 C 21.136719 27.660156 21.140625 27.636719 21.132812 27.613281 C 21.128906 27.601562 21.121094 27.589844 21.113281 27.582031 C 21.105469 27.570312 21.089844 27.558594 21.070312 27.542969 C 21.050781 27.527344 21.023438 27.507812 20.988281 27.484375 C 20.953125 27.460938 20.902344 27.429688 20.84375 27.390625 L 20.46875 27.140625 L 20.722656 26.777344 L 21.148438 27.082031 C 21.203125 27.125 21.253906 27.160156 21.300781 27.195312 C 21.34375 27.230469 21.382812 27.265625 21.414062 27.296875 C 21.449219 27.328125 21.476562 27.355469 21.5 27.386719 C 21.519531 27.414062 21.539062 27.445312 21.550781 27.476562 "/>
<path style=" stroke:none;fill-rule:nonzero;fill:rgb(10.588235%,30.196078%,22.745098%);fill-opacity:1;" d="M 22.683594 27.113281 C 22.71875 27.175781 22.734375 27.222656 22.726562 27.257812 C 22.722656 27.289062 22.703125 27.316406 22.664062 27.335938 L 22.546875 27.402344 C 22.484375 27.433594 22.421875 27.457031 22.363281 27.472656 C 22.300781 27.488281 22.246094 27.488281 22.1875 27.476562 C 22.132812 27.464844 22.082031 27.4375 22.03125 27.394531 C 21.980469 27.351562 21.933594 27.289062 21.890625 27.207031 L 21.109375 25.738281 L 21.476562 25.546875 L 22.230469 26.964844 C 22.246094 26.996094 22.265625 27.023438 22.28125 27.039062 C 22.296875 27.054688 22.3125 27.066406 22.328125 27.070312 C 22.347656 27.074219 22.363281 27.074219 22.382812 27.070312 C 22.402344 27.066406 22.421875 27.054688 22.445312 27.042969 L 22.496094 27.015625 C 22.507812 27.011719 22.523438 27.003906 22.539062 27 C 22.554688 26.996094 22.566406 26.996094 22.582031 27 C 22.597656 27.003906 22.613281 27.015625 22.632812 27.035156 C 22.648438 27.050781 22.664062 27.078125 22.683594 27.113281 "/>
<path style=" stroke:none;fill-rule:nonzero;fill:rgb(10.588235%,30.196078%,22.745098%);fill-opacity:1;" d="M 22.863281 26.789062 L 22.386719 26.035156 L 22.734375 25.8125 L 23.40625 26.875 L 22.753906 27.289062 C 22.738281 27.300781 22.722656 27.304688 22.710938 27.3125 C 22.695312 27.316406 22.679688 27.316406 22.664062 27.316406 C 22.648438 27.3125 22.632812 27.300781 22.613281 27.285156 C 22.597656 27.269531 22.578125 27.242188 22.554688 27.207031 C 22.515625 27.148438 22.5 27.101562 22.5 27.066406 C 22.503906 27.035156 22.523438 27.007812 22.558594 26.984375 Z M 22.101562 25.582031 C 22.085938 25.558594 22.078125 25.535156 22.074219 25.507812 C 22.070312 25.480469 22.070312 25.453125 22.074219 25.425781 C 22.082031 25.402344 22.089844 25.378906 22.105469 25.355469 C 22.121094 25.332031 22.140625 25.316406 22.164062 25.300781 C 22.1875 25.285156 22.214844 25.273438 22.242188 25.269531 C 22.265625 25.265625 22.292969 25.265625 22.320312 25.273438 C 22.34375 25.28125 22.367188 25.289062 22.390625 25.304688 C 22.414062 25.320312 22.433594 25.339844 22.449219 25.363281 C 22.460938 25.386719 22.472656 25.414062 22.476562 25.441406 C 22.480469 25.464844 22.480469 25.492188 22.472656 25.519531 C 22.46875 25.542969 22.457031 25.566406 22.441406 25.589844 C 22.429688 25.613281 22.410156 25.632812 22.386719 25.644531 C 22.359375 25.660156 22.335938 25.671875 22.308594 25.675781 C 22.28125 25.679688 22.253906 25.679688 22.230469 25.671875 C 22.203125 25.667969 22.179688 25.65625 22.15625 25.640625 C 22.136719 25.625 22.117188 25.605469 22.101562 25.582031 "/>
<path style=" stroke:none;fill-rule:nonzero;fill:rgb(10.588235%,30.196078%,22.745098%);fill-opacity:1;" d="M 14.121094 20.941406 L 14.121094 22.460938 L 13.828125 22.460938 L 13.828125 21.234375 L 13.65625 21.234375 L 13.65625 20.941406 Z M 14.121094 20.941406 "/>
<path style=" stroke:none;fill-rule:nonzero;fill:rgb(10.588235%,30.196078%,22.745098%);fill-opacity:1;" d="M 15.035156 21.464844 C 15.035156 21.519531 15.054688 21.566406 15.09375 21.601562 C 15.132812 21.640625 15.175781 21.660156 15.230469 21.660156 C 15.285156 21.660156 15.328125 21.640625 15.367188 21.601562 C 15.40625 21.566406 15.425781 21.519531 15.425781 21.464844 L 15.425781 21.398438 C 15.425781 21.34375 15.40625 21.296875 15.367188 21.261719 C 15.328125 21.222656 15.285156 21.203125 15.230469 21.203125 C 15.175781 21.203125 15.132812 21.222656 15.09375 21.261719 C 15.054688 21.296875 15.035156 21.34375 15.035156 21.398438 Z M 14.796875 22.226562 L 15.050781 22.078125 C 15.097656 22.15625 15.15625 22.195312 15.230469 22.195312 C 15.285156 22.195312 15.328125 22.179688 15.367188 22.140625 C 15.40625 22.101562 15.425781 22.054688 15.425781 22.003906 L 15.425781 21.914062 C 15.363281 21.941406 15.296875 21.953125 15.230469 21.953125 C 15.097656 21.953125 14.980469 21.90625 14.886719 21.8125 C 14.789062 21.714844 14.742188 21.601562 14.742188 21.464844 L 14.742188 21.398438 C 14.742188 21.261719 14.789062 21.148438 14.886719 21.050781 C 14.980469 20.957031 15.097656 20.910156 15.230469 20.910156 C 15.363281 20.910156 15.480469 20.957031 15.574219 21.050781 C 15.671875 21.148438 15.71875 21.261719 15.71875 21.398438 L 15.71875 22.003906 C 15.71875 22.136719 15.671875 22.253906 15.574219 22.347656 C 15.480469 22.441406 15.363281 22.492188 15.230469 22.492188 C 15.042969 22.492188 14.898438 22.402344 14.796875 22.226562 "/>
<path style=" stroke:none;fill-rule:nonzero;fill:rgb(10.588235%,30.196078%,22.745098%);fill-opacity:1;" d="M 16.828125 20.941406 L 16.429688 21.808594 L 16.683594 21.808594 L 16.683594 21.449219 L 16.976562 21.449219 L 16.976562 21.808594 L 17.089844 21.808594 L 17.089844 22.101562 L 16.976562 22.101562 L 16.976562 22.460938 L 16.683594 22.460938 L 16.683594 22.101562 L 16.050781 22.101562 L 16.050781 21.9375 L 16.503906 20.941406 Z M 16.828125 20.941406 "/>
<path style=" stroke:none;fill-rule:nonzero;fill:rgb(10.588235%,30.196078%,22.745098%);fill-opacity:1;" d="M 17.40625 22.226562 L 17.660156 22.078125 C 17.707031 22.15625 17.765625 22.195312 17.839844 22.195312 C 17.894531 22.195312 17.9375 22.179688 17.976562 22.140625 C 18.015625 22.101562 18.035156 22.054688 18.035156 22.003906 L 18.035156 21.933594 C 18.035156 21.878906 18.015625 21.835938 17.976562 21.796875 C 17.9375 21.757812 17.894531 21.738281 17.839844 21.738281 C 17.761719 21.738281 17.703125 21.78125 17.660156 21.863281 L 17.441406 21.800781 L 17.535156 20.941406 L 18.25 20.941406 L 18.25 21.234375 L 17.800781 21.234375 L 17.78125 21.449219 C 17.804688 21.445312 17.824219 21.445312 17.839844 21.445312 C 17.972656 21.445312 18.089844 21.492188 18.183594 21.589844 C 18.28125 21.683594 18.328125 21.800781 18.328125 21.933594 L 18.328125 22.003906 C 18.328125 22.136719 18.28125 22.253906 18.183594 22.347656 C 18.089844 22.441406 17.972656 22.492188 17.839844 22.492188 C 17.652344 22.492188 17.507812 22.402344 17.40625 22.226562 "/>
</g>
</svg>
