<?xml version="1.0" encoding="UTF-8"?>
<svg xmlns="http://www.w3.org/2000/svg" xmlns:xlink="http://www.w3.org/1999/xlink" width="32px" height="32px" viewBox="0 0 32 42" version="1.1">
<g id="surface1">
<path style=" stroke:none;fill-rule:nonzero;fill:rgb(13.333333%,33.333333%,54.901961%);fill-opacity:1;" d="M 11.164062 10.609375 C 11.164062 10.609375 16.09375 9.589844 20.753906 10.609375 C 20.753906 10.609375 21.367188 10.679688 21.082031 10.238281 C 21.082031 10.238281 20.992188 10.042969 21.332031 10 C 21.675781 9.957031 21.332031 9.589844 21.332031 9.589844 L 22.613281 8.414062 C 22.613281 8.414062 22.976562 8.457031 23.097656 8.273438 C 23.21875 8.089844 23.097656 7.722656 23.097656 7.722656 L 23.382812 7.347656 L 24.011719 7.257812 L 23.734375 6.804688 C 23.734375 6.804688 24.820312 5.300781 23.484375 3.710938 C 23.484375 3.710938 22.457031 2.707031 20.242188 3.046875 C 20.242188 3.046875 19.597656 2.0625 18.375 2.125 C 17.152344 2.191406 16.621094 2.515625 16.621094 2.515625 C 16.621094 2.515625 16.601562 2.066406 16.226562 1.90625 L 16.226562 1.589844 L 16.417969 1.292969 L 16.5625 1.015625 L 16.046875 0 L 15.550781 1.019531 L 15.855469 1.589844 L 15.847656 1.949219 C 15.847656 1.949219 15.542969 2.050781 15.5625 2.496094 C 15.5625 2.496094 12.894531 1.488281 11.902344 3.03125 C 11.902344 3.03125 8.4375 2.292969 7.921875 5.011719 C 7.921875 5.011719 7.816406 5.867188 8.40625 6.765625 L 8.007812 7.285156 L 8.6875 7.332031 L 9.042969 7.792969 C 9.042969 7.792969 8.867188 8.015625 9.050781 8.246094 C 9.230469 8.480469 9.480469 8.414062 9.480469 8.414062 L 10.796875 9.472656 C 10.796875 9.472656 10.820312 9.617188 10.5 9.898438 C 10.179688 10.179688 11.109375 10.027344 11.109375 10.027344 C 11.109375 10.027344 11.277344 10.242188 11.121094 10.285156 C 10.964844 10.324219 10.867188 10.542969 11.167969 10.613281 Z M 11.164062 10.609375 "/>
<path style=" stroke:none;fill-rule:nonzero;fill:rgb(100%,81.568627%,17.647059%);fill-opacity:1;" d="M 11.5625 3.730469 C 11.5625 3.730469 11.480469 4.644531 12.109375 5.535156 C 12.109375 5.535156 11.867188 5.824219 11.882812 5.980469 L 11.4375 5.914062 L 11.773438 6.449219 L 11.375 6.449219 L 11.375 6.859375 C 11.375 6.859375 11.1875 7.164062 10.996094 7.171875 L 11.027344 7.308594 L 11.414062 7.40625 C 11.414062 7.40625 11.605469 7.5625 11.550781 7.851562 L 11.839844 7.644531 L 12.234375 7.644531 C 12.234375 7.644531 12.3125 8.199219 11.941406 8.304688 C 11.574219 8.414062 11.296875 8.191406 11.296875 8.191406 L 11.277344 7.714844 C 11.277344 7.714844 11.230469 7.53125 10.941406 7.550781 C 10.648438 7.574219 10.660156 8.152344 10.660156 8.152344 C 10.660156 8.152344 11.035156 8.457031 10.71875 8.5625 C 10.40625 8.664062 10.074219 8.28125 10.074219 8.28125 C 10.074219 8.28125 10.03125 8.0625 10.285156 8.054688 C 10.539062 8.042969 10.582031 7.335938 10.582031 7.335938 C 10.582031 7.335938 10.464844 6.945312 10.207031 6.984375 C 9.949219 7.023438 9.695312 7.265625 9.507812 7.167969 C 9.320312 7.070312 8.929688 6.605469 8.929688 6.605469 L 8.96875 5.9375 L 8.703125 5.386719 L 8.730469 4.519531 C 8.730469 4.519531 9.039062 3.601562 10.136719 3.589844 C 11.230469 3.578125 11.5625 3.730469 11.5625 3.730469 Z M 11.5625 3.730469 "/>
<path style=" stroke:none;fill-rule:nonzero;fill:rgb(100%,81.568627%,17.647059%);fill-opacity:1;" d="M 20.527344 3.78125 C 20.527344 3.78125 20.609375 4.6875 19.980469 5.566406 C 19.980469 5.566406 20.222656 5.855469 20.207031 6.007812 L 20.652344 5.945312 L 20.316406 6.472656 L 20.714844 6.472656 L 20.714844 6.878906 C 20.714844 6.878906 20.902344 7.175781 21.09375 7.1875 L 21.0625 7.320312 L 20.675781 7.417969 C 20.675781 7.417969 20.484375 7.570312 20.539062 7.859375 L 20.25 7.652344 L 19.855469 7.652344 C 19.855469 7.652344 19.777344 8.203125 20.148438 8.308594 C 20.515625 8.414062 20.792969 8.195312 20.792969 8.195312 L 20.8125 7.722656 C 20.8125 7.722656 20.859375 7.539062 21.148438 7.5625 C 21.441406 7.582031 21.429688 8.152344 21.429688 8.152344 C 21.429688 8.152344 21.054688 8.457031 21.371094 8.558594 C 21.683594 8.660156 22.015625 8.28125 22.015625 8.28125 C 22.015625 8.28125 22.058594 8.066406 21.804688 8.058594 C 21.550781 8.046875 21.507812 7.347656 21.507812 7.347656 C 21.507812 7.347656 21.625 6.960938 21.882812 7 C 22.140625 7.039062 22.394531 7.277344 22.582031 7.179688 C 22.769531 7.085938 23.160156 6.625 23.160156 6.625 L 23.121094 5.964844 L 23.386719 5.417969 L 23.359375 4.558594 C 23.359375 4.558594 23.050781 3.652344 21.953125 3.640625 C 20.859375 3.628906 20.527344 3.78125 20.527344 3.78125 Z M 20.527344 3.78125 "/>
<path style=" stroke:none;fill-rule:nonzero;fill:rgb(100%,81.568627%,17.647059%);fill-opacity:1;" d="M 15.261719 2.875 L 15.261719 4.410156 C 15.261719 4.410156 14.820312 4.613281 15.390625 5.175781 C 15.390625 5.175781 15.46875 5.320312 15.246094 5.359375 C 15.023438 5.394531 15.265625 5.738281 15.183594 5.761719 C 15.101562 5.789062 14.558594 5.761719 14.558594 5.761719 L 14.589844 6.164062 C 14.589844 6.164062 14.765625 6.339844 14.621094 6.425781 C 14.476562 6.511719 14.324219 6.375 14.3125 6.546875 C 14.300781 6.71875 14.527344 6.949219 14.542969 6.957031 C 14.558594 6.960938 14.742188 7.042969 14.742188 7.042969 L 14.808594 7.414062 C 14.808594 7.414062 14.945312 7.0625 15.324219 7.097656 C 15.707031 7.128906 15.894531 7.0625 15.652344 7.609375 C 15.410156 8.15625 14.746094 7.945312 14.746094 7.945312 C 14.746094 7.945312 14.480469 7.949219 14.445312 7.597656 C 14.40625 7.25 14.40625 7.085938 14.40625 7.085938 C 14.40625 7.085938 14.328125 6.882812 14.152344 6.890625 C 14.109375 6.894531 14.0625 6.914062 14.019531 6.945312 C 13.859375 7.058594 13.78125 7.257812 13.808594 7.449219 L 13.847656 7.726562 C 13.847656 7.726562 13.929688 8.101562 13.335938 8.101562 C 12.742188 8.101562 12.707031 7.527344 12.707031 7.527344 L 13.453125 7.386719 L 13.539062 7.074219 L 13.902344 6.777344 C 13.902344 6.777344 13.414062 6.761719 13.1875 6.121094 C 13.1875 6.121094 13.050781 6.304688 12.949219 6.253906 C 12.851562 6.207031 12.941406 5.632812 12.941406 5.632812 C 12.941406 5.632812 12.582031 5.992188 12.539062 5.828125 C 12.492188 5.664062 12.691406 5.375 12.691406 5.375 L 12.621094 5.066406 C 12.621094 5.066406 12.175781 4.539062 12.242188 3.875 C 12.304688 3.210938 12.679688 2.75 13.390625 2.609375 C 14.101562 2.472656 15.261719 2.875 15.261719 2.875 Z M 15.261719 2.875 "/>
<path style=" stroke:none;fill-rule:nonzero;fill:rgb(100%,81.568627%,17.647059%);fill-opacity:1;" d="M 16.871094 2.839844 L 16.871094 4.375 C 16.871094 4.375 17.3125 4.578125 16.738281 5.140625 C 16.738281 5.140625 16.664062 5.285156 16.886719 5.324219 C 17.109375 5.363281 16.867188 5.703125 16.949219 5.730469 C 17.03125 5.753906 17.570312 5.730469 17.570312 5.730469 L 17.542969 6.128906 C 17.542969 6.128906 17.367188 6.308594 17.511719 6.394531 C 17.652344 6.480469 17.808594 6.339844 17.820312 6.511719 C 17.828125 6.683594 17.605469 6.917969 17.585938 6.921875 C 17.570312 6.929688 17.390625 7.007812 17.390625 7.007812 L 17.324219 7.378906 C 17.324219 7.378906 17.183594 7.03125 16.804688 7.0625 C 16.425781 7.09375 16.238281 7.03125 16.480469 7.574219 C 16.722656 8.121094 17.382812 7.910156 17.382812 7.910156 C 17.382812 7.910156 17.648438 7.914062 17.6875 7.566406 C 17.726562 7.214844 17.726562 7.050781 17.726562 7.050781 C 17.726562 7.050781 17.804688 6.847656 17.980469 6.855469 C 18.023438 6.859375 18.070312 6.882812 18.113281 6.914062 C 18.273438 7.027344 18.347656 7.222656 18.320312 7.414062 L 18.28125 7.695312 C 18.28125 7.695312 18.199219 8.066406 18.792969 8.066406 C 19.390625 8.066406 19.421875 7.496094 19.421875 7.496094 L 18.679688 7.355469 L 18.589844 7.039062 L 18.226562 6.742188 C 18.226562 6.742188 18.71875 6.726562 18.941406 6.085938 C 18.941406 6.085938 19.082031 6.269531 19.179688 6.21875 C 19.277344 6.171875 19.191406 5.601562 19.191406 5.601562 C 19.191406 5.601562 19.550781 5.957031 19.59375 5.792969 C 19.636719 5.632812 19.4375 5.339844 19.4375 5.339844 L 19.511719 5.03125 C 19.511719 5.03125 19.953125 4.503906 19.890625 3.839844 C 19.824219 3.175781 19.453125 2.714844 18.742188 2.578125 C 18.03125 2.4375 16.871094 2.839844 16.871094 2.839844 Z M 16.871094 2.839844 "/>
<path style=" stroke:none;fill-rule:nonzero;fill:rgb(100%,81.568627%,17.647059%);fill-opacity:1;" d="M 21.191406 10 C 21.179688 10 21.171875 9.996094 21.160156 9.996094 C 21.027344 9.964844 20.890625 9.9375 20.757812 9.910156 C 20.6875 9.894531 20.644531 9.828125 20.660156 9.761719 C 20.671875 9.691406 20.742188 9.648438 20.8125 9.660156 C 20.945312 9.6875 21.082031 9.71875 21.21875 9.75 C 21.289062 9.761719 21.332031 9.832031 21.316406 9.898438 C 21.304688 9.957031 21.25 10 21.191406 10 Z M 21.191406 10 "/>
<path style=" stroke:none;fill-rule:nonzero;fill:rgb(100%,81.568627%,17.647059%);fill-opacity:1;" d="M 19.160156 9.640625 C 19.152344 9.640625 19.148438 9.640625 19.140625 9.636719 C 18.796875 9.589844 18.453125 9.550781 18.109375 9.519531 C 18.035156 9.515625 17.984375 9.453125 17.992188 9.382812 C 17.996094 9.3125 18.058594 9.261719 18.132812 9.269531 C 18.480469 9.300781 18.832031 9.339844 19.175781 9.386719 C 19.246094 9.394531 19.296875 9.460938 19.285156 9.53125 C 19.277344 9.59375 19.222656 9.640625 19.160156 9.640625 Z M 19.160156 9.640625 "/>
<path style=" stroke:none;fill-rule:nonzero;fill:rgb(100%,81.568627%,17.647059%);fill-opacity:1;" d="M 16.738281 9.433594 C 16.738281 9.433594 16.734375 9.433594 16.734375 9.433594 C 16.292969 9.417969 15.851562 9.414062 15.417969 9.421875 C 15.347656 9.425781 15.285156 9.367188 15.285156 9.296875 C 15.285156 9.226562 15.339844 9.167969 15.410156 9.167969 C 15.851562 9.160156 16.300781 9.164062 16.742188 9.179688 C 16.8125 9.183594 16.871094 9.242188 16.867188 9.3125 C 16.863281 9.378906 16.804688 9.433594 16.738281 9.433594 Z M 16.738281 9.433594 "/>
<path style=" stroke:none;fill-rule:nonzero;fill:rgb(100%,81.568627%,17.647059%);fill-opacity:1;" d="M 12.902344 9.609375 C 12.835938 9.609375 12.78125 9.5625 12.773438 9.5 C 12.761719 9.429688 12.8125 9.363281 12.882812 9.355469 C 13.253906 9.308594 13.640625 9.265625 14.027344 9.234375 C 14.097656 9.230469 14.160156 9.28125 14.164062 9.351562 C 14.171875 9.421875 14.117188 9.484375 14.046875 9.488281 C 13.664062 9.519531 13.285156 9.558594 12.917969 9.605469 C 12.910156 9.609375 12.90625 9.609375 12.902344 9.609375 Z M 12.902344 9.609375 "/>
<path style=" stroke:none;fill-rule:nonzero;fill:rgb(100%,81.568627%,17.647059%);fill-opacity:1;" d="M 10.925781 9.988281 C 10.871094 9.988281 10.820312 9.953125 10.804688 9.898438 C 10.78125 9.832031 10.820312 9.761719 10.886719 9.738281 C 10.890625 9.738281 11.035156 9.695312 11.371094 9.617188 C 11.441406 9.605469 11.507812 9.644531 11.523438 9.714844 C 11.542969 9.78125 11.496094 9.851562 11.425781 9.867188 C 11.105469 9.9375 10.964844 9.980469 10.964844 9.980469 C 10.953125 9.984375 10.9375 9.988281 10.925781 9.988281 Z M 10.925781 9.988281 "/>
<path style=" stroke:none;fill-rule:nonzero;fill:rgb(100%,81.568627%,17.647059%);fill-opacity:1;" d="M 12.40625 9.609375 C 12.40625 9.726562 12.308594 9.820312 12.191406 9.820312 C 12.070312 9.820312 11.972656 9.726562 11.972656 9.609375 C 11.972656 9.492188 12.070312 9.398438 12.191406 9.398438 C 12.308594 9.398438 12.40625 9.492188 12.40625 9.609375 Z M 12.40625 9.609375 "/>
<path style=" stroke:none;fill-rule:nonzero;fill:rgb(100%,81.568627%,17.647059%);fill-opacity:1;" d="M 14.855469 9.296875 C 14.855469 9.414062 14.761719 9.511719 14.640625 9.511719 C 14.523438 9.511719 14.425781 9.414062 14.425781 9.296875 C 14.425781 9.183594 14.523438 9.085938 14.640625 9.085938 C 14.761719 9.085938 14.855469 9.183594 14.855469 9.296875 Z M 14.855469 9.296875 "/>
<path style=" stroke:none;fill-rule:nonzero;fill:rgb(100%,81.568627%,17.647059%);fill-opacity:1;" d="M 17.695312 9.296875 C 17.695312 9.414062 17.601562 9.511719 17.480469 9.511719 C 17.363281 9.511719 17.265625 9.414062 17.265625 9.296875 C 17.265625 9.183594 17.363281 9.085938 17.480469 9.085938 C 17.601562 9.085938 17.695312 9.183594 17.695312 9.296875 Z M 17.695312 9.296875 "/>
<path style=" stroke:none;fill-rule:nonzero;fill:rgb(100%,81.568627%,17.647059%);fill-opacity:1;" d="M 20.085938 9.640625 C 20.085938 9.753906 19.988281 9.851562 19.871094 9.851562 C 19.75 9.851562 19.65625 9.753906 19.65625 9.640625 C 19.65625 9.523438 19.75 9.429688 19.871094 9.429688 C 19.988281 9.429688 20.085938 9.523438 20.085938 9.640625 Z M 20.085938 9.640625 "/>
<path style=" stroke:none;fill-rule:nonzero;fill:rgb(100%,81.568627%,17.647059%);fill-opacity:1;" d="M 22.988281 8.066406 C 22.988281 8.15625 22.914062 8.230469 22.820312 8.230469 C 22.726562 8.230469 22.652344 8.15625 22.652344 8.066406 C 22.652344 7.972656 22.726562 7.898438 22.820312 7.898438 C 22.914062 7.898438 22.988281 7.972656 22.988281 8.066406 Z M 22.988281 8.066406 "/>
<path style=" stroke:none;fill-rule:nonzero;fill:rgb(100%,81.568627%,17.647059%);fill-opacity:1;" d="M 19.871094 6.957031 C 19.871094 7.046875 19.792969 7.121094 19.703125 7.121094 C 19.609375 7.121094 19.53125 7.046875 19.53125 6.957031 C 19.53125 6.863281 19.609375 6.789062 19.703125 6.789062 C 19.792969 6.789062 19.871094 6.863281 19.871094 6.957031 Z M 19.871094 6.957031 "/>
<path style=" stroke:none;fill-rule:nonzero;fill:rgb(100%,81.568627%,17.647059%);fill-opacity:1;" d="M 12.574219 6.957031 C 12.574219 7.046875 12.5 7.121094 12.40625 7.121094 C 12.3125 7.121094 12.238281 7.046875 12.238281 6.957031 C 12.238281 6.863281 12.3125 6.789062 12.40625 6.789062 C 12.5 6.789062 12.574219 6.863281 12.574219 6.957031 Z M 12.574219 6.957031 "/>
<path style=" stroke:none;fill-rule:nonzero;fill:rgb(100%,81.568627%,17.647059%);fill-opacity:1;" d="M 9.5 8.050781 C 9.5 8.140625 9.421875 8.214844 9.332031 8.214844 C 9.238281 8.214844 9.160156 8.140625 9.160156 8.050781 C 9.160156 7.957031 9.238281 7.882812 9.332031 7.882812 C 9.421875 7.882812 9.5 7.957031 9.5 8.050781 Z M 9.5 8.050781 "/>
<path style=" stroke:none;fill-rule:nonzero;fill:rgb(100%,81.568627%,17.647059%);fill-opacity:1;" d="M 16.242188 6.46875 C 16.242188 6.578125 16.152344 6.667969 16.039062 6.667969 C 15.925781 6.667969 15.835938 6.578125 15.835938 6.46875 C 15.835938 6.359375 15.925781 6.269531 16.039062 6.269531 C 16.152344 6.269531 16.242188 6.359375 16.242188 6.46875 Z M 16.242188 6.46875 "/>
<path style=" stroke:none;fill-rule:nonzero;fill:rgb(100%,81.568627%,17.647059%);fill-opacity:1;" d="M 16.277344 4.472656 C 16.277344 4.582031 16.1875 4.671875 16.074219 4.671875 C 15.964844 4.671875 15.875 4.582031 15.875 4.472656 C 15.875 4.363281 15.964844 4.273438 16.074219 4.273438 C 16.1875 4.273438 16.277344 4.363281 16.277344 4.472656 Z M 16.277344 4.472656 "/>
<path style=" stroke:none;fill-rule:nonzero;fill:rgb(100%,81.568627%,17.647059%);fill-opacity:1;" d="M 16.242188 3.199219 C 16.242188 3.289062 16.167969 3.363281 16.074219 3.363281 C 15.984375 3.363281 15.910156 3.289062 15.910156 3.199219 C 15.910156 3.109375 15.984375 3.039062 16.074219 3.039062 C 16.167969 3.039062 16.242188 3.109375 16.242188 3.199219 Z M 16.242188 3.199219 "/>
<path style=" stroke:none;fill-rule:nonzero;fill:rgb(100%,81.568627%,17.647059%);fill-opacity:1;" d="M 20.082031 8.722656 C 19.722656 8.664062 19.363281 8.617188 18.996094 8.578125 C 18.976562 8.574219 18.960938 8.574219 18.945312 8.574219 C 19.105469 8.566406 19.28125 8.535156 19.414062 8.457031 C 19.492188 8.410156 19.554688 8.347656 19.625 8.273438 C 19.761719 8.484375 19.90625 8.636719 20.082031 8.722656 Z M 20.082031 8.722656 "/>
<path style=" stroke:none;fill-rule:nonzero;fill:rgb(100%,81.568627%,17.647059%);fill-opacity:1;" d="M 12.664062 8.457031 C 12.792969 8.535156 12.972656 8.566406 13.132812 8.574219 C 13.117188 8.574219 13.097656 8.574219 13.082031 8.578125 C 12.714844 8.617188 12.351562 8.664062 11.996094 8.722656 C 12.171875 8.636719 12.316406 8.484375 12.453125 8.273438 C 12.523438 8.347656 12.585938 8.410156 12.664062 8.457031 Z M 12.664062 8.457031 "/>
<path style=" stroke:none;fill-rule:nonzero;fill:rgb(100%,81.568627%,17.647059%);fill-opacity:1;" d="M 10.898438 8.925781 C 10.980469 8.867188 11.070312 8.78125 11.140625 8.6875 C 11.285156 8.75 11.414062 8.785156 11.53125 8.800781 C 11.320312 8.839844 11.109375 8.878906 10.898438 8.925781 Z M 10.898438 8.925781 "/>
<path style=" stroke:none;fill-rule:nonzero;fill:rgb(100%,81.568627%,17.647059%);fill-opacity:1;" d="M 13.492188 8.539062 C 13.59375 8.511719 13.699219 8.476562 13.804688 8.417969 C 13.933594 8.351562 14.0625 8.257812 14.179688 8.140625 C 14.289062 8.234375 14.402344 8.308594 14.511719 8.363281 C 14.59375 8.40625 14.675781 8.433594 14.757812 8.453125 C 14.683594 8.457031 14.609375 8.460938 14.535156 8.464844 C 14.1875 8.480469 13.839844 8.503906 13.492188 8.539062 Z M 13.492188 8.539062 "/>
<path style=" stroke:none;fill-rule:nonzero;fill:rgb(100%,81.568627%,17.647059%);fill-opacity:1;" d="M 16.039062 8.429688 C 15.792969 8.429688 15.542969 8.429688 15.296875 8.4375 C 15.40625 8.402344 15.523438 8.34375 15.636719 8.269531 C 15.777344 8.171875 15.917969 8.046875 16.039062 7.898438 C 16.160156 8.046875 16.300781 8.171875 16.441406 8.269531 C 16.554688 8.34375 16.667969 8.402344 16.785156 8.4375 C 16.535156 8.433594 16.285156 8.429688 16.039062 8.429688 Z M 16.039062 8.429688 "/>
<path style=" stroke:none;fill-rule:nonzero;fill:rgb(100%,81.568627%,17.647059%);fill-opacity:1;" d="M 17.542969 8.464844 C 17.46875 8.460938 17.394531 8.457031 17.320312 8.453125 C 17.402344 8.433594 17.484375 8.40625 17.566406 8.363281 C 17.671875 8.308594 17.789062 8.234375 17.894531 8.140625 C 18.015625 8.257812 18.144531 8.351562 18.273438 8.417969 C 18.378906 8.476562 18.484375 8.511719 18.585938 8.539062 C 18.238281 8.507812 17.890625 8.480469 17.542969 8.464844 Z M 17.542969 8.464844 "/>
<path style=" stroke:none;fill-rule:nonzero;fill:rgb(100%,81.568627%,17.647059%);fill-opacity:1;" d="M 20.546875 8.800781 C 20.664062 8.785156 20.792969 8.75 20.9375 8.6875 C 21.007812 8.78125 21.097656 8.867188 21.179688 8.925781 C 20.96875 8.878906 20.757812 8.839844 20.546875 8.800781 Z M 20.546875 8.800781 "/>
<path style=" stroke:none;fill-rule:nonzero;fill:rgb(13.333333%,33.333333%,54.901961%);fill-opacity:1;" d="M 31.992188 26.339844 C 31.992188 34.988281 24.832031 42 16 42 C 7.167969 42 0.0117188 34.988281 0.0117188 26.339844 C 0.0117188 17.691406 7.167969 10.679688 16 10.679688 C 24.832031 10.679688 31.992188 17.691406 31.992188 26.339844 Z M 31.992188 26.339844 "/>
<path style=" stroke:none;fill-rule:nonzero;fill:rgb(100%,81.568627%,17.647059%);fill-opacity:1;" d="M 16 41.101562 C 11.972656 41.101562 8.1875 39.566406 5.34375 36.777344 C 2.496094 33.988281 0.929688 30.28125 0.929688 26.339844 C 0.929688 22.394531 2.496094 18.6875 5.34375 15.902344 C 8.1875 13.113281 11.972656 11.578125 16 11.578125 C 20.027344 11.578125 23.8125 13.113281 26.65625 15.902344 C 29.503906 18.6875 31.074219 22.394531 31.074219 26.339844 C 31.074219 30.28125 29.503906 33.988281 26.65625 36.777344 C 23.8125 39.566406 20.027344 41.101562 16 41.101562 Z M 16 41.101562 "/>
<path style=" stroke:none;fill-rule:nonzero;fill:rgb(13.333333%,33.333333%,54.901961%);fill-opacity:1;" d="M 16 39.664062 C 12.367188 39.664062 8.949219 38.277344 6.378906 35.761719 C 3.8125 33.242188 2.394531 29.898438 2.394531 26.339844 C 2.394531 22.78125 3.8125 19.433594 6.378906 16.917969 C 8.949219 14.402344 12.367188 13.015625 16 13.015625 C 19.632812 13.015625 23.050781 14.402344 25.621094 16.917969 C 28.191406 19.433594 29.605469 22.78125 29.605469 26.339844 C 29.605469 29.898438 28.191406 33.242188 25.621094 35.761719 C 23.050781 38.277344 19.632812 39.664062 16 39.664062 Z M 16 39.664062 "/>
<path style=" stroke:none;fill-rule:nonzero;fill:rgb(100%,81.568627%,17.647059%);fill-opacity:1;" d="M 16 35.347656 C 13.542969 35.347656 11.234375 34.410156 9.496094 32.710938 C 7.757812 31.007812 6.800781 28.746094 6.800781 26.339844 C 6.800781 23.933594 7.757812 21.671875 9.496094 19.96875 C 11.234375 18.265625 13.542969 17.328125 16 17.328125 C 18.457031 17.328125 20.765625 18.265625 22.503906 19.96875 C 24.609375 22.03125 25.199219 23.21875 25.199219 26.339844 C 25.199219 28.746094 24.242188 31.007812 22.503906 32.710938 C 20.765625 34.410156 18.457031 35.347656 16 35.347656 Z M 16 35.347656 "/>
<path style=" stroke:none;fill-rule:nonzero;fill:rgb(12.941176%,32.54902%,61.960784%);fill-opacity:1;" d="M 8.554688 22.585938 C 8.554688 22.585938 8.851562 22.976562 9.191406 22.480469 C 9.191406 22.480469 9.578125 23.664062 10.207031 24.066406 L 10.265625 24.429688 L 11.710938 25.757812 L 11.710938 26.171875 L 11.546875 26.464844 L 11.546875 26.878906 L 12.257812 27.257812 L 12.257812 27.613281 L 12.585938 28.082031 L 12.792969 28.753906 L 12.867188 28.886719 L 13.597656 29.273438 L 13.597656 30.425781 L 13.953125 30.859375 L 14.347656 31.695312 L 15.363281 31.695312 L 15.449219 31.394531 C 15.449219 31.394531 16.628906 31.355469 19.101562 29.558594 L 19.238281 29.175781 L 19.796875 29.125 C 19.796875 29.125 21.152344 28.089844 21.671875 27.386719 L 21.757812 26.285156 L 22.582031 26.222656 L 22.582031 24.949219 C 22.582031 24.949219 22.34375 24.554688 21.0625 24.417969 C 21.0625 24.417969 20.78125 24.515625 20.613281 23.859375 C 20.574219 23.703125 20.46875 23.570312 20.316406 23.515625 C 20.15625 23.457031 19.941406 23.472656 19.722656 23.785156 L 19.648438 24.261719 L 18.367188 24.441406 L 18.0625 23.746094 L 17.546875 23.703125 L 17.449219 23.292969 L 16.152344 21.726562 L 16.539062 21.566406 L 16.558594 21.128906 L 17.382812 21.226562 L 17.457031 21.769531 C 17.457031 21.769531 17.722656 22.289062 18.550781 22.636719 C 19.375 22.984375 20.226562 22.835938 20.226562 22.835938 C 20.226562 22.835938 20.402344 22.570312 20.625 22.628906 C 20.726562 22.652344 20.84375 22.78125 20.941406 22.917969 C 21.191406 23.257812 21.617188 23.441406 22.039062 23.359375 C 22.21875 23.324219 22.414062 23.253906 22.625 23.128906 L 22.675781 22.425781 C 22.675781 22.425781 23.992188 24.492188 23.351562 27.742188 C 22.609375 31.53125 18.65625 33.332031 18.65625 33.332031 L 18.691406 32.1875 C 18.691406 32.1875 18.613281 31.558594 17.167969 32.066406 L 16.003906 32.574219 L 15.550781 32.660156 L 14.679688 33.019531 L 14.6875 32.347656 L 13.851562 32.25 L 13.863281 31.519531 C 13.863281 31.519531 13.421875 31.398438 13.234375 30.707031 C 13.234375 30.707031 12.1875 30.621094 11.808594 29.621094 L 11.746094 28.65625 C 11.746094 28.65625 10.523438 28.386719 10.65625 26.789062 L 10.179688 26.011719 C 10.179688 26.011719 9.429688 25.839844 9.507812 24.285156 L 8.8125 23.582031 C 8.8125 23.582031 9.046875 23.101562 8.554688 22.585938 Z M 8.554688 22.585938 "/>
<path style=" stroke:none;fill-rule:nonzero;fill:rgb(12.941176%,32.54902%,61.960784%);fill-opacity:1;" d="M 17.738281 27.6875 L 17.109375 28.140625 L 16.636719 27.425781 L 16.660156 27.414062 C 17.097656 27.117188 17.195312 26.519531 16.875 26.105469 L 15.753906 24.652344 L 16.25 24.382812 L 15.488281 24.285156 L 14.664062 24.742188 L 13.167969 22.636719 L 13.710938 22.289062 L 12.984375 22.199219 C 12.011719 23.339844 11.523438 22.199219 11.523438 22.199219 C 11.679688 23.558594 12.792969 22.914062 12.792969 22.914062 L 16.992188 28.765625 L 18.402344 27.75 Z M 16.308594 27.007812 L 15 25.234375 L 15.382812 24.957031 L 16.4375 26.230469 C 16.640625 26.476562 16.578125 26.839844 16.304688 27.007812 Z M 16.308594 27.007812 "/>
<path style=" stroke:none;fill-rule:nonzero;fill:rgb(12.941176%,32.54902%,61.960784%);fill-opacity:1;" d="M 19.308594 27.074219 C 19.308594 27.226562 19.183594 27.347656 19.03125 27.347656 C 18.878906 27.347656 18.753906 27.226562 18.753906 27.074219 C 18.753906 26.925781 18.878906 26.804688 19.03125 26.804688 C 19.183594 26.804688 19.308594 26.925781 19.308594 27.074219 Z M 19.308594 27.074219 "/>
<path style="fill-rule:nonzero;fill:rgb(100%,81.568627%,17.647059%);fill-opacity:1;stroke-width:3;stroke-linecap:butt;stroke-linejoin:miter;stroke:rgb(100%,81.568627%,17.647059%);stroke-opacity:1;stroke-miterlimit:10;" d="M 102.57478 496.103195 C 102.87639 496.472732 103.117677 496.903858 103.419286 497.396574 C 103.720896 497.889289 104.022505 498.320416 104.324114 498.813132 C 104.625724 499.305847 104.927333 499.736974 105.228942 500.229689 C 105.530552 500.722405 105.832161 501.153531 106.073448 501.523068 C 106.556023 502.200552 107.521173 503.555521 108.968898 505.526384 C 110.416623 507.558836 112.407244 510.207184 115.061406 513.471426 C 114.337544 513.902552 113.553359 514.395268 112.829497 514.949573 C 112.045313 515.503878 111.200807 516.119773 110.416623 516.797257 C 110.054691 516.366131 109.873726 516.181363 109.572116 515.750236 C 110.115013 515.072752 110.537266 514.456857 110.838876 513.902552 C 111.140485 513.348247 111.321451 512.793942 111.321451 512.239636 C 111.321451 511.685331 111.200807 511.069436 110.899197 510.453542 C 110.597588 509.837647 110.115013 509.098573 109.451473 508.174731 C 108.426001 506.881352 107.943426 506.203868 106.978276 504.8489 C 106.616345 504.294594 106.314736 503.986647 106.13377 503.925058 C 105.952805 503.801879 105.711517 503.863468 105.349586 504.109826 C 102.393815 506.203868 100.885768 507.250889 97.929997 509.344931 C 100.523837 512.917121 101.91124 514.641626 104.686046 518.029047 C 104.686046 518.152226 104.686046 518.213815 104.686046 518.336994 C 104.022505 518.82971 103.660574 519.076068 102.997033 519.568783 C 101.850918 517.844278 100.704803 516.242952 99.679331 514.703215 C 98.593537 513.163478 97.568066 511.685331 96.602916 510.207184 C 94.069398 511.993278 92.742317 512.917121 90.208798 514.703215 C 89.846867 514.949573 89.60558 515.195931 89.424614 515.442289 C 89.30397 515.688647 89.243648 515.996594 89.30397 516.42772 C 89.424614 516.858847 89.665901 517.413152 90.027833 518.090636 C 90.389764 518.82971 90.992982 519.691962 91.777167 520.800573 C 91.475557 520.985341 91.354914 521.10852 91.053304 521.293289 C 90.751695 520.862162 90.389764 520.369447 89.967511 519.815141 C 89.545258 519.199247 89.062683 518.583352 88.64043 517.905868 C 88.157855 517.228384 87.735602 516.612489 87.253027 515.996594 C 86.830774 515.31911 86.529165 514.826394 86.227555 514.395268 C 85.986268 514.025731 85.684658 513.656194 85.383049 513.163478 C 85.021118 512.670763 84.719509 512.239636 84.417899 511.685331 C 84.055968 511.192615 83.754359 510.6999 83.45275 510.268773 C 83.090818 509.776057 82.849531 509.344931 82.608243 508.975394 C 82.909853 508.790626 83.030496 508.667447 83.271784 508.482679 C 83.875003 509.283342 84.417899 509.960826 84.840152 510.453542 C 85.262405 510.884668 85.684658 511.192615 86.04659 511.377384 C 86.408521 511.562152 86.830774 511.562152 87.192705 511.438973 C 87.614958 511.315794 88.037211 511.131026 88.580108 510.761489 C 94.129719 507.066121 96.904525 505.218437 102.454137 501.523068 C 102.755746 501.27671 102.997033 501.091942 103.177999 500.845584 C 103.358965 500.599226 103.419286 500.291279 103.358965 499.983331 C 103.358965 499.613795 103.238321 499.182668 102.936711 498.628363 C 102.695424 498.074058 102.273171 497.334984 101.790596 496.472732 C 102.092205 496.349553 102.273171 496.226374 102.57478 496.103195 Z M 102.57478 496.103195 " transform="matrix(0.0647568,0,0,0.063424,0.00993068,0)"/>
<path style="fill-rule:nonzero;fill:rgb(100%,81.568627%,17.647059%);fill-opacity:1;stroke-width:3;stroke-linecap:butt;stroke-linejoin:miter;stroke:rgb(100%,81.568627%,17.647059%);stroke-opacity:1;stroke-miterlimit:10;" d="M 127.849641 526.836341 C 129.41801 528.437667 130.684769 530.038994 131.71024 531.701909 C 132.735712 533.426415 133.399253 535.08933 133.700862 536.752246 C 134.002471 538.415162 134.002471 540.078078 133.64054 541.740993 C 133.278609 543.403909 132.494425 544.943646 131.348309 546.360204 C 130.141872 547.776762 128.814791 548.823783 127.186101 549.501267 C 125.617732 550.178751 123.868398 550.486698 121.99842 550.363519 C 120.128443 550.24034 118.198143 549.686035 116.267843 548.700604 C 114.277222 547.776762 112.346922 546.360204 110.476944 544.51252 C 108.667289 542.726425 107.219564 540.817151 106.13377 538.846288 C 105.108299 536.937015 104.444758 534.966151 104.203471 533.118467 C 103.962183 531.270783 104.143149 529.546278 104.746367 527.944952 C 105.349586 526.282036 106.375058 524.927068 107.762461 523.695278 C 109.149863 522.525078 110.718232 521.724415 112.407244 521.354878 C 114.035934 520.923752 115.785268 520.862162 117.534602 521.17011 C 119.283937 521.416468 121.033271 522.032362 122.782605 523.017794 C 124.531939 523.941636 126.220951 525.235015 127.849641 526.836341 Z M 126.763848 527.637004 C 125.738376 526.651573 124.652582 525.78932 123.446145 525.111836 C 122.30003 524.372762 121.033271 523.941636 119.70619 523.756868 C 118.43943 523.572099 117.052028 523.695278 115.664625 524.064815 C 114.277222 524.495941 112.889819 525.358194 111.502416 526.589983 C 109.813404 528.068131 108.72761 529.607867 108.06407 531.147604 C 107.460851 532.74893 107.279886 534.288667 107.400529 535.766815 C 107.521173 537.306551 108.003748 538.723109 108.787932 540.078078 C 109.572116 541.433046 110.476944 542.664835 111.562738 543.711856 C 112.708853 544.820467 113.915291 545.805898 115.242372 546.544972 C 116.569453 547.284046 117.956856 547.715172 119.344258 547.838351 C 120.671339 547.96153 122.058742 547.715172 123.385823 547.160867 C 124.773226 546.606562 126.039985 545.62113 127.306744 544.204572 C 128.754469 542.480067 129.659297 540.878741 130.141872 539.277414 C 130.624447 537.676088 130.745091 536.197941 130.564125 534.781383 C 130.383159 533.364825 129.900585 532.071446 129.237044 530.839657 C 128.513182 529.669457 127.728997 528.622436 126.763848 527.637004 Z M 126.763848 527.637004 " transform="matrix(0.0647568,0,0,0.063424,0.00993068,0)"/>
<path style="fill-rule:nonzero;fill:rgb(100%,81.568627%,17.647059%);fill-opacity:1;stroke-width:3;stroke-linecap:butt;stroke-linejoin:miter;stroke:rgb(100%,81.568627%,17.647059%);stroke-opacity:1;stroke-miterlimit:10;" d="M 154.210296 548.146298 C 156.019951 549.316498 157.527998 550.609877 158.794757 552.026435 C 160.061516 553.442993 161.026666 554.92114 161.629885 556.522467 C 162.233103 558.062203 162.534713 559.725119 162.474391 561.388035 C 162.414069 563.050951 161.931494 564.713866 161.086988 566.315193 C 160.18216 567.978108 159.096367 569.271487 157.648642 570.256919 C 156.200917 571.24235 154.632549 571.858245 152.822893 572.104603 C 151.013237 572.41255 149.022615 572.289371 146.971672 571.735066 C 144.860407 571.24235 142.749141 570.318508 140.637876 568.90195 C 138.586933 567.546982 136.837599 566.007245 135.450196 564.344329 C 134.123115 562.681414 133.157965 561.018498 132.615068 559.293993 C 132.072172 557.569488 131.891206 555.844982 132.192815 554.120477 C 132.494425 552.457561 133.218287 550.917825 134.304081 549.439677 C 135.450196 548.023119 136.837599 546.914509 138.345645 546.175435 C 139.914014 545.374772 141.542704 544.943646 143.292038 544.882056 C 144.98105 544.758877 146.790706 545.005235 148.660684 545.497951 C 150.530662 546.052256 152.340318 546.914509 154.210296 548.146298 Z M 153.305468 549.13173 C 152.159352 548.392656 150.952915 547.838351 149.686156 547.407225 C 148.419397 546.976098 147.152638 546.79133 145.885878 546.914509 C 144.558797 546.976098 143.292038 547.407225 142.025279 548.084709 C 140.75852 548.762193 139.552083 549.870804 138.466289 551.41054 C 137.139208 553.196635 136.294702 554.859551 135.993093 556.522467 C 135.691483 558.185382 135.751805 559.725119 136.113736 561.141677 C 136.53599 562.558235 137.259852 563.851614 138.225002 565.021814 C 139.190152 566.130424 140.336267 567.115856 141.542704 567.916519 C 142.869785 568.778771 144.196866 569.394666 145.644591 569.825792 C 147.031994 570.256919 148.419397 570.380098 149.746478 570.256919 C 151.133881 570.07215 152.40064 569.579435 153.607077 568.717182 C 154.813514 567.916519 155.838986 566.684729 156.804136 565.021814 C 157.889929 563.11254 158.493148 561.326445 158.674113 559.66353 C 158.794757 558.062203 158.674113 556.584056 158.25186 555.229088 C 157.829607 553.874119 157.166067 552.765509 156.261239 551.718488 C 155.356411 550.733056 154.391261 549.870804 153.305468 549.13173 Z M 153.305468 549.13173 " transform="matrix(0.0647568,0,0,0.063424,0.00993068,0)"/>
<path style="fill-rule:nonzero;fill:rgb(100%,81.568627%,17.647059%);fill-opacity:1;stroke-width:3;stroke-linecap:butt;stroke-linejoin:miter;stroke:rgb(100%,81.568627%,17.647059%);stroke-opacity:1;stroke-miterlimit:10;" d="M 179.967731 562.496645 C 180.57095 562.804593 181.294812 563.11254 182.19964 563.420487 C 183.044146 563.790024 183.948974 564.159561 184.914124 564.529098 C 185.939596 564.898635 186.965068 565.329761 188.050861 565.699298 C 189.136655 566.068835 190.222448 566.499961 191.368564 566.869498 C 191.127276 567.362214 190.885989 567.854929 190.705023 568.347645 C 190.463736 568.778771 190.28277 569.209898 190.101804 569.641024 C 189.920839 570.07215 189.739873 570.503277 189.558908 570.995992 C 189.377942 571.427119 189.196976 571.919834 189.016011 572.41255 C 188.593758 572.289371 188.35247 572.227782 187.930217 572.104603 C 188.050861 571.180761 188.111183 570.441687 188.111183 569.764203 C 188.171505 569.148308 188.050861 568.594003 187.809574 568.039698 C 187.568286 567.546982 187.146033 567.115856 186.603136 566.746319 C 185.999918 566.376782 185.215733 565.945656 184.190262 565.576119 C 182.923503 565.083403 182.320284 564.837045 181.053525 564.28274 C 178.037432 571.488708 176.589707 575.060898 173.573614 582.266866 C 173.392648 582.636403 173.332326 582.94435 173.272004 583.190708 C 173.272004 583.498655 173.392648 583.806602 173.573614 584.05296 C 173.814901 584.299318 174.176832 584.607266 174.780051 584.915213 C 175.322948 585.22316 176.107132 585.592697 177.072282 586.023823 C 176.951638 586.39336 176.830994 586.516539 176.710351 586.886076 C 176.227776 586.701308 175.745201 586.516539 175.202304 586.270181 C 174.659407 586.023823 174.116511 585.839055 173.513292 585.592697 C 172.970395 585.346339 172.367177 585.099981 171.82428 584.853624 C 171.281383 584.607266 170.738486 584.360908 170.255911 584.176139 C 169.833658 583.991371 169.351083 583.806602 168.92883 583.621834 C 168.446255 583.437066 167.903359 583.190708 167.420784 583.005939 C 166.938209 582.759581 166.455634 582.513224 165.973059 582.328455 C 165.490484 582.082097 165.068231 581.897329 164.645978 581.71256 C 164.766622 581.404613 164.826944 581.281434 164.947587 580.911897 C 165.852415 581.343024 166.636599 581.589382 167.30014 581.77415 C 167.903359 581.958918 168.385934 581.958918 168.747865 581.897329 C 169.109796 581.77415 169.411405 581.589382 169.713015 581.281434 C 169.954302 580.973487 170.195589 580.54236 170.436877 579.926466 C 173.45297 573.151624 174.961017 569.764203 177.916788 562.989361 C 176.710351 562.435056 176.107132 562.188698 174.961017 561.634393 C 173.935545 561.203266 173.091039 560.83373 172.427498 560.710551 C 171.703636 560.587372 171.100417 560.587372 170.557521 560.710551 C 170.014624 560.895319 169.471727 561.203266 169.049474 561.634393 C 168.566899 562.127108 168.024002 562.681414 167.481106 563.420487 C 167.058853 563.174129 166.877887 563.050951 166.455634 562.804593 C 166.757243 562.250287 166.877887 562.00393 167.179496 561.449624 C 167.481106 560.77214 167.843037 560.156245 168.084324 559.540351 C 168.385934 558.862866 168.687543 558.185382 168.989152 557.32313 C 170.074946 557.877435 171.100417 558.43174 172.125889 558.924456 C 173.151361 559.417172 174.116511 559.909887 175.08166 560.341014 C 176.04681 560.77214 176.951638 561.203266 177.796144 561.572803 C 178.64065 561.94234 179.364513 562.311877 179.967731 562.558235 Z M 179.967731 562.496645 " transform="matrix(0.0647568,0,0,0.063424,0.00993068,0)"/>
<path style="fill-rule:nonzero;fill:rgb(100%,81.568627%,17.647059%);fill-opacity:1;stroke-width:3;stroke-linecap:butt;stroke-linejoin:miter;stroke:rgb(100%,81.568627%,17.647059%);stroke-opacity:1;stroke-miterlimit:10;" d="M 193.660794 567.608571 C 193.962404 567.73175 194.264013 567.854929 194.686266 567.978108 C 195.108519 568.101287 195.530772 568.286056 195.953025 568.409235 C 196.4356 568.532414 196.918175 568.717182 197.40075 568.840361 C 197.883325 569.025129 198.3659 569.148308 198.788153 569.271487 C 199.572337 569.517845 200.416843 569.702613 201.381993 569.887382 C 202.347143 570.07215 203.312293 570.318508 204.337764 570.564866 C 205.544202 570.872813 206.629995 571.24235 207.715789 571.673477 C 208.74126 572.166192 209.646088 572.658908 210.430272 573.274803 C 211.154135 573.890698 211.757353 574.629771 212.119285 575.430434 C 212.420894 576.169508 212.541538 577.09335 212.30025 578.140371 C 212.119285 578.941034 211.817675 579.680108 211.3351 580.172824 C 210.852526 580.665539 210.309629 581.096666 209.646088 581.404613 C 208.982548 581.650971 208.319007 581.835739 207.655467 581.958918 C 206.931604 582.082097 206.268064 582.143687 205.604523 582.205276 C 207.836432 583.005939 209.404801 584.05296 210.430272 585.346339 C 211.455744 586.639718 211.817675 588.117866 211.516066 589.842371 C 211.274779 591.07416 210.67156 592.059592 209.827054 592.798665 C 208.922226 593.537739 207.896754 594.030455 206.629995 594.399992 C 205.302914 594.707939 203.915511 594.769528 202.407465 594.707939 C 200.839096 594.58476 199.33105 594.338402 197.762681 593.907276 C 196.797531 593.660918 195.77206 593.352971 194.625944 592.921844 C 193.479829 592.490718 192.454357 592.121181 191.489207 591.874823 C 191.066954 591.751644 190.584379 591.628465 190.101804 591.443697 C 189.61923 591.320518 189.136655 591.197339 188.65408 591.012571 C 188.171505 590.889392 187.749252 590.704623 187.266677 590.581444 C 186.844424 590.458265 186.422171 590.335086 186.120561 590.211908 C 186.180883 589.90396 186.180883 589.719192 186.241205 589.411244 C 187.146033 589.657602 187.930217 589.780781 188.473114 589.842371 C 189.076333 589.96555 189.558908 589.90396 189.860517 589.780781 C 190.222448 589.657602 190.524057 589.411244 190.765345 589.103297 C 190.946311 588.73376 191.187598 588.241044 191.368564 587.686739 C 193.298863 581.281434 194.324335 578.140371 196.254635 571.735066 C 196.375278 571.365529 196.4356 570.995992 196.4356 570.749634 C 196.4356 570.441687 196.375278 570.195329 196.133991 569.948971 C 195.953025 569.702613 195.591094 569.517845 195.168841 569.271487 C 194.686266 569.025129 194.083047 568.778771 193.298863 568.470824 C 193.419507 568.162877 193.479829 567.978108 193.600473 567.670161 Z M 197.581716 579.741697 C 198.546865 580.049645 199.02944 580.172824 200.054912 580.419182 C 202.528108 581.096666 204.458408 581.158255 205.785489 580.665539 C 207.11257 580.172824 207.957076 579.187392 208.258685 577.647655 C 208.379329 577.09335 208.439651 576.539045 208.379329 575.98474 C 208.319007 575.368845 208.07772 574.81454 207.715789 574.260234 C 207.353857 573.767519 206.810961 573.213213 206.026776 572.720498 C 205.242592 572.289371 204.217121 571.858245 202.89004 571.550298 C 202.226499 571.365529 201.683602 571.24235 201.261349 571.180761 C 200.899418 571.180761 200.597809 571.180761 200.356521 571.30394 C 200.175556 571.365529 199.99459 571.488708 199.934268 571.673477 C 199.873946 571.919834 199.753303 572.104603 199.692981 572.350961 C 198.848475 575.307255 198.426222 576.785403 197.581716 579.741697 Z M 194.927554 588.918529 C 194.746588 589.472834 194.686266 589.90396 194.686266 590.273497 C 194.625944 590.643034 194.746588 590.950981 194.987875 591.197339 C 195.229163 591.505286 195.591094 591.751644 196.133991 591.998002 C 196.676888 592.182771 197.461072 592.429129 198.426222 592.675486 C 200.718452 593.291381 202.58843 593.291381 204.156799 592.737076 C 205.725167 592.182771 206.629995 591.07416 206.991926 589.411244 C 207.233214 588.425813 207.233214 587.501971 206.931604 586.701308 C 206.690317 585.900645 206.207742 585.161571 205.544202 584.545676 C 204.880661 583.868192 204.096477 583.313887 203.071005 582.88276 C 202.045533 582.390045 200.899418 581.958918 199.632659 581.650971 C 198.667509 581.343024 198.184934 581.219845 197.219784 580.973487 C 196.314956 584.176139 195.832381 585.777466 194.927554 588.918529 Z M 194.927554 588.918529 " transform="matrix(0.0647568,0,0,0.063424,0.00993068,0)"/>
<path style="fill-rule:nonzero;fill:rgb(100%,81.568627%,17.647059%);fill-opacity:1;stroke-width:3;stroke-linecap:butt;stroke-linejoin:miter;stroke:rgb(100%,81.568627%,17.647059%);stroke-opacity:1;stroke-miterlimit:10;" d="M 232.508075 590.704623 C 228.285544 590.335086 226.234601 590.088729 222.01207 589.534423 C 220.805633 591.320518 220.142093 592.24436 218.875333 594.030455 C 218.332437 594.892707 218.030827 595.447013 217.970505 595.631781 C 217.910184 596.062907 218.091149 596.432444 218.634046 596.678802 C 219.116621 596.92516 220.081771 597.171518 221.408852 597.417876 C 221.34853 597.725823 221.288208 597.910592 221.227886 598.280128 C 220.38338 598.156949 219.478552 598.03377 218.513402 597.849002 C 217.487931 597.664234 216.522781 597.541055 215.557631 597.356286 C 214.713125 597.233107 213.868619 597.109928 213.024113 596.92516 C 212.179607 596.801981 211.3351 596.678802 210.550916 596.494034 C 210.550916 596.186086 210.611238 596.001318 210.611238 595.693371 C 211.455744 595.75496 212.179607 595.816549 212.722503 595.816549 C 213.325722 595.816549 213.808297 595.693371 214.23055 595.508602 C 214.713125 595.262244 215.135378 594.954297 215.617953 594.523171 C 216.040206 594.092044 216.522781 593.47615 217.186321 592.737076 C 221.891427 586.701308 224.123336 583.621834 228.225222 577.339708 C 228.526832 576.846992 228.768119 576.477455 229.009406 576.107919 C 229.190372 575.738382 229.43166 575.368845 229.672947 574.937719 C 230.396809 574.937719 230.758741 574.937719 231.482603 574.937719 C 231.603247 575.738382 231.784212 576.477455 231.965178 577.15494 C 232.146143 577.832424 232.327109 578.448318 232.508075 579.002624 C 234.559018 585.715876 235.765455 589.041708 238.298973 595.631781 C 238.600583 596.370855 238.84187 596.92516 239.083158 597.356286 C 239.324445 597.787413 239.626054 598.156949 239.987986 598.341718 C 240.289595 598.588076 240.77217 598.772844 241.254745 598.896023 C 241.797642 598.957613 242.521504 599.080791 243.36601 599.142381 C 243.305688 599.511918 243.305688 599.635097 243.245366 600.004634 C 242.340538 600.004634 241.315067 599.943044 240.168951 599.881455 C 239.083158 599.819865 237.937042 599.758276 236.851249 599.696686 C 235.946421 599.635097 234.981271 599.635097 234.016121 599.573507 C 233.111293 599.511918 232.146143 599.450328 231.241315 599.388739 C 231.241315 599.019202 231.241315 598.834434 231.180994 598.526486 C 232.447753 598.588076 233.292259 598.526486 233.835156 598.403307 C 234.378052 598.280128 234.679662 597.972181 234.739984 597.541055 C 234.739984 597.417876 234.679662 597.171518 234.61934 596.92516 C 234.559018 596.678802 234.438374 596.432444 234.378052 596.124497 C 233.593868 593.907276 233.231937 592.860255 232.508075 590.643034 Z M 222.97722 588.179455 C 226.596532 588.672171 228.406188 588.918529 232.0255 589.226476 C 230.698419 585.161571 230.034878 583.129118 228.888763 579.064213 C 226.656854 582.759581 225.450417 584.545676 222.97722 588.179455 Z M 222.97722 588.179455 " transform="matrix(0.0647568,0,0,0.063424,0.00993068,0)"/>
<path style="fill-rule:nonzero;fill:rgb(100%,81.568627%,17.647059%);fill-opacity:1;stroke-width:3;stroke-linecap:butt;stroke-linejoin:miter;stroke:rgb(100%,81.568627%,17.647059%);stroke-opacity:1;stroke-miterlimit:10;" d="M 256.214567 576.970171 C 255.430383 577.09335 254.827164 577.15494 254.284267 577.278118 C 253.801692 577.401297 253.439761 577.586066 253.198474 577.832424 C 252.896865 578.078782 252.715899 578.386729 252.655577 578.756266 C 252.534933 579.187392 252.534933 579.680108 252.534933 580.296003 C 252.715899 586.578129 252.776221 589.719192 252.957186 596.001318 C 252.957186 596.555623 253.017508 597.048339 253.07783 597.356286 C 253.198474 597.725823 253.379439 598.03377 253.681049 598.218539 C 253.982658 598.403307 254.404911 598.526486 254.947808 598.588076 C 255.490705 598.649665 256.214567 598.711255 257.119395 598.649665 C 257.782935 598.649665 258.144867 598.588076 258.868729 598.588076 C 260.135488 598.464897 261.16096 598.341718 261.945144 598.156949 C 262.729328 597.910592 263.392869 597.602644 263.935766 597.171518 C 264.41834 596.801981 264.900915 596.247676 265.262847 595.570192 C 265.564456 594.954297 265.986709 594.153634 266.408962 593.229792 C 266.891537 593.291381 267.132824 593.291381 267.615399 593.352971 C 267.494756 593.845686 267.374112 594.338402 267.31379 594.892707 C 267.193146 595.447013 267.132824 596.001318 267.012181 596.555623 C 266.951859 597.109928 266.891537 597.602644 266.831215 598.03377 C 266.831215 598.526486 266.770893 598.896023 266.770893 599.20397 C 264.780272 599.388739 263.815122 599.450328 261.764178 599.635097 C 260.316454 599.696686 259.110016 599.819865 258.024223 599.819865 C 256.998751 599.881455 256.093923 599.881455 255.309739 599.943044 C 254.585877 599.943044 253.922336 599.943044 253.379439 600.004634 C 252.836543 600.004634 252.353968 600.004634 251.931715 600.004634 C 251.44914 600.004634 251.207852 600.004634 250.785599 600.004634 C 250.303024 600.004634 249.820449 600.004634 249.337875 600.066223 C 248.794978 600.066223 248.252081 600.066223 247.709184 600.066223 C 247.166287 600.066223 246.683713 600.066223 246.201138 600.066223 C 245.778885 600.066223 245.356632 600.066223 245.055022 600.066223 C 244.9947 599.758276 244.9947 599.573507 244.934378 599.20397 C 245.839206 599.20397 246.563069 599.142381 247.166287 599.019202 C 247.709184 598.896023 248.131437 598.772844 248.433047 598.526486 C 248.734656 598.280128 248.975943 597.972181 249.096587 597.602644 C 249.156909 597.233107 249.217231 596.740392 249.217231 596.062907 C 249.156909 589.411244 249.156909 586.085413 249.096587 579.43375 C 249.096587 579.002624 249.096587 578.694676 248.975943 578.448318 C 248.915622 578.140371 248.734656 577.955603 248.433047 577.770834 C 248.191759 577.586066 247.829828 577.462887 247.286931 577.401297 C 246.804356 577.339708 246.140816 577.216529 245.29631 577.216529 C 245.356632 576.846992 245.356632 576.662224 245.416953 576.292687 C 245.718563 576.292687 246.080494 576.292687 246.563069 576.354276 C 246.985322 576.354276 247.528219 576.354276 248.010794 576.354276 C 248.55369 576.354276 249.096587 576.354276 249.639484 576.354276 C 250.182381 576.354276 250.664956 576.354276 251.14753 576.354276 C 251.509462 576.354276 251.931715 576.354276 252.41429 576.292687 C 252.836543 576.292687 253.319118 576.292687 253.801692 576.292687 C 254.223946 576.231097 254.70652 576.231097 255.128773 576.231097 C 255.490705 576.169508 255.852636 576.169508 256.154245 576.169508 C 256.154245 576.477455 256.214567 576.662224 256.274889 576.970171 Z M 256.214567 576.970171 " transform="matrix(0.0647568,0,0,0.063424,0.00993068,0)"/>
<path style="fill-rule:nonzero;fill:rgb(100%,81.568627%,17.647059%);fill-opacity:1;stroke-width:3;stroke-linecap:butt;stroke-linejoin:miter;stroke:rgb(100%,81.568627%,17.647059%);stroke-opacity:1;stroke-miterlimit:10;" d="M 278.835266 574.445003 C 278.051082 574.629771 277.447863 574.81454 276.965288 574.999308 C 276.482713 575.245666 276.120782 575.430434 275.939816 575.738382 C 275.698529 575.98474 275.577885 576.292687 275.517563 576.723813 C 275.517563 577.09335 275.517563 577.647655 275.638207 578.201961 C 276.603357 584.422497 277.085932 587.56356 278.051082 593.784097 C 278.171725 594.338402 278.292369 594.769528 278.413013 595.139065 C 278.533657 595.447013 278.774944 595.693371 279.136875 595.878139 C 279.438485 596.001318 279.860738 596.124497 280.403634 596.124497 C 280.946531 596.124497 281.670393 596.001318 282.575221 595.878139 C 283.238762 595.75496 283.600693 595.693371 284.264234 595.570192 C 285.530993 595.323834 286.556464 595.015886 287.280327 594.707939 C 288.064511 594.399992 288.66773 594.030455 289.150305 593.537739 C 289.632879 593.045023 289.994811 592.490718 290.236098 591.751644 C 290.537707 591.07416 290.778995 590.273497 291.080604 589.288065 C 291.563179 589.288065 291.804467 589.226476 292.287041 589.226476 C 292.22672 589.719192 292.22672 590.273497 292.166398 590.827802 C 292.166398 591.382108 292.166398 591.936413 292.166398 592.490718 C 292.166398 593.045023 292.166398 593.537739 292.166398 594.030455 C 292.166398 594.461581 292.22672 594.831118 292.287041 595.139065 C 290.29642 595.631781 289.33127 595.816549 287.340649 596.247676 C 285.892924 596.494034 284.686487 596.740392 283.600693 596.92516 C 282.575221 597.109928 281.670393 597.233107 280.946531 597.356286 C 280.222669 597.479465 279.559128 597.602644 279.016231 597.664234 C 278.473335 597.725823 277.99076 597.849002 277.568507 597.910592 C 277.085932 597.972181 276.904966 597.972181 276.422391 598.03377 C 276.000138 598.09536 275.517563 598.156949 274.974667 598.280128 C 274.43177 598.341718 273.949195 598.403307 273.406298 598.464897 C 272.863401 598.526486 272.380826 598.588076 271.898252 598.649665 C 271.475999 598.711255 271.053745 598.772844 270.752136 598.834434 C 270.691814 598.526486 270.631492 598.341718 270.571171 597.972181 C 271.475999 597.849002 272.139539 597.664234 272.682436 597.479465 C 273.225333 597.356286 273.647586 597.109928 273.949195 596.86357 C 274.190482 596.617213 274.371448 596.247676 274.43177 595.878139 C 274.492092 595.447013 274.43177 594.954297 274.371448 594.338402 C 273.46662 587.748329 272.984045 584.422497 272.079217 577.832424 C 272.018895 577.401297 271.958573 577.09335 271.83793 576.846992 C 271.717286 576.600634 271.475999 576.415866 271.234711 576.292687 C 270.933102 576.107919 270.510849 576.046329 270.028274 576.046329 C 269.545699 576.046329 268.882158 576.046329 268.037652 576.107919 C 268.037652 575.738382 268.037652 575.553613 267.97733 575.184076 C 268.339262 575.184076 268.701193 575.122487 269.123446 575.060898 C 269.606021 575.060898 270.088596 574.999308 270.571171 574.937719 C 271.114067 574.876129 271.656964 574.81454 272.199861 574.691361 C 272.742758 574.629771 273.225333 574.568182 273.707907 574.506592 C 274.069839 574.445003 274.492092 574.383413 274.914345 574.321824 C 275.39692 574.260234 275.819173 574.137055 276.301748 574.075466 C 276.784323 574.013876 277.206576 573.952287 277.628829 573.890698 C 277.99076 573.767519 278.352691 573.705929 278.593978 573.64434 C 278.714622 574.013876 278.774944 574.137055 278.835266 574.506592 Z M 278.835266 574.445003 " transform="matrix(0.0647568,0,0,0.063424,0.00993068,0)"/>
<path style="fill-rule:nonzero;fill:rgb(100%,81.568627%,17.647059%);fill-opacity:1;stroke-width:3;stroke-linecap:butt;stroke-linejoin:miter;stroke:rgb(100%,81.568627%,17.647059%);stroke-opacity:1;stroke-miterlimit:10;" d="M 319.069949 573.705929 C 319.733489 575.122487 320.517674 576.415866 321.543145 577.524476 C 322.568617 578.633087 323.775054 579.43375 325.162457 579.926466 C 326.54986 580.480771 328.118228 580.665539 329.807241 580.54236 C 331.556575 580.419182 333.426552 579.864876 335.417174 578.879445 C 336.442646 578.32514 337.468117 577.709245 338.312623 576.970171 C 339.15713 576.231097 339.82067 575.430434 340.303245 574.568182 C 340.78582 573.705929 341.087429 572.782087 341.208073 571.858245 C 341.328717 570.872813 341.389038 569.825792 341.389038 568.655592 C 341.871613 568.470824 342.112901 568.347645 342.655798 568.224466 C 342.836763 569.333077 343.138373 570.380098 343.37966 571.30394 C 343.681269 572.227782 343.982879 573.213213 344.405132 574.260234 C 343.078051 575.430434 341.630326 576.600634 340.242923 577.586066 C 338.795198 578.571497 337.287152 579.495339 335.718783 580.234413 C 333.426552 581.404613 331.194644 582.082097 329.023056 582.451634 C 326.791147 582.821171 324.800526 582.759581 322.99087 582.390045 C 321.181214 582.020508 319.612846 581.281434 318.285765 580.172824 C 316.958684 579.125803 315.933212 577.709245 315.269672 575.98474 C 314.485487 574.013876 314.304522 572.104603 314.606131 570.318508 C 314.90774 568.470824 315.571281 566.807908 316.657074 565.206582 C 317.682546 563.605256 319.069949 562.127108 320.758961 560.77214 C 322.387651 559.478761 324.257629 558.246972 326.308573 557.199951 C 327.394366 556.707235 328.540482 556.15293 329.867563 555.660214 C 331.134322 555.105909 332.340759 554.674782 333.486874 554.305246 C 333.909127 555.290677 334.33138 556.214519 334.813955 557.015182 C 335.236208 557.877435 335.718783 558.739688 336.26168 559.66353 C 335.839427 559.971477 335.59814 560.094656 335.175887 560.402603 C 334.63299 559.60194 334.029771 558.986045 333.305909 558.49333 C 332.642368 558.062203 331.858184 557.815845 331.074 557.692666 C 330.289816 557.569488 329.445309 557.631077 328.600803 557.815845 C 327.756297 558.062203 326.851469 558.370151 325.946641 558.801277 C 324.197307 559.725119 322.749583 560.710551 321.603467 561.757572 C 320.457352 562.866182 319.552524 564.036382 319.009627 565.329761 C 318.46673 566.62314 318.165121 567.916519 318.165121 569.333077 C 318.165121 570.749634 318.46673 572.227782 319.069949 573.705929 Z M 319.069949 573.705929 " transform="matrix(0.0647568,0,0,0.063424,0.00993068,0)"/>
<path style="fill-rule:nonzero;fill:rgb(100%,81.568627%,17.647059%);fill-opacity:1;stroke-width:3;stroke-linecap:butt;stroke-linejoin:miter;stroke:rgb(100%,81.568627%,17.647059%);stroke-opacity:1;stroke-miterlimit:10;" d="M 347.240259 546.237025 C 346.576719 546.729741 346.094144 547.160867 345.732213 547.530404 C 345.370281 547.89994 345.128994 548.269477 345.00835 548.639014 C 344.887707 548.946961 344.887707 549.316498 345.068672 549.686035 C 345.189316 550.117161 345.430603 550.548288 345.732213 551.041004 C 349.230881 556.276109 350.980215 558.924456 354.478883 564.159561 C 354.780492 564.652277 355.082102 564.960224 355.383711 565.268172 C 355.624998 565.514529 355.986929 565.637708 356.348861 565.637708 C 356.710792 565.637708 357.133045 565.514529 357.675942 565.268172 C 358.158517 565.021814 358.761735 564.652277 359.545919 564.097972 C 360.149138 563.666845 360.450747 563.482077 360.993644 563.050951 C 362.079438 562.311877 362.923944 561.572803 363.527162 560.956908 C 364.070059 560.341014 364.492312 559.725119 364.7336 559.047635 C 364.974887 558.43174 365.095531 557.692666 365.035209 556.953593 C 365.035209 556.214519 364.914565 555.352267 364.793922 554.305246 C 365.216175 554.058888 365.457462 553.935709 365.940037 553.689351 C 366.060681 554.182067 366.241646 554.674782 366.482934 555.229088 C 366.663899 555.783393 366.905187 556.276109 367.146474 556.768824 C 367.32744 557.26154 367.568727 557.754256 367.749693 558.123793 C 367.99098 558.554919 368.171946 558.924456 368.352912 559.170814 C 366.663899 560.464193 365.879715 561.080087 364.190703 562.311877 C 362.923944 563.235719 361.898472 563.974793 360.993644 564.590687 C 360.088816 565.206582 359.304632 565.699298 358.701413 566.192014 C 358.037873 566.62314 357.494976 566.992677 357.012401 567.300624 C 356.529826 567.608571 356.107573 567.854929 355.745642 568.101287 C 355.383711 568.347645 355.142423 568.470824 354.780492 568.778771 C 354.358239 569.025129 353.935986 569.271487 353.513733 569.579435 C 353.031158 569.887382 352.608905 570.195329 352.12633 570.441687 C 351.704077 570.749634 351.221502 570.995992 350.859571 571.30394 C 350.437318 571.550298 350.075387 571.735066 349.834099 571.919834 C 349.592812 571.673477 349.472168 571.550298 349.291203 571.24235 C 350.075387 570.749634 350.678605 570.256919 351.100859 569.887382 C 351.523112 569.517845 351.824721 569.086719 351.945365 568.778771 C 352.12633 568.409235 352.12633 568.039698 352.005686 567.608571 C 351.885043 567.239035 351.643755 566.807908 351.342146 566.253603 C 347.722834 560.648961 345.913178 557.815845 342.354188 552.149614 C 342.112901 551.841667 341.931935 551.595309 341.690648 551.41054 C 341.509682 551.225772 341.208073 551.164182 340.906464 551.164182 C 340.544532 551.164182 340.182601 551.225772 339.700026 551.47213 C 339.217451 551.656898 338.614233 551.964846 337.830049 552.395972 C 337.709405 552.088025 337.649083 551.903256 337.468117 551.595309 C 337.709405 551.41054 338.071336 551.225772 338.493589 550.979414 C 338.85552 550.733056 339.277773 550.486698 339.760348 550.178751 C 340.242923 549.870804 340.665176 549.624446 341.147751 549.316498 C 341.630326 549.008551 342.052579 548.762193 342.474832 548.515835 C 342.776441 548.269477 343.138373 548.023119 343.500304 547.776762 C 343.922557 547.530404 344.34481 547.222456 344.706741 546.976098 C 345.128994 546.668151 345.490925 546.421793 345.852856 546.175435 C 346.214788 545.929077 346.456075 545.744309 346.697362 545.559541 C 346.93865 545.805898 347.059294 545.929077 347.240259 546.175435 Z M 347.240259 546.237025 " transform="matrix(0.0647568,0,0,0.063424,0.00993068,0)"/>
<path style="fill-rule:nonzero;fill:rgb(100%,81.568627%,17.647059%);fill-opacity:1;stroke-width:3;stroke-linecap:butt;stroke-linejoin:miter;stroke:rgb(100%,81.568627%,17.647059%);stroke-opacity:1;stroke-miterlimit:10;" d="M 372.153189 545.374772 C 372.937373 546.298614 373.842201 546.852919 374.807351 547.160867 C 375.772501 547.407225 376.737651 547.468814 377.763122 547.222456 C 378.848916 547.037688 379.874387 546.606562 380.839537 545.990667 C 381.865009 545.374772 382.830159 544.697288 383.734987 543.773446 C 384.639815 542.911193 385.363677 541.987351 385.966896 540.94033 C 386.570114 539.954899 386.992367 538.907878 387.113011 537.860857 C 387.293977 536.813836 387.233655 535.766815 386.871724 534.719794 C 386.570114 533.734362 385.906574 532.74893 384.881102 531.825088 C 381.865009 528.991973 380.356962 527.575415 377.280547 524.742299 C 376.797972 524.249583 376.315398 523.880047 375.893144 523.695278 C 375.470891 523.51051 375.048638 523.44892 374.566063 523.51051 C 374.14381 523.633689 373.661236 523.880047 373.178661 524.249583 C 372.635764 524.68071 372.032545 525.235015 371.248361 525.912499 C 371.007074 525.666141 370.946752 525.481373 370.705464 525.235015 C 371.188039 524.742299 371.791258 524.126404 372.51512 523.387331 C 373.238982 522.648257 373.962845 521.847594 374.747029 521.046931 C 375.350248 520.369447 376.013788 519.630373 376.617007 518.82971 C 377.280547 518.090636 377.823444 517.413152 378.245697 516.920436 C 378.547306 517.166794 378.66795 517.228384 378.909238 517.474741 C 378.366341 518.213815 377.944088 518.82971 377.582157 519.322426 C 377.280547 519.815141 377.099582 520.307857 377.099582 520.738983 C 377.03926 521.17011 377.159904 521.601236 377.461513 522.032362 C 377.763122 522.463489 378.245697 523.017794 378.909238 523.572099 C 381.985653 526.405215 383.554021 527.821773 386.630436 530.654888 C 387.836873 531.763499 388.621058 532.933699 388.922667 534.288667 C 389.224276 535.582046 389.224276 536.998604 388.862345 538.415162 C 388.560736 539.77013 387.957517 541.186688 387.052689 542.541656 C 386.147861 543.896625 385.12239 545.190004 383.915952 546.298614 C 382.769837 547.407225 381.503078 548.392656 380.236319 549.13173 C 378.96956 549.870804 377.642479 550.425109 376.375719 550.671467 C 375.169282 550.917825 373.962845 550.856235 372.816729 550.548288 C 371.670614 550.24034 370.705464 549.562856 369.860958 548.577425 C 366.422612 544.51252 364.7336 542.480067 361.295253 538.476751 C 361.053966 538.168804 360.812679 537.922446 360.511069 537.737678 C 360.269782 537.614499 359.968172 537.552909 359.666563 537.614499 C 359.304632 537.676088 358.882379 537.799267 358.399804 538.107214 C 357.917229 538.353572 357.31401 538.784699 356.590148 539.339004 C 356.348861 539.031057 356.228217 538.907878 356.047251 538.59993 C 356.348861 538.353572 356.65047 538.107214 357.072723 537.799267 C 357.434654 537.49132 357.856907 537.121783 358.27916 536.813836 C 358.701413 536.444299 359.123666 536.074762 359.606241 535.705225 C 360.028494 535.335688 360.450747 534.966151 360.812679 534.658204 C 361.114288 534.350257 361.476219 534.042309 361.83815 533.734362 C 362.200081 533.364825 362.562013 533.056878 362.984266 532.687341 C 363.346197 532.379394 363.708128 532.009857 364.009737 531.701909 C 364.371669 531.393962 364.673278 531.147604 364.914565 530.901246 C 365.155853 531.086015 365.276496 531.209194 365.578106 531.455552 C 364.914565 532.071446 364.43199 532.625751 364.130381 533.118467 C 363.828772 533.549594 363.587484 533.98072 363.527162 534.350257 C 363.466841 534.719794 363.527162 535.15092 363.708128 535.520457 C 363.889094 535.889993 364.190703 536.32112 364.552634 536.752246 C 367.629049 540.201257 369.137096 541.925762 372.153189 545.374772 Z M 372.153189 545.374772 " transform="matrix(0.0647568,0,0,0.063424,0.00993068,0)"/>
<path style="fill-rule:nonzero;fill:rgb(100%,81.568627%,17.647059%);fill-opacity:1;stroke-width:3;stroke-linecap:butt;stroke-linejoin:miter;stroke:rgb(100%,81.568627%,17.647059%);stroke-opacity:1;stroke-miterlimit:10;" d="M 379.572778 515.380699 C 379.753744 515.134342 380.055353 514.826394 380.356962 514.456857 C 380.658572 514.14891 380.960181 513.717784 381.26179 513.348247 C 381.623722 512.917121 381.925331 512.547584 382.287262 512.116457 C 382.649193 511.685331 382.950803 511.254205 383.312734 510.823078 C 383.85563 510.145594 384.398527 509.406521 384.941424 508.482679 C 385.544643 507.558836 386.147861 506.634994 386.871724 505.711152 C 387.655908 504.602542 388.500414 503.61711 389.34492 502.693268 C 390.249748 501.769426 391.094254 501.030352 391.999082 500.476047 C 392.90391 499.860153 393.808738 499.552205 394.713566 499.429026 C 395.618394 499.367437 396.523222 499.552205 397.367728 500.1681 C 398.09159 500.599226 398.634487 501.153531 398.875775 501.831016 C 399.177384 502.5085 399.358349 503.247573 399.358349 503.986647 C 399.358349 504.725721 399.237706 505.464794 398.996418 506.265458 C 398.815453 507.004531 398.634487 507.743605 398.3932 508.421089 C 400.082212 506.450226 401.771224 505.156847 403.399914 504.479363 C 405.088926 503.863468 406.657295 503.986647 408.165342 504.910489 C 409.190813 505.649563 409.914676 506.511815 410.216285 507.682015 C 410.517894 508.852215 410.578216 510.145594 410.336929 511.500563 C 410.035319 512.917121 409.552744 514.395268 408.828882 515.935005 C 408.044698 517.474741 407.200192 518.952889 406.114398 520.369447 C 405.51118 521.293289 404.726995 522.217131 403.822167 523.202562 C 402.977661 524.187994 402.193477 525.111836 401.529937 525.974089 C 401.228327 526.343625 400.926718 526.774752 400.564787 527.205878 C 400.263177 527.637004 399.901246 528.068131 399.539315 528.499257 C 399.177384 528.930383 398.875775 529.29992 398.574165 529.731046 C 398.212234 530.100583 397.970947 530.47012 397.729659 530.716478 C 397.42805 530.531709 397.307406 530.47012 397.005797 530.285352 C 397.609015 529.484688 398.09159 528.807204 398.3932 528.252899 C 398.694809 527.698594 398.875775 527.267467 398.875775 526.836341 C 398.936096 526.405215 398.815453 526.035678 398.574165 525.727731 C 398.332878 525.419783 397.970947 525.050246 397.488372 524.68071 C 392.300691 520.492626 389.706851 518.398584 384.519171 514.210499 C 384.217562 513.964142 383.915952 513.779373 383.674665 513.656194 C 383.373056 513.594605 383.131768 513.594605 382.830159 513.717784 C 382.468228 513.779373 382.106296 514.025731 381.684043 514.456857 C 381.322112 514.826394 380.779215 515.31911 380.175997 515.996594 C 379.934709 515.750236 379.814066 515.627057 379.512456 515.380699 Z M 392.662623 515.688647 C 393.326163 514.826394 393.688094 514.395268 394.351635 513.471426 C 396.040647 511.192615 396.885153 509.283342 397.005797 507.743605 C 397.066119 506.203868 396.4629 505.033668 395.196141 504.171416 C 394.773888 503.863468 394.230991 503.61711 393.688094 503.493931 C 393.084876 503.370752 392.481657 503.370752 391.818116 503.555521 C 391.094254 503.740289 390.370392 504.171416 389.646529 504.78731 C 388.862345 505.403205 388.017839 506.327047 387.113011 507.497247 C 386.690758 508.113142 386.328827 508.667447 386.147861 509.036984 C 385.966896 509.406521 385.846252 509.714468 385.846252 509.960826 C 385.846252 510.207184 385.906574 510.391952 386.027218 510.576721 C 386.208183 510.6999 386.389149 510.884668 386.570114 511.007847 C 388.982989 512.917121 390.249748 513.840963 392.662623 515.750236 Z M 400.263177 521.539647 C 400.68543 521.909183 401.047362 522.093952 401.409293 522.27872 C 401.710902 522.401899 402.072833 522.401899 402.434764 522.27872 C 402.796696 522.155541 403.158627 521.847594 403.641202 521.354878 C 404.063455 520.923752 404.606352 520.246268 405.269892 519.322426 C 406.777939 517.228384 407.622445 515.31911 407.743088 513.533015 C 407.924054 511.746921 407.260514 510.391952 405.812789 509.46811 C 404.968283 508.852215 404.123777 508.605858 403.218949 508.605858 C 402.314121 508.605858 401.469615 508.852215 400.564787 509.283342 C 399.659959 509.714468 398.815453 510.391952 397.910625 511.254205 C 397.066119 512.116457 396.161291 513.101889 395.316785 514.333678 C 394.653244 515.195931 394.351635 515.627057 393.688094 516.48931 C 396.281934 518.521762 397.609015 519.568783 400.202856 521.539647 Z M 400.263177 521.539647 " transform="matrix(0.0647568,0,0,0.063424,0.00993068,0)"/>
<path style=" stroke:none;fill-rule:nonzero;fill:rgb(100%,81.568627%,17.647059%);fill-opacity:1;" d="M 26.367188 18.828125 C 26.335938 18.703125 26.28125 18.578125 26.207031 18.460938 C 26.136719 18.351562 26.058594 18.246094 25.972656 18.152344 C 25.910156 18.082031 25.847656 18.019531 25.78125 17.960938 C 25.726562 17.914062 25.675781 17.867188 25.628906 17.8125 C 25.597656 17.78125 25.566406 17.742188 25.53125 17.707031 C 25.5 17.664062 25.464844 17.625 25.429688 17.589844 C 25.398438 17.554688 25.371094 17.519531 25.34375 17.488281 C 25.316406 17.457031 25.289062 17.425781 25.269531 17.402344 L 25.148438 17.269531 L 24.859375 17.597656 L 24.949219 17.699219 C 25.007812 17.769531 25.039062 17.808594 25.054688 17.832031 C 25.058594 17.835938 25.058594 17.839844 25.0625 17.84375 C 25.054688 17.855469 25.042969 17.867188 25.023438 17.882812 L 23.539062 19.148438 C 23.480469 19.203125 23.445312 19.226562 23.421875 19.242188 C 23.417969 19.246094 23.414062 19.246094 23.410156 19.246094 C 23.40625 19.246094 23.402344 19.242188 23.390625 19.238281 C 23.371094 19.222656 23.335938 19.195312 23.277344 19.140625 L 23.140625 19.011719 L 22.988281 19.140625 L 23.109375 19.273438 C 23.128906 19.292969 23.152344 19.320312 23.179688 19.351562 C 23.207031 19.378906 23.234375 19.40625 23.261719 19.4375 C 23.292969 19.472656 23.324219 19.507812 23.355469 19.542969 C 23.386719 19.574219 23.414062 19.601562 23.4375 19.628906 C 23.5 19.699219 23.5625 19.773438 23.628906 19.847656 C 23.695312 19.929688 23.761719 20.003906 23.824219 20.074219 L 23.964844 20.230469 L 24.144531 20.109375 L 24.019531 19.960938 C 23.953125 19.886719 23.921875 19.839844 23.910156 19.816406 C 23.90625 19.808594 23.902344 19.800781 23.898438 19.796875 C 23.910156 19.785156 23.921875 19.773438 23.941406 19.753906 L 24.453125 19.351562 L 24.480469 19.378906 C 24.507812 19.410156 24.519531 19.425781 24.523438 19.433594 C 24.519531 19.445312 24.515625 19.453125 24.515625 19.464844 C 24.46875 19.609375 24.425781 19.746094 24.378906 19.875 C 24.335938 20.011719 24.292969 20.132812 24.253906 20.246094 C 24.214844 20.359375 24.214844 20.382812 24.183594 20.464844 C 24.15625 20.546875 24.160156 20.53125 24.144531 20.574219 L 24.199219 20.640625 L 24.292969 20.730469 C 24.308594 20.746094 24.328125 20.765625 24.347656 20.789062 C 24.371094 20.808594 24.390625 20.832031 24.40625 20.851562 C 24.464844 20.914062 24.523438 20.984375 24.585938 21.054688 C 24.648438 21.128906 24.699219 21.1875 24.742188 21.234375 L 24.859375 21.367188 L 25.089844 21.203125 L 24.980469 21.054688 C 24.941406 21.003906 24.914062 20.960938 24.894531 20.929688 C 24.878906 20.910156 24.871094 20.890625 24.867188 20.871094 C 24.863281 20.859375 24.863281 20.84375 24.863281 20.824219 C 24.867188 20.789062 24.875 20.746094 24.886719 20.691406 C 24.894531 20.648438 24.910156 20.589844 24.933594 20.515625 C 24.953125 20.441406 24.945312 20.425781 24.976562 20.328125 C 25.007812 20.230469 25.046875 20.121094 25.085938 20 C 25.105469 19.941406 25.128906 19.882812 25.148438 19.820312 C 25.179688 19.828125 25.210938 19.835938 25.246094 19.84375 C 25.34375 19.867188 25.449219 19.875 25.546875 19.867188 C 25.652344 19.859375 25.753906 19.835938 25.847656 19.792969 C 25.945312 19.753906 26.039062 19.691406 26.121094 19.617188 C 26.25 19.5 26.332031 19.371094 26.367188 19.230469 C 26.398438 19.097656 26.398438 18.960938 26.367188 18.828125 Z M 25.601562 19.179688 C 25.433594 19.320312 25.285156 19.378906 25.152344 19.363281 C 25 19.34375 24.847656 19.253906 24.691406 19.09375 L 25.453125 18.457031 C 25.472656 18.441406 25.492188 18.425781 25.511719 18.414062 C 25.523438 18.425781 25.539062 18.441406 25.566406 18.464844 C 25.699219 18.601562 25.769531 18.734375 25.78125 18.859375 C 25.785156 18.898438 25.796875 19.019531 25.601562 19.179688 Z M 25.601562 19.179688 "/>
<path style=" stroke:none;fill-rule:nonzero;fill:rgb(100%,81.568627%,17.647059%);fill-opacity:1;" d="M 11.445312 17.332031 C 11.445312 17.332031 10.320312 18.039062 9.429688 18.832031 L 9.292969 18.667969 L 9.550781 18.464844 L 9.550781 18.128906 L 8.328125 16.574219 L 8.050781 16.757812 L 7.984375 16.617188 L 9.078125 15.832031 L 9.132812 16.003906 L 8.945312 16.1875 L 10.277344 17.96875 L 10.933594 17.480469 C 10.933594 17.480469 11.046875 17.285156 10.984375 16.890625 C 10.976562 16.847656 11.03125 16.824219 11.058594 16.859375 Z M 11.445312 17.332031 "/>
<path style=" stroke:none;fill-rule:nonzero;fill:rgb(100%,81.568627%,17.647059%);fill-opacity:1;" d="M 9.292969 18.667969 L 8.933594 18.949219 L 6.476562 18.128906 L 6.167969 18.507812 L 7.492188 20.710938 L 7.335938 20.925781 L 7.46875 21.164062 L 8.171875 20.34375 L 8.042969 20.21875 L 7.773438 20.480469 C 7.773438 20.480469 7.605469 20.460938 7.464844 20.210938 C 7.324219 19.957031 7.453125 19.816406 7.453125 19.816406 C 7.453125 19.816406 7.808594 19.402344 7.875 19.316406 C 7.941406 19.226562 8.230469 19.148438 8.425781 19.371094 C 8.621094 19.59375 8.40625 19.765625 8.40625 19.765625 L 8.519531 19.847656 C 8.710938 19.527344 9.050781 19.171875 9.429688 18.832031 C 9.429688 18.832031 9.292969 18.667969 9.292969 18.667969 Z M 7.222656 19.714844 L 6.742188 18.914062 L 7.648438 19.171875 Z M 7.222656 19.714844 "/>
<path style=" stroke:none;fill-rule:nonzero;fill:rgb(100%,81.568627%,17.647059%);fill-opacity:1;" d="M 18.074219 16.203125 L 17.585938 13.78125 L 17.117188 13.789062 L 15.878906 16.007812 L 15.625 16.027344 L 15.515625 16.269531 L 16.558594 16.269531 L 16.578125 16.101562 L 16.21875 16.070312 C 16.21875 16.070312 16.136719 15.9375 16.25 15.6875 C 16.359375 15.433594 16.542969 15.441406 16.542969 15.441406 C 16.542969 15.441406 17.066406 15.445312 17.175781 15.4375 C 17.28125 15.429688 17.460938 15.632812 17.507812 15.90625 C 17.574219 16.289062 17.132812 16.234375 17.132812 16.234375 L 17.140625 16.390625 C 17.5 16.332031 17.972656 16.417969 18.453125 16.484375 C 18.453125 16.484375 18.503906 16.289062 18.503906 16.289062 Z M 16.574219 15.265625 L 16.875 14.613281 C 16.902344 14.558594 16.988281 14.558594 17.007812 14.621094 L 17.242188 15.269531 Z M 16.574219 15.265625 "/>
<path style=" stroke:none;fill-rule:nonzero;fill:rgb(100%,81.568627%,17.647059%);fill-opacity:1;" d="M 13.566406 16.519531 C 13.566406 16.519531 12.972656 16.699219 12.945312 16.058594 L 12.8125 14.921875 L 14.566406 16.316406 L 14.996094 16.316406 L 14.605469 13.96875 L 14.996094 13.96875 L 14.96875 13.644531 L 13.828125 13.804688 L 13.882812 14.054688 L 14.277344 14.046875 L 14.578125 15.417969 L 12.917969 14.089844 L 11.898438 14.269531 L 11.898438 14.449219 L 12.3125 14.496094 L 12.785156 16.542969 L 12.453125 16.605469 L 12.503906 16.898438 L 13.640625 16.738281 Z M 13.566406 16.519531 "/>
<path style=" stroke:none;fill-rule:nonzero;fill:rgb(100%,81.568627%,17.647059%);fill-opacity:1;" d="M 21.101562 15.691406 L 21.527344 14.980469 L 21.144531 14.867188 C 21.144531 14.867188 20.515625 14.136719 19.539062 14.644531 C 18.5625 15.148438 20.367188 16.230469 20.328125 16.363281 C 20.328125 16.363281 20.492188 16.75 20.121094 16.882812 C 19.847656 16.980469 19.535156 16.886719 19.355469 16.660156 C 19.214844 16.480469 19.085938 16.183594 19.089844 15.695312 L 18.933594 15.667969 C 18.933594 15.667969 18.53125 16.328125 18.972656 16.6875 L 19.65625 17.113281 C 19.65625 17.113281 20.160156 17.417969 20.691406 16.925781 C 20.921875 16.714844 20.980469 16.496094 20.96875 16.316406 C 20.957031 16.109375 20.847656 15.925781 20.683594 15.796875 C 20.429688 15.605469 19.941406 15.171875 20.085938 14.816406 C 20.28125 14.339844 20.996094 14.921875 20.996094 14.921875 Z M 21.101562 15.691406 "/>
<path style=" stroke:none;fill-rule:nonzero;fill:rgb(100%,81.568627%,17.647059%);fill-opacity:1;" d="M 23.578125 17.199219 L 24.101562 16.550781 L 23.738281 16.386719 C 23.738281 16.386719 23.21875 15.578125 22.179688 15.949219 C 21.144531 16.316406 22.777344 17.632812 22.722656 17.761719 C 22.722656 17.761719 22.828125 18.160156 22.441406 18.246094 C 22.15625 18.308594 21.859375 18.171875 21.714844 17.921875 C 21.597656 17.722656 21.515625 17.414062 21.585938 16.929688 L 21.4375 16.882812 C 21.4375 16.882812 20.945312 17.480469 21.332031 17.898438 L 21.949219 18.414062 C 21.949219 18.414062 22.402344 18.78125 23 18.367188 C 23.257812 18.1875 23.34375 17.980469 23.359375 17.796875 C 23.378906 17.59375 23.296875 17.394531 23.148438 17.246094 C 22.925781 17.019531 22.503906 16.527344 22.699219 16.195312 C 22.957031 15.75 23.585938 16.421875 23.585938 16.421875 Z M 23.578125 17.199219 "/>
<path style=" stroke:none;fill-rule:nonzero;fill:rgb(100%,81.568627%,17.647059%);fill-opacity:1;" d="M 18.453125 16.464844 C 18.578125 16.472656 18.703125 16.464844 18.828125 16.4375 C 18.878906 16.429688 18.910156 16.367188 18.894531 16.320312 C 18.878906 16.269531 18.828125 16.246094 18.777344 16.253906 C 18.746094 16.261719 18.714844 16.265625 18.683594 16.269531 L 18.707031 16.269531 C 18.621094 16.277344 18.539062 16.28125 18.453125 16.273438 C 18.402344 16.269531 18.351562 16.320312 18.355469 16.367188 C 18.355469 16.425781 18.398438 16.460938 18.453125 16.464844 Z M 18.453125 16.464844 "/>
</g>
</svg>
