<?xml version="1.0" encoding="UTF-8"?>
<svg xmlns="http://www.w3.org/2000/svg" xmlns:xlink="http://www.w3.org/1999/xlink" width="32px" height="32px" viewBox="0 0 32 15" version="1.1">
<g id="surface1">
<path style=" stroke:none;fill-rule:nonzero;fill:rgb(85.882353%,0%,12.941176%);fill-opacity:1;" d="M 30.628906 3.859375 L 1.910156 11.933594 C 0.925781 10.714844 0.339844 9.183594 0.339844 7.527344 C 0.339844 3.554688 3.703125 0.324219 7.839844 0.324219 L 24.171875 0.324219 C 26.917969 0.324219 29.320312 1.746094 30.628906 3.859375 Z M 30.628906 3.859375 "/>
<path style=" stroke:none;fill-rule:nonzero;fill:rgb(100%,100%,100%);fill-opacity:1;" d="M 7.84375 14.734375 L 24.171875 14.734375 C 28.3125 14.734375 31.675781 11.5 31.675781 7.527344 C 31.675781 6.1875 31.292969 4.933594 30.628906 3.859375 L 1.910156 11.933594 C 3.285156 13.632812 5.429688 14.734375 7.84375 14.734375 "/>
<path style=" stroke:none;fill-rule:nonzero;fill:rgb(10.196078%,9.019608%,10.588235%);fill-opacity:1;" d="M 0.335938 7.527344 C 0.335938 3.554688 3.703125 0.324219 7.84375 0.324219 L 24.171875 0.324219 C 28.3125 0.324219 31.675781 3.554688 31.675781 7.527344 C 31.675781 11.5 28.3125 14.734375 24.171875 14.734375 L 7.84375 14.734375 C 3.703125 14.734375 0.335938 11.5 0.335938 7.527344 M 7.84375 0 C 3.519531 0 0 3.378906 0 7.527344 C 0 11.679688 3.519531 15.058594 7.84375 15.058594 L 24.171875 15.058594 C 28.496094 15.058594 32.015625 11.679688 32.015625 7.527344 C 32.015625 3.378906 28.496094 0 24.171875 0 Z M 7.84375 0 "/>
<path style=" stroke:none;fill-rule:nonzero;fill:rgb(10.196078%,9.019608%,10.588235%);fill-opacity:1;" d="M 18.972656 6.191406 C 18.949219 6.238281 18.269531 7.574219 17.839844 8.429688 C 17.496094 7.738281 16.941406 6.613281 16.667969 6.0625 L 18.902344 6.0625 C 19.023438 6.0625 18.992188 6.144531 18.972656 6.191406 M 11.921875 8.804688 C 12.035156 8.539062 12.285156 7.945312 12.457031 7.546875 C 12.628906 7.945312 12.878906 8.539062 12.996094 8.804688 Z M 26.992188 11.636719 C 26.992188 11.636719 26.007812 9.644531 26.007812 9.644531 C 25.808594 9.253906 25.46875 9.039062 25.046875 9.039062 L 23.832031 9.039062 C 23.832031 9.039062 23.015625 9.039062 22.769531 9.039062 C 22.6875 9.039062 22.648438 8.976562 22.679688 8.917969 L 23 8.269531 L 23.796875 6.648438 C 23.902344 6.4375 23.941406 6.238281 23.941406 6.0625 C 23.941406 5.757812 23.828125 5.519531 23.777344 5.40625 C 23.765625 5.386719 22.402344 2.757812 22.402344 2.757812 C 22.164062 2.300781 21.695312 2.015625 21.179688 2.015625 L 11.089844 2.015625 C 10.722656 2.015625 10.390625 2.199219 10.183594 2.519531 C 10.171875 2.53125 5.492188 11.6875 5.492188 11.6875 C 5.265625 12.125 5.398438 12.453125 5.5 12.609375 C 5.707031 12.929688 6.066406 13.046875 6.335938 13.046875 L 8.992188 13.046875 C 9.714844 13.046875 9.988281 12.5625 10.128906 12.308594 C 10.492188 11.695312 10.539062 11.613281 10.578125 11.558594 C 10.605469 11.515625 10.660156 11.503906 10.773438 11.503906 L 14.175781 11.503906 C 14.285156 11.503906 14.34375 11.515625 14.371094 11.558594 C 14.410156 11.613281 14.457031 11.695312 14.820312 12.308594 C 14.960938 12.5625 15.234375 13.046875 15.957031 13.046875 L 26.078125 13.046875 C 26.425781 13.042969 26.730469 12.875 26.914062 12.59375 C 27.105469 12.300781 27.136719 11.9375 26.992188 11.636719 "/>
<path style=" stroke:none;fill-rule:nonzero;fill:rgb(100%,100%,100%);fill-opacity:1;" d="M 13.476562 9.132812 C 13.46875 9.144531 13.457031 9.152344 13.441406 9.152344 L 11.472656 9.152344 C 11.460938 9.152344 11.445312 9.144531 11.4375 9.132812 C 11.429688 9.117188 11.429688 9.101562 11.433594 9.082031 L 12.417969 6.683594 C 12.425781 6.667969 12.441406 6.65625 12.457031 6.65625 C 12.472656 6.65625 12.488281 6.667969 12.496094 6.683594 L 13.480469 9.082031 C 13.488281 9.101562 13.484375 9.117188 13.476562 9.132812 M 12.808594 6.566406 C 12.75 6.425781 12.613281 6.332031 12.457031 6.332031 C 12.300781 6.332031 12.164062 6.425781 12.105469 6.566406 L 11.121094 8.964844 C 11.074219 9.078125 11.085938 9.207031 11.15625 9.308594 C 11.226562 9.414062 11.34375 9.476562 11.472656 9.476562 L 13.441406 9.476562 C 13.570312 9.476562 13.6875 9.414062 13.757812 9.308594 C 13.828125 9.207031 13.839844 9.078125 13.792969 8.964844 Z M 26.199219 12.164062 C 26.167969 12.210938 26.125 12.238281 26.066406 12.238281 C 25.914062 12.238281 23.011719 12.238281 17.433594 12.238281 L 17.433594 12.234375 C 17.265625 12.234375 17.15625 12.09375 17.117188 12.03125 C 17 11.851562 16.976562 11.621094 17.058594 11.460938 L 18.019531 9.558594 L 18.023438 9.554688 L 18.019531 9.554688 L 19.609375 6.402344 C 19.730469 6.15625 19.722656 5.894531 19.589844 5.695312 C 19.46875 5.515625 19.269531 5.414062 19.035156 5.414062 L 15.972656 5.414062 L 14.695312 2.824219 L 21.179688 2.824219 C 21.375 2.824219 21.550781 2.933594 21.644531 3.109375 C 22.085938 3.957031 22.9375 5.589844 23 5.722656 C 23.074219 5.886719 23.140625 6.066406 23.027344 6.316406 C 22.878906 6.632812 22.03125 8.347656 21.9375 8.527344 C 21.75 8.890625 21.703125 9.21875 21.871094 9.480469 C 21.996094 9.675781 22.226562 9.84375 22.503906 9.84375 L 25.046875 9.847656 C 25.125 9.847656 25.179688 9.855469 25.246094 9.996094 L 26.226562 11.976562 C 26.246094 12.019531 26.242188 12.097656 26.199219 12.164062 M 16.132812 5.738281 L 19.039062 5.738281 C 19.152344 5.738281 19.246094 5.785156 19.304688 5.871094 C 19.375 5.976562 19.375 6.121094 19.308594 6.265625 L 17.835938 9.179688 Z M 16.480469 12.238281 L 15.957031 12.238281 C 15.804688 12.238281 15.738281 12.238281 15.554688 11.910156 L 15.074219 11.121094 C 14.898438 10.851562 14.566406 10.695312 14.175781 10.695312 L 10.773438 10.695312 C 10.382812 10.695312 10.050781 10.851562 9.875 11.121094 L 9.394531 11.910156 C 9.210938 12.238281 9.148438 12.238281 8.992188 12.238281 L 6.339844 12.234375 C 6.289062 12.234375 6.234375 12.210938 6.21875 12.183594 C 6.214844 12.179688 6.210938 12.167969 6.210938 12.15625 C 6.210938 12.132812 6.222656 12.09375 6.246094 12.054688 C 6.402344 11.753906 10.722656 3.292969 10.90625 2.933594 C 10.964844 2.839844 11.050781 2.824219 11.089844 2.824219 L 14.320312 2.824219 L 17.648438 9.550781 L 16.753906 11.320312 C 16.621094 11.582031 16.652344 11.929688 16.832031 12.203125 C 16.839844 12.214844 16.851562 12.226562 16.859375 12.238281 Z M 26.53125 11.839844 L 25.550781 9.851562 C 25.4375 9.628906 25.277344 9.523438 25.046875 9.523438 L 22.503906 9.519531 C 22.363281 9.519531 22.214844 9.417969 22.160156 9.308594 C 22.066406 9.136719 22.105469 8.929688 22.242188 8.671875 C 22.335938 8.492188 23.1875 6.765625 23.335938 6.449219 C 23.519531 6.046875 23.375 5.738281 23.308594 5.589844 C 23.226562 5.417969 21.996094 3.066406 21.945312 2.964844 C 21.796875 2.679688 21.503906 2.503906 21.179688 2.503906 L 11.089844 2.503906 C 10.898438 2.503906 10.726562 2.601562 10.609375 2.777344 C 10.558594 2.878906 6.101562 11.609375 5.945312 11.90625 C 5.832031 12.117188 5.875 12.269531 5.929688 12.355469 C 6.027344 12.503906 6.210938 12.554688 6.335938 12.554688 C 6.339844 12.554688 8.992188 12.5625 8.992188 12.5625 C 9.351562 12.5625 9.5 12.40625 9.695312 12.0625 L 10.160156 11.292969 C 10.273438 11.121094 10.503906 11.019531 10.773438 11.019531 L 14.175781 11.019531 C 14.445312 11.019531 14.675781 11.121094 14.789062 11.292969 L 15.257812 12.0625 C 15.449219 12.40625 15.597656 12.5625 15.957031 12.5625 L 16.480469 12.5625 C 22.679688 12.5625 25.910156 12.5625 26.074219 12.5625 C 26.242188 12.558594 26.394531 12.476562 26.484375 12.335938 C 26.585938 12.183594 26.605469 11.988281 26.53125 11.839844 "/>
</g>
</svg>
