<?xml version="1.0" encoding="UTF-8"?>
<svg xmlns="http://www.w3.org/2000/svg" xmlns:xlink="http://www.w3.org/1999/xlink" width="32px" height="32px" viewBox="0 0 32 41" version="1.1">
<g id="surface1">
<path style=" stroke:none;fill-rule:nonzero;fill:rgb(100%,100%,100%);fill-opacity:1;" d="M 28.367188 15.363281 L 28.464844 15.226562 L 28.324219 15.132812 C 27.800781 14.785156 27.25 14.40625 26.75 13.960938 C 25.957031 13.261719 25.3125 12.453125 24.832031 11.554688 C 24.511719 10.953125 24.277344 10.320312 24.046875 9.667969 L 23.960938 9.433594 L 23.769531 9.597656 C 23.082031 10.195312 22.304688 10.871094 21.273438 11.101562 C 20.582031 11.257812 19.828125 11.210938 18.875 10.960938 C 17.859375 10.691406 16.917969 10.5625 16 10.5625 C 15.082031 10.5625 14.136719 10.691406 13.113281 10.960938 C 12.160156 11.210938 11.410156 11.257812 10.714844 11.101562 C 9.6875 10.871094 8.90625 10.195312 8.21875 9.597656 L 8.027344 9.433594 L 7.945312 9.667969 C 7.710938 10.320312 7.476562 10.953125 7.15625 11.554688 C 6.675781 12.453125 6.03125 13.261719 5.238281 13.960938 C 4.738281 14.40625 4.1875 14.785156 3.664062 15.132812 L 3.523438 15.226562 L 3.621094 15.363281 C 3.925781 15.792969 4.195312 16.183594 4.421875 16.605469 C 5.324219 18.304688 5.53125 19.863281 5.074219 21.519531 C 4.960938 21.921875 4.820312 22.347656 4.601562 22.949219 C 4.277344 23.847656 4.039062 24.855469 3.914062 25.867188 C 3.6875 27.671875 3.625 31.070312 5.753906 33.53125 C 7.039062 35.015625 8.746094 35.871094 10.394531 36.691406 C 11.761719 37.378906 12.984375 38.023438 14.085938 38.949219 C 14.789062 39.53125 15.378906 40.175781 15.863281 40.734375 L 15.996094 40.882812 L 16.125 40.734375 C 16.609375 40.175781 17.203125 39.527344 17.902344 38.949219 C 19.003906 38.023438 20.226562 37.378906 21.59375 36.691406 C 23.242188 35.871094 24.949219 35.015625 26.238281 33.53125 C 28.363281 31.074219 28.300781 27.671875 28.078125 25.863281 C 27.949219 24.859375 27.710938 23.851562 27.386719 22.949219 C 27.171875 22.359375 27.027344 21.917969 26.917969 21.519531 C 26.457031 19.863281 26.664062 18.300781 27.570312 16.605469 C 27.792969 16.1875 28.0625 15.796875 28.367188 15.363281 "/>
<path style=" stroke:none;fill-rule:nonzero;fill:rgb(0%,0%,0%);fill-opacity:1;" d="M 15.996094 40.09375 C 15.011719 38.96875 13.925781 38.050781 12.628906 37.289062 C 10.425781 35.996094 7.867188 35.175781 6.15625 33.199219 C 5.105469 31.988281 4.5625 30.40625 4.390625 28.757812 C 4.191406 26.8125 4.503906 24.769531 5.101562 23.117188 C 5.472656 22.074219 5.757812 21.199219 5.839844 20.300781 C 5.957031 18.925781 5.53125 17.574219 4.886719 16.367188 C 4.699219 16.015625 4.488281 15.6875 4.257812 15.359375 C 5.207031 14.730469 6.042969 14.023438 6.746094 13.136719 C 7.425781 12.277344 7.898438 11.347656 8.265625 10.328125 C 9.847656 11.6875 11.238281 11.988281 13.25 11.460938 C 15.28125 10.921875 16.707031 10.921875 18.738281 11.460938 C 20.75 11.988281 22.144531 11.6875 23.722656 10.328125 C 24.09375 11.347656 24.5625 12.277344 25.242188 13.136719 C 25.945312 14.023438 26.785156 14.730469 27.730469 15.359375 C 27.5 15.6875 27.289062 16.015625 27.101562 16.367188 C 26.457031 17.574219 26.03125 18.925781 26.148438 20.300781 C 26.230469 21.199219 26.515625 22.074219 26.886719 23.117188 C 27.484375 24.769531 27.796875 26.8125 27.59375 28.757812 C 27.425781 30.40625 26.882812 31.988281 25.832031 33.199219 C 24.121094 35.175781 21.5625 35.996094 19.359375 37.289062 C 18.0625 38.050781 16.976562 38.96875 15.996094 40.09375 "/>
<path style=" stroke:none;fill-rule:nonzero;fill:rgb(100%,100%,100%);fill-opacity:1;" d="M 19.746094 36.753906 C 21.015625 36.058594 22.375 35.476562 23.59375 34.703125 L 23.59375 10.804688 C 22.375 11.800781 21.152344 12.109375 19.746094 11.9375 L 19.746094 20.570312 C 19.601562 20.34375 19.476562 20.089844 19.359375 19.796875 C 18.632812 20.367188 18.105469 20.527344 17.199219 20.3125 C 16.316406 20.101562 15.675781 20.101562 14.792969 20.3125 C 13.886719 20.527344 13.355469 20.367188 12.628906 19.796875 C 12.511719 20.089844 12.390625 20.34375 12.246094 20.570312 L 12.246094 11.9375 C 10.835938 12.109375 9.613281 11.796875 8.394531 10.804688 L 8.394531 34.703125 C 9.613281 35.476562 10.972656 36.058594 12.246094 36.753906 L 12.246094 29.449219 C 12.929688 29.925781 13.757812 30.199219 14.5 30.59375 C 15.082031 30.90625 15.542969 31.28125 15.996094 31.75 C 16.449219 31.28125 16.910156 30.90625 17.492188 30.59375 C 18.234375 30.199219 19.058594 29.925781 19.746094 29.449219 Z M 19.746094 36.753906 "/>
<path style=" stroke:none;fill-rule:nonzero;fill:rgb(88.235294%,0.392157%,0.392157%);fill-opacity:1;" d="M 15.996094 31.246094 C 16.386719 30.867188 16.832031 30.546875 17.320312 30.289062 C 18.230469 29.804688 19.320312 29.496094 20.039062 28.742188 C 20.453125 28.308594 20.667969 27.738281 20.734375 27.140625 C 20.816406 26.417969 20.6875 25.660156 20.445312 25.054688 C 20.105469 24.1875 19.957031 23.53125 20.34375 22.640625 C 20.4375 22.421875 20.554688 22.207031 20.691406 22.011719 C 20.054688 21.59375 19.527344 21.039062 19.207031 20.351562 C 18.550781 20.800781 17.875 20.832031 17.113281 20.652344 C 16.292969 20.453125 15.699219 20.453125 14.875 20.652344 C 14.113281 20.832031 13.441406 20.796875 12.78125 20.351562 C 12.460938 21.039062 11.9375 21.59375 11.296875 22.011719 C 11.433594 22.207031 11.550781 22.421875 11.648438 22.640625 C 12.03125 23.53125 11.882812 24.1875 11.542969 25.054688 C 11.300781 25.660156 11.171875 26.417969 11.253906 27.140625 C 11.320312 27.738281 11.535156 28.308594 11.953125 28.742188 C 12.667969 29.496094 13.761719 29.804688 14.667969 30.289062 C 15.15625 30.546875 15.601562 30.867188 15.996094 31.246094 "/>
<path style=" stroke:none;fill-rule:nonzero;fill:rgb(100%,100%,100%);fill-opacity:1;" d="M 15.996094 24.097656 L 16.292969 23.191406 L 17.265625 23.191406 L 16.476562 22.632812 L 16.78125 21.726562 L 15.996094 22.285156 L 15.207031 21.726562 L 15.511719 22.632812 L 14.722656 23.191406 L 15.699219 23.191406 Z M 15.996094 24.097656 "/>
<path style=" stroke:none;fill-rule:nonzero;fill:rgb(100%,100%,100%);fill-opacity:1;" d="M 18.027344 23.695312 C 18.734375 24.265625 19.183594 25.117188 19.183594 26.066406 C 19.183594 27.765625 17.746094 29.152344 15.996094 29.152344 C 14.242188 29.152344 12.804688 27.765625 12.804688 26.066406 C 12.804688 25.117188 13.253906 24.265625 13.960938 23.695312 C 13.683594 24.089844 13.523438 24.554688 13.523438 25.066406 C 13.523438 26.390625 14.636719 27.480469 15.996094 27.480469 C 17.355469 27.480469 18.464844 26.390625 18.464844 25.066406 C 18.464844 24.554688 18.304688 24.085938 18.027344 23.695312 "/>
<path style=" stroke:none;fill-rule:nonzero;fill:rgb(100%,100%,100%);fill-opacity:1;" d="M 17.652344 32.132812 C 17.355469 32.132812 17.113281 32.773438 17.113281 33.558594 C 17.113281 34.34375 17.355469 34.984375 17.652344 34.984375 C 17.945312 34.984375 18.183594 34.34375 18.183594 33.558594 C 18.183594 32.773438 17.945312 32.132812 17.652344 32.132812 M 17.652344 31.773438 C 18.488281 31.773438 19.175781 32.574219 19.175781 33.558594 C 19.175781 34.542969 18.488281 35.34375 17.652344 35.34375 C 16.808594 35.34375 16.121094 34.542969 16.121094 33.558594 C 16.121094 32.574219 16.808594 31.773438 17.652344 31.773438 "/>
<path style=" stroke:none;fill-rule:nonzero;fill:rgb(0%,0%,0%);fill-opacity:1;" d="M 20.65625 33.917969 C 21.125 33.925781 21.34375 34.496094 20.96875 34.726562 C 20.96875 34.96875 21.347656 35.039062 21.601562 34.921875 C 21.867188 34.789062 21.972656 34.488281 21.921875 34.21875 C 21.832031 33.6875 21.425781 33.6875 20.984375 33.664062 L 20.984375 33.382812 C 21.40625 33.375 21.792969 33.382812 21.878906 32.875 C 21.945312 32.472656 21.707031 32.109375 21.28125 32.121094 C 21.113281 32.128906 20.964844 32.195312 20.957031 32.335938 C 21.328125 32.558594 21.140625 33.15625 20.675781 33.164062 C 20.273438 33.164062 20.109375 32.769531 20.207031 32.460938 C 20.347656 32.011719 20.917969 31.765625 21.371094 31.769531 C 21.882812 31.761719 22.644531 32.03125 22.75 32.585938 C 22.816406 32.945312 22.542969 33.308594 22.085938 33.503906 C 22.535156 33.640625 22.847656 34.035156 22.785156 34.433594 C 22.679688 35.011719 21.910156 35.355469 21.390625 35.347656 C 20.933594 35.351562 20.351562 35.097656 20.207031 34.632812 C 20.109375 34.3125 20.25 33.917969 20.65625 33.917969 "/>
<path style=" stroke:none;fill-rule:nonzero;fill:rgb(100%,100%,100%);fill-opacity:1;" d="M 13.945312 34.757812 C 14.019531 34.640625 14.007812 34.402344 13.9375 34.265625 C 13.851562 34.101562 13.675781 34.007812 13.40625 34.019531 C 12.855469 34.046875 12.765625 34.660156 13.117188 34.992188 C 13.375 35.234375 13.816406 35.351562 14.105469 35.34375 C 14.933594 35.34375 15.605469 34.542969 15.605469 33.558594 C 15.605469 32.574219 14.933594 31.773438 14.105469 31.773438 C 13.773438 31.765625 13.417969 31.867188 13.167969 32.09375 C 12.730469 32.496094 12.652344 33.265625 13.183594 33.636719 C 13.566406 33.902344 14.167969 33.929688 14.613281 33.65625 C 14.632812 34.351562 14.398438 34.976562 14.105469 34.984375 C 13.96875 34.984375 13.941406 34.894531 13.945312 34.757812 M 14.105469 32.132812 C 14.664062 32.132812 14.675781 33.457031 14.105469 33.457031 C 13.515625 33.457031 13.5625 32.132812 14.105469 32.132812 "/>
<path style=" stroke:none;fill-rule:nonzero;fill:rgb(0%,0%,0%);fill-opacity:1;" d="M 11.726562 35.269531 L 10.066406 35.269531 L 10.042969 35.074219 L 10.46875 34.742188 L 10.46875 32.785156 L 9.867188 32.785156 L 9.867188 32.421875 C 10.195312 32.300781 10.515625 32.199219 10.886719 31.847656 L 11.328125 31.847656 L 11.328125 34.742188 L 11.753906 35.074219 Z M 11.726562 35.269531 "/>
<path style=" stroke:none;fill-rule:nonzero;fill:rgb(0%,0%,0%);fill-opacity:1;" d="M 10.039062 18.210938 C 10.417969 18.269531 10.820312 18.191406 10.929688 17.773438 C 11.019531 17.441406 10.996094 16.851562 10.890625 16.519531 C 10.804688 16.261719 10.636719 16.078125 10.304688 16.078125 L 9.90625 16.082031 L 9.90625 18.03125 C 9.914062 18.160156 9.957031 18.203125 10.039062 18.210938 M 9.90625 13.90625 L 9.90625 15.632812 L 10.246094 15.632812 C 10.707031 15.632812 10.785156 15.152344 10.78125 14.691406 C 10.777344 14.355469 10.828125 13.992188 10.554688 13.828125 C 10.46875 13.777344 10.296875 13.753906 10.15625 13.746094 C 10.015625 13.738281 9.90625 13.753906 9.90625 13.90625 M 9.746094 18.554688 C 9.222656 18.460938 8.628906 18.597656 8.527344 18.640625 C 8.578125 18.496094 8.664062 18.464844 8.769531 18.382812 C 8.84375 18.324219 8.859375 18.242188 8.875 17.941406 L 8.875 13.863281 C 8.875 13.683594 8.757812 13.527344 8.628906 13.414062 L 10.53125 13.414062 C 10.9375 13.414062 11.183594 13.464844 11.464844 13.789062 C 11.867188 14.253906 11.980469 14.953125 11.585938 15.472656 C 11.441406 15.671875 11.210938 15.808594 10.914062 15.859375 C 11.253906 15.894531 11.554688 16.101562 11.777344 16.375 C 12.378906 17.09375 12.113281 18.265625 11.199219 18.574219 C 10.765625 18.722656 10.191406 18.597656 9.746094 18.554688 "/>
<path style=" stroke:none;fill-rule:nonzero;fill:rgb(100%,100%,100%);fill-opacity:1;" d="M 14.996094 13.429688 L 17.496094 13.429688 C 17.363281 13.542969 17.25 13.683594 17.25 13.859375 L 17.25 18.140625 C 17.261719 18.417969 17.265625 18.515625 17.328125 18.570312 C 17.226562 18.546875 17.125 18.546875 17.011719 18.59375 C 16.292969 18.804688 15.441406 19.023438 14.703125 18.753906 C 14.398438 18.640625 14.09375 18.453125 13.910156 18.175781 C 13.585938 17.671875 13.703125 16.835938 14.449219 16.894531 C 14.730469 16.917969 14.992188 17.085938 14.992188 17.378906 C 15.007812 17.710938 14.738281 17.898438 14.394531 17.859375 C 14.390625 17.859375 14.386719 17.894531 14.382812 17.894531 C 14.425781 18.253906 14.769531 18.410156 15.117188 18.472656 C 15.605469 18.5625 16.132812 18.449219 16.132812 18.042969 L 16.132812 13.773438 C 15.902344 13.730469 15.574219 13.714844 15.371094 13.773438 C 15.109375 13.855469 14.976562 13.941406 14.769531 13.882812 C 14.886719 13.746094 14.964844 13.621094 14.996094 13.429688 "/>
<path style=" stroke:none;fill-rule:nonzero;fill:rgb(0%,0%,0%);fill-opacity:1;" d="M 21.171875 15.523438 L 22.035156 14.070312 C 22.195312 13.796875 22.132812 13.652344 21.894531 13.429688 L 23.21875 13.429688 C 22.921875 13.601562 22.75 13.734375 22.574219 14.019531 L 21.566406 15.632812 C 22.28125 15.554688 22.65625 16.042969 22.828125 16.9375 C 22.9375 17.5 22.945312 18.25 23.464844 18.625 L 22.835938 18.625 C 21.539062 18.695312 22.449219 15.976562 21.171875 15.976562 L 21.171875 17.941406 C 21.183594 18.242188 21.199219 18.324219 21.277344 18.382812 C 21.386719 18.464844 21.476562 18.496094 21.53125 18.640625 C 21.121094 18.558594 20.273438 18.535156 19.847656 18.65625 C 19.902344 18.511719 19.960938 18.433594 20.074219 18.351562 C 20.144531 18.296875 20.160156 18.242188 20.179688 17.941406 L 20.179688 13.863281 C 20.179688 13.683594 20.0625 13.542969 19.929688 13.429688 L 21.417969 13.429688 C 21.285156 13.542969 21.171875 13.683594 21.171875 13.863281 Z M 21.171875 15.523438 "/>
<path style="fill-rule:nonzero;fill:rgb(0%,0%,0%);fill-opacity:1;stroke-width:1.37475;stroke-linecap:butt;stroke-linejoin:miter;stroke:rgb(100%,100%,100%);stroke-opacity:1;stroke-miterlimit:4;" d="M -0.0042266 -0.010546 L -12.717335 -0.010546 L -17.019245 12.238793 L -21.321156 -0.010546 L -34.034264 -0.010546 L -23.88946 -7.753878 L -27.656307 -19.981343 L -17.019245 -12.719235 L -6.382183 -19.981343 L -10.14903 -7.753878 Z M -0.0042266 -0.010546 " transform="matrix(0.182513,0,0,-0.178581,24.727334,5.294992)"/>
<path style="fill-rule:nonzero;fill:rgb(0%,0%,0%);fill-opacity:1;stroke-width:1.37475;stroke-linecap:butt;stroke-linejoin:miter;stroke:rgb(100%,100%,100%);stroke-opacity:1;stroke-miterlimit:4;" d="M 0.00206741 -0.010546 L -12.711041 -0.010546 L -17.012951 12.238793 L -21.314861 -0.010546 L -34.049372 -0.010546 L -23.904569 -7.753878 L -27.650013 -19.981343 L -17.012951 -12.719235 L -6.375889 -19.981343 L -10.142736 -7.753878 Z M 0.00206741 -0.010546 " transform="matrix(0.182513,0,0,-0.178581,13.433216,5.294992)"/>
<path style="fill-rule:nonzero;fill:rgb(0%,0%,0%);fill-opacity:1;stroke-width:1.37475;stroke-linecap:butt;stroke-linejoin:miter;stroke:rgb(100%,100%,100%);stroke-opacity:1;stroke-miterlimit:4;" d="M 0.0106617 -0.0105459 L -12.723849 -0.0105459 L -17.025759 12.238793 L -21.32767 -0.0105459 L -34.040778 -0.0105459 L -23.895974 -7.753878 L -27.662821 -19.981343 L -17.025759 -12.719235 L -6.388697 -19.981343 L -10.134142 -7.753878 Z M 0.0106617 -0.0105459 " transform="matrix(0.182513,0,0,-0.178581,19.162117,3.533273)"/>
</g>
</svg>
