<?xml version="1.0" encoding="UTF-8"?>
<svg xmlns="http://www.w3.org/2000/svg" xmlns:xlink="http://www.w3.org/1999/xlink" width="32px" height="32px" viewBox="0 0 32 48" version="1.1">
<g id="surface1">
<path style=" stroke:none;fill-rule:nonzero;fill:rgb(62.352941%,54.901961%,31.372549%);fill-opacity:1;" d="M 11.222656 0.191406 L 12.289062 3.4375 L 15.746094 3.4375 L 12.949219 5.449219 L 14.019531 8.695312 L 11.222656 6.6875 L 8.425781 8.695312 L 9.496094 5.449219 L 6.699219 3.4375 L 10.15625 3.4375 L 11.222656 0.191406 "/>
<path style=" stroke:none;fill-rule:nonzero;fill:rgb(62.352941%,54.901961%,31.372549%);fill-opacity:1;" d="M 20.859375 0.191406 L 21.925781 3.4375 L 25.382812 3.4375 L 22.585938 5.449219 L 23.660156 8.695312 L 20.859375 6.6875 L 18.0625 8.695312 L 19.132812 5.449219 L 16.335938 3.4375 L 19.792969 3.4375 L 20.859375 0.191406 "/>
<path style=" stroke:none;fill-rule:evenodd;fill:rgb(13.72549%,31.372549%,66.27451%);fill-opacity:1;" d="M 25.785156 32.714844 C 25.648438 38.109375 23.304688 42.339844 18.140625 43.929688 C 16.789062 44.339844 15.335938 44.21875 13.878906 43.863281 C 16.742188 40.277344 18.753906 34.660156 20.414062 28.765625 C 17.457031 28.261719 15.730469 26.855469 14.800781 25.089844 C 15.285156 24.648438 15.761719 24.1875 16.222656 23.710938 C 17.191406 22.6875 18.085938 21.589844 18.8125 20.464844 C 23.6875 22.28125 25.933594 26.90625 25.785156 32.714844 Z M 13.882812 20.839844 C 13.886719 20.453125 13.914062 20.070312 13.957031 19.691406 C 14.515625 19.65625 15.097656 19.667969 15.683594 19.734375 C 16.140625 19.785156 16.582031 19.859375 17.011719 19.949219 C 16.492188 20.824219 15.835938 21.554688 15.085938 22.199219 C 14.765625 22.46875 14.425781 22.726562 14.070312 22.972656 C 13.953125 22.363281 13.894531 21.742188 13.882812 21.117188 C 13.882812 21.023438 13.882812 20.929688 13.882812 20.839844 Z M 17.332031 14.050781 C 18.042969 14.265625 18.1875 15.289062 17.941406 17.5625 C 16.832031 17.359375 15.679688 17.25 14.496094 17.242188 C 15.199219 15.179688 16.363281 13.761719 17.332031 14.050781 Z M 7.851562 45.738281 C 7.625 45.78125 7.386719 45.804688 7.140625 45.804688 C 6.699219 45.691406 5.644531 45.761719 5.5625 44.417969 C 5.765625 43.695312 6.503906 43.488281 7.296875 43.453125 C 7.863281 43.433594 8.832031 43.910156 10.035156 44.550781 C 9.441406 45.148438 8.714844 45.585938 7.851562 45.738281 Z M 31.878906 32.488281 C 31.609375 25.785156 26.796875 20.144531 20.058594 18.082031 C 20.46875 17.058594 20.703125 16.035156 20.699219 15.046875 C 20.691406 12.683594 19.566406 10.503906 17.671875 10.394531 C 14.167969 10.402344 12.460938 14.085938 11.878906 17.421875 C 1.4375 18.921875 -2.707031 29.589844 2.328125 33.753906 C 6.390625 35.484375 9.515625 33.421875 9.738281 30.527344 C 7.191406 30.832031 6.339844 29.257812 6.351562 27.238281 C 6.367188 23.835938 8.59375 21.199219 11.636719 20.160156 C 11.640625 20.523438 11.65625 20.863281 11.6875 21.167969 C 11.703125 21.339844 11.726562 21.507812 11.742188 21.679688 C 11.835938 22.5625 11.925781 23.398438 12.007812 24.207031 C 11.003906 24.746094 9.933594 25.253906 8.84375 25.796875 L 8.875 29.074219 C 9.914062 28.636719 11.097656 27.957031 12.304688 27.105469 C 12.355469 27.660156 12.414062 28.214844 12.460938 28.769531 C 12.785156 32.210938 12.746094 35.320312 12.105469 40.007812 C 11.976562 40.964844 11.660156 42.039062 11.15625 43 C 9.15625 42.261719 7.296875 41.441406 5.878906 41.414062 C 4.539062 41.347656 2.632812 41.988281 2.355469 43.828125 C 1.949219 46.53125 4.765625 47.988281 7.3125 47.792969 C 7.726562 47.761719 8.132812 47.695312 8.527344 47.601562 C 9.859375 47.28125 11.0625 46.617188 12.15625 45.675781 C 14.195312 46.722656 16.542969 47.726562 18.664062 47.652344 C 26.605469 47.382812 32.140625 40.734375 31.878906 32.488281 "/>
</g>
</svg>
