<?xml version="1.0" encoding="UTF-8"?>
<svg xmlns="http://www.w3.org/2000/svg" xmlns:xlink="http://www.w3.org/1999/xlink" width="32px" height="32px" viewBox="0 0 32 44" version="1.1">
<defs>
<clipPath id="clip1">
  <path d="M 0 0 L 32 0 L 32 43.945312 L 0 43.945312 Z M 0 0 "/>
</clipPath>
</defs>
<g id="surface1">
<path style=" stroke:none;fill-rule:nonzero;fill:rgb(100%,100%,100%);fill-opacity:1;" d="M 12.253906 3.761719 L 12.253906 7.515625 C 10.875 7.347656 9.652344 7.089844 8.667969 6.769531 L 8.667969 3.019531 C 9.546875 3.339844 10.789062 3.597656 12.253906 3.761719 "/>
<path style=" stroke:none;fill-rule:nonzero;fill:rgb(100%,100%,100%);fill-opacity:1;" d="M 19.058594 3.847656 L 19.058594 7.609375 C 18.121094 7.695312 17.125 7.742188 16.089844 7.742188 C 14.941406 7.742188 13.835938 7.683594 12.808594 7.578125 L 12.808594 3.820312 C 13.824219 3.917969 14.929688 3.96875 16.089844 3.96875 C 17.132812 3.96875 18.128906 3.925781 19.058594 3.847656 "/>
<path style=" stroke:none;fill-rule:nonzero;fill:rgb(100%,100%,100%);fill-opacity:1;" d="M 23.390625 3.0625 L 23.390625 6.808594 C 22.355469 7.136719 21.066406 7.390625 19.613281 7.554688 L 19.613281 3.796875 C 21.148438 3.640625 22.457031 3.382812 23.390625 3.0625 "/>
<path style=" stroke:none;fill-rule:nonzero;fill:rgb(92.941176%,8.627451%,22.352941%);fill-opacity:1;" d="M 30.164062 5.257812 C 30.15625 7.765625 29.964844 13.734375 28.476562 20.40625 C 27.449219 25.023438 25.988281 29.101562 24.140625 32.539062 C 21.953125 36.601562 19.207031 39.769531 15.972656 41.964844 C 15.597656 41.730469 14.941406 41.28125 14.121094 40.566406 C 12.910156 39.511719 11.082031 37.644531 9.234375 34.746094 C 7.160156 31.484375 5.488281 27.601562 4.265625 23.210938 C 2.800781 17.933594 1.988281 11.90625 1.851562 5.28125 C 2.519531 5.738281 3.601562 6.40625 5.066406 7.074219 C 7.398438 8.136719 11.1875 9.410156 15.996094 9.410156 C 20.808594 9.410156 24.550781 8.167969 26.847656 7.125 C 28.414062 6.414062 29.53125 5.703125 30.164062 5.257812 "/>
<g clip-path="url(#clip1)" clip-rule="nonzero">
<path style=" stroke:none;fill-rule:nonzero;fill:rgb(100%,100%,100%);fill-opacity:1;" d="M 9.875 2.796875 C 11.226562 3.117188 13.523438 3.308594 16.03125 3.308594 C 18.554688 3.308594 20.871094 3.113281 22.21875 2.789062 L 22.234375 2.785156 L 22.238281 2.785156 C 23.238281 2.539062 23.25 2.332031 23.25 2.320312 C 23.25 2.273438 23.144531 2.148438 22.753906 2.007812 C 21.601562 1.601562 18.964844 1.335938 16.03125 1.335938 C 13.09375 1.335938 10.457031 1.601562 9.308594 2.007812 C 8.917969 2.148438 8.8125 2.273438 8.8125 2.320312 C 8.8125 2.398438 9.027344 2.589844 9.839844 2.789062 Z M 8.8125 6.671875 C 9.730469 6.960938 10.867188 7.199219 12.109375 7.359375 L 12.109375 3.886719 C 10.792969 3.730469 9.660156 3.5 8.8125 3.214844 Z M 19.757812 7.398438 C 21.070312 7.242188 22.273438 7.007812 23.25 6.707031 L 23.25 3.257812 C 22.347656 3.542969 21.144531 3.773438 19.757812 3.921875 Z M 12.953125 7.453125 C 13.960938 7.550781 15.019531 7.601562 16.089844 7.601562 C 17.050781 7.601562 18 7.5625 18.914062 7.480469 L 18.914062 4 C 18 4.070312 17.050781 4.109375 16.089844 4.109375 C 15.011719 4.109375 13.957031 4.0625 12.953125 3.972656 Z M 2 5.550781 C 2.15625 12.054688 2.964844 17.984375 4.40625 23.171875 C 5.621094 27.550781 7.285156 31.421875 9.355469 34.671875 C 11.191406 37.558594 13.011719 39.414062 14.214844 40.460938 C 14.964844 41.113281 15.570312 41.542969 15.972656 41.796875 C 19.152344 39.617188 21.859375 36.480469 24.015625 32.472656 C 25.859375 29.050781 27.3125 24.980469 28.339844 20.375 C 29.789062 13.878906 30 8.003906 30.019531 5.527344 C 29.339844 5.988281 28.296875 6.617188 26.90625 7.25 C 24.597656 8.296875 20.832031 9.546875 15.996094 9.546875 C 11.160156 9.546875 7.351562 8.269531 5.003906 7.199219 C 3.683594 6.59375 2.671875 5.992188 2 5.550781 M 15.605469 43.53125 C 15.449219 43.453125 11.734375 41.515625 7.980469 35.667969 C 5.804688 32.277344 4.054688 28.253906 2.785156 23.707031 C 1.203125 18.058594 0.359375 11.574219 0.273438 4.441406 L 0.273438 4.429688 C 0.273438 4.121094 0.40625 3.707031 0.777344 3.464844 C 0.878906 3.398438 1.054688 3.289062 1.316406 3.289062 C 1.390625 3.289062 1.464844 3.296875 1.542969 3.3125 C 1.664062 3.339844 1.785156 3.390625 1.902344 3.464844 L 1.980469 3.511719 C 2.085938 3.574219 2.1875 3.644531 2.285156 3.71875 C 2.605469 3.957031 3.800781 4.8125 5.777344 5.707031 C 6.296875 5.945312 6.839844 6.164062 7.390625 6.367188 L 7.390625 1.878906 C 7.390625 1.378906 8.265625 0.96875 9.996094 0.65625 C 11.609375 0.367188 13.75 0.207031 16.03125 0.207031 C 18.308594 0.207031 20.453125 0.367188 22.066406 0.65625 C 23.792969 0.96875 24.671875 1.378906 24.671875 1.878906 L 24.671875 6.355469 C 27.882812 5.164062 29.667969 3.707031 29.742188 3.644531 C 29.875 3.527344 30.238281 3.253906 30.675781 3.253906 C 30.820312 3.253906 30.957031 3.285156 31.089844 3.339844 C 31.324219 3.445312 31.722656 3.722656 31.722656 4.429688 C 31.722656 4.4375 31.722656 4.492188 31.722656 4.492188 C 31.75 6.375 31.707031 13.109375 30.003906 20.734375 C 28.945312 25.484375 27.4375 29.695312 25.527344 33.25 C 23.132812 37.699219 20.085938 41.140625 16.46875 43.488281 L 16.050781 43.757812 Z M 15.605469 43.53125 "/>
<path style=" stroke:none;fill-rule:nonzero;fill:rgb(92.54902%,9.019608%,22.745098%);fill-opacity:1;" d="M 15.996094 9.6875 C 20.859375 9.6875 24.644531 8.429688 26.964844 7.378906 C 28.222656 6.808594 29.195312 6.238281 29.875 5.792969 C 29.84375 8.402344 29.597656 14.085938 28.199219 20.347656 C 27.175781 24.9375 25.726562 28.996094 23.890625 32.40625 C 21.761719 36.363281 19.097656 39.464844 15.96875 41.628906 C 15.574219 41.371094 15.003906 40.960938 14.3125 40.355469 C 13.113281 39.3125 11.304688 37.46875 9.476562 34.601562 C 7.414062 31.359375 5.753906 27.5 4.542969 23.136719 C 3.125 18.03125 2.320312 12.203125 2.148438 5.8125 C 2.816406 6.238281 3.757812 6.78125 4.945312 7.324219 C 7.304688 8.402344 11.136719 9.6875 15.996094 9.6875 M 13.09375 7.328125 L 13.09375 4.125 C 14.058594 4.207031 15.0625 4.246094 16.089844 4.246094 C 17 4.246094 17.902344 4.214844 18.773438 4.148438 L 18.773438 7.355469 C 17.902344 7.425781 17.003906 7.460938 16.089844 7.460938 C 15.066406 7.460938 14.0625 7.417969 13.09375 7.328125 M 19.898438 4.046875 C 21.152344 3.90625 22.246094 3.703125 23.105469 3.445312 L 23.105469 6.605469 C 22.195312 6.875 21.097656 7.09375 19.898438 7.238281 Z M 8.953125 6.566406 L 8.953125 3.410156 C 9.761719 3.660156 10.789062 3.867188 11.96875 4.011719 L 11.96875 7.199219 C 10.839844 7.046875 9.804688 6.832031 8.953125 6.566406 M 8.984375 2.320312 C 9.035156 2.285156 9.140625 2.21875 9.359375 2.140625 C 10.492188 1.734375 13.109375 1.472656 16.03125 1.472656 C 18.949219 1.472656 21.570312 1.734375 22.703125 2.140625 C 22.921875 2.21875 23.027344 2.285156 23.078125 2.320312 C 23 2.382812 22.785156 2.503906 22.21875 2.644531 L 22.183594 2.652344 C 20.847656 2.976562 18.546875 3.167969 16.03125 3.167969 C 13.546875 3.167969 11.269531 2.980469 9.925781 2.664062 L 9.875 2.652344 C 9.285156 2.511719 9.0625 2.382812 8.984375 2.320312 M 16.03125 0.0664062 C 13.742188 0.0664062 11.589844 0.226562 9.96875 0.519531 C 9.167969 0.664062 8.535156 0.835938 8.085938 1.027344 C 7.835938 1.132812 7.652344 1.242188 7.515625 1.363281 C 7.335938 1.519531 7.246094 1.691406 7.246094 1.878906 L 7.246094 6.164062 C 6.765625 5.984375 6.292969 5.789062 5.835938 5.582031 C 3.875 4.691406 2.6875 3.84375 2.371094 3.605469 C 2.269531 3.53125 2.164062 3.457031 2.054688 3.390625 L 1.976562 3.34375 C 1.847656 3.265625 1.710938 3.210938 1.574219 3.179688 C 1.488281 3.160156 1.398438 3.148438 1.316406 3.148438 C 1.011719 3.148438 0.808594 3.28125 0.699219 3.351562 C 0.28125 3.621094 0.132812 4.085938 0.132812 4.429688 L 0.132812 4.441406 C 0.21875 11.585938 1.0625 18.082031 2.648438 23.746094 C 3.921875 28.300781 5.675781 32.339844 7.859375 35.742188 C 11.632812 41.621094 15.378906 43.574219 15.539062 43.65625 L 15.910156 43.84375 L 16.058594 43.921875 L 16.199219 43.832031 L 16.546875 43.605469 C 20.183594 41.246094 23.246094 37.785156 25.652344 33.316406 C 27.570312 29.75 29.082031 25.527344 30.144531 20.761719 C 31.847656 13.125 31.890625 6.375 31.867188 4.492188 L 31.863281 4.457031 C 31.863281 4.445312 31.863281 4.4375 31.863281 4.429688 C 31.863281 3.613281 31.363281 3.308594 31.148438 3.214844 C 30.996094 3.148438 30.839844 3.117188 30.675781 3.117188 C 30.191406 3.117188 29.796875 3.410156 29.648438 3.539062 C 29.546875 3.625 27.851562 4.996094 24.8125 6.152344 L 24.8125 1.878906 C 24.8125 1.382812 24.183594 1.117188 23.972656 1.027344 C 23.527344 0.835938 22.894531 0.664062 22.089844 0.519531 C 20.46875 0.226562 18.316406 0.0664062 16.03125 0.0664062 M 15.996094 9.410156 C 11.1875 9.410156 7.398438 8.136719 5.066406 7.074219 C 3.601562 6.40625 2.519531 5.738281 1.851562 5.28125 C 1.988281 11.90625 2.800781 17.933594 4.265625 23.210938 C 5.488281 27.601562 7.160156 31.484375 9.234375 34.746094 C 11.082031 37.644531 12.910156 39.511719 14.121094 40.566406 C 14.941406 41.28125 15.597656 41.730469 15.972656 41.964844 C 19.207031 39.769531 21.953125 36.601562 24.140625 32.539062 C 25.988281 29.101562 27.449219 25.023438 28.476562 20.40625 C 29.964844 13.734375 30.15625 7.765625 30.164062 5.257812 C 29.53125 5.703125 28.414062 6.414062 26.847656 7.125 C 24.550781 8.167969 20.808594 9.410156 15.996094 9.410156 M 16.089844 7.742188 C 17.125 7.742188 18.121094 7.695312 19.058594 7.609375 L 19.058594 3.847656 C 18.128906 3.925781 17.132812 3.96875 16.089844 3.96875 C 14.929688 3.96875 13.824219 3.917969 12.808594 3.820312 L 12.808594 7.578125 C 13.835938 7.683594 14.941406 7.742188 16.089844 7.742188 M 19.613281 7.554688 C 21.066406 7.390625 22.355469 7.136719 23.390625 6.808594 L 23.390625 3.0625 C 22.457031 3.382812 21.148438 3.640625 19.613281 3.796875 Z M 12.253906 7.515625 L 12.253906 3.761719 C 10.789062 3.597656 9.546875 3.339844 8.667969 3.019531 L 8.667969 6.769531 C 9.652344 7.089844 10.875 7.347656 12.253906 7.515625 M 16.03125 3.449219 C 18.648438 3.449219 20.945312 3.238281 22.25 2.921875 C 22.253906 2.921875 22.253906 2.921875 22.253906 2.921875 C 22.976562 2.75 23.390625 2.542969 23.390625 2.320312 C 23.390625 2.164062 23.179688 2.015625 22.800781 1.878906 C 21.675781 1.476562 19.066406 1.195312 16.03125 1.195312 C 12.992188 1.195312 10.386719 1.476562 9.261719 1.878906 C 8.878906 2.015625 8.667969 2.164062 8.667969 2.320312 C 8.667969 2.542969 9.085938 2.75 9.808594 2.921875 C 11.113281 3.238281 13.414062 3.449219 16.03125 3.449219 M 16.03125 0.347656 C 20.722656 0.347656 24.527344 1.03125 24.527344 1.878906 L 24.527344 6.554688 C 27.871094 5.351562 29.738281 3.828125 29.835938 3.75 C 29.957031 3.644531 30.285156 3.394531 30.675781 3.394531 C 30.789062 3.394531 30.910156 3.417969 31.03125 3.46875 C 31.234375 3.558594 31.578125 3.800781 31.578125 4.429688 C 31.578125 4.441406 31.582031 4.460938 31.582031 4.496094 C 31.609375 6.371094 31.5625 13.089844 29.867188 20.703125 C 28.8125 25.441406 27.308594 29.640625 25.398438 33.1875 C 23.015625 37.613281 19.984375 41.039062 16.390625 43.371094 L 16.039062 43.597656 L 15.667969 43.410156 C 15.515625 43.328125 11.832031 41.40625 8.101562 35.59375 C 5.929688 32.214844 4.1875 28.203125 2.921875 23.671875 C 1.34375 18.03125 0.5 11.5625 0.414062 4.4375 L 0.414062 4.429688 C 0.414062 4.15625 0.53125 3.792969 0.855469 3.582031 C 0.957031 3.515625 1.101562 3.425781 1.316406 3.425781 C 1.375 3.425781 1.441406 3.433594 1.511719 3.449219 C 1.625 3.476562 1.730469 3.523438 1.828125 3.582031 L 1.90625 3.628906 C 2.003906 3.691406 2.101562 3.757812 2.199219 3.828125 C 2.566406 4.105469 3.753906 4.945312 5.71875 5.832031 C 6.246094 6.074219 6.851562 6.324219 7.53125 6.566406 L 7.53125 1.878906 C 7.53125 1.03125 11.335938 0.347656 16.03125 0.347656 "/>
</g>
<path style=" stroke:none;fill-rule:nonzero;fill:rgb(92.941176%,8.627451%,22.352941%);fill-opacity:1;" d="M 23.390625 2.320312 C 23.390625 2.542969 22.976562 2.75 22.253906 2.921875 C 22.253906 2.921875 22.253906 2.921875 22.25 2.921875 C 20.945312 3.238281 18.648438 3.449219 16.03125 3.449219 C 13.414062 3.449219 11.113281 3.238281 9.808594 2.921875 C 9.085938 2.75 8.667969 2.542969 8.667969 2.320312 C 8.667969 2.164062 8.878906 2.015625 9.261719 1.878906 C 10.386719 1.476562 12.992188 1.195312 16.03125 1.195312 C 19.066406 1.195312 21.675781 1.476562 22.800781 1.878906 C 23.179688 2.015625 23.390625 2.164062 23.390625 2.320312 "/>
<path style=" stroke:none;fill-rule:nonzero;fill:rgb(92.941176%,8.627451%,22.352941%);fill-opacity:1;" d="M 12.253906 3.761719 L 12.253906 7.515625 C 10.875 7.347656 9.652344 7.089844 8.667969 6.769531 L 8.667969 3.019531 C 9.546875 3.339844 10.789062 3.597656 12.253906 3.761719 "/>
<path style=" stroke:none;fill-rule:nonzero;fill:rgb(92.941176%,8.627451%,22.352941%);fill-opacity:1;" d="M 19.058594 3.847656 L 19.058594 7.609375 C 18.121094 7.695312 17.125 7.742188 16.089844 7.742188 C 14.941406 7.742188 13.835938 7.683594 12.808594 7.578125 L 12.808594 3.820312 C 13.824219 3.917969 14.929688 3.96875 16.089844 3.96875 C 17.132812 3.96875 18.128906 3.925781 19.058594 3.847656 "/>
<path style=" stroke:none;fill-rule:nonzero;fill:rgb(92.941176%,8.627451%,22.352941%);fill-opacity:1;" d="M 23.390625 3.0625 L 23.390625 6.808594 C 22.355469 7.136719 21.066406 7.390625 19.613281 7.554688 L 19.613281 3.796875 C 21.148438 3.640625 22.457031 3.382812 23.390625 3.0625 "/>
<path style=" stroke:none;fill-rule:nonzero;fill:rgb(100%,100%,100%);fill-opacity:1;" d="M 17.027344 5.351562 C 16.847656 5.351562 16.683594 5.441406 16.585938 5.578125 C 16.511719 5.425781 16.382812 5.304688 16.21875 5.238281 C 16.382812 5.148438 16.488281 4.980469 16.488281 4.785156 C 16.488281 4.492188 16.246094 4.253906 15.949219 4.253906 C 15.652344 4.253906 15.410156 4.492188 15.410156 4.785156 C 15.410156 4.980469 15.519531 5.152344 15.679688 5.242188 C 15.507812 5.3125 15.367188 5.453125 15.296875 5.625 C 15.207031 5.460938 15.03125 5.351562 14.828125 5.351562 C 14.527344 5.351562 14.289062 5.589844 14.289062 5.878906 C 14.289062 6.171875 14.527344 6.410156 14.828125 6.410156 C 15.03125 6.410156 15.207031 6.296875 15.296875 6.136719 C 15.371094 6.3125 15.515625 6.453125 15.695312 6.523438 C 15.523438 6.613281 15.410156 6.785156 15.410156 6.988281 C 15.410156 7.28125 15.652344 7.515625 15.949219 7.515625 C 16.246094 7.515625 16.488281 7.28125 16.488281 6.988281 C 16.488281 6.789062 16.375 6.613281 16.207031 6.523438 C 16.375 6.460938 16.507812 6.339844 16.585938 6.183594 C 16.683594 6.320312 16.847656 6.410156 17.027344 6.410156 C 17.328125 6.410156 17.570312 6.171875 17.570312 5.878906 C 17.570312 5.589844 17.328125 5.351562 17.027344 5.351562 "/>
<path style=" stroke:none;fill-rule:nonzero;fill:rgb(100%,100%,100%);fill-opacity:1;" d="M 11.515625 4.859375 C 11.332031 4.859375 11.171875 4.945312 11.074219 5.082031 C 11 4.929688 10.867188 4.808594 10.707031 4.746094 C 10.867188 4.65625 10.976562 4.484375 10.976562 4.289062 C 10.976562 3.996094 10.734375 3.761719 10.4375 3.761719 C 10.140625 3.761719 9.898438 3.996094 9.898438 4.289062 C 9.898438 4.484375 10.007812 4.65625 10.167969 4.746094 C 9.996094 4.820312 9.855469 4.957031 9.785156 5.128906 C 9.695312 4.96875 9.515625 4.859375 9.316406 4.859375 C 9.015625 4.859375 8.773438 5.09375 8.773438 5.386719 C 8.773438 5.675781 9.015625 5.914062 9.316406 5.914062 C 9.515625 5.914062 9.695312 5.804688 9.785156 5.640625 C 9.859375 5.816406 10 5.957031 10.179688 6.027344 C 10.011719 6.117188 9.898438 6.292969 9.898438 6.492188 C 9.898438 6.785156 10.140625 7.023438 10.4375 7.023438 C 10.734375 7.023438 10.976562 6.785156 10.976562 6.492188 C 10.976562 6.292969 10.863281 6.121094 10.695312 6.03125 C 10.863281 5.96875 10.996094 5.84375 11.074219 5.691406 C 11.171875 5.824219 11.332031 5.914062 11.515625 5.914062 C 11.8125 5.914062 12.054688 5.675781 12.054688 5.386719 C 12.054688 5.09375 11.8125 4.859375 11.515625 4.859375 "/>
<path style=" stroke:none;fill-rule:nonzero;fill:rgb(100%,100%,100%);fill-opacity:1;" d="M 22.605469 4.886719 C 22.421875 4.886719 22.261719 4.976562 22.164062 5.109375 C 22.085938 4.960938 21.957031 4.839844 21.796875 4.773438 C 21.957031 4.683594 22.0625 4.515625 22.0625 4.320312 C 22.0625 4.027344 21.824219 3.789062 21.523438 3.789062 C 21.226562 3.789062 20.984375 4.027344 20.984375 4.320312 C 20.984375 4.515625 21.09375 4.6875 21.257812 4.777344 C 21.082031 4.847656 20.945312 4.988281 20.875 5.160156 C 20.78125 4.996094 20.605469 4.886719 20.402344 4.886719 C 20.105469 4.886719 19.863281 5.125 19.863281 5.414062 C 19.863281 5.707031 20.105469 5.941406 20.402344 5.941406 C 20.605469 5.941406 20.78125 5.832031 20.875 5.671875 C 20.945312 5.847656 21.089844 5.988281 21.269531 6.058594 C 21.101562 6.144531 20.984375 6.320312 20.984375 6.523438 C 20.984375 6.8125 21.226562 7.050781 21.523438 7.050781 C 21.824219 7.050781 22.0625 6.8125 22.0625 6.523438 C 22.0625 6.324219 21.949219 6.148438 21.785156 6.058594 C 21.949219 5.996094 22.085938 5.875 22.164062 5.71875 C 22.261719 5.855469 22.421875 5.941406 22.605469 5.941406 C 22.902344 5.941406 23.144531 5.707031 23.144531 5.414062 C 23.144531 5.125 22.902344 4.886719 22.605469 4.886719 "/>
<path style=" stroke:none;fill-rule:nonzero;fill:rgb(100%,100%,100%);fill-opacity:1;" d="M 13.785156 26.429688 C 13.785156 26.675781 13.578125 26.875 13.328125 26.875 C 13.074219 26.875 12.871094 26.675781 12.871094 26.429688 C 12.871094 26.179688 13.074219 25.980469 13.328125 25.980469 C 13.578125 25.980469 13.785156 26.179688 13.785156 26.429688 "/>
<path style=" stroke:none;fill-rule:nonzero;fill:rgb(100%,100%,100%);fill-opacity:1;" d="M 12.871094 27.402344 C 12.871094 27.652344 12.667969 27.851562 12.414062 27.851562 C 12.160156 27.851562 11.957031 27.652344 11.957031 27.402344 C 11.957031 27.15625 12.160156 26.957031 12.414062 26.957031 C 12.667969 26.957031 12.871094 27.15625 12.871094 27.402344 "/>
<path style=" stroke:none;fill-rule:nonzero;fill:rgb(100%,100%,100%);fill-opacity:1;" d="M 14.753906 27.402344 C 14.753906 27.652344 14.550781 27.851562 14.300781 27.851562 C 14.046875 27.851562 13.84375 27.652344 13.84375 27.402344 C 13.84375 27.15625 14.046875 26.957031 14.300781 26.957031 C 14.550781 26.957031 14.753906 27.15625 14.753906 27.402344 "/>
<path style=" stroke:none;fill-rule:nonzero;fill:rgb(100%,100%,100%);fill-opacity:1;" d="M 13.785156 28.347656 C 13.785156 28.59375 13.578125 28.792969 13.328125 28.792969 C 13.074219 28.792969 12.871094 28.59375 12.871094 28.347656 C 12.871094 28.097656 13.074219 27.898438 13.328125 27.898438 C 13.578125 27.898438 13.785156 28.097656 13.785156 28.347656 "/>
<path style=" stroke:none;fill-rule:nonzero;fill:rgb(100%,100%,100%);fill-opacity:1;" d="M 13.867188 27.402344 C 13.867188 27.691406 13.628906 27.925781 13.332031 27.925781 C 13.035156 27.925781 12.796875 27.691406 12.796875 27.402344 C 12.796875 27.109375 13.035156 26.875 13.332031 26.875 C 13.628906 26.875 13.867188 27.109375 13.867188 27.402344 "/>
<path style=" stroke:none;fill-rule:nonzero;fill:rgb(100%,100%,100%);fill-opacity:1;" d="M 10.777344 28.386719 C 10.21875 28.386719 9.761719 27.945312 9.761719 27.40625 C 9.761719 26.863281 10.21875 26.425781 10.777344 26.425781 C 11.339844 26.425781 11.796875 26.863281 11.796875 27.40625 C 11.796875 27.945312 11.339844 28.386719 10.777344 28.386719 M 10.777344 26.605469 C 10.320312 26.605469 9.945312 26.964844 9.945312 27.40625 C 9.945312 27.84375 10.320312 28.203125 10.777344 28.203125 C 11.238281 28.203125 11.609375 27.84375 11.609375 27.40625 C 11.609375 26.964844 11.238281 26.605469 10.777344 26.605469 "/>
<path style=" stroke:none;fill-rule:nonzero;fill:rgb(100%,100%,100%);fill-opacity:1;" d="M 11.320312 27.496094 C 11.207031 27.628906 10.949219 27.609375 10.746094 27.445312 C 10.542969 27.28125 10.46875 27.039062 10.582031 26.90625 C 10.691406 26.769531 10.949219 26.792969 11.152344 26.953125 C 11.359375 27.117188 11.429688 27.359375 11.320312 27.496094 "/>
<path style=" stroke:none;fill-rule:nonzero;fill:rgb(100%,100%,100%);fill-opacity:1;" d="M 14.980469 28.695312 L 15.824219 28.695312 L 15.824219 25.980469 L 14.980469 25.980469 Z M 15.417969 28.46875 C 15.246094 28.46875 15.101562 28.347656 15.101562 28.195312 C 15.101562 28.046875 15.246094 27.925781 15.417969 27.925781 C 15.59375 27.925781 15.734375 28.046875 15.734375 28.195312 C 15.734375 28.347656 15.59375 28.46875 15.417969 28.46875 M 15.417969 27.671875 C 15.246094 27.671875 15.101562 27.550781 15.101562 27.402344 C 15.101562 27.25 15.246094 27.128906 15.417969 27.128906 C 15.59375 27.128906 15.734375 27.25 15.734375 27.402344 C 15.734375 27.550781 15.59375 27.671875 15.417969 27.671875 M 15.417969 26.875 C 15.246094 26.875 15.101562 26.753906 15.101562 26.605469 C 15.101562 26.457031 15.246094 26.335938 15.417969 26.335938 C 15.59375 26.335938 15.734375 26.457031 15.734375 26.605469 C 15.734375 26.753906 15.59375 26.875 15.417969 26.875 "/>
<path style=" stroke:none;fill-rule:nonzero;fill:rgb(100%,100%,100%);fill-opacity:1;" d="M 20.277344 29.140625 L 11.722656 29.140625 L 11.609375 25.605469 L 20.453125 25.605469 Z M 11.902344 28.960938 L 20.101562 28.960938 L 20.257812 25.785156 L 11.800781 25.785156 Z M 11.902344 28.960938 "/>
<path style=" stroke:none;fill-rule:nonzero;fill:rgb(100%,100%,100%);fill-opacity:1;" d="M 18.160156 26.429688 C 18.160156 26.675781 18.363281 26.875 18.617188 26.875 C 18.871094 26.875 19.074219 26.675781 19.074219 26.429688 C 19.074219 26.179688 18.871094 25.980469 18.617188 25.980469 C 18.363281 25.980469 18.160156 26.179688 18.160156 26.429688 "/>
<path style=" stroke:none;fill-rule:nonzero;fill:rgb(100%,100%,100%);fill-opacity:1;" d="M 19.074219 27.402344 C 19.074219 27.652344 19.277344 27.851562 19.53125 27.851562 C 19.78125 27.851562 19.988281 27.652344 19.988281 27.402344 C 19.988281 27.15625 19.78125 26.957031 19.53125 26.957031 C 19.277344 26.957031 19.074219 27.15625 19.074219 27.402344 "/>
<path style=" stroke:none;fill-rule:nonzero;fill:rgb(100%,100%,100%);fill-opacity:1;" d="M 17.1875 27.402344 C 17.1875 27.652344 17.394531 27.851562 17.644531 27.851562 C 17.898438 27.851562 18.101562 27.652344 18.101562 27.402344 C 18.101562 27.15625 17.898438 26.957031 17.644531 26.957031 C 17.394531 26.957031 17.1875 27.15625 17.1875 27.402344 "/>
<path style=" stroke:none;fill-rule:nonzero;fill:rgb(100%,100%,100%);fill-opacity:1;" d="M 18.160156 28.347656 C 18.160156 28.59375 18.363281 28.792969 18.617188 28.792969 C 18.871094 28.792969 19.074219 28.59375 19.074219 28.347656 C 19.074219 28.097656 18.871094 27.898438 18.617188 27.898438 C 18.363281 27.898438 18.160156 28.097656 18.160156 28.347656 "/>
<path style=" stroke:none;fill-rule:nonzero;fill:rgb(100%,100%,100%);fill-opacity:1;" d="M 18.078125 27.402344 C 18.078125 27.691406 18.316406 27.925781 18.613281 27.925781 C 18.910156 27.925781 19.148438 27.691406 19.148438 27.402344 C 19.148438 27.109375 18.910156 26.875 18.613281 26.875 C 18.316406 26.875 18.078125 27.109375 18.078125 27.402344 "/>
<path style=" stroke:none;fill-rule:nonzero;fill:rgb(100%,100%,100%);fill-opacity:1;" d="M 21.167969 28.386719 C 20.605469 28.386719 20.148438 27.945312 20.148438 27.40625 C 20.148438 26.863281 20.605469 26.425781 21.167969 26.425781 C 21.726562 26.425781 22.183594 26.863281 22.183594 27.40625 C 22.183594 27.945312 21.726562 28.386719 21.167969 28.386719 M 21.167969 26.605469 C 20.707031 26.605469 20.332031 26.964844 20.332031 27.40625 C 20.332031 27.84375 20.707031 28.203125 21.167969 28.203125 C 21.625 28.203125 22 27.84375 22 27.40625 C 22 26.964844 21.625 26.605469 21.167969 26.605469 "/>
<path style=" stroke:none;fill-rule:nonzero;fill:rgb(100%,100%,100%);fill-opacity:1;" d="M 21.769531 27.589844 C 21.90625 27.480469 21.886719 27.230469 21.71875 27.03125 C 21.554688 26.828125 21.304688 26.757812 21.167969 26.867188 C 21.027344 26.976562 21.050781 27.230469 21.21875 27.429688 C 21.382812 27.628906 21.628906 27.703125 21.769531 27.589844 "/>
<path style=" stroke:none;fill-rule:nonzero;fill:rgb(100%,100%,100%);fill-opacity:1;" d="M 16.121094 28.695312 L 16.964844 28.695312 L 16.964844 25.980469 L 16.121094 25.980469 Z M 16.527344 28.46875 C 16.351562 28.46875 16.210938 28.347656 16.210938 28.195312 C 16.210938 28.046875 16.351562 27.925781 16.527344 27.925781 C 16.699219 27.925781 16.839844 28.046875 16.839844 28.195312 C 16.839844 28.347656 16.699219 28.46875 16.527344 28.46875 M 16.527344 27.671875 C 16.351562 27.671875 16.210938 27.550781 16.210938 27.402344 C 16.210938 27.25 16.351562 27.128906 16.527344 27.128906 C 16.699219 27.128906 16.839844 27.25 16.839844 27.402344 C 16.839844 27.550781 16.699219 27.671875 16.527344 27.671875 M 16.527344 26.875 C 16.351562 26.875 16.210938 26.753906 16.210938 26.605469 C 16.210938 26.457031 16.351562 26.335938 16.527344 26.335938 C 16.699219 26.335938 16.839844 26.457031 16.839844 26.605469 C 16.839844 26.753906 16.699219 26.875 16.527344 26.875 "/>
<path style=" stroke:none;fill-rule:nonzero;fill:rgb(100%,100%,100%);fill-opacity:1;" d="M 15.941406 21.613281 C 15.320312 21.613281 14.816406 21.089844 14.816406 20.441406 C 14.816406 19.792969 15.320312 19.269531 15.941406 19.269531 C 16.558594 19.269531 17.066406 19.792969 17.066406 20.441406 C 17.066406 21.089844 16.558594 21.613281 15.941406 21.613281 M 15.941406 19.449219 C 15.421875 19.449219 15.003906 19.894531 15.003906 20.441406 C 15.003906 20.988281 15.421875 21.433594 15.941406 21.433594 C 16.457031 21.433594 16.878906 20.988281 16.878906 20.441406 C 16.878906 19.894531 16.457031 19.449219 15.941406 19.449219 "/>
<path style=" stroke:none;fill-rule:nonzero;fill:rgb(100%,100%,100%);fill-opacity:1;" d="M 16.480469 20.535156 C 16.621094 20.421875 16.597656 20.171875 16.433594 19.972656 C 16.265625 19.773438 16.019531 19.699219 15.878906 19.8125 C 15.742188 19.921875 15.765625 20.171875 15.929688 20.371094 C 16.097656 20.570312 16.34375 20.644531 16.480469 20.535156 "/>
<path style=" stroke:none;fill-rule:nonzero;fill:rgb(100%,100%,100%);fill-opacity:1;" d="M 16.976562 25.785156 L 15.042969 25.785156 L 15.019531 25.734375 C 13.8125 23.316406 15.011719 21.492188 15.027344 21.472656 L 15.054688 21.433594 L 16.9375 21.433594 L 16.960938 21.488281 C 17.921875 23.753906 17.011719 25.714844 17 25.734375 Z M 15.160156 25.605469 L 16.855469 25.605469 C 16.988281 25.285156 17.621094 23.578125 16.8125 21.613281 L 15.15625 21.613281 C 14.992188 21.886719 14.140625 23.503906 15.160156 25.605469 "/>
<path style=" stroke:none;fill-rule:nonzero;fill:rgb(100%,100%,100%);fill-opacity:1;" d="M 15.691406 21.886719 L 16.542969 21.886719 C 16.542969 21.886719 17.0625 22.136719 16.988281 23.546875 C 16.917969 24.957031 16.707031 25.316406 16.707031 25.316406 C 16.707031 25.316406 15.304688 24.851562 15.3125 23.203125 C 15.3125 23.203125 15.304688 22.269531 15.691406 21.886719 "/>
<path style=" stroke:none;fill-rule:nonzero;fill:rgb(100%,100%,100%);fill-opacity:1;" d="M 15.949219 40.960938 L 14.664062 39.429688 L 14.664062 29.050781 L 14.847656 29.050781 L 14.847656 39.367188 L 15.945312 40.671875 L 17.03125 39.34375 L 17.277344 29.046875 L 17.464844 29.050781 L 17.214844 39.40625 Z M 15.949219 40.960938 "/>
<path style=" stroke:none;fill-rule:nonzero;fill:rgb(100%,100%,100%);fill-opacity:1;" d="M 16.0625 29.371094 L 16.964844 29.371094 L 16.785156 39.207031 L 15.996094 40.296875 Z M 16.0625 29.371094 "/>
<path style=" stroke:none;fill-rule:nonzero;fill:rgb(100%,100%,100%);fill-opacity:1;" d="M 24.878906 16.421875 L 25.148438 17.445312 L 24.414062 17.445312 C 24.609375 16.714844 24.714844 16.300781 24.738281 16.207031 C 24.757812 16.109375 24.769531 16.039062 24.773438 16 L 24.800781 16 C 24.816406 16.128906 24.84375 16.269531 24.878906 16.421875 M 26.789062 18.945312 L 25.542969 15.179688 L 24.105469 15.179688 L 22.78125 18.945312 L 24.03125 18.945312 L 24.214844 18.25 L 25.363281 18.25 L 25.53125 18.945312 Z M 22.554688 15.96875 L 22.554688 15.179688 L 19.496094 15.179688 L 19.496094 16.066406 L 21.160156 16.066406 L 19.382812 18.148438 L 19.382812 18.945312 L 22.609375 18.945312 L 22.609375 18.054688 L 20.871094 18.054688 Z M 18.84375 18.945312 L 18.84375 15.179688 L 17.769531 15.179688 L 17.769531 16.867188 C 17.769531 17.054688 17.777344 17.1875 17.785156 17.265625 L 17.777344 17.265625 C 17.765625 17.242188 17.75 17.214844 17.730469 17.183594 C 17.707031 17.152344 17.6875 17.117188 17.664062 17.085938 C 17.640625 17.050781 17.617188 17.019531 17.59375 16.988281 C 17.570312 16.957031 17.550781 16.929688 17.535156 16.90625 L 16.234375 15.179688 L 15.140625 15.179688 L 15.140625 18.945312 L 16.210938 18.945312 L 16.210938 17.363281 C 16.210938 17.132812 16.207031 16.925781 16.195312 16.738281 L 16.207031 16.738281 C 16.273438 16.855469 16.363281 16.984375 16.46875 17.128906 L 17.828125 18.945312 Z M 13.277344 17.59375 C 13.21875 17.738281 13.136719 17.847656 13.027344 17.925781 C 12.921875 18.003906 12.800781 18.039062 12.667969 18.039062 C 12.445312 18.039062 12.273438 17.957031 12.144531 17.785156 C 12.019531 17.613281 11.953125 17.375 11.953125 17.066406 C 11.953125 16.753906 12.019531 16.511719 12.148438 16.339844 C 12.277344 16.167969 12.457031 16.082031 12.6875 16.082031 C 12.898438 16.082031 13.0625 16.171875 13.183594 16.351562 C 13.304688 16.527344 13.367188 16.773438 13.367188 17.082031 C 13.367188 17.28125 13.335938 17.449219 13.277344 17.59375 M 14.359375 16.042969 C 14.199219 15.746094 13.976562 15.515625 13.683594 15.355469 C 13.394531 15.195312 13.066406 15.117188 12.695312 15.117188 C 12.3125 15.117188 11.972656 15.199219 11.671875 15.367188 C 11.371094 15.535156 11.136719 15.769531 10.972656 16.078125 C 10.804688 16.382812 10.722656 16.726562 10.722656 17.113281 C 10.722656 17.476562 10.804688 17.804688 10.96875 18.09375 C 11.132812 18.382812 11.363281 18.609375 11.660156 18.769531 C 11.957031 18.929688 12.285156 19.007812 12.644531 19.007812 C 13.015625 19.007812 13.351562 18.925781 13.648438 18.761719 C 13.945312 18.597656 14.179688 18.363281 14.347656 18.066406 C 14.511719 17.765625 14.59375 17.429688 14.59375 17.050781 C 14.59375 16.675781 14.515625 16.339844 14.359375 16.042969 M 10.179688 18.945312 L 10.179688 15.179688 L 8.472656 15.179688 L 7.980469 17.214844 C 7.9375 17.429688 7.90625 17.617188 7.886719 17.777344 L 7.871094 17.777344 C 7.863281 17.707031 7.851562 17.609375 7.832031 17.480469 C 7.808594 17.351562 7.792969 17.265625 7.78125 17.222656 L 7.253906 15.179688 L 5.519531 15.179688 L 5.519531 18.945312 L 6.535156 18.945312 L 6.535156 17.167969 C 6.535156 17.023438 6.523438 16.65625 6.496094 16.066406 L 6.527344 16.066406 C 6.597656 16.4375 6.640625 16.652344 6.65625 16.707031 L 7.246094 18.945312 L 8.335938 18.945312 L 8.902344 16.679688 C 8.933594 16.566406 8.976562 16.363281 9.035156 16.066406 L 9.066406 16.066406 L 9.058594 16.238281 C 9.046875 16.472656 9.039062 16.6875 9.039062 16.878906 L 9.039062 18.945312 Z M 10.179688 18.945312 "/>
<path style=" stroke:none;fill-rule:nonzero;fill:rgb(100%,100%,100%);fill-opacity:1;" d="M 19.015625 14.089844 C 18.734375 14.222656 18.417969 14.289062 18.0625 14.289062 C 17.621094 14.289062 17.253906 14.140625 16.964844 13.84375 C 16.675781 13.546875 16.53125 13.144531 16.53125 12.628906 C 16.53125 12.097656 16.683594 11.671875 16.984375 11.351562 C 17.289062 11.03125 17.679688 10.871094 18.164062 10.871094 C 18.460938 10.871094 18.746094 10.929688 19.015625 11.050781 L 19.015625 10.773438 C 18.746094 10.683594 18.464844 10.636719 18.167969 10.636719 C 17.613281 10.636719 17.15625 10.820312 16.796875 11.1875 C 16.4375 11.554688 16.257812 12.046875 16.257812 12.65625 C 16.257812 13.214844 16.425781 13.664062 16.757812 14.011719 C 17.089844 14.355469 17.515625 14.527344 18.042969 14.527344 C 18.378906 14.527344 18.703125 14.464844 19.015625 14.339844 Z M 15.089844 13.054688 L 13.605469 13.054688 L 14.253906 11.308594 C 14.28125 11.234375 14.3125 11.140625 14.34375 11.027344 L 14.351562 11.027344 C 14.367188 11.070312 14.378906 11.113281 14.394531 11.15625 C 14.40625 11.207031 14.421875 11.261719 14.441406 11.3125 Z M 15.917969 14.464844 L 14.484375 10.699219 L 14.230469 10.699219 L 12.78125 14.464844 L 13.074219 14.464844 L 13.511719 13.292969 L 15.179688 13.292969 L 15.621094 14.464844 Z M 15.917969 14.464844 "/>
</g>
</svg>
