<?xml version="1.0" encoding="UTF-8"?>
<svg xmlns="http://www.w3.org/2000/svg" xmlns:xlink="http://www.w3.org/1999/xlink" width="32px" height="32px" viewBox="0 0 32 63" version="1.1">
<g id="surface1">
<path style=" stroke:none;fill-rule:nonzero;fill:rgb(0%,0%,0%);fill-opacity:1;" d="M 25.464844 39.128906 C 25.464844 51.328125 20.265625 54.40625 9.734375 59.589844 C 11.085938 60.484375 12.910156 61.558594 16.011719 63.019531 C 24.128906 59.199219 31.976562 54.191406 31.976562 40.84375 L 31.976562 12.6875 L 25.464844 12.6875 Z M 19.285156 12.6875 L 0.0429688 12.6875 L 0.0429688 18.277344 L 12.792969 18.277344 L 12.792969 36.1875 C 12.792969 44.371094 12.304688 45.128906 1.59375 49.925781 C 2.339844 51.796875 3.417969 53.628906 4.828125 55.285156 C 16.933594 49.925781 19.285156 47.15625 19.285156 37.882812 Z M 2.574219 0.0195312 L 2.574219 4.988281 C 2.574219 6.253906 1.828125 7.113281 0.261719 7.113281 L 0.0429688 7.113281 L 0.0429688 6.058594 L 0.242188 6.058594 C 0.964844 6.058594 1.378906 5.691406 1.378906 4.949219 L 1.378906 1.050781 L 0.28125 1.050781 L 0.28125 0.0195312 Z M 4.730469 6.097656 L 5.832031 6.097656 L 5.832031 0.0195312 L 7.007812 0.0195312 L 7.007812 6 C 7.007812 6.742188 6.613281 7.132812 5.832031 7.132812 L 4.730469 7.132812 C 3.949219 7.132812 3.554688 6.742188 3.554688 6 L 3.554688 0.0195312 L 4.730469 0.0195312 Z M 10.28125 4.34375 L 10.28125 0.0195312 L 11.460938 0.0195312 L 11.460938 4.382812 C 11.460938 6.351562 10.417969 7.09375 8.554688 7.09375 L 7.96875 7.09375 L 7.96875 0.0195312 L 9.144531 0.0195312 L 9.144531 5.945312 L 9.203125 5.945312 C 9.988281 5.945312 10.28125 5.222656 10.28125 4.34375 M 13.617188 1.089844 L 13.617188 2.980469 L 14.988281 2.980469 L 14.792969 3.996094 L 13.636719 3.996094 L 13.636719 6.019531 L 15.34375 6.019531 L 15.148438 7.09375 L 12.421875 7.09375 L 12.421875 0.0195312 L 15.046875 0.0195312 L 15.246094 1.089844 Z M 18.382812 0.0195312 L 19.519531 0.0195312 L 19.519531 7.09375 L 18.382812 7.09375 L 18.382812 4.675781 L 17.265625 2.222656 L 17.207031 2.222656 L 17.207031 7.09375 L 16.070312 7.09375 L 16.070312 0.0195312 L 17.1875 0.0195312 L 18.304688 2.6875 L 18.382812 2.6875 Z M 23.621094 1.089844 L 22.480469 1.089844 L 22.480469 7.09375 L 21.304688 7.09375 L 21.304688 1.089844 L 20.167969 1.089844 L 20.363281 0.0195312 L 23.421875 0.0195312 Z M 25.425781 6.097656 L 26.523438 6.097656 L 26.523438 0.0195312 L 27.699219 0.0195312 L 27.699219 5.980469 C 27.699219 6.722656 27.308594 7.113281 26.523438 7.113281 L 25.425781 7.113281 C 24.640625 7.113281 24.246094 6.722656 24.246094 5.980469 L 24.246094 0.0195312 L 25.425781 0.0195312 Z M 28.582031 4.753906 L 29.738281 4.753906 L 29.738281 6.15625 L 30.816406 6.15625 L 30.816406 5.164062 C 30.816406 4.675781 30.699219 4.460938 30.328125 4.25 L 29.210938 3.546875 C 28.796875 3.273438 28.601562 2.804688 28.601562 2.4375 L 28.601562 1.128906 C 28.601562 0.390625 29.09375 0 29.699219 0 L 30.796875 0 C 31.582031 0 31.898438 0.390625 31.898438 1.128906 L 31.898438 2.007812 L 30.757812 2.320312 L 30.757812 0.914062 L 29.738281 0.914062 L 29.738281 1.988281 C 29.738281 2.339844 29.855469 2.570312 30.191406 2.785156 L 31.269531 3.449219 C 31.71875 3.722656 31.957031 4.152344 31.957031 4.714844 L 31.957031 6.078125 C 31.957031 6.839844 31.464844 7.132812 30.835938 7.132812 L 29.757812 7.132812 C 28.972656 7.132812 28.582031 6.820312 28.582031 6.078125 Z M 28.582031 4.753906 "/>
</g>
</svg>
