<?xml version="1.0" encoding="UTF-8"?>
<svg xmlns="http://www.w3.org/2000/svg" xmlns:xlink="http://www.w3.org/1999/xlink" width="32px" height="32px" viewBox="0 0 32 32" version="1.1">
<g id="surface1">
<path style=" stroke:none;fill-rule:nonzero;fill:rgb(0%,24.313725%,50.588235%);fill-opacity:1;" d="M 32 16 C 32 24.835938 24.835938 32 16 32 C 7.164062 32 0 24.835938 0 16 C 0 7.164062 7.164062 0 16 0 C 24.835938 0 32 7.164062 32 16 Z M 32 16 "/>
<path style=" stroke:none;fill-rule:nonzero;fill:rgb(100%,100%,100%);fill-opacity:1;" d="M 4.222656 16 C 4.222656 9.496094 9.496094 4.222656 16 4.222656 C 22.503906 4.222656 27.777344 9.496094 27.777344 16 C 27.777344 22.503906 22.503906 27.777344 16 27.777344 C 9.496094 27.777344 4.222656 22.503906 4.222656 16 Z M 4.222656 16 "/>
<path style=" stroke:none;fill-rule:nonzero;fill:rgb(9.803922%,62.352941%,83.921569%);fill-opacity:1;" d="M 8.007812 8.007812 C 5.964844 10.054688 4.699219 12.878906 4.699219 16 C 4.699219 19.121094 5.964844 21.945312 8.007812 23.992188 C 10.054688 26.035156 12.878906 27.300781 16 27.300781 C 19.121094 27.300781 21.945312 26.035156 23.992188 23.992188 C 26.035156 21.945312 27.300781 19.121094 27.300781 16 C 27.300781 12.878906 26.035156 10.054688 23.992188 8.007812 C 21.945312 5.964844 19.121094 4.699219 16 4.699219 C 12.878906 4.699219 10.054688 5.964844 8.007812 8.007812 Z M 8.007812 8.007812 "/>
<path style=" stroke:none;fill-rule:nonzero;fill:rgb(100%,100%,100%);fill-opacity:1;" d="M 9.378906 21.875 C 10.539062 21.742188 11.082031 21.605469 11.082031 20.328125 L 11.082031 11.167969 C 9.996094 9.832031 9.6875 9.777344 9.4375 9.777344 L 9.4375 9.292969 L 13.515625 9.292969 L 20.222656 17.546875 L 20.261719 17.546875 L 20.261719 11.6875 C 20.261719 10.53125 20.03125 9.890625 18.464844 9.777344 L 18.464844 9.292969 L 22.621094 9.292969 L 22.621094 9.777344 C 21.230469 9.949219 21.113281 10.394531 21.113281 11.320312 L 21.113281 22.707031 L 20.570312 22.707031 L 11.96875 12.230469 L 11.929688 12.230469 L 11.929688 19.960938 C 11.929688 21.355469 12.335938 21.722656 13.765625 21.875 L 13.765625 22.359375 L 9.378906 22.359375 Z M 9.378906 21.875 "/>
</g>
</svg>
