<?xml version="1.0" encoding="UTF-8"?>
<svg xmlns="http://www.w3.org/2000/svg" xmlns:xlink="http://www.w3.org/1999/xlink" width="32px" height="32px" viewBox="0 0 32 32" version="1.1">
<g id="surface1">
<path style=" stroke:none;fill-rule:nonzero;fill:rgb(66.666667%,58.823529%,39.607843%);fill-opacity:1;" d="M 1.023438 16 C 1.023438 7.8125 7.730469 1.175781 16 1.175781 C 24.269531 1.175781 30.976562 7.8125 30.976562 16 C 30.976562 24.1875 24.269531 30.824219 16 30.824219 C 7.730469 30.824219 1.023438 24.1875 1.023438 16 "/>
<path style=" stroke:none;fill-rule:nonzero;fill:rgb(100%,100%,100%);fill-opacity:1;" d="M 2.433594 16 C 2.433594 8.582031 8.507812 2.570312 16 2.570312 C 23.492188 2.570312 29.566406 8.582031 29.566406 16 C 29.566406 23.417969 23.492188 29.429688 16 29.429688 C 8.507812 29.429688 2.433594 23.417969 2.433594 16 "/>
<path style=" stroke:none;fill-rule:nonzero;fill:rgb(10.588235%,9.411765%,10.980392%);fill-opacity:1;" d="M 16 29.738281 C 8.347656 29.738281 2.121094 23.574219 2.121094 16 C 2.121094 8.425781 8.347656 2.261719 16 2.261719 C 23.652344 2.261719 29.878906 8.425781 29.878906 16 C 29.878906 23.574219 23.652344 29.738281 16 29.738281 Z M 16 2.878906 C 8.691406 2.878906 2.746094 8.765625 2.746094 16 C 2.746094 23.234375 8.691406 29.121094 16 29.121094 C 23.308594 29.121094 29.253906 23.234375 29.253906 16 C 29.253906 8.765625 23.308594 2.878906 16 2.878906 Z M 16 2.878906 "/>
<path style=" stroke:none;fill-rule:nonzero;fill:rgb(10.588235%,9.411765%,10.980392%);fill-opacity:1;" d="M 6.464844 16 C 6.464844 10.789062 10.734375 6.5625 16 6.5625 C 21.265625 6.5625 25.53125 10.789062 25.53125 16 C 25.53125 21.210938 21.265625 25.4375 16 25.4375 C 10.734375 25.4375 6.464844 21.210938 6.464844 16 "/>
<path style=" stroke:none;fill-rule:nonzero;fill:rgb(100%,100%,100%);fill-opacity:1;" d="M 7.332031 16 C 7.332031 11.261719 11.214844 7.421875 16 7.421875 C 20.785156 7.421875 24.664062 11.261719 24.664062 16 C 24.664062 20.734375 20.785156 24.578125 16 24.578125 C 11.214844 24.578125 7.332031 20.738281 7.332031 16 "/>
<path style=" stroke:none;fill-rule:nonzero;fill:rgb(10.588235%,9.411765%,10.980392%);fill-opacity:1;" d="M 8.277344 16 C 8.277344 11.777344 11.734375 8.355469 16 8.355469 C 20.265625 8.355469 23.722656 11.777344 23.722656 16 C 23.722656 20.222656 20.265625 23.644531 16 23.644531 C 11.734375 23.644531 8.277344 20.222656 8.277344 16 "/>
<path style=" stroke:none;fill-rule:nonzero;fill:rgb(66.666667%,58.823529%,39.607843%);fill-opacity:1;" d="M 14.359375 17.035156 L 14.359375 15.988281 C 14.359375 15.988281 14.339844 15.214844 13.488281 15.214844 C 12.636719 15.214844 12.640625 15.988281 12.640625 15.988281 L 12.640625 17.03125 Z M 17.394531 17.03125 C 17.484375 16.996094 17.820312 16.839844 17.820312 16.429688 C 17.820312 15.960938 17.46875 15.785156 17.46875 15.785156 L 17.308594 15.675781 C 17.269531 15.847656 17.246094 16.027344 17.246094 16.207031 C 17.246094 16.5 17.296875 16.777344 17.394531 17.03125 M 11.484375 20.082031 L 11.484375 18.207031 L 10.667969 18.207031 L 10.667969 17.03125 L 11.484375 17.03125 L 11.484375 15.785156 C 11.484375 15.785156 11.488281 14.023438 13.488281 14.023438 C 15.488281 14.023438 15.515625 15.785156 15.515625 15.785156 L 15.515625 17.039062 L 16.300781 17.039062 C 16.238281 16.773438 16.203125 16.496094 16.203125 16.210938 C 16.203125 15.808594 16.273438 15.425781 16.394531 15.070312 L 13.730469 13.300781 C 13.730469 13.300781 13.148438 12.738281 13.523438 11.878906 C 13.902344 11.019531 14.667969 11.003906 14.667969 11.003906 L 18.152344 11.003906 L 18.152344 12.121094 L 14.816406 12.121094 C 14.816406 12.121094 14.675781 12.082031 14.5625 12.269531 C 14.414062 12.507812 14.667969 12.671875 14.667969 12.671875 L 16.90625 14.105469 C 17.460938 13.382812 18.296875 12.921875 19.230469 12.921875 C 19.726562 12.921875 20.191406 13.050781 20.605469 13.277344 L 20.039062 14.238281 C 19.789062 14.117188 19.515625 14.054688 19.230469 14.054688 C 18.679688 14.054688 18.1875 14.296875 17.828125 14.6875 C 18.082031 14.820312 19.027344 15.382812 19.027344 16.433594 C 19.027344 17.417969 18.585938 17.855469 18.191406 18.050781 C 18.496094 18.253906 18.847656 18.371094 19.230469 18.371094 C 19.835938 18.371094 20.378906 18.078125 20.742188 17.609375 L 21.625 18.222656 C 21.070312 19 20.203125 19.503906 19.230469 19.503906 C 18.25 19.503906 17.378906 18.996094 16.824219 18.210938 L 15.515625 18.210938 L 15.515625 20.085938 L 14.363281 20.085938 L 14.363281 18.210938 L 12.644531 18.210938 L 12.644531 20.085938 Z M 11.484375 20.082031 "/>
<path style=" stroke:none;fill-rule:evenodd;fill:rgb(10.588235%,9.411765%,10.980392%);fill-opacity:1;" d="M 11.027344 6.621094 C 11.167969 6.84375 11.1875 7.0625 11.078125 7.28125 C 10.96875 7.5 10.757812 7.710938 10.441406 7.914062 C 10.261719 8.027344 10.101562 8.117188 9.96875 8.179688 C 9.832031 8.242188 9.714844 8.289062 9.617188 8.3125 L 9.382812 7.957031 C 9.46875 7.945312 9.585938 7.914062 9.738281 7.855469 C 9.890625 7.792969 10.035156 7.722656 10.164062 7.636719 C 10.347656 7.519531 10.460938 7.417969 10.503906 7.332031 C 10.546875 7.246094 10.539062 7.15625 10.476562 7.066406 C 10.4375 7.003906 10.378906 6.96875 10.296875 6.953125 C 10.21875 6.9375 10.035156 6.96875 9.75 7.042969 C 9.523438 7.097656 9.324219 7.113281 9.164062 7.082031 C 8.996094 7.050781 8.859375 6.953125 8.75 6.785156 C 8.648438 6.625 8.640625 6.4375 8.734375 6.226562 C 8.824219 6.007812 9.019531 5.808594 9.308594 5.621094 C 9.449219 5.53125 9.582031 5.457031 9.707031 5.40625 C 9.832031 5.351562 9.921875 5.316406 9.976562 5.304688 L 10.183594 5.617188 C 10.074219 5.660156 9.96875 5.703125 9.863281 5.75 C 9.761719 5.796875 9.65625 5.855469 9.546875 5.921875 C 9.398438 6.019531 9.300781 6.109375 9.261719 6.191406 C 9.21875 6.273438 9.21875 6.339844 9.253906 6.398438 C 9.304688 6.472656 9.363281 6.511719 9.4375 6.515625 C 9.511719 6.523438 9.695312 6.484375 9.988281 6.402344 C 10.257812 6.324219 10.472656 6.304688 10.636719 6.347656 C 10.800781 6.386719 10.933594 6.480469 11.027344 6.621094 "/>
<path style=" stroke:none;fill-rule:evenodd;fill:rgb(10.588235%,9.411765%,10.980392%);fill-opacity:1;" d="M 13.234375 4.839844 C 13.300781 5.035156 13.28125 5.210938 13.171875 5.359375 C 13.058594 5.511719 12.867188 5.632812 12.589844 5.726562 L 12.207031 5.855469 L 12.535156 6.804688 L 11.898438 7.019531 L 11.085938 4.6875 L 12.144531 4.328125 C 12.449219 4.222656 12.679688 4.214844 12.839844 4.292969 C 13.003906 4.375 13.113281 4.492188 13.167969 4.65625 Z M 12.59375 5.09375 L 12.515625 4.871094 C 12.484375 4.78125 12.433594 4.726562 12.359375 4.703125 C 12.285156 4.683594 12.179688 4.695312 12.042969 4.742188 L 11.84375 4.808594 L 12.09375 5.535156 L 12.328125 5.457031 C 12.425781 5.421875 12.5 5.375 12.554688 5.308594 C 12.609375 5.246094 12.621094 5.171875 12.59375 5.09375 "/>
<path style=" stroke:none;fill-rule:evenodd;fill:rgb(10.588235%,9.411765%,10.980392%);fill-opacity:1;" d="M 16.136719 6.132812 L 14.242188 6.296875 L 14.023438 3.839844 L 15.835938 3.683594 L 15.867188 4.050781 L 14.730469 4.148438 L 14.789062 4.808594 L 15.671875 4.730469 L 15.707031 5.105469 L 14.820312 5.179688 L 14.882812 5.875 L 16.101562 5.765625 Z M 16.136719 6.132812 "/>
<path style=" stroke:none;fill-rule:evenodd;fill:rgb(10.588235%,9.411765%,10.980392%);fill-opacity:1;" d="M 18.464844 6.429688 L 16.425781 6.144531 L 16.472656 5.8125 L 18.019531 4.246094 L 16.777344 4.074219 L 16.828125 3.710938 L 18.8125 3.984375 L 18.765625 4.308594 L 17.214844 5.882812 L 18.519531 6.0625 Z M 18.464844 6.429688 "/>
<path style=" stroke:none;fill-rule:evenodd;fill:rgb(10.588235%,9.411765%,10.980392%);fill-opacity:1;" d="M 18.980469 6.625 L 19.792969 4.292969 L 20.429688 4.507812 L 19.617188 6.839844 Z M 18.980469 6.625 "/>
<path style=" stroke:none;fill-rule:evenodd;fill:rgb(10.588235%,9.411765%,10.980392%);fill-opacity:1;" d="M 22.382812 8.371094 L 21.800781 8.011719 L 21.929688 7.394531 L 21.09375 6.875 L 20.582031 7.257812 L 20.117188 6.972656 L 22.292969 5.40625 L 22.828125 5.738281 Z M 22 7.015625 L 22.171875 6.054688 L 21.394531 6.640625 Z M 22 7.015625 "/>
<path style=" stroke:none;fill-rule:evenodd;fill:rgb(10.588235%,9.411765%,10.980392%);fill-opacity:1;" d="M 11.972656 27.605469 L 11.402344 27.390625 L 12.082031 25.636719 L 11.691406 25.488281 L 11.800781 25.210938 C 11.980469 25.265625 12.128906 25.277344 12.25 25.246094 C 12.371094 25.21875 12.449219 25.1875 12.492188 25.160156 L 12.867188 25.304688 Z M 11.972656 27.605469 "/>
<path style=" stroke:none;fill-rule:evenodd;fill:rgb(10.588235%,9.411765%,10.980392%);fill-opacity:1;" d="M 15.734375 27.011719 C 15.660156 27.410156 15.5 27.71875 15.257812 27.933594 C 15.015625 28.152344 14.691406 28.234375 14.285156 28.183594 C 14.179688 28.171875 14.089844 28.15625 14.011719 28.132812 C 13.933594 28.113281 13.863281 28.09375 13.796875 28.074219 L 13.847656 27.652344 C 13.9375 27.683594 14.019531 27.707031 14.097656 27.726562 C 14.179688 27.75 14.257812 27.765625 14.335938 27.773438 C 14.527344 27.796875 14.679688 27.765625 14.792969 27.675781 C 14.910156 27.585938 14.980469 27.457031 15.007812 27.289062 C 14.964844 27.335938 14.882812 27.375 14.757812 27.40625 C 14.636719 27.4375 14.523438 27.449219 14.421875 27.433594 C 14.117188 27.398438 13.886719 27.296875 13.738281 27.128906 C 13.585938 26.960938 13.53125 26.742188 13.5625 26.472656 C 13.597656 26.195312 13.722656 25.984375 13.929688 25.839844 C 14.144531 25.699219 14.417969 25.648438 14.757812 25.691406 C 15.125 25.734375 15.386719 25.847656 15.546875 26.027344 C 15.707031 26.207031 15.78125 26.464844 15.761719 26.796875 C 15.761719 26.828125 15.753906 26.867188 15.75 26.917969 C 15.742188 26.964844 15.738281 26.996094 15.734375 27.011719 M 15.125 26.625 C 15.148438 26.445312 15.125 26.3125 15.054688 26.226562 C 14.984375 26.136719 14.878906 26.085938 14.738281 26.070312 C 14.605469 26.054688 14.492188 26.078125 14.402344 26.144531 C 14.316406 26.210938 14.257812 26.335938 14.238281 26.515625 C 14.214844 26.6875 14.238281 26.820312 14.308594 26.914062 C 14.375 27.003906 14.480469 27.058594 14.617188 27.074219 C 14.734375 27.089844 14.847656 27.0625 14.945312 26.992188 C 15.042969 26.921875 15.101562 26.800781 15.125 26.625 "/>
<path style=" stroke:none;fill-rule:evenodd;fill:rgb(10.588235%,9.411765%,10.980392%);fill-opacity:1;" d="M 18.4375 26.910156 C 18.484375 27.300781 18.429688 27.601562 18.261719 27.816406 C 18.101562 28.03125 17.851562 28.15625 17.527344 28.195312 C 17.195312 28.234375 16.929688 28.171875 16.714844 28.007812 C 16.503906 27.835938 16.375 27.558594 16.324219 27.167969 L 16.300781 26.96875 C 16.253906 26.59375 16.308594 26.296875 16.460938 26.074219 C 16.617188 25.847656 16.867188 25.710938 17.210938 25.671875 C 17.558594 25.628906 17.832031 25.699219 18.039062 25.878906 C 18.242188 26.0625 18.367188 26.339844 18.414062 26.710938 Z M 17.765625 26.925781 L 17.757812 26.859375 C 17.71875 26.527344 17.660156 26.304688 17.59375 26.1875 C 17.527344 26.074219 17.414062 26.023438 17.257812 26.042969 C 17.101562 26.058594 17.003906 26.132812 16.96875 26.261719 C 16.929688 26.394531 16.933594 26.625 16.972656 26.953125 L 16.980469 27.019531 C 17.023438 27.351562 17.078125 27.570312 17.144531 27.683594 C 17.214844 27.792969 17.324219 27.839844 17.480469 27.824219 C 17.632812 27.804688 17.734375 27.734375 17.769531 27.605469 C 17.808594 27.484375 17.808594 27.253906 17.765625 26.925781 "/>
<path style=" stroke:none;fill-rule:evenodd;fill:rgb(10.588235%,9.411765%,10.980392%);fill-opacity:1;" d="M 21.214844 26.203125 C 21.316406 26.464844 21.308594 26.710938 21.1875 26.933594 C 21.066406 27.15625 20.847656 27.332031 20.527344 27.453125 C 20.183594 27.582031 19.898438 27.605469 19.671875 27.523438 C 19.441406 27.4375 19.257812 27.242188 19.113281 26.941406 C 19.101562 26.914062 19.085938 26.875 19.070312 26.828125 C 19.054688 26.78125 19.042969 26.753906 19.039062 26.742188 C 18.917969 26.363281 18.914062 26.019531 19.027344 25.710938 C 19.140625 25.398438 19.386719 25.171875 19.757812 25.027344 C 19.859375 24.988281 19.945312 24.964844 20.023438 24.945312 C 20.105469 24.929688 20.175781 24.910156 20.242188 24.898438 L 20.398438 25.292969 C 20.308594 25.3125 20.222656 25.328125 20.140625 25.347656 C 20.058594 25.363281 19.984375 25.386719 19.910156 25.414062 C 19.738281 25.480469 19.621094 25.578125 19.566406 25.710938 C 19.507812 25.839844 19.5 25.988281 19.546875 26.160156 C 19.5625 26.09375 19.617188 26.019531 19.710938 25.933594 C 19.804688 25.851562 19.898438 25.792969 19.996094 25.757812 C 20.28125 25.644531 20.535156 25.628906 20.75 25.707031 C 20.960938 25.785156 21.117188 25.949219 21.214844 26.203125 M 20.601562 26.480469 C 20.539062 26.316406 20.453125 26.214844 20.347656 26.167969 C 20.242188 26.117188 20.125 26.117188 19.996094 26.167969 C 19.882812 26.207031 19.800781 26.285156 19.746094 26.394531 C 19.691406 26.5 19.695312 26.636719 19.757812 26.800781 C 19.824219 26.96875 19.90625 27.078125 20.011719 27.121094 C 20.113281 27.164062 20.230469 27.160156 20.363281 27.113281 C 20.492188 27.0625 20.582031 26.988281 20.628906 26.890625 C 20.675781 26.789062 20.667969 26.652344 20.601562 26.480469 "/>
</g>
</svg>
