<?xml version="1.0" encoding="UTF-8"?>
<svg xmlns="http://www.w3.org/2000/svg" xmlns:xlink="http://www.w3.org/1999/xlink" width="32px" height="32px" viewBox="0 0 32 38" version="1.1">
<defs>
<filter id="alpha" filterUnits="objectBoundingBox" x="0%" y="0%" width="100%" height="100%">
  <feColorMatrix type="matrix" in="SourceGraphic" values="0 0 0 0 1 0 0 0 0 1 0 0 0 0 1 0 0 0 1 0"/>
</filter>
<mask id="mask0">
  <g filter="url(#alpha)">
<rect x="0" y="0" width="32" height="38" style="fill:rgb(0%,0%,0%);fill-opacity:0.960784;stroke:none;"/>
  </g>
</mask>
<clipPath id="clip1">
  <rect x="0" y="0" width="32" height="38"/>
</clipPath>
<g id="surface5" clip-path="url(#clip1)">
<path style=" stroke:none;fill-rule:nonzero;fill:rgb(31.764706%,54.117647%,76.470588%);fill-opacity:1;" d="M 1.863281 9.828125 L 30.097656 9.828125 L 30.097656 10.316406 L 1.863281 10.316406 Z M 1.863281 9.828125 "/>
</g>
</defs>
<g id="surface1">
<path style=" stroke:none;fill-rule:nonzero;fill:rgb(92.54902%,69.803922%,8.235294%);fill-opacity:1;" d="M 15.632812 0.160156 C 14.6875 0.191406 13.5625 0.304688 11.773438 0.472656 C 7.804688 0.851562 6.699219 0.929688 4.554688 0.664062 C 3.1875 0.496094 1.335938 0.164062 1.089844 0.167969 C 1.097656 0.414062 0.695312 2.609375 0.695312 2.621094 C 0.574219 3.222656 0.464844 4.09375 0.320312 5.667969 C -0.15625 10.859375 0.4375 16.300781 1.976562 20.851562 C 3.5 25.367188 5.871094 29.40625 8.898438 32.660156 C 10.253906 34.121094 12.242188 35.648438 13.738281 36.765625 C 13.855469 36.847656 15.542969 37.851562 15.980469 37.886719 C 16.421875 37.851562 18.109375 36.847656 18.226562 36.765625 C 19.71875 35.648438 21.710938 34.121094 23.066406 32.660156 C 26.089844 29.40625 28.460938 25.367188 29.988281 20.851562 C 31.527344 16.300781 32.121094 10.859375 31.644531 5.667969 C 31.496094 4.09375 31.390625 3.222656 31.269531 2.621094 C 31.269531 2.609375 30.867188 0.414062 30.875 0.167969 C 30.625 0.164062 28.777344 0.496094 27.410156 0.664062 C 25.265625 0.929688 24.160156 0.851562 20.191406 0.472656 C 18.34375 0.296875 17.203125 0.1875 16.238281 0.160156 C 16.152344 0.15625 16.066406 0.160156 15.980469 0.160156 C 15.898438 0.160156 15.8125 0.15625 15.726562 0.160156 C 15.695312 0.160156 15.664062 0.160156 15.632812 0.160156 Z M 15.632812 0.160156 "/>
<path style=" stroke:none;fill-rule:nonzero;fill:rgb(53.333333%,12.156863%,9.803922%);fill-opacity:1;" d="M 15.328125 0.953125 C 10.796875 1.328125 6.097656 2.070312 1.632812 1.085938 C 1.054688 4.933594 0.59375 8.867188 1.066406 12.785156 C 1.863281 21.644531 6.113281 30.515625 13.550781 35.769531 C 14.011719 36.097656 15.636719 37.097656 15.957031 37.097656 C 16.296875 37.097656 17.898438 36.128906 18.300781 35.851562 C 27.464844 29.507812 31.636719 17.976562 31.039062 7.148438 C 30.910156 5.117188 30.761719 2.96875 30.230469 1.070312 C 26.171875 1.996094 21.953125 1.464844 17.84375 1.035156 C 17.007812 0.964844 16.167969 0.933594 15.328125 0.953125 Z M 15.328125 0.953125 "/>
<path style="fill-rule:nonzero;fill:rgb(97.254902%,98.431373%,99.215686%);fill-opacity:1;stroke-width:1.081553;stroke-linecap:butt;stroke-linejoin:miter;stroke:rgb(91.372549%,66.666667%,5.882353%);stroke-opacity:1;stroke-miterlimit:4;" d="M 388.966474 498.010566 L 388.966474 516.147402 L 394.120611 516.147402 L 394.120611 509.226767 L 399.101895 509.226767 L 399.101895 505.106205 L 394.042042 505.106205 L 394.042042 502.242494 L 403.218919 502.242494 L 403.218919 498.010566 Z M 388.966474 498.010566 " transform="matrix(0.248587,0,0,0.245529,-76.031748,-110.280099)"/>
<path style="fill-rule:nonzero;fill:rgb(97.254902%,98.431373%,99.215686%);fill-opacity:1;stroke-width:1.055088;stroke-linecap:butt;stroke-linejoin:miter;stroke:rgb(91.372549%,66.666667%,5.882353%);stroke-opacity:1;stroke-miterlimit:4;" d="M 413.244344 498.18557 C 409.158748 498.583308 405.937412 502.449318 405.937412 507.126713 C 405.937412 512.058659 409.520166 516.083764 413.951466 516.083764 C 416.827097 516.083764 419.372738 514.381447 420.786983 511.820017 L 416.748528 510.801808 C 416.622817 510.929084 416.481393 511.040451 416.324255 511.167727 C 410.148719 514.381447 408.797329 503.212974 413.621476 502.560684 C 413.668617 502.544775 413.715759 502.528865 413.7629 502.528865 C 413.778614 502.512956 413.810042 502.528865 413.825755 502.528865 C 415.067148 502.465227 416.009978 502.687961 416.7171 503.467526 L 420.755555 502.353861 C 419.325596 499.840159 416.79567 498.18557 413.951466 498.18557 C 413.731472 498.18557 413.55862 498.169661 413.354341 498.18557 C 413.322913 498.18557 413.275771 498.18557 413.244344 498.18557 Z M 413.244344 498.18557 " transform="matrix(0.248587,0,0,0.245529,-76.031748,-110.280099)"/>
<path style=" stroke:none;fill-rule:nonzero;fill:rgb(100%,98.431373%,100%);fill-opacity:1;" d="M 15.550781 1.875 C 15.425781 1.875 15.300781 1.878906 15.179688 1.878906 C 15.113281 1.882812 15.046875 1.886719 14.984375 1.886719 C 10.820312 2.222656 6.519531 2.78125 2.40625 2.164062 C 1.980469 4.675781 1.796875 7.253906 1.871094 9.828125 L 30.097656 9.828125 C 30.15625 7.21875 29.929688 4.617188 29.425781 2.101562 C 26.746094 2.773438 23.855469 2.375 21.113281 2.210938 C 19.261719 2.058594 17.410156 1.863281 15.550781 1.875 Z M 15.550781 1.875 "/>
<use xlink:href="#surface5" mask="url(#mask0)"/>
<path style="fill-rule:nonzero;fill:rgb(53.333333%,12.156863%,9.803922%);fill-opacity:1;stroke-width:4.106558;stroke-linecap:butt;stroke-linejoin:miter;stroke:rgb(91.372549%,66.666667%,5.882353%);stroke-opacity:1;stroke-miterlimit:4;" d="M 56.277894 57.882475 L 56.277894 79.259272 L 75.708916 79.259272 L 75.708916 140.247829 L 94.5289 140.247829 L 94.5289 79.259272 L 114.57096 79.259272 L 114.57096 57.882475 Z M 56.277894 57.882475 " transform="matrix(0.0639281,0,0,0.0634084,-0.0000801747,-0.146798)"/>
<path style="fill-rule:nonzero;fill:rgb(53.333333%,12.156863%,9.803922%);fill-opacity:1;stroke-width:3.858718;stroke-linecap:butt;stroke-linejoin:miter;stroke:rgb(91.372549%,66.666667%,5.882353%);stroke-opacity:1;stroke-miterlimit:4;" d="M 270.019137 57.512847 L 288.961329 57.512847 L 288.961329 140.371038 L 270.019137 140.371038 Z M 270.019137 57.512847 " transform="matrix(0.0639281,0,0,0.0634084,-0.0000801747,-0.146798)"/>
<path style="fill-rule:nonzero;fill:rgb(53.333333%,12.156863%,9.803922%);fill-opacity:1;stroke-width:3.858718;stroke-linecap:butt;stroke-linejoin:miter;stroke:rgb(91.372549%,66.666667%,5.882353%);stroke-opacity:1;stroke-miterlimit:4;" d="M 301.243201 57.204824 L 301.243201 140.186224 L 319.940977 140.186224 L 319.940977 102.915439 L 347.926537 139.816597 L 348.415368 140.371038 L 366.868729 140.371038 L 366.868729 57.204824 L 347.437707 57.204824 L 347.437707 98.664722 L 316.763577 57.328033 L 316.763577 57.204824 Z M 301.243201 57.204824 " transform="matrix(0.0639281,0,0,0.0634084,-0.0000801747,-0.146798)"/>
<path style="fill-rule:nonzero;fill:rgb(53.333333%,12.156863%,9.803922%);fill-opacity:1;stroke-width:3.858718;stroke-linecap:butt;stroke-linejoin:miter;stroke:rgb(91.372549%,66.666667%,5.882353%);stroke-opacity:1;stroke-miterlimit:4;" d="M 196.266798 56.958405 L 196.266798 140.371038 L 215.086782 140.371038 L 215.086782 109.445527 L 227.368655 109.445527 L 239.039489 140.371038 L 261.15908 140.371038 L 247.288508 104.701973 C 256.39298 101.929766 258.470511 92.319448 258.470511 81.10741 C 258.470511 68.355257 249.854869 57.944079 238.917281 56.958405 Z M 215.025678 75.070159 L 235.128843 75.070159 C 239.406112 75.193368 242.766823 77.842366 242.766823 83.078757 C 242.766823 88.315148 239.406112 91.395379 235.128843 91.518588 L 215.025678 91.518588 Z M 215.025678 75.070159 " transform="matrix(0.0639281,0,0,0.0634084,-0.0000801747,-0.146798)"/>
<path style="fill-rule:nonzero;fill:rgb(53.333333%,12.156863%,9.803922%);fill-opacity:1;stroke-width:4.119617;stroke-linecap:butt;stroke-linejoin:miter;stroke:rgb(91.372549%,66.666667%,5.882353%);stroke-opacity:1;stroke-miterlimit:4;" d="M 151.722097 56.650382 C 133.635359 58.005684 119.153748 76.179042 119.153748 98.356699 C 119.153748 121.458425 134.796332 140.247829 153.921835 140.247829 C 173.047338 140.247829 188.445507 121.458425 188.445507 98.356699 C 188.445507 75.316577 173.047338 56.650382 153.921835 56.650382 C 153.616316 56.650382 153.371901 56.588778 153.066381 56.650382 C 152.638654 56.650382 152.149824 56.588778 151.722097 56.650382 Z M 152.577551 78.335203 C 152.638654 78.335203 152.638654 78.335203 152.699758 78.335203 C 172.252988 77.472738 174.208311 116.406848 155.632743 120.71917 C 134.91854 122.690517 132.046659 81.538642 152.577551 78.335203 Z M 152.577551 78.335203 " transform="matrix(0.0639281,0,0,0.0634084,-0.0000801747,-0.146798)"/>
<path style="fill-rule:nonzero;fill:rgb(53.333333%,12.156863%,9.803922%);fill-opacity:1;stroke-width:4.119617;stroke-linecap:butt;stroke-linejoin:miter;stroke:rgb(91.372549%,66.666667%,5.882353%);stroke-opacity:1;stroke-miterlimit:4;" d="M 407.013954 56.650382 C 388.927216 58.005684 374.445605 76.179042 374.445605 98.356699 C 374.445605 121.458425 390.088189 140.247829 409.213692 140.247829 C 428.339195 140.247829 443.737363 121.458425 443.737363 98.356699 C 443.737363 75.316577 428.339195 56.650382 409.213692 56.650382 C 408.908173 56.650382 408.663757 56.588778 408.358238 56.650382 C 407.930511 56.650382 407.441681 56.588778 407.013954 56.650382 Z M 407.869407 78.335203 C 407.930511 78.335203 407.930511 78.335203 407.991615 78.335203 C 427.544845 77.472738 429.500168 116.406848 410.9246 120.71917 C 390.210397 122.690517 387.39962 81.538642 407.869407 78.335203 Z M 407.869407 78.335203 " transform="matrix(0.0639281,0,0,0.0634084,-0.0000801747,-0.146798)"/>
<path style=" stroke:none;fill-rule:nonzero;fill:rgb(100%,100%,100%);fill-opacity:1;" d="M 5.167969 11.902344 C 4.984375 11.917969 4.914062 11.9375 4.820312 11.980469 C 4.738281 12.019531 4.636719 12.066406 4.558594 12.15625 C 4.410156 12.328125 4.375 12.394531 4.375 12.644531 C 4.371094 12.789062 4.445312 12.914062 4.515625 12.984375 C 4.632812 13.101562 4.757812 13.160156 5.003906 13.183594 C 5.183594 13.203125 5.367188 13.167969 5.429688 13.132812 C 5.460938 13.117188 5.492188 13.101562 5.507812 13.09375 C 5.539062 13.082031 5.546875 13.070312 5.550781 13.070312 C 5.558594 13.074219 5.539062 13.132812 5.535156 13.148438 C 5.519531 13.195312 5.460938 13.273438 5.367188 13.375 C 5.253906 13.492188 5.105469 13.585938 4.949219 13.632812 C 4.863281 13.660156 4.726562 13.707031 4.695312 13.714844 C 4.691406 13.714844 4.691406 13.710938 4.691406 13.714844 L 4.726562 13.976562 C 4.726562 13.976562 4.804688 13.972656 4.894531 13.957031 C 5.359375 13.871094 5.753906 13.535156 5.863281 13.128906 C 5.953125 12.679688 5.992188 12.160156 5.484375 11.964844 C 5.394531 11.929688 5.289062 11.90625 5.167969 11.902344 Z M 5.171875 12.238281 C 5.277344 12.238281 5.390625 12.265625 5.480469 12.328125 C 5.621094 12.429688 5.636719 12.667969 5.503906 12.785156 C 5.234375 13.023438 4.699219 12.886719 4.699219 12.582031 C 4.699219 12.378906 4.929688 12.238281 5.171875 12.238281 Z M 5.171875 12.238281 "/>
<path style=" stroke:none;fill-rule:nonzero;fill:rgb(100%,100%,100%);fill-opacity:1;" d="M 7.019531 11.929688 C 6.753906 11.929688 6.488281 12.054688 6.355469 12.308594 C 6.242188 12.53125 6.199219 13.125 6.277344 13.367188 C 6.363281 13.621094 6.527344 13.824219 6.726562 13.914062 C 7.066406 14.066406 7.46875 13.917969 7.683594 13.558594 C 7.824219 13.316406 7.832031 12.566406 7.691406 12.308594 C 7.554688 12.054688 7.285156 11.929688 7.019531 11.929688 Z M 7.023438 12.261719 C 7.148438 12.261719 7.277344 12.308594 7.347656 12.40625 C 7.554688 12.683594 7.535156 13.320312 7.308594 13.542969 C 7.140625 13.710938 6.914062 13.707031 6.742188 13.535156 C 6.507812 13.300781 6.484375 12.691406 6.695312 12.40625 C 6.765625 12.308594 6.894531 12.261719 7.023438 12.261719 Z M 7.023438 12.261719 "/>
<path style=" stroke:none;fill-rule:nonzero;fill:rgb(100%,100%,100%);fill-opacity:1;" d="M 3.691406 11.921875 L 4.011719 11.921875 L 4.011719 13.933594 L 3.691406 13.933594 Z M 3.691406 11.921875 "/>
<path style=" stroke:none;fill-rule:nonzero;fill:rgb(100%,100%,100%);fill-opacity:1;" d="M 8.867188 14 C 9.046875 13.984375 9.121094 13.96875 9.210938 13.925781 C 9.296875 13.886719 9.394531 13.839844 9.476562 13.746094 C 9.625 13.574219 9.65625 13.511719 9.660156 13.257812 C 9.660156 13.117188 9.585938 12.992188 9.515625 12.921875 C 9.398438 12.800781 9.277344 12.746094 9.027344 12.722656 C 8.847656 12.703125 8.667969 12.738281 8.601562 12.769531 C 8.570312 12.789062 8.539062 12.804688 8.523438 12.8125 C 8.496094 12.824219 8.484375 12.835938 8.484375 12.832031 C 8.476562 12.828125 8.492188 12.769531 8.5 12.753906 C 8.515625 12.710938 8.570312 12.632812 8.664062 12.53125 C 8.777344 12.410156 8.929688 12.320312 9.085938 12.269531 C 9.167969 12.246094 9.308594 12.199219 9.335938 12.191406 C 9.339844 12.191406 9.339844 12.191406 9.339844 12.1875 L 9.308594 11.925781 C 9.308594 11.925781 9.226562 11.933594 9.136719 11.949219 C 8.671875 12.035156 8.277344 12.371094 8.167969 12.773438 C 8.078125 13.226562 8.042969 13.746094 8.550781 13.941406 C 8.640625 13.976562 8.742188 14 8.867188 14 Z M 8.863281 13.667969 C 8.753906 13.667969 8.644531 13.640625 8.554688 13.578125 C 8.410156 13.476562 8.398438 13.234375 8.527344 13.121094 C 8.800781 12.882812 9.335938 13.015625 9.335938 13.324219 C 9.335938 13.527344 9.101562 13.664062 8.863281 13.667969 Z M 8.863281 13.667969 "/>
<path style=" stroke:none;fill-rule:nonzero;fill:rgb(100%,100%,100%);fill-opacity:1;" d="M 17.5 33.011719 L 17.359375 32.886719 L 17.835938 32.15625 C 18.097656 31.75 18.359375 31.320312 18.414062 31.195312 C 18.472656 31.074219 18.640625 30.847656 18.792969 30.699219 C 19.109375 30.390625 19.425781 29.792969 19.464844 29.433594 C 19.5 29.132812 19.402344 28.96875 18.640625 28.039062 C 17.699219 26.890625 17.367188 26.347656 17.242188 25.753906 C 17.125 25.207031 17.347656 24.445312 17.789062 23.867188 L 18.054688 23.515625 L 17.757812 23.800781 C 17.167969 24.367188 16.945312 25.0625 17.113281 25.792969 C 17.261719 26.445312 17.261719 26.445312 16.953125 26.464844 C 16.5 26.488281 16.191406 26.21875 16.125 25.746094 C 16.09375 25.539062 16.089844 25.5625 16.082031 25.917969 C 16.070312 26.648438 15.84375 26.738281 13.988281 26.738281 L 12.890625 26.738281 L 12.726562 26.871094 C 12.621094 26.960938 12.5625 27.054688 12.5625 27.148438 C 12.5625 27.375 12.503906 27.414062 12.179688 27.40625 C 11.8125 27.398438 11.683594 27.488281 11.621094 27.800781 C 11.542969 28.183594 11.015625 28.464844 10.378906 28.464844 C 10.125 28.464844 9.808594 28.34375 9.765625 28.230469 C 9.722656 28.125 10.222656 27.472656 10.753906 26.9375 C 10.976562 26.714844 11.3125 26.375 11.5 26.183594 C 12.015625 25.660156 12.082031 25.640625 13.246094 25.636719 L 14.21875 25.636719 L 14.179688 25.390625 C 14.105469 24.957031 14.144531 23.691406 14.238281 23.328125 C 14.386719 22.75 14.550781 22.667969 15.339844 22.78125 C 15.609375 22.824219 15.839844 22.851562 15.84375 22.84375 C 15.886719 22.804688 15.492188 22.167969 15.132812 21.695312 C 14.679688 21.109375 14.453125 20.710938 14.390625 20.40625 C 14.359375 20.25 14.367188 20.234375 14.449219 20.265625 C 14.679688 20.351562 15.492188 20.457031 15.9375 20.457031 C 16.542969 20.457031 16.902344 20.355469 17.113281 20.136719 L 17.273438 19.96875 L 17.035156 20.121094 C 16.808594 20.265625 16.78125 20.273438 16.160156 20.265625 C 15.378906 20.261719 15.175781 20.203125 13.484375 19.519531 C 12.167969 18.984375 11.125 18.625 10.898438 18.625 C 10.714844 18.625 10.546875 18.703125 10.429688 18.847656 C 10.371094 18.917969 10.277344 18.957031 10.164062 18.960938 L 9.984375 18.964844 L 9.980469 19.304688 C 9.976562 19.777344 9.9375 19.851562 9.652344 19.988281 C 9.089844 20.25 8.507812 20.328125 8.339844 20.164062 C 8.222656 20.046875 8.214844 20.0625 8.644531 19.402344 C 8.859375 19.074219 9.085938 18.695312 9.152344 18.558594 C 9.316406 18.230469 9.679688 17.917969 10 17.839844 C 10.136719 17.804688 10.503906 17.761719 10.8125 17.746094 C 11.488281 17.714844 11.894531 17.785156 13.113281 18.15625 C 13.582031 18.296875 13.976562 18.402344 13.992188 18.390625 C 14.03125 18.347656 13.53125 18.152344 13.042969 18.019531 C 12.792969 17.949219 12.484375 17.863281 12.351562 17.828125 L 12.113281 17.757812 L 12.527344 17.746094 C 12.898438 17.730469 14.015625 17.839844 14.371094 17.925781 C 14.5 17.957031 14.5 17.953125 14.417969 17.859375 C 14.265625 17.6875 14.253906 17.511719 14.375 17.195312 C 14.4375 17.03125 14.507812 16.894531 14.535156 16.894531 C 14.671875 16.894531 14.960938 16.554688 15.039062 16.304688 C 15.164062 15.890625 15.132812 15.855469 14.953125 16.207031 C 14.730469 16.644531 14.542969 16.777344 14 16.871094 C 13.492188 16.957031 13.308594 17.054688 13.308594 17.234375 C 13.308594 17.484375 12.792969 17.535156 12.519531 17.3125 C 12.355469 17.179688 12.390625 17.035156 12.589844 17 C 12.773438 16.96875 12.820312 16.84375 12.695312 16.71875 C 12.527344 16.550781 12.261719 16.828125 12.320312 17.113281 C 12.34375 17.230469 12.332031 17.261719 12.257812 17.261719 C 11.882812 17.257812 11.839844 16.621094 12.125 15.300781 C 12.226562 14.820312 12.246094 14.65625 12.199219 14.582031 C 12.101562 14.429688 12.128906 14.125 12.285156 13.699219 L 12.429688 13.296875 L 12.238281 13.085938 C 12.132812 12.972656 12.011719 12.789062 11.972656 12.675781 C 11.875 12.398438 11.890625 11.808594 12.007812 11.410156 C 12.109375 11.046875 12.191406 10.945312 12.191406 11.179688 C 12.191406 11.496094 12.355469 11.878906 12.601562 12.140625 C 12.734375 12.28125 12.863281 12.394531 12.886719 12.394531 C 12.90625 12.394531 12.941406 12.257812 12.964844 12.09375 C 12.984375 11.929688 13.042969 11.664062 13.089844 11.503906 L 13.183594 11.214844 L 13.25 11.554688 C 13.335938 11.980469 13.457031 12.210938 13.71875 12.453125 C 14.050781 12.765625 14.207031 12.816406 15.21875 12.925781 C 16.921875 13.109375 17.640625 13.359375 18.285156 13.988281 C 18.945312 14.640625 19.097656 15.082031 19.265625 16.816406 C 19.398438 18.230469 19.617188 19.988281 19.722656 20.480469 C 20.03125 21.925781 21.882812 23.785156 22.539062 23.3125 C 22.78125 23.140625 22.605469 22.640625 21.996094 21.773438 C 21.625 21.242188 21.074219 20.300781 21.074219 20.195312 C 21.074219 20.015625 22.402344 21.761719 22.964844 22.683594 C 23.496094 23.550781 23.613281 23.976562 23.449219 24.421875 C 23.300781 24.832031 22.734375 25.164062 22.304688 25.09375 L 22.109375 25.0625 L 22.046875 25.574219 C 21.933594 26.492188 21.777344 26.75 20.769531 27.644531 C 20.433594 27.941406 20.472656 28.113281 20.988281 28.585938 L 21.25 28.824219 L 21.21875 29.09375 C 21.179688 29.394531 21 29.671875 20.765625 29.792969 C 20.425781 29.96875 20.117188 30.472656 20.007812 31.027344 C 19.925781 31.464844 19.875 31.539062 19.613281 31.660156 C 19.480469 31.722656 19.371094 31.789062 19.367188 31.808594 C 19.363281 31.824219 19.355469 32.015625 19.347656 32.230469 C 19.328125 32.679688 19.335938 32.675781 18.738281 32.917969 C 18.179688 33.148438 17.695312 33.183594 17.5 33.011719 Z M 20.578125 28.515625 C 20.324219 28.238281 20.195312 27.953125 20.238281 27.78125 C 20.277344 27.636719 20.214844 27.652344 20.039062 27.835938 L 19.886719 27.988281 L 20.015625 28.179688 C 20.113281 28.324219 20.699219 28.769531 20.800781 28.777344 C 20.808594 28.777344 20.710938 28.660156 20.578125 28.515625 Z M 21.367188 26.722656 C 21.59375 26.460938 21.757812 25.976562 21.800781 25.429688 L 21.832031 25.035156 L 21.660156 25.199219 C 21.496094 25.355469 21.488281 25.386719 21.480469 25.773438 C 21.46875 26.273438 21.351562 26.558594 20.984375 26.988281 L 20.730469 27.285156 L 20.953125 27.113281 C 21.078125 27.015625 21.261719 26.839844 21.367188 26.722656 Z M 20.921875 23.257812 C 20.597656 22.910156 20.269531 22.390625 19.878906 21.597656 C 19.503906 20.839844 19.386719 20.390625 19.257812 19.253906 C 19.222656 18.933594 19.167969 18.675781 19.140625 18.675781 C 19.0625 18.675781 19.136719 20.488281 19.234375 20.816406 C 19.472656 21.65625 20.234375 22.828125 20.835938 23.285156 C 21.175781 23.546875 21.191406 23.542969 20.921875 23.257812 Z M 12.847656 14.890625 C 13.128906 14.847656 13.203125 14.773438 13.203125 14.527344 L 13.203125 14.316406 L 13.082031 14.492188 C 13.015625 14.589844 12.863281 14.71875 12.738281 14.773438 C 12.617188 14.832031 12.503906 14.90625 12.488281 14.945312 C 12.46875 14.996094 12.484375 15 12.550781 14.96875 C 12.601562 14.941406 12.734375 14.90625 12.847656 14.890625 Z M 14.714844 14.015625 C 15.433594 13.945312 15.660156 13.808594 15.492188 13.546875 C 15.453125 13.484375 15.421875 13.496094 15.328125 13.613281 C 15.21875 13.75 14.925781 13.859375 14.476562 13.933594 C 14.371094 13.953125 14.238281 14.003906 14.183594 14.046875 C 14.125 14.09375 14.109375 14.117188 14.140625 14.097656 C 14.175781 14.082031 14.433594 14.046875 14.714844 14.015625 Z M 13.789062 13.414062 C 13.789062 13.359375 13.730469 13.335938 13.589844 13.335938 C 13.34375 13.335938 12.917969 13.226562 12.679688 13.105469 C 12.582031 13.054688 12.515625 13.039062 12.535156 13.070312 C 12.578125 13.136719 12.921875 13.316406 13.199219 13.417969 C 13.46875 13.515625 13.789062 13.515625 13.789062 13.414062 Z M 11.160156 21.59375 C 11.078125 21.296875 10.941406 20.847656 10.851562 20.589844 C 10.609375 19.886719 10.695312 19.3125 11.09375 18.945312 L 11.226562 18.820312 L 11.511719 18.914062 C 11.664062 18.964844 11.859375 19.035156 11.941406 19.078125 L 12.089844 19.152344 L 11.976562 19.292969 C 11.894531 19.394531 11.871094 19.492188 11.882812 19.660156 C 11.890625 19.832031 11.871094 19.902344 11.804688 19.9375 C 11.660156 20.019531 11.691406 20.230469 11.859375 20.320312 C 11.941406 20.363281 12.074219 20.480469 12.15625 20.582031 C 12.292969 20.757812 12.296875 20.785156 12.242188 20.988281 C 12.070312 21.621094 11.714844 22.128906 11.445312 22.128906 C 11.308594 22.128906 11.296875 22.105469 11.160156 21.59375 Z M 23.105469 21.296875 C 23.027344 21.132812 22.859375 20.933594 22.632812 20.738281 C 22.058594 20.242188 21.929688 19.785156 22.265625 19.464844 C 22.484375 19.257812 22.585938 19.039062 22.542969 18.867188 C 22.472656 18.589844 21.988281 18.257812 21.453125 18.125 C 21.050781 18.023438 20.820312 18.054688 20.589844 18.242188 L 20.425781 18.382812 L 20.535156 18.167969 C 20.804688 17.644531 21.441406 17.566406 22.480469 17.921875 C 23.667969 18.328125 23.960938 19.007812 23.457031 20.179688 C 23.300781 20.539062 23.28125 20.640625 23.28125 21.070312 C 23.28125 21.335938 23.269531 21.554688 23.253906 21.550781 C 23.242188 21.550781 23.175781 21.4375 23.105469 21.296875 Z M 23.078125 20.414062 C 23.109375 20.304688 23.199219 20.078125 23.277344 19.90625 C 23.585938 19.1875 23.402344 18.640625 22.738281 18.316406 C 22.429688 18.160156 22.410156 18.175781 22.671875 18.375 C 23.121094 18.714844 23.21875 19.203125 22.953125 19.800781 C 22.765625 20.230469 22.742188 20.433594 22.859375 20.5625 C 22.96875 20.683594 22.992188 20.667969 23.078125 20.414062 Z M 23.078125 20.414062 "/>
</g>
</svg>
