<?xml version="1.0" encoding="UTF-8"?>
<svg xmlns="http://www.w3.org/2000/svg" xmlns:xlink="http://www.w3.org/1999/xlink" width="32px" height="32px" viewBox="0 0 32 40" version="1.1">
<g id="surface1">
<path style=" stroke:none;fill-rule:evenodd;fill:rgb(100%,100%,100%);fill-opacity:1;" d="M 15.996094 39.367188 C 20.023438 37.832031 23.734375 35.132812 26.480469 31.960938 C 29.59375 28.367188 31.488281 23.722656 31.488281 18.71875 L 31.488281 0.523438 L 0.507812 0.523438 L 0.507812 18.71875 C 0.507812 23.722656 2.398438 28.367188 5.511719 31.960938 C 8.261719 35.132812 11.972656 37.832031 15.996094 39.367188 Z M 15.996094 39.367188 "/>
<path style=" stroke:none;fill-rule:evenodd;fill:rgb(0%,47.45098%,73.333333%);fill-opacity:1;" d="M 31.488281 1.332031 L 31.488281 0.523438 L 23.0625 0.523438 L 0.507812 13.515625 L 0.507812 18.71875 C 0.507812 18.871094 0.507812 19.019531 0.511719 19.167969 L 4.863281 16.660156 C 4.222656 16.527344 3.65625 16.355469 3.269531 16.1875 C 4.8125 15.878906 8.8125 12.753906 9.21875 10.996094 C 10.03125 11.144531 10.425781 11.121094 11 11.03125 C 10.988281 10.234375 11.445312 9.480469 12.269531 9.246094 C 12.242188 8.25 13.109375 7.441406 14.132812 7.035156 C 15.226562 6.601562 16.597656 6.664062 17.160156 7.410156 C 17.6875 7.09375 18.773438 7.273438 19.296875 8.265625 C 18.84375 8.371094 18.722656 8.425781 18.421875 8.558594 C 18.519531 8.601562 18.621094 8.640625 18.730469 8.675781 Z M 31.488281 1.332031 "/>
<path style=" stroke:none;fill-rule:evenodd;fill:rgb(86.27451%,20.784314%,10.588235%);fill-opacity:1;" d="M 31.488281 9.347656 L 31.488281 7.199219 L 22.976562 12.101562 L 23.179688 12.316406 C 23.75 12.324219 24.949219 12.414062 25.894531 12.566406 Z M 5.722656 22.042969 L 1.382812 24.542969 C 1.570312 25.144531 1.78125 25.738281 2.023438 26.320312 L 6.726562 23.609375 C 6.785156 23.40625 6.820312 23.214844 6.820312 23.058594 C 6.367188 23.109375 5.625 23.292969 5.253906 23.371094 C 5.394531 23.136719 5.605469 22.574219 5.722656 22.042969 Z M 5.722656 22.042969 "/>
<path style=" stroke:none;fill-rule:evenodd;fill:rgb(12.156863%,10.196078%,9.019608%);fill-opacity:1;" d="M 31.488281 11.480469 L 31.488281 9.347656 L 25.894531 12.566406 C 25.902344 12.566406 25.90625 12.570312 25.914062 12.570312 C 26.558594 12.523438 27.859375 12.199219 28.46875 12.046875 C 28.03125 13.285156 26.820312 14.269531 25.777344 14.734375 C 25.785156 14.742188 25.796875 14.75 25.804688 14.757812 Z M 6.726562 23.609375 L 2.023438 26.320312 C 2.203125 26.894531 2.503906 27.453125 2.808594 28.003906 L 6.738281 25.738281 C 7.0625 25.414062 7.359375 25.066406 7.527344 24.757812 C 7.027344 24.765625 6.664062 24.859375 6.09375 24.914062 C 6.328125 24.625 6.589844 24.089844 6.726562 23.609375 Z M 6.726562 23.609375 "/>
<path style=" stroke:none;fill-rule:evenodd;fill:rgb(0%,47.45098%,73.333333%);fill-opacity:1;" d="M 30.972656 23.191406 C 31.308594 21.75 31.488281 20.25 31.488281 18.71875 L 31.488281 17.253906 L 26.425781 20.167969 C 26.375 21.417969 26.277344 22.988281 26.269531 23.523438 C 24.90625 23.230469 24.179688 22.453125 23.648438 21.765625 L 21.570312 22.964844 C 21.914062 23.714844 23.230469 24.605469 23.929688 24.9375 C 22.222656 24.953125 20.792969 25.363281 18.640625 26.808594 C 16.683594 28.128906 15.203125 29.746094 14.332031 31.128906 C 14.414062 30.386719 14.386719 28.613281 14.175781 27.222656 L 5.65625 32.125 C 6.765625 33.382812 8.023438 34.5625 9.394531 35.625 Z M 30.972656 23.191406 "/>
<path style=" stroke:none;fill-rule:evenodd;fill:rgb(12.156863%,10.196078%,9.019608%);fill-opacity:1;" d="M 9.429688 11.429688 C 8.882812 13.105469 5.472656 15.882812 4.097656 16.179688 C 5.46875 16.445312 6.996094 16.625 8.5 16.453125 C 8.570312 16.722656 8.625 17.042969 8.457031 17.300781 C 8.070312 17.261719 6.820312 17.429688 6.433594 17.644531 C 6.492188 18.285156 6.441406 19.277344 6.3125 19.882812 L 3.902344 19.878906 C 3.894531 19.507812 3.800781 19.148438 3.691406 18.828125 L 2.105469 18.828125 C 1.84375 19.621094 1.816406 20.648438 2.109375 21.613281 L 3.675781 21.613281 C 3.804688 21.3125 3.859375 20.789062 3.894531 20.5 L 5.738281 20.5 C 5.554688 20.722656 5.25 20.984375 4.964844 21.144531 L 6.242188 21.191406 C 6.246094 21.800781 6.019531 22.511719 5.820312 22.839844 C 6.175781 22.765625 6.871094 22.597656 7.300781 22.597656 C 7.300781 23.105469 7.046875 24.246094 6.734375 24.484375 C 7.449219 24.324219 7.863281 24.355469 8.238281 24.488281 C 7.878906 25.121094 7.019531 25.9375 6.492188 26.3125 C 7.707031 26.21875 11.40625 26.421875 12.8125 27.042969 C 12.917969 26.347656 13.199219 25.285156 13.742188 24.644531 C 14.488281 25.175781 14.894531 28.671875 14.765625 29.828125 C 15.691406 28.28125 20.296875 24.488281 22.71875 24.648438 C 22.136719 24.296875 21.421875 23.710938 21.128906 22.984375 C 20.902344 22.421875 20.929688 21.773438 21.476562 21.097656 C 21.882812 20.589844 22.605469 20.375 23.234375 20.6875 C 23.9375 21.039062 24.3125 22.410156 25.878906 23.011719 C 25.886719 22.433594 26 20.835938 26.039062 19.609375 C 26.0625 18.90625 26.515625 18.324219 27.464844 18.617188 C 27.058594 17.851562 26.625 16.21875 26.527344 15.527344 C 26.011719 15.359375 25.648438 15.03125 25.179688 14.632812 C 26.171875 14.191406 27.230469 13.488281 27.867188 12.519531 C 27.285156 12.667969 26.199219 12.972656 25.59375 12.882812 C 24.703125 12.746094 23.523438 12.671875 22.972656 12.667969 L 22.304688 12.003906 C 23.210938 11.484375 25.300781 10.386719 26.863281 8.179688 C 24.800781 8.804688 19.609375 9.550781 17.625 8.660156 C 17.664062 8.496094 17.894531 8.160156 18.6875 8.097656 C 18.191406 7.484375 17.410156 7.746094 16.957031 7.867188 C 15.917969 6.488281 12.621094 7.527344 12.675781 9.480469 C 12.019531 9.730469 11.632812 10.039062 11.410156 10.773438 C 11.886719 10.503906 12.328125 10.390625 12.742188 10.433594 C 12.867188 11.585938 9.914062 11.582031 9.429688 11.429688 Z M 9.429688 11.429688 "/>
<path style=" stroke:none;fill-rule:evenodd;fill:rgb(12.156863%,10.196078%,9.019608%);fill-opacity:1;" d="M 31.425781 18.949219 L 31.425781 0.398438 L 31.886719 0.398438 L 31.886719 18.949219 Z M 31.425781 18.949219 "/>
<path style=" stroke:none;fill-rule:evenodd;fill:rgb(12.156863%,10.196078%,9.019608%);fill-opacity:1;" d="M 31.886719 18.949219 C 31.886719 21.453125 31.417969 23.828125 30.570312 26.035156 C 29.671875 28.375 28.351562 30.523438 26.714844 32.425781 C 25.324219 34.042969 23.707031 35.488281 21.925781 36.722656 C 20.121094 37.980469 18.148438 39.019531 16.082031 39.816406 L 15.914062 39.816406 C 13.84375 39.019531 11.875 37.980469 10.066406 36.722656 C 8.289062 35.488281 6.671875 34.042969 5.277344 32.425781 C 3.644531 30.523438 2.320312 28.375 1.425781 26.035156 C 0.578125 23.828125 0.105469 21.453125 0.105469 18.949219 L 0.570312 18.949219 C 0.570312 21.398438 1.027344 23.71875 1.855469 25.875 C 2.734375 28.164062 4.027344 30.265625 5.632812 32.132812 C 6.996094 33.71875 8.585938 35.136719 10.332031 36.351562 C 12.085938 37.570312 13.996094 38.582031 15.996094 39.359375 C 18 38.582031 19.910156 37.570312 21.660156 36.351562 C 23.410156 35.136719 24.996094 33.71875 26.363281 32.132812 C 27.964844 30.265625 29.261719 28.164062 30.140625 25.875 C 30.964844 23.71875 31.425781 21.398438 31.425781 18.949219 Z M 31.886719 18.949219 "/>
<path style=" stroke:none;fill-rule:evenodd;fill:rgb(12.156863%,10.196078%,9.019608%);fill-opacity:1;" d="M 0.105469 18.949219 L 0.105469 0.171875 L 31.890625 0.171875 L 31.890625 0.628906 L 0.570312 0.628906 L 0.570312 18.949219 Z M 0.105469 18.949219 "/>
</g>
</svg>
