<?xml version="1.0" encoding="UTF-8"?>
<svg xmlns="http://www.w3.org/2000/svg" xmlns:xlink="http://www.w3.org/1999/xlink" width="32px" height="32px" viewBox="0 0 32 32" version="1.1">
<g id="surface1">
<path style=" stroke:none;fill-rule:nonzero;fill:rgb(92.941176%,10.980392%,14.117647%);fill-opacity:1;" d="M 28.125 15.8125 C 28.125 22.46875 22.730469 27.863281 16.078125 27.863281 C 9.421875 27.863281 4.027344 22.46875 4.027344 15.8125 C 4.027344 9.160156 9.421875 3.765625 16.078125 3.765625 C 22.730469 3.765625 28.125 9.160156 28.125 15.8125 Z M 28.125 15.8125 "/>
<path style=" stroke:none;fill-rule:nonzero;fill:rgb(50.196078%,50.980392%,52.156863%);fill-opacity:1;" d="M 16.078125 5.609375 C 10.453125 5.609375 5.875 10.1875 5.875 15.8125 C 5.875 21.4375 10.453125 26.015625 16.078125 26.015625 C 21.703125 26.015625 26.28125 21.4375 26.28125 15.8125 C 26.28125 10.1875 21.703125 5.609375 16.078125 5.609375 Z M 16.078125 24.171875 C 11.46875 24.171875 7.71875 20.421875 7.71875 15.8125 C 7.71875 11.207031 11.46875 7.457031 16.078125 7.457031 C 20.6875 7.457031 24.433594 11.207031 24.433594 15.8125 C 24.433594 20.421875 20.6875 24.171875 16.078125 24.171875 Z M 16.078125 24.171875 "/>
<path style=" stroke:none;fill-rule:nonzero;fill:rgb(81.176471%,61.176471%,31.764706%);fill-opacity:1;" d="M 7.71875 15.8125 C 7.71875 20.421875 11.46875 24.171875 16.078125 24.171875 C 20.6875 24.171875 24.433594 20.421875 24.433594 15.8125 C 24.433594 11.207031 20.6875 7.457031 16.078125 7.457031 C 11.46875 7.457031 7.71875 11.207031 7.71875 15.8125 Z M 7.71875 15.8125 "/>
<path style=" stroke:none;fill-rule:nonzero;fill:rgb(3.921569%,29.019608%,60.784314%);fill-opacity:1;" d="M 16.078125 1.496094 L 16.078125 17.152344 C 17.859375 15.777344 19.390625 14.8125 19.390625 9.890625 C 19.390625 7.902344 20.496094 7.304688 21.183594 7.304688 L 21.183594 4.507812 C 19.574219 4.507812 18.214844 3.207031 18.214844 1.496094 "/>
<path style=" stroke:none;fill-rule:nonzero;fill:rgb(92.941176%,10.980392%,14.117647%);fill-opacity:1;" d="M 13.507812 14.382812 L 16.078125 14.382812 L 16.078125 11.695312 L 12.847656 11.695312 C 12.964844 12.84375 13.195312 13.703125 13.507812 14.382812 Z M 10.972656 7.304688 C 11.5625 7.304688 12.460938 7.746094 12.703125 9.132812 L 16.078125 9.132812 L 16.078125 6.449219 L 10.972656 6.449219 Z M 13.941406 1.496094 C 13.941406 2.488281 13.484375 3.34375 12.785156 3.882812 L 16.078125 3.882812 L 16.078125 1.496094 Z M 13.941406 1.496094 "/>
<path style=" stroke:none;fill-rule:nonzero;fill:rgb(100%,100%,100%);fill-opacity:1;" d="M 12.765625 9.890625 C 12.765625 10.566406 12.796875 11.160156 12.847656 11.695312 L 16.078125 11.695312 L 16.078125 9.132812 L 12.703125 9.132812 C 12.742188 9.359375 12.765625 9.613281 12.765625 9.890625 Z M 16.078125 17.152344 L 16.078125 14.382812 L 13.507812 14.382812 C 14.125 15.714844 15.058594 16.367188 16.078125 17.152344 Z M 12.785156 3.882812 C 12.28125 4.277344 11.648438 4.507812 10.972656 4.507812 L 10.972656 6.449219 L 16.078125 6.449219 L 16.078125 3.882812 Z M 12.785156 3.882812 "/>
<path style=" stroke:none;fill-rule:nonzero;fill:rgb(81.176471%,61.176471%,31.764706%);fill-opacity:1;" d="M 17.339844 3.316406 C 16.648438 3.316406 16.414062 3.96875 16.414062 4.5625 C 16.414062 5.4375 16.867188 6.449219 16.867188 6.449219 L 16.867188 6.632812 L 16.75 6.632812 L 16.75 6.753906 L 16.609375 6.753906 L 16.609375 7.21875 L 16.75 7.21875 C 16.589844 7.605469 16.628906 11.3125 16.628906 11.3125 C 16.628906 11.3125 16.363281 11.589844 16.363281 12.035156 C 16.363281 12.617188 16.847656 13.074219 17.480469 13.074219 C 18.273438 13.074219 18.660156 12.648438 18.660156 11.953125 C 18.660156 11.449219 18.5625 11.25 18.1875 11.0625 C 18.1875 11.0625 18.164062 7.515625 17.976562 7.21875 L 18.097656 7.21875 L 18.097656 6.773438 L 17.96875 6.722656 L 17.96875 6.515625 C 17.96875 6.515625 18.375 5.910156 18.375 4.78125 C 18.375 3.742188 17.910156 3.316406 17.339844 3.316406 Z M 17.339844 3.316406 "/>
<path style=" stroke:none;fill-rule:nonzero;fill:rgb(100%,100%,100%);fill-opacity:1;" d="M 16.710938 5.050781 C 16.710938 4.980469 16.828125 5.050781 16.828125 5.050781 C 16.828125 5.050781 16.976562 5.265625 17.253906 5.265625 C 17.691406 5.265625 17.867188 5.109375 18.066406 4.910156 C 18.09375 5.503906 17.945312 6.097656 17.75 6.605469 L 17.609375 6.605469 C 17.609375 6.605469 17.621094 6.167969 17.847656 5.542969 C 17.839844 5.464844 17.726562 5.46875 17.652344 5.542969 C 17.472656 5.882812 17.453125 6.613281 17.453125 6.613281 L 17.085938 6.613281 C 17.085938 6.050781 16.710938 5.394531 16.710938 5.050781 Z M 16.867188 6.890625 L 16.867188 7.121094 C 17.15625 7.121094 17.253906 7.199219 17.542969 7.199219 C 17.710938 7.199219 17.859375 7.128906 17.859375 7.128906 L 17.859375 6.882812 C 17.859375 6.882812 17.71875 6.8125 17.542969 6.8125 C 17.363281 6.8125 17.285156 6.890625 17.117188 6.890625 C 17.015625 6.890625 16.867188 6.890625 16.867188 6.890625 Z M 16.867188 6.890625 "/>
<path style=" stroke:none;fill-rule:nonzero;fill:rgb(92.941176%,10.980392%,14.117647%);fill-opacity:1;" d="M 17.957031 8.773438 L 17.957031 9.824219 L 16.878906 8.230469 C 16.878906 8.230469 16.851562 7.5625 16.917969 7.496094 C 17.128906 7.582031 17.957031 8.773438 17.957031 8.773438 Z M 16.917969 10.964844 C 16.871094 11.007812 16.917969 11.546875 16.917969 11.546875 L 17.253906 11.796875 L 17.601562 11.796875 L 17.601562 11.546875 C 17.601562 11.546875 17.253906 11.054688 16.917969 10.964844 Z M 16.917969 10.964844 "/>
<path style=" stroke:none;fill-rule:nonzero;fill:rgb(50.196078%,50.980392%,52.156863%);fill-opacity:1;" d="M 17.957031 10.359375 L 17.957031 11.242188 C 17.957031 11.242188 17.128906 10.363281 16.878906 10.023438 C 16.878906 9.933594 16.8125 9.058594 16.878906 8.992188 C 17.257812 9.410156 17.957031 10.359375 17.957031 10.359375 Z M 17.441406 7.378906 L 17.839844 7.863281 L 17.839844 7.398438 Z M 17.441406 7.378906 "/>
<path style=" stroke:none;fill-rule:nonzero;fill:rgb(100%,100%,100%);fill-opacity:1;" d="M 16.859375 12.0625 C 16.859375 12.210938 16.996094 12.390625 16.996094 12.390625 C 16.996094 12.390625 16.996094 12.558594 16.917969 12.558594 C 16.738281 12.558594 16.609375 12.320312 16.609375 12.015625 C 16.609375 11.886719 16.679688 11.636719 16.757812 11.636719 C 16.839844 11.636719 16.859375 11.757812 16.859375 12.0625 Z M 17.195312 11.925781 C 17.136719 11.925781 17.066406 12.054688 17.066406 12.144531 C 17.066406 12.371094 17.246094 12.757812 17.332031 12.757812 C 17.421875 12.757812 17.507812 12.667969 17.507812 12.582031 C 17.277344 12.269531 17.363281 11.925781 17.195312 11.925781 Z M 17.601562 11.925781 C 17.503906 12.164062 17.679688 12.648438 17.867188 12.648438 C 17.96875 12.648438 18.078125 12.550781 18.078125 12.441406 C 17.71875 12.183594 17.988281 11.925781 17.601562 11.925781 Z M 17.976562 11.746094 C 17.976562 11.894531 18.144531 12.292969 18.304688 12.292969 C 18.394531 12.292969 18.464844 12.132812 18.464844 11.925781 C 18.464844 11.835938 18.246094 11.632812 18.171875 11.632812 C 18.097656 11.632812 17.976562 11.695312 17.976562 11.746094 Z M 17.976562 11.746094 "/>
<path style=" stroke:none;fill-rule:nonzero;fill:rgb(0%,0%,0%);fill-opacity:1;" d="M 0.671875 10.324219 L 0.671875 12.746094 C 0.671875 19.4375 5.460938 22.523438 10.171875 22.523438 L 10.171875 10.324219 L 7.714844 10.324219 L 7.714844 19.933594 C 5.089844 18.824219 3.148438 16.828125 3.148438 10.324219 Z M 0.671875 10.324219 "/>
<path style=" stroke:none;fill-rule:nonzero;fill:rgb(100%,100%,100%);fill-opacity:1;" d="M 8.082031 10.695312 C 8.082031 11.375 8.082031 20.492188 8.082031 20.492188 L 7.570312 20.273438 C 5.128906 19.238281 2.867188 17.351562 2.785156 10.695312 C 2.347656 10.695312 1.484375 10.695312 1.042969 10.695312 C 1.042969 11.222656 1.042969 12.746094 1.042969 12.746094 C 1.042969 19.070312 5.382812 21.992188 9.804688 22.144531 C 9.804688 21.460938 9.804688 11.367188 9.804688 10.695312 C 9.363281 10.695312 8.523438 10.695312 8.082031 10.695312 Z M 8.082031 10.695312 "/>
<path style=" stroke:none;fill-rule:nonzero;fill:rgb(0%,0%,0%);fill-opacity:1;" d="M 21.710938 10.324219 L 21.710938 12.457031 C 21.710938 19.765625 26.738281 22.523438 31.328125 22.523438 L 31.328125 20.453125 C 27.035156 20.453125 24.304688 17.429688 24.304688 12.792969 L 28.84375 12.792969 L 28.84375 15.738281 L 31.328125 15.738281 L 31.328125 10.324219 Z M 21.710938 10.324219 "/>
<path style=" stroke:none;fill-rule:nonzero;fill:rgb(100%,100%,100%);fill-opacity:1;" d="M 22.078125 10.695312 C 22.078125 11.199219 22.078125 12.457031 22.078125 12.457031 C 22.078125 19.410156 26.777344 22.003906 30.957031 22.144531 C 30.957031 21.746094 30.957031 21.1875 30.957031 20.808594 C 26.679688 20.636719 23.933594 17.535156 23.933594 12.792969 L 23.933594 12.421875 L 29.210938 12.421875 C 29.210938 12.421875 29.210938 14.804688 29.210938 15.371094 C 29.652344 15.371094 30.515625 15.371094 30.957031 15.371094 C 30.957031 14.777344 30.957031 11.289062 30.957031 10.695312 C 30.300781 10.695312 22.734375 10.695312 22.078125 10.695312 Z M 22.078125 10.695312 "/>
<path style=" stroke:none;fill-rule:nonzero;fill:rgb(0%,0%,0%);fill-opacity:1;" d="M 20.117188 17.945312 C 20.117188 17.945312 18.453125 17.875 17.65625 17.875 C 17.074219 17.875 16.105469 17.855469 15.273438 18.128906 C 14.09375 18.515625 13.101562 19.664062 13.101562 20.992188 C 13.101562 24.09375 18.417969 24.945312 18.417969 26.875 C 18.417969 27.796875 17.546875 28.417969 16.414062 28.417969 L 13.101562 28.417969 L 13.101562 30.503906 L 17.160156 30.503906 C 18.453125 30.503906 21.003906 29.214844 21.003906 26.75 C 21.003906 24.980469 19.824219 24.054688 18.613281 23.246094 C 17.183594 22.289062 15.6875 21.636719 15.6875 20.851562 C 15.6875 20.140625 16.148438 19.894531 18.628906 19.894531 C 19 19.894531 20.117188 19.914062 20.117188 19.914062 Z M 20.117188 17.945312 "/>
<path style=" stroke:none;fill-rule:nonzero;fill:rgb(100%,100%,100%);fill-opacity:1;" d="M 15.390625 18.476562 C 14.4375 18.792969 13.46875 19.757812 13.46875 20.992188 C 13.46875 22.519531 14.96875 23.449219 16.421875 24.351562 C 17.636719 25.105469 18.785156 25.816406 18.785156 26.875 C 18.785156 27.984375 17.789062 28.785156 16.414062 28.785156 C 16.414062 28.785156 14.054688 28.785156 13.46875 28.785156 C 13.46875 29.179688 13.46875 29.742188 13.46875 30.136719 C 14.082031 30.136719 17.160156 30.136719 17.160156 30.136719 C 18.339844 30.136719 20.632812 28.941406 20.632812 26.75 C 20.632812 25.171875 19.582031 24.335938 18.40625 23.550781 C 18.058594 23.316406 17.707031 23.101562 17.363281 22.894531 C 16.222656 22.199219 15.320312 21.648438 15.320312 20.851562 C 15.320312 19.710938 16.292969 19.523438 18.628906 19.523438 C 18.628906 19.523438 19.328125 19.535156 19.75 19.539062 C 19.75 19.15625 19.75 18.667969 19.75 18.300781 C 19.21875 18.28125 18.214844 18.242188 17.65625 18.242188 L 17.542969 18.242188 C 16.972656 18.242188 16.113281 18.242188 15.390625 18.476562 Z M 15.390625 18.476562 "/>
</g>
</svg>
