<?xml version="1.0" encoding="UTF-8"?>
<svg xmlns="http://www.w3.org/2000/svg" xmlns:xlink="http://www.w3.org/1999/xlink" width="32px" height="32px" viewBox="0 0 32 31" version="1.1">
<g id="surface1">
<path style=" stroke:none;fill-rule:evenodd;fill:rgb(76.470588%,60%,17.647059%);fill-opacity:1;" d="M 16 30.945312 C 13.382812 30.015625 10.941406 28.707031 8.785156 26.957031 C 5.558594 24.332031 3.140625 20.878906 1.714844 16.925781 C 0.636719 13.945312 0.09375 10.667969 0.105469 7.234375 C 0.105469 5.421875 0.277344 3.570312 0.546875 1.84375 C 1.308594 1.621094 2.074219 1.433594 2.847656 1.269531 C 4.679688 0.867188 6.636719 0.601562 8.546875 0.425781 C 11.222656 0.183594 13.820312 0.105469 16 0.105469 C 18.179688 0.105469 20.789062 0.183594 23.453125 0.425781 C 25.363281 0.601562 27.320312 0.867188 29.152344 1.257812 C 29.925781 1.421875 30.703125 1.621094 31.453125 1.832031 C 31.734375 3.558594 31.894531 5.410156 31.894531 7.226562 C 31.894531 10.65625 31.355469 13.933594 30.273438 16.925781 C 28.847656 20.878906 26.429688 24.332031 23.203125 26.957031 C 21.070312 28.707031 18.617188 30.015625 16 30.945312 Z M 16 30.945312 "/>
<path style=" stroke:none;fill-rule:evenodd;fill:rgb(40.784314%,10.196078%,7.058824%);fill-opacity:1;" d="M 16 30.203125 C 21.664062 28.140625 25.757812 24.433594 28.261719 19.738281 C 30.894531 14.800781 31.757812 8.753906 30.824219 2.398438 C 28.519531 1.753906 25.9375 1.367188 23.394531 1.136719 C 20.765625 0.890625 18.179688 0.824219 16 0.824219 C 13.820312 0.824219 11.234375 0.902344 8.605469 1.136719 C 6.074219 1.355469 3.480469 1.753906 1.1875 2.398438 C 0.253906 8.753906 1.117188 14.800781 3.75 19.738281 C 6.242188 24.433594 10.347656 28.140625 16 30.203125 Z M 16 30.203125 "/>
<path style=" stroke:none;fill-rule:evenodd;fill:rgb(100%,100%,100%);fill-opacity:1;" d="M 26.238281 4.867188 L 26.949219 5.175781 L 26.25 5.464844 L 26.519531 6.164062 L 25.824219 5.886719 L 25.519531 6.570312 L 25.226562 5.894531 L 24.519531 6.164062 L 24.800781 5.476562 L 24.105469 5.175781 L 24.789062 4.890625 L 24.519531 4.191406 L 25.21875 4.46875 L 25.519531 3.769531 L 25.8125 4.457031 L 26.519531 4.191406 Z M 26.238281 4.867188 "/>
<path style=" stroke:none;fill-rule:evenodd;fill:rgb(100%,100%,100%);fill-opacity:1;" d="M 11.109375 19.027344 L 10.132812 22.761719 L 8.90625 22.761719 L 9.59375 20.125 L 8.714844 20.601562 L 8.300781 19.871094 L 9.875 19.027344 Z M 11.109375 19.027344 "/>
<path style=" stroke:none;fill-rule:evenodd;fill:rgb(100%,100%,100%);fill-opacity:1;" d="M 11.066406 20.433594 C 11.066406 21.109375 11.640625 21.421875 12.234375 21.421875 C 12.503906 21.421875 12.785156 21.34375 13.011719 21.234375 C 12.898438 21.808594 12.449219 21.996094 11.953125 22.007812 C 11.570312 22.019531 11.144531 21.910156 10.828125 21.796875 L 10.628906 22.582031 C 11.03125 22.726562 11.503906 22.828125 11.953125 22.828125 C 12.898438 22.828125 13.582031 22.429688 13.976562 21.773438 C 14.191406 21.421875 14.359375 20.867188 14.371094 20.359375 C 14.382812 19.351562 13.753906 18.984375 12.761719 18.984375 C 11.863281 18.960938 11.078125 19.527344 11.066406 20.433594 Z M 12.582031 20.746094 C 12.3125 20.734375 12.144531 20.558594 12.144531 20.3125 C 12.132812 19.925781 12.4375 19.648438 12.761719 19.648438 C 13.042969 19.648438 13.203125 19.769531 13.203125 20.09375 C 13.191406 20.46875 12.898438 20.746094 12.582031 20.746094 Z M 12.582031 20.746094 "/>
<path style=" stroke:none;fill-rule:evenodd;fill:rgb(100%,100%,100%);fill-opacity:1;" d="M 17.191406 20.433594 C 17.191406 21.109375 17.765625 21.421875 18.359375 21.421875 C 18.628906 21.421875 18.910156 21.34375 19.136719 21.234375 C 19.023438 21.808594 18.574219 21.996094 18.078125 22.007812 C 17.6875 22.019531 17.269531 21.910156 16.957031 21.796875 L 16.742188 22.582031 C 17.148438 22.726562 17.617188 22.828125 18.078125 22.828125 C 19.023438 22.828125 19.710938 22.429688 20.089844 21.773438 C 20.304688 21.421875 20.472656 20.867188 20.484375 20.359375 C 20.496094 19.351562 19.878906 18.984375 18.890625 18.984375 C 17.988281 18.960938 17.203125 19.527344 17.191406 20.433594 Z M 18.707031 20.746094 C 18.4375 20.734375 18.269531 20.558594 18.257812 20.3125 C 18.25 19.925781 18.5625 19.648438 18.890625 19.648438 C 19.160156 19.648438 19.328125 19.769531 19.328125 20.09375 C 19.316406 20.46875 19.023438 20.746094 18.707031 20.746094 Z M 18.707031 20.746094 "/>
<path style=" stroke:none;fill-rule:evenodd;fill:rgb(100%,100%,100%);fill-opacity:1;" d="M 17.246094 19.027344 L 16.011719 19.027344 L 14.449219 19.871094 L 14.863281 20.601562 L 15.742188 20.125 L 15.042969 22.761719 L 16.28125 22.761719 Z M 17.246094 19.027344 "/>
<path style=" stroke:none;fill-rule:evenodd;fill:rgb(100%,100%,100%);fill-opacity:1;" d="M 12.527344 16.75 L 12.527344 16.292969 L 22.160156 16.292969 L 24.722656 23.757812 L 24.238281 23.789062 C 23.878906 22.628906 23.53125 21.554688 22.855469 20.535156 C 21.753906 18.875 20.125 17.734375 17.988281 17.167969 C 16.179688 16.683594 14.371094 16.75 12.527344 16.75 Z M 12.527344 16.75 "/>
<path style=" stroke:none;fill-rule:evenodd;fill:rgb(100%,100%,100%);fill-opacity:1;" d="M 3.445312 4.699219 L 15.503906 4.699219 C 15.335938 5.042969 14.820312 5.488281 14.402344 5.640625 L 12.089844 5.640625 L 11.785156 6.007812 L 4.703125 6.007812 C 4.851562 6.171875 4.984375 6.328125 5.121094 6.503906 L 14.394531 6.503906 L 17.777344 10.148438 C 18.328125 8.765625 19.304688 9.792969 19.867188 10.480469 C 20.011719 9.328125 20.585938 8.984375 21.328125 8.976562 C 22.417969 8.953125 23.53125 9.847656 24.136719 10.414062 C 24.542969 9.550781 25.453125 8.621094 25.847656 8.300781 C 24.765625 8.386719 21.125 8.386719 21.84375 6.304688 C 20.574219 6.5625 20.269531 5.363281 20.339844 5.03125 C 19.460938 5.761719 18.292969 5.355469 18.304688 3.625 C 17.316406 4.390625 16.4375 3.949219 15.933594 3.238281 L 15.855469 3.835938 L 13.71875 3.835938 L 13.414062 4.203125 L 2.859375 4.203125 C 3.050781 4.347656 3.253906 4.511719 3.445312 4.699219 Z M 19.550781 6.195312 C 19.832031 6.195312 20.070312 6.417969 20.070312 6.703125 C 20.070312 6.992188 19.832031 7.214844 19.550781 7.214844 C 19.257812 7.214844 19.035156 6.992188 19.035156 6.703125 C 19.023438 6.417969 19.257812 6.195312 19.550781 6.195312 Z M 19.550781 6.195312 "/>
<path style=" stroke:none;fill-rule:evenodd;fill:rgb(100%,100%,100%);fill-opacity:1;" d="M 6.535156 8.53125 L 13.664062 8.53125 L 16.316406 10.039062 C 16.394531 9.90625 16.796875 9.871094 17.214844 10.09375 L 14.359375 7.027344 C 14.304688 7.3125 14.203125 7.613281 14.132812 7.691406 L 11.132812 7.691406 L 10.828125 8.054688 L 6.242188 8.054688 C 6.332031 8.210938 6.433594 8.367188 6.535156 8.53125 Z M 6.535156 8.53125 "/>
<path style=" stroke:none;fill-rule:evenodd;fill:rgb(100%,100%,100%);fill-opacity:1;" d="M 7.46875 10.324219 L 16.046875 10.324219 L 13.300781 8.765625 C 13.292969 9.097656 13.257812 9.394531 13.179688 9.484375 L 10.390625 9.484375 L 10.078125 9.847656 L 7.246094 9.847656 C 7.324219 10.003906 7.390625 10.160156 7.46875 10.324219 Z M 7.46875 10.324219 "/>
<path style=" stroke:none;fill-rule:evenodd;fill:rgb(100%,100%,100%);fill-opacity:1;" d="M 8.144531 12.21875 L 17.699219 12.21875 C 16.957031 11.722656 16.449219 11.210938 16.234375 10.703125 L 12.359375 10.703125 C 12.347656 11.023438 12.3125 11.265625 12.234375 11.355469 L 9.863281 11.355469 L 9.558594 11.722656 L 7.996094 11.722656 C 8.054688 11.886719 8.097656 12.054688 8.144531 12.21875 Z M 8.144531 12.21875 "/>
<path style=" stroke:none;fill-rule:evenodd;fill:rgb(100%,100%,100%);fill-opacity:1;" d="M 8.445312 14.035156 L 21.089844 14.035156 C 20.261719 13.570312 19.347656 13.003906 18.84375 12.59375 L 12.042969 12.59375 C 12.042969 12.796875 12.042969 13.039062 12 13.171875 L 9.660156 13.171875 L 9.355469 13.535156 L 8.390625 13.535156 C 8.414062 13.691406 8.4375 13.867188 8.445312 14.035156 Z M 8.445312 14.035156 "/>
<path style=" stroke:none;fill-rule:evenodd;fill:rgb(100%,100%,100%);fill-opacity:1;" d="M 8.457031 15.917969 L 22.574219 15.917969 C 22.101562 15.519531 21.507812 14.898438 21.101562 14.410156 L 12.492188 14.410156 C 12.570312 14.621094 12.605469 14.832031 12.582031 15.054688 L 10.277344 15.054688 L 9.976562 15.417969 L 8.457031 15.417969 Z M 8.457031 15.917969 "/>
</g>
</svg>
