<?xml version="1.0" encoding="UTF-8"?>
<svg xmlns="http://www.w3.org/2000/svg" xmlns:xlink="http://www.w3.org/1999/xlink" width="32px" height="32px" viewBox="0 0 32 34" version="1.1">
<g id="surface1">
<path style=" stroke:none;fill-rule:nonzero;fill:rgb(65.490196%,64.705882%,65.098039%);fill-opacity:1;" d="M 21.507812 0.328125 L 21.792969 0 C 22.269531 0.667969 22.835938 1.757812 23.554688 2.167969 C 24.207031 2.542969 25.492188 2.917969 28.230469 2.925781 L 28.660156 2.925781 L 30.34375 5.121094 C 29.3125 6.851562 28.351562 9.101562 28.351562 11.160156 C 28.351562 11.703125 28.449219 12.449219 28.734375 13.394531 L 30.492188 13.871094 L 30.09375 14.660156 L 31.390625 15.226562 L 30.734375 16.082031 L 31.964844 16.992188 L 30.71875 17.910156 C 31.191406 19.125 31.796875 21.027344 31.796875 22.582031 C 31.796875 28.019531 27.273438 29.964844 18.667969 31.386719 L 19.277344 33.449219 L 16.984375 32.484375 L 15.378906 34.191406 L 14.679688 32.441406 L 11.957031 33.242188 L 12.6875 31.285156 C 4.484375 29.871094 0.167969 27.894531 0.167969 22.582031 C 0.167969 21.027344 0.773438 19.125 1.246094 17.910156 L 0 16.992188 L 1.230469 16.082031 L 0.574219 15.226562 L 1.871094 14.660156 L 1.472656 13.871094 L 3.230469 13.394531 C 3.515625 12.449219 3.613281 11.703125 3.613281 11.160156 C 3.613281 9.101562 2.648438 6.851562 1.625 5.121094 L 3.308594 2.925781 L 3.734375 2.925781 C 5.210938 2.921875 8.082031 2.882812 9.058594 1.609375 C 9.457031 1.09375 9.792969 0.53125 10.171875 0 C 11.8125 1.863281 13.183594 3.113281 15.867188 3.148438 L 16.09375 3.144531 C 18.511719 3.117188 19.957031 2.085938 21.507812 0.328125 "/>
<path style=" stroke:none;fill-rule:nonzero;fill:rgb(13.72549%,12.156863%,12.54902%);fill-opacity:1;" d="M 16.101562 4.066406 C 18.40625 4.042969 20.277344 3.09375 21.722656 1.453125 C 22.351562 2.339844 22.648438 3.835938 28.230469 3.847656 L 29.320312 5.273438 C 29.320312 5.273438 27.496094 8.34375 27.496094 11.253906 C 27.496094 11.976562 27.644531 12.953125 28.058594 14.167969 L 29.273438 14.496094 L 28.941406 15.15625 L 30.070312 15.652344 L 29.542969 16.339844 L 30.554688 17.085938 L 29.6875 17.726562 C 30.15625 18.816406 30.941406 21.011719 30.941406 22.675781 C 30.941406 27.519531 26.96875 29.351562 17.582031 30.8125 L 17.957031 32.082031 L 16.765625 31.582031 L 15.675781 32.738281 L 15.1875 31.519531 L 13.339844 32.0625 L 13.839844 30.726562 C 4.839844 29.277344 1.023438 27.425781 1.023438 22.675781 C 1.023438 21.011719 1.808594 18.816406 2.277344 17.726562 L 1.410156 17.085938 L 2.421875 16.339844 L 1.894531 15.652344 L 3.023438 15.15625 L 2.691406 14.496094 L 3.90625 14.167969 C 4.320312 12.953125 4.46875 11.976562 4.46875 11.253906 C 4.46875 8.34375 2.644531 5.273438 2.644531 5.273438 L 3.734375 3.847656 C 9.316406 3.835938 9.613281 2.339844 10.242188 1.453125 C 11.6875 3.09375 13.558594 4.042969 15.863281 4.074219 L 16.101562 4.066406 "/>
<path style=" stroke:none;fill-rule:nonzero;fill:rgb(100%,100%,100%);fill-opacity:1;" d="M 16.996094 27.210938 L 18.027344 26.75 L 17.992188 24.191406 L 17.015625 23.652344 L 14.785156 25.003906 L 14.859375 25.949219 L 16.996094 27.210938 "/>
<path style=" stroke:none;fill-rule:nonzero;fill:rgb(100%,100%,100%);fill-opacity:1;" d="M 12.800781 23.992188 L 12.882812 21.445312 L 12.332031 21.144531 C 11.652344 21.9375 11.242188 22.957031 11.242188 24.066406 C 11.242188 24.164062 11.246094 24.257812 11.253906 24.355469 L 12.363281 24.484375 L 12.800781 23.992188 "/>
<path style=" stroke:none;fill-rule:nonzero;fill:rgb(100%,100%,100%);fill-opacity:1;" d="M 14.722656 20.917969 L 13.570312 21.359375 L 13.492188 23.808594 L 14.410156 24.449219 L 16.582031 23.132812 L 16.496094 21.867188 L 14.722656 20.917969 "/>
<path style=" stroke:none;fill-rule:nonzero;fill:rgb(100%,100%,100%);fill-opacity:1;" d="M 12.832031 27.488281 L 13.101562 26.472656 L 12.21875 25.132812 L 11.351562 25.035156 C 11.5625 26.003906 12.09375 26.855469 12.832031 27.488281 "/>
<path style=" stroke:none;fill-rule:nonzero;fill:rgb(100%,100%,100%);fill-opacity:1;" d="M 20.664062 24.066406 C 20.664062 23.898438 20.652344 23.730469 20.636719 23.566406 L 19.617188 23.449219 L 18.675781 24.140625 L 18.710938 26.746094 L 19.480469 27.097656 C 20.214844 26.289062 20.664062 25.230469 20.664062 24.066406 "/>
<path style=" stroke:none;fill-rule:nonzero;fill:rgb(100%,100%,100%);fill-opacity:1;" d="M 18.429688 20.175781 C 17.710938 19.742188 16.863281 19.496094 15.953125 19.496094 C 15.828125 19.496094 15.703125 19.5 15.578125 19.507812 L 15.273438 20.457031 L 17.011719 21.386719 L 18.21875 21.386719 L 18.429688 20.175781 "/>
<path style=" stroke:none;fill-rule:nonzero;fill:rgb(100%,100%,100%);fill-opacity:1;" d="M 20.503906 22.890625 C 20.261719 21.996094 19.742188 21.207031 19.046875 20.617188 L 18.863281 21.65625 L 19.636719 22.785156 L 20.503906 22.890625 "/>
<path style=" stroke:none;fill-rule:nonzero;fill:rgb(100%,100%,100%);fill-opacity:1;" d="M 16.640625 28.589844 L 16.683594 27.804688 L 14.480469 26.5 L 13.765625 26.632812 L 13.425781 27.925781 C 14.15625 28.378906 15.023438 28.640625 15.953125 28.640625 C 16.1875 28.640625 16.417969 28.621094 16.640625 28.589844 "/>
<path style=" stroke:none;fill-rule:nonzero;fill:rgb(100%,100%,100%);fill-opacity:1;" d="M 8.785156 8.027344 C 8.945312 8.027344 9.070312 7.90625 9.070312 7.75 C 9.070312 7.597656 8.945312 7.472656 8.785156 7.472656 C 8.628906 7.472656 8.5 7.597656 8.5 7.75 C 8.5 7.90625 8.628906 8.027344 8.785156 8.027344 "/>
<path style=" stroke:none;fill-rule:nonzero;fill:rgb(100%,100%,100%);fill-opacity:1;" d="M 8.160156 6.25 C 8.003906 6.25 7.875 6.375 7.875 6.527344 C 7.875 6.671875 7.988281 6.792969 8.136719 6.804688 C 8.183594 6.652344 8.292969 6.527344 8.4375 6.457031 C 8.40625 6.335938 8.292969 6.25 8.160156 6.25 "/>
<path style=" stroke:none;fill-rule:nonzero;fill:rgb(100%,100%,100%);fill-opacity:1;" d="M 13.660156 8.136719 C 13.660156 8.289062 13.789062 8.414062 13.949219 8.414062 C 14.105469 8.414062 14.234375 8.289062 14.234375 8.136719 C 14.234375 7.984375 14.105469 7.859375 13.949219 7.859375 C 13.789062 7.859375 13.660156 7.984375 13.660156 8.136719 "/>
<path style=" stroke:none;fill-rule:nonzero;fill:rgb(100%,100%,100%);fill-opacity:1;" d="M 7.566406 12.160156 L 9.363281 12.160156 C 9.347656 11.546875 9.203125 10.097656 8.433594 10.097656 C 7.683594 10.097656 7.578125 11.359375 7.566406 12.160156 "/>
<path style=" stroke:none;fill-rule:nonzero;fill:rgb(100%,100%,100%);fill-opacity:1;" d="M 13.804688 6.855469 C 13.644531 6.855469 13.519531 6.980469 13.519531 7.132812 C 13.519531 7.285156 13.644531 7.410156 13.804688 7.410156 C 13.960938 7.410156 14.089844 7.285156 14.089844 7.132812 C 14.089844 6.980469 13.960938 6.855469 13.804688 6.855469 "/>
<path style=" stroke:none;fill-rule:nonzero;fill:rgb(100%,100%,100%);fill-opacity:1;" d="M 7.625 6.988281 C 7.625 6.832031 7.496094 6.707031 7.339844 6.707031 C 7.183594 6.707031 7.054688 6.832031 7.054688 6.988281 C 7.054688 7.140625 7.183594 7.265625 7.339844 7.265625 C 7.496094 7.265625 7.625 7.140625 7.625 6.988281 "/>
<path style=" stroke:none;fill-rule:nonzero;fill:rgb(100%,100%,100%);fill-opacity:1;" d="M 9.363281 12.328125 L 7.5625 12.328125 C 7.5625 12.441406 7.5625 12.542969 7.5625 12.625 C 7.5625 13.007812 7.578125 13.242188 7.59375 13.382812 L 9.363281 13.382812 L 9.363281 12.328125 "/>
<path style=" stroke:none;fill-rule:nonzero;fill:rgb(100%,100%,100%);fill-opacity:1;" d="M 6.910156 7.992188 C 6.910156 8.144531 7.039062 8.269531 7.195312 8.269531 C 7.355469 8.269531 7.480469 8.144531 7.480469 7.992188 C 7.480469 7.835938 7.355469 7.710938 7.195312 7.710938 C 7.039062 7.710938 6.910156 7.835938 6.910156 7.992188 "/>
<path style=" stroke:none;fill-rule:nonzero;fill:rgb(100%,100%,100%);fill-opacity:1;" d="M 8.042969 8.570312 C 8.199219 8.570312 8.328125 8.445312 8.328125 8.292969 C 8.328125 8.136719 8.199219 8.011719 8.042969 8.011719 C 7.882812 8.011719 7.753906 8.136719 7.753906 8.292969 C 7.753906 8.445312 7.882812 8.570312 8.042969 8.570312 "/>
<path style=" stroke:none;fill-rule:nonzero;fill:rgb(100%,100%,100%);fill-opacity:1;" d="M 7.746094 7.796875 C 7.835938 7.75 7.933594 7.722656 8.042969 7.722656 C 8.09375 7.722656 8.148438 7.726562 8.199219 7.742188 C 8.199219 7.613281 8.246094 7.496094 8.324219 7.402344 C 8.226562 7.324219 8.15625 7.214844 8.128906 7.09375 C 8.054688 7.089844 7.984375 7.074219 7.921875 7.046875 C 7.898438 7.269531 7.742188 7.453125 7.535156 7.523438 C 7.628906 7.59375 7.707031 7.6875 7.746094 7.796875 "/>
<path style=" stroke:none;fill-rule:nonzero;fill:rgb(100%,100%,100%);fill-opacity:1;" d="M 8.699219 7.242188 C 8.855469 7.242188 8.984375 7.117188 8.984375 6.964844 C 8.984375 6.808594 8.855469 6.6875 8.699219 6.6875 C 8.539062 6.6875 8.410156 6.808594 8.410156 6.964844 C 8.410156 7.117188 8.539062 7.242188 8.699219 7.242188 "/>
<path style=" stroke:none;fill-rule:nonzero;fill:rgb(100%,100%,100%);fill-opacity:1;" d="M 13.21875 7.191406 C 13.15625 7.21875 13.089844 7.234375 13.015625 7.238281 C 12.988281 7.363281 12.917969 7.46875 12.820312 7.546875 C 12.898438 7.640625 12.941406 7.757812 12.945312 7.886719 C 12.996094 7.875 13.046875 7.867188 13.101562 7.867188 C 13.207031 7.867188 13.308594 7.894531 13.394531 7.945312 C 13.4375 7.832031 13.511719 7.738281 13.609375 7.671875 C 13.398438 7.601562 13.242188 7.414062 13.21875 7.191406 "/>
<path style=" stroke:none;fill-rule:nonzero;fill:rgb(100%,100%,100%);fill-opacity:1;" d="M 11.820312 13.382812 L 13.753906 13.382812 L 13.761719 12.636719 C 13.761719 12.558594 13.761719 12.449219 13.761719 12.328125 L 11.84375 12.328125 L 11.820312 13.382812 "/>
<path style=" stroke:none;fill-rule:nonzero;fill:rgb(100%,100%,100%);fill-opacity:1;" d="M 10.574219 8.941406 C 9.84375 8.941406 9.652344 10.265625 9.628906 10.832031 L 9.617188 11.257812 C 9.675781 11.589844 9.699219 11.914062 9.703125 12.160156 L 11.503906 12.160156 C 11.507812 12.007812 11.519531 11.835938 11.542969 11.65625 C 11.503906 10.839844 11.308594 8.941406 10.574219 8.941406 "/>
<path style=" stroke:none;fill-rule:nonzero;fill:rgb(100%,100%,100%);fill-opacity:1;" d="M 11.5 12.328125 L 9.703125 12.328125 L 9.703125 13.382812 L 11.476562 13.382812 L 11.5 12.328125 "/>
<path style=" stroke:none;fill-rule:nonzero;fill:rgb(100%,100%,100%);fill-opacity:1;" d="M 10.457031 3.65625 C 9.140625 5.058594 6.503906 5.234375 4.589844 5.304688 C 4.589844 5.304688 6.007812 8.511719 6.007812 11.074219 C 6.007812 11.882812 5.890625 12.648438 5.699219 13.382812 L 7.25 13.382812 C 7.238281 13.226562 7.222656 12.984375 7.222656 12.625 C 7.222656 11.792969 7.179688 9.765625 8.433594 9.765625 C 8.480469 9.765625 8.527344 9.769531 8.570312 9.777344 L 8.46875 9.566406 L 7.597656 9.417969 L 7.621094 9.105469 L 8.441406 9.046875 L 8.375 8.761719 C 8.277344 8.824219 8.164062 8.859375 8.042969 8.859375 C 7.789062 8.859375 7.570312 8.703125 7.488281 8.484375 C 7.402344 8.53125 7.304688 8.558594 7.195312 8.558594 C 6.871094 8.558594 6.609375 8.304688 6.609375 7.992188 C 6.609375 7.742188 6.773438 7.53125 7.003906 7.453125 C 6.851562 7.347656 6.753906 7.179688 6.753906 6.988281 C 6.753906 6.671875 7.015625 6.417969 7.339844 6.417969 C 7.425781 6.417969 7.503906 6.433594 7.578125 6.464844 C 7.609375 6.179688 7.855469 5.957031 8.160156 5.957031 C 8.4375 5.957031 8.671875 6.144531 8.730469 6.394531 C 9.039062 6.414062 9.285156 6.660156 9.285156 6.964844 C 9.285156 7.097656 9.238281 7.21875 9.160156 7.3125 C 9.289062 7.417969 9.371094 7.574219 9.371094 7.75 C 9.371094 8.019531 9.183594 8.242188 8.929688 8.304688 L 9.320312 8.789062 L 9.5625 8.226562 L 9.878906 8.273438 L 9.789062 9.148438 C 9.96875 8.902344 10.222656 8.609375 10.574219 8.609375 C 10.914062 8.609375 11.167969 8.941406 11.351562 9.261719 L 11.265625 8.417969 L 11.582031 8.375 L 11.824219 8.9375 L 12.214844 8.449219 C 11.960938 8.386719 11.773438 8.164062 11.773438 7.898438 C 11.773438 7.722656 11.855469 7.5625 11.984375 7.460938 C 11.90625 7.363281 11.859375 7.242188 11.859375 7.109375 C 11.859375 6.808594 12.101562 6.558594 12.414062 6.542969 C 12.472656 6.289062 12.707031 6.101562 12.984375 6.101562 C 13.285156 6.101562 13.535156 6.324219 13.566406 6.613281 C 13.640625 6.582031 13.71875 6.5625 13.804688 6.5625 C 14.128906 6.5625 14.390625 6.820312 14.390625 7.132812 C 14.390625 7.324219 14.292969 7.496094 14.140625 7.597656 C 14.371094 7.675781 14.535156 7.886719 14.535156 8.136719 C 14.535156 8.453125 14.273438 8.707031 13.949219 8.707031 C 13.839844 8.707031 13.738281 8.675781 13.65625 8.628906 C 13.574219 8.847656 13.355469 9.007812 13.101562 9.007812 C 12.980469 9.007812 12.863281 8.96875 12.769531 8.90625 L 12.703125 9.191406 L 13.523438 9.25 L 13.546875 9.566406 L 12.671875 9.710938 L 12.582031 9.90625 C 12.6875 9.871094 12.800781 9.855469 12.921875 9.855469 C 14.136719 9.855469 14.105469 11.832031 14.105469 12.636719 L 14.101562 13.382812 L 15.046875 13.382812 C 15.046875 13.382812 15.046875 7.28125 15.046875 5.46875 C 13.332031 5.320312 11.789062 4.808594 10.457031 3.65625 "/>
<path style=" stroke:none;fill-rule:nonzero;fill:rgb(100%,100%,100%);fill-opacity:1;" d="M 13.757812 12.160156 C 13.742188 11.382812 13.632812 10.1875 12.921875 10.1875 C 12.066406 10.1875 11.859375 11.507812 11.847656 12.160156 L 13.757812 12.160156 "/>
<path style=" stroke:none;fill-rule:nonzero;fill:rgb(100%,100%,100%);fill-opacity:1;" d="M 12.816406 8.4375 C 12.816406 8.589844 12.945312 8.714844 13.101562 8.714844 C 13.261719 8.714844 13.386719 8.589844 13.386719 8.4375 C 13.386719 8.285156 13.261719 8.160156 13.101562 8.160156 C 12.945312 8.160156 12.816406 8.285156 12.816406 8.4375 "/>
<path style=" stroke:none;fill-rule:nonzero;fill:rgb(100%,100%,100%);fill-opacity:1;" d="M 12.984375 6.394531 C 12.851562 6.394531 12.738281 6.480469 12.707031 6.601562 C 12.851562 6.671875 12.960938 6.796875 13.007812 6.949219 C 13.152344 6.9375 13.269531 6.816406 13.269531 6.671875 C 13.269531 6.519531 13.140625 6.394531 12.984375 6.394531 "/>
<path style=" stroke:none;fill-rule:nonzero;fill:rgb(100%,100%,100%);fill-opacity:1;" d="M 12.070312 7.898438 C 12.070312 8.050781 12.199219 8.175781 12.359375 8.175781 C 12.515625 8.175781 12.644531 8.050781 12.644531 7.898438 C 12.644531 7.742188 12.515625 7.621094 12.359375 7.621094 C 12.199219 7.621094 12.070312 7.742188 12.070312 7.898438 "/>
<path style=" stroke:none;fill-rule:nonzero;fill:rgb(100%,100%,100%);fill-opacity:1;" d="M 12.445312 6.832031 C 12.285156 6.832031 12.15625 6.957031 12.15625 7.109375 C 12.15625 7.199219 12.203125 7.28125 12.273438 7.332031 L 12.359375 7.328125 C 12.429688 7.328125 12.5 7.339844 12.5625 7.363281 C 12.664062 7.320312 12.730469 7.222656 12.730469 7.109375 C 12.730469 6.957031 12.601562 6.832031 12.445312 6.832031 "/>
<path style=" stroke:none;fill-rule:nonzero;fill:rgb(20%,71.372549%,35.686275%);fill-opacity:1;" d="M 26.53125 13.441406 C 26.328125 12.6875 26.207031 11.902344 26.207031 11.074219 C 26.207031 8.511719 27.621094 5.304688 27.621094 5.304688 C 26.773438 5.273438 25.777344 5.222656 24.824219 5.050781 L 24.824219 13.441406 L 26.53125 13.441406 "/>
<path style=" stroke:none;fill-rule:nonzero;fill:rgb(20%,71.372549%,35.686275%);fill-opacity:1;" d="M 29.671875 22.617188 C 29.671875 21.324219 29.316406 20.125 28.828125 18.945312 L 25.773438 18.945312 L 25.773438 27.492188 C 28.042969 26.570312 29.671875 25.171875 29.671875 22.617188 "/>
<path style=" stroke:none;fill-rule:nonzero;fill:rgb(20%,71.372549%,35.686275%);fill-opacity:1;" d="M 26.84375 14.4375 L 5.371094 14.4375 C 4.9375 15.652344 4.351562 16.800781 3.820312 17.949219 L 28.390625 17.949219 C 27.863281 16.800781 27.273438 15.652344 26.84375 14.4375 "/>
<path style=" stroke:none;fill-rule:nonzero;fill:rgb(20%,71.372549%,35.686275%);fill-opacity:1;" d="M 3.382812 18.945312 C 2.898438 20.125 2.539062 21.324219 2.539062 22.617188 C 2.539062 25 3.957031 26.375 5.988281 27.296875 L 5.988281 18.945312 L 3.382812 18.945312 "/>
<path style=" stroke:none;fill-rule:nonzero;fill:rgb(20%,71.372549%,35.686275%);fill-opacity:1;" d="M 22.625 13.441406 L 22.625 4.324219 C 22.296875 4.140625 22.003906 3.917969 21.757812 3.65625 C 21.492188 3.886719 21.214844 4.089844 20.933594 4.269531 L 20.933594 13.441406 L 22.625 13.441406 "/>
<path style=" stroke:none;fill-rule:nonzero;fill:rgb(20%,71.372549%,35.686275%);fill-opacity:1;" d="M 18.816406 13.441406 L 18.816406 5.191406 C 18.273438 5.335938 17.710938 5.425781 17.128906 5.472656 L 17.128906 13.441406 L 18.816406 13.441406 "/>
<path style=" stroke:none;fill-rule:nonzero;fill:rgb(20%,71.372549%,35.686275%);fill-opacity:1;" d="M 10.28125 18.945312 L 10.28125 28.617188 C 11.425781 28.878906 12.597656 29.117188 13.71875 29.382812 L 13.917969 28.542969 C 12.148438 27.785156 10.914062 26.066406 10.914062 24.066406 C 10.914062 21.363281 13.171875 19.175781 15.953125 19.175781 C 18.734375 19.175781 20.992188 21.363281 20.992188 24.066406 C 20.992188 26.207031 19.578125 28.023438 17.609375 28.6875 L 17.871094 29.535156 C 19.023438 29.246094 20.246094 28.992188 21.457031 28.726562 L 21.457031 18.945312 L 10.28125 18.945312 "/>
<path style=" stroke:none;fill-rule:nonzero;fill:rgb(100%,100%,100%);fill-opacity:1;" d="M 8.28125 15.078125 L 7.75 15.078125 L 7.75 16.601562 L 7.550781 16.601562 C 7.445312 16.601562 7.160156 16.601562 7.160156 16.226562 C 7.160156 15.8125 7.425781 15.328125 7.542969 15.078125 L 6.96875 15.078125 C 6.78125 15.441406 6.617188 15.824219 6.617188 16.234375 C 6.617188 16.691406 6.828125 17.042969 7.421875 17.042969 L 8.28125 17.042969 Z M 8.585938 16.601562 L 9.03125 16.601562 L 9.03125 17.042969 L 8.585938 17.042969 Z M 10.359375 15.078125 L 9.789062 15.078125 C 9.347656 15.078125 9.246094 15.355469 9.246094 15.53125 C 9.246094 15.726562 9.367188 15.867188 9.492188 16.003906 L 9.851562 16.398438 C 9.890625 16.4375 9.9375 16.480469 9.9375 16.535156 C 9.9375 16.613281 9.792969 16.601562 9.742188 16.601562 L 9.261719 16.601562 L 9.386719 17.042969 L 10.003906 17.042969 C 10.449219 17.042969 10.546875 16.765625 10.546875 16.589844 C 10.546875 16.394531 10.425781 16.253906 10.296875 16.117188 L 9.929688 15.722656 C 9.890625 15.683594 9.839844 15.640625 9.839844 15.585938 C 9.839844 15.507812 9.984375 15.519531 10.039062 15.519531 L 10.484375 15.519531 Z M 10.714844 16.601562 L 11.164062 16.601562 L 11.164062 17.042969 L 10.714844 17.042969 Z M 13.359375 15.078125 L 12.789062 15.078125 C 12.34375 15.078125 12.242188 15.355469 12.242188 15.53125 C 12.242188 15.726562 12.367188 15.867188 12.492188 16.003906 L 12.851562 16.398438 C 12.886719 16.4375 12.9375 16.480469 12.9375 16.535156 C 12.9375 16.613281 12.792969 16.601562 12.742188 16.601562 L 12.261719 16.601562 L 12.382812 17.042969 L 13 17.042969 C 13.445312 17.042969 13.546875 16.765625 13.546875 16.589844 C 13.546875 16.394531 13.421875 16.253906 13.296875 16.117188 L 12.925781 15.722656 C 12.890625 15.683594 12.839844 15.640625 12.839844 15.585938 C 12.839844 15.507812 12.984375 15.519531 13.035156 15.519531 L 13.484375 15.519531 Z M 15.28125 15.660156 L 14.753906 15.660156 L 14.753906 15.976562 L 14.222656 15.976562 C 14.292969 15.808594 14.386719 15.519531 14.957031 15.519531 L 15.371094 15.519531 L 15.25 15.078125 L 14.988281 15.078125 C 14.605469 15.078125 14.277344 15.121094 13.992188 15.398438 C 13.738281 15.644531 13.628906 16 13.628906 16.34375 C 13.628906 16.691406 13.75 17.035156 13.945312 17.320312 L 14.375 17.042969 C 14.257812 16.855469 14.175781 16.640625 14.171875 16.421875 L 14.753906 16.421875 L 14.753906 17.042969 L 15.28125 17.042969 Z M 16.632812 15.078125 L 16.058594 15.078125 C 15.617188 15.078125 15.515625 15.355469 15.515625 15.53125 C 15.515625 15.726562 15.640625 15.867188 15.765625 16.003906 L 16.125 16.398438 C 16.160156 16.4375 16.210938 16.480469 16.210938 16.535156 C 16.210938 16.613281 16.066406 16.601562 16.015625 16.601562 L 15.53125 16.601562 L 15.65625 17.042969 L 16.273438 17.042969 C 16.71875 17.042969 16.820312 16.765625 16.820312 16.589844 C 16.820312 16.394531 16.695312 16.253906 16.570312 16.117188 L 16.199219 15.722656 C 16.164062 15.683594 16.113281 15.640625 16.113281 15.585938 C 16.113281 15.507812 16.257812 15.519531 16.308594 15.519531 L 16.753906 15.519531 Z M 18.019531 15.078125 L 17.449219 15.078125 C 17.003906 15.078125 16.902344 15.355469 16.902344 15.53125 C 16.902344 15.726562 17.027344 15.867188 17.152344 16.003906 L 17.511719 16.398438 C 17.546875 16.4375 17.597656 16.480469 17.597656 16.535156 C 17.597656 16.613281 17.453125 16.601562 17.402344 16.601562 L 16.921875 16.601562 L 17.042969 17.042969 L 17.664062 17.042969 C 18.105469 17.042969 18.207031 16.765625 18.207031 16.589844 C 18.207031 16.394531 18.085938 16.253906 17.957031 16.117188 L 17.589844 15.722656 C 17.550781 15.683594 17.5 15.640625 17.5 15.585938 C 17.5 15.507812 17.644531 15.519531 17.695312 15.519531 L 18.144531 15.519531 Z M 19.957031 15.078125 L 19.425781 15.078125 L 19.425781 16.601562 L 19.226562 16.601562 C 19.121094 16.601562 18.835938 16.601562 18.835938 16.226562 C 18.835938 15.8125 19.101562 15.328125 19.21875 15.078125 L 18.644531 15.078125 C 18.457031 15.441406 18.292969 15.824219 18.292969 16.234375 C 18.292969 16.691406 18.503906 17.042969 19.097656 17.042969 L 19.957031 17.042969 Z M 21.101562 17.085938 C 21.726562 17.085938 22.027344 16.335938 22.027344 15.816406 C 22.027344 15.390625 21.816406 15.03125 21.101562 15.03125 C 20.390625 15.03125 20.179688 15.390625 20.179688 15.816406 C 20.179688 16.335938 20.480469 17.085938 21.101562 17.085938 Z M 21.101562 16.621094 C 20.902344 16.621094 20.734375 16.195312 20.734375 15.839844 C 20.734375 15.578125 20.84375 15.492188 21.101562 15.492188 C 21.363281 15.492188 21.472656 15.578125 21.472656 15.839844 C 21.472656 16.195312 21.304688 16.621094 21.101562 16.621094 Z M 22.800781 15.078125 L 22.269531 15.078125 L 22.269531 17.042969 L 23.375 17.042969 L 23.496094 16.601562 L 22.800781 16.601562 Z M 24.425781 17.085938 C 25.050781 17.085938 25.347656 16.335938 25.347656 15.816406 C 25.347656 15.390625 25.136719 15.03125 24.425781 15.03125 C 23.714844 15.03125 23.503906 15.390625 23.503906 15.816406 C 23.503906 16.335938 23.800781 17.085938 24.425781 17.085938 Z M 24.425781 16.621094 C 24.226562 16.621094 24.058594 16.195312 24.058594 15.839844 C 24.058594 15.578125 24.164062 15.492188 24.425781 15.492188 C 24.6875 15.492188 24.796875 15.578125 24.796875 15.839844 C 24.796875 16.195312 24.628906 16.621094 24.425781 16.621094 "/>
</g>
</svg>
