<?xml version="1.0" encoding="UTF-8"?>
<svg xmlns="http://www.w3.org/2000/svg" xmlns:xlink="http://www.w3.org/1999/xlink" width="32px" height="32px" viewBox="0 0 32 41" version="1.1">
<g id="surface1">
<path style=" stroke:none;fill-rule:nonzero;fill:rgb(9.019608%,9.803922%,11.372549%);fill-opacity:1;" d="M 31.445312 8.671875 L 31.335938 8.085938 L 30.742188 7.960938 C 30.707031 7.953125 26.789062 7.144531 23.304688 5.21875 C 18.335938 2.464844 16.667969 0.730469 16.652344 0.714844 L 15.988281 0 L 15.324219 0.710938 C 15.304688 0.726562 13.628906 2.472656 8.671875 5.21875 C 5.191406 7.140625 1.273438 7.953125 1.230469 7.960938 L 0.636719 8.085938 L 0.527344 8.671875 C -0.164062 12.351562 -0.175781 16.050781 0.5 19.683594 L 0.800781 21.132812 L 0.882812 21.464844 C 1.828125 25.277344 3.503906 28.839844 5.867188 32.054688 C 8.421875 35.539062 11.671875 38.460938 15.523438 40.738281 L 15.988281 41.007812 L 16.449219 40.738281 C 20.300781 38.460938 23.550781 35.539062 26.113281 32.054688 C 28.46875 28.839844 30.140625 25.28125 31.09375 21.464844 L 31.472656 19.683594 C 32.148438 16.050781 32.136719 12.351562 31.445312 8.671875 Z M 31.445312 8.671875 "/>
<path style=" stroke:none;fill-rule:nonzero;fill:rgb(98.431373%,72.941176%,0%);fill-opacity:1;" d="M 30.558594 8.835938 C 30.558594 8.835938 26.503906 8.003906 22.863281 5.992188 C 17.628906 3.09375 15.988281 1.3125 15.988281 1.3125 C 15.988281 1.3125 14.34375 3.09375 9.109375 5.992188 C 5.46875 8.003906 1.414062 8.835938 1.414062 8.835938 C 0.664062 12.808594 0.75 16.785156 1.601562 20.570312 L 30.375 20.570312 C 31.21875 16.785156 31.304688 12.808594 30.558594 8.835938 Z M 30.558594 8.835938 "/>
<path style=" stroke:none;fill-rule:nonzero;fill:rgb(59.215686%,3.921569%,17.254902%);fill-opacity:1;" d="M 15.988281 39.96875 C 23.605469 35.46875 28.621094 28.425781 30.375 20.578125 L 1.601562 20.578125 C 3.351562 28.425781 8.367188 35.46875 15.988281 39.96875 Z M 15.988281 39.96875 "/>
<path style=" stroke:none;fill-rule:nonzero;fill:rgb(6.27451%,5.882353%,5.098039%);fill-opacity:1;" d="M 13.390625 34.519531 C 13.226562 34.519531 13.082031 34.515625 12.972656 34.515625 C 12.90625 34.515625 12.859375 34.511719 12.820312 34.511719 C 12.789062 34.511719 12.734375 34.511719 12.65625 34.515625 C 12.535156 34.519531 12.367188 34.519531 12.230469 34.519531 C 12.199219 34.519531 12.167969 34.515625 12.167969 34.484375 C 12.167969 34.460938 12.183594 34.445312 12.199219 34.445312 C 12.242188 34.445312 12.410156 34.433594 12.476562 34.417969 C 12.585938 34.398438 12.597656 34.347656 12.609375 34.246094 C 12.617188 34.113281 12.628906 33.832031 12.625 33.476562 L 12.617188 32.933594 L 12.617188 32.484375 C 12.617188 32.394531 12.613281 32.367188 12.570312 32.367188 C 12.519531 32.367188 12.363281 32.441406 12.257812 32.492188 C 12.226562 32.507812 12.195312 32.523438 12.179688 32.527344 C 12.171875 32.527344 12.167969 32.535156 12.160156 32.535156 C 12.152344 32.539062 12.140625 32.542969 12.128906 32.542969 C 12.117188 32.542969 12.097656 32.519531 12.097656 32.496094 C 12.097656 32.476562 12.117188 32.457031 12.128906 32.449219 C 12.132812 32.449219 12.15625 32.425781 12.199219 32.398438 C 12.367188 32.285156 12.824219 31.992188 12.921875 31.921875 C 12.949219 31.898438 12.984375 31.878906 13.011719 31.878906 C 13.042969 31.878906 13.058594 31.914062 13.058594 31.953125 C 13.058594 31.957031 13.039062 32.285156 13.039062 32.839844 L 13.039062 33.476562 C 13.039062 33.792969 13.039062 34.09375 13.046875 34.246094 C 13.058594 34.355469 13.074219 34.398438 13.179688 34.421875 C 13.234375 34.433594 13.378906 34.445312 13.40625 34.445312 C 13.425781 34.445312 13.445312 34.460938 13.445312 34.484375 C 13.445312 34.515625 13.429688 34.519531 13.390625 34.519531 Z M 13.390625 34.519531 "/>
<path style=" stroke:none;fill-rule:nonzero;fill:rgb(6.27451%,5.882353%,5.098039%);fill-opacity:1;" d="M 14.355469 34.589844 C 14.339844 34.589844 14.316406 34.570312 14.316406 34.546875 C 14.320312 34.519531 14.355469 34.492188 14.359375 34.488281 C 14.464844 34.421875 14.71875 34.246094 14.9375 33.917969 C 15.144531 33.605469 15.246094 33.265625 15.246094 32.90625 C 15.246094 32.476562 15.082031 32.039062 14.730469 32.039062 C 14.492188 32.039062 14.320312 32.253906 14.320312 32.542969 C 14.320312 33.078125 14.679688 33.183594 14.773438 33.183594 C 14.871094 33.183594 14.949219 33.167969 15.007812 33.140625 C 15.023438 33.136719 15.039062 33.125 15.050781 33.121094 C 15.0625 33.117188 15.074219 33.109375 15.078125 33.109375 C 15.09375 33.109375 15.109375 33.121094 15.109375 33.140625 C 15.117188 33.152344 15.105469 33.175781 15.09375 33.183594 C 15 33.289062 14.839844 33.339844 14.644531 33.339844 C 14.132812 33.339844 13.941406 32.949219 13.941406 32.679688 C 13.941406 32.453125 14.027344 32.25 14.179688 32.101562 C 14.339844 31.957031 14.5625 31.878906 14.816406 31.878906 C 15.082031 31.878906 15.304688 31.96875 15.464844 32.144531 C 15.609375 32.3125 15.6875 32.542969 15.6875 32.804688 L 15.6875 32.808594 C 15.6875 33.230469 15.53125 33.621094 15.214844 33.972656 C 14.898438 34.328125 14.527344 34.519531 14.425781 34.570312 C 14.402344 34.585938 14.382812 34.589844 14.355469 34.589844 Z M 14.355469 34.589844 "/>
<path style=" stroke:none;fill-rule:nonzero;fill:rgb(6.27451%,5.882353%,5.098039%);fill-opacity:1;" d="M 17.375 34.511719 L 16.035156 34.511719 C 16.007812 34.511719 15.988281 34.484375 15.988281 34.457031 C 15.988281 34.433594 16.007812 34.402344 16.050781 34.363281 C 16.085938 34.335938 16.117188 34.304688 16.148438 34.277344 C 16.625 33.871094 17.214844 33.359375 17.214844 32.691406 C 17.214844 32.453125 17.15625 32.277344 17.046875 32.167969 C 16.933594 32.054688 16.804688 32.042969 16.75 32.042969 C 16.589844 32.042969 16.488281 32.082031 16.394531 32.167969 C 16.3125 32.25 16.246094 32.410156 16.246094 32.492188 C 16.246094 32.523438 16.242188 32.539062 16.230469 32.550781 C 16.226562 32.5625 16.214844 32.5625 16.199219 32.5625 C 16.183594 32.5625 16.167969 32.535156 16.160156 32.484375 C 16.160156 32.476562 16.160156 32.449219 16.15625 32.410156 C 16.148438 32.3125 16.144531 32.144531 16.144531 32.078125 C 16.144531 32.042969 16.148438 32.027344 16.183594 32 C 16.351562 31.914062 16.550781 31.871094 16.804688 31.871094 C 17.339844 31.871094 17.667969 32.144531 17.667969 32.605469 C 17.667969 33.265625 16.933594 33.847656 16.5 34.199219 L 16.492188 34.203125 C 16.488281 34.207031 16.480469 34.207031 16.480469 34.214844 C 16.480469 34.214844 16.488281 34.21875 16.492188 34.21875 L 16.726562 34.21875 C 16.867188 34.21875 17.199219 34.21875 17.316406 34.203125 C 17.527344 34.175781 17.652344 34.078125 17.699219 33.902344 C 17.710938 33.863281 17.71875 33.84375 17.746094 33.84375 C 17.777344 33.84375 17.777344 33.886719 17.777344 33.914062 C 17.777344 33.964844 17.710938 34.285156 17.679688 34.402344 C 17.652344 34.5 17.59375 34.511719 17.375 34.511719 Z M 17.375 34.511719 "/>
<path style=" stroke:none;fill-rule:nonzero;fill:rgb(6.27451%,5.882353%,5.098039%);fill-opacity:1;" d="M 18.550781 34.570312 C 18.511719 34.570312 18.496094 34.558594 18.496094 34.527344 C 18.496094 34.484375 18.5 34.433594 18.515625 34.386719 C 18.621094 34.03125 19.0625 33.03125 19.519531 32.257812 L 18.640625 32.257812 C 18.5625 32.257812 18.40625 32.269531 18.320312 32.324219 C 18.261719 32.363281 18.21875 32.476562 18.207031 32.527344 C 18.207031 32.5625 18.191406 32.578125 18.167969 32.578125 C 18.140625 32.578125 18.136719 32.554688 18.136719 32.519531 C 18.136719 32.4375 18.15625 32.25 18.167969 32.109375 C 18.175781 32.035156 18.183594 31.972656 18.183594 31.957031 C 18.183594 31.925781 18.203125 31.910156 18.230469 31.910156 C 18.234375 31.910156 18.238281 31.910156 18.246094 31.914062 C 18.28125 31.921875 18.390625 31.941406 18.691406 31.941406 L 19.785156 31.941406 C 19.84375 31.941406 19.871094 31.953125 19.871094 31.972656 C 19.871094 31.996094 19.859375 32.023438 19.851562 32.039062 C 19.566406 32.4375 19.027344 33.792969 18.980469 34.242188 C 18.972656 34.277344 18.972656 34.300781 18.980469 34.328125 L 18.980469 34.371094 C 18.980469 34.433594 18.695312 34.570312 18.550781 34.570312 Z M 18.550781 34.570312 "/>
<path style=" stroke:none;fill-rule:nonzero;fill:rgb(73.72549%,72.54902%,71.764706%);fill-opacity:1;" d="M 13.390625 34.398438 C 13.226562 34.398438 13.082031 34.390625 12.972656 34.390625 C 12.90625 34.390625 12.859375 34.386719 12.820312 34.386719 C 12.789062 34.386719 12.734375 34.386719 12.65625 34.390625 C 12.535156 34.398438 12.367188 34.398438 12.230469 34.398438 C 12.199219 34.398438 12.167969 34.398438 12.167969 34.363281 C 12.167969 34.335938 12.183594 34.320312 12.199219 34.320312 C 12.242188 34.320312 12.410156 34.3125 12.476562 34.292969 C 12.585938 34.273438 12.597656 34.222656 12.609375 34.117188 C 12.617188 33.976562 12.628906 33.6875 12.625 33.351562 L 12.617188 32.808594 L 12.617188 32.363281 C 12.617188 32.269531 12.613281 32.242188 12.570312 32.242188 C 12.519531 32.242188 12.363281 32.320312 12.257812 32.367188 C 12.226562 32.382812 12.195312 32.398438 12.179688 32.40625 C 12.171875 32.40625 12.167969 32.410156 12.160156 32.410156 C 12.152344 32.414062 12.140625 32.421875 12.128906 32.421875 C 12.117188 32.421875 12.097656 32.40625 12.097656 32.378906 C 12.097656 32.355469 12.105469 32.339844 12.128906 32.324219 C 12.132812 32.324219 12.15625 32.300781 12.199219 32.277344 C 12.367188 32.164062 12.824219 31.867188 12.921875 31.796875 C 12.949219 31.773438 12.984375 31.753906 13.011719 31.753906 C 13.042969 31.753906 13.058594 31.792969 13.058594 31.828125 C 13.058594 31.835938 13.039062 32.164062 13.039062 32.71875 L 13.039062 33.351562 C 13.039062 33.671875 13.039062 33.972656 13.046875 34.117188 C 13.058594 34.230469 13.074219 34.277344 13.179688 34.300781 C 13.234375 34.3125 13.378906 34.320312 13.40625 34.320312 C 13.425781 34.320312 13.445312 34.332031 13.445312 34.363281 C 13.445312 34.398438 13.425781 34.398438 13.390625 34.398438 Z M 13.390625 34.398438 "/>
<path style=" stroke:none;fill-rule:nonzero;fill:rgb(73.72549%,72.54902%,71.764706%);fill-opacity:1;" d="M 14.355469 34.472656 C 14.339844 34.472656 14.316406 34.449219 14.316406 34.429688 C 14.316406 34.40625 14.339844 34.386719 14.355469 34.375 L 14.359375 34.371094 C 14.464844 34.3125 14.71875 34.132812 14.9375 33.800781 C 15.144531 33.488281 15.246094 33.148438 15.246094 32.785156 C 15.246094 32.355469 15.082031 31.921875 14.730469 31.921875 C 14.492188 31.921875 14.320312 32.136719 14.320312 32.425781 C 14.320312 32.960938 14.679688 33.066406 14.773438 33.066406 C 14.886719 33.066406 14.957031 33.046875 15.007812 33.03125 C 15.019531 33.023438 15.023438 33.019531 15.035156 33.011719 C 15.054688 32.996094 15.066406 32.984375 15.078125 32.984375 C 15.101562 32.984375 15.109375 33.007812 15.109375 33.023438 C 15.117188 33.035156 15.105469 33.054688 15.09375 33.066406 C 15 33.167969 14.839844 33.222656 14.644531 33.222656 C 14.132812 33.222656 13.941406 32.832031 13.941406 32.5625 C 13.941406 32.335938 14.027344 32.128906 14.179688 31.984375 C 14.339844 31.839844 14.5625 31.757812 14.816406 31.757812 C 15.082031 31.757812 15.304688 31.851562 15.464844 32.027344 C 15.609375 32.195312 15.6875 32.425781 15.6875 32.691406 L 15.6875 32.695312 C 15.6875 33.117188 15.53125 33.507812 15.214844 33.859375 C 14.898438 34.214844 14.527344 34.40625 14.425781 34.457031 C 14.402344 34.460938 14.386719 34.472656 14.355469 34.472656 Z M 14.355469 34.472656 "/>
<path style=" stroke:none;fill-rule:nonzero;fill:rgb(73.72549%,72.54902%,71.764706%);fill-opacity:1;" d="M 17.375 34.390625 L 16.035156 34.390625 C 16.007812 34.390625 15.988281 34.363281 15.988281 34.335938 C 15.988281 34.316406 16.007812 34.285156 16.050781 34.246094 C 16.089844 34.214844 16.128906 34.175781 16.171875 34.144531 C 16.640625 33.738281 17.214844 33.234375 17.214844 32.570312 C 17.214844 32.335938 17.15625 32.15625 17.046875 32.050781 C 16.933594 31.9375 16.804688 31.925781 16.75 31.925781 C 16.589844 31.925781 16.488281 31.964844 16.394531 32.050781 C 16.3125 32.128906 16.246094 32.292969 16.246094 32.371094 C 16.246094 32.398438 16.242188 32.421875 16.238281 32.433594 C 16.230469 32.441406 16.214844 32.441406 16.203125 32.441406 C 16.1875 32.441406 16.171875 32.421875 16.167969 32.371094 L 16.167969 32.335938 C 16.160156 32.25 16.148438 32.042969 16.148438 31.957031 C 16.148438 31.929688 16.15625 31.914062 16.1875 31.886719 C 16.355469 31.800781 16.558594 31.757812 16.808594 31.757812 C 17.347656 31.757812 17.671875 32.035156 17.671875 32.492188 C 17.671875 33.152344 16.9375 33.734375 16.5 34.085938 L 16.492188 34.089844 L 16.480469 34.101562 C 16.480469 34.105469 16.488281 34.105469 16.492188 34.105469 L 16.726562 34.105469 C 16.796875 34.105469 17.195312 34.101562 17.316406 34.085938 C 17.527344 34.058594 17.652344 33.960938 17.699219 33.78125 C 17.707031 33.746094 17.722656 33.722656 17.746094 33.722656 C 17.777344 33.722656 17.777344 33.765625 17.777344 33.792969 C 17.777344 33.847656 17.710938 34.164062 17.679688 34.285156 C 17.652344 34.378906 17.59375 34.390625 17.375 34.390625 Z M 17.375 34.390625 "/>
<path style=" stroke:none;fill-rule:nonzero;fill:rgb(73.72549%,72.54902%,71.764706%);fill-opacity:1;" d="M 18.550781 34.445312 C 18.507812 34.445312 18.496094 34.441406 18.496094 34.402344 C 18.496094 34.359375 18.5 34.3125 18.515625 34.261719 C 18.570312 34.085938 18.714844 33.734375 18.882812 33.367188 C 19.089844 32.921875 19.3125 32.484375 19.523438 32.136719 L 18.648438 32.136719 C 18.566406 32.136719 18.414062 32.144531 18.328125 32.199219 C 18.265625 32.238281 18.222656 32.351562 18.210938 32.40625 C 18.210938 32.4375 18.195312 32.453125 18.175781 32.453125 C 18.148438 32.453125 18.140625 32.433594 18.140625 32.398438 C 18.140625 32.3125 18.164062 32.109375 18.179688 31.96875 C 18.183594 31.902344 18.191406 31.851562 18.191406 31.839844 C 18.191406 31.800781 18.207031 31.785156 18.234375 31.785156 C 18.238281 31.785156 18.246094 31.785156 18.25 31.792969 C 18.289062 31.796875 18.398438 31.816406 18.695312 31.816406 L 19.789062 31.816406 C 19.851562 31.816406 19.878906 31.828125 19.878906 31.851562 C 19.878906 31.871094 19.867188 31.898438 19.855469 31.914062 C 19.574219 32.324219 19.035156 33.679688 18.984375 34.117188 C 18.980469 34.15625 18.980469 34.175781 18.984375 34.203125 L 18.984375 34.246094 C 18.980469 34.3125 18.695312 34.445312 18.550781 34.445312 Z M 18.550781 34.445312 "/>
<path style=" stroke:none;fill-rule:nonzero;fill:rgb(6.666667%,5.882353%,5.098039%);fill-opacity:1;" d="M 6.5625 26.414062 C 6.5625 26.484375 6.574219 26.507812 6.617188 26.527344 C 6.753906 26.574219 6.949219 26.597656 7.105469 26.597656 C 7.363281 26.597656 7.445312 26.570312 7.5625 26.484375 C 7.753906 26.347656 7.945312 26.050781 7.945312 25.53125 C 7.945312 24.628906 7.339844 24.367188 6.960938 24.367188 C 6.796875 24.367188 6.683594 24.371094 6.617188 24.394531 C 6.574219 24.40625 6.5625 24.429688 6.5625 24.480469 Z M 5.804688 25.910156 C 5.804688 24.949219 5.804688 24.769531 5.796875 24.566406 C 5.785156 24.351562 5.730469 24.25 5.515625 24.199219 C 5.46875 24.1875 5.359375 24.183594 5.265625 24.183594 C 5.195312 24.183594 5.160156 24.171875 5.160156 24.125 C 5.160156 24.082031 5.203125 24.070312 5.300781 24.070312 C 5.636719 24.070312 6.046875 24.09375 6.179688 24.09375 C 6.398438 24.09375 6.890625 24.070312 7.085938 24.070312 C 7.492188 24.070312 7.921875 24.109375 8.265625 24.339844 C 8.449219 24.464844 8.707031 24.785156 8.707031 25.210938 C 8.707031 25.6875 8.503906 26.117188 7.855469 26.640625 C 8.429688 27.347656 8.875 27.914062 9.25 28.308594 C 9.609375 28.679688 9.875 28.722656 9.972656 28.742188 C 10.039062 28.753906 10.097656 28.761719 10.148438 28.761719 C 10.203125 28.761719 10.230469 28.78125 10.230469 28.808594 C 10.230469 28.863281 10.1875 28.875 10.105469 28.875 L 9.496094 28.875 C 9.136719 28.875 8.976562 28.847656 8.808594 28.753906 C 8.53125 28.609375 8.289062 28.308594 7.929688 27.816406 C 7.671875 27.46875 7.375 27.039062 7.292969 26.945312 C 7.257812 26.902344 7.222656 26.898438 7.175781 26.898438 L 6.617188 26.886719 C 6.585938 26.886719 6.566406 26.898438 6.566406 26.933594 L 6.566406 27.027344 C 6.566406 27.617188 6.566406 28.121094 6.59375 28.382812 C 6.617188 28.570312 6.65625 28.710938 6.851562 28.734375 C 6.941406 28.75 7.085938 28.761719 7.167969 28.761719 C 7.214844 28.761719 7.242188 28.78125 7.242188 28.808594 C 7.242188 28.855469 7.195312 28.875 7.113281 28.875 C 6.738281 28.875 6.261719 28.855469 6.171875 28.855469 C 6.046875 28.855469 5.636719 28.875 5.382812 28.875 C 5.300781 28.875 5.257812 28.855469 5.257812 28.808594 C 5.257812 28.78125 5.277344 28.761719 5.359375 28.761719 C 5.453125 28.761719 5.527344 28.75 5.589844 28.734375 C 5.71875 28.710938 5.75 28.570312 5.773438 28.382812 C 5.804688 28.121094 5.804688 27.617188 5.804688 27.03125 Z M 5.804688 25.910156 "/>
<path style=" stroke:none;fill-rule:nonzero;fill:rgb(6.666667%,5.882353%,5.098039%);fill-opacity:1;" d="M 14.304688 26.597656 C 14.304688 25.167969 13.476562 24.285156 12.429688 24.285156 C 11.683594 24.285156 10.84375 24.695312 10.84375 26.277344 C 10.84375 27.601562 11.585938 28.648438 12.816406 28.648438 C 13.265625 28.648438 14.3125 28.4375 14.304688 26.597656 Z M 9.957031 26.476562 C 9.957031 25.390625 10.679688 23.984375 12.613281 23.984375 C 14.214844 23.984375 15.207031 24.90625 15.207031 26.359375 C 15.207031 27.816406 14.179688 28.964844 12.546875 28.964844 C 10.699219 28.964844 9.957031 27.601562 9.957031 26.476562 Z M 9.957031 26.476562 "/>
<path style=" stroke:none;fill-rule:nonzero;fill:rgb(6.666667%,5.882353%,5.098039%);fill-opacity:1;" d="M 16.210938 24.152344 C 16.226562 24.039062 16.265625 23.984375 16.320312 23.984375 C 16.367188 23.984375 16.40625 24.011719 16.492188 24.179688 L 18.246094 27.714844 L 19.992188 24.136719 C 20.039062 24.03125 20.074219 23.984375 20.132812 23.984375 C 20.191406 23.984375 20.230469 24.042969 20.246094 24.179688 L 20.835938 28.070312 C 20.894531 28.46875 20.953125 28.65625 21.152344 28.710938 C 21.335938 28.769531 21.464844 28.777344 21.546875 28.777344 C 21.609375 28.777344 21.652344 28.78125 21.652344 28.820312 C 21.652344 28.875 21.574219 28.890625 21.484375 28.890625 C 21.324219 28.890625 20.4375 28.878906 20.183594 28.855469 C 20.03125 28.847656 19.992188 28.824219 19.992188 28.792969 C 19.992188 28.761719 20.019531 28.738281 20.0625 28.71875 C 20.101562 28.707031 20.121094 28.625 20.09375 28.449219 L 19.707031 25.679688 L 19.679688 25.679688 L 18.28125 28.519531 C 18.136719 28.8125 18.101562 28.875 18.042969 28.875 C 17.988281 28.875 17.925781 28.742188 17.820312 28.554688 C 17.667969 28.265625 17.164062 27.289062 17.082031 27.113281 C 17.027344 26.976562 16.640625 26.230469 16.417969 25.75 L 16.390625 25.75 L 16.058594 28.226562 C 16.046875 28.34375 16.042969 28.425781 16.042969 28.527344 C 16.042969 28.648438 16.121094 28.707031 16.230469 28.734375 C 16.351562 28.761719 16.4375 28.765625 16.503906 28.765625 C 16.550781 28.765625 16.601562 28.777344 16.601562 28.808594 C 16.601562 28.867188 16.542969 28.878906 16.445312 28.878906 C 16.175781 28.878906 15.882812 28.855469 15.769531 28.855469 C 15.648438 28.855469 15.339844 28.878906 15.132812 28.878906 C 15.074219 28.878906 15.019531 28.867188 15.019531 28.808594 C 15.019531 28.777344 15.054688 28.765625 15.121094 28.765625 C 15.171875 28.765625 15.21875 28.765625 15.3125 28.742188 C 15.492188 28.707031 15.546875 28.457031 15.578125 28.242188 Z M 16.210938 24.152344 "/>
<path style=" stroke:none;fill-rule:nonzero;fill:rgb(6.666667%,5.882353%,5.098039%);fill-opacity:1;" d="M 24.5625 26.933594 C 24.59375 26.933594 24.601562 26.917969 24.59375 26.898438 L 24.019531 25.335938 C 24.011719 25.308594 24.007812 25.277344 23.984375 25.277344 C 23.964844 25.277344 23.953125 25.308594 23.949219 25.335938 L 23.359375 26.890625 C 23.355469 26.917969 23.355469 26.933594 23.382812 26.933594 Z M 23.25 27.253906 C 23.21875 27.253906 23.203125 27.269531 23.191406 27.304688 L 22.84375 28.179688 C 22.777344 28.335938 22.746094 28.484375 22.746094 28.566406 C 22.746094 28.679688 22.804688 28.761719 23 28.761719 L 23.097656 28.761719 C 23.175781 28.761719 23.195312 28.777344 23.195312 28.8125 C 23.195312 28.863281 23.160156 28.875 23.085938 28.875 C 22.882812 28.875 22.609375 28.855469 22.40625 28.855469 C 22.335938 28.855469 21.984375 28.875 21.644531 28.875 C 21.5625 28.875 21.527344 28.863281 21.527344 28.8125 C 21.527344 28.777344 21.554688 28.761719 21.601562 28.761719 C 21.664062 28.761719 21.75 28.753906 21.804688 28.75 C 22.097656 28.710938 22.21875 28.496094 22.347656 28.179688 L 23.957031 24.230469 C 24.035156 24.050781 24.078125 23.984375 24.136719 23.984375 C 24.199219 23.984375 24.242188 24.039062 24.300781 24.183594 C 24.460938 24.535156 25.480469 27.074219 25.894531 28.042969 C 26.140625 28.613281 26.324219 28.699219 26.460938 28.734375 C 26.558594 28.753906 26.652344 28.761719 26.734375 28.761719 C 26.78125 28.761719 26.816406 28.765625 26.816406 28.8125 C 26.816406 28.863281 26.753906 28.875 26.519531 28.875 C 26.289062 28.875 25.820312 28.875 25.308594 28.863281 C 25.1875 28.855469 25.113281 28.855469 25.113281 28.8125 C 25.113281 28.777344 25.132812 28.761719 25.199219 28.753906 C 25.246094 28.742188 25.292969 28.683594 25.257812 28.609375 L 24.746094 27.300781 C 24.730469 27.269531 24.714844 27.253906 24.683594 27.253906 Z M 23.25 27.253906 "/>
<path style=" stroke:none;fill-rule:nonzero;fill:rgb(98.431373%,72.941176%,0%);fill-opacity:1;" d="M 6.5625 26.273438 C 6.5625 26.347656 6.574219 26.371094 6.617188 26.390625 C 6.753906 26.433594 6.949219 26.457031 7.105469 26.457031 C 7.363281 26.457031 7.445312 26.429688 7.5625 26.347656 C 7.753906 26.203125 7.945312 25.910156 7.945312 25.390625 C 7.945312 24.492188 7.339844 24.226562 6.960938 24.226562 C 6.796875 24.226562 6.683594 24.230469 6.617188 24.253906 C 6.574219 24.265625 6.5625 24.292969 6.5625 24.339844 Z M 5.804688 25.773438 C 5.804688 24.808594 5.804688 24.628906 5.796875 24.425781 C 5.785156 24.210938 5.730469 24.109375 5.515625 24.058594 C 5.46875 24.050781 5.359375 24.042969 5.265625 24.042969 C 5.195312 24.042969 5.160156 24.03125 5.160156 23.984375 C 5.160156 23.941406 5.203125 23.929688 5.300781 23.929688 C 5.636719 23.929688 6.046875 23.945312 6.179688 23.945312 C 6.398438 23.945312 6.890625 23.929688 7.085938 23.929688 C 7.492188 23.929688 7.921875 23.96875 8.265625 24.199219 C 8.449219 24.324219 8.707031 24.648438 8.707031 25.070312 C 8.707031 25.546875 8.503906 25.976562 7.855469 26.5 C 8.429688 27.210938 8.875 27.773438 9.25 28.167969 C 9.609375 28.539062 9.875 28.582031 9.972656 28.605469 C 10.039062 28.613281 10.097656 28.621094 10.148438 28.621094 C 10.203125 28.621094 10.230469 28.640625 10.230469 28.667969 C 10.230469 28.722656 10.1875 28.734375 10.105469 28.734375 L 9.496094 28.734375 C 9.136719 28.734375 8.976562 28.699219 8.808594 28.613281 C 8.53125 28.46875 8.289062 28.167969 7.929688 27.679688 C 7.671875 27.332031 7.375 26.898438 7.292969 26.804688 C 7.257812 26.761719 7.222656 26.757812 7.175781 26.757812 L 6.617188 26.746094 C 6.585938 26.746094 6.566406 26.757812 6.566406 26.796875 L 6.566406 26.886719 C 6.566406 27.480469 6.566406 27.980469 6.59375 28.242188 C 6.617188 28.429688 6.65625 28.570312 6.851562 28.59375 C 6.941406 28.609375 7.085938 28.621094 7.167969 28.621094 C 7.214844 28.621094 7.242188 28.640625 7.242188 28.667969 C 7.242188 28.71875 7.195312 28.734375 7.113281 28.734375 C 6.738281 28.734375 6.261719 28.71875 6.171875 28.71875 C 6.046875 28.71875 5.636719 28.734375 5.382812 28.734375 C 5.300781 28.734375 5.257812 28.71875 5.257812 28.667969 C 5.257812 28.640625 5.277344 28.621094 5.359375 28.621094 C 5.453125 28.621094 5.527344 28.609375 5.589844 28.59375 C 5.71875 28.570312 5.75 28.429688 5.773438 28.242188 C 5.804688 27.980469 5.804688 27.480469 5.804688 26.890625 Z M 5.804688 25.773438 "/>
<path style=" stroke:none;fill-rule:nonzero;fill:rgb(98.431373%,72.941176%,0%);fill-opacity:1;" d="M 14.304688 26.457031 C 14.304688 25.027344 13.476562 24.144531 12.429688 24.144531 C 11.683594 24.144531 10.84375 24.554688 10.84375 26.136719 C 10.84375 27.460938 11.585938 28.507812 12.816406 28.507812 C 13.265625 28.507812 14.3125 28.292969 14.304688 26.457031 Z M 9.957031 26.335938 C 9.957031 25.25 10.679688 23.84375 12.613281 23.84375 C 14.214844 23.84375 15.207031 24.765625 15.207031 26.21875 C 15.207031 27.679688 14.179688 28.824219 12.546875 28.824219 C 10.699219 28.824219 9.957031 27.460938 9.957031 26.335938 Z M 9.957031 26.335938 "/>
<path style=" stroke:none;fill-rule:nonzero;fill:rgb(98.431373%,72.941176%,0%);fill-opacity:1;" d="M 16.210938 24 C 16.226562 23.894531 16.265625 23.839844 16.320312 23.839844 C 16.367188 23.839844 16.40625 23.871094 16.492188 24.03125 L 18.246094 27.570312 L 19.992188 23.988281 C 20.039062 23.886719 20.074219 23.839844 20.132812 23.839844 C 20.191406 23.839844 20.230469 23.902344 20.246094 24.03125 L 20.835938 27.925781 C 20.894531 28.324219 20.953125 28.511719 21.152344 28.570312 C 21.335938 28.625 21.464844 28.628906 21.546875 28.628906 C 21.609375 28.628906 21.652344 28.636719 21.652344 28.675781 C 21.652344 28.726562 21.574219 28.742188 21.484375 28.742188 C 21.320312 28.742188 20.4375 28.734375 20.183594 28.71875 C 20.03125 28.699219 19.992188 28.683594 19.992188 28.648438 C 19.992188 28.613281 20.019531 28.59375 20.0625 28.578125 C 20.101562 28.5625 20.121094 28.480469 20.09375 28.300781 L 19.707031 25.535156 L 19.679688 25.535156 L 18.28125 28.371094 C 18.136719 28.667969 18.101562 28.726562 18.042969 28.726562 C 17.988281 28.726562 17.925781 28.597656 17.820312 28.410156 C 17.667969 28.121094 17.164062 27.144531 17.082031 26.96875 C 17.027344 26.832031 16.640625 26.085938 16.417969 25.605469 L 16.390625 25.605469 L 16.058594 28.085938 C 16.046875 28.199219 16.042969 28.28125 16.042969 28.382812 C 16.042969 28.5 16.121094 28.5625 16.230469 28.585938 C 16.351562 28.613281 16.4375 28.621094 16.503906 28.621094 C 16.550781 28.621094 16.601562 28.628906 16.601562 28.664062 C 16.601562 28.722656 16.542969 28.734375 16.445312 28.734375 C 16.175781 28.734375 15.882812 28.71875 15.769531 28.71875 C 15.648438 28.71875 15.339844 28.734375 15.132812 28.734375 C 15.074219 28.734375 15.019531 28.722656 15.019531 28.664062 C 15.019531 28.628906 15.054688 28.621094 15.121094 28.621094 C 15.171875 28.621094 15.21875 28.621094 15.3125 28.597656 C 15.492188 28.5625 15.546875 28.3125 15.578125 28.097656 Z M 16.210938 24 "/>
<path style=" stroke:none;fill-rule:nonzero;fill:rgb(98.431373%,72.941176%,0%);fill-opacity:1;" d="M 24.5625 26.796875 C 24.59375 26.796875 24.601562 26.777344 24.59375 26.757812 L 24.019531 25.195312 C 24.011719 25.167969 24.007812 25.136719 23.984375 25.136719 C 23.964844 25.136719 23.953125 25.167969 23.949219 25.195312 L 23.359375 26.75 C 23.355469 26.777344 23.355469 26.796875 23.382812 26.796875 Z M 23.25 27.113281 C 23.21875 27.113281 23.203125 27.128906 23.191406 27.160156 L 22.84375 28.039062 C 22.777344 28.195312 22.746094 28.34375 22.746094 28.425781 C 22.746094 28.539062 22.804688 28.621094 23 28.621094 L 23.097656 28.621094 C 23.175781 28.621094 23.195312 28.636719 23.195312 28.675781 C 23.195312 28.722656 23.160156 28.734375 23.085938 28.734375 C 22.882812 28.734375 22.609375 28.71875 22.40625 28.71875 C 22.335938 28.71875 21.984375 28.734375 21.644531 28.734375 C 21.5625 28.734375 21.527344 28.722656 21.527344 28.675781 C 21.527344 28.636719 21.554688 28.621094 21.601562 28.621094 C 21.664062 28.621094 21.75 28.613281 21.804688 28.609375 C 22.097656 28.570312 22.21875 28.355469 22.347656 28.039062 L 23.957031 24.09375 C 24.035156 23.910156 24.078125 23.839844 24.136719 23.839844 C 24.199219 23.839844 24.242188 23.898438 24.300781 24.042969 C 24.460938 24.394531 25.480469 26.933594 25.894531 27.902344 C 26.140625 28.476562 26.324219 28.5625 26.460938 28.59375 C 26.558594 28.613281 26.652344 28.621094 26.734375 28.621094 C 26.78125 28.621094 26.816406 28.625 26.816406 28.675781 C 26.816406 28.722656 26.753906 28.734375 26.519531 28.734375 C 26.289062 28.734375 25.820312 28.734375 25.308594 28.722656 C 25.1875 28.71875 25.113281 28.71875 25.113281 28.675781 C 25.113281 28.636719 25.132812 28.621094 25.199219 28.613281 C 25.246094 28.605469 25.292969 28.542969 25.257812 28.46875 L 24.746094 27.160156 C 24.730469 27.128906 24.714844 27.113281 24.683594 27.113281 Z M 23.25 27.113281 "/>
<path style=" stroke:none;fill-rule:nonzero;fill:rgb(9.019608%,9.803922%,11.372549%);fill-opacity:1;" d="M 30.601562 20.785156 L 1.371094 20.785156 C 1.25 20.785156 1.152344 20.691406 1.152344 20.570312 C 1.152344 20.453125 1.25 20.355469 1.371094 20.355469 L 30.601562 20.355469 C 30.722656 20.355469 30.820312 20.453125 30.820312 20.570312 C 30.820312 20.691406 30.722656 20.785156 30.601562 20.785156 Z M 30.601562 20.785156 "/>
<path style=" stroke:none;fill-rule:nonzero;fill:rgb(9.019608%,9.803922%,11.372549%);fill-opacity:1;" d="M 4.652344 12.84375 C 4.527344 12.925781 4.476562 12.707031 4.476562 12.707031 C 4.441406 12.621094 4.441406 12.527344 4.488281 12.496094 C 4.585938 12.550781 4.695312 12.550781 4.734375 12.601562 C 4.773438 12.667969 4.71875 12.808594 4.652344 12.84375 Z M 27.859375 18.089844 C 27.777344 17.988281 27.691406 17.886719 27.597656 17.773438 C 27.183594 17.277344 26.265625 16.054688 26.265625 16.054688 C 26.265625 12.085938 25.546875 11.347656 24.808594 10.722656 C 24.160156 10.175781 23.121094 9.894531 22.003906 9.722656 C 21.699219 9.675781 21.367188 9.660156 20.980469 9.660156 C 20.613281 9.660156 20.238281 9.675781 19.878906 9.695312 C 19.578125 9.710938 14.347656 9.925781 12.667969 9.648438 C 11.9375 9.527344 10.921875 9.667969 10.324219 9.738281 C 10.042969 9.773438 8.53125 10.007812 8.359375 9.726562 C 8.320312 9.675781 8.324219 9.554688 8.339844 9.425781 C 8.359375 9.21875 8.445312 8.964844 8.28125 8.738281 C 8.054688 8.425781 7.808594 8.089844 7.671875 8.089844 C 7.628906 8.089844 7.257812 8.394531 7.167969 8.484375 C 7.015625 8.636719 6.964844 8.882812 6.96875 9.175781 C 6.976562 9.351562 6.964844 9.320312 6.949219 9.328125 C 6.925781 9.351562 5.964844 9.351562 5.722656 9.375 C 5.722656 9.324219 5.714844 9.078125 5.550781 8.839844 C 5.445312 8.6875 5.355469 8.1875 5.355469 8.1875 C 5.355469 8.1875 5.007812 8.785156 4.890625 8.941406 C 4.761719 9.121094 4.625 9.304688 4.542969 9.511719 C 4.515625 9.59375 4.511719 9.691406 4.5 9.78125 C 4.5 9.851562 4.488281 9.992188 4.460938 10.015625 C 4.277344 10.148438 4.171875 10.332031 4.15625 10.5625 C 4.152344 10.628906 4.171875 10.71875 4.191406 10.820312 C 4.207031 10.890625 4.226562 10.992188 4.226562 11.042969 C 4.207031 11.058594 4.191406 11.070312 4.171875 11.078125 C 4.003906 11.183594 3.78125 11.332031 3.796875 11.585938 C 3.820312 11.972656 3.90625 12.125 4.03125 12.335938 C 4.066406 12.394531 4.101562 12.453125 4.140625 12.527344 C 4.195312 12.628906 4.222656 12.78125 4.246094 12.925781 C 4.277344 13.125 4.085938 13.347656 4.21875 13.46875 C 4.386719 13.636719 4.828125 13.648438 5.023438 13.648438 C 5.070312 13.648438 5.273438 13.640625 5.320312 13.640625 C 5.390625 13.640625 5.453125 13.648438 5.5 13.652344 C 5.871094 13.730469 6.234375 13.753906 6.59375 13.789062 C 7.085938 13.820312 7.546875 13.859375 8.015625 13.996094 C 8.875 14.246094 9.722656 14.59375 10.605469 15.0625 C 10.652344 15.085938 10.699219 15.113281 10.742188 15.132812 C 11.066406 15.300781 11.136719 15.277344 11.289062 15.71875 C 11.449219 16.167969 11.164062 19.652344 11.101562 20.011719 C 11.003906 20.59375 10.8125 20.941406 10.507812 21.054688 C 10.097656 21.203125 9.929688 21.519531 9.773438 21.824219 C 9.71875 21.921875 9.730469 22.042969 9.664062 22.144531 C 9.664062 22.144531 9.535156 22.289062 9.578125 22.320312 C 9.621094 22.359375 10.035156 22.261719 10.035156 22.261719 C 10.175781 22.273438 10.023438 22.34375 10.164062 22.34375 C 10.511719 22.34375 10.9375 22.34375 11.367188 22.101562 C 11.546875 22.101562 11.425781 22.328125 11.589844 22.292969 C 12.105469 22.203125 12.152344 21.808594 12.214844 21.4375 C 12.320312 20.808594 12.304688 20.699219 12.375 20.640625 C 12.445312 20.582031 12.671875 20.679688 12.734375 20.613281 C 12.78125 20.5625 12.734375 20.101562 12.753906 19.6875 C 12.792969 19.097656 12.957031 18.40625 13.136719 17.835938 L 13.144531 17.804688 C 13.183594 17.679688 13.246094 17.53125 13.304688 17.367188 C 13.472656 16.933594 13.675781 16.40625 13.652344 15.980469 C 13.835938 16.011719 13.863281 16.023438 13.96875 16.167969 C 13.984375 16.1875 14.011719 16.230469 14.042969 16.28125 C 14.246094 16.609375 14.347656 16.699219 14.484375 16.699219 C 14.496094 16.699219 14.511719 16.699219 14.523438 16.695312 C 14.742188 16.640625 14.859375 16.457031 14.980469 16.214844 C 15.105469 15.980469 15.230469 15.738281 15.4375 15.6875 L 15.464844 15.6875 C 15.628906 15.6875 15.921875 15.832031 16.089844 16.09375 C 16.453125 16.652344 16.769531 16.257812 16.796875 16.210938 C 16.839844 16.144531 17.136719 15.667969 17.210938 15.554688 C 17.296875 15.417969 17.351562 15.410156 17.375 15.410156 L 17.378906 15.410156 C 17.558594 15.433594 18.34375 16.359375 18.621094 16.300781 C 18.886719 16.269531 19.1875 15.253906 19.355469 15.253906 C 19.359375 15.253906 19.371094 15.253906 19.375 15.257812 C 19.421875 15.289062 19.511719 15.429688 19.574219 15.519531 C 19.78125 15.832031 19.828125 16.039062 19.992188 16.039062 C 20.046875 16.039062 20.132812 15.996094 20.1875 15.859375 C 20.203125 15.824219 20.269531 15.671875 20.273438 15.652344 C 20.285156 15.667969 20.425781 16.128906 20.765625 15.714844 C 20.757812 15.710938 20.757812 15.703125 20.753906 15.699219 L 20.753906 15.703125 L 20.753906 15.695312 L 20.753906 15.699219 C 20.800781 15.589844 21.429688 16.207031 21.726562 16.441406 C 22 16.691406 22.226562 16.910156 22.246094 16.925781 C 22.890625 17.492188 23.691406 18.203125 23.84375 18.96875 C 23.9375 19.410156 23.914062 19.917969 23.789062 20.40625 C 23.761719 20.507812 23.734375 20.566406 23.707031 20.582031 C 23.6875 20.597656 23.617188 20.605469 23.523438 20.605469 C 23.484375 20.605469 23.441406 20.609375 23.390625 20.613281 C 23.167969 20.625 23.023438 20.855469 22.886719 21.0625 C 22.828125 21.15625 22.746094 21.238281 22.707031 21.304688 C 22.664062 21.378906 22.730469 21.492188 22.773438 21.519531 C 22.808594 21.539062 23.207031 21.632812 23.328125 21.632812 C 23.359375 21.632812 23.398438 21.632812 23.417969 21.621094 C 23.507812 21.652344 23.609375 21.667969 23.722656 21.667969 C 24.074219 21.667969 24.507812 21.53125 24.628906 21.292969 C 24.839844 20.890625 24.980469 20.449219 25.117188 20.023438 C 25.132812 19.972656 25.148438 19.925781 25.160156 19.875 C 25.195312 19.785156 25.238281 19.675781 25.28125 19.570312 C 25.425781 19.183594 25.683594 18.761719 25.570312 18.378906 C 25.507812 18.175781 25.300781 17.980469 25.171875 17.804688 C 25.058594 17.652344 24.617188 17.082031 24.480469 16.890625 C 24.894531 17.28125 26.03125 17.863281 26.320312 18.542969 C 26.421875 18.785156 26.320312 19.785156 26.304688 20.050781 C 26.292969 20.179688 26.289062 20.308594 26.28125 20.4375 C 26.269531 20.847656 26.152344 20.921875 25.730469 20.964844 C 25.375 20.996094 25.203125 21.523438 25.117188 21.808594 C 25.113281 21.824219 25.105469 21.84375 25.105469 21.851562 L 25.0625 21.988281 L 25.203125 22.007812 C 25.257812 22.019531 25.3125 22.03125 25.378906 22.042969 C 25.640625 22.089844 26.074219 22.25 26.386719 22.25 C 26.746094 22.25 27 22.164062 27.164062 21.988281 C 27.375 21.765625 27.453125 21.355469 27.523438 21.003906 C 27.550781 20.871094 27.703125 20.394531 27.757812 20.222656 C 28.097656 19.132812 28.4375 18.714844 27.859375 18.089844 Z M 27.859375 18.089844 "/>
<path style=" stroke:none;fill-rule:nonzero;fill:rgb(73.72549%,72.54902%,71.764706%);fill-opacity:1;" d="M 26.167969 21.246094 C 26.128906 21.320312 25.984375 21.335938 25.933594 21.351562 C 25.835938 21.394531 25.738281 21.453125 25.742188 21.53125 C 25.742188 21.554688 25.726562 21.886719 25.742188 21.917969 C 25.765625 21.953125 25.902344 21.996094 25.933594 21.953125 C 25.949219 21.921875 25.929688 21.691406 25.957031 21.53125 C 25.960938 21.507812 25.976562 21.410156 26.027344 21.390625 C 26.042969 21.382812 26.207031 21.3125 26.167969 21.246094 Z M 26.167969 21.246094 "/>
<path style=" stroke:none;fill-rule:nonzero;fill:rgb(73.72549%,72.54902%,71.764706%);fill-opacity:1;" d="M 14.472656 15.445312 C 14.597656 15.433594 14.773438 15.402344 14.832031 15.445312 C 14.886719 15.488281 14.976562 15.640625 14.96875 15.730469 C 14.964844 15.824219 14.660156 16.3125 14.636719 16.335938 C 14.621094 16.359375 14.589844 16.425781 14.535156 16.355469 C 14.480469 16.28125 14.382812 15.53125 14.382812 15.53125 C 14.382812 15.53125 14.367188 15.457031 14.472656 15.445312 Z M 14.472656 15.445312 "/>
<path style=" stroke:none;fill-rule:nonzero;fill:rgb(73.72549%,72.54902%,71.764706%);fill-opacity:1;" d="M 27.730469 18.335938 C 27.5625 18.101562 27.140625 17.675781 26.972656 17.46875 C 26.75 17.199219 25.726562 16.011719 25.726562 16.011719 C 25.726562 16.011719 25.433594 14.21875 25.308594 13.808594 C 25.230469 13.550781 25.007812 11.65625 23.527344 10.632812 C 23.609375 10.5 24.566406 11.242188 24.910156 11.824219 C 25.542969 12.871094 25.808594 15.617188 25.808594 15.617188 C 25.808594 15.617188 26.210938 11.425781 23.96875 10.542969 C 22.359375 9.875 21.558594 9.980469 21.558594 9.980469 C 21.558594 9.980469 20.441406 10.644531 21.113281 11.898438 C 21.242188 12.144531 22.707031 14.363281 22.804688 14.542969 C 23.636719 16.085938 26.28125 17.886719 26.765625 18.375 C 26.792969 18.402344 27.246094 18.699219 27.277344 19.027344 C 27.28125 19.085938 26.65625 18.671875 26.667969 18.746094 C 26.753906 19.523438 26.664062 21.007812 26.644531 21.179688 C 26.636719 21.375 26.625 21.40625 26.5 21.449219 C 26.378906 21.488281 26.253906 21.375 26.183594 21.578125 C 26.101562 21.804688 26.128906 21.972656 26.339844 21.972656 C 26.554688 21.972656 26.871094 22.078125 27.070312 21.320312 C 27.277344 20.542969 27.71875 19.175781 27.847656 18.671875 C 27.886719 18.550781 27.789062 18.421875 27.730469 18.335938 Z M 27.730469 18.335938 "/>
<path style=" stroke:none;fill-rule:nonzero;fill:rgb(73.72549%,72.54902%,71.764706%);fill-opacity:1;" d="M 5.332031 8.867188 C 5.332031 8.867188 5.507812 9.378906 5.507812 9.519531 C 5.5 9.667969 5.457031 9.679688 5.457031 9.679688 L 4.933594 9.902344 C 4.933594 9.902344 5.050781 9.773438 5.109375 9.609375 C 5.167969 9.441406 5.339844 9.019531 5.332031 8.867188 Z M 5.332031 8.867188 "/>
<path style=" stroke:none;fill-rule:nonzero;fill:rgb(73.72549%,72.54902%,71.764706%);fill-opacity:1;" d="M 11.570312 21.773438 C 11.558594 21.777344 11.546875 21.777344 11.542969 21.773438 L 11.507812 21.730469 C 11.503906 21.722656 11.507812 21.710938 11.519531 21.703125 L 11.546875 21.6875 C 11.558594 21.675781 11.574219 21.675781 11.574219 21.679688 L 11.605469 21.730469 C 11.613281 21.734375 11.605469 21.746094 11.59375 21.753906 Z M 11.570312 21.773438 "/>
<path style=" stroke:none;fill-rule:nonzero;fill:rgb(73.72549%,72.54902%,71.764706%);fill-opacity:1;" d="M 23.636719 20.949219 C 23.636719 20.949219 23.570312 20.925781 23.535156 20.976562 C 23.484375 21.039062 23.464844 21.289062 23.464844 21.289062 C 23.464844 21.289062 23.523438 21.363281 23.636719 21.320312 C 23.746094 21.277344 23.976562 21.109375 23.902344 21.054688 C 23.828125 21.003906 23.636719 20.949219 23.636719 20.949219 Z M 23.636719 20.949219 "/>
<path style=" stroke:none;fill-rule:nonzero;fill:rgb(73.72549%,72.54902%,71.764706%);fill-opacity:1;" d="M 23.4375 20.824219 C 23.4375 20.824219 23.339844 20.824219 23.289062 20.878906 C 23.238281 20.933594 23.152344 21.078125 23.160156 21.136719 C 23.164062 21.195312 23.25 21.292969 23.292969 21.234375 C 23.34375 21.175781 23.550781 20.820312 23.4375 20.824219 Z M 23.4375 20.824219 "/>
<path style=" stroke:none;fill-rule:nonzero;fill:rgb(73.72549%,72.54902%,71.764706%);fill-opacity:1;" d="M 4.265625 11.503906 C 4.144531 11.6875 4.484375 11.84375 4.570312 11.746094 C 4.636719 11.5 4.378906 11.40625 4.265625 11.503906 Z M 4.265625 11.503906 "/>
<path style=" stroke:none;fill-rule:nonzero;fill:rgb(73.72549%,72.54902%,71.764706%);fill-opacity:1;" d="M 6.992188 11.828125 C 6.824219 11.625 6.691406 11.289062 6.808594 11.226562 C 6.921875 11.164062 7.03125 11.253906 7.09375 11.289062 C 7.199219 11.34375 7.246094 11.3125 7.242188 11.175781 C 7.238281 11.070312 7.226562 10.972656 7.214844 10.875 C 7.183594 10.589844 7.03125 10.273438 6.910156 10.148438 C 6.710938 9.9375 6.148438 9.695312 5.796875 9.933594 C 5.691406 10.003906 5.617188 10.109375 5.550781 10.246094 C 5.523438 10.292969 5.59375 10.359375 5.570312 10.414062 C 5.441406 10.722656 5.246094 11.085938 5.015625 11.316406 C 5.007812 11.332031 5.800781 11.398438 6.921875 12.210938 C 7.019531 12.28125 6.828125 12.679688 6.761719 12.65625 C 6.730469 12.652344 6.878906 12.324219 6.769531 12.265625 C 6.253906 11.980469 5.949219 11.941406 5.5625 11.800781 C 5.46875 11.773438 5.203125 11.941406 5.132812 11.875 C 5.035156 11.753906 4.738281 11.613281 4.710938 11.597656 C 4.722656 11.601562 4.761719 11.628906 4.773438 11.753906 C 4.808594 12.066406 4.21875 11.753906 4.71875 12.253906 C 4.859375 12.394531 4.996094 12.5 5.097656 12.457031 C 5.261719 12.453125 5.1875 12.472656 5.203125 12.511719 L 5.289062 12.714844 C 5.304688 12.753906 5.320312 12.75 5.332031 12.710938 L 5.371094 12.496094 C 5.375 12.457031 5.417969 12.425781 5.457031 12.425781 C 5.457031 12.425781 6.21875 12.441406 6.371094 12.457031 C 6.523438 12.472656 6.535156 12.527344 6.535156 12.527344 C 6.539062 12.570312 6.601562 12.65625 6.476562 12.757812 C 6.382812 12.835938 6.152344 12.679688 5.976562 12.824219 C 5.796875 12.964844 5.4375 13.027344 5.4375 13.027344 C 5.390625 13.039062 5.347656 13.019531 5.332031 12.976562 L 5.238281 12.777344 C 5.222656 12.738281 5.207031 12.738281 5.207031 12.78125 L 5.1875 13.042969 C 5.179688 13.082031 5.164062 13.121094 5.160156 13.121094 C 5.148438 13.121094 5.121094 13.09375 5.105469 13.054688 L 5.097656 13.039062 C 5.082031 13 5.042969 13 5.015625 13.027344 L 4.96875 13.082031 C 4.941406 13.113281 4.902344 13.109375 4.882812 13.070312 L 4.863281 13.042969 C 4.84375 13.011719 4.808594 13.011719 4.78125 13.042969 L 4.753906 13.09375 C 4.734375 13.125 4.707031 13.121094 4.695312 13.082031 L 4.683594 13.054688 C 4.675781 13.019531 4.648438 13.019531 4.628906 13.050781 C 4.621094 13.078125 4.597656 13.082031 4.585938 13.066406 L 4.53125 13.121094 C 4.511719 13.140625 4.460938 13.183594 4.457031 13.226562 C 4.457031 13.269531 4.511719 13.296875 4.773438 13.351562 C 5.035156 13.398438 6.253906 12.910156 6.632812 12.992188 C 7.078125 13.082031 7.246094 12.722656 7.28125 12.253906 C 7.28125 12.242188 7.273438 12.214844 7.269531 12.179688 C 7.195312 12.054688 7.078125 11.929688 6.992188 11.824219 Z M 6.992188 11.828125 "/>
<path style=" stroke:none;fill-rule:nonzero;fill:rgb(9.019608%,9.803922%,11.372549%);fill-opacity:1;" d="M 5.800781 10.414062 C 5.800781 10.414062 5.953125 10.148438 6.136719 10.09375 C 6.28125 10.058594 6.421875 10.136719 6.636719 10.277344 C 6.851562 10.417969 6.964844 10.644531 7.175781 10.585938 C 7.246094 10.5625 7.015625 10.820312 6.808594 10.75 C 6.757812 10.730469 6.449219 10.222656 6.148438 10.230469 C 6.144531 10.230469 5.953125 10.265625 5.800781 10.414062 Z M 5.800781 10.414062 "/>
<path style=" stroke:none;fill-rule:nonzero;fill:rgb(9.019608%,9.803922%,11.372549%);fill-opacity:1;" d="M 6.40625 10.707031 C 6.359375 10.707031 6.324219 10.660156 6.324219 10.605469 C 6.324219 10.550781 6.359375 10.503906 6.40625 10.503906 C 6.453125 10.503906 6.511719 10.550781 6.511719 10.613281 C 6.507812 10.664062 6.453125 10.707031 6.40625 10.707031 Z M 6.351562 10.164062 C 6.101562 10.09375 5.953125 10.265625 5.953125 10.265625 C 6.019531 10.101562 6.316406 10.203125 6.449219 10.257812 C 6.523438 10.289062 6.621094 10.457031 6.699219 10.589844 C 6.617188 10.507812 6.503906 10.421875 6.40625 10.414062 C 6.214844 10.394531 6.199219 10.648438 6.199219 10.648438 L 6.101562 10.765625 C 6.101562 10.765625 6.117188 10.792969 6.261719 10.792969 C 6.410156 10.792969 6.921875 10.789062 6.988281 10.730469 C 7.058594 10.671875 6.628906 10.246094 6.351562 10.164062 Z M 6.351562 10.164062 "/>
<path style=" stroke:none;fill-rule:nonzero;fill:rgb(73.72549%,72.54902%,71.764706%);fill-opacity:1;" d="M 10.285156 21.535156 C 10.285156 21.535156 10.09375 21.921875 10.089844 21.964844 C 10.082031 22.003906 10.09375 22.03125 10.117188 22.03125 C 10.136719 22.03125 10.207031 22.046875 10.257812 22.015625 C 10.304688 21.980469 10.492188 21.601562 10.511719 21.546875 C 10.519531 21.53125 10.367188 21.445312 10.285156 21.535156 Z M 10.285156 21.535156 "/>
<path style=" stroke:none;fill-rule:nonzero;fill:rgb(73.72549%,72.54902%,71.764706%);fill-opacity:1;" d="M 25.398438 18.699219 C 25.5 18.351562 25.171875 18.316406 25.0625 18.757812 C 25.023438 18.914062 24.574219 20.523438 24.53125 20.941406 C 24.523438 20.964844 24.539062 20.984375 24.5625 20.957031 C 24.566406 21.105469 25.355469 18.847656 25.398438 18.699219 Z M 25.398438 18.699219 "/>
<path style=" stroke:none;fill-rule:nonzero;fill:rgb(73.72549%,72.54902%,71.764706%);fill-opacity:1;" d="M 22.859375 13.304688 C 22.859375 13.3125 22.835938 13.3125 22.816406 13.3125 L 22.652344 13.289062 C 22.628906 13.28125 22.613281 13.269531 22.613281 13.261719 L 22.621094 13.238281 C 22.621094 13.226562 22.640625 13.226562 22.664062 13.226562 L 22.828125 13.253906 C 22.847656 13.261719 22.871094 13.269531 22.859375 13.28125 Z M 22.859375 13.304688 "/>
<path style=" stroke:none;fill-rule:nonzero;fill:rgb(73.72549%,72.54902%,71.764706%);fill-opacity:1;" d="M 22.800781 13.367188 C 22.800781 13.375 22.789062 13.378906 22.773438 13.378906 L 22.664062 13.363281 C 22.648438 13.355469 22.636719 13.347656 22.640625 13.339844 L 22.640625 13.320312 C 22.640625 13.308594 22.65625 13.304688 22.675781 13.304688 L 22.777344 13.324219 C 22.792969 13.324219 22.804688 13.335938 22.804688 13.347656 Z M 22.800781 13.367188 "/>
<path style=" stroke:none;fill-rule:nonzero;fill:rgb(73.72549%,72.54902%,71.764706%);fill-opacity:1;" d="M 10.910156 9.945312 C 10.125 10.09375 9.023438 10.160156 8.421875 10.078125 C 7.949219 10.015625 7.929688 9.722656 8.015625 9.46875 C 7.574219 9.894531 7.339844 9.726562 7.328125 9.679688 C 7.3125 9.609375 7.492188 9.679688 7.605469 9.5625 C 7.726562 9.453125 7.792969 9.042969 7.703125 8.851562 C 7.605469 8.65625 7.710938 8.6875 7.710938 8.6875 C 7.710938 8.6875 7.957031 8.714844 8.0625 9 C 8.128906 8.714844 7.726562 8.355469 7.597656 8.4375 C 7.464844 8.515625 7.199219 8.734375 7.238281 9.050781 C 7.28125 9.4375 7.253906 9.632812 7.128906 9.625 C 6.269531 9.589844 5.304688 9.476562 4.773438 10.023438 C 4.773438 10.023438 5.417969 9.597656 5.921875 9.648438 C 6.414062 9.691406 7.433594 9.792969 7.492188 10.972656 C 7.492188 10.972656 7.480469 11.242188 7.503906 11.546875 C 7.515625 11.714844 7.363281 11.605469 7.363281 11.683594 C 7.367188 12.011719 7.601562 11.957031 7.585938 12.242188 C 7.503906 13.40625 6.960938 13.378906 6.960938 13.378906 C 6.960938 13.378906 7.613281 13.46875 7.9375 12.382812 C 7.9375 13.007812 7.875 13.164062 7.617188 13.40625 C 8.117188 13.4375 8.511719 12.96875 8.519531 12.898438 C 8.597656 13.019531 8.738281 13.398438 9.109375 13.554688 C 8.929688 13.253906 8.972656 12.890625 9.011719 12.566406 C 9.125 13.292969 9.308594 13.5625 9.6875 13.71875 C 9.535156 13.566406 9.222656 13.238281 9.316406 12.652344 C 9.390625 13.152344 9.984375 13.597656 9.984375 13.597656 C 9.984375 13.597656 9.792969 13.296875 9.746094 12.765625 C 10 13.308594 10.273438 13.351562 10.273438 13.351562 C 10.273438 13.351562 9.847656 12.914062 9.777344 12.339844 C 9.765625 12.335938 10.078125 12.734375 10.324219 12.734375 C 10.132812 12.5 9.832031 12.179688 9.792969 11.773438 C 9.992188 12.015625 10.125 12.179688 10.34375 12.199219 C 10.160156 11.988281 10.007812 11.652344 9.953125 11.246094 C 10.164062 11.511719 10.125 11.597656 10.523438 11.703125 C 10.371094 11.554688 10.261719 11.144531 10.339844 10.945312 C 10.410156 11.085938 10.675781 11.226562 10.992188 11.269531 C 10.886719 11.203125 10.726562 10.8125 10.746094 10.660156 C 10.886719 10.730469 11.199219 10.832031 11.441406 10.800781 C 11.328125 10.730469 11.246094 10.390625 11.28125 10.308594 C 11.34375 10.347656 11.8125 10.34375 11.910156 10.308594 C 11.757812 10.21875 11.628906 10.078125 11.667969 10.089844 C 11.773438 10.125 11.960938 10.035156 12.199219 9.996094 C 12.457031 9.953125 12.5 9.953125 12.660156 9.953125 C 12.503906 9.878906 11.523438 9.792969 10.910156 9.945312 Z M 10.910156 9.945312 "/>
<path style=" stroke:none;fill-rule:nonzero;fill:rgb(73.72549%,72.54902%,71.764706%);fill-opacity:1;" d="M 18.832031 14.800781 C 18.832031 14.800781 18.332031 14.769531 18.292969 14.917969 C 18.253906 15.070312 18.523438 15.882812 18.5625 15.980469 C 18.625 16.128906 18.792969 15.773438 18.792969 15.773438 C 18.847656 15.683594 19.054688 15.203125 19.054688 15.140625 C 19.050781 15.058594 19.054688 14.800781 18.832031 14.800781 Z M 18.832031 14.800781 "/>
<path style=" stroke:none;fill-rule:nonzero;fill:rgb(73.72549%,72.54902%,71.764706%);fill-opacity:1;" d="M 21.253906 15.769531 C 21.222656 15.785156 21.1875 15.789062 21.167969 15.796875 C 21.1875 15.808594 21.214844 15.8125 21.238281 15.8125 C 21.230469 15.800781 21.242188 15.785156 21.253906 15.769531 Z M 21.253906 15.769531 "/>
<path style=" stroke:none;fill-rule:nonzero;fill:rgb(73.72549%,72.54902%,71.764706%);fill-opacity:1;" d="M 16.863281 14.875 C 16.863281 14.875 16.355469 14.84375 16.320312 14.992188 C 16.28125 15.148438 16.5 15.859375 16.53125 15.957031 C 16.578125 16.101562 16.6875 15.882812 16.6875 15.882812 C 16.742188 15.785156 17.140625 15.277344 17.144531 15.214844 C 17.144531 15.140625 17.089844 14.875 16.863281 14.875 Z M 16.863281 14.875 "/>
<path style=" stroke:none;fill-rule:nonzero;fill:rgb(73.72549%,72.54902%,71.764706%);fill-opacity:1;" d="M 20.390625 9.960938 C 20.230469 9.964844 18.917969 10.117188 18.050781 10.117188 C 17.347656 10.121094 16.613281 10.082031 16.214844 10.101562 C 16.183594 10.09375 16.132812 10.101562 16.089844 10.105469 C 15.503906 10.078125 13.628906 10.050781 13.628906 10.050781 C 13.488281 10.023438 11.585938 10.507812 11.308594 12.601562 C 11.136719 13.894531 11.21875 14.304688 11.515625 14.917969 C 11.695312 15.285156 12.046875 15.957031 12.03125 16.484375 C 12.027344 16.699219 11.632812 15.5625 11.640625 15.695312 C 11.699219 17.019531 11.464844 20 11.328125 20.636719 C 11.171875 21.390625 11.019531 21.007812 10.839844 21.324219 C 10.8125 21.375 10.421875 22.078125 10.429688 22.085938 C 10.4375 22.089844 10.628906 22.0625 10.824219 22.046875 C 11.058594 22.035156 11.246094 21.417969 11.40625 21.417969 C 11.425781 21.417969 11.230469 21.917969 11.257812 21.90625 C 11.421875 21.867188 11.6875 21.800781 11.671875 21.929688 C 11.730469 21.949219 11.78125 21.917969 11.8125 21.875 C 11.863281 21.816406 12.078125 20.851562 12.214844 20.351562 C 12.242188 20.269531 12.460938 20.3125 12.519531 20.339844 C 12.640625 20.101562 12.449219 19.3125 12.792969 18.21875 C 13.128906 17.140625 13.484375 16.207031 13.324219 15.929688 C 13.308594 15.898438 12.734375 16.652344 12.714844 16.625 C 12.679688 16.539062 14.597656 13.351562 14.230469 11.703125 C 14.21875 11.644531 14.191406 11.574219 14.191406 11.527344 C 14.191406 11.515625 14.414062 11.605469 14.691406 11.683594 C 15.050781 11.789062 15.367188 11.851562 15.476562 12.257812 C 15.605469 13.050781 15.976562 14.175781 16.730469 14.246094 C 16.390625 13.933594 15.949219 12.351562 16.003906 11.703125 C 16.214844 12.765625 16.867188 14.300781 17.40625 14.230469 C 17.296875 14.058594 16.847656 13.089844 16.847656 12.484375 C 17.042969 12.984375 17.503906 14.09375 17.851562 14.101562 C 18.765625 14.117188 19 13.707031 19.675781 13.554688 C 21.195312 13.21875 21.589844 13.792969 21.820312 13.910156 C 21.636719 13.734375 21.003906 12.640625 20.585938 11.789062 C 20.253906 11.117188 20.8125 10.445312 21.777344 10.023438 C 21.960938 9.9375 20.683594 9.949219 20.390625 9.960938 Z M 20.390625 9.960938 "/>
<path style=" stroke:none;fill-rule:nonzero;fill:rgb(9.019608%,9.803922%,11.372549%);fill-opacity:1;" d="M 21.042969 15.785156 C 21.042969 15.785156 20.992188 15.742188 20.949219 15.738281 C 20.933594 15.730469 20.925781 15.730469 20.917969 15.730469 C 20.898438 15.730469 20.890625 15.738281 20.890625 15.738281 L 20.867188 15.742188 L 20.875 15.726562 C 20.878906 15.710938 20.894531 15.683594 20.933594 15.683594 C 20.949219 15.683594 20.964844 15.6875 20.976562 15.695312 C 21.035156 15.714844 21.058594 15.773438 21.058594 15.773438 L 21.070312 15.808594 Z M 21.042969 15.785156 "/>
<path style=" stroke:none;fill-rule:nonzero;fill:rgb(9.019608%,9.803922%,11.372549%);fill-opacity:1;" d="M 20.605469 15.703125 C 20.613281 15.6875 20.628906 15.660156 20.667969 15.660156 C 20.683594 15.660156 20.699219 15.667969 20.714844 15.671875 C 20.722656 15.675781 20.742188 15.683594 20.742188 15.683594 L 20.753906 15.695312 L 20.710938 15.71875 L 20.703125 15.71875 C 20.703125 15.71875 20.6875 15.714844 20.683594 15.714844 C 20.671875 15.710938 20.660156 15.710938 20.648438 15.710938 C 20.628906 15.710938 20.621094 15.714844 20.621094 15.714844 L 20.601562 15.71875 Z M 20.605469 15.703125 "/>
<path style=" stroke:none;fill-rule:nonzero;fill:rgb(9.019608%,9.803922%,11.372549%);fill-opacity:1;" d="M 20.710938 15.683594 C 20.714844 15.683594 20.738281 15.695312 20.738281 15.695312 L 20.710938 15.710938 C 20.710938 15.710938 20.695312 15.703125 20.683594 15.703125 C 20.640625 15.695312 20.617188 15.703125 20.617188 15.703125 C 20.617188 15.703125 20.632812 15.65625 20.710938 15.683594 Z M 20.710938 15.683594 "/>
<path style=" stroke:none;fill-rule:nonzero;fill:rgb(9.019608%,9.803922%,11.372549%);fill-opacity:1;" d="M 21.535156 21.449219 C 21 21.449219 20.933594 20.585938 20.921875 20.4375 C 20.792969 20.425781 20.648438 20.335938 20.558594 20.257812 C 20.550781 20.257812 20.542969 20.253906 20.53125 20.25 C 20.53125 20.3125 20.535156 20.378906 20.535156 20.4375 C 20.542969 20.539062 20.5625 20.796875 20.570312 20.867188 L 20.574219 20.871094 C 20.585938 20.96875 20.613281 21.195312 20.382812 21.320312 C 20.316406 21.355469 20.242188 21.378906 20.160156 21.378906 C 20.09375 21.378906 20.035156 21.363281 19.992188 21.351562 L 19.964844 21.351562 L 19.925781 21.347656 C 19.867188 21.335938 19.789062 21.332031 19.730469 21.324219 L 19.714844 21.324219 C 19.601562 21.324219 19.285156 21.347656 19.230469 21.351562 L 19.195312 21.351562 C 19.019531 21.351562 18.871094 21.210938 18.871094 21.207031 C 18.777344 21.121094 18.773438 20.980469 18.847656 20.867188 L 18.871094 20.839844 L 18.902344 20.8125 C 18.917969 20.804688 18.972656 20.765625 19.054688 20.753906 C 19.121094 20.710938 19.222656 20.652344 19.382812 20.566406 C 19.246094 20.296875 18.636719 19.371094 19.164062 19.078125 C 19.367188 18.976562 19.664062 18.871094 19.953125 18.800781 C 19.953125 18.785156 19.960938 18.769531 19.964844 18.75 C 19.96875 18.730469 19.976562 18.65625 19.964844 18.601562 C 19.882812 18.644531 19.800781 18.664062 19.730469 18.664062 C 19.707031 18.664062 19.6875 18.664062 19.664062 18.660156 C 19.480469 18.621094 19.246094 18.359375 19.21875 18.320312 C 19.179688 18.265625 19.027344 17.992188 18.882812 17.730469 C 18.496094 17.707031 18.460938 17.695312 18.433594 17.691406 C 18.390625 17.675781 18.347656 17.664062 18.097656 17.453125 C 18.015625 17.382812 17.972656 17.289062 17.984375 17.195312 C 17.996094 17.121094 18.042969 17.050781 18.113281 17.019531 C 18.121094 17.011719 18.125 17.011719 18.136719 17.007812 C 18.167969 16.964844 18.21875 16.921875 18.308594 16.898438 L 18.335938 16.894531 L 18.371094 16.894531 C 18.429688 16.894531 18.484375 16.914062 18.535156 16.941406 C 18.535156 16.914062 18.542969 16.882812 18.554688 16.855469 C 18.605469 16.765625 18.703125 16.710938 18.8125 16.710938 C 18.875 16.710938 18.941406 16.726562 19.019531 16.765625 L 19.027344 16.769531 L 19.039062 16.777344 L 19.066406 16.792969 C 19.117188 16.800781 19.222656 16.835938 19.261719 16.851562 C 19.328125 16.878906 19.375 16.910156 19.496094 17.121094 L 19.6875 17.3125 C 19.773438 17.109375 19.882812 17.019531 19.921875 16.984375 C 19.976562 16.9375 20.046875 16.914062 20.117188 16.894531 C 20.128906 16.890625 20.148438 16.882812 20.164062 16.882812 C 20.191406 16.855469 20.226562 16.835938 20.265625 16.8125 C 20.265625 16.800781 20.269531 16.792969 20.269531 16.78125 C 20.242188 16.742188 20.210938 16.691406 20.183594 16.648438 C 20.101562 16.515625 20.113281 16.398438 20.117188 16.324219 L 20.117188 16.300781 C 20.128906 16.101562 20.390625 15.929688 20.390625 15.925781 C 20.417969 15.910156 20.449219 15.894531 20.476562 15.882812 C 20.53125 15.824219 20.617188 15.71875 20.683594 15.667969 C 20.730469 15.617188 20.800781 15.585938 20.867188 15.5625 C 20.921875 15.453125 21.042969 15.390625 21.222656 15.390625 C 21.277344 15.390625 21.460938 15.410156 21.519531 15.414062 C 21.65625 15.433594 21.742188 15.519531 21.789062 15.617188 C 21.902344 15.65625 21.976562 15.757812 21.988281 15.898438 L 22.03125 15.941406 C 22.058594 15.96875 22.125 16.042969 22.144531 16.15625 C 22.21875 16.292969 22.199219 16.449219 22.195312 16.515625 C 22.191406 16.734375 22.136719 16.863281 22.074219 16.9375 C 22.066406 16.957031 22.058594 16.980469 22.054688 16.996094 C 22.261719 17.125 22.324219 17.417969 22.34375 17.53125 C 22.363281 17.59375 22.445312 17.875 22.488281 18.058594 C 22.542969 18.320312 22.449219 18.5625 22.445312 18.59375 L 22.433594 18.621094 L 22.417969 18.644531 C 22.402344 18.671875 22.316406 18.785156 22.277344 18.832031 C 22.207031 18.914062 22.128906 18.949219 22.066406 18.960938 C 22.085938 19.054688 22.109375 19.148438 22.125 19.234375 C 22.292969 19.441406 22.378906 19.730469 22.378906 19.828125 C 22.378906 19.898438 22.359375 19.96875 22.34375 20.023438 C 22.359375 20.070312 22.363281 20.136719 22.359375 20.273438 C 22.429688 20.355469 22.496094 20.464844 22.558594 20.585938 C 22.566406 20.605469 22.570312 20.613281 22.570312 20.621094 C 22.890625 21.308594 22.09375 21.355469 22.042969 21.339844 C 21.933594 21.4375 21.597656 21.449219 21.535156 21.449219 Z M 21.535156 21.449219 "/>
<path style=" stroke:none;fill-rule:nonzero;fill:rgb(73.72549%,72.54902%,71.764706%);fill-opacity:1;" d="M 21.488281 15.632812 C 21.4375 15.625 21.265625 15.613281 21.214844 15.613281 C 20.980469 15.613281 21.105469 15.730469 21.105469 15.730469 C 21.105469 15.730469 20.917969 15.757812 20.835938 15.828125 C 20.757812 15.898438 20.617188 16.066406 20.617188 16.066406 C 20.617188 16.066406 20.550781 16.085938 20.515625 16.113281 C 20.476562 16.136719 20.367188 16.222656 20.351562 16.308594 C 20.335938 16.371094 20.328125 16.449219 20.378906 16.527344 C 20.425781 16.609375 20.507812 16.714844 20.507812 16.714844 C 20.507812 16.714844 20.53125 16.753906 20.507812 16.796875 C 20.488281 16.847656 20.453125 16.957031 20.453125 16.957031 C 20.453125 16.957031 20.339844 17.019531 20.308594 17.054688 C 20.273438 17.09375 20.113281 17.113281 20.074219 17.148438 C 20.035156 17.179688 19.933594 17.269531 19.859375 17.511719 C 19.78125 17.582031 19.734375 17.675781 19.734375 17.675781 L 19.3125 17.25 C 19.3125 17.25 19.257812 17.082031 19.175781 17.054688 C 19.148438 17.046875 18.964844 16.980469 18.917969 16.964844 C 18.761719 16.90625 18.734375 16.949219 18.761719 16.996094 C 18.792969 17.035156 18.890625 17.082031 18.917969 17.09375 C 18.941406 17.109375 18.953125 17.277344 18.554688 17.210938 C 18.535156 17.207031 18.429688 17.140625 18.359375 17.113281 C 18.191406 17.0625 18.222656 17.222656 18.253906 17.253906 C 18.292969 17.28125 18.460938 17.460938 18.507812 17.46875 C 18.542969 17.480469 19.027344 17.503906 19.027344 17.503906 C 19.027344 17.503906 19.359375 18.121094 19.402344 18.179688 C 19.453125 18.246094 19.636719 18.417969 19.714844 18.433594 C 19.789062 18.449219 20.011719 18.371094 20.121094 18.171875 L 20.164062 18.984375 C 20.164062 18.984375 19.402344 19.148438 19.261719 19.261719 C 18.980469 19.488281 19.484375 20.339844 19.652344 20.570312 C 19.707031 20.640625 19.671875 20.664062 19.671875 20.664062 C 19.671875 20.664062 19.136719 20.949219 19.132812 20.976562 C 19.082031 20.957031 19.039062 20.992188 19.039062 20.992188 C 19.039062 20.992188 19.011719 21.023438 19.027344 21.046875 C 19.050781 21.0625 19.136719 21.125 19.207031 21.121094 C 19.273438 21.113281 19.648438 21.09375 19.742188 21.09375 C 19.828125 21.097656 19.9375 21.113281 19.996094 21.121094 C 20.050781 21.125 20.171875 21.175781 20.269531 21.121094 C 20.367188 21.066406 20.351562 20.976562 20.339844 20.882812 C 20.328125 20.796875 20.308594 20.449219 20.308594 20.449219 C 20.308594 20.449219 20.296875 20.039062 20.285156 19.988281 C 20.390625 20 20.558594 20.039062 20.589844 20.023438 C 20.644531 19.988281 20.699219 20.082031 20.699219 20.082031 C 20.699219 20.082031 20.875 20.214844 20.953125 20.207031 C 21.03125 20.1875 21.046875 20.183594 21.085938 20.066406 C 21.113281 20.027344 21.140625 20.039062 21.140625 20.144531 C 21.140625 20.253906 21.085938 21.238281 21.558594 21.222656 C 21.851562 21.210938 22.058594 21.070312 22.058594 21.070312 C 22.058594 21.070312 22.144531 21.183594 22.253906 21.140625 C 22.558594 21.035156 22.390625 20.765625 22.371094 20.726562 C 22.34375 20.683594 22.207031 20.386719 22.121094 20.382812 C 22.125 20.253906 22.101562 20.066406 22.082031 20.015625 C 22.097656 19.988281 22.144531 19.875 22.144531 19.828125 C 22.144531 19.773438 22.058594 19.496094 21.902344 19.328125 C 21.863281 19.070312 21.734375 18.671875 21.734375 18.671875 C 21.734375 18.671875 21.90625 18.734375 21.960938 18.742188 C 22.015625 18.746094 22.058594 18.726562 22.09375 18.679688 C 22.128906 18.636719 22.226562 18.507812 22.226562 18.507812 C 22.226562 18.507812 22.308594 18.304688 22.261719 18.101562 C 22.21875 17.902344 22.121094 17.566406 22.121094 17.566406 C 22.121094 17.566406 22.070312 17.25 21.914062 17.175781 C 21.75 17.105469 21.714844 17.109375 21.714844 17.109375 C 21.714844 17.109375 21.667969 17.039062 21.707031 17.023438 C 21.742188 17.011719 21.804688 16.964844 21.820312 16.949219 C 21.839844 16.925781 21.867188 16.8125 21.867188 16.8125 C 21.867188 16.8125 21.960938 16.765625 21.960938 16.496094 C 21.96875 16.496094 21.992188 16.3125 21.921875 16.222656 C 21.921875 16.140625 21.863281 16.09375 21.863281 16.09375 L 21.761719 15.980469 C 21.761719 15.980469 21.777344 15.84375 21.710938 15.828125 C 21.644531 15.8125 21.601562 15.796875 21.601562 15.796875 C 21.601562 15.796875 21.597656 15.652344 21.488281 15.632812 Z M 21.488281 15.632812 "/>
<path style=" stroke:none;fill-rule:nonzero;fill:rgb(9.019608%,9.803922%,11.372549%);fill-opacity:1;" d="M 20.628906 16.128906 C 20.675781 16.125 20.714844 16.210938 20.714844 16.226562 C 20.722656 16.242188 20.710938 16.242188 20.683594 16.238281 C 20.65625 16.238281 20.632812 16.183594 20.578125 16.183594 C 20.523438 16.1875 20.523438 16.226562 20.507812 16.222656 C 20.492188 16.222656 20.578125 16.128906 20.628906 16.128906 Z M 20.628906 16.128906 "/>
<path style=" stroke:none;fill-rule:nonzero;fill:rgb(9.019608%,9.803922%,11.372549%);fill-opacity:1;" d="M 21.03125 15.996094 C 21.085938 16.011719 21.105469 16.066406 21.105469 16.066406 C 21.105469 16.066406 21.050781 16.023438 21.003906 16.015625 C 20.960938 16.007812 20.9375 16.015625 20.9375 16.015625 C 20.9375 16.015625 20.953125 15.960938 21.03125 15.996094 Z M 21.03125 15.996094 "/>
<path style=" stroke:none;fill-rule:nonzero;fill:rgb(9.019608%,9.803922%,11.372549%);fill-opacity:1;" d="M 21.570312 16.421875 C 21.5625 16.40625 21.554688 16.394531 21.542969 16.394531 L 21.53125 16.394531 L 21.527344 16.398438 C 21.503906 16.425781 21.476562 16.4375 21.449219 16.4375 C 21.410156 16.4375 21.382812 16.414062 21.382812 16.414062 C 21.382812 16.414062 21.378906 16.492188 21.460938 16.492188 C 21.527344 16.492188 21.5625 16.4375 21.5625 16.4375 Z M 21.570312 16.421875 "/>
<path style=" stroke:none;fill-rule:nonzero;fill:rgb(9.019608%,9.803922%,11.372549%);fill-opacity:1;" d="M 21.125 17.632812 C 21.144531 17.605469 21.214844 17.667969 21.230469 17.652344 C 21.253906 17.636719 21.097656 17.460938 21.144531 17.421875 C 21.203125 17.382812 21.269531 17.519531 21.304688 17.496094 C 21.335938 17.46875 21.324219 17.460938 21.3125 17.4375 C 21.308594 17.425781 21.242188 17.304688 21.242188 17.304688 C 21.238281 17.296875 21.167969 17.183594 21.210938 17.164062 C 21.257812 17.148438 21.3125 17.226562 21.324219 17.238281 C 21.324219 17.246094 21.417969 17.40625 21.457031 17.390625 C 21.492188 17.367188 21.390625 17.125 21.390625 17.125 C 21.382812 17.097656 21.335938 17.039062 21.359375 17.019531 C 21.382812 17 21.40625 17.007812 21.472656 17.09375 C 21.476562 17.097656 21.644531 17.40625 21.667969 17.394531 C 21.667969 17.394531 21.671875 17.332031 21.644531 17.289062 C 21.679688 17.3125 21.742188 17.332031 21.738281 17.375 C 21.738281 17.394531 21.734375 17.523438 21.710938 17.554688 C 21.636719 17.640625 21.285156 17.761719 21.171875 17.746094 C 21.167969 17.734375 21.097656 17.664062 21.125 17.632812 Z M 21.820312 18.96875 L 21.769531 18.746094 L 21.75 18.664062 L 21.339844 17.910156 L 21.324219 17.886719 C 21.308594 17.875 21.296875 17.859375 21.265625 17.824219 C 21.253906 17.816406 21.257812 17.804688 21.277344 17.804688 C 21.417969 17.824219 21.667969 17.753906 21.722656 17.734375 C 21.738281 17.753906 22.136719 18.214844 22.164062 18.195312 C 22.195312 18.175781 21.765625 17.617188 21.765625 17.609375 C 21.765625 17.609375 21.804688 17.378906 21.792969 17.351562 C 21.777344 17.296875 21.664062 17.21875 21.613281 17.21875 L 21.609375 17.21875 C 21.601562 17.199219 21.589844 17.191406 21.585938 17.183594 L 21.582031 17.175781 C 21.546875 17.121094 21.527344 17.082031 21.511719 17.054688 C 21.585938 17.082031 21.667969 17.105469 21.671875 17.109375 L 21.714844 17.113281 L 21.765625 17.050781 L 21.433594 16.9375 C 21.40625 16.933594 21.375 16.867188 21.367188 16.8125 C 21.367188 16.777344 21.601562 16.550781 21.558594 16.539062 C 21.464844 16.507812 21.253906 16.734375 21.25 16.800781 C 21.242188 16.847656 21.269531 16.941406 21.308594 16.980469 C 21.292969 16.996094 21.285156 17.019531 21.285156 17.046875 C 20.875 17.070312 20.722656 17.21875 20.703125 17.292969 C 20.703125 17.292969 21.035156 17.164062 21.152344 17.148438 C 21.074219 17.21875 21.199219 17.355469 21.199219 17.355469 C 21.183594 17.351562 21.144531 17.324219 21.101562 17.351562 C 21.027344 17.417969 21.101562 17.539062 21.117188 17.566406 C 21.085938 17.566406 21.0625 17.578125 21.050781 17.589844 C 21.015625 17.636719 21.089844 17.730469 21.144531 17.792969 C 21.171875 17.820312 21.050781 17.816406 20.703125 17.554688 C 20.714844 17.804688 21.132812 17.953125 21.265625 17.953125 C 21.265625 17.960938 21.796875 18.933594 21.820312 18.96875 Z M 21.820312 18.96875 "/>
<path style=" stroke:none;fill-rule:nonzero;fill:rgb(9.019608%,9.803922%,11.372549%);fill-opacity:1;" d="M 20.148438 18.933594 L 20.089844 18.972656 L 20.003906 19.019531 C 20.019531 19.058594 20.363281 19.882812 20.710938 20.140625 L 20.722656 20.113281 C 20.257812 19.488281 20.15625 18.933594 20.148438 18.933594 Z M 20.148438 18.933594 "/>
<path style=" stroke:none;fill-rule:nonzero;fill:rgb(9.019608%,9.803922%,11.372549%);fill-opacity:1;" d="M 21.4375 19.355469 C 21.230469 19.386719 21.078125 20.070312 21.078125 20.070312 C 21.128906 20.007812 21.132812 20.113281 21.132812 20.113281 C 21.132812 20.113281 21.304688 19.53125 21.445312 19.472656 C 21.597656 19.414062 21.816406 19.441406 21.816406 19.441406 C 21.816406 19.441406 21.644531 19.324219 21.4375 19.355469 Z M 21.4375 19.355469 "/>
<path style=" stroke:none;fill-rule:nonzero;fill:rgb(9.019608%,9.803922%,11.372549%);fill-opacity:1;" d="M 19.828125 18.277344 C 19.851562 18.261719 19.769531 17.609375 19.769531 17.609375 L 19.734375 17.640625 L 19.6875 17.609375 C 19.660156 17.667969 19.800781 18.289062 19.828125 18.277344 Z M 19.828125 18.277344 "/>
<path style=" stroke:none;fill-rule:nonzero;fill:rgb(9.019608%,9.803922%,11.372549%);fill-opacity:1;" d="M 19.980469 17.753906 L 20.03125 18.285156 L 20.121094 18.234375 L 20.09375 17.847656 C 20.09375 17.847656 20.144531 17.867188 20.160156 17.851562 C 20.175781 17.835938 20.085938 17.761719 20.078125 17.660156 C 20.078125 17.589844 20.160156 17.496094 20.144531 17.492188 C 20.128906 17.480469 20.101562 17.507812 20.101562 17.507812 C 20.105469 17.445312 20.113281 17.375 20.117188 17.332031 C 20.121094 17.265625 20.210938 17.136719 20.210938 17.136719 C 20.019531 17.199219 19.980469 17.417969 19.980469 17.417969 L 19.96875 17.582031 C 19.96875 17.589844 19.953125 17.636719 19.953125 17.675781 C 19.953125 17.710938 19.980469 17.753906 19.980469 17.753906 Z M 19.980469 17.753906 "/>
<path style=" stroke:none;fill-rule:nonzero;fill:rgb(9.019608%,9.803922%,11.372549%);fill-opacity:1;" d="M 22.125 20.316406 C 22.125 20.316406 22.121094 20.957031 21.984375 21.121094 L 22.058594 21.121094 C 22.085938 21.097656 22.140625 20.894531 22.164062 20.8125 C 22.183594 20.726562 22.179688 20.371094 22.179688 20.371094 C 22.179688 20.371094 22.125 20.316406 22.125 20.316406 Z M 22.125 20.316406 "/>
<path style=" stroke:none;fill-rule:nonzero;fill:rgb(9.019608%,9.803922%,11.372549%);fill-opacity:1;" d="M 19.753906 19.433594 C 19.726562 19.570312 20.289062 20.085938 20.289062 20.085938 L 20.441406 20.015625 C 20.449219 20.015625 19.914062 19.628906 19.753906 19.433594 Z M 19.753906 19.433594 "/>
<path style=" stroke:none;fill-rule:nonzero;fill:rgb(9.019608%,9.803922%,11.372549%);fill-opacity:1;" d="M 21.296875 15.871094 C 21.304688 15.882812 21.304688 15.925781 21.296875 15.957031 C 21.296875 15.960938 21.28125 16.027344 21.367188 16.070312 C 21.421875 16.097656 21.457031 16.144531 21.484375 16.179688 C 21.484375 16.183594 21.488281 16.195312 21.492188 16.199219 C 21.511719 16.214844 21.515625 16.230469 21.503906 16.269531 C 21.5 16.292969 21.488281 16.300781 21.484375 16.3125 C 21.472656 16.316406 21.460938 16.328125 21.472656 16.34375 L 21.472656 16.351562 C 21.476562 16.371094 21.488281 16.414062 21.53125 16.429688 C 21.542969 16.4375 21.5625 16.46875 21.535156 16.539062 L 21.53125 16.558594 C 21.503906 16.636719 21.527344 16.8125 21.570312 16.800781 C 21.617188 16.792969 21.609375 16.636719 21.617188 16.613281 C 21.644531 16.582031 21.667969 16.484375 21.65625 16.429688 C 21.652344 16.414062 21.644531 16.398438 21.636719 16.394531 C 21.589844 16.367188 21.582031 16.34375 21.582031 16.339844 C 21.582031 16.339844 21.585938 16.328125 21.589844 16.324219 C 21.601562 16.3125 21.613281 16.296875 21.617188 16.28125 C 21.636719 16.25 21.625 16.199219 21.609375 16.167969 C 21.597656 16.136719 21.515625 16.039062 21.464844 16.023438 C 21.429688 16.007812 21.40625 15.984375 21.40625 15.960938 L 21.40625 15.917969 C 21.410156 15.886719 21.417969 15.851562 21.402344 15.832031 C 21.265625 15.644531 21.0625 15.667969 21.0625 15.667969 L 20.976562 15.761719 C 20.976562 15.761719 21.128906 15.683594 21.296875 15.871094 Z M 21.296875 15.871094 "/>
<path style=" stroke:none;fill-rule:nonzero;fill:rgb(9.019608%,9.803922%,11.372549%);fill-opacity:1;" d="M 20.214844 17.089844 C 20.242188 17.105469 20.371094 17.125 20.613281 17.269531 C 20.644531 17.210938 20.394531 17.078125 20.28125 17.039062 C 20.210938 17.039062 20.203125 17.050781 20.199219 17.054688 C 20.203125 17.066406 20.203125 17.078125 20.214844 17.089844 Z M 20.214844 17.089844 "/>
<path style=" stroke:none;fill-rule:nonzero;fill:rgb(9.019608%,9.803922%,11.372549%);fill-opacity:1;" d="M 19.496094 20.75 C 19.285156 20.464844 18.828125 20.453125 18.675781 20.59375 C 18.664062 20.585938 18.660156 20.582031 18.652344 20.578125 C 18.585938 20.527344 18.402344 20.414062 18.316406 20.367188 C 18.175781 20.222656 18.113281 20.183594 18.085938 20.167969 C 17.972656 20.101562 17.75 20.023438 17.566406 19.980469 C 17.527344 19.585938 17.492188 19.488281 17.472656 19.453125 C 17.476562 19.441406 17.519531 19.089844 17.511719 18.871094 C 17.628906 18.890625 17.789062 18.917969 17.914062 18.917969 C 17.984375 18.917969 18.042969 18.90625 18.085938 18.890625 C 18.210938 18.859375 18.414062 18.789062 18.496094 18.65625 L 18.515625 18.628906 L 18.527344 18.59375 C 18.535156 18.570312 18.59375 18.308594 18.433594 18.0625 C 18.328125 17.894531 18.027344 17.589844 17.863281 17.425781 L 17.875 17.246094 C 17.878906 17.167969 17.859375 17.09375 17.773438 17 C 17.746094 16.976562 17.542969 16.75 17.488281 16.714844 C 17.433594 16.683594 17.347656 16.65625 17.269531 16.65625 C 17.25 16.65625 17.222656 16.664062 17.199219 16.667969 C 17.003906 16.710938 17.019531 17.007812 17.03125 17.035156 C 17.003906 17.019531 16.976562 17.007812 16.949219 16.996094 C 16.882812 16.921875 16.785156 16.878906 16.6875 16.863281 C 16.632812 16.824219 16.5625 16.785156 16.464844 16.785156 L 16.445312 16.785156 C 16.320312 16.792969 16.3125 16.808594 16.253906 16.855469 C 16.160156 16.878906 16.074219 16.933594 16.007812 17.011719 C 15.953125 17.039062 15.890625 17.09375 15.835938 17.183594 C 15.78125 17.234375 15.714844 17.308594 15.664062 17.445312 L 15.648438 17.492188 C 15.605469 17.605469 15.550781 17.734375 15.589844 17.875 L 15.589844 17.886719 C 15.480469 17.910156 15.328125 17.976562 15.242188 18.144531 C 15.203125 18.21875 15.164062 18.316406 15.132812 18.402344 C 15.082031 18.40625 14.535156 18.472656 14.542969 18.730469 C 14.550781 18.8125 14.589844 18.890625 14.664062 18.941406 C 14.609375 19.027344 14.609375 19.117188 14.652344 19.191406 C 14.695312 19.261719 14.746094 19.3125 14.8125 19.339844 C 14.832031 19.402344 14.859375 19.46875 14.910156 19.527344 C 14.964844 19.597656 15.023438 19.644531 15.074219 19.683594 C 14.96875 19.714844 14.859375 19.765625 14.757812 19.839844 C 14.605469 19.941406 14.375 20.164062 14.570312 20.511719 C 14.605469 20.566406 14.703125 20.671875 15.179688 21.140625 C 15.164062 21.15625 14.785156 21.847656 15.40625 21.878906 C 15.546875 22.109375 16.03125 21.777344 16.046875 21.765625 C 16.085938 21.773438 16.730469 21.777344 16.558594 21.28125 C 16.605469 21.277344 16.832031 21.210938 16.839844 21.210938 C 16.910156 21.246094 17.074219 21.308594 17.167969 21.3125 C 17.210938 21.320312 17.28125 21.324219 17.332031 21.324219 C 17.394531 21.324219 17.558594 21.320312 17.636719 21.304688 C 17.65625 21.304688 17.679688 21.292969 17.707031 21.292969 C 17.773438 21.402344 17.878906 21.535156 18.015625 21.609375 C 18.179688 21.703125 18.550781 21.867188 18.675781 21.921875 C 18.703125 21.945312 18.964844 22.160156 19.136719 22.160156 C 19.6875 22.160156 19.519531 21.664062 19.523438 21.636719 C 19.566406 21.507812 19.648438 20.953125 19.496094 20.75 Z M 19.496094 20.75 "/>
<path style=" stroke:none;fill-rule:nonzero;fill:rgb(73.72549%,72.54902%,71.764706%);fill-opacity:1;" d="M 17.566406 18.128906 C 17.542969 18.101562 17.324219 18.046875 17.238281 18.035156 C 17.210938 18.007812 17.113281 17.976562 17.113281 17.976562 C 17.109375 17.976562 17.242188 17.878906 17.242188 17.808594 C 17.144531 17.335938 16.988281 17.304688 16.988281 17.304688 C 16.988281 17.304688 16.9375 17.195312 16.796875 17.179688 C 16.777344 17.078125 16.578125 17.0625 16.578125 17.0625 C 16.578125 17.0625 16.527344 16.996094 16.449219 16.996094 C 16.390625 17 16.375 17.027344 16.339844 17.0625 C 16.339844 17.0625 16.222656 17.046875 16.144531 17.179688 C 16.144531 17.179688 16.046875 17.199219 15.992188 17.335938 C 15.992188 17.335938 15.921875 17.351562 15.855469 17.511719 C 15.8125 17.625 15.765625 17.738281 15.785156 17.820312 C 15.808594 17.902344 15.878906 17.988281 15.878906 17.988281 C 15.878906 17.988281 15.8125 18.039062 15.742188 18.0625 C 15.671875 18.085938 15.496094 18.101562 15.425781 18.238281 C 15.355469 18.378906 15.261719 18.648438 15.261719 18.648438 C 15.261719 18.648438 15.21875 18.621094 15.171875 18.617188 C 15.121094 18.613281 14.914062 18.621094 14.867188 18.65625 C 14.839844 18.671875 14.75 18.679688 14.75 18.71875 C 14.757812 18.816406 14.921875 18.785156 14.921875 18.785156 L 14.882812 19 C 14.882812 19 14.8125 19.0625 14.832031 19.089844 C 14.847656 19.125 14.882812 19.132812 14.902344 19.128906 C 14.929688 19.125 14.976562 19.074219 14.976562 19.074219 C 14.976562 19.074219 14.976562 19.277344 15.066406 19.398438 C 15.160156 19.515625 15.269531 19.558594 15.269531 19.558594 C 15.269531 19.558594 15.339844 19.585938 15.398438 19.558594 C 15.464844 19.53125 15.578125 19.441406 15.589844 19.410156 C 15.601562 19.371094 15.628906 19.253906 15.628906 19.253906 C 15.628906 19.253906 15.675781 19.0625 15.703125 19.0625 C 15.726562 19.058594 15.746094 19.085938 15.746094 19.085938 L 15.746094 19.46875 C 15.746094 19.46875 15.59375 19.753906 15.59375 19.828125 C 15.511719 19.832031 15.164062 19.796875 14.867188 20.011719 C 14.621094 20.179688 14.707031 20.328125 14.75 20.410156 C 14.796875 20.492188 15.546875 21.207031 15.566406 21.234375 C 15.558594 21.253906 15.578125 21.289062 15.546875 21.289062 L 15.464844 21.289062 C 15.464844 21.289062 15.351562 21.246094 15.328125 21.289062 C 15.285156 21.394531 15.40625 21.382812 15.410156 21.40625 C 15.410156 21.421875 15.3125 21.390625 15.296875 21.449219 C 15.273438 21.511719 15.296875 21.582031 15.34375 21.636719 C 15.378906 21.679688 15.453125 21.660156 15.476562 21.667969 C 15.496094 21.675781 15.507812 21.710938 15.566406 21.730469 C 15.699219 21.777344 15.988281 21.546875 16.023438 21.550781 C 16.167969 21.621094 16.335938 21.492188 16.339844 21.410156 C 16.351562 21.335938 16.339844 21.292969 16.3125 21.234375 C 16.285156 21.175781 16.195312 21.078125 16.195312 21.078125 C 16.195312 21.078125 16.300781 21.046875 16.328125 21.035156 C 16.328125 21.035156 16.347656 21.023438 16.382812 21.039062 C 16.421875 21.054688 16.585938 21.089844 16.632812 21.082031 C 16.683594 21.082031 16.875 20.996094 16.902344 21.011719 C 16.929688 21.023438 17.113281 21.105469 17.179688 21.109375 C 17.25 21.113281 17.511719 21.113281 17.585938 21.097656 C 17.65625 21.089844 17.804688 21.046875 17.804688 21.046875 C 17.804688 21.046875 17.925781 21.324219 18.109375 21.425781 C 18.292969 21.535156 18.792969 21.75 18.792969 21.75 C 18.792969 21.75 18.996094 21.949219 19.125 21.949219 C 19.257812 21.949219 19.289062 21.84375 19.289062 21.816406 C 19.289062 21.789062 19.285156 21.648438 19.3125 21.574219 C 19.339844 21.496094 19.359375 21.277344 19.367188 21.167969 C 19.375 21.066406 19.410156 20.777344 19.132812 20.734375 C 19.082031 20.726562 18.984375 20.710938 18.96875 20.710938 C 18.929688 20.710938 18.945312 20.808594 18.9375 20.769531 C 18.917969 20.726562 18.871094 20.714844 18.855469 20.722656 C 18.800781 20.75 18.777344 20.792969 18.777344 20.8125 C 18.785156 20.855469 18.800781 20.976562 18.800781 20.976562 C 18.804688 20.976562 18.570312 20.792969 18.511719 20.738281 C 18.445312 20.691406 18.175781 20.535156 18.175781 20.535156 C 18.175781 20.535156 18.027344 20.378906 17.976562 20.363281 C 17.957031 20.328125 17.566406 20.15625 17.359375 20.15625 C 17.351562 20 17.339844 19.628906 17.253906 19.453125 C 17.253906 19.402344 17.308594 18.886719 17.277344 18.75 C 17.265625 18.6875 17.351562 18.644531 17.402344 18.644531 C 17.449219 18.644531 17.898438 18.742188 18.015625 18.691406 C 18.015625 18.691406 18.253906 18.632812 18.308594 18.546875 C 18.308594 18.546875 18.355469 18.351562 18.238281 18.179688 C 18.125 18.003906 17.726562 17.597656 17.625 17.511719 C 17.640625 17.410156 17.644531 17.226562 17.644531 17.226562 C 17.644531 17.226562 17.644531 17.191406 17.625 17.164062 C 17.59375 17.136719 17.414062 16.933594 17.386719 16.910156 C 17.367188 16.890625 17.289062 16.863281 17.25 16.871094 C 17.214844 16.882812 17.226562 16.953125 17.25 16.976562 C 17.269531 16.996094 17.320312 17.039062 17.320312 17.039062 L 17.351562 17.121094 C 17.351562 17.121094 17.316406 17.136719 17.308594 17.152344 C 17.304688 17.167969 17.304688 17.261719 17.316406 17.28125 C 17.324219 17.304688 17.367188 17.308594 17.367188 17.308594 C 17.367188 17.308594 17.332031 17.398438 17.292969 17.398438 C 17.253906 17.351562 17.199219 17.207031 17.152344 17.253906 C 17.128906 17.28125 17.113281 17.320312 17.128906 17.355469 C 17.140625 17.394531 17.207031 17.582031 17.238281 17.621094 C 17.269531 17.652344 17.296875 17.667969 17.296875 17.667969 C 17.304688 17.667969 17.554688 18.058594 17.566406 18.128906 Z M 17.566406 18.128906 "/>
<path style=" stroke:none;fill-rule:nonzero;fill:rgb(9.019608%,9.803922%,11.372549%);fill-opacity:1;" d="M 15.164062 19.996094 C 15.523438 19.957031 16.175781 21.0625 16.199219 21.082031 C 16.226562 21.105469 16.265625 21.054688 16.265625 21.054688 C 16.238281 21.007812 15.664062 19.839844 15.164062 19.996094 Z M 15.164062 19.996094 "/>
<path style=" stroke:none;fill-rule:nonzero;fill:rgb(9.019608%,9.803922%,11.372549%);fill-opacity:1;" d="M 15.121094 18.832031 C 15.1875 18.820312 15.289062 18.699219 15.273438 18.691406 C 15.257812 18.6875 15.203125 18.769531 15.105469 18.769531 C 15.078125 18.769531 15.039062 18.761719 14.996094 18.75 L 14.992188 18.75 C 14.980469 18.773438 14.894531 18.785156 14.894531 18.785156 L 14.902344 18.835938 L 14.984375 18.816406 C 14.996094 18.820312 15.054688 18.835938 15.121094 18.832031 Z M 15.121094 18.832031 "/>
<path style=" stroke:none;fill-rule:nonzero;fill:rgb(9.019608%,9.803922%,11.372549%);fill-opacity:1;" d="M 15.660156 18.164062 C 15.585938 18.175781 15.671875 19.183594 15.671875 19.183594 L 15.746094 19.085938 C 15.738281 19.027344 15.730469 18.730469 15.730469 18.6875 C 15.757812 18.707031 16.105469 18.632812 16.183594 18.503906 C 16.183594 18.503906 15.9375 18.546875 15.878906 18.535156 C 15.769531 18.519531 15.742188 18.472656 15.730469 18.4375 C 15.738281 18.429688 15.691406 18.164062 15.660156 18.164062 Z M 15.660156 18.164062 "/>
<path style=" stroke:none;fill-rule:nonzero;fill:rgb(9.019608%,9.803922%,11.372549%);fill-opacity:1;" d="M 15.617188 19.757812 L 15.546875 19.808594 C 16.042969 20.066406 16.339844 21.023438 16.347656 21.027344 L 16.347656 21.039062 L 16.503906 21.09375 C 16.503906 21.09375 16.128906 19.984375 15.617188 19.757812 Z M 15.617188 19.757812 "/>
<path style=" stroke:none;fill-rule:nonzero;fill:rgb(9.019608%,9.803922%,11.372549%);fill-opacity:1;" d="M 16.78125 21.039062 C 16.804688 21.070312 16.917969 21.011719 16.917969 21.011719 L 16.917969 21.003906 C 16.917969 21.003906 16.902344 20.539062 17.277344 20.1875 C 17.28125 20.1875 16.867188 20.269531 16.78125 21.039062 Z M 16.78125 21.039062 "/>
<path style=" stroke:none;fill-rule:nonzero;fill:rgb(9.019608%,9.803922%,11.372549%);fill-opacity:1;" d="M 18.804688 20.957031 L 18.714844 20.894531 C 18.714844 20.894531 18.761719 21.105469 18.757812 21.195312 C 18.757812 21.207031 18.75 21.210938 18.746094 21.21875 L 18.734375 21.226562 C 18.703125 21.265625 18.722656 21.40625 18.722656 21.40625 C 18.722656 21.40625 18.765625 21.324219 18.8125 21.277344 L 18.820312 21.265625 C 18.839844 21.25 18.84375 21.234375 18.832031 21.152344 C 18.832031 21.125 18.8125 20.957031 18.804688 20.957031 Z M 18.804688 20.957031 "/>
<path style=" stroke:none;fill-rule:nonzero;fill:rgb(9.019608%,9.803922%,11.372549%);fill-opacity:1;" d="M 17.332031 18.152344 C 17.316406 18.160156 17.28125 18.402344 17.28125 18.433594 C 17.28125 18.4375 17.269531 18.59375 17.089844 18.570312 C 16.917969 18.542969 16.839844 18.503906 16.839844 18.503906 C 16.90625 18.632812 17.199219 18.691406 17.277344 18.792969 C 17.289062 18.816406 17.304688 18.929688 17.304688 18.941406 L 17.363281 18.941406 L 17.363281 18.742188 L 17.421875 18.726562 C 17.394531 18.300781 17.347656 18.152344 17.332031 18.152344 Z M 17.332031 18.152344 "/>
<path style=" stroke:none;fill-rule:nonzero;fill:rgb(9.019608%,9.803922%,11.372549%);fill-opacity:1;" d="M 16.121094 17.976562 C 16.015625 17.976562 15.855469 17.992188 15.851562 17.992188 L 15.671875 18.03125 L 15.726562 18.066406 C 15.730469 18.066406 15.960938 18.019531 16.117188 18.019531 C 16.140625 18.019531 16.160156 18.023438 16.175781 18.03125 C 16.3125 18.058594 16.472656 18.109375 16.476562 18.089844 C 16.476562 18.066406 16.285156 17.996094 16.195312 17.980469 C 16.175781 17.976562 16.148438 17.976562 16.121094 17.976562 Z M 16.121094 17.976562 "/>
<path style=" stroke:none;fill-rule:nonzero;fill:rgb(9.019608%,9.803922%,11.372549%);fill-opacity:1;" d="M 17.28125 18.039062 L 17.292969 18.03125 L 17.296875 18.023438 L 17.304688 18.015625 L 17.296875 18.003906 L 17.226562 17.960938 L 16.878906 17.960938 C 16.792969 17.964844 16.527344 18.066406 16.542969 18.089844 C 16.558594 18.105469 16.753906 18.03125 16.882812 18.007812 C 17.027344 17.992188 17.269531 18.039062 17.28125 18.039062 Z M 17.28125 18.039062 "/>
<path style=" stroke:none;fill-rule:nonzero;fill:rgb(9.019608%,9.803922%,11.372549%);fill-opacity:1;" d="M 17.003906 17.390625 C 17.074219 17.320312 16.9375 17.238281 16.9375 17.226562 C 16.9375 17.226562 17.03125 17.347656 16.957031 17.3125 C 16.890625 17.210938 16.640625 17.140625 16.632812 17.132812 C 16.617188 17.113281 16.667969 17.070312 16.804688 17.175781 C 16.808594 17.15625 16.726562 17.078125 16.605469 17.089844 C 16.605469 17.070312 16.597656 17.050781 16.585938 17.046875 L 16.570312 17.046875 C 16.578125 17.054688 16.597656 17.089844 16.578125 17.089844 C 16.550781 17.09375 16.542969 17.050781 16.535156 17.046875 C 16.527344 17.023438 16.464844 17.050781 16.5 17.078125 C 16.507812 17.089844 16.527344 17.09375 16.535156 17.097656 C 16.550781 17.109375 16.546875 17.121094 16.53125 17.109375 C 16.515625 17.105469 16.492188 17.097656 16.464844 17.097656 C 16.4375 17.097656 16.417969 17.109375 16.394531 17.121094 C 16.382812 17.121094 16.375 17.113281 16.382812 17.105469 C 16.394531 17.097656 16.410156 17.09375 16.421875 17.089844 C 16.464844 17.050781 16.390625 16.996094 16.375 17.078125 C 16.363281 17.09375 16.355469 17.097656 16.347656 17.105469 C 16.3125 17.105469 16.351562 17.050781 16.347656 17.050781 C 16.347656 17.050781 16.347656 17.054688 16.339844 17.054688 C 16.328125 17.066406 16.320312 17.078125 16.3125 17.09375 C 16.300781 17.09375 16.167969 17.097656 16.144531 17.175781 C 16.246094 17.097656 16.300781 17.105469 16.296875 17.136719 C 16.292969 17.148438 16.171875 17.21875 16.121094 17.265625 C 16.078125 17.292969 16.023438 17.363281 16.015625 17.363281 C 15.992188 17.367188 15.992188 17.332031 16.015625 17.277344 C 15.953125 17.339844 15.964844 17.390625 15.980469 17.417969 C 15.949219 17.492188 15.953125 17.589844 15.996094 17.664062 C 16.035156 17.730469 16.257812 17.917969 16.28125 17.90625 C 16.296875 17.894531 16.046875 17.675781 16.023438 17.578125 C 15.988281 17.355469 16.292969 17.15625 16.394531 17.148438 C 16.398438 17.148438 16.410156 17.175781 16.464844 17.167969 C 16.535156 17.167969 16.546875 17.148438 16.546875 17.148438 C 16.625 17.136719 17 17.277344 16.960938 17.550781 C 16.945312 17.636719 16.910156 17.738281 16.929688 17.75 C 16.945312 17.761719 16.960938 17.710938 16.992188 17.636719 C 17.042969 17.5625 17.042969 17.464844 17.003906 17.390625 Z M 17.003906 17.390625 "/>
<path style=" stroke:none;fill-rule:nonzero;fill:rgb(9.019608%,9.803922%,11.372549%);fill-opacity:1;" d="M 17.984375 18.617188 C 17.933594 18.5625 17.53125 18.085938 17.53125 18.085938 C 17.53125 18.078125 17.519531 18.0625 17.503906 18.0625 C 17.5 18.0625 17.445312 18.066406 17.445312 18.078125 C 17.53125 18.21875 17.722656 18.4375 17.851562 18.546875 C 17.917969 18.601562 17.96875 18.628906 17.984375 18.617188 Z M 17.984375 18.617188 "/>
<path style=" stroke:none;fill-rule:nonzero;fill:rgb(9.019608%,9.803922%,11.372549%);fill-opacity:1;" d="M 15.511719 21.203125 C 15.535156 21.226562 15.566406 21.277344 15.566406 21.277344 C 15.566406 21.277344 15.617188 21.15625 15.703125 21.109375 C 15.785156 21.066406 15.933594 21.003906 15.996094 20.996094 C 15.753906 20.9375 15.523438 21.113281 15.511719 21.203125 Z M 15.511719 21.203125 "/>
<path style=" stroke:none;fill-rule:nonzero;fill:rgb(9.019608%,9.803922%,11.372549%);fill-opacity:1;" d="M 15.394531 19.257812 C 15.4375 19.261719 15.449219 19.21875 15.453125 19.171875 L 15.457031 19.160156 C 15.457031 19.160156 15.503906 19.125 15.53125 19.035156 C 15.550781 19.148438 15.609375 19.382812 15.566406 19.441406 L 15.503906 19.503906 L 15.574219 19.46875 C 15.601562 19.457031 15.644531 19.410156 15.628906 19.328125 C 15.621094 19.285156 15.550781 18.925781 15.550781 18.925781 L 15.550781 18.90625 C 15.546875 18.859375 15.53125 18.816406 15.503906 18.777344 C 15.457031 18.71875 15.386719 18.6875 15.339844 18.679688 C 15.339844 18.679688 15.53125 18.8125 15.507812 18.941406 C 15.484375 19.070312 15.457031 19.078125 15.457031 19.078125 L 15.433594 19.054688 L 15.433594 19.125 C 15.425781 19.160156 15.414062 19.175781 15.386719 19.175781 C 15.316406 19.175781 15.261719 19.273438 15.1875 19.253906 C 15.109375 19.230469 15.074219 19.171875 15.027344 19.132812 C 14.984375 19.101562 15.050781 19.035156 15.050781 19.035156 C 15.050781 19.035156 15.046875 19.015625 15.027344 19 C 15.007812 18.988281 14.976562 19.070312 14.976562 19.070312 C 14.976562 19.070312 14.929688 19.183594 14.992188 19.21875 C 15.101562 19.289062 15.066406 19.289062 15.1875 19.328125 C 15.304688 19.359375 15.296875 19.257812 15.394531 19.257812 Z M 15.394531 19.257812 "/>
<path style=" stroke:none;fill-rule:nonzero;fill:rgb(9.019608%,9.803922%,11.372549%);fill-opacity:1;" d="M 20.5625 15.769531 C 20.480469 15.769531 20.382812 15.71875 20.355469 15.582031 C 20.351562 15.554688 20.28125 15.390625 20.214844 15.253906 C 19.871094 14.449219 19.898438 14.746094 19.933594 14.617188 C 19.992188 14.386719 20.308594 14.359375 20.542969 14.359375 C 20.59375 14.359375 20.640625 14.363281 20.65625 14.363281 C 20.769531 14.363281 20.867188 14.40625 20.945312 14.480469 C 21.074219 14.605469 21.105469 14.792969 21.105469 14.878906 C 21.105469 14.886719 20.933594 15.402344 20.847656 15.558594 L 20.839844 15.5625 C 20.710938 15.769531 20.59375 15.769531 20.5625 15.769531 Z M 20.5625 15.769531 "/>
<path style=" stroke:none;fill-rule:nonzero;fill:rgb(73.72549%,72.54902%,71.764706%);fill-opacity:1;" d="M 20.644531 14.542969 C 20.644531 14.542969 20.136719 14.507812 20.101562 14.660156 C 20.0625 14.8125 20.421875 15.390625 20.53125 15.554688 C 20.605469 15.667969 20.6875 15.476562 20.6875 15.476562 C 20.742188 15.382812 20.921875 14.945312 20.921875 14.878906 C 20.921875 14.800781 20.875 14.535156 20.644531 14.542969 Z M 20.644531 14.542969 "/>
<path style=" stroke:none;fill-rule:nonzero;fill:rgb(9.019608%,9.803922%,11.372549%);fill-opacity:1;" d="M 6.339844 9.589844 C 6.339844 9.589844 7.742188 9.675781 7.988281 11.242188 C 8.070312 10.957031 7.75 10.003906 7.347656 9.777344 C 7.300781 9.75 7.128906 9.664062 7.257812 9.382812 C 6.785156 9.3125 6.339844 9.589844 6.339844 9.589844 Z M 6.339844 9.589844 "/>
<path style=" stroke:none;fill-rule:nonzero;fill:rgb(9.019608%,9.803922%,11.372549%);fill-opacity:1;" d="M 13.039062 10.222656 C 13.039062 10.222656 13.898438 9.902344 14.097656 11.261719 C 14.191406 10.765625 14.078125 10.175781 13.730469 9.992188 C 13.378906 9.816406 13.039062 10.222656 13.039062 10.222656 Z M 13.039062 10.222656 "/>
<path style=" stroke:none;fill-rule:nonzero;fill:rgb(9.019608%,9.803922%,11.372549%);fill-opacity:1;" d="M 9 11.683594 C 9 11.683594 9.085938 11.96875 9.175781 12.027344 C 9.265625 12.082031 9.507812 11.730469 9.507812 11.730469 C 9.507812 11.730469 9.335938 12.152344 9.195312 12.257812 C 9.078125 12.171875 9.027344 12.066406 9 11.683594 Z M 9 11.683594 "/>
<path style=" stroke:none;fill-rule:nonzero;fill:rgb(9.019608%,9.803922%,11.372549%);fill-opacity:1;" d="M 9.347656 12.003906 C 9.347656 12.003906 9.484375 12.285156 9.578125 12.34375 C 9.667969 12.398438 9.882812 12.058594 9.882812 12.058594 C 9.875 12.058594 9.691406 12.496094 9.59375 12.578125 C 9.507812 12.5 9.335938 12.398438 9.347656 12.003906 Z M 9.347656 12.003906 "/>
<path style=" stroke:none;fill-rule:nonzero;fill:rgb(9.019608%,9.803922%,11.372549%);fill-opacity:1;" d="M 8.546875 12.484375 C 8.546875 12.484375 8.71875 12.792969 8.816406 12.835938 C 8.988281 12.898438 9 12.453125 9 12.453125 C 9 12.453125 9.070312 12.949219 8.886719 13.109375 C 8.726562 13.023438 8.640625 12.964844 8.546875 12.484375 Z M 8.546875 12.484375 "/>
<path style=" stroke:none;fill-rule:nonzero;fill:rgb(9.019608%,9.803922%,11.372549%);fill-opacity:1;" d="M 8.976562 12.308594 C 8.976562 12.308594 9.070312 12.578125 9.152344 12.640625 C 9.238281 12.707031 9.417969 12.222656 9.417969 12.222656 C 9.417969 12.222656 9.359375 12.695312 9.222656 12.933594 C 9.136719 12.835938 8.988281 12.683594 8.976562 12.308594 Z M 8.976562 12.308594 "/>
<path style=" stroke:none;fill-rule:nonzero;fill:rgb(9.019608%,9.803922%,11.372549%);fill-opacity:1;" d="M 9.328125 12.527344 C 9.328125 12.539062 9.488281 12.78125 9.59375 12.824219 C 9.695312 12.867188 9.761719 12.457031 9.761719 12.457031 C 9.761719 12.457031 9.789062 12.925781 9.667969 13.0625 C 9.59375 13.011719 9.359375 12.894531 9.328125 12.527344 Z M 9.328125 12.527344 "/>
<path style=" stroke:none;fill-rule:nonzero;fill:rgb(9.019608%,9.803922%,11.372549%);fill-opacity:1;" d="M 9.417969 11.386719 C 9.417969 11.386719 9.582031 11.746094 9.6875 11.800781 C 9.792969 11.855469 9.953125 11.472656 9.953125 11.472656 C 9.953125 11.472656 9.871094 11.894531 9.679688 12.023438 C 9.550781 11.914062 9.511719 11.839844 9.417969 11.386719 Z M 9.417969 11.386719 "/>
<path style=" stroke:none;fill-rule:nonzero;fill:rgb(9.019608%,9.803922%,11.372549%);fill-opacity:1;" d="M 9.148438 11.074219 C 9.148438 11.074219 9.25 11.34375 9.335938 11.386719 C 9.429688 11.433594 9.585938 11.074219 9.585938 11.074219 C 9.585938 11.074219 9.496094 11.539062 9.347656 11.675781 C 9.25 11.601562 9.207031 11.472656 9.148438 11.074219 Z M 9.148438 11.074219 "/>
<path style=" stroke:none;fill-rule:nonzero;fill:rgb(9.019608%,9.803922%,11.372549%);fill-opacity:1;" d="M 9.703125 10.984375 C 9.703125 10.984375 9.789062 11.214844 9.863281 11.261719 C 9.941406 11.3125 10.066406 11.105469 10.066406 11.105469 C 10.0625 11.105469 10.019531 11.429688 9.871094 11.472656 C 9.8125 11.425781 9.746094 11.316406 9.703125 10.984375 Z M 9.703125 10.984375 "/>
<path style=" stroke:none;fill-rule:nonzero;fill:rgb(9.019608%,9.803922%,11.372549%);fill-opacity:1;" d="M 10.132812 10.703125 C 10.132812 10.703125 10.179688 10.921875 10.246094 10.972656 C 10.3125 11.015625 10.429688 10.816406 10.429688 10.816406 C 10.429688 10.816406 10.414062 11.058594 10.242188 11.164062 C 10.175781 11.089844 10.097656 11 10.132812 10.703125 Z M 10.132812 10.703125 "/>
<path style=" stroke:none;fill-rule:nonzero;fill:rgb(9.019608%,9.803922%,11.372549%);fill-opacity:1;" d="M 10.527344 10.386719 C 10.527344 10.386719 10.574219 10.605469 10.636719 10.648438 C 10.703125 10.699219 10.824219 10.5 10.824219 10.5 C 10.824219 10.5 10.800781 10.792969 10.636719 10.828125 C 10.660156 10.855469 10.5 10.648438 10.527344 10.386719 Z M 10.527344 10.386719 "/>
<path style=" stroke:none;fill-rule:nonzero;fill:rgb(9.019608%,9.803922%,11.372549%);fill-opacity:1;" d="M 8.640625 11.957031 C 8.640625 11.957031 8.789062 12.214844 8.851562 12.222656 C 8.925781 12.226562 9.054688 11.957031 9.054688 11.957031 C 9.054688 11.957031 8.996094 12.324219 8.851562 12.394531 C 8.792969 12.324219 8.671875 12.203125 8.640625 11.957031 Z M 8.640625 11.957031 "/>
<path style=" stroke:none;fill-rule:nonzero;fill:rgb(9.019608%,9.803922%,11.372549%);fill-opacity:1;" d="M 9.511719 10.742188 C 9.511719 10.742188 9.570312 10.957031 9.636719 11 C 9.707031 11.042969 9.8125 10.832031 9.8125 10.832031 C 9.8125 10.832031 9.777344 11.140625 9.660156 11.226562 C 9.582031 11.160156 9.496094 11.046875 9.511719 10.742188 Z M 9.511719 10.742188 "/>
<path style=" stroke:none;fill-rule:nonzero;fill:rgb(73.72549%,72.54902%,71.764706%);fill-opacity:1;" d="M 15.800781 14.117188 C 15.5625 14.039062 15.273438 13.550781 15.1875 13.339844 C 15.09375 13.132812 14.9375 12.515625 15.035156 12.292969 C 15.082031 12.511719 15.21875 12.992188 15.324219 13.199219 C 15.480469 13.523438 15.675781 13.945312 15.800781 14.117188 Z M 15.800781 14.117188 "/>
<path style=" stroke:none;fill-rule:nonzero;fill:rgb(9.019608%,9.803922%,11.372549%);fill-opacity:1;" d="M 20.921875 20.410156 C 20.878906 20.324219 20.648438 20.230469 20.550781 20.222656 C 20.460938 20.207031 20.441406 20.207031 20.433594 20.296875 C 20.425781 20.371094 20.421875 20.449219 20.4375 20.527344 C 20.460938 20.664062 20.46875 20.625 20.59375 20.628906 C 20.6875 20.640625 20.773438 20.652344 20.867188 20.648438 C 20.949219 20.640625 20.972656 20.640625 20.972656 20.5625 C 20.972656 20.5 20.992188 20.425781 20.921875 20.410156 Z M 20.921875 20.410156 "/>
<path style=" stroke:none;fill-rule:nonzero;fill:rgb(0%,0%,0%);fill-opacity:1;" d="M 18.820312 40.769531 L 18.820312 40 L 18.542969 40 L 18.542969 39.84375 L 19.289062 39.84375 L 19.289062 40 L 19.011719 40 L 19.011719 40.769531 Z M 18.820312 40.769531 "/>
<path style=" stroke:none;fill-rule:nonzero;fill:rgb(0%,0%,0%);fill-opacity:1;" d="M 19.402344 40.769531 L 19.402344 39.84375 L 19.6875 39.84375 L 19.855469 40.476562 L 20.023438 39.84375 L 20.308594 39.84375 L 20.308594 40.769531 L 20.132812 40.769531 L 20.132812 40.042969 L 19.949219 40.769531 L 19.769531 40.769531 L 19.582031 40.042969 L 19.582031 40.769531 Z M 19.402344 40.769531 "/>
</g>
</svg>
