<?xml version="1.0" encoding="UTF-8"?>
<svg xmlns="http://www.w3.org/2000/svg" xmlns:xlink="http://www.w3.org/1999/xlink" width="32px" height="32px" viewBox="0 0 32 49" version="1.1">
<g id="surface1">
<path style=" stroke:none;fill-rule:nonzero;fill:rgb(87.058824%,87.058824%,88.627451%);fill-opacity:1;" d="M 15.246094 0.015625 C 15.210938 0.0195312 15.042969 0.0351562 14.871094 0.0507812 C 14.695312 0.0703125 14.429688 0.101562 14.28125 0.128906 C 14.128906 0.152344 13.910156 0.191406 13.800781 0.214844 C 13.683594 0.238281 13.503906 0.277344 13.394531 0.304688 C 13.285156 0.332031 13.09375 0.386719 12.964844 0.421875 C 12.832031 0.460938 12.652344 0.515625 12.558594 0.546875 C 12.46875 0.578125 12.292969 0.640625 12.167969 0.6875 C 12.042969 0.734375 11.824219 0.820312 11.675781 0.882812 C 11.53125 0.945312 11.285156 1.054688 11.136719 1.128906 C 10.984375 1.203125 10.742188 1.328125 10.59375 1.40625 C 10.449219 1.488281 10.230469 1.609375 10.113281 1.683594 C 9.996094 1.753906 9.777344 1.890625 9.636719 1.984375 C 9.492188 2.078125 9.292969 2.214844 9.195312 2.289062 C 9.09375 2.359375 8.898438 2.503906 8.753906 2.613281 C 8.617188 2.722656 8.34375 2.945312 8.15625 3.105469 C 7.96875 3.265625 7.574219 3.636719 7.28125 3.929688 C 6.988281 4.21875 6.628906 4.597656 6.484375 4.761719 C 6.335938 4.929688 6.089844 5.226562 5.933594 5.417969 C 5.777344 5.613281 5.558594 5.890625 5.453125 6.035156 C 5.34375 6.183594 5.183594 6.402344 5.097656 6.527344 C 5.011719 6.648438 4.855469 6.875 4.757812 7.027344 C 4.65625 7.175781 4.480469 7.457031 4.363281 7.644531 C 4.25 7.832031 4.085938 8.101562 4.003906 8.242188 C 3.925781 8.382812 3.78125 8.636719 3.6875 8.804688 C 3.59375 8.976562 3.421875 9.304688 3.304688 9.542969 C 3.1875 9.773438 3.023438 10.113281 2.9375 10.289062 C 2.855469 10.46875 2.710938 10.792969 2.613281 11.015625 C 2.519531 11.238281 2.394531 11.542969 2.332031 11.703125 C 2.265625 11.859375 2.152344 12.15625 2.074219 12.367188 C 1.996094 12.578125 1.863281 12.949219 1.78125 13.191406 C 1.699219 13.433594 1.589844 13.777344 1.535156 13.957031 C 1.476562 14.132812 1.402344 14.378906 1.367188 14.503906 C 1.328125 14.628906 1.246094 14.925781 1.183594 15.171875 C 1.117188 15.414062 1.042969 15.710938 1.011719 15.828125 C 0.984375 15.945312 0.949219 16.089844 0.933594 16.152344 C 0.917969 16.210938 0.894531 16.320312 0.878906 16.394531 C 0.859375 16.472656 0.828125 16.632812 0.800781 16.757812 C 0.773438 16.882812 0.726562 17.09375 0.699219 17.226562 C 0.671875 17.363281 0.628906 17.59375 0.601562 17.738281 C 0.574219 17.882812 0.535156 18.109375 0.511719 18.238281 C 0.492188 18.367188 0.457031 18.582031 0.433594 18.71875 C 0.414062 18.851562 0.375 19.089844 0.355469 19.246094 C 0.332031 19.402344 0.296875 19.671875 0.277344 19.84375 C 0.253906 20.015625 0.21875 20.324219 0.195312 20.53125 C 0.175781 20.738281 0.140625 21.109375 0.117188 21.363281 C 0.0976562 21.617188 0.0625 22.171875 0.0390625 22.597656 C 0.0117188 23.1875 0 23.644531 0 24.5 C 0 25.355469 0.0117188 25.8125 0.0390625 26.402344 C 0.0625 26.828125 0.0976562 27.382812 0.117188 27.636719 C 0.140625 27.890625 0.175781 28.265625 0.195312 28.46875 C 0.21875 28.675781 0.253906 28.984375 0.277344 29.15625 C 0.296875 29.328125 0.34375 29.65625 0.375 29.878906 C 0.40625 30.109375 0.441406 30.339844 0.453125 30.398438 C 0.460938 30.457031 0.488281 30.617188 0.511719 30.753906 C 0.535156 30.886719 0.574219 31.117188 0.601562 31.261719 C 0.628906 31.40625 0.671875 31.632812 0.699219 31.761719 C 0.726562 31.890625 0.769531 32.097656 0.796875 32.222656 C 0.820312 32.347656 0.855469 32.511719 0.875 32.585938 C 0.890625 32.660156 0.9375 32.867188 0.980469 33.046875 C 1.027344 33.222656 1.101562 33.523438 1.152344 33.710938 C 1.199219 33.898438 1.253906 34.09375 1.265625 34.144531 C 1.28125 34.191406 1.3125 34.296875 1.332031 34.378906 C 1.355469 34.457031 1.433594 34.714844 1.503906 34.945312 C 1.578125 35.179688 1.691406 35.535156 1.757812 35.742188 C 1.828125 35.945312 1.925781 36.222656 1.972656 36.359375 C 2.023438 36.492188 2.085938 36.664062 2.113281 36.738281 C 2.140625 36.816406 2.230469 37.039062 2.308594 37.238281 C 2.390625 37.441406 2.53125 37.789062 2.628906 38.015625 C 2.726562 38.242188 2.855469 38.527344 2.910156 38.652344 C 2.96875 38.773438 3.132812 39.109375 3.277344 39.394531 C 3.417969 39.683594 3.585938 40.007812 3.648438 40.121094 C 3.707031 40.234375 3.847656 40.480469 3.957031 40.671875 C 4.0625 40.859375 4.238281 41.148438 4.339844 41.316406 C 4.441406 41.484375 4.613281 41.746094 4.714844 41.90625 C 4.816406 42.0625 4.992188 42.324219 5.105469 42.484375 C 5.21875 42.644531 5.425781 42.921875 5.558594 43.101562 C 5.695312 43.277344 5.898438 43.539062 6.011719 43.679688 C 6.128906 43.820312 6.34375 44.074219 6.496094 44.246094 C 6.648438 44.417969 6.988281 44.777344 7.253906 45.042969 C 7.515625 45.308594 7.820312 45.597656 7.921875 45.6875 C 8.023438 45.777344 8.140625 45.878906 8.175781 45.910156 C 8.214844 45.945312 8.359375 46.066406 8.5 46.179688 C 8.640625 46.292969 8.875 46.476562 9.023438 46.582031 C 9.167969 46.691406 9.371094 46.835938 9.472656 46.90625 C 9.578125 46.976562 9.800781 47.121094 9.976562 47.230469 C 10.148438 47.335938 10.394531 47.484375 10.527344 47.554688 C 10.65625 47.625 10.890625 47.746094 11.046875 47.824219 C 11.203125 47.902344 11.484375 48.03125 11.664062 48.109375 C 11.851562 48.1875 12.054688 48.269531 12.117188 48.292969 C 12.183594 48.316406 12.335938 48.371094 12.460938 48.414062 C 12.585938 48.457031 12.820312 48.53125 12.984375 48.578125 C 13.144531 48.625 13.359375 48.683594 13.453125 48.707031 C 13.550781 48.726562 13.738281 48.769531 13.867188 48.792969 C 13.996094 48.820312 14.21875 48.859375 14.359375 48.882812 C 14.5 48.902344 14.738281 48.933594 14.890625 48.953125 C 15.066406 48.972656 15.410156 48.988281 15.851562 48.992188 C 16.449219 49.003906 16.597656 48.996094 16.964844 48.960938 C 17.195312 48.941406 17.527344 48.898438 17.699219 48.871094 C 17.871094 48.84375 18.097656 48.800781 18.199219 48.78125 C 18.304688 48.761719 18.472656 48.722656 18.574219 48.695312 C 18.679688 48.671875 18.832031 48.632812 18.917969 48.609375 C 19.003906 48.585938 19.230469 48.515625 19.417969 48.453125 C 19.609375 48.390625 19.894531 48.289062 20.050781 48.226562 C 20.207031 48.164062 20.457031 48.058594 20.609375 47.988281 C 20.761719 47.917969 21.03125 47.785156 21.207031 47.691406 C 21.386719 47.601562 21.664062 47.445312 21.828125 47.347656 C 21.988281 47.25 22.230469 47.101562 22.359375 47.015625 C 22.488281 46.929688 22.691406 46.789062 22.808594 46.703125 C 22.929688 46.621094 23.167969 46.4375 23.34375 46.300781 C 23.515625 46.164062 23.753906 45.964844 23.875 45.863281 C 23.992188 45.761719 24.136719 45.632812 24.195312 45.582031 C 24.253906 45.527344 24.503906 45.285156 24.746094 45.039062 C 24.988281 44.796875 25.308594 44.460938 25.457031 44.296875 C 25.605469 44.128906 25.820312 43.878906 25.9375 43.738281 C 26.050781 43.597656 26.226562 43.375 26.328125 43.246094 C 26.425781 43.117188 26.601562 42.882812 26.722656 42.71875 C 26.839844 42.558594 27.082031 42.207031 27.253906 41.945312 C 27.425781 41.679688 27.683594 41.273438 27.824219 41.042969 C 27.960938 40.8125 28.164062 40.453125 28.28125 40.25 C 28.390625 40.042969 28.609375 39.621094 28.765625 39.308594 C 28.917969 38.996094 29.132812 38.546875 29.238281 38.308594 C 29.34375 38.070312 29.460938 37.800781 29.5 37.710938 C 29.535156 37.617188 29.597656 37.46875 29.632812 37.378906 C 29.671875 37.285156 29.765625 37.050781 29.835938 36.859375 C 29.910156 36.664062 30.019531 36.367188 30.078125 36.203125 C 30.140625 36.035156 30.246094 35.722656 30.316406 35.503906 C 30.386719 35.289062 30.484375 34.980469 30.535156 34.820312 C 30.582031 34.660156 30.65625 34.410156 30.695312 34.269531 C 30.734375 34.128906 30.773438 33.992188 30.78125 33.957031 C 30.789062 33.925781 30.855469 33.671875 30.925781 33.398438 C 30.996094 33.125 31.085938 32.753906 31.125 32.574219 C 31.164062 32.398438 31.203125 32.210938 31.214844 32.164062 C 31.226562 32.113281 31.28125 31.859375 31.332031 31.59375 C 31.382812 31.332031 31.429688 31.074219 31.4375 31.027344 C 31.445312 30.976562 31.46875 30.847656 31.488281 30.734375 C 31.507812 30.617188 31.542969 30.414062 31.5625 30.273438 C 31.585938 30.132812 31.625 29.890625 31.644531 29.734375 C 31.667969 29.578125 31.703125 29.308594 31.722656 29.136719 C 31.746094 28.964844 31.78125 28.65625 31.804688 28.449219 C 31.824219 28.242188 31.859375 27.867188 31.882812 27.605469 C 31.902344 27.347656 31.9375 26.867188 31.953125 26.539062 C 31.980469 26.066406 31.988281 25.632812 31.988281 24.5 C 31.988281 23.355469 31.980469 22.933594 31.953125 22.453125 C 31.933594 22.117188 31.898438 21.589844 31.871094 21.277344 C 31.84375 20.960938 31.808594 20.585938 31.792969 20.441406 C 31.777344 20.296875 31.746094 20.035156 31.722656 19.863281 C 31.703125 19.691406 31.667969 19.417969 31.644531 19.257812 C 31.621094 19.097656 31.558594 18.703125 31.507812 18.386719 C 31.453125 18.066406 31.371094 17.609375 31.324219 17.367188 C 31.277344 17.121094 31.214844 16.839844 31.195312 16.738281 C 31.175781 16.636719 31.121094 16.398438 31.078125 16.210938 C 31.03125 16.019531 30.949219 15.675781 30.886719 15.445312 C 30.828125 15.214844 30.730469 14.855469 30.671875 14.652344 C 30.613281 14.445312 30.519531 14.125 30.457031 13.9375 C 30.398438 13.746094 30.304688 13.457031 30.25 13.289062 C 30.195312 13.121094 30.078125 12.792969 29.996094 12.5625 C 29.910156 12.332031 29.832031 12.121094 29.820312 12.09375 C 29.808594 12.066406 29.742188 11.898438 29.671875 11.722656 C 29.601562 11.542969 29.519531 11.335938 29.488281 11.261719 C 29.457031 11.183594 29.34375 10.929688 29.238281 10.691406 C 29.132812 10.453125 28.921875 10.003906 28.765625 9.691406 C 28.613281 9.378906 28.394531 8.960938 28.285156 8.761719 C 28.171875 8.5625 28.046875 8.335938 28.003906 8.261719 C 27.960938 8.1875 27.859375 8.015625 27.777344 7.878906 C 27.695312 7.742188 27.5625 7.527344 27.480469 7.398438 C 27.398438 7.269531 27.25 7.039062 27.148438 6.890625 C 27.042969 6.738281 26.851562 6.460938 26.714844 6.273438 C 26.578125 6.082031 26.371094 5.804688 26.25 5.65625 C 26.132812 5.503906 25.933594 5.257812 25.808594 5.105469 C 25.679688 4.953125 25.4375 4.675781 25.265625 4.488281 C 25.089844 4.300781 24.792969 3.992188 24.597656 3.800781 C 24.40625 3.613281 24.144531 3.371094 24.019531 3.261719 C 23.894531 3.152344 23.703125 2.988281 23.585938 2.890625 C 23.472656 2.796875 23.222656 2.601562 23.027344 2.453125 C 22.832031 2.308594 22.546875 2.105469 22.386719 2 C 22.230469 1.898438 21.957031 1.726562 21.78125 1.621094 C 21.601562 1.515625 21.265625 1.335938 21.03125 1.21875 C 20.800781 1.097656 20.546875 0.976562 20.472656 0.945312 C 20.394531 0.914062 20.234375 0.84375 20.109375 0.792969 C 19.984375 0.742188 19.6875 0.636719 19.449219 0.554688 C 19.210938 0.476562 18.878906 0.378906 18.714844 0.335938 C 18.542969 0.292969 18.316406 0.238281 18.199219 0.214844 C 18.089844 0.195312 17.867188 0.152344 17.710938 0.128906 C 17.554688 0.101562 17.246094 0.0625 17.023438 0.0390625 C 16.695312 0.0078125 16.496094 0 15.960938 0.00390625 C 15.597656 0.00390625 15.277344 0.0117188 15.246094 0.015625 Z M 15.246094 0.015625 "/>
<path style=" stroke:none;fill-rule:nonzero;fill:rgb(10.588235%,15.686275%,21.960784%);fill-opacity:1;" d="M 15.628906 1.148438 C 15.578125 1.152344 15.40625 1.167969 15.246094 1.175781 C 15.082031 1.1875 14.796875 1.21875 14.613281 1.246094 C 14.429688 1.273438 14.195312 1.3125 14.09375 1.335938 C 13.988281 1.355469 13.769531 1.40625 13.601562 1.449219 C 13.433594 1.492188 13.136719 1.578125 12.941406 1.640625 C 12.75 1.707031 12.46875 1.808594 12.324219 1.867188 C 12.175781 1.925781 11.941406 2.03125 11.792969 2.097656 C 11.648438 2.164062 11.40625 2.285156 11.261719 2.363281 C 11.117188 2.441406 10.894531 2.5625 10.773438 2.636719 C 10.644531 2.710938 10.414062 2.859375 10.25 2.964844 C 10.089844 3.074219 9.816406 3.261719 9.652344 3.390625 C 9.484375 3.511719 9.242188 3.703125 9.109375 3.8125 C 8.980469 3.917969 8.796875 4.078125 8.695312 4.164062 C 8.601562 4.25 8.378906 4.460938 8.207031 4.625 C 8.039062 4.792969 7.789062 5.046875 7.660156 5.183594 C 7.527344 5.324219 7.320312 5.558594 7.191406 5.703125 C 7.066406 5.847656 6.894531 6.054688 6.808594 6.164062 C 6.722656 6.273438 6.558594 6.484375 6.441406 6.632812 C 6.332031 6.785156 6.140625 7.046875 6.023438 7.210938 C 5.90625 7.378906 5.714844 7.660156 5.601562 7.839844 C 5.484375 8.019531 5.308594 8.300781 5.210938 8.46875 C 5.109375 8.632812 4.941406 8.925781 4.835938 9.113281 C 4.730469 9.300781 4.5625 9.613281 4.464844 9.800781 C 4.367188 9.988281 4.207031 10.316406 4.109375 10.523438 C 4.007812 10.734375 3.933594 10.917969 3.941406 10.933594 C 3.945312 10.945312 4.039062 11.089844 4.148438 11.25 L 4.34375 11.542969 L 4.34375 38.964844 C 4.652344 39.550781 4.804688 39.828125 4.878906 39.964844 C 4.957031 40.101562 5.117188 40.371094 5.234375 40.570312 C 5.355469 40.773438 5.589844 41.140625 5.761719 41.394531 C 5.929688 41.648438 6.171875 41.996094 6.300781 42.167969 C 6.425781 42.34375 6.628906 42.605469 6.75 42.757812 C 6.871094 42.90625 7.054688 43.132812 7.160156 43.257812 C 7.269531 43.378906 7.46875 43.605469 7.605469 43.757812 C 7.746094 43.90625 7.964844 44.136719 8.097656 44.265625 L 8.332031 44.5 C 8.332031 21.90625 8.339844 15.347656 8.347656 15.347656 C 8.355469 15.347656 8.488281 15.417969 8.636719 15.507812 C 8.789062 15.601562 9.058594 15.753906 9.238281 15.847656 C 9.417969 15.941406 9.691406 16.078125 9.851562 16.152344 C 10.011719 16.226562 10.269531 16.339844 10.421875 16.402344 C 10.574219 16.46875 10.808594 16.558594 10.9375 16.605469 C 11.070312 16.652344 11.3125 16.738281 11.480469 16.792969 C 11.648438 16.847656 11.914062 16.925781 12.070312 16.972656 C 12.226562 17.015625 12.390625 17.058594 12.4375 17.070312 L 12.519531 17.089844 L 12.519531 47.214844 C 13.078125 47.398438 13.335938 47.476562 13.453125 47.507812 C 13.574219 47.542969 13.789062 47.59375 13.9375 47.625 C 14.082031 47.660156 14.3125 47.703125 14.445312 47.726562 C 14.582031 47.746094 14.804688 47.777344 14.9375 47.792969 C 15.074219 47.808594 15.378906 47.828125 15.617188 47.839844 C 15.855469 47.851562 16.152344 47.855469 16.28125 47.847656 L 16.511719 47.832031 L 16.511719 31.261719 L 20.777344 31.261719 L 20.777344 46.609375 C 21.042969 46.46875 21.261719 46.339844 21.433594 46.230469 L 21.75 46.035156 L 21.742188 30.28125 L 16.511719 30.28125 L 16.511719 26.617188 L 21.742188 26.617188 C 21.738281 17.3125 21.742188 16.351562 21.765625 16.335938 C 21.777344 16.324219 21.847656 16.289062 21.917969 16.257812 C 21.984375 16.230469 22.222656 16.113281 22.4375 16.007812 C 22.652344 15.902344 22.964844 15.738281 23.125 15.644531 C 23.289062 15.554688 23.527344 15.410156 23.65625 15.328125 C 23.785156 15.25 24.007812 15.101562 24.148438 15.003906 C 24.289062 14.910156 24.523438 14.742188 24.667969 14.628906 C 24.816406 14.519531 25.042969 14.335938 25.179688 14.222656 L 25.425781 14.019531 L 25.433594 26.617188 C 30.769531 26.605469 30.785156 26.605469 30.792969 26.566406 C 30.796875 26.546875 30.804688 26.347656 30.808594 26.125 C 30.816406 25.90625 30.824219 25.707031 30.832031 25.683594 L 30.839844 25.636719 L 26.417969 25.636719 L 26.417969 13.0625 C 26.664062 12.789062 26.832031 12.601562 26.945312 12.464844 C 27.058594 12.332031 27.261719 12.070312 27.398438 11.886719 C 27.539062 11.707031 27.730469 11.433594 27.828125 11.289062 C 27.925781 11.144531 28.019531 11 28.039062 10.964844 L 28.074219 10.90625 C 27.511719 9.769531 27.261719 9.292969 27.164062 9.113281 C 27.066406 8.9375 26.890625 8.636719 26.777344 8.449219 C 26.664062 8.257812 26.425781 7.890625 26.25 7.625 C 26.074219 7.359375 25.828125 7.003906 25.699219 6.832031 C 25.574219 6.65625 25.367188 6.390625 25.242188 6.234375 C 25.117188 6.074219 24.9375 5.859375 24.847656 5.753906 C 24.753906 5.644531 24.597656 5.46875 24.503906 5.359375 C 24.40625 5.253906 24.1875 5.027344 24.019531 4.851562 C 23.851562 4.683594 23.589844 4.429688 23.441406 4.292969 C 23.289062 4.15625 23.046875 3.945312 22.898438 3.824219 C 22.753906 3.703125 22.519531 3.515625 22.378906 3.410156 C 22.238281 3.304688 22 3.132812 21.847656 3.03125 C 21.695312 2.929688 21.429688 2.761719 21.257812 2.65625 C 21.085938 2.554688 20.769531 2.382812 20.558594 2.277344 C 20.347656 2.167969 20.070312 2.035156 19.941406 1.980469 C 19.8125 1.921875 19.578125 1.828125 19.417969 1.769531 C 19.261719 1.710938 19.019531 1.628906 18.878906 1.585938 C 18.738281 1.542969 18.488281 1.472656 18.320312 1.429688 C 18.152344 1.390625 17.921875 1.335938 17.808594 1.316406 C 17.695312 1.292969 17.46875 1.257812 17.308594 1.238281 C 17.144531 1.214844 16.902344 1.1875 16.765625 1.175781 C 16.632812 1.164062 16.339844 1.152344 16.117188 1.148438 C 15.894531 1.144531 15.675781 1.144531 15.628906 1.148438 Z M 15.628906 1.148438 "/>
<path style=" stroke:none;fill-rule:nonzero;fill:rgb(100%,100%,100%);fill-opacity:1;" d="M 16.367188 2.222656 C 16.367188 2.230469 16.25 2.238281 16.109375 2.242188 C 15.964844 2.25 15.808594 2.261719 15.753906 2.265625 C 15.699219 2.269531 15.605469 2.277344 15.546875 2.28125 C 15.488281 2.289062 15.390625 2.296875 15.332031 2.304688 C 15.273438 2.3125 15.203125 2.316406 15.179688 2.316406 C 15.15625 2.316406 15.128906 2.328125 15.121094 2.34375 C 15.113281 2.363281 15.113281 2.382812 15.125 2.386719 C 15.136719 2.394531 15.160156 2.425781 15.179688 2.460938 C 15.199219 2.492188 15.234375 2.558594 15.257812 2.605469 C 15.277344 2.65625 15.308594 2.71875 15.324219 2.753906 C 15.335938 2.789062 15.355469 2.835938 15.359375 2.867188 C 15.367188 2.898438 15.378906 2.945312 15.386719 2.976562 C 15.394531 3.003906 15.402344 4.773438 15.402344 6.910156 C 15.398438 9.042969 15.394531 10.8125 15.386719 10.839844 C 15.378906 10.867188 15.332031 10.96875 15.285156 11.070312 C 15.234375 11.167969 15.195312 11.257812 15.195312 11.265625 C 15.195312 11.273438 15.175781 11.300781 15.152344 11.328125 C 15.132812 11.355469 15.113281 11.390625 15.113281 11.402344 C 15.113281 11.414062 15.105469 11.425781 15.09375 11.425781 C 15.085938 11.425781 15.074219 11.445312 15.074219 11.464844 C 15.074219 11.503906 15.089844 11.503906 16.15625 11.503906 C 16.867188 11.503906 17.238281 11.5 17.238281 11.484375 C 17.238281 11.476562 17.207031 11.417969 17.171875 11.363281 C 17.132812 11.308594 17.101562 11.253906 17.101562 11.242188 C 17.101562 11.230469 17.082031 11.179688 17.0625 11.121094 C 17.042969 11.070312 17.019531 11.007812 17.011719 10.984375 C 17.003906 10.964844 16.992188 10.9375 16.992188 10.925781 C 16.988281 10.917969 16.980469 10.882812 16.972656 10.847656 C 16.960938 10.816406 16.953125 10.078125 16.949219 9.207031 L 16.945312 7.625 C 17.921875 7.628906 17.988281 7.632812 18.09375 7.667969 C 18.15625 7.6875 18.214844 7.714844 18.214844 7.722656 C 18.21875 7.734375 18.230469 7.742188 18.246094 7.742188 C 18.257812 7.742188 18.3125 7.785156 18.363281 7.839844 C 18.414062 7.894531 18.460938 7.9375 18.460938 7.9375 C 18.464844 7.9375 18.46875 7.519531 18.46875 7.007812 C 18.46875 6.398438 18.460938 6.074219 18.449219 6.074219 C 18.4375 6.074219 18.386719 6.097656 18.339844 6.128906 C 18.292969 6.15625 18.238281 6.179688 18.21875 6.183594 C 18.203125 6.1875 18.160156 6.203125 18.121094 6.222656 C 18.085938 6.238281 18.03125 6.257812 18.003906 6.265625 C 17.976562 6.273438 17.722656 6.28125 17.4375 6.28125 L 16.921875 6.28125 C 16.925781 4.367188 16.929688 3.792969 16.929688 3.773438 C 16.933594 3.753906 16.960938 3.707031 16.992188 3.671875 C 17.046875 3.609375 17.058594 3.605469 17.160156 3.609375 C 17.21875 3.613281 17.324219 3.632812 17.390625 3.660156 C 17.457031 3.683594 17.511719 3.699219 17.511719 3.6875 C 17.511719 3.679688 17.523438 3.683594 17.539062 3.695312 C 17.550781 3.710938 17.59375 3.722656 17.628906 3.730469 C 17.660156 3.738281 17.691406 3.742188 17.695312 3.738281 C 17.699219 3.738281 17.71875 3.746094 17.738281 3.757812 C 17.761719 3.769531 17.800781 3.785156 17.828125 3.789062 C 17.855469 3.792969 17.992188 3.835938 18.132812 3.886719 C 18.273438 3.933594 18.414062 3.984375 18.449219 4 C 18.480469 4.011719 18.546875 4.039062 18.59375 4.054688 C 18.640625 4.074219 18.769531 4.132812 18.875 4.1875 C 18.980469 4.238281 19.085938 4.289062 19.105469 4.300781 C 19.128906 4.3125 19.144531 4.328125 19.144531 4.335938 C 19.144531 4.34375 19.152344 4.351562 19.164062 4.351562 C 19.175781 4.351562 19.199219 4.363281 19.214844 4.375 C 19.230469 4.386719 19.253906 4.410156 19.269531 4.417969 C 19.28125 4.429688 19.320312 4.460938 19.351562 4.484375 C 19.382812 4.511719 19.417969 4.53125 19.425781 4.527344 C 19.433594 4.527344 19.441406 4.1875 19.441406 3.769531 L 19.441406 3.007812 C 19.371094 2.976562 19.324219 2.953125 19.292969 2.941406 C 19.261719 2.925781 19.21875 2.910156 19.199219 2.898438 C 19.179688 2.890625 19.15625 2.882812 19.144531 2.882812 C 19.132812 2.882812 19.09375 2.867188 19.058594 2.851562 C 19.019531 2.835938 18.957031 2.808594 18.917969 2.792969 C 18.882812 2.777344 18.839844 2.761719 18.832031 2.761719 C 18.820312 2.761719 18.78125 2.75 18.746094 2.734375 C 18.710938 2.71875 18.519531 2.652344 18.320312 2.585938 C 18.121094 2.519531 17.933594 2.460938 17.90625 2.457031 C 17.878906 2.453125 17.839844 2.4375 17.824219 2.429688 C 17.804688 2.417969 17.789062 2.414062 17.789062 2.421875 C 17.789062 2.425781 17.773438 2.421875 17.753906 2.414062 C 17.734375 2.402344 17.699219 2.390625 17.671875 2.382812 C 17.644531 2.378906 17.601562 2.371094 17.578125 2.363281 C 17.554688 2.355469 17.511719 2.347656 17.488281 2.339844 C 17.464844 2.335938 17.433594 2.328125 17.425781 2.324219 C 17.414062 2.324219 17.386719 2.316406 17.367188 2.308594 C 17.34375 2.300781 17.292969 2.289062 17.25 2.285156 C 17.207031 2.277344 17.148438 2.265625 17.121094 2.261719 C 17.09375 2.257812 17.039062 2.25 17.003906 2.246094 C 16.964844 2.238281 16.808594 2.230469 16.65625 2.226562 C 16.503906 2.222656 16.371094 2.21875 16.367188 2.222656 Z M 11.890625 3.222656 C 11.886719 3.226562 11.84375 3.238281 11.792969 3.242188 C 11.746094 3.25 11.699219 3.257812 11.695312 3.261719 C 11.691406 3.265625 11.664062 3.277344 11.636719 3.28125 C 11.609375 3.285156 11.570312 3.300781 11.546875 3.308594 C 11.527344 3.320312 11.433594 3.367188 11.339844 3.410156 C 11.25 3.453125 11.15625 3.5 11.136719 3.515625 C 11.113281 3.527344 11.09375 3.542969 11.085938 3.546875 C 11.082031 3.554688 11.050781 3.570312 11.019531 3.585938 C 10.988281 3.601562 10.945312 3.632812 10.925781 3.652344 C 10.90625 3.667969 10.878906 3.683594 10.871094 3.683594 C 10.859375 3.683594 10.851562 3.691406 10.851562 3.703125 C 10.851562 3.714844 10.839844 3.722656 10.824219 3.722656 C 10.8125 3.722656 10.773438 3.75 10.738281 3.777344 C 10.707031 3.808594 10.65625 3.84375 10.632812 3.859375 C 10.609375 3.875 10.574219 3.90625 10.554688 3.921875 C 10.535156 3.9375 10.5 3.964844 10.476562 3.980469 C 10.453125 3.996094 10.410156 4.027344 10.386719 4.046875 C 10.363281 4.070312 10.320312 4.105469 10.292969 4.125 C 10.261719 4.148438 10.21875 4.183594 10.191406 4.203125 C 10.167969 4.226562 10.117188 4.265625 10.082031 4.292969 C 10.046875 4.320312 9.992188 4.363281 9.964844 4.390625 C 9.9375 4.417969 9.878906 4.46875 9.835938 4.5 C 9.796875 4.53125 9.726562 4.589844 9.683594 4.625 C 9.640625 4.664062 9.566406 4.730469 9.515625 4.773438 C 9.46875 4.816406 9.402344 4.871094 9.375 4.898438 C 9.34375 4.925781 9.246094 5.015625 9.160156 5.097656 C 9.066406 5.175781 8.941406 5.296875 8.871094 5.367188 L 8.746094 5.488281 C 8.863281 5.503906 8.914062 5.523438 8.933594 5.535156 C 8.957031 5.550781 9 5.609375 9.03125 5.667969 C 9.0625 5.726562 9.089844 5.78125 9.09375 5.792969 C 9.09375 5.804688 9.105469 5.855469 9.117188 5.910156 C 9.128906 5.972656 9.136719 6.8125 9.136719 8.328125 C 9.136719 10.171875 9.132812 10.675781 9.113281 10.761719 C 9.097656 10.820312 9.085938 10.871094 9.085938 10.878906 C 9.085938 10.882812 9.074219 10.921875 9.0625 10.964844 C 9.050781 11.007812 9.042969 11.050781 9.042969 11.058594 C 9.042969 11.066406 9.011719 11.125 8.972656 11.191406 C 8.933594 11.257812 8.90625 11.3125 8.90625 11.320312 C 8.90625 11.324219 8.882812 11.351562 8.855469 11.382812 C 8.828125 11.414062 8.804688 11.453125 8.804688 11.472656 C 8.804688 11.5 8.828125 11.507812 8.917969 11.515625 C 8.980469 11.519531 9.828125 11.527344 10.800781 11.527344 C 11.773438 11.527344 12.589844 11.523438 12.613281 11.515625 C 12.640625 11.511719 12.675781 11.5 12.699219 11.496094 C 12.71875 11.488281 12.757812 11.480469 12.78125 11.476562 C 12.804688 11.46875 12.855469 11.457031 12.894531 11.441406 C 12.929688 11.429688 12.984375 11.410156 13.011719 11.394531 C 13.039062 11.378906 13.070312 11.367188 13.082031 11.367188 C 13.09375 11.367188 13.1875 11.324219 13.296875 11.269531 C 13.40625 11.214844 13.519531 11.152344 13.550781 11.128906 C 13.585938 11.109375 13.625 11.085938 13.640625 11.078125 C 13.65625 11.070312 13.679688 11.054688 13.695312 11.046875 C 13.707031 11.035156 13.734375 11.011719 13.75 11 C 13.765625 10.988281 13.785156 10.976562 13.792969 10.976562 C 13.800781 10.976562 13.824219 10.960938 13.84375 10.941406 C 13.859375 10.921875 13.910156 10.882812 13.949219 10.847656 C 13.992188 10.816406 14.058594 10.753906 14.105469 10.710938 C 14.148438 10.667969 14.222656 10.585938 14.269531 10.527344 C 14.320312 10.46875 14.378906 10.390625 14.402344 10.355469 C 14.425781 10.320312 14.445312 10.28125 14.445312 10.269531 C 14.445312 10.261719 14.453125 10.25 14.460938 10.246094 C 14.46875 10.242188 14.511719 10.171875 14.554688 10.085938 C 14.597656 9.996094 14.632812 9.921875 14.636719 9.917969 C 14.636719 9.910156 14.644531 9.894531 14.648438 9.878906 C 14.65625 9.863281 14.671875 9.8125 14.683594 9.769531 C 14.699219 9.726562 14.710938 9.683594 14.714844 9.671875 C 14.71875 9.664062 14.726562 9.632812 14.730469 9.609375 C 14.738281 9.585938 14.746094 9.546875 14.753906 9.523438 C 14.757812 9.496094 14.769531 9.4375 14.777344 9.386719 C 14.785156 9.339844 14.789062 9.167969 14.789062 9.007812 C 14.789062 8.84375 14.785156 8.671875 14.777344 8.625 C 14.769531 8.574219 14.757812 8.515625 14.753906 8.488281 C 14.746094 8.460938 14.738281 8.417969 14.730469 8.390625 C 14.726562 8.363281 14.71875 8.332031 14.714844 8.320312 C 14.710938 8.308594 14.695312 8.25 14.675781 8.191406 C 14.65625 8.132812 14.636719 8.074219 14.632812 8.0625 C 14.628906 8.046875 14.625 8.03125 14.625 8.027344 C 14.625 8.019531 14.59375 7.960938 14.5625 7.898438 C 14.527344 7.832031 14.488281 7.757812 14.476562 7.738281 C 14.464844 7.71875 14.449219 7.703125 14.441406 7.703125 C 14.433594 7.703125 14.425781 7.695312 14.425781 7.683594 C 14.425781 7.671875 14.417969 7.652344 14.40625 7.640625 C 14.398438 7.625 14.351562 7.570312 14.308594 7.515625 C 14.265625 7.464844 14.167969 7.363281 14.085938 7.296875 C 14.007812 7.226562 13.933594 7.171875 13.921875 7.171875 C 13.90625 7.171875 13.898438 7.164062 13.898438 7.152344 C 13.898438 7.144531 13.875 7.128906 13.847656 7.125 C 13.820312 7.117188 13.800781 7.109375 13.800781 7.101562 C 13.800781 7.089844 13.753906 7.0625 13.695312 7.039062 C 13.636719 7.011719 13.574219 6.984375 13.550781 6.976562 C 13.53125 6.96875 13.476562 6.949219 13.429688 6.929688 C 13.382812 6.914062 13.347656 6.90625 13.347656 6.914062 C 13.347656 6.921875 13.335938 6.914062 13.316406 6.898438 C 13.285156 6.871094 13.285156 6.867188 13.316406 6.855469 C 13.332031 6.847656 13.347656 6.828125 13.347656 6.8125 C 13.347656 6.796875 13.355469 6.78125 13.363281 6.777344 C 13.375 6.773438 13.421875 6.710938 13.46875 6.632812 C 13.515625 6.558594 13.597656 6.414062 13.648438 6.316406 C 13.699219 6.21875 13.734375 6.136719 13.730469 6.136719 C 13.726562 6.136719 13.734375 6.113281 13.75 6.085938 C 13.765625 6.058594 13.773438 6.035156 13.765625 6.035156 C 13.757812 6.039062 13.761719 6.027344 13.773438 6.011719 C 13.785156 6 13.8125 5.929688 13.835938 5.859375 C 13.859375 5.789062 13.878906 5.710938 13.886719 5.683594 C 13.890625 5.65625 13.898438 5.613281 13.90625 5.585938 C 13.914062 5.558594 13.921875 5.519531 13.925781 5.496094 C 13.929688 5.476562 13.941406 5.410156 13.953125 5.351562 C 13.964844 5.292969 13.96875 5.105469 13.964844 4.9375 C 13.960938 4.773438 13.953125 4.601562 13.949219 4.5625 C 13.941406 4.523438 13.917969 4.433594 13.894531 4.367188 C 13.875 4.296875 13.824219 4.183594 13.789062 4.105469 C 13.75 4.03125 13.699219 3.945312 13.675781 3.914062 C 13.652344 3.882812 13.566406 3.792969 13.484375 3.710938 C 13.402344 3.632812 13.328125 3.566406 13.320312 3.566406 C 13.3125 3.566406 13.292969 3.554688 13.28125 3.542969 C 13.265625 3.53125 13.238281 3.507812 13.21875 3.492188 C 13.195312 3.480469 13.113281 3.4375 13.03125 3.398438 C 12.949219 3.359375 12.839844 3.3125 12.785156 3.296875 C 12.730469 3.28125 12.671875 3.265625 12.648438 3.261719 C 12.628906 3.257812 12.582031 3.246094 12.550781 3.242188 C 12.515625 3.234375 12.359375 3.226562 12.195312 3.222656 C 12.03125 3.21875 11.894531 3.21875 11.890625 3.222656 Z M 11.890625 3.222656 "/>
<path style=" stroke:none;fill-rule:nonzero;fill:rgb(10.588235%,15.686275%,21.960784%);fill-opacity:1;" d="M 11.703125 4.804688 C 11.660156 4.8125 11.546875 4.863281 11.449219 4.910156 C 11.351562 4.957031 11.195312 5.058594 11.097656 5.128906 C 11 5.203125 10.832031 5.347656 10.726562 5.449219 L 10.535156 5.636719 C 10.546875 7.25 10.546875 7.261719 10.585938 7.253906 C 10.605469 7.253906 10.742188 7.191406 10.890625 7.121094 C 11.035156 7.050781 11.242188 6.941406 11.351562 6.875 C 11.460938 6.808594 11.628906 6.699219 11.722656 6.625 C 11.824219 6.550781 11.980469 6.410156 12.078125 6.308594 C 12.207031 6.179688 12.28125 6.078125 12.335938 5.96875 C 12.382812 5.882812 12.429688 5.773438 12.441406 5.722656 C 12.453125 5.675781 12.464844 5.578125 12.464844 5.507812 C 12.464844 5.4375 12.453125 5.339844 12.441406 5.292969 C 12.429688 5.242188 12.398438 5.164062 12.371094 5.113281 C 12.34375 5.058594 12.296875 4.984375 12.261719 4.945312 C 12.226562 4.90625 12.152344 4.851562 12.097656 4.828125 C 12.03125 4.796875 11.96875 4.78125 11.890625 4.785156 C 11.832031 4.785156 11.746094 4.792969 11.703125 4.804688 Z M 11.703125 4.804688 "/>
<path style=" stroke:none;fill-rule:nonzero;fill:rgb(100%,100%,100%);fill-opacity:1;" d="M 21.480469 4.792969 C 21.476562 4.796875 21.445312 4.804688 21.40625 4.8125 C 21.367188 4.816406 21.3125 4.824219 21.285156 4.832031 C 21.261719 4.839844 21.210938 4.847656 21.179688 4.855469 C 21.148438 4.859375 21.097656 4.878906 21.070312 4.890625 C 21.042969 4.90625 21.007812 4.917969 20.992188 4.917969 C 20.976562 4.917969 20.953125 4.925781 20.945312 4.933594 C 20.9375 4.941406 20.921875 4.949219 20.917969 4.949219 C 20.910156 4.949219 20.824219 4.988281 20.730469 5.039062 C 20.636719 5.085938 20.539062 5.136719 20.519531 5.144531 C 20.5 5.15625 20.480469 5.171875 20.480469 5.179688 C 20.480469 5.1875 20.46875 5.195312 20.457031 5.195312 C 20.441406 5.195312 20.382812 5.230469 20.324219 5.277344 C 20.265625 5.320312 20.132812 5.441406 20.03125 5.546875 C 19.925781 5.648438 19.824219 5.757812 19.800781 5.789062 C 19.78125 5.820312 19.753906 5.855469 19.742188 5.867188 C 19.734375 5.878906 19.695312 5.933594 19.660156 5.984375 C 19.625 6.035156 19.597656 6.085938 19.597656 6.09375 C 19.597656 6.105469 19.589844 6.113281 19.582031 6.113281 C 19.574219 6.113281 19.527344 6.191406 19.480469 6.285156 C 19.433594 6.382812 19.378906 6.488281 19.363281 6.523438 C 19.34375 6.5625 19.332031 6.597656 19.328125 6.601562 C 19.328125 6.609375 19.324219 6.628906 19.316406 6.644531 C 19.308594 6.660156 19.285156 6.730469 19.261719 6.800781 C 19.238281 6.871094 19.214844 6.945312 19.210938 6.96875 C 19.207031 6.988281 19.195312 7.027344 19.1875 7.054688 C 19.175781 7.082031 19.164062 7.132812 19.160156 7.164062 C 19.15625 7.195312 19.148438 7.230469 19.140625 7.242188 C 19.132812 7.253906 19.125 7.304688 19.117188 7.359375 C 19.109375 7.414062 19.097656 7.480469 19.09375 7.507812 C 19.089844 7.535156 19.082031 7.617188 19.074219 7.691406 C 19.066406 7.769531 19.058594 8.011719 19.058594 8.230469 C 19.058594 8.453125 19.0625 8.695312 19.074219 8.769531 C 19.082031 8.847656 19.09375 8.941406 19.097656 8.976562 C 19.105469 9.015625 19.113281 9.0625 19.117188 9.085938 C 19.121094 9.105469 19.128906 9.152344 19.132812 9.183594 C 19.140625 9.214844 19.148438 9.261719 19.15625 9.285156 C 19.160156 9.308594 19.167969 9.347656 19.175781 9.375 C 19.183594 9.398438 19.1875 9.425781 19.191406 9.4375 C 19.195312 9.449219 19.222656 9.53125 19.25 9.625 C 19.28125 9.714844 19.3125 9.808594 19.320312 9.828125 C 19.328125 9.851562 19.367188 9.9375 19.410156 10.027344 C 19.453125 10.113281 19.5 10.195312 19.511719 10.207031 C 19.527344 10.21875 19.539062 10.246094 19.539062 10.261719 C 19.539062 10.277344 19.546875 10.289062 19.558594 10.289062 C 19.570312 10.289062 19.578125 10.304688 19.578125 10.320312 C 19.578125 10.335938 19.585938 10.347656 19.597656 10.347656 C 19.609375 10.347656 19.617188 10.359375 19.617188 10.375 C 19.617188 10.386719 19.644531 10.429688 19.679688 10.472656 C 19.714844 10.515625 19.820312 10.625 19.910156 10.714844 C 20.003906 10.808594 20.113281 10.90625 20.15625 10.933594 C 20.203125 10.960938 20.242188 10.992188 20.246094 10.996094 C 20.25 11.003906 20.351562 11.058594 20.464844 11.121094 C 20.582031 11.183594 20.679688 11.226562 20.675781 11.21875 C 20.675781 11.207031 20.6875 11.210938 20.703125 11.222656 C 20.714844 11.234375 20.777344 11.261719 20.835938 11.28125 C 20.894531 11.296875 20.953125 11.316406 20.964844 11.320312 C 20.976562 11.320312 21.003906 11.328125 21.03125 11.335938 C 21.058594 11.34375 21.109375 11.351562 21.140625 11.359375 C 21.171875 11.363281 21.238281 11.375 21.285156 11.382812 C 21.335938 11.390625 21.507812 11.394531 21.671875 11.394531 C 21.832031 11.394531 22.007812 11.390625 22.0625 11.382812 C 22.117188 11.375 22.175781 11.363281 22.191406 11.359375 C 22.207031 11.351562 22.242188 11.34375 22.269531 11.335938 C 22.296875 11.332031 22.328125 11.324219 22.339844 11.320312 C 22.347656 11.320312 22.410156 11.300781 22.476562 11.28125 C 22.542969 11.261719 22.609375 11.238281 22.625 11.230469 C 22.640625 11.222656 22.691406 11.199219 22.742188 11.175781 C 22.789062 11.152344 22.847656 11.121094 22.871094 11.109375 C 22.890625 11.09375 22.945312 11.058594 22.988281 11.03125 C 23.03125 11.003906 23.109375 10.941406 23.160156 10.894531 L 23.257812 10.808594 C 23.21875 10.6875 23.203125 10.640625 23.199219 10.625 C 23.191406 10.609375 23.1875 10.589844 23.183594 10.585938 C 23.183594 10.578125 23.171875 10.539062 23.15625 10.496094 C 23.140625 10.453125 23.109375 10.371094 23.082031 10.316406 C 23.058594 10.257812 23.035156 10.203125 23.035156 10.191406 C 23.035156 10.183594 23.027344 10.148438 23.015625 10.121094 C 23 10.089844 22.988281 10.054688 22.988281 10.046875 C 22.984375 10.035156 22.964844 9.984375 22.941406 9.933594 C 22.917969 9.878906 22.898438 9.828125 22.898438 9.816406 C 22.902344 9.800781 22.890625 9.78125 22.882812 9.769531 C 22.871094 9.761719 22.855469 9.722656 22.847656 9.683594 C 22.835938 9.648438 22.820312 9.613281 22.804688 9.609375 C 22.792969 9.609375 22.769531 9.617188 22.753906 9.628906 C 22.742188 9.640625 22.703125 9.671875 22.671875 9.691406 C 22.640625 9.714844 22.542969 9.765625 22.457031 9.808594 C 22.371094 9.847656 22.285156 9.890625 22.265625 9.898438 C 22.246094 9.910156 22.199219 9.921875 22.15625 9.929688 C 22.117188 9.933594 22.070312 9.949219 22.054688 9.957031 C 22.039062 9.964844 21.914062 9.96875 21.78125 9.96875 C 21.644531 9.964844 21.511719 9.957031 21.484375 9.949219 C 21.457031 9.941406 21.417969 9.929688 21.394531 9.921875 C 21.375 9.917969 21.292969 9.875 21.21875 9.832031 C 21.144531 9.789062 21.035156 9.710938 20.980469 9.65625 C 20.925781 9.601562 20.847656 9.496094 20.804688 9.417969 C 20.761719 9.339844 20.714844 9.257812 20.703125 9.230469 C 20.691406 9.203125 20.664062 9.128906 20.644531 9.066406 C 20.628906 9 20.609375 8.933594 20.605469 8.917969 C 20.601562 8.902344 20.59375 8.851562 20.589844 8.808594 C 20.582031 8.765625 20.574219 8.726562 20.570312 8.722656 C 20.566406 8.714844 20.554688 8.621094 20.546875 8.507812 C 20.539062 8.394531 20.53125 8.273438 20.53125 8.242188 C 20.53125 8.210938 20.539062 8.085938 20.546875 7.96875 C 20.554688 7.851562 20.5625 7.730469 20.566406 7.703125 C 20.574219 7.675781 20.582031 7.617188 20.589844 7.574219 C 20.597656 7.53125 20.605469 7.484375 20.605469 7.46875 C 20.605469 7.453125 20.617188 7.425781 20.628906 7.414062 C 20.640625 7.398438 20.644531 7.382812 20.632812 7.378906 C 20.625 7.375 20.632812 7.339844 20.648438 7.304688 C 20.664062 7.273438 20.679688 7.214844 20.6875 7.183594 C 20.691406 7.152344 20.710938 7.097656 20.726562 7.066406 C 20.742188 7.035156 20.769531 6.96875 20.789062 6.921875 C 20.808594 6.878906 20.832031 6.839844 20.839844 6.839844 C 20.847656 6.839844 20.855469 6.832031 20.855469 6.820312 C 20.855469 6.808594 20.902344 6.742188 20.960938 6.671875 C 21.015625 6.597656 21.097656 6.511719 21.140625 6.480469 C 21.183594 6.445312 21.222656 6.414062 21.226562 6.410156 C 21.234375 6.402344 21.296875 6.371094 21.367188 6.335938 C 21.4375 6.300781 21.515625 6.265625 21.542969 6.261719 C 21.570312 6.253906 21.621094 6.246094 21.660156 6.238281 C 21.699219 6.234375 21.777344 6.226562 21.839844 6.226562 C 21.898438 6.226562 21.96875 6.230469 21.996094 6.234375 C 22.027344 6.238281 22.058594 6.25 22.066406 6.257812 C 22.074219 6.265625 22.097656 6.273438 22.113281 6.273438 C 22.128906 6.273438 22.203125 6.304688 22.273438 6.339844 C 22.347656 6.378906 22.421875 6.421875 22.4375 6.433594 C 22.457031 6.445312 22.507812 6.496094 22.554688 6.542969 C 22.597656 6.585938 22.640625 6.625 22.648438 6.625 C 22.65625 6.625 22.683594 6.589844 22.707031 6.550781 C 22.730469 6.511719 22.78125 6.425781 22.816406 6.359375 C 22.851562 6.296875 22.902344 6.195312 22.929688 6.136719 C 22.960938 6.074219 22.988281 6.023438 22.996094 6.015625 C 23.007812 6.011719 23.039062 5.957031 23.066406 5.898438 C 23.09375 5.839844 23.148438 5.734375 23.183594 5.664062 C 23.230469 5.570312 23.246094 5.527344 23.230469 5.503906 C 23.222656 5.484375 23.191406 5.445312 23.167969 5.414062 C 23.144531 5.386719 23.105469 5.34375 23.085938 5.324219 C 23.0625 5.300781 23.015625 5.257812 22.976562 5.226562 C 22.941406 5.199219 22.882812 5.152344 22.847656 5.125 C 22.816406 5.097656 22.71875 5.042969 22.632812 5 C 22.546875 4.957031 22.40625 4.898438 22.324219 4.871094 C 22.242188 4.84375 22.140625 4.816406 22.097656 4.808594 C 22.058594 4.804688 21.902344 4.796875 21.757812 4.792969 C 21.609375 4.789062 21.484375 4.789062 21.480469 4.792969 Z M 21.480469 4.792969 "/>
<path style=" stroke:none;fill-rule:nonzero;fill:rgb(10.588235%,15.686275%,21.960784%);fill-opacity:1;" d="M 11.949219 8.144531 C 11.882812 8.15625 11.75 8.191406 11.664062 8.222656 C 11.578125 8.25 11.421875 8.3125 11.320312 8.363281 C 11.21875 8.410156 11.050781 8.507812 10.949219 8.574219 C 10.847656 8.644531 10.726562 8.730469 10.679688 8.769531 L 10.59375 8.839844 L 10.59375 10.171875 C 10.980469 10.179688 11.246094 10.175781 11.429688 10.167969 C 11.613281 10.164062 11.859375 10.140625 11.96875 10.125 C 12.082031 10.105469 12.25 10.074219 12.335938 10.054688 C 12.421875 10.03125 12.535156 9.996094 12.59375 9.972656 C 12.652344 9.953125 12.753906 9.910156 12.820312 9.875 C 12.898438 9.835938 12.996094 9.761719 13.082031 9.675781 C 13.199219 9.554688 13.226562 9.515625 13.261719 9.402344 C 13.285156 9.328125 13.304688 9.226562 13.304688 9.171875 C 13.304688 9.121094 13.292969 9.011719 13.273438 8.933594 C 13.257812 8.855469 13.210938 8.722656 13.175781 8.644531 C 13.125 8.542969 13.066406 8.460938 12.984375 8.378906 C 12.914062 8.308594 12.820312 8.238281 12.757812 8.207031 C 12.699219 8.179688 12.601562 8.148438 12.542969 8.136719 C 12.488281 8.125 12.359375 8.113281 12.261719 8.117188 C 12.160156 8.117188 12.019531 8.128906 11.949219 8.144531 Z M 11.949219 8.144531 "/>
<path style=" stroke:none;fill-rule:nonzero;fill:rgb(62.352941%,12.156863%,20%);fill-opacity:1;" d="M 3.816406 11.160156 C 3.757812 11.289062 3.632812 11.582031 3.539062 11.808594 C 3.445312 12.035156 3.292969 12.414062 3.203125 12.652344 C 3.117188 12.890625 2.949219 13.355469 2.839844 13.691406 C 2.726562 14.023438 2.570312 14.527344 2.488281 14.808594 C 2.40625 15.089844 2.296875 15.488281 2.242188 15.699219 C 2.1875 15.910156 2.097656 16.277344 2.042969 16.511719 C 1.988281 16.75 1.886719 17.226562 1.816406 17.570312 C 1.75 17.917969 1.652344 18.449219 1.605469 18.757812 C 1.554688 19.066406 1.488281 19.519531 1.453125 19.765625 C 1.421875 20.015625 1.375 20.425781 1.347656 20.679688 C 1.320312 20.929688 1.277344 21.4375 1.25 21.804688 C 1.222656 22.171875 1.199219 22.570312 1.191406 22.6875 C 1.1875 22.804688 1.171875 23.257812 1.160156 23.695312 C 1.140625 24.292969 1.140625 24.6875 1.160156 25.292969 C 1.171875 25.738281 1.1875 26.191406 1.191406 26.304688 C 1.199219 26.417969 1.214844 26.699219 1.230469 26.929688 C 1.246094 27.160156 1.273438 27.507812 1.289062 27.695312 C 1.304688 27.882812 1.332031 28.164062 1.347656 28.320312 C 1.363281 28.480469 1.394531 28.75 1.417969 28.929688 C 1.4375 29.109375 1.476562 29.40625 1.503906 29.597656 C 1.53125 29.785156 1.589844 30.15625 1.632812 30.417969 C 1.675781 30.683594 1.761719 31.160156 1.828125 31.476562 C 1.890625 31.796875 1.984375 32.230469 2.035156 32.449219 C 2.082031 32.664062 2.171875 33.027344 2.230469 33.25 C 2.289062 33.480469 2.394531 33.859375 2.464844 34.105469 C 2.535156 34.347656 2.652344 34.742188 2.734375 34.984375 C 2.808594 35.230469 2.941406 35.621094 3.027344 35.859375 C 3.113281 36.09375 3.246094 36.453125 3.320312 36.652344 C 3.398438 36.851562 3.53125 37.175781 3.617188 37.378906 C 3.699219 37.578125 3.839844 37.894531 3.925781 38.082031 C 4.011719 38.269531 4.140625 38.539062 4.210938 38.679688 L 4.335938 38.933594 L 4.34375 11.542969 C 4.035156 11.082031 3.941406 10.941406 3.933594 10.933594 C 3.925781 10.925781 3.875 11.023438 3.816406 11.160156 Z M 3.816406 11.160156 "/>
<path style=" stroke:none;fill-rule:nonzero;fill:rgb(100%,100%,100%);fill-opacity:1;" d="M 27.984375 11.042969 C 27.957031 11.09375 27.929688 11.144531 27.929688 11.152344 C 27.929688 11.164062 27.921875 11.171875 27.910156 11.171875 C 27.902344 11.171875 27.890625 11.1875 27.890625 11.203125 C 27.890625 11.21875 27.882812 11.230469 27.871094 11.230469 C 27.863281 11.230469 27.851562 11.242188 27.855469 11.257812 C 27.855469 11.269531 27.835938 11.300781 27.816406 11.324219 C 27.789062 11.347656 27.773438 11.378906 27.773438 11.386719 C 27.773438 11.398438 27.765625 11.40625 27.757812 11.40625 C 27.75 11.40625 27.71875 11.449219 27.683594 11.503906 C 27.652344 11.558594 27.621094 11.601562 27.613281 11.601562 C 27.605469 11.601562 27.597656 11.613281 27.597656 11.621094 C 27.597656 11.632812 27.585938 11.652344 27.574219 11.667969 C 27.558594 11.683594 27.535156 11.71875 27.519531 11.742188 C 27.503906 11.765625 27.46875 11.808594 27.445312 11.835938 C 27.417969 11.863281 27.375 11.921875 27.34375 11.964844 C 27.316406 12.007812 27.269531 12.070312 27.238281 12.101562 C 27.207031 12.132812 27.183594 12.164062 27.183594 12.171875 C 27.1875 12.175781 27.164062 12.203125 27.140625 12.230469 C 27.117188 12.261719 27.074219 12.3125 27.046875 12.347656 C 27.019531 12.382812 26.980469 12.429688 26.957031 12.453125 C 26.9375 12.480469 26.894531 12.53125 26.863281 12.566406 C 26.832031 12.601562 26.769531 12.675781 26.726562 12.726562 C 26.679688 12.777344 26.59375 12.875 26.53125 12.941406 L 26.417969 13.0625 L 26.417969 25.636719 C 30.359375 25.636719 30.824219 25.632812 30.832031 25.613281 C 30.839844 25.597656 30.84375 25.113281 30.84375 24.53125 C 30.84375 23.949219 30.835938 23.25 30.820312 22.980469 C 30.808594 22.710938 30.796875 22.425781 30.789062 22.34375 C 30.785156 22.261719 30.765625 22.007812 30.75 21.777344 C 30.734375 21.542969 30.703125 21.175781 30.683594 20.953125 C 30.660156 20.730469 30.617188 20.335938 30.585938 20.070312 C 30.550781 19.804688 30.496094 19.382812 30.457031 19.128906 C 30.417969 18.875 30.351562 18.472656 30.308594 18.226562 C 30.265625 17.984375 30.195312 17.609375 30.152344 17.394531 C 30.105469 17.179688 30.03125 16.832031 29.980469 16.621094 C 29.933594 16.410156 29.859375 16.097656 29.816406 15.925781 C 29.773438 15.753906 29.695312 15.464844 29.648438 15.289062 C 29.597656 15.109375 29.5 14.761719 29.425781 14.515625 C 29.351562 14.265625 29.214844 13.84375 29.125 13.574219 C 29.03125 13.304688 28.898438 12.925781 28.824219 12.730469 C 28.753906 12.535156 28.625 12.203125 28.539062 11.996094 C 28.453125 11.785156 28.328125 11.480469 28.253906 11.320312 C 28.183594 11.160156 28.121094 11.007812 28.117188 10.992188 C 28.109375 10.972656 28.09375 10.957031 28.074219 10.957031 C 28.054688 10.957031 28.015625 10.996094 27.984375 11.042969 Z M 27.984375 11.042969 "/>
<path style=" stroke:none;fill-rule:nonzero;fill:rgb(87.058824%,87.058824%,88.627451%);fill-opacity:1;" d="M 8.777344 11.457031 C 8.769531 11.464844 8.761719 11.484375 8.765625 11.5 C 8.765625 11.515625 8.792969 11.523438 8.851562 11.519531 C 8.917969 11.519531 8.921875 11.515625 8.871094 11.511719 C 8.832031 11.507812 8.804688 11.492188 8.800781 11.472656 C 8.796875 11.457031 8.789062 11.449219 8.777344 11.457031 Z M 11.597656 11.539062 C 11.699219 11.542969 11.871094 11.542969 11.980469 11.539062 C 12.089844 11.535156 12.003906 11.53125 11.792969 11.53125 C 11.582031 11.53125 11.496094 11.535156 11.597656 11.539062 Z M 11.597656 11.539062 "/>
<path style=" stroke:none;fill-rule:nonzero;fill:rgb(100%,100%,100%);fill-opacity:1;" d="M 16.808594 12.277344 C 16.800781 12.28125 16.757812 12.292969 16.714844 12.300781 C 16.671875 12.308594 16.589844 12.335938 16.53125 12.367188 C 16.472656 12.394531 16.398438 12.433594 16.363281 12.457031 C 16.332031 12.476562 16.253906 12.542969 16.195312 12.605469 C 16.136719 12.667969 16.070312 12.742188 16.046875 12.773438 C 16.019531 12.800781 16 12.839844 16 12.855469 C 16 12.867188 15.992188 12.878906 15.984375 12.878906 C 15.976562 12.878906 15.941406 12.9375 15.90625 13.007812 C 15.871094 13.082031 15.832031 13.179688 15.8125 13.230469 C 15.796875 13.277344 15.777344 13.335938 15.773438 13.355469 C 15.769531 13.378906 15.761719 13.417969 15.753906 13.445312 C 15.75 13.472656 15.738281 13.527344 15.734375 13.5625 C 15.726562 13.601562 15.71875 13.660156 15.714844 13.691406 C 15.710938 13.722656 15.707031 13.832031 15.703125 13.9375 C 15.703125 14.039062 15.707031 14.167969 15.714844 14.21875 C 15.722656 14.273438 15.730469 14.339844 15.734375 14.367188 C 15.738281 14.394531 15.746094 14.4375 15.753906 14.464844 C 15.761719 14.492188 15.769531 14.535156 15.777344 14.5625 C 15.78125 14.589844 15.789062 14.617188 15.792969 14.621094 C 15.796875 14.628906 15.808594 14.652344 15.8125 14.679688 C 15.820312 14.707031 15.859375 14.800781 15.902344 14.886719 C 15.945312 14.972656 15.992188 15.0625 16.007812 15.082031 C 16.019531 15.101562 16.039062 15.132812 16.050781 15.148438 C 16.0625 15.164062 16.136719 15.246094 16.222656 15.328125 C 16.304688 15.414062 16.386719 15.484375 16.402344 15.484375 C 16.421875 15.484375 16.433594 15.488281 16.433594 15.5 C 16.433594 15.507812 16.460938 15.527344 16.496094 15.542969 C 16.53125 15.558594 16.570312 15.570312 16.578125 15.574219 C 16.589844 15.574219 16.640625 15.589844 16.6875 15.605469 C 16.734375 15.621094 16.835938 15.632812 16.90625 15.628906 C 16.972656 15.628906 17.0625 15.621094 17.101562 15.613281 C 17.136719 15.605469 17.234375 15.566406 17.316406 15.527344 C 17.40625 15.480469 17.503906 15.410156 17.582031 15.335938 C 17.648438 15.273438 17.730469 15.179688 17.765625 15.128906 C 17.800781 15.074219 17.828125 15.023438 17.828125 15.011719 C 17.828125 15.003906 17.835938 14.992188 17.84375 14.992188 C 17.851562 14.996094 17.867188 14.96875 17.882812 14.933594 C 17.894531 14.902344 17.90625 14.871094 17.90625 14.867188 C 17.90625 14.859375 17.921875 14.828125 17.941406 14.792969 C 17.957031 14.757812 17.976562 14.714844 17.984375 14.699219 C 17.992188 14.683594 18.003906 14.640625 18.011719 14.609375 C 18.019531 14.574219 18.027344 14.539062 18.027344 14.53125 C 18.027344 14.519531 18.035156 14.5 18.046875 14.484375 C 18.054688 14.46875 18.066406 14.402344 18.074219 14.335938 C 18.085938 14.273438 18.089844 14.101562 18.089844 13.957031 C 18.089844 13.808594 18.085938 13.65625 18.078125 13.613281 C 18.070312 13.570312 18.058594 13.503906 18.050781 13.464844 C 18.046875 13.429688 18.03125 13.382812 18.023438 13.359375 C 18.011719 13.34375 18.011719 13.328125 18.015625 13.328125 C 18.019531 13.328125 18.007812 13.28125 17.988281 13.226562 C 17.96875 13.167969 17.9375 13.097656 17.921875 13.066406 C 17.902344 13.039062 17.894531 13.015625 17.902344 13.015625 C 17.910156 13.015625 17.90625 13.003906 17.890625 12.992188 C 17.878906 12.976562 17.847656 12.929688 17.824219 12.882812 C 17.800781 12.839844 17.757812 12.769531 17.730469 12.734375 C 17.703125 12.699219 17.644531 12.636719 17.601562 12.59375 C 17.558594 12.550781 17.5 12.5 17.476562 12.480469 C 17.453125 12.460938 17.425781 12.445312 17.414062 12.445312 C 17.402344 12.445312 17.394531 12.441406 17.394531 12.433594 C 17.394531 12.421875 17.363281 12.402344 17.324219 12.382812 C 17.28125 12.363281 17.246094 12.347656 17.238281 12.347656 C 17.234375 12.351562 17.203125 12.339844 17.171875 12.328125 C 17.136719 12.316406 17.09375 12.300781 17.070312 12.296875 C 17.050781 12.292969 16.984375 12.28125 16.925781 12.277344 C 16.863281 12.269531 16.8125 12.269531 16.808594 12.277344 Z M 19.597656 12.296875 C 19.589844 12.300781 19.542969 12.308594 19.488281 12.316406 C 19.4375 12.320312 19.367188 12.332031 19.339844 12.339844 C 19.3125 12.34375 19.269531 12.355469 19.242188 12.359375 C 19.214844 12.367188 19.183594 12.378906 19.175781 12.382812 C 19.164062 12.390625 19.152344 12.398438 19.144531 12.398438 C 19.140625 12.398438 19.097656 12.414062 19.050781 12.4375 C 19.003906 12.457031 18.964844 12.480469 18.96875 12.492188 C 18.96875 12.5 18.957031 12.503906 18.941406 12.503906 C 18.929688 12.503906 18.878906 12.546875 18.828125 12.597656 C 18.78125 12.648438 18.722656 12.71875 18.703125 12.75 C 18.679688 12.78125 18.640625 12.867188 18.613281 12.9375 C 18.574219 13.042969 18.566406 13.097656 18.566406 13.289062 C 18.566406 13.414062 18.570312 13.53125 18.578125 13.554688 C 18.582031 13.574219 18.597656 13.632812 18.613281 13.679688 C 18.628906 13.730469 18.652344 13.78125 18.664062 13.796875 C 18.679688 13.8125 18.691406 13.832031 18.691406 13.84375 C 18.695312 13.851562 18.703125 13.871094 18.71875 13.886719 C 18.730469 13.90625 18.769531 13.949219 18.804688 13.984375 C 18.835938 14.015625 18.878906 14.054688 18.898438 14.070312 C 18.914062 14.082031 18.957031 14.109375 18.992188 14.132812 C 19.027344 14.152344 19.117188 14.1875 19.195312 14.210938 C 19.269531 14.234375 19.34375 14.257812 19.359375 14.261719 C 19.375 14.265625 19.425781 14.273438 19.46875 14.28125 C 19.511719 14.289062 19.59375 14.292969 19.652344 14.292969 C 19.730469 14.289062 19.753906 14.292969 19.753906 14.316406 C 19.753906 14.332031 19.742188 14.367188 19.730469 14.390625 C 19.71875 14.414062 19.703125 14.4375 19.695312 14.445312 C 19.691406 14.449219 19.667969 14.480469 19.652344 14.511719 C 19.632812 14.539062 19.574219 14.585938 19.519531 14.613281 C 19.464844 14.640625 19.382812 14.675781 19.335938 14.6875 C 19.277344 14.710938 19.1875 14.714844 19.035156 14.710938 C 18.917969 14.707031 18.800781 14.699219 18.777344 14.691406 C 18.734375 14.679688 18.734375 14.683594 18.730469 14.902344 L 18.730469 15.121094 C 18.890625 15.175781 18.976562 15.195312 19.027344 15.203125 C 19.078125 15.210938 19.171875 15.214844 19.242188 15.214844 C 19.3125 15.214844 19.402344 15.210938 19.441406 15.203125 C 19.476562 15.195312 19.53125 15.1875 19.558594 15.179688 C 19.585938 15.175781 19.628906 15.164062 19.65625 15.160156 C 19.683594 15.152344 19.734375 15.136719 19.773438 15.117188 C 19.8125 15.101562 19.871094 15.078125 19.902344 15.0625 C 19.933594 15.046875 19.980469 15.019531 20 15.007812 C 20.023438 14.992188 20.066406 14.964844 20.097656 14.945312 C 20.128906 14.921875 20.21875 14.84375 20.292969 14.765625 C 20.371094 14.691406 20.441406 14.613281 20.453125 14.597656 C 20.460938 14.582031 20.480469 14.554688 20.496094 14.53125 C 20.507812 14.511719 20.542969 14.4375 20.578125 14.371094 C 20.613281 14.304688 20.640625 14.242188 20.640625 14.234375 C 20.640625 14.226562 20.648438 14.210938 20.660156 14.199219 C 20.667969 14.191406 20.679688 14.160156 20.6875 14.132812 C 20.691406 14.105469 20.703125 14.0625 20.707031 14.035156 C 20.714844 14.007812 20.730469 13.949219 20.738281 13.90625 C 20.746094 13.863281 20.75 13.714844 20.75 13.574219 C 20.746094 13.433594 20.734375 13.285156 20.730469 13.25 C 20.722656 13.210938 20.710938 13.167969 20.703125 13.152344 C 20.699219 13.136719 20.6875 13.109375 20.6875 13.09375 C 20.683594 13.078125 20.648438 12.996094 20.605469 12.917969 C 20.554688 12.820312 20.492188 12.730469 20.410156 12.652344 C 20.34375 12.585938 20.277344 12.523438 20.257812 12.511719 C 20.242188 12.496094 20.222656 12.484375 20.21875 12.484375 C 20.210938 12.484375 20.179688 12.46875 20.152344 12.445312 C 20.121094 12.421875 20.085938 12.402344 20.070312 12.402344 C 20.050781 12.398438 20.019531 12.386719 19.996094 12.371094 C 19.972656 12.359375 19.949219 12.351562 19.949219 12.359375 C 19.949219 12.363281 19.925781 12.359375 19.898438 12.347656 C 19.867188 12.335938 19.824219 12.320312 19.800781 12.316406 C 19.78125 12.3125 19.726562 12.304688 19.683594 12.296875 C 19.640625 12.292969 19.601562 12.289062 19.597656 12.296875 Z M 13.757812 12.339844 C 13.753906 12.34375 13.738281 12.351562 13.722656 12.355469 C 13.703125 12.359375 13.640625 12.375 13.582031 12.394531 C 13.523438 12.410156 13.433594 12.453125 13.382812 12.484375 C 13.328125 12.515625 13.234375 12.59375 13.171875 12.65625 C 13.109375 12.71875 13.039062 12.800781 13.015625 12.839844 C 12.992188 12.875 12.964844 12.929688 12.949219 12.957031 C 12.9375 12.984375 12.917969 13.03125 12.902344 13.0625 C 12.886719 13.09375 12.871094 13.160156 12.863281 13.210938 C 12.855469 13.257812 12.847656 13.371094 12.847656 13.457031 C 12.847656 13.542969 12.851562 13.644531 12.859375 13.679688 C 12.867188 13.71875 12.875 13.773438 12.882812 13.800781 C 12.886719 13.832031 12.902344 13.878906 12.917969 13.910156 C 12.929688 13.941406 12.941406 13.980469 12.945312 13.996094 C 12.949219 14.011719 12.976562 14.058594 13.007812 14.101562 C 13.035156 14.144531 13.101562 14.21875 13.148438 14.269531 C 13.199219 14.316406 13.289062 14.382812 13.355469 14.414062 C 13.457031 14.464844 13.496094 14.472656 13.640625 14.472656 C 13.734375 14.472656 13.863281 14.464844 13.925781 14.457031 C 13.992188 14.449219 14.046875 14.4375 14.054688 14.433594 C 14.058594 14.429688 14.085938 14.421875 14.117188 14.417969 C 14.148438 14.410156 14.195312 14.402344 14.226562 14.394531 C 14.257812 14.390625 14.292969 14.378906 14.304688 14.375 C 14.320312 14.371094 14.328125 14.382812 14.328125 14.40625 C 14.328125 14.425781 14.3125 14.503906 14.292969 14.574219 C 14.277344 14.644531 14.253906 14.699219 14.246094 14.699219 C 14.238281 14.699219 14.230469 14.710938 14.230469 14.71875 C 14.230469 14.730469 14.210938 14.757812 14.1875 14.78125 C 14.164062 14.808594 14.105469 14.84375 14.0625 14.863281 C 14.019531 14.886719 13.972656 14.90625 13.957031 14.910156 C 13.9375 14.914062 13.863281 14.917969 13.789062 14.917969 C 13.710938 14.917969 13.628906 14.910156 13.605469 14.90625 C 13.582031 14.898438 13.546875 14.890625 13.527344 14.886719 C 13.507812 14.882812 13.429688 14.855469 13.347656 14.828125 C 13.265625 14.796875 13.164062 14.757812 13.125 14.738281 C 13.085938 14.714844 13.042969 14.699219 13.03125 14.699219 C 13.019531 14.699219 13.011719 14.796875 13.011719 14.949219 C 13.011719 15.132812 13.019531 15.207031 13.035156 15.222656 C 13.050781 15.234375 13.128906 15.28125 13.207031 15.324219 C 13.289062 15.363281 13.386719 15.410156 13.425781 15.421875 C 13.464844 15.433594 13.515625 15.449219 13.542969 15.457031 C 13.570312 15.460938 13.617188 15.472656 13.652344 15.476562 C 13.683594 15.484375 13.792969 15.488281 13.898438 15.488281 C 14 15.492188 14.105469 15.484375 14.132812 15.480469 C 14.160156 15.472656 14.207031 15.457031 14.234375 15.445312 C 14.265625 15.433594 14.289062 15.429688 14.289062 15.433594 C 14.289062 15.441406 14.34375 15.414062 14.414062 15.382812 C 14.480469 15.347656 14.546875 15.304688 14.5625 15.292969 C 14.578125 15.28125 14.59375 15.269531 14.601562 15.269531 C 14.609375 15.269531 14.65625 15.226562 14.707031 15.175781 C 14.757812 15.125 14.820312 15.058594 14.84375 15.027344 C 14.871094 15 14.925781 14.902344 14.96875 14.8125 C 15.015625 14.722656 15.0625 14.617188 15.074219 14.574219 C 15.089844 14.53125 15.105469 14.476562 15.109375 14.453125 C 15.109375 14.433594 15.121094 14.378906 15.128906 14.335938 C 15.136719 14.292969 15.144531 14.117188 15.144531 13.945312 C 15.144531 13.773438 15.136719 13.59375 15.128906 13.542969 C 15.121094 13.496094 15.109375 13.429688 15.105469 13.398438 C 15.097656 13.367188 15.066406 13.257812 15.03125 13.160156 C 15 13.066406 14.960938 12.957031 14.941406 12.921875 C 14.925781 12.886719 14.902344 12.859375 14.894531 12.859375 C 14.886719 12.859375 14.878906 12.84375 14.878906 12.828125 C 14.878906 12.8125 14.871094 12.796875 14.859375 12.796875 C 14.847656 12.796875 14.839844 12.785156 14.839844 12.773438 C 14.839844 12.761719 14.785156 12.695312 14.71875 12.625 C 14.648438 12.558594 14.582031 12.503906 14.570312 12.503906 C 14.558594 12.503906 14.546875 12.5 14.546875 12.492188 C 14.546875 12.480469 14.496094 12.453125 14.433594 12.421875 C 14.371094 12.394531 14.292969 12.363281 14.261719 12.355469 C 14.226562 12.347656 14.105469 12.339844 13.980469 12.335938 C 13.863281 12.335938 13.761719 12.335938 13.757812 12.339844 Z M 11.609375 12.453125 C 11.582031 12.496094 11.535156 12.554688 11.507812 12.582031 C 11.476562 12.609375 11.398438 12.652344 11.339844 12.679688 C 11.28125 12.703125 11.214844 12.726562 11.195312 12.730469 C 11.171875 12.734375 11.132812 12.742188 11.101562 12.75 L 11.046875 12.757812 L 11.046875 13.171875 C 11.28125 13.15625 11.367188 13.148438 11.390625 13.144531 C 11.410156 13.140625 11.441406 13.132812 11.453125 13.132812 C 11.464844 13.132812 11.492188 13.117188 11.507812 13.101562 C 11.535156 13.074219 11.539062 13.15625 11.539062 13.976562 L 11.539062 14.875 C 11.636719 14.917969 11.726562 14.953125 11.800781 14.984375 C 11.878906 15.011719 11.957031 15.042969 11.980469 15.054688 C 12.003906 15.0625 12.042969 15.078125 12.074219 15.089844 C 12.101562 15.101562 12.152344 15.121094 12.179688 15.132812 C 12.210938 15.144531 12.253906 15.164062 12.269531 15.171875 C 12.289062 15.183594 12.308594 15.191406 12.316406 15.191406 C 12.320312 15.191406 12.324219 14.570312 12.324219 13.808594 C 12.324219 12.90625 12.316406 12.421875 12.304688 12.417969 C 12.292969 12.410156 12.207031 12.402344 12.113281 12.398438 C 12.019531 12.390625 11.878906 12.382812 11.796875 12.378906 L 11.65625 12.371094 Z M 11.609375 12.453125 "/>
<path style=" stroke:none;fill-rule:nonzero;fill:rgb(87.058824%,87.058824%,88.627451%);fill-opacity:1;" d="M 11.03125 12.960938 L 11.035156 13.179688 C 11.046875 12.789062 11.050781 12.757812 11.082031 12.75 C 11.105469 12.746094 11.101562 12.742188 11.070312 12.742188 C 11.027344 12.738281 11.027344 12.742188 11.03125 12.960938 Z M 11.03125 12.960938 "/>
<path style=" stroke:none;fill-rule:nonzero;fill:rgb(10.588235%,15.686275%,21.960784%);fill-opacity:1;" d="M 13.839844 12.921875 C 13.800781 12.9375 13.742188 12.96875 13.703125 12.992188 C 13.664062 13.015625 13.621094 13.078125 13.589844 13.148438 C 13.542969 13.25 13.539062 13.277344 13.542969 13.4375 C 13.550781 13.59375 13.558594 13.628906 13.613281 13.710938 C 13.652344 13.777344 13.699219 13.820312 13.761719 13.851562 C 13.808594 13.878906 13.882812 13.894531 13.929688 13.894531 C 13.976562 13.894531 14.042969 13.882812 14.078125 13.871094 C 14.113281 13.855469 14.175781 13.8125 14.21875 13.777344 C 14.257812 13.738281 14.3125 13.671875 14.332031 13.621094 C 14.363281 13.5625 14.375 13.5 14.371094 13.417969 C 14.371094 13.347656 14.351562 13.25 14.324219 13.179688 C 14.300781 13.117188 14.253906 13.039062 14.222656 13.003906 C 14.1875 12.972656 14.128906 12.933594 14.082031 12.921875 C 14.039062 12.910156 13.980469 12.898438 13.957031 12.898438 C 13.929688 12.898438 13.875 12.910156 13.839844 12.921875 Z M 19.507812 12.945312 C 19.449219 12.972656 19.386719 13.023438 19.355469 13.066406 C 19.328125 13.109375 19.292969 13.179688 19.28125 13.230469 C 19.269531 13.277344 19.265625 13.351562 19.269531 13.394531 C 19.277344 13.433594 19.300781 13.5 19.320312 13.539062 C 19.339844 13.578125 19.382812 13.636719 19.414062 13.664062 C 19.445312 13.695312 19.496094 13.726562 19.523438 13.738281 C 19.554688 13.75 19.617188 13.757812 19.664062 13.757812 C 19.714844 13.757812 19.777344 13.746094 19.808594 13.730469 C 19.839844 13.71875 19.890625 13.675781 19.921875 13.640625 C 19.957031 13.601562 20 13.53125 20.019531 13.476562 C 20.046875 13.402344 20.050781 13.351562 20.042969 13.277344 C 20.035156 13.226562 20.007812 13.144531 19.980469 13.097656 C 19.953125 13.050781 19.898438 12.992188 19.859375 12.964844 C 19.816406 12.941406 19.742188 12.914062 19.695312 12.90625 C 19.625 12.898438 19.585938 12.90625 19.507812 12.945312 Z M 16.703125 13.035156 C 16.644531 13.070312 16.582031 13.132812 16.535156 13.207031 C 16.496094 13.265625 16.441406 13.386719 16.414062 13.464844 C 16.367188 13.597656 16.363281 13.640625 16.363281 13.9375 C 16.363281 14.238281 16.367188 14.269531 16.421875 14.414062 C 16.449219 14.503906 16.507812 14.621094 16.546875 14.679688 C 16.585938 14.738281 16.65625 14.808594 16.707031 14.839844 C 16.769531 14.878906 16.824219 14.894531 16.878906 14.894531 C 16.925781 14.894531 16.996094 14.878906 17.035156 14.859375 C 17.078125 14.839844 17.136719 14.789062 17.175781 14.75 C 17.210938 14.710938 17.265625 14.628906 17.296875 14.570312 C 17.328125 14.507812 17.367188 14.398438 17.386719 14.328125 C 17.414062 14.234375 17.421875 14.128906 17.421875 13.9375 C 17.421875 13.742188 17.414062 13.636719 17.386719 13.542969 C 17.367188 13.472656 17.324219 13.359375 17.292969 13.289062 C 17.257812 13.222656 17.191406 13.132812 17.144531 13.089844 C 17.097656 13.046875 17.039062 13.007812 17.011719 12.996094 C 16.984375 12.984375 16.925781 12.976562 16.878906 12.976562 C 16.820312 12.976562 16.769531 12.992188 16.703125 13.035156 Z M 16.703125 13.035156 "/>
<path style=" stroke:none;fill-rule:nonzero;fill:rgb(62.352941%,12.156863%,20%);fill-opacity:1;" d="M 25.179688 14.21875 C 25.042969 14.335938 24.816406 14.519531 24.667969 14.628906 C 24.523438 14.742188 24.289062 14.910156 24.148438 15.003906 C 24.007812 15.101562 23.785156 15.25 23.65625 15.328125 C 23.527344 15.410156 23.289062 15.554688 23.125 15.644531 C 22.964844 15.738281 22.652344 15.902344 22.4375 16.007812 C 22.222656 16.113281 21.984375 16.230469 21.917969 16.257812 C 21.847656 16.289062 21.777344 16.324219 21.765625 16.335938 C 21.742188 16.351562 21.738281 17.3125 21.738281 21.488281 L 21.742188 26.617188 L 16.511719 26.617188 L 16.511719 30.28125 L 21.742188 30.28125 C 21.742188 44.4375 21.746094 46.019531 21.765625 46.011719 C 21.777344 46.007812 21.882812 45.941406 21.996094 45.863281 C 22.109375 45.785156 22.273438 45.667969 22.359375 45.601562 C 22.445312 45.535156 22.621094 45.398438 22.75 45.292969 C 22.882812 45.191406 23.101562 45.003906 23.246094 44.882812 C 23.382812 44.761719 23.695312 44.464844 23.929688 44.226562 C 24.171875 43.992188 24.496094 43.648438 24.65625 43.464844 C 24.820312 43.28125 25.058594 42.992188 25.191406 42.824219 L 25.433594 42.523438 L 25.433594 30.28125 L 30.386719 30.292969 C 30.417969 30.109375 30.453125 29.871094 30.484375 29.644531 C 30.519531 29.417969 30.5625 29.089844 30.582031 28.910156 C 30.605469 28.730469 30.644531 28.359375 30.671875 28.085938 C 30.699219 27.8125 30.734375 27.40625 30.75 27.179688 C 30.765625 26.957031 30.78125 26.738281 30.78125 26.695312 L 30.78125 26.617188 L 25.433594 26.617188 L 25.421875 14.011719 Z M 25.179688 14.21875 "/>
<path style=" stroke:none;fill-rule:nonzero;fill:rgb(87.058824%,87.058824%,88.627451%);fill-opacity:1;" d="M 13 14.945312 C 13 15.085938 13.003906 15.140625 13.007812 15.0625 C 13.011719 14.988281 13.011719 14.871094 13.007812 14.808594 C 13.003906 14.742188 13 14.804688 13 14.945312 Z M 13 14.945312 "/>
<path style=" stroke:none;fill-rule:nonzero;fill:rgb(62.352941%,12.156863%,20%);fill-opacity:1;" d="M 8.332031 29.925781 L 8.332031 44.5 C 8.71875 44.851562 8.949219 45.046875 9.089844 45.167969 C 9.230469 45.285156 9.476562 45.480469 9.640625 45.597656 C 9.804688 45.722656 10.019531 45.875 10.121094 45.945312 C 10.226562 46.015625 10.417969 46.140625 10.546875 46.222656 C 10.675781 46.304688 10.890625 46.429688 11.027344 46.503906 C 11.164062 46.582031 11.394531 46.703125 11.546875 46.78125 C 11.699219 46.855469 11.960938 46.976562 12.128906 47.046875 C 12.296875 47.117188 12.453125 47.179688 12.476562 47.183594 L 12.519531 47.195312 L 12.519531 17.089844 C 12.390625 17.058594 12.226562 17.015625 12.070312 16.972656 C 11.914062 16.925781 11.648438 16.847656 11.480469 16.792969 C 11.3125 16.738281 11.070312 16.652344 10.9375 16.605469 C 10.808594 16.558594 10.574219 16.46875 10.421875 16.402344 C 10.269531 16.339844 10.011719 16.226562 9.851562 16.152344 C 9.691406 16.078125 9.417969 15.941406 9.238281 15.847656 C 9.058594 15.753906 8.789062 15.601562 8.636719 15.507812 C 8.488281 15.417969 8.355469 15.347656 8.347656 15.347656 C 8.339844 15.347656 8.332031 21.90625 8.332031 29.925781 Z M 8.332031 29.925781 "/>
<path style=" stroke:none;fill-rule:nonzero;fill:rgb(87.058824%,87.058824%,88.627451%);fill-opacity:1;" d="M 20.730469 16.734375 C 20.75 16.746094 20.757812 17.703125 20.761719 21.1875 L 20.765625 25.628906 C 20.777344 16.941406 20.773438 16.71875 20.742188 16.71875 C 20.71875 16.71875 20.714844 16.726562 20.730469 16.734375 Z M 20.730469 16.734375 "/>
<path style=" stroke:none;fill-rule:nonzero;fill:rgb(100%,100%,100%);fill-opacity:1;" d="M 20.695312 16.746094 C 20.691406 16.753906 20.660156 16.761719 20.625 16.765625 C 20.589844 16.773438 20.539062 16.785156 20.515625 16.796875 C 20.492188 16.804688 20.464844 16.8125 20.457031 16.816406 C 20.449219 16.816406 20.394531 16.835938 20.339844 16.855469 C 20.28125 16.878906 20.207031 16.902344 20.167969 16.90625 C 20.128906 16.914062 20.085938 16.929688 20.074219 16.941406 C 20.058594 16.953125 20.046875 16.957031 20.046875 16.949219 C 20.046875 16.941406 20.023438 16.945312 19.996094 16.957031 C 19.964844 16.96875 19.925781 16.980469 19.90625 16.984375 C 19.886719 16.988281 19.859375 16.996094 19.839844 17 C 19.820312 17.003906 19.761719 17.019531 19.714844 17.035156 C 19.667969 17.046875 19.617188 17.0625 19.605469 17.0625 C 19.597656 17.066406 19.566406 17.074219 19.539062 17.082031 C 19.511719 17.085938 19.46875 17.097656 19.441406 17.101562 C 19.410156 17.109375 19.355469 17.121094 19.3125 17.132812 C 19.269531 17.140625 19.214844 17.152344 19.195312 17.160156 C 19.171875 17.164062 19.132812 17.171875 19.105469 17.179688 C 19.078125 17.183594 19.039062 17.195312 19.015625 17.199219 C 18.996094 17.203125 18.957031 17.210938 18.929688 17.214844 C 18.902344 17.222656 18.84375 17.234375 18.800781 17.238281 C 18.757812 17.242188 18.710938 17.253906 18.695312 17.257812 C 18.675781 17.265625 18.640625 17.273438 18.613281 17.277344 C 18.585938 17.285156 18.535156 17.292969 18.496094 17.300781 C 18.457031 17.304688 18.40625 17.3125 18.378906 17.316406 C 18.351562 17.320312 18.292969 17.332031 18.25 17.335938 C 18.207031 17.34375 18.148438 17.351562 18.121094 17.355469 C 18.097656 17.359375 18.039062 17.371094 17.996094 17.375 C 17.953125 17.382812 17.871094 17.390625 17.816406 17.398438 C 17.765625 17.402344 17.699219 17.410156 17.671875 17.414062 C 17.644531 17.417969 17.566406 17.425781 17.492188 17.433594 C 17.421875 17.4375 17.3125 17.449219 17.25 17.453125 C 17.183594 17.460938 17.0625 17.46875 16.984375 17.476562 C 16.902344 17.484375 16.773438 17.492188 16.695312 17.492188 C 16.621094 17.496094 16.550781 17.496094 16.535156 17.5 C 16.515625 17.503906 16.511719 18.332031 16.511719 21.570312 L 16.511719 25.636719 L 20.757812 25.636719 C 20.757812 17.492188 20.753906 16.738281 20.730469 16.738281 C 20.714844 16.738281 20.699219 16.742188 20.695312 16.746094 Z M 20.695312 16.746094 "/>
<path style=" stroke:none;fill-rule:nonzero;fill:rgb(10.588235%,15.686275%,21.960784%);fill-opacity:1;" d="M 25.433594 36.402344 L 25.433594 42.523438 C 25.628906 42.261719 25.746094 42.105469 25.816406 42.003906 C 25.890625 41.902344 26.058594 41.660156 26.1875 41.472656 L 26.417969 41.128906 L 26.417969 31.261719 L 30.21875 31.253906 C 30.257812 31.039062 30.292969 30.828125 30.324219 30.644531 C 30.359375 30.460938 30.378906 30.304688 30.375 30.296875 C 30.371094 30.289062 29.257812 30.28125 27.902344 30.28125 L 25.433594 30.28125 Z M 25.433594 36.402344 "/>
<path style=" stroke:none;fill-rule:nonzero;fill:rgb(100%,100%,100%);fill-opacity:1;" d="M 16.511719 39.554688 L 16.511719 47.84375 C 16.730469 47.824219 16.886719 47.8125 16.992188 47.800781 C 17.101562 47.789062 17.277344 47.769531 17.386719 47.753906 C 17.492188 47.738281 17.675781 47.707031 17.789062 47.683594 C 17.902344 47.664062 18.09375 47.625 18.210938 47.597656 C 18.332031 47.570312 18.558594 47.507812 18.722656 47.460938 C 18.882812 47.414062 19.15625 47.324219 19.320312 47.265625 C 19.488281 47.203125 19.75 47.101562 19.902344 47.035156 C 20.054688 46.972656 20.308594 46.851562 20.464844 46.773438 L 20.757812 46.628906 L 20.757812 31.261719 L 16.511719 31.261719 Z M 26.417969 36.171875 C 26.417969 39.429688 26.425781 41.082031 26.4375 41.082031 C 26.449219 41.082031 26.472656 41.050781 26.492188 41.019531 C 26.515625 40.984375 26.601562 40.835938 26.695312 40.691406 C 26.78125 40.542969 26.941406 40.277344 27.046875 40.09375 C 27.152344 39.910156 27.335938 39.570312 27.460938 39.335938 C 27.582031 39.105469 27.722656 38.828125 27.773438 38.71875 C 27.828125 38.613281 27.917969 38.417969 27.980469 38.289062 C 28.042969 38.160156 28.183594 37.835938 28.300781 37.574219 C 28.414062 37.308594 28.554688 36.96875 28.613281 36.820312 C 28.671875 36.667969 28.777344 36.390625 28.847656 36.203125 C 28.917969 36.011719 29.03125 35.703125 29.09375 35.515625 C 29.15625 35.328125 29.269531 34.984375 29.339844 34.761719 C 29.410156 34.535156 29.519531 34.164062 29.585938 33.9375 C 29.648438 33.710938 29.753906 33.316406 29.816406 33.066406 C 29.878906 32.8125 29.964844 32.464844 30.003906 32.289062 C 30.039062 32.117188 30.105469 31.824219 30.144531 31.632812 C 30.179688 31.445312 30.210938 31.285156 30.210938 31.277344 C 30.210938 31.269531 29.359375 31.261719 28.316406 31.261719 L 26.417969 31.261719 Z M 26.417969 36.171875 "/>
</g>
</svg>
