<?xml version="1.0" encoding="UTF-8"?>
<svg xmlns="http://www.w3.org/2000/svg" xmlns:xlink="http://www.w3.org/1999/xlink" width="32px" height="32px" viewBox="0 0 32 32" version="1.1">
<g id="surface1">
<path style=" stroke:none;fill-rule:nonzero;fill:rgb(100%,100%,100%);fill-opacity:1;" d="M 0.105469 16 L 16 0.109375 L 31.890625 16 L 15.996094 31.890625 Z M 0.105469 16 "/>
<path style=" stroke:none;fill-rule:nonzero;fill:rgb(33.72549%,23.921569%,50.980392%);fill-opacity:1;" d="M 0.832031 16 L 15.996094 0.832031 L 31.164062 16 L 15.996094 31.167969 Z M 0.832031 16 "/>
<path style=" stroke:none;fill-rule:nonzero;fill:rgb(100%,100%,100%);fill-opacity:1;" d="M 3 16 L 16 3 L 29 16 L 16 29 Z M 3 16 "/>
<path style=" stroke:none;fill-rule:nonzero;fill:rgb(85.490196%,16.078431%,10.980392%);fill-opacity:1;" d="M 22.714844 11.59375 L 21.035156 9.914062 C 20.585938 9.460938 19.855469 9.453125 19.394531 9.898438 C 18.464844 10.789062 17.480469 11.886719 16.828125 13.179688 C 17.121094 11.234375 17.789062 9.148438 18.671875 7.546875 L 16.226562 5.101562 L 13.78125 7.546875 C 14.664062 9.152344 15.332031 11.238281 15.625 13.179688 C 14.96875 11.882812 13.988281 10.789062 13.058594 9.898438 C 12.597656 9.453125 11.867188 9.460938 11.417969 9.914062 L 9.738281 11.59375 L 12.457031 14.3125 L 12.457031 11.796875 C 13.273438 12.039062 14.949219 13.015625 15.542969 14.3125 L 14.476562 14.3125 L 14.476562 14.867188 L 15.660156 14.867188 L 14.671875 15.675781 C 14.554688 15.773438 14.480469 15.914062 14.472656 16.066406 C 14.464844 16.21875 14.523438 16.367188 14.628906 16.476562 L 16.234375 18.085938 L 17.835938 16.476562 C 17.941406 16.371094 18 16.21875 17.992188 16.066406 C 17.984375 15.914062 17.910156 15.773438 17.792969 15.675781 L 16.804688 14.867188 L 17.988281 14.867188 L 17.988281 14.3125 L 16.921875 14.3125 C 17.511719 13.015625 19.1875 12.039062 20.003906 11.796875 L 20.003906 14.3125 L 22.726562 11.59375 Z M 22.714844 11.59375 "/>
<path style=" stroke:none;fill-rule:nonzero;fill:rgb(33.72549%,23.921569%,50.980392%);fill-opacity:1;" d="M 5.101562 16.230469 L 11.640625 16.230469 L 16 20.5 L 20.359375 16.230469 L 26.898438 16.230469 L 16 26.898438 Z M 5.101562 16.230469 "/>
</g>
</svg>
