<?xml version="1.0" encoding="UTF-8"?>
<svg xmlns="http://www.w3.org/2000/svg" xmlns:xlink="http://www.w3.org/1999/xlink" width="32px" height="32px" viewBox="0 0 32 32" version="1.1">
<g id="surface1">
<path style=" stroke:none;fill-rule:evenodd;fill:rgb(0%,18.431373%,42.352941%);fill-opacity:1;" d="M 20.519531 0 C 20.660156 0 20.695312 0.00390625 20.816406 0.0351562 C 20.90625 0.0546875 20.996094 0.0859375 21.070312 0.121094 C 21.132812 0.152344 21.214844 0.203125 21.257812 0.234375 C 21.296875 0.265625 21.363281 0.320312 21.402344 0.359375 C 21.4375 0.398438 21.484375 0.457031 21.507812 0.488281 C 21.53125 0.519531 21.566406 0.582031 21.589844 0.628906 C 21.613281 0.675781 21.644531 0.757812 21.660156 0.8125 C 21.679688 0.867188 21.699219 0.964844 21.703125 1.019531 C 21.710938 1.097656 21.710938 1.160156 21.703125 1.246094 C 21.695312 1.308594 21.675781 1.40625 21.660156 1.460938 C 21.644531 1.511719 21.609375 1.601562 21.578125 1.65625 C 21.550781 1.710938 21.496094 1.792969 21.460938 1.835938 C 21.425781 1.878906 21.367188 1.941406 21.328125 1.976562 C 21.289062 2.007812 21.214844 2.0625 21.164062 2.09375 C 21.109375 2.125 21.023438 2.167969 20.964844 2.1875 C 20.910156 2.207031 20.824219 2.230469 20.785156 2.238281 C 20.738281 2.25 20.65625 2.261719 20.59375 2.265625 C 20.53125 2.265625 20.4375 2.265625 20.371094 2.257812 C 20.308594 2.246094 20.214844 2.230469 20.167969 2.214844 C 20.117188 2.203125 20.042969 2.175781 20.007812 2.160156 C 19.96875 2.144531 19.894531 2.101562 19.84375 2.070312 C 19.792969 2.035156 19.710938 1.972656 19.667969 1.929688 C 19.625 1.886719 19.5625 1.808594 19.527344 1.761719 C 19.492188 1.707031 19.449219 1.628906 19.429688 1.585938 C 19.410156 1.539062 19.382812 1.460938 19.367188 1.40625 C 19.347656 1.324219 19.34375 1.277344 19.34375 1.132812 C 19.34375 0.992188 19.347656 0.941406 19.367188 0.863281 C 19.382812 0.8125 19.410156 0.730469 19.429688 0.683594 C 19.449219 0.636719 19.492188 0.558594 19.527344 0.503906 C 19.5625 0.453125 19.632812 0.371094 19.679688 0.324219 C 19.730469 0.28125 19.8125 0.210938 19.871094 0.179688 C 19.925781 0.144531 20.015625 0.101562 20.070312 0.0820312 C 20.125 0.0625 20.214844 0.0351562 20.265625 0.0234375 C 20.332031 0.0078125 20.40625 0 20.519531 0 Z M 20.199219 0.511719 C 20.152344 0.539062 20.089844 0.585938 20.046875 0.628906 C 19.996094 0.679688 19.957031 0.726562 19.929688 0.785156 C 19.90625 0.832031 19.878906 0.902344 19.871094 0.941406 C 19.859375 0.980469 19.851562 1.0625 19.851562 1.125 C 19.851562 1.195312 19.859375 1.253906 19.875 1.3125 C 19.886719 1.359375 19.914062 1.425781 19.933594 1.464844 C 19.957031 1.503906 20.007812 1.566406 20.050781 1.609375 C 20.097656 1.65625 20.160156 1.707031 20.199219 1.726562 C 20.238281 1.742188 20.292969 1.769531 20.328125 1.777344 C 20.359375 1.785156 20.425781 1.796875 20.476562 1.800781 C 20.535156 1.804688 20.597656 1.804688 20.65625 1.792969 C 20.707031 1.785156 20.78125 1.761719 20.824219 1.742188 C 20.863281 1.722656 20.925781 1.679688 20.960938 1.652344 C 20.996094 1.621094 21.042969 1.566406 21.070312 1.527344 C 21.09375 1.488281 21.125 1.425781 21.140625 1.390625 C 21.152344 1.359375 21.167969 1.292969 21.175781 1.246094 C 21.183594 1.195312 21.1875 1.128906 21.183594 1.082031 C 21.179688 1.039062 21.167969 0.972656 21.160156 0.9375 C 21.148438 0.902344 21.121094 0.835938 21.097656 0.792969 C 21.074219 0.738281 21.027344 0.683594 20.972656 0.628906 C 20.914062 0.570312 20.863281 0.53125 20.8125 0.507812 C 20.769531 0.488281 20.707031 0.464844 20.667969 0.453125 C 20.628906 0.445312 20.558594 0.4375 20.507812 0.4375 C 20.457031 0.4375 20.386719 0.445312 20.347656 0.457031 C 20.308594 0.464844 20.242188 0.492188 20.199219 0.511719 Z M 30.097656 0 C 30.21875 0 30.285156 0.00390625 30.378906 0.0234375 C 30.441406 0.0351562 30.53125 0.0585938 30.570312 0.0742188 C 30.613281 0.0898438 30.679688 0.121094 30.71875 0.140625 C 30.761719 0.164062 30.824219 0.203125 30.855469 0.230469 C 30.890625 0.257812 30.933594 0.292969 30.984375 0.332031 L 30.675781 0.683594 L 30.605469 0.632812 C 30.570312 0.601562 30.507812 0.558594 30.46875 0.535156 C 30.425781 0.511719 30.359375 0.484375 30.320312 0.46875 C 30.277344 0.457031 30.203125 0.445312 30.15625 0.441406 C 30.101562 0.4375 30.03125 0.441406 29.988281 0.449219 C 29.949219 0.457031 29.875 0.480469 29.828125 0.503906 C 29.765625 0.53125 29.722656 0.5625 29.667969 0.617188 C 29.621094 0.664062 29.582031 0.71875 29.550781 0.773438 C 29.527344 0.820312 29.5 0.890625 29.488281 0.929688 C 29.476562 0.980469 29.46875 1.042969 29.472656 1.128906 C 29.472656 1.230469 29.476562 1.269531 29.5 1.339844 C 29.515625 1.390625 29.550781 1.460938 29.570312 1.5 C 29.59375 1.535156 29.632812 1.585938 29.660156 1.613281 C 29.6875 1.640625 29.738281 1.683594 29.777344 1.707031 C 29.816406 1.734375 29.875 1.761719 29.914062 1.773438 C 29.953125 1.785156 30.011719 1.796875 30.046875 1.800781 C 30.078125 1.804688 30.152344 1.804688 30.207031 1.796875 C 30.257812 1.789062 30.332031 1.769531 30.371094 1.757812 C 30.410156 1.742188 30.46875 1.714844 30.507812 1.691406 C 30.546875 1.664062 30.601562 1.625 30.6875 1.554688 L 31 1.863281 L 30.921875 1.9375 C 30.875 1.980469 30.804688 2.039062 30.765625 2.066406 C 30.726562 2.09375 30.65625 2.132812 30.613281 2.152344 C 30.566406 2.171875 30.492188 2.195312 30.445312 2.210938 C 30.398438 2.222656 30.304688 2.238281 30.238281 2.246094 C 30.175781 2.253906 30.070312 2.257812 30.011719 2.253906 C 29.949219 2.25 29.867188 2.238281 29.824219 2.230469 C 29.78125 2.21875 29.714844 2.203125 29.679688 2.191406 C 29.644531 2.179688 29.582031 2.152344 29.542969 2.132812 C 29.503906 2.113281 29.4375 2.074219 29.402344 2.050781 C 29.363281 2.027344 29.300781 1.972656 29.261719 1.9375 C 29.222656 1.898438 29.171875 1.835938 29.140625 1.796875 C 29.113281 1.753906 29.066406 1.679688 29.042969 1.628906 C 29.015625 1.574219 28.984375 1.492188 28.972656 1.441406 C 28.957031 1.394531 28.941406 1.304688 28.933594 1.246094 C 28.925781 1.167969 28.925781 1.105469 28.9375 1.015625 C 28.945312 0.945312 28.964844 0.847656 28.980469 0.796875 C 28.996094 0.742188 29.03125 0.660156 29.058594 0.605469 C 29.085938 0.554688 29.132812 0.476562 29.164062 0.4375 C 29.195312 0.398438 29.253906 0.335938 29.292969 0.296875 C 29.332031 0.261719 29.402344 0.210938 29.445312 0.179688 C 29.488281 0.152344 29.5625 0.113281 29.613281 0.09375 C 29.660156 0.0742188 29.742188 0.046875 29.792969 0.0351562 C 29.847656 0.0234375 29.902344 0.0078125 29.914062 0.0078125 C 29.925781 0.00390625 30.011719 0 30.097656 0 Z M 9.3125 0.0117188 L 9.773438 0.0195312 L 10.246094 1.109375 C 10.507812 1.714844 10.71875 2.210938 10.71875 2.21875 C 10.71875 2.230469 10.664062 2.234375 10.210938 2.226562 L 10.011719 1.746094 L 9.070312 1.746094 L 8.871094 2.226562 L 8.625 2.230469 C 8.464844 2.230469 8.378906 2.230469 8.378906 2.222656 C 8.378906 2.214844 8.109375 2.210938 6.816406 2.203125 L 6.816406 0.0273438 L 7.296875 0.0234375 L 7.304688 1.773438 L 8.410156 1.773438 L 8.410156 1.925781 C 8.410156 2.007812 8.414062 2.078125 8.417969 2.078125 C 8.425781 2.078125 8.617188 1.632812 8.851562 1.089844 C 9.082031 0.550781 9.28125 0.0859375 9.292969 0.0585938 Z M 9.25 1.300781 C 9.25 1.300781 9.382812 1.300781 9.542969 1.300781 L 9.839844 1.296875 C 9.621094 0.769531 9.550781 0.617188 9.542969 0.617188 C 9.539062 0.617188 9.46875 0.769531 9.390625 0.957031 C 9.3125 1.144531 9.246094 1.296875 9.25 1.300781 Z M 11.515625 0.0117188 C 11.5625 0.0117188 11.652344 0.0195312 11.710938 0.0234375 C 11.765625 0.03125 11.855469 0.046875 11.910156 0.0625 C 11.960938 0.078125 12.046875 0.109375 12.097656 0.132812 C 12.148438 0.160156 12.226562 0.203125 12.355469 0.292969 L 12.265625 0.417969 C 12.21875 0.488281 12.160156 0.570312 12.097656 0.660156 L 12.035156 0.621094 C 12 0.597656 11.929688 0.558594 11.878906 0.539062 C 11.832031 0.515625 11.753906 0.488281 11.714844 0.476562 C 11.671875 0.46875 11.601562 0.457031 11.5625 0.453125 C 11.515625 0.449219 11.453125 0.453125 11.417969 0.460938 C 11.382812 0.464844 11.335938 0.484375 11.316406 0.496094 C 11.292969 0.511719 11.265625 0.535156 11.253906 0.550781 C 11.242188 0.566406 11.230469 0.601562 11.226562 0.628906 C 11.222656 0.664062 11.226562 0.691406 11.238281 0.722656 C 11.25 0.746094 11.277344 0.777344 11.304688 0.796875 C 11.332031 0.816406 11.382812 0.839844 11.417969 0.855469 C 11.453125 0.867188 11.542969 0.894531 11.621094 0.917969 C 11.703125 0.9375 11.8125 0.96875 11.875 0.988281 C 11.933594 1.007812 12.019531 1.042969 12.066406 1.0625 C 12.109375 1.085938 12.175781 1.125 12.207031 1.152344 C 12.242188 1.175781 12.289062 1.230469 12.320312 1.269531 C 12.34375 1.308594 12.378906 1.375 12.390625 1.414062 C 12.40625 1.464844 12.410156 1.519531 12.410156 1.601562 C 12.410156 1.664062 12.402344 1.742188 12.394531 1.777344 C 12.386719 1.816406 12.359375 1.878906 12.339844 1.921875 C 12.316406 1.964844 12.277344 2.019531 12.230469 2.066406 C 12.179688 2.113281 12.121094 2.152344 12.070312 2.183594 C 12.019531 2.207031 11.933594 2.238281 11.875 2.253906 C 11.792969 2.273438 11.734375 2.28125 11.640625 2.28125 C 11.550781 2.28125 11.480469 2.273438 11.394531 2.257812 C 11.328125 2.242188 11.234375 2.21875 11.183594 2.203125 C 11.132812 2.1875 11.050781 2.15625 11 2.132812 C 10.949219 2.109375 10.871094 2.0625 10.824219 2.035156 C 10.777344 2.003906 10.71875 1.960938 10.695312 1.9375 C 10.660156 1.902344 10.65625 1.894531 10.675781 1.875 C 10.6875 1.867188 10.746094 1.792969 10.816406 1.714844 C 10.882812 1.636719 10.941406 1.570312 10.945312 1.570312 C 10.945312 1.570312 10.984375 1.601562 11.03125 1.632812 C 11.078125 1.667969 11.15625 1.714844 11.207031 1.738281 C 11.253906 1.761719 11.339844 1.792969 11.390625 1.804688 C 11.449219 1.824219 11.515625 1.832031 11.59375 1.832031 C 11.65625 1.832031 11.722656 1.828125 11.742188 1.824219 C 11.761719 1.820312 11.796875 1.804688 11.816406 1.796875 C 11.839844 1.785156 11.871094 1.761719 11.890625 1.738281 C 11.910156 1.71875 11.929688 1.679688 11.933594 1.65625 C 11.941406 1.636719 11.9375 1.597656 11.929688 1.570312 C 11.925781 1.542969 11.90625 1.515625 11.882812 1.496094 C 11.863281 1.480469 11.820312 1.453125 11.785156 1.441406 C 11.753906 1.425781 11.640625 1.390625 11.539062 1.363281 C 11.4375 1.335938 11.3125 1.300781 11.265625 1.28125 C 11.214844 1.269531 11.128906 1.234375 11.078125 1.210938 C 11.011719 1.179688 10.957031 1.144531 10.90625 1.097656 C 10.855469 1.050781 10.820312 1.003906 10.800781 0.960938 C 10.78125 0.921875 10.761719 0.867188 10.757812 0.832031 C 10.746094 0.800781 10.742188 0.730469 10.742188 0.675781 C 10.742188 0.621094 10.75 0.546875 10.761719 0.511719 C 10.769531 0.472656 10.796875 0.40625 10.820312 0.367188 C 10.847656 0.316406 10.890625 0.265625 10.9375 0.21875 C 10.976562 0.183594 11.042969 0.136719 11.082031 0.117188 C 11.117188 0.0976562 11.175781 0.0703125 11.207031 0.0625 C 11.238281 0.0507812 11.300781 0.0351562 11.34375 0.0273438 C 11.386719 0.0195312 11.464844 0.0117188 11.515625 0.0117188 Z M 24.953125 0.0117188 L 25.414062 0.0117188 L 25.890625 1.113281 C 26.148438 1.71875 26.367188 2.222656 26.367188 2.226562 C 26.367188 2.230469 26.253906 2.234375 26.117188 2.234375 C 25.925781 2.234375 25.867188 2.230469 25.855469 2.222656 C 25.851562 2.210938 25.800781 2.101562 25.652344 1.738281 L 24.707031 1.746094 L 24.507812 2.226562 L 24.257812 2.230469 C 24.066406 2.234375 24.011719 2.230469 24.011719 2.21875 C 24.011719 2.210938 24.222656 1.710938 24.480469 1.109375 Z M 24.871094 1.300781 C 24.875 1.300781 25.003906 1.300781 25.167969 1.300781 L 25.460938 1.296875 C 25.234375 0.761719 25.167969 0.605469 25.164062 0.601562 C 25.164062 0.601562 25.09375 0.753906 25.015625 0.945312 C 24.933594 1.140625 24.871094 1.296875 24.871094 1.300781 Z M 1.003906 0.0234375 L 1.484375 0.0234375 L 1.484375 0.898438 L 2.398438 0.898438 L 2.398438 0.0234375 L 2.878906 0.0234375 L 2.878906 2.222656 L 2.398438 2.222656 L 2.398438 1.347656 L 1.484375 1.347656 L 1.484375 2.234375 L 1.003906 2.234375 Z M 3.1875 0.0234375 L 4.867188 0.0234375 L 4.867188 0.460938 L 3.667969 0.460938 L 3.667969 0.910156 L 4.730469 0.910156 L 4.726562 1.339844 L 3.667969 1.347656 L 3.667969 1.804688 L 4.878906 1.804688 L 4.878906 2.246094 L 3.1875 2.246094 Z M 5.085938 0.0234375 L 5.566406 0.0234375 L 5.566406 1.773438 L 6.6875 1.773438 L 6.679688 2.203125 L 5.085938 2.210938 Z M 13.675781 0.0234375 L 13.964844 0.785156 C 14.125 1.207031 14.261719 1.546875 14.265625 1.539062 C 14.269531 1.535156 14.398438 1.203125 14.550781 0.796875 C 14.707031 0.390625 14.835938 0.0546875 14.839844 0.0429688 C 14.847656 0.0234375 14.867188 0.0234375 15.109375 0.0234375 C 15.351562 0.0234375 15.371094 0.0234375 15.363281 0.0429688 C 15.363281 0.0546875 15.160156 0.554688 14.476562 2.246094 L 14.042969 2.238281 L 13.585938 1.132812 C 13.335938 0.523438 13.132812 0.0273438 13.132812 0.0273438 C 13.132812 0.0234375 13.253906 0.0234375 13.675781 0.0234375 Z M 15.472656 0.0234375 L 17.152344 0.0234375 L 17.152344 0.460938 L 15.953125 0.460938 L 15.953125 0.910156 L 17.003906 0.910156 L 17.003906 1.347656 L 15.953125 1.347656 L 15.953125 1.804688 L 17.164062 1.804688 L 17.164062 2.246094 L 15.472656 2.246094 Z M 17.371094 0.0234375 L 17.910156 0.0234375 C 18.222656 0.0234375 18.492188 0.0273438 18.546875 0.0351562 C 18.601562 0.0429688 18.691406 0.0625 18.75 0.078125 C 18.804688 0.0976562 18.886719 0.136719 18.933594 0.160156 C 18.976562 0.1875 19.035156 0.238281 19.070312 0.273438 C 19.101562 0.304688 19.140625 0.359375 19.15625 0.394531 C 19.175781 0.425781 19.195312 0.488281 19.207031 0.527344 C 19.222656 0.578125 19.226562 0.644531 19.226562 0.742188 C 19.226562 0.824219 19.222656 0.90625 19.214844 0.941406 C 19.203125 0.976562 19.179688 1.042969 19.15625 1.089844 C 19.125 1.152344 19.097656 1.195312 19.023438 1.261719 C 18.957031 1.328125 18.90625 1.367188 18.753906 1.441406 L 19.015625 1.824219 C 19.164062 2.035156 19.28125 2.210938 19.28125 2.214844 C 19.28125 2.21875 19.15625 2.222656 18.726562 2.222656 L 18.246094 1.527344 L 17.863281 1.527344 L 17.863281 2.222656 L 17.371094 2.222656 Z M 17.863281 1.109375 C 18.242188 1.109375 18.355469 1.105469 18.355469 1.101562 C 18.355469 1.097656 18.382812 1.089844 18.417969 1.089844 C 18.457031 1.082031 18.515625 1.070312 18.546875 1.054688 C 18.582031 1.039062 18.625 1.007812 18.644531 0.988281 C 18.664062 0.964844 18.691406 0.925781 18.703125 0.898438 C 18.714844 0.859375 18.722656 0.824219 18.71875 0.761719 C 18.714844 0.695312 18.707031 0.667969 18.679688 0.621094 C 18.652344 0.578125 18.628906 0.558594 18.566406 0.527344 L 18.488281 0.488281 L 17.863281 0.480469 Z M 21.910156 0.0234375 L 22.359375 0.0234375 L 22.875 0.683594 C 23.15625 1.046875 23.394531 1.34375 23.398438 1.339844 C 23.402344 1.335938 23.40625 1.039062 23.40625 0.0234375 L 23.886719 0.0234375 L 23.886719 2.222656 L 23.46875 2.222656 L 22.394531 0.832031 L 22.386719 2.222656 L 21.910156 2.222656 Z M 27.175781 0.0234375 L 28.867188 0.0234375 L 28.867188 0.460938 L 27.65625 0.460938 L 27.65625 0.921875 L 28.730469 0.921875 L 28.730469 1.359375 L 27.65625 1.359375 L 27.65625 2.210938 L 27.175781 2.210938 Z M 7.234375 4.839844 C 7.238281 4.839844 8.535156 6.652344 12.988281 12.90625 L 12.984375 12.960938 C 12.984375 12.992188 12.808594 16.019531 12.59375 19.691406 C 12.378906 23.367188 12.203125 26.40625 12.1875 26.523438 L 8.828125 21.679688 C 6.980469 19.019531 5.460938 16.835938 5.453125 16.828125 C 5.441406 16.820312 5.414062 16.808594 5.390625 16.800781 C 5.359375 16.792969 5.171875 16.785156 4.867188 16.777344 C 4.605469 16.773438 4.304688 16.765625 4.195312 16.757812 C 4.085938 16.753906 3.972656 16.742188 3.949219 16.738281 C 3.921875 16.734375 3.867188 16.722656 3.820312 16.710938 C 3.773438 16.699219 3.699219 16.671875 3.648438 16.644531 C 3.601562 16.621094 3.523438 16.574219 3.472656 16.535156 C 3.425781 16.5 3.363281 16.441406 3.332031 16.410156 C 3.304688 16.375 3.25 16.308594 3.21875 16.257812 C 3.183594 16.207031 3.132812 16.125 3.105469 16.066406 C 3.078125 16.011719 3.035156 15.917969 3.015625 15.859375 C 2.992188 15.800781 2.957031 15.695312 2.9375 15.625 C 2.921875 15.554688 2.894531 15.445312 2.886719 15.390625 C 2.875 15.328125 2.859375 15.171875 2.847656 15.039062 C 2.832031 14.90625 2.804688 14.621094 2.78125 14.40625 C 2.761719 14.191406 2.726562 13.859375 2.703125 13.671875 C 2.679688 13.484375 2.648438 13.230469 2.632812 13.109375 C 2.617188 12.988281 2.597656 12.847656 2.585938 12.796875 C 2.578125 12.742188 2.550781 12.644531 2.527344 12.574219 C 2.507812 12.507812 2.460938 12.398438 2.429688 12.328125 C 2.394531 12.261719 2.339844 12.160156 2.300781 12.105469 C 2.261719 12.050781 2.207031 11.976562 2.183594 11.941406 C 2.15625 11.910156 2.09375 11.839844 2.046875 11.792969 C 2 11.742188 1.914062 11.664062 1.859375 11.621094 C 1.800781 11.574219 1.691406 11.492188 1.613281 11.441406 C 1.53125 11.390625 1.402344 11.316406 1.320312 11.277344 C 1.238281 11.238281 1.113281 11.179688 1.039062 11.152344 C 0.96875 11.125 0.851562 11.089844 0.785156 11.066406 C 0.714844 11.046875 0.605469 11.023438 0.542969 11.011719 C 0.480469 11 0.339844 10.980469 0.0234375 10.960938 L 0.0234375 9.765625 L 1.164062 9.765625 C 1.789062 9.765625 3.054688 9.765625 3.976562 9.765625 C 4.898438 9.765625 5.746094 9.761719 6.074219 9.742188 L 6.101562 9.710938 C 6.121094 9.6875 6.128906 9.671875 6.121094 9.640625 C 6.117188 9.621094 6.105469 9.59375 6.09375 9.585938 C 6.082031 9.574219 5.65625 9.316406 5.144531 9.007812 C 4.636719 8.703125 4.214844 8.453125 4.210938 8.453125 C 4.207031 8.453125 3.808594 8.710938 3.324219 9.03125 C 2.660156 9.464844 2.421875 9.625 2.375 9.675781 C 2.332031 9.71875 2.308594 9.738281 2.300781 9.726562 C 2.296875 9.71875 2.296875 9.402344 2.304688 8.324219 L 2.335938 8.234375 C 2.351562 8.183594 2.390625 8.109375 2.417969 8.070312 C 2.445312 8.03125 2.496094 7.96875 2.53125 7.933594 C 2.570312 7.898438 2.625 7.847656 2.65625 7.828125 C 2.6875 7.804688 2.742188 7.773438 2.777344 7.757812 C 2.8125 7.738281 3.4375 7.46875 4.171875 7.15625 C 4.90625 6.84375 5.746094 6.488281 6.039062 6.359375 C 6.523438 6.15625 6.582031 6.125 6.628906 6.082031 C 6.65625 6.054688 6.695312 6 6.714844 5.960938 C 6.734375 5.921875 6.859375 5.652344 6.988281 5.363281 C 7.121094 5.074219 7.230469 4.839844 7.234375 4.839844 Z M 24.777344 4.84375 C 24.78125 4.847656 24.894531 5.09375 25.027344 5.386719 C 25.164062 5.679688 25.285156 5.949219 25.304688 5.980469 C 25.324219 6.015625 25.355469 6.0625 25.378906 6.085938 C 25.417969 6.121094 25.644531 6.222656 26.921875 6.765625 C 27.742188 7.117188 28.601562 7.484375 28.828125 7.582031 C 29.078125 7.6875 29.273438 7.777344 29.320312 7.808594 C 29.363281 7.835938 29.429688 7.890625 29.464844 7.921875 C 29.503906 7.957031 29.554688 8.019531 29.582031 8.058594 C 29.609375 8.097656 29.648438 8.167969 29.699219 8.289062 L 29.710938 9.769531 L 32 9.777344 L 31.996094 10.972656 L 31.824219 10.980469 C 31.730469 10.980469 31.601562 10.992188 31.542969 11.003906 C 31.484375 11.015625 31.386719 11.035156 31.324219 11.050781 C 31.265625 11.066406 31.179688 11.089844 31.132812 11.105469 C 31.085938 11.121094 30.992188 11.152344 30.925781 11.179688 C 30.859375 11.203125 30.742188 11.257812 30.664062 11.300781 C 30.585938 11.339844 30.46875 11.40625 30.40625 11.445312 C 30.34375 11.484375 30.246094 11.554688 30.1875 11.601562 C 30.132812 11.644531 30.03125 11.738281 29.960938 11.808594 C 29.890625 11.878906 29.800781 11.984375 29.757812 12.042969 C 29.714844 12.101562 29.644531 12.222656 29.601562 12.308594 C 29.558594 12.394531 29.503906 12.515625 29.484375 12.574219 C 29.464844 12.636719 29.441406 12.734375 29.429688 12.789062 C 29.417969 12.84375 29.386719 13.058594 29.363281 13.261719 C 29.335938 13.464844 29.296875 13.796875 29.273438 13.996094 C 29.253906 14.195312 29.214844 14.574219 29.1875 14.832031 C 29.164062 15.089844 29.132812 15.347656 29.125 15.40625 C 29.113281 15.460938 29.089844 15.566406 29.074219 15.636719 C 29.054688 15.707031 29.019531 15.8125 28.996094 15.871094 C 28.976562 15.929688 28.933594 16.019531 28.90625 16.074219 C 28.882812 16.125 28.828125 16.214844 28.792969 16.269531 C 28.753906 16.324219 28.6875 16.40625 28.636719 16.453125 C 28.59375 16.5 28.511719 16.566406 28.464844 16.597656 C 28.414062 16.628906 28.332031 16.671875 28.28125 16.691406 C 28.234375 16.707031 28.148438 16.730469 28.09375 16.742188 C 28.039062 16.75 27.886719 16.761719 27.753906 16.769531 C 27.621094 16.773438 27.34375 16.78125 27.136719 16.78125 C 26.929688 16.78125 26.726562 16.785156 26.6875 16.792969 C 26.644531 16.796875 26.597656 16.808594 26.578125 16.8125 C 26.546875 16.824219 26.050781 17.535156 19.8125 26.523438 L 19.800781 26.445312 C 19.796875 26.40625 19.621094 23.367188 19.40625 19.699219 C 19.191406 16.027344 19.015625 13 19.011719 12.902344 L 21.441406 9.5 C 22.773438 7.628906 24.070312 5.816406 24.320312 5.46875 C 24.566406 5.121094 24.773438 4.839844 24.777344 4.84375 Z M 25.914062 9.597656 C 25.898438 9.613281 25.890625 9.636719 25.890625 9.664062 C 25.890625 9.691406 25.898438 9.714844 25.910156 9.726562 C 25.925781 9.742188 25.960938 9.75 26.027344 9.757812 C 26.078125 9.761719 26.925781 9.769531 27.910156 9.769531 L 29.703125 9.777344 C 29.675781 9.726562 29.652344 9.691406 29.632812 9.667969 C 29.613281 9.644531 29.195312 9.363281 28.703125 9.042969 C 28.210938 8.722656 27.804688 8.457031 27.800781 8.457031 C 27.792969 8.453125 27.371094 8.707031 26.863281 9.015625 C 26.355469 9.320312 25.925781 9.585938 25.914062 9.597656 Z M 0 11.707031 L 0.09375 11.707031 C 0.148438 11.707031 0.242188 11.714844 0.308594 11.726562 C 0.375 11.734375 0.484375 11.757812 0.554688 11.773438 C 0.625 11.792969 0.730469 11.828125 0.796875 11.851562 C 0.855469 11.875 0.949219 11.921875 1 11.949219 C 1.050781 11.976562 1.128906 12.027344 1.175781 12.0625 C 1.222656 12.097656 1.308594 12.171875 1.367188 12.230469 C 1.421875 12.285156 1.5 12.375 1.539062 12.433594 C 1.574219 12.488281 1.621094 12.558594 1.640625 12.59375 C 1.660156 12.628906 1.703125 12.710938 1.730469 12.777344 C 1.757812 12.847656 1.792969 12.941406 1.804688 12.984375 C 1.816406 13.03125 1.847656 13.1875 1.875 13.335938 C 1.898438 13.480469 1.929688 13.699219 1.949219 13.828125 C 1.964844 13.957031 1.984375 14.140625 1.992188 14.242188 C 2.003906 14.34375 2.015625 14.550781 2.023438 14.699219 C 2.03125 14.847656 2.050781 15.082031 2.0625 15.21875 C 2.078125 15.359375 2.105469 15.539062 2.121094 15.617188 C 2.136719 15.699219 2.164062 15.820312 2.183594 15.886719 C 2.203125 15.957031 2.238281 16.058594 2.257812 16.117188 C 2.28125 16.175781 2.324219 16.273438 2.359375 16.335938 C 2.386719 16.398438 2.441406 16.488281 2.476562 16.539062 C 2.507812 16.589844 2.570312 16.664062 2.609375 16.707031 C 2.652344 16.75 2.679688 16.789062 2.675781 16.792969 C 2.675781 16.796875 2.070312 16.804688 0 16.804688 Z M 32 11.707031 L 32 16.804688 L 30.667969 16.804688 C 29.929688 16.804688 29.328125 16.800781 29.324219 16.796875 C 29.320312 16.789062 29.347656 16.753906 29.382812 16.710938 C 29.421875 16.671875 29.484375 16.597656 29.519531 16.542969 C 29.554688 16.492188 29.613281 16.398438 29.640625 16.335938 C 29.671875 16.273438 29.71875 16.175781 29.742188 16.117188 C 29.761719 16.058594 29.796875 15.957031 29.816406 15.886719 C 29.835938 15.820312 29.863281 15.699219 29.878906 15.617188 C 29.894531 15.539062 29.921875 15.359375 29.9375 15.21875 C 29.949219 15.082031 29.96875 14.847656 29.976562 14.699219 C 29.984375 14.550781 30 14.324219 30.011719 14.195312 C 30.023438 14.0625 30.046875 13.859375 30.0625 13.742188 C 30.078125 13.628906 30.109375 13.441406 30.125 13.328125 C 30.144531 13.21875 30.171875 13.082031 30.183594 13.03125 C 30.199219 12.980469 30.222656 12.894531 30.242188 12.847656 C 30.261719 12.796875 30.296875 12.714844 30.320312 12.667969 C 30.34375 12.617188 30.402344 12.523438 30.449219 12.453125 C 30.496094 12.382812 30.574219 12.285156 30.636719 12.226562 C 30.691406 12.171875 30.777344 12.097656 30.824219 12.0625 C 30.871094 12.03125 30.957031 11.976562 31.011719 11.945312 C 31.066406 11.914062 31.15625 11.871094 31.207031 11.851562 C 31.253906 11.832031 31.347656 11.800781 31.414062 11.785156 C 31.472656 11.765625 31.570312 11.742188 31.628906 11.734375 C 31.683594 11.726562 31.742188 11.71875 31.761719 11.714844 C 31.777344 11.710938 31.835938 11.707031 32 11.707031 Z M 14.160156 14.503906 C 14.164062 14.507812 14.578125 15.0625 15.082031 15.734375 C 15.582031 16.40625 15.996094 16.957031 16 16.957031 C 16.003906 16.957031 16.378906 16.457031 16.835938 15.839844 C 17.289062 15.226562 17.699219 14.671875 17.746094 14.613281 C 17.792969 14.550781 17.832031 14.503906 17.832031 14.503906 C 17.835938 14.503906 17.871094 15.042969 17.910156 15.703125 C 17.945312 16.359375 17.976562 16.921875 17.976562 17.003906 L 14.023438 17.003906 L 14.023438 16.953125 C 14.023438 16.921875 14.050781 16.394531 14.078125 15.78125 C 14.109375 15.167969 14.140625 14.628906 14.144531 14.582031 C 14.148438 14.539062 14.15625 14.503906 14.160156 14.503906 Z M 13.953125 18.183594 L 18.046875 18.183594 L 18.046875 18.238281 C 18.046875 18.265625 18.054688 18.496094 18.070312 18.75 C 18.078125 19.003906 18.09375 19.246094 18.101562 19.371094 L 13.886719 19.371094 L 13.890625 19.292969 C 13.894531 19.246094 13.910156 19 13.925781 18.738281 C 13.941406 18.480469 13.953125 18.246094 13.953125 18.226562 Z M 18.160156 20.550781 L 18.160156 20.585938 C 18.160156 20.609375 18.175781 20.878906 18.222656 21.753906 L 13.777344 21.753906 L 13.808594 21.15625 C 13.824219 20.824219 13.839844 20.554688 13.839844 20.554688 C 13.839844 20.550781 14.8125 20.550781 18.160156 20.550781 Z M 13.703125 22.929688 L 18.285156 22.929688 L 18.285156 22.960938 C 18.285156 22.980469 18.300781 23.246094 18.320312 23.554688 C 18.339844 23.863281 18.355469 24.117188 18.355469 24.117188 C 18.355469 24.121094 17.292969 24.121094 16 24.121094 C 14.707031 24.121094 13.644531 24.117188 13.644531 24.113281 C 13.644531 24.105469 13.660156 23.855469 13.675781 23.546875 C 13.691406 23.242188 13.703125 22.980469 13.703125 22.960938 Z M 18.410156 25.308594 L 18.417969 25.398438 C 18.421875 25.445312 18.457031 26.105469 18.496094 26.867188 C 18.539062 27.625 18.570312 28.265625 18.566406 28.285156 C 18.566406 28.316406 18.277344 28.734375 17.285156 30.160156 C 16.582031 31.171875 16.003906 31.996094 16 31.992188 C 15.996094 31.988281 15.4375 31.1875 14.761719 30.210938 C 14.082031 29.234375 13.507812 28.40625 13.4375 28.3125 L 13.515625 26.824219 C 13.554688 26.007812 13.59375 25.332031 13.59375 25.324219 C 13.597656 25.3125 14.089844 25.308594 18.410156 25.308594 Z M 18.410156 25.308594 "/>
</g>
</svg>
