<?xml version="1.0" encoding="UTF-8"?>
<svg xmlns="http://www.w3.org/2000/svg" xmlns:xlink="http://www.w3.org/1999/xlink" width="32px" height="32px" viewBox="0 0 32 33" version="1.1">
<defs>
<linearGradient id="linear0" gradientUnits="userSpaceOnUse" x1="0" y1="0" x2="1" y2="0" gradientTransform="matrix(11.394426,0,0,11.245449,11.133717,18.001698)">
<stop offset="0" style="stop-color:rgb(80.392157%,66.666667%,17.254902%);stop-opacity:1;"/>
<stop offset="0.133311" style="stop-color:rgb(96.470588%,80.392157%,8.627451%);stop-opacity:1;"/>
<stop offset="0.300562" style="stop-color:rgb(99.607843%,91.372549%,0%);stop-opacity:1;"/>
<stop offset="0.774454" style="stop-color:rgb(99.215686%,90.588235%,0%);stop-opacity:1;"/>
<stop offset="0.882633" style="stop-color:rgb(99.215686%,90.588235%,0%);stop-opacity:1;"/>
<stop offset="1" style="stop-color:rgb(85.882353%,70.980392%,15.294118%);stop-opacity:1;"/>
</linearGradient>
<linearGradient id="linear1" gradientUnits="userSpaceOnUse" x1="0" y1="0" x2="1" y2="0" gradientTransform="matrix(13.187847,0,0,13.015422,9.405763,5.956164)">
<stop offset="0" style="stop-color:rgb(80%,60.784314%,18.039216%);stop-opacity:1;"/>
<stop offset="0.225407" style="stop-color:rgb(96.470588%,80.392157%,8.627451%);stop-opacity:1;"/>
<stop offset="0.634307" style="stop-color:rgb(98.823529%,93.333333%,13.72549%);stop-opacity:1;"/>
<stop offset="0.805843" style="stop-color:rgb(99.215686%,90.588235%,0%);stop-opacity:1;"/>
<stop offset="1" style="stop-color:rgb(80%,65.098039%,17.254902%);stop-opacity:1;"/>
</linearGradient>
<linearGradient id="linear2" gradientUnits="userSpaceOnUse" x1="0" y1="0" x2="1" y2="0" gradientTransform="matrix(17.033719,0,0,16.811011,7.482807,3.179357)">
<stop offset="0" style="stop-color:rgb(80%,60.784314%,18.039216%);stop-opacity:1;"/>
<stop offset="0.225407" style="stop-color:rgb(96.470588%,80.392157%,8.627451%);stop-opacity:1;"/>
<stop offset="0.634307" style="stop-color:rgb(98.823529%,93.333333%,13.72549%);stop-opacity:1;"/>
<stop offset="0.805843" style="stop-color:rgb(99.215686%,90.588235%,0%);stop-opacity:1;"/>
<stop offset="1" style="stop-color:rgb(80%,65.098039%,17.254902%);stop-opacity:1;"/>
</linearGradient>
<linearGradient id="linear3" gradientUnits="userSpaceOnUse" x1="0" y1="0" x2="1" y2="0" gradientTransform="matrix(9.074467,0,0,8.955823,11.462391,7.690959)">
<stop offset="0" style="stop-color:rgb(84.313725%,13.333333%,15.294118%);stop-opacity:1;"/>
<stop offset="0.485272" style="stop-color:rgb(92.54902%,13.333333%,15.294118%);stop-opacity:1;"/>
<stop offset="1" style="stop-color:rgb(84.313725%,12.156863%,14.901961%);stop-opacity:1;"/>
</linearGradient>
<linearGradient id="linear4" gradientUnits="userSpaceOnUse" x1="0" y1="0" x2="1" y2="0" gradientTransform="matrix(12.407097,0,0,12.24488,9.79618,7.31708)">
<stop offset="0" style="stop-color:rgb(80%,60.784314%,18.039216%);stop-opacity:1;"/>
<stop offset="0.225407" style="stop-color:rgb(96.470588%,80.392157%,8.627451%);stop-opacity:1;"/>
<stop offset="0.634307" style="stop-color:rgb(98.823529%,93.333333%,13.72549%);stop-opacity:1;"/>
<stop offset="0.805843" style="stop-color:rgb(99.215686%,90.588235%,0%);stop-opacity:1;"/>
<stop offset="1" style="stop-color:rgb(80%,65.098039%,17.254902%);stop-opacity:1;"/>
</linearGradient>
</defs>
<g id="surface1">
<path style=" stroke:none;fill-rule:nonzero;fill:rgb(100%,100%,100%);fill-opacity:1;" d="M 7.351562 3.121094 C 7.351562 3.144531 7.347656 3.167969 7.347656 3.191406 C 7.339844 3.445312 7.46875 3.785156 7.761719 3.9375 C 7.789062 3.953125 7.816406 3.964844 7.847656 3.976562 C 7.867188 4.089844 7.886719 4.226562 7.914062 4.390625 C 7.9375 4.539062 7.972656 4.679688 8.015625 4.808594 C 8.203125 5.359375 8.574219 5.773438 9.074219 6 C 9.007812 6.070312 8.949219 6.148438 8.90625 6.238281 C 8.804688 6.445312 8.792969 6.683594 8.875 6.886719 C 8.960938 7.089844 9.125 7.242188 9.339844 7.316406 C 9.390625 7.335938 9.449219 7.347656 9.503906 7.355469 L 9.515625 7.394531 C 9.414062 7.480469 9.335938 7.582031 9.28125 7.695312 C 9.273438 7.710938 9.265625 7.726562 9.257812 7.746094 L 7.667969 7.746094 L 7.667969 25.609375 C 7.667969 26.246094 7.863281 26.730469 8.242188 27.046875 C 8.578125 27.324219 9.046875 27.460938 9.671875 27.460938 L 14.582031 27.460938 C 14.796875 27.460938 15.011719 27.527344 15.191406 27.648438 C 15.402344 27.792969 15.496094 27.972656 15.621094 28.222656 C 15.648438 28.273438 15.671875 28.324219 15.703125 28.378906 L 16 28.941406 L 16.296875 28.378906 C 16.328125 28.324219 16.351562 28.273438 16.378906 28.222656 C 16.503906 27.972656 16.597656 27.792969 16.804688 27.652344 C 16.984375 27.527344 17.203125 27.460938 17.417969 27.460938 L 22.328125 27.460938 C 22.953125 27.460938 23.417969 27.324219 23.757812 27.046875 C 24.136719 26.730469 24.332031 26.246094 24.332031 25.609375 L 24.332031 7.746094 L 22.738281 7.746094 C 22.734375 7.730469 22.726562 7.710938 22.71875 7.695312 C 22.664062 7.582031 22.585938 7.480469 22.484375 7.394531 L 22.496094 7.355469 C 22.550781 7.347656 22.605469 7.335938 22.660156 7.316406 C 22.875 7.242188 23.039062 7.089844 23.121094 6.886719 C 23.207031 6.683594 23.195312 6.445312 23.09375 6.238281 C 23.050781 6.148438 22.992188 6.070312 22.925781 6 C 23.425781 5.773438 23.796875 5.359375 23.984375 4.808594 C 24.027344 4.679688 24.0625 4.535156 24.085938 4.382812 C 24.113281 4.222656 24.132812 4.089844 24.152344 3.976562 C 24.179688 3.964844 24.207031 3.953125 24.234375 3.941406 C 24.53125 3.789062 24.65625 3.445312 24.648438 3.191406 C 24.648438 3.167969 24.648438 3.144531 24.644531 3.121094 C 24.699219 3.070312 24.757812 3.011719 24.824219 2.949219 C 25.0625 2.730469 25.148438 2.476562 25.082031 2.203125 C 24.96875 1.757812 24.484375 1.382812 24.085938 1.273438 C 24.003906 1.25 23.929688 1.238281 23.855469 1.238281 C 23.460938 1.238281 23.246094 1.550781 23.175781 1.65625 C 23.175781 1.660156 23.171875 1.660156 23.171875 1.660156 C 23.167969 1.660156 23.164062 1.660156 23.160156 1.660156 C 23.136719 1.660156 23.113281 1.660156 23.089844 1.660156 C 22.828125 1.660156 22.59375 1.757812 22.429688 1.933594 C 22.25 2.125 22.167969 2.394531 22.191406 2.6875 C 22.195312 2.703125 22.195312 2.71875 22.195312 2.734375 C 22.199219 2.773438 22.203125 2.808594 22.203125 2.835938 C 22.199219 2.835938 22.195312 2.871094 22.082031 2.960938 C 21.832031 3.167969 21.71875 3.492188 21.796875 3.78125 C 21.886719 4.125 22.15625 4.261719 22.402344 4.328125 C 22.351562 4.386719 22.292969 4.433594 22.234375 4.46875 C 22.050781 4.574219 21.808594 4.597656 21.585938 4.535156 C 21.324219 4.464844 21.082031 4.300781 20.90625 4.074219 C 20.871094 4.027344 20.84375 3.984375 20.8125 3.933594 C 21.160156 3.945312 21.542969 3.734375 21.5625 3.125 C 21.5625 3.082031 21.566406 3.050781 21.566406 3.027344 C 21.570312 3.023438 21.574219 3.023438 21.578125 3.019531 C 21.925781 2.839844 22.070312 2.496094 21.9375 2.160156 C 21.898438 2.066406 21.84375 1.996094 21.796875 1.9375 C 21.789062 1.929688 21.78125 1.917969 21.769531 1.910156 C 21.777344 1.882812 21.789062 1.847656 21.796875 1.824219 C 21.835938 1.710938 21.882812 1.554688 21.863281 1.382812 L 21.859375 1.371094 C 21.816406 1.09375 21.625 0.875 21.351562 0.785156 C 21.246094 0.75 21.136719 0.734375 21.015625 0.734375 C 20.953125 0.734375 20.894531 0.738281 20.839844 0.742188 C 20.808594 0.742188 20.773438 0.746094 20.746094 0.746094 L 20.726562 0.746094 C 20.496094 0.746094 20.234375 0.691406 20.03125 0.597656 C 20 0.585938 19.972656 0.570312 19.941406 0.554688 C 19.800781 0.484375 19.621094 0.398438 19.394531 0.398438 C 19.347656 0.398438 19.296875 0.402344 19.25 0.410156 C 18.890625 0.46875 18.644531 0.78125 18.613281 1.222656 C 18.609375 1.253906 18.609375 1.28125 18.605469 1.296875 C 18.59375 1.304688 18.578125 1.3125 18.566406 1.320312 C 18.460938 1.375 18.261719 1.480469 18.1875 1.746094 C 18.125 1.972656 18.195312 2.210938 18.367188 2.382812 L 18.371094 2.386719 C 18.277344 2.597656 18.195312 2.863281 18.285156 3.105469 C 18.375 3.367188 18.578125 3.484375 18.769531 3.535156 C 18.6875 3.605469 18.601562 3.664062 18.507812 3.710938 C 18.34375 3.792969 18.160156 3.832031 17.972656 3.832031 C 17.703125 3.832031 17.4375 3.742188 17.230469 3.582031 C 17.144531 3.519531 17.070312 3.441406 17.007812 3.359375 C 17.3125 3.335938 17.480469 3.171875 17.5625 3.039062 C 17.667969 2.871094 17.695312 2.667969 17.648438 2.410156 C 17.644531 2.378906 17.632812 2.347656 17.625 2.3125 C 17.625 2.308594 17.625 2.308594 17.625 2.304688 C 17.671875 2.273438 17.730469 2.230469 17.777344 2.171875 C 17.96875 1.949219 17.988281 1.636719 17.824219 1.394531 C 17.765625 1.3125 17.691406 1.253906 17.640625 1.210938 C 17.632812 1.203125 17.621094 1.195312 17.613281 1.1875 C 17.617188 1.171875 17.617188 1.148438 17.625 1.117188 C 17.671875 0.757812 17.554688 0.535156 17.445312 0.410156 C 17.296875 0.246094 17.074219 0.152344 16.816406 0.152344 C 16.757812 0.152344 16.691406 0.15625 16.625 0.167969 C 16.328125 0.21875 16.160156 0.238281 16 0.238281 C 15.839844 0.238281 15.671875 0.21875 15.371094 0.167969 C 15.039062 0.113281 14.738281 0.203125 14.554688 0.410156 C 14.445312 0.535156 14.328125 0.757812 14.375 1.121094 C 14.382812 1.152344 14.382812 1.171875 14.386719 1.1875 C 14.378906 1.195312 14.367188 1.203125 14.359375 1.210938 C 14.308594 1.253906 14.234375 1.3125 14.179688 1.394531 C 14.011719 1.632812 14.03125 1.949219 14.222656 2.171875 C 14.269531 2.230469 14.328125 2.273438 14.375 2.304688 C 14.375 2.308594 14.375 2.3125 14.375 2.3125 C 14.363281 2.351562 14.355469 2.382812 14.351562 2.40625 C 14.304688 2.664062 14.332031 2.871094 14.433594 3.035156 C 14.519531 3.171875 14.683594 3.335938 14.992188 3.359375 C 14.929688 3.441406 14.855469 3.519531 14.769531 3.582031 C 14.5625 3.742188 14.296875 3.832031 14.027344 3.832031 C 13.839844 3.832031 13.65625 3.792969 13.492188 3.710938 C 13.398438 3.664062 13.3125 3.605469 13.230469 3.535156 C 13.421875 3.484375 13.621094 3.371094 13.714844 3.109375 C 13.804688 2.863281 13.722656 2.597656 13.628906 2.386719 L 13.628906 2.382812 C 13.804688 2.210938 13.875 1.972656 13.8125 1.746094 C 13.738281 1.480469 13.539062 1.375 13.433594 1.320312 C 13.421875 1.3125 13.40625 1.304688 13.394531 1.296875 C 13.390625 1.28125 13.390625 1.253906 13.386719 1.21875 C 13.351562 0.78125 13.109375 0.46875 12.75 0.410156 C 12.699219 0.402344 12.652344 0.398438 12.605469 0.398438 C 12.378906 0.398438 12.199219 0.484375 12.058594 0.554688 C 12.027344 0.570312 12 0.585938 11.96875 0.597656 C 11.765625 0.691406 11.503906 0.746094 11.273438 0.746094 L 11.257812 0.746094 C 11.226562 0.746094 11.191406 0.742188 11.160156 0.742188 C 11.105469 0.738281 11.046875 0.734375 10.984375 0.734375 C 10.863281 0.734375 10.753906 0.75 10.652344 0.785156 C 10.375 0.875 10.183594 1.09375 10.140625 1.371094 L 10.136719 1.382812 C 10.113281 1.554688 10.164062 1.710938 10.203125 1.824219 C 10.210938 1.847656 10.222656 1.882812 10.226562 1.910156 C 10.21875 1.917969 10.210938 1.929688 10.203125 1.9375 C 10.15625 1.996094 10.097656 2.066406 10.058594 2.164062 C 9.929688 2.496094 10.074219 2.839844 10.425781 3.023438 C 10.425781 3.023438 10.429688 3.023438 10.433594 3.027344 C 10.433594 3.050781 10.4375 3.078125 10.4375 3.121094 C 10.457031 3.722656 10.824219 3.9375 11.160156 3.9375 C 11.167969 3.9375 11.179688 3.933594 11.1875 3.933594 C 11.15625 3.984375 11.125 4.027344 11.09375 4.070312 C 10.914062 4.300781 10.675781 4.464844 10.414062 4.535156 C 10.1875 4.597656 9.945312 4.574219 9.765625 4.46875 C 9.707031 4.433594 9.648438 4.386719 9.59375 4.328125 C 9.84375 4.261719 10.113281 4.121094 10.203125 3.78125 C 10.277344 3.488281 10.167969 3.167969 9.914062 2.957031 C 9.808594 2.875 9.800781 2.839844 9.800781 2.839844 C 9.796875 2.808594 9.800781 2.773438 9.804688 2.734375 L 9.804688 2.691406 C 9.832031 2.394531 9.75 2.125 9.570312 1.933594 C 9.40625 1.757812 9.171875 1.660156 8.910156 1.660156 C 8.886719 1.660156 8.863281 1.660156 8.847656 1.660156 C 8.839844 1.660156 8.835938 1.660156 8.828125 1.660156 C 8.824219 1.660156 8.824219 1.65625 8.824219 1.65625 C 8.753906 1.550781 8.535156 1.238281 8.144531 1.238281 C 8.070312 1.238281 7.996094 1.25 7.917969 1.273438 C 7.515625 1.378906 7.03125 1.757812 6.917969 2.203125 C 6.851562 2.476562 6.933594 2.726562 7.171875 2.945312 C 7.242188 3.011719 7.300781 3.070312 7.351562 3.121094 "/>
<path style=" stroke:none;fill-rule:nonzero;fill:rgb(100%,100%,100%);fill-opacity:1;" d="M 6.492188 29.53125 C 6.667969 29.417969 6.835938 29.289062 6.996094 29.152344 L 8.179688 30.328125 L 7.804688 30.765625 C 7.328125 30.394531 6.886719 29.980469 6.492188 29.53125 M 24.195312 30.765625 L 23.820312 30.328125 L 25.003906 29.152344 C 25.160156 29.289062 25.332031 29.417969 25.507812 29.53125 C 25.109375 29.980469 24.671875 30.394531 24.195312 30.765625 M 30.011719 21.777344 C 30.429688 21.625 30.828125 21.417969 31.128906 21.199219 C 31.570312 20.882812 31.824219 20.542969 31.886719 20.1875 C 31.957031 19.726562 31.699219 19.316406 31.265625 19.1875 C 31.042969 19.117188 30.773438 19.121094 30.511719 19.195312 C 30.488281 19.199219 30.46875 19.207031 30.445312 19.214844 C 30.367188 18.984375 30.179688 18.808594 29.945312 18.738281 C 30.21875 18.503906 30.496094 18.210938 30.710938 17.921875 C 31.121094 17.375 31.296875 16.882812 31.246094 16.46875 C 31.183594 16.003906 30.839844 15.691406 30.386719 15.691406 C 30.363281 15.691406 30.339844 15.695312 30.316406 15.695312 C 30.074219 15.710938 29.8125 15.8125 29.59375 15.972656 C 29.441406 16.085938 29.304688 16.222656 29.183594 16.382812 C 29.140625 16.164062 29.09375 15.941406 29.039062 15.71875 C 29.132812 15.644531 29.21875 15.558594 29.292969 15.472656 C 29.582031 15.144531 29.886719 14.652344 30.085938 14.1875 C 30.273438 13.75 30.457031 13.125 30.265625 12.621094 C 30.199219 12.457031 30.105469 12.324219 29.980469 12.21875 C 29.835938 12.097656 29.65625 12.03125 29.460938 12.03125 C 29.207031 12.03125 28.964844 12.144531 28.773438 12.285156 C 28.644531 12.066406 28.402344 11.914062 28.125 11.914062 C 27.957031 11.914062 27.800781 11.972656 27.675781 12.0625 C 27.664062 12.039062 27.652344 12.019531 27.640625 11.996094 C 27.617188 11.402344 27.539062 10.667969 27.171875 10.089844 C 26.980469 9.785156 26.726562 9.546875 26.445312 9.414062 C 26.273438 9.328125 26.085938 9.285156 25.902344 9.285156 C 25.390625 9.285156 25.011719 9.621094 24.960938 10.128906 C 24.929688 10.480469 25.050781 10.859375 25.324219 11.265625 C 25.628906 11.714844 26.132812 12.136719 26.707031 12.429688 C 26.464844 12.550781 26.296875 12.800781 26.296875 13.085938 C 26.296875 13.167969 26.3125 13.246094 26.335938 13.320312 C 26.160156 13.328125 25.945312 13.363281 25.753906 13.460938 C 25.328125 13.679688 25.183594 14.121094 25.390625 14.582031 C 25.617188 15.089844 26.207031 15.417969 26.664062 15.601562 C 26.949219 15.71875 27.253906 15.816406 27.542969 15.878906 C 27.484375 15.953125 27.433594 16.039062 27.40625 16.128906 C 27.222656 16.085938 27.027344 16.089844 26.863281 16.128906 C 26.40625 16.230469 26.105469 16.625 26.132812 17.082031 C 26.152344 17.46875 26.402344 17.859375 26.882812 18.242188 C 27.199219 18.492188 27.601562 18.730469 28 18.910156 C 27.871094 18.984375 27.765625 19.097656 27.699219 19.230469 C 27.667969 19.21875 27.640625 19.207031 27.609375 19.195312 C 27.359375 19.109375 27.089844 19.101562 26.839844 19.175781 C 26.386719 19.316406 26.121094 19.722656 26.179688 20.183594 C 26.222656 20.523438 26.445312 20.851562 26.835938 21.160156 C 27.183594 21.425781 27.582031 21.617188 27.851562 21.730469 C 28.074219 21.824219 28.296875 21.894531 28.496094 21.941406 C 28.492188 21.964844 28.492188 21.988281 28.488281 22.011719 C 28.375 21.945312 28.246094 21.90625 28.105469 21.90625 C 27.839844 21.90625 27.605469 22.042969 27.472656 22.25 C 27.390625 22.199219 27.304688 22.15625 27.214844 22.117188 C 27.046875 22.046875 26.859375 22.007812 26.675781 22.007812 C 26.277344 22.007812 25.949219 22.183594 25.777344 22.484375 C 25.632812 22.738281 25.488281 23.265625 26.160156 23.917969 C 26.453125 24.195312 26.804688 24.417969 27.050781 24.554688 C 27.070312 24.566406 27.085938 24.574219 27.105469 24.585938 C 27.082031 24.601562 27.058594 24.617188 27.035156 24.636719 C 27.007812 24.617188 26.984375 24.59375 26.953125 24.570312 C 26.769531 24.429688 26.554688 24.355469 26.332031 24.355469 C 25.9375 24.355469 25.605469 24.597656 25.460938 24.988281 C 25.375 25.234375 25.367188 25.519531 25.4375 25.796875 C 25.632812 26.578125 26.070312 27.253906 26.738281 27.804688 C 26.65625 27.949219 26.570312 28.089844 26.484375 28.226562 C 26.394531 27.855469 26.25 27.441406 26.023438 27.070312 C 25.921875 26.90625 25.703125 26.601562 25.363281 26.433594 C 25.214844 26.363281 25.0625 26.328125 24.90625 26.328125 C 24.441406 26.328125 24.066406 26.632812 23.976562 27.09375 C 23.929688 27.34375 23.964844 27.628906 24.074219 27.878906 C 24.203125 28.167969 24.367188 28.441406 24.566406 28.6875 L 16.796875 28.6875 L 16.550781 29.042969 L 16.550781 29.769531 L 15.449219 29.769531 L 15.449219 29.042969 L 15.203125 28.6875 L 7.433594 28.6875 C 7.632812 28.441406 7.796875 28.167969 7.925781 27.878906 C 8.035156 27.628906 8.070312 27.34375 8.023438 27.089844 C 7.933594 26.632812 7.558594 26.328125 7.09375 26.328125 C 6.9375 26.328125 6.785156 26.363281 6.632812 26.433594 C 6.296875 26.601562 6.074219 26.90625 5.972656 27.070312 C 5.746094 27.441406 5.605469 27.855469 5.515625 28.226562 C 5.429688 28.089844 5.34375 27.949219 5.261719 27.804688 C 5.929688 27.253906 6.367188 26.578125 6.5625 25.796875 C 6.632812 25.519531 6.625 25.234375 6.535156 24.984375 C 6.394531 24.597656 6.0625 24.355469 5.664062 24.355469 C 5.445312 24.355469 5.230469 24.429688 5.042969 24.570312 C 5.015625 24.59375 4.992188 24.613281 4.964844 24.636719 C 4.941406 24.617188 4.917969 24.601562 4.894531 24.585938 C 4.914062 24.574219 4.933594 24.566406 4.953125 24.554688 C 5.195312 24.417969 5.546875 24.195312 5.839844 23.917969 C 6.511719 23.265625 6.367188 22.738281 6.222656 22.484375 C 6.050781 22.183594 5.722656 22.007812 5.324219 22.007812 C 5.136719 22.007812 4.953125 22.046875 4.78125 22.117188 C 4.695312 22.15625 4.609375 22.199219 4.527344 22.25 C 4.394531 22.042969 4.160156 21.90625 3.894531 21.90625 C 3.753906 21.90625 3.621094 21.945312 3.511719 22.011719 C 3.507812 21.988281 3.503906 21.964844 3.503906 21.941406 C 3.703125 21.894531 3.925781 21.824219 4.144531 21.730469 C 4.417969 21.617188 4.8125 21.425781 5.164062 21.15625 C 5.554688 20.851562 5.777344 20.523438 5.820312 20.183594 C 5.878906 19.722656 5.613281 19.316406 5.15625 19.175781 C 4.914062 19.101562 4.636719 19.109375 4.390625 19.195312 C 4.359375 19.207031 4.328125 19.21875 4.300781 19.230469 C 4.234375 19.097656 4.128906 18.984375 4 18.910156 C 4.398438 18.730469 4.800781 18.492188 5.121094 18.242188 C 5.59375 17.859375 5.847656 17.46875 5.867188 17.082031 C 5.894531 16.625 5.59375 16.230469 5.140625 16.128906 C 4.964844 16.085938 4.777344 16.085938 4.59375 16.128906 C 4.5625 16.039062 4.515625 15.953125 4.457031 15.878906 C 4.746094 15.816406 5.050781 15.71875 5.335938 15.605469 C 5.792969 15.417969 6.382812 15.089844 6.609375 14.582031 C 6.8125 14.117188 6.671875 13.679688 6.246094 13.464844 C 6.054688 13.363281 5.839844 13.328125 5.664062 13.320312 C 5.6875 13.246094 5.703125 13.167969 5.703125 13.085938 C 5.703125 12.800781 5.535156 12.550781 5.292969 12.429688 C 5.867188 12.136719 6.371094 11.714844 6.675781 11.265625 C 6.949219 10.859375 7.070312 10.476562 7.039062 10.128906 C 6.988281 9.625 6.609375 9.285156 6.09375 9.285156 C 5.914062 9.285156 5.726562 9.328125 5.554688 9.410156 C 5.269531 9.550781 5.019531 9.785156 4.828125 10.089844 C 4.460938 10.664062 4.382812 11.402344 4.359375 11.996094 C 4.347656 12.019531 4.335938 12.039062 4.324219 12.0625 C 4.199219 11.972656 4.042969 11.914062 3.875 11.914062 C 3.597656 11.914062 3.355469 12.066406 3.226562 12.285156 C 3.039062 12.144531 2.792969 12.03125 2.539062 12.03125 C 2.34375 12.03125 2.164062 12.097656 2.015625 12.21875 C 1.894531 12.324219 1.800781 12.457031 1.730469 12.628906 C 1.578125 13.023438 1.640625 13.550781 1.914062 14.1875 C 2.113281 14.648438 2.414062 15.144531 2.707031 15.476562 C 2.777344 15.554688 2.863281 15.644531 2.960938 15.71875 C 2.90625 15.941406 2.859375 16.164062 2.816406 16.382812 C 2.695312 16.222656 2.558594 16.085938 2.40625 15.96875 C 2.1875 15.8125 1.925781 15.710938 1.683594 15.695312 C 1.660156 15.695312 1.636719 15.691406 1.613281 15.691406 C 1.160156 15.691406 0.8125 16.003906 0.753906 16.46875 C 0.699219 16.882812 0.878906 17.371094 1.289062 17.921875 C 1.503906 18.210938 1.78125 18.503906 2.054688 18.738281 C 1.820312 18.808594 1.632812 18.988281 1.554688 19.214844 C 1.535156 19.207031 1.511719 19.199219 1.488281 19.195312 C 1.226562 19.121094 0.949219 19.121094 0.742188 19.1875 C 0.296875 19.316406 0.0390625 19.726562 0.117188 20.191406 C 0.171875 20.546875 0.425781 20.886719 0.867188 21.199219 C 1.171875 21.417969 1.570312 21.625 1.988281 21.777344 C 2.199219 21.855469 2.398438 21.910156 2.574219 21.941406 C 2.605469 22.253906 2.640625 22.5625 2.6875 22.867188 C 2.359375 22.613281 2.011719 22.457031 1.648438 22.398438 C 1.375 22.355469 1.109375 22.375 0.882812 22.457031 C 0.445312 22.621094 0.214844 23.050781 0.320312 23.503906 C 0.40625 23.839844 0.675781 24.144531 1.121094 24.410156 C 1.429688 24.59375 1.835938 24.765625 2.257812 24.886719 C 2.351562 24.914062 2.445312 24.9375 2.535156 24.960938 C 2.40625 25.09375 2.328125 25.277344 2.328125 25.488281 C 2.328125 25.664062 2.382812 25.820312 2.476562 25.945312 C 2.207031 25.957031 1.953125 26.035156 1.757812 26.164062 C 1.351562 26.421875 1.21875 26.890625 1.425781 27.300781 C 1.566406 27.59375 1.867188 27.828125 2.320312 27.988281 C 2.769531 28.152344 3.375 28.25 3.898438 28.25 C 4.09375 28.25 4.277344 28.238281 4.441406 28.210938 C 4.484375 28.292969 4.53125 28.371094 4.582031 28.453125 C 4.144531 28.363281 3.71875 28.363281 3.324219 28.453125 C 3.054688 28.515625 2.816406 28.644531 2.644531 28.816406 C 2.441406 29.027344 2.347656 29.304688 2.390625 29.582031 C 2.4375 29.867188 2.617188 30.117188 2.890625 30.265625 C 3.152344 30.40625 3.445312 30.4375 3.648438 30.4375 C 3.6875 30.4375 3.726562 30.4375 3.765625 30.433594 C 4.0625 30.417969 4.992188 30.339844 5.679688 29.996094 C 6.140625 30.535156 6.652344 31.023438 7.203125 31.460938 L 6.796875 31.933594 L 12.625 31.933594 L 12.625 32.285156 C 12.625 32.585938 12.875 32.832031 13.183594 32.832031 L 18.816406 32.832031 C 19.125 32.832031 19.375 32.585938 19.375 32.285156 L 19.375 31.933594 L 25.199219 31.933594 L 24.792969 31.460938 C 25.347656 31.023438 25.859375 30.535156 26.320312 29.996094 C 27.007812 30.339844 27.9375 30.417969 28.234375 30.433594 C 28.273438 30.4375 28.3125 30.4375 28.351562 30.4375 C 28.554688 30.4375 28.847656 30.40625 29.105469 30.265625 C 29.382812 30.117188 29.5625 29.867188 29.609375 29.582031 C 29.652344 29.304688 29.558594 29.027344 29.355469 28.816406 C 29.183594 28.644531 28.941406 28.515625 28.675781 28.453125 C 28.28125 28.363281 27.855469 28.363281 27.417969 28.453125 C 27.46875 28.371094 27.515625 28.292969 27.558594 28.210938 C 27.722656 28.238281 27.90625 28.25 28.101562 28.25 C 28.625 28.25 29.230469 28.152344 29.679688 27.988281 C 30.132812 27.828125 30.433594 27.59375 30.570312 27.308594 C 30.78125 26.890625 30.648438 26.421875 30.246094 26.164062 C 30.046875 26.035156 29.789062 25.957031 29.523438 25.945312 C 29.621094 25.816406 29.671875 25.65625 29.671875 25.488281 C 29.671875 25.277344 29.59375 25.09375 29.46875 24.960938 C 29.554688 24.941406 29.644531 24.914062 29.738281 24.886719 C 30.164062 24.765625 30.570312 24.59375 30.882812 24.410156 C 31.324219 24.140625 31.59375 23.835938 31.679688 23.5 C 31.785156 23.050781 31.554688 22.621094 31.113281 22.457031 C 30.890625 22.375 30.621094 22.355469 30.351562 22.398438 C 29.988281 22.457031 29.640625 22.613281 29.3125 22.867188 C 29.355469 22.566406 29.394531 22.261719 29.421875 21.941406 C 29.597656 21.910156 29.800781 21.855469 30.011719 21.777344 "/>
<path style=" stroke:none;fill-rule:nonzero;fill:rgb(0%,0%,0%);fill-opacity:1;" d="M 16 28.226562 C 15.824219 27.894531 15.71875 27.605469 15.382812 27.378906 C 15.148438 27.21875 14.863281 27.128906 14.582031 27.128906 L 9.671875 27.128906 C 9.160156 27.128906 8.75 27.03125 8.457031 26.792969 C 8.164062 26.546875 8.007812 26.167969 8.007812 25.609375 L 8.007812 8.078125 L 9.550781 8.078125 C 9.539062 7.996094 9.546875 7.914062 9.585938 7.835938 C 9.636719 7.722656 9.742188 7.617188 9.910156 7.535156 L 9.753906 7.023438 C 9.65625 7.042969 9.546875 7.035156 9.449219 7.003906 C 9.179688 6.910156 9.085938 6.628906 9.210938 6.382812 C 9.273438 6.246094 9.382812 6.160156 9.519531 6.109375 C 9.71875 6.023438 9.921875 5.949219 10.128906 5.875 C 9.308594 5.894531 8.605469 5.5 8.335938 4.703125 C 8.296875 4.589844 8.265625 4.46875 8.246094 4.335938 C 8.183594 3.929688 8.144531 3.679688 8.039062 3.457031 C 7.933594 3.238281 7.75 3.03125 7.402344 2.707031 C 7.265625 2.578125 7.203125 2.453125 7.246094 2.285156 C 7.320312 1.980469 7.695312 1.675781 8.007812 1.59375 C 8.214844 1.535156 8.371094 1.59375 8.542969 1.839844 C 8.652344 2 8.757812 1.996094 8.859375 1.992188 C 9.273438 1.96875 9.503906 2.265625 9.472656 2.664062 C 9.46875 2.722656 9.457031 2.785156 9.464844 2.863281 C 9.476562 3.015625 9.589844 3.128906 9.703125 3.214844 C 9.839844 3.328125 9.921875 3.519531 9.878906 3.695312 C 9.792969 4.015625 9.417969 4.03125 9.148438 4.066406 C 9.121094 4.070312 9.09375 4.078125 9.066406 4.082031 C 9.183594 4.402344 9.371094 4.625 9.59375 4.753906 C 9.863281 4.910156 10.195312 4.941406 10.503906 4.855469 C 10.824219 4.765625 11.132812 4.566406 11.359375 4.273438 C 11.539062 4.042969 11.667969 3.757812 11.714844 3.425781 C 11.59375 3.46875 11.484375 3.53125 11.363281 3.570312 C 11.015625 3.675781 10.789062 3.53125 10.773438 3.109375 C 10.761719 2.773438 10.703125 2.789062 10.578125 2.726562 C 10.40625 2.636719 10.296875 2.476562 10.371094 2.285156 C 10.414062 2.179688 10.539062 2.09375 10.566406 1.984375 C 10.597656 1.824219 10.445312 1.621094 10.472656 1.425781 C 10.496094 1.265625 10.605469 1.148438 10.757812 1.101562 C 10.933594 1.039062 11.085938 1.074219 11.25 1.078125 C 11.53125 1.082031 11.847656 1.019531 12.109375 0.902344 C 12.285156 0.820312 12.460938 0.699219 12.691406 0.738281 C 12.941406 0.777344 13.035156 1.023438 13.050781 1.242188 C 13.058594 1.375 13.074219 1.441406 13.101562 1.484375 C 13.210938 1.628906 13.425781 1.617188 13.488281 1.832031 C 13.519531 1.941406 13.484375 2.058594 13.394531 2.148438 C 13.273438 2.265625 13.222656 2.308594 13.300781 2.472656 C 13.394531 2.675781 13.449219 2.859375 13.398438 2.996094 C 13.285156 3.3125 12.851562 3.230469 12.597656 3.246094 C 12.777344 3.609375 13.042969 3.859375 13.34375 4.007812 C 13.871094 4.265625 14.511719 4.203125 14.976562 3.84375 C 15.238281 3.640625 15.453125 3.34375 15.554688 2.949219 C 15.527344 2.957031 15.496094 2.960938 15.464844 2.96875 C 15.21875 3.015625 14.878906 3.117188 14.722656 2.863281 C 14.65625 2.761719 14.652344 2.625 14.683594 2.464844 C 14.695312 2.386719 14.757812 2.230469 14.714844 2.15625 C 14.667969 2.078125 14.542969 2.035156 14.480469 1.960938 C 14.386719 1.847656 14.375 1.699219 14.457031 1.582031 C 14.535156 1.464844 14.707031 1.410156 14.722656 1.265625 C 14.726562 1.21875 14.722656 1.15625 14.710938 1.074219 C 14.644531 0.605469 14.953125 0.4375 15.316406 0.496094 C 15.898438 0.597656 16.101562 0.597656 16.683594 0.496094 C 17.046875 0.4375 17.355469 0.605469 17.289062 1.074219 C 17.277344 1.15625 17.273438 1.21875 17.277344 1.265625 C 17.292969 1.410156 17.464844 1.464844 17.542969 1.582031 C 17.625 1.699219 17.617188 1.847656 17.519531 1.960938 C 17.457031 2.035156 17.332031 2.078125 17.285156 2.15625 C 17.242188 2.230469 17.304688 2.386719 17.316406 2.464844 C 17.347656 2.625 17.339844 2.761719 17.277344 2.863281 C 17.121094 3.117188 16.78125 3.015625 16.535156 2.96875 C 16.503906 2.960938 16.472656 2.957031 16.445312 2.949219 C 16.546875 3.34375 16.761719 3.640625 17.019531 3.84375 C 17.488281 4.203125 18.128906 4.265625 18.65625 4.007812 C 18.957031 3.859375 19.222656 3.609375 19.402344 3.246094 C 19.148438 3.230469 18.710938 3.3125 18.601562 2.996094 C 18.550781 2.859375 18.605469 2.675781 18.699219 2.472656 C 18.777344 2.308594 18.726562 2.265625 18.605469 2.148438 C 18.515625 2.058594 18.480469 1.941406 18.511719 1.832031 C 18.570312 1.617188 18.789062 1.628906 18.898438 1.484375 C 18.925781 1.441406 18.9375 1.375 18.949219 1.242188 C 18.964844 1.023438 19.058594 0.777344 19.308594 0.738281 C 19.539062 0.699219 19.710938 0.820312 19.890625 0.902344 C 20.152344 1.019531 20.46875 1.082031 20.75 1.078125 C 20.914062 1.074219 21.066406 1.039062 21.242188 1.097656 C 21.394531 1.148438 21.503906 1.265625 21.527344 1.425781 C 21.554688 1.621094 21.402344 1.824219 21.433594 1.984375 C 21.460938 2.09375 21.582031 2.179688 21.628906 2.285156 C 21.703125 2.476562 21.59375 2.636719 21.421875 2.726562 C 21.296875 2.789062 21.238281 2.773438 21.222656 3.109375 C 21.210938 3.53125 20.984375 3.675781 20.636719 3.570312 C 20.515625 3.53125 20.40625 3.46875 20.285156 3.425781 C 20.332031 3.757812 20.460938 4.042969 20.640625 4.273438 C 20.867188 4.566406 21.175781 4.765625 21.496094 4.855469 C 21.804688 4.941406 22.136719 4.910156 22.402344 4.753906 C 22.628906 4.625 22.8125 4.402344 22.933594 4.082031 C 22.90625 4.078125 22.878906 4.070312 22.851562 4.066406 C 22.582031 4.03125 22.207031 4.015625 22.121094 3.695312 C 22.074219 3.519531 22.160156 3.328125 22.296875 3.214844 C 22.410156 3.128906 22.523438 3.015625 22.535156 2.863281 C 22.542969 2.785156 22.53125 2.722656 22.527344 2.664062 C 22.492188 2.265625 22.726562 1.96875 23.140625 1.992188 C 23.242188 1.996094 23.347656 2 23.457031 1.839844 C 23.625 1.59375 23.785156 1.535156 23.992188 1.59375 C 24.304688 1.675781 24.675781 1.980469 24.753906 2.285156 C 24.796875 2.453125 24.734375 2.578125 24.597656 2.707031 C 24.25 3.03125 24.066406 3.238281 23.960938 3.457031 C 23.851562 3.679688 23.8125 3.929688 23.753906 4.335938 C 23.734375 4.46875 23.703125 4.589844 23.664062 4.703125 C 23.394531 5.5 22.691406 5.894531 21.871094 5.875 C 22.074219 5.949219 22.28125 6.023438 22.480469 6.109375 C 22.617188 6.160156 22.726562 6.246094 22.789062 6.382812 C 22.914062 6.628906 22.820312 6.910156 22.550781 7.003906 C 22.453125 7.035156 22.34375 7.042969 22.246094 7.023438 L 22.089844 7.535156 C 22.257812 7.617188 22.363281 7.722656 22.414062 7.835938 C 22.453125 7.914062 22.460938 7.996094 22.445312 8.078125 L 23.992188 8.078125 L 23.992188 25.609375 C 23.992188 26.167969 23.835938 26.546875 23.542969 26.792969 C 23.25 27.03125 22.839844 27.128906 22.328125 27.128906 L 17.417969 27.128906 C 17.136719 27.128906 16.851562 27.21875 16.617188 27.378906 C 16.28125 27.605469 16.175781 27.894531 16 28.226562 "/>
<path style=" stroke:none;fill-rule:nonzero;fill:url(#linear0);" d="M 8.257812 8.328125 L 8.257812 25.609375 C 8.257812 26.089844 8.382812 26.40625 8.621094 26.601562 C 8.859375 26.800781 9.21875 26.878906 9.671875 26.878906 L 14.582031 26.878906 C 14.914062 26.878906 15.246094 26.988281 15.527344 27.175781 C 15.71875 27.304688 15.882812 27.476562 16 27.675781 C 16.117188 27.476562 16.28125 27.304688 16.472656 27.175781 C 16.753906 26.988281 17.085938 26.878906 17.417969 26.878906 L 22.328125 26.878906 C 22.78125 26.878906 23.140625 26.800781 23.378906 26.601562 C 23.617188 26.40625 23.742188 26.089844 23.742188 25.609375 L 23.742188 8.328125 Z M 8.257812 8.328125 "/>
<path style=" stroke:none;fill-rule:nonzero;fill:rgb(0%,0%,0%);fill-opacity:1;" d="M 16 26.726562 C 16.402344 26.421875 16.90625 26.242188 17.417969 26.242188 L 22.328125 26.242188 C 22.871094 26.242188 23.097656 26.183594 23.097656 25.609375 L 23.097656 12.710938 L 8.902344 12.710938 L 8.902344 25.609375 C 8.902344 26.183594 9.128906 26.242188 9.671875 26.242188 L 14.582031 26.242188 C 15.09375 26.242188 15.597656 26.421875 16 26.726562 "/>
<path style=" stroke:none;fill-rule:nonzero;fill:rgb(0%,0%,0%);fill-opacity:1;" d="M 15.109375 30.101562 L 15.109375 29.144531 L 15.027344 29.019531 L 7.335938 29.019531 L 8.636719 30.3125 L 7.851562 31.21875 C 7.160156 30.714844 6.53125 30.125 5.972656 29.433594 C 6.707031 29.082031 7.289062 28.488281 7.617188 27.746094 C 7.703125 27.550781 7.726562 27.335938 7.695312 27.15625 C 7.609375 26.726562 7.171875 26.546875 6.785156 26.734375 C 6.5625 26.84375 6.378906 27.054688 6.261719 27.242188 C 5.933594 27.78125 5.765625 28.488281 5.714844 29.105469 C 5.394531 28.679688 5.101562 28.21875 4.832031 27.714844 C 5.527344 27.210938 6.027344 26.554688 6.238281 25.714844 C 6.292969 25.496094 6.285156 25.277344 6.21875 25.097656 C 6.066406 24.671875 5.605469 24.566406 5.25 24.835938 C 5.042969 24.992188 4.898438 25.242188 4.816406 25.460938 C 4.609375 26 4.542969 26.613281 4.566406 27.191406 C 4.25 26.535156 4.167969 26.332031 4.457031 25.605469 L 4.472656 25.605469 C 5.011719 25.605469 5.011719 24.792969 4.472656 24.792969 C 4.070312 24.792969 3.917969 25.292969 4.21875 25.523438 C 4.160156 25.679688 4.109375 25.835938 4.066406 25.988281 C 3.90625 25.566406 3.769531 25.132812 3.65625 24.695312 C 3.921875 24.667969 4.359375 24.496094 4.785156 24.265625 C 5.082031 24.097656 5.378906 23.894531 5.605469 23.679688 C 5.878906 23.414062 6.144531 23.023438 5.929688 22.648438 C 5.734375 22.300781 5.246094 22.285156 4.917969 22.421875 C 4.511719 22.597656 4.203125 22.917969 3.964844 23.300781 C 3.789062 23.585938 3.652344 23.90625 3.539062 24.230469 C 3.5 24.054688 3.460938 23.882812 3.425781 23.703125 C 3.367188 23.40625 3.527344 23.214844 3.707031 23.007812 C 3.761719 23.035156 3.828125 23.050781 3.894531 23.050781 C 4.121094 23.050781 4.304688 22.871094 4.304688 22.648438 C 4.304688 22.421875 4.121094 22.238281 3.894531 22.238281 C 3.667969 22.238281 3.480469 22.421875 3.480469 22.648438 C 3.480469 22.714844 3.5 22.777344 3.527344 22.835938 C 3.488281 22.882812 3.449219 22.929688 3.414062 22.980469 C 3.378906 23.023438 3.347656 23.0625 3.3125 23.109375 C 3.300781 23.03125 3.292969 22.949219 3.28125 22.875 C 3.21875 22.46875 3.171875 22.066406 3.140625 21.660156 C 3.34375 21.652344 3.671875 21.566406 4.015625 21.421875 C 4.339844 21.289062 4.679688 21.109375 4.953125 20.898438 C 5.242188 20.671875 5.449219 20.417969 5.484375 20.140625 C 5.523438 19.84375 5.351562 19.585938 5.058594 19.492188 C 4.890625 19.441406 4.695312 19.441406 4.503906 19.507812 C 4.113281 19.644531 3.796875 19.933594 3.539062 20.296875 C 3.371094 20.542969 3.222656 20.820312 3.101562 21.109375 C 3.09375 20.941406 3.085938 20.777344 3.078125 20.609375 C 3.070312 20.304688 3.25 20.113281 3.472656 19.925781 C 3.519531 19.945312 3.570312 19.957031 3.621094 19.957031 C 3.847656 19.957031 4.035156 19.769531 4.035156 19.546875 C 4.035156 19.324219 3.847656 19.144531 3.621094 19.144531 C 3.394531 19.144531 3.210938 19.324219 3.210938 19.546875 C 3.210938 19.632812 3.234375 19.703125 3.277344 19.765625 C 3.203125 19.832031 3.136719 19.902344 3.070312 19.972656 C 3.070312 19.820312 3.070312 19.667969 3.074219 19.519531 C 3.078125 19.292969 3.078125 19.066406 3.105469 18.847656 C 3.269531 18.824219 3.523438 18.75 3.785156 18.640625 C 4.152344 18.484375 4.570312 18.25 4.90625 17.984375 C 5.253906 17.703125 5.515625 17.382812 5.53125 17.0625 C 5.550781 16.765625 5.359375 16.519531 5.0625 16.453125 C 4.886719 16.410156 4.6875 16.425781 4.492188 16.515625 C 3.886719 16.816406 3.472656 17.507812 3.152344 18.140625 C 3.175781 17.859375 3.210938 17.585938 3.25 17.3125 C 3.292969 17.019531 3.382812 16.847656 3.617188 16.660156 C 3.6875 16.722656 3.78125 16.753906 3.882812 16.753906 C 4.109375 16.753906 4.292969 16.574219 4.292969 16.355469 C 4.292969 16.132812 4.109375 15.945312 3.882812 15.945312 C 3.652344 15.945312 3.46875 16.132812 3.46875 16.355469 C 3.46875 16.390625 3.472656 16.421875 3.480469 16.457031 C 3.445312 16.480469 3.414062 16.507812 3.382812 16.535156 C 3.4375 16.234375 3.507812 15.925781 3.582031 15.625 C 3.65625 15.640625 3.742188 15.640625 3.835938 15.632812 C 4.191406 15.617188 4.722656 15.496094 5.207031 15.296875 C 5.703125 15.09375 6.144531 14.804688 6.300781 14.449219 C 6.421875 14.179688 6.382812 13.90625 6.09375 13.757812 C 5.9375 13.679688 5.726562 13.644531 5.519531 13.648438 C 5.070312 13.660156 4.675781 13.851562 4.34375 14.132812 C 4.167969 14.277344 4.015625 14.449219 3.871094 14.640625 C 3.960938 14.363281 4.058594 14.101562 4.160156 13.835938 C 4.253906 13.589844 4.335938 13.417969 4.589844 13.273438 C 4.65625 13.402344 4.796875 13.492188 4.953125 13.492188 C 5.179688 13.492188 5.363281 13.3125 5.363281 13.085938 C 5.363281 12.863281 5.179688 12.683594 4.953125 12.683594 C 4.753906 12.683594 4.589844 12.828125 4.550781 13.011719 C 4.53125 13.019531 4.515625 13.027344 4.492188 13.042969 C 4.617188 12.769531 4.75 12.507812 4.886719 12.253906 C 5.445312 12.015625 6.054688 11.585938 6.394531 11.078125 C 6.574219 10.8125 6.734375 10.484375 6.703125 10.160156 C 6.652344 9.636719 6.132812 9.5 5.703125 9.710938 C 5.492188 9.8125 5.285156 9.992188 5.113281 10.265625 C 4.78125 10.789062 4.710938 11.480469 4.695312 12.082031 C 4.515625 12.414062 4.351562 12.75 4.199219 13.097656 C 4.195312 13.089844 4.195312 13.085938 4.191406 13.082031 C 4.175781 13.042969 4.164062 13 4.148438 12.960938 C 4.234375 12.882812 4.289062 12.773438 4.289062 12.652344 C 4.289062 12.429688 4.101562 12.25 3.875 12.25 C 3.648438 12.25 3.464844 12.429688 3.464844 12.652344 C 3.464844 12.898438 3.675781 13.082031 3.917969 13.058594 C 3.992188 13.246094 4.046875 13.445312 3.964844 13.644531 C 3.851562 13.929688 3.746094 14.222656 3.648438 14.519531 C 3.660156 14.363281 3.660156 14.207031 3.65625 14.058594 C 3.636719 13.566406 3.519531 13.097656 3.214844 12.730469 C 3.003906 12.476562 2.550781 12.207031 2.238281 12.472656 C 2.148438 12.546875 2.089844 12.640625 2.046875 12.746094 C 1.914062 13.089844 2.019531 13.582031 2.226562 14.058594 C 2.421875 14.515625 2.710938 14.972656 2.960938 15.253906 C 3.058594 15.363281 3.199219 15.511719 3.34375 15.566406 C 3.183594 16.203125 3.054688 16.863281 2.96875 17.550781 C 2.957031 17.496094 2.941406 17.449219 2.929688 17.402344 C 2.796875 16.9375 2.574219 16.515625 2.203125 16.238281 C 2.039062 16.113281 1.835938 16.039062 1.660156 16.027344 C 1.332031 16.003906 1.125 16.210938 1.089844 16.511719 C 1.039062 16.875 1.253906 17.316406 1.558594 17.726562 C 1.851562 18.117188 2.238281 18.484375 2.542969 18.699219 C 2.652344 18.78125 2.757812 18.839844 2.847656 18.871094 C 2.835938 19.082031 2.828125 19.296875 2.824219 19.515625 C 2.824219 19.65625 2.820312 19.800781 2.820312 19.945312 C 2.75 19.851562 2.679688 19.761719 2.605469 19.679688 C 2.648438 19.609375 2.671875 19.535156 2.671875 19.449219 C 2.671875 19.226562 2.488281 19.042969 2.265625 19.042969 C 2.039062 19.042969 1.851562 19.226562 1.851562 19.449219 C 1.851562 19.671875 2.039062 19.855469 2.265625 19.855469 C 2.316406 19.855469 2.367188 19.847656 2.410156 19.828125 C 2.605469 20.058594 2.820312 20.300781 2.832031 20.613281 C 2.832031 20.722656 2.835938 20.832031 2.84375 20.941406 C 2.710938 20.664062 2.550781 20.398438 2.355469 20.167969 C 2.097656 19.859375 1.78125 19.617188 1.394531 19.515625 C 1.199219 19.457031 1 19.453125 0.835938 19.503906 C 0.546875 19.589844 0.402344 19.847656 0.449219 20.136719 C 0.496094 20.425781 0.742188 20.699219 1.066406 20.929688 C 1.375 21.152344 1.757812 21.339844 2.105469 21.464844 C 2.417969 21.578125 2.703125 21.644531 2.886719 21.644531 C 2.921875 22.066406 2.96875 22.484375 3.03125 22.90625 C 3.085938 23.253906 3.148438 23.601562 3.21875 23.941406 C 3.0625 23.710938 2.882812 23.484375 2.679688 23.296875 C 2.371094 23.007812 2.007812 22.792969 1.59375 22.726562 C 1.382812 22.691406 1.175781 22.707031 1.003906 22.769531 C 0.722656 22.875 0.582031 23.136719 0.648438 23.421875 C 0.71875 23.691406 0.964844 23.929688 1.292969 24.125 C 1.605469 24.3125 1.992188 24.464844 2.355469 24.570312 C 2.78125 24.695312 3.183594 24.753906 3.410156 24.730469 C 3.488281 25.039062 3.578125 25.339844 3.679688 25.644531 C 3.621094 25.601562 3.566406 25.566406 3.507812 25.53125 C 3.53125 25.285156 3.335938 25.066406 3.085938 25.066406 C 2.523438 25.066406 2.523438 25.90625 3.085938 25.90625 C 3.210938 25.90625 3.332031 25.851562 3.410156 25.757812 C 3.652344 25.914062 3.808594 26.015625 3.90625 26.292969 C 4.007812 26.5625 4.109375 26.792969 4.21875 27.027344 C 3.753906 26.589844 3.160156 26.242188 2.5 26.277344 C 2.289062 26.285156 2.089844 26.34375 1.9375 26.441406 C 1.683594 26.605469 1.59375 26.890625 1.730469 27.160156 C 1.839844 27.390625 2.105469 27.558594 2.433594 27.675781 C 3.023438 27.886719 4.011719 28.015625 4.613281 27.828125 C 4.851562 28.277344 5.113281 28.691406 5.390625 29.082031 C 4.777344 28.785156 4.078125 28.621094 3.398438 28.777344 C 3.195312 28.824219 3.011719 28.921875 2.886719 29.046875 C 2.597656 29.347656 2.695312 29.78125 3.054688 29.976562 C 3.261719 30.089844 3.53125 30.113281 3.746094 30.101562 C 4.351562 30.070312 5.25 29.921875 5.757812 29.566406 C 6.332031 30.273438 6.976562 30.886719 7.6875 31.410156 L 7.523438 31.601562 L 12.960938 31.601562 L 12.960938 32.285156 C 12.960938 32.40625 13.066406 32.5 13.183594 32.5 L 18.816406 32.5 C 18.933594 32.5 19.039062 32.40625 19.039062 32.285156 L 19.039062 31.601562 L 24.476562 31.601562 L 24.308594 31.410156 C 25.023438 30.886719 25.667969 30.273438 26.242188 29.566406 C 26.75 29.921875 27.648438 30.070312 28.253906 30.101562 C 28.46875 30.113281 28.734375 30.089844 28.945312 29.976562 C 29.304688 29.78125 29.402344 29.347656 29.113281 29.046875 C 28.988281 28.921875 28.804688 28.824219 28.597656 28.777344 C 27.921875 28.621094 27.222656 28.785156 26.609375 29.082031 C 26.886719 28.691406 27.148438 28.277344 27.386719 27.828125 C 27.988281 28.015625 28.976562 27.886719 29.566406 27.675781 C 29.894531 27.558594 30.160156 27.390625 30.269531 27.160156 C 30.40625 26.890625 30.316406 26.605469 30.0625 26.441406 C 29.910156 26.34375 29.710938 26.285156 29.5 26.277344 C 28.839844 26.242188 28.246094 26.589844 27.78125 27.027344 C 27.890625 26.792969 27.992188 26.5625 28.089844 26.292969 C 28.191406 26.015625 28.347656 25.914062 28.589844 25.757812 C 28.667969 25.851562 28.789062 25.90625 28.914062 25.90625 C 29.476562 25.90625 29.476562 25.066406 28.914062 25.066406 C 28.664062 25.066406 28.46875 25.285156 28.492188 25.53125 C 28.433594 25.566406 28.378906 25.601562 28.316406 25.644531 C 28.417969 25.339844 28.511719 25.039062 28.589844 24.730469 C 28.820312 24.753906 29.21875 24.695312 29.640625 24.570312 C 30.003906 24.464844 30.394531 24.3125 30.707031 24.125 C 31.035156 23.929688 31.28125 23.691406 31.351562 23.421875 C 31.417969 23.136719 31.277344 22.875 30.996094 22.769531 C 30.824219 22.707031 30.617188 22.691406 30.40625 22.726562 C 29.992188 22.792969 29.628906 23.007812 29.320312 23.296875 C 29.117188 23.484375 28.9375 23.710938 28.777344 23.941406 C 28.851562 23.601562 28.914062 23.253906 28.96875 22.90625 C 29.03125 22.484375 29.078125 22.066406 29.113281 21.644531 C 29.296875 21.644531 29.582031 21.578125 29.894531 21.464844 C 30.242188 21.339844 30.625 21.152344 30.933594 20.929688 C 31.257812 20.699219 31.503906 20.425781 31.550781 20.136719 C 31.597656 19.847656 31.453125 19.589844 31.164062 19.503906 C 31 19.453125 30.800781 19.457031 30.601562 19.515625 C 30.21875 19.617188 29.902344 19.859375 29.640625 20.167969 C 29.449219 20.398438 29.289062 20.664062 29.15625 20.941406 C 29.164062 20.832031 29.167969 20.722656 29.167969 20.613281 C 29.179688 20.300781 29.394531 20.058594 29.589844 19.828125 C 29.632812 19.847656 29.683594 19.855469 29.734375 19.855469 C 29.960938 19.855469 30.144531 19.671875 30.144531 19.449219 C 30.144531 19.226562 29.960938 19.042969 29.734375 19.042969 C 29.507812 19.042969 29.324219 19.226562 29.324219 19.449219 C 29.324219 19.535156 29.351562 19.609375 29.394531 19.679688 C 29.320312 19.761719 29.25 19.851562 29.179688 19.945312 C 29.179688 19.800781 29.175781 19.65625 29.175781 19.515625 C 29.171875 19.296875 29.164062 19.082031 29.152344 18.871094 C 29.242188 18.839844 29.347656 18.78125 29.457031 18.699219 C 29.761719 18.484375 30.144531 18.117188 30.441406 17.726562 C 30.746094 17.316406 30.957031 16.875 30.910156 16.511719 C 30.871094 16.210938 30.667969 16.003906 30.339844 16.027344 C 30.164062 16.039062 29.960938 16.113281 29.796875 16.238281 C 29.425781 16.515625 29.203125 16.9375 29.070312 17.402344 C 29.054688 17.449219 29.042969 17.496094 29.03125 17.550781 C 28.945312 16.863281 28.820312 16.203125 28.65625 15.566406 C 28.800781 15.511719 28.941406 15.363281 29.039062 15.253906 C 29.289062 14.972656 29.578125 14.515625 29.773438 14.058594 C 29.980469 13.582031 30.085938 13.089844 29.953125 12.746094 C 29.910156 12.640625 29.851562 12.546875 29.761719 12.472656 C 29.449219 12.207031 28.996094 12.476562 28.78125 12.726562 C 28.480469 13.097656 28.363281 13.566406 28.34375 14.058594 C 28.339844 14.207031 28.339844 14.363281 28.351562 14.519531 C 28.253906 14.222656 28.144531 13.929688 28.035156 13.644531 C 27.953125 13.445312 28.003906 13.246094 28.082031 13.058594 C 28.320312 13.082031 28.535156 12.898438 28.535156 12.652344 C 28.535156 12.429688 28.351562 12.25 28.125 12.25 C 27.898438 12.25 27.710938 12.429688 27.710938 12.652344 C 27.710938 12.773438 27.765625 12.882812 27.851562 12.960938 C 27.835938 13 27.820312 13.042969 27.808594 13.082031 C 27.804688 13.085938 27.804688 13.089844 27.800781 13.097656 C 27.648438 12.75 27.484375 12.414062 27.304688 12.082031 C 27.289062 11.480469 27.21875 10.789062 26.886719 10.265625 C 26.714844 9.992188 26.507812 9.808594 26.296875 9.710938 C 25.863281 9.5 25.347656 9.636719 25.296875 10.160156 C 25.265625 10.484375 25.425781 10.8125 25.605469 11.078125 C 25.945312 11.585938 26.554688 12.015625 27.113281 12.253906 C 27.25 12.507812 27.382812 12.769531 27.507812 13.042969 C 27.484375 13.027344 27.46875 13.019531 27.449219 13.011719 C 27.410156 12.828125 27.246094 12.683594 27.042969 12.683594 C 26.816406 12.683594 26.632812 12.863281 26.632812 13.085938 C 26.632812 13.3125 26.816406 13.492188 27.042969 13.492188 C 27.203125 13.492188 27.34375 13.402344 27.410156 13.273438 C 27.664062 13.417969 27.746094 13.589844 27.839844 13.835938 C 27.941406 14.101562 28.039062 14.363281 28.128906 14.640625 C 27.984375 14.449219 27.832031 14.277344 27.65625 14.132812 C 27.320312 13.851562 26.929688 13.660156 26.480469 13.648438 C 26.269531 13.644531 26.0625 13.679688 25.90625 13.757812 C 25.617188 13.90625 25.578125 14.179688 25.699219 14.449219 C 25.855469 14.804688 26.296875 15.09375 26.792969 15.296875 C 27.273438 15.496094 27.808594 15.617188 28.164062 15.632812 C 28.257812 15.640625 28.34375 15.640625 28.417969 15.625 C 28.492188 15.925781 28.5625 16.234375 28.617188 16.535156 C 28.585938 16.507812 28.554688 16.480469 28.519531 16.457031 C 28.527344 16.421875 28.53125 16.390625 28.53125 16.355469 C 28.53125 16.132812 28.347656 15.945312 28.117188 15.945312 C 27.890625 15.945312 27.707031 16.132812 27.707031 16.355469 C 27.707031 16.574219 27.890625 16.753906 28.117188 16.753906 C 28.21875 16.753906 28.3125 16.722656 28.382812 16.660156 C 28.617188 16.847656 28.707031 17.019531 28.75 17.3125 C 28.789062 17.585938 28.820312 17.859375 28.847656 18.140625 C 28.527344 17.507812 28.113281 16.816406 27.507812 16.515625 C 27.3125 16.425781 27.113281 16.410156 26.9375 16.453125 C 26.640625 16.519531 26.449219 16.765625 26.46875 17.0625 C 26.484375 17.382812 26.746094 17.703125 27.09375 17.984375 C 27.429688 18.25 27.847656 18.484375 28.214844 18.640625 C 28.476562 18.75 28.726562 18.824219 28.894531 18.847656 C 28.921875 19.066406 28.921875 19.292969 28.925781 19.519531 C 28.929688 19.667969 28.929688 19.820312 28.929688 19.972656 C 28.863281 19.902344 28.796875 19.832031 28.722656 19.765625 C 28.765625 19.703125 28.789062 19.632812 28.789062 19.546875 C 28.789062 19.324219 28.605469 19.144531 28.378906 19.144531 C 28.152344 19.144531 27.960938 19.324219 27.960938 19.546875 C 27.960938 19.769531 28.152344 19.957031 28.378906 19.957031 C 28.429688 19.957031 28.480469 19.945312 28.527344 19.925781 C 28.75 20.113281 28.929688 20.304688 28.921875 20.609375 C 28.914062 20.777344 28.90625 20.941406 28.898438 21.109375 C 28.773438 20.820312 28.628906 20.542969 28.457031 20.296875 C 28.203125 19.933594 27.886719 19.644531 27.496094 19.507812 C 27.304688 19.441406 27.109375 19.441406 26.941406 19.492188 C 26.648438 19.585938 26.476562 19.84375 26.515625 20.140625 C 26.550781 20.417969 26.757812 20.671875 27.042969 20.898438 C 27.316406 21.109375 27.660156 21.289062 27.984375 21.421875 C 28.324219 21.566406 28.65625 21.652344 28.859375 21.660156 C 28.824219 22.066406 28.777344 22.46875 28.71875 22.875 C 28.707031 22.949219 28.699219 23.03125 28.6875 23.109375 C 28.652344 23.0625 28.621094 23.023438 28.585938 22.980469 C 28.546875 22.929688 28.511719 22.882812 28.472656 22.835938 C 28.503906 22.777344 28.519531 22.714844 28.519531 22.648438 C 28.519531 22.421875 28.332031 22.238281 28.105469 22.238281 C 27.878906 22.238281 27.695312 22.421875 27.695312 22.648438 C 27.695312 22.871094 27.878906 23.050781 28.105469 23.050781 C 28.171875 23.050781 28.238281 23.035156 28.292969 23.007812 C 28.472656 23.214844 28.632812 23.40625 28.574219 23.703125 C 28.539062 23.882812 28.503906 24.054688 28.457031 24.230469 C 28.347656 23.90625 28.210938 23.585938 28.035156 23.300781 C 27.796875 22.917969 27.488281 22.597656 27.082031 22.421875 C 26.753906 22.285156 26.265625 22.300781 26.070312 22.648438 C 25.855469 23.023438 26.121094 23.414062 26.394531 23.679688 C 26.621094 23.894531 26.917969 24.097656 27.214844 24.265625 C 27.636719 24.496094 28.078125 24.667969 28.34375 24.695312 C 28.226562 25.132812 28.089844 25.566406 27.933594 25.988281 C 27.890625 25.835938 27.839844 25.679688 27.78125 25.523438 C 28.082031 25.292969 27.929688 24.792969 27.527344 24.792969 C 26.988281 24.792969 26.988281 25.605469 27.527344 25.605469 L 27.542969 25.605469 C 27.832031 26.332031 27.75 26.535156 27.433594 27.191406 C 27.453125 26.613281 27.390625 26 27.179688 25.460938 C 27.101562 25.242188 26.957031 24.992188 26.75 24.835938 C 26.394531 24.566406 25.933594 24.671875 25.78125 25.097656 C 25.714844 25.277344 25.707031 25.496094 25.761719 25.714844 C 25.972656 26.554688 26.472656 27.210938 27.167969 27.714844 C 26.898438 28.21875 26.605469 28.679688 26.285156 29.105469 C 26.230469 28.488281 26.066406 27.78125 25.738281 27.242188 C 25.621094 27.054688 25.4375 26.84375 25.214844 26.734375 C 24.828125 26.546875 24.390625 26.726562 24.304688 27.15625 C 24.269531 27.335938 24.296875 27.550781 24.382812 27.746094 C 24.710938 28.488281 25.292969 29.082031 26.027344 29.433594 C 25.46875 30.125 24.839844 30.714844 24.148438 31.21875 L 23.359375 30.3125 L 24.664062 29.019531 L 16.972656 29.019531 L 16.886719 29.144531 L 16.886719 30.101562 Z M 15.109375 30.101562 "/>
<path style=" stroke:none;fill-rule:nonzero;fill:rgb(100%,100%,100%);fill-opacity:1;" d="M 12.960938 31.359375 L 12.960938 30.320312 C 12.960938 30.238281 13.015625 30.15625 13.09375 30.125 L 14.535156 29.261719 L 7.925781 29.261719 L 8.972656 30.3125 L 8.101562 31.359375 Z M 12.960938 31.359375 "/>
<path style=" stroke:none;fill-rule:nonzero;fill:rgb(100%,100%,100%);fill-opacity:1;" d="M 19.039062 31.359375 L 19.039062 30.320312 C 19.039062 30.238281 18.980469 30.15625 18.90625 30.125 L 17.464844 29.261719 L 24.074219 29.261719 L 23.027344 30.3125 L 23.898438 31.359375 Z M 19.039062 31.359375 "/>
<path style=" stroke:none;fill-rule:nonzero;fill:rgb(100%,100%,100%);fill-opacity:1;" d="M 18.785156 32.257812 L 13.214844 32.257812 L 13.214844 30.351562 L 18.785156 30.351562 Z M 18.785156 32.257812 "/>
<path style=" stroke:none;fill-rule:nonzero;fill:rgb(100%,100%,100%);fill-opacity:1;" d="M 18.390625 30.101562 L 17.136719 30.101562 L 17.136719 29.355469 Z M 18.390625 30.101562 "/>
<path style=" stroke:none;fill-rule:nonzero;fill:rgb(100%,100%,100%);fill-opacity:1;" d="M 13.605469 30.101562 L 14.863281 30.101562 L 14.863281 29.355469 Z M 13.605469 30.101562 "/>
<path style=" stroke:none;fill-rule:nonzero;fill:rgb(87.843137%,12.156863%,14.901961%);fill-opacity:1;" d="M 20.5 6.621094 C 20.519531 6.683594 20.507812 6.742188 20.460938 6.789062 C 20.285156 6.941406 19.757812 6.800781 19.6875 6.582031 C 19.664062 6.523438 19.679688 6.460938 19.726562 6.417969 C 19.90625 6.257812 20.421875 6.398438 20.5 6.621094 "/>
<path style=" stroke:none;fill-rule:nonzero;fill:rgb(80%,12.54902%,15.294118%);fill-opacity:1;" d="M 21.976562 7.058594 L 21.90625 7.292969 L 21.699219 7.082031 Z M 21.976562 7.058594 "/>
<path style=" stroke:none;fill-rule:nonzero;fill:rgb(94.901961%,76.862745%,9.019608%);fill-opacity:1;" d="M 20.433594 5.4375 C 19.839844 5.28125 19.238281 5.160156 18.632812 5.070312 C 18.996094 4.964844 19.320312 4.765625 19.589844 4.511719 C 19.765625 4.898438 20.082031 5.210938 20.433594 5.4375 "/>
<path style=" stroke:none;fill-rule:nonzero;fill:rgb(94.901961%,76.862745%,9.019608%);fill-opacity:1;" d="M 20.710938 6.503906 C 21.070312 6.609375 21.429688 6.726562 21.78125 6.859375 L 21.207031 6.90625 L 21.640625 7.355469 C 21.28125 7.222656 20.917969 7.105469 20.554688 6.996094 C 20.589844 6.976562 20.613281 6.957031 20.640625 6.933594 C 20.746094 6.839844 20.785156 6.699219 20.738281 6.5625 C 20.734375 6.542969 20.726562 6.523438 20.710938 6.503906 "/>
<path style=" stroke:none;fill-rule:nonzero;fill:rgb(94.901961%,76.862745%,9.019608%);fill-opacity:1;" d="M 18.464844 6.53125 L 19 6.328125 L 18.558594 6.019531 C 18.914062 6.074219 19.265625 6.140625 19.613281 6.21875 C 19.589844 6.234375 19.566406 6.25 19.546875 6.269531 C 19.4375 6.367188 19.402344 6.503906 19.449219 6.640625 C 19.457031 6.667969 19.46875 6.695312 19.480469 6.71875 C 19.148438 6.644531 18.804688 6.582031 18.464844 6.53125 "/>
<path style=" stroke:none;fill-rule:nonzero;fill:rgb(87.843137%,12.156863%,14.901961%);fill-opacity:1;" d="M 11.5 6.621094 C 11.480469 6.683594 11.492188 6.742188 11.539062 6.789062 C 11.714844 6.941406 12.238281 6.800781 12.3125 6.582031 C 12.332031 6.523438 12.320312 6.460938 12.273438 6.417969 C 12.09375 6.257812 11.578125 6.398438 11.5 6.621094 "/>
<path style=" stroke:none;fill-rule:nonzero;fill:rgb(80%,12.54902%,15.294118%);fill-opacity:1;" d="M 10.023438 7.058594 L 10.09375 7.292969 L 10.300781 7.082031 Z M 10.023438 7.058594 "/>
<path style=" stroke:none;fill-rule:nonzero;fill:rgb(94.901961%,76.862745%,9.019608%);fill-opacity:1;" d="M 11.566406 5.4375 C 12.160156 5.28125 12.761719 5.160156 13.367188 5.070312 C 13.003906 4.964844 12.679688 4.765625 12.410156 4.511719 C 12.234375 4.898438 11.917969 5.210938 11.566406 5.4375 "/>
<path style=" stroke:none;fill-rule:nonzero;fill:rgb(94.901961%,76.862745%,9.019608%);fill-opacity:1;" d="M 11.289062 6.503906 C 10.929688 6.609375 10.570312 6.726562 10.21875 6.859375 L 10.792969 6.90625 L 10.359375 7.355469 C 10.71875 7.222656 11.082031 7.105469 11.445312 6.996094 C 11.410156 6.976562 11.386719 6.957031 11.359375 6.933594 C 11.253906 6.839844 11.214844 6.699219 11.261719 6.5625 C 11.265625 6.542969 11.273438 6.523438 11.289062 6.503906 "/>
<path style=" stroke:none;fill-rule:nonzero;fill:rgb(94.901961%,76.862745%,9.019608%);fill-opacity:1;" d="M 13.535156 6.53125 L 13 6.328125 L 13.441406 6.019531 C 13.085938 6.074219 12.734375 6.140625 12.386719 6.21875 C 12.410156 6.234375 12.433594 6.25 12.453125 6.269531 C 12.558594 6.367188 12.597656 6.503906 12.550781 6.640625 C 12.542969 6.667969 12.53125 6.695312 12.519531 6.71875 C 12.851562 6.644531 13.191406 6.582031 13.535156 6.53125 "/>
<path style=" stroke:none;fill-rule:nonzero;fill:url(#linear1);" d="M 9.621094 6.300781 C 9.539062 6.332031 9.480469 6.378906 9.4375 6.460938 C 9.378906 6.585938 9.398438 6.753906 9.542969 6.804688 C 9.617188 6.828125 9.703125 6.824219 9.773438 6.796875 C 13.742188 5.214844 18.253906 5.214844 22.226562 6.796875 C 22.296875 6.824219 22.382812 6.828125 22.457031 6.804688 C 22.601562 6.753906 22.621094 6.585938 22.5625 6.460938 C 22.519531 6.378906 22.460938 6.332031 22.378906 6.300781 C 20.34375 5.496094 18.171875 5.089844 16 5.089844 C 13.828125 5.089844 11.65625 5.496094 9.621094 6.300781 "/>
<path style=" stroke:none;fill-rule:nonzero;fill:rgb(94.901961%,76.862745%,9.019608%);fill-opacity:1;" d="M 16 4.136719 C 15.90625 4.25 15.800781 4.359375 15.6875 4.460938 C 15.492188 4.636719 15.273438 4.785156 15.042969 4.898438 C 15.683594 4.863281 16.316406 4.863281 16.957031 4.898438 C 16.726562 4.785156 16.507812 4.636719 16.3125 4.460938 C 16.199219 4.359375 16.09375 4.25 16 4.136719 "/>
<path style=" stroke:none;fill-rule:nonzero;fill:url(#linear2);" d="M 16.707031 0.710938 C 16.15625 0.835938 15.839844 0.835938 15.289062 0.710938 C 15.054688 0.660156 14.914062 0.746094 14.957031 1.046875 C 14.96875 1.144531 14.972656 1.222656 14.96875 1.285156 C 14.949219 1.492188 14.773438 1.539062 14.675781 1.6875 C 14.640625 1.730469 14.640625 1.789062 14.679688 1.832031 C 14.753906 1.921875 14.867188 1.945312 14.9375 2.054688 C 14.984375 2.140625 14.992188 2.230469 14.957031 2.371094 C 14.949219 2.414062 14.941406 2.453125 14.929688 2.488281 C 14.910156 2.609375 14.90625 2.707031 14.945312 2.765625 C 15.011719 2.878906 15.316406 2.773438 15.4375 2.753906 C 15.578125 2.726562 15.71875 2.71875 15.859375 2.707031 C 15.761719 3.230469 15.582031 3.667969 15.144531 4.003906 C 14.597656 4.425781 13.839844 4.496094 13.21875 4.195312 C 12.722656 3.949219 12.457031 3.554688 12.253906 3.0625 C 12.378906 3.046875 12.507812 3.03125 12.632812 3.027344 C 12.660156 3.027344 12.699219 3.027344 12.742188 3.027344 C 12.902344 3.035156 13.125 3.039062 13.164062 2.933594 C 13.195312 2.855469 13.144531 2.714844 13.070312 2.554688 C 12.949219 2.304688 13.027344 2.1875 13.207031 2.007812 C 13.292969 1.925781 13.234375 1.84375 13.144531 1.785156 C 13.058594 1.730469 12.945312 1.675781 12.894531 1.597656 C 12.832031 1.515625 12.8125 1.417969 12.800781 1.253906 C 12.796875 1.148438 12.769531 0.988281 12.644531 0.957031 C 12.503906 0.917969 12.359375 1.03125 12.234375 1.085938 C 11.941406 1.226562 11.570312 1.296875 11.246094 1.289062 C 11.117188 1.289062 10.972656 1.253906 10.851562 1.296875 C 10.773438 1.324219 10.730469 1.375 10.722656 1.449219 C 10.695312 1.648438 10.855469 1.820312 10.808594 2.027344 C 10.789062 2.121094 10.730469 2.195312 10.632812 2.3125 C 10.621094 2.332031 10.613281 2.34375 10.609375 2.355469 C 10.542969 2.507812 10.75 2.554688 10.847656 2.609375 C 10.957031 2.667969 11 2.742188 11.019531 3.109375 C 11.035156 3.417969 11.136719 3.441406 11.414062 3.316406 C 11.59375 3.222656 11.789062 3.167969 11.984375 3.113281 C 11.960938 3.589844 11.867188 4.003906 11.570312 4.390625 C 11.308594 4.726562 10.953125 4.960938 10.578125 5.0625 C 10.195312 5.164062 9.792969 5.128906 9.457031 4.933594 C 9.066406 4.699219 8.882812 4.335938 8.757812 3.925781 C 8.875 3.898438 8.988281 3.875 9.105469 3.855469 C 9.257812 3.835938 9.582031 3.847656 9.632812 3.644531 C 9.664062 3.550781 9.609375 3.4375 9.53125 3.371094 C 9.371094 3.246094 9.226562 3.082031 9.214844 2.875 C 9.210938 2.785156 9.214844 2.714844 9.21875 2.652344 C 9.242188 2.40625 9.136719 2.191406 8.875 2.203125 C 8.589844 2.21875 8.46875 2.113281 8.386719 2.003906 C 8.289062 1.878906 8.238281 1.757812 8.035156 1.820312 C 7.820312 1.882812 7.539062 2.125 7.488281 2.332031 C 7.46875 2.414062 7.503906 2.488281 7.585938 2.5625 C 7.957031 2.90625 8.152344 3.128906 8.269531 3.375 C 8.390625 3.621094 8.429688 3.882812 8.492188 4.3125 C 8.515625 4.429688 8.539062 4.539062 8.574219 4.644531 C 8.910156 5.636719 9.953125 5.832031 10.84375 5.535156 C 11.597656 5.285156 12.066406 4.8125 12.308594 4.066406 C 12.511719 4.289062 12.722656 4.484375 12.953125 4.636719 C 13.796875 5.179688 14.800781 4.949219 15.507812 4.3125 C 15.699219 4.140625 15.851562 3.945312 16 3.742188 C 16.148438 3.945312 16.300781 4.140625 16.492188 4.3125 C 17.199219 4.949219 18.203125 5.179688 19.046875 4.636719 C 19.277344 4.484375 19.488281 4.289062 19.691406 4.066406 C 19.933594 4.8125 20.402344 5.285156 21.15625 5.535156 C 22.046875 5.832031 23.085938 5.636719 23.425781 4.644531 C 23.460938 4.539062 23.484375 4.429688 23.507812 4.3125 C 23.570312 3.882812 23.609375 3.621094 23.730469 3.375 C 23.847656 3.128906 24.039062 2.90625 24.414062 2.5625 C 24.492188 2.488281 24.53125 2.414062 24.511719 2.332031 C 24.460938 2.125 24.175781 1.882812 23.964844 1.820312 C 23.761719 1.757812 23.710938 1.878906 23.613281 2.003906 C 23.53125 2.113281 23.410156 2.21875 23.125 2.203125 C 22.863281 2.191406 22.757812 2.40625 22.78125 2.652344 C 22.785156 2.714844 22.789062 2.785156 22.785156 2.875 C 22.769531 3.082031 22.628906 3.246094 22.46875 3.371094 C 22.390625 3.4375 22.335938 3.550781 22.367188 3.644531 C 22.417969 3.847656 22.742188 3.835938 22.894531 3.855469 C 23.011719 3.875 23.125 3.898438 23.242188 3.925781 C 23.117188 4.335938 22.933594 4.699219 22.542969 4.933594 C 22.207031 5.128906 21.804688 5.164062 21.421875 5.0625 C 21.046875 4.960938 20.691406 4.726562 20.429688 4.390625 C 20.132812 4.003906 20.039062 3.589844 20.015625 3.113281 C 20.207031 3.167969 20.402344 3.222656 20.585938 3.316406 C 20.863281 3.441406 20.964844 3.417969 20.980469 3.109375 C 21 2.742188 21.042969 2.667969 21.152344 2.609375 C 21.25 2.554688 21.457031 2.507812 21.390625 2.355469 C 21.386719 2.34375 21.378906 2.332031 21.367188 2.3125 C 21.265625 2.195312 21.210938 2.121094 21.191406 2.027344 C 21.144531 1.820312 21.304688 1.648438 21.277344 1.449219 C 21.265625 1.375 21.226562 1.324219 21.148438 1.296875 C 21.027344 1.253906 20.882812 1.289062 20.753906 1.289062 C 20.429688 1.296875 20.058594 1.226562 19.765625 1.085938 C 19.640625 1.03125 19.496094 0.917969 19.355469 0.957031 C 19.230469 0.988281 19.203125 1.148438 19.199219 1.253906 C 19.1875 1.417969 19.164062 1.515625 19.105469 1.597656 C 19.054688 1.675781 18.9375 1.730469 18.855469 1.785156 C 18.765625 1.84375 18.707031 1.925781 18.792969 2.007812 C 18.972656 2.1875 19.050781 2.304688 18.929688 2.554688 C 18.855469 2.714844 18.804688 2.855469 18.835938 2.933594 C 18.875 3.039062 19.101562 3.035156 19.257812 3.027344 C 19.300781 3.027344 19.339844 3.023438 19.367188 3.027344 C 19.492188 3.03125 19.617188 3.046875 19.746094 3.0625 C 19.542969 3.554688 19.277344 3.949219 18.78125 4.195312 C 18.160156 4.496094 17.402344 4.425781 16.855469 4.003906 C 16.417969 3.667969 16.238281 3.230469 16.140625 2.707031 C 16.28125 2.71875 16.421875 2.726562 16.5625 2.753906 C 16.683594 2.773438 16.988281 2.878906 17.054688 2.765625 C 17.09375 2.707031 17.089844 2.609375 17.066406 2.488281 C 17.058594 2.453125 17.050781 2.414062 17.042969 2.371094 C 17.007812 2.230469 17.015625 2.140625 17.0625 2.054688 C 17.132812 1.945312 17.246094 1.921875 17.320312 1.832031 C 17.359375 1.789062 17.359375 1.730469 17.324219 1.6875 C 17.226562 1.539062 17.050781 1.492188 17.03125 1.285156 C 17.023438 1.222656 17.03125 1.144531 17.042969 1.046875 C 17.078125 0.796875 16.988281 0.699219 16.824219 0.699219 C 16.789062 0.699219 16.75 0.703125 16.707031 0.710938 "/>
<path style=" stroke:none;fill-rule:nonzero;fill:rgb(87.843137%,12.156863%,14.901961%);fill-opacity:1;" d="M 13.863281 6 L 13.46875 6.273438 L 13.894531 6.433594 L 14.28125 6.167969 Z M 13.863281 6 "/>
<path style=" stroke:none;fill-rule:nonzero;fill:rgb(87.843137%,12.156863%,14.901961%);fill-opacity:1;" d="M 18.136719 6 L 18.527344 6.273438 L 18.105469 6.433594 L 17.71875 6.167969 Z M 18.136719 6 "/>
<path style=" stroke:none;fill-rule:nonzero;fill:rgb(0%,0%,0%);fill-opacity:1;" d="M 23.097656 8.96875 L 8.902344 8.96875 L 8.902344 12.070312 L 23.097656 12.070312 Z M 23.097656 8.96875 "/>
<path style=" stroke:none;fill-rule:nonzero;fill:rgb(100%,100%,100%);fill-opacity:1;" d="M 11.746094 25.996094 L 14.582031 25.996094 L 14.582031 23.917969 L 11.746094 23.917969 Z M 11.746094 25.996094 "/>
<path style=" stroke:none;fill-rule:nonzero;fill:rgb(100%,100%,100%);fill-opacity:1;" d="M 17.417969 25.996094 L 20.253906 25.996094 L 20.253906 23.914062 L 17.417969 23.914062 Z M 17.417969 25.996094 "/>
<path style=" stroke:none;fill-rule:nonzero;fill:rgb(100%,100%,100%);fill-opacity:1;" d="M 9.15625 23.914062 L 11.742188 23.914062 L 11.742188 21.113281 L 9.15625 21.113281 Z M 9.15625 23.914062 "/>
<path style=" stroke:none;fill-rule:nonzero;fill:rgb(100%,100%,100%);fill-opacity:1;" d="M 14.582031 21.113281 L 17.417969 21.113281 L 17.417969 23.914062 L 14.582031 23.914062 Z M 14.582031 21.113281 "/>
<path style=" stroke:none;fill-rule:nonzero;fill:rgb(100%,100%,100%);fill-opacity:1;" d="M 22.84375 21.113281 L 20.253906 21.113281 L 20.253906 23.914062 L 22.84375 23.914062 Z M 22.84375 21.113281 "/>
<path style=" stroke:none;fill-rule:nonzero;fill:rgb(100%,100%,100%);fill-opacity:1;" d="M 11.746094 18.3125 L 14.582031 18.3125 L 14.582031 21.113281 L 11.746094 21.113281 Z M 11.746094 18.3125 "/>
<path style=" stroke:none;fill-rule:nonzero;fill:rgb(100%,100%,100%);fill-opacity:1;" d="M 17.417969 18.3125 L 20.253906 18.3125 L 20.253906 21.113281 L 17.417969 21.113281 Z M 17.417969 18.3125 "/>
<path style=" stroke:none;fill-rule:nonzero;fill:rgb(100%,100%,100%);fill-opacity:1;" d="M 9.15625 18.3125 L 11.742188 18.3125 L 11.742188 15.511719 L 9.15625 15.511719 Z M 9.15625 18.3125 "/>
<path style=" stroke:none;fill-rule:nonzero;fill:rgb(100%,100%,100%);fill-opacity:1;" d="M 14.582031 15.511719 L 17.417969 15.511719 L 17.417969 18.3125 L 14.582031 18.3125 Z M 14.582031 15.511719 "/>
<path style=" stroke:none;fill-rule:nonzero;fill:rgb(100%,100%,100%);fill-opacity:1;" d="M 22.84375 15.511719 L 20.253906 15.511719 L 20.253906 18.3125 L 22.84375 18.3125 Z M 22.84375 15.511719 "/>
<path style=" stroke:none;fill-rule:nonzero;fill:rgb(100%,100%,100%);fill-opacity:1;" d="M 14.582031 12.957031 L 11.742188 12.957031 L 11.742188 15.511719 L 14.582031 15.511719 Z M 14.582031 12.957031 "/>
<path style=" stroke:none;fill-rule:nonzero;fill:rgb(100%,100%,100%);fill-opacity:1;" d="M 20.253906 12.957031 L 17.417969 12.957031 L 17.417969 15.511719 L 20.253906 15.511719 Z M 20.253906 12.957031 "/>
<path style=" stroke:none;fill-rule:nonzero;fill:rgb(0%,0%,0%);fill-opacity:1;" d="M 14.394531 32.054688 L 14.707031 32.054688 L 14.707031 30.621094 L 14.484375 30.621094 C 14.449219 30.796875 14.246094 30.84375 14.089844 30.84375 L 14.089844 31.066406 L 14.394531 31.066406 Z M 14.394531 32.054688 "/>
<path style=" stroke:none;fill-rule:nonzero;fill:rgb(0%,0%,0%);fill-opacity:1;" d="M 14.953125 31.714844 C 14.960938 32.007812 15.121094 32.089844 15.402344 32.089844 C 15.773438 32.089844 15.816406 31.796875 15.816406 31.492188 L 15.816406 31.105469 C 15.816406 30.8125 15.71875 30.589844 15.382812 30.589844 C 15.015625 30.589844 14.925781 30.800781 14.925781 31.132812 C 14.925781 31.351562 14.988281 31.570312 15.257812 31.570312 C 15.359375 31.570312 15.40625 31.554688 15.484375 31.496094 L 15.484375 31.59375 C 15.484375 31.679688 15.5 31.847656 15.375 31.847656 C 15.332031 31.847656 15.304688 31.832031 15.285156 31.808594 C 15.273438 31.785156 15.269531 31.75 15.265625 31.714844 Z M 15.371094 30.835938 C 15.507812 30.835938 15.488281 31.011719 15.488281 31.105469 C 15.488281 31.1875 15.496094 31.324219 15.375 31.324219 C 15.253906 31.324219 15.261719 31.1875 15.261719 31.097656 C 15.261719 31.015625 15.253906 30.835938 15.371094 30.835938 "/>
<path style=" stroke:none;fill-rule:nonzero;fill:rgb(0%,0%,0%);fill-opacity:1;" d="M 16 31.6875 C 16 31.96875 16.152344 32.089844 16.429688 32.089844 C 16.769531 32.089844 16.871094 31.9375 16.871094 31.617188 L 16.871094 31.089844 C 16.878906 30.757812 16.789062 30.589844 16.4375 30.589844 C 16.152344 30.589844 16 30.714844 16 31.003906 Z M 16.542969 31.660156 C 16.542969 31.714844 16.546875 31.84375 16.4375 31.847656 C 16.324219 31.847656 16.324219 31.75 16.324219 31.660156 L 16.324219 31.003906 C 16.324219 30.925781 16.328125 30.835938 16.4375 30.835938 C 16.554688 30.835938 16.542969 30.984375 16.542969 31.003906 Z M 16.542969 31.660156 "/>
<path style=" stroke:none;fill-rule:nonzero;fill:rgb(0%,0%,0%);fill-opacity:1;" d="M 17.292969 31.425781 C 17.359375 31.433594 17.445312 31.417969 17.503906 31.457031 C 17.566406 31.492188 17.582031 31.59375 17.582031 31.65625 C 17.582031 31.742188 17.5625 31.847656 17.457031 31.847656 C 17.320312 31.847656 17.335938 31.683594 17.332031 31.585938 L 17.019531 31.585938 L 17.019531 31.683594 C 17.039062 31.945312 17.179688 32.089844 17.453125 32.089844 C 17.738281 32.089844 17.910156 31.953125 17.910156 31.65625 C 17.910156 31.503906 17.859375 31.34375 17.675781 31.300781 L 17.675781 31.296875 C 17.816406 31.226562 17.875 31.121094 17.875 30.964844 C 17.875 30.699219 17.703125 30.589844 17.453125 30.589844 C 17.242188 30.589844 17.03125 30.726562 17.019531 30.945312 L 17.019531 31.050781 L 17.335938 31.050781 C 17.339844 30.976562 17.328125 30.839844 17.445312 30.839844 C 17.539062 30.839844 17.558594 30.90625 17.558594 30.988281 C 17.558594 31.042969 17.542969 31.121094 17.496094 31.152344 C 17.441406 31.195312 17.359375 31.1875 17.292969 31.195312 Z M 17.292969 31.425781 "/>
<path style=" stroke:none;fill-rule:nonzero;fill:rgb(92.54902%,13.333333%,15.294118%);fill-opacity:1;" d="M 15.605469 5.992188 C 15.566406 6.046875 15.566406 6.105469 15.601562 6.160156 C 15.726562 6.355469 16.265625 6.371094 16.398438 6.175781 C 16.429688 6.121094 16.429688 6.058594 16.398438 6.003906 C 16.269531 5.800781 15.738281 5.792969 15.605469 5.992188 "/>
<path style=" stroke:none;fill-rule:nonzero;fill:rgb(0%,0%,0%);fill-opacity:1;" d="M 8.105469 2.636719 C 8.292969 2.390625 8.527344 2.527344 8.527344 2.808594 L 8.527344 2.859375 C 8.535156 2.972656 8.566406 3.074219 8.636719 3.164062 C 8.640625 3.171875 8.652344 3.1875 8.664062 3.195312 C 8.824219 3.375 8.792969 3.621094 8.492188 3.613281 C 8.304688 3.605469 8.105469 3.742188 7.921875 3.644531 C 7.765625 3.566406 7.679688 3.363281 7.683594 3.199219 C 7.6875 3.019531 7.789062 2.921875 7.921875 2.8125 C 7.984375 2.761719 8.046875 2.707031 8.105469 2.636719 "/>
<path style=" stroke:none;fill-rule:nonzero;fill:rgb(0%,0%,0%);fill-opacity:1;" d="M 15.742188 2.308594 C 15.480469 2.398438 15.316406 2.207031 15.4375 1.96875 C 15.5 1.832031 15.5 1.699219 15.4375 1.5625 C 15.3125 1.3125 15.480469 1.132812 15.742188 1.222656 C 15.902344 1.277344 16.097656 1.277344 16.257812 1.222656 C 16.519531 1.132812 16.6875 1.3125 16.5625 1.5625 C 16.5 1.699219 16.5 1.832031 16.5625 1.96875 C 16.683594 2.207031 16.519531 2.398438 16.257812 2.308594 C 16.105469 2.257812 15.894531 2.257812 15.742188 2.308594 "/>
<path style=" stroke:none;fill-rule:nonzero;fill:rgb(0%,0%,0%);fill-opacity:1;" d="M 11.796875 2.75 C 11.550781 2.890625 11.355469 2.730469 11.425781 2.472656 C 11.464844 2.332031 11.441406 2.195312 11.351562 2.078125 C 11.183594 1.859375 11.308594 1.648438 11.589844 1.6875 C 11.757812 1.707031 11.949219 1.671875 12.09375 1.589844 C 12.34375 1.453125 12.539062 1.601562 12.464844 1.867188 C 12.421875 2.007812 12.449219 2.144531 12.542969 2.261719 C 12.707031 2.476562 12.582031 2.699219 12.300781 2.65625 C 12.144531 2.632812 11.933594 2.675781 11.796875 2.75 "/>
<path style=" stroke:none;fill-rule:nonzero;fill:rgb(87.843137%,12.156863%,14.901961%);fill-opacity:1;" d="M 11.597656 1.90625 C 11.484375 1.894531 11.570312 1.957031 11.597656 2.007812 C 11.683594 2.148438 11.710938 2.289062 11.683594 2.449219 C 11.671875 2.519531 11.625 2.585938 11.730469 2.539062 C 11.898438 2.464844 12.101562 2.429688 12.28125 2.4375 C 12.402344 2.441406 12.328125 2.394531 12.292969 2.335938 C 12.210938 2.195312 12.179688 2.050781 12.207031 1.890625 C 12.21875 1.832031 12.273438 1.75 12.171875 1.792969 C 12 1.875 11.78125 1.917969 11.597656 1.90625 "/>
<path style=" stroke:none;fill-rule:nonzero;fill:rgb(80%,12.54902%,15.294118%);fill-opacity:1;" d="M 8.089844 2.96875 C 7.957031 3.074219 7.898438 3.144531 7.953125 3.324219 C 8.03125 3.582031 8.207031 3.425781 8.417969 3.414062 C 8.492188 3.40625 8.53125 3.394531 8.46875 3.324219 C 8.347656 3.195312 8.289062 3.039062 8.273438 2.867188 L 8.273438 2.871094 L 8.273438 2.867188 C 8.269531 2.792969 8.242188 2.816406 8.199219 2.859375 C 8.167969 2.890625 8.128906 2.9375 8.089844 2.96875 "/>
<path style=" stroke:none;fill-rule:nonzero;fill:rgb(92.54902%,13.333333%,15.294118%);fill-opacity:1;" d="M 15.710938 1.441406 C 15.597656 1.410156 15.671875 1.484375 15.691406 1.542969 C 15.746094 1.695312 15.746094 1.835938 15.691406 1.988281 C 15.667969 2.054688 15.605469 2.117188 15.722656 2.085938 C 15.898438 2.046875 16.101562 2.046875 16.277344 2.085938 C 16.390625 2.117188 16.332031 2.054688 16.308594 1.988281 C 16.253906 1.835938 16.253906 1.695312 16.308594 1.542969 C 16.328125 1.484375 16.402344 1.410156 16.289062 1.441406 C 16.105469 1.484375 15.890625 1.484375 15.710938 1.441406 "/>
<path style=" stroke:none;fill-rule:nonzero;fill:rgb(94.901961%,76.862745%,9.019608%);fill-opacity:1;" d="M 16.554688 6.347656 C 16.9375 6.363281 17.320312 6.390625 17.703125 6.429688 L 17.246094 6.117188 L 17.757812 5.914062 C 17.359375 5.871094 16.960938 5.84375 16.558594 5.832031 C 16.582031 5.851562 16.601562 5.875 16.621094 5.902344 C 16.691406 6.023438 16.691406 6.167969 16.609375 6.285156 C 16.59375 6.308594 16.578125 6.328125 16.554688 6.347656 "/>
<path style=" stroke:none;fill-rule:nonzero;fill:rgb(94.901961%,76.862745%,9.019608%);fill-opacity:1;" d="M 14.238281 5.914062 L 14.753906 6.117188 L 14.292969 6.429688 C 14.679688 6.390625 15.066406 6.363281 15.457031 6.347656 C 15.425781 6.324219 15.402344 6.292969 15.378906 6.265625 C 15.304688 6.140625 15.308594 6 15.390625 5.878906 C 15.402344 5.863281 15.414062 5.847656 15.429688 5.832031 C 15.035156 5.847656 14.636719 5.871094 14.238281 5.914062 "/>
<path style=" stroke:none;fill-rule:nonzero;fill:rgb(0%,0%,0%);fill-opacity:1;" d="M 23.894531 2.636719 C 23.707031 2.390625 23.472656 2.527344 23.472656 2.808594 L 23.472656 2.859375 C 23.464844 2.972656 23.433594 3.074219 23.359375 3.164062 C 23.355469 3.171875 23.347656 3.1875 23.335938 3.195312 C 23.175781 3.375 23.207031 3.621094 23.507812 3.613281 C 23.695312 3.605469 23.894531 3.742188 24.078125 3.644531 C 24.234375 3.566406 24.320312 3.363281 24.3125 3.199219 C 24.308594 3.019531 24.210938 2.921875 24.078125 2.8125 C 24.015625 2.761719 23.949219 2.707031 23.894531 2.636719 "/>
<path style=" stroke:none;fill-rule:nonzero;fill:rgb(0%,0%,0%);fill-opacity:1;" d="M 20.203125 2.75 C 20.449219 2.890625 20.644531 2.730469 20.570312 2.472656 C 20.53125 2.332031 20.558594 2.195312 20.648438 2.078125 C 20.816406 1.859375 20.691406 1.648438 20.410156 1.6875 C 20.242188 1.707031 20.050781 1.671875 19.90625 1.589844 C 19.65625 1.453125 19.460938 1.601562 19.53125 1.867188 C 19.574219 2.007812 19.550781 2.144531 19.457031 2.261719 C 19.292969 2.476562 19.417969 2.699219 19.699219 2.65625 C 19.855469 2.632812 20.066406 2.675781 20.203125 2.75 "/>
<path style=" stroke:none;fill-rule:nonzero;fill:rgb(87.843137%,12.156863%,14.901961%);fill-opacity:1;" d="M 20.402344 1.90625 C 20.515625 1.894531 20.429688 1.957031 20.402344 2.007812 C 20.316406 2.148438 20.289062 2.289062 20.316406 2.449219 C 20.328125 2.519531 20.375 2.585938 20.269531 2.539062 C 20.101562 2.464844 19.894531 2.429688 19.71875 2.4375 C 19.597656 2.441406 19.667969 2.394531 19.707031 2.335938 C 19.789062 2.195312 19.820312 2.050781 19.792969 1.890625 C 19.78125 1.832031 19.726562 1.75 19.828125 1.792969 C 20 1.875 20.21875 1.917969 20.402344 1.90625 "/>
<path style=" stroke:none;fill-rule:nonzero;fill:rgb(80%,12.54902%,15.294118%);fill-opacity:1;" d="M 23.910156 2.96875 C 24.039062 3.074219 24.101562 3.144531 24.042969 3.324219 C 23.96875 3.582031 23.792969 3.425781 23.578125 3.414062 C 23.507812 3.40625 23.46875 3.394531 23.53125 3.324219 C 23.652344 3.195312 23.710938 3.039062 23.726562 2.867188 L 23.726562 2.871094 L 23.726562 2.867188 C 23.730469 2.792969 23.757812 2.816406 23.800781 2.859375 C 23.832031 2.890625 23.871094 2.9375 23.910156 2.96875 "/>
<path style=" stroke:none;fill-rule:nonzero;fill:url(#linear3);" d="M 16.167969 7.40625 L 16.167969 7.972656 C 16.167969 8.125 16.417969 8.125 16.417969 7.972656 L 16.417969 7.40625 C 16.417969 7.332031 16.355469 7.292969 16.292969 7.292969 C 16.230469 7.292969 16.167969 7.332031 16.167969 7.40625 M 15.582031 7.40625 L 15.582031 7.972656 C 15.582031 8.125 15.832031 8.125 15.832031 7.972656 L 15.832031 7.40625 C 15.832031 7.332031 15.769531 7.292969 15.707031 7.292969 C 15.644531 7.292969 15.582031 7.332031 15.582031 7.40625 M 16.757812 7.429688 L 16.757812 7.972656 C 16.757812 8.125 17.003906 8.125 17.003906 7.972656 L 17.003906 7.429688 C 17.003906 7.351562 16.941406 7.3125 16.878906 7.3125 C 16.820312 7.3125 16.757812 7.351562 16.757812 7.429688 M 14.996094 7.429688 L 14.996094 7.972656 C 14.996094 8.125 15.242188 8.125 15.242188 7.972656 L 15.242188 7.429688 C 15.242188 7.351562 15.179688 7.3125 15.121094 7.3125 C 15.058594 7.3125 14.996094 7.351562 14.996094 7.429688 M 17.339844 7.472656 L 17.339844 7.976562 C 17.339844 8.125 17.59375 8.125 17.59375 7.976562 L 17.59375 7.472656 C 17.59375 7.398438 17.53125 7.359375 17.46875 7.359375 C 17.40625 7.359375 17.339844 7.398438 17.339844 7.472656 M 14.40625 7.472656 L 14.40625 7.976562 C 14.40625 8.125 14.65625 8.125 14.65625 7.976562 L 14.65625 7.472656 C 14.65625 7.398438 14.59375 7.359375 14.53125 7.359375 C 14.46875 7.359375 14.40625 7.398438 14.40625 7.472656 M 17.929688 7.542969 L 17.929688 7.976562 C 17.929688 8.125 18.179688 8.125 18.179688 7.976562 L 18.179688 7.542969 C 18.179688 7.46875 18.117188 7.429688 18.054688 7.429688 C 17.992188 7.429688 17.929688 7.46875 17.929688 7.542969 M 13.820312 7.542969 L 13.820312 7.976562 C 13.820312 8.125 14.070312 8.125 14.070312 7.976562 L 14.070312 7.542969 C 14.070312 7.46875 14.007812 7.429688 13.945312 7.429688 C 13.882812 7.429688 13.820312 7.46875 13.820312 7.542969 M 18.519531 7.632812 L 18.519531 7.980469 C 18.519531 8.125 18.769531 8.125 18.769531 7.980469 L 18.769531 7.632812 C 18.769531 7.558594 18.707031 7.523438 18.644531 7.523438 C 18.582031 7.523438 18.519531 7.558594 18.519531 7.632812 M 13.230469 7.632812 L 13.230469 7.980469 C 13.230469 8.125 13.480469 8.125 13.480469 7.980469 L 13.480469 7.632812 C 13.480469 7.558594 13.417969 7.523438 13.355469 7.523438 C 13.292969 7.523438 13.230469 7.558594 13.230469 7.632812 M 19.105469 7.746094 L 19.105469 7.984375 C 19.105469 8.121094 19.359375 8.121094 19.359375 7.984375 L 19.359375 7.746094 C 19.359375 7.675781 19.292969 7.644531 19.230469 7.644531 C 19.167969 7.644531 19.105469 7.675781 19.105469 7.746094 M 12.640625 7.746094 L 12.640625 7.984375 C 12.640625 8.121094 12.894531 8.121094 12.894531 7.984375 L 12.894531 7.746094 C 12.894531 7.675781 12.832031 7.644531 12.765625 7.644531 C 12.703125 7.644531 12.640625 7.675781 12.640625 7.746094 M 19.695312 7.875 L 19.695312 7.992188 C 19.695312 8.121094 19.945312 8.121094 19.945312 7.992188 L 19.945312 7.875 C 19.945312 7.8125 19.882812 7.785156 19.820312 7.785156 C 19.757812 7.785156 19.695312 7.8125 19.695312 7.875 M 12.054688 7.875 L 12.054688 7.992188 C 12.054688 8.121094 12.304688 8.121094 12.304688 7.992188 L 12.304688 7.875 C 12.304688 7.8125 12.242188 7.785156 12.179688 7.785156 C 12.117188 7.785156 12.054688 7.8125 12.054688 7.875 M 20.28125 8.007812 C 20.277344 8.042969 20.320312 8.082031 20.410156 8.078125 C 20.496094 8.078125 20.535156 8.042969 20.535156 8.011719 C 20.535156 7.972656 20.496094 7.9375 20.410156 7.9375 C 20.324219 7.9375 20.28125 7.972656 20.28125 8.007812 M 11.460938 8.011719 C 11.460938 8.042969 11.503906 8.078125 11.589844 8.078125 C 11.679688 8.082031 11.722656 8.042969 11.71875 8.007812 C 11.71875 7.972656 11.675781 7.9375 11.589844 7.9375 C 11.503906 7.9375 11.460938 7.972656 11.460938 8.011719 "/>
<path style=" stroke:none;fill-rule:nonzero;fill:url(#linear4);" d="M 10.148438 7.671875 C 10.019531 7.722656 9.878906 7.785156 9.816406 7.921875 C 9.792969 7.972656 9.792969 8.027344 9.804688 8.078125 L 10.527344 8.078125 C 14.03125 6.742188 17.96875 6.742188 21.472656 8.078125 L 22.195312 8.078125 C 22.207031 8.027344 22.207031 7.972656 22.183594 7.921875 C 22.121094 7.785156 21.980469 7.722656 21.847656 7.671875 C 19.984375 6.929688 17.992188 6.554688 16 6.554688 C 14.007812 6.554688 12.015625 6.929688 10.148438 7.671875 "/>
<path style=" stroke:none;fill-rule:nonzero;fill:rgb(5.490196%,62.352941%,28.627451%);fill-opacity:1;" d="M 4.945312 11.953125 C 5.414062 11.726562 5.898438 11.375 6.1875 10.945312 C 6.332031 10.730469 6.480469 10.449219 6.453125 10.1875 C 6.421875 9.835938 6.085938 9.792969 5.8125 9.929688 C 5.644531 10.007812 5.472656 10.164062 5.324219 10.398438 C 5.039062 10.84375 4.972656 11.433594 4.945312 11.953125 "/>
<path style=" stroke:none;fill-rule:nonzero;fill:rgb(5.490196%,62.352941%,28.627451%);fill-opacity:1;" d="M 5.519531 29.421875 C 4.894531 29.082031 4.167969 28.855469 3.457031 29.019531 C 3.296875 29.050781 3.15625 29.128906 3.066406 29.21875 C 2.890625 29.402344 2.960938 29.644531 3.175781 29.761719 C 3.335938 29.847656 3.554688 29.867188 3.734375 29.855469 C 4.292969 29.824219 5.019531 29.699219 5.519531 29.421875 "/>
<path style=" stroke:none;fill-rule:nonzero;fill:rgb(5.490196%,62.352941%,28.627451%);fill-opacity:1;" d="M 5.964844 29.167969 C 6.601562 28.832031 7.09375 28.300781 7.386719 27.648438 C 7.453125 27.496094 7.476562 27.335938 7.449219 27.199219 C 7.394531 26.929688 7.132812 26.839844 6.894531 26.957031 C 6.71875 27.039062 6.570312 27.214844 6.476562 27.371094 C 6.160156 27.882812 6.003906 28.570312 5.964844 29.167969 "/>
<path style=" stroke:none;fill-rule:nonzero;fill:rgb(5.490196%,62.352941%,28.627451%);fill-opacity:1;" d="M 4.832031 27.40625 C 5.410156 26.949219 5.816406 26.375 5.992188 25.65625 C 6.035156 25.484375 6.03125 25.316406 5.984375 25.179688 C 5.890625 24.910156 5.621094 24.863281 5.398438 25.035156 C 5.242188 25.15625 5.121094 25.363281 5.050781 25.546875 C 4.832031 26.117188 4.777344 26.800781 4.832031 27.40625 "/>
<path style=" stroke:none;fill-rule:nonzero;fill:rgb(5.490196%,62.352941%,28.627451%);fill-opacity:1;" d="M 4.433594 27.621094 C 3.96875 27.054688 3.296875 26.484375 2.507812 26.523438 C 2.34375 26.53125 2.1875 26.578125 2.070312 26.648438 C 1.925781 26.742188 1.875 26.898438 1.949219 27.054688 C 2.03125 27.21875 2.246094 27.347656 2.519531 27.445312 C 3.058594 27.640625 3.867188 27.734375 4.433594 27.621094 "/>
<path style=" stroke:none;fill-rule:nonzero;fill:rgb(5.490196%,62.352941%,28.627451%);fill-opacity:1;" d="M 3.253906 24.488281 C 3.0625 24.121094 2.8125 23.757812 2.507812 23.472656 C 2.234375 23.21875 1.914062 23.03125 1.550781 22.972656 C 1.382812 22.941406 1.21875 22.949219 1.09375 23 C 0.925781 23.058594 0.847656 23.195312 0.890625 23.367188 C 0.9375 23.5625 1.148438 23.75 1.421875 23.917969 C 1.71875 24.089844 2.085938 24.238281 2.429688 24.339844 C 2.753906 24.429688 3.054688 24.484375 3.253906 24.488281 "/>
<path style=" stroke:none;fill-rule:nonzero;fill:rgb(5.490196%,62.352941%,28.627451%);fill-opacity:1;" d="M 3.734375 24.433594 C 3.964844 24.382812 4.3125 24.242188 4.660156 24.050781 C 4.945312 23.894531 5.222656 23.703125 5.429688 23.507812 C 5.609375 23.328125 5.859375 23.03125 5.710938 22.765625 C 5.582031 22.539062 5.21875 22.5625 5.015625 22.652344 C 4.664062 22.796875 4.390625 23.085938 4.175781 23.429688 C 3.988281 23.734375 3.84375 24.085938 3.734375 24.433594 "/>
<path style=" stroke:none;fill-rule:nonzero;fill:rgb(5.490196%,62.352941%,28.627451%);fill-opacity:1;" d="M 2.761719 21.390625 C 2.617188 21.011719 2.421875 20.632812 2.164062 20.328125 C 1.933594 20.054688 1.65625 19.84375 1.328125 19.75 C 1.179688 19.707031 1.027344 19.703125 0.910156 19.742188 C 0.738281 19.792969 0.664062 19.929688 0.695312 20.101562 C 0.730469 20.316406 0.933594 20.535156 1.210938 20.730469 C 1.503906 20.9375 1.867188 21.117188 2.191406 21.234375 C 2.417969 21.320312 2.617188 21.367188 2.761719 21.390625 "/>
<path style=" stroke:none;fill-rule:nonzero;fill:rgb(5.490196%,62.352941%,28.627451%);fill-opacity:1;" d="M 3.246094 21.402344 C 3.417969 21.378906 3.660156 21.304688 3.917969 21.199219 C 4.222656 21.074219 4.542969 20.902344 4.800781 20.703125 C 5.039062 20.515625 5.210938 20.308594 5.238281 20.113281 C 5.261719 19.929688 5.160156 19.785156 4.980469 19.726562 C 4.867188 19.691406 4.71875 19.691406 4.589844 19.742188 C 4.25 19.855469 3.972656 20.113281 3.746094 20.4375 C 3.542969 20.722656 3.382812 21.066406 3.246094 21.402344 "/>
<path style=" stroke:none;fill-rule:nonzero;fill:rgb(5.490196%,62.352941%,28.627451%);fill-opacity:1;" d="M 3.210938 18.578125 C 3.34375 18.546875 3.507812 18.488281 3.6875 18.414062 C 4.035156 18.265625 4.433594 18.042969 4.75 17.792969 C 5.050781 17.554688 5.265625 17.292969 5.285156 17.050781 C 5.292969 16.871094 5.1875 16.730469 5.003906 16.683594 C 4.882812 16.65625 4.742188 16.667969 4.605469 16.734375 C 3.964844 17.054688 3.539062 17.90625 3.210938 18.578125 "/>
<path style=" stroke:none;fill-rule:nonzero;fill:rgb(5.490196%,62.352941%,28.627451%);fill-opacity:1;" d="M 2.859375 18.605469 C 2.839844 18.234375 2.792969 17.835938 2.691406 17.464844 C 2.570312 17.050781 2.375 16.671875 2.050781 16.4375 C 1.925781 16.339844 1.777344 16.28125 1.644531 16.269531 C 1.453125 16.257812 1.359375 16.367188 1.332031 16.546875 C 1.296875 16.832031 1.488281 17.214844 1.757812 17.578125 C 2.039062 17.953125 2.398438 18.300781 2.6875 18.5 C 2.75 18.542969 2.804688 18.582031 2.859375 18.605469 "/>
<path style=" stroke:none;fill-rule:nonzero;fill:rgb(5.490196%,62.352941%,28.627451%);fill-opacity:1;" d="M 3.296875 15.246094 C 3.371094 14.871094 3.421875 14.457031 3.410156 14.066406 C 3.386719 13.621094 3.285156 13.207031 3.023438 12.882812 C 2.914062 12.75 2.582031 12.496094 2.398438 12.65625 C 2.34375 12.703125 2.304688 12.761719 2.28125 12.832031 C 2.175781 13.109375 2.273438 13.539062 2.449219 13.960938 C 2.640625 14.398438 2.914062 14.824219 3.152344 15.09375 C 3.203125 15.152344 3.253906 15.203125 3.296875 15.246094 "/>
<path style=" stroke:none;fill-rule:nonzero;fill:rgb(5.490196%,62.352941%,28.627451%);fill-opacity:1;" d="M 3.691406 15.390625 C 3.730469 15.394531 3.769531 15.390625 3.824219 15.390625 C 4.15625 15.371094 4.65625 15.257812 5.113281 15.070312 C 5.554688 14.886719 5.945312 14.640625 6.070312 14.351562 C 6.140625 14.203125 6.144531 14.058594 5.980469 13.976562 C 5.867188 13.917969 5.699219 13.894531 5.527344 13.898438 C 5.140625 13.90625 4.800781 14.070312 4.507812 14.316406 C 4.171875 14.597656 3.898438 14.988281 3.691406 15.390625 "/>
<path style=" stroke:none;fill-rule:nonzero;fill:rgb(5.490196%,62.352941%,28.627451%);fill-opacity:1;" d="M 27.054688 11.953125 C 26.585938 11.726562 26.101562 11.375 25.8125 10.945312 C 25.667969 10.730469 25.519531 10.449219 25.542969 10.1875 C 25.578125 9.835938 25.914062 9.792969 26.1875 9.929688 C 26.355469 10.007812 26.527344 10.164062 26.675781 10.398438 C 26.957031 10.84375 27.027344 11.433594 27.054688 11.953125 "/>
<path style=" stroke:none;fill-rule:nonzero;fill:rgb(5.490196%,62.352941%,28.627451%);fill-opacity:1;" d="M 26.480469 29.421875 C 27.105469 29.082031 27.832031 28.855469 28.542969 29.019531 C 28.703125 29.050781 28.84375 29.128906 28.933594 29.21875 C 29.109375 29.402344 29.039062 29.644531 28.824219 29.761719 C 28.664062 29.847656 28.445312 29.867188 28.265625 29.855469 C 27.707031 29.824219 26.980469 29.699219 26.480469 29.421875 "/>
<path style=" stroke:none;fill-rule:nonzero;fill:rgb(5.490196%,62.352941%,28.627451%);fill-opacity:1;" d="M 26.035156 29.167969 C 25.398438 28.832031 24.902344 28.300781 24.613281 27.648438 C 24.542969 27.496094 24.523438 27.335938 24.550781 27.199219 C 24.605469 26.929688 24.867188 26.839844 25.105469 26.957031 C 25.28125 27.039062 25.429688 27.214844 25.523438 27.371094 C 25.839844 27.882812 25.996094 28.570312 26.035156 29.167969 "/>
<path style=" stroke:none;fill-rule:nonzero;fill:rgb(5.490196%,62.352941%,28.627451%);fill-opacity:1;" d="M 27.167969 27.40625 C 26.589844 26.949219 26.179688 26.375 26.007812 25.65625 C 25.960938 25.484375 25.96875 25.316406 26.015625 25.179688 C 26.109375 24.910156 26.378906 24.863281 26.601562 25.035156 C 26.757812 25.15625 26.878906 25.363281 26.949219 25.546875 C 27.167969 26.117188 27.222656 26.800781 27.167969 27.40625 "/>
<path style=" stroke:none;fill-rule:nonzero;fill:rgb(5.490196%,62.352941%,28.627451%);fill-opacity:1;" d="M 27.566406 27.621094 C 28.03125 27.054688 28.703125 26.484375 29.492188 26.523438 C 29.65625 26.53125 29.8125 26.578125 29.929688 26.648438 C 30.074219 26.742188 30.125 26.898438 30.046875 27.054688 C 29.96875 27.21875 29.753906 27.347656 29.480469 27.445312 C 28.941406 27.640625 28.132812 27.734375 27.566406 27.621094 "/>
<path style=" stroke:none;fill-rule:nonzero;fill:rgb(5.490196%,62.352941%,28.627451%);fill-opacity:1;" d="M 28.746094 24.488281 C 28.9375 24.121094 29.183594 23.757812 29.492188 23.472656 C 29.765625 23.21875 30.085938 23.03125 30.449219 22.972656 C 30.617188 22.941406 30.777344 22.949219 30.90625 23 C 31.074219 23.058594 31.152344 23.195312 31.109375 23.367188 C 31.0625 23.5625 30.851562 23.75 30.578125 23.917969 C 30.285156 24.089844 29.914062 24.238281 29.570312 24.339844 C 29.246094 24.429688 28.945312 24.484375 28.746094 24.488281 "/>
<path style=" stroke:none;fill-rule:nonzero;fill:rgb(5.490196%,62.352941%,28.627451%);fill-opacity:1;" d="M 28.265625 24.433594 C 28.035156 24.382812 27.683594 24.242188 27.339844 24.050781 C 27.054688 23.894531 26.777344 23.703125 26.570312 23.507812 C 26.390625 23.328125 26.140625 23.03125 26.289062 22.765625 C 26.417969 22.539062 26.78125 22.5625 26.984375 22.652344 C 27.335938 22.796875 27.609375 23.085938 27.820312 23.429688 C 28.011719 23.734375 28.15625 24.085938 28.265625 24.433594 "/>
<path style=" stroke:none;fill-rule:nonzero;fill:rgb(5.490196%,62.352941%,28.627451%);fill-opacity:1;" d="M 29.234375 21.390625 C 29.382812 21.011719 29.578125 20.632812 29.835938 20.328125 C 30.066406 20.054688 30.34375 19.84375 30.671875 19.75 C 30.820312 19.707031 30.972656 19.703125 31.089844 19.742188 C 31.261719 19.792969 31.335938 19.929688 31.304688 20.101562 C 31.269531 20.316406 31.066406 20.535156 30.789062 20.730469 C 30.496094 20.9375 30.132812 21.117188 29.808594 21.234375 C 29.582031 21.320312 29.382812 21.367188 29.234375 21.390625 "/>
<path style=" stroke:none;fill-rule:nonzero;fill:rgb(5.490196%,62.352941%,28.627451%);fill-opacity:1;" d="M 28.753906 21.402344 C 28.582031 21.378906 28.339844 21.304688 28.082031 21.199219 C 27.773438 21.074219 27.453125 20.902344 27.199219 20.703125 C 26.957031 20.515625 26.789062 20.308594 26.761719 20.113281 C 26.738281 19.929688 26.839844 19.785156 27.019531 19.726562 C 27.132812 19.691406 27.277344 19.691406 27.410156 19.742188 C 27.75 19.855469 28.027344 20.113281 28.253906 20.4375 C 28.453125 20.722656 28.617188 21.066406 28.753906 21.402344 "/>
<path style=" stroke:none;fill-rule:nonzero;fill:rgb(5.490196%,62.352941%,28.627451%);fill-opacity:1;" d="M 28.789062 18.578125 C 28.65625 18.546875 28.492188 18.488281 28.3125 18.414062 C 27.960938 18.265625 27.566406 18.042969 27.25 17.792969 C 26.949219 17.554688 26.730469 17.292969 26.714844 17.050781 C 26.707031 16.871094 26.8125 16.730469 26.996094 16.683594 C 27.117188 16.65625 27.257812 16.667969 27.394531 16.734375 C 28.035156 17.054688 28.457031 17.90625 28.789062 18.578125 "/>
<path style=" stroke:none;fill-rule:nonzero;fill:rgb(5.490196%,62.352941%,28.627451%);fill-opacity:1;" d="M 29.140625 18.605469 C 29.160156 18.234375 29.207031 17.835938 29.308594 17.464844 C 29.429688 17.050781 29.625 16.671875 29.949219 16.4375 C 30.074219 16.339844 30.222656 16.28125 30.355469 16.269531 C 30.546875 16.257812 30.640625 16.367188 30.667969 16.546875 C 30.703125 16.832031 30.507812 17.214844 30.242188 17.578125 C 29.957031 17.953125 29.597656 18.300781 29.3125 18.5 C 29.25 18.542969 29.195312 18.582031 29.140625 18.605469 "/>
<path style=" stroke:none;fill-rule:nonzero;fill:rgb(5.490196%,62.352941%,28.627451%);fill-opacity:1;" d="M 28.703125 15.246094 C 28.628906 14.871094 28.578125 14.457031 28.589844 14.066406 C 28.613281 13.621094 28.714844 13.207031 28.976562 12.882812 C 29.085938 12.75 29.414062 12.496094 29.597656 12.65625 C 29.65625 12.703125 29.695312 12.761719 29.71875 12.832031 C 29.824219 13.109375 29.726562 13.539062 29.546875 13.960938 C 29.359375 14.398438 29.085938 14.824219 28.847656 15.09375 C 28.796875 15.152344 28.746094 15.203125 28.703125 15.246094 "/>
<path style=" stroke:none;fill-rule:nonzero;fill:rgb(5.490196%,62.352941%,28.627451%);fill-opacity:1;" d="M 28.308594 15.390625 C 28.269531 15.394531 28.226562 15.390625 28.175781 15.390625 C 27.84375 15.371094 27.34375 15.257812 26.886719 15.070312 C 26.445312 14.886719 26.054688 14.640625 25.929688 14.351562 C 25.859375 14.203125 25.855469 14.058594 26.019531 13.976562 C 26.132812 13.917969 26.300781 13.894531 26.472656 13.898438 C 26.859375 13.90625 27.199219 14.070312 27.492188 14.316406 C 27.828125 14.597656 28.101562 14.988281 28.308594 15.390625 "/>
<path style=" stroke:none;fill-rule:nonzero;fill:rgb(100%,100%,100%);fill-opacity:1;" d="M 18.835938 9.488281 L 21.386719 9.488281 L 21.386719 9.878906 L 19.226562 9.878906 C 19.183594 9.878906 19.148438 9.914062 19.148438 9.953125 L 19.148438 11.089844 C 19.148438 11.125 19.183594 11.160156 19.226562 11.160156 L 21.386719 11.160156 L 21.386719 11.546875 L 18.835938 11.546875 C 18.5625 11.546875 18.339844 11.328125 18.339844 11.058594 L 18.339844 9.980469 C 18.339844 9.714844 18.5625 9.488281 18.835938 9.488281 "/>
<path style=" stroke:none;fill-rule:nonzero;fill:rgb(100%,100%,100%);fill-opacity:1;" d="M 14.3125 9.488281 L 17.320312 9.488281 L 17.320312 9.855469 L 15.121094 9.855469 L 15.121094 10.320312 L 16.964844 10.320312 L 16.964844 10.617188 L 15.121094 10.617188 L 15.121094 11.546875 L 14.3125 11.546875 Z M 14.3125 9.488281 "/>
<path style=" stroke:none;fill-rule:nonzero;fill:rgb(100%,100%,100%);fill-opacity:1;" d="M 17.046875 11.546875 L 17.40625 11.546875 L 17.40625 11.195312 L 17.046875 11.195312 Z M 17.046875 11.546875 "/>
<path style=" stroke:none;fill-rule:nonzero;fill:rgb(100%,100%,100%);fill-opacity:1;" d="M 21.734375 11.546875 L 22.097656 11.546875 L 22.097656 11.195312 L 21.734375 11.195312 Z M 21.734375 11.546875 "/>
<path style=" stroke:none;fill-rule:nonzero;fill:rgb(100%,100%,100%);fill-opacity:1;" d="M 13.34375 11.546875 L 13.703125 11.546875 L 13.703125 11.195312 L 13.34375 11.195312 Z M 13.34375 11.546875 "/>
<path style=" stroke:none;fill-rule:nonzero;fill:rgb(100%,100%,100%);fill-opacity:1;" d="M 11.875 10.617188 L 10.714844 10.617188 L 10.714844 11.226562 L 11.882812 11.226562 C 12.058594 11.226562 12.148438 11.078125 12.136719 10.910156 C 12.128906 10.777344 12.027344 10.617188 11.875 10.617188 M 10.714844 9.8125 L 10.714844 10.320312 L 11.917969 10.320312 C 12.230469 10.320312 12.222656 9.84375 11.921875 9.8125 Z M 9.902344 9.488281 L 12.304688 9.488281 C 12.589844 9.488281 12.933594 9.628906 12.921875 9.957031 C 12.917969 10.21875 12.722656 10.371094 12.46875 10.378906 C 12.785156 10.4375 12.910156 10.597656 12.929688 10.902344 C 12.953125 11.308594 12.734375 11.539062 12.304688 11.546875 L 9.902344 11.546875 Z M 9.902344 9.488281 "/>
</g>
</svg>
