<?xml version="1.0" encoding="UTF-8"?>
<svg xmlns="http://www.w3.org/2000/svg" xmlns:xlink="http://www.w3.org/1999/xlink" width="32px" height="32px" viewBox="0 0 32 42" version="1.1">
<g id="surface1">
<path style=" stroke:none;fill-rule:evenodd;fill:rgb(0%,50.196078%,34.117647%);fill-opacity:1;" d="M 15.996094 42.042969 C 9.121094 39.777344 3.921875 35.457031 1.496094 29.566406 L 8.988281 29.566406 C 8.507812 28.902344 8.105469 28.191406 7.792969 27.433594 L 0.765625 27.433594 C 0.570312 26.742188 0.414062 26.035156 0.292969 25.308594 L 7.144531 25.308594 C 7.019531 24.625 6.941406 23.917969 6.933594 23.175781 L 0.0507812 23.175781 C 0.015625 22.695312 0 22.203125 0 21.707031 C 0 21.484375 0.0078125 21.261719 0.0078125 21.050781 L 7.019531 21.050781 C 7.058594 20.5625 7.128906 20.09375 7.210938 19.632812 C 7.253906 19.394531 7.304688 19.15625 7.355469 18.914062 L 0.09375 18.914062 C 0.3125 15.628906 0.960938 12.894531 2.128906 10.117188 C 6.015625 10.027344 7.296875 9.398438 8.871094 8.625 C 10.652344 7.753906 12.195312 6.8125 15.996094 6.8125 C 19.800781 6.8125 21.339844 7.753906 23.125 8.625 C 24.699219 9.398438 25.976562 10.027344 29.867188 10.117188 C 31.035156 12.894531 31.683594 15.628906 31.902344 18.914062 L 24.640625 18.914062 C 24.691406 19.15625 24.742188 19.394531 24.78125 19.632812 C 24.867188 20.09375 24.933594 20.5625 24.976562 21.050781 L 31.988281 21.050781 C 31.988281 21.261719 31.996094 21.484375 31.996094 21.707031 C 31.996094 22.203125 31.976562 22.695312 31.945312 23.175781 L 25.0625 23.175781 C 25.050781 23.917969 24.976562 24.625 24.851562 25.308594 L 31.699219 25.308594 C 31.582031 26.035156 31.421875 26.742188 31.230469 27.433594 L 24.203125 27.433594 C 23.890625 28.191406 23.488281 28.902344 23.007812 29.566406 L 30.496094 29.566406 C 28.074219 35.457031 22.871094 39.777344 15.996094 42.042969 Z M 15.996094 42.042969 "/>
<path style=" stroke:none;fill-rule:evenodd;fill:rgb(100%,100%,100%);fill-opacity:1;" d="M 31.230469 27.433594 C 31.019531 28.167969 30.773438 28.875 30.496094 29.566406 L 23.007812 29.566406 C 23.488281 28.902344 23.890625 28.191406 24.203125 27.433594 Z M 31.230469 27.433594 "/>
<path style=" stroke:none;fill-rule:evenodd;fill:rgb(100%,100%,100%);fill-opacity:1;" d="M 25.0625 23.175781 C 25.050781 23.917969 24.976562 24.625 24.851562 25.308594 L 31.699219 25.308594 C 31.816406 24.617188 31.894531 23.898438 31.945312 23.175781 Z M 25.0625 23.175781 "/>
<path style=" stroke:none;fill-rule:evenodd;fill:rgb(100%,100%,100%);fill-opacity:1;" d="M 24.640625 18.914062 C 24.691406 19.15625 24.742188 19.394531 24.78125 19.632812 C 24.867188 20.09375 24.933594 20.5625 24.976562 21.050781 L 31.988281 21.050781 C 31.976562 20.308594 31.953125 19.597656 31.902344 18.914062 Z M 24.640625 18.914062 "/>
<path style=" stroke:none;fill-rule:evenodd;fill:rgb(100%,100%,100%);fill-opacity:1;" d="M 7.019531 21.050781 C 7.058594 20.5625 7.128906 20.09375 7.210938 19.632812 C 7.253906 19.394531 7.304688 19.15625 7.355469 18.914062 L 0.09375 18.914062 C 0.0429688 19.597656 0.015625 20.308594 0.0078125 21.050781 Z M 7.019531 21.050781 "/>
<path style=" stroke:none;fill-rule:evenodd;fill:rgb(100%,100%,100%);fill-opacity:1;" d="M 7.144531 25.308594 C 7.019531 24.625 6.941406 23.917969 6.933594 23.175781 L 0.0507812 23.175781 C 0.101562 23.898438 0.175781 24.617188 0.292969 25.308594 Z M 7.144531 25.308594 "/>
<path style=" stroke:none;fill-rule:evenodd;fill:rgb(100%,100%,100%);fill-opacity:1;" d="M 8.988281 29.566406 C 8.507812 28.902344 8.105469 28.191406 7.792969 27.433594 L 0.765625 27.433594 C 0.976562 28.167969 1.21875 28.875 1.496094 29.566406 Z M 8.988281 29.566406 "/>
<path style=" stroke:none;fill-rule:evenodd;fill:rgb(100%,100%,100%);fill-opacity:1;" d="M 16.066406 33.867188 L 15.929688 33.867188 C 13.304688 32.996094 11.132812 31.570312 9.636719 29.675781 C 8.203125 27.855469 7.398438 25.597656 7.398438 23.003906 C 7.398438 21.78125 7.480469 20.710938 7.667969 19.714844 C 7.851562 18.71875 8.128906 17.785156 8.523438 16.847656 L 8.582031 16.714844 C 9.359375 16.691406 10.148438 16.660156 10.898438 16.460938 C 11.429688 16.320312 11.90625 16.082031 12.394531 15.84375 C 13.261719 15.40625 14.121094 14.976562 15.996094 14.976562 C 17.875 14.976562 18.734375 15.40625 19.597656 15.84375 C 20.085938 16.082031 20.566406 16.320312 21.097656 16.460938 C 21.847656 16.660156 22.636719 16.691406 23.410156 16.714844 L 23.46875 16.847656 C 23.867188 17.785156 24.144531 18.71875 24.328125 19.714844 C 24.515625 20.710938 24.597656 21.78125 24.597656 23.003906 C 24.597656 25.597656 23.789062 27.855469 22.359375 29.675781 C 20.863281 31.570312 18.691406 32.996094 16.066406 33.867188 Z M 16.066406 33.867188 "/>
<path style=" stroke:none;fill-rule:evenodd;fill:rgb(0%,50.196078%,34.117647%);fill-opacity:1;" d="M 15.996094 33.414062 C 18.496094 32.574219 20.566406 31.207031 21.988281 29.394531 C 23.359375 27.65625 24.136719 25.496094 24.136719 23 C 24.136719 21.808594 24.058594 20.761719 23.875 19.789062 C 23.707031 18.875 23.453125 18.027344 23.101562 17.160156 C 22.148438 17.128906 21.492188 17.039062 20.980469 16.898438 C 20.414062 16.75 19.910156 16.5 19.390625 16.246094 C 18.574219 15.835938 17.765625 15.429688 15.996094 15.429688 C 14.230469 15.429688 13.421875 15.835938 12.605469 16.246094 C 12.085938 16.5 11.578125 16.75 11.015625 16.898438 C 10.503906 17.039062 9.847656 17.128906 8.894531 17.160156 C 8.542969 18.027344 8.289062 18.875 8.121094 19.789062 C 7.9375 20.761719 7.859375 21.808594 7.859375 23 C 7.859375 25.496094 8.632812 27.65625 10.003906 29.394531 C 11.429688 31.207031 13.5 32.574219 15.996094 33.414062 Z M 15.996094 33.414062 "/>
<path style=" stroke:none;fill-rule:evenodd;fill:rgb(100%,100%,100%);fill-opacity:1;" d="M 6.210938 14.820312 C 6.445312 14.992188 6.554688 15.25 6.523438 15.59375 C 6.488281 15.941406 6.320312 16.320312 6.007812 16.742188 C 5.832031 16.980469 5.664062 17.175781 5.496094 17.324219 C 5.328125 17.480469 5.257812 17.539062 5.089844 17.65625 L 4.476562 17.285156 C 4.710938 17.152344 4.863281 17.0625 5.089844 16.890625 C 5.292969 16.742188 5.453125 16.574219 5.585938 16.394531 C 5.621094 16.351562 5.664062 16.289062 5.707031 16.214844 C 5.757812 16.132812 5.789062 16.066406 5.804688 16.007812 C 5.832031 15.941406 5.839844 15.875 5.839844 15.816406 C 5.839844 15.761719 5.816406 15.710938 5.757812 15.667969 C 5.699219 15.628906 5.636719 15.628906 5.554688 15.652344 C 5.476562 15.679688 5.394531 15.734375 5.292969 15.824219 C 5.191406 15.917969 5.082031 16.023438 4.972656 16.132812 C 4.863281 16.238281 4.761719 16.328125 4.652344 16.417969 C 4.402344 16.617188 4.183594 16.722656 3.996094 16.757812 C 3.804688 16.78125 3.617188 16.734375 3.457031 16.617188 C 3.230469 16.453125 3.140625 16.207031 3.171875 15.867188 C 3.214844 15.519531 3.375 15.160156 3.652344 14.78125 C 3.796875 14.589844 3.957031 14.410156 4.125 14.246094 C 4.265625 14.105469 4.402344 13.988281 4.535156 13.890625 L 4.992188 14.320312 C 4.660156 14.5 4.324219 14.796875 4.113281 15.078125 C 4.066406 15.132812 4.023438 15.199219 3.988281 15.265625 C 3.945312 15.332031 3.914062 15.398438 3.894531 15.472656 C 3.871094 15.539062 3.863281 15.59375 3.871094 15.652344 C 3.878906 15.710938 3.90625 15.761719 3.945312 15.792969 C 4.003906 15.835938 4.082031 15.84375 4.15625 15.808594 C 4.234375 15.769531 4.34375 15.6875 4.492188 15.539062 C 4.585938 15.449219 4.6875 15.355469 4.773438 15.273438 C 4.863281 15.183594 4.964844 15.101562 5.074219 15.011719 C 5.300781 14.828125 5.503906 14.722656 5.6875 14.6875 C 5.875 14.65625 6.042969 14.707031 6.210938 14.820312 Z M 6.210938 14.820312 "/>
<path style=" stroke:none;fill-rule:evenodd;fill:rgb(100%,100%,100%);fill-opacity:1;" d="M 7.851562 11.722656 C 7.707031 11.683594 7.566406 11.675781 7.398438 11.707031 C 7.261719 11.730469 7.121094 11.789062 6.976562 11.863281 C 6.832031 11.9375 6.671875 12.054688 6.496094 12.203125 L 5.308594 13.171875 L 7.21875 15.40625 L 7.910156 14.835938 L 7.289062 14.113281 L 7.765625 13.71875 C 7.976562 13.542969 8.128906 13.386719 8.222656 13.222656 C 8.324219 13.066406 8.390625 12.902344 8.425781 12.71875 C 8.457031 12.589844 8.449219 12.457031 8.40625 12.324219 C 8.375 12.191406 8.304688 12.078125 8.222656 11.980469 C 8.113281 11.847656 7.984375 11.765625 7.851562 11.722656 Z M 7.617188 12.777344 C 7.632812 12.835938 7.632812 12.902344 7.617188 12.976562 C 7.589844 13.058594 7.546875 13.132812 7.472656 13.214844 C 7.40625 13.289062 7.3125 13.378906 7.1875 13.476562 L 6.925781 13.691406 L 6.355469 13.023438 L 6.53125 12.875 C 6.648438 12.777344 6.75 12.703125 6.816406 12.644531 C 6.890625 12.589844 6.976562 12.546875 7.078125 12.507812 C 7.144531 12.480469 7.21875 12.472656 7.304688 12.480469 C 7.390625 12.488281 7.457031 12.53125 7.507812 12.589844 C 7.566406 12.65625 7.597656 12.71875 7.617188 12.777344 Z M 7.617188 12.777344 "/>
<path style=" stroke:none;fill-rule:evenodd;fill:rgb(100%,100%,100%);fill-opacity:1;" d="M 11.378906 10.117188 C 10.957031 9.992188 10.46875 10.050781 9.921875 10.273438 C 9.367188 10.503906 8.988281 10.808594 8.785156 11.1875 C 8.582031 11.574219 8.574219 11.980469 8.761719 12.40625 C 8.945312 12.835938 9.25 13.109375 9.667969 13.230469 C 10.089844 13.355469 10.578125 13.296875 11.132812 13.066406 C 11.6875 12.835938 12.066406 12.53125 12.269531 12.152344 C 12.472656 11.773438 12.480469 11.367188 12.292969 10.941406 C 12.109375 10.503906 11.804688 10.230469 11.378906 10.117188 Z M 11.242188 12.367188 C 11.148438 12.441406 11.03125 12.515625 10.914062 12.5625 C 10.796875 12.613281 10.664062 12.644531 10.542969 12.65625 C 10.425781 12.664062 10.308594 12.65625 10.199219 12.613281 C 10.089844 12.570312 9.988281 12.507812 9.894531 12.414062 C 9.796875 12.324219 9.710938 12.203125 9.644531 12.035156 C 9.578125 11.878906 9.542969 11.738281 9.542969 11.601562 C 9.542969 11.460938 9.558594 11.335938 9.609375 11.238281 C 9.667969 11.128906 9.738281 11.039062 9.820312 10.964844 C 9.914062 10.898438 10.03125 10.824219 10.140625 10.785156 C 10.257812 10.734375 10.382812 10.703125 10.503906 10.683594 C 10.621094 10.675781 10.738281 10.695312 10.847656 10.726562 C 10.957031 10.769531 11.058594 10.832031 11.160156 10.925781 C 11.257812 11.015625 11.335938 11.148438 11.410156 11.304688 C 11.46875 11.453125 11.511719 11.589844 11.511719 11.722656 C 11.519531 11.847656 11.496094 11.96875 11.445312 12.09375 C 11.402344 12.203125 11.328125 12.292969 11.242188 12.367188 Z M 11.242188 12.367188 "/>
<path style=" stroke:none;fill-rule:evenodd;fill:rgb(100%,100%,100%);fill-opacity:1;" d="M 15.382812 10.980469 C 15.609375 10.875 15.777344 10.742188 15.886719 10.59375 C 15.996094 10.453125 16.039062 10.273438 16.023438 10.058594 C 16.003906 9.902344 15.964844 9.777344 15.878906 9.679688 C 15.785156 9.582031 15.667969 9.507812 15.527344 9.457031 C 15.382812 9.398438 15.238281 9.375 15.082031 9.367188 C 14.921875 9.359375 14.734375 9.367188 14.523438 9.382812 L 12.96875 9.515625 L 13.230469 12.421875 L 14.105469 12.339844 L 14.011719 11.277344 L 14.472656 11.238281 C 14.902344 11.558594 15.230469 11.886719 15.417969 12.234375 L 16.445312 12.175781 C 16.175781 11.722656 15.90625 11.304688 15.382812 10.980469 Z M 15.039062 10.429688 C 15.011719 10.480469 14.972656 10.527344 14.910156 10.578125 C 14.84375 10.628906 14.761719 10.660156 14.660156 10.675781 C 14.566406 10.703125 14.441406 10.71875 14.289062 10.726562 L 13.96875 10.757812 L 13.894531 9.976562 L 14.273438 9.945312 C 14.382812 9.9375 14.484375 9.925781 14.566406 9.925781 C 14.652344 9.917969 14.726562 9.925781 14.792969 9.945312 C 14.886719 9.96875 14.953125 10 14.996094 10.050781 C 15.039062 10.101562 15.0625 10.15625 15.070312 10.230469 C 15.082031 10.316406 15.0625 10.378906 15.039062 10.429688 Z M 15.039062 10.429688 "/>
<path style=" stroke:none;fill-rule:evenodd;fill:rgb(100%,100%,100%);fill-opacity:1;" d="M 19.609375 9.554688 L 16.402344 9.226562 L 16.335938 9.828125 L 17.511719 9.953125 L 17.257812 12.242188 L 18.125 12.332031 L 18.371094 10.035156 L 19.539062 10.15625 Z M 19.609375 9.554688 "/>
<path style=" stroke:none;fill-rule:evenodd;fill:rgb(100%,100%,100%);fill-opacity:1;" d="M 21.230469 10.058594 L 20.390625 9.820312 L 19.566406 12.621094 L 20.414062 12.851562 Z M 21.230469 10.058594 "/>
<path style=" stroke:none;fill-rule:evenodd;fill:rgb(100%,100%,100%);fill-opacity:1;" d="M 25.667969 12.21875 L 24.925781 11.789062 L 23.933594 13.289062 L 23.160156 10.867188 L 22.367188 10.511719 L 21.148438 13.164062 L 21.90625 13.488281 L 22.644531 11.90625 L 23.394531 14.277344 L 24.042969 14.714844 Z M 25.667969 12.21875 "/>
<path style=" stroke:none;fill-rule:evenodd;fill:rgb(100%,100%,100%);fill-opacity:1;" d="M 27.695312 16.59375 L 26.910156 15.398438 L 26.472656 15.710938 L 26.761719 16.15625 L 26.332031 16.453125 C 26.070312 16.164062 25.667969 15.570312 25.683594 15.175781 C 25.691406 14.902344 25.835938 14.671875 26.09375 14.484375 C 26.222656 14.382812 26.355469 14.328125 26.492188 14.300781 C 26.625 14.277344 26.75 14.277344 26.878906 14.308594 C 27.15625 14.382812 27.417969 14.613281 27.585938 14.828125 C 27.667969 14.945312 27.738281 15.058594 27.796875 15.175781 C 27.914062 15.4375 27.996094 15.851562 28.046875 16.195312 L 28.613281 15.785156 C 28.527344 15.511719 28.433594 15.175781 28.335938 14.984375 C 28.226562 14.796875 28.105469 14.597656 27.957031 14.417969 C 27.578125 13.914062 27.164062 13.609375 26.726562 13.503906 C 26.289062 13.394531 25.886719 13.46875 25.515625 13.742188 C 25.128906 14.03125 24.925781 14.394531 24.917969 14.828125 C 24.917969 15.265625 25.09375 15.726562 25.472656 16.214844 C 25.632812 16.425781 25.816406 16.617188 26.019531 16.796875 C 26.222656 16.980469 26.515625 17.261719 26.660156 17.359375 Z M 27.695312 16.59375 "/>
<path style=" stroke:none;fill-rule:evenodd;fill:rgb(100%,100%,100%);fill-opacity:1;" d="M 7.699219 33.753906 C 7.625 33.835938 7.539062 33.894531 7.4375 33.933594 C 7.328125 33.976562 7.230469 33.992188 7.121094 33.984375 C 6.96875 33.976562 6.824219 33.941406 6.691406 33.875 C 6.546875 33.820312 6.402344 33.710938 6.242188 33.570312 L 5.867188 33.226562 L 5.335938 33.777344 L 4.820312 33.308594 L 6.445312 31.613281 L 7.363281 32.410156 C 7.496094 32.535156 7.597656 32.648438 7.675781 32.757812 C 7.808594 32.929688 7.910156 33.226562 7.867188 33.441406 C 7.851562 33.554688 7.792969 33.65625 7.699219 33.753906 Z M 7.136719 33.265625 C 7.1875 33.21875 7.210938 33.160156 7.210938 33.09375 C 7.210938 33.035156 7.195312 32.96875 7.160156 32.921875 C 7.128906 32.847656 7.078125 32.789062 7.027344 32.738281 C 6.976562 32.683594 6.902344 32.617188 6.808594 32.535156 L 6.65625 32.394531 L 6.167969 32.90625 L 6.386719 33.101562 C 6.480469 33.183594 6.5625 33.25 6.632812 33.300781 C 6.699219 33.347656 6.765625 33.375 6.832031 33.382812 C 6.890625 33.390625 6.949219 33.390625 7 33.367188 C 7.042969 33.347656 7.09375 33.316406 7.136719 33.265625 Z M 7.136719 33.265625 "/>
<path style=" stroke:none;fill-rule:evenodd;fill:rgb(100%,100%,100%);fill-opacity:1;" d="M 10.308594 35.542969 C 10.113281 35.863281 9.855469 36.050781 9.507812 36.109375 C 9.164062 36.167969 8.785156 36.085938 8.382812 35.855469 C 7.976562 35.625 7.707031 35.34375 7.589844 35.023438 C 7.472656 34.707031 7.507812 34.386719 7.699219 34.066406 C 7.886719 33.738281 8.15625 33.546875 8.5 33.488281 C 8.835938 33.433594 9.214844 33.523438 9.617188 33.746094 C 10.023438 33.976562 10.292969 34.253906 10.410156 34.570312 C 10.535156 34.890625 10.503906 35.210938 10.308594 35.542969 Z M 9.15625 35.566406 C 9.25 35.542969 9.339844 35.492188 9.425781 35.425781 C 9.5 35.359375 9.578125 35.277344 9.644531 35.160156 C 9.710938 35.039062 9.753906 34.921875 9.769531 34.824219 C 9.785156 34.71875 9.777344 34.617188 9.753906 34.535156 C 9.726562 34.453125 9.6875 34.371094 9.628906 34.304688 C 9.558594 34.238281 9.476562 34.171875 9.398438 34.132812 C 9.316406 34.082031 9.222656 34.050781 9.140625 34.035156 C 9.046875 34.007812 8.960938 34.007812 8.871094 34.035156 C 8.777344 34.050781 8.691406 34.089844 8.601562 34.164062 C 8.515625 34.230469 8.441406 34.320312 8.363281 34.445312 C 8.296875 34.558594 8.253906 34.675781 8.238281 34.773438 C 8.222656 34.882812 8.230469 34.980469 8.253906 35.0625 C 8.28125 35.144531 8.324219 35.226562 8.382812 35.292969 C 8.449219 35.359375 8.523438 35.425781 8.609375 35.464844 C 8.691406 35.515625 8.792969 35.558594 8.886719 35.574219 C 8.972656 35.589844 9.0625 35.589844 9.15625 35.566406 Z M 9.15625 35.566406 "/>
<path style=" stroke:none;fill-rule:evenodd;fill:rgb(100%,100%,100%);fill-opacity:1;" d="M 12.976562 37.425781 L 12.136719 37.164062 C 12.101562 36.808594 11.917969 36.464844 11.679688 36.117188 L 11.320312 36.003906 L 11.050781 36.816406 L 10.367188 36.605469 L 11.101562 34.386719 L 12.304688 34.765625 C 12.472656 34.816406 12.605469 34.875 12.714844 34.921875 C 12.832031 34.980469 12.933594 35.046875 13.019531 35.128906 C 13.109375 35.210938 13.171875 35.300781 13.203125 35.402344 C 13.238281 35.5 13.238281 35.605469 13.203125 35.722656 C 13.144531 35.886719 13.050781 36.011719 12.925781 36.078125 C 12.792969 36.152344 12.632812 36.191406 12.429688 36.207031 C 12.664062 36.53125 12.851562 36.933594 12.976562 37.425781 Z M 12.453125 35.566406 C 12.472656 35.507812 12.472656 35.457031 12.464844 35.410156 C 12.445312 35.359375 12.402344 35.308594 12.34375 35.269531 C 12.304688 35.234375 12.246094 35.210938 12.183594 35.1875 C 12.117188 35.160156 12.042969 35.136719 11.957031 35.105469 L 11.65625 35.011719 L 11.453125 35.605469 L 11.722656 35.6875 C 11.832031 35.730469 11.933594 35.753906 12.015625 35.773438 C 12.09375 35.789062 12.167969 35.789062 12.226562 35.773438 C 12.285156 35.753906 12.335938 35.730469 12.371094 35.707031 C 12.402344 35.671875 12.4375 35.632812 12.453125 35.566406 Z M 12.453125 35.566406 "/>
<path style=" stroke:none;fill-rule:evenodd;fill:rgb(100%,100%,100%);fill-opacity:1;" d="M 15.996094 35.261719 L 13.429688 35.046875 L 13.390625 35.523438 L 14.339844 35.605469 L 14.179688 37.445312 L 14.835938 37.5 L 14.996094 35.664062 L 15.957031 35.746094 Z M 15.996094 35.261719 "/>
<path style=" stroke:none;fill-rule:evenodd;fill:rgb(100%,100%,100%);fill-opacity:1;" d="M 18.949219 34.980469 L 18.21875 35.054688 L 18.34375 36.511719 C 18.363281 36.6875 18.328125 36.808594 18.246094 36.890625 C 18.167969 36.972656 18.007812 37.023438 17.824219 37.039062 C 17.628906 37.058594 17.460938 37.03125 17.367188 36.964844 C 17.277344 36.890625 17.226562 36.777344 17.210938 36.613281 L 17.082031 35.171875 L 16.359375 35.21875 L 16.484375 36.710938 C 16.511719 37 16.644531 37.203125 16.871094 37.335938 C 17.109375 37.476562 17.4375 37.527344 17.867188 37.484375 C 18.285156 37.453125 18.605469 37.34375 18.808594 37.171875 C 19.019531 37 19.101562 36.777344 19.078125 36.488281 Z M 18.949219 34.980469 "/>
<path style=" stroke:none;fill-rule:evenodd;fill:rgb(100%,100%,100%);fill-opacity:1;" d="M 22.351562 35.070312 L 21.308594 35.382812 L 21.433594 35.804688 L 21.835938 35.679688 L 21.972656 36.117188 C 21.660156 36.242188 21.191406 36.363281 20.871094 36.242188 C 20.660156 36.160156 20.523438 35.992188 20.441406 35.746094 C 20.40625 35.625 20.398438 35.515625 20.414062 35.410156 C 20.449219 35.1875 20.582031 35.023438 20.769531 34.898438 C 20.863281 34.839844 20.996094 34.78125 21.121094 34.742188 C 21.230469 34.707031 21.339844 34.691406 21.449219 34.683594 C 21.679688 34.675781 21.980469 34.707031 22.214844 34.75 L 22.046875 34.222656 C 21.820312 34.207031 21.617188 34.214844 21.441406 34.238281 C 21.273438 34.265625 21.089844 34.296875 20.910156 34.355469 C 20.425781 34.503906 20.078125 34.71875 19.867188 35.011719 C 19.667969 35.300781 19.617188 35.625 19.726562 35.96875 C 19.835938 36.332031 20.0625 36.578125 20.398438 36.703125 C 20.726562 36.824219 21.128906 36.816406 21.609375 36.679688 C 21.8125 36.621094 22.015625 36.539062 22.207031 36.4375 C 22.402344 36.339844 22.578125 36.242188 22.695312 36.167969 Z M 22.351562 35.070312 "/>
<path style=" stroke:none;fill-rule:evenodd;fill:rgb(100%,100%,100%);fill-opacity:1;" d="M 25.867188 34.496094 L 25.195312 34.882812 L 24.773438 34.570312 L 23.839844 35.105469 L 23.898438 35.605469 L 23.242188 35.976562 L 22.992188 33.429688 L 23.738281 33.011719 Z M 24.394531 34.289062 L 23.664062 33.746094 L 23.773438 34.644531 Z M 24.394531 34.289062 "/>
<path style=" stroke:none;fill-rule:evenodd;fill:rgb(100%,100%,100%);fill-opacity:1;" d="M 27.46875 32.351562 L 26.472656 33.257812 L 25.179688 31.898438 L 24.664062 32.367188 L 26.28125 34.074219 L 27.796875 32.699219 Z M 27.46875 32.351562 "/>
<path style=" stroke:none;fill-rule:evenodd;fill:rgb(0%,50.196078%,34.117647%);fill-opacity:1;" d="M 5.695312 6.507812 C 5.984375 6.507812 7.136719 6.542969 8.085938 6.285156 C 8.777344 6.097656 9.441406 5.691406 9.28125 5.3125 C 9.128906 4.976562 8.472656 4.96875 7.699219 5.140625 C 6.722656 5.363281 5.738281 5.289062 5.402344 5.140625 C 5.023438 4.976562 4.710938 4.679688 4.5625 4.285156 C 4.410156 3.871094 4.59375 3.289062 5.007812 2.84375 C 5.417969 2.398438 6.035156 2.035156 6.839844 1.746094 C 7.617188 1.464844 8.398438 1.328125 9.207031 1.242188 L 9.726562 2.339844 C 9.28125 2.332031 8.75 2.347656 8.1875 2.457031 C 7.617188 2.554688 7 2.742188 6.648438 3.066406 C 6.320312 3.371094 6.480469 3.789062 6.941406 3.742188 C 7.203125 3.714844 7.539062 3.683594 7.84375 3.648438 C 8.601562 3.582031 9.398438 3.46875 10.140625 3.683594 C 11.621094 4.109375 11.257812 5.511719 10.359375 6.3125 C 10.015625 6.617188 9.601562 6.855469 9.238281 7.019531 C 8.332031 7.429688 7.269531 7.585938 6.304688 7.660156 Z M 5.695312 6.507812 "/>
<path style=" stroke:none;fill-rule:evenodd;fill:rgb(0%,50.196078%,34.117647%);fill-opacity:1;" d="M 19.253906 0.511719 C 18.839844 0.347656 18.402344 0.214844 17.941406 0.132812 C 17.488281 0.0429688 17 0 16.503906 0 C 15.871094 0 15.265625 0.0742188 14.691406 0.214844 C 13.75 0.453125 12.730469 0.929688 12.183594 1.761719 C 11.957031 2.117188 11.847656 2.488281 11.847656 2.890625 C 11.847656 3.351562 12 3.789062 12.304688 4.175781 C 12.925781 4.976562 14.003906 5.4375 14.980469 5.644531 C 15.457031 5.742188 15.964844 5.773438 16.484375 5.773438 C 16.980469 5.773438 17.453125 5.734375 17.90625 5.652344 C 18.363281 5.570312 18.933594 5.355469 19.3125 5.199219 L 19.304688 3.855469 C 18.464844 4.285156 17.546875 4.539062 16.59375 4.539062 C 15.558594 4.539062 13.945312 4.183594 13.945312 2.875 C 13.945312 1.574219 15.550781 1.21875 16.59375 1.21875 C 17.476562 1.21875 18.511719 1.425781 19.253906 1.878906 Z M 19.253906 0.511719 "/>
<path style=" stroke:none;fill-rule:evenodd;fill:rgb(0%,50.196078%,34.117647%);fill-opacity:1;" d="M 22.367188 6.65625 L 23.023438 4.636719 L 24.53125 5.109375 C 25.027344 5.257812 25.828125 5.371094 26.507812 5.140625 C 27.476562 4.804688 27.769531 3.765625 27.179688 2.957031 C 26.9375 2.621094 26.566406 2.347656 26.214844 2.175781 C 25.835938 1.992188 25.09375 1.78125 24.421875 1.558594 L 22.285156 0.863281 L 20.601562 6.089844 Z M 25.675781 3.722656 C 25.539062 4.160156 24.683594 4.0625 24.355469 3.960938 L 23.351562 3.65625 L 23.730469 2.4375 L 24.867188 2.792969 C 25.253906 2.917969 25.828125 3.261719 25.675781 3.722656 Z M 25.675781 3.722656 "/>
<path style=" stroke:none;fill-rule:evenodd;fill:rgb(95.294118%,76.078431%,25.882353%);fill-opacity:1;" d="M 17.6875 17.167969 C 17.476562 17.324219 17.308594 17.457031 17.132812 17.507812 C 17.117188 17.507812 17.117188 17.53125 17.125 17.53125 C 17.257812 17.589844 17.4375 17.582031 17.621094 17.582031 C 17.796875 17.574219 17.992188 17.574219 18.160156 17.613281 C 18.277344 17.636719 18.363281 17.695312 18.429688 17.761719 C 18.488281 17.835938 18.53125 17.917969 18.539062 17.992188 C 18.328125 17.886719 18.125 17.835938 17.949219 17.84375 C 17.875 17.84375 17.796875 17.859375 17.738281 17.894531 C 17.671875 17.925781 17.621094 17.976562 17.585938 18.035156 C 17.546875 18.101562 17.527344 18.183594 17.527344 18.28125 C 17.539062 18.289062 17.546875 18.296875 17.554688 18.289062 C 17.636719 18.238281 17.722656 18.207031 17.808594 18.191406 C 17.882812 18.164062 17.957031 18.15625 18.035156 18.164062 C 18.210938 18.175781 18.363281 18.238281 18.480469 18.339844 C 18.597656 18.4375 18.671875 18.570312 18.671875 18.703125 C 18.683594 18.816406 18.691406 18.941406 18.714844 19.046875 C 18.730469 19.136719 18.765625 19.21875 18.808594 19.304688 C 18.691406 19.253906 18.613281 19.144531 18.539062 19.039062 C 18.429688 18.898438 18.320312 18.75 18.117188 18.71875 C 18.035156 18.703125 17.941406 18.71875 17.855469 18.757812 C 17.773438 18.800781 17.707031 18.875 17.65625 18.964844 C 17.648438 18.980469 17.65625 18.988281 17.671875 18.988281 C 17.832031 18.980469 17.976562 19.015625 18.09375 19.082031 C 18.226562 19.144531 18.335938 19.253906 18.421875 19.375 C 18.597656 19.648438 18.613281 19.886719 18.621094 20.09375 C 18.632812 20.257812 18.640625 20.398438 18.722656 20.53125 C 18.523438 20.457031 18.402344 20.242188 18.304688 20.042969 C 18.246094 19.929688 18.195312 19.828125 18.125 19.757812 C 18.09375 19.722656 18.058594 19.699219 18.015625 19.671875 C 17.949219 19.640625 17.882812 19.625 17.808594 19.632812 C 17.730469 19.648438 17.664062 19.683594 17.605469 19.738281 C 17.5625 19.773438 17.519531 19.820312 17.496094 19.878906 C 17.488281 19.886719 17.496094 19.902344 17.503906 19.902344 C 17.671875 19.902344 17.832031 19.96875 17.957031 20.09375 C 18.074219 20.199219 18.160156 20.367188 18.195312 20.5625 C 18.210938 20.71875 18.210938 20.902344 18.203125 21.082031 C 18.195312 21.445312 18.183594 21.816406 18.402344 22.046875 C 18.007812 21.980469 17.925781 21.632812 17.839844 21.296875 C 17.816406 21.195312 17.789062 21.105469 17.757812 21.015625 C 17.714844 20.882812 17.636719 20.777344 17.554688 20.695312 C 17.453125 20.605469 17.34375 20.554688 17.242188 20.539062 C 17.234375 20.539062 17.226562 20.554688 17.234375 20.570312 C 17.394531 20.734375 17.453125 20.933594 17.453125 21.148438 C 17.453125 21.363281 17.402344 21.601562 17.335938 21.855469 C 17.285156 22.046875 17.269531 22.234375 17.300781 22.398438 C 17.328125 22.558594 17.386719 22.6875 17.496094 22.796875 C 17.503906 22.804688 17.519531 22.796875 17.519531 22.789062 C 17.539062 22.648438 17.5625 22.53125 17.613281 22.441406 C 17.664062 22.359375 17.722656 22.285156 17.796875 22.21875 C 17.796875 22.269531 17.796875 22.316406 17.796875 22.375 C 17.804688 22.789062 17.816406 23.222656 17.855469 23.539062 C 17.882812 23.734375 18.015625 24.054688 18.175781 24.359375 C 18.371094 24.730469 18.597656 25.085938 18.722656 25.21875 C 18.933594 25.433594 19.160156 25.554688 19.386719 25.605469 C 19.582031 25.644531 19.777344 25.628906 19.933594 25.5625 C 20.105469 25.507812 20.238281 25.390625 20.332031 25.25 C 20.421875 25.117188 20.472656 24.953125 20.464844 24.773438 C 20.449219 24.519531 20.40625 24.320312 20.273438 24.015625 C 20.136719 23.71875 19.917969 23.316406 19.574219 22.65625 C 19.398438 22.328125 19.253906 21.980469 19.195312 21.632812 C 19.136719 21.28125 19.160156 20.925781 19.320312 20.570312 C 19.429688 20.308594 19.605469 20.101562 19.835938 19.960938 C 20.046875 19.839844 20.296875 19.773438 20.582031 19.804688 C 20.582031 19.804688 20.59375 19.796875 20.601562 19.796875 C 20.640625 19.699219 20.710938 19.632812 20.792969 19.582031 C 20.886719 19.535156 20.996094 19.507812 21.105469 19.5 C 21.257812 19.5 21.410156 19.523438 21.542969 19.574219 C 21.601562 19.589844 21.660156 19.625 21.710938 19.648438 C 21.8125 19.699219 21.914062 19.746094 22.039062 19.746094 C 22.183594 19.757812 22.324219 19.683594 22.460938 19.746094 C 22.367188 19.757812 22.292969 19.804688 22.214844 19.847656 C 22.125 19.894531 22.03125 19.945312 21.886719 19.953125 C 21.726562 19.960938 21.601562 19.921875 21.449219 19.863281 C 21.441406 19.855469 21.433594 19.863281 21.425781 19.871094 C 21.425781 19.878906 21.425781 19.886719 21.425781 19.886719 C 21.425781 20.109375 21.835938 20.144531 22.003906 20.109375 C 22.097656 20.085938 22.207031 20.070312 22.265625 20.085938 C 22.183594 20.085938 22.105469 20.136719 22.023438 20.175781 C 21.921875 20.226562 21.710938 20.273438 21.535156 20.273438 C 21.433594 20.273438 21.332031 20.25 21.28125 20.191406 C 21.273438 20.183594 21.25 20.183594 21.25 20.199219 C 21.25 20.21875 21.25 20.234375 21.257812 20.25 C 21.265625 20.339844 21.347656 20.398438 21.433594 20.421875 C 21.527344 20.449219 21.625 20.429688 21.703125 20.421875 C 21.820312 20.40625 21.914062 20.398438 22.046875 20.421875 C 21.914062 20.457031 21.804688 20.503906 21.6875 20.554688 C 21.425781 20.671875 21.164062 20.753906 20.878906 20.695312 C 20.691406 20.652344 20.542969 20.546875 20.492188 20.375 C 20.457031 20.265625 20.457031 20.144531 20.492188 20.027344 C 20.492188 20.019531 20.492188 20.011719 20.472656 20.011719 C 20.339844 19.988281 20.203125 20.003906 20.085938 20.050781 C 19.953125 20.109375 19.835938 20.199219 19.734375 20.308594 C 19.566406 20.496094 19.472656 20.71875 19.4375 20.957031 C 19.40625 21.222656 19.4375 21.511719 19.523438 21.78125 C 19.589844 22.011719 19.699219 22.242188 19.835938 22.472656 C 19.960938 22.714844 20.113281 22.9375 20.253906 23.167969 C 20.347656 23.304688 20.433594 23.445312 20.515625 23.585938 C 20.601562 23.71875 20.675781 23.851562 20.75 23.980469 C 20.84375 24.128906 20.886719 24.269531 20.910156 24.410156 C 20.9375 24.542969 20.9375 24.675781 20.9375 24.796875 C 20.929688 25.042969 20.863281 25.277344 20.734375 25.472656 C 20.609375 25.664062 20.433594 25.828125 20.1875 25.96875 C 20.171875 25.976562 20.171875 25.992188 20.1875 25.992188 C 20.261719 26.023438 20.347656 26.042969 20.433594 26.015625 C 20.507812 26 20.582031 25.960938 20.660156 25.902344 C 20.574219 26.082031 20.421875 26.207031 20.238281 26.28125 C 20.003906 26.371094 19.714844 26.378906 19.421875 26.320312 C 19.414062 26.320312 19.40625 26.332031 19.40625 26.347656 C 19.429688 26.46875 19.480469 26.585938 19.558594 26.675781 C 19.605469 26.734375 19.675781 26.78125 19.75 26.816406 C 19.824219 26.839844 19.917969 26.847656 20.011719 26.832031 C 20.128906 26.808594 20.273438 26.742188 20.414062 26.625 C 20.480469 27.078125 20.113281 27.277344 19.714844 27.484375 C 19.667969 27.507812 19.625 27.53125 19.582031 27.550781 C 19.445312 27.632812 19.3125 27.753906 19.238281 27.894531 C 19.167969 28.027344 19.136719 28.175781 19.179688 28.316406 C 19.179688 28.332031 19.195312 28.332031 19.203125 28.324219 C 19.289062 28.242188 19.40625 28.191406 19.53125 28.132812 C 19.734375 28.042969 19.960938 27.9375 20.113281 27.691406 C 20.179688 27.796875 20.203125 27.902344 20.1875 28.003906 C 20.171875 28.125 20.101562 28.242188 20.003906 28.324219 C 19.734375 28.5625 19.515625 28.621094 19.40625 28.660156 C 19.371094 28.671875 19.347656 28.671875 19.328125 28.679688 C 19.261719 28.710938 19.203125 28.753906 19.136719 28.800781 C 19.058594 28.859375 18.992188 28.925781 18.933594 28.984375 L 18.925781 28.992188 C 18.890625 29.058594 18.867188 29.125 18.859375 29.1875 C 18.851562 29.253906 18.867188 29.320312 18.898438 29.378906 C 18.910156 29.386719 18.917969 29.386719 18.925781 29.386719 C 18.976562 29.355469 19.058594 29.34375 19.144531 29.335938 C 19.210938 29.328125 19.277344 29.320312 19.335938 29.304688 C 19.296875 29.429688 19.21875 29.519531 19.136719 29.59375 C 19.035156 29.667969 18.917969 29.734375 18.789062 29.789062 C 18.722656 29.824219 18.640625 29.90625 18.582031 30.003906 C 18.511719 30.113281 18.460938 30.234375 18.429688 30.367188 C 18.386719 30.515625 18.421875 30.65625 18.453125 30.789062 C 18.480469 30.878906 18.503906 30.96875 18.511719 31.058594 C 18.511719 31.175781 18.4375 31.265625 18.328125 31.332031 C 18.191406 31.414062 18 31.460938 17.832031 31.472656 C 17.914062 31.304688 17.882812 31.191406 17.855469 31.074219 C 17.839844 31.019531 17.824219 30.960938 17.824219 30.894531 C 17.824219 30.886719 17.816406 30.878906 17.804688 30.878906 C 17.730469 30.878906 17.644531 30.976562 17.5625 31.074219 C 17.519531 31.125 17.476562 31.167969 17.4375 31.207031 C 17.300781 31.332031 17.117188 31.339844 16.949219 31.347656 C 16.878906 31.347656 16.8125 31.347656 16.753906 31.363281 C 16.753906 31.355469 16.753906 31.347656 16.761719 31.332031 C 16.804688 31.15625 16.839844 31.035156 16.898438 30.945312 C 16.921875 30.894531 16.972656 30.851562 17.023438 30.8125 C 17.074219 30.769531 17.132812 30.730469 17.167969 30.671875 C 17.175781 30.671875 17.175781 30.664062 17.167969 30.65625 C 17.097656 30.5 16.878906 30.539062 16.652344 30.582031 C 16.550781 30.597656 16.453125 30.613281 16.367188 30.613281 C 16.359375 30.53125 16.359375 30.457031 16.375 30.398438 C 16.382812 30.324219 16.410156 30.277344 16.441406 30.25 C 16.585938 30.09375 16.796875 30.128906 17.015625 30.160156 C 17.167969 30.179688 17.328125 30.203125 17.46875 30.160156 C 17.628906 30.039062 17.765625 29.90625 17.882812 29.757812 C 17.992188 29.601562 18.09375 29.445312 18.167969 29.261719 C 18.242188 29.050781 18.261719 28.859375 18.226562 28.71875 C 18.203125 28.621094 18.160156 28.546875 18.101562 28.496094 L 18.101562 28.503906 C 18.035156 28.449219 17.949219 28.421875 17.855469 28.429688 C 17.722656 28.4375 17.554688 28.496094 17.367188 28.613281 C 17.425781 28.144531 17.269531 27.96875 17.03125 27.707031 C 17.023438 27.699219 17.007812 27.679688 17 27.664062 C 16.929688 27.589844 16.820312 27.476562 16.738281 27.359375 C 16.644531 27.246094 16.570312 27.128906 16.570312 27.054688 C 16.570312 27.039062 16.570312 27.015625 16.570312 26.996094 C 16.5625 26.660156 16.5625 26.4375 16.6875 26.207031 C 16.738281 26.109375 16.796875 26.015625 16.855469 25.925781 C 16.914062 25.828125 16.972656 25.738281 17.015625 25.65625 C 17.082031 25.53125 17.109375 25.425781 17.023438 25.375 C 17.082031 25.257812 17.050781 25.167969 16.929688 25.09375 C 16.8125 25.011719 16.609375 24.953125 16.351562 24.898438 C 16.082031 24.847656 15.894531 24.804688 15.71875 24.757812 C 15.550781 24.707031 15.40625 24.640625 15.257812 24.558594 C 15.105469 24.46875 14.9375 24.335938 14.800781 24.195312 C 14.675781 24.082031 14.582031 23.957031 14.550781 23.859375 C 14.699219 23.800781 14.828125 23.726562 14.917969 23.628906 C 14.929688 23.621094 14.917969 23.601562 14.910156 23.601562 C 14.558594 23.621094 14.230469 23.421875 13.945312 23.257812 C 13.734375 23.140625 13.546875 23.035156 13.40625 23.035156 C 13.296875 23.035156 13.1875 23.050781 13.101562 23.085938 C 13.019531 23.117188 12.949219 23.167969 12.898438 23.242188 C 12.898438 23.25 12.910156 23.265625 12.917969 23.265625 C 13.179688 23.214844 13.320312 23.332031 13.472656 23.464844 C 13.589844 23.5625 13.714844 23.667969 13.925781 23.726562 C 13.699219 23.84375 13.523438 23.875 13.363281 23.859375 C 13.195312 23.832031 13.035156 23.742188 12.832031 23.636719 C 12.679688 23.554688 12.519531 23.472656 12.363281 23.445312 C 12.210938 23.414062 12.058594 23.4375 11.925781 23.554688 C 11.90625 23.5625 11.914062 23.578125 11.925781 23.578125 C 12.050781 23.621094 12.160156 23.675781 12.242188 23.742188 C 12.320312 23.808594 12.378906 23.882812 12.410156 23.972656 C 12.253906 23.925781 12.09375 23.875 11.941406 23.84375 C 11.78125 23.800781 11.628906 23.777344 11.484375 23.777344 C 11.316406 23.777344 11.15625 23.832031 10.988281 23.890625 C 10.921875 23.917969 10.847656 23.933594 10.78125 23.957031 C 10.410156 24.046875 10.300781 24.128906 10.183594 24.203125 C 10.15625 24.230469 10.125 24.253906 10.082031 24.277344 C 10.054688 24.285156 10.011719 24.304688 9.972656 24.3125 C 9.902344 24.335938 9.820312 24.351562 9.746094 24.417969 C 9.734375 24.394531 9.734375 24.359375 9.726562 24.335938 C 9.71875 24.203125 9.734375 24.074219 9.804688 23.972656 C 9.863281 23.875 9.980469 23.792969 10.148438 23.757812 C 10.183594 23.75 10.222656 23.75 10.257812 23.742188 C 10.273438 23.742188 10.28125 23.726562 10.265625 23.71875 C 10.074219 23.496094 9.964844 23.539062 9.761719 23.613281 C 9.71875 23.628906 9.660156 23.652344 9.601562 23.667969 C 9.574219 23.675781 9.550781 23.703125 9.535156 23.734375 C 9.515625 23.769531 9.5 23.800781 9.492188 23.832031 C 9.355469 23.539062 9.476562 23.390625 9.660156 23.316406 C 9.863281 23.242188 10.140625 23.242188 10.28125 23.242188 C 10.292969 23.242188 10.300781 23.234375 10.300781 23.214844 C 10.25 23.125 10.199219 23.066406 10.148438 23.035156 C 10.089844 23 10.023438 22.992188 9.929688 22.984375 C 9.914062 22.984375 9.894531 22.976562 9.878906 22.976562 C 9.835938 22.960938 9.777344 22.953125 9.71875 22.96875 C 9.726562 22.878906 9.753906 22.804688 9.792969 22.753906 C 9.835938 22.707031 9.894531 22.679688 9.980469 22.679688 C 10.183594 22.6875 10.351562 22.78125 10.527344 22.878906 C 10.71875 22.984375 10.921875 23.09375 11.191406 23.09375 C 11.402344 23.085938 11.585938 23.042969 11.765625 22.96875 C 11.941406 22.894531 12.109375 22.804688 12.277344 22.6875 C 12.351562 22.640625 12.410156 22.597656 12.480469 22.558594 C 12.722656 22.382812 12.957031 22.226562 13.175781 22.160156 C 13.238281 22.21875 13.328125 22.242188 13.445312 22.253906 C 13.566406 22.253906 13.714844 22.226562 13.894531 22.179688 C 13.933594 22.160156 13.976562 22.152344 14.019531 22.144531 C 14.222656 22.097656 14.414062 22.046875 14.515625 21.964844 C 14.632812 21.875 14.726562 21.78125 14.792969 21.675781 C 14.851562 21.578125 14.894531 21.46875 14.917969 21.335938 C 14.917969 21.328125 14.894531 21.320312 14.886719 21.328125 C 14.660156 21.578125 14.464844 21.617188 14.289062 21.652344 C 14.195312 21.667969 14.101562 21.691406 14.011719 21.742188 C 13.824219 21.863281 13.65625 21.957031 13.523438 22.003906 C 13.394531 22.054688 13.296875 22.070312 13.21875 22.054688 C 13.253906 21.871094 13.320312 21.699219 13.421875 21.566406 C 13.523438 21.421875 13.65625 21.3125 13.808594 21.246094 C 13.984375 21.164062 14.179688 21.097656 14.355469 21.039062 C 14.75 20.910156 15.089844 20.800781 15.136719 20.570312 C 15.136719 20.5625 15.128906 20.546875 15.121094 20.554688 C 14.792969 20.652344 14.601562 20.652344 14.398438 20.652344 C 14.304688 20.652344 14.203125 20.652344 14.09375 20.671875 C 14.113281 20.578125 14.179688 20.503906 14.296875 20.429688 C 14.414062 20.355469 14.589844 20.300781 14.777344 20.234375 C 14.84375 20.207031 14.917969 20.191406 14.996094 20.167969 C 15.222656 20.101562 15.492188 20.027344 15.625 19.886719 C 15.6875 19.839844 15.710938 19.773438 15.71875 19.714844 C 15.726562 19.683594 15.726562 19.648438 15.71875 19.617188 C 15.710938 19.589844 15.695312 19.558594 15.667969 19.542969 C 15.644531 19.515625 15.617188 19.5 15.574219 19.5 C 15.507812 19.492188 15.398438 19.515625 15.28125 19.574219 C 15.171875 19.632812 15.046875 19.714844 14.917969 19.8125 C 14.742188 19.714844 14.609375 19.609375 14.523438 19.492188 C 14.457031 19.386719 14.429688 19.277344 14.472656 19.179688 C 14.953125 19.246094 15.257812 19.253906 15.441406 19.203125 C 15.644531 19.144531 15.71875 19.039062 15.746094 18.867188 C 15.761719 18.757812 15.71875 18.660156 15.636719 18.5625 C 15.574219 18.503906 15.507812 18.453125 15.425781 18.414062 C 15.347656 18.371094 15.246094 18.339844 15.148438 18.324219 C 14.859375 18.273438 14.507812 18.347656 14.195312 18.617188 C 14.113281 18.585938 14.0625 18.535156 14.027344 18.488281 C 14.003906 18.445312 13.992188 18.398438 13.992188 18.347656 C 14.003906 18.296875 14.019531 18.25 14.054688 18.214844 C 14.09375 18.15625 14.152344 18.117188 14.230469 18.101562 C 14.246094 18.09375 14.246094 18.066406 14.230469 18.066406 C 14.195312 18.058594 14.171875 18.058594 14.144531 18.058594 C 14.042969 18.042969 13.976562 18.035156 13.933594 18.007812 C 13.910156 17.992188 13.910156 17.96875 13.933594 17.925781 L 14.011719 17.785156 C 14.363281 17.695312 14.601562 17.65625 14.785156 17.664062 C 14.960938 17.679688 15.078125 17.746094 15.1875 17.878906 C 15.199219 17.886719 15.207031 17.886719 15.214844 17.886719 C 15.308594 17.8125 15.433594 17.769531 15.550781 17.738281 C 15.710938 17.679688 15.855469 17.636719 15.914062 17.53125 C 15.921875 17.523438 15.914062 17.507812 15.902344 17.507812 C 15.710938 17.53125 15.542969 17.539062 15.390625 17.546875 C 15.238281 17.546875 15.121094 17.539062 15.019531 17.523438 C 14.929688 17.507812 14.859375 17.457031 14.828125 17.40625 C 14.808594 17.375 14.800781 17.351562 14.800781 17.316406 C 14.800781 17.292969 14.820312 17.257812 14.835938 17.234375 C 14.871094 17.1875 14.9375 17.144531 15.027344 17.136719 C 15.113281 17.121094 15.214844 17.128906 15.332031 17.136719 C 15.449219 17.152344 15.585938 17.175781 15.726562 17.203125 C 15.734375 17.203125 15.746094 17.203125 15.746094 17.203125 C 16.171875 16.898438 16.449219 16.972656 16.777344 17.0625 C 17.023438 17.128906 17.308594 17.203125 17.703125 17.152344 C 17.707031 17.152344 17.699219 17.160156 17.6875 17.167969 Z M 17.6875 17.167969 "/>
<path style=" stroke:none;fill-rule:evenodd;fill:rgb(95.294118%,76.078431%,25.882353%);fill-opacity:1;" d="M 9.820312 18.859375 C 9.878906 18.867188 9.914062 18.890625 9.945312 18.914062 C 9.964844 18.933594 9.980469 18.941406 9.988281 18.949219 C 10.066406 18.972656 10.140625 19.015625 10.199219 19.070312 C 10.25 19.121094 10.292969 19.1875 10.324219 19.261719 C 10.324219 19.277344 10.316406 19.285156 10.308594 19.285156 C 10.222656 19.292969 10.15625 19.253906 10.082031 19.203125 C 9.972656 19.136719 9.855469 19.0625 9.644531 19.136719 C 9.894531 19.664062 10.082031 19.699219 10.535156 19.773438 C 10.636719 19.796875 10.761719 19.8125 10.90625 19.847656 C 11.074219 19.878906 11.210938 19.9375 11.308594 20.019531 C 11.378906 20.070312 11.429688 20.125 11.453125 20.191406 C 11.476562 20.257812 11.488281 20.332031 11.46875 20.40625 C 11.453125 20.488281 11.410156 20.5625 11.34375 20.652344 C 11.476562 20.652344 11.636719 20.613281 11.78125 20.570312 C 11.984375 20.523438 12.160156 20.480469 12.269531 20.53125 C 12.277344 20.539062 12.277344 20.554688 12.269531 20.5625 C 12.160156 20.597656 12.101562 20.644531 12.015625 20.71875 C 11.90625 20.820312 11.757812 20.949219 11.402344 21.125 C 11.527344 21.179688 11.648438 21.199219 11.773438 21.191406 C 11.90625 21.179688 12.042969 21.132812 12.183594 21.058594 C 12.203125 21.050781 12.226562 21.03125 12.261719 21.015625 C 12.421875 20.917969 12.707031 20.734375 12.910156 20.882812 C 12.917969 20.894531 12.910156 20.917969 12.890625 20.917969 C 12.671875 20.910156 12.5625 21.039062 12.4375 21.199219 C 12.34375 21.320312 12.234375 21.453125 12.050781 21.558594 C 12.421875 21.609375 12.699219 21.550781 12.910156 21.429688 C 13.128906 21.296875 13.289062 21.097656 13.429688 20.882812 C 13.558594 20.6875 13.675781 20.589844 13.765625 20.503906 C 13.808594 20.472656 13.84375 20.441406 13.867188 20.414062 C 13.734375 20.382812 13.574219 20.382812 13.421875 20.375 C 13.269531 20.375 13.128906 20.367188 12.992188 20.347656 C 12.832031 20.316406 12.683594 20.285156 12.546875 20.234375 C 12.402344 20.183594 12.277344 20.117188 12.160156 20.042969 C 11.933594 19.894531 11.773438 19.746094 11.65625 19.609375 C 11.527344 19.46875 11.453125 19.328125 11.402344 19.203125 C 11.378906 19.15625 11.359375 19.105469 11.34375 19.0625 C 11.226562 18.773438 11.109375 18.496094 10.679688 18.542969 C 10.746094 18.652344 10.796875 18.75 10.839844 18.839844 C 10.890625 18.949219 10.914062 19.039062 10.921875 19.128906 C 10.921875 19.144531 10.898438 19.152344 10.890625 19.136719 C 10.78125 18.933594 10.628906 18.757812 10.476562 18.675781 C 10.402344 18.636719 10.324219 18.609375 10.257812 18.601562 C 10.183594 18.601562 10.105469 18.609375 10.039062 18.652344 C 9.964844 18.691406 9.886719 18.75 9.820312 18.859375 Z M 9.820312 18.859375 "/>
<path style=" stroke:none;fill-rule:evenodd;fill:rgb(95.294118%,76.078431%,25.882353%);fill-opacity:1;" d="M 11.410156 27.507812 C 11.445312 27.507812 11.488281 27.5 11.527344 27.5 C 11.5625 27.5 11.589844 27.492188 11.613281 27.492188 C 11.789062 27.460938 11.917969 27.449219 12 27.484375 C 12.085938 27.507812 12.136719 27.574219 12.144531 27.671875 C 12.144531 27.679688 12.136719 27.699219 12.125 27.699219 C 12.058594 27.699219 11.992188 27.691406 11.925781 27.691406 C 11.765625 27.679688 11.613281 27.679688 11.511719 27.730469 C 11.410156 27.773438 11.34375 27.839844 11.285156 27.902344 C 11.226562 27.988281 11.191406 28.078125 11.183594 28.152344 C 11.175781 28.183594 11.183594 28.226562 11.199219 28.273438 C 11.210938 28.324219 11.226562 28.375 11.242188 28.414062 C 11.351562 28.257812 11.480469 28.160156 11.613281 28.09375 C 11.765625 28.027344 11.925781 28.019531 12.09375 28.058594 C 12.109375 28.058594 12.109375 28.078125 12.09375 28.085938 C 11.992188 28.144531 11.839844 28.25 11.730469 28.390625 C 11.65625 28.488281 11.585938 28.597656 11.570312 28.703125 C 11.707031 28.679688 11.832031 28.703125 11.949219 28.71875 C 12.09375 28.746094 12.21875 28.769531 12.304688 28.695312 C 12.328125 28.671875 12.371094 28.621094 12.414062 28.5625 C 12.480469 28.480469 12.574219 28.375 12.65625 28.292969 C 12.699219 28.257812 12.742188 28.226562 12.773438 28.207031 C 12.816406 28.191406 12.859375 28.183594 12.890625 28.175781 C 13.261719 28.160156 13.558594 28.160156 13.765625 28.191406 C 13.960938 28.226562 14.105469 28.273438 14.179688 28.339844 C 14.179688 28.273438 14.15625 28.207031 14.105469 28.152344 C 14.035156 28.078125 13.925781 28.003906 13.777344 27.9375 C 13.765625 27.929688 13.765625 27.914062 13.777344 27.902344 C 14.0625 27.753906 14.363281 27.847656 14.667969 27.945312 C 15.023438 28.058594 15.367188 28.167969 15.695312 27.886719 C 15.570312 27.878906 15.46875 27.8125 15.367188 27.730469 C 15.222656 27.625 15.0625 27.5 14.792969 27.535156 C 14.785156 27.535156 14.777344 27.515625 14.777344 27.507812 C 14.828125 27.417969 14.902344 27.351562 14.996094 27.300781 C 15.105469 27.246094 15.230469 27.21875 15.339844 27.21875 C 15.492188 27.21875 15.628906 27.261719 15.753906 27.300781 C 15.914062 27.351562 16.054688 27.394531 16.226562 27.375 C 16.046875 27.097656 16.023438 26.816406 16.089844 26.535156 C 16.15625 26.265625 16.316406 25.992188 16.503906 25.722656 C 16.375 25.679688 16.234375 25.695312 16.082031 25.769531 C 15.929688 25.84375 15.753906 25.976562 15.570312 26.15625 C 15.558594 26.171875 15.542969 26.15625 15.542969 26.140625 C 15.609375 25.925781 15.703125 25.753906 15.820312 25.628906 C 15.914062 25.515625 16.023438 25.441406 16.15625 25.382812 C 15.988281 25.375 15.804688 25.382812 15.609375 25.433594 C 15.382812 25.480469 15.148438 25.582031 14.902344 25.730469 C 14.886719 25.730469 14.878906 25.722656 14.878906 25.710938 C 14.894531 25.574219 14.972656 25.464844 15.082031 25.382812 C 15.191406 25.308594 15.324219 25.242188 15.449219 25.183594 C 15.542969 25.152344 15.609375 25.101562 15.667969 25.054688 C 15.71875 25.019531 15.761719 24.996094 15.804688 24.972656 C 15.6875 24.960938 15.542969 24.988281 15.382812 25.011719 C 15.265625 25.027344 15.140625 25.054688 14.996094 25.0625 C 14.921875 25.070312 14.84375 25.070312 14.769531 25.078125 C 14.644531 25.078125 14.507812 25.085938 14.382812 25.101562 C 14.1875 25.144531 14.019531 25.234375 13.902344 25.367188 C 13.800781 25.480469 13.75 25.636719 13.765625 25.835938 C 13.785156 26.027344 13.878906 26.164062 13.960938 26.304688 C 14.070312 26.46875 14.179688 26.636719 14.164062 26.898438 C 14.144531 27.144531 14.003906 27.292969 13.808594 27.375 C 13.625 27.460938 13.390625 27.476562 13.1875 27.476562 C 13.070312 27.476562 12.953125 27.46875 12.851562 27.460938 C 12.75 27.441406 12.65625 27.417969 12.589844 27.394531 C 12.515625 27.359375 12.445312 27.328125 12.378906 27.285156 C 12.269531 27.226562 12.160156 27.164062 12.007812 27.144531 C 11.875 27.136719 11.730469 27.164062 11.621094 27.238281 C 11.527344 27.300781 11.453125 27.394531 11.410156 27.507812 Z M 11.410156 27.507812 "/>
<path style=" stroke:none;fill-rule:evenodd;fill:rgb(95.294118%,76.078431%,25.882353%);fill-opacity:1;" d="M 12.765625 18.765625 C 12.808594 18.890625 12.890625 18.988281 13.011719 19.054688 C 13.152344 19.144531 13.339844 19.195312 13.515625 19.195312 C 13.691406 19.1875 13.886719 19.113281 14.105469 19.023438 C 14.414062 18.890625 14.761719 18.742188 15.191406 18.757812 C 14.691406 18.644531 14.289062 18.75 13.953125 18.839844 C 13.785156 18.890625 13.632812 18.933594 13.5 18.933594 C 13.3125 18.941406 13.160156 18.921875 13.042969 18.890625 C 12.925781 18.859375 12.839844 18.816406 12.765625 18.765625 Z M 12.765625 18.765625 "/>
<path style=" stroke:none;fill-rule:evenodd;fill:rgb(0%,50.196078%,34.117647%);fill-opacity:1;" d="M 17.226562 25.925781 C 17.234375 25.917969 17.25 25.925781 17.25 25.941406 C 17.21875 26.058594 17.191406 26.171875 17.175781 26.296875 C 17.160156 26.414062 17.160156 26.535156 17.160156 26.660156 C 17.167969 26.898438 17.242188 27.054688 17.320312 27.210938 C 17.410156 27.402344 17.496094 27.582031 17.4375 27.886719 C 17.4375 27.894531 17.410156 27.902344 17.402344 27.886719 C 17.308594 27.664062 17.210938 27.515625 17.125 27.386719 C 17.015625 27.210938 16.921875 27.078125 16.890625 26.859375 C 16.871094 26.742188 16.898438 26.550781 16.964844 26.363281 C 17.023438 26.199219 17.117188 26.042969 17.226562 25.925781 Z M 17.226562 25.925781 "/>
<path style=" stroke:none;fill-rule:evenodd;fill:rgb(0%,50.196078%,34.117647%);fill-opacity:1;" d="M 15.660156 24.410156 C 15.746094 24.507812 15.878906 24.582031 16.015625 24.632812 C 16.164062 24.691406 16.34375 24.714844 16.503906 24.707031 C 16.871094 24.691406 17.058594 24.550781 17.234375 24.417969 C 17.269531 24.394531 17.300781 24.371094 17.335938 24.351562 C 17.34375 24.34375 17.335938 24.320312 17.320312 24.320312 C 17.023438 24.394531 16.738281 24.433594 16.453125 24.445312 C 16.175781 24.453125 15.921875 24.433594 15.675781 24.386719 C 15.660156 24.386719 15.644531 24.402344 15.660156 24.410156 Z M 15.660156 24.410156 "/>
<path style=" stroke:none;fill-rule:evenodd;fill:rgb(0%,50.196078%,34.117647%);fill-opacity:1;" d="M 14.945312 23.980469 C 15.046875 24.074219 15.179688 24.140625 15.332031 24.1875 C 15.484375 24.238281 15.644531 24.261719 15.8125 24.261719 C 15.996094 24.253906 16.183594 24.203125 16.34375 24.128906 C 16.503906 24.046875 16.636719 23.933594 16.710938 23.808594 C 16.722656 23.792969 16.703125 23.777344 16.6875 23.785156 C 16.5625 23.867188 16.394531 23.933594 16.222656 23.972656 C 16.046875 24.023438 15.871094 24.054688 15.695312 24.066406 C 15.570312 24.074219 15.441406 24.066406 15.316406 24.046875 C 15.199219 24.03125 15.082031 24 14.972656 23.949219 C 14.953125 23.949219 14.9375 23.964844 14.945312 23.980469 Z M 14.945312 23.980469 "/>
<path style=" stroke:none;fill-rule:evenodd;fill:rgb(0%,50.196078%,34.117647%);fill-opacity:1;" d="M 14.246094 22.992188 C 14.363281 22.992188 14.472656 23.074219 14.59375 23.167969 C 14.800781 23.316406 15.039062 23.496094 15.441406 23.355469 C 15.449219 23.347656 15.449219 23.332031 15.441406 23.324219 C 15.324219 23.28125 15.214844 23.207031 15.105469 23.140625 C 14.863281 22.976562 14.609375 22.804688 14.238281 22.960938 C 14.230469 22.96875 14.230469 22.992188 14.246094 22.992188 Z M 14.246094 22.992188 "/>
<path style=" stroke:none;fill-rule:evenodd;fill:rgb(0%,50.196078%,34.117647%);fill-opacity:1;" d="M 15.492188 22.894531 C 15.703125 22.722656 15.894531 22.695312 16.074219 22.671875 C 16.207031 22.65625 16.324219 22.648438 16.453125 22.582031 C 16.703125 22.449219 16.871094 22.285156 16.941406 22.070312 C 17 21.863281 16.957031 21.601562 16.773438 21.289062 C 16.761719 21.273438 16.738281 21.289062 16.738281 21.304688 C 16.789062 21.460938 16.78125 21.617188 16.730469 21.757812 C 16.671875 21.90625 16.5625 22.046875 16.417969 22.136719 C 16.308594 22.210938 16.191406 22.269531 16.074219 22.335938 C 15.796875 22.484375 15.527344 22.613281 15.457031 22.878906 C 15.457031 22.894531 15.476562 22.902344 15.492188 22.894531 Z M 15.492188 22.894531 "/>
<path style=" stroke:none;fill-rule:evenodd;fill:rgb(0%,50.196078%,34.117647%);fill-opacity:1;" d="M 14.265625 22.621094 C 14.484375 22.515625 14.667969 22.5 14.851562 22.476562 C 15.019531 22.457031 15.199219 22.433594 15.398438 22.351562 C 15.601562 22.261719 15.785156 22.113281 15.878906 21.90625 C 15.957031 21.734375 15.964844 21.519531 15.863281 21.261719 C 15.863281 21.253906 15.835938 21.253906 15.835938 21.261719 C 15.644531 21.71875 15.382812 21.832031 15.039062 21.972656 C 14.945312 22.003906 14.851562 22.046875 14.753906 22.097656 C 14.59375 22.167969 14.433594 22.269531 14.332031 22.367188 C 14.246094 22.449219 14.203125 22.53125 14.238281 22.613281 C 14.238281 22.621094 14.253906 22.632812 14.265625 22.621094 Z M 14.265625 22.621094 "/>
</g>
</svg>
