<?xml version="1.0" encoding="UTF-8"?>
<svg xmlns="http://www.w3.org/2000/svg" xmlns:xlink="http://www.w3.org/1999/xlink" width="32px" height="32px" viewBox="0 0 32 35" version="1.1">
<g id="surface1">
<path style=" stroke:none;fill-rule:nonzero;fill:rgb(100%,100%,100%);fill-opacity:1;" d="M 15.378906 0.0859375 C 15.972656 -0.078125 16.652344 -0.015625 17.164062 0.351562 C 17.46875 0.570312 17.738281 0.835938 18.039062 1.058594 C 21.222656 3.585938 25.5 4.625 29.476562 3.886719 C 30.339844 3.714844 31.269531 4.175781 31.679688 4.960938 C 31.96875 5.460938 31.945312 6.058594 31.941406 6.617188 C 31.988281 9.628906 31.574219 12.640625 30.847656 15.558594 C 29.804688 19.675781 28.027344 23.621094 25.496094 27.019531 C 23.234375 30.082031 20.367188 32.671875 17.152344 34.667969 C 16.402344 35.164062 15.378906 35.085938 14.667969 34.550781 C 12.476562 33.164062 10.449219 31.511719 8.671875 29.609375 C 6.097656 26.863281 4.0625 23.613281 2.644531 20.113281 C 1.109375 16.304688 0.230469 12.222656 0.078125 8.117188 C -0.0429688 7.496094 0.0117188 6.859375 0.0117188 6.230469 C 0.0898438 5.871094 0.078125 5.488281 0.234375 5.144531 C 0.507812 4.472656 1.152344 3.96875 1.867188 3.875 C 2.300781 3.796875 2.734375 3.9375 3.164062 3.988281 C 6.972656 4.507812 10.976562 3.4375 14 1.03125 C 14.445312 0.695312 14.828125 0.242188 15.378906 0.0859375 Z M 15.378906 0.0859375 "/>
<path style=" stroke:none;fill-rule:evenodd;fill:rgb(83.921569%,22.352941%,20.784314%);fill-opacity:1;" d="M 26.738281 21.832031 C 30.792969 14.242188 30.386719 5.777344 30.386719 5.777344 C 30.386719 5.777344 27.15625 6.605469 22.765625 5.46875 C 18.40625 4.339844 15.9375 1.828125 15.9375 1.828125 C 15.9375 1.828125 13.46875 4.339844 9.105469 5.46875 C 4.714844 6.605469 1.484375 5.777344 1.484375 5.777344 C 1.484375 5.777344 1.078125 14.242188 5.132812 21.832031 C 9.492188 29.996094 15.9375 33.3125 15.9375 33.3125 C 15.9375 33.3125 22.378906 29.996094 26.738281 21.832031 Z M 26.738281 21.832031 "/>
<path style=" stroke:none;fill-rule:nonzero;fill:rgb(100%,100%,100%);fill-opacity:1;" d="M 9.269531 6.082031 C 12.714844 5.191406 15.011719 3.480469 15.9375 2.691406 C 16.863281 3.480469 19.15625 5.191406 22.601562 6.082031 C 25.867188 6.929688 28.5 6.730469 29.753906 6.542969 C 29.742188 8.734375 29.414062 15.464844 26.171875 21.535156 C 23.976562 25.648438 21.234375 28.476562 19.316406 30.125 C 17.761719 31.460938 16.488281 32.261719 15.9375 32.582031 C 15.382812 32.261719 14.109375 31.460938 12.554688 30.125 C 10.640625 28.476562 7.894531 25.648438 5.699219 21.535156 C 2.457031 15.464844 2.128906 8.734375 2.117188 6.542969 C 3.371094 6.730469 6.003906 6.929688 9.269531 6.082031 Z M 9.269531 6.082031 "/>
<path style=" stroke:none;fill-rule:nonzero;fill:rgb(13.72549%,12.156863%,12.54902%);fill-opacity:1;" d="M 23.394531 18.246094 C 23.628906 18.960938 23.757812 19.722656 23.757812 20.511719 C 23.757812 24.65625 20.25 28.03125 15.9375 28.03125 C 11.625 28.03125 8.117188 24.65625 8.117188 20.511719 C 8.117188 19.722656 8.242188 18.960938 8.476562 18.246094 L 8.460938 18.257812 C 7.773438 18.734375 7.378906 19.089844 7.378906 19.089844 C 7.378906 19.089844 7.492188 18.144531 8.242188 17.125 C 8.242188 17.125 7.523438 16.953125 6.445312 17.085938 C 6.445312 17.085938 7.042969 16.324219 9.707031 15.191406 C 10.125 15.011719 10.519531 14.867188 10.890625 14.753906 L 10.929688 14.742188 C 12.050781 13.839844 13.4375 13.234375 14.960938 13.050781 L 14.980469 13.054688 C 15.007812 12.941406 15.003906 12.800781 15.003906 12.800781 C 14.867188 12.6875 14.738281 12.503906 14.738281 12.503906 C 14.738281 12.503906 14.15625 13.003906 13.953125 13.082031 C 13.746094 13.15625 13.65625 13.050781 13.65625 12.851562 C 13.65625 12.65625 13.632812 12.566406 13.632812 12.566406 C 13.632812 12.566406 13.105469 12.703125 12.960938 12.6875 C 12.816406 12.671875 12.808594 12.390625 12.808594 12.390625 C 12.808594 12.390625 12.617188 12.511719 12.246094 12.597656 C 11.871094 12.679688 11.839844 12.558594 11.847656 12.414062 C 11.855469 12.25 11.800781 12.171875 11.800781 12.171875 C 11.800781 12.171875 11.277344 12.339844 11.015625 12.332031 C 10.757812 12.324219 10.574219 12.058594 10.574219 12.058594 C 10.574219 12.058594 10.300781 12.082031 9.691406 12.089844 C 9.082031 12.097656 9.074219 11.945312 8.945312 11.824219 C 8.816406 11.703125 8.320312 11.449219 8.160156 11.417969 C 8 11.386719 7.726562 11.457031 7.527344 11.28125 C 7.328125 11.105469 7.34375 10.910156 7.34375 10.910156 C 7.34375 10.910156 7.136719 10.964844 6.792969 10.738281 C 6.453125 10.511719 5.902344 10.085938 5.613281 9.617188 C 5.429688 9.320312 5.621094 9.234375 5.84375 9.324219 C 6.0625 9.414062 6.511719 9.617188 7.808594 9.664062 C 8.824219 9.699219 10.347656 9.535156 11.277344 9.421875 C 12.207031 9.308594 13.03125 9.324219 13.433594 9.679688 C 13.773438 9.976562 13.777344 10.359375 14.066406 10.753906 C 14.285156 11.046875 14.410156 11.183594 14.53125 11.121094 C 14.640625 11.066406 14.570312 10.722656 14.308594 10.40625 C 14.050781 10.085938 13.792969 9.875 13.792969 9.875 C 13.792969 9.875 13.792969 9.710938 13.988281 9.640625 C 14.1875 9.574219 14.273438 9.632812 14.378906 9.6875 C 14.378906 9.6875 14.410156 9.601562 14.644531 9.601562 C 14.882812 9.601562 15.078125 9.777344 15.398438 10.042969 C 15.742188 10.320312 15.828125 10.496094 15.828125 10.496094 C 15.828125 10.496094 15.652344 10.539062 15.683594 10.644531 C 15.703125 10.726562 15.972656 10.933594 16.191406 11.070312 C 16.414062 11.207031 16.855469 11.265625 17.09375 11.03125 C 17.449219 10.675781 17.238281 10.464844 17.457031 10.117188 C 17.679688 9.769531 18.152344 9.359375 19.121094 9.324219 C 20.117188 9.285156 21.542969 9.558594 23.328125 9.488281 C 25.066406 9.421875 25.800781 9.167969 26.023438 9.070312 C 26.078125 9.042969 26.089844 9.074219 26.058594 9.148438 C 25.917969 9.507812 25.390625 10.578125 24.042969 11 C 24.042969 11 23.890625 11.523438 22.527344 11.523438 C 22.527344 11.523438 22.382812 12.035156 21.625 12.164062 C 21.007812 12.269531 20.589844 12.035156 20.589844 12.035156 C 20.589844 12.035156 20.398438 12.355469 20.050781 12.363281 C 19.699219 12.371094 19.53125 12.25 19.53125 12.25 C 19.53125 12.25 19.570312 12.519531 19.285156 12.566406 C 19.003906 12.613281 18.667969 12.535156 18.667969 12.535156 C 18.667969 12.535156 18.652344 12.6875 18.457031 12.753906 C 18.328125 12.800781 18.050781 12.753906 18.050781 12.753906 C 18.050781 12.753906 17.921875 12.890625 17.921875 13.035156 C 17.921875 13.109375 17.898438 13.171875 17.847656 13.21875 L 17.882812 13.230469 C 19.023438 13.511719 20.066406 14.035156 20.945312 14.742188 L 20.964844 14.746094 C 21.339844 14.863281 21.738281 15.011719 22.164062 15.191406 C 24.828125 16.324219 25.425781 17.085938 25.425781 17.085938 C 24.351562 16.953125 23.628906 17.125 23.628906 17.125 C 24.382812 18.144531 24.492188 19.089844 24.492188 19.089844 C 24.492188 19.089844 24.101562 18.738281 23.421875 18.265625 Z M 23.394531 18.246094 "/>
<path style=" stroke:none;fill-rule:evenodd;fill:rgb(98.431373%,75.686275%,10.980392%);fill-opacity:1;" d="M 20.296875 17.101562 C 19.394531 17.417969 17.625 17.949219 15.9375 17.949219 C 14.246094 17.949219 12.476562 17.417969 11.574219 17.101562 L 11.488281 17.070312 L 11.492188 17.164062 C 11.550781 18.242188 11.785156 20.394531 12.710938 22.703125 C 13.691406 25.148438 15.265625 26.714844 15.894531 27.277344 L 15.9375 27.3125 L 15.976562 27.277344 C 16.609375 26.714844 18.183594 25.148438 19.164062 22.703125 C 20.085938 20.394531 20.324219 18.242188 20.378906 17.164062 L 20.382812 17.070312 L 20.296875 17.101562 M 20.761719 16.835938 C 20.734375 17.753906 20.558594 20.199219 19.503906 22.839844 C 18.296875 25.84375 16.234375 27.550781 15.9375 27.785156 C 15.640625 27.550781 13.574219 25.84375 12.371094 22.839844 C 11.320312 20.214844 11.140625 17.789062 11.113281 16.855469 L 11.113281 16.839844 C 11.265625 16.789062 11.410156 16.746094 11.558594 16.707031 L 11.582031 16.71875 C 12.464844 17.03125 14.261719 17.585938 15.9375 17.585938 C 17.628906 17.585938 19.445312 17.019531 20.316406 16.707031 L 20.34375 16.714844 C 20.46875 16.746094 20.597656 16.785156 20.730469 16.828125 Z M 20.761719 16.835938 "/>
<path style=" stroke:none;fill-rule:nonzero;fill:rgb(13.72549%,12.156863%,12.54902%);fill-opacity:1;" d="M 13.269531 29.039062 L 13.144531 29.175781 C 13.105469 29.21875 13.117188 29.269531 13.175781 29.292969 L 13.164062 29.324219 L 12.914062 29.226562 L 12.929688 29.195312 C 12.964844 29.207031 13.011719 29.203125 13.050781 29.171875 C 13.152344 29.089844 13.46875 28.753906 13.6875 28.53125 L 13.765625 28.558594 C 13.761719 28.839844 13.75 29.269531 13.753906 29.394531 C 13.757812 29.472656 13.761719 29.523438 13.820312 29.542969 L 13.808594 29.578125 L 13.492188 29.453125 L 13.503906 29.421875 C 13.589844 29.453125 13.613281 29.417969 13.613281 29.355469 L 13.617188 29.175781 L 13.269531 29.039062 M 13.617188 29.121094 L 13.632812 28.671875 L 13.628906 28.671875 L 13.308594 29 Z M 13.617188 29.121094 "/>
<path style=" stroke:none;fill-rule:nonzero;fill:rgb(13.72549%,12.156863%,12.54902%);fill-opacity:1;" d="M 14.992188 29.609375 L 14.914062 29.761719 C 14.90625 29.789062 14.882812 29.789062 14.839844 29.789062 C 14.78125 29.796875 14.675781 29.796875 14.550781 29.769531 C 14.527344 29.761719 14.5 29.757812 14.476562 29.75 L 14.429688 29.8125 C 14.441406 29.8125 14.457031 29.816406 14.472656 29.816406 C 14.53125 29.832031 14.585938 29.871094 14.570312 29.933594 C 14.554688 30 14.453125 30.019531 14.363281 30 C 14.324219 29.992188 14.285156 29.972656 14.253906 29.953125 L 14.28125 29.917969 C 14.304688 29.933594 14.34375 29.949219 14.367188 29.953125 C 14.414062 29.964844 14.453125 29.953125 14.460938 29.917969 C 14.464844 29.886719 14.449219 29.867188 14.417969 29.859375 C 14.398438 29.851562 14.375 29.847656 14.355469 29.847656 L 14.34375 29.839844 L 14.429688 29.730469 C 14.195312 29.648438 14.03125 29.472656 14.097656 29.179688 C 14.140625 28.984375 14.382812 28.765625 14.769531 28.847656 C 14.90625 28.878906 14.96875 28.914062 15.03125 28.949219 C 15.070312 28.96875 15.082031 28.992188 15.078125 29.011719 L 15.042969 29.175781 L 15.003906 29.167969 C 15.023438 29.066406 14.972656 28.9375 14.746094 28.890625 C 14.480469 28.832031 14.3125 28.976562 14.261719 29.207031 C 14.203125 29.460938 14.296875 29.667969 14.585938 29.730469 C 14.777344 29.769531 14.886719 29.691406 14.953125 29.601562 Z M 14.992188 29.609375 "/>
<path style=" stroke:none;fill-rule:nonzero;fill:rgb(13.72549%,12.156863%,12.54902%);fill-opacity:1;" d="M 15.191406 29.429688 C 15.199219 29.144531 15.453125 28.945312 15.757812 28.957031 C 16.074219 28.96875 16.25 29.21875 16.242188 29.417969 C 16.234375 29.695312 15.996094 29.910156 15.671875 29.898438 C 15.390625 29.890625 15.179688 29.679688 15.191406 29.429688 M 16.074219 29.453125 C 16.085938 29.140625 15.902344 29.007812 15.722656 29 C 15.472656 28.992188 15.363281 29.1875 15.359375 29.367188 C 15.347656 29.683594 15.523438 29.851562 15.710938 29.855469 C 15.984375 29.863281 16.070312 29.628906 16.074219 29.453125 Z M 16.074219 29.453125 "/>
<path style=" stroke:none;fill-rule:nonzero;fill:rgb(13.72549%,12.156863%,12.54902%);fill-opacity:1;" d="M 16.960938 29.625 C 16.871094 29.53125 16.785156 29.429688 16.785156 29.429688 L 16.671875 29.445312 L 16.707031 29.683594 C 16.722656 29.804688 16.714844 29.800781 16.847656 29.796875 L 16.851562 29.828125 L 16.460938 29.882812 L 16.457031 29.847656 C 16.585938 29.816406 16.582031 29.824219 16.566406 29.703125 L 16.484375 29.121094 C 16.46875 29 16.476562 29.007812 16.34375 29.007812 L 16.339844 28.976562 L 16.761719 28.917969 C 16.90625 28.898438 17.0625 28.949219 17.085938 29.101562 C 17.101562 29.234375 17.023438 29.335938 16.917969 29.390625 L 17.085938 29.566406 C 17.171875 29.648438 17.265625 29.730469 17.320312 29.75 L 17.320312 29.765625 C 17.152344 29.792969 17.074219 29.746094 16.960938 29.625 M 16.667969 29.402344 L 16.789062 29.386719 C 16.914062 29.371094 16.960938 29.277344 16.941406 29.132812 C 16.921875 28.992188 16.828125 28.953125 16.722656 28.964844 L 16.609375 28.980469 Z M 16.667969 29.402344 "/>
<path style=" stroke:none;fill-rule:nonzero;fill:rgb(13.72549%,12.156863%,12.54902%);fill-opacity:1;" d="M 17.453125 29.699219 C 17.578125 29.648438 17.574219 29.65625 17.539062 29.539062 L 17.382812 28.972656 C 17.347656 28.855469 17.355469 28.863281 17.226562 28.882812 L 17.214844 28.851562 L 17.84375 28.675781 L 17.902344 28.878906 L 17.867188 28.886719 C 17.824219 28.800781 17.777344 28.738281 17.675781 28.765625 L 17.484375 28.820312 L 17.585938 29.179688 L 17.703125 29.144531 C 17.792969 29.121094 17.824219 29.078125 17.804688 29 L 17.839844 28.992188 L 17.914062 29.257812 L 17.878906 29.269531 C 17.855469 29.195312 17.808594 29.160156 17.714844 29.1875 L 17.597656 29.21875 L 17.679688 29.503906 C 17.707031 29.609375 17.765625 29.605469 17.890625 29.570312 C 18.097656 29.511719 18.074219 29.464844 18.097656 29.308594 L 18.136719 29.300781 L 18.15625 29.539062 L 17.464844 29.730469 Z M 17.453125 29.699219 "/>
<path style=" stroke:none;fill-rule:nonzero;fill:rgb(13.72549%,12.156863%,12.54902%);fill-opacity:1;" d="M 18.535156 28.613281 C 18.488281 28.53125 18.410156 28.488281 18.300781 28.53125 C 18.222656 28.5625 18.167969 28.628906 18.203125 28.71875 C 18.238281 28.800781 18.355469 28.8125 18.527344 28.847656 C 18.710938 28.882812 18.785156 28.925781 18.824219 29.027344 C 18.886719 29.171875 18.753906 29.316406 18.59375 29.386719 C 18.507812 29.421875 18.425781 29.4375 18.34375 29.441406 C 18.339844 29.441406 18.332031 29.4375 18.328125 29.429688 L 18.253906 29.253906 L 18.289062 29.242188 C 18.363281 29.367188 18.484375 29.382812 18.585938 29.339844 C 18.683594 29.296875 18.734375 29.199219 18.695312 29.113281 C 18.664062 29.035156 18.589844 28.988281 18.335938 28.953125 C 18.246094 28.941406 18.136719 28.929688 18.082031 28.800781 C 18.035156 28.691406 18.132812 28.550781 18.289062 28.484375 C 18.347656 28.460938 18.425781 28.4375 18.488281 28.429688 C 18.496094 28.429688 18.5 28.433594 18.503906 28.441406 L 18.570312 28.597656 Z M 18.535156 28.613281 "/>
<path style=" stroke:none;fill-rule:nonzero;fill:rgb(13.72549%,12.156863%,12.54902%);fill-opacity:1;" d="M 9.585938 7.066406 C 9.460938 7.074219 9.367188 7.171875 9.363281 7.3125 C 9.363281 7.449219 9.503906 7.535156 9.707031 7.683594 C 9.921875 7.84375 9.988281 7.945312 9.988281 8.109375 C 9.988281 8.347656 9.742188 8.5 9.5 8.476562 C 9.253906 8.457031 9.210938 8.351562 9.210938 8.351562 L 9.210938 8.066406 L 9.265625 8.066406 C 9.285156 8.285156 9.363281 8.410156 9.519531 8.410156 C 9.664062 8.410156 9.78125 8.300781 9.78125 8.15625 C 9.78125 8.027344 9.707031 7.917969 9.40625 7.722656 C 9.296875 7.648438 9.160156 7.574219 9.164062 7.355469 C 9.164062 7.183594 9.320312 7.042969 9.496094 7.007812 C 9.671875 6.96875 9.890625 7.023438 9.890625 7.023438 L 9.890625 7.304688 L 9.832031 7.304688 C 9.804688 7.15625 9.710938 7.058594 9.585938 7.066406 Z M 9.585938 7.066406 "/>
<path style=" stroke:none;fill-rule:nonzero;fill:rgb(13.72549%,12.156863%,12.54902%);fill-opacity:1;" d="M 10.394531 8.039062 L 10.300781 8.277344 C 10.277344 8.347656 10.316406 8.40625 10.402344 8.40625 L 10.402344 8.453125 L 10.035156 8.453125 L 10.035156 8.40625 C 10.089844 8.40625 10.148438 8.378906 10.183594 8.316406 C 10.269531 8.160156 10.503906 7.574219 10.671875 7.175781 L 10.785156 7.175781 C 10.921875 7.535156 11.125 8.089844 11.195312 8.25 C 11.238281 8.351562 11.269531 8.40625 11.355469 8.40625 L 11.355469 8.453125 L 10.886719 8.453125 L 10.886719 8.40625 C 11.015625 8.40625 11.027344 8.347656 10.996094 8.269531 L 10.910156 8.039062 L 10.394531 8.039062 M 10.882812 7.96875 L 10.667969 7.386719 L 10.664062 7.386719 L 10.425781 7.96875 Z M 10.882812 7.96875 "/>
<path style=" stroke:none;fill-rule:nonzero;fill:rgb(13.72549%,12.156863%,12.54902%);fill-opacity:1;" d="M 11.640625 7.199219 L 11.6875 7.199219 C 11.6875 7.199219 12.386719 7.851562 12.683594 8.179688 L 12.6875 8.179688 L 12.6875 7.441406 C 12.6875 7.402344 12.679688 7.371094 12.675781 7.34375 C 12.667969 7.277344 12.597656 7.253906 12.464844 7.242188 L 12.464844 7.199219 L 12.957031 7.199219 L 12.957031 7.242188 C 12.863281 7.253906 12.796875 7.277344 12.785156 7.34375 C 12.78125 7.371094 12.773438 7.402344 12.773438 7.441406 L 12.773438 8.453125 L 12.703125 8.453125 C 12.386719 8.117188 11.726562 7.484375 11.726562 7.484375 L 11.726562 8.210938 C 11.726562 8.25 11.734375 8.28125 11.738281 8.308594 C 11.746094 8.375 11.816406 8.398438 11.949219 8.40625 L 11.949219 8.453125 L 11.457031 8.453125 L 11.457031 8.40625 C 11.550781 8.398438 11.617188 8.375 11.628906 8.308594 C 11.632812 8.28125 11.640625 8.25 11.640625 8.210938 Z M 11.640625 7.199219 "/>
<path style=" stroke:none;fill-rule:nonzero;fill:rgb(13.72549%,12.156863%,12.54902%);fill-opacity:1;" d="M 13.699219 8.230469 C 13.699219 8.398438 13.691406 8.386719 13.871094 8.40625 L 13.871094 8.453125 L 13.332031 8.453125 L 13.332031 8.40625 C 13.511719 8.386719 13.503906 8.398438 13.503906 8.230469 L 13.503906 7.253906 L 13.324219 7.253906 C 13.148438 7.253906 13.105469 7.355469 13.042969 7.472656 L 12.992188 7.472656 L 13.046875 7.199219 L 14.15625 7.199219 L 14.210938 7.472656 L 14.160156 7.472656 C 14.09375 7.355469 14.054688 7.253906 13.878906 7.253906 L 13.699219 7.253906 Z M 13.699219 8.230469 "/>
<path style=" stroke:none;fill-rule:nonzero;fill:rgb(13.72549%,12.156863%,12.54902%);fill-opacity:1;" d="M 14.449219 8.039062 L 14.355469 8.277344 C 14.328125 8.347656 14.367188 8.40625 14.457031 8.40625 L 14.457031 8.453125 L 14.089844 8.453125 L 14.089844 8.40625 C 14.144531 8.40625 14.203125 8.378906 14.234375 8.316406 C 14.320312 8.160156 14.554688 7.574219 14.722656 7.175781 L 14.835938 7.175781 C 14.972656 7.535156 15.179688 8.089844 15.246094 8.25 C 15.289062 8.351562 15.324219 8.40625 15.410156 8.40625 L 15.410156 8.453125 L 14.941406 8.453125 L 14.941406 8.40625 C 15.066406 8.40625 15.078125 8.347656 15.046875 8.269531 L 14.960938 8.039062 L 14.449219 8.039062 M 14.933594 7.96875 L 14.722656 7.386719 L 14.71875 7.386719 L 14.476562 7.96875 Z M 14.933594 7.96875 "/>
<path style=" stroke:none;fill-rule:nonzero;fill:rgb(13.72549%,12.156863%,12.54902%);fill-opacity:1;" d="M 17.375 7.867188 C 17.375 7.867188 17.386719 8 17.339844 8.148438 C 17.289062 8.3125 17.148438 8.472656 16.828125 8.476562 C 16.417969 8.488281 16.046875 8.28125 16.046875 7.75 C 16.046875 7.441406 16.296875 6.992188 16.835938 7.007812 C 17.226562 7.019531 17.316406 7.179688 17.316406 7.179688 L 17.316406 7.4375 L 17.261719 7.4375 C 17.257812 7.277344 17.140625 7.078125 16.820312 7.078125 C 16.445312 7.078125 16.277344 7.371094 16.273438 7.730469 C 16.273438 8.128906 16.4375 8.40625 16.847656 8.394531 C 17.097656 8.386719 17.234375 8.214844 17.269531 8.046875 Z M 17.375 7.867188 "/>
<path style=" stroke:none;fill-rule:nonzero;fill:rgb(13.72549%,12.156863%,12.54902%);fill-opacity:1;" d="M 17.453125 8.40625 C 17.632812 8.386719 17.625 8.398438 17.625 8.230469 L 17.625 7.421875 C 17.625 7.253906 17.632812 7.265625 17.453125 7.242188 L 17.453125 7.199219 L 17.996094 7.199219 L 17.996094 7.242188 C 17.8125 7.265625 17.820312 7.253906 17.820312 7.421875 L 17.820312 8.257812 C 17.820312 8.382812 17.898438 8.398438 18.078125 8.398438 C 18.371094 8.398438 18.359375 8.324219 18.453125 8.132812 L 18.5 8.132812 L 18.441406 8.453125 L 17.453125 8.453125 Z M 17.453125 8.40625 "/>
<path style=" stroke:none;fill-rule:nonzero;fill:rgb(13.72549%,12.156863%,12.54902%);fill-opacity:1;" d="M 18.945312 8.039062 L 18.851562 8.277344 C 18.824219 8.347656 18.863281 8.40625 18.953125 8.40625 L 18.953125 8.453125 L 18.585938 8.453125 L 18.585938 8.40625 C 18.640625 8.40625 18.699219 8.378906 18.730469 8.316406 C 18.816406 8.160156 19.054688 7.574219 19.21875 7.175781 L 19.332031 7.175781 C 19.46875 7.535156 19.675781 8.089844 19.742188 8.25 C 19.789062 8.351562 19.820312 8.40625 19.90625 8.40625 L 19.90625 8.453125 L 19.4375 8.453125 L 19.4375 8.40625 C 19.5625 8.40625 19.578125 8.347656 19.542969 8.269531 L 19.457031 8.039062 L 18.945312 8.039062 M 19.429688 7.96875 L 19.21875 7.386719 L 19.214844 7.386719 L 18.976562 7.96875 Z M 19.429688 7.96875 "/>
<path style=" stroke:none;fill-rule:nonzero;fill:rgb(13.72549%,12.156863%,12.54902%);fill-opacity:1;" d="M 20.582031 7.898438 L 20.425781 7.898438 L 20.425781 8.230469 C 20.425781 8.398438 20.417969 8.386719 20.601562 8.40625 L 20.601562 8.453125 L 20.058594 8.453125 L 20.058594 8.40625 C 20.242188 8.386719 20.230469 8.398438 20.230469 8.230469 L 20.230469 7.421875 C 20.230469 7.253906 20.242188 7.265625 20.058594 7.242188 L 20.058594 7.199219 L 20.644531 7.199219 C 20.847656 7.199219 21.050781 7.292969 21.050781 7.503906 C 21.050781 7.6875 20.925781 7.816406 20.769531 7.867188 L 20.964844 8.136719 C 21.066406 8.269531 21.179688 8.394531 21.25 8.429688 L 21.25 8.453125 C 21.054688 8.453125 20.894531 8.375 20.582031 7.898438 M 20.425781 7.839844 L 20.59375 7.839844 C 20.769531 7.839844 20.851562 7.722656 20.851562 7.519531 C 20.851562 7.324219 20.730469 7.253906 20.582031 7.253906 L 20.425781 7.253906 Z M 20.425781 7.839844 "/>
<path style=" stroke:none;fill-rule:nonzero;fill:rgb(13.72549%,12.156863%,12.54902%);fill-opacity:1;" d="M 21.746094 8.039062 L 21.652344 8.277344 C 21.625 8.347656 21.664062 8.40625 21.753906 8.40625 L 21.753906 8.453125 L 21.386719 8.453125 L 21.386719 8.40625 C 21.441406 8.40625 21.5 8.378906 21.53125 8.316406 C 21.617188 8.160156 21.855469 7.574219 22.019531 7.175781 L 22.132812 7.175781 C 22.269531 7.535156 22.476562 8.089844 22.542969 8.25 C 22.589844 8.351562 22.621094 8.40625 22.707031 8.40625 L 22.707031 8.453125 L 22.238281 8.453125 L 22.238281 8.40625 C 22.363281 8.40625 22.378906 8.347656 22.34375 8.269531 L 22.257812 8.039062 L 21.746094 8.039062 M 22.230469 7.96875 L 22.019531 7.386719 L 22.015625 7.386719 L 21.777344 7.96875 Z M 22.230469 7.96875 "/>
<path style=" stroke:none;fill-rule:evenodd;fill:rgb(98.431373%,75.686275%,10.980392%);fill-opacity:1;" d="M 15.675781 13.230469 C 15.550781 13.121094 15.398438 13.15625 15.222656 13.308594 C 15.050781 13.457031 15.035156 13.609375 15.109375 13.777344 C 15.1875 13.941406 15.238281 14.175781 15.203125 14.34375 C 15.203125 14.34375 14.683594 14.476562 14.714844 14.667969 C 14.714844 14.667969 14.8125 14.675781 14.890625 14.644531 C 14.964844 14.613281 15.109375 14.628906 15.109375 14.628906 C 15.109375 14.628906 15.109375 14.742188 15.15625 14.8125 C 15.15625 14.8125 15.277344 14.757812 15.378906 14.699219 C 15.476562 14.636719 15.53125 14.628906 15.53125 14.628906 C 15.53125 14.628906 15.613281 14.75 15.742188 14.75 C 15.742188 14.75 15.804688 14.589844 15.695312 14.464844 C 15.589844 14.335938 15.566406 14.273438 15.566406 14.101562 C 15.566406 13.925781 15.644531 13.84375 15.703125 13.777344 C 15.765625 13.707031 15.878906 13.414062 15.675781 13.230469 Z M 15.675781 13.230469 "/>
<path style=" stroke:none;fill-rule:evenodd;fill:rgb(98.431373%,75.686275%,10.980392%);fill-opacity:1;" d="M 14.828125 13.851562 C 14.78125 13.824219 14.667969 13.957031 14.546875 14.152344 C 14.425781 14.351562 14.386719 14.417969 14.484375 14.386719 C 14.585938 14.355469 14.636719 14.230469 14.757812 14.117188 C 14.882812 14.003906 14.867188 13.875 14.828125 13.851562 Z M 14.828125 13.851562 "/>
<path style=" stroke:none;fill-rule:evenodd;fill:rgb(98.431373%,75.686275%,10.980392%);fill-opacity:1;" d="M 14.730469 14.265625 C 14.601562 14.433594 14.570312 14.476562 14.613281 14.476562 C 14.660156 14.476562 14.796875 14.378906 14.898438 14.3125 C 14.996094 14.242188 15.003906 14.128906 14.957031 14.117188 C 14.910156 14.101562 14.820312 14.144531 14.730469 14.265625 Z M 14.730469 14.265625 "/>
<path style=" stroke:none;fill-rule:evenodd;fill:rgb(98.431373%,75.686275%,10.980392%);fill-opacity:1;" d="M 15.726562 13.859375 C 15.621094 13.972656 15.566406 14.101562 15.691406 14.273438 C 15.8125 14.449219 15.886719 14.597656 15.917969 14.585938 C 15.949219 14.570312 16.046875 14.5 16.101562 14.386719 C 16.15625 14.273438 16.125 14.136719 16.0625 14.09375 C 16.003906 14.046875 15.972656 14.078125 15.980469 14.191406 C 15.988281 14.304688 15.941406 14.371094 15.941406 14.371094 C 15.941406 14.371094 15.925781 14.199219 15.855469 14.125 C 15.789062 14.046875 15.789062 13.980469 15.847656 14.003906 C 15.910156 14.023438 15.941406 14.136719 15.933594 13.933594 C 15.925781 13.730469 15.8125 13.769531 15.726562 13.859375 Z M 15.726562 13.859375 "/>
<path style=" stroke:none;fill-rule:evenodd;fill:rgb(98.431373%,75.686275%,10.980392%);fill-opacity:1;" d="M 16.839844 13.441406 C 16.863281 13.554688 16.917969 13.796875 16.917969 13.910156 C 16.917969 14.023438 16.910156 14.289062 16.910156 14.289062 C 16.910156 14.289062 17 14.386719 17.085938 14.476562 C 17.085938 14.476562 17.113281 14.371094 17.097656 14.207031 C 17.097656 14.207031 17.207031 14.351562 17.273438 14.441406 C 17.34375 14.53125 17.34375 14.578125 17.464844 14.546875 C 17.585938 14.515625 17.511719 14.441406 17.410156 14.296875 C 17.3125 14.152344 17.199219 14.03125 17.105469 13.894531 C 17.015625 13.761719 16.976562 13.65625 16.945312 13.542969 C 16.917969 13.429688 16.816406 13.320312 16.839844 13.441406 Z M 16.839844 13.441406 "/>
<path style=" stroke:none;fill-rule:evenodd;fill:rgb(98.431373%,75.686275%,10.980392%);fill-opacity:1;" d="M 17.097656 13.464844 C 17.011719 13.429688 17 13.527344 17.046875 13.640625 C 17.09375 13.753906 17.128906 13.882812 17.160156 13.804688 C 17.191406 13.730469 17.175781 13.496094 17.097656 13.464844 Z M 17.097656 13.464844 "/>
<path style=" stroke:none;fill-rule:evenodd;fill:rgb(98.431373%,75.686275%,10.980392%);fill-opacity:1;" d="M 17.167969 12.867188 C 17.035156 12.832031 16.925781 12.898438 17 12.960938 C 17.078125 13.019531 17.144531 13.078125 17.191406 13.074219 C 17.238281 13.066406 17.222656 12.882812 17.167969 12.867188 Z M 17.167969 12.867188 "/>
<path style=" stroke:none;fill-rule:evenodd;fill:rgb(98.431373%,75.686275%,10.980392%);fill-opacity:1;" d="M 13.90625 9.824219 C 13.90625 9.824219 13.9375 9.714844 14.113281 9.695312 C 14.285156 9.671875 14.410156 9.84375 14.410156 9.84375 C 14.410156 9.84375 14.53125 9.683594 14.660156 9.703125 C 14.84375 9.722656 15.179688 10.003906 15.492188 10.351562 C 15.492188 10.351562 15.300781 10.457031 15.445312 10.675781 C 15.589844 10.894531 15.863281 11.144531 15.933594 11.417969 C 15.933594 11.417969 15.820312 11.402344 15.734375 11.425781 C 15.734375 11.425781 15.871094 11.597656 16.003906 11.6875 C 16.003906 11.6875 15.878906 11.710938 15.703125 11.613281 C 15.703125 11.613281 15.757812 11.742188 15.917969 11.796875 C 16.078125 11.847656 16.125 11.929688 16.148438 12.007812 C 16.148438 12.007812 15.996094 11.960938 15.863281 11.984375 C 15.863281 11.984375 15.871094 12.121094 16.007812 12.25 C 16.007812 12.25 15.925781 12.277344 15.796875 12.265625 C 15.667969 12.25 15.535156 12.203125 15.429688 12.277344 C 15.429688 12.277344 15.675781 12.421875 15.855469 12.445312 C 15.855469 12.445312 15.894531 12.527344 15.828125 12.589844 C 15.757812 12.648438 15.515625 12.582031 15.515625 12.582031 C 15.515625 12.582031 15.574219 12.695312 15.742188 12.71875 C 15.742188 12.71875 15.675781 12.800781 15.621094 12.824219 C 15.621094 12.824219 15.75 12.960938 15.925781 13.058594 C 16.101562 13.15625 16.300781 13.195312 16.480469 13.222656 C 16.664062 13.253906 16.757812 13.398438 16.757812 13.535156 C 16.757812 13.667969 16.734375 13.835938 16.664062 13.964844 C 16.597656 14.09375 16.597656 14.265625 16.613281 14.363281 C 16.613281 14.363281 16.796875 14.398438 16.910156 14.464844 C 17.0625 14.554688 17.105469 14.742188 17.105469 14.742188 C 17.105469 14.742188 17.03125 14.75 16.925781 14.699219 C 16.816406 14.644531 16.671875 14.683594 16.671875 14.683594 C 16.671875 14.683594 16.679688 14.773438 16.648438 14.820312 C 16.648438 14.820312 16.558594 14.796875 16.480469 14.757812 C 16.40625 14.71875 16.382812 14.660156 16.382812 14.660156 C 16.382812 14.660156 16.300781 14.660156 16.222656 14.691406 C 16.148438 14.71875 16.054688 14.765625 16.054688 14.765625 C 16.054688 14.765625 16.03125 14.605469 16.101562 14.523438 C 16.167969 14.441406 16.214844 14.335938 16.207031 14.167969 C 16.199219 14.003906 16.09375 13.828125 16.039062 13.707031 C 15.988281 13.585938 15.988281 13.335938 15.988281 13.253906 C 15.988281 13.253906 15.796875 13.195312 15.683594 13.125 C 15.566406 13.058594 15.445312 13.050781 15.316406 13.042969 C 15.1875 13.035156 15.1875 12.972656 15.203125 12.882812 C 15.21875 12.792969 15.324219 12.679688 15.324219 12.679688 C 15.324219 12.679688 15.125 12.6875 15.011719 12.566406 C 14.898438 12.445312 14.796875 12.398438 14.796875 11.847656 C 14.796875 11.296875 14.8125 11.015625 14.597656 10.632812 C 14.355469 10.191406 13.90625 9.824219 13.90625 9.824219 M 14.789062 9.964844 C 14.730469 9.890625 14.613281 9.929688 14.613281 9.929688 C 14.613281 9.929688 14.722656 10.058594 14.789062 10.199219 C 14.789062 10.199219 14.851562 10.042969 14.789062 9.964844 M 15.683594 12.058594 C 15.742188 12.121094 15.8125 12.128906 15.8125 12.128906 C 15.8125 12.128906 15.789062 11.9375 15.644531 11.929688 C 15.5 11.921875 15.492188 12 15.492188 12 C 15.492188 12 15.621094 12 15.683594 12.058594 Z M 15.683594 12.058594 "/>
<path style=" stroke:none;fill-rule:evenodd;fill:rgb(98.431373%,75.686275%,10.980392%);fill-opacity:1;" d="M 13.96875 12.617188 C 13.859375 12.746094 13.816406 12.839844 13.859375 12.882812 C 13.90625 12.929688 13.960938 12.90625 14.195312 12.71875 C 14.433594 12.527344 14.523438 12.492188 14.5 12.355469 C 14.476562 12.21875 14.308594 12.210938 13.96875 12.617188 Z M 13.96875 12.617188 "/>
<path style=" stroke:none;fill-rule:evenodd;fill:rgb(98.431373%,75.686275%,10.980392%);fill-opacity:1;" d="M 13.347656 12.21875 C 13.210938 12.304688 13.144531 12.5 13.210938 12.519531 C 13.28125 12.542969 13.410156 12.492188 13.667969 12.363281 C 13.929688 12.234375 14.082031 12.1875 14.121094 12.136719 C 14.15625 12.082031 14.148438 12.105469 13.980469 12.082031 C 13.816406 12.058594 13.59375 12.066406 13.347656 12.21875 Z M 13.347656 12.21875 "/>
<path style=" stroke:none;fill-rule:evenodd;fill:rgb(98.431373%,75.686275%,10.980392%);fill-opacity:1;" d="M 16.9375 11.304688 C 16.707031 11.386719 16.671875 11.484375 16.773438 11.53125 C 16.871094 11.574219 17.175781 11.589844 17.417969 11.3125 C 17.664062 11.03125 17.792969 10.570312 18.007812 10.3125 C 18.21875 10.058594 18.5625 9.769531 19.265625 9.738281 C 19.964844 9.710938 21.261719 9.835938 22.015625 9.875 C 22.769531 9.914062 23.328125 9.949219 24.21875 9.828125 C 25.109375 9.710938 25.535156 9.589844 25.574219 9.511719 C 25.613281 9.4375 25.550781 9.453125 25.125 9.519531 C 24.699219 9.589844 23.570312 9.730469 22.320312 9.648438 C 21.070312 9.566406 19.835938 9.5 19.292969 9.503906 C 18.660156 9.511719 18.265625 9.566406 17.914062 9.859375 C 17.5625 10.15625 17.570312 10.488281 17.511719 10.746094 C 17.449219 11 17.273438 11.183594 16.9375 11.304688 Z M 16.9375 11.304688 "/>
<path style=" stroke:none;fill-rule:evenodd;fill:rgb(98.431373%,75.686275%,10.980392%);fill-opacity:1;" d="M 20.246094 10.480469 C 20.070312 10.464844 19.941406 10.496094 20.09375 10.5625 C 20.246094 10.632812 20.542969 10.644531 20.710938 10.644531 C 20.878906 10.644531 21.222656 10.796875 21.472656 10.84375 C 21.726562 10.886719 22.246094 10.902344 22.761719 10.894531 C 23.28125 10.886719 23.960938 10.886719 24.125 10.820312 C 24.292969 10.753906 24.410156 10.5625 24.226562 10.585938 C 24.042969 10.609375 23.449219 10.640625 22.449219 10.617188 C 21.453125 10.59375 20.878906 10.539062 20.246094 10.480469 Z M 20.246094 10.480469 "/>
<path style=" stroke:none;fill-rule:evenodd;fill:rgb(98.431373%,75.686275%,10.980392%);fill-opacity:1;" d="M 18.507812 10.640625 C 18.359375 10.554688 18.195312 10.570312 18.242188 10.652344 C 18.289062 10.738281 18.320312 10.773438 18.273438 10.789062 C 18.226562 10.804688 18.195312 10.925781 18.328125 11.054688 C 18.457031 11.183594 18.625 11.234375 18.945312 11.25 C 19.265625 11.265625 19.539062 11.328125 19.722656 11.417969 C 19.902344 11.507812 19.972656 11.523438 19.972656 11.410156 C 19.972656 11.296875 19.867188 11.273438 19.628906 11.207031 C 19.394531 11.136719 19.066406 11.105469 18.835938 11.070312 C 18.609375 11.03125 18.578125 10.949219 18.578125 10.867188 C 18.578125 10.78125 18.578125 10.675781 18.507812 10.640625 Z M 18.507812 10.640625 "/>
<path style=" stroke:none;fill-rule:evenodd;fill:rgb(98.431373%,75.686275%,10.980392%);fill-opacity:1;" d="M 19.082031 10.640625 C 18.976562 10.574219 18.929688 10.683594 18.980469 10.757812 C 19.035156 10.835938 19.097656 10.949219 19.171875 10.941406 C 19.25 10.933594 19.417969 10.851562 19.082031 10.640625 Z M 19.082031 10.640625 "/>
<path style=" stroke:none;fill-rule:evenodd;fill:rgb(98.431373%,75.686275%,10.980392%);fill-opacity:1;" d="M 23.050781 10.085938 C 22.882812 10.082031 22.824219 10.164062 22.96875 10.261719 C 23.113281 10.359375 23.144531 10.410156 23.59375 10.40625 C 24.042969 10.398438 24.429688 10.390625 24.683594 10.3125 C 24.933594 10.238281 25.0625 10.078125 25.078125 10.035156 C 25.09375 9.988281 25.027344 9.980469 24.699219 10.019531 C 24.371094 10.058594 23.609375 10.101562 23.050781 10.085938 Z M 23.050781 10.085938 "/>
<path style=" stroke:none;fill-rule:evenodd;fill:rgb(98.431373%,75.686275%,10.980392%);fill-opacity:1;" d="M 20.195312 9.957031 C 19.945312 9.929688 19.820312 9.988281 19.902344 10.070312 C 19.988281 10.15625 20.132812 10.15625 20.300781 10.171875 C 20.46875 10.183594 20.734375 10.222656 20.78125 10.191406 C 20.828125 10.164062 20.789062 10.101562 20.667969 10.070312 C 20.542969 10.042969 20.398438 9.980469 20.195312 9.957031 Z M 20.195312 9.957031 "/>
<path style=" stroke:none;fill-rule:evenodd;fill:rgb(98.431373%,75.686275%,10.980392%);fill-opacity:1;" d="M 19.691406 10.207031 C 19.609375 10.191406 19.484375 10.207031 19.378906 10.3125 C 19.273438 10.417969 19.300781 10.480469 19.386719 10.472656 C 19.46875 10.464844 19.585938 10.40625 19.675781 10.375 C 19.765625 10.34375 19.796875 10.230469 19.691406 10.207031 Z M 19.691406 10.207031 "/>
<path style=" stroke:none;fill-rule:evenodd;fill:rgb(98.431373%,75.686275%,10.980392%);fill-opacity:1;" d="M 19.257812 10.164062 C 19.367188 10.105469 19.417969 10.027344 19.308594 10.011719 C 19.203125 9.996094 19.113281 10.070312 19.050781 10.164062 C 18.988281 10.253906 18.996094 10.296875 19.257812 10.164062 Z M 19.257812 10.164062 "/>
<path style=" stroke:none;fill-rule:evenodd;fill:rgb(98.431373%,75.686275%,10.980392%);fill-opacity:1;" d="M 18.761719 10.246094 C 18.691406 10.175781 18.660156 10.183594 18.675781 10.335938 C 18.691406 10.488281 18.746094 10.53125 18.808594 10.519531 C 18.867188 10.503906 18.898438 10.382812 18.761719 10.246094 Z M 18.761719 10.246094 "/>
<path style=" stroke:none;fill-rule:evenodd;fill:rgb(98.431373%,75.686275%,10.980392%);fill-opacity:1;" d="M 19.890625 10.765625 C 19.761719 10.714844 19.691406 10.773438 19.796875 10.851562 C 19.902344 10.925781 20.09375 10.964844 20.1875 11.015625 C 20.277344 11.070312 20.460938 11.101562 20.46875 11.03125 C 20.476562 10.964844 20.460938 10.820312 20.355469 10.8125 C 20.246094 10.804688 20.253906 10.730469 20.1875 10.699219 C 20.117188 10.667969 19.996094 10.8125 19.890625 10.765625 Z M 19.890625 10.765625 "/>
<path style=" stroke:none;fill-rule:evenodd;fill:rgb(98.431373%,75.686275%,10.980392%);fill-opacity:1;" d="M 20.996094 10.917969 C 20.886719 10.90625 20.894531 11.039062 21.023438 11.152344 C 21.152344 11.265625 21.308594 11.304688 21.382812 11.28125 C 21.460938 11.257812 21.566406 11.113281 21.488281 11.085938 C 21.414062 11.054688 21.148438 10.933594 20.996094 10.917969 Z M 20.996094 10.917969 "/>
<path style=" stroke:none;fill-rule:evenodd;fill:rgb(98.431373%,75.686275%,10.980392%);fill-opacity:1;" d="M 20.460938 11.328125 C 20.359375 11.316406 20.203125 11.371094 20.390625 11.410156 C 20.582031 11.449219 20.742188 11.546875 20.996094 11.554688 C 21.246094 11.5625 21.519531 11.570312 21.757812 11.597656 C 21.992188 11.628906 22.09375 11.613281 22.09375 11.53125 C 22.09375 11.449219 22.023438 11.417969 21.710938 11.410156 C 21.398438 11.402344 20.996094 11.378906 20.460938 11.328125 Z M 20.460938 11.328125 "/>
<path style=" stroke:none;fill-rule:evenodd;fill:rgb(98.431373%,75.686275%,10.980392%);fill-opacity:1;" d="M 20.171875 11.613281 C 19.972656 11.625 19.933594 11.644531 20.070312 11.773438 C 20.210938 11.902344 20.363281 11.96875 20.382812 11.871094 C 20.40625 11.773438 20.421875 11.710938 20.566406 11.808594 C 20.710938 11.910156 20.796875 11.953125 21.054688 11.960938 C 21.3125 11.96875 21.367188 12.035156 21.558594 12.007812 C 21.75 11.976562 21.863281 11.871094 21.886719 11.796875 C 21.910156 11.71875 21.832031 11.675781 21.589844 11.667969 C 21.34375 11.660156 21.007812 11.628906 20.796875 11.613281 C 20.582031 11.597656 20.398438 11.597656 20.171875 11.613281 Z M 20.171875 11.613281 "/>
<path style=" stroke:none;fill-rule:evenodd;fill:rgb(98.431373%,75.686275%,10.980392%);fill-opacity:1;" d="M 19.585938 11.53125 C 19.386719 11.507812 19.347656 11.460938 19.363281 11.554688 C 19.378906 11.644531 19.4375 11.628906 19.515625 11.683594 C 19.59375 11.734375 19.675781 11.742188 19.738281 11.703125 C 19.796875 11.667969 19.722656 11.546875 19.585938 11.53125 Z M 19.585938 11.53125 "/>
<path style=" stroke:none;fill-rule:evenodd;fill:rgb(98.431373%,75.686275%,10.980392%);fill-opacity:1;" d="M 18.914062 11.441406 C 18.785156 11.359375 18.59375 11.371094 18.601562 11.460938 C 18.609375 11.554688 18.660156 11.589844 18.777344 11.605469 C 18.890625 11.621094 18.90625 11.667969 18.980469 11.667969 C 19.058594 11.667969 19.058594 11.53125 18.914062 11.441406 Z M 18.914062 11.441406 "/>
<path style=" stroke:none;fill-rule:evenodd;fill:rgb(98.431373%,75.686275%,10.980392%);fill-opacity:1;" d="M 18.167969 11.621094 C 18.03125 11.5625 17.898438 11.597656 17.929688 11.6875 C 17.960938 11.78125 18.023438 11.796875 18.113281 11.800781 C 18.203125 11.808594 18.304688 11.921875 18.355469 11.878906 C 18.410156 11.832031 18.335938 11.695312 18.167969 11.621094 Z M 18.167969 11.621094 "/>
<path style=" stroke:none;fill-rule:evenodd;fill:rgb(98.431373%,75.686275%,10.980392%);fill-opacity:1;" d="M 18.609375 11.710938 C 18.496094 11.699219 18.472656 11.726562 18.53125 11.796875 C 18.59375 11.863281 18.667969 11.910156 18.722656 11.902344 C 18.777344 11.894531 18.808594 11.734375 18.609375 11.710938 Z M 18.609375 11.710938 "/>
<path style=" stroke:none;fill-rule:evenodd;fill:rgb(98.431373%,75.686275%,10.980392%);fill-opacity:1;" d="M 17.761719 11.808594 C 17.707031 11.777344 17.59375 11.800781 17.609375 11.855469 C 17.625 11.910156 17.695312 11.910156 17.761719 11.902344 C 17.832031 11.894531 17.824219 11.847656 17.761719 11.808594 Z M 17.761719 11.808594 "/>
<path style=" stroke:none;fill-rule:evenodd;fill:rgb(98.431373%,75.686275%,10.980392%);fill-opacity:1;" d="M 17.449219 12.128906 C 17.496094 12.003906 17.390625 11.953125 17.28125 12.023438 C 17.175781 12.089844 17.078125 12.15625 17.09375 12.21875 C 17.105469 12.277344 17.144531 12.332031 17.238281 12.332031 C 17.328125 12.332031 17.417969 12.210938 17.449219 12.128906 Z M 17.449219 12.128906 "/>
<path style=" stroke:none;fill-rule:evenodd;fill:rgb(98.431373%,75.686275%,10.980392%);fill-opacity:1;" d="M 17.296875 12.558594 C 17.175781 12.539062 17.121094 12.597656 17.222656 12.726562 C 17.320312 12.851562 17.359375 12.875 17.441406 12.867188 C 17.527344 12.859375 17.550781 12.761719 17.609375 12.664062 C 17.671875 12.566406 17.769531 12.5 17.898438 12.550781 C 18.03125 12.605469 18.097656 12.632812 18.203125 12.613281 C 18.3125 12.589844 18.355469 12.46875 18.203125 12.421875 C 18.050781 12.378906 17.890625 12.285156 17.777344 12.285156 C 17.664062 12.285156 17.632812 12.332031 17.542969 12.445312 C 17.449219 12.558594 17.425781 12.582031 17.296875 12.558594 Z M 17.296875 12.558594 "/>
<path style=" stroke:none;fill-rule:evenodd;fill:rgb(98.431373%,75.686275%,10.980392%);fill-opacity:1;" d="M 17.71875 12.023438 C 17.59375 12.011719 17.519531 12.03125 17.664062 12.113281 C 17.808594 12.195312 17.929688 12.121094 18.328125 12.242188 C 18.722656 12.363281 18.851562 12.460938 19.003906 12.453125 C 19.15625 12.445312 19.25 12.265625 19.074219 12.210938 C 18.898438 12.15625 18.570312 12.066406 18.371094 12.058594 C 18.175781 12.050781 17.9375 12.035156 17.71875 12.023438 Z M 17.71875 12.023438 "/>
<path style=" stroke:none;fill-rule:evenodd;fill:rgb(98.431373%,75.686275%,10.980392%);fill-opacity:1;" d="M 19.125 11.789062 C 18.898438 11.78125 18.835938 11.839844 18.988281 11.945312 C 19.140625 12.050781 19.25 12.089844 19.316406 12.035156 C 19.386719 11.984375 19.453125 12.035156 19.578125 12.136719 C 19.699219 12.234375 19.957031 12.265625 20.078125 12.234375 C 20.203125 12.203125 20.261719 12.015625 20.117188 11.976562 C 19.972656 11.9375 19.738281 11.902344 19.613281 11.871094 C 19.492188 11.839844 19.339844 11.796875 19.125 11.789062 Z M 19.125 11.789062 "/>
<path style=" stroke:none;fill-rule:evenodd;fill:rgb(98.431373%,75.686275%,10.980392%);fill-opacity:1;" d="M 21.460938 10.148438 C 21.269531 10.089844 21.222656 10.078125 21.238281 10.15625 C 21.253906 10.230469 21.285156 10.285156 21.453125 10.285156 C 21.621094 10.285156 21.664062 10.207031 21.460938 10.148438 Z M 21.460938 10.148438 "/>
<path style=" stroke:none;fill-rule:evenodd;fill:rgb(98.431373%,75.686275%,10.980392%);fill-opacity:1;" d="M 22.28125 10.296875 C 22.171875 10.265625 22.085938 10.292969 22.152344 10.34375 C 22.222656 10.398438 22.265625 10.472656 22.34375 10.441406 C 22.417969 10.410156 22.410156 10.335938 22.28125 10.296875 Z M 22.28125 10.296875 "/>
<path style=" stroke:none;fill-rule:evenodd;fill:rgb(98.431373%,75.686275%,10.980392%);fill-opacity:1;" d="M 22.671875 10.171875 C 22.546875 10.105469 22.367188 10.148438 22.472656 10.207031 C 22.578125 10.269531 22.710938 10.417969 22.785156 10.410156 C 22.863281 10.40625 22.832031 10.253906 22.671875 10.171875 Z M 22.671875 10.171875 "/>
<path style=" stroke:none;fill-rule:evenodd;fill:rgb(98.431373%,75.686275%,10.980392%);fill-opacity:1;" d="M 22.054688 11 C 21.816406 11 21.703125 11.046875 21.75 11.113281 C 21.792969 11.183594 22.03125 11.378906 22.375 11.378906 C 22.71875 11.378906 22.992188 11.371094 23.152344 11.242188 C 23.3125 11.113281 23.363281 11.046875 23.1875 11.046875 C 23.015625 11.046875 22.433594 11 22.054688 11 Z M 22.054688 11 "/>
<path style=" stroke:none;fill-rule:evenodd;fill:rgb(98.431373%,75.686275%,10.980392%);fill-opacity:1;" d="M 13.660156 10.207031 C 13.769531 10.421875 13.761719 10.773438 13.859375 10.941406 C 13.941406 11.074219 14.273438 11.214844 14.453125 11.304688 C 14.636719 11.394531 14.621094 11.644531 14.476562 11.683594 C 14.332031 11.71875 14.148438 11.6875 13.898438 11.378906 C 13.648438 11.070312 13.609375 10.675781 13.113281 10.246094 C 12.617188 9.816406 11.878906 9.808594 11.148438 9.785156 C 10.414062 9.761719 9.738281 9.875 9.097656 9.90625 C 8.457031 9.9375 7.695312 9.945312 7.144531 9.875 C 6.597656 9.808594 6.253906 9.714844 6.199219 9.648438 C 6.148438 9.582031 6.171875 9.53125 6.414062 9.589844 C 6.976562 9.722656 7.398438 9.777344 8.160156 9.785156 C 8.921875 9.792969 9.746094 9.671875 10.695312 9.589844 C 11.648438 9.503906 12.351562 9.460938 12.878906 9.597656 C 13.257812 9.695312 13.53125 9.949219 13.660156 10.207031 Z M 13.660156 10.207031 "/>
<path style=" stroke:none;fill-rule:evenodd;fill:rgb(98.431373%,75.686275%,10.980392%);fill-opacity:1;" d="M 6.640625 9.988281 C 6.332031 9.933594 6.140625 9.972656 6.324219 10.070312 C 6.503906 10.171875 6.832031 10.320312 7.261719 10.375 C 7.6875 10.425781 8.394531 10.417969 8.828125 10.335938 C 9.265625 10.253906 9.621094 10.15625 9.957031 10.125 C 10.292969 10.09375 10.363281 10.070312 10.414062 10.0625 C 10.46875 10.058594 10.542969 10.101562 10.605469 10.132812 C 10.667969 10.164062 10.949219 10.148438 11.046875 10.132812 C 11.148438 10.117188 11.230469 10.011719 11.34375 10.070312 C 11.460938 10.132812 11.582031 10.246094 11.703125 10.222656 C 11.824219 10.199219 11.863281 10.101562 11.863281 10.050781 C 11.863281 9.996094 11.757812 9.875 11.476562 9.882812 C 11.191406 9.890625 10.40625 9.972656 9.757812 10.011719 C 9.113281 10.050781 7.566406 10.148438 6.640625 9.988281 Z M 6.640625 9.988281 "/>
<path style=" stroke:none;fill-rule:evenodd;fill:rgb(98.431373%,75.686275%,10.980392%);fill-opacity:1;" d="M 7.246094 10.519531 C 7.039062 10.511719 7 10.554688 7.238281 10.660156 C 7.472656 10.765625 7.808594 10.835938 8.066406 10.851562 C 8.328125 10.867188 8.867188 10.867188 9.25 10.707031 C 9.628906 10.546875 9.660156 10.539062 9.773438 10.617188 C 9.890625 10.691406 9.941406 10.609375 10.027344 10.53125 C 10.109375 10.457031 10.253906 10.457031 10.398438 10.527344 C 10.542969 10.59375 10.613281 10.617188 10.644531 10.503906 C 10.675781 10.390625 10.636719 10.320312 10.421875 10.351562 C 10.210938 10.382812 9.316406 10.488281 8.914062 10.503906 C 8.511719 10.519531 7.90625 10.53125 7.246094 10.519531 Z M 7.246094 10.519531 "/>
<path style=" stroke:none;fill-rule:evenodd;fill:rgb(98.431373%,75.686275%,10.980392%);fill-opacity:1;" d="M 7.984375 10.992188 C 7.726562 10.988281 7.578125 11.039062 7.777344 11.152344 C 7.976562 11.265625 8.25 11.328125 8.835938 11.304688 C 9.425781 11.28125 9.757812 11.175781 10.101562 11.0625 C 10.445312 10.949219 10.460938 10.917969 10.667969 10.964844 C 10.871094 11.007812 10.886719 10.949219 11.117188 10.941406 C 11.34375 10.933594 11.390625 11.007812 11.519531 11.007812 C 11.648438 11.007812 11.628906 10.957031 11.710938 10.917969 C 11.792969 10.878906 11.847656 10.917969 11.925781 10.972656 C 12 11.023438 12.257812 11.128906 12.128906 10.988281 C 12 10.84375 11.894531 10.738281 11.640625 10.757812 C 11.390625 10.78125 10.460938 10.835938 9.835938 10.878906 C 9.210938 10.925781 8.480469 11 7.984375 10.992188 Z M 7.984375 10.992188 "/>
<path style=" stroke:none;fill-rule:evenodd;fill:rgb(98.431373%,75.686275%,10.980392%);fill-opacity:1;" d="M 9.410156 11.433594 C 9.335938 11.519531 9.386719 11.539062 9.628906 11.546875 C 9.875 11.554688 10.019531 11.46875 10.390625 11.449219 C 10.765625 11.425781 10.917969 11.453125 11.09375 11.476562 C 11.269531 11.5 11.328125 11.570312 11.078125 11.589844 C 10.828125 11.613281 10.566406 11.644531 10.171875 11.652344 C 9.773438 11.660156 9.652344 11.78125 9.652344 11.832031 C 9.652344 11.886719 9.753906 11.921875 10.101562 11.871094 C 10.453125 11.816406 10.949219 11.832031 11.230469 11.742188 C 11.511719 11.652344 11.589844 11.507812 11.398438 11.433594 C 11.207031 11.355469 11.117188 11.265625 10.996094 11.222656 C 10.871094 11.175781 10.75 11.183594 10.605469 11.199219 C 10.460938 11.214844 10.238281 11.222656 10.035156 11.226562 C 9.828125 11.234375 9.53125 11.289062 9.410156 11.433594 Z M 9.410156 11.433594 "/>
<path style=" stroke:none;fill-rule:evenodd;fill:rgb(98.431373%,75.686275%,10.980392%);fill-opacity:1;" d="M 11.40625 11.871094 C 11.179688 11.90625 11.140625 11.976562 11.167969 12.050781 C 11.199219 12.128906 11.320312 12.210938 11.621094 12.089844 C 11.917969 11.96875 12.28125 11.789062 12.425781 11.71875 C 12.570312 11.652344 12.550781 11.597656 12.441406 11.613281 C 12.335938 11.628906 12.121094 11.734375 12 11.773438 C 11.878906 11.808594 11.648438 11.832031 11.40625 11.871094 Z M 11.40625 11.871094 "/>
<path style=" stroke:none;fill-rule:evenodd;fill:rgb(98.431373%,75.686275%,10.980392%);fill-opacity:1;" d="M 12.167969 11.347656 C 12.035156 11.300781 11.992188 11.347656 12.085938 11.441406 C 12.175781 11.53125 12.273438 11.5625 12.359375 11.539062 C 12.441406 11.515625 12.449219 11.410156 12.382812 11.410156 C 12.3125 11.410156 12.230469 11.371094 12.167969 11.347656 Z M 12.167969 11.347656 "/>
<path style=" stroke:none;fill-rule:evenodd;fill:rgb(98.431373%,75.686275%,10.980392%);fill-opacity:1;" d="M 10.925781 10.34375 C 10.796875 10.351562 10.675781 10.425781 10.8125 10.441406 C 10.949219 10.457031 11.046875 10.496094 11.09375 10.53125 C 11.140625 10.570312 11.214844 10.578125 11.285156 10.570312 C 11.351562 10.5625 11.390625 10.519531 11.316406 10.511719 C 11.238281 10.503906 11.175781 10.464844 11.261719 10.40625 C 11.34375 10.34375 11.328125 10.292969 11.253906 10.285156 C 11.175781 10.277344 11.070312 10.335938 10.925781 10.34375 Z M 10.925781 10.34375 "/>
<path style=" stroke:none;fill-rule:evenodd;fill:rgb(98.431373%,75.686275%,10.980392%);fill-opacity:1;" d="M 11.710938 10.449219 C 11.542969 10.433594 11.4375 10.488281 11.535156 10.511719 C 11.632812 10.53125 11.71875 10.601562 11.789062 10.652344 C 11.855469 10.707031 11.945312 10.746094 11.933594 10.640625 C 11.917969 10.53125 11.863281 10.464844 11.710938 10.449219 Z M 11.710938 10.449219 "/>
<path style=" stroke:none;fill-rule:evenodd;fill:rgb(98.431373%,75.686275%,10.980392%);fill-opacity:1;" d="M 12.257812 10.546875 C 12.117188 10.507812 12.046875 10.570312 12.144531 10.625 C 12.246094 10.675781 12.359375 10.773438 12.457031 10.753906 C 12.558594 10.730469 12.566406 10.683594 12.480469 10.625 C 12.398438 10.5625 12.34375 10.570312 12.257812 10.546875 Z M 12.257812 10.546875 "/>
<path style=" stroke:none;fill-rule:evenodd;fill:rgb(98.431373%,75.686275%,10.980392%);fill-opacity:1;" d="M 12.265625 10.101562 C 12.191406 10.035156 12.191406 10.164062 12.214844 10.277344 C 12.238281 10.390625 12.28125 10.457031 12.351562 10.441406 C 12.417969 10.425781 12.441406 10.261719 12.265625 10.101562 Z M 12.265625 10.101562 "/>
<path style=" stroke:none;fill-rule:evenodd;fill:rgb(98.431373%,75.686275%,10.980392%);fill-opacity:1;" d="M 12.601562 10.125 C 12.445312 10.054688 12.414062 10.15625 12.496094 10.214844 C 12.578125 10.277344 12.664062 10.34375 12.71875 10.335938 C 12.769531 10.328125 12.808594 10.214844 12.601562 10.125 Z M 12.601562 10.125 "/>
<path style=" stroke:none;fill-rule:evenodd;fill:rgb(98.431373%,75.686275%,10.980392%);fill-opacity:1;" d="M 12.578125 11.039062 C 12.457031 11.03125 12.433594 11.078125 12.542969 11.144531 C 12.648438 11.214844 12.769531 11.199219 12.769531 11.136719 C 12.769531 11.078125 12.726562 11.046875 12.578125 11.039062 Z M 12.578125 11.039062 "/>
<path style=" stroke:none;fill-rule:evenodd;fill:rgb(98.431373%,75.686275%,10.980392%);fill-opacity:1;" d="M 12.304688 12.074219 C 12.125 12.1875 12.070312 12.242188 12.152344 12.285156 C 12.238281 12.332031 12.417969 12.347656 12.550781 12.316406 C 12.679688 12.285156 12.863281 12.164062 12.929688 12.121094 C 13 12.074219 13.082031 11.953125 12.945312 11.945312 C 12.808594 11.9375 12.640625 11.863281 12.304688 12.074219 Z M 12.304688 12.074219 "/>
<path style=" stroke:none;fill-rule:evenodd;fill:rgb(98.431373%,75.686275%,10.980392%);fill-opacity:1;" d="M 13.007812 10.632812 C 12.855469 10.480469 12.761719 10.496094 12.761719 10.59375 C 12.761719 10.691406 12.847656 10.78125 12.914062 10.835938 C 12.984375 10.886719 13.128906 10.894531 13.167969 10.859375 C 13.203125 10.820312 13.113281 10.738281 13.007812 10.632812 Z M 13.007812 10.632812 "/>
<path style=" stroke:none;fill-rule:evenodd;fill:rgb(98.431373%,75.686275%,10.980392%);fill-opacity:1;" d="M 13.191406 11.046875 C 13.222656 11.125 13.265625 11.257812 13.394531 11.296875 C 13.523438 11.335938 13.640625 11.386719 13.640625 11.441406 C 13.640625 11.492188 13.570312 11.523438 13.402344 11.453125 C 13.234375 11.386719 13.089844 11.257812 13.066406 11.183594 C 13.042969 11.105469 13.136719 10.925781 13.191406 11.046875 Z M 13.191406 11.046875 "/>
<path style=" stroke:none;fill-rule:evenodd;fill:rgb(98.431373%,75.686275%,10.980392%);fill-opacity:1;" d="M 13.175781 11.53125 C 12.976562 11.476562 12.878906 11.53125 12.992188 11.636719 C 13.105469 11.742188 13.296875 11.863281 13.402344 11.886719 C 13.507812 11.910156 13.601562 11.902344 13.59375 11.808594 C 13.585938 11.71875 13.457031 11.605469 13.175781 11.53125 Z M 13.175781 11.53125 "/>
<path style=" stroke:none;fill-rule:evenodd;fill:rgb(7.45098%,58.039216%,41.568627%);fill-opacity:1;" d="M 15.9375 16.015625 C 15.910156 15.972656 15.902344 15.914062 15.898438 15.855469 C 15.898438 15.828125 15.898438 15.75 15.9375 15.691406 Z M 15.9375 16.015625 "/>
<path style=" stroke:none;fill-rule:evenodd;fill:rgb(83.921569%,22.352941%,20.784314%);fill-opacity:1;" d="M 15.9375 16.171875 L 15.9375 16.601562 C 16.394531 16.601562 16.773438 16.539062 17.175781 16.472656 C 17.539062 16.410156 17.914062 16.351562 18.367188 16.332031 C 19.597656 16.277344 20.667969 16.410156 22.175781 17.242188 C 23.03125 17.714844 23.699219 18.1875 24.125 18.515625 C 24.007812 18.171875 23.800781 17.71875 23.457031 17.25 L 23.265625 16.996094 L 23.578125 16.921875 C 23.605469 16.914062 24.070312 16.8125 24.800781 16.828125 C 24.359375 16.507812 23.53125 16.003906 22.082031 15.386719 C 20.40625 14.671875 19.03125 14.445312 17.882812 14.691406 C 17.226562 14.832031 16.484375 14.917969 15.9375 14.917969 L 15.9375 15.542969 C 15.972656 15.53125 16.011719 15.519531 16.0625 15.519531 C 16.097656 15.519531 16.1875 15.519531 16.261719 15.589844 C 16.296875 15.621094 16.3125 15.660156 16.328125 15.703125 L 16.199219 15.738281 C 16.179688 15.667969 16.125 15.628906 16.058594 15.632812 C 15.996094 15.632812 15.957031 15.660156 15.9375 15.691406 L 15.9375 16.015625 C 15.9375 16.015625 15.9375 16.015625 15.9375 16.019531 C 15.964844 16.054688 16.007812 16.078125 16.066406 16.078125 C 16.152344 16.074219 16.191406 16.007812 16.207031 15.9375 L 16.335938 15.972656 C 16.324219 16.027344 16.285156 16.183594 16.070312 16.191406 C 16.019531 16.191406 15.976562 16.183594 15.9375 16.164062 Z M 15.9375 16.171875 "/>
<path style=" stroke:none;fill-rule:evenodd;fill:rgb(7.45098%,58.039216%,41.568627%);fill-opacity:1;" d="M 15.9375 16.175781 L 15.9375 16.601562 C 15.476562 16.601562 15.097656 16.539062 14.695312 16.472656 C 14.332031 16.410156 13.957031 16.351562 13.507812 16.332031 C 12.273438 16.277344 11.207031 16.410156 9.695312 17.242188 C 8.839844 17.714844 8.171875 18.1875 7.746094 18.515625 C 7.867188 18.171875 8.070312 17.71875 8.414062 17.25 L 8.605469 16.996094 L 8.292969 16.921875 C 8.269531 16.914062 7.800781 16.8125 7.070312 16.828125 C 7.515625 16.507812 8.339844 16.003906 9.789062 15.386719 C 11.464844 14.671875 12.839844 14.445312 13.992188 14.691406 C 14.644531 14.832031 15.390625 14.917969 15.9375 14.917969 L 15.9375 15.542969 C 15.8125 15.597656 15.761719 15.726562 15.761719 15.867188 C 15.765625 16.015625 15.832031 16.121094 15.9375 16.164062 Z M 15.9375 16.175781 "/>
<path style=" stroke:none;fill-rule:nonzero;fill:rgb(100%,100%,100%);fill-opacity:1;" d="M 17.886719 14.476562 C 17.960938 14.460938 18.035156 14.449219 18.113281 14.4375 L 18.128906 14.433594 C 17.945312 14.375 17.761719 14.320312 17.574219 14.277344 L 17.550781 14.273438 C 17.578125 14.320312 17.605469 14.371094 17.632812 14.417969 L 17.652344 14.417969 C 17.722656 14.4375 17.792969 14.457031 17.863281 14.476562 Z M 17.886719 14.476562 "/>
<path style=" stroke:none;fill-rule:nonzero;fill:rgb(100%,100%,100%);fill-opacity:1;" d="M 14.019531 14.472656 C 14.121094 14.445312 14.21875 14.417969 14.320312 14.394531 L 14.339844 14.390625 C 14.355469 14.347656 14.375 14.300781 14.398438 14.25 L 14.382812 14.257812 C 14.171875 14.304688 13.96875 14.359375 13.769531 14.425781 L 13.746094 14.433594 C 13.832031 14.445312 13.917969 14.460938 14.003906 14.480469 Z M 14.019531 14.472656 "/>
<path style=" stroke:none;fill-rule:nonzero;fill:rgb(100%,100%,100%);fill-opacity:1;" d="M 12.257812 14.429688 C 12.335938 14.382812 12.417969 14.339844 12.5 14.300781 L 12.429688 14.199219 C 12.253906 14.289062 12.082031 14.386719 11.914062 14.488281 L 11.898438 14.5 C 11.792969 14.519531 11.683594 14.542969 11.570312 14.566406 L 11.59375 14.554688 C 11.796875 14.417969 12.007812 14.289062 12.226562 14.171875 L 12.183594 14.082031 L 12.171875 14.0625 C 13.011719 13.609375 13.945312 13.300781 14.9375 13.175781 L 14.929688 13.199219 C 14.902344 13.300781 14.882812 13.421875 14.859375 13.503906 C 14.828125 13.617188 14.691406 13.8125 14.53125 14.039062 C 14.511719 14.066406 14.496094 14.089844 14.480469 14.109375 L 14.46875 14.113281 C 14.125 14.183594 13.789062 14.28125 13.46875 14.402344 L 13.457031 14.402344 C 13.085938 14.371094 12.679688 14.382812 12.226562 14.445312 Z M 12.257812 14.429688 "/>
<path style=" stroke:none;fill-rule:nonzero;fill:rgb(100%,100%,100%);fill-opacity:1;" d="M 17.667969 13.304688 C 18.417969 13.46875 19.121094 13.742188 19.769531 14.097656 L 19.78125 14.109375 L 19.796875 14.253906 C 19.96875 14.351562 20.136719 14.457031 20.300781 14.566406 L 20.285156 14.566406 C 20.1875 14.542969 20.085938 14.519531 19.988281 14.503906 L 19.972656 14.5 C 19.851562 14.425781 19.726562 14.351562 19.601562 14.28125 L 19.523438 14.378906 C 19.5625 14.398438 19.601562 14.421875 19.644531 14.445312 L 19.621094 14.441406 C 19.179688 14.382812 18.78125 14.371094 18.421875 14.402344 L 18.40625 14.402344 C 18.113281 14.292969 17.8125 14.203125 17.503906 14.136719 L 17.480469 14.128906 C 17.390625 13.9375 17.332031 13.746094 17.328125 13.632812 C 17.320312 13.433594 17.433594 13.3125 17.632812 13.300781 Z M 17.667969 13.304688 "/>
<path style=" stroke:none;fill-rule:nonzero;fill:rgb(100%,100%,100%);fill-opacity:1;" d="M 17.265625 26.691406 C 20.269531 26.101562 22.535156 23.554688 22.535156 20.511719 C 22.535156 19.277344 22.164062 18.121094 21.515625 17.148438 L 21.539062 17.152344 C 21.589844 17.179688 21.640625 17.203125 21.695312 17.230469 L 21.726562 17.246094 C 22.316406 18.203125 22.660156 19.320312 22.660156 20.511719 C 22.660156 23.675781 20.257812 26.3125 17.105469 26.84375 L 17.125 26.824219 C 17.160156 26.78125 17.199219 26.738281 17.238281 26.695312 Z M 17.265625 26.691406 "/>
<path style=" stroke:none;fill-rule:nonzero;fill:rgb(100%,100%,100%);fill-opacity:1;" d="M 14.605469 26.691406 C 11.601562 26.101562 9.335938 23.554688 9.335938 20.511719 C 9.335938 19.28125 9.707031 18.132812 10.347656 17.160156 L 10.355469 17.144531 C 10.285156 17.175781 10.214844 17.210938 10.144531 17.246094 L 10.132812 17.269531 C 9.546875 18.222656 9.214844 19.332031 9.214844 20.511719 C 9.214844 23.667969 11.601562 26.296875 14.738281 26.839844 L 14.761719 26.839844 C 14.71875 26.792969 14.675781 26.746094 14.632812 26.695312 Z M 14.605469 26.691406 "/>
<path style=" stroke:none;fill-rule:nonzero;fill:rgb(100%,100%,100%);fill-opacity:1;" d="M 16.953125 27.003906 C 16.457031 27.527344 16.082031 27.828125 15.992188 27.898438 L 15.980469 27.910156 C 16.246094 27.90625 16.511719 27.894531 16.773438 27.867188 L 16.796875 27.863281 L 16.820312 27.738281 C 19.011719 27.492188 20.921875 26.347656 22.132812 24.695312 L 22.164062 24.804688 L 22.175781 24.84375 C 23.09375 23.625 23.632812 22.128906 23.632812 20.511719 C 23.632812 19.6875 23.492188 18.898438 23.234375 18.15625 L 23.226562 18.132812 C 23.171875 18.09375 23.113281 18.058594 23.054688 18.019531 L 23.066406 18.046875 C 23.355469 18.816406 23.511719 19.648438 23.511719 20.511719 C 23.511719 22.035156 23.023438 23.453125 22.183594 24.621094 L 22.144531 24.464844 C 22.933594 23.332031 23.390625 21.972656 23.390625 20.511719 C 23.390625 19.601562 23.210938 18.730469 22.886719 17.929688 L 22.875 17.902344 C 22.820312 17.867188 22.757812 17.828125 22.699219 17.792969 L 22.710938 17.824219 C 23.070312 18.652344 23.269531 19.558594 23.269531 20.511719 C 23.269531 23.839844 20.847656 26.632812 17.609375 27.363281 L 17.597656 27.242188 C 20.773438 26.519531 23.148438 23.777344 23.148438 20.511719 C 23.148438 19.515625 22.925781 18.570312 22.527344 17.714844 L 22.511719 17.679688 C 22.449219 17.644531 22.386719 17.605469 22.324219 17.570312 L 22.339844 17.597656 C 22.777344 18.480469 23.023438 19.46875 23.023438 20.511719 C 23.023438 23.636719 20.8125 26.277344 17.804688 27.066406 L 17.761719 26.953125 C 20.722656 26.179688 22.902344 23.585938 22.902344 20.511719 C 22.902344 19.421875 22.628906 18.390625 22.140625 17.476562 L 22.128906 17.460938 C 22.113281 17.449219 22.09375 17.4375 22.074219 17.429688 C 22.035156 17.40625 21.929688 17.351562 21.929688 17.351562 C 22.472656 18.289062 22.78125 19.367188 22.78125 20.511719 C 22.78125 23.785156 20.257812 26.507812 16.972656 26.988281 Z M 16.953125 27.003906 "/>
<path style=" stroke:none;fill-rule:nonzero;fill:rgb(100%,100%,100%);fill-opacity:1;" d="M 14.875 26.984375 C 11.601562 26.496094 9.089844 23.78125 9.089844 20.511719 C 9.089844 19.375 9.394531 18.300781 9.933594 17.367188 L 9.945312 17.351562 C 9.894531 17.375 9.847656 17.402344 9.796875 17.429688 C 9.777344 17.4375 9.757812 17.449219 9.738281 17.460938 L 9.726562 17.488281 C 9.242188 18.394531 8.96875 19.425781 8.96875 20.511719 C 8.96875 22.050781 9.515625 23.46875 10.433594 24.601562 L 10.355469 24.695312 C 9.410156 23.539062 8.847656 22.089844 8.847656 20.511719 C 8.847656 19.464844 9.09375 18.472656 9.539062 17.589844 L 9.546875 17.570312 C 9.484375 17.605469 9.417969 17.644531 9.359375 17.679688 L 9.347656 17.699219 C 8.949219 18.558594 8.726562 19.511719 8.726562 20.511719 C 8.726562 22.269531 9.410156 23.875 10.542969 25.09375 L 10.460938 25.183594 C 9.304688 23.941406 8.601562 22.304688 8.601562 20.511719 C 8.601562 19.554688 8.804688 18.640625 9.167969 17.808594 L 9.171875 17.792969 C 9.109375 17.832031 9.050781 17.867188 8.992188 17.90625 L 8.984375 17.925781 C 8.660156 18.726562 8.480469 19.601562 8.480469 20.511719 C 8.480469 22.671875 9.480469 24.609375 11.0625 25.921875 L 10.996094 26.027344 C 9.382812 24.691406 8.359375 22.714844 8.359375 20.511719 C 8.359375 19.644531 8.519531 18.808594 8.8125 18.035156 L 8.816406 18.015625 C 8.757812 18.054688 8.703125 18.09375 8.648438 18.128906 L 8.640625 18.148438 C 8.378906 18.890625 8.238281 19.6875 8.238281 20.511719 C 8.238281 24.578125 11.667969 27.886719 15.894531 27.910156 L 15.878906 27.894531 C 15.789062 27.824219 15.40625 27.519531 14.902344 26.988281 Z M 14.875 26.984375 "/>
<path style=" stroke:none;fill-rule:nonzero;fill:rgb(13.72549%,12.156863%,12.54902%);fill-opacity:1;" d="M 8.785156 16.433594 L 8.960938 16.347656 L 9.265625 16.6875 L 9.269531 16.6875 L 9.167969 16.238281 L 9.347656 16.148438 L 9.644531 16.730469 L 9.535156 16.785156 L 9.300781 16.328125 L 9.421875 16.84375 L 9.308594 16.898438 L 8.957031 16.5 L 8.957031 16.503906 L 9.191406 16.957031 L 9.082031 17.011719 Z M 8.785156 16.433594 "/>
<path style=" stroke:none;fill-rule:nonzero;fill:rgb(13.72549%,12.156863%,12.54902%);fill-opacity:1;" d="M 9.484375 16.085938 L 9.929688 15.890625 L 9.972656 15.992188 L 9.648438 16.132812 L 9.707031 16.265625 L 10.007812 16.132812 L 10.054688 16.234375 L 9.753906 16.367188 L 9.824219 16.527344 L 10.160156 16.378906 L 10.203125 16.480469 L 9.75 16.679688 Z M 9.484375 16.085938 "/>
<path style=" stroke:none;fill-rule:nonzero;fill:rgb(13.72549%,12.156863%,12.54902%);fill-opacity:1;" d="M 10.070312 15.835938 L 10.191406 15.789062 L 10.589844 16.109375 L 10.441406 15.699219 L 10.558594 15.660156 L 10.78125 16.269531 L 10.65625 16.3125 L 10.265625 16.003906 L 10.261719 16.003906 L 10.410156 16.402344 L 10.292969 16.445312 Z M 10.070312 15.835938 "/>
<path style=" stroke:none;fill-rule:nonzero;fill:rgb(13.72549%,12.156863%,12.54902%);fill-opacity:1;" d="M 10.929688 15.992188 C 10.945312 16.023438 10.984375 16.105469 11.097656 16.074219 C 11.1875 16.050781 11.210938 15.996094 11.199219 15.953125 C 11.183594 15.902344 11.136719 15.902344 11.015625 15.90625 C 10.945312 15.90625 10.796875 15.910156 10.761719 15.773438 C 10.742188 15.707031 10.757812 15.585938 10.941406 15.535156 C 11.066406 15.503906 11.191406 15.519531 11.234375 15.660156 L 11.109375 15.699219 C 11.09375 15.667969 11.070312 15.613281 10.96875 15.640625 C 10.929688 15.652344 10.867188 15.679688 10.878906 15.730469 C 10.890625 15.773438 10.933594 15.777344 11.042969 15.773438 C 11.144531 15.769531 11.285156 15.765625 11.328125 15.921875 C 11.347656 15.996094 11.316406 16.074219 11.269531 16.113281 C 11.21875 16.15625 11.15625 16.171875 11.128906 16.179688 C 11.058594 16.199219 10.890625 16.238281 10.808594 16.039062 Z M 10.929688 15.992188 "/>
<path style=" stroke:none;fill-rule:nonzero;fill:rgb(13.72549%,12.156863%,12.54902%);fill-opacity:1;" d="M 11.363281 15.804688 L 11.605469 15.753906 L 11.632812 15.875 L 11.390625 15.925781 Z M 11.363281 15.804688 "/>
<path style=" stroke:none;fill-rule:nonzero;fill:rgb(13.72549%,12.156863%,12.54902%);fill-opacity:1;" d="M 11.8125 15.792969 C 11.824219 15.828125 11.851562 15.914062 11.972656 15.898438 C 12.0625 15.886719 12.09375 15.832031 12.085938 15.792969 C 12.078125 15.738281 12.03125 15.734375 11.910156 15.71875 C 11.84375 15.710938 11.695312 15.699219 11.675781 15.554688 C 11.664062 15.484375 11.695312 15.371094 11.886719 15.34375 C 12.011719 15.324219 12.136719 15.359375 12.160156 15.503906 L 12.03125 15.527344 C 12.019531 15.496094 12 15.4375 11.898438 15.449219 C 11.859375 15.457031 11.789062 15.476562 11.796875 15.527344 C 11.804688 15.570312 11.847656 15.582031 11.953125 15.59375 C 12.054688 15.601562 12.195312 15.617188 12.21875 15.773438 C 12.226562 15.851562 12.1875 15.925781 12.132812 15.957031 C 12.082031 15.992188 12.015625 16.003906 11.984375 16.007812 C 11.914062 16.015625 11.742188 16.035156 11.6875 15.824219 Z M 11.8125 15.792969 "/>
<path style=" stroke:none;fill-rule:nonzero;fill:rgb(13.72549%,12.156863%,12.54902%);fill-opacity:1;" d="M 12.773438 15.929688 L 12.707031 15.785156 L 12.449219 15.800781 L 12.402344 15.949219 L 12.261719 15.957031 L 12.480469 15.296875 L 12.621094 15.289062 L 12.917969 15.921875 L 12.773438 15.929688 M 12.660156 15.679688 L 12.558594 15.441406 L 12.480469 15.6875 Z M 12.660156 15.679688 "/>
<path style=" stroke:none;fill-rule:nonzero;fill:rgb(13.72549%,12.156863%,12.54902%);fill-opacity:1;" d="M 12.980469 15.277344 L 13.109375 15.277344 L 13.367188 15.714844 L 13.371094 15.714844 L 13.378906 15.28125 L 13.5 15.285156 L 13.488281 15.933594 L 13.355469 15.929688 L 13.101562 15.503906 L 13.09375 15.925781 L 12.972656 15.925781 Z M 12.980469 15.277344 "/>
<path style=" stroke:none;fill-rule:nonzero;fill:rgb(13.72549%,12.156863%,12.54902%);fill-opacity:1;" d="M 14.054688 15.972656 L 14.007812 15.824219 L 13.75 15.800781 L 13.683594 15.941406 L 13.542969 15.933594 L 13.851562 15.304688 L 13.988281 15.316406 L 14.195312 15.984375 L 14.054688 15.972656 M 13.976562 15.710938 L 13.90625 15.460938 L 13.796875 15.695312 Z M 13.976562 15.710938 "/>
<path style=" stroke:none;fill-rule:nonzero;fill:rgb(13.72549%,12.156863%,12.54902%);fill-opacity:1;" d="M 14.25 15.699219 L 14.496094 15.730469 L 14.476562 15.851562 L 14.234375 15.820312 Z M 14.25 15.699219 "/>
<path style=" stroke:none;fill-rule:nonzero;fill:rgb(13.72549%,12.156863%,12.54902%);fill-opacity:1;" d="M 14.625 15.394531 L 14.757812 15.410156 L 14.660156 16.054688 L 14.53125 16.035156 Z M 14.625 15.394531 "/>
<path style=" stroke:none;fill-rule:nonzero;fill:rgb(13.72549%,12.156863%,12.54902%);fill-opacity:1;" d="M 14.875 15.433594 L 15.003906 15.449219 L 15.207031 15.914062 L 15.269531 15.488281 L 15.390625 15.503906 L 15.300781 16.144531 L 15.167969 16.128906 L 14.96875 15.671875 L 14.964844 15.671875 L 14.90625 16.089844 L 14.785156 16.074219 Z M 14.875 15.433594 "/>
<path style=" stroke:none;fill-rule:nonzero;fill:rgb(13.72549%,12.156863%,12.54902%);fill-opacity:1;" d="M 15.4375 15.859375 L 15.683594 15.878906 L 15.675781 16.003906 L 15.429688 15.984375 Z M 15.4375 15.859375 "/>
<path style=" stroke:none;fill-rule:nonzero;fill:rgb(13.72549%,12.156863%,12.54902%);fill-opacity:1;" d="M 16.6875 15.464844 C 16.898438 15.433594 17.023438 15.566406 17.046875 15.753906 C 17.070312 15.921875 17.007812 16.097656 16.78125 16.128906 C 16.535156 16.160156 16.441406 15.992188 16.417969 15.84375 C 16.390625 15.636719 16.484375 15.492188 16.6875 15.464844 M 16.605469 15.957031 C 16.632812 15.992188 16.683594 16.027344 16.765625 16.015625 C 16.832031 16.007812 16.9375 15.957031 16.910156 15.769531 C 16.902344 15.695312 16.863281 15.554688 16.703125 15.574219 C 16.554688 15.59375 16.542969 15.726562 16.554688 15.820312 C 16.5625 15.894531 16.585938 15.933594 16.605469 15.957031 Z M 16.605469 15.957031 "/>
<path style=" stroke:none;fill-rule:nonzero;fill:rgb(13.72549%,12.156863%,12.54902%);fill-opacity:1;" d="M 17.097656 15.414062 L 17.375 15.375 C 17.472656 15.363281 17.503906 15.367188 17.523438 15.371094 C 17.605469 15.386719 17.644531 15.457031 17.652344 15.519531 C 17.664062 15.589844 17.636719 15.65625 17.578125 15.691406 C 17.554688 15.707031 17.53125 15.714844 17.507812 15.722656 C 17.566406 15.746094 17.59375 15.765625 17.675781 15.859375 L 17.769531 15.976562 L 17.613281 15.996094 L 17.5 15.871094 C 17.40625 15.765625 17.394531 15.753906 17.308594 15.765625 L 17.28125 15.769531 L 17.320312 16.039062 L 17.1875 16.054688 L 17.097656 15.414062 M 17.265625 15.667969 L 17.363281 15.652344 C 17.402344 15.648438 17.460938 15.640625 17.480469 15.628906 C 17.523438 15.609375 17.523438 15.566406 17.519531 15.546875 C 17.515625 15.519531 17.503906 15.496094 17.476562 15.488281 C 17.449219 15.476562 17.433594 15.476562 17.347656 15.488281 L 17.246094 15.503906 Z M 17.265625 15.667969 "/>
<path style=" stroke:none;fill-rule:nonzero;fill:rgb(13.72549%,12.156863%,12.54902%);fill-opacity:1;" d="M 17.773438 15.324219 L 17.984375 15.308594 C 18.101562 15.300781 18.136719 15.300781 18.171875 15.3125 C 18.214844 15.332031 18.28125 15.375 18.289062 15.484375 C 18.296875 15.601562 18.234375 15.652344 18.195312 15.675781 C 18.152344 15.699219 18.082031 15.707031 18.023438 15.710938 L 17.9375 15.71875 L 17.957031 15.960938 L 17.824219 15.972656 L 17.773438 15.324219 M 17.914062 15.421875 L 17.929688 15.609375 L 18 15.601562 C 18.070312 15.597656 18.160156 15.589844 18.152344 15.496094 C 18.152344 15.472656 18.144531 15.449219 18.117188 15.433594 C 18.085938 15.410156 18.054688 15.414062 17.976562 15.417969 Z M 17.914062 15.421875 "/>
<path style=" stroke:none;fill-rule:nonzero;fill:rgb(13.72549%,12.156863%,12.54902%);fill-opacity:1;" d="M 18.695312 15.269531 C 18.90625 15.265625 19.011719 15.410156 19.015625 15.601562 C 19.015625 15.769531 18.933594 15.9375 18.703125 15.941406 C 18.457031 15.941406 18.382812 15.761719 18.382812 15.609375 C 18.378906 15.402344 18.492188 15.269531 18.695312 15.269531 M 18.550781 15.746094 C 18.574219 15.785156 18.621094 15.828125 18.699219 15.828125 C 18.769531 15.828125 18.878906 15.789062 18.878906 15.601562 C 18.878906 15.527344 18.855469 15.378906 18.695312 15.382812 C 18.546875 15.382812 18.515625 15.511719 18.515625 15.605469 C 18.519531 15.679688 18.535156 15.722656 18.550781 15.746094 Z M 18.550781 15.746094 "/>
<path style=" stroke:none;fill-rule:nonzero;fill:rgb(13.72549%,12.156863%,12.54902%);fill-opacity:1;" d="M 19.152344 15.28125 L 19.429688 15.296875 C 19.527344 15.304688 19.558594 15.316406 19.578125 15.324219 C 19.652344 15.355469 19.675781 15.433594 19.671875 15.496094 C 19.667969 15.566406 19.628906 15.628906 19.5625 15.648438 C 19.539062 15.65625 19.515625 15.664062 19.488281 15.664062 L 19.488281 15.667969 C 19.542969 15.699219 19.566406 15.726562 19.625 15.832031 L 19.695312 15.964844 L 19.539062 15.957031 L 19.453125 15.808594 C 19.378906 15.6875 19.371094 15.671875 19.285156 15.667969 L 19.257812 15.667969 L 19.242188 15.9375 L 19.109375 15.929688 L 19.152344 15.28125 M 19.265625 15.5625 L 19.363281 15.570312 C 19.402344 15.570312 19.457031 15.574219 19.480469 15.570312 C 19.527344 15.554688 19.535156 15.515625 19.535156 15.496094 C 19.539062 15.46875 19.53125 15.445312 19.507812 15.425781 C 19.484375 15.410156 19.46875 15.410156 19.378906 15.40625 L 19.273438 15.398438 Z M 19.265625 15.5625 "/>
<path style=" stroke:none;fill-rule:nonzero;fill:rgb(13.72549%,12.156863%,12.54902%);fill-opacity:1;" d="M 19.84375 15.332031 L 20.324219 15.40625 L 20.304688 15.511719 L 19.957031 15.460938 L 19.933594 15.601562 L 20.261719 15.652344 L 20.242188 15.761719 L 19.917969 15.710938 L 19.890625 15.886719 L 20.253906 15.941406 L 20.238281 16.046875 L 19.746094 15.972656 Z M 19.84375 15.332031 "/>
<path style=" stroke:none;fill-rule:nonzero;fill:rgb(13.72549%,12.156863%,12.54902%);fill-opacity:1;" d="M 20.351562 15.773438 L 20.59375 15.824219 L 20.566406 15.945312 L 20.324219 15.894531 Z M 20.351562 15.773438 "/>
<path style=" stroke:none;fill-rule:nonzero;fill:rgb(13.72549%,12.156863%,12.54902%);fill-opacity:1;" d="M 20.761719 15.941406 C 20.757812 15.976562 20.75 16.070312 20.867188 16.101562 C 20.953125 16.125 21.003906 16.089844 21.015625 16.050781 C 21.03125 15.996094 20.988281 15.972656 20.882812 15.914062 C 20.824219 15.878906 20.695312 15.804688 20.734375 15.667969 C 20.753906 15.601562 20.828125 15.507812 21.011719 15.558594 C 21.136719 15.59375 21.234375 15.675781 21.199219 15.816406 L 21.070312 15.785156 C 21.074219 15.753906 21.082031 15.691406 20.980469 15.664062 C 20.945312 15.652344 20.871094 15.644531 20.859375 15.695312 C 20.847656 15.734375 20.878906 15.761719 20.976562 15.816406 C 21.0625 15.863281 21.183594 15.933594 21.140625 16.085938 C 21.121094 16.160156 21.050781 16.210938 20.992188 16.222656 C 20.925781 16.230469 20.863281 16.214844 20.835938 16.207031 C 20.765625 16.1875 20.601562 16.132812 20.636719 15.917969 Z M 20.761719 15.941406 "/>
<path style=" stroke:none;fill-rule:nonzero;fill:rgb(13.72549%,12.156863%,12.54902%);fill-opacity:1;" d="M 21.585938 16.449219 L 21.585938 16.292969 L 21.339844 16.203125 L 21.238281 16.320312 L 21.105469 16.269531 L 21.574219 15.753906 L 21.707031 15.800781 L 21.722656 16.5 L 21.585938 16.449219 M 21.585938 16.175781 L 21.585938 15.917969 L 21.417969 16.113281 Z M 21.585938 16.175781 "/>
<path style=" stroke:none;fill-rule:nonzero;fill:rgb(13.72549%,12.156863%,12.54902%);fill-opacity:1;" d="M 22.042969 15.933594 L 22.15625 15.984375 L 22.21875 16.488281 L 22.222656 16.488281 L 22.402344 16.09375 L 22.511719 16.144531 L 22.242188 16.734375 L 22.121094 16.679688 L 22.058594 16.1875 L 21.882812 16.574219 L 21.769531 16.523438 Z M 22.042969 15.933594 "/>
<path style=" stroke:none;fill-rule:nonzero;fill:rgb(13.72549%,12.156863%,12.54902%);fill-opacity:1;" d="M 22.910156 16.332031 C 23.101562 16.433594 23.125 16.609375 23.039062 16.777344 C 22.957031 16.929688 22.804688 17.035156 22.601562 16.929688 C 22.382812 16.816406 22.402344 16.625 22.472656 16.492188 C 22.570312 16.304688 22.730469 16.242188 22.910156 16.332031 M 22.558594 16.691406 C 22.5625 16.734375 22.582031 16.792969 22.652344 16.832031 C 22.714844 16.863281 22.832031 16.878906 22.917969 16.714844 C 22.953125 16.648438 23.003906 16.507812 22.859375 16.433594 C 22.726562 16.367188 22.640625 16.464844 22.597656 16.550781 C 22.5625 16.613281 22.558594 16.660156 22.558594 16.691406 Z M 22.558594 16.691406 "/>
<path style=" stroke:none;fill-rule:nonzero;fill:rgb(100%,100%,100%);fill-opacity:1;" d="M 18.90625 16.53125 C 19.292969 16.539062 19.671875 16.570312 20.070312 16.652344 L 20.09375 16.65625 C 19.722656 16.785156 19.222656 16.945312 18.65625 17.085938 Z M 18.90625 16.53125 "/>
<path style=" stroke:none;fill-rule:nonzero;fill:rgb(100%,100%,100%);fill-opacity:1;" d="M 17.347656 17.351562 C 17.75 17.289062 18.140625 17.210938 18.507812 17.121094 L 18.773438 16.53125 C 18.640625 16.53125 18.507812 16.535156 18.375 16.542969 C 18.074219 16.554688 17.808594 16.585938 17.554688 16.625 Z M 17.347656 17.351562 "/>
<path style=" stroke:none;fill-rule:nonzero;fill:rgb(100%,100%,100%);fill-opacity:1;" d="M 16.542969 16.777344 C 16.84375 16.746094 17.125 16.695312 17.421875 16.644531 L 17.214844 17.371094 C 16.96875 17.402344 16.71875 17.429688 16.46875 17.445312 Z M 16.542969 16.777344 "/>
<path style=" stroke:none;fill-rule:nonzero;fill:rgb(100%,100%,100%);fill-opacity:1;" d="M 15.453125 16.792969 C 15.605469 16.804688 15.765625 16.8125 15.9375 16.8125 C 16.105469 16.8125 16.265625 16.804688 16.417969 16.792969 L 16.347656 17.453125 C 16.207031 17.460938 16.070312 17.464844 15.9375 17.464844 C 15.800781 17.464844 15.664062 17.460938 15.527344 17.453125 Z M 15.453125 16.792969 "/>
<path style=" stroke:none;fill-rule:nonzero;fill:rgb(100%,100%,100%);fill-opacity:1;" d="M 14.449219 16.648438 C 14.746094 16.695312 15.027344 16.746094 15.332031 16.777344 L 15.402344 17.445312 C 15.152344 17.429688 14.902344 17.402344 14.65625 17.371094 Z M 14.449219 16.648438 "/>
<path style=" stroke:none;fill-rule:nonzero;fill:rgb(100%,100%,100%);fill-opacity:1;" d="M 13.097656 16.53125 C 13.230469 16.53125 13.363281 16.535156 13.496094 16.542969 C 13.796875 16.554688 14.0625 16.585938 14.316406 16.625 L 14.523438 17.351562 C 14.121094 17.289062 13.730469 17.210938 13.363281 17.121094 Z M 13.097656 16.53125 "/>
<path style=" stroke:none;fill-rule:nonzero;fill:rgb(100%,100%,100%);fill-opacity:1;" d="M 13.214844 17.085938 C 12.660156 16.945312 12.167969 16.792969 11.796875 16.664062 L 11.777344 16.65625 C 12.183594 16.570312 12.570312 16.539062 12.964844 16.53125 Z M 13.214844 17.085938 "/>
<path style=" stroke:none;fill-rule:nonzero;fill:rgb(100%,100%,100%);fill-opacity:1;" d="M 20.546875 19.707031 C 20.636719 19.25 20.703125 18.824219 20.753906 18.441406 L 21.6875 17.996094 C 21.898438 18.4375 22.058594 18.910156 22.15625 19.402344 Z M 20.546875 19.707031 "/>
<path style=" stroke:none;fill-rule:nonzero;fill:rgb(100%,100%,100%);fill-opacity:1;" d="M 22.25 20.90625 C 22.257812 20.777344 22.261719 20.644531 22.261719 20.511719 C 22.261719 20.175781 22.234375 19.84375 22.175781 19.523438 L 20.519531 19.835938 C 20.460938 20.140625 20.386719 20.457031 20.300781 20.78125 Z M 22.25 20.90625 "/>
<path style=" stroke:none;fill-rule:nonzero;fill:rgb(100%,100%,100%);fill-opacity:1;" d="M 21.917969 22.484375 C 22.085938 22.019531 22.195312 21.535156 22.238281 21.03125 L 20.269531 20.902344 C 20.199219 21.171875 20.121094 21.445312 20.03125 21.722656 Z M 21.917969 22.484375 "/>
<path style=" stroke:none;fill-rule:nonzero;fill:rgb(100%,100%,100%);fill-opacity:1;" d="M 18.898438 25.84375 C 19.3125 25.636719 19.699219 25.382812 20.054688 25.089844 L 19.058594 24.082031 C 18.871094 24.441406 18.671875 24.773438 18.472656 25.085938 Z M 18.898438 25.84375 "/>
<path style=" stroke:none;fill-rule:nonzero;fill:rgb(100%,100%,100%);fill-opacity:1;" d="M 18.394531 25.199219 C 18.105469 25.632812 17.8125 26.019531 17.535156 26.355469 L 17.566406 26.34375 C 17.996094 26.238281 18.402344 26.085938 18.789062 25.898438 Z M 18.394531 25.199219 "/>
<path style=" stroke:none;fill-rule:nonzero;fill:rgb(100%,100%,100%);fill-opacity:1;" d="M 20.148438 25.011719 C 20.519531 24.695312 20.855469 24.335938 21.140625 23.941406 L 19.605469 22.902344 C 19.457031 23.277344 19.292969 23.632812 19.117188 23.96875 Z M 20.148438 25.011719 "/>
<path style=" stroke:none;fill-rule:nonzero;fill:rgb(100%,100%,100%);fill-opacity:1;" d="M 21.210938 23.84375 C 21.480469 23.457031 21.703125 23.039062 21.875 22.597656 L 19.992188 21.839844 C 19.890625 22.152344 19.777344 22.46875 19.652344 22.789062 Z M 21.210938 23.84375 "/>
<path style=" stroke:none;fill-rule:nonzero;fill:rgb(100%,100%,100%);fill-opacity:1;" d="M 21.632812 17.886719 C 21.46875 17.5625 21.273438 17.253906 21.050781 16.964844 L 21.035156 16.9375 C 20.988281 16.921875 20.878906 16.878906 20.878906 16.878906 C 20.871094 17.203125 20.84375 17.691406 20.769531 18.300781 Z M 21.632812 17.886719 "/>
<path style=" stroke:none;fill-rule:evenodd;fill:rgb(83.921569%,22.352941%,20.784314%);fill-opacity:1;" d="M 13.84375 21.878906 L 12.886719 22.746094 L 12.867188 22.765625 C 12.851562 22.730469 12.835938 22.695312 12.824219 22.660156 C 11.929688 20.425781 11.683594 18.34375 11.621094 17.246094 C 12.539062 17.5625 14.222656 18.050781 15.855469 18.066406 L 15.875 18.070312 L 15.875 18.945312 L 15.859375 18.945312 C 14.683594 18.988281 13.738281 19.949219 13.738281 21.125 C 13.738281 21.382812 13.78125 21.632812 13.867188 21.863281 Z M 13.84375 21.878906 "/>
<path style=" stroke:none;fill-rule:evenodd;fill:rgb(83.921569%,22.352941%,20.784314%);fill-opacity:1;" d="M 15.84375 23.304688 C 15.578125 23.292969 15.324219 23.234375 15.089844 23.140625 L 15.066406 23.128906 L 13.695312 24.371094 L 13.679688 24.382812 C 14.480469 25.714844 15.367188 26.628906 15.859375 27.082031 L 15.875 27.09375 L 15.875 23.304688 Z M 15.84375 23.304688 "/>
<path style=" stroke:none;fill-rule:nonzero;fill:rgb(100%,100%,100%);fill-opacity:1;" d="M 16.867188 19.140625 L 18.375 17.773438 L 18.339844 17.78125 C 17.617188 17.941406 16.816406 18.058594 16.023438 18.066406 L 15.996094 18.070312 L 15.996094 18.949219 L 16.015625 18.949219 C 16.308594 18.957031 16.585938 19.027344 16.839844 19.140625 L 16.859375 19.148438 Z M 16.867188 19.140625 "/>
<path style=" stroke:none;fill-rule:nonzero;fill:rgb(100%,100%,100%);fill-opacity:1;" d="M 15.996094 23.324219 L 15.996094 27.09375 L 16.011719 27.082031 C 16.691406 26.457031 18.132812 24.945312 19.050781 22.660156 C 19.65625 21.140625 19.964844 19.691406 20.121094 18.570312 L 20.121094 18.546875 L 18.023438 20.449219 L 18.03125 20.460938 C 18.097656 20.671875 18.132812 20.894531 18.132812 21.125 C 18.132812 22.308594 17.183594 23.273438 16 23.304688 Z M 15.996094 23.324219 "/>
<path style=" stroke:none;fill-rule:evenodd;fill:rgb(18.823529%,34.509804%,59.607843%);fill-opacity:1;" d="M 18.613281 17.722656 L 18.632812 17.714844 C 19.277344 17.5625 19.839844 17.386719 20.253906 17.246094 C 20.234375 17.542969 20.203125 17.914062 20.152344 18.34375 L 20.148438 18.359375 L 13.628906 24.269531 L 13.617188 24.277344 C 13.371094 23.855469 13.132812 23.390625 12.917969 22.886719 L 12.933594 22.871094 Z M 18.613281 17.722656 "/>
<path style=" stroke:none;fill-rule:nonzero;fill:rgb(100%,100%,100%);fill-opacity:1;" d="M 15.070312 22.25 C 15.113281 22.328125 15.246094 22.582031 14.972656 22.832031 C 14.742188 23.039062 14.4375 23.011719 14.199219 22.753906 C 13.988281 22.523438 13.917969 22.210938 14.1875 21.964844 C 14.234375 21.921875 14.355469 21.820312 14.53125 21.828125 C 14.613281 21.832031 14.679688 21.859375 14.75 21.902344 L 14.617188 22.09375 C 14.515625 22.023438 14.398438 22.039062 14.3125 22.117188 C 14.105469 22.304688 14.316406 22.53125 14.363281 22.585938 C 14.433594 22.664062 14.515625 22.730469 14.601562 22.753906 C 14.675781 22.773438 14.761719 22.757812 14.835938 22.6875 C 14.949219 22.585938 14.921875 22.457031 14.859375 22.347656 Z M 15.070312 22.25 "/>
<path style=" stroke:none;fill-rule:nonzero;fill:rgb(100%,100%,100%);fill-opacity:1;" d="M 15.300781 22.214844 L 15.460938 22.070312 L 15.609375 22.230469 L 15.445312 22.375 Z M 15.300781 22.214844 "/>
<path style=" stroke:none;fill-rule:nonzero;fill:rgb(100%,100%,100%);fill-opacity:1;" d="M 15.4375 20.859375 C 15.53125 20.773438 15.671875 20.648438 15.890625 20.707031 C 15.957031 20.726562 16.070312 20.761719 16.222656 20.925781 C 16.265625 20.976562 16.40625 21.125 16.40625 21.335938 C 16.40625 21.507812 16.265625 21.632812 16.210938 21.683594 L 15.894531 21.96875 L 15.128906 21.136719 L 15.4375 20.859375 M 15.425781 21.125 L 15.933594 21.675781 L 16.058594 21.5625 C 16.191406 21.445312 16.285156 21.34375 16.039062 21.078125 C 15.785156 20.800781 15.667969 20.910156 15.503906 21.058594 Z M 15.425781 21.125 "/>
<path style=" stroke:none;fill-rule:nonzero;fill:rgb(100%,100%,100%);fill-opacity:1;" d="M 16.589844 21.046875 L 16.75 20.902344 L 16.898438 21.058594 L 16.738281 21.203125 Z M 16.589844 21.046875 "/>
<path style=" stroke:none;fill-rule:nonzero;fill:rgb(100%,100%,100%);fill-opacity:1;" d="M 17.046875 20.402344 C 17.09375 20.4375 17.222656 20.535156 17.375 20.394531 C 17.492188 20.289062 17.484375 20.183594 17.433594 20.132812 C 17.371094 20.0625 17.296875 20.101562 17.109375 20.203125 C 17.007812 20.257812 16.78125 20.378906 16.609375 20.195312 C 16.527344 20.105469 16.457031 19.910156 16.703125 19.6875 C 16.867188 19.539062 17.074219 19.464844 17.253906 19.648438 L 17.089844 19.808594 C 17.046875 19.773438 16.960938 19.707031 16.828125 19.828125 C 16.777344 19.871094 16.699219 19.96875 16.761719 20.039062 C 16.8125 20.089844 16.886719 20.066406 17.046875 19.976562 C 17.203125 19.890625 17.414062 19.773438 17.601562 19.980469 C 17.695312 20.078125 17.710938 20.222656 17.667969 20.320312 C 17.625 20.421875 17.542969 20.503906 17.503906 20.539062 C 17.414062 20.617188 17.183594 20.8125 16.894531 20.566406 Z M 17.046875 20.402344 "/>
<path style=" stroke:none;fill-rule:nonzero;fill:rgb(100%,100%,100%);fill-opacity:1;" d="M 17.988281 19.78125 L 18.148438 19.636719 L 18.292969 19.792969 L 18.132812 19.941406 Z M 17.988281 19.78125 "/>
<path style=" stroke:none;fill-rule:nonzero;fill:rgb(100%,100%,100%);fill-opacity:1;" d="M 19.046875 18.648438 C 19.089844 18.730469 19.21875 18.984375 18.945312 19.230469 C 18.71875 19.4375 18.414062 19.414062 18.175781 19.152344 C 17.960938 18.921875 17.890625 18.609375 18.164062 18.363281 C 18.210938 18.320312 18.332031 18.21875 18.507812 18.226562 C 18.585938 18.230469 18.652344 18.261719 18.722656 18.304688 L 18.59375 18.492188 C 18.488281 18.421875 18.375 18.4375 18.289062 18.515625 C 18.078125 18.703125 18.289062 18.929688 18.335938 18.984375 C 18.410156 19.0625 18.492188 19.132812 18.574219 19.152344 C 18.648438 19.171875 18.734375 19.15625 18.8125 19.089844 C 18.921875 18.988281 18.898438 18.855469 18.835938 18.746094 Z M 19.046875 18.648438 "/>
<path style=" stroke:none;fill-rule:nonzero;fill:rgb(100%,100%,100%);fill-opacity:1;" d="M 19.273438 18.613281 L 19.433594 18.46875 L 19.582031 18.628906 L 19.421875 18.773438 Z M 19.273438 18.613281 "/>
<path style=" stroke:none;fill-rule:nonzero;fill:rgb(100%,100%,100%);fill-opacity:1;" d="M 10.238281 17.886719 C 10.40625 17.554688 10.605469 17.242188 10.832031 16.949219 L 10.84375 16.9375 C 10.890625 16.917969 10.941406 16.898438 10.992188 16.878906 L 10.992188 16.898438 C 11.003906 17.21875 11.03125 17.703125 11.101562 18.300781 Z M 10.238281 17.886719 "/>
<path style=" stroke:none;fill-rule:nonzero;fill:rgb(100%,100%,100%);fill-opacity:1;" d="M 11.324219 19.707031 C 11.234375 19.25 11.167969 18.824219 11.121094 18.441406 L 10.1875 17.996094 C 9.972656 18.4375 9.8125 18.910156 9.714844 19.402344 Z M 11.324219 19.707031 "/>
<path style=" stroke:none;fill-rule:nonzero;fill:rgb(100%,100%,100%);fill-opacity:1;" d="M 9.621094 20.90625 C 9.613281 20.777344 9.609375 20.644531 9.609375 20.511719 C 9.609375 20.175781 9.636719 19.84375 9.695312 19.523438 L 11.351562 19.835938 C 11.414062 20.140625 11.484375 20.457031 11.570312 20.78125 Z M 9.621094 20.90625 "/>
<path style=" stroke:none;fill-rule:nonzero;fill:rgb(100%,100%,100%);fill-opacity:1;" d="M 11.839844 21.722656 C 11.75 21.445312 11.671875 21.167969 11.601562 20.902344 L 9.632812 21.03125 C 9.675781 21.535156 9.789062 22.019531 9.957031 22.484375 Z M 11.839844 21.722656 "/>
<path style=" stroke:none;fill-rule:nonzero;fill:rgb(100%,100%,100%);fill-opacity:1;" d="M 12.21875 22.789062 C 12.09375 22.46875 11.980469 22.148438 11.878906 21.839844 L 9.996094 22.597656 C 10.167969 23.039062 10.394531 23.457031 10.664062 23.84375 Z M 12.21875 22.789062 "/>
<path style=" stroke:none;fill-rule:nonzero;fill:rgb(100%,100%,100%);fill-opacity:1;" d="M 11.722656 25.011719 C 11.351562 24.695312 11.019531 24.335938 10.730469 23.941406 L 12.265625 22.902344 C 12.414062 23.277344 12.582031 23.632812 12.753906 23.96875 Z M 11.722656 25.011719 "/>
<path style=" stroke:none;fill-rule:nonzero;fill:rgb(100%,100%,100%);fill-opacity:1;" d="M 13.398438 25.082031 C 13.199219 24.773438 13 24.441406 12.8125 24.082031 L 11.816406 25.089844 C 12.171875 25.382812 12.558594 25.632812 12.972656 25.84375 Z M 13.398438 25.082031 "/>
<path style=" stroke:none;fill-rule:nonzero;fill:rgb(100%,100%,100%);fill-opacity:1;" d="M 13.082031 25.898438 C 13.476562 26.089844 13.894531 26.242188 14.332031 26.351562 L 14.316406 26.328125 C 14.042969 26 13.757812 25.625 13.476562 25.199219 Z M 13.082031 25.898438 "/>
<path style=" stroke:none;fill-rule:evenodd;fill:rgb(98.431373%,75.686275%,10.980392%);fill-opacity:1;" d="M 16.132812 19.78125 C 15.894531 19.613281 15.699219 19.515625 15.601562 19.472656 L 15.589844 19.464844 C 15.621094 19.316406 15.695312 19.175781 15.757812 19.074219 L 15.773438 19.074219 C 15.828125 19.070312 15.878906 19.066406 15.933594 19.066406 C 16.226562 19.066406 16.5 19.125 16.753906 19.234375 L 16.761719 19.238281 L 16.148438 19.792969 Z M 16.132812 19.78125 "/>
<path style=" stroke:none;fill-rule:evenodd;fill:rgb(98.431373%,75.686275%,10.980392%);fill-opacity:1;" d="M 14.363281 20.464844 C 14.382812 20.328125 14.464844 20.035156 14.789062 19.769531 C 15.070312 19.539062 15.335938 19.472656 15.453125 19.453125 L 15.46875 19.449219 C 15.496094 19.316406 15.550781 19.191406 15.605469 19.09375 L 15.585938 19.097656 C 14.816406 19.226562 14.1875 19.777344 13.957031 20.503906 L 13.953125 20.515625 C 14.121094 20.496094 14.277344 20.488281 14.359375 20.488281 Z M 14.363281 20.464844 "/>
<path style=" stroke:none;fill-rule:evenodd;fill:rgb(98.431373%,75.686275%,10.980392%);fill-opacity:1;" d="M 14.824219 20.96875 C 14.625 20.785156 14.464844 20.660156 14.40625 20.613281 L 14.398438 20.609375 C 14.335938 20.609375 14.125 20.613281 13.917969 20.640625 L 13.914062 20.65625 C 13.878906 20.804688 13.859375 20.964844 13.859375 21.125 C 13.859375 21.351562 13.894531 21.566406 13.960938 21.769531 L 13.976562 21.761719 L 14.835938 20.980469 Z M 14.824219 20.96875 "/>
<path style=" stroke:none;fill-rule:evenodd;fill:rgb(98.431373%,75.686275%,10.980392%);fill-opacity:1;" d="M 16.042969 19.867188 C 15.773438 19.679688 15.558594 19.585938 15.511719 19.566406 C 15.453125 19.570312 15.167969 19.613281 14.867188 19.859375 C 14.535156 20.132812 14.484375 20.425781 14.480469 20.519531 C 14.542969 20.566406 14.710938 20.695312 14.917969 20.886719 L 14.929688 20.898438 L 16.054688 19.878906 Z M 16.042969 19.867188 "/>
<path style=" stroke:none;fill-rule:evenodd;fill:rgb(98.431373%,75.686275%,10.980392%);fill-opacity:1;" d="M 16.042969 22.628906 C 16.035156 22.707031 16.003906 22.921875 15.941406 23.167969 L 15.933594 23.183594 C 15.671875 23.183594 15.417969 23.136719 15.183594 23.046875 L 15.164062 23.039062 L 15.910156 22.363281 L 15.925781 22.347656 C 15.96875 22.433594 16.011719 22.523438 16.046875 22.613281 Z M 16.042969 22.628906 "/>
<path style=" stroke:none;fill-rule:evenodd;fill:rgb(98.431373%,75.686275%,10.980392%);fill-opacity:1;" d="M 16.160156 22.683594 C 16.148438 22.78125 16.117188 22.96875 16.0625 23.183594 L 16.078125 23.179688 C 16.863281 23.128906 17.527344 22.640625 17.832031 21.960938 L 17.835938 21.953125 C 17.65625 21.917969 17.539062 21.875 17.472656 21.847656 L 17.460938 21.875 C 17.394531 22.023438 17.234375 22.324219 16.972656 22.496094 C 16.691406 22.679688 16.308594 22.679688 16.160156 22.667969 Z M 16.160156 22.683594 "/>
<path style=" stroke:none;fill-rule:evenodd;fill:rgb(98.431373%,75.686275%,10.980392%);fill-opacity:1;" d="M 17.289062 21.144531 C 17.367188 21.316406 17.4375 21.503906 17.492188 21.707031 L 17.496094 21.722656 C 17.539062 21.746094 17.664062 21.800781 17.882812 21.835938 L 17.890625 21.824219 C 17.96875 21.605469 18.011719 21.371094 18.011719 21.125 C 18.011719 20.925781 17.984375 20.730469 17.929688 20.550781 L 17.925781 20.539062 L 17.28125 21.125 Z M 17.289062 21.144531 "/>
<path style=" stroke:none;fill-rule:evenodd;fill:rgb(98.431373%,75.686275%,10.980392%);fill-opacity:1;" d="M 17.164062 21.226562 L 16.03125 22.253906 L 16.019531 22.265625 C 16.066406 22.355469 16.109375 22.449219 16.148438 22.546875 C 16.261719 22.554688 16.640625 22.566406 16.90625 22.394531 C 17.1875 22.210938 17.347656 21.84375 17.378906 21.761719 C 17.328125 21.5625 17.261719 21.378906 17.183594 21.210938 Z M 17.164062 21.226562 "/>
</g>
</svg>
