<?xml version="1.0" encoding="UTF-8"?>
<svg xmlns="http://www.w3.org/2000/svg" xmlns:xlink="http://www.w3.org/1999/xlink" width="32px" height="32px" viewBox="0 0 32 42" version="1.1">
<g id="surface1">
<path style=" stroke:none;fill-rule:nonzero;fill:rgb(0%,58.039216%,28.235294%);fill-opacity:1;" d="M 5.9375 8.960938 L 5.9375 9.792969 L 7.054688 11.332031 L 6.695312 11.660156 C 6.414062 11.910156 6.160156 12.1875 5.9375 12.488281 L 5.9375 24.652344 C 5.9375 39.855469 28.308594 39.855469 28.308594 24.652344 L 28.308594 8.960938 Z M 5.9375 8.960938 "/>
<path style=" stroke:none;fill-rule:nonzero;fill:rgb(61.960784%,14.117647%,19.607843%);fill-opacity:1;" d="M 4.707031 15.328125 C 4.515625 16.109375 4.40625 16.90625 4.375 17.707031 C 4.375 17.882812 4.375 18.054688 4.375 18.226562 C 4.375 18.792969 4.375 19.289062 4.429688 19.695312 L 4.5 20.921875 L 4.5 21.03125 C 4.964844 21.457031 5.457031 21.855469 5.96875 22.21875 L 5.96875 16.59375 C 5.46875 16.257812 5.039062 15.828125 4.707031 15.328125 Z M 4.707031 15.328125 "/>
<path style=" stroke:none;fill-rule:nonzero;fill:rgb(79.607843%,28.235294%,21.960784%);fill-opacity:1;" d="M 4.417969 19.707031 C 4.417969 19.300781 4.417969 18.804688 4.367188 18.234375 L 4.367188 18.15625 C 4.367188 18.003906 4.367188 17.859375 4.367188 17.71875 C 4.394531 16.917969 4.507812 16.117188 4.699219 15.335938 C 4.695312 15.304688 4.695312 15.269531 4.699219 15.234375 C 4.917969 14.246094 5.34375 13.3125 5.9375 12.488281 C 6.160156 12.1875 6.414062 11.910156 6.695312 11.65625 L 7.054688 11.332031 L 5.980469 9.792969 L 4.023438 7.085938 L 3.570312 7.65625 C 1.199219 10.5625 0 12.957031 0 14.800781 C -0.00390625 15.308594 0.101562 15.8125 0.3125 16.28125 C 1.164062 17.734375 2.238281 19.054688 3.496094 20.191406 L 4.53125 21.03125 L 4.53125 20.929688 Z M 4.417969 19.707031 "/>
<path style=" stroke:none;fill-rule:nonzero;fill:rgb(61.960784%,14.117647%,19.607843%);fill-opacity:1;" d="M 28.339844 21.671875 L 28.339844 24.640625 C 28.339844 25.296875 28.296875 25.949219 28.203125 26.597656 C 29.324219 26.976562 30.40625 27.46875 31.421875 28.066406 C 31.609375 27.710938 31.773438 27.347656 31.9375 26.984375 C 31.742188 24.726562 30.382812 22.726562 28.339844 21.671875 Z M 28.339844 21.671875 "/>
<path style=" stroke:none;fill-rule:nonzero;fill:rgb(79.607843%,28.235294%,21.960784%);fill-opacity:1;" d="M 12.238281 39.632812 L 12.238281 39.691406 L 12.363281 39.691406 L 12.363281 39.621094 Z M 12.238281 39.632812 "/>
<path style=" stroke:none;fill-rule:nonzero;fill:rgb(79.607843%,28.235294%,21.960784%);fill-opacity:1;" d="M 19.65625 39.183594 C 19.589844 39.125 19.5 39.097656 19.410156 39.113281 C 19.316406 39.128906 19.238281 39.1875 19.191406 39.265625 C 19.152344 39.382812 19.152344 39.511719 19.191406 39.632812 C 19.207031 39.757812 19.261719 39.875 19.347656 39.964844 C 19.414062 40.03125 19.503906 40.058594 19.597656 40.046875 C 19.683594 40.027344 19.761719 39.972656 19.800781 39.894531 C 19.847656 39.773438 19.847656 39.640625 19.800781 39.519531 C 19.792969 39.394531 19.742188 39.277344 19.65625 39.183594 Z M 19.65625 39.183594 "/>
<path style=" stroke:none;fill-rule:nonzero;fill:rgb(79.607843%,28.235294%,21.960784%);fill-opacity:1;" d="M 7.789062 36.671875 C 7.707031 36.632812 7.605469 36.632812 7.523438 36.671875 C 7.417969 36.730469 7.339844 36.824219 7.304688 36.933594 C 7.265625 37.054688 7.265625 37.179688 7.304688 37.300781 C 7.324219 37.394531 7.386719 37.476562 7.46875 37.523438 C 7.554688 37.566406 7.65625 37.566406 7.738281 37.523438 C 7.9375 37.378906 8.042969 37.136719 8.007812 36.894531 C 7.976562 36.789062 7.894531 36.707031 7.789062 36.671875 Z M 7.789062 36.671875 "/>
<path style=" stroke:none;fill-rule:nonzero;fill:rgb(79.607843%,28.235294%,21.960784%);fill-opacity:1;" d="M 10.5 37.5625 C 10.453125 37.53125 10.402344 37.507812 10.347656 37.492188 L 9.972656 37.332031 L 9.789062 37.898438 L 10.160156 38.058594 C 10.253906 38.09375 10.355469 38.09375 10.449219 38.058594 C 10.523438 38.023438 10.578125 37.957031 10.59375 37.878906 C 10.613281 37.820312 10.613281 37.753906 10.59375 37.695312 C 10.578125 37.644531 10.546875 37.597656 10.5 37.5625 Z M 10.5 37.5625 "/>
<path style=" stroke:none;fill-rule:nonzero;fill:rgb(79.607843%,28.235294%,21.960784%);fill-opacity:1;" d="M 21.261719 39.742188 L 21.261719 39.824219 L 21.386719 39.824219 L 21.386719 39.710938 Z M 21.261719 39.742188 "/>
<path style=" stroke:none;fill-rule:nonzero;fill:rgb(79.607843%,28.235294%,21.960784%);fill-opacity:1;" d="M 6.984375 35.75 C 6.933594 35.707031 6.878906 35.667969 6.816406 35.636719 L 6.464844 35.464844 L 6.207031 35.941406 L 6.558594 36.164062 C 6.640625 36.226562 6.746094 36.257812 6.847656 36.246094 C 6.925781 36.222656 6.988281 36.167969 7.015625 36.09375 C 7.039062 36.035156 7.039062 35.96875 7.015625 35.910156 C 7.019531 35.855469 7.007812 35.800781 6.984375 35.75 Z M 6.984375 35.75 "/>
<path style=" stroke:none;fill-rule:nonzero;fill:rgb(79.607843%,28.235294%,21.960784%);fill-opacity:1;" d="M 13.585938 38.921875 C 13.496094 38.902344 13.402344 38.929688 13.335938 38.992188 C 13.257812 39.085938 13.210938 39.203125 13.210938 39.328125 C 13.191406 39.449219 13.207031 39.578125 13.265625 39.691406 C 13.308594 39.773438 13.390625 39.832031 13.480469 39.855469 C 13.570312 39.867188 13.660156 39.84375 13.730469 39.78125 C 13.816406 39.6875 13.863281 39.566406 13.863281 39.4375 C 13.882812 39.316406 13.867188 39.195312 13.8125 39.082031 C 13.765625 39 13.679688 38.9375 13.585938 38.921875 Z M 13.585938 38.921875 "/>
<path style=" stroke:none;fill-rule:nonzero;fill:rgb(79.607843%,28.235294%,21.960784%);fill-opacity:1;" d="M 11.234375 38.808594 L 11.058594 38.808594 C 11.035156 38.800781 11.003906 38.800781 10.976562 38.808594 C 10.953125 38.832031 10.933594 38.859375 10.925781 38.890625 C 10.90625 38.9375 10.90625 38.988281 10.925781 39.03125 C 10.957031 39.089844 11.015625 39.132812 11.082031 39.144531 C 11.140625 39.167969 11.207031 39.167969 11.265625 39.144531 C 11.328125 39.136719 11.386719 39.101562 11.421875 39.054688 C 11.464844 38.996094 11.496094 38.929688 11.503906 38.859375 L 11.503906 38.820312 C 11.414062 38.824219 11.324219 38.820312 11.234375 38.808594 Z M 11.234375 38.808594 "/>
<path style=" stroke:none;fill-rule:nonzero;fill:rgb(79.607843%,28.235294%,21.960784%);fill-opacity:1;" d="M 27.292969 35.355469 C 27.207031 35.332031 27.113281 35.355469 27.046875 35.414062 C 26.972656 35.472656 26.933594 35.558594 26.929688 35.648438 C 26.929688 35.773438 26.972656 35.894531 27.054688 35.992188 C 27.117188 36.101562 27.214844 36.183594 27.335938 36.226562 C 27.421875 36.253906 27.515625 36.234375 27.582031 36.175781 C 27.65625 36.113281 27.699219 36.027344 27.707031 35.933594 C 27.703125 35.800781 27.65625 35.671875 27.574219 35.566406 C 27.511719 35.464844 27.410156 35.386719 27.292969 35.355469 Z M 27.292969 35.355469 "/>
<path style=" stroke:none;fill-rule:nonzero;fill:rgb(79.607843%,28.235294%,21.960784%);fill-opacity:1;" d="M 22.367188 38.414062 C 22.292969 38.375 22.199219 38.375 22.121094 38.414062 C 22.027344 38.4375 21.949219 38.507812 21.921875 38.597656 C 21.886719 38.714844 21.886719 38.84375 21.921875 38.960938 C 21.957031 39.082031 22.023438 39.191406 22.121094 39.277344 C 22.199219 39.324219 22.292969 39.335938 22.378906 39.304688 C 22.46875 39.277344 22.535156 39.210938 22.566406 39.125 C 22.605469 39.003906 22.605469 38.871094 22.566406 38.75 C 22.546875 38.617188 22.476562 38.496094 22.367188 38.414062 Z M 22.367188 38.414062 "/>
<path style=" stroke:none;fill-rule:nonzero;fill:rgb(79.607843%,28.235294%,21.960784%);fill-opacity:1;" d="M 29.363281 33.933594 L 29.3125 33.882812 C 29.269531 33.984375 29.214844 34.082031 29.144531 34.167969 C 29.109375 34.21875 29.078125 34.273438 29.050781 34.332031 C 29.046875 34.363281 29.046875 34.398438 29.050781 34.433594 C 29.070312 34.515625 29.140625 34.578125 29.230469 34.585938 C 29.296875 34.570312 29.351562 34.519531 29.375 34.453125 C 29.425781 34.402344 29.460938 34.339844 29.476562 34.269531 C 29.492188 34.207031 29.492188 34.140625 29.476562 34.078125 C 29.445312 34.023438 29.410156 33.976562 29.363281 33.9375 Z M 29.363281 33.933594 "/>
<path style=" stroke:none;fill-rule:nonzero;fill:rgb(79.607843%,28.235294%,21.960784%);fill-opacity:1;" d="M 31.949219 26.972656 C 31.785156 27.335938 31.617188 27.703125 31.433594 28.058594 C 26.828125 36.832031 13.84375 42.449219 4.449219 31.097656 L 4.449219 36.773438 C 12.664062 45.257812 28.609375 43.613281 31.691406 30.601562 C 31.816406 29.332031 31.886719 28.015625 31.917969 26.992188 L 31.917969 26.972656 Z M 27.933594 33.8125 L 28.078125 34.007812 L 27.933594 34.128906 L 27.789062 33.933594 Z M 26.972656 34.726562 L 26.972656 35.132812 L 26.847656 35.234375 L 26.777344 34.878906 Z M 25.773438 35.667969 L 25.867188 35.871094 L 25.710938 35.992188 L 25.585938 35.78125 Z M 6.527344 36.335938 L 6.167969 36.113281 L 5.875 36.710938 L 5.699219 36.601562 L 6.40625 35.121094 L 6.878906 35.464844 C 6.953125 35.507812 7.023438 35.554688 7.085938 35.609375 C 7.140625 35.652344 7.1875 35.707031 7.222656 35.769531 C 7.234375 35.839844 7.234375 35.910156 7.222656 35.984375 C 7.234375 36.054688 7.234375 36.132812 7.222656 36.207031 C 7.175781 36.324219 7.074219 36.417969 6.953125 36.457031 C 6.785156 36.484375 6.617188 36.441406 6.488281 36.335938 Z M 7.9375 37.632812 C 7.863281 37.695312 7.773438 37.730469 7.675781 37.734375 C 7.582031 37.742188 7.488281 37.714844 7.40625 37.664062 C 7.265625 37.597656 7.15625 37.472656 7.117188 37.320312 C 7.058594 37.164062 7.058594 36.992188 7.117188 36.832031 C 7.179688 36.664062 7.316406 36.535156 7.492188 36.480469 C 7.613281 36.453125 7.746094 36.472656 7.851562 36.539062 C 7.988281 36.613281 8.085938 36.730469 8.132812 36.875 C 8.195312 37.03125 8.195312 37.203125 8.132812 37.359375 C 8.082031 37.476562 8 37.574219 7.894531 37.644531 Z M 8.96875 37.359375 C 8.949219 37.3125 8.90625 37.273438 8.855469 37.25 C 8.820312 37.234375 8.78125 37.234375 8.742188 37.25 C 8.703125 37.265625 8.667969 37.289062 8.640625 37.320312 C 8.59375 37.382812 8.554688 37.453125 8.527344 37.523438 L 8.277344 38.089844 L 8.082031 38 L 8.527344 36.882812 L 8.679688 36.964844 L 8.609375 37.148438 C 8.65625 37.101562 8.710938 37.0625 8.773438 37.035156 C 8.8125 37.023438 8.859375 37.023438 8.898438 37.035156 C 8.96875 37.066406 9.023438 37.121094 9.054688 37.1875 Z M 10.59375 38.253906 C 10.445312 38.324219 10.269531 38.324219 10.117188 38.253906 L 9.734375 38.089844 L 9.527344 38.730469 L 9.3125 38.617188 L 9.820312 37.035156 L 10.347656 37.28125 L 10.5625 37.382812 C 10.628906 37.417969 10.679688 37.472656 10.71875 37.535156 C 10.757812 37.59375 10.785156 37.664062 10.792969 37.734375 C 10.808594 37.8125 10.808594 37.894531 10.792969 37.96875 C 10.761719 38.09375 10.679688 38.203125 10.5625 38.261719 Z M 11.816406 38.507812 C 11.820312 38.566406 11.820312 38.628906 11.816406 38.6875 L 11.753906 38.953125 C 11.722656 39.070312 11.695312 39.1875 11.679688 39.308594 C 11.671875 39.359375 11.671875 39.414062 11.679688 39.46875 L 11.496094 39.40625 C 11.484375 39.359375 11.484375 39.304688 11.496094 39.253906 C 11.425781 39.292969 11.347656 39.320312 11.265625 39.328125 L 11.050781 39.328125 C 10.945312 39.296875 10.851562 39.230469 10.792969 39.144531 C 10.757812 39.054688 10.757812 38.960938 10.792969 38.871094 C 10.804688 38.816406 10.828125 38.761719 10.863281 38.71875 C 10.898438 38.683594 10.941406 38.65625 10.988281 38.636719 C 11.035156 38.628906 11.085938 38.628906 11.132812 38.636719 L 11.308594 38.636719 C 11.425781 38.648438 11.542969 38.648438 11.660156 38.636719 L 11.660156 38.617188 C 11.679688 38.554688 11.679688 38.488281 11.660156 38.425781 C 11.613281 38.355469 11.539062 38.308594 11.453125 38.292969 C 11.386719 38.265625 11.3125 38.265625 11.246094 38.292969 C 11.191406 38.324219 11.144531 38.375 11.121094 38.4375 L 10.945312 38.355469 C 10.964844 38.285156 11.003906 38.226562 11.0625 38.183594 C 11.117188 38.140625 11.1875 38.117188 11.257812 38.121094 C 11.34375 38.105469 11.429688 38.105469 11.515625 38.121094 C 11.597656 38.144531 11.671875 38.1875 11.734375 38.242188 C 11.785156 38.269531 11.824219 38.3125 11.847656 38.363281 C 11.847656 38.414062 11.835938 38.460938 11.816406 38.507812 Z M 12.167969 39.378906 C 12.199219 39.457031 12.269531 39.515625 12.355469 39.539062 C 12.417969 39.566406 12.488281 39.566406 12.550781 39.539062 C 12.617188 39.488281 12.664062 39.417969 12.683594 39.335938 L 12.859375 39.417969 C 12.828125 39.535156 12.753906 39.632812 12.652344 39.703125 C 12.554688 39.742188 12.441406 39.742188 12.34375 39.703125 C 12.390625 39.722656 12.429688 39.757812 12.457031 39.804688 C 12.472656 39.839844 12.472656 39.878906 12.457031 39.914062 C 12.445312 39.96875 12.40625 40.015625 12.355469 40.035156 C 12.277344 40.070312 12.191406 40.070312 12.117188 40.035156 L 11.972656 40.035156 L 11.972656 39.914062 L 12.0625 39.914062 C 12.113281 39.925781 12.160156 39.925781 12.207031 39.914062 L 12.117188 39.914062 L 12.167969 39.792969 C 12.078125 39.746094 12.003906 39.671875 11.960938 39.582031 C 11.898438 39.421875 11.898438 39.242188 11.960938 39.082031 C 11.976562 38.96875 12.019531 38.855469 12.085938 38.757812 C 12.113281 38.648438 12.1875 38.554688 12.292969 38.507812 C 12.382812 38.476562 12.480469 38.476562 12.570312 38.507812 C 12.679688 38.535156 12.773438 38.597656 12.839844 38.6875 C 12.90625 38.78125 12.9375 38.890625 12.933594 39.003906 L 12.746094 39.003906 C 12.753906 38.929688 12.734375 38.855469 12.695312 38.789062 C 12.660156 38.742188 12.609375 38.703125 12.550781 38.6875 C 12.476562 38.648438 12.386719 38.648438 12.3125 38.6875 C 12.21875 38.773438 12.160156 38.886719 12.148438 39.011719 C 12.109375 39.136719 12.113281 39.273438 12.160156 39.398438 Z M 14.0625 39.4375 C 14.054688 39.566406 14.015625 39.6875 13.945312 39.792969 C 13.898438 39.875 13.828125 39.9375 13.738281 39.976562 C 13.648438 39.996094 13.554688 39.996094 13.460938 39.976562 C 13.308594 39.953125 13.175781 39.863281 13.097656 39.730469 C 13.003906 39.585938 12.96875 39.414062 12.996094 39.246094 C 12.996094 39.066406 13.078125 38.894531 13.222656 38.78125 C 13.328125 38.707031 13.460938 38.679688 13.585938 38.707031 C 13.730469 38.734375 13.859375 38.820312 13.9375 38.941406 C 14.046875 39.089844 14.089844 39.277344 14.0625 39.457031 Z M 15.09375 39.875 C 15.097656 39.945312 15.078125 40.011719 15.035156 40.066406 C 14.992188 40.125 14.933594 40.164062 14.867188 40.1875 C 14.789062 40.210938 14.707031 40.210938 14.628906 40.1875 C 14.507812 40.183594 14.390625 40.136719 14.300781 40.058594 C 14.226562 39.96875 14.183594 39.855469 14.175781 39.742188 L 14.371094 39.742188 C 14.371094 39.816406 14.398438 39.886719 14.445312 39.945312 C 14.5 39.992188 14.566406 40.023438 14.640625 40.035156 C 14.703125 40.0625 14.773438 40.0625 14.835938 40.035156 C 14.878906 40.011719 14.90625 39.964844 14.910156 39.914062 C 14.929688 39.878906 14.929688 39.832031 14.910156 39.792969 C 14.847656 39.753906 14.78125 39.722656 14.710938 39.703125 C 14.59375 39.660156 14.480469 39.597656 14.382812 39.519531 C 14.335938 39.488281 14.296875 39.445312 14.269531 39.398438 C 14.253906 39.339844 14.253906 39.28125 14.269531 39.226562 C 14.253906 39.175781 14.253906 39.125 14.269531 39.074219 C 14.292969 39.03125 14.328125 39 14.371094 38.972656 L 14.660156 38.972656 C 14.742188 38.980469 14.816406 39.003906 14.886719 39.042969 C 14.949219 39.074219 14.996094 39.117188 15.035156 39.175781 C 15.046875 39.242188 15.046875 39.3125 15.035156 39.378906 L 14.910156 39.378906 C 14.902344 39.320312 14.882812 39.269531 14.847656 39.226562 C 14.800781 39.183594 14.742188 39.160156 14.679688 39.15625 C 14.621094 39.128906 14.554688 39.128906 14.496094 39.15625 C 14.460938 39.179688 14.4375 39.214844 14.433594 39.257812 C 14.429688 39.28125 14.429688 39.308594 14.433594 39.335938 C 14.449219 39.367188 14.476562 39.390625 14.503906 39.410156 L 14.679688 39.519531 L 14.960938 39.652344 C 15.011719 39.6875 15.054688 39.730469 15.085938 39.785156 C 15.097656 39.820312 15.101562 39.855469 15.097656 39.894531 Z M 15.933594 40.339844 L 15.933594 38.636719 L 17.050781 38.636719 L 17.050781 38.839844 L 16.140625 38.839844 L 16.140625 39.355469 L 17 39.355469 L 17 39.550781 L 16.140625 39.550781 L 16.140625 40.128906 L 17.09375 40.128906 L 17.09375 40.332031 Z M 18.167969 40.148438 C 18.136719 40.210938 18.085938 40.261719 18.023438 40.300781 C 17.953125 40.339844 17.875 40.359375 17.796875 40.359375 C 17.675781 40.382812 17.554688 40.359375 17.457031 40.289062 C 17.359375 40.21875 17.292969 40.113281 17.277344 39.996094 L 17.464844 39.996094 C 17.476562 40.070312 17.515625 40.136719 17.578125 40.179688 C 17.640625 40.214844 17.710938 40.234375 17.785156 40.230469 C 17.855469 40.226562 17.917969 40.199219 17.972656 40.15625 C 17.988281 40.113281 17.988281 40.0625 17.972656 40.015625 C 17.964844 39.96875 17.9375 39.929688 17.898438 39.90625 L 17.691406 39.855469 C 17.589844 39.835938 17.488281 39.808594 17.390625 39.773438 C 17.339844 39.75 17.292969 39.710938 17.257812 39.660156 C 17.246094 39.613281 17.246094 39.566406 17.257812 39.519531 C 17.242188 39.46875 17.242188 39.417969 17.257812 39.367188 C 17.273438 39.320312 17.300781 39.277344 17.339844 39.246094 C 17.371094 39.214844 17.410156 39.191406 17.453125 39.175781 C 17.507812 39.164062 17.566406 39.164062 17.621094 39.175781 C 17.699219 39.15625 17.78125 39.15625 17.859375 39.175781 C 17.917969 39.191406 17.972656 39.226562 18.011719 39.277344 C 18.054688 39.335938 18.082031 39.402344 18.097656 39.46875 L 17.910156 39.46875 C 17.898438 39.414062 17.867188 39.359375 17.816406 39.328125 C 17.761719 39.308594 17.699219 39.308594 17.640625 39.328125 C 17.574219 39.328125 17.511719 39.351562 17.464844 39.398438 C 17.429688 39.425781 17.410156 39.46875 17.414062 39.511719 C 17.40625 39.535156 17.40625 39.558594 17.414062 39.582031 C 17.433594 39.609375 17.464844 39.625 17.496094 39.632812 L 17.671875 39.632812 L 17.953125 39.703125 C 18.007812 39.730469 18.058594 39.765625 18.097656 39.8125 C 18.132812 39.867188 18.148438 39.933594 18.148438 39.996094 C 18.171875 40.054688 18.183594 40.117188 18.179688 40.179688 Z M 18.714844 40.257812 L 18.53125 40.257812 L 18.394531 39.195312 L 18.230469 39.195312 L 18.230469 39.03125 L 18.386719 39.03125 L 18.386719 38.960938 C 18.375 38.898438 18.375 38.832031 18.386719 38.769531 C 18.386719 38.714844 18.414062 38.667969 18.457031 38.636719 C 18.503906 38.597656 18.5625 38.570312 18.625 38.566406 C 18.683594 38.554688 18.742188 38.554688 18.800781 38.566406 L 18.800781 38.738281 C 18.757812 38.730469 18.714844 38.730469 18.675781 38.738281 C 18.640625 38.722656 18.597656 38.722656 18.5625 38.738281 C 18.546875 38.792969 18.546875 38.847656 18.5625 38.902344 L 18.5625 39.011719 L 18.777344 39.011719 L 18.777344 39.164062 L 18.5625 39.164062 Z M 19.957031 39.824219 C 19.933594 39.914062 19.882812 40 19.8125 40.066406 C 19.738281 40.121094 19.65625 40.160156 19.566406 40.179688 C 19.421875 40.207031 19.269531 40.167969 19.160156 40.066406 C 19.03125 39.953125 18.949219 39.792969 18.933594 39.621094 C 18.882812 39.441406 18.914062 39.25 19.015625 39.09375 C 19.09375 38.988281 19.207031 38.921875 19.335938 38.902344 C 19.484375 38.875 19.632812 38.917969 19.742188 39.011719 C 19.863281 39.125 19.941406 39.277344 19.957031 39.4375 C 19.996094 39.574219 19.996094 39.71875 19.957031 39.855469 Z M 20.589844 38.933594 C 20.546875 38.917969 20.5 38.917969 20.453125 38.933594 C 20.414062 38.945312 20.378906 38.96875 20.351562 39.003906 C 20.335938 39.046875 20.335938 39.089844 20.351562 39.132812 C 20.332031 39.214844 20.332031 39.296875 20.351562 39.378906 L 20.496094 40.007812 L 20.308594 40.007812 L 20.03125 38.800781 L 20.195312 38.800781 L 20.195312 38.980469 C 20.210938 38.914062 20.238281 38.847656 20.277344 38.789062 C 20.304688 38.757812 20.34375 38.734375 20.382812 38.71875 C 20.449219 38.703125 20.519531 38.703125 20.589844 38.71875 Z M 21.625 39.570312 C 21.570312 39.667969 21.476562 39.738281 21.367188 39.761719 C 21.414062 39.746094 21.464844 39.746094 21.511719 39.761719 C 21.542969 39.785156 21.566406 39.824219 21.574219 39.863281 C 21.601562 39.914062 21.601562 39.976562 21.574219 40.027344 C 21.519531 40.09375 21.449219 40.140625 21.367188 40.15625 C 21.316406 40.164062 21.269531 40.164062 21.222656 40.15625 L 21.222656 40.015625 L 21.3125 40.015625 C 21.363281 40.011719 21.40625 39.992188 21.4375 39.957031 C 21.449219 39.933594 21.449219 39.90625 21.4375 39.882812 C 21.402344 39.875 21.363281 39.875 21.324219 39.882812 L 21.324219 39.824219 C 21.226562 39.828125 21.128906 39.796875 21.046875 39.742188 C 20.878906 39.648438 20.753906 39.496094 20.695312 39.316406 C 20.675781 39.199219 20.675781 39.078125 20.695312 38.960938 C 20.699219 38.863281 20.742188 38.773438 20.808594 38.699219 C 20.863281 38.617188 20.941406 38.550781 21.035156 38.507812 C 21.136719 38.46875 21.246094 38.46875 21.34375 38.507812 C 21.449219 38.550781 21.53125 38.636719 21.574219 38.738281 L 21.40625 38.820312 C 21.382812 38.753906 21.335938 38.703125 21.273438 38.667969 C 21.214844 38.644531 21.152344 38.644531 21.097656 38.667969 C 21.011719 38.691406 20.941406 38.757812 20.910156 38.839844 C 20.859375 39.085938 20.925781 39.34375 21.097656 39.53125 C 21.148438 39.589844 21.222656 39.621094 21.300781 39.617188 C 21.378906 39.617188 21.453125 39.578125 21.5 39.519531 C 21.527344 39.4375 21.527344 39.347656 21.5 39.265625 L 21.6875 39.265625 C 21.710938 39.375 21.699219 39.492188 21.65625 39.597656 Z M 22.761719 39.023438 C 22.753906 39.121094 22.707031 39.214844 22.636719 39.285156 C 22.578125 39.359375 22.5 39.410156 22.410156 39.4375 C 22.285156 39.503906 22.132812 39.503906 22.007812 39.4375 C 21.867188 39.34375 21.765625 39.199219 21.726562 39.03125 C 21.660156 38.863281 21.660156 38.675781 21.726562 38.507812 C 21.78125 38.386719 21.890625 38.296875 22.015625 38.261719 C 22.148438 38.195312 22.300781 38.195312 22.429688 38.261719 C 22.570312 38.355469 22.664062 38.496094 22.699219 38.65625 C 22.75 38.773438 22.769531 38.898438 22.761719 39.023438 Z M 24.375 38.507812 C 24.328125 38.609375 24.242188 38.695312 24.136719 38.75 C 24.007812 38.8125 23.855469 38.8125 23.722656 38.75 C 23.570312 38.679688 23.449219 38.550781 23.394531 38.394531 C 23.308594 38.242188 23.28125 38.066406 23.320312 37.898438 C 23.347656 37.753906 23.445312 37.628906 23.578125 37.5625 C 23.703125 37.5 23.847656 37.5 23.972656 37.5625 C 24.121094 37.644531 24.238281 37.773438 24.304688 37.929688 C 24.308594 37.945312 24.308594 37.960938 24.304688 37.980469 L 23.570312 38.375 C 23.628906 38.441406 23.707031 38.484375 23.796875 38.503906 C 23.878906 38.546875 23.972656 38.546875 24.054688 38.503906 C 24.113281 38.472656 24.160156 38.421875 24.1875 38.363281 C 24.207031 38.289062 24.207031 38.214844 24.1875 38.140625 L 24.375 38.058594 C 24.433594 38.203125 24.433594 38.363281 24.375 38.503906 Z M 25.660156 37.828125 L 24.3125 36.691406 L 24.5 36.480469 L 25.453125 37.332031 C 25.527344 37.390625 25.597656 37.457031 25.660156 37.53125 C 25.660156 37.429688 25.660156 37.332031 25.597656 37.238281 L 25.316406 35.972656 L 25.503906 35.851562 L 25.867188 37.65625 Z M 26.464844 37.257812 L 25.824219 36.246094 L 25.988281 36.132812 L 26.632812 37.148438 Z M 27.097656 36.855469 L 26.902344 36.875 C 26.863281 36.886719 26.824219 36.886719 26.785156 36.875 C 26.722656 36.8125 26.671875 36.746094 26.632812 36.671875 L 26.25 36.082031 L 26.144531 36.164062 L 26.0625 36.03125 L 26.175781 35.949219 L 26.019531 35.6875 L 26.144531 35.464844 L 26.371094 35.828125 L 26.527344 35.71875 L 26.621094 35.859375 L 26.464844 35.980469 L 26.847656 36.589844 L 26.898438 36.640625 L 27.003906 36.640625 L 27.066406 36.578125 L 27.1875 36.710938 Z M 27.851562 36.125 C 27.820312 36.222656 27.757812 36.304688 27.675781 36.367188 C 27.566406 36.457031 27.421875 36.496094 27.285156 36.46875 C 27.113281 36.410156 26.976562 36.285156 26.902344 36.125 C 26.78125 35.976562 26.730469 35.792969 26.753906 35.605469 C 26.777344 35.46875 26.851562 35.347656 26.960938 35.261719 C 27.066406 35.171875 27.207031 35.132812 27.34375 35.160156 C 27.503906 35.199219 27.636719 35.296875 27.71875 35.433594 C 27.789062 35.539062 27.84375 35.65625 27.871094 35.78125 C 27.894531 35.878906 27.886719 35.984375 27.851562 36.082031 Z M 28.265625 35.832031 L 27.542969 34.816406 L 27.667969 34.707031 L 27.78125 34.859375 C 27.769531 34.785156 27.769531 34.714844 27.78125 34.644531 C 27.789062 34.597656 27.8125 34.554688 27.851562 34.523438 C 27.902344 34.480469 27.964844 34.457031 28.027344 34.453125 L 28.089844 34.65625 C 28.042969 34.660156 28 34.683594 27.964844 34.714844 C 27.929688 34.742188 27.90625 34.777344 27.894531 34.816406 C 27.882812 34.859375 27.882812 34.90625 27.894531 34.949219 C 27.929688 35.023438 27.96875 35.09375 28.019531 35.160156 L 28.402344 35.667969 Z M 28.792969 35.304688 L 28.050781 34.351562 L 28.183594 34.21875 L 28.96875 35.121094 Z M 29.746094 34.289062 C 29.699219 34.273438 29.65625 34.246094 29.621094 34.207031 C 29.617188 34.296875 29.597656 34.382812 29.558594 34.460938 C 29.535156 34.535156 29.496094 34.597656 29.445312 34.65625 C 29.375 34.726562 29.277344 34.773438 29.175781 34.777344 C 29.09375 34.777344 29.015625 34.734375 28.96875 34.664062 C 28.929688 34.621094 28.902344 34.570312 28.886719 34.511719 C 28.875 34.460938 28.875 34.410156 28.886719 34.359375 C 28.90625 34.304688 28.933594 34.253906 28.96875 34.207031 C 29 34.15625 29.035156 34.105469 29.074219 34.058594 C 29.148438 33.960938 29.214844 33.859375 29.269531 33.753906 C 29.238281 33.699219 29.1875 33.664062 29.125 33.652344 C 29.046875 33.664062 28.980469 33.703125 28.929688 33.761719 C 28.871094 33.808594 28.832031 33.875 28.816406 33.945312 C 28.816406 34.015625 28.835938 34.085938 28.878906 34.148438 L 28.722656 34.269531 C 28.683594 34.199219 28.652344 34.125 28.640625 34.046875 C 28.621094 33.976562 28.621094 33.902344 28.640625 33.832031 C 28.675781 33.75 28.722656 33.675781 28.785156 33.609375 C 28.816406 33.542969 28.863281 33.484375 28.917969 33.4375 C 28.96875 33.421875 29.023438 33.421875 29.074219 33.4375 C 29.125 33.449219 29.175781 33.46875 29.21875 33.5 L 29.34375 33.628906 L 29.527344 33.832031 L 29.777344 34.097656 L 29.910156 34.167969 Z M 29.746094 34.289062 "/>
<path style=" stroke:none;fill-rule:nonzero;fill:rgb(79.607843%,28.235294%,21.960784%);fill-opacity:1;" d="M 23.910156 37.695312 C 23.832031 37.644531 23.730469 37.644531 23.652344 37.695312 C 23.574219 37.734375 23.519531 37.804688 23.496094 37.886719 C 23.46875 37.976562 23.46875 38.074219 23.496094 38.160156 L 24.046875 37.867188 C 24.015625 37.800781 23.96875 37.742188 23.910156 37.695312 Z M 23.910156 37.695312 "/>
<path style=" stroke:none;fill-rule:nonzero;fill:rgb(100%,100%,100%);fill-opacity:1;" d="M 24.222656 38.183594 C 24.238281 38.253906 24.238281 38.332031 24.222656 38.40625 C 24.191406 38.464844 24.144531 38.511719 24.085938 38.546875 C 23.988281 38.585938 23.878906 38.570312 23.796875 38.503906 C 23.699219 38.460938 23.621094 38.382812 23.578125 38.28125 L 24.3125 37.886719 C 24.316406 37.871094 24.316406 37.855469 24.3125 37.835938 C 24.242188 37.6875 24.121094 37.566406 23.972656 37.492188 C 23.847656 37.425781 23.703125 37.425781 23.578125 37.492188 C 23.445312 37.558594 23.347656 37.679688 23.320312 37.828125 C 23.28125 37.996094 23.308594 38.171875 23.394531 38.324219 C 23.449219 38.480469 23.570312 38.609375 23.722656 38.679688 C 23.855469 38.742188 24.007812 38.742188 24.136719 38.679688 C 24.234375 38.644531 24.316406 38.585938 24.375 38.503906 C 24.414062 38.390625 24.414062 38.265625 24.375 38.152344 Z M 23.527344 38.183594 C 23.5 38.09375 23.5 37.996094 23.527344 37.910156 C 23.550781 37.824219 23.605469 37.757812 23.683594 37.714844 C 23.761719 37.664062 23.863281 37.664062 23.941406 37.714844 C 24.011719 37.757812 24.070312 37.816406 24.105469 37.886719 Z M 23.527344 38.183594 "/>
<path style=" stroke:none;fill-rule:nonzero;fill:rgb(100%,100%,100%);fill-opacity:1;" d="M 25.316406 35.972656 L 25.585938 37.269531 C 25.585938 37.359375 25.585938 37.460938 25.648438 37.5625 C 25.585938 37.488281 25.519531 37.421875 25.441406 37.359375 L 24.5 36.480469 L 24.3125 36.601562 L 25.660156 37.734375 L 25.867188 37.65625 L 25.535156 35.851562 Z M 25.316406 35.972656 "/>
<path style=" stroke:none;fill-rule:nonzero;fill:rgb(100%,100%,100%);fill-opacity:1;" d="M 19.730469 39.042969 C 19.621094 38.945312 19.472656 38.90625 19.328125 38.933594 C 19.199219 38.953125 19.082031 39.019531 19.007812 39.125 C 18.902344 39.28125 18.871094 39.472656 18.921875 39.652344 C 18.9375 39.824219 19.019531 39.984375 19.152344 40.097656 C 19.257812 40.195312 19.410156 40.238281 19.554688 40.207031 C 19.644531 40.1875 19.730469 40.152344 19.804688 40.097656 C 19.871094 40.03125 19.921875 39.945312 19.949219 39.855469 C 19.980469 39.730469 19.980469 39.601562 19.949219 39.480469 C 19.933594 39.3125 19.855469 39.15625 19.730469 39.042969 Z M 19.730469 39.882812 C 19.6875 39.964844 19.613281 40.019531 19.523438 40.035156 C 19.433594 40.050781 19.339844 40.019531 19.273438 39.957031 C 19.1875 39.863281 19.132812 39.746094 19.121094 39.621094 C 19.078125 39.503906 19.078125 39.375 19.121094 39.257812 C 19.164062 39.175781 19.246094 39.121094 19.335938 39.105469 C 19.425781 39.089844 19.519531 39.113281 19.585938 39.175781 C 19.667969 39.265625 19.71875 39.378906 19.730469 39.5 C 19.777344 39.625 19.777344 39.761719 19.730469 39.882812 Z M 19.730469 39.882812 "/>
<path style=" stroke:none;fill-rule:nonzero;fill:rgb(100%,100%,100%);fill-opacity:1;" d="M 22.472656 38.261719 C 22.34375 38.195312 22.1875 38.195312 22.058594 38.261719 C 21.914062 38.289062 21.792969 38.378906 21.726562 38.507812 C 21.65625 38.679688 21.65625 38.871094 21.726562 39.042969 C 21.765625 39.207031 21.863281 39.351562 22.007812 39.449219 C 22.132812 39.511719 22.285156 39.511719 22.410156 39.449219 C 22.5 39.421875 22.578125 39.367188 22.636719 39.296875 C 22.710938 39.222656 22.753906 39.125 22.761719 39.023438 C 22.789062 38.898438 22.789062 38.769531 22.761719 38.648438 C 22.71875 38.488281 22.617188 38.351562 22.472656 38.261719 Z M 22.585938 39.09375 C 22.554688 39.179688 22.488281 39.246094 22.402344 39.277344 C 22.3125 39.304688 22.21875 39.292969 22.140625 39.246094 C 22.046875 39.164062 21.976562 39.054688 21.945312 38.933594 C 21.90625 38.8125 21.90625 38.6875 21.945312 38.566406 C 21.972656 38.476562 22.046875 38.40625 22.140625 38.386719 C 22.21875 38.34375 22.3125 38.34375 22.390625 38.386719 C 22.488281 38.460938 22.558594 38.566406 22.585938 38.6875 C 22.632812 38.820312 22.632812 38.964844 22.585938 39.09375 Z M 22.585938 39.09375 "/>
<path style=" stroke:none;fill-rule:nonzero;fill:rgb(100%,100%,100%);fill-opacity:1;" d="M 20.402344 38.730469 C 20.363281 38.742188 20.328125 38.769531 20.300781 38.800781 C 20.261719 38.859375 20.230469 38.925781 20.21875 38.992188 L 20.21875 38.808594 L 20.050781 38.808594 L 20.332031 40.015625 L 20.515625 40.015625 L 20.371094 39.386719 C 20.351562 39.308594 20.351562 39.226562 20.371094 39.144531 C 20.355469 39.101562 20.355469 39.054688 20.371094 39.011719 C 20.398438 38.980469 20.433594 38.957031 20.476562 38.941406 C 20.519531 38.929688 20.566406 38.929688 20.609375 38.941406 L 20.609375 38.738281 C 20.542969 38.71875 20.472656 38.714844 20.402344 38.726562 Z M 20.402344 38.730469 "/>
<path style=" stroke:none;fill-rule:nonzero;fill:rgb(100%,100%,100%);fill-opacity:1;" d="M 21.519531 39.257812 C 21.546875 39.339844 21.546875 39.425781 21.519531 39.507812 C 21.484375 39.578125 21.414062 39.628906 21.335938 39.640625 C 21.257812 39.65625 21.175781 39.632812 21.117188 39.582031 C 20.945312 39.394531 20.878906 39.136719 20.929688 38.890625 C 20.960938 38.808594 21.03125 38.742188 21.117188 38.71875 C 21.171875 38.695312 21.234375 38.695312 21.292969 38.71875 C 21.355469 38.753906 21.402344 38.804688 21.425781 38.871094 L 21.59375 38.789062 C 21.550781 38.6875 21.46875 38.601562 21.363281 38.554688 C 21.265625 38.519531 21.15625 38.519531 21.054688 38.554688 C 20.964844 38.585938 20.882812 38.632812 20.816406 38.699219 C 20.75 38.773438 20.710938 38.863281 20.703125 38.960938 C 20.683594 39.078125 20.683594 39.199219 20.703125 39.316406 C 20.738281 39.484375 20.828125 39.632812 20.960938 39.742188 C 21.042969 39.796875 21.140625 39.828125 21.242188 39.824219 L 21.242188 39.742188 L 21.375 39.742188 L 21.375 39.824219 C 21.484375 39.796875 21.578125 39.730469 21.632812 39.628906 C 21.710938 39.515625 21.746094 39.375 21.726562 39.234375 Z M 21.519531 39.257812 "/>
<path style=" stroke:none;fill-rule:nonzero;fill:rgb(100%,100%,100%);fill-opacity:1;" d="M 21.261719 39.824219 L 21.261719 39.964844 C 21.300781 39.953125 21.339844 39.953125 21.375 39.964844 C 21.386719 39.988281 21.386719 40.011719 21.375 40.035156 C 21.34375 40.070312 21.300781 40.09375 21.25 40.097656 L 21.15625 40.097656 L 21.15625 40.238281 C 21.207031 40.246094 21.253906 40.246094 21.304688 40.238281 C 21.382812 40.222656 21.457031 40.179688 21.507812 40.117188 C 21.539062 40.066406 21.539062 40.007812 21.507812 39.957031 C 21.503906 39.914062 21.480469 39.878906 21.449219 39.855469 C 21.402344 39.839844 21.351562 39.839844 21.304688 39.855469 Z M 21.261719 39.824219 "/>
<path style=" stroke:none;fill-rule:nonzero;fill:rgb(100%,100%,100%);fill-opacity:1;" d="M 27.71875 35.464844 C 27.636719 35.328125 27.503906 35.226562 27.34375 35.191406 C 27.207031 35.164062 27.066406 35.203125 26.960938 35.292969 C 26.851562 35.378906 26.777344 35.5 26.753906 35.636719 C 26.730469 35.824219 26.78125 36.007812 26.902344 36.15625 C 26.984375 36.296875 27.121094 36.402344 27.285156 36.449219 C 27.421875 36.472656 27.566406 36.4375 27.675781 36.347656 C 27.757812 36.285156 27.820312 36.199219 27.851562 36.105469 C 27.875 36.007812 27.875 35.90625 27.851562 35.808594 C 27.828125 35.6875 27.785156 35.570312 27.71875 35.464844 Z M 27.574219 36.207031 C 27.507812 36.265625 27.410156 36.285156 27.324219 36.257812 C 27.207031 36.214844 27.105469 36.128906 27.046875 36.023438 C 26.949219 35.921875 26.898438 35.785156 26.902344 35.648438 C 26.925781 35.570312 26.980469 35.503906 27.054688 35.464844 C 27.125 35.40625 27.214844 35.382812 27.304688 35.40625 C 27.421875 35.441406 27.523438 35.519531 27.582031 35.628906 C 27.664062 35.730469 27.714844 35.859375 27.71875 35.992188 C 27.695312 36.070312 27.648438 36.136719 27.582031 36.183594 Z M 27.574219 36.207031 "/>
<path style=" stroke:none;fill-rule:nonzero;fill:rgb(100%,100%,100%);fill-opacity:1;" d="M 28.183594 34.167969 L 28.050781 34.308594 L 28.804688 35.253906 L 28.9375 35.121094 Z M 28.183594 34.167969 "/>
<path style=" stroke:none;fill-rule:nonzero;fill:rgb(100%,100%,100%);fill-opacity:1;" d="M 27.933594 34.929688 C 27.925781 34.886719 27.925781 34.839844 27.933594 34.796875 C 27.945312 34.757812 27.972656 34.71875 28.007812 34.695312 C 28.039062 34.660156 28.085938 34.640625 28.132812 34.632812 L 28.027344 34.453125 C 27.957031 34.457031 27.894531 34.484375 27.84375 34.53125 C 27.804688 34.5625 27.777344 34.605469 27.769531 34.65625 C 27.757812 34.726562 27.757812 34.796875 27.769531 34.867188 L 27.65625 34.714844 L 27.53125 34.828125 L 28.253906 35.839844 L 28.402344 35.71875 L 28.015625 35.210938 C 27.980469 35.121094 27.953125 35.027344 27.933594 34.929688 Z M 27.933594 34.929688 "/>
<path style=" stroke:none;fill-rule:nonzero;fill:rgb(100%,100%,100%);fill-opacity:1;" d="M 29.519531 33.804688 L 29.332031 33.601562 L 29.207031 33.4375 C 29.160156 33.429688 29.109375 33.429688 29.0625 33.4375 C 29.011719 33.425781 28.957031 33.425781 28.90625 33.4375 C 28.835938 33.472656 28.773438 33.519531 28.722656 33.582031 C 28.660156 33.648438 28.613281 33.722656 28.578125 33.804688 C 28.558594 33.875 28.558594 33.945312 28.578125 34.015625 C 28.589844 34.09375 28.621094 34.171875 28.660156 34.238281 L 28.816406 34.117188 C 28.773438 34.058594 28.753906 33.988281 28.753906 33.914062 C 28.769531 33.84375 28.808594 33.78125 28.867188 33.734375 C 28.890625 33.6875 28.925781 33.648438 28.96875 33.621094 C 29.03125 33.632812 29.082031 33.671875 29.113281 33.722656 C 29.058594 33.828125 28.992188 33.929688 28.917969 34.027344 C 28.878906 34.074219 28.84375 34.125 28.816406 34.179688 C 28.789062 34.226562 28.769531 34.277344 28.761719 34.332031 C 28.753906 34.382812 28.753906 34.433594 28.761719 34.484375 C 28.777344 34.539062 28.804688 34.59375 28.847656 34.636719 C 28.894531 34.710938 28.984375 34.753906 29.074219 34.746094 C 29.175781 34.742188 29.273438 34.699219 29.34375 34.625 C 29.433594 34.589844 29.511719 34.53125 29.570312 34.453125 C 29.605469 34.371094 29.628906 34.285156 29.632812 34.199219 C 29.667969 34.234375 29.710938 34.261719 29.757812 34.28125 L 29.890625 34.140625 L 29.765625 34.066406 Z M 29.519531 34.300781 C 29.5 34.367188 29.464844 34.433594 29.414062 34.480469 C 29.378906 34.53125 29.320312 34.5625 29.257812 34.5625 C 29.167969 34.582031 29.078125 34.535156 29.042969 34.453125 C 29.035156 34.417969 29.035156 34.382812 29.042969 34.351562 C 29.066406 34.292969 29.097656 34.238281 29.136719 34.1875 C 29.203125 34.101562 29.257812 34.007812 29.300781 33.90625 L 29.351562 33.957031 C 29.402344 34.007812 29.441406 34.070312 29.464844 34.136719 C 29.480469 34.191406 29.484375 34.246094 29.476562 34.300781 Z M 29.519531 34.300781 "/>
<path style=" stroke:none;fill-rule:nonzero;fill:rgb(100%,100%,100%);fill-opacity:1;" d="M 18.777344 39.042969 L 18.5625 39.042969 L 18.5625 38.960938 C 18.546875 38.910156 18.546875 38.851562 18.5625 38.800781 C 18.597656 38.785156 18.636719 38.785156 18.675781 38.800781 C 18.714844 38.792969 18.757812 38.792969 18.800781 38.800781 L 18.800781 38.566406 C 18.742188 38.554688 18.679688 38.554688 18.621094 38.566406 C 18.554688 38.566406 18.488281 38.589844 18.4375 38.636719 C 18.390625 38.667969 18.367188 38.714844 18.363281 38.769531 C 18.355469 38.832031 18.355469 38.898438 18.363281 38.960938 L 18.363281 39.09375 L 18.210938 39.09375 L 18.210938 39.257812 L 18.375 39.257812 L 18.507812 40.320312 L 18.695312 40.320312 L 18.550781 39.304688 L 18.769531 39.304688 Z M 18.777344 39.042969 "/>
<path style=" stroke:none;fill-rule:nonzero;fill:rgb(100%,100%,100%);fill-opacity:1;" d="M 25.980469 36.0625 L 25.824219 36.175781 L 26.464844 37.207031 L 26.632812 37.097656 Z M 25.980469 36.0625 "/>
<path style=" stroke:none;fill-rule:nonzero;fill:rgb(100%,100%,100%);fill-opacity:1;" d="M 27.015625 36.632812 L 26.902344 36.632812 L 26.839844 36.53125 L 26.457031 35.921875 L 26.609375 35.800781 L 26.519531 35.65625 L 26.363281 35.769531 L 26.144531 35.464844 L 26.050781 35.679688 L 26.207031 35.941406 L 26.09375 36.023438 L 26.175781 36.15625 L 26.28125 36.074219 L 26.664062 36.660156 C 26.703125 36.738281 26.753906 36.804688 26.816406 36.863281 C 26.855469 36.878906 26.894531 36.878906 26.933594 36.863281 L 27.085938 36.804688 L 27.191406 36.691406 L 27.066406 36.558594 Z M 27.015625 36.632812 "/>
<path style=" stroke:none;fill-rule:nonzero;fill:rgb(100%,100%,100%);fill-opacity:1;" d="M 10.8125 37.734375 C 10.804688 37.664062 10.78125 37.59375 10.738281 37.53125 C 10.703125 37.472656 10.648438 37.417969 10.585938 37.382812 L 10.347656 37.28125 L 9.789062 37.046875 L 9.3125 38.617188 L 9.507812 38.699219 L 9.714844 38.058594 L 10.097656 38.222656 C 10.25 38.292969 10.425781 38.292969 10.574219 38.222656 C 10.6875 38.164062 10.769531 38.058594 10.800781 37.9375 C 10.820312 37.871094 10.824219 37.804688 10.8125 37.734375 Z M 10.585938 37.898438 C 10.566406 37.976562 10.515625 38.042969 10.441406 38.082031 C 10.347656 38.113281 10.242188 38.113281 10.148438 38.082031 L 9.777344 37.917969 L 9.964844 37.351562 L 10.347656 37.492188 C 10.40625 37.511719 10.464844 37.542969 10.511719 37.582031 C 10.5625 37.621094 10.59375 37.675781 10.605469 37.734375 C 10.613281 37.789062 10.605469 37.847656 10.585938 37.898438 Z M 10.585938 37.898438 "/>
<path style=" stroke:none;fill-rule:nonzero;fill:rgb(100%,100%,100%);fill-opacity:1;" d="M 7.242188 36.195312 C 7.253906 36.121094 7.253906 36.046875 7.242188 35.972656 C 7.253906 35.902344 7.253906 35.828125 7.242188 35.757812 C 7.207031 35.699219 7.160156 35.644531 7.109375 35.597656 C 7.035156 35.546875 6.960938 35.503906 6.878906 35.464844 L 6.375 35.140625 L 5.660156 36.609375 L 5.835938 36.722656 L 6.125 36.125 L 6.488281 36.347656 C 6.617188 36.449219 6.789062 36.488281 6.953125 36.457031 C 7.085938 36.421875 7.191406 36.324219 7.242188 36.195312 Z M 7.046875 36.082031 C 7.019531 36.15625 6.957031 36.214844 6.878906 36.234375 C 6.777344 36.246094 6.671875 36.21875 6.589844 36.15625 L 6.207031 35.941406 L 6.464844 35.464844 L 6.820312 35.679688 C 6.878906 35.710938 6.933594 35.746094 6.984375 35.789062 C 7.023438 35.835938 7.050781 35.890625 7.054688 35.953125 C 7.058594 36 7.050781 36.050781 7.027344 36.09375 Z M 7.046875 36.082031 "/>
<path style=" stroke:none;fill-rule:nonzero;fill:rgb(100%,100%,100%);fill-opacity:1;" d="M 25.699219 35.984375 L 25.867188 35.871094 L 25.730469 35.667969 L 25.585938 35.78125 Z M 25.699219 35.984375 "/>
<path style=" stroke:none;fill-rule:nonzero;fill:rgb(100%,100%,100%);fill-opacity:1;" d="M 8.910156 37.066406 C 8.867188 37.054688 8.824219 37.054688 8.785156 37.066406 C 8.722656 37.09375 8.664062 37.128906 8.617188 37.179688 L 8.691406 36.996094 L 8.527344 36.882812 L 8.082031 38 L 8.277344 38.089844 L 8.496094 37.492188 C 8.523438 37.421875 8.5625 37.355469 8.609375 37.289062 C 8.636719 37.257812 8.671875 37.234375 8.710938 37.21875 C 8.75 37.203125 8.789062 37.203125 8.824219 37.21875 C 8.875 37.242188 8.917969 37.28125 8.9375 37.332031 L 9.0625 37.1875 C 9.027344 37.132812 8.972656 37.089844 8.910156 37.066406 Z M 8.910156 37.066406 "/>
<path style=" stroke:none;fill-rule:nonzero;fill:rgb(100%,100%,100%);fill-opacity:1;" d="M 8.144531 36.863281 C 8.097656 36.722656 7.996094 36.601562 7.863281 36.53125 C 7.75 36.464844 7.617188 36.445312 7.492188 36.480469 C 7.320312 36.539062 7.183594 36.675781 7.128906 36.84375 C 7.070312 37 7.070312 37.171875 7.128906 37.332031 C 7.167969 37.480469 7.273438 37.609375 7.417969 37.675781 C 7.5 37.726562 7.59375 37.75 7.6875 37.746094 C 7.78125 37.742188 7.875 37.707031 7.945312 37.644531 C 8.035156 37.566406 8.105469 37.464844 8.144531 37.351562 C 8.203125 37.195312 8.203125 37.019531 8.144531 36.863281 Z M 7.914062 37.257812 C 7.875 37.371094 7.800781 37.46875 7.699219 37.53125 C 7.613281 37.578125 7.511719 37.578125 7.429688 37.53125 C 7.332031 37.484375 7.261719 37.394531 7.242188 37.289062 C 7.207031 37.171875 7.207031 37.042969 7.242188 36.925781 C 7.277344 36.8125 7.355469 36.71875 7.460938 36.660156 C 7.546875 36.621094 7.644531 36.621094 7.730469 36.660156 C 7.8125 36.710938 7.875 36.789062 7.894531 36.882812 C 7.949219 37.003906 7.957031 37.136719 7.914062 37.257812 Z M 7.914062 37.257812 "/>
<path style=" stroke:none;fill-rule:nonzero;fill:rgb(100%,100%,100%);fill-opacity:1;" d="M 26.808594 35.234375 L 26.929688 35.132812 L 26.929688 34.726562 L 26.734375 34.878906 Z M 26.808594 35.234375 "/>
<path style=" stroke:none;fill-rule:nonzero;fill:rgb(100%,100%,100%);fill-opacity:1;" d="M 27.902344 34.128906 L 28.039062 34.007812 L 27.894531 33.8125 L 27.75 33.933594 Z M 27.902344 34.128906 "/>
<path style=" stroke:none;fill-rule:nonzero;fill:rgb(100%,100%,100%);fill-opacity:1;" d="M 12.207031 39.691406 L 12.15625 39.824219 L 12.25 39.824219 C 12.203125 39.835938 12.152344 39.835938 12.105469 39.824219 L 12.011719 39.824219 L 12.011719 39.957031 L 12.15625 39.957031 C 12.234375 39.988281 12.320312 39.988281 12.394531 39.957031 C 12.449219 39.933594 12.488281 39.886719 12.5 39.835938 C 12.515625 39.796875 12.515625 39.757812 12.5 39.722656 C 12.472656 39.679688 12.433594 39.640625 12.386719 39.621094 Z M 12.207031 39.691406 "/>
<path style=" stroke:none;fill-rule:nonzero;fill:rgb(100%,100%,100%);fill-opacity:1;" d="M 14.949219 39.601562 L 14.679688 39.519531 L 14.484375 39.398438 C 14.480469 39.375 14.480469 39.351562 14.484375 39.328125 C 14.480469 39.300781 14.480469 39.273438 14.484375 39.246094 C 14.488281 39.203125 14.511719 39.167969 14.546875 39.144531 C 14.605469 39.117188 14.675781 39.117188 14.734375 39.144531 C 14.792969 39.148438 14.851562 39.171875 14.898438 39.214844 C 14.933594 39.257812 14.953125 39.3125 14.960938 39.367188 L 15.148438 39.367188 C 15.160156 39.300781 15.160156 39.230469 15.148438 39.164062 C 15.113281 39.109375 15.0625 39.0625 15.003906 39.03125 C 14.933594 38.996094 14.855469 38.96875 14.773438 38.960938 L 14.359375 38.960938 C 14.320312 38.988281 14.28125 39.023438 14.257812 39.0625 C 14.242188 39.113281 14.242188 39.164062 14.257812 39.214844 C 14.246094 39.273438 14.246094 39.332031 14.257812 39.386719 C 14.285156 39.4375 14.324219 39.476562 14.371094 39.511719 C 14.460938 39.570312 14.558594 39.617188 14.660156 39.652344 C 14.730469 39.671875 14.796875 39.703125 14.855469 39.742188 C 14.878906 39.78125 14.878906 39.828125 14.855469 39.863281 C 14.855469 39.914062 14.828125 39.960938 14.785156 39.984375 C 14.722656 40.011719 14.652344 40.011719 14.589844 39.984375 C 14.554688 39.988281 14.519531 39.984375 14.484375 39.972656 C 14.4375 39.917969 14.414062 39.84375 14.414062 39.773438 L 14.175781 39.773438 C 14.183594 39.886719 14.226562 39.996094 14.296875 40.085938 C 14.390625 40.164062 14.507812 40.210938 14.628906 40.21875 C 14.707031 40.238281 14.789062 40.238281 14.867188 40.21875 C 14.933594 40.195312 14.992188 40.152344 15.03125 40.097656 C 15.078125 40.039062 15.097656 39.972656 15.09375 39.902344 C 15.113281 39.847656 15.113281 39.785156 15.09375 39.730469 C 15.058594 39.675781 15.007812 39.632812 14.949219 39.597656 Z M 14.949219 39.601562 "/>
<path style=" stroke:none;fill-rule:nonzero;fill:rgb(100%,100%,100%);fill-opacity:1;" d="M 13.605469 38.75 C 13.480469 38.722656 13.347656 38.746094 13.242188 38.820312 C 13.101562 38.933594 13.015625 39.105469 13.015625 39.285156 C 12.988281 39.457031 13.027344 39.628906 13.121094 39.773438 C 13.195312 39.90625 13.328125 39.996094 13.480469 40.015625 C 13.574219 40.035156 13.667969 40.035156 13.761719 40.015625 C 13.847656 39.980469 13.921875 39.914062 13.96875 39.832031 C 14.035156 39.726562 14.074219 39.605469 14.082031 39.480469 C 14.105469 39.3125 14.070312 39.144531 13.976562 39.003906 C 13.898438 38.867188 13.761719 38.773438 13.605469 38.75 Z M 13.863281 39.4375 C 13.863281 39.566406 13.816406 39.6875 13.730469 39.785156 C 13.664062 39.84375 13.570312 39.867188 13.480469 39.855469 C 13.390625 39.832031 13.308594 39.773438 13.265625 39.691406 C 13.207031 39.578125 13.191406 39.453125 13.210938 39.328125 C 13.214844 39.207031 13.257812 39.085938 13.335938 38.992188 C 13.402344 38.929688 13.496094 38.90625 13.585938 38.921875 C 13.679688 38.941406 13.757812 39.003906 13.800781 39.085938 C 13.859375 39.195312 13.882812 39.316406 13.863281 39.4375 Z M 13.863281 39.4375 "/>
<path style=" stroke:none;fill-rule:nonzero;fill:rgb(100%,100%,100%);fill-opacity:1;" d="M 17.03125 38.707031 L 15.914062 38.667969 L 15.945312 40.371094 L 17.101562 40.402344 L 17.09375 40.199219 L 16.140625 40.167969 L 16.140625 39.589844 L 17 39.609375 L 16.988281 39.417969 L 16.128906 39.386719 L 16.128906 38.871094 L 17.039062 38.902344 Z M 17.03125 38.707031 "/>
<path style=" stroke:none;fill-rule:nonzero;fill:rgb(100%,100%,100%);fill-opacity:1;" d="M 11.679688 38.253906 C 11.621094 38.195312 11.542969 38.152344 11.464844 38.132812 C 11.378906 38.117188 11.289062 38.117188 11.207031 38.132812 C 11.132812 38.125 11.0625 38.148438 11.007812 38.191406 C 10.953125 38.234375 10.914062 38.296875 10.894531 38.363281 L 11.070312 38.445312 C 11.09375 38.386719 11.136719 38.335938 11.195312 38.304688 C 11.261719 38.277344 11.335938 38.277344 11.402344 38.304688 C 11.484375 38.320312 11.558594 38.367188 11.609375 38.433594 C 11.628906 38.5 11.628906 38.566406 11.609375 38.628906 L 11.609375 38.679688 C 11.492188 38.691406 11.375 38.691406 11.257812 38.679688 L 11.082031 38.679688 C 11.03125 38.667969 10.984375 38.667969 10.9375 38.679688 C 10.890625 38.695312 10.847656 38.722656 10.8125 38.761719 C 10.777344 38.804688 10.75 38.855469 10.738281 38.910156 C 10.707031 39 10.707031 39.097656 10.738281 39.183594 C 10.800781 39.273438 10.894531 39.339844 11 39.367188 L 11.214844 39.367188 C 11.296875 39.359375 11.375 39.335938 11.441406 39.296875 C 11.429688 39.347656 11.429688 39.398438 11.441406 39.449219 L 11.660156 39.519531 C 11.652344 39.464844 11.652344 39.410156 11.660156 39.359375 C 11.675781 39.238281 11.699219 39.121094 11.734375 39.003906 L 11.796875 38.738281 C 11.800781 38.679688 11.800781 38.617188 11.796875 38.558594 C 11.808594 38.503906 11.808594 38.449219 11.796875 38.394531 C 11.773438 38.335938 11.734375 38.285156 11.679688 38.253906 Z M 11.546875 38.902344 C 11.535156 38.972656 11.507812 39.039062 11.464844 39.09375 C 11.425781 39.144531 11.371094 39.175781 11.308594 39.183594 C 11.25 39.207031 11.183594 39.207031 11.121094 39.183594 C 11.054688 39.171875 11 39.132812 10.96875 39.074219 C 10.949219 39.027344 10.949219 38.976562 10.96875 38.933594 C 10.976562 38.898438 10.992188 38.871094 11.019531 38.851562 C 11.046875 38.84375 11.074219 38.84375 11.101562 38.851562 L 11.277344 38.851562 C 11.378906 38.863281 11.484375 38.863281 11.589844 38.851562 L 11.589844 38.921875 Z M 11.546875 38.902344 "/>
<path style=" stroke:none;fill-rule:nonzero;fill:rgb(100%,100%,100%);fill-opacity:1;" d="M 12.300781 38.707031 C 12.375 38.667969 12.464844 38.667969 12.539062 38.707031 C 12.597656 38.726562 12.648438 38.761719 12.683594 38.808594 C 12.722656 38.875 12.742188 38.949219 12.734375 39.023438 L 12.921875 39.023438 C 12.929688 38.910156 12.894531 38.800781 12.828125 38.710938 C 12.769531 38.613281 12.679688 38.542969 12.570312 38.507812 C 12.480469 38.476562 12.382812 38.476562 12.292969 38.507812 C 12.203125 38.535156 12.125 38.589844 12.074219 38.667969 C 12.007812 38.765625 11.964844 38.875 11.949219 38.992188 C 11.890625 39.152344 11.890625 39.328125 11.949219 39.488281 C 11.992188 39.582031 12.066406 39.65625 12.15625 39.703125 L 12.15625 39.640625 L 12.292969 39.640625 L 12.292969 39.710938 C 12.390625 39.753906 12.503906 39.753906 12.601562 39.710938 C 12.703125 39.644531 12.773438 39.542969 12.808594 39.429688 L 12.632812 39.347656 C 12.613281 39.429688 12.566406 39.5 12.5 39.550781 C 12.4375 39.578125 12.363281 39.578125 12.300781 39.550781 C 12.21875 39.527344 12.148438 39.46875 12.117188 39.386719 C 12.078125 39.269531 12.078125 39.140625 12.117188 39.023438 C 12.136719 38.902344 12.203125 38.789062 12.300781 38.710938 Z M 12.300781 38.707031 "/>
<path style=" stroke:none;fill-rule:nonzero;fill:rgb(100%,100%,100%);fill-opacity:1;" d="M 18.148438 39.804688 C 18.109375 39.757812 18.058594 39.71875 18.003906 39.691406 L 17.722656 39.621094 L 17.546875 39.621094 C 17.503906 39.605469 17.46875 39.566406 17.464844 39.519531 C 17.457031 39.496094 17.457031 39.472656 17.464844 39.449219 C 17.460938 39.40625 17.480469 39.363281 17.515625 39.335938 C 17.5625 39.289062 17.625 39.265625 17.691406 39.265625 C 17.75 39.25 17.8125 39.25 17.867188 39.265625 C 17.917969 39.300781 17.949219 39.351562 17.960938 39.40625 L 18.148438 39.40625 C 18.132812 39.339844 18.105469 39.273438 18.066406 39.214844 C 18.023438 39.167969 17.972656 39.128906 17.910156 39.113281 C 17.832031 39.09375 17.75 39.09375 17.671875 39.113281 C 17.617188 39.101562 17.558594 39.101562 17.503906 39.113281 C 17.460938 39.128906 17.421875 39.152344 17.390625 39.183594 C 17.351562 39.21875 17.324219 39.257812 17.308594 39.304688 C 17.292969 39.355469 17.292969 39.410156 17.308594 39.457031 C 17.308594 39.515625 17.324219 39.574219 17.359375 39.621094 C 17.394531 39.667969 17.441406 39.707031 17.496094 39.730469 C 17.59375 39.769531 17.691406 39.792969 17.796875 39.8125 L 18.003906 39.863281 C 18.042969 39.890625 18.066406 39.929688 18.074219 39.976562 C 18.089844 40.019531 18.089844 40.070312 18.074219 40.117188 C 18.023438 40.160156 17.957031 40.183594 17.886719 40.1875 C 17.816406 40.191406 17.742188 40.175781 17.679688 40.136719 C 17.617188 40.09375 17.578125 40.027344 17.566406 39.953125 L 17.382812 39.953125 C 17.394531 40.074219 17.460938 40.179688 17.558594 40.246094 C 17.65625 40.316406 17.78125 40.34375 17.898438 40.320312 C 17.980469 40.320312 18.058594 40.296875 18.125 40.257812 C 18.1875 40.222656 18.238281 40.167969 18.269531 40.105469 C 18.285156 40.042969 18.285156 39.976562 18.269531 39.914062 C 18.242188 39.867188 18.199219 39.828125 18.148438 39.800781 Z M 18.148438 39.804688 "/>
<path style=" stroke:none;fill-rule:evenodd;fill:rgb(13.72549%,12.156863%,12.54902%);fill-opacity:1;" d="M 11.660156 30.703125 L 11.660156 32.355469 L 9.714844 32.355469 L 9.714844 27.703125 L 12.664062 27.703125 C 13.175781 27.667969 13.683594 27.796875 14.113281 28.066406 C 14.453125 28.34375 14.648438 28.753906 14.648438 29.1875 C 14.648438 29.617188 14.453125 30.03125 14.113281 30.304688 C 13.636719 30.601562 13.074219 30.742188 12.507812 30.703125 Z M 23.042969 28.835938 L 23.042969 29.382812 L 25.183594 29.382812 L 25.183594 30.507812 L 23.0625 30.507812 L 23.0625 32.324219 L 21.117188 32.324219 L 21.117188 27.660156 L 25.554688 27.660156 L 25.554688 28.847656 L 23.0625 28.847656 Z M 26.601562 13.828125 C 26.363281 14.070312 26.074219 14.253906 25.753906 14.363281 C 25.34375 14.492188 24.917969 14.550781 24.488281 14.535156 C 23.980469 14.550781 23.472656 14.480469 22.988281 14.324219 C 22.574219 14.171875 22.210938 13.898438 21.953125 13.542969 C 21.648438 13.132812 21.496094 12.632812 21.519531 12.125 C 21.480469 11.445312 21.761719 10.789062 22.285156 10.339844 C 22.902344 9.902344 23.65625 9.683594 24.417969 9.722656 C 25.003906 9.695312 25.585938 9.8125 26.113281 10.066406 C 26.542969 10.324219 26.867188 10.710938 27.046875 11.171875 L 27.046875 11.304688 L 25.308594 11.609375 L 25.308594 11.515625 C 25.277344 11.421875 25.226562 11.332031 25.164062 11.253906 C 25.082031 11.160156 24.976562 11.085938 24.863281 11.039062 C 24.726562 10.988281 24.582031 10.964844 24.4375 10.96875 C 24.132812 10.949219 23.839844 11.074219 23.640625 11.304688 C 23.480469 11.542969 23.40625 11.828125 23.425781 12.113281 C 23.398438 12.445312 23.484375 12.773438 23.671875 13.046875 C 23.867188 13.210938 24.117188 13.296875 24.375 13.289062 C 24.609375 13.308594 24.84375 13.238281 25.027344 13.097656 C 25.195312 12.9375 25.308594 12.734375 25.359375 12.507812 L 25.359375 12.410156 L 27.066406 12.824219 L 27.066406 12.933594 C 26.972656 13.265625 26.804688 13.570312 26.570312 13.828125 Z M 9.011719 10.910156 L 9.011719 11.457031 L 11.144531 11.457031 L 11.144531 12.570312 L 8.992188 12.570312 L 8.992188 14.382812 L 7.046875 14.382812 L 7.046875 9.734375 L 11.496094 9.734375 L 11.496094 10.910156 L 8.992188 10.910156 Z M 11.660156 29.585938 L 11.960938 29.585938 C 12.175781 29.601562 12.386719 29.558594 12.582031 29.464844 C 12.675781 29.414062 12.734375 29.316406 12.734375 29.210938 C 12.738281 29.105469 12.6875 29.003906 12.601562 28.9375 C 12.421875 28.847656 12.222656 28.808594 12.023438 28.828125 L 11.660156 28.828125 Z M 11.660156 29.585938 "/>
<path style=" stroke:none;fill-rule:evenodd;fill:rgb(96.078431%,92.156863%,0%);fill-opacity:1;" d="M 9.839844 27.804688 L 12.675781 27.804688 C 13.160156 27.765625 13.644531 27.886719 14.050781 28.148438 C 14.363281 28.394531 14.535156 28.769531 14.515625 29.160156 C 14.523438 29.558594 14.335938 29.9375 14.007812 30.175781 C 13.554688 30.460938 13.015625 30.589844 12.476562 30.550781 L 11.546875 30.550781 L 11.546875 32.191406 L 9.839844 32.191406 Z M 11.546875 29.699219 L 11.972656 29.699219 C 12.207031 29.71875 12.445312 29.667969 12.652344 29.558594 C 12.78125 29.484375 12.859375 29.355469 12.859375 29.210938 C 12.859375 29.070312 12.792969 28.9375 12.683594 28.847656 C 12.488281 28.730469 12.261719 28.679688 12.03125 28.707031 L 11.535156 28.707031 L 11.535156 29.71875 Z M 21.242188 27.773438 L 25.453125 27.773438 L 25.453125 28.726562 L 22.949219 28.726562 L 22.949219 29.507812 L 25.078125 29.507812 L 25.078125 30.398438 L 22.949219 30.398438 L 22.949219 32.210938 L 21.242188 32.210938 Z M 25.515625 12.570312 L 27.003906 12.925781 C 26.917969 13.242188 26.753906 13.535156 26.527344 13.777344 C 26.304688 14.003906 26.03125 14.179688 25.730469 14.292969 C 25.332031 14.414062 24.917969 14.472656 24.5 14.464844 C 24 14.457031 23.507812 14.363281 23.042969 14.183594 C 22.648438 14.03125 22.304688 13.777344 22.058594 13.441406 C 21.773438 13.050781 21.628906 12.574219 21.644531 12.09375 C 21.605469 11.445312 21.878906 10.816406 22.378906 10.390625 C 22.976562 9.960938 23.710938 9.75 24.449219 9.804688 C 25.015625 9.773438 25.578125 9.886719 26.082031 10.136719 C 26.484375 10.371094 26.792969 10.726562 26.960938 11.152344 L 25.460938 11.414062 C 25.417969 11.3125 25.355469 11.21875 25.277344 11.140625 C 25.183594 11.035156 25.066406 10.949219 24.933594 10.898438 C 24.789062 10.835938 24.628906 10.804688 24.46875 10.808594 C 24.128906 10.789062 23.800781 10.925781 23.578125 11.183594 C 23.402344 11.441406 23.316406 11.753906 23.339844 12.0625 C 23.296875 12.425781 23.402344 12.789062 23.632812 13.078125 C 23.839844 13.269531 24.121094 13.367188 24.40625 13.351562 C 24.671875 13.386719 24.9375 13.320312 25.152344 13.167969 C 25.335938 12.996094 25.460938 12.773438 25.515625 12.53125 Z M 7.160156 9.832031 L 11.382812 9.832031 L 11.382812 10.796875 L 8.878906 10.796875 L 8.878906 11.566406 L 11.007812 11.566406 L 11.007812 12.457031 L 8.878906 12.457031 L 8.878906 14.273438 L 7.160156 14.273438 Z M 7.160156 9.832031 "/>
<path style=" stroke:none;fill-rule:evenodd;fill:rgb(13.72549%,12.156863%,12.54902%);fill-opacity:1;" d="M 17.941406 19.554688 C 20.128906 19.273438 22.050781 17.984375 23.113281 16.085938 L 23.195312 15.933594 L 23.308594 16.078125 C 25.175781 18.675781 25.175781 22.140625 23.308594 24.742188 L 23.207031 24.882812 L 23.113281 24.730469 C 22.050781 22.839844 20.128906 21.558594 17.941406 21.285156 C 18.222656 23.429688 19.535156 25.3125 21.46875 26.355469 L 21.625 26.445312 L 21.480469 26.546875 C 18.832031 28.375 15.292969 28.375 12.644531 26.546875 L 12.5 26.445312 L 12.664062 26.34375 C 14.585938 25.292969 15.882812 23.414062 16.160156 21.277344 C 13.976562 21.550781 12.054688 22.832031 10.988281 24.722656 L 10.90625 24.875 L 10.792969 24.730469 C 8.925781 22.136719 8.925781 18.671875 10.792969 16.078125 L 10.894531 15.925781 L 10.988281 16.078125 C 12.046875 17.976562 13.96875 19.265625 16.160156 19.542969 C 15.886719 17.402344 14.582031 15.519531 12.652344 14.476562 L 12.488281 14.394531 L 12.632812 14.28125 C 15.28125 12.449219 18.820312 12.449219 21.46875 14.28125 L 21.613281 14.382812 L 21.457031 14.476562 C 19.519531 15.511719 18.203125 17.398438 17.921875 19.542969 Z M 17.941406 19.554688 "/>
<path style=" stroke:none;fill-rule:evenodd;fill:rgb(79.607843%,28.235294%,21.960784%);fill-opacity:1;" d="M 17.070312 13.007812 C 18.625 13.003906 20.144531 13.472656 21.417969 14.34375 C 19.394531 15.433594 18.046875 17.425781 17.804688 19.675781 C 20.101562 19.445312 22.132812 18.121094 23.238281 16.136719 C 25.074219 18.699219 25.074219 22.113281 23.238281 24.671875 C 22.128906 22.699219 20.105469 21.382812 17.816406 21.15625 C 18.058594 23.394531 19.40625 25.378906 21.425781 26.457031 C 18.816406 28.257812 15.328125 28.257812 12.714844 26.457031 C 14.71875 25.371094 16.054688 23.394531 16.296875 21.164062 C 14.019531 21.40625 12.003906 22.71875 10.894531 24.683594 C 9.054688 22.121094 9.054688 18.707031 10.894531 16.148438 C 11.996094 18.125 14.019531 19.445312 16.304688 19.683594 C 16.074219 17.445312 14.730469 15.460938 12.714844 14.375 C 13.984375 13.484375 15.507812 13.003906 17.070312 13.007812 Z M 17.070312 13.007812 "/>
<path style=" stroke:none;fill-rule:evenodd;fill:rgb(79.607843%,28.235294%,21.960784%);fill-opacity:1;" d="M 8.027344 1.289062 C 8.78125 1.289062 9.503906 1.578125 10.035156 2.101562 C 10.445312 1.269531 11.242188 0.6875 12.175781 0.539062 C 13.105469 0.394531 14.050781 0.707031 14.703125 1.371094 C 15.21875 0.519531 16.15625 0 17.164062 0 C 18.175781 0 19.109375 0.519531 19.628906 1.371094 C 20.277344 0.703125 21.222656 0.394531 22.148438 0.539062 C 23.078125 0.6875 23.875 1.269531 24.28125 2.101562 C 25.171875 1.246094 26.523438 1.050781 27.625 1.621094 C 28.726562 2.191406 29.328125 3.390625 29.113281 4.59375 C 28.894531 5.796875 27.910156 6.722656 26.675781 6.886719 C 25.441406 7.050781 24.238281 6.414062 23.703125 5.3125 C 23.074219 5.914062 22.199219 6.199219 21.328125 6.085938 C 20.457031 5.976562 19.6875 5.484375 19.234375 4.746094 C 18.691406 5.296875 17.945312 5.609375 17.164062 5.609375 C 16.382812 5.609375 15.636719 5.296875 15.09375 4.746094 C 14.644531 5.488281 13.871094 5.984375 12.996094 6.09375 C 12.121094 6.203125 11.246094 5.917969 10.617188 5.3125 C 9.988281 6.550781 8.535156 7.160156 7.1875 6.746094 C 5.839844 6.332031 5.003906 5.015625 5.214844 3.648438 C 5.421875 2.28125 6.617188 1.269531 8.027344 1.257812 Z M 19.8125 1.734375 C 20.183594 2.625 20.066406 3.636719 19.503906 4.421875 C 19.875 5.128906 20.582031 5.613281 21.390625 5.714844 C 22.199219 5.8125 23.007812 5.515625 23.546875 4.917969 C 23.464844 4.652344 23.421875 4.375 23.421875 4.097656 C 23.421875 3.492188 23.621094 2.902344 23.992188 2.414062 C 23.625 1.503906 22.730469 0.898438 21.726562 0.882812 C 21 0.878906 20.3125 1.191406 19.84375 1.734375 Z M 19.359375 1.683594 C 19.007812 2.160156 18.820312 2.730469 18.820312 3.316406 C 18.820312 3.679688 18.890625 4.042969 19.027344 4.382812 C 18.5625 4.921875 17.875 5.234375 17.152344 5.234375 C 16.429688 5.234375 15.742188 4.921875 15.269531 4.382812 C 15.425781 4.042969 15.511719 3.679688 15.519531 3.308594 C 15.515625 2.722656 15.328125 2.152344 14.980469 1.675781 C 15.410156 0.875 16.257812 0.375 17.179688 0.375 C 18.101562 0.375 18.949219 0.875 19.378906 1.675781 Z M 23.984375 4.988281 C 24.53125 4.277344 24.699219 3.347656 24.425781 2.496094 C 25.160156 1.683594 26.355469 1.445312 27.351562 1.914062 C 28.351562 2.386719 28.910156 3.445312 28.71875 4.515625 C 28.527344 5.582031 27.636719 6.398438 26.535156 6.507812 C 25.433594 6.617188 24.390625 5.996094 23.984375 4.988281 Z M 19.535156 2.132812 C 19.207031 2.699219 19.128906 3.371094 19.316406 3.996094 C 19.53125 3.636719 19.652344 3.226562 19.65625 2.808594 C 19.660156 2.582031 19.625 2.351562 19.554688 2.132812 Z M 23.796875 4.503906 C 24.007812 4.136719 24.117188 3.726562 24.117188 3.308594 C 24.128906 3.175781 24.128906 3.042969 24.117188 2.910156 C 23.90625 3.273438 23.796875 3.679688 23.796875 4.097656 C 23.785156 4.234375 23.785156 4.367188 23.796875 4.503906 Z M 14.765625 4.421875 C 14.214844 3.628906 14.113281 2.621094 14.484375 1.734375 C 13.921875 1.109375 13.066406 0.8125 12.222656 0.949219 C 11.382812 1.089844 10.671875 1.640625 10.347656 2.414062 C 10.714844 2.902344 10.914062 3.492188 10.914062 4.097656 C 10.914062 4.375 10.871094 4.652344 10.792969 4.917969 C 11.328125 5.519531 12.136719 5.820312 12.949219 5.722656 C 13.757812 5.621094 14.464844 5.136719 14.835938 4.421875 Z M 14.949219 3.984375 C 14.746094 3.621094 14.640625 3.214844 14.640625 2.800781 C 14.636719 2.570312 14.667969 2.34375 14.734375 2.121094 C 14.945312 2.480469 15.054688 2.890625 15.054688 3.308594 C 15.054688 3.535156 15.019531 3.765625 14.949219 3.984375 Z M 10.347656 4.988281 C 9.976562 4.503906 9.777344 3.914062 9.777344 3.308594 C 9.777344 3.03125 9.816406 2.753906 9.890625 2.484375 C 9.15625 1.679688 7.960938 1.445312 6.964844 1.921875 C 5.96875 2.394531 5.417969 3.457031 5.613281 4.523438 C 5.804688 5.589844 6.699219 6.402344 7.800781 6.507812 C 8.898438 6.617188 9.941406 5.996094 10.347656 4.988281 Z M 10.492188 4.492188 C 10.28125 4.128906 10.175781 3.714844 10.179688 3.296875 C 10.167969 3.164062 10.167969 3.03125 10.179688 2.902344 C 10.390625 3.261719 10.503906 3.671875 10.5 4.085938 C 10.511719 4.21875 10.511719 4.351562 10.5 4.484375 Z M 10.492188 4.492188 "/>
</g>
</svg>
