<?xml version="1.0" encoding="UTF-8"?>
<svg xmlns="http://www.w3.org/2000/svg" xmlns:xlink="http://www.w3.org/1999/xlink" width="32px" height="32px" viewBox="0 0 32 52" version="1.1">
<defs>
<linearGradient id="linear0" gradientUnits="userSpaceOnUse" x1="64.5113" y1="0" x2="64.5113" y2="212.859" gradientTransform="matrix(0.248062,0,0,0.244131,0,0.0122066)">
<stop offset="0" style="stop-color:rgb(0%,39.215686%,69.019608%);stop-opacity:1;"/>
<stop offset="0.2037" style="stop-color:rgb(0%,37.647059%,67.45098%);stop-opacity:1;"/>
<stop offset="0.4149" style="stop-color:rgb(5.490196%,34.117647%,63.529412%);stop-opacity:1;"/>
<stop offset="0.6293" style="stop-color:rgb(10.196078%,28.627451%,57.647059%);stop-opacity:1;"/>
<stop offset="0.8448" style="stop-color:rgb(12.941176%,20.784314%,50.196078%);stop-opacity:1;"/>
<stop offset="1" style="stop-color:rgb(13.72549%,13.333333%,44.313725%);stop-opacity:1;"/>
</linearGradient>
</defs>
<g id="surface1">
<path style=" stroke:none;fill-rule:nonzero;fill:url(#linear0);" d="M 26.171875 11.144531 C 26.492188 10.679688 26.964844 10.070312 27.535156 9.4375 C 28.601562 8.238281 30.113281 6.703125 30.113281 6.703125 C 30.113281 6.703125 28.105469 5.1875 25.996094 4.1875 C 23.886719 3.1875 20.835938 2.28125 19.050781 1.625 C 17.265625 0.941406 16 0.0117188 16 0.0117188 C 16 0.0117188 14.734375 0.941406 12.949219 1.625 C 11.164062 2.308594 8.136719 3.1875 6.027344 4.1875 C 3.917969 5.1875 1.886719 6.703125 1.886719 6.703125 C 1.886719 6.703125 3.398438 8.238281 4.464844 9.4375 C 4.984375 10.023438 5.433594 10.609375 5.753906 11.070312 L 5.828125 11.167969 C 5.210938 11.292969 4.539062 11.339844 3.648438 11.316406 C 1.214844 11.242188 0 10.609375 0 10.609375 C 0 10.609375 0.644531 11.316406 0.644531 12.855469 L 0.644531 35.800781 C 0.644531 38.730469 1.4375 41.027344 3.25 43.101562 C 5.058594 45.175781 7.863281 46.421875 10.640625 47.714844 C 13.792969 49.203125 15.207031 50.253906 16 51.988281 C 16.792969 50.253906 18.234375 49.203125 21.359375 47.714844 C 24.113281 46.421875 26.941406 45.175781 28.75 43.101562 C 30.5625 41.027344 31.355469 38.730469 31.355469 35.800781 L 31.355469 12.855469 C 31.355469 11.316406 32 10.609375 32 10.609375 C 32 10.609375 30.785156 11.21875 28.351562 11.292969 C 27.484375 11.316406 26.839844 11.265625 26.21875 11.144531 Z M 26.171875 11.144531 "/>
<path style=" stroke:none;fill-rule:nonzero;fill:rgb(100%,100%,100%);fill-opacity:1;" d="M 23.839844 24.890625 C 23.839844 25.253906 23.542969 25.546875 23.167969 25.546875 C 22.796875 25.546875 22.5 25.253906 22.5 24.890625 C 22.5 24.523438 22.796875 24.230469 23.167969 24.230469 C 23.542969 24.230469 23.839844 24.523438 23.839844 24.890625 Z M 23.839844 24.890625 "/>
<path style=" stroke:none;fill-rule:nonzero;fill:rgb(100%,100%,100%);fill-opacity:1;" d="M 22.351562 24.890625 C 22.351562 25.253906 22.050781 25.546875 21.679688 25.546875 C 21.308594 25.546875 21.011719 25.253906 21.011719 24.890625 C 21.011719 24.523438 21.308594 24.230469 21.679688 24.230469 C 22.050781 24.230469 22.351562 24.523438 22.351562 24.890625 Z M 22.351562 24.890625 "/>
<path style=" stroke:none;fill-rule:nonzero;fill:rgb(100%,100%,100%);fill-opacity:1;" d="M 23.839844 23.132812 C 23.839844 23.496094 23.542969 23.789062 23.167969 23.789062 C 22.796875 23.789062 22.5 23.496094 22.5 23.132812 C 22.5 22.765625 22.796875 22.472656 23.167969 22.472656 C 23.542969 22.472656 23.839844 22.765625 23.839844 23.132812 Z M 23.839844 23.132812 "/>
<path style=" stroke:none;fill-rule:nonzero;fill:rgb(100%,100%,100%);fill-opacity:1;" d="M 23.167969 26.078125 C 22.796875 26.074219 22.496094 26.363281 22.488281 26.726562 C 22.484375 27.09375 22.78125 27.390625 23.152344 27.394531 C 23.519531 27.398438 23.824219 27.109375 23.828125 26.746094 C 23.832031 26.378906 23.539062 26.082031 23.167969 26.078125 Z M 23.167969 26.078125 "/>
<path style=" stroke:none;fill-rule:nonzero;fill:rgb(100%,100%,100%);fill-opacity:1;" d="M 23.960938 24.890625 C 23.960938 25.253906 24.261719 25.546875 24.632812 25.546875 C 25.003906 25.546875 25.300781 25.253906 25.300781 24.890625 C 25.300781 24.523438 25.003906 24.230469 24.632812 24.230469 C 24.261719 24.230469 23.960938 24.523438 23.960938 24.890625 Z M 23.960938 24.890625 "/>
<path style=" stroke:none;fill-rule:nonzero;fill:rgb(100%,100%,100%);fill-opacity:1;" d="M 26.636719 31.316406 C 26.265625 31.3125 25.960938 31.605469 25.957031 31.96875 C 25.953125 32.332031 26.246094 32.632812 26.617188 32.636719 C 26.988281 32.640625 27.292969 32.347656 27.296875 31.984375 C 27.300781 31.621094 27.003906 31.320312 26.636719 31.316406 Z M 26.636719 31.316406 "/>
<path style=" stroke:none;fill-rule:nonzero;fill:rgb(100%,100%,100%);fill-opacity:1;" d="M 25.164062 31.308594 C 24.792969 31.304688 24.488281 31.59375 24.484375 31.960938 C 24.480469 32.324219 24.773438 32.621094 25.144531 32.625 C 25.515625 32.632812 25.820312 32.339844 25.824219 31.976562 C 25.828125 31.613281 25.53125 31.3125 25.164062 31.308594 Z M 25.164062 31.308594 "/>
<path style=" stroke:none;fill-rule:nonzero;fill:rgb(100%,100%,100%);fill-opacity:1;" d="M 27.3125 30.210938 C 27.3125 30.578125 27.015625 30.871094 26.640625 30.871094 C 26.269531 30.871094 25.972656 30.578125 25.972656 30.210938 C 25.972656 29.84375 26.269531 29.550781 26.640625 29.550781 C 27.015625 29.550781 27.3125 29.84375 27.3125 30.210938 Z M 27.3125 30.210938 "/>
<path style=" stroke:none;fill-rule:nonzero;fill:rgb(100%,100%,100%);fill-opacity:1;" d="M 27.285156 33.816406 C 27.28125 33.453125 26.976562 33.160156 26.609375 33.164062 C 26.238281 33.171875 25.941406 33.46875 25.945312 33.832031 C 25.953125 34.195312 26.257812 34.488281 26.625 34.484375 C 26.996094 34.476562 27.292969 34.179688 27.285156 33.816406 Z M 27.285156 33.816406 "/>
<path style=" stroke:none;fill-rule:nonzero;fill:rgb(100%,100%,100%);fill-opacity:1;" d="M 28.773438 31.960938 C 28.769531 31.597656 28.464844 31.304688 28.097656 31.308594 C 27.726562 31.3125 27.429688 31.613281 27.433594 31.976562 C 27.441406 32.339844 27.742188 32.632812 28.113281 32.628906 C 28.484375 32.621094 28.777344 32.324219 28.773438 31.960938 Z M 28.773438 31.960938 "/>
<path style=" stroke:none;fill-rule:nonzero;fill:rgb(100%,100%,100%);fill-opacity:1;" d="M 27.3125 17.785156 C 27.3125 18.152344 27.015625 18.445312 26.640625 18.445312 C 26.269531 18.445312 25.972656 18.152344 25.972656 17.785156 C 25.972656 17.417969 26.269531 17.125 26.640625 17.125 C 27.015625 17.125 27.3125 17.417969 27.3125 17.785156 Z M 27.3125 17.785156 "/>
<path style=" stroke:none;fill-rule:nonzero;fill:rgb(100%,100%,100%);fill-opacity:1;" d="M 25.824219 17.785156 C 25.824219 18.152344 25.527344 18.445312 25.152344 18.445312 C 24.78125 18.445312 24.484375 18.152344 24.484375 17.785156 C 24.484375 17.417969 24.78125 17.125 25.152344 17.125 C 25.527344 17.125 25.824219 17.417969 25.824219 17.785156 Z M 25.824219 17.785156 "/>
<path style=" stroke:none;fill-rule:nonzero;fill:rgb(100%,100%,100%);fill-opacity:1;" d="M 27.3125 16.027344 C 27.3125 16.394531 27.015625 16.6875 26.640625 16.6875 C 26.269531 16.6875 25.972656 16.394531 25.972656 16.027344 C 25.972656 15.660156 26.269531 15.367188 26.640625 15.367188 C 27.015625 15.367188 27.3125 15.660156 27.3125 16.027344 Z M 27.3125 16.027344 "/>
<path style=" stroke:none;fill-rule:nonzero;fill:rgb(100%,100%,100%);fill-opacity:1;" d="M 27.285156 19.65625 C 27.28125 19.292969 26.976562 19 26.609375 19.003906 C 26.238281 19.011719 25.941406 19.308594 25.945312 19.671875 C 25.953125 20.039062 26.257812 20.328125 26.625 20.324219 C 26.996094 20.320312 27.292969 20.019531 27.285156 19.65625 Z M 27.285156 19.65625 "/>
<path style=" stroke:none;fill-rule:nonzero;fill:rgb(100%,100%,100%);fill-opacity:1;" d="M 27.4375 17.785156 C 27.4375 18.152344 27.734375 18.445312 28.105469 18.445312 C 28.476562 18.445312 28.773438 18.152344 28.773438 17.785156 C 28.773438 17.417969 28.476562 17.125 28.105469 17.125 C 27.734375 17.125 27.4375 17.417969 27.4375 17.785156 Z M 27.4375 17.785156 "/>
<path style=" stroke:none;fill-rule:nonzero;fill:rgb(100%,100%,100%);fill-opacity:1;" d="M 19.703125 31.308594 C 19.332031 31.300781 19.03125 31.59375 19.023438 31.957031 C 19.019531 32.320312 19.316406 32.621094 19.6875 32.625 C 20.054688 32.628906 20.359375 32.339844 20.363281 31.972656 C 20.371094 31.609375 20.074219 31.3125 19.703125 31.308594 Z M 19.703125 31.308594 "/>
<path style=" stroke:none;fill-rule:nonzero;fill:rgb(100%,100%,100%);fill-opacity:1;" d="M 18.230469 31.296875 C 17.859375 31.292969 17.558594 31.585938 17.550781 31.949219 C 17.546875 32.3125 17.84375 32.613281 18.214844 32.617188 C 18.582031 32.621094 18.886719 32.328125 18.890625 31.964844 C 18.898438 31.601562 18.601562 31.300781 18.230469 31.296875 Z M 18.230469 31.296875 "/>
<path style=" stroke:none;fill-rule:nonzero;fill:rgb(100%,100%,100%);fill-opacity:1;" d="M 20.367188 30.210938 C 20.367188 30.578125 20.066406 30.871094 19.695312 30.871094 C 19.324219 30.871094 19.027344 30.578125 19.027344 30.210938 C 19.027344 29.84375 19.324219 29.550781 19.695312 29.550781 C 20.066406 29.550781 20.367188 29.84375 20.367188 30.210938 Z M 20.367188 30.210938 "/>
<path style=" stroke:none;fill-rule:nonzero;fill:rgb(100%,100%,100%);fill-opacity:1;" d="M 20.367188 33.816406 C 20.359375 33.453125 20.058594 33.160156 19.6875 33.164062 C 19.316406 33.167969 19.019531 33.46875 19.027344 33.832031 C 19.03125 34.195312 19.335938 34.488281 19.703125 34.484375 C 20.074219 34.476562 20.371094 34.179688 20.367188 33.816406 Z M 20.367188 33.816406 "/>
<path style=" stroke:none;fill-rule:nonzero;fill:rgb(100%,100%,100%);fill-opacity:1;" d="M 21.828125 31.960938 C 21.824219 31.597656 21.519531 31.304688 21.152344 31.308594 C 20.78125 31.3125 20.484375 31.613281 20.488281 31.976562 C 20.496094 32.339844 20.796875 32.632812 21.167969 32.628906 C 21.539062 32.621094 21.832031 32.324219 21.828125 31.960938 Z M 21.828125 31.960938 "/>
<path style=" stroke:none;fill-rule:nonzero;fill:rgb(100%,100%,100%);fill-opacity:1;" d="M 20.367188 17.785156 C 20.367188 18.152344 20.066406 18.445312 19.695312 18.445312 C 19.324219 18.445312 19.027344 18.152344 19.027344 17.785156 C 19.027344 17.417969 19.324219 17.125 19.695312 17.125 C 20.066406 17.125 20.367188 17.417969 20.367188 17.785156 Z M 20.367188 17.785156 "/>
<path style=" stroke:none;fill-rule:nonzero;fill:rgb(100%,100%,100%);fill-opacity:1;" d="M 18.902344 17.785156 C 18.902344 18.152344 18.605469 18.445312 18.234375 18.445312 C 17.859375 18.445312 17.5625 18.152344 17.5625 17.785156 C 17.5625 17.417969 17.859375 17.125 18.234375 17.125 C 18.605469 17.125 18.902344 17.417969 18.902344 17.785156 Z M 18.902344 17.785156 "/>
<path style=" stroke:none;fill-rule:nonzero;fill:rgb(100%,100%,100%);fill-opacity:1;" d="M 20.367188 16.027344 C 20.367188 16.394531 20.066406 16.6875 19.695312 16.6875 C 19.324219 16.6875 19.027344 16.394531 19.027344 16.027344 C 19.027344 15.660156 19.324219 15.367188 19.695312 15.367188 C 20.066406 15.367188 20.367188 15.660156 20.367188 16.027344 Z M 20.367188 16.027344 "/>
<path style=" stroke:none;fill-rule:nonzero;fill:rgb(100%,100%,100%);fill-opacity:1;" d="M 20.367188 19.65625 C 20.359375 19.292969 20.058594 19 19.6875 19.003906 C 19.316406 19.011719 19.019531 19.308594 19.027344 19.671875 C 19.03125 20.039062 19.335938 20.328125 19.703125 20.324219 C 20.074219 20.320312 20.371094 20.019531 20.367188 19.65625 Z M 20.367188 19.65625 "/>
<path style=" stroke:none;fill-rule:nonzero;fill:rgb(100%,100%,100%);fill-opacity:1;" d="M 16 9.265625 C 18.183594 9.265625 19.820312 9.4375 22.277344 10.386719 L 23.316406 10.804688 C 25.152344 11.558594 26.171875 11.949219 28.378906 11.902344 C 29.296875 11.878906 30.066406 11.753906 30.683594 11.632812 C 30.636719 11.949219 30.585938 12.464844 30.585938 12.878906 L 30.585938 35.828125 C 30.585938 38.609375 29.84375 40.636719 28.15625 42.539062 C 26.566406 44.347656 24.136719 45.492188 21.554688 46.714844 L 21.035156 46.957031 C 18.679688 48.082031 17.042969 49.105469 16 50.5 Z M 25.550781 22.15625 L 20.761719 22.15625 L 20.761719 25.621094 C 20.761719 26.914062 21.828125 27.988281 23.167969 27.988281 C 24.484375 27.988281 25.574219 26.941406 25.574219 25.621094 L 25.574219 22.15625 Z M 29.023438 29.234375 L 24.234375 29.234375 L 24.234375 32.703125 C 24.234375 33.996094 25.300781 35.070312 26.640625 35.070312 C 27.957031 35.070312 29.046875 34.019531 29.046875 32.703125 L 29.046875 29.234375 Z M 29.023438 15.050781 L 24.234375 15.050781 L 24.234375 18.515625 C 24.234375 19.8125 25.300781 20.886719 26.640625 20.886719 C 27.957031 20.886719 29.046875 19.835938 29.046875 18.515625 L 29.046875 15.050781 Z M 22.101562 29.234375 L 17.289062 29.234375 L 17.289062 32.703125 C 17.289062 33.996094 18.355469 35.070312 19.695312 35.070312 C 21.011719 35.070312 22.101562 34.019531 22.101562 32.703125 Z M 22.101562 15.050781 L 17.289062 15.050781 L 17.289062 18.515625 C 17.289062 19.8125 18.355469 20.886719 19.695312 20.886719 C 21.011719 20.886719 22.101562 19.835938 22.101562 18.515625 Z M 22.101562 15.050781 "/>
<path style=" stroke:none;fill-rule:nonzero;fill:rgb(100%,100%,100%);fill-opacity:1;" d="M 20.488281 17.785156 C 20.488281 18.152344 20.789062 18.445312 21.160156 18.445312 C 21.53125 18.445312 21.828125 18.152344 21.828125 17.785156 C 21.828125 17.417969 21.53125 17.125 21.160156 17.125 C 20.789062 17.125 20.488281 17.417969 20.488281 17.785156 Z M 20.488281 17.785156 "/>
<path style=" stroke:none;fill-rule:nonzero;fill:rgb(100%,100%,100%);fill-opacity:1;" d="M 25.105469 10.851562 C 24.410156 10.609375 23.664062 10.289062 22.648438 9.875 L 22.722656 9.800781 L 25.949219 6.382812 C 26.121094 6.214844 26.097656 5.945312 25.921875 5.773438 L 25.898438 5.75 C 25.722656 5.578125 25.449219 5.601562 25.277344 5.773438 L 22.398438 8.800781 L 22.324219 8.875 L 22.226562 4.652344 C 22.226562 4.40625 22.027344 4.234375 21.78125 4.234375 L 21.730469 4.234375 C 21.480469 4.234375 21.308594 4.429688 21.308594 4.675781 L 21.433594 9.386719 L 21.433594 9.4375 C 19.894531 8.898438 18.605469 8.628906 17.214844 8.53125 L 17.191406 8.53125 L 17.761719 7.53125 C 17.886719 7.335938 17.8125 7.066406 17.585938 6.96875 L 17.539062 6.945312 C 17.339844 6.824219 17.066406 6.921875 16.941406 7.117188 L 16.644531 7.652344 L 15.253906 7.652344 L 14.414062 4.1875 L 17.488281 4.1875 C 17.488281 4.1875 17.488281 4.332031 17.488281 4.503906 C 17.488281 4.675781 17.6875 4.820312 17.910156 4.820312 L 17.960938 4.820312 C 18.207031 4.820312 18.382812 4.625 18.382812 4.40625 C 18.382812 4.40625 18.382812 3.941406 18.382812 3.699219 C 18.382812 3.480469 18.183594 3.285156 17.960938 3.285156 L 13.84375 3.285156 C 13.519531 3.285156 13.320312 3.527344 13.394531 3.84375 L 14.5625 8.558594 L 14.535156 8.558594 C 12.972656 8.679688 11.535156 9.046875 9.699219 9.753906 L 9.648438 9.679688 L 8.535156 8.117188 L 8.953125 7.847656 C 9.152344 7.726562 9.226562 7.457031 9.105469 7.261719 L 9.078125 7.214844 C 8.953125 7.019531 8.683594 6.945312 8.484375 7.066406 L 8.011719 7.359375 L 7.390625 6.507812 L 10.023438 5.1875 C 10.023438 5.1875 10.097656 5.335938 10.195312 5.503906 C 10.292969 5.675781 10.542969 5.726562 10.742188 5.601562 L 10.789062 5.578125 C 10.988281 5.457031 11.0625 5.1875 10.941406 4.992188 C 10.941406 4.992188 10.691406 4.554688 10.566406 4.359375 C 10.445312 4.164062 10.195312 4.089844 9.972656 4.210938 L 6.523438 5.945312 C 6.226562 6.089844 6.152344 6.410156 6.351562 6.675781 L 8.730469 10.023438 L 8.804688 10.121094 C 8.0625 10.414062 7.464844 10.679688 6.894531 10.851562 L 6.871094 10.804688 C 5.78125 9.386719 3.375 6.871094 3.375 6.871094 C 3.375 6.871094 4.242188 6.140625 6.648438 4.820312 C 9.402344 3.308594 13.320312 2.28125 16 2.28125 C 18.679688 2.28125 22.597656 3.308594 25.351562 4.796875 C 27.757812 6.117188 28.625 6.847656 28.625 6.847656 C 28.625 6.847656 26.21875 9.363281 25.128906 10.777344 Z M 11.78125 8.070312 C 11.609375 8.070312 11.484375 8.214844 11.484375 8.363281 C 11.484375 8.53125 11.632812 8.65625 11.78125 8.65625 C 11.957031 8.65625 12.082031 8.507812 12.082031 8.363281 C 12.082031 8.191406 11.957031 8.070312 11.78125 8.070312 Z M 18.804688 7.75 C 18.628906 7.75 18.503906 7.898438 18.503906 8.042969 C 18.503906 8.214844 18.652344 8.335938 18.804688 8.335938 C 18.976562 8.335938 19.101562 8.191406 19.101562 8.042969 C 19.101562 7.875 18.953125 7.75 18.804688 7.75 Z M 24.136719 9.410156 C 23.960938 9.410156 23.839844 9.558594 23.839844 9.703125 C 23.839844 9.875 23.988281 9.996094 24.136719 9.996094 C 24.308594 9.996094 24.433594 9.851562 24.433594 9.703125 C 24.433594 9.558594 24.308594 9.410156 24.136719 9.410156 Z M 24.136719 9.410156 "/>
<path style=" stroke:none;fill-rule:nonzero;fill:rgb(100%,100%,100%);fill-opacity:1;" d="M 11.113281 30.847656 C 10.914062 30.847656 10.765625 30.917969 10.765625 31.015625 C 10.765625 31.113281 10.789062 31.210938 10.941406 31.210938 C 11.089844 31.210938 11.359375 31.1875 11.386719 31.066406 C 11.410156 30.945312 11.386719 30.847656 11.113281 30.847656 Z M 11.113281 30.847656 "/>
<path style=" stroke:none;fill-rule:nonzero;fill:rgb(100%,100%,100%);fill-opacity:1;" d="M 12.105469 30.359375 C 11.933594 30.359375 11.757812 30.429688 11.78125 30.625 C 11.808594 30.820312 11.78125 31.164062 11.734375 31.335938 C 11.683594 31.503906 11.609375 31.75 11.484375 31.894531 C 11.359375 32.042969 11.136719 32.089844 11.113281 32.285156 C 11.089844 32.480469 11.1875 32.578125 11.238281 32.605469 C 11.3125 32.652344 11.460938 32.675781 11.609375 32.53125 C 11.757812 32.359375 12.054688 32.066406 12.128906 31.96875 C 12.203125 31.871094 12.277344 31.601562 12.253906 31.359375 C 12.230469 31.113281 12.304688 30.945312 12.328125 30.75 C 12.351562 30.554688 12.402344 30.382812 12.105469 30.359375 Z M 12.105469 30.359375 "/>
<path style=" stroke:none;fill-rule:nonzero;fill:rgb(100%,100%,100%);fill-opacity:1;" d="M 11.0625 32.628906 C 10.863281 32.53125 10.667969 32.675781 10.691406 32.898438 C 10.691406 33.140625 10.691406 33.507812 10.617188 33.628906 C 10.542969 33.75 10.542969 34.019531 10.542969 34.433594 C 10.542969 34.851562 10.542969 35.167969 10.691406 35.386719 C 10.839844 35.632812 11.015625 35.632812 11.015625 35.730469 C 11.015625 35.828125 10.863281 35.925781 10.789062 35.972656 C 10.714844 36.023438 10.667969 36.191406 10.714844 36.4375 C 10.765625 36.679688 10.941406 36.777344 11.1875 36.753906 C 11.4375 36.753906 11.757812 36.632812 11.90625 36.414062 C 12.054688 36.167969 12.082031 35.898438 11.957031 35.800781 C 11.832031 35.703125 11.660156 35.65625 11.632812 35.386719 C 11.585938 35.117188 11.511719 34.972656 11.460938 34.898438 C 11.410156 34.824219 11.335938 34.679688 11.386719 34.335938 C 11.4375 34.019531 11.386719 33.875 11.386719 33.433594 C 11.386719 32.996094 11.410156 32.800781 11.0625 32.628906 Z M 11.0625 32.628906 "/>
<path style=" stroke:none;fill-rule:nonzero;fill:rgb(100%,100%,100%);fill-opacity:1;" d="M 7.8125 17.027344 C 7.886719 17.003906 7.914062 16.90625 7.914062 16.90625 C 8.113281 16.953125 8.335938 16.980469 8.335938 16.980469 C 8.335938 17.078125 8.359375 17.148438 8.507812 17.148438 C 8.632812 17.148438 8.558594 17.101562 8.707031 17.078125 C 8.878906 17.027344 9.03125 17.078125 9.03125 17.078125 C 8.980469 16.929688 9.03125 16.832031 9.078125 16.757812 C 9.128906 16.6875 9.351562 16.6875 9.402344 16.613281 C 9.449219 16.539062 9.449219 16.441406 9.375 16.320312 C 9.300781 16.199219 9.402344 15.953125 9.476562 15.929688 C 9.550781 15.90625 9.675781 15.832031 9.699219 15.683594 C 9.722656 15.539062 9.949219 15.488281 9.972656 15.367188 C 9.996094 15.246094 9.773438 15.171875 9.648438 14.953125 C 9.527344 14.734375 9.527344 14.636719 9.601562 14.464844 C 9.675781 14.316406 9.449219 14.34375 9.375 14.246094 C 9.300781 14.121094 9.253906 14.050781 9.179688 14.050781 C 9.105469 14.050781 8.980469 14.121094 8.855469 14.148438 C 8.730469 14.171875 8.484375 13.976562 8.382812 13.976562 C 8.285156 13.976562 8.160156 13.878906 8.136719 13.78125 C 8.113281 13.683594 8.039062 13.632812 7.886719 13.609375 C 7.738281 13.585938 7.765625 13.707031 7.863281 13.730469 C 7.960938 13.78125 7.988281 13.828125 7.9375 14 C 7.886719 14.171875 7.988281 14.171875 8.085938 14.171875 C 8.1875 14.171875 8.433594 14.246094 8.683594 14.34375 C 8.929688 14.414062 8.929688 14.636719 8.929688 14.78125 C 8.929688 14.929688 8.929688 15 9.078125 14.976562 C 9.226562 14.953125 9.351562 15.050781 9.375 15.171875 C 9.402344 15.292969 9.277344 15.34375 9.226562 15.464844 C 9.179688 15.585938 9.105469 15.78125 9.179688 15.878906 C 9.253906 15.976562 9.179688 16.246094 9.054688 16.515625 C 8.929688 16.785156 8.683594 16.882812 8.484375 16.929688 C 8.308594 16.953125 7.8125 16.882812 7.789062 16.808594 C 7.738281 16.757812 7.664062 16.734375 7.664062 16.808594 C 7.664062 16.882812 7.566406 16.929688 7.34375 16.90625 C 7.09375 16.90625 6.921875 16.734375 6.847656 16.441406 C 6.773438 16.148438 6.921875 15.878906 6.921875 15.878906 C 6.921875 15.878906 6.773438 15.855469 6.574219 15.585938 C 6.375 15.320312 6.324219 15.148438 6.277344 14.878906 C 6.226562 14.609375 6.375 14.367188 6.597656 14.195312 C 6.820312 14.023438 7.046875 13.707031 7.21875 13.585938 C 7.367188 13.464844 7.640625 13.464844 7.640625 13.464844 C 7.640625 13.316406 7.886719 13.269531 8.136719 13.269531 C 8.382812 13.269531 8.507812 13.339844 8.632812 13.4375 C 8.757812 13.535156 8.855469 13.4375 9.078125 13.414062 C 9.300781 13.390625 9.574219 13.464844 9.722656 13.585938 C 9.871094 13.707031 9.949219 13.828125 10.144531 13.902344 C 10.34375 14 10.394531 14.195312 10.542969 14.34375 C 10.714844 14.511719 10.714844 14.832031 10.816406 14.929688 C 10.914062 15.027344 10.863281 15.320312 10.863281 15.515625 C 10.863281 15.710938 10.59375 15.855469 10.566406 15.976562 C 10.542969 16.101562 10.367188 16.296875 10.320312 16.394531 C 10.269531 16.492188 10.195312 16.660156 10.070312 16.757812 C 9.949219 16.832031 9.773438 17.148438 9.625 17.246094 C 9.476562 17.34375 9.425781 17.371094 9.351562 17.222656 C 9.277344 17.101562 9.226562 17.273438 9.226562 17.613281 C 9.226562 17.980469 9.328125 17.90625 9.476562 17.980469 C 9.625 18.027344 9.648438 18.054688 9.75 17.882812 C 9.847656 17.710938 9.699219 17.710938 9.574219 17.636719 C 9.449219 17.566406 9.425781 17.394531 9.476562 17.34375 C 9.527344 17.296875 9.75 17.273438 10.023438 17.320312 C 10.292969 17.371094 10.417969 17.492188 10.714844 17.589844 C 11.015625 17.664062 11.0625 17.636719 11.238281 17.808594 C 11.410156 17.980469 11.535156 17.957031 11.707031 18.078125 C 11.882812 18.199219 11.957031 18.371094 12.007812 18.542969 C 12.054688 18.710938 12.128906 19.03125 12.277344 19.199219 C 12.429688 19.371094 12.453125 19.714844 12.503906 20.078125 C 12.550781 20.445312 12.652344 20.789062 12.851562 21.179688 C 13.046875 21.570312 12.972656 21.789062 12.949219 22.058594 C 12.925781 22.324219 13.074219 22.472656 13.074219 22.789062 C 13.097656 23.105469 13.074219 23.351562 13 23.523438 C 12.925781 23.691406 12.824219 23.960938 12.851562 24.328125 C 12.875 24.695312 12.925781 24.890625 12.800781 25.058594 C 12.675781 25.230469 12.601562 25.351562 12.625 25.644531 C 12.652344 25.9375 12.578125 26.011719 12.699219 26.109375 C 12.824219 26.207031 12.898438 26.207031 12.875 26.671875 C 12.851562 26.890625 12.851562 27.183594 12.949219 27.332031 C 13.046875 27.476562 13 27.746094 12.75 28.015625 C 12.503906 28.28125 12.578125 28.503906 12.699219 28.699219 C 12.824219 28.894531 12.851562 29.015625 12.773438 29.136719 C 12.699219 29.257812 12.476562 29.550781 12.277344 29.796875 C 12.082031 30.039062 11.855469 29.992188 11.707031 29.796875 C 11.535156 29.601562 11.535156 29.40625 11.609375 29.285156 C 11.683594 29.160156 11.855469 29.0625 11.980469 29.089844 C 12.105469 29.089844 12.179688 29.039062 12.230469 28.894531 C 12.277344 28.746094 12.203125 28.574219 12.128906 28.453125 C 12.054688 28.332031 12.007812 28.257812 11.90625 28.355469 C 11.832031 28.453125 11.609375 28.378906 11.558594 28.429688 C 11.511719 28.476562 11.410156 28.671875 11.460938 28.796875 C 11.511719 28.917969 11.585938 29.089844 11.511719 29.285156 C 11.4375 29.480469 11.4375 29.625 11.535156 29.773438 C 11.632812 29.917969 11.734375 30.015625 11.734375 30.1875 C 11.734375 30.332031 11.632812 30.480469 11.460938 30.503906 C 11.285156 30.527344 11.164062 30.429688 11.0625 30.285156 C 10.964844 30.113281 10.839844 30.261719 10.839844 30.332031 C 10.839844 30.40625 10.890625 30.503906 10.765625 30.527344 C 10.640625 30.554688 10.566406 30.601562 10.59375 30.773438 C 10.640625 30.945312 10.667969 31.1875 10.59375 31.359375 C 10.519531 31.554688 10.269531 31.675781 10.171875 31.726562 C 10.046875 31.75 9.898438 31.75 9.847656 31.652344 C 9.796875 31.554688 9.824219 31.210938 9.871094 30.871094 C 9.921875 30.527344 10.070312 30.261719 10.121094 30.113281 C 10.171875 29.96875 10.34375 29.675781 10.34375 29.429688 C 10.34375 29.1875 10.269531 29.160156 10.046875 29.429688 C 9.824219 29.699219 9.824219 29.871094 9.796875 30.359375 C 9.773438 30.820312 9.699219 30.820312 9.601562 30.917969 C 9.5 31.015625 9.527344 31.40625 9.527344 31.75 C 9.527344 32.089844 9.351562 32.164062 9.152344 32.335938 C 8.953125 32.507812 8.953125 32.605469 8.878906 32.824219 C 8.804688 33.042969 8.582031 33.289062 8.234375 33.679688 C 7.914062 34.09375 7.566406 34.335938 7.390625 34.484375 C 7.195312 34.65625 6.722656 34.972656 6.625 35.09375 C 6.523438 35.214844 6.671875 35.339844 6.894531 35.386719 C 7.121094 35.4375 7.144531 35.3125 7.144531 35.09375 C 7.144531 34.875 7.144531 34.824219 7.292969 34.753906 C 7.417969 34.679688 7.691406 34.484375 8.039062 34.117188 C 8.382812 33.75 8.457031 33.777344 8.535156 33.824219 C 8.609375 33.875 8.65625 33.921875 8.757812 33.898438 C 8.855469 33.898438 8.855469 33.582031 8.90625 33.410156 C 8.953125 33.214844 9.105469 33.09375 9.300781 32.921875 C 9.476562 32.75 9.476562 32.53125 9.601562 32.359375 C 9.722656 32.1875 9.898438 32.238281 10.046875 32.359375 C 10.21875 32.480469 10.171875 32.726562 10.121094 33.042969 C 10.070312 33.359375 10.023438 33.703125 10.097656 33.921875 C 10.171875 34.140625 10.121094 34.265625 10.023438 34.363281 C 9.921875 34.433594 9.847656 34.558594 9.824219 34.800781 C 9.796875 35.046875 9.824219 35.167969 9.921875 35.242188 C 9.996094 35.3125 10.097656 35.410156 10.097656 35.679688 C 10.097656 35.949219 10.070312 35.996094 10.121094 36.09375 C 10.171875 36.191406 10.292969 36.21875 10.320312 36.386719 C 10.34375 36.558594 10.320312 36.558594 10.566406 36.65625 C 10.789062 36.753906 10.863281 36.851562 10.863281 37.097656 C 10.863281 37.339844 10.667969 37.460938 10.691406 37.585938 C 10.691406 37.683594 10.742188 37.753906 11.039062 37.730469 C 11.335938 37.707031 11.335938 37.363281 11.460938 37.121094 C 11.585938 36.875 11.882812 36.753906 12.128906 36.753906 C 12.378906 36.753906 12.476562 36.875 12.476562 37.121094 L 12.476562 37.707031 C 12.476562 37.828125 12.453125 37.804688 12.378906 37.804688 C 12.328125 37.804688 12.277344 37.804688 12.253906 37.851562 C 12.230469 37.902344 12.304688 37.976562 12.378906 38.023438 C 12.453125 38.074219 12.476562 38.121094 12.476562 38.242188 L 12.476562 39.121094 C 12.476562 39.390625 12.402344 39.4375 12.230469 39.4375 L 4.714844 39.4375 C 4.390625 39.4375 4.367188 39.367188 4.390625 39.097656 C 4.414062 38.828125 4.441406 38.730469 4.515625 38.730469 C 4.613281 38.707031 4.6875 38.660156 4.515625 38.535156 C 4.367188 38.414062 4.191406 38.074219 4.191406 37.828125 C 4.167969 37.585938 4.292969 37.316406 4.539062 37.046875 C 4.789062 36.804688 4.863281 36.730469 4.738281 36.582031 C 4.613281 36.414062 4.5625 36.289062 4.863281 36.046875 C 5.160156 35.777344 5.308594 35.703125 5.308594 35.582031 C 5.308594 35.460938 5.183594 35.289062 5.109375 35.191406 C 5.035156 35.117188 5.011719 34.898438 5.085938 34.703125 C 5.160156 34.53125 5.058594 34.507812 5.058594 34.3125 C 5.058594 34.117188 5.183594 33.898438 5.308594 33.847656 C 5.433594 33.800781 5.582031 33.898438 5.605469 33.726562 C 5.632812 33.554688 5.554688 33.554688 5.359375 33.386719 C 5.160156 33.214844 5.011719 32.945312 5.085938 32.773438 C 5.160156 32.605469 5.332031 32.554688 5.382812 32.554688 C 5.433594 32.554688 5.480469 32.480469 5.457031 32.089844 C 5.433594 31.699219 5.582031 31.433594 5.707031 31.359375 C 5.855469 31.308594 6.078125 31.359375 6.078125 31.1875 C 6.078125 31.015625 5.976562 31.042969 5.804688 30.96875 C 5.632812 30.894531 5.457031 30.675781 5.480469 30.457031 C 5.507812 30.234375 5.65625 30.039062 5.855469 30.039062 C 6.050781 30.039062 6.300781 30.066406 6.25 29.820312 C 6.203125 29.578125 5.953125 29.648438 5.929688 29.308594 C 5.902344 28.964844 5.878906 28.769531 6.078125 28.527344 C 6.277344 28.28125 6.324219 28.160156 6.324219 28.039062 C 6.324219 27.917969 6.375 27.84375 6.398438 27.820312 C 6.425781 27.792969 6.375 27.746094 6.324219 27.625 C 6.277344 27.5 6.277344 27.332031 6.398438 27.234375 C 6.550781 27.109375 6.625 27.0625 6.648438 26.988281 C 6.671875 26.914062 6.699219 26.890625 6.5 26.867188 C 6.300781 26.84375 6.203125 26.816406 6.175781 26.648438 C 6.128906 26.476562 6.277344 26.28125 6.398438 26.28125 C 6.523438 26.28125 6.722656 26.328125 6.722656 26.230469 C 6.722656 26.132812 6.648438 26.0625 6.550781 26.0625 C 6.472656 26.0625 6.398438 26.109375 6.277344 26.183594 C 6.152344 26.257812 6.050781 26.183594 6.003906 26.0625 C 5.953125 25.9375 5.929688 25.769531 6.003906 25.621094 C 6.078125 25.476562 6.050781 25.378906 5.929688 25.351562 C 5.804688 25.328125 5.730469 25.15625 5.730469 24.960938 C 5.730469 24.792969 5.902344 24.570312 6.003906 24.5 C 6.101562 24.425781 6.277344 24.425781 6.398438 24.5 C 6.523438 24.597656 6.648438 24.570312 6.625 24.449219 C 6.597656 24.328125 6.5 24.351562 6.203125 24.179688 C 5.902344 24.011719 5.457031 23.691406 5.308594 23.351562 C 5.160156 23.007812 5.136719 22.203125 5.109375 21.570312 C 5.085938 20.933594 5.058594 19.859375 5.234375 19.324219 C 5.40625 18.785156 5.65625 18.445312 5.902344 18.371094 C 6.152344 18.320312 6.398438 18.347656 6.472656 18.320312 C 6.550781 18.296875 6.945312 18.027344 7.292969 17.832031 C 7.640625 17.636719 7.714844 17.566406 7.714844 17.34375 C 7.691406 17.148438 7.738281 17.050781 7.8125 17.027344 Z M 11.113281 29.015625 C 10.964844 28.992188 10.863281 29.136719 10.890625 29.234375 C 10.914062 29.332031 10.890625 29.480469 11.039062 29.355469 C 11.1875 29.234375 11.261719 29.039062 11.113281 29.015625 Z M 8.78125 34.238281 C 8.730469 34.019531 8.65625 34.140625 8.632812 34.289062 C 8.609375 34.460938 8.382812 34.605469 8.410156 34.921875 C 8.433594 35.242188 8.457031 35.507812 8.433594 35.875 C 8.410156 36.242188 8.308594 36.730469 8.261719 36.851562 C 8.210938 36.972656 8.1875 37.046875 8.484375 37.046875 C 8.78125 37.046875 8.832031 37.023438 8.78125 36.65625 C 8.730469 36.289062 8.632812 35.730469 8.730469 35.460938 C 8.832031 35.214844 9.03125 35.019531 9.03125 34.875 C 9.03125 34.726562 8.980469 34.628906 8.90625 34.507812 C 8.832031 34.386719 8.804688 34.3125 8.78125 34.238281 Z M 6.226562 36.511719 C 6.128906 36.316406 6.050781 36.289062 5.976562 36.414062 C 5.902344 36.535156 5.953125 36.609375 6.050781 36.679688 C 6.152344 36.753906 6.175781 36.828125 6.003906 36.902344 C 5.828125 36.972656 5.679688 37.144531 5.65625 37.265625 C 5.632812 37.390625 5.65625 37.488281 5.855469 37.460938 C 6.050781 37.4375 6.203125 37.292969 6.351562 37.167969 C 6.5 37.046875 6.472656 36.875 6.425781 36.828125 C 6.375 36.777344 6.277344 36.609375 6.226562 36.511719 Z M 7.617188 37.121094 C 7.441406 37.121094 7.21875 37.195312 7.21875 37.316406 C 7.21875 37.4375 7.390625 37.511719 7.464844 37.4375 C 7.542969 37.363281 7.664062 37.316406 7.765625 37.316406 C 7.886719 37.316406 7.988281 37.144531 7.617188 37.121094 Z M 9.328125 36.949219 C 9.152344 36.972656 8.980469 37 8.929688 37.070312 C 8.878906 37.144531 8.832031 37.316406 8.953125 37.390625 C 9.078125 37.460938 9.449219 37.460938 9.648438 37.460938 C 9.847656 37.460938 9.996094 37.460938 9.921875 37.265625 C 9.824219 37.070312 9.601562 36.902344 9.328125 36.949219 Z M 6.722656 33.75 C 6.472656 34.140625 6.351562 34.335938 6.425781 34.386719 C 6.5 34.433594 6.746094 34.265625 7.046875 33.898438 C 7.34375 33.53125 7.714844 33.117188 8.011719 32.605469 C 8.308594 32.089844 8.433594 31.726562 8.558594 31.601562 C 8.683594 31.480469 8.730469 31.382812 8.757812 31.261719 C 8.78125 31.140625 8.929688 31.015625 9.003906 30.917969 C 9.078125 30.820312 9.105469 30.75 9.054688 30.675781 C 9.003906 30.601562 8.855469 30.625 8.855469 30.75 C 8.855469 30.871094 8.78125 30.945312 8.683594 31.089844 C 8.582031 31.238281 8.484375 31.382812 8.335938 31.628906 C 8.1875 31.871094 8.136719 32.117188 7.9375 32.359375 C 7.738281 32.605469 7.046875 33.214844 6.722656 33.75 Z M 7.242188 30.96875 C 7.316406 30.945312 7.316406 30.917969 7.34375 30.820312 C 7.367188 30.722656 7.269531 30.699219 7.21875 30.773438 C 7.144531 30.871094 7.167969 31.015625 7.242188 30.96875 Z M 6.300781 32.800781 C 6.050781 32.96875 5.976562 33.09375 6.128906 33.09375 C 6.277344 33.09375 6.746094 32.847656 6.945312 32.652344 C 7.144531 32.457031 7.292969 32.285156 7.390625 31.992188 C 7.492188 31.699219 7.738281 31.457031 7.886719 31.285156 C 8.039062 31.113281 8.261719 30.847656 8.457031 30.332031 C 8.65625 29.820312 8.878906 29.480469 9.054688 29.257812 C 9.226562 29.039062 9.300781 28.769531 9.402344 28.722656 C 9.5 28.671875 9.601562 28.84375 9.601562 28.941406 C 9.601562 29.0625 9.722656 29.1875 9.796875 28.84375 C 9.898438 28.503906 10.097656 28.550781 10.070312 27.890625 C 10.046875 27.234375 10.097656 26.621094 10.195312 26.378906 C 10.292969 26.109375 10.445312 25.792969 10.640625 25.695312 C 10.839844 25.597656 10.964844 25.425781 11.0625 25.253906 C 11.1875 25.085938 11.386719 25.058594 11.511719 25.183594 C 11.632812 25.28125 11.683594 25.5 11.511719 25.671875 C 11.335938 25.839844 11.113281 26.183594 11.089844 26.425781 C 11.039062 26.671875 11.039062 26.84375 11.285156 26.816406 C 11.535156 26.792969 11.757812 26.792969 11.78125 26.988281 C 11.808594 27.183594 11.78125 27.28125 11.585938 27.429688 C 11.386719 27.574219 11.1875 27.671875 11.3125 27.820312 C 11.4375 27.988281 11.609375 28.183594 11.632812 27.988281 C 11.660156 27.792969 11.808594 27.550781 11.933594 27.527344 C 12.03125 27.5 12.105469 27.527344 12.179688 27.597656 C 12.253906 27.671875 12.378906 27.695312 12.476562 27.527344 C 12.578125 27.355469 12.527344 27.0625 12.503906 26.816406 C 12.476562 26.574219 12.402344 26.453125 12.203125 26.355469 C 12.007812 26.257812 11.78125 26.207031 11.78125 26.0625 C 11.78125 25.914062 11.757812 25.742188 11.980469 25.574219 C 12.203125 25.402344 12.128906 25.378906 12.082031 25.28125 C 12.03125 25.207031 11.980469 25.035156 12.179688 24.914062 C 12.378906 24.792969 12.429688 24.765625 12.453125 24.179688 C 12.453125 23.621094 12.402344 23.277344 12.527344 23.203125 C 12.652344 23.132812 12.699219 23.058594 12.675781 22.863281 C 12.652344 22.667969 12.675781 22.546875 12.625 22.496094 C 12.578125 22.449219 12.476562 22.277344 12.476562 21.960938 C 12.476562 21.640625 12.429688 21.519531 12.304688 21.398438 C 12.179688 21.300781 11.957031 21.324219 12.128906 21.445312 C 12.304688 21.570312 12.253906 21.863281 12.203125 21.960938 C 12.15625 22.058594 12.082031 22.179688 12.203125 22.253906 C 12.328125 22.324219 12.277344 22.644531 12.277344 23.035156 C 12.277344 23.425781 12.179688 23.71875 11.882812 24.058594 C 11.585938 24.402344 11.359375 24.621094 11.210938 24.644531 C 11.0625 24.644531 10.863281 24.597656 10.789062 24.597656 C 10.714844 24.597656 10.566406 24.621094 10.492188 24.792969 C 10.417969 24.960938 10.34375 25.109375 10.492188 25.109375 C 10.640625 25.109375 10.566406 25.351562 10.519531 25.476562 C 10.46875 25.597656 10.246094 25.914062 10.097656 26.28125 C 9.949219 26.648438 9.773438 26.769531 9.601562 26.914062 C 9.425781 27.0625 9.375 26.988281 9.277344 26.84375 C 9.179688 26.695312 9.152344 26.476562 9.105469 26.328125 C 9.054688 26.183594 8.90625 26.183594 8.804688 26.011719 C 8.707031 25.839844 8.730469 25.546875 8.632812 25.449219 C 8.535156 25.351562 8.382812 25.230469 8.382812 25.035156 C 8.410156 24.839844 8.535156 24.570312 8.65625 24.5 C 8.78125 24.425781 9.054688 24.425781 9.226562 24.425781 C 9.402344 24.425781 9.648438 24.351562 9.328125 24.304688 C 9.003906 24.277344 8.855469 24.277344 8.609375 24.132812 C 8.359375 23.984375 8.285156 23.839844 8.382812 23.621094 C 8.484375 23.398438 8.558594 23.425781 8.707031 23.496094 C 8.832031 23.570312 8.980469 23.546875 8.878906 23.375 C 8.78125 23.203125 8.707031 22.9375 8.980469 22.910156 C 9.253906 22.910156 9.5 22.910156 9.625 22.789062 C 9.75 22.667969 9.972656 22.667969 10.195312 22.667969 C 10.417969 22.667969 10.667969 22.59375 10.742188 22.8125 C 10.816406 23.035156 11.015625 23.082031 11.015625 23.398438 C 11.015625 23.71875 11.039062 23.789062 11.238281 23.691406 C 11.4375 23.59375 11.683594 23.449219 11.535156 23.328125 C 11.386719 23.203125 11.210938 23.035156 11.335938 22.8125 C 11.484375 22.59375 11.535156 22.496094 11.535156 22.082031 C 11.535156 21.667969 11.460938 21.398438 11.609375 21.300781 C 11.78125 21.226562 11.90625 21.152344 11.957031 21.007812 C 12.007812 20.859375 12.105469 20.714844 12.15625 20.664062 C 12.203125 20.617188 12.277344 20.226562 12.105469 20.007812 C 11.933594 19.8125 11.78125 19.714844 11.734375 19.347656 C 11.683594 18.980469 11.609375 18.738281 11.484375 18.640625 C 11.359375 18.515625 11.3125 18.417969 11.285156 18.273438 C 11.261719 18.125 11.089844 18.175781 11.039062 18.273438 C 10.988281 18.371094 10.816406 18.515625 10.914062 18.589844 C 11.015625 18.664062 11.039062 18.785156 11.039062 18.933594 C 11.039062 19.078125 10.964844 19.101562 10.839844 19.078125 C 10.714844 19.054688 10.59375 18.980469 10.519531 18.808594 C 10.445312 18.640625 10.394531 18.492188 10.566406 18.417969 C 10.742188 18.347656 10.691406 18.25 10.542969 18.320312 C 10.394531 18.394531 10.367188 18.445312 10.292969 18.394531 C 10.21875 18.347656 10.171875 18.445312 10.121094 18.589844 C 10.070312 18.738281 10.195312 18.761719 10.269531 18.738281 C 10.34375 18.710938 10.367188 18.957031 10.394531 19.296875 C 10.417969 19.640625 10.34375 19.835938 10.144531 20.078125 C 9.921875 20.324219 9.699219 20.324219 9.699219 20.445312 C 9.699219 20.566406 9.921875 20.640625 9.996094 20.542969 C 10.070312 20.445312 10.21875 20.300781 10.246094 20.371094 C 10.269531 20.445312 10.46875 20.542969 10.445312 20.371094 C 10.417969 20.203125 10.691406 19.980469 10.765625 19.910156 C 10.839844 19.835938 11.210938 19.785156 11.285156 19.957031 C 11.359375 20.128906 11.3125 20.273438 11.261719 20.421875 C 11.210938 20.566406 11.238281 20.714844 11.261719 20.933594 C 11.285156 21.152344 11.0625 21.128906 10.941406 20.984375 C 10.816406 20.835938 10.640625 20.714844 10.542969 20.738281 C 10.445312 20.761719 10.394531 20.957031 10.34375 21.054688 C 10.292969 21.152344 10.144531 21.300781 10.023438 21.375 C 9.921875 21.445312 9.648438 21.59375 9.648438 21.375 C 9.625 21.179688 9.425781 20.957031 9.277344 20.835938 C 9.128906 20.714844 8.855469 20.664062 8.855469 20.835938 C 8.855469 21.007812 8.929688 21.105469 9.152344 21.179688 C 9.375 21.25 9.476562 21.25 9.5 21.472656 C 9.527344 21.691406 9.449219 21.789062 9.277344 21.765625 C 9.105469 21.738281 9.03125 21.835938 9.105469 21.910156 C 9.179688 21.984375 9.351562 22.082031 9.351562 22.203125 C 9.351562 22.324219 9.203125 22.398438 9.054688 22.449219 C 8.90625 22.496094 8.632812 22.519531 8.507812 22.59375 C 8.382812 22.667969 8.210938 22.714844 8.210938 22.546875 C 8.1875 22.375 7.886719 22.375 7.960938 22.546875 C 8.039062 22.714844 8.085938 23.058594 8.085938 23.230469 C 8.085938 23.398438 7.863281 23.59375 7.640625 23.59375 C 7.417969 23.59375 7.269531 23.449219 7.195312 23.253906 C 7.121094 23.058594 7.070312 22.863281 7.046875 22.667969 C 7.019531 22.472656 6.921875 22.375 6.796875 22.375 C 6.648438 22.375 6.625 22.617188 6.648438 22.839844 C 6.671875 23.058594 6.796875 23.132812 7.019531 23.425781 C 7.21875 23.71875 7.292969 23.765625 7.464844 23.765625 C 7.640625 23.765625 7.839844 23.765625 8.113281 24.035156 C 8.410156 24.304688 8.484375 24.402344 8.484375 24.5 C 8.484375 24.597656 8.433594 24.695312 8.039062 24.765625 C 7.617188 24.839844 7.34375 24.839844 7.195312 24.792969 C 7.046875 24.742188 6.996094 24.742188 7.046875 24.9375 C 7.09375 25.132812 7.046875 25.328125 7.34375 25.328125 C 7.640625 25.328125 7.914062 25.304688 8.011719 25.378906 C 8.113281 25.449219 8.234375 25.621094 8.507812 25.839844 C 8.78125 26.0625 8.855469 26.183594 8.855469 26.28125 C 8.855469 26.378906 8.78125 26.550781 8.457031 26.71875 C 8.136719 26.890625 7.863281 27.011719 7.886719 27.257812 C 7.914062 27.5 7.886719 27.550781 7.617188 27.867188 C 7.316406 28.183594 7.242188 28.28125 7.242188 28.378906 C 7.242188 28.476562 7.292969 28.503906 7.691406 28.0625 C 8.085938 27.625 8.382812 27.0625 8.535156 26.890625 C 8.683594 26.71875 8.90625 26.671875 9.003906 26.695312 C 9.105469 26.71875 9.203125 26.84375 9.105469 27.085938 C 9.003906 27.332031 8.78125 27.671875 8.359375 28.183594 C 7.960938 28.699219 7.691406 29.089844 7.566406 29.429688 C 7.441406 29.773438 7.464844 29.871094 7.566406 29.84375 C 7.664062 29.820312 7.863281 29.601562 8.160156 29.089844 C 8.457031 28.601562 8.410156 28.355469 8.65625 28.015625 C 8.90625 27.695312 9.128906 27.476562 9.226562 27.476562 C 9.328125 27.476562 9.402344 27.550781 9.351562 27.988281 C 9.300781 28.429688 9.152344 28.894531 8.878906 29.1875 C 8.609375 29.480469 8.308594 29.746094 8.285156 29.992188 C 8.261719 30.234375 8.285156 30.554688 8.210938 30.773438 C 8.136719 30.96875 8.085938 31.089844 7.9375 31.113281 C 7.789062 31.140625 7.765625 31.1875 7.765625 31.335938 C 7.765625 31.457031 7.714844 31.578125 7.515625 31.578125 C 7.34375 31.578125 7.167969 31.628906 7.167969 31.847656 C 7.167969 32.066406 7.121094 32.214844 6.996094 32.261719 C 6.722656 32.359375 6.5 32.675781 6.300781 32.800781 Z M 9.699219 25.351562 C 9.574219 25.28125 9.527344 25.402344 9.625 25.476562 C 9.699219 25.546875 9.824219 25.425781 9.699219 25.351562 Z M 9.105469 25.15625 C 8.953125 25.15625 8.90625 25.304688 8.90625 25.351562 C 8.90625 25.402344 9.054688 25.476562 9.128906 25.402344 C 9.203125 25.328125 9.277344 25.15625 9.105469 25.15625 Z M 9.75 23.472656 C 9.527344 23.375 9.476562 23.449219 9.574219 23.546875 C 9.675781 23.644531 9.796875 23.789062 9.847656 23.742188 C 9.898438 23.691406 9.871094 23.523438 9.75 23.472656 Z M 10.394531 21.398438 C 10.21875 21.375 10.097656 21.421875 9.898438 21.691406 C 9.722656 21.984375 9.601562 22.007812 9.449219 22.058594 C 9.300781 22.105469 9.375 22.253906 9.449219 22.375 C 9.527344 22.496094 9.699219 22.546875 9.847656 22.570312 C 9.996094 22.570312 10.121094 22.449219 10.320312 22.253906 C 10.519531 22.058594 10.519531 21.960938 10.519531 21.738281 C 10.519531 21.519531 10.492188 21.421875 10.394531 21.398438 Z M 8.457031 21.738281 C 8.285156 21.714844 8.1875 21.738281 8.261719 21.863281 C 8.335938 21.984375 8.484375 22.007812 8.558594 21.984375 C 8.632812 21.960938 8.632812 21.765625 8.457031 21.738281 Z M 7.765625 21.496094 C 7.617188 21.421875 7.542969 21.445312 7.617188 21.617188 C 7.691406 21.789062 7.863281 21.835938 7.886719 21.714844 C 7.914062 21.59375 7.886719 21.570312 7.765625 21.496094 Z M 6.152344 22.128906 C 6.050781 22.105469 6.050781 22.203125 6.128906 22.253906 C 6.203125 22.300781 6.351562 22.179688 6.152344 22.128906 Z M 8.929688 18.835938 C 8.78125 18.710938 8.433594 18.6875 8.359375 18.785156 C 8.285156 18.882812 8.308594 19.152344 8.410156 19.25 C 8.507812 19.347656 8.632812 19.394531 8.632812 19.199219 C 8.632812 19.003906 8.730469 19.003906 8.878906 19.175781 C 9.03125 19.347656 9.128906 19.542969 9.203125 19.519531 C 9.277344 19.492188 9.226562 19.078125 8.929688 18.835938 Z M 8.457031 19.738281 C 8.308594 19.714844 8.1875 19.738281 8.261719 19.882812 C 8.335938 20.03125 8.457031 20.054688 8.558594 20.007812 C 8.65625 19.933594 8.609375 19.761719 8.457031 19.738281 Z M 8.039062 20.273438 C 7.914062 20.25 7.839844 20.300781 7.886719 20.371094 C 7.9375 20.445312 8.085938 20.445312 8.160156 20.445312 C 8.234375 20.445312 8.1875 20.300781 8.039062 20.273438 Z M 6.796875 19.152344 C 6.648438 19.054688 6.574219 18.933594 6.472656 19.078125 C 6.375 19.199219 6.425781 19.273438 6.472656 19.347656 C 6.523438 19.421875 6.550781 19.589844 6.449219 19.640625 C 6.351562 19.6875 6.25 19.8125 6.25 20.078125 C 6.277344 20.371094 6.324219 20.59375 6.324219 20.789062 C 6.324219 20.984375 6.324219 21.007812 6.472656 21.007812 C 6.625 21.007812 6.648438 20.984375 6.574219 20.691406 C 6.5 20.398438 6.375 20.175781 6.398438 20.03125 C 6.425781 19.882812 6.472656 19.8125 6.722656 19.785156 C 6.96875 19.761719 7.046875 19.617188 7.046875 19.542969 C 7.046875 19.46875 7.121094 19.394531 6.796875 19.152344 Z M 10.492188 18.003906 C 10.566406 18.003906 10.691406 17.929688 10.566406 17.929688 C 10.417969 17.929688 10.34375 18.003906 10.492188 18.003906 Z M 10.070312 17.980469 C 10.171875 17.859375 10.097656 17.832031 9.996094 17.929688 C 9.898438 18.054688 9.773438 18.125 9.796875 18.222656 C 9.824219 18.320312 9.871094 18.320312 9.949219 18.296875 C 10.023438 18.273438 9.949219 18.152344 10.070312 17.980469 Z M 9.699219 38.683594 C 9.527344 38.660156 9.449219 38.683594 9.527344 38.78125 C 9.601562 38.855469 9.75 38.902344 9.824219 38.855469 C 9.871094 38.828125 9.996094 38.707031 9.699219 38.683594 Z M 8.582031 38.632812 C 8.484375 38.683594 8.382812 38.730469 8.382812 38.804688 C 8.359375 38.855469 8.382812 38.976562 8.507812 38.976562 C 8.632812 38.976562 8.65625 39.023438 8.65625 38.878906 C 8.65625 38.707031 8.632812 38.609375 8.582031 38.632812 Z M 8.535156 16.050781 C 8.410156 16.074219 8.382812 16.171875 8.285156 16.199219 C 8.1875 16.222656 8.160156 16.34375 8.308594 16.34375 C 8.457031 16.34375 8.558594 16.296875 8.582031 16.222656 C 8.609375 16.148438 8.582031 16.027344 8.535156 16.050781 Z M 7.566406 14.464844 C 7.664062 14.34375 7.464844 14.414062 7.367188 14.539062 C 7.292969 14.636719 7.167969 14.78125 7.167969 15.097656 C 7.167969 15.417969 7.21875 15.515625 7.269531 15.417969 C 7.316406 15.320312 7.316406 15.171875 7.316406 15 C 7.316406 14.832031 7.390625 14.707031 7.566406 14.464844 Z M 7.390625 14 C 7.441406 13.902344 7.542969 13.730469 7.367188 13.878906 C 7.195312 14.050781 7.070312 14.246094 6.921875 14.367188 C 6.773438 14.488281 6.671875 14.609375 6.671875 14.707031 C 6.671875 14.804688 6.722656 14.976562 6.796875 15.027344 C 6.871094 15.074219 6.894531 15.074219 6.847656 14.929688 C 6.796875 14.78125 6.773438 14.636719 6.921875 14.5625 C 7.070312 14.488281 7.121094 14.292969 7.21875 14.195312 C 7.316406 14.121094 7.34375 14.097656 7.390625 14 Z M 7.21875 15.976562 C 7.292969 16.074219 7.34375 16.199219 7.417969 16.441406 C 7.492188 16.6875 7.589844 16.589844 7.542969 16.515625 C 7.492188 16.441406 7.441406 16.222656 7.367188 16.003906 C 7.292969 15.78125 7.121094 15.757812 6.996094 15.832031 C 6.996094 15.832031 7.144531 15.878906 7.21875 15.976562 Z M 8.535156 15.125 C 8.410156 15.125 8.359375 15.148438 8.359375 15.246094 C 8.335938 15.34375 8.285156 15.417969 8.410156 15.417969 C 8.535156 15.417969 8.582031 15.367188 8.632812 15.292969 C 8.65625 15.246094 8.683594 15.125 8.535156 15.125 Z M 8.535156 15.125 "/>
</g>
</svg>
