<?xml version="1.0" encoding="UTF-8"?>
<svg xmlns="http://www.w3.org/2000/svg" xmlns:xlink="http://www.w3.org/1999/xlink" width="32px" height="32px" viewBox="0 0 32 11" version="1.1">
<g id="surface1">
<path style=" stroke:none;fill-rule:nonzero;fill:rgb(100%,100%,100%);fill-opacity:1;" d="M 29.8125 3.316406 C 29.8125 3.316406 29.800781 3.269531 29.746094 3.269531 L 16.832031 3.269531 C 16.304688 2.78125 15.714844 2.527344 15.710938 2.527344 C 15.710938 2.527344 15.710938 2.527344 15.765625 2.527344 L 23.8125 2.527344 C 23.8125 2.527344 23.863281 2.527344 23.851562 2.480469 L 23.164062 0.148438 C 23.164062 0.148438 23.148438 0.101562 23.097656 0.101562 L 0.242188 0.101562 C 0.242188 0.101562 0.191406 0.101562 0.207031 0.148438 L 0.890625 2.480469 C 0.890625 2.480469 0.90625 2.527344 0.957031 2.527344 L 2.203125 2.527344 C 2.203125 2.527344 2.253906 2.527344 2.269531 2.574219 L 4.410156 9.84375 C 4.410156 9.84375 4.421875 9.890625 4.476562 9.890625 L 10.125 9.890625 C 10.125 9.890625 10.175781 9.890625 10.199219 9.90625 C 10.214844 9.921875 11.449219 10.914062 13.363281 10.914062 C 15.296875 10.914062 16.480469 9.921875 16.5 9.90625 C 16.5 9.90625 16.519531 9.890625 16.570312 9.890625 L 31.695312 9.890625 C 31.695312 9.890625 31.75 9.890625 31.734375 9.84375 Z M 29.8125 3.316406 "/>
<path style=" stroke:none;fill-rule:nonzero;fill:rgb(99.215686%,86.27451%,0.784314%);fill-opacity:1;" d="M 11.222656 9.710938 C 12.703125 10.523438 14.46875 10.308594 15.550781 9.710938 L 16.15625 9.710938 C 14.460938 10.878906 12.183594 10.746094 10.628906 9.710938 Z M 11.222656 9.710938 "/>
<path style=" stroke:none;fill-rule:nonzero;fill:rgb(99.215686%,86.27451%,0.784314%);fill-opacity:1;" d="M 10.628906 9.710938 C 9.253906 8.792969 8.445312 7.167969 9.101562 5.105469 L 7.832031 5.105469 L 9.097656 9.515625 L 4.78125 9.515625 L 2.597656 2.097656 L 1.253906 2.097656 L 0.773438 0.476562 L 22.890625 0.476562 L 23.363281 2.15625 L 6.984375 2.15625 L 7.394531 3.589844 L 10.160156 3.589844 C 12.390625 1.601562 15.496094 2.371094 16.699219 3.652344 L 29.511719 3.652344 L 31.25 9.492188 L 16.445312 9.492188 C 16.351562 9.570312 16.253906 9.640625 16.15625 9.710938 L 15.550781 9.710938 C 15.699219 9.628906 15.832031 9.539062 15.953125 9.445312 C 15.859375 9.128906 15.769531 8.804688 15.675781 8.480469 C 15.078125 9.003906 13.890625 9.59375 12.210938 8.894531 C 10.738281 8.183594 9.738281 6.105469 11.679688 4.421875 C 12.414062 3.84375 13.472656 3.632812 14.292969 3.867188 C 14.195312 3.511719 14.109375 3.15625 14.011719 2.800781 C 12.070312 2.566406 10.242188 3.425781 9.453125 5.230469 C 8.953125 6.398438 9.144531 8.296875 10.921875 9.527344 C 11.019531 9.59375 11.121094 9.652344 11.222656 9.710938 Z M 12.265625 8.246094 L 12.230469 8.414062 C 12.242188 8.355469 12.253906 8.300781 12.265625 8.246094 M 10.890625 6.308594 C 11.117188 6.664062 11.523438 6.914062 12.148438 7.039062 C 12.171875 6.957031 12.199219 6.878906 12.222656 6.800781 C 11.679688 6.699219 11.304688 6.496094 11.125 6.1875 C 11.046875 6.226562 10.96875 6.269531 10.890625 6.308594 M 14.503906 4.367188 C 14.804688 3.796875 15.238281 3.480469 15.742188 3.289062 C 15.707031 3.210938 15.671875 3.132812 15.632812 3.0625 C 15.070312 3.269531 14.589844 3.632812 14.261719 4.269531 Z M 16.730469 4.039062 C 15.582031 4.523438 14.953125 5.109375 14.613281 6.332031 C 14.699219 6.355469 14.785156 6.378906 14.867188 6.402344 C 14.894531 6.316406 14.925781 6.230469 14.957031 6.144531 C 15.75 6.710938 16.097656 7.511719 16.265625 8.246094 C 16.359375 8.230469 16.433594 8.210938 16.523438 8.203125 C 16.285156 7.152344 15.796875 6.378906 15.035156 5.902344 C 15.207031 5.46875 15.457031 5.140625 15.777344 4.875 C 16.8125 5.617188 17.324219 6.640625 17.386719 7.894531 C 17.476562 7.894531 17.566406 7.898438 17.65625 7.898438 C 17.5625 6.476562 16.976562 5.4375 15.980469 4.714844 C 16.257812 4.523438 16.527344 4.375 16.820312 4.265625 C 16.796875 4.253906 16.777344 4.253906 16.753906 4.246094 C 16.804688 4.175781 16.859375 4.113281 16.90625 4.042969 C 16.878906 4.035156 16.851562 4.027344 16.828125 4.027344 C 16.796875 4.027344 16.765625 4.03125 16.730469 4.039062 M 6.589844 9.191406 L 7.148438 9.191406 C 7.109375 9.070312 7.074219 8.945312 7.039062 8.816406 C 6.875 8.902344 6.707031 8.96875 6.523438 8.984375 Z M 17.003906 3.972656 C 18.3125 5.519531 18.277344 7.722656 16.800781 9.171875 L 30.785156 9.171875 L 29.234375 3.972656 Z M 3.71875 0.796875 L 1.238281 0.796875 L 1.527344 1.773438 L 2.867188 1.773438 L 5.058594 9.191406 L 6.21875 9.191406 C 6.195312 9.117188 6.171875 9.03125 6.148438 8.953125 C 5.320312 8.710938 5.171875 7.863281 5.679688 7.382812 Z M 6.441406 7.410156 C 6.054688 7.410156 5.742188 7.691406 5.742188 8.035156 C 5.742188 8.382812 6.054688 8.667969 6.441406 8.667969 C 6.820312 8.667969 7.136719 8.382812 7.136719 8.035156 C 7.136719 7.691406 6.820312 7.410156 6.441406 7.410156 M 5.019531 0.796875 L 6.929688 7.203125 C 7.449219 7.472656 7.667969 7.988281 7.328125 8.546875 C 7.386719 8.765625 7.453125 8.980469 7.515625 9.191406 L 8.636719 9.191406 L 7.371094 4.78125 L 9.25 4.78125 C 9.421875 4.449219 9.617188 4.160156 9.84375 3.914062 L 7.113281 3.914062 L 6.519531 1.828125 L 22.902344 1.828125 L 22.609375 0.796875 Z M 13.542969 4.894531 C 13.449219 4.890625 13.363281 4.886719 13.292969 4.890625 C 13.21875 4.890625 13.144531 4.890625 13.070312 4.875 C 13.035156 4.859375 13.015625 4.8125 13.015625 4.746094 C 13.015625 4.738281 13 4.722656 12.984375 4.734375 C 12.917969 4.78125 12.917969 4.851562 12.941406 4.890625 C 12.972656 4.933594 13.019531 4.964844 13.078125 4.976562 C 13.09375 4.980469 13.109375 4.984375 13.125 4.984375 C 13.15625 4.984375 13.1875 4.984375 13.246094 4.988281 C 13.300781 4.988281 13.355469 4.988281 13.402344 4.984375 C 13.460938 4.980469 13.515625 4.980469 13.558594 4.980469 L 13.550781 4.925781 C 13.546875 4.914062 13.546875 4.902344 13.542969 4.894531 M 6.511719 7.09375 L 4.652344 0.796875 L 4.085938 0.796875 L 5.988281 7.183594 C 6.140625 7.125 6.308594 7.089844 6.511719 7.09375 "/>
<path style=" stroke:none;fill-rule:nonzero;fill:rgb(12.941176%,11.764706%,11.764706%);fill-opacity:1;" d="M 14.042969 4.5 C 14.078125 4.488281 14.109375 4.472656 14.140625 4.460938 C 14.144531 4.457031 14.167969 4.453125 14.230469 4.453125 L 14.230469 4.433594 C 14.230469 4.414062 14.222656 4.410156 14.210938 4.40625 C 14.199219 4.40625 14.183594 4.40625 14.167969 4.40625 C 14.128906 4.40625 14.097656 4.40625 14.085938 4.421875 C 14.066406 4.445312 14.042969 4.464844 14.027344 4.480469 C 14.03125 4.488281 14.039062 4.496094 14.042969 4.5 M 13.664062 4.621094 C 13.632812 4.570312 13.605469 4.519531 13.570312 4.480469 C 13.550781 4.464844 13.507812 4.464844 13.496094 4.480469 C 13.476562 4.503906 13.46875 4.546875 13.460938 4.589844 C 13.453125 4.597656 13.453125 4.605469 13.460938 4.613281 C 13.46875 4.617188 13.472656 4.625 13.480469 4.628906 C 13.488281 4.636719 13.496094 4.632812 13.503906 4.628906 C 13.519531 4.613281 13.523438 4.589844 13.519531 4.566406 L 13.542969 4.554688 C 13.550781 4.5625 13.554688 4.578125 13.5625 4.597656 L 13.5625 4.617188 C 13.554688 4.628906 13.570312 4.636719 13.585938 4.636719 C 13.609375 4.632812 13.632812 4.625 13.664062 4.621094 M 13.570312 5.050781 L 13.558594 4.980469 C 13.558594 4.960938 13.554688 4.941406 13.550781 4.925781 L 13.542969 4.890625 C 13.527344 4.871094 13.503906 4.855469 13.492188 4.835938 C 13.371094 4.8125 13.261719 4.789062 13.140625 4.761719 C 13.121094 4.757812 13.109375 4.753906 13.097656 4.742188 C 13.046875 4.695312 13.015625 4.648438 12.992188 4.601562 C 12.972656 4.550781 13 4.519531 13.066406 4.511719 C 13.148438 4.5 13.238281 4.488281 13.328125 4.480469 C 13.351562 4.476562 13.371094 4.46875 13.382812 4.460938 C 13.507812 4.347656 13.683594 4.324219 13.867188 4.339844 C 13.921875 4.34375 14.027344 4.363281 14.089844 4.347656 C 14.28125 4.335938 14.332031 4.410156 14.304688 4.53125 C 14.296875 4.558594 14.300781 4.585938 14.304688 4.617188 C 14.363281 4.757812 14.398438 4.902344 14.355469 5.050781 C 14.296875 5.175781 14.238281 5.304688 14.289062 5.386719 C 14.351562 5.515625 14.386719 5.644531 14.34375 5.761719 C 14.304688 5.933594 14.203125 6.132812 14.253906 6.289062 C 14.296875 6.390625 14.378906 6.707031 14.433594 6.859375 C 14.46875 6.964844 14.527344 7.042969 14.59375 7.117188 C 14.648438 7.191406 14.683594 7.261719 14.707031 7.332031 C 14.675781 7.332031 14.648438 7.335938 14.613281 7.335938 C 14.675781 7.660156 14.714844 8.125 14.808594 8.203125 C 14.800781 8.222656 14.796875 8.25 14.789062 8.269531 C 14.789062 8.292969 14.746094 8.304688 14.726562 8.328125 C 14.609375 8.578125 14.4375 8.722656 14.105469 8.804688 L 14.105469 8.792969 C 14.070312 8.707031 14.007812 8.589844 13.953125 8.484375 C 14.066406 8.421875 14.171875 8.351562 14.238281 8.28125 C 13.75 7.878906 13.734375 7.75 13.648438 7.324219 C 13.648438 7.304688 13.640625 7.296875 13.628906 7.296875 C 13.613281 7.296875 13.597656 7.300781 13.582031 7.300781 C 13.621094 7.441406 13.660156 7.578125 13.699219 7.714844 C 13.394531 7.921875 13.214844 8.09375 13.148438 8.546875 C 13.125 8.628906 13.066406 8.648438 12.996094 8.632812 C 12.886719 8.597656 12.785156 8.578125 12.699219 8.582031 C 12.539062 8.5625 12.386719 8.5 12.230469 8.414062 C 12.253906 8.300781 12.277344 8.191406 12.300781 8.078125 C 12.34375 8.09375 12.394531 8.109375 12.425781 8.105469 C 12.472656 8.113281 12.488281 8.121094 12.507812 8.140625 C 12.523438 8.152344 12.535156 8.164062 12.585938 8.160156 C 12.609375 8.160156 12.707031 8.210938 12.738281 8.1875 C 12.648438 7.566406 12.835938 7.332031 13.3125 7.027344 C 13.328125 7.019531 13.335938 7.023438 13.355469 7.035156 C 13.378906 7.054688 13.394531 7.070312 13.414062 7.089844 C 13.453125 7.105469 13.460938 7.078125 13.433594 7.054688 C 13.269531 6.96875 13.199219 6.808594 13.167969 6.621094 C 13.160156 6.613281 13.171875 6.597656 13.132812 6.613281 C 12.429688 6.835938 12.300781 6.75 11.835938 6.382812 L 11.957031 6.203125 C 11.984375 6.15625 12.015625 6.113281 12.046875 6.066406 C 12.203125 6.148438 12.285156 6.238281 12.335938 6.324219 C 12.351562 6.347656 12.363281 6.34375 12.382812 6.332031 C 12.597656 6.214844 12.816406 6.109375 13.035156 6.007812 C 13.03125 5.992188 13.027344 5.976562 13.027344 5.964844 C 12.980469 5.992188 12.929688 6.019531 12.882812 6.039062 C 12.328125 5.738281 12.015625 5.773438 11.835938 5.078125 C 11.839844 5.082031 11.847656 5.082031 11.851562 5.078125 C 11.949219 5.027344 12.039062 4.984375 12.140625 4.9375 L 12.152344 4.929688 C 12.222656 5.011719 12.265625 5.132812 12.300781 5.269531 C 12.292969 5.277344 12.308594 5.296875 12.316406 5.300781 C 12.570312 5.363281 12.816406 5.425781 13.066406 5.480469 C 12.996094 5.585938 12.945312 5.675781 12.925781 5.734375 C 12.910156 5.8125 12.894531 5.878906 12.894531 5.902344 L 12.9375 5.902344 C 13.011719 5.527344 13.109375 5.390625 13.511719 5.222656 C 13.511719 5.199219 13.507812 5.167969 13.507812 5.144531 C 13.449219 5.152344 13.394531 5.152344 13.335938 5.144531 C 13.308594 5.136719 13.28125 5.128906 13.234375 5.128906 C 13.136719 5.097656 13.171875 5.015625 13.21875 5.023438 C 13.300781 5.011719 13.355469 5.023438 13.402344 5.039062 C 13.421875 5.046875 13.488281 5.050781 13.570312 5.050781 "/>
<path style=" stroke:none;fill-rule:nonzero;fill:rgb(12.941176%,11.764706%,11.764706%);fill-opacity:1;" d="M 10.894531 6.308594 C 10.96875 6.269531 11.046875 6.226562 11.125 6.1875 C 11.304688 6.496094 11.683594 6.699219 12.222656 6.800781 C 12.199219 6.878906 12.175781 6.957031 12.148438 7.039062 C 11.523438 6.914062 11.117188 6.664062 10.894531 6.308594 "/>
<path style=" stroke:none;fill-rule:nonzero;fill:rgb(12.941176%,11.764706%,11.764706%);fill-opacity:1;" d="M 14.503906 4.367188 L 14.261719 4.269531 C 14.589844 3.632812 15.070312 3.269531 15.632812 3.0625 C 15.671875 3.132812 15.707031 3.210938 15.742188 3.289062 C 15.238281 3.476562 14.804688 3.796875 14.503906 4.367188 "/>
<path style=" stroke:none;fill-rule:nonzero;fill:rgb(12.941176%,11.764706%,11.764706%);fill-opacity:1;" d="M 16.730469 4.039062 C 16.765625 4.03125 16.796875 4.027344 16.828125 4.027344 C 16.851562 4.027344 16.878906 4.035156 16.90625 4.042969 C 16.859375 4.113281 16.804688 4.175781 16.753906 4.246094 C 16.777344 4.253906 16.796875 4.253906 16.824219 4.265625 C 16.53125 4.375 16.257812 4.523438 15.980469 4.714844 C 16.976562 5.4375 17.5625 6.476562 17.65625 7.898438 C 17.566406 7.898438 17.476562 7.894531 17.386719 7.894531 C 17.324219 6.640625 16.816406 5.617188 15.777344 4.875 C 15.457031 5.140625 15.207031 5.46875 15.039062 5.902344 C 15.796875 6.378906 16.285156 7.152344 16.527344 8.203125 C 16.433594 8.210938 16.359375 8.230469 16.265625 8.246094 C 16.097656 7.511719 15.75 6.710938 14.957031 6.144531 C 14.925781 6.230469 14.894531 6.316406 14.867188 6.402344 C 14.785156 6.378906 14.699219 6.355469 14.613281 6.332031 C 14.953125 5.109375 15.582031 4.523438 16.730469 4.039062 "/>
<path style=" stroke:none;fill-rule:nonzero;fill:rgb(100%,100%,100%);fill-opacity:1;" d="M 17.847656 4.285156 L 18.953125 8.132812 C 19.050781 8.496094 19.242188 8.777344 19.757812 8.773438 L 20.746094 8.773438 C 21.023438 8.773438 21.195312 8.671875 21.085938 8.300781 C 20.703125 6.964844 20.316406 5.625 19.933594 4.285156 L 19.347656 4.285156 L 20.492188 8.203125 C 20.523438 8.292969 20.492188 8.332031 20.417969 8.335938 L 20.097656 8.335938 C 20.03125 8.332031 19.992188 8.304688 19.972656 8.242188 C 19.59375 6.925781 19.207031 5.609375 18.824219 4.285156 Z M 21.296875 4.285156 L 20.304688 4.285156 L 21.613281 8.773438 L 22.210938 8.773438 L 21.445312 6.148438 L 22.925781 8.773438 L 23.90625 8.773438 L 22.605469 4.285156 L 22.0625 4.285156 L 22.785156 6.75 Z M 27.707031 4.285156 L 26.710938 4.285156 L 28.023438 8.773438 L 28.617188 8.773438 L 27.851562 6.148438 L 29.335938 8.773438 L 30.3125 8.773438 L 29.015625 4.285156 L 28.46875 4.285156 L 29.195312 6.75 Z M 22.972656 4.285156 L 24.289062 8.773438 L 25.042969 8.773438 L 23.722656 4.285156 Z M 24.308594 4.78125 C 24.546875 5.894531 24.945312 7.101562 25.300781 8.207031 C 25.4375 8.609375 25.695312 8.792969 25.957031 8.773438 C 25.984375 8.773438 26.019531 8.773438 26.046875 8.777344 C 26.378906 8.777344 26.707031 8.777344 27.03125 8.773438 C 27.328125 8.78125 27.511719 8.667969 27.535156 8.40625 L 27.535156 8.277344 C 27.53125 8.222656 27.519531 8.164062 27.507812 8.101562 L 26.492188 4.625 C 26.425781 4.40625 26.261719 4.320312 26.046875 4.296875 C 25.988281 4.289062 25.929688 4.285156 25.867188 4.285156 C 25.542969 4.285156 25.191406 4.285156 24.800781 4.285156 C 24.488281 4.292969 24.320312 4.425781 24.308594 4.675781 Z M 17.003906 3.972656 L 29.234375 3.972656 L 30.785156 9.171875 L 16.800781 9.171875 C 18.277344 7.722656 18.308594 5.519531 17.003906 3.972656 M 26.046875 5.582031 C 26.300781 6.464844 26.554688 7.335938 26.816406 8.21875 C 26.828125 8.285156 26.792969 8.320312 26.714844 8.324219 L 26.457031 8.324219 C 26.304688 8.320312 26.21875 8.144531 26.160156 7.964844 C 26.125 7.832031 26.085938 7.695312 26.046875 7.566406 C 25.773438 6.640625 25.472656 5.691406 25.277344 4.804688 C 25.269531 4.738281 25.285156 4.703125 25.363281 4.703125 C 25.484375 4.703125 25.609375 4.699219 25.730469 4.699219 C 25.761719 4.699219 25.792969 4.703125 25.796875 4.738281 C 25.882812 5.023438 25.964844 5.300781 26.046875 5.582031 "/>
<path style=" stroke:none;fill-rule:nonzero;fill:rgb(92.156863%,9.803922%,13.72549%);fill-opacity:1;" d="M 3.71875 0.796875 L 5.679688 7.382812 C 5.171875 7.863281 5.320312 8.710938 6.148438 8.953125 C 6.171875 9.03125 6.195312 9.117188 6.21875 9.191406 L 5.058594 9.191406 L 2.867188 1.773438 L 1.527344 1.773438 L 1.238281 0.796875 Z M 3.71875 0.796875 "/>
<path style=" stroke:none;fill-rule:nonzero;fill:rgb(92.156863%,9.803922%,13.72549%);fill-opacity:1;" d="M 6.441406 7.410156 C 6.820312 7.410156 7.136719 7.691406 7.136719 8.035156 C 7.136719 8.382812 6.820312 8.664062 6.441406 8.664062 C 6.054688 8.664062 5.742188 8.382812 5.742188 8.035156 C 5.742188 7.691406 6.054688 7.410156 6.441406 7.410156 "/>
<path style=" stroke:none;fill-rule:nonzero;fill:rgb(92.156863%,9.803922%,13.72549%);fill-opacity:1;" d="M 5.019531 0.796875 L 22.609375 0.796875 L 22.902344 1.828125 L 6.519531 1.828125 L 7.113281 3.914062 L 9.84375 3.914062 C 9.617188 4.160156 9.421875 4.449219 9.25 4.78125 L 7.371094 4.78125 L 8.636719 9.191406 L 7.515625 9.191406 C 7.453125 8.980469 7.386719 8.765625 7.328125 8.546875 C 7.667969 7.988281 7.449219 7.472656 6.929688 7.203125 Z M 5.019531 0.796875 "/>
<path style=" stroke:none;fill-rule:nonzero;fill:rgb(92.156863%,9.803922%,13.72549%);fill-opacity:1;" d="M 14.292969 3.867188 C 13.472656 3.632812 12.414062 3.84375 11.683594 4.421875 C 9.738281 6.105469 10.738281 8.183594 12.210938 8.894531 C 13.890625 9.59375 15.078125 9.003906 15.675781 8.480469 C 15.769531 8.804688 15.859375 9.128906 15.953125 9.445312 C 14.894531 10.28125 12.648438 10.683594 10.921875 9.527344 C 9.144531 8.296875 8.953125 6.398438 9.453125 5.230469 C 10.242188 3.425781 12.070312 2.566406 14.011719 2.800781 C 14.109375 3.15625 14.195312 3.511719 14.292969 3.867188 "/>
<path style=" stroke:none;fill-rule:nonzero;fill:rgb(92.156863%,9.803922%,13.72549%);fill-opacity:1;" d="M 13.5625 4.976562 L 13.550781 4.921875 C 13.554688 4.941406 13.558594 4.960938 13.5625 4.976562 "/>
<path style=" stroke:none;fill-rule:nonzero;fill:rgb(92.156863%,9.803922%,13.72549%);fill-opacity:1;" d="M 13.542969 4.894531 C 13.546875 4.90625 13.546875 4.914062 13.550781 4.925781 L 13.558594 4.980469 C 13.515625 4.980469 13.460938 4.984375 13.402344 4.984375 C 13.355469 4.988281 13.300781 4.988281 13.25 4.988281 C 13.1875 4.984375 13.15625 4.984375 13.125 4.984375 C 13.109375 4.984375 13.09375 4.980469 13.078125 4.980469 C 13.019531 4.964844 12.972656 4.933594 12.941406 4.890625 C 12.917969 4.851562 12.917969 4.78125 12.984375 4.734375 C 13 4.722656 13.015625 4.738281 13.015625 4.75 C 13.015625 4.8125 13.035156 4.859375 13.070312 4.875 C 13.144531 4.890625 13.21875 4.890625 13.292969 4.890625 C 13.363281 4.886719 13.449219 4.890625 13.542969 4.894531 "/>
<path style=" stroke:none;fill-rule:nonzero;fill:rgb(92.156863%,9.803922%,13.72549%);fill-opacity:1;" d="M 11.835938 5.078125 C 11.9375 5.03125 12.039062 4.984375 12.140625 4.9375 C 12.039062 4.984375 11.949219 5.027344 11.851562 5.078125 C 11.847656 5.078125 11.839844 5.082031 11.835938 5.078125 "/>
<path style=" stroke:none;fill-rule:nonzero;fill:rgb(92.156863%,9.803922%,13.72549%);fill-opacity:1;" d="M 12.148438 4.90625 C 12.152344 4.917969 12.152344 4.921875 12.152344 4.929688 C 12.046875 4.980469 11.941406 5.03125 11.835938 5.078125 C 11.800781 5.058594 11.757812 5.035156 11.730469 5.019531 C 11.710938 5 11.730469 4.976562 11.753906 4.988281 C 11.785156 4.996094 11.8125 5.003906 11.84375 5.011719 L 11.859375 5.011719 C 11.839844 4.976562 11.792969 4.941406 11.75 4.910156 L 11.761719 4.886719 C 11.796875 4.902344 11.832031 4.917969 11.871094 4.929688 L 11.808594 4.84375 C 11.8125 4.839844 11.820312 4.835938 11.828125 4.828125 C 11.875 4.871094 11.917969 4.917969 11.964844 4.945312 C 11.953125 4.886719 11.933594 4.832031 11.910156 4.777344 L 11.933594 4.765625 C 11.964844 4.820312 12.003906 4.871094 12.046875 4.917969 C 12.027344 4.878906 12 4.832031 11.960938 4.789062 C 11.945312 4.753906 11.992188 4.75 12.003906 4.757812 C 12.058594 4.796875 12.101562 4.847656 12.148438 4.90625 "/>
<path style=" stroke:none;fill-rule:nonzero;fill:rgb(92.156863%,9.803922%,13.72549%);fill-opacity:1;" d="M 12.042969 6.066406 C 12.015625 6.113281 11.984375 6.15625 11.957031 6.199219 Z M 12.042969 6.066406 "/>
<path style=" stroke:none;fill-rule:nonzero;fill:rgb(92.156863%,9.803922%,13.72549%);fill-opacity:1;" d="M 11.957031 6.199219 C 11.914062 6.261719 11.875 6.320312 11.835938 6.382812 Z M 12.046875 6.066406 C 12.015625 6.113281 11.984375 6.15625 11.957031 6.199219 Z M 12.046875 6.066406 L 11.957031 6.199219 L 11.835938 6.382812 C 11.820312 6.371094 11.808594 6.359375 11.792969 6.351562 C 11.785156 6.34375 11.730469 6.316406 11.703125 6.300781 C 11.695312 6.289062 11.699219 6.277344 11.714844 6.273438 C 11.742188 6.269531 11.769531 6.269531 11.800781 6.265625 C 11.765625 6.25 11.734375 6.234375 11.703125 6.21875 C 11.703125 6.210938 11.703125 6.199219 11.707031 6.191406 C 11.742188 6.191406 11.78125 6.191406 11.816406 6.191406 C 11.789062 6.167969 11.746094 6.148438 11.726562 6.128906 C 11.710938 6.101562 11.738281 6.089844 11.75 6.097656 C 11.792969 6.101562 11.832031 6.109375 11.867188 6.105469 L 11.792969 6.035156 C 11.796875 6.027344 11.804688 6.019531 11.808594 6.015625 C 11.84375 6.027344 11.886719 6.042969 11.921875 6.058594 C 11.90625 6.035156 11.890625 6.011719 11.875 5.988281 C 11.878906 5.980469 11.882812 5.980469 11.890625 5.972656 C 11.96875 6.015625 12.019531 6.042969 12.046875 6.066406 "/>
<path style=" stroke:none;fill-rule:nonzero;fill:rgb(92.156863%,9.803922%,13.72549%);fill-opacity:1;" d="M 14.105469 8.792969 C 14.074219 8.738281 14.042969 8.675781 14.015625 8.617188 L 13.960938 8.507812 C 14.015625 8.601562 14.070312 8.710938 14.105469 8.792969 "/>
<path style=" stroke:none;fill-rule:nonzero;fill:rgb(92.156863%,9.803922%,13.72549%);fill-opacity:1;" d="M 14.015625 8.613281 C 13.992188 8.574219 13.972656 8.53125 13.949219 8.488281 L 13.960938 8.507812 Z M 14.015625 8.613281 "/>
<path style=" stroke:none;fill-rule:nonzero;fill:rgb(92.156863%,9.803922%,13.72549%);fill-opacity:1;" d="M 13.953125 8.484375 C 14.003906 8.59375 14.050781 8.699219 14.105469 8.804688 C 14.066406 8.824219 14.027344 8.839844 13.996094 8.851562 C 14.015625 8.820312 14.035156 8.785156 14.054688 8.753906 C 14.011719 8.78125 13.972656 8.808594 13.929688 8.839844 C 13.960938 8.796875 13.984375 8.757812 14.007812 8.71875 C 13.960938 8.722656 13.90625 8.734375 13.859375 8.746094 C 13.898438 8.710938 13.9375 8.675781 13.980469 8.640625 C 13.933594 8.65625 13.894531 8.671875 13.855469 8.6875 C 13.878906 8.652344 13.90625 8.617188 13.929688 8.585938 C 13.890625 8.585938 13.84375 8.589844 13.808594 8.59375 C 13.855469 8.554688 13.902344 8.519531 13.953125 8.484375 "/>
<path style=" stroke:none;fill-rule:nonzero;fill:rgb(92.156863%,9.803922%,13.72549%);fill-opacity:1;" d="M 12.230469 8.414062 L 12.125 8.421875 L 12.21875 8.351562 L 12.070312 8.316406 L 12.222656 8.261719 L 12.101562 8.195312 L 12.238281 8.175781 L 12.121094 8.085938 L 12.28125 8.09375 L 12.183594 8.046875 L 12.300781 8.078125 Z M 12.230469 8.414062 "/>
<path style=" stroke:none;fill-rule:nonzero;fill:rgb(92.156863%,9.803922%,13.72549%);fill-opacity:1;" d="M 17.847656 4.285156 L 18.824219 4.285156 C 19.207031 5.609375 19.59375 6.925781 19.972656 8.242188 C 19.992188 8.304688 20.03125 8.332031 20.097656 8.335938 L 20.417969 8.335938 C 20.492188 8.332031 20.523438 8.292969 20.492188 8.203125 L 19.347656 4.285156 L 19.933594 4.285156 C 20.316406 5.625 20.703125 6.964844 21.085938 8.300781 C 21.195312 8.671875 21.023438 8.773438 20.746094 8.773438 L 19.757812 8.773438 C 19.242188 8.777344 19.050781 8.496094 18.953125 8.132812 Z M 17.847656 4.285156 "/>
<path style=" stroke:none;fill-rule:nonzero;fill:rgb(92.156863%,9.803922%,13.72549%);fill-opacity:1;" d="M 21.296875 4.285156 L 22.785156 6.75 L 22.0625 4.285156 L 22.605469 4.285156 L 23.90625 8.773438 L 22.925781 8.773438 L 21.445312 6.148438 L 22.210938 8.773438 L 21.613281 8.773438 L 20.304688 4.285156 Z M 21.296875 4.285156 "/>
<path style=" stroke:none;fill-rule:nonzero;fill:rgb(92.156863%,9.803922%,13.72549%);fill-opacity:1;" d="M 27.707031 4.285156 L 29.195312 6.75 L 28.46875 4.285156 L 29.015625 4.285156 L 30.3125 8.773438 L 29.335938 8.773438 L 27.851562 6.148438 L 28.617188 8.773438 L 28.023438 8.773438 L 26.707031 4.285156 Z M 27.707031 4.285156 "/>
<path style=" stroke:none;fill-rule:nonzero;fill:rgb(92.156863%,9.803922%,13.72549%);fill-opacity:1;" d="M 22.972656 4.285156 L 23.722656 4.285156 L 25.042969 8.773438 L 24.289062 8.773438 Z M 22.972656 4.285156 "/>
<path style=" stroke:none;fill-rule:nonzero;fill:rgb(92.156863%,9.803922%,13.72549%);fill-opacity:1;" d="M 26.046875 5.582031 C 25.964844 5.300781 25.882812 5.023438 25.796875 4.738281 C 25.792969 4.703125 25.761719 4.699219 25.730469 4.699219 C 25.609375 4.699219 25.484375 4.703125 25.363281 4.703125 C 25.285156 4.703125 25.269531 4.738281 25.277344 4.800781 C 25.472656 5.691406 25.773438 6.640625 26.046875 7.566406 C 26.085938 7.695312 26.125 7.832031 26.160156 7.964844 C 26.21875 8.144531 26.304688 8.316406 26.457031 8.324219 L 26.714844 8.324219 C 26.792969 8.316406 26.828125 8.285156 26.816406 8.21875 C 26.554688 7.335938 26.300781 6.464844 26.046875 5.582031 M 24.308594 4.78125 L 24.308594 4.675781 C 24.320312 4.425781 24.488281 4.292969 24.800781 4.285156 C 25.191406 4.28125 25.542969 4.28125 25.867188 4.285156 C 25.929688 4.285156 25.988281 4.289062 26.046875 4.296875 C 26.261719 4.320312 26.425781 4.40625 26.492188 4.625 L 27.507812 8.101562 C 27.519531 8.164062 27.53125 8.222656 27.535156 8.277344 L 27.535156 8.40625 C 27.511719 8.667969 27.328125 8.777344 27.03125 8.773438 C 26.707031 8.777344 26.378906 8.777344 26.046875 8.777344 C 26.019531 8.773438 25.984375 8.773438 25.957031 8.773438 C 25.695312 8.792969 25.4375 8.609375 25.300781 8.203125 C 24.945312 7.101562 24.546875 5.894531 24.308594 4.78125 "/>
<path style=" stroke:none;fill-rule:nonzero;fill:rgb(100%,100%,100%);fill-opacity:1;" d="M 14.042969 4.5 C 14.039062 4.496094 14.03125 4.488281 14.027344 4.480469 C 14.042969 4.464844 14.066406 4.445312 14.085938 4.421875 C 14.097656 4.40625 14.128906 4.40625 14.167969 4.40625 C 14.183594 4.40625 14.199219 4.40625 14.210938 4.40625 C 14.222656 4.410156 14.230469 4.414062 14.230469 4.433594 L 14.230469 4.453125 C 14.167969 4.453125 14.144531 4.457031 14.140625 4.460938 C 14.109375 4.472656 14.078125 4.488281 14.042969 4.5 "/>
<path style=" stroke:none;fill-rule:nonzero;fill:rgb(100%,100%,100%);fill-opacity:1;" d="M 13.664062 4.621094 C 13.632812 4.625 13.609375 4.628906 13.585938 4.632812 C 13.570312 4.632812 13.554688 4.628906 13.5625 4.617188 L 13.5625 4.597656 C 13.554688 4.578125 13.550781 4.5625 13.542969 4.554688 L 13.519531 4.566406 C 13.523438 4.589844 13.519531 4.613281 13.503906 4.628906 C 13.496094 4.628906 13.488281 4.632812 13.480469 4.628906 C 13.472656 4.625 13.46875 4.617188 13.457031 4.613281 C 13.453125 4.605469 13.453125 4.597656 13.457031 4.589844 C 13.46875 4.546875 13.476562 4.503906 13.496094 4.480469 C 13.507812 4.460938 13.550781 4.460938 13.570312 4.480469 C 13.605469 4.519531 13.632812 4.570312 13.664062 4.621094 "/>
</g>
</svg>
