<?xml version="1.0" encoding="UTF-8"?>
<svg xmlns="http://www.w3.org/2000/svg" xmlns:xlink="http://www.w3.org/1999/xlink" width="32px" height="32px" viewBox="0 0 32 29" version="1.1">
<g id="surface1">
<path style=" stroke:none;fill-rule:nonzero;fill:rgb(100%,100%,100%);fill-opacity:1;" d="M 7.492188 0.0351562 L 8.128906 0.0351562 C 9.316406 0.078125 10.496094 0.269531 11.664062 0.476562 C 13.003906 0.714844 14.332031 1.007812 15.679688 1.175781 C 16.289062 1.246094 16.90625 1.308594 17.519531 1.234375 C 19.0625 1.070312 20.585938 0.769531 22.136719 0.652344 C 22.847656 0.589844 23.566406 0.640625 24.277344 0.660156 C 25.097656 0.6875 25.921875 0.710938 26.738281 0.78125 C 27.003906 0.808594 27.273438 0.832031 27.527344 0.910156 C 27.878906 1.042969 28.21875 1.222656 28.472656 1.496094 C 28.742188 1.777344 28.898438 2.136719 29.058594 2.488281 C 29.605469 3.726562 29.960938 5.039062 30.242188 6.359375 C 30.367188 6.957031 30.453125 7.566406 30.441406 8.179688 C 30.429688 8.773438 30.371094 9.367188 30.304688 9.960938 C 31.027344 10.675781 31.507812 11.605469 31.746094 12.582031 C 31.863281 13.042969 31.910156 13.523438 31.945312 13.996094 C 31.957031 14.175781 31.949219 14.328125 31.945312 14.484375 C 31.886719 15.457031 31.820312 16.429688 31.691406 17.398438 C 31.570312 18.292969 31.421875 19.1875 31.226562 20.070312 C 31.203125 20.171875 31.175781 20.277344 31.109375 20.359375 C 30.980469 20.523438 30.746094 20.589844 30.546875 20.527344 C 30.386719 20.472656 30.261719 20.34375 30.117188 20.261719 C 28.289062 19.113281 26.082031 18.53125 23.910156 18.683594 C 23.066406 18.730469 22.222656 18.816406 21.402344 19.003906 C 20.847656 19.125 20.308594 19.3125 19.777344 19.507812 C 19.273438 19.691406 18.753906 19.847656 18.214844 19.910156 C 17.40625 20.003906 16.585938 19.957031 15.78125 19.824219 C 15.003906 19.699219 14.238281 19.496094 13.46875 19.324219 C 12.8125 19.179688 12.136719 19.054688 11.457031 19.101562 C 10.78125 19.144531 10.101562 19.207031 9.433594 19.347656 C 8.949219 19.453125 8.46875 19.597656 8.039062 19.839844 C 8.304688 20.863281 8.574219 21.890625 8.84375 22.914062 C 9.558594 23.101562 10.296875 23.242188 10.964844 23.5625 C 11.425781 23.78125 11.835938 24.117188 12.066406 24.5625 C 12.378906 25.144531 12.410156 25.820312 12.371094 26.457031 C 12.339844 26.855469 12.28125 27.261719 12.070312 27.609375 C 11.9375 27.832031 11.695312 28.003906 11.425781 28.007812 C 11.097656 28.03125 10.804688 27.820312 10.644531 27.554688 C 10.347656 27.085938 10.285156 26.515625 10.300781 25.972656 C 10.308594 25.785156 10.292969 25.566406 10.136719 25.433594 C 9.941406 25.273438 9.679688 25.222656 9.4375 25.160156 C 9.628906 25.84375 9.855469 26.515625 10.042969 27.199219 C 10.132812 27.53125 10.222656 27.871094 10.203125 28.214844 C 10.191406 28.46875 10.050781 28.71875 9.816406 28.832031 C 9.660156 28.914062 9.511719 28.929688 9.351562 28.960938 C 9.308594 28.96875 9.179688 28.960938 9.152344 28.953125 C 9.003906 28.917969 8.808594 28.875 8.671875 28.753906 C 8.335938 28.476562 8.191406 28.058594 8.085938 27.65625 C 7.804688 26.65625 7.53125 25.652344 7.253906 24.648438 C 7.253906 24.59375 7.199219 24.578125 7.15625 24.566406 C 6.578125 24.367188 6.007812 24.113281 5.535156 23.722656 C 5.164062 23.414062 4.875 23.011719 4.710938 22.5625 C 4.476562 21.910156 4.457031 21.171875 4.734375 20.527344 C 4.960938 19.976562 5.367188 19.527344 5.726562 19.058594 C 4.292969 13.800781 2.859375 8.546875 1.433594 3.292969 C 1.0625 3.242188 0.675781 3.109375 0.425781 2.820312 C 0.199219 2.570312 0.0703125 2.246094 0.046875 1.914062 C 0.0429688 1.847656 0.0429688 1.78125 0.046875 1.714844 C 0.078125 1.230469 0.378906 0.789062 0.800781 0.539062 C 1.175781 0.3125 1.613281 0.191406 2.050781 0.167969 C 2.464844 0.140625 2.902344 0.28125 3.171875 0.597656 C 4.589844 0.273438 6.035156 0.0703125 7.488281 0.0351562 "/>
<path style=" stroke:none;fill-rule:nonzero;fill:rgb(0%,0%,0%);fill-opacity:1;" d="M 6.351562 21.117188 C 6.222656 21.460938 6.195312 21.855469 6.367188 22.183594 C 6.5625 22.558594 6.941406 22.800781 7.324219 22.96875 C 7.101562 22.148438 6.875 21.332031 6.652344 20.511719 C 6.535156 20.707031 6.425781 20.90625 6.351562 21.117188 Z M 23.171875 10.566406 C 22.238281 10.75 21.308594 10.945312 20.367188 11.097656 C 19.746094 11.199219 19.117188 11.285156 18.488281 11.304688 C 17.628906 11.328125 16.78125 11.179688 15.941406 11.019531 C 15.121094 10.859375 14.300781 10.691406 13.46875 10.59375 C 12.613281 10.492188 11.75 10.46875 10.890625 10.519531 C 9.636719 10.597656 8.394531 10.800781 7.191406 11.152344 C 7.386719 12.152344 7.597656 13.15625 7.734375 14.171875 C 7.800781 14.65625 7.804688 15.148438 7.8125 15.640625 C 7.816406 16.523438 7.792969 17.40625 7.765625 18.289062 C 8.742188 17.941406 9.75 17.652344 10.785156 17.550781 C 11.398438 17.480469 12.011719 17.570312 12.613281 17.683594 C 13.558594 17.859375 14.496094 18.089844 15.445312 18.25 C 16.179688 18.367188 16.929688 18.464844 17.667969 18.367188 C 18.539062 18.246094 19.355469 17.910156 20.191406 17.671875 C 20.988281 17.4375 21.808594 17.277344 22.640625 17.214844 C 24.074219 17.105469 25.519531 17.230469 26.925781 17.5 C 27.941406 17.699219 28.945312 17.96875 29.910156 18.339844 C 30.125 17.074219 30.285156 15.789062 30.242188 14.503906 C 30.195312 13.757812 30.085938 13.007812 29.847656 12.296875 C 29.699219 11.867188 29.5 11.4375 29.167969 11.109375 C 28.917969 10.855469 28.566406 10.726562 28.234375 10.605469 C 27.257812 10.285156 26.210938 10.175781 25.179688 10.242188 C 24.503906 10.296875 23.839844 10.441406 23.175781 10.566406 M 3.363281 4.109375 C 4.472656 8.332031 5.59375 12.546875 6.703125 16.769531 C 6.777344 15.148438 6.601562 13.519531 6.226562 11.941406 C 6.078125 11.304688 5.882812 10.679688 5.691406 10.054688 C 5.4375 9.222656 5.179688 8.390625 4.894531 7.566406 C 4.476562 6.378906 4.039062 5.183594 3.363281 4.109375 M 4.785156 0.792969 C 5.867188 0.621094 6.957031 0.515625 8.050781 0.535156 C 8.773438 0.546875 9.492188 0.636719 10.207031 0.742188 C 11.664062 0.953125 13.097656 1.269531 14.550781 1.511719 C 15.355469 1.644531 16.167969 1.761719 16.984375 1.769531 C 17.792969 1.742188 18.585938 1.605469 19.382812 1.492188 C 20.574219 1.328125 21.773438 1.128906 22.980469 1.121094 C 24.191406 1.15625 25.402344 1.175781 26.609375 1.269531 C 26.917969 1.300781 27.242188 1.304688 27.527344 1.449219 C 27.753906 1.546875 27.96875 1.679688 28.128906 1.867188 C 28.289062 2.046875 28.394531 2.265625 28.5 2.480469 C 29.003906 3.574219 29.351562 4.734375 29.621094 5.902344 C 29.800781 6.660156 29.953125 7.433594 29.933594 8.214844 C 29.914062 8.863281 29.84375 9.511719 29.765625 10.15625 C 30.195312 10.519531 30.527344 10.980469 30.785156 11.46875 C 31.277344 12.410156 31.464844 13.480469 31.421875 14.53125 C 31.347656 16.386719 31.109375 18.238281 30.707031 20.050781 C 29.949219 19.511719 29.097656 19.101562 28.214844 18.785156 C 26.9375 18.332031 25.574219 18.113281 24.214844 18.171875 C 23.273438 18.210938 22.328125 18.292969 21.402344 18.492188 C 20.796875 18.617188 20.210938 18.816406 19.636719 19.027344 C 19.128906 19.214844 18.605469 19.371094 18.0625 19.421875 C 17.140625 19.519531 16.210938 19.414062 15.3125 19.230469 C 14.382812 19.042969 13.472656 18.769531 12.53125 18.644531 C 12.132812 18.59375 11.730469 18.574219 11.332031 18.609375 C 10.539062 18.664062 9.742188 18.746094 8.972656 18.945312 C 8.433594 19.085938 7.902344 19.292969 7.453125 19.621094 C 7.777344 20.855469 8.101562 22.085938 8.425781 23.320312 C 9.09375 23.503906 9.777344 23.632812 10.429688 23.871094 C 10.875 24.03125 11.3125 24.289062 11.5625 24.699219 C 11.78125 25.050781 11.855469 25.46875 11.871094 25.875 C 11.878906 26.289062 11.871094 26.710938 11.746094 27.109375 C 11.6875 27.265625 11.613281 27.453125 11.433594 27.503906 C 11.257812 27.53125 11.132812 27.378906 11.054688 27.246094 C 10.835938 26.847656 10.804688 26.382812 10.816406 25.9375 C 10.824219 25.617188 10.734375 25.265625 10.46875 25.050781 C 10.167969 24.800781 9.765625 24.722656 9.390625 24.636719 C 9.171875 24.585938 8.949219 24.542969 8.730469 24.496094 C 8.96875 25.429688 9.269531 26.347656 9.539062 27.277344 C 9.613281 27.550781 9.695312 27.832031 9.699219 28.121094 C 9.703125 28.226562 9.671875 28.359375 9.554688 28.398438 C 9.445312 28.429688 9.332031 28.449219 9.21875 28.449219 C 9.066406 28.441406 8.941406 28.328125 8.863281 28.210938 C 8.695312 27.96875 8.628906 27.679688 8.550781 27.402344 C 8.253906 26.335938 7.960938 25.273438 7.667969 24.207031 C 7.105469 24.027344 6.542969 23.820312 6.058594 23.480469 C 5.699219 23.230469 5.398438 22.886719 5.234375 22.484375 C 4.996094 21.90625 4.976562 21.230469 5.242188 20.65625 C 5.488281 20.089844 5.957031 19.65625 6.285156 19.140625 C 4.800781 13.703125 3.324219 8.273438 1.847656 2.835938 C 1.527344 2.789062 1.179688 2.78125 0.914062 2.582031 C 0.507812 2.261719 0.445312 1.613281 0.773438 1.21875 C 0.984375 0.953125 1.316406 0.8125 1.640625 0.730469 C 1.929688 0.65625 2.246094 0.617188 2.527344 0.730469 C 2.71875 0.808594 2.867188 0.976562 2.921875 1.171875 C 3.535156 1.015625 4.160156 0.890625 4.785156 0.789062 "/>
<path style=" stroke:none;fill-rule:nonzero;fill:rgb(0%,30.196078%,61.960784%);fill-opacity:1;" d="M 20.351562 12.734375 C 20.53125 12.691406 20.71875 12.703125 20.902344 12.707031 C 21.058594 12.714844 21.226562 12.734375 21.351562 12.828125 C 21.445312 12.902344 21.496094 13.019531 21.511719 13.132812 C 21.582031 13.855469 21.824219 14.550781 22.007812 15.253906 C 22.117188 15.683594 22.242188 16.113281 22.273438 16.554688 C 22.296875 16.671875 22.214844 16.796875 22.105469 16.839844 C 21.96875 16.847656 21.839844 16.78125 21.703125 16.777344 C 21.511719 16.746094 21.335938 16.847656 21.164062 16.90625 C 20.949219 16.96875 20.722656 17.078125 20.496094 17.015625 C 20.253906 16.933594 20.136719 16.6875 20.0625 16.464844 C 19.929688 16.039062 19.855469 15.554688 20.042969 15.132812 C 20.152344 14.855469 20.410156 14.683594 20.605469 14.472656 C 20.722656 14.351562 20.855469 14.230469 20.921875 14.070312 C 20.976562 13.917969 20.847656 13.769531 20.710938 13.714844 C 20.613281 13.675781 20.460938 13.644531 20.398438 13.753906 C 20.316406 13.914062 20.316406 14.101562 20.257812 14.269531 C 20.210938 14.410156 20.039062 14.46875 19.898438 14.464844 C 19.804688 14.441406 19.773438 14.332031 19.757812 14.25 C 19.710938 13.902344 19.730469 13.535156 19.882812 13.214844 C 19.972656 13.011719 20.113281 12.789062 20.351562 12.734375 M 21.085938 15.167969 C 20.96875 15.230469 20.921875 15.367188 20.882812 15.484375 C 20.839844 15.648438 20.78125 15.828125 20.84375 15.996094 C 20.902344 16.117188 21.085938 16.085938 21.152344 15.988281 C 21.292969 15.800781 21.222656 15.5625 21.222656 15.351562 C 21.214844 15.277344 21.1875 15.136719 21.085938 15.167969 Z M 14.585938 12.625 C 14.671875 12.582031 14.78125 12.609375 14.839844 12.683594 C 14.964844 12.828125 14.996094 13.035156 14.953125 13.214844 C 14.910156 13.429688 14.886719 13.664062 14.996094 13.863281 C 15.082031 14.054688 15.253906 14.222656 15.261719 14.441406 C 15.261719 14.574219 15.105469 14.609375 14.996094 14.628906 C 14.917969 14.640625 14.796875 14.691406 14.757812 14.589844 C 14.660156 14.351562 14.730469 14.09375 14.703125 13.847656 C 14.671875 13.664062 14.4375 13.566406 14.28125 13.65625 C 14.175781 13.742188 14.179688 13.890625 14.171875 14.011719 C 14.179688 14.378906 14.230469 14.746094 14.347656 15.09375 C 14.511719 15.554688 14.742188 16 14.835938 16.488281 C 14.859375 16.683594 14.875 16.890625 14.820312 17.085938 C 14.792969 17.203125 14.652344 17.257812 14.546875 17.203125 C 14.277344 17.085938 14.113281 16.820312 14.035156 16.554688 C 13.875 16.003906 13.765625 15.441406 13.664062 14.878906 C 13.582031 14.421875 13.464844 13.972656 13.351562 13.523438 C 13.316406 13.386719 13.261719 13.246094 13.285156 13.097656 C 13.300781 12.921875 13.429688 12.757812 13.605469 12.703125 C 13.710938 12.675781 13.789062 12.765625 13.863281 12.816406 C 13.9375 12.878906 14.039062 12.917969 14.136719 12.894531 C 14.316406 12.859375 14.429688 12.703125 14.585938 12.625 Z M 11.710938 12.277344 C 12.039062 12.1875 12.445312 12.25 12.671875 12.519531 C 12.785156 12.644531 12.828125 12.808594 12.875 12.964844 C 12.953125 13.234375 13.039062 13.503906 13.0625 13.785156 C 13.09375 14.082031 13.050781 14.375 13.027344 14.671875 C 13.019531 14.757812 12.988281 14.851562 12.910156 14.902344 C 12.75 15.007812 12.523438 14.898438 12.375 15.03125 C 12.246094 15.148438 12.257812 15.339844 12.277344 15.496094 C 12.308594 15.664062 12.363281 15.859375 12.539062 15.9375 C 12.636719 15.980469 12.792969 15.996094 12.84375 15.875 C 12.914062 15.675781 12.871094 15.453125 12.96875 15.257812 C 12.988281 15.207031 13.046875 15.167969 13.105469 15.183594 C 13.253906 15.210938 13.378906 15.320312 13.421875 15.460938 C 13.511719 15.75 13.539062 16.070312 13.425781 16.359375 C 13.359375 16.507812 13.34375 16.707031 13.179688 16.792969 C 13 16.878906 12.792969 16.835938 12.601562 16.855469 C 12.445312 16.875 12.277344 16.835938 12.160156 16.726562 C 11.960938 16.542969 11.832031 16.296875 11.753906 16.039062 C 11.554688 15.40625 11.5 14.742188 11.449219 14.082031 C 11.421875 13.691406 11.398438 13.300781 11.394531 12.90625 C 11.398438 12.757812 11.402344 12.597656 11.472656 12.460938 C 11.519531 12.367188 11.617188 12.3125 11.710938 12.277344 M 12.214844 13.378906 C 12.121094 13.410156 12.144531 13.519531 12.144531 13.59375 C 12.148438 13.714844 12.144531 13.855469 12.230469 13.953125 C 12.304688 14.019531 12.40625 13.933594 12.40625 13.855469 C 12.425781 13.710938 12.433594 13.554688 12.382812 13.414062 C 12.359375 13.34375 12.269531 13.335938 12.214844 13.378906 Z M 16.945312 11.855469 C 17.019531 11.640625 17.335938 11.5625 17.515625 11.707031 C 17.640625 11.824219 17.679688 11.996094 17.71875 12.15625 C 17.804688 12.5625 17.875 12.972656 17.945312 13.382812 C 18.183594 13.382812 18.421875 13.363281 18.660156 13.355469 C 18.765625 13.355469 18.882812 13.355469 18.964844 13.425781 C 19.035156 13.496094 19.0625 13.597656 19.09375 13.691406 C 19.277344 14.292969 19.382812 14.914062 19.519531 15.527344 C 19.613281 15.96875 19.722656 16.40625 19.816406 16.847656 C 19.835938 16.964844 19.878906 17.101562 19.804688 17.210938 C 19.722656 17.292969 19.601562 17.324219 19.496094 17.355469 C 19.355469 17.382812 19.234375 17.285156 19.164062 17.175781 C 19.011719 16.9375 18.949219 16.660156 18.878906 16.394531 C 18.773438 15.921875 18.78125 15.4375 18.738281 14.960938 C 18.714844 14.710938 18.683594 14.449219 18.527344 14.242188 C 18.472656 14.164062 18.359375 14.09375 18.269531 14.15625 C 18.167969 14.230469 18.15625 14.363281 18.148438 14.476562 C 18.136719 14.828125 18.308594 15.148438 18.394531 15.480469 C 18.503906 15.886719 18.558594 16.300781 18.613281 16.714844 C 18.636719 16.921875 18.664062 17.140625 18.589844 17.34375 C 18.53125 17.507812 18.367188 17.621094 18.195312 17.660156 C 18.113281 17.679688 18.019531 17.660156 17.964844 17.59375 C 17.859375 17.480469 17.835938 17.320312 17.808594 17.171875 C 17.679688 16.324219 17.550781 15.480469 17.425781 14.632812 C 17.339844 13.980469 17.15625 13.347656 16.988281 12.714844 C 16.925781 12.4375 16.839844 12.136719 16.945312 11.855469 Z M 15.519531 11.539062 C 15.566406 11.480469 15.660156 11.445312 15.726562 11.492188 C 15.796875 11.550781 15.828125 11.636719 15.871094 11.710938 C 15.945312 11.878906 16.035156 12.039062 16.082031 12.21875 C 16.136719 12.429688 16.144531 12.648438 16.203125 12.859375 C 16.230469 12.960938 16.328125 13.023438 16.417969 13.070312 C 16.582031 13.152344 16.769531 13.210938 16.894531 13.355469 C 17.007812 13.480469 17.007812 13.675781 16.921875 13.816406 C 16.808594 14 16.617188 14.121094 16.425781 14.21875 C 16.457031 14.738281 16.523438 15.261719 16.632812 15.769531 C 16.691406 16.042969 16.828125 16.289062 16.921875 16.550781 C 17.054688 16.898438 17.265625 17.214844 17.460938 17.53125 C 17.503906 17.605469 17.578125 17.71875 17.496094 17.796875 C 17.398438 17.871094 17.269531 17.863281 17.152344 17.875 C 16.984375 17.878906 16.796875 17.894531 16.652344 17.789062 C 16.523438 17.695312 16.449219 17.550781 16.367188 17.417969 C 16.238281 17.199219 16.105469 16.972656 16.042969 16.722656 C 15.96875 16.421875 15.945312 16.109375 15.894531 15.800781 C 15.808594 15.238281 15.726562 14.675781 15.652344 14.113281 C 15.472656 14.0625 15.285156 13.976562 15.183594 13.816406 C 15.125 13.714844 15.09375 13.578125 15.164062 13.476562 C 15.265625 13.335938 15.421875 13.25 15.570312 13.164062 C 15.511719 12.785156 15.457031 12.402344 15.40625 12.023438 C 15.382812 11.855469 15.40625 11.671875 15.519531 11.539062 Z M 10.042969 11.136719 C 10.171875 11.128906 10.328125 11.082031 10.4375 11.171875 C 10.511719 11.265625 10.503906 11.394531 10.53125 11.507812 C 10.855469 13.097656 11.121094 14.699219 11.421875 16.292969 C 11.445312 16.421875 11.488281 16.550781 11.484375 16.683594 C 11.484375 16.78125 11.375 16.820312 11.292969 16.839844 C 11.144531 16.875 10.984375 16.933594 10.832031 16.878906 C 10.691406 16.824219 10.644531 16.667969 10.609375 16.539062 C 10.375 15.753906 10.3125 14.9375 10.121094 14.144531 C 10.082031 14.003906 10.027344 13.816406 9.859375 13.78125 C 9.714844 13.761719 9.570312 13.796875 9.433594 13.835938 C 9.300781 13.875 9.234375 14.015625 9.226562 14.140625 C 9.210938 14.421875 9.308594 14.691406 9.367188 14.960938 C 9.484375 15.5 9.566406 16.042969 9.675781 16.585938 C 9.703125 16.734375 9.75 16.894531 9.691406 17.042969 C 9.636719 17.152344 9.496094 17.148438 9.394531 17.171875 C 9.269531 17.199219 9.109375 17.230469 9.023438 17.109375 C 8.875 16.898438 8.808594 16.640625 8.738281 16.394531 C 8.570312 15.738281 8.449219 15.070312 8.300781 14.410156 C 8.121094 13.617188 7.984375 12.808594 7.921875 11.996094 C 7.914062 11.855469 7.898438 11.695312 7.980469 11.570312 C 8.070312 11.457031 8.222656 11.441406 8.351562 11.40625 C 8.472656 11.382812 8.609375 11.335938 8.722656 11.40625 C 8.828125 11.484375 8.839844 11.621094 8.867188 11.738281 C 8.9375 12.09375 8.980469 12.457031 9.0625 12.8125 C 9.085938 12.890625 9.105469 12.972656 9.164062 13.03125 C 9.230469 13.085938 9.316406 13.046875 9.394531 13.042969 C 9.5 13.023438 9.636719 13.054688 9.710938 12.957031 C 9.792969 12.839844 9.765625 12.683594 9.769531 12.550781 C 9.777344 12.230469 9.703125 11.917969 9.632812 11.609375 C 9.609375 11.496094 9.589844 11.355469 9.675781 11.261719 C 9.773438 11.167969 9.914062 11.15625 10.042969 11.136719 Z M 25.410156 11.105469 C 25.65625 11.058594 25.9375 11.039062 26.160156 11.175781 C 26.5 11.375 26.679688 11.777344 26.648438 12.15625 C 26.640625 12.308594 26.644531 12.492188 26.503906 12.59375 C 26.421875 12.640625 26.289062 12.675781 26.210938 12.597656 C 26.15625 12.511719 26.125 12.40625 26.054688 12.324219 C 25.957031 12.207031 25.976562 12.03125 25.859375 11.933594 C 25.707031 11.859375 25.445312 11.929688 25.449219 12.125 C 25.457031 12.402344 25.59375 12.660156 25.738281 12.894531 C 26.101562 13.460938 26.601562 13.929688 27.003906 14.46875 C 27.242188 14.785156 27.429688 15.152344 27.472656 15.550781 C 27.503906 15.859375 27.46875 16.199219 27.253906 16.445312 C 27.054688 16.679688 26.734375 16.769531 26.429688 16.777344 C 26.175781 16.78125 25.894531 16.753906 25.691406 16.585938 C 25.507812 16.429688 25.433594 16.195312 25.375 15.972656 C 25.316406 15.765625 25.28125 15.539062 25.367188 15.332031 C 25.417969 15.203125 25.539062 15.085938 25.691406 15.089844 C 25.832031 15.082031 25.949219 15.183594 26.011719 15.300781 C 26.089844 15.4375 26.097656 15.597656 26.152344 15.746094 C 26.203125 15.875 26.367188 15.90625 26.496094 15.914062 C 26.648438 15.882812 26.664062 15.695312 26.648438 15.574219 C 26.597656 15.238281 26.390625 14.945312 26.183594 14.675781 C 25.808594 14.210938 25.371094 13.792969 25.015625 13.304688 C 24.769531 12.960938 24.695312 12.535156 24.65625 12.125 C 24.632812 11.894531 24.664062 11.648438 24.804688 11.457031 C 24.941406 11.261719 25.175781 11.152344 25.410156 11.105469 Z M 23.113281 11.117188 C 23.367188 11.050781 23.664062 10.980469 23.902344 11.125 C 24.183594 11.300781 24.277344 11.640625 24.3125 11.945312 C 24.351562 12.445312 24.300781 12.953125 24.160156 13.433594 C 24.4375 13.453125 24.6875 13.609375 24.84375 13.824219 C 25.066406 14.125 25.140625 14.5 25.164062 14.863281 C 25.191406 15.273438 25.152344 15.710938 24.921875 16.066406 C 24.75 16.335938 24.464844 16.519531 24.15625 16.601562 C 23.753906 16.710938 23.320312 16.703125 22.914062 16.617188 C 22.800781 15.683594 22.691406 14.753906 22.554688 13.824219 C 22.46875 13.179688 22.300781 12.535156 21.976562 11.960938 C 21.96875 11.753906 21.976562 11.546875 21.972656 11.34375 C 22.359375 11.289062 22.742188 11.226562 23.113281 11.117188 M 23.113281 12.035156 C 23.066406 12.269531 23.039062 12.511719 23.0625 12.75 C 23.085938 12.953125 23.117188 13.183594 23.277344 13.335938 C 23.476562 13.167969 23.496094 12.886719 23.496094 12.648438 C 23.488281 12.464844 23.519531 12.273438 23.472656 12.09375 C 23.40625 11.96875 23.230469 11.988281 23.113281 12.035156 M 23.695312 14.132812 C 23.589844 14.148438 23.519531 14.246094 23.5 14.34375 C 23.449219 14.554688 23.46875 14.777344 23.476562 14.992188 C 23.488281 15.152344 23.496094 15.328125 23.589844 15.46875 C 23.683594 15.597656 23.902344 15.59375 23.996094 15.46875 C 24.140625 15.289062 24.160156 15.050781 24.183594 14.832031 C 24.195312 14.613281 24.191406 14.363281 24.039062 14.183594 C 23.957031 14.082031 23.808594 14.109375 23.695312 14.132812 Z M 28.085938 11.007812 C 28.335938 10.949219 28.605469 11.027344 28.78125 11.203125 C 29.082031 11.488281 29.191406 11.894531 29.277344 12.28125 C 29.308594 12.445312 29.347656 12.648438 29.214844 12.785156 C 29.109375 12.878906 28.90625 12.9375 28.8125 12.800781 C 28.699219 12.625 28.675781 12.40625 28.558594 12.234375 C 28.480469 12.15625 28.328125 12.15625 28.25 12.234375 C 28.164062 12.320312 28.121094 12.433594 28.089844 12.546875 C 28.003906 12.890625 28.015625 13.242188 28.046875 13.589844 C 28.101562 14.21875 28.277344 14.839844 28.609375 15.378906 C 28.683594 15.492188 28.769531 15.621094 28.910156 15.664062 C 29.015625 15.695312 29.101562 15.597656 29.144531 15.515625 C 29.253906 15.332031 29.230469 15.105469 29.332031 14.925781 C 29.402344 14.808594 29.566406 14.847656 29.660156 14.914062 C 29.816406 15.027344 29.855469 15.226562 29.882812 15.402344 C 29.925781 15.800781 29.9375 16.214844 29.78125 16.59375 C 29.6875 16.824219 29.527344 17.054688 29.28125 17.144531 C 29.039062 17.234375 28.757812 17.144531 28.582031 16.96875 C 28.339844 16.734375 28.191406 16.425781 28.035156 16.132812 C 27.859375 15.8125 27.695312 15.488281 27.574219 15.144531 C 27.296875 14.363281 27.203125 13.535156 27.195312 12.710938 C 27.199219 12.304688 27.242188 11.878906 27.4375 11.511719 C 27.566406 11.265625 27.800781 11.058594 28.085938 11.007812 Z M 7.585938 1.65625 C 6.246094 1.75 4.910156 1.925781 3.609375 2.25 C 4.410156 3.132812 5.097656 4.113281 5.609375 5.179688 C 5.804688 5.589844 5.964844 6.011719 6.125 6.433594 C 6.5625 7.621094 6.949219 8.824219 7.296875 10.039062 C 8.339844 9.777344 9.398438 9.582031 10.46875 9.46875 C 11.289062 9.382812 12.125 9.347656 12.945312 9.457031 C 13.773438 9.558594 14.59375 9.726562 15.414062 9.890625 C 16.199219 10.046875 16.988281 10.210938 17.792969 10.246094 C 18.539062 10.285156 19.277344 10.152344 20.007812 10.023438 C 21.398438 9.765625 22.78125 9.449219 24.1875 9.285156 C 25.128906 9.171875 26.085938 9.140625 27.035156 9.199219 C 27.640625 9.25 28.257812 9.320312 28.828125 9.535156 C 28.859375 8.691406 28.828125 7.84375 28.734375 7.003906 C 28.613281 5.855469 28.320312 4.726562 27.847656 3.671875 C 27.640625 3.214844 27.410156 2.765625 27.117188 2.359375 C 26.914062 2.296875 26.699219 2.277344 26.492188 2.242188 C 24.917969 2.015625 23.3125 2.054688 21.738281 2.253906 C 20.882812 2.347656 20.03125 2.472656 19.179688 2.585938 C 18.464844 2.683594 17.742188 2.730469 17.019531 2.75 C 16.097656 2.789062 15.183594 2.640625 14.277344 2.492188 C 12.847656 2.25 11.429688 1.945312 9.988281 1.757812 C 9.191406 1.65625 8.386719 1.589844 7.582031 1.65625 "/>
</g>
</svg>
