<?xml version="1.0" encoding="UTF-8"?>
<svg xmlns="http://www.w3.org/2000/svg" xmlns:xlink="http://www.w3.org/1999/xlink" width="32px" height="32px" viewBox="0 0 32 29" version="1.1">
<g id="surface1">
<path style=" stroke:none;fill-rule:nonzero;fill:rgb(100%,100%,100%);fill-opacity:1;" d="M 16.027344 28.988281 C 24.628906 28.988281 31.601562 22.671875 31.601562 14.878906 C 31.601562 7.089844 24.628906 0.773438 16.027344 0.773438 C 7.421875 0.773438 0.449219 7.089844 0.449219 14.878906 C 0.449219 22.671875 7.421875 28.988281 16.027344 28.988281 Z M 16.027344 28.988281 "/>
<path style=" stroke:none;fill-rule:nonzero;fill:rgb(89.019608%,2.352941%,7.45098%);fill-opacity:1;" d="M 13.445312 14.992188 C 13.140625 11.898438 11.417969 9.507812 9.589844 9.648438 C 7.765625 9.792969 6.527344 12.417969 6.828125 15.507812 C 6.886719 16.117188 7 16.695312 7.160156 17.234375 C 7.808594 19.441406 9.214844 20.964844 10.679688 20.847656 C 12.042969 20.742188 13.074219 19.257812 13.386719 17.234375 C 13.496094 16.539062 13.519531 15.78125 13.445312 14.992188 Z M 10.390625 17.761719 C 10.015625 17.789062 9.648438 17.589844 9.335938 17.234375 C 8.921875 16.753906 8.609375 15.988281 8.523438 15.105469 C 8.371094 13.570312 8.964844 12.269531 9.847656 12.199219 C 10.730469 12.132812 11.566406 13.320312 11.71875 14.855469 C 11.8125 15.828125 11.609375 16.703125 11.222656 17.234375 C 11 17.542969 10.714844 17.734375 10.390625 17.761719 Z M 10.390625 17.761719 "/>
<path style=" stroke:none;fill-rule:nonzero;fill:rgb(89.019608%,2.352941%,7.45098%);fill-opacity:1;" d="M 16.054688 27.378906 L 16 27.378906 C 14.878906 27.375 13.671875 27.210938 12.636719 26.976562 C 14.421875 23.980469 14.710938 21.03125 14.710938 21.03125 L 14.710938 11.335938 L 8.832031 6.308594 C 6.515625 8.128906 5.054688 10.804688 5.054688 13.789062 C 5.054688 17.851562 7.765625 21.351562 11.65625 22.894531 L 10.421875 26.261719 C 5.554688 24.304688 2.160156 19.917969 2.160156 14.820312 C 2.160156 8.785156 6.914062 3.753906 13.238281 2.5625 C 13.296875 2.550781 13.355469 2.546875 13.417969 2.546875 C 13.9375 2.546875 14.359375 2.902344 14.359375 3.34375 C 14.359375 3.679688 14.117188 3.964844 13.769531 4.082031 C 12.632812 4.304688 11.558594 4.679688 10.582031 5.1875 L 16 9.804688 L 21.464844 5.183594 C 20.488281 4.675781 19.417969 4.300781 18.28125 4.082031 C 17.933594 3.964844 17.691406 3.679688 17.691406 3.34375 C 17.691406 2.90625 18.113281 2.546875 18.632812 2.546875 C 18.695312 2.546875 18.753906 2.550781 18.8125 2.5625 C 25.136719 3.753906 29.890625 8.785156 29.890625 14.820312 C 29.890625 19.917969 26.496094 24.304688 21.628906 26.261719 L 20.394531 22.894531 C 24.285156 21.351562 26.996094 17.851562 26.996094 13.789062 C 26.996094 10.804688 25.535156 8.128906 23.21875 6.308594 L 17.34375 11.335938 L 17.34375 21.03125 C 17.34375 21.03125 17.632812 23.980469 19.417969 26.976562 C 18.382812 27.210938 17.175781 27.375 16.054688 27.378906 Z M 16.054688 27.378906 "/>
<path style=" stroke:none;fill-rule:nonzero;fill:rgb(89.019608%,2.352941%,7.45098%);fill-opacity:1;" d="M 24.644531 14.003906 C 25.039062 16.046875 23.652344 18.863281 20.972656 20.765625 C 20.539062 21.074219 20.445312 21.246094 20.132812 21.40625 L 19.515625 19.675781 C 19.886719 19.503906 20.027344 19.425781 20.511719 19.078125 C 21.773438 18.183594 22.453125 16.976562 22.257812 15.964844 C 22.125 15.273438 21.574219 14.589844 20.652344 15.246094 C 19.957031 15.742188 19.539062 16.128906 18.957031 16.746094 L 18.96875 11.78125 L 23.207031 8.25 L 23.167969 10.453125 L 20.921875 12.179688 L 20.941406 13.640625 C 21.109375 13.492188 21.25 13.375 21.566406 13.152344 C 23.039062 12.101562 24.355469 12.492188 24.644531 14.003906 Z M 24.644531 14.003906 "/>
<path style=" stroke:none;fill-rule:nonzero;fill:rgb(89.019608%,2.352941%,7.45098%);fill-opacity:1;" d="M 16.027344 28.273438 C 7.875 28.273438 1.246094 22.265625 1.246094 14.878906 C 1.246094 7.496094 7.875 1.488281 16.027344 1.488281 C 24.175781 1.488281 30.804688 7.496094 30.804688 14.878906 C 30.804688 22.265625 24.175781 28.273438 16.027344 28.273438 Z M 16.027344 1.605469 C 7.941406 1.605469 1.367188 7.5625 1.367188 14.878906 C 1.367188 22.199219 7.941406 28.15625 16.027344 28.15625 C 24.109375 28.15625 30.683594 22.199219 30.683594 14.878906 C 30.683594 7.5625 24.109375 1.605469 16.027344 1.605469 Z M 16.027344 1.605469 "/>
</g>
</svg>
