<?xml version="1.0" encoding="UTF-8"?>
<svg xmlns="http://www.w3.org/2000/svg" xmlns:xlink="http://www.w3.org/1999/xlink" width="32px" height="32px" viewBox="0 0 32 38" version="1.1">
<g id="surface1">
<path style=" stroke:none;fill-rule:nonzero;fill:rgb(100%,100%,100%);fill-opacity:1;" d="M 31.753906 22.933594 L 31.746094 22.878906 L 31.4375 22.550781 C 28.667969 19.5625 27.363281 16.617188 27.5625 13.796875 C 27.8125 10.203125 30.492188 8 30.515625 7.976562 L 30.882812 7.683594 L 28.859375 2.703125 L 28.230469 3.089844 C 28.210938 3.097656 26.398438 4.179688 23.863281 4.179688 C 21.199219 4.179688 18.703125 3.039062 16.449219 0.789062 L 16.007812 0.347656 L 15.5625 0.789062 C 13.308594 3.039062 10.8125 4.179688 8.148438 4.179688 C 5.605469 4.179688 3.800781 3.101562 3.785156 3.089844 L 3.152344 2.699219 L 1.304688 7.253906 L 1.132812 7.683594 L 1.496094 7.976562 C 1.519531 8 4.199219 10.199219 4.453125 13.796875 C 4.652344 16.664062 3.304688 19.65625 0.441406 22.695312 L 0.261719 22.890625 L 0.277344 23.046875 C 0.269531 23.113281 1.246094 30.5 8.003906 32.269531 C 13.855469 33.800781 15.441406 36.488281 15.457031 36.511719 L 16 37.511719 L 16.554688 36.515625 C 16.570312 36.488281 18.160156 33.8125 24.011719 32.269531 C 27.449219 31.363281 29.367188 28.972656 30.371094 27.125 C 31.425781 25.183594 31.789062 23.199219 31.753906 22.933594 "/>
<path style=" stroke:none;fill-rule:nonzero;fill:rgb(9.803922%,38.039216%,70.980392%);fill-opacity:1;" d="M 11.898438 25.8125 L 12.859375 26.613281 L 12.203125 27.382812 L 11.246094 26.585938 L 11.007812 26.867188 L 13.230469 28.714844 L 13.464844 28.433594 L 12.449219 27.589844 L 13.105469 26.816406 L 14.121094 27.660156 L 14.355469 27.382812 L 12.136719 25.53125 Z M 11.898438 25.8125 "/>
<path style=" stroke:none;fill-rule:nonzero;fill:rgb(9.803922%,38.039216%,70.980392%);fill-opacity:1;" d="M 20.277344 16.445312 L 20.511719 16.164062 L 20.242188 15.9375 L 20.003906 16.21875 Z M 20.277344 16.445312 "/>
<path style=" stroke:none;fill-rule:nonzero;fill:rgb(9.803922%,38.039216%,70.980392%);fill-opacity:1;" d="M 16.398438 22.152344 C 16.554688 21.96875 16.714844 21.890625 17.167969 22.265625 L 16.660156 22.867188 C 16.230469 22.507812 16.265625 22.3125 16.398438 22.152344 M 17.796875 22.359375 L 17.566406 22.632812 C 17.714844 22.773438 17.777344 22.976562 17.632812 23.148438 C 17.46875 23.34375 17.285156 23.390625 16.851562 23.027344 L 17.582031 22.160156 L 17.449219 22.050781 C 16.9375 21.621094 16.601562 21.527344 16.230469 21.96875 C 15.777344 22.503906 16.109375 22.867188 16.5625 23.246094 C 17.25 23.820312 17.570312 23.640625 17.84375 23.316406 C 18.117188 22.992188 18.140625 22.648438 17.796875 22.359375 "/>
<path style=" stroke:none;fill-rule:nonzero;fill:rgb(9.803922%,38.039216%,70.980392%);fill-opacity:1;" d="M 17.5625 20.390625 C 17.394531 20.589844 17.351562 20.753906 17.445312 20.996094 L 17.433594 21.007812 L 17.234375 20.84375 L 17.011719 21.109375 C 17.125 21.1875 17.238281 21.273438 17.347656 21.363281 L 18.578125 22.386719 L 18.789062 22.136719 L 17.871094 21.371094 C 17.65625 21.195312 17.445312 20.949219 17.675781 20.671875 C 17.859375 20.460938 18.042969 20.515625 18.207031 20.652344 L 19.285156 21.550781 L 19.496094 21.300781 L 18.417969 20.402344 C 18.113281 20.144531 17.84375 20.0625 17.5625 20.390625 "/>
<path style=" stroke:none;fill-rule:nonzero;fill:rgb(9.803922%,38.039216%,70.980392%);fill-opacity:1;" d="M 20.683594 16.761719 L 22.238281 18.054688 L 22.449219 17.804688 L 20.898438 16.507812 Z M 20.683594 16.761719 "/>
<path style=" stroke:none;fill-rule:nonzero;fill:rgb(9.803922%,38.039216%,70.980392%);fill-opacity:1;" d="M 20.066406 17.816406 C 20.222656 17.632812 20.382812 17.550781 20.835938 17.929688 L 20.328125 18.53125 C 19.898438 18.167969 19.933594 17.972656 20.066406 17.816406 M 21.464844 18.023438 L 21.234375 18.296875 C 21.382812 18.4375 21.445312 18.640625 21.300781 18.8125 C 21.136719 19.007812 20.953125 19.050781 20.515625 18.691406 L 21.25 17.824219 L 21.117188 17.710938 C 20.605469 17.285156 20.269531 17.191406 19.898438 17.632812 C 19.445312 18.167969 19.777344 18.53125 20.230469 18.910156 C 20.917969 19.484375 21.238281 19.304688 21.511719 18.976562 C 21.785156 18.652344 21.808594 18.3125 21.464844 18.023438 "/>
<path style=" stroke:none;fill-rule:nonzero;fill:rgb(9.803922%,38.039216%,70.980392%);fill-opacity:1;" d="M 18.804688 18.921875 C 18.636719 19.125 18.585938 19.28125 18.683594 19.53125 L 18.671875 19.546875 L 17.804688 18.820312 L 17.59375 19.074219 L 19.816406 20.921875 L 20.027344 20.671875 L 19.113281 19.910156 C 18.851562 19.695312 18.703125 19.460938 18.914062 19.210938 C 19.09375 18.996094 19.28125 19.046875 19.472656 19.207031 L 20.527344 20.082031 L 20.738281 19.832031 L 19.636719 18.914062 C 19.285156 18.625 19.027344 18.660156 18.804688 18.921875 "/>
<path style=" stroke:none;fill-rule:nonzero;fill:rgb(9.803922%,38.039216%,70.980392%);fill-opacity:1;" d="M 22.378906 14.695312 C 22.261719 14.835938 22.175781 15.003906 22.269531 15.226562 C 22.082031 15.167969 21.886719 15.28125 21.765625 15.421875 C 21.613281 15.601562 21.5625 15.78125 21.664062 15.992188 L 21.660156 16 L 21.464844 15.839844 L 21.242188 16.105469 C 21.355469 16.183594 21.46875 16.269531 21.578125 16.359375 L 22.808594 17.382812 L 23.019531 17.132812 L 21.972656 16.261719 C 21.914062 16.210938 21.832031 16.125 21.796875 16.011719 C 21.769531 15.929688 21.808594 15.785156 21.875 15.710938 C 22.042969 15.507812 22.226562 15.585938 22.382812 15.714844 L 23.457031 16.613281 L 23.671875 16.363281 L 22.625 15.492188 C 22.566406 15.441406 22.421875 15.300781 22.421875 15.175781 C 22.425781 15.066406 22.445312 15.035156 22.523438 14.941406 C 22.695312 14.738281 22.875 14.816406 23.03125 14.945312 L 24.109375 15.84375 L 24.320312 15.59375 L 23.140625 14.609375 C 22.773438 14.304688 22.515625 14.53125 22.378906 14.695312 "/>
<path style=" stroke:none;fill-rule:nonzero;fill:rgb(9.803922%,38.039216%,70.980392%);fill-opacity:1;" d="M 15.105469 23.746094 L 14.914062 23.585938 L 14.652344 23.898438 L 14.386719 23.679688 C 14.257812 23.574219 14.183594 23.433594 14.425781 23.183594 L 14.246094 23.03125 C 14.207031 23.0625 14.179688 23.089844 14.136719 23.140625 C 13.945312 23.363281 13.824219 23.636719 14.136719 23.898438 L 14.4375 24.148438 L 14.238281 24.386719 L 14.429688 24.546875 L 14.628906 24.308594 L 15.992188 25.445312 L 16.203125 25.191406 L 14.839844 24.058594 Z M 15.105469 23.746094 "/>
<path style=" stroke:none;fill-rule:nonzero;fill:rgb(9.803922%,38.039216%,70.980392%);fill-opacity:1;" d="M 15.824219 22.894531 L 15.632812 22.738281 L 15.367188 23.046875 L 15.101562 22.828125 C 14.976562 22.722656 14.902344 22.582031 15.144531 22.332031 L 14.964844 22.179688 C 14.925781 22.210938 14.898438 22.238281 14.851562 22.292969 C 14.664062 22.515625 14.542969 22.785156 14.855469 23.046875 L 15.15625 23.296875 L 14.953125 23.535156 L 15.144531 23.695312 L 15.347656 23.457031 L 16.710938 24.59375 L 16.921875 24.34375 L 15.558594 23.207031 Z M 15.824219 22.894531 "/>
<path style=" stroke:none;fill-rule:nonzero;fill:rgb(9.803922%,38.039216%,70.980392%);fill-opacity:1;" d="M 14.949219 26.324219 C 14.730469 26.585938 14.492188 26.5 13.988281 26.078125 C 13.5625 25.726562 13.582031 25.515625 13.746094 25.324219 C 13.90625 25.132812 14.113281 25.078125 14.535156 25.429688 C 15.039062 25.851562 15.167969 26.066406 14.949219 26.324219 M 14.867188 25.257812 C 14.410156 24.878906 13.992188 24.617188 13.539062 25.152344 C 13.085938 25.6875 13.417969 26.050781 13.875 26.429688 C 14.558594 27.003906 14.878906 26.824219 15.152344 26.496094 C 15.429688 26.171875 15.550781 25.828125 14.863281 25.257812 "/>
<path style=" stroke:none;fill-rule:nonzero;fill:rgb(9.803922%,38.039216%,70.980392%);fill-opacity:1;" d="M 30.152344 27.007812 C 29.171875 28.8125 27.300781 31.148438 23.945312 32.03125 C 18 33.601562 16.355469 36.367188 16.335938 36.398438 L 16 37 L 15.671875 36.390625 C 15.65625 36.363281 14.011719 33.585938 8.066406 32.03125 C 1.628906 30.347656 0.574219 23.425781 0.527344 23.050781 L 0.519531 22.976562 L 0.621094 22.867188 C 3.53125 19.773438 4.902344 16.71875 4.699219 13.78125 C 4.4375 10.054688 1.675781 7.808594 1.648438 7.785156 L 1.429688 7.609375 L 3.273438 3.066406 L 3.65625 3.300781 C 3.671875 3.3125 5.535156 4.425781 8.148438 4.425781 C 10.882812 4.425781 13.433594 3.261719 15.738281 0.964844 L 16.007812 0.699219 L 16.273438 0.964844 C 18.578125 3.261719 21.128906 4.425781 23.863281 4.425781 C 26.464844 4.425781 28.339844 3.3125 28.359375 3.300781 L 28.738281 3.066406 L 30.582031 7.609375 L 30.359375 7.785156 C 30.332031 7.808594 27.570312 10.09375 27.3125 13.78125 C 27.113281 16.671875 28.4375 19.679688 31.253906 22.722656 L 31.507812 22.988281 C 31.511719 23.332031 31.125 25.222656 30.152344 27.007812 M 32 22.902344 L 31.980469 22.769531 L 31.617188 22.386719 C 28.898438 19.449219 27.617188 16.566406 27.808594 13.816406 C 28.050781 10.351562 30.648438 8.191406 30.671875 8.171875 L 31.179688 7.765625 L 28.980469 2.34375 L 28.101562 2.878906 C 28.082031 2.890625 26.308594 3.933594 23.863281 3.933594 C 21.265625 3.933594 18.832031 2.816406 16.625 0.617188 L 16.007812 0 L 15.386719 0.617188 C 13.179688 2.816406 10.746094 3.933594 8.148438 3.933594 C 5.691406 3.933594 3.929688 2.890625 3.914062 2.878906 L 3.03125 2.339844 L 1.074219 7.164062 L 0.832031 7.761719 L 1.339844 8.167969 C 1.363281 8.191406 3.960938 10.339844 4.203125 13.816406 C 4.398438 16.609375 3.074219 19.542969 0.257812 22.53125 L 0.00390625 22.804688 L 0.03125 23.070312 C 0.0625 23.414062 0.363281 25.1875 1.382812 27.136719 C 2.394531 29.070312 4.355469 31.570312 7.941406 32.507812 C 13.628906 33.996094 15.226562 36.609375 15.238281 36.628906 L 15.996094 38.027344 L 16.769531 36.640625 C 16.785156 36.613281 18.382812 34.007812 24.074219 32.507812 C 27.597656 31.578125 29.5625 29.132812 30.589844 27.242188 C 31.632812 25.320312 32.046875 23.265625 32 22.902344 "/>
<path style=" stroke:none;fill-rule:nonzero;fill:rgb(9.803922%,38.039216%,70.980392%);fill-opacity:1;" d="M 18.988281 11.433594 C 18.804688 11.277344 18.582031 11.261719 18.425781 11.445312 C 18.242188 11.664062 18.347656 11.886719 18.511719 12.023438 C 18.585938 12.085938 18.867188 12.285156 19.09375 12.019531 C 19.285156 11.792969 19.140625 11.558594 18.988281 11.433594 "/>
<path style=" stroke:none;fill-rule:nonzero;fill:rgb(9.803922%,38.039216%,70.980392%);fill-opacity:1;" d="M 16.9375 15.628906 C 16.742188 15.46875 16.503906 15.515625 16.367188 15.675781 C 16.21875 15.855469 16.242188 16.09375 16.425781 16.246094 C 16.644531 16.429688 16.882812 16.351562 17.007812 16.203125 C 17.117188 16.078125 17.175781 15.832031 16.9375 15.628906 "/>
<path style=" stroke:none;fill-rule:nonzero;fill:rgb(9.803922%,38.039216%,70.980392%);fill-opacity:1;" d="M 17.503906 13.191406 C 17.316406 13.035156 17.09375 13.019531 16.9375 13.203125 C 16.753906 13.421875 16.863281 13.648438 17.023438 13.78125 C 17.097656 13.84375 17.382812 14.042969 17.605469 13.777344 C 17.796875 13.550781 17.652344 13.316406 17.503906 13.191406 "/>
<path style=" stroke:none;fill-rule:nonzero;fill:rgb(9.803922%,38.039216%,70.980392%);fill-opacity:1;" d="M 15.457031 14.910156 C 15.328125 15.0625 15.328125 15.273438 15.492188 15.410156 C 15.640625 15.535156 15.859375 15.535156 16 15.367188 C 16.132812 15.210938 16.136719 14.992188 15.964844 14.847656 C 15.792969 14.703125 15.578125 14.765625 15.457031 14.910156 "/>
<path style=" stroke:none;fill-rule:nonzero;fill:rgb(9.803922%,38.039216%,70.980392%);fill-opacity:1;" d="M 20.234375 13.0625 C 20.132812 13.183594 19.675781 13.722656 19.113281 13.253906 L 19.503906 12.792969 C 19.644531 12.886719 19.792969 12.871094 19.902344 12.742188 C 20.171875 12.425781 19.859375 12.125 19.554688 11.886719 C 19.566406 12.15625 19.457031 12.300781 19.378906 12.394531 C 18.9375 12.917969 18.402344 12.703125 18.148438 12.492188 C 17.75 12.160156 17.683594 11.621094 18.082031 11.148438 C 18.703125 10.417969 19.417969 10.984375 19.761719 11.269531 C 20.671875 12.027344 20.671875 12.546875 20.234375 13.0625 M 18.746094 14.824219 C 18.648438 14.941406 18.191406 15.480469 17.625 15.011719 L 18.015625 14.550781 C 18.15625 14.648438 18.304688 14.632812 18.414062 14.503906 C 18.683594 14.183594 18.371094 13.882812 18.066406 13.648438 C 18.078125 13.914062 17.96875 14.0625 17.890625 14.15625 C 17.449219 14.679688 16.917969 14.464844 16.660156 14.25 C 16.261719 13.917969 16.195312 13.378906 16.59375 12.910156 C 17.214844 12.175781 17.929688 12.742188 18.277344 13.03125 C 19.183594 13.785156 19.183594 14.304688 18.746094 14.824219 M 17.308594 16.507812 C 16.945312 16.941406 16.410156 17.011719 16.066406 16.722656 C 15.898438 16.582031 15.832031 16.421875 15.824219 16.253906 C 15.808594 16.066406 15.859375 15.941406 15.898438 15.839844 C 15.777344 15.917969 15.433594 16.136719 15.101562 15.859375 C 14.839844 15.644531 14.683594 15.144531 15.121094 14.625 C 15.484375 14.195312 15.980469 14.105469 16.316406 14.386719 C 16.574219 14.601562 16.582031 14.949219 16.433594 15.195312 C 16.53125 15.132812 16.6875 15.019531 16.945312 15.039062 C 17.113281 15.050781 17.242188 15.121094 17.347656 15.207031 C 17.742188 15.535156 17.664062 16.089844 17.3125 16.507812 M 16.011719 17.976562 L 14.34375 16.582031 C 14.335938 16.730469 14.296875 17 14.195312 17.308594 L 13.769531 16.953125 C 13.847656 16.683594 13.902344 16.402344 13.921875 16.121094 L 14.253906 15.726562 L 16.402344 17.515625 Z M 13.808594 20.683594 C 13.382812 21.1875 13.039062 21.34375 12.71875 21.375 C 12.265625 21.421875 11.875 21.171875 11.640625 20.976562 C 10.851562 20.320312 10.84375 19.480469 11.410156 18.8125 C 11.648438 18.527344 11.976562 18.300781 12.324219 18.292969 C 12.621094 18.289062 12.800781 18.425781 12.925781 18.519531 L 12.507812 19.011719 C 12.449219 18.96875 12.367188 18.90625 12.234375 18.886719 C 12.007812 18.855469 11.835938 19.007812 11.746094 19.113281 C 11.292969 19.652344 11.707031 20.179688 12.050781 20.460938 C 12.199219 20.589844 12.488281 20.792969 12.800781 20.777344 C 13.015625 20.769531 13.210938 20.679688 13.429688 20.417969 C 13.625 20.1875 13.664062 20.085938 13.691406 20.019531 L 13.226562 19.628906 L 12.863281 20.058594 L 12.492188 19.75 L 13.257812 18.847656 L 14.367188 19.773438 C 14.296875 19.949219 14.183594 20.242188 13.808594 20.683594 M 11.761719 23.109375 C 11.046875 23.953125 10.496094 23.503906 10.277344 23.328125 L 10.683594 22.847656 C 10.789062 22.933594 11.101562 23.203125 11.445312 22.796875 C 11.664062 22.539062 11.675781 22.277344 11.488281 22.121094 C 11.292969 21.953125 11.140625 22.0625 10.835938 22.289062 C 10.257812 22.703125 9.859375 22.859375 9.476562 22.539062 C 9.109375 22.234375 9.003906 21.707031 9.523438 21.09375 C 9.71875 20.863281 10 20.636719 10.347656 20.644531 C 10.613281 20.652344 10.792969 20.800781 10.867188 20.863281 L 10.480469 21.316406 C 10.398438 21.257812 10.117188 21.066406 9.839844 21.394531 C 9.65625 21.613281 9.652344 21.855469 9.835938 22.007812 C 10.042969 22.179688 10.214844 22.046875 10.5625 21.796875 C 10.980469 21.492188 11.402344 21.203125 11.835938 21.566406 C 12.234375 21.898438 12.28125 22.496094 11.761719 23.109375 M 9.910156 25.195312 L 8.054688 23.648438 L 7.5 24.304688 L 7.132812 23.996094 L 8.644531 22.207031 L 9.011719 22.515625 L 8.457031 23.171875 L 10.3125 24.71875 Z M 28.523438 3.734375 L 28.292969 3.847656 C 27.679688 4.15625 26.011719 4.875 23.863281 4.875 C 21.09375 4.875 18.503906 3.738281 16.167969 1.496094 L 16.007812 1.339844 L 15.84375 1.496094 C 13.507812 3.738281 10.921875 4.875 8.148438 4.875 C 5.996094 4.875 4.332031 4.15625 3.71875 3.847656 L 3.492188 3.734375 L 1.976562 7.464844 L 2.097656 7.574219 C 2.753906 8.175781 4.917969 10.394531 5.152344 13.746094 C 5.363281 16.773438 3.992188 19.902344 1.074219 23.042969 L 0.996094 23.128906 L 1.019531 23.242188 C 1.199219 24.238281 2.226562 28.765625 6.277344 30.867188 L 28.808594 4.4375 Z M 28.523438 3.734375 "/>
</g>
</svg>
