<?xml version="1.0" encoding="UTF-8"?>
<svg xmlns="http://www.w3.org/2000/svg" xmlns:xlink="http://www.w3.org/1999/xlink" width="32px" height="32px" viewBox="0 0 32 34" version="1.1">
<defs>
<clipPath id="clip1">
  <path d="M 0.746094 0.621094 L 31.167969 0.621094 L 31.167969 33.71875 L 0.746094 33.71875 Z M 0.746094 0.621094 "/>
</clipPath>
</defs>
<g id="surface1">
<g clip-path="url(#clip1)" clip-rule="nonzero">
<path style=" stroke:none;fill-rule:nonzero;fill:rgb(100%,100%,100%);fill-opacity:1;" d="M 0.753906 0.621094 L 0.753906 1.210938 C 0.753906 1.535156 0.75 1.871094 0.75 2.210938 C 0.742188 3.511719 0.734375 4.980469 0.773438 6.535156 C 0.839844 9.195312 1.015625 12.28125 1.785156 14.984375 C 2.738281 18.34375 4.144531 21.304688 6.082031 24.039062 C 8.410156 27.328125 11.609375 30.492188 15.589844 33.445312 L 15.957031 33.71875 L 16.324219 33.445312 C 20.304688 30.492188 23.503906 27.328125 25.832031 24.039062 C 27.769531 21.304688 29.175781 18.34375 30.128906 14.984375 C 30.941406 12.132812 31.09375 8.96875 31.136719 6.53125 C 31.15625 5.480469 31.152344 4.492188 31.152344 3.53125 C 31.148438 2.71875 31.144531 1.949219 31.15625 1.222656 L 31.167969 0.621094 Z M 0.753906 0.621094 "/>
</g>
<path style=" stroke:none;fill-rule:nonzero;fill:rgb(83.137255%,2.745098%,13.72549%);fill-opacity:1;" d="M 15.953125 32.976562 C 11.734375 29.84375 8.722656 26.730469 6.578125 23.703125 C 4.410156 20.640625 3.171875 17.648438 2.367188 14.828125 C 1.628906 12.226562 1.449219 9.28125 1.382812 6.519531 C 1.332031 4.570312 1.355469 2.785156 1.359375 1.214844 L 30.546875 1.214844 C 30.519531 2.789062 30.5625 4.570312 30.527344 6.519531 C 30.476562 9.28125 30.28125 12.226562 29.539062 14.828125 C 28.738281 17.648438 27.5 20.640625 25.328125 23.703125 C 23.183594 26.730469 20.175781 29.84375 15.953125 32.976562 "/>
<path style=" stroke:none;fill-rule:nonzero;fill:rgb(100%,100%,100%);fill-opacity:1;" d="M 1.964844 1.808594 C 2.089844 9.347656 0.316406 20.65625 15.953125 32.257812 C 31.59375 20.660156 29.820312 9.351562 29.945312 1.808594 Z M 1.964844 1.808594 "/>
<path style=" stroke:none;fill-rule:nonzero;fill:rgb(83.137255%,2.745098%,13.72549%);fill-opacity:1;" d="M 21.875 17.195312 L 22.277344 17.144531 C 22.289062 17.246094 22.324219 17.324219 22.378906 17.375 C 22.433594 17.429688 22.503906 17.453125 22.582031 17.453125 C 22.667969 17.453125 22.742188 17.421875 22.796875 17.359375 C 22.855469 17.296875 22.886719 17.210938 22.886719 17.101562 C 22.886719 17.003906 22.859375 16.921875 22.800781 16.863281 C 22.746094 16.804688 22.675781 16.773438 22.597656 16.773438 C 22.542969 16.773438 22.480469 16.78125 22.40625 16.804688 L 22.453125 16.476562 C 22.566406 16.476562 22.648438 16.453125 22.710938 16.402344 C 22.769531 16.351562 22.796875 16.285156 22.796875 16.203125 C 22.796875 16.132812 22.777344 16.074219 22.734375 16.03125 C 22.691406 15.992188 22.632812 15.96875 22.558594 15.96875 C 22.488281 15.96875 22.429688 15.992188 22.378906 16.042969 C 22.332031 16.089844 22.296875 16.160156 22.289062 16.253906 L 21.90625 16.1875 C 21.933594 16.058594 21.972656 15.960938 22.027344 15.882812 C 22.082031 15.808594 22.15625 15.746094 22.25 15.703125 C 22.347656 15.660156 22.453125 15.636719 22.570312 15.636719 C 22.777344 15.636719 22.9375 15.699219 23.058594 15.828125 C 23.160156 15.933594 23.210938 16.046875 23.210938 16.179688 C 23.210938 16.363281 23.109375 16.511719 22.902344 16.621094 C 23.023438 16.644531 23.125 16.703125 23.199219 16.796875 C 23.273438 16.882812 23.308594 16.992188 23.308594 17.121094 C 23.308594 17.304688 23.242188 17.464844 23.101562 17.59375 C 22.964844 17.722656 22.792969 17.789062 22.585938 17.789062 C 22.390625 17.789062 22.226562 17.734375 22.101562 17.625 C 21.96875 17.515625 21.898438 17.371094 21.875 17.195312 M 21.160156 16.382812 C 21.160156 16.253906 21.128906 16.152344 21.070312 16.082031 C 21.007812 16.007812 20.9375 15.972656 20.855469 15.972656 C 20.78125 15.972656 20.714844 16.003906 20.664062 16.058594 C 20.613281 16.121094 20.589844 16.214844 20.589844 16.351562 C 20.589844 16.488281 20.617188 16.585938 20.671875 16.648438 C 20.726562 16.714844 20.796875 16.746094 20.878906 16.746094 C 20.957031 16.746094 21.023438 16.714844 21.078125 16.65625 C 21.132812 16.59375 21.160156 16.503906 21.160156 16.382812 M 20.222656 17.265625 L 20.625 17.222656 C 20.632812 17.300781 20.660156 17.363281 20.699219 17.398438 C 20.742188 17.4375 20.796875 17.457031 20.863281 17.457031 C 20.949219 17.457031 21.023438 17.417969 21.082031 17.339844 C 21.144531 17.265625 21.179688 17.105469 21.195312 16.867188 C 21.09375 16.980469 20.960938 17.042969 20.808594 17.042969 C 20.636719 17.042969 20.492188 16.976562 20.367188 16.851562 C 20.246094 16.722656 20.183594 16.554688 20.183594 16.351562 C 20.183594 16.136719 20.25 15.964844 20.378906 15.835938 C 20.507812 15.703125 20.675781 15.636719 20.875 15.636719 C 21.09375 15.636719 21.273438 15.722656 21.414062 15.886719 C 21.554688 16.050781 21.625 16.324219 21.625 16.699219 C 21.625 17.085938 21.550781 17.363281 21.402344 17.535156 C 21.257812 17.703125 21.070312 17.789062 20.832031 17.789062 C 20.664062 17.789062 20.527344 17.746094 20.425781 17.660156 C 20.320312 17.570312 20.253906 17.441406 20.222656 17.265625 M 10.566406 17.113281 C 10.566406 17.222656 10.597656 17.3125 10.65625 17.371094 C 10.714844 17.433594 10.785156 17.464844 10.875 17.464844 C 10.960938 17.464844 11.027344 17.4375 11.085938 17.375 C 11.140625 17.316406 11.167969 17.230469 11.167969 17.117188 C 11.167969 17.019531 11.140625 16.9375 11.082031 16.878906 C 11.027344 16.820312 10.957031 16.789062 10.867188 16.789062 C 10.765625 16.789062 10.691406 16.824219 10.640625 16.890625 C 10.59375 16.960938 10.566406 17.03125 10.566406 17.113281 M 10.605469 16.210938 C 10.605469 16.289062 10.628906 16.351562 10.675781 16.398438 C 10.722656 16.441406 10.785156 16.464844 10.863281 16.464844 C 10.941406 16.464844 11.003906 16.441406 11.050781 16.398438 C 11.097656 16.351562 11.121094 16.289062 11.121094 16.210938 C 11.121094 16.132812 11.097656 16.070312 11.050781 16.027344 C 11.003906 15.980469 10.941406 15.957031 10.867188 15.957031 C 10.789062 15.957031 10.722656 15.980469 10.675781 16.027344 C 10.628906 16.074219 10.605469 16.132812 10.605469 16.210938 M 10.519531 16.617188 C 10.414062 16.574219 10.335938 16.511719 10.289062 16.433594 C 10.238281 16.355469 10.214844 16.273438 10.214844 16.183594 C 10.214844 16.023438 10.269531 15.894531 10.382812 15.792969 C 10.496094 15.6875 10.652344 15.636719 10.863281 15.636719 C 11.066406 15.636719 11.226562 15.6875 11.339844 15.792969 C 11.453125 15.894531 11.507812 16.023438 11.507812 16.183594 C 11.507812 16.277344 11.484375 16.367188 11.429688 16.441406 C 11.378906 16.519531 11.304688 16.574219 11.210938 16.617188 C 11.332031 16.664062 11.421875 16.730469 11.484375 16.824219 C 11.546875 16.910156 11.578125 17.015625 11.578125 17.132812 C 11.578125 17.328125 11.515625 17.488281 11.386719 17.609375 C 11.261719 17.726562 11.09375 17.789062 10.878906 17.789062 C 10.683594 17.789062 10.523438 17.742188 10.390625 17.640625 C 10.238281 17.519531 10.160156 17.359375 10.160156 17.152344 C 10.160156 17.035156 10.1875 16.933594 10.246094 16.835938 C 10.304688 16.742188 10.394531 16.667969 10.519531 16.617188 M 9.546875 17.753906 L 9.136719 17.753906 L 9.136719 16.230469 C 8.984375 16.367188 8.804688 16.472656 8.601562 16.539062 L 8.601562 16.171875 C 8.707031 16.136719 8.824219 16.070312 8.953125 15.972656 C 9.078125 15.878906 9.164062 15.765625 9.210938 15.636719 L 9.546875 15.636719 Z M 9.546875 17.753906 "/>
<path style=" stroke:none;fill-rule:nonzero;fill:rgb(83.137255%,2.745098%,13.72549%);fill-opacity:1;" d="M 23.570312 3.058594 C 22.433594 2.597656 21.234375 2.621094 20.359375 3.113281 C 19.585938 3.550781 19.0625 4.351562 19.054688 5.507812 C 19.042969 5.742188 18.984375 5.984375 18.878906 6.21875 L 18.875 6.210938 C 18.492188 6.828125 17.851562 7.445312 17.136719 7.394531 C 17.007812 6.773438 16.585938 5.921875 16.179688 5.378906 C 16.617188 5.402344 17.332031 5.847656 17.488281 6.171875 C 17.84375 5.792969 18.355469 4.847656 18.238281 4.085938 C 17.527344 4.085938 16.832031 3.921875 16.121094 3.625 C 16.121094 4.09375 15.289062 5.21875 14.710938 5.476562 C 15 5.894531 15.242188 6.804688 15.230469 7.621094 C 14.800781 7.964844 14.238281 8.027344 13.78125 8.019531 C 13.433594 7.488281 12.960938 7.097656 12.957031 6.433594 C 12.949219 5.746094 13.648438 4.753906 14.398438 4.113281 L 14.023438 3.65625 C 13.554688 3.816406 13.152344 4.078125 12.800781 4.425781 L 12.78125 4.398438 C 12.351562 3.792969 11.617188 2.707031 10.550781 2.457031 C 10.242188 2.5625 9.824219 3.1875 9.511719 3.828125 C 8.363281 4.058594 7.449219 4.871094 7.070312 5.558594 C 6.675781 5.234375 6.390625 4.898438 6.367188 4.46875 C 6.3125 3.304688 7.867188 3.496094 8.632812 3.828125 L 8.640625 2.984375 C 7.503906 2.519531 6.304688 2.546875 5.429688 3.042969 C 4.65625 3.476562 4.132812 4.277344 4.125 5.429688 C 4.125 6.214844 3.628906 6.851562 2.585938 7.183594 C 3.039062 7.375 3.664062 7.230469 4.496094 6.984375 C 4.089844 7.542969 3.601562 7.828125 2.582031 8.046875 C 3.21875 8.261719 4.207031 8.175781 5.101562 7.890625 C 4.871094 8.382812 4.101562 8.804688 2.664062 8.96875 C 3.921875 9.378906 4.527344 9.246094 5.820312 8.871094 C 7.632812 8.34375 8.808594 9.785156 6.695312 10.285156 C 6.183594 10.40625 5.554688 10.183594 4.921875 9.921875 L 4.324219 10.640625 C 5.148438 11.058594 6.566406 11.386719 7.242188 11.375 C 9.3125 11.335938 10.164062 9.738281 9.648438 8.132812 C 9.320312 7.105469 8.390625 6.507812 7.609375 5.957031 C 8.296875 5.035156 10.785156 3.976562 11.667969 6.121094 C 11.273438 7.035156 11.09375 8.011719 11.132812 8.734375 C 11.203125 10.019531 12.558594 11.222656 11.695312 11.867188 C 11.484375 12.015625 10.941406 12.226562 10.527344 12.359375 C 8.726562 12.253906 7.636719 11.355469 6.265625 11.289062 C 5.234375 11.242188 4.414062 11.332031 3.886719 12.085938 C 3.140625 13.160156 3.816406 14.953125 5.460938 14.984375 C 5.480469 14.347656 5.640625 14.007812 5.761719 13.773438 C 5.253906 13.773438 4.140625 13.855469 4.140625 13.144531 C 4.140625 12.78125 4.457031 12.664062 4.816406 12.65625 C 6.621094 12.617188 8.203125 14.929688 10.332031 15.066406 C 10.347656 14.039062 11.90625 12.828125 13.113281 13.652344 C 13.699219 12.816406 13.601562 12.089844 13.230469 11.496094 C 13.859375 10.820312 14.140625 10.046875 14.152344 9.226562 C 14.15625 9.023438 14.128906 8.839844 14.085938 8.675781 C 14.476562 8.621094 14.96875 8.496094 15.230469 8.3125 L 15.230469 15.746094 C 15.585938 15.699219 15.6875 15.640625 16.011719 15.386719 L 16.011719 14.164062 C 16.371094 14.121094 16.765625 14.105469 17.140625 13.796875 L 17.140625 8.078125 C 17.808594 8.046875 18.8125 7.710938 19.441406 7.019531 C 19.445312 7.015625 19.449219 7.015625 19.453125 7.015625 C 19.261719 7.6875 18.722656 8.296875 17.707031 8.511719 C 18.460938 8.746094 19.375 8.457031 20.078125 7.964844 C 19.898438 8.457031 19.152344 9.273438 17.785156 9.433594 C 19.042969 9.84375 19.554688 9.414062 20.847656 9.039062 C 22.660156 8.511719 23.742188 9.859375 21.628906 10.359375 C 21.113281 10.480469 20.484375 10.257812 19.855469 10 L 19.253906 10.714844 C 20.078125 11.136719 21.496094 11.460938 22.171875 11.449219 C 24.175781 11.414062 25.039062 9.917969 24.625 8.363281 C 26.410156 8.488281 27.839844 11.40625 26.347656 12.171875 C 25.746094 12.484375 25.222656 12.390625 24.625 12.269531 C 23.308594 12.011719 22.324219 11.417969 21.195312 11.367188 C 20.164062 11.320312 19.347656 11.40625 18.820312 12.160156 C 18.070312 13.234375 18.746094 15.027344 20.390625 15.058594 C 20.410156 14.421875 20.574219 14.082031 20.691406 13.847656 C 20.183594 13.847656 19.070312 13.929688 19.070312 13.21875 C 19.070312 12.855469 19.386719 12.738281 19.746094 12.730469 C 21.550781 12.691406 23.132812 15.003906 25.261719 15.140625 C 25.277344 14.113281 26.835938 12.90625 28.046875 13.726562 C 28.644531 12.871094 28.527344 12.125 28.132812 11.527344 C 28.789062 10.691406 29.191406 9.832031 29.078125 9.113281 C 28.992188 7.898438 27.898438 7.523438 27.886719 6.507812 C 27.878906 5.820312 28.578125 4.828125 29.328125 4.1875 L 28.957031 3.734375 C 28.5 3.886719 28.070312 4.136719 27.699219 4.460938 C 27.269531 3.851562 26.539062 2.78125 25.480469 2.535156 C 25.171875 2.636719 24.753906 3.265625 24.441406 3.902344 C 23.292969 4.132812 22.382812 4.925781 22.003906 5.613281 C 21.542969 5.238281 20.9375 4.453125 21.523438 3.902344 C 21.972656 3.484375 22.988281 3.652344 23.5625 3.902344 Z M 24.285156 7.359375 C 23.851562 6.691406 23.070312 6.230469 22.46875 5.871094 C 22.867188 5.339844 23.9375 4.691406 24.882812 4.710938 C 26.238281 4.742188 27.328125 6.300781 26.03125 7.242188 C 25.734375 7.457031 25.242188 7.46875 24.285156 7.359375 "/>
<path style=" stroke:none;fill-rule:nonzero;fill:rgb(0%,0%,0%);fill-opacity:1;" d="M 15.953125 31.539062 C 10.476562 27.480469 7.242188 23.457031 5.300781 19.558594 C 10.34375 19.402344 13.648438 17.996094 15.953125 16.28125 C 18.707031 18.140625 22.359375 19.660156 26.605469 19.554688 C 24.664062 23.453125 21.429688 27.476562 15.953125 31.539062 "/>
<path style=" stroke:none;fill-rule:nonzero;fill:rgb(100%,86.27451%,0%);fill-opacity:1;" d="M 15.953125 30.820312 C 10.992188 27.144531 8.199219 23.636719 6.363281 20.144531 C 10.09375 19.84375 13.441406 18.835938 15.953125 17.03125 C 18.46875 18.835938 21.816406 19.84375 25.542969 20.144531 C 23.707031 23.640625 20.914062 27.144531 15.953125 30.820312 "/>
<path style=" stroke:none;fill-rule:nonzero;fill:rgb(0%,0%,0%);fill-opacity:1;" d="M 14.070312 26.625 C 14.238281 26.601562 14.410156 26.582031 14.585938 26.5625 C 14.070312 25.597656 14.757812 24.78125 15.671875 24.761719 C 14.976562 25.410156 14.996094 26.117188 15.5 26.476562 C 15.832031 26.449219 15.910156 26.441406 16.246094 26.425781 C 15.652344 25.554688 16.308594 24.796875 17.210938 24.699219 C 16.773438 25.125 16.550781 25.910156 17.085938 26.394531 C 17.390625 26.386719 17.546875 26.382812 17.851562 26.386719 C 17.503906 25.488281 18.199219 24.929688 18.953125 24.902344 C 18.539062 25.265625 18.222656 25.988281 18.710938 26.464844 C 18.949219 26.511719 19.195312 26.507812 19.589844 26.621094 C 19.851562 26.75 20.0625 26.949219 20.125 27.113281 C 16.914062 26.730469 16.441406 26.828125 14.0625 27.210938 C 13.105469 27.703125 12.652344 27.832031 12.171875 27.394531 C 12.089844 27.28125 12.160156 26.976562 12.488281 26.910156 C 12.484375 26.695312 12.644531 26.578125 12.820312 26.527344 C 13.277344 26.390625 13.511719 26.765625 14.070312 26.625 M 12.605469 23.921875 C 12.78125 23.894531 12.964844 23.871094 13.152344 23.851562 C 12.546875 22.882812 13.222656 21.941406 14.203125 21.921875 C 13.515625 22.667969 13.59375 23.335938 14.132812 23.75 C 14.488281 23.722656 14.847656 23.695312 15.210938 23.679688 C 14.488281 22.847656 15.332031 21.894531 16.300781 21.777344 C 15.832031 22.265625 15.535156 23.085938 16.109375 23.644531 C 16.4375 23.636719 16.765625 23.632812 17.089844 23.632812 C 16.597656 22.714844 17.457031 21.957031 18.265625 21.925781 C 17.824219 22.34375 17.5 23.105469 18.019531 23.652344 C 18.367188 23.664062 18.707031 23.683594 19.035156 23.710938 C 18.730469 23.0625 19.160156 22.523438 19.992188 22.367188 C 19.636719 22.753906 19.429688 23.296875 19.789062 23.785156 C 20.246094 23.835938 20.789062 24.039062 21.175781 24.125 C 21.558594 24.339844 21.671875 24.40625 21.980469 24.621094 C 18.40625 24.085938 14.523438 24.207031 12.59375 24.597656 C 11.566406 25.160156 11.085938 25.308594 10.574219 24.808594 C 10.484375 24.671875 10.558594 24.324219 10.914062 24.246094 C 10.90625 23.8125 11.285156 23.792969 11.660156 23.792969 C 11.964844 24.066406 12.265625 24.011719 12.605469 23.921875 M 11.386719 21.363281 C 11.609375 21.335938 11.980469 21.226562 12.210938 21.203125 C 11.53125 19.976562 12.441406 18.730469 13.683594 18.851562 C 12.761719 19.671875 12.699219 20.550781 13.371094 21.007812 C 13.808594 20.976562 14.113281 20.921875 14.5625 20.898438 C 13.898438 19.855469 14.742188 18.503906 15.871094 18.640625 C 15.234375 19.207031 14.996094 20.273438 15.707031 20.886719 C 16.113281 20.878906 16.519531 20.875 16.921875 20.878906 C 16.457031 19.738281 17.320312 18.566406 18.558594 18.925781 C 17.921875 19.101562 17.429688 20.296875 18.078125 20.898438 C 18.507812 20.914062 18.929688 20.933594 19.335938 20.964844 C 19.066406 20.089844 19.578125 19.160156 20.726562 19.523438 C 20.195312 19.867188 19.824219 20.507812 20.273438 21.042969 C 20.839844 21.105469 21.511719 21.230469 21.992188 21.324219 C 22.464844 21.539062 22.886719 21.882812 23.074219 21.984375 C 18.644531 21.394531 14.390625 21.457031 11.460938 22.039062 C 10.1875 22.664062 9.503906 22.800781 8.867188 22.246094 C 8.757812 22.097656 8.851562 21.714844 9.289062 21.628906 C 9.28125 21.148438 9.753906 21.125 10.214844 21.125 C 10.59375 21.425781 10.964844 21.46875 11.386719 21.363281 "/>
</g>
</svg>
