<?xml version="1.0" encoding="UTF-8"?>
<svg xmlns="http://www.w3.org/2000/svg" xmlns:xlink="http://www.w3.org/1999/xlink" width="32px" height="32px" viewBox="0 0 32 33" version="1.1">
<defs>
<clipPath id="clip1">
  <path d="M 0.324219 0.320312 L 31.695312 0.320312 L 31.695312 32.753906 L 0.324219 32.753906 Z M 0.324219 0.320312 "/>
</clipPath>
<clipPath id="clip2">
  <path d="M 0.324219 0.320312 L 31.695312 0.320312 L 31.695312 32.753906 L 0.324219 32.753906 Z M 0.324219 0.320312 "/>
</clipPath>
</defs>
<g id="surface1">
<g clip-path="url(#clip1)" clip-rule="nonzero">
<path style=" stroke:none;fill-rule:nonzero;fill:rgb(0%,35.686275%,64.313725%);fill-opacity:1;" d="M 16.027344 0.320312 C 10.664062 0.320312 4.785156 1.855469 0.324219 4.332031 C 0.777344 20.0625 9.488281 28.386719 16.027344 32.753906 C 22.535156 28.386719 31.242188 20.0625 31.726562 4.332031 C 27.234375 1.855469 21.359375 0.320312 16.027344 0.320312 "/>
</g>
<path style=" stroke:none;fill-rule:nonzero;fill:rgb(100%,100%,100%);fill-opacity:1;" d="M 16.027344 2.148438 C 14.460938 2.148438 12.863281 2.296875 11.234375 2.5625 C 11.988281 11.476562 15.84375 18.765625 22.746094 24.253906 C 27.023438 19.03125 29.375 12.714844 29.796875 5.394531 C 25.667969 3.359375 20.578125 2.148438 16.027344 2.148438 "/>
<g clip-path="url(#clip2)" clip-rule="nonzero">
<path style=" stroke:none;fill-rule:nonzero;fill:rgb(100%,100%,100%);fill-opacity:1;" d="M 16.027344 1.53125 C 20.847656 1.53125 26.210938 2.828125 30.460938 5.042969 C 29.949219 16.140625 25.097656 24.964844 16.027344 31.308594 C 6.957031 24.933594 2.105469 16.109375 1.589844 5.042969 C 5.839844 2.828125 11.203125 1.53125 16.027344 1.53125 M 16.027344 0.96875 C 10.964844 0.96875 5.386719 2.355469 0.988281 4.71875 C 1.441406 16.285156 6.503906 25.464844 16.027344 32.015625 C 25.546875 25.464844 30.609375 16.285156 31.0625 4.71875 C 26.632812 2.355469 21.058594 0.96875 16.027344 0.96875 "/>
</g>
<path style=" stroke:none;fill-rule:evenodd;fill:rgb(0%,35.686275%,64.313725%);fill-opacity:1;" d="M 14.398438 9.234375 C 14.488281 9.234375 14.578125 9.203125 14.609375 9.203125 C 14.671875 9.171875 14.730469 9.085938 14.730469 8.996094 L 14.730469 7.226562 C 14.730469 7.109375 14.699219 7.046875 14.640625 7.019531 C 14.609375 6.988281 14.519531 6.988281 14.429688 6.988281 L 14.429688 6.902344 L 15.574219 6.902344 C 15.785156 6.902344 15.964844 6.929688 16.117188 6.988281 C 16.386719 7.078125 16.539062 7.253906 16.539062 7.492188 C 16.539062 7.640625 16.476562 7.757812 16.359375 7.84375 C 16.238281 7.933594 16.117188 7.992188 15.996094 8.023438 L 15.996094 7.992188 C 16.148438 8.023438 16.265625 8.050781 16.359375 8.109375 C 16.570312 8.230469 16.660156 8.40625 16.660156 8.613281 C 16.660156 8.820312 16.570312 8.96875 16.386719 9.113281 C 16.207031 9.234375 15.9375 9.292969 15.632812 9.292969 L 14.429688 9.292969 L 14.429688 9.234375 Z M 15.785156 7.84375 C 15.875 7.785156 15.90625 7.640625 15.90625 7.460938 C 15.90625 7.3125 15.875 7.195312 15.816406 7.109375 C 15.753906 7.019531 15.664062 6.960938 15.515625 6.960938 C 15.421875 6.960938 15.394531 6.960938 15.363281 6.988281 C 15.332031 7.019531 15.304688 7.046875 15.304688 7.136719 L 15.304688 7.964844 C 15.542969 7.964844 15.695312 7.933594 15.785156 7.84375 M 15.332031 9.113281 C 15.363281 9.171875 15.421875 9.203125 15.515625 9.203125 C 15.695312 9.203125 15.816406 9.144531 15.875 9.054688 C 15.9375 8.96875 15.996094 8.820312 15.996094 8.640625 C 15.996094 8.375 15.90625 8.199219 15.753906 8.109375 C 15.664062 8.050781 15.515625 8.023438 15.304688 8.050781 L 15.304688 8.96875 C 15.304688 9.054688 15.332031 9.085938 15.332031 9.113281 "/>
<path style=" stroke:none;fill-rule:evenodd;fill:rgb(0%,35.686275%,64.313725%);fill-opacity:1;" d="M 17.140625 7.84375 C 17.292969 7.667969 17.503906 7.578125 17.742188 7.578125 C 17.984375 7.578125 18.195312 7.667969 18.347656 7.84375 C 18.496094 8.023438 18.585938 8.230469 18.585938 8.464844 C 18.585938 8.703125 18.496094 8.90625 18.347656 9.085938 C 18.195312 9.261719 17.984375 9.351562 17.742188 9.351562 C 17.503906 9.351562 17.292969 9.261719 17.140625 9.085938 C 16.992188 8.90625 16.898438 8.703125 16.898438 8.4375 C 16.898438 8.230469 16.960938 8.023438 17.140625 7.84375 M 17.472656 9.027344 C 17.503906 9.171875 17.59375 9.261719 17.714844 9.261719 C 17.835938 9.261719 17.925781 9.203125 17.953125 9.085938 C 17.984375 8.96875 18.015625 8.761719 18.015625 8.496094 C 18.015625 8.230469 17.984375 8.023438 17.953125 7.90625 C 17.925781 7.785156 17.835938 7.726562 17.714844 7.726562 C 17.59375 7.726562 17.503906 7.816406 17.472656 7.964844 C 17.441406 8.082031 17.441406 8.257812 17.441406 8.496094 C 17.441406 8.730469 17.441406 8.90625 17.472656 9.027344 "/>
<path style=" stroke:none;fill-rule:nonzero;fill:rgb(0%,35.686275%,64.313725%);fill-opacity:1;" d="M 20.125 7.699219 C 20.246094 7.785156 20.304688 7.875 20.304688 7.992188 C 20.304688 8.050781 20.273438 8.109375 20.246094 8.171875 C 20.214844 8.230469 20.15625 8.230469 20.0625 8.230469 C 20.003906 8.230469 19.972656 8.230469 19.945312 8.199219 C 19.882812 8.171875 19.851562 8.082031 19.851562 7.992188 L 19.851562 7.875 C 19.851562 7.816406 19.824219 7.757812 19.792969 7.757812 C 19.761719 7.726562 19.734375 7.726562 19.671875 7.726562 C 19.550781 7.726562 19.460938 7.785156 19.429688 7.90625 C 19.371094 8.023438 19.371094 8.171875 19.371094 8.316406 C 19.371094 8.554688 19.429688 8.730469 19.523438 8.878906 C 19.613281 9.027344 19.734375 9.113281 19.882812 9.113281 C 19.972656 9.113281 20.0625 9.085938 20.125 9.054688 C 20.15625 9.027344 20.214844 8.996094 20.273438 8.90625 L 20.335938 8.96875 C 20.214844 9.144531 20.0625 9.234375 19.914062 9.320312 C 19.824219 9.351562 19.734375 9.378906 19.640625 9.378906 C 19.402344 9.378906 19.21875 9.292969 19.070312 9.113281 C 18.917969 8.9375 18.828125 8.730469 18.828125 8.496094 C 18.828125 8.230469 18.917969 8.023438 19.070312 7.84375 C 19.21875 7.667969 19.429688 7.578125 19.703125 7.578125 C 19.882812 7.578125 20.003906 7.640625 20.125 7.699219 "/>
<path style=" stroke:none;fill-rule:nonzero;fill:rgb(0%,35.686275%,64.313725%);fill-opacity:1;" d="M 20.515625 9.234375 C 20.578125 9.234375 20.636719 9.203125 20.667969 9.171875 C 20.695312 9.144531 20.726562 9.085938 20.726562 8.996094 L 20.726562 7.136719 C 20.726562 7.078125 20.726562 7.019531 20.695312 6.988281 C 20.667969 6.960938 20.605469 6.929688 20.546875 6.929688 L 20.546875 6.84375 L 21.269531 6.84375 L 21.269531 7.875 C 21.359375 7.785156 21.421875 7.726562 21.511719 7.667969 C 21.601562 7.609375 21.691406 7.578125 21.78125 7.578125 C 21.933594 7.578125 22.054688 7.609375 22.144531 7.699219 C 22.234375 7.785156 22.292969 7.90625 22.292969 8.109375 L 22.292969 8.996094 C 22.292969 9.085938 22.292969 9.144531 22.324219 9.144531 C 22.355469 9.171875 22.414062 9.203125 22.476562 9.203125 L 22.476562 9.292969 L 21.601562 9.292969 L 21.601562 9.203125 C 21.660156 9.203125 21.722656 9.171875 21.75 9.144531 C 21.78125 9.113281 21.78125 9.085938 21.78125 8.996094 L 21.78125 8.109375 C 21.78125 8.023438 21.78125 7.964844 21.75 7.933594 C 21.722656 7.84375 21.660156 7.816406 21.570312 7.816406 C 21.511719 7.816406 21.449219 7.84375 21.359375 7.90625 C 21.300781 7.964844 21.269531 7.992188 21.269531 8.023438 L 21.269531 8.996094 C 21.269531 9.085938 21.269531 9.113281 21.300781 9.144531 C 21.328125 9.171875 21.359375 9.171875 21.449219 9.203125 L 21.449219 9.292969 L 20.546875 9.292969 L 20.546875 9.234375 Z M 20.515625 9.234375 "/>
<path style=" stroke:none;fill-rule:nonzero;fill:rgb(0%,35.686275%,64.313725%);fill-opacity:1;" d="M 23.226562 7.640625 L 23.226562 8.878906 C 23.226562 8.9375 23.226562 8.996094 23.257812 9.027344 C 23.289062 9.085938 23.347656 9.113281 23.4375 9.113281 C 23.5 9.113281 23.558594 9.085938 23.621094 9.054688 C 23.648438 9.027344 23.679688 8.996094 23.742188 8.96875 L 23.742188 7.933594 C 23.742188 7.84375 23.710938 7.816406 23.679688 7.785156 C 23.648438 7.757812 23.589844 7.726562 23.5 7.726562 L 23.5 7.640625 L 24.253906 7.640625 L 24.253906 8.96875 C 24.253906 9.054688 24.253906 9.085938 24.28125 9.113281 C 24.3125 9.144531 24.375 9.171875 24.464844 9.171875 L 24.464844 9.261719 C 24.222656 9.292969 24.101562 9.292969 24.042969 9.320312 C 23.980469 9.320312 23.890625 9.351562 23.742188 9.410156 L 23.742188 9.171875 C 23.648438 9.261719 23.589844 9.292969 23.53125 9.320312 C 23.4375 9.378906 23.320312 9.410156 23.199219 9.410156 C 23.078125 9.410156 22.957031 9.378906 22.867188 9.292969 C 22.777344 9.203125 22.714844 9.085938 22.714844 8.878906 L 22.714844 7.964844 C 22.714844 7.875 22.714844 7.84375 22.6875 7.816406 C 22.65625 7.785156 22.625 7.785156 22.535156 7.757812 L 22.535156 7.667969 L 23.226562 7.667969 Z M 23.226562 7.640625 "/>
<path style=" stroke:none;fill-rule:nonzero;fill:rgb(0%,35.686275%,64.313725%);fill-opacity:1;" d="M 24.703125 9.234375 C 24.765625 9.234375 24.824219 9.203125 24.855469 9.203125 C 24.886719 9.171875 24.914062 9.113281 24.914062 9.027344 L 24.914062 7.964844 C 24.914062 7.875 24.914062 7.84375 24.886719 7.816406 C 24.855469 7.785156 24.796875 7.757812 24.734375 7.757812 L 24.734375 7.667969 L 25.429688 7.667969 L 25.429688 7.933594 C 25.488281 7.84375 25.546875 7.785156 25.609375 7.757812 C 25.730469 7.667969 25.851562 7.640625 25.96875 7.640625 C 26.121094 7.640625 26.242188 7.667969 26.332031 7.757812 C 26.390625 7.785156 26.421875 7.875 26.453125 7.964844 L 26.484375 7.964844 C 26.542969 7.875 26.632812 7.816406 26.695312 7.785156 C 26.785156 7.726562 26.90625 7.667969 27.023438 7.667969 C 27.144531 7.667969 27.265625 7.699219 27.355469 7.785156 C 27.445312 7.875 27.507812 7.992188 27.507812 8.171875 L 27.507812 9.085938 C 27.507812 9.171875 27.507812 9.234375 27.539062 9.234375 C 27.566406 9.261719 27.628906 9.261719 27.6875 9.292969 L 27.6875 9.378906 L 26.8125 9.378906 L 26.8125 9.292969 C 26.875 9.292969 26.933594 9.261719 26.964844 9.234375 C 26.996094 9.203125 26.996094 9.144531 26.996094 9.085938 L 26.996094 8.199219 C 26.996094 8.109375 26.996094 8.023438 26.964844 7.992188 C 26.933594 7.933594 26.875 7.90625 26.8125 7.90625 C 26.753906 7.90625 26.695312 7.933594 26.601562 7.992188 C 26.542969 8.050781 26.484375 8.082031 26.484375 8.109375 L 26.484375 9.085938 C 26.484375 9.171875 26.484375 9.203125 26.511719 9.234375 C 26.542969 9.261719 26.574219 9.261719 26.664062 9.292969 L 26.664062 9.378906 L 25.789062 9.378906 L 25.789062 9.292969 C 25.851562 9.292969 25.910156 9.261719 25.941406 9.234375 C 25.96875 9.203125 25.96875 9.144531 25.96875 9.085938 L 25.96875 8.199219 C 25.96875 8.109375 25.96875 8.023438 25.941406 7.992188 C 25.910156 7.933594 25.851562 7.90625 25.789062 7.90625 C 25.699219 7.90625 25.640625 7.933594 25.578125 7.992188 C 25.519531 8.050781 25.488281 8.082031 25.488281 8.109375 L 25.488281 9.085938 C 25.488281 9.171875 25.488281 9.203125 25.519531 9.234375 C 25.546875 9.261719 25.578125 9.261719 25.667969 9.292969 L 25.667969 9.378906 L 24.765625 9.378906 L 24.765625 9.234375 Z M 24.703125 9.234375 "/>
<path style=" stroke:none;fill-rule:evenodd;fill:rgb(0%,35.686275%,64.313725%);fill-opacity:1;" d="M 17.503906 13.6875 C 17.683594 13.6875 17.835938 13.660156 17.863281 13.601562 C 17.925781 13.542969 17.953125 13.453125 17.953125 13.304688 L 17.953125 11.859375 C 17.953125 11.769531 17.953125 11.710938 17.925781 11.652344 C 17.894531 11.625 17.863281 11.59375 17.804688 11.59375 C 17.773438 11.59375 17.714844 11.59375 17.652344 11.625 C 17.625 11.625 17.5625 11.652344 17.472656 11.683594 L 17.472656 11.59375 L 18.4375 11.179688 L 18.496094 11.179688 L 18.496094 13.304688 C 18.496094 13.453125 18.527344 13.542969 18.558594 13.570312 C 18.585938 13.601562 18.707031 13.628906 18.890625 13.628906 L 18.890625 13.71875 L 17.503906 13.71875 Z M 17.503906 13.6875 "/>
<path style=" stroke:none;fill-rule:evenodd;fill:rgb(0%,35.686275%,64.313725%);fill-opacity:1;" d="M 20.183594 12.007812 C 20.214844 11.949219 20.214844 11.859375 20.214844 11.769531 C 20.214844 11.625 20.183594 11.535156 20.125 11.445312 C 20.0625 11.359375 19.972656 11.328125 19.851562 11.328125 C 19.761719 11.328125 19.703125 11.359375 19.640625 11.417969 C 19.582031 11.476562 19.550781 11.535156 19.550781 11.625 C 19.550781 11.769531 19.613281 11.890625 19.761719 12.007812 C 19.851562 12.066406 19.945312 12.15625 20.035156 12.183594 C 20.125 12.125 20.15625 12.066406 20.183594 12.007812 M 19.550781 13.484375 C 19.613281 13.628906 19.734375 13.71875 19.882812 13.71875 C 19.972656 13.71875 20.035156 13.6875 20.125 13.628906 C 20.183594 13.570312 20.214844 13.453125 20.214844 13.304688 C 20.214844 13.15625 20.15625 13.039062 20.0625 12.921875 C 20.003906 12.863281 19.882812 12.773438 19.703125 12.65625 C 19.640625 12.773438 19.582031 12.832031 19.550781 12.890625 C 19.523438 12.980469 19.492188 13.070312 19.492188 13.1875 C 19.492188 13.304688 19.523438 13.394531 19.550781 13.484375 M 19.25 12.746094 C 19.339844 12.6875 19.429688 12.625 19.582031 12.566406 L 19.582031 12.539062 C 19.550781 12.539062 19.492188 12.480469 19.402344 12.421875 C 19.3125 12.359375 19.25 12.273438 19.191406 12.214844 C 19.128906 12.15625 19.101562 12.066406 19.101562 12.007812 C 19.070312 11.949219 19.070312 11.890625 19.070312 11.828125 C 19.070312 11.652344 19.160156 11.503906 19.3125 11.359375 C 19.460938 11.238281 19.671875 11.179688 19.945312 11.179688 C 20.183594 11.179688 20.367188 11.238281 20.484375 11.328125 C 20.605469 11.445312 20.667969 11.5625 20.667969 11.710938 C 20.667969 11.859375 20.605469 11.976562 20.457031 12.09375 C 20.394531 12.15625 20.273438 12.214844 20.15625 12.242188 L 20.15625 12.273438 C 20.335938 12.390625 20.457031 12.507812 20.515625 12.597656 C 20.636719 12.746094 20.695312 12.890625 20.695312 13.070312 C 20.695312 13.304688 20.605469 13.484375 20.457031 13.628906 C 20.273438 13.777344 20.0625 13.835938 19.792969 13.835938 C 19.613281 13.835938 19.402344 13.777344 19.25 13.6875 C 19.070312 13.570312 19.007812 13.421875 19.007812 13.21875 C 19.039062 13.011719 19.101562 12.863281 19.25 12.746094 "/>
<path style=" stroke:none;fill-rule:evenodd;fill:rgb(0%,35.686275%,64.313725%);fill-opacity:1;" d="M 21.871094 12.832031 L 21.871094 11.769531 L 21.84375 11.769531 L 21.117188 12.773438 L 21.117188 12.804688 L 21.871094 12.804688 Z M 20.96875 12.746094 C 20.96875 12.714844 21.027344 12.6875 21.058594 12.597656 L 21.449219 12.035156 L 21.960938 11.359375 L 22.113281 11.152344 L 22.414062 11.152344 L 22.414062 12.773438 L 22.65625 12.773438 L 22.65625 13.1875 L 22.414062 13.1875 L 22.414062 13.71875 L 21.871094 13.71875 L 21.871094 13.1875 L 20.90625 13.1875 L 20.90625 12.773438 C 20.9375 12.804688 20.9375 12.773438 20.96875 12.746094 "/>
<path style=" stroke:none;fill-rule:evenodd;fill:rgb(0%,35.686275%,64.313725%);fill-opacity:1;" d="M 24.011719 12.007812 C 24.042969 11.949219 24.042969 11.859375 24.042969 11.769531 C 24.042969 11.625 24.011719 11.535156 23.953125 11.445312 C 23.890625 11.359375 23.800781 11.328125 23.679688 11.328125 C 23.589844 11.328125 23.53125 11.359375 23.46875 11.417969 C 23.410156 11.476562 23.378906 11.535156 23.378906 11.625 C 23.378906 11.769531 23.4375 11.890625 23.589844 12.007812 C 23.679688 12.066406 23.769531 12.15625 23.859375 12.183594 C 23.953125 12.125 23.980469 12.066406 24.011719 12.007812 M 23.378906 13.484375 C 23.4375 13.628906 23.558594 13.71875 23.710938 13.71875 C 23.800781 13.71875 23.859375 13.6875 23.953125 13.628906 C 24.011719 13.570312 24.042969 13.453125 24.042969 13.304688 C 24.042969 13.15625 23.980469 13.039062 23.890625 12.921875 C 23.832031 12.863281 23.710938 12.773438 23.53125 12.65625 C 23.46875 12.773438 23.410156 12.832031 23.378906 12.890625 C 23.347656 12.980469 23.320312 13.070312 23.320312 13.1875 C 23.320312 13.304688 23.347656 13.394531 23.378906 13.484375 M 23.078125 12.746094 C 23.167969 12.6875 23.257812 12.625 23.410156 12.566406 L 23.410156 12.539062 C 23.378906 12.539062 23.320312 12.480469 23.226562 12.421875 C 23.136719 12.359375 23.078125 12.273438 23.015625 12.214844 C 22.957031 12.15625 22.925781 12.066406 22.925781 12.007812 C 22.898438 11.949219 22.898438 11.890625 22.898438 11.828125 C 22.898438 11.652344 22.988281 11.503906 23.136719 11.359375 C 23.289062 11.238281 23.5 11.179688 23.769531 11.179688 C 24.011719 11.179688 24.191406 11.238281 24.3125 11.328125 C 24.433594 11.445312 24.492188 11.5625 24.492188 11.710938 C 24.492188 11.859375 24.433594 11.976562 24.28125 12.09375 C 24.222656 12.15625 24.101562 12.214844 23.980469 12.242188 L 23.980469 12.273438 C 24.164062 12.390625 24.28125 12.507812 24.34375 12.597656 C 24.464844 12.746094 24.523438 12.890625 24.523438 13.070312 C 24.523438 13.304688 24.433594 13.484375 24.28125 13.628906 C 24.101562 13.777344 23.890625 13.835938 23.621094 13.835938 C 23.4375 13.835938 23.226562 13.777344 23.078125 13.6875 C 22.898438 13.570312 22.835938 13.421875 22.835938 13.21875 C 22.867188 13.011719 22.925781 12.863281 23.078125 12.746094 "/>
<path style=" stroke:none;fill-rule:nonzero;fill:rgb(100%,100%,100%);fill-opacity:1;" d="M 6.59375 6.457031 L 2.675781 6.457031 L 2.675781 6.605469 C 2.675781 6.605469 2.675781 6.695312 2.796875 6.695312 C 2.917969 6.695312 3.339844 6.78125 3.519531 7.195312 C 3.699219 7.609375 6.746094 14.339844 6.746094 14.339844 C 6.746094 14.339844 6.804688 14.367188 6.894531 14.367188 C 6.984375 14.367188 7.015625 14.339844 7.015625 14.339844 L 9.789062 7.519531 C 9.789062 7.519531 10 7.109375 10.210938 6.871094 C 10.359375 6.695312 10.511719 6.722656 10.632812 6.695312 C 10.753906 6.664062 10.78125 6.605469 10.78125 6.578125 L 10.78125 6.457031 L 8.34375 6.457031 L 8.34375 6.546875 C 8.34375 6.605469 8.433594 6.664062 8.460938 6.664062 C 8.671875 6.664062 9.214844 6.695312 9.335938 7.019531 C 9.425781 7.34375 9.15625 7.875 9.15625 7.875 L 7.558594 11.710938 L 5.660156 7.492188 C 5.660156 7.492188 5.480469 7.046875 5.628906 6.84375 C 5.78125 6.636719 6.113281 6.636719 6.292969 6.636719 C 6.441406 6.636719 6.5625 6.578125 6.59375 6.546875 L 6.59375 6.457031 "/>
<path style=" stroke:none;fill-rule:nonzero;fill:rgb(100%,100%,100%);fill-opacity:1;" d="M 16.449219 19.503906 L 12.441406 19.503906 C 12.441406 19.503906 12.441406 19.710938 12.621094 19.738281 C 12.710938 19.738281 13.34375 19.828125 13.40625 20.125 C 13.40625 20.183594 13.433594 25.703125 13.433594 25.703125 C 13.433594 25.703125 13.433594 26.585938 13.285156 26.734375 C 13.132812 26.851562 12.652344 27 12.53125 27.027344 C 12.5 27.027344 12.5 27.058594 12.5 27.058594 L 12.5 27.175781 C 12.5 27.207031 12.53125 27.207031 12.53125 27.207031 L 19.128906 27.207031 L 19.613281 24.699219 C 19.613281 24.667969 19.582031 24.640625 19.582031 24.667969 L 19.371094 24.699219 C 19.371094 24.699219 19.339844 24.699219 19.339844 24.726562 C 19.3125 24.875 19.007812 25.730469 18.40625 26.234375 C 17.835938 26.703125 17.472656 26.824219 17.109375 26.882812 C 16.78125 26.941406 16.238281 26.96875 15.9375 26.910156 C 15.726562 26.851562 15.484375 26.675781 15.394531 26.585938 C 15.363281 26.527344 15.363281 25.96875 15.363281 25.96875 L 15.363281 20.59375 C 15.363281 20.59375 15.363281 20.09375 15.542969 19.945312 C 15.726562 19.796875 16.085938 19.738281 16.296875 19.710938 C 16.476562 19.710938 16.476562 19.503906 16.476562 19.503906 Z M 16.449219 19.503906 "/>
<path style=" stroke:none;fill-rule:nonzero;fill:rgb(100%,100%,100%);fill-opacity:1;" d="M 11.535156 14.691406 L 11.535156 14.28125 C 11.535156 14.25 11.507812 14.25 11.507812 14.25 L 10.84375 14.25 L 10.84375 12.625 C 10.84375 12.214844 11.085938 12.007812 11.296875 11.949219 C 11.414062 11.917969 11.597656 11.949219 11.6875 12.007812 C 11.777344 12.066406 11.746094 12.15625 11.71875 12.214844 C 11.6875 12.273438 11.535156 12.359375 11.507812 12.804688 C 11.476562 13.246094 11.777344 13.363281 12.199219 13.363281 C 12.621094 13.363281 12.800781 13.070312 12.800781 12.863281 C 12.800781 12.746094 12.800781 12.449219 12.652344 12.183594 C 12.652344 12.183594 12.652344 12.15625 12.621094 12.15625 C 12.621094 12.15625 12.621094 12.125 12.589844 12.125 C 12.320312 11.710938 11.71875 11.625 11.324219 11.59375 L 11.023438 11.59375 C 10.691406 11.625 10.359375 11.710938 10 11.949219 C 9.277344 12.390625 9.277344 13.304688 9.277344 13.304688 L 9.277344 14.25 L 8.765625 14.25 C 8.734375 14.25 8.734375 14.28125 8.734375 14.28125 L 8.734375 14.691406 C 8.734375 14.722656 8.765625 14.722656 8.765625 14.722656 L 9.335938 14.722656 L 9.335938 24.285156 C 9.820312 24.875 10.332031 25.464844 10.875 26.027344 L 10.875 14.722656 L 11.535156 14.722656 C 11.507812 14.722656 11.535156 14.722656 11.535156 14.691406 "/>
</g>
</svg>
