<?xml version="1.0" encoding="UTF-8"?>
<svg xmlns="http://www.w3.org/2000/svg" xmlns:xlink="http://www.w3.org/1999/xlink" width="32px" height="32px" viewBox="0 0 32 32" version="1.1">
<g id="surface1">
<path style=" stroke:none;fill-rule:nonzero;fill:rgb(32.156863%,65.098039%,0%);fill-opacity:1;" d="M 16 0.761719 C 8.855469 0.761719 2.667969 5.726562 1.125 12.703125 C -0.421875 19.675781 3.085938 26.789062 9.558594 29.808594 C 16.035156 32.828125 23.738281 30.945312 28.089844 25.277344 C 32.4375 19.609375 32.265625 11.679688 27.671875 6.207031 C 31.542969 11.277344 31.449219 18.339844 27.449219 23.308594 C 23.445312 28.28125 16.570312 29.878906 10.785156 27.179688 C 5.003906 24.484375 1.808594 18.1875 3.042969 11.929688 C 4.277344 5.667969 9.625 1.058594 16 0.761719 "/>
<path style=" stroke:none;fill-rule:nonzero;fill:rgb(32.156863%,65.098039%,0%);fill-opacity:1;" d="M 12.191406 6.09375 C 10.667969 6.09375 7.769531 6.398438 7.769531 8.382812 L 7.769531 19.046875 C 7.769531 21.742188 9.953125 23.921875 12.648438 23.921875 C 15.339844 23.921875 17.523438 21.742188 17.523438 19.046875 L 15.847656 19.046875 C 15.847656 21.742188 18.03125 23.921875 20.722656 23.921875 C 23.417969 23.921875 25.601562 21.742188 25.601562 19.046875 L 25.601562 6.09375 C 24.078125 6.09375 21.179688 6.398438 21.179688 8.382812 L 21.179688 18.894531 C 21.179688 19.273438 20.667969 19.582031 20.039062 19.582031 C 19.40625 19.582031 18.894531 19.273438 18.894531 18.894531 L 18.894531 8.6875 C 17.371094 8.6875 14.476562 8.992188 14.476562 10.972656 L 14.476562 18.894531 C 14.476562 19.273438 13.964844 19.582031 13.332031 19.582031 C 12.703125 19.582031 12.191406 19.273438 12.191406 18.894531 "/>
</g>
</svg>
