<?xml version="1.0" encoding="UTF-8"?>
<svg xmlns="http://www.w3.org/2000/svg" xmlns:xlink="http://www.w3.org/1999/xlink" width="32px" height="32px" viewBox="0 0 32 24" version="1.1">
<defs>
<clipPath id="clip1">
  <path d="M 0.171875 0.0117188 L 31.847656 0.0117188 L 31.847656 24 L 0.171875 24 Z M 0.171875 0.0117188 "/>
</clipPath>
<clipPath id="clip3">
  <path d="M 0.171875 0 L 31.9375 0 L 31.9375 24 L 0.171875 24 Z M 0.171875 0 "/>
</clipPath>
<clipPath id="clip4">
  <path d="M 9.246094 1.320312 C 9.410156 1.148438 9.78125 0.800781 10.472656 0.824219 C 10.910156 0.628906 11.402344 0.703125 11.578125 0.8125 C 11.578125 0.8125 11.890625 0.800781 12.09375 0.898438 C 13.324219 0.496094 14.640625 0.28125 16.003906 0.28125 C 17.367188 0.28125 18.683594 0.496094 19.914062 0.898438 C 20.117188 0.800781 20.429688 0.8125 20.429688 0.8125 C 20.605469 0.703125 21.109375 0.628906 21.535156 0.824219 C 22.226562 0.800781 22.59375 1.148438 22.761719 1.320312 C 22.863281 1.058594 23.019531 0.84375 23.410156 0.714844 C 23.546875 0.0234375 24.496094 -0.292969 25.8125 0.347656 C 26.40625 -0.171875 27.277344 0.378906 27.554688 1.125 C 27.992188 1.015625 28.683594 1.40625 28.640625 2.660156 C 29.085938 2.683594 29.253906 3.128906 29.132812 3.863281 C 29.398438 3.808594 30.683594 3.582031 31.613281 4.707031 C 32.058594 5.25 31.800781 5.941406 31.332031 6.277344 C 31.300781 6.363281 31.109375 7.109375 30.515625 7.421875 C 30.484375 7.800781 31.164062 8.625 31.433594 9.15625 C 32.160156 10.667969 31.800781 13.234375 29.109375 13.679688 C 29.230469 13.785156 29.5 14.144531 29.589844 14.445312 C 29.703125 14.835938 29.625 15.214844 29.410156 15.527344 C 29.1875 15.886719 28.359375 16.382812 28.148438 16.632812 C 28.527344 16.847656 28.976562 17.304688 28.773438 18.148438 L 28.003906 21.457031 C 27.878906 22 27.5 22.453125 26.898438 22.574219 C 26.585938 22.636719 26.261719 22.574219 26.070312 22.519531 C 24.730469 22.171875 23.757812 22.441406 22.273438 22.90625 C 21.5 23.144531 20.652344 23.417969 19.65625 23.621094 C 18.628906 23.839844 17.445312 23.988281 16.015625 23.988281 C 14.574219 23.988281 13.390625 23.839844 12.371094 23.621094 C 11.367188 23.417969 10.527344 23.144531 9.757812 22.90625 C 8.273438 22.441406 7.300781 22.183594 5.960938 22.519531 C 5.769531 22.574219 5.445312 22.625 5.132812 22.574219 C 4.519531 22.453125 4.148438 22 4.027344 21.457031 L 3.253906 18.148438 C 3.054688 17.304688 3.5 16.847656 3.882812 16.632812 C 3.679688 16.382812 2.84375 15.886719 2.617188 15.527344 C 2.417969 15.203125 2.328125 14.835938 2.441406 14.445312 C 2.53125 14.144531 2.808594 13.785156 2.921875 13.679688 C 0.226562 13.246094 -0.128906 10.679688 0.597656 9.164062 C 0.855469 8.625 1.546875 7.8125 1.511719 7.433594 C 0.921875 7.132812 0.71875 6.375 0.695312 6.285156 C 0.214844 5.941406 -0.0390625 5.257812 0.394531 4.71875 C 1.324219 3.582031 2.609375 3.820312 2.875 3.875 C 2.753906 3.148438 2.921875 2.707031 3.367188 2.671875 C 3.324219 1.417969 4.015625 1.027344 4.453125 1.136719 C 4.730469 0.390625 5.601562 -0.164062 6.195312 0.355469 C 7.523438 -0.28125 8.460938 0.03125 8.597656 0.726562 C 8.988281 0.855469 9.15625 1.070312 9.246094 1.320312 "/>
</clipPath>
<clipPath id="clip2">
  <rect x="0" y="0" width="32" height="24"/>
</clipPath>
<g id="surface5" clip-path="url(#clip2)">
<g clip-path="url(#clip3)" clip-rule="nonzero">
<g clip-path="url(#clip4)" clip-rule="nonzero">
<rect x="0" y="0" width="32" height="24" style="fill:rgb(100%,100%,100%);fill-opacity:1;stroke:none;"/>
</g>
</g>
</g>
<clipPath id="clip5">
  <path d="M 4 1 L 28 1 L 28 23 L 4 23 Z M 4 1 "/>
</clipPath>
<clipPath id="clip6">
  <path d="M 12.628906 22.257812 C 11.679688 22.0625 10.875 21.804688 10.136719 21.578125 C 8.695312 21.121094 7.433594 20.753906 5.769531 21.121094 C 5.433594 21.199219 5.3125 21.199219 5.234375 20.875 L 4.539062 17.886719 C 4.472656 17.605469 4.5625 17.550781 4.84375 17.488281 C 6.898438 17.066406 8.585938 17.355469 10.285156 17.769531 C 11.175781 17.984375 12.058594 18.234375 12.988281 18.429688 C 13.925781 18.621094 14.921875 18.773438 15.992188 18.773438 C 17.078125 18.773438 18.058594 18.632812 19 18.429688 C 19.925781 18.234375 20.808594 17.984375 21.703125 17.769531 C 23.398438 17.347656 25.097656 17.054688 27.144531 17.488281 C 27.421875 17.550781 27.5 17.605469 27.445312 17.886719 L 26.75 20.875 C 26.671875 21.210938 26.5625 21.210938 26.214844 21.121094 C 24.550781 20.742188 23.289062 21.121094 21.847656 21.578125 C 21.109375 21.804688 20.304688 22.0625 19.355469 22.257812 C 18.40625 22.453125 17.3125 22.59375 15.980469 22.59375 C 14.675781 22.59375 13.578125 22.453125 12.628906 22.257812 M 12.597656 5.152344 L 12.507812 5.097656 L 12.527344 5 C 12.585938 4.738281 12.550781 4.5 12.136719 4.492188 L 12.039062 4.492188 L 11.726562 3.527344 L 11.8125 3.460938 C 12.105469 3.269531 12.039062 3.019531 11.644531 2.890625 L 11.546875 2.855469 L 11.546875 2.757812 C 11.546875 2.597656 11.644531 2.511719 11.714844 2.445312 C 11.734375 2.433594 11.746094 2.414062 11.769531 2.402344 C 11.792969 2.390625 11.804688 2.371094 11.824219 2.347656 C 11.859375 2.316406 11.890625 2.273438 11.925781 2.207031 L 11.949219 2.164062 L 11.992188 2.140625 C 13.234375 1.667969 14.597656 1.417969 16.015625 1.417969 C 17.433594 1.417969 18.785156 1.675781 20.039062 2.140625 L 20.082031 2.164062 L 20.105469 2.207031 C 20.136719 2.261719 20.171875 2.304688 20.203125 2.347656 C 20.226562 2.371094 20.238281 2.378906 20.261719 2.402344 C 20.28125 2.425781 20.292969 2.433594 20.316406 2.445312 C 20.382812 2.511719 20.484375 2.597656 20.484375 2.757812 L 20.484375 2.855469 L 20.382812 2.890625 C 19.992188 3.019531 19.925781 3.269531 20.214844 3.460938 L 20.304688 3.527344 L 19.992188 4.492188 L 19.890625 4.492188 C 19.476562 4.5 19.433594 4.738281 19.5 5 L 19.523438 5.097656 L 19.433594 5.152344 C 19.3125 5.226562 19.199219 5.519531 19.265625 5.722656 L 19.378906 6.039062 L 19.066406 5.898438 C 18.148438 5.476562 17.109375 5.226562 16.015625 5.226562 C 14.921875 5.226562 13.890625 5.464844 12.964844 5.898438 L 12.652344 6.039062 L 12.765625 5.722656 C 12.832031 5.507812 12.71875 5.214844 12.597656 5.152344 "/>
</clipPath>
<clipPath id="clip7">
  <path d="M 1 1 L 31 1 L 31 18 L 1 18 Z M 1 1 "/>
</clipPath>
<clipPath id="clip8">
  <path d="M 27.421875 7.941406 C 27.410156 7.953125 27.398438 7.964844 27.390625 7.976562 C 27.277344 8.09375 27.054688 8.203125 26.851562 8.203125 L 26.683594 8.203125 L 26.695312 8.363281 C 26.761719 9.046875 27.1875 9.964844 27.613281 10.441406 C 28.046875 10.929688 28.269531 11.449219 28.25 11.925781 L 28.238281 12.054688 L 28.371094 12.066406 C 29.199219 12.140625 29.769531 11.761719 29.980469 11.222656 C 30.292969 10.398438 29.679688 9.511719 29.265625 8.90625 C 28.71875 8.117188 28.808594 7.207031 28.929688 6.644531 L 28.953125 6.546875 L 28.875 6.492188 C 28.707031 6.382812 28.617188 6.199219 28.617188 5.996094 C 28.617188 5.769531 28.671875 5.519531 28.917969 5.28125 C 29.164062 5.042969 29.445312 5.011719 29.824219 5.011719 C 30.015625 5.011719 30.496094 5.214844 30.628906 5.410156 L 30.628906 5.433594 C 30.628906 5.441406 30.617188 5.453125 30.585938 5.476562 C 30.429688 5.5625 30.339844 5.691406 30.269531 5.832031 C 30.214844 5.953125 30.183594 6.09375 30.125 6.222656 C 30.035156 6.449219 29.925781 6.613281 29.546875 6.613281 L 29.433594 6.613281 L 29.398438 6.71875 C 29.34375 6.902344 29.320312 7.097656 29.308594 7.292969 C 29.289062 7.878906 29.445312 8.277344 29.667969 8.636719 C 29.746094 8.753906 29.867188 8.925781 29.992188 9.121094 C 30.113281 9.304688 30.238281 9.523438 30.339844 9.726562 C 30.875 10.84375 30.515625 12.207031 29.210938 12.59375 C 28.996094 12.660156 28.527344 12.726562 28.035156 12.640625 L 27.957031 12.628906 L 27.902344 12.691406 C 27.871094 12.726562 27.847656 12.757812 27.8125 12.789062 C 27.769531 12.832031 27.703125 12.886719 27.632812 12.941406 L 27.601562 12.964844 L 27.589844 13.007812 C 27.476562 13.363281 27.511719 13.773438 27.878906 14.1875 C 28.027344 14.347656 28.160156 14.480469 28.25 14.597656 C 28.351562 14.714844 28.394531 14.792969 28.417969 14.855469 C 28.4375 14.945312 28.429688 15.050781 28.070312 15.300781 C 27.164062 15.929688 26.796875 16.46875 26.59375 16.847656 C 26.507812 17.023438 26.449219 17.164062 26.394531 17.257812 C 26.351562 17.324219 26.328125 17.335938 26.28125 17.335938 C 26.105469 17.324219 25.847656 17.304688 25.644531 17.214844 L 25.523438 17.171875 L 25.457031 17.28125 C 25.34375 17.464844 24.875 17.507812 24.683594 17.390625 L 24.617188 17.347656 L 24.550781 17.367188 C 24.171875 17.507812 23.902344 17.488281 23.746094 17.445312 C 23.667969 17.421875 23.613281 17.390625 23.578125 17.367188 C 23.566406 17.355469 23.546875 17.347656 23.546875 17.347656 C 22.863281 17.292969 22.808594 16.621094 23.109375 16.253906 C 23.175781 16.175781 23.378906 15.929688 23.8125 15.929688 C 24.105469 15.929688 25.488281 15.09375 25.488281 14.652344 C 25.488281 14.554688 25.421875 14.480469 25.367188 14.433594 C 25.3125 14.382812 25.234375 14.335938 25.152344 14.292969 C 24.996094 14.207031 24.785156 14.101562 24.585938 13.96875 C 24.171875 13.710938 23.8125 13.375 23.8125 12.898438 C 23.8125 12.507812 23.925781 11.839844 25.066406 11.839844 L 25.210938 11.839844 L 25.210938 11.699219 C 25.210938 10.90625 24.382812 10.117188 23.980469 9.824219 C 23.800781 9.695312 23.601562 9.480469 23.46875 9.199219 L 23.445312 9.144531 L 23.390625 9.121094 C 22.964844 8.980469 22.59375 8.515625 22.238281 7.984375 C 22.058594 7.714844 21.902344 7.445312 21.746094 7.207031 C 21.589844 6.96875 21.445312 6.742188 21.289062 6.589844 L 21.242188 6.546875 L 21.175781 6.546875 C 20.988281 6.546875 20.753906 6.480469 20.550781 6.40625 L 20.472656 6.375 L 20.40625 6.417969 C 20.046875 6.65625 19.644531 6.503906 19.636719 6.296875 L 19.625 6.167969 L 19.488281 6.167969 C 19.289062 6.167969 19.199219 6.050781 19.1875 5.863281 C 19.175781 5.660156 19.277344 5.464844 19.378906 5.410156 L 19.46875 5.355469 L 19.445312 5.257812 C 19.390625 5.011719 19.289062 4.273438 21.457031 5.195312 C 21.511719 5.214844 21.578125 5.25 21.644531 5.28125 L 21.925781 5.410156 L 21.859375 5.117188 C 21.769531 4.75 21.601562 4.402344 21.242188 4.113281 L 21.164062 4.046875 L 21.078125 4.089844 C 20.929688 4.15625 20.832031 4.144531 20.707031 4.089844 C 20.640625 4.058594 20.5625 4.015625 20.484375 3.949219 C 20.394531 3.882812 20.292969 3.820312 20.183594 3.742188 C 19.878906 3.539062 19.949219 3.289062 20.339844 3.160156 L 20.4375 3.128906 L 20.4375 3.03125 C 20.4375 2.953125 20.417969 2.890625 20.371094 2.835938 C 20.351562 2.8125 20.339844 2.792969 20.316406 2.769531 C 20.292969 2.75 20.28125 2.738281 20.261719 2.714844 C 20.238281 2.707031 20.226562 2.683594 20.203125 2.660156 C 20.183594 2.640625 20.171875 2.628906 20.148438 2.609375 C 20.117188 2.566406 20.082031 2.519531 20.046875 2.457031 C 19.9375 2.238281 20.195312 1.992188 20.507812 2.121094 L 20.707031 2.011719 C 20.707031 2.011719 20.71875 2 20.742188 2 C 20.785156 1.980469 20.863281 1.96875 20.941406 1.980469 C 21.132812 1.980469 21.265625 2.046875 21.289062 2.078125 L 21.535156 2.078125 C 21.523438 2.078125 21.523438 2.089844 21.511719 2.097656 C 21.511719 2.097656 21.523438 2.097656 21.546875 2.089844 C 21.578125 2.089844 21.625 2.089844 21.691406 2.109375 C 21.8125 2.164062 22.003906 2.304688 22.148438 2.660156 L 22.195312 2.78125 L 22.316406 2.75 C 22.429688 2.714844 22.539062 2.695312 22.640625 2.683594 C 22.707031 2.671875 22.964844 2.660156 23.019531 2.652344 C 23.085938 2.640625 23.15625 2.609375 23.199219 2.574219 C 23.242188 2.542969 23.277344 2.5 23.3125 2.476562 C 23.320312 2.46875 23.34375 2.445312 23.355469 2.433594 C 23.367188 2.425781 23.378906 2.414062 23.398438 2.390625 C 23.421875 2.371094 23.457031 2.347656 23.476562 2.335938 C 23.488281 2.335938 23.566406 2.316406 23.703125 2.304688 L 23.871094 2.285156 L 23.824219 2.132812 C 23.8125 2.089844 23.800781 2.035156 23.792969 1.980469 C 23.792969 1.957031 23.78125 1.9375 23.78125 1.914062 C 23.78125 1.90625 23.78125 1.90625 23.78125 1.894531 C 23.792969 1.871094 23.8125 1.839844 23.925781 1.808594 C 24.035156 1.773438 24.160156 1.753906 24.238281 1.730469 C 24.28125 1.71875 24.339844 1.699219 24.382812 1.6875 C 24.429688 1.667969 24.484375 1.644531 24.527344 1.613281 C 24.628906 1.535156 24.683594 1.417969 24.617188 1.277344 C 24.652344 1.277344 24.683594 1.289062 24.742188 1.296875 C 24.839844 1.320312 24.953125 1.34375 25.042969 1.386719 C 25.085938 1.394531 25.121094 1.417969 25.144531 1.429688 C 25.152344 1.429688 25.152344 1.4375 25.152344 1.4375 C 25.152344 1.449219 25.152344 1.460938 25.144531 1.484375 C 25.132812 1.515625 24.976562 1.785156 24.976562 1.785156 C 24.976562 1.785156 25.277344 1.753906 25.3125 1.753906 C 25.355469 1.753906 25.398438 1.753906 25.457031 1.765625 C 25.535156 1.773438 25.601562 1.796875 25.667969 1.796875 C 25.734375 1.808594 25.8125 1.816406 25.878906 1.796875 C 25.96875 1.773438 26.046875 1.71875 26.070312 1.613281 C 26.082031 1.558594 26.082031 1.503906 26.070312 1.4375 C 26.125 1.449219 26.203125 1.472656 26.28125 1.503906 C 26.527344 1.613281 26.617188 1.753906 26.585938 1.851562 C 26.550781 1.925781 26.4375 2 26.4375 2 L 26.273438 2.109375 C 26.273438 2.109375 26.449219 2.238281 26.449219 2.238281 C 26.460938 2.25 26.472656 2.25 26.484375 2.273438 C 26.515625 2.304688 26.550781 2.347656 26.585938 2.402344 C 26.683594 2.585938 26.910156 2.519531 26.996094 2.476562 C 27.085938 2.425781 27.1875 2.328125 27.222656 2.195312 C 27.332031 2.316406 27.445312 2.511719 27.457031 2.652344 C 27.46875 2.769531 27.433594 2.910156 27.378906 2.953125 C 27.355469 2.964844 27.242188 2.988281 27.222656 2.988281 L 27.007812 3.007812 C 27.007812 3.007812 27.121094 3.214844 27.132812 3.257812 C 27.144531 3.300781 27.152344 3.375 27.152344 3.460938 C 27.144531 3.699219 27.378906 3.742188 27.5 3.722656 C 27.601562 3.710938 27.703125 3.65625 27.789062 3.570312 C 27.800781 3.59375 27.8125 3.601562 27.824219 3.636719 C 27.890625 3.789062 27.925781 3.992188 27.878906 4.144531 C 27.859375 4.230469 27.722656 4.351562 27.691406 4.359375 C 27.679688 4.359375 27.667969 4.359375 27.632812 4.359375 C 27.613281 4.359375 27.578125 4.359375 27.554688 4.351562 C 27.523438 4.351562 27.488281 4.339844 27.46875 4.339844 C 27.332031 4.351562 27.300781 4.425781 27.3125 4.511719 C 27.3125 4.542969 27.320312 4.578125 27.320312 4.609375 C 27.320312 4.640625 27.320312 4.675781 27.3125 4.738281 C 27.277344 5.171875 27.65625 5.171875 27.914062 5.042969 C 27.925781 5.109375 27.9375 5.183594 27.925781 5.269531 C 27.925781 5.390625 27.902344 5.507812 27.859375 5.59375 C 27.8125 5.679688 27.769531 5.714844 27.722656 5.722656 C 27.625 5.746094 27.578125 5.722656 27.566406 5.714844 C 27.378906 5.617188 27.320312 5.679688 27.300781 5.789062 C 27.300781 5.8125 27.289062 5.820312 27.289062 5.855469 C 27.277344 5.875 27.265625 5.910156 27.253906 5.953125 C 27.144531 6.167969 27.242188 6.339844 27.445312 6.382812 C 27.535156 6.40625 27.644531 6.394531 27.746094 6.363281 C 27.746094 6.417969 27.734375 6.492188 27.710938 6.570312 C 27.644531 6.796875 27.523438 6.9375 27.355469 6.914062 C 27.355469 6.914062 27.34375 6.914062 27.332031 6.902344 C 27.3125 6.894531 27.300781 6.882812 27.277344 6.871094 C 27.253906 6.851562 27.222656 6.839844 27.199219 6.816406 C 27.164062 6.796875 27.121094 6.785156 27.066406 6.785156 C 27.019531 6.785156 26.929688 6.816406 26.898438 6.925781 C 26.886719 6.96875 26.875 7.011719 26.875 7.054688 C 26.863281 7.152344 26.863281 7.273438 26.886719 7.390625 C 26.910156 7.511719 26.929688 7.640625 26.996094 7.746094 C 27.054688 7.855469 27.164062 7.964844 27.332031 7.964844 C 27.398438 7.933594 27.410156 7.941406 27.421875 7.941406 M 7.332031 1.234375 C 7.277344 1.363281 7.324219 1.484375 7.433594 1.558594 C 7.480469 1.589844 7.535156 1.613281 7.578125 1.632812 C 7.625 1.65625 7.667969 1.667969 7.726562 1.675781 C 7.804688 1.699219 7.925781 1.71875 8.039062 1.753906 C 8.148438 1.785156 8.171875 1.816406 8.183594 1.839844 L 8.183594 1.859375 C 8.183594 1.882812 8.183594 1.90625 8.171875 1.925781 C 8.160156 1.980469 8.148438 2.035156 8.136719 2.078125 L 8.09375 2.230469 L 8.261719 2.25 C 8.394531 2.273438 8.472656 2.285156 8.484375 2.285156 C 8.519531 2.292969 8.539062 2.316406 8.5625 2.335938 C 8.574219 2.347656 8.597656 2.359375 8.609375 2.378906 C 8.617188 2.390625 8.640625 2.414062 8.652344 2.425781 C 8.6875 2.457031 8.71875 2.488281 8.765625 2.519531 C 8.808594 2.554688 8.863281 2.585938 8.941406 2.597656 C 9 2.609375 9.253906 2.617188 9.324219 2.628906 C 9.421875 2.640625 9.535156 2.660156 9.648438 2.695312 L 9.769531 2.726562 L 9.8125 2.609375 C 9.96875 2.25 10.148438 2.097656 10.273438 2.054688 C 10.339844 2.035156 10.382812 2.023438 10.417969 2.035156 C 10.429688 2.035156 10.441406 2.035156 10.449219 2.046875 C 10.449219 2.035156 10.441406 2.035156 10.429688 2.023438 L 10.675781 2.023438 C 10.695312 1.992188 10.832031 1.925781 11.019531 1.925781 C 11.109375 1.925781 11.175781 1.9375 11.222656 1.949219 C 11.246094 1.957031 11.253906 1.96875 11.253906 1.96875 C 11.78125 1.9375 12.027344 2.1875 11.914062 2.402344 C 11.882812 2.46875 11.847656 2.511719 11.8125 2.554688 C 11.792969 2.574219 11.78125 2.597656 11.757812 2.609375 C 11.734375 2.628906 11.726562 2.640625 11.703125 2.660156 C 11.679688 2.683594 11.65625 2.695312 11.644531 2.714844 C 11.625 2.738281 11.601562 2.757812 11.589844 2.78125 C 11.558594 2.835938 11.523438 2.898438 11.523438 2.976562 L 11.523438 3.074219 L 11.625 3.105469 C 12.015625 3.246094 12.082031 3.496094 11.78125 3.691406 C 11.667969 3.765625 11.566406 3.832031 11.480469 3.894531 C 11.390625 3.960938 11.324219 4.003906 11.253906 4.035156 C 11.132812 4.101562 11.03125 4.113281 10.886719 4.035156 L 10.796875 3.992188 L 10.71875 4.058594 C 10.363281 4.359375 10.195312 4.695312 10.105469 5.0625 L 10.039062 5.355469 L 10.316406 5.226562 C 10.382812 5.195312 10.441406 5.171875 10.507812 5.140625 C 12.683594 4.21875 12.574219 4.96875 12.519531 5.203125 L 12.496094 5.300781 L 12.585938 5.355469 C 12.683594 5.410156 12.773438 5.605469 12.773438 5.8125 C 12.765625 5.996094 12.683594 6.113281 12.472656 6.113281 L 12.351562 6.113281 L 12.339844 6.242188 C 12.316406 6.449219 11.925781 6.601562 11.566406 6.363281 L 11.5 6.320312 L 11.421875 6.351562 C 11.222656 6.425781 10.988281 6.492188 10.796875 6.492188 L 10.730469 6.492188 L 10.6875 6.535156 C 10.527344 6.6875 10.382812 6.914062 10.226562 7.152344 C 10.070312 7.390625 9.914062 7.671875 9.734375 7.933594 C 9.378906 8.472656 9.007812 8.925781 8.585938 9.066406 L 8.527344 9.089844 L 8.507812 9.144531 C 8.371094 9.425781 8.171875 9.640625 7.992188 9.769531 C 7.589844 10.074219 6.765625 10.863281 6.765625 11.644531 L 6.765625 11.785156 L 6.910156 11.785156 C 8.039062 11.785156 8.160156 12.453125 8.160156 12.84375 C 8.160156 13.332031 7.804688 13.65625 7.390625 13.914062 C 7.175781 14.046875 6.976562 14.152344 6.820312 14.242188 C 6.742188 14.285156 6.664062 14.335938 6.609375 14.382812 C 6.550781 14.425781 6.484375 14.5 6.484375 14.597656 C 6.484375 15.042969 7.871094 15.875 8.160156 15.875 C 8.585938 15.875 8.796875 16.113281 8.863281 16.199219 C 9.167969 16.566406 9.109375 17.238281 8.539062 17.238281 L 8.484375 17.238281 L 8.429688 17.292969 C 8.417969 17.304688 8.40625 17.304688 8.394531 17.3125 C 8.363281 17.335938 8.304688 17.367188 8.226562 17.390625 C 8.070312 17.433594 7.8125 17.453125 7.421875 17.3125 L 7.355469 17.292969 L 7.289062 17.335938 C 7.097656 17.453125 6.628906 17.421875 6.519531 17.226562 L 6.449219 17.117188 L 6.328125 17.164062 C 6.136719 17.238281 5.871094 17.269531 5.691406 17.28125 C 5.648438 17.28125 5.613281 17.269531 5.578125 17.207031 C 5.523438 17.109375 5.46875 16.96875 5.378906 16.792969 C 5.175781 16.414062 4.808594 15.875 3.902344 15.246094 C 3.546875 14.996094 3.535156 14.890625 3.558594 14.804688 C 3.578125 14.738281 3.625 14.664062 3.726562 14.542969 C 3.824219 14.425781 3.949219 14.292969 4.09375 14.132812 C 4.460938 13.722656 4.507812 13.300781 4.382812 12.953125 L 4.371094 12.910156 L 4.339844 12.886719 C 4.273438 12.832031 4.214844 12.78125 4.160156 12.738281 C 4.128906 12.703125 4.09375 12.671875 4.070312 12.640625 L 4.015625 12.574219 L 3.9375 12.585938 C 3.445312 12.671875 2.976562 12.605469 2.765625 12.542969 C 1.457031 12.195312 1.097656 10.820312 1.636719 9.71875 C 1.734375 9.511719 1.859375 9.304688 1.980469 9.109375 C 2.105469 8.917969 2.226562 8.742188 2.304688 8.625 C 2.53125 8.265625 2.6875 7.867188 2.664062 7.28125 C 2.652344 7.085938 2.628906 6.894531 2.574219 6.710938 L 2.539062 6.601562 L 2.429688 6.601562 C 2.058594 6.601562 1.9375 6.4375 1.847656 6.210938 C 1.792969 6.082031 1.757812 5.941406 1.703125 5.820312 C 1.648438 5.691406 1.558594 5.550781 1.390625 5.464844 C 1.355469 5.441406 1.34375 5.433594 1.34375 5.421875 C 1.34375 5.410156 1.34375 5.410156 1.34375 5.398438 C 1.480469 5.195312 1.960938 5 2.148438 5 C 2.539062 5 2.808594 5.03125 3.054688 5.269531 C 3.289062 5.496094 3.355469 5.746094 3.355469 5.984375 C 3.355469 6.191406 3.265625 6.375 3.097656 6.480469 L 3.019531 6.535156 L 3.042969 6.632812 C 3.167969 7.207031 3.253906 8.105469 2.707031 8.894531 C 2.292969 9.5 1.679688 10.386719 1.992188 11.210938 C 2.195312 11.75 2.773438 12.128906 3.601562 12.054688 L 3.734375 12.042969 L 3.746094 11.902344 C 3.726562 11.425781 3.949219 10.90625 4.382812 10.421875 C 4.808594 9.945312 5.234375 9.023438 5.300781 8.34375 L 5.3125 8.179688 L 5.144531 8.179688 C 4.941406 8.191406 4.71875 8.074219 4.609375 7.953125 C 4.597656 7.941406 4.585938 7.933594 4.574219 7.921875 L 4.617188 7.921875 C 4.785156 7.921875 4.886719 7.8125 4.953125 7.703125 C 5.011719 7.597656 5.042969 7.464844 5.066406 7.347656 C 5.089844 7.25 5.089844 7.121094 5.078125 7.035156 C 5.078125 6.992188 5.066406 6.9375 5.054688 6.902344 C 5.019531 6.796875 4.933594 6.761719 4.886719 6.761719 C 4.832031 6.761719 4.785156 6.785156 4.753906 6.796875 C 4.730469 6.804688 4.695312 6.828125 4.675781 6.851562 C 4.652344 6.859375 4.640625 6.871094 4.617188 6.882812 C 4.609375 6.894531 4.597656 6.894531 4.597656 6.894531 C 4.429688 6.902344 4.304688 6.773438 4.238281 6.546875 C 4.214844 6.472656 4.207031 6.394531 4.207031 6.339844 C 4.304688 6.375 4.417969 6.382812 4.507812 6.363281 C 4.707031 6.320312 4.808594 6.15625 4.695312 5.929688 C 4.675781 5.886719 4.664062 5.863281 4.664062 5.832031 C 4.652344 5.8125 4.652344 5.789062 4.652344 5.769531 C 4.628906 5.660156 4.574219 5.59375 4.382812 5.691406 C 4.371094 5.703125 4.328125 5.714844 4.226562 5.703125 C 4.183594 5.691406 4.136719 5.660156 4.09375 5.574219 C 4.050781 5.484375 4.027344 5.367188 4.027344 5.25 C 4.027344 5.160156 4.027344 5.085938 4.039062 5.019531 C 4.285156 5.152344 4.675781 5.152344 4.640625 4.71875 C 4.640625 4.664062 4.628906 4.621094 4.628906 4.589844 C 4.628906 4.554688 4.628906 4.535156 4.640625 4.492188 C 4.652344 4.402344 4.617188 4.328125 4.484375 4.316406 C 4.460938 4.316406 4.429688 4.316406 4.394531 4.328125 C 4.363281 4.328125 4.339844 4.328125 4.304688 4.328125 C 4.285156 4.328125 4.261719 4.328125 4.25 4.328125 C 4.207031 4.316406 4.082031 4.199219 4.058594 4.113281 C 4.015625 3.960938 4.050781 3.753906 4.117188 3.601562 C 4.128906 3.582031 4.136719 3.558594 4.148438 3.539062 C 4.226562 3.625 4.339844 3.667969 4.441406 3.691406 C 4.5625 3.710938 4.796875 3.667969 4.785156 3.429688 C 4.785156 3.332031 4.796875 3.269531 4.808594 3.226562 C 4.820312 3.191406 4.933594 2.976562 4.933594 2.976562 L 4.71875 2.953125 C 4.695312 2.953125 4.585938 2.933594 4.5625 2.921875 C 4.507812 2.878906 4.472656 2.738281 4.484375 2.617188 C 4.496094 2.476562 4.609375 2.285156 4.71875 2.175781 C 4.753906 2.304688 4.851562 2.402344 4.941406 2.445312 C 5.03125 2.5 5.253906 2.566406 5.355469 2.371094 C 5.390625 2.304688 5.421875 2.261719 5.457031 2.238281 C 5.46875 2.230469 5.480469 2.21875 5.492188 2.207031 C 5.492188 1.96875 5.378906 1.894531 5.355469 1.808594 C 5.324219 1.710938 5.410156 1.570312 5.65625 1.460938 C 5.734375 1.429688 5.8125 1.40625 5.871094 1.394531 C 5.859375 1.460938 5.859375 1.515625 5.871094 1.570312 C 5.890625 1.675781 5.972656 1.730469 6.058594 1.753906 C 6.128906 1.765625 6.214844 1.765625 6.273438 1.753906 C 6.339844 1.742188 6.40625 1.730469 6.484375 1.71875 C 6.539062 1.710938 6.597656 1.710938 6.628906 1.710938 C 6.664062 1.710938 6.964844 1.742188 6.964844 1.742188 C 6.964844 1.742188 6.820312 1.484375 6.796875 1.4375 C 6.785156 1.417969 6.785156 1.40625 6.785156 1.394531 L 6.796875 1.394531 C 6.832031 1.375 6.863281 1.363281 6.898438 1.351562 C 6.988281 1.320312 7.097656 1.289062 7.199219 1.265625 C 7.265625 1.246094 7.3125 1.234375 7.332031 1.234375 "/>
</clipPath>
<clipPath id="clip9">
  <path d="M 1 0 L 31 0 L 31 24 L 1 24 Z M 1 0 "/>
</clipPath>
<clipPath id="clip10">
  <path d="M 1.972656 6.070312 C 2.070312 6.332031 2.136719 6.40625 2.640625 6.394531 C 2.730469 6.664062 2.785156 6.992188 2.785156 7.183594 C 2.808594 7.800781 2.652344 8.222656 2.417969 8.601562 C 2.339844 8.722656 2.214844 8.894531 2.09375 9.089844 C 1.972656 9.273438 1.847656 9.480469 1.757812 9.675781 C 1.246094 10.734375 1.601562 12 2.808594 12.367188 C 2.988281 12.421875 3.378906 12.476562 3.804688 12.421875 C 3.734375 12.3125 3.691406 12.195312 3.667969 12.078125 C 2.785156 12.164062 2.128906 11.773438 1.894531 11.15625 C 1.714844 10.703125 1.804688 10.238281 1.980469 9.824219 C 2.148438 9.414062 2.40625 9.035156 2.617188 8.722656 C 3.132812 7.976562 3.066406 7.085938 2.886719 6.339844 C 3.054688 6.253906 3.234375 6.191406 3.234375 5.886719 C 3.234375 5.671875 3.1875 5.453125 2.976562 5.269531 C 2.519531 4.847656 1.792969 5.117188 1.535156 5.300781 C 1.679688 5.398438 1.757812 5.539062 1.816406 5.660156 C 1.882812 5.789062 1.914062 5.929688 1.972656 6.070312 Z M 7.960938 8.753906 C 8.050781 8.839844 8.171875 8.894531 8.339844 8.894531 C 8.71875 8.894531 9.097656 8.546875 9.5 7.941406 C 9.703125 7.660156 9.882812 7.347656 10.046875 7.078125 C 10.214844 6.804688 10.394531 6.535156 10.574219 6.351562 L 10.664062 6.253906 C 11 6.296875 11.511719 6.070312 11.511719 6.070312 L 11.644531 6.15625 C 11.757812 6.234375 11.914062 6.253906 12.039062 6.242188 C 12.136719 6.234375 12.171875 6.179688 12.183594 6.101562 C 12.207031 5.953125 12.070312 5.84375 11.980469 5.800781 C 11.804688 5.714844 11.9375 5.464844 12.105469 5.539062 C 12.105469 5.539062 12.304688 5.617188 12.441406 5.886719 C 12.585938 5.898438 12.597656 5.820312 12.605469 5.734375 C 12.628906 5.5625 12.519531 5.269531 12.046875 5.269531 C 11.859375 5.28125 11.835938 5 12.027344 4.988281 C 12.027344 4.988281 12.226562 4.976562 12.363281 5.03125 C 12.382812 4.902344 12.328125 4.835938 12.273438 4.816406 C 12.105469 4.75 11.644531 4.75 10.550781 5.214844 C 10.304688 5.324219 9.792969 5.625 9.289062 5.800781 C 9.402344 5.929688 9.566406 5.996094 9.734375 5.863281 C 10.003906 5.660156 9.949219 6.730469 9.535156 6.796875 C 9.378906 6.816406 9.265625 6.730469 9.265625 6.730469 C 9.265625 6.730469 9.246094 6.859375 9.210938 6.9375 C 9.121094 7.109375 9.15625 7.316406 9.445312 7.292969 C 9.445312 7.628906 9.144531 8.09375 8.640625 7.921875 C 8.285156 7.800781 8.429688 7.28125 8.039062 7.347656 C 8.027344 7.347656 7.980469 7.53125 8.003906 7.769531 C 8.058594 8.472656 8.351562 8.3125 8.371094 8.386719 C 8.429688 8.546875 8.214844 8.710938 7.960938 8.753906 Z M 8.273438 9.175781 C 7.882812 9.15625 7.667969 8.960938 7.558594 8.710938 C 7.34375 8.636719 7.175781 8.453125 7.144531 8.117188 C 7.109375 7.800781 7.300781 7.390625 6.964844 7.390625 C 6.910156 7.390625 6.851562 7.640625 6.820312 7.757812 C 6.652344 8.515625 7.03125 8.3125 6.886719 8.472656 C 6.640625 8.742188 5.8125 8.6875 5.902344 7.898438 C 5.925781 7.671875 6.160156 7.25 5.914062 7.25 C 5.746094 7.25 5.769531 7.855469 5.46875 8.117188 C 5.445312 8.917969 4.921875 9.964844 4.507812 10.421875 C 3.804688 11.199219 3.703125 12.011719 4.273438 12.5625 C 4.351562 12.640625 4.472656 12.738281 4.585938 12.832031 C 4.707031 12.941406 4.851562 13.0625 4.964844 13.203125 C 5.199219 13.492188 5.378906 13.925781 4.976562 14.347656 C 4.875 14.445312 4.796875 14.542969 4.71875 14.628906 C 4.539062 14.824219 4.664062 14.890625 4.820312 14.996094 C 5.492188 15.453125 5.882812 15.851562 6.148438 16.210938 C 6.285156 16.382812 6.371094 16.546875 6.449219 16.695312 C 6.519531 16.835938 6.585938 16.96875 6.640625 17.085938 C 6.6875 17.164062 7.03125 17.28125 7.289062 17.085938 C 7.300781 16.925781 7.234375 16.75 7.132812 16.609375 C 7.019531 16.449219 7.265625 16.273438 7.390625 16.4375 C 7.523438 16.621094 7.636719 16.914062 7.601562 17.152344 C 7.882812 17.25 8.117188 17.238281 8.304688 17.128906 C 8.339844 16.847656 8.261719 16.652344 8.160156 16.523438 C 8.039062 16.363281 8.285156 16.1875 8.40625 16.339844 C 8.539062 16.511719 8.628906 16.773438 8.628906 17.011719 C 8.796875 16.988281 8.851562 16.890625 8.875 16.761719 C 8.910156 16.566406 8.832031 16.328125 8.742188 16.222656 C 8.6875 16.15625 8.519531 15.960938 8.171875 15.960938 C 7.847656 15.960938 6.339844 15.09375 6.339844 14.53125 C 6.339844 14.359375 6.460938 14.25 6.519531 14.195312 C 6.585938 14.132812 6.675781 14.078125 6.753906 14.035156 C 6.910156 13.949219 7.109375 13.839844 7.324219 13.710938 C 7.734375 13.449219 8.027344 13.167969 8.027344 12.769531 C 8.027344 12.421875 7.914062 11.945312 7.175781 11.882812 C 7.019531 11.871094 6.484375 11.816406 6.136719 11.988281 C 5.960938 12.078125 5.792969 11.859375 5.960938 11.75 C 5.960938 11.75 6.148438 11.621094 6.628906 11.566406 C 6.628906 10.703125 7.511719 9.867188 7.925781 9.578125 C 8.027344 9.488281 8.160156 9.347656 8.273438 9.175781 Z M 4.585938 13.222656 C 4.597656 13.527344 4.484375 13.851562 4.195312 14.175781 C 4.050781 14.335938 3.914062 14.46875 3.824219 14.585938 C 3.648438 14.804688 3.636719 14.835938 3.980469 15.085938 C 4.910156 15.734375 5.289062 16.273438 5.5 16.6875 C 5.636719 16.957031 5.679688 17.109375 5.734375 17.109375 C 5.847656 17.097656 5.960938 17.085938 6.09375 17.054688 C 6.160156 17.042969 6.214844 17.023438 6.261719 17 C 6.050781 16.554688 5.734375 15.992188 4.664062 15.269531 C 4.070312 14.867188 4.363281 14.609375 4.773438 14.175781 C 5.097656 13.820312 4.875 13.492188 4.585938 13.222656 Z M 9.5 4.457031 L 8.550781 4.457031 L 8.550781 3.742188 C 8.550781 3.742188 9.3125 3.742188 9.535156 3.722656 C 9.589844 3.710938 9.679688 3.710938 9.792969 3.734375 C 9.804688 3.734375 9.847656 3.734375 9.847656 3.710938 C 9.871094 3.582031 9.859375 3.300781 9.859375 3.300781 C 9.859375 3.300781 10.027344 3.136719 10.027344 2.855469 C 9.769531 2.757812 9.5 2.683594 9.300781 2.660156 C 9.222656 2.652344 8.976562 2.640625 8.921875 2.628906 C 8.820312 2.617188 8.753906 2.574219 8.695312 2.542969 C 8.652344 2.511719 8.519531 2.335938 8.441406 2.316406 C 7.882812 2.1875 7.265625 2.25 7.121094 2.273438 C 6.929688 2.316406 6.886719 2.476562 6.886719 2.476562 C 6.785156 2.476562 6.550781 2.476562 6.460938 2.5 C 6.351562 2.519531 6.304688 2.53125 6.304688 2.597656 C 6.304688 2.726562 6.628906 2.921875 6.628906 2.921875 C 6.628906 2.921875 6.5625 3.300781 6.441406 3.625 C 6.417969 3.699219 6.417969 3.753906 6.472656 3.894531 C 6.5625 4.089844 6.773438 4.199219 7.066406 4.242188 C 7.277344 4.273438 7.546875 4.597656 7.679688 4.652344 C 7.757812 4.683594 8.273438 4.675781 8.460938 4.675781 C 8.851562 4.664062 9.253906 4.632812 9.390625 4.597656 C 9.445312 4.597656 9.480469 4.511719 9.5 4.457031 Z M 8.6875 4.933594 C 8.214844 4.957031 7.691406 4.96875 7.558594 4.902344 C 7.289062 4.761719 7.144531 4.542969 7.011719 4.511719 C 6.707031 4.457031 6.363281 4.339844 6.214844 4.015625 C 6.050781 3.636719 6.214844 3.550781 6.328125 3.050781 C 5.949219 2.769531 5.972656 2.511719 6.160156 2.347656 C 6.238281 2.285156 6.496094 2.238281 6.730469 2.238281 C 6.796875 1.980469 7.480469 1.96875 7.980469 2 C 7.992188 1.957031 8.003906 1.914062 8.015625 1.882812 C 8.039062 1.816406 8.039062 1.796875 7.925781 1.773438 C 7.691406 1.730469 7.558594 1.6875 7.390625 1.601562 C 7.246094 1.527344 7.167969 1.386719 7.1875 1.308594 C 7.222656 1.234375 6.976562 1.308594 6.941406 1.351562 C 6.898438 1.429688 7.109375 1.730469 7.109375 1.730469 C 7.109375 1.730469 6.820312 1.710938 6.640625 1.71875 C 6.382812 1.730469 6.226562 1.796875 6.050781 1.773438 C 5.835938 1.753906 5.714844 1.589844 5.726562 1.472656 C 5.734375 1.394531 5.445312 1.601562 5.457031 1.675781 C 5.46875 1.742188 5.558594 1.851562 5.804688 2 C 5.390625 2.238281 5.492188 2.519531 5.132812 2.53125 C 5.03125 2.53125 4.742188 2.457031 4.71875 2.316406 C 4.695312 2.230469 4.507812 2.554688 4.617188 2.726562 C 4.675781 2.8125 4.742188 2.800781 5.042969 2.824219 C 4.921875 3.050781 4.910156 3.160156 4.910156 3.355469 C 4.910156 3.539062 4.851562 3.601562 4.695312 3.691406 C 4.597656 3.753906 4.351562 3.789062 4.207031 3.648438 C 4.160156 3.601562 4.128906 3.90625 4.160156 3.992188 C 4.195312 4.078125 4.25 4.121094 4.394531 4.121094 C 4.617188 4.113281 4.742188 4.070312 4.742188 4.113281 C 4.730469 4.230469 4.730469 4.414062 4.753906 4.71875 C 4.773438 5.054688 4.394531 5.203125 4.136719 5.074219 C 4.070312 5.042969 4.136719 5.476562 4.261719 5.484375 C 4.496094 5.507812 4.707031 5.300781 4.71875 5.367188 C 4.773438 5.714844 4.851562 5.746094 4.875 5.917969 C 4.933594 6.308594 4.53125 6.417969 4.394531 6.351562 C 4.292969 6.308594 4.429688 6.730469 4.628906 6.65625 C 4.695312 6.621094 4.796875 6.546875 4.886719 6.546875 C 5.03125 6.546875 5.121094 6.601562 5.1875 6.785156 C 5.222656 6.882812 5.234375 7.085938 5.199219 7.292969 C 5.175781 7.421875 5.15625 7.554688 5.078125 7.683594 C 5.03125 7.757812 4.953125 7.835938 4.875 7.855469 C 4.742188 7.886719 5.097656 8.050781 5.277344 7.941406 C 5.421875 7.867188 5.523438 7.335938 5.558594 7.273438 C 5.648438 7.066406 5.792969 7 5.914062 7 C 6.09375 7 6.238281 7.109375 6.285156 7.273438 C 6.316406 7.378906 6.292969 7.5 6.273438 7.5625 C 6.261719 7.640625 6.183594 7.898438 6.171875 7.941406 C 6.070312 8.40625 6.597656 8.417969 6.539062 8.363281 C 6.460938 8.277344 6.472656 8.007812 6.539062 7.714844 C 6.550781 7.652344 6.617188 7.414062 6.675781 7.316406 C 6.765625 7.175781 6.886719 7.132812 6.964844 7.132812 C 7.378906 7.132812 7.445312 7.445312 7.445312 7.628906 C 7.445312 7.703125 7.421875 8.027344 7.421875 8.09375 C 7.421875 8.636719 8.136719 8.496094 8.015625 8.441406 C 7.871094 8.375 7.792969 8.167969 7.746094 7.769531 C 7.714844 7.445312 7.804688 7.109375 7.835938 7.097656 C 8.128906 7.011719 8.417969 7 8.597656 7.347656 C 8.640625 7.433594 8.6875 7.585938 8.742188 7.628906 C 8.863281 7.726562 9.097656 7.628906 9.15625 7.476562 C 8.886719 7.402344 8.875 7.035156 9 6.796875 C 9.054688 6.6875 9.097656 6.535156 9.132812 6.363281 C 9.175781 6.40625 9.421875 6.578125 9.546875 6.546875 C 9.636719 6.515625 9.734375 6.136719 9.636719 6.191406 C 9.421875 6.296875 9.175781 6.050781 9.089844 5.929688 C 9.042969 5.863281 8.929688 5.734375 8.921875 5.476562 C 8.910156 5.300781 8.886719 5.085938 8.6875 4.933594 Z M 9.9375 5.195312 C 10.003906 4.730469 10.171875 4.273438 10.640625 3.882812 L 10.785156 3.753906 L 10.964844 3.839844 C 11.066406 3.882812 11.109375 3.882812 11.199219 3.839844 C 11.253906 3.808594 11.324219 3.777344 11.410156 3.710938 C 11.5 3.648438 11.601562 3.570312 11.726562 3.507812 C 11.949219 3.367188 11.859375 3.257812 11.613281 3.171875 L 11.402344 3.09375 L 11.402344 2.933594 C 11.402344 2.671875 11.523438 2.566406 11.625 2.476562 C 11.644531 2.457031 11.847656 2.304688 11.8125 2.195312 C 11.78125 2.066406 11.5 2.109375 11.5 2.109375 C 11.378906 2.140625 11.277344 2.328125 11.234375 2.414062 C 11.15625 2.597656 10.863281 2.476562 10.953125 2.292969 C 10.953125 2.292969 11.03125 2.121094 11.144531 2 C 11.132812 1.9375 10.886719 1.957031 10.808594 2.011719 C 10.742188 2.097656 10.6875 2.230469 10.664062 2.304688 C 10.628906 2.5 10.328125 2.445312 10.363281 2.25 C 10.363281 2.25 10.382812 2.164062 10.429688 2.078125 C 10.285156 2.066406 10.117188 2.238281 9.96875 2.554688 C 10.082031 2.585938 10.183594 2.628906 10.285156 2.660156 C 10.339844 2.921875 10.285156 3.179688 10.128906 3.367188 C 10.128906 3.636719 10.148438 4.027344 9.824219 3.980469 C 9.757812 3.972656 9.636719 3.960938 9.566406 3.960938 C 9.332031 3.992188 8.988281 3.980469 8.820312 3.980469 L 8.820312 4.1875 L 9.78125 4.1875 C 9.882812 4.285156 9.714844 4.792969 9.445312 4.847656 C 9.367188 4.859375 9.222656 4.878906 9.042969 4.890625 C 9.175781 5.097656 9.1875 5.355469 9.210938 5.507812 C 9.46875 5.421875 9.714844 5.300781 9.9375 5.195312 Z M 22.082031 5.195312 C 22.304688 5.300781 22.539062 5.433594 22.808594 5.53125 C 22.820312 5.378906 22.839844 5.117188 22.976562 4.914062 C 22.796875 4.902344 22.652344 4.878906 22.574219 4.871094 C 22.304688 4.828125 22.136719 4.316406 22.238281 4.210938 L 23.199219 4.210938 L 23.199219 4.003906 C 23.03125 4.003906 22.683594 4.003906 22.449219 3.980469 C 22.382812 3.972656 22.261719 3.992188 22.195312 4.003906 C 21.878906 4.046875 21.890625 3.65625 21.890625 3.386719 C 21.734375 3.203125 21.691406 2.933594 21.734375 2.683594 C 21.835938 2.640625 21.9375 2.609375 22.046875 2.574219 C 21.902344 2.261719 21.734375 2.089844 21.589844 2.097656 C 21.636719 2.1875 21.65625 2.273438 21.65625 2.273438 C 21.691406 2.46875 21.390625 2.519531 21.355469 2.328125 C 21.34375 2.25 21.289062 2.121094 21.210938 2.035156 C 21.132812 1.980469 20.875 1.957031 20.875 2.023438 C 20.988281 2.140625 21.066406 2.316406 21.066406 2.316406 C 21.144531 2.5 20.863281 2.609375 20.785156 2.433594 C 20.753906 2.347656 20.652344 2.164062 20.515625 2.132812 C 20.515625 2.132812 20.238281 2.089844 20.203125 2.21875 C 20.171875 2.328125 20.382812 2.488281 20.394531 2.5 C 20.507812 2.585938 20.617188 2.707031 20.617188 2.953125 L 20.617188 3.117188 L 20.40625 3.191406 C 20.160156 3.269531 20.070312 3.375 20.292969 3.527344 C 20.40625 3.601562 20.507812 3.679688 20.605469 3.734375 C 20.695312 3.796875 20.761719 3.839844 20.820312 3.863281 C 20.910156 3.90625 20.953125 3.90625 21.054688 3.863281 L 21.234375 3.777344 L 21.378906 3.90625 C 21.847656 4.273438 22.015625 4.730469 22.082031 5.195312 Z M 23.320312 4.933594 C 23.121094 5.085938 23.109375 5.3125 23.097656 5.484375 C 23.085938 5.734375 22.976562 5.875 22.929688 5.941406 C 22.839844 6.058594 22.585938 6.308594 22.382812 6.199219 C 22.28125 6.144531 22.382812 6.523438 22.472656 6.558594 C 22.59375 6.601562 22.839844 6.417969 22.886719 6.375 C 22.917969 6.546875 22.964844 6.699219 23.019531 6.804688 C 23.144531 7.042969 23.132812 7.414062 22.875 7.511719 C 22.929688 7.660156 23.164062 7.757812 23.289062 7.660156 C 23.34375 7.617188 23.390625 7.464844 23.433594 7.378906 C 23.613281 7.035156 23.902344 7.042969 24.195312 7.132812 C 24.214844 7.140625 24.316406 7.464844 24.28125 7.800781 C 24.238281 8.203125 24.148438 8.417969 24.015625 8.472656 C 23.890625 8.527344 24.605469 8.667969 24.605469 8.125 C 24.605469 8.0625 24.585938 7.738281 24.585938 7.660156 C 24.585938 7.476562 24.640625 7.164062 25.066406 7.164062 C 25.144531 7.164062 25.265625 7.207031 25.355469 7.347656 C 25.410156 7.433594 25.46875 7.671875 25.488281 7.746094 C 25.554688 8.039062 25.566406 8.3125 25.488281 8.398438 C 25.433594 8.453125 25.957031 8.441406 25.859375 7.976562 C 25.847656 7.933594 25.769531 7.660156 25.757812 7.597656 C 25.746094 7.53125 25.722656 7.414062 25.746094 7.304688 C 25.792969 7.140625 25.9375 7.035156 26.113281 7.035156 C 26.238281 7.035156 26.382812 7.097656 26.472656 7.304688 C 26.507812 7.378906 26.605469 7.898438 26.75 7.976562 C 26.929688 8.074219 27.289062 7.921875 27.152344 7.886719 C 27.074219 7.867188 26.996094 7.792969 26.953125 7.714844 C 26.886719 7.585938 26.851562 7.457031 26.832031 7.324219 C 26.796875 7.121094 26.820312 6.914062 26.839844 6.816406 C 26.898438 6.632812 26.996094 6.578125 27.144531 6.578125 C 27.230469 6.578125 27.332031 6.664062 27.398438 6.6875 C 27.601562 6.761719 27.734375 6.339844 27.632812 6.382812 C 27.488281 6.4375 27.097656 6.339844 27.152344 5.953125 C 27.175781 5.789062 27.253906 5.746094 27.3125 5.398438 C 27.320312 5.34375 27.535156 5.539062 27.769531 5.519531 C 27.890625 5.507812 27.957031 5.074219 27.890625 5.109375 C 27.632812 5.238281 27.253906 5.085938 27.277344 4.75 C 27.300781 4.4375 27.289062 4.253906 27.289062 4.144531 C 27.289062 4.101562 27.410156 4.144531 27.632812 4.15625 C 27.78125 4.15625 27.835938 4.113281 27.871094 4.027344 C 27.902344 3.9375 27.871094 3.636719 27.824219 3.679688 C 27.667969 3.820312 27.433594 3.789062 27.332031 3.722656 C 27.1875 3.636719 27.121094 3.570312 27.121094 3.386719 C 27.121094 3.191406 27.097656 3.085938 26.988281 2.855469 C 27.289062 2.835938 27.34375 2.847656 27.410156 2.757812 C 27.523438 2.597656 27.332031 2.261719 27.3125 2.347656 C 27.277344 2.5 26.996094 2.574219 26.898438 2.566406 C 26.539062 2.554688 26.640625 2.273438 26.226562 2.035156 C 26.460938 1.882812 26.5625 1.773438 26.574219 1.710938 C 26.585938 1.625 26.292969 1.429688 26.304688 1.503906 C 26.316406 1.625 26.203125 1.785156 25.980469 1.808594 C 25.800781 1.828125 25.644531 1.765625 25.390625 1.753906 C 25.210938 1.742188 24.917969 1.765625 24.917969 1.765625 C 24.917969 1.765625 25.132812 1.460938 25.085938 1.386719 C 25.066406 1.34375 24.820312 1.253906 24.839844 1.34375 C 24.863281 1.417969 24.785156 1.558594 24.640625 1.632812 C 24.472656 1.71875 24.339844 1.765625 24.105469 1.808594 C 23.992188 1.828125 23.992188 1.851562 24.015625 1.914062 C 24.027344 1.949219 24.035156 1.992188 24.046875 2.035156 C 24.550781 2 25.234375 2.011719 25.300781 2.273438 C 25.535156 2.273438 25.792969 2.316406 25.871094 2.378906 C 26.058594 2.53125 26.070312 2.800781 25.703125 3.085938 C 25.800781 3.59375 25.980469 3.667969 25.8125 4.046875 C 25.667969 4.371094 25.332031 4.492188 25.019531 4.542969 C 24.886719 4.566406 24.742188 4.792969 24.472656 4.933594 C 24.328125 4.957031 23.792969 4.957031 23.320312 4.933594 Z M 22.507812 4.457031 C 22.527344 4.511719 22.574219 4.597656 22.617188 4.609375 C 22.753906 4.640625 23.15625 4.664062 23.546875 4.683594 C 23.746094 4.695312 24.25 4.695312 24.328125 4.664062 C 24.460938 4.609375 24.730469 4.285156 24.941406 4.253906 C 25.234375 4.210938 25.445312 4.101562 25.535156 3.90625 C 25.601562 3.765625 25.601562 3.699219 25.566406 3.636719 C 25.445312 3.3125 25.378906 2.933594 25.378906 2.933594 C 25.378906 2.933594 25.710938 2.726562 25.703125 2.609375 C 25.703125 2.53125 25.65625 2.53125 25.546875 2.511719 C 25.445312 2.488281 25.222656 2.488281 25.121094 2.488281 C 25.121094 2.488281 25.074219 2.316406 24.886719 2.285156 C 24.742188 2.25 24.125 2.195312 23.566406 2.316406 C 23.5 2.328125 23.355469 2.511719 23.3125 2.542969 C 23.253906 2.585938 23.175781 2.617188 23.085938 2.628906 C 23.03125 2.640625 22.773438 2.660156 22.707031 2.660156 C 22.507812 2.683594 22.238281 2.757812 21.980469 2.855469 C 21.980469 3.136719 22.148438 3.300781 22.148438 3.300781 C 22.148438 3.300781 22.136719 3.582031 22.160156 3.710938 C 22.160156 3.734375 22.195312 3.742188 22.214844 3.734375 C 22.328125 3.710938 22.417969 3.722656 22.472656 3.722656 C 22.695312 3.742188 23.457031 3.742188 23.457031 3.742188 L 23.457031 4.457031 Z M 27.433594 13.222656 C 27.144531 13.503906 26.917969 13.828125 27.242188 14.164062 C 27.65625 14.597656 27.949219 14.855469 27.355469 15.257812 C 26.273438 15.984375 25.96875 16.554688 25.757812 16.988281 C 25.800781 17.011719 25.859375 17.023438 25.925781 17.042969 C 26.058594 17.074219 26.183594 17.085938 26.28125 17.097656 C 26.339844 17.097656 26.371094 16.945312 26.515625 16.675781 C 26.730469 16.273438 27.109375 15.722656 28.035156 15.074219 C 28.382812 14.835938 28.359375 14.792969 28.191406 14.574219 C 28.09375 14.457031 27.96875 14.328125 27.824219 14.164062 C 27.535156 13.851562 27.421875 13.527344 27.433594 13.222656 Z M 23.746094 9.175781 C 23.859375 9.347656 23.992188 9.480469 24.113281 9.566406 C 24.515625 9.867188 25.398438 10.691406 25.410156 11.558594 C 25.890625 11.601562 26.082031 11.742188 26.082031 11.742188 C 26.25 11.859375 26.082031 12.078125 25.902344 11.980469 C 25.554688 11.804688 25.019531 11.859375 24.863281 11.871094 C 24.125 11.9375 24.015625 12.410156 24.015625 12.757812 C 24.015625 13.160156 24.304688 13.449219 24.71875 13.699219 C 24.929688 13.828125 25.132812 13.9375 25.289062 14.023438 C 25.367188 14.066406 25.457031 14.121094 25.523438 14.1875 C 25.578125 14.242188 25.703125 14.347656 25.703125 14.523438 C 25.703125 15.09375 24.195312 15.949219 23.871094 15.949219 C 23.511719 15.949219 23.355469 16.144531 23.300781 16.210938 C 23.210938 16.316406 23.132812 16.554688 23.164062 16.75 C 23.1875 16.871094 23.242188 16.976562 23.410156 17 C 23.410156 16.761719 23.488281 16.503906 23.632812 16.328125 C 23.757812 16.167969 24.003906 16.351562 23.878906 16.511719 C 23.78125 16.632812 23.703125 16.835938 23.734375 17.117188 C 23.925781 17.226562 24.160156 17.238281 24.4375 17.140625 C 24.40625 16.914062 24.515625 16.609375 24.652344 16.425781 C 24.761719 16.265625 25.019531 16.4375 24.910156 16.597656 C 24.808594 16.730469 24.742188 16.914062 24.753906 17.074219 C 24.996094 17.269531 25.355469 17.152344 25.398438 17.074219 C 25.46875 16.957031 25.523438 16.828125 25.589844 16.6875 C 25.667969 16.535156 25.769531 16.371094 25.890625 16.199219 C 26.160156 15.84375 26.550781 15.441406 27.222656 14.988281 C 27.378906 14.878906 27.5 14.8125 27.320312 14.621094 C 27.242188 14.53125 27.152344 14.445312 27.066406 14.335938 C 26.664062 13.914062 26.839844 13.472656 27.074219 13.191406 C 27.1875 13.050781 27.332031 12.921875 27.457031 12.824219 C 27.566406 12.726562 27.691406 12.640625 27.769531 12.550781 C 28.339844 12.011719 28.238281 11.199219 27.535156 10.410156 C 27.121094 9.957031 26.59375 8.90625 26.574219 8.105469 C 26.273438 7.855469 26.292969 7.238281 26.125 7.238281 C 25.890625 7.238281 26.113281 7.660156 26.136719 7.886719 C 26.226562 8.679688 25.398438 8.734375 25.152344 8.460938 C 25.007812 8.300781 25.390625 8.496094 25.222656 7.746094 C 25.199219 7.628906 25.132812 7.378906 25.074219 7.378906 C 24.742188 7.378906 24.929688 7.792969 24.898438 8.105469 C 24.863281 8.441406 24.683594 8.625 24.484375 8.699219 C 24.351562 8.96875 24.136719 9.164062 23.746094 9.175781 Z M 24.058594 8.753906 C 23.800781 8.710938 23.589844 8.558594 23.625 8.386719 C 23.632812 8.3125 23.925781 8.472656 23.992188 7.769531 C 24.015625 7.53125 23.96875 7.347656 23.957031 7.347656 C 23.566406 7.28125 23.714844 7.800781 23.355469 7.921875 C 22.851562 8.09375 22.550781 7.628906 22.550781 7.292969 C 22.839844 7.304688 22.875 7.097656 22.785156 6.9375 C 22.753906 6.859375 22.730469 6.730469 22.730469 6.730469 C 22.730469 6.730469 22.605469 6.816406 22.460938 6.796875 C 22.046875 6.742188 21.992188 5.660156 22.261719 5.863281 C 22.429688 5.996094 22.59375 5.917969 22.707031 5.800781 C 22.214844 5.617188 21.691406 5.3125 21.445312 5.214844 C 20.351562 4.75 19.890625 4.75 19.722656 4.816406 C 19.667969 4.835938 19.613281 4.902344 19.636719 5.03125 C 19.769531 4.976562 19.96875 4.988281 19.96875 4.988281 C 20.160156 5 20.148438 5.28125 19.949219 5.269531 C 19.476562 5.269531 19.378906 5.574219 19.390625 5.734375 C 19.398438 5.820312 19.410156 5.898438 19.558594 5.886719 C 19.691406 5.625 19.890625 5.539062 19.890625 5.539062 C 20.070312 5.453125 20.195312 5.714844 20.015625 5.800781 C 19.925781 5.84375 19.792969 5.953125 19.8125 6.101562 C 19.824219 6.167969 19.859375 6.222656 19.957031 6.242188 C 20.082031 6.265625 20.238281 6.234375 20.351562 6.15625 L 20.484375 6.070312 C 20.484375 6.070312 20.996094 6.296875 21.332031 6.253906 L 21.421875 6.351562 C 21.601562 6.535156 21.78125 6.804688 21.949219 7.078125 C 22.117188 7.347656 22.292969 7.652344 22.496094 7.941406 C 22.910156 8.539062 23.289062 8.894531 23.65625 8.894531 C 23.847656 8.882812 23.96875 8.828125 24.058594 8.753906 Z M 30.046875 6.070312 C 30.105469 5.941406 30.136719 5.800781 30.191406 5.671875 C 30.25 5.550781 30.328125 5.410156 30.472656 5.3125 C 30.214844 5.128906 29.488281 4.859375 29.03125 5.28125 C 28.828125 5.464844 28.773438 5.679688 28.773438 5.898438 C 28.773438 6.199219 28.953125 6.265625 29.121094 6.351562 C 28.941406 7.097656 28.875 7.976562 29.390625 8.734375 C 29.601562 9.046875 29.859375 9.425781 30.027344 9.835938 C 30.191406 10.246094 30.28125 10.710938 30.113281 11.167969 C 29.878906 11.785156 29.230469 12.183594 28.339844 12.085938 C 28.304688 12.207031 28.261719 12.324219 28.203125 12.433594 C 28.628906 12.488281 29.019531 12.433594 29.199219 12.378906 C 30.40625 12.011719 30.75 10.746094 30.25 9.683594 C 30.148438 9.488281 30.027344 9.285156 29.914062 9.101562 C 29.789062 8.90625 29.667969 8.734375 29.589844 8.613281 C 29.355469 8.234375 29.1875 7.8125 29.222656 7.195312 C 29.230469 6.992188 29.277344 6.675781 29.367188 6.40625 C 29.867188 6.40625 29.9375 6.332031 30.046875 6.070312 Z M 16.003906 22.59375 C 17.320312 22.59375 18.40625 22.453125 19.34375 22.257812 C 20.292969 22.0625 21.085938 21.804688 21.824219 21.578125 C 23.265625 21.121094 24.574219 20.734375 26.273438 21.121094 C 26.574219 21.199219 26.574219 21.199219 26.628906 20.980469 L 27.320312 17.996094 C 27.367188 17.820312 27.367188 17.820312 27.132812 17.769531 C 25.109375 17.347656 23.445312 17.636719 21.757812 18.050781 C 20.863281 18.265625 19.980469 18.515625 19.054688 18.71875 C 18.105469 18.925781 17.097656 19.066406 16.015625 19.066406 C 14.921875 19.066406 13.925781 18.925781 12.976562 18.71875 C 12.046875 18.527344 11.167969 18.277344 10.273438 18.050781 C 8.574219 17.636719 6.910156 17.347656 4.898438 17.769531 C 4.675781 17.820312 4.675781 17.820312 4.707031 17.996094 L 5.402344 20.980469 C 5.445312 21.199219 5.457031 21.199219 5.757812 21.121094 C 7.46875 20.734375 8.765625 21.121094 10.207031 21.578125 C 10.941406 21.804688 11.734375 22.0625 12.683594 22.257812 C 13.601562 22.453125 14.683594 22.59375 16.003906 22.59375 Z M 12.484375 18.179688 C 10.304688 16.988281 8.832031 14.738281 8.832031 12.152344 C 8.832031 9.835938 10.003906 7.792969 11.8125 6.535156 C 11.703125 6.515625 11.578125 6.472656 11.480469 6.40625 C 11.277344 6.480469 11.019531 6.558594 10.808594 6.558594 C 10.261719 7.109375 9.613281 8.785156 8.6875 9.121094 C 8.539062 9.425781 8.328125 9.664062 8.128906 9.816406 C 7.726562 10.117188 6.953125 10.863281 6.953125 11.578125 C 8.207031 11.578125 8.351562 12.347656 8.351562 12.78125 C 8.351562 13.90625 6.664062 14.25 6.664062 14.542969 C 6.664062 14.867188 7.9375 15.679688 8.195312 15.679688 C 8.695312 15.679688 8.929688 15.960938 9.007812 16.058594 C 9.265625 16.371094 9.367188 17.164062 8.773438 17.304688 C 10.027344 17.507812 11.222656 17.875 12.484375 18.179688 Z M 23.1875 12.152344 C 23.1875 14.738281 21.714844 16.988281 19.535156 18.179688 C 20.796875 17.886719 21.992188 17.519531 23.253906 17.304688 C 22.664062 17.164062 22.761719 16.371094 23.019531 16.058594 C 23.097656 15.960938 23.34375 15.679688 23.835938 15.679688 C 24.09375 15.679688 25.367188 14.867188 25.367188 14.542969 C 25.367188 14.25 23.679688 13.90625 23.679688 12.78125 C 23.679688 12.359375 23.824219 11.578125 25.074219 11.578125 C 25.074219 10.863281 24.304688 10.117188 23.902344 9.816406 C 23.703125 9.664062 23.488281 9.425781 23.34375 9.121094 C 22.40625 8.785156 21.769531 7.109375 21.222656 6.558594 C 21.007812 6.558594 20.753906 6.480469 20.550781 6.40625 C 20.449219 6.472656 20.339844 6.515625 20.214844 6.535156 C 22.015625 7.792969 23.1875 9.835938 23.1875 12.152344 Z M 9.488281 12.152344 C 9.488281 15.613281 12.40625 18.429688 16.003906 18.429688 C 19.601562 18.429688 22.515625 15.613281 22.515625 12.152344 C 22.515625 8.6875 19.601562 5.875 16.003906 5.875 C 12.40625 5.875 9.488281 8.679688 9.488281 12.152344 Z M 20.507812 3.980469 L 20.328125 4.535156 C 20.640625 4.597656 21.042969 4.71875 21.566406 4.945312 C 21.636719 4.96875 21.691406 5 21.757812 5.03125 C 21.679688 4.683594 21.523438 4.371094 21.199219 4.101562 C 20.917969 4.21875 20.742188 4.144531 20.507812 3.980469 Z M 11.691406 4.535156 L 11.511719 3.980469 C 11.277344 4.144531 11.085938 4.21875 10.832031 4.089844 C 10.507812 4.359375 10.351562 4.675781 10.273438 5.019531 C 10.339844 4.988281 10.40625 4.957031 10.460938 4.933594 C 10.976562 4.71875 11.378906 4.589844 11.691406 4.535156 Z M 19.96875 2.425781 C 18.742188 1.957031 17.398438 1.699219 16.003906 1.699219 C 14.605469 1.699219 13.265625 1.957031 12.039062 2.425781 C 11.882812 2.695312 11.679688 2.714844 11.679688 2.898438 C 12.09375 3.039062 12.339844 3.417969 11.882812 3.722656 L 12.136719 4.492188 C 12.695312 4.511719 12.742188 4.878906 12.675781 5.171875 C 12.875 5.292969 12.988281 5.648438 12.898438 5.910156 C 13.835938 5.476562 14.898438 5.226562 16.003906 5.226562 C 17.121094 5.226562 18.171875 5.476562 19.109375 5.910156 C 19.019531 5.648438 19.144531 5.28125 19.332031 5.171875 C 19.265625 4.878906 19.3125 4.511719 19.871094 4.492188 L 20.125 3.722656 C 19.679688 3.417969 19.914062 3.039062 20.328125 2.898438 C 20.339844 2.714844 20.125 2.695312 19.96875 2.425781 Z M 12.027344 1.96875 C 13.265625 1.515625 14.605469 1.277344 16.015625 1.277344 C 17.421875 1.277344 18.761719 1.527344 20.003906 1.96875 C 20.148438 1.816406 20.429688 1.773438 20.617188 1.859375 C 20.652344 1.625 21.332031 1.667969 21.46875 1.851562 C 21.535156 1.753906 22.015625 1.699219 22.351562 2.46875 C 22.472656 2.433594 22.585938 2.414062 22.695312 2.402344 C 22.761719 2.390625 23.007812 2.378906 23.074219 2.371094 C 23.242188 2.347656 23.3125 2.140625 23.5 2.066406 C 23.535156 2.054688 23.625 2.035156 23.757812 2.023438 C 23.734375 1.925781 23.691406 1.773438 23.714844 1.710938 C 23.769531 1.515625 24.105469 1.503906 24.261719 1.449219 C 24.4375 1.394531 24.652344 1.332031 24.539062 1.15625 C 24.328125 0.832031 25.265625 1.070312 25.367188 1.210938 C 25.421875 1.296875 25.320312 1.460938 25.320312 1.460938 C 25.320312 1.460938 25.445312 1.449219 25.566406 1.472656 C 25.878906 1.515625 26.113281 1.613281 25.992188 1.234375 C 25.914062 0.984375 26.976562 1.320312 26.808594 1.765625 C 26.761719 1.894531 26.605469 1.992188 26.605469 1.992188 C 26.605469 1.992188 26.707031 2.054688 26.796875 2.207031 C 26.875 2.347656 27.164062 2.1875 27.164062 2 C 27.164062 1.625 27.65625 2.140625 27.691406 2.511719 C 27.703125 2.640625 27.679688 2.847656 27.554688 2.941406 C 27.5 2.988281 27.332031 3.007812 27.332031 3.007812 C 27.332031 3.007812 27.410156 3.128906 27.398438 3.34375 C 27.390625 3.539062 27.746094 3.484375 27.847656 3.269531 C 27.9375 3.09375 28.238281 3.667969 28.125 4.058594 C 28.09375 4.175781 27.925781 4.339844 27.824219 4.371094 C 27.710938 4.394531 27.554688 4.339844 27.554688 4.382812 C 27.566406 4.46875 27.566406 4.511719 27.554688 4.632812 C 27.535156 4.902344 27.8125 4.945312 28.027344 4.738281 C 28.191406 4.589844 28.292969 5.671875 27.847656 5.734375 C 27.578125 5.777344 27.546875 5.648438 27.535156 5.691406 C 27.523438 5.734375 27.523438 5.777344 27.46875 5.875 C 27.320312 6.167969 27.703125 6.144531 27.890625 6.050781 C 28.058594 5.960938 27.992188 6.96875 27.433594 6.925781 C 27.320312 6.914062 27.253906 6.804688 27.152344 6.804688 C 27.066406 6.804688 27.054688 7.695312 27.410156 7.695312 C 27.9375 7.695312 27.355469 8.265625 26.863281 8.234375 C 26.917969 8.894531 27.332031 9.78125 27.746094 10.238281 C 28.191406 10.734375 28.449219 11.296875 28.429688 11.816406 C 29.210938 11.890625 29.722656 11.546875 29.902344 11.070312 C 30.183594 10.324219 29.632812 9.5 29.210938 8.882812 C 28.628906 8.039062 28.730469 7.085938 28.863281 6.515625 C 28.652344 6.375 28.550781 6.144531 28.550781 5.910156 C 28.550781 5.648438 28.605469 5.355469 28.886719 5.097656 C 29.589844 4.457031 30.664062 5 30.828125 5.25 C 30.886719 5.324219 30.863281 5.441406 30.742188 5.507812 C 30.261719 5.757812 30.550781 6.664062 29.632812 6.664062 C 29.578125 6.839844 29.554688 7.023438 29.546875 7.207031 C 29.523438 7.769531 29.667969 8.136719 29.878906 8.472656 C 30.035156 8.710938 30.359375 9.164062 30.550781 9.578125 C 31.109375 10.734375 30.742188 12.207031 29.332031 12.640625 C 29.097656 12.714844 28.59375 12.78125 28.070312 12.683594 C 28.035156 12.714844 28.003906 12.757812 27.96875 12.789062 C 27.925781 12.832031 27.871094 12.878906 27.8125 12.929688 C 27.703125 13.246094 27.722656 13.613281 28.070312 14.003906 C 28.664062 14.664062 28.941406 14.835938 28.238281 15.324219 C 26.875 16.265625 26.773438 16.976562 26.585938 17.257812 C 26.875 17.304688 27.164062 17.355469 27.46875 17.421875 C 27.613281 17.453125 27.914062 17.53125 27.8125 17.953125 L 27.042969 21.273438 C 26.929688 21.761719 26.550781 21.640625 26.371094 21.597656 C 23.054688 20.753906 21.457031 23.039062 16.039062 23.039062 C 10.617188 23.039062 9.019531 20.753906 5.703125 21.597656 C 5.523438 21.640625 5.144531 21.761719 5.03125 21.273438 L 4.261719 17.953125 C 4.160156 17.53125 4.460938 17.453125 4.609375 17.421875 C 4.910156 17.355469 5.199219 17.304688 5.492188 17.257812 C 5.300781 16.976562 5.199219 16.265625 3.835938 15.324219 C 3.132812 14.835938 3.414062 14.664062 4.003906 14.003906 C 4.351562 13.613281 4.371094 13.246094 4.261719 12.929688 C 4.207031 12.886719 4.148438 12.832031 4.105469 12.789062 C 4.070312 12.757812 4.039062 12.714844 4.003906 12.683594 C 3.480469 12.769531 2.976562 12.703125 2.742188 12.640625 C 1.335938 12.207031 0.964844 10.734375 1.523438 9.578125 C 1.726562 9.164062 2.050781 8.722656 2.207031 8.472656 C 2.417969 8.136719 2.5625 7.769531 2.539062 7.207031 C 2.53125 7.023438 2.507812 6.839844 2.453125 6.664062 C 1.535156 6.664062 1.824219 5.757812 1.34375 5.507812 C 1.222656 5.441406 1.199219 5.335938 1.253906 5.25 C 1.421875 5 2.496094 4.457031 3.199219 5.097656 C 3.480469 5.34375 3.535156 5.648438 3.535156 5.910156 C 3.535156 6.15625 3.433594 6.382812 3.222656 6.515625 C 3.34375 7.097656 3.445312 8.039062 2.875 8.882812 C 2.453125 9.511719 1.894531 10.335938 2.183594 11.070312 C 2.363281 11.546875 2.875 11.890625 3.65625 11.816406 C 3.636719 11.296875 3.882812 10.746094 4.339844 10.238281 C 4.753906 9.78125 5.15625 8.894531 5.222656 8.234375 C 4.730469 8.265625 4.148438 7.695312 4.675781 7.695312 C 5.03125 7.695312 5.019531 6.804688 4.933594 6.804688 C 4.84375 6.804688 4.765625 6.914062 4.652344 6.925781 C 4.082031 6.96875 4.015625 5.960938 4.195312 6.050781 C 4.382812 6.144531 4.765625 6.167969 4.617188 5.875 C 4.53125 5.777344 4.53125 5.734375 4.519531 5.691406 C 4.507812 5.636719 4.472656 5.777344 4.207031 5.734375 C 3.757812 5.660156 3.859375 4.589844 4.027344 4.738281 C 4.238281 4.933594 4.519531 4.902344 4.496094 4.632812 C 4.484375 4.511719 4.484375 4.480469 4.496094 4.382812 C 4.496094 4.339844 4.339844 4.394531 4.226562 4.371094 C 4.117188 4.351562 3.960938 4.1875 3.925781 4.058594 C 3.8125 3.679688 4.117188 3.09375 4.207031 3.269531 C 4.304688 3.472656 4.652344 3.527344 4.652344 3.34375 C 4.640625 3.128906 4.71875 3.007812 4.71875 3.007812 C 4.71875 3.007812 4.550781 2.988281 4.496094 2.941406 C 4.371094 2.847656 4.351562 2.640625 4.363281 2.511719 C 4.394531 2.140625 4.886719 1.625 4.886719 2 C 4.886719 2.1875 5.175781 2.347656 5.253906 2.207031 C 5.332031 2.054688 5.445312 1.992188 5.445312 1.992188 C 5.445312 1.992188 5.289062 1.894531 5.246094 1.765625 C 5.078125 1.320312 6.136719 0.984375 6.058594 1.234375 C 5.9375 1.613281 6.171875 1.515625 6.484375 1.472656 C 6.609375 1.449219 6.730469 1.460938 6.730469 1.460938 C 6.730469 1.460938 6.640625 1.296875 6.6875 1.210938 C 6.773438 1.058594 7.714844 0.824219 7.511719 1.15625 C 7.402344 1.332031 7.613281 1.394531 7.792969 1.449219 C 7.949219 1.503906 8.285156 1.515625 8.339844 1.710938 C 8.363281 1.773438 8.316406 1.9375 8.292969 2.023438 C 8.429688 2.035156 8.519531 2.054688 8.550781 2.066406 C 8.742188 2.140625 8.808594 2.347656 8.976562 2.371094 C 9.03125 2.378906 9.277344 2.390625 9.355469 2.402344 C 9.46875 2.414062 9.578125 2.433594 9.703125 2.46875 C 10.039062 1.699219 10.519531 1.753906 10.585938 1.851562 C 10.71875 1.65625 11.402344 1.613281 11.433594 1.859375 C 11.601562 1.785156 11.882812 1.828125 12.027344 1.96875 Z M 17.925781 3.851562 L 18.429688 3.980469 L 18.5625 3.515625 C 18.597656 3.410156 18.628906 3.289062 18.675781 3.179688 L 18.664062 3.179688 C 18.5625 3.289062 18.484375 3.375 18.382812 3.472656 Z M 18.617188 4.847656 L 18.203125 4.738281 L 18.328125 4.273438 L 17.410156 4.035156 L 17.488281 3.765625 L 18.597656 2.824219 L 19.132812 2.964844 L 18.820312 4.070312 L 19.066406 4.132812 L 18.976562 4.4375 L 18.730469 4.371094 Z M 16.429688 4.1875 C 16.652344 4.199219 16.773438 3.960938 16.808594 3.515625 C 16.832031 3.074219 16.730469 2.824219 16.507812 2.8125 C 16.304688 2.800781 16.160156 3.03125 16.136719 3.472656 C 16.105469 3.9375 16.226562 4.175781 16.429688 4.1875 Z M 16.40625 4.5 C 15.890625 4.480469 15.65625 4.035156 15.691406 3.460938 C 15.722656 2.878906 16.015625 2.46875 16.527344 2.488281 C 17.066406 2.511719 17.277344 2.964844 17.242188 3.515625 C 17.210938 4.121094 16.941406 4.523438 16.40625 4.5 Z M 14.539062 2.910156 C 14.351562 2.933594 14.238281 3.105469 14.273438 3.3125 C 14.292969 3.484375 14.429688 3.613281 14.640625 3.59375 C 14.796875 3.570312 14.886719 3.496094 14.929688 3.410156 C 14.941406 3.386719 14.941406 3.355469 14.941406 3.3125 C 14.910156 3.085938 14.785156 2.867188 14.539062 2.910156 Z M 14.214844 4.652344 L 14.171875 4.328125 C 14.226562 4.328125 14.285156 4.316406 14.382812 4.296875 C 14.539062 4.261719 14.683594 4.199219 14.796875 4.101562 C 14.921875 3.992188 15 3.839844 15.007812 3.679688 L 15 3.679688 C 14.910156 3.796875 14.773438 3.875 14.585938 3.894531 C 14.226562 3.9375 13.902344 3.742188 13.847656 3.375 C 13.792969 2.996094 14.070312 2.640625 14.519531 2.574219 C 15.03125 2.511719 15.34375 2.847656 15.410156 3.300781 C 15.46875 3.699219 15.378906 4.015625 15.1875 4.230469 C 15.019531 4.425781 14.761719 4.554688 14.449219 4.597656 C 14.363281 4.640625 14.273438 4.652344 14.214844 4.652344 Z M 13.5 4.847656 L 13.019531 3.355469 L 13.007812 3.355469 L 12.695312 3.636719 L 12.527344 3.355469 L 12.964844 2.976562 L 13.3125 2.878906 L 13.902344 4.738281 Z M 8.070312 2.660156 C 8.058594 2.660156 7.96875 2.738281 7.925781 2.824219 C 7.980469 2.8125 8.117188 2.769531 8.238281 2.726562 C 8.195312 2.707031 8.136719 2.660156 8.070312 2.660156 Z M 8.527344 2.8125 C 8.527344 2.8125 7.902344 3.050781 7.792969 2.953125 C 7.65625 2.835938 7.9375 2.519531 8.050781 2.519531 C 8.339844 2.511719 8.527344 2.8125 8.527344 2.8125 Z M 23.488281 2.8125 C 23.488281 2.8125 23.679688 2.519531 23.957031 2.519531 C 24.070312 2.519531 24.351562 2.835938 24.214844 2.953125 C 24.105469 3.039062 23.488281 2.8125 23.488281 2.8125 Z M 23.9375 2.660156 C 23.871094 2.660156 23.8125 2.695312 23.757812 2.738281 C 23.878906 2.78125 24.015625 2.8125 24.070312 2.835938 C 24.046875 2.738281 23.957031 2.660156 23.9375 2.660156 Z M 23.78125 20.441406 L 23.78125 19.304688 C 23.78125 19.097656 23.769531 18.9375 23.769531 18.785156 L 24.203125 18.785156 L 24.226562 19.035156 L 24.238281 19.035156 C 24.304688 18.925781 24.496094 18.753906 24.796875 18.753906 C 25.132812 18.753906 25.445312 18.957031 25.445312 19.488281 L 25.445312 20.453125 L 24.941406 20.453125 L 24.941406 19.554688 C 24.941406 19.316406 24.851562 19.152344 24.617188 19.152344 C 24.4375 19.152344 24.339844 19.273438 24.292969 19.378906 C 24.28125 19.414062 24.273438 19.46875 24.273438 19.511719 L 24.273438 20.460938 L 23.78125 20.460938 Z M 6.585938 20.472656 L 6.507812 18.191406 L 7.011719 18.167969 L 7.078125 20.039062 L 8.105469 20.007812 L 8.117188 20.410156 Z M 10.003906 20.117188 L 8.851562 19.855469 C 8.808594 20.09375 9.019531 20.257812 9.289062 20.320312 C 9.488281 20.363281 9.636719 20.375 9.804688 20.355469 L 9.792969 20.691406 C 9.601562 20.722656 9.390625 20.710938 9.132812 20.65625 C 8.550781 20.527344 8.292969 20.128906 8.417969 19.628906 C 8.519531 19.230469 8.898438 18.828125 9.488281 18.957031 C 10.070312 19.089844 10.160156 19.574219 10.070312 19.933594 C 10.046875 20.019531 10.027344 20.082031 10.003906 20.117188 Z M 8.929688 19.53125 L 9.648438 19.695312 C 9.679688 19.585938 9.667969 19.335938 9.390625 19.273438 C 9.132812 19.207031 8.976562 19.390625 8.929688 19.53125 Z M 10.539062 19.273438 L 11.054688 19.457031 L 11.019531 20.300781 C 11.019531 20.453125 11 20.582031 10.988281 20.710938 L 11 20.710938 C 11.078125 20.601562 11.15625 20.496094 11.246094 20.375 L 11.78125 19.707031 L 12.285156 19.878906 L 11.054688 21.210938 L 10.574219 21.046875 Z M 13.847656 21.1875 L 12.683594 20.972656 C 12.652344 21.210938 12.863281 21.371094 13.132812 21.425781 C 13.332031 21.457031 13.488281 21.46875 13.644531 21.449219 L 13.644531 21.78125 C 13.457031 21.816406 13.246094 21.816406 12.988281 21.773438 C 12.40625 21.664062 12.125 21.273438 12.226562 20.765625 C 12.304688 20.363281 12.675781 19.941406 13.277344 20.0625 C 13.859375 20.171875 13.96875 20.65625 13.890625 21.015625 C 13.890625 21.078125 13.871094 21.15625 13.847656 21.1875 Z M 12.742188 20.636719 L 13.46875 20.777344 C 13.488281 20.65625 13.480469 20.410156 13.199219 20.363281 C 12.941406 20.3125 12.796875 20.496094 12.742188 20.636719 Z M 14.339844 21.957031 L 14.441406 20.851562 C 14.460938 20.601562 14.472656 20.453125 14.472656 20.300781 L 14.910156 20.332031 L 14.898438 20.65625 L 14.910156 20.65625 C 15.019531 20.417969 15.242188 20.320312 15.433594 20.332031 C 15.480469 20.332031 15.5 20.34375 15.546875 20.355469 L 15.5 20.808594 C 15.457031 20.796875 15.410156 20.789062 15.355469 20.777344 C 15.132812 20.753906 14.988281 20.863281 14.941406 21.035156 C 14.929688 21.070312 14.929688 21.113281 14.921875 21.144531 L 14.84375 21.988281 Z M 16.441406 19.585938 L 16.496094 21.058594 L 16.507812 21.058594 C 16.550781 20.992188 16.597656 20.917969 16.640625 20.863281 L 17.03125 20.332031 L 17.644531 20.3125 L 17.007812 21.003906 L 17.8125 21.964844 L 17.1875 21.988281 L 16.675781 21.304688 L 16.527344 21.480469 L 16.550781 22.011719 L 16.046875 22.03125 L 15.960938 19.617188 Z M 19.589844 19.941406 L 19.8125 21.058594 C 19.859375 21.261719 19.890625 21.4375 19.925781 21.566406 L 19.5 21.640625 L 19.421875 21.394531 L 19.410156 21.394531 C 19.367188 21.511719 19.234375 21.730469 18.910156 21.78125 C 18.585938 21.847656 18.25 21.707031 18.148438 21.175781 L 17.960938 20.234375 L 18.449219 20.136719 L 18.628906 21.003906 C 18.683594 21.261719 18.808594 21.402344 19.019531 21.359375 C 19.1875 21.328125 19.265625 21.199219 19.289062 21.089844 C 19.300781 21.058594 19.300781 21.015625 19.289062 20.972656 L 19.097656 20.007812 Z M 20.371094 21.285156 L 20.359375 20.929688 C 20.472656 20.960938 20.695312 20.972656 20.851562 20.929688 C 21.03125 20.875 21.085938 20.796875 21.054688 20.710938 C 21.019531 20.613281 20.953125 20.59375 20.730469 20.582031 C 20.351562 20.582031 20.160156 20.441406 20.105469 20.246094 C 20.015625 19.953125 20.214844 19.660156 20.628906 19.542969 C 20.832031 19.488281 21.019531 19.488281 21.132812 19.511719 L 21.144531 19.855469 C 21.054688 19.835938 20.886719 19.824219 20.742188 19.867188 C 20.605469 19.910156 20.539062 19.988281 20.5625 20.074219 C 20.585938 20.160156 20.683594 20.179688 20.917969 20.191406 C 21.265625 20.203125 21.457031 20.3125 21.535156 20.550781 C 21.625 20.839844 21.445312 21.121094 20.964844 21.261719 C 20.730469 21.304688 20.515625 21.316406 20.371094 21.285156 Z M 23.378906 19.847656 L 22.214844 20.0625 C 22.28125 20.300781 22.539062 20.363281 22.808594 20.3125 C 23.007812 20.277344 23.15625 20.222656 23.289062 20.148438 L 23.421875 20.453125 C 23.265625 20.550781 23.066406 20.636719 22.808594 20.679688 C 22.226562 20.789062 21.8125 20.527344 21.714844 20.019531 C 21.636719 19.617188 21.8125 19.097656 22.417969 18.980469 C 22.996094 18.871094 23.289062 19.28125 23.355469 19.640625 C 23.378906 19.726562 23.378906 19.800781 23.378906 19.847656 Z M 22.148438 19.726562 L 22.875 19.585938 C 22.851562 19.46875 22.742188 19.238281 22.460938 19.292969 C 22.195312 19.359375 22.136719 19.585938 22.148438 19.726562 Z M 15.578125 7.292969 L 16.417969 7.292969 C 16.507812 7.292969 16.585938 7.21875 16.585938 7.132812 C 16.585938 7.042969 16.507812 6.96875 16.417969 6.96875 L 15.578125 6.96875 Z M 15.578125 8.074219 L 16.441406 8.074219 C 16.539062 8.074219 16.628906 7.984375 16.628906 7.886719 C 16.628906 7.792969 16.539062 7.703125 16.441406 7.703125 L 15.578125 7.703125 Z M 16.921875 7.476562 C 17.03125 7.585938 17.097656 7.738281 17.097656 7.898438 C 17.097656 8.222656 16.832031 8.484375 16.496094 8.484375 L 15.097656 8.484375 L 15.097656 6.558594 L 16.472656 6.558594 C 16.796875 6.558594 17.054688 6.804688 17.054688 7.121094 C 17.054688 7.261719 17 7.378906 16.921875 7.476562 Z M 17.242188 10.789062 L 16.730469 10.789062 L 16.574219 10.464844 L 15.457031 10.464844 L 15.300781 10.789062 L 14.785156 10.789062 L 15.792969 8.863281 L 16.261719 8.863281 Z M 16.003906 9.347656 L 15.644531 10.054688 L 16.351562 10.054688 Z M 16.683594 11.199219 L 17.253906 11.199219 L 16.238281 12.453125 L 16.238281 13.125 L 15.757812 13.125 L 15.757812 12.453125 L 14.742188 11.199219 L 15.3125 11.199219 L 15.992188 12.078125 Z M 19.355469 11.199219 L 19.355469 11.609375 L 18.015625 11.609375 L 18.015625 11.9375 L 19.300781 11.9375 L 19.300781 12.347656 L 18.015625 12.347656 L 18.015625 12.714844 L 19.355469 12.714844 L 19.355469 13.125 L 17.546875 13.125 L 17.546875 11.199219 Z M 20.863281 12.402344 L 20.507812 12.402344 L 20.507812 13.136719 L 20.027344 13.136719 L 20.027344 11.210938 L 21.242188 11.210938 C 21.589844 11.210938 21.859375 11.480469 21.859375 11.804688 C 21.859375 12.078125 21.667969 12.304688 21.410156 12.378906 L 22.003906 13.136719 L 21.433594 13.136719 Z M 21.199219 11.609375 L 20.507812 11.609375 L 20.507812 11.980469 L 21.199219 11.980469 C 21.300781 11.980469 21.390625 11.890625 21.390625 11.796875 C 21.390625 11.699219 21.300781 11.621094 21.199219 11.609375 Z M 14.976562 13.136719 L 14.460938 13.136719 L 14.304688 12.8125 L 13.1875 12.8125 L 13.03125 13.136719 L 12.519531 13.136719 L 13.523438 11.210938 L 13.992188 11.210938 Z M 13.734375 11.699219 L 13.378906 12.402344 L 14.082031 12.402344 Z M 10.707031 11.9375 L 11.546875 11.9375 C 11.636719 11.9375 11.714844 11.859375 11.714844 11.773438 C 11.714844 11.6875 11.636719 11.609375 11.546875 11.609375 L 10.707031 11.609375 Z M 10.707031 12.726562 L 11.566406 12.726562 C 11.667969 12.726562 11.757812 12.640625 11.757812 12.542969 C 11.757812 12.445312 11.667969 12.359375 11.566406 12.359375 L 10.707031 12.359375 Z M 12.046875 12.128906 C 12.160156 12.238281 12.226562 12.390625 12.226562 12.550781 C 12.226562 12.878906 11.960938 13.136719 11.625 13.136719 L 10.226562 13.136719 L 10.226562 11.199219 L 11.601562 11.199219 C 11.925781 11.199219 12.183594 11.449219 12.183594 11.761719 C 12.183594 11.902344 12.136719 12.03125 12.046875 12.128906 Z M 16.910156 13.546875 L 16.910156 13.960938 L 15.566406 13.960938 L 15.566406 14.285156 L 16.851562 14.285156 L 16.851562 14.695312 L 15.566406 14.695312 L 15.566406 15.0625 L 16.910156 15.0625 L 16.910156 15.472656 L 15.097656 15.472656 L 15.097656 13.546875 Z M 16.574219 16.535156 C 16.574219 16.4375 16.484375 16.351562 16.382812 16.351562 L 15.566406 16.351562 L 15.566406 16.71875 L 16.382812 16.71875 C 16.496094 16.71875 16.574219 16.644531 16.574219 16.535156 Z M 15.097656 17.867188 L 15.097656 15.9375 L 16.441406 15.9375 C 16.785156 15.9375 17.054688 16.210938 17.054688 16.535156 C 17.054688 16.785156 16.898438 17 16.664062 17.085938 L 17.265625 17.867188 L 16.695312 17.867188 L 16.125 17.128906 L 15.578125 17.128906 L 15.578125 17.867188 Z M 15.097656 17.867188 "/>
</clipPath>
</defs>
<g id="surface1">
<g clip-path="url(#clip1)" clip-rule="nonzero">
<use xlink:href="#surface5"/>
</g>
<g clip-path="url(#clip5)" clip-rule="nonzero">
<g clip-path="url(#clip6)" clip-rule="nonzero">
<path style=" stroke:none;fill-rule:nonzero;fill:rgb(95.294118%,89.019608%,1.960784%);fill-opacity:1;" d="M 2.050781 -0.984375 L 29.96875 -0.984375 L 29.96875 25.007812 L 2.050781 25.007812 Z M 2.050781 -0.984375 "/>
</g>
</g>
<g clip-path="url(#clip7)" clip-rule="nonzero">
<g clip-path="url(#clip8)" clip-rule="nonzero">
<path style=" stroke:none;fill-rule:nonzero;fill:rgb(88.627451%,15.294118%,14.901961%);fill-opacity:1;" d="M -1.136719 -1.167969 L 33.152344 -1.167969 L 33.152344 19.878906 L -1.136719 19.878906 Z M -1.136719 -1.167969 "/>
</g>
</g>
<g clip-path="url(#clip9)" clip-rule="nonzero">
<g clip-path="url(#clip10)" clip-rule="nonzero">
<rect x="0" y="0" width="32" height="24" style="fill:rgb(10.588235%,9.411765%,10.980392%);fill-opacity:1;stroke:none;"/>
</g>
</g>
</g>
</svg>
