<?xml version="1.0" encoding="UTF-8"?>
<svg xmlns="http://www.w3.org/2000/svg" xmlns:xlink="http://www.w3.org/1999/xlink" width="32px" height="32px" viewBox="0 0 32 32" version="1.1">
<g id="surface1">
<path style=" stroke:none;fill-rule:nonzero;fill:rgb(100%,100%,100%);fill-opacity:1;" d="M 15.957031 31.835938 C 24.699219 31.835938 31.789062 24.75 31.789062 16.003906 C 31.789062 7.261719 24.699219 0.171875 15.953125 0.171875 C 7.210938 0.175781 0.121094 7.265625 0.125 16.007812 C 0.125 24.75 7.214844 31.839844 15.957031 31.835938 "/>
<path style=" stroke:none;fill-rule:nonzero;fill:rgb(87.843137%,3.529412%,7.843137%);fill-opacity:1;" d="M 16 0.527344 C 7.449219 0.527344 0.523438 7.457031 0.523438 16.003906 C 0.523438 24.550781 7.453125 31.476562 16 31.476562 C 24.546875 31.476562 31.476562 24.546875 31.472656 16 C 31.464844 7.457031 24.539062 0.535156 16 0.527344 M 16 32 C 7.160156 32 -0.00390625 24.835938 -0.00390625 16 C -0.00390625 7.160156 7.160156 -0.00390625 16 -0.00390625 C 24.835938 -0.00390625 32 7.160156 32 16 C 31.992188 24.832031 24.832031 31.992188 16 32 "/>
<path style=" stroke:none;fill-rule:nonzero;fill:rgb(87.843137%,3.529412%,7.843137%);fill-opacity:1;" d="M 16 3.71875 C 9.214844 3.71875 3.714844 9.21875 3.714844 16.003906 C 3.714844 22.789062 9.214844 28.289062 16 28.285156 C 22.785156 28.285156 28.285156 22.785156 28.28125 16 C 28.273438 9.21875 22.777344 3.722656 16 3.71875 M 16 30.769531 C 7.839844 30.769531 1.226562 24.15625 1.226562 16 C 1.226562 7.839844 7.839844 1.226562 16 1.226562 C 24.15625 1.226562 30.769531 7.839844 30.769531 16 C 30.761719 24.152344 24.152344 30.761719 16 30.769531 "/>
<path style=" stroke:none;fill-rule:nonzero;fill:rgb(87.843137%,3.529412%,7.843137%);fill-opacity:1;" d="M 22.074219 16.65625 C 23.316406 17.199219 24.648438 17.496094 26 17.535156 C 27.433594 17.589844 28.003906 16.695312 27.527344 16.542969 C 27.339844 16.480469 23.25 15.324219 23.25 15.324219 C 23.25 15.324219 22.742188 15.125 23.121094 15.082031 C 23.5 15.042969 25.199219 15.058594 25.925781 14.765625 C 26.8125 14.417969 26.964844 13.601562 26.761719 13.613281 C 24.980469 13.703125 23.296875 13.671875 23.207031 13.660156 L 23.175781 13.660156 C 23.175781 13.660156 22.980469 13.59375 23.15625 13.4375 C 23.332031 13.28125 24.632812 12.199219 24.886719 11.925781 C 25.582031 11.230469 25.117188 10.191406 24.996094 10.285156 C 24.15625 11.074219 23.214844 11.75 22.203125 12.296875 C 22.113281 12.296875 22.136719 12.101562 22.203125 11.953125 C 22.460938 11.613281 22.671875 11.238281 22.828125 10.84375 C 23.175781 9.554688 23.085938 8.742188 22.359375 8.417969 C 22.226562 8.363281 22.179688 8.4375 22.011719 8.835938 C 21.847656 9.234375 21.777344 9.9375 21.125 10.21875 C 20.777344 10.359375 20.175781 10.914062 20.164062 11.15625 C 20.15625 11.398438 20.292969 11.738281 20.121094 11.847656 C 19.949219 11.957031 19.746094 11.777344 19.527344 11.957031 C 19.308594 12.132812 18.722656 12.734375 18.511719 12.890625 C 18.304688 13.046875 17.886719 13.300781 17.621094 13.15625 C 17.050781 12.59375 17.328125 10.933594 17.328125 10.933594 C 17.464844 10.953125 17.601562 10.953125 17.738281 10.933594 C 17.925781 10.898438 18.09375 10.78125 18.195312 10.621094 C 18.296875 10.457031 18.324219 10.257812 18.273438 10.070312 C 18.148438 10.207031 17.972656 10.285156 17.789062 10.285156 C 17.558594 10.304688 17.496094 10.210938 17.441406 10.003906 C 17.371094 9.789062 17.371094 9.554688 17.441406 9.335938 C 17.542969 8.988281 17.898438 8.820312 18.097656 8.660156 C 18.296875 8.5 18.191406 7.890625 18.191406 7.890625 C 18.136719 8.007812 18.0625 8.113281 17.972656 8.203125 C 17.777344 8.382812 17.515625 8.332031 16.953125 8.296875 C 16.625 8.316406 16.304688 8.1875 16.074219 7.949219 C 15.984375 7.84375 15.25 7.921875 15.035156 7.933594 C 14.542969 7.992188 14.058594 8.09375 13.585938 8.242188 C 13.273438 8.351562 12.96875 8.492188 12.683594 8.660156 C 12.558594 8.761719 12.601562 8.855469 12.601562 8.855469 L 12.714844 9.160156 C 12.96875 8.984375 13.246094 8.851562 13.542969 8.757812 C 13.949219 8.648438 14 8.835938 14.050781 9.011719 C 14.09375 9.136719 14.125 9.265625 14.148438 9.398438 C 13.71875 9.492188 13.277344 9.523438 12.839844 9.488281 C 12.203125 9.453125 12.167969 9.171875 12.171875 9.007812 C 12.171875 8.949219 11.988281 9.007812 11.917969 9.171875 C 11.789062 9.457031 11.75 9.9375 13.058594 9.917969 C 13.449219 9.898438 13.839844 9.8125 14.203125 9.664062 C 14.304688 10.011719 14.203125 10.066406 14.039062 10.089844 C 13.730469 10.167969 13.402344 10.152344 13.097656 10.046875 C 13.097656 10.046875 13.011719 10.332031 13.074219 10.394531 C 13.46875 10.605469 13.910156 10.699219 14.355469 10.667969 C 14.492188 10.667969 14.597656 10.570312 14.671875 10.632812 C 14.761719 10.769531 14.828125 10.921875 14.859375 11.085938 C 14.859375 11.191406 14.835938 11.265625 14.511719 11.257812 C 14.1875 11.253906 14.074219 11.257812 14.089844 11.324219 C 14.21875 11.464844 14.355469 11.59375 14.5 11.714844 C 14.566406 11.777344 14.898438 11.433594 14.898438 11.433594 C 14.882812 11.492188 14.882812 11.554688 14.898438 11.617188 C 14.925781 11.753906 15.015625 12.835938 14.34375 13.148438 C 14.082031 13.289062 13.648438 13.035156 13.457031 12.878906 C 13.261719 12.722656 12.644531 12.117188 12.4375 11.945312 C 12.230469 11.773438 11.992188 11.945312 11.855469 11.847656 C 11.714844 11.75 11.816406 11.371094 11.804688 11.15625 C 11.796875 10.941406 11.183594 10.359375 10.851562 10.21875 C 10.199219 9.949219 10.132812 9.25 9.960938 8.835938 C 9.785156 8.417969 9.742188 8.363281 9.613281 8.417969 C 8.886719 8.726562 8.800781 9.539062 9.140625 10.84375 C 9.292969 11.238281 9.496094 11.609375 9.75 11.945312 C 9.816406 12.097656 9.84375 12.3125 9.75 12.292969 C 8.738281 11.742188 7.796875 11.066406 6.957031 10.277344 C 6.839844 10.167969 6.355469 11.207031 7.0625 11.917969 C 7.335938 12.191406 8.621094 13.261719 8.8125 13.429688 C 9.007812 13.601562 8.792969 13.652344 8.792969 13.652344 L 8.761719 13.652344 C 8.65625 13.652344 6.988281 13.699219 5.207031 13.605469 C 5 13.605469 5.15625 14.394531 6.042969 14.757812 C 6.765625 15.050781 8.46875 15.039062 8.847656 15.078125 C 9.230469 15.113281 8.71875 15.316406 8.71875 15.316406 C 8.71875 15.316406 4.628906 16.472656 4.4375 16.535156 C 3.964844 16.6875 4.535156 17.574219 5.964844 17.53125 C 7.320312 17.492188 8.652344 17.191406 9.894531 16.648438 C 10.410156 16.453125 10.101562 16.816406 9.992188 16.890625 C 9.222656 17.4375 6.957031 18.96875 5.886719 19.664062 C 5.734375 19.765625 5.710938 19.875 5.886719 20.058594 C 6.722656 20.949219 8.3125 19.925781 8.9375 19.582031 C 9.671875 19.171875 11.414062 17.847656 11.554688 17.996094 C 11.605469 18.050781 11.503906 18.542969 10.425781 19.699219 C 10.539062 19.808594 10.652344 19.910156 10.773438 20.007812 C 10.773438 20.007812 10.261719 20.625 9.90625 21.015625 C 9.765625 21.167969 9.433594 21.5 9.34375 21.480469 C 9.253906 21.464844 8.792969 20.960938 8.632812 20.953125 C 8.53125 20.953125 8.316406 21.101562 8.160156 21.011719 C 7.945312 20.964844 7.71875 20.996094 7.523438 21.101562 C 7.277344 21.214844 7.324219 21.792969 7.394531 21.535156 C 7.460938 21.273438 7.945312 21.289062 8.191406 21.574219 C 8.320312 21.707031 8.480469 21.808594 8.652344 21.871094 C 8.804688 21.90625 8.878906 21.953125 8.816406 21.996094 C 8.539062 22.089844 8.269531 22.21875 8.019531 22.375 C 7.945312 22.496094 7.984375 22.539062 7.957031 22.601562 C 7.621094 22.738281 7.519531 22.863281 7.621094 23.210938 C 7.652344 23.304688 7.691406 23.398438 7.742188 23.484375 C 7.796875 23.382812 7.769531 23.054688 8.121094 22.980469 C 8.160156 22.980469 8.222656 23.023438 8.285156 23.023438 C 8.570312 22.941406 8.832031 22.796875 9.050781 22.597656 C 9.144531 22.480469 9.125 22.667969 9.050781 22.78125 C 8.757812 23.324219 8.867188 23.65625 8.894531 23.667969 C 8.917969 23.679688 9 23.644531 9.042969 23.746094 C 9.152344 24.082031 9.390625 24.359375 9.699219 24.519531 C 9.585938 24.261719 9.53125 23.980469 9.539062 23.695312 C 9.59375 23.667969 9.636719 23.695312 9.703125 23.667969 C 9.789062 23.535156 9.839844 23.386719 9.84375 23.226562 C 9.84375 23.003906 9.710938 22.929688 9.714844 22.796875 C 9.726562 22.695312 9.757812 22.597656 9.8125 22.511719 C 9.894531 22.671875 9.992188 22.820312 10.105469 22.957031 C 10.375 23.246094 10.328125 23.304688 10.613281 23.195312 C 10.671875 23.171875 11.050781 23.796875 11.050781 23.796875 C 11.128906 23.609375 11.152344 23.410156 11.121094 23.210938 C 11.09375 23.105469 10.988281 23.058594 10.917969 22.964844 C 10.84375 22.871094 11.042969 22.753906 10.949219 22.617188 C 10.394531 22.09375 10.34375 22.273438 10.203125 21.925781 C 10.105469 21.695312 10.292969 21.539062 10.488281 21.304688 C 10.96875 20.722656 10.984375 20.730469 11.269531 20.386719 C 11.386719 20.46875 11.457031 20.542969 11.617188 20.664062 C 12.15625 19.875 12.613281 19.160156 13.121094 18.976562 C 13.625 18.792969 13.855469 19.089844 13.855469 19.398438 C 13.832031 19.9375 12.753906 21.097656 12.753906 21.097656 C 12.375 21.46875 12.027344 21.867188 11.714844 22.289062 C 11.625 22.441406 11.566406 22.609375 11.539062 22.785156 C 11.519531 23.027344 11.535156 23.269531 11.589844 23.503906 C 11.628906 23.730469 11.679688 23.90625 11.679688 23.90625 C 11.679688 23.90625 11.835938 23.328125 11.875 23.257812 C 11.980469 23.0625 12 23.257812 12.152344 23.648438 C 12.289062 23.953125 12.449219 24.246094 12.632812 24.523438 L 12.632812 23.53125 C 12.632812 23.273438 12.664062 22.925781 12.78125 23.183594 C 12.925781 23.460938 13.089844 23.734375 13.269531 23.992188 C 13.269531 23.992188 13.269531 23.789062 13.289062 23.546875 C 13.339844 23.132812 13.433594 22.726562 13.570312 22.335938 C 13.648438 22.1875 14 21.578125 14.421875 21.511719 C 14.84375 21.449219 14.882812 22.207031 14.855469 22.371094 C 14.804688 22.644531 14.730469 22.910156 14.621094 23.167969 C 14.582031 23.25 14.25 23.863281 14.203125 23.996094 C 13.886719 24.6875 14.078125 25.503906 14.664062 25.984375 C 14.695312 25.589844 14.785156 25.203125 14.921875 24.835938 C 15.007812 24.710938 15.125 24.632812 15.210938 24.753906 C 15.429688 25.167969 15.691406 25.558594 15.988281 25.921875 C 16.285156 25.558594 16.542969 25.167969 16.765625 24.753906 C 16.851562 24.632812 16.96875 24.710938 17.054688 24.835938 C 17.195312 25.203125 17.285156 25.589844 17.320312 25.984375 C 17.914062 25.511719 18.117188 24.703125 17.816406 24.007812 C 17.773438 23.890625 17.4375 23.257812 17.398438 23.179688 C 17.292969 22.921875 17.214844 22.652344 17.164062 22.378906 C 17.132812 22.214844 17.164062 21.460938 17.597656 21.523438 C 18.03125 21.585938 18.371094 22.214844 18.449219 22.34375 C 18.582031 22.738281 18.667969 23.144531 18.707031 23.558594 C 18.726562 23.800781 18.726562 24.003906 18.726562 24.003906 C 18.90625 23.742188 19.070312 23.472656 19.214844 23.195312 C 19.332031 22.9375 19.351562 23.285156 19.367188 23.539062 L 19.367188 24.53125 C 19.546875 24.253906 19.707031 23.960938 19.839844 23.65625 C 19.996094 23.265625 20.015625 23.070312 20.121094 23.265625 C 20.15625 23.335938 20.316406 23.914062 20.316406 23.914062 C 20.316406 23.914062 20.367188 23.738281 20.410156 23.511719 C 20.460938 23.277344 20.476562 23.03125 20.453125 22.792969 C 20.429688 22.617188 20.371094 22.449219 20.28125 22.296875 C 19.96875 21.871094 19.621094 21.472656 19.242188 21.105469 C 19.242188 21.105469 18.160156 19.945312 18.136719 19.40625 C 18.136719 19.101562 18.351562 18.808594 18.851562 18.996094 C 19.355469 19.183594 19.816406 19.890625 20.351562 20.683594 C 20.519531 20.5625 20.585938 20.484375 20.699219 20.40625 C 20.984375 20.75 21 20.75 21.480469 21.324219 C 21.675781 21.554688 21.859375 21.710938 21.765625 21.941406 C 21.625 22.289062 21.574219 22.105469 21.023438 22.636719 C 20.925781 22.785156 21.125 22.902344 21.050781 22.980469 C 20.980469 23.0625 20.875 23.121094 20.847656 23.226562 C 20.824219 23.421875 20.847656 23.621094 20.925781 23.800781 C 20.925781 23.800781 21.304688 23.175781 21.359375 23.199219 C 21.644531 23.316406 21.597656 23.25 21.871094 22.960938 C 21.988281 22.824219 22.085938 22.675781 22.171875 22.519531 C 22.222656 22.605469 22.257812 22.703125 22.269531 22.800781 C 22.269531 22.9375 22.148438 23.011719 22.140625 23.234375 C 22.148438 23.390625 22.195312 23.542969 22.28125 23.675781 C 22.347656 23.714844 22.394531 23.675781 22.449219 23.703125 C 22.457031 23.988281 22.402344 24.269531 22.285156 24.527344 C 22.582031 24.363281 22.808594 24.09375 22.914062 23.769531 C 22.957031 23.664062 22.996094 23.714844 23.066406 23.6875 C 23.136719 23.664062 23.195312 23.34375 22.902344 22.800781 C 22.84375 22.6875 22.824219 22.5 22.902344 22.617188 C 23.121094 22.816406 23.382812 22.960938 23.667969 23.042969 C 23.734375 23.042969 23.796875 22.992188 23.832031 23 C 24.175781 23.074219 24.15625 23.40625 24.210938 23.503906 C 24.261719 23.417969 24.300781 23.328125 24.332031 23.230469 C 24.449219 22.859375 24.359375 22.742188 23.988281 22.613281 C 23.960938 22.550781 23.988281 22.507812 23.925781 22.386719 C 23.675781 22.230469 23.40625 22.101562 23.128906 22.003906 C 23.066406 21.964844 23.128906 21.914062 23.289062 21.878906 C 23.464844 21.820312 23.625 21.71875 23.75 21.582031 C 23.996094 21.296875 24.484375 21.292969 24.550781 21.542969 C 24.617188 21.796875 24.667969 21.226562 24.421875 21.113281 C 24.226562 21.007812 24 20.976562 23.78125 21.023438 C 23.625 21.113281 23.410156 20.960938 23.3125 20.960938 C 23.152344 20.960938 22.6875 21.476562 22.617188 21.492188 C 22.550781 21.511719 22.195312 21.175781 22.054688 21.023438 C 21.707031 20.636719 21.183594 20.015625 21.183594 20.015625 C 21.304688 19.921875 21.421875 19.816406 21.53125 19.707031 C 20.457031 18.554688 20.355469 18.0625 20.410156 18.007812 C 20.542969 17.867188 22.289062 19.183594 23.019531 19.589844 C 23.652344 19.9375 25.238281 20.960938 26.074219 20.070312 C 26.25 19.886719 26.226562 19.773438 26.074219 19.675781 C 25.003906 18.980469 22.742188 17.449219 21.972656 16.902344 C 21.863281 16.828125 21.550781 16.460938 22.070312 16.660156 "/>
<path style=" stroke:none;fill-rule:nonzero;fill:rgb(87.843137%,3.529412%,7.843137%);fill-opacity:1;" d="M 17.972656 5.585938 C 17.972656 5.585938 16.804688 6.078125 16.703125 6.15625 C 16.5 5.984375 15.917969 5.464844 15.851562 5.40625 C 15.785156 5.464844 15.203125 5.984375 15.003906 6.15625 C 14.898438 6.078125 13.746094 5.585938 13.734375 5.585938 C 13.71875 5.585938 14.054688 6.070312 14.253906 6.402344 C 14.382812 6.648438 14.441406 6.929688 14.414062 7.207031 L 17.296875 7.207031 C 17.273438 6.929688 17.332031 6.648438 17.457031 6.402344 C 17.65625 6.054688 17.980469 5.585938 17.980469 5.585938 "/>
<path style=" stroke:none;fill-rule:nonzero;fill:rgb(100%,100%,100%);fill-opacity:1;" d="M 14.898438 8.660156 C 15.171875 8.527344 15.484375 8.5 15.777344 8.578125 L 15.03125 9.175781 C 14.972656 9.007812 14.929688 8.835938 14.898438 8.660156 "/>
<path style=" stroke:none;fill-rule:nonzero;fill:rgb(100%,100%,100%);fill-opacity:1;" d="M 18.160156 15.429688 C 18.816406 15.3125 19.675781 15.101562 20.585938 13.515625 C 19.726562 13.351562 19.582031 12.917969 19.582031 12.917969 C 19.582031 12.917969 20.046875 12.792969 20.699219 13.308594 C 20.734375 12.203125 21.390625 12.027344 21.390625 12.027344 C 21.390625 12.027344 21.664062 12.636719 20.835938 13.367188 C 21.652344 13.542969 21.851562 13.980469 21.851562 13.980469 C 21.851562 13.980469 21.421875 14.140625 20.753906 13.585938 C 19.765625 15.386719 18.675781 15.777344 18.171875 15.777344 C 18.183594 15.660156 18.183594 15.546875 18.171875 15.429688 "/>
<path style=" stroke:none;fill-rule:nonzero;fill:rgb(100%,100%,100%);fill-opacity:1;" d="M 14.519531 14.320312 C 14.535156 14.96875 14.605469 15.613281 14.722656 16.246094 C 14.867188 17.117188 15.171875 17.949219 15.621094 18.707031 C 15.722656 18.886719 15.839844 19.054688 15.96875 19.214844 C 16.109375 19.058594 16.238281 18.886719 16.355469 18.707031 C 16.804688 17.949219 17.109375 17.117188 17.253906 16.246094 C 17.371094 15.613281 17.441406 14.96875 17.457031 14.320312 C 17.457031 14.320312 14.527344 14.320312 14.519531 14.320312 "/>
<path style=" stroke:none;fill-rule:nonzero;fill:rgb(100%,100%,100%);fill-opacity:1;" d="M 13.8125 15.429688 C 13.152344 15.3125 12.296875 15.101562 11.386719 13.515625 C 12.246094 13.351562 12.390625 12.917969 12.390625 12.917969 C 12.390625 12.917969 11.925781 12.792969 11.273438 13.308594 C 11.234375 12.203125 10.578125 12.027344 10.578125 12.027344 C 10.578125 12.027344 10.304688 12.636719 11.136719 13.367188 C 10.320312 13.542969 10.121094 13.980469 10.121094 13.980469 C 10.121094 13.980469 10.550781 14.140625 11.21875 13.585938 C 12.203125 15.386719 13.277344 15.777344 13.796875 15.777344 C 13.789062 15.660156 13.789062 15.546875 13.796875 15.429688 "/>
<path style=" stroke:none;fill-rule:nonzero;fill:rgb(87.843137%,3.529412%,7.843137%);fill-opacity:1;" d="M 16.796875 17.46875 L 16.796875 17.085938 L 15.851562 17.085938 L 15.851562 16.355469 L 16.699219 16.355469 L 16.699219 15.96875 L 15.851562 15.96875 L 15.851562 15.351562 L 16.691406 15.351562 L 16.691406 14.964844 L 15.28125 14.964844 L 15.28125 17.46875 Z M 16.796875 17.46875 "/>
</g>
</svg>
