<?xml version="1.0" encoding="UTF-8"?>
<svg xmlns="http://www.w3.org/2000/svg" xmlns:xlink="http://www.w3.org/1999/xlink" width="32px" height="32px" viewBox="0 0 32 36" version="1.1">
<g id="surface1">
<path style=" stroke:none;fill-rule:nonzero;fill:rgb(100%,100%,100%);fill-opacity:1;" d="M 31.890625 18.007812 C 31.894531 17.996094 31.894531 17.988281 31.902344 17.972656 C 31.9375 17.898438 31.960938 17.808594 31.960938 17.714844 C 31.960938 17.644531 31.949219 17.570312 31.910156 17.496094 C 31.894531 17.460938 31.859375 17.433594 31.832031 17.402344 C 31.863281 17.316406 31.90625 17.1875 31.90625 17.1875 C 31.917969 17.144531 31.921875 17.101562 31.921875 17.0625 C 31.921875 16.910156 31.851562 16.769531 31.722656 16.679688 C 31.550781 16.5625 31.320312 16.566406 31.148438 16.6875 C 31.011719 16.773438 30.917969 16.929688 30.832031 17.082031 C 30.773438 17.023438 30.714844 16.984375 30.597656 17.011719 C 30.445312 17.050781 30.464844 17.078125 30.339844 17.253906 C 29.90625 17.882812 29.324219 18.875 28.65625 18.910156 C 28.515625 18.890625 28.46875 18.851562 28.296875 18.582031 C 26.851562 16.304688 25.078125 14.957031 22.730469 13.300781 C 22.59375 13.1875 22.296875 12.726562 22.007812 12.285156 C 21.511719 11.515625 20.945312 10.648438 20.375 10.25 C 19.9375 9.9375 19.472656 9.769531 19.023438 9.609375 C 18.476562 9.414062 17.960938 9.234375 17.5 8.792969 C 17.316406 8.617188 17.148438 8.375 16.957031 8.097656 C 16.5625 7.53125 16.0625 6.835938 15.109375 6.226562 C 15.132812 6.089844 15.164062 5.902344 15.164062 5.675781 C 15.164062 5.398438 15.085938 4.960938 14.957031 4.726562 C 14.859375 4.550781 14.710938 4.449219 14.566406 4.414062 C 14.308594 4.351562 13.890625 4.445312 13.609375 4.570312 C 14.164062 2.945312 15.464844 1.871094 16.144531 1.316406 C 16.519531 1.007812 16.734375 0.832031 16.734375 0.59375 C 16.734375 0.554688 16.730469 0.515625 16.71875 0.472656 C 16.621094 0.0351562 16.128906 0.0117188 15.917969 0.00390625 L 15.878906 0 C 15.589844 -0.0078125 14.675781 0.0234375 14.011719 0.527344 C 13.8125 0.578125 13.640625 0.65625 13.484375 0.753906 C 13.476562 0.726562 13.480469 0.699219 13.464844 0.671875 C 13.386719 0.5 13.175781 0.332031 12.824219 0.375 C 12.167969 0.476562 11.796875 0.644531 11.546875 0.78125 C 11.53125 0.789062 11.480469 0.820312 11.480469 0.820312 C 11.25 0.957031 10.878906 1.191406 10.605469 1.738281 C 10.339844 1.933594 10.046875 2.226562 9.9375 2.671875 C 9.652344 2.863281 9.417969 3.1875 9.402344 3.605469 C 9.226562 3.8125 9.121094 4.027344 9.070312 4.253906 C 8.792969 4.011719 8.457031 3.847656 8.0625 3.78125 L 8.035156 3.777344 L 8.007812 3.777344 C 7.882812 3.773438 7.625 3.769531 7.429688 3.964844 L 7.378906 4.011719 L 7.351562 4.078125 C 7.320312 4.144531 7.308594 4.207031 7.308594 4.265625 C 7.308594 4.421875 7.394531 4.542969 7.429688 4.589844 L 7.449219 4.621094 C 7.453125 4.636719 7.519531 4.941406 7.519531 4.941406 L 7.558594 5.277344 C 7.664062 5.828125 7.902344 6.117188 8.207031 6.375 C 8.140625 6.570312 8.105469 6.75 8.105469 6.90625 C 8.105469 7.171875 8.175781 7.390625 8.238281 7.582031 C 8.238281 7.582031 8.253906 7.636719 8.265625 7.671875 C 8.269531 7.703125 8.273438 7.734375 8.273438 7.773438 C 8.273438 8.152344 8.125 8.890625 8.011719 9.328125 C 8.007812 9.332031 7.964844 9.472656 7.964844 9.472656 C 7.878906 9.742188 7.722656 10.222656 7.722656 10.75 C 7.722656 10.941406 7.742188 11.136719 7.792969 11.332031 C 7.894531 11.664062 8.15625 12.066406 8.515625 12.234375 C 8.527344 12.242188 8.71875 12.316406 8.71875 12.316406 C 8.902344 12.386719 8.957031 12.40625 9.03125 12.527344 C 9.097656 12.632812 9.128906 12.960938 9.128906 13.308594 C 9.128906 13.5625 9.113281 13.824219 9.085938 14.007812 L 9.082031 14.035156 C 9.082031 14.035156 9.082031 14.0625 9.082031 14.0625 C 9.082031 14.25 9.199219 14.417969 9.378906 14.488281 C 9.53125 14.546875 9.761719 14.539062 9.949219 14.335938 C 10.074219 14.210938 10.179688 14.074219 10.273438 13.925781 C 10.300781 13.964844 10.304688 14.011719 10.339844 14.042969 L 10.355469 14.058594 L 10.375 14.070312 C 10.4375 14.113281 10.515625 14.128906 10.59375 14.136719 C 10.359375 14.292969 10.074219 14.472656 9.691406 14.699219 C 7.492188 15.042969 6.03125 15.835938 5.757812 16.808594 C 2.257812 18.496094 0 22.035156 0 25.890625 C 0 31.464844 4.578125 36 10.207031 36 C 15.839844 36 20.421875 31.464844 20.421875 25.890625 C 20.421875 24.570312 20.152344 23.292969 19.664062 22.101562 C 19.699219 22.085938 19.746094 22.0625 19.796875 22.039062 C 19.828125 22.078125 19.863281 22.113281 19.863281 22.113281 C 19.992188 22.265625 20.246094 22.449219 20.453125 22.453125 C 20.65625 22.460938 20.785156 22.433594 20.785156 22.433594 C 20.785156 22.433594 20.796875 22.429688 20.808594 22.429688 C 20.824219 22.457031 20.921875 22.625 20.921875 22.625 C 21.125 22.929688 21.449219 22.921875 21.625 22.917969 C 21.734375 22.914062 21.8125 22.914062 21.910156 22.953125 C 22.007812 23 22.046875 23.136719 22.09375 23.445312 L 22.132812 23.671875 C 22.191406 23.917969 22.335938 24.035156 22.414062 24.097656 C 22.429688 24.175781 22.480469 24.425781 22.480469 24.425781 C 22.515625 24.691406 22.558594 24.996094 22.84375 25.117188 C 22.835938 25.113281 22.851562 25.113281 22.871094 25.113281 C 22.917969 25.339844 22.925781 25.613281 23.191406 25.769531 C 23.253906 25.808594 23.328125 25.8125 23.40625 25.820312 C 23.410156 25.832031 23.414062 25.847656 23.414062 25.847656 C 23.484375 26.191406 23.761719 26.277344 23.863281 26.3125 C 23.863281 26.3125 23.867188 26.3125 23.871094 26.3125 C 23.886719 26.339844 24.042969 26.59375 24.042969 26.59375 C 24.152344 26.792969 24.257812 26.980469 24.398438 27.09375 L 24.460938 27.144531 L 24.539062 27.167969 C 24.578125 27.175781 24.617188 27.183594 24.660156 27.183594 C 24.996094 27.609375 25.917969 28.96875 25.917969 30.234375 C 25.917969 30.296875 25.914062 30.355469 25.910156 30.414062 C 25.851562 31.277344 25.496094 31.714844 25.257812 32.003906 C 24.988281 32.339844 24.976562 32.730469 24.976562 32.882812 L 24.976562 32.902344 C 25.011719 33.273438 25.207031 33.398438 25.351562 33.488281 C 25.503906 33.566406 25.933594 33.746094 26.535156 33.496094 C 27.03125 33.292969 27.140625 32.921875 27.207031 32.679688 C 27.242188 32.566406 27.261719 32.496094 27.296875 32.464844 C 27.527344 32.242188 27.796875 31.921875 27.832031 31.402344 C 27.832031 31.359375 27.835938 31.316406 27.835938 31.269531 C 27.835938 30.832031 27.691406 30.277344 27.554688 29.785156 C 27.5 29.578125 27.421875 29.085938 27.40625 28.636719 C 27.601562 28.902344 27.765625 29.171875 27.863281 29.335938 L 27.910156 29.414062 C 28.039062 29.632812 28.40625 30.25 28.40625 30.851562 C 28.40625 30.917969 28.402344 30.984375 28.394531 31.050781 C 28.324219 31.457031 28.199219 31.691406 28.046875 31.960938 C 27.890625 32.242188 27.714844 32.558594 27.621094 33.074219 C 27.609375 33.144531 27.601562 33.210938 27.601562 33.277344 C 27.601562 33.558594 27.707031 33.804688 27.90625 33.96875 C 28.1875 34.207031 28.605469 34.25 29.054688 34.09375 C 29.613281 33.894531 29.996094 33.269531 30.117188 32.417969 C 30.1875 32.371094 30.261719 32.316406 30.261719 32.316406 C 30.40625 32.15625 30.445312 31.972656 30.445312 31.820312 C 30.445312 31.691406 30.417969 31.582031 30.402344 31.527344 C 30.105469 30.339844 30.054688 29.761719 30.054688 29.292969 C 30.054688 29.167969 30.058594 29.050781 30.0625 28.933594 L 30.042969 27.921875 C 30.007812 27.609375 29.859375 27.371094 29.726562 27.242188 C 29.667969 27.175781 29.507812 26.992188 29.507812 26.992188 C 29.34375 26.828125 29.144531 26.625 29.101562 26.445312 C 29.042969 26.214844 29.023438 25.921875 29.023438 25.597656 C 29.023438 25.03125 29.089844 24.363281 29.15625 23.707031 C 29.222656 23 29.292969 22.316406 29.292969 21.710938 C 29.292969 21.453125 29.273438 21.210938 29.242188 20.984375 C 30.902344 21.035156 31.65625 19.34375 31.914062 18.765625 L 31.957031 18.667969 C 32.003906 18.542969 32.023438 18.4375 32.023438 18.347656 C 32.023438 18.183594 31.957031 18.078125 31.890625 18.007812 M 11.738281 12.207031 C 11.761719 12.03125 11.78125 11.914062 11.804688 11.78125 C 11.839844 11.800781 11.894531 11.804688 11.941406 11.8125 C 11.992188 12.09375 12.164062 12.238281 12.28125 12.316406 C 12.28125 12.316406 12.363281 12.640625 12.363281 12.640625 C 12.371094 12.648438 12.378906 12.660156 12.386719 12.671875 C 12.277344 12.757812 12.15625 12.859375 12 12.996094 L 11.773438 13.195312 C 11.5625 13.378906 11.394531 13.527344 11.226562 13.667969 C 11.480469 13.253906 11.679688 12.652344 11.738281 12.207031 "/>
<path style=" stroke:none;fill-rule:nonzero;fill:rgb(100%,100%,100%);fill-opacity:1;" d="M 29.714844 27.226562 C 29.71875 27.230469 29.722656 27.238281 29.726562 27.242188 C 29.738281 27.253906 29.769531 27.289062 29.769531 27.289062 Z M 29.714844 27.226562 "/>
<path style=" stroke:none;fill-rule:nonzero;fill:rgb(92.941176%,10.980392%,14.117647%);fill-opacity:1;" d="M 0.390625 25.890625 C 0.390625 20.523438 4.789062 16.171875 10.207031 16.171875 C 15.632812 16.171875 20.03125 20.523438 20.03125 25.890625 C 20.03125 31.261719 15.632812 35.613281 10.207031 35.613281 C 4.789062 35.613281 0.390625 31.261719 0.390625 25.890625 "/>
<path style=" stroke:none;fill-rule:nonzero;fill:rgb(100%,100%,100%);fill-opacity:1;" d="M 1.582031 25.890625 C 1.582031 21.171875 5.449219 17.34375 10.21875 17.34375 C 14.988281 17.34375 18.855469 21.171875 18.855469 25.890625 C 18.855469 30.613281 14.988281 34.4375 10.21875 34.4375 C 5.449219 34.4375 1.582031 30.613281 1.582031 25.890625 "/>
<path style=" stroke:none;fill-rule:nonzero;fill:rgb(92.941176%,10.980392%,14.117647%);fill-opacity:1;" d="M 2.222656 25.890625 C 2.222656 21.519531 5.804688 17.972656 10.21875 17.972656 C 14.632812 17.972656 18.214844 21.519531 18.214844 25.890625 C 18.214844 30.265625 14.632812 33.808594 10.21875 33.808594 C 5.804688 33.808594 2.222656 30.265625 2.222656 25.890625 "/>
<path style=" stroke:none;fill-rule:nonzero;fill:rgb(13.72549%,12.156863%,12.54902%);fill-opacity:1;" d="M 18.621094 20.78125 C 18.457031 20.613281 18.308594 20.382812 18.308594 20.382812 C 16.535156 17.84375 13.574219 16.171875 10.214844 16.171875 L 10.199219 16.195312 C 10.066406 16.21875 9.933594 16.300781 9.746094 16.40625 C 9.449219 16.558594 9.132812 16.570312 8.824219 16.585938 C 8.578125 16.570312 8.75 16.265625 8.597656 16.316406 C 8.425781 16.363281 8.039062 16.496094 7.875 16.597656 C 7.859375 16.976562 6.707031 17.367188 6.089844 17.070312 C 6.160156 16.171875 7.671875 15.390625 9.835938 15.066406 C 11.183594 14.269531 11.375 14.0625 12.261719 13.285156 C 12.660156 12.933594 12.84375 12.789062 12.972656 12.765625 C 13.03125 12.738281 12.988281 12.707031 12.941406 12.703125 C 12.820312 12.652344 12.765625 12.570312 12.71875 12.472656 C 12.648438 12.324219 12.695312 12.148438 12.59375 12.058594 C 12.476562 11.976562 12.332031 11.917969 12.316406 11.722656 C 12.308594 11.625 12.300781 11.46875 12.15625 11.457031 C 11.957031 11.460938 11.882812 11.503906 11.863281 11.097656 C 11.851562 10.917969 11.859375 10.628906 11.765625 10.621094 C 11.628906 10.609375 11.496094 11.058594 11.351562 12.15625 C 11.246094 12.957031 10.761719 13.863281 10.597656 13.75 C 10.4375 13.613281 10.570312 12.785156 10.324219 12.417969 C 10.289062 12.351562 10.40625 13.324219 9.664062 14.074219 C 9.5625 14.183594 9.472656 14.117188 9.472656 14.0625 C 9.503906 13.859375 9.601562 12.683594 9.363281 12.324219 C 9.179688 12.027344 8.976562 12.011719 8.683594 11.886719 C 8.441406 11.773438 8.242188 11.46875 8.171875 11.234375 C 7.976562 10.484375 8.324219 9.683594 8.390625 9.425781 C 8.453125 9.179688 8.71875 8.0625 8.652344 7.59375 C 8.546875 7.238281 8.382812 6.917969 8.617188 6.367188 C 8.652344 6.3125 8.683594 6.269531 8.636719 6.21875 C 8.28125 5.953125 8.042969 5.738281 7.945312 5.203125 C 7.886719 4.890625 7.933594 4.75 7.8125 4.480469 C 7.769531 4.371094 7.675781 4.308594 7.707031 4.238281 C 7.785156 4.164062 7.894531 4.164062 8 4.164062 C 8.585938 4.261719 8.9375 4.585938 9.160156 4.941406 C 9.238281 4.792969 9.296875 4.699219 9.40625 4.597656 C 9.382812 4.238281 9.550781 3.964844 9.789062 3.730469 C 9.75 3.285156 10.058594 3.011719 10.273438 2.914062 C 10.308594 2.53125 10.539062 2.253906 10.90625 2 C 11.152344 1.433594 11.519531 1.25 11.734375 1.121094 C 11.964844 0.996094 12.292969 0.847656 12.875 0.761719 C 13.125 0.730469 13.175781 0.882812 13.0625 0.988281 C 12.683594 1.292969 11.800781 2.222656 11.445312 3.253906 C 11.558594 3.054688 11.832031 2.714844 12.171875 2.554688 C 12.367188 2.058594 12.832031 1.800781 13.117188 1.664062 C 13.28125 1.363281 13.644531 0.988281 14.175781 0.875 C 14.769531 0.371094 15.738281 0.386719 15.859375 0.386719 C 16.054688 0.398438 16.300781 0.394531 16.339844 0.574219 C 16.410156 0.828125 13.460938 2.332031 13.007812 5.363281 C 12.992188 5.496094 13.730469 4.671875 14.503906 4.796875 C 14.546875 4.816406 14.582031 4.847656 14.601562 4.890625 C 14.960938 5.660156 14.621094 6.367188 14.707031 6.421875 C 16.238281 7.3125 16.570312 8.4375 17.230469 9.074219 C 18.15625 9.949219 19.242188 9.917969 20.148438 10.566406 C 21.011719 11.167969 22 13.199219 22.503906 13.617188 C 24.679688 15.152344 26.511719 16.496094 27.964844 18.789062 C 28.15625 19.089844 28.277344 19.265625 28.652344 19.300781 C 29.460938 19.28125 30.128906 18.332031 30.667969 17.464844 C 30.699219 17.421875 30.738281 17.40625 30.769531 17.433594 C 30.835938 17.484375 30.800781 17.609375 30.867188 17.617188 C 31.042969 17.644531 31.195312 17.121094 31.375 17.003906 C 31.445312 16.953125 31.554688 16.996094 31.53125 17.085938 C 31.476562 17.285156 31.351562 17.519531 31.339844 17.671875 C 31.339844 17.710938 31.375 17.699219 31.394531 17.675781 C 31.425781 17.636719 31.472656 17.625 31.511719 17.628906 C 31.585938 17.648438 31.578125 17.746094 31.554688 17.789062 C 31.488281 17.914062 31.433594 18.039062 31.425781 18.183594 C 31.421875 18.308594 31.519531 18.21875 31.578125 18.253906 C 31.660156 18.289062 31.644531 18.390625 31.601562 18.507812 C 31.375 19.003906 30.679688 20.816406 29.03125 20.582031 C 28.820312 20.542969 28.714844 20.394531 28.777344 20.625 C 29.199219 22.03125 28.367188 25.085938 28.71875 26.539062 C 28.820312 26.953125 29.296875 27.289062 29.445312 27.507812 C 29.53125 27.589844 29.628906 27.761719 29.652344 27.953125 C 29.761719 29.195312 29.445312 29.3125 30.023438 31.621094 C 30.074219 31.8125 30.066406 31.949219 29.96875 32.0625 C 29.863281 32.179688 29.785156 32.128906 29.753906 32.238281 C 29.679688 32.980469 29.371094 33.570312 28.925781 33.730469 C 28.316406 33.9375 27.917969 33.652344 28.003906 33.144531 C 28.179688 32.222656 28.625 32.046875 28.78125 31.105469 C 28.898438 30.3125 28.414062 29.496094 28.25 29.21875 C 28.09375 28.964844 27.707031 28.269531 27.226562 27.828125 C 27.160156 27.75 27.109375 27.769531 27.085938 27.835938 C 26.902344 28.410156 27.097656 29.585938 27.179688 29.890625 C 27.3125 30.378906 27.46875 30.976562 27.441406 31.375 C 27.414062 31.765625 27.210938 32.003906 27.027344 32.183594 C 26.738281 32.457031 26.921875 32.917969 26.382812 33.140625 C 25.992188 33.300781 25.699219 33.230469 25.566406 33.164062 C 25.445312 33.085938 25.382812 33.050781 25.371094 32.902344 C 25.371094 32.722656 25.390625 32.464844 25.566406 32.25 C 25.851562 31.894531 26.234375 31.390625 26.300781 30.441406 C 26.425781 28.726562 24.886719 26.773438 24.789062 26.75 C 24.6875 26.730469 24.722656 26.816406 24.644531 26.792969 C 24.492188 26.667969 24.308594 26.207031 24.148438 26.035156 C 24.058594 25.914062 23.835938 25.964844 23.800781 25.792969 C 23.785156 25.660156 23.730469 25.527344 23.621094 25.46875 C 23.550781 25.429688 23.496094 25.5 23.433594 25.464844 C 23.246094 25.320312 23.238281 24.792969 23.175781 24.761719 C 23.109375 24.730469 23.046875 24.785156 22.996094 24.761719 C 22.859375 24.703125 22.894531 24.261719 22.78125 23.949219 C 22.730469 23.785156 22.5625 23.792969 22.515625 23.59375 C 22.441406 23.238281 22.453125 22.773438 22.066406 22.597656 C 21.667969 22.425781 21.414062 22.660156 21.226562 22.378906 C 21.125 22.257812 21.144531 22.058594 20.886719 22.03125 C 20.75 21.964844 20.695312 21.796875 20.574219 21.835938 C 20.507812 21.855469 20.5625 21.980469 20.425781 22.066406 C 20.238281 22.078125 20.054688 21.585938 19.800781 21.609375 C 19.714844 21.640625 19.683594 21.734375 19.585938 21.742188 C 19.476562 21.746094 19.464844 21.191406 19.105469 21.054688 C 19.042969 21.03125 18.996094 21.148438 18.9375 21.070312 C 18.9375 21.070312 18.792969 20.960938 18.621094 20.78125 "/>
<path style="fill:none;stroke-width:0.148;stroke-linecap:butt;stroke-linejoin:miter;stroke:rgb(13.72549%,12.156863%,12.54902%);stroke-opacity:1;stroke-miterlimit:4;" d="M 0.00155545 0.00263578 C -0.521391 0.543442 -0.994534 1.285478 -0.994534 1.285478 C -6.647339 9.460451 -16.085284 14.843357 -26.793241 14.843357 L -26.843046 14.767896 C -27.266384 14.692435 -27.689722 14.42832 -28.287375 14.088744 C -29.23366 13.598246 -30.2422 13.560515 -31.225838 13.510208 C -32.010258 13.560515 -31.462409 14.541512 -31.948002 14.378013 C -32.495851 14.22709 -33.728512 13.799476 -34.251458 13.472477 C -34.301263 12.252519 -37.974342 10.994831 -39.941617 11.950674 C -39.717497 14.843357 -34.898916 17.358734 -28.000999 18.402615 C -23.705365 20.968299 -23.095261 21.634874 -20.268858 24.137673 C -18.998844 25.269593 -18.413642 25.734938 -18.002755 25.810399 C -17.815988 25.898437 -17.952951 25.999052 -18.102364 26.011629 C -18.488348 26.175128 -18.662664 26.439243 -18.812077 26.753665 C -19.036197 27.231587 -18.886784 27.797546 -19.210513 28.086815 C -19.584046 28.350929 -20.044738 28.539582 -20.094542 29.168426 C -20.119444 29.482849 -20.144347 29.985924 -20.605038 30.023655 C -21.240045 30.011078 -21.476616 29.872732 -21.538871 31.180728 C -21.576225 31.759264 -21.551322 32.689954 -21.850149 32.715107 C -22.285938 32.752838 -22.709276 31.306497 -23.169967 27.772393 C -23.506147 25.194132 -25.050085 22.276295 -25.573032 22.641024 C -26.083528 23.081215 -25.66019 25.747514 -26.44461 26.929741 C -26.55667 27.143548 -26.183137 24.011905 -28.548848 21.597143 C -28.872577 21.24499 -29.158953 21.458797 -29.158953 21.634874 C -29.059344 22.288872 -28.748066 26.074513 -29.507584 27.231587 C -30.092787 28.18743 -30.740244 28.237737 -31.674078 28.640197 C -32.446047 29.004927 -33.081054 29.985924 -33.305174 30.740537 C -33.92773 33.155298 -32.81958 35.733559 -32.607911 36.563633 C -32.408694 37.355977 -31.562018 40.952965 -31.773687 42.462191 C -32.109867 43.606688 -32.632814 44.637992 -31.885747 46.411333 C -31.773687 46.587409 -31.674078 46.725755 -31.823491 46.889254 C -32.956543 47.744482 -33.716061 48.436211 -34.027338 50.159244 C -34.214105 51.165394 -34.064692 51.618162 -34.450676 52.485967 C -34.587639 52.83812 -34.886465 53.03935 -34.786856 53.265734 C -34.537834 53.504694 -34.189203 53.504694 -33.853023 53.504694 C -31.985356 53.190272 -30.864756 52.146391 -30.155042 51.001895 C -29.90602 51.479816 -29.719253 51.781661 -29.370622 52.10866 C -29.445329 53.265734 -28.909931 54.146115 -28.150413 54.900728 C -28.274924 56.334493 -27.291286 57.214875 -26.606475 57.529297 C -26.494415 58.761831 -25.759799 59.65479 -24.589394 60.472287 C -23.804974 62.295935 -22.634569 62.887049 -21.949758 63.302086 C -21.215142 63.704546 -20.169249 64.182468 -18.314033 64.459159 C -17.517162 64.559774 -17.355297 64.069276 -17.716379 63.7297 C -18.924137 62.748703 -21.738089 59.755405 -22.871141 56.435108 C -22.510058 57.076529 -21.63848 58.170718 -20.555233 58.68637 C -19.932678 60.283634 -18.450995 61.113708 -17.542064 61.553899 C -17.019117 62.522319 -15.861163 63.7297 -14.167812 64.094429 C -12.275243 65.716847 -9.187367 65.66654 -8.801382 65.66654 C -8.178826 65.628809 -7.394406 65.641386 -7.269895 65.062849 C -7.045775 64.245352 -16.446366 59.403252 -17.890695 49.643591 C -17.940499 49.215977 -15.587239 51.8697 -13.121918 51.467239 C -12.984956 51.404355 -12.872896 51.30374 -12.810641 51.165394 C -11.665138 48.687748 -12.748385 46.411333 -12.474461 46.235256 C -7.593624 43.367727 -6.535279 39.745585 -4.431041 37.695553 C -1.480127 34.878331 1.981283 34.978946 4.869941 32.891184 C 7.621637 30.954344 10.771769 24.414365 12.377963 23.068638 C 19.313233 18.125924 25.152805 13.799476 29.78462 6.416846 C 30.394724 5.448426 30.780709 4.882466 31.976016 4.769274 C 34.553396 4.832159 36.682537 7.888341 38.40079 10.680409 C 38.500399 10.818755 38.62491 10.869062 38.724519 10.781024 C 38.936188 10.617525 38.824128 10.215064 39.035797 10.189911 C 39.596097 10.101872 40.081691 11.787175 40.654442 12.164481 C 40.878562 12.327981 41.227193 12.189635 41.152486 11.900367 C 40.978171 11.258946 40.579735 10.504333 40.542382 10.013834 C 40.542382 9.888065 40.654442 9.925796 40.716697 10.001257 C 40.816306 10.127026 40.96572 10.164757 41.090231 10.15218 C 41.326802 10.089296 41.3019 9.774874 41.227193 9.636528 C 41.015524 9.234068 40.841209 8.831607 40.816306 8.366263 C 40.803855 7.963802 41.115133 8.253071 41.3019 8.139879 C 41.563373 8.026687 41.513569 7.699688 41.376606 7.322381 C 40.654442 5.725117 38.438144 -0.110556 33.183774 0.644057 C 32.511413 0.769826 32.175233 1.247747 32.374451 0.505711 C 33.719172 -4.021967 31.067084 -13.857089 32.187685 -18.535689 C 32.511413 -19.868839 34.030449 -20.950451 34.503592 -21.654756 C 34.777516 -21.918871 35.088794 -22.472253 35.163501 -23.088521 C 35.512132 -27.087969 34.503592 -27.465276 36.346357 -34.898213 C 36.508221 -35.514481 36.483319 -35.954672 36.172041 -36.319401 C 35.835861 -36.696708 35.586839 -36.533208 35.48723 -36.885361 C 35.250659 -39.274969 34.267021 -41.174078 32.847594 -41.68973 C 30.90522 -42.356305 29.635206 -41.438192 29.909131 -39.803198 C 30.469431 -36.835053 31.888858 -36.269094 32.386902 -33.238065 C 32.760436 -30.684958 31.216498 -28.056389 30.693551 -27.163431 C 30.195506 -26.345933 28.962846 -24.107248 27.431359 -22.68606 C 27.21969 -22.434523 27.057826 -22.497407 26.983119 -22.711214 C 26.397917 -24.560016 27.020472 -28.345658 27.281946 -29.326654 C 27.705284 -30.898765 28.203328 -32.823028 28.11617 -34.10587 C 28.029013 -35.363558 27.381555 -36.130748 26.796352 -36.709284 C 25.87497 -37.589666 26.460172 -39.073738 24.741918 -39.790621 C 23.496807 -40.306273 22.562974 -40.079889 22.139636 -39.866082 C 21.753651 -39.614544 21.554433 -39.501352 21.51708 -39.023431 C 21.51708 -38.444894 21.579336 -37.61482 22.139636 -36.923091 C 23.048567 -35.778595 24.268776 -34.156177 24.480445 -31.099995 C 24.878881 -25.578743 19.973142 -19.290302 19.661864 -19.214841 C 19.338135 -19.151956 19.450195 -19.428648 19.201173 -19.353187 C 18.715579 -18.950726 18.130377 -17.466654 17.619881 -16.913271 C 17.333506 -16.523388 16.623792 -16.686887 16.511732 -16.133505 C 16.461928 -15.705891 16.287612 -15.278277 15.938981 -15.089623 C 15.714861 -14.963854 15.540545 -15.190238 15.341328 -15.077046 C 14.743674 -14.611702 14.718772 -12.913823 14.519554 -12.813208 C 14.307885 -12.712593 14.108667 -12.888669 13.946803 -12.813208 C 13.511014 -12.624554 13.623074 -11.203367 13.261992 -10.197216 C 13.100127 -9.668987 12.564729 -9.694141 12.415316 -9.05272 C 12.178745 -7.908223 12.216098 -6.411574 10.983438 -5.845615 C 9.713424 -5.292232 8.904102 -6.046845 8.306448 -5.141309 C 7.982719 -4.751426 8.044975 -4.110005 7.223201 -4.021967 C 6.787412 -3.80816 6.613097 -3.267354 6.227112 -3.393123 C 6.015443 -3.456007 6.189759 -3.858467 5.75397 -4.135159 C 5.156317 -4.172889 4.571114 -2.588202 3.761792 -2.663663 C 3.487867 -2.764278 3.388258 -3.066124 3.076981 -3.091277 C 2.728349 -3.103854 2.690996 -1.317937 1.545494 -0.877746 C 1.346276 -0.802285 1.196862 -1.179591 1.010096 -0.928054 C 1.010096 -0.928054 0.549404 -0.575901 0.00155545 0.00263578 Z M 0.00155545 0.00263578 " transform="matrix(0.313727,0,0,-0.31059,18.620606,20.782069)"/>
<path style=" stroke:none;fill-rule:nonzero;fill:rgb(100%,100%,100%);fill-opacity:1;" d="M 9.945312 3.898438 C 10.101562 3.707031 10.414062 3.617188 10.398438 3.554688 C 10.371094 3.5 10.257812 3.550781 10.171875 3.554688 C 10.132812 3.5625 10.085938 3.554688 10.089844 3.511719 C 10.234375 3.003906 10.734375 2.914062 10.886719 2.753906 C 10.90625 2.722656 10.886719 2.722656 10.847656 2.699219 C 10.769531 2.699219 10.640625 2.78125 10.640625 2.707031 C 10.703125 2.203125 11.324219 1.960938 11.4375 1.921875 C 11.46875 1.894531 11.441406 1.859375 11.402344 1.855469 C 11.351562 1.859375 11.308594 1.890625 11.300781 1.828125 C 11.359375 1.578125 11.699219 1.378906 11.914062 1.269531 C 12.136719 1.179688 12.574219 1.046875 12.574219 1.113281 C 12.574219 1.140625 12.230469 1.304688 12.117188 1.472656 C 12.023438 1.613281 11.9375 1.703125 11.929688 1.921875 C 11.578125 2.09375 11.402344 2.480469 11.378906 2.847656 C 11.128906 2.972656 10.9375 3.421875 11.019531 3.609375 C 10.734375 3.882812 10.589844 4.285156 10.605469 4.683594 C 9.984375 5.492188 10.167969 5.800781 10.855469 6.050781 C 10.957031 6.082031 11.054688 6.089844 11.074219 6.039062 C 11.097656 5.992188 11.011719 5.960938 10.980469 5.894531 C 10.609375 5.066406 11.078125 4.65625 11.738281 4.378906 C 11.789062 4.355469 11.75 4.296875 11.671875 4.296875 C 11.496094 4.296875 11.335938 4.339844 11.3125 4.285156 C 11.21875 4.015625 11.925781 3.457031 12.273438 3.351562 C 12.417969 3.308594 12.355469 3.234375 12.296875 3.246094 C 12.203125 3.238281 12.058594 3.289062 12.011719 3.167969 C 12.101562 2.867188 12.949219 2.464844 13.074219 2.390625 C 13.148438 2.34375 13.183594 2.257812 12.808594 2.332031 C 12.773438 2.335938 12.734375 2.335938 12.75 2.285156 C 12.820312 2.066406 13.613281 1.761719 14.015625 1.621094 C 14.078125 1.59375 14.097656 1.496094 13.90625 1.53125 C 13.839844 1.542969 13.714844 1.585938 13.6875 1.539062 C 13.714844 1.242188 14.589844 1.011719 14.902344 0.945312 C 14.972656 0.921875 14.984375 0.882812 14.921875 0.851562 C 14.824219 0.820312 14.667969 0.898438 14.726562 0.796875 C 14.960938 0.648438 15.585938 0.648438 15.800781 0.679688 C 15.863281 0.691406 15.875 0.707031 15.882812 0.71875 C 15.8125 0.875 14.765625 1.175781 14.636719 1.800781 C 14.324219 1.929688 14.015625 2.226562 13.980469 2.480469 C 13.816406 2.566406 13.484375 2.835938 13.464844 3.207031 C 13.285156 3.339844 12.8125 3.757812 12.96875 4.261719 C 12.714844 4.496094 12.519531 4.734375 12.53125 5.394531 C 12.535156 5.621094 12.238281 5.988281 11.929688 6.074219 C 11.84375 6.109375 11.878906 6.179688 11.941406 6.195312 C 12.453125 6.34375 12.933594 6.066406 13.121094 5.894531 C 13.714844 5.332031 14.109375 5.128906 14.375 5.097656 C 14.425781 5.085938 14.425781 5.121094 14.433594 5.148438 C 14.46875 5.292969 14.5625 5.648438 14.433594 6.152344 C 14.265625 6.777344 13.78125 7.070312 13.644531 7.238281 C 13.617188 7.265625 13.710938 7.53125 13.660156 7.667969 C 13.605469 7.839844 13.667969 7.945312 13.734375 7.972656 C 13.910156 8.039062 14.035156 7.390625 14.136719 7.40625 C 14.222656 7.410156 14.207031 7.550781 14.308594 7.601562 C 14.363281 7.621094 14.441406 7.605469 14.449219 7.546875 C 14.464844 7.363281 14.53125 6.921875 14.574219 6.875 C 14.609375 6.835938 14.707031 7.035156 14.714844 7.15625 C 14.71875 7.660156 14.433594 8.089844 14.601562 8.4375 C 14.640625 8.511719 14.722656 8.507812 14.78125 8.453125 C 14.9375 8.289062 15.042969 7.695312 15.382812 7.621094 C 15.84375 7.519531 16.300781 8.769531 15.976562 9.105469 C 15.816406 9.238281 15.621094 9.121094 15.425781 9.226562 C 15.214844 9.347656 15.230469 9.8125 15.089844 10.007812 C 15.003906 10.089844 14.902344 10.105469 14.703125 10.121094 C 14.285156 10.152344 14.414062 11.335938 14.476562 11.546875 C 14.519531 11.671875 14.609375 11.644531 14.667969 11.605469 C 14.726562 11.554688 14.773438 11.308594 14.785156 11.082031 C 14.800781 11.011719 14.929688 10.984375 15.019531 10.894531 C 15.117188 10.820312 15.066406 10.734375 15.125 10.664062 C 15.210938 10.570312 15.292969 10.652344 15.363281 10.546875 C 15.542969 10.398438 15.414062 10.164062 15.5625 10.066406 C 15.773438 9.929688 15.964844 9.996094 16.15625 9.792969 C 16.269531 9.664062 16.285156 9.394531 16.449219 9.347656 C 17.3125 9.328125 18.175781 10.316406 18.320312 10.609375 C 18.75 11.484375 18.066406 12.808594 18.53125 13.0625 C 19.121094 13.402344 18.992188 14.058594 18.929688 14.226562 C 18.800781 14.5625 17.859375 14.988281 17.738281 15.765625 C 17.675781 16.515625 18.070312 16.359375 18.097656 16.265625 C 18.128906 16.171875 18.15625 16.050781 18.203125 15.957031 C 18.238281 15.875 18.355469 15.910156 18.367188 15.992188 C 18.390625 16.0625 18.550781 16.261719 18.792969 15.820312 C 18.941406 15.539062 19.347656 15.179688 19.652344 14.972656 C 19.953125 14.761719 20.027344 14.101562 20.078125 13.953125 C 20.117188 13.824219 20.226562 13.824219 20.242188 13.683594 C 20.253906 13.539062 19.980469 13.0625 20.144531 12.722656 C 20.21875 12.605469 20.402344 12.527344 20.539062 12.683594 C 20.683594 12.847656 20.449219 13.382812 20.710938 13.394531 C 20.929688 13.402344 20.957031 13.144531 21.144531 13.160156 C 21.339844 13.199219 20.988281 13.90625 21.183594 14.015625 C 21.300781 14.0625 21.449219 14.007812 21.507812 14.125 C 21.5625 14.320312 21.210938 14.675781 21.515625 14.675781 C 24.738281 14.617188 25.914062 17.128906 25.707031 17.585938 C 25.609375 17.761719 25.222656 17.5 25.167969 17.675781 C 24.871094 18.660156 25.539062 19.402344 25.730469 19.53125 C 25.785156 19.5625 25.886719 19.515625 25.878906 19.394531 C 25.847656 19.113281 25.691406 18.964844 25.722656 18.6875 C 25.777344 18.199219 26.878906 18.5 26.933594 18.871094 C 26.953125 19.011719 26.960938 19.125 27.085938 19.242188 C 27.242188 19.390625 27.617188 19.222656 27.65625 19.546875 C 27.703125 20.179688 26.910156 20.214844 26.359375 20.605469 C 26.097656 20.804688 26.15625 20.945312 26.378906 21.015625 C 26.644531 21.085938 27.066406 21.011719 27.277344 21.320312 C 27.582031 21.75 27.183594 22.648438 27.160156 23.027344 C 27.140625 23.410156 27.832031 24.535156 27.847656 25.109375 C 27.898438 25.394531 27.699219 25.546875 27.453125 25.3125 C 27.21875 25.066406 26.96875 24.691406 26.785156 24.40625 C 26.730469 24.316406 26.589844 24.308594 26.59375 24.492188 C 26.589844 24.992188 28.964844 28.050781 29.027344 28.550781 C 29.082031 28.816406 28.933594 29.039062 28.996094 29.296875 C 29.015625 29.371094 29.113281 29.328125 29.121094 29.386719 C 29.132812 29.558594 28.960938 29.816406 29.207031 29.9375 C 29.332031 30.273438 29.207031 30.414062 29.273438 30.691406 C 29.304688 30.96875 29.4375 31.355469 29.46875 31.632812 C 29.398438 32.425781 29.09375 32.730469 28.851562 32.847656 C 28.640625 32.953125 28.554688 32.765625 28.574219 32.605469 C 28.628906 32.128906 29.164062 31.28125 28.949219 30.324219 C 28.402344 27.871094 25.75 26.128906 25.304688 25.195312 C 25.164062 24.84375 24.65625 24.804688 24.625 24.390625 C 24.574219 24.257812 24.441406 24.296875 24.328125 24.175781 C 24.230469 24.066406 24.234375 23.746094 24.132812 23.511719 C 24.101562 23.4375 24.007812 23.472656 23.941406 23.402344 C 23.5625 22.910156 23.644531 20.511719 23.308594 20.183594 C 23.058594 20.042969 22.867188 20.425781 22.558594 20.457031 C 22.320312 20.480469 21.929688 19.902344 21.789062 20.046875 C 21.671875 20.164062 21.722656 20.457031 21.730469 20.503906 C 21.742188 20.542969 21.800781 20.75 21.722656 20.75 C 21.648438 20.753906 21.546875 20.605469 21.246094 20.484375 C 21.046875 20.414062 20.859375 20.484375 20.765625 20.425781 C 20.5625 20.207031 20.773438 19.75 20.429688 19.617188 C 20.332031 19.582031 20.316406 19.339844 20.265625 19.242188 C 20.21875 19.171875 20.121094 19.179688 20.078125 19.125 C 19.984375 18.988281 19.917969 18.816406 19.878906 18.621094 C 19.84375 18.488281 19.53125 18.652344 19.503906 18.441406 C 19.476562 18.300781 19.308594 18.257812 19.179688 18.234375 C 19.019531 18.214844 19.085938 17.871094 18.949219 17.816406 C 18.890625 17.789062 18.871094 17.855469 18.808594 17.824219 C 18.746094 17.746094 18.757812 17.671875 18.675781 17.617188 C 18.609375 17.570312 18.542969 17.648438 18.492188 17.59375 C 18.292969 17.351562 18.453125 16.949219 18.347656 16.828125 C 18.277344 16.753906 18.160156 16.835938 18.058594 16.75 C 17.957031 16.671875 17.9375 16.546875 17.878906 16.527344 C 17.699219 16.523438 17.640625 16.492188 17.566406 16.40625 C 17.242188 15.957031 17.28125 15.441406 17.167969 15.257812 C 17.097656 15.136719 16.988281 15.0625 16.90625 15.289062 C 16.742188 15.679688 16.761719 17.132812 16.289062 17.332031 C 15.925781 17.507812 15.601562 16.886719 15.425781 16.777344 C 15.34375 16.734375 15.328125 16.867188 15.273438 16.871094 C 15.109375 16.808594 15.144531 16.613281 15.011719 16.535156 C 14.882812 16.480469 14.9375 16.660156 14.863281 16.644531 C 14.734375 16.527344 14.734375 16.214844 14.617188 16.15625 C 14.527344 16.121094 14.472656 16.230469 14.417969 16.183594 C 14.234375 16.023438 14.363281 15.667969 14.136719 15.554688 C 14.042969 15.523438 14.054688 15.683594 13.957031 15.640625 C 13.859375 15.605469 13.875 15.097656 13.578125 15.144531 C 13.53125 15.152344 13.546875 15.082031 13.515625 15.054688 C 13.425781 15.042969 13.367188 15.167969 13.273438 15.085938 C 13.148438 14.921875 13.050781 14.839844 12.96875 14.78125 C 12.84375 14.675781 12.65625 14.808594 12.5 14.691406 C 11.953125 14.453125 10.703125 15.402344 10.136719 15.957031 C 9.929688 15.765625 9.652344 15.96875 9.417969 15.992188 C 9.335938 16.011719 9.070312 16 9.277344 15.71875 C 9.789062 15.179688 10.164062 15.207031 11.128906 14.523438 C 11.835938 14.011719 12.46875 13.511719 12.695312 13.367188 C 12.882812 13.269531 13.183594 13.191406 13.433594 13.515625 C 13.785156 13.972656 14.574219 14.738281 14.910156 14.886719 C 15.597656 15.183594 15.632812 14.660156 15.71875 14.480469 C 15.789062 14.296875 15.835938 14.445312 15.832031 14.621094 C 15.832031 14.734375 15.875 14.894531 15.96875 14.910156 C 16.15625 14.933594 16.160156 14.789062 16.1875 14.699219 C 16.402344 13.859375 17.238281 12.851562 17.566406 13.058594 C 17.808594 13.210938 17.949219 13.210938 18.007812 12.921875 C 18.070312 12.550781 17.78125 12.210938 17.703125 11.820312 C 17.625 11.367188 17.671875 10.769531 17.5 10.6875 C 17.398438 10.644531 17.257812 10.746094 17.179688 10.855469 C 17.074219 10.992188 17.074219 11.140625 17.035156 11.308594 C 17.019531 11.402344 16.640625 11.503906 16.597656 11.992188 C 16.59375 12.078125 16.449219 11.902344 16.34375 11.992188 C 16.132812 12.148438 16.171875 12.941406 16.101562 12.988281 C 16.023438 12.996094 15.929688 12.90625 15.894531 13.023438 C 15.914062 13.152344 15.839844 13.460938 15.78125 13.484375 C 15.726562 13.5 15.671875 13.4375 15.597656 13.480469 C 15.414062 13.628906 15.488281 13.839844 15.3125 14.042969 C 15.207031 14.171875 15.132812 14.082031 15.121094 13.964844 C 15.09375 13.769531 14.9375 13.476562 14.796875 13.335938 C 14.390625 12.921875 14.640625 12.226562 14.066406 11.941406 C 13.894531 11.855469 13.886719 11.769531 13.867188 11.617188 C 13.859375 11.449219 13.761719 11.332031 13.671875 11.308594 C 13.515625 11.265625 13.488281 11.179688 13.480469 11.070312 C 13.496094 10.773438 13.273438 10.761719 13.152344 10.734375 C 12.875 10.710938 12.863281 10.65625 12.953125 9.960938 C 12.976562 9.796875 12.980469 9.601562 12.925781 9.445312 C 12.777344 9.230469 12.457031 9.367188 12.5 9.019531 C 12.535156 8.789062 12.949219 8.492188 13.128906 8.300781 C 13.234375 8.183594 13.304688 7.871094 12.933594 7.945312 C 12.089844 8.167969 11.417969 9.644531 11.261719 9.929688 C 10.652344 11.03125 10.125 11.472656 9.628906 11.644531 C 9.398438 11.722656 8.59375 11.796875 8.429688 11.019531 C 8.347656 10.609375 8.449219 10.226562 8.636719 9.585938 C 9.449219 6.789062 8.539062 7.324219 8.984375 6.390625 C 9.269531 6.074219 9.675781 6.117188 10.089844 6.066406 C 10.179688 6.054688 10.148438 5.9375 10.125 5.902344 C 10.109375 5.871094 10.015625 5.832031 9.886719 5.808594 C 9.761719 5.785156 9.492188 5.550781 9.46875 5.292969 C 9.445312 5.011719 9.625 4.839844 9.746094 4.71875 C 9.917969 4.546875 10.042969 4.53125 10.046875 4.492188 C 10.035156 4.34375 9.71875 4.554688 9.691406 4.492188 C 9.625 4.261719 9.816406 4.046875 9.945312 3.898438 "/>
<path style=" stroke:none;fill-rule:nonzero;fill:rgb(100%,100%,100%);fill-opacity:1;" d="M 9.070312 5.355469 C 9.058594 5.457031 9.058594 5.613281 9.195312 5.9375 C 9.058594 5.957031 8.976562 6.078125 8.855469 6.011719 C 8.480469 5.808594 8.269531 5.429688 8.148438 5.050781 C 8.070312 4.832031 8.078125 4.570312 7.957031 4.371094 C 8.601562 4.414062 9.078125 5.277344 9.070312 5.355469 "/>
<path style=" stroke:none;fill-rule:nonzero;fill:rgb(13.72549%,12.156863%,12.54902%);fill-opacity:1;" d="M 14.289062 5.457031 C 14.324219 5.445312 14.335938 5.46875 14.335938 5.480469 C 14.308594 5.9375 13.820312 6.851562 13.183594 7.011719 C 13.148438 7.019531 13.125 7.015625 13.109375 6.980469 C 13.054688 6.664062 13.253906 6.125 13.773438 5.929688 C 14.027344 5.828125 14.148438 5.660156 14.289062 5.457031 "/>
<path style=" stroke:none;fill-rule:nonzero;fill:rgb(13.72549%,12.156863%,12.54902%);fill-opacity:1;" d="M 12.148438 7.246094 C 12.179688 7.363281 12.15625 7.375 12.054688 7.304688 C 11.722656 6.960938 11.4375 7.050781 11.238281 7.15625 C 11.140625 7.195312 11.109375 7.191406 11.136719 7.105469 C 11.445312 6.640625 12.003906 6.871094 12.148438 7.246094 "/>
<path style=" stroke:none;fill-rule:nonzero;fill:rgb(13.72549%,12.156863%,12.54902%);fill-opacity:1;" d="M 10.421875 7.3125 C 10.589844 7.550781 10.515625 7.921875 10.371094 8.199219 C 10.253906 8.410156 10.066406 8.753906 9.992188 8.902344 C 9.960938 8.992188 9.894531 8.996094 9.839844 8.972656 C 9.785156 8.960938 10.042969 8.535156 10.117188 8.035156 C 10.148438 7.832031 10.09375 7.53125 10.242188 7.304688 C 10.296875 7.230469 10.371094 7.257812 10.421875 7.3125 "/>
<path style=" stroke:none;fill-rule:nonzero;fill:rgb(13.72549%,12.156863%,12.54902%);fill-opacity:1;" d="M 11.828125 7.535156 C 11.949219 7.8125 11.652344 7.949219 11.476562 7.984375 C 11.355469 8.003906 11.265625 7.972656 11.160156 7.90625 C 11.105469 7.863281 11.136719 7.835938 11.089844 7.8125 C 10.996094 7.808594 11.019531 7.867188 10.917969 7.890625 C 10.847656 7.898438 10.84375 7.867188 10.890625 7.796875 C 11.003906 7.609375 11.066406 7.480469 11.25 7.40625 C 11.425781 7.335938 11.679688 7.265625 11.828125 7.535156 "/>
<path style=" stroke:none;fill-rule:nonzero;fill:rgb(13.72549%,12.156863%,12.54902%);fill-opacity:1;" d="M 10.851562 8.703125 C 10.996094 9.261719 10.890625 9.476562 10.761719 9.609375 C 10.710938 9.652344 10.410156 9.707031 10.371094 9.324219 C 10.519531 9.140625 10.613281 8.867188 10.703125 8.671875 C 10.769531 8.546875 10.808594 8.539062 10.851562 8.703125 "/>
<path style=" stroke:none;fill-rule:nonzero;fill:rgb(13.72549%,12.156863%,12.54902%);fill-opacity:1;" d="M 9.730469 10.246094 C 9.664062 10.597656 9.519531 10.773438 9.269531 10.828125 C 8.976562 10.863281 8.851562 10.542969 8.886719 10.546875 C 9.171875 10.597656 9.472656 10.4375 9.652344 10.207031 C 9.695312 10.148438 9.738281 10.191406 9.730469 10.246094 "/>
<path style=" stroke:none;fill-rule:nonzero;fill:rgb(13.72549%,12.156863%,12.54902%);fill-opacity:1;" d="M 24.097656 15.667969 C 24.257812 15.71875 24.324219 15.882812 24.269531 15.976562 C 24.203125 16.128906 24.066406 16.230469 24.0625 16.378906 C 24.058594 16.5 24.035156 16.574219 23.9375 16.605469 C 23.757812 16.625 23.648438 16.25 23.488281 16.511719 C 23.398438 16.644531 23.214844 16.554688 23.191406 16.480469 C 23.160156 16.363281 23.089844 16.246094 22.972656 16.242188 C 22.59375 16.230469 22.5 15.644531 22.558594 15.484375 C 22.851562 14.804688 23.570312 15.488281 24.097656 15.667969 "/>
<path style=" stroke:none;fill-rule:nonzero;fill:rgb(100%,100%,100%);fill-opacity:1;" d="M 9.179688 15.554688 C 8.980469 15.699219 8.84375 15.886719 8.734375 16.089844 C 8.496094 16.128906 8.109375 16.289062 7.832031 16.410156 C 7.730469 16.464844 7.339844 16.492188 6.992188 16.53125 C 6.9375 16.527344 6.925781 16.496094 6.925781 16.453125 C 6.898438 16.1875 8.546875 15.523438 9.179688 15.457031 C 9.238281 15.457031 9.269531 15.484375 9.179688 15.554688 "/>
<path style=" stroke:none;fill-rule:nonzero;fill:rgb(100%,100%,100%);fill-opacity:1;" d="M 30.949219 18.929688 C 31 19.0625 30.855469 19.230469 30.707031 19.394531 C 30.5625 19.5625 29.933594 20.003906 29.40625 19.980469 C 29.261719 19.957031 29.105469 19.800781 29.15625 19.609375 C 29.207031 19.445312 29.710938 19.402344 30.101562 19.269531 C 30.386719 19.171875 30.519531 19.113281 30.746094 18.945312 C 30.886719 18.835938 30.917969 18.902344 30.949219 18.929688 "/>
<path style=" stroke:none;fill-rule:nonzero;fill:rgb(100%,100%,100%);fill-opacity:1;" d="M 26.46875 28.667969 C 26.5625 28.671875 26.546875 28.640625 26.632812 28.667969 C 26.707031 28.671875 26.703125 28.984375 26.691406 29.148438 C 26.675781 29.25 26.652344 29.421875 26.757812 29.5 C 26.855469 29.582031 26.632812 29.882812 26.792969 30.027344 C 26.882812 30.152344 26.691406 30.472656 26.839844 30.652344 C 26.910156 30.652344 26.964844 30.671875 27 30.730469 C 26.9375 31.101562 27.105469 31.6875 27.046875 31.859375 C 26.882812 32.113281 26.757812 32.089844 26.617188 32.511719 C 26.40625 32.917969 25.808594 32.664062 25.925781 32.335938 C 26.347656 31.625 26.503906 30.839844 26.527344 30.496094 C 26.597656 29.601562 26.121094 28.183594 26.070312 27.984375 C 26.058594 27.808594 26.097656 27.699219 26.238281 27.859375 C 26.449219 28.1875 26.371094 28.648438 26.46875 28.667969 "/>
<path style=" stroke:none;fill-rule:nonzero;fill:rgb(100%,100%,100%);fill-opacity:1;" d="M 11.0625 21.078125 L 11.042969 21.164062 C 11.042969 21.164062 10.585938 20.488281 10.488281 20.347656 C 10.472656 20.542969 10.257812 23.199219 10.257812 23.199219 L 10.183594 23.199219 C 10.183594 23.199219 9.972656 20.546875 9.957031 20.347656 C 9.859375 20.488281 9.402344 21.164062 9.402344 21.164062 C 9.402344 21.164062 8.453125 16.84375 8.382812 16.53125 C 8.316406 16.84375 7.367188 21.164062 7.367188 21.164062 C 7.367188 21.164062 6.910156 20.488281 6.8125 20.347656 C 6.796875 20.554688 5.839844 32.464844 5.839844 32.464844 C 5.839844 32.464844 5.839844 32.472656 5.835938 32.480469 C 7.136719 33.328125 8.652344 33.78125 10.214844 33.78125 L 10.226562 33.78125 C 11.792969 33.78125 13.304688 33.328125 14.605469 32.480469 L 14.605469 32.464844 C 14.605469 32.464844 13.726562 21.535156 13.632812 20.347656 C 13.535156 20.488281 13.078125 21.164062 13.078125 21.164062 C 13.078125 21.164062 12.128906 16.839844 12.058594 16.53125 C 11.992188 16.839844 11.0625 21.078125 11.0625 21.078125 "/>
<path style=" stroke:none;fill-rule:nonzero;fill:rgb(13.72549%,12.156863%,12.54902%);fill-opacity:1;" d="M 14.640625 32.464844 L 13.660156 20.238281 L 13.097656 21.070312 L 12.058594 16.355469 L 11.023438 21.070312 L 10.460938 20.238281 L 10.21875 23.195312 L 9.984375 20.238281 L 9.417969 21.070312 L 8.382812 16.355469 L 7.347656 21.070312 L 6.785156 20.238281 L 5.800781 32.464844 L 5.800781 32.5 C 7.0625 33.332031 8.585938 33.816406 10.214844 33.816406 L 10.226562 33.816406 C 11.863281 33.816406 13.378906 33.332031 14.640625 32.5 Z M 14.640625 32.464844 "/>
<path style=" stroke:none;fill-rule:nonzero;fill:rgb(100%,100%,100%);fill-opacity:1;" d="M 18.5625 25.457031 L 17.304688 21.140625 L 1.746094 25.472656 L 2.710938 29.867188 Z M 18.5625 25.457031 "/>
<path style=" stroke:none;fill-rule:nonzero;fill:rgb(92.941176%,10.980392%,14.117647%);fill-opacity:1;" d="M 4.671875 25.21875 L 6.714844 24.589844 L 6.355469 28.390625 L 4.929688 28.785156 L 5.171875 26.203125 L 4.558594 26.410156 Z M 4.671875 25.21875 "/>
<path style=" stroke:none;fill-rule:nonzero;fill:rgb(92.941176%,10.980392%,14.117647%);fill-opacity:1;" d="M 8.476562 27.25 C 8.441406 27.644531 8.019531 27.980469 7.636719 28.09375 C 7.25 28.195312 6.875 28.085938 6.914062 27.6875 C 6.953125 27.273438 7.375 26.925781 7.757812 26.828125 C 8.136719 26.71875 8.511719 26.84375 8.476562 27.25 "/>
<path style=" stroke:none;fill-rule:nonzero;fill:rgb(92.941176%,10.980392%,14.117647%);fill-opacity:1;" d="M 9.417969 23.839844 L 12.058594 23.097656 L 11.960938 24.195312 L 10.757812 24.519531 L 10.722656 24.921875 L 11.777344 24.628906 L 11.683594 25.609375 L 10.628906 25.90625 L 10.5 27.234375 L 9.050781 27.640625 Z M 9.417969 23.839844 "/>
<path style=" stroke:none;fill-rule:nonzero;fill:rgb(92.941176%,10.980392%,14.117647%);fill-opacity:1;" d="M 15.464844 23.660156 C 15.253906 23.519531 14.980469 23.425781 14.652344 23.515625 C 14.222656 23.636719 13.839844 24.058594 13.796875 24.472656 C 13.761719 24.886719 14.101562 25.109375 14.53125 24.988281 C 14.863281 24.898438 15.136719 24.6875 15.390625 24.40625 L 15.210938 25.839844 C 14.972656 26.007812 14.433594 26.203125 14.175781 26.273438 C 13.046875 26.585938 12.246094 25.992188 12.347656 24.910156 C 12.453125 23.800781 13.445312 22.660156 14.609375 22.335938 C 14.929688 22.246094 15.257812 22.207031 15.554688 22.230469 Z M 15.464844 23.660156 "/>
<path style=" stroke:none;fill-rule:nonzero;fill:rgb(100%,100%,100%);fill-opacity:1;" d="M 9.238281 28.71875 C 9.222656 28.871094 9.113281 29.015625 8.996094 29.0625 C 8.882812 29.085938 8.800781 28.988281 8.8125 28.835938 C 8.820312 28.679688 8.929688 28.53125 9.042969 28.507812 C 9.164062 28.464844 9.25 28.566406 9.238281 28.71875 M 9.851562 28.542969 C 9.839844 28.699219 9.734375 28.84375 9.613281 28.882812 C 9.496094 28.921875 9.417969 28.816406 9.429688 28.667969 C 9.445312 28.515625 9.542969 28.371094 9.664062 28.332031 C 9.777344 28.292969 9.867188 28.394531 9.851562 28.542969 M 10.253906 30.144531 C 10.1875 30.949219 9.671875 31.570312 9.082031 31.730469 C 8.496094 31.894531 8.058594 31.53125 8.128906 30.730469 C 8.191406 29.945312 8.714844 29.300781 9.300781 29.136719 C 9.882812 28.976562 10.320312 29.359375 10.253906 30.144531 M 8.828125 30.546875 C 8.804688 30.839844 8.9375 30.992188 9.148438 30.9375 C 9.355469 30.878906 9.523438 30.640625 9.546875 30.359375 C 9.570312 30.085938 9.449219 29.902344 9.230469 29.964844 C 9.011719 30.027344 8.855469 30.289062 8.828125 30.546875 "/>
<path style=" stroke:none;fill-rule:nonzero;fill:rgb(100%,100%,100%);fill-opacity:1;" d="M 10.605469 28.816406 L 11.300781 28.632812 L 11.160156 30.328125 L 11.742188 30.167969 L 11.675781 30.976562 L 10.394531 31.320312 Z M 10.605469 28.816406 "/>
<path style=" stroke:none;fill-rule:nonzero;fill:rgb(100%,100%,100%);fill-opacity:1;" d="M 12.070312 28.414062 L 12.742188 28.234375 L 13.25 29.453125 L 13.265625 29.453125 C 13.257812 29.242188 13.246094 29.039062 13.261719 28.820312 L 13.328125 28.070312 L 13.996094 27.890625 L 13.785156 30.390625 L 13.117188 30.574219 L 12.617188 29.429688 L 12.589844 29.433594 C 12.597656 29.601562 12.605469 29.757812 12.589844 29.925781 L 12.519531 30.742188 L 11.859375 30.921875 Z M 12.070312 28.414062 "/>
<path style=" stroke:none;fill-rule:nonzero;fill:rgb(100%,100%,100%);fill-opacity:1;" d="M 6.425781 29.972656 L 7.101562 29.785156 L 6.992188 30.878906 L 7.007812 30.871094 C 7.035156 30.765625 7.082031 30.664062 7.128906 30.558594 L 7.535156 29.664062 L 8.296875 29.457031 L 7.589844 30.839844 L 8.148438 31.945312 L 7.34375 32.171875 L 7.070312 31.496094 C 7.035156 31.414062 6.984375 31.339844 6.984375 31.242188 L 6.964844 31.246094 L 6.890625 32.296875 L 6.210938 32.476562 Z M 6.425781 29.972656 "/>
</g>
</svg>
