<?xml version="1.0" encoding="UTF-8"?>
<svg xmlns="http://www.w3.org/2000/svg" xmlns:xlink="http://www.w3.org/1999/xlink" width="32px" height="32px" viewBox="0 0 32 32" version="1.1">
<g id="surface1">
<path style=" stroke:none;fill-rule:evenodd;fill:rgb(100%,100%,100%);fill-opacity:1;" d="M 16 32 C 24.835938 32 32 24.835938 32 16 C 32 7.164062 24.835938 0 16 0 C 7.164062 0 0 7.164062 0 16 C 0 24.835938 7.164062 32 16 32 "/>
<path style=" stroke:none;fill-rule:evenodd;fill:rgb(0%,29.411765%,61.176471%);fill-opacity:1;" d="M 16 31.40625 C 7.492188 31.40625 0.59375 24.507812 0.59375 16 C 0.59375 7.492188 7.492188 0.59375 16 0.59375 C 24.507812 0.59375 31.40625 7.492188 31.40625 16 C 31.40625 24.507812 24.507812 31.40625 16 31.40625 "/>
<path style=" stroke:none;fill-rule:evenodd;fill:rgb(100%,100%,100%);fill-opacity:1;" d="M 16 2.371094 C 21.878906 2.371094 26.886719 6.089844 28.800781 11.304688 C 28.800781 11.304688 27.730469 11.304688 27.730469 11.304688 L 21.992188 11.304688 L 21.992188 7.917969 C 21.992188 6.890625 21.992188 3.371094 16 3.371094 C 13.8125 3.371094 11.753906 3.925781 9.957031 4.90625 L 9.957031 27.09375 C 11.753906 28.074219 13.8125 28.632812 16 28.632812 C 21.992188 28.632812 21.992188 25.113281 21.992188 24.085938 L 21.992188 21.089844 L 20.480469 21.089844 L 20.480469 16.007812 L 29.628906 16.007812 C 29.625 23.53125 23.523438 29.628906 16 29.628906 C 8.472656 29.628906 2.371094 23.527344 2.371094 16 C 2.371094 8.472656 8.472656 2.371094 16 2.371094 "/>
<path style=" stroke:none;fill-rule:evenodd;fill:rgb(100%,100%,100%);fill-opacity:1;" d="M 16.34375 6.148438 C 16.707031 6.046875 17 6.070312 17.347656 6.199219 C 18.234375 6.523438 18.402344 7.714844 18.464844 8.472656 L 19.441406 8.472656 L 19.441406 4.34375 L 18.84375 4.34375 C 18.84375 4.34375 18.542969 4.785156 18.460938 4.910156 C 17.960938 4.589844 17.375 4.378906 16.792969 4.230469 C 15.40625 3.984375 14.105469 4.304688 13.089844 5.023438 C 11.785156 5.945312 11.042969 8.058594 11.953125 9.460938 C 12.867188 10.863281 15.46875 14.644531 15.46875 14.644531 C 15.46875 14.644531 15.652344 14.898438 15.648438 15.1875 C 15.640625 15.652344 15.449219 15.949219 15.082031 16.210938 C 14.710938 16.472656 14.332031 16.527344 13.824219 16.417969 C 12.621094 16.164062 12.695312 14.640625 12.695312 13.871094 L 11.257812 13.871094 L 11.257812 18.222656 L 12.179688 18.222656 L 12.472656 17.660156 C 12.832031 17.824219 13.5 18.15625 14.0625 18.253906 C 15.578125 18.554688 17.203125 18.289062 18.308594 17.308594 C 19.5 16.324219 20.105469 14.410156 18.898438 12.777344 C 17.625 10.855469 15.707031 8.285156 15.472656 7.703125 C 15.402344 7.523438 15.183594 6.554688 16.34375 6.148438 "/>
<path style=" stroke:none;fill-rule:evenodd;fill:rgb(100%,100%,100%);fill-opacity:1;" d="M 11.257812 20.753906 L 11.257812 26.058594 C 11.257812 27.050781 12.054688 27.851562 13.035156 27.851562 C 14.019531 27.851562 14.816406 27.050781 14.816406 26.058594 L 14.816406 20.753906 C 14.816406 19.765625 14.019531 18.964844 13.035156 18.964844 C 12.054688 18.964844 11.257812 19.765625 11.257812 20.753906 "/>
<path style=" stroke:none;fill-rule:evenodd;fill:rgb(100%,100%,100%);fill-opacity:1;" d="M 18.835938 23.976562 L 18.835938 22.664062 L 17.710938 22.664062 L 17.710938 23.976562 L 16.949219 23.976562 C 16.949219 23.976562 18.125 18.984375 18.132812 18.964844 L 16.882812 18.964844 C 16.882812 18.964844 15.40625 25.238281 15.40625 25.203125 L 17.652344 25.203125 L 17.652344 27.257812 L 18.835938 27.257812 L 18.835938 25.203125 L 19.554688 25.203125 L 19.554688 23.976562 Z M 18.835938 23.976562 "/>
<path style=" stroke:none;fill-rule:evenodd;fill:rgb(0%,29.411765%,61.176471%);fill-opacity:1;" d="M 13.628906 20.738281 L 13.628906 26.074219 C 13.628906 26.402344 13.363281 26.667969 13.039062 26.667969 C 12.710938 26.667969 12.445312 26.402344 12.445312 26.074219 L 12.445312 20.738281 C 12.445312 20.414062 12.710938 20.148438 13.039062 20.148438 C 13.363281 20.148438 13.628906 20.414062 13.628906 20.738281 "/>
</g>
</svg>
