<?xml version="1.0" encoding="UTF-8"?>
<svg xmlns="http://www.w3.org/2000/svg" xmlns:xlink="http://www.w3.org/1999/xlink" width="32px" height="32px" viewBox="0 0 32 32" version="1.1">
<g id="surface1">
<path style=" stroke:none;fill-rule:nonzero;fill:rgb(98.823529%,70.980392%,7.843137%);fill-opacity:1;" d="M 15.925781 31.851562 C 24.722656 31.851562 31.851562 24.722656 31.851562 15.925781 C 31.851562 7.128906 24.722656 0 15.925781 0 C 7.128906 0 0 7.128906 0 15.925781 C 0 24.722656 7.128906 31.851562 15.925781 31.851562 Z M 15.925781 31.851562 "/>
<path style=" stroke:none;fill-rule:nonzero;fill:rgb(6.666667%,6.666667%,6.666667%);fill-opacity:1;" d="M 15.925781 31.261719 C 24.394531 31.261719 31.261719 24.394531 31.261719 15.925781 C 31.261719 7.457031 24.394531 0.589844 15.925781 0.589844 C 7.457031 0.589844 0.589844 7.457031 0.589844 15.925781 C 0.59375 24.394531 7.457031 31.261719 15.925781 31.261719 Z M 15.925781 31.261719 "/>
<path style=" stroke:none;fill-rule:nonzero;fill:rgb(98.823529%,70.980392%,7.843137%);fill-opacity:1;" d="M 15.058594 28.949219 C 15.347656 28.96875 15.628906 28.980469 15.925781 28.980469 C 16.214844 28.980469 16.503906 28.96875 16.789062 28.949219 L 16.789062 24.753906 L 15.058594 24.753906 Z M 21.867188 23.097656 L 24.523438 25.75 C 24.957031 25.371094 25.367188 24.960938 25.742188 24.523438 L 23.109375 21.886719 Z M 22.351562 15.925781 L 23.242188 16.789062 L 28.949219 16.789062 C 28.96875 16.503906 28.988281 16.214844 28.988281 15.925781 C 28.988281 15.628906 28.96875 15.339844 28.957031 15.058594 L 23.242188 15.058594 Z M 9.699219 15.058594 L 2.898438 15.058594 C 2.878906 15.339844 2.867188 15.628906 2.867188 15.925781 C 2.867188 16.214844 2.878906 16.503906 2.898438 16.789062 L 9.699219 16.789062 Z M 7.332031 25.75 L 8.601562 24.472656 L 8.601562 22.023438 L 6.101562 24.523438 C 6.484375 24.960938 6.894531 25.371094 7.332031 25.75 Z M 8.601562 7.375 L 7.324219 6.101562 C 6.890625 6.480469 6.480469 6.890625 6.101562 7.324219 L 8.601562 9.824219 Z M 16.789062 2.898438 C 16.503906 2.878906 16.214844 2.867188 15.925781 2.867188 C 15.628906 2.867188 15.347656 2.878906 15.058594 2.898438 L 15.058594 7.09375 L 16.789062 7.09375 Z M 25.75 7.324219 C 25.367188 6.890625 24.957031 6.480469 24.523438 6.101562 L 21.867188 8.757812 L 23.109375 9.964844 Z M 25.75 7.324219 "/>
<path style=" stroke:none;fill-rule:nonzero;fill:rgb(98.823529%,70.980392%,7.843137%);fill-opacity:1;" d="M 10.367188 20.621094 L 9.269531 21.6875 L 9.269531 24.085938 L 19.890625 24.085938 L 22.582031 21.472656 L 22.582031 17.078125 L 21.394531 15.925781 L 22.582031 14.769531 L 22.582031 10.382812 L 19.890625 7.761719 L 9.269531 7.761719 L 9.269531 10.15625 L 10.367188 11.230469 Z M 10.367188 20.621094 "/>
<path style=" stroke:none;fill-rule:nonzero;fill:rgb(100%,100%,100%);fill-opacity:1;" d="M 23.25 14.347656 L 28.882812 14.347656 C 28.601562 11.984375 27.675781 9.746094 26.207031 7.875 L 23.25 10.832031 Z M 14.347656 7.09375 L 14.347656 2.96875 C 11.984375 3.25 9.746094 4.179688 7.875 5.648438 L 9.328125 7.097656 L 14.347656 7.097656 Z M 23.25 17.5 L 23.25 21.019531 L 26.207031 23.96875 C 27.675781 22.101562 28.605469 19.863281 28.882812 17.5 Z M 21.355469 8.261719 L 23.96875 5.648438 C 22.097656 4.179688 19.863281 3.25 17.5 2.96875 L 17.5 7.097656 L 20.160156 7.097656 Z M 9.699219 11.929688 L 5.648438 7.875 C 4.179688 9.746094 3.25 11.984375 2.960938 14.347656 L 9.699219 14.347656 Z M 9.699219 19.914062 L 9.699219 17.5 L 2.960938 17.5 C 3.246094 19.863281 4.175781 22.101562 5.648438 23.96875 Z M 20.160156 24.753906 L 17.5 24.753906 L 17.5 28.882812 C 19.863281 28.601562 22.105469 27.675781 23.976562 26.207031 L 21.363281 23.589844 Z M 14.347656 24.753906 L 9.328125 24.753906 L 7.875 26.207031 C 9.746094 27.675781 11.984375 28.601562 14.347656 28.882812 Z M 14.347656 24.753906 "/>
<path style=" stroke:none;fill-rule:nonzero;fill:rgb(6.666667%,6.666667%,6.666667%);fill-opacity:1;" d="M 9.824219 21.925781 L 9.824219 23.53125 L 19.671875 23.53125 L 22.03125 21.234375 L 22.03125 17.3125 L 20.601562 15.925781 L 22.03125 14.539062 L 22.03125 10.613281 L 19.664062 8.320312 L 9.824219 8.320312 L 9.824219 9.917969 L 10.929688 10.992188 L 10.929688 20.855469 Z M 9.824219 21.925781 "/>
<path style=" stroke:none;fill-rule:nonzero;fill:rgb(98.823529%,70.980392%,7.843137%);fill-opacity:1;" d="M 19.5 13.722656 L 19.5 11.667969 L 18.417969 10.613281 L 13.28125 10.613281 L 13.28125 14.777344 L 18.414062 14.777344 Z M 19.5 20.1875 L 19.5 18.125 L 18.417969 17.070312 L 13.28125 17.070312 L 13.28125 21.234375 L 18.414062 21.234375 Z M 19.5 20.1875 "/>
<path style=" stroke:none;fill-rule:nonzero;fill:rgb(6.666667%,6.666667%,6.666667%);fill-opacity:1;" d="M 18.945312 18.359375 L 18.195312 17.628906 L 13.839844 17.628906 L 13.839844 20.679688 L 18.195312 20.679688 L 18.945312 19.949219 Z M 18.945312 11.898438 L 18.195312 11.164062 L 13.839844 11.164062 L 13.839844 14.222656 L 18.195312 14.222656 L 18.945312 13.492188 Z M 18.945312 11.898438 "/>
<path style=" stroke:none;fill-rule:nonzero;fill:rgb(100%,100%,100%);fill-opacity:1;" d="M 18.277344 19.664062 L 18.277344 18.636719 L 17.917969 18.296875 L 14.507812 18.296875 L 14.507812 20.011719 L 17.917969 20.011719 Z M 18.277344 13.207031 L 18.277344 12.179688 L 17.917969 11.832031 L 14.507812 11.832031 L 14.507812 13.554688 L 17.917969 13.554688 Z M 18.277344 13.207031 "/>
</g>
</svg>
