<?xml version="1.0" encoding="UTF-8"?>
<svg xmlns="http://www.w3.org/2000/svg" xmlns:xlink="http://www.w3.org/1999/xlink" width="32px" height="32px" viewBox="0 0 32 25" version="1.1">
<g id="surface1">
<path style=" stroke:none;fill-rule:nonzero;fill:rgb(100%,100%,100%);fill-opacity:1;" d="M 28.988281 6.585938 C 27.105469 4.726562 24.546875 3.671875 21.878906 3.65625 C 22.09375 2.710938 22.394531 1.785156 22.777344 0.890625 L 22.78125 0.871094 C 22.863281 0.679688 22.839844 0.460938 22.726562 0.289062 C 22.609375 0.117188 22.417969 0.0117188 22.207031 0.00390625 L 22.1875 0.00390625 C 22.066406 0 21.945312 0 21.824219 0 C 20.0625 0.00390625 18.320312 0.3125 16.667969 0.910156 C 14.410156 1.746094 12.601562 3.089844 11.296875 4.914062 C 10.527344 5.980469 9.964844 7.179688 9.632812 8.445312 C 9.578125 8.660156 9.527344 8.878906 9.484375 9.097656 C 9.410156 9.097656 9.335938 9.097656 9.261719 9.097656 C 8.1875 9.085938 7.121094 8.988281 6.0625 8.8125 C 4.972656 8.640625 3.160156 8.042969 2.769531 7.898438 C 2.496094 7.796875 2.210938 7.683594 1.921875 7.5625 L 1.59375 7.417969 L 0 6.722656 L 0.957031 8.554688 C 1.242188 9.171875 1.5625 9.773438 1.921875 10.351562 C 2.527344 11.300781 3.296875 12.140625 4.199219 12.828125 L 5.070312 14.414062 C 5.503906 15.234375 6.035156 16 6.65625 16.695312 C 6.929688 16.988281 7.226562 17.261719 7.539062 17.511719 C 7.871094 17.777344 8.226562 18.011719 8.605469 18.214844 L 9.058594 19.179688 C 9.390625 19.773438 9.804688 20.320312 10.292969 20.800781 C 10.796875 21.261719 11.371094 21.644531 11.996094 21.929688 L 12.050781 21.953125 C 12.878906 22.300781 13.773438 22.472656 14.675781 22.457031 C 14.9375 22.457031 15.210938 22.445312 15.492188 22.417969 L 15.527344 22.414062 C 15.738281 22.675781 15.847656 22.875 15.863281 23.015625 C 15.875 23.117188 15.832031 23.210938 15.757812 23.378906 C 15.683594 23.488281 15.597656 23.585938 15.5 23.671875 L 15.492188 23.675781 C 15.421875 23.742188 15.34375 23.820312 15.265625 23.90625 L 15.242188 23.929688 C 15.070312 24.121094 15.03125 24.394531 15.144531 24.625 C 15.253906 24.839844 15.476562 24.980469 15.722656 24.980469 C 15.734375 24.980469 15.746094 24.980469 15.761719 24.980469 L 15.796875 24.976562 C 16.679688 24.890625 17.496094 24.46875 18.066406 23.800781 C 18.242188 23.589844 18.390625 23.363281 18.519531 23.121094 C 23 24.617188 27.933594 22.882812 30.433594 18.9375 C 32.929688 14.988281 32.332031 9.871094 28.988281 6.585938 "/>
<path style=" stroke:none;fill-rule:nonzero;fill:rgb(0%,0%,0%);fill-opacity:1;" d="M 28.734375 6.832031 C 26.898438 5.019531 24.398438 4 21.792969 4.007812 C 21.679688 4.007812 21.558594 4.011719 21.441406 4.015625 C 21.664062 2.898438 22 1.808594 22.445312 0.757812 L 22.453125 0.738281 C 22.488281 0.65625 22.476562 0.558594 22.425781 0.480469 C 22.375 0.40625 22.289062 0.359375 22.199219 0.355469 L 22.179688 0.355469 C 22.0625 0.351562 21.941406 0.351562 21.824219 0.351562 C 20.105469 0.355469 18.40625 0.65625 16.792969 1.238281 C 14.601562 2.046875 12.851562 3.351562 11.585938 5.117188 C 10.847656 6.148438 10.300781 7.304688 9.980469 8.53125 C 9.902344 8.84375 9.835938 9.144531 9.78125 9.4375 L 9.746094 9.441406 C 9.585938 9.445312 9.421875 9.449219 9.261719 9.449219 C 8.171875 9.433594 7.082031 9.335938 6.007812 9.15625 C 4.890625 8.984375 3.039062 8.375 2.640625 8.226562 C 2.328125 8.109375 2 7.980469 1.667969 7.835938 L 1.519531 7.769531 L 0.792969 7.453125 L 1.214844 8.304688 C 1.507812 8.945312 1.84375 9.566406 2.222656 10.164062 C 3.195312 11.660156 4.402344 12.734375 5.914062 13.453125 C 6.808594 13.878906 7.84375 14.0625 8.378906 14.136719 C 8.847656 14.199219 9.316406 14.234375 9.789062 14.246094 L 9.851562 14.242188 C 9.878906 14.351562 9.910156 14.460938 9.945312 14.570312 C 9.925781 14.570312 9.90625 14.570312 9.886719 14.570312 C 9.265625 14.570312 8.644531 14.519531 8.03125 14.425781 C 7.484375 14.34375 6.945312 14.222656 6.417969 14.066406 C 6.195312 14 5.976562 13.925781 5.765625 13.839844 L 4.972656 13.5 L 5.382812 14.246094 C 5.804688 15.042969 6.320312 15.785156 6.921875 16.460938 C 7.183594 16.738281 7.464844 17 7.765625 17.242188 C 8.085938 17.5 8.433594 17.726562 8.796875 17.917969 C 9.742188 18.441406 10.808594 18.710938 11.890625 18.699219 C 11.90625 18.699219 11.917969 18.699219 11.933594 18.699219 L 12.125 18.695312 C 12.207031 18.800781 12.292969 18.90625 12.382812 19.011719 C 12.277344 19.019531 12.179688 19.023438 12.074219 19.023438 C 11.925781 19.023438 11.757812 19.015625 11.546875 19.003906 C 10.976562 18.96875 10.039062 18.769531 9.78125 18.648438 L 9.035156 18.296875 L 9.382812 19.035156 C 9.699219 19.589844 10.089844 20.097656 10.542969 20.550781 C 11.015625 20.980469 11.550781 21.335938 12.132812 21.605469 L 12.1875 21.628906 C 12.972656 21.957031 13.820312 22.121094 14.675781 22.109375 C 14.925781 22.109375 15.1875 22.09375 15.453125 22.066406 L 15.667969 22.046875 C 15.714844 22.089844 15.757812 22.136719 15.796875 22.183594 C 16.367188 22.890625 16.253906 23.144531 16.082031 23.527344 C 15.996094 23.675781 15.882812 23.808594 15.75 23.917969 L 15.746094 23.925781 C 15.675781 23.992188 15.601562 24.0625 15.53125 24.140625 L 15.511719 24.164062 C 15.433594 24.246094 15.417969 24.363281 15.460938 24.464844 C 15.507812 24.5625 15.609375 24.628906 15.722656 24.628906 C 15.726562 24.628906 15.734375 24.628906 15.738281 24.628906 L 15.773438 24.625 C 16.558594 24.550781 17.28125 24.175781 17.789062 23.582031 C 18.015625 23.308594 18.199219 23.007812 18.332031 22.683594 C 22.660156 24.285156 27.539062 22.699219 30.042969 18.882812 C 32.550781 15.066406 32.003906 10.046875 28.734375 6.832031 "/>
<path style=" stroke:none;fill-rule:nonzero;fill:rgb(71.764706%,57.254902%,34.117647%);fill-opacity:1;" d="M 31.328125 13.652344 C 31.324219 16.726562 29.785156 19.605469 27.210938 21.355469 C 24.636719 23.105469 21.355469 23.503906 18.425781 22.421875 C 18.472656 22.289062 18.507812 22.160156 18.539062 22.035156 C 18.59375 21.820312 18.628906 21.605469 18.644531 21.386719 C 18.816406 21.332031 18.980469 21.265625 19.144531 21.191406 C 19.457031 21.050781 19.664062 20.957031 19.695312 20.941406 C 23.144531 21.898438 26.808594 20.394531 28.539062 17.3125 C 30.269531 14.230469 29.613281 10.382812 26.949219 8.027344 C 26.949219 7.925781 26.964844 7.824219 26.996094 7.726562 C 27.007812 7.6875 27.019531 7.648438 27.03125 7.605469 C 27.042969 7.566406 27.054688 7.527344 27.066406 7.488281 C 27.648438 8.0625 27.988281 7.957031 28 7.949219 C 28.023438 7.9375 28.046875 7.929688 28.074219 7.929688 C 28.171875 7.949219 28.261719 8 28.328125 8.078125 L 28.332031 8.078125 L 28.351562 8.058594 C 28.332031 8.039062 28.195312 7.878906 28.261719 7.75 C 28.265625 7.738281 28.402344 7.398438 27.789062 6.753906 L 27.773438 6.738281 L 27.765625 6.757812 C 27.726562 6.882812 27.726562 7.015625 27.761719 7.140625 L 27.761719 7.15625 C 27.773438 7.234375 27.75 7.3125 27.703125 7.378906 C 27.65625 7.425781 27.589844 7.453125 27.519531 7.449219 L 27.453125 7.445312 C 27.359375 7.414062 27.257812 7.394531 27.160156 7.394531 L 27.097656 7.398438 C 27.109375 7.371094 27.121094 7.339844 27.136719 7.3125 C 27.164062 7.257812 27.1875 7.203125 27.199219 7.144531 L 27.238281 7.140625 C 27.332031 7.152344 27.417969 7.191406 27.492188 7.25 L 27.492188 7.253906 L 27.496094 7.25 L 27.492188 7.253906 L 27.507812 7.230469 C 27.492188 7.214844 27.328125 7.070312 27.375 6.9375 C 27.378906 6.921875 27.46875 6.566406 26.769531 6.015625 L 26.75 6 L 26.746094 6.019531 C 26.726562 6.148438 26.746094 6.28125 26.796875 6.398438 L 26.800781 6.414062 C 26.824219 6.496094 26.808594 6.582031 26.765625 6.652344 C 26.707031 6.714844 26.621094 6.75 26.535156 6.742188 C 26.472656 6.730469 26.414062 6.726562 26.351562 6.726562 C 26.265625 6.722656 26.175781 6.738281 26.097656 6.769531 L 26.078125 6.777344 L 26.09375 6.792969 C 26.214844 6.886719 26.34375 6.972656 26.480469 7.046875 L 26.441406 7.058594 C 26.410156 7.070312 26.375 7.085938 26.339844 7.097656 C 26.25 7.128906 26.164062 7.164062 26.105469 7.1875 C 26.050781 7.214844 25.996094 7.242188 25.941406 7.273438 C 24.703125 6.492188 23.265625 6.082031 21.792969 6.082031 C 21.625 6.082031 21.453125 6.089844 21.28125 6.101562 C 21.257812 5.496094 21.292969 4.890625 21.390625 4.296875 C 21.527344 4.289062 21.660156 4.285156 21.792969 4.285156 C 27.058594 4.285156 31.328125 8.480469 31.328125 13.652344 "/>
<path style=" stroke:none;fill-rule:nonzero;fill:rgb(71.764706%,57.254902%,34.117647%);fill-opacity:1;" d="M 19.699219 16.316406 C 20.148438 16.785156 20.542969 17.195312 20.695312 17.527344 C 20.703125 17.542969 20.710938 17.5625 20.71875 17.578125 C 20.726562 17.597656 20.730469 17.617188 20.738281 17.636719 C 20.742188 17.652344 20.746094 17.664062 20.75 17.679688 C 20.761719 17.734375 20.773438 17.789062 20.777344 17.839844 C 20.785156 17.890625 20.792969 17.941406 20.796875 17.988281 C 20.796875 18.035156 20.800781 18.082031 20.800781 18.125 C 20.800781 18.167969 20.796875 18.214844 20.792969 18.253906 C 20.792969 18.289062 20.789062 18.320312 20.785156 18.351562 C 20.785156 18.363281 20.78125 18.371094 20.78125 18.378906 C 20.765625 18.484375 20.746094 18.574219 20.726562 18.65625 C 20.875 18.535156 21.085938 18.351562 21.25 18.207031 C 21.261719 18.191406 21.277344 18.179688 21.292969 18.167969 C 21.347656 18.117188 21.398438 18.070312 21.433594 18.039062 C 21.453125 18.019531 21.472656 18.003906 21.492188 17.984375 C 21.515625 17.964844 21.535156 17.949219 21.558594 17.929688 C 21.597656 17.894531 21.644531 17.855469 21.6875 17.816406 C 21.855469 17.679688 22.015625 17.53125 22.167969 17.378906 C 22.242188 17.304688 22.304688 17.222656 22.355469 17.132812 L 22.371094 17.109375 C 22.421875 17.03125 22.449219 16.945312 22.449219 16.855469 C 22.449219 16.828125 22.445312 16.800781 22.441406 16.773438 C 22.433594 16.722656 22.421875 16.671875 22.398438 16.621094 C 22.359375 16.535156 22.308594 16.453125 22.246094 16.378906 C 22.171875 16.285156 22.101562 16.195312 22.03125 16.113281 C 21.976562 16.050781 21.921875 15.988281 21.871094 15.929688 C 21.839844 15.894531 21.808594 15.859375 21.777344 15.824219 C 21.738281 15.78125 21.703125 15.742188 21.667969 15.707031 C 21.644531 15.679688 21.621094 15.65625 21.601562 15.632812 C 21.582031 15.617188 21.5625 15.597656 21.546875 15.578125 C 21.527344 15.558594 21.503906 15.535156 21.484375 15.515625 L 21.472656 15.503906 C 21.460938 15.488281 21.445312 15.472656 21.433594 15.460938 C 21.417969 15.445312 21.402344 15.429688 21.386719 15.414062 C 21.097656 15.109375 20.894531 14.886719 20.808594 14.640625 C 20.792969 14.601562 20.78125 14.558594 20.773438 14.515625 C 20.773438 14.503906 20.773438 14.496094 20.769531 14.488281 C 20.769531 14.484375 20.769531 14.480469 20.769531 14.480469 C 20.761719 14.414062 20.757812 14.34375 20.765625 14.277344 C 20.859375 13.652344 21.65625 13.230469 22.21875 13.929688 L 22.441406 14.199219 C 22.441406 14.199219 23.480469 15.484375 24.035156 16.148438 L 24.320312 16.480469 C 24.332031 16.488281 24.339844 16.5 24.347656 16.507812 C 24.816406 17.046875 25.671875 17.476562 25.875 17.566406 C 25.859375 17.550781 25.84375 17.53125 25.824219 17.507812 C 25.683594 17.339844 25.558594 17.164062 25.449219 16.976562 C 25.414062 16.917969 25.382812 16.855469 25.355469 16.796875 C 25.351562 16.785156 25.34375 16.773438 25.339844 16.757812 C 25.320312 16.71875 25.300781 16.675781 25.28125 16.632812 C 25.269531 16.605469 25.257812 16.574219 25.246094 16.546875 C 25.179688 16.386719 25.125 16.222656 25.085938 16.054688 C 25.070312 15.992188 25.054688 15.929688 25.042969 15.867188 C 25.039062 15.832031 25.035156 15.800781 25.027344 15.769531 C 25.027344 15.761719 25.027344 15.757812 25.027344 15.753906 C 25.023438 15.71875 25.015625 15.6875 25.011719 15.652344 C 25.011719 15.632812 25.007812 15.609375 25.007812 15.589844 C 25.003906 15.554688 25 15.523438 25 15.492188 C 25 15.488281 25 15.488281 25 15.484375 C 24.996094 15.453125 24.996094 15.421875 24.992188 15.390625 C 24.992188 15.339844 24.992188 15.292969 24.992188 15.246094 C 24.992188 15.199219 24.992188 15.15625 24.996094 15.117188 C 25 15.015625 25.007812 14.929688 25.015625 14.863281 C 25.015625 14.863281 25.015625 14.859375 25.015625 14.855469 C 25.023438 14.808594 25.03125 14.773438 25.035156 14.753906 C 24.992188 14.746094 24.953125 14.730469 24.914062 14.71875 C 24.765625 14.664062 24.632812 14.585938 24.519531 14.480469 C 24.445312 14.410156 24.382812 14.332031 24.335938 14.242188 C 24.152344 13.9375 24.054688 13.589844 24.042969 13.234375 C 24.011719 13.257812 23.980469 13.28125 23.949219 13.304688 C 23.804688 13.421875 23.644531 13.523438 23.476562 13.605469 C 23.316406 13.679688 23.148438 13.726562 22.976562 13.75 C 22.925781 13.753906 22.875 13.757812 22.828125 13.757812 C 22.785156 13.757812 22.742188 13.753906 22.699219 13.75 C 22.660156 13.746094 22.621094 13.738281 22.582031 13.730469 C 22.0625 13.613281 21.742188 13.375 21.570312 12.984375 C 21.535156 12.898438 21.507812 12.804688 21.492188 12.707031 C 21.488281 12.683594 21.484375 12.660156 21.484375 12.636719 C 21.480469 12.613281 21.480469 12.589844 21.476562 12.566406 C 21.476562 12.519531 21.480469 12.46875 21.484375 12.421875 C 21.492188 12.308594 21.515625 12.195312 21.546875 12.085938 C 21.550781 12.058594 21.558594 12.03125 21.570312 12.007812 C 21.578125 11.984375 21.585938 11.957031 21.597656 11.933594 C 21.628906 11.855469 21.664062 11.785156 21.710938 11.714844 C 21.726562 11.691406 21.742188 11.667969 21.761719 11.648438 C 21.804688 11.59375 21.855469 11.542969 21.910156 11.5 C 21.945312 11.46875 21.980469 11.445312 22.019531 11.421875 C 22.03125 11.414062 22.046875 11.410156 22.058594 11.402344 C 22.089844 11.386719 22.117188 11.375 22.148438 11.363281 C 22.167969 11.355469 22.1875 11.347656 22.210938 11.339844 C 22.519531 11.257812 22.851562 11.367188 23.046875 11.617188 C 23.050781 11.609375 23.054688 11.597656 23.058594 11.582031 C 23.089844 11.496094 23.128906 11.363281 23.171875 11.207031 C 23.289062 10.765625 23.433594 10.328125 23.601562 9.902344 C 23.628906 9.832031 23.65625 9.761719 23.683594 9.691406 C 23.707031 9.640625 23.726562 9.585938 23.75 9.53125 C 23.886719 9.152344 24.078125 8.796875 24.320312 8.472656 C 24.027344 8.261719 23.703125 8.09375 23.359375 7.976562 C 23.335938 7.96875 23.3125 7.960938 23.289062 7.953125 C 22.988281 7.859375 22.671875 7.8125 22.355469 7.816406 L 22.300781 7.816406 C 21.777344 7.816406 21.253906 7.898438 20.757812 8.0625 C 20.726562 8.074219 20.695312 8.085938 20.664062 8.097656 C 20.523438 8.144531 20.386719 8.203125 20.25 8.269531 C 20.207031 8.289062 20.164062 8.3125 20.117188 8.332031 C 20.097656 8.34375 20.078125 8.355469 20.054688 8.367188 C 19.671875 8.570312 19.320312 8.828125 19.015625 9.132812 C 19.015625 9.132812 19.011719 9.132812 19.011719 9.132812 C 18.585938 9.554688 18.246094 10.050781 18.003906 10.59375 C 17.90625 10.8125 17.828125 11.039062 17.769531 11.269531 C 17.695312 11.53125 17.644531 11.796875 17.613281 12.070312 C 17.601562 12.1875 17.59375 12.308594 17.59375 12.429688 C 17.59375 12.589844 17.609375 12.753906 17.632812 12.914062 C 17.640625 12.984375 17.652344 13.050781 17.667969 13.121094 C 17.6875 13.222656 17.714844 13.320312 17.746094 13.425781 C 17.75 13.445312 17.757812 13.464844 17.761719 13.484375 C 17.867188 13.808594 18.003906 14.121094 18.167969 14.421875 C 18.257812 14.578125 18.351562 14.726562 18.457031 14.875 C 18.835938 15.382812 19.25 15.867188 19.699219 16.316406 "/>
<path style=" stroke:none;fill-rule:nonzero;fill:rgb(100%,100%,100%);fill-opacity:1;" d="M 27.585938 15.664062 L 27.480469 16.101562 L 27.769531 17.296875 C 27.769531 17.296875 26.925781 17.425781 26.546875 17.480469 C 26.433594 17.863281 25.855469 19.359375 25.855469 19.359375 L 25.738281 19.300781 C 25.652344 18.484375 25.222656 18.066406 24.726562 17.753906 C 24.445312 17.585938 24.144531 17.453125 23.828125 17.363281 C 23.417969 17.242188 22.996094 17.152344 22.566406 17.097656 C 22.632812 16.933594 22.632812 16.753906 22.566406 16.589844 C 22.480469 16.40625 22.363281 16.234375 22.226562 16.085938 C 22.753906 15.996094 22.816406 15.628906 22.792969 15.40625 C 22.726562 15.519531 22.445312 15.988281 22.027344 15.894531 C 21.171875 14.90625 21.027344 14.851562 20.941406 14.53125 C 20.890625 14.265625 21.007812 13.996094 21.238281 13.847656 C 21.683594 13.574219 21.964844 13.851562 22.414062 14.410156 C 22.65625 14.707031 23.523438 15.839844 24.09375 16.472656 C 24.492188 16.921875 24.972656 17.285156 25.511719 17.554688 C 25.71875 17.65625 25.929688 17.746094 26.152344 17.820312 L 26.222656 17.710938 C 25.945312 17.429688 25.714844 17.113281 25.527344 16.769531 C 25.398438 16.515625 25.300781 16.246094 25.234375 15.96875 C 25.140625 15.519531 25.140625 15.058594 25.226562 14.609375 C 25.226562 14.609375 24.824219 14.675781 24.453125 14.136719 C 24.339844 13.921875 24.265625 13.691406 24.234375 13.453125 C 24.214844 13.324219 24.199219 13.191406 24.195312 13.0625 C 24.882812 12.445312 25.816406 11.347656 26.175781 11.265625 C 26.28125 11.484375 27.84375 14.738281 27.84375 14.738281 L 27.496094 14.902344 L 27.496094 15.277344 L 26.582031 15.9375 Z M 27.585938 15.664062 "/>
<path style=" stroke:none;fill-rule:nonzero;fill:rgb(85.490196%,10.196078%,19.607843%);fill-opacity:1;" d="M 16.992188 23.277344 C 16.996094 23.246094 17 23.222656 17 23.21875 C 17.035156 22.875 16.964844 22.53125 16.796875 22.230469 C 16.6875 22.019531 16.546875 21.824219 16.382812 21.652344 C 16.144531 21.398438 15.882812 21.171875 15.597656 20.972656 C 15.566406 20.953125 12.480469 18.757812 11.148438 15.578125 C 10.34375 13.679688 10.128906 11.585938 10.535156 9.570312 C 10.628906 9.109375 10.75 8.65625 10.902344 8.210938 L 10.90625 8.195312 C 11.320312 6.910156 12 5.722656 12.898438 4.707031 C 14.847656 2.535156 17.976562 1.230469 21.503906 1.109375 C 21.210938 1.855469 20.980469 2.621094 20.804688 3.398438 C 20.765625 3.566406 20.429688 5.042969 20.515625 6.242188 C 19.449219 6.550781 18.464844 7.074219 17.625 7.785156 C 17.03125 8.289062 16.539062 8.902344 16.175781 9.582031 C 15.839844 10.222656 15.636719 10.917969 15.574219 11.632812 C 15.566406 11.691406 15.558594 11.75 15.550781 11.804688 C 15.453125 12.53125 15.695312 14.375 16.722656 15.546875 C 17.003906 15.867188 17.398438 16.34375 17.894531 16.949219 L 17.898438 16.957031 C 18.230469 17.359375 18.601562 17.8125 19.019531 18.316406 C 18.679688 18.65625 18.417969 19.058594 18.238281 19.5 C 18.101562 19.8125 18.007812 20.144531 17.960938 20.484375 C 17.949219 20.605469 17.9375 20.734375 17.925781 20.871094 C 17.910156 21.273438 17.84375 21.675781 17.730469 22.066406 C 17.65625 22.3125 17.550781 22.550781 17.414062 22.769531 C 17.296875 22.957031 17.15625 23.125 16.992188 23.277344 "/>
<path style=" stroke:none;fill-rule:nonzero;fill:rgb(71.764706%,57.254902%,34.117647%);fill-opacity:1;" d="M 22.191406 0.632812 L 22.171875 0.632812 C 22.058594 0.628906 21.941406 0.628906 21.824219 0.628906 C 20.140625 0.632812 18.472656 0.925781 16.894531 1.496094 C 14.757812 2.289062 13.050781 3.558594 11.820312 5.277344 C 11.097656 6.28125 10.566406 7.40625 10.253906 8.597656 C 9.636719 11.019531 9.84375 12.855469 10.023438 13.730469 C 10.234375 14.691406 10.570312 15.621094 11.023438 16.496094 C 11.113281 16.667969 11.570312 17.457031 11.871094 17.886719 C 12.183594 18.328125 12.515625 18.753906 12.875 19.15625 C 13.199219 19.523438 13.542969 19.875 13.90625 20.207031 C 13.992188 20.285156 14.0625 20.355469 14.132812 20.421875 C 14.46875 20.742188 14.824219 21.039062 15.203125 21.3125 C 15.546875 21.570312 15.84375 21.796875 16.019531 22.011719 C 16.695312 22.851562 16.53125 23.21875 16.339844 23.640625 C 16.238281 23.824219 16.105469 23.984375 15.949219 24.117188 C 15.878906 24.183594 15.808594 24.253906 15.742188 24.324219 L 15.722656 24.351562 L 15.753906 24.347656 C 16.460938 24.277344 17.113281 23.941406 17.570312 23.40625 C 17.90625 22.992188 18.144531 22.503906 18.265625 21.988281 C 18.332031 21.695312 18.371094 21.402344 18.390625 21.105469 C 18.40625 20.917969 18.425781 20.722656 18.453125 20.53125 C 18.496094 20.222656 18.582031 19.921875 18.714844 19.636719 C 18.871094 19.277344 19.09375 18.949219 19.367188 18.667969 C 19.292969 18.59375 19.222656 18.519531 19.152344 18.441406 C 18.859375 18.753906 18.621094 19.109375 18.441406 19.496094 C 18.261719 19.886719 18.152344 20.304688 18.121094 20.730469 C 18.117188 20.800781 18.109375 20.859375 18.101562 20.917969 C 18.089844 20.980469 18.085938 21.0625 18.078125 21.152344 C 18.058594 21.714844 17.914062 22.261719 17.648438 22.757812 C 17.410156 23.191406 17.050781 23.546875 16.613281 23.785156 C 16.769531 23.535156 16.835938 23.238281 16.804688 22.949219 C 16.734375 22.21875 16.160156 21.652344 15.6875 21.308594 C 14.3125 20.3125 13.113281 19.105469 12.136719 17.730469 C 11.230469 16.433594 10.625 15.089844 10.347656 13.730469 C 10.003906 12.066406 10.0625 10.351562 10.511719 8.71875 C 10.9375 7.167969 11.722656 5.738281 12.804688 4.542969 C 14.902344 2.253906 18 1.007812 21.769531 0.933594 L 21.726562 1.054688 C 21.523438 1.621094 21.3125 2.203125 21.140625 2.84375 C 21.007812 3.34375 20.898438 3.84375 20.804688 4.382812 C 20.699219 4.984375 20.664062 5.597656 20.707031 6.207031 L 21 6.140625 C 20.886719 4.207031 21.582031 2.09375 22.183594 0.652344 Z M 22.191406 0.632812 "/>
<path style=" stroke:none;fill-rule:nonzero;fill:rgb(71.764706%,57.254902%,34.117647%);fill-opacity:1;" d="M 25.621094 21.199219 L 25.617188 21.191406 L 25.625 21.203125 Z M 25.621094 21.199219 "/>
<path style=" stroke:none;fill-rule:nonzero;fill:rgb(0%,0%,0%);fill-opacity:1;" d="M 27.242188 14.609375 L 26.542969 15.027344 L 26.558594 15.066406 L 27.726562 14.792969 Z M 27.242188 14.609375 "/>
<path style=" stroke:none;fill-rule:nonzero;fill:rgb(0%,0%,0%);fill-opacity:1;" d="M 26.46875 13.050781 C 26.464844 12.96875 26.445312 12.882812 26.410156 12.808594 C 26.363281 12.738281 26.621094 12.628906 26.621094 12.628906 L 26.488281 12.558594 L 26.457031 12.613281 L 25.855469 12.820312 L 25.355469 13.222656 L 25.785156 13.089844 L 26.664062 13.199219 Z M 26.46875 13.050781 "/>
<path style=" stroke:none;fill-rule:nonzero;fill:rgb(0%,0%,0%);fill-opacity:1;" d="M 24.050781 5.613281 C 24.09375 5.550781 24.164062 5.515625 24.238281 5.527344 C 24.292969 5.527344 24.347656 5.535156 24.402344 5.550781 L 24.40625 5.539062 L 24.410156 5.523438 C 24.386719 5.515625 24.179688 5.449219 24.167969 5.308594 C 24.164062 5.292969 24.097656 4.933594 23.234375 4.703125 L 23.210938 4.699219 L 23.214844 4.71875 C 23.25 4.84375 23.320312 4.957031 23.417969 5.046875 L 23.425781 5.058594 C 23.480469 5.125 23.503906 5.207031 23.492188 5.289062 C 23.464844 5.371094 23.398438 5.4375 23.316406 5.464844 C 23.167969 5.488281 23.035156 5.558594 22.925781 5.660156 L 22.914062 5.679688 L 22.933594 5.683594 C 23.128906 5.738281 23.328125 5.765625 23.527344 5.769531 C 23.921875 5.769531 24.046875 5.621094 24.050781 5.613281 "/>
<path style=" stroke:none;fill-rule:nonzero;fill:rgb(0%,0%,0%);fill-opacity:1;" d="M 25.300781 5.925781 C 25.371094 5.929688 25.441406 5.945312 25.507812 5.972656 L 25.511719 5.976562 L 25.515625 5.960938 L 25.519531 5.949219 C 25.496094 5.9375 25.304688 5.84375 25.308594 5.703125 C 25.308594 5.6875 25.296875 5.320312 24.46875 4.980469 L 24.449219 4.96875 L 24.449219 4.992188 C 24.46875 5.121094 24.519531 5.242188 24.601562 5.339844 L 24.609375 5.355469 C 24.65625 5.425781 24.667969 5.511719 24.644531 5.59375 C 24.605469 5.671875 24.53125 5.726562 24.445312 5.742188 C 24.296875 5.746094 24.152344 5.796875 24.03125 5.886719 L 24.015625 5.898438 L 24.035156 5.910156 C 24.273438 6.015625 24.527344 6.074219 24.789062 6.085938 C 25.046875 6.085938 25.148438 5.996094 25.152344 5.988281 C 25.1875 5.945312 25.242188 5.921875 25.300781 5.925781 "/>
<path style=" stroke:none;fill-rule:nonzero;fill:rgb(0%,0%,0%);fill-opacity:1;" d="M 26.386719 6.25 C 26.386719 6.234375 26.425781 5.871094 25.65625 5.417969 L 25.636719 5.40625 L 25.632812 5.429688 C 25.632812 5.558594 25.667969 5.683594 25.738281 5.796875 L 25.742188 5.808594 C 25.777344 5.886719 25.777344 5.972656 25.742188 6.050781 C 25.691406 6.121094 25.613281 6.167969 25.523438 6.171875 L 25.488281 6.167969 C 25.351562 6.160156 25.214844 6.191406 25.097656 6.257812 L 25.078125 6.269531 L 25.097656 6.28125 C 25.503906 6.515625 25.78125 6.566406 25.941406 6.566406 C 26.03125 6.574219 26.117188 6.554688 26.191406 6.511719 C 26.222656 6.480469 26.265625 6.464844 26.308594 6.464844 C 26.390625 6.472656 26.472656 6.5 26.542969 6.546875 L 26.546875 6.546875 L 26.554688 6.535156 L 26.558594 6.523438 C 26.539062 6.507812 26.359375 6.390625 26.386719 6.25 "/>
<path style=" stroke:none;fill-rule:nonzero;fill:rgb(0%,0%,0%);fill-opacity:1;" d="M 28.734375 8.839844 L 28.789062 8.828125 C 28.914062 8.828125 29.03125 8.992188 29.042969 9.011719 L 29.066406 8.996094 C 29.050781 8.976562 28.9375 8.796875 29.019531 8.679688 C 29.027344 8.664062 29.210938 8.347656 28.691406 7.628906 L 28.679688 7.609375 L 28.667969 7.628906 C 28.613281 7.746094 28.59375 7.878906 28.613281 8.007812 L 28.613281 8.019531 C 28.613281 8.03125 28.605469 8.28125 28.378906 8.28125 C 28.339844 8.28125 28.300781 8.273438 28.265625 8.265625 C 28.148438 8.207031 28.023438 8.171875 27.890625 8.167969 C 27.875 8.167969 27.855469 8.171875 27.835938 8.171875 L 27.8125 8.175781 L 27.828125 8.195312 C 28.253906 8.78125 28.578125 8.84375 28.695312 8.84375 Z M 28.734375 8.839844 "/>
<path style=" stroke:none;fill-rule:nonzero;fill:rgb(0%,0%,0%);fill-opacity:1;" d="M 29.335938 9.820312 L 29.371094 9.816406 C 29.507812 9.816406 29.605469 10.011719 29.617188 10.03125 L 29.621094 10.035156 L 29.644531 10.019531 C 29.632812 10 29.546875 9.804688 29.644531 9.699219 C 29.652344 9.6875 29.878906 9.394531 29.464844 8.613281 L 29.457031 8.59375 L 29.441406 8.613281 C 29.375 8.722656 29.335938 8.847656 29.332031 8.976562 L 29.332031 8.992188 C 29.328125 9.003906 29.292969 9.222656 29.101562 9.222656 C 29.050781 9.21875 29 9.207031 28.953125 9.1875 C 28.835938 9.101562 28.695312 9.050781 28.546875 9.039062 L 28.519531 9.039062 L 28.53125 9.058594 C 28.925781 9.800781 29.289062 9.820312 29.328125 9.820312 Z M 29.335938 9.820312 "/>
<path style=" stroke:none;fill-rule:nonzero;fill:rgb(0%,0%,0%);fill-opacity:1;" d="M 29.796875 10.875 L 29.8125 10.875 C 29.960938 10.875 30.035156 11.09375 30.046875 11.121094 L 30.046875 11.125 L 30.058594 11.121094 L 30.074219 11.113281 C 30.066406 11.089844 30.003906 10.886719 30.117188 10.792969 C 30.128906 10.785156 30.394531 10.527344 30.09375 9.695312 L 30.085938 9.675781 L 30.070312 9.691406 C 29.988281 9.789062 29.929688 9.910156 29.910156 10.039062 L 29.90625 10.054688 C 29.90625 10.054688 29.847656 10.25 29.679688 10.25 C 29.617188 10.246094 29.558594 10.226562 29.503906 10.195312 C 29.402344 10.089844 29.265625 10.019531 29.121094 9.992188 L 29.097656 9.988281 L 29.105469 10.011719 C 29.40625 10.839844 29.777344 10.871094 29.796875 10.875 "/>
<path style=" stroke:none;fill-rule:nonzero;fill:rgb(0%,0%,0%);fill-opacity:1;" d="M 29.910156 11.265625 C 29.820312 11.148438 29.695312 11.0625 29.554688 11.011719 L 29.535156 11.007812 L 29.539062 11.027344 C 29.722656 11.890625 30.085938 11.976562 30.101562 11.980469 C 30.261719 11.980469 30.308594 12.230469 30.316406 12.257812 L 30.316406 12.261719 L 30.328125 12.257812 L 30.34375 12.253906 C 30.339844 12.230469 30.308594 12.019531 30.429688 11.945312 C 30.445312 11.933594 30.742188 11.714844 30.5625 10.851562 L 30.558594 10.832031 L 30.539062 10.84375 C 30.441406 10.929688 30.371094 11.042969 30.335938 11.167969 L 30.328125 11.179688 C 30.328125 11.183594 30.25 11.347656 30.101562 11.347656 C 30.03125 11.34375 29.960938 11.3125 29.910156 11.265625 "/>
<path style=" stroke:none;fill-rule:nonzero;fill:rgb(0%,0%,0%);fill-opacity:1;" d="M 23.027344 5.253906 C 23.058594 4.792969 21.617188 5.160156 21.617188 5.160156 C 21.617188 5.160156 22.996094 5.699219 23.027344 5.253906 "/>
<path style=" stroke:none;fill-rule:nonzero;fill:rgb(0%,0%,0%);fill-opacity:1;" d="M 22.183594 22.054688 L 22.1875 22.066406 L 22.1875 22.039062 L 22.171875 22.039062 C 22.128906 22.039062 21.894531 22.03125 21.863281 21.890625 C 21.855469 21.875 21.699219 21.542969 20.804688 21.535156 L 20.78125 21.535156 L 20.789062 21.554688 C 20.867188 21.679688 20.976562 21.78125 21.109375 21.84375 C 21.183594 21.890625 21.230469 21.972656 21.238281 22.058594 C 21.226562 22.140625 21.179688 22.214844 21.109375 22.265625 L 21.101562 22.273438 C 20.984375 22.332031 20.886719 22.425781 20.816406 22.535156 L 20.808594 22.558594 L 20.839844 22.558594 C 21.730469 22.558594 21.886719 22.226562 21.894531 22.214844 C 21.945312 22.082031 22.160156 22.070312 22.183594 22.066406 Z M 22.183594 22.054688 "/>
<path style=" stroke:none;fill-rule:nonzero;fill:rgb(0%,0%,0%);fill-opacity:1;" d="M 23.371094 21.941406 L 23.367188 21.929688 L 23.371094 21.941406 L 23.367188 21.914062 L 23.363281 21.914062 L 23.367188 21.921875 L 23.367188 21.925781 L 23.363281 21.914062 C 23.332031 21.917969 23.300781 21.921875 23.265625 21.921875 C 23.175781 21.921875 23.0625 21.902344 23.027344 21.808594 C 23.019531 21.796875 22.875 21.574219 22.292969 21.574219 C 22.171875 21.574219 22.046875 21.585938 21.925781 21.601562 L 21.90625 21.605469 L 21.917969 21.621094 C 22.007812 21.738281 22.132812 21.820312 22.273438 21.867188 C 22.355469 21.902344 22.410156 21.972656 22.429688 22.058594 C 22.429688 22.144531 22.394531 22.222656 22.335938 22.28125 L 22.324219 22.292969 C 22.214844 22.367188 22.132812 22.472656 22.082031 22.589844 L 22.074219 22.613281 L 22.097656 22.609375 C 22.988281 22.488281 23.097656 22.140625 23.101562 22.125 C 23.132812 21.988281 23.34375 21.945312 23.367188 21.941406 Z M 23.371094 21.941406 "/>
<path style=" stroke:none;fill-rule:nonzero;fill:rgb(0%,0%,0%);fill-opacity:1;" d="M 24.519531 21.628906 L 24.515625 21.628906 C 24.460938 21.644531 24.40625 21.652344 24.351562 21.65625 C 24.277344 21.664062 24.207031 21.628906 24.164062 21.570312 C 24.160156 21.5625 24.039062 21.421875 23.660156 21.421875 C 23.453125 21.425781 23.246094 21.457031 23.050781 21.515625 L 23.027344 21.519531 L 23.042969 21.535156 C 23.148438 21.636719 23.285156 21.703125 23.429688 21.730469 C 23.515625 21.753906 23.582031 21.816406 23.609375 21.898438 C 23.621094 21.984375 23.601562 22.066406 23.546875 22.132812 L 23.539062 22.144531 C 23.445312 22.234375 23.375 22.347656 23.339844 22.472656 L 23.335938 22.496094 L 23.359375 22.488281 C 24.222656 22.25 24.285156 21.890625 24.285156 21.875 C 24.296875 21.730469 24.5 21.664062 24.523438 21.65625 L 24.519531 21.644531 L 24.527344 21.65625 L 24.527344 21.652344 L 24.527344 21.65625 Z M 24.519531 21.628906 "/>
<path style=" stroke:none;fill-rule:nonzero;fill:rgb(0%,0%,0%);fill-opacity:1;" d="M 25.621094 21.1875 L 25.617188 21.191406 L 25.621094 21.199219 L 25.625 21.203125 L 25.617188 21.191406 C 25.550781 21.222656 25.480469 21.238281 25.40625 21.242188 C 25.351562 21.246094 25.296875 21.222656 25.261719 21.179688 C 25.160156 21.109375 25.035156 21.078125 24.910156 21.089844 C 24.644531 21.101562 24.386719 21.164062 24.148438 21.277344 L 24.128906 21.285156 L 24.144531 21.300781 C 24.265625 21.382812 24.40625 21.433594 24.554688 21.4375 C 24.644531 21.453125 24.71875 21.503906 24.757812 21.582031 C 24.78125 21.664062 24.773438 21.75 24.730469 21.820312 L 24.722656 21.832031 C 24.640625 21.933594 24.589844 22.058594 24.574219 22.1875 L 24.570312 22.210938 L 24.59375 22.199219 C 25.414062 21.847656 25.421875 21.480469 25.421875 21.464844 C 25.414062 21.324219 25.609375 21.226562 25.628906 21.214844 L 25.625 21.203125 L 25.632812 21.214844 Z M 25.621094 21.1875 "/>
<path style=" stroke:none;fill-rule:nonzero;fill:rgb(0%,0%,0%);fill-opacity:1;" d="M 26.648438 20.605469 L 26.644531 20.605469 L 26.652344 20.613281 L 26.652344 20.617188 L 26.648438 20.605469 C 26.574219 20.652344 26.492188 20.679688 26.410156 20.6875 C 26.367188 20.691406 26.324219 20.671875 26.292969 20.644531 C 26.21875 20.605469 26.136719 20.585938 26.054688 20.59375 C 25.894531 20.59375 25.613281 20.644531 25.203125 20.890625 L 25.183594 20.902344 L 25.203125 20.914062 C 25.316406 20.972656 25.449219 21.003906 25.578125 20.996094 L 25.628906 20.996094 C 25.71875 20.996094 25.800781 21.039062 25.851562 21.109375 C 25.886719 21.1875 25.886719 21.273438 25.855469 21.351562 L 25.851562 21.363281 C 25.785156 21.472656 25.75 21.605469 25.75 21.734375 L 25.753906 21.757812 L 25.773438 21.746094 C 26.539062 21.28125 26.496094 20.917969 26.492188 20.902344 C 26.464844 20.765625 26.640625 20.644531 26.664062 20.628906 L 26.65625 20.617188 L 26.664062 20.628906 L 26.664062 20.625 L 26.664062 20.628906 Z M 26.648438 20.605469 "/>
<path style=" stroke:none;fill-rule:nonzero;fill:rgb(0%,0%,0%);fill-opacity:1;" d="M 27.585938 19.886719 L 27.582031 19.890625 C 27.511719 19.953125 27.425781 19.992188 27.332031 20.003906 C 27.296875 20.003906 27.265625 19.996094 27.238281 19.972656 C 27.191406 19.953125 27.140625 19.945312 27.089844 19.949219 C 26.917969 19.949219 26.625 20.019531 26.195312 20.367188 L 26.175781 20.378906 L 26.195312 20.390625 C 26.273438 20.417969 26.355469 20.433594 26.4375 20.429688 C 26.503906 20.429688 26.566406 20.421875 26.632812 20.410156 L 26.640625 20.410156 C 26.726562 20.402344 26.808594 20.433594 26.867188 20.496094 C 26.910156 20.566406 26.925781 20.652344 26.90625 20.734375 L 26.902344 20.746094 C 26.851562 20.867188 26.835938 21 26.855469 21.128906 L 26.859375 21.148438 L 26.878906 21.136719 C 27.570312 20.574219 27.476562 20.21875 27.472656 20.203125 C 27.425781 20.070312 27.582031 19.925781 27.601562 19.910156 L 27.59375 19.898438 L 27.605469 19.910156 L 27.601562 19.90625 L 27.605469 19.910156 Z M 27.585938 19.886719 "/>
<path style=" stroke:none;fill-rule:nonzero;fill:rgb(0%,0%,0%);fill-opacity:1;" d="M 28.410156 19.050781 C 28.34375 19.128906 28.253906 19.183594 28.152344 19.203125 C 28.128906 19.203125 28.101562 19.195312 28.082031 19.183594 C 28.054688 19.175781 28.027344 19.171875 28 19.171875 C 27.855469 19.171875 27.542969 19.242188 27.101562 19.710938 L 27.085938 19.726562 L 27.105469 19.734375 C 27.148438 19.746094 27.195312 19.75 27.238281 19.75 C 27.34375 19.75 27.445312 19.730469 27.539062 19.699219 C 27.628906 19.675781 27.726562 19.699219 27.796875 19.761719 C 27.84375 19.824219 27.863281 19.902344 27.855469 19.980469 L 27.855469 19.996094 C 27.824219 20.121094 27.824219 20.253906 27.863281 20.378906 L 27.871094 20.398438 L 27.886719 20.382812 C 28.492188 19.730469 28.351562 19.394531 28.34375 19.378906 C 28.28125 19.253906 28.417969 19.089844 28.433594 19.070312 L 28.421875 19.0625 L 28.433594 19.066406 Z M 28.410156 19.050781 "/>
<path style=" stroke:none;fill-rule:nonzero;fill:rgb(0%,0%,0%);fill-opacity:1;" d="M 29.113281 18.105469 L 29.113281 18.109375 C 29.097656 18.128906 28.984375 18.292969 28.859375 18.292969 L 28.804688 18.285156 L 28.773438 18.28125 C 28.679688 18.28125 28.34375 18.328125 27.90625 18.941406 L 27.894531 18.960938 L 27.917969 18.960938 C 27.933594 18.964844 27.949219 18.964844 27.964844 18.964844 C 28.097656 18.960938 28.226562 18.929688 28.34375 18.867188 C 28.378906 18.855469 28.421875 18.847656 28.460938 18.847656 C 28.6875 18.847656 28.695312 19.09375 28.695312 19.105469 L 28.695312 19.117188 C 28.679688 19.246094 28.699219 19.378906 28.757812 19.496094 L 28.769531 19.515625 L 28.78125 19.496094 C 29.289062 18.773438 29.101562 18.457031 29.09375 18.441406 C 29.011719 18.328125 29.121094 18.144531 29.136719 18.125 L 29.125 18.117188 L 29.136719 18.121094 Z M 29.113281 18.105469 "/>
<path style=" stroke:none;fill-rule:nonzero;fill:rgb(0%,0%,0%);fill-opacity:1;" d="M 29.699219 17.09375 L 29.6875 17.085938 L 29.703125 17.089844 L 29.699219 17.089844 L 29.703125 17.089844 L 29.675781 17.078125 L 29.675781 17.082031 C 29.664062 17.101562 29.566406 17.300781 29.429688 17.300781 L 29.394531 17.296875 L 29.390625 17.296875 C 29.351562 17.296875 28.988281 17.316406 28.597656 18.066406 L 28.589844 18.089844 L 28.613281 18.089844 C 28.761719 18.078125 28.902344 18.023438 29.015625 17.9375 C 29.066406 17.914062 29.117188 17.898438 29.171875 17.898438 C 29.359375 17.898438 29.398438 18.113281 29.402344 18.125 L 29.402344 18.140625 C 29.40625 18.269531 29.445312 18.394531 29.515625 18.503906 L 29.53125 18.519531 L 29.542969 18.5 C 29.945312 17.714844 29.714844 17.425781 29.703125 17.414062 C 29.605469 17.308594 29.691406 17.113281 29.699219 17.09375 "/>
<path style=" stroke:none;fill-rule:nonzero;fill:rgb(0%,0%,0%);fill-opacity:1;" d="M 30.105469 16.042969 L 30.089844 16.039062 L 30.105469 16.039062 L 30.101562 16.039062 L 30.105469 16.039062 L 30.078125 16.03125 L 30.078125 16.035156 C 30.066406 16.058594 29.992188 16.285156 29.847656 16.285156 L 29.828125 16.285156 C 29.8125 16.285156 29.441406 16.320312 29.144531 17.152344 L 29.136719 17.171875 L 29.160156 17.171875 C 29.304688 17.140625 29.4375 17.070312 29.542969 16.96875 C 29.59375 16.929688 29.65625 16.910156 29.71875 16.90625 C 29.882812 16.90625 29.945312 17.101562 29.945312 17.105469 L 29.949219 17.113281 C 29.96875 17.242188 30.027344 17.363281 30.113281 17.464844 L 30.128906 17.480469 L 30.136719 17.460938 C 30.429688 16.625 30.160156 16.371094 30.148438 16.359375 C 30.039062 16.269531 30.097656 16.066406 30.105469 16.042969 "/>
<path style=" stroke:none;fill-rule:nonzero;fill:rgb(0%,0%,0%);fill-opacity:1;" d="M 30.453125 15.257812 C 30.328125 15.183594 30.359375 14.972656 30.363281 14.949219 L 30.351562 14.945312 L 30.363281 14.945312 L 30.335938 14.941406 L 30.335938 14.945312 C 30.332031 14.972656 30.28125 15.21875 30.121094 15.222656 C 30.105469 15.226562 29.742188 15.308594 29.558594 16.171875 L 29.554688 16.195312 L 29.578125 16.191406 C 29.71875 16.140625 29.839844 16.054688 29.929688 15.9375 C 29.984375 15.890625 30.050781 15.859375 30.125 15.855469 C 30.269531 15.855469 30.347656 16.019531 30.351562 16.019531 L 30.355469 16.03125 C 30.390625 16.15625 30.464844 16.269531 30.5625 16.355469 L 30.582031 16.371094 L 30.585938 16.347656 C 30.765625 15.484375 30.464844 15.265625 30.453125 15.257812 "/>
<path style=" stroke:none;fill-rule:nonzero;fill:rgb(0%,0%,0%);fill-opacity:1;" d="M 19.394531 21.703125 C 19.394531 21.703125 20.6875 22.429688 20.777344 21.976562 C 20.867188 21.535156 19.394531 21.703125 19.394531 21.703125 "/>
<path style=" stroke:none;fill-rule:nonzero;fill:rgb(0%,0%,0%);fill-opacity:1;" d="M 30.445312 13.164062 C 30.207031 13.164062 30.011719 13.355469 30.011719 13.59375 C 30.011719 13.828125 30.207031 14.019531 30.445312 14.019531 C 30.6875 14.019531 30.882812 13.828125 30.882812 13.59375 C 30.882812 13.355469 30.6875 13.164062 30.445312 13.164062 "/>
<path style=" stroke:none;fill-rule:nonzero;fill:rgb(71.764706%,57.254902%,34.117647%);fill-opacity:1;" d="M 26.820312 7.679688 C 26.863281 7.527344 26.921875 7.382812 26.992188 7.242188 C 27.023438 7.199219 27.039062 7.148438 27.050781 7.097656 L 27.050781 7.089844 L 27.042969 7.085938 L 27.003906 7.078125 C 26.78125 7.078125 25.835938 7.339844 24.917969 8.132812 C 24.472656 8.527344 24.136719 9.027344 23.941406 9.582031 L 23.917969 9.640625 C 23.574219 10.507812 23.304688 11.398438 23.113281 12.304688 C 23.070312 12.109375 22.996094 11.921875 22.890625 11.75 C 22.785156 11.605469 22.613281 11.519531 22.429688 11.515625 C 22.394531 11.515625 22.355469 11.519531 22.316406 11.523438 C 22.074219 11.578125 21.878906 11.75 21.796875 11.980469 L 21.796875 11.988281 C 21.714844 12.171875 21.679688 12.371094 21.6875 12.570312 C 21.6875 12.714844 21.726562 12.855469 21.796875 12.984375 C 22.003906 13.351562 22.40625 13.570312 22.832031 13.550781 C 22.894531 13.550781 22.957031 13.546875 23.015625 13.539062 C 23.214844 13.515625 23.40625 13.441406 23.570312 13.332031 C 23.988281 13.054688 24.328125 12.699219 24.6875 12.324219 C 24.890625 12.113281 25.101562 11.894531 25.332031 11.691406 C 25.574219 11.460938 25.84375 11.257812 26.132812 11.082031 C 26.363281 10.945312 26.613281 10.84375 26.875 10.78125 L 26.914062 10.761719 L 26.90625 10.710938 L 26.894531 10.691406 C 26.796875 10.421875 26.726562 10.140625 26.6875 9.855469 C 26.628906 9.519531 26.609375 9.175781 26.628906 8.832031 C 26.65625 8.441406 26.71875 8.054688 26.820312 7.679688 "/>
<path style=" stroke:none;fill-rule:nonzero;fill:rgb(71.764706%,57.254902%,34.117647%);fill-opacity:1;" d="M 19.871094 20.199219 C 20.140625 20.078125 20.421875 19.953125 20.71875 19.828125 C 21.273438 19.589844 21.847656 19.394531 22.433594 19.242188 C 23.070312 19.054688 23.730469 18.953125 24.394531 18.941406 L 24.410156 18.941406 C 24.644531 18.945312 24.878906 18.96875 25.105469 19.023438 C 24.835938 18.238281 23.898438 17.96875 23.542969 17.867188 C 23.089844 17.753906 22.632812 17.671875 22.167969 17.617188 L 22.128906 17.613281 L 22.160156 17.59375 C 22.234375 17.539062 22.296875 17.472656 22.351562 17.402344 L 22.398438 17.34375 L 22.402344 17.339844 L 22.410156 17.339844 C 22.863281 17.390625 23.3125 17.484375 23.75 17.613281 C 24.132812 17.722656 24.496094 17.898438 24.820312 18.128906 C 24.992188 18.257812 25.136719 18.417969 25.25 18.597656 C 25.417969 18.847656 25.476562 19.238281 25.472656 19.5 L 25.472656 19.523438 L 25.453125 19.511719 C 25.269531 19.386719 25.0625 19.304688 24.84375 19.273438 C 24.6875 19.253906 24.53125 19.242188 24.375 19.242188 C 23.902344 19.25 23.433594 19.3125 22.976562 19.429688 C 22.472656 19.546875 21.976562 19.695312 21.492188 19.871094 C 20.925781 20.074219 20.476562 20.265625 19.863281 20.539062 C 19.765625 20.578125 19.671875 20.621094 19.582031 20.664062 C 19.28125 20.796875 18.996094 20.925781 18.679688 21.035156 C 18.691406 20.921875 18.703125 20.808594 18.714844 20.695312 C 19.125 20.53125 19.503906 20.363281 19.871094 20.199219 "/>
<path style=" stroke:none;fill-rule:nonzero;fill:rgb(71.764706%,57.254902%,34.117647%);fill-opacity:1;" d="M 14.675781 21.828125 C 13.859375 21.84375 13.050781 21.6875 12.300781 21.371094 L 12.242188 21.347656 C 11.695312 21.09375 11.1875 20.757812 10.742188 20.355469 C 10.3125 19.925781 9.941406 19.441406 9.636719 18.917969 L 9.621094 18.882812 L 9.65625 18.898438 C 9.976562 19.046875 10.957031 19.25 11.53125 19.28125 C 11.75 19.292969 11.921875 19.300781 12.074219 19.300781 C 12.265625 19.300781 12.457031 19.289062 12.652344 19.269531 C 12.664062 19.285156 12.675781 19.296875 12.6875 19.3125 C 12.769531 19.402344 12.84375 19.484375 12.914062 19.5625 C 12.71875 19.582031 12.488281 19.59375 12.1875 19.601562 L 12.132812 19.601562 C 11.757812 19.601562 10.695312 19.523438 10.382812 19.445312 C 10.984375 20.210938 11.523438 20.730469 12.46875 21.117188 C 12.8125 21.257812 13.175781 21.359375 13.542969 21.421875 C 13.972656 21.492188 14.40625 21.523438 14.839844 21.515625 C 14.914062 21.515625 14.988281 21.515625 15.066406 21.515625 C 15.195312 21.613281 15.316406 21.703125 15.425781 21.792969 C 15.171875 21.816406 14.921875 21.828125 14.675781 21.828125 "/>
<path style=" stroke:none;fill-rule:nonzero;fill:rgb(71.764706%,57.254902%,34.117647%);fill-opacity:1;" d="M 10.171875 15.15625 C 10.105469 15.160156 10.03125 15.160156 9.953125 15.160156 C 9.203125 15.152344 8.457031 15.085938 7.722656 14.960938 C 7.035156 14.847656 6.539062 14.730469 6.28125 14.613281 C 6.296875 14.640625 6.316406 14.671875 6.339844 14.707031 C 6.574219 15.082031 7.121094 15.953125 7.832031 16.53125 C 8.453125 17.035156 9.226562 17.589844 10.238281 17.875 C 10.726562 18.011719 11.230469 18.097656 11.738281 18.125 C 11.808594 18.222656 11.882812 18.320312 11.957031 18.417969 C 11.933594 18.417969 11.914062 18.417969 11.890625 18.417969 C 10.855469 18.429688 9.835938 18.171875 8.933594 17.675781 C 8.585938 17.488281 8.253906 17.273438 7.945312 17.027344 C 7.65625 16.792969 7.382812 16.542969 7.132812 16.273438 C 6.546875 15.613281 6.042969 14.890625 5.632812 14.113281 L 5.613281 14.078125 L 5.652344 14.09375 C 5.875 14.1875 6.101562 14.265625 6.332031 14.332031 C 6.875 14.496094 7.429688 14.617188 7.992188 14.699219 C 8.617188 14.796875 9.253906 14.847656 9.886719 14.847656 C 9.945312 14.847656 10.007812 14.847656 10.066406 14.847656 C 10.101562 14.949219 10.136719 15.054688 10.171875 15.15625 "/>
<path style=" stroke:none;fill-rule:nonzero;fill:rgb(71.764706%,57.254902%,34.117647%);fill-opacity:1;" d="M 7.425781 9.945312 L 7.40625 9.945312 C 6.183594 9.804688 4.976562 9.558594 3.796875 9.214844 C 3.175781 9.035156 2.585938 8.832031 2.046875 8.621094 L 2.027344 8.609375 C 2.21875 9.015625 2.4375 9.410156 2.679688 9.789062 C 3.285156 10.757812 4.082031 11.597656 5.023438 12.265625 C 5.878906 12.839844 6.84375 13.25 7.855469 13.472656 L 7.855469 13.46875 L 7.875 13.46875 L 7.921875 13.476562 C 8.472656 13.585938 9.027344 13.648438 9.585938 13.664062 C 9.644531 13.664062 9.699219 13.660156 9.753906 13.660156 C 9.757812 13.695312 9.765625 13.734375 9.773438 13.769531 C 9.785156 13.832031 9.800781 13.898438 9.816406 13.964844 C 9.808594 13.964844 9.800781 13.964844 9.789062 13.964844 C 9.332031 13.957031 8.875 13.921875 8.417969 13.863281 C 7.898438 13.789062 6.894531 13.609375 6.039062 13.203125 C 4.574219 12.507812 3.40625 11.464844 2.457031 10.011719 C 2.070312 9.410156 1.734375 8.769531 1.460938 8.109375 L 1.445312 8.074219 L 1.441406 8.070312 L 1.441406 8.066406 L 1.425781 8.035156 L 1.457031 8.046875 L 1.464844 8.046875 L 1.464844 8.050781 C 1.835938 8.214844 2.195312 8.359375 2.542969 8.488281 C 2.945312 8.636719 4.824219 9.253906 5.964844 9.433594 C 7.054688 9.613281 8.15625 9.714844 9.257812 9.730469 C 9.433594 9.730469 9.597656 9.726562 9.757812 9.71875 C 9.742188 9.816406 9.726562 9.914062 9.714844 10.007812 C 9.457031 10.035156 9.203125 10.046875 8.945312 10.046875 C 8.4375 10.039062 7.929688 10.007812 7.425781 9.945312 "/>
</g>
</svg>
