<?xml version="1.0" encoding="UTF-8"?>
<svg xmlns="http://www.w3.org/2000/svg" xmlns:xlink="http://www.w3.org/1999/xlink" width="32px" height="32px" viewBox="0 0 32 22" version="1.1">
<g id="surface1">
<path style=" stroke:none;fill-rule:nonzero;fill:rgb(0%,0%,0%);fill-opacity:1;" d="M 21.769531 0 L 0 0 L 0 1.003906 C -0.0078125 2.53125 0.597656 3.996094 1.683594 5.089844 L 0 5.089844 L 0 6.101562 C -0.00390625 7.625 0.597656 9.089844 1.683594 10.179688 L 0 10.179688 L 0 11.183594 C -0.0078125 12.710938 0.597656 14.175781 1.683594 15.273438 L 0 15.273438 L 0 16.28125 C 0 19.410156 2.433594 21.953125 5.4375 21.953125 L 10.488281 21.953125 L 13.917969 16.277344 C 16.910156 19.859375 22.03125 20.949219 26.273438 18.902344 C 30.511719 16.851562 32.753906 12.210938 31.679688 7.699219 C 30.601562 3.1875 26.496094 -0.00390625 21.769531 0 Z M 21.769531 0 "/>
<path style=" stroke:none;fill-rule:nonzero;fill:rgb(100%,100%,100%);fill-opacity:1;" d="M 21.769531 0.335938 L 0.328125 0.335938 L 0.328125 0.992188 C 0.3125 2.742188 1.15625 4.390625 2.597656 5.425781 L 0.328125 5.425781 L 0.328125 6.09375 C 0.316406 7.84375 1.160156 9.492188 2.597656 10.527344 L 0.328125 10.527344 L 0.328125 11.183594 C 0.3125 12.933594 1.15625 14.585938 2.597656 15.617188 L 0.328125 15.617188 L 0.328125 16.289062 C 0.328125 19.226562 2.617188 21.617188 5.429688 21.617188 L 10.28125 21.617188 L 13.867188 15.6875 C 16.613281 19.34375 21.597656 20.625 25.820312 18.753906 C 30.042969 16.886719 32.363281 12.382812 31.386719 7.941406 C 30.414062 3.5 26.40625 0.332031 21.769531 0.335938 Z M 21.769531 0.335938 "/>
<path style=" stroke:none;fill-rule:nonzero;fill:rgb(0%,0%,0%);fill-opacity:1;" d="M 21.769531 0.992188 L 1.203125 0.992188 C 1.203125 3.574219 3.1875 5.664062 5.625 5.664062 L 13.375 5.664062 C 13.496094 5.667969 13.59375 5.761719 13.59375 5.878906 C 13.589844 5.996094 13.496094 6.089844 13.375 6.09375 L 1.203125 6.09375 C 1.203125 8.671875 3.1875 10.761719 5.625 10.761719 L 10.296875 10.761719 C 10.414062 10.761719 10.511719 10.855469 10.515625 10.96875 C 10.515625 11.085938 10.421875 11.183594 10.300781 11.183594 C 10.300781 11.183594 10.296875 11.183594 10.296875 11.183594 L 1.203125 11.183594 C 1.203125 13.769531 3.1875 15.851562 5.625 15.851562 L 7.222656 15.851562 C 7.34375 15.855469 7.441406 15.953125 7.441406 16.070312 C 7.441406 16.191406 7.34375 16.285156 7.222656 16.289062 L 1.203125 16.289062 C 1.203125 18.867188 3.1875 20.957031 5.625 20.957031 L 9.894531 20.957031 L 17.878906 7.722656 C 19.023438 5.820312 21.425781 5.03125 23.511719 5.882812 C 25.59375 6.730469 26.71875 8.957031 26.148438 11.09375 C 25.578125 13.234375 23.484375 14.636719 21.246094 14.375 C 19.003906 14.117188 17.300781 12.277344 17.253906 10.066406 L 14.234375 15.074219 C 16.707031 18.585938 21.359375 19.90625 25.363281 18.234375 C 29.367188 16.558594 31.617188 12.355469 30.746094 8.175781 C 29.875 3.992188 26.125 0.992188 21.769531 0.992188 Z M 21.769531 0.992188 "/>
<path style=" stroke:none;fill-rule:nonzero;fill:rgb(96.862745%,28.627451%,0.784314%);fill-opacity:1;" d="M 24.375 9.972656 C 24.371094 11.378906 23.207031 12.519531 21.773438 12.519531 C 20.339844 12.515625 19.175781 11.378906 19.175781 9.96875 C 19.171875 8.5625 20.335938 7.421875 21.769531 7.421875 C 22.460938 7.421875 23.125 7.6875 23.613281 8.167969 C 24.101562 8.644531 24.375 9.296875 24.375 9.972656 Z M 24.375 9.972656 "/>
</g>
</svg>
