<?xml version="1.0" encoding="UTF-8"?>
<svg xmlns="http://www.w3.org/2000/svg" xmlns:xlink="http://www.w3.org/1999/xlink" width="32px" height="32px" viewBox="0 0 32 29" version="1.1">
<g id="surface1">
<path style=" stroke:none;fill-rule:nonzero;fill:rgb(0%,15.686275%,40.784314%);fill-opacity:1;" d="M 31.996094 13.140625 C 31.996094 9.980469 29.976562 6.867188 26.398438 4.953125 L 25.027344 6.015625 C 27.472656 7.515625 28.910156 9.75 28.910156 12.292969 C 28.910156 18.21875 21.378906 23.59375 13.003906 23.59375 C 12.160156 23.59375 11.316406 23.53125 10.480469 23.410156 L 7.652344 25.453125 C 9.542969 26.058594 11.523438 26.363281 13.511719 26.351562 C 23.464844 26.351562 31.996094 19.8125 31.996094 13.140625 Z M 31.996094 13.140625 "/>
<path style=" stroke:none;fill-rule:nonzero;fill:rgb(0%,15.686275%,40.784314%);fill-opacity:1;" d="M 1.363281 15.367188 C 1.363281 9.234375 9.246094 4.066406 17.273438 4.066406 L 17.441406 4.066406 L 9.679688 12.511719 L 14.140625 11.828125 L 5.351562 20.101562 L 8.917969 19.476562 L 6.425781 22.242188 C 3.402344 20.851562 1.363281 18.445312 1.363281 15.367188 Z M 19.339844 15.34375 L 14.222656 16.316406 L 25.574219 7.238281 L 20.289062 7.929688 L 30.5625 0 L 18.605469 3.0625 C 18.449219 3.0625 18.289062 3.058594 18.128906 3.058594 C 8.324219 3.058594 0 9.535156 0 16.378906 C 0 19.734375 1.851562 22.402344 4.738281 24.128906 L 0.316406 29.050781 Z M 19.339844 15.34375 "/>
</g>
</svg>
