<?xml version="1.0" encoding="UTF-8"?>
<svg xmlns="http://www.w3.org/2000/svg" xmlns:xlink="http://www.w3.org/1999/xlink" width="32px" height="32px" viewBox="0 0 32 20" version="1.1">
<g id="surface1">
<path style=" stroke:none;fill-rule:nonzero;fill:rgb(100%,100%,100%);fill-opacity:1;" d="M 16.632812 13.628906 C 16.238281 14.546875 16.296875 15.734375 16.695312 16.363281 L 18.992188 19.929688 L 20.773438 17.429688 L 23.683594 17.429688 L 25.273438 15.527344 L 21.582031 15.527344 L 20.472656 16.855469 L 18.261719 15.070312 C 18.210938 15.03125 18.15625 14.792969 18.246094 14.578125 L 19.253906 12.214844 C 19.253906 12.214844 19.464844 13.21875 20.808594 13.21875 L 28.808594 13.21875 C 29.1875 13.21875 30.34375 13.21875 30.785156 12.179688 C 31.195312 11.226562 30.589844 10.707031 30.589844 10.707031 L 31.222656 10.707031 L 31.953125 9.003906 L 28.039062 9.003906 C 27.582031 9 27.128906 9.113281 26.730469 9.339844 L 28.574219 5.015625 L 26.5625 5.015625 L 24.535156 9.761719 C 24.535156 9.761719 24.167969 9.003906 22.984375 9.003906 L 20.617188 9.003906 L 24.464844 0 L 22.449219 0 L 18.605469 9.003906 L 13.675781 9.003906 C 12.417969 9.003906 11.214844 9.511719 10.359375 10.410156 C 10.359375 10.410156 10.351562 9.003906 8.628906 9.003906 L 4.242188 9.003906 C 2.480469 9.003906 0.679688 10.023438 0.121094 11.320312 C -0.265625 12.234375 0.285156 13.226562 1.53125 13.226562 L 3.242188 13.226562 C 3.953125 13.226562 4.714844 12.761719 5.035156 12.542969 C 5.035156 12.542969 5.402344 13.226562 6.453125 13.226562 L 8.859375 13.226562 L 8.035156 15.144531 L 10.058594 15.144531 L 10.875 13.226562 L 16.800781 13.226562 Z M 16.632812 13.628906 "/>
<path style=" stroke:none;fill-rule:nonzero;fill:rgb(81.176471%,3.921569%,17.254902%);fill-opacity:1;" d="M 18.085938 8.171875 L 17.832031 7.414062 L 17.507812 7.414062 L 17.089844 8.402344 L 17.296875 8.402344 L 17.625 7.632812 L 17.886719 8.402344 L 18.195312 8.402344 L 18.621094 7.414062 L 18.414062 7.414062 Z M 16.089844 7.90625 C 16.167969 7.691406 16.375 7.550781 16.605469 7.550781 C 16.824219 7.550781 16.910156 7.671875 16.808594 7.90625 C 16.738281 8.121094 16.53125 8.265625 16.296875 8.265625 C 16.078125 8.265625 15.992188 8.144531 16.089844 7.90625 Z M 16.226562 8.429688 C 16.585938 8.445312 16.917969 8.234375 17.042969 7.90625 C 17.195312 7.5625 17.050781 7.386719 16.667969 7.386719 C 16.308594 7.371094 15.980469 7.578125 15.851562 7.90625 C 15.703125 8.253906 15.851562 8.429688 16.226562 8.429688 Z M 14.894531 8.402344 L 15.121094 8.402344 L 15.472656 7.578125 L 15.867188 7.578125 L 15.9375 7.414062 L 14.929688 7.414062 L 14.859375 7.578125 L 15.246094 7.578125 Z M 14.613281 7.734375 C 14.710938 7.5 14.527344 7.386719 14.21875 7.386719 C 13.855469 7.378906 13.523438 7.582031 13.378906 7.90625 C 13.226562 8.265625 13.414062 8.429688 13.796875 8.429688 C 13.984375 8.429688 14.171875 8.398438 14.351562 8.34375 L 14.550781 7.882812 L 14 7.882812 L 13.9375 8.035156 L 14.261719 8.035156 L 14.183594 8.226562 C 14.085938 8.25 13.984375 8.265625 13.878906 8.265625 C 13.5625 8.265625 13.542969 8.089844 13.621094 7.90625 C 13.710938 7.679688 13.941406 7.535156 14.191406 7.542969 C 14.304688 7.542969 14.429688 7.597656 14.375 7.734375 Z M 12.007812 8.402344 L 12.339844 7.632812 L 12.34375 7.632812 L 12.605469 8.402344 L 12.914062 8.402344 L 13.339844 7.414062 L 13.128906 7.414062 L 12.804688 8.171875 L 12.550781 7.414062 L 12.226562 7.414062 L 11.804688 8.402344 Z M 11.492188 8.402344 L 11.917969 7.414062 L 11.683594 7.414062 L 11.261719 8.402344 Z M 10.167969 8.402344 L 10.347656 7.980469 L 10.902344 7.980469 L 10.71875 8.402344 L 10.953125 8.402344 L 11.375 7.414062 L 11.148438 7.414062 L 10.972656 7.816406 L 10.417969 7.816406 L 10.585938 7.414062 L 10.359375 7.414062 L 9.9375 8.402344 Z M 9.953125 7.707031 C 10.027344 7.507812 9.917969 7.386719 9.621094 7.386719 C 9.382812 7.386719 9.128906 7.480469 9.027344 7.707031 C 8.851562 8.109375 9.675781 7.910156 9.578125 8.128906 C 9.550781 8.207031 9.445312 8.28125 9.253906 8.28125 C 9.078125 8.28125 9.015625 8.210938 9.058594 8.097656 L 8.824219 8.097656 C 8.734375 8.308594 8.867188 8.429688 9.164062 8.429688 C 9.507812 8.429688 9.742188 8.308594 9.832031 8.101562 C 10.015625 7.671875 9.171875 7.925781 9.28125 7.671875 C 9.335938 7.585938 9.433594 7.53125 9.535156 7.535156 C 9.699219 7.535156 9.769531 7.582031 9.71875 7.707031 Z M 8.253906 8.019531 L 7.832031 8.019531 L 8.226562 7.589844 Z M 7.234375 8.402344 L 7.480469 8.402344 L 7.683594 8.183594 L 8.269531 8.183594 L 8.289062 8.402344 L 8.566406 8.402344 L 8.464844 7.414062 L 8.175781 7.414062 Z M 6.648438 7.609375 L 6.65625 7.609375 L 6.601562 8.402344 L 6.882812 8.402344 L 7.664062 7.414062 L 7.4375 7.414062 L 6.839844 8.183594 L 6.894531 7.414062 L 6.605469 7.414062 L 6.007812 8.183594 L 6.066406 7.414062 L 5.820312 7.414062 L 5.761719 8.402344 L 6.035156 8.402344 Z M 17.414062 6.558594 L 18.113281 6.066406 L 18.808594 6.558594 L 18.542969 5.765625 L 19.238281 5.273438 L 18.378906 5.273438 L 18.113281 4.476562 L 17.84375 5.273438 L 16.980469 5.273438 L 17.683594 5.765625 Z M 12.886719 6.558594 L 13.585938 6.066406 L 14.289062 6.558594 L 14.019531 5.765625 L 14.71875 5.273438 L 13.851562 5.273438 L 13.585938 4.476562 L 13.324219 5.273438 L 12.457031 5.273438 L 13.15625 5.765625 Z M 8.367188 6.558594 L 9.066406 6.066406 L 9.761719 6.558594 L 9.492188 5.765625 L 10.199219 5.273438 L 9.332031 5.273438 L 9.066406 4.476562 L 8.796875 5.273438 L 7.9375 5.273438 L 8.636719 5.765625 Z M 8.367188 6.558594 "/>
<path style=" stroke:none;fill-rule:nonzero;fill:rgb(81.176471%,3.921569%,17.254902%);fill-opacity:1;" d="M 24.253906 16 L 21.816406 16 L 21.019531 16.957031 L 23.449219 16.957031 Z M 24.253906 16 "/>
<path style=" stroke:none;fill-rule:nonzero;fill:rgb(1.568627%,11.764706%,25.490196%);fill-opacity:1;" d="M 14.914062 11.902344 L 15.949219 9.476562 L 13.675781 9.476562 C 12.042969 9.46875 10.570312 10.425781 9.953125 11.894531 L 8.769531 14.667969 L 9.734375 14.667969 L 10.851562 12.050781 C 11.28125 11.046875 12.21875 10.234375 13.710938 10.234375 L 14.667969 10.234375 L 14.0625 11.65625 C 13.972656 11.847656 13.78125 11.980469 13.5625 11.996094 L 11.339844 11.996094 L 11.015625 12.75 L 13.683594 12.75 C 14.164062 12.75 14.648438 12.535156 14.914062 11.902344 Z M 26.511719 10.234375 C 26.214844 10.929688 26.605469 11.492188 27.378906 11.492188 L 29.335938 11.492188 C 29.476562 11.492188 29.546875 11.609375 29.484375 11.746094 C 29.417969 11.886719 29.277344 11.984375 29.117188 11.996094 L 25.539062 11.996094 L 25.214844 12.75 L 28.808594 12.75 C 29.476562 12.75 30.082031 12.605469 30.34375 11.996094 C 30.636719 11.308594 30.25 10.738281 29.476562 10.738281 L 27.519531 10.738281 C 27.378906 10.738281 27.308594 10.625 27.363281 10.488281 C 27.429688 10.34375 27.570312 10.25 27.730469 10.234375 L 30.898438 10.234375 L 31.222656 9.476562 L 28.039062 9.476562 C 27.378906 9.476562 26.714844 9.757812 26.511719 10.234375 Z M 16.027344 12.75 L 16.921875 10.652344 L 15.964844 10.652344 L 15.0625 12.75 Z M 17.421875 9.476562 L 16.464844 9.476562 L 16.140625 10.234375 L 17.097656 10.234375 Z M 24.746094 12.75 L 27.851562 5.484375 L 26.886719 5.484375 L 23.789062 12.75 Z M 20.152344 9.476562 L 19.832031 10.234375 L 22.871094 10.234375 C 23.449219 10.234375 23.273438 10.652344 23.273438 10.652344 L 21.316406 10.652344 C 20.542969 10.652344 19.972656 10.992188 19.789062 11.421875 C 19.472656 12.160156 19.929688 12.75 20.808594 12.75 L 21.800781 12.75 C 22.035156 12.738281 22.265625 12.671875 22.464844 12.550781 L 22.378906 12.75 L 23.335938 12.75 L 24.132812 10.902344 C 24.464844 10.117188 23.957031 9.476562 22.984375 9.476562 Z M 8.980469 12.75 L 9.769531 10.902344 C 10.105469 10.117188 9.59375 9.476562 8.628906 9.476562 L 6.121094 9.476562 L 5.796875 10.234375 L 8.515625 10.234375 C 9.09375 10.234375 8.917969 10.652344 8.917969 10.652344 L 6.960938 10.652344 C 6.183594 10.652344 5.613281 10.992188 5.429688 11.421875 C 5.113281 12.160156 5.570312 12.75 6.453125 12.75 L 7.445312 12.75 C 7.679688 12.738281 7.90625 12.671875 8.105469 12.550781 L 8.015625 12.75 Z M 3.953125 10.234375 L 5.234375 10.234375 L 5.550781 9.476562 L 4.242188 9.476562 C 2.691406 9.476562 1.050781 10.382812 0.574219 11.5 C 0.285156 12.175781 0.707031 12.75 1.53125 12.75 L 3.242188 12.75 C 3.988281 12.75 4.890625 12.058594 4.890625 12.058594 L 4.09375 11.730469 C 3.871094 11.886719 3.605469 11.980469 3.332031 11.996094 L 1.699219 11.996094 C 1.496094 11.996094 1.402344 11.796875 1.515625 11.546875 C 1.828125 10.820312 2.917969 10.234375 3.953125 10.234375 Z M 3.953125 10.234375 "/>
<path style=" stroke:none;fill-rule:nonzero;fill:rgb(1.568627%,11.764706%,25.490196%);fill-opacity:1;" d="M 17.085938 13.808594 C 16.765625 14.558594 16.773438 15.589844 17.113281 16.109375 L 19.011719 19.066406 L 20.265625 17.304688 L 17.949219 15.433594 C 17.703125 15.242188 17.632812 14.769531 17.796875 14.402344 L 23.738281 0.476562 L 22.773438 0.476562 L 18.929688 9.484375 L 17.789062 9.484375 L 17.464844 10.242188 L 18.613281 10.242188 Z M 17.085938 13.808594 "/>
<path style=" stroke:none;fill-rule:nonzero;fill:rgb(100%,100%,100%);fill-opacity:1;" d="M 6.707031 11.410156 C 6.519531 11.421875 6.355469 11.53125 6.277344 11.695312 C 6.207031 11.859375 6.285156 11.996094 6.453125 11.996094 L 7.921875 11.996094 C 8.15625 11.988281 8.367188 11.863281 8.480469 11.664062 L 8.640625 11.292969 C 8.457031 11.367188 8.257812 11.40625 8.058594 11.410156 Z M 21.0625 11.410156 C 20.875 11.421875 20.710938 11.53125 20.632812 11.695312 C 20.5625 11.859375 20.648438 11.996094 20.808594 11.996094 L 22.28125 11.996094 C 22.515625 11.988281 22.730469 11.863281 22.84375 11.664062 L 23 11.292969 C 22.8125 11.367188 22.613281 11.40625 22.414062 11.410156 Z M 21.0625 11.410156 "/>
</g>
</svg>
