<?xml version="1.0" encoding="UTF-8"?>
<svg xmlns="http://www.w3.org/2000/svg" xmlns:xlink="http://www.w3.org/1999/xlink" width="32px" height="32px" viewBox="0 0 32 32" version="1.1">
<g id="surface1">
<path style=" stroke:none;fill-rule:nonzero;fill:rgb(100%,72.156863%,10.980392%);fill-opacity:1;" d="M 15.257812 0.0117188 C 15.15625 0.0195312 14.980469 0.03125 14.863281 0.0390625 C 14.746094 0.046875 14.539062 0.0664062 14.398438 0.0820312 C 14.257812 0.0976562 14.054688 0.121094 13.941406 0.132812 C 13.828125 0.148438 13.621094 0.175781 13.480469 0.199219 C 13.34375 0.222656 13.0625 0.273438 12.863281 0.3125 C 12.664062 0.351562 12.320312 0.429688 12.105469 0.484375 C 11.890625 0.539062 11.648438 0.601562 11.566406 0.625 C 11.488281 0.648438 11.28125 0.710938 11.109375 0.765625 C 10.9375 0.820312 10.691406 0.902344 10.566406 0.949219 C 10.4375 0.996094 10.210938 1.082031 10.058594 1.140625 C 9.910156 1.203125 9.671875 1.300781 9.527344 1.367188 C 9.386719 1.429688 9.09375 1.566406 8.875 1.675781 C 8.660156 1.78125 8.363281 1.9375 8.210938 2.023438 C 8.0625 2.105469 7.886719 2.207031 7.820312 2.246094 C 7.753906 2.285156 7.609375 2.375 7.503906 2.441406 C 7.390625 2.511719 7.207031 2.632812 7.089844 2.710938 C 6.972656 2.789062 6.832031 2.886719 6.777344 2.921875 C 6.722656 2.960938 6.589844 3.0625 6.476562 3.140625 C 6.367188 3.222656 6.164062 3.378906 6.027344 3.488281 C 5.886719 3.597656 5.65625 3.792969 5.507812 3.921875 C 5.363281 4.050781 5.1875 4.207031 5.117188 4.273438 C 5.046875 4.335938 4.878906 4.496094 4.746094 4.628906 C 4.613281 4.761719 4.40625 4.972656 4.292969 5.097656 C 4.175781 5.222656 3.984375 5.433594 3.863281 5.574219 C 3.742188 5.714844 3.566406 5.929688 3.46875 6.054688 C 3.367188 6.175781 3.222656 6.367188 3.140625 6.476562 C 3.0625 6.589844 2.945312 6.75 2.882812 6.835938 C 2.820312 6.925781 2.703125 7.097656 2.621094 7.222656 C 2.542969 7.347656 2.429688 7.519531 2.375 7.609375 C 2.320312 7.695312 2.253906 7.804688 2.226562 7.855469 C 2.199219 7.902344 2.105469 8.0625 2.023438 8.210938 C 1.9375 8.363281 1.78125 8.660156 1.675781 8.875 C 1.566406 9.09375 1.429688 9.386719 1.367188 9.527344 C 1.300781 9.671875 1.203125 9.910156 1.140625 10.058594 C 1.082031 10.210938 0.996094 10.4375 0.949219 10.566406 C 0.902344 10.691406 0.816406 10.949219 0.757812 11.136719 C 0.699219 11.324219 0.621094 11.582031 0.585938 11.714844 C 0.546875 11.847656 0.488281 12.089844 0.445312 12.253906 C 0.40625 12.417969 0.34375 12.691406 0.3125 12.863281 C 0.277344 13.035156 0.234375 13.265625 0.21875 13.375 C 0.199219 13.484375 0.171875 13.652344 0.160156 13.746094 C 0.144531 13.84375 0.117188 14.054688 0.101562 14.21875 C 0.0820312 14.382812 0.0585938 14.628906 0.046875 14.765625 C 0.0351562 14.898438 0.0195312 15.148438 0.0117188 15.316406 C 0 15.511719 0 15.816406 0.00390625 16.171875 C 0.0078125 16.476562 0.0195312 16.820312 0.0273438 16.9375 C 0.0351562 17.054688 0.0546875 17.28125 0.0664062 17.441406 C 0.0820312 17.601562 0.113281 17.875 0.132812 18.046875 C 0.15625 18.21875 0.191406 18.46875 0.214844 18.605469 C 0.238281 18.738281 0.28125 18.996094 0.320312 19.175781 C 0.355469 19.355469 0.421875 19.648438 0.464844 19.828125 C 0.511719 20.007812 0.574219 20.257812 0.613281 20.386719 C 0.648438 20.511719 0.71875 20.742188 0.765625 20.890625 C 0.8125 21.039062 0.902344 21.292969 0.957031 21.453125 C 1.019531 21.617188 1.128906 21.902344 1.203125 22.085938 C 1.28125 22.273438 1.386719 22.519531 1.441406 22.632812 C 1.492188 22.742188 1.609375 22.992188 1.703125 23.175781 C 1.796875 23.363281 1.9375 23.632812 2.019531 23.773438 C 2.097656 23.917969 2.230469 24.152344 2.320312 24.292969 C 2.40625 24.433594 2.546875 24.65625 2.628906 24.785156 C 2.710938 24.910156 2.851562 25.117188 2.941406 25.242188 C 3.027344 25.367188 3.160156 25.542969 3.226562 25.636719 C 3.296875 25.726562 3.425781 25.886719 3.507812 25.992188 C 3.59375 26.097656 3.730469 26.265625 3.8125 26.363281 C 3.898438 26.464844 4.046875 26.636719 4.144531 26.742188 C 4.242188 26.855469 4.484375 27.101562 4.675781 27.296875 C 4.871094 27.488281 5.140625 27.75 5.28125 27.875 C 5.417969 28 5.625 28.175781 5.738281 28.273438 C 5.855469 28.367188 6.027344 28.507812 6.125 28.585938 C 6.226562 28.664062 6.414062 28.804688 6.546875 28.902344 C 6.675781 29 6.949219 29.1875 7.148438 29.320312 C 7.351562 29.457031 7.621094 29.628906 7.746094 29.703125 C 7.875 29.78125 8.105469 29.914062 8.257812 30 C 8.414062 30.085938 8.683594 30.226562 8.863281 30.316406 C 9.042969 30.40625 9.308594 30.53125 9.453125 30.597656 C 9.601562 30.660156 9.824219 30.753906 9.945312 30.804688 C 10.070312 30.859375 10.246094 30.925781 10.332031 30.960938 C 10.417969 30.992188 10.617188 31.0625 10.769531 31.117188 C 10.925781 31.167969 11.148438 31.242188 11.269531 31.28125 C 11.390625 31.316406 11.574219 31.371094 11.675781 31.398438 C 11.777344 31.429688 11.992188 31.488281 12.152344 31.527344 C 12.3125 31.566406 12.542969 31.621094 12.664062 31.644531 C 12.785156 31.671875 13 31.714844 13.140625 31.738281 C 13.285156 31.765625 13.527344 31.804688 13.679688 31.828125 C 13.835938 31.847656 14.066406 31.878906 14.199219 31.894531 C 14.332031 31.90625 14.546875 31.929688 14.679688 31.9375 C 14.808594 31.949219 15.039062 31.964844 15.1875 31.976562 C 15.339844 31.984375 15.699219 31.992188 15.988281 31.992188 C 16.273438 31.992188 16.648438 31.984375 16.816406 31.976562 C 16.984375 31.964844 17.246094 31.945312 17.394531 31.933594 C 17.546875 31.917969 17.746094 31.898438 17.839844 31.886719 C 17.9375 31.875 18.121094 31.851562 18.253906 31.832031 C 18.382812 31.8125 18.582031 31.785156 18.691406 31.765625 C 18.800781 31.75 19.027344 31.707031 19.1875 31.671875 C 19.355469 31.640625 19.664062 31.570312 19.875 31.515625 C 20.085938 31.460938 20.394531 31.378906 20.558594 31.328125 C 20.722656 31.28125 20.945312 31.210938 21.054688 31.175781 C 21.167969 31.136719 21.367188 31.066406 21.503906 31.015625 C 21.636719 30.96875 21.859375 30.882812 21.992188 30.828125 C 22.128906 30.773438 22.359375 30.675781 22.503906 30.609375 C 22.652344 30.546875 22.9375 30.410156 23.136719 30.3125 C 23.335938 30.210938 23.605469 30.070312 23.734375 30 C 23.863281 29.929688 24.085938 29.796875 24.230469 29.710938 C 24.378906 29.621094 24.589844 29.492188 24.703125 29.417969 C 24.816406 29.34375 25 29.222656 25.109375 29.144531 C 25.21875 29.070312 25.414062 28.929688 25.539062 28.832031 C 25.667969 28.738281 25.859375 28.59375 25.960938 28.511719 C 26.0625 28.433594 26.207031 28.316406 26.277344 28.253906 C 26.351562 28.191406 26.503906 28.0625 26.609375 27.964844 C 26.722656 27.871094 26.921875 27.683594 27.054688 27.550781 C 27.191406 27.421875 27.410156 27.203125 27.539062 27.070312 C 27.671875 26.933594 27.84375 26.75 27.925781 26.65625 C 28.007812 26.566406 28.140625 26.414062 28.222656 26.320312 C 28.300781 26.222656 28.433594 26.0625 28.511719 25.960938 C 28.59375 25.859375 28.738281 25.667969 28.832031 25.539062 C 28.929688 25.414062 29.070312 25.21875 29.144531 25.109375 C 29.222656 25 29.34375 24.816406 29.417969 24.703125 C 29.492188 24.589844 29.621094 24.378906 29.710938 24.230469 C 29.796875 24.085938 29.929688 23.863281 30 23.734375 C 30.070312 23.605469 30.210938 23.335938 30.3125 23.136719 C 30.410156 22.9375 30.546875 22.652344 30.609375 22.503906 C 30.675781 22.359375 30.773438 22.128906 30.828125 21.992188 C 30.882812 21.859375 30.96875 21.636719 31.015625 21.503906 C 31.066406 21.367188 31.136719 21.167969 31.175781 21.054688 C 31.210938 20.945312 31.28125 20.722656 31.328125 20.558594 C 31.378906 20.394531 31.460938 20.085938 31.515625 19.875 C 31.570312 19.664062 31.640625 19.355469 31.671875 19.1875 C 31.707031 19.027344 31.75 18.800781 31.765625 18.691406 C 31.785156 18.582031 31.8125 18.382812 31.832031 18.253906 C 31.851562 18.121094 31.875 17.9375 31.886719 17.839844 C 31.898438 17.746094 31.917969 17.546875 31.933594 17.394531 C 31.945312 17.246094 31.964844 16.984375 31.976562 16.816406 C 31.984375 16.648438 31.992188 16.273438 31.992188 15.988281 C 31.992188 15.699219 31.984375 15.339844 31.976562 15.1875 C 31.964844 15.039062 31.949219 14.808594 31.9375 14.679688 C 31.929688 14.546875 31.90625 14.332031 31.894531 14.199219 C 31.878906 14.066406 31.847656 13.835938 31.828125 13.679688 C 31.804688 13.527344 31.765625 13.285156 31.738281 13.140625 C 31.714844 13 31.671875 12.785156 31.644531 12.664062 C 31.621094 12.542969 31.566406 12.3125 31.527344 12.152344 C 31.488281 11.992188 31.429688 11.777344 31.398438 11.675781 C 31.371094 11.574219 31.316406 11.390625 31.28125 11.269531 C 31.242188 11.148438 31.167969 10.925781 31.117188 10.769531 C 31.0625 10.617188 30.992188 10.417969 30.960938 10.332031 C 30.925781 10.246094 30.859375 10.070312 30.804688 9.945312 C 30.753906 9.824219 30.660156 9.601562 30.597656 9.453125 C 30.53125 9.308594 30.40625 9.042969 30.316406 8.863281 C 30.226562 8.683594 30.085938 8.414062 30 8.257812 C 29.914062 8.105469 29.78125 7.875 29.703125 7.746094 C 29.628906 7.621094 29.457031 7.351562 29.320312 7.148438 C 29.1875 6.949219 29 6.675781 28.902344 6.546875 C 28.804688 6.414062 28.664062 6.226562 28.585938 6.125 C 28.507812 6.027344 28.367188 5.855469 28.273438 5.738281 C 28.175781 5.625 28 5.417969 27.875 5.28125 C 27.75 5.140625 27.488281 4.871094 27.296875 4.675781 C 27.101562 4.484375 26.855469 4.242188 26.742188 4.144531 C 26.636719 4.046875 26.464844 3.898438 26.363281 3.8125 C 26.265625 3.730469 26.097656 3.59375 25.992188 3.507812 C 25.886719 3.425781 25.726562 3.296875 25.636719 3.226562 C 25.542969 3.160156 25.367188 3.027344 25.242188 2.941406 C 25.117188 2.851562 24.910156 2.710938 24.785156 2.628906 C 24.65625 2.546875 24.433594 2.40625 24.292969 2.320312 C 24.152344 2.230469 23.917969 2.097656 23.773438 2.019531 C 23.632812 1.9375 23.363281 1.796875 23.175781 1.703125 C 22.992188 1.609375 22.742188 1.492188 22.632812 1.441406 C 22.519531 1.386719 22.273438 1.28125 22.085938 1.203125 C 21.902344 1.128906 21.617188 1.019531 21.453125 0.957031 C 21.292969 0.902344 21.039062 0.8125 20.890625 0.765625 C 20.742188 0.71875 20.511719 0.648438 20.386719 0.613281 C 20.257812 0.574219 20.007812 0.511719 19.828125 0.464844 C 19.648438 0.421875 19.355469 0.355469 19.175781 0.320312 C 18.996094 0.28125 18.738281 0.238281 18.605469 0.214844 C 18.46875 0.191406 18.21875 0.15625 18.046875 0.132812 C 17.875 0.113281 17.601562 0.0820312 17.441406 0.0664062 C 17.28125 0.0546875 17.054688 0.0351562 16.9375 0.0273438 C 16.820312 0.0195312 16.433594 0.0078125 16.078125 0.0078125 C 15.726562 0.00390625 15.355469 0.0078125 15.257812 0.0117188 Z M 15.257812 0.0117188 "/>
<path style=" stroke:none;fill-rule:nonzero;fill:rgb(0%,18.823529%,52.941176%);fill-opacity:1;" d="M 15.449219 0.945312 C 15.316406 0.949219 15.101562 0.960938 14.96875 0.96875 C 14.839844 0.976562 14.585938 1 14.410156 1.019531 C 14.238281 1.035156 13.972656 1.070312 13.828125 1.089844 C 13.679688 1.113281 13.445312 1.152344 13.300781 1.175781 C 13.160156 1.203125 12.933594 1.246094 12.796875 1.277344 C 12.664062 1.304688 12.433594 1.359375 12.285156 1.398438 C 12.140625 1.433594 11.882812 1.503906 11.714844 1.554688 C 11.546875 1.605469 11.285156 1.6875 11.136719 1.738281 C 10.984375 1.789062 10.769531 1.867188 10.652344 1.910156 C 10.535156 1.957031 10.324219 2.039062 10.1875 2.097656 C 10.046875 2.15625 9.820312 2.253906 9.679688 2.320312 C 9.542969 2.382812 9.324219 2.488281 9.195312 2.550781 C 9.070312 2.617188 8.835938 2.738281 8.679688 2.828125 C 8.519531 2.914062 8.296875 3.042969 8.179688 3.117188 C 8.0625 3.1875 7.867188 3.3125 7.742188 3.394531 C 7.617188 3.472656 7.414062 3.609375 7.289062 3.699219 C 7.164062 3.789062 6.960938 3.9375 6.835938 4.03125 C 6.714844 4.125 6.503906 4.292969 6.371094 4.40625 C 6.238281 4.511719 6.027344 4.695312 5.902344 4.808594 C 5.773438 4.921875 5.523438 5.160156 5.347656 5.335938 C 5.171875 5.511719 4.925781 5.769531 4.796875 5.914062 C 4.667969 6.054688 4.480469 6.273438 4.378906 6.398438 C 4.273438 6.523438 4.113281 6.726562 4.019531 6.851562 C 3.921875 6.972656 3.777344 7.171875 3.695312 7.289062 C 3.609375 7.40625 3.46875 7.613281 3.382812 7.746094 C 3.292969 7.882812 3.15625 8.105469 3.074219 8.238281 C 2.992188 8.375 2.867188 8.589844 2.796875 8.714844 C 2.726562 8.839844 2.609375 9.066406 2.53125 9.21875 C 2.457031 9.371094 2.34375 9.601562 2.285156 9.734375 C 2.226562 9.867188 2.128906 10.085938 2.074219 10.226562 C 2.015625 10.363281 1.929688 10.578125 1.886719 10.699219 C 1.839844 10.816406 1.761719 11.042969 1.707031 11.203125 C 1.652344 11.359375 1.574219 11.597656 1.535156 11.734375 C 1.496094 11.867188 1.429688 12.113281 1.390625 12.273438 C 1.351562 12.433594 1.292969 12.675781 1.261719 12.8125 C 1.230469 12.945312 1.1875 13.167969 1.160156 13.308594 C 1.136719 13.449219 1.097656 13.6875 1.078125 13.839844 C 1.054688 13.992188 1.023438 14.234375 1.007812 14.371094 C 0.996094 14.511719 0.972656 14.777344 0.957031 14.964844 C 0.941406 15.152344 0.929688 15.507812 0.921875 15.761719 C 0.917969 16.046875 0.921875 16.347656 0.929688 16.558594 C 0.9375 16.742188 0.953125 17.011719 0.964844 17.148438 C 0.976562 17.289062 0.996094 17.515625 1.011719 17.65625 C 1.027344 17.792969 1.054688 18.03125 1.078125 18.1875 C 1.101562 18.339844 1.140625 18.589844 1.171875 18.742188 C 1.199219 18.898438 1.253906 19.160156 1.292969 19.320312 C 1.328125 19.488281 1.394531 19.753906 1.4375 19.914062 C 1.480469 20.074219 1.550781 20.324219 1.597656 20.464844 C 1.640625 20.609375 1.71875 20.839844 1.769531 20.984375 C 1.816406 21.125 1.902344 21.355469 1.957031 21.496094 C 2.011719 21.632812 2.113281 21.878906 2.183594 22.039062 C 2.253906 22.199219 2.363281 22.441406 2.425781 22.570312 C 2.492188 22.703125 2.605469 22.929688 2.679688 23.070312 C 2.757812 23.210938 2.878906 23.433594 2.953125 23.5625 C 3.027344 23.691406 3.148438 23.890625 3.21875 24.007812 C 3.292969 24.125 3.425781 24.328125 3.519531 24.464844 C 3.609375 24.601562 3.765625 24.816406 3.859375 24.945312 C 3.953125 25.070312 4.113281 25.28125 4.21875 25.40625 C 4.320312 25.535156 4.476562 25.726562 4.570312 25.832031 C 4.660156 25.9375 4.832031 26.132812 4.949219 26.257812 C 5.070312 26.386719 5.308594 26.632812 5.484375 26.804688 C 5.65625 26.972656 5.910156 27.207031 6.039062 27.320312 C 6.171875 27.433594 6.375 27.605469 6.492188 27.703125 C 6.609375 27.796875 6.808594 27.953125 6.9375 28.050781 C 7.0625 28.144531 7.269531 28.289062 7.390625 28.375 C 7.507812 28.460938 7.714844 28.597656 7.847656 28.679688 C 7.980469 28.765625 8.1875 28.890625 8.304688 28.964844 C 8.425781 29.035156 8.652344 29.164062 8.8125 29.25 C 8.96875 29.335938 9.1875 29.449219 9.296875 29.503906 C 9.40625 29.558594 9.609375 29.65625 9.753906 29.722656 C 9.894531 29.785156 10.121094 29.882812 10.253906 29.9375 C 10.382812 29.992188 10.625 30.085938 10.789062 30.144531 C 10.957031 30.207031 11.199219 30.292969 11.335938 30.335938 C 11.46875 30.378906 11.6875 30.445312 11.8125 30.484375 C 11.941406 30.519531 12.179688 30.585938 12.34375 30.625 C 12.511719 30.664062 12.773438 30.726562 12.929688 30.757812 C 13.089844 30.789062 13.339844 30.835938 13.496094 30.863281 C 13.648438 30.886719 13.890625 30.925781 14.035156 30.941406 C 14.175781 30.960938 14.417969 30.988281 14.570312 31.003906 C 14.726562 31.019531 15 31.039062 15.179688 31.050781 C 15.359375 31.0625 15.710938 31.070312 15.957031 31.070312 C 16.203125 31.070312 16.570312 31.0625 16.769531 31.050781 C 16.972656 31.039062 17.234375 31.019531 17.355469 31.007812 C 17.476562 31 17.652344 30.980469 17.746094 30.96875 C 17.84375 30.957031 18.007812 30.9375 18.113281 30.921875 C 18.21875 30.90625 18.441406 30.871094 18.605469 30.839844 C 18.769531 30.8125 19 30.769531 19.125 30.742188 C 19.242188 30.71875 19.488281 30.660156 19.660156 30.617188 C 19.835938 30.574219 20.082031 30.507812 20.207031 30.46875 C 20.328125 30.433594 20.550781 30.363281 20.699219 30.316406 C 20.84375 30.269531 21.066406 30.191406 21.1875 30.144531 C 21.3125 30.097656 21.503906 30.027344 21.613281 29.980469 C 21.726562 29.9375 21.882812 29.875 21.964844 29.835938 C 22.050781 29.800781 22.210938 29.726562 22.324219 29.671875 C 22.4375 29.621094 22.621094 29.53125 22.730469 29.476562 C 22.839844 29.425781 23.015625 29.332031 23.117188 29.277344 C 23.21875 29.222656 23.402344 29.121094 23.523438 29.054688 C 23.640625 28.980469 23.84375 28.859375 23.972656 28.78125 C 24.101562 28.699219 24.308594 28.5625 24.4375 28.476562 C 24.566406 28.394531 24.839844 28.195312 25.042969 28.042969 C 25.246094 27.890625 25.507812 27.6875 25.621094 27.59375 C 25.734375 27.496094 25.914062 27.34375 26.019531 27.246094 C 26.125 27.15625 26.40625 26.882812 26.644531 26.644531 C 26.882812 26.40625 27.160156 26.121094 27.257812 26.007812 C 27.355469 25.894531 27.503906 25.722656 27.582031 25.628906 C 27.664062 25.53125 27.796875 25.363281 27.882812 25.253906 C 27.964844 25.144531 28.097656 24.972656 28.171875 24.871094 C 28.246094 24.769531 28.378906 24.578125 28.464844 24.453125 C 28.550781 24.324219 28.6875 24.113281 28.765625 23.988281 C 28.847656 23.859375 28.957031 23.675781 29.011719 23.582031 C 29.066406 23.488281 29.171875 23.300781 29.242188 23.167969 C 29.3125 23.039062 29.433594 22.808594 29.507812 22.65625 C 29.582031 22.507812 29.683594 22.292969 29.734375 22.179688 C 29.78125 22.066406 29.859375 21.882812 29.90625 21.773438 C 29.953125 21.664062 30.035156 21.453125 30.09375 21.300781 C 30.148438 21.152344 30.238281 20.90625 30.285156 20.757812 C 30.335938 20.609375 30.414062 20.351562 30.460938 20.1875 C 30.511719 20.019531 30.582031 19.753906 30.621094 19.589844 C 30.664062 19.425781 30.730469 19.125 30.769531 18.921875 C 30.808594 18.722656 30.863281 18.414062 30.890625 18.238281 C 30.914062 18.0625 30.945312 17.808594 30.960938 17.675781 C 30.976562 17.539062 31 17.320312 31.007812 17.1875 C 31.019531 17.058594 31.035156 16.796875 31.042969 16.609375 C 31.054688 16.40625 31.054688 16.089844 31.050781 15.808594 C 31.046875 15.550781 31.035156 15.234375 31.03125 15.101562 C 31.023438 14.972656 31.003906 14.738281 30.988281 14.585938 C 30.972656 14.433594 30.945312 14.1875 30.929688 14.046875 C 30.910156 13.902344 30.875 13.664062 30.847656 13.515625 C 30.824219 13.363281 30.773438 13.101562 30.738281 12.929688 C 30.703125 12.757812 30.644531 12.496094 30.605469 12.34375 C 30.566406 12.195312 30.503906 11.960938 30.464844 11.820312 C 30.421875 11.679688 30.351562 11.453125 30.304688 11.308594 C 30.257812 11.167969 30.183594 10.945312 30.136719 10.816406 C 30.089844 10.691406 30 10.464844 29.941406 10.320312 C 29.886719 10.171875 29.78125 9.9375 29.71875 9.792969 C 29.652344 9.652344 29.535156 9.40625 29.457031 9.25 C 29.375 9.09375 29.257812 8.863281 29.191406 8.742188 C 29.125 8.625 29.007812 8.414062 28.925781 8.277344 C 28.847656 8.144531 28.667969 7.867188 28.53125 7.660156 C 28.398438 7.457031 28.199219 7.171875 28.09375 7.03125 C 27.984375 6.886719 27.824219 6.675781 27.726562 6.558594 C 27.632812 6.441406 27.476562 6.257812 27.382812 6.144531 C 27.289062 6.035156 27.148438 5.878906 27.070312 5.792969 C 26.992188 5.710938 26.84375 5.550781 26.738281 5.441406 C 26.632812 5.335938 26.421875 5.132812 26.273438 4.992188 C 26.125 4.851562 25.914062 4.664062 25.808594 4.570312 C 25.699219 4.480469 25.515625 4.328125 25.394531 4.230469 C 25.273438 4.136719 25.070312 3.980469 24.945312 3.886719 C 24.816406 3.789062 24.605469 3.640625 24.476562 3.554688 C 24.351562 3.46875 24.15625 3.339844 24.046875 3.269531 C 23.9375 3.203125 23.726562 3.078125 23.582031 2.992188 C 23.433594 2.902344 23.21875 2.78125 23.097656 2.71875 C 22.976562 2.652344 22.746094 2.535156 22.585938 2.457031 C 22.425781 2.378906 22.175781 2.265625 22.035156 2.203125 C 21.890625 2.140625 21.65625 2.042969 21.515625 1.988281 C 21.371094 1.929688 21.125 1.839844 20.964844 1.78125 C 20.804688 1.726562 20.550781 1.640625 20.40625 1.597656 C 20.257812 1.550781 20.019531 1.484375 19.867188 1.441406 C 19.71875 1.40625 19.460938 1.34375 19.300781 1.304688 C 19.140625 1.269531 18.894531 1.214844 18.757812 1.191406 C 18.621094 1.164062 18.386719 1.125 18.238281 1.105469 C 18.09375 1.082031 17.839844 1.046875 17.679688 1.03125 C 17.519531 1.011719 17.273438 0.988281 17.128906 0.976562 C 16.988281 0.964844 16.714844 0.949219 16.523438 0.945312 C 16.335938 0.9375 16.070312 0.929688 15.933594 0.933594 C 15.796875 0.933594 15.582031 0.9375 15.449219 0.945312 Z M 15.449219 0.945312 "/>
<path style=" stroke:none;fill-rule:nonzero;fill:rgb(100%,100%,100%);fill-opacity:1;" d="M 17.367188 2.421875 C 17.367188 2.425781 17.382812 2.441406 17.398438 2.449219 C 17.414062 2.460938 17.503906 2.5 17.601562 2.539062 C 17.695312 2.582031 17.882812 2.65625 18.011719 2.707031 C 18.144531 2.761719 18.347656 2.839844 18.464844 2.882812 C 18.582031 2.925781 18.828125 3.015625 19.007812 3.082031 C 19.191406 3.152344 19.578125 3.289062 19.867188 3.390625 C 20.15625 3.492188 20.738281 3.691406 21.164062 3.835938 C 21.585938 3.976562 22.128906 4.152344 22.363281 4.226562 C 22.601562 4.300781 22.917969 4.390625 23.0625 4.433594 C 23.210938 4.472656 23.398438 4.523438 23.488281 4.539062 C 23.574219 4.558594 23.695312 4.574219 23.757812 4.574219 C 23.816406 4.578125 23.871094 4.574219 23.875 4.566406 C 23.882812 4.5625 23.875 4.539062 23.859375 4.523438 C 23.84375 4.5 23.765625 4.453125 23.671875 4.40625 C 23.585938 4.363281 23.390625 4.277344 23.242188 4.21875 C 23.09375 4.15625 22.824219 4.054688 22.644531 3.992188 C 22.464844 3.929688 22.089844 3.800781 21.808594 3.707031 C 21.527344 3.613281 21.046875 3.460938 20.742188 3.363281 C 20.441406 3.269531 19.980469 3.128906 19.722656 3.050781 C 19.460938 2.972656 19.074219 2.859375 18.863281 2.796875 C 18.652344 2.734375 18.335938 2.648438 18.160156 2.601562 C 17.984375 2.550781 17.761719 2.496094 17.667969 2.46875 C 17.574219 2.449219 17.464844 2.425781 17.429688 2.417969 C 17.394531 2.414062 17.363281 2.414062 17.367188 2.421875 Z M 13.289062 2.570312 C 13.199219 2.582031 13.0625 2.601562 12.992188 2.609375 C 12.917969 2.621094 12.761719 2.652344 12.644531 2.679688 C 12.527344 2.707031 12.347656 2.753906 12.246094 2.789062 C 12.144531 2.820312 11.984375 2.875 11.894531 2.910156 C 11.800781 2.945312 11.621094 3.027344 11.496094 3.09375 C 11.367188 3.160156 11.171875 3.265625 11.058594 3.335938 C 10.945312 3.40625 10.765625 3.527344 10.660156 3.609375 C 10.550781 3.6875 10.382812 3.824219 10.285156 3.910156 C 10.1875 3.992188 10 4.171875 9.867188 4.308594 C 9.734375 4.441406 9.574219 4.609375 9.511719 4.683594 C 9.453125 4.757812 9.34375 4.886719 9.28125 4.96875 C 9.214844 5.054688 9.105469 5.199219 9.042969 5.289062 C 8.976562 5.378906 8.894531 5.496094 8.855469 5.546875 C 8.820312 5.601562 8.769531 5.660156 8.742188 5.683594 C 8.71875 5.707031 8.667969 5.742188 8.632812 5.761719 C 8.59375 5.777344 8.429688 5.824219 8.253906 5.859375 C 8.078125 5.894531 7.828125 5.957031 7.695312 5.992188 C 7.558594 6.027344 7.367188 6.085938 7.269531 6.121094 C 7.171875 6.152344 7.007812 6.222656 6.902344 6.265625 C 6.800781 6.3125 6.65625 6.390625 6.578125 6.433594 C 6.5 6.476562 6.382812 6.550781 6.320312 6.601562 C 6.253906 6.652344 6.140625 6.746094 6.070312 6.816406 C 6.003906 6.886719 5.90625 6.996094 5.859375 7.0625 C 5.8125 7.128906 5.742188 7.246094 5.699219 7.328125 C 5.660156 7.410156 5.605469 7.542969 5.578125 7.628906 C 5.550781 7.710938 5.515625 7.839844 5.503906 7.914062 C 5.488281 7.988281 5.46875 8.117188 5.460938 8.207031 C 5.453125 8.308594 5.449219 8.464844 5.453125 8.644531 C 5.457031 8.800781 5.472656 9.015625 5.488281 9.132812 C 5.503906 9.246094 5.53125 9.414062 5.546875 9.496094 C 5.566406 9.585938 5.597656 9.707031 5.613281 9.769531 C 5.632812 9.828125 5.667969 9.921875 5.691406 9.972656 C 5.71875 10.023438 5.765625 10.101562 5.796875 10.144531 C 5.832031 10.191406 5.894531 10.261719 5.941406 10.304688 C 5.988281 10.347656 6.070312 10.414062 6.125 10.457031 C 6.179688 10.5 6.304688 10.585938 6.398438 10.648438 C 6.496094 10.714844 6.597656 10.789062 6.628906 10.816406 C 6.679688 10.855469 6.707031 10.898438 6.789062 11.078125 C 6.847656 11.195312 6.933594 11.351562 6.984375 11.429688 C 7.039062 11.507812 7.140625 11.632812 7.222656 11.71875 C 7.304688 11.800781 7.410156 11.902344 7.460938 11.9375 C 7.511719 11.976562 7.617188 12.046875 7.695312 12.09375 C 7.769531 12.140625 7.871094 12.214844 7.917969 12.257812 C 7.964844 12.300781 8.058594 12.40625 8.125 12.492188 C 8.1875 12.574219 8.265625 12.671875 8.296875 12.703125 C 8.328125 12.734375 8.378906 12.777344 8.40625 12.796875 C 8.441406 12.820312 8.503906 12.847656 8.546875 12.859375 C 8.601562 12.871094 8.652344 12.875 8.691406 12.871094 C 8.722656 12.867188 8.785156 12.847656 8.824219 12.828125 C 8.882812 12.800781 8.941406 12.75 9.148438 12.539062 C 9.390625 12.296875 9.40625 12.277344 9.515625 12.230469 C 9.578125 12.199219 9.671875 12.164062 9.730469 12.152344 C 9.789062 12.140625 9.867188 12.132812 9.910156 12.132812 C 9.953125 12.132812 10 12.136719 10.015625 12.140625 C 10.042969 12.144531 10.042969 12.152344 9.972656 12.230469 C 9.929688 12.273438 9.863281 12.351562 9.828125 12.398438 C 9.789062 12.445312 9.726562 12.53125 9.691406 12.59375 C 9.65625 12.648438 9.621094 12.726562 9.609375 12.765625 C 9.59375 12.8125 9.59375 12.839844 9.605469 12.859375 C 9.617188 12.882812 9.632812 12.890625 9.667969 12.890625 C 9.691406 12.890625 9.78125 12.875 9.863281 12.855469 C 9.957031 12.832031 10.054688 12.820312 10.125 12.820312 C 10.1875 12.816406 10.328125 12.832031 10.433594 12.847656 C 10.539062 12.867188 10.6875 12.878906 10.765625 12.878906 C 10.839844 12.882812 10.9375 12.875 10.984375 12.867188 C 11.027344 12.855469 11.101562 12.835938 11.148438 12.820312 C 11.195312 12.804688 11.285156 12.769531 11.347656 12.738281 C 11.410156 12.707031 11.503906 12.648438 11.558594 12.613281 C 11.609375 12.574219 11.699219 12.503906 11.75 12.453125 C 11.828125 12.378906 11.839844 12.363281 11.820312 12.355469 C 11.804688 12.351562 11.753906 12.34375 11.707031 12.332031 C 11.65625 12.324219 11.566406 12.292969 11.496094 12.257812 C 11.390625 12.203125 11.347656 12.175781 11.261719 12.085938 C 11.175781 12.003906 11.140625 11.957031 11.097656 11.867188 C 11.070312 11.804688 11.035156 11.71875 11.023438 11.675781 C 11.011719 11.628906 11 11.546875 11 11.488281 C 11 11.429688 11.007812 11.351562 11.015625 11.316406 C 11.027344 11.277344 11.046875 11.214844 11.066406 11.175781 C 11.085938 11.136719 11.140625 11.066406 11.183594 11.023438 C 11.242188 10.960938 11.28125 10.933594 11.34375 10.910156 C 11.386719 10.894531 11.457031 10.878906 11.503906 10.875 C 11.546875 10.871094 11.613281 10.875 11.65625 10.882812 C 11.695312 10.890625 11.761719 10.914062 11.808594 10.9375 C 11.851562 10.957031 11.921875 11.003906 11.964844 11.039062 C 12.003906 11.074219 12.066406 11.140625 12.101562 11.183594 C 12.132812 11.226562 12.1875 11.316406 12.222656 11.382812 C 12.253906 11.449219 12.292969 11.5625 12.3125 11.636719 C 12.34375 11.75 12.347656 11.796875 12.351562 11.972656 C 12.351562 12.128906 12.34375 12.207031 12.328125 12.292969 C 12.3125 12.355469 12.289062 12.453125 12.269531 12.511719 C 12.25 12.570312 12.210938 12.675781 12.175781 12.742188 C 12.144531 12.8125 12.085938 12.917969 12.046875 12.976562 C 12.007812 13.035156 11.929688 13.136719 11.871094 13.203125 L 11.761719 13.320312 C 11.804688 13.410156 11.839844 13.460938 11.871094 13.492188 C 11.902344 13.523438 11.960938 13.566406 12 13.589844 C 12.039062 13.613281 12.121094 13.644531 12.179688 13.660156 C 12.238281 13.675781 12.359375 13.699219 12.453125 13.707031 C 12.542969 13.71875 12.664062 13.734375 12.726562 13.742188 C 12.78125 13.75 12.875 13.769531 12.929688 13.78125 C 12.984375 13.796875 13.074219 13.824219 13.128906 13.847656 C 13.183594 13.871094 13.269531 13.910156 13.316406 13.9375 C 13.363281 13.964844 13.445312 14.015625 13.503906 14.050781 C 13.558594 14.089844 13.640625 14.148438 13.6875 14.183594 L 13.773438 14.25 C 14.042969 14.203125 14.171875 14.1875 14.238281 14.179688 C 14.304688 14.171875 14.449219 14.167969 14.5625 14.167969 L 14.765625 14.167969 C 14.765625 14.109375 14.753906 14.039062 14.742188 13.972656 C 14.734375 13.90625 14.703125 13.792969 14.679688 13.722656 C 14.65625 13.648438 14.613281 13.542969 14.585938 13.488281 C 14.558594 13.433594 14.503906 13.339844 14.464844 13.28125 C 14.425781 13.222656 14.355469 13.128906 14.308594 13.074219 C 14.257812 13.015625 14.203125 12.960938 14.1875 12.949219 C 14.15625 12.933594 14.144531 12.933594 14.078125 12.957031 C 14.039062 12.972656 13.960938 13.007812 13.902344 13.035156 C 13.847656 13.0625 13.78125 13.101562 13.761719 13.113281 C 13.738281 13.132812 13.710938 13.140625 13.699219 13.140625 C 13.683594 13.140625 13.632812 13.113281 13.582031 13.078125 C 13.53125 13.042969 13.464844 12.988281 13.433594 12.949219 C 13.402344 12.914062 13.363281 12.847656 13.339844 12.804688 C 13.320312 12.761719 13.296875 12.683594 13.289062 12.636719 C 13.273438 12.566406 13.273438 12.535156 13.289062 12.464844 C 13.300781 12.417969 13.324219 12.34375 13.34375 12.300781 C 13.367188 12.253906 13.402344 12.191406 13.425781 12.160156 C 13.449219 12.125 13.503906 12.058594 13.554688 12.007812 C 13.601562 11.957031 13.671875 11.894531 13.707031 11.867188 C 13.742188 11.839844 13.804688 11.804688 13.835938 11.78125 L 13.902344 11.746094 C 13.855469 11.679688 13.804688 11.628906 13.761719 11.585938 C 13.71875 11.539062 13.628906 11.464844 13.5625 11.414062 C 13.496094 11.367188 13.398438 11.300781 13.347656 11.265625 C 13.296875 11.234375 13.210938 11.183594 13.152344 11.152344 C 13.097656 11.121094 13.050781 11.09375 13.054688 11.089844 C 13.054688 11.085938 13.117188 11.089844 13.1875 11.097656 C 13.261719 11.101562 13.398438 11.125 13.496094 11.140625 C 13.589844 11.160156 13.730469 11.195312 13.808594 11.21875 C 13.886719 11.238281 14.019531 11.289062 14.105469 11.324219 C 14.195312 11.359375 14.328125 11.425781 14.40625 11.46875 C 14.480469 11.511719 14.59375 11.585938 14.652344 11.628906 C 14.710938 11.671875 14.8125 11.761719 14.882812 11.832031 C 14.949219 11.898438 15.042969 12.003906 15.085938 12.066406 C 15.128906 12.128906 15.195312 12.238281 15.230469 12.3125 C 15.265625 12.386719 15.304688 12.488281 15.324219 12.546875 C 15.339844 12.601562 15.359375 12.691406 15.371094 12.75 C 15.378906 12.808594 15.390625 12.941406 15.390625 13.042969 C 15.390625 13.144531 15.382812 13.289062 15.375 13.363281 C 15.367188 13.433594 15.347656 13.5625 15.335938 13.648438 C 15.320312 13.730469 15.289062 13.871094 15.265625 13.960938 L 15.226562 14.121094 C 15.273438 14.210938 15.320312 14.265625 15.363281 14.304688 C 15.402344 14.34375 15.46875 14.390625 15.515625 14.414062 C 15.585938 14.445312 15.613281 14.449219 15.761719 14.453125 C 15.898438 14.460938 15.960938 14.453125 16.121094 14.425781 C 16.226562 14.40625 16.359375 14.382812 16.417969 14.371094 C 16.476562 14.359375 16.636719 14.347656 16.777344 14.34375 C 16.976562 14.335938 17.0625 14.339844 17.183594 14.359375 C 17.265625 14.371094 17.414062 14.402344 17.507812 14.425781 L 17.679688 14.46875 C 17.847656 14.390625 17.960938 14.34375 18.039062 14.3125 C 18.121094 14.285156 18.261719 14.246094 18.351562 14.226562 C 18.441406 14.207031 18.535156 14.191406 18.558594 14.191406 C 18.59375 14.1875 18.597656 14.179688 18.59375 14.152344 C 18.59375 14.132812 18.578125 14.078125 18.5625 14.035156 C 18.546875 13.984375 18.507812 13.894531 18.472656 13.828125 C 18.441406 13.761719 18.371094 13.65625 18.324219 13.59375 C 18.273438 13.53125 18.195312 13.441406 18.144531 13.394531 C 18.09375 13.34375 18 13.269531 17.941406 13.222656 C 17.878906 13.175781 17.808594 13.132812 17.789062 13.121094 C 17.75 13.101562 17.742188 13.105469 17.660156 13.136719 C 17.613281 13.15625 17.535156 13.195312 17.488281 13.230469 C 17.441406 13.261719 17.371094 13.320312 17.328125 13.363281 C 17.277344 13.421875 17.238281 13.453125 17.191406 13.464844 C 17.160156 13.476562 17.078125 13.496094 17.011719 13.507812 C 16.949219 13.519531 16.851562 13.527344 16.796875 13.527344 C 16.742188 13.527344 16.660156 13.523438 16.609375 13.511719 C 16.5625 13.507812 16.515625 13.496094 16.503906 13.496094 C 16.488281 13.492188 16.476562 13.480469 16.476562 13.46875 C 16.476562 13.457031 16.496094 13.402344 16.519531 13.34375 C 16.542969 13.289062 16.582031 13.207031 16.609375 13.164062 C 16.632812 13.117188 16.679688 13.050781 16.714844 13.007812 C 16.746094 12.96875 16.816406 12.894531 16.875 12.847656 C 16.929688 12.796875 17.027344 12.726562 17.085938 12.6875 C 17.144531 12.648438 17.195312 12.613281 17.195312 12.609375 C 17.195312 12.601562 17.175781 12.59375 17.152344 12.585938 C 17.128906 12.578125 17.0625 12.542969 17.007812 12.507812 C 16.957031 12.472656 16.871094 12.398438 16.820312 12.34375 C 16.769531 12.289062 16.730469 12.238281 16.730469 12.230469 C 16.730469 12.222656 16.832031 12.222656 17.007812 12.222656 C 17.164062 12.222656 17.296875 12.222656 17.308594 12.214844 C 17.324219 12.207031 17.308594 12.175781 17.242188 12.074219 C 17.195312 12 17.105469 11.84375 17.050781 11.726562 C 16.992188 11.609375 16.925781 11.457031 16.898438 11.390625 C 16.875 11.320312 16.835938 11.207031 16.816406 11.140625 C 16.796875 11.078125 16.773438 10.964844 16.761719 10.894531 C 16.746094 10.824219 16.742188 10.761719 16.742188 10.757812 C 16.746094 10.753906 16.820312 10.730469 16.902344 10.707031 C 16.988281 10.679688 17.125 10.652344 17.207031 10.636719 C 17.289062 10.628906 17.441406 10.617188 17.546875 10.617188 C 17.648438 10.617188 17.789062 10.628906 17.855469 10.636719 C 17.921875 10.644531 18.019531 10.667969 18.078125 10.679688 C 18.136719 10.699219 18.257812 10.734375 18.34375 10.769531 C 18.433594 10.800781 18.550781 10.847656 18.605469 10.875 C 18.660156 10.898438 18.824219 10.976562 18.96875 11.046875 C 19.117188 11.117188 19.296875 11.195312 19.367188 11.21875 C 19.441406 11.246094 19.546875 11.273438 19.609375 11.28125 C 19.671875 11.292969 19.75 11.292969 19.808594 11.289062 C 19.859375 11.285156 19.941406 11.273438 19.992188 11.261719 C 20.042969 11.25 20.21875 11.203125 20.378906 11.15625 C 20.539062 11.109375 20.738281 11.054688 20.816406 11.039062 C 20.898438 11.019531 21.011719 11 21.070312 10.988281 C 21.128906 10.980469 21.253906 10.972656 21.347656 10.972656 C 21.460938 10.972656 21.558594 10.980469 21.628906 10.996094 C 21.6875 11.007812 21.789062 11.035156 21.855469 11.058594 C 21.921875 11.078125 22.039062 11.125 22.121094 11.160156 C 22.199219 11.195312 22.332031 11.261719 22.410156 11.308594 C 22.492188 11.355469 22.617188 11.433594 22.691406 11.480469 C 22.765625 11.53125 22.886719 11.621094 22.964844 11.679688 C 23.039062 11.738281 23.148438 11.828125 23.203125 11.878906 L 23.300781 11.96875 C 23.839844 11.980469 24.027344 11.992188 24.074219 12 C 24.117188 12.003906 24.183594 12.015625 24.222656 12.023438 L 24.292969 12.035156 C 24.292969 11.976562 24.273438 11.894531 24.253906 11.8125 C 24.230469 11.726562 24.191406 11.597656 24.160156 11.523438 C 24.128906 11.445312 24.078125 11.332031 24.042969 11.269531 C 24.011719 11.207031 23.953125 11.113281 23.914062 11.058594 C 23.878906 11.003906 23.800781 10.910156 23.742188 10.847656 C 23.679688 10.785156 23.625 10.734375 23.613281 10.730469 C 23.601562 10.726562 23.539062 10.738281 23.476562 10.757812 C 23.410156 10.777344 23.304688 10.816406 23.242188 10.84375 C 23.179688 10.875 23.125 10.894531 23.117188 10.886719 C 23.113281 10.882812 23.105469 10.839844 23.101562 10.789062 C 23.097656 10.726562 23.097656 10.683594 23.117188 10.628906 L 23.140625 10.554688 C 22.875 10.417969 22.710938 10.324219 22.605469 10.253906 L 22.410156 10.128906 C 22.265625 10.144531 22.089844 10.160156 21.925781 10.167969 C 21.691406 10.179688 21.554688 10.179688 21.273438 10.167969 C 21.082031 10.160156 20.910156 10.144531 20.898438 10.140625 C 20.882812 10.132812 20.875 10.128906 20.882812 10.125 C 20.890625 10.121094 20.980469 10.089844 21.082031 10.054688 C 21.1875 10.023438 21.367188 9.972656 21.488281 9.941406 C 21.609375 9.914062 21.777344 9.875 21.867188 9.855469 C 21.957031 9.835938 22.125 9.808594 22.246094 9.789062 C 22.367188 9.769531 22.542969 9.746094 22.636719 9.734375 C 22.738281 9.71875 22.964844 9.707031 23.1875 9.703125 C 23.441406 9.699219 23.613281 9.703125 23.699219 9.714844 C 23.816406 9.726562 23.847656 9.734375 23.933594 9.785156 C 23.988281 9.8125 24.085938 9.875 24.152344 9.917969 C 24.21875 9.960938 24.316406 10.03125 24.371094 10.074219 C 24.425781 10.113281 24.53125 10.203125 24.601562 10.265625 C 24.675781 10.332031 24.789062 10.445312 24.855469 10.519531 C 24.921875 10.59375 25.007812 10.699219 25.054688 10.757812 C 25.097656 10.816406 25.132812 10.863281 25.132812 10.867188 C 25.136719 10.867188 25.234375 10.875 25.355469 10.890625 C 25.476562 10.902344 25.675781 10.929688 25.800781 10.957031 C 25.925781 10.980469 26.070312 11.015625 26.128906 11.035156 C 26.207031 11.054688 26.234375 11.058594 26.238281 11.046875 C 26.242188 11.035156 26.246094 10.953125 26.246094 10.859375 C 26.246094 10.769531 26.238281 10.628906 26.226562 10.550781 C 26.214844 10.476562 26.1875 10.34375 26.167969 10.265625 C 26.144531 10.1875 26.105469 10.070312 26.078125 10.007812 C 26.054688 9.945312 26.007812 9.855469 25.980469 9.808594 C 25.953125 9.761719 25.910156 9.699219 25.890625 9.675781 L 25.855469 9.632812 C 25.617188 9.664062 25.503906 9.691406 25.449219 9.707031 C 25.394531 9.726562 25.34375 9.738281 25.34375 9.734375 C 25.339844 9.726562 25.335938 9.675781 25.335938 9.617188 C 25.335938 9.535156 25.34375 9.492188 25.367188 9.445312 L 25.394531 9.382812 C 25.289062 9.335938 25.195312 9.292969 25.125 9.257812 C 25.050781 9.222656 24.949219 9.167969 24.898438 9.132812 C 24.847656 9.101562 24.753906 9.035156 24.691406 8.984375 C 24.628906 8.9375 24.523438 8.839844 24.453125 8.773438 L 24.324219 8.648438 C 24.171875 8.675781 24.042969 8.683594 23.945312 8.683594 C 23.824219 8.679688 23.738281 8.675781 23.679688 8.660156 C 23.628906 8.648438 23.558594 8.625 23.523438 8.605469 C 23.488281 8.589844 23.441406 8.558594 23.414062 8.535156 C 23.390625 8.515625 23.359375 8.476562 23.34375 8.445312 C 23.328125 8.410156 23.320312 8.363281 23.320312 8.3125 C 23.320312 8.269531 23.335938 8.15625 23.359375 8.058594 C 23.382812 7.964844 23.410156 7.832031 23.421875 7.761719 C 23.433594 7.691406 23.445312 7.550781 23.449219 7.449219 C 23.453125 7.339844 23.453125 7.191406 23.441406 7.089844 C 23.433594 6.996094 23.414062 6.84375 23.398438 6.757812 C 23.386719 6.671875 23.351562 6.503906 23.320312 6.390625 C 23.292969 6.277344 23.269531 6.179688 23.269531 6.175781 C 23.269531 6.171875 23.292969 6.167969 23.320312 6.175781 C 23.34375 6.175781 23.441406 6.195312 23.535156 6.207031 C 23.625 6.222656 23.792969 6.257812 23.90625 6.285156 C 24.019531 6.316406 24.183594 6.363281 24.265625 6.390625 C 24.351562 6.417969 24.453125 6.453125 24.492188 6.46875 C 24.53125 6.488281 24.625 6.527344 24.699219 6.5625 C 24.769531 6.59375 24.875 6.648438 24.929688 6.679688 C 24.984375 6.714844 25.0625 6.765625 25.101562 6.796875 C 25.140625 6.824219 25.1875 6.875 25.210938 6.910156 C 25.230469 6.941406 25.25 6.984375 25.25 7.003906 C 25.25 7.019531 25.238281 7.054688 25.226562 7.078125 C 25.210938 7.097656 25.15625 7.160156 25.097656 7.210938 C 25.03125 7.269531 24.984375 7.328125 24.964844 7.367188 C 24.945312 7.40625 24.929688 7.449219 24.929688 7.464844 C 24.929688 7.480469 24.9375 7.511719 24.949219 7.53125 C 24.957031 7.550781 24.992188 7.589844 25.023438 7.617188 C 25.050781 7.644531 25.109375 7.683594 25.152344 7.707031 C 25.195312 7.726562 25.289062 7.761719 25.359375 7.785156 C 25.429688 7.808594 25.554688 7.839844 25.636719 7.855469 C 25.71875 7.867188 25.875 7.886719 25.980469 7.894531 C 26.097656 7.902344 26.238281 7.902344 26.339844 7.894531 C 26.429688 7.886719 26.554688 7.871094 26.609375 7.859375 C 26.671875 7.847656 26.757812 7.824219 26.804688 7.804688 C 26.851562 7.789062 26.914062 7.757812 26.945312 7.742188 C 26.976562 7.722656 27 7.707031 27 7.699219 C 27 7.699219 26.929688 7.6875 26.851562 7.675781 C 26.769531 7.664062 26.632812 7.640625 26.546875 7.621094 C 26.457031 7.601562 26.332031 7.566406 26.265625 7.546875 C 26.199219 7.523438 26.113281 7.488281 26.070312 7.46875 C 26.027344 7.445312 25.980469 7.414062 25.960938 7.394531 C 25.9375 7.375 25.925781 7.347656 25.925781 7.320312 C 25.925781 7.292969 25.9375 7.257812 25.957031 7.238281 C 25.972656 7.214844 26.039062 7.164062 26.105469 7.117188 C 26.171875 7.074219 26.242188 7.023438 26.265625 7.003906 C 26.285156 6.984375 26.308594 6.953125 26.320312 6.933594 C 26.332031 6.914062 26.339844 6.878906 26.339844 6.859375 C 26.339844 6.835938 26.332031 6.800781 26.324219 6.78125 C 26.316406 6.761719 26.292969 6.726562 26.273438 6.707031 C 26.257812 6.683594 26.203125 6.644531 26.160156 6.613281 C 26.113281 6.585938 26.015625 6.527344 25.933594 6.492188 C 25.851562 6.453125 25.726562 6.398438 25.648438 6.367188 C 25.570312 6.335938 25.460938 6.292969 25.402344 6.269531 C 25.34375 6.246094 24.867188 6.082031 24.34375 5.898438 C 23.824219 5.714844 23.355469 5.550781 23.300781 5.53125 C 23.25 5.515625 22.964844 5.414062 22.671875 5.308594 C 22.375 5.203125 21.882812 5.027344 21.574219 4.917969 C 21.265625 4.804688 20.734375 4.613281 20.390625 4.488281 C 20.046875 4.363281 19.679688 4.230469 19.566406 4.191406 C 19.460938 4.152344 19.078125 4.019531 18.726562 3.894531 C 18.371094 3.769531 17.789062 3.5625 17.433594 3.441406 C 17.078125 3.316406 16.601562 3.152344 16.363281 3.074219 C 16.132812 3 15.808594 2.898438 15.648438 2.847656 C 15.488281 2.804688 15.265625 2.742188 15.15625 2.71875 C 15.046875 2.691406 14.878906 2.65625 14.785156 2.636719 C 14.691406 2.621094 14.535156 2.59375 14.445312 2.585938 C 14.335938 2.570312 14.140625 2.5625 13.867188 2.558594 C 13.570312 2.554688 13.40625 2.558594 13.289062 2.570312 Z M 13.289062 2.570312 "/>
<path style=" stroke:none;fill-rule:nonzero;fill:rgb(0%,18.823529%,52.941176%);fill-opacity:1;" d="M 7.128906 6.816406 C 7.0625 6.832031 6.957031 6.859375 6.890625 6.886719 C 6.824219 6.90625 6.734375 6.941406 6.691406 6.964844 C 6.644531 6.984375 6.554688 7.039062 6.484375 7.082031 C 6.40625 7.132812 6.304688 7.21875 6.222656 7.300781 C 6.148438 7.375 6.089844 7.441406 6.09375 7.445312 C 6.097656 7.453125 6.113281 7.449219 6.128906 7.441406 C 6.144531 7.4375 6.238281 7.414062 6.332031 7.394531 C 6.476562 7.363281 6.539062 7.359375 6.726562 7.355469 C 6.898438 7.355469 6.960938 7.363281 7.03125 7.378906 C 7.078125 7.394531 7.140625 7.414062 7.167969 7.429688 C 7.195312 7.441406 7.238281 7.476562 7.269531 7.503906 C 7.300781 7.53125 7.335938 7.578125 7.351562 7.609375 C 7.367188 7.636719 7.382812 7.695312 7.386719 7.734375 C 7.390625 7.777344 7.386719 7.835938 7.375 7.875 C 7.367188 7.910156 7.328125 8.003906 7.292969 8.082031 C 7.257812 8.164062 7.222656 8.265625 7.214844 8.316406 C 7.203125 8.390625 7.203125 8.417969 7.222656 8.480469 C 7.234375 8.535156 7.257812 8.574219 7.292969 8.609375 C 7.320312 8.636719 7.378906 8.671875 7.421875 8.691406 C 7.488281 8.71875 7.523438 8.722656 7.628906 8.722656 C 7.699219 8.722656 7.792969 8.710938 7.839844 8.699219 C 7.886719 8.6875 7.96875 8.65625 8.019531 8.632812 C 8.070312 8.605469 8.152344 8.558594 8.199219 8.519531 C 8.246094 8.484375 8.3125 8.417969 8.34375 8.375 C 8.378906 8.335938 8.421875 8.273438 8.441406 8.238281 C 8.460938 8.207031 8.496094 8.125 8.519531 8.054688 C 8.558594 7.933594 8.5625 7.914062 8.5625 7.746094 C 8.5625 7.589844 8.558594 7.554688 8.527344 7.460938 C 8.507812 7.402344 8.46875 7.320312 8.445312 7.273438 C 8.417969 7.230469 8.375 7.167969 8.347656 7.136719 C 8.320312 7.105469 8.265625 7.050781 8.226562 7.019531 C 8.1875 6.988281 8.105469 6.9375 8.046875 6.910156 C 7.988281 6.882812 7.894531 6.84375 7.832031 6.828125 C 7.746094 6.804688 7.683594 6.796875 7.488281 6.796875 C 7.292969 6.792969 7.230469 6.796875 7.128906 6.816406 Z M 7.128906 6.816406 "/>
<path style=" stroke:none;fill-rule:nonzero;fill:rgb(100%,100%,100%);fill-opacity:1;" d="M 28.34375 9.609375 C 28.1875 9.796875 27.898438 10.121094 27.699219 10.335938 C 27.503906 10.554688 27.152344 10.929688 26.914062 11.175781 C 26.679688 11.421875 26.253906 11.855469 25.964844 12.140625 C 25.675781 12.421875 25.222656 12.863281 24.957031 13.113281 C 24.691406 13.367188 24.269531 13.757812 24.027344 13.980469 C 23.78125 14.203125 23.402344 14.542969 23.183594 14.738281 C 22.964844 14.933594 22.605469 15.246094 22.386719 15.4375 C 22.167969 15.625 21.789062 15.949219 21.546875 16.152344 C 21.308594 16.359375 20.921875 16.679688 20.691406 16.871094 C 20.460938 17.0625 20.097656 17.355469 19.886719 17.53125 C 19.675781 17.699219 19.277344 18.019531 19.003906 18.238281 C 18.730469 18.460938 18.320312 18.78125 18.09375 18.957031 C 17.867188 19.132812 17.511719 19.40625 17.300781 19.566406 C 17.09375 19.730469 16.714844 20.019531 16.460938 20.210938 C 16.175781 20.421875 15.988281 20.554688 15.980469 20.546875 C 15.972656 20.539062 15.777344 20.394531 15.546875 20.21875 C 15.320312 20.042969 14.964844 19.777344 14.765625 19.621094 C 14.5625 19.46875 14.199219 19.1875 13.953125 19 C 13.707031 18.808594 13.285156 18.476562 13.015625 18.261719 C 12.746094 18.042969 12.351562 17.726562 12.140625 17.558594 C 11.929688 17.382812 11.5625 17.085938 11.328125 16.890625 C 11.09375 16.699219 10.695312 16.363281 10.4375 16.144531 C 10.183594 15.929688 9.785156 15.589844 9.554688 15.390625 C 9.324219 15.1875 8.972656 14.878906 8.769531 14.699219 C 8.570312 14.519531 8.207031 14.195312 7.964844 13.972656 C 7.726562 13.753906 7.335938 13.390625 7.097656 13.167969 C 6.859375 12.945312 6.363281 12.464844 5.996094 12.097656 C 5.628906 11.734375 5.160156 11.261719 4.957031 11.050781 C 4.753906 10.839844 4.441406 10.503906 4.265625 10.304688 C 4.085938 10.109375 3.8125 9.796875 3.65625 9.617188 C 3.503906 9.4375 3.371094 9.289062 3.363281 9.289062 C 3.359375 9.289062 3.363281 9.34375 3.371094 9.40625 C 3.382812 9.46875 3.40625 9.589844 3.429688 9.675781 C 3.449219 9.757812 3.492188 9.898438 3.523438 9.988281 C 3.550781 10.074219 3.605469 10.21875 3.644531 10.304688 C 3.679688 10.394531 3.753906 10.546875 3.800781 10.652344 C 3.851562 10.753906 3.941406 10.921875 4 11.023438 C 4.0625 11.125 4.164062 11.289062 4.230469 11.390625 C 4.296875 11.488281 4.394531 11.628906 4.449219 11.699219 C 4.503906 11.773438 4.605469 11.902344 4.675781 11.984375 C 4.746094 12.070312 4.972656 12.320312 5.183594 12.542969 C 5.394531 12.769531 5.867188 13.25 6.234375 13.613281 C 6.601562 13.980469 7.085938 14.449219 7.308594 14.65625 C 7.53125 14.867188 7.839844 15.152344 7.992188 15.289062 C 8.148438 15.429688 8.441406 15.695312 8.652344 15.882812 C 8.859375 16.066406 9.183594 16.351562 9.367188 16.511719 C 9.554688 16.671875 9.847656 16.925781 10.019531 17.070312 C 10.191406 17.21875 10.464844 17.449219 10.625 17.582031 C 10.785156 17.71875 11.101562 17.980469 11.328125 18.167969 C 11.554688 18.355469 12 18.710938 12.3125 18.964844 C 12.628906 19.21875 13.113281 19.605469 13.398438 19.828125 C 13.679688 20.050781 14.1875 20.445312 14.523438 20.703125 C 14.859375 20.964844 15.136719 21.179688 15.136719 21.183594 C 15.136719 21.1875 14.886719 21.371094 14.574219 21.59375 C 14.265625 21.820312 13.828125 22.132812 13.601562 22.292969 C 13.375 22.453125 13.1875 22.582031 13.1875 22.585938 C 13.183594 22.585938 13.183594 22.679688 13.183594 22.796875 C 13.183594 22.914062 13.1875 23.054688 13.199219 23.109375 C 13.207031 23.164062 13.226562 23.234375 13.238281 23.261719 C 13.253906 23.292969 13.292969 23.355469 13.324219 23.40625 C 13.355469 23.453125 13.414062 23.53125 13.460938 23.574219 L 13.535156 23.65625 C 14.480469 22.960938 15.027344 22.554688 15.363281 22.304688 C 15.695312 22.054688 15.972656 21.847656 15.984375 21.84375 C 15.992188 21.835938 16.28125 22.042969 16.726562 22.375 C 17.128906 22.675781 17.679688 23.085938 17.960938 23.289062 L 18.464844 23.660156 C 18.574219 23.539062 18.628906 23.46875 18.65625 23.429688 C 18.683594 23.390625 18.722656 23.324219 18.742188 23.28125 C 18.773438 23.226562 18.785156 23.171875 18.800781 23.042969 C 18.808594 22.953125 18.816406 22.8125 18.8125 22.734375 L 18.8125 22.585938 C 18.070312 22.0625 17.640625 21.757812 17.382812 21.570312 C 17.125 21.382812 16.898438 21.222656 16.878906 21.207031 L 16.851562 21.183594 C 17.832031 20.425781 18.304688 20.0625 18.53125 19.882812 C 18.757812 19.703125 19.242188 19.316406 19.609375 19.023438 C 19.972656 18.734375 20.425781 18.363281 20.617188 18.207031 C 20.808594 18.050781 21.125 17.789062 21.320312 17.621094 C 21.519531 17.457031 21.976562 17.070312 22.339844 16.757812 C 22.699219 16.449219 23.160156 16.050781 23.355469 15.875 C 23.554688 15.699219 23.859375 15.417969 24.039062 15.257812 C 24.21875 15.089844 24.496094 14.835938 24.65625 14.683594 C 24.816406 14.535156 25.136719 14.230469 25.367188 14.003906 C 25.597656 13.78125 25.957031 13.425781 26.167969 13.214844 C 26.375 13.003906 26.675781 12.691406 26.835938 12.519531 C 27 12.34375 27.171875 12.160156 27.222656 12.097656 C 27.273438 12.042969 27.355469 11.945312 27.402344 11.886719 C 27.453125 11.828125 27.523438 11.734375 27.570312 11.675781 C 27.613281 11.617188 27.691406 11.503906 27.742188 11.429688 C 27.796875 11.351562 27.894531 11.195312 27.964844 11.078125 C 28.035156 10.960938 28.136719 10.773438 28.191406 10.664062 C 28.246094 10.554688 28.324219 10.382812 28.363281 10.285156 C 28.402344 10.1875 28.460938 10.035156 28.488281 9.953125 C 28.519531 9.867188 28.558594 9.71875 28.582031 9.621094 C 28.605469 9.523438 28.628906 9.40625 28.632812 9.359375 C 28.636719 9.3125 28.636719 9.277344 28.636719 9.277344 C 28.632812 9.277344 28.503906 9.425781 28.34375 9.609375 Z M 28.34375 9.609375 "/>
<path style=" stroke:none;fill-rule:nonzero;fill:rgb(0%,18.823529%,52.941176%);fill-opacity:1;" d="M 8.164062 9.644531 C 8.128906 9.65625 8.078125 9.683594 8.054688 9.703125 C 8.027344 9.71875 7.992188 9.761719 7.972656 9.796875 C 7.953125 9.828125 7.921875 9.894531 7.902344 9.941406 C 7.886719 9.988281 7.863281 10.058594 7.855469 10.097656 C 7.847656 10.140625 7.824219 10.289062 7.800781 10.433594 C 7.777344 10.574219 7.746094 10.730469 7.730469 10.777344 C 7.71875 10.824219 7.691406 10.886719 7.675781 10.917969 C 7.664062 10.945312 7.632812 10.992188 7.609375 11.023438 C 7.585938 11.050781 7.550781 11.082031 7.527344 11.089844 L 7.488281 11.105469 C 7.558594 11.140625 7.613281 11.15625 7.65625 11.160156 C 7.695312 11.164062 7.753906 11.160156 7.789062 11.148438 C 7.832031 11.136719 7.867188 11.113281 7.921875 11.058594 C 7.972656 11.003906 8.003906 10.957031 8.027344 10.898438 C 8.046875 10.847656 8.070312 10.773438 8.082031 10.726562 C 8.089844 10.679688 8.101562 10.644531 8.105469 10.644531 C 8.109375 10.644531 8.132812 10.664062 8.160156 10.6875 C 8.183594 10.710938 8.210938 10.746094 8.21875 10.765625 C 8.230469 10.78125 8.238281 10.816406 8.246094 10.84375 C 8.25 10.871094 8.246094 10.917969 8.230469 10.960938 C 8.21875 11.003906 8.195312 11.046875 8.164062 11.078125 C 8.136719 11.105469 8.097656 11.140625 8.078125 11.152344 L 8.046875 11.175781 C 8.140625 11.167969 8.199219 11.152344 8.238281 11.132812 C 8.28125 11.113281 8.335938 11.074219 8.367188 11.042969 C 8.398438 11.015625 8.445312 10.953125 8.46875 10.90625 C 8.5 10.839844 8.511719 10.804688 8.515625 10.71875 C 8.519531 10.636719 8.515625 10.59375 8.496094 10.539062 C 8.484375 10.496094 8.460938 10.441406 8.441406 10.414062 C 8.425781 10.386719 8.390625 10.339844 8.359375 10.3125 C 8.328125 10.28125 8.273438 10.246094 8.238281 10.230469 C 8.191406 10.207031 8.171875 10.191406 8.171875 10.171875 C 8.171875 10.160156 8.183594 10.097656 8.199219 10.039062 C 8.214844 9.980469 8.246094 9.894531 8.273438 9.847656 C 8.300781 9.800781 8.34375 9.734375 8.367188 9.703125 C 8.398438 9.664062 8.40625 9.644531 8.394531 9.636719 C 8.386719 9.632812 8.34375 9.628906 8.304688 9.625 C 8.257812 9.621094 8.210938 9.628906 8.164062 9.644531 Z M 8.164062 9.644531 "/>
<path style=" stroke:none;fill-rule:nonzero;fill:rgb(78.431373%,6.27451%,18.039216%);fill-opacity:1;" d="M 8.074219 10.746094 C 8.0625 10.804688 8.035156 10.886719 8.011719 10.929688 C 7.992188 10.972656 7.960938 11.027344 7.945312 11.042969 C 7.925781 11.0625 7.890625 11.09375 7.859375 11.113281 C 7.8125 11.152344 7.808594 11.15625 7.832031 11.164062 C 7.847656 11.167969 7.890625 11.175781 7.925781 11.183594 C 7.980469 11.191406 8.003906 11.1875 8.046875 11.167969 C 8.074219 11.152344 8.125 11.117188 8.15625 11.085938 C 8.195312 11.046875 8.21875 11.007812 8.230469 10.960938 C 8.246094 10.917969 8.25 10.871094 8.246094 10.84375 C 8.238281 10.816406 8.230469 10.785156 8.222656 10.769531 C 8.214844 10.757812 8.1875 10.722656 8.160156 10.695312 C 8.132812 10.667969 8.109375 10.644531 8.105469 10.644531 C 8.101562 10.644531 8.085938 10.691406 8.074219 10.746094 Z M 8.074219 10.746094 "/>
<path style=" stroke:none;fill-rule:nonzero;fill:rgb(100%,100%,100%);fill-opacity:1;" d="M 22.339844 14.203125 C 22.269531 14.21875 22.097656 14.265625 21.960938 14.300781 C 21.820312 14.335938 21.546875 14.414062 21.355469 14.472656 C 21.160156 14.53125 20.765625 14.65625 20.472656 14.746094 C 20.179688 14.839844 19.601562 15.027344 19.1875 15.160156 C 18.777344 15.300781 18.167969 15.507812 17.839844 15.625 C 17.511719 15.742188 17.113281 15.886719 16.957031 15.945312 C 16.800781 16 16.53125 16.105469 16.359375 16.175781 C 16.1875 16.246094 15.957031 16.34375 15.847656 16.390625 C 15.738281 16.441406 15.597656 16.507812 15.535156 16.542969 C 15.472656 16.574219 15.394531 16.625 15.359375 16.648438 C 15.324219 16.679688 15.296875 16.710938 15.292969 16.730469 C 15.289062 16.75 15.296875 16.761719 15.320312 16.769531 C 15.335938 16.777344 15.378906 16.785156 15.410156 16.785156 C 15.445312 16.785156 15.53125 16.773438 15.601562 16.761719 C 15.671875 16.75 15.820312 16.71875 15.933594 16.691406 C 16.046875 16.660156 16.269531 16.597656 16.425781 16.550781 C 16.582031 16.503906 16.949219 16.386719 17.242188 16.289062 C 17.535156 16.1875 18.011719 16.023438 18.304688 15.917969 C 18.597656 15.808594 19.019531 15.65625 19.242188 15.570312 C 19.464844 15.488281 19.816406 15.351562 20.019531 15.273438 C 20.222656 15.191406 20.570312 15.054688 20.789062 14.964844 C 21.007812 14.878906 21.300781 14.761719 21.433594 14.703125 C 21.570312 14.648438 21.796875 14.550781 21.933594 14.492188 C 22.070312 14.429688 22.261719 14.34375 22.351562 14.300781 C 22.441406 14.257812 22.53125 14.210938 22.550781 14.195312 L 22.585938 14.167969 C 22.492188 14.167969 22.40625 14.183594 22.339844 14.203125 Z M 22.339844 14.203125 "/>
<path style=" stroke:none;fill-rule:evenodd;fill:rgb(100%,72.156863%,10.980392%);fill-opacity:1;" d="M 12.96875 21.773438 C 13.070312 21.773438 13.109375 21.78125 13.152344 21.804688 C 13.183594 21.820312 13.222656 21.851562 13.238281 21.875 C 13.25 21.902344 13.261719 21.929688 13.257812 21.9375 C 13.257812 21.949219 13.203125 21.976562 13.136719 22 C 13.054688 22.027344 13.003906 22.054688 12.976562 22.078125 C 12.957031 22.101562 12.921875 22.152344 12.902344 22.191406 C 12.871094 22.261719 12.871094 22.273438 12.871094 22.492188 C 12.871094 22.660156 12.878906 22.757812 12.902344 22.875 C 12.917969 22.964844 12.980469 23.25 13.042969 23.515625 C 13.105469 23.777344 13.175781 24.082031 13.195312 24.191406 C 13.21875 24.300781 13.246094 24.476562 13.261719 24.578125 C 13.28125 24.699219 13.292969 24.867188 13.300781 25.054688 C 13.304688 25.257812 13.300781 25.390625 13.289062 25.476562 C 13.28125 25.542969 13.261719 25.65625 13.246094 25.726562 C 13.230469 25.796875 13.195312 25.929688 13.160156 26.027344 C 13.128906 26.121094 13.074219 26.257812 13.042969 26.324219 C 13.007812 26.394531 12.960938 26.488281 12.933594 26.53125 C 12.90625 26.574219 12.847656 26.664062 12.804688 26.730469 C 12.761719 26.796875 12.671875 26.917969 12.605469 26.996094 C 12.539062 27.078125 12.4375 27.183594 12.382812 27.234375 C 12.328125 27.285156 12.226562 27.375 12.152344 27.433594 C 12.078125 27.492188 11.957031 27.582031 11.878906 27.628906 C 11.804688 27.679688 11.660156 27.761719 11.5625 27.8125 C 11.460938 27.863281 11.324219 27.925781 11.257812 27.953125 C 11.1875 27.980469 11.0625 28.023438 10.976562 28.046875 C 10.894531 28.070312 10.777344 28.101562 10.71875 28.113281 C 10.660156 28.125 10.53125 28.140625 10.433594 28.152344 C 10.332031 28.164062 10.191406 28.171875 10.113281 28.171875 C 10.035156 28.171875 9.914062 28.167969 9.839844 28.160156 C 9.769531 28.152344 9.644531 28.136719 9.566406 28.121094 C 9.492188 28.105469 9.355469 28.066406 9.269531 28.039062 C 9.179688 28.007812 9.046875 27.957031 8.96875 27.917969 C 8.894531 27.882812 8.796875 27.832031 8.75 27.804688 C 8.707031 27.777344 8.601562 27.707031 8.519531 27.644531 C 8.433594 27.582031 8.296875 27.460938 8.210938 27.375 C 8.125 27.292969 8.019531 27.171875 7.878906 27.003906 L 7.832031 27.070312 C 7.804688 27.109375 7.753906 27.160156 7.722656 27.1875 C 7.6875 27.210938 7.628906 27.242188 7.589844 27.257812 C 7.53125 27.28125 7.492188 27.28125 7.386719 27.28125 C 7.273438 27.277344 7.25 27.269531 7.160156 27.226562 C 7.09375 27.195312 7.042969 27.15625 6.996094 27.105469 C 6.960938 27.066406 6.914062 27 6.894531 26.964844 C 6.875 26.921875 6.851562 26.863281 6.84375 26.832031 C 6.835938 26.796875 6.832031 26.730469 6.832031 26.683594 C 6.832031 26.636719 6.839844 26.5625 6.851562 26.519531 C 6.863281 26.476562 6.890625 26.402344 6.914062 26.359375 C 6.9375 26.316406 6.988281 26.253906 7.023438 26.222656 C 7.0625 26.1875 7.125 26.144531 7.164062 26.125 C 7.203125 26.105469 7.273438 26.082031 7.316406 26.070312 C 7.382812 26.058594 7.410156 26.058594 7.496094 26.078125 C 7.550781 26.089844 7.628906 26.117188 7.667969 26.140625 C 7.707031 26.167969 7.769531 26.210938 7.804688 26.238281 C 7.839844 26.269531 7.945312 26.386719 8.042969 26.496094 C 8.140625 26.609375 8.300781 26.789062 8.40625 26.890625 C 8.507812 26.992188 8.648438 27.117188 8.71875 27.167969 C 8.789062 27.214844 8.929688 27.296875 9.03125 27.347656 C 9.132812 27.398438 9.269531 27.457031 9.335938 27.476562 C 9.402344 27.496094 9.523438 27.523438 9.609375 27.539062 C 9.730469 27.5625 9.808594 27.566406 10.007812 27.566406 C 10.175781 27.566406 10.292969 27.558594 10.386719 27.542969 C 10.460938 27.53125 10.578125 27.503906 10.652344 27.488281 C 10.726562 27.46875 10.851562 27.425781 10.9375 27.394531 C 11.019531 27.359375 11.148438 27.300781 11.214844 27.265625 C 11.285156 27.230469 11.402344 27.160156 11.476562 27.113281 C 11.546875 27.0625 11.644531 26.992188 11.6875 26.957031 C 11.730469 26.921875 11.816406 26.84375 11.878906 26.785156 C 11.941406 26.726562 12.023438 26.636719 12.066406 26.585938 C 12.109375 26.53125 12.183594 26.433594 12.234375 26.359375 C 12.28125 26.285156 12.359375 26.152344 12.398438 26.066406 C 12.441406 25.980469 12.496094 25.84375 12.523438 25.769531 C 12.546875 25.691406 12.585938 25.566406 12.601562 25.488281 C 12.628906 25.363281 12.628906 25.3125 12.628906 25.050781 C 12.628906 24.8125 12.625 24.707031 12.601562 24.546875 C 12.585938 24.433594 12.539062 24.195312 12.503906 24.019531 C 12.46875 23.84375 12.414062 23.585938 12.386719 23.449219 C 12.359375 23.308594 12.320312 23.113281 12.304688 23.007812 C 12.285156 22.882812 12.273438 22.757812 12.273438 22.609375 C 12.273438 22.441406 12.277344 22.378906 12.296875 22.3125 C 12.308594 22.265625 12.339844 22.1875 12.363281 22.140625 C 12.390625 22.085938 12.4375 22.019531 12.492188 21.964844 C 12.542969 21.910156 12.609375 21.859375 12.660156 21.835938 C 12.707031 21.8125 12.765625 21.789062 12.792969 21.78125 C 12.820312 21.773438 12.902344 21.769531 12.96875 21.773438 Z M 19.035156 21.769531 C 19.097656 21.769531 19.175781 21.777344 19.214844 21.789062 C 19.257812 21.800781 19.320312 21.828125 19.355469 21.847656 C 19.390625 21.867188 19.449219 21.910156 19.484375 21.945312 C 19.519531 21.980469 19.566406 22.039062 19.59375 22.078125 C 19.617188 22.113281 19.652344 22.175781 19.664062 22.214844 C 19.679688 22.253906 19.703125 22.335938 19.714844 22.402344 C 19.730469 22.488281 19.734375 22.558594 19.726562 22.671875 C 19.722656 22.753906 19.703125 22.921875 19.6875 23.035156 C 19.667969 23.152344 19.621094 23.402344 19.582031 23.589844 C 19.539062 23.773438 19.488281 24.027344 19.460938 24.152344 C 19.4375 24.277344 19.40625 24.472656 19.390625 24.585938 C 19.371094 24.730469 19.363281 24.863281 19.363281 25.035156 C 19.363281 25.167969 19.367188 25.320312 19.375 25.371094 C 19.382812 25.425781 19.40625 25.527344 19.425781 25.601562 C 19.441406 25.675781 19.476562 25.789062 19.503906 25.859375 C 19.53125 25.929688 19.574219 26.027344 19.597656 26.078125 C 19.625 26.132812 19.675781 26.222656 19.710938 26.277344 C 19.75 26.335938 19.808594 26.425781 19.847656 26.476562 C 19.886719 26.53125 19.972656 26.628906 20.039062 26.703125 C 20.109375 26.777344 20.21875 26.875 20.277344 26.929688 C 20.339844 26.980469 20.453125 27.0625 20.523438 27.109375 C 20.597656 27.160156 20.703125 27.222656 20.757812 27.253906 C 20.8125 27.28125 20.917969 27.332031 20.992188 27.363281 C 21.0625 27.390625 21.179688 27.433594 21.25 27.453125 C 21.320312 27.476562 21.421875 27.503906 21.476562 27.511719 C 21.53125 27.523438 21.628906 27.539062 21.695312 27.546875 C 21.761719 27.554688 21.890625 27.5625 21.988281 27.5625 C 22.082031 27.5625 22.210938 27.554688 22.277344 27.546875 C 22.34375 27.539062 22.441406 27.523438 22.496094 27.511719 C 22.554688 27.5 22.65625 27.46875 22.730469 27.445312 C 22.804688 27.421875 22.921875 27.371094 22.992188 27.335938 C 23.058594 27.300781 23.160156 27.242188 23.210938 27.207031 C 23.261719 27.175781 23.355469 27.105469 23.414062 27.050781 C 23.476562 27 23.582031 26.902344 23.644531 26.835938 C 23.710938 26.769531 23.839844 26.621094 23.9375 26.507812 C 24.042969 26.382812 24.152344 26.265625 24.207031 26.222656 C 24.257812 26.183594 24.335938 26.132812 24.386719 26.109375 C 24.441406 26.082031 24.5 26.066406 24.558594 26.0625 C 24.617188 26.058594 24.671875 26.0625 24.726562 26.078125 C 24.769531 26.089844 24.832031 26.117188 24.867188 26.136719 C 24.902344 26.15625 24.960938 26.203125 24.996094 26.238281 C 25.03125 26.273438 25.074219 26.335938 25.09375 26.375 C 25.113281 26.414062 25.140625 26.480469 25.148438 26.523438 C 25.160156 26.5625 25.167969 26.632812 25.167969 26.675781 C 25.167969 26.71875 25.164062 26.78125 25.15625 26.820312 C 25.144531 26.859375 25.125 26.921875 25.105469 26.957031 C 25.089844 26.992188 25.050781 27.050781 25.023438 27.082031 C 24.996094 27.113281 24.945312 27.160156 24.910156 27.1875 C 24.875 27.207031 24.804688 27.238281 24.761719 27.253906 C 24.707031 27.273438 24.644531 27.28125 24.585938 27.28125 C 24.523438 27.28125 24.46875 27.273438 24.421875 27.257812 C 24.382812 27.242188 24.320312 27.210938 24.285156 27.1875 C 24.25 27.160156 24.203125 27.117188 24.179688 27.089844 C 24.15625 27.058594 24.132812 27.027344 24.128906 27.015625 C 24.125 27 24.113281 27.007812 24.082031 27.042969 C 24.0625 27.070312 23.984375 27.160156 23.90625 27.246094 C 23.832031 27.335938 23.726562 27.441406 23.675781 27.488281 C 23.625 27.53125 23.523438 27.609375 23.453125 27.660156 C 23.386719 27.710938 23.277344 27.785156 23.214844 27.820312 C 23.152344 27.855469 23.046875 27.910156 22.976562 27.941406 C 22.90625 27.972656 22.789062 28.019531 22.710938 28.042969 C 22.632812 28.070312 22.5 28.101562 22.410156 28.117188 C 22.324219 28.132812 22.175781 28.152344 22.078125 28.160156 C 21.964844 28.167969 21.84375 28.167969 21.714844 28.160156 C 21.609375 28.152344 21.464844 28.136719 21.394531 28.125 C 21.328125 28.113281 21.199219 28.089844 21.117188 28.066406 C 21.03125 28.042969 20.910156 28.007812 20.84375 27.988281 C 20.777344 27.964844 20.632812 27.902344 20.519531 27.84375 C 20.40625 27.789062 20.261719 27.714844 20.199219 27.675781 C 20.136719 27.640625 20.019531 27.558594 19.933594 27.496094 C 19.847656 27.429688 19.707031 27.308594 19.613281 27.21875 C 19.523438 27.132812 19.394531 26.992188 19.328125 26.910156 C 19.265625 26.824219 19.1875 26.714844 19.152344 26.664062 C 19.117188 26.613281 19.050781 26.496094 19 26.398438 C 18.953125 26.304688 18.886719 26.15625 18.855469 26.074219 C 18.828125 25.988281 18.785156 25.847656 18.765625 25.761719 C 18.742188 25.671875 18.71875 25.53125 18.710938 25.441406 C 18.699219 25.339844 18.695312 25.1875 18.703125 25.023438 C 18.707031 24.878906 18.722656 24.671875 18.738281 24.558594 C 18.753906 24.445312 18.789062 24.25 18.8125 24.125 C 18.839844 24 18.898438 23.742188 18.945312 23.546875 C 18.992188 23.355469 19.035156 23.15625 19.046875 23.109375 C 19.058594 23.0625 19.082031 22.949219 19.097656 22.859375 C 19.117188 22.742188 19.125 22.628906 19.128906 22.496094 C 19.128906 22.347656 19.125 22.289062 19.105469 22.230469 C 19.089844 22.175781 19.066406 22.136719 19.027344 22.097656 C 18.984375 22.054688 18.945312 22.03125 18.859375 22 C 18.773438 21.96875 18.742188 21.953125 18.742188 21.933594 C 18.738281 21.917969 18.75 21.890625 18.765625 21.867188 C 18.785156 21.847656 18.828125 21.816406 18.863281 21.796875 C 18.914062 21.773438 18.953125 21.769531 19.035156 21.769531 Z M 12.035156 23.289062 C 12.035156 23.292969 12.035156 23.308594 12.035156 23.324219 C 12.03125 23.34375 11.972656 23.402344 11.871094 23.488281 C 11.785156 23.5625 11.628906 23.6875 11.527344 23.761719 C 11.425781 23.839844 11.199219 24.003906 11.023438 24.128906 C 10.847656 24.253906 10.558594 24.453125 10.386719 24.566406 C 10.210938 24.683594 9.957031 24.851562 9.820312 24.9375 C 9.683594 25.023438 9.460938 25.164062 9.320312 25.246094 C 9.183594 25.328125 8.949219 25.464844 8.804688 25.546875 C 8.65625 25.628906 8.421875 25.757812 8.277344 25.832031 C 8.136719 25.902344 8 25.96875 7.976562 25.972656 C 7.953125 25.976562 7.929688 25.972656 7.925781 25.964844 C 7.921875 25.960938 7.9375 25.9375 7.964844 25.921875 C 7.988281 25.902344 8.242188 25.742188 8.53125 25.558594 C 8.820312 25.375 9.265625 25.09375 9.523438 24.929688 C 9.777344 24.761719 10.171875 24.507812 10.398438 24.359375 C 10.625 24.210938 11.078125 23.910156 11.402344 23.695312 C 11.726562 23.476562 12 23.296875 12.011719 23.292969 C 12.023438 23.289062 12.03125 23.289062 12.035156 23.289062 Z M 19.953125 23.28125 C 19.957031 23.28125 19.976562 23.292969 19.996094 23.300781 C 20.015625 23.308594 20.460938 23.601562 20.984375 23.949219 C 21.503906 24.296875 22.136719 24.710938 22.386719 24.871094 C 22.632812 25.03125 23.105469 25.328125 23.433594 25.539062 C 23.765625 25.746094 24.042969 25.921875 24.054688 25.933594 C 24.066406 25.945312 24.070312 25.957031 24.058594 25.96875 C 24.050781 25.976562 24.019531 25.972656 23.953125 25.945312 C 23.902344 25.925781 23.820312 25.890625 23.769531 25.863281 C 23.71875 25.839844 23.5625 25.753906 23.429688 25.679688 C 23.292969 25.605469 23.023438 25.449219 22.832031 25.332031 C 22.636719 25.214844 22.355469 25.042969 22.207031 24.949219 C 22.054688 24.855469 21.804688 24.695312 21.648438 24.59375 C 21.492188 24.488281 21.257812 24.328125 21.128906 24.238281 C 21 24.148438 20.789062 23.992188 20.65625 23.894531 C 20.527344 23.796875 20.320312 23.636719 20.199219 23.539062 C 20.078125 23.441406 19.972656 23.351562 19.964844 23.335938 C 19.953125 23.320312 19.945312 23.300781 19.945312 23.296875 C 19.945312 23.289062 19.949219 23.28125 19.953125 23.28125 Z M 12.097656 23.75 C 12.160156 23.746094 12.175781 23.753906 12.210938 23.785156 C 12.230469 23.804688 12.257812 23.847656 12.265625 23.878906 C 12.273438 23.914062 12.289062 23.980469 12.300781 24.027344 C 12.308594 24.074219 12.324219 24.167969 12.332031 24.230469 C 12.339844 24.296875 12.34375 24.398438 12.34375 24.460938 C 12.34375 24.539062 12.339844 24.574219 12.320312 24.609375 C 12.304688 24.632812 12.277344 24.660156 12.261719 24.671875 C 12.246094 24.679688 12.210938 24.695312 12.1875 24.703125 C 12.15625 24.710938 12.125 24.714844 12.089844 24.703125 C 12.0625 24.699219 12.019531 24.675781 11.957031 24.617188 L 11.964844 24.703125 C 11.972656 24.757812 11.972656 24.808594 11.960938 24.835938 C 11.957031 24.863281 11.925781 24.90625 11.894531 24.933594 C 11.847656 24.980469 11.832031 24.984375 11.769531 24.984375 C 11.726562 24.984375 11.679688 24.976562 11.664062 24.96875 C 11.648438 24.960938 11.621094 24.941406 11.605469 24.925781 C 11.589844 24.910156 11.574219 24.902344 11.570312 24.902344 C 11.566406 24.90625 11.570312 24.941406 11.574219 24.976562 C 11.582031 25.015625 11.582031 25.066406 11.574219 25.09375 C 11.566406 25.121094 11.542969 25.164062 11.519531 25.191406 C 11.488281 25.222656 11.457031 25.238281 11.414062 25.25 C 11.378906 25.257812 11.335938 25.257812 11.308594 25.25 C 11.28125 25.242188 11.242188 25.21875 11.175781 25.148438 L 11.183594 25.25 C 11.191406 25.335938 11.1875 25.355469 11.164062 25.40625 C 11.148438 25.4375 11.117188 25.472656 11.09375 25.488281 C 11.070312 25.503906 11.03125 25.519531 11.007812 25.523438 C 10.988281 25.527344 10.945312 25.523438 10.917969 25.515625 C 10.886719 25.503906 10.84375 25.480469 10.777344 25.414062 L 10.785156 25.515625 C 10.792969 25.605469 10.792969 25.621094 10.761719 25.671875 C 10.746094 25.703125 10.710938 25.738281 10.683594 25.753906 C 10.65625 25.769531 10.613281 25.78125 10.570312 25.78125 C 10.523438 25.78125 10.492188 25.773438 10.453125 25.746094 C 10.425781 25.730469 10.40625 25.707031 10.40625 25.699219 C 10.40625 25.695312 10.402344 25.691406 10.394531 25.691406 C 10.390625 25.695312 10.386719 25.742188 10.390625 25.796875 C 10.394531 25.867188 10.390625 25.90625 10.375 25.9375 C 10.359375 25.964844 10.328125 25.992188 10.28125 26.011719 C 10.246094 26.03125 10.199219 26.046875 10.179688 26.046875 C 10.160156 26.046875 10.121094 26.035156 10.09375 26.023438 C 10.0625 26.007812 10.027344 25.980469 9.976562 25.921875 L 9.984375 26.027344 C 9.992188 26.117188 9.992188 26.140625 9.96875 26.1875 C 9.953125 26.214844 9.929688 26.25 9.910156 26.261719 C 9.894531 26.273438 9.851562 26.289062 9.820312 26.300781 C 9.773438 26.3125 9.75 26.3125 9.710938 26.300781 C 9.683594 26.292969 9.644531 26.269531 9.621094 26.253906 C 9.601562 26.234375 9.578125 26.21875 9.578125 26.21875 C 9.574219 26.21875 9.574219 26.265625 9.578125 26.320312 C 9.582031 26.421875 9.582031 26.425781 9.542969 26.476562 C 9.511719 26.511719 9.480469 26.53125 9.433594 26.546875 C 9.398438 26.558594 9.351562 26.5625 9.324219 26.558594 C 9.300781 26.550781 9.269531 26.542969 9.257812 26.535156 C 9.242188 26.527344 9.210938 26.503906 9.15625 26.453125 L 9.15625 26.558594 C 9.15625 26.648438 9.152344 26.675781 9.121094 26.734375 C 9.089844 26.796875 9.070312 26.816406 9.007812 26.847656 C 8.957031 26.875 8.917969 26.886719 8.875 26.886719 C 8.839844 26.882812 8.789062 26.875 8.761719 26.863281 C 8.734375 26.851562 8.667969 26.804688 8.617188 26.765625 C 8.566406 26.722656 8.46875 26.628906 8.398438 26.554688 C 8.328125 26.480469 8.261719 26.398438 8.25 26.367188 C 8.238281 26.339844 8.226562 26.304688 8.226562 26.285156 C 8.226562 26.265625 8.238281 26.234375 8.253906 26.210938 C 8.265625 26.1875 8.292969 26.15625 8.308594 26.144531 C 8.324219 26.132812 8.363281 26.121094 8.390625 26.113281 C 8.425781 26.105469 8.464844 26.105469 8.492188 26.113281 C 8.515625 26.117188 8.574219 26.152344 8.613281 26.1875 C 8.65625 26.21875 8.695312 26.246094 8.699219 26.246094 C 8.707031 26.246094 8.707031 26.195312 8.699219 26.132812 C 8.691406 26.039062 8.695312 26.011719 8.714844 25.964844 C 8.734375 25.921875 8.753906 25.898438 8.796875 25.875 C 8.832031 25.859375 8.871094 25.847656 8.890625 25.847656 C 8.910156 25.847656 8.945312 25.859375 8.96875 25.875 C 8.996094 25.890625 9.035156 25.925781 9.097656 26.007812 L 9.101562 25.863281 C 9.105469 25.757812 9.113281 25.710938 9.132812 25.683594 C 9.144531 25.664062 9.175781 25.636719 9.199219 25.621094 C 9.230469 25.601562 9.257812 25.59375 9.308594 25.601562 C 9.367188 25.605469 9.382812 25.613281 9.429688 25.664062 C 9.457031 25.695312 9.488281 25.734375 9.496094 25.75 C 9.511719 25.769531 9.511719 25.746094 9.507812 25.636719 C 9.503906 25.519531 9.503906 25.496094 9.527344 25.449219 C 9.542969 25.417969 9.574219 25.382812 9.597656 25.371094 C 9.621094 25.355469 9.664062 25.34375 9.695312 25.34375 C 9.726562 25.34375 9.765625 25.355469 9.789062 25.371094 C 9.8125 25.382812 9.847656 25.421875 9.90625 25.507812 L 9.921875 25.179688 L 9.96875 25.132812 C 9.996094 25.109375 10.035156 25.085938 10.054688 25.082031 C 10.078125 25.078125 10.113281 25.078125 10.136719 25.082031 C 10.160156 25.085938 10.199219 25.109375 10.222656 25.132812 C 10.246094 25.15625 10.277344 25.191406 10.289062 25.210938 C 10.308594 25.242188 10.308594 25.238281 10.3125 25.097656 C 10.3125 24.964844 10.316406 24.945312 10.34375 24.902344 C 10.359375 24.878906 10.394531 24.847656 10.417969 24.832031 C 10.453125 24.816406 10.480469 24.8125 10.519531 24.816406 C 10.546875 24.820312 10.585938 24.832031 10.605469 24.847656 C 10.621094 24.863281 10.652344 24.894531 10.667969 24.917969 C 10.683594 24.941406 10.703125 24.964844 10.707031 24.964844 C 10.714844 24.96875 10.714844 24.917969 10.710938 24.851562 C 10.707031 24.785156 10.707031 24.710938 10.714844 24.6875 C 10.71875 24.664062 10.742188 24.628906 10.761719 24.609375 C 10.78125 24.585938 10.816406 24.566406 10.84375 24.558594 C 10.867188 24.546875 10.910156 24.546875 10.933594 24.550781 C 10.957031 24.554688 10.996094 24.578125 11.019531 24.601562 C 11.042969 24.625 11.074219 24.660156 11.085938 24.679688 C 11.109375 24.710938 11.109375 24.707031 11.105469 24.570312 C 11.105469 24.460938 11.109375 24.421875 11.125 24.390625 C 11.140625 24.363281 11.167969 24.332031 11.1875 24.320312 C 11.207031 24.300781 11.238281 24.289062 11.257812 24.28125 C 11.273438 24.277344 11.3125 24.28125 11.339844 24.292969 C 11.371094 24.300781 11.40625 24.328125 11.4375 24.367188 C 11.464844 24.398438 11.492188 24.425781 11.496094 24.425781 C 11.5 24.425781 11.5 24.371094 11.496094 24.308594 C 11.496094 24.246094 11.496094 24.175781 11.5 24.15625 C 11.503906 24.136719 11.523438 24.101562 11.539062 24.078125 C 11.5625 24.054688 11.597656 24.035156 11.628906 24.027344 C 11.664062 24.019531 11.699219 24.019531 11.730469 24.027344 C 11.761719 24.035156 11.796875 24.058594 11.824219 24.085938 C 11.847656 24.113281 11.871094 24.132812 11.875 24.132812 C 11.882812 24.132812 11.882812 24.09375 11.875 24.042969 C 11.871094 23.992188 11.871094 23.929688 11.875 23.902344 C 11.882812 23.871094 11.902344 23.832031 11.921875 23.808594 C 11.941406 23.789062 11.972656 23.765625 11.988281 23.761719 C 12.007812 23.753906 12.054688 23.75 12.097656 23.75 Z M 19.933594 23.757812 C 19.957031 23.761719 20 23.773438 20.027344 23.785156 C 20.050781 23.796875 20.082031 23.824219 20.097656 23.847656 C 20.125 23.882812 20.125 23.902344 20.121094 24.167969 L 20.164062 24.113281 C 20.1875 24.085938 20.222656 24.054688 20.242188 24.042969 C 20.261719 24.035156 20.296875 24.027344 20.320312 24.027344 C 20.339844 24.027344 20.375 24.035156 20.394531 24.042969 C 20.414062 24.054688 20.449219 24.082031 20.46875 24.105469 C 20.507812 24.152344 20.507812 24.152344 20.503906 24.296875 C 20.5 24.375 20.5 24.4375 20.503906 24.4375 C 20.507812 24.441406 20.53125 24.414062 20.550781 24.386719 C 20.574219 24.355469 20.609375 24.320312 20.636719 24.3125 C 20.65625 24.300781 20.691406 24.292969 20.710938 24.292969 C 20.730469 24.292969 20.757812 24.296875 20.773438 24.304688 C 20.789062 24.308594 20.816406 24.328125 20.832031 24.339844 C 20.847656 24.355469 20.871094 24.386719 20.882812 24.414062 C 20.898438 24.453125 20.902344 24.496094 20.894531 24.59375 C 20.890625 24.722656 20.890625 24.722656 20.910156 24.691406 C 20.925781 24.671875 20.957031 24.636719 20.976562 24.617188 C 21 24.59375 21.035156 24.570312 21.0625 24.566406 C 21.089844 24.558594 21.128906 24.558594 21.148438 24.566406 C 21.171875 24.570312 21.210938 24.59375 21.289062 24.671875 L 21.289062 24.992188 L 21.328125 24.933594 C 21.351562 24.902344 21.390625 24.867188 21.410156 24.851562 C 21.433594 24.835938 21.476562 24.824219 21.496094 24.824219 C 21.523438 24.824219 21.558594 24.832031 21.578125 24.84375 C 21.597656 24.851562 21.628906 24.875 21.648438 24.894531 C 21.679688 24.929688 21.679688 24.945312 21.695312 25.25 L 21.738281 25.191406 C 21.761719 25.15625 21.800781 25.121094 21.828125 25.109375 C 21.851562 25.097656 21.886719 25.089844 21.90625 25.089844 C 21.925781 25.089844 21.960938 25.097656 21.984375 25.105469 C 22.007812 25.117188 22.039062 25.140625 22.054688 25.164062 C 22.074219 25.195312 22.082031 25.230469 22.09375 25.515625 L 22.136719 25.457031 C 22.160156 25.421875 22.195312 25.386719 22.214844 25.371094 C 22.238281 25.355469 22.273438 25.351562 22.3125 25.351562 C 22.355469 25.355469 22.386719 25.367188 22.417969 25.390625 C 22.441406 25.414062 22.472656 25.449219 22.484375 25.476562 C 22.496094 25.507812 22.5 25.550781 22.492188 25.632812 C 22.488281 25.691406 22.488281 25.742188 22.496094 25.746094 C 22.5 25.75 22.523438 25.730469 22.546875 25.699219 C 22.566406 25.671875 22.601562 25.640625 22.621094 25.628906 C 22.640625 25.617188 22.683594 25.609375 22.714844 25.609375 C 22.746094 25.609375 22.785156 25.617188 22.800781 25.625 C 22.816406 25.632812 22.84375 25.664062 22.863281 25.6875 C 22.894531 25.730469 22.898438 25.746094 22.898438 25.878906 C 22.898438 26 22.902344 26.023438 22.914062 26 C 22.921875 25.988281 22.949219 25.957031 22.96875 25.929688 C 22.992188 25.902344 23.03125 25.875 23.054688 25.863281 C 23.085938 25.851562 23.117188 25.847656 23.140625 25.855469 C 23.164062 25.859375 23.199219 25.875 23.222656 25.886719 C 23.242188 25.898438 23.269531 25.929688 23.28125 25.957031 C 23.304688 26 23.308594 26.023438 23.292969 26.265625 L 23.351562 26.21875 C 23.382812 26.191406 23.429688 26.15625 23.453125 26.140625 C 23.484375 26.125 23.523438 26.113281 23.554688 26.113281 C 23.585938 26.113281 23.632812 26.125 23.664062 26.140625 C 23.695312 26.152344 23.734375 26.1875 23.75 26.210938 C 23.765625 26.238281 23.773438 26.269531 23.769531 26.304688 C 23.769531 26.34375 23.75 26.378906 23.707031 26.4375 C 23.675781 26.480469 23.574219 26.585938 23.488281 26.671875 C 23.390625 26.761719 23.300781 26.835938 23.261719 26.859375 C 23.214844 26.878906 23.175781 26.890625 23.121094 26.890625 C 23.0625 26.890625 23.035156 26.882812 22.984375 26.851562 C 22.949219 26.828125 22.910156 26.796875 22.894531 26.777344 C 22.878906 26.757812 22.859375 26.714844 22.851562 26.679688 C 22.84375 26.640625 22.839844 26.582031 22.84375 26.539062 C 22.847656 26.503906 22.847656 26.46875 22.847656 26.464844 C 22.84375 26.460938 22.828125 26.472656 22.8125 26.492188 C 22.792969 26.511719 22.757812 26.535156 22.730469 26.546875 C 22.707031 26.554688 22.671875 26.566406 22.65625 26.566406 C 22.636719 26.566406 22.601562 26.558594 22.570312 26.550781 C 22.539062 26.539062 22.496094 26.511719 22.410156 26.429688 L 22.433594 26.191406 L 22.394531 26.230469 C 22.375 26.253906 22.34375 26.277344 22.320312 26.285156 C 22.300781 26.292969 22.257812 26.300781 22.222656 26.300781 C 22.179688 26.300781 22.144531 26.292969 22.113281 26.269531 C 22.089844 26.253906 22.054688 26.222656 22.042969 26.203125 C 22.019531 26.167969 22.015625 26.148438 22.019531 25.921875 L 21.992188 25.960938 C 21.972656 25.980469 21.9375 26.007812 21.90625 26.023438 C 21.878906 26.035156 21.839844 26.046875 21.820312 26.046875 C 21.800781 26.046875 21.753906 26.03125 21.71875 26.011719 C 21.671875 25.992188 21.640625 25.964844 21.625 25.9375 C 21.609375 25.902344 21.605469 25.871094 21.613281 25.78125 C 21.621094 25.671875 21.621094 25.667969 21.597656 25.699219 C 21.585938 25.714844 21.558594 25.738281 21.535156 25.753906 C 21.507812 25.769531 21.472656 25.78125 21.429688 25.78125 C 21.378906 25.78125 21.347656 25.773438 21.316406 25.753906 C 21.292969 25.734375 21.257812 25.699219 21.238281 25.675781 C 21.210938 25.632812 21.207031 25.617188 21.214844 25.535156 C 21.21875 25.484375 21.21875 25.4375 21.210938 25.433594 C 21.207031 25.425781 21.195312 25.433594 21.1875 25.445312 C 21.179688 25.457031 21.152344 25.476562 21.125 25.492188 C 21.097656 25.503906 21.046875 25.515625 21.011719 25.515625 C 20.976562 25.515625 20.9375 25.503906 20.914062 25.492188 C 20.894531 25.476562 20.867188 25.453125 20.847656 25.429688 C 20.820312 25.394531 20.816406 25.375 20.816406 25.28125 C 20.816406 25.21875 20.8125 25.167969 20.8125 25.167969 C 20.804688 25.167969 20.796875 25.175781 20.785156 25.191406 C 20.773438 25.203125 20.746094 25.222656 20.726562 25.230469 C 20.707031 25.242188 20.664062 25.25 20.628906 25.25 C 20.585938 25.25 20.550781 25.238281 20.519531 25.21875 C 20.496094 25.203125 20.460938 25.171875 20.445312 25.152344 C 20.421875 25.117188 20.417969 25.097656 20.425781 24.882812 L 20.390625 24.921875 C 20.375 24.941406 20.34375 24.964844 20.324219 24.96875 C 20.308594 24.976562 20.269531 24.984375 20.238281 24.984375 C 20.210938 24.984375 20.160156 24.972656 20.132812 24.957031 C 20.097656 24.9375 20.070312 24.910156 20.050781 24.875 C 20.03125 24.835938 20.023438 24.796875 20.023438 24.746094 C 20.027344 24.707031 20.027344 24.671875 20.035156 24.664062 C 20.035156 24.65625 20.035156 24.648438 20.027344 24.644531 C 20.019531 24.640625 20.007812 24.648438 19.996094 24.660156 C 19.988281 24.671875 19.960938 24.691406 19.9375 24.699219 C 19.914062 24.707031 19.875 24.71875 19.851562 24.71875 C 19.828125 24.71875 19.785156 24.703125 19.753906 24.6875 C 19.726562 24.671875 19.6875 24.632812 19.671875 24.605469 C 19.640625 24.554688 19.640625 24.546875 19.65625 24.363281 C 19.664062 24.261719 19.683594 24.105469 19.703125 24.019531 C 19.726562 23.90625 19.742188 23.847656 19.765625 23.816406 C 19.785156 23.792969 19.820312 23.769531 19.84375 23.761719 C 19.867188 23.753906 19.90625 23.753906 19.933594 23.757812 Z M 19.933594 23.757812 "/>
</g>
</svg>
