<?xml version="1.0" encoding="UTF-8"?>
<svg xmlns="http://www.w3.org/2000/svg" xmlns:xlink="http://www.w3.org/1999/xlink" width="32px" height="32px" viewBox="0 0 32 19" version="1.1">
<g id="surface1">
<path style=" stroke:none;fill-rule:nonzero;fill:rgb(64.313725%,66.27451%,67.843137%);fill-opacity:1;" d="M 31.925781 5.550781 C 31.488281 2.53125 28.816406 1.59375 27.214844 1.300781 L 28.582031 0.40625 C 28.582031 0.40625 21.40625 -1.128906 12.125 1.765625 C 3.644531 4.410156 -0.632812 8.558594 0.0742188 13.445312 C 0.515625 16.46875 3.1875 17.40625 4.792969 17.699219 L 3.417969 18.589844 C 3.417969 18.589844 10.597656 20.132812 19.878906 17.238281 C 28.359375 14.585938 32.636719 10.445312 31.925781 5.550781 Z M 31.925781 5.550781 "/>
<path style=" stroke:none;fill-rule:nonzero;fill:rgb(100%,100%,100%);fill-opacity:1;" d="M 31.5 5.683594 C 30.921875 1.695312 25.929688 1.625 25.929688 1.625 L 27.371094 0.6875 C 27.371094 0.6875 20.5625 -0.402344 12.191406 2.203125 C 4.800781 4.511719 -0.226562 8.304688 0.503906 13.3125 C 1.082031 17.300781 6.070312 17.371094 6.070312 17.371094 L 4.632812 18.308594 C 4.632812 18.308594 11.441406 19.398438 19.8125 16.792969 C 27.203125 14.484375 32.230469 10.695312 31.5 5.683594 Z M 31.5 5.683594 "/>
<path style=" stroke:none;fill-rule:nonzero;fill:rgb(80.784314%,6.666667%,14.901961%);fill-opacity:1;" d="M 30.726562 5.925781 C 29.984375 0.828125 21.992188 1.910156 17.863281 3.199219 C 16.617188 3.578125 15.394531 4.042969 14.210938 4.589844 C 21.695312 1.941406 26.949219 3.828125 26.949219 3.828125 C 24.460938 3.65625 22.128906 4.453125 22.128906 4.453125 C 22.128906 4.453125 24.640625 4.953125 24.96875 7.253906 C 25.410156 10.285156 22.792969 13.765625 14.71875 16.28125 C 12.089844 17.105469 9.371094 17.636719 6.621094 17.871094 C 6.621094 17.871094 11.84375 18.628906 19.722656 16.175781 C 27.015625 13.898438 31.351562 10.226562 30.726562 5.925781 Z M 30.726562 5.925781 "/>
<path style=" stroke:none;fill-rule:nonzero;fill:rgb(80.784314%,6.666667%,14.901961%);fill-opacity:1;" d="M 16.011719 12.457031 C 18.25 11.757812 20.15625 10.71875 21.175781 9.726562 C 21.742188 9.175781 22.039062 8.640625 21.976562 8.183594 C 21.949219 8.011719 21.871094 7.855469 21.75 7.730469 C 20.96875 6.894531 18.347656 6.902344 15.339844 7.839844 C 11.867188 8.929688 9.195312 10.839844 9.382812 12.109375 C 9.5625 13.390625 12.53125 13.535156 16.011719 12.457031 Z M 16.011719 12.457031 "/>
<path style=" stroke:none;fill-rule:nonzero;fill:rgb(6.666667%,6.666667%,6.666667%);fill-opacity:1;" d="M 15.707031 11.070312 C 17.160156 10.617188 18.28125 9.851562 18.210938 9.355469 C 18.140625 8.863281 16.902344 8.839844 15.449219 9.285156 C 14.003906 9.742188 12.882812 10.503906 12.953125 11 C 13.023438 11.492188 14.261719 11.523438 15.707031 11.070312 Z M 15.707031 11.070312 "/>
<path style=" stroke:none;fill-rule:nonzero;fill:rgb(6.666667%,6.666667%,6.666667%);fill-opacity:1;" d="M 5.058594 15.167969 C 7.542969 15.339844 9.878906 14.550781 9.878906 14.550781 C 9.878906 14.550781 7.371094 14.046875 7.035156 11.746094 C 6.59375 8.710938 9.214844 5.230469 17.28125 2.714844 C 19.914062 1.890625 22.632812 1.359375 25.382812 1.128906 C 25.382812 1.128906 20.160156 0.367188 12.28125 2.824219 C 4.988281 5.105469 0.65625 8.769531 1.277344 13.070312 C 2.019531 18.167969 10.007812 17.085938 14.140625 15.796875 C 15.390625 15.417969 16.613281 14.953125 17.800781 14.410156 C 10.304688 17.058594 5.058594 15.167969 5.058594 15.167969 Z M 5.058594 15.167969 "/>
<path style=" stroke:none;fill-rule:nonzero;fill:rgb(6.666667%,6.666667%,6.666667%);fill-opacity:1;" d="M 14.867188 5.933594 C 12.101562 6.792969 10.652344 7.890625 10.152344 9.035156 L 9.144531 11.335938 C 9.144531 11.335938 10.371094 9.175781 15.3125 7.632812 C 19.039062 6.46875 21.316406 6.769531 21.75 7.730469 C 21.867188 7.859375 21.945312 8.015625 21.976562 8.1875 C 22.039062 8.640625 21.742188 9.175781 21.175781 9.726562 C 20.238281 11.019531 18.457031 12.414062 16.894531 13.359375 C 18.140625 12.96875 23.757812 10.34375 23.347656 7.539062 C 22.96875 4.933594 19.691406 4.429688 14.867188 5.933594 Z M 14.867188 5.933594 "/>
</g>
</svg>
