<?xml version="1.0" encoding="UTF-8"?>
<svg xmlns="http://www.w3.org/2000/svg" xmlns:xlink="http://www.w3.org/1999/xlink" width="32px" height="32px" viewBox="0 0 32 27" version="1.1">
<g id="surface1">
<path style=" stroke:none;fill-rule:nonzero;fill:rgb(64.313725%,66.27451%,67.843137%);fill-opacity:1;" d="M 25.773438 19.398438 L 32.003906 5.429688 C 28.898438 7.175781 25.675781 8.710938 22.351562 10.015625 L 31.195312 3.613281 L 25.625 4.542969 C 24.832031 4.078125 22.0625 2.679688 17.589844 2.679688 C 17.589844 2.679688 17.195312 2.691406 16.859375 2.699219 C 16.699219 2.226562 15.917969 0 15.917969 0 L 14.492188 2.882812 C 6.34375 3.902344 0 8.59375 0 13.660156 C 0 15.925781 0.992188 18.902344 5.578125 20.511719 L 3.265625 26.085938 L 9.386719 21.382812 C 10.828125 21.566406 12.28125 21.652344 13.734375 21.644531 C 15.539062 21.644531 17.34375 21.511719 19.125 21.242188 L 25.820312 26.980469 L 23.535156 20.253906 C 24.296875 20.011719 25.042969 19.726562 25.773438 19.398438 Z M 25.773438 19.398438 "/>
<path style=" stroke:none;fill-rule:nonzero;fill:rgb(0%,14.901961%,32.941176%);fill-opacity:1;" d="M 30.855469 6.695312 C 30.855469 6.695312 25.605469 9.671875 19.757812 11.640625 L 19.550781 11.085938 L 29.582031 4.308594 L 18.433594 7.089844 L 24.671875 4.636719 C 24.671875 4.636719 22.03125 3.203125 17.589844 3.203125 C 17.222656 3.203125 16.847656 3.210938 16.480469 3.226562 L 15.832031 1.378906 L 12.367188 8.394531 L 7.066406 9.859375 L 11.988281 7.898438 L 13.601562 4.695312 L 13.9375 4.019531 L 14.226562 3.441406 C 6.828125 4.472656 0.535156 8.769531 0.535156 13.660156 C 0.535156 16.402344 2.085938 18.914062 6.320312 20.203125 L 4.132812 24.855469 L 9.230469 20.828125 C 10.722656 21.03125 12.230469 21.125 13.734375 21.117188 C 15.597656 21.117188 17.453125 20.976562 19.292969 20.695312 L 24.949219 25.589844 L 22.832031 19.921875 C 23.699219 19.6875 24.542969 19.382812 25.359375 19.015625 Z M 30.855469 6.695312 "/>
<path style=" stroke:none;fill-rule:nonzero;fill:rgb(80.784314%,6.666667%,14.901961%);fill-opacity:1;" d="M 16.839844 17.675781 C 15.546875 17.449219 14.269531 17.148438 13.011719 16.78125 C 13.011719 16.78125 14.117188 16.367188 15.75 15.636719 C 17.207031 14.980469 19.085938 14.082031 20.976562 13 C 22.507812 12.148438 23.964844 11.179688 25.335938 10.105469 C 25.335938 10.105469 17.671875 14.183594 11.316406 14.183594 C 7.042969 14.183594 5.066406 12.246094 5.066406 10.953125 C 5.066406 7.089844 12.039062 5.097656 13.601562 4.695312 L 13.9375 4.019531 C 7.234375 5.3125 4.746094 7.871094 4.746094 7.871094 C 4.746094 7.871094 2.503906 9.191406 1.652344 11.648438 C 1.445312 12.257812 1.335938 12.898438 1.335938 13.539062 C 1.335938 16.492188 3.316406 20.355469 13.492188 20.355469 C 20.714844 20.355469 24.554688 18.488281 24.554688 18.488281 C 23.378906 18.453125 22.203125 18.378906 21.035156 18.265625 C 19.628906 18.128906 18.226562 17.925781 16.839844 17.675781 Z M 22.84375 4.59375 C 22.84375 4.59375 20.746094 3.597656 16.652344 3.726562 L 16.839844 4.265625 C 18.847656 4.089844 20.871094 4.199219 22.84375 4.59375 Z M 22.84375 4.59375 "/>
<path style=" stroke:none;fill-rule:nonzero;fill:rgb(64.313725%,66.27451%,67.843137%);fill-opacity:1;" d="M 9.589844 13.25 L 10.023438 12.320312 L 7.46875 11.632812 C 7.46875 11.632812 6.738281 12.898438 9.589844 13.25 Z M 9.589844 13.25 "/>
<path style=" stroke:none;fill-rule:nonzero;fill:rgb(64.313725%,66.27451%,67.843137%);fill-opacity:1;" d="M 7.359375 20.519531 C 7.300781 20.496094 7.238281 20.480469 7.175781 20.476562 C 7.125 20.46875 7.074219 20.460938 7.015625 20.457031 L 5.988281 22.464844 L 7.921875 21.058594 C 7.796875 20.839844 7.65625 20.621094 7.359375 20.519531 Z M 22.015625 20.410156 C 21.824219 20.476562 21.640625 20.566406 21.476562 20.683594 C 21.320312 20.808594 21.207031 20.976562 21.152344 21.167969 C 21.125 21.25 21.105469 21.34375 21.082031 21.4375 L 22.972656 22.898438 Z M 25.226562 6.324219 L 17.074219 8.25 L 15.640625 3.875 L 13.367188 9.167969 L 7.175781 10.679688 L 11.507812 11.710938 L 10.675781 13.328125 L 10.910156 13.332031 C 11.011719 13.332031 11.113281 13.339844 11.230469 13.339844 C 11.527344 13.339844 11.832031 13.328125 12.136719 13.308594 C 12.917969 13.261719 13.699219 13.167969 14.472656 13.03125 C 15.078125 12.925781 15.691406 12.792969 16.3125 12.640625 C 17.125 12.445312 17.945312 12.214844 18.757812 11.960938 L 18.285156 10.746094 L 25.230469 6.324219 Z M 25.226562 6.324219 "/>
<path style=" stroke:none;fill-rule:nonzero;fill:rgb(100%,100%,100%);fill-opacity:1;" d="M 10.023438 16.351562 C 11.957031 16.347656 13.878906 16.105469 15.75 15.636719 C 17.207031 14.980469 19.085938 14.082031 20.976562 13.007812 C 19.390625 13.589844 14.375 15.335938 10.816406 15.335938 C 5.429688 15.335938 3.738281 12.289062 3.738281 10.570312 C 3.738281 9.035156 4.75 7.871094 4.75 7.871094 C 4.75 7.871094 2.886719 9.136719 2.886719 11.246094 C 2.886719 14.71875 6.433594 16.351562 10.023438 16.351562 Z M 10.023438 16.351562 "/>
<path style=" stroke:none;fill-rule:nonzero;fill:rgb(100%,100%,100%);fill-opacity:1;" d="M 24.707031 13.804688 C 24.386719 13.136719 23.4375 13.019531 22.585938 13.546875 C 21.738281 14.070312 21.3125 15.03125 21.636719 15.699219 C 21.964844 16.367188 22.90625 16.480469 23.761719 15.957031 C 24.613281 15.429688 25.03125 14.472656 24.714844 13.804688 Z M 12.101562 17.976562 C 2.078125 17.976562 1.632812 12.773438 1.652344 11.648438 C 1.445312 12.257812 1.335938 12.898438 1.335938 13.539062 C 1.335938 13.539062 1.4375 19.296875 12.890625 19.296875 C 16.613281 19.296875 19.972656 18.53125 21.035156 18.265625 C 19.628906 18.128906 18.226562 17.925781 16.839844 17.675781 C 15.269531 17.890625 13.6875 17.992188 12.101562 17.976562 Z M 12.101562 17.976562 "/>
<path style=" stroke:none;fill-rule:nonzero;fill:rgb(100%,100%,100%);fill-opacity:1;" d="M 23.902344 6.996094 L 14.472656 9.789062 C 14.472656 9.789062 17.9375 10.527344 18.039062 10.539062 C 18.152344 10.550781 23.902344 6.996094 23.902344 6.996094 Z M 15.640625 4.617188 L 14.472656 9.789062 L 16.761719 8.335938 Z M 22.210938 16.875 L 21.976562 17.152344 L 21.617188 17.191406 L 21.835938 17.316406 L 21.605469 17.59375 L 21.992188 17.402344 L 22.257812 17.59375 L 22.21875 17.289062 L 22.570312 17.101562 L 22.210938 17.128906 Z M 26.484375 12.722656 L 26.472656 12.390625 L 26.167969 12.761719 L 25.683594 12.816406 L 25.980469 12.980469 L 25.683594 13.359375 L 26.191406 13.101562 L 26.546875 13.347656 L 26.484375 12.9375 L 26.960938 12.671875 Z M 25.691406 14.90625 L 25.683594 14.597656 L 25.398438 14.9375 L 24.953125 14.996094 L 25.230469 15.140625 L 24.953125 15.484375 L 25.425781 15.246094 L 25.753906 15.472656 L 25.695312 15.101562 L 26.128906 14.855469 Z M 24.765625 17.121094 L 24.765625 16.78125 L 24.449219 17.152344 L 23.964844 17.203125 L 24.261719 17.367188 L 23.953125 17.738281 L 24.46875 17.492188 L 24.820312 17.742188 L 24.773438 17.335938 L 25.25 17.078125 Z M 27.878906 10.125 L 27.289062 10.1875 L 27.238281 9.765625 L 26.902344 10.230469 L 26.308594 10.304688 L 26.703125 10.507812 L 26.375 10.984375 L 26.980469 10.660156 L 27.445312 10.96875 L 27.324219 10.457031 Z M 23.910156 12.117188 L 23.675781 12.527344 L 24.152344 12.214844 L 24.578125 12.425781 L 24.425781 12.03125 L 24.863281 11.722656 L 24.375 11.816406 L 24.28125 11.484375 L 24.042969 11.886719 L 23.558594 11.988281 Z M 21.410156 13.558594 L 21.402344 13.28125 L 21.152344 13.589844 L 20.753906 13.640625 L 20.996094 13.773438 L 20.753906 14.082031 L 21.171875 13.867188 L 21.46875 14.074219 L 21.417969 13.734375 L 21.804688 13.523438 L 21.410156 13.566406 Z M 19.898438 16.90625 L 19.898438 16.6875 L 19.695312 16.925781 L 19.378906 16.964844 L 19.570312 17.070312 L 19.371094 17.308594 L 19.710938 17.144531 L 19.933594 17.316406 L 19.898438 17.046875 L 20.210938 16.882812 Z M 18.066406 16.660156 L 18.066406 16.441406 L 17.867188 16.679688 L 17.550781 16.710938 L 17.742188 16.820312 L 17.542969 17.058594 L 17.878906 16.902344 L 18.105469 17.0625 L 18.074219 16.800781 L 18.382812 16.628906 Z M 20.621094 15.308594 L 20.617188 15.089844 L 20.417969 15.328125 L 20.101562 15.371094 L 20.292969 15.472656 L 20.101562 15.71875 L 20.429688 15.546875 L 20.660156 15.707031 L 20.628906 15.449219 L 20.933594 15.269531 Z M 18.769531 15.113281 L 18.765625 14.875 L 18.542969 15.140625 L 18.195312 15.183594 L 18.414062 15.296875 L 18.195312 15.566406 L 18.570312 15.382812 L 18.816406 15.5625 L 18.777344 15.265625 L 19.113281 15.074219 Z M 16.226562 16.289062 L 16.222656 16.050781 L 16.007812 16.308594 L 15.679688 16.351562 L 15.886719 16.460938 L 15.679688 16.726562 L 16.035156 16.542969 L 16.273438 16.710938 L 16.226562 16.433594 L 16.554688 16.253906 Z M 16.226562 16.289062 "/>
<path style=" stroke:none;fill-rule:nonzero;fill:rgb(100%,100%,100%);fill-opacity:1;" d="M 10.910156 13.332031 C 11.011719 13.332031 11.113281 13.339844 11.226562 13.339844 C 11.523438 13.339844 11.832031 13.328125 12.136719 13.308594 L 14.472656 9.785156 L 11.734375 11.753906 Z M 16.3125 12.648438 L 14.472656 9.785156 L 14.472656 13.03125 C 15.089844 12.925781 15.703125 12.792969 16.3125 12.648438 Z M 16.3125 12.648438 "/>
<path style=" stroke:none;fill-rule:nonzero;fill:rgb(100%,100%,100%);fill-opacity:1;" d="M 6.398438 21.972656 L 7.359375 20.519531 C 7.300781 20.496094 7.238281 20.484375 7.175781 20.476562 Z M 21.152344 21.167969 L 22.410156 22.136719 L 21.476562 20.683594 C 21.320312 20.8125 21.210938 20.980469 21.152344 21.167969 Z M 13.484375 9.261719 L 8.398438 10.597656 L 14.472656 9.785156 L 13.484375 9.253906 Z M 13.484375 9.261719 "/>
<path style=" stroke:none;fill-rule:nonzero;fill:rgb(80.784314%,6.666667%,14.901961%);fill-opacity:1;" d="M 22.714844 13.734375 C 22.023438 14.15625 21.664062 14.957031 21.90625 15.511719 C 22.144531 16.0625 22.902344 16.171875 23.59375 15.742188 C 24.28125 15.320312 24.644531 14.523438 24.398438 13.96875 C 24.152344 13.414062 23.398438 13.3125 22.714844 13.734375 Z M 22.714844 13.734375 "/>
</g>
</svg>
