<?xml version="1.0" encoding="UTF-8"?>
<svg xmlns="http://www.w3.org/2000/svg" xmlns:xlink="http://www.w3.org/1999/xlink" width="32px" height="32px" viewBox="0 0 32 21" version="1.1">
<g id="surface1">
<path style=" stroke:none;fill-rule:nonzero;fill:rgb(100%,100%,100%);fill-opacity:1;" d="M 28.417969 10.351562 L 30.707031 8.046875 L 29.402344 2.304688 L 23.628906 0.65625 L 23.109375 1.117188 C 21.175781 0.570312 17.695312 -0.0078125 15.375 0 C 6.777344 0.0117188 0.0273438 4.597656 0 10.4375 C 0 15.433594 4.492188 20.988281 15.453125 20.988281 C 24.140625 20.988281 31.949219 15.4375 31.949219 15.4375 Z M 28.417969 10.351562 "/>
<path style=" stroke:none;fill-rule:nonzero;fill:rgb(9.803922%,12.941176%,40.784314%);fill-opacity:1;" d="M 27.652344 10.285156 L 30.054688 7.867188 L 28.894531 2.757812 L 23.785156 1.296875 L 23.261719 1.769531 C 21.535156 1.222656 17.851562 0.570312 15.382812 0.570312 C 6.992188 0.585938 0.617188 5 0.59375 10.4375 C 0.566406 16.148438 6.339844 20.414062 15.453125 20.414062 C 21.832031 20.414062 28.367188 17.152344 31.125 15.292969 Z M 27.652344 10.285156 "/>
<path style=" stroke:none;fill-rule:nonzero;fill:rgb(100%,100%,100%);fill-opacity:1;" d="M 12.171875 6.960938 L 12.171875 14.019531 C 10.960938 14.019531 7.109375 12.65625 7.109375 10.511719 C 7.109375 7.867188 11.050781 7.132812 12.171875 6.960938 Z M 17.152344 11.371094 L 17.152344 14.148438 C 16.191406 14.242188 15.21875 14.261719 14.253906 14.203125 L 14.253906 11.371094 Z M 14.253906 9.550781 L 14.253906 6.796875 C 15.222656 6.757812 16.191406 6.785156 17.152344 6.886719 L 17.152344 9.550781 Z M 26.753906 10.816406 C 26.753906 10.816406 23.140625 13.191406 19.144531 13.898438 L 19.144531 7.175781 C 23.480469 7.699219 26.046875 10.414062 26.046875 10.414062 L 28.933594 7.554688 L 28.003906 3.542969 L 24.0625 2.433594 L 23.558594 2.953125 C 21.960938 2.355469 18.65625 1.574219 14.996094 1.574219 C 7.667969 1.574219 1.675781 5.5625 1.667969 10.476562 C 1.65625 15.265625 6.742188 19.40625 14.945312 19.40625 C 22.515625 19.40625 27.988281 15.945312 29.699219 15.019531 Z M 26.753906 10.816406 "/>
<path style=" stroke:none;fill-rule:nonzero;fill:rgb(100%,100%,100%);fill-opacity:1;" d="M 15 12.226562 L 16.394531 12.226562 L 16.394531 13.355469 L 15 13.355469 Z M 15.035156 8.746094 L 16.386719 8.746094 L 16.386719 7.664062 L 15.035156 7.613281 Z M 24.875 10.71875 C 23.539062 9.589844 21.941406 8.789062 20.214844 8.382812 L 20.214844 12.621094 C 21.722656 12.21875 23.371094 11.539062 24.875 10.71875 Z M 11.109375 12.78125 L 11.109375 8.1875 C 9.730469 8.574219 8.175781 9.328125 8.175781 10.511719 C 8.175781 11.328125 9.484375 12.3125 11.109375 12.78125 Z M 11.109375 12.78125 "/>
<path style=" stroke:none;fill-rule:nonzero;fill:rgb(68.627451%,11.764706%,17.647059%);fill-opacity:1;" d="M 26.550781 11.816406 C 21.8125 14.480469 18.65625 15 14.816406 14.964844 C 9.410156 14.921875 6.328125 12.84375 6.328125 10.371094 C 6.328125 8.144531 9.152344 6.019531 14.925781 6.019531 C 18.804688 6.019531 23.480469 7.019531 25.980469 9.382812 L 28.0625 7.347656 L 27.355469 4.121094 L 24.289062 3.261719 L 23.726562 3.863281 C 22.046875 3.21875 19.203125 2.324219 14.835938 2.324219 C 8.234375 2.324219 2.449219 5.984375 2.449219 10.402344 C 2.449219 15.023438 7.488281 18.648438 14.632812 18.648438 C 21.890625 18.648438 26.144531 16.027344 28.597656 14.789062 Z M 26.550781 11.816406 "/>
</g>
</svg>
