<?xml version="1.0" encoding="UTF-8"?>
<svg xmlns="http://www.w3.org/2000/svg" xmlns:xlink="http://www.w3.org/1999/xlink" width="32px" height="32px" viewBox="0 0 32 32" version="1.1">
<g id="surface1">
<path style=" stroke:none;fill-rule:nonzero;fill:rgb(100%,100%,100%);fill-opacity:1;" d="M 31.992188 4.425781 C 31.992188 0 26.894531 0 26.207031 0 L 24.972656 0 C 24.972656 0 26.714844 1.714844 26.714844 2.332031 C 26.714844 2.472656 26.597656 2.585938 26.457031 2.585938 L 22.015625 2.585938 C 21.871094 2.585938 21.753906 2.472656 21.753906 2.332031 C 21.753906 1.714844 23.5 0 23.5 0 C 21.804688 0 19.378906 0.371094 17.691406 1.542969 C 17.21875 1.496094 16.738281 1.472656 16.261719 1.472656 C 11.710938 1.472656 7.441406 3.605469 4.773438 7.207031 C 2.105469 10.804688 1.367188 15.4375 2.78125 19.660156 C 1.734375 20.914062 0 23.476562 0 26.746094 C 0 29.574219 1.429688 31.976562 1.429688 31.976562 C 1.429688 31.976562 3.972656 28.335938 9.671875 28.335938 C 9.945312 28.335938 10.183594 28.152344 10.238281 27.890625 C 15.820312 30.445312 22.445312 29.1875 26.644531 24.777344 C 30.839844 20.371094 31.644531 13.820312 28.640625 8.5625 C 30.210938 8.09375 31.992188 6.871094 31.992188 4.425781 Z M 31.992188 4.425781 "/>
<path style=" stroke:none;fill-rule:nonzero;fill:rgb(0.392157%,0.392157%,0.392157%);fill-opacity:1;" d="M 31.40625 4.425781 C 31.40625 1.675781 28.824219 0.476562 26.230469 0.570312 C 26.230469 0.570312 27.300781 1.582031 27.300781 2.332031 C 27.300781 2.730469 26.996094 3.15625 26.144531 3.15625 L 22.300781 3.15625 C 21.4375 3.15625 20.921875 2.867188 20.921875 2.378906 C 20.921875 1.582031 22.203125 0.652344 22.203125 0.652344 C 22.203125 0.652344 19.601562 0.804688 17.863281 2.136719 C 17.332031 2.074219 16.796875 2.042969 16.261719 2.042969 C 11.347656 2.042969 6.816406 4.632812 4.40625 8.820312 C 2 13.007812 2.085938 18.136719 4.640625 22.242188 C 4.425781 22.359375 4.1875 22.417969 3.945312 22.417969 C 2.992188 22.417969 2.984375 20.355469 2.984375 20.355469 C 2.984375 20.355469 0.585938 23.089844 0.585938 26.746094 C 0.585938 29 1.558594 30.9375 1.558594 30.9375 C 1.558594 30.9375 4.253906 27.761719 9.671875 27.761719 C 9.671875 27.761719 7.101562 26.753906 7.101562 25.535156 C 7.117188 25.433594 7.148438 25.335938 7.199219 25.246094 C 12.265625 29.671875 19.898438 29.765625 25.074219 25.460938 C 30.25 21.15625 31.378906 13.78125 27.722656 8.183594 C 29.03125 7.980469 31.40625 7.101562 31.40625 4.425781 Z M 4.089844 15.335938 C 4.089844 8.765625 9.539062 3.441406 16.261719 3.441406 C 16.417969 3.441406 16.574219 3.445312 16.730469 3.453125 C 16.457031 3.984375 16.320312 4.574219 16.328125 5.171875 C 16.328125 8.226562 19.792969 8.257812 19.792969 8.257812 L 18.101562 12.621094 L 15.164062 8.988281 C 14.121094 7.695312 13.042969 7.425781 12.320312 7.425781 C 10.84375 7.425781 9.699219 8.445312 8.921875 10.460938 L 5.152344 20.191406 C 4.453125 18.664062 4.089844 17.007812 4.089844 15.335938 Z M 5.609375 21.089844 C 6.683594 20.742188 7.804688 20.5625 8.933594 20.546875 C 10.03125 20.558594 11.125 20.699219 12.191406 20.960938 L 13.6875 17.09375 L 15.105469 19.613281 L 13.820312 20.925781 C 13.039062 21.726562 11.089844 21.226562 8.933594 21.226562 C 7.441406 21.226562 6.53125 21.390625 5.917969 21.601562 C 5.808594 21.433594 5.707031 21.261719 5.609375 21.089844 Z M 28.429688 15.335938 C 28.429688 19.894531 25.761719 24.054688 21.5625 26.042969 C 17.359375 28.027344 12.367188 27.492188 8.707031 24.65625 C 10.714844 24.742188 11.808594 26.007812 14.632812 26.007812 C 18.777344 26.007812 21.207031 23.554688 22.097656 21.253906 L 26.734375 9.28125 C 27.847656 11.113281 28.433594 13.203125 28.429688 15.335938 Z M 28.429688 15.335938 "/>
<path style=" stroke:none;fill-rule:nonzero;fill:rgb(78.431373%,6.27451%,18.039216%);fill-opacity:1;" d="M 27.382812 1.15625 C 27.695312 1.472656 27.875 1.894531 27.886719 2.332031 C 27.886719 3.046875 27.316406 3.726562 26.144531 3.726562 L 22.300781 3.726562 C 20.808594 3.726562 20.335938 2.980469 20.335938 2.378906 C 20.328125 2.039062 20.453125 1.707031 20.6875 1.453125 C 20.6875 1.453125 16.914062 2.171875 16.914062 5.171875 C 16.914062 7.695312 19.796875 7.6875 19.796875 7.6875 L 20.640625 7.6875 L 18.285156 13.769531 L 14.707031 9.339844 C 14.484375 9.066406 13.613281 7.996094 12.320312 7.996094 C 10.515625 7.996094 9.734375 9.972656 9.464844 10.660156 L 5.664062 20.480469 C 6.722656 20.144531 7.824219 19.976562 8.933594 19.976562 C 9.90625 19.980469 10.875 20.085938 11.828125 20.289062 L 13.589844 15.738281 L 15.824219 19.703125 L 14.242188 21.320312 C 13.199219 22.386719 11.027344 21.796875 8.933594 21.796875 C 5.027344 21.796875 5.40625 22.988281 3.945312 22.988281 C 2.910156 22.988281 2.640625 21.761719 2.640625 21.761719 C 2.640625 21.761719 1.167969 24.144531 1.167969 26.746094 C 1.1875 27.832031 1.390625 28.90625 1.773438 29.921875 C 1.773438 29.921875 4.820312 27.390625 7.886719 27.390625 C 7.886719 27.390625 6.519531 26.746094 6.519531 25.535156 C 6.519531 25.1875 6.988281 24.082031 8.496094 24.082031 C 10.835938 24.082031 11.808594 25.4375 14.632812 25.4375 C 18.585938 25.4375 20.78125 23.046875 21.550781 21.050781 L 26.726562 7.6875 C 26.726562 7.6875 30.824219 7.695312 30.824219 4.425781 C 30.824219 1.429688 27.382812 1.15625 27.382812 1.15625 Z M 27.382812 1.15625 "/>
</g>
</svg>
