<?xml version="1.0" encoding="UTF-8"?>
<svg xmlns="http://www.w3.org/2000/svg" xmlns:xlink="http://www.w3.org/1999/xlink" width="32px" height="32px" viewBox="0 0 32 18" version="1.1">
<g id="surface1">
<path style=" stroke:none;fill-rule:nonzero;fill:rgb(100%,100%,100%);fill-opacity:1;" d="M 0.359375 5.292969 L 1.34375 4.050781 C 1.394531 3.976562 1.484375 3.929688 1.574219 3.917969 L 10.847656 2.136719 C 10.71875 2.015625 10.71875 1.621094 11.101562 1.558594 C 11.167969 1.546875 12.636719 1.351562 14.339844 1.472656 L 20.542969 0.28125 C 20.617188 0.269531 20.695312 0.28125 20.773438 0.308594 L 25.324219 2.210938 C 25.378906 2.234375 25.414062 2.257812 25.441406 2.285156 L 26.171875 2.984375 L 27.335938 3.621094 C 27.421875 3.671875 27.5 3.757812 27.527344 3.867188 L 27.757812 4.910156 L 28.5 5.796875 L 29.011719 6.175781 L 30.660156 6.9375 C 30.75 6.972656 30.8125 7.046875 30.851562 7.132812 L 31.707031 9.148438 C 31.785156 9.320312 31.707031 9.480469 31.621094 9.554688 C 31.621094 9.554688 31.019531 10.128906 30.457031 11.210938 C 30.390625 11.347656 30.238281 11.417969 30.085938 11.417969 C 30.070312 11.417969 29.328125 11.394531 28.203125 11.996094 C 28.152344 12.019531 28.074219 12.046875 28.011719 12.046875 L 26.875 12.046875 C 24.035156 15.421875 19.941406 17.289062 14.390625 17.742188 C 13.96875 17.78125 13.789062 17.203125 14.199219 17.03125 L 14.773438 16.785156 C 14.644531 16.710938 14.59375 16.332031 14.902344 16.195312 C 14.953125 16.171875 20.222656 13.925781 21.757812 9.625 C 20.746094 9.824219 18.726562 10.242188 17.179688 10.730469 C 16.167969 11.050781 15.539062 11.554688 15.171875 11.972656 C 15.324219 11.910156 15.527344 11.824219 15.707031 11.824219 C 16.128906 11.824219 16.308594 12.144531 16.308594 12.144531 C 16.347656 12.132812 16.386719 12.121094 16.421875 12.121094 C 16.769531 12.121094 17.152344 12.390625 17.152344 12.792969 C 17.152344 13.433594 16.117188 14.230469 15.296875 14.574219 C 15.195312 15.066406 14.722656 15.667969 13.058594 15.667969 C 11.652344 15.667969 10.691406 15.015625 10.398438 14.796875 L 6.613281 14.144531 C 6.304688 14.097656 6.214844 13.765625 6.371094 13.566406 C 6.382812 13.554688 7.40625 12.144531 7.40625 10.695312 C 7.40625 6.789062 0.691406 5.90625 0.625 5.894531 C 0.320312 5.84375 0.179688 5.511719 0.359375 5.292969 M 0.574219 6.140625 C 0.640625 6.152344 7.113281 7.023438 7.113281 10.683594 C 7.113281 12.019531 6.125 13.382812 6.125 13.394531 C 5.871094 13.738281 6.023438 14.304688 6.550781 14.390625 L 10.269531 15.042969 C 10.667969 15.335938 11.640625 15.925781 13.035156 15.925781 C 14.734375 15.925781 15.324219 15.3125 15.503906 14.746094 C 16.335938 14.378906 17.410156 13.566406 17.410156 12.78125 C 17.410156 12.230469 16.898438 11.847656 16.410156 11.847656 C 16.296875 11.738281 16.15625 11.652344 16 11.605469 C 16.386719 11.332031 16.808594 11.125 17.253906 10.988281 C 18.558594 10.570312 20.210938 10.214844 21.308594 9.996094 C 19.621094 13.886719 14.824219 15.9375 14.785156 15.960938 C 14.300781 16.171875 14.402344 16.664062 14.402344 16.664062 L 14.082031 16.796875 C 13.40625 17.09375 13.660156 18.074219 14.402344 18.011719 C 19.980469 17.558594 24.097656 15.691406 27 12.316406 L 28.023438 12.316406 C 28.140625 12.316406 28.242188 12.292969 28.34375 12.242188 C 29.378906 11.691406 30.070312 11.703125 30.085938 11.703125 C 30.351562 11.714844 30.597656 11.578125 30.710938 11.347656 C 31.234375 10.3125 31.8125 9.761719 31.8125 9.75 C 32.015625 9.554688 32.054688 9.28125 31.964844 9.050781 L 31.109375 7.035156 C 31.042969 6.886719 30.929688 6.765625 30.789062 6.703125 L 29.164062 5.957031 L 28.703125 5.613281 L 28.011719 4.789062 L 27.78125 3.792969 C 27.742188 3.621094 27.628906 3.460938 27.460938 3.375 L 26.335938 2.761719 L 25.632812 2.085938 C 25.570312 2.027344 25.503906 1.988281 25.429688 1.953125 L 20.875 0.0507812 C 20.746094 0 20.617188 -0.0117188 20.476562 0.0117188 L 14.3125 1.191406 C 12.675781 1.066406 11.230469 1.265625 11.0625 1.277344 C 10.550781 1.363281 10.476562 1.792969 10.5 1.914062 C 9.9375 2.027344 1.523438 3.632812 1.523438 3.632812 C 1.367188 3.660156 1.214844 3.746094 1.125 3.867188 L 0.140625 5.132812 C -0.179688 5.527344 0.0898438 6.078125 0.574219 6.140625 "/>
<path style=" stroke:none;fill-rule:nonzero;fill:rgb(100%,100%,100%);fill-opacity:1;" d="M 28.871094 7.648438 C 28.871094 7.648438 29.890625 8.277344 30.351562 7.476562 L 28.78125 6.765625 C 28.34375 7.011719 27.910156 7.132812 27.511719 7.195312 C 28.28125 7.390625 28.871094 7.648438 28.871094 7.648438 M 10.246094 4.664062 C 10.246094 4.664062 9.03125 5.144531 8.1875 6.347656 C 8.609375 6.238281 9.019531 6.140625 9.441406 6.042969 C 9.824219 5.21875 10.246094 4.664062 10.246094 4.664062 "/>
<path style=" stroke:none;fill-rule:nonzero;fill:rgb(100%,100%,100%);fill-opacity:1;" d="M 26.628906 4.542969 L 26.414062 5.339844 C 26.414062 4.738281 26.042969 4.382812 24.941406 3.769531 Z M 17.945312 4.394531 C 17.039062 4.433594 16.320312 4.75 15.769531 5.144531 C 16.511719 5.097656 17.242188 5.082031 17.984375 5.082031 C 18.355469 4.617188 18.574219 4.101562 18.574219 3.5625 C 18.574219 2.628906 18.074219 2.085938 18.074219 2.085938 L 20.476562 1.570312 L 21.21875 1.929688 C 21.21875 1.929688 19.453125 2.578125 19.453125 4.421875 C 19.453125 4.679688 19.492188 4.925781 19.558594 5.132812 C 20.824219 5.195312 22.140625 5.328125 23.472656 5.5625 C 23.472656 5.5625 23.90625 6.570312 25.097656 6.570312 C 25.671875 6.570312 26.105469 6.261719 26.105469 6.261719 C 27.398438 7.195312 28.574219 6.679688 28.574219 6.679688 L 28.128906 6.324219 L 27.707031 6.542969 L 27.960938 6.164062 L 27.792969 5.992188 L 27.230469 6.273438 L 27.589844 5.757812 L 27.460938 5.625 L 26.976562 5.820312 L 27.257812 5.367188 L 27.066406 5.082031 C 26.886719 5.84375 26.183594 5.929688 25.570312 5.894531 L 25.542969 5.5625 C 25.273438 5.722656 24.941406 5.734375 24.671875 5.585938 C 24.40625 5.441406 24.226562 5.167969 24.226562 4.863281 C 24.226562 4.605469 22.882812 3.449219 22.882812 3.449219 L 24.609375 3.964844 C 26.054688 4.394531 25.992188 5.082031 26.015625 5.464844 C 26.261719 5.5625 26.808594 5.648438 27.054688 5.097656 L 26.875 4.1875 L 25.722656 3.648438 L 24.929688 2.933594 L 20.503906 1.214844 L 16.140625 2.148438 C 17.164062 2.382812 18.023438 2.898438 18.023438 2.898438 C 18.023438 2.898438 18.378906 3.597656 17.945312 4.394531 M 23.226562 7.304688 C 22.769531 7.527344 22.359375 7.832031 21.898438 8.214844 L 22.421875 7.269531 C 22.421875 7.269531 21.027344 7.21875 19.699219 7.246094 L 18.828125 8.164062 C 18.496094 8.066406 18.148438 8.019531 17.804688 8.003906 C 17.78125 7.539062 17.972656 7.011719 18.394531 6.507812 C 17.832031 6.914062 17.484375 7.441406 17.421875 8.019531 C 17.179688 8.03125 16.933594 8.078125 16.703125 8.140625 C 16.589844 7.761719 16.601562 7.28125 16.78125 6.765625 C 16.449219 7.246094 16.320312 7.761719 16.386719 8.238281 C 16.15625 8.324219 15.925781 8.421875 15.71875 8.558594 C 15.515625 8.265625 15.386719 7.859375 15.375 7.378906 C 15.257812 7.871094 15.285156 8.324219 15.464844 8.71875 C 14.722656 9.246094 14.390625 9.898438 14.390625 9.898438 C 12.035156 9.492188 10.605469 11.382812 10.550781 12.707031 C 10.398438 11.789062 10.707031 10.15625 12.613281 9.382812 L 13.238281 7.96875 C 13.277344 7.882812 13.328125 7.796875 13.390625 7.722656 C 11.292969 8.078125 9.976562 8.878906 9.976562 8.878906 C 9.976562 8.878906 9.402344 9.859375 9.644531 10.855469 C 9.644531 10.855469 9.273438 10.363281 9.054688 9.539062 C 8.980469 9.613281 8.890625 9.6875 8.8125 9.773438 C 8.890625 10.070312 8.929688 10.363281 8.929688 10.683594 C 8.929688 12.167969 8.289062 13.101562 8.289062 13.101562 L 10.449219 13.519531 C 10.449219 13.519531 11.269531 14.660156 13.019531 14.660156 C 13.570312 14.660156 14.300781 14.601562 14.300781 14.269531 C 14.300781 14.011719 13.648438 13.667969 13.648438 12.917969 C 13.648438 11.714844 15.222656 10.460938 16.921875 9.921875 C 18.90625 9.296875 21.921875 8.570312 23.445312 8.570312 C 27.757812 8.570312 27.617188 11.308594 27.617188 11.308594 L 27.820312 11.296875 C 28.78125 10.78125 29.636719 10.683594 29.878906 10.65625 C 30.316406 9.171875 29.523438 7.832031 23.226562 7.304688 M 6.230469 4.628906 L 11.804688 3.4375 C 11.804688 3.4375 12.023438 4.125 12.984375 4.679688 L 12.96875 4.851562 C 12.523438 4.9375 11.832031 5.207031 11.179688 5.710938 C 12.265625 5.511719 13.367188 5.367188 14.464844 5.269531 L 14.746094 4.628906 C 12.996094 4.875 12.214844 3.449219 12.214844 3.449219 L 12.074219 3.019531 L 1.917969 5.183594 C 3.019531 5.253906 4.222656 5.585938 5.320312 6.128906 C 5.589844 5.28125 6.230469 4.628906 6.230469 4.628906 "/>
<path style=" stroke:none;fill-rule:nonzero;fill:rgb(100%,100%,100%);fill-opacity:1;" d="M 25.289062 9.40625 C 23.304688 9.40625 23.34375 13.445312 16.359375 16.859375 C 22.292969 16.035156 26.785156 12.15625 26.785156 10.558594 C 26.785156 9.96875 25.773438 9.40625 25.289062 9.40625 M 14.007812 13.066406 C 14.148438 13.667969 14.570312 13.839844 14.605469 14.058594 C 14.605469 14.058594 15.695312 13.839844 16.421875 12.808594 C 15.015625 13.496094 14.007812 13.066406 14.007812 13.066406 M 12.523438 3.289062 C 12.523438 3.289062 13.160156 4.335938 14.300781 4.335938 L 15.476562 4.261719 L 16.449219 3.289062 L 17.765625 3.09375 C 17.28125 2.8125 16.71875 2.601562 16.15625 2.457031 L 15.054688 3.941406 L 15.757812 2.371094 C 15.554688 2.332031 15.347656 2.296875 15.144531 2.257812 L 14.199219 3.535156 L 14.785156 2.210938 C 14.542969 2.1875 14.300781 2.160156 14.070312 2.148438 L 13.339844 3.117188 L 13.777344 2.125 C 12.753906 2.085938 11.996094 2.160156 11.996094 2.160156 L 12.253906 2.371094 Z M 5.910156 6.433594 C 6.125 6.558594 6.332031 6.691406 6.523438 6.828125 C 6.703125 6.765625 6.917969 6.703125 7.164062 6.628906 C 7.546875 5.253906 8.3125 4.347656 8.3125 4.347656 C 6.714844 4.910156 6.050781 6.164062 5.910156 6.433594 "/>
<path style=" stroke:none;fill-rule:nonzero;fill:rgb(100%,72.156863%,10.980392%);fill-opacity:1;" d="M 30.109375 11.050781 C 30.109375 11.050781 29.277344 11 28.023438 11.675781 L 26.976562 11.675781 L 26.785156 11.578125 C 23.945312 15.089844 19.914062 16.921875 14.363281 17.375 C 14.363281 17.375 16.246094 16.578125 17.269531 16.0625 L 15.066406 16.539062 C 15.066406 16.539062 21.042969 14.058594 22.347656 9.148438 C 22.347656 9.148438 19.261719 9.6875 17.074219 10.386719 C 14.902344 11.074219 14.3125 12.585938 14.3125 12.585938 C 15.082031 12.511719 15.488281 12.191406 15.71875 12.191406 C 16 12.191406 16.105469 12.476562 16.027344 12.636719 C 16.15625 12.585938 16.320312 12.488281 16.4375 12.488281 C 16.578125 12.488281 16.769531 12.597656 16.769531 12.78125 C 16.769531 13.238281 15.71875 14.058594 14.941406 14.292969 C 14.941406 14.574219 14.824219 15.289062 13.058594 15.289062 C 11.539062 15.289062 10.578125 14.441406 10.578125 14.441406 L 6.691406 13.765625 C 6.691406 13.765625 7.800781 12.265625 7.800781 10.683594 C 7.800781 6.398438 0.691406 5.511719 0.691406 5.511719 L 1.675781 4.273438 L 11.703125 2.34375 L 11.179688 1.914062 C 11.179688 1.914062 12.6875 1.707031 14.378906 1.84375 L 20.617188 0.636719 L 25.171875 2.542969 L 25.941406 3.277344 L 27.140625 3.941406 L 27.410156 5.082031 L 28.242188 6.066406 L 28.816406 6.496094 L 30.507812 7.28125 L 31.363281 9.296875 C 31.351562 9.28125 30.710938 9.882812 30.109375 11.050781 M 31.707031 9.148438 L 30.851562 7.132812 C 30.8125 7.046875 30.75 6.972656 30.660156 6.9375 L 29.011719 6.175781 L 28.5 5.796875 L 27.757812 4.910156 L 27.511719 3.855469 C 27.488281 3.757812 27.421875 3.671875 27.320312 3.609375 L 26.15625 2.972656 L 25.429688 2.273438 C 25.390625 2.234375 25.351562 2.210938 25.3125 2.199219 L 20.757812 0.292969 C 20.683594 0.269531 20.605469 0.257812 20.53125 0.269531 L 14.324219 1.460938 C 12.636719 1.339844 11.152344 1.535156 11.089844 1.546875 C 10.707031 1.609375 10.707031 2 10.847656 2.125 L 1.574219 3.90625 C 1.484375 3.917969 1.394531 3.976562 1.34375 4.039062 L 0.359375 5.292969 C 0.179688 5.511719 0.320312 5.84375 0.613281 5.882812 C 0.679688 5.894531 7.394531 6.765625 7.394531 10.683594 C 7.394531 12.121094 6.371094 13.53125 6.355469 13.554688 C 6.203125 13.753906 6.292969 14.082031 6.601562 14.132812 L 10.386719 14.785156 C 10.667969 15.003906 11.640625 15.65625 13.046875 15.65625 C 14.710938 15.65625 15.183594 15.054688 15.285156 14.5625 C 16.105469 14.230469 17.140625 13.433594 17.140625 12.78125 C 17.140625 12.378906 16.769531 12.105469 16.410156 12.105469 C 16.371094 12.105469 16.335938 12.121094 16.296875 12.132812 C 16.296875 12.132812 16.117188 11.8125 15.695312 11.8125 C 15.515625 11.8125 15.3125 11.898438 15.15625 11.960938 C 15.539062 11.542969 16.167969 11.039062 17.164062 10.71875 C 18.714844 10.226562 20.734375 9.8125 21.746094 9.613281 C 20.210938 13.898438 14.941406 16.160156 14.886719 16.183594 C 14.582031 16.320312 14.632812 16.699219 14.761719 16.773438 L 14.183594 17.019531 C 13.777344 17.191406 13.953125 17.769531 14.378906 17.730469 C 19.941406 17.277344 24.019531 15.410156 26.859375 12.035156 L 28 12.035156 C 28.0625 12.035156 28.128906 12.019531 28.191406 11.984375 C 29.316406 11.382812 30.058594 11.40625 30.070312 11.40625 C 30.226562 11.417969 30.367188 11.332031 30.441406 11.199219 C 30.992188 10.117188 31.59375 9.539062 31.605469 9.539062 C 31.695312 9.46875 31.773438 9.320312 31.707031 9.148438 "/>
<path style=" stroke:none;fill-rule:nonzero;fill:rgb(100%,72.156863%,10.980392%);fill-opacity:1;" d="M 25.222656 5.414062 C 25.402344 5.414062 25.53125 5.328125 25.53125 5.328125 C 25.519531 5.269531 25.503906 5.207031 25.492188 5.15625 C 25.453125 5.183594 25.390625 5.207031 25.3125 5.207031 C 25.121094 5.207031 24.992188 5.058594 24.992188 4.898438 C 24.992188 4.765625 25.082031 4.640625 25.222656 4.605469 C 25.058594 4.371094 24.878906 4.273438 24.878906 4.273438 C 24.878906 4.273438 24.585938 4.433594 24.585938 4.789062 C 24.585938 5.15625 24.902344 5.414062 25.222656 5.414062 M 7.035156 7.21875 C 7.074219 7.023438 7.113281 6.828125 7.164062 6.644531 C 6.917969 6.714844 6.703125 6.777344 6.523438 6.839844 C 6.703125 6.949219 6.882812 7.085938 7.035156 7.21875 M 14.351562 6.851562 L 13.671875 7 L 14.453125 5.242188 C 13.265625 5.355469 12.164062 5.511719 11.167969 5.699219 C 10.234375 6.410156 9.351562 7.5625 9.351562 9.296875 C 9.351562 10.15625 9.644531 10.867188 9.644531 10.867188 C 9.414062 9.859375 9.976562 8.878906 9.976562 8.878906 C 9.976562 8.878906 11.292969 8.066406 13.40625 7.699219 C 13.558594 7.527344 13.777344 7.402344 14.082031 7.332031 C 15.605469 6.949219 17.152344 6.128906 17.984375 5.082031 C 17.230469 5.082031 16.488281 5.109375 15.769531 5.144531 C 14.773438 5.871094 14.351562 6.851562 14.351562 6.851562 M 23.484375 5.550781 C 22.152344 5.316406 20.835938 5.183594 19.570312 5.121094 C 19.824219 5.980469 20.441406 6.445312 20.441406 6.445312 L 19.699219 7.21875 C 21.027344 7.195312 22.421875 7.246094 22.421875 7.246094 L 21.898438 8.191406 L 23.28125 6.753906 Z M 9.453125 6.042969 C 8.992188 6.140625 8.582031 6.25 8.199219 6.347656 C 7.917969 6.765625 7.699219 7.21875 7.570312 7.699219 C 8.171875 8.3125 8.621094 9.011719 8.824219 9.773438 C 8.902344 9.6875 8.980469 9.613281 9.070312 9.539062 C 8.964844 9.148438 8.914062 8.742188 8.914062 8.335938 C 8.902344 7.488281 9.160156 6.691406 9.453125 6.042969 M 28.871094 7.648438 C 28.871094 7.648438 28.28125 7.390625 27.511719 7.195312 C 26.335938 7.355469 25.441406 6.886719 25.441406 6.886719 C 24.46875 6.886719 23.804688 7.035156 23.226562 7.316406 C 29.523438 7.847656 30.316406 9.183594 29.90625 10.671875 C 29.957031 10.671875 29.980469 10.671875 29.980469 10.671875 C 29.980469 10.671875 30.402344 9.910156 30.902344 9.355469 C 30.902344 9.355469 30.261719 8.066406 28.011719 7.957031 Z M 28.871094 7.648438 "/>
<path style=" stroke:none;fill-rule:nonzero;fill:rgb(1.568627%,11.764706%,25.882353%);fill-opacity:1;" d="M 5.910156 6.433594 C 6.039062 6.164062 6.714844 4.910156 8.3125 4.347656 C 8.3125 4.347656 7.546875 5.253906 7.175781 6.628906 C 7.125 6.828125 7.085938 7.011719 7.046875 7.207031 C 6.882812 7.074219 6.714844 6.9375 6.535156 6.828125 C 6.332031 6.691406 6.125 6.558594 5.910156 6.433594 M 1.917969 5.183594 L 12.0625 2.996094 L 12.191406 3.425781 C 12.191406 3.425781 12.984375 4.851562 14.722656 4.605469 L 14.441406 5.242188 L 13.671875 7 L 14.351562 6.851562 C 14.351562 6.851562 14.773438 5.871094 15.769531 5.144531 C 16.320312 4.75 17.039062 4.433594 17.945312 4.394531 C 18.367188 3.597656 18.046875 2.875 18.046875 2.875 C 18.046875 2.875 17.203125 2.359375 16.167969 2.125 L 20.53125 1.191406 L 24.957031 2.910156 L 25.75 3.621094 L 26.898438 4.164062 L 27.078125 5.070312 L 27.269531 5.355469 L 26.988281 5.808594 L 27.476562 5.613281 L 27.601562 5.746094 L 27.246094 6.261719 L 27.820312 5.980469 L 27.988281 6.152344 L 27.730469 6.53125 L 28.152344 6.3125 L 28.601562 6.667969 C 28.601562 6.667969 27.421875 7.183594 26.132812 6.25 C 26.132812 6.25 25.695312 6.558594 25.121094 6.558594 C 23.933594 6.558594 23.496094 5.550781 23.496094 5.550781 L 23.28125 6.753906 L 21.910156 8.203125 C 22.371094 7.832031 22.769531 7.527344 23.242188 7.292969 C 23.816406 7.023438 24.480469 6.863281 25.453125 6.863281 C 25.453125 6.863281 26.347656 7.34375 27.527344 7.171875 C 27.921875 7.121094 28.359375 6.988281 28.792969 6.742188 L 30.367188 7.453125 C 29.90625 8.25 28.882812 7.625 28.882812 7.625 L 28.011719 7.917969 C 30.261719 8.03125 30.902344 9.320312 30.902344 9.320312 C 30.402344 9.871094 29.980469 10.632812 29.980469 10.632812 C 29.980469 10.632812 29.957031 10.632812 29.90625 10.632812 C 29.664062 10.644531 28.804688 10.757812 27.847656 11.273438 L 27.640625 11.285156 C 27.640625 11.285156 27.78125 8.546875 23.472656 8.546875 C 21.949219 8.546875 18.929688 9.269531 16.949219 9.898438 C 15.257812 10.4375 13.671875 11.691406 13.671875 12.894531 C 13.671875 13.628906 14.324219 13.984375 14.324219 14.242188 C 14.324219 14.585938 13.597656 14.636719 13.046875 14.636719 C 11.292969 14.636719 10.476562 13.496094 10.476562 13.496094 L 8.3125 13.078125 C 8.3125 13.078125 8.953125 12.144531 8.953125 10.65625 C 8.953125 10.351562 8.914062 10.042969 8.839844 9.75 C 8.632812 8.988281 8.1875 8.277344 7.585938 7.675781 C 7.714844 7.195312 7.917969 6.742188 8.210938 6.324219 C 9.03125 5.144531 10.246094 4.664062 10.246094 4.664062 C 10.246094 4.664062 9.824219 5.21875 9.453125 6.042969 C 9.160156 6.691406 8.902344 7.488281 8.902344 8.351562 C 8.902344 8.804688 8.964844 9.210938 9.054688 9.554688 C 9.273438 10.375 9.644531 10.867188 9.644531 10.867188 C 9.644531 10.867188 9.351562 10.15625 9.351562 9.296875 C 9.351562 7.574219 10.21875 6.410156 11.167969 5.699219 C 11.832031 5.207031 12.523438 4.925781 12.957031 4.835938 L 12.96875 4.664062 C 12.035156 4.125 11.804688 3.4375 11.804688 3.4375 L 6.230469 4.640625 C 6.230469 4.640625 5.578125 5.292969 5.320312 6.140625 C 4.222656 5.585938 3.019531 5.253906 1.917969 5.183594 M 13.761719 2.125 L 13.328125 3.117188 L 14.058594 2.148438 C 14.300781 2.160156 14.542969 2.1875 14.773438 2.210938 L 14.183594 3.535156 L 15.132812 2.257812 C 15.335938 2.285156 15.539062 2.320312 15.746094 2.371094 L 15.042969 3.941406 L 16.140625 2.457031 C 16.703125 2.601562 17.253906 2.8125 17.753906 3.09375 L 16.4375 3.289062 L 15.464844 4.261719 L 14.289062 4.335938 C 13.148438 4.335938 12.507812 3.289062 12.507812 3.289062 L 12.226562 2.371094 L 11.972656 2.160156 C 11.984375 2.160156 12.738281 2.085938 13.761719 2.125 M 16.359375 16.847656 C 23.332031 13.433594 23.304688 9.394531 25.289062 9.394531 C 25.773438 9.394531 26.785156 9.957031 26.785156 10.546875 C 26.785156 12.144531 22.308594 16.023438 16.359375 16.847656 M 16.421875 12.808594 C 15.695312 13.839844 14.605469 14.058594 14.605469 14.058594 C 14.570312 13.839844 14.148438 13.667969 14.007812 13.066406 C 14.007812 13.066406 15.015625 13.496094 16.421875 12.808594 M 7.777344 10.683594 C 7.777344 12.265625 6.664062 13.765625 6.664062 13.765625 L 10.550781 14.441406 C 10.550781 14.441406 11.523438 15.289062 13.035156 15.289062 C 14.800781 15.289062 14.914062 14.574219 14.914062 14.292969 C 15.695312 14.046875 16.742188 13.238281 16.742188 12.78125 C 16.742188 12.597656 16.550781 12.488281 16.410156 12.488281 C 16.296875 12.488281 16.128906 12.574219 16 12.636719 C 16.078125 12.476562 15.976562 12.191406 15.683594 12.191406 C 15.453125 12.191406 15.042969 12.511719 14.273438 12.585938 C 14.273438 12.585938 14.863281 11.074219 17.039062 10.386719 C 19.226562 9.6875 22.308594 9.148438 22.308594 9.148438 C 21.003906 14.058594 15.03125 16.539062 15.03125 16.539062 L 17.230469 16.0625 C 16.207031 16.578125 14.324219 17.375 14.324219 17.375 C 19.878906 16.921875 23.917969 15.089844 26.746094 11.578125 L 26.9375 11.675781 L 27.988281 11.675781 C 29.238281 11 30.070312 11.050781 30.070312 11.050781 C 30.671875 9.882812 31.300781 9.28125 31.300781 9.28125 L 30.441406 7.269531 L 28.753906 6.484375 L 28.179688 6.054688 L 27.347656 5.070312 L 27.078125 3.929688 L 25.875 3.265625 L 25.109375 2.53125 L 20.605469 0.636719 L 14.351562 1.84375 C 12.664062 1.707031 11.152344 1.914062 11.152344 1.914062 L 11.679688 2.34375 L 1.648438 4.273438 L 0.664062 5.511719 C 0.664062 5.511719 7.777344 6.398438 7.777344 10.683594 "/>
<path style=" stroke:none;fill-rule:nonzero;fill:rgb(1.568627%,11.764706%,25.882353%);fill-opacity:1;" d="M 25.222656 5.414062 C 24.902344 5.414062 24.585938 5.15625 24.585938 4.800781 C 24.585938 4.445312 24.890625 4.285156 24.890625 4.285156 C 24.890625 4.285156 25.058594 4.382812 25.238281 4.617188 C 25.097656 4.652344 25.007812 4.777344 25.007812 4.910156 C 25.007812 5.070312 25.121094 5.21875 25.324219 5.21875 C 25.402344 5.21875 25.464844 5.195312 25.503906 5.167969 C 25.519531 5.230469 25.53125 5.28125 25.542969 5.339844 C 25.53125 5.328125 25.402344 5.414062 25.222656 5.414062 M 26.042969 5.453125 C 26.03125 5.070312 26.09375 4.382812 24.636719 3.953125 L 22.910156 3.4375 C 22.910156 3.4375 24.25 4.578125 24.25 4.851562 C 24.25 5.304688 24.636719 5.671875 25.109375 5.671875 C 25.273438 5.671875 25.429688 5.625 25.570312 5.550781 L 25.59375 5.882812 C 26.195312 5.929688 26.914062 5.832031 27.089844 5.070312 C 26.835938 5.625 26.285156 5.550781 26.042969 5.453125 "/>
<path style=" stroke:none;fill-rule:nonzero;fill:rgb(1.568627%,11.764706%,25.882353%);fill-opacity:1;" d="M 10.578125 12.683594 C 10.628906 11.359375 12.0625 9.453125 14.414062 9.871094 C 14.683594 9.40625 15.054688 9.011719 15.488281 8.695312 C 15.3125 8.277344 15.273438 7.796875 15.398438 7.355469 C 15.398438 7.773438 15.515625 8.179688 15.746094 8.535156 C 15.964844 8.410156 16.179688 8.300781 16.410156 8.214844 C 16.347656 7.699219 16.488281 7.171875 16.808594 6.742188 C 16.628906 7.183594 16.601562 7.660156 16.730469 8.117188 C 16.960938 8.054688 17.203125 8.019531 17.445312 7.992188 C 17.523438 7.417969 17.855469 6.886719 18.417969 6.484375 C 17.996094 6.988281 17.804688 7.515625 17.832031 7.980469 C 18.175781 7.992188 18.519531 8.042969 18.855469 8.140625 L 19.722656 7.21875 L 20.464844 6.445312 C 20.042969 6.101562 19.738281 5.636719 19.597656 5.121094 C 19.53125 4.886719 19.492188 4.652344 19.492188 4.40625 C 19.492188 2.566406 21.257812 1.914062 21.257812 1.914062 L 20.515625 1.558594 L 18.085938 2.085938 C 18.417969 2.515625 18.597656 3.03125 18.585938 3.5625 C 18.574219 4.113281 18.355469 4.652344 17.996094 5.082031 C 17.179688 6.128906 15.617188 6.949219 14.09375 7.332031 C 13.839844 7.378906 13.597656 7.515625 13.417969 7.699219 C 13.355469 7.773438 13.300781 7.847656 13.265625 7.933594 L 12.636719 9.34375 C 10.730469 10.128906 10.425781 11.761719 10.578125 12.683594 M 26.414062 5.339844 L 26.628906 4.542969 L 24.941406 3.769531 C 26.042969 4.382812 26.414062 4.738281 26.414062 5.339844 "/>
</g>
</svg>
