<?xml version="1.0" encoding="UTF-8"?>
<svg xmlns="http://www.w3.org/2000/svg" xmlns:xlink="http://www.w3.org/1999/xlink" width="32px" height="32px" viewBox="0 0 32 40" version="1.1">
<g id="surface1">
<path style=" stroke:none;fill-rule:nonzero;fill:rgb(0%,7.843137%,14.509804%);fill-opacity:1;" d="M 0 32.574219 C 7.820312 33.253906 12.800781 35.453125 15.210938 40.007812 C 23.484375 38.671875 31.140625 33.390625 31.140625 26.578125 C 31.140625 17.503906 20.097656 16.078125 19.800781 13.433594 C 24.445312 15.109375 29.558594 13.347656 32 7.578125 C 24.785156 7.046875 19.503906 4.425781 17.21875 0.00390625 C 8.371094 1.566406 1.292969 7.28125 1.292969 13.429688 C 1.292969 22.425781 12.90625 24.808594 14.207031 26.71875 C 7.867188 24.324219 2.402344 27.050781 0 32.574219 Z M 0 32.574219 "/>
<path style=" stroke:none;fill-rule:nonzero;fill:rgb(58.823529%,84.705882%,84.705882%);fill-opacity:1;" d="M 13.734375 12.964844 C 12.742188 11.960938 12.332031 11.171875 12.332031 10.144531 C 12.332031 8.957031 12.902344 8.375 12.902344 7.714844 C 12.902344 7.144531 12.546875 6.699219 11.855469 6.5625 C 12.230469 6.140625 12.765625 5.886719 13.332031 5.863281 C 16.285156 5.863281 17.160156 12.363281 23.320312 12.128906 C 25.515625 11.921875 27.585938 10.859375 28.898438 8.992188 C 23.515625 8.292969 18.605469 6.015625 16.203125 2.148438 C 13.714844 2.597656 3.269531 6.1875 3.535156 13.683594 C 3.808594 21.5 15.425781 23.675781 18.671875 27.03125 C 21.234375 29.6875 19.429688 32.339844 17.785156 33.316406 C 15.234375 26.714844 6.851562 26.238281 3.515625 31.015625 C 8.890625 31.703125 13.800781 33.980469 16.203125 37.851562 C 22.136719 36.613281 25.003906 31.429688 23.914062 27.691406 C 22.109375 21.496094 10.402344 20.417969 7.289062 14.621094 C 5.628906 11.363281 6.992188 7.882812 10.03125 5.863281 C 8.90625 7.265625 8.292969 9.007812 8.292969 10.800781 C 8.5625 11.09375 8.675781 11.78125 8.679688 11.792969 C 8.71875 12.03125 8.792969 12.539062 8.664062 12.855469 C 8.796875 13.203125 8.96875 13.535156 9.171875 13.847656 C 9.578125 13.949219 10.035156 14.476562 10.042969 14.492188 C 10.492188 15 10.558594 15.324219 10.574219 15.445312 C 10.851562 15.691406 11.148438 15.929688 11.464844 16.152344 C 11.726562 16.125 12.125 16.25 12.53125 16.507812 C 12.996094 16.8125 13.230469 17.113281 13.296875 17.339844 C 13.621094 17.527344 13.953125 17.710938 14.296875 17.894531 C 14.554688 17.824219 14.988281 17.90625 15.417969 18.125 C 15.847656 18.347656 16.167969 18.65625 16.261719 18.902344 L 17.292969 19.414062 C 17.554688 19.335938 17.988281 19.414062 18.421875 19.632812 C 18.859375 19.851562 19.160156 20.148438 19.261719 20.398438 C 19.617188 20.574219 19.972656 20.765625 20.308594 20.953125 C 20.628906 20.886719 21.136719 21.082031 21.417969 21.246094 C 21.761719 21.425781 22.035156 21.714844 22.195312 22.066406 C 22.550781 22.289062 22.878906 22.523438 23.203125 22.761719 C 23.472656 22.75 23.875 22.90625 24.25 23.222656 C 24.652344 23.574219 24.859375 23.957031 24.871094 24.222656 C 25.144531 24.515625 25.402344 24.824219 25.632812 25.152344 C 25.964844 25.234375 26.296875 25.613281 26.480469 25.996094 C 26.738281 26.554688 26.707031 26.945312 26.628906 27.148438 C 27.074219 28.53125 27.195312 30.273438 26.476562 32.28125 C 26.476562 32.300781 26.460938 32.324219 26.453125 32.351562 C 27.949219 30.726562 28.964844 28.726562 28.878906 26.324219 C 28.59375 18.496094 16.984375 16.320312 13.734375 12.964844 Z M 13.734375 12.964844 "/>
<path style=" stroke:none;fill-rule:nonzero;fill:rgb(78.431373%,6.27451%,18.039216%);fill-opacity:1;" d="M 18.191406 13.785156 C 16.863281 12.265625 16.015625 9.570312 14.554688 8.519531 C 13.898438 10.839844 15.261719 13.375 18.191406 13.785156 Z M 18.191406 13.785156 "/>
<path style=" stroke:none;fill-rule:nonzero;fill:rgb(38.823529%,62.352941%,71.372549%);fill-opacity:1;" d="M 17.140625 35.585938 C 16.878906 36.363281 16.566406 37.117188 16.203125 37.851562 C 13.800781 33.980469 8.890625 31.703125 3.507812 31.007812 C 9.066406 28.234375 14.828125 31.152344 17.140625 35.585938 Z M 28.898438 8.984375 C 23.335938 11.761719 17.582031 8.839844 15.265625 4.40625 C 15.527344 3.632812 15.839844 2.878906 16.203125 2.148438 C 13.851562 2.566406 3.269531 6.117188 3.535156 13.679688 C 3.808594 21.496094 15.425781 23.671875 18.671875 27.027344 C 21.234375 29.683594 19.429688 32.339844 17.785156 33.3125 C 17.613281 34.082031 17.398438 34.839844 17.144531 35.585938 C 18.355469 35.375 22.019531 33.441406 22.046875 29.722656 C 22.078125 24.589844 15.421875 23.238281 10.378906 20.125 C 6.222656 17.566406 5.414062 15.023438 5.207031 13.414062 C 4.710938 9.632812 7.390625 6.175781 11.289062 4.546875 C 10.820312 4.9375 10.398438 5.378906 10.03125 5.863281 C 8.90625 7.265625 8.292969 9.007812 8.292969 10.804688 C 8.5625 11.09375 8.675781 11.78125 8.679688 11.792969 C 8.71875 12.035156 8.792969 12.539062 8.664062 12.855469 C 8.800781 13.195312 8.96875 13.523438 9.171875 13.828125 C 9.578125 13.929688 10.035156 14.457031 10.042969 14.46875 C 10.492188 14.980469 10.558594 15.304688 10.574219 15.425781 C 10.851562 15.671875 11.148438 15.90625 11.464844 16.132812 C 11.726562 16.105469 12.125 16.230469 12.53125 16.488281 C 12.996094 16.792969 13.230469 17.09375 13.296875 17.320312 C 13.621094 17.507812 13.953125 17.691406 14.296875 17.875 C 14.554688 17.804688 14.988281 17.886719 15.417969 18.105469 C 15.847656 18.328125 16.167969 18.636719 16.261719 18.882812 L 17.292969 19.394531 C 17.554688 19.320312 17.988281 19.394531 18.421875 19.613281 C 18.859375 19.835938 19.160156 20.128906 19.261719 20.378906 C 19.617188 20.5625 19.964844 20.746094 20.308594 20.933594 C 20.628906 20.867188 21.136719 21.0625 21.417969 21.226562 C 21.761719 21.40625 22.035156 21.695312 22.195312 22.046875 C 22.550781 22.273438 22.878906 22.503906 23.203125 22.742188 C 23.472656 22.730469 23.875 22.886719 24.25 23.203125 C 24.652344 23.558594 24.859375 23.9375 24.871094 24.203125 C 25.144531 24.496094 25.398438 24.804688 25.632812 25.132812 C 25.964844 25.214844 26.296875 25.597656 26.480469 25.976562 C 26.738281 26.535156 26.707031 26.925781 26.628906 27.128906 C 27.074219 28.511719 27.195312 30.257812 26.476562 32.261719 C 28.394531 29.03125 28.210938 25.820312 26.070312 23.109375 C 21.59375 17.445312 10.332031 16.761719 10.375 10.261719 C 10.394531 8.886719 10.921875 7.5625 11.863281 6.554688 C 12.238281 6.136719 12.769531 5.886719 13.332031 5.863281 C 16.285156 5.863281 17.160156 12.363281 23.320312 12.128906 C 25.519531 11.917969 27.597656 10.855469 28.898438 8.992188 Z M 28.898438 8.984375 "/>
</g>
</svg>
