<?xml version="1.0" encoding="UTF-8"?>
<svg xmlns="http://www.w3.org/2000/svg" xmlns:xlink="http://www.w3.org/1999/xlink" width="32px" height="32px" viewBox="0 0 32 25" version="1.1">
<g id="surface1">
<path style=" stroke:none;fill-rule:nonzero;fill:rgb(0%,14.901961%,32.941176%);fill-opacity:1;" d="M 31.996094 0 L 5.554688 0 C 7.304688 2.667969 7.890625 3.550781 6.402344 3.507812 L 4.199219 0 L 0 0 L 9.550781 15.261719 C 9.421875 15.253906 9.292969 15.25 9.164062 15.25 C 5.246094 15.25 2.179688 17.386719 2.179688 20.125 C 2.179688 22.863281 5.246094 25.003906 9.164062 25.003906 C 13.082031 25.003906 16.144531 22.863281 16.144531 20.125 C 16.144531 19.421875 15.941406 18.734375 15.566406 18.136719 L 13.421875 14.71875 C 13.421875 14.71875 15.144531 15.058594 16.4375 14.472656 L 15.816406 13.691406 C 15.816406 13.691406 18.441406 13.929688 20.863281 13.222656 L 20.042969 12.371094 C 22.5 12.171875 24.761719 10.980469 26.277344 9.078125 L 26.023438 9.078125 C 26.023438 9.078125 27.929688 8.183594 28.730469 6.195312 L 28.476562 6.195312 C 28.476562 6.195312 29.695312 5.3125 30.109375 3.488281 L 29.753906 3.488281 C 29.753906 3.488281 31.691406 2.152344 31.996094 0 Z M 31.996094 0 "/>
<path style=" stroke:none;fill-rule:nonzero;fill:rgb(100%,100%,100%);fill-opacity:1;" d="M 31.34375 0.449219 L 6.414062 0.449219 C 8.453125 3.476562 7.851562 3.960938 6.144531 3.960938 L 3.941406 0.449219 L 0.820312 0.449219 L 10.414062 15.777344 C 10 15.726562 9.582031 15.699219 9.164062 15.695312 C 5.503906 15.695312 2.640625 17.640625 2.640625 20.125 C 2.640625 22.605469 5.503906 24.554688 9.164062 24.554688 C 12.820312 24.554688 15.6875 22.605469 15.6875 20.125 C 15.683594 19.503906 15.503906 18.894531 15.164062 18.371094 L 12.449219 14.039062 C 12.449219 14.039062 14.339844 14.644531 15.660156 14.238281 L 14.828125 13.183594 C 14.828125 13.183594 17.953125 13.4375 20.035156 13.027344 L 19.042969 11.992188 C 19.042969 11.992188 23.695312 11.949219 25.425781 9.140625 L 24.632812 9.140625 C 24.632812 9.140625 26.824219 8.84375 27.929688 6.53125 L 27.121094 6.53125 C 27.121094 6.53125 29.007812 5.679688 29.515625 3.746094 L 28.640625 3.746094 C 28.640625 3.746094 30.601562 2.480469 31.34375 0.449219 Z M 31.34375 0.449219 "/>
<path style=" stroke:none;fill-rule:nonzero;fill:rgb(98.823529%,70.980392%,7.843137%);fill-opacity:1;" d="M 30.820312 0.769531 L 6.988281 0.769531 C 8.402344 2.871094 8.667969 4.417969 5.957031 4.269531 L 3.761719 0.769531 L 1.394531 0.769531 L 11.066406 16.214844 C 10.441406 16.082031 9.804688 16.011719 9.164062 16.011719 C 5.742188 16.011719 2.960938 17.859375 2.960938 20.125 C 2.960938 22.390625 5.742188 24.238281 9.164062 24.238281 C 12.582031 24.238281 15.363281 22.390625 15.363281 20.125 C 15.359375 19.566406 15.199219 19.015625 14.894531 18.542969 L 11.738281 13.507812 C 11.738281 13.507812 13.726562 14.1875 15.101562 14.042969 C 14.773438 13.652344 14.472656 13.246094 14.195312 12.820312 C 15.929688 12.988281 17.675781 12.992188 19.410156 12.839844 L 18.300781 11.691406 L 18.589844 11.691406 C 23.378906 11.691406 24.820312 9.292969 24.820312 9.292969 L 23.515625 9.292969 C 23.515625 9.292969 26.746094 8.492188 27.4375 6.679688 L 26.238281 6.679688 C 26.238281 6.679688 28.800781 5.449219 29.050781 4.0625 L 27.585938 4.0625 C 27.59375 4.0625 30.140625 2.65625 30.820312 0.769531 Z M 30.820312 0.769531 "/>
<path style=" stroke:none;fill-rule:nonzero;fill:rgb(0%,18.431373%,52.941176%);fill-opacity:1;" d="M 30.265625 1.105469 L 7.601562 1.105469 C 9.480469 4.101562 7.59375 4.78125 5.757812 4.59375 L 3.570312 1.105469 L 2.007812 1.105469 L 11.808594 16.757812 C 10.957031 16.480469 10.0625 16.34375 9.164062 16.347656 C 5.929688 16.347656 3.308594 18.035156 3.308594 20.125 C 3.308594 22.214844 5.929688 23.902344 9.164062 23.902344 C 12.402344 23.902344 15.023438 22.214844 15.023438 20.125 C 15.019531 19.625 14.871094 19.136719 14.597656 18.71875 L 10.964844 12.914062 C 10.964844 12.914062 13.3125 13.710938 14.398438 13.710938 C 14.085938 13.316406 13.816406 12.886719 13.601562 12.433594 C 13.601562 12.433594 16.417969 12.730469 18.667969 12.554688 L 17.441406 11.292969 C 17.824219 11.34375 18.207031 11.363281 18.589844 11.355469 C 22.554688 11.355469 24.070312 9.632812 24.070312 9.632812 L 12.292969 9.632812 L 12.117188 9.355469 L 21.894531 9.355469 C 21.894531 9.355469 25.875 8.613281 26.839844 7.015625 L 10.652344 7.015625 L 10.484375 6.746094 L 25.378906 6.746094 C 25.378906 6.746094 28.15625 5.4375 28.546875 4.402344 L 9.015625 4.402344 L 8.847656 4.132812 L 26.800781 4.132812 C 26.800781 4.125 29.414062 2.792969 30.265625 1.105469 Z M 30.265625 1.105469 "/>
</g>
</svg>
