<?xml version="1.0" encoding="UTF-8"?>
<svg xmlns="http://www.w3.org/2000/svg" xmlns:xlink="http://www.w3.org/1999/xlink" width="32px" height="32px" viewBox="0 0 32 30" version="1.1">
<g id="surface1">
<path style=" stroke:none;fill-rule:nonzero;fill:rgb(65.490196%,66.27451%,67.45098%);fill-opacity:1;" d="M 15.890625 18.578125 L 22.699219 15.277344 C 27.359375 16.550781 28.742188 18.269531 28.742188 18.269531 L 31.40625 15.339844 C 31.554688 15.1875 31.992188 14.65625 31.992188 13.695312 C 31.992188 12.65625 30.875 11.847656 30.09375 11.300781 C 28.765625 7.914062 21.421875 6.933594 20.882812 5.753906 C 20.695312 5.347656 19.625 1.824219 19.625 1.824219 C 18.988281 0 17.101562 0 16.390625 0 C 15.675781 0 14.144531 0.234375 14.144531 0.234375 C 14.144531 2.777344 13.792969 5.871094 13.417969 6.441406 C 12.484375 6.902344 11.519531 7.3125 10.535156 7.660156 L 6.816406 5.222656 L 7.792969 8.503906 C 1.527344 11.851562 0 17.691406 0 17.691406 C 0 17.691406 1.609375 29.988281 17.460938 29.988281 C 25.84375 29.988281 30.683594 26.046875 30.683594 26.046875 L 27.984375 20.175781 C 27.984375 20.175781 23.859375 22.261719 18.585938 22.261719 C 13.726562 22.261719 11.828125 20.058594 11.132812 18.777344 C 15.25 18.894531 15.890625 18.578125 15.890625 18.578125 Z M 15.890625 18.578125 "/>
<path style=" stroke:none;fill-rule:nonzero;fill:rgb(0%,23.921569%,49.019608%);fill-opacity:1;" d="M 29.484375 11.734375 C 28.191406 8.332031 21.046875 7.714844 20.257812 6.105469 C 19.941406 5.464844 19.535156 3.925781 18.945312 2.054688 C 18.472656 0.699219 17.074219 0.699219 16.378906 0.699219 C 15.867188 0.710938 15.355469 0.757812 14.847656 0.832031 C 14.847656 2.21875 14.578125 6.242188 13.917969 6.9375 C 13.753906 7.136719 12.535156 7.613281 11.210938 8.113281 L 11.609375 8.371094 L 11.203125 8.765625 L 10.4375 9.507812 L 9.601562 12.054688 L 8.511719 11.5 L 8.898438 12.445312 L 6.949219 12.757812 L 8.050781 13.128906 L 4.882812 15.496094 L 5.738281 15.5625 L 4.609375 17.550781 C 6.234375 16.832031 6.734375 16.695312 6.734375 16.695312 L 6.265625 16.226562 L 9.550781 14.9375 C 9.550781 14.9375 9.304688 15.578125 9.304688 16.816406 C 9.308594 17.070312 9.339844 17.320312 9.394531 17.566406 C 9.800781 19.496094 11.738281 23.480469 18.582031 23.480469 C 23.535156 23.480469 27.355469 21.796875 27.355469 21.796875 L 29.128906 25.660156 C 29.128906 25.660156 24.480469 28.789062 17.453125 28.789062 C 3.085938 28.789062 1.265625 17.804688 1.265625 17.804688 C 3.246094 12.652344 6.578125 10.394531 8.699219 9.4375 L 8.039062 9.367188 L 7.980469 9.175781 C 2.382812 12.175781 0.722656 17.742188 0.722656 17.742188 C 0.722656 17.742188 2.429688 29.300781 17.460938 29.300781 C 25.152344 29.300781 29.804688 25.832031 29.804688 25.832031 L 27.628906 21.101562 C 27.628906 21.101562 23.566406 22.953125 18.585938 22.953125 C 11.171875 22.953125 10.078125 18.035156 10.078125 18.035156 C 10.078125 18.035156 14.296875 18.277344 15.652344 17.925781 L 22.632812 14.535156 C 27.359375 15.832031 28.722656 17.234375 28.722656 17.234375 L 30.886719 14.867188 C 30.886719 14.867188 31.28125 14.507812 31.28125 13.695312 C 31.277344 12.933594 30.109375 12.167969 29.484375 11.734375 Z M 14.285156 12.992188 L 10.742188 12.527344 L 12.527344 11.5625 Z M 13.695312 8.351562 L 11.496094 11.769531 L 10.722656 9.972656 Z M 6.425781 14.824219 L 10.535156 12.132812 L 10.226562 14.273438 Z M 6.425781 14.824219 "/>
<path style=" stroke:none;fill-rule:nonzero;fill:rgb(0%,23.921569%,49.019608%);fill-opacity:1;" d="M 9.945312 14.066406 L 10.207031 12.613281 L 7.425781 14.449219 Z M 11.347656 12.433594 L 13.65625 12.707031 L 12.296875 11.9375 Z M 11.167969 10.066406 L 11.425781 11.175781 L 13.050781 9.035156 Z M 11.167969 10.066406 "/>
<path style=" stroke:none;fill-rule:nonzero;fill:rgb(0%,23.921569%,49.019608%);fill-opacity:1;" d="M 5 15.738281 L 4.179688 15.757812 L 7.609375 13.269531 L 6.121094 12.699219 L 8.554688 12.242188 L 7.710938 10.578125 L 9.210938 11.410156 L 9.8125 9.597656 C 8.003906 10.207031 4.125 12.144531 1.875 17.851562 C 2.144531 19.160156 4.496094 28.21875 17.460938 28.21875 C 23.0625 28.21875 27.148438 26.15625 28.402344 25.433594 L 27.066406 22.515625 C 24.355469 23.507812 21.488281 24.019531 18.59375 24.035156 C 10.710938 24.039062 8.730469 18.785156 8.730469 16.8125 C 8.726562 16.441406 8.75 16.074219 8.796875 15.703125 L 6.984375 16.285156 L 7.222656 16.785156 L 5.804688 17.28125 L 4.589844 18.0625 L 7.0625 18.507812 L 6.550781 20.226562 L 7.613281 19.921875 L 8.632812 22.445312 L 9.847656 22.296875 L 10.253906 24.066406 C 10.253906 24.066406 12.550781 25.613281 16.4375 25.949219 C 21.574219 26.394531 26.167969 24.691406 26.167969 24.691406 C 26.167969 24.691406 20.6875 26.78125 15.703125 26.269531 C 11.898438 25.878906 9.417969 24.371094 9.417969 24.371094 L 9.390625 22.773438 L 7.886719 22.792969 L 7.183594 20.347656 L 5.84375 20.957031 L 6.433594 18.765625 L 3.871094 18.460938 L 4.390625 16.933594 Z M 10.273438 9.492188 L 11.019531 8.523438 L 7.398438 6.09375 L 8.433594 9.058594 Z M 10.273438 9.492188 "/>
<path style=" stroke:none;fill-rule:nonzero;fill:rgb(0%,17.647059%,33.72549%);fill-opacity:1;" d="M 27.726562 11.964844 C 24.765625 11.730469 23.617188 10.785156 23.617188 10.042969 C 23.617188 9.6875 23.953125 9.621094 24.179688 9.621094 C 25.390625 9.621094 27.257812 10.550781 27.5625 11.34375 C 27.03125 10.789062 26.105469 10.308594 25.398438 10.308594 C 25.25 10.308594 25.089844 10.347656 25.089844 10.53125 C 25.089844 10.996094 25.941406 11.726562 29.046875 12.0625 C 27.859375 8.726562 21.296875 8.492188 19.824219 6.398438 C 19.414062 5.816406 18.738281 2.09375 18.054688 1.582031 C 17.308594 1.023438 15.386719 1.277344 15.386719 1.277344 C 15.386719 1.792969 15.253906 6.359375 14.285156 7.3125 C 13.625 7.851562 12.527344 8.085938 11.207031 8.761719 L 10.445312 9.503906 L 9.609375 12.050781 L 8.515625 11.496094 L 8.902344 12.441406 L 6.957031 12.753906 L 8.058594 13.125 L 4.886719 15.492188 L 5.742188 15.558594 L 4.613281 17.546875 C 6.242188 16.828125 6.738281 16.691406 6.738281 16.691406 L 6.269531 16.222656 L 9.554688 14.933594 C 9.554688 14.933594 9.308594 15.574219 9.308594 16.8125 C 9.316406 17.0625 9.347656 17.3125 9.398438 17.558594 C 9.539062 17.296875 12.125 12.660156 17.660156 12.34375 L 15.339844 14.089844 L 10.742188 17.542969 C 10.742188 17.542969 14.53125 17.695312 15.457031 17.4375 C 18.386719 16.113281 20.726562 14.878906 22.5625 13.980469 C 24.328125 13.121094 25.625 12.582031 26.523438 12.582031 C 27.636719 12.582031 29.175781 13.625 30.496094 14.507812 C 30.558594 14.449219 30.609375 14.378906 30.644531 14.300781 C 30.964844 13.195312 29.316406 12.332031 27.726562 11.964844 Z M 10.226562 14.273438 L 6.425781 14.824219 L 10.535156 12.132812 Z M 13.695312 8.351562 L 11.496094 11.769531 L 10.722656 9.972656 Z M 10.742188 12.527344 L 12.527344 11.5625 L 14.285156 12.992188 Z M 17.167969 6.820312 C 16.621094 6.855469 15.515625 7.203125 15.515625 7.203125 C 15.515625 7.203125 16.511719 6.640625 16.714844 6.34375 C 16.917969 6.042969 16.96875 2.652344 16.96875 2.652344 C 16.96875 2.652344 17.289062 5.972656 17.558594 6.304688 C 17.828125 6.636719 18.835938 7.050781 18.835938 7.050781 C 18.835938 7.050781 17.570312 6.796875 17.167969 6.820312 Z M 17.167969 6.820312 "/>
<path style=" stroke:none;fill-rule:nonzero;fill:rgb(100%,100%,100%);fill-opacity:1;" d="M 17.5625 6.304688 C 17.292969 5.972656 16.972656 2.652344 16.972656 2.652344 C 16.972656 2.652344 16.921875 6.042969 16.71875 6.34375 C 16.515625 6.640625 15.519531 7.203125 15.519531 7.203125 C 15.519531 7.203125 16.625 6.847656 17.171875 6.820312 C 17.574219 6.796875 18.84375 7.050781 18.84375 7.050781 C 18.84375 7.050781 17.835938 6.636719 17.5625 6.304688 Z M 9.394531 17.558594 C 9.535156 17.421875 12.367188 14.679688 15.339844 14.089844 L 17.660156 12.34375 C 12.125 12.664062 9.539062 17.300781 9.394531 17.558594 Z M 30.761719 13.824219 C 30.761719 13.140625 29.832031 12.675781 29.046875 12.0625 C 25.941406 11.726562 25.089844 10.996094 25.089844 10.53125 C 25.089844 10.347656 25.25 10.308594 25.398438 10.308594 C 26.105469 10.308594 27.03125 10.789062 27.5625 11.34375 C 27.253906 10.554688 25.390625 9.621094 24.179688 9.621094 C 23.953125 9.621094 23.617188 9.691406 23.617188 10.042969 C 23.617188 10.785156 24.765625 11.730469 27.726562 11.964844 C 29.316406 12.332031 30.964844 13.191406 30.644531 14.304688 C 30.722656 14.15625 30.765625 13.992188 30.761719 13.824219 Z M 24.933594 13.820312 L 26.089844 14.21875 C 26.25 14.160156 26.40625 14.082031 26.554688 13.996094 C 26.566406 13.960938 26.566406 13.9375 26.519531 13.894531 C 26.484375 13.863281 25.96875 13.679688 25.648438 13.5625 Z M 25.90625 13.464844 C 26.214844 13.582031 26.640625 13.75 26.675781 13.753906 C 26.734375 13.765625 26.792969 13.765625 26.851562 13.753906 C 26.890625 13.746094 27.144531 13.625 27.324219 13.53125 C 27.148438 13.445312 26.785156 13.28125 26.542969 13.28125 C 26.324219 13.3125 26.109375 13.371094 25.90625 13.464844 Z M 27.046875 13.855469 C 27.035156 13.878906 27.046875 13.894531 27.085938 13.925781 C 27.308594 14.050781 27.539062 14.160156 27.773438 14.261719 C 27.820312 14.269531 27.867188 14.265625 27.910156 14.257812 C 28.042969 14.1875 28.171875 14.113281 28.292969 14.027344 L 27.496094 13.609375 C 27.339844 13.675781 27.1875 13.757812 27.046875 13.855469 Z M 27.609375 14.46875 C 27.625 14.445312 27.628906 14.417969 27.621094 14.394531 C 27.398438 14.257812 27.167969 14.140625 26.925781 14.042969 C 26.871094 14.027344 26.8125 14.035156 26.761719 14.058594 C 26.707031 14.082031 26.410156 14.25 26.296875 14.304688 L 27.226562 14.714844 C 27.359375 14.640625 27.488281 14.558594 27.609375 14.46875 Z M 28.75 14.789062 C 28.800781 14.789062 28.851562 14.777344 28.894531 14.753906 C 28.988281 14.695312 29.074219 14.628906 29.15625 14.558594 L 28.441406 14.117188 C 28.3125 14.191406 28.1875 14.277344 28.070312 14.367188 C 28.078125 14.394531 28.089844 14.417969 28.109375 14.441406 Z M 29.046875 14.859375 C 29.027344 14.902344 29.023438 14.914062 29.03125 14.925781 C 29.054688 14.949219 29.425781 15.1875 29.679688 15.351562 L 29.96875 15.070312 L 29.308594 14.65625 C 29.210938 14.714844 29.125 14.78125 29.046875 14.859375 Z M 28.636719 14.976562 C 28.648438 14.953125 28.640625 14.925781 28.617188 14.894531 C 28.578125 14.863281 28.007812 14.5625 27.964844 14.554688 C 27.902344 14.546875 27.84375 14.554688 27.785156 14.574219 C 27.761719 14.582031 27.59375 14.695312 27.4375 14.800781 L 28.3125 15.195312 C 28.425781 15.128906 28.53125 15.054688 28.636719 14.976562 Z M 28.789062 15.089844 C 28.765625 15.097656 28.601562 15.21875 28.476562 15.316406 L 29.269531 15.789062 L 29.5625 15.472656 C 29.320312 15.316406 28.972656 15.078125 28.945312 15.070312 C 28.890625 15.066406 28.839844 15.070312 28.789062 15.089844 Z M 28.789062 15.089844 "/>
<path style=" stroke:none;fill-rule:nonzero;fill:rgb(100%,100%,100%);fill-opacity:1;" d="M 22.566406 13.984375 C 26.839844 15.089844 28.660156 16.527344 28.660156 16.527344 L 29.113281 16.027344 C 28.902344 15.875 27.324219 14.820312 24.246094 13.839844 C 25.160156 13.488281 26.273438 13.070312 26.574219 13.070312 C 27.253906 13.070312 28.65625 13.929688 30.15625 14.886719 L 30.5 14.511719 C 29.1875 13.628906 27.644531 12.585938 26.527344 12.585938 C 25.625 12.585938 24.328125 13.125 22.566406 13.984375 Z M 22.566406 13.984375 "/>
</g>
</svg>
