<?xml version="1.0" encoding="UTF-8"?>
<svg xmlns="http://www.w3.org/2000/svg" xmlns:xlink="http://www.w3.org/1999/xlink" width="32px" height="32px" viewBox="0 0 32 32" version="1.1">
<g id="surface1">
<path style=" stroke:none;fill-rule:nonzero;fill:rgb(55.686275%,56.470588%,56.470588%);fill-opacity:1;" d="M 31.933594 15.96875 C 31.933594 24.785156 24.785156 31.933594 15.96875 31.933594 C 7.148438 31.933594 0 24.785156 0 15.96875 C 0 7.148438 7.148438 0 15.96875 0 C 24.785156 0 31.933594 7.148438 31.933594 15.96875 Z M 31.933594 15.96875 "/>
<path style=" stroke:none;fill-rule:nonzero;fill:rgb(1.568627%,11.764706%,25.490196%);fill-opacity:1;" d="M 30.859375 15.96875 C 30.855469 24.195312 24.1875 30.859375 15.960938 30.859375 C 7.734375 30.855469 1.066406 24.1875 1.070312 15.960938 C 1.070312 7.734375 7.742188 1.066406 15.96875 1.070312 C 24.195312 1.070312 30.863281 7.738281 30.859375 15.96875 Z M 30.859375 15.96875 "/>
<path style=" stroke:none;fill-rule:nonzero;fill:rgb(100%,100%,100%);fill-opacity:1;" d="M 17.410156 5.074219 L 15.96875 1.449219 L 14.441406 5.074219 C 8.988281 5.820312 4.917969 10.476562 4.914062 15.980469 C 4.914062 22.058594 9.886719 26.988281 15.96875 26.988281 C 21.75 26.964844 26.527344 22.472656 26.90625 16.703125 C 27.285156 10.9375 23.136719 5.855469 17.410156 5.074219 Z M 17.410156 5.074219 "/>
<path style=" stroke:none;fill-rule:nonzero;fill:rgb(48.235294%,18.823529%,24.313725%);fill-opacity:1;" d="M 15.046875 21.964844 L 15.164062 22.222656 Z M 12.207031 22.144531 L 12.207031 23.804688 L 14.828125 22.511719 L 15.027344 22.015625 L 15.96875 26.5625 L 16.914062 21.976562 L 17.125 22.511719 L 19.753906 23.804688 L 19.753906 22.144531 L 18.777344 20.738281 L 18.792969 20.757812 L 20.335938 20.507812 L 19.632812 19.632812 L 20.832031 18.589844 L 22.046875 18.503906 L 22.703125 18.832031 L 22.703125 16.945312 L 24.5 15.382812 L 22.742188 15.367188 L 23.933594 12.0625 L 20.667969 13.300781 L 20.609375 11.542969 L 18.375 13.769531 C 18.433594 13.421875 19.226562 8.773438 19.226562 8.773438 L 17.105469 10.15625 Z M 17.105469 10.15625 L 15.96875 10.667969 L 14.847656 10.144531 L 12.753906 8.773438 C 12.753906 8.773438 13.597656 13.765625 13.597656 13.769531 L 11.367188 11.542969 L 11.304688 13.300781 L 8.039062 12.0625 L 9.230469 15.367188 L 7.472656 15.382812 L 9.253906 16.933594 L 9.253906 18.832031 L 9.914062 18.503906 L 11.148438 18.582031 L 12.347656 19.625 L 11.640625 20.5 L 12.816406 20.695312 Z M 17.105469 10.15625 "/>
<path style=" stroke:none;fill-rule:nonzero;fill:rgb(67.45098%,8.627451%,17.254902%);fill-opacity:1;" d="M 23.683594 12.328125 L 20.566406 13.507812 L 19.652344 15.085938 L 20.277344 15.382812 Z M 19.007812 9.089844 L 17.140625 10.320312 L 17.34375 11.285156 Z M 7.863281 15.523438 L 9.25 16.734375 L 9.25 15.515625 Z M 15.289062 22.519531 L 15.96875 25.945312 L 15.96875 24.0625 Z M 13.597656 13.976562 L 13.589844 13.96875 L 11.503906 11.890625 L 11.4375 13.507812 L 8.316406 12.328125 L 11.367188 15.53125 L 13.933594 14.304688 Z M 14.8125 10.300781 L 12.960938 9.082031 L 12.960938 9.101562 L 14.441406 12.714844 L 14.539062 11.574219 Z M 14.105469 18.78125 L 11.386719 18.601562 L 12.539062 19.605469 C 12.519531 19.652344 11.914062 20.398438 11.914062 20.398438 L 13.253906 20.617188 L 14.105469 19.398438 Z M 14.105469 18.78125 "/>
<path style=" stroke:none;fill-rule:nonzero;fill:rgb(33.333333%,33.72549%,35.294118%);fill-opacity:1;" d="M 22.691406 13.878906 L 21.804688 16.109375 L 17.640625 14.125 L 17.417969 11.574219 L 15.96875 4.945312 L 14.542969 11.574219 L 14.320312 14.125 L 10.15625 16.109375 L 9.242188 13.914062 L 9.25 14.996094 L 9.25 18.832031 L 9.914062 18.503906 L 14.105469 18.78125 L 14.105469 19.40625 L 12.207031 22.144531 L 12.207031 23.804688 L 14.832031 22.511719 L 15.046875 21.964844 L 15.96875 24.0625 L 16.914062 21.964844 L 17.125 22.511719 L 19.753906 23.804688 L 19.753906 22.144531 L 17.855469 19.40625 L 17.855469 18.78125 L 22.046875 18.503906 L 22.710938 18.832031 L 22.710938 14.996094 Z M 22.691406 13.878906 "/>
<path style=" stroke:none;fill-rule:nonzero;fill:rgb(55.686275%,56.470588%,56.470588%);fill-opacity:1;" d="M 14.828125 11.613281 L 14.589844 14.3125 L 14.460938 15.839844 L 14.191406 14.503906 L 10.007812 16.5 L 9.539062 15.375 L 9.539062 18.371094 L 9.855469 18.207031 L 14.394531 18.511719 L 14.394531 19.496094 L 12.488281 22.234375 L 12.488281 23.34375 L 14.601562 22.304688 L 14.929688 21.480469 L 14.75 20.566406 L 15.058594 21.28125 L 15.96875 23.347656 L 15.96875 6.113281 Z M 14.828125 11.613281 "/>
</g>
</svg>
