<?xml version="1.0" encoding="UTF-8"?>
<svg xmlns="http://www.w3.org/2000/svg" xmlns:xlink="http://www.w3.org/1999/xlink" width="32px" height="32px" viewBox="0 0 32 35" version="1.1">
<g id="surface1">
<path style=" stroke:none;fill-rule:nonzero;fill:rgb(92.941176%,88.235294%,77.647059%);fill-opacity:1;" d="M 31.058594 33.082031 L 31.058594 31.4375 L 27.253906 29.417969 L 26.601562 27.628906 L 24.191406 24.601562 L 24.851562 24.023438 L 25.351562 24.316406 L 26.757812 23.058594 L 27.203125 27.042969 L 28.808594 23.132812 L 31.445312 27.730469 L 30.726562 21.230469 L 27.664062 17.875 L 26.152344 19.089844 L 26.042969 19 L 25.882812 16.390625 L 18.835938 13.378906 L 18.144531 12.808594 L 21.140625 13.09375 L 17.863281 10.664062 L 18.035156 10.492188 L 17.664062 4.425781 L 14.085938 8.648438 L 13.777344 8.648438 L 13.921875 5.390625 L 10.851562 0 L 11.308594 4.988281 L 10.898438 5.699219 L 6.914062 3.472656 L 9.894531 7.351562 L 8.535156 9.625 L 7.765625 16.125 L 4.339844 18.417969 L 6.621094 22.21875 L 0.953125 26.273438 L 3.417969 29.773438 L 0.648438 31.421875 L 0.644531 33.109375 L 0 34.894531 L 12.222656 34.902344 L 15.644531 31.988281 L 16.804688 32.097656 L 18.871094 30.402344 L 18.667969 29.402344 L 19.613281 28.570312 L 22.558594 31.757812 L 22.566406 33.644531 L 23.082031 34.945312 L 31.953125 34.953125 Z M 12.488281 31.109375 L 9.640625 31.101562 L 7.914062 27.863281 L 9.738281 26.761719 L 13.136719 28.90625 L 12.722656 29.65625 L 13.273438 30.4375 Z M 19.078125 20.523438 L 18.230469 19.042969 L 19.546875 19.296875 Z M 20.296875 19.421875 L 22.152344 19.71875 L 20.402344 20.480469 Z M 21.722656 23.324219 L 20.628906 23 L 22.625 20.214844 L 22.808594 22.425781 Z M 21.722656 23.324219 "/>
<path style=" stroke:none;fill-rule:nonzero;fill:rgb(47.45098%,6.27451%,14.901961%);fill-opacity:1;" d="M 13.007812 8.445312 L 13.140625 5.5625 L 11.953125 3.488281 L 12.101562 5.058594 Z M 13.007812 8.445312 "/>
<path style=" stroke:none;fill-rule:nonzero;fill:rgb(47.45098%,6.27451%,14.901961%);fill-opacity:1;" d="M 12.515625 22.253906 L 17.777344 22.253906 L 17.78125 17.996094 L 17.785156 13.675781 L 15.628906 13.519531 L 16.902344 15.308594 L 13.957031 14.632812 L 10.359375 18.566406 L 7.972656 17.414062 L 8.027344 16.886719 L 5.386719 18.652344 L 5.8125 19.335938 L 11.679688 19.871094 Z M 12.453125 17.996094 C 12.863281 17.289062 13.625 16.851562 14.449219 16.851562 C 14.515625 16.851562 14.582031 16.855469 14.648438 16.859375 C 14.664062 16.859375 14.679688 16.859375 14.695312 16.859375 L 14.695312 16.863281 C 15.710938 16.972656 16.535156 17.734375 16.71875 18.730469 C 16.902344 19.730469 16.402344 20.730469 15.492188 21.1875 C 14.582031 21.648438 13.476562 21.457031 12.777344 20.722656 C 12.074219 19.984375 11.941406 18.875 12.453125 17.996094 Z M 12.453125 17.996094 "/>
<path style=" stroke:none;fill-rule:nonzero;fill:rgb(47.45098%,6.27451%,14.901961%);fill-opacity:1;" d="M 21.492188 19.195312 L 22.480469 19.363281 L 24.910156 16.816406 L 22.648438 15.851562 Z M 21.492188 19.195312 "/>
<path style=" stroke:none;fill-rule:nonzero;fill:rgb(47.45098%,6.27451%,14.901961%);fill-opacity:1;" d="M 19.144531 18.792969 L 19.976562 14.707031 L 18.222656 13.957031 L 18.222656 18.632812 Z M 19.144531 18.792969 "/>
<path style=" stroke:none;fill-rule:nonzero;fill:rgb(47.45098%,6.27451%,14.901961%);fill-opacity:1;" d="M 9.921875 26.210938 L 12.855469 24.523438 L 12.082031 22.332031 L 7.605469 22.335938 L 6.074219 19.777344 L 6.070312 19.777344 Z M 9.921875 26.210938 "/>
<path style=" stroke:none;fill-rule:nonzero;fill:rgb(47.45098%,6.27451%,14.901961%);fill-opacity:1;" d="M 15.753906 25.425781 L 17.769531 25.421875 L 17.773438 25.042969 L 15.757812 25.042969 Z M 15.753906 25.425781 "/>
<path style=" stroke:none;fill-rule:nonzero;fill:rgb(47.45098%,6.27451%,14.901961%);fill-opacity:1;" d="M 15.753906 26.1875 L 17.769531 26.183594 L 17.773438 25.804688 L 15.757812 25.804688 Z M 15.753906 26.1875 "/>
<path style=" stroke:none;fill-rule:nonzero;fill:rgb(47.45098%,6.27451%,14.901961%);fill-opacity:1;" d="M 27.40625 21.351562 L 27.527344 22.585938 L 28.148438 22.6875 L 28.460938 21.925781 L 28.480469 20.6875 L 29.160156 22.128906 L 29.492188 22.75 L 30.113281 22.511719 L 29.996094 21.53125 L 28.730469 20.222656 Z M 27.40625 21.351562 "/>
<path style=" stroke:none;fill-rule:nonzero;fill:rgb(47.45098%,6.27451%,14.901961%);fill-opacity:1;" d="M 13.648438 12.667969 C 13.929688 12.667969 14.160156 12.441406 14.160156 12.160156 C 14.160156 11.878906 13.929688 11.652344 13.648438 11.652344 C 13.367188 11.652344 13.136719 11.878906 13.136719 12.160156 C 13.136719 12.441406 13.367188 12.667969 13.648438 12.667969 Z M 13.648438 12.667969 "/>
<path style=" stroke:none;fill-rule:nonzero;fill:rgb(47.45098%,6.27451%,14.901961%);fill-opacity:1;" d="M 10.789062 31.511719 L 9.105469 31.511719 L 8.238281 34.128906 L 9.9375 34.132812 Z M 10.789062 31.511719 "/>
<path style=" stroke:none;fill-rule:nonzero;fill:rgb(1.176471%,31.764706%,18.823529%);fill-opacity:1;" d="M 25.824219 27.917969 L 23.367188 24.832031 L 19.957031 27.800781 L 21.074219 29.011719 Z M 25.824219 27.917969 "/>
<path style=" stroke:none;fill-rule:nonzero;fill:rgb(1.176471%,31.764706%,18.823529%);fill-opacity:1;" d="M 18.179688 22.71875 L 18.179688 26.285156 L 21.359375 23.640625 Z M 18.179688 22.71875 "/>
<path style=" stroke:none;fill-rule:nonzero;fill:rgb(1.176471%,31.764706%,18.823529%);fill-opacity:1;" d="M 7.457031 27.636719 L 9.539062 26.367188 L 7.324219 22.664062 L 2.011719 26.464844 L 3.066406 27.945312 Z M 7.457031 27.636719 "/>
<path style=" stroke:none;fill-rule:nonzero;fill:rgb(1.176471%,31.764706%,18.823529%);fill-opacity:1;" d="M 29.488281 22.75 L 30.308594 24.234375 L 30.117188 22.515625 Z M 29.488281 22.75 "/>
<path style=" stroke:none;fill-rule:nonzero;fill:rgb(1.176471%,31.764706%,18.823529%);fill-opacity:1;" d="M 27.523438 22.585938 L 27.660156 23.863281 L 28.152344 22.6875 L 28.148438 22.6875 Z M 27.523438 22.585938 "/>
<path style=" stroke:none;fill-rule:nonzero;fill:rgb(1.176471%,31.764706%,18.823529%);fill-opacity:1;" d="M 12.773438 4.921875 L 11.953125 3.488281 L 12.101562 5.0625 Z M 12.773438 4.921875 "/>
<path style=" stroke:none;fill-rule:nonzero;fill:rgb(1.176471%,31.764706%,18.823529%);fill-opacity:1;" d="M 10.78125 6.574219 L 9.601562 5.828125 L 10.550781 6.957031 Z M 10.78125 6.574219 "/>
<path style=" stroke:none;fill-rule:nonzero;fill:rgb(72.54902%,35.686275%,15.294118%);fill-opacity:1;" d="M 30.28125 33.160156 L 30.28125 31.902344 L 26.617188 29.964844 L 26.015625 28.300781 L 21.371094 29.351562 L 23.320312 31.453125 L 23.320312 33.160156 Z M 30.28125 33.160156 "/>
<path style=" stroke:none;fill-rule:nonzero;fill:rgb(72.54902%,35.686275%,15.294118%);fill-opacity:1;" d="M 22.925781 19.484375 L 23.203125 22.257812 L 25.25 23.371094 L 26.988281 21.828125 L 26.882812 20.75 L 25.304688 19.386719 L 25.140625 17.1875 Z M 22.925781 19.484375 "/>
<path style=" stroke:none;fill-rule:nonzero;fill:rgb(72.54902%,35.686275%,15.294118%);fill-opacity:1;" d="M 20.167969 22.867188 L 22.148438 20.15625 L 20.070312 21.046875 L 19.882812 19.617188 L 19.109375 21.398438 L 18.191406 19.792969 L 18.195312 22.285156 Z M 20.167969 22.867188 "/>
<path style=" stroke:none;fill-rule:nonzero;fill:rgb(72.54902%,35.686275%,15.294118%);fill-opacity:1;" d="M 14.304688 29.488281 L 16.242188 27.882812 L 12.960938 24.945312 L 10.175781 26.546875 L 13.679688 28.765625 L 13.195312 29.609375 L 14.644531 31.816406 L 15.144531 31.371094 Z M 14.304688 29.488281 "/>
<path style=" stroke:none;fill-rule:nonzero;fill:rgb(72.54902%,35.686275%,15.294118%);fill-opacity:1;" d="M 17.121094 28.683594 L 15.128906 30.269531 L 15.535156 31.199219 L 16.535156 31.300781 L 18.015625 30.089844 L 17.820312 29.210938 Z M 17.121094 28.683594 "/>
<path style=" stroke:none;fill-rule:nonzero;fill:rgb(72.54902%,35.686275%,15.294118%);fill-opacity:1;" d="M 9.160156 31.105469 L 7.539062 28.042969 L 3.335938 28.34375 L 4.535156 30.007812 L 1.445312 31.84375 L 1.445312 33.179688 L 5.125 33.175781 L 5.832031 31.097656 Z M 9.160156 31.105469 "/>
<path style=" stroke:none;fill-rule:nonzero;fill:rgb(72.54902%,35.686275%,15.294118%);fill-opacity:1;" d="M 12.023438 10.597656 L 12.296875 11.546875 L 10.066406 16.65625 L 10.296875 17.996094 L 13.804688 14.171875 L 15.933594 14.652344 L 14.785156 13.039062 L 17.429688 13.238281 L 15.667969 11.796875 L 18.4375 12.0625 L 16.675781 10.753906 L 17.234375 10.1875 L 17.011719 6.414062 L 14.449219 9.4375 L 13.28125 9.398438 Z M 13.648438 11.222656 C 14.167969 11.222656 14.589844 11.640625 14.589844 12.15625 C 14.589844 12.671875 14.167969 13.089844 13.648438 13.089844 C 13.132812 13.089844 12.710938 12.671875 12.710938 12.15625 C 12.710938 11.640625 13.132812 11.222656 13.648438 11.222656 Z M 13.648438 11.222656 "/>
<path style=" stroke:none;fill-rule:nonzero;fill:rgb(29.019608%,19.607843%,56.862745%);fill-opacity:1;" d="M 21.476562 17.996094 L 21.105469 19.132812 L 21.503906 19.199219 L 21.914062 17.996094 L 22.652344 15.84375 L 22.238281 15.667969 Z M 21.476562 17.996094 "/>
<path style=" stroke:none;fill-rule:nonzero;fill:rgb(29.019608%,19.607843%,56.862745%);fill-opacity:1;" d="M 19.144531 18.792969 L 19.542969 18.863281 L 20.390625 14.878906 L 19.976562 14.703125 Z M 19.144531 18.792969 "/>
<path style=" stroke:none;fill-rule:nonzero;fill:rgb(29.019608%,19.607843%,56.862745%);fill-opacity:1;" d="M 11.957031 21.972656 L 7.382812 21.96875 L 7.605469 22.335938 L 12.082031 22.332031 L 12.09375 22.332031 L 11.96875 21.96875 L 11.964844 21.96875 L 11.96875 21.972656 Z M 11.957031 21.972656 "/>
<path style=" stroke:none;fill-rule:nonzero;fill:rgb(29.019608%,19.607843%,56.862745%);fill-opacity:1;" d="M 17.742188 22.664062 L 16.042969 22.660156 L 16.886719 23.808594 Z M 17.742188 22.664062 "/>
<path style=" stroke:none;fill-rule:nonzero;fill:rgb(29.019608%,19.607843%,56.862745%);fill-opacity:1;" d="M 13.160156 14.878906 L 13.164062 14.882812 L 13.808594 14.171875 L 13.804688 14.171875 L 12.914062 14.039062 Z M 13.160156 14.878906 "/>
<path style=" stroke:none;fill-rule:nonzero;fill:rgb(29.019608%,19.607843%,56.862745%);fill-opacity:1;" d="M 12.152344 14.742188 L 12.378906 15.738281 L 12.378906 15.742188 L 13.15625 14.890625 L 13.152344 14.890625 Z M 12.152344 14.742188 "/>
<path style=" stroke:none;fill-rule:nonzero;fill:rgb(29.019608%,19.607843%,56.862745%);fill-opacity:1;" d="M 11.175781 15.621094 L 11.382812 16.816406 L 10.066406 16.65625 L 10.125 16.984375 L 10.300781 18.003906 L 12.371094 15.75 Z M 11.175781 15.621094 "/>
<path style=" stroke:none;fill-rule:nonzero;fill:rgb(29.019608%,19.607843%,56.862745%);fill-opacity:1;" d="M 15.054688 20.316406 C 15.964844 20.316406 16.371094 19.886719 16.375 18.929688 C 16.335938 18.589844 16.207031 18.269531 16.007812 17.996094 C 15.679688 17.558594 15.183594 17.277344 14.636719 17.222656 C 14.011719 17.238281 13.597656 17.507812 13.421875 17.996094 C 13.359375 18.191406 13.328125 18.394531 13.328125 18.597656 C 13.332031 19.546875 14.101562 20.3125 15.054688 20.316406 Z M 15.054688 20.316406 "/>
<path style=" stroke:none;fill-rule:nonzero;fill:rgb(29.019608%,19.607843%,56.862745%);fill-opacity:1;" d="M 14.347656 22.664062 L 15.1875 23.816406 L 16.042969 22.660156 L 14.367188 22.65625 L 14.347656 22.664062 L 14.328125 22.65625 L 12.644531 22.660156 L 13.492188 23.8125 Z M 14.347656 22.664062 "/>
<path style=" stroke:none;fill-rule:nonzero;fill:rgb(29.019608%,19.607843%,56.862745%);fill-opacity:1;" d="M 24.109375 30.332031 L 22.859375 29.015625 L 22.386719 29.121094 L 23.628906 30.445312 Z M 24.109375 30.332031 "/>
<path style=" stroke:none;fill-rule:nonzero;fill:rgb(29.019608%,19.607843%,56.862745%);fill-opacity:1;" d="M 25.046875 30.117188 L 23.796875 28.804688 L 23.324219 28.910156 L 24.566406 30.230469 Z M 25.046875 30.117188 "/>
<path style=" stroke:none;fill-rule:nonzero;fill:rgb(29.019608%,19.607843%,56.862745%);fill-opacity:1;" d="M 25.992188 29.90625 L 24.738281 28.589844 L 24.273438 28.695312 L 25.511719 30.019531 Z M 25.992188 29.90625 "/>
<path style=" stroke:none;fill-rule:nonzero;fill:rgb(29.019608%,19.607843%,56.862745%);fill-opacity:1;" d="M 11.167969 31.5 L 10.785156 31.503906 L 9.9375 34.136719 L 10.308594 34.136719 Z M 11.167969 31.5 "/>
<path style=" stroke:none;fill-rule:nonzero;fill:rgb(29.019608%,19.607843%,56.862745%);fill-opacity:1;" d="M 8.238281 34.132812 L 8.671875 32.820312 L 7.351562 33.292969 Z M 8.238281 34.132812 "/>
<path style=" stroke:none;fill-rule:nonzero;fill:rgb(29.019608%,19.607843%,56.862745%);fill-opacity:1;" d="M 7.777344 31.980469 L 8.671875 32.820312 L 9.105469 31.511719 Z M 7.777344 31.980469 "/>
<path style=" stroke:none;fill-rule:nonzero;fill:rgb(29.019608%,19.607843%,56.862745%);fill-opacity:1;" d="M 5.671875 29.714844 L 4.617188 28.246094 L 4.140625 28.28125 L 5.179688 29.761719 Z M 5.671875 29.714844 "/>
<path style=" stroke:none;fill-rule:nonzero;fill:rgb(29.019608%,19.607843%,56.862745%);fill-opacity:1;" d="M 6.644531 29.644531 L 5.597656 28.175781 L 5.113281 28.210938 L 6.152344 29.691406 Z M 6.644531 29.644531 "/>
<path style=" stroke:none;fill-rule:nonzero;fill:rgb(29.019608%,19.607843%,56.862745%);fill-opacity:1;" d="M 7.632812 29.570312 L 6.582031 28.105469 L 6.101562 28.140625 L 7.140625 29.617188 Z M 7.632812 29.570312 "/>
<path style=" stroke:none;fill-rule:nonzero;fill:rgb(29.019608%,19.607843%,56.862745%);fill-opacity:1;" d="M 16.683594 7.875 L 15.316406 9.464844 L 16.769531 9.492188 Z M 16.683594 7.875 "/>
<path style=" stroke:none;fill-rule:nonzero;fill:rgb(0.392157%,0.392157%,0.392157%);fill-opacity:1;" d="M 30.699219 33.164062 L 30.699219 31.652344 L 26.960938 29.667969 L 26.285156 27.804688 L 23.699219 24.558594 L 24.808594 23.585938 L 25.308594 23.875 L 27.039062 22.328125 L 27.40625 25.605469 L 28.757812 22.316406 L 30.898438 26.050781 L 30.378906 21.386719 L 27.625 18.363281 L 26.148438 19.554688 L 25.691406 19.171875 L 25.539062 16.632812 L 18.648438 13.6875 L 17.007812 12.34375 L 19.894531 12.617188 L 17.3125 10.703125 L 17.664062 10.351562 L 17.359375 5.339844 L 14.253906 9.007812 L 13.402344 9.003906 L 13.558594 5.476562 L 11.359375 1.617188 L 11.679688 5.070312 L 11.03125 6.183594 L 8.261719 4.636719 L 10.328125 7.328125 L 8.882812 9.742188 L 8.101562 16.332031 L 4.824219 18.527344 L 7.101562 22.316406 L 1.449219 26.355469 L 3.933594 29.882812 L 1.007812 31.621094 L 1.003906 33.171875 L 0.511719 34.539062 L 12.089844 34.546875 L 15.527344 31.617188 L 16.691406 31.726562 L 18.476562 30.261719 L 18.277344 29.273438 L 19.640625 28.070312 L 22.917969 31.617188 L 22.921875 33.574219 L 23.328125 34.585938 L 31.386719 34.59375 Z M 28.730469 20.222656 L 29.996094 21.53125 L 30.308594 24.214844 L 30.300781 24.210938 L 29.160156 22.132812 L 28.480469 20.6875 L 28.460938 21.925781 L 27.660156 23.863281 L 27.40625 21.351562 Z M 27.578125 18.9375 L 28.457031 19.894531 L 27.507812 20.710938 L 26.460938 19.839844 Z M 25.140625 17.1875 L 25.304688 19.386719 L 26.882812 20.75 L 26.988281 21.828125 L 25.25 23.371094 L 23.203125 22.257812 L 22.925781 19.484375 Z M 18.222656 13.957031 L 24.910156 16.816406 L 22.480469 19.363281 L 18.222656 18.632812 Z M 22.808594 22.425781 L 21.722656 23.324219 L 20.628906 23 L 22.625 20.214844 Z M 22.152344 19.71875 L 20.402344 20.480469 L 20.296875 19.421875 Z M 19.546875 19.296875 L 19.078125 20.523438 L 18.230469 19.042969 Z M 19.109375 21.398438 L 19.882812 19.617188 L 20.070312 21.046875 L 22.148438 20.15625 L 20.167969 22.867188 L 18.195312 22.285156 L 18.191406 19.792969 Z M 18.179688 22.71875 L 21.359375 23.640625 L 18.179688 26.285156 Z M 14.449219 9.4375 L 17.011719 6.414062 L 17.234375 10.1875 L 16.675781 10.753906 L 18.4375 12.0625 L 15.667969 11.796875 L 17.429688 13.238281 L 14.785156 13.039062 L 15.933594 14.652344 L 13.804688 14.171875 L 10.296875 17.996094 L 10.066406 16.65625 L 12.296875 11.546875 L 12.023438 10.597656 L 13.28125 9.398438 Z M 13.140625 5.5625 L 13.007812 8.445312 L 12.101562 5.058594 L 11.953125 3.488281 Z M 9.601562 5.828125 L 10.78125 6.574219 L 10.550781 6.957031 Z M 9.289062 9.878906 L 11.832031 5.628906 L 12.808594 9.277344 L 11.492188 10.472656 L 11.808594 11.519531 L 9.617188 16.492188 L 8.417969 17.148438 Z M 5.8125 19.335938 L 5.386719 18.652344 L 8.027344 16.886719 L 7.972656 17.414062 L 10.359375 18.566406 L 13.957031 14.632812 L 16.902344 15.308594 L 15.628906 13.519531 L 17.78125 13.675781 L 17.78125 17.996094 L 17.777344 22.253906 L 12.515625 22.25 L 11.679688 19.871094 Z M 17.769531 26.628906 L 16.570312 27.617188 L 13.351562 24.738281 L 12.644531 22.667969 L 12.644531 22.660156 L 17.769531 22.664062 Z M 6.070312 19.777344 L 6.070312 19.773438 L 11.355469 20.253906 L 12.855469 24.523438 L 9.921875 26.210938 Z M 13.273438 30.4375 L 12.488281 31.109375 L 9.640625 31.101562 L 7.914062 27.863281 L 9.738281 26.761719 L 13.136719 28.90625 L 12.722656 29.65625 Z M 3.066406 27.945312 L 2.011719 26.464844 L 7.324219 22.664062 L 9.539062 26.367188 L 7.457031 27.636719 Z M 4.824219 34.121094 L 1.128906 34.117188 L 1.324219 33.585938 L 4.984375 33.589844 Z M 1.445312 33.179688 L 1.445312 31.84375 L 4.535156 30.007812 L 3.335938 28.34375 L 7.539062 28.042969 L 9.160156 31.105469 L 5.832031 31.097656 L 5.125 33.175781 Z M 11.941406 34.128906 L 5.257812 34.128906 L 6.132812 31.511719 L 12.640625 31.511719 L 13.476562 30.804688 L 14.335938 32.097656 Z M 14.644531 31.816406 L 13.195312 29.609375 L 13.679688 28.765625 L 10.175781 26.546875 L 12.960938 24.945312 L 16.242188 27.882812 L 14.304688 29.488281 L 15.144531 31.371094 Z M 16.535156 31.300781 L 15.535156 31.199219 L 15.128906 30.269531 L 17.121094 28.683594 L 17.820312 29.210938 L 18.015625 30.089844 Z M 18.074219 28.890625 L 17.113281 28.152344 L 14.949219 29.882812 L 14.820312 29.597656 L 16.921875 27.871094 L 23.125 22.683594 L 24.402344 23.382812 Z M 21.074219 29.011719 L 19.957031 27.800781 L 23.367188 24.832031 L 25.824219 27.917969 Z M 23.320312 33.160156 L 23.320312 31.453125 L 21.371094 29.351562 L 26.015625 28.300781 L 26.617188 29.964844 L 30.28125 31.902344 L 30.28125 33.15625 Z M 23.347656 33.578125 L 30.476562 33.578125 L 30.761719 34.171875 L 23.601562 34.171875 Z M 23.347656 33.578125 "/>
<path style=" stroke:none;fill-rule:nonzero;fill:rgb(0.392157%,0.392157%,0.392157%);fill-opacity:1;" d="M 14.445312 21.433594 C 15.671875 21.433594 16.679688 20.480469 16.746094 19.265625 C 16.8125 18.050781 15.914062 16.996094 14.695312 16.863281 L 14.695312 16.859375 C 14.679688 16.859375 14.664062 16.859375 14.648438 16.859375 C 14.582031 16.855469 14.515625 16.851562 14.445312 16.851562 C 13.175781 16.851562 12.144531 17.878906 12.144531 19.140625 C 12.144531 20.40625 13.175781 21.433594 14.445312 21.433594 Z M 13.421875 17.996094 C 13.597656 17.507812 14.011719 17.238281 14.636719 17.222656 C 15.457031 17.304688 16.140625 17.894531 16.332031 18.695312 C 16.351562 18.769531 16.363281 18.847656 16.371094 18.929688 C 16.371094 19.886719 15.964844 20.316406 15.054688 20.316406 C 14.101562 20.3125 13.332031 19.546875 13.328125 18.597656 C 13.324219 18.394531 13.359375 18.191406 13.421875 17.996094 Z M 12.886719 17.996094 C 12.964844 17.894531 13.050781 17.796875 13.148438 17.710938 C 13.105469 17.804688 13.070312 17.898438 13.042969 17.996094 C 12.988281 18.191406 12.964844 18.394531 12.964844 18.597656 C 12.964844 19.746094 13.902344 20.675781 15.054688 20.679688 C 15.285156 20.679688 15.511719 20.648438 15.734375 20.582031 C 14.992188 21.238281 13.871094 21.230469 13.140625 20.566406 C 12.40625 19.898438 12.296875 18.789062 12.886719 17.996094 Z M 12.886719 17.996094 "/>
<path style=" stroke:none;fill-rule:nonzero;fill:rgb(0.392157%,0.392157%,0.392157%);fill-opacity:1;" d="M 11.199219 11.105469 L 9.894531 10.671875 L 9.710938 11.152344 L 10.996094 11.566406 Z M 11.199219 11.105469 "/>
<path style=" stroke:none;fill-rule:nonzero;fill:rgb(0.392157%,0.392157%,0.392157%);fill-opacity:1;" d="M 11.46875 7.019531 L 10.132812 9.261719 L 10.890625 9.261719 Z M 11.46875 7.019531 "/>
<path style=" stroke:none;fill-rule:nonzero;fill:rgb(0.392157%,0.392157%,0.392157%);fill-opacity:1;" d="M 9.453125 15.8125 C 9.351562 15.8125 9.265625 15.898438 9.265625 16 C 9.265625 16.101562 9.351562 16.183594 9.453125 16.183594 C 9.554688 16.183594 9.640625 16.101562 9.640625 16 C 9.640625 15.949219 9.621094 15.902344 9.585938 15.867188 C 9.550781 15.832031 9.503906 15.8125 9.453125 15.8125 Z M 9.453125 15.8125 "/>
<path style=" stroke:none;fill-rule:nonzero;fill:rgb(0.392157%,0.392157%,0.392157%);fill-opacity:1;" d="M 9.539062 15.574219 C 9.644531 15.574219 9.726562 15.492188 9.726562 15.386719 C 9.726562 15.285156 9.640625 15.203125 9.539062 15.203125 C 9.4375 15.203125 9.355469 15.285156 9.355469 15.390625 C 9.355469 15.4375 9.375 15.484375 9.410156 15.519531 C 9.445312 15.554688 9.492188 15.574219 9.539062 15.574219 Z M 9.539062 15.574219 "/>
<path style=" stroke:none;fill-rule:nonzero;fill:rgb(0.392157%,0.392157%,0.392157%);fill-opacity:1;" d="M 9.628906 14.964844 C 9.730469 14.964844 9.8125 14.878906 9.8125 14.777344 C 9.8125 14.675781 9.730469 14.59375 9.628906 14.59375 C 9.523438 14.59375 9.441406 14.675781 9.441406 14.777344 C 9.441406 14.828125 9.460938 14.875 9.496094 14.910156 C 9.53125 14.945312 9.578125 14.964844 9.628906 14.964844 Z M 9.628906 14.964844 "/>
<path style=" stroke:none;fill-rule:nonzero;fill:rgb(0.392157%,0.392157%,0.392157%);fill-opacity:1;" d="M 8.929688 16.082031 C 8.828125 16.082031 8.746094 16.167969 8.746094 16.269531 C 8.746094 16.371094 8.828125 16.453125 8.929688 16.453125 C 9.035156 16.453125 9.117188 16.371094 9.117188 16.269531 C 9.117188 16.164062 9.035156 16.082031 8.929688 16.082031 Z M 8.929688 16.082031 "/>
<path style=" stroke:none;fill-rule:nonzero;fill:rgb(0.392157%,0.392157%,0.392157%);fill-opacity:1;" d="M 9.019531 15.472656 C 8.917969 15.472656 8.832031 15.554688 8.832031 15.65625 C 8.832031 15.757812 8.917969 15.84375 9.019531 15.84375 C 9.121094 15.84375 9.203125 15.761719 9.203125 15.65625 C 9.203125 15.554688 9.121094 15.472656 9.019531 15.472656 Z M 9.019531 15.472656 "/>
<path style=" stroke:none;fill-rule:nonzero;fill:rgb(0.392157%,0.392157%,0.392157%);fill-opacity:1;" d="M 9.105469 14.863281 C 9.003906 14.863281 8.921875 14.945312 8.921875 15.046875 C 8.921875 15.148438 9.003906 15.234375 9.105469 15.234375 C 9.210938 15.230469 9.292969 15.148438 9.292969 15.046875 C 9.292969 14.996094 9.273438 14.949219 9.238281 14.917969 C 9.203125 14.882812 9.15625 14.863281 9.105469 14.863281 Z M 9.105469 14.863281 "/>
<path style=" stroke:none;fill-rule:nonzero;fill:rgb(0.392157%,0.392157%,0.392157%);fill-opacity:1;" d="M 12.710938 12.15625 C 12.710938 12.671875 13.132812 13.089844 13.648438 13.089844 C 14.167969 13.089844 14.589844 12.671875 14.589844 12.15625 C 14.589844 11.640625 14.167969 11.222656 13.648438 11.222656 C 13.132812 11.222656 12.710938 11.640625 12.710938 12.15625 Z M 13.648438 11.652344 C 13.929688 11.652344 14.160156 11.878906 14.160156 12.160156 C 14.160156 12.441406 13.929688 12.667969 13.648438 12.667969 C 13.367188 12.667969 13.136719 12.441406 13.136719 12.160156 C 13.136719 11.878906 13.367188 11.652344 13.648438 11.652344 Z M 13.648438 11.652344 "/>
</g>
</svg>
