<?xml version="1.0" encoding="UTF-8"?>
<svg xmlns="http://www.w3.org/2000/svg" xmlns:xlink="http://www.w3.org/1999/xlink" width="32px" height="32px" viewBox="0 0 32 27" version="1.1">
<g id="surface1">
<path style=" stroke:none;fill-rule:nonzero;fill:rgb(0%,0%,0%);fill-opacity:1;" d="M 31.886719 17.601562 C 31.886719 16.46875 33.03125 12.273438 24.699219 5.925781 L 26.101562 5.621094 L 25.378906 3.324219 L 23.988281 4.21875 L 23.988281 2.828125 L 21.261719 2.828125 C 19.480469 1.585938 18.625 0 15.824219 0 C 14.65625 0 13.425781 0.222656 13.15625 0.222656 C 12.953125 0.222656 12.328125 0.0976562 11.265625 0.0976562 C 8.207031 0.0976562 7.921875 2.308594 8.304688 3.082031 C 4.277344 5.753906 2.285156 7.675781 2.285156 8.375 C 2.285156 8.640625 2.449219 8.988281 2.449219 9.492188 C 2.449219 10.589844 0 13.003906 0 14.285156 C 0 15.476562 1.570312 15.558594 1.570312 15.558594 C 1.660156 15.90625 1.050781 17.078125 1.597656 17.675781 C 0.839844 18.46875 1.722656 18.867188 1.722656 19.5 C 1.722656 19.925781 1.414062 20.058594 1.414062 20.851562 C 1.414062 21.753906 1.851562 22.835938 4.148438 22.835938 C 5.058594 22.835938 5.863281 22.699219 6.5 22.699219 C 6.679688 24.566406 7.503906 25.300781 7.640625 25.769531 C 7.75 26.144531 8.003906 26.953125 8.515625 26.953125 C 9.179688 26.953125 12.859375 25.789062 15.652344 24.148438 C 17.050781 24.648438 18.832031 24.488281 19.476562 24.488281 C 20.183594 24.488281 20.472656 24.902344 20.890625 24.902344 C 21.144531 24.902344 23.039062 22.851562 22.921875 18.359375 C 24.113281 20.304688 24.816406 21.570312 24.886719 22.296875 C 26.429688 21.765625 27.730469 18.234375 27.167969 15.984375 C 27.167969 15.984375 29.113281 19.035156 32.0625 18.585938 C 32.050781 18.59375 31.886719 18.03125 31.886719 17.601562 Z M 31.886719 17.601562 "/>
<path style=" stroke:none;fill-rule:nonzero;fill:rgb(81.960784%,54.117647%,0%);fill-opacity:1;" d="M 13.355469 20.390625 C 14.070312 19.332031 13.664062 17.507812 12.304688 18.011719 C 11.523438 16.773438 10.632812 15.097656 10.632812 13.023438 C 10.632812 10.816406 11.101562 10.238281 11.101562 8.285156 C 11.101562 4.960938 9.511719 4.304688 8.492188 3.636719 C 6.0625 5.226562 2.839844 7.40625 2.839844 8.5625 C 2.839844 8.90625 2.996094 9.226562 2.996094 9.5625 C 2.996094 10.761719 0.582031 13.09375 0.582031 14.222656 C 0.582031 14.648438 0.933594 15 1.492188 15 C 2.054688 15 3.480469 14.804688 4.019531 14.742188 C 4.554688 14.691406 4.613281 14.4375 4.613281 14.300781 C 4.613281 13.964844 4.0625 13.496094 3.644531 13.496094 C 3.296875 13.496094 3.265625 13.691406 3.265625 13.742188 C 3.265625 13.964844 3.59375 14.027344 3.59375 14.027344 C 4.011719 13.972656 4.011719 14.328125 3.613281 14.328125 C 3.289062 14.328125 2.921875 14.09375 2.921875 13.691406 C 2.921875 13.285156 3.257812 13.1875 3.503906 13.1875 C 4.546875 13.1875 5.148438 14.097656 4.976562 14.679688 C 6.269531 15.304688 6.234375 16.214844 6.019531 16.214844 C 5.570312 16.214844 5.882812 15.0625 4.199219 15.0625 C 3.726562 15.0625 2.738281 15.199219 2.503906 15.222656 C 2.277344 15.25 2.207031 15.28125 2.175781 15.46875 C 2.148438 15.652344 1.90625 16.328125 1.90625 16.738281 C 1.90625 17.351562 2.324219 17.390625 2.597656 17.390625 C 3.304688 17.390625 4.507812 17.226562 4.507812 16.953125 C 4.507812 16.773438 4.203125 16.828125 4.09375 16.828125 C 3.878906 16.828125 3.78125 16.703125 3.78125 16.628906 C 3.78125 16.445312 4.089844 16.359375 4.453125 16.359375 C 5.054688 16.359375 5.117188 16.742188 5.089844 16.917969 C 5.023438 17.3125 5.675781 17.214844 5.675781 18.050781 C 5.675781 18.148438 5.667969 18.386719 5.460938 18.386719 C 5.253906 18.386719 5.253906 18.136719 5.253906 17.996094 C 5.253906 17.859375 5.015625 17.636719 4.8125 17.636719 C 4.601562 17.636719 3.824219 18.023438 2.152344 17.878906 C 1.492188 18.679688 2.273438 18.738281 2.273438 19.546875 C 2.273438 20.449219 1.984375 20.394531 1.984375 20.945312 C 1.984375 22.042969 3.230469 22.328125 4.472656 22.328125 C 7.042969 22.328125 9.941406 21.753906 10.964844 19.972656 C 10.613281 21.546875 9.304688 22.105469 7.078125 22.597656 C 7.332031 24.34375 7.707031 24.746094 7.976562 25.214844 C 8.246094 25.691406 8.308594 26.351562 8.785156 26.351562 C 9.359375 26.351562 12.742188 25.171875 15.015625 23.84375 Z M 13.355469 20.390625 "/>
<path style=" stroke:none;fill-rule:nonzero;fill:rgb(0%,0%,0%);fill-opacity:1;" d="M 10.144531 16.941406 C 9.648438 16.421875 8.910156 14.914062 10.382812 13.621094 C 9.257812 13.328125 7.707031 16.242188 10.144531 16.941406 Z M 8.382812 6.878906 C 8.449219 6.957031 8.566406 6.96875 8.648438 6.902344 C 8.707031 6.851562 8.75 6.734375 8.671875 6.644531 C 8.648438 6.617188 8.15625 6.050781 7.464844 5.503906 C 7.546875 5.445312 7.652344 5.367188 7.769531 5.28125 C 8.0625 5.519531 9.199219 6.464844 9.914062 7.324219 C 9.984375 7.402344 10.101562 7.414062 10.179688 7.351562 C 10.261719 7.289062 10.273438 7.175781 10.210938 7.097656 C 9.511719 6.253906 8.457031 5.371094 8.082031 5.054688 C 8.207031 4.96875 8.3125 4.890625 8.367188 4.851562 C 9.136719 5.390625 9.570312 5.90625 9.574219 5.914062 C 9.640625 5.992188 9.757812 6.003906 9.839844 5.941406 C 9.921875 5.878906 9.9375 5.765625 9.871094 5.683594 C 9.847656 5.65625 9.359375 5.078125 8.476562 4.476562 C 8.40625 4.429688 8.320312 4.429688 8.25 4.480469 L 7.046875 5.351562 C 6.9375 5.429688 6.960938 5.574219 7.042969 5.640625 C 7.796875 6.207031 8.375 6.871094 8.382812 6.878906 Z M 8.023438 8.40625 C 6.875 8.40625 6.5 7.214844 5.058594 7.214844 C 4.289062 7.214844 3.890625 7.507812 3.890625 7.757812 C 3.890625 8.003906 4.191406 8.222656 4.191406 8.222656 C 4.335938 8.527344 3.332031 8.863281 3.859375 9.066406 L 4.507812 9.3125 C 4.296875 9.667969 4.433594 10.328125 4.472656 10.492188 C 3.148438 10.503906 3.277344 10.902344 4.425781 10.917969 C 4.429688 11.101562 4.292969 11.589844 4.5 11.589844 C 4.71875 11.589844 4.996094 11.34375 5.101562 10.878906 C 6.066406 10.761719 7.15625 10.441406 7.15625 10.441406 C 7.347656 10.390625 7.542969 10.21875 7.167969 10.003906 L 5.394531 8.992188 C 5.394531 8.992188 5.242188 8.90625 5.34375 8.683594 L 5.476562 8.378906 C 5.515625 8.289062 5.613281 8.273438 5.660156 8.273438 C 6.164062 8.273438 6.925781 9.007812 7.925781 9.007812 C 8.363281 9.007812 8.847656 8.757812 8.847656 8.523438 C 8.847656 8.285156 8.25 8.40625 8.023438 8.40625 Z M 8.023438 8.40625 "/>
<path style=" stroke:none;fill-rule:nonzero;fill:rgb(100%,100%,100%);fill-opacity:1;" d="M 5.277344 9.601562 C 5.175781 9.957031 5.246094 10.363281 5.269531 10.472656 C 6.410156 10.40625 6.875 10.203125 6.875 10.203125 L 5.273438 9.601562 Z M 3.523438 18.757812 C 3.398438 18.816406 3.90625 19.835938 3.8125 20.289062 C 3.890625 20.496094 4.207031 21.253906 4.738281 20.992188 C 5.269531 20.730469 4.820312 20.042969 4.691406 19.859375 C 4.253906 19.660156 3.648438 18.691406 3.523438 18.753906 Z M 8.214844 11.527344 C 7.773438 11.640625 7.371094 12.0625 6.574219 12.269531 C 6.28125 12.34375 5.761719 12.269531 5.609375 12.269531 C 5.730469 12.429688 6.046875 12.703125 6.046875 12.703125 C 6.046875 12.703125 5.929688 12.984375 5.90625 13.175781 C 6.039062 13.101562 6.425781 12.875 6.71875 12.800781 C 7.519531 12.597656 8.082031 12.777344 8.523438 12.664062 C 8.730469 12.609375 9.109375 12.507812 8.957031 11.941406 C 8.804688 11.378906 8.417969 11.472656 8.214844 11.527344 Z M 8.214844 11.527344 "/>
<path style=" stroke:none;fill-rule:nonzero;fill:rgb(81.176471%,3.921569%,17.254902%);fill-opacity:1;" d="M 12.890625 18.175781 C 12.402344 18.039062 11.828125 18.53125 11.601562 19.277344 C 11.378906 20.019531 11.59375 20.734375 12.078125 20.875 C 12.5625 21.011719 13.140625 20.519531 13.363281 19.773438 C 13.589844 19.027344 13.375 18.3125 12.890625 18.175781 Z M 4.089844 18.503906 C 3.851562 18.183594 3.722656 18.46875 3.46875 18.601562 C 3.21875 18.722656 2.898438 18.65625 3.03125 19.027344 C 3.175781 19.433594 2.871094 20.253906 3.003906 20.503906 C 3.113281 20.703125 3.34375 20.78125 3.53125 20.691406 C 3.699219 20.601562 3.78125 20.457031 3.8125 20.289062 C 3.90625 19.832031 3.632812 19.203125 3.757812 19.136719 C 3.878906 19.074219 4.25 19.660156 4.6875 19.855469 C 4.847656 19.925781 5.015625 19.949219 5.1875 19.867188 C 5.375 19.769531 5.445312 19.539062 5.339844 19.339844 C 5.207031 19.09375 4.34375 18.851562 4.089844 18.503906 Z M 7.53125 13.050781 C 7.398438 13.085938 7.199219 13.191406 6.875 13.277344 C 6.550781 13.363281 6.140625 13.363281 6.074219 13.121094 C 6.070312 13.101562 6.066406 13.078125 6.074219 13.054688 C 6.097656 12.859375 6.394531 12.601562 6.394531 12.601562 C 6.394531 12.601562 6.003906 12.515625 5.882812 12.355469 C 5.867188 12.339844 5.859375 12.320312 5.851562 12.296875 C 5.785156 12.058594 6.144531 11.863281 6.46875 11.78125 C 6.792969 11.695312 7.023438 11.695312 7.15625 11.664062 C 7.417969 11.597656 7.640625 11.429688 7.585938 11.226562 C 7.480469 10.851562 6.976562 10.941406 6.699219 11.011719 C 5.304688 11.367188 4.996094 11.921875 5.097656 12.308594 C 5.203125 12.691406 5.652344 12.789062 5.652344 12.789062 C 5.652344 12.789062 5.3125 13.089844 5.417969 13.472656 C 5.519531 13.855469 6.070312 14.1875 7.460938 13.835938 C 7.742188 13.761719 8.230469 13.601562 8.128906 13.230469 C 8.070312 13.023438 7.789062 12.984375 7.527344 13.050781 Z M 21.792969 5.601562 C 17.730469 8.546875 15.542969 12.933594 14.878906 14.4375 C 14.878906 14.4375 14.792969 14.613281 14.894531 14.804688 L 16.179688 17.230469 C 16.234375 17.332031 16.351562 17.347656 16.4375 17.273438 L 18.554688 15.421875 C 18.699219 15.292969 18.746094 15.089844 18.746094 15.089844 C 19.710938 9.742188 21.015625 7.128906 21.824219 5.945312 C 21.796875 5.859375 21.785156 5.769531 21.785156 5.679688 C 21.792969 5.652344 21.792969 5.628906 21.792969 5.601562 Z M 21.792969 5.601562 "/>
<path style=" stroke:none;fill-rule:nonzero;fill:rgb(0%,51.372549%,24.313725%);fill-opacity:1;" d="M 25.164062 4.035156 L 24.074219 4.734375 L 24.328125 5.539062 L 25.554688 5.277344 Z M 22.167969 6.488281 C 22.089844 6.421875 22.019531 6.34375 21.96875 6.253906 C 20.664062 8.273438 19.003906 13.328125 19.003906 17.652344 C 19.003906 22.078125 20.402344 24.429688 20.90625 24.429688 C 21.292969 24.429688 22.664062 22.058594 22.664062 19.003906 C 22.664062 18.171875 21.941406 14.824219 21.941406 8.546875 C 21.945312 7.203125 22.046875 6.84375 22.167969 6.492188 Z M 15.199219 14.566406 L 16.355469 16.980469 L 18.453125 15.097656 C 18.453125 15.097656 19.464844 9.386719 21.265625 6.238281 C 16.507812 10.707031 15.199219 14.566406 15.199219 14.566406 Z M 22.910156 4.863281 C 22.441406 4.863281 22.058594 5.230469 22.058594 5.683594 C 22.058594 6.136719 22.441406 6.503906 22.910156 6.503906 C 23.375 6.503906 23.757812 6.136719 23.757812 5.683594 C 23.757812 5.230469 23.375 4.863281 22.910156 4.863281 Z M 22.910156 4.863281 "/>
<path style=" stroke:none;fill-rule:nonzero;fill:rgb(100%,81.960784%,0%);fill-opacity:1;" d="M 19.59375 6.363281 C 19.875 6.363281 19.839844 5.996094 19.574219 5.996094 C 15.507812 5.996094 13.179688 6.492188 12.820312 6.578125 C 12.59375 4.648438 11.449219 4.03125 11.449219 2.785156 C 11.449219 2.300781 11.777344 2.203125 12.050781 2.203125 C 13 2.203125 13.714844 3.28125 15.03125 3.28125 C 16.257812 3.28125 16.519531 2.441406 17.222656 2.441406 C 18.269531 2.441406 17.808594 5.140625 19.664062 5.140625 C 20.25 5.140625 20.636719 4.914062 20.636719 4.914062 C 20.890625 4.777344 20.652344 4.488281 20.4375 4.597656 C 20.4375 4.597656 20.0625 4.78125 19.699219 4.78125 C 18.128906 4.78125 18.8125 2.074219 17.183594 2.074219 C 16.398438 2.074219 16.136719 2.90625 15.011719 2.90625 C 13.75 2.90625 13.25 1.816406 12 1.816406 C 11.292969 1.816406 11.039062 2.273438 11.039062 2.738281 C 11.039062 4.117188 12.445312 5.167969 12.445312 7.0625 C 12.445312 8.992188 11.765625 10.6875 11.765625 13.363281 C 11.765625 16.484375 14.832031 17.40625 14.832031 20.3125 C 14.832031 21.960938 15.484375 22.972656 16.210938 22.972656 C 16.613281 22.972656 16.988281 22.746094 17.164062 22.140625 C 17.269531 22.183594 17.363281 22.203125 17.449219 22.203125 C 17.652344 22.203125 18.414062 21.992188 18.414062 21.121094 C 18.414062 18.640625 14.011719 17.359375 14.011719 13.472656 C 14.011719 11.605469 14.320312 8.613281 14.792969 8.613281 C 15.042969 8.613281 15.351562 9.660156 15.945312 9.660156 C 16.679688 9.660156 16.425781 7.59375 16.75 7.59375 C 17.015625 7.59375 17.40625 8.558594 17.871094 8.558594 C 18.25 8.558594 18.375 7.8125 18.535156 7.222656 C 18.597656 6.949219 18.199219 6.875 18.140625 7.148438 C 18.039062 7.585938 17.824219 8.164062 17.824219 8.164062 C 17.582031 7.933594 17.195312 7.226562 16.730469 7.226562 C 15.984375 7.226562 16.09375 9.285156 15.921875 9.285156 C 15.609375 9.285156 15.414062 8.214844 14.734375 8.214844 C 13.855469 8.214844 13.597656 11.164062 13.597656 13.488281 C 13.597656 17.570312 18.007812 18.941406 18.007812 21.082031 C 18.007812 21.617188 17.601562 21.804688 17.4375 21.804688 C 17.371094 21.804688 17.304688 21.785156 17.238281 21.765625 C 17.261719 21.617188 17.269531 21.453125 17.269531 21.269531 C 17.269531 20.011719 16.554688 19.773438 16.261719 19.773438 C 15.972656 19.773438 15.808594 20.019531 15.808594 20.425781 C 15.808594 20.96875 16.304688 21.574219 16.789062 21.921875 C 16.714844 22.257812 16.5625 22.574219 16.238281 22.574219 C 15.605469 22.574219 15.242188 21.152344 15.242188 20.300781 C 15.242188 17.230469 12.179688 16.34375 12.179688 13.273438 C 12.179688 10.664062 12.863281 8.988281 12.863281 7.253906 C 12.863281 7.144531 12.859375 7.042969 12.855469 6.9375 C 13.273438 6.847656 15.898438 6.28125 19.59375 6.363281 Z M 19.59375 6.363281 "/>
<path style=" stroke:none;fill-rule:nonzero;fill:rgb(0%,0%,0%);fill-opacity:1;" d="M 16.335938 20.160156 C 16.277344 20.160156 16.21875 20.242188 16.21875 20.449219 C 16.21875 20.691406 16.496094 21.183594 16.84375 21.511719 C 16.851562 21.339844 16.851562 21.203125 16.851562 21.128906 C 16.851562 20.851562 16.691406 20.160156 16.335938 20.160156 Z M 16.335938 20.160156 "/>
<path style=" stroke:none;fill-rule:nonzero;fill:rgb(100%,81.960784%,0%);fill-opacity:1;" d="M 21.640625 7.335938 C 21.640625 7.335938 19.324219 12.054688 19.324219 17.554688 C 19.324219 21.199219 20.492188 23.980469 20.816406 23.980469 C 21.070312 23.980469 22.257812 22.246094 22.257812 18.628906 C 22.257812 17.167969 21.445312 11.617188 21.640625 7.335938 Z M 21.640625 7.335938 "/>
<path style=" stroke:none;fill-rule:nonzero;fill:rgb(0%,51.372549%,24.313725%);fill-opacity:1;" d="M 20.539062 14.265625 L 19.699219 14.890625 C 19.601562 15.671875 19.535156 16.484375 19.523438 17.316406 L 20.445312 16.707031 C 20.453125 15.996094 20.476562 15.183594 20.539062 14.261719 Z M 21.15625 10.570312 C 21.011719 11.765625 20.898438 12.964844 20.820312 14.167969 L 21.753906 14.835938 C 21.628906 13.503906 21.496094 12.011719 21.441406 10.585938 C 21.433594 10.382812 21.199219 10.195312 21.15625 10.570312 Z M 20.71875 16.847656 L 22.015625 17.710938 C 21.96875 17.015625 21.875 16.109375 21.777344 15.105469 L 20.804688 14.40625 C 20.753906 15.21875 20.726562 16.03125 20.71875 16.847656 Z M 20.875 10.578125 C 20.90625 10.332031 20.695312 10.371094 20.652344 10.515625 C 20.300781 11.664062 19.953125 13.070312 19.734375 14.605469 L 20.550781 14 C 20.628906 12.855469 20.738281 11.714844 20.875 10.578125 Z M 19.726562 20.199219 C 19.792969 20.621094 19.867188 21.011719 19.957031 21.363281 C 20.089844 21.503906 20.464844 21.761719 20.777344 20.847656 C 21.316406 21.707031 21.652344 21.59375 21.757812 21.519531 C 21.828125 21.203125 21.894531 20.855469 21.945312 20.46875 L 20.660156 19.640625 Z M 20.796875 19.480469 L 21.976562 20.242188 C 22.035156 19.710938 22.0625 19.171875 22.0625 18.632812 C 22.0625 18.453125 22.050781 18.234375 22.039062 17.976562 L 20.71875 17.101562 C 20.714844 18.1875 20.761719 18.980469 20.796875 19.480469 Z M 20.441406 16.960938 L 19.523438 17.566406 C 19.523438 18.4375 19.589844 19.25 19.695312 19.976562 L 20.523438 19.480469 C 20.476562 18.945312 20.4375 18.101562 20.441406 16.960938 Z M 20.441406 16.960938 "/>
<path style=" stroke:none;fill-rule:nonzero;fill:rgb(81.176471%,3.921569%,17.254902%);fill-opacity:1;" d="M 16.765625 11.972656 C 16.203125 12.871094 15.746094 13.824219 15.542969 14.265625 C 15.464844 14.453125 15.429688 14.558594 15.429688 14.558594 L 16.421875 16.625 L 18.242188 14.980469 C 18.265625 14.890625 18.429688 14.011719 18.710938 12.824219 C 19.121094 11.140625 19.808594 8.679688 20.5625 7.183594 C 18.898438 8.921875 17.554688 10.753906 16.765625 11.972656 Z M 16.765625 11.972656 "/>
<path style=" stroke:none;fill-rule:nonzero;fill:rgb(81.176471%,3.921569%,17.254902%);fill-opacity:1;" d="M 23.449219 5.683594 C 23.449219 5.972656 23.207031 6.207031 22.910156 6.207031 C 22.609375 6.207031 22.367188 5.972656 22.367188 5.683594 C 22.367188 5.390625 22.609375 5.15625 22.910156 5.15625 C 23.207031 5.15625 23.449219 5.390625 23.449219 5.683594 Z M 23.449219 5.683594 "/>
<path style=" stroke:none;fill-rule:nonzero;fill:rgb(100%,100%,100%);fill-opacity:1;" d="M 19.230469 9.097656 C 19.183594 9.074219 19.121094 9.09375 19.101562 9.140625 C 18.75 9.8125 18.421875 10.496094 18.113281 11.1875 L 16.953125 11.683594 C 16.886719 11.78125 16.828125 11.875 16.769531 11.972656 L 17.996094 11.445312 C 17.675781 12.171875 17.417969 12.832031 17.199219 13.40625 L 15.65625 14.011719 C 15.617188 14.09375 15.582031 14.175781 15.546875 14.261719 L 17.109375 13.644531 C 16.632812 14.964844 16.433594 15.777344 16.429688 15.792969 C 16.417969 15.839844 16.449219 15.898438 16.503906 15.902344 C 16.53125 15.90625 16.554688 15.902344 16.578125 15.890625 C 16.601562 15.875 16.617188 15.851562 16.621094 15.828125 C 16.625 15.816406 16.8125 15.039062 17.273438 13.761719 L 18.105469 15.113281 L 18.246094 14.980469 L 18.25 14.976562 L 17.359375 13.53125 C 17.554688 13.003906 17.789062 12.40625 18.070312 11.75 L 18.714844 12.820312 C 18.734375 12.730469 18.753906 12.640625 18.777344 12.550781 L 18.167969 11.53125 C 18.480469 10.820312 18.84375 10.042969 19.277344 9.222656 C 19.300781 9.179688 19.277344 9.125 19.230469 9.097656 Z M 19.230469 9.097656 "/>
<path style=" stroke:none;fill-rule:nonzero;fill:rgb(100%,40.392157%,10.588235%);fill-opacity:1;" d="M 23.523438 3.261719 L 21.738281 3.261719 L 22.878906 4.460938 L 23.523438 4.460938 Z M 30.152344 11.882812 C 28.207031 8.851562 24.804688 6.304688 24.023438 5.742188 C 24.011719 5.914062 23.839844 6.203125 23.753906 6.34375 C 23.648438 6.453125 23.523438 6.582031 23.464844 6.617188 C 23.597656 7.140625 23.804688 7.886719 24.078125 8.757812 C 24.492188 9.71875 24.945312 10.90625 25.335938 12.144531 C 25.777344 13.167969 26.292969 14.191406 26.875 15.09375 C 29.285156 18.84375 31.695312 18.328125 31.695312 18.328125 C 31.28125 17.691406 32.492188 15.527344 30.152344 11.882812 Z M 30.152344 11.882812 "/>
<path style=" stroke:none;fill-rule:nonzero;fill:rgb(100%,100%,100%);fill-opacity:1;" d="M 29.433594 12.097656 C 27.894531 9.703125 24.621094 6.851562 23.878906 6.21875 C 23.835938 6.296875 23.777344 6.371094 23.710938 6.4375 C 24.179688 7.726562 26.003906 12.554688 27.683594 15.167969 C 29.320312 17.722656 30.925781 17.597656 30.925781 17.597656 C 30.925781 17.597656 31.464844 15.261719 29.433594 12.097656 Z M 29.433594 12.097656 "/>
<path style=" stroke:none;fill-rule:nonzero;fill:rgb(100%,40.392157%,10.588235%);fill-opacity:1;" d="M 23.957031 6.550781 C 24.21875 7.253906 24.734375 8.609375 25.371094 10.109375 L 25.542969 9.203125 L 24.710938 7.90625 C 24.695312 7.882812 24.691406 7.855469 24.699219 7.832031 C 24.703125 7.804688 24.71875 7.785156 24.742188 7.769531 C 24.792969 7.746094 24.851562 7.757812 24.875 7.804688 L 25.679688 9.042969 L 26.914062 9.339844 C 25.734375 8.117188 24.539062 7.050781 23.957031 6.550781 Z M 23.957031 6.550781 "/>
<path style=" stroke:none;fill-rule:nonzero;fill:rgb(100%,40.392157%,10.588235%);fill-opacity:1;" d="M 25.820312 9.277344 L 27.296875 11.574219 L 29.210938 12.121094 C 28.671875 11.296875 27.929688 10.417969 27.15625 9.597656 Z M 25.507812 10.4375 C 25.867188 11.273438 26.261719 12.140625 26.667969 12.953125 L 27.148438 11.703125 L 25.695312 9.445312 Z M 30.757812 17.402344 C 30.800781 17.039062 30.867188 16.074219 30.460938 14.742188 L 29.191406 14.519531 L 29.9375 15.683594 C 29.96875 15.722656 29.953125 15.785156 29.902344 15.8125 C 29.859375 15.839844 29.792969 15.828125 29.765625 15.78125 L 29.011719 14.601562 L 28.53125 15.988281 C 29.527344 17.132812 30.414062 17.355469 30.757812 17.402344 Z M 27.453125 11.816406 L 29.046875 14.300781 L 30.394531 14.535156 C 30.179688 13.886719 29.855469 13.152344 29.367188 12.367188 Z M 28.382812 15.816406 L 28.878906 14.394531 L 27.285156 11.90625 L 26.792969 13.191406 C 27.140625 13.878906 27.496094 14.519531 27.847656 15.066406 C 28.03125 15.347656 28.207031 15.597656 28.382812 15.8125 Z M 28.382812 15.816406 "/>
<path style=" stroke:none;fill-rule:nonzero;fill:rgb(81.960784%,54.117647%,0%);fill-opacity:1;" d="M 5.113281 8.15625 L 4.390625 8.339844 C 4.238281 8.378906 4.230469 8.464844 4.375 8.53125 L 4.921875 8.785156 C 4.949219 8.800781 4.980469 8.800781 5.007812 8.792969 C 5.035156 8.78125 5.058594 8.761719 5.070312 8.734375 L 5.257812 8.316406 C 5.3125 8.195312 5.246094 8.121094 5.113281 8.15625 Z M 5.113281 8.15625 "/>
<path style=" stroke:none;fill-rule:nonzero;fill:rgb(81.960784%,54.117647%,0%);fill-opacity:1;" d="M 12.742188 18.671875 C 12.472656 18.59375 12.136719 18.917969 11.996094 19.390625 C 11.855469 19.863281 11.957031 20.304688 12.230469 20.382812 C 12.5 20.457031 12.835938 20.136719 12.976562 19.664062 C 13.117188 19.191406 13.015625 18.746094 12.742188 18.671875 Z M 12.742188 18.671875 "/>
<path style=" stroke:none;fill-rule:nonzero;fill:rgb(100%,81.960784%,0%);fill-opacity:1;" d="M 25.335938 12.148438 C 24.949219 10.910156 24.492188 9.722656 24.082031 8.757812 C 23.804688 7.890625 23.597656 7.140625 23.464844 6.621094 C 23.226562 6.75 22.945312 6.792969 22.675781 6.738281 C 22.570312 6.71875 22.476562 6.679688 22.382812 6.632812 C 22.039062 14.382812 22.832031 15.722656 22.976562 17.9375 C 24.996094 21.019531 25.070312 21.917969 25.070312 21.917969 C 25.070312 21.917969 27.429688 20.316406 26.886719 15.566406 C 26.8125 15.453125 26.734375 15.339844 26.664062 15.226562 C 26.324219 14.695312 26.015625 14.148438 25.734375 13.589844 "/>
<path style=" stroke:none;fill-rule:nonzero;fill:rgb(0%,9.803922%,43.921569%);fill-opacity:1;" d="M 26.003906 14.890625 C 25.929688 14.453125 25.839844 14.019531 25.734375 13.589844 C 25.617188 13.105469 25.476562 12.625 25.332031 12.148438 C 24.945312 10.914062 24.484375 9.726562 24.078125 8.761719 C 23.675781 7.816406 23.328125 7.085938 23.160156 6.738281 C 23.078125 6.753906 22.992188 6.765625 22.90625 6.765625 C 22.828125 6.765625 22.746094 6.757812 22.675781 6.742188 C 22.597656 7.574219 22.324219 11.140625 22.847656 14.351562 C 23.597656 18.953125 25.40625 20.621094 25.40625 20.621094 C 25.40625 20.621094 26.65625 18.882812 26 14.890625 Z M 26.003906 14.890625 "/>
<path style=" stroke:none;fill-rule:nonzero;fill:rgb(100%,81.960784%,0%);fill-opacity:1;" d="M 23.683594 11.960938 L 23.0625 8.144531 C 23.03125 7.972656 22.796875 7.992188 22.785156 8.242188 C 22.734375 9.402344 22.714844 11.035156 22.859375 12.703125 Z M 24.34375 15.984375 L 24.035156 14.097656 L 23.167969 14.933594 C 23.304688 15.632812 23.46875 16.257812 23.640625 16.816406 Z M 22.878906 12.957031 C 22.921875 13.410156 22.984375 13.867188 23.058594 14.316406 C 23.078125 14.445312 23.097656 14.570312 23.117188 14.691406 L 23.996094 13.855469 L 23.726562 12.199219 Z M 23.265625 8.113281 C 23.265625 8.113281 23.589844 10.089844 23.898438 11.980469 L 25.289062 12.738281 C 24.773438 10.9375 24.042969 9.175781 23.519531 8.003906 C 23.464844 7.855469 23.230469 7.886719 23.265625 8.113281 Z M 24.882812 18.167969 C 24.867188 18.105469 24.507812 16.6875 24.394531 16.238281 L 23.714844 17.046875 C 23.960938 17.785156 24.226562 18.398438 24.476562 18.878906 C 24.605469 18.648438 24.855469 18.214844 24.882812 18.167969 Z M 23.9375 12.234375 C 24.03125 12.785156 24.121094 13.328125 24.199219 13.828125 L 25.761719 14.691406 C 25.660156 14.140625 25.527344 13.578125 25.371094 13.015625 Z M 24.238281 14.082031 C 24.386719 14.972656 24.503906 15.683594 24.546875 15.949219 L 25.976562 16.699219 C 25.960938 16.171875 25.90625 15.589844 25.804688 14.941406 Z M 25.796875 18.980469 L 25.023438 18.335938 L 24.589844 19.097656 C 24.910156 19.679688 25.195312 20.0625 25.371094 20.269531 C 25.488281 20.03125 25.660156 19.609375 25.796875 18.980469 Z M 25.980469 16.929688 L 24.601562 16.210938 C 24.707031 16.625 25.007812 17.824219 25.085938 18.128906 L 25.839844 18.757812 C 25.929688 18.257812 25.992188 17.648438 25.980469 16.929688 Z M 25.980469 16.929688 "/>
</g>
</svg>
