<?xml version="1.0" encoding="UTF-8"?>
<svg xmlns="http://www.w3.org/2000/svg" xmlns:xlink="http://www.w3.org/1999/xlink" width="32px" height="32px" viewBox="0 0 32 32" version="1.1">
<g id="surface1">
<path style=" stroke:none;fill-rule:nonzero;fill:rgb(100%,100%,100%);fill-opacity:1;" d="M 16.007812 32.023438 C 24.851562 32.023438 32.015625 24.859375 32.015625 16.015625 C 32.023438 7.171875 24.851562 0 16.007812 0 C 7.164062 0 0 7.171875 0 16.007812 C 0 24.851562 7.164062 32.023438 16.007812 32.023438 M 16.007812 1.042969 C 17.019531 3.570312 18.59375 4.53125 18.59375 6.339844 C 18.59375 7.574219 17.574219 8.78125 16.007812 8.78125 C 14.449219 8.78125 13.425781 7.578125 13.425781 6.339844 C 13.429688 4.53125 14.996094 3.570312 16.007812 1.042969 M 15.121094 0.769531 C 13.296875 3.636719 12.46875 4.691406 12.46875 6.296875 C 12.46875 8.21875 14.085938 9.78125 16.015625 9.78125 C 17.9375 9.78125 19.558594 8.21875 19.558594 6.296875 C 19.558594 4.691406 18.734375 3.636719 16.910156 0.769531 C 24.925781 1.234375 31.289062 7.882812 31.289062 16.015625 C 31.289062 24.449219 24.449219 31.28125 16.019531 31.28125 C 7.578125 31.28125 0.738281 24.445312 0.738281 16.007812 C 0.738281 7.875 7.105469 1.226562 15.121094 0.769531 "/>
<path style=" stroke:none;fill-rule:nonzero;fill:rgb(100%,100%,100%);fill-opacity:1;" d="M 6.414062 13.992188 C 6.09375 13.992188 5.832031 14.25 5.832031 14.570312 L 5.832031 19.265625 C 5.832031 19.585938 6.09375 19.84375 6.414062 19.84375 C 6.734375 19.84375 6.992188 19.585938 6.992188 19.265625 L 6.992188 14.570312 C 6.992188 14.25 6.734375 13.992188 6.414062 13.992188 "/>
<path style=" stroke:none;fill-rule:nonzero;fill:rgb(100%,100%,100%);fill-opacity:1;" d="M 21.460938 15.738281 C 21.738281 15.738281 21.960938 15.515625 21.960938 15.238281 L 21.960938 14.492188 C 21.960938 14.214844 21.738281 13.992188 21.460938 13.992188 C 21.183594 13.992188 20.960938 14.214844 20.960938 14.492188 L 20.960938 15.238281 C 20.960938 15.515625 21.183594 15.738281 21.460938 15.738281 "/>
<path style=" stroke:none;fill-rule:nonzero;fill:rgb(100%,100%,100%);fill-opacity:1;" d="M 16.007812 29.890625 C 23.671875 29.890625 29.890625 23.671875 29.890625 16.007812 C 29.890625 9.578125 25.515625 4.167969 19.578125 2.589844 C 19.894531 2.984375 20.941406 4.425781 20.941406 6.289062 C 20.941406 8.980469 18.726562 11.167969 16.007812 11.167969 C 13.289062 11.167969 11.074219 8.980469 11.074219 6.289062 C 11.074219 4.425781 12.125 2.984375 12.4375 2.589844 C 6.503906 4.167969 2.132812 9.582031 2.132812 16.007812 C 2.132812 23.671875 8.34375 29.890625 16.007812 29.890625 M 24.019531 17.671875 L 25.019531 17.671875 L 25.019531 19.253906 C 25.019531 19.578125 25.28125 19.839844 25.605469 19.839844 C 25.929688 19.839844 26.191406 19.574219 26.191406 19.253906 L 26.191406 18.578125 C 26.191406 18.417969 26.089844 18.199219 25.972656 18.09375 L 24.234375 16.546875 C 24.113281 16.441406 24.019531 16.21875 24.019531 16.058594 L 24.019531 13.03125 C 24.019531 12.425781 24.511719 11.933594 25.117188 11.933594 L 26.410156 11.933594 C 27.015625 11.933594 27.507812 12.425781 27.507812 13.03125 L 27.507812 15.292969 L 26.191406 15.292969 L 26.191406 14.410156 C 26.191406 14.175781 26 13.984375 25.765625 13.984375 C 25.53125 13.984375 25.339844 14.175781 25.339844 14.410156 L 25.339844 15.441406 C 25.339844 15.601562 25.4375 15.824219 25.558594 15.929688 L 27.300781 17.480469 C 27.417969 17.585938 27.515625 17.808594 27.515625 17.96875 L 27.515625 18.414062 C 27.515625 21.515625 26.175781 24.308594 24.019531 26.3125 Z M 19.214844 19.84375 C 19.449219 19.84375 19.640625 19.652344 19.640625 19.425781 L 19.640625 14.417969 C 19.640625 14.183594 19.449219 13.992188 19.214844 13.992188 L 19.214844 11.933594 L 22.179688 11.933594 C 22.785156 11.933594 23.277344 12.425781 23.277344 13.03125 L 23.277344 15.738281 C 23.277344 16.15625 22.804688 16.347656 22.804688 16.347656 C 22.804688 16.347656 23.277344 16.539062 23.277344 16.957031 L 23.277344 19.417969 C 23.277344 19.652344 23.46875 19.839844 23.703125 19.839844 L 23.703125 25.523438 C 23.703125 26.597656 23.433594 26.824219 23.433594 26.824219 C 22.914062 27.242188 22.359375 27.621094 21.773438 27.945312 C 21.828125 27.75 21.871094 27.519531 21.871094 27.238281 L 21.871094 17.414062 C 21.871094 17.160156 21.667969 16.957031 21.417969 16.957031 C 21.164062 16.957031 20.960938 17.160156 20.960938 17.414062 L 20.960938 19.246094 C 20.960938 19.574219 21.226562 19.839844 21.550781 19.839844 L 21.550781 27.140625 C 21.550781 28.0625 21.046875 28.3125 21.046875 28.3125 C 20.335938 28.636719 19.589844 28.898438 18.8125 29.085938 C 19.046875 28.851562 19.222656 28.527344 19.222656 28.101562 L 19.222656 19.84375 Z M 14.6875 11.925781 L 18.902344 11.925781 L 18.902344 15.292969 L 17.902344 15.292969 L 17.902344 14.566406 C 17.902344 14.246094 17.644531 13.984375 17.320312 13.984375 C 17 13.984375 16.742188 14.246094 16.742188 14.566406 L 16.742188 15.738281 L 17.894531 15.738281 L 17.894531 17.242188 L 16.742188 17.242188 L 16.742188 19.269531 C 16.742188 19.589844 17 19.851562 17.320312 19.851562 C 17.644531 19.851562 17.902344 19.589844 17.902344 19.269531 L 17.902344 17.679688 L 18.902344 17.679688 L 18.902344 28.105469 C 18.902344 29.074219 17.804688 29.292969 17.804688 29.292969 C 17.21875 29.378906 16.617188 29.425781 16.007812 29.425781 C 15.507812 29.425781 15.015625 29.394531 14.535156 29.335938 C 14.6875 29.234375 15.003906 28.957031 15.003906 28.355469 L 15.003906 19.84375 C 15.238281 19.84375 15.421875 19.652344 15.421875 19.425781 L 15.421875 14.730469 C 15.421875 14.324219 15.089844 13.992188 14.683594 13.992188 L 14.683594 11.925781 Z M 11.105469 27.25 L 11.105469 19.84375 C 11.339844 19.84375 11.523438 19.652344 11.523438 19.425781 L 11.523438 14.417969 C 11.523438 14.183594 11.335938 13.992188 11.105469 13.992188 L 11.105469 11.933594 L 13.269531 11.933594 L 13.269531 13.992188 C 13.035156 13.992188 12.851562 14.183594 12.851562 14.417969 L 12.851562 19.425781 C 12.851562 19.660156 13.042969 19.84375 13.269531 19.84375 C 13.503906 19.84375 13.691406 19.652344 13.691406 19.425781 L 13.691406 17.679688 L 14.6875 17.679688 L 14.6875 28.355469 C 14.6875 29.351562 13.691406 29.203125 13.691406 29.203125 C 12.597656 28.988281 11.5625 28.632812 10.605469 28.144531 C 10.773438 28.078125 11.105469 27.871094 11.105469 27.25 M 8.628906 24.886719 L 8.628906 19.84375 C 8.863281 19.84375 9.046875 19.652344 9.046875 19.425781 L 9.046875 14.417969 C 9.046875 14.183594 8.855469 13.992188 8.628906 13.992188 L 8.628906 11.933594 L 10.792969 11.933594 L 10.792969 13.992188 C 10.558594 13.992188 10.371094 14.183594 10.371094 14.417969 L 10.371094 19.425781 C 10.371094 19.660156 10.5625 19.84375 10.792969 19.84375 L 10.792969 27.25 C 10.792969 28.105469 10.039062 27.824219 10.039062 27.824219 C 9.21875 27.347656 8.464844 26.773438 7.800781 26.121094 C 8.085938 26.109375 8.628906 25.941406 8.628906 24.886719 M 4.507812 13.023438 C 4.507812 12.417969 5 11.925781 5.605469 11.925781 L 7.207031 11.925781 C 7.8125 11.925781 8.304688 12.417969 8.304688 13.023438 L 8.304688 24.886719 C 8.304688 26.058594 7.542969 25.9375 7.207031 25.503906 C 5.519531 23.59375 4.5 21.121094 4.5 18.417969 L 4.5 13.023438 Z M 4.507812 13.023438 "/>
<path style=" stroke:none;fill-rule:nonzero;fill:rgb(0%,12.54902%,35.686275%);fill-opacity:1;" d="M 29.136719 28.316406 C 29.136719 27.859375 28.765625 27.496094 28.316406 27.496094 C 27.859375 27.496094 27.496094 27.867188 27.496094 28.316406 C 27.496094 28.773438 27.867188 29.144531 28.316406 29.144531 C 28.765625 29.136719 29.136719 28.765625 29.136719 28.316406 M 27.667969 28.316406 C 27.667969 27.960938 27.960938 27.667969 28.316406 27.667969 C 28.675781 27.667969 28.964844 27.960938 28.964844 28.316406 C 28.964844 28.675781 28.675781 28.964844 28.316406 28.964844 C 27.960938 28.964844 27.667969 28.675781 27.667969 28.316406 "/>
<path style=" stroke:none;fill-rule:nonzero;fill:rgb(0%,12.54902%,35.686275%);fill-opacity:1;" d="M 28.65625 28.785156 L 28.472656 28.386719 C 28.582031 28.347656 28.65625 28.242188 28.65625 28.121094 C 28.65625 27.964844 28.53125 27.84375 28.378906 27.84375 L 27.984375 27.84375 L 27.984375 28.785156 L 28.164062 28.785156 L 28.164062 28.402344 L 28.292969 28.402344 L 28.472656 28.785156 Z M 28.371094 28.222656 L 28.152344 28.222656 L 28.152344 28.019531 L 28.371094 28.019531 C 28.429688 28.019531 28.476562 28.0625 28.476562 28.125 C 28.476562 28.179688 28.429688 28.222656 28.371094 28.222656 "/>
<path style=" stroke:none;fill-rule:nonzero;fill:rgb(81.960784%,27.058824%,12.54902%);fill-opacity:1;" d="M 18.59375 6.34375 C 18.59375 4.539062 17.027344 3.570312 16.007812 1.046875 C 14.996094 3.578125 13.425781 4.539062 13.425781 6.34375 C 13.425781 7.578125 14.449219 8.789062 16.007812 8.789062 C 17.574219 8.78125 18.59375 7.578125 18.59375 6.34375 "/>
<path style=" stroke:none;fill-rule:nonzero;fill:rgb(0%,12.54902%,35.686275%);fill-opacity:1;" d="M 16.902344 0.769531 C 18.726562 3.636719 19.554688 4.691406 19.554688 6.296875 C 19.554688 8.21875 17.9375 9.78125 16.007812 9.78125 C 14.085938 9.78125 12.460938 8.21875 12.460938 6.296875 C 12.460938 4.691406 13.289062 3.636719 15.113281 0.769531 C 7.105469 1.226562 0.738281 7.875 0.738281 16.007812 C 0.738281 24.445312 7.578125 31.277344 16.007812 31.277344 C 24.445312 31.277344 31.277344 24.4375 31.277344 16.007812 C 31.28125 7.875 24.917969 1.226562 16.902344 0.769531 M 16.007812 29.890625 C 8.34375 29.890625 2.128906 23.671875 2.128906 16.007812 C 2.128906 9.578125 6.5 4.167969 12.4375 2.589844 C 12.125 2.984375 11.074219 4.425781 11.074219 6.289062 C 11.074219 8.980469 13.289062 11.167969 16.007812 11.167969 C 18.726562 11.167969 20.941406 8.980469 20.941406 6.289062 C 20.941406 4.425781 19.894531 2.984375 19.578125 2.589844 C 25.515625 4.167969 29.890625 9.578125 29.890625 16.007812 C 29.890625 23.671875 23.671875 29.890625 16.007812 29.890625 "/>
<path style=" stroke:none;fill-rule:nonzero;fill:rgb(0%,12.54902%,35.686275%);fill-opacity:1;" d="M 18.902344 17.671875 L 17.90625 17.671875 L 17.90625 19.265625 C 17.90625 19.585938 17.648438 19.84375 17.328125 19.84375 C 17.007812 19.84375 16.75 19.585938 16.75 19.265625 L 16.75 17.234375 L 17.902344 17.234375 L 17.902344 15.730469 L 16.75 15.730469 L 16.75 14.558594 C 16.75 14.238281 17.007812 13.980469 17.328125 13.980469 C 17.648438 13.980469 17.90625 14.238281 17.90625 14.558594 L 17.90625 15.292969 L 18.902344 15.292969 L 18.902344 11.925781 L 14.6875 11.925781 L 14.6875 13.984375 C 15.097656 13.984375 15.429688 14.3125 15.429688 14.726562 L 15.429688 19.417969 C 15.429688 19.652344 15.238281 19.839844 15.007812 19.839844 L 15.007812 28.339844 C 15.007812 28.953125 14.6875 29.222656 14.539062 29.320312 C 15.023438 29.382812 15.515625 29.414062 16.015625 29.414062 C 16.625 29.414062 17.222656 29.367188 17.808594 29.277344 C 17.808594 29.277344 18.90625 29.0625 18.90625 28.09375 L 18.90625 17.671875 Z M 18.902344 17.671875 "/>
<path style=" stroke:none;fill-rule:nonzero;fill:rgb(0%,12.54902%,35.686275%);fill-opacity:1;" d="M 14.6875 17.671875 L 13.691406 17.671875 L 13.691406 19.425781 C 13.691406 19.660156 13.5 19.84375 13.269531 19.84375 C 13.035156 19.84375 12.851562 19.652344 12.851562 19.425781 L 12.851562 14.410156 C 12.851562 14.175781 13.042969 13.984375 13.269531 13.984375 L 13.269531 11.925781 L 11.105469 11.925781 L 11.105469 13.984375 C 11.339844 13.984375 11.523438 14.175781 11.523438 14.410156 L 11.523438 19.417969 C 11.523438 19.652344 11.335938 19.839844 11.105469 19.839844 L 11.105469 27.242188 C 11.105469 27.859375 10.765625 28.0625 10.605469 28.125 C 11.5625 28.613281 12.597656 28.976562 13.691406 29.1875 C 13.691406 29.1875 14.6875 29.339844 14.6875 28.335938 Z M 14.6875 17.671875 "/>
<path style=" stroke:none;fill-rule:nonzero;fill:rgb(0%,12.54902%,35.686275%);fill-opacity:1;" d="M 10.792969 27.25 L 10.792969 19.84375 C 10.558594 19.84375 10.371094 19.652344 10.371094 19.425781 L 10.371094 14.417969 C 10.371094 14.183594 10.5625 14 10.792969 14 L 10.792969 11.9375 L 8.628906 11.9375 L 8.628906 14 C 8.863281 14 9.046875 14.1875 9.046875 14.417969 L 9.046875 19.425781 C 9.046875 19.660156 8.855469 19.84375 8.628906 19.84375 L 8.628906 24.886719 C 8.628906 25.941406 8.085938 26.109375 7.808594 26.121094 C 8.472656 26.773438 9.226562 27.347656 10.046875 27.824219 C 10.046875 27.828125 10.792969 28.113281 10.792969 27.25 "/>
<path style=" stroke:none;fill-rule:nonzero;fill:rgb(0%,12.54902%,35.686275%);fill-opacity:1;" d="M 27.507812 15.292969 L 27.507812 13.023438 C 27.507812 12.417969 27.015625 11.925781 26.410156 11.925781 L 25.117188 11.925781 C 24.511719 11.925781 24.019531 12.417969 24.019531 13.023438 L 24.019531 16.050781 C 24.019531 16.210938 24.117188 16.433594 24.234375 16.539062 L 25.96875 18.09375 C 26.085938 18.199219 26.183594 18.417969 26.183594 18.578125 L 26.183594 19.253906 C 26.183594 19.578125 25.917969 19.839844 25.597656 19.839844 C 25.269531 19.839844 25.011719 19.574219 25.011719 19.253906 L 25.011719 17.671875 L 24.011719 17.671875 L 24.011719 26.3125 C 26.164062 24.316406 27.507812 21.515625 27.507812 18.414062 L 27.507812 17.96875 C 27.507812 17.808594 27.410156 17.585938 27.292969 17.480469 L 25.558594 15.929688 C 25.4375 15.816406 25.339844 15.601562 25.339844 15.441406 L 25.339844 14.410156 C 25.339844 14.175781 25.53125 13.984375 25.765625 13.984375 C 26 13.984375 26.191406 14.175781 26.191406 14.410156 L 26.191406 15.292969 Z M 27.507812 15.292969 "/>
<path style=" stroke:none;fill-rule:nonzero;fill:rgb(0%,12.54902%,35.686275%);fill-opacity:1;" d="M 8.3125 24.886719 L 8.3125 13.023438 C 8.3125 12.417969 7.820312 11.925781 7.214844 11.925781 L 5.613281 11.925781 C 5.007812 11.925781 4.515625 12.417969 4.515625 13.023438 L 4.515625 18.417969 C 4.515625 21.121094 5.53125 23.59375 7.222656 25.503906 C 7.542969 25.9375 8.3125 26.058594 8.3125 24.886719 M 6.992188 19.265625 C 6.992188 19.585938 6.734375 19.84375 6.414062 19.84375 C 6.09375 19.84375 5.832031 19.585938 5.832031 19.265625 L 5.832031 14.570312 C 5.832031 14.25 6.09375 13.992188 6.414062 13.992188 C 6.734375 13.992188 6.992188 14.25 6.992188 14.570312 Z M 6.992188 19.265625 "/>
<path style=" stroke:none;fill-rule:nonzero;fill:rgb(0%,12.54902%,35.686275%);fill-opacity:1;" d="M 23.277344 19.417969 L 23.277344 16.964844 C 23.277344 16.546875 22.804688 16.347656 22.804688 16.347656 C 22.804688 16.347656 23.277344 16.15625 23.277344 15.738281 L 23.277344 13.03125 C 23.277344 12.425781 22.785156 11.933594 22.179688 11.933594 L 19.214844 11.933594 L 19.214844 13.992188 C 19.449219 13.992188 19.640625 14.183594 19.640625 14.410156 L 19.640625 19.417969 C 19.640625 19.652344 19.449219 19.839844 19.214844 19.839844 L 19.214844 28.101562 C 19.214844 28.527344 19.042969 28.851562 18.808594 29.085938 C 19.585938 28.902344 20.335938 28.644531 21.039062 28.3125 C 21.039062 28.3125 21.546875 28.0625 21.546875 27.140625 L 21.546875 19.84375 C 21.21875 19.84375 20.953125 19.578125 20.953125 19.253906 L 20.953125 17.421875 C 20.953125 17.167969 21.15625 16.964844 21.410156 16.964844 C 21.664062 16.964844 21.867188 17.167969 21.867188 17.421875 L 21.867188 27.242188 C 21.867188 27.519531 21.828125 27.753906 21.769531 27.945312 C 22.355469 27.621094 22.910156 27.242188 23.425781 26.824219 C 23.425781 26.824219 23.699219 26.597656 23.699219 25.523438 L 23.699219 19.839844 C 23.46875 19.84375 23.277344 19.652344 23.277344 19.417969 M 21.960938 15.238281 C 21.960938 15.515625 21.738281 15.738281 21.460938 15.738281 C 21.183594 15.738281 20.960938 15.515625 20.960938 15.238281 L 20.960938 14.492188 C 20.960938 14.214844 21.183594 13.992188 21.460938 13.992188 C 21.738281 13.992188 21.960938 14.214844 21.960938 14.492188 Z M 21.960938 15.238281 "/>
</g>
</svg>
