<?xml version="1.0" encoding="UTF-8"?>
<svg xmlns="http://www.w3.org/2000/svg" xmlns:xlink="http://www.w3.org/1999/xlink" width="32px" height="32px" viewBox="0 0 32 32" version="1.1">
<defs>
<clipPath id="clip1">
  <path d="M 0 0 L 31.890625 0 L 31.890625 31.925781 L 0 31.925781 Z M 0 0 "/>
</clipPath>
</defs>
<g id="surface1">
<g clip-path="url(#clip1)" clip-rule="nonzero">
<path style=" stroke:none;fill-rule:nonzero;fill:rgb(88.627451%,0%,10.196078%);fill-opacity:1;" d="M 0 15.960938 C 0 7.144531 7.140625 0 15.945312 0 C 24.753906 0 31.890625 7.144531 31.890625 15.960938 C 31.890625 24.777344 24.753906 31.925781 15.945312 31.925781 C 7.140625 31.925781 0 24.777344 0 15.960938 Z M 0 15.960938 "/>
<path style=" stroke:none;fill-rule:nonzero;fill:rgb(100%,100%,100%);fill-opacity:1;" d="M 0.636719 15.960938 C 0.636719 7.5 7.492188 0.640625 15.945312 0.640625 C 24.398438 0.640625 31.253906 7.5 31.253906 15.960938 C 31.253906 24.425781 24.398438 31.285156 15.945312 31.285156 C 7.492188 31.285156 0.636719 24.425781 0.636719 15.960938 Z M 0.636719 15.960938 "/>
</g>
<path style=" stroke:none;fill-rule:nonzero;fill:rgb(88.627451%,0%,10.196078%);fill-opacity:1;" d="M 1.277344 15.960938 C 1.277344 7.851562 7.84375 1.277344 15.945312 1.277344 C 24.050781 1.277344 30.617188 7.851562 30.617188 15.960938 C 30.617188 24.070312 24.050781 30.648438 15.945312 30.648438 C 7.84375 30.648438 1.277344 24.070312 1.277344 15.960938 Z M 1.277344 15.960938 "/>
<path style=" stroke:none;fill-rule:nonzero;fill:rgb(100%,100%,100%);fill-opacity:1;" d="M 5.898438 15.960938 C 5.898438 10.40625 10.398438 5.90625 15.945312 5.90625 C 21.496094 5.90625 25.992188 10.40625 25.992188 15.960938 C 25.992188 21.519531 21.496094 26.019531 15.945312 26.019531 C 10.398438 26.019531 5.898438 21.519531 5.898438 15.960938 Z M 5.898438 15.960938 "/>
<path style=" stroke:none;fill-rule:nonzero;fill:rgb(88.627451%,0%,10.196078%);fill-opacity:1;" d="M 6.539062 15.960938 C 6.539062 10.761719 10.75 6.542969 15.945312 6.542969 C 21.144531 6.542969 25.355469 10.761719 25.355469 15.960938 C 25.355469 21.164062 21.144531 25.382812 15.945312 25.382812 C 10.75 25.382812 6.539062 21.164062 6.539062 15.960938 Z M 6.539062 15.960938 "/>
<path style=" stroke:none;fill-rule:nonzero;fill:rgb(100%,100%,100%);fill-opacity:1;" d="M 6.925781 7.882812 C 6.75 7.550781 6.570312 7.222656 6.367188 6.898438 C 6.707031 7.085938 7.027344 7.261719 7.339844 7.417969 Z M 7.179688 8.332031 L 7.800781 7.644531 L 8.214844 7.835938 C 8.289062 7.867188 8.351562 7.898438 8.398438 7.941406 C 8.429688 7.96875 8.460938 8.007812 8.488281 8.050781 L 9.085938 7.386719 C 8.804688 7.390625 8.578125 7.292969 8.335938 7.191406 L 6.125 6.253906 L 5.765625 6.65625 L 6.824219 8.910156 C 6.921875 9.105469 6.996094 9.351562 7.058594 9.640625 L 7.628906 9.003906 C 7.578125 8.980469 7.53125 8.953125 7.492188 8.914062 C 7.445312 8.871094 7.394531 8.800781 7.34375 8.699219 Z M 7.179688 8.332031 "/>
<path style=" stroke:none;fill-rule:nonzero;fill:rgb(100%,100%,100%);fill-opacity:1;" d="M 9.273438 5.5625 C 9.660156 5.496094 9.945312 5.601562 10.078125 5.855469 C 10.222656 6.125 10.140625 6.394531 9.851562 6.546875 C 9.839844 6.558594 9.824219 6.5625 9.808594 6.570312 Z M 9.246094 5.503906 L 8.792969 4.65625 C 9.097656 4.515625 9.324219 4.574219 9.445312 4.804688 C 9.566406 5.027344 9.5 5.292969 9.246094 5.503906 Z M 8.398438 4.410156 L 7.949219 4.652344 C 8.144531 4.816406 8.292969 5.023438 8.421875 5.273438 L 9.089844 6.527344 C 9.21875 6.773438 9.308594 7.011719 9.339844 7.265625 L 10.042969 6.890625 C 10.671875 6.558594 10.871094 6.027344 10.65625 5.621094 C 10.519531 5.367188 10.257812 5.238281 9.847656 5.199219 C 9.992188 4.898438 10.007812 4.636719 9.894531 4.425781 C 9.785156 4.210938 9.53125 4.074219 9.234375 4.082031 C 9.027344 4.085938 8.816406 4.191406 8.566406 4.324219 C 8.507812 4.355469 8.453125 4.382812 8.398438 4.410156 Z M 8.398438 4.410156 "/>
<path style=" stroke:none;fill-rule:nonzero;fill:rgb(100%,100%,100%);fill-opacity:1;" d="M 11.402344 6.066406 L 12.972656 5.585938 L 13.023438 4.953125 C 12.820312 5.128906 12.554688 5.261719 12.222656 5.363281 C 12.144531 5.386719 12.066406 5.40625 11.984375 5.425781 L 11.738281 4.617188 C 11.753906 4.609375 11.769531 4.605469 11.789062 4.601562 C 11.976562 4.542969 12.140625 4.535156 12.285156 4.585938 L 12.429688 3.976562 L 11.617188 4.226562 L 11.378906 3.445312 C 11.636719 3.375 11.855469 3.351562 12.046875 3.382812 L 12.144531 2.746094 L 10.539062 3.238281 C 10.699219 3.433594 10.800781 3.664062 10.886719 3.9375 L 11.300781 5.292969 C 11.382812 5.5625 11.421875 5.8125 11.402344 6.066406 Z M 11.402344 6.066406 "/>
<path style=" stroke:none;fill-rule:nonzero;fill:rgb(100%,100%,100%);fill-opacity:1;" d="M 14.121094 3.882812 L 13.996094 2.710938 C 14.355469 2.730469 14.554688 2.894531 14.585938 3.179688 C 14.621094 3.503906 14.453125 3.761719 14.121094 3.882812 Z M 14.128906 3.941406 C 14.773438 4.78125 15.210938 5.179688 15.371094 5.164062 L 15.875 5.109375 C 15.398438 4.707031 15.03125 4.285156 14.773438 3.855469 C 15.097656 3.652344 15.246094 3.382812 15.214844 3.085938 C 15.191406 2.839844 15.046875 2.625 14.792969 2.476562 C 14.519531 2.316406 14.238281 2.304688 13.871094 2.34375 L 13.21875 2.410156 C 13.335938 2.640625 13.394531 2.882812 13.425781 3.164062 L 13.574219 4.574219 C 13.601562 4.855469 13.597656 5.109375 13.527344 5.355469 L 14.394531 5.265625 C 14.273438 5.039062 14.21875 4.792969 14.1875 4.511719 Z M 14.128906 3.941406 "/>
<path style=" stroke:none;fill-rule:nonzero;fill:rgb(100%,100%,100%);fill-opacity:1;" d="M 16.027344 5.121094 L 16.675781 5.1875 C 17.035156 5.226562 17.335938 5.191406 17.570312 5.09375 C 18.097656 4.875 18.4375 4.433594 18.492188 3.921875 C 18.550781 3.347656 18.308594 2.84375 17.824219 2.527344 C 17.566406 2.359375 17.261719 2.277344 16.882812 2.234375 L 16.335938 2.175781 C 16.40625 2.421875 16.410156 2.675781 16.378906 2.957031 L 16.234375 4.367188 C 16.203125 4.648438 16.144531 4.894531 16.027344 5.121094 Z M 16.808594 4.800781 L 17.027344 2.699219 C 17.585938 2.851562 17.902344 3.324219 17.839844 3.886719 C 17.785156 4.425781 17.402344 4.78125 16.808594 4.800781 Z M 16.808594 4.800781 "/>
<path style=" stroke:none;fill-rule:nonzero;fill:rgb(100%,100%,100%);fill-opacity:1;" d="M 18.734375 5.519531 L 20.300781 6 L 20.699219 5.503906 C 20.429688 5.535156 20.136719 5.496094 19.800781 5.390625 C 19.726562 5.371094 19.648438 5.339844 19.570312 5.3125 L 19.820312 4.5 C 19.835938 4.507812 19.851562 4.511719 19.871094 4.515625 C 20.058594 4.574219 20.199219 4.660156 20.289062 4.78125 L 20.75 4.359375 L 19.9375 4.113281 L 20.175781 3.332031 C 20.429688 3.417969 20.621094 3.523438 20.765625 3.652344 L 21.199219 3.179688 L 19.597656 2.6875 C 19.617188 2.945312 19.574219 3.191406 19.492188 3.460938 L 19.078125 4.816406 C 18.996094 5.089844 18.894531 5.320312 18.734375 5.519531 Z M 18.734375 5.519531 "/>
<path style=" stroke:none;fill-rule:nonzero;fill:rgb(100%,100%,100%);fill-opacity:1;" d="M 20.847656 6.261719 L 22.253906 7.105469 L 22.761719 6.71875 C 22.492188 6.6875 22.214844 6.578125 21.914062 6.394531 C 21.847656 6.355469 21.78125 6.308594 21.710938 6.265625 L 22.148438 5.535156 C 22.164062 5.546875 22.175781 5.554688 22.195312 5.566406 C 22.363281 5.667969 22.480469 5.78125 22.539062 5.921875 L 23.082031 5.625 L 22.359375 5.1875 L 22.777344 4.488281 C 23.003906 4.632812 23.164062 4.78125 23.273438 4.9375 L 23.808594 4.589844 L 22.371094 3.722656 C 22.332031 3.976562 22.226562 4.207031 22.082031 4.445312 L 21.351562 5.664062 C 21.207031 5.90625 21.050781 6.105469 20.847656 6.261719 Z M 20.847656 6.261719 "/>
<path style=" stroke:none;fill-rule:nonzero;fill:rgb(100%,100%,100%);fill-opacity:1;" d="M 24.703125 6.710938 L 24.230469 8.46875 C 24.195312 8.605469 24.15625 8.730469 24.097656 8.851562 L 24.535156 9.375 C 24.660156 9.195312 24.808594 9.03125 24.988281 8.886719 L 26.15625 7.902344 C 26.371094 7.71875 26.582031 7.582031 26.824219 7.503906 L 26.316406 6.894531 C 26.191406 7.121094 26.023438 7.308594 25.808594 7.488281 L 24.804688 8.328125 L 25.328125 6.390625 C 25.371094 6.21875 25.441406 6.085938 25.539062 5.96875 L 24.957031 5.273438 L 24.863281 5.878906 L 23.539062 6.988281 C 23.324219 7.171875 23.113281 7.304688 22.871094 7.382812 L 23.378906 7.996094 C 23.5 7.769531 23.667969 7.582031 23.882812 7.402344 "/>
<path style=" stroke:none;fill-rule:nonzero;fill:rgb(100%,100%,100%);fill-opacity:1;" d="M 5.371094 18.832031 L 5.1875 17.101562 C 4.960938 17.21875 4.714844 17.277344 4.4375 17.308594 L 3.027344 17.457031 C 2.75 17.484375 2.496094 17.484375 2.25 17.414062 L 2.339844 18.277344 C 2.566406 18.15625 2.8125 18.101562 3.089844 18.070312 L 3.625 18.015625 C 3.632812 18.050781 3.636719 18.085938 3.640625 18.121094 C 3.660156 18.320312 3.636719 18.5 3.558594 18.667969 L 4.128906 18.882812 L 4.035156 17.972656 L 4.824219 17.886719 C 4.851562 18.183594 4.839844 18.421875 4.769531 18.617188 "/>
<path style=" stroke:none;fill-rule:nonzero;fill:rgb(100%,100%,100%);fill-opacity:1;" d="M 4.328125 22.347656 C 4.203125 22.257812 4.109375 22.140625 4.023438 21.988281 C 3.867188 21.6875 3.847656 21.378906 3.953125 21.0625 C 4.066406 20.753906 4.242188 20.539062 4.503906 20.398438 C 4.789062 20.242188 5.089844 20.183594 5.394531 20.214844 C 5.480469 20.316406 5.542969 20.410156 5.585938 20.5 C 5.730469 20.769531 5.777344 21.070312 5.730469 21.316406 C 5.65625 21.695312 5.449219 21.960938 5.085938 22.152344 C 4.824219 22.292969 4.566406 22.355469 4.328125 22.347656 Z M 3.460938 21.9375 C 3.71875 22.425781 4.214844 22.753906 4.730469 22.789062 C 5.011719 22.808594 5.289062 22.746094 5.550781 22.605469 C 5.929688 22.40625 6.183594 22.09375 6.285156 21.703125 C 6.382812 21.324219 6.335938 20.933594 6.144531 20.574219 C 5.933594 20.175781 5.597656 19.898438 5.183594 19.777344 C 4.816406 19.667969 4.433594 19.703125 4.09375 19.886719 C 3.691406 20.097656 3.414062 20.46875 3.324219 20.90625 C 3.242188 21.265625 3.292969 21.625 3.460938 21.9375 Z M 3.460938 21.9375 "/>
<path style=" stroke:none;fill-rule:nonzero;fill:rgb(100%,100%,100%);fill-opacity:1;" d="M 6.679688 25.503906 C 6.539062 25.4375 6.417969 25.34375 6.308594 25.214844 C 6.09375 24.953125 6.003906 24.65625 6.050781 24.324219 C 6.09375 24 6.21875 23.75 6.445312 23.558594 C 6.695312 23.351562 6.976562 23.226562 7.277344 23.195312 C 7.382812 23.277344 7.464844 23.355469 7.527344 23.429688 C 7.726562 23.664062 7.828125 23.949219 7.835938 24.199219 C 7.84375 24.585938 7.695312 24.890625 7.382812 25.152344 C 7.152344 25.34375 6.914062 25.460938 6.679688 25.503906 Z M 5.742188 25.277344 C 6.101562 25.707031 6.652344 25.921875 7.164062 25.851562 C 7.445312 25.808594 7.703125 25.695312 7.929688 25.5 C 8.257812 25.222656 8.441406 24.867188 8.460938 24.464844 C 8.476562 24.070312 8.347656 23.699219 8.085938 23.386719 C 7.800781 23.042969 7.410156 22.84375 6.980469 22.8125 C 6.597656 22.777344 6.230469 22.894531 5.933594 23.144531 C 5.589844 23.433594 5.394531 23.851562 5.394531 24.300781 C 5.394531 24.667969 5.515625 25.011719 5.742188 25.277344 Z M 5.742188 25.277344 "/>
<path style=" stroke:none;fill-rule:nonzero;fill:rgb(100%,100%,100%);fill-opacity:1;" d="M 8.417969 27.566406 L 9.160156 28.011719 C 9.199219 27.757812 9.304688 27.527344 9.445312 27.285156 L 10.363281 25.757812 C 10.574219 25.890625 10.722656 26.050781 10.824219 26.242188 L 11.328125 25.863281 L 9.457031 24.738281 L 8.96875 25.214844 C 9.28125 25.226562 9.5625 25.296875 9.835938 25.4375 L 8.917969 26.96875 C 8.773438 27.210938 8.617188 27.40625 8.417969 27.566406 Z M 8.417969 27.566406 "/>
<path style=" stroke:none;fill-rule:nonzero;fill:rgb(100%,100%,100%);fill-opacity:1;" d="M 11.878906 27.53125 C 12.199219 27.757812 12.324219 28.035156 12.238281 28.304688 C 12.148438 28.601562 11.90625 28.734375 11.589844 28.636719 C 11.578125 28.632812 11.5625 28.628906 11.542969 28.625 Z M 11.898438 27.46875 L 12.179688 26.550781 C 12.492188 26.664062 12.609375 26.863281 12.535156 27.113281 C 12.460938 27.359375 12.226562 27.5 11.898438 27.46875 Z M 12.070312 26.097656 L 11.585938 25.953125 C 11.605469 26.207031 11.5625 26.453125 11.480469 26.726562 L 11.066406 28.082031 C 10.984375 28.351562 10.882812 28.578125 10.722656 28.78125 L 11.484375 29.015625 C 12.164062 29.222656 12.679688 28.992188 12.816406 28.550781 C 12.898438 28.273438 12.800781 28 12.539062 27.683594 C 12.855469 27.570312 13.050781 27.398438 13.121094 27.167969 C 13.191406 26.9375 13.109375 26.664062 12.894531 26.457031 C 12.746094 26.3125 12.523438 26.238281 12.25 26.152344 C 12.191406 26.136719 12.132812 26.117188 12.070312 26.097656 Z M 12.070312 26.097656 "/>
<path style=" stroke:none;fill-rule:nonzero;fill:rgb(100%,100%,100%);fill-opacity:1;" d="M 14.570312 28.40625 C 14.738281 28.070312 14.894531 27.730469 15.035156 27.378906 C 15.085938 27.761719 15.136719 28.125 15.191406 28.472656 Z M 14.355469 28.875 L 15.277344 28.972656 L 15.367188 29.421875 C 15.382812 29.503906 15.398438 29.574219 15.390625 29.632812 C 15.382812 29.675781 15.371094 29.722656 15.351562 29.769531 L 16.242188 29.863281 C 16.074219 29.644531 16.019531 29.398438 15.957031 29.140625 L 15.417969 26.800781 L 14.878906 26.742188 L 13.679688 28.929688 C 13.578125 29.121094 13.425781 29.328125 13.226562 29.546875 L 14.078125 29.636719 C 14.0625 29.578125 14.0625 29.523438 14.066406 29.46875 C 14.074219 29.410156 14.101562 29.324219 14.15625 29.226562 Z M 14.355469 28.875 "/>
<path style=" stroke:none;fill-rule:nonzero;fill:rgb(100%,100%,100%);fill-opacity:1;" d="M 17.089844 29.707031 L 18.679688 29.539062 L 18.828125 28.847656 C 18.484375 29.023438 18.144531 29.136719 17.78125 29.191406 L 17.601562 27.449219 C 17.574219 27.171875 17.574219 26.917969 17.644531 26.671875 L 16.78125 26.761719 C 16.898438 26.988281 16.957031 27.234375 16.988281 27.515625 L 17.136719 28.929688 C 17.164062 29.207031 17.160156 29.457031 17.089844 29.707031 Z M 17.089844 29.707031 "/>
<path style=" stroke:none;fill-rule:nonzero;fill:rgb(100%,100%,100%);fill-opacity:1;" d="M 19.667969 29.25 L 21.195312 28.785156 L 21.207031 28.074219 C 20.90625 28.316406 20.59375 28.492188 20.246094 28.613281 L 19.738281 26.9375 C 19.65625 26.671875 19.613281 26.421875 19.632812 26.167969 L 18.804688 26.421875 C 18.960938 26.621094 19.066406 26.851562 19.148438 27.121094 L 19.5625 28.476562 C 19.644531 28.746094 19.691406 28.996094 19.667969 29.25 Z M 19.667969 29.25 "/>
<path style=" stroke:none;fill-rule:nonzero;fill:rgb(100%,100%,100%);fill-opacity:1;" d="M 24.15625 24.277344 L 23.679688 23.714844 C 23.445312 23.808594 23.242188 23.929688 23.082031 24.0625 C 22.753906 24.335938 22.546875 24.6875 22.472656 25.089844 C 22.386719 25.546875 22.511719 26.007812 22.828125 26.382812 C 23.128906 26.742188 23.507812 26.914062 23.964844 26.894531 C 24.277344 26.878906 24.570312 26.757812 24.835938 26.53125 C 25.078125 26.328125 25.265625 26.09375 25.398438 25.820312 L 25.03125 25.246094 C 25.039062 25.597656 24.933594 25.851562 24.683594 26.058594 C 24.242188 26.429688 23.683594 26.363281 23.273438 25.871094 C 22.863281 25.386719 22.890625 24.839844 23.289062 24.503906 C 23.511719 24.320312 23.792969 24.246094 24.15625 24.277344 Z M 24.15625 24.277344 "/>
<path style=" stroke:none;fill-rule:nonzero;fill:rgb(100%,100%,100%);fill-opacity:1;" d="M 26.371094 25.101562 L 27.335938 23.828125 L 26.929688 23.25 C 26.824219 23.617188 26.675781 23.949219 26.46875 24.246094 L 25.074219 23.195312 C 24.847656 23.023438 24.667969 22.847656 24.535156 22.628906 L 24.011719 23.324219 C 24.257812 23.390625 24.476562 23.515625 24.699219 23.683594 L 25.832031 24.542969 C 26.058594 24.710938 26.238281 24.886719 26.371094 25.101562 Z M 26.371094 25.101562 "/>
<path style=" stroke:none;fill-rule:nonzero;fill:rgb(100%,100%,100%);fill-opacity:1;" d="M 28.390625 21.335938 L 28.652344 21.460938 L 28.960938 20.824219 C 28.707031 20.804688 28.46875 20.722656 28.214844 20.601562 L 26.9375 19.980469 C 26.6875 19.855469 26.476562 19.71875 26.304688 19.527344 L 25.921875 20.308594 C 26.175781 20.332031 26.417969 20.410156 26.667969 20.535156 L 28.015625 21.191406 C 28.066406 21.460938 28.050781 21.671875 27.964844 21.839844 C 27.816406 22.148438 27.5625 22.164062 27.148438 21.964844 L 26.199219 21.5 C 25.945312 21.378906 25.738281 21.238281 25.5625 21.046875 L 25.179688 21.828125 C 25.4375 21.847656 25.675781 21.929688 25.929688 22.050781 L 26.8125 22.480469 C 27.101562 22.625 27.351562 22.742188 27.679688 22.679688 C 27.976562 22.625 28.203125 22.445312 28.328125 22.183594 C 28.449219 21.9375 28.472656 21.644531 28.390625 21.335938 Z M 28.390625 21.335938 "/>
<path style=" stroke:none;fill-rule:nonzero;fill:rgb(100%,100%,100%);fill-opacity:1;" d="M 28.011719 18.40625 C 28.171875 18.046875 28.414062 17.871094 28.699219 17.902344 C 29.003906 17.9375 29.183594 18.148438 29.148438 18.476562 C 29.148438 18.492188 29.144531 18.507812 29.144531 18.523438 Z M 27.945312 18.394531 L 26.988281 18.296875 C 27.042969 17.96875 27.214844 17.8125 27.476562 17.839844 C 27.730469 17.867188 27.914062 18.066406 27.945312 18.394531 Z M 26.570312 18.488281 L 26.515625 18.992188 C 26.765625 18.925781 27.015625 18.917969 27.292969 18.949219 L 28.707031 19.097656 C 28.984375 19.125 29.230469 19.183594 29.457031 19.300781 L 29.539062 18.511719 C 29.613281 17.800781 29.289062 17.339844 28.828125 17.289062 C 28.542969 17.261719 28.292969 17.40625 28.03125 17.726562 C 27.859375 17.4375 27.652344 17.277344 27.417969 17.253906 C 27.179688 17.226562 26.921875 17.359375 26.761719 17.613281 C 26.652344 17.785156 26.621094 18.019531 26.589844 18.304688 C 26.582031 18.363281 26.574219 18.425781 26.570312 18.488281 Z M 26.570312 18.488281 "/>
<path style=" stroke:none;fill-rule:nonzero;fill:rgb(100%,100%,100%);fill-opacity:1;" d="M 18.925781 18.882812 L 18.925781 7.734375 L 16.035156 7.734375 C 16.023438 7.730469 16.015625 7.730469 16.003906 7.730469 C 15.921875 7.730469 15.765625 7.742188 15.582031 7.824219 C 15.398438 7.902344 15.1875 8.054688 15.027344 8.296875 L 7.632812 18.757812 C 7.644531 18.800781 7.660156 18.84375 7.675781 18.882812 L 7.671875 18.882812 C 8.875 22.296875 12.125 24.742188 15.945312 24.742188 C 19.761719 24.742188 23.011719 22.292969 24.21875 18.882812 Z M 8.589844 18.882812 L 15.734375 8.78125 L 15.738281 8.777344 C 15.8125 8.667969 15.871094 8.632812 15.921875 8.609375 C 15.945312 8.597656 15.964844 8.59375 15.980469 8.589844 C 15.988281 8.589844 15.996094 8.589844 16 8.585938 L 16.003906 8.589844 L 18.070312 8.589844 L 18.070312 18.882812 Z M 8.589844 18.882812 "/>
<path style=" stroke:none;fill-rule:nonzero;fill:rgb(88.627451%,0%,10.196078%);fill-opacity:1;" d="M 13.011719 21.097656 L 13.011719 22.109375 C 13.011719 22.320312 12.984375 22.503906 12.917969 22.679688 L 13.519531 22.679688 C 13.449219 22.503906 13.425781 22.320312 13.425781 22.109375 L 13.425781 20.460938 L 12.664062 21.097656 "/>
<path style=" stroke:none;fill-rule:nonzero;fill:rgb(88.627451%,0%,10.196078%);fill-opacity:1;" d="M 14.996094 20.800781 C 15.1875 20.800781 15.320312 20.933594 15.320312 21.117188 C 15.320312 21.316406 15.183594 21.464844 14.984375 21.464844 C 14.800781 21.464844 14.675781 21.332031 14.675781 21.136719 C 14.675781 20.9375 14.808594 20.800781 14.996094 20.800781 Z M 14.414062 22.679688 L 15.054688 22.679688 C 15.050781 22.65625 15.046875 22.636719 15.046875 22.613281 C 15.046875 22.46875 15.15625 22.324219 15.289062 22.105469 C 15.511719 21.738281 15.722656 21.449219 15.722656 21.113281 C 15.722656 20.726562 15.449219 20.460938 15 20.460938 C 14.589844 20.460938 14.292969 20.75 14.292969 21.152344 C 14.292969 21.519531 14.542969 21.765625 14.894531 21.765625 C 14.933594 21.765625 14.980469 21.761719 15.03125 21.746094 L 14.753906 22.21875 C 14.675781 22.351562 14.5625 22.503906 14.414062 22.679688 Z M 14.414062 22.679688 "/>
<path style=" stroke:none;fill-rule:nonzero;fill:rgb(88.627451%,0%,10.196078%);fill-opacity:1;" d="M 16.859375 22.320312 C 16.632812 22.320312 16.488281 22.054688 16.488281 21.554688 C 16.488281 21.085938 16.625 20.835938 16.855469 20.835938 C 17.085938 20.835938 17.21875 21.074219 17.21875 21.535156 C 17.21875 22.058594 17.085938 22.320312 16.859375 22.320312 Z M 17.691406 21.578125 C 17.691406 21.144531 17.554688 20.820312 17.3125 20.625 C 17.175781 20.519531 17.027344 20.460938 16.867188 20.460938 C 16.660156 20.460938 16.460938 20.554688 16.3125 20.71875 C 16.121094 20.933594 16.019531 21.230469 16.019531 21.589844 C 16.019531 21.917969 16.109375 22.191406 16.273438 22.410156 C 16.421875 22.601562 16.625 22.703125 16.847656 22.703125 C 17.0625 22.703125 17.265625 22.601562 17.417969 22.421875 C 17.601562 22.199219 17.691406 21.917969 17.691406 21.578125 Z M 17.691406 21.578125 "/>
<path style=" stroke:none;fill-rule:nonzero;fill:rgb(88.627451%,0%,10.196078%);fill-opacity:1;" d="M 18.945312 21.382812 L 19.382812 20.484375 L 17.9375 20.484375 L 17.9375 20.976562 C 18.027344 20.871094 18.261719 20.832031 18.667969 20.832031 C 18.710938 20.832031 18.753906 20.832031 18.804688 20.832031 L 18.4375 21.585938 C 18.765625 21.621094 18.9375 21.761719 18.9375 21.988281 C 18.9375 22.234375 18.792969 22.394531 18.566406 22.394531 C 18.351562 22.394531 18.203125 22.269531 18.132812 22.03125 L 17.898438 22.484375 C 18.085938 22.632812 18.3125 22.707031 18.578125 22.707031 C 19.066406 22.707031 19.371094 22.421875 19.371094 21.996094 C 19.371094 21.710938 19.230469 21.515625 18.945312 21.382812 Z M 18.945312 21.382812 "/>
<path style=" stroke:none;fill-rule:nonzero;fill:rgb(100%,100%,100%);fill-opacity:1;" d="M 21.253906 12.609375 L 19.660156 12.609375 C 19.746094 12.832031 19.777344 13.058594 19.777344 13.316406 L 19.777344 14.613281 C 19.777344 14.871094 19.746094 15.101562 19.660156 15.316406 L 20.457031 15.316406 C 20.367188 15.101562 20.339844 14.871094 20.339844 14.613281 L 20.339844 14.125 C 20.371094 14.121094 20.402344 14.121094 20.4375 14.121094 C 20.621094 14.121094 20.785156 14.160156 20.925781 14.246094 L 21.175781 13.742188 L 20.339844 13.742188 L 20.339844 13.019531 C 20.609375 13.023438 20.824219 13.058594 20.996094 13.140625 "/>
<path style=" stroke:none;fill-rule:nonzero;fill:rgb(100%,100%,100%);fill-opacity:1;" d="M 23.609375 13.371094 L 23.609375 12.695312 C 23.386719 12.625 23.175781 12.589844 22.984375 12.589844 C 22.59375 12.589844 22.246094 12.710938 21.953125 12.949219 C 21.625 13.21875 21.445312 13.613281 21.445312 14.0625 C 21.445312 14.492188 21.609375 14.835938 21.941406 15.089844 C 22.171875 15.261719 22.445312 15.351562 22.769531 15.351562 C 23.054688 15.351562 23.320312 15.292969 23.578125 15.179688 L 23.652344 14.5625 C 23.457031 14.8125 23.234375 14.929688 22.9375 14.929688 C 22.410156 14.929688 22.054688 14.550781 22.054688 13.96875 C 22.054688 13.386719 22.394531 13.019531 22.871094 13.019531 C 23.132812 13.019531 23.375 13.136719 23.609375 13.371094 Z M 23.609375 13.371094 "/>
<path style=" stroke:none;fill-rule:nonzero;fill:rgb(100%,100%,100%);fill-opacity:1;" d="M 13.15625 13.964844 C 13.15625 12.6875 14.191406 11.652344 15.46875 11.652344 C 16.746094 11.652344 17.777344 12.6875 17.777344 13.964844 C 17.777344 15.242188 16.746094 16.277344 15.46875 16.277344 C 14.191406 16.277344 13.15625 15.242188 13.15625 13.964844 Z M 13.15625 13.964844 "/>
<path style=" stroke:none;fill-rule:nonzero;fill:rgb(88.627451%,0%,10.196078%);fill-opacity:1;" d="M 15.121094 12.777344 L 15.667969 12.242188 L 15.421875 11.96875 C 15.09375 11.976562 14.785156 12.0625 14.511719 12.210938 L 14.332031 12.519531 Z M 15.121094 12.777344 "/>
<path style=" stroke:none;fill-rule:nonzero;fill:rgb(88.627451%,0%,10.196078%);fill-opacity:1;" d="M 14.238281 13.886719 L 13.941406 13.164062 L 13.601562 13.265625 C 13.519531 13.484375 13.472656 13.71875 13.472656 13.964844 C 13.472656 14.046875 13.480469 14.128906 13.488281 14.207031 L 13.738281 14.507812 Z M 14.238281 13.886719 "/>
<path style=" stroke:none;fill-rule:nonzero;fill:rgb(88.627451%,0%,10.196078%);fill-opacity:1;" d="M 14.894531 15.097656 L 14.199219 15.277344 L 14.246094 15.539062 C 14.5 15.738281 14.800781 15.875 15.132812 15.929688 L 15.484375 15.730469 Z M 14.894531 15.097656 "/>
<path style=" stroke:none;fill-rule:nonzero;fill:rgb(88.627451%,0%,10.196078%);fill-opacity:1;" d="M 17.355469 14.601562 L 17.234375 14.222656 L 16.585938 14.535156 L 16.523438 15.375 L 16.84375 15.40625 C 17.074219 15.1875 17.253906 14.910156 17.355469 14.601562 Z M 17.355469 14.601562 "/>
<path style=" stroke:none;fill-rule:nonzero;fill:rgb(88.627451%,0%,10.196078%);fill-opacity:1;" d="M 16.367188 13.058594 L 17.148438 13.378906 L 17.273438 13.117188 C 17.128906 12.8125 16.910156 12.546875 16.640625 12.351562 L 16.273438 12.339844 Z M 16.367188 13.058594 "/>
<path style=" stroke:none;fill-rule:nonzero;fill:rgb(88.627451%,0%,10.196078%);fill-opacity:1;" d="M 14.621094 14.015625 L 15.269531 14.785156 L 15.3125 14.769531 L 16.132812 14.457031 L 16.203125 13.433594 L 15.199219 13.117188 Z M 14.621094 14.015625 "/>
</g>
</svg>
