<?xml version="1.0" encoding="UTF-8"?>
<svg xmlns="http://www.w3.org/2000/svg" xmlns:xlink="http://www.w3.org/1999/xlink" width="32px" height="32px" viewBox="0 0 32 47" version="1.1">
<g id="surface1">
<path style=" stroke:none;fill-rule:evenodd;fill:rgb(9.019608%,16.078431%,50.196078%);fill-opacity:1;" d="M 16.054688 47.066406 C 25.601562 41.472656 32.113281 35.046875 32.105469 26.261719 C 32.105469 24.527344 32.105469 22.789062 32.105469 21.054688 C 32.105469 18.890625 32.105469 16.726562 32.105469 14.5625 C 32.105469 14.160156 32.105469 13.757812 32.105469 13.355469 C 32.105469 13.066406 32.105469 12.78125 32.105469 12.492188 C 32.105469 10.171875 32.105469 7.847656 32.105469 5.527344 L 0 5.527344 C 0 8.820312 0 12.113281 0 15.410156 C 0 15.636719 0 15.859375 0 16.085938 C 0 16.5625 0 17.042969 0 17.519531 C 0 19.660156 0 21.800781 0 23.941406 C 0 24.714844 0 25.488281 0 26.261719 C -0.0078125 35.046875 6.503906 41.472656 16.054688 47.066406 Z M 16.054688 47.066406 "/>
<path style=" stroke:none;fill-rule:evenodd;fill:rgb(100%,100%,100%);fill-opacity:1;" d="M 32.105469 12.492188 C 26.019531 16.3125 21.191406 15.140625 16.261719 13.933594 C 10.976562 12.640625 5.421875 11.613281 0 15.410156 C 0 18.253906 0 21.097656 0 23.941406 C 5.585938 20.402344 10.722656 21.097656 15.8125 22.519531 C 21.105469 23.992188 25.730469 25.191406 32.105469 21.054688 C 32.105469 18.199219 32.105469 15.347656 32.105469 12.492188 Z M 32.105469 12.492188 "/>
<path style=" stroke:none;fill-rule:evenodd;fill:rgb(86.27451%,11.372549%,14.509804%);fill-opacity:1;" d="M 32.105469 13.355469 C 26.019531 17.171875 21.175781 15.828125 16.261719 14.550781 C 10.347656 13.019531 5.421875 12.472656 0 16.269531 C 0 19.113281 0 14.605469 0 17.449219 C 5.585938 13.914062 10.117188 14.117188 15.8125 15.71875 C 21.089844 17.203125 25.730469 18.703125 32.105469 14.5625 C 32.105469 11.710938 32.105469 16.207031 32.105469 13.355469 Z M 32.105469 13.355469 "/>
<path style=" stroke:none;fill-rule:evenodd;fill:rgb(100%,100%,100%);fill-opacity:1;" d="M 0 4.714844 L 32.105469 4.714844 L 32.105469 5.527344 L 0 5.527344 Z M 0 4.714844 "/>
<path style=" stroke:none;fill-rule:evenodd;fill:rgb(86.27451%,11.372549%,14.509804%);fill-opacity:1;" d="M 0 0 L 32.105469 0 L 32.105469 4.714844 L 0 4.714844 Z M 0 0 "/>
<path style=" stroke:none;fill-rule:evenodd;fill:rgb(100%,100%,100%);fill-opacity:1;" d="M 16.054688 37.625 C 15.976562 37.601562 15.882812 37.609375 15.824219 37.554688 C 15.683594 37.429688 15.574219 37.269531 15.476562 37.109375 C 15.335938 36.878906 15.253906 36.617188 15.109375 36.386719 C 14.984375 36.183594 14.851562 35.976562 14.671875 35.816406 C 14.363281 35.546875 14 35.34375 13.660156 35.113281 C 13.21875 34.8125 12.734375 34.5625 12.332031 34.21875 C 12.117188 34.035156 11.957031 33.792969 11.824219 33.546875 C 11.699219 33.320312 11.605469 33.074219 11.5625 32.824219 C 11.539062 32.691406 11.5625 32.542969 11.632812 32.425781 C 11.761719 32.210938 11.957031 32.039062 12.136719 31.859375 C 12.296875 31.703125 12.46875 31.5625 12.644531 31.429688 C 12.734375 31.359375 12.84375 31.316406 12.941406 31.257812 C 12.996094 31.222656 13.078125 31.210938 13.097656 31.152344 C 13.113281 31.117188 13.03125 31.105469 12.996094 31.101562 C 12.851562 31.082031 12.699219 31.058594 12.558594 31.085938 C 12.390625 31.117188 12.234375 31.195312 12.085938 31.273438 C 11.925781 31.359375 11.785156 31.480469 11.632812 31.582031 C 11.566406 31.625 11.515625 31.699219 11.4375 31.703125 C 11.367188 31.710938 11.296875 31.664062 11.246094 31.617188 C 11.183594 31.5625 11.160156 31.476562 11.105469 31.410156 C 11.078125 31.378906 11.046875 31.335938 11 31.324219 C 10.960938 31.316406 10.914062 31.335938 10.878906 31.359375 C 10.832031 31.394531 10.789062 31.441406 10.773438 31.496094 C 10.753906 31.582031 10.789062 31.671875 10.773438 31.757812 C 10.765625 31.8125 10.734375 31.863281 10.703125 31.910156 C 10.660156 31.980469 10.621094 32.058594 10.546875 32.101562 C 10.476562 32.140625 10.386719 32.132812 10.300781 32.132812 C 10.203125 32.136719 10.105469 32.117188 10.003906 32.117188 C 9.925781 32.117188 9.839844 32.109375 9.761719 32.132812 C 9.691406 32.15625 9.628906 32.199219 9.585938 32.253906 C 9.5625 32.285156 9.53125 32.355469 9.570312 32.375 C 9.625 32.402344 9.695312 32.34375 9.761719 32.339844 C 9.847656 32.335938 9.941406 32.328125 10.023438 32.359375 C 10.191406 32.417969 10.355469 32.488281 10.496094 32.597656 C 10.652344 32.722656 10.78125 32.882812 10.898438 33.046875 C 11.070312 33.289062 11.195312 33.5625 11.367188 33.804688 C 11.511719 34 11.667969 34.183594 11.839844 34.355469 C 11.949219 34.460938 12.085938 34.535156 12.207031 34.628906 C 12.269531 34.679688 12.339844 34.722656 12.382812 34.785156 C 12.417969 34.835938 12.429688 34.898438 12.433594 34.957031 C 12.441406 35.019531 12.472656 35.117188 12.417969 35.144531 C 12.320312 35.199219 12.195312 35.152344 12.085938 35.144531 C 11.957031 35.140625 11.828125 35.125 11.699219 35.113281 C 11.628906 35.105469 11.558594 35.101562 11.492188 35.078125 C 11.40625 35.046875 11.320312 35.007812 11.246094 34.957031 C 11.199219 34.925781 11.167969 34.871094 11.125 34.835938 C 11.082031 34.800781 11.03125 34.722656 10.984375 34.75 C 10.921875 34.785156 10.914062 34.882812 10.914062 34.957031 C 10.914062 35.039062 10.941406 35.125 10.984375 35.199219 C 11.042969 35.300781 11.121094 35.394531 11.210938 35.472656 C 11.304688 35.558594 11.40625 35.644531 11.527344 35.679688 C 11.695312 35.730469 11.875 35.707031 12.050781 35.714844 C 12.277344 35.722656 12.503906 35.730469 12.730469 35.730469 C 12.878906 35.730469 13.023438 35.714844 13.167969 35.714844 C 13.25 35.714844 13.335938 35.710938 13.414062 35.730469 C 13.484375 35.75 13.539062 35.804688 13.605469 35.835938 C 13.71875 35.890625 13.84375 35.929688 13.953125 35.988281 C 14.070312 36.054688 14.1875 36.125 14.289062 36.214844 C 14.390625 36.304688 14.480469 36.414062 14.566406 36.523438 C 14.625 36.59375 14.691406 36.664062 14.722656 36.746094 C 14.75 36.8125 14.757812 36.886719 14.742188 36.953125 C 14.730469 37.003906 14.695312 37.046875 14.65625 37.074219 C 14.605469 37.109375 14.539062 37.125 14.480469 37.125 C 14.414062 37.125 14.347656 37.105469 14.289062 37.074219 C 14.175781 37.015625 14.074219 36.941406 13.972656 36.867188 C 13.886719 36.808594 13.820312 36.726562 13.726562 36.679688 C 13.671875 36.644531 13.601562 36.628906 13.535156 36.625 C 13.5 36.625 13.449219 36.628906 13.429688 36.660156 C 13.40625 36.707031 13.414062 36.765625 13.429688 36.816406 C 13.457031 36.902344 13.492188 36.988281 13.554688 37.058594 C 13.660156 37.175781 13.808594 37.253906 13.921875 37.367188 C 13.976562 37.425781 14.046875 37.492188 14.058594 37.574219 C 14.070312 37.636719 14.027344 37.710938 13.972656 37.746094 C 13.890625 37.796875 13.785156 37.785156 13.691406 37.796875 C 13.589844 37.808594 13.484375 37.8125 13.378906 37.8125 C 13.296875 37.816406 13.199219 37.765625 13.132812 37.8125 C 13.082031 37.851562 13.117188 37.941406 13.132812 38.003906 C 13.160156 38.09375 13.183594 38.199219 13.253906 38.261719 C 13.355469 38.351562 13.492188 38.402344 13.621094 38.433594 C 13.746094 38.460938 13.878906 38.449219 14.007812 38.433594 C 14.105469 38.421875 14.195312 38.378906 14.285156 38.347656 C 14.355469 38.324219 14.425781 38.292969 14.496094 38.277344 C 14.558594 38.269531 14.636719 38.242188 14.6875 38.277344 C 14.757812 38.328125 14.785156 38.421875 14.8125 38.503906 C 14.859375 38.648438 14.875 38.800781 14.914062 38.949219 C 14.964844 39.128906 15.011719 39.308594 15.074219 39.484375 C 15.128906 39.636719 15.195312 39.785156 15.265625 39.929688 C 15.316406 40.039062 15.382812 40.136719 15.441406 40.242188 C 15.488281 40.328125 15.539062 40.410156 15.578125 40.5 C 15.609375 40.570312 15.65625 40.644531 15.648438 40.722656 C 15.640625 40.828125 15.5625 40.914062 15.527344 41.015625 C 15.503906 41.089844 15.464844 41.164062 15.476562 41.238281 C 15.484375 41.3125 15.535156 41.371094 15.582031 41.429688 C 15.640625 41.5 15.710938 41.566406 15.789062 41.617188 C 15.863281 41.667969 15.953125 41.699219 16.050781 41.738281 C 16.152344 41.699219 16.238281 41.667969 16.3125 41.617188 C 16.390625 41.566406 16.464844 41.5 16.523438 41.429688 C 16.570312 41.371094 16.621094 41.308594 16.628906 41.238281 C 16.636719 41.164062 16.601562 41.085938 16.578125 41.015625 C 16.542969 40.914062 16.464844 40.828125 16.453125 40.722656 C 16.445312 40.644531 16.492188 40.570312 16.523438 40.5 C 16.5625 40.410156 16.617188 40.328125 16.664062 40.242188 C 16.722656 40.136719 16.785156 40.039062 16.839844 39.929688 C 16.910156 39.785156 16.976562 39.636719 17.03125 39.484375 C 17.09375 39.308594 17.140625 39.128906 17.1875 38.949219 C 17.226562 38.800781 17.242188 38.648438 17.292969 38.503906 C 17.320312 38.421875 17.34375 38.328125 17.414062 38.277344 C 17.46875 38.242188 17.542969 38.269531 17.609375 38.277344 C 17.679688 38.292969 17.746094 38.324219 17.816406 38.347656 C 17.910156 38.378906 18 38.421875 18.097656 38.433594 C 18.222656 38.449219 18.355469 38.460938 18.480469 38.433594 C 18.613281 38.402344 18.746094 38.351562 18.847656 38.261719 C 18.921875 38.199219 18.945312 38.09375 18.972656 38.003906 C 18.988281 37.941406 19.023438 37.851562 18.972656 37.8125 C 18.90625 37.765625 18.808594 37.816406 18.726562 37.8125 C 18.621094 37.8125 18.515625 37.808594 18.410156 37.796875 C 18.316406 37.785156 18.210938 37.792969 18.132812 37.746094 C 18.078125 37.710938 18.035156 37.636719 18.042969 37.574219 C 18.054688 37.492188 18.125 37.425781 18.183594 37.367188 C 18.296875 37.253906 18.445312 37.175781 18.550781 37.058594 C 18.613281 36.988281 18.648438 36.902344 18.671875 36.816406 C 18.6875 36.765625 18.699219 36.707031 18.671875 36.660156 C 18.65625 36.628906 18.605469 36.625 18.570312 36.625 C 18.503906 36.628906 18.433594 36.644531 18.375 36.679688 C 18.285156 36.726562 18.214844 36.808594 18.132812 36.867188 C 18.03125 36.941406 17.929688 37.015625 17.816406 37.074219 C 17.757812 37.105469 17.691406 37.125 17.625 37.125 C 17.5625 37.125 17.5 37.109375 17.449219 37.074219 C 17.410156 37.046875 17.375 37 17.363281 36.953125 C 17.347656 36.886719 17.355469 36.8125 17.378906 36.746094 C 17.414062 36.664062 17.480469 36.59375 17.539062 36.523438 C 17.625 36.414062 17.710938 36.304688 17.816406 36.214844 C 17.917969 36.125 18.03125 36.054688 18.148438 35.988281 C 18.261719 35.929688 18.382812 35.890625 18.5 35.835938 C 18.5625 35.804688 18.621094 35.75 18.691406 35.730469 C 18.769531 35.710938 18.855469 35.714844 18.9375 35.714844 C 19.082031 35.714844 19.226562 35.730469 19.371094 35.730469 C 19.601562 35.730469 19.828125 35.722656 20.054688 35.714844 C 20.230469 35.707031 20.410156 35.730469 20.578125 35.679688 C 20.699219 35.644531 20.800781 35.558594 20.894531 35.472656 C 20.980469 35.394531 21.0625 35.300781 21.121094 35.199219 C 21.164062 35.125 21.191406 35.039062 21.191406 34.957031 C 21.191406 34.882812 21.183594 34.785156 21.121094 34.75 C 21.074219 34.722656 21.023438 34.800781 20.980469 34.835938 C 20.933594 34.871094 20.90625 34.925781 20.859375 34.957031 C 20.78125 35.007812 20.699219 35.046875 20.613281 35.078125 C 20.546875 35.101562 20.472656 35.105469 20.402344 35.113281 C 20.277344 35.125 20.148438 35.140625 20.019531 35.144531 C 19.910156 35.152344 19.785156 35.199219 19.6875 35.144531 C 19.632812 35.117188 19.664062 35.019531 19.667969 34.957031 C 19.675781 34.898438 19.6875 34.835938 19.722656 34.785156 C 19.765625 34.722656 19.835938 34.679688 19.898438 34.628906 C 20.015625 34.535156 20.15625 34.460938 20.265625 34.355469 C 20.4375 34.183594 20.59375 34 20.734375 33.804688 C 20.910156 33.5625 21.03125 33.289062 21.207031 33.046875 C 21.324219 32.882812 21.453125 32.722656 21.609375 32.597656 C 21.746094 32.488281 21.914062 32.417969 22.082031 32.359375 C 22.164062 32.328125 22.257812 32.335938 22.34375 32.339844 C 22.410156 32.34375 22.476562 32.402344 22.535156 32.375 C 22.574219 32.355469 22.542969 32.285156 22.519531 32.253906 C 22.476562 32.199219 22.410156 32.15625 22.34375 32.132812 C 22.265625 32.109375 22.179688 32.117188 22.097656 32.117188 C 22 32.117188 21.902344 32.136719 21.800781 32.132812 C 21.71875 32.132812 21.628906 32.140625 21.558594 32.101562 C 21.484375 32.058594 21.445312 31.980469 21.398438 31.910156 C 21.367188 31.863281 21.339844 31.8125 21.328125 31.757812 C 21.316406 31.671875 21.351562 31.582031 21.328125 31.496094 C 21.316406 31.441406 21.269531 31.394531 21.226562 31.359375 C 21.191406 31.335938 21.144531 31.316406 21.101562 31.324219 C 21.058594 31.335938 21.027344 31.378906 20.996094 31.410156 C 20.945312 31.476562 20.921875 31.5625 20.859375 31.617188 C 20.804688 31.664062 20.734375 31.710938 20.664062 31.703125 C 20.589844 31.699219 20.535156 31.625 20.472656 31.582031 C 20.320312 31.480469 20.179688 31.359375 20.019531 31.273438 C 19.871094 31.195312 19.714844 31.117188 19.546875 31.085938 C 19.402344 31.058594 19.253906 31.082031 19.109375 31.101562 C 19.070312 31.105469 18.992188 31.117188 19.003906 31.152344 C 19.023438 31.210938 19.109375 31.222656 19.164062 31.257812 C 19.261719 31.316406 19.367188 31.359375 19.460938 31.429688 C 19.636719 31.5625 19.808594 31.703125 19.96875 31.859375 C 20.148438 32.039062 20.34375 32.210938 20.472656 32.425781 C 20.542969 32.542969 20.566406 32.691406 20.542969 32.824219 C 20.5 33.074219 20.40625 33.320312 20.28125 33.546875 C 20.144531 33.789062 19.988281 34.035156 19.773438 34.21875 C 19.367188 34.5625 18.886719 34.8125 18.445312 35.113281 C 18.105469 35.34375 17.742188 35.546875 17.433594 35.816406 C 17.253906 35.976562 17.121094 36.183594 16.996094 36.386719 C 16.851562 36.617188 16.769531 36.878906 16.628906 37.109375 C 16.53125 37.269531 16.421875 37.429688 16.28125 37.554688 C 16.222656 37.609375 16.128906 37.601562 16.054688 37.625 Z M 16.054688 37.625 "/>
<path style=" stroke:none;fill-rule:evenodd;fill:rgb(100%,100%,100%);fill-opacity:1;" d="M 5.015625 34.90625 C 4.949219 34.90625 4.898438 34.890625 4.863281 34.859375 C 4.828125 34.828125 4.8125 34.78125 4.8125 34.726562 C 4.8125 34.648438 4.875 34.574219 5.003906 34.496094 C 5.019531 34.488281 5.027344 34.484375 5.03125 34.480469 C 5.054688 34.46875 5.074219 34.453125 5.082031 34.425781 C 5.089844 34.402344 5.097656 34.363281 5.097656 34.304688 L 5.097656 31.085938 C 5.097656 31.003906 5.089844 30.949219 5.074219 30.917969 C 5.0625 30.882812 5.035156 30.855469 5 30.824219 C 4.992188 30.816406 4.980469 30.808594 4.960938 30.796875 C 4.886719 30.742188 4.851562 30.675781 4.851562 30.597656 C 4.851562 30.535156 4.875 30.484375 4.925781 30.449219 C 4.976562 30.414062 5.046875 30.394531 5.136719 30.394531 L 7.695312 30.394531 C 7.875 30.394531 7.988281 30.441406 8.042969 30.535156 C 8.09375 30.628906 8.121094 30.824219 8.121094 31.128906 C 8.121094 31.242188 8.105469 31.320312 8.082031 31.371094 C 8.054688 31.421875 8.011719 31.445312 7.953125 31.445312 C 7.882812 31.445312 7.792969 31.375 7.6875 31.238281 C 7.660156 31.199219 7.636719 31.167969 7.621094 31.148438 C 7.542969 31.050781 7.445312 30.984375 7.328125 30.945312 C 7.210938 30.90625 7.03125 30.882812 6.792969 30.882812 L 6.457031 30.882812 C 6.335938 30.882812 6.253906 30.910156 6.210938 30.957031 C 6.171875 31.007812 6.148438 31.121094 6.148438 31.296875 L 6.148438 32.339844 L 7.027344 32.339844 C 7.089844 32.339844 7.144531 32.335938 7.1875 32.324219 C 7.230469 32.316406 7.265625 32.304688 7.300781 32.289062 C 7.320312 32.277344 7.359375 32.238281 7.414062 32.175781 C 7.46875 32.113281 7.519531 32.082031 7.570312 32.082031 C 7.621094 32.082031 7.664062 32.105469 7.695312 32.15625 C 7.726562 32.207031 7.742188 32.273438 7.742188 32.363281 L 7.742188 32.855469 C 7.742188 32.941406 7.726562 33.007812 7.695312 33.058594 C 7.664062 33.105469 7.621094 33.132812 7.570312 33.132812 C 7.523438 33.132812 7.460938 33.089844 7.382812 33.011719 C 7.359375 32.984375 7.335938 32.960938 7.320312 32.945312 C 7.292969 32.921875 7.257812 32.90625 7.210938 32.894531 C 7.160156 32.882812 7.097656 32.875 7.027344 32.875 L 6.148438 32.875 L 6.148438 34.261719 C 6.148438 34.320312 6.15625 34.367188 6.171875 34.398438 C 6.1875 34.433594 6.210938 34.457031 6.25 34.476562 C 6.261719 34.480469 6.28125 34.492188 6.308594 34.503906 C 6.429688 34.558594 6.488281 34.628906 6.488281 34.714844 C 6.488281 34.78125 6.46875 34.828125 6.425781 34.859375 C 6.386719 34.890625 6.324219 34.90625 6.238281 34.90625 Z M 5.015625 34.90625 "/>
<path style=" stroke:none;fill-rule:evenodd;fill:rgb(100%,100%,100%);fill-opacity:1;" d="M 23.691406 32.742188 C 23.691406 32.484375 23.726562 32.238281 23.789062 32.003906 C 23.855469 31.765625 23.953125 31.539062 24.085938 31.324219 C 24.296875 30.992188 24.5625 30.734375 24.882812 30.558594 C 25.203125 30.378906 25.5625 30.292969 25.960938 30.292969 C 26.242188 30.292969 26.511719 30.332031 26.773438 30.414062 C 27.039062 30.496094 27.253906 30.605469 27.421875 30.742188 C 27.484375 30.789062 27.523438 30.859375 27.546875 30.949219 C 27.570312 31.042969 27.582031 31.238281 27.582031 31.542969 C 27.582031 31.644531 27.566406 31.714844 27.535156 31.765625 C 27.503906 31.8125 27.457031 31.835938 27.394531 31.835938 C 27.292969 31.835938 27.214844 31.761719 27.164062 31.609375 C 27.144531 31.554688 27.128906 31.515625 27.117188 31.488281 C 27.03125 31.277344 26.894531 31.105469 26.699219 30.980469 C 26.507812 30.851562 26.292969 30.789062 26.050781 30.789062 C 25.660156 30.789062 25.347656 30.953125 25.121094 31.285156 C 24.894531 31.613281 24.78125 32.066406 24.78125 32.640625 C 24.78125 33.203125 24.898438 33.652344 25.136719 33.984375 C 25.375 34.320312 25.695312 34.488281 26.09375 34.488281 C 26.277344 34.488281 26.445312 34.453125 26.59375 34.386719 C 26.746094 34.320312 26.898438 34.210938 27.0625 34.054688 C 27.085938 34.03125 27.121094 33.992188 27.167969 33.945312 C 27.289062 33.820312 27.386719 33.753906 27.457031 33.753906 C 27.507812 33.753906 27.554688 33.777344 27.589844 33.824219 C 27.628906 33.867188 27.648438 33.921875 27.648438 33.988281 C 27.648438 34.042969 27.628906 34.105469 27.59375 34.175781 C 27.554688 34.246094 27.503906 34.316406 27.433594 34.390625 C 27.230469 34.605469 27 34.765625 26.738281 34.871094 C 26.476562 34.976562 26.183594 35.03125 25.863281 35.03125 C 25.601562 35.03125 25.363281 34.996094 25.148438 34.929688 C 24.933594 34.863281 24.738281 34.761719 24.558594 34.625 C 24.28125 34.414062 24.066406 34.148438 23.917969 33.820312 C 23.769531 33.496094 23.691406 33.136719 23.691406 32.742188 Z M 23.691406 32.742188 "/>
<path style=" stroke:none;fill-rule:evenodd;fill:rgb(100%,100%,100%);fill-opacity:1;" d="M 8.246094 9.101562 C 8.792969 9.082031 9.199219 8.988281 9.464844 8.828125 C 9.730469 8.664062 9.863281 8.421875 9.863281 8.101562 C 9.863281 7.84375 9.78125 7.65625 9.625 7.539062 C 9.46875 7.421875 9.214844 7.363281 8.863281 7.363281 C 8.601562 7.363281 8.433594 7.386719 8.355469 7.4375 C 8.28125 7.488281 8.242188 7.585938 8.242188 7.734375 Z M 9.414062 6.871094 C 9.957031 6.871094 10.359375 6.964844 10.621094 7.152344 C 10.882812 7.339844 11.015625 7.628906 11.015625 8.019531 C 11.015625 8.300781 10.941406 8.542969 10.792969 8.75 C 10.644531 8.960938 10.425781 9.125 10.140625 9.242188 C 10.386719 9.675781 10.59375 10.121094 10.761719 10.570312 C 10.929688 11.023438 11.015625 11.25 11.019531 11.253906 C 11.03125 11.269531 11.082031 11.300781 11.175781 11.355469 C 11.265625 11.40625 11.3125 11.480469 11.3125 11.570312 C 11.3125 11.648438 11.292969 11.703125 11.253906 11.734375 C 11.214844 11.765625 11.128906 11.78125 11 11.78125 L 9.746094 11.78125 C 9.664062 11.78125 9.601562 11.761719 9.558594 11.730469 C 9.515625 11.695312 9.492188 11.648438 9.492188 11.589844 C 9.492188 11.535156 9.503906 11.492188 9.523438 11.457031 C 9.542969 11.425781 9.574219 11.394531 9.625 11.363281 C 9.628906 11.359375 9.644531 11.351562 9.660156 11.34375 C 9.71875 11.316406 9.746094 11.265625 9.746094 11.1875 C 9.746094 11.0625 9.679688 10.851562 9.550781 10.554688 C 9.425781 10.261719 9.253906 9.941406 9.042969 9.605469 C 8.925781 9.628906 8.800781 9.648438 8.664062 9.664062 C 8.535156 9.679688 8.394531 9.6875 8.246094 9.691406 L 8.242188 11.125 C 8.242188 11.191406 8.253906 11.242188 8.269531 11.269531 C 8.289062 11.292969 8.335938 11.320312 8.410156 11.351562 C 8.476562 11.378906 8.523438 11.40625 8.546875 11.4375 C 8.570312 11.46875 8.582031 11.511719 8.582031 11.570312 C 8.582031 11.648438 8.5625 11.703125 8.523438 11.734375 C 8.480469 11.765625 8.402344 11.78125 8.285156 11.78125 L 6.996094 11.78125 C 6.914062 11.78125 6.851562 11.761719 6.804688 11.726562 C 6.761719 11.691406 6.742188 11.644531 6.742188 11.578125 C 6.742188 11.515625 6.753906 11.472656 6.773438 11.4375 C 6.792969 11.40625 6.839844 11.371094 6.910156 11.335938 C 6.984375 11.300781 7.03125 11.261719 7.054688 11.214844 C 7.082031 11.167969 7.09375 11.0625 7.09375 10.894531 L 7.09375 7.699219 C 7.09375 7.566406 7.082031 7.480469 7.058594 7.4375 C 7.035156 7.394531 6.984375 7.355469 6.910156 7.320312 C 6.847656 7.289062 6.800781 7.257812 6.777344 7.222656 C 6.753906 7.1875 6.742188 7.140625 6.742188 7.082031 C 6.742188 7.007812 6.761719 6.957031 6.804688 6.921875 C 6.847656 6.886719 6.914062 6.867188 7 6.867188 L 9.414062 6.867188 Z M 9.414062 6.871094 "/>
<path style=" stroke:none;fill-rule:evenodd;fill:rgb(100%,100%,100%);fill-opacity:1;" d="M 12.867188 9.339844 C 12.867188 10 12.984375 10.511719 13.210938 10.871094 C 13.4375 11.238281 13.757812 11.417969 14.167969 11.417969 C 14.601562 11.417969 14.925781 11.238281 15.144531 10.882812 C 15.363281 10.523438 15.46875 9.988281 15.46875 9.269531 C 15.46875 8.632812 15.355469 8.140625 15.128906 7.789062 C 14.902344 7.4375 14.582031 7.261719 14.167969 7.261719 C 13.75 7.261719 13.425781 7.441406 13.203125 7.796875 C 12.980469 8.152344 12.867188 8.667969 12.867188 9.339844 Z M 11.660156 9.339844 C 11.660156 8.9375 11.726562 8.582031 11.859375 8.265625 C 11.988281 7.953125 12.195312 7.664062 12.472656 7.40625 C 12.699219 7.199219 12.957031 7.039062 13.246094 6.929688 C 13.539062 6.820312 13.847656 6.761719 14.167969 6.761719 C 14.515625 6.761719 14.832031 6.816406 15.121094 6.925781 C 15.414062 7.035156 15.667969 7.195312 15.890625 7.40625 C 16.160156 7.664062 16.359375 7.949219 16.488281 8.261719 C 16.613281 8.578125 16.679688 8.9375 16.679688 9.339844 C 16.679688 9.75 16.613281 10.109375 16.488281 10.417969 C 16.359375 10.726562 16.15625 11.007812 15.878906 11.261719 C 15.644531 11.476562 15.378906 11.640625 15.089844 11.753906 C 14.796875 11.867188 14.488281 11.921875 14.167969 11.921875 C 13.832031 11.921875 13.527344 11.867188 13.246094 11.757812 C 12.96875 11.652344 12.710938 11.484375 12.472656 11.261719 C 12.191406 10.996094 11.984375 10.707031 11.855469 10.402344 C 11.722656 10.089844 11.660156 9.738281 11.660156 9.339844 Z M 11.660156 9.339844 "/>
<path style=" stroke:none;fill-rule:evenodd;fill:rgb(100%,100%,100%);fill-opacity:1;" d="M 19.078125 11.921875 C 18.765625 11.921875 18.488281 11.886719 18.242188 11.808594 C 17.996094 11.734375 17.78125 11.621094 17.597656 11.46875 C 17.464844 11.355469 17.355469 11.230469 17.273438 11.089844 C 17.1875 10.949219 17.144531 10.828125 17.144531 10.722656 C 17.144531 10.617188 17.183594 10.527344 17.257812 10.453125 C 17.332031 10.375 17.425781 10.339844 17.53125 10.339844 C 17.660156 10.339844 17.777344 10.441406 17.875 10.640625 C 17.910156 10.714844 17.9375 10.769531 17.960938 10.808594 C 18.070312 10.984375 18.222656 11.125 18.414062 11.226562 C 18.609375 11.328125 18.824219 11.378906 19.066406 11.378906 C 19.378906 11.378906 19.625 11.3125 19.800781 11.179688 C 19.980469 11.042969 20.066406 10.859375 20.066406 10.625 C 20.066406 10.4375 20 10.292969 19.871094 10.199219 C 19.738281 10.105469 19.425781 10.011719 18.929688 9.925781 C 18.902344 9.921875 18.859375 9.914062 18.800781 9.902344 C 18.285156 9.816406 17.917969 9.671875 17.707031 9.476562 C 17.566406 9.34375 17.460938 9.191406 17.394531 9.019531 C 17.324219 8.84375 17.292969 8.644531 17.292969 8.414062 C 17.292969 7.9375 17.46875 7.542969 17.824219 7.234375 C 18.179688 6.921875 18.636719 6.769531 19.195312 6.769531 C 19.441406 6.769531 19.667969 6.792969 19.875 6.839844 C 20.085938 6.886719 20.277344 6.957031 20.453125 7.046875 C 20.558594 7.105469 20.632812 7.175781 20.671875 7.261719 C 20.714844 7.347656 20.738281 7.472656 20.738281 7.640625 C 20.738281 7.800781 20.71875 7.910156 20.6875 7.972656 C 20.652344 8.03125 20.589844 8.0625 20.503906 8.0625 C 20.394531 8.0625 20.289062 7.976562 20.195312 7.808594 C 20.167969 7.757812 20.144531 7.71875 20.125 7.691406 C 20.027344 7.546875 19.90625 7.4375 19.757812 7.363281 C 19.613281 7.289062 19.445312 7.25 19.25 7.25 C 18.972656 7.25 18.75 7.316406 18.589844 7.453125 C 18.429688 7.585938 18.351562 7.769531 18.351562 7.996094 C 18.351562 8.179688 18.414062 8.320312 18.542969 8.417969 C 18.675781 8.515625 18.984375 8.609375 19.476562 8.699219 C 19.824219 8.761719 20.074219 8.820312 20.230469 8.882812 C 20.386719 8.941406 20.519531 9.019531 20.632812 9.113281 C 20.792969 9.246094 20.910156 9.402344 20.984375 9.578125 C 21.0625 9.753906 21.101562 9.960938 21.101562 10.195312 C 21.101562 10.722656 20.917969 11.140625 20.554688 11.453125 C 20.1875 11.765625 19.695312 11.921875 19.078125 11.921875 Z M 19.078125 11.921875 "/>
<path style=" stroke:none;fill-rule:evenodd;fill:rgb(100%,100%,100%);fill-opacity:1;" d="M 23.507812 11.921875 C 23.195312 11.921875 22.917969 11.886719 22.671875 11.808594 C 22.425781 11.734375 22.210938 11.621094 22.027344 11.46875 C 21.894531 11.355469 21.785156 11.230469 21.703125 11.089844 C 21.617188 10.949219 21.574219 10.828125 21.574219 10.722656 C 21.574219 10.617188 21.613281 10.527344 21.6875 10.453125 C 21.761719 10.375 21.855469 10.339844 21.960938 10.339844 C 22.089844 10.339844 22.203125 10.441406 22.300781 10.640625 C 22.339844 10.714844 22.367188 10.769531 22.390625 10.808594 C 22.5 10.984375 22.648438 11.125 22.84375 11.226562 C 23.039062 11.328125 23.253906 11.378906 23.496094 11.378906 C 23.808594 11.378906 24.054688 11.3125 24.230469 11.179688 C 24.40625 11.042969 24.496094 10.859375 24.496094 10.625 C 24.496094 10.4375 24.429688 10.292969 24.300781 10.199219 C 24.167969 10.105469 23.855469 10.011719 23.359375 9.925781 C 23.332031 9.921875 23.289062 9.914062 23.230469 9.902344 C 22.710938 9.816406 22.347656 9.671875 22.136719 9.476562 C 21.996094 9.34375 21.890625 9.191406 21.824219 9.019531 C 21.753906 8.84375 21.722656 8.644531 21.722656 8.414062 C 21.722656 7.9375 21.898438 7.542969 22.253906 7.234375 C 22.609375 6.921875 23.066406 6.769531 23.625 6.769531 C 23.871094 6.769531 24.097656 6.792969 24.304688 6.839844 C 24.511719 6.886719 24.703125 6.957031 24.878906 7.046875 C 24.988281 7.105469 25.058594 7.175781 25.101562 7.261719 C 25.144531 7.347656 25.167969 7.472656 25.167969 7.640625 C 25.167969 7.800781 25.148438 7.910156 25.117188 7.972656 C 25.082031 8.03125 25.019531 8.0625 24.929688 8.0625 C 24.820312 8.0625 24.71875 7.976562 24.625 7.808594 C 24.597656 7.757812 24.574219 7.71875 24.554688 7.691406 C 24.457031 7.546875 24.335938 7.4375 24.1875 7.363281 C 24.042969 7.289062 23.871094 7.25 23.675781 7.25 C 23.398438 7.25 23.179688 7.316406 23.019531 7.453125 C 22.859375 7.585938 22.777344 7.769531 22.777344 7.996094 C 22.777344 8.179688 22.84375 8.320312 22.972656 8.417969 C 23.105469 8.515625 23.414062 8.609375 23.90625 8.699219 C 24.253906 8.761719 24.503906 8.820312 24.660156 8.882812 C 24.816406 8.941406 24.949219 9.019531 25.0625 9.113281 C 25.21875 9.246094 25.339844 9.402344 25.414062 9.578125 C 25.492188 9.753906 25.53125 9.960938 25.53125 10.195312 C 25.53125 10.722656 25.347656 11.140625 24.980469 11.453125 C 24.617188 11.765625 24.125 11.921875 23.507812 11.921875 Z M 23.507812 11.921875 "/>
<path style=" stroke:none;fill-rule:evenodd;fill:rgb(9.019608%,16.078431%,50.196078%);fill-opacity:1;" d="M 3.082031 19.289062 C 3.035156 19.027344 3.019531 18.769531 3.035156 18.511719 C 3.054688 18.253906 3.105469 18 3.1875 17.75 C 3.320312 17.359375 3.519531 17.035156 3.78125 16.78125 C 4.042969 16.527344 4.359375 16.351562 4.726562 16.257812 C 4.984375 16.191406 5.242188 16.171875 5.5 16.195312 C 5.757812 16.214844 5.976562 16.277344 6.15625 16.375 C 6.222656 16.414062 6.273438 16.476562 6.3125 16.5625 C 6.347656 16.648438 6.398438 16.851562 6.453125 17.160156 C 6.46875 17.261719 6.46875 17.339844 6.449219 17.394531 C 6.429688 17.453125 6.390625 17.488281 6.332031 17.503906 C 6.238281 17.527344 6.152344 17.46875 6.078125 17.324219 C 6.050781 17.273438 6.027344 17.238281 6.011719 17.214844 C 5.894531 17.015625 5.738281 16.875 5.535156 16.789062 C 5.335938 16.703125 5.125 16.6875 4.902344 16.746094 C 4.539062 16.835938 4.285156 17.078125 4.132812 17.46875 C 3.984375 17.859375 3.960938 18.347656 4.066406 18.933594 C 4.167969 19.507812 4.359375 19.9375 4.640625 20.222656 C 4.921875 20.507812 5.246094 20.605469 5.617188 20.511719 C 5.785156 20.46875 5.933594 20.398438 6.058594 20.292969 C 6.1875 20.191406 6.308594 20.042969 6.429688 19.84375 C 6.449219 19.8125 6.476562 19.765625 6.507812 19.707031 C 6.597656 19.550781 6.675781 19.464844 6.738281 19.445312 C 6.789062 19.433594 6.832031 19.445312 6.875 19.484375 C 6.917969 19.519531 6.949219 19.570312 6.960938 19.640625 C 6.96875 19.695312 6.964844 19.765625 6.941406 19.84375 C 6.921875 19.925781 6.882812 20.011719 6.835938 20.101562 C 6.6875 20.367188 6.503906 20.585938 6.28125 20.753906 C 6.058594 20.921875 5.796875 21.046875 5.5 21.121094 C 5.261719 21.179688 5.035156 21.203125 4.828125 21.183594 C 4.617188 21.164062 4.414062 21.105469 4.226562 21.007812 C 3.929688 20.859375 3.683594 20.636719 3.488281 20.339844 C 3.289062 20.039062 3.152344 19.691406 3.082031 19.289062 Z M 3.082031 19.289062 "/>
<path style=" stroke:none;fill-rule:evenodd;fill:rgb(9.019608%,16.078431%,50.196078%);fill-opacity:1;" d="M 8.980469 18.222656 C 8.964844 18.855469 9.046875 19.347656 9.226562 19.703125 C 9.410156 20.0625 9.671875 20.246094 10.019531 20.257812 C 10.386719 20.273438 10.664062 20.113281 10.859375 19.78125 C 11.050781 19.445312 11.15625 18.933594 11.175781 18.246094 C 11.195312 17.636719 11.113281 17.164062 10.929688 16.816406 C 10.75 16.472656 10.484375 16.296875 10.136719 16.28125 C 9.78125 16.265625 9.507812 16.425781 9.308594 16.757812 C 9.109375 17.089844 9 17.578125 8.980469 18.222656 Z M 7.960938 18.179688 C 7.972656 17.796875 8.039062 17.457031 8.160156 17.160156 C 8.28125 16.863281 8.460938 16.597656 8.703125 16.359375 C 8.898438 16.167969 9.121094 16.023438 9.371094 15.925781 C 9.617188 15.832031 9.878906 15.789062 10.148438 15.800781 C 10.441406 15.8125 10.710938 15.875 10.953125 15.988281 C 11.191406 16.101562 11.402344 16.265625 11.585938 16.476562 C 11.804688 16.734375 11.964844 17.015625 12.0625 17.320312 C 12.164062 17.625 12.207031 17.972656 12.195312 18.355469 C 12.183594 18.75 12.117188 19.09375 12.003906 19.382812 C 11.886719 19.671875 11.707031 19.9375 11.464844 20.171875 C 11.261719 20.367188 11.035156 20.515625 10.785156 20.613281 C 10.535156 20.710938 10.277344 20.753906 10.003906 20.742188 C 9.722656 20.734375 9.464844 20.667969 9.234375 20.554688 C 9 20.441406 8.789062 20.273438 8.59375 20.050781 C 8.363281 19.789062 8.199219 19.503906 8.097656 19.203125 C 7.996094 18.902344 7.953125 18.5625 7.960938 18.179688 Z M 7.960938 18.179688 "/>
<path style=" stroke:none;fill-rule:evenodd;fill:rgb(9.019608%,16.078431%,50.196078%);fill-opacity:1;" d="M 13.855469 16.339844 L 14.792969 16.578125 C 14.921875 16.609375 15.011719 16.652344 15.054688 16.710938 C 15.101562 16.765625 15.117188 16.839844 15.097656 16.933594 C 15.082031 17.03125 15.019531 17.097656 14.90625 17.132812 C 14.851562 17.148438 14.816406 17.167969 14.792969 17.183594 C 14.726562 17.234375 14.644531 17.4375 14.546875 17.792969 C 14.449219 18.148438 14.351562 18.59375 14.253906 19.136719 C 14.152344 19.710938 14.152344 20.152344 14.253906 20.449219 C 14.359375 20.75 14.574219 20.941406 14.90625 21.023438 C 15.246094 21.109375 15.519531 21.050781 15.722656 20.847656 C 15.925781 20.644531 16.074219 20.28125 16.164062 19.757812 C 16.257812 19.246094 16.324219 18.78125 16.367188 18.371094 C 16.40625 17.957031 16.417969 17.707031 16.398438 17.609375 C 16.386719 17.558594 16.339844 17.488281 16.253906 17.402344 C 16.171875 17.320312 16.136719 17.234375 16.152344 17.148438 C 16.164062 17.074219 16.195312 17.023438 16.242188 17 C 16.292969 16.972656 16.359375 16.972656 16.453125 16.996094 L 17.097656 17.160156 C 17.195312 17.183594 17.261719 17.21875 17.296875 17.261719 C 17.332031 17.308594 17.34375 17.367188 17.328125 17.445312 C 17.320312 17.492188 17.308594 17.527344 17.289062 17.550781 C 17.269531 17.578125 17.234375 17.601562 17.183594 17.625 C 17.171875 17.632812 17.15625 17.640625 17.136719 17.648438 C 17.050781 17.679688 17 17.75 16.980469 17.859375 C 16.96875 17.941406 16.9375 18.21875 16.890625 18.691406 C 16.847656 19.167969 16.789062 19.597656 16.722656 19.976562 C 16.605469 20.628906 16.371094 21.078125 16.023438 21.332031 C 15.675781 21.582031 15.210938 21.636719 14.628906 21.488281 C 14.046875 21.339844 13.640625 21.078125 13.410156 20.695312 C 13.179688 20.316406 13.121094 19.808594 13.234375 19.179688 C 13.296875 18.835938 13.386719 18.445312 13.503906 18 C 13.617188 17.554688 13.6875 17.277344 13.707031 17.167969 C 13.726562 17.066406 13.726562 16.992188 13.71875 16.9375 C 13.707031 16.886719 13.675781 16.839844 13.628906 16.796875 C 13.582031 16.753906 13.550781 16.710938 13.535156 16.667969 C 13.515625 16.625 13.515625 16.578125 13.523438 16.523438 C 13.539062 16.441406 13.574219 16.386719 13.632812 16.355469 C 13.691406 16.324219 13.765625 16.316406 13.855469 16.339844 Z M 13.855469 16.339844 "/>
<path style=" stroke:none;fill-rule:evenodd;fill:rgb(9.019608%,16.078431%,50.196078%);fill-opacity:1;" d="M 18.488281 18.976562 L 18.058594 21.601562 C 18.035156 21.753906 18.027344 21.851562 18.042969 21.90625 C 18.054688 21.957031 18.085938 22.003906 18.136719 22.046875 C 18.15625 22.058594 18.179688 22.074219 18.210938 22.09375 C 18.3125 22.15625 18.351562 22.234375 18.335938 22.332031 C 18.324219 22.40625 18.300781 22.457031 18.265625 22.476562 C 18.230469 22.496094 18.171875 22.496094 18.085938 22.476562 L 17.203125 22.273438 C 17.125 22.257812 17.074219 22.226562 17.042969 22.1875 C 17.015625 22.148438 17.007812 22.09375 17.019531 22.027344 C 17.035156 21.925781 17.09375 21.871094 17.1875 21.855469 C 17.285156 21.84375 17.339844 21.832031 17.347656 21.828125 C 17.398438 21.796875 17.4375 21.75 17.464844 21.695312 C 17.492188 21.636719 17.519531 21.515625 17.550781 21.332031 L 18.015625 18.488281 C 18.035156 18.375 18.035156 18.296875 18.027344 18.253906 C 18.015625 18.207031 17.984375 18.164062 17.933594 18.125 C 17.917969 18.109375 17.894531 18.09375 17.859375 18.070312 C 17.761719 18 17.71875 17.914062 17.738281 17.808594 C 17.75 17.742188 17.773438 17.695312 17.808594 17.667969 C 17.847656 17.644531 17.898438 17.636719 17.964844 17.652344 L 18.796875 17.84375 C 18.960938 17.882812 19.09375 18.027344 19.203125 18.28125 C 19.21875 18.3125 19.226562 18.335938 19.234375 18.355469 C 19.417969 18.753906 19.609375 19.214844 19.8125 19.726562 C 20.011719 20.238281 20.21875 20.792969 20.425781 21.390625 L 20.785156 19.203125 C 20.800781 19.101562 20.804688 19.023438 20.796875 18.960938 C 20.789062 18.898438 20.769531 18.851562 20.738281 18.820312 C 20.71875 18.800781 20.691406 18.773438 20.65625 18.746094 C 20.558594 18.664062 20.519531 18.570312 20.535156 18.472656 C 20.546875 18.402344 20.574219 18.355469 20.621094 18.324219 C 20.667969 18.296875 20.730469 18.292969 20.808594 18.308594 L 21.582031 18.488281 C 21.652344 18.503906 21.699219 18.539062 21.730469 18.585938 C 21.757812 18.636719 21.765625 18.699219 21.753906 18.773438 C 21.742188 18.859375 21.683594 18.914062 21.578125 18.941406 C 21.546875 18.949219 21.523438 18.957031 21.503906 18.964844 C 21.453125 18.988281 21.414062 19.023438 21.386719 19.070312 C 21.363281 19.117188 21.335938 19.21875 21.308594 19.375 L 20.773438 22.640625 C 20.742188 22.855469 20.695312 22.984375 20.640625 23.035156 C 20.582031 23.082031 20.484375 23.089844 20.347656 23.058594 C 20.238281 23.035156 20.160156 23.003906 20.109375 22.96875 C 20.058594 22.929688 20.019531 22.871094 19.984375 22.789062 C 19.972656 22.761719 19.929688 22.648438 19.855469 22.449219 C 19.425781 21.308594 18.972656 20.148438 18.488281 18.976562 Z M 18.488281 18.976562 "/>
<path style=" stroke:none;fill-rule:evenodd;fill:rgb(9.019608%,16.078431%,50.196078%);fill-opacity:1;" d="M 24.140625 22.433594 C 24.144531 22.566406 24.148438 22.65625 24.160156 22.703125 C 24.171875 22.753906 24.191406 22.785156 24.214844 22.800781 C 24.230469 22.816406 24.253906 22.828125 24.277344 22.84375 C 24.382812 22.914062 24.4375 22.992188 24.4375 23.082031 C 24.4375 23.144531 24.417969 23.1875 24.375 23.21875 C 24.335938 23.25 24.269531 23.265625 24.1875 23.269531 L 23.136719 23.289062 C 23.058594 23.289062 22.996094 23.277344 22.957031 23.246094 C 22.917969 23.214844 22.894531 23.167969 22.894531 23.105469 C 22.894531 23.023438 22.945312 22.949219 23.046875 22.878906 C 23.070312 22.859375 23.089844 22.847656 23.101562 22.839844 C 23.125 22.820312 23.144531 22.785156 23.15625 22.738281 C 23.167969 22.6875 23.171875 22.605469 23.171875 22.5 L 23.121094 19.128906 L 22.898438 19.132812 C 22.78125 19.136719 22.679688 19.167969 22.59375 19.226562 C 22.507812 19.285156 22.410156 19.390625 22.304688 19.546875 C 22.300781 19.554688 22.292969 19.5625 22.285156 19.574219 C 22.191406 19.710938 22.109375 19.777344 22.039062 19.78125 C 21.988281 19.78125 21.949219 19.761719 21.917969 19.726562 C 21.890625 19.691406 21.878906 19.636719 21.878906 19.566406 C 21.878906 19.535156 21.878906 19.515625 21.878906 19.496094 C 21.878906 19.480469 21.882812 19.464844 21.886719 19.449219 L 21.972656 18.914062 C 21.988281 18.796875 22.015625 18.714844 22.054688 18.667969 C 22.097656 18.625 22.160156 18.601562 22.246094 18.601562 L 24.945312 18.542969 C 25.035156 18.542969 25.097656 18.5625 25.136719 18.605469 C 25.175781 18.648438 25.207031 18.730469 25.230469 18.847656 L 25.332031 19.378906 C 25.335938 19.394531 25.339844 19.410156 25.339844 19.429688 C 25.34375 19.445312 25.34375 19.46875 25.34375 19.496094 C 25.34375 19.566406 25.332031 19.617188 25.304688 19.65625 C 25.277344 19.695312 25.238281 19.714844 25.1875 19.714844 C 25.117188 19.714844 25.03125 19.652344 24.9375 19.519531 C 24.925781 19.507812 24.921875 19.496094 24.914062 19.492188 C 24.804688 19.339844 24.703125 19.238281 24.617188 19.183594 C 24.527344 19.128906 24.425781 19.101562 24.3125 19.105469 L 24.089844 19.109375 Z M 24.140625 22.433594 "/>
<path style=" stroke:none;fill-rule:evenodd;fill:rgb(9.019608%,16.078431%,50.196078%);fill-opacity:1;" d="M 27.386719 20.695312 C 26.824219 20.253906 26.3125 19.753906 25.847656 19.199219 C 25.808594 19.15625 25.78125 19.121094 25.765625 19.101562 C 25.707031 19.039062 25.625 18.980469 25.515625 18.933594 C 25.402344 18.882812 25.339844 18.824219 25.324219 18.757812 C 25.300781 18.675781 25.308594 18.605469 25.347656 18.539062 C 25.382812 18.472656 25.441406 18.421875 25.519531 18.394531 L 26.441406 18.058594 C 26.527344 18.027344 26.597656 18.027344 26.652344 18.050781 C 26.710938 18.074219 26.746094 18.125 26.769531 18.199219 C 26.785156 18.269531 26.769531 18.34375 26.722656 18.433594 C 26.675781 18.519531 26.65625 18.574219 26.660156 18.59375 C 26.679688 18.664062 26.808594 18.824219 27.046875 19.074219 C 27.28125 19.324219 27.5625 19.582031 27.886719 19.847656 C 28.015625 19.429688 28.113281 19.058594 28.175781 18.734375 C 28.238281 18.410156 28.253906 18.195312 28.226562 18.085938 C 28.207031 18.019531 28.15625 17.976562 28.066406 17.953125 C 28.042969 17.945312 28.027344 17.941406 28.015625 17.941406 C 27.96875 17.925781 27.929688 17.90625 27.910156 17.882812 C 27.886719 17.863281 27.871094 17.832031 27.859375 17.789062 C 27.84375 17.71875 27.847656 17.652344 27.882812 17.597656 C 27.914062 17.546875 27.972656 17.503906 28.054688 17.472656 L 28.683594 17.242188 C 28.765625 17.214844 28.832031 17.210938 28.878906 17.234375 C 28.929688 17.257812 28.964844 17.308594 28.984375 17.382812 C 29.003906 17.464844 28.988281 17.554688 28.933594 17.644531 C 28.878906 17.738281 28.851562 17.789062 28.851562 17.796875 C 28.84375 17.820312 28.832031 17.890625 28.808594 18.007812 C 28.683594 18.753906 28.507812 19.503906 28.289062 20.253906 L 28.566406 21.339844 C 28.59375 21.449219 28.621094 21.523438 28.640625 21.554688 C 28.664062 21.589844 28.691406 21.609375 28.726562 21.621094 C 28.746094 21.625 28.773438 21.632812 28.8125 21.640625 C 28.921875 21.65625 28.992188 21.71875 29.019531 21.820312 C 29.035156 21.890625 29.03125 21.949219 28.996094 22 C 28.964844 22.046875 28.90625 22.085938 28.820312 22.117188 L 27.796875 22.488281 C 27.707031 22.523438 27.640625 22.527344 27.59375 22.507812 C 27.542969 22.492188 27.507812 22.445312 27.492188 22.375 C 27.464844 22.269531 27.5 22.160156 27.605469 22.050781 C 27.617188 22.039062 27.628906 22.027344 27.636719 22.015625 C 27.660156 21.988281 27.675781 21.949219 27.675781 21.898438 C 27.675781 21.847656 27.664062 21.773438 27.640625 21.675781 Z M 27.386719 20.695312 "/>
</g>
</svg>
