<?xml version="1.0" encoding="UTF-8"?>
<svg xmlns="http://www.w3.org/2000/svg" xmlns:xlink="http://www.w3.org/1999/xlink" width="32px" height="32px" viewBox="0 0 32 32" version="1.1">
<g id="surface1">
<path style=" stroke:none;fill-rule:nonzero;fill:rgb(100%,100%,100%);fill-opacity:1;" d="M 0 16.011719 C 0 7.167969 7.167969 0 16.011719 0 C 24.851562 0 32.019531 7.167969 32.019531 16.011719 C 32.019531 24.851562 24.851562 32.019531 16.011719 32.019531 C 7.167969 32.019531 0 24.851562 0 16.011719 Z M 0 16.011719 "/>
<path style=" stroke:none;fill-rule:nonzero;fill:rgb(0%,0%,0%);fill-opacity:1;" d="M 16.011719 0.296875 C 7.332031 0.296875 0.296875 7.332031 0.296875 16.011719 C 0.296875 24.6875 7.332031 31.722656 16.011719 31.722656 C 24.6875 31.722656 31.722656 24.6875 31.722656 16.011719 C 31.722656 7.332031 24.6875 0.296875 16.011719 0.296875 Z M 16.011719 0.296875 "/>
<path style=" stroke:none;fill-rule:nonzero;fill:rgb(100%,100%,100%);fill-opacity:1;" d="M 26.816406 26.816406 C 24.050781 29.585938 20.230469 31.292969 16.011719 31.292969 C 11.789062 31.292969 7.96875 29.585938 5.203125 26.816406 C 2.433594 24.050781 0.726562 20.230469 0.726562 16.007812 C 0.726562 11.789062 2.433594 7.96875 5.203125 5.203125 C 7.96875 2.433594 11.789062 0.726562 16.011719 0.726562 C 20.230469 0.726562 24.050781 2.433594 26.816406 5.203125 C 29.585938 7.96875 31.292969 11.789062 31.292969 16.007812 C 31.292969 20.230469 29.585938 24.050781 26.816406 26.816406 Z M 26.816406 26.816406 "/>
<path style=" stroke:none;fill-rule:nonzero;fill:rgb(0%,0%,0%);fill-opacity:1;" d="M 30.988281 16.011719 C 30.988281 24.28125 24.28125 30.988281 16.011719 30.988281 C 7.738281 30.988281 1.03125 24.28125 1.03125 16.011719 C 1.03125 7.738281 7.738281 1.03125 16.011719 1.03125 C 24.28125 1.03125 30.988281 7.738281 30.988281 16.011719 Z M 30.988281 16.011719 "/>
<path style=" stroke:none;fill-rule:nonzero;fill:rgb(100%,100%,100%);fill-opacity:1;" d="M 21.8125 2.375 C 22.515625 2.675781 23.191406 3.027344 23.832031 3.429688 L 21.136719 7.070312 C 20.882812 6.925781 20.621094 6.792969 20.355469 6.667969 Z M 21.8125 2.375 "/>
<path style=" stroke:none;fill-rule:nonzero;fill:rgb(100%,100%,100%);fill-opacity:1;" d="M 14.039062 26.125 C 14.300781 26.285156 14.546875 26.425781 14.769531 26.554688 C 12.335938 26.269531 10.148438 25.164062 8.503906 23.515625 C 6.582031 21.59375 5.394531 18.941406 5.394531 16.011719 C 5.394531 12.941406 6.695312 10.179688 8.777344 8.242188 L 8.960938 8.496094 C 6.960938 10.375 5.707031 13.046875 5.707031 16.011719 C 5.707031 21.027344 9.292969 25.203125 14.039062 26.125 Z M 14.039062 26.125 "/>
<path style=" stroke:none;fill-rule:nonzero;fill:rgb(100%,100%,100%);fill-opacity:1;" d="M 17.980469 26.121094 C 22.726562 25.203125 26.3125 21.027344 26.3125 16.011719 C 26.3125 13.046875 25.058594 10.375 23.058594 8.496094 L 23.246094 8.242188 C 25.324219 10.179688 26.625 12.941406 26.625 16.011719 C 26.625 18.941406 25.4375 21.59375 23.515625 23.515625 C 21.871094 25.164062 19.6875 26.269531 17.25 26.554688 C 17.472656 26.425781 17.71875 26.285156 17.980469 26.121094 Z M 17.980469 26.121094 "/>
<path style=" stroke:none;fill-rule:nonzero;fill:rgb(100%,100%,100%);fill-opacity:1;" d="M 17.207031 1.242188 C 18.003906 1.308594 18.78125 1.433594 19.539062 1.621094 L 18.082031 5.914062 C 17.792969 5.855469 17.5 5.8125 17.207031 5.777344 Z M 17.207031 1.242188 "/>
<path style=" stroke:none;fill-rule:nonzero;fill:rgb(100%,100%,100%);fill-opacity:1;" d="M 22.992188 9.027344 C 24.777344 10.816406 25.882812 13.28125 25.882812 16.011719 C 25.882812 18.738281 24.777344 21.203125 22.992188 22.992188 C 21.914062 24.066406 20.589844 24.898438 19.113281 25.386719 C 19.238281 25.300781 19.363281 25.210938 19.488281 25.117188 C 20.328125 24.503906 21.167969 23.785156 21.8125 22.984375 C 22.457031 22.191406 22.910156 21.308594 22.910156 20.367188 L 22.910156 9.164062 L 9.109375 9.164062 L 9.109375 20.367188 C 9.109375 21.308594 9.566406 22.191406 10.207031 22.984375 C 10.949219 23.902344 11.953125 24.71875 12.910156 25.386719 C 11.429688 24.898438 10.105469 24.070312 9.027344 22.992188 C 7.242188 21.203125 6.136719 18.738281 6.136719 16.011719 C 6.136719 13.28125 7.242188 10.816406 9.027344 9.027344 C 10.816406 7.242188 13.28125 6.136719 16.007812 6.136719 C 18.738281 6.136719 21.203125 7.242188 22.992188 9.027344 Z M 22.992188 9.027344 "/>
<path style=" stroke:none;fill-rule:nonzero;fill:rgb(100%,100%,100%);fill-opacity:1;" d="M 14.816406 1.242188 L 14.816406 5.777344 C 14.519531 5.8125 14.226562 5.855469 13.941406 5.914062 L 12.480469 1.621094 C 13.238281 1.433594 14.015625 1.308594 14.816406 1.242188 Z M 14.816406 1.242188 "/>
<path style=" stroke:none;fill-rule:nonzero;fill:rgb(100%,100%,100%);fill-opacity:1;" d="M 10.210938 2.375 L 11.664062 6.667969 C 11.398438 6.789062 11.136719 6.925781 10.882812 7.070312 L 8.1875 3.429688 C 8.828125 3.027344 9.503906 2.675781 10.210938 2.375 Z M 10.210938 2.375 "/>
<path style=" stroke:none;fill-rule:nonzero;fill:rgb(100%,100%,100%);fill-opacity:1;" d="M 26.484375 26.484375 C 23.804688 29.167969 20.101562 30.824219 16.011719 30.824219 C 11.917969 30.824219 8.214844 29.167969 5.535156 26.484375 C 2.855469 23.804688 1.195312 20.101562 1.195312 16.011719 C 1.195312 11.917969 2.855469 8.214844 5.535156 5.535156 C 5.769531 5.296875 6.015625 5.070312 6.265625 4.851562 L 8.675781 8.109375 C 6.554688 10.078125 5.230469 12.890625 5.230469 16.011719 C 5.230469 21.667969 9.589844 26.308594 15.136719 26.753906 C 15.589844 27.003906 15.875 27.140625 15.878906 27.140625 L 16.011719 27.203125 L 16.140625 27.140625 C 16.144531 27.140625 16.429688 27.003906 16.882812 26.753906 C 22.429688 26.308594 26.792969 21.667969 26.792969 16.011719 C 26.792969 12.890625 25.464844 10.078125 23.34375 8.109375 L 25.753906 4.851562 C 26.003906 5.070312 26.25 5.296875 26.484375 5.535156 C 29.167969 8.214844 30.824219 11.917969 30.824219 16.011719 C 30.824219 20.101562 29.167969 23.804688 26.484375 26.484375 Z M 26.484375 26.484375 "/>
<path style=" stroke:none;fill-rule:nonzero;fill:rgb(0%,0%,0%);fill-opacity:1;" d="M 5.808594 7.078125 C 5.691406 7.230469 5.25 6.808594 4.800781 7.394531 C 4.644531 7.597656 4.625 7.882812 4.875 8.074219 C 5.414062 8.488281 6.125 7.164062 6.957031 7.800781 C 7.355469 8.109375 7.335938 8.699219 7.046875 9.074219 C 6.941406 9.210938 6.824219 9.285156 6.730469 9.335938 C 6.628906 9.386719 6.554688 9.410156 6.523438 9.449219 C 6.496094 9.488281 6.515625 9.535156 6.539062 9.570312 L 6.421875 9.722656 L 5.847656 9.28125 L 5.925781 9.175781 C 6.105469 8.945312 6.46875 9.449219 6.824219 8.984375 C 6.960938 8.808594 6.96875 8.5625 6.777344 8.417969 C 6.285156 8.035156 5.597656 9.378906 4.75 8.726562 C 4.28125 8.367188 4.289062 7.679688 4.628906 7.238281 C 4.855469 6.945312 5.101562 6.886719 5.164062 6.804688 C 5.199219 6.761719 5.183594 6.722656 5.148438 6.6875 L 5.300781 6.484375 L 5.90625 6.949219 L 5.808594 7.078125 "/>
<path style=" stroke:none;fill-rule:nonzero;fill:rgb(0%,0%,0%);fill-opacity:1;" d="M 6.410156 9.886719 C 6.3125 9.945312 6.230469 10.046875 6.183594 10.144531 L 5.390625 11.734375 C 5.34375 11.835938 5.3125 11.960938 5.324219 12.074219 L 4.625 11.726562 L 4.675781 11.625 C 4.800781 11.375 5.066406 11.910156 5.378906 11.285156 L 5.445312 11.148438 L 3.433594 10.148438 C 3.144531 10.003906 3.238281 10.34375 2.992188 10.222656 L 2.933594 10.195312 L 3.472656 9.117188 L 3.527344 9.144531 C 3.773438 9.265625 3.445312 9.398438 3.734375 9.542969 L 5.746094 10.542969 L 5.8125 10.40625 C 6.125 9.78125 5.539062 9.894531 5.664062 9.640625 L 5.714844 9.539062 L 6.410156 9.886719 "/>
<path style=" stroke:none;fill-rule:nonzero;fill:rgb(0%,0%,0%);fill-opacity:1;" d="M 2.582031 12.070312 C 2.398438 12.011719 2.296875 11.816406 2.355469 11.632812 C 2.414062 11.449219 2.609375 11.347656 2.796875 11.40625 C 2.976562 11.464844 3.078125 11.660156 3.019531 11.847656 C 2.960938 12.03125 2.765625 12.128906 2.582031 12.070312 "/>
<path style=" stroke:none;fill-rule:nonzero;fill:rgb(0%,0%,0%);fill-opacity:1;" d="M 4.589844 16.066406 L 4.5625 17.070312 L 4.503906 17.070312 C 4.226562 17.0625 4.46875 16.832031 4.144531 16.824219 L 2.113281 16.769531 C 1.789062 16.761719 2.015625 17.007812 1.742188 17 L 1.679688 16.996094 L 1.707031 15.851562 L 1.769531 15.855469 C 2.046875 15.863281 1.804688 16.085938 2.128906 16.09375 L 4.054688 16.144531 L 4.054688 16.132812 L 1.722656 15.28125 L 1.730469 15.023438 L 4.074219 14.300781 L 4.074219 14.292969 L 2.175781 14.242188 C 1.851562 14.234375 2.078125 14.5 1.804688 14.492188 L 1.742188 14.492188 L 1.761719 13.710938 L 1.824219 13.714844 C 2.101562 13.71875 1.859375 13.980469 2.183594 13.988281 L 4.214844 14.039062 C 4.539062 14.046875 4.308594 13.8125 4.585938 13.820312 L 4.648438 13.820312 L 4.621094 14.832031 L 2.773438 15.414062 L 4.589844 16.066406 "/>
<path style=" stroke:none;fill-rule:nonzero;fill:rgb(0%,0%,0%);fill-opacity:1;" d="M 4.8125 18.433594 L 4.753906 18.445312 C 4.480469 18.492188 4.671875 18.222656 4.351562 18.277344 L 2.351562 18.625 C 2.03125 18.679688 2.300781 18.871094 2.03125 18.917969 L 1.96875 18.929688 L 1.773438 17.800781 L 1.835938 17.789062 C 2.105469 17.742188 1.914062 18.015625 2.234375 17.957031 L 4.238281 17.609375 C 4.554688 17.554688 4.285156 17.363281 4.554688 17.316406 L 4.617188 17.304688 L 4.8125 18.433594 "/>
<path style=" stroke:none;fill-rule:nonzero;fill:rgb(0%,0%,0%);fill-opacity:1;" d="M 3.90625 19.960938 L 3.972656 20.144531 C 4.058594 20.378906 4.242188 20.65625 4.699219 20.492188 C 5.066406 20.359375 5.089844 20.050781 5.046875 19.925781 L 4.925781 19.59375 L 3.90625 19.960938 M 2.832031 20.347656 C 2.53125 20.457031 2.816406 20.597656 2.574219 20.683594 L 2.503906 20.707031 L 2.121094 19.640625 L 2.191406 19.613281 C 2.429688 19.527344 2.304688 19.816406 2.601562 19.710938 L 4.511719 19.023438 C 4.8125 18.917969 4.527344 18.773438 4.769531 18.6875 L 4.835938 18.664062 L 5.386719 20.191406 C 5.484375 20.46875 5.476562 20.976562 4.984375 21.152344 C 4.445312 21.347656 4.144531 20.945312 4.015625 20.589844 L 3.976562 20.484375 L 3.96875 20.488281 C 4.058594 20.796875 3.988281 20.914062 3.800781 21.144531 L 3.246094 21.824219 C 3.097656 22.007812 3.304688 22.078125 3.101562 22.152344 L 3.035156 22.175781 L 2.730469 21.335938 L 3.507812 20.453125 C 3.59375 20.359375 3.75 20.199219 3.703125 20.074219 L 3.691406 20.039062 Z M 2.832031 20.347656 "/>
<path style=" stroke:none;fill-rule:nonzero;fill:rgb(0%,0%,0%);fill-opacity:1;" d="M 5.109375 22.582031 L 5.210938 22.742188 C 5.347656 22.953125 5.589844 23.183594 6 22.917969 C 6.328125 22.707031 6.28125 22.402344 6.210938 22.289062 L 6.019531 21.992188 L 5.109375 22.582031 M 4.144531 23.199219 C 3.878906 23.371094 4.1875 23.445312 3.972656 23.585938 L 3.910156 23.625 L 3.292969 22.667969 L 3.355469 22.628906 C 3.570312 22.492188 3.511719 22.804688 3.777344 22.632812 L 5.484375 21.53125 C 5.753906 21.359375 5.445312 21.285156 5.660156 21.144531 L 5.722656 21.105469 L 6.597656 22.46875 C 6.757812 22.71875 6.867188 23.214844 6.425781 23.5 C 5.945312 23.808594 5.558594 23.484375 5.355469 23.167969 L 5.296875 23.074219 L 5.289062 23.078125 C 5.445312 23.359375 5.402344 23.488281 5.269531 23.753906 L 4.886719 24.546875 C 4.78125 24.757812 4.996094 24.78125 4.820312 24.894531 L 4.757812 24.9375 L 4.273438 24.183594 L 4.832031 23.148438 C 4.890625 23.039062 5.007812 22.847656 4.933594 22.734375 L 4.914062 22.703125 Z M 4.144531 23.199219 "/>
<path style=" stroke:none;fill-rule:nonzero;fill:rgb(0%,0%,0%);fill-opacity:1;" d="M 6.894531 24.824219 L 7.085938 25.019531 C 7.339844 25.273438 7.386719 24.914062 7.585938 25.113281 L 7.640625 25.164062 L 7.058594 25.746094 L 6.980469 25.667969 C 6.8125 25.5 7.136719 25.394531 6.925781 25.183594 L 6.730469 24.988281 L 5.914062 25.804688 L 6.398438 26.289062 C 6.8125 26.703125 6.980469 26.121094 7.203125 26.34375 L 7.273438 26.414062 L 6.734375 26.949219 L 5.109375 25.324219 L 5.164062 25.269531 C 5.34375 25.089844 5.351562 25.40625 5.574219 25.183594 L 7.011719 23.746094 C 7.238281 23.523438 6.921875 23.515625 7.101562 23.335938 L 7.152344 23.285156 L 8.429688 24.5625 C 8.507812 24.640625 8.617188 24.710938 8.726562 24.734375 L 8.183594 25.277344 L 8.09375 25.191406 C 7.921875 25.019531 8.339844 24.800781 8.007812 24.464844 L 7.632812 24.089844 L 6.894531 24.824219 "/>
<path style=" stroke:none;fill-rule:nonzero;fill:rgb(0%,0%,0%);fill-opacity:1;" d="M 9.640625 27.625 L 10.367188 26.5625 C 10.550781 26.292969 10.222656 26.355469 10.378906 26.128906 L 10.414062 26.078125 L 11.007812 26.484375 L 10.972656 26.535156 C 10.816406 26.761719 10.757812 26.4375 10.578125 26.707031 L 9.1875 28.734375 L 8.945312 28.570312 L 8.976562 25.707031 L 7.875 27.320312 C 7.691406 27.585938 8.039062 27.542969 7.882812 27.769531 L 7.847656 27.820312 L 7.207031 27.382812 L 7.242188 27.332031 C 7.398438 27.105469 7.480469 27.441406 7.664062 27.175781 L 8.8125 25.5 C 8.992188 25.230469 8.648438 25.277344 8.804688 25.050781 L 8.839844 25 L 9.648438 25.554688 L 9.640625 27.625 "/>
<path style=" stroke:none;fill-rule:nonzero;fill:rgb(0%,0%,0%);fill-opacity:1;" d="M 12.578125 28.214844 L 12.882812 28.296875 C 13.230469 28.390625 13.097656 28.058594 13.371094 28.132812 L 13.4375 28.152344 L 13.21875 28.941406 L 13.078125 28.902344 C 12.882812 28.851562 13.105469 28.597656 12.816406 28.515625 L 12.507812 28.433594 L 12.253906 29.363281 C 12.167969 29.675781 12.46875 29.515625 12.398438 29.78125 L 12.378906 29.839844 L 11.265625 29.53125 L 11.28125 29.472656 C 11.351562 29.210938 11.511719 29.496094 11.597656 29.183594 L 12.136719 27.222656 C 12.179688 27.066406 12.128906 27.03125 12.078125 27 C 12.027344 26.96875 11.976562 26.941406 12.007812 26.824219 L 12.027344 26.75 L 13.8125 27.242188 C 13.921875 27.269531 14.050781 27.277344 14.15625 27.242188 L 13.953125 27.992188 L 13.832031 27.957031 C 13.609375 27.894531 13.886719 27.5 13.433594 27.375 L 12.855469 27.214844 L 12.578125 28.214844 "/>
<path style=" stroke:none;fill-rule:nonzero;fill:rgb(0%,0%,0%);fill-opacity:1;" d="M 16.128906 28.882812 C 16.152344 28.414062 16.097656 27.558594 15.453125 27.527344 C 14.8125 27.496094 14.679688 28.347656 14.65625 28.808594 C 14.636719 29.277344 14.6875 30.132812 15.332031 30.164062 C 15.972656 30.195312 16.105469 29.347656 16.128906 28.882812 M 13.917969 28.777344 C 13.960938 27.898438 14.582031 27.289062 15.460938 27.332031 C 16.347656 27.371094 16.90625 28.035156 16.867188 28.914062 C 16.824219 29.792969 16.207031 30.402344 15.324219 30.359375 C 14.4375 30.320312 13.878906 29.65625 13.917969 28.777344 Z M 13.917969 28.777344 "/>
<path style=" stroke:none;fill-rule:nonzero;fill:rgb(0%,0%,0%);fill-opacity:1;" d="M 19.429688 28.425781 C 19.332031 27.96875 19.0625 27.152344 18.433594 27.289062 C 17.804688 27.421875 17.890625 28.277344 17.988281 28.730469 C 18.085938 29.1875 18.359375 30 18.988281 29.867188 C 19.613281 29.734375 19.527344 28.878906 19.429688 28.425781 M 17.269531 28.886719 C 17.082031 28.023438 17.527344 27.277344 18.390625 27.09375 C 19.257812 26.910156 19.96875 27.40625 20.152344 28.265625 C 20.335938 29.128906 19.890625 29.875 19.027344 30.058594 C 18.164062 30.246094 17.453125 29.746094 17.269531 28.886719 Z M 17.269531 28.886719 "/>
<path style=" stroke:none;fill-rule:nonzero;fill:rgb(0%,0%,0%);fill-opacity:1;" d="M 19.777344 26.757812 C 19.886719 26.773438 20.015625 26.742188 20.117188 26.695312 L 21.71875 25.929688 C 21.820312 25.882812 21.921875 25.800781 21.980469 25.703125 L 22.316406 26.410156 L 22.214844 26.457031 C 21.960938 26.578125 22.082031 25.992188 21.453125 26.292969 L 21.316406 26.359375 L 22.28125 28.386719 C 22.421875 28.675781 22.558594 28.351562 22.675781 28.601562 L 22.703125 28.65625 L 21.617188 29.175781 L 21.59375 29.121094 C 21.472656 28.871094 21.8125 28.96875 21.671875 28.675781 L 20.703125 26.652344 L 20.566406 26.714844 C 19.9375 27.015625 20.46875 27.289062 20.214844 27.410156 L 20.113281 27.460938 L 19.777344 26.757812 "/>
<path style=" stroke:none;fill-rule:nonzero;fill:rgb(0%,0%,0%);fill-opacity:1;" d="M 23.730469 26.039062 L 23.832031 25.957031 C 24.0625 25.78125 24.234375 25.515625 23.972656 25.179688 C 23.714844 24.839844 23.429688 24.964844 23.3125 25.054688 L 23.097656 25.21875 L 23.730469 26.039062 M 24.582031 27.136719 L 24.71875 27.03125 C 24.988281 26.824219 25.25 26.570312 24.921875 26.148438 C 24.609375 25.742188 24.230469 25.941406 24.042969 26.085938 L 23.871094 26.21875 Z M 24.007812 27.875 L 23.960938 27.816406 C 23.804688 27.613281 24.121094 27.644531 23.925781 27.394531 L 22.683594 25.789062 C 22.492188 25.542969 22.441406 25.851562 22.285156 25.652344 L 22.238281 25.59375 L 23.363281 24.722656 C 23.710938 24.453125 24.183594 24.273438 24.503906 24.691406 C 24.761719 25.019531 24.601562 25.425781 24.324219 25.683594 L 24.332031 25.691406 C 24.652344 25.453125 25.160156 25.277344 25.492188 25.710938 C 25.921875 26.265625 25.445312 26.761719 25.105469 27.023438 Z M 24.007812 27.875 "/>
<path style=" stroke:none;fill-rule:nonzero;fill:rgb(0%,0%,0%);fill-opacity:1;" d="M 25.949219 24.722656 L 26.457031 24.097656 L 25.402344 23.765625 L 25.949219 24.722656 M 26.078125 24.929688 L 26.214844 25.195312 C 26.246094 25.253906 26.289062 25.332031 26.34375 25.378906 C 26.515625 25.519531 26.519531 25.167969 26.730469 25.339844 L 26.78125 25.378906 L 26.238281 26.042969 L 26.191406 26.003906 C 25.949219 25.808594 26.332031 25.914062 26.035156 25.386719 L 25.050781 23.640625 L 24.953125 23.613281 C 24.929688 23.605469 24.820312 23.578125 24.796875 23.558594 C 24.761719 23.527344 24.785156 23.464844 24.792969 23.429688 L 24.886719 23.054688 C 24.890625 23.03125 24.902344 22.976562 24.917969 22.957031 C 24.949219 22.917969 25.03125 22.957031 25.097656 22.976562 L 27.558594 23.757812 C 27.894531 23.867188 27.804688 23.558594 28.03125 23.742188 L 28.082031 23.78125 L 27.304688 24.730469 L 27.257812 24.691406 C 27.042969 24.515625 27.335938 24.464844 27.199219 24.355469 C 27.160156 24.324219 27.121094 24.3125 27.074219 24.300781 L 26.679688 24.1875 Z M 26.078125 24.929688 "/>
<path style=" stroke:none;fill-rule:nonzero;fill:rgb(0%,0%,0%);fill-opacity:1;" d="M 29.277344 21.464844 L 28.296875 23.390625 L 28.230469 23.359375 C 28.003906 23.242188 28.300781 23.132812 28.019531 22.992188 L 26.210938 22.070312 C 25.929688 21.925781 26.015625 22.234375 25.789062 22.117188 L 25.722656 22.085938 L 26.253906 21.035156 L 26.320312 21.070312 C 26.550781 21.183594 26.234375 21.324219 26.515625 21.464844 L 28.503906 22.476562 L 28.640625 22.203125 C 29.0625 21.375 28.398438 21.515625 28.5625 21.191406 L 28.597656 21.121094 L 29.277344 21.464844 "/>
<path style=" stroke:none;fill-rule:nonzero;fill:rgb(0%,0%,0%);fill-opacity:1;" d="M 30.105469 18.914062 L 29.457031 20.976562 L 29.386719 20.957031 C 29.144531 20.878906 29.421875 20.722656 29.121094 20.625 L 27.179688 20.015625 C 26.878906 19.921875 27.015625 20.210938 26.773438 20.132812 L 26.703125 20.109375 L 27.058594 18.988281 L 27.128906 19.011719 C 27.371094 19.085938 27.082031 19.273438 27.386719 19.371094 L 29.511719 20.039062 L 29.601562 19.75 C 29.882812 18.863281 29.25 19.109375 29.359375 18.765625 L 29.382812 18.6875 L 30.105469 18.914062 "/>
<path style=" stroke:none;fill-rule:nonzero;fill:rgb(0%,0%,0%);fill-opacity:1;" d="M 28.257812 14.714844 L 28.265625 14.824219 C 28.285156 15.125 27.585938 15.078125 27.625 15.699219 C 27.664062 16.320312 28.375 16.414062 28.871094 16.382812 C 29.476562 16.34375 30.167969 16.070312 30.125 15.355469 C 30.101562 15.03125 29.953125 14.859375 29.683594 14.703125 L 29.660156 14.6875 L 29.773438 14.484375 C 30.167969 14.695312 30.390625 15.035156 30.417969 15.484375 C 30.476562 16.394531 29.867188 17.039062 28.960938 17.097656 C 28.171875 17.144531 27.453125 16.683594 27.402344 15.847656 C 27.386719 15.609375 27.429688 15.453125 27.472656 15.335938 C 27.515625 15.214844 27.5625 15.140625 27.558594 15.070312 C 27.554688 15.011719 27.527344 14.996094 27.476562 14.980469 L 27.460938 14.761719 L 28.257812 14.714844 "/>
<path style=" stroke:none;fill-rule:nonzero;fill:rgb(0%,0%,0%);fill-opacity:1;" d="M 29.722656 11.804688 L 30.1875 13.917969 L 30.117188 13.933594 C 29.871094 13.988281 30.03125 13.714844 29.722656 13.78125 L 27.738281 14.21875 C 27.429688 14.289062 27.691406 14.46875 27.445312 14.523438 L 27.371094 14.539062 L 27.117188 13.390625 L 27.191406 13.375 C 27.4375 13.320312 27.285156 13.628906 27.59375 13.558594 L 29.769531 13.078125 L 29.703125 12.78125 C 29.5 11.871094 29.078125 12.402344 29 12.050781 L 28.980469 11.96875 L 29.722656 11.804688 "/>
<path style=" stroke:none;fill-rule:nonzero;fill:rgb(0%,0%,0%);fill-opacity:1;" d="M 26.566406 11.695312 L 26.625 11.667969 C 26.875 11.554688 26.757812 11.863281 27.050781 11.726562 L 28.449219 11.09375 C 28.832031 10.917969 29.082031 10.683594 28.882812 10.242188 C 28.652344 9.734375 28.210938 9.824219 28.078125 9.882812 L 26.53125 10.585938 C 26.238281 10.71875 26.542969 10.832031 26.292969 10.945312 L 26.238281 10.96875 L 25.941406 10.320312 L 26 10.292969 C 26.25 10.179688 26.132812 10.488281 26.425781 10.351562 L 27.972656 9.648438 C 28.46875 9.425781 28.921875 9.71875 29.171875 10.277344 C 29.429688 10.835938 29.390625 11.410156 28.816406 11.671875 L 27.332031 12.34375 C 27.035156 12.476562 27.34375 12.589844 27.09375 12.703125 L 27.039062 12.730469 L 26.566406 11.695312 "/>
<path style=" stroke:none;fill-rule:nonzero;fill:rgb(0%,0%,0%);fill-opacity:1;" d="M 26.304688 8.613281 L 26.226562 8.511719 C 26.050781 8.277344 25.789062 8.101562 25.449219 8.359375 C 25.109375 8.621094 25.226562 8.90625 25.316406 9.023438 L 25.480469 9.238281 L 26.304688 8.613281 M 27.414062 7.769531 L 27.308594 7.632812 C 27.101562 7.363281 26.851562 7.097656 26.425781 7.421875 C 26.019531 7.734375 26.210938 8.109375 26.355469 8.300781 L 26.488281 8.472656 Z M 28.144531 8.351562 L 28.085938 8.398438 C 27.882812 8.550781 27.917969 8.238281 27.664062 8.429688 L 26.046875 9.65625 C 25.800781 9.847656 26.109375 9.902344 25.90625 10.054688 L 25.847656 10.097656 L 24.988281 8.96875 C 24.71875 8.617188 24.546875 8.144531 24.964844 7.828125 C 25.296875 7.574219 25.703125 7.734375 25.957031 8.015625 L 25.964844 8.007812 C 25.730469 7.6875 25.558594 7.179688 25.996094 6.847656 C 26.554688 6.421875 27.042969 6.90625 27.304688 7.246094 Z M 28.144531 8.351562 "/>
<path style=" stroke:none;fill-rule:nonzero;fill:rgb(99.607843%,91.764706%,0%);fill-opacity:1;" d="M 16.011719 9.765625 L 9.707031 9.765625 L 9.707031 14.335938 L 22.3125 14.335938 L 22.3125 9.765625 Z M 16.011719 9.765625 "/>
<path style=" stroke:none;fill-rule:nonzero;fill:rgb(32.54902%,16.862745%,48.627451%);fill-opacity:1;" d="M 9.707031 16.3125 L 11.1875 16.3125 L 11.1875 17.789062 L 9.707031 17.789062 Z M 9.707031 16.3125 "/>
<path style=" stroke:none;fill-rule:nonzero;fill:rgb(100%,100%,100%);fill-opacity:1;" d="M 11.296875 16.3125 L 12.773438 16.3125 L 12.773438 17.789062 L 11.296875 17.789062 Z M 11.296875 16.3125 "/>
<path style=" stroke:none;fill-rule:nonzero;fill:rgb(32.54902%,16.862745%,48.627451%);fill-opacity:1;" d="M 12.886719 17.789062 L 12.886719 16.3125 L 14.363281 16.3125 L 14.363281 17.789062 Z M 12.886719 17.789062 "/>
<path style=" stroke:none;fill-rule:nonzero;fill:rgb(100%,100%,100%);fill-opacity:1;" d="M 14.476562 17.789062 L 14.476562 16.3125 L 15.953125 16.3125 L 15.953125 17.789062 Z M 14.476562 17.789062 "/>
<path style=" stroke:none;fill-rule:nonzero;fill:rgb(32.54902%,16.862745%,48.627451%);fill-opacity:1;" d="M 16.066406 16.3125 L 17.542969 16.3125 L 17.542969 17.789062 L 16.066406 17.789062 Z M 16.066406 16.3125 "/>
<path style=" stroke:none;fill-rule:nonzero;fill:rgb(100%,100%,100%);fill-opacity:1;" d="M 17.65625 16.3125 L 19.132812 16.3125 L 19.132812 17.789062 L 17.65625 17.789062 Z M 17.65625 16.3125 "/>
<path style=" stroke:none;fill-rule:nonzero;fill:rgb(32.54902%,16.862745%,48.627451%);fill-opacity:1;" d="M 19.246094 16.3125 L 20.722656 16.3125 L 20.722656 17.789062 L 19.246094 17.789062 Z M 19.246094 16.3125 "/>
<path style=" stroke:none;fill-rule:nonzero;fill:rgb(100%,100%,100%);fill-opacity:1;" d="M 19.246094 14.722656 L 20.722656 14.722656 L 20.722656 16.199219 L 19.246094 16.199219 Z M 19.246094 14.722656 "/>
<path style=" stroke:none;fill-rule:nonzero;fill:rgb(32.54902%,16.862745%,48.627451%);fill-opacity:1;" d="M 17.65625 14.722656 L 19.132812 14.722656 L 19.132812 16.199219 L 17.65625 16.199219 Z M 17.65625 14.722656 "/>
<path style=" stroke:none;fill-rule:nonzero;fill:rgb(100%,100%,100%);fill-opacity:1;" d="M 16.066406 14.722656 L 17.542969 14.722656 L 17.542969 16.199219 L 16.066406 16.199219 Z M 16.066406 14.722656 "/>
<path style=" stroke:none;fill-rule:nonzero;fill:rgb(32.54902%,16.862745%,48.627451%);fill-opacity:1;" d="M 15.953125 16.199219 L 14.476562 16.199219 L 14.476562 14.722656 L 15.953125 14.722656 Z M 15.953125 16.199219 "/>
<path style=" stroke:none;fill-rule:nonzero;fill:rgb(100%,100%,100%);fill-opacity:1;" d="M 14.363281 16.199219 L 12.886719 16.199219 L 12.886719 14.722656 L 14.363281 14.722656 Z M 14.363281 16.199219 "/>
<path style=" stroke:none;fill-rule:nonzero;fill:rgb(32.54902%,16.862745%,48.627451%);fill-opacity:1;" d="M 12.773438 16.199219 L 11.296875 16.199219 L 11.296875 14.722656 L 12.773438 14.722656 Z M 12.773438 16.199219 "/>
<path style=" stroke:none;fill-rule:nonzero;fill:rgb(100%,100%,100%);fill-opacity:1;" d="M 11.1875 16.199219 L 9.707031 16.199219 L 9.707031 14.722656 L 11.1875 14.722656 Z M 11.1875 16.199219 "/>
<path style=" stroke:none;fill-rule:nonzero;fill:rgb(100%,100%,100%);fill-opacity:1;" d="M 9.707031 17.902344 L 11.1875 17.902344 L 11.1875 19.378906 L 9.707031 19.378906 Z M 9.707031 17.902344 "/>
<path style=" stroke:none;fill-rule:nonzero;fill:rgb(32.54902%,16.862745%,48.627451%);fill-opacity:1;" d="M 11.296875 17.902344 L 12.773438 17.902344 L 12.773438 19.378906 L 11.296875 19.378906 Z M 11.296875 17.902344 "/>
<path style=" stroke:none;fill-rule:nonzero;fill:rgb(100%,100%,100%);fill-opacity:1;" d="M 12.886719 17.902344 L 14.363281 17.902344 L 14.363281 19.378906 L 12.886719 19.378906 Z M 12.886719 17.902344 "/>
<path style=" stroke:none;fill-rule:nonzero;fill:rgb(32.54902%,16.862745%,48.627451%);fill-opacity:1;" d="M 14.476562 17.902344 L 15.953125 17.902344 L 15.953125 19.378906 L 14.476562 19.378906 Z M 14.476562 17.902344 "/>
<path style=" stroke:none;fill-rule:nonzero;fill:rgb(100%,100%,100%);fill-opacity:1;" d="M 16.066406 17.902344 L 17.542969 17.902344 L 17.542969 19.378906 L 16.066406 19.378906 Z M 16.066406 17.902344 "/>
<path style=" stroke:none;fill-rule:nonzero;fill:rgb(32.54902%,16.862745%,48.627451%);fill-opacity:1;" d="M 17.65625 17.902344 L 19.132812 17.902344 L 19.132812 19.378906 L 17.65625 19.378906 Z M 17.65625 17.902344 "/>
<path style=" stroke:none;fill-rule:nonzero;fill:rgb(100%,100%,100%);fill-opacity:1;" d="M 19.246094 17.902344 L 20.722656 17.902344 L 20.722656 19.378906 L 19.246094 19.378906 Z M 19.246094 17.902344 "/>
<path style=" stroke:none;fill-rule:nonzero;fill:rgb(100%,100%,100%);fill-opacity:1;" d="M 20.835938 16.3125 L 22.3125 16.3125 L 22.3125 17.789062 L 20.835938 17.789062 Z M 20.835938 16.3125 "/>
<path style=" stroke:none;fill-rule:nonzero;fill:rgb(32.54902%,16.862745%,48.627451%);fill-opacity:1;" d="M 20.835938 17.902344 L 22.3125 17.902344 L 22.3125 19.378906 L 20.835938 19.378906 Z M 20.835938 17.902344 "/>
<path style=" stroke:none;fill-rule:nonzero;fill:rgb(32.54902%,16.862745%,48.627451%);fill-opacity:1;" d="M 20.835938 14.722656 L 22.3125 14.722656 L 22.3125 16.199219 L 20.835938 16.199219 Z M 20.835938 14.722656 "/>
<path style=" stroke:none;fill-rule:nonzero;fill:rgb(99.607843%,91.764706%,0%);fill-opacity:1;" d="M 10.671875 22.609375 C 11.5625 23.714844 12.933594 24.722656 14.082031 25.441406 C 14.652344 25.804688 15.171875 26.09375 15.542969 26.292969 C 15.730469 26.394531 15.878906 26.46875 15.980469 26.523438 C 15.992188 26.527344 16 26.53125 16.011719 26.535156 C 16.457031 26.3125 17.996094 25.511719 19.4375 24.40625 C 20.195312 23.828125 20.925781 23.164062 21.457031 22.472656 C 21.988281 21.777344 22.3125 21.058594 22.3125 20.367188 L 22.3125 19.761719 L 9.707031 19.761719 L 9.707031 20.367188 C 9.707031 21.105469 10.078125 21.871094 10.671875 22.609375 Z M 10.671875 22.609375 "/>
<path style=" stroke:none;fill-rule:nonzero;fill:rgb(0%,0%,0%);fill-opacity:1;" d="M 12.515625 10.785156 C 12.585938 10.886719 12.664062 11 12.652344 11.144531 C 12.6875 11.253906 12.578125 11.355469 12.664062 11.425781 C 12.859375 11.273438 13.164062 11.222656 13.410156 11.316406 C 13.691406 11.460938 13.898438 11.699219 14.101562 11.929688 C 14.117188 11.980469 14.117188 12.011719 14.101562 12.0625 C 13.972656 12.089844 13.972656 12.261719 13.847656 12.285156 C 13.753906 12.386719 13.625 12.421875 13.515625 12.507812 C 13.410156 12.644531 13.191406 12.574219 13.105469 12.738281 C 13.199219 12.917969 13.242188 13.128906 13.285156 13.324219 C 13.191406 13.46875 13.371094 13.570312 13.316406 13.71875 C 13.289062 13.789062 13.285156 13.730469 13.242188 13.789062 L 13.15625 13.792969 C 12.898438 13.820312 12.664062 13.765625 12.449219 13.726562 C 12.296875 13.65625 12.160156 13.5625 12.015625 13.488281 C 11.851562 13.597656 11.675781 13.707031 11.476562 13.734375 C 11.300781 13.828125 11.078125 13.84375 10.875 13.851562 C 10.753906 13.53125 10.636719 13.042969 10.789062 12.695312 C 10.609375 12.550781 10.3125 12.394531 10.210938 12.148438 C 10.183594 12.023438 9.980469 11.929688 10.082031 11.78125 C 10.21875 11.621094 10.371094 11.484375 10.542969 11.375 C 10.703125 11.398438 10.753906 11.261719 10.90625 11.296875 C 10.957031 11.355469 11.011719 11.273438 11.070312 11.289062 C 11.144531 11.289062 11.238281 11.417969 11.292969 11.296875 C 11.164062 10.863281 11.546875 10.515625 11.851562 10.25 C 12.152344 10.335938 12.289062 10.582031 12.515625 10.785156 "/>
<path style=" stroke:none;fill-rule:nonzero;fill:rgb(88.627451%,1.176471%,11.764706%);fill-opacity:1;" d="M 11.972656 10.625 C 12.167969 10.769531 12.382812 10.949219 12.347656 11.222656 C 12.3125 11.289062 12.304688 11.410156 12.210938 11.417969 C 12.066406 11.433594 12.117188 11.253906 12.050781 11.1875 C 12.066406 11.160156 12.058594 11.117188 12.058594 11.085938 C 12.03125 11.042969 11.980469 11.035156 11.945312 11.058594 C 11.894531 11.101562 11.945312 11.152344 11.945312 11.203125 C 11.921875 11.28125 11.886719 11.382812 11.8125 11.410156 C 11.707031 11.460938 11.675781 11.367188 11.613281 11.304688 C 11.5625 11.203125 11.496094 11.042969 11.589844 10.929688 C 11.691406 10.8125 11.792969 10.683594 11.894531 10.597656 L 11.972656 10.625 "/>
<path style=" stroke:none;fill-rule:nonzero;fill:rgb(88.627451%,1.176471%,11.764706%);fill-opacity:1;" d="M 11.25 11.742188 C 11.273438 11.867188 11.121094 11.835938 11.070312 11.894531 C 11 11.886719 10.933594 11.886719 10.890625 11.929688 C 10.898438 12.097656 11.136719 11.980469 11.199219 12.113281 C 11.238281 12.207031 11.144531 12.328125 11.035156 12.363281 C 10.839844 12.480469 10.6875 12.292969 10.542969 12.21875 C 10.492188 12.105469 10.378906 12.03125 10.40625 11.894531 C 10.5 11.714844 10.695312 11.5625 10.890625 11.527344 C 11.035156 11.527344 11.199219 11.597656 11.25 11.742188 "/>
<path style=" stroke:none;fill-rule:nonzero;fill:rgb(88.627451%,1.176471%,11.764706%);fill-opacity:1;" d="M 13.734375 11.929688 C 13.753906 12.175781 13.472656 12.207031 13.328125 12.3125 C 13.207031 12.363281 13.027344 12.394531 12.910156 12.328125 C 12.832031 12.25 12.679688 12.21875 12.714844 12.089844 C 12.757812 12.03125 12.890625 12.039062 12.851562 11.945312 C 12.808594 11.84375 12.578125 11.894531 12.722656 11.75 C 12.796875 11.636719 12.945312 11.613281 13.054688 11.527344 C 13.386719 11.449219 13.539062 11.75 13.734375 11.929688 "/>
<path style=" stroke:none;fill-rule:nonzero;fill:rgb(88.627451%,1.176471%,11.764706%);fill-opacity:1;" d="M 12.347656 11.859375 C 12.441406 12.03125 12.441406 12.242188 12.347656 12.414062 C 12.253906 12.542969 12.101562 12.582031 11.945312 12.574219 C 11.792969 12.582031 11.707031 12.488281 11.589844 12.414062 C 11.511719 12.261719 11.46875 12.039062 11.546875 11.867188 C 11.675781 11.679688 11.871094 11.613281 12.101562 11.664062 C 12.203125 11.679688 12.289062 11.773438 12.347656 11.859375 "/>
<path style=" stroke:none;fill-rule:nonzero;fill:rgb(0%,0%,0%);fill-opacity:1;" d="M 13.019531 11.929688 C 13.011719 11.953125 12.984375 11.953125 12.960938 11.953125 C 12.945312 11.910156 13.019531 11.867188 13.019531 11.929688 "/>
<path style=" stroke:none;fill-rule:nonzero;fill:rgb(88.627451%,1.176471%,11.764706%);fill-opacity:1;" d="M 11.445312 12.644531 C 11.496094 12.78125 11.425781 12.839844 11.417969 12.96875 C 11.597656 13.050781 11.640625 12.6875 11.828125 12.847656 C 11.894531 12.957031 11.828125 13.085938 11.800781 13.195312 C 11.640625 13.4375 11.375 13.546875 11.085938 13.546875 C 10.96875 13.46875 11.078125 13.28125 11 13.179688 C 11.011719 13.027344 11 12.839844 11.121094 12.71875 C 11.207031 12.652344 11.367188 12.507812 11.445312 12.644531 "/>
<path style=" stroke:none;fill-rule:nonzero;fill:rgb(88.627451%,1.176471%,11.764706%);fill-opacity:1;" d="M 12.917969 12.976562 C 12.960938 13.144531 12.96875 13.289062 13.019531 13.445312 C 12.953125 13.640625 12.773438 13.53125 12.621094 13.546875 C 12.398438 13.496094 12.203125 13.324219 12.167969 13.101562 C 12.167969 12.984375 12.101562 12.882812 12.21875 12.804688 C 12.296875 12.824219 12.414062 12.917969 12.476562 12.804688 C 12.492188 12.746094 12.457031 12.695312 12.507812 12.660156 C 12.679688 12.703125 12.851562 12.796875 12.917969 12.976562 "/>
<path style=" stroke:none;fill-rule:nonzero;fill:rgb(0%,0%,0%);fill-opacity:1;" d="M 12.578125 12.949219 C 12.558594 12.96875 12.527344 13.007812 12.492188 12.976562 L 12.492188 12.914062 C 12.527344 12.917969 12.570312 12.90625 12.578125 12.949219 "/>
<path style=" stroke:none;fill-rule:nonzero;fill:rgb(0%,0%,0%);fill-opacity:1;" d="M 19.503906 10.785156 C 19.433594 10.886719 19.355469 11 19.367188 11.144531 C 19.332031 11.253906 19.441406 11.355469 19.355469 11.425781 C 19.160156 11.273438 18.855469 11.222656 18.609375 11.316406 C 18.328125 11.460938 18.121094 11.699219 17.917969 11.929688 C 17.902344 11.980469 17.902344 12.011719 17.917969 12.0625 C 18.046875 12.089844 18.046875 12.261719 18.171875 12.285156 C 18.265625 12.386719 18.394531 12.421875 18.507812 12.507812 C 18.609375 12.644531 18.828125 12.574219 18.914062 12.738281 C 18.820312 12.917969 18.777344 13.128906 18.734375 13.324219 C 18.828125 13.46875 18.652344 13.570312 18.703125 13.71875 C 18.730469 13.789062 18.734375 13.730469 18.777344 13.789062 L 18.863281 13.792969 C 19.121094 13.820312 19.359375 13.765625 19.570312 13.726562 C 19.722656 13.65625 19.859375 13.5625 20.003906 13.488281 C 20.167969 13.597656 20.347656 13.707031 20.542969 13.734375 C 20.71875 13.828125 20.941406 13.84375 21.148438 13.851562 C 21.265625 13.53125 21.382812 13.042969 21.230469 12.695312 C 21.410156 12.550781 21.707031 12.394531 21.8125 12.148438 C 21.835938 12.023438 22.039062 11.929688 21.9375 11.78125 C 21.800781 11.621094 21.648438 11.484375 21.480469 11.375 C 21.316406 11.398438 21.265625 11.261719 21.113281 11.296875 C 21.0625 11.355469 21.011719 11.273438 20.949219 11.289062 C 20.875 11.289062 20.78125 11.417969 20.730469 11.296875 C 20.855469 10.863281 20.472656 10.515625 20.167969 10.25 C 19.867188 10.335938 19.730469 10.582031 19.503906 10.785156 "/>
<path style=" stroke:none;fill-rule:nonzero;fill:rgb(88.627451%,1.176471%,11.764706%);fill-opacity:1;" d="M 20.046875 10.625 C 19.851562 10.769531 19.636719 10.949219 19.671875 11.222656 C 19.707031 11.289062 19.714844 11.410156 19.808594 11.417969 C 19.953125 11.433594 19.902344 11.253906 19.972656 11.1875 C 19.953125 11.160156 19.960938 11.117188 19.960938 11.085938 C 19.988281 11.042969 20.039062 11.035156 20.074219 11.058594 C 20.125 11.101562 20.074219 11.152344 20.074219 11.203125 C 20.097656 11.28125 20.132812 11.382812 20.210938 11.410156 C 20.3125 11.460938 20.34375 11.367188 20.40625 11.304688 C 20.457031 11.203125 20.523438 11.042969 20.429688 10.929688 C 20.328125 10.8125 20.226562 10.683594 20.125 10.597656 L 20.046875 10.625 "/>
<path style=" stroke:none;fill-rule:nonzero;fill:rgb(88.627451%,1.176471%,11.764706%);fill-opacity:1;" d="M 20.773438 11.742188 C 20.746094 11.867188 20.898438 11.835938 20.949219 11.894531 C 21.019531 11.886719 21.085938 11.886719 21.128906 11.929688 C 21.121094 12.097656 20.882812 11.980469 20.824219 12.113281 C 20.78125 12.207031 20.875 12.328125 20.984375 12.363281 C 21.179688 12.480469 21.332031 12.292969 21.480469 12.21875 C 21.53125 12.105469 21.640625 12.03125 21.613281 11.894531 C 21.519531 11.714844 21.324219 11.5625 21.128906 11.527344 C 20.984375 11.527344 20.824219 11.597656 20.773438 11.742188 "/>
<path style=" stroke:none;fill-rule:nonzero;fill:rgb(88.627451%,1.176471%,11.764706%);fill-opacity:1;" d="M 18.285156 11.929688 C 18.265625 12.175781 18.546875 12.207031 18.691406 12.3125 C 18.8125 12.363281 18.992188 12.394531 19.109375 12.328125 C 19.1875 12.25 19.339844 12.21875 19.308594 12.089844 C 19.265625 12.03125 19.128906 12.039062 19.171875 11.945312 C 19.210938 11.84375 19.441406 11.894531 19.296875 11.75 C 19.222656 11.636719 19.078125 11.613281 18.964844 11.527344 C 18.632812 11.449219 18.480469 11.75 18.285156 11.929688 "/>
<path style=" stroke:none;fill-rule:nonzero;fill:rgb(88.627451%,1.176471%,11.764706%);fill-opacity:1;" d="M 19.671875 11.859375 C 19.578125 12.03125 19.578125 12.242188 19.671875 12.414062 C 19.765625 12.542969 19.917969 12.582031 20.074219 12.574219 C 20.226562 12.582031 20.3125 12.488281 20.429688 12.414062 C 20.507812 12.261719 20.550781 12.039062 20.472656 11.867188 C 20.34375 11.679688 20.148438 11.613281 19.917969 11.664062 C 19.816406 11.679688 19.730469 11.773438 19.671875 11.859375 "/>
<path style=" stroke:none;fill-rule:nonzero;fill:rgb(0%,0%,0%);fill-opacity:1;" d="M 19 11.929688 C 19.007812 11.953125 19.035156 11.953125 19.058594 11.953125 C 19.078125 11.910156 19 11.867188 19 11.929688 "/>
<path style=" stroke:none;fill-rule:nonzero;fill:rgb(88.627451%,1.176471%,11.764706%);fill-opacity:1;" d="M 20.574219 12.644531 C 20.523438 12.78125 20.59375 12.839844 20.601562 12.96875 C 20.421875 13.050781 20.378906 12.6875 20.191406 12.847656 C 20.125 12.957031 20.191406 13.085938 20.21875 13.195312 C 20.378906 13.4375 20.644531 13.546875 20.933594 13.546875 C 21.054688 13.46875 20.941406 13.28125 21.019531 13.179688 C 21.007812 13.027344 21.019531 12.839844 20.898438 12.71875 C 20.8125 12.652344 20.652344 12.507812 20.574219 12.644531 "/>
<path style=" stroke:none;fill-rule:nonzero;fill:rgb(88.627451%,1.176471%,11.764706%);fill-opacity:1;" d="M 19.101562 12.976562 C 19.058594 13.144531 19.050781 13.289062 19 13.445312 C 19.066406 13.640625 19.246094 13.53125 19.398438 13.546875 C 19.621094 13.496094 19.816406 13.324219 19.851562 13.101562 C 19.851562 12.984375 19.917969 12.882812 19.800781 12.804688 C 19.722656 12.824219 19.605469 12.917969 19.542969 12.804688 C 19.527344 12.746094 19.5625 12.695312 19.511719 12.660156 C 19.339844 12.703125 19.171875 12.796875 19.101562 12.976562 "/>
<path style=" stroke:none;fill-rule:nonzero;fill:rgb(0%,0%,0%);fill-opacity:1;" d="M 19.441406 12.949219 C 19.460938 12.96875 19.492188 13.007812 19.527344 12.976562 L 19.527344 12.914062 C 19.496094 12.917969 19.449219 12.90625 19.441406 12.949219 "/>
<path style=" stroke:none;fill-rule:nonzero;fill:rgb(0%,0%,0%);fill-opacity:1;" d="M 13.144531 7.074219 L 13.589844 6.917969 L 13.859375 6.917969 L 13.859375 8.605469 C 13.859375 8.757812 14.0625 8.636719 14.0625 8.78125 L 14.0625 8.847656 L 13.207031 8.847656 L 13.207031 8.78125 C 13.207031 8.636719 13.425781 8.757812 13.425781 8.605469 L 13.425781 7.183594 L 13.144531 7.183594 L 13.144531 7.074219 "/>
<path style=" stroke:none;fill-rule:nonzero;fill:rgb(0%,0%,0%);fill-opacity:1;" d="M 14.914062 8.03125 C 14.8125 8.089844 14.765625 8.277344 14.765625 8.386719 C 14.765625 8.59375 14.882812 8.765625 15.105469 8.765625 C 15.289062 8.765625 15.394531 8.640625 15.394531 8.46875 C 15.394531 8.28125 15.230469 8.1875 15.082031 8.113281 L 14.914062 8.03125 M 15.425781 7.347656 C 15.425781 7.160156 15.316406 7 15.121094 7 C 14.980469 7 14.847656 7.121094 14.847656 7.265625 C 14.847656 7.484375 15.050781 7.609375 15.234375 7.683594 C 15.363281 7.609375 15.425781 7.496094 15.425781 7.347656 Z M 15.375 7.769531 C 15.601562 7.882812 15.796875 8.003906 15.796875 8.289062 C 15.796875 8.503906 15.648438 8.898438 15.066406 8.898438 C 14.6875 8.898438 14.421875 8.667969 14.421875 8.382812 C 14.421875 8.164062 14.597656 8.035156 14.773438 7.945312 C 14.589844 7.824219 14.46875 7.671875 14.46875 7.441406 C 14.46875 7.078125 14.808594 6.871094 15.140625 6.871094 C 15.417969 6.871094 15.742188 7.015625 15.742188 7.332031 C 15.742188 7.535156 15.636719 7.617188 15.476562 7.710938 Z M 15.375 7.769531 "/>
<path style=" stroke:none;fill-rule:nonzero;fill:rgb(0%,0%,0%);fill-opacity:1;" d="M 17.339844 7.105469 L 17.164062 7.324219 C 16.980469 7.554688 16.796875 7.976562 16.796875 8.277344 C 16.796875 8.417969 16.851562 8.542969 16.851562 8.652344 C 16.851562 8.804688 16.757812 8.898438 16.609375 8.898438 C 16.425781 8.898438 16.335938 8.785156 16.335938 8.609375 C 16.335938 8.324219 16.582031 7.933594 16.675781 7.789062 L 16.988281 7.316406 L 16.410156 7.316406 C 16.125 7.316406 16.277344 7.515625 16.085938 7.515625 L 16.035156 7.515625 L 16.035156 6.859375 C 16.097656 6.898438 16.183594 6.917969 16.257812 6.917969 L 17.339844 6.917969 L 17.339844 7.105469 "/>
<path style=" stroke:none;fill-rule:nonzero;fill:rgb(0%,0%,0%);fill-opacity:1;" d="M 18.875 7.105469 L 18.699219 7.324219 C 18.515625 7.554688 18.332031 7.976562 18.332031 8.277344 C 18.332031 8.417969 18.386719 8.542969 18.386719 8.652344 C 18.386719 8.804688 18.292969 8.898438 18.144531 8.898438 C 17.960938 8.898438 17.871094 8.785156 17.871094 8.609375 C 17.871094 8.324219 18.117188 7.933594 18.210938 7.789062 L 18.523438 7.316406 L 17.945312 7.316406 C 17.65625 7.316406 17.8125 7.515625 17.621094 7.515625 L 17.570312 7.515625 L 17.570312 6.859375 C 17.632812 6.898438 17.71875 6.917969 17.792969 6.917969 L 18.875 6.917969 L 18.875 7.105469 "/>
<path style=" stroke:none;fill-rule:nonzero;fill:rgb(0%,0%,0%);fill-opacity:1;" d="M 14.828125 23.355469 L 14.460938 23.164062 C 14.46875 23.132812 14.476562 23.097656 14.476562 23.0625 L 14.476562 23.035156 C 14.476562 22.976562 14.460938 22.917969 14.429688 22.871094 C 14.5625 22.820312 14.675781 22.753906 14.769531 22.667969 C 14.980469 22.480469 15.078125 22.210938 15.078125 21.933594 C 15.078125 21.695312 15.023438 21.539062 14.960938 21.441406 C 14.898438 21.339844 14.828125 21.304688 14.8125 21.296875 C 14.8125 21.296875 14.808594 21.296875 14.804688 21.296875 C 14.792969 21.261719 14.78125 21.222656 14.757812 21.183594 C 14.710938 21.089844 14.628906 20.980469 14.496094 20.902344 C 14.472656 20.84375 14.425781 20.730469 14.351562 20.617188 C 14.300781 20.53125 14.230469 20.445312 14.144531 20.378906 C 14.0625 20.308594 13.953125 20.257812 13.828125 20.257812 C 13.703125 20.257812 13.59375 20.308594 13.507812 20.378906 C 13.378906 20.480469 13.292969 20.621094 13.230469 20.738281 C 13.195312 20.804688 13.171875 20.863281 13.15625 20.902344 C 13.023438 20.980469 12.941406 21.089844 12.894531 21.183594 C 12.875 21.222656 12.859375 21.261719 12.847656 21.296875 C 12.847656 21.296875 12.84375 21.296875 12.839844 21.296875 C 12.824219 21.304688 12.753906 21.339844 12.691406 21.441406 C 12.628906 21.539062 12.574219 21.695312 12.574219 21.933594 C 12.574219 22.210938 12.671875 22.480469 12.882812 22.667969 C 12.976562 22.753906 13.089844 22.820312 13.222656 22.871094 C 13.195312 22.917969 13.175781 22.976562 13.175781 23.035156 L 13.175781 23.0625 C 13.175781 23.097656 13.183594 23.132812 13.195312 23.164062 L 12.824219 23.355469 C 12.785156 23.375 12.761719 23.414062 12.761719 23.457031 L 12.761719 23.65625 C 12.761719 23.6875 12.773438 23.71875 12.796875 23.738281 C 12.816406 23.757812 12.847656 23.773438 12.875 23.773438 L 14.777344 23.773438 C 14.808594 23.773438 14.835938 23.757812 14.859375 23.738281 C 14.878906 23.71875 14.890625 23.6875 14.890625 23.65625 L 14.890625 23.457031 C 14.890625 23.414062 14.867188 23.375 14.828125 23.355469 Z M 14.828125 23.355469 "/>
<path style=" stroke:none;fill-rule:nonzero;fill:rgb(32.54902%,16.862745%,48.627451%);fill-opacity:1;" d="M 14.585938 21.351562 C 14.558594 21.363281 14.53125 21.378906 14.507812 21.394531 C 14.414062 21.449219 14.335938 21.53125 14.277344 21.636719 C 14.277344 21.636719 14.277344 21.632812 14.273438 21.632812 C 14.238281 21.558594 14.191406 21.480469 14.128906 21.40625 C 14.167969 21.289062 14.230469 21.207031 14.289062 21.152344 C 14.316406 21.125 14.34375 21.105469 14.367188 21.089844 C 14.460938 21.140625 14.519531 21.214844 14.554688 21.285156 C 14.566406 21.308594 14.578125 21.332031 14.585938 21.351562 Z M 14.585938 21.351562 "/>
<path style=" stroke:none;fill-rule:nonzero;fill:rgb(32.54902%,16.862745%,48.627451%);fill-opacity:1;" d="M 13.511719 20.710938 C 13.554688 20.648438 13.605469 20.585938 13.660156 20.546875 C 13.714844 20.507812 13.769531 20.484375 13.828125 20.484375 C 13.886719 20.484375 13.945312 20.507812 14.003906 20.554688 C 14.089844 20.625 14.167969 20.742188 14.21875 20.839844 C 14.230469 20.859375 14.238281 20.878906 14.246094 20.894531 C 14.214844 20.917969 14.175781 20.945312 14.132812 20.988281 C 14.070312 21.046875 14 21.132812 13.949219 21.246094 C 13.925781 21.230469 13.902344 21.214844 13.875 21.203125 C 13.84375 21.1875 13.808594 21.1875 13.777344 21.203125 C 13.753906 21.214844 13.730469 21.230469 13.707031 21.246094 C 13.652344 21.132812 13.585938 21.046875 13.523438 20.988281 C 13.480469 20.945312 13.4375 20.917969 13.40625 20.894531 C 13.433594 20.839844 13.46875 20.773438 13.511719 20.710938 Z M 13.511719 20.710938 "/>
<path style=" stroke:none;fill-rule:nonzero;fill:rgb(32.54902%,16.862745%,48.627451%);fill-opacity:1;" d="M 13.289062 21.089844 C 13.3125 21.105469 13.34375 21.132812 13.378906 21.164062 C 13.433594 21.21875 13.488281 21.296875 13.523438 21.40625 C 13.464844 21.480469 13.417969 21.558594 13.378906 21.632812 C 13.378906 21.632812 13.378906 21.636719 13.375 21.636719 C 13.359375 21.609375 13.34375 21.582031 13.324219 21.558594 C 13.273438 21.488281 13.214844 21.433594 13.144531 21.394531 C 13.121094 21.378906 13.097656 21.363281 13.070312 21.351562 C 13.078125 21.328125 13.085938 21.304688 13.101562 21.277344 C 13.140625 21.210938 13.195312 21.136719 13.289062 21.089844 Z M 13.289062 21.089844 "/>
<path style=" stroke:none;fill-rule:nonzero;fill:rgb(32.54902%,16.862745%,48.627451%);fill-opacity:1;" d="M 12.804688 21.933594 C 12.804688 21.726562 12.847656 21.617188 12.882812 21.5625 C 12.890625 21.550781 12.898438 21.539062 12.90625 21.53125 C 12.953125 21.546875 12.992188 21.566406 13.027344 21.585938 C 13.09375 21.628906 13.140625 21.679688 13.1875 21.769531 C 13.234375 21.863281 13.277344 21.996094 13.316406 22.1875 C 13.328125 22.25 13.386719 22.289062 13.449219 22.277344 C 13.511719 22.265625 13.550781 22.207031 13.539062 22.144531 C 13.523438 22.074219 13.511719 22.007812 13.496094 21.949219 C 13.507812 21.90625 13.542969 21.808594 13.59375 21.710938 C 13.652344 21.605469 13.730469 21.496094 13.828125 21.4375 C 13.929688 21.503906 14.015625 21.621094 14.074219 21.734375 C 14.105469 21.800781 14.128906 21.863281 14.144531 21.90625 C 14.152344 21.925781 14.15625 21.9375 14.160156 21.949219 C 14.144531 22.007812 14.128906 22.074219 14.113281 22.144531 C 14.101562 22.203125 14.140625 22.265625 14.203125 22.277344 C 14.265625 22.289062 14.324219 22.25 14.339844 22.1875 C 14.390625 21.933594 14.445312 21.78125 14.511719 21.691406 C 14.546875 21.648438 14.582031 21.617188 14.628906 21.585938 C 14.660156 21.566406 14.699219 21.546875 14.746094 21.53125 C 14.785156 21.574219 14.851562 21.679688 14.851562 21.933594 C 14.851562 22.164062 14.777344 22.355469 14.617188 22.5 C 14.457031 22.640625 14.207031 22.738281 13.828125 22.738281 C 13.449219 22.738281 13.195312 22.640625 13.035156 22.5 C 12.878906 22.355469 12.804688 22.164062 12.804688 21.933594 Z M 12.804688 21.933594 "/>
<path style=" stroke:none;fill-rule:nonzero;fill:rgb(32.54902%,16.862745%,48.627451%);fill-opacity:1;" d="M 13.828125 22.96875 L 14.203125 22.96875 C 14.210938 22.96875 14.21875 22.972656 14.230469 22.980469 C 14.242188 22.992188 14.25 23.011719 14.25 23.035156 L 14.25 23.0625 C 14.25 23.085938 14.242188 23.105469 14.230469 23.113281 C 14.21875 23.125 14.210938 23.128906 14.203125 23.128906 L 13.449219 23.128906 C 13.441406 23.128906 13.433594 23.125 13.421875 23.113281 C 13.414062 23.105469 13.40625 23.085938 13.40625 23.0625 L 13.40625 23.035156 C 13.40625 23.011719 13.414062 22.992188 13.421875 22.980469 C 13.433594 22.972656 13.441406 22.96875 13.449219 22.96875 Z M 13.828125 22.96875 "/>
<path style=" stroke:none;fill-rule:nonzero;fill:rgb(32.54902%,16.862745%,48.627451%);fill-opacity:1;" d="M 14.664062 23.542969 L 12.988281 23.542969 L 12.988281 23.523438 L 13.316406 23.355469 L 14.335938 23.355469 L 14.664062 23.523438 Z M 14.664062 23.542969 "/>
<path style=" stroke:none;fill-rule:nonzero;fill:rgb(0%,0%,0%);fill-opacity:1;" d="M 17.191406 23.355469 L 17.5625 23.164062 C 17.550781 23.132812 17.542969 23.097656 17.542969 23.0625 L 17.542969 23.035156 C 17.542969 22.976562 17.558594 22.917969 17.589844 22.871094 C 17.457031 22.820312 17.34375 22.753906 17.25 22.667969 C 17.039062 22.480469 16.941406 22.210938 16.941406 21.933594 C 16.941406 21.695312 16.996094 21.539062 17.058594 21.441406 C 17.121094 21.339844 17.191406 21.304688 17.207031 21.296875 C 17.210938 21.296875 17.210938 21.296875 17.214844 21.296875 C 17.226562 21.261719 17.238281 21.222656 17.261719 21.183594 C 17.308594 21.089844 17.390625 20.980469 17.523438 20.902344 C 17.546875 20.84375 17.59375 20.730469 17.667969 20.617188 C 17.722656 20.53125 17.789062 20.445312 17.875 20.378906 C 17.957031 20.308594 18.066406 20.257812 18.191406 20.257812 C 18.320312 20.257812 18.425781 20.308594 18.511719 20.378906 C 18.640625 20.480469 18.726562 20.621094 18.789062 20.738281 C 18.824219 20.804688 18.847656 20.863281 18.863281 20.902344 C 18.996094 20.980469 19.078125 21.089844 19.125 21.183594 C 19.144531 21.222656 19.160156 21.261719 19.171875 21.296875 C 19.175781 21.296875 19.175781 21.296875 19.179688 21.296875 C 19.195312 21.304688 19.265625 21.339844 19.328125 21.441406 C 19.390625 21.539062 19.445312 21.695312 19.445312 21.933594 C 19.445312 22.210938 19.347656 22.480469 19.136719 22.667969 C 19.042969 22.753906 18.929688 22.820312 18.796875 22.871094 C 18.824219 22.917969 18.84375 22.976562 18.84375 23.035156 L 18.84375 23.0625 C 18.84375 23.097656 18.835938 23.132812 18.824219 23.164062 L 19.195312 23.355469 C 19.234375 23.375 19.257812 23.414062 19.257812 23.457031 L 19.257812 23.65625 C 19.257812 23.6875 19.246094 23.71875 19.222656 23.738281 C 19.203125 23.757812 19.171875 23.773438 19.144531 23.773438 L 17.242188 23.773438 C 17.210938 23.773438 17.183594 23.757812 17.160156 23.738281 C 17.140625 23.71875 17.128906 23.6875 17.128906 23.65625 L 17.128906 23.457031 C 17.128906 23.414062 17.152344 23.375 17.191406 23.355469 Z M 17.191406 23.355469 "/>
<path style=" stroke:none;fill-rule:nonzero;fill:rgb(32.54902%,16.862745%,48.627451%);fill-opacity:1;" d="M 17.433594 21.351562 C 17.460938 21.363281 17.488281 21.378906 17.511719 21.394531 C 17.605469 21.449219 17.683594 21.53125 17.742188 21.636719 C 17.742188 21.636719 17.742188 21.632812 17.746094 21.632812 C 17.78125 21.558594 17.832031 21.480469 17.890625 21.40625 C 17.851562 21.289062 17.789062 21.207031 17.730469 21.152344 C 17.703125 21.125 17.675781 21.105469 17.652344 21.089844 C 17.558594 21.140625 17.5 21.214844 17.464844 21.285156 C 17.453125 21.308594 17.441406 21.332031 17.433594 21.351562 Z M 17.433594 21.351562 "/>
<path style=" stroke:none;fill-rule:nonzero;fill:rgb(32.54902%,16.862745%,48.627451%);fill-opacity:1;" d="M 18.511719 20.710938 C 18.464844 20.648438 18.414062 20.585938 18.359375 20.546875 C 18.304688 20.507812 18.25 20.484375 18.191406 20.484375 C 18.132812 20.484375 18.074219 20.507812 18.015625 20.554688 C 17.929688 20.625 17.851562 20.742188 17.800781 20.839844 C 17.789062 20.859375 17.78125 20.878906 17.773438 20.894531 C 17.804688 20.917969 17.84375 20.945312 17.886719 20.988281 C 17.949219 21.046875 18.019531 21.132812 18.070312 21.246094 C 18.09375 21.230469 18.117188 21.214844 18.144531 21.203125 C 18.175781 21.1875 18.210938 21.1875 18.242188 21.203125 C 18.265625 21.214844 18.292969 21.230469 18.316406 21.246094 C 18.367188 21.132812 18.433594 21.046875 18.5 20.988281 C 18.542969 20.945312 18.582031 20.917969 18.613281 20.894531 C 18.585938 20.839844 18.550781 20.773438 18.511719 20.710938 Z M 18.511719 20.710938 "/>
<path style=" stroke:none;fill-rule:nonzero;fill:rgb(32.54902%,16.862745%,48.627451%);fill-opacity:1;" d="M 18.730469 21.089844 C 18.707031 21.105469 18.675781 21.132812 18.644531 21.164062 C 18.585938 21.21875 18.53125 21.296875 18.496094 21.40625 C 18.554688 21.480469 18.601562 21.558594 18.640625 21.632812 C 18.640625 21.632812 18.644531 21.636719 18.644531 21.636719 C 18.660156 21.609375 18.675781 21.582031 18.695312 21.558594 C 18.746094 21.488281 18.804688 21.433594 18.875 21.394531 C 18.898438 21.378906 18.925781 21.363281 18.949219 21.351562 C 18.941406 21.328125 18.933594 21.304688 18.917969 21.277344 C 18.882812 21.210938 18.824219 21.136719 18.730469 21.089844 Z M 18.730469 21.089844 "/>
<path style=" stroke:none;fill-rule:nonzero;fill:rgb(32.54902%,16.862745%,48.627451%);fill-opacity:1;" d="M 19.21875 21.933594 C 19.21875 21.726562 19.171875 21.617188 19.136719 21.5625 C 19.128906 21.550781 19.121094 21.539062 19.113281 21.53125 C 19.066406 21.546875 19.027344 21.566406 18.992188 21.585938 C 18.925781 21.628906 18.878906 21.679688 18.832031 21.769531 C 18.785156 21.863281 18.742188 21.996094 18.703125 22.1875 C 18.691406 22.25 18.632812 22.289062 18.570312 22.277344 C 18.507812 22.265625 18.46875 22.207031 18.480469 22.144531 C 18.496094 22.074219 18.511719 22.007812 18.527344 21.949219 C 18.511719 21.90625 18.480469 21.808594 18.425781 21.710938 C 18.367188 21.605469 18.289062 21.496094 18.191406 21.4375 C 18.089844 21.503906 18.003906 21.621094 17.949219 21.734375 C 17.914062 21.800781 17.890625 21.863281 17.875 21.90625 C 17.867188 21.925781 17.863281 21.9375 17.859375 21.949219 C 17.875 22.007812 17.890625 22.074219 17.90625 22.144531 C 17.917969 22.203125 17.878906 22.265625 17.816406 22.277344 C 17.753906 22.289062 17.695312 22.25 17.683594 22.1875 C 17.628906 21.933594 17.574219 21.78125 17.507812 21.691406 C 17.472656 21.648438 17.4375 21.617188 17.390625 21.585938 C 17.359375 21.566406 17.320312 21.546875 17.273438 21.53125 C 17.238281 21.574219 17.167969 21.679688 17.167969 21.933594 C 17.167969 22.164062 17.242188 22.355469 17.402344 22.5 C 17.5625 22.640625 17.816406 22.738281 18.191406 22.738281 C 18.570312 22.738281 18.824219 22.640625 18.984375 22.5 C 19.140625 22.355469 19.214844 22.164062 19.21875 21.933594 Z M 19.21875 21.933594 "/>
<path style=" stroke:none;fill-rule:nonzero;fill:rgb(32.54902%,16.862745%,48.627451%);fill-opacity:1;" d="M 18.191406 22.96875 L 17.816406 22.96875 C 17.808594 22.96875 17.800781 22.972656 17.789062 22.980469 C 17.777344 22.992188 17.769531 23.011719 17.769531 23.035156 L 17.769531 23.0625 C 17.769531 23.085938 17.777344 23.105469 17.789062 23.113281 C 17.800781 23.125 17.808594 23.128906 17.816406 23.128906 L 18.570312 23.128906 C 18.578125 23.128906 18.585938 23.125 18.597656 23.113281 C 18.605469 23.105469 18.617188 23.085938 18.617188 23.0625 L 18.617188 23.035156 C 18.617188 23.011719 18.605469 22.992188 18.597656 22.980469 C 18.585938 22.972656 18.578125 22.96875 18.570312 22.96875 Z M 18.191406 22.96875 "/>
<path style=" stroke:none;fill-rule:nonzero;fill:rgb(32.54902%,16.862745%,48.627451%);fill-opacity:1;" d="M 17.355469 23.542969 L 19.03125 23.542969 L 19.03125 23.523438 L 18.703125 23.355469 L 17.683594 23.355469 L 17.355469 23.523438 Z M 17.355469 23.542969 "/>
</g>
</svg>
