<?xml version="1.0" encoding="UTF-8"?>
<svg xmlns="http://www.w3.org/2000/svg" xmlns:xlink="http://www.w3.org/1999/xlink" width="32px" height="32px" viewBox="0 0 32 37" version="1.1">
<g id="surface1">
<path style=" stroke:none;fill-rule:nonzero;fill:rgb(90.196078%,90.588235%,90.980392%);fill-opacity:1;" d="M 6.148438 11.277344 C 6.148438 11.257812 6.152344 11.234375 6.15625 11.207031 C 6.152344 11.238281 6.148438 11.261719 6.148438 11.277344 Z M 6.148438 11.277344 "/>
<path style=" stroke:none;fill-rule:nonzero;fill:rgb(90.196078%,90.588235%,90.980392%);fill-opacity:1;" d="M 31.007812 32.148438 C 31.003906 32.148438 31.003906 32.148438 31.003906 32.152344 C 30.878906 33.597656 28.945312 33.898438 27.761719 33.917969 C 27.414062 33.925781 27.160156 33.683594 27.046875 33.375 C 27.027344 33.324219 27.011719 33.273438 26.992188 33.222656 C 24.910156 34.050781 22.871094 34.945312 20.679688 35.46875 C 19.21875 35.816406 17.714844 36.035156 16.214844 36.054688 C 14.699219 36.074219 13.171875 35.878906 11.699219 35.542969 C 10.410156 35.253906 9.148438 34.851562 7.910156 34.382812 C 6.949219 34.019531 6.011719 33.609375 5.0625 33.222656 C 5.042969 33.273438 5.023438 33.324219 5.003906 33.375 C 4.890625 33.683594 4.640625 33.925781 4.289062 33.917969 C 3.863281 33.910156 3.433594 33.863281 3.019531 33.78125 C 2.015625 33.582031 0.757812 32.914062 1.089844 31.683594 C 1.269531 31.023438 1.449219 30.359375 1.628906 29.699219 C 1.703125 29.425781 1.777344 29.148438 1.851562 28.871094 C 1.878906 28.773438 1.902344 28.679688 1.957031 28.585938 C 2.023438 28.5 2.0625 28.449219 2.070312 28.4375 C 2.066406 28.445312 2.046875 28.46875 2.015625 28.511719 C 2.039062 28.480469 2.0625 28.449219 2.085938 28.421875 C 2.097656 28.410156 2.109375 28.394531 2.121094 28.386719 C 2.207031 28.300781 2.304688 28.226562 2.40625 28.160156 C 3.011719 27.78125 3.757812 27.847656 4.425781 27.976562 C 4.320312 27.121094 4.535156 26.191406 5.175781 25.574219 C 5.371094 25.386719 5.59375 25.226562 5.832031 25.101562 C 5.6875 24.878906 5.527344 24.667969 5.367188 24.457031 C 5.097656 24.101562 4.867188 23.730469 4.617188 23.363281 C 4.398438 23.042969 4.085938 22.734375 3.878906 22.355469 C 3.675781 21.976562 3.519531 21.554688 3.425781 21.132812 C 3.234375 20.269531 3.140625 19.296875 3.28125 18.421875 C 3.300781 18.300781 3.324219 18.179688 3.347656 18.058594 C 3.355469 18.015625 3.363281 17.96875 3.371094 17.921875 L 3.371094 17.917969 C 3.371094 17.902344 3.375 17.878906 3.378906 17.835938 C 3.382812 17.777344 3.382812 17.722656 3.382812 17.667969 C 3.382812 17.660156 3.382812 17.648438 3.382812 17.640625 C 3.367188 17.601562 3.339844 17.527344 3.355469 17.546875 C 3.328125 17.492188 3.300781 17.441406 3.265625 17.390625 C 3.257812 17.390625 3.199219 17.324219 3.160156 17.28125 C 3.160156 17.296875 3 17.199219 3.089844 17.21875 C 3.042969 17.203125 2.992188 17.191406 2.941406 17.183594 C 2.640625 17.140625 2.371094 16.765625 2.398438 16.472656 C 2.402344 16.417969 2.40625 16.363281 2.410156 16.3125 C 2.429688 16.074219 2.542969 15.847656 2.722656 15.707031 C 2.734375 15.023438 2.910156 14.316406 3.316406 13.785156 C 3.820312 13.136719 4.5625 12.777344 5.375 12.699219 C 5.601562 12.675781 5.824219 12.683594 6.039062 12.722656 C 6.042969 12.550781 6.054688 12.375 6.0625 12.210938 C 6.078125 11.964844 6.097656 11.722656 6.125 11.480469 C 6.132812 11.382812 6.148438 11.289062 6.160156 11.191406 C 6.160156 11.195312 6.160156 11.203125 6.15625 11.207031 C 6.160156 11.1875 6.164062 11.164062 6.164062 11.144531 C 6.207031 10.8125 6.363281 10.527344 6.710938 10.429688 C 6.960938 10.359375 7.25 10.429688 7.433594 10.621094 C 7.53125 10.71875 7.625 10.820312 7.722656 10.917969 C 7.808594 10.363281 8.511719 10.023438 8.976562 10.484375 C 9.273438 10.785156 9.621094 11.121094 9.707031 11.550781 C 9.742188 11.734375 9.75 11.917969 9.75 12.101562 C 10.460938 12.558594 11.175781 13.167969 11.527344 13.910156 C 11.617188 14.09375 11.71875 14.289062 11.71875 14.496094 C 11.71875 14.625 11.6875 14.738281 11.628906 14.847656 C 11.792969 14.839844 11.957031 14.855469 12.113281 14.894531 C 12.308594 14.941406 12.472656 15.023438 12.613281 15.128906 C 12.992188 14.894531 13.394531 14.695312 13.816406 14.539062 C 13.816406 14.464844 13.824219 14.386719 13.835938 14.3125 C 13.75 14.089844 13.671875 13.871094 13.621094 13.636719 C 13.445312 13.351562 13.363281 12.941406 13.28125 12.632812 C 13.117188 12.027344 12.992188 11.40625 12.925781 10.78125 C 12.898438 10.5 12.875 10.214844 12.898438 9.933594 C 12.914062 9.691406 12.914062 9.386719 13.066406 9.1875 C 13.414062 8.738281 13.886719 8.503906 14.390625 8.535156 C 14.453125 8.484375 14.523438 8.4375 14.59375 8.398438 C 14.597656 7.59375 14.59375 6.789062 14.546875 5.988281 C 14.539062 5.902344 14.496094 5.617188 14.550781 5.953125 C 14.53125 5.832031 14.519531 5.71875 14.535156 5.605469 C 12.683594 5.820312 10.886719 6.390625 9.105469 7.101562 C 7.828125 7.609375 6.570312 8.210938 5.246094 8.59375 C 4.660156 8.761719 3.980469 8.941406 3.359375 8.890625 C 2.851562 8.84375 2.234375 8.65625 1.957031 8.179688 C 1.855469 8.003906 1.820312 7.769531 1.765625 7.578125 C 1.671875 7.222656 1.574219 6.867188 1.476562 6.511719 C 1.378906 6.152344 1.28125 5.789062 1.183594 5.429688 C 1.128906 5.226562 1.039062 5 1.039062 4.785156 L 1.039062 4.769531 C 1.039062 3.1875 3.066406 2.867188 4.289062 2.847656 C 4.640625 2.839844 4.890625 3.082031 5.003906 3.390625 C 5.023438 3.441406 5.042969 3.492188 5.0625 3.546875 C 7.140625 2.714844 9.179688 1.820312 11.371094 1.296875 C 12.832031 0.949219 14.339844 0.730469 15.839844 0.710938 C 17.355469 0.691406 18.878906 0.890625 20.351562 1.222656 C 21.644531 1.515625 22.90625 1.914062 24.140625 2.382812 C 25.101562 2.75 26.039062 3.15625 26.992188 3.542969 C 27.011719 3.492188 27.027344 3.441406 27.046875 3.390625 C 27.160156 3.082031 27.414062 2.839844 27.761719 2.847656 C 28.335938 2.855469 28.933594 2.921875 29.476562 3.09375 C 30.097656 3.289062 30.738281 3.636719 30.945312 4.296875 C 31.050781 4.636719 31 4.929688 30.914062 5.25 C 30.722656 5.960938 30.53125 6.667969 30.339844 7.375 C 30.28125 7.582031 30.226562 7.789062 30.171875 7.992188 C 30.046875 8.445312 29.46875 8.785156 29.039062 8.84375 C 27.679688 9.042969 26.273438 8.453125 25.039062 7.957031 C 22.90625 7.09375 20.710938 6.144531 18.46875 5.730469 C 18.5 5.839844 18.511719 5.957031 18.515625 6.078125 C 18.519531 6.53125 18.523438 6.984375 18.53125 7.4375 C 18.535156 7.84375 18.539062 8.253906 18.542969 8.664062 C 18.894531 8.472656 19.285156 8.363281 19.683594 8.398438 C 20.09375 8.429688 20.515625 8.535156 20.792969 8.867188 C 21.082031 9.210938 21.164062 9.632812 21.078125 10.070312 C 21.03125 10.304688 20.894531 10.464844 20.710938 10.609375 C 20.765625 10.566406 20.796875 10.546875 20.804688 10.539062 C 20.785156 10.554688 20.671875 10.644531 20.628906 10.691406 C 20.5625 10.75 20.503906 10.816406 20.445312 10.882812 C 20.429688 10.898438 20.414062 10.917969 20.398438 10.933594 C 20.398438 10.9375 20.398438 10.9375 20.394531 10.941406 C 20.394531 10.941406 20.390625 10.945312 20.386719 10.949219 C 20.382812 10.953125 20.382812 10.957031 20.378906 10.957031 C 20.371094 10.972656 20.359375 10.988281 20.355469 10.996094 C 20.230469 11.175781 20.117188 11.359375 20.03125 11.5625 C 20.03125 11.570312 19.972656 11.722656 19.964844 11.742188 C 19.945312 11.8125 19.921875 11.878906 19.90625 11.949219 C 19.886719 12.023438 19.871094 12.09375 19.859375 12.167969 C 19.851562 12.210938 19.847656 12.234375 19.84375 12.242188 L 19.84375 12.246094 C 19.84375 12.257812 19.84375 12.269531 19.839844 12.285156 C 19.820312 12.574219 19.785156 12.804688 19.574219 13.027344 C 19.480469 13.128906 19.390625 13.230469 19.296875 13.332031 C 19.230469 13.410156 19.164062 13.484375 19.097656 13.566406 C 19.066406 13.605469 19.035156 13.644531 19.003906 13.683594 C 19 13.6875 18.996094 13.691406 18.992188 13.695312 C 18.992188 13.695312 18.988281 13.699219 18.988281 13.703125 C 18.984375 13.707031 18.976562 13.714844 18.972656 13.722656 C 18.851562 13.882812 18.734375 14.046875 18.644531 14.226562 C 18.644531 14.230469 18.640625 14.234375 18.640625 14.234375 L 18.640625 14.714844 C 18.90625 14.835938 19.160156 14.972656 19.410156 15.125 C 19.554688 15.011719 19.726562 14.929688 19.929688 14.894531 C 20.09375 14.867188 20.261719 14.851562 20.425781 14.859375 C 20.320312 14.671875 20.285156 14.453125 20.382812 14.203125 C 20.730469 13.320312 21.484375 12.632812 22.277344 12.109375 C 22.273438 11.890625 22.28125 11.671875 22.351562 11.488281 C 22.515625 11.085938 22.761719 10.785156 23.0625 10.484375 C 23.527344 10.027344 24.234375 10.363281 24.316406 10.917969 C 24.414062 10.820312 24.507812 10.71875 24.605469 10.621094 C 24.839844 10.382812 25.222656 10.339844 25.507812 10.503906 C 25.753906 10.648438 25.839844 10.875 25.875 11.144531 C 25.941406 11.652344 26 12.1875 26.007812 12.722656 C 26.234375 12.679688 26.464844 12.671875 26.699219 12.703125 C 27.5 12.796875 28.226562 13.144531 28.722656 13.785156 C 29.132812 14.316406 29.304688 15.023438 29.316406 15.710938 C 29.5 15.847656 29.609375 16.074219 29.628906 16.3125 C 29.632812 16.363281 29.636719 16.417969 29.640625 16.472656 C 29.660156 16.769531 29.398438 17.136719 29.09375 17.183594 C 29.054688 17.191406 29.015625 17.199219 28.976562 17.207031 C 28.96875 17.214844 28.953125 17.222656 28.921875 17.242188 C 28.910156 17.25 28.902344 17.253906 28.894531 17.257812 C 28.886719 17.265625 28.875 17.277344 28.859375 17.296875 C 28.839844 17.316406 28.816406 17.335938 28.796875 17.359375 C 28.796875 17.367188 28.726562 17.46875 28.722656 17.476562 C 28.707031 17.5 28.695312 17.523438 28.683594 17.550781 C 28.703125 17.527344 28.671875 17.664062 28.660156 17.664062 C 28.65625 18.007812 28.75 18.3125 28.796875 18.710938 C 28.839844 19.113281 28.816406 19.519531 28.78125 19.921875 C 28.726562 20.597656 28.628906 21.261719 28.371094 21.890625 C 28.207031 22.296875 27.992188 22.628906 27.71875 22.972656 C 27.519531 23.222656 27.382812 23.445312 27.195312 23.730469 C 26.945312 24.113281 26.65625 24.46875 26.386719 24.839844 C 27.289062 25.246094 28.125 25.957031 28.074219 27.03125 C 28.0625 27.335938 27.992188 27.636719 27.875 27.917969 C 28.65625 27.796875 29.445312 27.855469 29.976562 28.4375 C 30.171875 28.648438 30.214844 28.9375 30.289062 29.207031 C 30.386719 29.566406 30.484375 29.929688 30.582031 30.289062 C 30.714844 30.777344 30.894531 31.273438 30.980469 31.777344 C 31 31.839844 31.011719 31.910156 31.011719 31.980469 C 31.019531 32.039062 31.019531 32.09375 31.007812 32.148438 Z M 31.007812 32.148438 "/>
<path style=" stroke:none;fill-rule:nonzero;fill:rgb(13.72549%,12.156863%,12.54902%);fill-opacity:1;" d="M 28.898438 16.472656 L 28.886719 16.3125 C 28.882812 16.3125 28.734375 16.316406 28.550781 16.300781 C 28.59375 15.917969 28.703125 14.296875 27.523438 13.707031 C 26.902344 13.398438 26.308594 13.339844 25.804688 13.535156 C 25.550781 13.632812 25.324219 13.796875 25.125 14.019531 C 25.136719 13.988281 25.144531 13.957031 25.152344 13.925781 C 25.375 13.011719 25.164062 11.378906 25.152344 11.308594 L 25.132812 11.144531 L 24.078125 12.222656 C 23.816406 11.949219 23.472656 11.496094 23.523438 11.285156 L 23.585938 11.007812 L 23.386719 11.207031 C 23.371094 11.222656 23.035156 11.566406 23.035156 11.871094 L 23.035156 12.511719 C 22.78125 12.660156 21.441406 13.476562 21.078125 14.457031 L 21.0625 14.496094 L 21.085938 14.53125 C 21.089844 14.539062 21.585938 15.253906 22.726562 15.117188 C 22.472656 15.761719 22.058594 16.699219 21.878906 16.84375 C 21.695312 16.988281 21.574219 16.921875 21.53125 16.890625 C 21.476562 16.699219 21.152344 15.585938 20.351562 15.585938 C 20.078125 15.585938 19.878906 15.667969 19.753906 15.820312 C 19.664062 15.933594 19.632812 16.0625 19.625 16.171875 C 19.117188 15.757812 18.535156 15.429688 17.898438 15.207031 L 17.898438 14.148438 C 17.96875 13.625 19.054688 12.503906 19.066406 12.492188 L 19.089844 12.46875 L 19.089844 12.4375 C 19.089844 12.386719 19.097656 12.335938 19.097656 12.285156 C 19.246094 10.742188 20.304688 9.992188 20.316406 9.984375 L 20.339844 9.96875 L 20.347656 9.941406 C 20.351562 9.929688 20.441406 9.625 20.269531 9.390625 C 20.140625 9.222656 19.917969 9.132812 19.601562 9.132812 C 18.65625 9.132812 18.085938 9.992188 17.824219 10.523438 L 17.773438 6.03125 C 17.773438 5.863281 17.65625 5.539062 17.203125 5.539062 C 16.953125 5.539062 16.78125 5.648438 16.667969 5.769531 C 16.613281 5.449219 16.433594 5.054688 16.015625 5.054688 C 15.507812 5.054688 15.304688 5.484375 15.265625 5.714844 L 15.265625 5.742188 C 15.328125 6.082031 15.335938 8.484375 15.335938 9.03125 C 15.253906 8.996094 15.160156 8.988281 15.058594 9.011719 C 14.855469 9.054688 14.734375 9.152344 14.679688 9.363281 C 14.078125 9.027344 13.695312 9.578125 13.691406 9.585938 L 13.683594 9.597656 L 13.679688 9.613281 C 13.445312 10.820312 14.164062 13.09375 14.285156 13.300781 C 14.292969 13.316406 14.300781 13.328125 14.3125 13.339844 C 14.335938 13.628906 14.574219 14.167969 14.628906 14.292969 L 14.5625 14.359375 L 14.5625 15.078125 C 13.761719 15.285156 13.035156 15.664062 12.414062 16.167969 C 12.40625 16.058594 12.375 15.933594 12.285156 15.820312 C 12.160156 15.667969 11.964844 15.585938 11.6875 15.585938 C 10.886719 15.585938 10.558594 16.699219 10.511719 16.890625 C 10.46875 16.921875 10.34375 16.988281 10.164062 16.84375 C 9.980469 16.699219 9.566406 15.761719 9.308594 15.117188 C 9.519531 15.140625 9.707031 15.140625 9.875 15.113281 C 10.621094 15.015625 10.949219 14.539062 10.957031 14.53125 L 10.976562 14.496094 L 10.960938 14.457031 C 10.597656 13.476562 9.261719 12.660156 9.007812 12.511719 L 9.007812 11.871094 C 9.007812 11.566406 8.667969 11.222656 8.652344 11.207031 L 8.453125 11.007812 L 8.515625 11.285156 C 8.566406 11.496094 8.222656 11.949219 7.960938 12.222656 L 7.023438 11.265625 L 6.90625 11.144531 L 6.886719 11.308594 C 6.875 11.378906 6.667969 13.011719 6.886719 13.925781 C 6.894531 13.957031 6.902344 13.988281 6.914062 14.019531 C 6.714844 13.796875 6.488281 13.632812 6.230469 13.535156 C 5.730469 13.339844 5.136719 13.398438 4.519531 13.707031 C 3.332031 14.296875 3.445312 15.917969 3.492188 16.300781 C 3.304688 16.316406 3.15625 16.3125 3.152344 16.3125 L 3.140625 16.472656 C 3.625 16.523438 4.085938 17.125 4.121094 17.582031 C 4.140625 17.835938 4.097656 18.082031 4.046875 18.34375 C 4.011719 18.523438 3.976562 18.710938 3.96875 18.898438 C 3.945312 19.269531 3.976562 19.648438 4.007812 20.011719 L 4.011719 20.085938 C 4.0625 20.738281 4.210938 21.328125 4.445312 21.835938 C 4.574219 22.113281 4.761719 22.347656 4.945312 22.574219 C 5.085938 22.753906 5.234375 22.9375 5.347656 23.136719 C 5.53125 23.457031 5.773438 23.773438 6.007812 24.082031 C 6.300781 24.472656 6.605469 24.871094 6.796875 25.28125 L 6.792969 25.28125 L 6.832031 25.40625 C 6.835938 25.414062 6.847656 25.453125 6.882812 25.507812 C 6.296875 25.625 5.136719 26.050781 5.136719 27.589844 C 5.136719 28.171875 5.375 28.609375 5.847656 28.882812 C 5.917969 28.925781 5.996094 28.964844 6.078125 28.996094 C 6.105469 29.007812 6.132812 29.019531 6.160156 29.03125 C 6.191406 29.042969 6.222656 29.054688 6.253906 29.0625 C 6.480469 29.136719 6.730469 29.175781 6.984375 29.191406 C 7.789062 29.246094 8.671875 29.058594 9.1875 28.796875 C 9.371094 29.027344 10.148438 29.734375 12.5 28.96875 C 12.777344 29.132812 14.773438 30.175781 17.277344 28.976562 C 17.503906 29.15625 18.628906 29.878906 20.882812 28.980469 C 21.035156 29.132812 21.632812 29.5 23.824219 29.5 C 24.480469 29.5 25.027344 29.394531 25.480469 29.21875 C 25.523438 29.203125 25.566406 29.1875 25.605469 29.171875 C 26.867188 28.632812 27.332031 27.566406 27.332031 26.996094 C 27.332031 25.859375 25.949219 25.398438 25.261719 25.242188 C 25.457031 24.84375 25.746094 24.457031 26.03125 24.082031 C 26.265625 23.773438 26.507812 23.457031 26.691406 23.136719 C 26.804688 22.9375 26.953125 22.753906 27.09375 22.574219 C 27.277344 22.347656 27.464844 22.113281 27.59375 21.835938 C 27.828125 21.328125 27.976562 20.738281 28.027344 20.085938 L 28.03125 20.011719 C 28.0625 19.648438 28.09375 19.269531 28.070312 18.898438 C 28.0625 18.710938 28.027344 18.523438 27.992188 18.34375 C 27.945312 18.082031 27.898438 17.835938 27.917969 17.582031 C 27.957031 17.125 28.414062 16.523438 28.898438 16.472656 Z M 10.445312 24.050781 C 10.464844 23.644531 10.65625 23.335938 10.867188 23.046875 C 11.113281 23.554688 11.429688 24.019531 11.808594 24.433594 C 11.464844 24.253906 10.820312 24.117188 10.445312 24.050781 Z M 12.042969 25.449219 L 12.042969 25.4375 C 12.042969 25.289062 11.984375 25.148438 11.875 25.023438 C 11.972656 24.964844 12.058594 24.855469 12.042969 24.671875 C 12.371094 24.988281 12.738281 25.265625 13.128906 25.492188 C 12.796875 25.457031 12.421875 25.433594 12.042969 25.449219 Z M 20 25.523438 C 19.625 25.472656 19.144531 25.488281 18.609375 25.703125 C 18.59375 25.699219 18.570312 25.691406 18.546875 25.6875 C 19.082031 25.425781 19.570312 25.078125 19.996094 24.664062 C 19.980469 24.851562 20.070312 24.964844 20.164062 25.023438 C 20.054688 25.148438 19.996094 25.289062 19.996094 25.4375 C 19.996094 25.46875 20 25.496094 20 25.523438 Z M 20.21875 24.4375 C 20.601562 24.023438 20.921875 23.554688 21.167969 23.042969 C 21.382812 23.332031 21.574219 23.640625 21.59375 24.050781 C 21.214844 24.121094 20.558594 24.257812 20.21875 24.4375 Z M 20.21875 24.4375 "/>
<path style=" stroke:none;fill-rule:nonzero;fill:rgb(91.372549%,80%,67.45098%);fill-opacity:1;" d="M 19.753906 9.777344 C 19.644531 9.929688 19.546875 10.121094 19.554688 10.199219 C 19.574219 10.230469 19.632812 10.332031 19.722656 10.339844 C 19.882812 10.136719 20.035156 10.003906 20.128906 9.925781 C 20.078125 9.886719 19.921875 9.757812 19.753906 9.777344 Z M 19.753906 9.777344 "/>
<path style=" stroke:none;fill-rule:nonzero;fill:rgb(91.372549%,80%,67.45098%);fill-opacity:1;" d="M 15.277344 12.496094 C 15.535156 13.035156 15.8125 13.035156 15.824219 13.035156 C 16.015625 13 16.113281 12.941406 16.09375 12.414062 C 15.660156 12.222656 15.351562 12.433594 15.277344 12.496094 Z M 15.277344 12.496094 "/>
<path style=" stroke:none;fill-rule:nonzero;fill:rgb(91.372549%,80%,67.45098%);fill-opacity:1;" d="M 15.492188 8.023438 C 15.5 8.605469 15.5 9.082031 15.5 9.140625 C 15.761719 9.394531 15.957031 10 16.097656 10.984375 C 16.179688 11.578125 16.234375 12.007812 16.25 12.324219 C 16.507812 11.929688 17.066406 11.167969 17.664062 10.902344 C 17.671875 10.871094 17.695312 10.8125 17.722656 10.742188 L 17.664062 10.746094 L 17.636719 8.402344 L 17.621094 7.09375 L 17.609375 6.035156 C 17.609375 6 17.59375 5.699219 17.203125 5.699219 C 16.878906 5.699219 16.738281 5.921875 16.691406 6.023438 L 16.691406 9.433594 L 16.527344 9.433594 L 16.527344 6.035156 L 16.511719 6.027344 C 16.515625 6.015625 16.523438 6.003906 16.527344 5.988281 L 16.527344 5.980469 C 16.527344 5.972656 16.503906 5.214844 16.015625 5.214844 C 15.554688 5.214844 15.445312 5.652344 15.429688 5.730469 C 15.449219 5.871094 15.464844 6.253906 15.476562 6.714844 C 15.484375 7.125 15.488281 7.601562 15.492188 8.023438 Z M 17.472656 9.457031 L 16.863281 9.457031 L 16.863281 9.296875 L 17.472656 9.296875 Z M 17.546875 7.09375 L 17.472656 7.238281 C 17.035156 7.015625 16.832031 7.183594 16.824219 7.191406 L 16.707031 7.078125 C 16.710938 7.074219 16.980469 6.8125 17.546875 7.09375 Z M 17.554688 8.402344 L 17.503906 8.554688 C 17.1875 8.457031 16.792969 8.539062 16.789062 8.539062 L 16.753906 8.382812 C 16.773438 8.378906 17.191406 8.289062 17.554688 8.402344 Z M 16.332031 8.1875 C 16.148438 8.070312 15.757812 8.140625 15.621094 8.179688 L 15.578125 8.023438 C 15.597656 8.015625 16.136719 7.871094 16.417969 8.050781 Z M 16.441406 6.742188 L 16.34375 6.871094 C 15.9375 6.542969 15.652344 6.816406 15.636719 6.828125 L 15.523438 6.710938 C 15.527344 6.710938 15.921875 6.324219 16.441406 6.742188 Z M 16.441406 6.742188 "/>
<path style=" stroke:none;fill-rule:nonzero;fill:rgb(91.372549%,80%,67.45098%);fill-opacity:1;" d="M 20.136719 9.484375 C 20.042969 9.359375 19.863281 9.296875 19.601562 9.296875 C 18.378906 9.296875 17.808594 10.96875 17.804688 10.984375 L 17.792969 11.019531 L 17.757812 11.035156 C 17.046875 11.324219 16.347656 12.464844 16.253906 12.621094 C 16.246094 12.976562 16.144531 13.109375 15.941406 13.171875 C 15.980469 13.25 16.058594 13.363281 16.207031 13.417969 L 16.148438 13.570312 C 15.917969 13.480469 15.8125 13.289062 15.773438 13.195312 C 15.691406 13.179688 15.539062 13.128906 15.371094 12.941406 C 15.320312 13.132812 15.203125 13.441406 14.996094 13.515625 C 14.824219 13.578125 14.648438 13.566406 14.503906 13.5 C 14.566406 13.730469 14.691406 14.03125 14.75 14.171875 L 14.847656 14.078125 L 14.960938 14.191406 L 14.722656 14.425781 L 14.722656 15.039062 C 15.003906 14.976562 15.289062 14.929688 15.582031 14.910156 C 15.726562 14.898438 15.871094 14.890625 16.015625 14.890625 C 16.617188 14.890625 17.191406 14.984375 17.738281 15.15625 L 17.738281 14.132812 C 17.808594 13.589844 18.777344 12.558594 18.929688 12.398438 C 18.933594 12.355469 18.933594 12.3125 18.941406 12.273438 C 19.015625 11.46875 19.320312 10.875 19.617188 10.476562 C 19.480469 10.414062 19.40625 10.265625 19.402344 10.253906 L 19.398438 10.25 L 19.394531 10.242188 C 19.355469 10.050781 19.597656 9.71875 19.644531 9.652344 L 19.664062 9.628906 L 19.695312 9.625 C 19.917969 9.574219 20.125 9.714844 20.210938 9.785156 C 20.214844 9.699219 20.210938 9.582031 20.136719 9.484375 Z M 20.136719 9.484375 "/>
<path style=" stroke:none;fill-rule:nonzero;fill:rgb(91.372549%,80%,67.45098%);fill-opacity:1;" d="M 15.1875 12.285156 C 15.191406 12.285156 15.195312 12.289062 15.203125 12.289062 L 15.195312 12.304688 C 15.195312 12.316406 15.207031 12.332031 15.210938 12.34375 C 15.339844 12.253906 15.660156 12.082031 16.082031 12.234375 C 16.0625 11.949219 16.015625 11.550781 15.9375 11.003906 C 15.757812 9.746094 15.511719 9.335938 15.335938 9.210938 C 15.242188 9.148438 15.164062 9.152344 15.09375 9.167969 C 14.761719 9.238281 14.703125 9.503906 14.941406 11.21875 C 15.003906 11.679688 15.089844 12.027344 15.1875 12.285156 Z M 15.1875 12.285156 "/>
<path style=" stroke:none;fill-rule:nonzero;fill:rgb(91.372549%,80%,67.45098%);fill-opacity:1;" d="M 14.996094 12.226562 C 14.910156 11.96875 14.835938 11.648438 14.777344 11.242188 C 14.664062 10.394531 14.605469 9.863281 14.644531 9.53125 C 14.191406 9.238281 13.890625 9.589844 13.835938 9.660156 C 13.6875 10.464844 13.953125 11.703125 14.179688 12.488281 C 14.308594 12.386719 14.636719 12.167969 14.996094 12.226562 Z M 14.996094 12.226562 "/>
<path style=" stroke:none;fill-rule:nonzero;fill:rgb(91.372549%,80%,67.45098%);fill-opacity:1;" d="M 14.941406 13.367188 C 15.089844 13.3125 15.207031 12.980469 15.246094 12.773438 C 15.183594 12.675781 15.121094 12.554688 15.0625 12.410156 C 15 12.386719 14.9375 12.378906 14.875 12.378906 C 14.535156 12.378906 14.234375 12.652344 14.230469 12.65625 L 14.226562 12.652344 C 14.320312 12.964844 14.398438 13.179688 14.421875 13.21875 C 14.519531 13.378906 14.734375 13.4375 14.941406 13.367188 Z M 14.941406 13.367188 "/>
<path style=" stroke:none;fill-rule:nonzero;fill:rgb(100%,100%,100%);fill-opacity:1;" d="M 19.675781 23.863281 L 19.722656 24.679688 C 20.277344 24.179688 20.730469 23.570312 21.046875 22.882812 C 20.90625 22.691406 20.773438 22.507812 20.699219 22.308594 Z M 19.675781 23.863281 "/>
<path style=" stroke:none;fill-rule:nonzero;fill:rgb(100%,100%,100%);fill-opacity:1;" d="M 19.539062 20.410156 L 18.199219 20.523438 L 16.96875 22.402344 L 17.597656 23.613281 L 19.507812 23.734375 L 20.542969 22.15625 Z M 19.539062 20.410156 "/>
<path style=" stroke:none;fill-rule:nonzero;fill:rgb(100%,100%,100%);fill-opacity:1;" d="M 18.179688 20.3125 L 19.523438 20.203125 L 19.546875 20.199219 L 20 18.589844 L 19.179688 17.363281 L 17.238281 17.410156 L 16.964844 18.566406 Z M 18.179688 20.3125 "/>
<path style=" stroke:none;fill-rule:nonzero;fill:rgb(100%,100%,100%);fill-opacity:1;" d="M 21.082031 18.503906 C 21.082031 18.503906 21.085938 18.453125 21.09375 18.390625 C 20.828125 17.789062 20.464844 17.246094 20.019531 16.777344 C 19.851562 16.621094 19.71875 16.511719 19.679688 16.476562 L 19.625 16.433594 L 19.621094 16.402344 C 19.535156 16.328125 19.445312 16.25 19.351562 16.183594 L 19.320312 17.191406 L 20.183594 18.488281 L 21.085938 18.800781 C 21.078125 18.742188 21.074219 18.683594 21.074219 18.632812 C 21.074219 18.585938 21.078125 18.542969 21.082031 18.503906 Z M 21.082031 18.503906 "/>
<path style=" stroke:none;fill-rule:nonzero;fill:rgb(100%,100%,100%);fill-opacity:1;" d="M 14.417969 21.753906 L 13.519531 22.519531 L 14.066406 23.945312 L 14.066406 23.941406 L 16.027344 24.855469 L 17.394531 23.679688 L 16.78125 22.496094 Z M 14.417969 21.753906 "/>
<path style=" stroke:none;fill-rule:nonzero;fill:rgb(100%,100%,100%);fill-opacity:1;" d="M 14.066406 17.050781 L 13.734375 18.5625 L 14.515625 19.296875 L 14.535156 19.316406 L 16.777344 18.441406 L 17.035156 17.363281 L 17.035156 17.351562 L 15.535156 16.28125 Z M 14.066406 17.050781 "/>
<path style=" stroke:none;fill-rule:nonzero;fill:rgb(100%,100%,100%);fill-opacity:1;" d="M 15.4375 16.097656 L 15.605469 16.011719 L 16.464844 15.085938 C 16.3125 15.074219 16.167969 15.066406 16.015625 15.066406 C 15.875 15.066406 15.734375 15.070312 15.59375 15.082031 C 14.621094 15.15625 13.714844 15.480469 12.945312 15.996094 L 13.933594 16.878906 Z M 15.4375 16.097656 "/>
<path style=" stroke:none;fill-rule:nonzero;fill:rgb(100%,100%,100%);fill-opacity:1;" d="M 16.054688 25.101562 L 15.9375 25.046875 L 14.050781 24.167969 L 12.722656 25.015625 C 13.011719 25.230469 13.320312 25.414062 13.644531 25.570312 C 14.03125 25.636719 14.300781 25.710938 14.367188 25.730469 C 14.613281 25.695312 14.847656 25.667969 15.070312 25.644531 C 15.621094 25.585938 16.105469 25.558594 16.519531 25.546875 L 16.058594 25.09375 Z M 16.054688 25.101562 "/>
<path style=" stroke:none;fill-rule:nonzero;fill:rgb(100%,100%,100%);fill-opacity:1;" d="M 14.320312 21.558594 L 14.371094 19.453125 L 13.640625 18.761719 L 12.09375 19.542969 L 12.023438 21.648438 L 13.375 22.367188 Z M 14.320312 21.558594 "/>
<path style=" stroke:none;fill-rule:nonzero;fill:rgb(100%,100%,100%);fill-opacity:1;" d="M 10.929688 18.414062 C 10.949219 18.527344 10.96875 18.726562 10.910156 18.9375 C 10.882812 19.039062 10.816406 19.160156 10.742188 19.296875 C 10.679688 19.410156 10.613281 19.53125 10.558594 19.660156 C 10.523438 19.878906 10.5 20.109375 10.488281 20.34375 C 11.089844 20.671875 11.34375 21.433594 11.398438 21.828125 C 11.40625 21.882812 11.410156 21.933594 11.410156 21.96875 C 11.410156 22.0625 11.394531 22.148438 11.371094 22.234375 L 11.8125 21.710938 L 11.886719 19.542969 L 10.992188 18.269531 C 10.96875 18.320312 10.949219 18.367188 10.929688 18.414062 Z M 10.929688 18.414062 "/>
<path style=" stroke:none;fill-rule:nonzero;fill:rgb(100%,100%,100%);fill-opacity:1;" d="M 21.429688 26.292969 C 21.34375 26.308594 21.253906 26.316406 21.152344 26.316406 C 20.566406 26.316406 20.46875 26.054688 20.453125 25.941406 C 20.453125 25.9375 20.453125 25.933594 20.453125 25.929688 C 20.375 25.925781 20.238281 25.898438 20.136719 25.800781 C 20.105469 25.769531 20.078125 25.738281 20.058594 25.699219 C 19.6875 25.632812 19.195312 25.632812 18.644531 25.863281 C 17.3125 26.390625 17.355469 28.546875 17.367188 28.84375 C 17.535156 28.972656 18.628906 29.703125 20.824219 28.828125 C 20.808594 28.519531 20.789062 27.113281 21.429688 26.292969 Z M 21.429688 26.292969 "/>
<path style=" stroke:none;fill-rule:nonzero;fill:rgb(100%,100%,100%);fill-opacity:1;" d="M 12.019531 25.613281 C 11.996094 25.683594 11.957031 25.75 11.90625 25.800781 C 11.800781 25.898438 11.667969 25.925781 11.585938 25.929688 C 11.585938 25.933594 11.585938 25.9375 11.585938 25.941406 C 11.570312 26.054688 11.476562 26.316406 10.886719 26.316406 C 10.695312 26.316406 10.539062 26.289062 10.402344 26.242188 C 9.800781 26.414062 9.523438 26.988281 9.394531 27.535156 C 9.273438 28.0625 9.289062 28.566406 9.296875 28.667969 C 9.375 28.785156 10.058594 29.601562 12.476562 28.808594 C 12.464844 28.625 12.457031 28.164062 12.582031 27.648438 C 12.738281 27.007812 13.101562 26.28125 13.929688 25.882812 C 13.800781 25.832031 13.667969 25.777344 13.542969 25.714844 C 13.117188 25.644531 12.574219 25.585938 12.019531 25.613281 Z M 12.019531 25.613281 "/>
<path style=" stroke:none;fill-rule:nonzero;fill:rgb(18.431373%,21.176471%,56.078431%);fill-opacity:1;" d="M 25.210938 25.394531 L 25.207031 25.40625 C 25.199219 25.429688 25.039062 25.90625 24.21875 25.90625 C 23.800781 25.90625 23.675781 25.785156 23.566406 25.679688 C 23.46875 25.582031 23.375 25.492188 23.003906 25.492188 C 22.65625 25.492188 22.472656 25.65625 22.257812 25.847656 C 22.109375 25.976562 21.953125 26.117188 21.730469 26.210938 C 21 26.882812 20.972656 28.347656 20.984375 28.765625 L 20.984375 28.820312 L 21.015625 28.878906 C 21.152344 28.992188 21.734375 29.339844 23.824219 29.339844 C 26.578125 29.339844 27.171875 27.464844 27.171875 26.996094 C 27.171875 25.980469 25.851562 25.546875 25.210938 25.394531 Z M 25.210938 25.394531 "/>
<path style=" stroke:none;fill-rule:nonzero;fill:rgb(18.431373%,21.176471%,56.078431%);fill-opacity:1;" d="M 15.085938 25.804688 C 14.859375 25.828125 14.621094 25.859375 14.371094 25.894531 L 14.347656 25.894531 C 13.316406 26.214844 12.894531 27 12.730469 27.683594 C 12.585938 28.277344 12.636719 28.792969 12.644531 28.867188 C 13.066406 29.089844 14.914062 29.929688 17.207031 28.832031 C 17.191406 28.46875 17.160156 26.507812 18.363281 25.820312 C 17.925781 25.742188 16.847656 25.621094 15.085938 25.804688 Z M 15.085938 25.804688 "/>
<path style=" stroke:none;fill-rule:nonzero;fill:rgb(18.431373%,21.176471%,56.078431%);fill-opacity:1;" d="M 9.035156 25.492188 C 8.664062 25.492188 8.570312 25.582031 8.472656 25.679688 C 8.363281 25.785156 8.234375 25.90625 7.824219 25.90625 C 7.394531 25.90625 7.144531 25.773438 7.003906 25.644531 C 6.5 25.722656 5.296875 26.0625 5.296875 27.589844 C 5.296875 28.109375 5.511719 28.5 5.929688 28.746094 C 6.222656 28.917969 6.597656 29.007812 6.992188 29.035156 C 7.773438 29.089844 8.636719 28.902344 9.132812 28.644531 C 9.125 28.488281 9.121094 28.007812 9.238281 27.5 C 9.367188 26.960938 9.628906 26.390625 10.1875 26.148438 C 10.027344 26.058594 9.902344 25.949219 9.78125 25.847656 C 9.566406 25.65625 9.382812 25.492188 9.035156 25.492188 Z M 9.035156 25.492188 "/>
<path style=" stroke:none;fill-rule:nonzero;fill:rgb(74.901961%,45.882353%,21.568627%);fill-opacity:1;" d="M 28.480469 16.453125 C 28.28125 16.429688 28.050781 16.378906 27.878906 16.269531 C 27.753906 16.195312 27.585938 16.128906 27.390625 16.097656 C 27.246094 16.160156 27.046875 16.539062 26.949219 16.78125 C 26.957031 16.910156 26.964844 17.058594 26.976562 17.230469 C 27.160156 17.078125 27.4375 16.945312 27.507812 16.910156 L 27.574219 17.058594 C 27.367188 17.15625 27.066406 17.335938 26.984375 17.449219 C 26.992188 17.664062 26.996094 17.902344 26.992188 18.15625 C 27.214844 18.003906 27.507812 17.933594 27.523438 17.929688 L 27.5625 18.085938 C 27.558594 18.085938 27.175781 18.175781 26.992188 18.367188 C 26.988281 18.566406 26.980469 18.777344 26.964844 18.992188 C 27.183594 18.855469 27.492188 18.761719 27.574219 18.738281 L 27.617188 18.890625 C 27.410156 18.953125 27.082031 19.082031 26.953125 19.199219 C 26.9375 19.402344 26.917969 19.613281 26.894531 19.824219 C 27.273438 19.609375 27.792969 19.648438 27.816406 19.648438 L 27.804688 19.8125 C 27.796875 19.8125 27.195312 19.765625 26.867188 20.035156 C 26.835938 20.257812 26.800781 20.484375 26.757812 20.710938 C 27.101562 20.464844 27.585938 20.40625 27.609375 20.402344 L 27.632812 20.5625 C 27.621094 20.566406 26.976562 20.644531 26.695312 20.980469 C 26.660156 21.140625 26.621094 21.296875 26.574219 21.453125 C 26.933594 21.242188 27.410156 21.238281 27.433594 21.238281 L 27.433594 21.398438 C 27.425781 21.398438 26.789062 21.402344 26.492188 21.722656 L 26.488281 21.722656 C 26.433594 21.894531 26.371094 22.066406 26.300781 22.234375 C 26.585938 22.15625 26.917969 22.203125 26.933594 22.207031 L 26.90625 22.367188 C 26.902344 22.367188 26.453125 22.300781 26.207031 22.445312 C 26.101562 22.679688 25.984375 22.890625 25.863281 23.085938 L 26.257812 23.015625 L 26.285156 23.171875 L 25.742188 23.269531 C 25.621094 23.449219 25.496094 23.605469 25.371094 23.75 L 25.84375 23.765625 L 25.835938 23.929688 L 25.230469 23.90625 C 24.726562 24.429688 24.265625 24.675781 24.101562 24.757812 C 24.128906 24.875 24.199219 25.054688 24.359375 25.179688 C 24.527344 25.308594 24.761719 25.355469 25.054688 25.3125 C 25.246094 24.851562 25.582031 24.410156 25.902344 23.984375 C 25.902344 23.984375 25.902344 23.980469 25.90625 23.980469 C 26.136719 23.679688 26.371094 23.367188 26.550781 23.054688 C 26.671875 22.84375 26.824219 22.65625 26.96875 22.472656 C 27.152344 22.246094 27.324219 22.027344 27.445312 21.769531 C 27.675781 21.277344 27.8125 20.707031 27.867188 20.074219 L 27.871094 20 C 27.882812 19.882812 27.890625 19.769531 27.898438 19.652344 C 27.914062 19.40625 27.925781 19.152344 27.910156 18.910156 C 27.898438 18.730469 27.867188 18.546875 27.832031 18.375 C 27.8125 18.269531 27.792969 18.160156 27.777344 18.050781 C 27.777344 18.046875 27.777344 18.046875 27.777344 18.042969 C 27.753906 17.886719 27.742188 17.730469 27.753906 17.570312 C 27.789062 17.175781 28.089844 16.691406 28.480469 16.453125 Z M 28.480469 16.453125 "/>
<path style=" stroke:none;fill-rule:nonzero;fill:rgb(74.901961%,45.882353%,21.568627%);fill-opacity:1;" d="M 24.871094 14.699219 C 24.648438 15.214844 24.402344 15.789062 24.339844 16.894531 C 25.109375 14.046875 26.613281 14.101562 26.683594 14.105469 L 26.671875 14.265625 C 26.648438 14.261719 24.984375 14.222656 24.328125 17.675781 C 24.339844 17.960938 24.367188 18.210938 24.40625 18.433594 C 25.273438 14.773438 27.273438 14.929688 27.359375 14.9375 L 27.34375 15.097656 C 27.320312 15.097656 25.277344 14.953125 24.492188 18.808594 C 24.542969 19 24.605469 19.171875 24.667969 19.339844 C 24.851562 19.089844 25.015625 18.667969 25.1875 18.226562 C 25.40625 17.675781 25.648438 17.050781 25.988281 16.585938 C 26.648438 15.679688 27.539062 15.875 27.960938 16.132812 C 28.082031 16.207031 28.238281 16.25 28.386719 16.277344 C 28.425781 15.917969 28.523438 14.386719 27.449219 13.851562 C 26.871094 13.566406 26.324219 13.507812 25.867188 13.683594 C 25.460938 13.84375 25.125 14.183594 24.882812 14.675781 C 24.878906 14.683594 24.875 14.691406 24.871094 14.699219 Z M 24.871094 14.699219 "/>
<path style=" stroke:none;fill-rule:nonzero;fill:rgb(74.901961%,45.882353%,21.568627%);fill-opacity:1;" d="M 27.160156 16.082031 C 26.820312 16.09375 26.441406 16.242188 26.121094 16.683594 C 25.792969 17.128906 25.550781 17.742188 25.339844 18.285156 C 25.136719 18.804688 24.957031 19.253906 24.738281 19.507812 C 24.769531 19.578125 24.800781 19.652344 24.828125 19.722656 C 25.066406 20.273438 25.292969 20.792969 25.292969 21.695312 C 25.292969 23.101562 24.613281 24.070312 24.257812 24.484375 C 24.585938 24.28125 25.140625 23.867188 25.636719 23.136719 L 25.636719 23.121094 L 25.648438 23.121094 C 25.824219 22.855469 25.992188 22.550781 26.140625 22.203125 C 26.542969 21.261719 26.71875 20.175781 26.792969 19.195312 L 26.765625 19.183594 C 26.773438 19.164062 26.785156 19.148438 26.796875 19.136719 C 26.816406 18.847656 26.824219 18.570312 26.828125 18.308594 L 26.828125 18.304688 C 26.835938 17.976562 26.828125 17.675781 26.820312 17.410156 L 26.816406 17.410156 C 26.816406 17.40625 26.820312 17.40625 26.820312 17.40625 C 26.808594 17.160156 26.796875 16.945312 26.785156 16.773438 L 26.78125 16.753906 L 26.789062 16.738281 C 26.824219 16.648438 26.972656 16.292969 27.160156 16.082031 Z M 27.160156 16.082031 "/>
<path style=" stroke:none;fill-rule:nonzero;fill:rgb(74.901961%,45.882353%,21.568627%);fill-opacity:1;" d="M 24.257812 25.304688 C 23.945312 25.058594 23.917969 24.664062 23.917969 24.644531 L 23.914062 24.605469 L 23.941406 24.582031 C 23.957031 24.570312 25.132812 23.480469 25.132812 21.695312 C 25.132812 20.824219 24.914062 20.320312 24.683594 19.785156 C 24.445312 19.234375 24.199219 18.667969 24.167969 17.667969 C 24.167969 17.667969 24.167969 17.664062 24.167969 17.664062 C 24.164062 17.59375 24.164062 17.527344 24.164062 17.457031 C 24.164062 16.160156 24.382812 15.464844 24.605469 14.910156 L 24.601562 14.910156 C 24.640625 14.800781 24.6875 14.703125 24.734375 14.605469 C 24.835938 14.367188 24.929688 14.144531 24.996094 13.886719 C 25.167969 13.171875 25.0625 11.945312 25.011719 11.5 L 24.082031 12.453125 L 24.023438 12.394531 C 23.957031 12.332031 23.488281 11.851562 23.378906 11.464844 C 23.289062 11.582031 23.195312 11.742188 23.195312 11.871094 L 23.195312 12.605469 L 23.152344 12.628906 C 23.140625 12.636719 21.964844 13.304688 21.421875 14.144531 C 21.496094 14.230469 21.542969 14.335938 21.542969 14.457031 C 21.542969 14.542969 21.515625 14.621094 21.476562 14.691406 C 21.699219 14.851562 22.066406 15.019531 22.621094 14.96875 L 22.621094 14.960938 C 22.714844 14.925781 22.992188 14.601562 23.160156 14.382812 L 23.289062 14.480469 C 23.242188 14.539062 23.074219 14.761719 22.910156 14.925781 C 23.214844 14.863281 23.5625 14.738281 23.957031 14.523438 L 24.035156 14.667969 C 23.605469 14.898438 23.230469 15.027344 22.902344 15.085938 L 22.914062 15.09375 C 22.847656 15.261719 22.261719 16.742188 21.976562 16.96875 C 21.710938 17.179688 21.484375 17.074219 21.398438 16.992188 L 21.382812 16.976562 L 21.378906 16.953125 C 21.375 16.941406 21.09375 15.8125 20.40625 15.753906 C 20.597656 15.867188 20.707031 16.039062 20.714844 16.050781 L 20.574219 16.132812 C 20.574219 16.132812 20.523438 16.054688 20.433594 15.972656 C 20.34375 15.894531 20.210938 15.816406 20.050781 15.816406 L 20.050781 15.800781 C 20.003906 15.820312 19.964844 15.847656 19.933594 15.875 C 20.304688 16.019531 20.492188 16.378906 20.5 16.398438 L 20.355469 16.46875 C 20.351562 16.464844 20.308594 16.378906 20.21875 16.28125 C 20.128906 16.179688 20 16.066406 19.828125 16.011719 C 19.773438 16.144531 19.785156 16.285156 19.792969 16.339844 C 19.980469 16.492188 21.132812 17.460938 21.285156 18.304688 C 21.316406 18.34375 21.433594 18.492188 21.605469 18.601562 L 21.605469 18.207031 L 21.765625 18.207031 L 21.765625 18.6875 C 21.84375 18.71875 21.925781 18.738281 22.015625 18.734375 C 22.035156 18.734375 22.050781 18.730469 22.070312 18.726562 L 22.070312 18.1875 L 22.230469 18.1875 L 22.230469 18.6875 C 22.410156 18.613281 22.582031 18.457031 22.738281 18.210938 L 22.875 18.300781 C 22.621094 18.691406 22.332031 18.890625 22.019531 18.894531 C 21.679688 18.902344 21.40625 18.675781 21.257812 18.523438 C 21.25 18.621094 21.25 18.757812 21.285156 18.894531 C 21.308594 18.976562 21.371094 19.089844 21.441406 19.222656 C 21.605469 19.523438 21.796875 19.886719 21.746094 20.257812 C 21.875 20.210938 22.015625 20.183594 22.175781 20.183594 C 23.023438 20.183594 23.621094 20.4375 23.949219 20.9375 C 24.65625 22 23.910156 23.769531 23.875 23.847656 L 23.730469 23.785156 C 23.738281 23.765625 24.46875 22.015625 23.816406 21.027344 C 23.515625 20.574219 22.964844 20.34375 22.175781 20.34375 C 21.136719 20.34375 20.792969 21.625 20.792969 21.96875 C 20.792969 22.273438 20.980469 22.523438 21.199219 22.8125 C 21.460938 23.160156 21.757812 23.554688 21.757812 24.117188 L 21.757812 24.1875 L 21.691406 24.195312 C 20.898438 24.335938 20.183594 24.558594 20.15625 24.675781 C 20.140625 24.832031 20.238281 24.890625 20.289062 24.910156 C 20.550781 24.71875 20.9375 24.644531 21.308594 24.726562 L 21.273438 24.882812 C 20.9375 24.8125 20.585938 24.878906 20.363281 25.058594 C 20.230469 25.164062 20.15625 25.296875 20.15625 25.4375 C 20.15625 25.542969 20.1875 25.625 20.246094 25.679688 C 20.316406 25.75 20.417969 25.765625 20.472656 25.769531 C 20.558594 25.496094 20.910156 25.222656 21.355469 25.113281 L 21.394531 25.269531 C 20.902344 25.390625 20.589844 25.710938 20.617188 25.921875 C 20.632812 26.066406 20.832031 26.15625 21.152344 26.15625 C 21.664062 26.15625 21.910156 25.9375 22.148438 25.726562 C 22.367188 25.53125 22.59375 25.332031 23.003906 25.332031 C 23.441406 25.332031 23.566406 25.453125 23.683594 25.5625 C 23.78125 25.660156 23.867188 25.742188 24.21875 25.742188 C 24.65625 25.742188 24.871094 25.597656 24.972656 25.484375 C 24.679688 25.507812 24.441406 25.449219 24.257812 25.304688 Z M 23.695312 13.894531 C 23.507812 13.894531 23.351562 13.804688 23.351562 13.695312 C 23.351562 13.585938 23.507812 13.496094 23.695312 13.496094 C 23.882812 13.496094 24.035156 13.585938 24.035156 13.695312 C 24.035156 13.804688 23.882812 13.894531 23.695312 13.894531 Z M 23.640625 22.546875 C 23.636719 22.542969 23.320312 22.371094 23.050781 22.398438 C 23.089844 22.570312 23.117188 22.738281 23.140625 22.890625 C 23.386719 22.851562 23.644531 22.960938 23.65625 22.96875 L 23.589844 23.113281 C 23.585938 23.113281 23.363281 23.015625 23.164062 23.050781 C 23.191406 23.273438 23.203125 23.425781 23.203125 23.449219 L 23.042969 23.457031 C 23.011719 22.984375 22.835938 21.691406 22.40625 21.410156 C 22.3125 21.347656 22.214844 21.339844 22.109375 21.378906 C 21.8125 21.488281 21.945312 22.058594 22.089844 22.664062 C 22.183594 23.0625 22.28125 23.476562 22.269531 23.8125 L 22.109375 23.808594 C 22.121094 23.492188 22.023438 23.089844 21.933594 22.703125 C 21.769531 22.023438 21.617188 21.386719 22.054688 21.226562 C 22.1875 21.179688 22.3125 21.1875 22.433594 21.242188 C 22.621094 21.199219 22.875 21.234375 22.90625 21.238281 L 22.882812 21.398438 C 22.832031 21.390625 22.722656 21.378906 22.621094 21.382812 C 22.679688 21.445312 22.730469 21.527344 22.78125 21.617188 C 22.980469 21.566406 23.214844 21.585938 23.226562 21.585938 L 23.214844 21.75 C 23.210938 21.75 23.015625 21.734375 22.851562 21.765625 C 22.875 21.820312 22.902344 21.882812 22.921875 21.941406 C 23.175781 21.871094 23.492188 21.9375 23.507812 21.941406 L 23.472656 22.097656 C 23.46875 22.097656 23.183594 22.039062 22.972656 22.097656 C 22.984375 22.144531 23 22.191406 23.011719 22.238281 C 23.339844 22.199219 23.699219 22.394531 23.71875 22.40625 Z M 23.640625 22.546875 "/>
<path style=" stroke:none;fill-rule:nonzero;fill:rgb(74.901961%,45.882353%,21.568627%);fill-opacity:1;" d="M 10.753906 18.304688 C 10.90625 17.460938 12.058594 16.492188 12.246094 16.339844 C 12.257812 16.285156 12.269531 16.144531 12.210938 16.011719 C 11.867188 16.121094 11.6875 16.464844 11.683594 16.46875 L 11.539062 16.398438 C 11.550781 16.378906 11.734375 16.019531 12.105469 15.875 C 12.074219 15.847656 12.035156 15.820312 11.988281 15.800781 L 11.988281 15.816406 C 11.664062 15.816406 11.46875 16.132812 11.464844 16.132812 L 11.328125 16.050781 C 11.332031 16.039062 11.441406 15.867188 11.636719 15.753906 C 10.949219 15.8125 10.664062 16.941406 10.660156 16.953125 L 10.65625 16.976562 L 10.640625 16.992188 C 10.554688 17.074219 10.328125 17.179688 10.0625 16.96875 C 9.777344 16.742188 9.191406 15.261719 9.125 15.09375 L 9.140625 15.085938 C 8.808594 15.027344 8.433594 14.898438 8.003906 14.667969 L 8.082031 14.523438 C 8.480469 14.738281 8.824219 14.863281 9.128906 14.925781 C 8.964844 14.761719 8.796875 14.539062 8.753906 14.480469 L 8.878906 14.382812 C 9.046875 14.601562 9.324219 14.925781 9.421875 14.960938 L 9.417969 14.96875 C 9.578125 14.984375 9.722656 14.980469 9.851562 14.964844 C 10.175781 14.921875 10.40625 14.804688 10.5625 14.691406 C 10.519531 14.621094 10.496094 14.542969 10.496094 14.457031 C 10.496094 14.335938 10.542969 14.230469 10.621094 14.144531 C 10.078125 13.304688 8.898438 12.636719 8.886719 12.628906 L 8.847656 12.605469 L 8.847656 11.871094 C 8.847656 11.742188 8.75 11.582031 8.660156 11.464844 C 8.554688 11.851562 8.082031 12.332031 8.015625 12.394531 L 7.957031 12.453125 L 7.902344 12.394531 L 7.027344 11.5 C 6.976562 11.945312 6.871094 13.171875 7.046875 13.886719 C 7.105469 14.144531 7.203125 14.367188 7.304688 14.605469 C 7.351562 14.703125 7.398438 14.800781 7.4375 14.910156 L 7.429688 14.910156 C 7.65625 15.464844 7.875 16.160156 7.875 17.457031 C 7.875 17.527344 7.875 17.59375 7.871094 17.664062 C 7.871094 17.664062 7.871094 17.667969 7.875 17.667969 L 7.871094 17.667969 C 7.839844 18.667969 7.59375 19.234375 7.359375 19.785156 C 7.128906 20.320312 6.910156 20.824219 6.910156 21.695312 C 6.910156 23.480469 8.085938 24.570312 8.097656 24.582031 L 8.125 24.605469 L 8.125 24.644531 C 8.121094 24.664062 8.09375 25.058594 7.78125 25.304688 C 7.597656 25.449219 7.359375 25.507812 7.066406 25.484375 C 7.167969 25.597656 7.382812 25.742188 7.820312 25.742188 C 8.171875 25.742188 8.257812 25.660156 8.359375 25.5625 C 8.46875 25.453125 8.601562 25.332031 9.035156 25.332031 C 9.441406 25.332031 9.671875 25.53125 9.890625 25.726562 C 10.128906 25.9375 10.375 26.15625 10.882812 26.15625 C 11.203125 26.15625 11.40625 26.066406 11.425781 25.921875 C 11.449219 25.710938 11.136719 25.390625 10.644531 25.269531 L 10.683594 25.113281 C 11.125 25.222656 11.476562 25.496094 11.566406 25.769531 C 11.621094 25.765625 11.722656 25.75 11.792969 25.679688 C 11.851562 25.625 11.882812 25.542969 11.882812 25.4375 C 11.882812 25.296875 11.808594 25.164062 11.675781 25.058594 C 11.453125 24.878906 11.105469 24.8125 10.765625 24.882812 L 10.730469 24.726562 C 11.101562 24.644531 11.488281 24.71875 11.75 24.910156 C 11.800781 24.890625 11.898438 24.832031 11.882812 24.675781 C 11.855469 24.558594 11.136719 24.335938 10.347656 24.195312 L 10.28125 24.1875 L 10.28125 24.117188 C 10.28125 23.554688 10.578125 23.160156 10.839844 22.8125 C 11.058594 22.523438 11.246094 22.273438 11.246094 21.96875 C 11.246094 21.9375 11.246094 21.898438 11.238281 21.851562 C 11.175781 21.398438 10.804688 20.34375 9.863281 20.34375 C 9.078125 20.34375 8.523438 20.574219 8.226562 21.027344 C 7.566406 22.015625 8.300781 23.765625 8.3125 23.785156 L 8.160156 23.847656 C 8.128906 23.769531 7.386719 22 8.089844 20.9375 C 8.421875 20.4375 9.019531 20.183594 9.863281 20.183594 C 10.023438 20.183594 10.164062 20.210938 10.296875 20.257812 C 10.238281 19.886719 10.4375 19.523438 10.597656 19.222656 C 10.667969 19.089844 10.730469 18.976562 10.75 18.894531 C 10.792969 18.757812 10.789062 18.621094 10.78125 18.523438 C 10.632812 18.675781 10.363281 18.902344 10.023438 18.894531 C 9.710938 18.890625 9.421875 18.691406 9.160156 18.300781 L 9.296875 18.210938 C 9.457031 18.457031 9.628906 18.613281 9.804688 18.6875 L 9.804688 18.1875 L 9.96875 18.1875 L 9.96875 18.726562 C 9.988281 18.730469 10.003906 18.734375 10.023438 18.734375 C 10.113281 18.738281 10.195312 18.71875 10.273438 18.6875 L 10.273438 18.207031 L 10.4375 18.207031 L 10.4375 18.601562 C 10.605469 18.492188 10.726562 18.34375 10.753906 18.304688 Z M 8.34375 13.496094 C 8.53125 13.496094 8.683594 13.585938 8.683594 13.695312 C 8.683594 13.804688 8.53125 13.894531 8.34375 13.894531 C 8.15625 13.894531 8.003906 13.804688 8.003906 13.695312 C 8.003906 13.585938 8.15625 13.496094 8.34375 13.496094 Z M 9.027344 22.238281 C 9.042969 22.191406 9.054688 22.144531 9.070312 22.097656 C 8.855469 22.039062 8.570312 22.097656 8.566406 22.097656 L 8.53125 21.941406 C 8.550781 21.9375 8.863281 21.871094 9.117188 21.941406 C 9.140625 21.882812 9.160156 21.820312 9.1875 21.765625 C 9.023438 21.734375 8.828125 21.75 8.828125 21.75 L 8.8125 21.585938 C 8.824219 21.585938 9.0625 21.566406 9.257812 21.617188 C 9.308594 21.527344 9.363281 21.445312 9.421875 21.382812 C 9.316406 21.378906 9.207031 21.390625 9.15625 21.398438 L 9.132812 21.238281 C 9.164062 21.234375 9.421875 21.199219 9.605469 21.242188 C 9.726562 21.1875 9.851562 21.179688 9.988281 21.226562 C 10.421875 21.386719 10.269531 22.023438 10.109375 22.703125 C 10.015625 23.089844 9.917969 23.492188 9.933594 23.808594 L 9.769531 23.8125 C 9.757812 23.476562 9.855469 23.0625 9.953125 22.664062 C 10.09375 22.058594 10.230469 21.488281 9.929688 21.378906 C 9.820312 21.339844 9.726562 21.347656 9.632812 21.410156 C 9.203125 21.691406 9.027344 22.984375 9 23.457031 L 8.835938 23.449219 C 8.835938 23.425781 8.847656 23.273438 8.875 23.050781 C 8.675781 23.015625 8.453125 23.113281 8.449219 23.113281 L 8.382812 22.96875 C 8.394531 22.960938 8.652344 22.851562 8.898438 22.890625 C 8.921875 22.738281 8.953125 22.570312 8.988281 22.398438 C 8.71875 22.371094 8.40625 22.542969 8.402344 22.546875 L 8.320312 22.40625 C 8.339844 22.394531 8.699219 22.199219 9.027344 22.238281 Z M 9.027344 22.238281 "/>
<path style=" stroke:none;fill-rule:nonzero;fill:rgb(74.901961%,45.882353%,21.568627%);fill-opacity:1;" d="M 7.78125 24.484375 C 7.425781 24.070312 6.75 23.101562 6.75 21.695312 C 6.75 20.792969 6.972656 20.273438 7.207031 19.722656 C 7.238281 19.652344 7.269531 19.578125 7.300781 19.507812 C 7.082031 19.253906 6.902344 18.804688 6.699219 18.285156 C 6.484375 17.742188 6.242188 17.128906 5.917969 16.683594 C 5.601562 16.242188 5.21875 16.09375 4.878906 16.082031 C 5.0625 16.292969 5.214844 16.648438 5.25 16.738281 L 5.257812 16.753906 L 5.257812 16.773438 C 5.242188 16.945312 5.230469 17.160156 5.21875 17.40625 C 5.21875 17.40625 5.21875 17.40625 5.222656 17.410156 L 5.21875 17.410156 C 5.210938 17.675781 5.203125 17.976562 5.210938 18.304688 C 5.210938 18.304688 5.210938 18.308594 5.210938 18.308594 C 5.214844 18.570312 5.222656 18.847656 5.242188 19.136719 C 5.257812 19.148438 5.265625 19.164062 5.273438 19.183594 L 5.25 19.195312 C 5.320312 20.175781 5.5 21.261719 5.898438 22.203125 C 6.046875 22.550781 6.214844 22.855469 6.390625 23.121094 L 6.402344 23.121094 L 6.402344 23.136719 C 6.898438 23.867188 7.453125 24.28125 7.78125 24.484375 Z M 7.78125 24.484375 "/>
<path style=" stroke:none;fill-rule:nonzero;fill:rgb(74.901961%,45.882353%,21.568627%);fill-opacity:1;" d="M 7.679688 25.179688 C 7.839844 25.054688 7.910156 24.875 7.941406 24.757812 C 7.773438 24.675781 7.3125 24.429688 6.808594 23.90625 L 6.207031 23.929688 L 6.203125 23.859375 L 6.199219 23.765625 L 6.667969 23.75 C 6.542969 23.605469 6.421875 23.449219 6.296875 23.269531 L 5.753906 23.171875 L 5.785156 23.015625 L 6.175781 23.085938 C 6.054688 22.890625 5.9375 22.679688 5.832031 22.445312 C 5.585938 22.300781 5.136719 22.367188 5.132812 22.367188 L 5.109375 22.207031 C 5.125 22.203125 5.453125 22.15625 5.738281 22.234375 C 5.664062 22.066406 5.605469 21.898438 5.546875 21.722656 C 5.398438 21.5625 5.164062 21.480469 4.96875 21.441406 C 4.769531 21.398438 4.609375 21.398438 4.609375 21.398438 L 4.609375 21.238281 C 4.632812 21.238281 5.109375 21.242188 5.464844 21.453125 C 5.417969 21.296875 5.378906 21.140625 5.34375 20.980469 C 5.203125 20.8125 4.972656 20.707031 4.773438 20.644531 C 4.574219 20.585938 4.414062 20.566406 4.410156 20.5625 L 4.425781 20.402344 C 4.453125 20.40625 4.9375 20.464844 5.28125 20.710938 C 5.238281 20.484375 5.203125 20.257812 5.171875 20.035156 C 4.847656 19.765625 4.242188 19.8125 4.234375 19.8125 L 4.222656 19.648438 C 4.246094 19.648438 4.765625 19.609375 5.144531 19.824219 C 5.121094 19.613281 5.101562 19.402344 5.085938 19.199219 C 4.957031 19.082031 4.628906 18.953125 4.421875 18.890625 L 4.464844 18.738281 C 4.546875 18.761719 4.859375 18.855469 5.070312 18.992188 C 5.058594 18.777344 5.050781 18.566406 5.046875 18.367188 C 4.863281 18.175781 4.484375 18.085938 4.480469 18.085938 L 4.519531 17.929688 C 4.53125 17.933594 4.820312 18.003906 5.046875 18.15625 C 5.046875 17.902344 5.046875 17.664062 5.054688 17.449219 C 4.976562 17.335938 4.671875 17.15625 4.464844 17.058594 L 4.53125 16.910156 C 4.605469 16.945312 4.882812 17.078125 5.066406 17.230469 C 5.070312 17.058594 5.082031 16.910156 5.09375 16.78125 C 4.992188 16.539062 4.792969 16.160156 4.648438 16.097656 C 4.457031 16.128906 4.285156 16.195312 4.164062 16.269531 C 3.988281 16.378906 3.757812 16.429688 3.558594 16.453125 C 3.949219 16.691406 4.25 17.175781 4.28125 17.570312 C 4.292969 17.730469 4.285156 17.890625 4.261719 18.046875 C 4.261719 18.050781 4.261719 18.050781 4.261719 18.054688 C 4.246094 18.164062 4.226562 18.269531 4.207031 18.375 C 4.175781 18.546875 4.140625 18.730469 4.128906 18.910156 C 4.117188 19.152344 4.125 19.402344 4.144531 19.652344 C 4.148438 19.769531 4.160156 19.882812 4.167969 20 L 4.175781 20.074219 C 4.226562 20.707031 4.367188 21.277344 4.59375 21.769531 C 4.695312 21.996094 4.84375 22.191406 5 22.386719 C 5.023438 22.417969 5.046875 22.445312 5.070312 22.472656 C 5.214844 22.65625 5.367188 22.84375 5.488281 23.054688 C 5.644531 23.328125 5.84375 23.601562 6.046875 23.867188 C 6.078125 23.90625 6.105469 23.945312 6.132812 23.980469 C 6.132812 23.984375 6.132812 23.984375 6.136719 23.984375 C 6.460938 24.410156 6.792969 24.851562 6.988281 25.3125 C 7.277344 25.355469 7.511719 25.308594 7.679688 25.179688 Z M 7.679688 25.179688 "/>
<path style=" stroke:none;fill-rule:nonzero;fill:rgb(74.901961%,45.882353%,21.568627%);fill-opacity:1;" d="M 4.078125 16.132812 C 4.5 15.875 5.390625 15.679688 6.050781 16.585938 C 6.390625 17.050781 6.632812 17.675781 6.847656 18.226562 C 7.023438 18.667969 7.1875 19.089844 7.371094 19.339844 C 7.433594 19.171875 7.496094 19 7.546875 18.808594 C 6.757812 14.953125 4.722656 15.097656 4.695312 15.097656 L 4.679688 14.9375 C 4.765625 14.929688 6.765625 14.773438 7.632812 18.433594 C 7.675781 18.210938 7.699219 17.960938 7.707031 17.675781 C 7.054688 14.222656 5.390625 14.261719 5.367188 14.265625 L 5.359375 14.105469 C 5.425781 14.101562 6.933594 14.046875 7.699219 16.894531 C 7.632812 15.789062 7.390625 15.214844 7.167969 14.699219 C 7.164062 14.691406 7.160156 14.683594 7.15625 14.675781 C 6.910156 14.183594 6.578125 13.84375 6.171875 13.683594 C 5.714844 13.507812 5.167969 13.566406 4.589844 13.851562 C 3.515625 14.386719 3.613281 15.917969 3.652344 16.277344 C 3.800781 16.25 3.960938 16.207031 4.078125 16.132812 Z M 4.078125 16.132812 "/>
<path style=" stroke:none;fill-rule:nonzero;fill:rgb(100%,100%,100%);fill-opacity:1;" d="M 28 4.054688 C 27.945312 4 27.886719 3.9375 27.832031 3.867188 L 27.878906 3.753906 C 28.164062 3.765625 29.476562 3.84375 29.949219 4.347656 C 30.054688 4.464844 30.105469 4.59375 30.105469 4.738281 C 30.039062 4.777344 29.867188 4.875 29.585938 4.929688 L 29.695312 4.53125 L 29.695312 4.519531 C 29.695312 4.5 29.691406 4.355469 29.53125 4.214844 C 29.265625 3.992188 28.75 3.9375 28 4.054688 Z M 28 4.054688 "/>
<path style=" stroke:none;fill-rule:nonzero;fill:rgb(100%,100%,100%);fill-opacity:1;" d="M 29.128906 4.976562 C 28.757812 4.976562 28.226562 4.816406 27.574219 4.566406 L 27.765625 4.042969 C 28.398438 4.773438 29.183594 4.703125 29.5 4.632812 L 29.410156 4.957031 C 29.320312 4.96875 29.230469 4.976562 29.128906 4.976562 Z M 29.128906 4.976562 "/>
<path style=" stroke:none;fill-rule:nonzero;fill:rgb(100%,100%,100%);fill-opacity:1;" d="M 29.421875 4.335938 C 29.476562 4.378906 29.503906 4.429688 29.519531 4.464844 C 29.320312 4.519531 28.71875 4.628906 28.160156 4.195312 C 28.925781 4.09375 29.269531 4.210938 29.421875 4.335938 Z M 29.421875 4.335938 "/>
<path style=" stroke:none;fill-rule:nonzero;fill:rgb(100%,100%,100%);fill-opacity:1;" d="M 4.28125 4.042969 L 4.476562 4.566406 C 3.824219 4.816406 3.296875 4.976562 2.921875 4.976562 C 2.820312 4.976562 2.730469 4.96875 2.644531 4.957031 L 2.550781 4.632812 C 2.867188 4.703125 3.65625 4.773438 4.28125 4.042969 Z M 4.28125 4.042969 "/>
<path style=" stroke:none;fill-rule:nonzero;fill:rgb(100%,100%,100%);fill-opacity:1;" d="M 2.46875 4.929688 C 2.1875 4.875 2.011719 4.777344 1.945312 4.738281 C 1.949219 4.59375 1.996094 4.464844 2.101562 4.347656 C 2.574219 3.84375 3.886719 3.765625 4.175781 3.753906 L 4.21875 3.867188 C 4.164062 3.9375 4.109375 4 4.050781 4.054688 C 3.300781 3.9375 2.789062 3.992188 2.519531 4.214844 C 2.359375 4.355469 2.355469 4.5 2.355469 4.519531 L 2.355469 4.53125 Z M 2.46875 4.929688 "/>
<path style=" stroke:none;fill-rule:nonzero;fill:rgb(100%,100%,100%);fill-opacity:1;" d="M 2.53125 4.464844 C 2.546875 4.429688 2.574219 4.378906 2.636719 4.335938 C 2.785156 4.210938 3.125 4.09375 3.894531 4.195312 C 3.328125 4.628906 2.730469 4.519531 2.53125 4.464844 Z M 2.53125 4.464844 "/>
<path style=" stroke:none;fill-rule:nonzero;fill:rgb(100%,100%,100%);fill-opacity:1;" d="M 30.0625 4.945312 L 29.304688 7.730469 C 29.261719 7.777344 29.042969 7.988281 28.609375 7.988281 C 27.460938 7.988281 26.050781 7.40625 24.417969 6.730469 C 22.140625 5.789062 19.308594 4.617188 16.027344 4.597656 C 12.746094 4.617188 9.910156 5.789062 7.632812 6.730469 C 6 7.40625 4.59375 7.988281 3.441406 7.988281 C 3.011719 7.988281 2.789062 7.777344 2.746094 7.730469 L 1.992188 4.945312 C 2.171875 5.03125 2.480469 5.136719 2.921875 5.136719 C 3.570312 5.136719 4.617188 4.699219 5.945312 4.144531 C 8.488281 3.082031 11.964844 1.632812 16.027344 1.613281 C 20.089844 1.632812 23.566406 3.082031 26.105469 4.144531 C 27.433594 4.699219 28.480469 5.136719 29.128906 5.136719 C 29.574219 5.136719 29.882812 5.03125 30.0625 4.945312 Z M 30.0625 4.945312 "/>
<path style=" stroke:none;fill-rule:nonzero;fill:rgb(13.72549%,12.156863%,12.54902%);fill-opacity:1;" d="M 24.105469 4.726562 C 24.179688 4.527344 24.175781 4.148438 23.675781 3.953125 C 23.152344 3.746094 22.925781 4.023438 22.859375 4.207031 C 22.714844 4.5625 22.945312 4.71875 23.183594 4.882812 L 23.339844 4.992188 C 23.5 5.101562 23.605469 5.183594 23.554688 5.308594 C 23.488281 5.480469 23.296875 5.449219 23.132812 5.386719 C 22.835938 5.269531 22.859375 5.078125 22.894531 4.988281 L 22.570312 4.859375 C 22.488281 5.0625 22.457031 5.441406 23.050781 5.675781 C 23.191406 5.730469 23.707031 5.882812 23.898438 5.398438 C 24.011719 5.105469 23.84375 4.933594 23.644531 4.792969 L 23.289062 4.539062 C 23.226562 4.5 23.132812 4.429688 23.183594 4.304688 C 23.242188 4.160156 23.414062 4.171875 23.542969 4.222656 C 23.839844 4.339844 23.796875 4.523438 23.777344 4.597656 Z M 24.105469 4.726562 "/>
<path style=" stroke:none;fill-rule:nonzero;fill:rgb(13.72549%,12.156863%,12.54902%);fill-opacity:1;" d="M 22.347656 3.503906 L 21.976562 4.589844 C 21.910156 4.789062 21.777344 4.871094 21.539062 4.792969 C 21.378906 4.738281 21.28125 4.59375 21.355469 4.363281 L 21.71875 3.292969 L 21.367188 3.175781 L 20.996094 4.265625 C 20.945312 4.433594 20.933594 4.578125 20.988281 4.710938 C 21.082031 4.921875 21.292969 5.035156 21.449219 5.085938 C 21.867188 5.226562 22.191406 5.128906 22.335938 4.695312 L 22.699219 3.621094 Z M 22.347656 3.503906 "/>
<path style=" stroke:none;fill-rule:nonzero;fill:rgb(13.72549%,12.156863%,12.54902%);fill-opacity:1;" d="M 19.800781 4.171875 L 19.796875 4.171875 L 19.816406 2.765625 L 19.304688 2.636719 L 18.882812 4.324219 L 19.214844 4.40625 L 19.566406 2.996094 L 19.527344 4.484375 L 19.875 4.570312 L 20.539062 3.234375 L 20.542969 3.238281 L 20.195312 4.648438 L 20.523438 4.730469 L 20.945312 3.039062 L 20.433594 2.914062 Z M 19.800781 4.171875 "/>
<path style=" stroke:none;fill-rule:nonzero;fill:rgb(13.72549%,12.156863%,12.54902%);fill-opacity:1;" d="M 17.332031 4.105469 L 18.644531 4.285156 L 18.6875 3.980469 L 17.730469 3.847656 L 17.789062 3.402344 L 18.632812 3.519531 L 18.675781 3.210938 L 17.832031 3.097656 L 17.882812 2.734375 L 18.800781 2.863281 L 18.84375 2.554688 L 17.574219 2.382812 Z M 17.332031 4.105469 "/>
<path style=" stroke:none;fill-rule:nonzero;fill:rgb(13.72549%,12.156863%,12.54902%);fill-opacity:1;" d="M 16.429688 2.316406 L 15.660156 2.296875 L 15.613281 4.035156 L 16.367188 4.054688 C 16.945312 4.070312 17.105469 3.535156 17.117188 3.164062 C 17.125 2.835938 17.019531 2.332031 16.429688 2.316406 Z M 16.335938 3.753906 L 15.980469 3.742188 L 16.007812 2.605469 L 16.359375 2.613281 C 16.515625 2.617188 16.757812 2.667969 16.746094 3.179688 C 16.738281 3.464844 16.628906 3.761719 16.335938 3.753906 Z M 16.335938 3.753906 "/>
<path style=" stroke:none;fill-rule:nonzero;fill:rgb(13.72549%,12.156863%,12.54902%);fill-opacity:1;" d="M 14.820312 2.359375 L 14.941406 4.097656 L 15.304688 4.070312 L 15.183594 2.335938 Z M 14.820312 2.359375 "/>
<path style=" stroke:none;fill-rule:nonzero;fill:rgb(13.72549%,12.156863%,12.54902%);fill-opacity:1;" d="M 14.515625 2.375 L 13.285156 2.546875 L 13.53125 4.269531 L 13.886719 4.21875 L 13.785156 3.492188 L 14.546875 3.386719 L 14.503906 3.082031 L 13.746094 3.1875 L 13.6875 2.800781 L 14.558594 2.679688 Z M 14.515625 2.375 "/>
<path style=" stroke:none;fill-rule:nonzero;fill:rgb(13.72549%,12.156863%,12.54902%);fill-opacity:1;" d="M 12.488281 2.707031 L 12.769531 3.886719 L 12.761719 3.886719 L 11.8125 2.867188 L 11.4375 2.953125 L 11.839844 4.644531 L 12.167969 4.566406 L 11.882812 3.363281 L 11.886719 3.359375 L 12.867188 4.40625 L 13.222656 4.320312 L 12.820312 2.628906 Z M 12.488281 2.707031 "/>
<path style=" stroke:none;fill-rule:nonzero;fill:rgb(13.72549%,12.156863%,12.54902%);fill-opacity:1;" d="M 10.253906 3.273438 C 10.035156 3.34375 9.488281 3.625 9.742188 4.402344 C 9.996094 5.179688 10.605469 5.082031 10.824219 5.011719 C 11.046875 4.941406 11.589844 4.660156 11.335938 3.882812 C 11.082031 3.105469 10.472656 3.199219 10.253906 3.273438 Z M 10.726562 4.722656 C 10.542969 4.78125 10.242188 4.75 10.089844 4.289062 C 9.9375 3.824219 10.164062 3.625 10.347656 3.566406 C 10.535156 3.503906 10.835938 3.535156 10.992188 3.996094 C 11.140625 4.457031 10.917969 4.660156 10.726562 4.722656 Z M 10.726562 4.722656 "/>
<path style=" stroke:none;fill-rule:nonzero;fill:rgb(13.72549%,12.156863%,12.54902%);fill-opacity:1;" d="M 9.296875 4.871094 C 9.332031 5.085938 9.242188 5.242188 9.050781 5.316406 C 8.769531 5.429688 8.546875 5.210938 8.433594 4.921875 C 8.253906 4.464844 8.449219 4.261719 8.613281 4.199219 C 8.894531 4.085938 9.019531 4.25 9.082031 4.335938 L 9.421875 4.203125 C 9.308594 3.972656 8.980469 3.714844 8.496094 3.90625 C 8.078125 4.070312 7.863281 4.488281 8.085938 5.054688 C 8.304688 5.609375 8.730469 5.78125 9.160156 5.613281 C 9.570312 5.453125 9.703125 5.117188 9.632812 4.738281 Z M 9.296875 4.871094 "/>
<path style=" stroke:none;fill-rule:nonzero;fill:rgb(13.72549%,12.156863%,12.54902%);fill-opacity:1;" d="M 1.78125 4.792969 L 2.59375 7.789062 L 2.597656 7.808594 L 2.609375 7.820312 C 2.621094 7.832031 2.882812 8.152344 3.441406 8.152344 C 4.625 8.152344 6.046875 7.5625 7.695312 6.882812 C 9.960938 5.945312 12.777344 4.78125 16.027344 4.761719 C 19.273438 4.78125 22.09375 5.945312 24.359375 6.882812 C 26.003906 7.5625 27.429688 8.152344 28.609375 8.152344 C 29.167969 8.152344 29.433594 7.832031 29.441406 7.820312 L 29.453125 7.808594 L 30.265625 4.800781 L 30.269531 4.792969 L 30.269531 4.785156 C 30.28125 4.582031 30.214844 4.398438 30.066406 4.238281 C 29.492188 3.625 27.886719 3.589844 27.820312 3.589844 L 27.761719 3.585938 L 27.425781 4.507812 C 27.039062 4.359375 26.621094 4.183594 26.167969 3.996094 C 23.609375 2.929688 20.121094 1.46875 16.027344 1.449219 C 11.929688 1.46875 8.4375 2.929688 5.882812 3.996094 C 5.429688 4.183594 5.011719 4.359375 4.628906 4.507812 L 4.308594 3.640625 L 4.289062 3.585938 L 4.230469 3.589844 C 4.160156 3.589844 2.558594 3.625 1.984375 4.238281 C 1.839844 4.398438 1.769531 4.582031 1.78125 4.785156 Z M 27.878906 3.753906 C 28.164062 3.765625 29.476562 3.84375 29.949219 4.347656 C 30.054688 4.464844 30.105469 4.59375 30.105469 4.738281 C 30.039062 4.777344 29.867188 4.875 29.585938 4.929688 L 29.695312 4.53125 L 29.695312 4.519531 C 29.695312 4.5 29.691406 4.355469 29.53125 4.214844 C 29.265625 3.992188 28.75 3.9375 28 4.054688 C 27.945312 4 27.886719 3.9375 27.832031 3.867188 Z M 29.519531 4.464844 C 29.320312 4.519531 28.71875 4.628906 28.160156 4.195312 C 28.925781 4.09375 29.269531 4.210938 29.421875 4.335938 C 29.476562 4.378906 29.503906 4.429688 29.519531 4.464844 Z M 27.765625 4.042969 C 28.398438 4.773438 29.183594 4.703125 29.5 4.632812 L 29.410156 4.957031 C 29.320312 4.96875 29.230469 4.976562 29.128906 4.976562 C 28.757812 4.976562 28.226562 4.816406 27.574219 4.566406 Z M 5.945312 4.144531 C 8.488281 3.082031 11.964844 1.632812 16.027344 1.613281 C 20.089844 1.632812 23.566406 3.082031 26.105469 4.144531 C 27.433594 4.699219 28.480469 5.136719 29.128906 5.136719 C 29.574219 5.136719 29.882812 5.03125 30.0625 4.945312 L 29.304688 7.730469 C 29.261719 7.777344 29.042969 7.988281 28.609375 7.988281 C 27.460938 7.988281 26.050781 7.40625 24.417969 6.730469 C 22.140625 5.789062 19.308594 4.617188 16.027344 4.597656 C 12.746094 4.617188 9.910156 5.789062 7.632812 6.730469 C 6 7.40625 4.59375 7.988281 3.441406 7.988281 C 3.011719 7.988281 2.789062 7.777344 2.746094 7.730469 L 1.992188 4.945312 C 2.171875 5.03125 2.480469 5.136719 2.921875 5.136719 C 3.570312 5.136719 4.617188 4.699219 5.945312 4.144531 Z M 4.28125 4.042969 L 4.476562 4.566406 C 3.824219 4.816406 3.296875 4.976562 2.921875 4.976562 C 2.820312 4.976562 2.730469 4.96875 2.644531 4.957031 L 2.550781 4.632812 C 2.867188 4.703125 3.65625 4.773438 4.28125 4.042969 Z M 2.53125 4.464844 C 2.546875 4.429688 2.574219 4.378906 2.636719 4.335938 C 2.785156 4.210938 3.125 4.09375 3.894531 4.195312 C 3.328125 4.628906 2.730469 4.519531 2.53125 4.464844 Z M 2.105469 4.347656 C 2.574219 3.84375 3.886719 3.765625 4.175781 3.753906 L 4.21875 3.867188 C 4.164062 3.9375 4.109375 4 4.050781 4.054688 C 3.300781 3.9375 2.789062 3.992188 2.519531 4.214844 C 2.359375 4.355469 2.355469 4.5 2.355469 4.519531 L 2.355469 4.53125 L 2.46875 4.929688 C 2.1875 4.875 2.011719 4.777344 1.945312 4.738281 C 1.949219 4.59375 1.996094 4.464844 2.105469 4.347656 Z M 2.105469 4.347656 "/>
<path style=" stroke:none;fill-rule:nonzero;fill:rgb(100%,100%,100%);fill-opacity:1;" d="M 27.765625 32.722656 L 27.574219 32.199219 C 28.226562 31.953125 28.757812 31.789062 29.128906 31.789062 C 29.230469 31.789062 29.320312 31.796875 29.410156 31.808594 L 29.5 32.132812 C 29.183594 32.0625 28.398438 31.992188 27.765625 32.722656 Z M 27.765625 32.722656 "/>
<path style=" stroke:none;fill-rule:nonzero;fill:rgb(100%,100%,100%);fill-opacity:1;" d="M 30.105469 32.027344 C 30.105469 32.175781 30.054688 32.300781 29.949219 32.417969 C 29.476562 32.921875 28.164062 33 27.878906 33.011719 L 27.832031 32.898438 C 27.886719 32.828125 27.945312 32.765625 28 32.710938 C 28.75 32.828125 29.265625 32.773438 29.53125 32.546875 C 29.691406 32.410156 29.695312 32.265625 29.695312 32.25 L 29.695312 32.238281 L 29.585938 31.835938 C 29.867188 31.894531 30.039062 31.988281 30.105469 32.027344 Z M 30.105469 32.027344 "/>
<path style=" stroke:none;fill-rule:nonzero;fill:rgb(100%,100%,100%);fill-opacity:1;" d="M 29.519531 32.304688 C 29.503906 32.339844 29.476562 32.386719 29.421875 32.433594 C 29.269531 32.554688 28.925781 32.675781 28.160156 32.574219 C 28.71875 32.136719 29.320312 32.25 29.519531 32.304688 Z M 29.519531 32.304688 "/>
<path style=" stroke:none;fill-rule:nonzero;fill:rgb(100%,100%,100%);fill-opacity:1;" d="M 2.921875 31.789062 C 3.296875 31.789062 3.824219 31.953125 4.476562 32.199219 L 4.28125 32.722656 C 3.65625 31.992188 2.867188 32.0625 2.550781 32.132812 L 2.644531 31.808594 C 2.730469 31.796875 2.820312 31.789062 2.921875 31.789062 Z M 2.921875 31.789062 "/>
<path style=" stroke:none;fill-rule:nonzero;fill:rgb(100%,100%,100%);fill-opacity:1;" d="M 2.636719 32.433594 C 2.574219 32.386719 2.546875 32.339844 2.53125 32.304688 C 2.730469 32.25 3.328125 32.136719 3.894531 32.574219 C 3.125 32.675781 2.785156 32.554688 2.636719 32.433594 Z M 2.636719 32.433594 "/>
<path style=" stroke:none;fill-rule:nonzero;fill:rgb(100%,100%,100%);fill-opacity:1;" d="M 4.050781 32.710938 C 4.109375 32.765625 4.164062 32.828125 4.21875 32.898438 L 4.175781 33.011719 C 3.886719 33 2.574219 32.921875 2.105469 32.417969 C 1.996094 32.300781 1.949219 32.175781 1.945312 32.027344 C 2.011719 31.984375 2.1875 31.894531 2.46875 31.835938 L 2.355469 32.226562 L 2.355469 32.25 C 2.355469 32.265625 2.359375 32.410156 2.519531 32.546875 C 2.789062 32.773438 3.300781 32.828125 4.050781 32.710938 Z M 4.050781 32.710938 "/>
<path style=" stroke:none;fill-rule:nonzero;fill:rgb(100%,100%,100%);fill-opacity:1;" d="M 29.128906 31.628906 C 28.480469 31.628906 27.433594 32.066406 26.105469 32.621094 C 23.566406 33.683594 20.089844 35.132812 16.027344 35.152344 C 11.964844 35.132812 8.488281 33.683594 5.945312 32.621094 C 4.617188 32.066406 3.566406 31.628906 2.921875 31.628906 C 2.480469 31.628906 2.171875 31.734375 1.992188 31.820312 L 2.746094 29.035156 C 2.789062 28.988281 3.011719 28.777344 3.441406 28.777344 C 4.59375 28.777344 6 29.359375 7.632812 30.035156 C 9.910156 30.976562 12.746094 32.148438 16.027344 32.167969 C 19.304688 32.148438 22.140625 30.976562 24.417969 30.035156 C 26.050781 29.359375 27.460938 28.777344 28.609375 28.777344 C 29.042969 28.777344 29.261719 28.988281 29.304688 29.035156 L 30.058594 31.820312 C 29.882812 31.734375 29.574219 31.628906 29.128906 31.628906 Z M 29.128906 31.628906 "/>
<path style=" stroke:none;fill-rule:nonzero;fill:rgb(13.72549%,12.156863%,12.54902%);fill-opacity:1;" d="M 26.542969 31.460938 L 26.203125 31.601562 L 26.339844 31.929688 L 26.675781 31.789062 Z M 26.542969 31.460938 "/>
<path style=" stroke:none;fill-rule:nonzero;fill:rgb(13.72549%,12.156863%,12.54902%);fill-opacity:1;" d="M 25.550781 31.613281 C 25.59375 31.828125 25.507812 31.984375 25.320312 32.0625 C 25.035156 32.179688 24.8125 31.96875 24.691406 31.679688 C 24.503906 31.222656 24.699219 31.019531 24.859375 30.953125 C 25.136719 30.835938 25.261719 30.996094 25.332031 31.082031 L 25.667969 30.945312 C 25.550781 30.714844 25.21875 30.464844 24.734375 30.660156 C 24.320312 30.832031 24.113281 31.253906 24.347656 31.816406 C 24.574219 32.371094 25.003906 32.53125 25.433594 32.355469 C 25.835938 32.191406 25.964844 31.851562 25.886719 31.472656 Z M 25.550781 31.613281 "/>
<path style=" stroke:none;fill-rule:nonzero;fill:rgb(13.72549%,12.156863%,12.54902%);fill-opacity:1;" d="M 23.945312 32.523438 L 24.074219 32.851562 L 24.410156 32.71875 L 24.285156 32.390625 Z M 23.945312 32.523438 "/>
<path style=" stroke:none;fill-rule:nonzero;fill:rgb(13.72549%,12.156863%,12.54902%);fill-opacity:1;" d="M 23.617188 31.917969 L 22.898438 32.179688 L 22.761719 31.8125 L 23.585938 31.511719 L 23.480469 31.222656 L 22.3125 31.644531 L 22.914062 33.28125 L 23.253906 33.15625 L 23 32.46875 L 23.722656 32.207031 Z M 23.617188 31.917969 "/>
<path style=" stroke:none;fill-rule:nonzero;fill:rgb(13.72549%,12.156863%,12.54902%);fill-opacity:1;" d="M 21.507812 31.921875 L 21.050781 32.042969 L 20.59375 32.902344 L 20.410156 32.21875 L 20.054688 32.316406 L 20.515625 33.992188 L 20.871094 33.898438 L 20.714844 33.332031 L 20.832031 33.117188 L 21.554688 33.710938 L 22.003906 33.585938 L 21.007812 32.796875 Z M 21.507812 31.921875 "/>
<path style=" stroke:none;fill-rule:nonzero;fill:rgb(13.72549%,12.156863%,12.54902%);fill-opacity:1;" d="M 19.34375 33.960938 C 19.042969 34.019531 18.867188 33.765625 18.8125 33.457031 C 18.71875 32.976562 18.953125 32.8125 19.121094 32.78125 C 19.417969 32.726562 19.511719 32.910156 19.558594 33.007812 L 19.917969 32.941406 C 19.851562 32.691406 19.578125 32.378906 19.0625 32.472656 C 18.621094 32.554688 18.332031 32.921875 18.441406 33.523438 C 18.554688 34.113281 18.941406 34.359375 19.394531 34.273438 C 19.828125 34.191406 20.019531 33.886719 20.023438 33.503906 L 19.664062 33.570312 C 19.660156 33.789062 19.542969 33.925781 19.34375 33.960938 Z M 19.34375 33.960938 "/>
<path style=" stroke:none;fill-rule:nonzero;fill:rgb(13.72549%,12.156863%,12.54902%);fill-opacity:1;" d="M 17.292969 32.714844 C 17.0625 32.734375 16.46875 32.886719 16.535156 33.699219 C 16.609375 34.511719 17.21875 34.558594 17.453125 34.539062 C 17.679688 34.519531 18.277344 34.371094 18.207031 33.554688 C 18.140625 32.742188 17.523438 32.695312 17.292969 32.714844 Z M 17.425781 34.234375 C 17.230469 34.25 16.945312 34.152344 16.898438 33.667969 C 16.859375 33.183594 17.125 33.039062 17.320312 33.019531 C 17.515625 33.003906 17.804688 33.101562 17.84375 33.585938 C 17.886719 34.074219 17.621094 34.214844 17.425781 34.234375 Z M 17.425781 34.234375 "/>
<path style=" stroke:none;fill-rule:nonzero;fill:rgb(13.72549%,12.156863%,12.54902%);fill-opacity:1;" d="M 15.878906 34.035156 L 15.875 34.035156 L 15.226562 32.796875 L 14.84375 32.785156 L 14.777344 34.523438 L 15.117188 34.535156 L 15.164062 33.292969 L 15.167969 33.292969 L 15.835938 34.5625 L 16.199219 34.574219 L 16.261719 32.835938 L 15.921875 32.824219 Z M 15.878906 34.035156 "/>
<path style=" stroke:none;fill-rule:nonzero;fill:rgb(13.72549%,12.156863%,12.54902%);fill-opacity:1;" d="M 14.054688 32.6875 L 13.179688 32.566406 L 12.9375 34.289062 L 13.292969 34.339844 L 13.386719 33.664062 L 13.761719 33.714844 C 14.023438 33.753906 14.027344 33.847656 13.996094 34.082031 C 13.972656 34.257812 13.972656 34.351562 13.984375 34.433594 L 14.382812 34.492188 L 14.390625 34.445312 C 14.316406 34.40625 14.328125 34.34375 14.363281 34.089844 C 14.40625 33.769531 14.339844 33.707031 14.203125 33.625 C 14.382812 33.589844 14.503906 33.441406 14.527344 33.25 C 14.550781 33.101562 14.511719 32.753906 14.054688 32.6875 Z M 14.164062 33.238281 C 14.140625 33.40625 14.039062 33.457031 13.851562 33.433594 L 13.425781 33.375 L 13.492188 32.914062 L 13.941406 32.976562 C 14.152344 33.003906 14.175781 33.144531 14.164062 33.238281 Z M 14.164062 33.238281 "/>
<path style=" stroke:none;fill-rule:nonzero;fill:rgb(13.72549%,12.156863%,12.54902%);fill-opacity:1;" d="M 11.988281 32.304688 L 10.992188 33.859375 L 11.367188 33.945312 L 11.5625 33.625 L 12.191406 33.769531 L 12.21875 34.144531 L 12.605469 34.234375 L 12.402344 32.402344 Z M 11.726562 33.355469 L 12.101562 32.734375 L 12.105469 32.734375 L 12.160156 33.453125 Z M 11.726562 33.355469 "/>
<path style=" stroke:none;fill-rule:nonzero;fill:rgb(13.72549%,12.156863%,12.54902%);fill-opacity:1;" d="M 10.71875 31.960938 L 10.003906 33.171875 L 10 33.171875 L 10.117188 31.769531 L 9.609375 31.609375 L 9.082031 33.265625 L 9.40625 33.371094 L 9.84375 31.984375 L 9.851562 31.984375 L 9.714844 33.46875 L 10.054688 33.574219 L 10.804688 32.289062 L 10.808594 32.289062 L 10.367188 33.675781 L 10.691406 33.777344 L 11.222656 32.117188 Z M 10.71875 31.960938 "/>
<path style=" stroke:none;fill-rule:nonzero;fill:rgb(13.72549%,12.156863%,12.54902%);fill-opacity:1;" d="M 8.605469 31.226562 L 8.261719 31.097656 L 7.640625 32.722656 L 8.792969 33.160156 L 8.90625 32.867188 L 8.09375 32.558594 Z M 8.605469 31.226562 "/>
<path style=" stroke:none;fill-rule:nonzero;fill:rgb(13.72549%,12.156863%,12.54902%);fill-opacity:1;" d="M 7.613281 30.835938 L 6.957031 32.445312 L 7.296875 32.582031 L 7.949219 30.972656 Z M 7.613281 30.835938 "/>
<path style=" stroke:none;fill-rule:nonzero;fill:rgb(13.72549%,12.156863%,12.54902%);fill-opacity:1;" d="M 7.433594 30.761719 L 7 30.582031 L 6.109375 30.976562 L 6.386719 30.324219 L 6.050781 30.1875 L 5.378906 31.789062 L 5.710938 31.929688 L 5.941406 31.386719 L 6.164062 31.289062 L 6.367188 32.203125 L 6.800781 32.382812 L 6.503906 31.144531 Z M 7.433594 30.761719 "/>
<path style=" stroke:none;fill-rule:nonzero;fill:rgb(13.72549%,12.156863%,12.54902%);fill-opacity:1;" d="M 30.269531 31.972656 L 30.265625 31.964844 L 29.453125 28.960938 L 29.441406 28.949219 C 29.433594 28.933594 29.167969 28.613281 28.609375 28.613281 C 27.753906 28.613281 26.777344 28.921875 25.675781 29.351562 C 25.632812 29.367188 25.59375 29.382812 25.550781 29.398438 C 25.167969 29.550781 24.769531 29.714844 24.359375 29.882812 C 22.09375 30.820312 19.273438 31.984375 16.027344 32.007812 C 12.777344 31.984375 9.960938 30.820312 7.695312 29.882812 C 7.164062 29.664062 6.65625 29.453125 6.175781 29.273438 C 6.144531 29.261719 6.113281 29.25 6.082031 29.238281 C 6.050781 29.226562 6.027344 29.214844 6 29.207031 C 5.050781 28.855469 4.195312 28.613281 3.441406 28.613281 C 2.882812 28.613281 2.617188 28.933594 2.609375 28.949219 L 2.597656 28.960938 L 2.59375 28.976562 L 1.78125 31.972656 L 1.78125 31.980469 C 1.769531 32.183594 1.839844 32.367188 1.984375 32.527344 C 2.558594 33.144531 4.160156 33.175781 4.230469 33.175781 L 4.289062 33.179688 L 4.308594 33.125 L 4.628906 32.257812 C 5.011719 32.40625 5.429688 32.582031 5.882812 32.773438 C 8.4375 33.839844 11.929688 35.296875 16.027344 35.316406 C 20.121094 35.296875 23.609375 33.839844 26.167969 32.773438 C 26.621094 32.582031 27.039062 32.40625 27.421875 32.257812 L 27.761719 33.179688 L 27.820312 33.175781 C 27.886719 33.175781 29.492188 33.144531 30.066406 32.527344 C 30.214844 32.367188 30.28125 32.183594 30.269531 31.980469 Z M 4.175781 33.011719 C 3.886719 33 2.574219 32.921875 2.105469 32.417969 C 1.996094 32.300781 1.949219 32.175781 1.945312 32.027344 C 2.011719 31.984375 2.1875 31.894531 2.46875 31.835938 L 2.355469 32.226562 L 2.355469 32.25 C 2.355469 32.265625 2.359375 32.410156 2.519531 32.546875 C 2.789062 32.773438 3.300781 32.828125 4.050781 32.710938 C 4.109375 32.765625 4.164062 32.828125 4.21875 32.898438 Z M 2.53125 32.304688 C 2.730469 32.25 3.328125 32.136719 3.894531 32.574219 C 3.125 32.675781 2.785156 32.554688 2.636719 32.433594 C 2.574219 32.386719 2.546875 32.339844 2.53125 32.304688 Z M 4.28125 32.722656 C 3.65625 31.992188 2.867188 32.0625 2.550781 32.132812 L 2.644531 31.808594 C 2.730469 31.796875 2.820312 31.789062 2.921875 31.789062 C 3.296875 31.789062 3.824219 31.953125 4.476562 32.199219 Z M 26.105469 32.621094 C 23.566406 33.683594 20.089844 35.132812 16.027344 35.152344 C 11.964844 35.132812 8.488281 33.683594 5.945312 32.621094 C 4.617188 32.066406 3.566406 31.628906 2.921875 31.628906 C 2.480469 31.628906 2.171875 31.734375 1.992188 31.820312 L 2.746094 29.035156 C 2.789062 28.988281 3.011719 28.777344 3.441406 28.777344 C 4.59375 28.777344 6 29.359375 7.632812 30.035156 C 9.910156 30.976562 12.746094 32.148438 16.027344 32.167969 C 19.304688 32.148438 22.140625 30.976562 24.417969 30.035156 C 26.050781 29.359375 27.460938 28.777344 28.609375 28.777344 C 29.042969 28.777344 29.261719 28.988281 29.304688 29.035156 L 30.058594 31.820312 C 29.882812 31.734375 29.574219 31.628906 29.128906 31.628906 C 28.480469 31.628906 27.433594 32.066406 26.105469 32.621094 Z M 27.765625 32.722656 L 27.574219 32.199219 C 28.226562 31.953125 28.757812 31.789062 29.128906 31.789062 C 29.230469 31.789062 29.320312 31.796875 29.410156 31.808594 L 29.5 32.132812 C 29.183594 32.0625 28.398438 31.992188 27.765625 32.722656 Z M 29.519531 32.304688 C 29.503906 32.339844 29.476562 32.386719 29.421875 32.433594 C 29.269531 32.554688 28.925781 32.675781 28.160156 32.574219 C 28.71875 32.136719 29.320312 32.25 29.519531 32.304688 Z M 29.949219 32.417969 C 29.476562 32.921875 28.164062 33 27.878906 33.011719 L 27.832031 32.898438 C 27.886719 32.828125 27.945312 32.765625 28 32.710938 C 28.75 32.828125 29.265625 32.773438 29.53125 32.546875 C 29.691406 32.410156 29.695312 32.265625 29.695312 32.25 L 29.695312 32.238281 L 29.585938 31.835938 C 29.867188 31.894531 30.039062 31.988281 30.105469 32.027344 C 30.105469 32.175781 30.054688 32.300781 29.949219 32.417969 Z M 29.949219 32.417969 "/>
</g>
</svg>
