<?xml version="1.0" encoding="UTF-8"?>
<svg xmlns="http://www.w3.org/2000/svg" xmlns:xlink="http://www.w3.org/1999/xlink" width="32px" height="32px" viewBox="0 0 32 26" version="1.1">
<g id="surface1">
<path style=" stroke:none;fill-rule:evenodd;fill:rgb(0%,0%,0%);fill-opacity:1;" d="M 15.96875 9.914062 C 15.96875 9.914062 16.003906 9.816406 16.183594 9.855469 C 16.136719 9.921875 16.046875 9.949219 15.96875 9.914062 Z M 15.96875 9.914062 "/>
<path style="fill-rule:evenodd;fill:rgb(100%,80%,0%);fill-opacity:1;stroke-width:0.14;stroke-linecap:butt;stroke-linejoin:miter;stroke:rgb(22.745098%,22.745098%,22.745098%);stroke-opacity:1;stroke-miterlimit:4;" d="M 429.311193 124.345132 C 434.04195 123.02512 438.641296 121.441106 443.240643 119.72509 C 478.984135 106.656971 509.471232 94.116857 542.192297 75.900691 C 576.753101 93.060847 610.656855 110.749008 648.502906 119.857091 C 665.060553 123.949129 684.903448 125.005138 693.707911 125.137139 C 749.162889 125.797145 772.553851 125.533143 827.220369 119.857091 C 816.707577 173.845583 810.268492 202.885847 802.909538 258.458353 C 799.361471 287.234615 800.54416 332.643029 801.989669 361.551292 C 805.012096 423.459856 805.800556 485.236418 803.435177 547.144982 C 801.464029 570.641196 800.14993 591.365385 793.185205 610.241556 C 784.643562 633.341767 769.662833 653.40595 748.637249 673.338131 C 689.502794 729.438642 617.490169 765.078966 545.608954 802.83131 C 475.041838 772.471034 377.535693 719.538552 328.65121 665.286058 C 303.946149 637.565805 296.061555 624.497686 292.513488 604.697506 C 290.410929 593.741406 288.834011 580.805288 287.257092 562.193119 C 283.446205 517.444712 284.760304 436.263972 283.051975 373.959405 C 283.051975 361.815294 282.526335 340.035096 282.526335 328.022987 C 280.555187 250.142278 270.436625 198.133804 249.411041 124.08113 C 309.728185 129.62518 337.061444 131.7372 397.378588 128.437169 C 403.160623 127.909165 423.791977 125.401142 429.311193 124.345132 Z M 429.311193 124.345132 " transform="matrix(0.0297257,0,0,0.0295925,0.000147107,0)"/>
<path style="fill-rule:evenodd;fill:rgb(0%,0%,0%);fill-opacity:1;stroke-width:0.11;stroke-linecap:butt;stroke-linejoin:miter;stroke:rgb(10.588235%,9.803922%,9.411765%);stroke-opacity:1;stroke-miterlimit:4;" d="M 278.452628 150.613371 C 322.606355 156.025421 367.154311 157.345433 411.439447 154.705409 C 419.98109 154.177404 431.150932 153.517398 435.881688 152.461388 C 441.795134 150.877374 447.577169 149.029357 453.227795 146.785337 C 485.028991 135.03723 515.121858 122.365114 541.666657 107.052975 C 573.862083 123.817127 606.188918 139.921274 641.406771 148.23735 C 651.919563 150.613371 662.695175 151.933383 673.470787 152.065385 C 715.127725 152.857392 756.653253 151.273377 798.178781 147.049339 C 787.797399 193.381761 781.095494 236.018149 776.758968 272.582482 C 772.553851 306.506791 773.99936 336.339063 775.313459 363.135306 C 778.335887 424.911869 778.335887 486.424429 776.233328 546.484976 C 774.656409 590.83738 761.38401 621.461659 728.925764 652.34994 C 672.288098 705.942428 607.634427 737.358714 545.214725 771.547025 C 463.083537 734.058684 392.647831 692.742308 350.071024 646.145883 C 317.744188 610.63756 318.269828 604.565505 312.356383 560.213101 C 309.465365 498.832542 308.282676 436.659976 308.414086 374.355409 C 308.939725 362.343299 307.888446 350.33119 307.888446 337.923077 C 308.019856 279.050541 297.244244 216.34997 278.452628 150.613371 Z M 278.452628 150.613371 " transform="matrix(0.0297257,0,0,0.0295925,0.000147107,0)"/>
<path style=" stroke:none;fill-rule:evenodd;fill:rgb(100%,80%,0%);fill-opacity:1;" d="M 16.332031 14.785156 C 16.320312 14.71875 16.292969 14.65625 16.257812 14.597656 C 16.21875 14.535156 16.144531 14.464844 16.144531 14.375 C 16.144531 14.367188 16.136719 14.304688 16.136719 14.304688 C 16.136719 14.214844 16.121094 14.152344 16.136719 14.003906 C 16.15625 13.855469 16.128906 13.554688 16.070312 13.371094 L 15.851562 13.4375 C 15.964844 13.707031 15.953125 13.878906 15.941406 14.007812 C 15.941406 14.132812 15.894531 14.191406 15.894531 14.300781 C 15.898438 14.347656 15.90625 14.394531 15.917969 14.441406 C 15.957031 14.558594 15.980469 14.585938 16.0625 14.710938 C 16.078125 14.738281 16.09375 14.765625 16.109375 14.792969 C 16.113281 14.808594 16.152344 14.875 16.152344 14.921875 C 16.152344 14.949219 16.152344 15 16.152344 15.035156 C 16.210938 15.007812 16.296875 14.957031 16.335938 14.933594 C 16.359375 14.898438 16.335938 14.8125 16.332031 14.785156 Z M 16.332031 14.785156 "/>
<path style=" stroke:none;fill-rule:evenodd;fill:rgb(100%,80%,0%);fill-opacity:1;" d="M 15.824219 12.695312 C 15.902344 12.714844 15.976562 12.640625 15.976562 12.605469 C 15.921875 12.59375 15.859375 12.566406 15.851562 12.523438 C 15.929688 12.527344 16 12.472656 16.011719 12.394531 C 16.011719 12.394531 15.878906 12.390625 15.882812 12.324219 C 15.886719 12.253906 15.972656 12.136719 16.089844 12.152344 C 16.097656 12.144531 16.109375 12.136719 16.113281 12.128906 C 16.160156 12.074219 16.15625 12.003906 16.15625 11.96875 C 16.15625 11.925781 16.128906 11.890625 16.089844 11.878906 C 16.050781 11.871094 16.023438 11.871094 15.988281 11.863281 C 15.875 11.847656 15.871094 11.78125 15.6875 11.808594 C 15.507812 11.835938 15.539062 11.960938 15.414062 12.078125 C 15.355469 12.046875 15.191406 12.054688 15.269531 12.226562 C 15.300781 12.222656 15.3125 12.226562 15.351562 12.222656 C 15.429688 12.214844 15.480469 12.238281 15.503906 12.3125 C 15.523438 12.371094 15.511719 12.550781 15.328125 12.566406 C 15.304688 12.566406 15.277344 12.566406 15.253906 12.5625 C 15.222656 12.558594 15.140625 12.535156 15.15625 12.453125 C 15.160156 12.433594 15.101562 12.351562 14.996094 12.371094 C 14.996094 12.371094 15.070312 12.433594 15.078125 12.511719 C 15.082031 12.550781 15.054688 12.566406 14.996094 12.597656 C 14.996094 12.597656 14.832031 12.679688 14.863281 12.769531 C 14.863281 12.769531 14.929688 12.734375 14.980469 12.703125 C 15.035156 12.667969 15.058594 12.730469 15.015625 12.78125 C 14.992188 12.804688 14.96875 13.027344 15.078125 13 C 15.089844 12.917969 15.128906 12.917969 15.140625 12.882812 C 15.179688 12.8125 15.261719 12.769531 15.285156 12.871094 C 15.289062 12.90625 15.308594 12.933594 15.339844 12.953125 C 15.355469 12.960938 15.375 12.996094 15.449219 12.988281 C 15.453125 12.832031 15.429688 12.96875 15.429688 12.839844 C 15.429688 12.699219 15.515625 12.703125 15.511719 12.746094 C 15.503906 12.785156 15.605469 12.867188 15.621094 12.878906 C 15.660156 12.882812 15.6875 12.886719 15.683594 12.867188 C 15.640625 12.8125 15.636719 12.757812 15.652344 12.75 C 15.765625 12.886719 15.855469 12.8125 15.890625 12.796875 C 15.855469 12.761719 15.804688 12.738281 15.789062 12.707031 C 15.777344 12.675781 15.808594 12.675781 15.824219 12.695312 Z M 15.824219 12.695312 "/>
<path style=" stroke:none;fill-rule:evenodd;fill:rgb(100%,80%,0%);fill-opacity:1;" d="M 15.800781 14.332031 C 15.808594 14.324219 15.8125 14.296875 15.8125 14.296875 C 15.835938 14.226562 15.835938 14.214844 15.835938 14.070312 C 15.835938 14.027344 15.835938 13.917969 15.828125 13.824219 C 15.578125 13.703125 15.28125 13.199219 15.28125 13.199219 L 15.035156 13.46875 C 14.835938 13.316406 14.695312 12.789062 14.695312 12.789062 C 14.632812 12.855469 14.496094 13.042969 14.496094 13.042969 C 14.347656 12.851562 14.242188 12.128906 14.242188 12.128906 C 14.160156 12.140625 14.019531 12.210938 13.941406 12.210938 C 13.859375 11.773438 14.136719 11.128906 14.152344 11.023438 L 13.839844 11.078125 C 13.863281 10.730469 14.507812 10.148438 14.507812 10.148438 L 14.234375 10.085938 C 14.394531 9.902344 14.894531 9.578125 14.894531 9.578125 L 14.917969 9.355469 L 14.605469 9.355469 L 14.726562 8.917969 L 14.234375 8.890625 L 14.148438 9.1875 L 13.953125 9.046875 C 13.726562 9.238281 13.695312 9.886719 13.699219 10.066406 L 13.457031 9.914062 C 13.222656 10.277344 13.277344 10.964844 13.277344 10.964844 L 12.957031 10.921875 C 12.960938 11.714844 13.144531 12.082031 13.402344 12.410156 L 13.027344 12.410156 C 13.242188 12.957031 13.6875 13.238281 13.796875 13.28125 L 13.511719 13.335938 C 13.84375 13.898438 14.546875 14.082031 14.546875 14.082031 L 14.257812 14.214844 C 14.6875 14.53125 15.253906 14.589844 15.738281 14.367188 C 15.765625 14.359375 15.785156 14.347656 15.800781 14.332031 Z M 14.953125 14.359375 L 15.441406 14.191406 L 15.757812 14.25 C 15.765625 14.214844 15.761719 14.160156 15.761719 14.066406 C 15.675781 14.066406 15.589844 14.054688 15.507812 14.035156 L 15.394531 13.59375 L 15.214844 13.640625 L 15.3125 13.984375 C 15.121094 13.910156 14.941406 13.808594 14.777344 13.683594 L 14.777344 13.238281 L 14.59375 13.234375 L 14.601562 13.527344 C 14.421875 13.347656 14.257812 13.152344 14.125 12.933594 L 14.230469 12.492188 L 14.058594 12.4375 L 14 12.722656 C 13.746094 12.351562 13.710938 11.773438 13.710938 11.773438 L 13.972656 11.480469 L 13.839844 11.359375 L 13.691406 11.53125 C 13.675781 11.160156 13.773438 10.628906 13.773438 10.628906 L 14.066406 10.515625 L 13.996094 10.351562 L 13.835938 10.421875 C 13.90625 10.148438 14.074219 9.84375 14.074219 9.84375 L 14.527344 9.691406 L 14.46875 9.527344 L 14.199219 9.617188 C 14.285156 9.464844 14.390625 9.320312 14.503906 9.183594 L 14.371094 9.078125 C 14.269531 9.179688 14.082031 9.464844 14.082031 9.464844 L 14.074219 9.378906 L 13.898438 9.378906 L 13.910156 9.753906 C 13.816406 9.929688 13.742188 10.117188 13.6875 10.3125 L 13.660156 10.21875 L 13.488281 10.285156 L 13.601562 10.625 C 13.472656 11.054688 13.523438 11.507812 13.523438 11.507812 L 13.382812 11.320312 L 13.230469 11.425781 L 13.542969 11.800781 C 13.613281 12.382812 13.761719 12.640625 13.871094 12.847656 L 13.578125 12.773438 L 13.539062 12.945312 L 13.980469 13.042969 C 14.097656 13.25 14.25 13.4375 14.425781 13.601562 L 14.1875 13.554688 L 14.167969 13.738281 L 14.652344 13.808594 C 14.925781 14.039062 15.15625 14.117188 15.15625 14.117188 L 14.898438 14.203125 Z M 14.953125 14.359375 "/>
<path style=" stroke:none;fill-rule:evenodd;fill:rgb(100%,80%,0%);fill-opacity:1;" d="M 16.921875 12.34375 C 16.855469 12.359375 16.824219 12.296875 16.820312 12.273438 C 16.792969 12.285156 16.765625 12.296875 16.742188 12.3125 C 16.71875 12.335938 16.648438 12.292969 16.648438 12.292969 C 16.585938 12.246094 16.664062 12.191406 16.730469 12.210938 C 16.765625 12.21875 16.835938 12.253906 17.042969 12.214844 C 17.207031 12.183594 17.273438 12 17.265625 11.847656 C 17.261719 11.785156 17.28125 11.734375 17.25 11.738281 C 17.226562 11.839844 17.207031 11.859375 17.167969 11.847656 C 17.039062 11.820312 17.03125 11.65625 17.058594 11.585938 C 17.152344 11.359375 17.054688 11.175781 17 11.179688 C 16.996094 11.203125 16.996094 11.222656 17 11.25 C 17.03125 11.257812 17.019531 11.46875 16.957031 11.457031 C 16.882812 11.414062 16.847656 11.367188 16.855469 11.261719 C 16.863281 11.140625 16.90625 11.105469 16.945312 11.0625 C 17.03125 10.957031 17.167969 11.023438 17.167969 10.882812 C 17.167969 10.734375 17.144531 10.640625 17.085938 10.625 C 17.089844 10.734375 17.09375 10.769531 17.058594 10.824219 C 17.050781 10.832031 17.027344 10.832031 17.019531 10.816406 C 16.929688 10.675781 16.957031 10.566406 17.019531 10.46875 C 17.058594 10.398438 17.113281 10.320312 17.183594 10.296875 C 17.105469 10.222656 16.894531 10.308594 16.84375 10.421875 C 16.816406 10.496094 16.808594 10.574219 16.816406 10.652344 C 16.777344 10.707031 16.707031 10.613281 16.6875 10.609375 C 16.660156 10.636719 16.722656 10.703125 16.734375 10.945312 C 16.738281 11.089844 16.722656 11.234375 16.722656 11.292969 C 16.722656 11.40625 16.773438 11.550781 16.828125 11.601562 C 16.894531 11.667969 16.902344 11.691406 16.894531 11.703125 C 16.695312 11.6875 16.699219 11.542969 16.671875 11.542969 C 16.652344 11.738281 16.769531 11.820312 16.882812 11.855469 C 16.996094 11.890625 17.035156 11.972656 17.035156 11.988281 C 17.03125 12.046875 16.960938 12.089844 16.902344 12.089844 C 16.671875 12.0625 16.597656 11.957031 16.535156 11.785156 C 16.496094 11.683594 16.371094 11.472656 16.335938 11.457031 C 16.292969 11.566406 16.214844 11.769531 16.105469 11.769531 C 16.128906 11.808594 16.203125 11.859375 16.203125 11.96875 C 16.203125 12.082031 16.082031 12.21875 16.082031 12.371094 C 16.082031 12.527344 16.078125 12.667969 16.074219 12.691406 C 16.058594 12.746094 15.90625 12.820312 16.023438 12.984375 C 16.023438 12.984375 16.085938 12.828125 16.144531 12.855469 C 16.179688 12.914062 16.128906 12.933594 16.132812 12.980469 C 16.167969 12.992188 16.332031 12.886719 16.347656 12.714844 C 16.40625 12.714844 16.449219 12.722656 16.511719 12.667969 C 16.558594 12.621094 16.609375 12.59375 16.65625 12.667969 C 16.699219 12.742188 16.667969 12.773438 16.605469 12.820312 C 16.542969 12.867188 16.558594 12.84375 16.515625 12.835938 C 16.398438 12.808594 16.273438 12.882812 16.28125 12.976562 C 16.324219 12.992188 16.390625 12.910156 16.402344 12.976562 C 16.417969 13.0625 16.25 13.191406 16.375 13.289062 C 16.445312 13.195312 16.472656 13.117188 16.535156 13.140625 C 16.582031 13.15625 16.625 13.183594 16.660156 13.222656 C 16.664062 13.113281 16.683594 13.023438 16.726562 13.050781 C 16.738281 13.058594 16.738281 13.078125 16.769531 13.050781 C 16.808594 13.019531 16.863281 13.007812 16.933594 13.03125 C 16.929688 12.988281 16.847656 12.945312 16.871094 12.875 C 16.921875 12.90625 17.082031 12.820312 17.0625 12.777344 C 17.046875 12.746094 16.996094 12.773438 17.011719 12.71875 C 17.042969 12.734375 17.167969 12.617188 17.105469 12.613281 C 17.105469 12.613281 17.070312 12.664062 17.035156 12.632812 C 17.070312 12.601562 17.136719 12.550781 17.117188 12.390625 C 17.066406 12.40625 17.058594 12.460938 16.992188 12.46875 C 16.996094 12.417969 17.078125 12.335938 17.019531 12.25 C 16.949219 12.316406 16.949219 12.335938 16.921875 12.34375 Z M 16.921875 12.34375 "/>
<path style=" stroke:none;fill-rule:evenodd;fill:rgb(100%,80%,0%);fill-opacity:1;" d="M 15.476562 11.53125 C 15.429688 11.574219 15.410156 11.546875 15.410156 11.546875 C 15.378906 11.523438 15.367188 11.484375 15.378906 11.449219 C 15.382812 11.429688 15.398438 11.429688 15.398438 11.40625 C 15.390625 11.335938 15.421875 11.332031 15.421875 11.316406 C 15.390625 11.316406 15.359375 11.324219 15.332031 11.339844 C 15.230469 11.398438 15.109375 11.429688 14.992188 11.441406 C 14.945312 11.382812 14.878906 11.234375 14.753906 11.257812 C 14.738281 11.3125 14.78125 11.25 14.765625 11.394531 C 14.757812 11.398438 14.753906 11.40625 14.75 11.414062 C 14.75 11.414062 14.621094 11.375 14.507812 11.554688 C 14.550781 11.578125 14.574219 11.488281 14.695312 11.617188 C 14.601562 11.726562 14.632812 11.871094 14.765625 11.867188 C 14.765625 11.835938 14.765625 11.800781 14.769531 11.769531 C 14.808594 11.734375 14.824219 11.699219 14.875 11.699219 C 14.875 11.753906 14.953125 11.859375 15.085938 11.835938 C 15.03125 11.796875 15.058594 11.691406 15.132812 11.691406 C 15.203125 11.808594 15.398438 11.820312 15.417969 11.761719 C 15.375 11.761719 15.285156 11.671875 15.339844 11.644531 C 15.355469 11.671875 15.5 11.804688 15.578125 11.710938 C 15.527344 11.679688 15.527344 11.652344 15.539062 11.601562 C 15.546875 11.574219 15.601562 11.53125 15.652344 11.601562 L 15.667969 11.445312 C 15.597656 11.457031 15.53125 11.488281 15.476562 11.53125 Z M 15.476562 11.53125 "/>
<path style=" stroke:none;fill-rule:evenodd;fill:rgb(100%,80%,0%);fill-opacity:1;" d="M 15.128906 10.898438 C 15.117188 10.960938 15.089844 10.949219 15.089844 10.996094 C 15.089844 11.007812 15.089844 11.015625 15.097656 11.019531 C 15.128906 11.019531 15.167969 11.015625 15.199219 11.003906 C 15.269531 10.992188 15.339844 10.96875 15.410156 10.941406 C 15.453125 10.921875 15.539062 10.882812 15.558594 10.832031 C 15.484375 10.773438 15.402344 10.710938 15.328125 10.648438 C 15.269531 10.609375 15.214844 10.5625 15.167969 10.507812 C 15.140625 10.480469 15.117188 10.390625 15.160156 10.355469 C 15.195312 10.332031 15.378906 10.285156 15.304688 10.109375 C 15.289062 10.132812 15.273438 10.160156 15.257812 10.1875 C 15.234375 10.222656 15.199219 10.226562 15.15625 10.1875 C 15.121094 10.148438 15.085938 10.117188 15.046875 10.089844 C 15.027344 10.074219 14.988281 10.074219 14.972656 10.089844 C 14.964844 10.101562 14.972656 10.140625 14.96875 10.175781 C 14.957031 10.175781 14.957031 10.195312 14.9375 10.1875 C 14.894531 10.171875 14.832031 10.121094 14.714844 10.246094 C 14.742188 10.257812 14.769531 10.273438 14.789062 10.292969 C 14.785156 10.3125 14.792969 10.332031 14.800781 10.347656 C 14.828125 10.34375 14.855469 10.363281 14.859375 10.390625 C 14.859375 10.390625 14.859375 10.394531 14.859375 10.394531 C 14.769531 10.480469 14.832031 10.472656 14.710938 10.578125 C 14.722656 10.589844 14.757812 10.632812 14.824219 10.589844 C 14.859375 10.566406 14.921875 10.542969 14.902344 10.597656 C 14.894531 10.625 14.832031 10.597656 14.828125 10.699219 C 14.828125 10.722656 14.875 10.703125 14.949219 10.730469 C 14.988281 10.746094 15.015625 10.765625 15.035156 10.761719 C 15.0625 10.75 15.058594 10.808594 15.015625 10.808594 C 14.988281 10.808594 14.964844 10.808594 14.9375 10.808594 C 14.90625 10.847656 15.066406 10.941406 15.128906 10.898438 Z M 15.128906 10.898438 "/>
<path style=" stroke:none;fill-rule:evenodd;fill:rgb(100%,80%,0%);fill-opacity:1;" d="M 16.039062 10.222656 C 16.039062 10.257812 16.285156 10.269531 16.289062 10.222656 C 16.289062 10.199219 16.246094 10.179688 16.171875 10.179688 C 16.109375 10.179688 16.039062 10.199219 16.039062 10.222656 Z M 15.800781 10.609375 C 15.796875 10.601562 15.765625 10.601562 15.765625 10.613281 C 15.765625 10.625 15.765625 10.652344 15.757812 10.664062 C 15.738281 10.6875 15.738281 10.722656 15.722656 10.738281 C 15.707031 10.757812 15.734375 10.78125 15.765625 10.769531 C 15.796875 10.757812 15.828125 10.746094 15.859375 10.726562 C 15.875 10.722656 15.894531 10.734375 15.898438 10.75 C 15.898438 10.753906 15.898438 10.761719 15.898438 10.761719 C 15.898438 10.78125 15.886719 10.792969 15.867188 10.792969 C 15.867188 10.792969 15.863281 10.792969 15.863281 10.792969 C 15.8125 10.785156 15.738281 10.800781 15.710938 10.800781 C 15.542969 10.800781 15.621094 10.882812 15.453125 10.953125 C 15.382812 10.980469 15.3125 11.007812 15.242188 11.027344 C 15.265625 11.066406 15.296875 11.042969 15.3125 11.089844 C 15.28125 11.113281 15.214844 11.175781 15.238281 11.269531 C 15.28125 11.234375 15.441406 11.210938 15.527344 11.25 C 15.527344 11.25 15.433594 11.355469 15.4375 11.476562 C 15.480469 11.46875 15.53125 11.386719 15.746094 11.371094 C 15.679688 11.472656 15.675781 11.65625 15.703125 11.71875 C 15.808594 11.722656 15.832031 11.734375 15.984375 11.558594 C 16 11.566406 16.011719 11.636719 15.914062 11.710938 C 15.914062 11.710938 15.902344 11.722656 15.914062 11.742188 C 16.042969 11.75 16.214844 11.71875 16.3125 11.347656 C 16.40625 11.320312 16.429688 11.40625 16.425781 11.519531 C 16.476562 11.574219 16.632812 11.46875 16.621094 11.320312 C 16.605469 11.171875 16.523438 11.117188 16.496094 10.957031 C 16.496094 10.957031 16.636719 11.023438 16.683594 10.898438 C 16.683594 10.871094 16.628906 10.882812 16.597656 10.839844 C 16.539062 10.765625 16.59375 10.640625 16.617188 10.582031 C 16.664062 10.582031 16.804688 10.585938 16.78125 10.410156 C 16.78125 10.410156 16.644531 10.417969 16.671875 10.335938 C 16.722656 10.167969 16.832031 10.140625 16.8125 10.101562 C 16.769531 10.148438 16.675781 10.164062 16.609375 10.144531 C 16.609375 10.144531 16.714844 10.0625 16.71875 10.019531 C 16.632812 10.03125 16.570312 10.039062 16.488281 10.007812 C 16.488281 9.960938 16.542969 9.941406 16.515625 9.902344 C 16.480469 9.847656 16.324219 9.96875 16.273438 10.054688 C 16.210938 10.042969 16.148438 10.046875 16.085938 10.066406 C 15.835938 10.128906 15.882812 10.257812 15.6875 10.136719 C 15.671875 10.167969 15.664062 10.207031 15.667969 10.242188 C 15.675781 10.3125 15.714844 10.375 15.773438 10.414062 C 15.84375 10.46875 15.886719 10.4375 15.898438 10.417969 C 15.910156 10.402344 15.9375 10.410156 15.949219 10.421875 C 15.964844 10.433594 15.976562 10.449219 15.984375 10.46875 C 16 10.507812 16 10.554688 15.972656 10.59375 C 15.949219 10.621094 15.914062 10.601562 15.855469 10.609375 C 15.835938 10.617188 15.808594 10.625 15.800781 10.609375 Z M 15.929688 10.460938 C 15.914062 10.453125 15.902344 10.46875 15.878906 10.476562 C 15.800781 10.507812 15.703125 10.488281 15.671875 10.441406 C 15.652344 10.414062 15.605469 10.3125 15.53125 10.320312 C 15.453125 10.324219 15.429688 10.371094 15.40625 10.417969 C 15.441406 10.449219 15.441406 10.375 15.515625 10.382812 C 15.527344 10.386719 15.539062 10.394531 15.546875 10.414062 C 15.574219 10.46875 15.613281 10.511719 15.664062 10.539062 C 15.707031 10.558594 15.753906 10.574219 15.800781 10.578125 C 15.851562 10.589844 15.902344 10.578125 15.9375 10.550781 C 15.953125 10.539062 15.960938 10.515625 15.949219 10.503906 C 15.945312 10.5 15.941406 10.496094 15.9375 10.492188 C 15.929688 10.488281 15.9375 10.46875 15.929688 10.460938 Z M 15.929688 10.460938 "/>
<path style=" stroke:none;fill-rule:evenodd;fill:rgb(99.607843%,80%,0%);fill-opacity:1;" d="M 16.53125 9.84375 L 16.949219 8.328125 Z M 15.714844 9.816406 L 15.433594 8.492188 L 15.386719 8.5 L 15.671875 9.816406 Z M 15.816406 9.8125 L 15.605469 8.476562 C 15.589844 8.476562 15.574219 8.476562 15.558594 8.476562 L 15.777344 9.816406 Z M 15.777344 8.453125 L 15.929688 9.816406 L 15.886719 9.816406 L 15.726562 8.453125 Z M 15.914062 8.425781 L 15.960938 8.429688 L 16.03125 9.824219 L 16 9.820312 Z M 16.113281 8.402344 L 16.160156 8.402344 L 16.132812 9.832031 L 16.089844 9.832031 Z M 16.324219 8.378906 L 16.375 8.378906 L 16.210938 9.839844 L 16.164062 9.835938 Z M 16.507812 8.363281 L 16.550781 8.367188 L 16.3125 9.84375 L 16.277344 9.84375 Z M 16.695312 8.347656 L 16.746094 8.34375 L 16.417969 9.84375 L 16.375 9.84375 Z M 16.53125 9.84375 L 16.484375 9.84375 L 16.902344 8.324219 L 16.949219 8.328125 Z M 17.597656 6.714844 L 17.453125 7.230469 C 18.078125 7.203125 18.609375 7.214844 18.839844 7.25 C 19.292969 7.328125 19.300781 7.554688 19.308594 7.734375 C 19.324219 8.070312 19.320312 8.40625 19.292969 8.742188 C 19.226562 8.464844 18.921875 8.25 18.632812 8.242188 C 17.953125 8.242188 17.523438 8.296875 17.144531 8.304688 L 16.707031 9.875 L 15.476562 9.871094 L 15.03125 8.578125 C 14.324219 8.757812 13.488281 8.910156 13.109375 8.910156 C 12.511719 8.910156 12.496094 8.703125 12.496094 8.703125 L 12.511719 7.589844 C 12.558594 7.664062 12.566406 7.757812 12.929688 7.804688 C 13.328125 7.859375 13.90625 7.691406 14.683594 7.550781 L 14.390625 6.714844 C 15.214844 6.207031 16.5625 6.035156 17.597656 6.714844 Z M 17.40625 6.632812 L 17.367188 6.632812 L 17.191406 7.242188 C 17.214844 7.238281 17.226562 7.238281 17.246094 7.238281 Z M 17.136719 6.511719 L 17.09375 6.511719 L 16.933594 7.257812 C 16.957031 7.253906 16.964844 7.21875 16.988281 7.21875 Z M 16.871094 6.4375 L 16.820312 6.425781 L 16.683594 7.285156 C 16.707031 7.28125 16.707031 7.28125 16.734375 7.28125 Z M 16.605469 6.363281 L 16.558594 6.355469 L 16.449219 7.304688 C 16.46875 7.304688 16.476562 7.304688 16.5 7.304688 Z M 16.199219 6.304688 L 16.15625 6.300781 L 16.136719 7.335938 C 16.152344 7.335938 16.171875 7.335938 16.1875 7.335938 Z M 15.789062 6.304688 L 15.851562 7.378906 L 15.898438 7.375 L 15.839844 6.296875 Z M 15.484375 6.332031 L 15.605469 7.410156 L 15.652344 7.402344 L 15.527344 6.332031 Z M 15.222656 6.410156 L 15.386719 7.441406 C 15.40625 7.441406 15.417969 7.441406 15.441406 7.441406 L 15.265625 6.402344 Z M 14.957031 6.492188 L 15.167969 7.480469 L 15.214844 7.476562 L 15 6.492188 Z M 14.683594 6.613281 L 14.929688 7.519531 L 14.980469 7.511719 L 14.726562 6.589844 Z M 15.558594 9.828125 L 15.207031 8.539062 L 15.253906 8.53125 L 15.597656 9.820312 C 15.585938 9.820312 15.570312 9.824219 15.558594 9.828125 Z M 15.558594 9.828125 "/>
<path style=" stroke:none;fill-rule:evenodd;fill:rgb(100%,80%,0%);fill-opacity:1;" d="M 13.351562 7.644531 L 13.347656 7.007812 C 13.003906 7.011719 12.679688 7.09375 12.679688 7.398438 C 12.679688 7.703125 12.953125 7.722656 13.351562 7.644531 Z M 13.351562 7.644531 "/>
<path style=" stroke:none;fill-rule:evenodd;fill:rgb(100%,80%,0%);fill-opacity:1;" d="M 18.648438 9.441406 C 18.851562 9.378906 19.289062 9.210938 19.445312 8.792969 C 19.546875 8.511719 19.476562 8.300781 19.46875 8.234375 C 19.46875 8.234375 19.675781 8.207031 19.84375 8.1875 C 20.007812 8.167969 20.441406 8.097656 20.652344 8.074219 C 20.5 8.210938 20.089844 8.488281 19.855469 8.734375 L 20.558594 8.871094 C 20.558594 8.871094 20.203125 9.089844 20.027344 9.175781 C 19.851562 9.261719 19.175781 9.625 18.648438 9.441406 Z M 18.648438 9.441406 "/>
<path style=" stroke:none;fill-rule:evenodd;fill:rgb(100%,80%,0%);fill-opacity:1;" d="M 20.871094 14.570312 L 20.875 15.847656 C 20.875 15.847656 20.765625 15.527344 19.933594 15.527344 C 18.757812 15.53125 17.65625 16.144531 16.296875 16.800781 C 14.542969 17.695312 13.449219 17.882812 12.839844 17.777344 C 12.039062 17.777344 11.847656 17.207031 11.847656 17.207031 L 11.867188 15.667969 C 11.867188 15.667969 12.105469 16.230469 12.867188 16.230469 C 13.886719 16.230469 14.832031 15.816406 16.375 15.023438 C 18.132812 14.101562 18.941406 13.972656 19.714844 13.972656 C 20.761719 13.96875 20.871094 14.570312 20.871094 14.570312 Z M 20.871094 14.570312 "/>
<path style=" stroke:none;fill-rule:evenodd;fill:rgb(100%,80%,0%);fill-opacity:1;" d="M 10.878906 15.65625 L 11.347656 15.394531 L 10.835938 14.691406 C 11.0625 14.886719 11.375 14.996094 11.664062 15.039062 C 11.988281 15.085938 12.859375 15.007812 12.914062 15.386719 C 12.8125 15.226562 12.03125 15.257812 11.871094 15.332031 C 11.738281 15.398438 11.664062 15.644531 11.660156 15.957031 C 11.585938 15.8125 11.300781 15.679688 10.878906 15.65625 Z M 10.878906 15.65625 "/>
<path style=" stroke:none;fill-rule:evenodd;fill:rgb(100%,80%,0%);fill-opacity:1;" d="M 12.933594 16.089844 L 12.9375 15.554688 C 12.855469 15.484375 12.113281 15.265625 12.085938 15.59375 C 12.058594 15.890625 12.613281 16.078125 12.933594 16.089844 Z M 12.933594 16.089844 "/>
<path style=" stroke:none;fill-rule:evenodd;fill:rgb(100%,80%,0%);fill-opacity:1;" d="M 19.953125 16.558594 C 19.980469 16.59375 20.382812 16.773438 20.875 16.710938 C 21.25 16.664062 21.597656 16.476562 21.84375 16.191406 C 21.691406 16.214844 21.476562 16.203125 21.320312 16.140625 C 21.570312 15.921875 21.808594 15.691406 21.988281 15.441406 C 21.886719 15.503906 21.460938 15.605469 21.105469 15.640625 C 21.097656 15.878906 21.167969 16.535156 19.953125 16.558594 Z M 19.953125 16.558594 "/>
<path style=" stroke:none;fill-rule:evenodd;fill:rgb(100%,80%,0%);fill-opacity:1;" d="M 17.042969 17.226562 C 17.027344 16.960938 16.96875 16.773438 16.894531 16.636719 L 16.679688 16.75 C 16.734375 16.851562 16.777344 17.015625 16.777344 17.242188 C 16.773438 17.640625 16.460938 18.015625 16.242188 18.210938 L 16.3125 18.472656 C 16.394531 18.414062 17.078125 17.882812 17.042969 17.226562 Z M 17.042969 17.226562 "/>
<path style=" stroke:none;fill-rule:evenodd;fill:rgb(100%,80%,0%);fill-opacity:1;" d="M 19.832031 15.714844 L 19.824219 16.363281 C 19.835938 16.390625 20.726562 16.5 20.707031 16.019531 C 20.710938 15.683594 19.832031 15.714844 19.832031 15.714844 Z M 19.832031 15.714844 "/>
<path style=" stroke:none;fill-rule:evenodd;fill:rgb(0%,0%,0%);fill-opacity:1;" d="M 12.503906 16.730469 L 12.789062 16.730469 L 12.789062 16.757812 C 12.777344 16.757812 12.765625 16.757812 12.753906 16.761719 C 12.742188 16.765625 12.738281 16.777344 12.738281 16.785156 C 12.738281 16.796875 12.738281 16.808594 12.742188 16.820312 L 12.878906 17.195312 L 13 16.839844 C 13.003906 16.828125 13.007812 16.8125 13.007812 16.796875 C 13.003906 16.761719 12.96875 16.753906 12.933594 16.75 L 12.933594 16.714844 L 13.226562 16.714844 L 13.226562 16.742188 C 13.1875 16.742188 13.167969 16.75 13.164062 16.769531 C 13.164062 16.789062 13.167969 16.808594 13.175781 16.824219 L 13.3125 17.179688 L 13.425781 16.804688 C 13.4375 16.789062 13.4375 16.773438 13.4375 16.753906 C 13.429688 16.738281 13.414062 16.734375 13.386719 16.738281 L 13.386719 16.707031 L 13.5625 16.707031 L 13.5625 16.738281 C 13.539062 16.738281 13.511719 16.753906 13.503906 16.78125 L 13.351562 17.332031 L 13.210938 17.332031 L 13.046875 16.890625 L 12.898438 17.339844 L 12.765625 17.339844 L 12.570312 16.800781 C 12.566406 16.789062 12.554688 16.777344 12.542969 16.769531 C 12.53125 16.761719 12.519531 16.757812 12.503906 16.761719 Z M 12.503906 16.730469 "/>
<path style=" stroke:none;fill-rule:evenodd;fill:rgb(0%,0%,0%);fill-opacity:1;" d="M 13.519531 16.6875 L 13.527344 16.71875 C 13.558594 16.707031 13.589844 16.695312 13.609375 16.710938 C 13.621094 16.722656 13.628906 16.742188 13.632812 16.757812 L 13.726562 17.15625 C 13.734375 17.171875 13.734375 17.191406 13.730469 17.207031 C 13.722656 17.230469 13.675781 17.230469 13.644531 17.242188 L 13.648438 17.273438 L 14.21875 17.15625 L 14.222656 17.007812 L 14.160156 17.023438 L 14.152344 17.082031 C 14.148438 17.109375 14.128906 17.132812 14.097656 17.136719 L 13.921875 17.175781 C 13.910156 17.179688 13.894531 17.175781 13.890625 17.167969 L 13.839844 16.925781 L 13.949219 16.898438 C 13.96875 16.898438 13.996094 16.898438 14.003906 16.914062 L 14.03125 16.972656 L 14.082031 16.960938 L 14.042969 16.765625 L 13.988281 16.777344 L 13.984375 16.828125 C 13.984375 16.84375 13.960938 16.863281 13.941406 16.867188 L 13.832031 16.890625 L 13.785156 16.695312 C 13.785156 16.679688 13.785156 16.65625 13.800781 16.65625 L 13.953125 16.621094 C 13.972656 16.617188 14 16.621094 14.015625 16.636719 L 14.058594 16.699219 L 14.121094 16.6875 L 14.054688 16.558594 Z M 13.519531 16.6875 "/>
<path style=" stroke:none;fill-rule:evenodd;fill:rgb(0%,0%,0%);fill-opacity:1;" d="M 14.585938 16.410156 C 14.5 16.410156 14.417969 16.433594 14.339844 16.46875 C 14.234375 16.523438 14.183594 16.578125 14.171875 16.621094 C 14.167969 16.652344 14.171875 16.679688 14.183594 16.707031 C 14.210938 16.742188 14.246094 16.765625 14.285156 16.773438 C 14.347656 16.789062 14.410156 16.800781 14.476562 16.800781 C 14.5625 16.8125 14.644531 16.832031 14.644531 16.910156 C 14.648438 16.980469 14.585938 17.011719 14.53125 17.03125 C 14.507812 17.042969 14.480469 17.046875 14.449219 17.039062 C 14.394531 17.027344 14.347656 16.996094 14.3125 16.953125 L 14.253906 16.992188 L 14.335938 17.105469 C 14.40625 17.101562 14.476562 17.089844 14.546875 17.066406 C 14.667969 17.023438 14.789062 16.964844 14.789062 16.847656 C 14.789062 16.75 14.714844 16.714844 14.625 16.695312 C 14.535156 16.679688 14.445312 16.679688 14.359375 16.65625 C 14.328125 16.644531 14.308594 16.621094 14.304688 16.585938 C 14.300781 16.53125 14.351562 16.496094 14.398438 16.480469 C 14.4375 16.464844 14.484375 16.460938 14.519531 16.472656 C 14.554688 16.484375 14.574219 16.53125 14.59375 16.546875 L 14.65625 16.523438 Z M 14.585938 16.410156 "/>
<path style=" stroke:none;fill-rule:evenodd;fill:rgb(0%,0%,0%);fill-opacity:1;" d="M 14.652344 16.375 L 15.191406 16.160156 L 15.28125 16.292969 L 15.214844 16.316406 L 15.167969 16.257812 C 15.152344 16.238281 15.121094 16.230469 15.097656 16.238281 L 15.015625 16.273438 L 15.210938 16.738281 C 15.21875 16.753906 15.238281 16.761719 15.253906 16.753906 L 15.308594 16.734375 L 15.320312 16.761719 L 14.980469 16.902344 L 14.96875 16.875 L 15.015625 16.851562 C 15.066406 16.828125 15.050781 16.796875 15.03125 16.757812 L 14.863281 16.34375 L 14.777344 16.378906 C 14.730469 16.398438 14.730469 16.425781 14.738281 16.5 L 14.679688 16.523438 Z M 14.652344 16.375 "/>
<path style=" stroke:none;fill-rule:evenodd;fill:rgb(0%,0%,0%);fill-opacity:1;" d="M 16.699219 15.417969 L 17.230469 15.191406 L 17.332031 15.324219 L 17.269531 15.351562 L 17.21875 15.292969 C 17.203125 15.273438 17.171875 15.265625 17.148438 15.277344 L 17.066406 15.3125 L 17.273438 15.769531 C 17.28125 15.785156 17.304688 15.789062 17.316406 15.789062 L 17.371094 15.765625 L 17.382812 15.789062 L 17.046875 15.9375 L 17.03125 15.910156 L 17.082031 15.882812 C 17.132812 15.859375 17.113281 15.828125 17.097656 15.789062 L 16.921875 15.378906 L 16.832031 15.414062 C 16.789062 15.433594 16.789062 15.460938 16.796875 15.539062 L 16.738281 15.5625 Z M 16.699219 15.417969 "/>
<path style=" stroke:none;fill-rule:evenodd;fill:rgb(0%,0%,0%);fill-opacity:1;" d="M 15.503906 16.027344 L 15.828125 15.859375 L 15.847656 15.894531 C 15.824219 15.910156 15.800781 15.921875 15.777344 15.941406 C 15.761719 15.957031 15.769531 15.972656 15.777344 15.996094 L 15.988281 16.402344 C 15.996094 16.414062 16.011719 16.410156 16.023438 16.410156 L 16.183594 16.328125 C 16.203125 16.3125 16.21875 16.289062 16.214844 16.265625 C 16.210938 16.242188 16.210938 16.222656 16.203125 16.199219 L 16.261719 16.164062 L 16.292969 16.320312 L 15.777344 16.582031 L 15.753906 16.546875 L 15.8125 16.515625 C 15.828125 16.503906 15.835938 16.480469 15.824219 16.460938 L 15.636719 16.070312 C 15.625 16.046875 15.621094 16.03125 15.597656 16.03125 C 15.570312 16.035156 15.546875 16.046875 15.523438 16.0625 Z M 15.503906 16.027344 "/>
<path style=" stroke:none;fill-rule:evenodd;fill:rgb(0%,0%,0%);fill-opacity:1;" d="M 16.335938 15.582031 C 16.261719 15.628906 16.195312 15.6875 16.175781 15.789062 C 16.160156 15.871094 16.179688 15.953125 16.222656 16.019531 C 16.273438 16.097656 16.34375 16.171875 16.433594 16.1875 C 16.519531 16.199219 16.609375 16.179688 16.679688 16.128906 C 16.753906 16.082031 16.828125 16.015625 16.847656 15.929688 C 16.871094 15.851562 16.828125 15.746094 16.785156 15.679688 C 16.722656 15.601562 16.675781 15.53125 16.554688 15.523438 C 16.476562 15.519531 16.402344 15.542969 16.335938 15.582031 Z M 16.371094 15.613281 C 16.335938 15.636719 16.3125 15.671875 16.304688 15.714844 C 16.3125 15.792969 16.335938 15.871094 16.375 15.9375 C 16.410156 16.007812 16.46875 16.070312 16.535156 16.109375 C 16.570312 16.125 16.617188 16.121094 16.652344 16.097656 C 16.695312 16.070312 16.71875 16.015625 16.710938 15.964844 C 16.707031 15.898438 16.671875 15.839844 16.632812 15.785156 C 16.59375 15.71875 16.550781 15.648438 16.484375 15.605469 C 16.453125 15.582031 16.40625 15.59375 16.371094 15.613281 Z M 16.371094 15.613281 "/>
<path style=" stroke:none;fill-rule:evenodd;fill:rgb(0%,0%,0%);fill-opacity:1;" d="M 17.289062 15.175781 L 17.597656 15.058594 L 17.613281 15.085938 C 17.59375 15.097656 17.566406 15.105469 17.554688 15.125 C 17.550781 15.140625 17.554688 15.15625 17.558594 15.167969 L 17.628906 15.339844 L 17.882812 15.238281 L 17.808594 15.054688 C 17.804688 15.039062 17.785156 15.027344 17.765625 15.03125 L 17.738281 15.046875 L 17.722656 15.015625 L 18.023438 14.898438 L 18.039062 14.933594 C 18.015625 14.945312 17.980469 14.957031 17.976562 14.980469 C 17.972656 15 17.976562 15.023438 17.984375 15.042969 L 18.125 15.417969 C 18.132812 15.433594 18.148438 15.449219 18.164062 15.453125 C 18.1875 15.457031 18.210938 15.453125 18.226562 15.441406 L 18.238281 15.472656 L 17.933594 15.589844 L 17.917969 15.558594 C 17.9375 15.550781 17.957031 15.542969 17.964844 15.523438 C 17.972656 15.507812 17.976562 15.496094 17.96875 15.480469 L 17.898438 15.28125 L 17.640625 15.382812 L 17.71875 15.59375 C 17.730469 15.617188 17.765625 15.605469 17.789062 15.597656 L 17.804688 15.628906 L 17.503906 15.75 L 17.488281 15.714844 L 17.539062 15.691406 C 17.558594 15.679688 17.566406 15.65625 17.558594 15.632812 L 17.394531 15.21875 C 17.386719 15.203125 17.367188 15.191406 17.347656 15.191406 C 17.332031 15.199219 17.3125 15.203125 17.292969 15.210938 Z M 17.289062 15.175781 "/>
<path style=" stroke:none;fill-rule:evenodd;fill:rgb(0%,0%,0%);fill-opacity:1;" d="M 18.082031 14.875 L 18.09375 14.910156 C 18.113281 14.90625 18.132812 14.902344 18.152344 14.90625 C 18.171875 14.910156 18.199219 14.917969 18.207031 14.933594 L 18.34375 15.335938 C 18.351562 15.355469 18.351562 15.386719 18.335938 15.398438 C 18.3125 15.410156 18.289062 15.421875 18.261719 15.433594 L 18.277344 15.460938 L 18.625 15.351562 L 18.613281 15.316406 C 18.589844 15.324219 18.566406 15.332031 18.539062 15.332031 C 18.523438 15.328125 18.511719 15.316406 18.507812 15.300781 L 18.367188 14.882812 C 18.363281 14.863281 18.367188 14.847656 18.382812 14.835938 C 18.402344 14.820312 18.425781 14.808594 18.453125 14.796875 L 18.441406 14.761719 Z M 18.082031 14.875 "/>
<path style=" stroke:none;fill-rule:evenodd;fill:rgb(0%,0%,0%);fill-opacity:1;" d="M 18.828125 14.785156 L 18.78125 15.074219 L 19.015625 15.015625 Z M 18.777344 14.664062 L 18.882812 14.632812 L 19.292969 15.105469 C 19.304688 15.117188 19.320312 15.125 19.339844 15.125 C 19.347656 15.125 19.359375 15.121094 19.371094 15.117188 L 19.375 15.144531 L 19.078125 15.230469 L 19.070312 15.203125 L 19.109375 15.1875 C 19.121094 15.179688 19.128906 15.167969 19.121094 15.15625 C 19.121094 15.15625 19.121094 15.152344 19.121094 15.152344 L 19.035156 15.050781 L 18.773438 15.117188 L 18.757812 15.246094 C 18.757812 15.257812 18.765625 15.269531 18.777344 15.273438 C 18.789062 15.277344 18.804688 15.277344 18.816406 15.269531 L 18.824219 15.296875 L 18.621094 15.355469 L 18.609375 15.320312 L 18.652344 15.304688 C 18.671875 15.296875 18.6875 15.277344 18.6875 15.253906 Z M 18.777344 14.664062 "/>
<path style=" stroke:none;fill-rule:evenodd;fill:rgb(0%,0%,0%);fill-opacity:1;" d="M 19.273438 14.550781 L 19.527344 14.515625 L 19.945312 14.9375 L 19.894531 14.558594 C 19.894531 14.542969 19.882812 14.523438 19.867188 14.515625 C 19.84375 14.503906 19.8125 14.5 19.789062 14.507812 L 19.785156 14.476562 L 20.039062 14.445312 L 20.042969 14.476562 C 20.015625 14.476562 19.992188 14.484375 19.972656 14.496094 C 19.957031 14.507812 19.960938 14.53125 19.964844 14.550781 L 20.03125 15.070312 L 19.917969 15.085938 L 19.453125 14.636719 L 19.507812 15.070312 C 19.511719 15.085938 19.539062 15.09375 19.554688 15.09375 L 19.597656 15.09375 L 19.601562 15.121094 L 19.378906 15.152344 L 19.375 15.125 C 19.394531 15.125 19.40625 15.117188 19.421875 15.109375 C 19.433594 15.097656 19.441406 15.082031 19.4375 15.070312 L 19.378906 14.628906 C 19.375 14.609375 19.363281 14.59375 19.347656 14.582031 C 19.324219 14.578125 19.300781 14.578125 19.277344 14.582031 Z M 19.273438 14.550781 "/>
<path style=" stroke:none;fill-rule:evenodd;fill:rgb(0%,0%,0%);fill-opacity:1;" d="M 18.605469 8.039062 C 18.570312 8.039062 18.535156 8.027344 18.503906 8.011719 C 18.476562 7.996094 18.453125 7.972656 18.4375 7.945312 C 18.421875 7.914062 18.410156 7.886719 18.402344 7.855469 C 18.398438 7.8125 18.394531 7.773438 18.398438 7.734375 C 18.398438 7.691406 18.398438 7.648438 18.414062 7.609375 C 18.417969 7.574219 18.433594 7.539062 18.453125 7.507812 C 18.476562 7.476562 18.503906 7.453125 18.535156 7.433594 C 18.574219 7.417969 18.609375 7.410156 18.648438 7.410156 C 18.699219 7.40625 18.753906 7.421875 18.800781 7.445312 L 18.8125 7.601562 L 18.769531 7.601562 C 18.773438 7.570312 18.761719 7.535156 18.75 7.503906 C 18.738281 7.472656 18.710938 7.453125 18.675781 7.453125 C 18.636719 7.449219 18.585938 7.5 18.5625 7.546875 C 18.535156 7.589844 18.53125 7.648438 18.523438 7.734375 C 18.523438 7.773438 18.523438 7.816406 18.53125 7.855469 C 18.535156 7.882812 18.542969 7.910156 18.558594 7.933594 C 18.566406 7.953125 18.578125 7.96875 18.59375 7.980469 C 18.613281 7.996094 18.632812 8.003906 18.65625 8.007812 C 18.683594 8.007812 18.710938 7.996094 18.722656 7.972656 C 18.746094 7.945312 18.761719 7.914062 18.769531 7.882812 L 18.816406 7.898438 C 18.808594 7.925781 18.796875 7.949219 18.78125 7.96875 C 18.769531 7.988281 18.753906 8 18.734375 8.011719 C 18.722656 8.027344 18.703125 8.035156 18.683594 8.039062 C 18.65625 8.039062 18.628906 8.039062 18.605469 8.039062 Z M 18.605469 8.039062 "/>
<path style=" stroke:none;fill-rule:evenodd;fill:rgb(0%,0%,0%);fill-opacity:1;" d="M 18.1875 7.539062 L 18.148438 7.539062 C 18.144531 7.519531 18.140625 7.5 18.132812 7.488281 C 18.117188 7.460938 18.109375 7.445312 18.09375 7.441406 L 17.964844 7.441406 L 17.964844 7.683594 L 18.015625 7.683594 C 18.027344 7.683594 18.039062 7.683594 18.050781 7.683594 C 18.074219 7.675781 18.078125 7.652344 18.078125 7.628906 C 18.078125 7.617188 18.082031 7.609375 18.082031 7.597656 L 18.125 7.597656 L 18.125 7.804688 L 18.089844 7.804688 C 18.089844 7.78125 18.089844 7.761719 18.078125 7.738281 C 18.074219 7.730469 18.0625 7.722656 18.050781 7.71875 C 18.039062 7.71875 18.027344 7.71875 18.015625 7.71875 L 17.964844 7.71875 L 17.96875 7.929688 C 17.96875 7.9375 17.972656 7.945312 17.976562 7.953125 C 17.976562 7.964844 17.984375 7.96875 17.992188 7.972656 C 18 7.976562 18.003906 7.976562 18.015625 7.976562 C 18.023438 7.980469 18.035156 7.980469 18.042969 7.980469 L 18.042969 8.011719 L 17.777344 8.015625 L 17.777344 7.984375 L 17.800781 7.980469 C 17.808594 7.980469 17.816406 7.976562 17.824219 7.976562 C 17.832031 7.972656 17.839844 7.964844 17.84375 7.960938 C 17.847656 7.953125 17.851562 7.941406 17.851562 7.933594 L 17.851562 7.492188 C 17.851562 7.484375 17.851562 7.476562 17.84375 7.46875 C 17.839844 7.460938 17.835938 7.453125 17.828125 7.453125 C 17.816406 7.449219 17.8125 7.445312 17.804688 7.441406 C 17.792969 7.441406 17.785156 7.441406 17.777344 7.4375 L 17.777344 7.402344 L 18.164062 7.402344 Z M 18.1875 7.539062 "/>
<path style=" stroke:none;fill-rule:evenodd;fill:rgb(0%,0%,0%);fill-opacity:1;" d="M 16.769531 7.964844 C 16.777344 7.933594 16.777344 7.902344 16.78125 7.871094 C 16.78125 7.835938 16.78125 7.800781 16.773438 7.765625 C 16.769531 7.734375 16.765625 7.699219 16.757812 7.667969 C 16.75 7.636719 16.738281 7.609375 16.726562 7.585938 C 16.71875 7.5625 16.707031 7.542969 16.6875 7.523438 C 16.671875 7.511719 16.648438 7.503906 16.621094 7.507812 C 16.585938 7.511719 16.558594 7.546875 16.542969 7.597656 C 16.527344 7.648438 16.53125 7.710938 16.539062 7.796875 C 16.542969 7.832031 16.546875 7.867188 16.558594 7.902344 C 16.5625 7.929688 16.570312 7.957031 16.582031 7.984375 C 16.589844 8.007812 16.601562 8.027344 16.621094 8.042969 C 16.636719 8.054688 16.660156 8.0625 16.683594 8.0625 C 16.707031 8.058594 16.726562 8.046875 16.742188 8.03125 C 16.753906 8.011719 16.765625 7.988281 16.769531 7.964844 Z M 16.808594 7.527344 C 16.835938 7.554688 16.855469 7.585938 16.871094 7.621094 C 16.886719 7.660156 16.898438 7.707031 16.90625 7.746094 C 16.910156 7.789062 16.90625 7.832031 16.902344 7.871094 C 16.894531 7.910156 16.886719 7.945312 16.871094 7.980469 C 16.859375 8.011719 16.832031 8.042969 16.800781 8.0625 C 16.765625 8.085938 16.726562 8.097656 16.6875 8.097656 C 16.652344 8.101562 16.617188 8.097656 16.582031 8.085938 C 16.546875 8.074219 16.519531 8.054688 16.496094 8.027344 C 16.472656 8 16.453125 7.972656 16.441406 7.9375 C 16.429688 7.898438 16.421875 7.855469 16.417969 7.816406 C 16.410156 7.769531 16.410156 7.726562 16.414062 7.683594 C 16.417969 7.644531 16.429688 7.609375 16.449219 7.574219 C 16.484375 7.515625 16.546875 7.476562 16.621094 7.46875 C 16.65625 7.464844 16.6875 7.46875 16.722656 7.480469 C 16.753906 7.488281 16.785156 7.503906 16.808594 7.527344 Z M 16.808594 7.527344 "/>
<path style=" stroke:none;fill-rule:evenodd;fill:rgb(0%,0%,0%);fill-opacity:1;" d="M 16.386719 7.65625 L 16.351562 7.660156 C 16.34375 7.636719 16.34375 7.628906 16.328125 7.601562 C 16.320312 7.582031 16.300781 7.566406 16.28125 7.5625 C 16.273438 7.5625 16.261719 7.5625 16.253906 7.5625 C 16.238281 7.5625 16.222656 7.566406 16.210938 7.570312 L 16.265625 8.03125 C 16.265625 8.039062 16.269531 8.050781 16.273438 8.058594 C 16.277344 8.0625 16.285156 8.085938 16.292969 8.085938 C 16.300781 8.089844 16.308594 8.089844 16.316406 8.089844 C 16.328125 8.089844 16.339844 8.089844 16.351562 8.089844 L 16.355469 8.125 L 16.085938 8.160156 L 16.085938 8.125 L 16.113281 8.121094 C 16.121094 8.117188 16.125 8.113281 16.136719 8.109375 C 16.140625 8.105469 16.148438 8.097656 16.148438 8.089844 C 16.152344 8.074219 16.152344 8.0625 16.148438 8.050781 L 16.085938 7.585938 C 16.074219 7.585938 16.058594 7.589844 16.042969 7.59375 C 16.035156 7.597656 16.023438 7.597656 16.011719 7.597656 C 16 7.601562 15.988281 7.609375 15.980469 7.640625 C 15.976562 7.664062 15.972656 7.683594 15.976562 7.707031 L 15.9375 7.710938 L 15.921875 7.5625 L 16.371094 7.511719 Z M 16.386719 7.65625 "/>
<path style=" stroke:none;fill-rule:evenodd;fill:rgb(0%,0%,0%);fill-opacity:1;" d="M 15.800781 8.207031 C 15.777344 8.214844 15.75 8.222656 15.726562 8.222656 C 15.6875 8.230469 15.652344 8.234375 15.613281 8.230469 L 15.558594 8.09375 L 15.609375 8.085938 C 15.617188 8.109375 15.632812 8.132812 15.648438 8.148438 C 15.667969 8.167969 15.695312 8.179688 15.722656 8.179688 C 15.742188 8.183594 15.765625 8.179688 15.785156 8.171875 C 15.808594 8.160156 15.828125 8.144531 15.84375 8.121094 C 15.851562 8.097656 15.855469 8.074219 15.851562 8.050781 C 15.847656 8.027344 15.835938 8.011719 15.816406 8 C 15.796875 7.984375 15.777344 7.96875 15.75 7.957031 C 15.734375 7.949219 15.714844 7.941406 15.699219 7.9375 L 15.648438 7.921875 C 15.621094 7.914062 15.59375 7.902344 15.574219 7.882812 C 15.542969 7.867188 15.515625 7.839844 15.503906 7.804688 C 15.492188 7.78125 15.492188 7.75 15.496094 7.722656 C 15.5 7.695312 15.511719 7.671875 15.527344 7.65625 C 15.546875 7.636719 15.566406 7.621094 15.589844 7.609375 C 15.613281 7.601562 15.640625 7.59375 15.667969 7.589844 C 15.695312 7.585938 15.722656 7.582031 15.75 7.582031 C 15.769531 7.582031 15.800781 7.582031 15.820312 7.582031 L 15.863281 7.703125 L 15.8125 7.714844 C 15.804688 7.695312 15.800781 7.679688 15.789062 7.664062 C 15.777344 7.648438 15.757812 7.636719 15.738281 7.625 C 15.722656 7.621094 15.703125 7.617188 15.6875 7.621094 C 15.660156 7.628906 15.636719 7.640625 15.613281 7.660156 C 15.597656 7.679688 15.589844 7.707031 15.597656 7.734375 C 15.605469 7.757812 15.625 7.78125 15.648438 7.792969 C 15.667969 7.804688 15.695312 7.816406 15.71875 7.824219 C 15.738281 7.828125 15.753906 7.84375 15.777344 7.847656 C 15.792969 7.855469 15.8125 7.863281 15.832031 7.871094 C 15.859375 7.878906 15.882812 7.890625 15.902344 7.910156 C 15.925781 7.929688 15.9375 7.957031 15.949219 7.984375 C 15.957031 8.007812 15.960938 8.03125 15.957031 8.058594 C 15.953125 8.082031 15.945312 8.101562 15.929688 8.121094 C 15.914062 8.140625 15.902344 8.160156 15.878906 8.171875 C 15.855469 8.191406 15.828125 8.203125 15.800781 8.207031 Z M 15.800781 8.207031 "/>
<path style=" stroke:none;fill-rule:evenodd;fill:rgb(0%,0%,0%);fill-opacity:1;" d="M 15.535156 8.039062 L 15.515625 8.046875 C 15.511719 8.050781 15.503906 8.050781 15.5 8.058594 C 15.492188 8.0625 15.488281 8.070312 15.488281 8.078125 C 15.492188 8.113281 15.5 8.148438 15.511719 8.183594 L 15.515625 8.214844 C 15.492188 8.242188 15.460938 8.265625 15.429688 8.28125 C 15.390625 8.292969 15.351562 8.304688 15.316406 8.3125 C 15.277344 8.320312 15.242188 8.324219 15.203125 8.320312 C 15.171875 8.3125 15.140625 8.296875 15.117188 8.277344 C 15.09375 8.257812 15.074219 8.234375 15.058594 8.203125 C 15.035156 8.164062 15.015625 8.125 15.007812 8.078125 C 15 8.039062 14.992188 7.992188 14.996094 7.953125 C 15 7.914062 15.007812 7.878906 15.023438 7.84375 C 15.042969 7.804688 15.066406 7.769531 15.101562 7.746094 C 15.128906 7.71875 15.15625 7.707031 15.191406 7.691406 C 15.214844 7.683594 15.238281 7.675781 15.265625 7.675781 C 15.300781 7.671875 15.335938 7.675781 15.371094 7.683594 C 15.394531 7.730469 15.414062 7.777344 15.425781 7.828125 L 15.378906 7.84375 C 15.355469 7.78125 15.339844 7.757812 15.316406 7.738281 C 15.289062 7.714844 15.246094 7.710938 15.214844 7.730469 C 15.171875 7.746094 15.144531 7.78125 15.132812 7.824219 C 15.121094 7.894531 15.125 7.964844 15.140625 8.039062 C 15.160156 8.125 15.1875 8.183594 15.226562 8.222656 C 15.265625 8.265625 15.28125 8.269531 15.316406 8.269531 C 15.335938 8.269531 15.351562 8.269531 15.367188 8.257812 C 15.378906 8.253906 15.390625 8.242188 15.402344 8.230469 L 15.378906 8.109375 C 15.378906 8.097656 15.351562 8.09375 15.347656 8.09375 C 15.339844 8.089844 15.328125 8.089844 15.320312 8.089844 C 15.3125 8.089844 15.304688 8.089844 15.292969 8.089844 L 15.289062 8.058594 L 15.527344 8.007812 Z M 15.535156 8.039062 "/>
<path style=" stroke:none;fill-rule:evenodd;fill:rgb(0%,0%,0%);fill-opacity:1;" d="M 14.929688 7.792969 L 14.902344 7.804688 C 14.890625 7.808594 14.878906 7.816406 14.875 7.824219 C 14.867188 7.835938 14.863281 7.851562 14.867188 7.867188 C 14.867188 7.894531 14.867188 7.925781 14.875 7.953125 L 14.957031 8.371094 L 14.878906 8.386719 L 14.511719 8 L 14.558594 8.273438 C 14.5625 8.300781 14.570312 8.324219 14.582031 8.347656 C 14.585938 8.363281 14.59375 8.375 14.605469 8.382812 C 14.613281 8.390625 14.621094 8.390625 14.632812 8.394531 C 14.648438 8.398438 14.65625 8.398438 14.667969 8.398438 L 14.671875 8.429688 L 14.464844 8.46875 L 14.457031 8.4375 C 14.46875 8.433594 14.476562 8.429688 14.484375 8.425781 C 14.496094 8.417969 14.503906 8.414062 14.507812 8.402344 C 14.515625 8.390625 14.519531 8.378906 14.515625 8.367188 C 14.511719 8.339844 14.507812 8.308594 14.503906 8.28125 C 14.496094 8.253906 14.441406 7.929688 14.433594 7.914062 C 14.429688 7.90625 14.421875 7.898438 14.40625 7.898438 C 14.394531 7.894531 14.378906 7.890625 14.363281 7.890625 L 14.359375 7.859375 L 14.539062 7.828125 L 14.859375 8.179688 L 14.820312 7.960938 C 14.820312 7.929688 14.808594 7.902344 14.804688 7.878906 C 14.796875 7.863281 14.789062 7.851562 14.78125 7.84375 C 14.769531 7.835938 14.757812 7.835938 14.742188 7.832031 C 14.730469 7.832031 14.722656 7.832031 14.710938 7.832031 L 14.707031 7.800781 L 14.929688 7.757812 Z M 14.929688 7.792969 "/>
<path style=" stroke:none;fill-rule:evenodd;fill:rgb(0%,0%,0%);fill-opacity:1;" d="M 17.492188 7.449219 C 17.484375 7.449219 17.476562 7.453125 17.464844 7.453125 C 17.453125 7.457031 17.441406 7.464844 17.433594 7.472656 C 17.425781 7.484375 17.417969 7.5 17.417969 7.511719 C 17.417969 7.542969 17.417969 7.574219 17.417969 7.597656 L 17.453125 8.027344 L 17.375 8.035156 L 17.050781 7.609375 L 17.066406 7.890625 C 17.066406 7.914062 17.070312 7.941406 17.078125 7.964844 C 17.082031 7.980469 17.089844 7.992188 17.097656 8.003906 C 17.105469 8.011719 17.117188 8.015625 17.128906 8.019531 C 17.140625 8.023438 17.148438 8.027344 17.160156 8.027344 L 17.164062 8.058594 L 16.953125 8.074219 L 16.949219 8.039062 C 16.957031 8.039062 16.96875 8.035156 16.980469 8.03125 C 16.988281 8.027344 16.996094 8.023438 17.003906 8.011719 C 17.011719 8 17.015625 7.988281 17.015625 7.976562 C 17.015625 7.953125 17.015625 7.921875 17.011719 7.894531 C 17.007812 7.867188 16.992188 7.539062 16.984375 7.523438 C 16.980469 7.515625 16.96875 7.507812 16.957031 7.503906 C 16.945312 7.5 16.929688 7.496094 16.914062 7.492188 L 16.910156 7.460938 L 17.09375 7.449219 L 17.375 7.832031 L 17.355469 7.609375 C 17.355469 7.582031 17.355469 7.554688 17.347656 7.523438 C 17.34375 7.511719 17.335938 7.5 17.328125 7.488281 C 17.316406 7.480469 17.304688 7.476562 17.292969 7.476562 C 17.28125 7.472656 17.269531 7.46875 17.257812 7.46875 L 17.257812 7.4375 L 17.484375 7.417969 Z M 17.492188 7.449219 "/>
<path style=" stroke:none;fill-rule:evenodd;fill:rgb(0%,0%,0%);fill-opacity:1;" d="M 13.566406 8.605469 L 13.28125 8.625 L 13.277344 8.59375 C 13.285156 8.59375 13.300781 8.589844 13.3125 8.589844 C 13.324219 8.589844 13.332031 8.589844 13.339844 8.578125 C 13.351562 8.554688 13.355469 8.527344 13.351562 8.5 L 13.316406 8.097656 C 13.316406 8.085938 13.316406 8.074219 13.3125 8.0625 C 13.300781 8.054688 13.285156 8.050781 13.269531 8.050781 C 13.257812 8.050781 13.25 8.050781 13.238281 8.050781 L 13.238281 8.011719 L 13.496094 8 L 13.5 8.027344 C 13.488281 8.027344 13.476562 8.03125 13.464844 8.03125 C 13.4375 8.039062 13.4375 8.050781 13.4375 8.085938 L 13.46875 8.519531 C 13.46875 8.539062 13.476562 8.550781 13.488281 8.5625 C 13.5 8.574219 13.515625 8.574219 13.53125 8.574219 L 13.5625 8.574219 Z M 13.566406 8.605469 "/>
<path style=" stroke:none;fill-rule:evenodd;fill:rgb(0%,0%,0%);fill-opacity:1;" d="M 14.441406 8.484375 L 14.160156 8.527344 L 14.152344 8.492188 C 14.160156 8.492188 14.171875 8.488281 14.183594 8.488281 C 14.195312 8.484375 14.207031 8.484375 14.214844 8.476562 C 14.226562 8.453125 14.226562 8.421875 14.21875 8.398438 L 14.15625 7.996094 C 14.15625 7.984375 14.152344 7.976562 14.148438 7.964844 C 14.136719 7.953125 14.121094 7.949219 14.109375 7.953125 C 14.097656 7.953125 14.085938 7.953125 14.078125 7.953125 L 14.074219 7.917969 L 14.328125 7.886719 L 14.332031 7.914062 C 14.320312 7.917969 14.308594 7.917969 14.296875 7.921875 C 14.269531 7.929688 14.269531 7.941406 14.273438 7.976562 L 14.332031 8.40625 C 14.332031 8.425781 14.34375 8.441406 14.359375 8.449219 C 14.371094 8.453125 14.386719 8.457031 14.402344 8.453125 C 14.414062 8.453125 14.425781 8.453125 14.433594 8.453125 Z M 14.441406 8.484375 "/>
<path style=" stroke:none;fill-rule:evenodd;fill:rgb(0%,0%,0%);fill-opacity:1;" d="M 13.242188 8.488281 C 13.222656 8.535156 13.214844 8.585938 13.214844 8.632812 L 12.789062 8.640625 L 12.789062 8.609375 C 12.796875 8.609375 12.808594 8.609375 12.816406 8.609375 C 12.824219 8.609375 12.832031 8.609375 12.839844 8.601562 C 12.84375 8.597656 12.851562 8.59375 12.855469 8.585938 C 12.855469 8.578125 12.855469 8.570312 12.855469 8.5625 L 12.839844 8.117188 C 12.839844 8.109375 12.839844 8.097656 12.835938 8.09375 C 12.832031 8.085938 12.824219 8.078125 12.816406 8.074219 C 12.8125 8.074219 12.804688 8.070312 12.792969 8.070312 C 12.785156 8.070312 12.773438 8.070312 12.765625 8.070312 L 12.765625 8.039062 L 13.03125 8.027344 L 13.03125 8.0625 C 13.023438 8.0625 13.015625 8.0625 13.003906 8.0625 C 12.996094 8.0625 12.988281 8.0625 12.976562 8.066406 C 12.972656 8.070312 12.964844 8.078125 12.964844 8.085938 C 12.960938 8.09375 12.960938 8.101562 12.960938 8.109375 L 12.972656 8.527344 C 12.972656 8.539062 12.972656 8.558594 12.972656 8.574219 C 12.972656 8.582031 12.976562 8.589844 12.988281 8.597656 C 12.996094 8.597656 13.003906 8.597656 13.015625 8.597656 C 13.027344 8.597656 13.046875 8.597656 13.066406 8.597656 C 13.082031 8.597656 13.09375 8.597656 13.113281 8.597656 C 13.128906 8.597656 13.140625 8.597656 13.152344 8.585938 C 13.164062 8.574219 13.175781 8.5625 13.183594 8.539062 C 13.1875 8.527344 13.195312 8.507812 13.199219 8.488281 Z M 13.242188 8.488281 "/>
<path style=" stroke:none;fill-rule:evenodd;fill:rgb(0%,0%,0%);fill-opacity:1;" d="M 13.488281 7.996094 L 13.488281 8.03125 L 13.539062 8.027344 C 13.554688 8.027344 13.566406 8.03125 13.574219 8.050781 L 13.828125 8.574219 L 13.914062 8.5625 L 14.015625 7.988281 C 14.019531 7.972656 14.03125 7.964844 14.058594 7.964844 L 14.058594 7.933594 L 13.910156 7.941406 L 13.910156 7.972656 L 13.945312 7.972656 C 13.964844 7.96875 13.96875 7.980469 13.960938 8.003906 L 13.886719 8.429688 L 13.691406 8.039062 C 13.6875 8.027344 13.6875 8.011719 13.699219 8.011719 L 13.742188 8.003906 L 13.738281 7.972656 Z M 13.488281 7.996094 "/>
<path style=" stroke:none;fill-rule:evenodd;fill:rgb(0%,0%,0%);fill-opacity:1;" d="M 18.25 8.027344 C 18.214844 8.027344 18.1875 8 18.1875 7.964844 C 18.1875 7.933594 18.214844 7.90625 18.25 7.90625 C 18.28125 7.90625 18.308594 7.933594 18.308594 7.964844 C 18.308594 8 18.28125 8.027344 18.25 8.027344 Z M 18.25 8.027344 "/>
<path style=" stroke:none;fill-rule:evenodd;fill:rgb(0%,0%,0%);fill-opacity:1;" d="M 18.921875 8.074219 C 18.886719 8.074219 18.859375 8.046875 18.859375 8.011719 C 18.859375 7.980469 18.886719 7.953125 18.921875 7.953125 C 18.953125 7.953125 18.980469 7.980469 18.980469 8.011719 C 18.980469 8.046875 18.953125 8.074219 18.921875 8.074219 Z M 18.921875 8.074219 "/>
<path style=" stroke:none;fill-rule:evenodd;fill:rgb(100%,80%,0%);fill-opacity:1;" d="M 18.585938 8.464844 L 18.585938 9.222656 C 18.683594 9.226562 19.144531 9.125 19.140625 8.777344 C 19.136719 8.5 18.785156 8.476562 18.585938 8.464844 Z M 18.585938 8.464844 "/>
<path style=" stroke:none;fill-rule:evenodd;fill:rgb(100%,80%,0%);fill-opacity:1;" d="M 13.273438 6.863281 C 13.082031 6.886719 12.703125 6.914062 12.480469 7.238281 C 12.332031 7.472656 12.324219 7.636719 12.316406 7.90625 C 12.316406 7.90625 11.628906 7.972656 11.191406 7.710938 C 11.191406 7.710938 11.921875 7.71875 11.9375 7.402344 C 11.875 7.324219 11.660156 7.269531 11.535156 7.246094 C 11.347656 7.207031 11.074219 6.957031 11.164062 6.851562 C 11.335938 6.882812 11.324219 6.910156 11.75 6.878906 C 12.453125 6.835938 12.972656 6.527344 13.273438 6.863281 Z M 13.273438 6.863281 "/>
<path style=" stroke:none;fill-rule:evenodd;fill:rgb(100%,80%,0%);fill-opacity:1;" d="M 18.820312 11.347656 L 18.671875 11.246094 L 18.53125 11.4375 C 18.527344 11.164062 18.488281 10.886719 18.421875 10.621094 L 18.519531 10.265625 L 18.351562 10.222656 L 18.332031 10.296875 C 18.3125 10.265625 18.230469 10.015625 18.09375 9.796875 L 18.101562 9.402344 L 17.929688 9.394531 L 17.925781 9.507812 C 17.925781 9.507812 17.738281 9.234375 17.605469 9.105469 L 17.480469 9.234375 C 17.597656 9.355469 17.703125 9.492188 17.800781 9.636719 L 17.53125 9.515625 L 17.449219 9.679688 L 17.957031 9.894531 C 18.039062 10.050781 18.109375 10.214844 18.167969 10.382812 L 18.066406 10.324219 L 17.984375 10.488281 L 18.242188 10.601562 C 18.242188 10.601562 18.375 11.09375 18.359375 11.46875 L 18.222656 11.289062 C 18.195312 11.347656 18.15625 11.394531 18.105469 11.429688 L 18.339844 11.742188 C 18.339844 11.742188 18.277344 12.433594 18.019531 12.773438 L 17.980469 12.445312 L 17.804688 12.46875 L 17.867188 13.019531 C 17.867188 13.019531 17.679688 13.332031 17.433594 13.539062 L 17.429688 13.164062 L 17.257812 13.164062 L 17.257812 13.6875 C 17.09375 13.824219 16.90625 13.929688 16.703125 13.996094 L 16.800781 13.632812 L 16.621094 13.578125 L 16.515625 14.042969 L 16.277344 14.058594 C 16.277344 14.125 16.28125 14.191406 16.292969 14.253906 L 16.605469 14.203125 L 17.058594 14.347656 L 17.125 14.175781 C 17.050781 14.152344 16.972656 14.132812 16.898438 14.101562 C 17.089844 14.023438 17.265625 13.917969 17.417969 13.789062 L 17.90625 13.738281 L 17.902344 13.5625 L 17.636719 13.585938 C 17.636719 13.585938 17.910156 13.3125 18.03125 13.09375 L 18.472656 12.894531 L 18.398438 12.742188 L 18.191406 12.835938 C 18.328125 12.585938 18.464844 12.347656 18.511719 11.785156 Z M 16.199219 14.261719 C 16.183594 14.15625 16.1875 14.167969 16.1875 14.054688 C 16.199219 13.976562 16.199219 13.898438 16.195312 13.824219 C 16.335938 13.769531 16.464844 13.585938 16.742188 13.207031 C 16.839844 13.273438 16.945312 13.464844 17.007812 13.460938 C 17.15625 13.332031 17.339844 12.792969 17.339844 12.792969 C 17.382812 12.863281 17.542969 13.042969 17.542969 13.042969 C 17.679688 12.8125 17.792969 12.117188 17.792969 12.117188 C 17.921875 12.160156 18.078125 12.207031 18.078125 12.207031 C 18.160156 11.796875 17.867188 11.011719 17.867188 11.011719 L 18.191406 11.078125 C 18.144531 10.707031 17.628906 10.25 17.519531 10.140625 L 17.804688 10.078125 C 17.613281 9.882812 17.144531 9.582031 17.144531 9.582031 L 17.097656 9.347656 L 17.40625 9.347656 L 17.300781 8.914062 L 17.78125 8.890625 L 17.863281 9.183594 L 18.082031 9.027344 C 18.347656 9.417969 18.324219 9.992188 18.324219 10.050781 L 18.574219 9.90625 C 18.800781 10.308594 18.75 10.957031 18.75 10.957031 L 19.070312 10.910156 C 19.101562 11.722656 18.738281 12.238281 18.644531 12.40625 L 18.996094 12.40625 C 18.824219 12.910156 18.289062 13.261719 18.242188 13.273438 L 18.515625 13.335938 C 18.242188 13.824219 17.523438 14.066406 17.464844 14.078125 L 17.757812 14.21875 C 17.195312 14.617188 16.546875 14.507812 16.234375 14.34375 C 16.222656 14.328125 16.210938 14.324219 16.199219 14.261719 Z M 16.199219 14.261719 "/>
</g>
</svg>
