<?xml version="1.0" encoding="UTF-8"?>
<svg xmlns="http://www.w3.org/2000/svg" xmlns:xlink="http://www.w3.org/1999/xlink" width="32px" height="32px" viewBox="0 0 32 32" version="1.1">
<g id="surface1">
<path style=" stroke:none;fill-rule:nonzero;fill:rgb(6.666667%,6.666667%,6.666667%);fill-opacity:1;" d="M 16 0 C 7.179688 0 0 7.179688 0 16 C 0 24.820312 7.179688 32 16 32 C 24.820312 32 32 24.820312 32 16 C 32 7.179688 24.820312 0 16 0 "/>
<path style=" stroke:none;fill-rule:nonzero;fill:rgb(100%,40%,0%);fill-opacity:1;" d="M 16 0.519531 C 24.535156 0.519531 31.480469 7.464844 31.480469 16 C 31.480469 24.535156 24.535156 31.480469 16 31.480469 C 7.464844 31.480469 0.519531 24.535156 0.519531 16 C 0.519531 7.464844 7.464844 0.519531 16 0.519531 "/>
<path style=" stroke:none;fill-rule:nonzero;fill:rgb(6.666667%,6.666667%,6.666667%);fill-opacity:1;" d="M 16 4.207031 C 9.496094 4.207031 4.207031 9.496094 4.207031 16 C 4.207031 22.503906 9.496094 27.792969 16 27.792969 C 22.503906 27.792969 27.792969 22.503906 27.792969 16 C 27.792969 9.496094 22.503906 4.207031 16 4.207031 "/>
<path style=" stroke:none;fill-rule:nonzero;fill:rgb(100%,100%,100%);fill-opacity:1;" d="M 16 4.734375 C 22.222656 4.734375 27.265625 9.777344 27.265625 16 C 27.265625 22.222656 22.222656 27.265625 16 27.265625 C 9.777344 27.265625 4.734375 22.222656 4.734375 16 C 4.734375 9.777344 9.777344 4.734375 16 4.734375 "/>
<path style=" stroke:none;fill-rule:nonzero;fill:rgb(6.666667%,6.666667%,6.666667%);fill-opacity:1;" d="M 5.207031 16 C 5.207031 10.039062 10.039062 5.207031 16 5.207031 C 21.960938 5.207031 26.792969 10.039062 26.792969 16 C 26.792969 21.960938 21.960938 26.792969 16 26.792969 C 10.039062 26.792969 5.207031 21.960938 5.207031 16 "/>
<path style=" stroke:none;fill-rule:nonzero;fill:rgb(6.666667%,6.666667%,6.666667%);fill-opacity:1;" d="M 27.496094 16 L 29.613281 13.882812 L 31.730469 16 L 29.613281 18.117188 Z M 27.496094 16 "/>
<path style=" stroke:none;fill-rule:nonzero;fill:rgb(6.666667%,6.666667%,6.666667%);fill-opacity:1;" d="M 0.269531 16 L 2.386719 13.882812 L 4.503906 16 L 2.386719 18.117188 Z M 0.269531 16 "/>
<path style=" stroke:none;fill-rule:nonzero;fill:rgb(100%,100%,100%);fill-opacity:1;" d="M 16 4.441406 L 16 16 L 4.441406 16 Z M 16 4.441406 "/>
<path style=" stroke:none;fill-rule:nonzero;fill:rgb(100%,100%,100%);fill-opacity:1;" d="M 16 27.558594 L 16 16 L 27.558594 16 Z M 16 27.558594 "/>
<path style=" stroke:none;fill-rule:nonzero;fill:rgb(100%,40%,0%);fill-opacity:1;" d="M 4.441406 16 L 16 16 L 16 27.558594 Z M 4.441406 16 "/>
<path style=" stroke:none;fill-rule:nonzero;fill:rgb(100%,40%,0%);fill-opacity:1;" d="M 27.558594 16 L 16 16 L 16 4.441406 Z M 27.558594 16 "/>
<path style=" stroke:none;fill-rule:nonzero;fill:rgb(6.666667%,6.666667%,6.666667%);fill-opacity:1;" d="M 16 4.417969 L 4.417969 16 L 16 27.582031 L 27.582031 16 Z M 16 5.15625 L 26.84375 16 L 16 26.84375 L 5.15625 16 Z M 16 5.15625 "/>
<path style=" stroke:none;fill-rule:nonzero;fill:rgb(6.666667%,6.666667%,6.666667%);fill-opacity:1;" d="M 5.140625 7.804688 C 4.871094 7.609375 4.636719 7.644531 4.484375 7.855469 L 4.371094 8.007812 L 5.179688 8.59375 L 5.289062 8.445312 C 5.449219 8.234375 5.417969 8 5.140625 7.804688 M 5.441406 7.398438 C 5.898438 7.738281 6.019531 8.21875 5.667969 8.707031 L 5.230469 9.308594 C 5.164062 9.203125 5.011719 9.078125 4.777344 8.902344 L 4.214844 8.496094 C 3.980469 8.324219 3.816406 8.21875 3.695312 8.1875 L 4.132812 7.585938 C 4.476562 7.097656 4.914062 7.015625 5.441406 7.398438 "/>
<path style=" stroke:none;fill-rule:nonzero;fill:rgb(6.666667%,6.666667%,6.666667%);fill-opacity:1;" d="M 6.820312 5.515625 L 7.261719 5.984375 C 7.554688 6.285156 7.535156 6.691406 7.179688 7.027344 C 6.832031 7.367188 6.425781 7.375 6.132812 7.066406 L 5.691406 6.601562 C 5.492188 6.398438 5.351562 6.253906 5.230469 6.203125 L 5.675781 5.773438 C 5.695312 5.863281 5.765625 5.945312 5.90625 6.097656 L 6.425781 6.628906 C 6.578125 6.78125 6.714844 6.804688 6.847656 6.675781 C 6.984375 6.539062 6.96875 6.40625 6.824219 6.253906 L 6.308594 5.71875 C 6.164062 5.570312 6.082031 5.5 5.992188 5.472656 L 6.433594 5.042969 C 6.488281 5.164062 6.617188 5.304688 6.820312 5.515625 "/>
<path style=" stroke:none;fill-rule:nonzero;fill:rgb(6.666667%,6.666667%,6.666667%);fill-opacity:1;" d="M 7.933594 5.5 L 7.546875 4.921875 C 7.390625 4.679688 7.269531 4.523438 7.164062 4.449219 L 7.59375 4.167969 L 8.648438 4.636719 L 8.78125 4.695312 L 8.796875 4.6875 L 8.722656 4.582031 L 8.414062 4.109375 C 8.300781 3.9375 8.226562 3.851562 8.152344 3.808594 L 8.667969 3.46875 C 8.691406 3.597656 8.796875 3.761719 8.957031 4.003906 L 9.339844 4.582031 C 9.496094 4.824219 9.617188 4.980469 9.722656 5.058594 L 9.300781 5.335938 L 8.269531 4.921875 L 8.152344 4.871094 L 8.136719 4.875 L 8.203125 4.972656 L 8.480469 5.394531 C 8.59375 5.570312 8.667969 5.652344 8.746094 5.695312 L 8.226562 6.035156 C 8.195312 5.914062 8.089844 5.742188 7.933594 5.5 "/>
<path style=" stroke:none;fill-rule:nonzero;fill:rgb(6.666667%,6.666667%,6.666667%);fill-opacity:1;" d="M 10.964844 3.433594 C 10.828125 3.125 10.613281 3.039062 10.378906 3.136719 L 10.207031 3.214844 L 10.597656 4.132812 L 10.769531 4.054688 C 11.003906 3.957031 11.101562 3.742188 10.964844 3.433594 M 11.433594 3.230469 C 11.65625 3.753906 11.507812 4.230469 10.949219 4.46875 L 10.257812 4.765625 C 10.257812 4.636719 10.191406 4.449219 10.078125 4.183594 L 9.804688 3.542969 C 9.691406 3.28125 9.601562 3.101562 9.511719 3.011719 L 10.199219 2.71875 C 10.753906 2.484375 11.175781 2.632812 11.433594 3.230469 "/>
<path style=" stroke:none;fill-rule:nonzero;fill:rgb(6.666667%,6.666667%,6.666667%);fill-opacity:1;" d="M 13.320312 2.273438 C 13.230469 2.25 13.125 2.265625 12.921875 2.308594 L 12.539062 2.402344 L 12.613281 2.703125 L 12.929688 2.625 C 13.09375 2.589844 13.214844 2.550781 13.261719 2.511719 L 13.359375 2.933594 C 13.304688 2.925781 13.183594 2.941406 13.011719 2.988281 L 12.695312 3.0625 L 12.769531 3.378906 L 13.15625 3.289062 C 13.359375 3.242188 13.464844 3.199219 13.523438 3.136719 L 13.644531 3.628906 L 12.335938 3.945312 C 12.359375 3.816406 12.320312 3.621094 12.253906 3.339844 L 12.085938 2.664062 C 12.019531 2.386719 11.964844 2.191406 11.890625 2.09375 L 13.199219 1.777344 Z M 13.320312 2.273438 "/>
<path style=" stroke:none;fill-rule:nonzero;fill:rgb(6.666667%,6.666667%,6.666667%);fill-opacity:1;" d="M 15.503906 2.03125 C 15.421875 1.996094 15.316406 1.996094 15.105469 2.007812 L 14.714844 2.039062 L 14.734375 2.347656 L 15.058594 2.316406 C 15.230469 2.304688 15.351562 2.289062 15.398438 2.257812 L 15.4375 2.6875 C 15.382812 2.671875 15.261719 2.671875 15.089844 2.6875 L 14.765625 2.71875 L 14.796875 3.039062 L 15.1875 3.011719 C 15.390625 2.996094 15.503906 2.972656 15.578125 2.921875 L 15.617188 3.425781 L 14.269531 3.539062 C 14.308594 3.417969 14.300781 3.214844 14.277344 2.925781 L 14.214844 2.234375 C 14.195312 1.949219 14.164062 1.753906 14.109375 1.640625 L 15.449219 1.527344 Z M 15.503906 2.03125 "/>
<path style=" stroke:none;fill-rule:nonzero;fill:rgb(6.666667%,6.666667%,6.666667%);fill-opacity:1;" d="M 19.191406 2.476562 L 19.078125 3.109375 C 19.003906 3.523438 18.664062 3.746094 18.191406 3.664062 C 17.714844 3.582031 17.46875 3.265625 17.535156 2.84375 L 17.648438 2.210938 C 17.691406 1.925781 17.722656 1.730469 17.691406 1.609375 L 18.304688 1.714844 C 18.242188 1.785156 18.210938 1.890625 18.183594 2.101562 L 18.054688 2.835938 C 18.015625 3.046875 18.085938 3.167969 18.273438 3.207031 C 18.460938 3.242188 18.566406 3.144531 18.597656 2.933594 L 18.722656 2.199219 C 18.761719 1.996094 18.769531 1.882812 18.738281 1.796875 L 19.347656 1.902344 C 19.28125 2 19.242188 2.199219 19.191406 2.476562 "/>
<path style=" stroke:none;fill-rule:nonzero;fill:rgb(6.666667%,6.666667%,6.666667%);fill-opacity:1;" d="M 19.867188 3.371094 L 20.109375 2.71875 C 20.207031 2.445312 20.265625 2.257812 20.265625 2.128906 L 20.75 2.308594 L 20.996094 3.4375 L 21.027344 3.582031 L 21.042969 3.589844 L 21.085938 3.460938 L 21.289062 2.925781 C 21.367188 2.730469 21.386719 2.625 21.375 2.535156 L 21.953125 2.753906 C 21.863281 2.851562 21.789062 3.027344 21.691406 3.296875 L 21.449219 3.949219 C 21.351562 4.222656 21.289062 4.410156 21.289062 4.539062 L 20.816406 4.363281 L 20.539062 3.289062 L 20.507812 3.160156 L 20.492188 3.152344 L 20.457031 3.265625 L 20.28125 3.742188 C 20.207031 3.9375 20.183594 4.042969 20.199219 4.132812 L 19.621094 3.914062 C 19.6875 3.824219 19.761719 3.640625 19.867188 3.371094 "/>
<path style=" stroke:none;fill-rule:nonzero;fill:rgb(6.666667%,6.666667%,6.666667%);fill-opacity:1;" d="M 22.628906 4.582031 C 22.496094 4.832031 22.40625 5.011719 22.390625 5.140625 L 21.847656 4.847656 C 21.945312 4.765625 22.050781 4.597656 22.1875 4.34375 L 22.515625 3.734375 C 22.652344 3.476562 22.742188 3.304688 22.757812 3.175781 L 23.300781 3.46875 C 23.203125 3.550781 23.097656 3.71875 22.960938 3.972656 Z M 22.628906 4.582031 "/>
<path style=" stroke:none;fill-rule:nonzero;fill:rgb(6.666667%,6.666667%,6.666667%);fill-opacity:1;" d="M 25.195312 4.742188 L 24.894531 5.15625 C 24.859375 5.074219 24.773438 4.996094 24.609375 4.875 L 24.550781 4.832031 L 24.050781 5.515625 C 23.886719 5.75 23.773438 5.914062 23.742188 6.035156 L 23.238281 5.675781 C 23.34375 5.605469 23.472656 5.449219 23.640625 5.222656 L 24.136719 4.539062 L 24.074219 4.492188 C 23.910156 4.371094 23.8125 4.320312 23.722656 4.304688 L 24.023438 3.890625 Z M 25.195312 4.742188 "/>
<path style=" stroke:none;fill-rule:nonzero;fill:rgb(6.666667%,6.666667%,6.666667%);fill-opacity:1;" d="M 26.445312 6.601562 C 26.421875 6.515625 26.347656 6.425781 26.207031 6.285156 L 25.925781 6.003906 L 25.707031 6.230469 L 25.941406 6.464844 C 26.0625 6.585938 26.160156 6.667969 26.207031 6.683594 L 25.902344 6.992188 C 25.882812 6.9375 25.804688 6.847656 25.679688 6.726562 L 25.445312 6.496094 L 25.21875 6.726562 L 25.496094 7.007812 C 25.648438 7.148438 25.730469 7.21875 25.820312 7.246094 L 25.46875 7.609375 L 24.511719 6.660156 C 24.632812 6.609375 24.773438 6.472656 24.976562 6.269531 L 25.46875 5.773438 C 25.671875 5.570312 25.804688 5.417969 25.851562 5.304688 L 26.800781 6.246094 Z M 26.445312 6.601562 "/>
<path style=" stroke:none;fill-rule:nonzero;fill:rgb(6.666667%,6.666667%,6.666667%);fill-opacity:1;" d="M 27.339844 8.464844 C 27.613281 8.269531 27.648438 8.039062 27.5 7.828125 L 27.386719 7.675781 L 26.574219 8.261719 L 26.6875 8.414062 C 26.828125 8.625 27.0625 8.664062 27.339844 8.464844 M 27.636719 8.871094 C 27.167969 9.203125 26.671875 9.167969 26.316406 8.675781 L 25.882812 8.066406 C 26.007812 8.039062 26.175781 7.933594 26.410156 7.757812 L 26.972656 7.351562 C 27.207031 7.1875 27.363281 7.058594 27.433594 6.953125 L 27.867188 7.5625 C 28.214844 8.050781 28.152344 8.496094 27.636719 8.871094 "/>
<path style=" stroke:none;fill-rule:nonzero;fill:rgb(6.666667%,6.666667%,6.666667%);fill-opacity:1;" d="M 5.621094 24.113281 C 5.613281 24.023438 5.5625 23.925781 5.433594 23.757812 L 5.222656 23.464844 L 4.9375 23.667969 L 5.074219 23.855469 C 5.179688 24 5.253906 24.089844 5.296875 24.121094 L 4.945312 24.367188 C 4.9375 24.316406 4.871094 24.210938 4.765625 24.066406 L 4.628906 23.878906 L 4.359375 24.074219 C 4.191406 24.195312 4.109375 24.269531 4.0625 24.355469 L 3.703125 23.847656 C 3.832031 23.820312 3.996094 23.714844 4.230469 23.539062 L 4.792969 23.132812 C 5.027344 22.96875 5.183594 22.839844 5.253906 22.734375 L 6.019531 23.8125 Z M 5.621094 24.113281 "/>
<path style=" stroke:none;fill-rule:nonzero;fill:rgb(6.666667%,6.666667%,6.666667%);fill-opacity:1;" d="M 6.644531 25.84375 C 6.878906 25.609375 6.871094 25.339844 6.683594 25.160156 C 6.503906 24.976562 6.230469 24.972656 6 25.203125 C 5.765625 25.445312 5.773438 25.707031 5.953125 25.890625 C 6.140625 26.078125 6.410156 26.085938 6.644531 25.84375 M 5.628906 24.835938 C 6.058594 24.398438 6.621094 24.429688 7.023438 24.820312 C 7.414062 25.210938 7.449219 25.777344 7.015625 26.210938 C 6.578125 26.648438 6.011719 26.625 5.621094 26.226562 C 5.230469 25.835938 5.199219 25.273438 5.628906 24.835938 "/>
<path style=" stroke:none;fill-rule:nonzero;fill:rgb(6.666667%,6.666667%,6.666667%);fill-opacity:1;" d="M 8.640625 27.386719 C 8.828125 27.117188 8.769531 26.851562 8.558594 26.710938 C 8.347656 26.566406 8.082031 26.605469 7.894531 26.875 C 7.707031 27.152344 7.757812 27.417969 7.976562 27.558594 C 8.179688 27.703125 8.453125 27.664062 8.640625 27.386719 M 7.457031 26.574219 C 7.804688 26.070312 8.359375 25.996094 8.820312 26.308594 C 9.28125 26.625 9.414062 27.175781 9.070312 27.679688 C 8.722656 28.191406 8.15625 28.265625 7.699219 27.949219 C 7.238281 27.636719 7.113281 27.085938 7.457031 26.574219 "/>
<path style=" stroke:none;fill-rule:nonzero;fill:rgb(6.666667%,6.666667%,6.666667%);fill-opacity:1;" d="M 11.363281 27.71875 L 11.152344 28.183594 C 11.101562 28.109375 11.003906 28.054688 10.816406 27.964844 L 10.746094 27.9375 L 10.402344 28.703125 C 10.28125 28.96875 10.207031 29.148438 10.207031 29.277344 L 9.640625 29.019531 C 9.730469 28.9375 9.820312 28.757812 9.941406 28.492188 L 10.289062 27.726562 L 10.210938 27.695312 C 10.023438 27.613281 9.917969 27.574219 9.828125 27.582031 L 10.039062 27.117188 Z M 11.363281 27.71875 "/>
<path style=" stroke:none;fill-rule:nonzero;fill:rgb(6.666667%,6.666667%,6.666667%);fill-opacity:1;" d="M 12.589844 28.914062 C 12.726562 28.953125 12.808594 28.898438 12.832031 28.792969 C 12.863281 28.6875 12.792969 28.613281 12.671875 28.582031 L 12.359375 28.5 L 12.265625 28.832031 Z M 12.460938 29.589844 C 12.597656 29.628906 12.6875 29.589844 12.71875 29.480469 C 12.75 29.375 12.695312 29.289062 12.574219 29.261719 L 12.191406 29.15625 L 12.101562 29.492188 Z M 11.65625 29.199219 L 11.839844 28.53125 C 11.914062 28.253906 11.949219 28.054688 11.9375 27.9375 L 12.800781 28.167969 C 13.214844 28.28125 13.402344 28.554688 13.320312 28.863281 C 13.277344 29.027344 13.183594 29.140625 13.058594 29.199219 C 13.183594 29.304688 13.238281 29.472656 13.183594 29.667969 C 13.09375 29.992188 12.808594 30.140625 12.363281 30.019531 L 11.453125 29.78125 C 11.523438 29.667969 11.582031 29.480469 11.65625 29.199219 "/>
<path style=" stroke:none;fill-rule:nonzero;fill:rgb(6.666667%,6.666667%,6.666667%);fill-opacity:1;" d="M 14.855469 29.734375 L 14.742188 29.027344 L 14.726562 29.027344 L 14.488281 29.695312 Z M 14.910156 30.425781 C 14.945312 30.390625 14.945312 30.34375 14.929688 30.230469 L 14.917969 30.125 L 14.367188 30.074219 L 14.328125 30.179688 C 14.300781 30.285156 14.292969 30.335938 14.320312 30.375 L 13.683594 30.3125 C 13.742188 30.292969 13.765625 30.214844 13.824219 30.074219 L 14.496094 28.476562 L 15.082031 28.53125 L 15.449219 30.222656 C 15.488281 30.382812 15.496094 30.457031 15.546875 30.488281 Z M 14.910156 30.425781 "/>
<path style=" stroke:none;fill-rule:nonzero;fill:rgb(6.666667%,6.666667%,6.666667%);fill-opacity:1;" d="M 17.488281 29.863281 L 17.519531 30.40625 L 16.324219 30.480469 C 16.359375 30.359375 16.359375 30.164062 16.347656 29.878906 L 16.300781 29.183594 C 16.285156 28.898438 16.261719 28.703125 16.203125 28.582031 L 16.820312 28.546875 C 16.78125 28.667969 16.78125 28.863281 16.796875 29.148438 L 16.851562 29.960938 L 17.089844 29.945312 C 17.308594 29.929688 17.414062 29.90625 17.488281 29.863281 "/>
<path style=" stroke:none;fill-rule:nonzero;fill:rgb(6.666667%,6.666667%,6.666667%);fill-opacity:1;" d="M 19.476562 29.507812 L 19.582031 30.035156 L 18.410156 30.277344 C 18.429688 30.15625 18.402344 29.953125 18.339844 29.675781 L 18.199219 28.988281 C 18.136719 28.703125 18.09375 28.515625 18.015625 28.410156 L 18.617188 28.28125 C 18.597656 28.402344 18.625 28.597656 18.6875 28.882812 L 18.851562 29.683594 L 19.085938 29.636719 C 19.304688 29.597656 19.410156 29.570312 19.476562 29.507812 "/>
<path style=" stroke:none;fill-rule:nonzero;fill:rgb(6.666667%,6.666667%,6.666667%);fill-opacity:1;" d="M 21.214844 28.515625 C 20.945312 27.949219 21.191406 27.433594 21.734375 27.167969 C 21.886719 27.101562 22.019531 27.054688 22.195312 27.03125 L 22.433594 27.5 L 22.417969 27.507812 C 22.320312 27.484375 22.171875 27.484375 21.976562 27.574219 C 21.660156 27.726562 21.554688 27.996094 21.691406 28.289062 C 21.824219 28.574219 22.125 28.652344 22.417969 28.507812 C 22.621094 28.410156 22.714844 28.296875 22.75 28.199219 L 22.765625 28.191406 L 22.984375 28.679688 C 22.855469 28.800781 22.734375 28.882812 22.578125 28.953125 C 22.066406 29.207031 21.488281 29.085938 21.214844 28.515625 "/>
<path style=" stroke:none;fill-rule:nonzero;fill:rgb(6.666667%,6.666667%,6.666667%);fill-opacity:1;" d="M 24.488281 27.117188 L 24.796875 27.558594 L 23.8125 28.238281 C 23.789062 28.117188 23.683594 27.945312 23.519531 27.703125 L 23.128906 27.125 C 22.960938 26.882812 22.839844 26.722656 22.734375 26.65625 L 23.246094 26.308594 C 23.269531 26.429688 23.375 26.605469 23.539062 26.84375 L 24 27.523438 L 24.195312 27.386719 C 24.367188 27.265625 24.453125 27.199219 24.488281 27.117188 "/>
<path style=" stroke:none;fill-rule:nonzero;fill:rgb(6.666667%,6.666667%,6.666667%);fill-opacity:1;" d="M 25.714844 25.023438 L 26.160156 25.488281 C 26.445312 25.796875 26.421875 26.207031 26.070312 26.535156 C 25.714844 26.867188 25.308594 26.867188 25.023438 26.558594 L 24.578125 26.09375 C 24.382812 25.882812 24.242188 25.746094 24.128906 25.6875 L 24.578125 25.265625 C 24.601562 25.355469 24.667969 25.4375 24.8125 25.589844 L 25.324219 26.128906 C 25.46875 26.289062 25.609375 26.308594 25.746094 26.175781 C 25.882812 26.046875 25.875 25.902344 25.722656 25.746094 L 25.210938 25.210938 C 25.070312 25.0625 24.984375 24.984375 24.902344 24.964844 L 25.355469 24.542969 C 25.390625 24.664062 25.519531 24.8125 25.714844 25.023438 "/>
<path style=" stroke:none;fill-rule:nonzero;fill:rgb(6.666667%,6.666667%,6.666667%);fill-opacity:1;" d="M 27.5 24.203125 C 27.582031 24.089844 27.582031 23.992188 27.492188 23.925781 C 27.402344 23.855469 27.3125 23.871094 27.234375 23.976562 L 26.996094 24.292969 L 27.273438 24.503906 Z M 26.921875 23.828125 C 27.003906 23.714844 26.988281 23.625 26.898438 23.554688 C 26.816406 23.496094 26.71875 23.527344 26.648438 23.625 L 26.453125 23.886719 L 26.722656 24.089844 Z M 26.835938 24.796875 L 26.28125 24.382812 C 26.046875 24.210938 25.882812 24.105469 25.761719 24.066406 L 26.296875 23.351562 C 26.550781 23.007812 26.875 22.9375 27.128906 23.128906 C 27.265625 23.226562 27.339844 23.351562 27.347656 23.503906 C 27.492188 23.429688 27.664062 23.4375 27.832031 23.554688 C 28.101562 23.757812 28.132812 24.082031 27.859375 24.453125 L 27.296875 25.210938 C 27.222656 25.097656 27.070312 24.972656 26.835938 24.796875 "/>
<path style=" stroke:none;fill-rule:nonzero;fill:rgb(6.666667%,6.666667%,6.666667%);fill-opacity:1;" d="M 19.410156 15.488281 C 19.410156 15.308594 19.539062 15.171875 19.363281 15 C 19.230469 14.871094 19.109375 14.921875 19.070312 14.960938 C 18.574219 15.449219 19.664062 17 19.664062 18.152344 C 19.664062 18.527344 19.621094 18.921875 19.484375 19.054688 C 19.605469 19.175781 19.769531 19.25 19.769531 19.605469 C 19.769531 19.847656 19.65625 20.027344 19.523438 20.152344 C 19.523438 20.152344 19.558594 19.921875 19.386719 19.753906 C 19.191406 19.558594 18.875 20.167969 18.175781 20.167969 C 17.730469 20.167969 17.265625 19.742188 17.265625 19.800781 C 17.265625 19.824219 17.519531 20.246094 17.671875 20.246094 C 17.925781 20.246094 17.828125 20.734375 18.265625 20.734375 C 18.597656 20.734375 18.679688 20.457031 18.679688 20.253906 C 18.859375 20.253906 19.136719 20.765625 18.914062 20.988281 C 18.972656 21.050781 19.117188 20.960938 19.117188 20.960938 C 19.117188 21.191406 18.875 21.726562 18.671875 21.726562 C 18.535156 21.726562 18.410156 21.667969 18.304688 21.773438 C 18.210938 21.863281 18.355469 22.179688 18.5 22.3125 C 18.128906 22.3125 17.699219 22.515625 17.699219 22.726562 C 17.699219 22.773438 17.902344 23.082031 17.84375 23.132812 C 17.859375 23.1875 17.867188 23.246094 17.867188 23.269531 C 17.867188 23.316406 17.859375 23.359375 17.84375 23.414062 C 17.828125 23.480469 17.804688 23.554688 17.804688 23.640625 C 17.804688 23.75 17.769531 23.835938 17.707031 23.855469 C 17.699219 23.855469 17.6875 23.863281 17.664062 23.863281 C 17.632812 23.863281 17.601562 23.855469 17.566406 23.820312 C 17.558594 23.804688 17.550781 23.789062 17.527344 23.730469 C 17.503906 23.683594 17.484375 23.601562 17.453125 23.554688 C 17.453125 23.5625 17.445312 23.5625 17.445312 23.5625 C 17.339844 23.660156 17.1875 23.742188 17.082031 23.757812 C 17.097656 23.828125 17.097656 23.894531 17.097656 23.953125 C 17.097656 23.96875 17.097656 23.984375 17.097656 24 C 17.097656 24.03125 17.082031 24.089844 17.039062 24.105469 C 17.03125 24.105469 17.015625 24.113281 17 24.113281 C 16.976562 24.113281 16.941406 24.105469 16.910156 24.066406 C 16.894531 24.050781 16.851562 24.039062 16.8125 24.023438 C 16.707031 23.976562 16.5625 23.925781 16.496094 23.765625 L 16.488281 23.765625 C 16.398438 23.765625 16.179688 23.707031 16.121094 23.683594 C 16.105469 23.730469 16.097656 23.765625 16.097656 23.8125 C 16.097656 23.820312 16.097656 23.84375 16.105469 23.855469 C 16.121094 23.925781 16.136719 24 16.097656 24.046875 C 16.089844 24.050781 16.066406 24.074219 16.03125 24.074219 C 15.953125 24.074219 15.886719 24.023438 15.765625 23.902344 C 15.652344 23.796875 15.675781 23.609375 15.691406 23.503906 C 15.691406 23.488281 15.691406 23.464844 15.691406 23.457031 C 15.691406 23.449219 15.691406 23.429688 15.699219 23.414062 C 15.652344 23.382812 15.5625 23.277344 15.5625 23.246094 L 15.5625 23.238281 C 15.488281 23.261719 15.414062 23.324219 15.351562 23.367188 C 15.300781 23.414062 15.253906 23.449219 15.21875 23.449219 C 15.203125 23.449219 15.1875 23.441406 15.171875 23.429688 C 15.128906 23.382812 15.066406 23.179688 15.300781 22.953125 C 15.382812 22.871094 15.488281 22.839844 15.546875 22.832031 C 15.570312 22.78125 15.617188 22.726562 15.660156 22.726562 C 15.941406 22.457031 16.128906 22.480469 16.355469 22.699219 C 16.398438 22.742188 16.542969 22.609375 16.667969 22.488281 C 16.738281 22.554688 16.949219 22.457031 16.949219 22.179688 C 17.023438 22.109375 17.265625 21.886719 17.1875 21.886719 C 16.957031 21.886719 16.550781 21.773438 16.421875 21.644531 C 16.164062 21.898438 15.789062 22.089844 15.335938 21.636719 C 15.539062 21.636719 15.847656 21.207031 15.617188 20.980469 C 15.480469 20.847656 15.203125 20.871094 15.148438 20.871094 C 14.917969 20.871094 14.277344 21.019531 14.277344 21.472656 C 14.277344 21.789062 14.636719 22.109375 14.847656 22.109375 C 14.40625 22.546875 14.003906 22.34375 13.894531 22.230469 C 13.894531 22.390625 13.589844 22.546875 13.289062 22.546875 C 13.171875 22.546875 13.050781 22.496094 12.972656 22.410156 C 13.140625 22.410156 13.351562 22.164062 13.351562 21.886719 C 13.351562 21.683594 13.164062 21.492188 12.875 21.492188 L 12.457031 21.492188 C 12.679688 21.269531 12.726562 20.890625 12.386719 20.890625 C 12.003906 21.269531 11.929688 21.140625 11.851562 21.058594 C 11.851562 21.058594 11.851562 21.058594 11.847656 21.050781 C 11.800781 21.085938 11.71875 21.09375 11.636719 21.109375 C 11.542969 21.125 11.445312 21.140625 11.410156 21.183594 C 11.371094 21.230469 11.332031 21.253906 11.289062 21.253906 C 11.28125 21.253906 11.273438 21.253906 11.257812 21.253906 C 11.230469 21.246094 11.183594 21.214844 11.167969 21.117188 C 11.160156 21.027344 11.230469 20.90625 11.296875 20.824219 C 11.347656 20.757812 11.402344 20.710938 11.460938 20.671875 C 11.371094 20.597656 11.136719 20.554688 11.128906 20.304688 C 11.027344 20.320312 10.914062 20.359375 10.820312 20.394531 C 10.738281 20.425781 10.679688 20.449219 10.632812 20.449219 C 10.613281 20.449219 10.589844 20.449219 10.574219 20.433594 C 10.558594 20.425781 10.542969 20.394531 10.542969 20.359375 C 10.542969 20.175781 10.632812 20.09375 10.6875 20.050781 C 10.695312 20.042969 10.703125 20.042969 10.703125 20.035156 C 10.90625 19.839844 11.128906 19.777344 11.296875 19.785156 C 11.296875 19.746094 11.3125 19.710938 11.339844 19.6875 C 11.339844 19.6875 11.347656 19.6875 11.347656 19.679688 C 11.328125 19.640625 11.289062 19.605469 11.25 19.566406 C 11.101562 19.417969 10.996094 19.410156 10.957031 19.410156 C 10.941406 19.410156 10.914062 19.410156 10.898438 19.378906 C 10.890625 19.347656 10.90625 19.328125 10.925781 19.304688 C 11.03125 19.199219 11.109375 19.167969 11.304688 19.167969 C 11.460938 19.167969 11.589844 19.222656 11.679688 19.289062 C 11.6875 19.296875 11.695312 19.304688 11.710938 19.3125 C 11.710938 19.304688 11.710938 19.289062 11.710938 19.28125 L 11.710938 19.265625 C 11.710938 19.054688 11.597656 18.980469 11.550781 18.949219 C 11.539062 18.941406 11.507812 18.921875 11.523438 18.890625 C 11.53125 18.851562 11.566406 18.851562 11.613281 18.859375 L 11.726562 18.859375 C 12.011719 18.859375 12.152344 18.980469 12.230469 19.078125 C 12.230469 19.078125 12.257812 19.054688 12.273438 19.03125 C 12.695312 19.445312 12.394531 19.476562 12.394531 19.734375 C 12.394531 19.875 12.566406 19.996094 12.792969 19.996094 C 12.972656 20.175781 13.375 20.175781 13.5625 19.988281 C 13.5625 19.777344 12.304688 19.664062 13.132812 18.84375 C 13.132812 19.4375 13.597656 19.183594 13.886719 18.898438 C 14.089844 18.695312 14.140625 18.632812 14.433594 18.632812 C 14.910156 18.632812 15.015625 18.90625 15.40625 18.90625 C 15.40625 18.558594 15.625 18.421875 15.539062 18.421875 C 15.449219 18.421875 15.300781 18.355469 15.035156 18.101562 C 14.554688 17.625 15.082031 17.234375 14.117188 17.234375 C 14.117188 17.105469 14.433594 16.859375 14.433594 16.753906 C 14.433594 16.558594 14.320312 16.480469 14.027344 16.480469 C 13.695312 16.480469 13.5 16.609375 13.359375 16.753906 C 13.171875 16.5625 13.3125 16.324219 12.90625 16.324219 C 12.636719 16.324219 12.515625 16.460938 12.222656 16.460938 C 12.175781 16.535156 12.109375 16.632812 12.011719 16.730469 C 11.980469 16.753906 11.957031 16.78125 11.929688 16.820312 C 11.847656 16.910156 11.816406 16.957031 11.769531 16.957031 C 11.753906 16.957031 11.742188 16.957031 11.734375 16.941406 C 11.640625 16.851562 11.703125 16.535156 11.742188 16.40625 C 11.621094 16.503906 11.378906 16.550781 11.28125 16.503906 L 11.273438 16.519531 C 11.25 16.578125 11.199219 16.683594 11.199219 16.8125 C 11.199219 16.902344 11.191406 16.957031 11.144531 16.976562 C 11.136719 16.976562 11.128906 16.984375 11.125 16.984375 C 11.09375 16.984375 11.0625 16.957031 11.039062 16.941406 C 10.980469 16.878906 10.800781 16.65625 10.800781 16.503906 C 10.800781 16.398438 10.828125 16.285156 10.882812 16.210938 C 10.800781 16.113281 10.769531 15.933594 10.769531 15.75 C 10.738281 15.742188 10.710938 15.730469 10.679688 15.714844 C 10.632812 15.691406 10.582031 15.667969 10.511719 15.667969 C 10.421875 15.667969 10.304688 15.617188 10.273438 15.535156 C 10.257812 15.488281 10.265625 15.441406 10.308594 15.398438 C 10.421875 15.285156 10.574219 15.230469 10.761719 15.230469 C 10.792969 15.230469 10.820312 15.230469 10.851562 15.238281 C 10.867188 15.1875 10.996094 15.132812 11.046875 15.089844 C 11.011719 15.058594 10.980469 15.023438 10.949219 14.984375 C 10.921875 14.945312 10.898438 14.917969 10.859375 14.878906 C 10.84375 14.863281 10.816406 14.847656 10.800781 14.832031 C 10.761719 14.8125 10.738281 14.789062 10.730469 14.757812 C 10.730469 14.742188 10.738281 14.71875 10.753906 14.714844 C 10.808594 14.652344 10.90625 14.628906 11.070312 14.628906 C 11.199219 14.628906 11.296875 14.644531 11.371094 14.683594 C 11.402344 14.660156 11.433594 14.628906 11.460938 14.628906 C 11.964844 14.628906 11.671875 15.226562 12.207031 15.226562 C 12.566406 15.226562 13.140625 15.15625 13.183594 15.113281 C 13.171875 15.097656 13.148438 14.945312 13.011719 14.8125 C 12.832031 14.628906 12.34375 14.683594 12.207031 14.683594 C 12.351562 14.539062 12.574219 13.757812 12.574219 13.5 C 12.574219 13.261719 12.296875 13.277344 12.351562 13.222656 C 12.433594 13.140625 12.507812 12.695312 12.507812 12.484375 C 12.507812 12.273438 12.484375 12.078125 12.484375 11.945312 C 12.378906 11.945312 12.230469 11.972656 12.148438 11.921875 C 12.109375 11.9375 12.054688 11.9375 11.980469 11.9375 C 11.945312 11.9375 11.898438 11.9375 11.847656 11.9375 L 11.679688 11.9375 C 11.613281 11.9375 11.539062 11.9375 11.492188 11.890625 C 11.46875 11.875 11.460938 11.847656 11.460938 11.824219 C 11.460938 11.746094 11.640625 11.597656 11.808594 11.507812 C 11.769531 11.417969 11.761719 11.09375 11.777344 10.996094 C 11.761719 10.996094 11.746094 10.996094 11.734375 10.996094 C 11.65625 10.996094 11.597656 10.980469 11.542969 10.964844 C 11.492188 10.949219 11.453125 10.941406 11.425781 10.957031 C 11.402344 10.964844 11.386719 10.964844 11.378906 10.964844 C 11.347656 10.964844 11.332031 10.949219 11.328125 10.941406 C 11.28125 10.90625 11.296875 10.828125 11.320312 10.792969 C 11.347656 10.722656 11.417969 10.625 11.628906 10.542969 C 11.824219 10.460938 11.890625 10.4375 12.003906 10.476562 C 12.09375 10.394531 12.160156 10.371094 12.304688 10.371094 C 12.46875 10.371094 12.667969 10.371094 12.769531 10.28125 C 12.757812 10.25 12.742188 10.226562 12.726562 10.199219 C 12.703125 10.136719 12.679688 10.070312 12.589844 9.988281 C 12.515625 9.910156 12.425781 9.867188 12.359375 9.835938 C 12.28125 9.796875 12.238281 9.777344 12.238281 9.722656 C 12.238281 9.632812 12.34375 9.601562 12.71875 9.601562 C 12.988281 9.601562 13.207031 9.988281 13.269531 10.128906 C 13.289062 10.113281 13.335938 10.105469 13.375 10.105469 C 13.410156 10.105469 13.457031 10.113281 13.480469 10.128906 C 13.5 10.0625 13.53125 9.988281 13.53125 9.890625 L 13.53125 9.875 C 13.53125 9.714844 13.539062 9.640625 13.589844 9.617188 C 13.597656 9.617188 13.636719 9.601562 13.667969 9.632812 C 13.691406 9.65625 13.71875 9.679688 13.757812 9.691406 C 13.847656 9.746094 13.960938 9.820312 13.960938 9.988281 C 13.960938 10.023438 13.96875 10.0625 13.976562 10.101562 C 13.992188 10.175781 14.003906 10.25 13.96875 10.324219 C 13.96875 10.332031 13.960938 10.339844 13.960938 10.347656 C 13.976562 10.363281 13.992188 10.378906 14.019531 10.378906 C 14.019531 10.898438 13.09375 11.167969 13.28125 11.347656 C 13.464844 11.53125 13.703125 12.054688 13.703125 12.914062 L 13.703125 12.929688 C 13.703125 12.96875 13.695312 12.980469 13.695312 12.996094 C 13.742188 12.945312 14.027344 12.726562 15.34375 12.726562 C 15.34375 12.425781 15.195312 12.554688 15.015625 12.371094 C 15.015625 12.117188 14.976562 11.882812 15.1875 11.882812 L 15.210938 11.882812 L 15.210938 11.867188 C 15.21875 11.71875 15.253906 11.679688 15.261719 11.664062 C 15.277344 11.648438 15.285156 11.636719 15.300781 11.621094 C 15.324219 11.597656 15.34375 11.574219 15.375 11.574219 C 15.390625 11.574219 15.414062 11.574219 15.429688 11.605469 C 15.449219 11.636719 15.503906 11.800781 15.519531 11.851562 C 15.691406 11.839844 15.84375 11.785156 15.96875 11.671875 C 16.113281 11.53125 15.8125 11.332031 15.640625 11.332031 C 15.511719 11.332031 15.335938 11.339844 15.277344 11.320312 C 15.269531 11.589844 15.230469 11.589844 15.203125 11.589844 C 15.15625 11.589844 15.089844 11.53125 15.058594 11.5 C 15.007812 11.4375 14.953125 11.347656 14.929688 11.25 C 14.894531 11.25 14.855469 11.222656 14.824219 11.191406 C 14.824219 11.054688 14.3125 10.710938 14.5625 10.460938 C 14.78125 10.242188 15.195312 10.410156 15.414062 10.199219 C 15.503906 10.105469 15.59375 10.03125 15.59375 10 C 15.644531 9.949219 15.917969 9.957031 16.128906 9.957031 C 16.308594 9.957031 16.542969 9.761719 16.667969 9.761719 C 17.082031 9.761719 17.136719 9.332031 17.332031 9.332031 C 17.40625 9.398438 17.484375 9.65625 17.484375 9.769531 C 17.484375 10.078125 17.203125 9.902344 17.59375 10.289062 C 17.820312 10.511719 17.707031 10.769531 17.707031 11.039062 C 17.8125 11.144531 17.980469 11.816406 17.722656 12.070312 C 17.722656 12.265625 17.84375 12.214844 17.84375 12.5 C 17.84375 12.871094 17.371094 13.691406 17.371094 14.140625 C 17.371094 14.601562 16.984375 14.742188 16.984375 15.128906 C 16.984375 15.496094 17.105469 15.84375 17.03125 15.917969 C 16.8125 16.136719 16.867188 17.714844 17.152344 17.714844 C 17.265625 17.828125 17.113281 18.183594 17.113281 18.234375 C 17.167969 18.289062 17.265625 18.304688 17.292969 18.339844 C 17.382812 18.429688 17.382812 18.519531 17.503906 18.640625 C 17.503906 19.234375 18.105469 19.289062 18.355469 19.289062 C 18.664062 19.289062 19.160156 18.882812 18.738281 18.46875 C 18.6875 18.414062 18.777344 18.371094 18.777344 18.289062 C 18.777344 17.898438 18.308594 17.738281 18.144531 17.902344 C 17.796875 18.242188 18.308594 18.558594 18.511719 18.363281 C 18.511719 18.558594 18.0625 18.703125 17.777344 18.414062 C 17.347656 17.996094 17.484375 17.558594 17.746094 17.300781 C 18.046875 17 18.511719 17.0625 18.613281 17.167969 C 18.613281 17.015625 17.828125 16.1875 17.828125 14.855469 C 17.828125 13.253906 18.308594 12.589844 18.617188 12.289062 C 18.808594 12.101562 19.109375 11.753906 18.738281 11.386719 C 18.617188 11.265625 18.617188 11.167969 18.617188 11.144531 C 18.296875 11.144531 18.234375 11.386719 18.386719 11.539062 C 18.226562 11.539062 18.101562 11.453125 18.101562 11.128906 C 18.101562 10.800781 18.324219 10.640625 18.605469 10.640625 C 18.605469 10.542969 18.5 10.332031 18.5 10.070312 C 18.5 9.746094 18.632812 9.582031 19.003906 9.582031 C 19.433594 9.582031 19.566406 10.113281 19.566406 10.46875 C 19.402344 10.304688 19.0625 10.136719 19.0625 10.574219 C 19.0625 10.988281 19.484375 11.425781 19.484375 12.363281 C 19.484375 13.15625 19.207031 13.691406 19.207031 13.839844 C 19.207031 13.945312 19.550781 13.953125 19.550781 13.320312 C 19.6875 13.320312 20.070312 13.742188 19.597656 14.214844 C 19.515625 14.300781 19.816406 14.171875 19.816406 14.628906 C 19.808594 15.082031 19.597656 15.300781 19.410156 15.488281 "/>
<path style=" stroke:none;fill-rule:nonzero;fill:rgb(100%,100%,100%);fill-opacity:1;" d="M 15.421875 11.882812 C 15.414062 11.882812 15.414062 11.882812 15.398438 11.890625 C 15.375 11.890625 15.34375 11.898438 15.308594 11.898438 C 15.316406 11.808594 15.332031 11.761719 15.335938 11.753906 C 15.351562 11.742188 15.359375 11.726562 15.375 11.71875 C 15.382812 11.761719 15.414062 11.847656 15.421875 11.882812 "/>
<path style=" stroke:none;fill-rule:nonzero;fill:rgb(100%,100%,100%);fill-opacity:1;" d="M 12.078125 10.769531 C 12.078125 10.785156 12.078125 10.84375 12.042969 10.859375 C 11.964844 10.898438 11.898438 10.914062 11.839844 10.921875 C 11.734375 10.933594 11.65625 10.921875 11.589844 10.898438 C 11.550781 10.890625 11.515625 10.875 11.476562 10.875 C 11.453125 10.875 11.433594 10.882812 11.410156 10.890625 C 11.410156 10.882812 11.410156 10.859375 11.417969 10.84375 C 11.433594 10.808594 11.492188 10.722656 11.671875 10.648438 C 11.847656 10.574219 11.898438 10.558594 11.972656 10.582031 C 11.988281 10.582031 11.996094 10.589844 12.011719 10.597656 C 12.050781 10.613281 12.078125 10.6875 12.078125 10.769531 "/>
<path style=" stroke:none;fill-rule:nonzero;fill:rgb(100%,100%,100%);fill-opacity:1;" d="M 13.898438 10.308594 C 13.894531 10.324219 13.886719 10.332031 13.871094 10.347656 C 13.816406 10.402344 13.765625 10.414062 13.695312 10.394531 C 13.613281 10.371094 13.554688 10.296875 13.554688 10.28125 C 13.554688 10.265625 13.570312 10.234375 13.578125 10.199219 L 13.585938 10.175781 C 13.613281 10.101562 13.644531 10.007812 13.644531 9.902344 L 13.644531 9.890625 C 13.644531 9.8125 13.644531 9.769531 13.652344 9.746094 C 13.675781 9.761719 13.695312 9.777344 13.726562 9.792969 C 13.808594 9.84375 13.886719 9.890625 13.886719 10.007812 C 13.886719 10.054688 13.894531 10.09375 13.898438 10.136719 C 13.90625 10.207031 13.914062 10.265625 13.898438 10.308594 "/>
<path style=" stroke:none;fill-rule:nonzero;fill:rgb(100%,100%,100%);fill-opacity:1;" d="M 13.207031 10.207031 C 13.207031 10.226562 13.171875 10.273438 13.101562 10.304688 C 13.074219 10.316406 12.96875 10.347656 12.890625 10.28125 C 12.890625 10.28125 12.890625 10.28125 12.882812 10.273438 C 12.863281 10.25 12.855469 10.226562 12.839844 10.191406 C 12.816406 10.128906 12.785156 10.046875 12.679688 9.941406 C 12.597656 9.859375 12.5 9.804688 12.425781 9.777344 C 12.402344 9.769531 12.378906 9.753906 12.363281 9.746094 C 12.394531 9.730469 12.484375 9.714844 12.742188 9.714844 C 12.960938 9.714844 13.15625 10.070312 13.199219 10.183594 C 13.199219 10.191406 13.207031 10.199219 13.207031 10.207031 "/>
<path style=" stroke:none;fill-rule:nonzero;fill:rgb(100%,100%,100%);fill-opacity:1;" d="M 12.257812 11.726562 C 12.257812 11.761719 12.246094 11.769531 12.207031 11.800781 C 12.183594 11.816406 12.167969 11.832031 12.148438 11.851562 C 12.140625 11.859375 12.125 11.867188 12.09375 11.867188 C 12.035156 11.875 11.945312 11.867188 11.882812 11.867188 C 11.839844 11.867188 11.792969 11.867188 11.746094 11.867188 C 11.742188 11.867188 11.726562 11.867188 11.710938 11.867188 C 11.671875 11.867188 11.605469 11.867188 11.589844 11.851562 C 11.605469 11.808594 11.761719 11.679688 11.890625 11.613281 C 11.945312 11.582031 11.988281 11.566406 12.019531 11.566406 C 12.238281 11.550781 12.257812 11.613281 12.257812 11.726562 "/>
<path style=" stroke:none;fill-rule:nonzero;fill:rgb(100%,100%,100%);fill-opacity:1;" d="M 11.039062 15.4375 C 11.039062 15.480469 11.039062 15.503906 11.027344 15.535156 C 11.011719 15.5625 10.996094 15.585938 10.957031 15.625 C 10.898438 15.683594 10.851562 15.691406 10.808594 15.675781 C 10.792969 15.667969 10.769531 15.660156 10.746094 15.644531 C 10.695312 15.625 10.625 15.585938 10.542969 15.585938 C 10.484375 15.585938 10.402344 15.546875 10.386719 15.511719 C 10.386719 15.503906 10.378906 15.496094 10.402344 15.480469 C 10.492188 15.390625 10.625 15.335938 10.785156 15.335938 C 10.808594 15.335938 10.828125 15.335938 10.851562 15.34375 C 10.949219 15.351562 11.039062 15.390625 11.039062 15.4375 "/>
<path style=" stroke:none;fill-rule:nonzero;fill:rgb(100%,100%,100%);fill-opacity:1;" d="M 11.230469 16.453125 C 11.230469 16.464844 11.222656 16.472656 11.214844 16.480469 L 11.207031 16.496094 C 11.175781 16.558594 11.125 16.675781 11.125 16.820312 C 11.125 16.84375 11.125 16.859375 11.125 16.871094 C 11.054688 16.804688 10.914062 16.609375 10.914062 16.511719 C 10.914062 16.421875 10.933594 16.339844 10.964844 16.277344 C 10.972656 16.261719 10.988281 16.242188 11.003906 16.234375 C 11.054688 16.179688 11.070312 16.179688 11.128906 16.179688 C 11.175781 16.179688 11.207031 16.195312 11.222656 16.21875 C 11.265625 16.269531 11.25 16.382812 11.230469 16.453125 "/>
<path style=" stroke:none;fill-rule:nonzero;fill:rgb(100%,100%,100%);fill-opacity:1;" d="M 11.460938 14.960938 C 11.378906 15.035156 11.3125 15.058594 11.230469 15.058594 C 11.191406 15.058594 11.160156 15.050781 11.136719 15.027344 C 11.109375 15.007812 11.085938 14.976562 11.054688 14.9375 C 11.027344 14.902344 10.996094 14.863281 10.957031 14.824219 C 10.933594 14.804688 10.90625 14.78125 10.882812 14.765625 C 10.882812 14.765625 10.882812 14.765625 10.875 14.765625 C 10.921875 14.742188 10.988281 14.726562 11.09375 14.726562 C 11.191406 14.726562 11.273438 14.742188 11.332031 14.765625 C 11.371094 14.78125 11.394531 14.796875 11.417969 14.820312 C 11.453125 14.863281 11.484375 14.9375 11.460938 14.960938 "/>
<path style=" stroke:none;fill-rule:nonzero;fill:rgb(100%,100%,100%);fill-opacity:1;" d="M 12.199219 16.339844 C 12.199219 16.359375 12.183594 16.40625 12.140625 16.472656 C 12.101562 16.527344 12.050781 16.601562 11.964844 16.675781 C 11.9375 16.707031 11.90625 16.738281 11.882812 16.769531 C 11.859375 16.789062 11.832031 16.828125 11.808594 16.851562 C 11.800781 16.820312 11.792969 16.761719 11.808594 16.648438 C 11.824219 16.542969 11.847656 16.445312 11.859375 16.421875 C 11.867188 16.414062 11.867188 16.414062 11.875 16.40625 C 12.011719 16.292969 12.132812 16.285156 12.199219 16.339844 "/>
<path style=" stroke:none;fill-rule:nonzero;fill:rgb(100%,100%,100%);fill-opacity:1;" d="M 16.804688 14.578125 C 16.804688 14.617188 16.519531 15.226562 16.300781 15.226562 C 16.195312 15.226562 16.128906 15.050781 16.074219 15.113281 C 15.886719 15.292969 15.789062 15.933594 15.464844 15.933594 C 15.300781 15.933594 15.105469 15.652344 15.105469 15.707031 C 15.105469 15.78125 15.066406 15.917969 15.027344 15.917969 C 14.757812 15.917969 14.390625 15.21875 14.328125 15.15625 C 14.277344 15.105469 14.277344 15.238281 14.214844 15.238281 C 14 15.238281 13.800781 14.554688 13.871094 14.621094 C 13.898438 14.675781 14.132812 15.097656 14.195312 15.097656 C 14.246094 15.097656 14.253906 14.789062 14.328125 14.863281 C 14.441406 14.976562 14.789062 15.691406 14.9375 15.691406 C 15.050781 15.691406 14.992188 15.503906 15.050781 15.503906 C 15.105469 15.503906 15.1875 15.59375 15.300781 15.699219 C 15.40625 15.804688 15.519531 15.742188 15.59375 15.675781 C 15.820312 15.449219 15.933594 15.074219 16.074219 14.929688 C 16.15625 14.847656 16.195312 15.050781 16.332031 15.050781 C 16.460938 15.058594 16.804688 14.53125 16.804688 14.578125 "/>
<path style=" stroke:none;fill-rule:nonzero;fill:rgb(100%,100%,100%);fill-opacity:1;" d="M 17.4375 11.945312 C 17.4375 11.964844 17.429688 11.996094 17.421875 12.019531 C 17.40625 12.132812 17.195312 12.351562 17.03125 12.515625 C 16.949219 12.597656 16.894531 12.671875 16.859375 12.710938 C 16.746094 12.824219 16.804688 12.945312 16.804688 12.972656 C 16.804688 13.011719 16.820312 13.058594 16.78125 13.058594 C 16.730469 13.058594 16.714844 13.085938 16.664062 13.085938 C 16.570312 13.085938 16.503906 12.988281 16.472656 12.96875 C 16.453125 12.988281 16.332031 12.988281 16.261719 13.050781 C 16.171875 13.140625 15.925781 13.019531 15.835938 12.929688 C 15.757812 12.855469 15.730469 12.777344 15.75 12.765625 C 15.765625 12.75 15.78125 12.75 15.804688 12.777344 C 15.828125 12.800781 15.863281 12.808594 15.886719 12.808594 C 15.910156 12.808594 15.96875 12.882812 15.992188 12.90625 C 16.136719 13.042969 16.375 12.824219 16.398438 12.824219 C 16.445312 12.824219 16.445312 12.832031 16.503906 12.882812 C 16.519531 12.898438 16.535156 12.914062 16.542969 12.929688 C 16.578125 12.96875 16.59375 12.960938 16.625 12.9375 C 16.667969 12.890625 16.65625 12.875 16.667969 12.824219 C 16.675781 12.777344 16.691406 12.71875 16.707031 12.652344 C 16.738281 12.546875 16.917969 12.394531 17.054688 12.257812 C 17.121094 12.191406 17.160156 12.152344 17.195312 12.125 C 17.285156 12.035156 17.28125 11.964844 17.28125 11.875 C 17.28125 11.65625 17.144531 11.800781 17.144531 11.492188 C 17.144531 11.402344 17.144531 11.355469 17 11.214844 C 16.984375 11.199219 16.964844 11.191406 16.972656 11.183594 C 17 11.152344 17.257812 11.25 17.285156 11.28125 C 17.324219 11.320312 17.316406 11.332031 17.324219 11.417969 C 17.324219 11.453125 17.300781 11.507812 17.300781 11.597656 C 17.300781 11.664062 17.371094 11.6875 17.390625 11.710938 C 17.476562 11.761719 17.460938 11.832031 17.4375 11.945312 "/>
<path style=" stroke:none;fill-rule:nonzero;fill:rgb(100%,100%,100%);fill-opacity:1;" d="M 16.300781 10.28125 C 16.300781 10.347656 16.171875 10.507812 16.046875 10.507812 C 15.933594 10.507812 15.652344 10.316406 15.652344 10.296875 C 15.652344 10.289062 15.917969 10.210938 15.96875 10.210938 C 16.015625 10.210938 16.097656 10.21875 16.15625 10.21875 C 16.179688 10.21875 16.300781 10.21875 16.300781 10.28125 "/>
<path style=" stroke:none;fill-rule:nonzero;fill:rgb(100%,100%,100%);fill-opacity:1;" d="M 11.347656 20.238281 C 11.304688 20.230469 11.25 20.230469 11.207031 20.230469 C 11.191406 20.230469 11.183594 20.230469 11.167969 20.230469 C 11.039062 20.238281 10.914062 20.28125 10.808594 20.320312 C 10.753906 20.34375 10.679688 20.363281 10.648438 20.363281 C 10.648438 20.230469 10.71875 20.167969 10.769531 20.125 C 10.777344 20.117188 10.785156 20.109375 10.792969 20.101562 C 10.964844 19.929688 11.160156 19.875 11.296875 19.882812 C 11.378906 19.882812 11.445312 19.90625 11.476562 19.9375 C 11.53125 19.988281 11.605469 20.132812 11.605469 20.183594 C 11.605469 20.207031 11.597656 20.214844 11.589844 20.222656 C 11.550781 20.257812 11.4375 20.246094 11.347656 20.238281 "/>
<path style=" stroke:none;fill-rule:nonzero;fill:rgb(100%,100%,100%);fill-opacity:1;" d="M 11.328125 19.515625 C 11.214844 19.402344 11.117188 19.355469 11.046875 19.339844 C 11.109375 19.289062 11.167969 19.273438 11.3125 19.273438 C 11.453125 19.273438 11.550781 19.320312 11.628906 19.371094 C 11.726562 19.4375 11.769531 19.523438 11.777344 19.542969 C 11.777344 19.550781 11.777344 19.550781 11.777344 19.558594 C 11.777344 19.621094 11.785156 19.792969 11.71875 19.859375 C 11.703125 19.875 11.6875 19.882812 11.65625 19.882812 C 11.589844 19.882812 11.574219 19.859375 11.523438 19.769531 C 11.5 19.734375 11.46875 19.679688 11.425781 19.628906 C 11.402344 19.589844 11.363281 19.550781 11.328125 19.515625 "/>
<path style=" stroke:none;fill-rule:nonzero;fill:rgb(100%,100%,100%);fill-opacity:1;" d="M 11.839844 20.847656 C 11.847656 20.882812 11.851562 20.945312 11.816406 20.988281 C 11.808594 20.996094 11.800781 20.996094 11.792969 21.003906 C 11.753906 21.019531 11.695312 21.035156 11.636719 21.042969 C 11.523438 21.058594 11.410156 21.074219 11.347656 21.148438 C 11.328125 21.179688 11.304688 21.183594 11.296875 21.179688 C 11.289062 21.179688 11.273438 21.15625 11.273438 21.117188 C 11.265625 21.078125 11.304688 20.988281 11.378906 20.890625 C 11.433594 20.832031 11.484375 20.777344 11.539062 20.75 C 11.566406 20.734375 11.597656 20.71875 11.621094 20.71875 C 11.648438 20.71875 11.671875 20.710938 11.695312 20.710938 C 11.808594 20.710938 11.824219 20.75 11.824219 20.824219 C 11.839844 20.839844 11.839844 20.839844 11.839844 20.847656 "/>
<path style=" stroke:none;fill-rule:nonzero;fill:rgb(100%,100%,100%);fill-opacity:1;" d="M 12.199219 19.222656 C 12.191406 19.28125 12.042969 19.484375 11.988281 19.515625 C 11.949219 19.5 11.816406 19.433594 11.808594 19.28125 C 11.808594 19.273438 11.808594 19.273438 11.808594 19.265625 C 11.808594 19.109375 11.753906 19.011719 11.703125 18.949219 L 11.734375 18.949219 C 12.027344 18.949219 12.148438 19.09375 12.183594 19.167969 C 12.191406 19.199219 12.199219 19.222656 12.199219 19.222656 "/>
<path style=" stroke:none;fill-rule:nonzero;fill:rgb(100%,100%,100%);fill-opacity:1;" d="M 15.714844 22.960938 C 15.742188 22.992188 15.742188 23 15.742188 23.042969 C 15.742188 23.058594 15.742188 23.066406 15.742188 23.082031 C 15.742188 23.132812 15.738281 23.140625 15.640625 23.140625 C 15.617188 23.140625 15.59375 23.140625 15.578125 23.148438 C 15.480469 23.171875 15.390625 23.246094 15.316406 23.300781 C 15.292969 23.316406 15.261719 23.335938 15.246094 23.351562 C 15.230469 23.308594 15.21875 23.179688 15.382812 23.023438 C 15.441406 22.960938 15.511719 22.9375 15.5625 22.929688 C 15.585938 22.921875 15.609375 22.921875 15.617188 22.921875 C 15.632812 22.921875 15.683594 22.929688 15.714844 22.960938 "/>
<path style=" stroke:none;fill-rule:nonzero;fill:rgb(100%,100%,100%);fill-opacity:1;" d="M 16.15625 23.4375 C 16.15625 23.449219 16.15625 23.464844 16.152344 23.464844 C 16.121094 23.496094 16.074219 23.5625 16.046875 23.640625 C 16.023438 23.699219 16.007812 23.757812 16.007812 23.820312 C 16.007812 23.835938 16.015625 23.855469 16.015625 23.878906 C 16.023438 23.902344 16.03125 23.960938 16.03125 23.984375 C 15.984375 23.984375 15.925781 23.933594 15.835938 23.84375 C 15.757812 23.765625 15.773438 23.609375 15.789062 23.519531 C 15.789062 23.496094 15.796875 23.472656 15.796875 23.457031 C 15.796875 23.429688 15.835938 23.316406 15.902344 23.316406 C 16.050781 23.316406 16.105469 23.34375 16.121094 23.359375 C 16.152344 23.398438 16.15625 23.421875 16.15625 23.4375 "/>
<path style=" stroke:none;fill-rule:nonzero;fill:rgb(100%,100%,100%);fill-opacity:1;" d="M 17.007812 23.773438 C 17.023438 23.835938 17.023438 23.902344 17.023438 23.96875 C 17.023438 23.984375 17.023438 24 17.023438 24.015625 C 17.023438 24.023438 17.015625 24.039062 17.015625 24.039062 C 17.007812 24.039062 17 24.03125 16.984375 24.015625 C 16.957031 23.984375 16.910156 23.96875 16.859375 23.949219 C 16.773438 23.910156 16.667969 23.871094 16.617188 23.773438 C 16.585938 23.730469 16.570312 23.667969 16.570312 23.585938 C 16.570312 23.570312 16.570312 23.527344 16.699219 23.527344 C 16.714844 23.527344 16.730469 23.527344 16.738281 23.527344 C 16.746094 23.527344 16.753906 23.527344 16.761719 23.527344 C 16.820312 23.527344 16.851562 23.535156 16.933594 23.617188 C 16.972656 23.667969 16.992188 23.722656 17.007812 23.773438 "/>
<path style=" stroke:none;fill-rule:nonzero;fill:rgb(100%,100%,100%);fill-opacity:1;" d="M 17.792969 23.269531 C 17.792969 23.300781 17.785156 23.34375 17.769531 23.398438 C 17.753906 23.464844 17.730469 23.546875 17.730469 23.640625 C 17.730469 23.722656 17.699219 23.765625 17.6875 23.773438 C 17.671875 23.78125 17.65625 23.765625 17.648438 23.757812 C 17.640625 23.75 17.632812 23.722656 17.625 23.699219 C 17.601562 23.632812 17.574219 23.546875 17.535156 23.496094 C 17.527344 23.488281 17.519531 23.472656 17.511719 23.464844 C 17.460938 23.414062 17.496094 23.140625 17.527344 23.105469 C 17.574219 23.058594 17.609375 23.050781 17.707031 23.050781 C 17.746094 23.050781 17.777344 23.140625 17.785156 23.21875 C 17.792969 23.238281 17.792969 23.253906 17.792969 23.269531 "/>
<path style=" stroke:none;fill-rule:nonzero;fill:rgb(100%,100%,100%);fill-opacity:1;" d="M 15.179688 11.265625 C 15.179688 11.339844 15.171875 11.4375 15.164062 11.492188 C 15.15625 11.484375 15.140625 11.46875 15.121094 11.453125 C 15.074219 11.410156 15.027344 11.320312 15.015625 11.230469 C 15.058594 11.214844 15.132812 11.230469 15.179688 11.265625 "/>
</g>
</svg>
