<?xml version="1.0" encoding="UTF-8"?>
<svg xmlns="http://www.w3.org/2000/svg" xmlns:xlink="http://www.w3.org/1999/xlink" width="32px" height="32px" viewBox="0 0 32 32" version="1.1">
<g id="surface1">
<path style=" stroke:none;fill-rule:evenodd;fill:rgb(47.843137%,7.843137%,24.705882%);fill-opacity:1;" d="M 15.851562 0.574219 L 16.429688 0.574219 C 18.699219 0.605469 20.609375 1.027344 22.285156 1.660156 C 23.125 1.976562 23.882812 2.378906 24.609375 2.800781 C 25.699219 3.441406 26.652344 4.234375 27.519531 5.101562 C 28.378906 5.960938 29.152344 6.949219 29.8125 8.007812 C 30.699219 9.433594 31.46875 11.003906 31.960938 12.796875 C 31.960938 12.804688 31.957031 12.808594 31.953125 12.808594 C 31.441406 12.929688 30.933594 13.058594 30.414062 13.175781 C 30.75 14.210938 30.898438 15.472656 30.847656 16.84375 C 30.800781 18.125 30.535156 19.320312 30.1875 20.308594 C 29.828125 21.316406 29.347656 22.222656 28.8125 23.058594 C 28.273438 23.898438 27.65625 24.667969 26.972656 25.347656 C 26.972656 25.351562 26.96875 25.351562 26.96875 25.359375 C 27.300781 25.652344 27.65625 25.941406 28 26.234375 C 28.042969 26.273438 28.101562 26.304688 28.132812 26.359375 C 27.523438 27.136719 26.796875 27.824219 25.988281 28.414062 C 23.578125 30.1875 20.507812 31.351562 16.421875 31.425781 L 15.941406 31.425781 C 15.941406 31.421875 15.9375 31.417969 15.929688 31.417969 C 13.222656 31.394531 10.996094 30.792969 9.09375 29.921875 C 8.625 29.707031 8.167969 29.464844 7.730469 29.199219 C 6.429688 28.414062 5.273438 27.484375 4.34375 26.332031 L 4.34375 26.320312 C 4.726562 26.007812 5.101562 25.679688 5.484375 25.371094 C 5.410156 25.28125 5.324219 25.195312 5.242188 25.113281 C 4.984375 24.855469 4.753906 24.585938 4.53125 24.300781 C 3.640625 23.171875 2.875 21.878906 2.359375 20.390625 C 2.023438 19.402344 1.75 18.257812 1.699219 16.996094 C 1.640625 15.644531 1.808594 14.347656 2.09375 13.273438 C 2.097656 13.269531 0.710938 12.964844 0.0390625 12.777344 C 0.535156 10.957031 1.277344 9.34375 2.1875 7.921875 C 2.648438 7.210938 3.144531 6.542969 3.6875 5.917969 C 4.226562 5.292969 4.824219 4.726562 5.453125 4.1875 C 6.078125 3.65625 6.765625 3.164062 7.507812 2.738281 C 9.730469 1.464844 12.425781 0.625 15.851562 0.574219 "/>
<path style=" stroke:none;fill-rule:evenodd;fill:rgb(98.431373%,72.941176%,17.647059%);fill-opacity:1;" d="M 9.871094 6.988281 C 9.121094 7.628906 8.324219 8.304688 7.558594 8.960938 C 7.527344 8.984375 7.410156 9.085938 7.410156 9.101562 C 7.410156 9.097656 7.445312 9.140625 7.457031 9.15625 C 7.570312 9.308594 7.664062 9.480469 7.746094 9.644531 C 8.046875 10.246094 8.234375 10.898438 8.210938 11.816406 C 8.199219 12.371094 8.101562 12.886719 8.003906 13.371094 C 7.910156 13.855469 7.78125 14.316406 7.640625 14.773438 C 7.367188 15.664062 7.101562 16.644531 7.160156 17.804688 C 7.1875 18.339844 7.316406 18.820312 7.480469 19.25 C 7.640625 19.683594 7.847656 20.070312 8.0625 20.433594 C 8.28125 20.804688 8.535156 21.136719 8.800781 21.460938 C 9.0625 21.785156 9.328125 22.113281 9.613281 22.417969 C 9.898438 22.726562 10.1875 23.027344 10.503906 23.289062 C 10.988281 23.683594 11.523438 24.058594 12.144531 24.300781 C 12.359375 24.382812 12.589844 24.4375 12.820312 24.507812 C 13.253906 24.644531 13.695312 24.8125 14.078125 25.015625 C 14.859375 25.425781 15.460938 25.953125 16.097656 26.535156 C 16.699219 25.949219 17.289062 25.40625 18.0625 25.011719 C 18.246094 24.917969 18.453125 24.824219 18.664062 24.738281 C 18.871094 24.652344 19.085938 24.554688 19.300781 24.507812 C 19.539062 24.457031 19.761719 24.398438 19.980469 24.316406 C 21.039062 23.925781 21.792969 23.222656 22.5 22.46875 C 22.785156 22.164062 23.054688 21.851562 23.3125 21.53125 C 23.832031 20.886719 24.28125 20.167969 24.605469 19.335938 C 24.769531 18.910156 24.902344 18.457031 24.945312 17.925781 C 25.046875 16.792969 24.84375 15.726562 24.574219 14.867188 C 24.300781 14.003906 24.039062 13.039062 23.96875 11.980469 C 23.894531 10.8125 24.191406 9.925781 24.636719 9.183594 C 24.605469 9.128906 24.550781 9.089844 24.503906 9.046875 C 24.351562 8.90625 24.203125 8.773438 24.054688 8.636719 C 23.464844 8.082031 22.859375 7.535156 22.269531 6.988281 C 22.148438 7.113281 22.003906 7.253906 21.851562 7.367188 C 21.414062 7.691406 20.835938 7.921875 20.183594 8.023438 C 19.75 8.09375 19.175781 8.117188 18.730469 8.0625 C 18.277344 8.007812 18.007812 7.722656 18.066406 7.199219 L 14.066406 7.199219 C 14.164062 7.433594 14.113281 7.671875 13.996094 7.808594 C 13.875 7.949219 13.664062 8.027344 13.449219 8.0625 C 13.003906 8.136719 12.40625 8.132812 11.980469 8.054688 C 11.09375 7.886719 10.402344 7.488281 9.871094 6.988281 Z M 14.363281 7.386719 L 17.800781 7.386719 C 17.769531 7.90625 18.066406 8.191406 18.488281 8.296875 C 18.699219 8.351562 18.957031 8.359375 19.21875 8.367188 C 20.558594 8.410156 21.65625 8.074219 22.269531 7.390625 C 22.949219 7.980469 23.636719 8.558594 24.316406 9.148438 C 23.921875 9.898438 23.566406 10.734375 23.617188 11.859375 C 23.664062 12.90625 23.898438 13.875 24.171875 14.710938 C 24.316406 15.148438 24.457031 15.578125 24.542969 16.046875 C 24.632812 16.539062 24.65625 17.054688 24.652344 17.640625 C 24.648438 18.203125 24.539062 18.652344 24.386719 19.078125 C 23.9375 20.320312 23.175781 21.277344 22.359375 22.167969 C 22.085938 22.46875 21.816406 22.769531 21.503906 23.019531 C 21.195312 23.265625 20.832031 23.488281 20.472656 23.691406 C 20.109375 23.894531 19.71875 24.078125 19.308594 24.230469 C 19.097656 24.308594 18.878906 24.363281 18.664062 24.441406 C 17.726562 24.78125 16.949219 25.261719 16.285156 25.898438 C 16.253906 25.925781 16.21875 25.960938 16.175781 26.003906 C 16.152344 26.03125 16.074219 26.105469 16.070312 26.105469 C 16.058594 26.105469 15.988281 26.035156 15.957031 26.003906 C 15.710938 25.757812 15.421875 25.523438 15.152344 25.316406 C 14.820312 25.066406 14.464844 24.839844 14.085938 24.667969 C 13.292969 24.300781 12.371094 24.117188 11.632812 23.699219 C 10.90625 23.292969 10.308594 22.746094 9.75 22.164062 C 8.765625 21.140625 7.945312 19.972656 7.558594 18.367188 C 7.53125 18.25 7.511719 18.128906 7.492188 18.007812 C 7.46875 17.878906 7.464844 17.757812 7.46875 17.613281 C 7.484375 17.0625 7.535156 16.539062 7.628906 16.0625 C 7.722656 15.59375 7.863281 15.160156 8.003906 14.726562 C 8.144531 14.300781 8.246094 13.835938 8.339844 13.355469 C 8.433594 12.871094 8.507812 12.367188 8.542969 11.847656 C 8.578125 11.269531 8.523438 10.761719 8.378906 10.324219 C 8.234375 9.902344 8.050781 9.523438 7.816406 9.179688 C 8.476562 8.59375 9.132812 8.027344 9.800781 7.441406 C 9.820312 7.425781 9.867188 7.390625 9.863281 7.390625 C 9.878906 7.390625 9.929688 7.46875 9.957031 7.5 C 10.175781 7.742188 10.492188 7.929688 10.816406 8.0625 C 11.382812 8.292969 12.113281 8.402344 12.933594 8.378906 C 13.199219 8.371094 13.46875 8.363281 13.683594 8.316406 C 14.128906 8.226562 14.433594 7.964844 14.363281 7.398438 C 14.359375 7.398438 14.359375 7.386719 14.363281 7.386719 Z M 14.605469 7.609375 C 14.597656 7.609375 14.597656 7.617188 14.601562 7.621094 C 14.566406 8.121094 14.277344 8.402344 13.835938 8.511719 C 13.617188 8.566406 13.359375 8.585938 13.09375 8.597656 C 11.699219 8.664062 10.539062 8.359375 9.835938 7.726562 C 9.265625 8.222656 8.699219 8.722656 8.121094 9.21875 C 8.417969 9.710938 8.652344 10.265625 8.746094 10.964844 C 8.847656 11.691406 8.71875 12.476562 8.605469 13.140625 C 8.550781 13.480469 8.476562 13.800781 8.398438 14.117188 C 8.167969 15.066406 7.785156 15.910156 7.734375 17.007812 C 8.070312 16.273438 8.746094 14.796875 8.746094 14.796875 L 10.34375 14.796875 L 8.347656 19.226562 L 8.078125 19.226562 C 8.101562 19.339844 8.167969 19.457031 8.210938 19.558594 C 8.542969 20.304688 8.976562 20.910156 9.464844 21.488281 C 10.007812 22.132812 10.628906 22.761719 11.339844 23.242188 C 11.707031 23.492188 12.089844 23.703125 12.53125 23.863281 C 12.96875 24.023438 13.433594 24.140625 13.878906 24.332031 C 14.09375 24.425781 14.300781 24.519531 14.496094 24.621094 C 15.09375 24.933594 15.585938 25.347656 16.070312 25.773438 C 16.835938 25.03125 17.789062 24.453125 18.949219 24.105469 C 19.179688 24.039062 19.398438 23.953125 19.613281 23.863281 C 20.234375 23.597656 20.816406 23.257812 21.324219 22.863281 C 21.492188 22.730469 21.640625 22.578125 21.796875 22.425781 C 22.097656 22.121094 22.375 21.792969 22.660156 21.46875 C 23.222656 20.816406 23.734375 20.074219 24.078125 19.226562 L 22.488281 19.226562 L 24.183594 15.503906 C 24.183594 15.460938 24.15625 15.394531 24.140625 15.34375 C 24.09375 15.175781 24.035156 15.019531 23.984375 14.878906 C 23.324219 16.324219 22.023438 19.226562 22.023438 19.226562 L 20.398438 19.226562 C 20.398438 19.226562 21.390625 16.988281 21.890625 15.882812 C 22.054688 15.511719 22.386719 14.796875 22.386719 14.796875 L 23.960938 14.796875 C 23.710938 13.960938 23.445312 12.996094 23.398438 11.953125 C 23.34375 10.832031 23.644531 9.949219 24.023438 9.210938 C 23.453125 8.703125 22.859375 8.222656 22.289062 7.714844 C 21.726562 8.226562 20.882812 8.503906 19.863281 8.574219 C 19.355469 8.609375 18.761719 8.609375 18.347656 8.488281 C 17.921875 8.367188 17.640625 8.082031 17.582031 7.609375 Z M 16.089844 7.917969 C 16.132812 7.914062 16.175781 7.933594 16.210938 7.996094 C 16.304688 8.15625 16.53125 8.570312 16.578125 8.636719 C 16.625 8.699219 16.667969 8.757812 16.59375 8.753906 C 16.523438 8.746094 16.523438 8.75 16.46875 8.75 C 16.414062 8.75 16.386719 8.789062 16.449219 8.84375 C 16.515625 8.902344 16.902344 9.375 16.914062 9.398438 C 16.921875 9.421875 16.988281 9.546875 16.914062 9.546875 C 16.839844 9.546875 16.832031 9.558594 16.757812 9.554688 C 16.683594 9.546875 16.683594 9.570312 16.710938 9.660156 C 16.742188 9.746094 17.039062 10.042969 17.078125 10.113281 C 17.117188 10.1875 17.179688 10.292969 17.121094 10.324219 C 17.039062 10.367188 17.03125 10.355469 16.992188 10.375 C 16.957031 10.394531 16.929688 10.40625 16.972656 10.457031 C 17.042969 10.53125 17.195312 10.660156 17.253906 10.734375 C 17.308594 10.804688 17.40625 10.917969 17.3125 10.980469 C 17.222656 11.046875 17.164062 11.050781 17.222656 11.136719 C 17.277344 11.226562 17.429688 11.402344 17.46875 11.457031 C 17.503906 11.511719 17.597656 11.539062 17.660156 11.480469 C 17.695312 11.445312 17.726562 11.390625 17.742188 11.359375 C 17.761719 11.324219 17.769531 11.285156 17.722656 11.285156 C 17.675781 11.285156 17.667969 11.292969 17.601562 11.296875 C 17.539062 11.296875 17.472656 11.269531 17.554688 11.164062 C 17.636719 11.058594 17.992188 10.683594 18.027344 10.640625 C 18.0625 10.601562 18.082031 10.550781 18.023438 10.542969 C 17.96875 10.539062 17.9375 10.523438 17.925781 10.488281 C 17.917969 10.457031 17.957031 10.417969 17.976562 10.359375 C 18 10.296875 18.285156 9.929688 18.332031 9.832031 C 18.378906 9.730469 18.527344 9.433594 18.542969 9.359375 C 18.5625 9.285156 18.601562 9.214844 18.664062 9.351562 C 18.699219 9.4375 19.195312 10.164062 19.25 10.246094 C 19.308594 10.324219 19.324219 10.429688 19.238281 10.429688 C 19.15625 10.429688 19.175781 10.429688 19.109375 10.421875 C 19.042969 10.414062 18.992188 10.429688 19.058594 10.515625 C 19.125 10.601562 19.375 11.003906 19.421875 11.050781 C 19.46875 11.097656 19.511719 11.210938 19.429688 11.210938 C 19.347656 11.214844 19.375 11.207031 19.320312 11.214844 C 19.265625 11.222656 19.21875 11.238281 19.257812 11.320312 C 19.296875 11.398438 19.558594 11.710938 19.605469 11.800781 C 19.652344 11.886719 19.773438 11.957031 19.660156 11.960938 C 19.550781 11.960938 19.546875 11.972656 19.460938 11.972656 C 19.378906 11.972656 19.332031 12.054688 19.398438 12.101562 C 19.460938 12.152344 19.589844 12.257812 19.625 12.316406 C 19.664062 12.371094 19.691406 12.484375 19.738281 12.53125 C 19.789062 12.578125 19.835938 12.628906 19.882812 12.6875 C 19.929688 12.742188 19.902344 12.84375 19.832031 12.796875 C 19.753906 12.746094 19.644531 12.703125 19.605469 12.664062 C 19.570312 12.625 19.542969 12.625 19.519531 12.683594 C 19.492188 12.738281 19.472656 12.789062 19.472656 12.789062 C 19.472656 12.789062 19.429688 12.847656 19.378906 12.824219 C 19.28125 12.773438 19.3125 12.757812 19.257812 12.726562 C 19.199219 12.691406 19.203125 12.703125 19.199219 12.757812 C 19.191406 12.816406 19.125 12.917969 19.007812 12.828125 C 18.953125 12.785156 18.917969 12.746094 18.878906 12.753906 C 18.84375 12.761719 18.832031 12.789062 18.835938 12.871094 C 18.835938 12.949219 18.757812 13.09375 18.847656 13.164062 C 18.925781 13.222656 19.003906 13.21875 19.066406 13.226562 C 19.132812 13.230469 19.21875 13.265625 19.300781 13.308594 C 19.390625 13.355469 19.34375 13.285156 19.503906 13.339844 C 19.660156 13.394531 19.992188 13.539062 20.167969 13.601562 C 20.347656 13.664062 20.5 13.777344 20.621094 13.832031 C 20.738281 13.886719 20.933594 14.007812 20.71875 13.984375 C 20.507812 13.964844 18.992188 13.988281 18.683594 13.992188 C 18.378906 13.996094 12.09375 13.992188 11.992188 13.992188 C 11.734375 13.992188 11.828125 13.929688 11.933594 13.847656 C 12.019531 13.789062 12.257812 13.625 12.386719 13.574219 C 12.511719 13.527344 12.960938 13.382812 13.15625 13.308594 C 13.347656 13.230469 13.710938 13.21875 13.738281 13.128906 C 13.769531 13.039062 13.765625 12.988281 13.726562 12.941406 C 13.691406 12.894531 13.707031 12.871094 13.625 12.863281 C 13.539062 12.855469 13.46875 12.929688 13.433594 12.984375 C 13.398438 13.042969 13.324219 13.042969 13.285156 13.003906 C 13.25 12.964844 13.257812 12.914062 13.136719 12.925781 C 13.019531 12.933594 12.898438 12.960938 12.84375 12.960938 C 12.785156 12.960938 12.730469 12.945312 12.738281 12.90625 C 12.746094 12.871094 12.757812 12.839844 12.792969 12.78125 C 12.828125 12.726562 12.832031 12.707031 12.746094 12.710938 C 12.664062 12.710938 12.652344 12.738281 12.53125 12.730469 C 12.414062 12.722656 12.394531 12.660156 12.476562 12.609375 C 12.558594 12.5625 12.921875 12.25 12.960938 12.226562 C 12.996094 12.199219 13.003906 12.175781 12.960938 12.160156 C 12.839844 12.121094 12.820312 12.128906 12.738281 12.105469 C 12.652344 12.082031 12.636719 12.027344 12.691406 11.960938 C 12.742188 11.898438 13.027344 11.59375 13.078125 11.542969 C 13.136719 11.496094 13.121094 11.410156 13.054688 11.410156 C 12.992188 11.410156 13.011719 11.421875 12.96875 11.417969 C 12.882812 11.40625 12.871094 11.316406 12.925781 11.242188 C 13.054688 11.074219 13.289062 10.726562 13.308594 10.675781 C 13.328125 10.625 13.320312 10.574219 13.28125 10.570312 C 13.214844 10.566406 13.242188 10.566406 13.160156 10.566406 C 13.074219 10.5625 13.03125 10.507812 13.082031 10.414062 C 13.167969 10.257812 13.546875 9.597656 13.605469 9.414062 C 13.621094 9.363281 13.628906 9.3125 13.6875 9.386719 C 13.742188 9.457031 14.3125 10.113281 14.363281 10.1875 C 14.425781 10.285156 14.449219 10.394531 14.414062 10.425781 C 14.375 10.460938 14.339844 10.492188 14.296875 10.492188 C 14.269531 10.492188 14.265625 10.519531 14.304688 10.558594 C 14.34375 10.597656 14.605469 10.84375 14.660156 10.894531 C 14.714844 10.9375 14.726562 10.980469 14.691406 11.019531 C 14.652344 11.058594 14.609375 11.082031 14.617188 11.125 C 14.625 11.179688 14.734375 11.324219 14.824219 11.246094 C 14.863281 11.207031 15.011719 11.03125 15.039062 10.996094 C 15.066406 10.964844 15.09375 10.929688 15.027344 10.933594 C 14.960938 10.933594 14.867188 10.90625 14.8125 10.875 C 14.757812 10.84375 14.75 10.792969 14.804688 10.726562 C 14.859375 10.664062 15.199219 10.257812 15.253906 10.203125 C 15.324219 10.140625 15.347656 10.0625 15.253906 10.066406 C 15.148438 10.070312 15.183594 10.066406 15.109375 10.085938 C 15.035156 10.101562 14.941406 10.101562 15.0625 9.972656 C 15.128906 9.902344 15.378906 9.640625 15.417969 9.574219 C 15.453125 9.507812 15.464844 9.457031 15.417969 9.457031 C 15.371094 9.457031 15.339844 9.46875 15.289062 9.476562 C 15.230469 9.488281 15.203125 9.398438 15.265625 9.359375 C 15.4375 9.246094 15.65625 8.914062 15.703125 8.824219 C 15.734375 8.765625 15.722656 8.726562 15.671875 8.75 C 15.546875 8.8125 15.484375 8.761719 15.539062 8.6875 C 15.59375 8.613281 15.898438 8.082031 15.921875 8.039062 C 15.949219 7.984375 16.019531 7.921875 16.089844 7.917969 Z M 15.09375 12.65625 C 15.039062 12.675781 14.910156 12.910156 14.746094 12.878906 C 14.679688 12.867188 14.699219 12.753906 14.625 12.761719 C 14.519531 12.773438 14.449219 12.945312 14.351562 12.945312 C 14.269531 12.945312 14.269531 12.925781 14.203125 12.878906 C 14.140625 12.828125 14.117188 12.96875 14.132812 13.03125 C 14.144531 13.078125 14.148438 13.113281 14.25 13.113281 C 14.351562 13.109375 14.363281 13.09375 14.480469 13.089844 C 14.601562 13.089844 14.605469 13.152344 14.644531 13.175781 C 14.679688 13.199219 14.730469 13.246094 14.8125 13.242188 C 14.894531 13.242188 15.816406 13.023438 15.949219 12.925781 C 16 12.890625 15.96875 12.757812 15.941406 12.734375 C 15.878906 12.6875 15.527344 12.996094 15.394531 13.011719 C 15.277344 13.027344 15.234375 13.046875 15.160156 12.976562 C 15.085938 12.90625 15.121094 12.664062 15.101562 12.65625 C 15.097656 12.65625 15.097656 12.65625 15.09375 12.65625 Z M 17.074219 12.667969 C 16.960938 12.6875 16.960938 12.761719 16.863281 12.789062 C 16.769531 12.8125 16.554688 12.65625 16.46875 12.675781 C 16.4375 12.6875 16.417969 12.746094 16.425781 12.78125 C 16.4375 12.8125 16.441406 13.007812 16.496094 13.070312 C 16.527344 13.105469 16.792969 13.03125 16.929688 13.074219 C 17.097656 13.125 17.164062 13.199219 17.25 13.1875 C 17.371094 13.171875 17.570312 12.972656 17.746094 12.984375 C 17.9375 12.996094 18.144531 13.152344 18.269531 13.160156 C 18.382812 13.167969 18.371094 13.105469 18.371094 13.066406 C 18.371094 13.023438 18.265625 12.980469 18.226562 12.941406 C 18.191406 12.902344 18.132812 12.777344 18.050781 12.773438 C 17.917969 12.761719 17.867188 12.867188 17.773438 12.84375 C 17.675781 12.816406 17.734375 12.746094 17.644531 12.726562 C 17.609375 12.714844 17.578125 12.769531 17.539062 12.773438 C 17.421875 12.785156 17.183594 12.652344 17.074219 12.667969 Z M 16.144531 14.519531 C 16.386719 14.519531 16.558594 14.542969 16.699219 14.582031 C 17.214844 14.722656 17.652344 14.941406 18.003906 15.230469 C 18.472656 15.613281 18.824219 16.191406 18.773438 17.054688 C 18.726562 17.890625 18.480469 18.480469 18.042969 18.921875 C 17.527344 19.441406 16.613281 19.835938 15.613281 19.621094 C 14.371094 19.359375 13.613281 18.578125 13.566406 17.117188 C 13.539062 16.265625 13.878906 15.667969 14.316406 15.261719 C 14.644531 14.957031 15.089844 14.726562 15.601562 14.585938 C 15.773438 14.542969 15.914062 14.519531 16.144531 14.519531 Z M 10.820312 14.789062 L 12.457031 14.796875 C 12.457031 14.796875 11.117188 17.746094 10.441406 19.226562 C 9.9375 19.21875 9.355469 19.21875 8.832031 19.226562 C 8.828125 19.179688 8.863281 19.136719 8.878906 19.09375 C 9.53125 17.671875 10.820312 14.789062 10.820312 14.789062 Z M 12.890625 14.796875 L 14.371094 14.796875 C 14.335938 14.824219 14.335938 14.839844 14.324219 14.847656 C 14.011719 15.113281 13.71875 15.457031 13.539062 15.847656 C 13.355469 16.242188 13.285156 16.6875 13.285156 17.265625 C 13.285156 17.339844 13.300781 17.421875 13.289062 17.496094 L 12.472656 19.226562 L 10.894531 19.226562 Z M 17.980469 14.796875 L 19.957031 14.796875 L 19.085938 16.636719 C 18.917969 15.8125 18.527344 15.238281 17.980469 14.796875 Z M 20.359375 14.796875 L 21.980469 14.796875 L 20 19.226562 L 18.386719 19.226562 Z M 13.421875 18.066406 C 13.605469 18.535156 13.84375 18.917969 14.183594 19.226562 L 12.929688 19.226562 Z M 13.308594 19.40625 C 13.472656 19.40625 13.636719 19.449219 13.632812 19.585938 C 13.855469 19.582031 14.121094 19.542969 14.289062 19.621094 C 14.367188 19.660156 14.464844 19.769531 14.460938 19.871094 C 14.453125 19.984375 14.320312 20.121094 14.246094 20.183594 C 14.199219 20.226562 14.15625 20.261719 14.09375 20.296875 C 14.035156 20.332031 13.960938 20.335938 13.898438 20.363281 C 13.847656 20.390625 13.800781 20.457031 13.75 20.511719 C 13.710938 20.546875 13.636719 20.640625 13.601562 20.648438 C 13.554688 20.664062 13.476562 20.652344 13.414062 20.65625 C 13.347656 20.65625 13.28125 20.660156 13.226562 20.660156 C 13.101562 20.660156 12.96875 20.652344 12.859375 20.671875 C 12.773438 20.679688 12.695312 20.726562 12.632812 20.753906 C 12.566406 20.789062 12.503906 20.824219 12.457031 20.886719 L 12.457031 22.128906 L 14.554688 22.128906 C 14.5625 22.070312 14.554688 21.988281 14.558594 21.921875 L 15.191406 21.921875 L 15.191406 20.269531 L 15.316406 20.269531 C 15.511719 19.863281 16.328125 19.785156 16.710938 19.851562 C 16.816406 19.871094 16.820312 19.894531 16.816406 19.945312 C 16.816406 20.03125 16.699219 20.015625 16.648438 20.03125 C 16.570312 20.046875 16.496094 20.0625 16.4375 20.074219 C 16.289062 20.097656 16.125 20.078125 15.972656 20.109375 C 15.835938 20.136719 15.691406 20.203125 15.613281 20.273438 L 15.613281 21.082031 C 15.648438 21.09375 15.703125 21.085938 15.742188 21.085938 L 15.742188 21.699219 L 15.8125 21.699219 C 15.824219 21.644531 15.8125 21.570312 15.816406 21.503906 L 15.996094 21.503906 L 15.996094 20.789062 C 15.980469 20.773438 15.929688 20.792969 15.914062 20.777344 L 15.914062 20.300781 L 16.886719 20.300781 C 16.972656 20.207031 17.050781 20.105469 17.140625 20.015625 C 17.261719 19.890625 17.398438 19.742188 17.597656 19.6875 C 17.664062 19.667969 17.738281 19.679688 17.816406 19.660156 C 17.851562 19.652344 17.890625 19.621094 17.929688 19.601562 C 18.039062 19.550781 18.164062 19.496094 18.320312 19.484375 C 18.523438 19.472656 18.78125 19.527344 18.882812 19.597656 C 18.980469 19.667969 19.003906 19.667969 18.898438 19.746094 C 18.789062 19.828125 18.675781 19.785156 18.570312 19.804688 C 18.574219 20.011719 18.285156 19.949219 18.121094 19.933594 C 18.070312 20.007812 18.039062 20.082031 17.960938 20.136719 C 17.816406 20.246094 17.558594 20.214844 17.367188 20.15625 C 17.285156 20.238281 17.210938 20.328125 17.140625 20.421875 C 17.140625 20.628906 17.136719 20.878906 17.132812 21.101562 L 17.773438 21.101562 L 17.773438 21.246094 L 18.480469 21.246094 L 18.480469 21.628906 C 18.523438 21.640625 18.589844 21.628906 18.640625 21.632812 L 18.640625 21.886719 C 18.675781 21.898438 18.738281 21.886719 18.785156 21.890625 L 18.785156 22.003906 L 18.941406 22.003906 C 18.957031 21.601562 19.351562 21.433594 19.761719 21.503906 C 20.035156 21.554688 20.230469 21.714844 20.195312 22.035156 L 20.996094 22.035156 L 20.992188 22.933594 L 11.03125 22.933594 L 11.019531 22.175781 L 11.546875 22.15625 L 11.542969 20.753906 C 11.542969 20.691406 11.566406 20.613281 11.578125 20.558594 C 11.59375 20.496094 11.683594 20.421875 11.726562 20.378906 C 11.882812 20.210938 12.074219 20.0625 12.359375 20.042969 C 12.40625 20.042969 12.472656 20.054688 12.515625 20.042969 C 12.566406 20.035156 12.601562 19.976562 12.648438 19.949219 C 12.707031 19.914062 12.761719 19.898438 12.820312 19.863281 C 12.855469 19.71875 12.910156 19.503906 13.054688 19.445312 C 13.113281 19.425781 13.210938 19.40625 13.308594 19.40625 Z M 13.269531 20.042969 C 13.183594 20.046875 12.992188 20.085938 12.925781 20.125 C 12.863281 20.164062 12.824219 20.285156 12.761719 20.308594 C 12.71875 20.324219 12.648438 20.3125 12.59375 20.3125 C 12.421875 20.3125 12.261719 20.300781 12.105469 20.285156 C 12.066406 20.324219 12.027344 20.367188 11.980469 20.414062 C 11.945312 20.453125 11.871094 20.511719 11.863281 20.554688 C 11.847656 20.605469 11.863281 20.683594 11.863281 20.75 C 11.847656 21.191406 11.855469 21.699219 11.847656 22.128906 C 11.957031 22.125 12.082031 22.136719 12.183594 22.125 L 12.183594 20.832031 L 12.296875 20.832031 C 12.425781 20.71875 12.585938 20.632812 12.746094 20.558594 C 12.800781 20.53125 12.863281 20.511719 12.910156 20.480469 C 12.957031 20.457031 12.980469 20.410156 13.019531 20.382812 C 13.054688 20.351562 13.097656 20.320312 13.144531 20.296875 C 13.195312 20.273438 13.265625 20.28125 13.324219 20.253906 C 13.382812 20.226562 13.429688 20.15625 13.433594 20.082031 C 13.386719 20.054688 13.332031 20.042969 13.269531 20.042969 Z M 13.269531 20.042969 "/>
<path style=" stroke:none;fill-rule:evenodd;fill:rgb(98.431373%,72.941176%,17.647059%);fill-opacity:1;" d="M 16.277344 1.046875 C 16.105469 1.046875 15.933594 1.050781 15.765625 1.058594 C 15.34375 1.078125 14.953125 1.089844 14.566406 1.121094 C 13.019531 1.246094 11.601562 1.5625 10.363281 1.996094 C 8.691406 2.582031 7.25 3.394531 5.988281 4.402344 C 4.730469 5.40625 3.640625 6.566406 2.722656 7.914062 C 1.804688 9.25 1.050781 10.714844 0.523438 12.4375 C 0.617188 12.445312 0.714844 12.511719 0.789062 12.503906 C 1.324219 10.863281 2.058594 9.382812 2.957031 8.078125 C 3.855469 6.773438 4.878906 5.613281 6.101562 4.628906 C 8.21875 2.917969 10.839844 1.664062 14.386719 1.371094 C 15.40625 1.285156 16.542969 1.296875 17.550781 1.375 C 18.058594 1.414062 18.542969 1.484375 19.015625 1.5625 C 20.894531 1.878906 22.492188 2.472656 23.910156 3.261719 C 26.027344 4.441406 27.699219 6.0625 29.023438 8.042969 C 29.910156 9.363281 30.636719 10.839844 31.128906 12.53125 C 31.132812 12.535156 31.136719 12.539062 31.140625 12.539062 C 31.238281 12.511719 31.328125 12.484375 31.425781 12.460938 C 30.902344 10.773438 30.164062 9.289062 29.273438 7.953125 C 28.382812 6.628906 27.347656 5.4375 26.128906 4.441406 C 24.007812 2.707031 21.355469 1.417969 17.796875 1.121094 C 17.304688 1.078125 16.792969 1.046875 16.277344 1.046875 Z M 15.980469 1.550781 C 15.695312 1.550781 15.40625 1.554688 15.113281 1.566406 C 13.234375 1.648438 11.554688 2.011719 10.125 2.550781 C 7.042969 3.714844 4.796875 5.726562 3.074219 8.261719 C 2.210938 9.527344 1.503906 10.949219 1.003906 12.566406 C 2.144531 12.839844 3.273438 13.121094 4.417969 13.394531 C 4.78125 12.082031 5.339844 10.9375 6.003906 9.917969 C 7.332031 7.875 9.140625 6.308594 11.628906 5.417969 C 12.882812 4.96875 14.328125 4.726562 16.003906 4.726562 C 17.636719 4.726562 19.101562 4.984375 20.351562 5.421875 C 22.253906 6.089844 23.71875 7.101562 24.929688 8.4375 C 25.332031 8.882812 25.710938 9.359375 26.039062 9.863281 C 26.703125 10.894531 27.265625 12.027344 27.601562 13.363281 C 28.667969 13.121094 29.75 12.863281 30.804688 12.613281 C 30.828125 12.609375 30.875 12.609375 30.886719 12.578125 C 30.65625 11.71875 30.339844 10.921875 29.988281 10.175781 C 29.636719 9.433594 29.230469 8.730469 28.789062 8.078125 C 27.902344 6.765625 26.855469 5.613281 25.621094 4.648438 C 24.390625 3.6875 22.972656 2.90625 21.308594 2.359375 C 19.796875 1.863281 17.980469 1.554688 15.980469 1.550781 Z M 16.085938 4.914062 C 15.984375 4.914062 15.878906 4.914062 15.78125 4.921875 C 15.375 4.9375 14.992188 4.941406 14.621094 4.976562 C 12.039062 5.230469 10.0625 6.132812 8.496094 7.414062 C 7.59375 8.152344 6.855469 9.027344 6.199219 10.007812 C 5.539062 10.988281 4.992188 12.164062 4.636719 13.421875 C 4.730469 13.460938 4.867188 13.488281 4.96875 13.519531 C 5.328125 12.273438 5.832031 11.132812 6.476562 10.167969 C 7.773438 8.226562 9.457031 6.726562 11.835938 5.863281 C 13.027344 5.433594 14.398438 5.179688 15.980469 5.179688 C 19.175781 5.179688 21.472656 6.132812 23.269531 7.554688 C 24.167969 8.265625 24.914062 9.136719 25.550781 10.105469 C 26.191406 11.074219 26.707031 12.1875 27.042969 13.445312 C 27.125 13.433594 27.257812 13.417969 27.335938 13.386719 C 26.984375 12.089844 26.449219 10.941406 25.789062 9.933594 C 24.464844 7.933594 22.65625 6.386719 20.164062 5.550781 C 19.546875 5.34375 18.878906 5.175781 18.140625 5.070312 C 17.53125 4.984375 16.800781 4.90625 16.085938 4.914062 Z M 6.042969 11.632812 C 5.929688 11.917969 5.824219 12.214844 5.722656 12.511719 C 6.132812 12.285156 6.546875 12.058594 6.957031 11.832031 C 6.648438 11.765625 6.34375 11.699219 6.042969 11.632812 Z M 26.140625 11.675781 C 25.835938 11.734375 25.542969 11.808594 25.234375 11.867188 C 25.621094 12.105469 26.03125 12.320312 26.425781 12.554688 C 26.347656 12.292969 26.261719 12.023438 26.183594 11.773438 C 26.171875 11.738281 26.164062 11.6875 26.140625 11.675781 Z M 6.628906 13.164062 C 6.234375 13.394531 5.1875 13.996094 5.1875 13.996094 C 5.1875 13.996094 3.324219 13.558594 2.496094 13.347656 C 2.269531 14.371094 2.101562 15.476562 2.101562 16.714844 C 2.101562 17.984375 2.292969 19.082031 2.628906 20.003906 C 3.300781 21.867188 4.34375 23.386719 5.515625 24.734375 C 6.125 24.234375 7.46875 23.171875 7.46875 23.171875 C 7.46875 23.171875 8.683594 23.160156 9.183594 23.171875 C 9.1875 23.148438 9.160156 23.136719 9.148438 23.125 C 8.574219 22.578125 8.078125 21.992188 7.621094 21.332031 C 6.679688 19.992188 5.980469 18.355469 6.078125 16.03125 C 6.125 14.953125 6.347656 13.984375 6.628906 13.164062 Z M 25.835938 13.164062 C 25.988281 13.59375 26.105469 14.050781 26.214844 14.535156 C 26.320312 15.007812 26.40625 15.519531 26.4375 16.042969 C 26.46875 16.617188 26.472656 17.179688 26.402344 17.695312 C 26.332031 18.203125 26.210938 18.652344 26.054688 19.078125 C 25.746094 19.898438 25.3125 20.648438 24.828125 21.316406 C 24.359375 21.96875 23.835938 22.566406 23.277344 23.121094 C 23.261719 23.136719 23.230469 23.160156 23.242188 23.171875 L 24.757812 23.171875 C 24.835938 23.171875 24.921875 23.160156 24.980469 23.171875 C 25.007812 23.179688 25.0625 23.230469 25.101562 23.261719 C 25.710938 23.757812 26.316406 24.25 26.914062 24.734375 C 27.820312 23.734375 28.632812 22.605469 29.292969 21.351562 C 29.511719 20.929688 29.71875 20.476562 29.878906 20.015625 C 30.042969 19.550781 30.191406 19.042969 30.277344 18.488281 C 30.363281 17.929688 30.398438 17.320312 30.386719 16.691406 C 30.363281 15.441406 30.179688 14.328125 29.917969 13.316406 C 29.03125 13.527344 28.152344 13.742188 27.273438 13.957031 C 26.792969 13.691406 26.316406 13.425781 25.835938 13.164062 Z M 9.398438 23.65625 C 9.269531 23.65625 9.140625 23.660156 9.007812 23.660156 C 9.347656 23.894531 9.667969 24.140625 10.007812 24.371094 C 10.171875 24.167969 10.347656 23.953125 10.507812 23.753906 C 10.53125 23.726562 10.574219 23.699219 10.570312 23.675781 C 10.179688 23.671875 9.789062 23.660156 9.398438 23.65625 Z M 21.960938 23.675781 C 21.828125 23.675781 21.695312 23.675781 21.566406 23.679688 C 21.777344 23.898438 21.972656 24.136719 22.191406 24.347656 C 22.488281 24.140625 22.804688 23.917969 23.105469 23.71875 C 23.121094 23.703125 23.15625 23.6875 23.144531 23.675781 C 22.753906 23.679688 22.351562 23.671875 21.960938 23.675781 Z M 24.230469 23.703125 C 23.265625 24.558594 22.113281 25.292969 20.804688 25.8125 C 20.144531 26.074219 19.449219 26.292969 18.695312 26.445312 C 17.925781 26.605469 17.128906 26.695312 16.21875 26.71875 C 15.328125 26.742188 14.496094 26.636719 13.75 26.464844 C 12.996094 26.292969 12.3125 26.0625 11.667969 25.796875 C 10.378906 25.265625 9.242188 24.542969 8.238281 23.734375 C 8.179688 23.777344 8.109375 23.867188 8.046875 23.90625 C 8.691406 24.503906 9.761719 25.324219 11.519531 26.066406 C 12.523438 26.488281 13.613281 26.804688 14.890625 26.941406 C 16.21875 27.078125 17.640625 26.964844 18.773438 26.710938 C 20.324219 26.363281 21.640625 25.804688 22.8125 25.085938 C 23.40625 24.726562 23.964844 24.339844 24.449219 23.886719 Z M 24.660156 24.054688 C 23.664062 24.957031 22.449219 25.699219 21.066406 26.25 C 20.378906 26.523438 19.644531 26.761719 18.847656 26.929688 C 18.046875 27.101562 17.167969 27.21875 16.238281 27.21875 C 14.316406 27.21875 12.792969 26.816406 11.425781 26.238281 C 10.058594 25.667969 8.855469 24.929688 7.8125 24.058594 L 7.800781 24.058594 C 6.992188 24.726562 6.164062 25.414062 5.355469 26.101562 C 5.945312 26.777344 6.640625 27.355469 7.394531 27.878906 C 9.265625 29.175781 11.539062 30.105469 14.410156 30.398438 C 15.558594 30.519531 16.917969 30.507812 18.046875 30.386719 C 20.351562 30.140625 22.261719 29.507812 23.914062 28.625 C 25.152344 27.960938 26.261719 27.144531 27.148438 26.136719 C 26.316406 25.441406 25.496094 24.742188 24.660156 24.054688 Z M 5.195312 26.246094 L 4.984375 26.40625 C 5.585938 27.109375 6.292969 27.730469 7.074219 28.273438 C 7.851562 28.8125 8.695312 29.285156 9.617188 29.683594 C 11.464844 30.480469 13.625 30.980469 16.234375 30.980469 C 18.8125 30.980469 20.976562 30.46875 22.828125 29.683594 C 23.75 29.292969 24.609375 28.820312 25.382812 28.28125 C 26.167969 27.738281 26.886719 27.132812 27.496094 26.433594 L 27.285156 26.261719 C 27.214844 26.335938 27.171875 26.398438 27.09375 26.488281 C 26.863281 26.742188 26.613281 26.976562 26.351562 27.203125 C 25.308594 28.105469 24.109375 28.84375 22.742188 29.433594 C 20.949219 30.203125 18.792969 30.71875 16.265625 30.71875 C 12.472656 30.71875 9.53125 29.644531 7.257812 28.074219 C 6.492188 27.542969 5.792969 26.9375 5.195312 26.246094 Z M 5.195312 26.246094 "/>
<path style=" stroke:none;fill-rule:evenodd;fill:rgb(47.843137%,7.843137%,24.705882%);fill-opacity:1;" d="M 15.335938 1.996094 C 15.433594 2.746094 15.566406 3.503906 15.679688 4.257812 C 15.882812 4.265625 16.085938 4.269531 16.285156 4.28125 C 16.425781 3.824219 16.554688 3.351562 16.695312 2.894531 C 16.792969 3.367188 16.890625 3.835938 16.980469 4.308594 C 17.183594 4.320312 17.40625 4.328125 17.59375 4.335938 C 17.769531 3.59375 17.949219 2.855469 18.128906 2.113281 C 17.9375 2.101562 17.734375 2.097656 17.542969 2.085938 C 17.453125 2.492188 17.371094 2.914062 17.277344 3.320312 C 17.191406 2.902344 17.105469 2.480469 17.019531 2.066406 C 16.820312 2.058594 16.632812 2.046875 16.433594 2.046875 C 16.316406 2.457031 16.199219 2.867188 16.074219 3.265625 C 16.023438 2.855469 15.96875 2.441406 15.921875 2.023438 C 15.730469 2.007812 15.53125 2.003906 15.335938 1.996094 Z M 14.109375 2.183594 C 14.074219 2.183594 14.042969 2.183594 14.007812 2.1875 C 13.609375 2.210938 13.238281 2.3125 12.835938 2.34375 C 12.933594 3.085938 13.039062 3.820312 13.136719 4.566406 C 13.347656 4.546875 13.546875 4.511719 13.753906 4.488281 C 13.710938 4.1875 13.671875 3.882812 13.632812 3.582031 C 13.84375 3.535156 13.910156 3.667969 13.992188 3.792969 C 14.085938 3.941406 14.164062 4.046875 14.261719 4.191406 C 14.289062 4.230469 14.363281 4.382812 14.402344 4.394531 C 14.441406 4.40625 14.523438 4.382812 14.574219 4.375 C 14.753906 4.351562 14.921875 4.328125 15.085938 4.304688 C 14.996094 4.164062 14.90625 4.007812 14.808594 3.855469 C 14.691406 3.671875 14.5625 3.457031 14.324219 3.40625 C 14.539062 3.3125 14.699219 3.164062 14.71875 2.894531 C 14.742188 2.535156 14.570312 2.210938 14.210938 2.1875 C 14.179688 2.183594 14.144531 2.183594 14.109375 2.183594 Z M 18.871094 2.257812 C 18.6875 2.980469 18.511719 3.707031 18.339844 4.441406 C 18.886719 4.570312 19.429688 4.703125 19.976562 4.835938 C 20.019531 4.671875 20.058594 4.503906 20.101562 4.335938 C 19.75 4.257812 19.40625 4.171875 19.0625 4.085938 C 19.097656 3.945312 19.128906 3.800781 19.167969 3.664062 C 19.484375 3.734375 19.792969 3.8125 20.101562 3.890625 C 20.136719 3.742188 20.175781 3.59375 20.203125 3.441406 C 19.894531 3.363281 19.578125 3.292969 19.277344 3.210938 C 19.304688 3.097656 19.328125 2.976562 19.363281 2.871094 C 19.703125 2.949219 20.03125 3.03125 20.367188 3.113281 C 20.402344 2.953125 20.445312 2.800781 20.480469 2.640625 C 19.9375 2.519531 19.410156 2.382812 18.871094 2.257812 Z M 11.976562 2.515625 C 11.457031 2.691406 10.9375 2.859375 10.414062 3.03125 C 10.644531 3.75 10.882812 4.457031 11.121094 5.164062 C 11.652344 4.988281 12.183594 4.8125 12.71875 4.636719 C 12.664062 4.472656 12.617188 4.300781 12.554688 4.148438 C 12.222656 4.261719 11.871094 4.386719 11.542969 4.484375 C 11.503906 4.339844 11.449219 4.207031 11.410156 4.066406 C 11.71875 3.96875 12.015625 3.863281 12.316406 3.765625 C 12.277344 3.613281 12.222656 3.480469 12.175781 3.332031 C 11.867188 3.425781 11.570312 3.535156 11.261719 3.632812 C 11.230469 3.515625 11.1875 3.410156 11.152344 3.296875 C 11.480469 3.183594 11.8125 3.082031 12.136719 2.964844 C 12.078125 2.820312 12.042969 2.652344 11.976562 2.515625 Z M 13.886719 2.664062 C 13.929688 2.664062 13.96875 2.671875 14.007812 2.691406 C 14.113281 2.746094 14.140625 2.960938 14.039062 3.050781 C 13.929688 3.140625 13.746094 3.128906 13.574219 3.160156 C 13.554688 3.007812 13.53125 2.863281 13.515625 2.710938 C 13.625 2.71875 13.761719 2.660156 13.886719 2.664062 Z M 21.246094 2.894531 C 20.964844 3.582031 20.691406 4.277344 20.425781 4.976562 C 20.914062 5.167969 21.402344 5.367188 21.894531 5.554688 C 21.960938 5.382812 22.035156 5.21875 22.09375 5.042969 C 21.800781 4.921875 21.492188 4.8125 21.199219 4.683594 C 21.410156 4.160156 21.613281 3.636719 21.820312 3.113281 C 21.625 3.042969 21.445312 2.960938 21.246094 2.894531 Z M 9.597656 3.335938 C 9.421875 3.4375 9.242188 3.539062 9.066406 3.636719 C 9.1875 3.871094 9.328125 4.085938 9.445312 4.320312 C 9.253906 4.433594 9.0625 4.546875 8.859375 4.652344 C 8.738281 4.421875 8.605469 4.199219 8.480469 3.972656 C 8.296875 4.066406 8.125 4.175781 7.941406 4.273438 C 8.300781 4.929688 8.679688 5.574219 9.039062 6.230469 C 9.222656 6.132812 9.394531 6.023438 9.578125 5.929688 C 9.441406 5.65625 9.28125 5.402344 9.136719 5.132812 C 9.335938 5.027344 9.519531 4.910156 9.726562 4.808594 C 9.875 5.0625 10.019531 5.335938 10.175781 5.585938 C 10.355469 5.492188 10.53125 5.386719 10.710938 5.289062 C 10.347656 4.632812 9.976562 3.988281 9.605469 3.335938 Z M 23.445312 3.867188 C 23.0625 4.507812 22.683594 5.144531 22.308594 5.789062 C 22.75 6.066406 23.207031 6.332031 23.664062 6.597656 C 23.757812 6.441406 23.855469 6.289062 23.941406 6.121094 C 23.667969 5.957031 23.390625 5.796875 23.121094 5.628906 C 23.402344 5.140625 23.695312 4.667969 23.976562 4.175781 C 23.796875 4.074219 23.625 3.964844 23.445312 3.867188 Z M 7.363281 4.59375 C 6.980469 4.902344 6.507812 5.304688 6.109375 5.648438 C 6.066406 5.683594 5.929688 5.773438 5.929688 5.796875 C 5.929688 5.796875 5.964844 5.839844 5.972656 5.851562 C 6.082031 5.980469 6.183594 6.097656 6.289062 6.210938 C 6.453125 6.085938 6.601562 5.941406 6.773438 5.816406 C 7.132812 6.25 7.488281 6.683594 7.855469 7.109375 C 8.011719 6.980469 8.167969 6.847656 8.324219 6.71875 C 7.972656 6.277344 7.601562 5.859375 7.25 5.417969 C 7.40625 5.277344 7.574219 5.152344 7.726562 5.011719 C 7.605469 4.871094 7.496094 4.722656 7.371094 4.59375 C 7.367188 4.59375 7.363281 4.589844 7.363281 4.59375 Z M 26.394531 5.929688 C 25.835938 6.457031 25.269531 6.972656 24.722656 7.507812 C 24.878906 7.652344 25.035156 7.800781 25.183594 7.953125 C 25.386719 7.78125 25.589844 7.582031 25.789062 7.394531 C 25.808594 7.375 25.871094 7.316406 25.878906 7.316406 C 25.878906 7.316406 25.9375 7.371094 25.953125 7.386719 C 26.125 7.558594 26.292969 7.726562 26.464844 7.878906 C 26.570312 7.769531 26.695312 7.675781 26.796875 7.558594 C 26.605469 7.367188 26.402344 7.1875 26.21875 6.988281 C 26.324219 6.90625 26.402344 6.800781 26.511719 6.726562 C 26.742188 6.941406 26.960938 7.171875 27.199219 7.386719 C 27.3125 7.273438 27.429688 7.160156 27.550781 7.050781 C 27.171875 6.671875 26.789062 6.296875 26.394531 5.929688 Z M 5.496094 6.621094 C 5.460938 6.621094 5.425781 6.621094 5.390625 6.625 C 5.09375 6.648438 4.871094 6.824219 4.738281 7 C 4.597656 7.179688 4.453125 7.425781 4.476562 7.757812 C 4.511719 8.242188 4.929688 8.558594 5.277344 8.71875 C 5.5 8.820312 5.761719 8.878906 6.019531 8.824219 C 6.253906 8.769531 6.402344 8.652344 6.546875 8.46875 C 6.675781 8.300781 6.792969 8.105469 6.8125 7.855469 C 6.832031 7.582031 6.722656 7.347656 6.59375 7.191406 C 6.464844 7.035156 6.296875 6.910156 6.101562 6.800781 C 5.9375 6.707031 5.734375 6.625 5.496094 6.621094 Z M 5.402344 7.222656 C 5.558594 7.210938 5.695312 7.28125 5.8125 7.351562 C 5.953125 7.429688 6.125 7.539062 6.207031 7.6875 C 6.339844 7.929688 6.140625 8.222656 5.929688 8.25 C 5.894531 8.253906 5.820312 8.253906 5.785156 8.246094 C 5.542969 8.199219 5.25 8.011719 5.121094 7.847656 C 5.078125 7.789062 5.042969 7.710938 5.039062 7.613281 C 5.03125 7.390625 5.203125 7.238281 5.402344 7.222656 Z M 26.277344 8.199219 C 26.261719 8.199219 26.25 8.199219 26.234375 8.203125 C 26.171875 8.210938 26.171875 8.210938 26.140625 8.226562 C 26.074219 8.265625 25.992188 8.363281 26.011719 8.5 C 26.023438 8.59375 26.09375 8.675781 26.167969 8.703125 C 26.425781 8.796875 26.636719 8.507812 26.488281 8.300781 C 26.445312 8.246094 26.367188 8.199219 26.277344 8.199219 Z M 3.644531 8.46875 C 3.511719 8.699219 3.390625 8.945312 3.257812 9.175781 C 3.59375 9.492188 3.972656 9.792969 4.300781 10.101562 C 3.855469 9.980469 3.414062 9.851562 2.964844 9.734375 C 2.832031 9.96875 2.703125 10.207031 2.582031 10.453125 C 3.242188 10.800781 3.894531 11.164062 4.558594 11.511719 C 4.632812 11.355469 4.71875 11.214844 4.792969 11.058594 C 4.296875 10.796875 3.78125 10.527344 3.304688 10.261719 C 3.859375 10.414062 4.414062 10.574219 4.976562 10.71875 C 5.050781 10.585938 5.125 10.453125 5.191406 10.316406 C 4.761719 9.933594 4.316406 9.5625 3.886719 9.175781 C 3.890625 9.175781 3.894531 9.179688 3.898438 9.179688 C 4.394531 9.445312 4.886719 9.710938 5.378906 9.976562 C 5.457031 9.824219 5.542969 9.6875 5.613281 9.527344 C 4.957031 9.175781 4.304688 8.816406 3.644531 8.46875 Z M 28.082031 8.527344 C 27.746094 8.546875 27.4375 8.714844 27.222656 8.878906 C 27 9.050781 26.796875 9.304688 26.777344 9.621094 C 26.757812 9.875 26.84375 10.027344 26.941406 10.199219 C 27.015625 10.332031 27.109375 10.46875 27.222656 10.554688 C 27.421875 10.691406 27.769531 10.730469 28.066406 10.621094 C 28.035156 10.433594 27.996094 10.25 27.960938 10.058594 C 27.820312 10.09375 27.691406 10.140625 27.566406 10.101562 C 27.375 10.039062 27.257812 9.746094 27.394531 9.554688 C 27.464844 9.457031 27.59375 9.367188 27.734375 9.285156 C 27.929688 9.175781 28.226562 9.042969 28.425781 9.210938 C 28.496094 9.269531 28.558594 9.371094 28.550781 9.503906 C 28.546875 9.597656 28.503906 9.667969 28.457031 9.71875 C 28.449219 9.726562 28.40625 9.769531 28.40625 9.777344 C 28.40625 9.78125 28.480469 9.859375 28.503906 9.878906 C 28.609375 9.992188 28.695312 10.089844 28.804688 10.175781 C 28.9375 10.007812 29.082031 9.859375 29.101562 9.597656 C 29.121094 9.304688 28.976562 9.058594 28.832031 8.875 C 28.660156 8.65625 28.429688 8.503906 28.082031 8.527344 Z M 28.058594 10.945312 C 28.046875 10.945312 28.03125 10.945312 28.015625 10.945312 C 27.867188 10.972656 27.75 11.125 27.816406 11.308594 C 27.878906 11.476562 28.160156 11.523438 28.277344 11.363281 C 28.40625 11.191406 28.28125 10.945312 28.058594 10.945312 Z M 28.058594 10.945312 "/>
<path style=" stroke:none;fill-rule:evenodd;fill:rgb(47.843137%,7.843137%,24.705882%);fill-opacity:1;" d="M 9.921875 26.308594 C 9.914062 26.308594 9.90625 26.316406 9.90625 26.320312 C 9.605469 27.003906 9.289062 27.675781 8.992188 28.363281 C 9.515625 28.582031 10.011719 28.828125 10.53125 29.046875 C 10.597656 28.890625 10.675781 28.742188 10.734375 28.578125 C 10.410156 28.4375 10.085938 28.292969 9.765625 28.140625 C 9.828125 28.011719 9.882812 27.871094 9.949219 27.746094 C 10.246094 27.875 10.527344 28.011719 10.824219 28.136719 C 10.882812 27.996094 10.953125 27.867188 11.007812 27.71875 C 10.71875 27.585938 10.425781 27.460938 10.136719 27.324219 C 10.1875 27.21875 10.226562 27.101562 10.285156 27.003906 C 10.601562 27.144531 10.910156 27.292969 11.234375 27.425781 C 11.289062 27.277344 11.363281 27.144531 11.421875 26.996094 C 10.925781 26.761719 10.421875 26.539062 9.921875 26.316406 C 9.921875 26.3125 9.921875 26.308594 9.921875 26.308594 Z M 22.519531 26.382812 C 22.496094 26.382812 22.476562 26.382812 22.457031 26.386719 C 22.234375 26.402344 22.023438 26.507812 21.894531 26.621094 C 21.765625 26.734375 21.660156 26.921875 21.644531 27.164062 C 21.632812 27.359375 21.675781 27.554688 21.726562 27.714844 C 21.773438 27.878906 21.832031 28.03125 21.90625 28.167969 C 22.042969 28.433594 22.257812 28.703125 22.636719 28.703125 C 22.859375 28.703125 23.078125 28.621094 23.21875 28.519531 C 23.371094 28.40625 23.476562 28.226562 23.492188 28.015625 C 23.511719 27.730469 23.410156 27.519531 23.289062 27.371094 C 23.183594 27.242188 23.03125 27.128906 22.835938 27.113281 C 22.519531 27.085938 22.347656 27.265625 22.242188 27.492188 C 22.179688 27.285156 22.09375 26.902344 22.308594 26.816406 C 22.449219 26.761719 22.53125 26.878906 22.585938 26.972656 C 22.753906 26.890625 22.914062 26.808594 23.082031 26.726562 C 22.960938 26.554688 22.816406 26.378906 22.519531 26.382812 Z M 20.789062 27.09375 C 20.761719 27.09375 20.734375 27.09375 20.710938 27.09375 C 20.320312 27.125 19.960938 27.316406 19.921875 27.671875 C 19.890625 27.96875 20.046875 28.199219 20.296875 28.273438 C 20.164062 28.386719 20.058594 28.539062 20.078125 28.785156 C 20.105469 29.117188 20.320312 29.402344 20.671875 29.425781 C 20.867188 29.4375 21.042969 29.398438 21.210938 29.339844 C 21.492188 29.242188 21.726562 29.066406 21.714844 28.671875 C 21.703125 28.347656 21.53125 28.148438 21.265625 28.066406 C 21.347656 27.949219 21.425781 27.851562 21.425781 27.671875 C 21.425781 27.316406 21.167969 27.09375 20.789062 27.09375 Z M 12.132812 27.171875 C 12.109375 27.171875 12.085938 27.171875 12.0625 27.175781 C 11.875 27.1875 11.746094 27.269531 11.65625 27.367188 C 11.550781 27.476562 11.460938 27.652344 11.476562 27.855469 C 11.511719 28.292969 11.960938 28.441406 12.164062 28.671875 C 12.195312 28.710938 12.222656 28.75 12.234375 28.800781 C 12.257812 28.949219 12.140625 29.054688 12.007812 29.058594 C 11.742188 29.0625 11.605469 28.792969 11.691406 28.542969 C 11.503906 28.488281 11.320312 28.425781 11.128906 28.367188 C 11.105469 28.453125 11.089844 28.511719 11.082031 28.597656 C 11.042969 29.136719 11.390625 29.328125 11.761719 29.457031 C 12.257812 29.632812 12.660156 29.433594 12.808594 29.0625 C 12.894531 28.855469 12.882812 28.625 12.761719 28.4375 C 12.683594 28.320312 12.550781 28.214844 12.414062 28.105469 C 12.324219 28.035156 12.070312 27.902344 12.074219 27.769531 C 12.074219 27.691406 12.144531 27.628906 12.222656 27.621094 C 12.425781 27.601562 12.59375 27.800781 12.523438 28.023438 C 12.710938 28.085938 12.894531 28.148438 13.082031 28.203125 C 13.234375 27.6875 12.914062 27.421875 12.574219 27.28125 C 12.445312 27.230469 12.296875 27.175781 12.132812 27.171875 Z M 20.691406 27.492188 C 20.71875 27.492188 20.738281 27.496094 20.753906 27.503906 C 20.910156 27.558594 20.980469 27.875 20.804688 27.972656 C 20.476562 28.15625 20.289062 27.558594 20.625 27.496094 C 20.644531 27.492188 20.667969 27.492188 20.691406 27.492188 Z M 13.273438 27.519531 C 13.269531 27.519531 13.261719 27.523438 13.261719 27.53125 C 13.242188 27.710938 13.21875 27.886719 13.199219 28.066406 C 13.40625 28.097656 13.625 28.109375 13.824219 28.148438 C 13.753906 28.703125 13.691406 29.265625 13.621094 29.824219 C 13.824219 29.847656 14.027344 29.867188 14.230469 29.894531 C 14.3125 29.347656 14.363281 28.765625 14.445312 28.21875 C 14.652344 28.246094 14.855469 28.269531 15.066406 28.292969 C 15.085938 28.109375 15.113281 27.929688 15.128906 27.742188 C 14.511719 27.667969 13.890625 27.59375 13.273438 27.519531 Z M 22.648438 27.550781 C 22.679688 27.550781 22.738281 27.5625 22.773438 27.582031 C 22.914062 27.667969 23.097656 28.078125 22.894531 28.238281 C 22.65625 28.425781 22.421875 28.089844 22.402344 27.871094 C 22.386719 27.683594 22.480469 27.550781 22.648438 27.550781 Z M 19 27.554688 C 18.976562 27.550781 18.953125 27.554688 18.929688 27.554688 C 18.507812 27.578125 18.152344 27.765625 18.152344 28.164062 C 18.152344 28.429688 18.292969 28.597656 18.480469 28.683594 C 18.335938 28.769531 18.222656 28.902344 18.207031 29.109375 C 18.175781 29.558594 18.449219 29.855469 18.832031 29.875 C 19.15625 29.894531 19.527344 29.808594 19.6875 29.621094 C 19.835938 29.449219 19.898438 29.101562 19.78125 28.859375 C 19.714844 28.726562 19.597656 28.628906 19.460938 28.574219 C 19.585938 28.441406 19.679688 28.296875 19.664062 28.078125 C 19.636719 27.742188 19.351562 27.558594 19 27.554688 Z M 17.59375 27.703125 C 17.441406 27.714844 17.285156 27.710938 17.132812 27.71875 C 17.019531 28.035156 16.78125 28.226562 16.46875 28.339844 C 16.472656 28.515625 16.480469 28.6875 16.488281 28.855469 C 16.597656 28.816406 16.699219 28.769531 16.796875 28.710938 C 16.890625 28.652344 16.976562 28.582031 17.058594 28.523438 C 17.074219 29.015625 17.089844 29.507812 17.105469 30.003906 C 17.300781 30 17.480469 29.992188 17.667969 29.988281 C 17.644531 29.226562 17.625 28.460938 17.59375 27.703125 Z M 18.90625 27.9375 C 18.980469 27.9375 19.039062 27.96875 19.078125 28.015625 C 19.195312 28.15625 19.148438 28.457031 18.90625 28.445312 C 18.824219 28.445312 18.75 28.394531 18.714844 28.328125 C 18.625 28.164062 18.703125 27.960938 18.875 27.941406 C 18.886719 27.9375 18.898438 27.9375 18.90625 27.9375 Z M 20.847656 28.355469 C 20.859375 28.355469 20.871094 28.355469 20.878906 28.355469 C 21.164062 28.375 21.269531 28.914062 20.980469 29.007812 C 20.636719 29.117188 20.460938 28.417969 20.820312 28.359375 C 20.832031 28.355469 20.839844 28.355469 20.847656 28.355469 Z M 19.03125 28.816406 C 19.324219 28.84375 19.378906 29.40625 19.09375 29.480469 C 19.054688 29.488281 19.003906 29.484375 18.960938 29.46875 C 18.78125 29.402344 18.695312 29.113281 18.800781 28.933594 C 18.832031 28.878906 18.890625 28.828125 18.96875 28.816406 C 18.992188 28.8125 19.011719 28.8125 19.03125 28.816406 Z M 15.03125 29.351562 C 15.015625 29.351562 14.996094 29.351562 14.976562 29.355469 C 14.847656 29.371094 14.789062 29.453125 14.765625 29.527344 C 14.636719 29.953125 15.320312 29.984375 15.273438 29.574219 C 15.257812 29.457031 15.160156 29.363281 15.03125 29.351562 Z M 15.03125 29.351562 "/>
<path style=" stroke:none;fill-rule:evenodd;fill:rgb(100%,100%,100%);fill-opacity:1;" d="M 15.230469 14.859375 L 14.371094 15.609375 L 14.53125 16.34375 L 15.230469 16.65625 L 16.03125 15.953125 L 16.03125 15.277344 Z M 17.167969 14.871094 L 16.316406 15.277344 L 16.296875 15.929688 L 17.042969 16.65625 L 17.699219 16.460938 L 18.015625 15.578125 Z M 14.488281 16.683594 L 13.832031 17.410156 L 14.1875 18.324219 L 15.191406 18.324219 L 15.492188 17.71875 L 15.1875 16.898438 Z M 17.957031 16.734375 L 17.140625 16.863281 L 16.8125 17.714844 L 17.226562 18.335938 L 18.152344 18.335938 L 18.550781 17.4375 Z M 15.671875 17.855469 L 15.265625 18.578125 L 15.648438 19.324219 L 16.753906 19.328125 L 17.054688 18.550781 L 16.613281 17.855469 Z M 15.671875 17.855469 "/>
</g>
</svg>
