<?xml version="1.0" encoding="UTF-8"?>
<svg xmlns="http://www.w3.org/2000/svg" xmlns:xlink="http://www.w3.org/1999/xlink" width="32px" height="32px" viewBox="0 0 32 32" version="1.1">
<g id="surface1">
<path style=" stroke:none;fill-rule:nonzero;fill:rgb(100%,100%,100%);fill-opacity:1;" d="M 32.023438 16.011719 C 32.023438 24.855469 24.855469 32.023438 16.011719 32.023438 C 7.167969 32.023438 0 24.851562 0 16.011719 C 0 7.171875 7.167969 0 16.011719 0 C 24.855469 0 32.023438 7.167969 32.023438 16.011719 "/>
<path style=" stroke:none;fill-rule:nonzero;fill:rgb(0%,19.607843%,62.745098%);fill-opacity:1;" d="M 16.007812 1.359375 C 7.90625 1.359375 1.34375 7.921875 1.34375 16.015625 C 1.34375 24.113281 7.90625 30.679688 16.003906 30.679688 C 24.097656 30.679688 30.660156 24.117188 30.660156 16.019531 C 30.660156 7.921875 24.097656 1.359375 16.003906 1.359375 M 31.34375 16.019531 C 31.34375 24.492188 24.476562 31.359375 16.003906 31.359375 C 7.53125 31.359375 0.667969 24.488281 0.667969 16.015625 C 0.667969 7.542969 7.535156 0.679688 16.007812 0.679688 C 24.480469 0.679688 31.34375 7.546875 31.34375 16.019531 "/>
<path style=" stroke:none;fill-rule:nonzero;fill:rgb(0%,19.607843%,62.745098%);fill-opacity:1;" d="M 7.90625 10.203125 C 7.164062 11.066406 6.527344 12.539062 6.410156 13.320312 C 6.402344 13.371094 6.4375 13.414062 6.480469 13.425781 C 7.019531 13.570312 8.546875 13.957031 9.179688 14.039062 C 9.226562 14.042969 9.273438 14.011719 9.285156 13.964844 C 9.53125 12.828125 9.992188 11.875 10.285156 11.398438 C 10.3125 11.351562 10.296875 11.296875 10.253906 11.265625 C 10.246094 11.265625 10.238281 11.257812 10.234375 11.257812 C 8.925781 10.828125 8.230469 10.339844 8.023438 10.195312 C 7.988281 10.167969 7.9375 10.167969 7.90625 10.203125 M 16.015625 8.589844 C 18.886719 8.589844 20.941406 10.472656 21.273438 10.800781 C 21.304688 10.832031 21.347656 10.84375 21.390625 10.828125 C 21.675781 10.738281 21.957031 10.636719 22.234375 10.519531 C 22.292969 10.496094 22.324219 10.429688 22.300781 10.367188 C 22.292969 10.351562 22.285156 10.339844 22.277344 10.332031 C 21.789062 9.773438 19.664062 7.558594 16.019531 7.558594 L 16 7.558594 C 12.355469 7.558594 10.230469 9.769531 9.738281 10.332031 C 9.695312 10.382812 9.703125 10.457031 9.75 10.5 C 9.761719 10.507812 9.773438 10.515625 9.785156 10.523438 C 10.058594 10.640625 10.339844 10.742188 10.628906 10.832031 C 10.671875 10.84375 10.714844 10.832031 10.746094 10.800781 C 11.078125 10.472656 13.132812 8.59375 16.007812 8.59375 Z M 16.015625 8.589844 "/>
<path style=" stroke:none;fill-rule:nonzero;fill:rgb(0%,19.607843%,62.745098%);fill-opacity:1;" d="M 16.019531 22.957031 C 18.804688 22.957031 20.851562 21.039062 21.136719 20.617188 C 21.136719 20.617188 22.441406 18.855469 22.441406 16.03125 C 22.441406 13.207031 21.136719 11.457031 21.136719 11.457031 C 20.90625 11.085938 18.804688 9.117188 16.019531 9.117188 L 16 9.117188 C 13.214844 9.117188 11.109375 11.082031 10.878906 11.457031 C 10.878906 11.457031 9.578125 13.207031 9.578125 16.03125 C 9.578125 18.855469 10.878906 20.617188 10.878906 20.617188 C 11.167969 21.039062 13.214844 22.957031 16 22.957031 Z M 16.019531 22.957031 "/>
<path style=" stroke:none;fill-rule:nonzero;fill:rgb(0%,19.607843%,62.745098%);fill-opacity:1;" d="M 16.019531 7.027344 C 20.125 7.027344 22.433594 9.667969 22.828125 10.15625 C 22.863281 10.199219 22.925781 10.210938 22.976562 10.1875 C 23.203125 10.066406 23.425781 9.9375 23.632812 9.792969 C 23.6875 9.757812 23.703125 9.683594 23.667969 9.632812 C 23.667969 9.628906 23.667969 9.625 23.664062 9.625 C 23.078125 8.933594 20.574219 6.015625 16.011719 6.015625 L 16.007812 6.015625 C 11.414062 6.015625 8.890625 8.953125 8.355469 9.625 C 8.316406 9.675781 8.328125 9.746094 8.378906 9.789062 C 8.382812 9.789062 8.382812 9.789062 8.382812 9.792969 C 8.597656 9.9375 8.816406 10.066406 9.042969 10.1875 C 9.09375 10.210938 9.152344 10.199219 9.191406 10.15625 C 9.585938 9.667969 11.894531 7.027344 16 7.027344 Z M 16.019531 7.027344 "/>
<path style=" stroke:none;fill-rule:nonzero;fill:rgb(100%,0%,0%);fill-opacity:1;" d="M 15.207031 11.113281 C 15.207031 11.113281 15.042969 11.128906 15.015625 10.902344 C 15.015625 10.902344 15.332031 10.777344 15.65625 10.835938 C 15.65625 10.835938 15.316406 10.929688 15.207031 11.113281 M 14.308594 11.992188 C 13.589844 12.222656 13.480469 11.710938 13.640625 11.546875 C 13.539062 11.558594 13.292969 11.71875 13.414062 12 C 13.691406 12.511719 14.625 11.757812 14.894531 12.191406 L 15.15625 12.34375 L 14.9375 12.277344 C 14.78125 12.246094 14.554688 12.199219 14.359375 12.261719 L 14.234375 12.167969 C 14.21875 12.222656 14.214844 12.277344 14.214844 12.332031 L 14.21875 12.332031 C 13.9375 12.578125 14.261719 12.835938 14.261719 12.835938 C 14.238281 12.746094 14.257812 12.648438 14.320312 12.578125 C 14.320312 12.578125 14.25 12.90625 14.597656 13.105469 C 14.597656 13.105469 14.398438 12.664062 14.679688 12.613281 C 14.789062 12.597656 14.832031 12.675781 14.980469 12.730469 C 15.222656 12.820312 15.347656 12.621094 15.351562 12.828125 C 15.351562 12.988281 15.308594 13.054688 15.171875 13.207031 C 15.074219 13.316406 14.925781 13.40625 14.761719 13.484375 C 14.46875 13.605469 14.078125 13.722656 13.960938 13.378906 C 13.960938 13.378906 13.667969 13.613281 13.875 13.78125 C 13.875 13.78125 13.175781 13.390625 13.058594 13.277344 C 12.941406 13.160156 12.984375 12.917969 12.777344 12.863281 C 12.777344 12.863281 12.769531 12.527344 12.617188 12.386719 C 12.617188 12.386719 12.757812 11.683594 12.226562 11.652344 C 12.226562 11.652344 12.359375 11.839844 12.261719 11.949219 C 12.164062 12.058594 12.226562 12.148438 12.3125 12.328125 C 12.3125 12.328125 12.140625 12.210938 12.101562 12.050781 C 12.058594 11.886719 12.035156 11.785156 11.863281 11.785156 C 11.863281 11.785156 11.613281 11.515625 11.359375 11.84375 C 11.359375 11.84375 11.601562 11.785156 11.605469 11.992188 C 11.609375 12.199219 11.847656 12.445312 11.949219 12.519531 C 11.949219 12.519531 11.515625 12.328125 11.273438 12.484375 C 11.273438 12.484375 10.96875 12.441406 10.9375 12.796875 C 10.953125 12.785156 11.179688 12.617188 11.246094 12.726562 C 11.3125 12.832031 11.359375 12.863281 11.53125 12.875 C 11.699219 12.890625 11.9375 13.035156 11.972656 13.234375 C 11.972656 13.234375 11.488281 13.148438 11.445312 13.398438 C 11.363281 13.460938 11.253906 13.464844 11.164062 13.410156 C 11.164062 13.410156 11.265625 13.890625 12.277344 13.621094 C 12.277344 13.621094 12.984375 13.824219 12.246094 14.082031 C 12.246094 14.082031 12.898438 14.101562 13.332031 14.785156 C 13.574219 14.757812 14.84375 13.855469 14.84375 13.855469 C 14.84375 13.855469 14.175781 14.796875 13.222656 15.082031 C 12.050781 15.4375 11.476562 14.707031 11.199219 14.984375 C 11.199219 14.984375 10.78125 15.003906 10.765625 15.347656 C 10.765625 15.347656 11.003906 15.152344 11.074219 15.28125 C 11.152344 15.429688 11.523438 15.410156 11.714844 15.394531 C 11.714844 15.394531 11.101562 15.507812 11.078125 15.769531 C 11.078125 15.769531 10.738281 15.988281 10.875 16.285156 C 10.875 16.285156 10.984375 16.078125 11.152344 16.082031 C 11.324219 16.085938 11.449219 16.0625 11.683594 15.835938 C 11.683594 15.835938 11.242188 16.464844 11.523438 16.777344 C 11.542969 16.632812 11.660156 16.523438 11.800781 16.507812 C 12.011719 16.480469 11.796875 16.074219 12.335938 16.117188 C 12.335938 16.117188 12.34375 16.332031 12.25 16.492188 C 12.25 16.492188 12.378906 16.605469 12.078125 16.753906 C 12.078125 16.753906 12.480469 16.863281 12.699219 16.425781 C 12.765625 16.289062 12.921875 15.601562 13.433594 16.238281 C 13.433594 16.238281 13.609375 15.757812 14.3125 15.652344 C 14.9375 15.558594 14.519531 16.132812 14.253906 16.277344 C 14.253906 16.277344 15.632812 16.160156 15.792969 18.375 C 15.792969 18.375 15.703125 17.445312 15.105469 16.929688 C 14.664062 16.550781 13.863281 16.402344 13.027344 17.011719 C 13.027344 17.011719 13.535156 17 13.371094 17.480469 C 13.195312 17.996094 14.082031 18.574219 13.558594 18.71875 C 12.9375 18.894531 12.398438 17.417969 11.910156 18.027344 C 11.910156 18.027344 12.199219 17.96875 12.339844 18.203125 C 12.339844 18.203125 11.835938 17.902344 11.605469 18.449219 C 11.621094 18.445312 11.972656 18.253906 12.242188 18.589844 C 12.242188 18.589844 11.570312 18.242188 11.394531 18.964844 C 11.394531 18.964844 11.613281 18.753906 11.820312 18.910156 C 11.929688 18.996094 12.136719 18.8125 12.347656 19.011719 C 12.347656 19.011719 11.675781 18.855469 11.632812 19.527344 C 11.632812 19.527344 11.878906 19.261719 12.273438 19.511719 C 12.726562 19.796875 13.019531 19.460938 13.019531 19.460938 L 12.886719 19.839844 C 12.886719 19.839844 13.476562 19.53125 13.863281 19.644531 C 14.363281 19.789062 14.597656 19.761719 14.644531 19.339844 C 14.886719 19.203125 15.0625 19.539062 15.0625 19.539062 C 15.117188 19.058594 14.753906 19.023438 14.65625 18.960938 C 14.496094 18.863281 15.03125 18.691406 15.03125 18.691406 C 14.902344 18.648438 14.78125 18.597656 14.664062 18.53125 C 14.15625 18.242188 14.484375 17.769531 14.984375 18.085938 C 15.484375 18.398438 15.753906 18.621094 15.753906 18.621094 C 15.59375 18.753906 15.445312 19.175781 15.613281 19.527344 C 15.613281 19.527344 15.753906 19.003906 15.960938 19.425781 L 15.960938 19.421875 C 16.175781 19.789062 16.480469 20.0625 17.207031 20.441406 C 17.613281 20.652344 16.945312 21.253906 16.203125 20.851562 C 15.601562 20.523438 15.441406 21.082031 15.441406 21.082031 C 15.441406 21.082031 15.699219 20.894531 15.882812 21.023438 C 15.882812 21.023438 15.34375 20.992188 15.289062 21.632812 C 15.3125 21.621094 15.410156 21.414062 15.574219 21.460938 C 15.574219 21.460938 15.785156 21.125 16.042969 21.300781 C 16.042969 21.300781 15.53125 21.238281 15.472656 22.117188 C 15.472656 22.117188 15.652344 21.808594 15.871094 21.828125 C 15.871094 21.828125 16.007812 21.371094 16.378906 21.613281 C 16.378906 21.613281 15.921875 21.402344 15.902344 22.335938 C 15.902344 22.335938 16.074219 22.015625 16.265625 22.078125 C 16.433594 22.136719 17.015625 22.335938 17.640625 21.695312 L 17.960938 21.695312 C 17.960938 21.695312 18.046875 21.125 18.332031 20.929688 C 18.375 20.90625 18.417969 20.886719 18.460938 20.875 C 18.5 20.867188 18.539062 20.863281 18.570312 20.867188 C 18.703125 20.894531 18.761719 21.023438 18.761719 21.023438 C 18.761719 21.023438 18.835938 20.722656 18.5625 20.367188 C 18.941406 20.140625 18.925781 19.78125 18.925781 19.78125 C 18.605469 20.089844 18.082031 19.992188 17.832031 19.882812 C 17.570312 19.765625 17.277344 19.523438 17.597656 19.085938 C 18.0625 18.441406 17.984375 17.867188 17.988281 17.722656 C 17.988281 17.722656 18.183594 18.035156 18.121094 18.425781 C 18.121094 18.425781 18.652344 18.902344 19.597656 18.683594 C 20.09375 18.5625 20.320312 19.230469 19.9375 19.496094 C 19.5625 19.757812 19.257812 19.355469 19.257812 19.355469 C 19.457031 19.875 20.253906 19.921875 20.523438 19.367188 C 20.785156 18.835938 20.351562 18.378906 20.183594 18.285156 C 20.644531 17.703125 20.730469 16.90625 19.980469 15.675781 L 19.878906 15.507812 C 19.652344 15.066406 20.222656 14.71875 20.539062 15.03125 C 20.839844 15.332031 20.523438 15.675781 20.523438 15.675781 C 21.015625 15.394531 20.875 14.597656 20.324219 14.445312 C 19.859375 14.316406 19.546875 14.585938 19.4375 14.769531 C 19.265625 14.46875 19.140625 14.226562 19.0625 14.015625 C 18.96875 13.699219 19.386719 13.554688 19.539062 13.796875 C 19.6875 14.027344 19.4375 14.199219 19.4375 14.199219 C 19.785156 14.09375 19.8125 13.578125 19.492188 13.398438 C 19.339844 13.308594 19.148438 13.308594 18.996094 13.394531 C 19.019531 13.25 19.082031 13.113281 19.175781 13 C 19.253906 12.90625 19.324219 12.871094 19.390625 12.90625 C 19.617188 13.027344 19.816406 13.054688 19.980469 12.992188 C 20.105469 12.949219 20.207031 12.851562 20.265625 12.730469 L 20.285156 12.6875 L 20.246094 12.714844 C 20.144531 12.789062 20.039062 12.8125 19.929688 12.78125 C 19.890625 12.769531 19.855469 12.75 19.820312 12.726562 C 20.054688 12.6875 20.226562 12.578125 20.335938 12.40625 C 20.46875 12.199219 20.480469 11.933594 20.472656 11.75 C 20.464844 11.632812 20.445312 11.515625 20.414062 11.398438 L 20.402344 11.359375 L 20.390625 11.398438 C 20.265625 11.746094 20.058594 11.820312 19.816406 11.90625 C 19.761719 11.925781 19.710938 11.945312 19.65625 11.964844 C 19.746094 11.84375 19.773438 11.6875 19.730469 11.546875 C 19.707031 11.457031 19.65625 11.378906 19.585938 11.316406 C 19.585938 11.316406 19.644531 11.558594 19.375 11.8125 C 19.292969 11.882812 19.21875 11.964844 19.15625 12.050781 C 19.074219 12.171875 19.046875 12.324219 19.082031 12.464844 C 19.019531 12.507812 18.964844 12.550781 18.910156 12.59375 C 18.910156 12.59375 18.261719 13.074219 18.554688 14.117188 C 18.714844 14.695312 19.074219 15.195312 19.382812 15.714844 C 19.105469 15.710938 18.714844 15.824219 18.488281 16.273438 C 18.1875 16.867188 18.65625 17.640625 19.3125 17.535156 C 19.3125 17.535156 18.640625 17.417969 18.785156 16.816406 C 18.910156 16.308594 19.675781 16.21875 19.894531 16.851562 C 20.285156 17.964844 18.957031 18.6875 17.90625 17.300781 C 17.3125 16.515625 16.207031 15.851562 16.777344 15.082031 C 17.164062 15.679688 17.90625 15.347656 17.90625 15.347656 C 17.066406 14.875 17.515625 13.984375 17.515625 13.984375 L 17.898438 14.28125 C 18.257812 13.164062 17.644531 12.542969 17.65625 12.539062 C 18.003906 12.527344 18.226562 12.941406 18.226562 12.941406 C 18.515625 12 17.746094 11.695312 17.746094 11.695312 C 18.203125 11.28125 18.554688 11.75 18.554688 11.75 C 18.605469 10.953125 17.796875 10.703125 17.796875 10.703125 L 18.226562 10.570312 C 17.453125 9.679688 16.507812 10.292969 16.507812 10.292969 C 16.699219 10.023438 16.574219 9.796875 16.574219 9.796875 C 16.574219 9.796875 16.464844 10.097656 15.863281 10.144531 C 15.328125 10.183594 15.269531 10.535156 15.269531 10.535156 C 15.574219 10.425781 15.808594 10.496094 15.808594 10.496094 C 15.808594 10.496094 15.210938 10.597656 15.023438 10.710938 C 14.796875 10.839844 14.867188 10.902344 14.597656 10.964844 C 14.304688 11.03125 14.105469 11.085938 14.074219 11.113281 C 14.039062 11.148438 14.027344 11.1875 14.066406 11.34375 L 14.375 11.207031 C 14.375 11.207031 14.265625 11.5 14.03125 11.4375 C 14.03125 11.4375 13.902344 11.75 14.125 11.796875 C 14.140625 11.847656 14.175781 11.9375 14.238281 11.949219 C 14.222656 11.890625 14.246094 11.828125 14.292969 11.792969 C 14.289062 11.792969 14.421875 11.808594 14.621094 11.730469 C 14.859375 11.636719 15.4375 11.417969 15.234375 12.105469 C 15.238281 12.113281 15.046875 11.757812 14.308594 11.992188 "/>
<path style=" stroke:none;fill-rule:nonzero;fill:rgb(0%,19.607843%,62.745098%);fill-opacity:1;" d="M 17.527344 24.054688 C 17.488281 24.0625 17.449219 24.074219 17.410156 24.085938 C 17.414062 24.109375 17.417969 24.132812 17.421875 24.160156 L 17.605469 25.054688 C 17.613281 25.078125 17.617188 25.101562 17.621094 25.125 C 17.671875 25.125 17.726562 25.117188 17.777344 25.109375 C 17.925781 25.078125 18.28125 24.964844 18.183594 24.488281 C 18.097656 24.074219 17.820312 24.003906 17.527344 24.054688 M 16.125 24.316406 C 16.113281 24.351562 16.101562 24.382812 16.09375 24.40625 L 15.925781 24.898438 L 16.339844 24.894531 L 16.15625 24.402344 C 16.144531 24.382812 16.136719 24.351562 16.125 24.316406 "/>
<path style=" stroke:none;fill-rule:nonzero;fill:rgb(0%,19.607843%,62.745098%);fill-opacity:1;" d="M 19.476562 24.808594 C 19.464844 24.714844 19.441406 24.625 19.402344 24.546875 L 19.300781 24.316406 L 18.703125 23.847656 C 18.5625 23.738281 18.492188 23.703125 18.441406 23.679688 L 18.8125 23.515625 C 18.832031 23.554688 18.871094 23.605469 18.960938 23.671875 L 19.222656 23.875 C 19.28125 23.925781 19.335938 23.96875 19.378906 24.007812 C 19.378906 23.964844 19.382812 23.914062 19.382812 23.851562 L 19.414062 23.46875 C 19.421875 23.355469 19.414062 23.300781 19.394531 23.261719 L 19.691406 23.132812 C 19.660156 23.242188 19.640625 23.355469 19.632812 23.472656 L 19.566406 24.171875 L 19.679688 24.425781 C 19.714844 24.511719 19.761719 24.589844 19.824219 24.660156 Z M 17.796875 25.3125 C 17.640625 25.34375 17.484375 25.367188 17.324219 25.378906 C 17.34375 25.300781 17.328125 25.203125 17.308594 25.109375 L 17.128906 24.226562 C 17.109375 24.128906 17.082031 24.039062 17.035156 23.96875 C 17.121094 23.953125 17.328125 23.882812 17.523438 23.847656 C 18.011719 23.746094 18.382812 23.933594 18.476562 24.390625 C 18.582031 24.894531 18.320312 25.203125 17.796875 25.3125 M 16.503906 25.460938 C 16.503906 25.375 16.488281 25.289062 16.457031 25.210938 L 16.421875 25.109375 L 15.855469 25.113281 L 15.824219 25.210938 C 15.792969 25.292969 15.777344 25.378906 15.777344 25.46875 L 15.429688 25.472656 C 15.484375 25.394531 15.535156 25.296875 15.59375 25.140625 L 15.902344 24.324219 C 15.964844 24.148438 15.980469 24.074219 15.964844 24.015625 L 16.230469 24.011719 C 16.265625 24.011719 16.300781 24.035156 16.3125 24.066406 L 16.753906 25.128906 C 16.792969 25.222656 16.863281 25.378906 16.917969 25.453125 Z M 15.136719 24.261719 C 15.03125 24.199219 14.96875 24.171875 14.808594 24.140625 L 14.542969 24.089844 C 14.539062 24.105469 14.535156 24.125 14.53125 24.140625 L 14.476562 24.433594 L 14.902344 24.511719 C 14.914062 24.515625 14.925781 24.53125 14.921875 24.546875 L 14.882812 24.765625 C 14.816406 24.730469 14.742188 24.699219 14.578125 24.667969 L 14.441406 24.644531 L 14.363281 25.039062 C 14.359375 25.058594 14.355469 25.074219 14.355469 25.09375 L 14.59375 25.136719 C 14.789062 25.175781 14.910156 25.167969 15.011719 25.144531 L 14.917969 25.417969 L 14.351562 25.308594 L 14.222656 25.285156 L 13.980469 25.238281 C 14.023438 25.160156 14.054688 25.074219 14.070312 24.984375 L 14.238281 24.085938 C 14.257812 23.996094 14.261719 23.90625 14.25 23.816406 L 15.1875 23.996094 Z M 13.636719 24.175781 C 13.546875 24.355469 13.347656 24.394531 13.1875 24.375 C 13.21875 24.695312 13.328125 25.027344 13.460938 25.082031 C 13.382812 25.136719 13.28125 25.144531 13.191406 25.105469 C 13.101562 25.066406 13.011719 24.960938 12.964844 24.816406 C 12.898438 24.605469 12.871094 24.382812 12.878906 24.160156 C 12.882812 24.148438 12.894531 24.132812 12.910156 24.136719 C 12.914062 24.136719 12.914062 24.136719 12.917969 24.140625 C 13.0625 24.199219 13.25 24.234375 13.332031 24.054688 C 13.40625 23.890625 13.335938 23.753906 13.175781 23.675781 C 13.132812 23.65625 13.082031 23.640625 13.035156 23.632812 C 13.023438 23.652344 13.011719 23.675781 13 23.699219 L 12.625 24.53125 C 12.585938 24.617188 12.5625 24.703125 12.550781 24.792969 L 12.207031 24.636719 C 12.265625 24.570312 12.316406 24.492188 12.351562 24.410156 L 12.726562 23.574219 C 12.765625 23.496094 12.792969 23.40625 12.800781 23.320312 C 12.960938 23.382812 13.074219 23.417969 13.230469 23.484375 C 13.523438 23.617188 13.796875 23.855469 13.636719 24.175781 M 23.519531 22.230469 C 22.714844 21.722656 22.046875 21.496094 21.414062 21.285156 C 21.339844 21.261719 21.261719 21.28125 21.207031 21.335938 C 20.78125 21.761719 18.796875 23.488281 16.019531 23.488281 L 15.996094 23.488281 C 13.214844 23.488281 11.234375 21.761719 10.808594 21.335938 C 10.753906 21.28125 10.671875 21.265625 10.601562 21.285156 C 9.96875 21.496094 9.304688 21.722656 8.492188 22.230469 C 8.398438 22.289062 8.371094 22.414062 8.429688 22.507812 C 8.433594 22.515625 8.4375 22.519531 8.441406 22.527344 C 9.023438 23.277344 11.585938 26.023438 16.003906 26.023438 L 16.011719 26.023438 C 20.429688 26.023438 22.992188 23.277344 23.574219 22.527344 C 23.640625 22.4375 23.625 22.3125 23.539062 22.242188 C 23.53125 22.238281 23.523438 22.234375 23.519531 22.230469 M 7.414062 9 C 6.890625 9.046875 6.316406 8.957031 6.011719 8.863281 C 5.980469 8.855469 5.964844 8.824219 5.972656 8.796875 L 5.980469 8.777344 C 6.167969 8.503906 6.328125 8.132812 5.992188 7.878906 C 5.6875 7.648438 5.371094 7.726562 5.140625 8.03125 C 5.074219 8.113281 5.023438 8.203125 4.980469 8.300781 C 5.023438 8.335938 5.066406 8.371094 5.109375 8.402344 C 5.625 8.792969 6.144531 9.183594 6.660156 9.578125 C 6.828125 9.703125 7.007812 9.804688 7.164062 9.855469 C 7.003906 10.074219 6.851562 10.289062 6.695312 10.511719 C 6.585938 10.351562 6.445312 10.210938 6.292969 10.097656 C 5.773438 9.703125 5.253906 9.3125 4.738281 8.917969 C 4.589844 8.804688 4.417969 8.710938 4.242188 8.648438 C 4.441406 8.332031 4.554688 8.105469 4.769531 7.8125 C 5.171875 7.261719 5.816406 6.816406 6.402344 7.304688 C 6.734375 7.578125 6.714844 8.027344 6.589844 8.335938 C 7.273438 8.433594 8.027344 8.382812 8.21875 8.121094 C 8.300781 8.320312 8.25 8.515625 8.128906 8.667969 C 7.996094 8.832031 7.742188 8.96875 7.414062 9 M 9.652344 5.84375 C 9.351562 5.617188 9.050781 5.398438 8.75 5.179688 C 8.710938 5.152344 8.648438 5.101562 8.59375 5.054688 C 8.613281 5.125 8.632812 5.203125 8.644531 5.253906 C 8.734375 5.613281 8.828125 5.972656 8.921875 6.339844 C 9.160156 6.164062 9.402344 5.996094 9.652344 5.84375 M 8.628906 7.199219 C 8.480469 6.574219 8.339844 5.953125 8.199219 5.339844 C 8.105469 4.949219 8.042969 4.796875 7.945312 4.71875 C 8.101562 4.605469 8.261719 4.496094 8.417969 4.390625 C 8.484375 4.351562 8.566406 4.355469 8.628906 4.398438 C 9.308594 4.863281 9.996094 5.339844 10.6875 5.828125 C 10.871094 5.953125 11.191406 6.164062 11.386719 6.25 C 11.117188 6.378906 10.859375 6.519531 10.605469 6.667969 C 10.503906 6.515625 10.375 6.378906 10.230469 6.269531 L 10.039062 6.128906 C 9.695312 6.339844 9.359375 6.566406 9.039062 6.808594 C 9.054688 6.878906 9.078125 6.949219 9.097656 7.023438 C 9.167969 7.292969 9.246094 7.433594 9.316406 7.535156 C 9.121094 7.6875 8.925781 7.847656 8.738281 8.007812 C 8.746094 7.792969 8.714844 7.546875 8.628906 7.199219 M 11.9375 5.402344 C 11.777344 4.769531 11.613281 4.132812 11.453125 3.503906 C 11.402344 3.304688 11.324219 3.113281 11.226562 2.984375 C 11.421875 2.914062 11.617188 2.84375 11.8125 2.777344 C 11.867188 2.757812 11.925781 2.769531 11.972656 2.800781 C 12.535156 3.242188 13.105469 3.71875 13.667969 4.210938 C 13.742188 4.269531 13.890625 4.398438 13.980469 4.488281 C 13.953125 4.410156 13.914062 4.261719 13.898438 4.1875 C 13.796875 3.761719 13.703125 3.347656 13.601562 2.921875 C 13.558594 2.734375 13.484375 2.550781 13.382812 2.386719 C 13.597656 2.339844 13.816406 2.300781 14.039062 2.265625 C 14.015625 2.429688 14.035156 2.636719 14.082031 2.835938 C 14.230469 3.476562 14.375 4.097656 14.515625 4.734375 C 14.5625 4.945312 14.632812 5.144531 14.726562 5.285156 C 14.523438 5.316406 14.324219 5.347656 14.121094 5.386719 C 14.085938 5.394531 14.050781 5.382812 14.023438 5.359375 C 13.433594 4.828125 12.832031 4.3125 12.238281 3.835938 C 12.164062 3.777344 12.03125 3.683594 11.960938 3.609375 C 11.992188 3.667969 12.042969 3.855469 12.058594 3.933594 C 12.167969 4.363281 12.28125 4.804688 12.386719 5.238281 C 12.441406 5.445312 12.515625 5.636719 12.601562 5.773438 C 12.398438 5.835938 12.191406 5.90625 11.992188 5.980469 C 12.015625 5.816406 11.988281 5.605469 11.9375 5.402344 M 15.464844 3.59375 C 15.59375 2.550781 16.472656 2.03125 17.355469 2.144531 C 17.8125 2.207031 18.132812 2.386719 18.265625 2.515625 C 18.242188 2.722656 18.214844 2.929688 18.191406 3.136719 C 18.074219 2.980469 17.691406 2.664062 17.230469 2.605469 C 16.511719 2.515625 16.191406 3.023438 16.128906 3.546875 C 16.039062 4.261719 16.4375 4.761719 17.058594 4.839844 C 17.25 4.863281 17.441406 4.84375 17.625 4.789062 C 17.652344 4.554688 17.683594 4.324219 17.707031 4.097656 C 17.675781 4.09375 17.648438 4.089844 17.617188 4.082031 C 17.351562 4.046875 17.179688 4.050781 17 4.082031 C 17.015625 3.925781 17.035156 3.769531 17.054688 3.613281 C 17.058594 3.585938 17.082031 3.5625 17.113281 3.5625 C 17.519531 3.613281 17.925781 3.671875 18.328125 3.734375 C 18.257812 4.304688 18.1875 4.875 18.117188 5.449219 C 18.011719 5.386719 17.902344 5.328125 17.792969 5.265625 C 17.75 5.246094 17.707031 5.242188 17.664062 5.253906 C 17.40625 5.308594 17.136719 5.320312 16.871094 5.289062 C 16.085938 5.195312 15.339844 4.632812 15.464844 3.59375 M 19.4375 5.175781 C 19.6875 4.578125 19.933594 3.976562 20.179688 3.375 C 20.257812 3.183594 20.3125 2.984375 20.324219 2.824219 C 20.972656 3.035156 21.601562 3.292969 22.207031 3.597656 C 22.136719 3.773438 22.0625 3.949219 21.992188 4.128906 C 21.800781 3.9375 21.6875 3.847656 21.371094 3.710938 C 21.191406 3.632812 21.015625 3.558594 20.835938 3.492188 C 20.816406 3.527344 20.800781 3.5625 20.785156 3.597656 L 20.542969 4.179688 C 20.828125 4.289062 21.109375 4.410156 21.386719 4.535156 C 21.417969 4.546875 21.429688 4.578125 21.421875 4.605469 C 21.359375 4.753906 21.300781 4.898438 21.238281 5.046875 C 21.121094 4.933594 20.976562 4.839844 20.648438 4.703125 C 20.558594 4.667969 20.464844 4.632812 20.371094 4.59375 C 20.261719 4.859375 20.152344 5.128906 20.039062 5.394531 C 20.027344 5.429688 20.011719 5.464844 19.996094 5.503906 C 20.160156 5.566406 20.324219 5.632812 20.484375 5.699219 C 20.875 5.867188 21.117188 5.914062 21.335938 5.9375 C 21.230469 6.109375 21.125 6.28125 21.023438 6.457031 C 20.417969 6.152344 19.789062 5.898438 19.144531 5.691406 C 19.253906 5.558594 19.355469 5.375 19.4375 5.175781 M 23.332031 7.671875 C 23.296875 7.152344 23.398438 6.578125 23.496094 6.273438 C 23.503906 6.246094 23.539062 6.230469 23.566406 6.238281 C 23.570312 6.242188 23.578125 6.246094 23.582031 6.25 C 23.855469 6.4375 24.222656 6.609375 24.484375 6.273438 C 24.71875 5.972656 24.644531 5.65625 24.347656 5.417969 C 24.265625 5.355469 24.175781 5.296875 24.082031 5.253906 C 24.046875 5.292969 24.007812 5.339844 23.976562 5.382812 L 22.769531 6.914062 C 22.640625 7.078125 22.53125 7.253906 22.484375 7.410156 C 22.269531 7.25 22.050781 7.089844 21.835938 6.933594 C 21.996094 6.824219 22.136719 6.6875 22.257812 6.535156 L 23.464844 5.007812 C 23.582031 4.859375 23.679688 4.695312 23.746094 4.515625 C 24.054688 4.722656 24.28125 4.839844 24.574219 5.0625 C 25.113281 5.472656 25.542969 6.128906 25.046875 6.703125 C 24.765625 7.03125 24.320312 7.003906 24.011719 6.871094 C 23.902344 7.550781 23.9375 8.308594 24.195312 8.503906 C 24 8.582031 23.804688 8.527344 23.652344 8.40625 C 23.488281 8.261719 23.359375 8.007812 23.332031 7.671875 M 24.511719 8.992188 L 25.046875 8.617188 C 24.984375 8.96875 25.074219 9.421875 25.257812 9.6875 C 25.421875 9.925781 25.628906 9.953125 25.800781 9.832031 C 26.324219 9.46875 25.382812 8.414062 26.207031 7.84375 C 26.691406 7.507812 27.25 7.769531 27.609375 8.285156 C 27.789062 8.546875 27.882812 8.820312 27.902344 8.972656 L 27.390625 9.328125 C 27.410156 9.097656 27.375 8.730469 27.195312 8.46875 C 27.042969 8.25 26.84375 8.179688 26.671875 8.300781 C 26.199219 8.632812 27.140625 9.691406 26.269531 10.292969 C 25.773438 10.636719 25.226562 10.429688 24.847656 9.886719 C 24.609375 9.550781 24.511719 9.175781 24.511719 8.992188 M 3.3125 19.507812 L 4.867188 18.988281 C 5.035156 18.933594 5.195312 18.855469 5.300781 18.769531 L 5.847656 20.398438 L 5.386719 20.550781 C 5.394531 20.332031 5.378906 20.210938 5.289062 19.933594 L 5.132812 19.46875 L 4.535156 19.667969 L 4.78125 20.402344 C 4.789062 20.425781 4.777344 20.453125 4.753906 20.460938 L 4.375 20.585938 C 4.375 20.449219 4.347656 20.308594 4.253906 20.027344 L 4.175781 19.789062 L 3.484375 20.023438 C 3.316406 20.078125 3.15625 20.15625 3.050781 20.242188 L 2.835938 19.597656 C 2.972656 19.597656 3.144531 19.566406 3.3125 19.507812 M 5.90625 23.230469 C 6.394531 22.929688 6.566406 22.390625 6.292969 21.945312 C 6.03125 21.527344 5.542969 21.457031 5.109375 21.722656 C 4.632812 22.019531 4.453125 22.554688 4.734375 23.015625 C 4.984375 23.425781 5.480469 23.496094 5.90625 23.230469 M 4.738281 21.308594 C 5.421875 20.886719 6.226562 21.089844 6.667969 21.804688 C 7.09375 22.496094 6.9375 23.242188 6.273438 23.652344 C 5.589844 24.074219 4.796875 23.878906 4.355469 23.15625 C 3.929688 22.46875 4.070312 21.714844 4.738281 21.308594 M 8.117188 25.597656 C 8.511719 25.179688 8.535156 24.617188 8.15625 24.257812 C 7.796875 23.921875 7.308594 23.976562 6.957031 24.347656 C 6.574219 24.757812 6.535156 25.324219 6.929688 25.691406 C 7.277344 26.019531 7.777344 25.960938 8.117188 25.597656 M 6.492188 24.039062 C 7.042969 23.457031 7.871094 23.445312 8.484375 24.023438 C 9.070312 24.582031 9.117188 25.34375 8.578125 25.914062 C 8.027344 26.496094 7.210938 26.511719 6.597656 25.929688 C 6.011719 25.371094 5.953125 24.609375 6.492188 24.039062 M 9.160156 27.242188 L 9.988281 25.824219 C 10.003906 25.796875 10.015625 25.769531 10.03125 25.738281 L 9.863281 25.640625 C 9.601562 25.488281 9.460938 25.445312 9.28125 25.417969 L 9.519531 25 L 11.398438 26.09375 L 11.152344 26.511719 C 11.039062 26.378906 10.929688 26.265625 10.667969 26.113281 L 10.5 26.015625 C 10.480469 26.042969 10.460938 26.066406 10.449219 26.09375 L 9.625 27.511719 C 9.53125 27.664062 9.464844 27.828125 9.441406 27.96875 L 8.855469 27.625 C 8.976562 27.511719 9.078125 27.382812 9.160156 27.242188 M 12.828125 28.488281 C 12.921875 28.167969 12.671875 27.957031 12.3125 27.839844 C 12.296875 27.835938 12.285156 27.820312 12.289062 27.804688 C 12.289062 27.804688 12.289062 27.804688 12.292969 27.800781 L 12.363281 27.554688 C 12.371094 27.539062 12.382812 27.53125 12.398438 27.535156 L 12.402344 27.535156 C 12.675781 27.605469 12.890625 27.5 12.96875 27.242188 C 13.035156 27.011719 12.894531 26.8125 12.609375 26.730469 C 12.558594 26.714844 12.503906 26.707031 12.449219 26.710938 L 11.851562 28.722656 C 11.921875 28.761719 12 28.796875 12.078125 28.824219 C 12.410156 28.921875 12.734375 28.824219 12.828125 28.488281 M 11.195312 28.792969 C 11.289062 28.683594 11.351562 28.515625 11.402344 28.347656 L 11.863281 26.800781 C 11.914062 26.632812 11.949219 26.460938 11.933594 26.316406 C 12.238281 26.394531 12.433594 26.417969 12.640625 26.480469 C 13.1875 26.644531 13.644531 26.90625 13.488281 27.429688 C 13.398438 27.726562 13.132812 27.835938 12.871094 27.8125 C 13.148438 27.925781 13.488281 28.230469 13.367188 28.632812 C 13.164062 29.316406 12.453125 29.21875 12.0625 29.101562 C 11.769531 29.015625 11.480469 28.910156 11.195312 28.792969 M 15.507812 28.625 L 15.238281 27.722656 C 15.226562 27.679688 15.210938 27.621094 15.199219 27.5625 C 15.179688 27.621094 15.152344 27.675781 15.132812 27.71875 L 14.761719 28.578125 Z M 14.132812 28.960938 L 14.789062 27.535156 C 14.925781 27.234375 14.960938 27.09375 14.9375 26.992188 L 15.421875 27.027344 C 15.488281 27.03125 15.539062 27.074219 15.5625 27.136719 L 16.214844 29.097656 C 16.273438 29.269531 16.382812 29.558594 16.46875 29.703125 L 15.726562 29.652344 C 15.738281 29.5 15.722656 29.347656 15.679688 29.199219 L 15.621094 29.011719 L 14.605469 28.949219 L 14.535156 29.117188 C 14.445312 29.332031 14.425781 29.464844 14.417969 29.570312 L 13.796875 29.53125 C 13.90625 29.402344 14.011719 29.226562 14.132812 28.960938 M 17.242188 29.125 L 17 27.5 C 16.976562 27.339844 16.929688 27.183594 16.859375 27.035156 L 17.527344 26.9375 C 17.5 27.070312 17.503906 27.25 17.527344 27.421875 L 17.769531 29.042969 C 17.777344 29.074219 17.78125 29.109375 17.789062 29.136719 L 18.175781 29.082031 C 18.527344 29.027344 18.726562 28.945312 18.890625 28.847656 L 18.886719 29.367188 L 17.242188 29.609375 C 17.265625 29.449219 17.265625 29.285156 17.242188 29.125 M 19.773438 28.632812 L 19.21875 27.085938 C 19.167969 26.933594 19.089844 26.789062 18.992188 26.660156 L 19.628906 26.429688 C 19.628906 26.570312 19.667969 26.742188 19.726562 26.90625 L 20.28125 28.453125 C 20.289062 28.480469 20.300781 28.511719 20.316406 28.539062 L 20.683594 28.40625 C 21.019531 28.289062 21.195312 28.167969 21.339844 28.042969 L 21.4375 28.546875 L 19.875 29.109375 C 19.863281 28.949219 19.832031 28.785156 19.773438 28.632812 M 22.113281 26.835938 C 21.640625 26.152344 21.796875 25.367188 22.496094 24.882812 C 22.742188 24.714844 22.984375 24.632812 23.160156 24.621094 L 23.460938 25.058594 C 23.207031 25.03125 22.894531 25.082031 22.652344 25.25 C 22.261719 25.519531 22.210938 26.007812 22.515625 26.449219 C 22.835938 26.914062 23.363281 27.058594 23.804688 26.753906 C 24.066406 26.574219 24.175781 26.328125 24.230469 26.03125 L 24.53125 26.472656 C 24.453125 26.660156 24.246094 26.929688 23.941406 27.140625 C 23.261719 27.613281 22.558594 27.484375 22.113281 26.835938 M 25.082031 25.550781 L 23.886719 24.425781 C 23.769531 24.3125 23.632812 24.21875 23.488281 24.148438 L 23.953125 23.65625 C 24.015625 23.777344 24.128906 23.917969 24.253906 24.039062 L 25.449219 25.160156 L 25.523438 25.226562 L 25.792969 24.941406 C 26.035156 24.679688 26.136719 24.492188 26.210938 24.316406 L 26.527344 24.722656 L 25.386719 25.933594 C 25.304688 25.792969 25.203125 25.660156 25.082031 25.550781 M 26.144531 23.464844 L 25.265625 22.925781 C 25.117188 22.832031 24.953125 22.761719 24.816406 22.734375 L 25.167969 22.15625 C 25.277344 22.277344 25.402344 22.382812 25.539062 22.464844 L 26.394531 22.988281 C 26.710938 23.183594 27.09375 23.355469 27.359375 22.921875 C 27.621094 22.492188 27.324219 22.179688 27.007812 21.984375 L 26.152344 21.464844 C 26.007812 21.375 25.847656 21.300781 25.714844 21.273438 L 26.003906 20.800781 C 26.109375 20.921875 26.238281 21.027344 26.378906 21.109375 L 27.257812 21.652344 C 27.734375 21.945312 28.117188 22.402344 27.664062 23.140625 C 27.234375 23.84375 26.667969 23.789062 26.144531 23.464844 M 28.398438 19.484375 C 28.082031 19.382812 27.863281 19.632812 27.734375 19.988281 C 27.734375 20.003906 27.71875 20.015625 27.703125 20.011719 C 27.699219 20.011719 27.699219 20.011719 27.699219 20.007812 L 27.453125 19.925781 C 27.4375 19.921875 27.429688 19.90625 27.433594 19.894531 C 27.511719 19.621094 27.414062 19.402344 27.15625 19.324219 C 26.929688 19.246094 26.726562 19.386719 26.636719 19.667969 C 26.621094 19.71875 26.613281 19.773438 26.613281 19.824219 L 28.605469 20.472656 C 28.648438 20.402344 28.683594 20.324219 28.710938 20.246094 C 28.824219 19.910156 28.726562 19.589844 28.398438 19.484375 M 28.667969 21.121094 C 28.554688 21.023438 28.394531 20.960938 28.226562 20.902344 L 26.691406 20.40625 C 26.523438 20.351562 26.351562 20.3125 26.207031 20.324219 C 26.292969 20.023438 26.324219 19.828125 26.386719 19.625 C 26.566406 19.082031 26.839844 18.632812 27.355469 18.796875 C 27.652344 18.894531 27.753906 19.167969 27.726562 19.421875 C 27.847656 19.148438 28.160156 18.816406 28.558594 18.945312 C 29.238281 19.167969 29.121094 19.875 28.996094 20.261719 C 28.898438 20.554688 28.789062 20.84375 28.667969 21.121094 M 7.90625 21.863281 C 7.164062 21.003906 6.527344 19.53125 6.410156 18.746094 C 6.402344 18.699219 6.4375 18.65625 6.480469 18.644531 C 7.019531 18.496094 8.546875 18.113281 9.179688 18.03125 C 9.226562 18.027344 9.273438 18.054688 9.285156 18.105469 C 9.53125 19.242188 9.992188 20.195312 10.285156 20.671875 C 10.3125 20.714844 10.296875 20.773438 10.253906 20.800781 C 10.246094 20.804688 10.238281 20.808594 10.234375 20.808594 C 8.925781 21.238281 8.230469 21.730469 8.023438 21.871094 C 7.984375 21.898438 7.933594 21.898438 7.90625 21.863281 M 9.144531 14.675781 C 9.152344 14.617188 9.113281 14.5625 9.054688 14.554688 C 8.078125 14.390625 7.078125 14.125 6.363281 13.941406 C 6.3125 13.925781 6.257812 13.953125 6.238281 14.003906 C 6.164062 14.261719 6.109375 14.527344 6.082031 14.792969 C 5.9375 15.910156 6.007812 17.335938 6.238281 18.0625 C 6.257812 18.113281 6.308594 18.140625 6.359375 18.125 C 7.074219 17.941406 8.074219 17.675781 9.050781 17.511719 C 9.109375 17.503906 9.152344 17.449219 9.140625 17.386719 C 9.074219 16.917969 9.054688 16.335938 9.054688 16.03125 C 9.054688 15.730469 9.078125 15.152344 9.144531 14.675781 M 24.109375 10.203125 C 24.851562 11.066406 25.488281 12.539062 25.605469 13.320312 C 25.609375 13.371094 25.578125 13.414062 25.53125 13.425781 C 24.996094 13.570312 23.46875 13.957031 22.835938 14.039062 C 22.785156 14.042969 22.742188 14.011719 22.730469 13.964844 C 22.484375 12.828125 22.023438 11.875 21.730469 11.398438 C 21.703125 11.351562 21.714844 11.296875 21.761719 11.265625 C 21.765625 11.265625 21.777344 11.257812 21.78125 11.257812 C 23.089844 10.828125 23.785156 10.339844 23.992188 10.195312 C 24.027344 10.167969 24.078125 10.171875 24.109375 10.203125 M 24.109375 21.863281 C 24.851562 21.003906 25.488281 19.53125 25.609375 18.746094 C 25.613281 18.699219 25.582031 18.65625 25.535156 18.644531 C 24.996094 18.496094 23.46875 18.113281 22.835938 18.03125 C 22.789062 18.027344 22.742188 18.054688 22.734375 18.105469 C 22.484375 19.242188 22.027344 20.195312 21.734375 20.671875 C 21.707031 20.714844 21.71875 20.773438 21.765625 20.800781 C 21.769531 20.804688 21.777344 20.808594 21.785156 20.808594 C 23.089844 21.238281 23.789062 21.730469 23.996094 21.871094 C 24.027344 21.898438 24.078125 21.898438 24.109375 21.863281 M 22.871094 14.675781 C 22.863281 14.617188 22.902344 14.5625 22.960938 14.554688 C 23.9375 14.390625 24.9375 14.125 25.652344 13.941406 C 25.703125 13.925781 25.757812 13.953125 25.773438 14.003906 C 25.851562 14.261719 25.902344 14.527344 25.933594 14.792969 C 26.078125 15.910156 26.007812 17.335938 25.777344 18.0625 C 25.757812 18.113281 25.703125 18.140625 25.652344 18.125 C 24.941406 17.941406 23.941406 17.675781 22.964844 17.511719 C 22.90625 17.503906 22.863281 17.449219 22.871094 17.386719 C 22.941406 16.917969 22.960938 16.335938 22.960938 16.03125 L 22.957031 16.03125 C 22.957031 15.730469 22.941406 15.152344 22.871094 14.675781 "/>
</g>
</svg>
