<?xml version="1.0" encoding="UTF-8"?>
<svg xmlns="http://www.w3.org/2000/svg" xmlns:xlink="http://www.w3.org/1999/xlink" width="32px" height="32px" viewBox="0 0 32 46" version="1.1">
<g id="surface1">
<path style=" stroke:none;fill-rule:nonzero;fill:rgb(96.078431%,75.294118%,24.313725%);fill-opacity:1;" d="M 6.714844 7.390625 C 6.976562 6.007812 7.949219 4.980469 9.191406 4.683594 C 9.261719 4.667969 9.320312 4.664062 9.394531 4.652344 C 9.5625 4.617188 9.777344 4.578125 9.984375 4.601562 C 9.988281 4.605469 10 4.601562 9.996094 4.601562 C 10.160156 4.625 10.324219 4.628906 10.496094 4.660156 C 10.664062 4.6875 10.832031 4.75 10.984375 4.804688 C 11.019531 4.820312 11.101562 4.878906 11.144531 4.871094 L 11.148438 4.851562 C 11.347656 4.65625 11.511719 4.417969 11.722656 4.234375 C 12.199219 3.804688 12.914062 3.5 13.757812 3.5 C 14.105469 3.5 14.398438 3.578125 14.699219 3.628906 C 14.539062 2.957031 14.921875 2.34375 15.273438 2.105469 C 15.410156 2.015625 15.566406 1.960938 15.722656 1.890625 L 15.722656 1.300781 L 15.144531 1.300781 L 15.144531 0.683594 L 15.722656 0.683594 C 15.722656 0.476562 15.722656 0.253906 15.730469 0.0625 L 16.339844 0.0625 C 16.34375 0.253906 16.34375 0.480469 16.34375 0.683594 L 16.925781 0.683594 L 16.925781 1.300781 L 16.34375 1.300781 L 16.34375 1.890625 C 16.503906 1.960938 16.660156 2.015625 16.792969 2.105469 C 17.148438 2.34375 17.527344 2.957031 17.367188 3.628906 C 17.671875 3.578125 17.964844 3.5 18.308594 3.5 C 19.15625 3.5 19.867188 3.804688 20.34375 4.234375 C 20.554688 4.417969 20.71875 4.65625 20.917969 4.851562 L 20.925781 4.871094 C 20.96875 4.878906 21.046875 4.820312 21.085938 4.804688 C 21.234375 4.75 21.40625 4.6875 21.570312 4.660156 C 21.742188 4.628906 21.90625 4.625 22.070312 4.601562 C 22.070312 4.601562 22.078125 4.605469 22.085938 4.601562 C 22.289062 4.578125 22.503906 4.617188 22.671875 4.652344 C 22.746094 4.664062 22.804688 4.667969 22.875 4.683594 C 24.117188 4.980469 25.09375 6.007812 25.351562 7.390625 C 25.402344 7.65625 25.425781 7.988281 25.402344 8.308594 C 25.308594 9.75 24.855469 10.71875 24.34375 11.699219 C 24.121094 12.128906 23.863281 12.664062 23.476562 12.914062 C 23.535156 13.003906 23.605469 13.089844 23.648438 13.195312 C 23.75 13.433594 23.746094 13.765625 23.664062 14.015625 C 23.363281 14.9375 21.972656 15.171875 21.128906 14.652344 C 20.75 14.421875 20.546875 14.148438 20.492188 13.582031 C 19.789062 14.324219 18.261719 14.292969 17.699219 13.421875 C 17.628906 13.308594 17.585938 13.179688 17.542969 13.042969 C 17.441406 13.1875 17.351562 13.339844 17.222656 13.453125 C 16.921875 13.710938 16.476562 13.84375 16.035156 13.847656 C 15.589844 13.84375 15.148438 13.710938 14.847656 13.453125 C 14.714844 13.339844 14.625 13.1875 14.527344 13.042969 C 14.480469 13.179688 14.4375 13.308594 14.367188 13.421875 C 13.804688 14.292969 12.28125 14.324219 11.578125 13.582031 C 11.519531 14.148438 11.316406 14.421875 10.941406 14.652344 C 10.09375 15.171875 8.703125 14.9375 8.402344 14.015625 C 8.320312 13.765625 8.316406 13.433594 8.417969 13.195312 C 8.460938 13.089844 8.535156 13.003906 8.59375 12.914062 C 8.207031 12.664062 7.949219 12.128906 7.722656 11.699219 C 7.214844 10.71875 6.761719 9.75 6.664062 8.308594 C 6.640625 7.988281 6.664062 7.65625 6.714844 7.390625 Z M 6.714844 7.390625 "/>
<path style=" stroke:none;fill-rule:nonzero;fill:rgb(100%,6.666667%,9.803922%);fill-opacity:1;" d="M 9.867188 6.609375 C 9.347656 6.648438 9 6.898438 8.78125 7.269531 C 8.390625 7.929688 8.671875 9.148438 8.890625 9.789062 C 9.003906 10.132812 9.183594 10.449219 9.347656 10.753906 C 9.453125 10.957031 9.589844 11.148438 9.714844 11.335938 C 9.886719 11.59375 10.101562 11.839844 10.054688 12.316406 C 10.265625 12.351562 10.421875 12.371094 10.585938 12.421875 C 10.871094 12.511719 11.066406 12.699219 11.28125 12.863281 C 11.28125 12.523438 11.394531 12.316406 11.535156 12.132812 C 11.609375 12.03125 11.6875 11.949219 11.789062 11.875 C 11.832031 11.839844 11.867188 11.8125 11.917969 11.785156 C 11.867188 11.738281 11.8125 11.679688 11.765625 11.625 C 11.574219 11.398438 11.464844 11.050781 11.339844 10.753906 C 10.964844 9.875 10.632812 8.960938 10.496094 7.808594 C 10.457031 7.457031 10.433594 7.054688 10.484375 6.6875 C 10.3125 6.632812 10.050781 6.59375 9.867188 6.609375 "/>
<path style=" stroke:none;fill-rule:nonzero;fill:rgb(100%,6.666667%,9.803922%);fill-opacity:1;" d="M 14.085938 5.472656 C 14.480469 5.503906 14.808594 5.628906 15.097656 5.777344 L 15.097656 10.386719 C 15.097656 10.5625 15.089844 10.75 15.113281 10.910156 C 15.140625 11.09375 15.214844 11.253906 15.296875 11.382812 C 14.839844 11.621094 14.660156 11.785156 14.441406 12.292969 C 14.253906 11.890625 13.875 11.664062 13.441406 11.535156 C 13.464844 11.402344 13.507812 11.277344 13.496094 11.109375 C 13.476562 10.777344 13.332031 10.566406 13.230469 10.328125 C 13.128906 10.09375 13.027344 9.859375 12.933594 9.621094 C 12.648438 8.917969 12.132812 7.308594 12.488281 6.367188 C 12.574219 6.144531 12.714844 5.984375 12.875 5.84375 C 13.152344 5.597656 13.550781 5.429688 14.085938 5.472656 "/>
<path style=" stroke:none;fill-rule:nonzero;fill:rgb(100%,6.666667%,9.803922%);fill-opacity:1;" d="M 22.199219 6.609375 C 22.71875 6.648438 23.066406 6.898438 23.289062 7.269531 C 23.679688 7.929688 23.398438 9.148438 23.179688 9.789062 C 23.0625 10.132812 22.886719 10.449219 22.722656 10.753906 C 22.613281 10.957031 22.476562 11.148438 22.351562 11.335938 C 22.179688 11.59375 21.964844 11.839844 22.011719 12.316406 C 21.800781 12.351562 21.644531 12.371094 21.484375 12.421875 C 21.195312 12.511719 21 12.699219 20.789062 12.863281 C 20.789062 12.523438 20.675781 12.316406 20.535156 12.132812 C 20.457031 12.03125 20.378906 11.949219 20.28125 11.875 C 20.238281 11.839844 20.199219 11.8125 20.148438 11.785156 C 20.203125 11.738281 20.257812 11.679688 20.300781 11.625 C 20.496094 11.398438 20.605469 11.050781 20.730469 10.753906 C 21.105469 9.875 21.433594 8.960938 21.570312 7.808594 C 21.613281 7.457031 21.632812 7.054688 21.585938 6.6875 C 21.757812 6.632812 22.015625 6.59375 22.199219 6.609375 "/>
<path style=" stroke:none;fill-rule:nonzero;fill:rgb(100%,6.666667%,9.803922%);fill-opacity:1;" d="M 17.984375 5.472656 C 17.589844 5.503906 17.261719 5.628906 16.96875 5.777344 L 16.96875 10.386719 C 16.96875 10.5625 16.976562 10.75 16.953125 10.910156 C 16.925781 11.09375 16.855469 11.253906 16.773438 11.382812 C 17.230469 11.621094 17.410156 11.785156 17.628906 12.292969 C 17.816406 11.890625 18.191406 11.664062 18.628906 11.535156 C 18.601562 11.402344 18.558594 11.277344 18.570312 11.109375 C 18.59375 10.777344 18.738281 10.566406 18.839844 10.328125 C 18.9375 10.09375 19.039062 9.859375 19.136719 9.621094 C 19.417969 8.917969 19.933594 7.308594 19.578125 6.367188 C 19.492188 6.144531 19.351562 5.984375 19.191406 5.84375 C 18.917969 5.597656 18.515625 5.429688 17.984375 5.472656 "/>
<path style=" stroke:none;fill-rule:nonzero;fill:rgb(100%,6.666667%,9.803922%);fill-opacity:1;" d="M 0.183594 30.21875 C 0.183594 21.503906 7.28125 14.4375 16.035156 14.4375 C 24.789062 14.4375 31.882812 21.503906 31.882812 30.21875 C 31.882812 38.933594 24.789062 45.996094 16.035156 45.996094 C 7.28125 45.996094 0.183594 38.933594 0.183594 30.21875 Z M 0.183594 30.21875 "/>
<path style=" stroke:none;fill-rule:nonzero;fill:rgb(0%,0%,0%);fill-opacity:1;" d="M 2.304688 30.074219 C 2.304688 30.378906 2.597656 30.621094 2.960938 30.621094 C 3.324219 30.621094 3.617188 30.378906 3.617188 30.074219 C 3.617188 29.773438 3.324219 29.527344 2.960938 29.527344 C 2.597656 29.527344 2.304688 29.773438 2.304688 30.074219 Z M 2.304688 30.074219 "/>
<path style=" stroke:none;fill-rule:nonzero;fill:rgb(0%,0%,0%);fill-opacity:1;" d="M 3.628906 35.027344 C 4.347656 34.816406 4.816406 34.0625 4.636719 33.308594 L 4.402344 32.339844 L 1.640625 33.054688 L 1.871094 34.027344 C 2.058594 34.808594 2.882812 35.246094 3.628906 35.027344 Z M 2.488281 33.863281 L 2.421875 33.585938 L 3.953125 33.191406 L 4.019531 33.46875 C 4.113281 33.855469 3.832031 34.214844 3.460938 34.328125 C 3.066406 34.445312 2.585938 34.277344 2.488281 33.863281 Z M 2.488281 33.863281 "/>
<path style=" stroke:none;fill-rule:nonzero;fill:rgb(0%,0%,0%);fill-opacity:1;" d="M 5.253906 36.371094 L 5.722656 37.257812 L 6.28125 36.9375 L 5.476562 35.429688 L 2.984375 36.867188 L 3.8125 38.417969 L 4.367188 38.097656 L 3.875 37.167969 L 4.347656 36.894531 L 4.75 37.652344 L 5.304688 37.328125 L 4.902344 36.574219 Z M 5.253906 36.371094 "/>
<path style=" stroke:none;fill-rule:nonzero;fill:rgb(0%,0%,0%);fill-opacity:1;" d="M 8.585938 39.230469 L 7.976562 38.734375 L 6.226562 41.074219 L 6.886719 41.613281 C 7.351562 41.988281 7.957031 42.09375 8.289062 41.648438 C 8.492188 41.375 8.464844 41.039062 8.285156 40.746094 C 8.5625 40.808594 8.816406 40.742188 8.992188 40.507812 C 9.300781 40.097656 9.015625 39.578125 8.585938 39.230469 Z M 7.789062 41.148438 C 7.667969 41.3125 7.46875 41.246094 7.242188 41.058594 L 7.15625 40.988281 L 7.488281 40.546875 L 7.574219 40.617188 C 7.816406 40.8125 7.910156 40.988281 7.789062 41.148438 Z M 8.359375 40.1875 C 8.273438 40.304688 8.140625 40.300781 7.933594 40.128906 L 7.851562 40.0625 L 8.125 39.695312 L 8.203125 39.761719 C 8.414062 39.929688 8.445312 40.070312 8.359375 40.1875 Z M 8.359375 40.1875 "/>
<path style=" stroke:none;fill-rule:nonzero;fill:rgb(0%,0%,0%);fill-opacity:1;" d="M 9.085938 42.929688 L 9.648438 43.363281 L 10.042969 42.890625 L 10.867188 43.273438 L 10.792969 43.894531 L 11.480469 44.039062 L 11.683594 40.949219 L 11.152344 40.707031 Z M 10.945312 42.585938 L 10.476562 42.367188 L 11.054688 41.671875 Z M 10.945312 42.585938 "/>
<path style=" stroke:none;fill-rule:nonzero;fill:rgb(0%,0%,0%);fill-opacity:1;" d="M 21.28125 43.140625 L 20.304688 43.449219 L 20.148438 42.910156 L 20.941406 42.660156 L 20.757812 42.023438 L 19.960938 42.277344 L 19.84375 41.882812 L 20.777344 41.585938 L 20.589844 40.953125 L 19.003906 41.457031 L 19.839844 44.292969 L 21.46875 43.773438 Z M 21.28125 43.140625 "/>
<path style=" stroke:none;fill-rule:nonzero;fill:rgb(0%,0%,0%);fill-opacity:1;" d="M 24.175781 41.589844 L 23.304688 42.09375 L 22.230469 40.078125 L 21.632812 40.425781 L 23.015625 43.019531 L 24.484375 42.171875 Z M 24.175781 41.589844 "/>
<path style=" stroke:none;fill-rule:nonzero;fill:rgb(0%,0%,0%);fill-opacity:1;" d="M 24.234375 38.460938 C 23.683594 39.015625 23.851562 39.941406 24.382812 40.511719 C 24.914062 41.085938 25.796875 41.289062 26.34375 40.738281 C 26.894531 40.183594 26.730469 39.257812 26.199219 38.6875 C 25.667969 38.113281 24.785156 37.910156 24.234375 38.460938 Z M 25.910156 40.269531 C 25.617188 40.5625 25.210938 40.367188 24.878906 40.011719 C 24.550781 39.65625 24.375 39.226562 24.667969 38.933594 C 24.964844 38.636719 25.371094 38.832031 25.699219 39.1875 C 26.03125 39.542969 26.203125 39.972656 25.910156 40.269531 Z M 25.910156 40.269531 "/>
<path style=" stroke:none;fill-rule:nonzero;fill:rgb(0%,0%,0%);fill-opacity:1;" d="M 28.066406 36.117188 L 26.179688 36.191406 L 25.847656 36.816406 L 28.339844 38.253906 L 28.671875 37.632812 L 27.257812 36.816406 L 29.144531 36.742188 L 29.476562 36.117188 L 26.984375 34.679688 L 26.652344 35.300781 Z M 28.066406 36.117188 "/>
<path style=" stroke:none;fill-rule:nonzero;fill:rgb(0%,0%,0%);fill-opacity:1;" d="M 29.917969 32.789062 L 30.515625 32.734375 L 30.507812 32.003906 L 27.5625 32.4375 L 27.445312 33.027344 L 29.964844 34.671875 L 30.253906 34.007812 L 29.730469 33.707031 Z M 29.148438 33.371094 L 28.371094 32.925781 L 29.253906 32.847656 Z M 29.148438 33.371094 "/>
<path style=" stroke:none;fill-rule:nonzero;fill:rgb(0%,0%,0%);fill-opacity:1;" d="M 28.609375 30.394531 C 28.609375 30.695312 28.902344 30.9375 29.265625 30.9375 C 29.628906 30.9375 29.921875 30.695312 29.921875 30.394531 C 29.921875 30.089844 29.628906 29.847656 29.265625 29.847656 C 28.902344 29.847656 28.609375 30.089844 28.609375 30.394531 Z M 28.609375 30.394531 "/>
<path style=" stroke:none;fill-rule:nonzero;fill:rgb(0%,0%,0%);fill-opacity:1;" d="M 27.207031 26.914062 L 27.613281 28.613281 L 28.230469 28.449219 L 27.988281 27.441406 L 30.136719 26.886719 L 29.96875 26.195312 Z M 27.207031 26.914062 "/>
<path style=" stroke:none;fill-rule:nonzero;fill:rgb(0%,0%,0%);fill-opacity:1;" d="M 26.34375 24.96875 C 26.722656 25.65625 27.625 25.714844 28.289062 25.316406 C 28.949219 24.917969 29.355469 24.074219 28.972656 23.386719 C 28.589844 22.695312 27.6875 22.640625 27.027344 23.039062 C 26.363281 23.4375 25.960938 24.277344 26.34375 24.96875 Z M 27.371094 23.664062 C 27.785156 23.417969 28.226562 23.34375 28.429688 23.710938 C 28.632812 24.082031 28.355469 24.445312 27.941406 24.691406 C 27.53125 24.9375 27.089844 25.011719 26.882812 24.640625 C 26.679688 24.273438 26.960938 23.910156 27.371094 23.664062 Z M 27.371094 23.664062 "/>
<path style=" stroke:none;fill-rule:nonzero;fill:rgb(0%,0%,0%);fill-opacity:1;" d="M 25.058594 21.5 L 24.273438 22.261719 L 24.746094 22.792969 L 25.535156 22.027344 L 27.382812 21.574219 L 27.085938 20.910156 L 25.761719 21.308594 L 25.851562 21.058594 L 25.925781 21.042969 L 26.289062 19.992188 L 26.222656 19.953125 L 25.621094 19.609375 Z M 25.058594 21.5 "/>
<path style=" stroke:none;fill-rule:nonzero;fill:rgb(0%,0%,0%);fill-opacity:1;" d="M 22.722656 17.363281 L 21.210938 19.878906 L 21.792969 20.253906 L 22.648438 18.828125 L 22.621094 20.792969 L 23.203125 21.171875 L 24.710938 18.65625 L 24.132812 18.277344 L 23.277344 19.703125 L 23.28125 19.425781 L 23.328125 19.339844 L 23.347656 17.769531 L 23.300781 17.738281 Z M 22.722656 17.363281 "/>
<path style=" stroke:none;fill-rule:nonzero;fill:rgb(0%,0%,0%);fill-opacity:1;" d="M 19.941406 18.863281 L 19.972656 19.488281 L 20.675781 19.507812 L 20.359375 16.429688 L 19.796875 16.285156 L 18.132812 18.847656 L 18.757812 19.171875 L 19.066406 18.636719 Z M 19.863281 17.253906 L 19.90625 18.171875 L 19.410156 18.042969 Z M 19.863281 17.253906 "/>
<path style=" stroke:none;fill-rule:nonzero;fill:rgb(0%,0%,0%);fill-opacity:1;" d="M 16.402344 17.980469 L 16.511719 17.980469 C 17.121094 17.980469 17.703125 17.550781 17.703125 16.917969 C 17.703125 16.285156 17.121094 15.855469 16.511719 15.855469 L 15.71875 15.855469 L 15.71875 18.824219 L 16.402344 18.824219 Z M 16.402344 16.519531 L 16.511719 16.519531 C 16.753906 16.519531 17.011719 16.667969 17.011719 16.917969 C 17.011719 17.171875 16.753906 17.320312 16.511719 17.320312 L 16.402344 17.320312 Z M 16.402344 16.519531 "/>
<path style=" stroke:none;fill-rule:nonzero;fill:rgb(0%,0%,0%);fill-opacity:1;" d="M 13.625 17.917969 C 13.765625 17.964844 13.898438 18.015625 13.925781 18.167969 C 13.949219 18.3125 13.863281 18.457031 13.726562 18.503906 C 13.53125 18.566406 13.308594 18.519531 13.21875 18.332031 L 12.890625 18.914062 C 13.171875 19.183594 13.546875 19.21875 13.859375 19.152344 C 14.355469 19.042969 14.6875 18.539062 14.59375 18.019531 C 14.507812 17.582031 14.171875 17.382812 13.753906 17.265625 L 13.558594 17.207031 C 13.347656 17.148438 13.171875 17.113281 13.183594 16.9375 C 13.1875 16.828125 13.253906 16.726562 13.359375 16.703125 C 13.515625 16.664062 13.675781 16.65625 13.785156 16.773438 L 14.09375 16.214844 C 13.828125 16.007812 13.554688 15.984375 13.226562 16.058594 C 12.8125 16.148438 12.425781 16.601562 12.511719 17.082031 C 12.601562 17.558594 13.007812 17.722656 13.460938 17.863281 Z M 13.625 17.917969 "/>
<path style=" stroke:none;fill-rule:nonzero;fill:rgb(0%,0%,0%);fill-opacity:1;" d="M 11.84375 18.828125 L 10.910156 19.257812 L 10.691406 18.746094 L 11.449219 18.390625 L 11.191406 17.785156 L 10.429688 18.140625 L 10.269531 17.761719 L 11.15625 17.347656 L 10.898438 16.742188 L 9.386719 17.445312 L 10.542969 20.152344 L 12.101562 19.433594 Z M 11.84375 18.828125 "/>
<path style=" stroke:none;fill-rule:nonzero;fill:rgb(0%,0%,0%);fill-opacity:1;" d="M 7.832031 22.105469 C 8.367188 21.527344 8.289062 20.566406 7.714844 20.023438 C 7.164062 19.503906 6.300781 19.488281 5.78125 20.046875 L 5.117188 20.761719 L 7.164062 22.824219 Z M 6.238281 20.503906 C 6.507812 20.21875 6.945312 20.277344 7.234375 20.542969 C 7.539062 20.828125 7.65625 21.339844 7.375 21.644531 L 7.183594 21.851562 L 6.046875 20.710938 Z M 6.238281 20.503906 "/>
<path style=" stroke:none;fill-rule:nonzero;fill:rgb(0%,0%,0%);fill-opacity:1;" d="M 4.167969 24.753906 C 4.828125 25.132812 5.734375 25.078125 6.097656 24.390625 C 6.300781 24.011719 6.34375 23.675781 6.207031 23.269531 L 6.195312 23.21875 L 5.574219 23.367188 L 5.585938 23.398438 C 5.699219 23.625 5.683594 23.859375 5.550781 24.074219 C 5.332031 24.429688 4.859375 24.324219 4.503906 24.121094 C 4.152344 23.917969 3.832031 23.5625 3.988281 23.175781 C 4.085938 22.941406 4.246094 22.808594 4.480469 22.761719 L 4.296875 22.167969 C 3.894531 22.261719 3.644531 22.476562 3.441406 22.859375 C 3.09375 23.511719 3.507812 24.371094 4.167969 24.753906 Z M 4.167969 24.753906 "/>
<path style=" stroke:none;fill-rule:nonzero;fill:rgb(0%,0%,0%);fill-opacity:1;" d="M 4.738281 27.347656 L 3.824219 27.125 L 3.847656 27.019531 L 5.039062 26.445312 L 4.882812 25.761719 L 4.878906 25.761719 L 4.855469 25.671875 L 3.789062 26.234375 C 3.679688 25.933594 3.449219 25.722656 3.171875 25.65625 C 2.613281 25.523438 2.117188 25.992188 1.988281 26.570312 L 1.808594 27.375 L 4.585938 28.039062 Z M 3.226562 26.867188 L 3.203125 26.976562 L 2.582031 26.828125 L 2.609375 26.71875 C 2.679688 26.394531 2.816406 26.3125 3.015625 26.359375 C 3.210938 26.40625 3.273438 26.660156 3.226562 26.867188 Z M 3.226562 26.867188 "/>
<path style=" stroke:none;fill-rule:nonzero;fill:rgb(0%,0%,0%);fill-opacity:1;" d="M 14.484375 43.476562 C 14.765625 43.339844 14.953125 43.082031 15 42.789062 C 15.085938 42.203125 14.605469 41.71875 14.039062 41.625 L 13.257812 41.496094 L 12.8125 44.425781 L 13.488281 44.539062 L 13.632812 43.570312 L 13.738281 43.589844 L 14.371094 44.785156 L 15.015625 44.574219 L 15.015625 44.570312 L 15.09375 44.550781 Z M 14.3125 42.675781 C 14.28125 42.886719 14.042969 42.96875 13.84375 42.933594 L 13.734375 42.917969 L 13.832031 42.261719 L 13.941406 42.28125 C 14.253906 42.332031 14.34375 42.46875 14.3125 42.675781 Z M 14.3125 42.675781 "/>
<path style=" stroke:none;fill-rule:nonzero;fill:rgb(0%,0%,0%);fill-opacity:1;" d="M 17.933594 43.75 L 17.910156 43.792969 C 17.792969 44.011719 17.597656 44.121094 17.351562 44.125 C 16.949219 44.125 16.773438 43.65625 16.746094 43.238281 C 16.71875 42.820312 16.828125 42.34375 17.226562 42.269531 C 17.46875 42.230469 17.664062 42.292969 17.828125 42.476562 L 18.207031 41.992188 C 17.910156 41.691406 17.601562 41.589844 17.183594 41.621094 C 16.46875 41.671875 16 42.503906 16.054688 43.289062 C 16.105469 44.074219 16.644531 44.832031 17.394531 44.777344 C 17.8125 44.746094 18.109375 44.601562 18.359375 44.261719 L 18.382812 44.222656 Z M 17.933594 43.75 "/>
<path style=" stroke:none;fill-rule:nonzero;fill:rgb(96.078431%,75.294118%,24.313725%);fill-opacity:1;" d="M 2.121094 30.230469 C 2.121094 30.535156 2.414062 30.777344 2.777344 30.777344 C 3.140625 30.777344 3.433594 30.535156 3.433594 30.230469 C 3.433594 29.929688 3.140625 29.683594 2.777344 29.683594 C 2.414062 29.683594 2.121094 29.929688 2.121094 30.230469 Z M 2.121094 30.230469 "/>
<path style=" stroke:none;fill-rule:nonzero;fill:rgb(96.078431%,75.294118%,24.313725%);fill-opacity:1;" d="M 28.433594 30.230469 C 28.433594 30.535156 28.726562 30.777344 29.089844 30.777344 C 29.453125 30.777344 29.746094 30.535156 29.746094 30.230469 C 29.746094 29.929688 29.453125 29.683594 29.089844 29.683594 C 28.726562 29.683594 28.433594 29.929688 28.433594 30.230469 Z M 28.433594 30.230469 "/>
<path style=" stroke:none;fill-rule:nonzero;fill:rgb(96.078431%,75.294118%,24.313725%);fill-opacity:1;" d="M 3.976562 24.816406 C 4.636719 25.195312 5.539062 25.140625 5.90625 24.453125 C 6.109375 24.070312 6.152344 23.734375 6.015625 23.328125 L 5.390625 23.460938 C 5.503906 23.683594 5.488281 23.917969 5.355469 24.136719 C 5.136719 24.488281 4.664062 24.386719 4.3125 24.183594 C 3.957031 23.980469 3.636719 23.625 3.792969 23.234375 C 3.890625 23.003906 4.050781 22.867188 4.285156 22.824219 L 4.105469 22.226562 C 3.699219 22.320312 3.449219 22.539062 3.246094 22.917969 C 2.898438 23.570312 3.316406 24.433594 3.976562 24.816406 Z M 3.976562 24.816406 "/>
<path style=" stroke:none;fill-rule:nonzero;fill:rgb(96.078431%,75.294118%,24.313725%);fill-opacity:1;" d="M 7.582031 22.117188 C 8.121094 21.535156 8.039062 20.578125 7.46875 20.035156 C 6.914062 19.511719 6.050781 19.496094 5.535156 20.054688 L 4.867188 20.773438 L 6.917969 22.835938 Z M 5.992188 20.515625 C 6.257812 20.226562 6.699219 20.285156 6.988281 20.554688 C 7.289062 20.839844 7.410156 21.351562 7.125 21.65625 L 6.933594 21.863281 L 5.800781 20.722656 Z M 5.992188 20.515625 "/>
<path style=" stroke:none;fill-rule:nonzero;fill:rgb(96.078431%,75.294118%,24.313725%);fill-opacity:1;" d="M 23.132812 20.9375 L 24.644531 18.421875 L 24.0625 18.042969 L 23.207031 19.46875 L 23.234375 17.503906 L 22.65625 17.125 L 21.144531 19.640625 L 21.726562 20.019531 L 22.582031 18.59375 L 22.554688 20.558594 Z M 23.132812 20.9375 "/>
<path style=" stroke:none;fill-rule:nonzero;fill:rgb(96.078431%,75.294118%,24.313725%);fill-opacity:1;" d="M 19.761719 18.691406 L 19.792969 19.316406 L 20.492188 19.335938 L 20.179688 16.257812 L 19.617188 16.113281 L 17.949219 18.675781 L 18.578125 19 L 18.886719 18.464844 Z M 19.683594 17.082031 L 19.726562 18 L 19.230469 17.871094 Z M 19.683594 17.082031 "/>
<path style=" stroke:none;fill-rule:nonzero;fill:rgb(96.078431%,75.294118%,24.313725%);fill-opacity:1;" d="M 16.222656 17.808594 L 16.332031 17.808594 C 16.941406 17.808594 17.523438 17.378906 17.523438 16.746094 C 17.523438 16.113281 16.941406 15.683594 16.332031 15.683594 L 15.539062 15.683594 L 15.539062 18.648438 L 16.222656 18.648438 Z M 16.222656 16.347656 L 16.332031 16.347656 C 16.574219 16.347656 16.832031 16.496094 16.832031 16.746094 C 16.832031 17 16.574219 17.148438 16.332031 17.148438 L 16.222656 17.148438 Z M 16.222656 16.347656 "/>
<path style=" stroke:none;fill-rule:nonzero;fill:rgb(96.078431%,75.294118%,24.313725%);fill-opacity:1;" d="M 13.480469 17.757812 C 13.621094 17.804688 13.753906 17.855469 13.78125 18.003906 C 13.804688 18.152344 13.71875 18.296875 13.582031 18.34375 C 13.386719 18.40625 13.164062 18.359375 13.074219 18.171875 L 12.746094 18.753906 C 13.027344 19.019531 13.402344 19.058594 13.714844 18.992188 C 14.210938 18.878906 14.542969 18.378906 14.449219 17.859375 C 14.363281 17.421875 14.027344 17.222656 13.609375 17.101562 L 13.414062 17.046875 C 13.203125 16.984375 13.027344 16.953125 13.039062 16.773438 C 13.042969 16.667969 13.109375 16.566406 13.214844 16.542969 C 13.371094 16.503906 13.53125 16.492188 13.640625 16.609375 L 13.949219 16.050781 C 13.683594 15.847656 13.410156 15.824219 13.082031 15.894531 C 12.667969 15.988281 12.28125 16.441406 12.367188 16.921875 C 12.457031 17.398438 12.863281 17.5625 13.316406 17.703125 Z M 13.480469 17.757812 "/>
<path style=" stroke:none;fill-rule:nonzero;fill:rgb(96.078431%,75.294118%,24.313725%);fill-opacity:1;" d="M 10.683594 19.183594 L 10.460938 18.667969 L 11.222656 18.316406 L 10.964844 17.710938 L 10.203125 18.0625 L 10.042969 17.683594 L 10.929688 17.273438 L 10.671875 16.667969 L 9.15625 17.367188 L 10.316406 20.078125 L 11.875 19.355469 L 11.617188 18.75 Z M 10.683594 19.183594 "/>
<path style=" stroke:none;fill-rule:nonzero;fill:rgb(96.078431%,75.294118%,24.313725%);fill-opacity:1;" d="M 27.089844 20.65625 L 25.769531 21.058594 L 26.242188 19.710938 L 25.625 19.355469 L 25.066406 21.246094 L 24.277344 22.011719 L 24.75 22.539062 L 25.539062 21.773438 L 27.386719 21.324219 Z M 27.089844 20.65625 "/>
<path style=" stroke:none;fill-rule:nonzero;fill:rgb(96.078431%,75.294118%,24.313725%);fill-opacity:1;" d="M 26.328125 24.730469 C 26.707031 25.417969 27.613281 25.476562 28.273438 25.078125 C 28.9375 24.679688 29.339844 23.835938 28.957031 23.148438 C 28.574219 22.457031 27.671875 22.402344 27.011719 22.800781 C 26.347656 23.199219 25.945312 24.039062 26.328125 24.730469 Z M 27.359375 23.425781 C 27.769531 23.175781 28.210938 23.105469 28.414062 23.472656 C 28.621094 23.84375 28.339844 24.207031 27.925781 24.453125 C 27.515625 24.699219 27.074219 24.773438 26.871094 24.402344 C 26.664062 24.035156 26.945312 23.671875 27.359375 23.425781 Z M 27.359375 23.425781 "/>
<path style=" stroke:none;fill-rule:nonzero;fill:rgb(96.078431%,75.294118%,24.313725%);fill-opacity:1;" d="M 27.730469 28.390625 L 28.347656 28.230469 L 28.109375 27.222656 L 30.253906 26.667969 L 30.089844 25.976562 L 27.324219 26.691406 Z M 27.730469 28.390625 "/>
<path style=" stroke:none;fill-rule:nonzero;fill:rgb(96.078431%,75.294118%,24.313725%);fill-opacity:1;" d="M 3.742188 34.800781 C 4.460938 34.589844 4.929688 33.835938 4.75 33.082031 L 4.519531 32.113281 L 1.753906 32.832031 L 1.984375 33.800781 C 2.171875 34.582031 2.996094 35.019531 3.742188 34.800781 Z M 2.601562 33.640625 L 2.535156 33.359375 L 4.066406 32.964844 L 4.132812 33.242188 C 4.226562 33.632812 3.945312 33.988281 3.574219 34.101562 C 3.179688 34.21875 2.703125 34.050781 2.601562 33.640625 Z M 2.601562 33.640625 "/>
<path style=" stroke:none;fill-rule:nonzero;fill:rgb(96.078431%,75.294118%,24.313725%);fill-opacity:1;" d="M 5.792969 37.003906 L 6.347656 36.683594 L 5.542969 35.175781 L 3.050781 36.613281 L 3.878906 38.164062 L 4.4375 37.84375 L 3.941406 36.914062 L 4.414062 36.640625 L 4.816406 37.398438 L 5.375 37.078125 L 4.96875 36.320312 L 5.320312 36.121094 Z M 5.792969 37.003906 "/>
<path style=" stroke:none;fill-rule:nonzero;fill:rgb(96.078431%,75.294118%,24.313725%);fill-opacity:1;" d="M 8.554688 38.972656 L 7.949219 38.476562 L 6.195312 40.816406 L 6.855469 41.355469 C 7.320312 41.730469 7.925781 41.835938 8.257812 41.390625 C 8.460938 41.117188 8.433594 40.78125 8.253906 40.488281 C 8.53125 40.550781 8.785156 40.484375 8.960938 40.25 C 9.269531 39.839844 8.984375 39.320312 8.554688 38.972656 Z M 7.757812 40.890625 C 7.636719 41.054688 7.4375 40.988281 7.210938 40.800781 L 7.125 40.730469 L 7.457031 40.289062 L 7.542969 40.359375 C 7.785156 40.554688 7.878906 40.730469 7.757812 40.890625 Z M 8.328125 39.929688 C 8.242188 40.046875 8.113281 40.042969 7.902344 39.871094 L 7.820312 39.804688 L 8.09375 39.4375 L 8.171875 39.503906 C 8.382812 39.671875 8.417969 39.8125 8.328125 39.929688 Z M 8.328125 39.929688 "/>
<path style=" stroke:none;fill-rule:nonzero;fill:rgb(96.078431%,75.294118%,24.313725%);fill-opacity:1;" d="M 8.929688 42.722656 L 9.492188 43.160156 L 9.886719 42.6875 L 10.710938 43.070312 L 10.636719 43.6875 L 11.324219 43.835938 L 11.527344 40.746094 L 10.996094 40.5 Z M 10.792969 42.382812 L 10.324219 42.164062 L 10.902344 41.46875 Z M 10.792969 42.382812 "/>
<path style=" stroke:none;fill-rule:nonzero;fill:rgb(96.078431%,75.294118%,24.313725%);fill-opacity:1;" d="M 14.847656 42.589844 C 14.9375 42.003906 14.453125 41.519531 13.890625 41.425781 L 13.109375 41.296875 L 12.664062 44.226562 L 13.335938 44.339844 L 13.484375 43.371094 L 13.585938 43.390625 L 14.222656 44.585938 L 14.867188 44.375 L 14.253906 43.3125 C 14.578125 43.191406 14.800781 42.914062 14.847656 42.589844 Z M 14.164062 42.476562 C 14.132812 42.6875 13.894531 42.769531 13.691406 42.734375 L 13.585938 42.71875 L 13.683594 42.0625 L 13.792969 42.082031 C 14.105469 42.132812 14.195312 42.269531 14.164062 42.476562 Z M 14.164062 42.476562 "/>
<path style=" stroke:none;fill-rule:nonzero;fill:rgb(96.078431%,75.294118%,24.313725%);fill-opacity:1;" d="M 17.171875 43.996094 C 16.765625 43.996094 16.59375 43.527344 16.5625 43.109375 C 16.535156 42.691406 16.648438 42.214844 17.046875 42.140625 C 17.285156 42.101562 17.480469 42.164062 17.644531 42.347656 L 18.027344 41.863281 C 17.730469 41.5625 17.421875 41.460938 17.003906 41.492188 C 16.289062 41.542969 15.820312 42.375 15.871094 43.160156 C 15.925781 43.941406 16.460938 44.703125 17.214844 44.648438 C 17.632812 44.617188 17.925781 44.472656 18.179688 44.132812 L 17.734375 43.660156 C 17.617188 43.878906 17.417969 43.992188 17.171875 43.996094 Z M 17.171875 43.996094 "/>
<path style=" stroke:none;fill-rule:nonzero;fill:rgb(96.078431%,75.294118%,24.313725%);fill-opacity:1;" d="M 20.085938 43.34375 L 19.925781 42.804688 L 20.722656 42.550781 L 20.535156 41.917969 L 19.742188 42.171875 L 19.625 41.773438 L 20.554688 41.476562 L 20.367188 40.84375 L 18.785156 41.347656 L 19.617188 44.183594 L 21.246094 43.667969 L 21.0625 43.03125 Z M 20.085938 43.34375 "/>
<path style=" stroke:none;fill-rule:nonzero;fill:rgb(96.078431%,75.294118%,24.313725%);fill-opacity:1;" d="M 24.011719 38.410156 C 23.464844 38.960938 23.628906 39.886719 24.160156 40.460938 C 24.691406 41.03125 25.574219 41.238281 26.125 40.683594 C 26.675781 40.132812 26.507812 39.207031 25.976562 38.632812 C 25.445312 38.0625 24.5625 37.855469 24.011719 38.410156 Z M 25.6875 40.214844 C 25.394531 40.511719 24.988281 40.3125 24.660156 39.957031 C 24.328125 39.601562 24.15625 39.171875 24.449219 38.878906 C 24.742188 38.582031 25.148438 38.777344 25.480469 39.132812 C 25.808594 39.488281 25.984375 39.917969 25.6875 40.214844 Z M 25.6875 40.214844 "/>
<path style=" stroke:none;fill-rule:nonzero;fill:rgb(96.078431%,75.294118%,24.313725%);fill-opacity:1;" d="M 23.074219 42.03125 L 22 40.015625 L 21.402344 40.359375 L 22.785156 42.953125 L 24.253906 42.105469 L 23.945312 41.527344 Z M 23.074219 42.03125 "/>
<path style=" stroke:none;fill-rule:nonzero;fill:rgb(96.078431%,75.294118%,24.313725%);fill-opacity:1;" d="M 29.761719 32.992188 L 30.359375 32.9375 L 30.351562 32.207031 L 27.410156 32.644531 L 27.289062 33.234375 L 29.808594 34.875 L 30.097656 34.214844 L 29.574219 33.910156 Z M 28.992188 33.574219 L 28.21875 33.128906 L 29.097656 33.050781 Z M 28.992188 33.574219 "/>
<path style=" stroke:none;fill-rule:nonzero;fill:rgb(96.078431%,75.294118%,24.313725%);fill-opacity:1;" d="M 25.949219 36.269531 L 25.621094 36.890625 L 28.113281 38.328125 L 28.445312 37.707031 L 27.03125 36.890625 L 28.917969 36.816406 L 29.25 36.191406 L 26.757812 34.753906 L 26.425781 35.378906 L 27.835938 36.191406 Z M 25.949219 36.269531 "/>
<path style=" stroke:none;fill-rule:nonzero;fill:rgb(96.078431%,75.294118%,24.313725%);fill-opacity:1;" d="M 4.542969 27.484375 L 3.625 27.265625 L 3.648438 27.160156 L 4.839844 26.582031 L 4.683594 25.902344 L 3.621094 26.464844 C 3.527344 26.117188 3.277344 25.867188 2.972656 25.792969 C 2.417969 25.660156 1.917969 26.128906 1.789062 26.707031 L 1.613281 27.511719 L 4.386719 28.179688 Z M 3.03125 27.003906 L 3.003906 27.117188 L 2.382812 26.96875 L 2.410156 26.855469 C 2.480469 26.535156 2.617188 26.449219 2.816406 26.496094 C 3.015625 26.546875 3.074219 26.796875 3.03125 27.003906 Z M 3.03125 27.003906 "/>
<path style=" stroke:none;fill-rule:nonzero;fill:rgb(100%,100%,100%);fill-opacity:1;" d="M 19.691406 20.457031 L 6.398438 34.289062 C 6.6875 34.964844 7.046875 35.605469 7.464844 36.199219 L 21.660156 21.433594 C 21.042969 21.042969 20.386719 20.714844 19.691406 20.457031 Z M 19.691406 20.457031 "/>
<path style=" stroke:none;fill-rule:nonzero;fill:rgb(100%,100%,100%);fill-opacity:1;" d="M 5.617188 29.230469 L 14.585938 19.902344 C 9.816406 20.558594 6.074219 24.417969 5.617188 29.230469 Z M 5.617188 29.230469 "/>
<path style=" stroke:none;fill-rule:nonzero;fill:rgb(100%,100%,100%);fill-opacity:1;" d="M 24.601562 24.238281 L 10.410156 39.003906 C 11.023438 39.394531 11.683594 39.722656 12.375 39.980469 L 25.667969 26.148438 C 25.378906 25.472656 25.023438 24.835938 24.601562 24.238281 Z M 24.601562 24.238281 "/>
<path style=" stroke:none;fill-rule:nonzero;fill:rgb(100%,100%,100%);fill-opacity:1;" d="M 26.449219 31.207031 L 17.484375 40.535156 C 22.253906 39.878906 25.996094 36.019531 26.449219 31.207031 Z M 26.449219 31.207031 "/>
<path style=" stroke:none;fill-rule:nonzero;fill:rgb(11.764706%,41.960784%,75.294118%);fill-opacity:1;" d="M 21.660156 21.433594 L 7.464844 36.199219 C 8.253906 37.3125 9.253906 38.269531 10.410156 39.003906 L 24.601562 24.238281 C 23.816406 23.125 22.816406 22.167969 21.660156 21.433594 Z M 21.660156 21.433594 "/>
<path style=" stroke:none;fill-rule:nonzero;fill:rgb(11.764706%,41.960784%,75.294118%);fill-opacity:1;" d="M 26.496094 30.21875 C 26.496094 28.773438 26.203125 27.398438 25.667969 26.148438 L 12.375 39.980469 C 13.515625 40.402344 14.746094 40.636719 16.035156 40.636719 C 16.527344 40.636719 17.007812 40.601562 17.484375 40.535156 L 26.449219 31.207031 C 26.480469 30.882812 26.496094 30.550781 26.496094 30.21875 Z M 26.496094 30.21875 "/>
<path style=" stroke:none;fill-rule:nonzero;fill:rgb(11.764706%,41.960784%,75.294118%);fill-opacity:1;" d="M 16.035156 19.800781 C 15.542969 19.800781 15.058594 19.835938 14.585938 19.902344 L 5.617188 29.230469 C 5.585938 29.554688 5.570312 29.886719 5.570312 30.21875 C 5.570312 31.664062 5.867188 33.039062 6.398438 34.289062 L 19.691406 20.457031 C 18.554688 20.035156 17.320312 19.800781 16.035156 19.800781 Z M 16.035156 19.800781 "/>
</g>
</svg>
