<?xml version="1.0" encoding="UTF-8"?>
<svg xmlns="http://www.w3.org/2000/svg" xmlns:xlink="http://www.w3.org/1999/xlink" width="32px" height="32px" viewBox="0 0 32 44" version="1.1">
<g id="surface1">
<path style=" stroke:none;fill-rule:nonzero;fill:rgb(0%,32.156863%,62.352941%);fill-opacity:1;" d="M 26.550781 10.285156 C 26.644531 10.148438 26.699219 9.996094 26.699219 9.839844 C 26.699219 9.796875 26.695312 9.753906 26.6875 9.710938 C 26.65625 9.535156 26.5625 9.390625 26.421875 9.285156 C 26.46875 9.1875 26.5 9.082031 26.5 8.972656 C 26.5 8.667969 26.304688 8.394531 26.023438 8.285156 C 26.148438 8.148438 26.222656 7.976562 26.222656 7.789062 C 26.222656 7.441406 25.976562 7.148438 25.636719 7.070312 C 25.6875 6.972656 25.71875 6.867188 25.71875 6.753906 C 25.71875 6.34375 25.378906 6.011719 24.964844 6.011719 C 24.941406 6.011719 24.917969 6.019531 24.890625 6.023438 C 24.910156 5.960938 24.921875 5.898438 24.921875 5.832031 C 24.921875 5.421875 24.582031 5.089844 24.167969 5.089844 C 24.089844 5.089844 24.015625 5.105469 23.941406 5.128906 C 23.9375 4.722656 23.601562 4.390625 23.1875 4.390625 C 23.0625 4.390625 22.941406 4.429688 22.835938 4.484375 C 22.730469 4.195312 22.453125 3.984375 22.132812 3.984375 C 21.902344 3.984375 21.695312 4.089844 21.550781 4.261719 C 21.414062 4.144531 21.238281 4.074219 21.054688 4.074219 C 21.054688 4.074219 21.027344 4.078125 21.003906 4.078125 C 21.015625 4.027344 21.023438 3.976562 21.023438 3.921875 C 21.023438 3.511719 20.683594 3.179688 20.269531 3.179688 C 20.171875 3.179688 20.078125 3.207031 19.992188 3.242188 C 19.988281 3.046875 19.910156 2.863281 19.769531 2.722656 C 19.628906 2.582031 19.4375 2.507812 19.238281 2.507812 C 19.105469 2.507812 18.980469 2.546875 18.867188 2.613281 C 18.761719 2.324219 18.484375 2.117188 18.167969 2.117188 C 17.996094 2.117188 17.832031 2.175781 17.699219 2.277344 C 17.5625 2.066406 17.328125 1.925781 17.070312 1.925781 C 17 1.925781 16.9375 1.941406 16.871094 1.960938 C 16.746094 1.832031 16.597656 1.726562 16.425781 1.664062 C 16.425781 1.664062 16.386719 1.652344 16.351562 1.640625 C 16.351562 1.566406 16.351562 1.347656 16.351562 1.253906 C 16.460938 1.253906 16.792969 1.253906 16.792969 1.253906 C 16.832031 1.253906 16.863281 1.222656 16.863281 1.179688 L 16.863281 0.667969 C 16.863281 0.628906 16.832031 0.597656 16.792969 0.597656 C 16.792969 0.597656 16.460938 0.597656 16.351562 0.597656 C 16.351562 0.492188 16.351562 0.214844 16.351562 0.214844 C 16.351562 0.171875 16.320312 0.140625 16.277344 0.140625 L 15.726562 0.140625 C 15.6875 0.140625 15.65625 0.171875 15.65625 0.214844 C 15.65625 0.214844 15.65625 0.492188 15.65625 0.597656 C 15.546875 0.597656 15.214844 0.597656 15.214844 0.597656 C 15.175781 0.597656 15.140625 0.628906 15.140625 0.667969 L 15.140625 1.179688 C 15.140625 1.222656 15.175781 1.253906 15.214844 1.253906 C 15.214844 1.253906 15.546875 1.253906 15.65625 1.253906 C 15.65625 1.347656 15.65625 1.566406 15.65625 1.640625 C 15.617188 1.652344 15.578125 1.664062 15.578125 1.664062 C 15.410156 1.726562 15.257812 1.832031 15.136719 1.960938 C 15.070312 1.941406 15.003906 1.925781 14.9375 1.925781 C 14.675781 1.925781 14.441406 2.066406 14.304688 2.277344 C 14.171875 2.175781 14.011719 2.117188 13.839844 2.117188 C 13.519531 2.117188 13.246094 2.324219 13.136719 2.613281 C 13.023438 2.546875 12.902344 2.507812 12.769531 2.507812 C 12.355469 2.507812 12.019531 2.835938 12.015625 3.242188 C 11.925781 3.207031 11.832031 3.179688 11.738281 3.179688 C 11.320312 3.179688 10.984375 3.511719 10.984375 3.921875 C 10.984375 3.976562 10.992188 4.027344 11.003906 4.078125 C 10.980469 4.078125 10.949219 4.074219 10.949219 4.074219 C 10.765625 4.074219 10.589844 4.144531 10.453125 4.261719 C 10.3125 4.089844 10.101562 3.984375 9.875 3.984375 C 9.554688 3.984375 9.277344 4.195312 9.171875 4.484375 C 9.0625 4.429688 8.945312 4.390625 8.820312 4.390625 C 8.40625 4.390625 8.066406 4.722656 8.066406 5.128906 C 7.992188 5.105469 7.917969 5.089844 7.839844 5.089844 C 7.421875 5.089844 7.085938 5.421875 7.085938 5.832031 C 7.085938 5.898438 7.097656 5.960938 7.113281 6.023438 C 7.089844 6.019531 7.066406 6.011719 7.042969 6.011719 C 6.625 6.011719 6.289062 6.34375 6.289062 6.753906 C 6.289062 6.867188 6.320312 6.972656 6.367188 7.070312 C 6.03125 7.148438 5.785156 7.441406 5.785156 7.789062 C 5.785156 7.976562 5.855469 8.148438 5.980469 8.285156 C 5.699219 8.394531 5.507812 8.667969 5.507812 8.972656 C 5.507812 9.082031 5.535156 9.1875 5.582031 9.285156 C 5.445312 9.390625 5.347656 9.535156 5.316406 9.710938 C 5.308594 9.753906 5.304688 9.796875 5.304688 9.839844 C 5.304688 9.996094 5.363281 10.148438 5.457031 10.285156 C 5.355469 10.386719 5.300781 10.515625 5.300781 10.664062 C 5.300781 10.667969 5.300781 10.671875 5.300781 10.675781 C 5.304688 10.964844 5.503906 11.246094 5.683594 11.386719 C 6.023438 11.648438 6.394531 11.683594 6.710938 11.5 C 7.007812 11.707031 7.378906 11.785156 7.734375 11.710938 C 7.730469 11.734375 7.71875 11.753906 7.71875 11.777344 C 7.71875 11.84375 7.734375 11.90625 7.765625 11.96875 C 7.816406 12.082031 7.910156 12.164062 8.023438 12.203125 C 8.09375 12.230469 8.167969 12.234375 8.242188 12.222656 C 8.234375 12.234375 8.230469 12.246094 8.222656 12.261719 C 8.203125 12.320312 8.207031 12.390625 8.234375 12.453125 C 8.261719 12.507812 8.3125 12.550781 8.371094 12.574219 C 8.390625 12.578125 8.40625 12.582031 8.421875 12.582031 L 8.316406 13.007812 C 8.3125 13.03125 8.320312 13.050781 8.339844 13.0625 L 8.773438 13.300781 C 8.738281 13.347656 8.714844 13.402344 8.714844 13.460938 C 8.714844 13.5 8.722656 13.535156 8.738281 13.574219 C 8.804688 13.710938 8.953125 13.765625 9.082031 13.707031 C 11.246094 12.703125 13.574219 12.195312 16.003906 12.195312 C 18.429688 12.195312 20.757812 12.703125 22.921875 13.707031 C 23.054688 13.765625 23.199219 13.710938 23.265625 13.574219 C 23.28125 13.539062 23.289062 13.5 23.289062 13.460938 C 23.289062 13.402344 23.269531 13.347656 23.230469 13.300781 L 23.664062 13.0625 C 23.683594 13.050781 23.695312 13.03125 23.691406 13.007812 L 23.582031 12.582031 C 23.664062 12.570312 23.734375 12.527344 23.769531 12.449219 C 23.789062 12.414062 23.796875 12.378906 23.796875 12.339844 C 23.796875 12.3125 23.792969 12.285156 23.78125 12.261719 C 23.777344 12.242188 23.765625 12.226562 23.753906 12.210938 C 23.953125 12.242188 24.152344 12.152344 24.242188 11.96875 C 24.269531 11.90625 24.285156 11.84375 24.285156 11.777344 C 24.285156 11.753906 24.273438 11.734375 24.269531 11.710938 C 24.625 11.785156 24.996094 11.707031 25.296875 11.5 C 25.609375 11.683594 25.980469 11.648438 26.320312 11.386719 C 26.503906 11.246094 26.699219 10.964844 26.703125 10.675781 C 26.703125 10.671875 26.703125 10.667969 26.703125 10.664062 C 26.703125 10.515625 26.648438 10.386719 26.550781 10.285156 Z M 9.390625 7.039062 C 9.390625 7.054688 9.390625 7.070312 9.394531 7.085938 C 9.027344 7.167969 8.609375 7.273438 8.269531 7.40625 C 8.027344 7.5 7.824219 7.617188 7.660156 7.734375 C 8.027344 6.964844 8.652344 6.421875 9.671875 5.902344 C 9.683594 6.070312 9.75 6.226562 9.863281 6.347656 C 9.582031 6.457031 9.390625 6.730469 9.390625 7.039062 Z M 15.4375 4.550781 C 15.371094 4.65625 15.335938 4.773438 15.335938 4.894531 C 15.335938 5.015625 15.371094 5.136719 15.4375 5.238281 C 15.4375 5.253906 15.4375 5.421875 15.4375 5.558594 C 14.238281 5.390625 12.699219 5.503906 11.5 6.113281 C 12.074219 4.703125 13.402344 3.589844 15.335938 3.699219 C 15.335938 3.820312 15.371094 3.9375 15.4375 4.039062 C 15.4375 4.066406 15.4375 4.523438 15.4375 4.550781 Z M 16.566406 5.558594 C 16.566406 5.421875 16.566406 5.253906 16.566406 5.238281 C 16.632812 5.136719 16.671875 5.019531 16.671875 4.894531 C 16.671875 4.769531 16.632812 4.652344 16.566406 4.550781 C 16.566406 4.523438 16.566406 4.066406 16.566406 4.039062 C 16.632812 3.9375 16.671875 3.820312 16.671875 3.699219 C 18.605469 3.589844 19.933594 4.703125 20.503906 6.113281 C 19.304688 5.503906 17.769531 5.390625 16.566406 5.558594 Z M 23.738281 7.40625 C 23.398438 7.273438 22.980469 7.167969 22.613281 7.085938 C 22.613281 7.070312 22.617188 7.054688 22.617188 7.039062 C 22.617188 6.730469 22.421875 6.460938 22.140625 6.347656 C 22.253906 6.226562 22.324219 6.070312 22.332031 5.902344 C 23.355469 6.421875 23.976562 6.964844 24.34375 7.734375 C 24.179688 7.617188 23.980469 7.5 23.738281 7.40625 Z M 23.738281 7.40625 "/>
<path style=" stroke:none;fill-rule:nonzero;fill:rgb(93.333333%,19.607843%,30.588235%);fill-opacity:1;" d="M 24.570312 11.035156 C 24.457031 11.042969 24.347656 11.023438 24.25 10.96875 C 24.058594 10.867188 23.941406 10.667969 23.941406 10.457031 C 23.941406 10.445312 23.941406 10.429688 23.945312 10.417969 C 24.015625 10.332031 24.066406 10.238281 24.09375 10.132812 C 24.109375 10.070312 24.117188 10.007812 24.117188 9.945312 C 24.117188 9.8125 24.082031 9.683594 24.011719 9.570312 C 23.910156 9.398438 23.746094 9.277344 23.546875 9.226562 C 23.144531 9.125 22.730469 9.363281 22.625 9.761719 C 22.625 9.761719 22.613281 9.84375 22.609375 9.886719 C 22.460938 10.066406 22.222656 10.148438 21.992188 10.089844 C 21.738281 10.027344 21.5625 9.808594 21.550781 9.554688 C 22.09375 9.65625 22.421875 9.460938 22.558594 8.941406 C 22.585938 8.835938 22.601562 8.734375 22.601562 8.644531 C 22.601562 8.367188 22.464844 8.164062 22.199219 8.023438 C 22.199219 8.015625 22.203125 8.007812 22.203125 7.996094 C 22.203125 7.894531 22.179688 7.800781 22.148438 7.714844 C 22.378906 7.621094 22.550781 7.421875 22.601562 7.183594 C 22.960938 7.261719 23.371094 7.367188 23.703125 7.496094 C 24.011719 7.613281 24.25 7.777344 24.429688 7.925781 C 24.613281 8.382812 24.722656 8.914062 24.777344 9.566406 C 24.589844 9.644531 24.441406 9.816406 24.332031 10.09375 C 24.277344 10.234375 24.25 10.359375 24.25 10.476562 C 24.25 10.707031 24.359375 10.890625 24.570312 11.035156 Z M 24.570312 11.035156 "/>
<path style=" stroke:none;fill-rule:nonzero;fill:rgb(93.333333%,19.607843%,30.588235%);fill-opacity:1;" d="M 20.277344 9.234375 C 20.144531 9.449219 19.886719 9.558594 19.628906 9.492188 C 19.378906 9.429688 19.195312 9.207031 19.1875 8.949219 C 19.242188 8.84375 19.277344 8.726562 19.277344 8.605469 C 19.277344 8.195312 18.9375 7.859375 18.519531 7.859375 C 18.101562 7.859375 17.761719 8.195312 17.761719 8.605469 C 17.761719 8.667969 17.773438 8.726562 17.789062 8.789062 C 17.707031 9.03125 17.484375 9.195312 17.222656 9.195312 C 16.957031 9.195312 16.738281 9.023438 16.664062 8.78125 C 17.210938 8.746094 17.480469 8.476562 17.480469 7.945312 C 17.480469 7.492188 17.285156 7.230469 16.894531 7.136719 C 16.828125 6.867188 16.667969 6.691406 16.417969 6.605469 C 16.574219 6.484375 16.671875 6.296875 16.671875 6.09375 C 16.671875 5.96875 16.632812 5.851562 16.566406 5.75 C 16.566406 5.742188 16.566406 5.707031 16.566406 5.65625 C 17.785156 5.480469 19.359375 5.601562 20.558594 6.25 C 20.675781 6.574219 20.757812 6.910156 20.796875 7.25 C 20.660156 7.316406 20.550781 7.425781 20.46875 7.578125 C 20.066406 7.574219 19.8125 7.78125 19.699219 8.21875 C 19.671875 8.328125 19.65625 8.425781 19.65625 8.515625 C 19.65625 8.867188 19.863281 9.101562 20.277344 9.234375 Z M 20.277344 9.234375 "/>
<path style=" stroke:none;fill-rule:nonzero;fill:rgb(93.333333%,19.607843%,30.588235%);fill-opacity:1;" d="M 15.589844 6.605469 C 15.335938 6.691406 15.175781 6.867188 15.113281 7.136719 C 14.71875 7.230469 14.527344 7.492188 14.527344 7.945312 C 14.527344 8.476562 14.796875 8.746094 15.34375 8.78125 C 15.265625 9.023438 15.046875 9.195312 14.785156 9.195312 C 14.527344 9.195312 14.296875 9.027344 14.21875 8.789062 C 14.234375 8.726562 14.246094 8.667969 14.246094 8.605469 C 14.246094 8.40625 14.167969 8.21875 14.023438 8.078125 C 13.878906 7.9375 13.691406 7.859375 13.488281 7.859375 C 13.070312 7.859375 12.730469 8.195312 12.730469 8.605469 C 12.730469 8.726562 12.761719 8.84375 12.820312 8.949219 C 12.808594 9.207031 12.628906 9.429688 12.375 9.492188 C 12.121094 9.558594 11.863281 9.449219 11.726562 9.234375 C 12.140625 9.101562 12.347656 8.867188 12.347656 8.515625 C 12.347656 8.425781 12.335938 8.328125 12.308594 8.21875 C 12.191406 7.78125 11.941406 7.574219 11.539062 7.578125 C 11.457031 7.425781 11.347656 7.316406 11.210938 7.25 C 11.25 6.910156 11.328125 6.574219 11.449219 6.25 C 12.644531 5.601562 14.21875 5.480469 15.4375 5.65625 C 15.4375 5.707031 15.4375 5.742188 15.4375 5.75 C 15.371094 5.851562 15.335938 5.972656 15.335938 6.09375 C 15.335938 6.296875 15.429688 6.484375 15.589844 6.605469 Z M 15.589844 6.605469 "/>
<path style=" stroke:none;fill-rule:nonzero;fill:rgb(93.333333%,19.607843%,30.588235%);fill-opacity:1;" d="M 9.804688 8.023438 C 9.542969 8.164062 9.40625 8.367188 9.40625 8.644531 C 9.40625 8.734375 9.417969 8.835938 9.449219 8.941406 C 9.582031 9.460938 9.914062 9.65625 10.453125 9.554688 C 10.441406 9.808594 10.269531 10.027344 10.011719 10.089844 C 9.785156 10.148438 9.542969 10.066406 9.398438 9.886719 C 9.394531 9.847656 9.378906 9.761719 9.378906 9.761719 C 9.277344 9.363281 8.863281 9.125 8.457031 9.226562 C 8.261719 9.273438 8.097656 9.398438 7.992188 9.570312 C 7.921875 9.683594 7.886719 9.8125 7.886719 9.945312 C 7.886719 10.007812 7.894531 10.070312 7.914062 10.132812 C 7.941406 10.238281 7.992188 10.332031 8.0625 10.417969 C 8.0625 10.429688 8.066406 10.445312 8.066406 10.457031 C 8.066406 10.667969 7.949219 10.867188 7.757812 10.96875 C 7.65625 11.023438 7.546875 11.042969 7.4375 11.035156 C 7.644531 10.890625 7.753906 10.707031 7.753906 10.476562 C 7.753906 10.359375 7.726562 10.234375 7.671875 10.09375 C 7.566406 9.816406 7.414062 9.644531 7.230469 9.5625 C 7.285156 8.914062 7.390625 8.382812 7.574219 7.925781 C 7.753906 7.777344 7.996094 7.613281 8.304688 7.496094 C 8.636719 7.367188 9.046875 7.261719 9.40625 7.183594 C 9.457031 7.421875 9.628906 7.621094 9.859375 7.714844 C 9.824219 7.800781 9.804688 7.894531 9.804688 7.996094 C 9.804688 8.007812 9.804688 8.015625 9.804688 8.023438 Z M 9.804688 8.023438 "/>
<path style=" stroke:none;fill-rule:nonzero;fill:rgb(93.333333%,19.607843%,30.588235%);fill-opacity:1;" d="M 22.527344 10.757812 C 22.679688 10.71875 22.820312 10.65625 22.949219 10.570312 C 23.019531 10.613281 23.09375 10.648438 23.171875 10.667969 C 23.171875 10.667969 23.195312 10.671875 23.21875 10.675781 C 23.253906 10.824219 23.316406 10.96875 23.398438 11.097656 C 23.109375 10.976562 22.820312 10.863281 22.527344 10.757812 Z M 22.527344 10.757812 "/>
<path style=" stroke:none;fill-rule:nonzero;fill:rgb(93.333333%,19.607843%,30.588235%);fill-opacity:1;" d="M 16.003906 9.617188 C 16.003906 9.617188 15.773438 9.621094 15.570312 9.625 C 15.769531 9.480469 15.917969 9.28125 16.003906 9.054688 C 16.089844 9.28125 16.238281 9.480469 16.433594 9.625 C 16.230469 9.621094 16.003906 9.617188 16.003906 9.617188 Z M 16.003906 9.617188 "/>
<path style=" stroke:none;fill-rule:nonzero;fill:rgb(93.333333%,19.607843%,30.588235%);fill-opacity:1;" d="M 8.609375 11.097656 C 8.691406 10.96875 8.753906 10.824219 8.785156 10.675781 C 8.8125 10.671875 8.835938 10.667969 8.835938 10.667969 C 8.914062 10.648438 8.988281 10.613281 9.054688 10.570312 C 9.183594 10.65625 9.328125 10.71875 9.480469 10.757812 C 9.1875 10.863281 8.898438 10.976562 8.609375 11.097656 Z M 8.609375 11.097656 "/>
<path style=" stroke:none;fill-rule:nonzero;fill:rgb(93.333333%,19.607843%,30.588235%);fill-opacity:1;" d="M 10.898438 10.308594 C 11.046875 10.117188 11.132812 9.890625 11.15625 9.652344 C 11.296875 9.851562 11.488281 10.007812 11.714844 10.101562 C 11.4375 10.164062 11.164062 10.234375 10.898438 10.308594 Z M 10.898438 10.308594 "/>
<path style=" stroke:none;fill-rule:nonzero;fill:rgb(93.333333%,19.607843%,30.588235%);fill-opacity:1;" d="M 13.167969 9.828125 C 13.3125 9.691406 13.425781 9.53125 13.5 9.347656 C 13.550781 9.347656 13.605469 9.335938 13.65625 9.328125 C 13.773438 9.484375 13.925781 9.617188 14.101562 9.714844 C 13.789062 9.746094 13.480469 9.785156 13.167969 9.828125 Z M 13.167969 9.828125 "/>
<path style=" stroke:none;fill-rule:nonzero;fill:rgb(93.333333%,19.607843%,30.588235%);fill-opacity:1;" d="M 17.902344 9.714844 C 18.078125 9.617188 18.234375 9.484375 18.351562 9.328125 C 18.402344 9.335938 18.453125 9.347656 18.507812 9.347656 C 18.582031 9.53125 18.695312 9.695312 18.839844 9.828125 C 18.527344 9.785156 18.214844 9.746094 17.902344 9.714844 Z M 17.902344 9.714844 "/>
<path style=" stroke:none;fill-rule:nonzero;fill:rgb(93.333333%,19.607843%,30.588235%);fill-opacity:1;" d="M 20.292969 10.101562 C 20.519531 10.007812 20.710938 9.851562 20.851562 9.652344 C 20.875 9.890625 20.960938 10.117188 21.109375 10.308594 C 20.839844 10.234375 20.566406 10.164062 20.292969 10.101562 Z M 20.292969 10.101562 "/>
<path style=" stroke:none;fill-rule:nonzero;fill:rgb(100%,100%,100%);fill-opacity:1;" d="M 14.601562 2.667969 C 14.601562 2.488281 14.753906 2.339844 14.9375 2.339844 C 15.121094 2.339844 15.273438 2.488281 15.273438 2.667969 C 15.273438 2.851562 15.121094 2.996094 14.9375 2.996094 C 14.753906 2.996094 14.601562 2.851562 14.601562 2.667969 Z M 14.601562 2.667969 "/>
<path style=" stroke:none;fill-rule:nonzero;fill:rgb(100%,100%,100%);fill-opacity:1;" d="M 15.667969 3.695312 C 15.667969 3.515625 15.816406 3.367188 16.003906 3.367188 C 16.1875 3.367188 16.339844 3.515625 16.339844 3.695312 C 16.339844 3.878906 16.1875 4.023438 16.003906 4.023438 C 15.816406 4.023438 15.667969 3.878906 15.667969 3.695312 Z M 15.667969 3.695312 "/>
<path style=" stroke:none;fill-rule:nonzero;fill:rgb(100%,100%,100%);fill-opacity:1;" d="M 15.667969 4.894531 C 15.667969 4.710938 15.816406 4.566406 16.003906 4.566406 C 16.1875 4.566406 16.339844 4.714844 16.339844 4.894531 C 16.339844 5.078125 16.1875 5.222656 16.003906 5.222656 C 15.816406 5.222656 15.667969 5.078125 15.667969 4.894531 Z M 15.667969 4.894531 "/>
<path style=" stroke:none;fill-rule:nonzero;fill:rgb(100%,100%,100%);fill-opacity:1;" d="M 15.667969 6.09375 C 15.667969 5.910156 15.816406 5.765625 16.003906 5.765625 C 16.1875 5.765625 16.339844 5.910156 16.339844 6.09375 C 16.339844 6.273438 16.1875 6.421875 16.003906 6.421875 C 15.816406 6.421875 15.667969 6.273438 15.667969 6.09375 Z M 15.667969 6.09375 "/>
<path style=" stroke:none;fill-rule:nonzero;fill:rgb(100%,100%,100%);fill-opacity:1;" d="M 13.503906 2.855469 C 13.503906 2.769531 13.539062 2.6875 13.601562 2.625 C 13.667969 2.5625 13.75 2.527344 13.839844 2.527344 C 14.023438 2.527344 14.175781 2.675781 14.175781 2.855469 C 14.175781 3.039062 14.023438 3.1875 13.839844 3.1875 C 13.65625 3.1875 13.503906 3.039062 13.503906 2.855469 Z M 13.503906 2.855469 "/>
<path style=" stroke:none;fill-rule:nonzero;fill:rgb(100%,100%,100%);fill-opacity:1;" d="M 12.433594 3.246094 C 12.433594 3.066406 12.585938 2.917969 12.769531 2.917969 C 12.953125 2.917969 13.105469 3.066406 13.105469 3.246094 C 13.105469 3.429688 12.953125 3.578125 12.769531 3.578125 C 12.585938 3.578125 12.433594 3.429688 12.433594 3.246094 Z M 12.433594 3.246094 "/>
<path style=" stroke:none;fill-rule:nonzero;fill:rgb(100%,100%,100%);fill-opacity:1;" d="M 11.402344 3.921875 C 11.402344 3.742188 11.554688 3.59375 11.738281 3.59375 C 11.828125 3.59375 11.910156 3.628906 11.972656 3.6875 C 12.039062 3.75 12.074219 3.835938 12.074219 3.921875 C 12.074219 4.105469 11.921875 4.25 11.738281 4.25 C 11.554688 4.25 11.402344 4.105469 11.402344 3.921875 Z M 11.402344 3.921875 "/>
<path style=" stroke:none;fill-rule:nonzero;fill:rgb(100%,100%,100%);fill-opacity:1;" d="M 10.613281 4.816406 C 10.613281 4.632812 10.765625 4.484375 10.949219 4.484375 C 11.132812 4.484375 11.285156 4.632812 11.285156 4.816406 C 11.285156 4.996094 11.132812 5.144531 10.949219 5.144531 C 10.765625 5.144531 10.613281 4.996094 10.613281 4.816406 Z M 10.613281 4.816406 "/>
<path style=" stroke:none;fill-rule:nonzero;fill:rgb(100%,100%,100%);fill-opacity:1;" d="M 9.539062 4.726562 C 9.539062 4.542969 9.691406 4.398438 9.875 4.398438 C 9.964844 4.398438 10.046875 4.429688 10.109375 4.492188 C 10.175781 4.554688 10.210938 4.636719 10.210938 4.726562 C 10.210938 4.90625 10.058594 5.054688 9.875 5.054688 C 9.691406 5.054688 9.539062 4.90625 9.539062 4.726562 Z M 9.539062 4.726562 "/>
<path style=" stroke:none;fill-rule:nonzero;fill:rgb(100%,100%,100%);fill-opacity:1;" d="M 8.484375 5.132812 C 8.484375 4.949219 8.632812 4.800781 8.820312 4.800781 C 9.003906 4.800781 9.15625 4.949219 9.15625 5.132812 C 9.15625 5.3125 9.003906 5.460938 8.820312 5.460938 C 8.632812 5.460938 8.484375 5.3125 8.484375 5.132812 Z M 8.484375 5.132812 "/>
<path style=" stroke:none;fill-rule:nonzero;fill:rgb(100%,100%,100%);fill-opacity:1;" d="M 7.503906 5.832031 C 7.503906 5.648438 7.652344 5.503906 7.839844 5.503906 C 8.023438 5.503906 8.175781 5.648438 8.175781 5.832031 C 8.175781 6.015625 8.023438 6.160156 7.839844 6.160156 C 7.65625 6.160156 7.503906 6.015625 7.503906 5.832031 Z M 7.503906 5.832031 "/>
<path style=" stroke:none;fill-rule:nonzero;fill:rgb(100%,100%,100%);fill-opacity:1;" d="M 6.707031 6.753906 C 6.707031 6.574219 6.855469 6.425781 7.042969 6.425781 C 7.226562 6.425781 7.375 6.574219 7.375 6.753906 C 7.375 6.9375 7.226562 7.082031 7.042969 7.082031 C 6.855469 7.082031 6.707031 6.9375 6.707031 6.753906 Z M 6.707031 6.753906 "/>
<path style=" stroke:none;fill-rule:nonzero;fill:rgb(100%,100%,100%);fill-opacity:1;" d="M 6.203125 7.789062 C 6.203125 7.609375 6.355469 7.460938 6.539062 7.460938 C 6.722656 7.460938 6.875 7.609375 6.875 7.789062 C 6.875 7.972656 6.722656 8.121094 6.539062 8.121094 C 6.355469 8.121094 6.203125 7.972656 6.203125 7.789062 Z M 6.203125 7.789062 "/>
<path style=" stroke:none;fill-rule:nonzero;fill:rgb(100%,100%,100%);fill-opacity:1;" d="M 5.925781 8.972656 C 5.925781 8.789062 6.078125 8.644531 6.261719 8.644531 C 6.445312 8.644531 6.597656 8.789062 6.597656 8.972656 C 6.597656 9.152344 6.445312 9.300781 6.261719 9.300781 C 6.078125 9.300781 5.925781 9.152344 5.925781 8.972656 Z M 5.925781 8.972656 "/>
<path style=" stroke:none;fill-rule:nonzero;fill:rgb(100%,100%,100%);fill-opacity:1;" d="M 10.085938 5.855469 C 10.085938 5.765625 10.121094 5.683594 10.183594 5.621094 C 10.25 5.558594 10.332031 5.527344 10.421875 5.527344 C 10.605469 5.527344 10.757812 5.671875 10.757812 5.855469 C 10.757812 6.035156 10.605469 6.183594 10.421875 6.183594 C 10.238281 6.183594 10.085938 6.035156 10.085938 5.855469 Z M 10.085938 5.855469 "/>
<path style=" stroke:none;fill-rule:nonzero;fill:rgb(100%,100%,100%);fill-opacity:1;" d="M 9.808594 7.039062 C 9.808594 6.855469 9.957031 6.707031 10.144531 6.707031 C 10.328125 6.707031 10.476562 6.855469 10.476562 7.039062 C 10.476562 7.21875 10.328125 7.367188 10.144531 7.367188 C 9.957031 7.367188 9.808594 7.21875 9.808594 7.039062 Z M 9.808594 7.039062 "/>
<path style=" stroke:none;fill-rule:nonzero;fill:rgb(100%,100%,100%);fill-opacity:1;" d="M 15.398438 7.808594 C 15.398438 7.480469 15.671875 7.214844 16.003906 7.214844 C 16.335938 7.214844 16.605469 7.480469 16.605469 7.808594 C 16.605469 8.132812 16.335938 8.398438 16.003906 8.398438 C 15.671875 8.398438 15.398438 8.132812 15.398438 7.808594 Z M 15.398438 7.808594 "/>
<path style=" stroke:none;fill-rule:nonzero;fill:rgb(100%,100%,100%);fill-opacity:1;" d="M 10.535156 8.957031 C 10.398438 8.878906 10.296875 8.75 10.257812 8.597656 C 10.175781 8.277344 10.371094 7.957031 10.691406 7.875 C 11.015625 7.792969 11.34375 7.984375 11.425781 8.300781 C 11.507812 8.617188 11.316406 8.941406 10.992188 9.023438 C 10.835938 9.0625 10.675781 9.039062 10.535156 8.957031 Z M 10.535156 8.957031 "/>
<path style=" stroke:none;fill-rule:nonzero;fill:rgb(100%,100%,100%);fill-opacity:1;" d="M 5.863281 10.800781 C 5.703125 10.515625 5.808594 10.152344 6.101562 9.996094 C 6.242188 9.917969 6.40625 9.902344 6.558594 9.945312 C 6.714844 9.988281 6.839844 10.089844 6.917969 10.226562 C 7.078125 10.515625 6.972656 10.875 6.683594 11.035156 C 6.390625 11.191406 6.023438 11.085938 5.863281 10.800781 Z M 5.863281 10.800781 "/>
<path style=" stroke:none;fill-rule:nonzero;fill:rgb(100%,100%,100%);fill-opacity:1;" d="M 16.734375 2.667969 C 16.734375 2.582031 16.769531 2.496094 16.832031 2.433594 C 16.894531 2.375 16.980469 2.339844 17.070312 2.339844 C 17.253906 2.339844 17.402344 2.488281 17.402344 2.667969 C 17.402344 2.851562 17.253906 2.996094 17.070312 2.996094 C 16.882812 2.996094 16.734375 2.851562 16.734375 2.667969 Z M 16.734375 2.667969 "/>
<path style=" stroke:none;fill-rule:nonzero;fill:rgb(100%,100%,100%);fill-opacity:1;" d="M 17.832031 2.855469 C 17.832031 2.675781 17.980469 2.527344 18.167969 2.527344 C 18.351562 2.527344 18.5 2.675781 18.5 2.855469 C 18.5 3.039062 18.351562 3.1875 18.167969 3.1875 C 17.980469 3.1875 17.832031 3.039062 17.832031 2.855469 Z M 17.832031 2.855469 "/>
<path style=" stroke:none;fill-rule:nonzero;fill:rgb(100%,100%,100%);fill-opacity:1;" d="M 18.902344 3.246094 C 18.902344 3.066406 19.050781 2.917969 19.238281 2.917969 C 19.421875 2.917969 19.574219 3.066406 19.574219 3.246094 C 19.574219 3.429688 19.421875 3.578125 19.238281 3.578125 C 19.050781 3.578125 18.902344 3.429688 18.902344 3.246094 Z M 18.902344 3.246094 "/>
<path style=" stroke:none;fill-rule:nonzero;fill:rgb(100%,100%,100%);fill-opacity:1;" d="M 19.933594 3.921875 C 19.933594 3.742188 20.082031 3.59375 20.269531 3.59375 C 20.453125 3.59375 20.601562 3.742188 20.601562 3.921875 C 20.601562 4.105469 20.453125 4.25 20.269531 4.25 C 20.082031 4.25 19.933594 4.105469 19.933594 3.921875 Z M 19.933594 3.921875 "/>
<path style=" stroke:none;fill-rule:nonzero;fill:rgb(100%,100%,100%);fill-opacity:1;" d="M 20.722656 4.816406 C 20.722656 4.632812 20.871094 4.484375 21.054688 4.484375 C 21.144531 4.484375 21.230469 4.519531 21.292969 4.582031 C 21.355469 4.644531 21.390625 4.726562 21.390625 4.816406 C 21.390625 4.996094 21.242188 5.144531 21.054688 5.144531 C 20.871094 5.144531 20.722656 4.996094 20.722656 4.816406 Z M 20.722656 4.816406 "/>
<path style=" stroke:none;fill-rule:nonzero;fill:rgb(100%,100%,100%);fill-opacity:1;" d="M 21.796875 4.726562 C 21.796875 4.542969 21.945312 4.398438 22.132812 4.398438 C 22.316406 4.398438 22.46875 4.542969 22.46875 4.726562 C 22.46875 4.90625 22.316406 5.054688 22.132812 5.054688 C 21.945312 5.054688 21.796875 4.90625 21.796875 4.726562 Z M 21.796875 4.726562 "/>
<path style=" stroke:none;fill-rule:nonzero;fill:rgb(100%,100%,100%);fill-opacity:1;" d="M 22.851562 5.132812 C 22.851562 4.949219 23 4.800781 23.1875 4.800781 C 23.371094 4.800781 23.523438 4.949219 23.523438 5.132812 C 23.523438 5.3125 23.371094 5.460938 23.1875 5.460938 C 23 5.460938 22.851562 5.3125 22.851562 5.132812 Z M 22.851562 5.132812 "/>
<path style=" stroke:none;fill-rule:nonzero;fill:rgb(100%,100%,100%);fill-opacity:1;" d="M 23.832031 5.832031 C 23.832031 5.648438 23.980469 5.503906 24.167969 5.503906 C 24.351562 5.503906 24.503906 5.648438 24.503906 5.832031 C 24.503906 6.015625 24.351562 6.160156 24.167969 6.160156 C 23.980469 6.160156 23.832031 6.015625 23.832031 5.832031 Z M 23.832031 5.832031 "/>
<path style=" stroke:none;fill-rule:nonzero;fill:rgb(100%,100%,100%);fill-opacity:1;" d="M 24.628906 6.753906 C 24.628906 6.574219 24.78125 6.425781 24.964844 6.425781 C 25.148438 6.425781 25.300781 6.574219 25.300781 6.753906 C 25.300781 6.9375 25.148438 7.082031 24.964844 7.082031 C 24.78125 7.082031 24.628906 6.9375 24.628906 6.753906 Z M 24.628906 6.753906 "/>
<path style=" stroke:none;fill-rule:nonzero;fill:rgb(100%,100%,100%);fill-opacity:1;" d="M 25.132812 7.789062 C 25.132812 7.609375 25.28125 7.460938 25.464844 7.460938 C 25.652344 7.460938 25.800781 7.609375 25.800781 7.789062 C 25.800781 7.972656 25.652344 8.121094 25.464844 8.121094 C 25.28125 8.121094 25.132812 7.972656 25.132812 7.789062 Z M 25.132812 7.789062 "/>
<path style=" stroke:none;fill-rule:nonzero;fill:rgb(100%,100%,100%);fill-opacity:1;" d="M 25.410156 8.972656 C 25.410156 8.789062 25.558594 8.644531 25.746094 8.644531 C 25.929688 8.644531 26.078125 8.789062 26.078125 8.972656 C 26.078125 9.152344 25.929688 9.300781 25.746094 9.300781 C 25.558594 9.300781 25.410156 9.152344 25.410156 8.972656 Z M 25.410156 8.972656 "/>
<path style=" stroke:none;fill-rule:nonzero;fill:rgb(100%,100%,100%);fill-opacity:1;" d="M 21.25 5.855469 C 21.25 5.671875 21.398438 5.527344 21.585938 5.527344 C 21.769531 5.527344 21.917969 5.671875 21.917969 5.855469 C 21.917969 6.035156 21.769531 6.183594 21.585938 6.183594 C 21.398438 6.183594 21.25 6.035156 21.25 5.855469 Z M 21.25 5.855469 "/>
<path style=" stroke:none;fill-rule:nonzero;fill:rgb(100%,100%,100%);fill-opacity:1;" d="M 21.527344 7.039062 C 21.527344 6.855469 21.679688 6.707031 21.863281 6.707031 C 22.046875 6.707031 22.199219 6.855469 22.199219 7.039062 C 22.199219 7.21875 22.046875 7.367188 21.863281 7.367188 C 21.679688 7.367188 21.527344 7.21875 21.527344 7.039062 Z M 21.527344 7.039062 "/>
<path style=" stroke:none;fill-rule:nonzero;fill:rgb(100%,100%,100%);fill-opacity:1;" d="M 21.011719 9.023438 C 20.855469 8.984375 20.726562 8.886719 20.644531 8.75 C 20.5625 8.613281 20.539062 8.453125 20.578125 8.300781 C 20.621094 8.148438 20.71875 8.019531 20.855469 7.9375 C 20.996094 7.859375 21.15625 7.835938 21.3125 7.875 C 21.46875 7.914062 21.601562 8.011719 21.683594 8.148438 C 21.765625 8.28125 21.789062 8.441406 21.746094 8.597656 C 21.707031 8.75 21.609375 8.878906 21.46875 8.960938 C 21.332031 9.039062 21.167969 9.0625 21.011719 9.023438 Z M 21.011719 9.023438 "/>
<path style=" stroke:none;fill-rule:nonzero;fill:rgb(100%,100%,100%);fill-opacity:1;" d="M 25.324219 11.035156 C 25.183594 10.957031 25.082031 10.832031 25.035156 10.679688 C 24.992188 10.527344 25.007812 10.367188 25.085938 10.230469 C 25.085938 10.230469 25.085938 10.226562 25.085938 10.226562 C 25.164062 10.089844 25.292969 9.988281 25.445312 9.945312 C 25.601562 9.902344 25.765625 9.917969 25.90625 9.996094 C 26.046875 10.070312 26.148438 10.195312 26.195312 10.347656 C 26.238281 10.5 26.222656 10.660156 26.144531 10.800781 C 25.984375 11.085938 25.617188 11.191406 25.324219 11.035156 Z M 25.324219 11.035156 "/>
<path style=" stroke:none;fill-rule:nonzero;fill:rgb(100%,100%,100%);fill-opacity:1;" d="M 13.511719 11.398438 C 13.511719 11.3125 13.546875 11.226562 13.609375 11.164062 C 13.671875 11.105469 13.757812 11.070312 13.847656 11.070312 C 14.03125 11.070312 14.183594 11.21875 14.183594 11.398438 C 14.183594 11.582031 14.03125 11.726562 13.847656 11.726562 C 13.660156 11.726562 13.511719 11.582031 13.511719 11.398438 Z M 13.511719 11.398438 "/>
<path style=" stroke:none;fill-rule:nonzero;fill:rgb(100%,100%,100%);fill-opacity:1;" d="M 9.351562 12.503906 C 9.351562 12.414062 9.386719 12.332031 9.453125 12.269531 C 9.515625 12.207031 9.597656 12.175781 9.6875 12.175781 C 9.875 12.175781 10.023438 12.320312 10.023438 12.503906 C 10.023438 12.683594 9.875 12.832031 9.6875 12.832031 C 9.503906 12.832031 9.351562 12.683594 9.351562 12.503906 Z M 9.351562 12.503906 "/>
<path style=" stroke:none;fill-rule:nonzero;fill:rgb(93.333333%,19.607843%,30.588235%);fill-opacity:1;" d="M 16.003906 10.898438 C 16.03125 10.910156 16.878906 11.21875 17.074219 11.292969 C 16.878906 11.363281 16.03125 11.675781 16.003906 11.683594 C 15.972656 11.675781 15.128906 11.363281 14.929688 11.292969 C 15.128906 11.21875 15.972656 10.910156 16.003906 10.898438 Z M 16.003906 10.898438 "/>
<path style=" stroke:none;fill-rule:nonzero;fill:rgb(93.333333%,19.607843%,30.588235%);fill-opacity:1;" d="M 8.527344 12.5625 C 8.605469 12.589844 8.914062 12.703125 8.980469 12.726562 C 8.960938 12.789062 8.871094 13.136719 8.847656 13.230469 C 8.765625 13.183594 8.472656 13.023438 8.421875 12.996094 C 8.433594 12.941406 8.507812 12.640625 8.527344 12.5625 Z M 8.527344 12.5625 "/>
<path style=" stroke:none;fill-rule:nonzero;fill:rgb(100%,100%,100%);fill-opacity:1;" d="M 17.824219 11.398438 C 17.824219 11.21875 17.976562 11.070312 18.160156 11.070312 C 18.34375 11.070312 18.496094 11.21875 18.496094 11.398438 C 18.496094 11.582031 18.34375 11.726562 18.160156 11.726562 C 17.976562 11.726562 17.824219 11.582031 17.824219 11.398438 Z M 17.824219 11.398438 "/>
<path style=" stroke:none;fill-rule:nonzero;fill:rgb(100%,100%,100%);fill-opacity:1;" d="M 21.984375 12.503906 C 21.984375 12.320312 22.132812 12.175781 22.316406 12.175781 C 22.503906 12.175781 22.652344 12.320312 22.652344 12.503906 C 22.652344 12.683594 22.503906 12.832031 22.316406 12.832031 C 22.132812 12.832031 21.984375 12.683594 21.984375 12.503906 Z M 21.984375 12.503906 "/>
<path style=" stroke:none;fill-rule:nonzero;fill:rgb(99.607843%,74.509804%,6.27451%);fill-opacity:1;" d="M 23.605469 12.269531 C 21.21875 11.164062 18.660156 10.601562 16.003906 10.601562 C 13.34375 10.601562 10.789062 11.164062 8.402344 12.269531 C 8.382812 12.277344 8.367188 12.292969 8.363281 12.308594 C 8.351562 12.332031 8.355469 12.363281 8.367188 12.390625 C 8.378906 12.414062 8.398438 12.429688 8.421875 12.4375 C 8.445312 12.445312 8.472656 12.445312 8.496094 12.433594 C 8.511719 12.425781 8.53125 12.425781 8.550781 12.433594 C 8.570312 12.4375 8.585938 12.453125 8.59375 12.46875 L 8.597656 12.484375 L 9.054688 12.648438 C 9.078125 12.65625 9.09375 12.683594 9.085938 12.707031 L 8.949219 13.226562 L 8.964844 13.257812 C 8.984375 13.296875 8.96875 13.339844 8.929688 13.355469 C 8.871094 13.382812 8.84375 13.453125 8.871094 13.511719 C 8.898438 13.566406 8.957031 13.605469 9.019531 13.574219 C 11.203125 12.5625 13.554688 12.050781 16.003906 12.050781 C 18.453125 12.050781 20.800781 12.5625 22.984375 13.574219 C 23.046875 13.605469 23.105469 13.566406 23.132812 13.511719 C 23.160156 13.453125 23.136719 13.382812 23.074219 13.355469 C 23.039062 13.339844 23.023438 13.296875 23.039062 13.257812 L 23.054688 13.226562 L 22.917969 12.707031 C 22.914062 12.683594 22.925781 12.65625 22.949219 12.648438 L 23.40625 12.484375 L 23.414062 12.46875 C 23.421875 12.453125 23.4375 12.4375 23.453125 12.433594 C 23.472656 12.425781 23.492188 12.425781 23.511719 12.433594 C 23.558594 12.457031 23.617188 12.4375 23.636719 12.390625 C 23.652344 12.363281 23.652344 12.335938 23.644531 12.3125 C 23.636719 12.292969 23.625 12.277344 23.605469 12.269531 Z M 9.6875 12.929688 C 9.449219 12.929688 9.253906 12.738281 9.253906 12.503906 C 9.253906 12.390625 9.300781 12.28125 9.382812 12.203125 C 9.464844 12.121094 9.574219 12.078125 9.6875 12.078125 C 9.925781 12.078125 10.121094 12.269531 10.121094 12.503906 C 10.121094 12.738281 9.925781 12.929688 9.6875 12.929688 Z M 12.945312 11.5625 L 11.882812 12.289062 C 11.875 12.296875 11.863281 12.300781 11.851562 12.300781 L 10.5625 12.164062 C 10.539062 12.164062 10.523438 12.148438 10.519531 12.128906 C 10.515625 12.109375 10.523438 12.089844 10.539062 12.078125 L 11.601562 11.347656 C 11.609375 11.34375 11.621094 11.339844 11.632812 11.339844 L 12.921875 11.472656 C 12.941406 11.476562 12.960938 11.492188 12.964844 11.511719 C 12.96875 11.53125 12.960938 11.550781 12.945312 11.5625 Z M 13.847656 11.824219 C 13.605469 11.824219 13.414062 11.632812 13.414062 11.398438 C 13.414062 11.285156 13.457031 11.179688 13.539062 11.097656 C 13.621094 11.015625 13.730469 10.972656 13.847656 10.972656 C 14.085938 10.972656 14.28125 11.164062 14.28125 11.398438 C 14.28125 11.632812 14.085938 11.824219 13.847656 11.824219 Z M 17.234375 11.335938 L 16.019531 11.78125 C 16.007812 11.785156 15.996094 11.785156 15.984375 11.78125 L 14.773438 11.335938 C 14.753906 11.328125 14.738281 11.3125 14.738281 11.292969 C 14.738281 11.269531 14.753906 11.253906 14.773438 11.246094 L 15.984375 10.800781 C 15.996094 10.796875 16.007812 10.796875 16.019531 10.800781 L 17.234375 11.246094 C 17.253906 11.253906 17.265625 11.269531 17.265625 11.292969 C 17.265625 11.3125 17.253906 11.328125 17.234375 11.335938 Z M 18.160156 11.824219 C 17.921875 11.824219 17.726562 11.632812 17.726562 11.398438 C 17.726562 11.164062 17.921875 10.972656 18.160156 10.972656 C 18.398438 10.972656 18.59375 11.164062 18.59375 11.398438 C 18.59375 11.632812 18.398438 11.824219 18.160156 11.824219 Z M 21.445312 12.164062 L 20.15625 12.300781 C 20.144531 12.300781 20.132812 12.296875 20.125 12.289062 L 19.058594 11.5625 C 19.042969 11.550781 19.035156 11.53125 19.039062 11.511719 C 19.046875 11.492188 19.0625 11.476562 19.082031 11.472656 L 20.371094 11.339844 C 20.382812 11.339844 20.394531 11.34375 20.40625 11.347656 L 21.46875 12.078125 C 21.484375 12.089844 21.492188 12.109375 21.488281 12.128906 C 21.480469 12.148438 21.464844 12.164062 21.445312 12.164062 Z M 22.316406 12.929688 C 22.078125 12.929688 21.882812 12.738281 21.882812 12.503906 C 21.882812 12.269531 22.078125 12.078125 22.316406 12.078125 C 22.554688 12.078125 22.75 12.269531 22.75 12.503906 C 22.75 12.738281 22.554688 12.929688 22.316406 12.929688 Z M 22.316406 12.929688 "/>
<path style=" stroke:none;fill-rule:nonzero;fill:rgb(99.607843%,74.509804%,6.27451%);fill-opacity:1;" d="M 26.414062 10.355469 C 26.382812 10.328125 26.378906 10.285156 26.402344 10.253906 C 26.523438 10.097656 26.574219 9.914062 26.542969 9.734375 C 26.515625 9.582031 26.425781 9.453125 26.292969 9.367188 C 26.261719 9.347656 26.25 9.304688 26.269531 9.269531 C 26.324219 9.179688 26.351562 9.078125 26.351562 8.972656 C 26.351562 8.691406 26.148438 8.445312 25.871094 8.386719 C 25.84375 8.382812 25.820312 8.359375 25.8125 8.332031 C 25.808594 8.304688 25.816406 8.277344 25.839844 8.261719 C 25.988281 8.144531 26.074219 7.976562 26.074219 7.789062 C 26.074219 7.480469 25.839844 7.226562 25.523438 7.195312 C 25.5 7.195312 25.476562 7.179688 25.464844 7.15625 C 25.453125 7.132812 25.457031 7.105469 25.46875 7.085938 C 25.535156 6.988281 25.570312 6.871094 25.570312 6.753906 C 25.570312 6.425781 25.300781 6.15625 24.964844 6.15625 C 24.910156 6.15625 24.859375 6.164062 24.804688 6.179688 C 24.777344 6.1875 24.75 6.175781 24.730469 6.15625 C 24.710938 6.132812 24.707031 6.105469 24.71875 6.078125 C 24.753906 6 24.773438 5.917969 24.773438 5.832031 C 24.773438 5.503906 24.5 5.234375 24.167969 5.234375 C 24.070312 5.234375 23.976562 5.257812 23.890625 5.300781 C 23.867188 5.3125 23.839844 5.308594 23.816406 5.292969 C 23.796875 5.277344 23.785156 5.25 23.785156 5.226562 L 23.792969 5.132812 C 23.792969 4.800781 23.519531 4.535156 23.1875 4.535156 C 23.0625 4.535156 22.941406 4.570312 22.839844 4.640625 C 22.820312 4.65625 22.792969 4.660156 22.769531 4.652344 C 22.746094 4.640625 22.730469 4.621094 22.726562 4.597656 C 22.664062 4.328125 22.414062 4.128906 22.132812 4.128906 C 21.925781 4.128906 21.734375 4.230469 21.621094 4.402344 C 21.609375 4.421875 21.585938 4.433594 21.566406 4.4375 C 21.542969 4.4375 21.519531 4.429688 21.503906 4.414062 C 21.390625 4.289062 21.226562 4.21875 21.054688 4.21875 L 20.917969 4.234375 C 20.894531 4.238281 20.863281 4.226562 20.847656 4.207031 C 20.832031 4.1875 20.824219 4.160156 20.835938 4.136719 C 20.863281 4.066406 20.875 3.996094 20.875 3.921875 C 20.875 3.59375 20.601562 3.324219 20.269531 3.324219 C 20.15625 3.324219 20.042969 3.355469 19.945312 3.414062 C 19.921875 3.429688 19.894531 3.425781 19.871094 3.414062 C 19.847656 3.398438 19.832031 3.371094 19.835938 3.34375 L 19.84375 3.246094 C 19.84375 3.089844 19.78125 2.9375 19.667969 2.824219 C 19.550781 2.710938 19.398438 2.652344 19.238281 2.652344 C 19.105469 2.652344 18.980469 2.691406 18.875 2.769531 C 18.855469 2.785156 18.828125 2.789062 18.804688 2.777344 C 18.78125 2.769531 18.765625 2.75 18.757812 2.726562 C 18.699219 2.457031 18.449219 2.261719 18.167969 2.261719 C 18.003906 2.261719 17.851562 2.320312 17.734375 2.433594 C 17.71875 2.453125 17.695312 2.460938 17.671875 2.457031 C 17.648438 2.453125 17.628906 2.4375 17.617188 2.414062 C 17.519531 2.207031 17.300781 2.070312 17.066406 2.070312 C 17 2.070312 16.9375 2.082031 16.871094 2.105469 C 16.84375 2.113281 16.8125 2.105469 16.792969 2.082031 C 16.679688 1.957031 16.535156 1.859375 16.375 1.796875 L 16.257812 1.761719 C 16.230469 1.75 16.203125 1.722656 16.203125 1.691406 L 16.203125 1.179688 C 16.203125 1.140625 16.238281 1.109375 16.277344 1.109375 C 16.277344 1.109375 16.609375 1.109375 16.71875 1.109375 C 16.71875 1.019531 16.71875 0.828125 16.71875 0.742188 C 16.609375 0.742188 16.277344 0.742188 16.277344 0.742188 C 16.238281 0.742188 16.203125 0.707031 16.203125 0.667969 C 16.203125 0.667969 16.203125 0.386719 16.203125 0.285156 C 16.109375 0.285156 15.894531 0.285156 15.800781 0.285156 C 15.800781 0.386719 15.800781 0.667969 15.800781 0.667969 C 15.800781 0.707031 15.769531 0.742188 15.726562 0.742188 C 15.726562 0.742188 15.394531 0.742188 15.289062 0.742188 C 15.289062 0.828125 15.289062 1.019531 15.289062 1.109375 C 15.394531 1.109375 15.726562 1.109375 15.726562 1.109375 C 15.769531 1.109375 15.800781 1.140625 15.800781 1.179688 L 15.800781 1.691406 C 15.800781 1.722656 15.777344 1.75 15.746094 1.761719 L 15.632812 1.796875 C 15.46875 1.859375 15.324219 1.957031 15.210938 2.082031 C 15.191406 2.105469 15.160156 2.113281 15.132812 2.105469 C 15.070312 2.082031 15.003906 2.070312 14.9375 2.070312 C 14.703125 2.070312 14.488281 2.207031 14.386719 2.414062 C 14.378906 2.4375 14.355469 2.453125 14.332031 2.457031 C 14.308594 2.460938 14.285156 2.453125 14.269531 2.433594 C 14.152344 2.320312 14 2.261719 13.839844 2.261719 C 13.554688 2.261719 13.308594 2.457031 13.246094 2.726562 C 13.242188 2.75 13.222656 2.769531 13.199219 2.777344 C 13.175781 2.789062 13.152344 2.785156 13.128906 2.769531 C 13.023438 2.691406 12.898438 2.652344 12.769531 2.652344 C 12.433594 2.652344 12.160156 2.917969 12.160156 3.246094 L 12.171875 3.339844 C 12.171875 3.367188 12.160156 3.398438 12.136719 3.414062 C 12.113281 3.425781 12.082031 3.429688 12.058594 3.414062 C 11.960938 3.355469 11.851562 3.324219 11.738281 3.324219 C 11.402344 3.324219 11.128906 3.59375 11.128906 3.921875 C 11.128906 3.996094 11.144531 4.066406 11.171875 4.136719 C 11.179688 4.160156 11.171875 4.1875 11.15625 4.207031 C 11.140625 4.226562 11.113281 4.234375 11.085938 4.234375 L 10.949219 4.21875 C 10.777344 4.21875 10.617188 4.289062 10.5 4.414062 C 10.484375 4.429688 10.464844 4.4375 10.441406 4.4375 C 10.417969 4.433594 10.398438 4.421875 10.382812 4.402344 C 10.273438 4.230469 10.082031 4.128906 9.875 4.128906 C 9.589844 4.128906 9.339844 4.328125 9.28125 4.597656 C 9.277344 4.621094 9.257812 4.640625 9.234375 4.652344 C 9.214844 4.660156 9.1875 4.65625 9.167969 4.640625 C 9.0625 4.570312 8.945312 4.535156 8.820312 4.535156 C 8.484375 4.535156 8.210938 4.800781 8.210938 5.132812 L 8.21875 5.222656 C 8.222656 5.25 8.210938 5.277344 8.1875 5.292969 C 8.167969 5.308594 8.136719 5.3125 8.113281 5.300781 C 8.027344 5.257812 7.933594 5.234375 7.839844 5.234375 C 7.503906 5.234375 7.230469 5.503906 7.230469 5.832031 C 7.230469 5.917969 7.25 6 7.285156 6.078125 C 7.296875 6.105469 7.292969 6.132812 7.273438 6.15625 C 7.257812 6.175781 7.226562 6.183594 7.199219 6.179688 C 7.148438 6.164062 7.09375 6.15625 7.039062 6.15625 C 6.707031 6.15625 6.433594 6.425781 6.433594 6.753906 C 6.433594 6.871094 6.46875 6.988281 6.535156 7.085938 C 6.550781 7.105469 6.550781 7.132812 6.539062 7.15625 C 6.527344 7.179688 6.507812 7.195312 6.480469 7.195312 C 6.167969 7.226562 5.929688 7.480469 5.929688 7.789062 C 5.929688 7.976562 6.015625 8.144531 6.164062 8.261719 C 6.1875 8.277344 6.199219 8.304688 6.191406 8.332031 C 6.183594 8.359375 6.164062 8.382812 6.136719 8.386719 C 5.855469 8.445312 5.652344 8.691406 5.652344 8.972656 C 5.652344 9.078125 5.683594 9.179688 5.734375 9.269531 C 5.753906 9.304688 5.746094 9.347656 5.710938 9.367188 C 5.578125 9.453125 5.488281 9.582031 5.460938 9.734375 C 5.429688 9.914062 5.480469 10.097656 5.605469 10.253906 C 5.628906 10.285156 5.621094 10.328125 5.59375 10.355469 C 5.492188 10.433594 5.445312 10.542969 5.445312 10.671875 C 5.453125 10.90625 5.613281 11.152344 5.773438 11.273438 C 5.953125 11.410156 6.304688 11.601562 6.675781 11.355469 C 6.699219 11.339844 6.734375 11.339844 6.761719 11.359375 C 7.058594 11.585938 7.449219 11.65625 7.808594 11.546875 C 7.835938 11.539062 7.867188 11.546875 7.886719 11.566406 C 7.90625 11.589844 7.910156 11.621094 7.898438 11.648438 C 7.855469 11.730469 7.855469 11.824219 7.898438 11.90625 C 7.933594 11.984375 7.996094 12.042969 8.074219 12.070312 C 8.144531 12.09375 8.226562 12.089844 8.296875 12.058594 C 10.714844 10.9375 13.304688 10.371094 16.003906 10.371094 C 18.699219 10.371094 21.292969 10.9375 23.710938 12.058594 C 23.863281 12.117188 24.039062 12.054688 24.109375 11.90625 C 24.148438 11.824219 24.148438 11.730469 24.109375 11.644531 C 24.09375 11.621094 24.097656 11.589844 24.117188 11.566406 C 24.136719 11.546875 24.167969 11.539062 24.195312 11.546875 C 24.554688 11.65625 24.945312 11.585938 25.246094 11.359375 C 25.269531 11.339844 25.304688 11.339844 25.332031 11.355469 C 25.699219 11.601562 26.050781 11.410156 26.230469 11.273438 C 26.390625 11.152344 26.554688 10.90625 26.558594 10.671875 C 26.558594 10.542969 26.511719 10.433594 26.414062 10.355469 Z M 26.179688 8.972656 C 26.179688 9.207031 25.984375 9.398438 25.746094 9.398438 C 25.503906 9.398438 25.3125 9.207031 25.3125 8.972656 C 25.3125 8.738281 25.503906 8.546875 25.746094 8.546875 C 25.984375 8.546875 26.179688 8.738281 26.179688 8.972656 Z M 25.464844 7.363281 C 25.707031 7.363281 25.902344 7.554688 25.902344 7.789062 C 25.902344 8.027344 25.707031 8.21875 25.464844 8.21875 C 25.226562 8.21875 25.03125 8.027344 25.03125 7.789062 C 25.03125 7.554688 25.226562 7.363281 25.464844 7.363281 Z M 24.964844 6.328125 C 25.203125 6.328125 25.398438 6.519531 25.398438 6.753906 C 25.398438 6.988281 25.203125 7.179688 24.964844 7.179688 C 24.726562 7.179688 24.53125 6.988281 24.53125 6.753906 C 24.53125 6.519531 24.726562 6.328125 24.964844 6.328125 Z M 25 10.179688 L 25 10.183594 Z M 24.167969 5.40625 C 24.40625 5.40625 24.601562 5.597656 24.601562 5.832031 C 24.601562 6.066406 24.40625 6.257812 24.167969 6.257812 C 23.929688 6.257812 23.734375 6.066406 23.734375 5.832031 C 23.734375 5.597656 23.929688 5.40625 24.167969 5.40625 Z M 23.1875 4.707031 C 23.425781 4.707031 23.621094 4.898438 23.621094 5.132812 C 23.621094 5.367188 23.425781 5.558594 23.1875 5.558594 C 22.945312 5.558594 22.753906 5.367188 22.753906 5.132812 C 22.753906 4.898438 22.945312 4.707031 23.1875 4.707031 Z M 22.132812 4.300781 C 22.371094 4.300781 22.566406 4.492188 22.566406 4.726562 C 22.566406 4.960938 22.371094 5.152344 22.132812 5.152344 C 21.890625 5.152344 21.699219 4.960938 21.699219 4.726562 C 21.699219 4.492188 21.890625 4.300781 22.132812 4.300781 Z M 21.585938 5.429688 C 21.824219 5.429688 22.019531 5.621094 22.019531 5.855469 C 22.019531 6.089844 21.824219 6.28125 21.585938 6.28125 C 21.34375 6.28125 21.148438 6.089844 21.148438 5.855469 C 21.148438 5.621094 21.34375 5.429688 21.585938 5.429688 Z M 20.804688 7.855469 C 20.96875 7.761719 21.15625 7.734375 21.339844 7.78125 C 21.519531 7.828125 21.671875 7.9375 21.769531 8.097656 C 21.863281 8.257812 21.890625 8.441406 21.84375 8.621094 C 21.796875 8.796875 21.679688 8.949219 21.519531 9.042969 C 21.359375 9.136719 21.171875 9.164062 20.988281 9.117188 C 20.808594 9.070312 20.65625 8.957031 20.558594 8.800781 C 20.496094 8.691406 20.460938 8.570312 20.460938 8.449219 C 20.460938 8.390625 20.46875 8.335938 20.484375 8.277344 C 20.53125 8.097656 20.644531 7.949219 20.804688 7.855469 Z M 21.863281 7.464844 C 21.625 7.464844 21.429688 7.273438 21.429688 7.039062 C 21.429688 6.800781 21.625 6.609375 21.863281 6.609375 C 22.101562 6.609375 22.296875 6.800781 22.296875 7.039062 C 22.296875 7.273438 22.101562 7.464844 21.863281 7.464844 Z M 21.054688 4.386719 C 21.171875 4.386719 21.28125 4.433594 21.363281 4.511719 C 21.445312 4.59375 21.488281 4.699219 21.488281 4.816406 C 21.488281 5.050781 21.296875 5.242188 21.054688 5.242188 C 20.816406 5.242188 20.621094 5.050781 20.621094 4.816406 C 20.621094 4.578125 20.816406 4.386719 21.054688 4.386719 Z M 20.269531 3.496094 C 20.507812 3.496094 20.703125 3.6875 20.703125 3.921875 C 20.703125 4.15625 20.507812 4.347656 20.269531 4.347656 C 20.027344 4.347656 19.835938 4.15625 19.835938 3.921875 C 19.835938 3.6875 20.027344 3.496094 20.269531 3.496094 Z M 19.238281 2.820312 C 19.476562 2.820312 19.671875 3.011719 19.671875 3.246094 C 19.671875 3.484375 19.476562 3.675781 19.238281 3.675781 C 18.996094 3.675781 18.804688 3.484375 18.804688 3.246094 C 18.804688 3.011719 18.996094 2.820312 19.238281 2.820312 Z M 18.167969 2.429688 C 18.40625 2.429688 18.601562 2.621094 18.601562 2.855469 C 18.601562 3.09375 18.40625 3.285156 18.167969 3.285156 C 17.925781 3.285156 17.734375 3.09375 17.734375 2.855469 C 17.734375 2.621094 17.925781 2.429688 18.167969 2.429688 Z M 16.761719 2.367188 C 16.84375 2.285156 16.953125 2.242188 17.070312 2.242188 C 17.308594 2.242188 17.503906 2.433594 17.503906 2.667969 C 17.503906 2.902344 17.308594 3.09375 17.070312 3.09375 C 16.828125 3.09375 16.636719 2.902344 16.636719 2.667969 C 16.636719 2.554688 16.679688 2.449219 16.761719 2.367188 Z M 16.003906 3.269531 C 16.242188 3.269531 16.4375 3.460938 16.4375 3.695312 C 16.4375 3.929688 16.242188 4.121094 16.003906 4.121094 C 15.765625 4.121094 15.570312 3.929688 15.570312 3.695312 C 15.570312 3.460938 15.765625 3.269531 16.003906 3.269531 Z M 15.570312 6.09375 C 15.570312 5.859375 15.765625 5.667969 16.003906 5.667969 C 16.242188 5.667969 16.4375 5.859375 16.4375 6.09375 C 16.4375 6.328125 16.242188 6.519531 16.003906 6.519531 C 15.765625 6.519531 15.570312 6.328125 15.570312 6.09375 Z M 16.703125 7.808594 C 16.703125 8.1875 16.390625 8.496094 16.003906 8.496094 C 15.617188 8.496094 15.300781 8.1875 15.300781 7.808594 C 15.300781 7.425781 15.617188 7.117188 16.003906 7.117188 C 16.390625 7.117188 16.703125 7.425781 16.703125 7.808594 Z M 16.003906 5.320312 C 15.765625 5.320312 15.570312 5.128906 15.570312 4.894531 C 15.570312 4.660156 15.765625 4.46875 16.003906 4.46875 C 16.242188 4.46875 16.4375 4.660156 16.4375 4.894531 C 16.4375 5.128906 16.242188 5.320312 16.003906 5.320312 Z M 14.9375 2.242188 C 15.175781 2.242188 15.371094 2.433594 15.371094 2.667969 C 15.371094 2.902344 15.175781 3.09375 14.9375 3.09375 C 14.699219 3.09375 14.503906 2.902344 14.503906 2.667969 C 14.503906 2.433594 14.699219 2.242188 14.9375 2.242188 Z M 13.53125 2.554688 C 13.613281 2.476562 13.722656 2.429688 13.839844 2.429688 C 14.078125 2.429688 14.273438 2.621094 14.273438 2.855469 C 14.273438 3.09375 14.078125 3.285156 13.839844 3.285156 C 13.601562 3.285156 13.40625 3.09375 13.40625 2.855469 C 13.40625 2.742188 13.449219 2.636719 13.53125 2.554688 Z M 12.769531 2.820312 C 13.007812 2.820312 13.203125 3.011719 13.203125 3.246094 C 13.203125 3.484375 13.007812 3.675781 12.769531 3.675781 C 12.53125 3.675781 12.335938 3.484375 12.335938 3.246094 C 12.335938 3.011719 12.53125 2.820312 12.769531 2.820312 Z M 11.738281 3.496094 C 11.855469 3.496094 11.960938 3.539062 12.042969 3.621094 C 12.125 3.703125 12.171875 3.808594 12.171875 3.921875 C 12.171875 4.15625 11.976562 4.347656 11.738281 4.347656 C 11.5 4.347656 11.304688 4.15625 11.304688 3.921875 C 11.304688 3.6875 11.5 3.496094 11.738281 3.496094 Z M 10.949219 4.386719 C 11.1875 4.386719 11.382812 4.578125 11.382812 4.816406 C 11.382812 5.050781 11.1875 5.242188 10.949219 5.242188 C 10.710938 5.242188 10.515625 5.050781 10.515625 4.816406 C 10.515625 4.578125 10.710938 4.386719 10.949219 4.386719 Z M 10.667969 7.78125 C 11.042969 7.6875 11.425781 7.910156 11.523438 8.277344 C 11.617188 8.644531 11.390625 9.019531 11.019531 9.117188 C 10.835938 9.164062 10.648438 9.136719 10.484375 9.042969 C 10.324219 8.949219 10.210938 8.796875 10.164062 8.621094 C 10.066406 8.25 10.292969 7.875 10.667969 7.78125 Z M 9.710938 7.039062 C 9.710938 6.800781 9.902344 6.609375 10.144531 6.609375 C 10.382812 6.609375 10.578125 6.800781 10.578125 7.039062 C 10.578125 7.273438 10.382812 7.464844 10.144531 7.464844 C 9.902344 7.464844 9.710938 7.273438 9.710938 7.039062 Z M 10.421875 5.429688 C 10.660156 5.429688 10.855469 5.621094 10.855469 5.855469 C 10.855469 6.089844 10.660156 6.28125 10.421875 6.28125 C 10.183594 6.28125 9.988281 6.089844 9.988281 5.855469 C 9.988281 5.742188 10.035156 5.632812 10.117188 5.554688 C 10.199219 5.472656 10.304688 5.429688 10.421875 5.429688 Z M 9.875 4.300781 C 9.992188 4.300781 10.097656 4.34375 10.179688 4.425781 C 10.261719 4.503906 10.308594 4.613281 10.308594 4.726562 C 10.308594 4.960938 10.113281 5.152344 9.875 5.152344 C 9.636719 5.152344 9.441406 4.960938 9.441406 4.726562 C 9.441406 4.492188 9.636719 4.300781 9.875 4.300781 Z M 8.820312 4.707031 C 9.058594 4.707031 9.253906 4.898438 9.253906 5.132812 C 9.253906 5.367188 9.058594 5.558594 8.820312 5.558594 C 8.582031 5.558594 8.386719 5.367188 8.386719 5.132812 C 8.386719 4.898438 8.582031 4.707031 8.820312 4.707031 Z M 7.839844 5.40625 C 8.078125 5.40625 8.273438 5.597656 8.273438 5.832031 C 8.273438 6.066406 8.078125 6.257812 7.839844 6.257812 C 7.601562 6.257812 7.40625 6.066406 7.40625 5.832031 C 7.40625 5.597656 7.601562 5.40625 7.839844 5.40625 Z M 7.042969 6.328125 C 7.28125 6.328125 7.476562 6.519531 7.476562 6.753906 C 7.476562 6.988281 7.28125 7.179688 7.042969 7.179688 C 6.800781 7.179688 6.609375 6.988281 6.609375 6.753906 C 6.609375 6.519531 6.800781 6.328125 7.042969 6.328125 Z M 7.003906 10.183594 Z M 6.105469 7.789062 C 6.105469 7.554688 6.300781 7.363281 6.539062 7.363281 C 6.777344 7.363281 6.972656 7.554688 6.972656 7.789062 C 6.972656 8.027344 6.777344 8.21875 6.539062 8.21875 C 6.300781 8.21875 6.105469 8.027344 6.105469 7.789062 Z M 6.261719 8.546875 C 6.5 8.546875 6.695312 8.738281 6.695312 8.972656 C 6.695312 9.207031 6.5 9.398438 6.261719 9.398438 C 6.023438 9.398438 5.828125 9.207031 5.828125 8.972656 C 5.828125 8.738281 6.023438 8.546875 6.261719 8.546875 Z M 6.730469 11.117188 C 6.390625 11.300781 5.964844 11.179688 5.777344 10.847656 C 5.589844 10.511719 5.714844 10.09375 6.050781 9.910156 C 6.214844 9.820312 6.40625 9.800781 6.585938 9.851562 C 6.765625 9.902344 6.914062 10.019531 7.003906 10.183594 C 7.0625 10.285156 7.09375 10.402344 7.09375 10.511719 C 7.09375 10.757812 6.960938 10.992188 6.730469 11.117188 Z M 9.78125 10.800781 C 9.324219 10.960938 8.863281 11.140625 8.421875 11.332031 C 8.386719 11.347656 8.351562 11.335938 8.332031 11.308594 C 8.308594 11.28125 8.3125 11.242188 8.335938 11.21875 C 8.5 11.046875 8.613281 10.828125 8.65625 10.601562 C 8.660156 10.570312 8.6875 10.546875 8.71875 10.542969 C 8.71875 10.542969 8.796875 10.527344 8.796875 10.527344 C 8.875 10.507812 8.945312 10.476562 9.011719 10.429688 C 9.039062 10.410156 9.074219 10.410156 9.097656 10.425781 C 9.289062 10.5625 9.523438 10.648438 9.761719 10.664062 C 9.796875 10.664062 9.824219 10.691406 9.828125 10.722656 C 9.835938 10.757812 9.8125 10.789062 9.78125 10.800781 Z M 10.050781 10.230469 C 9.757812 10.304688 9.453125 10.199219 9.269531 9.960938 C 9.261719 9.953125 9.257812 9.933594 9.257812 9.921875 L 9.238281 9.796875 C 9.152344 9.476562 8.820312 9.28125 8.492188 9.367188 C 8.335938 9.40625 8.203125 9.503906 8.121094 9.640625 C 8.035156 9.78125 8.011719 9.941406 8.054688 10.097656 C 8.078125 10.191406 8.125 10.273438 8.191406 10.34375 C 8.199219 10.355469 8.207031 10.371094 8.207031 10.386719 C 8.238281 10.675781 8.085938 10.957031 7.828125 11.097656 C 7.640625 11.199219 7.414062 11.214844 7.214844 11.140625 C 7.1875 11.132812 7.167969 11.105469 7.164062 11.078125 C 7.164062 11.050781 7.179688 11.023438 7.207031 11.011719 C 7.59375 10.820312 7.695312 10.554688 7.535156 10.144531 C 7.433594 9.882812 7.296875 9.726562 7.128906 9.675781 C 7.097656 9.667969 7.074219 9.636719 7.078125 9.601562 C 7.242188 7.570312 7.878906 6.628906 9.710938 5.71875 C 9.734375 5.707031 9.765625 5.707031 9.785156 5.71875 C 9.808594 5.734375 9.820312 5.757812 9.820312 5.785156 L 9.816406 5.855469 C 9.816406 6.039062 9.898438 6.210938 10.050781 6.324219 C 10.070312 6.34375 10.082031 6.371094 10.074219 6.398438 C 10.070312 6.425781 10.046875 6.445312 10.019531 6.453125 C 9.738281 6.511719 9.535156 6.753906 9.535156 7.039062 C 9.535156 7.300781 9.714844 7.535156 9.96875 7.609375 C 9.992188 7.617188 10.007812 7.628906 10.015625 7.648438 C 10.023438 7.667969 10.023438 7.691406 10.015625 7.710938 C 9.964844 7.808594 9.945312 7.921875 9.953125 8.058594 C 9.957031 8.085938 9.9375 8.113281 9.910156 8.125 C 9.589844 8.277344 9.488281 8.519531 9.589844 8.90625 C 9.710938 9.371094 9.996094 9.523438 10.511719 9.394531 C 10.53125 9.390625 10.554688 9.394531 10.570312 9.40625 C 10.589844 9.417969 10.601562 9.4375 10.601562 9.460938 C 10.636719 9.816406 10.402344 10.140625 10.050781 10.230469 Z M 11.996094 10.183594 C 11.550781 10.28125 11.113281 10.390625 10.6875 10.515625 C 10.652344 10.523438 10.617188 10.507812 10.601562 10.480469 C 10.585938 10.449219 10.589844 10.414062 10.617188 10.390625 C 10.910156 10.144531 11.058594 9.773438 11.015625 9.402344 C 11.011719 9.367188 11.035156 9.332031 11.070312 9.324219 C 11.105469 9.316406 11.144531 9.332031 11.15625 9.367188 C 11.304688 9.714844 11.617188 9.96875 11.996094 10.042969 C 12.027344 10.050781 12.054688 10.078125 12.054688 10.113281 C 12.054688 10.148438 12.027344 10.175781 11.996094 10.183594 Z M 14.386719 9.828125 C 13.902344 9.871094 13.410156 9.929688 12.921875 10.011719 C 12.890625 10.015625 12.855469 9.996094 12.84375 9.964844 C 12.832031 9.933594 12.84375 9.894531 12.871094 9.878906 C 13.109375 9.730469 13.292969 9.507812 13.382812 9.253906 C 13.394531 9.222656 13.421875 9.203125 13.453125 9.207031 L 13.488281 9.207031 C 13.546875 9.207031 13.609375 9.199219 13.664062 9.179688 C 13.695312 9.171875 13.730469 9.183594 13.746094 9.210938 C 13.902344 9.433594 14.132812 9.601562 14.402344 9.691406 C 14.4375 9.699219 14.457031 9.730469 14.453125 9.765625 C 14.449219 9.800781 14.421875 9.828125 14.386719 9.828125 Z M 14.074219 8.820312 C 14.070312 8.804688 14.070312 8.792969 14.074219 8.777344 C 14.089844 8.722656 14.097656 8.664062 14.097656 8.605469 C 14.097656 8.445312 14.035156 8.292969 13.917969 8.179688 C 13.804688 8.066406 13.652344 8.003906 13.488281 8.003906 C 13.152344 8.003906 12.875 8.273438 12.875 8.605469 C 12.875 8.710938 12.90625 8.8125 12.957031 8.90625 C 12.964844 8.917969 12.96875 8.929688 12.96875 8.945312 C 12.960938 9.269531 12.734375 9.554688 12.410156 9.632812 C 12.058594 9.722656 11.695312 9.550781 11.546875 9.222656 C 11.539062 9.203125 11.539062 9.179688 11.550781 9.160156 C 11.558594 9.140625 11.574219 9.128906 11.597656 9.121094 C 12.109375 8.988281 12.285156 8.722656 12.164062 8.257812 C 12.0625 7.867188 11.859375 7.707031 11.5 7.726562 C 11.46875 7.726562 11.441406 7.710938 11.429688 7.683594 C 11.351562 7.519531 11.246094 7.410156 11.101562 7.355469 C 11.074219 7.34375 11.054688 7.3125 11.058594 7.28125 C 11.265625 5.289062 12.828125 3.371094 15.417969 3.554688 C 15.457031 3.558594 15.488281 3.597656 15.484375 3.636719 L 15.480469 3.695312 C 15.480469 3.800781 15.511719 3.898438 15.570312 3.984375 C 15.582031 3.996094 15.585938 4.011719 15.585938 4.027344 L 15.585938 4.566406 C 15.585938 4.578125 15.582031 4.59375 15.570312 4.605469 C 15.511719 4.691406 15.480469 4.792969 15.480469 4.894531 C 15.480469 4.996094 15.511719 5.097656 15.570312 5.183594 C 15.582031 5.195312 15.585938 5.210938 15.585938 5.222656 L 15.585938 5.765625 C 15.585938 5.777344 15.582031 5.792969 15.570312 5.804688 C 15.511719 5.890625 15.480469 5.988281 15.480469 6.09375 C 15.480469 6.296875 15.601562 6.480469 15.792969 6.5625 C 15.820312 6.574219 15.839844 6.605469 15.835938 6.636719 C 15.832031 6.667969 15.804688 6.695312 15.773438 6.699219 C 15.46875 6.75 15.296875 6.910156 15.242188 7.210938 C 15.234375 7.238281 15.210938 7.261719 15.183594 7.265625 C 14.832031 7.335938 14.671875 7.542969 14.671875 7.945312 C 14.671875 8.425781 14.910156 8.640625 15.441406 8.644531 C 15.464844 8.644531 15.484375 8.652344 15.5 8.667969 C 15.511719 8.6875 15.519531 8.707031 15.515625 8.726562 C 15.457031 9.082031 15.148438 9.339844 14.785156 9.339844 C 14.457031 9.339844 14.167969 9.125 14.074219 8.820312 Z M 16.761719 9.71875 C 16.753906 9.753906 16.722656 9.777344 16.6875 9.773438 L 16.003906 9.761719 L 15.316406 9.773438 C 15.28125 9.777344 15.25 9.753906 15.242188 9.71875 C 15.234375 9.6875 15.25 9.652344 15.28125 9.636719 C 15.632812 9.472656 15.875 9.148438 15.929688 8.773438 C 15.933594 8.738281 15.964844 8.710938 16.003906 8.710938 C 16.039062 8.710938 16.070312 8.738281 16.074219 8.773438 C 16.128906 9.148438 16.371094 9.472656 16.722656 9.636719 C 16.753906 9.652344 16.769531 9.6875 16.761719 9.71875 Z M 19.164062 9.964844 C 19.152344 9.996094 19.117188 10.015625 19.082031 10.011719 C 18.597656 9.929688 18.105469 9.871094 17.621094 9.828125 C 17.585938 9.828125 17.554688 9.800781 17.550781 9.765625 C 17.546875 9.730469 17.570312 9.699219 17.601562 9.6875 C 17.871094 9.601562 18.105469 9.433594 18.257812 9.210938 C 18.277344 9.183594 18.308594 9.171875 18.339844 9.179688 C 18.398438 9.199219 18.457031 9.207031 18.519531 9.207031 L 18.550781 9.207031 C 18.585938 9.203125 18.613281 9.222656 18.621094 9.253906 C 18.714844 9.507812 18.894531 9.730469 19.132812 9.878906 C 19.164062 9.894531 19.175781 9.933594 19.164062 9.964844 Z M 19.59375 9.632812 C 19.273438 9.554688 19.042969 9.269531 19.039062 8.945312 C 19.035156 8.929688 19.039062 8.917969 19.046875 8.90625 C 19.101562 8.816406 19.128906 8.710938 19.128906 8.605469 C 19.128906 8.273438 18.855469 8.003906 18.519531 8.003906 C 18.179688 8.003906 17.90625 8.273438 17.90625 8.605469 C 17.90625 8.664062 17.917969 8.722656 17.933594 8.777344 C 17.9375 8.789062 17.9375 8.804688 17.933594 8.820312 C 17.839844 9.128906 17.550781 9.339844 17.222656 9.339844 C 16.859375 9.339844 16.550781 9.082031 16.492188 8.726562 C 16.488281 8.707031 16.492188 8.6875 16.507812 8.667969 C 16.523438 8.652344 16.542969 8.644531 16.5625 8.644531 C 17.09375 8.640625 17.332031 8.425781 17.332031 7.945312 C 17.332031 7.542969 17.175781 7.335938 16.824219 7.265625 C 16.792969 7.261719 16.769531 7.238281 16.765625 7.210938 C 16.707031 6.910156 16.539062 6.75 16.230469 6.699219 C 16.199219 6.695312 16.175781 6.667969 16.171875 6.636719 C 16.167969 6.605469 16.183594 6.574219 16.214844 6.5625 C 16.402344 6.480469 16.523438 6.296875 16.523438 6.09375 C 16.523438 5.988281 16.492188 5.890625 16.433594 5.804688 C 16.425781 5.792969 16.421875 5.777344 16.421875 5.765625 L 16.421875 5.222656 C 16.421875 5.210938 16.425781 5.195312 16.433594 5.183594 C 16.492188 5.097656 16.523438 5 16.523438 4.894531 C 16.523438 4.789062 16.492188 4.691406 16.433594 4.605469 C 16.425781 4.59375 16.421875 4.578125 16.421875 4.566406 L 16.421875 4.027344 C 16.421875 4.011719 16.425781 3.996094 16.433594 3.984375 C 16.492188 3.898438 16.523438 3.800781 16.523438 3.695312 L 16.519531 3.636719 C 16.519531 3.597656 16.546875 3.558594 16.589844 3.554688 C 19.175781 3.371094 20.742188 5.289062 20.949219 7.28125 C 20.953125 7.3125 20.933594 7.34375 20.902344 7.355469 C 20.761719 7.410156 20.65625 7.515625 20.578125 7.683594 C 20.5625 7.710938 20.535156 7.726562 20.507812 7.726562 C 20.148438 7.707031 19.941406 7.867188 19.839844 8.253906 C 19.71875 8.722656 19.894531 8.988281 20.410156 9.121094 C 20.429688 9.128906 20.449219 9.140625 20.457031 9.160156 C 20.464844 9.179688 20.464844 9.203125 20.457031 9.222656 C 20.3125 9.550781 19.949219 9.722656 19.59375 9.632812 Z M 21.40625 10.480469 C 21.386719 10.511719 21.351562 10.523438 21.320312 10.515625 C 20.894531 10.390625 20.453125 10.28125 20.011719 10.183594 C 19.976562 10.175781 19.953125 10.148438 19.953125 10.113281 C 19.953125 10.078125 19.976562 10.050781 20.011719 10.042969 C 20.390625 9.96875 20.703125 9.714844 20.847656 9.367188 C 20.863281 9.332031 20.898438 9.316406 20.933594 9.324219 C 20.96875 9.332031 20.992188 9.367188 20.988281 9.402344 C 20.949219 9.773438 21.097656 10.144531 21.386719 10.390625 C 21.414062 10.414062 21.421875 10.449219 21.40625 10.480469 Z M 23.675781 11.308594 C 23.65625 11.335938 23.617188 11.347656 23.585938 11.332031 C 23.140625 11.140625 22.679688 10.960938 22.222656 10.800781 C 22.191406 10.792969 22.171875 10.757812 22.175781 10.722656 C 22.179688 10.691406 22.210938 10.664062 22.242188 10.664062 C 22.484375 10.648438 22.714844 10.566406 22.90625 10.425781 C 22.933594 10.410156 22.96875 10.410156 22.996094 10.429688 C 23.058594 10.476562 23.128906 10.507812 23.207031 10.527344 L 23.289062 10.542969 C 23.316406 10.546875 23.34375 10.570312 23.351562 10.601562 C 23.394531 10.828125 23.507812 11.046875 23.667969 11.21875 C 23.691406 11.242188 23.695312 11.28125 23.675781 11.308594 Z M 24.875 9.675781 C 24.707031 9.726562 24.570312 9.882812 24.46875 10.144531 C 24.3125 10.554688 24.414062 10.820312 24.800781 11.011719 C 24.828125 11.023438 24.84375 11.050781 24.839844 11.078125 C 24.839844 11.105469 24.820312 11.132812 24.792969 11.140625 C 24.589844 11.214844 24.367188 11.199219 24.179688 11.097656 C 23.917969 10.957031 23.769531 10.675781 23.796875 10.386719 C 23.800781 10.371094 23.804688 10.355469 23.816406 10.34375 C 23.882812 10.273438 23.925781 10.191406 23.953125 10.097656 C 23.992188 9.941406 23.96875 9.78125 23.886719 9.640625 C 23.804688 9.503906 23.671875 9.40625 23.511719 9.367188 C 23.1875 9.28125 22.851562 9.476562 22.769531 9.796875 L 22.75 9.921875 C 22.75 9.933594 22.742188 9.953125 22.734375 9.960938 C 22.554688 10.199219 22.25 10.304688 21.957031 10.230469 C 21.601562 10.140625 21.371094 9.816406 21.402344 9.460938 C 21.40625 9.4375 21.417969 9.417969 21.433594 9.40625 C 21.449219 9.394531 21.472656 9.390625 21.492188 9.394531 C 22.011719 9.523438 22.296875 9.371094 22.417969 8.90625 C 22.515625 8.519531 22.417969 8.28125 22.09375 8.125 C 22.066406 8.113281 22.050781 8.085938 22.054688 8.058594 C 22.0625 7.921875 22.042969 7.808594 21.992188 7.710938 C 21.980469 7.691406 21.980469 7.667969 21.988281 7.648438 C 22 7.628906 22.015625 7.617188 22.035156 7.609375 C 22.292969 7.535156 22.46875 7.300781 22.46875 7.039062 C 22.46875 6.753906 22.265625 6.511719 21.988281 6.453125 C 21.960938 6.445312 21.9375 6.425781 21.929688 6.398438 C 21.925781 6.371094 21.933594 6.34375 21.957031 6.324219 C 22.105469 6.210938 22.191406 6.039062 22.191406 5.855469 L 22.1875 5.785156 C 22.183594 5.757812 22.199219 5.734375 22.21875 5.722656 C 22.242188 5.707031 22.273438 5.707031 22.296875 5.71875 C 24.125 6.628906 24.765625 7.570312 24.925781 9.601562 C 24.929688 9.636719 24.90625 9.667969 24.875 9.675781 Z M 26.230469 10.847656 C 26.042969 11.179688 25.617188 11.300781 25.277344 11.117188 C 25.113281 11.027344 24.992188 10.882812 24.941406 10.707031 C 24.921875 10.640625 24.914062 10.578125 24.914062 10.511719 C 24.914062 10.398438 24.941406 10.285156 25 10.183594 C 25.089844 10.019531 25.238281 9.902344 25.417969 9.851562 C 25.601562 9.800781 25.789062 9.820312 25.953125 9.910156 C 26.117188 10 26.238281 10.144531 26.289062 10.320312 C 26.339844 10.5 26.320312 10.683594 26.230469 10.847656 Z M 26.230469 10.847656 "/>
<path style=" stroke:none;fill-rule:nonzero;fill:rgb(93.333333%,19.607843%,30.588235%);fill-opacity:1;" d="M 23.476562 12.5625 C 23.496094 12.640625 23.570312 12.941406 23.585938 12.996094 C 23.535156 13.023438 23.242188 13.183594 23.15625 13.230469 C 23.132812 13.136719 23.042969 12.789062 23.027344 12.726562 C 23.089844 12.703125 23.398438 12.589844 23.476562 12.5625 Z M 23.476562 12.5625 "/>
<path style=" stroke:none;fill-rule:nonzero;fill:rgb(0%,32.156863%,62.352941%);fill-opacity:1;" d="M 0.105469 28.199219 C 0.105469 36.8125 7.238281 43.820312 16.003906 43.820312 C 24.769531 43.820312 31.898438 36.8125 31.898438 28.199219 C 31.898438 19.578125 24.769531 12.5625 16.003906 12.5625 C 7.238281 12.5625 0.105469 19.578125 0.105469 28.199219 Z M 0.105469 28.199219 "/>
<path style=" stroke:none;fill-rule:nonzero;fill:rgb(99.607843%,74.509804%,6.27451%);fill-opacity:1;" d="M 0.558594 28.199219 C 0.558594 32.382812 2.289062 36.175781 5.085938 38.925781 C 7.882812 41.675781 11.746094 43.375 16.003906 43.375 C 20.261719 43.375 24.121094 41.675781 26.917969 38.925781 C 29.714844 36.175781 31.449219 32.382812 31.449219 28.199219 C 31.449219 24.011719 29.714844 20.214844 26.917969 17.460938 C 24.121094 14.710938 20.261719 13.007812 16.003906 13.007812 C 11.746094 13.007812 7.882812 14.710938 5.085938 17.460938 C 2.289062 20.214844 0.558594 24.011719 0.558594 28.199219 Z M 0.558594 28.199219 "/>
<path style=" stroke:none;fill-rule:nonzero;fill:rgb(0%,32.156863%,62.352941%);fill-opacity:1;" d="M 1.910156 28.191406 C 1.910156 20.550781 8.230469 14.339844 16.003906 14.339844 C 23.773438 14.339844 30.09375 20.550781 30.09375 28.191406 C 30.09375 35.832031 23.773438 42.046875 16.003906 42.046875 C 8.230469 42.046875 1.910156 35.832031 1.910156 28.191406 Z M 1.910156 28.191406 "/>
<path style=" stroke:none;fill-rule:nonzero;fill:rgb(100%,100%,100%);fill-opacity:1;" d="M 2.363281 28.191406 C 2.363281 20.796875 8.480469 14.78125 16.003906 14.78125 C 23.523438 14.78125 29.644531 20.796875 29.644531 28.191406 C 29.644531 35.585938 23.523438 41.601562 16.003906 41.601562 C 8.480469 41.601562 2.363281 35.585938 2.363281 28.191406 Z M 2.363281 28.191406 "/>
<path style=" stroke:none;fill-rule:nonzero;fill:rgb(0%,32.156863%,62.352941%);fill-opacity:1;" d="M 29.078125 28.140625 C 29.078125 23.464844 26.480469 19.140625 22.292969 16.859375 L 22.207031 16.8125 C 22.207031 16.8125 19.238281 19.84375 19.164062 19.921875 C 19.15625 19.921875 19.148438 19.921875 19.148438 19.921875 C 19.148438 19.921875 19.101562 19.964844 19.097656 19.96875 C 18.125 19.613281 17.085938 19.421875 16.003906 19.40625 C 14.902344 19.40625 13.761719 19.609375 12.773438 19.96875 C 12.664062 19.855469 9.730469 16.84375 9.730469 16.84375 L 9.644531 16.890625 C 9.613281 16.910156 9.582031 16.929688 9.550781 16.945312 L 9.542969 16.941406 C 7.164062 18.269531 5.25 20.304688 4.09375 22.761719 C 4.097656 22.761719 4.097656 22.765625 4.101562 22.765625 C 3.320312 24.429688 2.894531 26.257812 2.894531 28.140625 C 2.894531 31.21875 4.015625 34.085938 6.140625 36.4375 L 6.234375 36.539062 L 7.972656 34.792969 L 7.878906 34.703125 C 6.9375 33.824219 5.203125 31.378906 5.203125 28.285156 C 5.203125 28.203125 5.203125 28.117188 5.207031 28.03125 C 5.25 26.789062 5.476562 25.625 5.875 24.542969 C 6.359375 25.03125 6.847656 25.519531 7.328125 26.003906 C 7.175781 26.59375 7.09375 27.199219 7.085938 27.808594 C 7.085938 27.847656 7.085938 27.882812 7.085938 27.917969 C 7.085938 31.832031 9.839844 35.339844 13.683594 36.332031 C 13.683594 36.503906 13.683594 38.53125 13.683594 38.53125 L 16.097656 38.53125 C 16.097656 38.53125 16.097656 36.824219 16.097656 36.605469 C 16.640625 36.59375 17.183594 36.53125 17.71875 36.417969 C 18.878906 37.582031 20.046875 38.753906 21.222656 39.9375 C 23.699219 38.871094 25.78125 37.070312 27.175781 34.820312 L 27.171875 34.816406 C 28.410156 32.820312 29.078125 30.511719 29.078125 28.140625 Z M 13.683594 33.683594 C 11.210938 32.804688 9.625 30.703125 9.570312 28.246094 C 10.945312 29.625 12.3125 30.996094 13.683594 32.371094 C 13.683594 33.070312 13.683594 33.585938 13.683594 33.683594 Z M 15.984375 23.222656 C 15.835938 23.074219 14.929688 22.167969 14.679688 21.914062 C 15.125 21.832031 15.578125 21.785156 15.878906 21.796875 C 16.355469 21.8125 16.789062 21.867188 17.199219 21.960938 C 16.96875 22.199219 16.128906 23.074219 15.984375 23.222656 Z M 25.296875 32.914062 L 17.570312 25.078125 C 18.5 24.113281 19.507812 23.066406 19.585938 22.980469 C 20.398438 23.542969 21.058594 24.28125 21.492188 25.121094 L 21.570312 25.265625 L 23.511719 23.617188 L 23.453125 23.527344 C 22.925781 22.65625 22.191406 21.855469 21.328125 21.199219 C 21.492188 21.035156 22.484375 20.035156 22.617188 19.902344 C 24.617188 21.316406 26.613281 24.527344 26.613281 28.027344 C 26.613281 30.078125 26.132812 31.558594 25.296875 32.914062 Z M 25.296875 32.914062 "/>
<path style=" stroke:none;fill-rule:nonzero;fill:rgb(99.607843%,74.509804%,6.27451%);fill-opacity:1;" d="M 22.289062 17.367188 C 21.753906 17.914062 19.410156 20.308594 19.410156 20.308594 L 19.355469 20.363281 L 19.335938 20.363281 C 19.316406 20.382812 19.300781 20.398438 19.300781 20.398438 L 19.214844 20.484375 L 19.097656 20.441406 L 19.019531 20.410156 C 18.074219 20.054688 17.054688 19.867188 16.003906 19.851562 C 14.945312 19.851562 13.789062 20.054688 12.851562 20.410156 L 12.652344 20.484375 L 12.566406 20.394531 C 12.566406 20.394531 10.191406 17.957031 9.648438 17.402344 C 5.753906 19.640625 3.34375 23.734375 3.34375 28.140625 C 3.34375 31 4.347656 33.664062 6.253906 35.882812 C 6.53125 35.605469 7.078125 35.058594 7.339844 34.796875 C 6.316406 33.714844 4.753906 31.308594 4.753906 28.285156 C 4.753906 28.195312 4.753906 28.105469 4.757812 28.015625 C 4.875 24.570312 6.335938 21.6875 9.066406 19.488281 L 9.292969 19.304688 L 11.234375 21.277344 L 10.945312 21.492188 C 8.835938 23.054688 7.566406 25.421875 7.535156 27.816406 C 7.535156 27.847656 7.535156 27.882812 7.535156 27.917969 C 7.535156 31.664062 10.195312 35.027344 13.890625 35.929688 L 14.136719 35.988281 L 14.136719 36.136719 C 14.136719 36.136719 14.136719 37.546875 14.136719 38.089844 C 14.511719 38.089844 15.273438 38.089844 15.648438 38.089844 C 15.648438 37.882812 15.648438 37.550781 15.648438 37.234375 C 15.648438 36.78125 15.648438 36.359375 15.648438 36.355469 L 15.648438 36.171875 L 15.96875 36.167969 C 18.320312 36.15625 20.699219 35.085938 22.234375 33.371094 C 21.957031 33.097656 21.339844 32.484375 21.046875 32.191406 C 19.566406 33.761719 17.519531 34.5625 16.121094 34.570312 C 16.0625 34.570312 16.007812 34.566406 15.953125 34.566406 L 15.648438 34.550781 L 15.648438 32.277344 L 15.839844 32.277344 C 15.839844 32.277344 17.664062 32.277344 18.292969 32.28125 C 18.292969 31.949219 18.292969 31.320312 18.292969 30.988281 C 17.664062 30.988281 15.839844 30.988281 15.839844 30.988281 L 15.648438 30.988281 L 15.648438 29.152344 L 15.839844 29.152344 C 15.839844 29.152344 17.691406 29.152344 18.324219 29.152344 C 18.324219 28.855469 18.324219 28.339844 18.324219 28.042969 C 17.566406 28.042969 14.894531 28.042969 14.136719 28.042969 C 14.136719 29.097656 14.136719 34.046875 14.136719 34.046875 L 14.136719 34.304688 L 13.714844 34.167969 C 10.917969 33.253906 9.113281 30.882812 9.117188 28.117188 C 9.117188 28.074219 9.117188 28.03125 9.117188 27.988281 C 9.164062 25.765625 10.246094 23.761719 12.082031 22.503906 L 12.304688 22.351562 L 12.417969 22.464844 C 12.417969 22.464844 15.296875 25.382812 15.984375 26.082031 C 16.652344 25.386719 19.414062 22.515625 19.414062 22.515625 L 19.527344 22.402344 L 19.753906 22.550781 C 20.550781 23.085938 21.214844 23.78125 21.695312 24.574219 C 22.019531 24.296875 22.644531 23.769531 22.921875 23.53125 C 22.414062 22.757812 21.734375 22.042969 20.945312 21.460938 L 20.652344 21.246094 L 22.5625 19.324219 L 22.785156 19.476562 C 24.929688 20.9375 27.058594 24.316406 27.066406 28.027344 C 27.066406 30.980469 26.042969 32.898438 24.515625 34.742188 C 24.800781 35.023438 25.464844 35.675781 25.777344 35.984375 C 27.617188 33.777344 28.628906 31.007812 28.628906 28.144531 C 28.628906 23.707031 26.203125 19.601562 22.289062 17.367188 Z M 16.125 23.722656 L 15.988281 23.863281 L 13.789062 21.652344 L 14.347656 21.527344 C 14.847656 21.417969 15.367188 21.351562 15.761719 21.351562 C 15.808594 21.351562 15.855469 21.355469 15.894531 21.355469 C 16.484375 21.375 17.023438 21.449219 17.535156 21.582031 L 18.054688 21.71875 Z M 16.125 23.722656 "/>
</g>
</svg>
