<?xml version="1.0" encoding="UTF-8"?>
<svg xmlns="http://www.w3.org/2000/svg" xmlns:xlink="http://www.w3.org/1999/xlink" width="32px" height="32px" viewBox="0 0 32 36" version="1.1">
<g id="surface1">
<path style=" stroke:none;fill-rule:nonzero;fill:rgb(0%,0%,0%);fill-opacity:1;" d="M 15.089844 1.246094 L 15.789062 1.246094 L 15.789062 0.335938 L 16.421875 0.335938 L 16.421875 1.246094 L 17.125 1.246094 L 17.125 1.863281 L 16.421875 1.863281 L 16.421875 2.3125 C 16.648438 2.390625 16.835938 2.546875 16.949219 2.75 C 17.085938 2.636719 17.261719 2.566406 17.453125 2.566406 C 17.882812 2.566406 18.230469 2.910156 18.230469 3.328125 C 18.230469 3.347656 18.230469 3.363281 18.230469 3.382812 C 18.347656 3.308594 18.488281 3.265625 18.640625 3.265625 C 18.886719 3.265625 19.105469 3.378906 19.25 3.550781 C 19.304688 3.183594 19.628906 2.902344 20.019531 2.902344 C 20.449219 2.902344 20.796875 3.246094 20.796875 3.664062 C 20.796875 3.753906 20.78125 3.835938 20.753906 3.914062 C 20.894531 3.765625 21.097656 3.671875 21.324219 3.671875 C 21.734375 3.671875 22.070312 3.980469 22.101562 4.371094 C 22.164062 4.355469 22.226562 4.347656 22.296875 4.347656 C 22.726562 4.347656 23.074219 4.691406 23.074219 5.109375 C 23.074219 5.1875 23.0625 5.261719 23.039062 5.332031 C 23.355469 5.429688 23.589844 5.71875 23.589844 6.058594 C 23.589844 6.179688 23.558594 6.292969 23.507812 6.394531 C 23.710938 6.53125 23.839844 6.761719 23.839844 7.019531 C 23.839844 7.195312 23.78125 7.355469 23.675781 7.488281 C 23.835938 7.625 23.933594 7.828125 23.933594 8.050781 C 23.933594 8.347656 23.761719 8.601562 23.511719 8.730469 C 23.550781 8.816406 23.558594 8.925781 23.542969 9.046875 C 23.507812 9.285156 23.355469 9.5 23.054688 9.570312 C 22.71875 9.648438 22.375 9.695312 22.027344 9.691406 C 22.066406 10.140625 21.714844 10.632812 21.257812 10.640625 L 21.675781 11.335938 L 20.945312 11.5 C 21.195312 11.703125 21.242188 12.09375 21.132812 12.382812 C 21.078125 12.523438 20.988281 12.640625 20.875 12.734375 C 24.070312 14.40625 26.242188 17.699219 26.242188 21.492188 C 26.242188 22.109375 26.183594 22.714844 26.074219 23.300781 C 26.148438 23.347656 26.21875 23.390625 26.292969 23.4375 C 27.121094 23.96875 27.863281 24.617188 28.527344 25.335938 C 28.792969 25.621094 29.066406 25.914062 29.355469 26.214844 C 29.632812 26.507812 29.917969 26.796875 30.210938 27.082031 C 30.714844 27.582031 31.230469 28.070312 31.765625 28.539062 C 30.046875 28.976562 28.546875 29.699219 27.09375 30.554688 L 31.046875 34.480469 L 29.574219 35.425781 L 25.605469 31.480469 C 25.339844 31.652344 25.070312 31.832031 24.804688 32.007812 C 23.835938 32.652344 22.863281 33.300781 21.828125 33.882812 C 20.171875 34.816406 18.550781 35.460938 17.039062 35.710938 C 15.710938 35.933594 14.355469 35.859375 13.121094 35.289062 C 11.964844 34.066406 10.792969 32.90625 9.324219 32.039062 C 8.144531 31.820312 7.125 30.648438 6.546875 29.71875 L 6.542969 29.707031 C 6.347656 29.328125 6.089844 28.933594 5.765625 28.53125 C 5.003906 27.582031 4.089844 26.703125 3.046875 26.042969 C 2.367188 25.617188 2.015625 25.289062 1.742188 24.53125 C 1.542969 23.976562 1.28125 23.449219 1.074219 22.898438 C 0.925781 22.496094 0.792969 22.101562 0.699219 21.753906 C 0.382812 20.589844 0.527344 19.402344 0.777344 18.238281 C 0.878906 17.777344 0.980469 17.304688 1.035156 16.796875 C 1.089844 16.269531 1.050781 15.738281 0.890625 15.230469 C 0.0429688 12.550781 0.71875 9.507812 1.390625 6.8125 C 0.390625 7 -0.121094 5.730469 0.558594 5.019531 L 1.078125 4.480469 C 2.03125 3.480469 3.445312 4.636719 2.753906 5.683594 L 10.152344 13.464844 C 10.53125 13.195312 10.925781 12.953125 11.339844 12.734375 C 11.226562 12.640625 11.136719 12.523438 11.082031 12.382812 C 10.972656 12.09375 11.019531 11.703125 11.269531 11.5 L 10.539062 11.335938 L 10.957031 10.640625 C 10.5 10.632812 10.148438 10.140625 10.1875 9.691406 C 9.839844 9.695312 9.496094 9.648438 9.160156 9.570312 C 8.859375 9.5 8.707031 9.285156 8.671875 9.046875 C 8.65625 8.925781 8.664062 8.816406 8.703125 8.730469 C 8.449219 8.601562 8.28125 8.347656 8.28125 8.050781 C 8.28125 7.828125 8.378906 7.625 8.535156 7.484375 C 8.433594 7.355469 8.371094 7.195312 8.371094 7.019531 C 8.371094 6.761719 8.503906 6.53125 8.703125 6.394531 C 8.652344 6.292969 8.625 6.179688 8.625 6.058594 C 8.625 5.71875 8.855469 5.429688 9.175781 5.332031 C 9.152344 5.261719 9.140625 5.1875 9.140625 5.109375 C 9.140625 4.6875 9.488281 4.347656 9.917969 4.347656 C 9.984375 4.347656 10.050781 4.355469 10.113281 4.371094 C 10.144531 3.980469 10.480469 3.671875 10.890625 3.671875 C 11.113281 3.671875 11.320312 3.765625 11.460938 3.914062 C 11.433594 3.835938 11.417969 3.753906 11.417969 3.664062 C 11.417969 3.242188 11.765625 2.902344 12.195312 2.902344 C 12.585938 2.902344 12.910156 3.183594 12.964844 3.550781 C 13.105469 3.378906 13.328125 3.265625 13.574219 3.265625 C 13.722656 3.265625 13.867188 3.308594 13.984375 3.382812 C 13.984375 3.363281 13.984375 3.347656 13.984375 3.328125 C 13.984375 2.910156 14.332031 2.566406 14.761719 2.566406 C 14.953125 2.566406 15.128906 2.636719 15.265625 2.75 C 15.378906 2.546875 15.566406 2.390625 15.789062 2.3125 L 15.789062 1.863281 L 15.085938 1.863281 L 15.085938 1.246094 Z M 7.28125 16.609375 C 7.714844 15.859375 8.246094 15.171875 8.855469 14.5625 L 1.746094 7.101562 C 2.101562 8.457031 2.601562 9.703125 3.28125 10.972656 C 4.367188 13.003906 5.773438 14.863281 7.28125 16.609375 Z M 7.28125 16.609375 "/>
<path style=" stroke:none;fill-rule:nonzero;fill:rgb(7.843137%,23.529412%,54.509804%);fill-opacity:1;" d="M 3.875 24.417969 C 2.660156 23.078125 3.003906 20.933594 3.285156 19.1875 C 3.328125 18.929688 3.367188 18.683594 3.398438 18.445312 C 3.464844 17.660156 3.476562 16.828125 3.402344 16.011719 C 3.335938 15.296875 3.203125 14.59375 2.984375 13.953125 L 2.984375 13.949219 C 2.925781 13.53125 2.902344 13.085938 2.90625 12.640625 C 2.914062 12.148438 2.957031 11.652344 3.023438 11.195312 L 3.027344 11.148438 L 3.007812 11.113281 C 2.4375 10.042969 1.835938 8.855469 1.523438 7.683594 C 0.976562 10.078125 0.457031 12.738281 1.183594 15.140625 C 1.355469 15.6875 1.398438 16.261719 1.339844 16.828125 C 1.285156 17.351562 1.179688 17.828125 1.078125 18.300781 C 0.890625 19.175781 0.757812 19.921875 0.886719 20.671875 C 1.0625 21.710938 1.738281 22.644531 2.5 23.355469 C 2.925781 23.765625 3.386719 24.121094 3.875 24.417969 Z M 3.875 24.417969 "/>
<path style=" stroke:none;fill-rule:nonzero;fill:rgb(100%,88.627451%,29.019608%);fill-opacity:1;" d="M 20.976562 10.585938 C 20.972656 10.582031 20.964844 10.582031 20.957031 10.578125 C 20.222656 10.25 19.441406 10.003906 18.632812 9.839844 C 16.992188 9.507812 15.21875 9.507812 13.582031 9.839844 C 12.769531 10.003906 11.992188 10.25 11.257812 10.578125 C 11.25 10.582031 11.242188 10.582031 11.238281 10.585938 L 12.011719 10.679688 L 12.070312 10.6875 L 12.03125 10.730469 L 11.5 11.378906 C 12.195312 11.070312 12.929688 10.832031 13.691406 10.671875 C 15.277344 10.332031 16.9375 10.335938 18.523438 10.671875 C 19.273438 10.832031 20.007812 11.066406 20.714844 11.378906 L 20.183594 10.730469 L 20.144531 10.6875 L 20.203125 10.679688 Z M 20.976562 10.585938 "/>
<path style=" stroke:none;fill-rule:nonzero;fill:rgb(100%,100%,100%);fill-opacity:1;" d="M 5.648438 25.179688 C 5.40625 24.785156 5.210938 24.347656 5.054688 23.894531 C 4.882812 23.410156 4.753906 22.914062 4.648438 22.445312 C 4.417969 21.460938 4.503906 20.472656 4.59375 19.472656 C 4.644531 18.878906 4.699219 18.28125 4.683594 17.683594 C 4.65625 17.429688 4.625 17.175781 4.589844 16.914062 C 4.453125 15.847656 4.308594 14.738281 4.597656 13.71875 C 4.046875 12.910156 3.53125 12.074219 3.066406 11.21875 C 3.007812 11.652344 2.960938 12.179688 2.953125 12.640625 C 2.949219 13.082031 2.972656 13.527344 3.03125 13.941406 C 3.25 14.585938 3.382812 15.289062 3.449219 16.007812 C 3.523438 16.824219 3.515625 17.660156 3.449219 18.449219 C 3.414062 18.6875 3.375 18.9375 3.332031 19.195312 C 3.046875 20.984375 2.691406 23.195312 4.023438 24.507812 C 4.433594 24.742188 4.863281 24.933594 5.308594 25.078125 C 5.421875 25.113281 5.535156 25.148438 5.648438 25.179688 Z M 5.648438 25.179688 "/>
<path style=" stroke:none;fill-rule:nonzero;fill:rgb(7.843137%,23.529412%,54.509804%);fill-opacity:1;" d="M 6.777344 25.378906 C 6.257812 24.183594 5.972656 22.871094 5.972656 21.492188 C 5.972656 19.851562 6.378906 18.304688 7.097656 16.945312 C 6.222656 15.933594 5.394531 14.875 4.632812 13.769531 C 4.359375 14.769531 4.5 15.859375 4.636719 16.910156 C 4.671875 17.171875 4.707031 17.429688 4.730469 17.679688 L 4.730469 17.683594 C 4.746094 18.285156 4.695312 18.882812 4.640625 19.476562 C 4.554688 20.472656 4.464844 21.460938 4.695312 22.4375 C 4.800781 22.902344 4.929688 23.398438 5.097656 23.878906 C 5.261719 24.34375 5.464844 24.796875 5.714844 25.199219 C 6.0625 25.285156 6.414062 25.347656 6.777344 25.378906 Z M 6.777344 25.378906 "/>
<path style=" stroke:none;fill-rule:nonzero;fill:rgb(7.843137%,23.529412%,54.509804%);fill-opacity:1;" d="M 14.527344 34.035156 C 14.429688 34.46875 14.285156 34.902344 14.101562 35.328125 C 14.992188 35.570312 15.960938 35.585938 16.988281 35.417969 C 18.464844 35.171875 20.050781 34.539062 21.675781 33.625 C 22.699219 33.046875 23.667969 32.402344 24.632812 31.761719 C 26.664062 30.414062 28.652344 29.085938 31.128906 28.398438 C 30.84375 28.140625 30.566406 27.867188 30.292969 27.59375 C 27.125 27.65625 24.617188 29.382812 22.125 31.09375 C 21.871094 31.269531 21.621094 31.445312 21.363281 31.621094 L 21.359375 31.621094 C 20.3125 32.238281 19.242188 32.839844 18.113281 33.289062 C 16.988281 33.738281 15.800781 34.035156 14.527344 34.035156 Z M 14.527344 34.035156 "/>
<path style=" stroke:none;fill-rule:nonzero;fill:rgb(100%,100%,100%);fill-opacity:1;" d="M 14.6875 32.585938 C 14.691406 33.050781 14.640625 33.523438 14.535156 33.988281 C 15.800781 33.984375 16.976562 33.691406 18.09375 33.246094 C 19.222656 32.800781 20.292969 32.195312 21.335938 31.582031 C 21.589844 31.410156 21.84375 31.234375 22.097656 31.058594 C 24.582031 29.347656 27.082031 27.625 30.246094 27.546875 C 30.164062 27.460938 30.078125 27.378906 29.992188 27.292969 C 29.722656 27.027344 29.457031 26.757812 29.195312 26.488281 C 28.296875 26.554688 27.464844 26.75 26.667969 27.03125 C 25.855469 27.320312 25.082031 27.695312 24.308594 28.105469 C 22.796875 29.042969 21.261719 29.984375 19.660156 30.78125 C 18.078125 31.570312 16.433594 32.21875 14.6875 32.585938 Z M 14.6875 32.585938 "/>
<path style=" stroke:none;fill-rule:nonzero;fill:rgb(7.843137%,23.529412%,54.509804%);fill-opacity:1;" d="M 14.289062 30.457031 C 14.507812 31.035156 14.636719 31.625 14.675781 32.222656 C 14.679688 32.328125 14.6875 32.433594 14.6875 32.539062 C 16.421875 32.171875 18.0625 31.523438 19.640625 30.738281 C 21.238281 29.941406 22.773438 29.003906 24.28125 28.066406 L 24.285156 28.066406 C 25.058594 27.652344 25.835938 27.277344 26.652344 26.988281 C 27.441406 26.707031 28.265625 26.511719 29.15625 26.445312 L 29.132812 26.417969 C 28.859375 26.132812 28.582031 25.839844 28.300781 25.535156 C 28.160156 25.382812 28.015625 25.234375 27.871094 25.089844 C 24.367188 25.21875 21.433594 26.972656 18.574219 28.683594 L 18.511719 28.722656 L 18.507812 28.722656 L 18.457031 28.75 C 17.109375 29.429688 15.773438 30.101562 14.289062 30.457031 Z M 14.289062 30.457031 "/>
<path style=" stroke:none;fill-rule:nonzero;fill:rgb(100%,100%,100%);fill-opacity:1;" d="M 13.792969 29.429688 C 13.984375 29.75 14.144531 30.078125 14.273438 30.414062 C 15.753906 30.058594 17.089844 29.386719 18.433594 28.707031 L 18.488281 28.683594 L 18.550781 28.644531 C 21.402344 26.9375 24.328125 25.1875 27.824219 25.046875 C 27.558594 24.789062 27.277344 24.542969 26.988281 24.3125 C 26.070312 24.152344 25.152344 24.183594 24.273438 24.34375 C 23.253906 24.523438 22.28125 24.878906 21.40625 25.320312 C 20.292969 25.804688 19.253906 26.480469 18.210938 27.152344 C 16.800781 28.0625 15.390625 28.976562 13.792969 29.429688 Z M 13.792969 29.429688 "/>
<path style=" stroke:none;fill-rule:nonzero;fill:rgb(7.843137%,23.529412%,54.509804%);fill-opacity:1;" d="M 12.148438 27.558594 C 12.714844 27.996094 13.21875 28.539062 13.644531 29.1875 C 13.6875 29.253906 13.726562 29.320312 13.765625 29.386719 C 15.363281 28.9375 16.777344 28.023438 18.183594 27.113281 C 19.226562 26.4375 20.269531 25.765625 21.382812 25.277344 L 21.386719 25.277344 C 22.261719 24.835938 23.238281 24.480469 24.261719 24.296875 C 25.125 24.140625 26.015625 24.109375 26.914062 24.25 C 26.660156 24.050781 26.394531 23.863281 26.125 23.6875 C 25.890625 23.539062 25.660156 23.40625 25.433594 23.273438 C 25.1875 23.128906 24.945312 22.988281 24.714844 22.835938 C 24.585938 22.75 24.457031 22.664062 24.332031 22.578125 C 20.84375 22.265625 18.082031 24.074219 15.398438 25.832031 C 15.027344 26.074219 14.65625 26.316406 14.289062 26.550781 L 14.285156 26.554688 C 13.597656 26.933594 12.894531 27.304688 12.148438 27.558594 Z M 12.148438 27.558594 "/>
<path style=" stroke:none;fill-rule:nonzero;fill:rgb(100%,100%,100%);fill-opacity:1;" d="M 10.851562 26.785156 C 10.949219 26.828125 11.046875 26.875 11.140625 26.925781 C 11.476562 27.09375 11.796875 27.296875 12.101562 27.527344 C 12.859375 27.273438 13.566406 26.894531 14.261719 26.511719 C 14.632812 26.277344 15 26.035156 15.371094 25.792969 C 18.042969 24.042969 20.789062 22.246094 24.253906 22.523438 C 24.070312 22.390625 23.890625 22.257812 23.714844 22.117188 C 23.542969 21.980469 23.371094 21.839844 23.199219 21.691406 C 22.464844 21.671875 21.699219 21.726562 20.953125 21.835938 C 20.136719 21.953125 19.339844 22.140625 18.613281 22.375 C 17.246094 22.726562 16.066406 23.539062 14.882812 24.351562 C 14.242188 24.792969 13.597656 25.234375 12.925781 25.605469 C 12.257812 26.035156 11.515625 26.347656 10.851562 26.785156 Z M 10.851562 26.785156 "/>
<path style=" stroke:none;fill-rule:nonzero;fill:rgb(7.843137%,23.529412%,54.509804%);fill-opacity:1;" d="M 2.285156 23.570312 C 1.847656 23.160156 1.453125 22.683594 1.144531 22.175781 C 1.210938 22.375 1.285156 22.585938 1.363281 22.796875 C 1.570312 23.347656 1.828125 23.878906 2.027344 24.429688 C 2.28125 25.125 2.589844 25.398438 3.214844 25.792969 C 3.765625 26.140625 4.261719 26.542969 4.738281 26.988281 C 5.222656 26.75 5.714844 26.570312 6.222656 26.433594 C 6.734375 26.296875 7.253906 26.214844 7.773438 26.195312 C 8.820312 26.160156 9.855469 26.347656 10.800781 26.761719 C 11.472656 26.316406 12.222656 26 12.902344 25.566406 L 12.902344 25.5625 C 13.574219 25.195312 14.214844 24.753906 14.855469 24.3125 C 16.039062 23.5 17.222656 22.683594 18.597656 22.332031 C 19.324219 22.097656 20.125 21.910156 20.949219 21.789062 C 21.675781 21.683594 22.421875 21.628906 23.144531 21.640625 C 23.011719 21.527344 22.878906 21.40625 22.742188 21.277344 C 22.507812 21.0625 22.28125 20.839844 22.066406 20.605469 C 21.863281 20.390625 21.667969 20.164062 21.480469 19.933594 C 19.925781 19.917969 18.40625 20.320312 17.019531 20.984375 C 15.914062 21.511719 14.878906 22.171875 13.917969 22.921875 C 12.902344 23.71875 11.953125 24.433594 10.742188 24.953125 C 10.03125 25.253906 9.277344 25.484375 8.472656 25.609375 C 7.316406 25.792969 6.222656 25.695312 5.210938 25.363281 C 4.117188 25.023438 3.128906 24.410156 2.285156 23.570312 Z M 2.285156 23.570312 "/>
<path style=" stroke:none;fill-rule:nonzero;fill:rgb(100%,100%,100%);fill-opacity:1;" d="M 13.304688 35.042969 C 13.46875 35.117188 13.636719 35.183594 13.804688 35.238281 C 14.238281 34.25 14.433594 33.238281 14.367188 32.238281 C 14.304688 31.246094 13.984375 30.265625 13.386719 29.347656 C 12.753906 28.382812 11.929688 27.664062 11 27.191406 C 10.011719 26.6875 8.902344 26.457031 7.78125 26.496094 C 7.289062 26.511719 6.792969 26.589844 6.300781 26.722656 C 5.851562 26.84375 5.410156 27.003906 4.972656 27.207031 C 5.371094 27.59375 5.710938 27.980469 6.007812 28.347656 C 6.339844 28.761719 6.609375 29.167969 6.8125 29.566406 C 7.359375 30.414062 8.328125 31.515625 9.433594 31.75 C 10.925781 32.621094 12.167969 33.792969 13.304688 35.042969 Z M 13.304688 35.042969 "/>
<path style=" stroke:none;fill-rule:nonzero;fill:rgb(100%,88.627451%,29.019608%);fill-opacity:1;" d="M 26.691406 30.78125 L 30.328125 34.40625 L 29.640625 34.847656 L 26 31.234375 Z M 26.691406 30.78125 "/>
<path style=" stroke:none;fill-rule:nonzero;fill:rgb(100%,88.627451%,29.019608%);fill-opacity:1;" d="M 2.140625 5.699219 L 9.785156 13.738281 C 9.578125 13.898438 9.378906 14.070312 9.183594 14.246094 L 1.574219 6.261719 C 1.351562 6.40625 1.082031 6.4375 0.871094 6.230469 C 0.601562 5.96875 0.636719 5.597656 0.894531 5.328125 L 1.414062 4.785156 C 1.671875 4.511719 2.0625 4.441406 2.332031 4.703125 C 2.597656 4.964844 2.507812 5.316406 2.25 5.589844 Z M 2.140625 5.699219 "/>
<path style=" stroke:none;fill-rule:nonzero;fill:rgb(100%,88.627451%,29.019608%);fill-opacity:1;" d="M 20.410156 12.507812 C 20.53125 12.441406 20.65625 12.351562 20.703125 12.226562 C 20.738281 12.128906 20.753906 11.886719 20.628906 11.832031 C 19.925781 11.515625 19.183594 11.273438 18.425781 11.113281 C 16.902344 10.789062 15.3125 10.785156 13.789062 11.109375 C 13.019531 11.273438 12.28125 11.519531 11.585938 11.832031 C 11.460938 11.886719 11.472656 12.128906 11.511719 12.226562 C 11.558594 12.351562 11.679688 12.441406 11.804688 12.507812 C 13.113281 11.90625 14.570312 11.570312 16.105469 11.570312 C 17.644531 11.570312 19.101562 11.90625 20.410156 12.507812 Z M 20.410156 12.507812 "/>
<path style=" stroke:none;fill-rule:nonzero;fill:rgb(0%,0%,0%);fill-opacity:1;" d="M 14.578125 9.992188 C 14.644531 10.109375 14.578125 10.242188 14.480469 10.316406 C 14.414062 10.363281 14.335938 10.386719 14.253906 10.40625 L 13.273438 10.617188 C 13.175781 10.640625 13.070312 10.648438 12.964844 10.601562 C 12.800781 10.527344 12.761719 10.355469 12.878906 10.21875 C 12.949219 10.136719 13.046875 10.097656 13.152344 10.078125 L 14.140625 9.863281 C 14.292969 9.832031 14.492188 9.839844 14.578125 9.992188 Z M 14.578125 9.992188 "/>
<path style=" stroke:none;fill-rule:nonzero;fill:rgb(92.54902%,11.372549%,14.117647%);fill-opacity:1;" d="M 14.144531 9.894531 L 13.15625 10.109375 C 13.0625 10.128906 12.972656 10.160156 12.902344 10.238281 C 12.796875 10.359375 12.832031 10.507812 12.980469 10.574219 C 13.070312 10.617188 13.175781 10.609375 13.269531 10.589844 L 14.246094 10.378906 C 14.320312 10.363281 14.390625 10.339844 14.453125 10.296875 C 14.542969 10.234375 14.609375 10.117188 14.550781 10.011719 C 14.476562 9.867188 14.28125 9.867188 14.144531 9.894531 Z M 14.144531 9.894531 "/>
<path style=" stroke:none;fill-rule:nonzero;fill:rgb(7.843137%,23.529412%,54.509804%);fill-opacity:1;" d="M 9.148438 27.054688 C 9.15625 27.046875 9.164062 27.039062 9.175781 27.03125 C 9.394531 27.234375 9.617188 27.441406 9.84375 27.652344 C 10.078125 27.867188 10.3125 28.085938 10.550781 28.308594 C 10.539062 28.324219 10.53125 28.335938 10.519531 28.351562 C 10.140625 28.035156 9.800781 27.820312 9.535156 27.703125 C 9.269531 27.585938 9.070312 27.570312 8.976562 27.660156 C 8.828125 27.800781 9 28.144531 9.289062 28.429688 C 9.382812 28.527344 9.46875 28.597656 9.558594 28.660156 C 9.679688 28.738281 9.808594 28.796875 9.953125 28.84375 C 10.066406 28.886719 10.261719 28.917969 10.550781 28.960938 C 10.757812 28.992188 10.949219 29.035156 11.125 29.085938 C 11.296875 29.140625 11.453125 29.203125 11.589844 29.277344 C 11.867188 29.4375 12.171875 29.660156 12.5 29.972656 C 12.917969 30.363281 13.277344 30.800781 13.507812 31.203125 C 13.75 31.617188 13.859375 31.992188 13.765625 32.226562 C 13.703125 32.378906 13.601562 32.449219 13.308594 32.441406 C 13.226562 32.457031 13.179688 32.476562 13.164062 32.511719 C 13.132812 32.578125 13.207031 32.765625 13.425781 33.054688 C 13.417969 33.082031 13.40625 33.105469 13.398438 33.128906 C 13.027344 32.75 12.664062 32.382812 12.3125 32.023438 C 11.96875 31.671875 11.632812 31.328125 11.304688 30.996094 C 11.316406 30.976562 11.328125 30.957031 11.34375 30.9375 C 11.929688 31.457031 12.425781 31.796875 12.796875 31.96875 C 13.167969 32.140625 13.402344 32.132812 13.476562 31.964844 C 13.582031 31.714844 13.261719 31.179688 12.855469 30.789062 C 12.597656 30.542969 12.359375 30.398438 12.097656 30.296875 C 11.953125 30.242188 11.789062 30.21875 11.558594 30.1875 C 11.222656 30.140625 10.964844 30.082031 10.738281 30 C 10.511719 29.914062 10.320312 29.808594 10.105469 29.667969 C 9.910156 29.53125 9.683594 29.34375 9.480469 29.132812 C 9.128906 28.78125 8.871094 28.410156 8.734375 28.105469 C 8.605469 27.804688 8.59375 27.566406 8.726562 27.441406 C 8.773438 27.398438 8.835938 27.375 8.914062 27.371094 C 9.035156 27.359375 9.324219 27.429688 9.359375 27.394531 C 9.398438 27.359375 9.378906 27.304688 9.148438 27.054688 Z M 9.148438 27.054688 "/>
<path style=" stroke:none;fill-rule:nonzero;fill:rgb(100%,88.627451%,29.019608%);fill-opacity:1;" d="M 16.105469 3.640625 C 16.355469 3.640625 16.558594 3.445312 16.558594 3.199219 C 16.558594 2.957031 16.355469 2.757812 16.105469 2.757812 C 15.859375 2.757812 15.65625 2.957031 15.65625 3.199219 C 15.65625 3.445312 15.859375 3.640625 16.105469 3.640625 Z M 16.105469 3.640625 "/>
<path style=" stroke:none;fill-rule:nonzero;fill:rgb(92.54902%,11.372549%,14.117647%);fill-opacity:1;" d="M 9.753906 8.394531 C 9.828125 8.347656 9.917969 8.320312 10.003906 8.320312 C 10.121094 8.316406 10.238281 8.355469 10.328125 8.4375 C 10.347656 8.453125 10.363281 8.46875 10.375 8.484375 C 10.378906 8.488281 10.386719 8.496094 10.390625 8.503906 C 10.410156 8.53125 10.425781 8.554688 10.4375 8.578125 C 10.632812 8.550781 10.816406 8.488281 10.988281 8.402344 C 11.164062 8.308594 11.328125 8.1875 11.472656 8.042969 C 11.371094 7.960938 11.292969 7.84375 11.257812 7.710938 C 11.21875 7.566406 11.230469 7.421875 11.289062 7.296875 C 11.339844 7.171875 11.433594 7.066406 11.554688 6.996094 C 11.566406 6.832031 11.636719 6.699219 11.738281 6.597656 C 11.824219 6.511719 11.929688 6.457031 12.042969 6.425781 C 12.046875 6.425781 12.050781 6.425781 12.058594 6.421875 C 11.992188 6.316406 11.953125 6.195312 11.953125 6.0625 C 11.953125 5.761719 12.148438 5.511719 12.417969 5.417969 C 12.359375 5.3125 12.328125 5.1875 12.328125 5.058594 C 12.328125 4.722656 12.550781 4.433594 12.863281 4.335938 C 12.832031 4.273438 12.8125 4.207031 12.804688 4.136719 C 12.660156 4.3125 12.441406 4.425781 12.195312 4.425781 C 11.96875 4.425781 11.765625 4.332031 11.625 4.179688 C 11.652344 4.257812 11.667969 4.34375 11.667969 4.433594 C 11.667969 4.851562 11.320312 5.195312 10.890625 5.195312 C 10.820312 5.195312 10.757812 5.183594 10.695312 5.167969 C 10.667969 5.484375 10.445312 5.746094 10.148438 5.835938 C 10.167969 5.90625 10.179688 5.984375 10.179688 6.058594 C 10.179688 6.320312 10.050781 6.546875 9.847656 6.683594 C 9.898438 6.785156 9.929688 6.898438 9.929688 7.019531 C 9.929688 7.242188 9.828125 7.445312 9.671875 7.585938 C 9.773438 7.714844 9.835938 7.875 9.835938 8.050781 C 9.835938 8.175781 9.804688 8.289062 9.753906 8.394531 Z M 9.753906 8.394531 "/>
<path style=" stroke:none;fill-rule:nonzero;fill:rgb(92.54902%,11.372549%,14.117647%);fill-opacity:1;" d="M 15.199219 6.527344 C 15.003906 6.421875 14.871094 6.21875 14.871094 5.988281 C 14.871094 5.738281 15.023438 5.523438 15.242188 5.425781 C 15.023438 5.328125 14.871094 5.113281 14.871094 4.863281 C 14.871094 4.527344 15.144531 4.257812 15.480469 4.246094 C 15.496094 4.152344 15.527344 4.0625 15.582031 3.984375 C 15.503906 3.933594 15.429688 3.871094 15.371094 3.800781 C 15.230469 3.976562 15.007812 4.089844 14.761719 4.089844 C 14.609375 4.089844 14.46875 4.046875 14.347656 3.972656 C 14.351562 3.992188 14.351562 4.007812 14.351562 4.027344 C 14.351562 4.363281 14.125 4.648438 13.816406 4.75 C 13.859375 4.84375 13.882812 4.949219 13.882812 5.058594 C 13.882812 5.417969 13.628906 5.71875 13.289062 5.796875 C 13.324219 5.878906 13.34375 5.96875 13.34375 6.0625 C 13.34375 6.355469 13.148438 6.609375 12.878906 6.703125 C 12.972656 6.722656 13.0625 6.761719 13.136719 6.820312 C 13.246094 6.902344 13.332031 7.023438 13.371094 7.164062 C 13.414062 7.320312 13.394531 7.476562 13.324219 7.609375 C 13.703125 7.75 14.109375 7.804688 14.5 7.753906 C 14.792969 7.71875 15.070312 7.625 15.316406 7.464844 C 15.152344 7.347656 15.042969 7.15625 15.042969 6.941406 C 15.042969 6.785156 15.101562 6.640625 15.199219 6.527344 Z M 15.199219 6.527344 "/>
<path style=" stroke:none;fill-rule:nonzero;fill:rgb(92.54902%,11.372549%,14.117647%);fill-opacity:1;" d="M 16.734375 4.246094 C 17.070312 4.257812 17.34375 4.527344 17.34375 4.863281 C 17.34375 5.113281 17.191406 5.328125 16.972656 5.425781 C 17.191406 5.523438 17.34375 5.738281 17.34375 5.988281 C 17.34375 6.21875 17.210938 6.421875 17.015625 6.527344 C 17.113281 6.640625 17.171875 6.785156 17.171875 6.941406 C 17.171875 7.15625 17.0625 7.347656 16.898438 7.464844 C 17.144531 7.625 17.421875 7.71875 17.714844 7.753906 C 18.101562 7.804688 18.511719 7.75 18.886719 7.609375 C 18.820312 7.476562 18.800781 7.320312 18.84375 7.164062 C 18.882812 7.023438 18.964844 6.902344 19.078125 6.820312 C 19.152344 6.761719 19.242188 6.722656 19.335938 6.703125 C 19.066406 6.609375 18.871094 6.355469 18.871094 6.0625 C 18.871094 5.96875 18.890625 5.878906 18.925781 5.796875 C 18.585938 5.71875 18.332031 5.417969 18.332031 5.058594 C 18.332031 4.949219 18.355469 4.84375 18.398438 4.75 C 18.089844 4.648438 17.863281 4.363281 17.863281 4.027344 C 17.863281 4.007812 17.863281 3.992188 17.867188 3.972656 C 17.746094 4.046875 17.605469 4.089844 17.453125 4.089844 C 17.207031 4.089844 16.984375 3.976562 16.84375 3.800781 C 16.78125 3.871094 16.710938 3.933594 16.632812 3.984375 C 16.6875 4.0625 16.71875 4.152344 16.734375 4.246094 Z M 16.734375 4.246094 "/>
<path style=" stroke:none;fill-rule:nonzero;fill:rgb(92.54902%,11.372549%,14.117647%);fill-opacity:1;" d="M 22.460938 8.394531 C 22.386719 8.347656 22.296875 8.320312 22.207031 8.320312 C 22.09375 8.316406 21.976562 8.355469 21.886719 8.4375 C 21.867188 8.453125 21.851562 8.46875 21.839844 8.484375 C 21.835938 8.488281 21.828125 8.496094 21.824219 8.503906 C 21.804688 8.53125 21.789062 8.554688 21.777344 8.578125 C 21.582031 8.550781 21.398438 8.488281 21.226562 8.402344 C 21.046875 8.308594 20.886719 8.1875 20.742188 8.042969 C 20.84375 7.960938 20.921875 7.84375 20.957031 7.710938 C 20.996094 7.566406 20.980469 7.421875 20.925781 7.296875 C 20.875 7.171875 20.78125 7.066406 20.660156 6.996094 C 20.648438 6.832031 20.578125 6.699219 20.476562 6.597656 C 20.390625 6.511719 20.285156 6.457031 20.171875 6.425781 C 20.167969 6.425781 20.160156 6.425781 20.15625 6.421875 C 20.222656 6.316406 20.261719 6.195312 20.261719 6.0625 C 20.261719 5.761719 20.066406 5.511719 19.796875 5.417969 C 19.855469 5.3125 19.886719 5.1875 19.886719 5.058594 C 19.886719 4.722656 19.664062 4.433594 19.351562 4.335938 C 19.378906 4.273438 19.402344 4.207031 19.410156 4.136719 C 19.554688 4.3125 19.773438 4.425781 20.019531 4.425781 C 20.246094 4.425781 20.449219 4.332031 20.589844 4.179688 C 20.5625 4.257812 20.546875 4.34375 20.546875 4.433594 C 20.546875 4.851562 20.894531 5.195312 21.324219 5.195312 C 21.390625 5.195312 21.457031 5.183594 21.519531 5.167969 C 21.546875 5.484375 21.769531 5.746094 22.066406 5.835938 C 22.046875 5.90625 22.03125 5.984375 22.03125 6.058594 C 22.03125 6.320312 22.164062 6.546875 22.367188 6.683594 C 22.316406 6.785156 22.285156 6.898438 22.285156 7.019531 C 22.285156 7.242188 22.386719 7.445312 22.542969 7.585938 C 22.441406 7.714844 22.378906 7.875 22.378906 8.050781 C 22.378906 8.175781 22.410156 8.289062 22.460938 8.394531 Z M 22.460938 8.394531 "/>
<path style=" stroke:none;fill-rule:nonzero;fill:rgb(100%,88.627451%,29.019608%);fill-opacity:1;" d="M 16.105469 4.535156 C 16.226562 4.535156 16.320312 4.4375 16.320312 4.324219 C 16.320312 4.207031 16.226562 4.113281 16.105469 4.113281 C 15.988281 4.113281 15.894531 4.207031 15.894531 4.324219 C 15.894531 4.4375 15.988281 4.535156 16.105469 4.535156 Z M 16.105469 4.535156 "/>
<path style=" stroke:none;fill-rule:nonzero;fill:rgb(100%,88.627451%,29.019608%);fill-opacity:1;" d="M 16.105469 5.503906 C 16.226562 5.503906 16.320312 5.410156 16.320312 5.296875 C 16.320312 5.179688 16.226562 5.085938 16.105469 5.085938 C 15.988281 5.085938 15.894531 5.179688 15.894531 5.296875 C 15.894531 5.410156 15.988281 5.503906 16.105469 5.503906 Z M 16.105469 5.503906 "/>
<path style=" stroke:none;fill-rule:nonzero;fill:rgb(100%,88.627451%,29.019608%);fill-opacity:1;" d="M 15.503906 5.695312 C 15.664062 5.695312 15.796875 5.828125 15.796875 5.988281 C 15.796875 5.988281 15.796875 5.992188 15.796875 5.996094 C 15.679688 6.058594 15.582031 6.15625 15.519531 6.277344 C 15.515625 6.277344 15.507812 6.277344 15.503906 6.277344 C 15.339844 6.277344 15.207031 6.148438 15.207031 5.988281 C 15.207031 5.828125 15.339844 5.695312 15.503906 5.695312 Z M 15.503906 5.695312 "/>
<path style=" stroke:none;fill-rule:nonzero;fill:rgb(100%,88.627451%,29.019608%);fill-opacity:1;" d="M 15.503906 4.574219 C 15.511719 4.574219 15.523438 4.574219 15.53125 4.574219 C 15.574219 4.667969 15.636719 4.746094 15.71875 4.808594 C 15.609375 4.894531 15.527344 5.015625 15.492188 5.152344 C 15.335938 5.148438 15.207031 5.019531 15.207031 4.863281 C 15.207031 4.703125 15.339844 4.574219 15.503906 4.574219 Z M 15.503906 4.574219 "/>
<path style=" stroke:none;fill-rule:nonzero;fill:rgb(100%,88.627451%,29.019608%);fill-opacity:1;" d="M 14.761719 3.769531 C 15.011719 3.769531 15.214844 3.574219 15.214844 3.328125 C 15.214844 3.085938 15.011719 2.886719 14.761719 2.886719 C 14.511719 2.886719 14.308594 3.085938 14.308594 3.328125 C 14.308594 3.574219 14.511719 3.769531 14.761719 3.769531 Z M 14.761719 3.769531 "/>
<path style=" stroke:none;fill-rule:nonzero;fill:rgb(100%,88.627451%,29.019608%);fill-opacity:1;" d="M 9.058594 8.492188 C 9.304688 8.492188 9.507812 8.296875 9.507812 8.050781 C 9.507812 7.808594 9.304688 7.609375 9.058594 7.609375 C 8.808594 7.609375 8.605469 7.808594 8.605469 8.050781 C 8.605469 8.296875 8.808594 8.492188 9.058594 8.492188 Z M 9.058594 8.492188 "/>
<path style=" stroke:none;fill-rule:nonzero;fill:rgb(100%,88.627451%,29.019608%);fill-opacity:1;" d="M 9.152344 7.460938 C 9.398438 7.460938 9.601562 7.261719 9.601562 7.019531 C 9.601562 6.773438 9.398438 6.578125 9.152344 6.578125 C 8.902344 6.578125 8.699219 6.773438 8.699219 7.019531 C 8.699219 7.261719 8.902344 7.460938 9.152344 7.460938 Z M 9.152344 7.460938 "/>
<path style=" stroke:none;fill-rule:nonzero;fill:rgb(100%,88.627451%,29.019608%);fill-opacity:1;" d="M 9.402344 6.503906 C 9.652344 6.503906 9.855469 6.304688 9.855469 6.058594 C 9.855469 5.816406 9.652344 5.617188 9.402344 5.617188 C 9.15625 5.617188 8.953125 5.816406 8.953125 6.058594 C 8.953125 6.304688 9.15625 6.503906 9.402344 6.503906 Z M 9.402344 6.503906 "/>
<path style=" stroke:none;fill-rule:nonzero;fill:rgb(100%,88.627451%,29.019608%);fill-opacity:1;" d="M 9.917969 5.550781 C 10.167969 5.550781 10.371094 5.351562 10.371094 5.109375 C 10.371094 4.867188 10.167969 4.667969 9.917969 4.667969 C 9.671875 4.667969 9.46875 4.867188 9.46875 5.109375 C 9.46875 5.351562 9.671875 5.550781 9.917969 5.550781 Z M 9.917969 5.550781 "/>
<path style=" stroke:none;fill-rule:nonzero;fill:rgb(100%,88.627451%,29.019608%);fill-opacity:1;" d="M 10.890625 4.875 C 11.136719 4.875 11.339844 4.675781 11.339844 4.433594 C 11.339844 4.1875 11.136719 3.988281 10.890625 3.988281 C 10.640625 3.988281 10.4375 4.1875 10.4375 4.433594 C 10.4375 4.675781 10.640625 4.875 10.890625 4.875 Z M 10.890625 4.875 "/>
<path style=" stroke:none;fill-rule:nonzero;fill:rgb(100%,88.627451%,29.019608%);fill-opacity:1;" d="M 12.195312 4.105469 C 12.445312 4.105469 12.648438 3.90625 12.648438 3.664062 C 12.648438 3.421875 12.445312 3.222656 12.195312 3.222656 C 11.945312 3.222656 11.742188 3.421875 11.742188 3.664062 C 11.742188 3.90625 11.945312 4.105469 12.195312 4.105469 Z M 12.195312 4.105469 "/>
<path style=" stroke:none;fill-rule:nonzero;fill:rgb(100%,88.627451%,29.019608%);fill-opacity:1;" d="M 13.574219 4.46875 C 13.820312 4.46875 14.023438 4.269531 14.023438 4.027344 C 14.023438 3.78125 13.820312 3.585938 13.574219 3.585938 C 13.324219 3.585938 13.121094 3.78125 13.121094 4.027344 C 13.121094 4.269531 13.324219 4.46875 13.574219 4.46875 Z M 13.574219 4.46875 "/>
<path style=" stroke:none;fill-rule:nonzero;fill:rgb(100%,88.627451%,29.019608%);fill-opacity:1;" d="M 13.105469 5.5 C 13.355469 5.5 13.554688 5.300781 13.554688 5.058594 C 13.554688 4.816406 13.355469 4.617188 13.105469 4.617188 C 12.855469 4.617188 12.652344 4.816406 12.652344 5.058594 C 12.652344 5.300781 12.855469 5.5 13.105469 5.5 Z M 13.105469 5.5 "/>
<path style=" stroke:none;fill-rule:nonzero;fill:rgb(100%,88.627451%,29.019608%);fill-opacity:1;" d="M 12.648438 6.421875 C 12.851562 6.421875 13.015625 6.261719 13.015625 6.0625 C 13.015625 5.863281 12.851562 5.699219 12.648438 5.699219 C 12.445312 5.699219 12.277344 5.863281 12.277344 6.0625 C 12.277344 6.261719 12.445312 6.421875 12.648438 6.421875 Z M 12.648438 6.421875 "/>
<path style=" stroke:none;fill-rule:nonzero;fill:rgb(100%,88.627451%,29.019608%);fill-opacity:1;" d="M 23.15625 8.492188 C 23.40625 8.492188 23.609375 8.296875 23.609375 8.050781 C 23.609375 7.808594 23.40625 7.609375 23.15625 7.609375 C 22.90625 7.609375 22.707031 7.808594 22.707031 8.050781 C 22.707031 8.296875 22.90625 8.492188 23.15625 8.492188 Z M 23.15625 8.492188 "/>
<path style=" stroke:none;fill-rule:nonzero;fill:rgb(100%,88.627451%,29.019608%);fill-opacity:1;" d="M 23.0625 7.460938 C 23.3125 7.460938 23.515625 7.261719 23.515625 7.019531 C 23.515625 6.773438 23.3125 6.578125 23.0625 6.578125 C 22.816406 6.578125 22.613281 6.773438 22.613281 7.019531 C 22.613281 7.261719 22.816406 7.460938 23.0625 7.460938 Z M 23.0625 7.460938 "/>
<path style=" stroke:none;fill-rule:nonzero;fill:rgb(100%,88.627451%,29.019608%);fill-opacity:1;" d="M 22.8125 6.503906 C 23.058594 6.503906 23.261719 6.304688 23.261719 6.058594 C 23.261719 5.816406 23.058594 5.617188 22.8125 5.617188 C 22.5625 5.617188 22.359375 5.816406 22.359375 6.058594 C 22.359375 6.304688 22.5625 6.503906 22.8125 6.503906 Z M 22.8125 6.503906 "/>
<path style=" stroke:none;fill-rule:nonzero;fill:rgb(100%,88.627451%,29.019608%);fill-opacity:1;" d="M 22.296875 5.550781 C 22.542969 5.550781 22.746094 5.351562 22.746094 5.109375 C 22.746094 4.867188 22.542969 4.667969 22.296875 4.667969 C 22.046875 4.667969 21.84375 4.867188 21.84375 5.109375 C 21.84375 5.351562 22.046875 5.550781 22.296875 5.550781 Z M 22.296875 5.550781 "/>
<path style=" stroke:none;fill-rule:nonzero;fill:rgb(100%,88.627451%,29.019608%);fill-opacity:1;" d="M 21.324219 4.875 C 21.574219 4.875 21.777344 4.675781 21.777344 4.433594 C 21.777344 4.1875 21.574219 3.988281 21.324219 3.988281 C 21.074219 3.988281 20.875 4.1875 20.875 4.433594 C 20.875 4.675781 21.074219 4.875 21.324219 4.875 Z M 21.324219 4.875 "/>
<path style=" stroke:none;fill-rule:nonzero;fill:rgb(100%,88.627451%,29.019608%);fill-opacity:1;" d="M 20.019531 4.105469 C 20.269531 4.105469 20.472656 3.90625 20.472656 3.664062 C 20.472656 3.421875 20.269531 3.222656 20.019531 3.222656 C 19.769531 3.222656 19.566406 3.421875 19.566406 3.664062 C 19.566406 3.90625 19.769531 4.105469 20.019531 4.105469 Z M 20.019531 4.105469 "/>
<path style=" stroke:none;fill-rule:nonzero;fill:rgb(100%,88.627451%,29.019608%);fill-opacity:1;" d="M 17.453125 3.769531 C 17.703125 3.769531 17.90625 3.574219 17.90625 3.328125 C 17.90625 3.085938 17.703125 2.886719 17.453125 2.886719 C 17.203125 2.886719 17 3.085938 17 3.328125 C 17 3.574219 17.203125 3.769531 17.453125 3.769531 Z M 17.453125 3.769531 "/>
<path style=" stroke:none;fill-rule:nonzero;fill:rgb(100%,88.627451%,29.019608%);fill-opacity:1;" d="M 18.640625 4.46875 C 18.890625 4.46875 19.09375 4.269531 19.09375 4.027344 C 19.09375 3.78125 18.890625 3.585938 18.640625 3.585938 C 18.394531 3.585938 18.191406 3.78125 18.191406 4.027344 C 18.191406 4.269531 18.394531 4.46875 18.640625 4.46875 Z M 18.640625 4.46875 "/>
<path style=" stroke:none;fill-rule:nonzero;fill:rgb(100%,88.627451%,29.019608%);fill-opacity:1;" d="M 19.109375 5.5 C 19.359375 5.5 19.5625 5.300781 19.5625 5.058594 C 19.5625 4.816406 19.359375 4.617188 19.109375 4.617188 C 18.859375 4.617188 18.65625 4.816406 18.65625 5.058594 C 18.65625 5.300781 18.859375 5.5 19.109375 5.5 Z M 19.109375 5.5 "/>
<path style=" stroke:none;fill-rule:nonzero;fill:rgb(100%,88.627451%,29.019608%);fill-opacity:1;" d="M 19.566406 6.421875 C 19.769531 6.421875 19.9375 6.261719 19.9375 6.0625 C 19.9375 5.863281 19.769531 5.699219 19.566406 5.699219 C 19.363281 5.699219 19.199219 5.863281 19.199219 6.0625 C 19.199219 6.261719 19.363281 6.421875 19.566406 6.421875 Z M 19.566406 6.421875 "/>
<path style=" stroke:none;fill-rule:nonzero;fill:rgb(100%,88.627451%,29.019608%);fill-opacity:1;" d="M 16.710938 5.695312 C 16.546875 5.695312 16.414062 5.828125 16.414062 5.988281 C 16.414062 5.988281 16.414062 5.992188 16.417969 5.996094 C 16.535156 6.058594 16.632812 6.15625 16.695312 6.277344 C 16.699219 6.277344 16.707031 6.277344 16.710938 6.277344 C 16.875 6.277344 17.007812 6.148438 17.007812 5.988281 C 17.007812 5.828125 16.875 5.695312 16.710938 5.695312 Z M 16.710938 5.695312 "/>
<path style=" stroke:none;fill-rule:nonzero;fill:rgb(100%,88.627451%,29.019608%);fill-opacity:1;" d="M 16.710938 4.574219 C 16.703125 4.574219 16.691406 4.574219 16.683594 4.574219 C 16.640625 4.667969 16.578125 4.746094 16.496094 4.808594 C 16.605469 4.894531 16.6875 5.015625 16.71875 5.152344 C 16.878906 5.148438 17.007812 5.019531 17.007812 4.863281 C 17.007812 4.703125 16.875 4.574219 16.710938 4.574219 Z M 16.710938 4.574219 "/>
<path style=" stroke:none;fill-rule:nonzero;fill:rgb(100%,88.627451%,29.019608%);fill-opacity:1;" d="M 13.371094 8.6875 C 12.511719 8.863281 11.683594 9.117188 10.894531 9.457031 C 10.433594 9.652344 10.707031 10.328125 11.066406 10.167969 C 11.832031 9.828125 12.644531 9.574219 13.488281 9.402344 C 15.1875 9.054688 17.027344 9.054688 18.726562 9.402344 C 19.570312 9.574219 20.382812 9.828125 21.148438 10.167969 C 21.507812 10.328125 21.78125 9.652344 21.320312 9.457031 C 20.53125 9.117188 19.703125 8.863281 18.84375 8.6875 C 17.0625 8.332031 15.152344 8.332031 13.371094 8.6875 Z M 13.371094 8.6875 "/>
<path style=" stroke:none;fill-rule:nonzero;fill:rgb(0%,0%,0%);fill-opacity:1;" d="M 16.105469 9.679688 L 16.949219 10.007812 L 16.105469 10.339844 L 15.265625 10.007812 Z M 16.105469 9.679688 "/>
<path style=" stroke:none;fill-rule:nonzero;fill:rgb(7.843137%,23.529412%,54.509804%);fill-opacity:1;" d="M 16.863281 10.007812 L 16.105469 9.714844 L 15.351562 10.007812 L 16.105469 10.304688 Z M 16.863281 10.007812 "/>
<path style=" stroke:none;fill-rule:nonzero;fill:rgb(0%,0%,0%);fill-opacity:1;" d="M 17.636719 9.992188 C 17.570312 10.109375 17.632812 10.242188 17.734375 10.316406 C 17.800781 10.363281 17.878906 10.386719 17.960938 10.40625 L 18.941406 10.617188 C 19.039062 10.640625 19.144531 10.648438 19.246094 10.601562 C 19.414062 10.527344 19.453125 10.355469 19.335938 10.21875 C 19.265625 10.136719 19.167969 10.097656 19.0625 10.078125 L 18.074219 9.863281 C 17.921875 9.832031 17.722656 9.839844 17.636719 9.992188 Z M 17.636719 9.992188 "/>
<path style=" stroke:none;fill-rule:nonzero;fill:rgb(92.54902%,11.372549%,14.117647%);fill-opacity:1;" d="M 18.070312 9.894531 L 19.058594 10.109375 C 19.152344 10.128906 19.242188 10.160156 19.3125 10.238281 C 19.417969 10.359375 19.382812 10.507812 19.234375 10.574219 C 19.140625 10.617188 19.039062 10.609375 18.945312 10.589844 L 17.964844 10.378906 C 17.894531 10.363281 17.824219 10.339844 17.761719 10.296875 C 17.671875 10.234375 17.605469 10.117188 17.664062 10.011719 C 17.738281 9.867188 17.933594 9.867188 18.070312 9.894531 Z M 18.070312 9.894531 "/>
<path style=" stroke:none;fill-rule:nonzero;fill:rgb(7.843137%,23.529412%,54.509804%);fill-opacity:1;" d="M 11.226562 32.726562 C 11.019531 32.539062 10.804688 32.34375 10.582031 32.140625 C 10.351562 31.929688 10.113281 31.714844 9.867188 31.488281 C 9.886719 31.480469 9.910156 31.476562 9.933594 31.46875 C 10.421875 31.867188 10.792969 32.128906 11.078125 32.292969 C 11.363281 32.449219 11.574219 32.515625 11.714844 32.5 C 12.003906 32.472656 11.816406 32.152344 11.527344 31.863281 C 11.351562 31.6875 11.179688 31.550781 11 31.457031 C 10.875 31.394531 10.679688 31.304688 10.445312 31.222656 C 10.308594 31.171875 10.175781 31.125 10.042969 31.074219 C 9.847656 31 9.667969 30.925781 9.507812 30.847656 C 9.34375 30.769531 9.191406 30.6875 9.042969 30.59375 C 8.769531 30.429688 8.457031 30.183594 8.121094 29.875 C 7.730469 29.519531 7.347656 29.109375 7.085938 28.742188 C 6.804688 28.339844 6.660156 27.984375 6.800781 27.800781 C 6.871094 27.703125 7.042969 27.679688 7.195312 27.675781 C 7.351562 27.675781 7.496094 27.695312 7.507812 27.679688 C 7.558594 27.621094 7.449219 27.472656 7.238281 27.222656 C 7.261719 27.1875 7.289062 27.15625 7.3125 27.125 C 7.699219 27.527344 8.070312 27.910156 8.425781 28.277344 C 8.761719 28.625 9.085938 28.960938 9.394531 29.28125 C 9.367188 29.300781 9.339844 29.316406 9.3125 29.335938 C 8.84375 28.925781 8.359375 28.558594 7.957031 28.320312 C 7.550781 28.082031 7.246094 27.984375 7.140625 28.105469 C 7.003906 28.261719 7.308594 28.722656 7.753906 29.140625 C 8.03125 29.402344 8.246094 29.570312 8.410156 29.65625 C 8.574219 29.742188 8.867188 29.863281 9.261719 30 C 9.433594 30.058594 9.609375 30.121094 9.785156 30.183594 C 9.996094 30.25 10.214844 30.347656 10.425781 30.476562 C 10.835938 30.714844 11.203125 31.011719 11.550781 31.371094 C 11.851562 31.6875 12.089844 32.019531 12.164062 32.265625 C 12.234375 32.496094 12.164062 32.65625 11.878906 32.679688 C 11.761719 32.6875 11.589844 32.65625 11.390625 32.59375 C 11.363281 32.585938 11.335938 32.578125 11.308594 32.570312 C 11.269531 32.558594 11.226562 32.546875 11.210938 32.550781 C 11.152344 32.554688 11.199219 32.613281 11.300781 32.722656 C 11.277344 32.722656 11.253906 32.726562 11.226562 32.726562 Z M 11.226562 32.726562 "/>
<path style=" stroke:none;fill-rule:nonzero;fill:rgb(90.196078%,64.705882%,7.843137%);fill-opacity:1;" d="M 12.816406 23.386719 C 13.117188 23.164062 13.417969 22.929688 13.726562 22.691406 C 14.703125 21.925781 15.757812 21.25 16.882812 20.714844 C 16.949219 20.683594 17.015625 20.652344 17.082031 20.621094 C 15.894531 19.515625 14.75 18.246094 14.175781 16.730469 C 14.011719 16.292969 13.9375 15.921875 13.996094 15.488281 C 12.953125 15.664062 11.542969 16 10.605469 16.703125 C 9.554688 17.488281 9.566406 18.648438 10.007812 19.820312 C 10.574219 21.320312 11.640625 22.367188 12.816406 23.386719 Z M 12.816406 23.386719 "/>
<path style=" stroke:none;fill-rule:nonzero;fill:rgb(90.196078%,64.705882%,7.843137%);fill-opacity:1;" d="M 6.652344 19.464844 C 6.507812 20.121094 6.429688 20.796875 6.429688 21.492188 C 6.429688 22.886719 6.738281 24.210938 7.292969 25.402344 C 7.660156 25.40625 8.039062 25.375 8.425781 25.316406 C 9.203125 25.191406 9.933594 24.972656 10.621094 24.675781 C 11.289062 24.390625 11.875 24.042969 12.4375 23.65625 C 11.257812 22.613281 10.28125 21.589844 9.65625 20.066406 C 9.308594 19.21875 9.128906 18.316406 9.386719 17.5625 C 8.320312 18.019531 7.4375 18.660156 6.652344 19.464844 Z M 6.652344 19.464844 "/>
<path style=" stroke:none;fill-rule:nonzero;fill:rgb(90.196078%,64.705882%,7.843137%);fill-opacity:1;" d="M 16.546875 12.03125 C 16.402344 12.023438 16.253906 12.019531 16.105469 12.019531 C 11.789062 12.019531 8.128906 14.792969 6.886719 18.617188 C 7.738281 17.859375 8.714844 17.242188 9.8125 16.863281 C 10.820312 15.699219 12.613281 15.261719 14.097656 15.023438 C 14.207031 14.695312 14.40625 14.300781 14.664062 13.945312 C 14.992188 13.496094 15.347656 13.074219 15.753906 12.6875 C 16 12.457031 16.261719 12.234375 16.546875 12.03125 Z M 16.546875 12.03125 "/>
<path style=" stroke:none;fill-rule:nonzero;fill:rgb(90.196078%,64.705882%,7.843137%);fill-opacity:1;" d="M 20.949219 13.292969 C 20.570312 13.074219 20.171875 12.886719 19.761719 12.722656 C 19.164062 12.941406 18.644531 13.265625 18.179688 13.660156 C 17.75 14.019531 17.363281 14.441406 17 14.886719 C 17.640625 15.277344 18.261719 15.699219 18.871094 16.144531 L 19.191406 15.703125 C 18.964844 15.5 18.746094 15.351562 18.515625 15.203125 C 18.410156 15.125 18.378906 14.945312 18.460938 14.84375 C 18.542969 14.742188 18.726562 14.714844 18.832031 14.796875 C 19.039062 15.019531 19.257812 15.171875 19.480469 15.308594 L 19.90625 14.722656 C 19.75 14.589844 19.582031 14.484375 19.40625 14.386719 C 19.304688 14.316406 19.28125 14.183594 19.351562 14.082031 C 19.421875 13.984375 19.558594 13.960938 19.660156 14.027344 C 19.808594 14.167969 19.96875 14.289062 20.144531 14.394531 L 20.476562 13.9375 C 20.382812 13.859375 20.285156 13.796875 20.175781 13.761719 C 20.074219 13.691406 20.046875 13.558594 20.117188 13.457031 C 20.183594 13.359375 20.324219 13.332031 20.425781 13.398438 C 20.507812 13.492188 20.605469 13.566406 20.703125 13.628906 Z M 20.949219 13.292969 "/>
<path style=" stroke:none;fill-rule:nonzero;fill:rgb(90.196078%,64.705882%,7.843137%);fill-opacity:1;" d="M 22.4375 14.332031 C 22.09375 14.039062 21.726562 13.769531 21.34375 13.527344 L 21.0625 13.910156 C 21.160156 14 21.269531 14.074219 21.378906 14.148438 C 21.46875 14.230469 21.472656 14.367188 21.386719 14.457031 C 21.304688 14.542969 21.164062 14.546875 21.074219 14.464844 C 21.003906 14.367188 20.925781 14.285156 20.839844 14.21875 L 20.507812 14.671875 C 20.640625 14.785156 20.777344 14.894531 20.925781 14.992188 C 21.019531 15.070312 21.027344 15.207031 20.945312 15.300781 C 20.863281 15.390625 20.722656 15.398438 20.632812 15.320312 C 20.519531 15.179688 20.398438 15.078125 20.273438 14.992188 L 19.835938 15.59375 C 20.03125 15.777344 20.246094 15.9375 20.476562 16.105469 C 20.574219 16.191406 20.578125 16.398438 20.492188 16.496094 C 20.402344 16.59375 20.21875 16.566406 20.117188 16.480469 C 19.941406 16.285156 19.765625 16.125 19.554688 15.976562 L 19.234375 16.417969 C 19.789062 16.835938 20.335938 17.28125 20.878906 17.734375 C 21.285156 17.296875 21.625 16.851562 21.882812 16.34375 C 22.171875 15.78125 22.363281 15.136719 22.4375 14.332031 Z M 22.4375 14.332031 "/>
<path style=" stroke:none;fill-rule:nonzero;fill:rgb(90.196078%,64.705882%,7.843137%);fill-opacity:1;" d="M 24.035156 16.0625 C 23.6875 15.574219 23.289062 15.121094 22.855469 14.707031 C 22.757812 15.421875 22.566406 16.015625 22.296875 16.542969 C 21.945312 17.234375 21.449219 17.804688 20.910156 18.355469 C 20.1875 17.742188 19.453125 17.140625 18.691406 16.574219 C 17.925781 16.011719 17.136719 15.488281 16.320312 15.003906 C 16.796875 14.402344 17.289062 13.820312 17.878906 13.320312 C 18.261719 13 18.675781 12.71875 19.136719 12.496094 C 18.542969 12.304688 17.921875 12.167969 17.28125 12.089844 C 16.824219 12.363281 16.429688 12.671875 16.074219 13.011719 C 15.6875 13.375 15.351562 13.777344 15.039062 14.207031 C 14.714844 14.652344 14.535156 15.050781 14.46875 15.433594 C 14.40625 15.8125 14.460938 16.183594 14.609375 16.574219 C 15.179688 18.082031 16.351562 19.335938 17.539062 20.425781 C 18.738281 19.9375 20.003906 19.65625 21.308594 19.636719 C 21.84375 19.191406 22.351562 18.691406 22.8125 18.109375 C 23.277344 17.523438 23.6875 16.851562 24.035156 16.0625 Z M 24.035156 16.0625 "/>
<path style=" stroke:none;fill-rule:nonzero;fill:rgb(90.196078%,64.705882%,7.843137%);fill-opacity:1;" d="M 25.785156 21.492188 C 25.785156 19.664062 25.253906 17.953125 24.335938 16.507812 C 24 17.21875 23.609375 17.835938 23.175781 18.382812 C 22.746094 18.925781 22.277344 19.398438 21.785156 19.824219 C 22.84375 21.105469 24.148438 22.171875 25.589844 23.015625 L 25.652344 23.050781 C 25.738281 22.542969 25.785156 22.023438 25.785156 21.492188 Z M 25.785156 21.492188 "/>
<path style=" stroke:none;fill-rule:nonzero;fill:rgb(7.843137%,23.529412%,54.509804%);fill-opacity:1;" d="M 20.847656 11.484375 L 20.207031 10.710938 L 21.1875 10.59375 L 21.625 11.316406 Z M 11.367188 11.484375 L 12.007812 10.710938 L 11.027344 10.59375 L 10.589844 11.316406 Z M 11.367188 11.484375 "/>
<path style=" stroke:none;fill-rule:nonzero;fill:rgb(100%,88.627451%,29.019608%);fill-opacity:1;" d="M 15.738281 6.457031 C 15.710938 6.566406 15.683594 6.566406 15.574219 6.59375 C 15.410156 6.636719 15.289062 6.78125 15.289062 6.957031 C 15.289062 7.214844 15.636719 7.410156 15.878906 7.332031 C 15.121094 8.160156 13.808594 8.183594 12.847656 7.6875 C 13.042969 7.628906 13.160156 7.429688 13.105469 7.234375 C 13.0625 7.066406 12.90625 6.953125 12.734375 6.957031 C 12.621094 6.957031 12.597656 6.960938 12.539062 6.859375 C 12.351562 6.527344 11.824219 6.664062 11.828125 7.046875 C 11.828125 7.160156 11.804688 7.167969 11.703125 7.222656 C 11.554688 7.300781 11.476562 7.472656 11.523438 7.640625 C 11.570312 7.824219 11.746094 7.9375 11.929688 7.917969 C 11.871094 8.003906 11.804688 8.085938 11.734375 8.160156 C 11.394531 8.574219 10.941406 8.839844 10.390625 8.855469 C 10.113281 8.882812 10.273438 8.789062 10.160156 8.648438 C 10.085938 8.5625 9.929688 8.574219 9.855469 8.652344 C 9.71875 8.796875 9.609375 8.828125 9.359375 8.769531 C 9.117188 8.714844 9.027344 9.078125 9.269531 9.132812 C 10.285156 9.375 11.332031 9.277344 12.019531 8.410156 C 12.167969 8.25 12.304688 8.066406 12.410156 7.859375 C 13.496094 8.519531 15.125 8.554688 16.105469 7.648438 C 17.089844 8.554688 18.71875 8.519531 19.804688 7.859375 C 19.910156 8.066406 20.046875 8.25 20.195312 8.410156 C 20.882812 9.277344 21.929688 9.375 22.945312 9.132812 C 23.1875 9.078125 23.097656 8.714844 22.855469 8.769531 C 22.605469 8.828125 22.496094 8.796875 22.359375 8.652344 C 22.285156 8.574219 22.128906 8.5625 22.054688 8.648438 C 21.941406 8.789062 22.101562 8.882812 21.824219 8.855469 C 21.273438 8.839844 20.820312 8.574219 20.480469 8.160156 C 20.410156 8.085938 20.34375 8.003906 20.285156 7.917969 C 20.46875 7.9375 20.644531 7.824219 20.691406 7.640625 C 20.738281 7.472656 20.660156 7.300781 20.511719 7.222656 C 20.410156 7.167969 20.386719 7.160156 20.386719 7.046875 C 20.390625 6.664062 19.863281 6.527344 19.675781 6.859375 C 19.617188 6.960938 19.59375 6.957031 19.480469 6.957031 C 19.308594 6.953125 19.152344 7.066406 19.109375 7.234375 C 19.054688 7.429688 19.171875 7.628906 19.367188 7.6875 C 18.40625 8.183594 17.09375 8.160156 16.335938 7.332031 C 16.578125 7.410156 16.925781 7.214844 16.925781 6.957031 C 16.925781 6.78125 16.804688 6.636719 16.640625 6.59375 C 16.53125 6.566406 16.503906 6.566406 16.476562 6.457031 C 16.378906 6.089844 15.835938 6.089844 15.738281 6.457031 Z M 15.738281 6.457031 "/>
<path style=" stroke:none;fill-rule:nonzero;fill:rgb(0%,0%,0%);fill-opacity:1;" d="M 16.097656 7.097656 C 16.210938 7.097656 16.300781 7.003906 16.300781 6.894531 C 16.300781 6.785156 16.210938 6.695312 16.097656 6.695312 C 15.984375 6.695312 15.890625 6.785156 15.890625 6.894531 C 15.890625 7.003906 15.984375 7.097656 16.097656 7.097656 Z M 16.097656 7.097656 "/>
<path style=" stroke:none;fill-rule:nonzero;fill:rgb(0%,0%,0%);fill-opacity:1;" d="M 12.503906 7.378906 C 12.503906 7.488281 12.410156 7.578125 12.296875 7.578125 C 12.183594 7.578125 12.09375 7.488281 12.09375 7.378906 C 12.09375 7.269531 12.183594 7.179688 12.296875 7.179688 C 12.410156 7.179688 12.503906 7.269531 12.503906 7.378906 Z M 12.503906 7.378906 "/>
<path style=" stroke:none;fill-rule:nonzero;fill:rgb(0%,0%,0%);fill-opacity:1;" d="M 20.121094 7.378906 C 20.121094 7.488281 20.03125 7.578125 19.917969 7.578125 C 19.804688 7.578125 19.710938 7.488281 19.710938 7.378906 C 19.710938 7.269531 19.804688 7.179688 19.917969 7.179688 C 20.03125 7.179688 20.121094 7.269531 20.121094 7.378906 Z M 20.121094 7.378906 "/>
</g>
</svg>
