<?xml version="1.0" encoding="UTF-8"?>
<svg xmlns="http://www.w3.org/2000/svg" xmlns:xlink="http://www.w3.org/1999/xlink" width="32px" height="32px" viewBox="0 0 32 36" version="1.1">
<g id="surface1">
<path style=" stroke:none;fill-rule:nonzero;fill:rgb(0%,0%,0%);fill-opacity:1;" d="M 5.792969 25.1875 C 0.753906 17.519531 0.128906 8.324219 0 0 L 32.101562 0 C 31.972656 8.324219 31.347656 17.519531 26.3125 25.1875 C 22.257812 31.351562 16.050781 35.972656 16.050781 35.972656 C 16.050781 35.972656 9.84375 31.351562 5.792969 25.1875 Z M 5.792969 25.1875 "/>
<path style=" stroke:none;fill-rule:nonzero;fill:rgb(100%,100%,100%);fill-opacity:1;" d="M 31.375 0.710938 C 31.222656 8.550781 30.5625 17.417969 25.710938 24.796875 C 22.386719 29.855469 17.511719 33.910156 16.050781 35.070312 C 14.589844 33.910156 9.71875 29.855469 6.390625 24.796875 C 1.542969 17.417969 0.878906 8.550781 0.730469 0.710938 C 2.089844 0.710938 30.011719 0.710938 31.375 0.710938 Z M 31.375 0.710938 "/>
<path style=" stroke:none;fill-rule:nonzero;fill:rgb(0%,0%,0%);fill-opacity:1;" d="M 27.203125 4.707031 C 26.867188 10.859375 25.832031 17.300781 22.335938 22.613281 C 20.441406 25.5 17.953125 28.046875 16.050781 29.792969 C 14.148438 28.046875 11.660156 25.5 9.765625 22.613281 C 6.273438 17.300781 5.234375 10.859375 4.898438 4.707031 C 10.664062 4.707031 21.4375 4.707031 27.203125 4.707031 Z M 27.203125 4.707031 "/>
<path style=" stroke:none;fill-rule:nonzero;fill:rgb(100%,100%,100%);fill-opacity:1;" d="M 7.402344 15.828125 C 7.339844 15.625 7.277344 15.417969 7.214844 15.207031 C 7.234375 15.183594 7.246094 15.171875 7.269531 15.171875 C 7.296875 15.171875 7.3125 15.195312 7.34375 15.246094 C 7.378906 15.300781 7.425781 15.382812 7.535156 15.382812 C 7.644531 15.382812 7.691406 15.300781 7.726562 15.246094 C 7.757812 15.195312 7.773438 15.171875 7.804688 15.171875 C 7.832031 15.171875 7.847656 15.195312 7.878906 15.246094 C 7.914062 15.300781 7.964844 15.382812 8.070312 15.382812 L 8.070312 15.269531 C 8.03125 15.269531 8.011719 15.246094 7.972656 15.1875 C 7.941406 15.136719 7.898438 15.0625 7.804688 15.0625 C 7.710938 15.0625 7.664062 15.136719 7.632812 15.1875 C 7.597656 15.246094 7.578125 15.269531 7.535156 15.269531 C 7.492188 15.269531 7.476562 15.246094 7.4375 15.1875 C 7.40625 15.136719 7.363281 15.0625 7.269531 15.0625 C 7.234375 15.0625 7.207031 15.074219 7.183594 15.085938 L 7.183594 15.089844 C 7.113281 14.851562 7.050781 14.609375 6.984375 14.367188 L 6.984375 14.363281 L 11.640625 14.363281 C 11.640625 14.363281 11.652344 13.640625 11.84375 13.148438 C 11.996094 12.757812 12.296875 12.273438 12.640625 12.273438 C 12.980469 12.273438 13.285156 12.757812 13.4375 13.148438 C 13.574219 13.5 13.621094 13.96875 13.636719 14.210938 L 13.636719 14.214844 L 12.761719 14.855469 L 12.761719 14.753906 C 12.71875 14.753906 12.703125 14.730469 12.664062 14.671875 C 12.632812 14.621094 12.589844 14.546875 12.496094 14.546875 C 12.398438 14.546875 12.355469 14.621094 12.324219 14.671875 C 12.289062 14.730469 12.269531 14.753906 12.226562 14.753906 C 12.183594 14.753906 12.164062 14.730469 12.128906 14.671875 C 12.097656 14.621094 12.054688 14.546875 11.957031 14.546875 C 11.863281 14.546875 11.820312 14.621094 11.789062 14.671875 C 11.753906 14.730469 11.734375 14.753906 11.691406 14.753906 C 11.648438 14.753906 11.628906 14.730469 11.59375 14.671875 C 11.5625 14.621094 11.519531 14.546875 11.421875 14.546875 C 11.328125 14.546875 11.285156 14.621094 11.253906 14.671875 C 11.214844 14.730469 11.199219 14.753906 11.15625 14.753906 L 11.15625 14.863281 C 11.265625 14.863281 11.3125 14.785156 11.347656 14.730469 C 11.378906 14.675781 11.394531 14.65625 11.421875 14.65625 C 11.453125 14.65625 11.46875 14.675781 11.5 14.730469 C 11.535156 14.785156 11.582031 14.863281 11.691406 14.863281 C 11.800781 14.863281 11.847656 14.785156 11.882812 14.730469 C 11.914062 14.675781 11.929688 14.65625 11.957031 14.65625 C 11.988281 14.65625 12.003906 14.675781 12.035156 14.730469 C 12.070312 14.785156 12.117188 14.863281 12.226562 14.863281 C 12.335938 14.863281 12.382812 14.785156 12.417969 14.730469 C 12.449219 14.675781 12.464844 14.65625 12.496094 14.65625 C 12.523438 14.65625 12.539062 14.675781 12.570312 14.730469 C 12.605469 14.785156 12.648438 14.855469 12.746094 14.863281 L 12.75 14.863281 L 11.597656 15.707031 L 11.59375 15.707031 C 11.59375 15.707031 11.59375 15.707031 11.59375 15.703125 C 11.5625 15.652344 11.519531 15.578125 11.421875 15.578125 C 11.328125 15.578125 11.285156 15.652344 11.253906 15.703125 C 11.214844 15.761719 11.199219 15.789062 11.15625 15.789062 L 11.15625 15.898438 C 11.265625 15.898438 11.3125 15.820312 11.347656 15.761719 C 11.378906 15.710938 11.394531 15.6875 11.421875 15.6875 C 11.453125 15.6875 11.46875 15.710938 11.5 15.761719 C 11.5 15.765625 11.503906 15.769531 11.507812 15.773438 L 11.0625 16.101562 L 11.058594 16.101562 C 11.046875 16.097656 11.035156 16.09375 11.019531 16.09375 C 10.925781 16.09375 10.882812 16.167969 10.851562 16.21875 C 10.8125 16.28125 10.796875 16.304688 10.753906 16.304688 C 10.710938 16.304688 10.691406 16.28125 10.65625 16.21875 C 10.625 16.167969 10.578125 16.09375 10.484375 16.09375 C 10.390625 16.09375 10.347656 16.167969 10.3125 16.21875 C 10.277344 16.28125 10.257812 16.304688 10.21875 16.304688 L 10.21875 16.414062 C 10.324219 16.414062 10.375 16.335938 10.410156 16.277344 C 10.441406 16.226562 10.457031 16.203125 10.484375 16.203125 C 10.515625 16.203125 10.53125 16.226562 10.5625 16.277344 C 10.585938 16.316406 10.613281 16.363281 10.660156 16.390625 L 10.664062 16.390625 L 10.234375 16.707031 C 10.203125 16.660156 10.160156 16.613281 10.082031 16.613281 C 9.988281 16.613281 9.945312 16.683594 9.910156 16.738281 C 9.875 16.796875 9.855469 16.820312 9.816406 16.820312 C 9.773438 16.820312 9.753906 16.796875 9.71875 16.738281 C 9.683594 16.683594 9.640625 16.613281 9.546875 16.613281 C 9.453125 16.613281 9.410156 16.683594 9.375 16.738281 C 9.339844 16.796875 9.320312 16.820312 9.277344 16.820312 L 9.277344 16.929688 C 9.386719 16.929688 9.433594 16.851562 9.46875 16.792969 C 9.5 16.742188 9.519531 16.722656 9.546875 16.722656 C 9.578125 16.722656 9.59375 16.742188 9.625 16.792969 C 9.660156 16.851562 9.707031 16.929688 9.816406 16.929688 C 9.921875 16.929688 9.972656 16.851562 10.007812 16.792969 C 10.039062 16.742188 10.054688 16.722656 10.082031 16.722656 C 10.105469 16.722656 10.121094 16.734375 10.144531 16.769531 L 10.144531 16.773438 L 9.660156 17.128906 L 9.65625 17.128906 C 9.59375 17.136719 9.554688 17.183594 9.527344 17.226562 L 9.523438 17.226562 L 9.382812 17.332031 L 9.382812 17.328125 C 9.359375 17.320312 9.339844 17.296875 9.316406 17.253906 C 9.28125 17.199219 9.238281 17.128906 9.144531 17.128906 C 9.050781 17.128906 9.003906 17.199219 8.972656 17.253906 C 8.9375 17.3125 8.917969 17.335938 8.875 17.335938 C 8.835938 17.335938 8.816406 17.3125 8.78125 17.253906 C 8.746094 17.199219 8.703125 17.128906 8.609375 17.128906 C 8.515625 17.128906 8.46875 17.199219 8.4375 17.253906 C 8.402344 17.3125 8.382812 17.335938 8.339844 17.335938 L 8.339844 17.445312 C 8.449219 17.445312 8.496094 17.367188 8.53125 17.308594 C 8.5625 17.257812 8.578125 17.238281 8.609375 17.238281 C 8.636719 17.238281 8.652344 17.257812 8.683594 17.308594 C 8.71875 17.367188 8.769531 17.445312 8.875 17.445312 C 8.984375 17.445312 9.03125 17.367188 9.066406 17.308594 C 9.097656 17.257812 9.113281 17.238281 9.144531 17.238281 C 9.171875 17.238281 9.1875 17.257812 9.222656 17.308594 C 9.238281 17.335938 9.257812 17.371094 9.289062 17.398438 L 8.871094 17.707031 L 8.867188 17.707031 C 8.839844 17.671875 8.800781 17.644531 8.742188 17.644531 C 8.648438 17.644531 8.601562 17.714844 8.570312 17.769531 C 8.535156 17.828125 8.515625 17.851562 8.472656 17.851562 C 8.433594 17.851562 8.414062 17.828125 8.378906 17.769531 C 8.34375 17.714844 8.300781 17.644531 8.207031 17.644531 C 8.140625 17.644531 8.097656 17.679688 8.070312 17.71875 C 8.066406 17.71875 8.0625 17.726562 8.0625 17.726562 L 8.0625 17.722656 C 8.019531 17.609375 7.972656 17.496094 7.929688 17.382812 L 7.933594 17.386719 C 7.96875 17.417969 8.007812 17.445312 8.070312 17.445312 L 8.070312 17.335938 C 8.027344 17.335938 8.011719 17.3125 7.972656 17.253906 C 7.945312 17.207031 7.910156 17.148438 7.84375 17.132812 L 7.839844 17.132812 C 7.789062 16.996094 7.742188 16.863281 7.695312 16.730469 L 7.699219 16.730469 C 7.714844 16.742188 7.726562 16.761719 7.746094 16.792969 C 7.78125 16.851562 7.832031 16.929688 7.9375 16.929688 C 8.046875 16.929688 8.09375 16.851562 8.128906 16.792969 C 8.160156 16.742188 8.175781 16.722656 8.207031 16.722656 C 8.234375 16.722656 8.25 16.742188 8.28125 16.792969 C 8.316406 16.851562 8.367188 16.929688 8.472656 16.929688 C 8.582031 16.929688 8.628906 16.851562 8.664062 16.792969 C 8.695312 16.742188 8.710938 16.722656 8.742188 16.722656 C 8.769531 16.722656 8.785156 16.742188 8.816406 16.792969 C 8.851562 16.851562 8.902344 16.929688 9.007812 16.929688 L 9.007812 16.820312 C 8.96875 16.820312 8.949219 16.796875 8.914062 16.738281 C 8.878906 16.683594 8.835938 16.609375 8.742188 16.609375 C 8.648438 16.609375 8.601562 16.683594 8.570312 16.738281 C 8.535156 16.796875 8.515625 16.820312 8.472656 16.820312 C 8.433594 16.820312 8.414062 16.796875 8.378906 16.738281 C 8.34375 16.683594 8.300781 16.609375 8.207031 16.609375 C 8.113281 16.609375 8.066406 16.683594 8.035156 16.738281 C 8 16.796875 7.980469 16.820312 7.9375 16.820312 C 7.894531 16.820312 7.878906 16.796875 7.839844 16.738281 C 7.808594 16.683594 7.765625 16.609375 7.671875 16.609375 C 7.667969 16.609375 7.664062 16.613281 7.660156 16.613281 L 7.65625 16.613281 C 7.632812 16.542969 7.609375 16.476562 7.585938 16.40625 L 7.589844 16.40625 C 7.660156 16.382812 7.699219 16.324219 7.726562 16.277344 C 7.757812 16.226562 7.773438 16.203125 7.804688 16.203125 C 7.832031 16.203125 7.847656 16.226562 7.878906 16.277344 C 7.914062 16.335938 7.964844 16.414062 8.070312 16.414062 L 8.070312 16.304688 C 8.027344 16.304688 8.011719 16.277344 7.972656 16.21875 C 7.941406 16.167969 7.898438 16.09375 7.804688 16.09375 C 7.710938 16.09375 7.664062 16.167969 7.632812 16.21875 C 7.601562 16.269531 7.585938 16.292969 7.554688 16.300781 L 7.550781 16.300781 C 7.507812 16.167969 7.464844 16.035156 7.421875 15.898438 L 7.421875 15.894531 C 7.515625 15.886719 7.5625 15.816406 7.59375 15.761719 C 7.625 15.710938 7.640625 15.6875 7.671875 15.6875 C 7.699219 15.6875 7.714844 15.710938 7.746094 15.761719 C 7.78125 15.816406 7.832031 15.898438 7.9375 15.898438 C 8.046875 15.898438 8.09375 15.816406 8.128906 15.761719 C 8.160156 15.710938 8.175781 15.6875 8.207031 15.6875 C 8.234375 15.6875 8.25 15.710938 8.28125 15.761719 C 8.316406 15.816406 8.367188 15.898438 8.472656 15.898438 C 8.582031 15.898438 8.628906 15.816406 8.664062 15.761719 C 8.695312 15.710938 8.710938 15.6875 8.742188 15.6875 C 8.769531 15.6875 8.785156 15.710938 8.820312 15.761719 C 8.851562 15.816406 8.902344 15.898438 9.007812 15.898438 L 9.007812 15.789062 C 8.96875 15.789062 8.949219 15.761719 8.914062 15.703125 C 8.878906 15.652344 8.835938 15.578125 8.742188 15.578125 C 8.648438 15.578125 8.601562 15.652344 8.570312 15.703125 C 8.535156 15.761719 8.515625 15.789062 8.472656 15.789062 C 8.433594 15.789062 8.414062 15.761719 8.378906 15.703125 C 8.34375 15.652344 8.300781 15.578125 8.207031 15.578125 C 8.113281 15.578125 8.066406 15.652344 8.035156 15.703125 C 8 15.761719 7.980469 15.789062 7.9375 15.789062 C 7.898438 15.789062 7.878906 15.761719 7.839844 15.703125 C 7.808594 15.652344 7.765625 15.578125 7.671875 15.578125 C 7.578125 15.578125 7.53125 15.652344 7.5 15.703125 C 7.464844 15.761719 7.445312 15.789062 7.402344 15.789062 L 7.402344 15.832031 Z M 7.402344 15.828125 "/>
<path style=" stroke:none;fill-rule:nonzero;fill:rgb(100%,100%,100%);fill-opacity:1;" d="M 17.441406 11.421875 L 16.578125 11.214844 L 16.570312 11.210938 L 16.570312 10.15625 L 16.574219 10.15625 C 16.644531 10.148438 16.710938 10.144531 16.773438 10.132812 C 16.824219 10.125 16.792969 10.226562 16.835938 10.273438 C 16.878906 10.316406 16.910156 10.355469 16.886719 10.390625 C 16.839844 10.457031 16.796875 10.476562 16.742188 10.476562 C 16.6875 10.476562 16.652344 10.519531 16.652344 10.539062 C 16.652344 10.5625 16.679688 10.554688 16.765625 10.554688 C 16.851562 10.554688 16.925781 10.546875 16.972656 10.472656 C 17.011719 10.40625 17.050781 10.363281 17.050781 10.320312 C 17.050781 10.316406 17.058594 10.308594 17.074219 10.316406 C 17.09375 10.332031 17.132812 10.351562 17.175781 10.359375 C 17.242188 10.375 17.273438 10.410156 17.273438 10.472656 C 17.273438 10.535156 17.277344 10.554688 17.226562 10.554688 C 17.179688 10.554688 17.160156 10.570312 17.160156 10.59375 C 17.160156 10.617188 17.210938 10.628906 17.273438 10.625 C 17.335938 10.621094 17.398438 10.601562 17.402344 10.523438 C 17.40625 10.445312 17.417969 10.339844 17.363281 10.308594 C 17.304688 10.277344 17.257812 10.25 17.273438 10.152344 C 17.289062 10.054688 17.289062 9.992188 17.289062 9.992188 C 17.289062 9.992188 17.351562 10.066406 17.433594 10.15625 C 17.515625 10.246094 17.585938 10.34375 17.734375 10.371094 C 17.882812 10.398438 17.964844 10.34375 18 10.308594 C 18.035156 10.269531 18.011719 10.210938 17.929688 10.21875 C 17.84375 10.226562 17.699219 10.238281 17.609375 10.140625 C 17.523438 10.042969 17.441406 9.914062 17.25 9.847656 C 17.0625 9.78125 16.917969 9.773438 16.753906 9.777344 C 16.6875 9.78125 16.628906 9.78125 16.574219 9.785156 L 16.570312 9.785156 L 16.570312 8.601562 L 16.574219 8.601562 C 16.644531 8.597656 16.710938 8.59375 16.773438 8.582031 C 16.824219 8.574219 16.792969 8.675781 16.835938 8.71875 C 16.878906 8.765625 16.910156 8.804688 16.886719 8.839844 C 16.839844 8.90625 16.796875 8.925781 16.742188 8.925781 C 16.6875 8.925781 16.652344 8.964844 16.652344 8.988281 C 16.652344 9.011719 16.679688 9 16.765625 9 C 16.851562 9 16.925781 8.996094 16.972656 8.917969 C 17.011719 8.855469 17.050781 8.8125 17.050781 8.769531 C 17.050781 8.761719 17.058594 8.757812 17.074219 8.765625 C 17.09375 8.777344 17.132812 8.796875 17.175781 8.808594 C 17.242188 8.824219 17.273438 8.859375 17.273438 8.921875 C 17.273438 8.984375 17.277344 9.003906 17.226562 9.003906 C 17.179688 9.003906 17.160156 9.019531 17.160156 9.042969 C 17.160156 9.0625 17.210938 9.074219 17.273438 9.074219 C 17.335938 9.070312 17.398438 9.046875 17.402344 8.96875 C 17.402344 8.890625 17.417969 8.789062 17.363281 8.757812 C 17.304688 8.726562 17.257812 8.699219 17.273438 8.601562 C 17.289062 8.503906 17.289062 8.441406 17.289062 8.441406 C 17.289062 8.441406 17.351562 8.515625 17.433594 8.605469 C 17.515625 8.695312 17.585938 8.792969 17.734375 8.820312 C 17.882812 8.847656 17.964844 8.792969 18 8.757812 C 18.035156 8.71875 18.011719 8.660156 17.929688 8.667969 C 17.84375 8.671875 17.699219 8.6875 17.609375 8.589844 C 17.523438 8.492188 17.441406 8.359375 17.25 8.296875 C 17.0625 8.230469 16.917969 8.222656 16.753906 8.226562 C 16.6875 8.226562 16.628906 8.230469 16.574219 8.234375 L 16.570312 8.234375 L 16.570312 7.785156 L 16.574219 7.785156 C 16.960938 7.691406 17.265625 7.390625 17.359375 7.007812 L 17.359375 7.003906 L 17.765625 7.003906 C 17.785156 7.003906 17.804688 6.984375 17.804688 6.964844 L 17.804688 6.554688 C 17.804688 6.53125 17.785156 6.511719 17.765625 6.511719 L 17.359375 6.511719 L 17.359375 6.507812 C 17.265625 6.125 16.960938 5.824219 16.574219 5.730469 L 16.570312 5.730469 L 16.570312 5.554688 C 16.570312 5.53125 16.554688 5.511719 16.53125 5.511719 L 16.117188 5.511719 C 16.09375 5.511719 16.074219 5.53125 16.074219 5.554688 L 16.074219 5.730469 C 15.6875 5.824219 15.382812 6.125 15.289062 6.507812 L 15.289062 6.511719 L 14.882812 6.511719 C 14.859375 6.511719 14.839844 6.53125 14.839844 6.554688 L 14.839844 6.964844 C 14.839844 6.984375 14.859375 7.003906 14.882812 7.003906 L 15.289062 7.003906 L 15.289062 7.007812 C 15.382812 7.390625 15.6875 7.691406 16.074219 7.785156 L 16.074219 8.269531 C 15.910156 8.277344 15.734375 8.277344 15.671875 8.246094 C 15.585938 8.203125 15.550781 8.144531 15.535156 8.074219 C 15.523438 8.027344 15.515625 7.984375 15.511719 7.964844 C 15.511719 7.953125 15.503906 7.953125 15.496094 7.957031 C 15.484375 7.96875 15.460938 7.988281 15.445312 8 C 15.445312 8 15.445312 7.988281 15.445312 7.96875 C 15.445312 7.964844 15.4375 7.957031 15.429688 7.964844 C 15.414062 7.972656 15.390625 7.988281 15.367188 8.011719 C 15.335938 8.042969 15.355469 8.070312 15.300781 8.082031 C 15.25 8.09375 15.214844 8.136719 15.164062 8.140625 C 15.109375 8.144531 15.070312 8.160156 15.078125 8.183594 C 15.082031 8.210938 15.105469 8.289062 15.179688 8.296875 C 15.25 8.300781 15.300781 8.308594 15.335938 8.324219 C 15.367188 8.339844 15.402344 8.375 15.445312 8.441406 C 15.488281 8.507812 15.515625 8.554688 15.5 8.574219 C 15.480469 8.59375 15.4375 8.617188 15.394531 8.621094 C 15.347656 8.628906 15.25 8.664062 15.203125 8.695312 C 15.160156 8.730469 15.117188 8.746094 15.160156 8.773438 C 15.179688 8.785156 15.226562 8.789062 15.265625 8.765625 C 15.304688 8.742188 15.414062 8.691406 15.519531 8.695312 C 15.628906 8.695312 15.671875 8.691406 15.726562 8.738281 C 15.761719 8.761719 15.832031 8.828125 15.839844 8.878906 C 15.847656 8.960938 15.832031 9.050781 15.796875 9.054688 C 15.757812 9.0625 15.710938 9.066406 15.710938 9.101562 C 15.714844 9.140625 15.734375 9.128906 15.804688 9.121094 C 15.875 9.113281 15.917969 9.066406 15.929688 9.007812 C 15.945312 8.949219 15.941406 8.902344 15.957031 8.824219 C 15.960938 8.785156 15.96875 8.765625 15.976562 8.753906 C 16 8.699219 16.007812 8.660156 16.074219 8.636719 L 16.074219 9.820312 C 15.910156 9.828125 15.734375 9.828125 15.671875 9.796875 C 15.585938 9.753906 15.550781 9.699219 15.535156 9.628906 C 15.527344 9.578125 15.515625 9.535156 15.511719 9.515625 C 15.511719 9.507812 15.503906 9.503906 15.496094 9.511719 C 15.484375 9.519531 15.460938 9.539062 15.445312 9.554688 C 15.445312 9.554688 15.445312 9.539062 15.445312 9.523438 C 15.445312 9.519531 15.4375 9.511719 15.429688 9.515625 C 15.414062 9.523438 15.390625 9.539062 15.367188 9.5625 C 15.335938 9.59375 15.355469 9.621094 15.304688 9.632812 C 15.25 9.648438 15.214844 9.6875 15.164062 9.695312 C 15.109375 9.699219 15.070312 9.710938 15.078125 9.738281 C 15.082031 9.761719 15.105469 9.839844 15.179688 9.847656 C 15.25 9.855469 15.300781 9.859375 15.335938 9.875 C 15.367188 9.890625 15.402344 9.925781 15.445312 9.992188 C 15.488281 10.058594 15.519531 10.109375 15.5 10.128906 C 15.480469 10.148438 15.4375 10.167969 15.394531 10.175781 C 15.347656 10.179688 15.25 10.214844 15.203125 10.25 C 15.160156 10.28125 15.117188 10.300781 15.160156 10.324219 C 15.179688 10.335938 15.226562 10.339844 15.265625 10.316406 C 15.304688 10.292969 15.414062 10.242188 15.519531 10.246094 C 15.628906 10.246094 15.671875 10.246094 15.726562 10.289062 C 15.761719 10.316406 15.832031 10.378906 15.839844 10.433594 C 15.847656 10.515625 15.832031 10.601562 15.796875 10.609375 C 15.757812 10.613281 15.710938 10.617188 15.710938 10.652344 C 15.714844 10.691406 15.734375 10.679688 15.804688 10.671875 C 15.875 10.664062 15.917969 10.621094 15.929688 10.558594 C 15.945312 10.5 15.945312 10.453125 15.957031 10.375 C 15.960938 10.339844 15.96875 10.316406 15.976562 10.304688 C 16 10.25 16.011719 10.210938 16.074219 10.1875 L 16.074219 11.09375 L 16.070312 11.09375 L 13.371094 10.449219 C 13.347656 10.445312 13.3125 10.449219 13.296875 10.464844 L 11.675781 11.53125 C 11.65625 11.542969 11.640625 11.535156 11.640625 11.511719 L 11.640625 8.660156 C 11.640625 8.636719 11.621094 8.621094 11.597656 8.621094 L 9.75 8.621094 C 9.726562 8.621094 9.707031 8.636719 9.707031 8.660156 L 9.707031 10.726562 C 9.707031 10.75 9.6875 10.769531 9.664062 10.769531 L 6.238281 10.769531 L 6.234375 10.765625 C 5.972656 9.136719 5.785156 7.378906 5.660156 5.421875 C 6.898438 5.421875 21.792969 5.421875 25.628906 5.421875 L 25.625 5.425781 L 17.445312 11.421875 Z M 17.441406 11.421875 "/>
<path style=" stroke:none;fill-rule:nonzero;fill:rgb(0%,0%,0%);fill-opacity:1;" d="M 2.660156 12.5 C 2.644531 12.515625 2.613281 12.53125 2.589844 12.53125 L 1.992188 12.53125 C 1.96875 12.53125 1.964844 12.515625 1.976562 12.5 L 3.140625 11.019531 C 3.15625 11 3.15625 10.96875 3.140625 10.953125 L 1.976562 9.472656 C 1.964844 9.453125 1.96875 9.4375 1.992188 9.4375 L 2.589844 9.4375 C 2.613281 9.4375 2.644531 9.453125 2.660156 9.472656 L 3.484375 10.519531 C 3.496094 10.535156 3.519531 10.535156 3.535156 10.519531 L 4.359375 9.472656 C 4.375 9.453125 4.402344 9.4375 4.425781 9.4375 L 5.027344 9.4375 C 5.046875 9.4375 5.054688 9.453125 5.042969 9.472656 L 3.875 10.953125 C 3.863281 10.96875 3.863281 11 3.875 11.019531 L 5.042969 12.5 C 5.054688 12.515625 5.046875 12.53125 5.027344 12.53125 L 4.425781 12.53125 C 4.402344 12.53125 4.375 12.515625 4.359375 12.5 L 3.535156 11.453125 C 3.519531 11.433594 3.496094 11.433594 3.484375 11.453125 Z M 2.660156 12.5 "/>
<path style=" stroke:none;fill-rule:nonzero;fill:rgb(0%,0%,0%);fill-opacity:1;" d="M 29.441406 12.5 C 29.457031 12.515625 29.488281 12.53125 29.511719 12.53125 L 30.109375 12.53125 C 30.132812 12.53125 30.140625 12.515625 30.125 12.5 L 28.960938 11.019531 C 28.945312 11 28.945312 10.96875 28.960938 10.953125 L 30.125 9.472656 C 30.140625 9.453125 30.132812 9.4375 30.109375 9.4375 L 29.511719 9.4375 C 29.488281 9.4375 29.457031 9.453125 29.441406 9.472656 L 28.617188 10.519531 C 28.605469 10.535156 28.582031 10.535156 28.566406 10.519531 L 27.742188 9.472656 C 27.730469 9.453125 27.699219 9.4375 27.675781 9.4375 L 27.078125 9.4375 C 27.054688 9.4375 27.046875 9.453125 27.0625 9.472656 L 28.226562 10.953125 C 28.238281 10.96875 28.238281 11 28.226562 11.019531 L 27.0625 12.5 C 27.046875 12.515625 27.054688 12.53125 27.078125 12.53125 L 27.675781 12.53125 C 27.699219 12.53125 27.730469 12.515625 27.742188 12.5 L 28.566406 11.453125 C 28.582031 11.433594 28.605469 11.433594 28.617188 11.453125 Z M 29.441406 12.5 "/>
<path style=" stroke:none;fill-rule:nonzero;fill:rgb(0%,0%,0%);fill-opacity:1;" d="M 8.085938 10.046875 C 7.6875 10.046875 7.347656 10.242188 7.199219 10.519531 L 8.96875 10.519531 C 8.824219 10.242188 8.484375 10.046875 8.085938 10.046875 Z M 8.085938 10.046875 "/>
<path style=" stroke:none;fill-rule:nonzero;fill:rgb(100%,100%,100%);fill-opacity:1;" d="M 15.523438 12.832031 L 13.898438 14.023438 L 13.898438 14.019531 C 13.921875 13.765625 13.972656 13.421875 14.082031 13.148438 C 14.234375 12.757812 14.535156 12.273438 14.875 12.273438 C 15.128906 12.273438 15.355469 12.535156 15.519531 12.828125 Z M 15.523438 12.832031 "/>
<path style=" stroke:none;fill-rule:nonzero;fill:rgb(100%,100%,100%);fill-opacity:1;" d="M 8.53125 18.839844 L 26.417969 5.726562 L 26.421875 5.722656 C 26.210938 8.828125 25.835938 11.417969 25.257812 13.808594 C 24.464844 17.074219 23.3125 19.824219 21.738281 22.226562 C 20.011719 24.847656 17.777344 27.191406 16.050781 28.816406 C 14.328125 27.191406 12.089844 24.847656 10.367188 22.226562 C 9.671875 21.171875 9.0625 20.046875 8.527344 18.84375 Z M 8.53125 18.839844 "/>
<path style=" stroke:none;fill-rule:nonzero;fill:rgb(93.333333%,14.509804%,13.72549%);fill-opacity:1;" d="M 14.738281 27.53125 C 15.195312 27.996094 15.636719 28.425781 16.050781 28.816406 C 16.421875 28.464844 16.820312 28.082031 17.226562 27.667969 L 17.230469 27.667969 L 17.230469 12.464844 L 17.226562 12.464844 L 14.738281 14.292969 L 14.734375 14.292969 L 14.734375 27.527344 Z M 14.738281 27.53125 "/>
<path style=" stroke:none;fill-rule:nonzero;fill:rgb(93.333333%,14.509804%,13.72549%);fill-opacity:1;" d="M 19.5 25.195312 L 19.5 10.800781 L 21.992188 8.972656 L 21.992188 21.828125 C 21.90625 21.960938 21.824219 22.09375 21.738281 22.226562 C 21.050781 23.269531 20.285156 24.269531 19.5 25.195312 Z M 19.5 25.195312 "/>
<path style=" stroke:none;fill-rule:nonzero;fill:rgb(93.333333%,14.509804%,13.72549%);fill-opacity:1;" d="M 9.972656 21.609375 C 10.101562 21.816406 10.230469 22.023438 10.363281 22.226562 C 11.011719 23.207031 11.726562 24.148438 12.464844 25.03125 L 12.464844 25.035156 L 12.464844 15.957031 L 9.972656 17.78125 Z M 9.972656 21.609375 "/>
<path style=" stroke:none;fill-rule:nonzero;fill:rgb(93.333333%,14.509804%,13.72549%);fill-opacity:1;" d="M 24.261719 17.132812 L 24.261719 7.308594 L 24.265625 7.308594 L 26.417969 5.726562 L 26.421875 5.722656 C 26.210938 8.828125 25.835938 11.417969 25.257812 13.808594 C 24.972656 14.980469 24.644531 16.085938 24.261719 17.132812 Z M 24.261719 17.132812 "/>
<path style=" stroke:none;fill-rule:nonzero;fill:rgb(0%,0%,0%);fill-opacity:1;" d="M 10.71875 6.460938 L 11.621094 8.253906 C 11.628906 8.273438 11.621094 8.289062 11.597656 8.289062 L 9.75 8.289062 C 9.726562 8.289062 9.714844 8.273438 9.726562 8.253906 L 10.628906 6.460938 L 10.632812 6.457031 L 10.632812 6.105469 L 10.628906 6.101562 C 10.574219 6.046875 10.535156 5.894531 10.535156 5.832031 C 10.535156 5.753906 10.597656 5.691406 10.671875 5.691406 C 10.75 5.691406 10.8125 5.753906 10.8125 5.832031 C 10.8125 5.894531 10.773438 6.046875 10.714844 6.105469 L 10.714844 6.457031 Z M 10.71875 6.460938 "/>
<path style=" stroke:none;fill-rule:nonzero;fill:rgb(0%,0%,0%);fill-opacity:1;" d="M 10.445312 14.671875 C 10.410156 14.730469 10.390625 14.753906 10.351562 14.753906 C 10.308594 14.753906 10.289062 14.730469 10.253906 14.671875 C 10.222656 14.621094 10.175781 14.546875 10.082031 14.546875 C 9.988281 14.546875 9.945312 14.621094 9.910156 14.671875 C 9.875 14.730469 9.855469 14.753906 9.816406 14.753906 C 9.773438 14.753906 9.753906 14.730469 9.71875 14.671875 C 9.683594 14.621094 9.640625 14.546875 9.546875 14.546875 C 9.453125 14.546875 9.410156 14.621094 9.375 14.671875 C 9.339844 14.730469 9.320312 14.753906 9.277344 14.753906 L 9.277344 14.863281 C 9.386719 14.863281 9.433594 14.785156 9.46875 14.730469 C 9.5 14.675781 9.519531 14.65625 9.546875 14.65625 C 9.578125 14.65625 9.59375 14.675781 9.625 14.730469 C 9.660156 14.785156 9.707031 14.863281 9.816406 14.863281 C 9.921875 14.863281 9.972656 14.785156 10.007812 14.730469 C 10.039062 14.675781 10.054688 14.65625 10.082031 14.65625 C 10.113281 14.65625 10.128906 14.675781 10.160156 14.730469 C 10.195312 14.785156 10.242188 14.863281 10.351562 14.863281 C 10.457031 14.863281 10.507812 14.785156 10.542969 14.730469 C 10.574219 14.675781 10.589844 14.65625 10.617188 14.65625 C 10.648438 14.65625 10.664062 14.675781 10.695312 14.730469 C 10.730469 14.785156 10.777344 14.863281 10.886719 14.863281 L 10.886719 14.753906 C 10.84375 14.753906 10.824219 14.730469 10.789062 14.671875 C 10.757812 14.621094 10.710938 14.546875 10.617188 14.546875 C 10.523438 14.546875 10.480469 14.621094 10.445312 14.671875 Z M 10.445312 14.671875 "/>
<path style=" stroke:none;fill-rule:nonzero;fill:rgb(0%,0%,0%);fill-opacity:1;" d="M 8.570312 14.671875 C 8.535156 14.730469 8.515625 14.753906 8.472656 14.753906 C 8.433594 14.753906 8.414062 14.730469 8.378906 14.671875 C 8.34375 14.621094 8.300781 14.546875 8.207031 14.546875 C 8.113281 14.546875 8.066406 14.621094 8.035156 14.671875 C 8 14.730469 7.980469 14.753906 7.9375 14.753906 C 7.898438 14.753906 7.878906 14.730469 7.839844 14.671875 C 7.808594 14.621094 7.765625 14.546875 7.671875 14.546875 C 7.578125 14.546875 7.53125 14.621094 7.5 14.671875 C 7.464844 14.730469 7.445312 14.753906 7.402344 14.753906 L 7.402344 14.863281 C 7.511719 14.863281 7.558594 14.785156 7.59375 14.730469 C 7.625 14.675781 7.640625 14.65625 7.671875 14.65625 C 7.699219 14.65625 7.714844 14.675781 7.746094 14.730469 C 7.78125 14.785156 7.832031 14.863281 7.9375 14.863281 C 8.046875 14.863281 8.09375 14.785156 8.128906 14.730469 C 8.160156 14.675781 8.175781 14.65625 8.207031 14.65625 C 8.234375 14.65625 8.25 14.675781 8.28125 14.730469 C 8.316406 14.785156 8.367188 14.863281 8.472656 14.863281 C 8.582031 14.863281 8.628906 14.785156 8.664062 14.730469 C 8.695312 14.675781 8.710938 14.65625 8.742188 14.65625 C 8.769531 14.65625 8.785156 14.675781 8.820312 14.730469 C 8.851562 14.785156 8.902344 14.863281 9.007812 14.863281 L 9.007812 14.753906 C 8.96875 14.753906 8.949219 14.730469 8.914062 14.671875 C 8.878906 14.621094 8.835938 14.546875 8.742188 14.546875 C 8.648438 14.546875 8.601562 14.621094 8.570312 14.671875 Z M 8.570312 14.671875 "/>
<path style=" stroke:none;fill-rule:nonzero;fill:rgb(0%,0%,0%);fill-opacity:1;" d="M 12.949219 14.15625 C 12.914062 14.214844 12.894531 14.238281 12.851562 14.238281 C 12.808594 14.238281 12.792969 14.214844 12.753906 14.15625 C 12.722656 14.101562 12.679688 14.03125 12.585938 14.03125 C 12.488281 14.03125 12.445312 14.101562 12.414062 14.15625 C 12.378906 14.214844 12.359375 14.238281 12.316406 14.238281 C 12.273438 14.238281 12.253906 14.214844 12.21875 14.15625 C 12.1875 14.101562 12.144531 14.03125 12.046875 14.03125 C 11.953125 14.03125 11.910156 14.101562 11.878906 14.15625 C 11.839844 14.214844 11.824219 14.238281 11.78125 14.238281 L 11.78125 14.347656 C 11.890625 14.347656 11.9375 14.269531 11.972656 14.214844 C 12.003906 14.160156 12.019531 14.140625 12.046875 14.140625 C 12.078125 14.140625 12.09375 14.160156 12.125 14.214844 C 12.160156 14.269531 12.207031 14.347656 12.316406 14.347656 C 12.425781 14.347656 12.472656 14.269531 12.507812 14.214844 C 12.539062 14.160156 12.554688 14.140625 12.585938 14.140625 C 12.613281 14.140625 12.628906 14.160156 12.660156 14.214844 C 12.695312 14.269531 12.742188 14.347656 12.851562 14.347656 C 12.960938 14.347656 13.007812 14.269531 13.042969 14.214844 C 13.074219 14.160156 13.089844 14.140625 13.121094 14.140625 C 13.148438 14.140625 13.164062 14.160156 13.195312 14.214844 C 13.230469 14.269531 13.277344 14.347656 13.386719 14.347656 L 13.386719 14.238281 C 13.34375 14.238281 13.328125 14.214844 13.289062 14.15625 C 13.257812 14.101562 13.214844 14.03125 13.121094 14.03125 C 13.027344 14.03125 12.980469 14.101562 12.949219 14.15625 Z M 12.949219 14.15625 "/>
<path style=" stroke:none;fill-rule:nonzero;fill:rgb(0%,0%,0%);fill-opacity:1;" d="M 10.445312 15.703125 C 10.410156 15.761719 10.390625 15.789062 10.351562 15.789062 C 10.308594 15.789062 10.289062 15.761719 10.253906 15.703125 C 10.222656 15.652344 10.175781 15.578125 10.082031 15.578125 C 9.988281 15.578125 9.945312 15.652344 9.910156 15.703125 C 9.875 15.761719 9.855469 15.789062 9.816406 15.789062 C 9.773438 15.789062 9.753906 15.761719 9.71875 15.703125 C 9.683594 15.652344 9.640625 15.578125 9.546875 15.578125 C 9.453125 15.578125 9.410156 15.652344 9.375 15.703125 C 9.339844 15.761719 9.320312 15.789062 9.277344 15.789062 L 9.277344 15.898438 C 9.386719 15.898438 9.433594 15.820312 9.46875 15.761719 C 9.5 15.710938 9.519531 15.6875 9.546875 15.6875 C 9.578125 15.6875 9.59375 15.710938 9.625 15.761719 C 9.660156 15.820312 9.707031 15.898438 9.816406 15.898438 C 9.921875 15.898438 9.972656 15.820312 10.007812 15.761719 C 10.039062 15.710938 10.054688 15.6875 10.082031 15.6875 C 10.113281 15.6875 10.128906 15.710938 10.160156 15.761719 C 10.195312 15.820312 10.242188 15.898438 10.351562 15.898438 C 10.457031 15.898438 10.507812 15.820312 10.542969 15.761719 C 10.574219 15.710938 10.589844 15.6875 10.617188 15.6875 C 10.648438 15.6875 10.664062 15.710938 10.695312 15.761719 C 10.730469 15.820312 10.777344 15.898438 10.886719 15.898438 L 10.886719 15.789062 C 10.84375 15.789062 10.824219 15.761719 10.789062 15.703125 C 10.757812 15.652344 10.710938 15.578125 10.617188 15.578125 C 10.523438 15.578125 10.480469 15.652344 10.445312 15.703125 Z M 10.445312 15.703125 "/>
<path style=" stroke:none;fill-rule:nonzero;fill:rgb(0%,0%,0%);fill-opacity:1;" d="M 9.507812 15.1875 C 9.472656 15.246094 9.453125 15.269531 9.414062 15.269531 C 9.371094 15.269531 9.351562 15.246094 9.316406 15.1875 C 9.28125 15.136719 9.238281 15.0625 9.144531 15.0625 C 9.050781 15.0625 9.007812 15.136719 8.972656 15.1875 C 8.9375 15.246094 8.917969 15.269531 8.875 15.269531 C 8.835938 15.269531 8.816406 15.246094 8.78125 15.1875 C 8.746094 15.136719 8.703125 15.0625 8.609375 15.0625 C 8.515625 15.0625 8.46875 15.136719 8.4375 15.1875 C 8.402344 15.246094 8.382812 15.269531 8.339844 15.269531 L 8.339844 15.382812 C 8.449219 15.382812 8.496094 15.300781 8.53125 15.246094 C 8.5625 15.195312 8.578125 15.171875 8.609375 15.171875 C 8.636719 15.171875 8.652344 15.195312 8.683594 15.246094 C 8.71875 15.300781 8.769531 15.382812 8.875 15.382812 C 8.984375 15.382812 9.03125 15.300781 9.066406 15.246094 C 9.097656 15.195312 9.113281 15.171875 9.144531 15.171875 C 9.171875 15.171875 9.1875 15.195312 9.222656 15.246094 C 9.257812 15.300781 9.304688 15.382812 9.414062 15.382812 C 9.519531 15.382812 9.566406 15.300781 9.601562 15.246094 C 9.636719 15.195312 9.652344 15.171875 9.679688 15.171875 C 9.710938 15.171875 9.726562 15.195312 9.757812 15.246094 C 9.792969 15.300781 9.839844 15.382812 9.949219 15.382812 L 9.949219 15.269531 C 9.90625 15.269531 9.886719 15.246094 9.851562 15.1875 C 9.820312 15.136719 9.773438 15.0625 9.679688 15.0625 C 9.585938 15.0625 9.542969 15.136719 9.507812 15.1875 Z M 9.507812 15.1875 "/>
<path style=" stroke:none;fill-rule:nonzero;fill:rgb(0%,0%,0%);fill-opacity:1;" d="M 11.386719 15.1875 C 11.347656 15.246094 11.332031 15.269531 11.289062 15.269531 C 11.246094 15.269531 11.226562 15.246094 11.191406 15.1875 C 11.160156 15.136719 11.113281 15.0625 11.019531 15.0625 C 10.925781 15.0625 10.882812 15.136719 10.851562 15.1875 C 10.8125 15.246094 10.796875 15.269531 10.753906 15.269531 C 10.710938 15.269531 10.691406 15.246094 10.65625 15.1875 C 10.625 15.136719 10.578125 15.0625 10.484375 15.0625 C 10.390625 15.0625 10.347656 15.136719 10.3125 15.1875 C 10.277344 15.246094 10.257812 15.269531 10.21875 15.269531 L 10.21875 15.382812 C 10.324219 15.382812 10.375 15.300781 10.410156 15.246094 C 10.441406 15.195312 10.457031 15.171875 10.484375 15.171875 C 10.515625 15.171875 10.53125 15.195312 10.5625 15.246094 C 10.597656 15.300781 10.644531 15.382812 10.753906 15.382812 C 10.859375 15.382812 10.910156 15.300781 10.945312 15.246094 C 10.976562 15.195312 10.992188 15.171875 11.019531 15.171875 C 11.050781 15.171875 11.066406 15.195312 11.097656 15.246094 C 11.132812 15.300781 11.179688 15.382812 11.289062 15.382812 C 11.398438 15.382812 11.445312 15.300781 11.480469 15.246094 C 11.511719 15.195312 11.527344 15.171875 11.554688 15.171875 C 11.585938 15.171875 11.601562 15.195312 11.632812 15.246094 C 11.667969 15.300781 11.714844 15.382812 11.824219 15.382812 L 11.824219 15.269531 C 11.78125 15.269531 11.761719 15.246094 11.726562 15.1875 C 11.695312 15.136719 11.652344 15.0625 11.554688 15.0625 C 11.460938 15.0625 11.417969 15.136719 11.386719 15.1875 Z M 11.386719 15.1875 "/>
<path style=" stroke:none;fill-rule:nonzero;fill:rgb(0%,0%,0%);fill-opacity:1;" d="M 9.507812 16.21875 C 9.472656 16.28125 9.453125 16.304688 9.414062 16.304688 C 9.371094 16.304688 9.351562 16.28125 9.316406 16.222656 C 9.28125 16.167969 9.238281 16.09375 9.144531 16.09375 C 9.050781 16.09375 9.007812 16.167969 8.972656 16.222656 C 8.9375 16.28125 8.917969 16.304688 8.875 16.304688 C 8.835938 16.304688 8.816406 16.28125 8.78125 16.21875 C 8.746094 16.167969 8.703125 16.09375 8.609375 16.09375 C 8.515625 16.09375 8.46875 16.167969 8.4375 16.21875 C 8.402344 16.28125 8.382812 16.304688 8.339844 16.304688 L 8.339844 16.414062 C 8.449219 16.414062 8.496094 16.335938 8.53125 16.277344 C 8.5625 16.226562 8.578125 16.203125 8.609375 16.203125 C 8.636719 16.203125 8.652344 16.226562 8.683594 16.277344 C 8.71875 16.335938 8.769531 16.414062 8.875 16.414062 C 8.984375 16.414062 9.03125 16.335938 9.066406 16.277344 C 9.097656 16.226562 9.113281 16.203125 9.144531 16.203125 C 9.171875 16.203125 9.1875 16.226562 9.222656 16.277344 C 9.257812 16.335938 9.304688 16.414062 9.414062 16.414062 C 9.519531 16.414062 9.566406 16.335938 9.601562 16.277344 C 9.636719 16.226562 9.652344 16.203125 9.679688 16.203125 C 9.710938 16.203125 9.726562 16.226562 9.757812 16.277344 C 9.792969 16.335938 9.839844 16.414062 9.949219 16.414062 L 9.949219 16.304688 C 9.90625 16.304688 9.886719 16.28125 9.851562 16.21875 C 9.820312 16.167969 9.773438 16.09375 9.679688 16.09375 C 9.585938 16.09375 9.542969 16.167969 9.507812 16.21875 Z M 9.507812 16.21875 "/>
<path style=" stroke:none;fill-rule:nonzero;fill:rgb(100%,100%,100%);fill-opacity:1;" d="M 8.113281 17.859375 C 8.15625 17.964844 8.199219 18.066406 8.238281 18.171875 L 8.242188 18.167969 L 8.539062 17.953125 L 8.53125 17.953125 C 8.515625 17.957031 8.496094 17.960938 8.472656 17.960938 C 8.367188 17.960938 8.316406 17.882812 8.28125 17.824219 C 8.25 17.773438 8.234375 17.753906 8.207031 17.753906 C 8.175781 17.753906 8.160156 17.773438 8.128906 17.824219 C 8.125 17.835938 8.117188 17.84375 8.113281 17.851562 Z M 8.113281 17.859375 "/>
<path style=" stroke:none;fill-rule:nonzero;fill:rgb(100%,100%,100%);fill-opacity:1;" d="M 8.621094 17.890625 L 8.78125 17.773438 L 8.777344 17.769531 C 8.765625 17.757812 8.757812 17.753906 8.742188 17.753906 C 8.710938 17.753906 8.695312 17.773438 8.664062 17.824219 C 8.652344 17.84375 8.640625 17.863281 8.625 17.882812 Z M 8.621094 17.890625 "/>
<path style=" stroke:none;fill-rule:nonzero;fill:rgb(0%,0%,0%);fill-opacity:1;" d="M 21.269531 26.902344 C 21.222656 25.988281 21.546875 25.554688 21.78125 25.410156 C 22.019531 25.261719 22.363281 25.285156 22.410156 26.195312 C 22.457031 27.109375 22.136719 27.542969 21.898438 27.6875 C 21.664062 27.835938 21.316406 27.816406 21.269531 26.902344 Z M 20.832031 27.175781 C 20.910156 28.703125 21.652344 28.4375 21.929688 28.265625 C 22.207031 28.09375 22.929688 27.457031 22.851562 25.925781 C 22.773438 24.394531 22.03125 24.660156 21.753906 24.832031 C 21.476562 25.003906 20.753906 25.644531 20.832031 27.175781 Z M 20.832031 27.175781 "/>
<path style=" stroke:none;fill-rule:nonzero;fill:rgb(0%,0%,0%);fill-opacity:1;" d="M 10.433594 27.007812 L 11.035156 27.65625 C 11.203125 27.835938 11.375 28.128906 11.375 28.421875 C 11.375 28.757812 11.242188 28.765625 11.011719 28.515625 L 10.433594 27.894531 Z M 9.980469 27.980469 L 10.9375 29.007812 C 11.398438 29.503906 11.519531 29.523438 11.648438 29.476562 C 11.769531 29.433594 11.84375 29.265625 11.84375 29 C 11.84375 28.675781 11.773438 28.273438 11.496094 27.824219 C 11.589844 27.855469 11.773438 27.917969 11.773438 27.441406 C 11.773438 27.101562 11.632812 26.441406 11.078125 25.847656 L 9.980469 24.667969 Z M 10.433594 25.726562 L 10.972656 26.308594 C 11.1875 26.535156 11.320312 26.761719 11.320312 27.035156 C 11.320312 27.296875 11.171875 27.246094 10.988281 27.046875 L 10.433594 26.449219 Z M 10.433594 25.726562 "/>
<path style=" stroke:none;fill-rule:nonzero;fill:rgb(0%,0%,0%);fill-opacity:1;" d="M 12.847656 31.148438 L 12.355469 30.660156 L 12.355469 27.347656 L 12.847656 27.832031 Z M 12.847656 31.148438 "/>
<path style=" stroke:none;fill-rule:nonzero;fill:rgb(0%,0%,0%);fill-opacity:1;" d="M 14.445312 32.054688 L 15.570312 33.085938 L 15.570312 33.6875 L 13.933594 32.1875 L 13.933594 28.875 L 14.445312 29.339844 Z M 14.445312 32.054688 "/>
<path style=" stroke:none;fill-rule:nonzero;fill:rgb(0%,0%,0%);fill-opacity:1;" d="M 16.785156 32.054688 L 17.390625 31.527344 C 17.5625 31.378906 17.734375 31.339844 17.734375 31.621094 C 17.734375 31.949219 17.601562 32.210938 17.371094 32.414062 L 16.785156 32.921875 Z M 16.328125 33.878906 L 17.292969 33.035156 C 17.761719 32.628906 17.882812 32.410156 18.015625 32.117188 C 18.136719 31.84375 18.210938 31.535156 18.210938 31.277344 C 18.210938 30.960938 18.136719 30.707031 17.859375 30.800781 C 17.953125 30.652344 18.136719 30.363281 18.136719 29.898438 C 18.136719 29.566406 17.996094 29.195312 17.4375 29.679688 L 16.328125 30.644531 Z M 16.785156 30.804688 L 17.332031 30.332031 C 17.546875 30.140625 17.679688 30.105469 17.679688 30.371094 C 17.679688 30.628906 17.53125 30.863281 17.34375 31.027344 L 16.785156 31.511719 Z M 16.785156 30.804688 "/>
<path style=" stroke:none;fill-rule:nonzero;fill:rgb(0%,0%,0%);fill-opacity:1;" d="M 19.75 28.140625 L 19.753906 28.132812 L 20.0625 29.171875 L 19.433594 29.734375 Z M 19.292969 30.429688 L 20.207031 29.613281 L 20.363281 30.15625 L 20.859375 29.710938 L 20.003906 27.164062 L 19.460938 27.648438 L 18.578125 31.75 L 19.121094 31.265625 Z M 19.292969 30.429688 "/>
<path style=" stroke:none;fill-rule:nonzero;fill:rgb(0%,0%,0%);fill-opacity:1;" d="M 3.433594 1.617188 C 3.425781 1.617188 3.421875 1.621094 3.417969 1.628906 L 2.464844 3.722656 C 2.460938 3.730469 2.460938 3.738281 2.464844 3.742188 C 2.46875 3.75 2.472656 3.753906 2.480469 3.753906 L 2.8125 3.753906 C 2.820312 3.753906 2.828125 3.746094 2.832031 3.742188 C 2.832031 3.742188 3.128906 3.082031 3.136719 3.0625 C 3.164062 3.0625 4.03125 3.0625 4.054688 3.0625 C 4.066406 3.085938 4.351562 3.742188 4.351562 3.742188 C 4.355469 3.746094 4.359375 3.753906 4.367188 3.753906 L 4.710938 3.753906 C 4.71875 3.753906 4.726562 3.75 4.730469 3.742188 C 4.734375 3.738281 4.734375 3.730469 4.730469 3.722656 L 3.789062 1.628906 C 3.789062 1.621094 3.78125 1.617188 3.773438 1.617188 Z M 3.597656 2.058594 C 3.628906 2.128906 3.875 2.671875 3.898438 2.71875 C 3.84375 2.71875 3.351562 2.71875 3.296875 2.71875 C 3.320312 2.671875 3.566406 2.128906 3.597656 2.058594 Z M 3.597656 2.058594 "/>
<path style=" stroke:none;fill-rule:nonzero;fill:rgb(0%,0%,0%);fill-opacity:1;" d="M 4.855469 1.617188 C 4.84375 1.617188 4.835938 1.628906 4.835938 1.636719 L 4.835938 1.9375 C 4.835938 1.949219 4.84375 1.960938 4.855469 1.960938 C 4.855469 1.960938 5.535156 1.960938 5.574219 1.960938 C 5.574219 1.996094 5.574219 3.730469 5.574219 3.730469 C 5.574219 3.742188 5.582031 3.753906 5.59375 3.753906 L 5.898438 3.753906 C 5.910156 3.753906 5.917969 3.742188 5.917969 3.730469 C 5.917969 3.730469 5.917969 1.996094 5.917969 1.960938 C 5.957031 1.960938 6.636719 1.960938 6.636719 1.960938 C 6.648438 1.960938 6.65625 1.949219 6.65625 1.9375 L 6.65625 1.636719 C 6.65625 1.628906 6.648438 1.617188 6.636719 1.617188 Z M 4.855469 1.617188 "/>
<path style=" stroke:none;fill-rule:nonzero;fill:rgb(0%,0%,0%);fill-opacity:1;" d="M 8.703125 1.617188 C 8.691406 1.617188 8.683594 1.628906 8.683594 1.636719 C 8.683594 1.636719 8.683594 2.425781 8.683594 2.464844 C 8.644531 2.464844 7.523438 2.464844 7.484375 2.464844 C 7.484375 2.425781 7.484375 1.636719 7.484375 1.636719 C 7.484375 1.628906 7.476562 1.617188 7.464844 1.617188 L 7.160156 1.617188 C 7.148438 1.617188 7.140625 1.628906 7.140625 1.636719 L 7.140625 3.730469 C 7.140625 3.742188 7.148438 3.753906 7.160156 3.753906 L 7.464844 3.753906 C 7.476562 3.753906 7.484375 3.742188 7.484375 3.730469 C 7.484375 3.730469 7.484375 2.84375 7.484375 2.804688 C 7.523438 2.804688 8.644531 2.804688 8.683594 2.804688 C 8.683594 2.84375 8.683594 3.730469 8.683594 3.730469 C 8.683594 3.742188 8.691406 3.753906 8.703125 3.753906 L 9.003906 3.753906 C 9.015625 3.753906 9.027344 3.742188 9.027344 3.730469 L 9.027344 1.636719 C 9.027344 1.628906 9.015625 1.617188 9.003906 1.617188 Z M 8.703125 1.617188 "/>
<path style=" stroke:none;fill-rule:nonzero;fill:rgb(0%,0%,0%);fill-opacity:1;" d="M 9.789062 1.617188 C 9.777344 1.617188 9.769531 1.628906 9.769531 1.636719 L 9.769531 3.730469 C 9.769531 3.742188 9.777344 3.753906 9.789062 3.753906 L 11.375 3.753906 C 11.382812 3.753906 11.394531 3.742188 11.394531 3.730469 L 11.394531 3.429688 C 11.394531 3.421875 11.382812 3.410156 11.375 3.410156 C 11.375 3.410156 10.152344 3.410156 10.113281 3.410156 C 10.113281 3.371094 10.113281 1.636719 10.113281 1.636719 C 10.113281 1.628906 10.105469 1.617188 10.09375 1.617188 Z M 9.789062 1.617188 "/>
<path style=" stroke:none;fill-rule:nonzero;fill:rgb(0%,0%,0%);fill-opacity:1;" d="M 11.71875 1.617188 C 11.707031 1.617188 11.699219 1.628906 11.699219 1.636719 L 11.699219 3.730469 C 11.699219 3.742188 11.707031 3.753906 11.71875 3.753906 L 13.5 3.753906 C 13.507812 3.753906 13.519531 3.742188 13.519531 3.730469 L 13.519531 3.429688 C 13.519531 3.421875 13.507812 3.410156 13.5 3.410156 C 13.5 3.410156 12.082031 3.410156 12.042969 3.410156 C 12.042969 3.375 12.042969 2.847656 12.042969 2.8125 C 12.078125 2.8125 12.738281 2.8125 12.738281 2.8125 C 12.75 2.8125 12.757812 2.800781 12.757812 2.792969 L 12.757812 2.488281 C 12.757812 2.480469 12.75 2.46875 12.738281 2.46875 C 12.738281 2.46875 12.078125 2.46875 12.042969 2.46875 C 12.042969 2.433594 12.042969 1.996094 12.042969 1.960938 C 12.082031 1.960938 13.445312 1.960938 13.445312 1.960938 C 13.457031 1.960938 13.464844 1.949219 13.464844 1.9375 L 13.464844 1.636719 C 13.464844 1.628906 13.457031 1.617188 13.445312 1.617188 Z M 11.71875 1.617188 "/>
<path style=" stroke:none;fill-rule:nonzero;fill:rgb(0%,0%,0%);fill-opacity:1;" d="M 13.832031 1.617188 C 13.820312 1.617188 13.8125 1.628906 13.8125 1.636719 L 13.8125 1.9375 C 13.8125 1.949219 13.820312 1.960938 13.832031 1.960938 C 13.832031 1.960938 14.511719 1.960938 14.550781 1.960938 C 14.550781 1.996094 14.550781 3.730469 14.550781 3.730469 C 14.550781 3.742188 14.558594 3.753906 14.570312 3.753906 L 14.875 3.753906 C 14.886719 3.753906 14.894531 3.742188 14.894531 3.730469 C 14.894531 3.730469 14.894531 1.996094 14.894531 1.960938 C 14.933594 1.960938 15.613281 1.960938 15.613281 1.960938 C 15.625 1.960938 15.632812 1.949219 15.632812 1.9375 L 15.632812 1.636719 C 15.632812 1.628906 15.625 1.617188 15.613281 1.617188 Z M 13.832031 1.617188 "/>
<path style=" stroke:none;fill-rule:nonzero;fill:rgb(0%,0%,0%);fill-opacity:1;" d="M 16.101562 1.617188 C 16.089844 1.617188 16.078125 1.628906 16.078125 1.636719 L 16.078125 3.730469 C 16.078125 3.742188 16.089844 3.753906 16.101562 3.753906 L 16.402344 3.753906 C 16.414062 3.753906 16.421875 3.742188 16.421875 3.730469 L 16.421875 1.636719 C 16.421875 1.628906 16.414062 1.617188 16.402344 1.617188 Z M 16.101562 1.617188 "/>
<path style=" stroke:none;fill-rule:nonzero;fill:rgb(0%,0%,0%);fill-opacity:1;" d="M 17.613281 1.660156 C 17.476562 1.71875 17.355469 1.800781 17.253906 1.902344 C 17.15625 2.003906 17.074219 2.125 17.015625 2.261719 C 16.960938 2.398438 16.933594 2.546875 16.933594 2.703125 C 16.933594 2.863281 16.964844 3.015625 17.027344 3.148438 C 17.089844 3.28125 17.171875 3.398438 17.277344 3.496094 C 17.382812 3.589844 17.503906 3.664062 17.640625 3.71875 C 17.777344 3.769531 17.917969 3.796875 18.0625 3.796875 C 18.214844 3.796875 18.347656 3.785156 18.460938 3.761719 C 18.570312 3.738281 18.667969 3.707031 18.75 3.667969 C 18.832031 3.625 18.90625 3.582031 18.964844 3.53125 C 19.027344 3.480469 19.082031 3.425781 19.132812 3.371094 C 19.140625 3.363281 19.140625 3.351562 19.132812 3.34375 L 18.929688 3.128906 C 18.925781 3.125 18.921875 3.121094 18.914062 3.121094 C 18.910156 3.121094 18.902344 3.125 18.898438 3.128906 L 18.804688 3.226562 C 18.761719 3.261719 18.710938 3.296875 18.648438 3.332031 C 18.585938 3.363281 18.511719 3.394531 18.429688 3.417969 C 18.34375 3.445312 18.246094 3.457031 18.136719 3.457031 C 17.996094 3.457031 17.867188 3.433594 17.761719 3.390625 C 17.65625 3.34375 17.566406 3.285156 17.492188 3.214844 C 17.421875 3.144531 17.367188 3.0625 17.328125 2.972656 C 17.292969 2.882812 17.273438 2.792969 17.273438 2.703125 C 17.273438 2.574219 17.296875 2.460938 17.34375 2.363281 C 17.390625 2.265625 17.449219 2.183594 17.523438 2.117188 C 17.597656 2.050781 17.679688 2 17.773438 1.964844 C 17.867188 1.933594 17.964844 1.914062 18.058594 1.914062 C 18.164062 1.914062 18.261719 1.925781 18.347656 1.953125 C 18.433594 1.980469 18.511719 2.007812 18.574219 2.042969 C 18.640625 2.074219 18.695312 2.109375 18.738281 2.144531 L 18.84375 2.230469 C 18.851562 2.234375 18.863281 2.234375 18.867188 2.226562 L 19.097656 2.035156 C 19.101562 2.03125 19.105469 2.027344 19.105469 2.019531 C 19.105469 2.015625 19.101562 2.007812 19.097656 2.003906 L 18.972656 1.898438 C 18.917969 1.851562 18.84375 1.800781 18.757812 1.753906 C 18.671875 1.707031 18.566406 1.664062 18.453125 1.628906 C 18.335938 1.59375 18.203125 1.574219 18.058594 1.574219 C 17.898438 1.574219 17.75 1.601562 17.613281 1.660156 Z M 17.613281 1.660156 "/>
<path style=" stroke:none;fill-rule:nonzero;fill:rgb(0%,0%,0%);fill-opacity:1;" d="M 21.085938 1.660156 C 20.949219 1.71875 20.828125 1.800781 20.726562 1.902344 C 20.625 2.003906 20.546875 2.125 20.488281 2.261719 C 20.433594 2.398438 20.402344 2.546875 20.402344 2.703125 C 20.402344 2.863281 20.433594 3.015625 20.496094 3.148438 C 20.558594 3.28125 20.644531 3.398438 20.75 3.496094 C 20.855469 3.589844 20.976562 3.664062 21.113281 3.71875 C 21.246094 3.769531 21.390625 3.796875 21.535156 3.796875 C 21.6875 3.796875 21.820312 3.785156 21.929688 3.761719 C 22.042969 3.738281 22.140625 3.707031 22.222656 3.667969 C 22.304688 3.625 22.378906 3.582031 22.4375 3.53125 C 22.496094 3.480469 22.550781 3.425781 22.601562 3.371094 C 22.609375 3.363281 22.609375 3.351562 22.601562 3.34375 L 22.402344 3.128906 C 22.398438 3.125 22.390625 3.121094 22.386719 3.121094 C 22.378906 3.121094 22.375 3.125 22.371094 3.128906 L 22.277344 3.226562 C 22.234375 3.261719 22.183594 3.296875 22.121094 3.332031 C 22.058594 3.363281 21.984375 3.394531 21.898438 3.417969 C 21.816406 3.445312 21.71875 3.457031 21.605469 3.457031 C 21.464844 3.457031 21.339844 3.433594 21.234375 3.390625 C 21.125 3.34375 21.035156 3.285156 20.964844 3.214844 C 20.890625 3.144531 20.835938 3.0625 20.800781 2.972656 C 20.765625 2.882812 20.746094 2.792969 20.746094 2.703125 C 20.746094 2.574219 20.769531 2.460938 20.816406 2.363281 C 20.859375 2.265625 20.921875 2.183594 20.996094 2.117188 C 21.066406 2.050781 21.152344 2 21.246094 1.964844 C 21.339844 1.933594 21.433594 1.914062 21.53125 1.914062 C 21.636719 1.914062 21.734375 1.925781 21.820312 1.953125 C 21.90625 1.980469 21.980469 2.007812 22.046875 2.042969 C 22.109375 2.074219 22.167969 2.109375 22.210938 2.144531 L 22.316406 2.230469 C 22.324219 2.234375 22.332031 2.234375 22.339844 2.226562 L 22.566406 2.035156 C 22.574219 2.03125 22.574219 2.027344 22.574219 2.019531 C 22.574219 2.015625 22.574219 2.007812 22.570312 2.003906 L 22.445312 1.898438 C 22.390625 1.851562 22.316406 1.800781 22.230469 1.753906 C 22.144531 1.707031 22.039062 1.664062 21.921875 1.628906 C 21.808594 1.59375 21.671875 1.574219 21.527344 1.574219 C 21.371094 1.574219 21.222656 1.601562 21.085938 1.660156 Z M 21.085938 1.660156 "/>
<path style=" stroke:none;fill-rule:nonzero;fill:rgb(0%,0%,0%);fill-opacity:1;" d="M 23.140625 1.617188 C 23.128906 1.617188 23.121094 1.628906 23.121094 1.636719 L 23.121094 3.730469 C 23.121094 3.742188 23.128906 3.753906 23.140625 3.753906 L 24.722656 3.753906 C 24.734375 3.753906 24.742188 3.742188 24.742188 3.730469 L 24.742188 3.429688 C 24.742188 3.421875 24.734375 3.410156 24.722656 3.410156 C 24.722656 3.410156 23.503906 3.410156 23.464844 3.410156 C 23.464844 3.371094 23.464844 1.636719 23.464844 1.636719 C 23.464844 1.628906 23.457031 1.617188 23.445312 1.617188 Z M 23.140625 1.617188 "/>
<path style=" stroke:none;fill-rule:nonzero;fill:rgb(0%,0%,0%);fill-opacity:1;" d="M 26.675781 1.617188 C 26.664062 1.617188 26.65625 1.628906 26.65625 1.636719 L 26.65625 2.941406 C 26.65625 3.015625 26.644531 3.085938 26.628906 3.148438 C 26.609375 3.210938 26.578125 3.265625 26.535156 3.308594 C 26.488281 3.355469 26.429688 3.390625 26.351562 3.417969 C 26.273438 3.441406 26.175781 3.457031 26.054688 3.457031 C 25.933594 3.457031 25.832031 3.441406 25.753906 3.417969 C 25.679688 3.390625 25.617188 3.355469 25.570312 3.308594 C 25.527344 3.265625 25.496094 3.210938 25.476562 3.148438 C 25.460938 3.085938 25.449219 3.015625 25.449219 2.941406 L 25.449219 1.636719 C 25.449219 1.628906 25.441406 1.617188 25.429688 1.617188 L 25.128906 1.617188 C 25.117188 1.617188 25.109375 1.628906 25.109375 1.636719 L 25.109375 2.941406 C 25.109375 3.042969 25.121094 3.144531 25.144531 3.242188 C 25.167969 3.347656 25.214844 3.441406 25.285156 3.523438 C 25.351562 3.605469 25.449219 3.671875 25.574219 3.722656 C 25.699219 3.769531 25.859375 3.796875 26.054688 3.796875 C 26.25 3.796875 26.410156 3.769531 26.53125 3.722656 C 26.65625 3.671875 26.753906 3.605469 26.824219 3.523438 C 26.890625 3.441406 26.9375 3.347656 26.964844 3.242188 C 26.988281 3.144531 27 3.042969 27 2.941406 L 27 1.636719 C 27 1.628906 26.988281 1.617188 26.980469 1.617188 Z M 26.675781 1.617188 "/>
<path style=" stroke:none;fill-rule:nonzero;fill:rgb(0%,0%,0%);fill-opacity:1;" d="M 27.699219 1.617188 C 27.6875 1.617188 27.679688 1.628906 27.679688 1.636719 L 27.679688 3.730469 C 27.679688 3.742188 27.6875 3.753906 27.699219 3.753906 L 28.902344 3.753906 C 29.003906 3.753906 29.101562 3.738281 29.191406 3.710938 C 29.28125 3.6875 29.359375 3.644531 29.425781 3.59375 C 29.492188 3.539062 29.546875 3.472656 29.585938 3.394531 C 29.621094 3.316406 29.640625 3.226562 29.640625 3.125 C 29.640625 3.054688 29.632812 2.992188 29.613281 2.9375 C 29.59375 2.878906 29.566406 2.828125 29.539062 2.785156 C 29.507812 2.742188 29.476562 2.707031 29.441406 2.675781 C 29.414062 2.652344 29.386719 2.636719 29.363281 2.625 C 29.378906 2.605469 29.410156 2.574219 29.410156 2.574219 C 29.433594 2.550781 29.453125 2.519531 29.472656 2.484375 C 29.492188 2.449219 29.507812 2.410156 29.523438 2.363281 C 29.535156 2.320312 29.542969 2.265625 29.542969 2.207031 C 29.542969 2.105469 29.523438 2.015625 29.484375 1.941406 C 29.449219 1.871094 29.402344 1.808594 29.339844 1.757812 C 29.28125 1.710938 29.214844 1.675781 29.136719 1.652344 C 29.0625 1.628906 28.984375 1.617188 28.902344 1.617188 Z M 28.902344 1.960938 C 29.003906 1.960938 29.078125 1.980469 29.128906 2.023438 C 29.175781 2.070312 29.199219 2.128906 29.199219 2.207031 C 29.199219 2.296875 29.171875 2.367188 29.125 2.417969 C 29.078125 2.46875 29 2.496094 28.902344 2.496094 C 28.902344 2.496094 28.058594 2.496094 28.019531 2.496094 C 28.019531 2.457031 28.019531 1.996094 28.019531 1.960938 C 28.058594 1.960938 28.902344 1.960938 28.902344 1.960938 Z M 28.902344 2.835938 C 28.976562 2.835938 29.042969 2.84375 29.09375 2.855469 C 29.144531 2.871094 29.1875 2.890625 29.21875 2.914062 C 29.246094 2.9375 29.265625 2.96875 29.28125 3.003906 C 29.292969 3.039062 29.296875 3.078125 29.296875 3.125 C 29.296875 3.21875 29.265625 3.289062 29.203125 3.335938 C 29.140625 3.386719 29.039062 3.410156 28.902344 3.410156 C 28.902344 3.410156 28.058594 3.410156 28.019531 3.410156 C 28.019531 3.375 28.019531 2.871094 28.019531 2.835938 C 28.058594 2.835938 28.902344 2.835938 28.902344 2.835938 Z M 28.902344 2.835938 "/>
</g>
</svg>
