<?xml version="1.0" encoding="UTF-8"?>
<svg xmlns="http://www.w3.org/2000/svg" xmlns:xlink="http://www.w3.org/1999/xlink" width="32px" height="32px" viewBox="0 0 32 39" version="1.1">
<g id="surface1">
<path style=" stroke:none;fill-rule:nonzero;fill:rgb(90.196078%,78.039216%,46.666667%);fill-opacity:1;" d="M 21.308594 0.238281 C 23.460938 4.378906 27.351562 7.164062 31.835938 8.144531 L 31.835938 15.78125 C 29.507812 17.867188 27.628906 21.300781 26.195312 26.085938 C 24.386719 31.59375 21.945312 34.640625 16.015625 38.765625 C 11.410156 36.070312 7.613281 32.691406 5.878906 26.582031 C 4.574219 21.605469 2.824219 18.148438 0.234375 15.675781 L 0.234375 8.140625 C 5.554688 6.542969 9.054688 3.925781 10.734375 0.292969 Z M 21.308594 0.238281 "/>
<path style=" stroke:none;fill-rule:nonzero;fill:rgb(52.54902%,41.960784%,6.27451%);fill-opacity:1;" d="M 21.308594 0.238281 L 21.238281 0.273438 C 23.402344 4.433594 27.316406 7.234375 31.816406 8.21875 L 31.835938 8.144531 L 31.757812 8.144531 L 31.757812 15.78125 L 31.835938 15.78125 L 31.785156 15.722656 C 29.441406 17.824219 27.558594 21.273438 26.125 26.0625 L 26.199219 26.085938 L 26.125 26.0625 C 25.222656 28.808594 24.164062 30.9375 22.59375 32.898438 C 21.019531 34.855469 18.933594 36.644531 15.972656 38.703125 L 16.015625 38.765625 L 16.054688 38.703125 C 11.457031 36.007812 7.679688 32.648438 5.953125 26.5625 L 5.878906 26.582031 L 5.953125 26.5625 C 4.644531 21.578125 2.890625 18.109375 0.285156 15.625 L 0.234375 15.675781 L 0.308594 15.675781 L 0.308594 8.140625 L 0.234375 8.140625 L 0.253906 8.210938 C 5.589844 6.609375 9.113281 3.980469 10.800781 0.324219 L 10.734375 0.292969 L 10.734375 0.367188 L 21.308594 0.316406 L 21.308594 0.238281 L 21.238281 0.273438 L 21.308594 0.238281 L 21.304688 0.164062 L 10.683594 0.214844 L 10.664062 0.261719 C 9 3.867188 5.523438 6.472656 0.210938 8.066406 L 0.15625 8.082031 L 0.15625 15.707031 L 0.179688 15.730469 C 2.757812 18.191406 4.503906 21.632812 5.804688 26.601562 C 7.546875 32.730469 11.363281 36.128906 15.976562 38.832031 L 16.019531 38.855469 L 16.058594 38.828125 C 19.027344 36.761719 21.125 34.964844 22.710938 32.992188 C 24.292969 31.015625 25.363281 28.867188 26.269531 26.105469 C 27.699219 21.328125 29.574219 17.90625 31.886719 15.835938 L 31.910156 15.8125 L 31.910156 8.085938 L 31.851562 8.070312 C 27.386719 7.09375 23.515625 4.324219 21.375 0.207031 L 21.351562 0.164062 L 21.304688 0.164062 Z M 21.308594 0.238281 "/>
<path style=" stroke:none;fill-rule:nonzero;fill:rgb(77.254902%,6.666667%,18.039216%);fill-opacity:1;" d="M 6.582031 23.855469 C 5.699219 20.949219 4.265625 17.984375 2.917969 16.535156 L 29.320312 16.535156 C 27.609375 18.578125 26.417969 21.246094 25.578125 23.855469 Z M 6.582031 23.855469 "/>
<path style=" stroke:none;fill-rule:nonzero;fill:rgb(77.254902%,6.666667%,18.039216%);fill-opacity:1;" d="M 6.582031 23.855469 L 6.652344 23.832031 C 5.769531 20.921875 4.335938 17.953125 2.976562 16.484375 L 2.917969 16.535156 L 2.917969 16.609375 L 29.320312 16.609375 L 29.320312 16.535156 L 29.261719 16.484375 C 27.542969 18.539062 26.351562 21.21875 25.507812 23.832031 L 25.578125 23.855469 L 25.578125 23.78125 L 6.582031 23.78125 L 6.582031 23.855469 L 6.652344 23.832031 L 6.582031 23.855469 L 6.582031 23.929688 L 25.632812 23.929688 L 25.652344 23.878906 C 26.488281 21.277344 27.675781 18.613281 29.378906 16.582031 L 29.480469 16.457031 L 2.746094 16.457031 L 2.863281 16.585938 C 4.195312 18.019531 5.628906 20.980469 6.507812 23.878906 L 6.523438 23.929688 L 6.582031 23.929688 Z M 6.582031 23.855469 "/>
<path style=" stroke:none;fill-rule:nonzero;fill:rgb(100%,100%,100%);fill-opacity:1;" d="M 1.859375 14.957031 C 1.871094 14.960938 1.835938 9.007812 1.835938 9.007812 C 3.253906 8.707031 4.621094 8.171875 5.910156 7.429688 L 5.910156 14.957031 Z M 1.859375 14.957031 "/>
<path style=" stroke:none;fill-rule:nonzero;fill:rgb(100%,100%,100%);fill-opacity:1;" d="M 25.910156 7.394531 C 27.253906 8.21875 28.703125 8.804688 30.28125 9.164062 L 30.277344 14.957031 L 25.910156 14.957031 Z M 25.910156 7.394531 "/>
<path style=" stroke:none;fill-rule:nonzero;fill:rgb(100%,100%,100%);fill-opacity:1;" d="M 6.957031 6.769531 C 8.675781 5.585938 10.394531 4.082031 11.5 1.890625 L 20.5 1.890625 C 21.636719 3.789062 23.277344 5.527344 24.863281 6.691406 L 24.863281 14.957031 L 6.957031 14.957031 Z M 6.957031 6.769531 "/>
<path style=" stroke:none;fill-rule:nonzero;fill:rgb(10.588235%,27.058824%,56.078431%);fill-opacity:1;" d="M 9.824219 31.488281 C 7.699219 29.011719 7.015625 25.070312 7.015625 25.070312 L 25.136719 25.070312 C 24.929688 25.667969 24.445312 28.351562 22.03125 31.488281 Z M 9.824219 31.488281 "/>
<path style=" stroke:none;fill-rule:nonzero;fill:rgb(10.588235%,27.058824%,56.078431%);fill-opacity:1;" d="M 15.984375 36.988281 C 14.304688 36.078125 12.414062 34.574219 11.320312 33.371094 L 20.378906 33.371094 C 19.324219 34.457031 17.601562 35.925781 15.984375 36.988281 Z M 15.984375 36.988281 "/>
<path style=" stroke:none;fill-rule:nonzero;fill:rgb(1.960784%,39.215686%,17.254902%);fill-opacity:1;" d="M 10.035156 31.84375 L 21.785156 31.84375 L 20.753906 32.972656 L 11.039062 32.972656 C 10.652344 32.59375 10.335938 32.230469 10.035156 31.84375 Z M 10.035156 31.84375 "/>
<path style=" stroke:none;fill-rule:nonzero;fill:rgb(90.196078%,78.039216%,46.666667%);fill-opacity:1;" d="M 10.164062 27.742188 L 10.566406 27.742188 L 10.566406 29.433594 L 10.164062 29.433594 Z M 10.164062 27.742188 "/>
<path style=" stroke:none;fill-rule:nonzero;fill:rgb(90.196078%,78.039216%,46.666667%);fill-opacity:1;" d="M 22.363281 25.59375 L 22.765625 25.59375 L 22.765625 27.285156 L 22.363281 27.285156 Z M 22.363281 25.59375 "/>
<path style=" stroke:none;fill-rule:evenodd;fill:rgb(90.196078%,78.039216%,46.666667%);fill-opacity:1;" d="M 21.5 27.707031 L 20.8125 29.398438 L 21.214844 29.398438 L 21.359375 29.023438 L 22.039062 29.023438 L 22.175781 29.398438 L 22.589844 29.398438 L 21.910156 27.707031 Z M 21.464844 28.746094 L 21.699219 28.121094 L 21.707031 28.121094 L 21.933594 28.746094 Z M 21.464844 28.746094 "/>
<path style=" stroke:none;fill-rule:nonzero;fill:rgb(90.196078%,78.039216%,46.666667%);fill-opacity:1;" d="M 10.097656 26.15625 L 10.488281 26.15625 C 10.476562 26.058594 10.445312 25.972656 10.398438 25.898438 C 10.355469 25.820312 10.296875 25.757812 10.222656 25.707031 C 10.15625 25.65625 10.074219 25.617188 9.984375 25.589844 C 9.898438 25.5625 9.800781 25.546875 9.703125 25.546875 C 9.5625 25.546875 9.4375 25.570312 9.324219 25.617188 C 9.214844 25.664062 9.121094 25.726562 9.042969 25.804688 C 8.96875 25.886719 8.910156 25.980469 8.867188 26.089844 C 8.828125 26.199219 8.808594 26.316406 8.808594 26.441406 C 8.808594 26.566406 8.828125 26.679688 8.867188 26.789062 C 8.910156 26.894531 8.96875 26.988281 9.042969 27.066406 C 9.121094 27.144531 9.214844 27.207031 9.324219 27.253906 C 9.4375 27.296875 9.5625 27.320312 9.703125 27.320312 C 9.8125 27.320312 9.917969 27.304688 10.011719 27.273438 C 10.105469 27.242188 10.183594 27.195312 10.253906 27.132812 C 10.324219 27.074219 10.378906 27 10.421875 26.917969 C 10.464844 26.832031 10.492188 26.734375 10.5 26.628906 L 10.113281 26.628906 C 10.097656 26.742188 10.058594 26.835938 9.988281 26.90625 C 9.917969 26.972656 9.824219 27.007812 9.703125 27.007812 C 9.613281 27.007812 9.535156 26.992188 9.472656 26.960938 C 9.410156 26.929688 9.359375 26.882812 9.320312 26.832031 C 9.28125 26.777344 9.25 26.71875 9.234375 26.652344 C 9.214844 26.582031 9.207031 26.511719 9.207031 26.441406 C 9.207031 26.367188 9.214844 26.296875 9.234375 26.226562 C 9.25 26.15625 9.28125 26.09375 9.320312 26.042969 C 9.359375 25.984375 9.410156 25.941406 9.472656 25.910156 C 9.535156 25.878906 9.613281 25.859375 9.703125 25.859375 C 9.75 25.859375 9.796875 25.867188 9.84375 25.882812 C 9.886719 25.898438 9.929688 25.917969 9.964844 25.945312 C 10 25.972656 10.03125 26.003906 10.054688 26.039062 C 10.078125 26.074219 10.09375 26.113281 10.097656 26.15625 Z M 10.097656 26.15625 "/>
<path style=" stroke:none;fill-rule:nonzero;fill:rgb(90.196078%,78.039216%,46.666667%);fill-opacity:1;" d="M 4.65625 11.007812 L 5.363281 11.007812 C 5.339844 10.761719 5.289062 10.542969 5.203125 10.355469 C 5.121094 10.164062 5.015625 10.003906 4.882812 9.878906 C 4.757812 9.746094 4.613281 9.648438 4.449219 9.578125 C 4.285156 9.511719 4.113281 9.480469 3.933594 9.480469 C 3.675781 9.480469 3.449219 9.535156 3.242188 9.652344 C 3.042969 9.765625 2.871094 9.925781 2.734375 10.128906 C 2.59375 10.328125 2.488281 10.566406 2.414062 10.84375 C 2.339844 11.113281 2.300781 11.40625 2.300781 11.722656 C 2.300781 12.03125 2.339844 12.324219 2.414062 12.59375 C 2.488281 12.859375 2.59375 13.089844 2.734375 13.289062 C 2.871094 13.488281 3.042969 13.644531 3.242188 13.757812 C 3.449219 13.871094 3.679688 13.925781 3.933594 13.925781 C 4.136719 13.925781 4.324219 13.886719 4.492188 13.804688 C 4.664062 13.726562 4.8125 13.613281 4.941406 13.460938 C 5.066406 13.308594 5.167969 13.128906 5.246094 12.914062 C 5.324219 12.699219 5.371094 12.460938 5.390625 12.195312 L 4.683594 12.195312 C 4.65625 12.480469 4.578125 12.710938 4.453125 12.882812 C 4.328125 13.058594 4.15625 13.144531 3.933594 13.144531 C 3.769531 13.144531 3.628906 13.105469 3.511719 13.027344 C 3.398438 12.945312 3.304688 12.835938 3.234375 12.699219 C 3.164062 12.5625 3.109375 12.414062 3.078125 12.246094 C 3.046875 12.078125 3.03125 11.902344 3.03125 11.722656 C 3.03125 11.535156 3.046875 11.355469 3.078125 11.179688 C 3.109375 11.007812 3.164062 10.851562 3.234375 10.714844 C 3.304688 10.578125 3.398438 10.46875 3.511719 10.390625 C 3.628906 10.304688 3.769531 10.265625 3.933594 10.265625 C 4.023438 10.265625 4.105469 10.285156 4.1875 10.324219 C 4.269531 10.359375 4.34375 10.410156 4.410156 10.480469 C 4.476562 10.546875 4.53125 10.625 4.574219 10.714844 C 4.617188 10.804688 4.644531 10.902344 4.65625 11.007812 Z M 4.65625 11.007812 "/>
<path style=" stroke:none;fill-rule:nonzero;fill:rgb(52.54902%,41.960784%,6.27451%);fill-opacity:1;" d="M 4.65625 11.007812 L 4.65625 11.082031 L 5.445312 11.082031 L 5.4375 11.003906 C 5.414062 10.75 5.363281 10.523438 5.273438 10.324219 C 5.1875 10.125 5.074219 9.957031 4.9375 9.824219 L 4.882812 9.878906 L 4.9375 9.824219 C 4.804688 9.6875 4.648438 9.582031 4.476562 9.511719 C 4.304688 9.441406 4.125 9.402344 3.929688 9.402344 C 3.664062 9.402344 3.421875 9.464844 3.207031 9.585938 C 2.996094 9.707031 2.816406 9.875 2.671875 10.085938 C 2.523438 10.296875 2.414062 10.542969 2.339844 10.824219 C 2.261719 11.097656 2.226562 11.398438 2.226562 11.722656 C 2.226562 12.039062 2.261719 12.335938 2.339844 12.613281 C 2.414062 12.886719 2.527344 13.125 2.671875 13.332031 C 2.816406 13.539062 2.996094 13.703125 3.207031 13.824219 C 3.421875 13.941406 3.667969 14 3.929688 14 C 4.144531 14 4.34375 13.957031 4.527344 13.875 C 4.707031 13.789062 4.863281 13.667969 4.996094 13.507812 C 5.132812 13.351562 5.238281 13.160156 5.316406 12.9375 C 5.398438 12.714844 5.445312 12.46875 5.464844 12.199219 L 5.472656 12.117188 L 4.617188 12.117188 L 4.609375 12.1875 C 4.582031 12.460938 4.507812 12.679688 4.390625 12.839844 C 4.277344 12.996094 4.132812 13.070312 3.929688 13.070312 C 3.78125 13.070312 3.65625 13.035156 3.554688 12.964844 L 3.511719 13.027344 L 3.558594 12.964844 C 3.453125 12.890625 3.367188 12.789062 3.300781 12.664062 C 3.234375 12.535156 3.183594 12.390625 3.152344 12.230469 L 3.078125 12.246094 L 3.152344 12.234375 C 3.121094 12.066406 3.105469 11.898438 3.105469 11.722656 C 3.105469 11.539062 3.121094 11.363281 3.152344 11.195312 L 3.078125 11.179688 L 3.152344 11.195312 C 3.183594 11.027344 3.234375 10.878906 3.300781 10.75 C 3.367188 10.621094 3.453125 10.523438 3.554688 10.453125 L 3.558594 10.449219 C 3.660156 10.378906 3.78125 10.339844 3.929688 10.339844 C 4.011719 10.339844 4.082031 10.355469 4.152344 10.390625 L 4.15625 10.390625 L 4.15625 10.394531 C 4.230469 10.425781 4.296875 10.46875 4.355469 10.53125 C 4.414062 10.59375 4.464844 10.664062 4.503906 10.75 C 4.542969 10.828125 4.570312 10.917969 4.582031 11.015625 L 4.589844 11.082031 L 4.65625 11.082031 L 4.65625 11.007812 L 4.730469 11 C 4.71875 10.886719 4.6875 10.78125 4.640625 10.683594 L 4.574219 10.71875 L 4.640625 10.683594 C 4.59375 10.585938 4.535156 10.5 4.464844 10.425781 C 4.394531 10.351562 4.308594 10.296875 4.21875 10.253906 L 4.1875 10.324219 L 4.222656 10.257812 C 4.128906 10.210938 4.035156 10.1875 3.933594 10.1875 C 3.753906 10.1875 3.597656 10.234375 3.46875 10.328125 L 3.511719 10.390625 L 3.46875 10.328125 C 3.34375 10.414062 3.242188 10.535156 3.167969 10.683594 L 3.167969 10.679688 L 3.167969 10.683594 C 3.09375 10.824219 3.039062 10.988281 3.003906 11.167969 C 2.96875 11.347656 2.953125 11.53125 2.953125 11.722656 C 2.953125 11.90625 2.96875 12.085938 3.003906 12.261719 C 3.039062 12.433594 3.09375 12.59375 3.167969 12.734375 C 3.242188 12.878906 3.34375 12.996094 3.46875 13.085938 L 3.46875 13.089844 C 3.597656 13.175781 3.753906 13.222656 3.933594 13.21875 C 4.175781 13.222656 4.378906 13.121094 4.515625 12.925781 L 4.453125 12.882812 L 4.511719 12.929688 C 4.652344 12.738281 4.730469 12.496094 4.761719 12.199219 L 4.683594 12.195312 L 4.683594 12.269531 L 5.390625 12.269531 L 5.390625 12.195312 L 5.316406 12.1875 C 5.296875 12.449219 5.25 12.679688 5.175781 12.886719 C 5.101562 13.09375 5.003906 13.269531 4.882812 13.414062 C 4.761719 13.554688 4.621094 13.664062 4.460938 13.738281 C 4.300781 13.8125 4.125 13.851562 3.933594 13.851562 C 3.6875 13.851562 3.472656 13.796875 3.28125 13.691406 L 3.242188 13.757812 L 3.28125 13.695312 C 3.089844 13.585938 2.929688 13.4375 2.796875 13.246094 C 2.660156 13.054688 2.558594 12.832031 2.484375 12.570312 C 2.414062 12.308594 2.375 12.027344 2.375 11.722656 C 2.375 11.410156 2.414062 11.125 2.484375 10.863281 C 2.558594 10.59375 2.660156 10.363281 2.796875 10.171875 C 2.929688 9.976562 3.089844 9.824219 3.28125 9.714844 C 3.472656 9.609375 3.6875 9.554688 3.933594 9.554688 C 4.105469 9.554688 4.265625 9.585938 4.417969 9.648438 C 4.574219 9.714844 4.710938 9.804688 4.828125 9.929688 L 4.832031 9.929688 C 4.953125 10.050781 5.054688 10.199219 5.136719 10.382812 C 5.214844 10.566406 5.265625 10.777344 5.289062 11.015625 L 5.363281 11.007812 L 5.363281 10.933594 L 4.65625 10.933594 L 4.65625 11.007812 L 4.730469 11 Z M 4.65625 11.007812 "/>
<path style=" stroke:none;fill-rule:nonzero;fill:rgb(90.196078%,78.039216%,46.666667%);fill-opacity:1;" d="M 27.597656 10.585938 L 29.292969 10.585938 L 29.292969 9.757812 L 26.828125 9.757812 L 26.828125 14.25 L 27.597656 14.25 L 27.597656 12.394531 L 29.066406 12.394531 L 29.066406 11.625 L 27.597656 11.625 Z M 27.597656 10.585938 "/>
<path style=" stroke:none;fill-rule:nonzero;fill:rgb(52.54902%,41.960784%,6.27451%);fill-opacity:1;" d="M 26.828125 9.757812 L 26.75 9.757812 L 26.75 14.324219 L 27.671875 14.324219 L 27.671875 12.46875 L 29.140625 12.46875 L 29.140625 11.550781 L 27.671875 11.550781 L 27.671875 10.664062 L 29.367188 10.664062 L 29.367188 9.679688 L 26.75 9.679688 L 26.75 9.757812 L 26.828125 9.757812 L 26.828125 9.832031 L 29.21875 9.832031 L 29.21875 10.511719 L 27.523438 10.511719 L 27.523438 11.699219 L 28.992188 11.699219 L 28.992188 12.316406 L 27.523438 12.316406 L 27.523438 14.175781 L 26.902344 14.175781 L 26.902344 9.757812 L 26.828125 9.757812 L 26.828125 9.832031 Z M 26.828125 9.757812 "/>
<path style=" stroke:none;fill-rule:nonzero;fill:rgb(52.54902%,41.960784%,6.27451%);fill-opacity:1;" d="M 9.089844 14.472656 L 9.089844 11.648438 L 8.742188 11.648438 L 8.742188 10.351562 L 9.933594 10.453125 L 9.90625 9.585938 L 11.316406 8.464844 L 11.269531 8.101562 L 12.289062 7.425781 L 12.535156 7.265625 L 11.632812 7.023438 L 11.851562 6.953125 L 10.835938 6.792969 L 11.039062 6.664062 L 10.398438 6.53125 L 10.734375 6.402344 L 10.007812 6.214844 L 10.195312 5.957031 L 9.527344 5.871094 L 9.757812 5.710938 L 9.296875 5.503906 C 10.046875 5.285156 10.765625 5.292969 11.453125 5.523438 L 13.398438 6.691406 L 14.554688 5.949219 L 14.273438 5.835938 L 13.996094 4.90625 L 14.226562 3.277344 L 14.21875 3.078125 C 14.402344 2.898438 14.628906 2.753906 14.9375 2.648438 C 15.101562 2.589844 15.621094 2.527344 15.738281 2.546875 C 15.96875 2.589844 16.816406 2.953125 16.816406 2.953125 L 16.84375 3.132812 L 17.097656 3.40625 L 17.585938 5.144531 L 17.511719 5.574219 L 17.054688 5.921875 L 17.933594 6.304688 L 18.363281 6.367188 L 18.664062 6.449219 L 18.804688 6.714844 L 20.945312 8.050781 L 21.050781 8.5 L 21.238281 8.515625 L 21.742188 9.011719 L 21.761719 9.574219 L 21.835938 9.738281 L 22.519531 10.179688 L 22.648438 10.265625 L 23.40625 10.222656 L 23.40625 11.460938 L 23.011719 11.460938 L 23.011719 14.980469 L 9.105469 14.980469 Z M 9.089844 14.472656 "/>
<path style=" stroke:none;fill-rule:nonzero;fill:rgb(90.196078%,78.039216%,46.666667%);fill-opacity:1;" d="M 8.867188 10.480469 L 8.867188 11.511719 L 16.191406 11.667969 L 23.246094 11.34375 L 23.273438 11.34375 L 23.273438 10.335938 L 16.613281 11.035156 L 16.160156 11.34375 L 15.6875 11.078125 Z M 8.867188 10.480469 "/>
<path style=" stroke:none;fill-rule:nonzero;fill:rgb(90.196078%,78.039216%,46.666667%);fill-opacity:1;" d="M 22.894531 14.878906 L 9.21875 14.878906 L 9.222656 11.535156 L 9.222656 11.640625 L 16.183594 11.761719 L 22.894531 11.46875 Z M 22.894531 14.878906 "/>
<path style=" stroke:none;fill-rule:nonzero;fill:rgb(90.196078%,78.039216%,46.666667%);fill-opacity:1;" d="M 10.125 10.464844 L 13.042969 10.71875 C 13.042969 10.71875 13.035156 10.515625 13.21875 10.414062 C 13.398438 10.316406 13.617188 10.113281 13.617188 10.113281 L 13.597656 9.617188 L 13.175781 8.851562 C 13.175781 8.851562 13.683594 9.3125 13.710938 9.34375 C 13.742188 9.371094 13.761719 10.003906 13.761719 10.003906 C 13.761719 10.003906 14.191406 10.15625 14.222656 10.214844 C 14.25 10.273438 14.859375 10.191406 14.859375 10.191406 L 15.152344 10.089844 C 15.152344 10.089844 14.746094 9.855469 14.492188 9.609375 C 14.234375 9.363281 14.15625 9.132812 14.003906 8.945312 C 13.851562 8.757812 13.574219 8.464844 13.574219 8.464844 L 13.414062 8.097656 L 12.375 7.640625 L 11.492188 8.152344 L 11.515625 8.527344 L 10.117188 9.628906 Z M 10.125 10.464844 "/>
<path style=" stroke:none;fill-rule:nonzero;fill:rgb(52.54902%,41.960784%,6.27451%);fill-opacity:1;" d="M 11.546875 10.136719 C 11.546875 10.136719 12.289062 9.601562 12.484375 9.617188 C 12.539062 9.621094 12.636719 9.621094 12.738281 9.625 L 12.847656 9.734375 C 12.617188 9.785156 12.371094 9.839844 12.289062 9.859375 C 12.113281 9.90625 11.546875 10.136719 11.546875 10.136719 Z M 11.546875 10.136719 "/>
<path style=" stroke:none;fill-rule:evenodd;fill:rgb(90.196078%,78.039216%,46.666667%);fill-opacity:1;" d="M 12.671875 7.296875 L 13.386719 7.734375 L 13.261719 7.742188 L 13.609375 7.988281 L 13.472656 7.972656 L 13.953125 8.515625 L 14.417969 9.226562 L 14.808594 9.710938 L 15.316406 10.121094 L 15.761719 10.746094 L 15.871094 10.90625 C 15.871094 10.90625 15.476562 10.171875 15.40625 10.003906 C 15.332031 9.839844 14.847656 8.945312 14.679688 8.621094 C 14.511719 8.296875 13.894531 7.476562 13.894531 7.476562 L 13.304688 6.726562 L 12.390625 6.1875 L 11.453125 5.617188 C 11.003906 5.402344 9.972656 5.378906 9.628906 5.53125 L 9.964844 5.710938 L 9.703125 5.835938 L 10.355469 5.890625 L 10.125 6.164062 L 11.003906 6.375 L 10.625 6.511719 L 11.292969 6.597656 L 11.046875 6.734375 L 12.105469 6.886719 L 11.894531 7.007812 L 12.703125 7.1875 Z M 12.671875 7.296875 "/>
<path style=" stroke:none;fill-rule:nonzero;fill:rgb(90.196078%,78.039216%,46.666667%);fill-opacity:1;" d="M 13.660156 10.769531 L 13.980469 10.328125 C 13.980469 10.328125 14.164062 10.359375 14.453125 10.351562 C 14.746094 10.34375 14.949219 10.300781 14.949219 10.300781 L 15.164062 10.265625 L 15.703125 10.863281 L 15.457031 10.914062 L 15.246094 10.863281 L 14.070312 10.804688 Z M 13.660156 10.769531 "/>
<path style=" stroke:none;fill-rule:evenodd;fill:rgb(90.196078%,78.039216%,46.666667%);fill-opacity:1;" d="M 13.585938 6.796875 L 14.890625 8.617188 L 15.964844 10.976562 L 16.109375 11.144531 L 16.414062 10.90625 L 16.816406 9.710938 L 16.894531 9.507812 L 16.859375 9.925781 L 17.382812 9.644531 L 17.898438 8.890625 L 17.648438 9.546875 L 18.144531 9.496094 L 16.96875 10.003906 L 16.75 10.421875 C 16.75 10.421875 17.554688 10.070312 17.722656 10.046875 C 17.746094 10.046875 18.808594 10.433594 19.015625 10.625 C 19.125 10.726562 22.34375 10.292969 22.34375 10.292969 L 21.457031 9.652344 C 21.457031 9.652344 21.160156 9.34375 20.644531 9.34375 C 20.128906 9.34375 19.730469 9.765625 19.746094 9.765625 L 19.097656 9.609375 L 19.65625 9.53125 L 20.5 9.191406 L 21.492188 9.019531 L 21.113281 8.605469 L 19.953125 8.570312 L 19.234375 9.191406 L 19.691406 8.433594 L 20.710938 8.054688 L 18.769531 6.890625 L 18.089844 7.226562 L 18.230469 6.765625 L 18.683594 6.699219 L 18.496094 6.515625 L 18.070312 6.433594 L 17.753906 6.527344 L 17.753906 6.332031 L 17.339844 6.152344 L 16.867188 5.996094 L 16.960938 6.34375 L 16.769531 7.382812 C 16.769531 7.382812 16.03125 8.757812 16.039062 8.742188 C 16.03125 8.75 16.050781 9.253906 16.066406 9.261719 C 16.09375 9.277344 15.660156 8.398438 15.660156 8.398438 L 14.554688 6.777344 L 14.746094 6.863281 L 14.757812 6.007812 L 14.773438 5.839844 L 14.601562 6.035156 L 14.03125 6.488281 Z M 13.585938 6.796875 "/>
<path style=" stroke:none;fill-rule:nonzero;fill:rgb(52.54902%,41.960784%,6.27451%);fill-opacity:1;" d="M 14.265625 6.917969 L 14.628906 7.933594 L 14.273438 7.5 L 14.171875 7.105469 L 13.976562 6.859375 L 13.851562 6.75 L 14.355469 6.433594 L 14.574219 6.234375 Z M 14.265625 6.917969 "/>
<path style=" stroke:none;fill-rule:nonzero;fill:rgb(52.54902%,41.960784%,6.27451%);fill-opacity:1;" d="M 16.777344 8.542969 L 17.535156 6.953125 L 16.589844 8.484375 L 16.453125 9.25 L 16.109375 10.164062 L 15.441406 8.976562 L 15.121094 8.550781 L 15.753906 9.804688 L 15.90625 10.265625 L 16.097656 10.597656 L 16.671875 9.261719 Z M 16.777344 8.542969 "/>
<path style=" stroke:none;fill-rule:nonzero;fill:rgb(52.54902%,41.960784%,6.27451%);fill-opacity:1;" d="M 17.585938 8.023438 L 17.183594 8.882812 L 17.382812 7.859375 L 17.992188 7.304688 Z M 17.585938 8.023438 "/>
<path style=" stroke:none;fill-rule:nonzero;fill:rgb(52.54902%,41.960784%,6.27451%);fill-opacity:1;" d="M 18.515625 8.371094 C 18.558594 8.3125 19.34375 7.773438 19.34375 7.773438 L 19.679688 7.789062 L 19.863281 7.894531 Z M 18.515625 8.371094 "/>
<path style=" stroke:none;fill-rule:nonzero;fill:rgb(90.196078%,78.039216%,46.666667%);fill-opacity:1;" d="M 16.640625 10.855469 C 16.640625 10.855469 17.054688 10.464844 17.492188 10.292969 C 17.492188 10.292969 17.855469 10.378906 18.101562 10.496094 C 18.347656 10.609375 18.464844 10.734375 18.464844 10.734375 Z M 16.640625 10.855469 "/>
<path style=" stroke:none;fill-rule:nonzero;fill:rgb(52.54902%,41.960784%,6.27451%);fill-opacity:1;" d="M 11.664062 8.542969 C 11.84375 8.542969 12.871094 8.777344 12.871094 8.777344 C 12.871094 8.777344 11.679688 8.195312 11.679688 8.175781 C 11.679688 8.175781 11.648438 8.542969 11.664062 8.542969 Z M 11.664062 8.542969 "/>
<path style=" stroke:none;fill-rule:nonzero;fill:rgb(52.54902%,41.960784%,6.27451%);fill-opacity:1;" d="M 17.140625 7.117188 L 16.734375 7.960938 L 17.046875 6.953125 L 17.6875 6.539062 Z M 17.140625 7.117188 "/>
<path style=" stroke:none;fill-rule:nonzero;fill:rgb(52.54902%,41.960784%,6.27451%);fill-opacity:1;" d="M 15.121094 9.746094 L 13.65625 7.691406 L 12.984375 7.195312 L 13.152344 7.175781 L 12.992188 6.984375 L 12.238281 6.777344 L 12.667969 6.792969 L 12.363281 6.628906 L 11.707031 6.519531 L 12.007812 6.4375 L 11.328125 6.070312 L 10.777344 5.984375 L 11.007812 5.898438 L 10.878906 5.828125 L 13.109375 6.878906 L 13.769531 7.640625 L 14.613281 8.976562 Z M 15.121094 9.746094 "/>
<path style=" stroke:none;fill-rule:nonzero;fill:rgb(90.196078%,78.039216%,46.666667%);fill-opacity:1;" d="M 16.699219 4.953125 C 16.511719 5.683594 16.015625 5.683594 16.015625 5.683594 L 16.445312 5.71875 L 16.496094 7.1875 L 15.988281 8.21875 L 14.875 6.828125 L 15.1875 5.640625 C 15.1875 5.640625 14.859375 5.214844 14.773438 4.582031 C 14.671875 3.851562 14.953125 3.453125 14.953125 3.453125 L 15.761719 3.515625 L 15.304688 3.621094 C 15.304688 3.621094 15.621094 3.679688 16.042969 3.679688 C 16.082031 3.679688 16.683594 3.503906 16.683594 3.503906 C 16.683594 3.503906 16.878906 4.25 16.699219 4.953125 Z M 16.699219 4.953125 "/>
<path style=" stroke:none;fill-rule:nonzero;fill:rgb(90.196078%,78.039216%,46.666667%);fill-opacity:1;" d="M 14.324219 3.1875 C 14.417969 2.972656 14.679688 2.804688 15.101562 2.6875 C 15.207031 2.660156 15.660156 2.613281 15.871094 2.675781 C 16.210938 2.761719 16.460938 2.863281 16.628906 2.980469 C 16.1875 3.125 15.640625 3.21875 15.136719 3.230469 L 15.457031 3.046875 L 14.640625 3.328125 L 14.394531 3.710938 Z M 14.324219 3.1875 "/>
<path style=" stroke:none;fill-rule:nonzero;fill:rgb(90.196078%,78.039216%,46.666667%);fill-opacity:1;" d="M 14.585938 5.386719 L 14.714844 5.605469 L 14.292969 5.445312 L 14.089844 4.832031 L 14.359375 4.109375 L 14.421875 4.230469 L 14.390625 4.75 L 14.277344 4.71875 Z M 14.585938 5.386719 "/>
<path style=" stroke:none;fill-rule:nonzero;fill:rgb(90.196078%,78.039216%,46.666667%);fill-opacity:1;" d="M 17.191406 4.601562 L 17.148438 4.269531 L 16.960938 5.230469 L 17.214844 4.941406 L 17.207031 5.429688 L 17.394531 5.121094 L 17.265625 4.488281 Z M 17.191406 4.601562 "/>
<path style=" stroke:none;fill-rule:nonzero;fill:rgb(52.54902%,41.960784%,6.27451%);fill-opacity:1;" d="M 15.382812 5.082031 C 15.382812 5.082031 15.566406 5.023438 15.710938 5.003906 C 15.855469 4.980469 16.148438 5.074219 16.148438 5.074219 C 16.03125 5.269531 15.578125 5.296875 15.382812 5.082031 Z M 15.382812 5.082031 "/>
<path style=" stroke:none;fill-rule:nonzero;fill:rgb(52.54902%,41.960784%,6.27451%);fill-opacity:1;" d="M 15.574219 4.769531 L 15.574219 4.699219 L 15.65625 4.730469 L 15.71875 4.800781 Z M 15.574219 4.769531 "/>
<path style=" stroke:none;fill-rule:nonzero;fill:rgb(52.54902%,41.960784%,6.27451%);fill-opacity:1;" d="M 16.625 4.003906 L 16.441406 4.074219 C 16.429688 4.074219 16.414062 4.078125 16.394531 4.085938 L 16.480469 4.09375 C 16.414062 4.152344 16.289062 4.207031 16.167969 4.21875 L 16.027344 4.128906 L 16.0625 4.113281 L 16.058594 4.109375 L 15.972656 4.101562 L 16.03125 4 L 16.421875 3.953125 Z M 16.625 4.003906 "/>
<path style=" stroke:none;fill-rule:nonzero;fill:rgb(52.54902%,41.960784%,6.27451%);fill-opacity:1;" d="M 15.601562 4.113281 L 15.609375 4.308594 L 15.480469 4.148438 L 15.398438 4.21875 C 15.398438 4.21875 15.207031 4.242188 15.082031 4.214844 C 15.007812 4.199219 15 4.140625 15.003906 4.113281 L 14.917969 4.089844 L 15.09375 4.074219 C 15.039062 4.058594 14.859375 4.015625 14.859375 4.015625 L 15.074219 3.964844 L 15.546875 4.007812 L 15.605469 4.113281 Z M 15.601562 4.113281 "/>
<path style=" stroke:none;fill-rule:nonzero;fill:rgb(52.54902%,41.960784%,6.27451%);fill-opacity:1;" d="M 11.167969 9.003906 L 11.523438 8.792969 L 12.273438 8.78125 L 13.101562 9.46875 Z M 11.167969 9.003906 "/>
<path style=" stroke:none;fill-rule:nonzero;fill:rgb(52.54902%,41.960784%,6.27451%);fill-opacity:1;" d="M 9.050781 10.8125 L 9.042969 10.722656 L 15.613281 11.1875 L 15.699219 11.28125 Z M 9.050781 10.8125 "/>
<path style=" stroke:none;fill-rule:nonzero;fill:rgb(52.54902%,41.960784%,6.27451%);fill-opacity:1;" d="M 15.773438 11.363281 L 15.859375 11.464844 L 9.039062 11.117188 L 9.03125 11.03125 Z M 15.773438 11.363281 "/>
<path style=" stroke:none;fill-rule:nonzero;fill:rgb(52.54902%,41.960784%,6.27451%);fill-opacity:1;" d="M 15.914062 11.523438 L 16.003906 11.621094 L 9.058594 11.394531 L 9.03125 11.277344 Z M 15.914062 11.523438 "/>
<path style=" stroke:none;fill-rule:nonzero;fill:rgb(52.54902%,41.960784%,6.27451%);fill-opacity:1;" d="M 16.699219 11.253906 L 16.765625 11.15625 L 23.121094 10.5625 L 23.085938 10.683594 Z M 16.699219 11.253906 "/>
<path style=" stroke:none;fill-rule:nonzero;fill:rgb(52.54902%,41.960784%,6.27451%);fill-opacity:1;" d="M 16.601562 11.394531 L 16.671875 11.292969 L 23.136719 10.871094 L 23.125 10.972656 Z M 16.601562 11.394531 "/>
<path style=" stroke:none;fill-rule:nonzero;fill:rgb(52.54902%,41.960784%,6.27451%);fill-opacity:1;" d="M 16.476562 11.574219 L 16.546875 11.472656 L 23.140625 11.117188 L 23.117188 11.234375 Z M 16.476562 11.574219 "/>
<path style=" stroke:none;fill-rule:nonzero;fill:rgb(1.960784%,39.215686%,17.254902%);fill-opacity:1;" d="M 11.429688 13.960938 L 10.292969 13.960938 L 10.292969 13.480469 L 11.316406 13.480469 L 11.316406 13.144531 L 10.292969 13.144531 L 10.292969 12.722656 L 11.40625 12.722656 L 11.40625 12.359375 L 9.828125 12.359375 L 9.828125 14.324219 L 11.429688 14.324219 Z M 11.429688 13.960938 "/>
<path style=" stroke:none;fill-rule:nonzero;fill:rgb(1.960784%,39.215686%,17.254902%);fill-opacity:1;" d="M 13.957031 13.960938 L 12.929688 13.960938 L 12.929688 12.359375 L 12.464844 12.359375 L 12.464844 14.324219 L 13.957031 14.324219 Z M 13.957031 13.960938 "/>
<path style=" stroke:none;fill-rule:nonzero;fill:rgb(1.960784%,39.215686%,17.254902%);fill-opacity:1;" d="M 16.347656 13.019531 L 16.796875 13.019531 C 16.78125 12.90625 16.75 12.804688 16.695312 12.714844 C 16.644531 12.628906 16.574219 12.554688 16.492188 12.496094 C 16.410156 12.433594 16.316406 12.390625 16.214844 12.359375 C 16.109375 12.328125 16 12.3125 15.886719 12.3125 C 15.722656 12.3125 15.578125 12.335938 15.449219 12.390625 C 15.320312 12.445312 15.210938 12.515625 15.121094 12.609375 C 15.03125 12.703125 14.964844 12.816406 14.917969 12.941406 C 14.871094 13.066406 14.847656 13.203125 14.847656 13.347656 C 14.847656 13.492188 14.871094 13.625 14.917969 13.75 C 14.964844 13.875 15.03125 13.980469 15.121094 14.074219 C 15.210938 14.164062 15.320312 14.238281 15.449219 14.292969 C 15.578125 14.34375 15.722656 14.367188 15.886719 14.367188 C 16.015625 14.367188 16.136719 14.351562 16.242188 14.3125 C 16.351562 14.277344 16.445312 14.222656 16.527344 14.152344 C 16.609375 14.082031 16.671875 14 16.722656 13.898438 C 16.773438 13.800781 16.800781 13.691406 16.816406 13.566406 L 16.363281 13.566406 C 16.347656 13.699219 16.296875 13.804688 16.214844 13.886719 C 16.136719 13.96875 16.027344 14.007812 15.886719 14.007812 C 15.78125 14.007812 15.691406 13.988281 15.621094 13.953125 C 15.546875 13.914062 15.488281 13.863281 15.441406 13.800781 C 15.394531 13.738281 15.363281 13.667969 15.339844 13.59375 C 15.320312 13.511719 15.3125 13.433594 15.3125 13.347656 C 15.3125 13.261719 15.320312 13.179688 15.339844 13.097656 C 15.363281 13.019531 15.394531 12.945312 15.441406 12.882812 C 15.488281 12.820312 15.546875 12.769531 15.621094 12.730469 C 15.691406 12.695312 15.78125 12.675781 15.886719 12.675781 C 15.941406 12.675781 15.996094 12.683594 16.046875 12.703125 C 16.101562 12.71875 16.148438 12.742188 16.191406 12.773438 C 16.230469 12.804688 16.265625 12.839844 16.292969 12.882812 C 16.320312 12.925781 16.339844 12.96875 16.347656 13.019531 Z M 16.347656 13.019531 "/>
<path style=" stroke:none;fill-rule:nonzero;fill:rgb(1.960784%,39.215686%,17.254902%);fill-opacity:1;" d="M 18.316406 13.476562 L 19.171875 13.476562 L 19.171875 14.324219 L 19.636719 14.324219 L 19.636719 12.359375 L 19.171875 12.359375 L 19.171875 13.113281 L 18.316406 13.113281 L 18.316406 12.359375 L 17.851562 12.359375 L 17.851562 14.324219 L 18.316406 14.324219 Z M 18.316406 13.476562 "/>
<path style=" stroke:none;fill-rule:nonzero;fill:rgb(1.960784%,39.215686%,17.254902%);fill-opacity:1;" d="M 22.367188 13.960938 L 21.226562 13.960938 L 21.226562 13.480469 L 22.25 13.480469 L 22.25 13.144531 L 21.226562 13.144531 L 21.226562 12.722656 L 22.34375 12.722656 L 22.34375 12.359375 L 20.761719 12.359375 L 20.761719 14.324219 L 22.367188 14.324219 Z M 22.367188 13.960938 "/>
<path style=" stroke:none;fill-rule:nonzero;fill:rgb(90.196078%,78.039216%,46.666667%);fill-opacity:1;" d="M 14.324219 17.492188 L 14.324219 16.867188 L 14.832031 16.867188 L 14.832031 17.109375 L 15.070312 17.109375 L 15.070312 16.867188 L 15.582031 16.867188 L 15.582031 17.109375 L 15.816406 17.109375 L 15.816406 16.867188 L 16.324219 16.867188 L 16.324219 17.109375 L 16.558594 17.109375 L 16.558594 16.867188 L 17.066406 16.867188 L 17.066406 17.109375 L 17.300781 17.109375 L 17.300781 16.867188 L 17.808594 16.867188 L 17.808594 17.492188 L 17.496094 17.492188 L 17.496094 18.171875 L 18.101562 18.171875 L 18.101562 18.660156 L 18.578125 18.660156 L 18.578125 18.171875 L 19.605469 18.171875 L 19.605469 19.105469 L 12.558594 19.105469 L 12.558594 18.171875 L 13.585938 18.171875 L 13.585938 18.660156 L 14.066406 18.660156 L 14.066406 18.171875 L 14.714844 18.171875 L 14.714844 17.492188 Z M 13.757812 19.121094 L 18.453125 19.105469 C 18.679688 20.734375 19.667969 21.65625 21.425781 21.996094 L 21.425781 23.492188 L 10.722656 23.492188 L 10.722656 22.042969 C 12.710938 21.511719 13.722656 20.539062 13.757812 19.121094 Z M 17.226562 21.777344 C 17.226562 21.777344 17.160156 21.03125 16.21875 21.03125 C 15.277344 21.03125 15.1875 21.855469 15.1875 21.855469 L 15.1875 22.9375 L 17.210938 22.9375 Z M 17.226562 21.777344 "/>
<path style=" stroke:none;fill-rule:nonzero;fill:rgb(52.54902%,41.960784%,6.27451%);fill-opacity:1;" d="M 17.582031 18.257812 L 17.582031 17.40625 L 14.628906 17.40625 L 14.628906 17.492188 L 14.714844 17.492188 L 14.714844 17.578125 L 17.410156 17.578125 L 17.410156 18.085938 L 16.992188 18.085938 L 16.992188 18.578125 L 16.6875 18.578125 L 16.6875 18.085938 L 15.492188 18.085938 L 15.492188 18.578125 L 15.1875 18.578125 L 15.1875 18.085938 L 14.800781 18.085938 L 14.800781 17.492188 L 14.714844 17.492188 L 14.714844 17.578125 L 14.714844 17.492188 L 14.628906 17.492188 L 14.628906 18.257812 L 15.015625 18.257812 L 15.015625 18.746094 L 15.664062 18.746094 L 15.664062 18.257812 L 16.515625 18.257812 L 16.515625 18.746094 L 17.164062 18.746094 L 17.164062 18.257812 Z M 17.582031 18.257812 "/>
<path style=" stroke:none;fill-rule:nonzero;fill:rgb(52.54902%,41.960784%,6.27451%);fill-opacity:1;" d="M 14.324219 17.492188 L 14.410156 17.492188 L 14.410156 16.949219 L 14.746094 16.949219 L 14.746094 17.191406 L 15.15625 17.191406 L 15.15625 16.949219 L 15.496094 16.949219 L 15.496094 17.191406 L 15.902344 17.191406 L 15.902344 16.949219 L 16.238281 16.949219 L 16.238281 17.191406 L 16.644531 17.191406 L 16.644531 16.949219 L 16.980469 16.949219 L 16.980469 17.191406 L 17.386719 17.191406 L 17.386719 16.949219 L 17.726562 16.949219 L 17.726562 17.40625 L 14.324219 17.40625 L 14.324219 17.492188 L 14.410156 17.492188 L 14.324219 17.492188 L 14.324219 17.574219 L 17.894531 17.574219 L 17.894531 16.78125 L 17.21875 16.78125 L 17.21875 17.023438 L 17.152344 17.023438 L 17.152344 16.78125 L 16.476562 16.78125 L 16.476562 17.023438 L 16.410156 17.023438 L 16.410156 16.78125 L 15.730469 16.78125 L 15.730469 17.023438 L 15.664062 17.023438 L 15.664062 16.78125 L 14.984375 16.78125 L 14.984375 17.023438 L 14.914062 17.023438 L 14.914062 16.78125 L 14.238281 16.78125 L 14.238281 17.574219 L 14.324219 17.574219 Z M 14.324219 17.492188 "/>
<path style=" stroke:none;fill-rule:nonzero;fill:rgb(76.862745%,0.392157%,29.411765%);fill-opacity:1;" d="M 17.140625 22.902344 L 17.140625 22.859375 L 15.242188 22.859375 L 15.242188 21.871094 L 15.199219 21.871094 L 15.242188 21.875 C 15.277344 21.625 15.402344 21.4375 15.574219 21.3125 C 15.75 21.1875 15.96875 21.121094 16.191406 21.121094 C 16.410156 21.121094 16.632812 21.1875 16.800781 21.3125 C 16.96875 21.4375 17.089844 21.621094 17.113281 21.875 L 17.15625 21.871094 L 17.113281 21.867188 L 17.097656 22.902344 L 17.140625 22.902344 L 17.140625 22.859375 L 17.140625 22.902344 L 17.183594 22.902344 L 17.199219 21.867188 L 17.199219 21.863281 C 17.171875 21.589844 17.039062 21.382812 16.851562 21.242188 C 16.664062 21.105469 16.429688 21.039062 16.191406 21.039062 C 15.953125 21.039062 15.714844 21.105469 15.523438 21.242188 C 15.335938 21.378906 15.195312 21.589844 15.160156 21.863281 L 15.15625 21.867188 L 15.15625 22.945312 L 17.183594 22.945312 L 17.183594 22.902344 Z M 17.140625 22.902344 "/>
<path style=" stroke:none;fill-rule:nonzero;fill:rgb(52.54902%,41.960784%,6.27451%);fill-opacity:1;" d="M 13.5 18.746094 L 14.152344 18.746094 L 14.152344 18.257812 L 15.015625 18.257812 L 15.015625 18.746094 L 15.664062 18.746094 L 15.664062 18.257812 L 16.515625 18.257812 L 16.515625 18.746094 L 17.164062 18.746094 L 17.164062 18.257812 L 18.015625 18.257812 L 18.015625 18.746094 L 18.664062 18.746094 L 18.664062 18.257812 L 19.519531 18.257812 L 19.519531 19.019531 L 12.558594 19.019531 L 12.558594 19.105469 L 12.644531 19.105469 L 12.558594 19.105469 L 12.558594 19.191406 L 19.691406 19.191406 L 19.691406 18.085938 L 18.492188 18.085938 L 18.492188 18.574219 L 18.1875 18.574219 L 18.1875 18.085938 L 16.992188 18.085938 L 16.992188 18.574219 L 16.6875 18.574219 L 16.6875 18.085938 L 15.492188 18.085938 L 15.492188 18.574219 L 15.1875 18.574219 L 15.1875 18.085938 L 13.980469 18.085938 L 13.980469 18.574219 L 13.671875 18.574219 L 13.671875 18.085938 L 12.472656 18.085938 L 12.472656 19.191406 L 12.558594 19.191406 L 12.558594 19.105469 L 12.644531 19.105469 L 12.644531 18.257812 L 13.5 18.257812 Z M 13.5 18.746094 "/>
<path style=" stroke:none;fill-rule:nonzero;fill:rgb(52.54902%,41.960784%,6.27451%);fill-opacity:1;" d="M 18.542969 22.214844 L 20.449219 22.214844 L 20.449219 21.800781 L 20.332031 21.753906 L 18.542969 21.753906 Z M 20.621094 22.214844 L 21.339844 22.214844 L 21.339844 22.0625 C 21.085938 22.007812 20.84375 21.945312 20.621094 21.867188 Z M 21.339844 22.394531 L 19.519531 22.394531 L 19.519531 22.871094 L 21.339844 22.871094 Z M 19.558594 21.578125 L 19.96875 21.578125 C 19.824219 21.496094 19.6875 21.40625 19.558594 21.308594 Z M 18.777344 20.925781 L 19.148438 20.925781 C 19.023438 20.785156 18.910156 20.632812 18.8125 20.464844 L 18.777344 20.464844 Z M 17.402344 21.101562 L 17.371094 21.101562 Z M 17.203125 20.925781 L 18.605469 20.925781 L 18.605469 20.464844 L 16.84375 20.464844 L 17.242188 20.625 L 17.097656 20.820312 Z M 16.421875 20.464844 L 16.261719 20.464844 L 16.261719 20.574219 L 16.394531 20.574219 Z M 16.089844 20.574219 L 16.089844 20.464844 L 15.878906 20.464844 L 15.914062 20.574219 Z M 15.53125 20.464844 L 13.757812 20.464844 L 13.757812 20.925781 L 15.15625 20.925781 L 15.226562 20.847656 L 15.082031 20.695312 Z M 14.992188 21.105469 L 14.902344 21.105469 L 14.898438 21.207031 L 14.726562 21.207031 L 14.722656 21.175781 L 14.722656 21.105469 L 12.878906 21.105469 C 12.730469 21.230469 12.566406 21.347656 12.382812 21.457031 L 12.382812 21.578125 L 14.574219 21.578125 L 14.722656 21.175781 L 14.726562 21.207031 L 14.898438 21.207031 L 14.898438 21.105469 L 14.972656 21.128906 Z M 14.792969 21.753906 L 13.527344 21.753906 L 13.527344 22.214844 L 14.503906 22.214844 L 14.503906 22.078125 L 14.796875 22.078125 Z M 14.503906 22.394531 L 12.757812 22.394531 L 12.757812 22.871094 L 14.792969 22.871094 L 14.792969 22.675781 L 14.503906 22.675781 Z M 14.9375 22.871094 L 15.097656 22.871094 L 15.097656 22.6875 L 14.9375 22.6875 Z M 15.242188 22.871094 L 17.140625 22.871094 L 17.140625 21.882812 C 17.140625 21.78125 17.035156 21.117188 16.175781 21.117188 C 15.316406 21.117188 15.242188 21.886719 15.242188 21.886719 Z M 17.273438 22.871094 L 17.4375 22.871094 L 17.4375 22.660156 L 17.273438 22.660156 Z M 17.582031 22.871094 L 19.347656 22.871094 L 19.347656 22.394531 L 17.871094 22.394531 L 17.871094 22.644531 L 17.582031 22.644531 Z M 18.371094 21.753906 L 17.578125 21.753906 L 17.578125 21.660156 L 17.816406 21.578125 L 19.386719 21.578125 L 19.386719 21.164062 L 19.320312 21.105469 L 17.605469 21.101562 L 17.816406 21.578125 L 17.578125 21.660156 L 17.578125 22.050781 L 17.871094 22.050781 L 17.871094 22.214844 L 18.371094 22.214844 Z M 20.652344 23.050781 L 20.652344 23.402344 L 21.339844 23.402344 L 21.339844 23.050781 Z M 20.476562 23.402344 L 20.476562 23.050781 L 17.945312 23.050781 L 17.945312 23.402344 Z M 13.09375 23.402344 L 14.457031 23.402344 L 14.457031 23.566406 L 15.242188 23.566406 L 15.242188 23.402344 L 17.140625 23.402344 L 17.140625 23.050781 L 15.242188 23.050781 L 15.242188 23.566406 L 14.457031 23.566406 L 14.457031 23.050781 L 13.09375 23.050781 Z M 14.609375 23.402344 L 15.097656 23.402344 L 15.097656 23.074219 L 14.609375 23.074219 Z M 17.265625 23.402344 L 17.800781 23.402344 L 17.800781 23.082031 L 17.265625 23.078125 Z M 10.808594 22.871094 L 12.585938 22.871094 L 12.585938 22.394531 L 10.808594 22.394531 Z M 12.921875 23.050781 L 10.808594 23.050781 L 10.808594 23.402344 L 12.921875 23.402344 Z M 10.808594 22.214844 L 10.84375 22.214844 L 10.84375 22.089844 L 10.808594 22.101562 Z M 11.015625 22.214844 L 13.355469 22.214844 L 13.355469 21.753906 L 11.804688 21.753906 C 11.5625 21.859375 11.300781 21.957031 11.015625 22.039062 Z M 12.171875 21.578125 L 12.210938 21.578125 L 12.210938 21.554688 Z M 13.074219 20.925781 L 13.585938 20.925781 L 13.585938 20.464844 L 13.445312 20.464844 C 13.34375 20.628906 13.21875 20.78125 13.074219 20.925781 Z M 13.550781 20.289062 L 14.953125 20.289062 L 14.953125 19.824219 L 13.738281 19.824219 C 13.6875 19.988281 13.625 20.140625 13.550781 20.289062 Z M 15.125 20.289062 L 17.460938 20.289062 L 17.460938 19.824219 L 15.125 19.824219 Z M 17.632812 20.289062 L 18.71875 20.289062 C 18.644531 20.140625 18.582031 19.988281 18.527344 19.824219 L 17.632812 19.824219 Z M 13.78125 19.648438 L 16.066406 19.648438 L 16.066406 19.1875 L 13.839844 19.1875 C 13.832031 19.34375 13.8125 19.5 13.78125 19.648438 Z M 16.238281 19.648438 L 18.476562 19.648438 C 18.433594 19.5 18.402344 19.347656 18.378906 19.1875 L 16.238281 19.1875 Z M 13.539062 19.015625 L 18.527344 19.015625 L 18.539062 19.089844 C 18.648438 19.886719 18.945312 20.503906 19.425781 20.96875 C 19.679688 21.214844 19.988281 21.414062 20.355469 21.578125 C 20.675781 21.71875 21.039062 21.828125 21.445312 21.90625 L 21.511719 21.921875 L 21.511719 23.574219 L 10.636719 23.574219 L 10.636719 21.96875 L 10.699219 21.953125 C 11.683594 21.691406 12.421875 21.320312 12.910156 20.847656 C 13.394531 20.382812 13.644531 19.820312 13.671875 19.148438 Z M 17.726562 22.503906 L 17.726562 22.195312 L 17.28125 22.195312 L 17.277344 22.503906 Z M 17.433594 22.050781 L 17.4375 21.71875 L 17.269531 21.769531 C 17.269531 21.769531 17.285156 21.84375 17.285156 21.875 L 17.28125 22.050781 Z M 17.496094 21.214844 L 17.265625 21.320312 L 17.113281 21.402344 C 17.160156 21.472656 17.199219 21.542969 17.226562 21.621094 L 17.621094 21.496094 Z M 17.015625 20.933594 L 16.855469 21.148438 C 16.925781 21.195312 16.953125 21.222656 17.011719 21.28125 L 17.242188 21.171875 Z M 16.71875 21.074219 L 16.890625 20.859375 L 17.015625 20.6875 L 16.558594 20.507812 L 16.550781 20.574219 L 16.457031 21 C 16.550781 21.015625 16.625 21.039062 16.71875 21.074219 Z M 16.28125 20.976562 L 16.351562 20.714844 L 15.980469 20.714844 L 16.070312 20.980469 C 16.15625 20.972656 16.203125 20.972656 16.28125 20.976562 Z M 15.914062 21.003906 L 15.742188 20.519531 L 15.320312 20.734375 L 15.660156 21.09375 C 15.761719 21.046875 15.785156 21.035156 15.914062 21.003906 Z M 15.316406 20.949219 L 15.117188 21.183594 L 15.386719 21.28125 C 15.433594 21.238281 15.46875 21.210938 15.523438 21.171875 Z M 14.855469 21.238281 L 14.75 21.519531 L 15.148438 21.652344 C 15.179688 21.566406 15.210938 21.492188 15.273438 21.410156 L 14.988281 21.289062 Z M 15.109375 21.796875 L 14.9375 21.746094 L 14.945312 22.078125 L 15.097656 22.078125 L 15.097656 21.871094 Z M 15.097656 22.222656 L 14.648438 22.222656 L 14.648438 22.535156 L 15.097656 22.535156 Z M 15.097656 22.222656 "/>
<path style=" stroke:none;fill-rule:evenodd;fill:rgb(90.196078%,78.039216%,46.666667%);fill-opacity:1;" d="M 15.902344 25.503906 L 21.007812 27.433594 L 21.085938 27.542969 L 19.867188 27.542969 L 19.867188 29.15625 L 20.484375 29.15625 L 20.484375 30.1875 L 19.835938 30.1875 L 19.820312 30.613281 L 20.46875 30.613281 L 20.46875 31.097656 L 11.320312 31.097656 L 11.320312 30.644531 L 11.921875 30.644531 L 11.921875 30.171875 L 11.351562 30.171875 L 11.351562 29.140625 L 11.96875 29.140625 L 11.96875 27.558594 L 10.53125 27.558594 L 10.53125 27.496094 Z M 13.707031 30.15625 L 13.707031 30.613281 L 18.113281 30.613281 L 18.113281 30.15625 Z M 13.707031 30.15625 "/>
<path style=" stroke:none;fill-rule:nonzero;fill:rgb(52.54902%,41.960784%,6.27451%);fill-opacity:1;" d="M 12.558594 29.207031 L 12.558594 30.050781 L 12.925781 30.050781 L 12.925781 29.207031 Z M 12.386719 30.050781 L 12.386719 29.207031 L 12.019531 29.207031 L 12.019531 30.050781 Z M 13.09375 29.207031 L 13.09375 30.050781 L 13.460938 30.050781 L 13.460938 29.207031 Z M 13.632812 29.207031 L 13.632812 30.050781 L 14 30.050781 L 14 29.207031 Z M 14.171875 29.207031 L 14.171875 30.050781 L 14.539062 30.050781 L 14.539062 29.207031 Z M 14.710938 29.207031 L 14.710938 30.050781 L 15.078125 30.050781 L 15.078125 29.207031 Z M 15.25 29.207031 L 15.25 30.050781 L 15.613281 30.050781 L 15.613281 29.207031 Z M 15.785156 29.207031 L 15.785156 30.050781 L 16.152344 30.050781 L 16.152344 29.207031 Z M 16.324219 29.207031 L 16.324219 30.050781 L 16.691406 30.050781 L 16.691406 29.207031 Z M 16.863281 29.207031 L 16.863281 30.050781 L 17.230469 30.050781 L 17.230469 29.207031 Z M 17.402344 29.207031 L 17.402344 30.050781 L 17.765625 30.050781 L 17.765625 29.207031 Z M 17.9375 29.207031 L 17.9375 30.050781 L 18.304688 30.050781 L 18.304688 29.207031 Z M 18.476562 29.207031 L 18.476562 30.050781 L 18.84375 30.050781 L 18.84375 29.207031 Z M 19.015625 29.207031 L 19.015625 30.050781 L 19.382812 30.050781 L 19.382812 29.207031 Z M 19.554688 29.207031 L 19.554688 30.050781 L 19.921875 30.050781 L 19.921875 29.207031 Z M 20.089844 29.207031 L 20.089844 30.050781 L 20.390625 30.050781 L 20.390625 29.207031 Z M 20.503906 27.320312 L 20.503906 27.402344 L 20.710938 27.402344 Z M 20.332031 27.402344 L 20.332031 27.253906 L 19.964844 27.113281 L 19.964844 27.402344 Z M 19.960938 26.929688 L 21.199219 27.40625 L 21.167969 27.574219 L 19.988281 27.574219 L 19.988281 29.046875 L 20.550781 29.046875 L 20.550781 30.210938 L 19.914062 30.210938 L 19.914062 30.515625 L 20.566406 30.515625 L 20.566406 31.128906 L 11.261719 31.128906 L 11.261719 30.515625 L 11.84375 30.515625 L 11.84375 30.210938 L 11.277344 30.210938 L 11.277344 29.046875 L 11.808594 29.046875 L 11.808594 27.574219 L 10.449219 27.574219 L 10.417969 27.40625 L 15.90625 25.363281 Z M 19.792969 27.402344 L 19.792969 27.046875 L 19.425781 26.90625 L 19.425781 27.402344 Z M 19.253906 27.402344 L 19.253906 26.839844 L 18.886719 26.699219 L 18.886719 27.402344 Z M 18.71875 27.402344 L 18.71875 26.632812 L 18.351562 26.492188 L 18.351562 27.402344 Z M 18.179688 27.402344 L 18.179688 26.425781 L 17.8125 26.285156 L 17.8125 27.402344 Z M 17.640625 27.402344 L 17.640625 26.21875 L 17.273438 26.074219 L 17.273438 27.402344 Z M 17.101562 27.402344 L 17.101562 26.011719 L 16.738281 25.867188 L 16.738281 27.402344 Z M 16.566406 27.402344 L 16.566406 25.800781 L 16.199219 25.660156 L 16.199219 27.402344 Z M 16.027344 27.402344 L 16.027344 25.59375 L 15.90625 25.546875 L 15.660156 25.640625 L 15.660156 27.402344 Z M 15.488281 27.402344 L 15.488281 25.703125 L 15.121094 25.839844 L 15.121094 27.402344 Z M 14.953125 27.402344 L 14.953125 25.902344 L 14.585938 26.039062 L 14.585938 27.402344 Z M 14.414062 27.402344 L 14.414062 26.101562 L 14.046875 26.238281 L 14.046875 27.402344 Z M 13.875 27.402344 L 13.875 26.304688 L 13.507812 26.441406 L 13.507812 27.402344 Z M 13.335938 27.402344 L 13.335938 26.503906 L 12.96875 26.640625 L 12.96875 27.402344 Z M 12.800781 27.402344 L 12.800781 26.703125 L 12.433594 26.839844 L 12.433594 27.402344 Z M 12.261719 27.402344 L 12.261719 26.902344 L 11.894531 27.039062 L 11.894531 27.402344 Z M 11.722656 27.402344 L 11.722656 27.105469 L 11.355469 27.242188 L 11.355469 27.402344 Z M 11.183594 27.402344 L 11.183594 27.304688 L 10.925781 27.402344 Z M 11.433594 30.683594 L 11.433594 30.957031 L 20.394531 30.957031 L 20.394531 30.683594 Z M 18.03125 30.210938 L 13.800781 30.210938 L 13.800781 30.515625 L 18.03125 30.515625 Z M 18.199219 30.214844 L 18.199219 30.511719 L 19.746094 30.511719 L 19.746094 30.214844 Z M 12.019531 30.214844 L 12.019531 30.511719 L 13.628906 30.511719 L 13.628906 30.214844 Z M 11.484375 29.207031 L 11.480469 30.050781 L 11.847656 30.050781 L 11.847656 29.207031 Z M 12.109375 27.640625 L 12.109375 28.980469 L 19.6875 28.980469 L 19.6875 27.636719 Z M 12.109375 27.640625 "/>
</g>
</svg>
