<?xml version="1.0" encoding="UTF-8"?>
<svg xmlns="http://www.w3.org/2000/svg" xmlns:xlink="http://www.w3.org/1999/xlink" width="32px" height="32px" viewBox="0 0 32 32" version="1.1">
<g id="surface1">
<path style="fill-rule:evenodd;fill:rgb(0%,0%,0%);fill-opacity:1;stroke-width:1;stroke-linecap:butt;stroke-linejoin:miter;stroke:rgb(0%,0%,0%);stroke-opacity:1;stroke-miterlimit:4;" d="M 74.642071 174.482137 C 124.737539 196.399952 206.88678 193.799534 262.019269 152.192833 C 339.131489 208.659069 413.313077 202.900999 484.106124 152.192833 C 531.270962 186.276894 603.895653 200.857813 672.032816 175.132242 L 702.529691 217.574791 C 622.85317 324.006216 652.342641 425.794036 734.491882 515.322739 L 700.056972 550.33552 C 707.841459 779.915348 529.988811 834.709886 427.966231 840.375084 L 373.016906 885.32518 L 318.525492 841.025189 C 136.276897 825.329804 40.023996 729.11431 45.97684 550.892753 L 10.534525 515.044123 C 79.770674 440.096339 131.880951 337.658414 42.863044 217.574791 Z M 74.642071 174.482137 " transform="matrix(0.0426529,0,0,0.0420605,0.0897341,-5.745062)"/>
<path style=" stroke:none;fill-rule:evenodd;fill:rgb(0%,30.196078%,59.607843%);fill-opacity:1;" d="M 3.449219 17.230469 L 28.46875 17.230469 C 29.125 24.058594 24.726562 27.746094 18.039062 28.109375 L 13.789062 28.121094 C 7.390625 27.664062 2.621094 24.335938 3.449219 17.230469 Z M 3.449219 17.230469 "/>
<path style=" stroke:none;fill-rule:nonzero;fill:rgb(64.705882%,0%,26.666667%);fill-opacity:1;" d="M 14.234375 17.3125 L 17.78125 17.3125 L 17.78125 28.222656 L 14.234375 28.222656 Z M 14.234375 17.3125 "/>
<path style=" stroke:none;fill-rule:nonzero;fill:rgb(64.705882%,0%,26.666667%);fill-opacity:1;" d="M 7.183594 17.3125 L 10.726562 17.3125 L 10.726562 27.0625 L 7.183594 27.0625 Z M 7.183594 17.3125 "/>
<path style=" stroke:none;fill-rule:nonzero;fill:rgb(64.705882%,0%,26.666667%);fill-opacity:1;" d="M 8.417969 26.5625 L 10.726562 26.5625 L 10.726562 27.566406 L 8.417969 27.566406 Z M 8.417969 26.5625 "/>
<path style=" stroke:none;fill-rule:nonzero;fill:rgb(64.705882%,0%,26.666667%);fill-opacity:1;" d="M 21.25 17.3125 L 24.792969 17.3125 L 24.792969 27.0625 L 21.25 27.0625 Z M 21.25 17.3125 "/>
<path style=" stroke:none;fill-rule:nonzero;fill:rgb(64.705882%,0%,26.666667%);fill-opacity:1;" d="M 21.25 26.5625 L 23.558594 26.5625 L 23.558594 27.566406 L 21.25 27.566406 Z M 21.25 26.5625 "/>
<path style=" stroke:none;fill-rule:evenodd;fill:rgb(100%,100%,100%);fill-opacity:1;" d="M 15.890625 3.847656 L 15.890625 13.539062 L 3.949219 13.621094 L 5.179688 8.960938 L 3.648438 3.378906 L 11.207031 2.421875 Z M 15.890625 3.847656 "/>
<path style=" stroke:none;fill-rule:evenodd;fill:rgb(100%,92.941176%,0.784314%);fill-opacity:1;" d="M 16.066406 3.847656 L 16.066406 13.539062 L 28.007812 13.621094 L 26.777344 8.960938 L 28.308594 3.378906 L 20.75 2.421875 Z M 16.066406 3.847656 "/>
<path style=" stroke:none;fill-rule:nonzero;fill:rgb(85.882353%,0%,18.823529%);fill-opacity:1;" d="M 8.992188 2.699219 L 12.414062 2.699219 L 12.414062 13.476562 L 8.992188 13.476562 Z M 8.992188 2.699219 "/>
<path style=" stroke:none;fill-rule:nonzero;fill:rgb(85.882353%,0%,18.823529%);fill-opacity:1;" d="M 15.890625 6.71875 L 15.890625 10.09375 L 5.238281 10.09375 L 5.238281 6.71875 Z M 15.890625 6.71875 "/>
<path style=" stroke:none;fill-rule:nonzero;fill:rgb(85.882353%,0%,18.823529%);fill-opacity:1;" d="M 17.136719 3.460938 L 18.402344 3.460938 L 18.402344 13.40625 L 17.136719 13.40625 Z M 17.136719 3.460938 "/>
<path style=" stroke:none;fill-rule:nonzero;fill:rgb(85.882353%,0%,18.823529%);fill-opacity:1;" d="M 19.539062 2.75 L 20.808594 2.75 L 20.808594 13.429688 L 19.539062 13.429688 Z M 19.539062 2.75 "/>
<path style=" stroke:none;fill-rule:nonzero;fill:rgb(85.882353%,0%,18.823529%);fill-opacity:1;" d="M 21.960938 3.351562 L 23.226562 3.351562 L 23.226562 13.453125 L 21.960938 13.453125 Z M 21.960938 3.351562 "/>
<path style=" stroke:none;fill-rule:nonzero;fill:rgb(85.882353%,0%,18.823529%);fill-opacity:1;" d="M 24.359375 3.722656 L 25.625 3.722656 L 25.625 13.445312 L 24.359375 13.445312 Z M 24.359375 3.722656 "/>
<path style="fill-rule:evenodd;fill:rgb(92.941176%,73.333333%,0%);fill-opacity:1;stroke-width:0.937881;stroke-linecap:butt;stroke-linejoin:miter;stroke:rgb(87.058824%,70.588235%,1.960784%);stroke-opacity:1;stroke-miterlimit:4;" d="M 261.561358 170.488637 C 209.908992 208.380453 128.034498 212.373953 81.052825 193.428045 L 62.278473 217.667663 C 142.962398 331.157367 96.621801 445.390049 32.605837 515.415611 L 62.095308 546.620636 C 50.098039 717.783914 150.014228 816.785571 325.577322 826.90863 L 373.20007 866.657888 L 420.731236 826.351397 C 522.936981 824.586827 702.254945 767.19187 682.931099 546.34202 L 712.603734 515.694227 C 637.414741 432.295083 611.496976 318.155274 684.121667 217.667663 L 666.537883 193.520917 C 602.247173 214.695756 528.70666 202.993871 484.472453 171.045869 C 418.166934 218.503512 333.911303 223.425733 261.561358 170.488637 Z M 485.113529 202.993871 C 524.951789 227.790722 569.094414 234.849001 645.016064 228.16221 C 607.009448 294.008528 602.888249 372.392579 636.590501 448.176212 L 109.168563 447.804723 C 137.559048 380.193836 144.061385 302.274145 99.644014 226.676256 C 154.410174 234.570385 207.985766 232.712943 261.378194 203.643976 C 333.81972 246.179397 408.276056 246.922374 485.113529 202.993871 Z M 90.485793 548.849567 L 656.005929 548.849567 C 670.842247 705.339053 571.475551 789.852663 420.273325 798.118279 L 324.203589 798.396896 C 179.503699 787.995221 71.803022 711.654356 90.485793 548.849567 Z M 90.485793 548.849567 " transform="matrix(0.0426529,0,0,0.0420605,0.0897341,-5.745062)"/>
<path style="fill:none;stroke-width:4;stroke-linecap:butt;stroke-linejoin:miter;stroke:rgb(0%,0%,0%);stroke-opacity:1;stroke-miterlimit:4;" d="M 99.002938 227.512105 C 143.511891 303.109994 136.917972 381.029684 108.61907 448.640572 L 635.949426 449.012061 C 602.247173 373.228428 606.368373 294.844377 644.466571 228.998059 C 568.453338 235.591978 524.402296 228.626571 484.472453 203.82972 C 407.726563 247.758223 333.178645 247.015246 260.737118 204.479825 C 207.344691 233.548792 153.860681 235.406234 99.002938 227.512105 Z M 99.002938 227.512105 " transform="matrix(0.0426529,0,0,0.0420605,0.0897341,-5.745062)"/>
<path style="fill:none;stroke-width:4;stroke-linecap:butt;stroke-linejoin:miter;stroke:rgb(0%,0%,0%);stroke-opacity:1;stroke-miterlimit:4;" d="M 90.485793 548.849567 L 656.005929 548.849567 C 670.842247 705.339053 571.475551 789.852663 420.273325 798.211151 L 324.203589 798.396896 C 179.503699 787.995221 71.803022 711.654356 90.485793 548.849567 Z M 90.485793 548.849567 " transform="matrix(0.0426529,0,0,0.0420605,0.0897341,-5.745062)"/>
<path style="fill:none;stroke-width:4;stroke-linecap:butt;stroke-linejoin:miter;stroke:rgb(0%,0%,0%);stroke-opacity:1;stroke-miterlimit:4;" d="M 372.742159 235.406234 L 372.742159 449.104933 " transform="matrix(0.0426529,0,0,0.0420605,0.0897341,-5.745062)"/>
<path style="fill-rule:nonzero;fill:rgb(92.941176%,73.333333%,0%);fill-opacity:1;stroke-width:3;stroke-linecap:butt;stroke-linejoin:miter;stroke:rgb(0%,0%,0%);stroke-opacity:1;stroke-miterlimit:4;" d="M 391.546573 656.711615 C 391.546573 688.384869 365.849114 714.097729 334.205701 714.097729 C 302.493944 714.097729 276.796486 688.384869 276.796486 656.711615 C 276.796486 625.038362 302.493944 599.325502 334.205701 599.325502 C 365.849114 599.325502 391.546573 625.038362 391.546573 656.711615 Z M 391.546573 656.711615 " transform="matrix(0.0571555,0,0,0.0563616,-3.066524,-14.544588)"/>
<path style="fill:none;stroke-width:3.5;stroke-linecap:butt;stroke-linejoin:miter;stroke:rgb(0%,0%,0%);stroke-opacity:1;stroke-miterlimit:4;" d="M 329.423774 608.194838 C 320.448718 640.885816 314.953785 673.112435 340.779968 688.529203 C 358.913246 699.395239 371.093679 677.291679 374.482221 668.747446 " transform="matrix(0.0426529,0,0,0.0420605,0.0897341,-5.745062)"/>
<path style="fill:none;stroke-width:3.5;stroke-linecap:butt;stroke-linejoin:miter;stroke:rgb(0%,0%,0%);stroke-opacity:1;stroke-miterlimit:4;" d="M 302.68177 701.809913 C 317.792834 701.066936 325.760486 699.859599 335.4682 685.092935 " transform="matrix(0.0426529,0,0,0.0420605,0.0897341,-5.745062)"/>
<path style="fill:none;stroke-width:3.5;stroke-linecap:butt;stroke-linejoin:miter;stroke:rgb(0%,0%,0%);stroke-opacity:1;stroke-miterlimit:4;" d="M 373.841145 669.304679 C 389.043792 660.017469 402.597959 664.475329 408.917131 687.879098 C 423.661867 681.935284 437.948691 693.358552 441.703562 704.967564 " transform="matrix(0.0426529,0,0,0.0420605,0.0897341,-5.745062)"/>
<path style="fill:none;stroke-width:3.5;stroke-linecap:butt;stroke-linejoin:miter;stroke:rgb(0%,0%,0%);stroke-opacity:1;stroke-miterlimit:4;" d="M 409.191878 687.879098 C 397.927266 715.090623 368.437795 727.628356 326.951055 731.714729 " transform="matrix(0.0426529,0,0,0.0420605,0.0897341,-5.745062)"/>
<path style="fill:none;stroke-width:3.5;stroke-linecap:butt;stroke-linejoin:miter;stroke:rgb(0%,0%,0%);stroke-opacity:1;stroke-miterlimit:4;" d="M 373.932728 670.419144 C 364.591342 661.874911 350.212936 652.12334 371.093679 626.955002 C 362.210205 615.717478 359.829068 604.75857 371.460008 594.356895 " transform="matrix(0.0426529,0,0,0.0420605,0.0897341,-5.745062)"/>
<path style="fill:none;stroke-width:3.5;stroke-linecap:butt;stroke-linejoin:miter;stroke:rgb(0%,0%,0%);stroke-opacity:1;stroke-miterlimit:4;" d="M 450.312289 675.341365 C 436.66654 651.287491 404.887514 617.760664 371.093679 626.676385 " transform="matrix(0.0426529,0,0,0.0420605,0.0897341,-5.745062)"/>
<path style=" stroke:none;fill-rule:nonzero;fill:rgb(0%,0%,0%);fill-opacity:1;" d="M 11.449219 13.683594 L 11.449219 13.695312 L 10.851562 13.695312 L 10.851562 16.75 L 11.496094 16.75 L 11.496094 15.480469 L 12.414062 15.480469 L 12.414062 14.835938 L 11.496094 14.835938 L 11.496094 14.339844 L 13.082031 14.339844 L 13.082031 13.683594 Z M 11.449219 13.683594 "/>
<path style="fill-rule:evenodd;fill:rgb(0%,0%,0%);fill-opacity:1;stroke-width:0.2;stroke-linecap:butt;stroke-linejoin:miter;stroke:rgb(0%,0%,0%);stroke-opacity:1;stroke-miterlimit:4;" d="M 380.526647 484.674946 L 394.080814 477.523795 C 385.472086 458.485015 350.3961 453.005561 338.856742 477.523795 C 326.951055 506.871378 339.5894 534.082903 362.668116 536.683322 C 377.321269 538.81938 388.860628 531.668228 393.806067 518.944751 L 380.435064 511.236367 C 376.863358 520.152088 363.217609 526.281647 352.86882 511.422111 C 349.663442 504.828192 348.839203 494.612261 352.410909 484.674946 C 360.928054 472.973062 373.383234 474.180399 380.526647 484.674946 Z M 380.526647 484.674946 " transform="matrix(0.0426529,0,0,0.0420605,0.0897341,-5.745062)"/>
<path style="fill-rule:evenodd;fill:rgb(0%,0%,0%);fill-opacity:1;stroke-width:1;stroke-linecap:butt;stroke-linejoin:miter;stroke:rgb(0%,0%,0%);stroke-opacity:1;stroke-miterlimit:4;" d="M 432.362177 462.107027 L 432.636923 535.383112 L 472.566766 535.197368 C 485.57144 533.432798 502.514148 512.165088 482.640809 495.633854 C 493.172763 486.346644 491.79903 466.472015 470.735122 462.199899 Z M 447.747988 476.502202 L 467.621327 476.502202 C 476.321637 479.009748 473.757335 487.461109 467.896073 488.854191 L 447.747988 488.854191 Z M 447.83957 503.156494 L 468.811896 503.43511 C 479.069103 506.49989 476.779548 518.294646 469.086642 520.337832 L 448.022734 520.152088 Z M 447.83957 503.156494 " transform="matrix(0.0426529,0,0,0.0420605,0.0897341,-5.745062)"/>
</g>
</svg>
