<?xml version="1.0" encoding="UTF-8"?>
<svg xmlns="http://www.w3.org/2000/svg" xmlns:xlink="http://www.w3.org/1999/xlink" width="32px" height="28px" viewBox="0 0 31 28" version="1.1">
<g id="surface1">
<path style=" stroke:none;fill-rule:nonzero;fill:rgb(82.745098%,69.803922%,14.901961%);fill-opacity:1;" d="M 14.949219 2.910156 C 14.71875 3.015625 14.480469 3.085938 14.242188 3.152344 C 13.601562 3.324219 12.949219 3.445312 12.296875 3.554688 C 11.34375 3.710938 10.382812 3.84375 9.421875 3.933594 C 9.105469 3.964844 8.785156 3.949219 8.46875 3.941406 C 6.867188 3.875 5.265625 3.546875 3.792969 2.890625 C 2.898438 4.339844 2.289062 5.972656 2.023438 7.664062 C 1.683594 9.792969 1.867188 12.011719 2.578125 14.046875 C 3.25 15.980469 4.382812 17.75 5.859375 19.144531 C 7.273438 20.480469 9.003906 21.476562 10.871094 21.964844 C 10.992188 21.996094 11.101562 22.054688 11.214844 22.109375 C 11.582031 22.28125 11.945312 22.46875 12.304688 22.660156 C 13.046875 23.066406 13.777344 23.507812 14.441406 24.039062 C 14.773438 24.316406 15.097656 24.613281 15.34375 24.976562 C 15.359375 25.011719 15.394531 25.019531 15.425781 25.03125 C 15.71875 24.578125 16.128906 24.222656 16.550781 23.894531 C 17.277344 23.34375 18.066406 22.890625 18.871094 22.46875 C 19.207031 22.300781 19.542969 22.121094 19.890625 21.984375 C 22.152344 21.398438 24.210938 20.074219 25.757812 18.292969 C 26.886719 17.007812 27.75 15.480469 28.289062 13.84375 C 28.882812 12.046875 29.070312 10.113281 28.851562 8.230469 C 28.632812 6.34375 28 4.503906 27 2.898438 C 25.320312 3.648438 23.472656 3.964844 21.644531 3.960938 C 21.640625 3.964844 21.632812 3.972656 21.628906 3.980469 L 21.605469 3.960938 C 20.992188 3.90625 20.375 3.835938 19.761719 3.753906 C 19.097656 3.65625 18.433594 3.558594 17.773438 3.433594 C 17.238281 3.328125 16.703125 3.214844 16.183594 3.046875 C 15.980469 2.976562 15.769531 2.902344 15.601562 2.765625 C 15.53125 2.710938 15.449219 2.667969 15.410156 2.585938 C 15.269531 2.710938 15.121094 2.835938 14.949219 2.910156 Z M 15.421875 0 C 16.175781 0.664062 17.09375 1.097656 18.039062 1.394531 C 19.382812 1.8125 20.796875 1.949219 22.195312 1.871094 C 23.289062 1.804688 24.375 1.601562 25.402344 1.214844 C 26.054688 0.964844 26.683594 0.640625 27.238281 0.203125 C 28.359375 1.46875 29.269531 2.933594 29.890625 4.519531 C 31.019531 7.378906 31.179688 10.628906 30.304688 13.578125 C 29.699219 15.625 28.59375 17.492188 27.183594 19.058594 C 25.539062 20.890625 23.515625 22.335938 21.355469 23.449219 C 20.636719 23.820312 19.902344 24.15625 19.15625 24.457031 C 18.878906 24.570312 18.589844 24.660156 18.332031 24.820312 C 17.773438 25.160156 17.300781 25.632812 16.859375 26.121094 C 16.363281 26.679688 15.914062 27.28125 15.488281 27.890625 C 15.46875 27.925781 15.453125 27.960938 15.441406 28 C 15.089844 27.464844 14.703125 26.953125 14.296875 26.460938 C 13.800781 25.875 13.269531 25.300781 12.625 24.878906 C 12.296875 24.65625 11.914062 24.550781 11.550781 24.394531 C 9.394531 23.503906 7.332031 22.339844 5.523438 20.832031 C 3.90625 19.484375 2.496094 17.847656 1.519531 15.953125 C 0.84375 14.652344 0.378906 13.238281 0.160156 11.785156 C -0.03125 10.519531 -0.0507812 9.226562 0.101562 7.957031 C 0.292969 6.367188 0.765625 4.8125 1.476562 3.386719 C 2.046875 2.234375 2.773438 1.160156 3.625 0.203125 C 4.589844 0.957031 5.757812 1.386719 6.933594 1.640625 C 8.246094 1.914062 9.601562 1.960938 10.929688 1.800781 C 11.855469 1.683594 12.769531 1.460938 13.632812 1.097656 C 14.277344 0.824219 14.894531 0.472656 15.421875 0 "/>
<path style=" stroke:none;fill-rule:nonzero;fill:rgb(82.745098%,69.803922%,14.901961%);fill-opacity:1;" d="M 5.972656 7.261719 C 5.972656 9.367188 5.972656 11.472656 5.976562 13.578125 C 5.960938 13.757812 6.007812 13.972656 6.167969 14.070312 C 6.417969 14.210938 6.710938 14.191406 6.976562 14.144531 C 7.328125 14.089844 7.6875 13.980469 8.039062 14.074219 C 8.246094 14.128906 8.410156 14.273438 8.554688 14.425781 C 8.695312 14.277344 8.855469 14.136719 9.054688 14.082031 C 9.378906 13.984375 9.714844 14.070312 10.035156 14.128906 C 10.320312 14.179688 10.628906 14.222656 10.902344 14.09375 C 11.050781 14.027344 11.128906 13.855469 11.132812 13.699219 C 11.136719 11.554688 11.136719 9.40625 11.136719 7.261719 C 9.414062 7.261719 7.695312 7.261719 5.972656 7.261719 Z M 7.734375 6.351562 C 7.320312 6.402344 6.902344 6.480469 6.515625 6.648438 C 6.359375 6.722656 6.195312 6.804688 6.082031 6.945312 C 6.566406 6.953125 7.050781 6.945312 7.53125 6.949219 C 8.699219 6.945312 9.863281 6.953125 11.03125 6.945312 C 10.9375 6.828125 10.808594 6.753906 10.679688 6.6875 C 10.367188 6.535156 10.023438 6.453125 9.683594 6.394531 C 9.039062 6.292969 8.382812 6.277344 7.734375 6.351562 M 8.34375 4.605469 C 8.421875 4.5625 8.488281 4.507812 8.554688 4.457031 C 8.667969 4.550781 8.792969 4.636719 8.941406 4.660156 C 9.050781 4.671875 9.121094 4.765625 9.15625 4.867188 C 9.21875 4.996094 9.136719 5.175781 8.996094 5.199219 C 8.921875 5.210938 8.902344 5.117188 8.867188 5.070312 C 8.832031 5.003906 8.726562 5.019531 8.703125 5.089844 C 8.617188 5.375 8.785156 5.699219 9.058594 5.796875 C 9.101562 5.816406 9.160156 5.804688 9.179688 5.757812 C 9.21875 5.667969 9.125 5.582031 9.15625 5.488281 C 9.183594 5.378906 9.257812 5.261719 9.378906 5.253906 C 9.542969 5.238281 9.683594 5.410156 9.660156 5.570312 C 9.660156 5.648438 9.613281 5.710938 9.574219 5.773438 C 9.757812 5.847656 9.980469 5.777344 10.089844 5.613281 C 10.15625 5.503906 10.171875 5.339844 10.070312 5.25 C 9.980469 5.207031 9.878906 5.265625 9.789062 5.238281 C 9.699219 5.183594 9.691406 5.046875 9.761719 4.972656 C 9.832031 4.882812 9.953125 4.882812 10.054688 4.867188 C 10.199219 4.84375 10.328125 4.765625 10.457031 4.707031 C 10.5 4.796875 10.527344 4.90625 10.617188 4.960938 C 10.71875 5.03125 10.847656 5.085938 10.894531 5.210938 C 10.925781 5.296875 10.941406 5.410156 10.875 5.480469 C 10.839844 5.527344 10.777344 5.558594 10.722656 5.539062 C 10.621094 5.511719 10.617188 5.355469 10.515625 5.34375 C 10.375 5.460938 10.335938 5.691406 10.453125 5.84375 C 10.527344 5.960938 10.667969 6.011719 10.800781 6.007812 C 10.785156 5.929688 10.765625 5.84375 10.804688 5.769531 C 10.84375 5.660156 10.964844 5.597656 11.074219 5.628906 C 11.175781 5.640625 11.226562 5.746094 11.238281 5.839844 C 11.242188 5.964844 11.195312 6.085938 11.117188 6.179688 C 11.222656 6.242188 11.355469 6.269531 11.472656 6.214844 C 11.605469 6.152344 11.730469 6.042969 11.773438 5.898438 C 11.796875 5.8125 11.699219 5.773438 11.632812 5.78125 C 11.558594 5.785156 11.460938 5.84375 11.421875 5.75 C 11.410156 5.65625 11.453125 5.566406 11.496094 5.492188 C 11.585938 5.394531 11.722656 5.433594 11.835938 5.433594 C 11.964844 5.449219 12.09375 5.414062 12.210938 5.363281 C 12 5.816406 11.792969 6.269531 11.585938 6.722656 C 11.554688 6.792969 11.507812 6.859375 11.511719 6.941406 C 11.515625 9.214844 11.511719 11.488281 11.515625 13.761719 C 11.515625 13.902344 11.425781 14.019531 11.359375 14.140625 C 11.246094 14.335938 11.039062 14.46875 10.816406 14.496094 C 10.441406 14.546875 10.066406 14.441406 9.695312 14.410156 C 9.429688 14.382812 9.140625 14.390625 8.902344 14.527344 C 8.761719 14.609375 8.65625 14.738281 8.554688 14.863281 C 8.433594 14.710938 8.300781 14.554688 8.113281 14.480469 C 7.78125 14.34375 7.414062 14.40625 7.070312 14.453125 C 6.765625 14.496094 6.445312 14.554688 6.144531 14.460938 C 5.863281 14.375 5.683594 14.097656 5.601562 13.824219 C 5.59375 11.589844 5.597656 9.355469 5.597656 7.121094 C 5.59375 7.023438 5.617188 6.914062 5.570312 6.824219 C 5.347656 6.335938 5.125 5.847656 4.898438 5.363281 C 5.019531 5.414062 5.148438 5.453125 5.277344 5.433594 C 5.390625 5.433594 5.53125 5.394531 5.613281 5.492188 C 5.660156 5.566406 5.699219 5.65625 5.6875 5.746094 C 5.652344 5.839844 5.550781 5.789062 5.484375 5.78125 C 5.40625 5.761719 5.292969 5.832031 5.34375 5.925781 C 5.410156 6.074219 5.546875 6.195312 5.703125 6.234375 C 5.804688 6.265625 5.902344 6.226562 5.992188 6.179688 C 5.894531 6.054688 5.828125 5.875 5.90625 5.726562 C 5.976562 5.578125 6.214844 5.589844 6.285156 5.734375 C 6.339844 5.816406 6.332031 5.914062 6.308594 6.007812 C 6.542969 6.03125 6.765625 5.808594 6.71875 5.570312 C 6.699219 5.480469 6.65625 5.367188 6.566406 5.339844 C 6.507812 5.390625 6.480469 5.464844 6.429688 5.515625 C 6.378906 5.5625 6.296875 5.550781 6.25 5.5 C 6.164062 5.421875 6.179688 5.285156 6.222656 5.1875 C 6.285156 5.0625 6.425781 5.015625 6.53125 4.933594 C 6.589844 4.871094 6.613281 4.785156 6.652344 4.707031 C 6.785156 4.769531 6.914062 4.847656 7.0625 4.867188 C 7.164062 4.882812 7.28125 4.882812 7.351562 4.976562 C 7.421875 5.054688 7.402344 5.207031 7.300781 5.246094 C 7.214844 5.253906 7.125 5.214844 7.042969 5.246094 C 6.949219 5.320312 6.949219 5.46875 7 5.570312 C 7.09375 5.765625 7.339844 5.855469 7.535156 5.773438 C 7.488281 5.703125 7.441406 5.625 7.449219 5.535156 C 7.441406 5.363281 7.628906 5.195312 7.792969 5.269531 C 7.921875 5.332031 7.992188 5.507812 7.933594 5.640625 C 7.890625 5.714844 7.9375 5.832031 8.03125 5.804688 C 8.3125 5.71875 8.492188 5.378906 8.40625 5.09375 C 8.390625 5.0625 8.363281 5.023438 8.324219 5.03125 C 8.210938 5.019531 8.226562 5.203125 8.117188 5.203125 C 8.011719 5.191406 7.933594 5.074219 7.933594 4.96875 C 7.941406 4.871094 7.984375 4.769531 8.058594 4.703125 C 8.148438 4.648438 8.253906 4.652344 8.34375 4.605469 "/>
<path style=" stroke:none;fill-rule:nonzero;fill:rgb(100%,100%,100%);fill-opacity:1;" d="M 18.066406 15.515625 C 17.933594 15.566406 17.886719 15.75 17.96875 15.863281 C 18.0625 15.953125 18.183594 16.003906 18.257812 16.109375 C 18.328125 16.183594 18.339844 16.289062 18.367188 16.386719 C 18.421875 16.632812 18.425781 16.886719 18.425781 17.136719 C 18.429688 17.535156 18.421875 17.933594 18.398438 18.328125 C 18.394531 18.660156 18.382812 18.988281 18.339844 19.316406 C 18.328125 19.496094 18.316406 19.679688 18.234375 19.84375 C 18.160156 19.972656 18.023438 20.035156 17.902344 20.109375 C 17.90625 20.167969 17.898438 20.234375 17.941406 20.285156 C 18.003906 20.363281 18.109375 20.382812 18.199219 20.402344 C 18.421875 20.4375 18.648438 20.429688 18.871094 20.398438 C 18.980469 20.378906 19.09375 20.355469 19.179688 20.277344 C 19.234375 20.226562 19.234375 20.140625 19.214844 20.070312 C 19.125 20 19.011719 19.957031 18.929688 19.871094 C 18.84375 19.628906 18.855469 19.367188 18.855469 19.109375 C 18.855469 18.832031 18.851562 18.550781 18.859375 18.273438 C 18.859375 18.113281 18.988281 17.953125 19.152344 17.960938 C 19.3125 17.957031 19.425781 18.097656 19.476562 18.238281 C 19.722656 18.894531 19.929688 19.566406 20.230469 20.203125 C 20.332031 20.070312 20.367188 19.902344 20.425781 19.75 C 20.574219 19.363281 20.707031 18.96875 20.867188 18.585938 C 20.945312 18.386719 21.019531 18.152344 21.234375 18.066406 C 21.40625 17.984375 21.621094 18.144531 21.609375 18.332031 C 21.664062 18.710938 21.625 19.09375 21.605469 19.472656 C 21.585938 19.605469 21.550781 19.746094 21.460938 19.847656 C 21.382812 19.9375 21.300781 20.023438 21.238281 20.128906 C 21.226562 20.195312 21.269531 20.261719 21.328125 20.296875 C 21.472656 20.390625 21.648438 20.398438 21.8125 20.414062 C 22.105469 20.429688 22.398438 20.441406 22.691406 20.394531 C 22.808594 20.378906 22.941406 20.378906 23.035156 20.292969 C 23.121094 20.214844 23.144531 20.066406 23.074219 19.972656 C 22.980469 19.878906 22.839844 19.828125 22.800781 19.695312 C 22.726562 19.4375 22.714844 19.167969 22.699219 18.898438 C 22.671875 18.273438 22.691406 17.648438 22.679688 17.023438 C 22.578125 16.824219 22.523438 16.605469 22.46875 16.390625 C 22.386719 16.1875 22.28125 15.996094 22.191406 15.796875 C 22.125 15.671875 22.085938 15.535156 21.984375 15.433594 C 21.734375 15.472656 21.617188 15.722656 21.539062 15.9375 C 21.328125 16.371094 21.167969 16.828125 20.980469 17.269531 C 20.929688 17.355469 20.882812 17.445312 20.824219 17.523438 C 20.734375 17.648438 20.550781 17.65625 20.425781 17.59375 C 20.332031 17.527344 20.269531 17.425781 20.21875 17.324219 C 19.992188 16.804688 19.757812 16.285156 19.527344 15.765625 C 19.480469 15.667969 19.4375 15.5625 19.363281 15.480469 C 19.292969 15.433594 19.207031 15.421875 19.125 15.40625 C 18.773438 15.363281 18.40625 15.394531 18.066406 15.515625 Z M 21.359375 11.328125 C 21.0625 11.347656 20.757812 11.382812 20.476562 11.496094 C 20.363281 11.542969 20.238281 11.613281 20.191406 11.734375 C 20.167969 11.808594 20.160156 11.921875 20.246094 11.957031 C 20.363281 12.015625 20.503906 12.011719 20.617188 12.082031 C 20.835938 12.199219 20.933594 12.445312 21.058594 12.644531 C 21.550781 13.667969 22.039062 14.695312 22.527344 15.71875 C 22.667969 16.015625 22.816406 16.308594 22.941406 16.609375 C 22.992188 16.753906 23.148438 16.800781 23.28125 16.835938 C 23.429688 16.867188 23.601562 16.871094 23.734375 16.789062 C 23.941406 16.558594 24.074219 16.273438 24.21875 16 C 24.777344 14.921875 25.339844 13.839844 25.902344 12.761719 C 26.054688 12.472656 26.183594 12.152344 26.441406 11.9375 C 26.601562 11.832031 26.804688 11.847656 26.984375 11.792969 C 27.132812 11.75 27.117188 11.492188 26.980469 11.441406 C 26.765625 11.34375 26.527344 11.332031 26.296875 11.320312 C 25.925781 11.308594 25.550781 11.308594 25.183594 11.382812 C 25.058594 11.414062 24.921875 11.449219 24.824219 11.539062 C 24.765625 11.59375 24.75 11.710938 24.828125 11.757812 C 24.941406 11.839844 25.09375 11.878906 25.164062 12.015625 C 25.257812 12.167969 25.171875 12.351562 25.113281 12.5 C 24.96875 12.789062 24.824219 13.082031 24.691406 13.375 C 24.609375 13.5625 24.515625 13.742188 24.378906 13.894531 C 24.246094 14.070312 23.964844 14.117188 23.792969 13.980469 C 23.679688 13.894531 23.605469 13.765625 23.546875 13.636719 C 23.375 13.273438 23.199219 12.910156 23.03125 12.542969 C 22.984375 12.40625 22.914062 12.25 22.976562 12.105469 C 23.046875 11.949219 23.222656 11.898438 23.320312 11.769531 C 23.375 11.707031 23.351562 11.609375 23.292969 11.5625 C 23.089844 11.390625 22.816406 11.363281 22.5625 11.34375 C 22.164062 11.3125 21.761719 11.308594 21.359375 11.328125 M 24.539062 5.203125 C 24.128906 5.234375 23.71875 5.261719 23.308594 5.242188 C 22.941406 5.195312 22.5625 5.160156 22.195312 5.242188 C 22.074219 5.261719 21.972656 5.34375 21.894531 5.433594 C 21.839844 5.53125 21.832031 5.660156 21.890625 5.757812 C 22.019531 5.90625 22.242188 5.949219 22.332031 6.140625 C 22.476562 6.359375 22.460938 6.632812 22.46875 6.882812 C 22.46875 7.859375 22.46875 8.835938 22.46875 9.8125 C 22.472656 9.972656 22.445312 10.132812 22.429688 10.292969 C 22.402344 10.519531 22.363281 10.761719 22.199219 10.9375 C 22.574219 10.953125 22.957031 11 23.292969 11.175781 C 23.414062 11.25 23.539062 11.320312 23.617188 11.441406 C 23.695312 11.570312 23.746094 11.714844 23.765625 11.863281 C 23.992188 11.839844 24.214844 11.804688 24.433594 11.738281 C 24.425781 11.644531 24.445312 11.554688 24.46875 11.464844 C 24.476562 11.359375 24.46875 11.25 24.472656 11.144531 C 24.394531 11.078125 24.316406 11.015625 24.25 10.941406 C 24.195312 10.835938 24.160156 10.71875 24.152344 10.601562 C 24.105469 10.191406 24.09375 9.777344 24.105469 9.363281 C 24.113281 9.261719 24.109375 9.15625 24.160156 9.066406 C 24.242188 8.945312 24.390625 8.878906 24.535156 8.886719 C 24.714844 8.90625 24.898438 8.964844 25.03125 9.097656 C 25.316406 9.433594 25.355469 9.898438 25.449219 10.316406 C 25.503906 10.550781 25.5625 10.789062 25.652344 11.011719 C 26.050781 11.003906 26.457031 10.992188 26.851562 11.070312 C 27.050781 11.121094 27.28125 11.1875 27.378906 11.390625 C 27.449219 11.558594 27.4375 11.753906 27.429688 11.929688 C 27.675781 11.878906 27.976562 11.777344 28.0625 11.503906 C 28.078125 11.402344 28.113281 11.273438 28.042969 11.191406 C 27.875 11.128906 27.707031 11.054688 27.585938 10.914062 C 27.519531 10.800781 27.503906 10.664062 27.480469 10.535156 C 27.4375 10.207031 27.398438 9.878906 27.296875 9.570312 C 27.214844 9.3125 27.085938 9.054688 26.851562 8.910156 C 26.710938 8.804688 26.523438 8.789062 26.398438 8.660156 C 26.292969 8.554688 26.253906 8.371094 26.34375 8.242188 C 26.414062 8.125 26.558594 8.09375 26.652344 8 C 26.972656 7.691406 27.132812 7.234375 27.125 6.792969 C 27.128906 6.367188 26.980469 5.925781 26.664062 5.636719 C 26.472656 5.46875 26.242188 5.34375 26 5.269531 C 25.527344 5.117188 25.027344 5.164062 24.539062 5.203125 M 3.78125 5.152344 C 3.847656 5.476562 3.90625 5.800781 3.90625 6.132812 C 3.898438 6.292969 3.855469 6.445312 3.804688 6.59375 C 3.695312 6.929688 3.726562 7.292969 3.808594 7.628906 C 3.828125 7.703125 3.824219 7.777344 3.824219 7.855469 C 3.648438 7.726562 3.5 7.5625 3.398438 7.371094 C 3.277344 7.132812 3.292969 6.859375 3.246094 6.601562 C 3.050781 6.679688 2.917969 6.878906 2.890625 7.089844 C 2.835938 7.339844 2.894531 7.613281 3.050781 7.8125 C 3.3125 8.136719 3.628906 8.417969 3.816406 8.796875 C 3.832031 8.914062 3.820312 9.03125 3.824219 9.152344 C 3.679688 9.074219 3.539062 8.984375 3.4375 8.855469 C 3.25 8.632812 3.152344 8.347656 3.125 8.0625 C 2.992188 8.113281 2.871094 8.210938 2.820312 8.347656 C 2.761719 8.5 2.792969 8.671875 2.84375 8.824219 C 2.894531 8.976562 3 9.101562 3.09375 9.230469 C 3.300781 9.496094 3.589844 9.683594 3.804688 9.945312 C 3.804688 10.183594 3.816406 10.417969 3.8125 10.652344 C 3.585938 10.5 3.386719 10.285156 3.292969 10.019531 C 3.230469 9.84375 3.203125 9.65625 3.175781 9.46875 C 3.003906 9.535156 2.933594 9.726562 2.890625 9.890625 C 2.816406 10.144531 2.832031 10.453125 3.015625 10.660156 C 3.269531 10.9375 3.554688 11.191406 3.78125 11.5 C 3.804688 11.601562 3.789062 11.710938 3.800781 11.816406 C 3.496094 11.617188 3.152344 11.425781 2.988281 11.074219 C 2.925781 10.917969 2.878906 10.753906 2.785156 10.617188 C 2.6875 10.738281 2.628906 10.886719 2.601562 11.042969 C 2.554688 11.296875 2.675781 11.574219 2.894531 11.714844 C 3.132812 11.898438 3.386719 12.0625 3.617188 12.257812 C 3.710938 12.332031 3.789062 12.4375 3.789062 12.566406 C 3.796875 12.710938 3.804688 12.859375 3.8125 13.003906 C 3.550781 12.851562 3.304688 12.675781 3.078125 12.476562 C 2.941406 12.363281 2.851562 12.203125 2.800781 12.03125 C 2.664062 12.203125 2.597656 12.441406 2.660156 12.65625 C 2.757812 12.996094 3.035156 13.257812 3.351562 13.394531 C 3.527344 13.476562 3.730469 13.503906 3.878906 13.632812 C 3.960938 13.699219 4.003906 13.804688 4.066406 13.890625 C 4.347656 14.304688 4.710938 14.667969 5.152344 14.90625 C 5.582031 15.15625 6.066406 15.324219 6.5625 15.335938 C 6.980469 15.363281 7.394531 15.378906 7.808594 15.328125 C 7.5625 15.546875 7.273438 15.714844 7.042969 15.949219 C 6.976562 16.023438 6.917969 16.109375 6.910156 16.210938 C 6.894531 16.398438 7.011719 16.621094 7.210938 16.632812 C 7.339844 16.660156 7.460938 16.578125 7.523438 16.46875 C 7.738281 16.113281 8 15.769531 8.351562 15.546875 C 8.460938 15.46875 8.613281 15.449219 8.726562 15.527344 C 9.097656 15.742188 9.371094 16.097656 9.589844 16.46875 C 9.65625 16.578125 9.773438 16.660156 9.902344 16.632812 C 10.105469 16.621094 10.222656 16.398438 10.207031 16.210938 C 10.191406 16.050781 10.0625 15.929688 9.945312 15.832031 C 9.746094 15.652344 9.511719 15.511719 9.308594 15.328125 C 9.601562 15.359375 9.898438 15.371094 10.195312 15.355469 C 10.480469 15.335938 10.769531 15.339844 11.050781 15.273438 C 11.46875 15.179688 11.859375 14.984375 12.21875 14.75 C 12.597656 14.484375 12.914062 14.125 13.152344 13.726562 C 13.234375 13.605469 13.367188 13.535156 13.503906 13.492188 C 13.714844 13.417969 13.933594 13.335938 14.109375 13.183594 C 14.25 13.050781 14.378906 12.898438 14.4375 12.710938 C 14.527344 12.484375 14.464844 12.21875 14.316406 12.03125 C 14.265625 12.203125 14.175781 12.367188 14.039062 12.480469 C 13.808594 12.675781 13.5625 12.851562 13.304688 13.003906 C 13.308594 12.859375 13.320312 12.710938 13.328125 12.5625 C 13.324219 12.4375 13.410156 12.332031 13.5 12.253906 C 13.730469 12.058594 13.984375 11.898438 14.222656 11.714844 C 14.429688 11.582031 14.554688 11.3125 14.515625 11.0625 C 14.492188 10.902344 14.429688 10.746094 14.332031 10.617188 C 14.234375 10.753906 14.1875 10.917969 14.125 11.074219 C 13.964844 11.425781 13.621094 11.617188 13.316406 11.816406 C 13.324219 11.710938 13.3125 11.601562 13.335938 11.496094 C 13.5625 11.191406 13.84375 10.941406 14.097656 10.660156 C 14.285156 10.457031 14.296875 10.148438 14.226562 9.890625 C 14.183594 9.726562 14.109375 9.535156 13.9375 9.46875 C 13.914062 9.648438 13.886719 9.828125 13.828125 9.996094 C 13.738281 10.273438 13.539062 10.5 13.300781 10.652344 C 13.300781 10.417969 13.308594 10.179688 13.3125 9.945312 C 13.550781 9.660156 13.867188 9.457031 14.082031 9.152344 C 14.242188 8.953125 14.351562 8.695312 14.316406 8.433594 C 14.292969 8.257812 14.152344 8.121094 13.992188 8.0625 C 13.957031 8.515625 13.707031 8.960938 13.289062 9.152344 C 13.292969 9.035156 13.285156 8.914062 13.296875 8.796875 C 13.480469 8.441406 13.769531 8.164062 14.023438 7.863281 C 14.199219 7.664062 14.285156 7.382812 14.230469 7.117188 C 14.207031 6.898438 14.074219 6.683594 13.867188 6.601562 C 13.835938 6.773438 13.839844 6.953125 13.800781 7.125 C 13.742188 7.429688 13.527344 7.675781 13.292969 7.855469 C 13.289062 7.78125 13.285156 7.703125 13.304688 7.628906 C 13.371094 7.355469 13.40625 7.070312 13.363281 6.792969 C 13.339844 6.625 13.257812 6.476562 13.230469 6.308594 C 13.183594 6.113281 13.226562 5.914062 13.238281 5.71875 C 13.25 5.527344 13.304688 5.34375 13.335938 5.15625 C 13.121094 5.15625 12.902344 5.238281 12.769531 5.414062 C 12.632812 5.597656 12.523438 5.816406 12.503906 6.046875 C 12.449219 6.414062 12.5625 6.789062 12.71875 7.113281 C 12.832031 7.386719 13.003906 7.648438 13.015625 7.949219 C 12.902344 7.902344 12.792969 7.84375 12.703125 7.757812 C 12.558594 7.617188 12.417969 7.464844 12.332031 7.277344 C 12.25 7.089844 12.207031 6.890625 12.195312 6.691406 C 12.121094 6.722656 12.039062 6.761719 11.996094 6.839844 C 11.855469 7.125 11.867188 7.480469 12.03125 7.753906 C 12.273438 8.203125 12.71875 8.480469 12.996094 8.898438 C 13.003906 9.039062 12.988281 9.183594 12.992188 9.324219 C 12.679688 9.199219 12.445312 8.929688 12.285156 8.636719 C 12.199219 8.441406 12.125 8.238281 12.011719 8.058594 C 11.785156 8.324219 11.789062 8.730469 11.960938 9.027344 C 12.125 9.300781 12.40625 9.46875 12.609375 9.707031 C 12.753906 9.875 12.929688 10.019531 13.011719 10.226562 C 13.023438 10.398438 13.015625 10.566406 13.023438 10.738281 C 12.835938 10.597656 12.644531 10.453125 12.53125 10.242188 C 12.394531 10.027344 12.304688 9.78125 12.292969 9.523438 C 12.101562 9.59375 12.007812 9.796875 11.984375 9.988281 C 11.933594 10.238281 12.03125 10.492188 12.191406 10.675781 C 12.398438 10.910156 12.59375 11.160156 12.816406 11.382812 C 12.898438 11.476562 13 11.566406 13.027344 11.695312 C 13.042969 11.765625 13.035156 11.839844 13.023438 11.910156 C 12.824219 11.730469 12.621094 11.546875 12.410156 11.375 C 12.234375 11.226562 12.066406 11.050781 11.976562 10.832031 C 11.941406 10.753906 11.910156 10.671875 11.867188 10.597656 C 11.664062 10.917969 11.683594 11.390625 11.953125 11.664062 C 12.09375 11.835938 12.304688 11.921875 12.480469 12.050781 C 12.714844 12.1875 12.890625 12.40625 13.003906 12.652344 C 13.105469 12.886719 13.0625 13.167969 12.941406 13.382812 C 12.898438 13.261719 12.84375 13.144531 12.757812 13.050781 C 12.574219 12.847656 12.410156 12.628906 12.207031 12.449219 C 11.992188 12.261719 11.835938 12.015625 11.75 11.742188 C 11.582031 12.023438 11.539062 12.382812 11.675781 12.6875 C 11.78125 12.9375 12.007812 13.109375 12.234375 13.234375 C 12.441406 13.332031 12.628906 13.484375 12.769531 13.667969 C 12.777344 13.792969 12.714844 13.914062 12.636719 14.007812 C 12.515625 14.144531 12.386719 14.277344 12.234375 14.378906 C 11.957031 14.585938 11.652344 14.761719 11.328125 14.882812 C 10.945312 15.015625 10.539062 15.0625 10.136719 15.046875 C 9.804688 15.035156 9.472656 15.027344 9.140625 15.050781 C 8.867188 15.0625 8.59375 15.09375 8.320312 15.070312 C 7.921875 15.042969 7.523438 15.027344 7.125 15.042969 C 6.546875 15.074219 5.941406 15.007812 5.425781 14.722656 C 5.085938 14.535156 4.75 14.324219 4.492188 14.023438 C 4.410156 13.925781 4.339844 13.800781 4.34375 13.667969 C 4.488281 13.484375 4.671875 13.332031 4.882812 13.230469 C 5.128906 13.097656 5.371094 12.90625 5.460938 12.625 C 5.574219 12.339844 5.527344 12.003906 5.367188 11.75 C 5.277344 12.019531 5.121094 12.265625 4.910156 12.453125 C 4.707031 12.625 4.546875 12.84375 4.371094 13.039062 C 4.277344 13.136719 4.21875 13.257812 4.175781 13.382812 C 4.058594 13.179688 4.015625 12.925781 4.09375 12.703125 C 4.148438 12.550781 4.242188 12.414062 4.34375 12.292969 C 4.535156 12.070312 4.816406 11.957031 5.046875 11.78125 C 5.195312 11.652344 5.332031 11.484375 5.363281 11.28125 C 5.40625 11.0625 5.382812 10.820312 5.265625 10.625 C 5.257812 10.625 5.242188 10.621094 5.234375 10.621094 C 5.175781 10.726562 5.140625 10.847656 5.078125 10.953125 C 4.972656 11.140625 4.816406 11.285156 4.65625 11.417969 C 4.460938 11.574219 4.277344 11.742188 4.089844 11.910156 C 4.082031 11.832031 4.070312 11.753906 4.09375 11.675781 C 4.125 11.5625 4.210938 11.480469 4.285156 11.398438 C 4.511719 11.167969 4.710938 10.917969 4.925781 10.675781 C 5.078125 10.5 5.175781 10.261719 5.136719 10.023438 C 5.117188 9.820312 5.023438 9.597656 4.824219 9.523438 C 4.8125 9.78125 4.722656 10.027344 4.585938 10.242188 C 4.472656 10.449219 4.28125 10.597656 4.09375 10.734375 C 4.097656 10.566406 4.09375 10.398438 4.105469 10.230469 C 4.140625 10.125 4.207031 10.039062 4.277344 9.957031 C 4.457031 9.761719 4.632812 9.558594 4.835938 9.390625 C 4.988281 9.246094 5.148438 9.09375 5.21875 8.886719 C 5.324219 8.617188 5.292969 8.28125 5.105469 8.058594 C 4.988281 8.238281 4.917969 8.441406 4.832031 8.636719 C 4.675781 8.933594 4.4375 9.195312 4.125 9.324219 C 4.121094 9.183594 4.117188 9.039062 4.117188 8.898438 C 4.269531 8.675781 4.460938 8.492188 4.652344 8.304688 C 4.867188 8.082031 5.082031 7.839844 5.179688 7.539062 C 5.25 7.320312 5.21875 7.082031 5.136719 6.871094 C 5.101562 6.777344 5.007812 6.726562 4.921875 6.691406 C 4.898438 6.96875 4.832031 7.253906 4.664062 7.480469 C 4.511719 7.675781 4.335938 7.863281 4.101562 7.949219 C 4.109375 7.871094 4.113281 7.792969 4.136719 7.71875 C 4.257812 7.339844 4.492188 7.003906 4.578125 6.609375 C 4.675781 6.230469 4.625 5.804688 4.394531 5.484375 C 4.269531 5.269531 4.023438 5.152344 3.78125 5.152344 M 8.34375 4.605469 C 8.253906 4.652344 8.148438 4.648438 8.058594 4.703125 C 7.984375 4.769531 7.941406 4.871094 7.933594 4.96875 C 7.933594 5.074219 8.011719 5.191406 8.117188 5.203125 C 8.226562 5.203125 8.210938 5.019531 8.324219 5.03125 C 8.363281 5.023438 8.390625 5.0625 8.40625 5.09375 C 8.492188 5.378906 8.3125 5.71875 8.03125 5.804688 C 7.9375 5.832031 7.890625 5.714844 7.933594 5.640625 C 7.992188 5.507812 7.921875 5.332031 7.792969 5.269531 C 7.628906 5.195312 7.441406 5.363281 7.449219 5.535156 C 7.441406 5.625 7.488281 5.703125 7.535156 5.773438 C 7.339844 5.855469 7.09375 5.765625 7 5.570312 C 6.949219 5.46875 6.949219 5.320312 7.042969 5.246094 C 7.125 5.214844 7.214844 5.253906 7.300781 5.246094 C 7.402344 5.207031 7.421875 5.054688 7.351562 4.976562 C 7.28125 4.882812 7.164062 4.882812 7.0625 4.867188 C 6.914062 4.847656 6.785156 4.769531 6.652344 4.707031 C 6.613281 4.785156 6.589844 4.871094 6.53125 4.933594 C 6.425781 5.015625 6.285156 5.0625 6.222656 5.1875 C 6.179688 5.285156 6.164062 5.421875 6.25 5.5 C 6.296875 5.550781 6.378906 5.5625 6.429688 5.515625 C 6.480469 5.464844 6.507812 5.390625 6.566406 5.339844 C 6.65625 5.367188 6.699219 5.480469 6.71875 5.570312 C 6.765625 5.808594 6.542969 6.03125 6.308594 6.007812 C 6.332031 5.914062 6.339844 5.816406 6.285156 5.734375 C 6.214844 5.589844 5.976562 5.578125 5.90625 5.726562 C 5.828125 5.875 5.894531 6.054688 5.992188 6.179688 C 5.902344 6.226562 5.804688 6.265625 5.703125 6.234375 C 5.546875 6.195312 5.410156 6.074219 5.34375 5.925781 C 5.292969 5.832031 5.40625 5.761719 5.484375 5.78125 C 5.550781 5.789062 5.652344 5.839844 5.6875 5.746094 C 5.699219 5.65625 5.660156 5.566406 5.613281 5.492188 C 5.53125 5.394531 5.390625 5.433594 5.277344 5.433594 C 5.148438 5.453125 5.019531 5.414062 4.898438 5.363281 C 5.125 5.847656 5.347656 6.335938 5.570312 6.824219 C 5.617188 6.914062 5.59375 7.023438 5.597656 7.121094 C 5.597656 9.355469 5.59375 11.589844 5.601562 13.824219 C 5.683594 14.097656 5.863281 14.375 6.144531 14.460938 C 6.445312 14.554688 6.765625 14.496094 7.070312 14.453125 C 7.414062 14.40625 7.78125 14.34375 8.113281 14.480469 C 8.300781 14.554688 8.433594 14.710938 8.554688 14.863281 C 8.65625 14.738281 8.761719 14.609375 8.902344 14.527344 C 9.140625 14.390625 9.429688 14.382812 9.695312 14.410156 C 10.066406 14.441406 10.441406 14.546875 10.816406 14.496094 C 11.039062 14.46875 11.246094 14.335938 11.359375 14.140625 C 11.425781 14.019531 11.515625 13.902344 11.515625 13.761719 C 11.511719 11.488281 11.515625 9.214844 11.511719 6.941406 C 11.507812 6.859375 11.554688 6.792969 11.585938 6.722656 C 11.792969 6.269531 12 5.816406 12.210938 5.363281 C 12.09375 5.414062 11.964844 5.449219 11.835938 5.433594 C 11.722656 5.433594 11.585938 5.394531 11.496094 5.492188 C 11.453125 5.566406 11.410156 5.65625 11.421875 5.75 C 11.460938 5.84375 11.558594 5.785156 11.632812 5.78125 C 11.699219 5.773438 11.796875 5.8125 11.773438 5.898438 C 11.730469 6.042969 11.605469 6.152344 11.472656 6.214844 C 11.355469 6.269531 11.222656 6.242188 11.117188 6.179688 C 11.195312 6.085938 11.242188 5.964844 11.238281 5.839844 C 11.226562 5.746094 11.175781 5.640625 11.074219 5.628906 C 10.964844 5.597656 10.84375 5.660156 10.804688 5.769531 C 10.765625 5.84375 10.785156 5.929688 10.800781 6.007812 C 10.667969 6.011719 10.527344 5.960938 10.453125 5.84375 C 10.335938 5.691406 10.375 5.460938 10.515625 5.34375 C 10.617188 5.355469 10.621094 5.511719 10.722656 5.539062 C 10.777344 5.558594 10.839844 5.527344 10.875 5.480469 C 10.941406 5.410156 10.925781 5.296875 10.894531 5.210938 C 10.847656 5.085938 10.71875 5.03125 10.617188 4.960938 C 10.527344 4.90625 10.5 4.796875 10.457031 4.707031 C 10.328125 4.765625 10.199219 4.84375 10.054688 4.867188 C 9.953125 4.882812 9.832031 4.882812 9.761719 4.972656 C 9.691406 5.046875 9.699219 5.183594 9.789062 5.238281 C 9.878906 5.265625 9.980469 5.207031 10.070312 5.25 C 10.171875 5.339844 10.15625 5.503906 10.089844 5.613281 C 9.980469 5.777344 9.757812 5.847656 9.574219 5.773438 C 9.613281 5.710938 9.660156 5.648438 9.660156 5.570312 C 9.683594 5.410156 9.542969 5.238281 9.378906 5.253906 C 9.257812 5.261719 9.183594 5.378906 9.15625 5.488281 C 9.125 5.582031 9.21875 5.667969 9.179688 5.757812 C 9.160156 5.804688 9.101562 5.816406 9.058594 5.796875 C 8.785156 5.699219 8.617188 5.375 8.703125 5.089844 C 8.726562 5.019531 8.832031 5.003906 8.867188 5.070312 C 8.902344 5.117188 8.921875 5.210938 8.996094 5.199219 C 9.136719 5.175781 9.21875 4.996094 9.15625 4.867188 C 9.121094 4.765625 9.050781 4.671875 8.941406 4.660156 C 8.792969 4.636719 8.667969 4.550781 8.554688 4.457031 C 8.488281 4.507812 8.421875 4.5625 8.34375 4.605469 M 14.949219 2.910156 C 15.121094 2.835938 15.269531 2.710938 15.410156 2.585938 C 15.449219 2.667969 15.53125 2.710938 15.601562 2.765625 C 15.769531 2.902344 15.980469 2.976562 16.183594 3.046875 C 16.703125 3.214844 17.238281 3.328125 17.773438 3.433594 C 18.433594 3.558594 19.097656 3.65625 19.761719 3.753906 C 18.460938 6.109375 17.15625 8.460938 15.851562 10.8125 C 16.640625 10.566406 17.425781 10.316406 18.210938 10.070312 C 17.355469 11.625 16.496094 13.183594 15.640625 14.738281 C 15.410156 13.96875 15.179688 13.203125 14.949219 12.433594 C 13.648438 14.757812 12.351562 17.085938 11.054688 19.410156 C 10.828125 19.257812 10.601562 19.101562 10.375 18.953125 C 10.417969 19.910156 10.460938 20.867188 10.503906 21.828125 C 11.414062 21.511719 12.324219 21.199219 13.230469 20.882812 C 12.988281 20.714844 12.738281 20.550781 12.492188 20.382812 C 13.210938 19.085938 13.929688 17.792969 14.652344 16.496094 C 14.882812 17.257812 15.109375 18.019531 15.339844 18.78125 C 17.445312 15.011719 19.550781 11.246094 21.652344 7.476562 C 20.867188 7.71875 20.078125 7.960938 19.292969 8.203125 C 19.910156 7.078125 20.53125 5.953125 21.152344 4.832031 C 21.3125 4.546875 21.460938 4.257812 21.628906 3.980469 C 21.632812 3.972656 21.640625 3.964844 21.644531 3.960938 C 23.472656 3.964844 25.320312 3.648438 27 2.898438 C 28 4.503906 28.632812 6.34375 28.851562 8.230469 C 29.070312 10.113281 28.882812 12.046875 28.289062 13.84375 C 27.75 15.480469 26.886719 17.007812 25.757812 18.292969 C 24.210938 20.074219 22.152344 21.398438 19.890625 21.984375 C 19.542969 22.121094 19.207031 22.300781 18.871094 22.46875 C 18.066406 22.890625 17.277344 23.34375 16.550781 23.894531 C 16.128906 24.222656 15.71875 24.578125 15.425781 25.03125 C 15.394531 25.019531 15.359375 25.011719 15.34375 24.976562 C 15.097656 24.613281 14.773438 24.316406 14.441406 24.039062 C 13.777344 23.507812 13.046875 23.066406 12.304688 22.660156 C 11.945312 22.46875 11.582031 22.28125 11.214844 22.109375 C 11.101562 22.054688 10.992188 21.996094 10.871094 21.964844 C 9.003906 21.476562 7.273438 20.480469 5.859375 19.144531 C 4.382812 17.75 3.25 15.980469 2.578125 14.046875 C 1.867188 12.011719 1.683594 9.792969 2.023438 7.664062 C 2.289062 5.972656 2.898438 4.339844 3.792969 2.890625 C 5.265625 3.546875 6.867188 3.875 8.46875 3.941406 C 8.785156 3.949219 9.105469 3.964844 9.421875 3.933594 C 10.382812 3.84375 11.34375 3.710938 12.296875 3.554688 C 12.949219 3.445312 13.601562 3.324219 14.242188 3.152344 C 14.480469 3.085938 14.71875 3.015625 14.949219 2.910156 "/>
<path style=" stroke:none;fill-rule:nonzero;fill:rgb(100%,100%,100%);fill-opacity:1;" d="M 24.402344 5.941406 C 24.648438 5.871094 24.941406 5.945312 25.109375 6.148438 C 25.28125 6.363281 25.324219 6.648438 25.335938 6.914062 C 25.351562 7.234375 25.328125 7.582031 25.136719 7.851562 C 25 8.058594 24.746094 8.152344 24.507812 8.15625 C 24.378906 8.164062 24.230469 8.144531 24.136719 8.039062 C 24.058594 7.929688 24.035156 7.792969 24.039062 7.660156 C 24.0625 7.242188 24.085938 6.820312 24.105469 6.402344 C 24.117188 6.214844 24.210938 6 24.402344 5.941406 "/>
<path style=" stroke:none;fill-rule:nonzero;fill:rgb(93.333333%,17.254902%,19.215686%);fill-opacity:1;" d="M 19.761719 3.753906 C 20.375 3.835938 20.992188 3.90625 21.605469 3.960938 L 21.628906 3.980469 C 21.460938 4.257812 21.3125 4.546875 21.152344 4.832031 C 20.53125 5.953125 19.910156 7.078125 19.292969 8.203125 C 20.078125 7.960938 20.867188 7.71875 21.652344 7.476562 C 19.550781 11.246094 17.445312 15.011719 15.339844 18.78125 C 15.109375 18.019531 14.882812 17.257812 14.652344 16.496094 C 13.929688 17.792969 13.210938 19.085938 12.492188 20.382812 C 12.738281 20.550781 12.988281 20.714844 13.230469 20.882812 C 12.324219 21.199219 11.414062 21.511719 10.503906 21.828125 C 10.460938 20.867188 10.417969 19.910156 10.375 18.953125 C 10.601562 19.101562 10.828125 19.257812 11.054688 19.410156 C 12.351562 17.085938 13.648438 14.757812 14.949219 12.433594 C 15.179688 13.203125 15.410156 13.96875 15.640625 14.738281 C 16.496094 13.183594 17.355469 11.625 18.210938 10.070312 C 17.425781 10.316406 16.640625 10.566406 15.851562 10.8125 C 17.15625 8.460938 18.460938 6.109375 19.761719 3.753906 "/>
<path style=" stroke:none;fill-rule:nonzero;fill:rgb(93.333333%,17.254902%,19.215686%);fill-opacity:1;" d="M 7.675781 7.828125 C 7.714844 7.894531 7.757812 7.96875 7.746094 8.050781 C 7.742188 8.117188 7.691406 8.1875 7.621094 8.183594 C 7.5 8.179688 7.378906 8.152344 7.28125 8.078125 C 7.3125 8.210938 7.320312 8.347656 7.269531 8.476562 C 7.128906 8.503906 7.027344 8.386719 6.914062 8.328125 C 6.957031 8.4375 6.992188 8.5625 6.949219 8.679688 C 6.9375 8.722656 6.886719 8.753906 6.847656 8.71875 C 6.757812 8.660156 6.671875 8.589844 6.570312 8.550781 C 6.550781 8.6875 6.597656 8.839844 6.53125 8.964844 C 6.410156 9 6.308594 8.882812 6.203125 8.832031 C 6.160156 9.113281 6.226562 9.4375 6.453125 9.621094 C 6.773438 9.519531 7.035156 9.296875 7.320312 9.121094 C 7.703125 9.691406 8.089844 10.265625 8.476562 10.835938 C 7.839844 11.769531 7.199219 12.703125 6.5625 13.640625 C 6.621094 13.683594 6.679688 13.726562 6.742188 13.765625 C 7.367188 12.84375 7.992188 11.921875 8.617188 11.003906 C 9.085938 11.613281 9.550781 12.226562 10.015625 12.835938 C 10.242188 13.125 10.453125 13.429688 10.691406 13.710938 C 10.726562 13.65625 10.761719 13.605469 10.796875 13.554688 C 10.117188 12.628906 9.4375 11.703125 8.761719 10.78125 C 9.074219 10.316406 9.394531 9.855469 9.707031 9.390625 C 9.894531 9.410156 10.085938 9.445312 10.277344 9.414062 C 10.457031 9.363281 10.628906 9.269531 10.746094 9.121094 C 10.890625 8.941406 10.949219 8.6875 10.875 8.464844 C 10.785156 8.714844 10.535156 8.910156 10.269531 8.894531 C 10.269531 8.878906 10.269531 8.84375 10.273438 8.828125 C 10.363281 8.617188 10.414062 8.394531 10.519531 8.1875 C 10.390625 8.292969 10.265625 8.394531 10.15625 8.515625 C 10.082031 8.582031 10.007812 8.675781 9.902344 8.664062 C 9.898438 8.539062 9.875 8.410156 9.910156 8.289062 C 9.945312 8.152344 10.03125 8.042969 10.089844 7.914062 C 9.902344 7.945312 9.726562 8.042969 9.609375 8.195312 C 9.46875 8.378906 9.410156 8.621094 9.445312 8.847656 C 9.480469 8.988281 9.523438 9.128906 9.550781 9.269531 C 9.246094 9.722656 8.929688 10.167969 8.617188 10.613281 C 8.253906 10.074219 7.890625 9.535156 7.527344 8.992188 C 7.667969 8.898438 7.792969 8.789062 7.914062 8.675781 C 8.066406 8.558594 8.164062 8.394531 8.296875 8.257812 C 8.152344 8.042969 7.933594 7.871094 7.675781 7.828125 Z M 5.972656 7.261719 C 7.695312 7.261719 9.414062 7.261719 11.136719 7.261719 C 11.136719 9.40625 11.136719 11.554688 11.132812 13.699219 C 11.128906 13.855469 11.050781 14.027344 10.902344 14.09375 C 10.628906 14.222656 10.320312 14.179688 10.035156 14.128906 C 9.714844 14.070312 9.378906 13.984375 9.054688 14.082031 C 8.855469 14.136719 8.695312 14.277344 8.554688 14.425781 C 8.410156 14.273438 8.246094 14.128906 8.039062 14.074219 C 7.6875 13.980469 7.328125 14.089844 6.976562 14.144531 C 6.710938 14.191406 6.417969 14.210938 6.167969 14.070312 C 6.007812 13.972656 5.960938 13.757812 5.976562 13.578125 C 5.972656 11.472656 5.972656 9.367188 5.972656 7.261719 "/>
<path style=" stroke:none;fill-rule:nonzero;fill:rgb(93.333333%,17.254902%,19.215686%);fill-opacity:1;" d="M 21.359375 11.328125 C 21.761719 11.308594 22.164062 11.3125 22.5625 11.34375 C 22.816406 11.363281 23.089844 11.390625 23.292969 11.5625 C 23.351562 11.609375 23.375 11.707031 23.320312 11.769531 C 23.222656 11.898438 23.046875 11.949219 22.976562 12.105469 C 22.914062 12.25 22.984375 12.40625 23.03125 12.542969 C 23.199219 12.910156 23.375 13.273438 23.546875 13.636719 C 23.605469 13.765625 23.679688 13.894531 23.792969 13.980469 C 23.964844 14.117188 24.246094 14.070312 24.378906 13.894531 C 24.515625 13.742188 24.609375 13.5625 24.691406 13.375 C 24.824219 13.082031 24.96875 12.789062 25.113281 12.5 C 25.171875 12.351562 25.257812 12.167969 25.164062 12.015625 C 25.09375 11.878906 24.941406 11.839844 24.828125 11.757812 C 24.75 11.710938 24.765625 11.59375 24.824219 11.539062 C 24.921875 11.449219 25.058594 11.414062 25.183594 11.382812 C 25.550781 11.308594 25.925781 11.308594 26.296875 11.320312 C 26.527344 11.332031 26.765625 11.34375 26.980469 11.441406 C 27.117188 11.492188 27.132812 11.75 26.984375 11.792969 C 26.804688 11.847656 26.601562 11.832031 26.441406 11.9375 C 26.183594 12.152344 26.054688 12.472656 25.902344 12.761719 C 25.339844 13.839844 24.777344 14.921875 24.21875 16 C 24.074219 16.273438 23.941406 16.558594 23.734375 16.789062 C 23.601562 16.871094 23.429688 16.867188 23.28125 16.835938 C 23.148438 16.800781 22.992188 16.753906 22.941406 16.609375 C 22.816406 16.308594 22.667969 16.015625 22.527344 15.71875 C 22.039062 14.695312 21.550781 13.667969 21.058594 12.644531 C 20.933594 12.445312 20.835938 12.199219 20.617188 12.082031 C 20.503906 12.011719 20.363281 12.015625 20.246094 11.957031 C 20.160156 11.921875 20.167969 11.808594 20.191406 11.734375 C 20.238281 11.613281 20.363281 11.542969 20.476562 11.496094 C 20.757812 11.382812 21.0625 11.347656 21.359375 11.328125 "/>
<path style=" stroke:none;fill-rule:nonzero;fill:rgb(19.215686%,58.823529%,23.921569%);fill-opacity:1;" d="M 3.78125 5.152344 C 4.023438 5.152344 4.269531 5.269531 4.394531 5.484375 C 4.625 5.804688 4.675781 6.230469 4.578125 6.609375 C 4.492188 7.003906 4.257812 7.339844 4.136719 7.71875 C 4.113281 7.792969 4.109375 7.871094 4.101562 7.949219 C 4.335938 7.863281 4.511719 7.675781 4.664062 7.480469 C 4.832031 7.253906 4.898438 6.96875 4.921875 6.691406 C 5.007812 6.726562 5.101562 6.777344 5.136719 6.871094 C 5.21875 7.082031 5.25 7.320312 5.179688 7.539062 C 5.082031 7.839844 4.867188 8.082031 4.652344 8.304688 C 4.460938 8.492188 4.269531 8.675781 4.117188 8.898438 C 4.117188 9.039062 4.121094 9.183594 4.125 9.324219 C 4.4375 9.195312 4.675781 8.933594 4.832031 8.636719 C 4.917969 8.441406 4.988281 8.238281 5.105469 8.058594 C 5.292969 8.28125 5.324219 8.617188 5.21875 8.886719 C 5.148438 9.09375 4.988281 9.246094 4.835938 9.390625 C 4.632812 9.558594 4.457031 9.761719 4.277344 9.957031 C 4.207031 10.039062 4.140625 10.125 4.105469 10.230469 C 4.09375 10.398438 4.097656 10.566406 4.09375 10.734375 C 4.28125 10.597656 4.472656 10.449219 4.585938 10.242188 C 4.722656 10.027344 4.8125 9.78125 4.824219 9.523438 C 5.023438 9.597656 5.117188 9.820312 5.136719 10.023438 C 5.175781 10.261719 5.078125 10.5 4.925781 10.675781 C 4.710938 10.917969 4.511719 11.167969 4.285156 11.398438 C 4.210938 11.480469 4.125 11.5625 4.09375 11.675781 C 4.070312 11.753906 4.082031 11.832031 4.089844 11.910156 C 4.277344 11.742188 4.460938 11.574219 4.65625 11.417969 C 4.816406 11.285156 4.972656 11.140625 5.078125 10.953125 C 5.140625 10.847656 5.175781 10.726562 5.234375 10.621094 C 5.242188 10.621094 5.257812 10.625 5.265625 10.625 C 5.382812 10.820312 5.40625 11.0625 5.363281 11.28125 C 5.332031 11.484375 5.195312 11.652344 5.046875 11.78125 C 4.816406 11.957031 4.535156 12.070312 4.34375 12.292969 C 4.242188 12.414062 4.148438 12.550781 4.09375 12.703125 C 4.015625 12.925781 4.058594 13.179688 4.175781 13.382812 C 4.21875 13.257812 4.277344 13.136719 4.371094 13.039062 C 4.546875 12.84375 4.707031 12.625 4.910156 12.453125 C 5.121094 12.265625 5.277344 12.019531 5.367188 11.75 C 5.527344 12.003906 5.574219 12.339844 5.460938 12.625 C 5.371094 12.90625 5.128906 13.097656 4.882812 13.230469 C 4.671875 13.332031 4.488281 13.484375 4.34375 13.667969 C 4.339844 13.800781 4.410156 13.925781 4.492188 14.023438 C 4.75 14.324219 5.085938 14.535156 5.425781 14.722656 C 5.941406 15.007812 6.546875 15.074219 7.125 15.042969 C 7.523438 15.027344 7.921875 15.042969 8.320312 15.070312 C 8.59375 15.09375 8.867188 15.0625 9.140625 15.050781 C 9.472656 15.027344 9.804688 15.035156 10.136719 15.046875 C 10.539062 15.0625 10.945312 15.015625 11.328125 14.882812 C 11.652344 14.761719 11.957031 14.585938 12.234375 14.378906 C 12.386719 14.277344 12.515625 14.144531 12.636719 14.007812 C 12.714844 13.914062 12.777344 13.792969 12.769531 13.667969 C 12.628906 13.484375 12.441406 13.332031 12.234375 13.234375 C 12.007812 13.109375 11.78125 12.9375 11.675781 12.6875 C 11.539062 12.382812 11.582031 12.023438 11.75 11.742188 C 11.835938 12.015625 11.992188 12.261719 12.207031 12.449219 C 12.410156 12.628906 12.574219 12.847656 12.757812 13.050781 C 12.84375 13.144531 12.898438 13.261719 12.941406 13.382812 C 13.0625 13.167969 13.105469 12.886719 13.003906 12.652344 C 12.890625 12.40625 12.714844 12.1875 12.480469 12.050781 C 12.304688 11.921875 12.09375 11.835938 11.953125 11.664062 C 11.683594 11.390625 11.664062 10.917969 11.867188 10.597656 C 11.90625 10.671875 11.941406 10.753906 11.976562 10.832031 C 12.066406 11.050781 12.234375 11.226562 12.410156 11.375 C 12.621094 11.546875 12.824219 11.730469 13.023438 11.910156 C 13.035156 11.839844 13.042969 11.765625 13.027344 11.695312 C 13 11.566406 12.898438 11.476562 12.816406 11.382812 C 12.59375 11.160156 12.398438 10.910156 12.191406 10.675781 C 12.03125 10.492188 11.933594 10.238281 11.984375 9.988281 C 12.007812 9.796875 12.101562 9.59375 12.292969 9.523438 C 12.304688 9.78125 12.394531 10.027344 12.53125 10.242188 C 12.644531 10.453125 12.835938 10.597656 13.023438 10.738281 C 13.015625 10.566406 13.023438 10.398438 13.011719 10.226562 C 12.929688 10.019531 12.753906 9.875 12.609375 9.707031 C 12.40625 9.46875 12.125 9.300781 11.960938 9.027344 C 11.789062 8.730469 11.785156 8.324219 12.011719 8.058594 C 12.125 8.238281 12.199219 8.441406 12.285156 8.636719 C 12.445312 8.929688 12.679688 9.199219 12.992188 9.324219 C 12.988281 9.183594 13.003906 9.039062 12.996094 8.898438 C 12.71875 8.480469 12.273438 8.203125 12.03125 7.753906 C 11.867188 7.480469 11.855469 7.125 11.996094 6.839844 C 12.039062 6.761719 12.117188 6.722656 12.195312 6.691406 C 12.207031 6.890625 12.25 7.089844 12.332031 7.277344 C 12.417969 7.464844 12.558594 7.617188 12.703125 7.757812 C 12.792969 7.84375 12.902344 7.902344 13.015625 7.949219 C 13.003906 7.648438 12.832031 7.386719 12.71875 7.113281 C 12.5625 6.789062 12.449219 6.414062 12.503906 6.046875 C 12.523438 5.816406 12.632812 5.597656 12.769531 5.414062 C 12.902344 5.238281 13.121094 5.15625 13.335938 5.15625 C 13.304688 5.34375 13.25 5.527344 13.238281 5.71875 C 13.226562 5.914062 13.183594 6.113281 13.230469 6.308594 C 13.257812 6.476562 13.339844 6.625 13.363281 6.792969 C 13.40625 7.070312 13.371094 7.355469 13.304688 7.628906 C 13.285156 7.703125 13.289062 7.78125 13.292969 7.855469 C 13.527344 7.675781 13.742188 7.429688 13.800781 7.125 C 13.839844 6.953125 13.835938 6.773438 13.867188 6.601562 C 14.074219 6.683594 14.207031 6.898438 14.230469 7.117188 C 14.285156 7.382812 14.199219 7.664062 14.023438 7.863281 C 13.769531 8.164062 13.480469 8.441406 13.296875 8.796875 C 13.285156 8.914062 13.292969 9.035156 13.289062 9.152344 C 13.707031 8.960938 13.957031 8.515625 13.992188 8.0625 C 14.152344 8.121094 14.292969 8.257812 14.316406 8.433594 C 14.351562 8.695312 14.242188 8.953125 14.082031 9.152344 C 13.867188 9.457031 13.550781 9.660156 13.3125 9.945312 C 13.308594 10.179688 13.300781 10.417969 13.300781 10.652344 C 13.539062 10.5 13.738281 10.273438 13.828125 9.996094 C 13.886719 9.828125 13.914062 9.648438 13.9375 9.46875 C 14.109375 9.535156 14.183594 9.726562 14.226562 9.890625 C 14.296875 10.148438 14.285156 10.457031 14.097656 10.660156 C 13.84375 10.941406 13.5625 11.191406 13.335938 11.496094 C 13.3125 11.601562 13.324219 11.710938 13.316406 11.816406 C 13.621094 11.617188 13.964844 11.425781 14.125 11.074219 C 14.1875 10.917969 14.234375 10.753906 14.332031 10.617188 C 14.429688 10.746094 14.492188 10.902344 14.515625 11.0625 C 14.554688 11.3125 14.429688 11.582031 14.222656 11.714844 C 13.984375 11.898438 13.730469 12.058594 13.5 12.253906 C 13.410156 12.332031 13.324219 12.4375 13.328125 12.5625 C 13.320312 12.710938 13.308594 12.859375 13.304688 13.003906 C 13.5625 12.851562 13.808594 12.675781 14.039062 12.480469 C 14.175781 12.367188 14.265625 12.203125 14.316406 12.03125 C 14.464844 12.21875 14.527344 12.484375 14.4375 12.710938 C 14.378906 12.898438 14.25 13.050781 14.109375 13.183594 C 13.933594 13.335938 13.714844 13.417969 13.503906 13.492188 C 13.367188 13.535156 13.234375 13.605469 13.152344 13.726562 C 12.914062 14.125 12.597656 14.484375 12.21875 14.75 C 11.859375 14.984375 11.46875 15.179688 11.050781 15.273438 C 10.769531 15.339844 10.480469 15.335938 10.195312 15.355469 C 9.898438 15.371094 9.601562 15.359375 9.308594 15.328125 C 9.511719 15.511719 9.746094 15.652344 9.945312 15.832031 C 10.0625 15.929688 10.191406 16.050781 10.207031 16.210938 C 10.222656 16.398438 10.105469 16.621094 9.902344 16.632812 C 9.773438 16.660156 9.65625 16.578125 9.589844 16.46875 C 9.371094 16.097656 9.097656 15.742188 8.726562 15.527344 C 8.613281 15.449219 8.460938 15.46875 8.351562 15.546875 C 8 15.769531 7.738281 16.113281 7.523438 16.46875 C 7.460938 16.578125 7.339844 16.660156 7.210938 16.632812 C 7.011719 16.621094 6.894531 16.398438 6.910156 16.210938 C 6.917969 16.109375 6.976562 16.023438 7.042969 15.949219 C 7.273438 15.714844 7.5625 15.546875 7.808594 15.328125 C 7.394531 15.378906 6.980469 15.363281 6.5625 15.335938 C 6.066406 15.324219 5.582031 15.15625 5.152344 14.90625 C 4.710938 14.667969 4.347656 14.304688 4.066406 13.890625 C 4.003906 13.804688 3.960938 13.703125 3.878906 13.632812 C 3.730469 13.503906 3.527344 13.476562 3.351562 13.394531 C 3.035156 13.257812 2.757812 12.996094 2.660156 12.65625 C 2.597656 12.441406 2.664062 12.203125 2.800781 12.03125 C 2.851562 12.203125 2.941406 12.363281 3.078125 12.476562 C 3.304688 12.675781 3.550781 12.851562 3.8125 13.003906 C 3.804688 12.859375 3.796875 12.710938 3.789062 12.566406 C 3.789062 12.4375 3.710938 12.332031 3.617188 12.257812 C 3.386719 12.0625 3.132812 11.898438 2.894531 11.714844 C 2.675781 11.574219 2.554688 11.296875 2.601562 11.042969 C 2.628906 10.886719 2.6875 10.738281 2.785156 10.617188 C 2.878906 10.753906 2.925781 10.917969 2.988281 11.074219 C 3.152344 11.425781 3.496094 11.617188 3.800781 11.816406 C 3.789062 11.710938 3.804688 11.601562 3.78125 11.5 C 3.554688 11.191406 3.269531 10.9375 3.015625 10.660156 C 2.832031 10.453125 2.816406 10.144531 2.890625 9.890625 C 2.933594 9.726562 3.003906 9.535156 3.175781 9.46875 C 3.203125 9.65625 3.230469 9.84375 3.292969 10.019531 C 3.386719 10.285156 3.585938 10.5 3.8125 10.652344 C 3.816406 10.417969 3.804688 10.183594 3.804688 9.945312 C 3.589844 9.683594 3.300781 9.496094 3.09375 9.230469 C 3 9.101562 2.894531 8.976562 2.84375 8.824219 C 2.792969 8.671875 2.761719 8.5 2.820312 8.347656 C 2.871094 8.210938 2.992188 8.113281 3.125 8.0625 C 3.152344 8.347656 3.25 8.632812 3.4375 8.855469 C 3.539062 8.984375 3.679688 9.074219 3.824219 9.152344 C 3.820312 9.03125 3.832031 8.914062 3.816406 8.796875 C 3.628906 8.417969 3.3125 8.136719 3.050781 7.8125 C 2.894531 7.613281 2.835938 7.339844 2.890625 7.089844 C 2.917969 6.878906 3.050781 6.679688 3.246094 6.601562 C 3.292969 6.859375 3.277344 7.132812 3.398438 7.371094 C 3.5 7.5625 3.648438 7.726562 3.824219 7.855469 C 3.824219 7.777344 3.828125 7.703125 3.808594 7.628906 C 3.726562 7.292969 3.695312 6.929688 3.804688 6.59375 C 3.855469 6.445312 3.898438 6.292969 3.90625 6.132812 C 3.90625 5.800781 3.847656 5.476562 3.78125 5.152344 "/>
<path style=" stroke:none;fill-rule:nonzero;fill:rgb(6.27451%,5.882353%,5.098039%);fill-opacity:1;" d="M 24.402344 5.941406 C 24.210938 6 24.117188 6.214844 24.105469 6.402344 C 24.085938 6.820312 24.0625 7.242188 24.039062 7.660156 C 24.035156 7.792969 24.058594 7.929688 24.136719 8.039062 C 24.230469 8.144531 24.378906 8.164062 24.507812 8.15625 C 24.746094 8.152344 25 8.058594 25.136719 7.851562 C 25.328125 7.582031 25.351562 7.234375 25.335938 6.914062 C 25.324219 6.648438 25.28125 6.363281 25.109375 6.148438 C 24.941406 5.945312 24.648438 5.871094 24.402344 5.941406 Z M 24.539062 5.203125 C 25.027344 5.164062 25.527344 5.117188 26 5.269531 C 26.242188 5.34375 26.472656 5.46875 26.664062 5.636719 C 26.980469 5.925781 27.128906 6.367188 27.125 6.792969 C 27.132812 7.234375 26.972656 7.691406 26.652344 8 C 26.558594 8.09375 26.414062 8.125 26.34375 8.242188 C 26.253906 8.371094 26.292969 8.554688 26.398438 8.660156 C 26.523438 8.789062 26.710938 8.804688 26.851562 8.910156 C 27.085938 9.054688 27.214844 9.3125 27.296875 9.570312 C 27.398438 9.878906 27.4375 10.207031 27.480469 10.535156 C 27.503906 10.664062 27.519531 10.800781 27.585938 10.914062 C 27.707031 11.054688 27.875 11.128906 28.042969 11.191406 C 28.113281 11.273438 28.078125 11.402344 28.0625 11.503906 C 27.976562 11.777344 27.675781 11.878906 27.429688 11.929688 C 27.4375 11.753906 27.449219 11.558594 27.378906 11.390625 C 27.28125 11.1875 27.050781 11.121094 26.851562 11.070312 C 26.457031 10.992188 26.050781 11.003906 25.652344 11.011719 C 25.5625 10.789062 25.503906 10.550781 25.449219 10.316406 C 25.355469 9.898438 25.316406 9.433594 25.03125 9.097656 C 24.898438 8.964844 24.714844 8.90625 24.535156 8.886719 C 24.390625 8.878906 24.242188 8.945312 24.160156 9.066406 C 24.109375 9.15625 24.113281 9.261719 24.105469 9.363281 C 24.09375 9.777344 24.105469 10.191406 24.152344 10.601562 C 24.160156 10.71875 24.195312 10.835938 24.25 10.941406 C 24.316406 11.015625 24.394531 11.078125 24.472656 11.144531 C 24.46875 11.25 24.476562 11.359375 24.46875 11.464844 C 24.445312 11.554688 24.425781 11.644531 24.433594 11.738281 C 24.214844 11.804688 23.992188 11.839844 23.765625 11.863281 C 23.746094 11.714844 23.695312 11.570312 23.617188 11.441406 C 23.539062 11.320312 23.414062 11.25 23.292969 11.175781 C 22.957031 11 22.574219 10.953125 22.199219 10.9375 C 22.363281 10.761719 22.402344 10.519531 22.429688 10.292969 C 22.445312 10.132812 22.472656 9.972656 22.46875 9.8125 C 22.46875 8.835938 22.46875 7.859375 22.46875 6.882812 C 22.460938 6.632812 22.476562 6.359375 22.332031 6.140625 C 22.242188 5.949219 22.019531 5.90625 21.890625 5.757812 C 21.832031 5.660156 21.839844 5.53125 21.894531 5.433594 C 21.972656 5.34375 22.074219 5.261719 22.195312 5.242188 C 22.5625 5.160156 22.941406 5.195312 23.308594 5.242188 C 23.71875 5.261719 24.128906 5.234375 24.539062 5.203125 "/>
<path style=" stroke:none;fill-rule:nonzero;fill:rgb(6.27451%,5.882353%,5.098039%);fill-opacity:1;" d="M 18.066406 15.515625 C 18.40625 15.394531 18.773438 15.363281 19.125 15.40625 C 19.207031 15.421875 19.292969 15.433594 19.363281 15.480469 C 19.4375 15.5625 19.480469 15.667969 19.527344 15.765625 C 19.757812 16.285156 19.992188 16.804688 20.21875 17.324219 C 20.269531 17.425781 20.332031 17.527344 20.425781 17.59375 C 20.550781 17.65625 20.734375 17.648438 20.824219 17.523438 C 20.882812 17.445312 20.929688 17.355469 20.980469 17.269531 C 21.167969 16.828125 21.328125 16.371094 21.539062 15.9375 C 21.617188 15.722656 21.734375 15.472656 21.984375 15.433594 C 22.085938 15.535156 22.125 15.671875 22.191406 15.796875 C 22.28125 15.996094 22.386719 16.1875 22.46875 16.390625 C 22.523438 16.605469 22.578125 16.824219 22.679688 17.023438 C 22.691406 17.648438 22.671875 18.273438 22.699219 18.898438 C 22.714844 19.167969 22.726562 19.4375 22.800781 19.695312 C 22.839844 19.828125 22.980469 19.878906 23.074219 19.972656 C 23.144531 20.066406 23.121094 20.214844 23.035156 20.292969 C 22.941406 20.378906 22.808594 20.378906 22.691406 20.394531 C 22.398438 20.441406 22.105469 20.429688 21.8125 20.414062 C 21.648438 20.398438 21.472656 20.390625 21.328125 20.296875 C 21.269531 20.261719 21.226562 20.195312 21.238281 20.128906 C 21.300781 20.023438 21.382812 19.9375 21.460938 19.847656 C 21.550781 19.746094 21.585938 19.605469 21.605469 19.472656 C 21.625 19.09375 21.664062 18.710938 21.609375 18.332031 C 21.621094 18.144531 21.40625 17.984375 21.234375 18.066406 C 21.019531 18.152344 20.945312 18.386719 20.867188 18.585938 C 20.707031 18.96875 20.574219 19.363281 20.425781 19.75 C 20.367188 19.902344 20.332031 20.070312 20.230469 20.203125 C 19.929688 19.566406 19.722656 18.894531 19.476562 18.238281 C 19.425781 18.097656 19.3125 17.957031 19.152344 17.960938 C 18.988281 17.953125 18.859375 18.113281 18.859375 18.273438 C 18.851562 18.550781 18.855469 18.832031 18.855469 19.109375 C 18.855469 19.367188 18.84375 19.628906 18.929688 19.871094 C 19.011719 19.957031 19.125 20 19.214844 20.070312 C 19.234375 20.140625 19.234375 20.226562 19.179688 20.277344 C 19.09375 20.355469 18.980469 20.378906 18.871094 20.398438 C 18.648438 20.429688 18.421875 20.4375 18.199219 20.402344 C 18.109375 20.382812 18.003906 20.363281 17.941406 20.285156 C 17.898438 20.234375 17.90625 20.167969 17.902344 20.109375 C 18.023438 20.035156 18.160156 19.972656 18.234375 19.84375 C 18.316406 19.679688 18.328125 19.496094 18.339844 19.316406 C 18.382812 18.988281 18.394531 18.660156 18.398438 18.328125 C 18.421875 17.933594 18.429688 17.535156 18.425781 17.136719 C 18.425781 16.886719 18.421875 16.632812 18.367188 16.386719 C 18.339844 16.289062 18.328125 16.183594 18.257812 16.109375 C 18.183594 16.003906 18.0625 15.953125 17.96875 15.863281 C 17.886719 15.75 17.933594 15.566406 18.066406 15.515625 "/>
<path style=" stroke:none;fill-rule:nonzero;fill:rgb(12.941176%,11.372549%,11.372549%);fill-opacity:1;" d="M 7.734375 6.351562 C 8.382812 6.277344 9.039062 6.292969 9.683594 6.394531 C 10.023438 6.453125 10.367188 6.535156 10.679688 6.6875 C 10.808594 6.753906 10.9375 6.828125 11.03125 6.945312 C 9.863281 6.953125 8.699219 6.945312 7.53125 6.949219 C 7.050781 6.945312 6.566406 6.953125 6.082031 6.945312 C 6.195312 6.804688 6.359375 6.722656 6.515625 6.648438 C 6.902344 6.480469 7.320312 6.402344 7.734375 6.351562 "/>
<path style=" stroke:none;fill-rule:nonzero;fill:rgb(12.941176%,11.372549%,11.372549%);fill-opacity:1;" d="M 7.675781 7.828125 C 7.933594 7.871094 8.152344 8.042969 8.296875 8.257812 C 8.164062 8.394531 8.066406 8.558594 7.914062 8.675781 C 7.792969 8.789062 7.667969 8.898438 7.527344 8.992188 C 7.890625 9.535156 8.253906 10.074219 8.617188 10.613281 C 8.929688 10.167969 9.246094 9.722656 9.550781 9.269531 C 9.523438 9.128906 9.480469 8.988281 9.445312 8.847656 C 9.410156 8.621094 9.46875 8.378906 9.609375 8.195312 C 9.726562 8.042969 9.902344 7.945312 10.089844 7.914062 C 10.03125 8.042969 9.945312 8.152344 9.910156 8.289062 C 9.875 8.410156 9.898438 8.539062 9.902344 8.664062 C 10.007812 8.675781 10.082031 8.582031 10.15625 8.515625 C 10.265625 8.394531 10.390625 8.292969 10.519531 8.1875 C 10.414062 8.394531 10.363281 8.617188 10.273438 8.828125 C 10.269531 8.84375 10.269531 8.878906 10.269531 8.894531 C 10.535156 8.910156 10.785156 8.714844 10.875 8.464844 C 10.949219 8.6875 10.890625 8.941406 10.746094 9.121094 C 10.628906 9.269531 10.457031 9.363281 10.277344 9.414062 C 10.085938 9.445312 9.894531 9.410156 9.707031 9.390625 C 9.394531 9.855469 9.074219 10.316406 8.761719 10.78125 C 9.4375 11.703125 10.117188 12.628906 10.796875 13.554688 C 10.761719 13.605469 10.726562 13.65625 10.691406 13.710938 C 10.453125 13.429688 10.242188 13.125 10.015625 12.835938 C 9.550781 12.226562 9.085938 11.613281 8.617188 11.003906 C 7.992188 11.921875 7.367188 12.84375 6.742188 13.765625 C 6.679688 13.726562 6.621094 13.683594 6.5625 13.640625 C 7.199219 12.703125 7.839844 11.769531 8.476562 10.835938 C 8.089844 10.265625 7.703125 9.691406 7.320312 9.121094 C 7.035156 9.296875 6.773438 9.519531 6.453125 9.621094 C 6.226562 9.4375 6.160156 9.113281 6.203125 8.832031 C 6.308594 8.882812 6.410156 9 6.53125 8.964844 C 6.597656 8.839844 6.550781 8.6875 6.570312 8.550781 C 6.671875 8.589844 6.757812 8.660156 6.847656 8.71875 C 6.886719 8.753906 6.9375 8.722656 6.949219 8.679688 C 6.992188 8.5625 6.957031 8.4375 6.914062 8.328125 C 7.027344 8.386719 7.128906 8.503906 7.269531 8.476562 C 7.320312 8.347656 7.3125 8.210938 7.28125 8.078125 C 7.378906 8.152344 7.5 8.179688 7.621094 8.183594 C 7.691406 8.1875 7.742188 8.117188 7.746094 8.050781 C 7.761719 7.96875 7.714844 7.894531 7.675781 7.828125 "/>
<path style=" stroke:none;fill-rule:nonzero;fill:rgb(91.372549%,90.588235%,90.196078%);fill-opacity:1;" d="M 30.996094 8.660156 C 30.980469 8.609375 30.972656 8.554688 30.972656 8.496094 C 30.976562 8.21875 30.976562 7.941406 30.976562 7.660156 C 30.972656 7.613281 30.980469 7.570312 30.996094 7.527344 C 31.015625 7.710938 31 7.894531 31.003906 8.078125 C 31 8.269531 31.015625 8.46875 30.996094 8.660156 "/>
</g>
</svg>
