<?xml version="1.0" encoding="UTF-8"?>
<svg xmlns="http://www.w3.org/2000/svg" xmlns:xlink="http://www.w3.org/1999/xlink" width="32px" height="32px" viewBox="0 0 32 31" version="1.1">
<g id="surface1">
<path style=" stroke:none;fill-rule:nonzero;fill:rgb(83.921569%,69.803922%,40.784314%);fill-opacity:1;" d="M 16 28.921875 C 14.445312 30.828125 13.140625 30.488281 13.140625 30.488281 C 13.828125 29.542969 15.328125 26.871094 13.710938 26.570312 C 12.214844 26.292969 12.582031 29.34375 13.183594 29.675781 C 13.183594 29.675781 11.789062 29.679688 10.738281 27.898438 C 8.554688 29.078125 7.484375 28.28125 7.484375 28.28125 C 8.488281 27.664062 10.917969 25.753906 9.546875 24.875 C 8.269531 24.058594 7.414062 27.011719 7.839844 27.542969 C 7.839844 27.542969 6.550781 27.027344 6.277344 24.988281 C 3.796875 25.265625 3.121094 24.125 3.121094 24.125 C 4.292969 23.929688 7.285156 23.074219 6.363281 21.75 C 5.503906 20.519531 3.554688 22.929688 3.738281 23.578125 C 3.738281 23.578125 2.75 22.621094 3.296875 20.636719 C 0.898438 19.960938 0.71875 18.660156 0.71875 18.660156 C 1.878906 18.914062 4.980469 19.246094 4.644531 17.671875 C 4.335938 16.214844 1.589844 17.714844 1.503906 18.382812 C 1.503906 18.382812 0.96875 17.128906 2.25 15.5 C 0.296875 13.980469 0.644531 12.710938 0.644531 12.710938 C 1.613281 13.382812 4.351562 14.84375 4.65625 13.265625 C 4.941406 11.804688 1.816406 12.160156 1.476562 12.75 C 1.476562 12.75 1.472656 11.390625 3.296875 10.363281 C 2.089844 8.230469 2.90625 7.1875 2.90625 7.1875 C 3.539062 8.167969 5.496094 10.539062 6.398438 9.199219 C 7.234375 7.953125 4.203125 7.117188 3.660156 7.535156 C 3.660156 7.535156 4.191406 6.277344 6.277344 6.007812 C 5.996094 3.589844 7.164062 2.929688 7.164062 2.929688 C 7.363281 4.070312 8.238281 6.996094 9.597656 6.089844 C 10.859375 5.253906 8.390625 3.351562 7.722656 3.53125 C 7.722656 3.53125 8.703125 2.566406 10.738281 3.101562 C 11.429688 0.757812 12.765625 0.585938 12.765625 0.585938 C 12.5 1.714844 12.164062 4.742188 13.773438 4.417969 C 15.265625 4.113281 13.730469 1.433594 13.042969 1.351562 C 13.042969 1.351562 14.332031 0.828125 16 2.078125 C 17.554688 0.171875 18.859375 0.511719 18.859375 0.511719 C 18.171875 1.457031 16.671875 4.128906 18.289062 4.429688 C 19.785156 4.707031 19.417969 1.65625 18.816406 1.324219 C 18.816406 1.324219 20.210938 1.320312 21.261719 3.101562 C 23.445312 1.921875 24.515625 2.71875 24.515625 2.71875 C 23.511719 3.335938 21.082031 5.246094 22.453125 6.125 C 23.730469 6.941406 24.585938 3.988281 24.160156 3.457031 C 24.160156 3.457031 25.449219 3.972656 25.722656 6.007812 C 28.203125 5.734375 28.878906 6.875 28.878906 6.875 C 27.707031 7.070312 24.714844 7.925781 25.636719 9.25 C 26.496094 10.480469 28.445312 8.070312 28.261719 7.421875 C 28.261719 7.421875 29.25 8.378906 28.703125 10.363281 C 31.101562 11.039062 31.28125 12.339844 31.28125 12.339844 C 30.121094 12.082031 27.019531 11.753906 27.355469 13.328125 C 27.664062 14.785156 30.410156 13.285156 30.496094 12.617188 C 30.496094 12.617188 31.03125 13.871094 29.75 15.5 C 31.703125 17.019531 31.355469 18.289062 31.355469 18.289062 C 30.386719 17.617188 27.648438 16.15625 27.34375 17.734375 C 27.058594 19.195312 30.183594 18.835938 30.523438 18.25 C 30.523438 18.25 30.527344 19.609375 28.703125 20.636719 C 29.910156 22.769531 29.09375 23.8125 29.09375 23.8125 C 28.460938 22.832031 26.503906 20.457031 25.601562 21.800781 C 24.765625 23.046875 27.796875 23.882812 28.339844 23.464844 C 28.339844 23.464844 27.808594 24.722656 25.722656 24.988281 C 26.003906 27.410156 24.835938 28.070312 24.835938 28.070312 C 24.636719 26.929688 23.761719 24.003906 22.402344 24.910156 C 21.140625 25.746094 23.609375 27.648438 24.277344 27.46875 C 24.277344 27.46875 23.296875 28.433594 21.261719 27.898438 C 20.570312 30.242188 19.234375 30.414062 19.234375 30.414062 C 19.5 29.285156 19.835938 26.257812 18.226562 26.582031 C 16.734375 26.886719 18.269531 29.566406 18.957031 29.648438 C 18.957031 29.648438 17.667969 30.171875 16 28.921875 Z M 16 28.921875 "/>
<path style=" stroke:none;fill-rule:nonzero;fill:rgb(13.333333%,33.333333%,64.313725%);fill-opacity:1;" d="M 27.691406 15.5 C 27.691406 21.804688 22.457031 26.914062 16 26.914062 C 9.542969 26.914062 4.308594 21.804688 4.308594 15.5 C 4.308594 9.195312 9.542969 4.085938 16 4.085938 C 22.457031 4.085938 27.691406 9.195312 27.691406 15.5 Z M 27.691406 15.5 "/>
<path style=" stroke:none;fill-rule:nonzero;fill:rgb(70.196078%,89.019608%,93.333333%);fill-opacity:1;" d="M 22.085938 15.5 C 22.085938 18.78125 19.359375 21.441406 16 21.441406 C 12.636719 21.441406 9.914062 18.78125 9.914062 15.5 C 9.914062 12.21875 12.636719 9.558594 16 9.558594 C 19.359375 9.558594 22.085938 12.21875 22.085938 15.5 Z M 22.085938 15.5 "/>
<path style=" stroke:none;fill-rule:nonzero;fill:rgb(83.921569%,69.803922%,40.784314%);fill-opacity:1;" d="M 16 9.667969 C 15.96875 9.667969 15.9375 9.6875 15.921875 9.714844 C 15.921875 9.714844 14.277344 13.132812 14.242188 13.203125 C 14.164062 13.21875 10.320312 14.0625 10.320312 14.0625 C 10.289062 14.070312 10.265625 14.089844 10.257812 14.121094 C 10.253906 14.128906 10.253906 14.136719 10.253906 14.140625 C 10.253906 14.164062 10.261719 14.1875 10.28125 14.203125 C 10.28125 14.203125 13.09375 16.726562 13.160156 16.785156 C 13.144531 16.875 12.523438 20.101562 12.523438 20.101562 C 12.519531 20.105469 12.519531 20.109375 12.519531 20.113281 C 12.519531 20.140625 12.53125 20.164062 12.554688 20.179688 C 12.582031 20.199219 12.617188 20.203125 12.644531 20.1875 C 12.644531 20.1875 15.921875 18.507812 16 18.464844 C 16.078125 18.507812 19.355469 20.1875 19.355469 20.1875 C 19.382812 20.203125 19.417969 20.199219 19.445312 20.179688 C 19.464844 20.164062 19.480469 20.140625 19.480469 20.113281 C 19.480469 20.109375 19.476562 20.105469 19.476562 20.101562 C 19.476562 20.101562 18.855469 16.875 18.835938 16.785156 C 18.90625 16.726562 21.71875 14.203125 21.71875 14.203125 C 21.738281 14.1875 21.746094 14.164062 21.746094 14.140625 C 21.746094 14.136719 21.746094 14.128906 21.742188 14.121094 C 21.734375 14.089844 21.710938 14.070312 21.679688 14.0625 C 21.679688 14.0625 17.835938 13.21875 17.757812 13.203125 C 17.722656 13.132812 16.078125 9.714844 16.078125 9.714844 C 16.0625 9.6875 16.03125 9.667969 16 9.667969 Z M 16 9.667969 "/>
<path style=" stroke:none;fill-rule:nonzero;fill:rgb(83.921569%,69.803922%,40.784314%);fill-opacity:1;" d="M 16.300781 8.8125 C 16.300781 8.976562 16.167969 9.109375 16 9.109375 C 15.832031 9.109375 15.699219 8.976562 15.699219 8.8125 C 15.699219 8.652344 15.832031 8.519531 16 8.519531 C 16.167969 8.519531 16.300781 8.652344 16.300781 8.8125 Z M 16.300781 8.8125 "/>
<path style=" stroke:none;fill-rule:nonzero;fill:rgb(83.921569%,69.803922%,40.784314%);fill-opacity:1;" d="M 15.277344 8.84375 C 15.300781 9.003906 15.1875 9.15625 15.023438 9.179688 C 14.859375 9.203125 14.707031 9.09375 14.679688 8.933594 C 14.65625 8.769531 14.769531 8.621094 14.933594 8.597656 C 15.097656 8.574219 15.253906 8.683594 15.277344 8.84375 Z M 15.277344 8.84375 "/>
<path style=" stroke:none;fill-rule:nonzero;fill:rgb(83.921569%,69.803922%,40.784314%);fill-opacity:1;" d="M 14.269531 9.023438 C 14.316406 9.179688 14.230469 9.34375 14.070312 9.390625 C 13.910156 9.441406 13.742188 9.351562 13.691406 9.195312 C 13.644531 9.042969 13.734375 8.878906 13.890625 8.828125 C 14.050781 8.78125 14.21875 8.867188 14.269531 9.023438 Z M 14.269531 9.023438 "/>
<path style=" stroke:none;fill-rule:nonzero;fill:rgb(83.921569%,69.803922%,40.784314%);fill-opacity:1;" d="M 13.300781 9.347656 C 13.371094 9.492188 13.308594 9.671875 13.160156 9.742188 C 13.007812 9.8125 12.828125 9.75 12.757812 9.601562 C 12.683594 9.457031 12.746094 9.28125 12.898438 9.210938 C 13.046875 9.140625 13.226562 9.203125 13.300781 9.347656 Z M 13.300781 9.347656 "/>
<path style=" stroke:none;fill-rule:nonzero;fill:rgb(83.921569%,69.803922%,40.784314%);fill-opacity:1;" d="M 12.390625 9.808594 C 12.484375 9.941406 12.449219 10.125 12.3125 10.21875 C 12.171875 10.308594 11.984375 10.273438 11.890625 10.140625 C 11.796875 10.007812 11.835938 9.824219 11.972656 9.730469 C 12.109375 9.640625 12.296875 9.675781 12.390625 9.808594 Z M 12.390625 9.808594 "/>
<path style=" stroke:none;fill-rule:nonzero;fill:rgb(83.921569%,69.803922%,40.784314%);fill-opacity:1;" d="M 11.5625 10.398438 C 11.675781 10.515625 11.667969 10.703125 11.546875 10.8125 C 11.425781 10.925781 11.234375 10.917969 11.121094 10.796875 C 11.007812 10.679688 11.015625 10.492188 11.136719 10.382812 C 11.257812 10.273438 11.449219 10.277344 11.5625 10.398438 Z M 11.5625 10.398438 "/>
<path style=" stroke:none;fill-rule:nonzero;fill:rgb(83.921569%,69.803922%,40.784314%);fill-opacity:1;" d="M 10.832031 11.101562 C 10.960938 11.203125 10.984375 11.386719 10.878906 11.515625 C 10.777344 11.640625 10.585938 11.660156 10.457031 11.558594 C 10.328125 11.457031 10.304688 11.273438 10.410156 11.148438 C 10.511719 11.019531 10.703125 11 10.832031 11.101562 Z M 10.832031 11.101562 "/>
<path style=" stroke:none;fill-rule:nonzero;fill:rgb(83.921569%,69.803922%,40.784314%);fill-opacity:1;" d="M 10.21875 11.902344 C 10.363281 11.980469 10.414062 12.164062 10.328125 12.304688 C 10.246094 12.445312 10.0625 12.492188 9.917969 12.410156 C 9.773438 12.328125 9.722656 12.148438 9.808594 12.007812 C 9.890625 11.867188 10.074219 11.820312 10.21875 11.902344 Z M 10.21875 11.902344 "/>
<path style=" stroke:none;fill-rule:nonzero;fill:rgb(83.921569%,69.803922%,40.784314%);fill-opacity:1;" d="M 9.734375 12.78125 C 9.886719 12.839844 9.964844 13.011719 9.902344 13.164062 C 9.84375 13.316406 9.667969 13.390625 9.511719 13.328125 C 9.359375 13.269531 9.28125 13.097656 9.34375 12.949219 C 9.402344 12.796875 9.578125 12.722656 9.734375 12.78125 Z M 9.734375 12.78125 "/>
<path style=" stroke:none;fill-rule:nonzero;fill:rgb(83.921569%,69.803922%,40.784314%);fill-opacity:1;" d="M 9.390625 13.722656 C 9.550781 13.761719 9.652344 13.917969 9.617188 14.074219 C 9.578125 14.234375 9.417969 14.332031 9.253906 14.296875 C 9.09375 14.261719 8.992188 14.101562 9.027344 13.945312 C 9.066406 13.785156 9.226562 13.6875 9.390625 13.722656 Z M 9.390625 13.722656 "/>
<path style=" stroke:none;fill-rule:nonzero;fill:rgb(83.921569%,69.803922%,40.784314%);fill-opacity:1;" d="M 9.191406 14.707031 C 9.355469 14.71875 9.480469 14.859375 9.46875 15.019531 C 9.457031 15.183594 9.3125 15.304688 9.144531 15.292969 C 8.980469 15.28125 8.855469 15.136719 8.867188 14.976562 C 8.878906 14.816406 9.023438 14.691406 9.191406 14.707031 Z M 9.191406 14.707031 "/>
<path style=" stroke:none;fill-rule:nonzero;fill:rgb(83.921569%,69.803922%,40.784314%);fill-opacity:1;" d="M 16.300781 22.1875 C 16.300781 22.023438 16.167969 21.894531 16 21.894531 C 15.832031 21.894531 15.699219 22.023438 15.699219 22.1875 C 15.699219 22.347656 15.832031 22.480469 16 22.480469 C 16.167969 22.480469 16.300781 22.347656 16.300781 22.1875 Z M 16.300781 22.1875 "/>
<path style=" stroke:none;fill-rule:nonzero;fill:rgb(83.921569%,69.803922%,40.784314%);fill-opacity:1;" d="M 15.277344 22.15625 C 15.300781 21.996094 15.1875 21.84375 15.023438 21.820312 C 14.859375 21.796875 14.707031 21.90625 14.679688 22.066406 C 14.65625 22.230469 14.769531 22.378906 14.933594 22.402344 C 15.097656 22.425781 15.253906 22.316406 15.277344 22.15625 Z M 15.277344 22.15625 "/>
<path style=" stroke:none;fill-rule:nonzero;fill:rgb(83.921569%,69.803922%,40.784314%);fill-opacity:1;" d="M 14.269531 21.976562 C 14.316406 21.820312 14.230469 21.65625 14.070312 21.609375 C 13.910156 21.5625 13.742188 21.648438 13.691406 21.804688 C 13.644531 21.957031 13.734375 22.121094 13.890625 22.171875 C 14.050781 22.21875 14.21875 22.132812 14.269531 21.976562 Z M 14.269531 21.976562 "/>
<path style=" stroke:none;fill-rule:nonzero;fill:rgb(83.921569%,69.803922%,40.784314%);fill-opacity:1;" d="M 13.300781 21.652344 C 13.371094 21.507812 13.308594 21.332031 13.160156 21.261719 C 13.007812 21.1875 12.828125 21.25 12.757812 21.398438 C 12.683594 21.542969 12.746094 21.71875 12.898438 21.789062 C 13.046875 21.859375 13.226562 21.800781 13.300781 21.652344 Z M 13.300781 21.652344 "/>
<path style=" stroke:none;fill-rule:nonzero;fill:rgb(83.921569%,69.803922%,40.784314%);fill-opacity:1;" d="M 12.390625 21.191406 C 12.484375 21.058594 12.449219 20.875 12.3125 20.78125 C 12.171875 20.691406 11.984375 20.726562 11.890625 20.859375 C 11.796875 20.992188 11.835938 21.175781 11.972656 21.269531 C 12.109375 21.359375 12.296875 21.324219 12.390625 21.191406 Z M 12.390625 21.191406 "/>
<path style=" stroke:none;fill-rule:nonzero;fill:rgb(83.921569%,69.803922%,40.784314%);fill-opacity:1;" d="M 11.5625 20.601562 C 11.675781 20.484375 11.667969 20.296875 11.546875 20.1875 C 11.425781 20.078125 11.234375 20.082031 11.121094 20.203125 C 11.007812 20.320312 11.015625 20.507812 11.136719 20.617188 C 11.257812 20.730469 11.449219 20.722656 11.5625 20.601562 Z M 11.5625 20.601562 "/>
<path style=" stroke:none;fill-rule:nonzero;fill:rgb(83.921569%,69.803922%,40.784314%);fill-opacity:1;" d="M 10.832031 19.898438 C 10.960938 19.800781 10.984375 19.613281 10.878906 19.488281 C 10.777344 19.359375 10.585938 19.339844 10.457031 19.441406 C 10.328125 19.542969 10.304688 19.726562 10.410156 19.851562 C 10.511719 19.980469 10.703125 20 10.832031 19.898438 Z M 10.832031 19.898438 "/>
<path style=" stroke:none;fill-rule:nonzero;fill:rgb(83.921569%,69.803922%,40.784314%);fill-opacity:1;" d="M 10.21875 19.097656 C 10.363281 19.019531 10.414062 18.839844 10.328125 18.699219 C 10.246094 18.558594 10.0625 18.507812 9.917969 18.589844 C 9.773438 18.671875 9.722656 18.851562 9.808594 18.992188 C 9.890625 19.132812 10.074219 19.179688 10.21875 19.097656 Z M 10.21875 19.097656 "/>
<path style=" stroke:none;fill-rule:nonzero;fill:rgb(83.921569%,69.803922%,40.784314%);fill-opacity:1;" d="M 9.734375 18.21875 C 9.886719 18.160156 9.964844 17.988281 9.902344 17.835938 C 9.84375 17.6875 9.667969 17.609375 9.511719 17.671875 C 9.359375 17.730469 9.28125 17.902344 9.34375 18.050781 C 9.402344 18.203125 9.578125 18.277344 9.734375 18.21875 Z M 9.734375 18.21875 "/>
<path style=" stroke:none;fill-rule:nonzero;fill:rgb(83.921569%,69.803922%,40.784314%);fill-opacity:1;" d="M 9.390625 17.277344 C 9.550781 17.238281 9.652344 17.082031 9.617188 16.925781 C 9.578125 16.765625 9.417969 16.667969 9.253906 16.703125 C 9.09375 16.738281 8.992188 16.898438 9.027344 17.054688 C 9.066406 17.214844 9.226562 17.3125 9.390625 17.277344 Z M 9.390625 17.277344 "/>
<path style=" stroke:none;fill-rule:nonzero;fill:rgb(83.921569%,69.803922%,40.784314%);fill-opacity:1;" d="M 9.191406 16.292969 C 9.355469 16.28125 9.480469 16.140625 9.46875 15.980469 C 9.457031 15.816406 9.3125 15.695312 9.144531 15.707031 C 8.980469 15.71875 8.855469 15.863281 8.867188 16.023438 C 8.878906 16.1875 9.023438 16.308594 9.191406 16.292969 Z M 9.191406 16.292969 "/>
<path style=" stroke:none;fill-rule:nonzero;fill:rgb(83.921569%,69.803922%,40.784314%);fill-opacity:1;" d="M 16.722656 8.84375 C 16.699219 9.003906 16.8125 9.15625 16.976562 9.179688 C 17.140625 9.203125 17.292969 9.09375 17.320312 8.933594 C 17.34375 8.769531 17.230469 8.621094 17.066406 8.597656 C 16.902344 8.574219 16.746094 8.683594 16.722656 8.84375 Z M 16.722656 8.84375 "/>
<path style=" stroke:none;fill-rule:nonzero;fill:rgb(83.921569%,69.803922%,40.784314%);fill-opacity:1;" d="M 17.730469 9.023438 C 17.683594 9.179688 17.769531 9.34375 17.929688 9.390625 C 18.089844 9.441406 18.257812 9.351562 18.308594 9.195312 C 18.355469 9.042969 18.265625 8.878906 18.109375 8.828125 C 17.949219 8.78125 17.78125 8.867188 17.730469 9.023438 Z M 17.730469 9.023438 "/>
<path style=" stroke:none;fill-rule:nonzero;fill:rgb(83.921569%,69.803922%,40.784314%);fill-opacity:1;" d="M 18.699219 9.347656 C 18.628906 9.492188 18.691406 9.671875 18.839844 9.742188 C 18.992188 9.8125 19.171875 9.75 19.242188 9.601562 C 19.316406 9.457031 19.253906 9.28125 19.101562 9.210938 C 18.953125 9.140625 18.773438 9.203125 18.699219 9.347656 Z M 18.699219 9.347656 "/>
<path style=" stroke:none;fill-rule:nonzero;fill:rgb(83.921569%,69.803922%,40.784314%);fill-opacity:1;" d="M 19.609375 9.808594 C 19.515625 9.941406 19.550781 10.125 19.6875 10.21875 C 19.824219 10.308594 20.011719 10.273438 20.105469 10.140625 C 20.199219 10.007812 20.164062 9.824219 20.027344 9.730469 C 19.890625 9.640625 19.703125 9.675781 19.609375 9.808594 Z M 19.609375 9.808594 "/>
<path style=" stroke:none;fill-rule:nonzero;fill:rgb(83.921569%,69.803922%,40.784314%);fill-opacity:1;" d="M 20.4375 10.398438 C 20.324219 10.515625 20.332031 10.703125 20.453125 10.8125 C 20.574219 10.925781 20.765625 10.917969 20.878906 10.796875 C 20.992188 10.679688 20.984375 10.492188 20.863281 10.382812 C 20.742188 10.273438 20.550781 10.277344 20.4375 10.398438 Z M 20.4375 10.398438 "/>
<path style=" stroke:none;fill-rule:nonzero;fill:rgb(83.921569%,69.803922%,40.784314%);fill-opacity:1;" d="M 21.167969 11.101562 C 21.035156 11.203125 21.015625 11.386719 21.121094 11.515625 C 21.222656 11.640625 21.414062 11.660156 21.542969 11.558594 C 21.671875 11.457031 21.695312 11.273438 21.589844 11.148438 C 21.488281 11.019531 21.296875 11 21.167969 11.101562 Z M 21.167969 11.101562 "/>
<path style=" stroke:none;fill-rule:nonzero;fill:rgb(83.921569%,69.803922%,40.784314%);fill-opacity:1;" d="M 21.78125 11.902344 C 21.636719 11.980469 21.585938 12.164062 21.671875 12.304688 C 21.753906 12.445312 21.9375 12.492188 22.082031 12.410156 C 22.226562 12.328125 22.277344 12.148438 22.191406 12.007812 C 22.109375 11.867188 21.925781 11.820312 21.78125 11.902344 Z M 21.78125 11.902344 "/>
<path style=" stroke:none;fill-rule:nonzero;fill:rgb(83.921569%,69.803922%,40.784314%);fill-opacity:1;" d="M 22.265625 12.78125 C 22.109375 12.839844 22.035156 13.011719 22.09375 13.164062 C 22.15625 13.316406 22.332031 13.390625 22.484375 13.328125 C 22.640625 13.269531 22.71875 13.097656 22.65625 12.949219 C 22.597656 12.796875 22.421875 12.722656 22.265625 12.78125 Z M 22.265625 12.78125 "/>
<path style=" stroke:none;fill-rule:nonzero;fill:rgb(83.921569%,69.803922%,40.784314%);fill-opacity:1;" d="M 22.609375 13.722656 C 22.449219 13.761719 22.347656 13.917969 22.382812 14.074219 C 22.421875 14.234375 22.582031 14.332031 22.746094 14.296875 C 22.90625 14.261719 23.007812 14.101562 22.972656 13.945312 C 22.933594 13.785156 22.773438 13.6875 22.609375 13.722656 Z M 22.609375 13.722656 "/>
<path style=" stroke:none;fill-rule:nonzero;fill:rgb(83.921569%,69.803922%,40.784314%);fill-opacity:1;" d="M 22.808594 14.707031 C 22.640625 14.71875 22.519531 14.859375 22.53125 15.019531 C 22.542969 15.183594 22.6875 15.304688 22.851562 15.292969 C 23.019531 15.28125 23.144531 15.136719 23.132812 14.976562 C 23.117188 14.816406 22.972656 14.691406 22.808594 14.707031 Z M 22.808594 14.707031 "/>
<path style=" stroke:none;fill-rule:nonzero;fill:rgb(83.921569%,69.803922%,40.784314%);fill-opacity:1;" d="M 16.722656 22.15625 C 16.699219 21.996094 16.8125 21.84375 16.976562 21.820312 C 17.140625 21.796875 17.292969 21.90625 17.320312 22.066406 C 17.34375 22.230469 17.230469 22.378906 17.066406 22.402344 C 16.902344 22.425781 16.746094 22.316406 16.722656 22.15625 Z M 16.722656 22.15625 "/>
<path style=" stroke:none;fill-rule:nonzero;fill:rgb(83.921569%,69.803922%,40.784314%);fill-opacity:1;" d="M 17.730469 21.976562 C 17.683594 21.820312 17.769531 21.65625 17.929688 21.609375 C 18.089844 21.5625 18.257812 21.648438 18.308594 21.804688 C 18.355469 21.957031 18.265625 22.121094 18.109375 22.171875 C 17.949219 22.21875 17.78125 22.132812 17.730469 21.976562 Z M 17.730469 21.976562 "/>
<path style=" stroke:none;fill-rule:nonzero;fill:rgb(83.921569%,69.803922%,40.784314%);fill-opacity:1;" d="M 18.699219 21.652344 C 18.628906 21.507812 18.691406 21.332031 18.839844 21.261719 C 18.992188 21.1875 19.171875 21.25 19.242188 21.398438 C 19.316406 21.542969 19.253906 21.71875 19.101562 21.789062 C 18.953125 21.859375 18.773438 21.800781 18.699219 21.652344 Z M 18.699219 21.652344 "/>
<path style=" stroke:none;fill-rule:nonzero;fill:rgb(83.921569%,69.803922%,40.784314%);fill-opacity:1;" d="M 19.609375 21.191406 C 19.515625 21.058594 19.550781 20.875 19.6875 20.78125 C 19.824219 20.691406 20.011719 20.726562 20.105469 20.859375 C 20.199219 20.992188 20.164062 21.175781 20.027344 21.269531 C 19.890625 21.359375 19.703125 21.324219 19.609375 21.191406 Z M 19.609375 21.191406 "/>
<path style=" stroke:none;fill-rule:nonzero;fill:rgb(83.921569%,69.803922%,40.784314%);fill-opacity:1;" d="M 20.4375 20.601562 C 20.324219 20.484375 20.332031 20.296875 20.453125 20.1875 C 20.574219 20.078125 20.765625 20.082031 20.878906 20.203125 C 20.992188 20.320312 20.984375 20.507812 20.863281 20.617188 C 20.742188 20.730469 20.550781 20.722656 20.4375 20.601562 Z M 20.4375 20.601562 "/>
<path style=" stroke:none;fill-rule:nonzero;fill:rgb(83.921569%,69.803922%,40.784314%);fill-opacity:1;" d="M 21.167969 19.898438 C 21.035156 19.800781 21.015625 19.613281 21.121094 19.488281 C 21.222656 19.359375 21.414062 19.339844 21.542969 19.441406 C 21.671875 19.542969 21.695312 19.726562 21.589844 19.851562 C 21.488281 19.980469 21.296875 20 21.167969 19.898438 Z M 21.167969 19.898438 "/>
<path style=" stroke:none;fill-rule:nonzero;fill:rgb(83.921569%,69.803922%,40.784314%);fill-opacity:1;" d="M 21.78125 19.097656 C 21.636719 19.019531 21.585938 18.839844 21.671875 18.699219 C 21.753906 18.558594 21.9375 18.507812 22.082031 18.589844 C 22.226562 18.671875 22.277344 18.851562 22.191406 18.992188 C 22.109375 19.132812 21.925781 19.179688 21.78125 19.097656 Z M 21.78125 19.097656 "/>
<path style=" stroke:none;fill-rule:nonzero;fill:rgb(83.921569%,69.803922%,40.784314%);fill-opacity:1;" d="M 22.265625 18.21875 C 22.109375 18.160156 22.035156 17.988281 22.09375 17.835938 C 22.15625 17.6875 22.332031 17.609375 22.484375 17.671875 C 22.640625 17.730469 22.71875 17.902344 22.65625 18.050781 C 22.597656 18.203125 22.421875 18.277344 22.265625 18.21875 Z M 22.265625 18.21875 "/>
<path style=" stroke:none;fill-rule:nonzero;fill:rgb(83.921569%,69.803922%,40.784314%);fill-opacity:1;" d="M 22.609375 17.277344 C 22.449219 17.238281 22.347656 17.082031 22.382812 16.925781 C 22.421875 16.765625 22.582031 16.667969 22.746094 16.703125 C 22.90625 16.738281 23.007812 16.898438 22.972656 17.054688 C 22.933594 17.214844 22.773438 17.3125 22.609375 17.277344 Z M 22.609375 17.277344 "/>
<path style=" stroke:none;fill-rule:nonzero;fill:rgb(83.921569%,69.803922%,40.784314%);fill-opacity:1;" d="M 22.808594 16.292969 C 22.640625 16.28125 22.519531 16.140625 22.53125 15.980469 C 22.542969 15.816406 22.6875 15.695312 22.851562 15.707031 C 23.019531 15.71875 23.144531 15.863281 23.132812 16.023438 C 23.117188 16.1875 22.972656 16.308594 22.808594 16.292969 Z M 22.808594 16.292969 "/>
<path style=" stroke:none;fill-rule:nonzero;fill:rgb(83.921569%,69.803922%,40.784314%);fill-opacity:1;" d="M 16.300781 5.078125 C 16.300781 5.238281 16.167969 5.371094 16 5.371094 C 15.832031 5.371094 15.699219 5.238281 15.699219 5.078125 C 15.699219 4.914062 15.832031 4.78125 16 4.78125 C 16.167969 4.78125 16.300781 4.914062 16.300781 5.078125 Z M 16.300781 5.078125 "/>
<path style=" stroke:none;fill-rule:nonzero;fill:rgb(83.921569%,69.803922%,40.784314%);fill-opacity:1;" d="M 15.21875 5.101562 C 15.234375 5.261719 15.113281 5.40625 14.949219 5.421875 C 14.785156 5.4375 14.636719 5.320312 14.617188 5.160156 C 14.601562 5 14.722656 4.855469 14.886719 4.835938 C 15.054688 4.820312 15.203125 4.9375 15.21875 5.101562 Z M 15.21875 5.101562 "/>
<path style=" stroke:none;fill-rule:nonzero;fill:rgb(83.921569%,69.803922%,40.784314%);fill-opacity:1;" d="M 14.144531 5.230469 C 14.175781 5.390625 14.074219 5.546875 13.910156 5.578125 C 13.746094 5.609375 13.585938 5.507812 13.554688 5.347656 C 13.519531 5.191406 13.625 5.035156 13.789062 5.003906 C 13.949219 4.96875 14.109375 5.070312 14.144531 5.230469 Z M 14.144531 5.230469 "/>
<path style=" stroke:none;fill-rule:nonzero;fill:rgb(83.921569%,69.803922%,40.784314%);fill-opacity:1;" d="M 13.089844 5.46875 C 13.136719 5.621094 13.050781 5.785156 12.890625 5.835938 C 12.734375 5.882812 12.5625 5.796875 12.515625 5.644531 C 12.464844 5.488281 12.550781 5.324219 12.710938 5.273438 C 12.871094 5.226562 13.039062 5.3125 13.089844 5.46875 Z M 13.089844 5.46875 "/>
<path style=" stroke:none;fill-rule:nonzero;fill:rgb(83.921569%,69.803922%,40.784314%);fill-opacity:1;" d="M 12.0625 5.804688 C 12.128906 5.957031 12.058594 6.128906 11.90625 6.191406 C 11.753906 6.257812 11.574219 6.1875 11.507812 6.039062 C 11.445312 5.890625 11.515625 5.714844 11.667969 5.652344 C 11.820312 5.589844 11.996094 5.65625 12.0625 5.804688 Z M 12.0625 5.804688 "/>
<path style=" stroke:none;fill-rule:nonzero;fill:rgb(83.921569%,69.803922%,40.784314%);fill-opacity:1;" d="M 11.078125 6.246094 C 11.160156 6.386719 11.105469 6.566406 10.960938 6.644531 C 10.816406 6.722656 10.632812 6.671875 10.550781 6.53125 C 10.46875 6.386719 10.523438 6.210938 10.667969 6.128906 C 10.8125 6.050781 10.996094 6.101562 11.078125 6.246094 Z M 11.078125 6.246094 "/>
<path style=" stroke:none;fill-rule:nonzero;fill:rgb(83.921569%,69.803922%,40.784314%);fill-opacity:1;" d="M 10.144531 6.777344 C 10.238281 6.910156 10.203125 7.09375 10.066406 7.1875 C 9.933594 7.28125 9.742188 7.25 9.648438 7.113281 C 9.554688 6.980469 9.585938 6.796875 9.722656 6.707031 C 9.859375 6.613281 10.046875 6.644531 10.144531 6.777344 Z M 10.144531 6.777344 "/>
<path style=" stroke:none;fill-rule:nonzero;fill:rgb(83.921569%,69.803922%,40.784314%);fill-opacity:1;" d="M 9.269531 7.402344 C 9.378906 7.527344 9.363281 7.710938 9.238281 7.816406 C 9.109375 7.921875 8.921875 7.910156 8.8125 7.785156 C 8.703125 7.664062 8.71875 7.476562 8.84375 7.371094 C 8.96875 7.265625 9.160156 7.277344 9.269531 7.402344 Z M 9.269531 7.402344 "/>
<path style=" stroke:none;fill-rule:nonzero;fill:rgb(83.921569%,69.803922%,40.784314%);fill-opacity:1;" d="M 8.464844 8.109375 C 8.585938 8.222656 8.589844 8.40625 8.476562 8.523438 C 8.359375 8.644531 8.167969 8.648438 8.046875 8.535156 C 7.929688 8.425781 7.921875 8.238281 8.039062 8.121094 C 8.152344 8.003906 8.34375 7.996094 8.464844 8.109375 Z M 8.464844 8.109375 "/>
<path style=" stroke:none;fill-rule:nonzero;fill:rgb(83.921569%,69.803922%,40.784314%);fill-opacity:1;" d="M 7.734375 8.890625 C 7.867188 8.992188 7.890625 9.175781 7.789062 9.304688 C 7.6875 9.433594 7.5 9.457031 7.367188 9.355469 C 7.234375 9.257812 7.210938 9.074219 7.3125 8.945312 C 7.414062 8.816406 7.605469 8.792969 7.734375 8.890625 Z M 7.734375 8.890625 "/>
<path style=" stroke:none;fill-rule:nonzero;fill:rgb(83.921569%,69.803922%,40.784314%);fill-opacity:1;" d="M 7.09375 9.742188 C 7.234375 9.828125 7.277344 10.007812 7.191406 10.148438 C 7.101562 10.285156 6.914062 10.328125 6.773438 10.242188 C 6.632812 10.15625 6.589844 9.972656 6.679688 9.835938 C 6.765625 9.699219 6.953125 9.65625 7.09375 9.742188 Z M 7.09375 9.742188 "/>
<path style=" stroke:none;fill-rule:nonzero;fill:rgb(83.921569%,69.803922%,40.784314%);fill-opacity:1;" d="M 6.542969 10.652344 C 6.691406 10.722656 6.753906 10.898438 6.679688 11.046875 C 6.605469 11.191406 6.425781 11.25 6.277344 11.179688 C 6.128906 11.109375 6.066406 10.933594 6.140625 10.785156 C 6.210938 10.640625 6.390625 10.582031 6.542969 10.652344 Z M 6.542969 10.652344 "/>
<path style=" stroke:none;fill-rule:nonzero;fill:rgb(83.921569%,69.803922%,40.784314%);fill-opacity:1;" d="M 6.085938 11.609375 C 6.242188 11.667969 6.324219 11.835938 6.265625 11.988281 C 6.207031 12.140625 6.035156 12.21875 5.878906 12.164062 C 5.722656 12.105469 5.644531 11.9375 5.699219 11.785156 C 5.757812 11.632812 5.929688 11.554688 6.085938 11.609375 Z M 6.085938 11.609375 "/>
<path style=" stroke:none;fill-rule:nonzero;fill:rgb(83.921569%,69.803922%,40.784314%);fill-opacity:1;" d="M 5.734375 12.609375 C 5.894531 12.652344 5.992188 12.8125 5.953125 12.96875 C 5.910156 13.125 5.746094 13.222656 5.585938 13.179688 C 5.421875 13.140625 5.328125 12.980469 5.367188 12.820312 C 5.410156 12.664062 5.574219 12.570312 5.734375 12.609375 Z M 5.734375 12.609375 "/>
<path style=" stroke:none;fill-rule:nonzero;fill:rgb(83.921569%,69.803922%,40.784314%);fill-opacity:1;" d="M 5.488281 13.640625 C 5.652344 13.664062 5.765625 13.8125 5.742188 13.976562 C 5.714844 14.136719 5.5625 14.246094 5.398438 14.222656 C 5.234375 14.195312 5.121094 14.046875 5.144531 13.886719 C 5.167969 13.726562 5.324219 13.617188 5.488281 13.640625 Z M 5.488281 13.640625 "/>
<path style=" stroke:none;fill-rule:nonzero;fill:rgb(83.921569%,69.803922%,40.784314%);fill-opacity:1;" d="M 5.347656 14.6875 C 5.515625 14.695312 5.644531 14.835938 5.636719 14.996094 C 5.628906 15.160156 5.484375 15.285156 5.320312 15.277344 C 5.152344 15.269531 5.023438 15.128906 5.035156 14.96875 C 5.042969 14.804688 5.183594 14.679688 5.347656 14.6875 Z M 5.347656 14.6875 "/>
<path style=" stroke:none;fill-rule:nonzero;fill:rgb(83.921569%,69.803922%,40.784314%);fill-opacity:1;" d="M 16.300781 25.925781 C 16.300781 25.761719 16.167969 25.628906 16 25.628906 C 15.832031 25.628906 15.699219 25.761719 15.699219 25.925781 C 15.699219 26.085938 15.832031 26.21875 16 26.21875 C 16.167969 26.21875 16.300781 26.085938 16.300781 25.925781 Z M 16.300781 25.925781 "/>
<path style=" stroke:none;fill-rule:nonzero;fill:rgb(83.921569%,69.803922%,40.784314%);fill-opacity:1;" d="M 15.21875 25.898438 C 15.234375 25.738281 15.113281 25.59375 14.949219 25.578125 C 14.785156 25.5625 14.636719 25.679688 14.617188 25.839844 C 14.601562 26.003906 14.722656 26.148438 14.886719 26.164062 C 15.054688 26.179688 15.203125 26.0625 15.21875 25.898438 Z M 15.21875 25.898438 "/>
<path style=" stroke:none;fill-rule:nonzero;fill:rgb(83.921569%,69.803922%,40.784314%);fill-opacity:1;" d="M 14.144531 25.769531 C 14.175781 25.609375 14.074219 25.453125 13.910156 25.421875 C 13.746094 25.390625 13.585938 25.492188 13.554688 25.652344 C 13.519531 25.808594 13.625 25.964844 13.789062 26 C 13.949219 26.03125 14.109375 25.929688 14.144531 25.769531 Z M 14.144531 25.769531 "/>
<path style=" stroke:none;fill-rule:nonzero;fill:rgb(83.921569%,69.803922%,40.784314%);fill-opacity:1;" d="M 13.089844 25.535156 C 13.136719 25.378906 13.050781 25.214844 12.890625 25.164062 C 12.734375 25.117188 12.5625 25.203125 12.515625 25.355469 C 12.464844 25.511719 12.550781 25.675781 12.710938 25.726562 C 12.871094 25.773438 13.039062 25.6875 13.089844 25.535156 Z M 13.089844 25.535156 "/>
<path style=" stroke:none;fill-rule:nonzero;fill:rgb(83.921569%,69.803922%,40.784314%);fill-opacity:1;" d="M 12.0625 25.195312 C 12.128906 25.042969 12.058594 24.871094 11.90625 24.808594 C 11.753906 24.742188 11.574219 24.8125 11.507812 24.960938 C 11.445312 25.113281 11.515625 25.285156 11.667969 25.347656 C 11.820312 25.414062 11.996094 25.34375 12.0625 25.195312 Z M 12.0625 25.195312 "/>
<path style=" stroke:none;fill-rule:nonzero;fill:rgb(83.921569%,69.803922%,40.784314%);fill-opacity:1;" d="M 11.078125 24.753906 C 11.160156 24.613281 11.105469 24.433594 10.960938 24.355469 C 10.816406 24.277344 10.632812 24.328125 10.550781 24.46875 C 10.46875 24.613281 10.523438 24.789062 10.667969 24.871094 C 10.8125 24.949219 10.996094 24.898438 11.078125 24.753906 Z M 11.078125 24.753906 "/>
<path style=" stroke:none;fill-rule:nonzero;fill:rgb(83.921569%,69.803922%,40.784314%);fill-opacity:1;" d="M 10.144531 24.222656 C 10.238281 24.089844 10.203125 23.90625 10.066406 23.8125 C 9.933594 23.71875 9.742188 23.75 9.648438 23.886719 C 9.554688 24.019531 9.585938 24.203125 9.722656 24.292969 C 9.859375 24.386719 10.046875 24.355469 10.144531 24.222656 Z M 10.144531 24.222656 "/>
<path style=" stroke:none;fill-rule:nonzero;fill:rgb(83.921569%,69.803922%,40.784314%);fill-opacity:1;" d="M 9.269531 23.597656 C 9.378906 23.476562 9.363281 23.289062 9.238281 23.183594 C 9.109375 23.078125 8.921875 23.089844 8.8125 23.214844 C 8.703125 23.335938 8.71875 23.523438 8.84375 23.628906 C 8.96875 23.734375 9.160156 23.722656 9.269531 23.597656 Z M 9.269531 23.597656 "/>
<path style=" stroke:none;fill-rule:nonzero;fill:rgb(83.921569%,69.803922%,40.784314%);fill-opacity:1;" d="M 8.464844 22.890625 C 8.585938 22.78125 8.589844 22.59375 8.476562 22.476562 C 8.359375 22.359375 8.167969 22.351562 8.046875 22.464844 C 7.929688 22.578125 7.921875 22.761719 8.039062 22.878906 C 8.152344 23 8.34375 23.003906 8.464844 22.890625 Z M 8.464844 22.890625 "/>
<path style=" stroke:none;fill-rule:nonzero;fill:rgb(83.921569%,69.803922%,40.784314%);fill-opacity:1;" d="M 7.734375 22.109375 C 7.867188 22.007812 7.890625 21.824219 7.789062 21.695312 C 7.6875 21.566406 7.5 21.542969 7.367188 21.644531 C 7.234375 21.742188 7.210938 21.925781 7.3125 22.054688 C 7.414062 22.183594 7.605469 22.207031 7.734375 22.109375 Z M 7.734375 22.109375 "/>
<path style=" stroke:none;fill-rule:nonzero;fill:rgb(83.921569%,69.803922%,40.784314%);fill-opacity:1;" d="M 7.09375 21.257812 C 7.234375 21.171875 7.277344 20.992188 7.191406 20.851562 C 7.101562 20.714844 6.914062 20.671875 6.773438 20.757812 C 6.632812 20.84375 6.589844 21.027344 6.679688 21.164062 C 6.765625 21.300781 6.953125 21.34375 7.09375 21.257812 Z M 7.09375 21.257812 "/>
<path style=" stroke:none;fill-rule:nonzero;fill:rgb(83.921569%,69.803922%,40.784314%);fill-opacity:1;" d="M 6.542969 20.347656 C 6.691406 20.277344 6.753906 20.101562 6.679688 19.953125 C 6.605469 19.808594 6.425781 19.75 6.277344 19.820312 C 6.128906 19.890625 6.066406 20.066406 6.140625 20.214844 C 6.210938 20.359375 6.390625 20.421875 6.542969 20.347656 Z M 6.542969 20.347656 "/>
<path style=" stroke:none;fill-rule:nonzero;fill:rgb(83.921569%,69.803922%,40.784314%);fill-opacity:1;" d="M 6.085938 19.390625 C 6.242188 19.332031 6.324219 19.164062 6.265625 19.011719 C 6.207031 18.859375 6.035156 18.78125 5.878906 18.835938 C 5.722656 18.894531 5.644531 19.0625 5.699219 19.214844 C 5.757812 19.367188 5.929688 19.445312 6.085938 19.390625 Z M 6.085938 19.390625 "/>
<path style=" stroke:none;fill-rule:nonzero;fill:rgb(83.921569%,69.803922%,40.784314%);fill-opacity:1;" d="M 5.734375 18.390625 C 5.894531 18.347656 5.992188 18.1875 5.953125 18.03125 C 5.910156 17.875 5.746094 17.777344 5.585938 17.820312 C 5.421875 17.859375 5.328125 18.019531 5.367188 18.179688 C 5.410156 18.335938 5.574219 18.429688 5.734375 18.390625 Z M 5.734375 18.390625 "/>
<path style=" stroke:none;fill-rule:nonzero;fill:rgb(83.921569%,69.803922%,40.784314%);fill-opacity:1;" d="M 5.488281 17.359375 C 5.652344 17.335938 5.765625 17.1875 5.742188 17.023438 C 5.714844 16.863281 5.5625 16.753906 5.398438 16.777344 C 5.234375 16.804688 5.121094 16.953125 5.144531 17.113281 C 5.167969 17.273438 5.324219 17.386719 5.488281 17.359375 Z M 5.488281 17.359375 "/>
<path style=" stroke:none;fill-rule:nonzero;fill:rgb(83.921569%,69.803922%,40.784314%);fill-opacity:1;" d="M 5.347656 16.3125 C 5.515625 16.304688 5.644531 16.164062 5.636719 16.003906 C 5.628906 15.839844 5.484375 15.714844 5.320312 15.722656 C 5.152344 15.730469 5.023438 15.871094 5.035156 16.03125 C 5.042969 16.195312 5.183594 16.320312 5.347656 16.3125 Z M 5.347656 16.3125 "/>
<path style=" stroke:none;fill-rule:nonzero;fill:rgb(83.921569%,69.803922%,40.784314%);fill-opacity:1;" d="M 16.78125 5.101562 C 16.765625 5.261719 16.886719 5.40625 17.050781 5.421875 C 17.214844 5.4375 17.363281 5.320312 17.378906 5.160156 C 17.398438 5 17.277344 4.855469 17.109375 4.835938 C 16.945312 4.820312 16.796875 4.9375 16.78125 5.101562 Z M 16.78125 5.101562 "/>
<path style=" stroke:none;fill-rule:nonzero;fill:rgb(83.921569%,69.803922%,40.784314%);fill-opacity:1;" d="M 17.855469 5.230469 C 17.820312 5.390625 17.925781 5.546875 18.089844 5.578125 C 18.253906 5.609375 18.414062 5.507812 18.445312 5.347656 C 18.480469 5.191406 18.375 5.035156 18.210938 5.003906 C 18.046875 4.96875 17.890625 5.070312 17.855469 5.230469 Z M 17.855469 5.230469 "/>
<path style=" stroke:none;fill-rule:nonzero;fill:rgb(83.921569%,69.803922%,40.784314%);fill-opacity:1;" d="M 18.910156 5.46875 C 18.859375 5.621094 18.949219 5.785156 19.109375 5.835938 C 19.265625 5.882812 19.4375 5.796875 19.484375 5.644531 C 19.535156 5.488281 19.449219 5.324219 19.289062 5.273438 C 19.128906 5.226562 18.960938 5.3125 18.910156 5.46875 Z M 18.910156 5.46875 "/>
<path style=" stroke:none;fill-rule:nonzero;fill:rgb(83.921569%,69.803922%,40.784314%);fill-opacity:1;" d="M 19.9375 5.804688 C 19.871094 5.957031 19.941406 6.128906 20.09375 6.191406 C 20.246094 6.257812 20.425781 6.1875 20.492188 6.039062 C 20.554688 5.890625 20.484375 5.714844 20.332031 5.652344 C 20.179688 5.589844 20.003906 5.65625 19.9375 5.804688 Z M 19.9375 5.804688 "/>
<path style=" stroke:none;fill-rule:nonzero;fill:rgb(83.921569%,69.803922%,40.784314%);fill-opacity:1;" d="M 20.921875 6.246094 C 20.839844 6.386719 20.894531 6.566406 21.039062 6.644531 C 21.183594 6.722656 21.367188 6.671875 21.449219 6.53125 C 21.53125 6.390625 21.476562 6.210938 21.332031 6.128906 C 21.1875 6.050781 21.003906 6.101562 20.921875 6.246094 Z M 20.921875 6.246094 "/>
<path style=" stroke:none;fill-rule:nonzero;fill:rgb(83.921569%,69.803922%,40.784314%);fill-opacity:1;" d="M 21.855469 6.777344 C 21.761719 6.910156 21.792969 7.09375 21.929688 7.1875 C 22.066406 7.28125 22.253906 7.25 22.351562 7.113281 C 22.445312 6.980469 22.414062 6.796875 22.277344 6.707031 C 22.140625 6.613281 21.953125 6.644531 21.855469 6.777344 Z M 21.855469 6.777344 "/>
<path style=" stroke:none;fill-rule:nonzero;fill:rgb(83.921569%,69.803922%,40.784314%);fill-opacity:1;" d="M 22.730469 7.402344 C 22.621094 7.527344 22.636719 7.710938 22.761719 7.816406 C 22.890625 7.921875 23.078125 7.910156 23.1875 7.785156 C 23.296875 7.664062 23.28125 7.476562 23.15625 7.371094 C 23.027344 7.265625 22.839844 7.277344 22.730469 7.402344 Z M 22.730469 7.402344 "/>
<path style=" stroke:none;fill-rule:nonzero;fill:rgb(83.921569%,69.803922%,40.784314%);fill-opacity:1;" d="M 23.535156 8.109375 C 23.414062 8.222656 23.410156 8.40625 23.523438 8.523438 C 23.640625 8.644531 23.832031 8.648438 23.949219 8.535156 C 24.070312 8.425781 24.078125 8.238281 23.960938 8.121094 C 23.847656 8.003906 23.65625 7.996094 23.535156 8.109375 Z M 23.535156 8.109375 "/>
<path style=" stroke:none;fill-rule:nonzero;fill:rgb(83.921569%,69.803922%,40.784314%);fill-opacity:1;" d="M 24.265625 8.890625 C 24.132812 8.992188 24.109375 9.175781 24.210938 9.304688 C 24.3125 9.433594 24.5 9.457031 24.632812 9.355469 C 24.765625 9.257812 24.789062 9.074219 24.6875 8.945312 C 24.585938 8.816406 24.394531 8.792969 24.265625 8.890625 Z M 24.265625 8.890625 "/>
<path style=" stroke:none;fill-rule:nonzero;fill:rgb(83.921569%,69.803922%,40.784314%);fill-opacity:1;" d="M 24.90625 9.742188 C 24.765625 9.828125 24.722656 10.007812 24.808594 10.148438 C 24.898438 10.285156 25.082031 10.328125 25.226562 10.242188 C 25.367188 10.15625 25.410156 9.972656 25.320312 9.835938 C 25.234375 9.699219 25.046875 9.65625 24.90625 9.742188 Z M 24.90625 9.742188 "/>
<path style=" stroke:none;fill-rule:nonzero;fill:rgb(83.921569%,69.803922%,40.784314%);fill-opacity:1;" d="M 25.457031 10.652344 C 25.308594 10.722656 25.246094 10.898438 25.320312 11.046875 C 25.394531 11.191406 25.574219 11.25 25.722656 11.179688 C 25.871094 11.109375 25.933594 10.933594 25.859375 10.785156 C 25.789062 10.640625 25.609375 10.582031 25.457031 10.652344 Z M 25.457031 10.652344 "/>
<path style=" stroke:none;fill-rule:nonzero;fill:rgb(83.921569%,69.803922%,40.784314%);fill-opacity:1;" d="M 25.914062 11.609375 C 25.757812 11.667969 25.675781 11.835938 25.734375 11.988281 C 25.792969 12.140625 25.964844 12.21875 26.121094 12.164062 C 26.277344 12.105469 26.355469 11.9375 26.300781 11.785156 C 26.242188 11.632812 26.066406 11.554688 25.914062 11.609375 Z M 25.914062 11.609375 "/>
<path style=" stroke:none;fill-rule:nonzero;fill:rgb(83.921569%,69.803922%,40.784314%);fill-opacity:1;" d="M 26.265625 12.609375 C 26.101562 12.652344 26.007812 12.8125 26.046875 12.96875 C 26.089844 13.125 26.253906 13.222656 26.414062 13.179688 C 26.578125 13.140625 26.671875 12.980469 26.632812 12.820312 C 26.589844 12.664062 26.425781 12.570312 26.265625 12.609375 Z M 26.265625 12.609375 "/>
<path style=" stroke:none;fill-rule:nonzero;fill:rgb(83.921569%,69.803922%,40.784314%);fill-opacity:1;" d="M 26.511719 13.640625 C 26.347656 13.664062 26.234375 13.8125 26.257812 13.976562 C 26.285156 14.136719 26.4375 14.246094 26.601562 14.222656 C 26.765625 14.195312 26.878906 14.046875 26.855469 13.886719 C 26.828125 13.726562 26.675781 13.617188 26.511719 13.640625 Z M 26.511719 13.640625 "/>
<path style=" stroke:none;fill-rule:nonzero;fill:rgb(83.921569%,69.803922%,40.784314%);fill-opacity:1;" d="M 26.652344 14.6875 C 26.484375 14.695312 26.355469 14.835938 26.363281 14.996094 C 26.371094 15.160156 26.515625 15.285156 26.679688 15.277344 C 26.847656 15.269531 26.976562 15.128906 26.964844 14.96875 C 26.957031 14.804688 26.816406 14.679688 26.652344 14.6875 Z M 26.652344 14.6875 "/>
<path style=" stroke:none;fill-rule:nonzero;fill:rgb(83.921569%,69.803922%,40.784314%);fill-opacity:1;" d="M 16.78125 25.898438 C 16.765625 25.738281 16.886719 25.59375 17.050781 25.578125 C 17.214844 25.5625 17.363281 25.679688 17.378906 25.839844 C 17.398438 26.003906 17.277344 26.148438 17.109375 26.164062 C 16.945312 26.179688 16.796875 26.0625 16.78125 25.898438 Z M 16.78125 25.898438 "/>
<path style=" stroke:none;fill-rule:nonzero;fill:rgb(83.921569%,69.803922%,40.784314%);fill-opacity:1;" d="M 17.855469 25.769531 C 17.820312 25.609375 17.925781 25.453125 18.089844 25.421875 C 18.253906 25.390625 18.414062 25.492188 18.445312 25.652344 C 18.480469 25.808594 18.375 25.964844 18.210938 26 C 18.046875 26.03125 17.890625 25.929688 17.855469 25.769531 Z M 17.855469 25.769531 "/>
<path style=" stroke:none;fill-rule:nonzero;fill:rgb(83.921569%,69.803922%,40.784314%);fill-opacity:1;" d="M 18.910156 25.535156 C 18.859375 25.378906 18.949219 25.214844 19.109375 25.164062 C 19.265625 25.117188 19.4375 25.203125 19.484375 25.355469 C 19.535156 25.511719 19.449219 25.675781 19.289062 25.726562 C 19.128906 25.773438 18.960938 25.6875 18.910156 25.535156 Z M 18.910156 25.535156 "/>
<path style=" stroke:none;fill-rule:nonzero;fill:rgb(83.921569%,69.803922%,40.784314%);fill-opacity:1;" d="M 19.9375 25.195312 C 19.871094 25.042969 19.941406 24.871094 20.09375 24.808594 C 20.246094 24.742188 20.425781 24.8125 20.492188 24.960938 C 20.554688 25.113281 20.484375 25.285156 20.332031 25.347656 C 20.179688 25.414062 20.003906 25.34375 19.9375 25.195312 Z M 19.9375 25.195312 "/>
<path style=" stroke:none;fill-rule:nonzero;fill:rgb(83.921569%,69.803922%,40.784314%);fill-opacity:1;" d="M 20.921875 24.753906 C 20.839844 24.613281 20.894531 24.433594 21.039062 24.355469 C 21.183594 24.277344 21.367188 24.328125 21.449219 24.46875 C 21.53125 24.613281 21.476562 24.789062 21.332031 24.871094 C 21.1875 24.949219 21.003906 24.898438 20.921875 24.753906 Z M 20.921875 24.753906 "/>
<path style=" stroke:none;fill-rule:nonzero;fill:rgb(83.921569%,69.803922%,40.784314%);fill-opacity:1;" d="M 21.855469 24.222656 C 21.761719 24.089844 21.792969 23.90625 21.929688 23.8125 C 22.066406 23.71875 22.253906 23.75 22.351562 23.886719 C 22.445312 24.019531 22.414062 24.203125 22.277344 24.292969 C 22.140625 24.386719 21.953125 24.355469 21.855469 24.222656 Z M 21.855469 24.222656 "/>
<path style=" stroke:none;fill-rule:nonzero;fill:rgb(83.921569%,69.803922%,40.784314%);fill-opacity:1;" d="M 22.730469 23.597656 C 22.621094 23.476562 22.636719 23.289062 22.761719 23.183594 C 22.890625 23.078125 23.078125 23.089844 23.1875 23.214844 C 23.296875 23.335938 23.28125 23.523438 23.15625 23.628906 C 23.027344 23.734375 22.839844 23.722656 22.730469 23.597656 Z M 22.730469 23.597656 "/>
<path style=" stroke:none;fill-rule:nonzero;fill:rgb(83.921569%,69.803922%,40.784314%);fill-opacity:1;" d="M 23.535156 22.890625 C 23.414062 22.78125 23.410156 22.59375 23.523438 22.476562 C 23.640625 22.359375 23.832031 22.351562 23.949219 22.464844 C 24.070312 22.578125 24.078125 22.761719 23.960938 22.878906 C 23.847656 23 23.65625 23.003906 23.535156 22.890625 Z M 23.535156 22.890625 "/>
<path style=" stroke:none;fill-rule:nonzero;fill:rgb(83.921569%,69.803922%,40.784314%);fill-opacity:1;" d="M 24.265625 22.109375 C 24.132812 22.007812 24.109375 21.824219 24.210938 21.695312 C 24.3125 21.566406 24.5 21.542969 24.632812 21.644531 C 24.765625 21.742188 24.789062 21.925781 24.6875 22.054688 C 24.585938 22.183594 24.394531 22.207031 24.265625 22.109375 Z M 24.265625 22.109375 "/>
<path style=" stroke:none;fill-rule:nonzero;fill:rgb(83.921569%,69.803922%,40.784314%);fill-opacity:1;" d="M 24.90625 21.257812 C 24.765625 21.171875 24.722656 20.992188 24.808594 20.851562 C 24.898438 20.714844 25.082031 20.671875 25.226562 20.757812 C 25.367188 20.84375 25.410156 21.027344 25.320312 21.164062 C 25.234375 21.300781 25.046875 21.34375 24.90625 21.257812 Z M 24.90625 21.257812 "/>
<path style=" stroke:none;fill-rule:nonzero;fill:rgb(83.921569%,69.803922%,40.784314%);fill-opacity:1;" d="M 25.457031 20.347656 C 25.308594 20.277344 25.246094 20.101562 25.320312 19.953125 C 25.394531 19.808594 25.574219 19.75 25.722656 19.820312 C 25.871094 19.890625 25.933594 20.066406 25.859375 20.214844 C 25.789062 20.359375 25.609375 20.421875 25.457031 20.347656 Z M 25.457031 20.347656 "/>
<path style=" stroke:none;fill-rule:nonzero;fill:rgb(83.921569%,69.803922%,40.784314%);fill-opacity:1;" d="M 25.914062 19.390625 C 25.757812 19.332031 25.675781 19.164062 25.734375 19.011719 C 25.792969 18.859375 25.964844 18.78125 26.121094 18.835938 C 26.277344 18.894531 26.355469 19.0625 26.300781 19.214844 C 26.242188 19.367188 26.066406 19.445312 25.914062 19.390625 Z M 25.914062 19.390625 "/>
<path style=" stroke:none;fill-rule:nonzero;fill:rgb(83.921569%,69.803922%,40.784314%);fill-opacity:1;" d="M 26.265625 18.390625 C 26.101562 18.347656 26.007812 18.1875 26.046875 18.03125 C 26.089844 17.875 26.253906 17.777344 26.414062 17.820312 C 26.578125 17.859375 26.671875 18.019531 26.632812 18.179688 C 26.589844 18.335938 26.425781 18.429688 26.265625 18.390625 Z M 26.265625 18.390625 "/>
<path style=" stroke:none;fill-rule:nonzero;fill:rgb(83.921569%,69.803922%,40.784314%);fill-opacity:1;" d="M 26.511719 17.359375 C 26.347656 17.335938 26.234375 17.1875 26.257812 17.023438 C 26.285156 16.863281 26.4375 16.753906 26.601562 16.777344 C 26.765625 16.804688 26.878906 16.953125 26.855469 17.113281 C 26.828125 17.273438 26.675781 17.386719 26.511719 17.359375 Z M 26.511719 17.359375 "/>
<path style=" stroke:none;fill-rule:nonzero;fill:rgb(83.921569%,69.803922%,40.784314%);fill-opacity:1;" d="M 26.652344 16.3125 C 26.484375 16.304688 26.355469 16.164062 26.363281 16.003906 C 26.371094 15.839844 26.515625 15.714844 26.679688 15.722656 C 26.847656 15.730469 26.976562 15.871094 26.964844 16.03125 C 26.957031 16.195312 26.816406 16.320312 26.652344 16.3125 Z M 26.652344 16.3125 "/>
<path style=" stroke:none;fill-rule:nonzero;fill:rgb(83.921569%,69.803922%,40.784314%);fill-opacity:1;" d="M 16 25.070312 C 16 25.070312 17.1875 24.386719 17.1875 23.761719 C 17.1875 23.222656 16.738281 23.039062 16.523438 23.039062 C 16.253906 23.039062 16 23.257812 16 23.257812 C 16 23.257812 15.746094 23.039062 15.476562 23.039062 C 15.261719 23.039062 14.8125 23.222656 14.8125 23.761719 C 14.8125 24.386719 16 25.070312 16 25.070312 Z M 16 25.070312 "/>
<path style=" stroke:none;fill-rule:nonzero;fill:rgb(83.921569%,69.803922%,40.784314%);fill-opacity:1;" d="M 15.429688 6.3125 L 15.429688 7.691406 L 15.640625 7.691406 L 15.640625 7.0625 L 16.011719 7.0625 L 16.011719 6.882812 L 15.632812 6.882812 L 15.632812 6.5 L 16.171875 6.5 L 16.171875 6.3125 Z M 15.429688 6.3125 "/>
<path style=" stroke:none;fill-rule:nonzero;fill:rgb(83.921569%,69.803922%,40.784314%);fill-opacity:1;" d="M 17.566406 7.292969 C 17.511719 7.683594 17.304688 7.785156 17.074219 7.753906 C 16.839844 7.726562 16.667969 7.566406 16.71875 7.1875 L 16.769531 6.800781 C 16.820312 6.421875 17.027344 6.3125 17.261719 6.339844 C 17.496094 6.371094 17.667969 6.519531 17.617188 6.910156 Z M 17.398438 6.878906 C 17.433594 6.601562 17.351562 6.535156 17.234375 6.519531 C 17.121094 6.503906 17.019531 6.566406 16.988281 6.828125 L 16.933594 7.214844 C 16.902344 7.472656 16.984375 7.558594 17.097656 7.574219 C 17.210938 7.585938 17.308594 7.542969 17.347656 7.265625 Z M 17.398438 6.878906 "/>
<path style=" stroke:none;fill-rule:nonzero;fill:rgb(83.921569%,69.803922%,40.784314%);fill-opacity:1;" d="M 18.679688 7.496094 L 18.5 7.4375 L 18.308594 8.019531 L 18.113281 7.957031 L 18.550781 6.648438 L 18.976562 6.78125 C 19.152344 6.839844 19.289062 7.007812 19.207031 7.253906 C 19.144531 7.441406 19.019531 7.523438 18.875 7.539062 L 18.910156 8.207031 L 18.703125 8.140625 Z M 18.554688 7.28125 L 18.753906 7.347656 C 18.863281 7.378906 18.972656 7.335938 19.019531 7.199219 C 19.0625 7.070312 18.996094 6.972656 18.890625 6.941406 L 18.6875 6.875 Z M 18.554688 7.28125 "/>
<path style=" stroke:none;fill-rule:nonzero;fill:rgb(83.921569%,69.803922%,40.784314%);fill-opacity:1;" d="M 20.226562 8.023438 C 19.9375 8.484375 20.007812 8.730469 20.25 8.878906 C 20.433594 8.992188 20.640625 8.945312 20.773438 8.800781 L 20.636719 8.644531 C 20.554688 8.734375 20.433594 8.769531 20.347656 8.714844 C 20.226562 8.644531 20.207031 8.464844 20.414062 8.132812 C 20.621094 7.804688 20.792969 7.742188 20.914062 7.8125 C 21.007812 7.871094 21.039062 7.988281 20.960938 8.117188 L 21.171875 8.175781 C 21.261719 7.988281 21.214844 7.773438 21.019531 7.65625 C 20.792969 7.523438 20.515625 7.5625 20.226562 8.023438 Z M 20.226562 8.023438 "/>
<path style=" stroke:none;fill-rule:nonzero;fill:rgb(83.921569%,69.803922%,40.784314%);fill-opacity:1;" d="M 21.742188 9.222656 L 21.601562 9.101562 L 21.183594 9.554688 L 21.03125 9.421875 L 21.976562 8.398438 L 22.308594 8.691406 C 22.449219 8.8125 22.503906 9.023438 22.324219 9.214844 C 22.1875 9.359375 22.039062 9.386719 21.902344 9.339844 L 21.65625 9.964844 L 21.492188 9.820312 Z M 21.714844 8.980469 L 21.871094 9.117188 C 21.957031 9.191406 22.078125 9.191406 22.175781 9.085938 C 22.269531 8.988281 22.25 8.875 22.164062 8.800781 L 22.007812 8.660156 Z M 21.714844 8.980469 "/>
<path style=" stroke:none;fill-rule:nonzero;fill:rgb(83.921569%,69.803922%,40.784314%);fill-opacity:1;" d="M 23.234375 9.609375 L 23.09375 9.460938 L 22.050781 10.386719 L 22.191406 10.539062 Z M 23.234375 9.609375 "/>
<path style=" stroke:none;fill-rule:nonzero;fill:rgb(83.921569%,69.803922%,40.784314%);fill-opacity:1;" d="M 23.121094 10.539062 C 22.652344 10.832031 22.605469 11.082031 22.757812 11.320312 C 22.875 11.5 23.082031 11.546875 23.265625 11.472656 L 23.210938 11.273438 C 23.097656 11.320312 22.976562 11.300781 22.917969 11.214844 C 22.84375 11.097656 22.902344 10.929688 23.238281 10.71875 C 23.574219 10.511719 23.753906 10.527344 23.832031 10.644531 C 23.890625 10.734375 23.867188 10.855469 23.738281 10.933594 L 23.902344 11.078125 C 24.066406 10.949219 24.121094 10.734375 23.996094 10.546875 C 23.851562 10.328125 23.585938 10.25 23.121094 10.539062 Z M 23.121094 10.539062 "/>
<path style=" stroke:none;fill-rule:nonzero;fill:rgb(83.921569%,69.803922%,40.784314%);fill-opacity:1;" d="M 23.78125 12.074219 L 23.28125 12.285156 L 23.199219 12.097656 L 24.496094 11.550781 L 24.578125 11.738281 L 24.015625 11.976562 L 24.753906 12.132812 L 24.84375 12.335938 L 24.152344 12.203125 L 23.5625 12.914062 L 23.460938 12.6875 L 23.953125 12.117188 Z M 23.78125 12.074219 "/>
<path style=" stroke:none;fill-rule:nonzero;fill:rgb(83.921569%,69.803922%,40.784314%);fill-opacity:1;" d="M 25.238281 13.710938 L 25.054688 12.992188 L 23.6875 13.328125 L 23.871094 14.046875 L 24.054688 14 L 23.921875 13.480469 L 24.359375 13.371094 L 24.453125 13.734375 L 24.640625 13.6875 L 24.546875 13.328125 L 24.917969 13.234375 L 25.050781 13.757812 Z M 25.238281 13.710938 "/>
<path style=" stroke:none;fill-rule:nonzero;fill:rgb(83.921569%,69.803922%,40.784314%);fill-opacity:1;" d="M 25.328125 14.269531 L 25.136719 14.285156 L 25.164062 14.640625 L 23.949219 14.726562 L 23.964844 14.945312 L 25.179688 14.859375 L 25.207031 15.210938 L 25.398438 15.199219 Z M 25.328125 14.269531 "/>
<path style=" stroke:none;fill-rule:nonzero;fill:rgb(83.921569%,69.803922%,40.784314%);fill-opacity:1;" d="M 25.335938 16.625 L 25.355469 16.421875 L 23.949219 16.300781 L 23.929688 16.503906 Z M 25.335938 16.625 "/>
<path style=" stroke:none;fill-rule:nonzero;fill:rgb(83.921569%,69.803922%,40.784314%);fill-opacity:1;" d="M 23.671875 17.734375 L 23.625 17.90625 L 24.992188 18.253906 L 25.042969 18.058594 L 24.152344 17.832031 L 25.152344 17.648438 L 25.210938 17.433594 L 23.84375 17.089844 L 23.789062 17.285156 L 24.765625 17.53125 Z M 23.671875 17.734375 "/>
<path style=" stroke:none;fill-rule:nonzero;fill:rgb(83.921569%,69.803922%,40.784314%);fill-opacity:1;" d="M 24.371094 19.707031 L 24.460938 19.523438 L 23.183594 18.9375 L 23.09375 19.121094 Z M 24.371094 19.707031 "/>
<path style=" stroke:none;fill-rule:nonzero;fill:rgb(83.921569%,69.803922%,40.784314%);fill-opacity:1;" d="M 22.445312 20.132812 L 22.34375 20.28125 L 23.511719 21.054688 L 23.628906 20.886719 L 22.867188 20.382812 L 23.871094 20.535156 L 23.996094 20.355469 L 22.828125 19.582031 L 22.710938 19.75 L 23.546875 20.300781 Z M 22.445312 20.132812 "/>
<path style=" stroke:none;fill-rule:nonzero;fill:rgb(83.921569%,69.803922%,40.784314%);fill-opacity:1;" d="M 22.964844 21.683594 L 22.691406 21.957031 C 22.503906 22.148438 22.164062 22.167969 21.828125 21.851562 C 21.5 21.542969 21.480469 21.199219 21.667969 21.007812 L 21.953125 20.722656 Z M 21.9375 21 L 21.835938 21.097656 C 21.710938 21.226562 21.707031 21.417969 21.996094 21.695312 C 22.261719 21.945312 22.453125 21.929688 22.578125 21.804688 L 22.679688 21.703125 Z M 21.9375 21 "/>
<path style=" stroke:none;fill-rule:nonzero;fill:rgb(83.921569%,69.803922%,40.784314%);fill-opacity:1;" d="M 21.605469 22.886719 L 21.769531 22.761719 L 20.890625 21.683594 L 20.726562 21.808594 Z M 21.605469 22.886719 "/>
<path style=" stroke:none;fill-rule:nonzero;fill:rgb(83.921569%,69.803922%,40.784314%);fill-opacity:1;" d="M 20.253906 22.640625 L 20.445312 23.246094 L 20.003906 22.78125 Z M 19.882812 22.65625 L 19.679688 22.441406 L 19.484375 22.550781 L 20.492188 23.578125 L 20.695312 23.46875 L 20.304688 22.101562 L 20.121094 22.203125 L 20.207031 22.480469 Z M 19.882812 22.65625 "/>
<path style=" stroke:none;fill-rule:nonzero;fill:rgb(83.921569%,69.803922%,40.784314%);fill-opacity:1;" d="M 13.226562 6.703125 L 13.59375 8.035156 L 14.308594 7.847656 L 14.257812 7.667969 L 13.746094 7.800781 L 13.429688 6.652344 Z M 13.226562 6.703125 "/>
<path style=" stroke:none;fill-rule:nonzero;fill:rgb(83.921569%,69.803922%,40.784314%);fill-opacity:1;" d="M 12.863281 7.742188 C 13.023438 8.101562 12.90625 8.292969 12.6875 8.386719 C 12.472656 8.480469 12.242188 8.433594 12.082031 8.082031 L 11.917969 7.730469 C 11.761719 7.378906 11.878906 7.179688 12.09375 7.085938 C 12.308594 6.988281 12.535156 7.03125 12.699219 7.386719 Z M 12.496094 7.472656 C 12.378906 7.21875 12.273438 7.203125 12.167969 7.25 C 12.0625 7.296875 12.007812 7.398438 12.117188 7.636719 L 12.28125 7.996094 C 12.390625 8.234375 12.507812 8.265625 12.613281 8.21875 C 12.714844 8.175781 12.777344 8.085938 12.660156 7.832031 Z M 12.496094 7.472656 "/>
<path style=" stroke:none;fill-rule:nonzero;fill:rgb(83.921569%,69.803922%,40.784314%);fill-opacity:1;" d="M 11.136719 8.539062 L 10.980469 8.640625 L 11.332031 9.148438 L 11.164062 9.257812 L 10.371094 8.117188 L 10.742188 7.871094 C 10.898438 7.769531 11.117188 7.769531 11.265625 7.984375 C 11.378906 8.148438 11.367188 8.296875 11.289062 8.417969 L 11.851562 8.800781 L 11.671875 8.921875 Z M 10.886719 8.503906 L 11.0625 8.390625 C 11.15625 8.328125 11.1875 8.214844 11.105469 8.09375 C 11.027344 7.984375 10.910156 7.972656 10.816406 8.035156 L 10.640625 8.152344 Z M 10.886719 8.503906 "/>
<path style=" stroke:none;fill-rule:nonzero;fill:rgb(83.921569%,69.803922%,40.784314%);fill-opacity:1;" d="M 9.121094 9.1875 L 9.253906 9.324219 L 9.515625 9.078125 L 10.363281 9.933594 L 10.523438 9.78125 L 9.679688 8.925781 L 9.941406 8.679688 L 9.804688 8.542969 Z M 9.121094 9.1875 "/>
<path style=" stroke:none;fill-rule:nonzero;fill:rgb(83.921569%,69.803922%,40.784314%);fill-opacity:1;" d="M 9.746094 10.609375 L 9.851562 10.464844 L 8.710938 9.65625 L 8.585938 9.820312 L 9.332031 10.347656 L 8.332031 10.164062 L 8.199219 10.339844 L 9.34375 11.148438 L 9.464844 10.988281 L 8.652344 10.410156 Z M 9.746094 10.609375 "/>
<path style=" stroke:none;fill-rule:nonzero;fill:rgb(83.921569%,69.803922%,40.784314%);fill-opacity:1;" d="M 8.535156 11.4375 C 8.894531 11.613281 8.925781 11.835938 8.816406 12.042969 C 8.710938 12.25 8.5 12.355469 8.152344 12.183594 L 7.796875 12.011719 C 7.445312 11.839844 7.40625 11.609375 7.511719 11.40625 C 7.617188 11.199219 7.816406 11.089844 8.179688 11.261719 Z M 8.078125 11.457031 C 7.820312 11.328125 7.726562 11.386719 7.675781 11.484375 C 7.625 11.585938 7.652344 11.699219 7.890625 11.816406 L 8.25 11.992188 C 8.488281 12.109375 8.597656 12.0625 8.648438 11.960938 C 8.699219 11.859375 8.691406 11.753906 8.433594 11.628906 Z M 8.078125 11.457031 "/>
<path style=" stroke:none;fill-rule:nonzero;fill:rgb(83.921569%,69.803922%,40.784314%);fill-opacity:1;" d="M 7.46875 13.554688 C 8 13.703125 8.226562 13.574219 8.308594 13.304688 C 8.371094 13.101562 8.269531 12.921875 8.09375 12.835938 L 7.972656 13.003906 C 8.085938 13.054688 8.148438 13.160156 8.121094 13.257812 C 8.082031 13.386719 7.910156 13.457031 7.527344 13.347656 C 7.148438 13.238281 7.039062 13.09375 7.082031 12.960938 C 7.109375 12.855469 7.222656 12.796875 7.367188 12.835938 L 7.367188 12.625 C 7.160156 12.589844 6.960938 12.6875 6.898438 12.90625 C 6.824219 13.152344 6.9375 13.402344 7.46875 13.554688 Z M 7.46875 13.554688 "/>
<path style=" stroke:none;fill-rule:nonzero;fill:rgb(83.921569%,69.803922%,40.784314%);fill-opacity:1;" d="M 6.574219 15.257812 L 7.980469 15.363281 L 7.996094 15.160156 L 7.355469 15.109375 L 7.382812 14.75 L 7.199219 14.734375 L 7.167969 15.105469 L 6.78125 15.074219 L 6.824219 14.550781 L 6.632812 14.535156 Z M 6.574219 15.257812 "/>
<path style=" stroke:none;fill-rule:nonzero;fill:rgb(83.921569%,69.803922%,40.784314%);fill-opacity:1;" d="M 7.472656 16.011719 C 7.871094 15.964844 8.023438 16.132812 8.050781 16.363281 C 8.082031 16.589844 7.964844 16.792969 7.574219 16.839844 L 7.179688 16.882812 C 6.789062 16.929688 6.628906 16.761719 6.601562 16.53125 C 6.574219 16.304688 6.679688 16.105469 7.078125 16.054688 Z M 7.101562 16.269531 C 6.816406 16.304688 6.773438 16.402344 6.785156 16.511719 C 6.796875 16.621094 6.882812 16.703125 7.152344 16.671875 L 7.546875 16.625 C 7.8125 16.59375 7.878906 16.496094 7.863281 16.386719 C 7.851562 16.273438 7.785156 16.191406 7.5 16.222656 Z M 7.101562 16.269531 "/>
<path style=" stroke:none;fill-rule:nonzero;fill:rgb(83.921569%,69.803922%,40.784314%);fill-opacity:1;" d="M 7.3125 19.089844 L 7.179688 18.734375 C 7.085938 18.484375 7.214844 18.175781 7.652344 18.023438 C 8.082031 17.867188 8.40625 18 8.5 18.25 L 8.636719 18.621094 Z M 8.390625 18.488281 L 8.339844 18.355469 C 8.28125 18.191406 8.105469 18.105469 7.722656 18.238281 C 7.375 18.363281 7.308594 18.535156 7.371094 18.703125 L 7.417969 18.832031 Z M 8.390625 18.488281 "/>
<path style=" stroke:none;fill-rule:nonzero;fill:rgb(83.921569%,69.803922%,40.784314%);fill-opacity:1;" d="M 8.566406 19.78125 L 8.664062 19.9375 L 9.199219 19.621094 L 9.304688 19.792969 L 8.097656 20.503906 L 7.863281 20.128906 C 7.769531 19.972656 7.78125 19.757812 8.007812 19.625 C 8.179688 19.519531 8.332031 19.539062 8.449219 19.625 L 8.871094 19.09375 L 8.984375 19.277344 Z M 8.519531 20.019531 L 8.410156 19.84375 C 8.351562 19.75 8.238281 19.714844 8.113281 19.785156 C 7.992188 19.855469 7.976562 19.96875 8.035156 20.066406 L 8.144531 20.242188 Z M 8.519531 20.019531 "/>
<path style=" stroke:none;fill-rule:nonzero;fill:rgb(83.921569%,69.803922%,40.784314%);fill-opacity:1;" d="M 9.667969 20.980469 L 9.097656 21.28125 L 9.476562 20.765625 Z M 9.574219 20.628906 L 9.75 20.390625 L 9.601562 20.222656 L 8.777344 21.398438 L 8.929688 21.566406 L 10.21875 20.914062 L 10.082031 20.761719 L 9.820312 20.898438 Z M 9.574219 20.628906 "/>
<path style=" stroke:none;fill-rule:nonzero;fill:rgb(83.921569%,69.803922%,40.784314%);fill-opacity:1;" d="M 10.242188 21.679688 C 10.496094 21.375 10.726562 21.390625 10.910156 21.535156 C 11.09375 21.679688 11.15625 21.902344 10.910156 22.199219 L 10.664062 22.503906 C 10.417969 22.800781 10.183594 22.792969 9.996094 22.648438 C 9.8125 22.507812 9.746094 22.292969 9.996094 21.984375 Z M 10.167969 22.121094 C 9.988281 22.339844 10.023438 22.4375 10.113281 22.507812 C 10.203125 22.578125 10.324219 22.578125 10.492188 22.371094 L 10.742188 22.066406 C 10.90625 21.863281 10.882812 21.75 10.792969 21.679688 C 10.703125 21.609375 10.597656 21.59375 10.417969 21.816406 Z M 10.167969 22.121094 "/>
<path style=" stroke:none;fill-rule:nonzero;fill:rgb(83.921569%,69.803922%,40.784314%);fill-opacity:1;" d="M 11.65625 23.660156 L 11.296875 23.457031 C 11.136719 23.363281 11.0625 23.191406 11.179688 22.992188 C 11.269531 22.84375 11.386719 22.804688 11.492188 22.828125 C 11.378906 22.734375 11.34375 22.574219 11.453125 22.394531 C 11.585938 22.171875 11.78125 22.140625 11.9375 22.230469 L 12.367188 22.472656 Z M 11.769531 23.066406 L 11.609375 22.976562 C 11.542969 22.9375 11.441406 22.957031 11.371094 23.070312 C 11.316406 23.164062 11.324219 23.273438 11.390625 23.308594 L 11.566406 23.410156 Z M 12.097656 22.519531 L 11.90625 22.40625 C 11.820312 22.359375 11.710938 22.382812 11.632812 22.523438 C 11.566406 22.632812 11.574219 22.753906 11.667969 22.808594 L 11.859375 22.917969 Z M 12.097656 22.519531 "/>
</g>
</svg>
