<?xml version="1.0" encoding="UTF-8"?>
<svg xmlns="http://www.w3.org/2000/svg" xmlns:xlink="http://www.w3.org/1999/xlink" width="32px" height="32px" viewBox="0 0 32 32" version="1.1">
<g id="surface1">
<path style=" stroke:none;fill-rule:nonzero;fill:rgb(0.784314%,0.784314%,0.784314%);fill-opacity:1;" d="M 24.609375 6.832031 L 24.296875 5.855469 C 24.167969 5.902344 24.027344 5.945312 23.886719 5.992188 L 23.832031 7.285156 C 24.101562 7.140625 24.363281 6.988281 24.609375 6.832031 Z M 24.609375 6.832031 "/>
<path style=" stroke:none;fill-rule:nonzero;fill:rgb(0.784314%,0.784314%,0.784314%);fill-opacity:1;" d="M 23.585938 7.414062 L 23.28125 6.171875 C 23.140625 6.210938 23 6.246094 22.851562 6.28125 L 22.644531 7.863281 C 22.960938 7.722656 23.277344 7.574219 23.585938 7.414062 Z M 23.585938 7.414062 "/>
<path style=" stroke:none;fill-rule:nonzero;fill:rgb(0.784314%,0.784314%,0.784314%);fill-opacity:1;" d="M 22.4375 7.953125 L 22.097656 6.429688 C 21.925781 6.457031 21.746094 6.488281 21.566406 6.511719 L 21.3125 8.410156 C 21.6875 8.265625 22.0625 8.113281 22.4375 7.953125 Z M 22.4375 7.953125 "/>
<path style=" stroke:none;fill-rule:nonzero;fill:rgb(0.784314%,0.784314%,0.784314%);fill-opacity:1;" d="M 25.386719 6.273438 L 25.089844 5.566406 C 24.980469 5.609375 24.875 5.652344 24.757812 5.691406 L 24.816406 6.695312 C 25.019531 6.558594 25.207031 6.417969 25.386719 6.273438 Z M 25.386719 6.273438 "/>
<path style=" stroke:none;fill-rule:nonzero;fill:rgb(0.784314%,0.784314%,0.784314%);fill-opacity:1;" d="M 26.734375 4.582031 C 26.554688 4.765625 26.347656 4.925781 26.113281 5.070312 L 26.265625 5.386719 C 26.460938 5.132812 26.621094 4.867188 26.734375 4.582031 Z M 26.734375 4.582031 "/>
<path style=" stroke:none;fill-rule:nonzero;fill:rgb(0.784314%,0.784314%,0.784314%);fill-opacity:1;" d="M 26.074219 5.621094 L 25.886719 5.203125 C 25.78125 5.261719 25.671875 5.316406 25.558594 5.371094 L 25.589844 6.105469 C 25.761719 5.949219 25.925781 5.785156 26.074219 5.621094 Z M 26.074219 5.621094 "/>
<path style=" stroke:none;fill-rule:nonzero;fill:rgb(0.784314%,0.784314%,0.784314%);fill-opacity:1;" d="M 21.0625 8.503906 L 20.75 6.613281 C 20.574219 6.632812 20.398438 6.652344 20.222656 6.671875 L 20 8.894531 C 20.339844 8.773438 20.699219 8.644531 21.0625 8.503906 Z M 21.0625 8.503906 "/>
<path style=" stroke:none;fill-rule:nonzero;fill:rgb(0.784314%,0.784314%,0.784314%);fill-opacity:1;" d="M 8.398438 17.34375 L 6.042969 11.722656 C 5.867188 11.859375 5.703125 11.996094 5.542969 12.128906 L 7.25 18.882812 C 7.613281 18.363281 7.996094 17.847656 8.398438 17.34375 Z M 8.398438 17.34375 "/>
<path style=" stroke:none;fill-rule:nonzero;fill:rgb(0.784314%,0.784314%,0.784314%);fill-opacity:1;" d="M 11.324219 14.253906 L 9.777344 9.21875 C 9.601562 9.320312 9.425781 9.417969 9.246094 9.519531 L 9.910156 15.613281 C 10.367188 15.132812 10.839844 14.679688 11.324219 14.253906 Z M 11.324219 14.253906 "/>
<path style=" stroke:none;fill-rule:nonzero;fill:rgb(0.784314%,0.784314%,0.784314%);fill-opacity:1;" d="M 12.964844 12.902344 L 11.890625 8.21875 C 11.714844 8.289062 11.539062 8.363281 11.363281 8.4375 L 11.503906 14.097656 C 11.992188 13.671875 12.480469 13.277344 12.964844 12.902344 Z M 12.964844 12.902344 "/>
<path style=" stroke:none;fill-rule:nonzero;fill:rgb(0.784314%,0.784314%,0.784314%);fill-opacity:1;" d="M 9.777344 15.75 L 7.710938 10.488281 C 7.5625 10.59375 7.414062 10.695312 7.269531 10.796875 L 8.589844 17.109375 C 8.964844 16.644531 9.367188 16.1875 9.777344 15.75 Z M 9.777344 15.75 "/>
<path style=" stroke:none;fill-rule:nonzero;fill:rgb(0.784314%,0.784314%,0.784314%);fill-opacity:1;" d="M 18.109375 9.671875 L 17.5 6.964844 C 17.339844 6.984375 17.175781 7.007812 17.011719 7.027344 L 16.65625 10.421875 C 17.15625 10.144531 17.636719 9.890625 18.109375 9.671875 Z M 18.109375 9.671875 "/>
<path style=" stroke:none;fill-rule:nonzero;fill:rgb(0.784314%,0.784314%,0.784314%);fill-opacity:1;" d="M 19.691406 9.003906 C 19.703125 9 19.714844 9 19.726562 8.992188 L 19.433594 6.753906 C 19.253906 6.769531 19.074219 6.789062 18.890625 6.808594 L 18.296875 9.578125 C 18.785156 9.355469 19.246094 9.164062 19.691406 9.003906 Z M 19.691406 9.003906 "/>
<path style=" stroke:none;fill-rule:nonzero;fill:rgb(0.784314%,0.784314%,0.784314%);fill-opacity:1;" d="M 16.363281 10.59375 L 15.714844 7.21875 C 15.542969 7.246094 15.367188 7.277344 15.191406 7.308594 L 14.929688 11.484375 C 15.417969 11.160156 15.894531 10.867188 16.363281 10.59375 Z M 16.363281 10.59375 "/>
<path style=" stroke:none;fill-rule:nonzero;fill:rgb(0.784314%,0.784314%,0.784314%);fill-opacity:1;" d="M 14.699219 11.636719 L 13.847656 7.578125 C 13.671875 7.621094 13.492188 7.671875 13.316406 7.722656 L 13.203125 12.714844 C 13.707031 12.332031 14.207031 11.972656 14.699219 11.636719 Z M 14.699219 11.636719 "/>
<path style=" stroke:none;fill-rule:nonzero;fill:rgb(0.784314%,0.784314%,0.784314%);fill-opacity:1;" d="M 26.796875 4.710938 C 26.691406 4.957031 26.558594 5.191406 26.410156 5.40625 L 26.628906 5.449219 C 26.703125 5.210938 26.757812 4.964844 26.796875 4.710938 Z M 26.796875 4.710938 "/>
<path style=" stroke:none;fill-rule:evenodd;fill:rgb(0.784314%,0.784314%,0.784314%);fill-opacity:1;" d="M 6.808594 19.53125 C 6.152344 20.523438 5.574219 21.53125 5.089844 22.503906 L 5.878906 24.320312 C 6.121094 22.738281 6.539062 21.355469 7.125 20.101562 Z M 6.808594 19.53125 "/>
<path style=" stroke:none;fill-rule:nonzero;fill:rgb(0.784314%,0.784314%,0.784314%);fill-opacity:1;" d="M 8.78125 17.40625 C 8.742188 17.460938 8.703125 17.507812 8.664062 17.558594 L 11.164062 18.261719 C 11.125 18.335938 11.085938 18.40625 11.046875 18.480469 L 7.601562 19.160156 L 14.46875 19.511719 C 14.539062 19.367188 14.609375 19.214844 14.679688 19.066406 Z M 8.78125 17.40625 "/>
<path style=" stroke:none;fill-rule:nonzero;fill:rgb(0.784314%,0.784314%,0.784314%);fill-opacity:1;" d="M 11.628906 14.453125 C 11.582031 14.492188 11.53125 14.535156 11.484375 14.574219 L 13.238281 15.429688 C 13.179688 15.492188 13.125 15.550781 13.070312 15.617188 L 10.273438 15.71875 L 15.804688 17.054688 C 15.894531 16.910156 15.988281 16.765625 16.082031 16.621094 Z M 11.628906 14.453125 "/>
<path style=" stroke:none;fill-rule:nonzero;fill:rgb(0.784314%,0.784314%,0.784314%);fill-opacity:1;" d="M 10.113281 15.878906 C 10.070312 15.925781 10.023438 15.972656 9.976562 16.023438 L 12.105469 16.792969 C 12.054688 16.863281 12.003906 16.9375 11.953125 17.007812 L 8.914062 17.234375 L 15.097656 18.269531 C 15.183594 18.109375 15.277344 17.945312 15.371094 17.78125 Z M 10.113281 15.878906 "/>
<path style=" stroke:none;fill-rule:nonzero;fill:rgb(0.784314%,0.784314%,0.784314%);fill-opacity:1;" d="M 19.867188 9.175781 C 19.804688 9.199219 19.742188 9.226562 19.675781 9.25 L 20.5 9.953125 C 20.414062 10 20.332031 10.042969 20.25 10.09375 L 18.496094 9.75 L 21.390625 11.289062 C 21.5625 11.164062 21.730469 11.039062 21.898438 10.910156 Z M 19.867188 9.175781 "/>
<path style=" stroke:none;fill-rule:nonzero;fill:rgb(0.784314%,0.784314%,0.784314%);fill-opacity:1;" d="M 18.261719 9.859375 C 18.203125 9.886719 18.148438 9.917969 18.085938 9.945312 L 19.042969 10.804688 C 18.964844 10.855469 18.882812 10.90625 18.800781 10.957031 L 16.804688 10.640625 L 20.089844 12.273438 C 20.246094 12.152344 20.398438 12.03125 20.550781 11.917969 Z M 18.261719 9.859375 "/>
<path style=" stroke:none;fill-rule:nonzero;fill:rgb(0.784314%,0.784314%,0.784314%);fill-opacity:1;" d="M 13.261719 13.105469 C 13.210938 13.140625 13.160156 13.183594 13.109375 13.222656 L 14.558594 14.136719 C 14.5 14.1875 14.445312 14.238281 14.390625 14.289062 L 11.828125 14.277344 L 16.585938 15.882812 C 16.699219 15.726562 16.808594 15.570312 16.925781 15.421875 Z M 13.261719 13.105469 "/>
<path style=" stroke:none;fill-rule:nonzero;fill:rgb(0.784314%,0.784314%,0.784314%);fill-opacity:1;" d="M 14.933594 11.855469 C 14.882812 11.890625 14.835938 11.925781 14.785156 11.960938 L 15.992188 12.933594 C 15.933594 12.980469 15.871094 13.03125 15.8125 13.078125 L 13.488281 12.925781 L 17.535156 14.660156 C 17.65625 14.515625 17.78125 14.378906 17.90625 14.242188 Z M 14.933594 11.855469 "/>
<path style=" stroke:none;fill-rule:nonzero;fill:rgb(0.784314%,0.784314%,0.784314%);fill-opacity:1;" d="M 16.523438 10.8125 C 16.46875 10.84375 16.414062 10.875 16.363281 10.910156 L 17.460938 11.847656 C 17.394531 11.898438 17.324219 11.945312 17.253906 11.996094 L 15.148438 11.707031 L 18.683594 13.476562 C 18.84375 13.332031 19 13.191406 19.15625 13.054688 Z M 16.523438 10.8125 "/>
<path style=" stroke:none;fill-rule:nonzero;fill:rgb(0.784314%,0.784314%,0.784314%);fill-opacity:1;" d="M 22.65625 8.101562 C 22.59375 8.128906 22.53125 8.15625 22.46875 8.183594 L 23.023438 8.527344 C 22.980469 8.554688 22.9375 8.582031 22.894531 8.609375 L 21.582031 8.539062 L 23.773438 9.371094 C 23.894531 9.257812 24.019531 9.140625 24.140625 9.027344 Z M 22.65625 8.101562 "/>
<path style=" stroke:none;fill-rule:nonzero;fill:rgb(0.784314%,0.784314%,0.784314%);fill-opacity:1;" d="M 23.8125 7.546875 C 23.753906 7.582031 23.695312 7.609375 23.636719 7.636719 L 24.078125 7.835938 C 24.039062 7.863281 24 7.886719 23.957031 7.917969 L 22.976562 7.957031 L 24.710938 8.453125 C 24.820312 8.335938 24.925781 8.222656 25.027344 8.101562 Z M 23.8125 7.546875 "/>
<path style=" stroke:none;fill-rule:nonzero;fill:rgb(0.784314%,0.784314%,0.784314%);fill-opacity:1;" d="M 21.261719 8.664062 C 21.195312 8.6875 21.132812 8.710938 21.070312 8.734375 L 21.8125 9.230469 C 21.761719 9.253906 21.714844 9.28125 21.667969 9.308594 L 20.203125 9.054688 L 22.730469 10.265625 C 22.867188 10.152344 23.007812 10.039062 23.144531 9.921875 Z M 21.261719 8.664062 "/>
<path style=" stroke:none;fill-rule:nonzero;fill:rgb(0.784314%,0.784314%,0.784314%);fill-opacity:1;" d="M 24.824219 6.9375 C 24.78125 6.96875 24.734375 7 24.6875 7.03125 L 25.011719 7.164062 C 24.957031 7.210938 24.898438 7.253906 24.839844 7.296875 L 24.105469 7.386719 L 25.4375 7.613281 C 25.519531 7.507812 25.601562 7.398438 25.679688 7.285156 Z M 24.824219 6.9375 "/>
<path style=" stroke:none;fill-rule:nonzero;fill:rgb(0.784314%,0.784314%,0.784314%);fill-opacity:1;" d="M 26.207031 5.679688 C 26.179688 5.714844 26.152344 5.746094 26.125 5.78125 L 26.257812 5.804688 C 26.210938 5.878906 26.164062 5.949219 26.113281 6.019531 L 25.804688 6.132812 L 26.34375 6.167969 C 26.414062 6.027344 26.476562 5.878906 26.53125 5.730469 Z M 26.207031 5.679688 "/>
<path style=" stroke:none;fill-rule:nonzero;fill:rgb(0.784314%,0.784314%,0.784314%);fill-opacity:1;" d="M 25.566406 6.351562 C 25.53125 6.382812 25.496094 6.414062 25.457031 6.449219 L 25.699219 6.523438 C 25.65625 6.570312 25.605469 6.621094 25.5625 6.664062 L 25.089844 6.738281 L 25.949219 6.875 C 26.023438 6.761719 26.09375 6.644531 26.15625 6.523438 Z M 25.566406 6.351562 "/>
<path style=" stroke:none;fill-rule:evenodd;fill:rgb(0.784314%,0.784314%,0.784314%);fill-opacity:1;" d="M 15.011719 18.960938 L 15.519531 18.960938 L 15.519531 19.054688 L 15.320312 19.054688 L 15.320312 19.585938 L 15.210938 19.585938 L 15.210938 19.054688 L 15.015625 19.054688 L 15.015625 18.960938 Z M 15.589844 18.960938 L 15.742188 18.960938 L 15.917969 19.449219 L 15.921875 19.449219 L 16.089844 18.960938 L 16.242188 18.960938 L 16.242188 19.585938 L 16.136719 19.585938 L 16.136719 19.105469 L 16.132812 19.105469 L 15.960938 19.585938 L 15.871094 19.585938 L 15.699219 19.105469 L 15.695312 19.105469 L 15.695312 19.585938 L 15.589844 19.585938 Z M 15.589844 18.960938 "/>
<path style=" stroke:none;fill-rule:nonzero;fill:rgb(0.784314%,0.784314%,0.784314%);fill-opacity:1;" d="M 7.644531 22.664062 L 7.972656 22.664062 L 8.710938 24.007812 L 8.71875 24.007812 L 8.71875 22.664062 L 8.957031 22.664062 L 8.957031 24.335938 L 8.648438 24.335938 L 7.890625 22.960938 L 7.886719 22.960938 L 7.886719 24.335938 L 7.644531 24.335938 Z M 7.644531 22.664062 "/>
<path style=" stroke:none;fill-rule:nonzero;fill:rgb(0.784314%,0.784314%,0.784314%);fill-opacity:1;" d="M 9.140625 22.664062 L 10.078125 22.664062 L 10.078125 22.875 L 9.378906 22.875 L 9.378906 23.363281 L 10.015625 23.363281 L 10.015625 23.574219 L 9.378906 23.574219 L 9.378906 24.125 L 10.078125 24.125 L 10.078125 24.335938 L 9.140625 24.335938 Z M 9.140625 22.664062 "/>
<path style=" stroke:none;fill-rule:nonzero;fill:rgb(0.784314%,0.784314%,0.784314%);fill-opacity:1;" d="M 10.101562 22.664062 L 10.363281 22.664062 L 10.765625 24.097656 L 10.769531 24.097656 L 11.128906 22.664062 L 11.46875 22.664062 L 11.832031 24.097656 L 11.835938 24.097656 L 12.238281 22.664062 L 12.488281 22.664062 L 11.972656 24.335938 L 11.664062 24.335938 L 11.300781 22.875 L 11.292969 22.875 L 10.925781 24.335938 L 10.605469 24.335938 Z M 10.101562 22.664062 "/>
<path style=" stroke:none;fill-rule:nonzero;fill:rgb(0.784314%,0.784314%,0.784314%);fill-opacity:1;" d="M 13.105469 24.121094 L 13.972656 22.875 L 13.136719 22.875 L 13.136719 22.664062 L 14.25 22.664062 L 14.25 22.875 L 13.382812 24.125 L 14.261719 24.125 L 14.261719 24.335938 L 13.105469 24.335938 Z M 13.105469 24.121094 "/>
<path style=" stroke:none;fill-rule:nonzero;fill:rgb(0.784314%,0.784314%,0.784314%);fill-opacity:1;" d="M 14.4375 22.664062 L 15.375 22.664062 L 15.375 22.875 L 14.679688 22.875 L 14.679688 23.363281 L 15.316406 23.363281 L 15.316406 23.574219 L 14.679688 23.574219 L 14.679688 24.125 L 15.375 24.125 L 15.375 24.335938 L 14.4375 24.335938 Z M 14.4375 22.664062 "/>
<path style=" stroke:none;fill-rule:nonzero;fill:rgb(0.784314%,0.784314%,0.784314%);fill-opacity:1;" d="M 16.140625 22.664062 L 16.394531 22.664062 L 17.101562 24.335938 L 16.839844 24.335938 L 16.667969 23.914062 L 15.847656 23.914062 L 15.679688 24.335938 L 15.425781 24.335938 Z M 16.257812 22.886719 L 15.921875 23.714844 L 16.589844 23.714844 Z M 16.257812 22.886719 "/>
<path style=" stroke:none;fill-rule:nonzero;fill:rgb(0.784314%,0.784314%,0.784314%);fill-opacity:1;" d="M 17.191406 22.664062 L 17.429688 22.664062 L 17.429688 24.125 L 18.132812 24.125 L 18.132812 24.335938 L 17.191406 24.335938 Z M 17.191406 22.664062 "/>
<path style=" stroke:none;fill-rule:nonzero;fill:rgb(0.784314%,0.784314%,0.784314%);fill-opacity:1;" d="M 18.871094 22.664062 L 19.125 22.664062 L 19.832031 24.335938 L 19.566406 24.335938 L 19.398438 23.914062 L 18.578125 23.914062 L 18.410156 24.335938 L 18.15625 24.335938 Z M 18.988281 22.886719 L 18.65625 23.714844 L 19.320312 23.714844 Z M 18.988281 22.886719 "/>
<path style=" stroke:none;fill-rule:nonzero;fill:rgb(0.784314%,0.784314%,0.784314%);fill-opacity:1;" d="M 19.921875 22.664062 L 20.246094 22.664062 L 20.984375 24.007812 L 20.988281 24.007812 L 20.988281 22.664062 L 21.230469 22.664062 L 21.230469 24.335938 L 20.921875 24.335938 L 20.164062 22.960938 L 20.160156 22.960938 L 20.160156 24.335938 L 19.921875 24.335938 Z M 19.921875 22.664062 "/>
<path style=" stroke:none;fill-rule:nonzero;fill:rgb(0.784314%,0.784314%,0.784314%);fill-opacity:1;" d="M 21.488281 22.664062 L 21.984375 22.664062 C 22.480469 22.664062 22.875 22.96875 22.875 23.484375 C 22.875 24.042969 22.539062 24.335938 21.984375 24.335938 L 21.492188 24.335938 L 21.492188 22.664062 Z M 21.726562 24.125 L 21.980469 24.125 C 22.394531 24.125 22.621094 23.925781 22.621094 23.496094 C 22.621094 23.105469 22.355469 22.875 22.007812 22.875 L 21.726562 22.875 Z M 21.726562 24.125 "/>
<path style=" stroke:none;fill-rule:nonzero;fill:rgb(0.784314%,0.784314%,0.784314%);fill-opacity:1;" d="M 9.902344 25.417969 C 9.707031 25.304688 9.496094 25.246094 9.273438 25.246094 C 8.574219 25.246094 8.109375 25.753906 8.109375 26.433594 C 8.109375 27.148438 8.621094 27.621094 9.253906 27.621094 C 9.472656 27.621094 9.761719 27.566406 9.917969 27.476562 L 9.941406 27.898438 C 9.710938 27.992188 9.429688 28.007812 9.25 28.007812 C 8.289062 28.007812 7.652344 27.390625 7.652344 26.421875 C 7.652344 25.488281 8.328125 24.863281 9.257812 24.863281 C 9.492188 24.863281 9.726562 24.898438 9.941406 24.996094 Z M 9.902344 25.417969 "/>
<path style=" stroke:none;fill-rule:nonzero;fill:rgb(0.784314%,0.784314%,0.784314%);fill-opacity:1;" d="M 10.253906 24.917969 L 11 24.917969 C 11.601562 24.917969 12.179688 25.015625 12.179688 25.742188 C 12.179688 26.113281 11.902344 26.371094 11.550781 26.433594 L 11.550781 26.441406 C 11.6875 26.492188 11.753906 26.558594 11.847656 26.746094 L 12.421875 27.957031 L 11.925781 27.957031 L 11.460938 26.902344 C 11.324219 26.609375 11.179688 26.609375 10.949219 26.609375 L 10.6875 26.609375 L 10.6875 27.957031 L 10.253906 27.957031 Z M 10.6875 26.222656 L 11.058594 26.222656 C 11.472656 26.222656 11.714844 26.042969 11.714844 25.75 C 11.714844 25.476562 11.507812 25.300781 11.105469 25.300781 L 10.6875 25.300781 Z M 10.6875 26.222656 "/>
<path style=" stroke:none;fill-rule:nonzero;fill:rgb(0.784314%,0.784314%,0.784314%);fill-opacity:1;" d="M 12.664062 24.917969 L 13.101562 24.917969 L 13.101562 27.957031 L 12.664062 27.957031 Z M 12.664062 24.917969 "/>
<path style=" stroke:none;fill-rule:nonzero;fill:rgb(0.784314%,0.784314%,0.784314%);fill-opacity:1;" d="M 15.703125 25.417969 C 15.511719 25.304688 15.296875 25.246094 15.074219 25.246094 C 14.375 25.246094 13.910156 25.753906 13.910156 26.433594 C 13.910156 27.148438 14.421875 27.621094 15.054688 27.621094 C 15.273438 27.621094 15.566406 27.566406 15.71875 27.476562 L 15.742188 27.898438 C 15.511719 27.992188 15.230469 28.007812 15.054688 28.007812 C 14.089844 28.007812 13.449219 27.390625 13.449219 26.421875 C 13.449219 25.488281 14.128906 24.863281 15.054688 24.863281 C 15.289062 24.863281 15.523438 24.898438 15.742188 24.996094 Z M 15.703125 25.417969 "/>
<path style=" stroke:none;fill-rule:nonzero;fill:rgb(0.784314%,0.784314%,0.784314%);fill-opacity:1;" d="M 16.011719 24.917969 L 16.449219 24.917969 L 16.449219 26.257812 L 17.742188 24.917969 L 18.324219 24.917969 L 16.894531 26.355469 L 18.433594 27.957031 L 17.796875 27.957031 L 16.449219 26.46875 L 16.449219 27.957031 L 16.011719 27.957031 Z M 16.011719 24.917969 "/>
<path style=" stroke:none;fill-rule:nonzero;fill:rgb(0.784314%,0.784314%,0.784314%);fill-opacity:1;" d="M 18.644531 24.917969 L 20.34375 24.917969 L 20.34375 25.300781 L 19.078125 25.300781 L 19.078125 26.1875 L 20.230469 26.1875 L 20.230469 26.574219 L 19.078125 26.574219 L 19.078125 27.574219 L 20.34375 27.574219 L 20.34375 27.957031 L 18.644531 27.957031 Z M 18.644531 24.917969 "/>
<path style=" stroke:none;fill-rule:nonzero;fill:rgb(0.784314%,0.784314%,0.784314%);fill-opacity:1;" d="M 21.496094 25.300781 L 20.550781 25.300781 L 20.550781 24.917969 L 22.875 24.917969 L 22.875 25.300781 L 21.929688 25.300781 L 21.929688 27.957031 L 21.496094 27.957031 Z M 21.496094 25.300781 "/>
</g>
</svg>
