<?xml version="1.0" encoding="UTF-8"?>
<svg xmlns="http://www.w3.org/2000/svg" xmlns:xlink="http://www.w3.org/1999/xlink" width="32px" height="32px" viewBox="0 0 32 45" version="1.1">
<g id="surface1">
<path style=" stroke:none;fill-rule:nonzero;fill:rgb(0.392157%,47.843137%,23.921569%);fill-opacity:1;" d="M -0.0976562 44.554688 L -0.0976562 44.351562 L 31.890625 44.351562 L 31.890625 44.757812 L -0.0976562 44.757812 Z M 15.589844 43.300781 C 13.945312 43.003906 12.476562 41.941406 11.835938 40.582031 C 11.441406 39.742188 11.320312 39.148438 11.324219 38.03125 C 11.332031 36.273438 11.710938 35.308594 12.820312 34.21875 C 13.617188 33.4375 14.308594 33.046875 15.410156 32.753906 C 16.527344 32.453125 19.441406 32.535156 19.910156 32.878906 C 20.035156 32.964844 20.03125 33.046875 19.867188 33.859375 C 19.59375 35.234375 19.550781 35.355469 19.375 35.355469 C 19.210938 35.355469 19.1875 35.261719 19.066406 34.101562 C 18.984375 33.320312 18.914062 33.289062 17.246094 33.289062 C 16.109375 33.292969 15.929688 33.3125 15.5 33.480469 C 14.152344 34.015625 13.257812 35.34375 13.085938 37.058594 C 12.710938 40.851562 15.253906 43.058594 19.046875 42.238281 C 20.101562 42.007812 20.148438 42.007812 20.175781 42.21875 C 20.210938 42.449219 19.605469 42.808594 18.679688 43.105469 C 18.148438 43.277344 17.832031 43.324219 17 43.34375 C 16.441406 43.359375 15.804688 43.339844 15.589844 43.300781 Z M 1.59375 43.085938 C 1.566406 43.054688 1.539062 42.960938 1.539062 42.882812 C 1.539062 42.777344 1.65625 42.703125 1.96875 42.609375 C 2.207031 42.542969 2.445312 42.457031 2.5 42.421875 C 2.582031 42.371094 2.601562 41.410156 2.582031 37.902344 L 2.5625 33.453125 L 2.070312 33.277344 C 1.667969 33.136719 1.582031 33.074219 1.582031 32.925781 L 1.582031 32.746094 L 3.992188 32.714844 C 5.484375 32.695312 6.59375 32.714844 6.890625 32.769531 C 8.046875 32.976562 8.730469 33.414062 9.121094 34.203125 C 9.328125 34.621094 9.351562 34.746094 9.347656 35.476562 C 9.34375 36.496094 9.152344 37.027344 8.5625 37.664062 C 7.925781 38.355469 7.082031 38.695312 5.742188 38.808594 C 5.128906 38.859375 5.066406 38.847656 4.898438 38.683594 C 4.796875 38.582031 4.730469 38.429688 4.746094 38.328125 C 4.769531 38.167969 4.832031 38.148438 5.425781 38.105469 C 6.933594 38 7.617188 37.253906 7.621094 35.71875 C 7.621094 34.648438 7.300781 34.003906 6.589844 33.644531 C 6.199219 33.445312 5.128906 33.304688 4.648438 33.390625 L 4.28125 33.457031 L 4.28125 42.363281 L 4.851562 42.570312 C 5.296875 42.730469 5.425781 42.8125 5.425781 42.9375 C 5.425781 43.089844 5.355469 43.097656 3.539062 43.117188 C 2.5 43.128906 1.625 43.113281 1.59375 43.085938 Z M 22.207031 43.007812 C 22.132812 42.816406 22.199219 42.757812 22.667969 42.605469 C 22.902344 42.527344 23.144531 42.429688 23.199219 42.386719 C 23.359375 42.261719 23.347656 33.628906 23.183594 33.46875 C 23.121094 33.40625 22.902344 33.308594 22.695312 33.25 C 22.265625 33.132812 22.082031 32.964844 22.21875 32.828125 C 22.28125 32.769531 23.132812 32.726562 24.769531 32.707031 C 26.828125 32.675781 27.3125 32.691406 27.738281 32.800781 C 28.714844 33.050781 29.289062 33.464844 29.585938 34.132812 C 29.761719 34.527344 29.75 35.617188 29.566406 36.03125 C 29.386719 36.433594 28.828125 37.03125 28.445312 37.226562 C 28.277344 37.308594 28.121094 37.414062 28.09375 37.453125 C 28.070312 37.492188 28.261719 37.601562 28.523438 37.695312 C 29.148438 37.921875 29.621094 38.335938 29.902344 38.902344 C 30.105469 39.308594 30.132812 39.460938 30.132812 40.097656 C 30.128906 40.710938 30.09375 40.898438 29.914062 41.285156 C 29.640625 41.867188 29.167969 42.335938 28.53125 42.65625 C 27.6875 43.074219 27.207031 43.132812 24.597656 43.136719 C 22.53125 43.136719 22.25 43.121094 22.207031 43.007812 Z M 26.972656 42.355469 C 27.914062 42.054688 28.402344 41.304688 28.398438 40.179688 C 28.390625 38.710938 27.679688 38.082031 25.90625 37.972656 C 25.320312 37.9375 25.074219 37.953125 24.980469 38.027344 C 24.792969 38.183594 24.792969 42.171875 24.984375 42.359375 C 25.164062 42.539062 26.410156 42.535156 26.972656 42.355469 Z M 26.726562 37.175781 C 27.25 37.019531 27.722656 36.582031 27.863281 36.113281 C 27.917969 35.933594 27.964844 35.53125 27.964844 35.222656 C 27.964844 34.28125 27.554688 33.714844 26.703125 33.480469 C 26.214844 33.34375 25.023438 33.355469 24.929688 33.5 C 24.851562 33.625 24.828125 36.96875 24.90625 37.171875 C 24.972656 37.347656 26.136719 37.347656 26.726562 37.175781 Z M -0.0976562 31.261719 L -0.0976562 31.058594 L 31.890625 31.058594 L 31.890625 31.464844 L -0.0976562 31.464844 Z M -0.0976562 31.261719 "/>
<path style=" stroke:none;fill-rule:nonzero;fill:rgb(63.921569%,50.196078%,33.72549%);fill-opacity:1;" d="M 24.953125 29.175781 C 24.570312 28.902344 24 28.515625 23.6875 28.3125 C 23.371094 28.113281 21.972656 27.101562 20.578125 26.070312 C 16.90625 23.347656 16.09375 22.78125 15.863281 22.78125 C 15.617188 22.78125 15.316406 22.976562 13.894531 24.046875 C 12.859375 24.824219 9.890625 26.882812 7.855469 28.238281 C 7.335938 28.582031 6.703125 29.011719 6.441406 29.199219 C 6.183594 29.382812 5.949219 29.511719 5.921875 29.488281 C 5.898438 29.460938 6.078125 28.824219 6.328125 28.074219 C 6.578125 27.324219 6.988281 26.039062 7.234375 25.214844 C 7.484375 24.386719 8.074219 22.566406 8.546875 21.164062 C 9.023438 19.757812 9.410156 18.570312 9.410156 18.519531 C 9.410156 18.464844 8.996094 18.113281 8.488281 17.734375 C 7.984375 17.355469 6.964844 16.582031 6.222656 16.015625 C 5.484375 15.449219 4.527344 14.746094 4.097656 14.453125 C 1.222656 12.492188 0.226562 11.75 0.347656 11.664062 C 0.359375 11.65625 2.941406 11.628906 6.085938 11.601562 C 11.050781 11.5625 11.816406 11.539062 11.875 11.433594 C 12.007812 11.199219 13.753906 6.21875 14.15625 4.921875 C 14.839844 2.714844 15.808594 0 15.898438 0.0273438 C 15.996094 0.0585938 16.578125 1.765625 18.464844 7.503906 C 19.167969 9.644531 19.78125 11.4375 19.832031 11.496094 C 19.90625 11.574219 21.273438 11.59375 25.972656 11.597656 C 29.296875 11.597656 31.984375 11.628906 31.941406 11.667969 C 31.902344 11.703125 31.113281 12.238281 30.191406 12.855469 C 29.265625 13.472656 28.035156 14.296875 27.449219 14.6875 C 24.976562 16.339844 22.058594 18.375 21.980469 18.5 C 21.914062 18.605469 21.992188 18.921875 22.3125 19.839844 C 22.8125 21.277344 24.894531 27.121094 25.40625 28.519531 C 25.78125 29.542969 25.816406 29.671875 25.710938 29.671875 C 25.675781 29.671875 25.335938 29.449219 24.953125 29.175781 Z M 12.328125 19.371094 C 13.527344 18.796875 14.011719 16.726562 13.300781 15.203125 C 13.199219 14.980469 12.925781 14.542969 12.691406 14.234375 C 12.460938 13.921875 12.273438 13.621094 12.273438 13.5625 C 12.273438 13.40625 12.910156 13.4375 13.300781 13.613281 C 13.753906 13.816406 14.050781 14.191406 14.121094 14.648438 C 14.203125 15.1875 14.09375 16.617188 13.90625 17.449219 C 13.679688 18.449219 13.695312 18.691406 13.984375 18.980469 C 14.261719 19.253906 14.660156 19.292969 14.964844 19.082031 C 15.128906 18.96875 15.195312 18.964844 15.480469 19.058594 C 15.777344 19.15625 15.832031 19.148438 16.164062 18.96875 C 16.492188 18.792969 16.554688 18.785156 16.894531 18.875 C 17.425781 19.015625 17.546875 19 17.839844 18.753906 C 18.066406 18.566406 18.171875 18.539062 18.703125 18.53125 C 19.394531 18.527344 19.554688 18.421875 19.734375 17.878906 L 19.84375 17.554688 L 20.296875 17.582031 C 20.695312 17.605469 20.785156 17.578125 21.015625 17.386719 C 21.515625 16.972656 21.875 15.945312 21.683594 15.488281 C 21.476562 14.996094 21.1875 15.171875 21.035156 15.875 C 20.988281 16.113281 20.886719 16.414062 20.816406 16.550781 C 20.710938 16.753906 20.648438 16.789062 20.433594 16.769531 C 20.203125 16.746094 20.167969 16.707031 20.105469 16.417969 C 20.0625 16.226562 20.066406 15.621094 20.121094 14.917969 C 20.269531 12.929688 20.066406 12.363281 19.273438 12.578125 C 18.816406 12.703125 17.53125 13.59375 17.289062 13.953125 C 16.917969 14.511719 17.125 15.152344 18.042969 16.257812 C 18.589844 16.914062 18.898438 17.410156 18.898438 17.625 C 18.898438 17.785156 18.644531 17.859375 18.308594 17.796875 C 18.085938 17.753906 17.980469 17.789062 17.722656 17.992188 C 17.359375 18.28125 17.210938 18.296875 16.859375 18.101562 C 16.617188 17.964844 16.597656 17.964844 16.28125 18.144531 C 15.976562 18.316406 15.941406 18.320312 15.714844 18.203125 C 15.488281 18.089844 15.445312 18.09375 15.109375 18.253906 C 14.421875 18.585938 14.382812 18.457031 14.644531 16.703125 C 14.867188 15.214844 14.859375 14.585938 14.613281 14.0625 C 14.367188 13.539062 13.96875 13.089844 13.574219 12.890625 C 13.179688 12.691406 12.449219 12.679688 12.050781 12.867188 C 11.765625 13 11.457031 13.390625 11.453125 13.621094 C 11.453125 13.691406 11.730469 14.144531 12.066406 14.636719 C 12.824219 15.742188 12.992188 16.269531 12.847656 17.089844 C 12.65625 18.1875 12.046875 18.9375 11.507812 18.734375 C 11.234375 18.628906 11.179688 18.46875 11.132812 17.554688 C 11.085938 16.746094 11.085938 16.742188 10.867188 16.71875 C 10.519531 16.679688 10.371094 16.984375 10.371094 17.738281 C 10.367188 18.488281 10.535156 18.949219 10.933594 19.296875 C 11.28125 19.597656 11.796875 19.625 12.328125 19.371094 Z M 18.746094 15.9375 C 18.109375 15.144531 17.816406 14.648438 17.851562 14.417969 C 17.871094 14.285156 18.078125 14.109375 18.566406 13.804688 C 18.949219 13.570312 19.296875 13.390625 19.34375 13.40625 C 19.449219 13.4375 19.414062 16.378906 19.308594 16.488281 C 19.273438 16.527344 19.019531 16.277344 18.746094 15.9375 Z M 21.144531 19.007812 C 21.214844 18.9375 21.273438 18.847656 21.273438 18.808594 C 21.273438 18.71875 21.035156 18.484375 20.945312 18.484375 C 20.90625 18.484375 20.816406 18.542969 20.746094 18.613281 C 20.675781 18.683594 20.617188 18.773438 20.617188 18.808594 C 20.617188 18.847656 20.675781 18.9375 20.746094 19.007812 C 20.816406 19.078125 20.90625 19.132812 20.945312 19.132812 C 20.984375 19.132812 21.074219 19.078125 21.144531 19.007812 Z M 20.488281 18.441406 C 20.558594 18.371094 20.617188 18.28125 20.617188 18.242188 C 20.617188 18.203125 20.558594 18.117188 20.488281 18.046875 C 20.417969 17.976562 20.328125 17.917969 20.289062 17.917969 C 20.253906 17.917969 20.164062 17.976562 20.09375 18.046875 C 20.019531 18.117188 19.964844 18.203125 19.964844 18.242188 C 19.964844 18.28125 20.019531 18.371094 20.09375 18.441406 C 20.164062 18.511719 20.253906 18.566406 20.289062 18.566406 C 20.328125 18.566406 20.417969 18.507812 20.488281 18.441406 Z M 21.308594 18.195312 C 21.378906 18.125 21.4375 18.039062 21.4375 18 C 21.4375 17.910156 21.199219 17.675781 21.109375 17.675781 C 21.019531 17.675781 20.78125 17.910156 20.78125 18 C 20.78125 18.089844 21.019531 18.324219 21.109375 18.324219 C 21.148438 18.324219 21.238281 18.265625 21.308594 18.195312 Z M 15.417969 17.222656 C 15.488281 17.152344 15.546875 17.066406 15.546875 17.027344 C 15.546875 16.988281 15.488281 16.898438 15.417969 16.832031 C 15.347656 16.761719 15.257812 16.703125 15.21875 16.703125 C 15.113281 16.703125 14.890625 16.945312 14.890625 17.058594 C 14.890625 17.113281 14.933594 17.199219 14.988281 17.253906 C 15.121094 17.386719 15.261719 17.375 15.417969 17.222656 Z M 16.234375 17.222656 C 16.304688 17.152344 16.363281 17.066406 16.363281 17.027344 C 16.363281 16.988281 16.304688 16.898438 16.234375 16.832031 C 16.164062 16.761719 16.074219 16.703125 16.035156 16.703125 C 15.996094 16.703125 15.910156 16.761719 15.835938 16.832031 C 15.765625 16.898438 15.710938 16.988281 15.710938 17.027344 C 15.710938 17.066406 15.765625 17.152344 15.835938 17.222656 C 15.910156 17.292969 15.996094 17.351562 16.035156 17.351562 C 16.074219 17.351562 16.164062 17.292969 16.234375 17.222656 Z M 11.652344 16.332031 C 11.722656 16.261719 11.78125 16.171875 11.78125 16.136719 C 11.78125 16.097656 11.722656 16.007812 11.652344 15.9375 C 11.582031 15.867188 11.492188 15.8125 11.457031 15.8125 C 11.417969 15.8125 11.328125 15.867188 11.257812 15.9375 C 11.1875 16.007812 11.128906 16.097656 11.128906 16.136719 C 11.128906 16.171875 11.1875 16.261719 11.257812 16.332031 C 11.328125 16.402344 11.417969 16.460938 11.457031 16.460938 C 11.492188 16.460938 11.582031 16.402344 11.652344 16.332031 Z M 11.652344 16.332031 "/>
</g>
</svg>
