<?xml version="1.0" encoding="UTF-8"?>
<svg xmlns="http://www.w3.org/2000/svg" xmlns:xlink="http://www.w3.org/1999/xlink" width="32px" height="32px" viewBox="0 0 32 35" version="1.1">
<g id="surface1">
<path style=" stroke:none;fill-rule:nonzero;fill:rgb(70.588235%,0.784314%,14.117647%);fill-opacity:1;" d="M 12.4375 30.5625 L 15.53125 30.566406 L 15.605469 16.105469 L 0.90625 16.074219 L 0.859375 19.261719 C 2.355469 18.097656 4.460938 17.855469 6.40625 17.878906 C 10.375 18.378906 12.792969 20.746094 13.65625 24.253906 C 14.164062 27.722656 12.996094 29.691406 12.4375 30.5625 Z M 12.4375 30.5625 "/>
<path style=" stroke:none;fill-rule:nonzero;fill:rgb(70.588235%,0.784314%,14.117647%);fill-opacity:1;" d="M 7.519531 30.558594 L 0.902344 30.476562 L 0.9375 23.230469 C 0.789062 23.191406 7.164062 30.324219 7.519531 30.558594 Z M 7.519531 30.558594 "/>
<path style=" stroke:none;fill-rule:nonzero;fill:rgb(100%,80.392157%,2.352941%);fill-opacity:1;" d="M 21.152344 30.554688 L 21.804688 27.414062 C 22.03125 25.976562 22.246094 23.703125 20.683594 22.875 C 20.015625 22.609375 19.089844 22.652344 18.605469 23.054688 C 18.070312 23.527344 18.433594 23.890625 18.117188 23.5625 C 17.664062 22.996094 17.714844 22.019531 17.925781 21.332031 C 18.128906 20.792969 18.757812 19.839844 20.515625 19.1875 C 21.449219 18.839844 21.664062 18.101562 22.726562 17.722656 C 26.96875 16.46875 28.285156 19.761719 28.285156 19.460938 C 28.425781 19.71875 28.539062 20.242188 28.542969 20.96875 L 28.554688 26.660156 C 28.414062 27.484375 30.382812 28.378906 31.277344 29.078125 L 31.253906 16.042969 L 16.554688 16.09375 L 16.539062 30.542969 Z M 21.152344 30.554688 "/>
<path style=" stroke:none;fill-rule:nonzero;fill:rgb(100%,78.823529%,0.784314%);fill-opacity:1;" d="M 23.367188 18.949219 C 22.773438 19.140625 21.640625 19.917969 21.363281 20.050781 C 19.164062 21.125 18.828125 21.945312 19.207031 21.867188 C 20.9375 21.511719 22.699219 22.492188 23.070312 24.238281 C 23.363281 26.132812 22.925781 28.414062 22.496094 30.566406 C 22.769531 30.589844 23.257812 30.648438 24.003906 29.890625 L 27.304688 27.003906 L 27.300781 20.476562 C 27.277344 20.257812 27.179688 20.066406 27.019531 19.90625 C 26.214844 19.089844 24.65625 18.496094 23.367188 18.949219 Z M 24.046875 19.488281 C 24.527344 19.488281 24.914062 19.867188 24.914062 20.339844 C 24.914062 20.808594 24.527344 21.1875 24.046875 21.1875 C 23.566406 21.1875 23.175781 20.808594 23.175781 20.339844 C 23.175781 19.867188 23.566406 19.488281 24.046875 19.488281 Z M 24.046875 19.488281 "/>
<path style=" stroke:none;fill-rule:nonzero;fill:rgb(100%,78.823529%,0.784314%);fill-opacity:1;" d="M 24.914062 30.558594 C 24.914062 30.558594 25.222656 30.464844 25.382812 30.289062 C 25.542969 30.117188 27.636719 28.203125 27.636719 28.203125 C 27.636719 28.203125 28.023438 27.808594 28.3125 28.316406 L 31.261719 30.574219 L 28.3125 30.574219 Z M 24.914062 30.558594 "/>
<path style=" stroke:none;fill-rule:nonzero;fill:rgb(0%,0%,0%);fill-opacity:1;" d="M 0.863281 15.394531 L 4.34375 15.441406 L 4.355469 3.785156 L 5.351562 3.753906 L 5.351562 2.285156 L 11.441406 2.269531 L 11.441406 3.738281 L 12.464844 3.753906 L 12.480469 15.4375 L 15.617188 15.441406 L 15.617188 0.800781 L 0.894531 0.820312 Z M 0.863281 15.394531 "/>
<path style=" stroke:none;fill-rule:nonzero;fill:rgb(0%,0%,0%);fill-opacity:1;" d="M 5.867188 3.761719 L 7.527344 3.761719 L 7.527344 15.433594 L 5.867188 15.433594 Z M 5.867188 3.761719 "/>
<path style=" stroke:none;fill-rule:nonzero;fill:rgb(0%,0%,0%);fill-opacity:1;" d="M 9.335938 3.761719 L 10.992188 3.761719 L 10.992188 15.433594 L 9.335938 15.433594 Z M 9.335938 3.761719 "/>
<path style=" stroke:none;fill-rule:nonzero;fill:rgb(19.607843%,58.823529%,20%);fill-opacity:1;" d="M 16.640625 2.953125 C 16.179688 2.554688 24.46875 2.945312 28.351562 5.390625 C 32.128906 7.371094 30.148438 9.824219 28.316406 11.1875 C 26.597656 12.390625 24.484375 13.226562 22.609375 13.878906 C 20.488281 14.617188 19.664062 14.8125 16.621094 15.417969 Z M 16.640625 2.953125 "/>
<path style=" stroke:none;fill-rule:nonzero;fill:rgb(19.607843%,58.823529%,20%);fill-opacity:1;" d="M 31.277344 10.261719 L 31.277344 15.320312 L 22.621094 15.335938 C 22.683594 15.492188 29.371094 13.203125 31.277344 10.261719 Z M 31.277344 10.261719 "/>
<path style=" stroke:none;fill-rule:nonzero;fill:rgb(19.607843%,58.823529%,20%);fill-opacity:1;" d="M 31.304688 5.871094 L 31.304688 0.804688 L 16.550781 0.796875 L 16.554688 1.40625 C 21.757812 1.71875 27.304688 2.390625 31.304688 5.871094 Z M 31.304688 5.871094 "/>
<path style=" stroke:none;fill-rule:nonzero;fill:rgb(70.588235%,0.784314%,14.117647%);fill-opacity:1;" d="M 2.734375 19.898438 C 4.023438 19.058594 6.632812 19.1875 7.445312 19.476562 C 10.507812 20.28125 12.03125 22.867188 12.324219 25.65625 C 12.320312 27.8125 11.878906 28.859375 11.324219 29.300781 Z M 2.734375 19.898438 "/>
<path style=" stroke:none;fill-rule:nonzero;fill:rgb(70.588235%,0.784314%,14.117647%);fill-opacity:1;" d="M 9.433594 30.554688 L 10.554688 30.5625 L 0.878906 19.566406 L 0.871094 21.199219 Z M 9.433594 30.554688 "/>
<path style=" stroke:none;fill-rule:nonzero;fill:rgb(0%,0%,0%);fill-opacity:1;" d="M 0.679688 34.199219 L 1.621094 32.972656 C 1.714844 32.855469 1.796875 32.757812 1.894531 32.644531 L 1.894531 32.636719 L 0.765625 32.636719 L 0.765625 32.335938 L 2.351562 32.335938 L 2.351562 32.570312 L 1.417969 33.785156 C 1.332031 33.898438 1.246094 34.007812 1.152344 34.109375 L 1.152344 34.117188 L 2.367188 34.117188 L 2.367188 34.417969 L 0.679688 34.417969 Z M 0.679688 34.199219 "/>
<path style=" stroke:none;fill-rule:nonzero;fill:rgb(0%,0%,0%);fill-opacity:1;" d="M 2.933594 31.949219 C 2.792969 31.949219 2.699219 31.839844 2.699219 31.707031 C 2.699219 31.570312 2.796875 31.464844 2.945312 31.464844 C 3.089844 31.464844 3.183594 31.570312 3.183594 31.707031 C 3.183594 31.839844 3.089844 31.949219 2.9375 31.949219 Z M 2.753906 34.417969 L 2.753906 32.335938 L 3.132812 32.335938 L 3.132812 34.417969 Z M 2.753906 34.417969 "/>
<path style=" stroke:none;fill-rule:nonzero;fill:rgb(0%,0%,0%);fill-opacity:1;" d="M 3.761719 32.898438 C 3.761719 32.679688 3.75 32.507812 3.742188 32.335938 L 4.074219 32.335938 L 4.089844 32.671875 L 4.105469 32.671875 C 4.21875 32.472656 4.414062 32.289062 4.761719 32.289062 C 5.042969 32.289062 5.257812 32.460938 5.347656 32.703125 L 5.355469 32.703125 C 5.417969 32.585938 5.503906 32.5 5.589844 32.433594 C 5.714844 32.339844 5.847656 32.289062 6.046875 32.289062 C 6.328125 32.289062 6.734375 32.46875 6.734375 33.191406 L 6.734375 34.417969 L 6.367188 34.417969 L 6.367188 33.238281 C 6.367188 32.835938 6.214844 32.597656 5.914062 32.597656 C 5.695312 32.597656 5.53125 32.757812 5.460938 32.9375 C 5.445312 32.992188 5.433594 33.0625 5.433594 33.128906 L 5.433594 34.421875 L 5.0625 34.421875 L 5.0625 33.171875 C 5.0625 32.835938 4.917969 32.597656 4.628906 32.597656 C 4.398438 32.597656 4.21875 32.785156 4.160156 32.976562 C 4.140625 33.03125 4.128906 33.097656 4.128906 33.160156 L 4.128906 34.421875 L 3.761719 34.421875 Z M 3.761719 32.898438 "/>
<path style=" stroke:none;fill-rule:nonzero;fill:rgb(0%,0%,0%);fill-opacity:1;" d="M 7.34375 31.359375 L 7.722656 31.359375 L 7.722656 32.667969 L 7.730469 32.667969 C 7.867188 32.433594 8.105469 32.289062 8.441406 32.289062 C 8.957031 32.289062 9.320312 32.71875 9.320312 33.347656 C 9.320312 34.097656 8.847656 34.46875 8.382812 34.46875 C 8.082031 34.46875 7.84375 34.351562 7.683594 34.074219 L 7.675781 34.074219 L 7.65625 34.417969 L 7.328125 34.417969 C 7.339844 34.277344 7.34375 34.066406 7.34375 33.882812 Z M 7.722656 33.585938 C 7.722656 33.632812 7.726562 33.679688 7.738281 33.722656 C 7.808594 33.984375 8.03125 34.164062 8.304688 34.164062 C 8.703125 34.164062 8.9375 33.84375 8.9375 33.363281 C 8.9375 32.941406 8.722656 32.585938 8.316406 32.585938 C 8.058594 32.585938 7.816406 32.765625 7.746094 33.050781 C 7.730469 33.097656 7.722656 33.148438 7.722656 33.210938 Z M 7.722656 33.585938 "/>
<path style=" stroke:none;fill-rule:nonzero;fill:rgb(0%,0%,0%);fill-opacity:1;" d="M 11.257812 33.921875 C 11.257812 34.101562 11.265625 34.277344 11.289062 34.417969 L 10.949219 34.417969 L 10.914062 34.15625 L 10.898438 34.15625 C 10.789062 34.320312 10.5625 34.46875 10.265625 34.46875 C 9.84375 34.46875 9.628906 34.171875 9.628906 33.867188 C 9.628906 33.363281 10.074219 33.089844 10.878906 33.09375 L 10.878906 33.050781 C 10.878906 32.878906 10.832031 32.5625 10.40625 32.566406 C 10.207031 32.566406 10.007812 32.625 9.859375 32.722656 L 9.773438 32.46875 C 9.945312 32.359375 10.199219 32.289062 10.460938 32.289062 C 11.101562 32.289062 11.257812 32.722656 11.257812 33.140625 Z M 10.886719 33.355469 C 10.476562 33.347656 10.007812 33.421875 10.007812 33.824219 C 10.007812 34.074219 10.167969 34.1875 10.359375 34.1875 C 10.632812 34.1875 10.808594 34.015625 10.871094 33.839844 C 10.882812 33.800781 10.886719 33.757812 10.886719 33.71875 Z M 10.886719 33.355469 "/>
<path style=" stroke:none;fill-rule:nonzero;fill:rgb(0%,0%,0%);fill-opacity:1;" d="M 11.863281 31.359375 L 12.242188 31.359375 L 12.242188 32.667969 L 12.25 32.667969 C 12.382812 32.433594 12.625 32.289062 12.960938 32.289062 C 13.476562 32.289062 13.835938 32.71875 13.835938 33.347656 C 13.835938 34.097656 13.363281 34.46875 12.898438 34.46875 C 12.597656 34.46875 12.363281 34.351562 12.203125 34.074219 L 12.195312 34.074219 L 12.171875 34.417969 L 11.847656 34.417969 C 11.859375 34.277344 11.863281 34.066406 11.863281 33.882812 Z M 12.242188 33.585938 C 12.242188 33.632812 12.246094 33.679688 12.253906 33.722656 C 12.328125 33.984375 12.550781 34.164062 12.820312 34.164062 C 13.222656 34.164062 13.453125 33.84375 13.453125 33.363281 C 13.453125 32.941406 13.238281 32.585938 12.835938 32.585938 C 12.578125 32.585938 12.335938 32.765625 12.261719 33.050781 C 12.25 33.097656 12.242188 33.148438 12.242188 33.210938 Z M 12.242188 33.585938 "/>
<path style=" stroke:none;fill-rule:nonzero;fill:rgb(0%,0%,0%);fill-opacity:1;" d="M 14.445312 32.335938 L 14.726562 33.390625 C 14.78125 33.621094 14.839844 33.84375 14.875 34.058594 L 14.890625 34.058594 C 14.9375 33.847656 15.003906 33.621094 15.074219 33.394531 L 15.414062 32.335938 L 15.730469 32.335938 L 16.054688 33.378906 C 16.132812 33.621094 16.191406 33.847656 16.238281 34.058594 L 16.253906 34.058594 C 16.285156 33.847656 16.34375 33.628906 16.410156 33.382812 L 16.707031 32.335938 L 17.082031 32.335938 L 16.410156 34.417969 L 16.066406 34.417969 L 15.75 33.425781 C 15.675781 33.1875 15.617188 32.980469 15.566406 32.734375 L 15.554688 32.734375 C 15.503906 32.984375 15.441406 33.203125 15.367188 33.429688 L 15.03125 34.417969 L 14.6875 34.417969 L 14.058594 32.335938 Z M 14.445312 32.335938 "/>
<path style=" stroke:none;fill-rule:nonzero;fill:rgb(0%,0%,0%);fill-opacity:1;" d="M 17.636719 33.441406 C 17.644531 33.953125 17.96875 34.164062 18.34375 34.164062 C 18.617188 34.164062 18.785156 34.117188 18.921875 34.0625 L 18.992188 34.328125 C 18.855469 34.390625 18.625 34.460938 18.292969 34.460938 C 17.65625 34.460938 17.269531 34.035156 17.269531 33.410156 C 17.269531 32.777344 17.644531 32.28125 18.25 32.28125 C 18.929688 32.28125 19.105469 32.882812 19.105469 33.265625 C 19.105469 33.34375 19.101562 33.402344 19.09375 33.445312 Z M 18.742188 33.171875 C 18.746094 32.933594 18.640625 32.554688 18.222656 32.554688 C 17.835938 32.554688 17.671875 32.90625 17.640625 33.171875 Z M 18.742188 33.171875 "/>
<path style=" stroke:none;fill-rule:nonzero;fill:rgb(0%,0%,0%);fill-opacity:1;" d="M 21.917969 34.386719 C 21.824219 34.433594 21.613281 34.507812 21.347656 34.507812 C 20.746094 34.507812 20.355469 34.082031 20.355469 33.4375 C 20.355469 32.796875 20.773438 32.328125 21.425781 32.328125 C 21.640625 32.328125 21.828125 32.382812 21.925781 32.441406 L 21.84375 32.726562 C 21.757812 32.679688 21.621094 32.628906 21.425781 32.628906 C 20.96875 32.628906 20.71875 32.988281 20.71875 33.421875 C 20.71875 33.90625 21.015625 34.203125 21.410156 34.203125 C 21.617188 34.203125 21.753906 34.152344 21.855469 34.101562 Z M 21.917969 34.386719 "/>
<path style=" stroke:none;fill-rule:nonzero;fill:rgb(0%,0%,0%);fill-opacity:1;" d="M 22.347656 33.027344 C 22.347656 32.78125 22.34375 32.570312 22.332031 32.375 L 22.648438 32.375 L 22.664062 32.785156 L 22.675781 32.785156 C 22.765625 32.503906 22.988281 32.328125 23.234375 32.328125 C 23.269531 32.328125 23.300781 32.332031 23.332031 32.339844 L 23.332031 32.695312 C 23.289062 32.691406 23.253906 32.683594 23.203125 32.683594 C 22.949219 32.683594 22.765625 32.886719 22.71875 33.167969 C 22.710938 33.222656 22.707031 33.285156 22.707031 33.347656 L 22.707031 34.460938 L 22.34375 34.460938 Z M 22.347656 33.027344 "/>
<path style=" stroke:none;fill-rule:nonzero;fill:rgb(0%,0%,0%);fill-opacity:1;" d="M 23.878906 31.992188 C 23.742188 31.992188 23.652344 31.878906 23.652344 31.746094 C 23.652344 31.613281 23.746094 31.503906 23.886719 31.503906 C 24.027344 31.503906 24.117188 31.613281 24.117188 31.746094 C 24.117188 31.878906 24.027344 31.992188 23.882812 31.992188 Z M 23.707031 34.460938 L 23.707031 32.375 L 24.070312 32.375 L 24.070312 34.460938 Z M 23.707031 34.460938 "/>
<path style=" stroke:none;fill-rule:nonzero;fill:rgb(0%,0%,0%);fill-opacity:1;" d="M 26.09375 34.386719 C 25.996094 34.433594 25.785156 34.507812 25.519531 34.507812 C 24.917969 34.507812 24.527344 34.082031 24.527344 33.4375 C 24.527344 32.796875 24.945312 32.328125 25.597656 32.328125 C 25.8125 32.328125 26 32.382812 26.101562 32.441406 L 26.019531 32.726562 C 25.929688 32.679688 25.796875 32.628906 25.597656 32.628906 C 25.140625 32.628906 24.894531 32.988281 24.894531 33.421875 C 24.894531 33.90625 25.191406 34.203125 25.585938 34.203125 C 25.792969 34.203125 25.925781 34.152344 26.03125 34.101562 Z M 26.09375 34.386719 "/>
<path style=" stroke:none;fill-rule:nonzero;fill:rgb(0%,0%,0%);fill-opacity:1;" d="M 26.878906 33.332031 L 26.886719 33.332031 C 26.9375 33.257812 27.003906 33.164062 27.058594 33.09375 L 27.648438 32.375 L 28.082031 32.375 L 27.3125 33.230469 L 28.1875 34.460938 L 27.746094 34.460938 L 27.0625 33.457031 L 26.878906 33.675781 L 26.878906 34.460938 L 26.515625 34.460938 L 26.515625 31.402344 L 26.878906 31.402344 Z M 26.878906 33.332031 "/>
<path style=" stroke:none;fill-rule:nonzero;fill:rgb(0%,0%,0%);fill-opacity:1;" d="M 28.683594 33.484375 C 28.691406 33.996094 29 34.207031 29.363281 34.207031 C 29.621094 34.207031 29.78125 34.160156 29.914062 34.101562 L 29.980469 34.371094 C 29.851562 34.429688 29.628906 34.503906 29.3125 34.503906 C 28.703125 34.503906 28.332031 34.078125 28.332031 33.453125 C 28.332031 32.820312 28.691406 32.324219 29.273438 32.324219 C 29.921875 32.324219 30.09375 32.921875 30.09375 33.304688 C 30.09375 33.382812 30.085938 33.445312 30.078125 33.488281 Z M 29.742188 33.210938 C 29.746094 32.972656 29.648438 32.59375 29.242188 32.59375 C 28.871094 32.59375 28.714844 32.949219 28.6875 33.210938 Z M 29.742188 33.210938 "/>
<path style=" stroke:none;fill-rule:nonzero;fill:rgb(0%,0%,0%);fill-opacity:1;" d="M 30.976562 31.875 L 30.976562 32.375 L 31.496094 32.375 L 31.496094 32.664062 L 30.976562 32.664062 L 30.976562 33.789062 C 30.976562 34.046875 31.046875 34.195312 31.25 34.195312 C 31.347656 34.195312 31.40625 34.183594 31.460938 34.167969 L 31.476562 34.457031 C 31.40625 34.480469 31.292969 34.507812 31.15625 34.507812 C 30.984375 34.507812 30.851562 34.449219 30.765625 34.347656 C 30.664062 34.230469 30.625 34.046875 30.625 33.800781 L 30.625 32.664062 L 30.316406 32.664062 L 30.316406 32.375 L 30.625 32.375 L 30.625 31.992188 Z M 30.976562 31.875 "/>
</g>
</svg>
